<svg xmlns="http://www.w3.org/2000/svg" xmlns:xlink="http://www.w3.org/1999/xlink" viewBox="0 0 30 30"><defs><clipPath id="a" transform="translate(0)"><path d="M6.39,10.72v-.16l-1.62-.33L3.41,12.3l1.07.22.86.33.78.4.71.22V13A7.55,7.55,0,0,1,6.39,10.72Z" fill="none"/></clipPath><clipPath id="b" transform="translate(0)"><path d="M8.53,11.14,8,11.23,7.5,11a9,9,0,0,1-.4,2v.54l.26.05.53.07.39,0,.5-.14.14-.08,0-.71A8.12,8.12,0,0,1,8.53,11.14Z" fill="none"/></clipPath><clipPath id="c" transform="translate(0)"><path d="M10.58,11.19,9.66,11h0a8.55,8.55,0,0,1-.36,1.79v.46l.05,0,.76-.39.91-.37c-.09-.37-.16-.85-.22-1.26Z" fill="none"/></clipPath><clipPath id="d" transform="translate(0)"><path d="M13.26,10.62h-.48l-.22,0-.17,0-.31.14-.15.07a12.33,12.33,0,0,1-.21,1.24l.21-.1.32-.2.28-.22.59-.6.38-.41Z" fill="none"/></clipPath><clipPath id="e" transform="translate(0)"><polygon points="15.52 9.63 16.95 9.19 18.2 8.49 18.96 8.02 20.12 8.27 21.5 8.45 22.4 8.47 23.05 8.46 23.38 8.45 23.41 8.44 23.44 8.44 23.49 8.43 24 8.77 24.1 9.03 23.82 9.06 23.25 9.15 22.62 9.25 21.32 9.52 20.53 9.63 19.46 9.71 17.71 9.77 16.19 9.74 15.52 9.63" fill="none"/></clipPath><clipPath id="f" transform="translate(0)"><polygon points="2.23 15.31 2.35 14.6 3.02 12.98 3.41 12.3 4.42 12.51 5.55 12.96 6.12 13.25 6.85 13.47 7.55 13.61 7.89 13.65 8 13.74 6.47 14.49 5.75 15 4.37 15.03 3.21 15.15 2.73 15.22 2.23 15.31" fill="none"/></clipPath><clipPath id="g" transform="translate(0)"><polygon points="6.93 15.65 6.88 13.04 6.48 11.59 6.39 10.13 4.34 9.85 1.81 15.23 6.93 15.65" fill="none"/></clipPath><clipPath id="h" transform="translate(0)"><polygon points="7.04 13.67 7.04 13.04 7.4 11.96 7.53 10.7 8.5 10.83 8.7 12.06 9.04 13.16 9.04 14.02 7.04 14.6 7.04 13.67" fill="none"/></clipPath><clipPath id="i" transform="translate(0)"><polygon points="9.17 13.93 9.17 12.89 9.41 12.53 9.71 10.56 10.73 10.79 10.96 12.3 11.27 13.25 9.17 13.93" fill="none"/></clipPath><clipPath id="j" transform="translate(0)"><polygon points="11.38 13.21 14.27 10.47 11.99 9.73 11.83 11.59 11.38 13.21" fill="none"/></clipPath></defs><path d="M9.79,21.2v-.27c0-.05,0-.08-.06-.08H9.64s-.06,0-.06.08v1.24c0,.06,0,.08.06.08h.09s.06,0,.06-.08v-.4H9.68v-.3h.43v.74c0,.21-.08.35-.28.35H9.54c-.2,0-.28-.14-.28-.35V20.89c0-.21.08-.35.28-.35h.29c.2,0,.28.14.28.35v.31Z" transform="translate(0)" fill="#212121"/><path d="M10.89,22.19h-.32l-.05.37H10.2l.32-2h.41l.33,2h-.32Zm-.05-.33L10.73,21l-.12.85Z" transform="translate(0)" fill="#212121"/><path d="M11.84,22.12l-.19-.91v1.35h-.28v-2h.35L12,21.68l.24-1.14h.35v2h-.28V21.2l-.19.92Z" transform="translate(0)" fill="#212121"/><path d="M13.51,22.22v.34h-.77v-2h.76v.34h-.44v.49h.37v.33h-.37v.52Z" transform="translate(0)" fill="#212121"/><path d="M14.43,21.8h-.06v.76h-.32v-2h.59c.2,0,.28.14.28.35v.56c0,.18-.05.3-.18.34l.25.77h-.34Zm-.06-.32h.17c.05,0,.06,0,.06-.07V21c0-.05,0-.07-.06-.07h-.17Z" transform="translate(0)" fill="#212121"/><path d="M15.88,22.22v.34H15.1v-2h.76v.34h-.44v.49h.37v.33h-.37v.52Z" transform="translate(0)" fill="#212121"/><path d="M16.51,21.78c0-.06,0-.07-.06-.07h-.2c-.19,0-.26-.14-.26-.36v-.46c0-.21.08-.35.28-.35h.27c.21,0,.29.14.29.35v.26h-.32V21c0-.05,0-.07-.06-.07h-.08c-.05,0-.06,0-.06.07v.36c0,.06,0,.08.06.08h.19c.2,0,.27.13.27.34v.48c0,.21-.08.35-.28.35h-.27c-.21,0-.29-.14-.29-.35V22h.32v.2c0,.05,0,.07.06.07h.08s.06,0,.06-.07Z" transform="translate(0)" fill="#212121"/><path d="M17.78,22.22v.34H17v-2h.76v.34h-.44v.49h.38v.33h-.38v.52Z" transform="translate(0)" fill="#212121"/><path d="M18.29,21.8h-.05v.76h-.32v-2h.58c.21,0,.29.14.29.35v.56c0,.18-.06.3-.18.34l.25.77h-.34Zm-.05-.32h.17s.06,0,.06-.07V21c0-.05,0-.07-.06-.07h-.17Z" transform="translate(0)" fill="#212121"/><path d="M19.9,20.54l-.31,2h-.4l-.31-2h.33l.18,1.5.18-1.5Z" transform="translate(0)" fill="#212121"/><path d="M20.79,22.22v.34H20v-2h.76v.34h-.44v.49h.38v.33h-.38v.52Z" transform="translate(0)" fill="#212121"/><path d="M6.5,18.1a.59.59,0,0,0-.24-.05c-.23,0-.35.24-.35.76s.14.7.36.7a.66.66,0,0,0,.41-.21l.12.28a.79.79,0,0,1-.56.33c-.44,0-.7-.37-.7-1.09s.29-1.15.73-1.15a1.13,1.13,0,0,1,.5.14v.59H6.55Z" transform="translate(0)" fill="#212121"/><path d="M7.43,19c0,.36.08.5.29.5S8,19.36,8,19v-.93L7.83,18v-.26l.66,0V18l-.16.09V19c0,.59-.16.91-.62.91S7.1,19.64,7.1,19v-1L6.94,18v-.26l.66,0V18l-.17.09Z" transform="translate(0)" fill="#212121"/><path d="M10.17,19.87H9.48v-.26l.16-.08-.05-.23H9.11l0,.23.17.08v.26H8.58v-.26l.15-.08.48-1.82h.34L10,19.53l.15.08Zm-.81-1.62L9.19,19h.33Z" transform="translate(0)" fill="#212121"/><path d="M10.53,18.07h-.21l-.05.3h-.2V17.7h1.25v.67h-.2l0-.3h-.21v1.45l.21.09v.26h-.75v-.26l.21-.09Z" transform="translate(0)" fill="#212121"/><path d="M11.42,19.61l.16-.09V18.07L11.42,18v-.26l.5,0h.16c.35,0,.56.21.56.63a.68.68,0,0,1-.24.58s0,.1.09.2l.14.43.15.07v.26h-.4l-.18-.57c-.07-.23-.09-.28-.21-.28h-.07v.5l.15.09v.26h-.65ZM12,18.7c.17,0,.27-.12.27-.33s-.08-.3-.22-.3h-.17v.63Z" transform="translate(0)" fill="#212121"/><path d="M14.31,18.76c0,.69-.29,1.15-.72,1.15s-.67-.38-.67-1.1.27-1.14.71-1.14S14.31,18.07,14.31,18.76Zm-1,0c0,.51.09.74.31.74s.34-.2.34-.75-.1-.73-.32-.73S13.29,18.24,13.29,18.79Z" transform="translate(0)" fill="#212121"/><path d="M16,18.1a.59.59,0,0,0-.24-.05c-.23,0-.36.24-.36.76s.14.7.37.7a.66.66,0,0,0,.41-.21l.12.28a.79.79,0,0,1-.57.33c-.43,0-.69-.37-.69-1.09s.29-1.15.73-1.15a1.13,1.13,0,0,1,.5.14v.59h-.21Z" transform="translate(0)" fill="#212121"/><path d="M17.88,18.76c0,.69-.29,1.15-.72,1.15s-.67-.38-.67-1.1.28-1.14.71-1.14S17.88,18.07,17.88,18.76Zm-1,0c0,.51.1.74.31.74s.35-.2.35-.75-.11-.73-.33-.73S16.86,18.24,16.86,18.79Z" transform="translate(0)" fill="#212121"/><path d="M18.94,19.17h.21v.7H18.07v-.26l.16-.09V18.07L18.07,18v-.26l.65,0V18l-.16.09v1.44h.33Z" transform="translate(0)" fill="#212121"/><path d="M19.25,19.61l.16-.09V18.07L19.25,18v-.26l.66,0V18l-.16.09v1.45l.16.09v.26h-.66Z" transform="translate(0)" fill="#212121"/><path d="M20.07,19.61l.16-.09V18.07L20.07,18v-.26l.52,0,.58,1.43V18.07L21,18v-.26l.61,0V18l-.16.09v1.8h-.36l-.58-1.39v1l.17.09v.26h-.63Z" transform="translate(0)" fill="#212121"/><path d="M23.3,19.87h-.69v-.26l.16-.08-.05-.23h-.48l0,.23.17.08v.26h-.65v-.26l.15-.08.48-1.82h.34l.47,1.83.15.08Zm-.81-1.62-.17.73h.33Z" transform="translate(0)" fill="#212121"/><path d="M23.66,19.47a.37.37,0,0,0,.21.06.25.25,0,0,0,.26-.25c0-.36-.73-.2-.73-1,0-.43.23-.65.55-.65a1.16,1.16,0,0,1,.47.12v.56h-.2l-.05-.26A.51.51,0,0,0,24,18a.21.21,0,0,0-.23.22c0,.36.73.22.73.94,0,.46-.25.71-.59.71a1.33,1.33,0,0,1-.48-.11v-.59h.22Z" transform="translate(0)" fill="#212121"/><line x1="3.92" y1="20.24" x2="26.08" y2="20.24" fill="none" stroke="#212121" stroke-miterlimit="10" stroke-width="0.2"/><line x1="25.07" y1="19.83" x2="28.09" y2="19.83" fill="none" stroke="#212121" stroke-miterlimit="10" stroke-width="0.2"/><line x1="1.91" y1="19.83" x2="4.93" y2="19.83" fill="none" stroke="#212121" stroke-miterlimit="10" stroke-width="0.2"/><line x1="21.18" y1="20.64" x2="25.54" y2="20.64" fill="none" stroke="#212121" stroke-miterlimit="10" stroke-width="0.2"/><line x1="4.46" y1="20.64" x2="8.82" y2="20.64" fill="none" stroke="#212121" stroke-miterlimit="10" stroke-width="0.2"/><g clip-path="url(#a)"><path d="M8.78,10.43c-.44,1.24-.86,2.44-1.32,3.62l-.07-.13.92.07-.09.07c.48-1.2,1-2.4,1.48-3.58l0,0Zm0,0,1,0h.06l0,.05c-.43,1.22-.9,2.43-1.37,3.63l0,.07H8.32l-1-.09H7.24l0-.11C7.76,12.77,8.28,11.57,8.78,10.43Z" transform="translate(0)" fill="#212121"/><path d="M6.14,9.76h0c-.45,1.14-.84,2.3-1.26,3.45L4.8,13.1l.86.29-.12.06C6,12.32,6.48,11.22,7,10.11H7Zm0,0L7,10.1H7c-.42,1.13-.81,2.27-1.25,3.4l0,.09-.09,0-.85-.32-.09,0,0-.08c.47-1.14,1-2.25,1.43-3.39h0Z" transform="translate(0)" fill="#212121"/><path d="M7,10.11c-.42,1.18-.81,2.3-1.25,3.41l0-.12.86.28-.13.06c.46-1.15.92-2.29,1.42-3.43l0,0Zm0,0,.89.18H7.9l0,0c-.41,1.17-.85,2.32-1.3,3.47l0,.09-.08,0-.86-.3-.09,0,0-.09C6,12.3,6.49,11.18,7,10.11Z" transform="translate(0)" fill="#212121"/><path d="M13.39,11.88a2.8,2.8,0,0,0,.86-1.33l0,.1-.63-.23.13-.06c-.24.6-.53,1.16-.79,1.75v0Zm0,0-.39.23,0,0v0c.21-.6.39-1.22.62-1.81l0-.09.09,0,.62.27.08,0,0,.07A3.23,3.23,0,0,1,13.39,11.88Z" transform="translate(0)" fill="#212121"/><path d="M5.24,9.52C4.82,10.71,4.42,11.84,4,13l-.07-.12.89.25-.13.05c.46-1.14.91-2.27,1.41-3.4l0,0A2.93,2.93,0,0,0,5.24,9.52Zm0,0a2.86,2.86,0,0,1,.9.2l0,0v0c-.41,1.16-.85,2.3-1.29,3.45l0,.08-.09,0L3.88,13l-.1,0,0-.09C4.27,11.74,4.76,10.61,5.24,9.52Z" transform="translate(0)" fill="#212121"/><path d="M7.85,10.33c-.43,1.2-.83,2.35-1.28,3.48l-.06-.12.88.22L7.28,14c.47-1.19,1-2.38,1.46-3.55l0,.05Zm0,0,.93.06h.05v0c-.43,1.22-.89,2.41-1.36,3.61l0,.08-.08,0-.89-.24-.1,0,0-.1C6.86,12.58,7.37,11.43,7.85,10.33Z" transform="translate(0)" fill="#212121"/><path d="M11.75,12.78c.44-.25.82-.52,1.21-.73l0,0c.21-.6.45-1.19.67-1.79l.06.13-.5-.2h.09l-.52.26,0-.05C12.48,11.19,12.1,11.93,11.75,12.78Zm0,0c.28-.75.53-1.6.86-2.43v0l0,0,.48-.25,0,0,0,0,.5.2.09,0,0,.09c-.24.59-.47,1.18-.73,1.77v0h0Z" transform="translate(0)" fill="#212121"/><path d="M3.9,12.93c.42-1.19.82-2.32,1.25-3.44l.08.13h-1l.09-.06c-.43,1.07-.87,2.15-1.33,3.21l0,0C3.3,12.79,3.6,12.84,3.9,12.93Zm0,0c-.3-.06-.61-.09-.91-.13H2.94v0c.39-1.09.8-2.17,1.22-3.25l0-.07H5.38l0,.13C4.87,10.71,4.37,11.85,3.9,12.93Z" transform="translate(0)" fill="#212121"/><path d="M10.57,10.57l-.84-.07h0c-.47,1.21-.92,2.42-1.34,3.64L8.31,14a2.71,2.71,0,0,0,1-.19l0,0c.47-1.08.9-2.16,1.34-3.25h-.1Zm0,0h.1c-.42,1.09-.84,2.18-1.24,3.29v0h0a2.89,2.89,0,0,1-1.08.29H8.15l.07-.14c.53-1.18,1-2.37,1.51-3.57h0Z" transform="translate(0)" fill="#212121"/><path d="M11.38,10.77a5.77,5.77,0,0,1-.72-.16l0,0c-.38,1.11-.8,2.2-1.22,3.29l-.13-.13,1.16-.46,0,.05Q11,12,11.6,10.67v0Zm0,0,.22-.1,0,0v0c-.31.92-.64,1.82-1,2.72v0h0l-1.16.49L9.2,14l.09-.22c.44-1.09.87-2.17,1.35-3.24v0h0A5.68,5.68,0,0,0,11.38,10.77Z" transform="translate(0)" fill="#212121"/><path d="M11.61,10.68c-.32.93-.64,1.83-1,2.72l-.12-.11,1.2-.6-.05.05c.32-.79.64-1.59,1-2.37l.06.07C12.35,10.55,12,10.57,11.61,10.68Zm0,0c.35-.14.72-.21,1.07-.34l.1-.05,0,.12c-.28.81-.59,1.61-.9,2.41v0l0,0-1.22.58-.2.1.08-.21C10.82,12.43,11.22,11.54,11.61,10.68Z" transform="translate(0)" fill="#212121"/></g><g clip-path="url(#b)"><path d="M8.78,10.43c-.44,1.24-.86,2.44-1.32,3.62l-.07-.13.92.07-.09.07c.48-1.2,1-2.4,1.48-3.58l0,0Zm0,0,1,0h.06l0,.05c-.43,1.22-.9,2.43-1.37,3.63l0,.07H8.32l-1-.09H7.24l0-.11C7.76,12.77,8.28,11.57,8.78,10.43Z" transform="translate(0)" fill="#212121"/><path d="M6.14,9.76h0c-.45,1.14-.84,2.3-1.26,3.45L4.8,13.1l.86.29-.12.06C6,12.32,6.48,11.22,7,10.11H7Zm0,0L7,10.1H7c-.42,1.13-.81,2.27-1.25,3.4l0,.09-.09,0-.85-.32-.09,0,0-.08c.47-1.14,1-2.25,1.43-3.39h0Z" transform="translate(0)" fill="#212121"/><path d="M7,10.11c-.42,1.18-.81,2.3-1.25,3.41l0-.12.86.28-.13.06c.46-1.15.92-2.29,1.42-3.43l0,0Zm0,0,.89.18H7.9l0,0c-.41,1.17-.85,2.32-1.3,3.47l0,.09-.08,0-.86-.3-.09,0,0-.09C6,12.3,6.49,11.18,7,10.11Z" transform="translate(0)" fill="#212121"/><path d="M13.39,11.88a2.8,2.8,0,0,0,.86-1.33l0,.1-.63-.23.13-.06c-.24.6-.53,1.16-.79,1.75v0Zm0,0-.39.23,0,0v0c.21-.6.39-1.22.62-1.81l0-.09.09,0,.62.27.08,0,0,.07A3.23,3.23,0,0,1,13.39,11.88Z" transform="translate(0)" fill="#212121"/><path d="M5.24,9.52C4.82,10.71,4.42,11.84,4,13l-.07-.12.89.25-.13.05c.46-1.14.91-2.27,1.41-3.4l0,0A2.93,2.93,0,0,0,5.24,9.52Zm0,0a2.86,2.86,0,0,1,.9.2l0,0v0c-.41,1.16-.85,2.3-1.29,3.45l0,.08-.09,0L3.88,13l-.1,0,0-.09C4.27,11.74,4.76,10.61,5.24,9.52Z" transform="translate(0)" fill="#212121"/><path d="M7.85,10.33c-.43,1.2-.83,2.35-1.28,3.48l-.06-.12.88.22L7.28,14c.47-1.19,1-2.38,1.46-3.55l0,.05Zm0,0,.93.06h.05v0c-.43,1.22-.89,2.41-1.36,3.61l0,.08-.08,0-.89-.24-.1,0,0-.1C6.86,12.58,7.37,11.43,7.85,10.33Z" transform="translate(0)" fill="#212121"/><path d="M11.75,12.78c.44-.25.82-.52,1.21-.73l0,0c.21-.6.45-1.19.67-1.79l.06.13-.5-.2h.09l-.52.26,0-.05C12.48,11.19,12.1,11.93,11.75,12.78Zm0,0c.28-.75.53-1.6.86-2.43v0l0,0,.48-.25,0,0,0,0,.5.2.09,0,0,.09c-.24.59-.47,1.18-.73,1.77v0h0Z" transform="translate(0)" fill="#212121"/><path d="M3.9,12.93c.42-1.19.82-2.32,1.25-3.44l.08.13h-1l.09-.06c-.43,1.07-.87,2.15-1.33,3.21l0,0C3.3,12.79,3.6,12.84,3.9,12.93Zm0,0c-.3-.06-.61-.09-.91-.13H2.94v0c.39-1.09.8-2.17,1.22-3.25l0-.07H5.38l0,.13C4.87,10.71,4.37,11.85,3.9,12.93Z" transform="translate(0)" fill="#212121"/><path d="M10.57,10.57l-.84-.07h0c-.47,1.21-.92,2.42-1.34,3.64L8.31,14a2.71,2.71,0,0,0,1-.19l0,0c.47-1.08.9-2.16,1.34-3.25h-.1Zm0,0h.1c-.42,1.09-.84,2.18-1.24,3.29v0h0a2.89,2.89,0,0,1-1.08.29H8.15l.07-.14c.53-1.18,1-2.37,1.51-3.57h0Z" transform="translate(0)" fill="#212121"/><path d="M11.38,10.77a5.77,5.77,0,0,1-.72-.16l0,0c-.38,1.11-.8,2.2-1.22,3.29l-.13-.13,1.16-.46,0,.05Q11,12,11.6,10.67v0Zm0,0,.22-.1,0,0v0c-.31.92-.64,1.82-1,2.72v0h0l-1.16.49L9.2,14l.09-.22c.44-1.09.87-2.17,1.35-3.24v0h0A5.68,5.68,0,0,0,11.38,10.77Z" transform="translate(0)" fill="#212121"/><path d="M11.61,10.68c-.32.93-.64,1.83-1,2.72l-.12-.11,1.2-.6-.05.05c.32-.79.64-1.59,1-2.37l.06.07C12.35,10.55,12,10.57,11.61,10.68Zm0,0c.35-.14.72-.21,1.07-.34l.1-.05,0,.12c-.28.81-.59,1.61-.9,2.41v0l0,0-1.22.58-.2.1.08-.21C10.82,12.43,11.22,11.54,11.61,10.68Z" transform="translate(0)" fill="#212121"/></g><g clip-path="url(#c)"><path d="M8.78,10.43c-.44,1.24-.86,2.44-1.32,3.62l-.07-.13.92.07-.09.07c.48-1.2,1-2.4,1.48-3.58l0,0Zm0,0,1,0h.06l0,.05c-.43,1.22-.9,2.43-1.37,3.63l0,.07H8.32l-1-.09H7.24l0-.11C7.76,12.77,8.28,11.57,8.78,10.43Z" transform="translate(0)" fill="#212121"/><path d="M6.14,9.76h0c-.45,1.14-.84,2.3-1.26,3.45L4.8,13.1l.86.29-.12.06C6,12.32,6.48,11.22,7,10.11H7Zm0,0L7,10.1H7c-.42,1.13-.81,2.27-1.25,3.4l0,.09-.09,0-.85-.32-.09,0,0-.08c.47-1.14,1-2.25,1.43-3.39h0Z" transform="translate(0)" fill="#212121"/><path d="M7,10.11c-.42,1.18-.81,2.3-1.25,3.41l0-.12.86.28-.13.06c.46-1.15.92-2.29,1.42-3.43l0,0Zm0,0,.89.18H7.9l0,0c-.41,1.17-.85,2.32-1.3,3.47l0,.09-.08,0-.86-.3-.09,0,0-.09C6,12.3,6.49,11.18,7,10.11Z" transform="translate(0)" fill="#212121"/><path d="M13.39,11.88a2.8,2.8,0,0,0,.86-1.33l0,.1-.63-.23.13-.06c-.24.6-.53,1.16-.79,1.75v0Zm0,0-.39.23,0,0v0c.21-.6.39-1.22.62-1.81l0-.09.09,0,.62.27.08,0,0,.07A3.23,3.23,0,0,1,13.39,11.88Z" transform="translate(0)" fill="#212121"/><path d="M5.24,9.52C4.82,10.71,4.42,11.84,4,13l-.07-.12.89.25-.13.05c.46-1.14.91-2.27,1.41-3.4l0,0A2.93,2.93,0,0,0,5.24,9.52Zm0,0a2.86,2.86,0,0,1,.9.2l0,0v0c-.41,1.16-.85,2.3-1.29,3.45l0,.08-.09,0L3.88,13l-.1,0,0-.09C4.27,11.74,4.76,10.61,5.24,9.52Z" transform="translate(0)" fill="#212121"/><path d="M7.85,10.33c-.43,1.2-.83,2.35-1.28,3.48l-.06-.12.88.22L7.28,14c.47-1.19,1-2.38,1.46-3.55l0,.05Zm0,0,.93.06h.05v0c-.43,1.22-.89,2.41-1.36,3.61l0,.08-.08,0-.89-.24-.1,0,0-.1C6.86,12.58,7.37,11.43,7.85,10.33Z" transform="translate(0)" fill="#212121"/><path d="M11.75,12.78c.44-.25.82-.52,1.21-.73l0,0c.21-.6.45-1.19.67-1.79l.06.13-.5-.2h.09l-.52.26,0-.05C12.48,11.19,12.1,11.93,11.75,12.78Zm0,0c.28-.75.53-1.6.86-2.43v0l0,0,.48-.25,0,0,0,0,.5.2.09,0,0,.09c-.24.59-.47,1.18-.73,1.77v0h0Z" transform="translate(0)" fill="#212121"/><path d="M3.9,12.93c.42-1.19.82-2.32,1.25-3.44l.08.13h-1l.09-.06c-.43,1.07-.87,2.15-1.33,3.21l0,0C3.3,12.79,3.6,12.84,3.9,12.93Zm0,0c-.3-.06-.61-.09-.91-.13H2.94v0c.39-1.09.8-2.17,1.22-3.25l0-.07H5.38l0,.13C4.87,10.71,4.37,11.85,3.9,12.93Z" transform="translate(0)" fill="#212121"/><path d="M10.57,10.57l-.84-.07h0c-.47,1.21-.92,2.42-1.34,3.64L8.31,14a2.71,2.71,0,0,0,1-.19l0,0c.47-1.08.9-2.16,1.34-3.25h-.1Zm0,0h.1c-.42,1.09-.84,2.18-1.24,3.29v0h0a2.89,2.89,0,0,1-1.08.29H8.15l.07-.14c.53-1.18,1-2.37,1.51-3.57h0Z" transform="translate(0)" fill="#212121"/><path d="M11.38,10.77a5.77,5.77,0,0,1-.72-.16l0,0c-.38,1.11-.8,2.2-1.22,3.29l-.13-.13,1.16-.46,0,.05Q11,12,11.6,10.67v0Zm0,0,.22-.1,0,0v0c-.31.92-.64,1.82-1,2.72v0h0l-1.16.49L9.2,14l.09-.22c.44-1.09.87-2.17,1.35-3.24v0h0A5.68,5.68,0,0,0,11.38,10.77Z" transform="translate(0)" fill="#212121"/><path d="M11.61,10.68c-.32.93-.64,1.83-1,2.72l-.12-.11,1.2-.6-.05.05c.32-.79.64-1.59,1-2.37l.06.07C12.35,10.55,12,10.57,11.61,10.68Zm0,0c.35-.14.72-.21,1.07-.34l.1-.05,0,.12c-.28.81-.59,1.61-.9,2.41v0l0,0-1.22.58-.2.1.08-.21C10.82,12.43,11.22,11.54,11.61,10.68Z" transform="translate(0)" fill="#212121"/></g><g clip-path="url(#d)"><path d="M8.78,10.43c-.44,1.24-.86,2.44-1.32,3.62l-.07-.13.92.07-.09.07c.48-1.2,1-2.4,1.48-3.58l0,0Zm0,0,1,0h.06l0,.05c-.43,1.22-.9,2.43-1.37,3.63l0,.07H8.32l-1-.09H7.24l0-.11C7.76,12.77,8.28,11.57,8.78,10.43Z" transform="translate(0)" fill="#212121"/><path d="M6.14,9.76h0c-.45,1.14-.84,2.3-1.26,3.45L4.8,13.1l.86.29-.12.06C6,12.32,6.48,11.22,7,10.11H7Zm0,0L7,10.1H7c-.42,1.13-.81,2.27-1.25,3.4l0,.09-.09,0-.85-.32-.09,0,0-.08c.47-1.14,1-2.25,1.43-3.39h0Z" transform="translate(0)" fill="#212121"/><path d="M7,10.11c-.42,1.18-.81,2.3-1.25,3.41l0-.12.86.28-.13.06c.46-1.15.92-2.29,1.42-3.43l0,0Zm0,0,.89.18H7.9l0,0c-.41,1.17-.85,2.32-1.3,3.47l0,.09-.08,0-.86-.3-.09,0,0-.09C6,12.3,6.49,11.18,7,10.11Z" transform="translate(0)" fill="#212121"/><path d="M13.39,11.88a2.8,2.8,0,0,0,.86-1.33l0,.1-.63-.23.13-.06c-.24.6-.53,1.16-.79,1.75v0Zm0,0-.39.23,0,0v0c.21-.6.39-1.22.62-1.81l0-.09.09,0,.62.27.08,0,0,.07A3.23,3.23,0,0,1,13.39,11.88Z" transform="translate(0)" fill="#212121"/><path d="M5.24,9.52C4.82,10.71,4.42,11.84,4,13l-.07-.12.89.25-.13.05c.46-1.14.91-2.27,1.41-3.4l0,0A2.93,2.93,0,0,0,5.24,9.52Zm0,0a2.86,2.86,0,0,1,.9.2l0,0v0c-.41,1.16-.85,2.3-1.29,3.45l0,.08-.09,0L3.88,13l-.1,0,0-.09C4.27,11.74,4.76,10.61,5.24,9.52Z" transform="translate(0)" fill="#212121"/><path d="M7.85,10.33c-.43,1.2-.83,2.35-1.28,3.48l-.06-.12.88.22L7.28,14c.47-1.19,1-2.38,1.46-3.55l0,.05Zm0,0,.93.06h.05v0c-.43,1.22-.89,2.41-1.36,3.61l0,.08-.08,0-.89-.24-.1,0,0-.1C6.86,12.58,7.37,11.43,7.85,10.33Z" transform="translate(0)" fill="#212121"/><path d="M11.75,12.78c.44-.25.82-.52,1.21-.73l0,0c.21-.6.45-1.19.67-1.79l.06.13-.5-.2h.09l-.52.26,0-.05C12.48,11.19,12.1,11.93,11.75,12.78Zm0,0c.28-.75.53-1.6.86-2.43v0l0,0,.48-.25,0,0,0,0,.5.2.09,0,0,.09c-.24.59-.47,1.18-.73,1.77v0h0Z" transform="translate(0)" fill="#212121"/><path d="M3.9,12.93c.42-1.19.82-2.32,1.25-3.44l.08.13h-1l.09-.06c-.43,1.07-.87,2.15-1.33,3.21l0,0C3.3,12.79,3.6,12.84,3.9,12.93Zm0,0c-.3-.06-.61-.09-.91-.13H2.94v0c.39-1.09.8-2.17,1.22-3.25l0-.07H5.38l0,.13C4.87,10.71,4.37,11.85,3.9,12.93Z" transform="translate(0)" fill="#212121"/><path d="M10.57,10.57l-.84-.07h0c-.47,1.21-.92,2.42-1.34,3.64L8.31,14a2.71,2.71,0,0,0,1-.19l0,0c.47-1.08.9-2.16,1.34-3.25h-.1Zm0,0h.1c-.42,1.09-.84,2.18-1.24,3.29v0h0a2.89,2.89,0,0,1-1.08.29H8.15l.07-.14c.53-1.18,1-2.37,1.51-3.57h0Z" transform="translate(0)" fill="#212121"/><path d="M11.38,10.77a5.77,5.77,0,0,1-.72-.16l0,0c-.38,1.11-.8,2.2-1.22,3.29l-.13-.13,1.16-.46,0,.05Q11,12,11.6,10.67v0Zm0,0,.22-.1,0,0v0c-.31.92-.64,1.82-1,2.72v0h0l-1.16.49L9.2,14l.09-.22c.44-1.09.87-2.17,1.35-3.24v0h0A5.68,5.68,0,0,0,11.38,10.77Z" transform="translate(0)" fill="#212121"/><path d="M11.61,10.68c-.32.93-.64,1.83-1,2.72l-.12-.11,1.2-.6-.05.05c.32-.79.64-1.59,1-2.37l.06.07C12.35,10.55,12,10.57,11.61,10.68Zm0,0c.35-.14.72-.21,1.07-.34l.1-.05,0,.12c-.28.81-.59,1.61-.9,2.41v0l0,0-1.22.58-.2.1.08-.21C10.82,12.43,11.22,11.54,11.61,10.68Z" transform="translate(0)" fill="#212121"/></g><g clip-path="url(#e)"><path d="M16.23,12.3" transform="translate(0)" fill="none" stroke="#212121" stroke-miterlimit="10" stroke-width="0.1"/><path d="M23.61,5.63" transform="translate(0)" fill="none" stroke="#212121" stroke-miterlimit="10" stroke-width="0.1"/><path d="M24.87,8.52" transform="translate(0)" fill="none" stroke="#212121" stroke-miterlimit="10" stroke-width="0.1"/><line x1="24.82" y1="8.42" x2="16.18" y2="12.18" fill="none" stroke="#212121" stroke-miterlimit="10" stroke-width="0.1"/><line x1="24.7" y1="8.15" x2="16.06" y2="11.91" fill="none" stroke="#212121" stroke-miterlimit="10" stroke-width="0.1"/><line x1="24.59" y1="7.88" x2="15.95" y2="11.65" fill="none" stroke="#212121" stroke-miterlimit="10" stroke-width="0.1"/><line x1="24.47" y1="7.61" x2="15.83" y2="11.38" fill="none" stroke="#212121" stroke-miterlimit="10" stroke-width="0.1"/><line x1="24.35" y1="7.34" x2="15.71" y2="11.11" fill="none" stroke="#212121" stroke-miterlimit="10" stroke-width="0.1"/><line x1="24.23" y1="7.08" x2="15.59" y2="10.84" fill="none" stroke="#212121" stroke-miterlimit="10" stroke-width="0.1"/><line x1="24.12" y1="6.81" x2="15.48" y2="10.57" fill="none" stroke="#212121" stroke-miterlimit="10" stroke-width="0.1"/><line x1="24" y1="6.54" x2="15.36" y2="10.3" fill="none" stroke="#212121" stroke-miterlimit="10" stroke-width="0.1"/><line x1="23.88" y1="6.27" x2="15.24" y2="10.04" fill="none" stroke="#212121" stroke-miterlimit="10" stroke-width="0.1"/><line x1="23.77" y1="6" x2="15.13" y2="9.77" fill="none" stroke="#212121" stroke-miterlimit="10" stroke-width="0.1"/><line x1="23.65" y1="5.73" x2="15.01" y2="9.5" fill="none" stroke="#212121" stroke-miterlimit="10" stroke-width="0.1"/></g><g clip-path="url(#f)"><path d="M5.32,12c-1,.46-2.07.89-3.1,1.33l0,0-.2.41L2,13.62c1.24-.51,2.49-1,3.75-1.51v0Zm0,0,.42.14h0C4.5,12.67,3.26,13.19,2,13.71l-.12,0L2,13.65l.22-.41v0h0C3.24,12.8,4.28,12.37,5.32,12Z" transform="translate(0)" fill="#212121"/><path d="M1.82,14.06l-.14.39h0c1.61-.7,3.24-1.38,4.86-2.06v.09l-.42-.15h0C4.72,12.9,3.28,13.49,1.82,14.06Zm0,0c1.41-.62,2.86-1.22,4.3-1.83h0l.41.15.12,0-.12.05c-1.63.67-3.25,1.34-4.89,2h0v0Z" transform="translate(0)" fill="#212121"/><path d="M4.89,11.83c-.81.36-1.61.7-2.41,1l0,0-.25.43-.06-.06c1-.43,2.08-.85,3.13-1.26v0Zm0,0,.43.13h0c-1,.45-2.07.89-3.11,1.32l-.13.06.08-.12.25-.43h0C3.26,12.47,4.08,12.13,4.89,11.83Z" transform="translate(0)" fill="#212121"/><path d="M5.73,12.12c-1.24.55-2.48,1.06-3.72,1.59l0,0-.17.39L1.8,14c1.44-.59,2.88-1.18,4.34-1.75h0Zm0,0,.41.15h0c-1.43.63-2.87,1.23-4.3,1.83l-.12,0,.05-.1.18-.4v0H2C3.23,13.12,4.49,12.6,5.73,12.12Z" transform="translate(0)" fill="#212121"/><path d="M8,12.79l-.5-.09h0L1.69,15.09h0l.2.49h.2l6-2.48v0l-6,2.48v-.06L3,15.47H3l5.17-2.15,0,.08L3,15.55l0-.1H3.8L8.29,13.6l0,.07L3.84,15.52l0-.07.76,0h0l3.84-1.58,0,0L4.59,15.52v0l.72,0h0l3.23-1.34,0,0L5.3,15.53v0l.7,0H6l2.65-1.09h0Zm0,0,.7,1.67h0L6,15.56H6l-.7,0h0l3.22-1.35,0,0L5.31,15.54h0l-.72,0H4.49l.08,0,3.84-1.59,0,0L4.59,15.53H3.66l.15-.06L8.29,13.6l0,.07L3.84,15.53H2.75l.24-.1,5.18-2.14,0,.08L3,15.53H3l-.91.05H1.92l.17-.07,6-2.46v0l-6,2.46H1.88l-.2-.49h0L7.45,12.7h0Z" transform="translate(0)" fill="#212121"/><path d="M1.8,15.36c2-.89,4.1-1.73,6.14-2.59l0,.09C5.92,13.69,3.87,14.55,1.8,15.36Zm0,0c2-.89,4.1-1.73,6.14-2.59l0,.09C5.92,13.69,3.87,14.55,1.8,15.36Z" transform="translate(0)" fill="#212121"/><path d="M4.89,11.83l-.47-.11h0l-1.66.72,0,0-.29.45-.06-.07Zm0,0L2.48,12.88l-.15.06.09-.13.3-.45h0l1.67-.67h0Z" transform="translate(0)" fill="#212121"/><path d="M7,12.57l-5.4,2.28,0-.06.11.27-.06,0c1.93-.79,3.85-1.58,5.78-2.35v0Zm0,0,.47.12h0c-1.91.82-3.83,1.61-5.75,2.42l-.05,0V15.1l-.12-.27v-.05l0,0Z" transform="translate(0)" fill="#212121"/><path d="M6.55,12.43,1.69,14.49l0,0-.11.34v0l-.06,0C3.36,14,5.17,13.28,7,12.56v0Zm0,0,.44.13H7c-1.79.77-3.6,1.52-5.39,2.27l-.05,0,0,0v0h0l.11-.35v0h0Z" transform="translate(0)" fill="#212121"/></g><g clip-path="url(#g)"><path d="M5.61,14.9a9,9,0,0,1,2.12-1.19,11,11,0,0,0,1.14-.32,2.65,2.65,0,0,0,.51-.29l.54-.27a22.67,22.67,0,0,0,2.2-.93,4.75,4.75,0,0,0,.88-.8l.83-.86-.8.89a4.56,4.56,0,0,1-.87.83A23.6,23.6,0,0,1,10,13l-.52.27a2.68,2.68,0,0,1-.52.32,9.44,9.44,0,0,1-1.15.36,9.59,9.59,0,0,0-2,1.21Z" transform="translate(0)" fill="#212121"/><path d="M4.77,10.08A8.62,8.62,0,0,1,7,10.63c.37.18.63.46,1,.5A4.78,4.78,0,0,0,9.1,11a3.42,3.42,0,0,1,.57-.07,3.18,3.18,0,0,1,.57.13,2,2,0,0,0,1.09.08c.36-.11.68-.32,1-.45a6.13,6.13,0,0,1,1.13-.07,7,7,0,0,0-1.12.1,10.85,10.85,0,0,1-1,.49c-.78.27-1.51-.36-2.23-.06A5.13,5.13,0,0,1,8,11.32a3.39,3.39,0,0,1-1.05-.48,8.57,8.57,0,0,0-2.17-.46Z" transform="translate(0)" fill="#212121"/><path d="M3.45,12.15a5.39,5.39,0,0,1,1.27.33,5.9,5.9,0,0,1,1.15.58,6.23,6.23,0,0,0,2.45.61,6.23,6.23,0,0,1-2.51-.48,5.84,5.84,0,0,0-1.16-.49,4.82,4.82,0,0,0-1.22-.25Z" transform="translate(0)" fill="#212121"/></g><g clip-path="url(#h)"><path d="M5.61,14.9a9,9,0,0,1,2.12-1.19,11,11,0,0,0,1.14-.32,2.65,2.65,0,0,0,.51-.29l.54-.27a22.67,22.67,0,0,0,2.2-.93,4.75,4.75,0,0,0,.88-.8l.83-.86-.8.89a4.56,4.56,0,0,1-.87.83A23.6,23.6,0,0,1,10,13l-.52.27a2.68,2.68,0,0,1-.52.32,9.44,9.44,0,0,1-1.15.36,9.59,9.59,0,0,0-2,1.21Z" transform="translate(0)" fill="#212121"/><path d="M4.77,10.08A8.62,8.62,0,0,1,7,10.63c.37.18.63.46,1,.5A4.78,4.78,0,0,0,9.1,11a3.42,3.42,0,0,1,.57-.07,3.18,3.18,0,0,1,.57.13,2,2,0,0,0,1.09.08c.36-.11.68-.32,1-.45a6.13,6.13,0,0,1,1.13-.07,7,7,0,0,0-1.12.1,10.85,10.85,0,0,1-1,.49c-.78.27-1.51-.36-2.23-.06A5.13,5.13,0,0,1,8,11.32a3.39,3.39,0,0,1-1.05-.48,8.57,8.57,0,0,0-2.17-.46Z" transform="translate(0)" fill="#212121"/><path d="M3.45,12.15a5.39,5.39,0,0,1,1.27.33,5.9,5.9,0,0,1,1.15.58,6.23,6.23,0,0,0,2.45.61,6.23,6.23,0,0,1-2.51-.48,5.84,5.84,0,0,0-1.16-.49,4.82,4.82,0,0,0-1.22-.25Z" transform="translate(0)" fill="#212121"/></g><g clip-path="url(#i)"><path d="M5.61,14.9a9,9,0,0,1,2.12-1.19,11,11,0,0,0,1.14-.32,2.65,2.65,0,0,0,.51-.29l.54-.27a22.67,22.67,0,0,0,2.2-.93,4.75,4.75,0,0,0,.88-.8l.83-.86-.8.89a4.56,4.56,0,0,1-.87.83A23.6,23.6,0,0,1,10,13l-.52.27a2.68,2.68,0,0,1-.52.32,9.44,9.44,0,0,1-1.15.36,9.59,9.59,0,0,0-2,1.21Z" transform="translate(0)" fill="#212121"/><path d="M4.77,10.08A8.62,8.62,0,0,1,7,10.63c.37.18.63.46,1,.5A4.78,4.78,0,0,0,9.1,11a3.42,3.42,0,0,1,.57-.07,3.18,3.18,0,0,1,.57.13,2,2,0,0,0,1.09.08c.36-.11.68-.32,1-.45a6.13,6.13,0,0,1,1.13-.07,7,7,0,0,0-1.12.1,10.85,10.85,0,0,1-1,.49c-.78.27-1.51-.36-2.23-.06A5.13,5.13,0,0,1,8,11.32a3.39,3.39,0,0,1-1.05-.48,8.57,8.57,0,0,0-2.17-.46Z" transform="translate(0)" fill="#212121"/><path d="M3.45,12.15a5.39,5.39,0,0,1,1.27.33,5.9,5.9,0,0,1,1.15.58,6.23,6.23,0,0,0,2.45.61,6.23,6.23,0,0,1-2.51-.48,5.84,5.84,0,0,0-1.16-.49,4.82,4.82,0,0,0-1.22-.25Z" transform="translate(0)" fill="#212121"/></g><g clip-path="url(#j)"><path d="M5.61,14.9a9,9,0,0,1,2.12-1.19,11,11,0,0,0,1.14-.32,2.65,2.65,0,0,0,.51-.29l.54-.27a22.67,22.67,0,0,0,2.2-.93,4.75,4.75,0,0,0,.88-.8l.83-.86-.8.89a4.56,4.56,0,0,1-.87.83A23.6,23.6,0,0,1,10,13l-.52.27a2.68,2.68,0,0,1-.52.32,9.44,9.44,0,0,1-1.15.36,9.59,9.59,0,0,0-2,1.21Z" transform="translate(0)" fill="#212121"/><path d="M4.77,10.08A8.62,8.62,0,0,1,7,10.63c.37.18.63.46,1,.5A4.78,4.78,0,0,0,9.1,11a3.42,3.42,0,0,1,.57-.07,3.18,3.18,0,0,1,.57.13,2,2,0,0,0,1.09.08c.36-.11.68-.32,1-.45a6.13,6.13,0,0,1,1.13-.07,7,7,0,0,0-1.12.1,10.85,10.85,0,0,1-1,.49c-.78.27-1.51-.36-2.23-.06A5.13,5.13,0,0,1,8,11.32a3.39,3.39,0,0,1-1.05-.48,8.57,8.57,0,0,0-2.17-.46Z" transform="translate(0)" fill="#212121"/><path d="M3.45,12.15a5.39,5.39,0,0,1,1.27.33,5.9,5.9,0,0,1,1.15.58,6.23,6.23,0,0,0,2.45.61,6.23,6.23,0,0,1-2.51-.48,5.84,5.84,0,0,0-1.16-.49,4.82,4.82,0,0,0-1.22-.25Z" transform="translate(0)" fill="#212121"/></g><path d="M7.13,15c.74-.19,1.47-.39,2.18-.63a10.82,10.82,0,0,0,2.07-.88,4.4,4.4,0,0,0,1.44-1.66c.4-.64.79-1.29,1.15-2h0l0,0h0c.87-.2,1.74-.44,2.58-.71A17.25,17.25,0,0,0,19,8h.05a13.6,13.6,0,0,0,2.19.4,10.32,10.32,0,0,0,1.11.06,7,7,0,0,0,1.12,0,7,7,0,0,1-1.12.07,10.47,10.47,0,0,1-1.12,0,12.73,12.73,0,0,1-2.21-.36h0a17.1,17.1,0,0,1-2.43,1.19,23.3,23.3,0,0,1-2.61.69l0,0h0c-.36.67-.73,1.33-1.13,2a4.65,4.65,0,0,1-1.48,1.76,11.2,11.2,0,0,1-2.1.93c-.72.25-1.46.47-2.19.67Z" transform="translate(0)" fill="#212121"/><path d="M8.47,15.14a19.56,19.56,0,0,0,2.31-1.21,20,20,0,0,1-2.19,1.48Z" transform="translate(0)" fill="#212121"/><path d="M15.24,9.6a32.17,32.17,0,0,0,4.5,0A16.74,16.74,0,0,0,22,9.37L24.2,9,22,9.43a15.11,15.11,0,0,1-2.24.32,32.47,32.47,0,0,1-4.52,0Z" transform="translate(0)" fill="#212121"/><path d="M14.06,9.83a23.72,23.72,0,0,0,3.67.55l3.73.18h0l.46,0-.4.23c-.58.34-1.19.62-1.79.92h0a6.19,6.19,0,0,1,3.33.16,3.66,3.66,0,0,0,1.6.25,6.94,6.94,0,0,0,1.64-.27,6.46,6.46,0,0,1-1.63.39A3.57,3.57,0,0,1,23,12.08a10.12,10.12,0,0,0-3.26-.35h0c.54-.39,1.08-.8,1.65-1.15l.07.25h0l-3.75-.2A22.5,22.5,0,0,1,14,10Z" transform="translate(0)" fill="#212121"/><polygon points="20.22 10.69 19.73 11.73 19.88 10.59 20.22 10.69" fill="#212121"/><polygon points="20.05 10.64 21.42 10.69 20.63 11.22 19.73 11.73 20.05 10.64" fill="#212121"/><path d="M16.33,16.69a21.67,21.67,0,0,0-3.48-.7c-1.18-.17-2.36-.34-3.54-.47S7,15.24,5.77,15.14a17.54,17.54,0,0,0-3.54.17,13.29,13.29,0,0,1,3.56-.41c1.19,0,2.37.18,3.56.31s2.36.32,3.54.54A15.79,15.79,0,0,1,16.33,16.69Z" transform="translate(0)" fill="#212121"/><polygon points="23.12 15.55 27.84 15.51 23.13 15.75 23.12 15.55" fill="#212121"/><path d="M15,17.35a15.9,15.9,0,0,1,3.31-1.18l0,.19A15.72,15.72,0,0,0,15,17.35Z" transform="translate(0)" fill="#212121"/><path d="M22.62,16.77A7.46,7.46,0,0,1,25.11,16a11.8,11.8,0,0,1,2.59,0A19.81,19.81,0,0,0,22.62,16.77Z" transform="translate(0)" fill="#212121"/><path d="M24.06,17.19a4,4,0,0,1,1.16-.33,3.51,3.51,0,0,1,1.21,0C25.63,17,24.87,17.12,24.06,17.19Z" transform="translate(0)" fill="#212121"/><path d="M25.14,14.41c.21-.57.49-1.05.73-1.59a1.64,1.64,0,0,1-.2.87A2.36,2.36,0,0,1,25.14,14.41Z" transform="translate(0)" fill="#212121"/><path d="M19.52,11.89c-.36.58-.72,1.14-1.07,1.72l-.55.85a9.52,9.52,0,0,0-.52.87,7.6,7.6,0,0,1,.9-1.83A9.21,9.21,0,0,1,19.52,11.89Z" transform="translate(0)" fill="#212121"/><path d="M11.66,15.48a18,18,0,0,1,1.92-1.67,4.57,4.57,0,0,1-.86.95A5.08,5.08,0,0,1,11.66,15.48Z" transform="translate(0)" fill="#212121"/><path d="M13.94,13.4a8.62,8.62,0,0,1,.75-1.14l.42-.53c.14-.18.29-.34.42-.53a4.11,4.11,0,0,1-.69,1.18A8.65,8.65,0,0,1,13.94,13.4Z" transform="translate(0)" fill="#212121"/><path d="M10,15.25A18.4,18.4,0,0,0,12,14c.33-.21.64-.44,1-.67a6.49,6.49,0,0,0,.89-.76,6.29,6.29,0,0,1-1.73,1.6A8,8,0,0,1,10,15.25Z" transform="translate(0)" fill="#212121"/><path d="M9,15.31l-.08-2.45,0,0a4.82,4.82,0,0,1-.42-1.39,6.9,6.9,0,0,1-.15-1.44,9.92,9.92,0,0,1,.1-1.43,3.76,3.76,0,0,1,.17-.72c.09-.22.19-.53.55-.61a.42.42,0,0,1,.43.25,1.4,1.4,0,0,1,.14.37,4.48,4.48,0,0,1,.11.72,11.55,11.55,0,0,1,.05,1.44,10.8,10.8,0,0,1-.18,1.42,5.68,5.68,0,0,1-.38,1.41v0c0,.8,0,1.6-.06,2.41H9Zm0,0,.29,0h0c0-.81-.07-1.62-.08-2.42h0v0a5.32,5.32,0,0,0,.3-1.35,13.54,13.54,0,0,0,.14-1.4,10.85,10.85,0,0,0-.06-1.4A3.87,3.87,0,0,0,9.43,8c0-.2-.17-.44-.23-.4s-.26.22-.33.42a2.89,2.89,0,0,0-.16.66,9.34,9.34,0,0,0-.12,1.4,7.24,7.24,0,0,0,.11,1.39A4.79,4.79,0,0,0,9,12.81l0,0h0Z" transform="translate(0)" fill="#212121"/><path d="M6.84,15.16,6.76,13v0A4.4,4.4,0,0,1,6.4,11.8a6.57,6.57,0,0,1-.14-1.26,10.69,10.69,0,0,1,.09-1.27,4.58,4.58,0,0,1,.15-.64c.09-.19.17-.48.51-.55a.38.38,0,0,1,.39.23,1.13,1.13,0,0,1,.13.33,4.72,4.72,0,0,1,.1.64,10.78,10.78,0,0,1,0,1.27,8.68,8.68,0,0,1-.17,1.26,4.75,4.75,0,0,1-.33,1.24v0c0,.71,0,1.41-.07,2.12h0Zm0,0,.26,0h0c0-.7-.07-1.42-.08-2.13H7v0a10.11,10.11,0,0,0,.38-2.42,10,10,0,0,0-.05-1.23,3.75,3.75,0,0,0-.11-.6c0-.18-.16-.38-.19-.34s-.21.18-.28.36a3.51,3.51,0,0,0-.14.58,10,10,0,0,0-.11,1.23,6.91,6.91,0,0,0,.39,2.4v0h0Z" transform="translate(0)" fill="#212121"/><path d="M11.47,15.65,11.38,13h0v0a5.77,5.77,0,0,0,.35-1.46,9.83,9.83,0,0,0,.12-1.52,13,13,0,0,0-.12-1.53,4.55,4.55,0,0,0-.17-.73c-.07-.21-.21-.46-.35-.47s-.21.24-.25.46a4.57,4.57,0,0,0-.12.74,13,13,0,0,0-.06,1.53c0,.51.1,1,.15,1.53a5.82,5.82,0,0,0,.31,1.47v0h0l-.09,2.64h0Zm0,0-.31,0h0L11.08,13v0a6.12,6.12,0,0,1-.38-1.53A11.32,11.32,0,0,1,10.52,10a13.55,13.55,0,0,1,.05-1.56,5.36,5.36,0,0,1,.11-.79,2.4,2.4,0,0,1,.14-.4.43.43,0,0,1,.44-.28c.4.1.48.44.58.67a3.63,3.63,0,0,1,.17.78,11.69,11.69,0,0,1,.11,1.56A8.09,8.09,0,0,1,12,11.49,5.68,5.68,0,0,1,11.53,13v0Z" transform="translate(0)" fill="#212121"/><path d="M11.17,12.74s0,.22.14.22.15-.2.15-.2v2.89l-.31,0Z" transform="translate(0)" fill="#212121"/><path d="M8.9,12.47s.1.39.2.39.19-.37.19-.37l0,2.8-.3,0Z" transform="translate(0)" fill="#212121"/><path d="M6.82,12.73S6.9,13,7,13s.14-.23.14-.23v2.4l-.25,0Z" transform="translate(0)" fill="#212121"/><path d="M20,17.3A5,5,0,0,0,22.29,17a1.91,1.91,0,0,0,.86-1.8,2.55,2.55,0,0,0-.65-1.91,2.19,2.19,0,0,0-1.6-.38c-.92,0-1.65,0-1.95.35a2.65,2.65,0,0,0-.75,1.86C18.2,16.07,18.3,17.3,20,17.3Z" transform="translate(0)" fill="none" stroke="#212121" stroke-miterlimit="50" stroke-width="0.1"/><path d="M21.32,17.25c-1.12-.09-1.3-.91-1.3-2.05S20.62,13,21.63,13" transform="translate(0)" fill="none" stroke="#212121" stroke-miterlimit="50" stroke-width="0.1"/><path d="M20.9,17.25c-1.13-.09-1.31-.91-1.31-2.05S20.19,13,21.2,13" transform="translate(0)" fill="none" stroke="#212121" stroke-miterlimit="50" stroke-width="0.1"/><path d="M20.7,17.25c-1.12-.09-1.31-.91-1.31-2.05S20,13,21,13" transform="translate(0)" fill="none" stroke="#212121" stroke-miterlimit="50" stroke-width="0.1"/><path d="M20.48,17.25c-1.13-.09-1.29-.9-1.29-2S19.77,13,20.78,13" transform="translate(0)" fill="none" stroke="#212121" stroke-miterlimit="50" stroke-width="0.1"/><path d="M20.24,17.25C19.11,17.16,19,16.34,19,15.2S19.53,13,20.54,13" transform="translate(0)" fill="none" stroke="#212121" stroke-miterlimit="50" stroke-width="0.1"/><path d="M20,17.25c-1.12-.09-1.25-.91-1.25-2.05S19.32,13,20.33,13" transform="translate(0)" fill="none" stroke="#212121" stroke-miterlimit="50" stroke-width="0.1"/><path d="M19.82,17.25c-1.12-.09-1.26-.91-1.26-2.05S19.12,13,20.13,13" transform="translate(0)" fill="none" stroke="#212121" stroke-miterlimit="50" stroke-width="0.1"/><path d="M19.67,17.25c-1.12-.09-1.31-.91-1.31-2.05S19,13,20,13" transform="translate(0)" fill="none" stroke="#212121" stroke-miterlimit="50" stroke-width="0.1"/><path d="M21.12,17.25c-1.13-.09-1.31-.91-1.31-2.05S20.41,13,21.42,13" transform="translate(0)" fill="none" stroke="#212121" stroke-miterlimit="50" stroke-width="0.1"/><path d="M22.24,16.56a2,2,0,0,0,.41-1.3,5.4,5.4,0,0,0,0-.7,2.67,2.67,0,0,0-.16-.69,2.88,2.88,0,0,1,.28,1.38A1.8,1.8,0,0,1,22.24,16.56Z" transform="translate(0)" fill="#212121"/><path d="M21.15,15a1.64,1.64,0,0,0,.28,1A.87.87,0,0,1,21.15,15Z" transform="translate(0)" fill="#212121"/><path d="M22.08,15.28a1.87,1.87,0,0,0-.5-1.24A1.14,1.14,0,0,1,22.08,15.28Z" transform="translate(0)" fill="#212121"/><path d="M22.18,13.82a1.28,1.28,0,0,0-.57-.33.76.76,0,0,0-.57.26,1.4,1.4,0,0,0-.3.58c-.06.22-.11.44-.15.67A2.12,2.12,0,0,1,21,13.69a.81.81,0,0,1,.65-.27A1,1,0,0,1,22.18,13.82Z" transform="translate(0)" fill="#212121"/><path d="M20.75,16.3a.68.68,0,0,0,.34.35.52.52,0,0,0,.47,0,1.3,1.3,0,0,0,.62-.77,1.14,1.14,0,0,1-.58.86.6.6,0,0,1-.85-.41Z" transform="translate(0)" fill="#212121"/><path d="M15,5c7.36,0,13.36,6.76,13.62,15.22L27,20.84l-12,4.3L3,20.84l-1.63-.58C1.64,11.8,7.64,5,15,5m0-.2c-7.48,0-13.55,6.77-13.82,15.41v.15l.14.05L2.94,21l12,4.3.07,0,.07,0,12-4.3,1.63-.58.14-.05v-.15C28.55,11.61,22.48,4.84,15,4.84Z" transform="translate(0)" fill="#212121"/><path d="M15,3.92c8,0,14.56,7.53,14.6,16.84v.08h0L15.36,26l-.36.13L14.85,26,.4,20.84h0v0C.42,11.48,7,3.92,15,3.92m0-.4C6.75,3.52,0,11.27,0,20.8v.28l.27.14L14.71,26.4l.16.05.13.05.13-.05.37-.13,14.23-5.1.27-.1v-.28h0v-.05c0-9.54-6.77-17.27-15-17.27Z" transform="translate(0)" fill="#212121"/><rect width="30" height="30" fill="none"/></svg>