<!-- Copyright (c) 2022 Jan Stehno -->
<svg xmlns="http://www.w3.org/2000/svg" viewBox="0 0 300 300"><defs><clipPath id="clip-path"><path d="M63.93,107.17c0-.54,0-1.07,0-1.61l-16.25-3.23L34.12,123l10.64,2.2,8.61,3.34,7.83,4,7.07,2.17-.06-5.11C66.09,125.77,63.93,112.28,63.93,107.17Z" fill="none"/></clipPath><clipPath id="clip-path-2"><path d="M85.34,111.36l-5.89,1-4.47-2c-.66,4.75-2,16-4,19.65v5.4l2.6.53,5.34.69,3.85.17,5-1.43,1.44-.78L89,127.42C87.59,124.17,86.18,117.33,85.34,111.36Z" fill="none"/></clipPath><clipPath id="clip-path-3"><path d="M105.76,111.92,96.57,110h0c-.79,5.81-2,14.18-3.67,18l-.06,4.6.44-.23,7.66-3.93,9.07-3.64c-.88-3.73-1.59-8.5-2.15-12.65Z" fill="none"/></clipPath><clipPath id="clip-path-4"><path d="M132.63,106.17l-2,0-2.85.13-2.22.21-1.66.42-3.14,1.44-1.48.73c-.48,4-1.21,8.53-2.06,12.39l2.09-1,3.16-2,2.78-2.24,6-6,3.76-4.11Z" fill="none"/></clipPath><clipPath id="clip-path-5"><polygon points="155.24 96.34 169.54 91.89 182.03 84.91 189.6 80.19 201.18 82.73 214.95 84.5 224.01 84.73 230.49 84.64 233.75 84.45 234.13 84.41 234.43 84.37 234.92 84.27 240.03 87.74 241.04 90.27 238.24 90.63 232.55 91.45 226.24 92.53 213.24 95.19 205.27 96.26 194.56 97.1 177.12 97.67 161.9 97.45 155.24 96.34" fill="none"/></clipPath><clipPath id="clip-path-6"><polygon points="22.28 153.06 23.51 146 30.18 129.85 34.12 123 44.15 125.07 55.48 129.61 61.2 132.5 68.48 134.73 75.49 136.09 78.94 136.53 79.96 137.44 64.66 144.9 57.55 150 43.65 150.31 32.14 151.49 27.36 152.18 22.28 153.06" fill="none"/></clipPath><clipPath id="clip-path-7"><polygon points="69.28 156.48 68.82 130.43 64.78 115.9 63.93 101.35 43.4 98.46 18.1 152.27 69.28 156.48" fill="none"/></clipPath><clipPath id="clip-path-8"><polygon points="70.39 136.7 70.39 130.37 73.98 119.6 75.28 106.96 84.96 108.34 87.01 120.63 90.41 131.62 90.41 140.18 70.39 146 70.39 136.7" fill="none"/></clipPath><clipPath id="clip-path-9"><polygon points="91.73 139.27 91.73 128.94 94.12 125.25 97.14 105.63 107.29 107.88 109.61 123 112.66 132.53 91.73 139.27" fill="none"/></clipPath><clipPath id="clip-path-10"><polygon points="113.84 132.13 142.7 104.69 119.88 97.31 118.32 115.9 113.84 132.13" fill="none"/></clipPath></defs><title>cuatrocolinasgamereserve</title><g id="cuatrocolinasgamereserve"><g id="subtitle"><path d="M97.93,212v-2.63c0-.57-.16-.79-.6-.79h-.92c-.45,0-.6.22-.6.79v12.35c0,.61.15.8.6.8h.92c.44,0,.6-.19.6-.8v-3.92H96.81v-3h4.32v7.35c0,2.15-.81,3.48-2.82,3.48H95.43c-2,0-2.82-1.33-2.82-3.48V208.91c0-2.15.78-3.48,2.82-3.48h2.88c2,0,2.82,1.33,2.82,3.48v3Z" fill="#212121"/><path d="M108.91,221.93h-3.25l-.49,3.64H102l3.22-20.14h4.07l3.31,20.14H109.4Zm-.47-3.3-1.17-8.51-1.16,8.51Z" fill="#212121"/><path d="M118.36,221.2l-1.83-9.12v13.49h-2.82V205.43h3.49l2.34,11.4,2.35-11.4h3.49v20.14h-2.82V212.05l-1.83,9.15Z" fill="#212121"/><path d="M135.15,222.24v3.33h-7.76V205.43H135v3.32h-4.38v4.91h3.73V217h-3.73v5.25Z" fill="#212121"/><path d="M144.27,218h-.56v7.54h-3.18V205.43h5.86c2,0,2.82,1.33,2.82,3.48v5.64c0,1.74-.52,2.94-1.79,3.36l2.5,7.66H146.5Zm-.56-3.2h1.72c.42,0,.58-.19.58-.76v-4.52c0-.57-.16-.8-.58-.8h-1.72Z" fill="#212121"/><path d="M158.77,222.24v3.33H151V205.43h7.58v3.32h-4.39v4.91H158V217h-3.74v5.25Z" fill="#212121"/><path d="M165.1,217.81c0-.57-.16-.76-.6-.76h-2c-2,0-2.64-1.39-2.64-3.55v-4.59c0-2.15.78-3.48,2.82-3.48h2.73c2,0,2.81,1.33,2.81,3.48v2.63h-3.2v-2c0-.57-.15-.8-.6-.8h-.76c-.45,0-.6.23-.6.8v3.54c0,.57.15.76.6.76h1.92c2,0,2.69,1.3,2.69,3.45v4.75c0,2.19-.79,3.52-2.82,3.52h-2.71c-2,0-2.83-1.33-2.83-3.52v-2.59h3.19v2c0,.57.16.79.61.79h.76c.44,0,.6-.22.6-.79Z" fill="#212121"/><path d="M177.8,222.24v3.33H170V205.43h7.58v3.32h-4.38v4.91H177V217h-3.73v5.25Z" fill="#212121"/><path d="M182.91,218h-.55v7.54h-3.18V205.43H185c2,0,2.82,1.33,2.82,3.48v5.64c0,1.74-.52,2.94-1.79,3.36l2.5,7.66h-3.42Zm-.55-3.2h1.72c.42,0,.58-.19.58-.76v-4.52c0-.57-.16-.8-.58-.8h-1.72Z" fill="#212121"/><path d="M199,205.43l-3.13,20.14h-3.92l-3.15-20.14h3.33l1.77,14.95,1.79-14.95Z" fill="#212121"/><path d="M207.91,222.24v3.33h-7.76V205.43h7.58v3.32h-4.38v4.91h3.73V217h-3.73v5.25Z" fill="#212121"/></g><g id="title"><path d="M65,181a6,6,0,0,0-2.42-.5c-2.26,0-3.56,2.4-3.56,7.55,0,5,1.4,7.09,3.67,7.09s4.1-2.16,4.1-2.16L68,195.76s-2.26,3.36-5.65,3.36c-4.38,0-6.9-3.76-6.9-10.91s2.85-11.55,7.27-11.55a11.11,11.11,0,0,1,5,1.45l-.1,5.85H65.52Z" fill="#212121"/><path d="M74.34,190.43c0,3.54.71,4.93,2.83,4.93,2.28,0,2.78-1.76,2.78-5.39v-9.24l-1.68-.93v-2.61l6.64-.16v2.77l-1.62.93V190c0,5.95-1.59,9.15-6.23,9.15-4.34,0-6.06-2.74-6.06-8.69v-9.7l-1.6-.93v-2.61L76,177v2.77l-1.68.93Z" fill="#212121"/><path d="M101.69,198.75H94.83v-2.62l1.62-.83-.52-2.25H91.14l-.54,2.22,1.69.86v2.62H85.77v-2.62l1.58-.86,4.74-18.15,3.45-.09,4.64,18.24,1.51.86Zm-8.09-16.3-1.7,7.3h3.32Z" fill="#212121"/><path d="M105.29,180.73h-2.05l-.54,2.92h-2V177h12.51v6.62h-2l-.54-2.92h-2.05v14.48l2.05.92v2.62h-7.44v-2.62l2.05-.92Z" fill="#212121"/><path d="M114.2,196.13l1.62-.92V180.73l-1.62-.93v-2.61l5-.16h1.64c3.54,0,5.61,2.1,5.61,6.29,0,2.89-1,4.77-2.44,5.82a9.86,9.86,0,0,1,.91,2l1.44,4.22,1.47.77v2.62h-4l-1.81-5.7c-.74-2.34-.93-2.83-2.08-2.83h-.75v5l1.55.92v2.62H114.2Zm6.19-9.15c1.7,0,2.7-1.17,2.7-3.23,0-1.76-.82-3-2.16-3h-1.77V187Z" fill="#212121"/><path d="M143.1,187.6c0,6.93-2.91,11.55-7.23,11.55s-6.68-3.85-6.68-11.09c0-7.09,2.74-11.4,7.12-11.4S143.1,180.73,143.1,187.6Zm-10.25.31c0,5.08,1,7.39,3.13,7.39s3.45-2,3.45-7.55c0-5.08-1.07-7.24-3.23-7.24S132.85,182.42,132.85,187.91Z" fill="#212121"/><path d="M160.12,181a6,6,0,0,0-2.42-.5c-2.26,0-3.56,2.4-3.56,7.55,0,5,1.4,7.09,3.67,7.09s4.1-2.16,4.1-2.16l1.18,2.77s-2.26,3.36-5.65,3.36c-4.38,0-6.9-3.76-6.9-10.91s2.85-11.55,7.27-11.55a11.11,11.11,0,0,1,5,1.45l-.1,5.85h-2.12Z" fill="#212121"/><path d="M178.84,187.6c0,6.93-2.91,11.55-7.23,11.55s-6.69-3.85-6.69-11.09c0-7.09,2.74-11.4,7.12-11.4S178.84,180.73,178.84,187.6Zm-10.25.31c0,5.08,1,7.39,3.13,7.39s3.45-2,3.45-7.55c0-5.08-1.08-7.24-3.23-7.24S168.59,182.42,168.59,187.91Z" fill="#212121"/><path d="M189.4,191.66h2v7.09H180.67v-2.62l1.62-.92V180.73l-1.62-.93v-2.61l6.58-.16v2.77l-1.62.93v14.32h3.3Z" fill="#212121"/><path d="M192.53,196.13l1.62-.92V180.73l-1.62-.93v-2.61l6.58-.16v2.77l-1.62.93v14.48l1.62.92v2.62h-6.58Z" fill="#212121"/><path d="M200.73,196.13l1.61-.92V180.73l-1.61-.93v-2.61l5.17-.16,5.83,14.23V180.73l-1.58-.93v-2.61l6.15-.16v2.77l-1.62.93v18h-3.6l-5.78-14v10.42l1.68.92v2.62h-6.25Z" fill="#212121"/><path d="M233,198.75h-6.86v-2.62l1.62-.83-.52-2.25h-4.79l-.54,2.22,1.69.86v2.62h-6.52v-2.62l1.58-.86,4.74-18.15,3.45-.09,4.64,18.24,1.51.86Zm-8.09-16.3-1.7,7.3h3.32Z" fill="#212121"/><path d="M236.55,194.65a3.78,3.78,0,0,0,2.11.65,2.44,2.44,0,0,0,2.61-2.5c0-3.6-7.29-2-7.29-9.61,0-4.25,2.35-6.53,5.48-6.53a11.56,11.56,0,0,1,4.75,1.23l-.11,5.61h-2l-.54-2.62a5.17,5.17,0,0,0-1.9-.46,2.08,2.08,0,0,0-2.29,2.19c0,3.57,7.27,2.15,7.27,9.39,0,4.62-2.5,7.15-5.82,7.15A12.48,12.48,0,0,1,234,198v-5.92h2.2Z" fill="#212121"/></g><g clip-path="url(#clip-path)"><path d="M87.8,104.3l-3.26,9.25-3.26,9.09q-3.3,9-6.69,17.83l-.71-1.3a40.11,40.11,0,0,0,9.19.77l-.89.63q3.57-9,7.23-18c2.46-6,4.94-11.93,7.53-17.85l.35.54Zm0,0c3.08,0,6.29.12,9.54.2h.53l-.19.53c-2.14,6.1-4.39,12.15-6.67,18.19s-4.62,12.06-7,18.07l-.24.61-.65,0a42,42,0,0,1-9.64-.88l-1.14-.23.43-1.07q3.65-9.06,7.42-18c1.27-3,2.51-5.92,3.79-8.82Z" fill="#212121"/><path d="M61.39,97.64l-.16-.07h0c-1.1,2.87-2.23,5.72-3.28,8.6s-2.1,5.77-3.13,8.66c-2.09,5.77-4.09,11.57-6.24,17.32l-.56-1.2c2.89.94,5.74,2,8.61,2.95l-1.27.57c1.13-2.8,2.23-5.61,3.41-8.39s2.37-5.56,3.56-8.33c2.38-5.55,4.84-11.07,7.15-16.65l.06.12A56.22,56.22,0,0,1,61.39,97.64Zm0,0A47,47,0,0,0,69.6,101l.09,0,0,.09c-2.11,5.66-4.08,11.37-6.13,17-1,2.84-2,5.7-3.07,8.52s-2.15,5.64-3.23,8.46l-.35.9-.92-.33c-2.84-1-5.68-2-8.5-3.09l-.92-.35.36-.85c2.34-5.67,4.84-11.28,7.26-16.92,1.21-2.82,2.45-5.62,3.61-8.46s2.32-5.68,3.47-8.53h0Z" fill="#212121"/><path d="M69.57,101.13l-6.15,17.31c-2,5.65-4.11,11.2-6.24,16.74l-.56-1.26,8.55,2.92-1.23.58,3.43-8.62,3.49-8.59,3.57-8.57c1.22-2.84,2.41-5.7,3.67-8.52l.3.54A53.69,53.69,0,0,1,69.57,101.13Zm0,0a66.86,66.86,0,0,0,9,1.74l.48.06-.17.48c-1,2.93-2.08,5.83-3.13,8.74l-3.24,8.69-3.31,8.67-3.37,8.64-.34.89-.89-.3-8.6-3L55,135.4l.38-.93c2.3-5.7,4.65-11.37,7-17L66,109.23Z" fill="#212121"/><path d="M133.89,118.79a25.86,25.86,0,0,0,2.93-2.8,23,23,0,0,0,2.4-3.24,33.77,33.77,0,0,0,3.25-7.3l.45,1c-1.07-.35-2.13-.74-3.19-1.11s-2.11-.79-3.16-1.18l1.29-.56c-.6,1.47-1.18,3-1.83,4.41s-1.3,2.91-2,4.35c-1.37,2.88-2.78,5.75-4,8.67l-.13-.11C131.24,120.27,132.55,119.51,133.89,118.79Zm0,0c-1.3.77-2.63,1.5-3.91,2.32l-.22.14.09-.25c1.07-3,2-6.06,3-9.1.49-1.52,1-3,1.52-4.53s1.1-3,1.68-4.47l.36-1,.93.39c1,.43,2.08.84,3.12,1.29s2.07.89,3.08,1.37l.75.36-.3.67a33.13,33.13,0,0,1-4.3,7,35.85,35.85,0,0,1-2.73,3A35.2,35.2,0,0,1,133.89,118.79Z" fill="#212121"/><path d="M52.4,95.24l-3.1,8.81-3.08,8.64c-2.08,5.7-4.18,11.32-6.33,16.92l-.67-1.29c3,.7,5.93,1.58,8.83,2.54l-1.24.58c2.26-5.7,4.53-11.4,6.87-17.07l3.53-8.5c1.21-2.82,2.39-5.65,3.64-8.45l.2.5A26.74,26.74,0,0,0,52.4,95.24Zm0,0a24.47,24.47,0,0,1,9,2l.32.15-.12.36c-1,2.9-2.07,5.78-3.11,8.67L55.28,115c-2.16,5.74-4.38,11.46-6.62,17.17l-.34.89-.9-.31c-2.86-1-5.73-1.85-8.65-2.56l-1.08-.27.41-1q3.48-8.61,7.07-17.09c1.22-2.8,2.4-5.62,3.62-8.37Z" fill="#212121"/><path d="M78.47,103.26l-3.15,8.94L72.18,121c-2.11,5.78-4.24,11.49-6.42,17.17l-.6-1.27a79.28,79.28,0,0,0,8.72,2.27l-1.11.61,3.55-8.94,3.62-8.92L83.63,113c1.27-3,2.5-5.91,3.8-8.84l.34.54A85.59,85.59,0,0,1,78.47,103.26Zm0,0q4.68.49,9.36.64l.53,0-.18.53c-1.05,3-2.17,6-3.26,9.06l-3.37,9-3.43,9-3.5,9-.3.77-.82-.16a80.73,80.73,0,0,1-8.92-2.39l-1-.32.38-.95c2.36-5.82,4.76-11.63,7.19-17.35l3.66-8.49Z" fill="#212121"/><path d="M117.52,127.79c2.19-1.26,4.26-2.51,6.25-3.78s3.89-2.43,5.82-3.58l-.3.35c1.09-3,2.17-6,3.3-9s2.27-5.95,3.42-8.92l.56,1.28c-1.67-.63-3.32-1.3-5-2l.94-.12a19.68,19.68,0,0,1-5.27,2.67l.56-.54c-1.57,3.83-3.2,7.6-5,11.47l-2.67,5.93C119.29,123.64,118.42,125.68,117.52,127.79Zm0,0c.68-1.87,1.38-3.81,2-5.78l2-6c1.39-4.1,2.89-8.31,4.47-12.45l.14-.39.42-.15a19.21,19.21,0,0,0,4.73-2.48l.43-.32.51.2c1.66.64,3.33,1.28,5,2l.92.38-.37.91c-1.18,3-2.35,5.91-3.58,8.85s-2.45,5.87-3.7,8.8l-.1.25-.2.1c-2.2,1.1-4.43,2.2-6.59,3.18S119.47,126.8,117.52,127.79Z" fill="#212121"/><path d="M39,129.25l3.1-8.82,3.08-8.64c2.08-5.7,4.16-11.31,6.32-16.9l.81,1.31a68.22,68.22,0,0,0-9.59,0l.87-.63q-3.21,8.08-6.5,16.13l-3.35,8c-1.15,2.66-2.26,5.34-3.45,8l-.33-.55c1.53.25,3,.54,4.56.89.75.18,1.51.35,2.25.56Zm0,0-2.28-.38-2.28-.37c-1.52-.22-3-.4-4.57-.52l-.51,0,.17-.52c.94-2.74,2-5.46,2.94-8.19l3-8.15q3.06-8.13,6.25-16.23l.23-.59.64,0a65.22,65.22,0,0,1,9.88.06l1.28.13-.48,1.19c-2.31,5.75-4.69,11.47-7.08,17.11-1.21,2.8-2.4,5.62-3.62,8.36Z" fill="#212121"/><path d="M105.7,105.7c-2.8-.24-5.59-.52-8.39-.73l.07,0c-2.28,6-4.38,12.16-6.58,18.23-1.1,3-2.16,6.09-3.3,9.11s-2.3,6-3.46,9l-1-1.36a28.57,28.57,0,0,0,5.3-.67c.86-.2,1.72-.43,2.57-.71s1.71-.62,2.59-.92l-.51.5c1.11-2.7,2.3-5.38,3.45-8.07L99.94,122c1.16-2.68,2.34-5.36,3.44-8.07s2.22-5.41,3.31-8.12h0Zm0,0,1,.11h0c-1,2.73-2.12,5.45-3.13,8.2s-2,5.49-3,8.25l-3,8.26c-1,2.75-2,5.51-3,8.25l-.14.36-.38.14c-.85.33-1.67.7-2.58,1a24,24,0,0,1-2.74.83,30.14,30.14,0,0,1-5.66.79L81.6,142l.58-1.44c1.21-3,2.39-6,3.65-9s2.53-5.94,3.8-8.91c2.53-5.94,5.16-11.85,7.61-17.82l0-.05h.06C100.11,105.15,102.9,105.4,105.7,105.7Z" fill="#212121"/><path d="M113.75,107.71a8,8,0,0,1-1.82-.21c-.61-.13-1.2-.28-1.79-.45a32.82,32.82,0,0,0-3.51-.89l.38-.22c-1.89,5.54-3.93,11-6,16.51l-3.11,8.2-3.18,8.18-1.27-1.3c2-.73,3.9-1.47,5.83-2.25s3.84-1.62,5.75-2.45l-.48.51q2.72-6.7,5.54-13.37l2.87-6.64,2.94-6.62.17.18Zm0,0,2.27-1.08.29-.14-.11.32-2.37,6.84-2.44,6.82q-2.48,6.8-5.06,13.55l-.13.35-.36.16c-1.9.9-3.84,1.74-5.78,2.55s-3.9,1.6-5.88,2.32l-2.1.76.83-2.06L96.16,130l3.32-8.12c2.25-5.39,4.5-10.79,6.89-16.14l.13-.27.26.06a34.27,34.27,0,0,1,3.5,1.2A14.41,14.41,0,0,0,113.75,107.71Z" fill="#212121"/><path d="M116.07,106.76c-.78,2.36-1.58,4.66-2.38,7s-1.59,4.58-2.4,6.85q-2.43,6.8-5,13.44l-1.26-1.19c2-1,4-2,6-3s4-2,6-2.94l-.47.51q2.37-6,4.83-11.91c.8-2,1.66-4,2.48-5.93l2.54-5.91.68.7a41.86,41.86,0,0,1-5.55,1.25C119.73,106,117.89,106.28,116.07,106.76Zm0,0a44.19,44.19,0,0,1,5.38-1.7,54.91,54.91,0,0,0,5.32-1.69l1.08-.43-.4,1.13-2.18,6.05c-.74,2-1.46,4-2.23,6q-2.25,6-4.6,12l-.14.35-.32.16c-2,1-4,2-6.06,3s-4,2-6.08,2.91l-2.14,1,.89-2.19q2.77-6.8,5.64-13.48c1-2.22,1.92-4.43,2.9-6.61S115.07,108.89,116.07,106.76Z" fill="#212121"/></g><g clip-path="url(#clip-path-2)"><path d="M87.8,104.3l-3.26,9.25-3.26,9.09q-3.3,9-6.69,17.83l-.71-1.3a40.11,40.11,0,0,0,9.19.77l-.89.63q3.57-9,7.23-18c2.46-6,4.94-11.93,7.53-17.85l.35.54Zm0,0c3.08,0,6.29.12,9.54.2h.53l-.19.53c-2.14,6.1-4.39,12.15-6.67,18.19s-4.62,12.06-7,18.07l-.24.61-.65,0a42,42,0,0,1-9.64-.88l-1.14-.23.43-1.07q3.65-9.06,7.42-18c1.27-3,2.51-5.92,3.79-8.82Z" fill="#212121"/><path d="M61.39,97.64l-.16-.07h0c-1.1,2.87-2.23,5.72-3.28,8.6s-2.1,5.77-3.13,8.66c-2.09,5.77-4.09,11.57-6.24,17.32l-.56-1.2c2.89.94,5.74,2,8.61,2.95l-1.27.57c1.13-2.8,2.23-5.61,3.41-8.39s2.37-5.56,3.56-8.33c2.38-5.55,4.84-11.07,7.15-16.65l.06.12A56.22,56.22,0,0,1,61.39,97.64Zm0,0A47,47,0,0,0,69.6,101l.09,0,0,.09c-2.11,5.66-4.08,11.37-6.13,17-1,2.84-2,5.7-3.07,8.52s-2.15,5.64-3.23,8.46l-.35.9-.92-.33c-2.84-1-5.68-2-8.5-3.09l-.92-.35.36-.85c2.34-5.67,4.84-11.28,7.26-16.92,1.21-2.82,2.45-5.62,3.61-8.46s2.32-5.68,3.47-8.53h0Z" fill="#212121"/><path d="M69.57,101.13l-6.15,17.31c-2,5.65-4.11,11.2-6.24,16.74l-.56-1.26,8.55,2.92-1.23.58,3.43-8.62,3.49-8.59,3.57-8.57c1.22-2.84,2.41-5.7,3.67-8.52l.3.54A53.69,53.69,0,0,1,69.57,101.13Zm0,0a66.86,66.86,0,0,0,9,1.74l.48.06-.17.48c-1,2.93-2.08,5.83-3.13,8.74l-3.24,8.69-3.31,8.67-3.37,8.64-.34.89-.89-.3-8.6-3L55,135.4l.38-.93c2.3-5.7,4.65-11.37,7-17L66,109.23Z" fill="#212121"/><path d="M133.89,118.79a25.86,25.86,0,0,0,2.93-2.8,23,23,0,0,0,2.4-3.24,33.77,33.77,0,0,0,3.25-7.3l.45,1c-1.07-.35-2.13-.74-3.19-1.11s-2.11-.79-3.16-1.18l1.29-.56c-.6,1.47-1.18,3-1.83,4.41s-1.3,2.91-2,4.35c-1.37,2.88-2.78,5.75-4,8.67l-.13-.11C131.24,120.27,132.55,119.51,133.89,118.79Zm0,0c-1.3.77-2.63,1.5-3.91,2.32l-.22.14.09-.25c1.07-3,2-6.06,3-9.1.49-1.52,1-3,1.52-4.53s1.1-3,1.68-4.47l.36-1,.93.39c1,.43,2.08.84,3.12,1.29s2.07.89,3.08,1.37l.75.36-.3.67a33.13,33.13,0,0,1-4.3,7,35.85,35.85,0,0,1-2.73,3A35.2,35.2,0,0,1,133.89,118.79Z" fill="#212121"/><path d="M52.4,95.24l-3.1,8.81-3.08,8.64c-2.08,5.7-4.18,11.32-6.33,16.92l-.67-1.29c3,.7,5.93,1.58,8.83,2.54l-1.24.58c2.26-5.7,4.53-11.4,6.87-17.07l3.53-8.5c1.21-2.82,2.39-5.65,3.64-8.45l.2.5A26.74,26.74,0,0,0,52.4,95.24Zm0,0a24.47,24.47,0,0,1,9,2l.32.15-.12.36c-1,2.9-2.07,5.78-3.11,8.67L55.28,115c-2.16,5.74-4.38,11.46-6.62,17.17l-.34.89-.9-.31c-2.86-1-5.73-1.85-8.65-2.56l-1.08-.27.41-1q3.48-8.61,7.07-17.09c1.22-2.8,2.4-5.62,3.62-8.37Z" fill="#212121"/><path d="M78.47,103.26l-3.15,8.94L72.18,121c-2.11,5.78-4.24,11.49-6.42,17.17l-.6-1.27a79.28,79.28,0,0,0,8.72,2.27l-1.11.61,3.55-8.94,3.62-8.92L83.63,113c1.27-3,2.5-5.91,3.8-8.84l.34.54A85.59,85.59,0,0,1,78.47,103.26Zm0,0q4.68.49,9.36.64l.53,0-.18.53c-1.05,3-2.17,6-3.26,9.06l-3.37,9-3.43,9-3.5,9-.3.77-.82-.16a80.73,80.73,0,0,1-8.92-2.39l-1-.32.38-.95c2.36-5.82,4.76-11.63,7.19-17.35l3.66-8.49Z" fill="#212121"/><path d="M117.52,127.79c2.19-1.26,4.26-2.51,6.25-3.78s3.89-2.43,5.82-3.58l-.3.35c1.09-3,2.17-6,3.3-9s2.27-5.95,3.42-8.92l.56,1.28c-1.67-.63-3.32-1.3-5-2l.94-.12a19.68,19.68,0,0,1-5.27,2.67l.56-.54c-1.57,3.83-3.2,7.6-5,11.47l-2.67,5.93C119.29,123.64,118.42,125.68,117.52,127.79Zm0,0c.68-1.87,1.38-3.81,2-5.78l2-6c1.39-4.1,2.89-8.31,4.47-12.45l.14-.39.42-.15a19.21,19.21,0,0,0,4.73-2.48l.43-.32.51.2c1.66.64,3.33,1.28,5,2l.92.38-.37.91c-1.18,3-2.35,5.91-3.58,8.85s-2.45,5.87-3.7,8.8l-.1.25-.2.1c-2.2,1.1-4.43,2.2-6.59,3.18S119.47,126.8,117.52,127.79Z" fill="#212121"/><path d="M39,129.25l3.1-8.82,3.08-8.64c2.08-5.7,4.16-11.31,6.32-16.9l.81,1.31a68.22,68.22,0,0,0-9.59,0l.87-.63q-3.21,8.08-6.5,16.13l-3.35,8c-1.15,2.66-2.26,5.34-3.45,8l-.33-.55c1.53.25,3,.54,4.56.89.75.18,1.51.35,2.25.56Zm0,0-2.28-.38-2.28-.37c-1.52-.22-3-.4-4.57-.52l-.51,0,.17-.52c.94-2.74,2-5.46,2.94-8.19l3-8.15q3.06-8.13,6.25-16.23l.23-.59.64,0a65.22,65.22,0,0,1,9.88.06l1.28.13-.48,1.19c-2.31,5.75-4.69,11.47-7.08,17.11-1.21,2.8-2.4,5.62-3.62,8.36Z" fill="#212121"/><path d="M105.7,105.7c-2.8-.24-5.59-.52-8.39-.73l.07,0c-2.28,6-4.38,12.16-6.58,18.23-1.1,3-2.16,6.09-3.3,9.11s-2.3,6-3.46,9l-1-1.36a28.57,28.57,0,0,0,5.3-.67c.86-.2,1.72-.43,2.57-.71s1.71-.62,2.59-.92l-.51.5c1.11-2.7,2.3-5.38,3.45-8.07L99.94,122c1.16-2.68,2.34-5.36,3.44-8.07s2.22-5.41,3.31-8.12h0Zm0,0,1,.11h0c-1,2.73-2.12,5.45-3.13,8.2s-2,5.49-3,8.25l-3,8.26c-1,2.75-2,5.51-3,8.25l-.14.36-.38.14c-.85.33-1.67.7-2.58,1a24,24,0,0,1-2.74.83,30.14,30.14,0,0,1-5.66.79L81.6,142l.58-1.44c1.21-3,2.39-6,3.65-9s2.53-5.94,3.8-8.91c2.53-5.94,5.16-11.85,7.61-17.82l0-.05h.06C100.11,105.15,102.9,105.4,105.7,105.7Z" fill="#212121"/><path d="M113.75,107.71a8,8,0,0,1-1.82-.21c-.61-.13-1.2-.28-1.79-.45a32.82,32.82,0,0,0-3.51-.89l.38-.22c-1.89,5.54-3.93,11-6,16.51l-3.11,8.2-3.18,8.18-1.27-1.3c2-.73,3.9-1.47,5.83-2.25s3.84-1.62,5.75-2.45l-.48.51q2.72-6.7,5.54-13.37l2.87-6.64,2.94-6.62.17.18Zm0,0,2.27-1.08.29-.14-.11.32-2.37,6.84-2.44,6.82q-2.48,6.8-5.06,13.55l-.13.35-.36.16c-1.9.9-3.84,1.74-5.78,2.55s-3.9,1.6-5.88,2.32l-2.1.76.83-2.06L96.16,130l3.32-8.12c2.25-5.39,4.5-10.79,6.89-16.14l.13-.27.26.06a34.27,34.27,0,0,1,3.5,1.2A14.41,14.41,0,0,0,113.75,107.71Z" fill="#212121"/><path d="M116.07,106.76c-.78,2.36-1.58,4.66-2.38,7s-1.59,4.58-2.4,6.85q-2.43,6.8-5,13.44l-1.26-1.19c2-1,4-2,6-3s4-2,6-2.94l-.47.51q2.37-6,4.83-11.91c.8-2,1.66-4,2.48-5.93l2.54-5.91.68.7a41.86,41.86,0,0,1-5.55,1.25C119.73,106,117.89,106.28,116.07,106.76Zm0,0a44.19,44.19,0,0,1,5.38-1.7,54.91,54.91,0,0,0,5.32-1.69l1.08-.43-.4,1.13-2.18,6.05c-.74,2-1.46,4-2.23,6q-2.25,6-4.6,12l-.14.35-.32.16c-2,1-4,2-6.06,3s-4,2-6.08,2.91l-2.14,1,.89-2.19q2.77-6.8,5.64-13.48c1-2.22,1.92-4.43,2.9-6.61S115.07,108.89,116.07,106.76Z" fill="#212121"/></g><g clip-path="url(#clip-path-3)"><path d="M87.8,104.3l-3.26,9.25-3.26,9.09q-3.3,9-6.69,17.83l-.71-1.3a40.11,40.11,0,0,0,9.19.77l-.89.63q3.57-9,7.23-18c2.46-6,4.94-11.93,7.53-17.85l.35.54Zm0,0c3.08,0,6.29.12,9.54.2h.53l-.19.53c-2.14,6.1-4.39,12.15-6.67,18.19s-4.62,12.06-7,18.07l-.24.61-.65,0a42,42,0,0,1-9.64-.88l-1.14-.23.43-1.07q3.65-9.06,7.42-18c1.27-3,2.51-5.92,3.79-8.82Z" fill="#212121"/><path d="M61.39,97.64l-.16-.07h0c-1.1,2.87-2.23,5.72-3.28,8.6s-2.1,5.77-3.13,8.66c-2.09,5.77-4.09,11.57-6.24,17.32l-.56-1.2c2.89.94,5.74,2,8.61,2.95l-1.27.57c1.13-2.8,2.23-5.61,3.41-8.39s2.37-5.56,3.56-8.33c2.38-5.55,4.84-11.07,7.15-16.65l.06.12A56.22,56.22,0,0,1,61.39,97.64Zm0,0A47,47,0,0,0,69.6,101l.09,0,0,.09c-2.11,5.66-4.08,11.37-6.13,17-1,2.84-2,5.7-3.07,8.52s-2.15,5.64-3.23,8.46l-.35.9-.92-.33c-2.84-1-5.68-2-8.5-3.09l-.92-.35.36-.85c2.34-5.67,4.84-11.28,7.26-16.92,1.21-2.82,2.45-5.62,3.61-8.46s2.32-5.68,3.47-8.53h0Z" fill="#212121"/><path d="M69.57,101.13l-6.15,17.31c-2,5.65-4.11,11.2-6.24,16.74l-.56-1.26,8.55,2.92-1.23.58,3.43-8.62,3.49-8.59,3.57-8.57c1.22-2.84,2.41-5.7,3.67-8.52l.3.54A53.69,53.69,0,0,1,69.57,101.13Zm0,0a66.86,66.86,0,0,0,9,1.74l.48.06-.17.48c-1,2.93-2.08,5.83-3.13,8.74l-3.24,8.69-3.31,8.67-3.37,8.64-.34.89-.89-.3-8.6-3L55,135.4l.38-.93c2.3-5.7,4.65-11.37,7-17L66,109.23Z" fill="#212121"/><path d="M133.89,118.79a25.86,25.86,0,0,0,2.93-2.8,23,23,0,0,0,2.4-3.24,33.77,33.77,0,0,0,3.25-7.3l.45,1c-1.07-.35-2.13-.74-3.19-1.11s-2.11-.79-3.16-1.18l1.29-.56c-.6,1.47-1.18,3-1.83,4.41s-1.3,2.91-2,4.35c-1.37,2.88-2.78,5.75-4,8.67l-.13-.11C131.24,120.27,132.55,119.51,133.89,118.79Zm0,0c-1.3.77-2.63,1.5-3.91,2.32l-.22.14.09-.25c1.07-3,2-6.06,3-9.1.49-1.52,1-3,1.52-4.53s1.1-3,1.68-4.47l.36-1,.93.39c1,.43,2.08.84,3.12,1.29s2.07.89,3.08,1.37l.75.36-.3.67a33.13,33.13,0,0,1-4.3,7,35.85,35.85,0,0,1-2.73,3A35.2,35.2,0,0,1,133.89,118.79Z" fill="#212121"/><path d="M52.4,95.24l-3.1,8.81-3.08,8.64c-2.08,5.7-4.18,11.32-6.33,16.92l-.67-1.29c3,.7,5.93,1.58,8.83,2.54l-1.24.58c2.26-5.7,4.53-11.4,6.87-17.07l3.53-8.5c1.21-2.82,2.39-5.65,3.64-8.45l.2.5A26.74,26.74,0,0,0,52.4,95.24Zm0,0a24.47,24.47,0,0,1,9,2l.32.15-.12.36c-1,2.9-2.07,5.78-3.11,8.67L55.28,115c-2.16,5.74-4.38,11.46-6.62,17.17l-.34.89-.9-.31c-2.86-1-5.73-1.85-8.65-2.56l-1.08-.27.41-1q3.48-8.61,7.07-17.09c1.22-2.8,2.4-5.62,3.62-8.37Z" fill="#212121"/><path d="M78.47,103.26l-3.15,8.94L72.18,121c-2.11,5.78-4.24,11.49-6.42,17.17l-.6-1.27a79.28,79.28,0,0,0,8.72,2.27l-1.11.61,3.55-8.94,3.62-8.92L83.63,113c1.27-3,2.5-5.91,3.8-8.84l.34.54A85.59,85.59,0,0,1,78.47,103.26Zm0,0q4.68.49,9.36.64l.53,0-.18.53c-1.05,3-2.17,6-3.26,9.06l-3.37,9-3.43,9-3.5,9-.3.77-.82-.16a80.73,80.73,0,0,1-8.92-2.39l-1-.32.38-.95c2.36-5.82,4.76-11.63,7.19-17.35l3.66-8.49Z" fill="#212121"/><path d="M117.52,127.79c2.19-1.26,4.26-2.51,6.25-3.78s3.89-2.43,5.82-3.58l-.3.35c1.09-3,2.17-6,3.3-9s2.27-5.95,3.42-8.92l.56,1.28c-1.67-.63-3.32-1.3-5-2l.94-.12a19.68,19.68,0,0,1-5.27,2.67l.56-.54c-1.57,3.83-3.2,7.6-5,11.47l-2.67,5.93C119.29,123.64,118.42,125.68,117.52,127.79Zm0,0c.68-1.87,1.38-3.81,2-5.78l2-6c1.39-4.1,2.89-8.31,4.47-12.45l.14-.39.42-.15a19.21,19.21,0,0,0,4.73-2.48l.43-.32.51.2c1.66.64,3.33,1.28,5,2l.92.38-.37.91c-1.18,3-2.35,5.91-3.58,8.85s-2.45,5.87-3.7,8.8l-.1.25-.2.1c-2.2,1.1-4.43,2.2-6.59,3.18S119.47,126.8,117.52,127.79Z" fill="#212121"/><path d="M39,129.25l3.1-8.82,3.08-8.64c2.08-5.7,4.16-11.31,6.32-16.9l.81,1.31a68.22,68.22,0,0,0-9.59,0l.87-.63q-3.21,8.08-6.5,16.13l-3.35,8c-1.15,2.66-2.26,5.34-3.45,8l-.33-.55c1.53.25,3,.54,4.56.89.75.18,1.51.35,2.25.56Zm0,0-2.28-.38-2.28-.37c-1.52-.22-3-.4-4.57-.52l-.51,0,.17-.52c.94-2.74,2-5.46,2.94-8.19l3-8.15q3.06-8.13,6.25-16.23l.23-.59.64,0a65.22,65.22,0,0,1,9.88.06l1.28.13-.48,1.19c-2.31,5.75-4.69,11.47-7.08,17.11-1.21,2.8-2.4,5.62-3.62,8.36Z" fill="#212121"/><path d="M105.7,105.7c-2.8-.24-5.59-.52-8.39-.73l.07,0c-2.28,6-4.38,12.16-6.58,18.23-1.1,3-2.16,6.09-3.3,9.11s-2.3,6-3.46,9l-1-1.36a28.57,28.57,0,0,0,5.3-.67c.86-.2,1.72-.43,2.57-.71s1.71-.62,2.59-.92l-.51.5c1.11-2.7,2.3-5.38,3.45-8.07L99.94,122c1.16-2.68,2.34-5.36,3.44-8.07s2.22-5.41,3.31-8.12h0Zm0,0,1,.11h0c-1,2.73-2.12,5.45-3.13,8.2s-2,5.49-3,8.25l-3,8.26c-1,2.75-2,5.51-3,8.25l-.14.36-.38.14c-.85.33-1.67.7-2.58,1a24,24,0,0,1-2.74.83,30.14,30.14,0,0,1-5.66.79L81.6,142l.58-1.44c1.21-3,2.39-6,3.65-9s2.53-5.94,3.8-8.91c2.53-5.94,5.16-11.85,7.61-17.82l0-.05h.06C100.11,105.15,102.9,105.4,105.7,105.7Z" fill="#212121"/><path d="M113.75,107.71a8,8,0,0,1-1.82-.21c-.61-.13-1.2-.28-1.79-.45a32.82,32.82,0,0,0-3.51-.89l.38-.22c-1.89,5.54-3.93,11-6,16.51l-3.11,8.2-3.18,8.18-1.27-1.3c2-.73,3.9-1.47,5.83-2.25s3.84-1.62,5.75-2.45l-.48.51q2.72-6.7,5.54-13.37l2.87-6.64,2.94-6.62.17.18Zm0,0,2.27-1.08.29-.14-.11.32-2.37,6.84-2.44,6.82q-2.48,6.8-5.06,13.55l-.13.35-.36.16c-1.9.9-3.84,1.74-5.78,2.55s-3.9,1.6-5.88,2.32l-2.1.76.83-2.06L96.16,130l3.32-8.12c2.25-5.39,4.5-10.79,6.89-16.14l.13-.27.26.06a34.27,34.27,0,0,1,3.5,1.2A14.41,14.41,0,0,0,113.75,107.71Z" fill="#212121"/><path d="M116.07,106.76c-.78,2.36-1.58,4.66-2.38,7s-1.59,4.58-2.4,6.85q-2.43,6.8-5,13.44l-1.26-1.19c2-1,4-2,6-3s4-2,6-2.94l-.47.51q2.37-6,4.83-11.91c.8-2,1.66-4,2.48-5.93l2.54-5.91.68.7a41.86,41.86,0,0,1-5.55,1.25C119.73,106,117.89,106.28,116.07,106.76Zm0,0a44.19,44.19,0,0,1,5.38-1.7,54.91,54.91,0,0,0,5.32-1.69l1.08-.43-.4,1.13-2.18,6.05c-.74,2-1.46,4-2.23,6q-2.25,6-4.6,12l-.14.35-.32.16c-2,1-4,2-6.06,3s-4,2-6.08,2.91l-2.14,1,.89-2.19q2.77-6.8,5.64-13.48c1-2.22,1.92-4.43,2.9-6.61S115.07,108.89,116.07,106.76Z" fill="#212121"/></g><g clip-path="url(#clip-path-4)"><path d="M87.8,104.3l-3.26,9.25-3.26,9.09q-3.3,9-6.69,17.83l-.71-1.3a40.11,40.11,0,0,0,9.19.77l-.89.63q3.57-9,7.23-18c2.46-6,4.94-11.93,7.53-17.85l.35.54Zm0,0c3.08,0,6.29.12,9.54.2h.53l-.19.53c-2.14,6.1-4.39,12.15-6.67,18.19s-4.62,12.06-7,18.07l-.24.61-.65,0a42,42,0,0,1-9.64-.88l-1.14-.23.43-1.07q3.65-9.06,7.42-18c1.27-3,2.51-5.92,3.79-8.82Z" fill="#212121"/><path d="M61.39,97.64l-.16-.07h0c-1.1,2.87-2.23,5.72-3.28,8.6s-2.1,5.77-3.13,8.66c-2.09,5.77-4.09,11.57-6.24,17.32l-.56-1.2c2.89.94,5.74,2,8.61,2.95l-1.27.57c1.13-2.8,2.23-5.61,3.41-8.39s2.37-5.56,3.56-8.33c2.38-5.55,4.84-11.07,7.15-16.65l.06.12A56.22,56.22,0,0,1,61.39,97.64Zm0,0A47,47,0,0,0,69.6,101l.09,0,0,.09c-2.11,5.66-4.08,11.37-6.13,17-1,2.84-2,5.7-3.07,8.52s-2.15,5.64-3.23,8.46l-.35.9-.92-.33c-2.84-1-5.68-2-8.5-3.09l-.92-.35.36-.85c2.34-5.67,4.84-11.28,7.26-16.92,1.21-2.82,2.45-5.62,3.61-8.46s2.32-5.68,3.47-8.53h0Z" fill="#212121"/><path d="M69.57,101.13l-6.15,17.31c-2,5.65-4.11,11.2-6.24,16.74l-.56-1.26,8.55,2.92-1.23.58,3.43-8.62,3.49-8.59,3.57-8.57c1.22-2.84,2.41-5.7,3.67-8.52l.3.54A53.69,53.69,0,0,1,69.57,101.13Zm0,0a66.86,66.86,0,0,0,9,1.74l.48.06-.17.48c-1,2.93-2.08,5.83-3.13,8.74l-3.24,8.69-3.31,8.67-3.37,8.64-.34.89-.89-.3-8.6-3L55,135.4l.38-.93c2.3-5.7,4.65-11.37,7-17L66,109.23Z" fill="#212121"/><path d="M133.89,118.79a25.86,25.86,0,0,0,2.93-2.8,23,23,0,0,0,2.4-3.24,33.77,33.77,0,0,0,3.25-7.3l.45,1c-1.07-.35-2.13-.74-3.19-1.11s-2.11-.79-3.16-1.18l1.29-.56c-.6,1.47-1.18,3-1.83,4.41s-1.3,2.91-2,4.35c-1.37,2.88-2.78,5.75-4,8.67l-.13-.11C131.24,120.27,132.55,119.51,133.89,118.79Zm0,0c-1.3.77-2.63,1.5-3.91,2.32l-.22.14.09-.25c1.07-3,2-6.06,3-9.1.49-1.52,1-3,1.52-4.53s1.1-3,1.68-4.47l.36-1,.93.39c1,.43,2.08.84,3.12,1.29s2.07.89,3.08,1.37l.75.36-.3.67a33.13,33.13,0,0,1-4.3,7,35.85,35.85,0,0,1-2.73,3A35.2,35.2,0,0,1,133.89,118.79Z" fill="#212121"/><path d="M52.4,95.24l-3.1,8.81-3.08,8.64c-2.08,5.7-4.18,11.32-6.33,16.92l-.67-1.29c3,.7,5.93,1.58,8.83,2.54l-1.24.58c2.26-5.7,4.53-11.4,6.87-17.07l3.53-8.5c1.21-2.82,2.39-5.65,3.64-8.45l.2.5A26.74,26.74,0,0,0,52.4,95.24Zm0,0a24.47,24.47,0,0,1,9,2l.32.15-.12.36c-1,2.9-2.07,5.78-3.11,8.67L55.28,115c-2.16,5.74-4.38,11.46-6.62,17.17l-.34.89-.9-.31c-2.86-1-5.73-1.85-8.65-2.56l-1.08-.27.41-1q3.48-8.61,7.07-17.09c1.22-2.8,2.4-5.62,3.62-8.37Z" fill="#212121"/><path d="M78.47,103.26l-3.15,8.94L72.18,121c-2.11,5.78-4.24,11.49-6.42,17.17l-.6-1.27a79.28,79.28,0,0,0,8.72,2.27l-1.11.61,3.55-8.94,3.62-8.92L83.63,113c1.27-3,2.5-5.91,3.8-8.84l.34.54A85.59,85.59,0,0,1,78.47,103.26Zm0,0q4.68.49,9.36.64l.53,0-.18.53c-1.05,3-2.17,6-3.26,9.06l-3.37,9-3.43,9-3.5,9-.3.77-.82-.16a80.73,80.73,0,0,1-8.92-2.39l-1-.32.38-.95c2.36-5.82,4.76-11.63,7.19-17.35l3.66-8.49Z" fill="#212121"/><path d="M117.52,127.79c2.19-1.26,4.26-2.51,6.25-3.78s3.89-2.43,5.82-3.58l-.3.35c1.09-3,2.17-6,3.3-9s2.27-5.95,3.42-8.92l.56,1.28c-1.67-.63-3.32-1.3-5-2l.94-.12a19.68,19.68,0,0,1-5.27,2.67l.56-.54c-1.57,3.83-3.2,7.6-5,11.47l-2.67,5.93C119.29,123.64,118.42,125.68,117.52,127.79Zm0,0c.68-1.87,1.38-3.81,2-5.78l2-6c1.39-4.1,2.89-8.31,4.47-12.45l.14-.39.42-.15a19.21,19.21,0,0,0,4.73-2.48l.43-.32.51.2c1.66.64,3.33,1.28,5,2l.92.38-.37.91c-1.18,3-2.35,5.91-3.58,8.85s-2.45,5.87-3.7,8.8l-.1.25-.2.1c-2.2,1.1-4.43,2.2-6.59,3.18S119.47,126.8,117.52,127.79Z" fill="#212121"/><path d="M39,129.25l3.1-8.82,3.08-8.64c2.08-5.7,4.16-11.31,6.32-16.9l.81,1.31a68.22,68.22,0,0,0-9.59,0l.87-.63q-3.21,8.08-6.5,16.13l-3.35,8c-1.15,2.66-2.26,5.34-3.45,8l-.33-.55c1.53.25,3,.54,4.56.89.75.18,1.51.35,2.25.56Zm0,0-2.28-.38-2.28-.37c-1.52-.22-3-.4-4.57-.52l-.51,0,.17-.52c.94-2.74,2-5.46,2.94-8.19l3-8.15q3.06-8.13,6.25-16.23l.23-.59.64,0a65.22,65.22,0,0,1,9.88.06l1.28.13-.48,1.19c-2.31,5.75-4.69,11.47-7.08,17.11-1.21,2.8-2.4,5.62-3.62,8.36Z" fill="#212121"/><path d="M105.7,105.7c-2.8-.24-5.59-.52-8.39-.73l.07,0c-2.28,6-4.38,12.16-6.58,18.23-1.1,3-2.16,6.09-3.3,9.11s-2.3,6-3.46,9l-1-1.36a28.57,28.57,0,0,0,5.3-.67c.86-.2,1.72-.43,2.57-.71s1.71-.62,2.59-.92l-.51.5c1.11-2.7,2.3-5.38,3.45-8.07L99.94,122c1.16-2.68,2.34-5.36,3.44-8.07s2.22-5.41,3.31-8.12h0Zm0,0,1,.11h0c-1,2.73-2.12,5.45-3.13,8.2s-2,5.49-3,8.25l-3,8.26c-1,2.75-2,5.51-3,8.25l-.14.36-.38.14c-.85.33-1.67.7-2.58,1a24,24,0,0,1-2.74.83,30.14,30.14,0,0,1-5.66.79L81.6,142l.58-1.44c1.21-3,2.39-6,3.65-9s2.53-5.94,3.8-8.91c2.53-5.94,5.16-11.85,7.61-17.82l0-.05h.06C100.11,105.15,102.9,105.4,105.7,105.7Z" fill="#212121"/><path d="M113.75,107.71a8,8,0,0,1-1.82-.21c-.61-.13-1.2-.28-1.79-.45a32.82,32.82,0,0,0-3.51-.89l.38-.22c-1.89,5.54-3.93,11-6,16.51l-3.11,8.2-3.18,8.18-1.27-1.3c2-.73,3.9-1.47,5.83-2.25s3.84-1.62,5.75-2.45l-.48.51q2.72-6.7,5.54-13.37l2.87-6.64,2.94-6.62.17.18Zm0,0,2.27-1.08.29-.14-.11.32-2.37,6.84-2.44,6.82q-2.48,6.8-5.06,13.55l-.13.35-.36.16c-1.9.9-3.84,1.74-5.78,2.55s-3.9,1.6-5.88,2.32l-2.1.76.83-2.06L96.16,130l3.32-8.12c2.25-5.39,4.5-10.79,6.89-16.14l.13-.27.26.06a34.27,34.27,0,0,1,3.5,1.2A14.41,14.41,0,0,0,113.75,107.71Z" fill="#212121"/><path d="M116.07,106.76c-.78,2.36-1.58,4.66-2.38,7s-1.59,4.58-2.4,6.85q-2.43,6.8-5,13.44l-1.26-1.19c2-1,4-2,6-3s4-2,6-2.94l-.47.51q2.37-6,4.83-11.91c.8-2,1.66-4,2.48-5.93l2.54-5.91.68.7a41.86,41.86,0,0,1-5.55,1.25C119.73,106,117.89,106.28,116.07,106.76Zm0,0a44.19,44.19,0,0,1,5.38-1.7,54.91,54.91,0,0,0,5.32-1.69l1.08-.43-.4,1.13-2.18,6.05c-.74,2-1.46,4-2.23,6q-2.25,6-4.6,12l-.14.35-.32.16c-2,1-4,2-6.06,3s-4,2-6.08,2.91l-2.14,1,.89-2.19q2.77-6.8,5.64-13.48c1-2.22,1.92-4.43,2.9-6.61S115.07,108.89,116.07,106.76Z" fill="#212121"/></g><g clip-path="url(#clip-path-5)"><path d="M162.33,123" fill="none" stroke="#212121" stroke-miterlimit="10"/><path d="M236.06,56.33" fill="none" stroke="#212121" stroke-miterlimit="10"/><path d="M248.66,85.25" fill="none" stroke="#212121" stroke-miterlimit="10"/><line x1="248.19" y1="84.17" x2="161.8" y2="121.82" fill="none" stroke="#212121" stroke-miterlimit="10"/><line x1="247.02" y1="81.49" x2="160.63" y2="119.14" fill="none" stroke="#212121" stroke-miterlimit="10"/><line x1="245.86" y1="78.8" x2="159.46" y2="116.46" fill="none" stroke="#212121" stroke-miterlimit="10"/><line x1="244.69" y1="76.12" x2="158.29" y2="113.77" fill="none" stroke="#212121" stroke-miterlimit="10"/><line x1="243.52" y1="73.44" x2="157.12" y2="111.09" fill="none" stroke="#212121" stroke-miterlimit="10"/><line x1="242.35" y1="70.75" x2="155.95" y2="108.41" fill="none" stroke="#212121" stroke-miterlimit="10"/><line x1="241.18" y1="68.07" x2="154.78" y2="105.72" fill="none" stroke="#212121" stroke-miterlimit="10"/><line x1="240.01" y1="65.39" x2="153.61" y2="103.04" fill="none" stroke="#212121" stroke-miterlimit="10"/><line x1="238.84" y1="62.7" x2="152.44" y2="100.36" fill="none" stroke="#212121" stroke-miterlimit="10"/><line x1="237.67" y1="60.02" x2="151.27" y2="97.67" fill="none" stroke="#212121" stroke-miterlimit="10"/><line x1="236.5" y1="57.34" x2="150.1" y2="94.99" fill="none" stroke="#212121" stroke-miterlimit="10"/></g><g clip-path="url(#clip-path-6)"><path d="M53.21,119.7l-7.77,3.42-7.74,3.35c-5.15,2.23-10.31,4.39-15.47,6.55l.23-.21-2.07,4.08-.63-.66c6.22-2.6,12.48-5.11,18.72-7.67l9.39-3.76c3.13-1.25,6.28-2.47,9.42-3.69v.22Zm0,0,4.17,1.41.27.09-.27.12c-3.09,1.36-6.17,2.72-9.28,4l-9.3,4c-6.22,2.6-12.42,5.24-18.67,7.79l-1.22.5.6-1.16,2.14-4.11.07-.14.16-.06c5.22-2.14,10.45-4.28,15.68-6.34l7.84-3.1Z" fill="#212121"/><path d="M18.18,140.63l-1.36,3.85-.12-.11c4-1.74,8.07-3.52,12.13-5.23L41,134l24.37-10.15,0,.91-4.13-1.53h.35C54.4,126.13,47.23,129.1,40,132S25.51,137.78,18.18,140.63Zm0,0Q28.8,136,39.6,131.41c7.17-3.08,14.41-6.07,21.62-9.09l.17-.08.18.07,4.13,1.5,1.2.43-1.18.48-24.43,10L29,139.67c-4.07,1.65-8.18,3.24-12.27,4.86l-.19.08.07-.18Z" fill="#212121"/><path d="M48.89,118.27Q42.83,121,36.81,123.6l-6,2.6-6,2.53.21-.17-2.51,4.26-.61-.68c5.18-2.19,10.4-4.26,15.6-6.39,2.6-1.07,5.22-2.08,7.83-3.12s5.23-2.06,7.85-3v.25Zm0,0,4.36,1.3.35.11-.34.15q-3.85,1.73-7.72,3.39c-2.58,1.1-5.15,2.24-7.74,3.32-5.19,2.16-10.35,4.39-15.56,6.49l-1.34.54.74-1.22,2.58-4.28.07-.12.14-.06,6.12-2.49L36.68,123C40.75,121.36,44.83,119.8,48.89,118.27Z" fill="#212121"/><path d="M57.34,121.22,48,125.29l-9.3,4-9.29,3.95-9.29,3.89.24-.23-1.74,3.93-.64-.64c3.59-1.51,7.21-3,10.82-4.45l10.82-4.43c7.24-2.9,14.47-5.82,21.74-8.64v.19Zm0,0,4.1,1.44.24.08-.24.11C54.3,126,47.13,129,40,132.09L29.17,136.6c-3.6,1.49-7.19,3-10.8,4.49l-1.14.45.5-1.09,1.79-4,.08-.16.17-.07,9.4-3.85,9.4-3.78,9.4-3.74Z" fill="#212121"/><path d="M79.52,127.9l-5-.9h0L17,151l.11-.26,2,4.9-.22-.13,2.09-.18-.06,0,59.69-24.78.24.57L21.16,155.91l-.17-.72,9.12-.55-.14,0,51.75-21.46.33.81L30.31,155.48l-.21-.95,8.13-.13-.19,0L82.85,136l.34.82L38.38,155.25l-.15-.75,7.57.1-.16,0L84,138.8l.26.63L45.9,155.26l-.1-.57,7.2.25-.13,0L85.2,141.63l.2.47L53.05,155.38l-.06-.31,7,.35h-.06l26.5-10.86,0,.07Zm0,0,7,16.69,0,0-.05,0L60,155.69H60l-7-.31-.73,0,.67-.28L85.2,141.63l.2.47L53.1,155.5l-.06,0H53l-7.19-.23-1.38,0,1.27-.53L84,138.8l.26.63L45.94,155.34l-.08,0h-.08l-7.55-.09-1.92,0,1.77-.73L82.85,136l.34.82L38.42,155.35l-.08,0h-.11l-8.09.14-2.64,0,2.43-1,51.79-21.35.33.81L30.27,155.38l-.06,0h-.08l-9.08.53-2.23.13,2.06-.85,59.75-24.64.24.57L21.11,155.77l0,0h0L19,156l-.17,0-.06-.15-2-4.92-.08-.18.19-.08L74.54,127h0Z" fill="#212121"/><path d="M18,153.58c10.18-4.44,20.41-8.77,30.64-13.09L64,134.06l15.38-6.41.38.92L64.39,134.9,49,141.2l-15.44,6.24Zm0,0,15.3-6.6,15.34-6.49L64,134.06l15.38-6.41.38.92L64.39,134.9,49,141.2Q33.53,147.46,18,153.58Z" fill="#212121"/><path d="M48.89,118.27c-1.66-.43-3.22-.74-4.73-1.11h.11c-2.73,1.26-5.5,2.42-8.24,3.64s-5.53,2.34-8.29,3.51l.2-.16c-1,1.48-1.93,3-2.92,4.44l-.61-.72c4-1.61,7.94-3.23,12-4.77S44.64,120,48.89,118.27Zm0,0c-3.85,1.66-7.8,3.43-11.83,5.22s-8.17,3.54-12.27,5.28l-1.49.63.89-1.35c1-1.49,2-3,3-4.45l.08-.11.13,0c2.78-1.12,5.55-2.28,8.35-3.37s5.58-2.21,8.4-3.25l.06,0h.05C45.86,117.3,47.41,117.84,48.89,118.27Z" fill="#212121"/><path d="M69.85,125.7q-13.5,5.88-27,11.54c-9,3.83-18,7.52-26.94,11.28l.26-.63,1.15,2.75-.64-.27,28.85-11.85L60,132.68l14.48-5.78,0,.17Zm0,0,4.72,1.2.25.06-.24.1-14.33,6.15-14.36,6.08-28.8,12-.45.19-.19-.45-1.13-2.76-.19-.45.45-.18c9-3.7,18.09-7.46,27.15-11.09S60.83,129.25,69.85,125.7Z" fill="#212121"/><path d="M65.53,124.27q-12.18,5.31-24.32,10.43c-8.09,3.47-16.2,6.81-24.29,10.2l.27-.29-1,3.4,0-.32.09.2-.64-.27,13.53-5.57,13.54-5.55L56.22,131l13.6-5.41v.17Zm0,0,4.35,1.35.23.07-.22.1-13.45,5.77L43,137.28l-13.5,5.63L16,148.53l-.45.19-.19-.46-.08-.2-.07-.16.05-.15,1.07-3.45.07-.2.2-.09c8.17-3.34,16.33-6.73,24.51-10S57.4,127.46,65.53,124.27Z" fill="#212121"/></g><g id="lines"><line x1="39.24" y1="202.36" x2="260.76" y2="202.36" fill="none" stroke="#212121" stroke-miterlimit="10" stroke-width="2"/><line x1="250.69" y1="198.33" x2="280.9" y2="198.33" fill="none" stroke="#212121" stroke-miterlimit="10" stroke-width="2"/><line x1="19.1" y1="198.33" x2="49.31" y2="198.33" fill="none" stroke="#212121" stroke-miterlimit="10" stroke-width="2"/><line x1="211.79" y1="206.39" x2="255.36" y2="206.39" fill="none" stroke="#212121" stroke-miterlimit="10" stroke-width="2"/><line x1="44.65" y1="206.39" x2="88.21" y2="206.39" fill="none" stroke="#212121" stroke-miterlimit="10" stroke-width="2"/></g><g id="fieldslines"><g clip-path="url(#clip-path-7)"><path d="M56.11,149a107.25,107.25,0,0,1,10.18-6.61,71,71,0,0,1,11-5.25,25,25,0,0,1,3-.86c1-.22,1.93-.39,2.88-.63a40.42,40.42,0,0,0,5.56-1.77,21.86,21.86,0,0,0,2.58-1.23c.19-.12.39-.24.56-.37s.23-.18.56-.43a11.26,11.26,0,0,1,1.39-.86c1.8-1,3.61-1.82,5.43-2.65a102.35,102.35,0,0,1,11.18-4.44A47.77,47.77,0,0,0,121.18,119c3.36-2.08,6.14-5,9-7.79s5.51-5.76,8.16-8.75c-2.56,3.07-5.18,6.08-7.89,9s-5.44,5.91-8.81,8.16a49.32,49.32,0,0,1-10.79,5.35,97.69,97.69,0,0,0-10.91,4.74c-1.78.88-3.56,1.78-5.24,2.76a9.84,9.84,0,0,0-1.14.74c-.08,0-.41.37-.6.5s-.46.32-.68.47a23.56,23.56,0,0,1-2.77,1.44,41.28,41.28,0,0,1-5.78,2c-1,.28-2,.51-2.94.74a22.89,22.89,0,0,0-2.7.87,68.67,68.67,0,0,0-10.42,5.4A104.17,104.17,0,0,0,58,151.35Z" fill="#212121"/><path d="M47.74,100.83a67.7,67.7,0,0,1,11.44,2,78.85,78.85,0,0,1,11,3.51,41.4,41.4,0,0,1,5,3,12.31,12.31,0,0,0,4.84,2,22.28,22.28,0,0,0,5.38-.35c1.85-.28,3.7-.63,5.57-1,.93-.16,1.87-.33,2.82-.46a14.34,14.34,0,0,1,3-.21,38.75,38.75,0,0,1,5.64,1.27,39,39,0,0,0,5.48,1.14,16,16,0,0,0,2.76.11,11.46,11.46,0,0,0,2.69-.49c3.58-1,6.8-3.12,10.36-4.51a9.79,9.79,0,0,1,2.82-.55c.94-.08,1.89-.12,2.84-.15,1.89,0,3.78,0,5.67,0-1.89,0-3.78.06-5.66.17-.95.06-1.89.13-2.82.24a8.86,8.86,0,0,0-2.71.63c-3.45,1.46-6.6,3.65-10.28,4.87a12.37,12.37,0,0,1-2.85.61,15.7,15.7,0,0,1-2.91,0,39.36,39.36,0,0,1-5.66-1,38.45,38.45,0,0,0-5.45-1.06,14.14,14.14,0,0,0-2.67.29c-.91.16-1.83.35-2.76.55-1.84.39-3.69.8-5.57,1.15a23,23,0,0,1-5.91.54,14.23,14.23,0,0,1-5.66-2.06,40,40,0,0,0-4.81-2.69,76.61,76.61,0,0,0-10.71-3,64.36,64.36,0,0,0-10.95-1.57Z" fill="#212121"/><path d="M34.5,121.51a52.49,52.49,0,0,1,12.7,3.31c2,.77,4,1.62,5.95,2.58,1,.47,1.93,1,2.87,1.53.48.27.93.57,1.4.85s.87.54,1.33.79a51.63,51.63,0,0,0,11.84,4.29,57.37,57.37,0,0,0,12.59,1.83,58.13,58.13,0,0,1-12.75-1.08,52.7,52.7,0,0,1-12.38-3.69c-.49-.23-1-.5-1.47-.75s-.91-.51-1.38-.74c-.93-.47-1.87-.91-2.84-1.31-1.93-.82-3.91-1.54-5.91-2.17a50.64,50.64,0,0,0-12.13-2.45Z" fill="#212121"/></g><g clip-path="url(#clip-path-8)"><path d="M56.11,149a107.25,107.25,0,0,1,10.18-6.61,71,71,0,0,1,11-5.25,25,25,0,0,1,3-.86c1-.22,1.93-.39,2.88-.63a40.42,40.42,0,0,0,5.56-1.77,21.86,21.86,0,0,0,2.58-1.23c.19-.12.39-.24.56-.37s.23-.18.56-.43a11.26,11.26,0,0,1,1.39-.86c1.8-1,3.61-1.82,5.43-2.65a102.35,102.35,0,0,1,11.18-4.44A47.77,47.77,0,0,0,121.18,119c3.36-2.08,6.14-5,9-7.79s5.51-5.76,8.16-8.75c-2.56,3.07-5.18,6.08-7.89,9s-5.44,5.91-8.81,8.16a49.32,49.32,0,0,1-10.79,5.35,97.69,97.69,0,0,0-10.91,4.74c-1.78.88-3.56,1.78-5.24,2.76a9.84,9.84,0,0,0-1.14.74c-.08,0-.41.37-.6.5s-.46.32-.68.47a23.56,23.56,0,0,1-2.77,1.44,41.28,41.28,0,0,1-5.78,2c-1,.28-2,.51-2.94.74a22.89,22.89,0,0,0-2.7.87,68.67,68.67,0,0,0-10.42,5.4A104.17,104.17,0,0,0,58,151.35Z" fill="#212121"/><path d="M47.74,100.83a67.7,67.7,0,0,1,11.44,2,78.85,78.85,0,0,1,11,3.51,41.4,41.4,0,0,1,5,3,12.31,12.31,0,0,0,4.84,2,22.28,22.28,0,0,0,5.38-.35c1.85-.28,3.7-.63,5.57-1,.93-.16,1.87-.33,2.82-.46a14.34,14.34,0,0,1,3-.21,38.75,38.75,0,0,1,5.64,1.27,39,39,0,0,0,5.48,1.14,16,16,0,0,0,2.76.11,11.46,11.46,0,0,0,2.69-.49c3.58-1,6.8-3.12,10.36-4.51a9.79,9.79,0,0,1,2.82-.55c.94-.08,1.89-.12,2.84-.15,1.89,0,3.78,0,5.67,0-1.89,0-3.78.06-5.66.17-.95.06-1.89.13-2.82.24a8.86,8.86,0,0,0-2.71.63c-3.45,1.46-6.6,3.65-10.28,4.87a12.37,12.37,0,0,1-2.85.61,15.7,15.7,0,0,1-2.91,0,39.36,39.36,0,0,1-5.66-1,38.45,38.45,0,0,0-5.45-1.06,14.14,14.14,0,0,0-2.67.29c-.91.16-1.83.35-2.76.55-1.84.39-3.69.8-5.57,1.15a23,23,0,0,1-5.91.54,14.23,14.23,0,0,1-5.66-2.06,40,40,0,0,0-4.81-2.69,76.61,76.61,0,0,0-10.71-3,64.36,64.36,0,0,0-10.95-1.57Z" fill="#212121"/><path d="M34.5,121.51a52.49,52.49,0,0,1,12.7,3.31c2,.77,4,1.62,5.95,2.58,1,.47,1.93,1,2.87,1.53.48.27.93.57,1.4.85s.87.54,1.33.79a51.63,51.63,0,0,0,11.84,4.29,57.37,57.37,0,0,0,12.59,1.83,58.13,58.13,0,0,1-12.75-1.08,52.7,52.7,0,0,1-12.38-3.69c-.49-.23-1-.5-1.47-.75s-.91-.51-1.38-.74c-.93-.47-1.87-.91-2.84-1.31-1.93-.82-3.91-1.54-5.91-2.17a50.64,50.64,0,0,0-12.13-2.45Z" fill="#212121"/></g><g clip-path="url(#clip-path-9)"><path d="M56.11,149a107.25,107.25,0,0,1,10.18-6.61,71,71,0,0,1,11-5.25,25,25,0,0,1,3-.86c1-.22,1.93-.39,2.88-.63a40.42,40.42,0,0,0,5.56-1.77,21.86,21.86,0,0,0,2.58-1.23c.19-.12.39-.24.56-.37s.23-.18.56-.43a11.26,11.26,0,0,1,1.39-.86c1.8-1,3.61-1.82,5.43-2.65a102.35,102.35,0,0,1,11.18-4.44A47.77,47.77,0,0,0,121.18,119c3.36-2.08,6.14-5,9-7.79s5.51-5.76,8.16-8.75c-2.56,3.07-5.18,6.08-7.89,9s-5.44,5.91-8.81,8.16a49.32,49.32,0,0,1-10.79,5.35,97.69,97.69,0,0,0-10.91,4.74c-1.78.88-3.56,1.78-5.24,2.76a9.84,9.84,0,0,0-1.14.74c-.08,0-.41.37-.6.5s-.46.32-.68.47a23.56,23.56,0,0,1-2.77,1.44,41.28,41.28,0,0,1-5.78,2c-1,.28-2,.51-2.94.74a22.89,22.89,0,0,0-2.7.87,68.67,68.67,0,0,0-10.42,5.4A104.17,104.17,0,0,0,58,151.35Z" fill="#212121"/><path d="M47.74,100.83a67.7,67.7,0,0,1,11.44,2,78.85,78.85,0,0,1,11,3.51,41.4,41.4,0,0,1,5,3,12.31,12.31,0,0,0,4.84,2,22.28,22.28,0,0,0,5.38-.35c1.85-.28,3.7-.63,5.57-1,.93-.16,1.87-.33,2.82-.46a14.34,14.34,0,0,1,3-.21,38.75,38.75,0,0,1,5.64,1.27,39,39,0,0,0,5.48,1.14,16,16,0,0,0,2.76.11,11.46,11.46,0,0,0,2.69-.49c3.58-1,6.8-3.12,10.36-4.51a9.79,9.79,0,0,1,2.82-.55c.94-.08,1.89-.12,2.84-.15,1.89,0,3.78,0,5.67,0-1.89,0-3.78.06-5.66.17-.95.06-1.89.13-2.82.24a8.86,8.86,0,0,0-2.71.63c-3.45,1.46-6.6,3.65-10.28,4.87a12.37,12.37,0,0,1-2.85.61,15.7,15.7,0,0,1-2.91,0,39.36,39.36,0,0,1-5.66-1,38.45,38.45,0,0,0-5.45-1.06,14.14,14.14,0,0,0-2.67.29c-.91.16-1.83.35-2.76.55-1.84.39-3.69.8-5.57,1.15a23,23,0,0,1-5.91.54,14.23,14.23,0,0,1-5.66-2.06,40,40,0,0,0-4.81-2.69,76.61,76.61,0,0,0-10.71-3,64.36,64.36,0,0,0-10.95-1.57Z" fill="#212121"/><path d="M34.5,121.51a52.49,52.49,0,0,1,12.7,3.31c2,.77,4,1.62,5.95,2.58,1,.47,1.93,1,2.87,1.53.48.27.93.57,1.4.85s.87.54,1.33.79a51.63,51.63,0,0,0,11.84,4.29,57.37,57.37,0,0,0,12.59,1.83,58.13,58.13,0,0,1-12.75-1.08,52.7,52.7,0,0,1-12.38-3.69c-.49-.23-1-.5-1.47-.75s-.91-.51-1.38-.74c-.93-.47-1.87-.91-2.84-1.31-1.93-.82-3.91-1.54-5.91-2.17a50.64,50.64,0,0,0-12.13-2.45Z" fill="#212121"/></g><g clip-path="url(#clip-path-10)"><path d="M56.11,149a107.25,107.25,0,0,1,10.18-6.61,71,71,0,0,1,11-5.25,25,25,0,0,1,3-.86c1-.22,1.93-.39,2.88-.63a40.42,40.42,0,0,0,5.56-1.77,21.86,21.86,0,0,0,2.58-1.23c.19-.12.39-.24.56-.37s.23-.18.56-.43a11.26,11.26,0,0,1,1.39-.86c1.8-1,3.61-1.82,5.43-2.65a102.35,102.35,0,0,1,11.18-4.44A47.77,47.77,0,0,0,121.18,119c3.36-2.08,6.14-5,9-7.79s5.51-5.76,8.16-8.75c-2.56,3.07-5.18,6.08-7.89,9s-5.44,5.91-8.81,8.16a49.32,49.32,0,0,1-10.79,5.35,97.69,97.69,0,0,0-10.91,4.74c-1.78.88-3.56,1.78-5.24,2.76a9.84,9.84,0,0,0-1.14.74c-.08,0-.41.37-.6.5s-.46.32-.68.47a23.56,23.56,0,0,1-2.77,1.44,41.28,41.28,0,0,1-5.78,2c-1,.28-2,.51-2.94.74a22.89,22.89,0,0,0-2.7.87,68.67,68.67,0,0,0-10.42,5.4A104.17,104.17,0,0,0,58,151.35Z" fill="#212121"/><path d="M47.74,100.83a67.7,67.7,0,0,1,11.44,2,78.85,78.85,0,0,1,11,3.51,41.4,41.4,0,0,1,5,3,12.31,12.31,0,0,0,4.84,2,22.28,22.28,0,0,0,5.38-.35c1.85-.28,3.7-.63,5.57-1,.93-.16,1.87-.33,2.82-.46a14.34,14.34,0,0,1,3-.21,38.75,38.75,0,0,1,5.64,1.27,39,39,0,0,0,5.48,1.14,16,16,0,0,0,2.76.11,11.46,11.46,0,0,0,2.69-.49c3.58-1,6.8-3.12,10.36-4.51a9.79,9.79,0,0,1,2.82-.55c.94-.08,1.89-.12,2.84-.15,1.89,0,3.78,0,5.67,0-1.89,0-3.78.06-5.66.17-.95.06-1.89.13-2.82.24a8.86,8.86,0,0,0-2.71.63c-3.45,1.46-6.6,3.65-10.28,4.87a12.37,12.37,0,0,1-2.85.61,15.7,15.7,0,0,1-2.91,0,39.36,39.36,0,0,1-5.66-1,38.45,38.45,0,0,0-5.45-1.06,14.14,14.14,0,0,0-2.67.29c-.91.16-1.83.35-2.76.55-1.84.39-3.69.8-5.57,1.15a23,23,0,0,1-5.91.54,14.23,14.23,0,0,1-5.66-2.06,40,40,0,0,0-4.81-2.69,76.61,76.61,0,0,0-10.71-3,64.36,64.36,0,0,0-10.95-1.57Z" fill="#212121"/><path d="M34.5,121.51a52.49,52.49,0,0,1,12.7,3.31c2,.77,4,1.62,5.95,2.58,1,.47,1.93,1,2.87,1.53.48.27.93.57,1.4.85s.87.54,1.33.79a51.63,51.63,0,0,0,11.84,4.29,57.37,57.37,0,0,0,12.59,1.83,58.13,58.13,0,0,1-12.75-1.08,52.7,52.7,0,0,1-12.38-3.69c-.49-.23-1-.5-1.47-.75s-.91-.51-1.38-.74c-.93-.47-1.87-.91-2.84-1.31-1.93-.82-3.91-1.54-5.91-2.17a50.64,50.64,0,0,0-12.13-2.45Z" fill="#212121"/></g><path d="M71.34,149.87C78.67,148,86,146,93.12,143.63c3.58-1.18,7.13-2.46,10.6-3.89a74.89,74.89,0,0,0,10.06-4.91,31.2,31.2,0,0,0,4.48-3.18,16.77,16.77,0,0,0,1.88-1.89c.57-.74,1.17-1.44,1.72-2.2,2.24-3,4.32-6.16,6.35-9.35,4-6.39,7.86-12.94,11.54-19.56h0v-.26l.52-.13c4.35-1,8.7-2.14,13-3.29s8.63-2.38,12.85-3.78A113.94,113.94,0,0,0,178.45,86c4-1.95,8-4,12-6.07l.24-.13.25.07c3.56,1,7.2,1.75,10.85,2.45s7.32,1.23,11,1.61,7.4.55,11.13.59c1.86,0,3.72,0,5.59,0,.93,0,1.86,0,2.79,0a12.09,12.09,0,0,0,2.76-.29,12,12,0,0,1-2.75.41c-.93.07-1.87.13-2.8.17-1.86.09-3.73.13-5.59.16-3.72.08-7.48.08-11.21-.2s-7.44-.76-11.13-1.37-7.36-1.34-11-2.29l.48-.06q-5.85,3.39-11.9,6.4a116.8,116.8,0,0,1-12.42,5.46c-4.27,1.51-8.61,2.73-13,3.87s-8.74,2.14-13.16,3l.52-.39h0c-3.59,6.7-7.31,13.33-11.28,19.83-2,3.24-4,6.46-6.29,9.58-.55.78-1.17,1.54-1.75,2.31a18.68,18.68,0,0,1-2.09,2.17,33.8,33.8,0,0,1-4.74,3.49A77.73,77.73,0,0,1,104.68,142c-3.52,1.52-7.1,2.87-10.71,4.12-7.21,2.51-14.52,4.65-21.87,6.65Z" fill="#212121"/><path d="M84.67,151.36c2-.77,4-1.69,5.9-2.64s3.89-2,5.82-3q5.79-3.1,11.45-6.46-5.25,4-10.67,7.74c-1.81,1.25-3.63,2.48-5.5,3.67s-3.75,2.35-5.76,3.41Z" fill="#212121"/><path d="M152.37,96c7.44.72,15,.85,22.48.88s15-.21,22.52-.62c3.74-.26,7.49-.46,11.21-.91.94-.09,1.86-.22,2.79-.35s1.86-.25,2.77-.44c1.84-.31,3.68-.74,5.53-1.09A221.59,221.59,0,0,1,242,90.17c-3.74.47-7.45,1.09-11.15,1.75s-7.39,1.4-11.05,2.22a124,124,0,0,1-22.37,3.33c-7.52.53-15.06.73-22.59.75s-15.08-.14-22.62-.86Z" fill="#212121"/><path d="M140.58,98.27c2.92.83,6,1.43,9,2s6.11,1.06,9.19,1.51q9.22,1.36,18.51,2.06c12.41.89,24.89,1.37,37.34,1.76l4.52.15-3.87,2.37c-1.42.87-2.9,1.66-4.4,2.43s-3,1.55-4.49,2.29q-4.5,2.26-9.06,4.44h0a76.85,76.85,0,0,1,16.73-1.51,53.76,53.76,0,0,1,8.45.78,46,46,0,0,1,8.19,2.29c1.31.46,2.59.93,3.89,1.33a31.33,31.33,0,0,0,3.95.89,42,42,0,0,0,8.18.3,72.64,72.64,0,0,0,16.37-2.71,58.89,58.89,0,0,1-16.27,4,43,43,0,0,1-8.49.14,38.93,38.93,0,0,1-8.31-1.91,61.23,61.23,0,0,0-7.91-2.11c-1.33-.25-2.68-.42-4-.57s-2.73-.28-4.1-.38c-5.5-.37-11.05-.47-16.64-.51h0c2.71-2,5.45-4,8.19-5.89,1.37-1,2.76-1.92,4.15-2.87s2.78-1.88,4.22-2.73l.66,2.52c-12.49-.46-25-1-37.45-2-6.25-.51-12.48-1.26-18.67-2.21q-4.65-.72-9.27-1.6c-3.09-.61-6.15-1.23-9.24-2.12Z" fill="#212121"/><polygon points="202.23 106.88 197.35 117.28 198.81 105.88 202.23 106.88" fill="#212121"/><polygon points="200.52 106.38 214.21 106.94 206.32 112.24 197.35 117.28 200.52 106.38" fill="#212121"/><path d="M163.34,166.87l-4.25-1.34-4.33-1.05c-1.43-.38-2.91-.61-4.35-.92s-2.9-.61-4.37-.84c-2.93-.5-5.84-1.07-8.78-1.49s-5.86-.95-8.8-1.35l-8.82-1.26c-2.94-.41-5.89-.81-8.83-1.18L102,156.3c-3-.38-5.89-.74-8.85-1.07-5.89-.75-11.79-1.4-17.7-2s-11.81-1.25-17.71-1.75A121.43,121.43,0,0,0,40,151.38c-5.91.33-11.83.93-17.74,1.68a154,154,0,0,1,17.61-3.21,104.46,104.46,0,0,1,18-.86c12,.5,23.8,1.75,35.65,3.12s23.63,3.15,35.36,5.36c5.87,1.06,11.7,2.33,17.5,3.75,1.46.33,2.89.77,4.33,1.16s2.89.75,4.3,1.26l4.25,1.44Z" fill="#212121"/><path d="M231.17,155.5Q243,155,254.78,155c7.87-.05,15.74,0,23.6.18-7.86.15-15.72.44-23.57.82s-15.69.9-23.52,1.54Z" fill="#212121"/><path d="M150,173.49a72,72,0,0,1,8-3.71c2.72-1.11,5.47-2.13,8.24-3.09,5.55-1.91,11.2-3.55,16.9-5l.43,1.95c-5.72,1.11-11.41,2.43-17,4q-4.22,1.18-8.36,2.59A74.2,74.2,0,0,0,150,173.49Z" fill="#212121"/><path d="M226.22,167.72a59.2,59.2,0,0,1,12.07-4.83,87,87,0,0,1,12.77-2.56,112.79,112.79,0,0,1,13-.81,110.09,110.09,0,0,1,13,.67c-4.32.35-8.62.58-12.9.89s-8.55.69-12.79,1.24-8.46,1.2-12.65,2.07S230.35,166.42,226.22,167.72Z" fill="#212121"/><path d="M240.62,171.9a28.57,28.57,0,0,1,5.68-2.11,48.09,48.09,0,0,1,5.92-1.19,46.49,46.49,0,0,1,6-.44,25.07,25.07,0,0,1,6,.59c-4,.69-7.86,1.29-11.79,1.83-2,.27-3.92.51-5.89.74S242.65,171.76,240.62,171.9Z" fill="#212121"/><path d="M251.36,144.13A37.28,37.28,0,0,1,253,140c.62-1.33,1.24-2.64,1.89-3.93l1.92-3.88,1.9-4a13,13,0,0,1-.44,4.53,21.52,21.52,0,0,1-1.59,4.23,25.9,25.9,0,0,1-2.34,3.84A19.52,19.52,0,0,1,251.36,144.13Z" fill="#212121"/><path d="M195.24,118.93c-1.85,2.86-3.62,5.72-5.42,8.57l-5.37,8.57L179,144.6c-.9,1.43-1.82,2.84-2.7,4.28a36.61,36.61,0,0,0-2.53,4.38,21.63,21.63,0,0,1,1.66-4.84q1-2.34,2.22-4.6c1.57-3,3.29-5.94,5.09-8.81s3.73-5.68,5.78-8.39A60.43,60.43,0,0,1,195.24,118.93Z" fill="#212121"/><path d="M116.64,154.84c1.46-1.61,3-3.06,4.55-4.5s3.14-2.84,4.72-4.23,3.19-2.76,4.83-4.09,3.3-2.67,5-3.93a35,35,0,0,1-4,5.06,59.68,59.68,0,0,1-9.65,8.4A39.33,39.33,0,0,1,116.64,154.84Z" fill="#212121"/><path d="M139.43,134.05a55.8,55.8,0,0,1,3.47-5.91c1.25-1.91,2.59-3.73,3.95-5.55s2.78-3.57,4.22-5.31,2.9-3.44,4.21-5.32a22.82,22.82,0,0,1-2.94,6.23c-1.2,2-2.54,3.79-3.9,5.61s-2.8,3.57-4.3,5.28A64.77,64.77,0,0,1,139.43,134.05Z" fill="#212121"/><path d="M100.15,152.51c3.48-1.83,6.84-3.79,10.16-5.83s6.59-4.14,9.8-6.34,6.38-4.44,9.5-6.76A69.52,69.52,0,0,0,138.5,126a39,39,0,0,1-7.9,8.77,97.19,97.19,0,0,1-9.37,7.21,102.94,102.94,0,0,1-10.16,6A59.23,59.23,0,0,1,100.15,152.51Z" fill="#212121"/></g><g id="trees"><path d="M89.61,153.12c-.13-2-.26-4.11-.33-6.14s-.1-4.1-.13-6.15l-.09-6.14c0-2-.1-4.08-.25-6.08L89,129a26.66,26.66,0,0,1-2.62-6.92c-.62-2.32-1.11-4.66-1.55-7s-.81-4.71-1.11-7.1c-.15-1.19-.26-2.39-.34-3.61s-.08-2.45-.07-3.63a98.12,98.12,0,0,1,1-14.39A39.8,39.8,0,0,1,86,79.17a15.72,15.72,0,0,1,1.76-3.53A7.45,7.45,0,0,1,89.24,74a5,5,0,0,1,2.3-1l.65-.05a7.6,7.6,0,0,1,.8.1,3.61,3.61,0,0,1,1.33.66,5.81,5.81,0,0,1,1.51,1.83,16.7,16.7,0,0,1,1.38,3.67,49.84,49.84,0,0,1,1.18,7.24,108.15,108.15,0,0,1,.41,14.39c0,1.21-.11,2.41-.22,3.63s-.33,2.42-.49,3.59c-.33,2.34-.71,4.7-1.1,7.05s-.84,4.7-1.37,7a27.73,27.73,0,0,1-2.38,7l.12-.37c-.2,1.93-.25,4-.32,6l-.17,6-.19,12.06V153h-.11Zm0,0,2.93-.38-.11.13c-.3-4-.47-8-.66-12.06l-.22-6c0-2-.07-4,0-6.11v-.14l.1-.22a27.27,27.27,0,0,0,1.86-6.54c.45-2.3.8-4.63,1.12-7s.58-4.69.87-7c.14-1.18.33-2.38.4-3.47s.12-2.31.14-3.48a128.38,128.38,0,0,0-.59-14A46.58,46.58,0,0,0,94.34,80a14,14,0,0,0-1.11-3,3.15,3.15,0,0,0-.72-.9c-.11-.11-.18-.1-.24-.14a.08.08,0,0,1-.08,0L92,76a2.93,2.93,0,0,0-1.82,1.37,11.92,11.92,0,0,0-1.41,2.81,37.36,37.36,0,0,0-1.63,6.63,106.13,106.13,0,0,0-1.18,14c0,1.19,0,2.35,0,3.48s.14,2.31.24,3.47c.21,2.33.51,4.67.86,7s.77,4.64,1.26,6.92a26,26,0,0,0,2.06,6.47l.14.24v.17c.12,4.16-.21,8.24-.39,12.34q-.16,3.06-.27,6.13C89.73,149,89.64,151.05,89.61,153.12Z" fill="#212121"/><path d="M68.39,151.56c-.12-1.78-.24-3.62-.32-5.42s-.12-3.61-.16-5.42c-.06-3.61-.06-7.24-.32-10.78l.14.42a23.63,23.63,0,0,1-2.35-6.13c-.56-2-1-4.12-1.39-6.19s-.73-4.17-1-6.27c-.14-1.06-.24-2.12-.31-3.2s-.07-2.17-.06-3.22a86.26,86.26,0,0,1,.85-12.71A34.9,34.9,0,0,1,65,86.27a13.47,13.47,0,0,1,1.58-3.15A6.35,6.35,0,0,1,68,81.66a4.64,4.64,0,0,1,2.11-.91l.59,0a6.39,6.39,0,0,1,.75.09,3.41,3.41,0,0,1,1.24.6,5.35,5.35,0,0,1,1.39,1.67,14.9,14.9,0,0,1,1.24,3.28,44,44,0,0,1,1,6.42,93.2,93.2,0,0,1,.35,12.72c0,1.06-.1,2.12-.2,3.2s-.3,2.15-.44,3.18c-.29,2.07-.63,4.14-1,6.22s-.76,4.15-1.24,6.22a24.27,24.27,0,0,1-2.13,6.2l.12-.37c-.18,1.69-.24,3.48-.3,5.24l-.16,5.31-.23,10.64v.13H71Zm0,0,2.6-.35-.12.13c-.26-3.54-.48-7.09-.64-10.64L70,135.37c0-1.79-.07-3.55,0-5.4v-.13l.11-.23a24.29,24.29,0,0,0,1.62-5.74c.39-2,.7-4.07,1-6.13l.77-6.21c.11-1,.29-2.11.35-3s.1-2,.11-3.06a112.73,112.73,0,0,0-.53-12.35,42.11,42.11,0,0,0-1-6,11.75,11.75,0,0,0-1-2.57,2.47,2.47,0,0,0-.59-.74c-.08-.08-.12-.06-.15-.09s0,0,0,0h-.19A2.48,2.48,0,0,0,69,84.85a11.05,11.05,0,0,0-1.23,2.43,32,32,0,0,0-1.43,5.81,92.9,92.9,0,0,0-1.06,12.3c0,1,0,2.07,0,3s.12,2,.21,3.06c.18,2,.44,4.11.74,6.16s.68,4.09,1.11,6.1a22.7,22.7,0,0,0,1.79,5.67l.14.25v.17c.1,3.68-.2,7.28-.36,10.89l-.28,5.4C68.52,148,68.43,149.73,68.39,151.56Z" fill="#212121"/><path d="M114.66,156.48c0-2.26-.12-4.46-.19-6.71s-.16-4.46-.27-6.7c-.18-4.47-.52-8.92-.4-13.46v-.16l.12-.24a29,29,0,0,0,2.15-7.1q.78-3.75,1.32-7.56c.36-2.53.67-5.08.89-7.62.11-1.27.2-2.53.25-3.79s0-2.5,0-3.79a124.41,124.41,0,0,0-1.21-15.23,43.31,43.31,0,0,0-1.67-7.28,14.05,14.05,0,0,0-1.47-3.15,3.14,3.14,0,0,0-2-1.59l-.24,0a.07.07,0,0,1-.08,0,1.13,1.13,0,0,0-.28.19.57.57,0,0,0-.19.19c-.07.08-.14.15-.21.24s-.27.4-.38.66a16,16,0,0,0-1.15,3.32,53,53,0,0,0-1.18,7.43,144,144,0,0,0-.6,15.28c0,1.28.06,2.55.14,3.8s.28,2.5.42,3.78c.3,2.56.58,5.12.91,7.67s.69,5.08,1.15,7.59a31.47,31.47,0,0,0,2,7.17l.09.22v.13c.12,2.27.08,4.45,0,6.66l-.23,6.6c-.19,4.4-.37,8.79-.66,13.18l-.12-.13Zm0,0-3.06-.15h-.11v-.12L111.31,143l-.17-6.58c-.07-2.18-.13-4.39-.33-6.51l.11.35a31,31,0,0,1-2.44-7.62c-.55-2.55-1-5.11-1.41-7.67s-.79-5.12-1.14-7.68c-.16-1.28-.38-2.51-.5-3.9s-.18-2.62-.23-3.93a125.58,125.58,0,0,1,.41-15.63,58.16,58.16,0,0,1,1.2-7.86,19.5,19.5,0,0,1,1.37-4,6.5,6.5,0,0,1,1.49-2,3.71,3.71,0,0,1,.61-.45c.25-.12.5-.24.76-.34a8.7,8.7,0,0,1,.87-.13,5.58,5.58,0,0,1,.73,0,5,5,0,0,1,2.46,1.13,7.56,7.56,0,0,1,1.56,1.78,17.11,17.11,0,0,1,1.79,3.85,46.16,46.16,0,0,1,1.74,7.79,114,114,0,0,1,1,15.63c0,1.29,0,2.6-.08,3.94s-.19,2.63-.35,3.92c-.3,2.6-.69,5.17-1.14,7.73s-1,5.11-1.59,7.64c-.32,1.27-.68,2.53-1.08,3.79a17.94,17.94,0,0,1-1.62,3.76l.13-.4c-.15,2.19-.2,4.42-.25,6.65l-.09,6.71q0,3.36-.13,6.71C114.92,152,114.79,154.27,114.66,156.48Z" fill="#212121"/><path d="M111.7,127.41s.44,2.23,1.44,2.23,1.49-2,1.49-2l0,28.85-3-.28Z" fill="#212121"/><path d="M89,124.73s1.06,3.88,2,3.88,1.9-3.76,1.9-3.76l-.37,28-2.94.26Z" fill="#212121"/><path d="M68.19,127.31s.78,2.32,1.36,2.31c.74,0,1.45-2.31,1.45-2.31v24l-2.54.22Z" fill="#212121"/></g><g id="bale"><path d="M200.35,173c13.67,0,19.37-.8,22.52-2.68,5.53-3.28,8.6-9,8.6-18s-2.76-16.19-6.46-19.13-6.79-3.78-16-3.78-16.47.41-19.48,3.44A26.53,26.53,0,0,0,182,151.51C182,160.74,183,173,200.35,173Z" fill="none" stroke="#212121" stroke-miterlimit="50"/><path d="M213.24,172.48c-11.23-.9-13.06-9-13.06-20.47s6-22.26,16.11-22.26" fill="none" stroke="#212121" stroke-miterlimit="50"/><path d="M209,172.48c-11.23-.9-13.06-9-13.06-20.47s6-22.26,16.11-22.26" fill="none" stroke="#212121" stroke-miterlimit="50"/><path d="M207,172.48c-11.24-.9-13.07-9-13.07-20.47S200,129.75,210,129.75" fill="none" stroke="#212121" stroke-miterlimit="50"/><path d="M204.76,172.48c-11.23-.9-12.85-9-12.85-20.4s5.84-22.33,15.91-22.33" fill="none" stroke="#212121" stroke-miterlimit="50"/><path d="M202.35,172.48c-11.23-.9-12.67-9.09-12.67-20.5s5.66-22.23,15.73-22.23" fill="none" stroke="#212121" stroke-miterlimit="50"/><path d="M200.25,172.48c-11.24-.9-12.55-9-12.55-20.47s5.53-22.26,15.6-22.26" fill="none" stroke="#212121" stroke-miterlimit="50"/><path d="M198.22,172.48c-11.23-.9-12.63-9.09-12.63-20.5s5.61-22.23,15.68-22.23" fill="none" stroke="#212121" stroke-miterlimit="50"/><path d="M196.71,172.48c-11.24-.9-13.06-9-13.06-20.47s6-22.26,16.11-22.26" fill="none" stroke="#212121" stroke-miterlimit="50"/><path d="M211.16,172.48c-11.23-.9-13.06-9-13.06-20.47s6-22.26,16.11-22.26" fill="none" stroke="#212121" stroke-miterlimit="50"/><path d="M222.43,165.61a33.09,33.09,0,0,0,3.17-6.25,17.53,17.53,0,0,0,.93-6.78c-.05-1.16-.05-2.39-.07-3.53s-.13-2.33-.23-3.49a34.18,34.18,0,0,0-.52-3.47,14.54,14.54,0,0,0-1-3.35,17.66,17.66,0,0,1,2.29,6.71,30.32,30.32,0,0,1,.42,3.56l.12,3.54a19.06,19.06,0,0,1-.2,3.61,15.44,15.44,0,0,1-1,3.48A22.51,22.51,0,0,1,222.43,165.61Z" fill="#212121"/><path d="M211.53,150a21.94,21.94,0,0,0,.53,5.38,15.55,15.55,0,0,0,2.27,4.88,7.77,7.77,0,0,1-3.24-4.63A8.89,8.89,0,0,1,211.53,150Z" fill="#212121"/><path d="M220.81,152.85a20.76,20.76,0,0,0-1.38-6.67,21.63,21.63,0,0,0-3.62-5.77,11.26,11.26,0,0,1,4.55,5.4A11.06,11.06,0,0,1,220.81,152.85Z" fill="#212121"/><path d="M221.84,138.18a26.43,26.43,0,0,0-2.73-2,7,7,0,0,0-3-1.19,5.2,5.2,0,0,0-3,.66,9.06,9.06,0,0,0-2.6,1.91,10.82,10.82,0,0,0-1.84,2.68,21.36,21.36,0,0,0-1.17,3.14,51.26,51.26,0,0,0-1.51,6.65,30.3,30.3,0,0,1,.82-6.83,12.77,12.77,0,0,1,3-6.32,9.41,9.41,0,0,1,2.91-2.1,8.29,8.29,0,0,1,1.72-.58,4.85,4.85,0,0,1,1.86,0C218.68,134.7,220.37,136.47,221.84,138.18Z" fill="#212121"/><path d="M207.48,163a6.76,6.76,0,0,0,3.48,3.5,5.45,5.45,0,0,0,4.66-.23,9,9,0,0,0,3.73-3.19,21,21,0,0,0,1.36-2.18,15.29,15.29,0,0,0,1.13-2.34,14.18,14.18,0,0,1-1.83,4.95,8.69,8.69,0,0,1-4,3.67,7.3,7.3,0,0,1-2.7.67,5.16,5.16,0,0,1-2.71-.65,5.76,5.76,0,0,1-2.08-1.77A7.31,7.31,0,0,1,207.48,163Z" fill="#212121"/></g><g id="inner_border"><path d="M150,50.44c73.61,0,133.58,67.6,136.24,152.15L270,208.43,150,251.42l-119.95-43-16.29-5.84C16.42,118,76.39,50.44,150,50.44m0-2c-36.12,0-70.29,16-96.22,45-25.79,28.89-40.72,67.61-42,109.05l0,1.45,1.37.49,16.29,5.84,120,43,.67.25.68-.25,119.94-43,16.29-5.84,1.37-.49,0-1.45c-1.29-41.44-16.22-80.16-42-109-25.93-29-60.1-45-96.22-45Z" fill="#212121"/></g><g id="outter_border"><path d="M150,39.24c80.39,0,145.59,75.29,146,168.33,0,.29,0,.57,0,.86h0l-142.39,51-3.61,1.3-1.54-.55L4,208.43H4V208C4.21,114.75,69.49,39.24,150,39.24m0-4c-40.11,0-77.8,18-106.14,50.79C15.68,118.61.11,161.92,0,208v3.26l2.65.95L147.11,264l1.54.55L150,265l1.35-.49,3.61-1.29,142.39-51,2.65-.95v-2.81c0-.18,0-.36,0-.53v-.35c-.2-46-15.82-89.17-44-121.66-28.31-32.66-66-50.65-106-50.65Z" fill="#212121"/></g></g><g id="frame"><rect width="300" height="300" fill="none"/></g></svg>