<svg xmlns="http://www.w3.org/2000/svg" viewBox="0 0 30 30"><path d="M0,15.78c-.12.07.13.71,1.07,1.28a5.55,5.55,0,0,0,3.66.34,9.72,9.72,0,0,0,4-3.19,12.22,12.22,0,0,0,1.35-2.42,9.41,9.41,0,0,0,1.49,2.89c1.06,1.37,2.91,1.63,3,1.89s1.52,1.06,2.5,1.88a6.19,6.19,0,0,1,1.38,1.44c.34.42.7,1,.7,1l.5-.16.45,0,.3,0A16.49,16.49,0,0,1,19.3,18a6.43,6.43,0,0,0-.42-1.2,7,7,0,0,0-.61-1.77c-.38-.77-.53-1.18-.53-1.18A7.57,7.57,0,0,0,19.5,14c1,0,1.64-.07,1.64-.07a5.19,5.19,0,0,0,.09,1.16,10.07,10.07,0,0,1,.14,2.2c-.06.24-.79,1.2-.92,1.53s-.29.4.14.45a1.8,1.8,0,0,0,1.51-.91,4.29,4.29,0,0,0,.42-2c0-.68.12-1.83.86-2.29s1-.4,1.52-1.05a6.85,6.85,0,0,0,1.39-2.71c.33-1.25.24-1.48.36-1.57s.3.12.81.1.55,0,.57-.07-.25-.33-.15-.32.27.2.29.29.18.19.5.19a4.47,4.47,0,0,0,.88-.12.63.63,0,0,0,.4-.28c.1-.21,0-.17-.06-.29s-.07-.27,0-.13.14.3.1-.05-.26-.56-.76-.84a2.37,2.37,0,0,1-.88-.68,1,1,0,0,0-.71-.38c-.25,0-.26-.12-.21-.39s.78-1.14.84-1.49.14-.58-.08-.54a7.39,7.39,0,0,0-1.84,1.11,2.19,2.19,0,0,0-.32.5,14.25,14.25,0,0,1-1.37-1,5.45,5.45,0,0,0-1.49-1c-.33-.09-.3-.05-.24.36a7.49,7.49,0,0,0,.93,1.8,1.74,1.74,0,0,0,.75.58c.22.08.41.1.3.23a2.24,2.24,0,0,0-.55,1,2.8,2.8,0,0,1-.57,1.5c-.35.29-1,.71-2.6-.44S19.54,6.8,17.75,6.17A7.84,7.84,0,0,0,12.69,6,8.59,8.59,0,0,0,9.31,8.57a34.7,34.7,0,0,0-2.49,3.74,12.35,12.35,0,0,1-2,2.89,2.89,2.89,0,0,1-2.53,1.09C1,16.23.32,15.59,0,15.78Z" opacity="0.25"/><path d="M12.24,21.63a1.48,1.48,0,0,1,1.08-.38c.74,0,.88.38,1.58.38s1-.38,1.7-.38.92.38,1.71.38.84-.38,1.66-.38a1.35,1.35,0,0,1,1.09.36" fill="none" stroke="#212121" stroke-miterlimit="10" stroke-width="0.35"/><path d="M12.16,21a1.55,1.55,0,0,1,1.1-.37c.76,0,.89.37,1.61.37s1-.37,1.73-.37.93.37,1.74.37.85-.37,1.69-.37a1.41,1.41,0,0,1,1.12.36" fill="none" stroke="#212121" stroke-miterlimit="10" stroke-width="0.35"/><path d="M23.75,7.74c.07-.28.16-.62.24-.89H20.1c.3.23.73.56,1.08.89Z" fill="#212121"/><path d="M29.49,9.38a1.51,1.51,0,0,1-.38.07,2.44,2.44,0,0,1,0,.26,1.29,1.29,0,0,1-.34.81l-1.93,2.6a2.28,2.28,0,0,1,.51.81l2.13-2.87a2,2,0,0,0,.36-.6A3.1,3.1,0,0,0,30,9.64a2.36,2.36,0,0,0,0-.47A3.12,3.12,0,0,1,29.49,9.38Z" fill="#212121"/><path d="M17.84,25.19a1.66,1.66,0,0,1-.35.34,1.06,1.06,0,0,1-.43.21,1.39,1.39,0,0,1-.41.05v.88a2.64,2.64,0,0,0,.76-.1,2,2,0,0,0,.44-.21,2.6,2.6,0,0,0,.42-.32,5.72,5.72,0,0,0,.55-.66c.13-.16,3.39-4.56,6.28-8.43a2.38,2.38,0,0,1-.93-.25C21.22,20.66,17.93,25.08,17.84,25.19Z" fill="#212121"/><path d="M16.23,25.74a1.22,1.22,0,0,1-.43-.21,1.66,1.66,0,0,1-.35-.34c-.09-.11-3.38-4.53-6.32-8.49a2.47,2.47,0,0,1-.94.25c2.89,3.87,6.16,8.27,6.29,8.43A4.91,4.91,0,0,0,15,26a2.64,2.64,0,0,0,.43.32,1.72,1.72,0,0,0,.43.21,2.66,2.66,0,0,0,.77.1v-.88A1.47,1.47,0,0,1,16.23,25.74Z" fill="#212121"/><path d="M4.53,10.52a1.29,1.29,0,0,1-.34-.81,1.66,1.66,0,0,1,.17-1,2.31,2.31,0,0,1,.78-.78,1.92,1.92,0,0,1,.93-.2H9.41a3.35,3.35,0,0,1,.38-.4l.57-.49h-4A4.14,4.14,0,0,0,5.22,7a2.62,2.62,0,0,0-1.17.71A2.72,2.72,0,0,0,3.4,8.72a2.7,2.7,0,0,0-.1.92,2.83,2.83,0,0,0,.16.82,2.26,2.26,0,0,0,.36.6l1.76,2.37.5-.83Z" fill="#212121"/><path d="M8.06,12.91l-.15.91.18.87.18-.87-.15-.91S8.06,12.88,8.06,12.91Z" fill="#212121"/><path d="M7.38,13.05l.21.91.5.73-.16-.87L7.44,13A0,0,0,0,0,7.38,13.05Z" fill="#212121"/><path d="M6.81,13.45l.54.75.74.49L7.61,14l-.76-.54S6.79,13.42,6.81,13.45Z" fill="#212121"/><path d="M6.44,14l.79.49.86.17-.73-.5L6.46,14S6.41,14,6.44,14Z" fill="#212121"/><path d="M6.31,14.72l.92.15.86-.18-.86-.18-.92.15S6.28,14.71,6.31,14.72Z" fill="#212121"/><path d="M6.46,15.39l.9-.21.73-.49-.86.16-.79.49S6.43,15.4,6.46,15.39Z" fill="#212121"/><path d="M6.85,16l.76-.54.48-.73-.74.48-.54.75S6.83,16,6.85,16Z" fill="#212121"/><path d="M7.44,16.34l.49-.79.16-.86-.5.72-.21.91A0,0,0,0,0,7.44,16.34Z" fill="#212121"/><path d="M8.12,16.46l.15-.91-.18-.86-.18.86.15.91S8.11,16.49,8.12,16.46Z" fill="#212121"/><path d="M8.8,16.32l-.21-.91-.5-.72.16.86.49.79A0,0,0,0,0,8.8,16.32Z" fill="#212121"/><path d="M9.37,15.92l-.54-.75-.74-.48.48.73.76.54S9.39,16,9.37,15.92Z" fill="#212121"/><path d="M9.74,15.34,9,14.85l-.86-.16.73.49.9.21S9.77,15.35,9.74,15.34Z" fill="#212121"/><path d="M9.87,14.66,9,14.51l-.86.18.86.18.92-.15S9.9,14.66,9.87,14.66Z" fill="#212121"/><path d="M9.72,14l-.9.21-.73.5L9,14.52,9.74,14S9.75,14,9.72,14Z" fill="#212121"/><path d="M9.33,13.41,8.57,14l-.48.74.74-.49.54-.75S9.35,13.39,9.33,13.41Z" fill="#212121"/><path d="M8.74,13l-.49.79-.16.87.5-.73.21-.91A0,0,0,0,0,8.74,13Z" fill="#212121"/><path d="M25.23,12.91l.15.91-.18.87L25,13.82l.15-.91S25.23,12.88,25.23,12.91Z" fill="#212121"/><path d="M25.91,13.05,25.7,14l-.5.73.17-.87.48-.79S25.92,13,25.91,13.05Z" fill="#212121"/><path d="M26.48,13.45l-.54.75-.74.49.48-.74.76-.54S26.5,13.42,26.48,13.45Z" fill="#212121"/><path d="M26.86,14l-.79.49-.87.17.73-.5.9-.21S26.88,14,26.86,14Z" fill="#212121"/><path d="M27,14.72l-.92.15-.86-.18.86-.18.92.15S27,14.71,27,14.72Z" fill="#212121"/><path d="M26.83,15.39l-.9-.21-.73-.49.87.16.79.49S26.86,15.4,26.83,15.39Z" fill="#212121"/><path d="M26.44,16l-.76-.54-.48-.73.74.48.54.75S26.46,16,26.44,16Z" fill="#212121"/><path d="M25.85,16.34l-.48-.79-.17-.86.5.72.21.91S25.87,16.36,25.85,16.34Z" fill="#212121"/><path d="M25.17,16.46,25,15.55l.18-.86.18.86-.15.91S25.18,16.49,25.17,16.46Z" fill="#212121"/><path d="M24.49,16.32l.22-.91.49-.72-.16.86-.49.79A0,0,0,0,1,24.49,16.32Z" fill="#212121"/><path d="M23.92,15.92l.55-.75.73-.48-.48.73L24,16A0,0,0,0,1,23.92,15.92Z" fill="#212121"/><path d="M23.55,15.34l.79-.49.86-.16-.72.49-.91.21S23.52,15.35,23.55,15.34Z" fill="#212121"/><path d="M23.43,14.66l.91-.15.86.18-.86.18-.91-.15S23.4,14.66,23.43,14.66Z" fill="#212121"/><path d="M23.57,14l.91.21.72.5-.86-.17L23.55,14S23.54,14,23.57,14Z" fill="#212121"/><path d="M24,13.41l.75.54.48.74-.73-.49-.55-.75A0,0,0,0,1,24,13.41Z" fill="#212121"/><path d="M24.55,13l.49.79.16.87L24.71,14l-.22-.91A0,0,0,0,1,24.55,13Z" fill="#212121"/><path d="M15.22,23.38a.46.46,0,0,1,0-.21A.54.54,0,0,1,15.4,23a1,1,0,0,0,.15-.18.37.37,0,0,0,0-.15s0-.08,0-.1a.09.09,0,0,0-.07,0c-.07,0-.1,0-.1.11v.12h-.17v-.1a.25.25,0,0,1,.07-.21.26.26,0,0,1,.2-.08.29.29,0,0,1,.21.08.25.25,0,0,1,.07.21.45.45,0,0,1,0,.19,1,1,0,0,1-.18.23l-.11.13a.26.26,0,0,0,0,.11v0h.35v.16h-.53Z" fill="#212121"/><path d="M16,23.44a.28.28,0,0,1-.07-.21v-.58a.28.28,0,0,1,.07-.21.32.32,0,0,1,.42,0,.28.28,0,0,1,.07.21v.58a.3.3,0,0,1-.49.21Zm.31-.2v-.61c0-.07,0-.11-.1-.11a.1.1,0,0,0-.1.11v.61c0,.08,0,.11.1.11S16.33,23.32,16.33,23.24Z" fill="#212121"/><path d="M16.7,23.38a.65.65,0,0,1,0-.21.77.77,0,0,1,.15-.19A.89.89,0,0,0,17,22.8a.26.26,0,0,0,0-.15.22.22,0,0,0,0-.1.1.1,0,0,0-.08,0c-.06,0-.09,0-.09.11v.12H16.7v-.1a.29.29,0,0,1,.07-.21.29.29,0,0,1,.21-.08.25.25,0,0,1,.2.08.26.26,0,0,1,.08.21.35.35,0,0,1-.06.19,1,1,0,0,1-.17.23.64.64,0,0,0-.12.13.52.52,0,0,0,0,.11v0h.35v.16H16.7Z" fill="#212121"/><path d="M17.5,23.44a.3.3,0,0,1-.07-.2v-.09h.18v.09c0,.08,0,.11.1.11a.08.08,0,0,0,.07,0,.22.22,0,0,0,0-.1v-.09a.16.16,0,0,0,0-.11.12.12,0,0,0-.09,0h-.06v-.16h.07a.11.11,0,0,0,.08,0,.12.12,0,0,0,0-.09v-.08a.12.12,0,0,0,0-.09.09.09,0,0,0-.07,0c-.06,0-.09,0-.09.11v.07h-.17v-.06a.24.24,0,0,1,.07-.2.26.26,0,0,1,.2-.08.25.25,0,0,1,.27.28v0a.33.33,0,0,1,0,.15.21.21,0,0,1-.1.08h0A.23.23,0,0,1,18,23a.33.33,0,0,1,0,.15v.1a.3.3,0,0,1-.49.2Z" fill="#212121"/><path d="M13.08,18.79a1.93,1.93,0,0,1,.08-.48l-.4,0-.08.16-.07.14a1.3,1.3,0,0,1-.24.37.32.32,0,0,1-.18.06.14.14,0,0,1-.11,0s0,0,0,0a0,0,0,0,1,0,0,.43.43,0,0,0,.2-.15,1.4,1.4,0,0,0,.14-.22l.13-.23h-.07c-.05,0-.07,0-.07,0a.08.08,0,0,1,0-.07.33.33,0,0,1,.13-.07h.05a3.16,3.16,0,0,1,.28-.44l.17-.21.17-.14a.57.57,0,0,1,.37-.14.15.15,0,0,1,.08,0,.09.09,0,0,1,0,.08l0,.13-.22.62h.06c.08,0,.13,0,.13,0v0a.07.07,0,0,1,0,.05.1.1,0,0,1,0,.05.32.32,0,0,1-.2,0,3.26,3.26,0,0,0-.08.37c0,.07,0,.12,0,.14s0,0,0,0h.14s0,0,0,0,0,0,0,0a.39.39,0,0,1,0,.06.34.34,0,0,1-.06.06.25.25,0,0,1-.17.06.2.2,0,0,1-.2-.13.34.34,0,0,1,0-.09Zm-.22-.64.36,0,.06-.2.07-.18c0-.06.05-.12.07-.17l.07-.14a.86.86,0,0,0-.46.41l-.09.15Z" fill="#212121"/><path d="M14.8,18.83s0,0,0,0a.2.2,0,0,1-.09.17.28.28,0,0,1-.15,0,.16.16,0,0,1-.11,0,.18.18,0,0,1-.07-.15,1,1,0,0,1,.09-.35l-.23.32-.12.12a.35.35,0,0,1-.2.09.17.17,0,0,1-.18-.12.2.2,0,0,1,0-.09.52.52,0,0,1,0-.11.56.56,0,0,1,0-.12l.06-.14.05-.14c.08-.17.11-.28.09-.31L14,18s0,0,0,0,0,0,0,0l0,0,.11,0h.08l.05,0a.15.15,0,0,1,0,.09.44.44,0,0,1,0,.1.56.56,0,0,1,0,.12.78.78,0,0,1-.05.14l-.1.25,0,.09a.36.36,0,0,0,0,.11s0,0,0,0,0,0,0,0a.09.09,0,0,0,.06,0l.08-.07.08-.09.09-.12.12-.19c.15-.29.24-.44.25-.45s0-.05.07-.05h.06l.05,0s0,.05,0,.07a3.88,3.88,0,0,0-.29.74.35.35,0,0,1,0,.07q0,.09.06.09a.08.08,0,0,0,.07,0Z" fill="#212121"/><path d="M15,18.85a.19.19,0,0,1,0-.07l0-.05a.14.14,0,0,1,.1,0s0,0,0,0a.19.19,0,0,0,.08.17l.06,0h0l0,0a.12.12,0,0,0,0-.08.19.19,0,0,0,0-.08l-.05-.09-.07-.09a.63.63,0,0,1-.13-.34.33.33,0,0,1,.11-.23.41.41,0,0,1,.3-.12.37.37,0,0,1,.25.08.23.23,0,0,1,.08.16.15.15,0,0,1-.07.14.12.12,0,0,1-.12,0,.05.05,0,0,1,0,0,0,0,0,0,1,0-.05s0,0,0-.06,0,0,0-.06l0,0a.12.12,0,0,0-.08,0h-.07l-.05,0a.14.14,0,0,0,0,.1.3.3,0,0,0,0,.1l.05.09.07.09.06.1a.35.35,0,0,1,.07.2.24.24,0,0,1,0,.15.28.28,0,0,1-.09.1.44.44,0,0,1-.27.09A.31.31,0,0,1,15,19,.17.17,0,0,1,15,18.85Z" fill="#212121"/><path d="M16.56,18.75s0,0,0,.05a.19.19,0,0,1,0,.07.36.36,0,0,1-.12.13.41.41,0,0,1-.2.06A.21.21,0,0,1,16,18.9a1.8,1.8,0,0,1,.17-.84c-.08,0-.13,0-.14,0V18l0,0a.11.11,0,0,1,.07,0h.09a1.21,1.21,0,0,1,.17-.33l0,0h.05a.05.05,0,0,1,0,0,.11.11,0,0,1,0,.08.11.11,0,0,1,0,.05l-.08.19h.25a0,0,0,0,1,0,0c0,.1-.11.15-.34.15h0l-.07.2a1.68,1.68,0,0,0-.13.51.07.07,0,0,0,0,.06l.06,0h.09l.07,0,.05,0Z" fill="#212121"/><path d="M16.79,19l0,0s0,0,0,0a.08.08,0,0,1,0,0,.43.43,0,0,0,0-.05,2.92,2.92,0,0,0,.23-.78A.1.1,0,0,0,17,18l0,0s0,0,0,0,0,0,0,0l0,0a.19.19,0,0,1,.1,0h.08l0,0a.14.14,0,0,1,0,.09s0,.06,0,.09l0,.1,0,.08s0,0,0,.06v.05a.05.05,0,0,0,0,0l0-.09a1,1,0,0,1,.28-.36l.1,0a.12.12,0,0,1,.09,0,.16.16,0,0,1,0,.09v.08l0,.06a.09.09,0,0,1-.09.07h0l0,0a.08.08,0,0,0-.07,0,.15.15,0,0,0-.08.05l-.1.12a2.3,2.3,0,0,0-.28.54L17,19a.15.15,0,0,1,0,.07,0,0,0,0,1,0,0h-.06A.05.05,0,0,1,16.79,19Z" fill="#212121"/><path d="M18.49,18.75c0,.07,0,.1.07.1h.08l.05,0s0,0,0,0a.21.21,0,0,1-.1.17.2.2,0,0,1-.21,0,.2.2,0,0,1-.11-.11.25.25,0,0,1,0-.08.57.57,0,0,1,0-.13A.61.61,0,0,1,18,19a.27.27,0,0,1-.12,0,.21.21,0,0,1-.12,0s-.06,0-.09-.08a.39.39,0,0,1-.06-.27.83.83,0,0,1,.11-.4A.94.94,0,0,1,18,18a.45.45,0,0,1,.28-.12.25.25,0,0,1,.22.13c0-.09.09-.13.13-.13l.09,0s.06.06.05.08a3.45,3.45,0,0,0-.29.74Zm-.61,0c0,.09,0,.14.09.14s.09,0,.16-.12a1.57,1.57,0,0,0,.24-.45l.06-.18a.16.16,0,0,0-.07-.12h-.05l-.1,0-.1.08-.09.12a.77.77,0,0,0-.07.16A.87.87,0,0,0,17.88,18.75Z" fill="#212121"/><path d="M18.91,19a.59.59,0,0,1,0-.08.36.36,0,0,1,0-.11.61.61,0,0,1,0-.16c0-.07,0-.15.07-.24l.09-.29a4.71,4.71,0,0,0,.23-.93q0-.09.09-.09l.08,0s.07.07.06.12a.44.44,0,0,1,0,.15,1.8,1.8,0,0,1-.05.19l-.06.23-.16.46a2.8,2.8,0,0,0-.13.52s0,.06.05.06a.15.15,0,0,0,.09,0l.05,0s0,0,0,0a.21.21,0,0,1-.1.17.24.24,0,0,1-.12,0H19Z" fill="#212121"/><path d="M19.86,18.84s0,0,0,0a.16.16,0,0,1-.05.1.19.19,0,0,1-.18.08.17.17,0,0,1-.17-.1.3.3,0,0,1,0-.1.74.74,0,0,1,0-.12,1.21,1.21,0,0,1,.05-.14.78.78,0,0,1,.05-.14l.06-.15a1.18,1.18,0,0,0,.07-.21.35.35,0,0,0,0-.07l0,0,0,0s0,0,0,0,0,0,0,0l0,0a.27.27,0,0,1,.12,0c.11,0,.16,0,.16.09a.68.68,0,0,1-.05.23c0,.09-.06.17-.09.22l-.06.16a.83.83,0,0,0-.08.25s0,.05.05.05h.11Zm.22-1.25a.1.1,0,0,1,0,0l-.07,0a.07.07,0,0,1-.06,0,.1.1,0,0,1,0,0,.21.21,0,0,1-.05-.12.2.2,0,0,1,0-.09.08.08,0,0,1,0,0,.16.16,0,0,1,.1,0H20l0,0a.12.12,0,0,1,.06.09.2.2,0,0,1,0,.09A.16.16,0,0,1,20.08,17.59Z" fill="#212121"/><path d="M20.92,18.75c0,.07,0,.1.07.1h.09l0,0s0,0,0,0A.21.21,0,0,1,21,19a.2.2,0,0,1-.21,0,.2.2,0,0,1-.11-.11.25.25,0,0,1,0-.08.57.57,0,0,1,0-.13.59.59,0,0,1-.25.3l-.13,0a.21.21,0,0,1-.12,0,.22.22,0,0,1-.09-.08.45.45,0,0,1-.06-.27.83.83,0,0,1,.11-.4.94.94,0,0,1,.26-.3.45.45,0,0,1,.28-.12.25.25,0,0,1,.22.13c0-.09.09-.13.13-.13l.1,0s0,.06,0,.08a3.45,3.45,0,0,0-.29.74Zm-.61,0c0,.09,0,.14.09.14s.09,0,.16-.12a1.57,1.57,0,0,0,.24-.45l.06-.18A.16.16,0,0,0,20.8,18h-.06a.16.16,0,0,0-.09,0l-.11.08-.09.12c0,.05-.05.1-.07.16A.87.87,0,0,0,20.31,18.75Z" fill="#212121"/><path d="M7,11.93l.29-.11V9.67L7,9.56V9.29H9.14l-.07.89H8.73l-.06-.55L8,9.7v.8l.65,0v.35l-.65,0v.88l.75.08.08-.58h.35l0,.92H7Z" fill="#212121"/><path d="M9.4,11.93l.29-.11.09-2.15-.29-.11V9.29h1.16l.56,2h.06l.55-2H13v.27l-.28.11.09,2.15.28.11v.28h-1.3V11.9l.32-.11,0-1.58h0c0,.09,0,.2-.09.35s-.08.28-.11.38L11.48,12l-.27,0-.25,0L10.87,12l-.36-1.09c0-.16-.12-.4-.19-.73h-.05l0,1.58.32.11v.31H9.4Z" fill="#212121"/><path d="M13.31,11.93l.29-.11V9.67l-.29-.11V9.29h2.17l-.06.89h-.35L15,9.63l-.72.07v.8l.65,0v.35l-.65,0v.88l.76.08.08-.58h.35v.92H13.31Z" fill="#212121"/><path d="M15.77,11.93l.29-.11V9.67l-.29-.11V9.29h1.54a.77.77,0,0,1,.57.19.87.87,0,0,1,.19.62,1,1,0,0,1-.13.52.84.84,0,0,1-.34.31v0l.33.57.18.3.25.1v.29H17.5L17,11h-.23v.76l.3.12v.3H15.77ZM17,10.64a.56.56,0,0,0,.2,0,.22.22,0,0,0,.11-.12.93.93,0,0,0,0-.28c0-.38-.08-.56-.24-.56l-.36,0v1Z" fill="#212121"/><path d="M18.38,11.93l.29-.09.77-2.52.41-.05.31,0,.1,0,.79,2.55.29.09v.28H20V11.9l.32-.09-.13-.49h-.8l-.12.49.33.09v.31H18.38Zm1.7-1L19.8,9.84h-.05L19.47,11Z" fill="#212121"/><path d="M21.46,11.93l.29-.11V9.67l-.29-.11V9.29h1.33v.28l-.34.11v2.11l.7.08.09-.63h.35l0,1H21.46Z" fill="#212121"/><path d="M23.79,11.93l.29-.11V9.67l-.29-.11V9.29h1.55a.91.91,0,0,1,.48.13,1,1,0,0,1,.37.45,1.82,1.82,0,0,1,.14.8,2,2,0,0,1-.26,1.16.83.83,0,0,1-.73.38H23.79Zm1.72-.38a2.67,2.67,0,0,0,.1-.84,2.48,2.48,0,0,0-.1-.77c-.07-.21-.16-.31-.27-.31l-.46,0v2.13l.46,0C25.35,11.86,25.44,11.76,25.51,11.55Z" fill="#212121"/><path d="M10.66,15.88a1.7,1.7,0,0,1-.27-1.06,3.2,3.2,0,0,1,0-.56,2.65,2.65,0,0,1,.11-.43,1.57,1.57,0,0,1,.29-.27,3,3,0,0,1,.41-.25.76.76,0,0,1,.29-.11l.34,0,.51.06-.05,1H12l-.07-.56-.25,0-.23,0a.23.23,0,0,0-.13,0c-.05,0-.1.14-.13.33a4.67,4.67,0,0,0-.05.72,1.79,1.79,0,0,0,.14.83.44.44,0,0,0,.41.24h.25l.08-.59h.34l0,.94-.49.07-.42.05A1,1,0,0,1,10.66,15.88Z" fill="#212121"/><path d="M13,15.88a1.49,1.49,0,0,1-.33-1.07,3.2,3.2,0,0,1,0-.56,2.51,2.51,0,0,1,.11-.42,1.57,1.57,0,0,1,.29-.27,3,3,0,0,1,.41-.25.76.76,0,0,1,.29-.11,1.39,1.39,0,0,1,1,.35,1.52,1.52,0,0,1,.33,1.08,3.55,3.55,0,0,1-.14,1,1.4,1.4,0,0,1-.3.25,2.55,2.55,0,0,1-.41.24.76.76,0,0,1-.29.11A1.37,1.37,0,0,1,13,15.88Zm1.18-.09.17-.08a5.6,5.6,0,0,0,.07-1,2.32,2.32,0,0,0-.11-.86.42.42,0,0,0-.43-.27.74.74,0,0,0-.3,0s-.09.14-.13.34a5,5,0,0,0-.05.74,3,3,0,0,0,.06.68.56.56,0,0,0,.18.35.52.52,0,0,0,.35.11Z" fill="#212121"/><path d="M15.22,15.9l.3-.1.77-2.51.41,0,.31,0,.09.06.79,2.54.29.1v.27H16.84v-.3l.32-.09L17,15.29h-.8l-.11.49.33.09v.3H15.22Zm1.71-1-.28-1.11h0l-.28,1.11Z" fill="#212121"/><path d="M18.54,16.18l-.24,0,0-.92h.35l.09.5a5.79,5.79,0,0,0,.64.08s0,0,.07-.1a.3.3,0,0,0,.05-.17.36.36,0,0,0-.12-.28A2.38,2.38,0,0,0,19,15a3.87,3.87,0,0,1-.37-.25.9.9,0,0,1-.24-.27.77.77,0,0,1-.1-.4,1,1,0,0,1,0-.24,1,1,0,0,1,.23-.26,2.26,2.26,0,0,1,.37-.26.58.58,0,0,1,.27-.12l.37,0,.55.06,0,.86h-.35l-.07-.46-.6-.08s0,0-.07.07a.5.5,0,0,0,0,.19.48.48,0,0,0,.11.3,1.43,1.43,0,0,0,.34.25l.09.06a3,3,0,0,1,.37.24,1,1,0,0,1,.24.26.69.69,0,0,1,.09.36.93.93,0,0,1,0,.24,1.16,1.16,0,0,1-.24.28,2.53,2.53,0,0,1-.35.25.66.66,0,0,1-.29.11Z" fill="#212121"/><path d="M20.93,15.9l.35-.11V13.64l-.41,0-.06.57h-.34l-.06-1h2.46l-.06,1h-.35l-.06-.57-.41,0v2.14l.36.1v.29H20.93Z" fill="#212121"/><rect width="30" height="30" fill="none"/></svg>