<!-- Copyright (c) 2022 - 2023 Jan Stehno -->
<svg xmlns="http://www.w3.org/2000/svg" viewBox="0 0 300 300"><title>emeraldcoastaustralia</title><g id="emeraldcoastaustralia"><path id="kangaroo" d="M.26,157.77c-1.14.74,1.3,7.1,10.7,12.8s27.31,6.15,36.63,3.41,29.21-16.9,39.47-31.9,13.52-24.18,13.52-24.18a95,95,0,0,0,14.91,28.85c10.65,13.78,29.11,16.35,30.39,18.91s15.2,10.66,25.06,18.85,10.39,10.12,13.8,14.37,7,9.6,7,9.6l5-1.59,4.52-.27,2.94.29s-10.14-20-11.13-26.64-4.24-10.26-4.24-11.94-2.37-10.07-6.12-17.77-5.33-11.74-5.33-11.74A76.58,76.58,0,0,0,195,140.4c9.58-.3,16.38-.69,16.38-.69a52.36,52.36,0,0,0,.89,11.55c1.19,5.72,2,19.53,1.38,22s-7.89,12-9.17,15.3-2.86,4,1.38,4.54,11.54-2.87,15.1-9.08,4-13.42,4.24-20.23,1.18-18.31,8.59-22.9,10-4,15.17-10.51,10.68-14.55,13.94-27.08,2.37-14.81,3.55-15.69,3,1.18,8.12,1,5.55.3,5.7-.74-2.52-3.26-1.49-3.18,2.74,2,2.89,2.89,1.78,1.85,5,1.92a46.5,46.5,0,0,0,8.83-1.26s2.87-.59,3.9-2.74,0-1.7-.59-2.88-.66-2.74,0-1.34,1.4,3,1-.55-2.59-5.59-7.62-8.33-7-4.51-8.74-6.81a10.34,10.34,0,0,0-7.18-3.77c-2.44-.15-2.51-1.26-2.07-3.92s7.85-11.4,8.36-14.88,1.48-5.85-.74-5.48-16.13,8.29-18.43,11.1a21.88,21.88,0,0,0-3.18,5,138.44,138.44,0,0,1-13.69-9.77c-7.55-6.07-11.69-9.4-15-10.29s-3-.44-2.37,3.63,7.11,14.95,9.33,18a17.3,17.3,0,0,0,7.47,5.85c2.22.81,4.15,1,3,2.29a22.12,22.12,0,0,0-5.55,10.36c-1.19,5.7-2.23,12.07-5.7,15s-10.29,7.15-26-4.34S195.42,68,177.46,61.65s-37.6-6.51-50.53-1.68S101.08,75.66,93.08,85.73s-18.3,25.87-24.86,37.4S56,144.84,48.48,152s-12.14,11.35-25.26,10.81S3.16,155.89.26,157.77Z" opacity="0.25"/><g id="border"><path d="M122.38,216.26s3.44-3.72,10.84-3.72,8.74,3.72,15.77,3.72,9.92-3.72,17-3.72,9.18,3.72,17.1,3.72,8.36-3.72,16.58-3.72,11,3.57,11,3.57" fill="none" stroke="#212121" stroke-miterlimit="10" stroke-width="3.5"/><path d="M121.58,210.34s3.5-3.72,11-3.72,8.89,3.72,16,3.72,10.1-3.72,17.33-3.72,9.35,3.72,17.41,3.72,8.52-3.72,16.88-3.72,11.16,3.57,11.16,3.57" fill="none" stroke="#212121" stroke-miterlimit="10" stroke-width="3.5"/><g id="right_border"><path d="M237.49,77.42c.68-2.79,1.56-6.23,2.4-8.91H201a128.31,128.31,0,0,1,10.88,8.91Z" fill="#212121"/><path d="M294.94,93.82a19.82,19.82,0,0,1-3.86.69c0,.78,0,1.62-.1,2.54a13,13,0,0,1-3.36,8.17l-19.3,25.93a22.61,22.61,0,0,1,5.06,8.18l21.35-28.73c2.84-3.83,3.16-5,3.58-6A27.25,27.25,0,0,0,300,96.41a28.64,28.64,0,0,0-.15-4.72A32.19,32.19,0,0,1,294.94,93.82Z" fill="#212121"/><path d="M178.41,251.89a17.56,17.56,0,0,1-3.53,3.43,12.48,12.48,0,0,1-4.27,2.12,14.9,14.9,0,0,1-4.15.41v8.88a27,27,0,0,0,7.65-1.05,18,18,0,0,0,4.35-2.06,28.59,28.59,0,0,0,4.26-3.25,65.36,65.36,0,0,0,5.45-6.53c1.29-1.66,34-45.59,62.81-84.38a22.38,22.38,0,0,1-9.32-2.49C212.19,206.57,179.28,250.78,178.41,251.89Z" fill="#212121"/></g><g id="left_border"><path d="M162.31,257.44a12.48,12.48,0,0,1-4.27-2.12,17.56,17.56,0,0,1-3.53-3.43c-.87-1.11-33.78-45.32-63.25-84.92a22.34,22.34,0,0,1-9.32,2.49c28.84,38.79,61.52,82.72,62.81,84.38a66.76,66.76,0,0,0,5.45,6.53,28.59,28.59,0,0,0,4.26,3.25,18.34,18.34,0,0,0,4.35,2.06,27,27,0,0,0,7.65,1.05v-8.88A14.9,14.9,0,0,1,162.31,257.44Z" fill="#212121"/><path d="M45.3,105.22a13,13,0,0,1-3.36-8.17c-.44-5,.57-7.77,1.66-9.84a22.53,22.53,0,0,1,7.82-7.77c3.2-1.63,5.52-2,9.25-2,1.35,0,15.7,0,33.42,0a35.57,35.57,0,0,1,3.77-4c1.93-1.77,3.94-3.48,5.71-4.93H63.62c-2.21,0-7.7-.15-11.46,1.07a25.86,25.86,0,0,0-11.62,7.17A26.29,26.29,0,0,0,34,87.19,27.91,27.91,0,0,0,33,96.41a27.58,27.58,0,0,0,1.65,8.17c.42,1,.75,2.19,3.58,6l17.64,23.73L60.77,126Z" fill="#212121"/></g></g><g id="stars"><path d="M80.6,129.08l-1.5,9.17,1.8,8.6,1.8-8.6-1.5-9.17A.31.31,0,0,0,80.6,129.08Z" fill="#212121"/><path d="M73.82,130.55l2.12,9,5,7.26-1.63-8.64-4.9-7.89A.31.31,0,0,0,73.82,130.55Z" fill="#212121"/><path d="M68.12,134.5,73.54,142l7.36,4.81-4.81-7.36-7.55-5.41A.31.31,0,0,0,68.12,134.5Z" fill="#212121"/><path d="M64.37,140.33l7.89,4.89,8.64,1.63-7.26-5-9-2.11A.31.31,0,0,0,64.37,140.33Z" fill="#212121"/><path d="M63.13,147.15l9.16,1.5,8.61-1.8-8.61-1.8-9.16,1.5A.31.31,0,0,0,63.13,147.15Z" fill="#212121"/><path d="M64.6,153.93l9-2.12,7.26-5-8.64,1.63-7.89,4.9A.31.31,0,0,0,64.6,153.93Z" fill="#212121"/><path d="M68.54,159.63l7.55-5.42,4.81-7.36-7.36,4.81-5.42,7.54C67.94,159.46,68.29,159.81,68.54,159.63Z" fill="#212121"/><path d="M74.37,163.38l4.9-7.89,1.63-8.64-5,7.26-2.12,9A.31.31,0,0,0,74.37,163.38Z" fill="#212121"/><path d="M81.2,164.62l1.5-9.16-1.8-8.61-1.8,8.61,1.5,9.16A.31.31,0,0,0,81.2,164.62Z" fill="#212121"/><path d="M88,163.15l-2.12-9-4.95-7.26,1.63,8.64,4.89,7.89A.31.31,0,0,0,88,163.15Z" fill="#212121"/><path d="M93.67,159.2l-5.41-7.54-7.36-4.81,4.81,7.36,7.54,5.42C93.5,159.81,93.85,159.46,93.67,159.2Z" fill="#212121"/><path d="M97.43,153.38l-7.89-4.9-8.64-1.63,7.26,5,9,2.12A.31.31,0,0,0,97.43,153.38Z" fill="#212121"/><path d="M98.67,146.55l-9.17-1.5-8.6,1.8,8.6,1.8,9.17-1.5A.31.31,0,0,0,98.67,146.55Z" fill="#212121"/><path d="M97.2,139.78l-9,2.11-7.26,5,8.64-1.63,7.89-4.89A.31.31,0,0,0,97.2,139.78Z" fill="#212121"/><path d="M93.25,134.08l-7.54,5.41-4.81,7.36L88.26,142l5.41-7.54A.31.31,0,0,0,93.25,134.08Z" fill="#212121"/><path d="M87.42,130.32l-4.89,7.89-1.63,8.64,4.95-7.26,2.12-9A.31.31,0,0,0,87.42,130.32Z" fill="#212121"/><path d="M252.32,129.08l1.51,9.17-1.81,8.6-1.8-8.6,1.51-9.17A.31.31,0,0,1,252.32,129.08Z" fill="#212121"/><path d="M259.1,130.55l-2.12,9-5,7.26,1.63-8.64,4.9-7.89A.31.31,0,0,1,259.1,130.55Z" fill="#212121"/><path d="M264.8,134.5,259.38,142,252,146.85l4.82-7.36,7.54-5.41A.31.31,0,0,1,264.8,134.5Z" fill="#212121"/><path d="M268.55,140.33l-7.89,4.89L252,146.85l7.27-5,9-2.11A.31.31,0,0,1,268.55,140.33Z" fill="#212121"/><path d="M269.79,147.15l-9.16,1.5-8.61-1.8,8.61-1.8,9.16,1.5A.31.31,0,0,1,269.79,147.15Z" fill="#212121"/><path d="M268.33,153.93l-9-2.12-7.27-5,8.64,1.63,7.89,4.9A.31.31,0,0,1,268.33,153.93Z" fill="#212121"/><path d="M264.38,159.63l-7.54-5.42L252,146.85l7.36,4.81,5.42,7.54C265,159.46,264.63,159.81,264.38,159.63Z" fill="#212121"/><path d="M258.55,163.38l-4.9-7.89L252,146.85l5,7.26,2.12,9A.31.31,0,0,1,258.55,163.38Z" fill="#212121"/><path d="M251.73,164.62l-1.51-9.16,1.8-8.61,1.81,8.61-1.51,9.16A.3.3,0,0,1,251.73,164.62Z" fill="#212121"/><path d="M245,163.15l2.12-9,5-7.26-1.63,8.64-4.89,7.89A.31.31,0,0,1,245,163.15Z" fill="#212121"/><path d="M239.25,159.2l5.42-7.54,7.35-4.81-4.81,7.36-7.54,5.42C239.42,159.81,239.07,159.46,239.25,159.2Z" fill="#212121"/><path d="M235.49,153.38l7.89-4.9,8.64-1.63-7.26,5-9,2.12A.31.31,0,0,1,235.49,153.38Z" fill="#212121"/><path d="M234.26,146.55l9.16-1.5,8.6,1.8-8.6,1.8-9.16-1.5A.31.31,0,0,1,234.26,146.55Z" fill="#212121"/><path d="M235.72,139.78l9,2.11,7.26,5-8.64-1.63-7.89-4.89A.31.31,0,0,1,235.72,139.78Z" fill="#212121"/><path d="M239.67,134.08l7.54,5.41,4.81,7.36L244.67,142l-5.42-7.54A.31.31,0,0,1,239.67,134.08Z" fill="#212121"/><path d="M245.5,130.32l4.89,7.89,1.63,8.64-5-7.26-2.12-9A.31.31,0,0,1,245.5,130.32Z" fill="#212121"/></g><g id="text"><path d="M152.17,233.77a4.75,4.75,0,0,1,.4-2.05,7.27,7.27,0,0,1,1.46-1.9,8.36,8.36,0,0,0,1.42-1.77,3.13,3.13,0,0,0,.4-1.54,1.46,1.46,0,0,0-.25-1,.88.88,0,0,0-.71-.28c-.64,0-1,.36-1,1.1v1.2h-1.75v-1.09a2.89,2.89,0,0,1,.71-2.09,3.31,3.31,0,0,1,4.12,0,2.89,2.89,0,0,1,.7,2.09,4.28,4.28,0,0,1-.51,2,9.89,9.89,0,0,1-1.78,2.24A6.59,6.59,0,0,0,154.3,232a2.14,2.14,0,0,0-.29,1.11v.24h3.53V235h-5.37Z" fill="#212121"/><path d="M160.22,234.41a2.81,2.81,0,0,1-.73-2.08v-5.88a2.83,2.83,0,1,1,5.64,0v5.88a3,3,0,0,1-4.91,2.08Zm3.05-2v-6.11c0-.74-.32-1.1-1-1.1s-1,.36-1,1.1v6.11c0,.73.32,1.1,1,1.1S163.27,233.18,163.27,232.45Z" fill="#212121"/><path d="M167,233.77a4.75,4.75,0,0,1,.4-2.05,7.27,7.27,0,0,1,1.46-1.9,8.36,8.36,0,0,0,1.42-1.77,3.13,3.13,0,0,0,.4-1.54,1.46,1.46,0,0,0-.25-1,.88.88,0,0,0-.71-.28c-.64,0-1,.36-1,1.1v1.2H167v-1.09a2.89,2.89,0,0,1,.71-2.09,3.31,3.31,0,0,1,4.12,0,2.89,2.89,0,0,1,.7,2.09,4.28,4.28,0,0,1-.51,2,9.89,9.89,0,0,1-1.78,2.24,6.59,6.59,0,0,0-1.11,1.35,2.14,2.14,0,0,0-.29,1.11v.24h3.53V235H167Z" fill="#212121"/><path d="M175,234.43a2.87,2.87,0,0,1-.7-2.06v-.92h1.76v1c0,.73.32,1.1,1,1.1a.91.91,0,0,0,.72-.28,1.55,1.55,0,0,0,.24-1v-.92a1.6,1.6,0,0,0-.29-1.09,1.16,1.16,0,0,0-.92-.33h-.63v-1.6h.68a1.14,1.14,0,0,0,.83-.27,1.21,1.21,0,0,0,.28-.91v-.82a1.19,1.19,0,0,0-.25-.84.9.9,0,0,0-.68-.27c-.59,0-.89.34-.89,1V227h-1.76v-.59a2.85,2.85,0,0,1,.7-2.06,2.69,2.69,0,0,1,2-.72,2.66,2.66,0,0,1,2,.71,2.79,2.79,0,0,1,.7,2.05v.4a2.9,2.9,0,0,1-.32,1.46,1.83,1.83,0,0,1-1,.8v0a1.89,1.89,0,0,1,1.05.83,3,3,0,0,1,.32,1.47v1a2.85,2.85,0,0,1-.7,2.06,2.81,2.81,0,0,1-2.07.71A2.77,2.77,0,0,1,175,234.43Z" fill="#212121"/><path d="M130.76,187.91a21.18,21.18,0,0,1,.84-4.78c-1.76.05-3.11.1-4,.16q-.43.83-.78,1.56l-.68,1.42a11.45,11.45,0,0,1-2.43,3.68,2.68,2.68,0,0,1-1.75.69,1.25,1.25,0,0,1-1.06-.48.8.8,0,0,1-.15-.38c0-.12,0-.2.07-.23a4.84,4.84,0,0,0,2.06-1.51,16.09,16.09,0,0,0,1.38-2.23l1.24-2.33-.69.1c-.44.09-.66,0-.66-.22a.83.83,0,0,1,.4-.65,3.72,3.72,0,0,1,1.35-.72l.47-.11a45.77,45.77,0,0,1,2.75-4.38,25.26,25.26,0,0,1,1.74-2.07,11.29,11.29,0,0,1,1.65-1.47,6.45,6.45,0,0,1,3.75-1.37,1,1,0,0,1,.76.24.84.84,0,0,1,.2.81c-.08.29-.21.71-.39,1.24-1.17,3.36-1.89,5.43-2.14,6.23h.56c.82,0,1.26.09,1.32.26a1.65,1.65,0,0,1,0,.29,1.12,1.12,0,0,1-.13.49,1.08,1.08,0,0,1-.41.47,3.83,3.83,0,0,1-2,.49,26.87,26.87,0,0,0-.85,3.75,3,3,0,0,0,.07,1.4.52.52,0,0,0,.48.36,1.78,1.78,0,0,0,.51-.06,1.6,1.6,0,0,0,.35-.15l.29-.13a.38.38,0,0,1,.22-.07.23.23,0,0,1,.2.15,1,1,0,0,1,.07.41,1.24,1.24,0,0,1-.2.61,2.62,2.62,0,0,1-2.27,1.27,1.93,1.93,0,0,1-2-1.38,2.77,2.77,0,0,1-.17-.87Zm-2.2-6.44a33,33,0,0,1,3.63-.31c.2-.66.42-1.32.66-2l.68-1.85c.23-.58.46-1.13.69-1.66l.64-1.42c-1.53.42-3,1.8-4.52,4.14-.31.5-.62,1-.92,1.53Z" fill="#212121"/><path d="M148.05,188.25c.17,0,.25.09.25.27a2,2,0,0,1-.94,1.68,2.55,2.55,0,0,1-1.5.44,1.51,1.51,0,0,1-1.07-.34,2,2,0,0,1-.67-1.53,10.89,10.89,0,0,1,.91-3.49c-1.13,1.6-1.92,2.66-2.37,3.19a14.48,14.48,0,0,1-1.19,1.23,3.21,3.21,0,0,1-2,.94,1.75,1.75,0,0,1-1.81-1.23,2.65,2.65,0,0,1-.13-.87,4.23,4.23,0,0,1,.16-1.1,10.8,10.8,0,0,1,.41-1.26c.17-.44.35-.89.55-1.35l.59-1.39c.76-1.77,1-2.83.85-3.16a1.6,1.6,0,0,0-.5-.44.29.29,0,0,1-.13-.28.56.56,0,0,1,.16-.38,1.38,1.38,0,0,1,.41-.33,2.52,2.52,0,0,1,1.08-.26,2.18,2.18,0,0,1,.82.12,1.48,1.48,0,0,1,.45.3,1.22,1.22,0,0,1,.36.85,4.08,4.08,0,0,1-.14,1c-.09.38-.22.79-.37,1.24s-.32.91-.51,1.38c-.5,1.25-.84,2.07-1,2.47l-.41.89A3.61,3.61,0,0,0,140,188a.81.81,0,0,0,.1.45.43.43,0,0,0,.36.14,1.08,1.08,0,0,0,.6-.26,6.14,6.14,0,0,0,.75-.68,12.78,12.78,0,0,0,.84-1c.29-.38.58-.76.86-1.16.55-.79.95-1.42,1.21-1.89q2.32-4.34,2.48-4.53a.93.93,0,0,1,.72-.49,2.43,2.43,0,0,1,.64.08,1.41,1.41,0,0,1,.47.25q.47.36.3.72-2.68,5.87-2.89,7.38a6.52,6.52,0,0,0-.05.72c0,.58.17.87.5.87a1.5,1.5,0,0,0,.78-.18A1.17,1.17,0,0,1,148.05,188.25Z" fill="#212121"/><path d="M149.72,188.5a1.53,1.53,0,0,1,.15-.67,1.76,1.76,0,0,1,.37-.51,1.36,1.36,0,0,1,1-.45c.3,0,.44.16.44.47a1.82,1.82,0,0,0,.76,1.68,1.08,1.08,0,0,0,.57.17,1.53,1.53,0,0,0,.51-.07,1.22,1.22,0,0,0,.38-.22,1,1,0,0,0,.4-.8,1.83,1.83,0,0,0-.2-.84,7,7,0,0,0-.5-.82l-.62-.92a6,6,0,0,1-1.32-3.4,3.27,3.27,0,0,1,1-2.34,4.1,4.1,0,0,1,3.05-1.19,3.58,3.58,0,0,1,2.53.84A2,2,0,0,1,159,181a1.79,1.79,0,0,1-.66,1.45,1.39,1.39,0,0,1-1.18.36.61.61,0,0,1-.41-.28.62.62,0,0,1-.06-.52,2,2,0,0,0,.09-.6,1.32,1.32,0,0,0-.11-.57,1.29,1.29,0,0,0-.29-.45,1.13,1.13,0,0,0-.81-.38,2.29,2.29,0,0,0-.7.09,1.47,1.47,0,0,0-.48.29,1.33,1.33,0,0,0-.43,1,2.54,2.54,0,0,0,.2,1,6,6,0,0,0,.49.88c.19.29.4.59.63.89a10.18,10.18,0,0,1,.62.94,4.1,4.1,0,0,1,.7,2,2.82,2.82,0,0,1-.36,1.48,3.52,3.52,0,0,1-.91,1,4.26,4.26,0,0,1-2.68.93,3.34,3.34,0,0,1-2.24-.71A1.86,1.86,0,0,1,149.72,188.5Z" fill="#212121"/><path d="M165.57,187.5c.22,0,.32.15.32.45a1.36,1.36,0,0,1-.22.74,3.16,3.16,0,0,1-1.18,1.27,3.61,3.61,0,0,1-2,.68,2.11,2.11,0,0,1-2.24-1.66q-.56-2,1.68-8.36c-.84-.08-1.3-.23-1.37-.46a.85.85,0,0,1,0-.23.53.53,0,0,1,.1-.28,1.54,1.54,0,0,1,.27-.31,1.18,1.18,0,0,1,.78-.34h.87a11.55,11.55,0,0,1,1.69-3.32.88.88,0,0,1,.54-.18,1.17,1.17,0,0,1,.49.08,1,1,0,0,1,.35.23,1.05,1.05,0,0,1,.36.77,1.35,1.35,0,0,1-.14.53L165,179h2l.52,0c.21,0,.31.08.31.25,0,1-1.14,1.52-3.42,1.52h-.09l-.75,2a18.38,18.38,0,0,0-1.26,5,1,1,0,0,0,.17.63.81.81,0,0,0,.66.22,2.06,2.06,0,0,0,.88-.17,2.83,2.83,0,0,0,.69-.39l.52-.38A.6.6,0,0,1,165.57,187.5Z" fill="#212121"/><path d="M167.89,190.25a1.43,1.43,0,0,1-.35-.39.71.71,0,0,1-.14-.37,1,1,0,0,1,.06-.38c0-.15.11-.33.19-.54,1.49-3.86,2.24-6.46,2.24-7.78a.94.94,0,0,0-.36-.78l-.22-.17a.35.35,0,0,1-.11-.28.64.64,0,0,1,.14-.38,1.48,1.48,0,0,1,.37-.33,2.05,2.05,0,0,1,1-.26,2.31,2.31,0,0,1,.78.11,1.54,1.54,0,0,1,.47.31,1.29,1.29,0,0,1,.43.88,4.36,4.36,0,0,1-.1.94c-.07.31-.15.62-.25.92s-.19.6-.28.87a4.7,4.7,0,0,0-.19.61,1.82,1.82,0,0,0-.07.5,1,1,0,0,0,.32-.47l.43-.85a9.45,9.45,0,0,1,2.79-3.58,1.79,1.79,0,0,1,.95-.24,1.1,1.1,0,0,1,.9.41,1.47,1.47,0,0,1,.35.9,3.39,3.39,0,0,1-.06.83,2.52,2.52,0,0,1-.25.61,1,1,0,0,1-.88.65.39.39,0,0,1-.26-.1l-.24-.22a1.06,1.06,0,0,0-.7-.34,1.31,1.31,0,0,0-.81.46,9.29,9.29,0,0,0-1,1.19,22.33,22.33,0,0,0-2.83,5.4l-.49,1.34a3.21,3.21,0,0,1-.33.71.46.46,0,0,1-.42.21,1.4,1.4,0,0,1-.56-.11A1.74,1.74,0,0,1,167.89,190.25Z" fill="#212121"/><path d="M184.91,187.46c0,.71.24,1.06.71,1.06a1.79,1.79,0,0,0,.82-.16,1.23,1.23,0,0,1,.44-.16c.15,0,.23.08.23.25a2.08,2.08,0,0,1-1,1.71,2.24,2.24,0,0,1-2.13.37,1.85,1.85,0,0,1-1.06-1.15,2.37,2.37,0,0,1-.16-.81,7.11,7.11,0,0,1,.11-1.27,6.3,6.3,0,0,1-2.54,3,2.74,2.74,0,0,1-1.29.32,2.37,2.37,0,0,1-1.18-.29,2.76,2.76,0,0,1-.85-.82,4.5,4.5,0,0,1-.65-2.72,8.83,8.83,0,0,1,1.16-4,9.21,9.21,0,0,1,2.52-3,4.73,4.73,0,0,1,2.86-1.19,2.43,2.43,0,0,1,2.14,1.28c.51-.86.95-1.28,1.34-1.28a1.59,1.59,0,0,1,1,.24c.4.31.54.58.43.81q-2.76,5.93-2.84,7.38C184.92,187.16,184.91,187.3,184.91,187.46Zm-6.1,0c0,.93.28,1.39.85,1.39s1-.39,1.59-1.15a16.32,16.32,0,0,0,2.45-4.57,15.59,15.59,0,0,0,.57-1.8,1.39,1.39,0,0,0-.62-1.16,1.18,1.18,0,0,0-.59-.12,1.87,1.87,0,0,0-.91.3,4.19,4.19,0,0,0-1,.82,7.07,7.07,0,0,0-.92,1.22,10.43,10.43,0,0,0-.74,1.54A10.16,10.16,0,0,0,178.81,187.5Z" fill="#212121"/><path d="M189.15,190.07a2.29,2.29,0,0,1-.44-.77,3,3,0,0,1-.18-1.09,6.93,6.93,0,0,1,.27-1.65q.27-1,.69-2.37l.92-2.87a46.86,46.86,0,0,0,2.28-9.27c.06-.65.36-1,.9-1a1.32,1.32,0,0,1,.83.25,1.39,1.39,0,0,1,.62,1.13,10.47,10.47,0,0,1-.21,1.52c-.13.6-.29,1.24-.48,2s-.43,1.45-.68,2.23l-1.52,4.68a22.86,22.86,0,0,0-1.31,5.16c0,.42.16.62.49.62a1.86,1.86,0,0,0,.84-.2,1.48,1.48,0,0,1,.48-.21.21.21,0,0,1,.24.24,2,2,0,0,1-1,1.72,2.24,2.24,0,0,1-1.23.47,2.21,2.21,0,0,1-.89-.14A1.62,1.62,0,0,1,189.15,190.07Z" fill="#212121"/><path d="M198.58,188.37c.19,0,.28.13.28.39a1.69,1.69,0,0,1-.45,1.07,2.17,2.17,0,0,1-1.77.81,1.73,1.73,0,0,1-1.74-1.08,2.17,2.17,0,0,1-.18-.93,4.6,4.6,0,0,1,.18-1.2c.12-.44.27-.91.45-1.4s.38-1,.59-1.48l.58-1.45a7.74,7.74,0,0,0,.64-2.15,1.43,1.43,0,0,0-.11-.68.84.84,0,0,0-.22-.26l-.22-.17a.32.32,0,0,1-.11-.28.59.59,0,0,1,.15-.38,1.42,1.42,0,0,1,.39-.33,2.47,2.47,0,0,1,1.15-.26c1.08,0,1.62.29,1.62.89a6.79,6.79,0,0,1-.52,2.37c-.34.88-.64,1.6-.88,2.15l-.66,1.59a7.81,7.81,0,0,0-.72,2.53c0,.33.16.5.48.5a1.65,1.65,0,0,0,.71-.12A.87.87,0,0,1,198.58,188.37Zm2.25-12.49a2.09,2.09,0,0,1-.55.44,1.91,1.91,0,0,1-.65.21,1.08,1.08,0,0,1-.64-.11,1.43,1.43,0,0,1-.52-.43,1.8,1.8,0,0,1-.48-1.16,1.64,1.64,0,0,1,.19-.89,1.56,1.56,0,0,1,.45-.47,1.78,1.78,0,0,1,1-.36,2.71,2.71,0,0,1,.72.07,1.33,1.33,0,0,1,.48.23,1.1,1.1,0,0,1,.54.93,2.4,2.4,0,0,1-.15.91A2.23,2.23,0,0,1,200.83,175.88Z" fill="#212121"/><path d="M209.22,187.46c0,.71.24,1.06.72,1.06a1.82,1.82,0,0,0,.82-.16,1.21,1.21,0,0,1,.43-.16c.15,0,.23.08.23.25a2.08,2.08,0,0,1-1,1.71,2.23,2.23,0,0,1-2.13.37,1.81,1.81,0,0,1-1.05-1.15,2.4,2.4,0,0,1-.17-.81,8.18,8.18,0,0,1,.11-1.27,6.3,6.3,0,0,1-2.54,3,2.73,2.73,0,0,1-1.28.32,2.32,2.32,0,0,1-1.18-.29,2.68,2.68,0,0,1-.86-.82,4.5,4.5,0,0,1-.64-2.72,8.69,8.69,0,0,1,1.15-4,9.24,9.24,0,0,1,2.53-3,4.7,4.7,0,0,1,2.85-1.19,2.45,2.45,0,0,1,2.15,1.28c.5-.86.95-1.28,1.34-1.28a1.55,1.55,0,0,1,.94.24c.4.31.55.58.43.81-1.84,4-2.78,6.41-2.84,7.38C209.23,187.16,209.22,187.3,209.22,187.46Zm-6.09,0c0,.93.28,1.39.84,1.39s1-.39,1.59-1.15a16.07,16.07,0,0,0,2.45-4.57,17.9,17.9,0,0,0,.58-1.8,1.37,1.37,0,0,0-.63-1.16,1.16,1.16,0,0,0-.59-.12,1.9,1.9,0,0,0-.91.3,4.19,4.19,0,0,0-1,.82,6.57,6.57,0,0,0-.91,1.22,10.43,10.43,0,0,0-.74,1.54A9.93,9.93,0,0,0,203.13,187.5Z" fill="#212121"/><path d="M69.69,119.32l2.87-1.1V96.73l-2.87-1.1V92.9H91.36l-.62,8.92H87.27L86.7,96.3,79.56,97V105l6.53.24v3.55l-6.53.29v8.77l7.57.77.79-5.7H91.4l.19,9.11H69.69Z" fill="#212121"/><path d="M94,119.32l2.87-1.1.89-21.49-2.86-1.1V92.9h11.61l5.54,19.66h.61l5.55-19.66h11.7v2.73l-2.86,1.1.89,21.49,2.86,1.1v2.74H117.77V119l3.24-1.11-.37-15.77h-.38c-.19.86-.49,2-.89,3.52s-.77,2.76-1.08,3.81l-3.53,10.65c-.72.13-1.62.27-2.7.43l-2.42.34a3.12,3.12,0,0,1-1-.53l-3.52-10.89c-.54-1.59-1.19-4-2-7.33h-.42l-.42,15.77L105.5,119v3.07H94Z" fill="#212121"/><path d="M133.14,119.32l2.87-1.1V96.73l-2.87-1.1V92.9h21.67l-.62,8.92h-3.47l-.57-5.52L143,97V105l6.53.24v3.55l-6.53.29v8.77l7.57.77.79-5.7h3.48l.19,9.11h-21.9Z" fill="#212121"/><path d="M157.72,119.32l2.87-1.1V96.73l-2.87-1.1V92.9h15.37q3.75,0,5.66,1.87t1.91,6.23a9.88,9.88,0,0,1-1.27,5.23,7.54,7.54,0,0,1-3.43,3v.29l3.33,5.66,1.79,3,2.54,1v2.83H175l-5.13-11.8h-2.3v7.62l3,1.2v3H157.72Zm12.36-12.9a5.42,5.42,0,0,0,2-.29,2,2,0,0,0,1.1-1.22,8.08,8.08,0,0,0,.38-2.85q0-5.57-2.4-5.57l-3.57.44v9.49Z" fill="#212121"/><path d="M183.76,119.32l2.91-1,7.76-25.17c1.25-.2,2.61-.36,4.06-.51l3.13-.31a3.94,3.94,0,0,1,.94.53l7.89,25.46,2.92,1v2.74H199.88V119l3.19-.87-1.31-4.89h-8l-1.13,4.89,3.29.87v3.07H183.76Zm17-9.78L198,98.41h-.52l-2.77,11.13Z" fill="#212121"/><path d="M214.59,119.32l2.87-1.1V96.73l-2.87-1.1V92.9h13.3v2.83l-3.43,1.1v21l7,.77.94-6.28h3.48l.19,9.69H214.59Z" fill="#212121"/><path d="M237.9,119.32l2.87-1.1V96.73l-2.87-1.1V92.9h15.51a9.25,9.25,0,0,1,4.82,1.34,9.68,9.68,0,0,1,3.66,4.44,19.14,19.14,0,0,1,1.44,8q0,7.82-2.59,11.58a8.36,8.36,0,0,1-7.33,3.77H237.9Zm17.2-3.78a28.59,28.59,0,0,0,1-8.45,25.28,25.28,0,0,0-1-7.67q-1-3.12-2.7-3.12l-4.61.48v21.3l4.61.52C253.54,118.6,254.45,117.58,255.1,115.54Z" fill="#212121"/><path d="M106.64,158.8q-2.74-3.45-2.75-10.64a34.59,34.59,0,0,1,.43-5.59,22.24,22.24,0,0,1,1.08-4.29,15.14,15.14,0,0,1,2.94-2.69,28.86,28.86,0,0,1,4-2.52,7.64,7.64,0,0,1,2.92-1c.44,0,1.58.1,3.43.29s3.56.38,5.12.57l-.56,9.5h-3.48l-.66-5.56a20.37,20.37,0,0,0-2.51-.51,17.61,17.61,0,0,0-2.33-.21,2.65,2.65,0,0,0-1.27.24c-.53.32-1,1.44-1.29,3.35a43.27,43.27,0,0,0-.49,7.15q0,6,1.38,8.37a4.49,4.49,0,0,0,4.12,2.37h2.44l.85-5.94h3.38l.19,9.4c-1,.22-2.61.48-4.91.76s-3.69.44-4.16.44A9.5,9.5,0,0,1,106.64,158.8Z" fill="#212121"/><path d="M130.34,158.83Q127,155.39,127,148.06a33.74,33.74,0,0,1,.42-5.54,22.23,22.23,0,0,1,1.08-4.24,15.76,15.76,0,0,1,2.94-2.69,28.37,28.37,0,0,1,4-2.52,7.66,7.66,0,0,1,2.91-1q6.87,0,10.2,3.43t3.34,10.86a34,34,0,0,1-1.41,10,16.18,16.18,0,0,1-3,2.52,34.69,34.69,0,0,1-4.09,2.42,7.83,7.83,0,0,1-2.91,1Q133.68,162.26,130.34,158.83Zm11.79-1a8.7,8.7,0,0,0,1.7-.79,58.14,58.14,0,0,0,.7-9.88c0-3.9-.38-6.77-1.13-8.59a4.25,4.25,0,0,0-4.32-2.73,7.08,7.08,0,0,0-3,.43c-.54.29-1,1.41-1.29,3.38a45.58,45.58,0,0,0-.5,7.36,33.61,33.61,0,0,0,.54,6.86,6.2,6.2,0,0,0,1.79,3.5,5.23,5.23,0,0,0,3.5,1.06A7.2,7.2,0,0,0,142.13,157.87Z" fill="#212121"/><path d="M152.24,159l2.91-1,7.76-25.17c1.25-.2,2.61-.36,4.06-.51l3.13-.31a3.74,3.74,0,0,1,.94.53l7.9,25.46,2.91,1v2.74H168.36v-3.07l3.2-.86-1.32-4.9h-8l-1.13,4.9,3.29.86v3.07H152.24Zm17-9.78-2.77-11.13H166l-2.77,11.13Z" fill="#212121"/><path d="M185.42,161.78l-2.4-.2.33-9.2h3.53l.89,5a54.35,54.35,0,0,0,6.39.77c.16,0,.41-.31.75-.94a3.56,3.56,0,0,0,.52-1.75,3.87,3.87,0,0,0-1.27-2.83A23.35,23.35,0,0,0,190.4,150a43.09,43.09,0,0,1-3.71-2.47,9.7,9.7,0,0,1-2.42-2.76,7.42,7.42,0,0,1-1-3.93,12.52,12.52,0,0,1,.23-2.4,9.65,9.65,0,0,1,2.33-2.61,26.83,26.83,0,0,1,3.64-2.64,6.48,6.48,0,0,1,2.78-1.13c.53,0,1.77.1,3.71.31s3.76.44,5.45.7l-.38,8.58H197.5l-.66-4.6a51.69,51.69,0,0,0-6.06-.86c-.28,0-.52.24-.71.71a5.44,5.44,0,0,0-.28,1.88,4.32,4.32,0,0,0,1.15,3,14.84,14.84,0,0,0,3.32,2.57l1,.57q2.31,1.4,3.69,2.43a9.16,9.16,0,0,1,2.35,2.56,6.58,6.58,0,0,1,1,3.6,10.07,10.07,0,0,1-.29,2.44,9.45,9.45,0,0,1-2.37,2.79,21.73,21.73,0,0,1-3.52,2.51,6.41,6.41,0,0,1-2.85,1Q190.88,162.26,185.42,161.78Z" fill="#212121"/><path d="M209.33,159l3.52-1.1V136.36l-4.14.38-.56,5.66h-3.48l-.61-9.83h24.63l-.61,9.83H224.6l-.56-5.66-4.14-.38V157.8l3.62,1v2.88H209.33Z" fill="#212121"/></g></g><g id="frame"><rect width="300" height="300" fill="none"/></g></svg>