<!-- Copyright (c) 2023 Jan Stehno -->
<svg xmlns="http://www.w3.org/2000/svg" viewBox="0 0 300 300">
    <title>hirschfeldenhuntingreserve</title>
    <g id="hirschfeldenhuntingreserve">
        <g id="inner_border">
            <path
                d="M150,14.72a3.58,3.58,0,0,1,2.11.7l115.65,85.65a6,6,0,0,1,2.42,4.8v47.37H29.82V105.87a6,6,0,0,1,2.42-4.8L147.89,15.42a3.58,3.58,0,0,1,2.11-.7m0-2a5.51,5.51,0,0,0-3.3,1.09L31.05,99.46a8,8,0,0,0-3.23,6.41v49.37H272.18V105.87A8,8,0,0,0,269,99.46L153.3,13.81a5.51,5.51,0,0,0-3.3-1.09Z"
                transform="translate(0 0)" fill="#212121" />
            <path
                d="M218.47,235.44h0m0,0-66.36,49.14a3.53,3.53,0,0,1-4.22,0L81.53,235.44H218.47m6.06-2H75.47l4.87,3.6,66.36,49.15a5.54,5.54,0,0,0,6.6,0L219.66,237l4.87-3.6Zm-6.06,0h0Zm0,4Z"
                transform="translate(0 0)" fill="#212121" />
        </g>
        <g id="outter_border">
            <path
                d="M150,4a3.9,3.9,0,0,1,2.3.75L277,96.38a6.78,6.78,0,0,1,2.76,5.46v51.4H20.22v-51.4A6.78,6.78,0,0,1,23,96.38L147.7,4.75A3.9,3.9,0,0,1,150,4m0-4a7.81,7.81,0,0,0-4.66,1.53L20.61,93.15a10.82,10.82,0,0,0-4.39,8.69v55.4H283.78v-55.4a10.82,10.82,0,0,0-4.39-8.69L154.66,1.53A7.81,7.81,0,0,0,150,0Z"
                transform="translate(0 0)" fill="#212121" />
            <path
                d="M233.71,235.44h0m0,0L152.3,295.25a3.9,3.9,0,0,1-4.6,0L66.29,235.44H233.71m12.2-4H54.09l9.83,7.22,81.42,59.81a7.86,7.86,0,0,0,9.32,0l81.42-59.81,9.83-7.22Zm-12.19,0Zm0,8h0Z"
                transform="translate(0 0)" fill="#212121" />
        </g>
        <g id="subtitle">
            <path
                d="M135.92,270.19h5.27v.68h-5.94V268a4.29,4.29,0,0,1,.24-1.48,4.75,4.75,0,0,1,.65-1.17,6.82,6.82,0,0,1,.9-1c.34-.3.68-.58,1-.86s.62-.5.92-.75a6,6,0,0,0,.78-.81,4.17,4.17,0,0,0,.54-.94,3,3,0,0,0,.21-1.16,2.06,2.06,0,0,0-.19-.89,2.33,2.33,0,0,0-1.21-1.21,2,2,0,0,0-.88-.19,2.11,2.11,0,0,0-.9.19,2.46,2.46,0,0,0-.73.49,2.55,2.55,0,0,0-.49.72,2.17,2.17,0,0,0-.19.88h-.67a3,3,0,0,1,.23-1.16,3.07,3.07,0,0,1,.64-.94,3,3,0,0,1,.95-.62,2.83,2.83,0,0,1,1.16-.23,2.78,2.78,0,0,1,1.15.23,3.15,3.15,0,0,1,.93.64,3.07,3.07,0,0,1,.64.94,2.87,2.87,0,0,1,.24,1.16,3.66,3.66,0,0,1-.24,1.38,4.34,4.34,0,0,1-.62,1.09,6.75,6.75,0,0,1-.86.92c-.32.28-.65.55-1,.81s-.64.52-1,.79a6,6,0,0,0-.82.86,4,4,0,0,0-.58,1,3.52,3.52,0,0,0-.22,1.25Z"
                transform="translate(0 0)" fill="#212121" />
            <path
                d="M145.6,271a3,3,0,0,1-1.16-.23,3,3,0,0,1-.94-.64,3,3,0,0,1-.64-1,2.83,2.83,0,0,1-.24-1.16v-8.12a2.87,2.87,0,0,1,.24-1.16,3.07,3.07,0,0,1,.64-.94,3,3,0,0,1,.94-.64,2.83,2.83,0,0,1,1.16-.23,2.75,2.75,0,0,1,1.15.23,3,3,0,0,1,1.58,1.58,3,3,0,0,1,.23,1.16V268a3,3,0,0,1-.87,2.11,3.07,3.07,0,0,1-.94.64A2.91,2.91,0,0,1,145.6,271Zm0-13.4a2.09,2.09,0,0,0-.89.19,2.3,2.3,0,0,0-1.22,1.21,2.06,2.06,0,0,0-.19.89V268a2.09,2.09,0,0,0,.19.89,2.18,2.18,0,0,0,.49.73,2.21,2.21,0,0,0,.73.5,2.25,2.25,0,0,0,.89.18,2.21,2.21,0,0,0,.89-.18,2.39,2.39,0,0,0,.72-.5,2.34,2.34,0,0,0,.49-.73,2.25,2.25,0,0,0,.18-.89v-8.13a2.21,2.21,0,0,0-.18-.89,2.33,2.33,0,0,0-1.21-1.21A2.06,2.06,0,0,0,145.6,257.57Z"
                transform="translate(0 0)" fill="#212121" />
            <path
                d="M153,271a3,3,0,0,1-1.16-.23,3.12,3.12,0,0,1-.95-.64,3,3,0,0,1-.63-1A2.83,2.83,0,0,1,150,268v-8.12a2.87,2.87,0,0,1,.24-1.16,3,3,0,0,1,.63-.94,3.12,3.12,0,0,1,.95-.64,2.83,2.83,0,0,1,1.16-.23,2.78,2.78,0,0,1,1.15.23,3.07,3.07,0,0,1,.94.64,3.23,3.23,0,0,1,.63.94,2.87,2.87,0,0,1,.24,1.16V268a2.83,2.83,0,0,1-.24,1.16,3.15,3.15,0,0,1-.63,1,3.07,3.07,0,0,1-.94.64A3,3,0,0,1,153,271Zm0-13.4a2.06,2.06,0,0,0-.89.19,2.23,2.23,0,0,0-.73.49,2.58,2.58,0,0,0-.5.72,2.21,2.21,0,0,0-.18.89V268a2.25,2.25,0,0,0,.18.89,2.37,2.37,0,0,0,.5.73,2.11,2.11,0,0,0,.73.5,2.21,2.21,0,0,0,.89.18,2.2,2.2,0,0,0,1.6-.68,2.37,2.37,0,0,0,.5-.73,2.25,2.25,0,0,0,.18-.89v-8.13a2.21,2.21,0,0,0-.18-.89,2.58,2.58,0,0,0-.5-.72,2.29,2.29,0,0,0-.72-.49A2,2,0,0,0,153,257.57Z"
                transform="translate(0 0)" fill="#212121" />
            <path
                d="M162.88,262.88a3,3,0,0,1-1.15,1.08,2.89,2.89,0,0,1,1.15,1.07,2.93,2.93,0,0,1,.44,1.57V268a2.83,2.83,0,0,1-.24,1.16,3,3,0,0,1-1.57,1.59,3,3,0,0,1-1.15.23,3,3,0,0,1-3-3h.68a2.21,2.21,0,0,0,.18.89,2.39,2.39,0,0,0,.49.74,2.46,2.46,0,0,0,.73.49,2.26,2.26,0,0,0,.9.18,2.16,2.16,0,0,0,.88-.18,2.55,2.55,0,0,0,.72-.49,2.39,2.39,0,0,0,.49-.74,2.06,2.06,0,0,0,.19-.89V266.6a2.11,2.11,0,0,0-.19-.9A2.46,2.46,0,0,0,162,265a2.55,2.55,0,0,0-.72-.49,2,2,0,0,0-.88-.19h-.74v-.68h.74a2.16,2.16,0,0,0,.88-.18,2.39,2.39,0,0,0,.72-.5,2.34,2.34,0,0,0,.49-.73,2.09,2.09,0,0,0,.19-.89v-1.43a2.09,2.09,0,0,0-.19-.89,2.39,2.39,0,0,0-.49-.74,2.55,2.55,0,0,0-.72-.49,2,2,0,0,0-.88-.19,2.11,2.11,0,0,0-.9.19,2.28,2.28,0,0,0-1.22,1.22,2.25,2.25,0,0,0-.18.89h-.68a3,3,0,0,1,.23-1.16,3.12,3.12,0,0,1,.64-.95,3,3,0,0,1,2.11-.86,2.78,2.78,0,0,1,1.15.23,3.09,3.09,0,0,1,1.57,1.61,2.83,2.83,0,0,1,.24,1.16v1.41A2.93,2.93,0,0,1,162.88,262.88Z"
                transform="translate(0 0)" fill="#212121" />
            <path d="M133.79,251.89h-2.32V239.25h2.3v1H132.1V245h1.52v1H132.1v4.93h1.69Z"
                transform="translate(0 0)" fill="#212121" />
            <path
                d="M137.53,251a1.32,1.32,0,0,1-.14.64.4.4,0,0,1-.36.25h-1.78a.4.4,0,0,1-.36-.25,1.22,1.22,0,0,1-.14-.64v-3.21h.62v3.11h1.53v-3l-2-4.22a2.17,2.17,0,0,1-.2-1v-2.56a1.25,1.25,0,0,1,.14-.65.4.4,0,0,1,.36-.25H137a.4.4,0,0,1,.36.25,1.36,1.36,0,0,1,.14.65v2.94h-.63v-2.85h-1.53v2.67l2,4.22a2.2,2.2,0,0,1,.2.94Z"
                transform="translate(0 0)" fill="#212121" />
            <path d="M141.07,240.24H140v11.65h-.63V240.24h-1.1v-1h2.82Z" transform="translate(0 0)"
                fill="#212121" />
            <path
                d="M144.66,251.89H144l-.24-2.81h-1.41l-.25,2.81h-.6v0l1.26-12.64h.62Zm-1-3.8-.62-6.85-.62,6.85Z"
                transform="translate(0 0)" fill="#212121" />
            <path
                d="M148.34,251a1.32,1.32,0,0,1-.14.64.42.42,0,0,1-.37.25h-2.32V239.25h2.31a.42.42,0,0,1,.36.25,1.36,1.36,0,0,1,.14.65v3.75a1.4,1.4,0,0,1-.25.84l-.5.54.53.61a1.15,1.15,0,0,1,.24.81Zm-.65-6.95v-3.81h-1.56v4.57h.93Zm0,6.85v-4.37l-.63-.74h-.94v5.11Z"
                transform="translate(0 0)" fill="#212121" />
            <path d="M151.69,251.89h-2.26V239.25h.63V250.9h1.63Z" transform="translate(0 0)"
                fill="#212121" />
            <path d="M153.21,251.89h-.63V239.25h.63Z" transform="translate(0 0)" fill="#212121" />
            <path
                d="M157.14,251a1.32,1.32,0,0,1-.13.64.4.4,0,0,1-.36.25h-1.78a.4.4,0,0,1-.36-.25,1.21,1.21,0,0,1-.15-.64v-3.21H155v3.11h1.53v-3l-2-4.22a2.18,2.18,0,0,1-.21-1v-2.56a1.25,1.25,0,0,1,.15-.65.4.4,0,0,1,.36-.25h1.78a.4.4,0,0,1,.36.25,1.37,1.37,0,0,1,.13.65v2.94h-.62v-2.85H155v2.67l2,4.22a2.19,2.19,0,0,1,.19.94Z"
                transform="translate(0 0)" fill="#212121" />
            <path d="M161.21,251.89h-.63v-6.07h-1.7v6.07h-.63V239.25h.63v5.56h1.7v-5.56h.63Z"
                transform="translate(0 0)" fill="#212121" />
            <path d="M164.66,251.89h-2.32V239.25h2.29v1H163V245h1.52v1H163v4.93h1.69Z"
                transform="translate(0 0)" fill="#212121" />
            <path
                d="M168.55,249.61a3.35,3.35,0,0,1-.36,1.64,1.08,1.08,0,0,1-.93.64h-1.62V239.25h1.62a1.08,1.08,0,0,1,.93.64,3.36,3.36,0,0,1,.36,1.65Zm-.62-.12v-7.86a2.06,2.06,0,0,0-.22-1,.66.66,0,0,0-.57-.39h-.87V250.9h.83a.68.68,0,0,0,.6-.38A2,2,0,0,0,167.93,249.49Z"
                transform="translate(0 0)" fill="#212121" />
        </g>
        <g id="title">
            <path
                d="M4,153.24v82.2H296v-82.2Zm242.67,40,2.46-.76V161.62l-2.46-.75v-3.42h5.42l10.54,30.24.09-.05v-26l-2.46-.75v-3.42h7.87v3.42l-2.45.75v35h-3l-10.54-30.27-.09.05v26.07l2.45.76v3.39h-7.87Zm-19.65,0,2.45-.76V161.62l-2.45-.75v-3.42h16.82v9.42H241.3l-.24-5.25h-8.62v12.69h8.38v4.17h-8.38v14h8.8l.24-5.25H244v9.4H227Zm-59.06,0,2.46-.76V161.62l-2.46-.75v-3.42h16.83v9.42h-2.55l-.24-5.25h-8.62v12.69h8.38v4.17h-8.38v14h8.8l.24-5.25H185v9.4H168Zm-112.32,0,2.46-.76V161.62l-2.46-.75v-3.42h7.88v3.42l-2.46.75v30.89l2.46.76v3.39H55.64Zm-23.65,0,2.45-.76V161.62L32,160.87v-3.42h7.87v3.42l-2.46.75v13.55H48V161.62l-2.45-.75v-3.42h7.87v3.42l-2.46.75v30.89l2.46.76v3.39H45.58v-3.39l2.45-.76V179.34H37.4v13.17l2.46.76v3.39H32Zm47.22,22.79H26.13v-2.34H79.21Zm5.19-19.4H82.81c-1.15,0-2-.72-2.46-2.15a16.33,16.33,0,0,1-.73-5.23v-3a11,11,0,0,0-1-5.15,3.12,3.12,0,0,0-2.78-1.94H71v13.36l2.45.76v3.39H65.62v-3.39l2.46-.76V161.62l-2.46-.75v-3.39h9.62a6.19,6.19,0,0,1,5.49,2.84c1.28,1.89,1.91,4.58,1.91,8.06a13.57,13.57,0,0,1-.88,5.07,8,8,0,0,1-2.55,3.47,5.89,5.89,0,0,1,2.58,3.42,18.57,18.57,0,0,1,.79,5.84v3.15a10.11,10.11,0,0,0,.26,2.67q.25.87.84,1l.72.17Zm9.39,31.89H91.36V217H88.09v11.56H85.68V202.77h2.41V213.4h3.27V202.77h2.43Zm-3.36-32.81a11.22,11.22,0,0,1-3.2-3.87v-7.3h2.23L90,190.2a7.92,7.92,0,0,0,2,2.07,4.92,4.92,0,0,0,2.84.81,4.24,4.24,0,0,0,3.55-1.7,7.35,7.35,0,0,0,1.3-4.6,7.33,7.33,0,0,0-5.12-7.57,12.16,12.16,0,0,1-5.43-4.36,12.69,12.69,0,0,1-2-7.25,12.82,12.82,0,0,1,2.19-7.66,6.66,6.66,0,0,1,5.67-3.06,6.78,6.78,0,0,1,4.19,1.42,10.93,10.93,0,0,1,3,3.43V169H100.1l-.55-5.6a5.57,5.57,0,0,0-1.81-1.7,5,5,0,0,0-2.62-.67,4.18,4.18,0,0,0-3.63,1.79,7.94,7.94,0,0,0-1.26,4.67,6.88,6.88,0,0,0,1.29,4.27,10.33,10.33,0,0,0,4.16,3,11.28,11.28,0,0,1,5.26,4.53,14.11,14.11,0,0,1,1.8,7.4,12.39,12.39,0,0,1-2.16,7.62,6.74,6.74,0,0,1-5.66,2.89A7.26,7.26,0,0,1,90.43,195.74Zm13.34,30.46c0,1.57-.5,2.35-1.49,2.35H97.16c-1,0-1.46-.78-1.46-2.35V202.77h2.41v22.47h3.24V202.77h2.42Zm10.1,2.35h-2.11l-3.87-16.22a14.17,14.17,0,0,1,.16,1.86v14.36H105.7V202.77h2.11l3.86,15.9a15.75,15.75,0,0,1-.15-1.86v-14h2.35Zm-5.88-37q-2.74-5.65-2.74-14.22v-.57q0-8.61,2.69-14.26t7.06-5.64a6.32,6.32,0,0,1,4.4,1.74,11.59,11.59,0,0,1,2.84,3.89v7h-2.09l-.56-5.55a6.81,6.81,0,0,0-1.77-2.08,4.08,4.08,0,0,0-2.52-.8c-2.28,0-4,1.47-5.25,4.43a29.64,29.64,0,0,0-1.84,11.24v.62a30.34,30.34,0,0,0,1.8,11.27q1.8,4.45,5,4.46a4.67,4.67,0,0,0,2.71-.84,5.89,5.89,0,0,0,1.88-2l.56-5.55h2.09v7a11.25,11.25,0,0,1-2.84,3.9,6.38,6.38,0,0,1-4.4,1.71Q110.73,197.23,108,191.57Zm14.81,14.61h-2.65v22.37h-2.4V206.18h-2.66v-3.41h7.71Zm3.68,22.37h-2.41V202.77h2.41Zm10.14,0h-2.11l-3.86-16.22a16.17,16.17,0,0,1,.16,1.86v14.36h-2.35V202.77h2.11l3.86,15.9a15.75,15.75,0,0,1-.15-1.86v-14h2.34Zm9.91-17.9h-2.42v-4.57H141v19.16h3.14V218h-1.79v-3.28h4.21V226.2c0,1.57-.49,2.35-1.47,2.35H140c-1,0-1.43-.78-1.43-2.35V205.14c0-1.58.49-2.37,1.46-2.37h5q1.47,0,1.47,2.37Zm.06-49.78-2.45.75v30.89l2.45.76v3.39h-7.87v-3.39l2.45-.76V179.34H130.55v13.17l2.45.76v3.39h-7.87v-3.39l2.45-.76V161.62l-2.45-.75v-3.42H133v3.42l-2.45.75v13.55h10.62V161.62l-2.45-.75v-3.42h7.87Zm2.21,32.4,2.46-.76V161.62l-2.46-.75v-3.42h16.93v9.42h-2.52l-.24-5.25h-8.75v13.52h8.47v4.18h-8.47v13.19l2.45.76v3.39H148.8Zm9.74,35.28-2.66-12v-2.33h2.37v-8.17h-3v22.47H152.8V202.77h6.39c1,0,1.46.79,1.46,2.37v9.38c0,1.08-.23,1.79-.69,2.11a3.33,3.33,0,0,1-1.57.24l2.66,11.68Zm10.66,0h-6.68V202.77h6.62v3.41h-4.21v7.53h3.63v3.34h-3.63v8.09h4.27Zm9.37-17.67h-2.4V206h-2.95v4.66l4.83,7.28a3.74,3.74,0,0,1,.52,2.09v6.15c0,1.57-.48,2.35-1.46,2.35h-4.85c-1,0-1.45-.78-1.45-2.35v-6.15h2.41v5.26h2.95v-5.06l-4.83-7.31a3.73,3.73,0,0,1-.53-2.06v-5.74c0-1.58.49-2.37,1.45-2.37h4.85c1,0,1.46.78,1.46,2.34Zm8.6,17.67h-6.68V202.77h6.62v3.41H182.9v7.53h3.63v3.34H182.9v8.09h4.27Zm.45-35.28,2.45-.76V161.62l-2.45-.75v-3.42h7.87v3.42l-2.45.75v30.89h7.61l.23-4.5h2.52v8.65H187.62Zm6.94,35.28-2.66-12v-2.33h2.37v-8.17h-3v22.47h-2.41V202.77h6.4c1,0,1.45.79,1.45,2.37v9.38c0,1.08-.23,1.79-.69,2.11a3.33,3.33,0,0,1-1.57.24l2.66,11.68Zm8.91,0h-2.4L198,202.77h2.42l1.8,17.68c0,.5,0,1.24.06,2.21,0-.51,0-1.25.06-2.21l1.81-17.68h2.41Zm11.14,0h-6.69V202.77h6.62v3.41h-4.21v7.53H214v3.34h-3.63v8.09h4.28Zm.23-31.89h-9.18v-3.39l2.45-.76V161.62l-2.45-.75v-3.42h9.18q4.29,0,6.9,4.72t2.61,12.22v5.36q0,7.51-2.61,12.21T214.84,196.66Zm59,19.4H220.79v-2.34h53.08Z"
                transform="translate(0 0)" fill="#212121" />
            <path
                d="M78.59,163.43a3.62,3.62,0,0,0-3.35-1.81H71V175h3.9a4,4,0,0,0,3.61-1.7,9,9,0,0,0,1.13-4.95A9.39,9.39,0,0,0,78.59,163.43Z"
                transform="translate(0 0)" fill="#212121" />
            <path
                d="M214.84,161.62h-3.76v30.89h3.76q3,0,4.8-3.58a21,21,0,0,0,1.75-9.18v-5.42a20.93,20.93,0,0,0-1.75-9.13C218.47,162.82,216.87,161.62,214.84,161.62Z"
                transform="translate(0 0)" fill="#212121" />
        </g>
        <g id="lines">
            <path
                d="M212.39,114.76C204.2,126.2,190,150.16,190,150.16s21.44-28.83,24.68-33.5,20.45-31.58,20.45-31.58S221.44,102.13,212.39,114.76Z"
                transform="translate(0 0)" fill="#212121" />
            <path
                d="M226.63,128.75c-6.21,6.7-16.91,21.29-16.91,21.29S226,133.3,228.44,130.55s15.48-18.91,15.48-18.91S233.49,121.35,226.63,128.75Z"
                transform="translate(0 0)" fill="#212121" />
            <path
                d="M236.08,140.85a132.17,132.17,0,0,0-9.06,11s9-8.36,10.31-9.76,8.34-9.75,8.34-9.75S239.84,137.11,236.08,140.85Z"
                transform="translate(0 0)" fill="#212121" />
            <path
                d="M159.07,139.06a91.81,91.81,0,0,0-1.1,11.88s2.56-9.94,2.85-11.53,1.23-10.64,1.23-10.64S160,134.73,159.07,139.06Z"
                transform="translate(0 0)" fill="#212121" />
            <path
                d="M249.82,142.62a86.25,86.25,0,0,0-7.26,9s7.43-6.66,8.52-7.79,6.72-8,6.72-8S252.91,139.62,249.82,142.62Z"
                transform="translate(0 0)" fill="#212121" />
            <path
                d="M204.32,77.29a86.25,86.25,0,0,0-5.26,10.35s5.91-8,6.75-9.37,4.94-9.17,4.94-9.17S206.73,73.73,204.32,77.29Z"
                transform="translate(0 0)" fill="#212121" />
            <path
                d="M263.75,144.18a24.63,24.63,0,0,0-4.11,4.58s4.6-2.71,5.26-3.22,3.86-3.94,3.86-3.94A32.68,32.68,0,0,0,263.75,144.18Z"
                transform="translate(0 0)" fill="#212121" />
            <path
                d="M60.43,140a131.74,131.74,0,0,1,9.06,11s-9-8.37-10.31-9.77-8.34-9.75-8.34-9.75S56.67,136.22,60.43,140Z"
                transform="translate(0 0)" fill="#212121" />
            <path
                d="M49,142.27a86.25,86.25,0,0,1,7.26,9s-7.43-6.66-8.52-7.79-6.72-8-6.72-8S45.92,139.27,49,142.27Z"
                transform="translate(0 0)" fill="#212121" />
            <path
                d="M56.27,113s7.79,11.37,13.91,19c.48.6,1,1.24,1.59,1.91a13.11,13.11,0,0,1,.4-3.5C69.75,127.49,56.27,113,56.27,113Z"
                transform="translate(0 0)" fill="#212121" />
            <path
                d="M110.28,150.46s-7-9.74-13.7-18.86c-.35.46-.85,1.13-1.22,1.67C103.13,142.36,110.28,150.46,110.28,150.46Z"
                transform="translate(0 0)" fill="#212121" />
            <path
                d="M84.19,115c-5.75-6.91-23.45-27.22-23.45-27.22s9.05,13.46,18.53,25.94c1,1.38,2.72,3.36,2.72,3.36A23.61,23.61,0,0,1,84.19,115Z"
                transform="translate(0 0)" fill="#212121" />
            <path
                d="M111.42,49.86s3.33,17.29,7.24,34.37l3.73,0C117.87,69.83,111.42,49.86,111.42,49.86Z"
                transform="translate(0 0)" fill="#212121" />
            <path
                d="M132.84,123.32l-3.07.05c4.83,14.42,9.7,27.72,9.7,27.72S136.16,137.12,132.84,123.32Z"
                transform="translate(0 0)" fill="#212121" />
            <path
                d="M111.86,122.07c7.24,13.49,14.8,26.9,14.8,26.9s-6.2-14.12-11.64-26.33l-.44,0C113.82,122.48,112.7,122.25,111.86,122.07Z"
                transform="translate(0 0)" fill="#212121" />
            <path d="M87,68.44s2.76,6.92,6.69,16.07l2.15-.08C91.19,76,87,68.44,87,68.44Z"
                transform="translate(0 0)" fill="#212121" />
            <path
                d="M88.22,151.09S82.78,144,78.18,138L78,140.71C83.13,146.11,88.22,151.09,88.22,151.09Z"
                transform="translate(0 0)" fill="#212121" />
            <path
                d="M169.53,152l4.31-8c-.16-.6-.34-1.17-.46-1.55C171.16,147.85,169.53,152,169.53,152Z"
                transform="translate(0 0)" fill="#212121" />
            <path
                d="M195.17,99.85s-8.26,13.8-13.47,23.94c-1.56,3-3.43,7.17-5.22,11.32l1,2.2c2.9-5.42,5.68-10.63,6.47-12.24C185.75,121.33,195.17,99.85,195.17,99.85Z"
                transform="translate(0 0)" fill="#212121" />
            <path
                d="M147.7,52.2h0c.14,11.35,1.27,26.42,1.27,26.42s.84-14,1.36-23.77C149.18,53.86,148.54,53,147.7,52.2Z"
                transform="translate(0 0)" fill="#212121" />
            <path
                d="M148.1,38.56c.48,1.1.71,3.71,1.12,5.08a6.66,6.66,0,0,0,1.45,2.93,2.81,2.81,0,0,1,0-.3c0-1.14,0-3.64-.08-6.72a15.26,15.26,0,0,1-2.46-1.61C148.13,38.14,148.11,38.35,148.1,38.56Z"
                transform="translate(0 0)" fill="#212121" />
            <path
                d="M150.26,26.14c0-1.67-.09-3.23-.13-4.57C150.06,18.82,150,17,150,17s-.16,1.45-.39,3.8c-.08.77-.16,1.64-.26,2.59-.21,2.23-.45,4.89-.69,7.73a11.83,11.83,0,0,0,1.79,2C150.39,30.78,150.32,28.36,150.26,26.14Z"
                transform="translate(0 0)" fill="#212121" />
            <path
                d="M36.25,144.18a24.63,24.63,0,0,1,4.11,4.58s-4.6-2.71-5.26-3.22-3.86-3.94-3.86-3.94A32.68,32.68,0,0,1,36.25,144.18Z"
                transform="translate(0 0)" fill="#212121" />
        </g>
        <g id="deer">
            <path
                d="M145.27,150c.27-1.76.94-7.1,1.37-8.92s1.2-7.37,1.74-9.47,3-5.82,3.12-8.49c0-.49-1.37-.35-1.7-.28s-.81,1.34-1.42,1.41-.53-1.34-1.07-1.41-3.39-.08-3.93.8.4,9.87.4,12.3A72.24,72.24,0,0,1,142.56,147c-.54,2.16-1.84,6.21-1.84,6.21h4.43A8.73,8.73,0,0,1,145.27,150Z"
                transform="translate(0 0)" fill="#212121" />
            <path
                d="M88.69,123c0-1.55-2.36-7.3-3.31-7.3s-3.45,3.45-5.27,4.53-6,2-6.76,3-.2,3.32.07,4a11.06,11.06,0,0,1,1,2.23c.14.81-.94.88-1.28,1.35s-.61,15.89-1,17.78-2.75,2.57-2.61,4.66h4.19c-.48-.6.54-1.35,1.82-2.7s1.63-15.95,2-17.71,2.84-4.26,5.61-5.34S88.69,124.52,88.69,123Z"
                transform="translate(0 0)" fill="#212121" />
            <path
                d="M200.83,69.29c-.59-.21-1.22,1.15-1.69,1s-.34-1-.41-1.62-4.19-1.63-9.8-4-7.3-4.46-6.62-6.22,5.95-5.81,7.7-10.41a18.88,18.88,0,0,1-6.71,5.16c1.35-3,2.12-4.42,1.8-8.58-.83,2.09-2.68,8.53-5.09,7.48-1.47-.65-2.88-4.74-3.11-7.12s-.37-3.79-.63-5.77-2-4.08-4.87-6.18a13.32,13.32,0,0,1,3.07,7.39c.09,2.26-2.93,6-5.18,6s-5.6-6.24-6.41-8.05S162,35,161.2,31.71s-1.44-4.89-5.16-8.78c1.19,1.57,3.24,7.61,3.2,12.66A89.06,89.06,0,0,1,151,24.91c1.38,4.37,3.3,6.8,3.61,11.7-5.24-1.89-6.49-3.92-9.56-9.54.17,1.25,1,3.59.79,4.15s-2.38-1.61-4.25-4c-.23,4.12,4.72,7.87,7.7,10.22s8.83,3.51,11.9,6.48,2.25,8.39,1.89,9.38-.9,1.17-3.88,1.17-8.23-5.67-9.84-7.89c-.9-1.24-1.24-2.63-1.78-5.79s-2-4.95-5.28-6.4c2.87,3.18,3.11,7.19,3.2,9.17s-1.89,1-4,.36-3.39-7.27-7.3-11.44c1.14,2.38,2.34,7.75,1.44,8.83-2.53-2-5.27-6.62-6-8.83A17.09,17.09,0,0,0,135,44.1c3.33,3.16,5.86,3,10,4.87s3.79,3.79,9,7.39,8,2,10,3.52,1.8,5.85,3.42,7.21,4.15,0,4.15,1.26-2.16.63-3.7,1.35-6.48,10.68-8,12.44-18.66,1.21-23.25,2.43-32.31.41-44.07,1.08S75.92,95.25,75.78,97s1.49,5.81,3.11,5,1-5,2.27-5,.44,6.62,2.83,12.16,6,9.74,6,14.33-4.46,8.52-4.46,10.68,4.41,16.27,5.54,19.06h3.68c-.44-2.56-2.19-13.65-1.92-16.76s3.51-5.68,6.67-10.95,5.16-10.59,7.9-11.17a6.29,6.29,0,0,0-1.6,4.28c.07.91,4.6,2.3,11.22,3.24s29.93.09,30.29-.63-1.9-3.69-3.2-4.55c3.11.56,4.55,3.2,6,4.46s6.85,2.88,12,5.77,7.84,7.21,10.63,11.62,3,9.38,3.07,14.69H180a29.52,29.52,0,0,0-.27-7c-.18-2.07-7.12-16.85-8.2-19.73s-9.73-8-10.64-9.89-1.05-4,.28-5.61c-.23,2.34.63,3.08,1.71,4.68,1.53-.63,14.16-10.42,15.41-10.83,1.62-.55,1.35.87.88,2.86,1.7-1.83,2.41-4.24,3.06-4.4.37-.09.54,1.31-.29,3.72a28.13,28.13,0,0,0,3.87-5.54c.44-1.12,1-11.29,1-13s-2.17-7.5-1.22-8,1.56,2.16,2.3,4.12c2.1-2.76,4.46-6.76,5.88-7.91s5.41-1.76,6.38-4C201.22,70.19,201.47,69.53,200.83,69.29Z"
                transform="translate(0 0)" fill="#212121" />
        </g>
    </g>
    <g id="frame">
        <rect width="300" height="300" fill="none" />
    </g>
</svg>