<svg xmlns="http://www.w3.org/2000/svg" viewBox="0 0 30 30"><path d="M15,1.47a.4.4,0,0,1,.21.07l11.57,8.57a.6.6,0,0,1,.24.48v4.73H3V10.59a.6.6,0,0,1,.24-.48L14.79,1.54A.4.4,0,0,1,15,1.47m0-.2a.57.57,0,0,0-.33.11L3.1,10a.79.79,0,0,0-.32.64v4.93H27.22V10.59A.79.79,0,0,0,26.9,10L15.33,1.38A.57.57,0,0,0,15,1.27Z" transform="translate(0 0)" fill="#212121"/><path d="M21.85,23.54h0m0,0-6.64,4.92a.35.35,0,0,1-.42,0L8.15,23.54h13.7m.6-.2H7.55L8,23.7l6.64,4.92a.55.55,0,0,0,.66,0L22,23.7l.48-.36Zm-.6,0h0Zm0,.4Z" transform="translate(0 0)" fill="#212121"/><path d="M15,.4a.4.4,0,0,1,.23.08L27.7,9.64a.66.66,0,0,1,.28.54v5.14H2V10.18a.66.66,0,0,1,.28-.54L14.77.48A.4.4,0,0,1,15,.4M15,0a.8.8,0,0,0-.47.15L2.06,9.32a1.08,1.08,0,0,0-.44.86v5.54H28.38V10.18a1.08,1.08,0,0,0-.44-.86L15.47.15A.8.8,0,0,0,15,0Z" transform="translate(0 0)" fill="#212121"/><path d="M23.37,23.54l-8.14,6a.37.37,0,0,1-.46,0l-8.14-6H23.37m1.22-.4H5.41l1,.73,8.14,6a.81.81,0,0,0,.94,0l8.14-6,1-.73Z" transform="translate(0 0)" fill="#212121"/><path d="M13.59,27h.53v.07h-.6V26.8a.33.33,0,0,1,0-.15l.06-.12.09-.09.11-.09.09-.07A.6.6,0,0,1,14,26.2a.31.31,0,0,0,0-.1.36.36,0,0,0,0-.11.2.2,0,0,0,0-.09.18.18,0,0,0,0-.07.12.12,0,0,0-.07,0,.21.21,0,0,0-.18,0,.15.15,0,0,0-.07,0,.18.18,0,0,0-.05.07.2.2,0,0,0,0,.09h-.07a.24.24,0,0,1,0-.12.2.2,0,0,1,.06-.09l.1-.07.11,0,.12,0,.09.07a.18.18,0,0,1,.06.09.27.27,0,0,1,0,.12.32.32,0,0,1,0,.14.27.27,0,0,1-.06.1.39.39,0,0,1-.08.1.39.39,0,0,0-.1.08l-.1.08-.08.08-.06.1a.51.51,0,0,0,0,.13Z" transform="translate(0 0)" fill="#212121"/><path d="M14.56,27.1a.27.27,0,0,1-.12,0L14.35,27a.24.24,0,0,1-.06-.09.27.27,0,0,1,0-.12V26a.27.27,0,0,1,0-.12.18.18,0,0,1,.06-.09l.09-.07.12,0,.12,0,.09.07a.18.18,0,0,1,.06.09.27.27,0,0,1,0,.12v.81a.27.27,0,0,1,0,.12.24.24,0,0,1-.06.09l-.09.06A.27.27,0,0,1,14.56,27.1Zm0-1.34a.15.15,0,0,0-.09,0,.12.12,0,0,0-.07,0,.18.18,0,0,0-.05.07.2.2,0,0,0,0,.09v.81a.29.29,0,0,0,0,.09.26.26,0,0,0,.12.12l.09,0,.09,0a.26.26,0,0,0,.12-.12.29.29,0,0,0,0-.09V26a.2.2,0,0,0,0-.09.18.18,0,0,0,0-.07.12.12,0,0,0-.07,0A.15.15,0,0,0,14.56,25.76Z" transform="translate(0 0)" fill="#212121"/><path d="M15.3,27.1a.27.27,0,0,1-.12,0,.18.18,0,0,1-.09-.06L15,26.92a.5.5,0,0,1,0-.12V26a.5.5,0,0,1,0-.12.46.46,0,0,1,.16-.16l.12,0,.11,0,.1.07.06.09a.25.25,0,0,1,0,.12v.81a.25.25,0,0,1,0,.12l-.06.09a.21.21,0,0,1-.1.06A.2.2,0,0,1,15.3,27.1Zm0-1.34a.15.15,0,0,0-.09,0,.12.12,0,0,0-.07,0,.18.18,0,0,0-.05.07s0,.05,0,.09v.81a.15.15,0,0,0,0,.09.26.26,0,0,0,.12.12l.09,0,.09,0,.07-.05a.18.18,0,0,0,0-.07.29.29,0,0,0,0-.09V26a.2.2,0,0,0,0-.09.18.18,0,0,0,0-.07.15.15,0,0,0-.07,0A.15.15,0,0,0,15.3,25.76Z" transform="translate(0 0)" fill="#212121"/><path d="M16.29,26.29a.43.43,0,0,1-.12.11.26.26,0,0,1,.16.26v.14a.5.5,0,0,1,0,.12l-.07.09a.15.15,0,0,1-.09.06.2.2,0,0,1-.11,0,.24.24,0,0,1-.12,0,.15.15,0,0,1-.09-.06l-.07-.09a.5.5,0,0,1,0-.12h.07a.28.28,0,0,0,0,.09l0,.07L16,27,16,27l.08,0L16.2,27l.05-.07a.28.28,0,0,0,0-.09v-.14a.28.28,0,0,0,0-.09l-.05-.07-.08-.05-.08,0H16v-.07H16a.11.11,0,0,0,.08,0l.08-.05.05-.07a.28.28,0,0,0,0-.09V26a.28.28,0,0,0,0-.09l-.05-.07a.14.14,0,0,0-.08,0,.11.11,0,0,0-.08,0s-.07,0-.09,0a.14.14,0,0,0-.08,0l0,.07a.28.28,0,0,0,0,.09h-.07a.5.5,0,0,1,0-.12.31.31,0,0,1,.07-.09.22.22,0,0,1,.09-.07l.12,0,.11,0a.22.22,0,0,1,.09.07l.07.09a.5.5,0,0,1,0,.12v.14A.29.29,0,0,1,16.29,26.29Z" transform="translate(0 0)" fill="#212121"/><path d="M13.38,25.19h-.23V23.92h.23V24h-.17v.48h.15v.1h-.15v.49h.17Z" transform="translate(0 0)" fill="#212121"/><path d="M13.75,25.1s0,0,0,.06,0,0,0,0h-.17s0,0,0,0a.08.08,0,0,1,0-.06v-.32h.07v.31h.15v-.3l-.2-.42a.3.3,0,0,1,0-.1V24a.14.14,0,0,1,0-.06s0,0,0,0h.17s0,0,0,0a.13.13,0,0,1,0,.06v.3h-.06V24h-.15v.27l.19.42a.16.16,0,0,1,0,.1Z" transform="translate(0 0)" fill="#212121"/><path d="M14.11,24H14v1.17h-.06V24h-.12v-.1h.29Z" transform="translate(0 0)" fill="#212121"/><path d="M14.47,25.19H14.4l0-.28h-.14l0,.28h-.06l.13-1.27h.06Zm-.1-.38-.06-.69-.06.69Z" transform="translate(0 0)" fill="#212121"/><path d="M14.83,25.1s0,0,0,.06,0,0,0,0h-.23V23.92h.23s0,0,0,0a.13.13,0,0,1,0,.06v.38a.19.19,0,0,1,0,.08l-.05.06.05.06s0,0,0,.08Zm-.06-.7V24h-.16v.46h.1Zm0,.69v-.44l-.06-.07h-.1v.51Z" transform="translate(0 0)" fill="#212121"/><path d="M15.17,25.19h-.23V23.92H15v1.17h.16Z" transform="translate(0 0)" fill="#212121"/><path d="M15.32,25.19h-.06V23.92h.06Z" transform="translate(0 0)" fill="#212121"/><path d="M15.71,25.1s0,0,0,.06,0,0,0,0h-.17s0,0,0,0,0,0,0-.06v-.32h.06v.31h.15v-.3l-.19-.42a.16.16,0,0,1,0-.1V24a.13.13,0,0,1,0-.06s0,0,0,0h.17s0,0,0,0a.13.13,0,0,1,0,.06v.3h-.06V24H15.5v.27l.2.42a.31.31,0,0,1,0,.1Z" transform="translate(0 0)" fill="#212121"/><path d="M16.12,25.19h-.06v-.61h-.17v.61h-.06V23.92h.06v.56h.17v-.56h.06Z" transform="translate(0 0)" fill="#212121"/><path d="M16.47,25.19h-.24V23.92h.23V24H16.3v.48h.15v.1H16.3v.49h.17Z" transform="translate(0 0)" fill="#212121"/><path d="M16.86,25a.43.43,0,0,1,0,.17.12.12,0,0,1-.09.06h-.17V23.92h.17s.06,0,.09.07a.38.38,0,0,1,0,.16Zm-.07,0v-.79a.16.16,0,0,0,0-.1.07.07,0,0,0-.06,0h-.08v1.07h.08a.07.07,0,0,0,.06,0A.15.15,0,0,0,16.79,25Z" transform="translate(0 0)" fill="#212121"/><path d="M.4,15.32v8.22H29.6V15.32Zm24.27,4,.24-.08V16.16l-.24-.07v-.35h.54l1.05,3h0v-2.6L26,16.09v-.35h.78v.35l-.24.07v3.51h-.3l-1.05-3h0v2.61l.24.08v.34h-.78Zm-2,0,.25-.08V16.16l-.25-.07v-.35h1.68v1h-.25l0-.53h-.87v1.27h.84v.42h-.84v1.4h.88l0-.52h.25v.94H22.7Zm-5.9,0,.24-.08V16.16l-.24-.07v-.35h1.68v1h-.26l0-.53h-.86v1.27h.84v.42h-.84v1.4h.88l0-.52h.26v.94H16.8Zm-11.24,0,.25-.08V16.16l-.25-.07v-.35h.79v.35l-.24.07v3.09l.24.08v.34H5.56Zm-2.36,0,.24-.08V16.16l-.24-.07v-.35H4v.35l-.25.07v1.36H4.8V16.16l-.24-.07v-.35h.78v.35l-.24.07v3.09l.24.08v.34H4.56v-.34l.24-.08V17.93H3.74v1.32l.25.08v.34H3.2Zm4.72,2.28H2.61v-.24H7.92Zm.52-1.94H8.28c-.11,0-.2-.08-.25-.22A1.92,1.92,0,0,1,8,18.93v-.31a1.08,1.08,0,0,0-.1-.51.31.31,0,0,0-.28-.19H7.1v1.33l.25.08v.34H6.56v-.34l.25-.08V16.16l-.25-.07v-.34h1a.61.61,0,0,1,.55.28,1.43,1.43,0,0,1,.19.81,1.5,1.5,0,0,1-.08.5.79.79,0,0,1-.26.35.6.6,0,0,1,.26.34,2,2,0,0,1,.08.59v.31a1.65,1.65,0,0,0,0,.27.13.13,0,0,0,.09.1l.07,0Zm.94,3.19H9.14V21.7H8.81v1.16H8.57V20.28h.24v1.06h.33V20.28h.24ZM9,19.57a1.1,1.1,0,0,1-.32-.38v-.73H9L9,19a1,1,0,0,0,.21.21.51.51,0,0,0,.28.08.45.45,0,0,0,.36-.17.78.78,0,0,0,.13-.46.77.77,0,0,0-.51-.76,1.15,1.15,0,0,1-.55-.44,1.25,1.25,0,0,1-.19-.72A1.34,1.34,0,0,1,8.94,16a.69.69,0,0,1,1-.16,1,1,0,0,1,.3.34v.73H10L10,16.34a.49.49,0,0,0-.18-.17.53.53,0,0,0-.26-.06.42.42,0,0,0-.36.17.84.84,0,0,0-.13.47.75.75,0,0,0,.13.43,1.2,1.2,0,0,0,.42.3,1.1,1.1,0,0,1,.52.45,1.42,1.42,0,0,1,.18.74,1.25,1.25,0,0,1-.21.76.66.66,0,0,1-.57.29A.72.72,0,0,1,9,19.57Zm1.34,3.05q0,.24-.15.24H9.72q-.15,0-.15-.24V20.28h.24v2.24h.33V20.28h.24Zm1,.24h-.21l-.39-1.63a1.42,1.42,0,0,1,0,.19v1.44h-.23V20.28h.21l.39,1.59a1.76,1.76,0,0,1,0-.19v-1.4h.24Zm-.59-3.7a3.31,3.31,0,0,1-.28-1.43v-.05a3.32,3.32,0,0,1,.27-1.43c.18-.37.42-.56.71-.56a.66.66,0,0,1,.44.17,1.13,1.13,0,0,1,.28.39V17H12l0-.56a.7.7,0,0,0-.18-.2.36.36,0,0,0-.25-.08c-.23,0-.4.14-.53.44a3,3,0,0,0-.18,1.12v.06A3,3,0,0,0,11,18.86c.12.3.29.45.5.45a.44.44,0,0,0,.27-.09A.52.52,0,0,0,12,19l0-.56h.21v.7a1,1,0,0,1-.28.39.61.61,0,0,1-.44.17C11.22,19.72,11,19.53,10.8,19.16Zm1.48,1.46H12v2.24h-.24V20.62h-.26v-.34h.77Zm.37,2.24h-.24V20.28h.24Zm1,0h-.21l-.38-1.63a1.42,1.42,0,0,1,0,.19v1.44h-.23V20.28h.21l.38,1.59a1.42,1.42,0,0,1,0-.19v-1.4h.23Zm1-1.8h-.24v-.45H14.1v1.91h.31V21.8h-.18v-.33h.42v1.15c0,.16-.05.24-.14.24H14c-.1,0-.14-.08-.14-.24V20.51c0-.15,0-.23.14-.23h.51c.09,0,.14.08.14.23Zm0-5-.25.07v3.09l.25.08v.34h-.79v-.34l.25-.08V17.93H13.05v1.32l.25.08v.34h-.79v-.34l.25-.08V16.16l-.25-.07v-.35h.79v.35l-.25.07v1.36h1.07V16.16l-.25-.07v-.35h.79Zm.22,3.24.25-.08V16.16l-.25-.07v-.35h1.69v1h-.25l0-.53h-.88v1.35h.85v.42h-.85v1.32l.25.08v.34h-.79Zm1,3.53-.26-1.2v-.23h.23v-.82h-.3v2.25h-.24V20.28h.64c.1,0,.14.08.14.23v.94q0,.16-.06.21a.3.3,0,0,1-.16,0l.26,1.17Zm1.07,0h-.67V20.28h.66v.34h-.42v.75h.37v.34h-.37v.8h.43Zm.94-1.77h-.24V20.6h-.3v.47l.49.73a.41.41,0,0,1,.05.21v.61q0,.24-.15.24h-.48q-.15,0-.15-.24V22h.24v.52h.3V22l-.49-.74a.39.39,0,0,1-.05-.2v-.58c0-.15.05-.23.15-.23h.48c.1,0,.15.08.15.23Zm.86,1.77h-.67V20.28h.66v.34h-.42v.75h.36v.34h-.36v.8h.43Zm0-3.53.25-.08V16.16l-.25-.07v-.35h.79v.35l-.25.07v3.09h.77l0-.45h.25v.87H18.76Zm.7,3.53-.27-1.2v-.23h.24v-.82h-.31v2.25h-.24V20.28h.64c.1,0,.15.08.15.23v.94a.26.26,0,0,1-.07.21.3.3,0,0,1-.16,0l.27,1.17Zm.89,0h-.24l-.31-2.58H20L20.22,22c0,.06,0,.13,0,.23V22l.19-1.76h.24Zm1.11,0h-.67V20.28h.66v.34H21v.75h.37v.34H21v.8h.43Zm0-3.19h-.91v-.34l.24-.08V16.16l-.24-.07v-.35h.91a.77.77,0,0,1,.69.48,2.42,2.42,0,0,1,.27,1.22V18a2.46,2.46,0,0,1-.27,1.23A.78.78,0,0,1,21.48,19.67Zm5.91,1.94H22.08v-.24h5.31Z" transform="translate(0 0)" fill="#212121"/><path d="M7.86,16.34a.36.36,0,0,0-.34-.18H7.1V17.5h.39a.43.43,0,0,0,.37-.17,1,1,0,0,0,.11-.5A1,1,0,0,0,7.86,16.34Z" transform="translate(0 0)" fill="#212121"/><path d="M21.48,16.16h-.37v3.09h.37a.52.52,0,0,0,.48-.36,2,2,0,0,0,.18-.92v-.54a2,2,0,0,0-.18-.91A.52.52,0,0,0,21.48,16.16Z" transform="translate(0 0)" fill="#212121"/><path d="M21.24,11.48C20.42,12.62,19,15,19,15s2.15-2.89,2.47-3.35,2.05-3.16,2.05-3.16S22.14,10.21,21.24,11.48Z" transform="translate(0 0)" fill="#212121"/><path d="M22.66,12.87C22,13.54,21,15,21,15s1.63-1.67,1.87-1.95,1.55-1.89,1.55-1.89S23.35,12.13,22.66,12.87Z" transform="translate(0 0)" fill="#212121"/><path d="M23.61,14.08a13.6,13.6,0,0,0-.91,1.11s.9-.84,1-1,.84-1,.84-1S24,13.71,23.61,14.08Z" transform="translate(0 0)" fill="#212121"/><path d="M15.91,13.91a8.22,8.22,0,0,0-.11,1.18s.25-1,.28-1.15.13-1.06.13-1.06A9.46,9.46,0,0,0,15.91,13.91Z" transform="translate(0 0)" fill="#212121"/><path d="M25,14.26a8.1,8.1,0,0,0-.72.91l.85-.78c.11-.12.67-.8.67-.8S25.29,14,25,14.26Z" transform="translate(0 0)" fill="#212121"/><path d="M20.43,7.73a8,8,0,0,0-.52,1s.59-.8.67-.93l.5-.92A9.29,9.29,0,0,0,20.43,7.73Z" transform="translate(0 0)" fill="#212121"/><path d="M26.38,14.42a2.34,2.34,0,0,0-.42.46s.46-.27.53-.33.39-.39.39-.39A3,3,0,0,0,26.38,14.42Z" transform="translate(0 0)" fill="#212121"/><path d="M6,14A12.37,12.37,0,0,1,7,15.1s-.9-.84-1-1-.84-1-.84-1A12.64,12.64,0,0,1,6,14Z" transform="translate(0 0)" fill="#212121"/><path d="M4.9,14.23a8.87,8.87,0,0,1,.73.9s-.75-.66-.86-.78l-.67-.79S4.59,13.93,4.9,14.23Z" transform="translate(0 0)" fill="#212121"/><path d="M5.63,11.3S6.41,12.43,7,13.19l.16.2a1.16,1.16,0,0,1,0-.35C7,12.75,5.63,11.3,5.63,11.3Z" transform="translate(0 0)" fill="#212121"/><path d="M11,15.05,9.66,13.16a1,1,0,0,0-.12.17C10.31,14.24,11,15.05,11,15.05Z" transform="translate(0 0)" fill="#212121"/><path d="M8.42,11.5c-.58-.69-2.35-2.72-2.35-2.72S7,10.12,7.93,11.37c.1.14.27.34.27.34A1.54,1.54,0,0,1,8.42,11.5Z" transform="translate(0 0)" fill="#212121"/><path d="M11.14,5s.33,1.73.73,3.43h.37C11.79,7,11.14,5,11.14,5Z" transform="translate(0 0)" fill="#212121"/><path d="M13.28,12.33H13c.48,1.44,1,2.77,1,2.77S13.62,13.71,13.28,12.33Z" transform="translate(0 0)" fill="#212121"/><path d="M11.19,12.21c.72,1.35,1.48,2.69,1.48,2.69s-.62-1.42-1.17-2.64h0Z" transform="translate(0 0)" fill="#212121"/><path d="M8.7,6.84s.27.7.67,1.61h.21Z" transform="translate(0 0)" fill="#212121"/><path d="M8.82,15.11l-1-1.31,0,.27C8.31,14.61,8.82,15.11,8.82,15.11Z" transform="translate(0 0)" fill="#212121"/><path d="M17,15.2l.43-.8a1,1,0,0,0,0-.15Z" transform="translate(0 0)" fill="#212121"/><path d="M19.52,10s-.83,1.37-1.35,2.39c-.16.3-.34.72-.52,1.13l.09.22.65-1.22C18.57,12.13,19.52,10,19.52,10Z" transform="translate(0 0)" fill="#212121"/><path d="M14.77,5.22h0c0,1.14.12,2.64.12,2.64S15,6.46,15,5.48A3.18,3.18,0,0,1,14.77,5.22Z" transform="translate(0 0)" fill="#212121"/><path d="M14.81,3.86c0,.11.07.37.11.5a.71.71,0,0,0,.15.3v0c0-.12,0-.37,0-.67a1.86,1.86,0,0,1-.25-.17Z" transform="translate(0 0)" fill="#212121"/><path d="M15,2.61c0-.16,0-.32,0-.45,0-.28,0-.46,0-.46s0,.14,0,.38a1.84,1.84,0,0,0,0,.26c0,.22,0,.49-.07.77a2.62,2.62,0,0,0,.17.21C15,3.08,15,2.84,15,2.61Z" transform="translate(0 0)" fill="#212121"/><path d="M3.62,14.42a2.34,2.34,0,0,1,.42.46s-.46-.27-.53-.33-.39-.39-.39-.39A3,3,0,0,1,3.62,14.42Z" transform="translate(0 0)" fill="#212121"/><path d="M14.53,15c0-.18.09-.71.13-.89s.12-.74.18-.95a4.7,4.7,0,0,0,.31-.85c0-.05-.14,0-.17,0s-.08.14-.14.14-.05-.13-.11-.14-.34,0-.39.08a9.1,9.1,0,0,0,0,1.23,7.7,7.7,0,0,1-.12,1.11c-.06.22-.19.62-.19.62h.45A.7.7,0,0,1,14.53,15Z" transform="translate(0 0)" fill="#212121"/><path d="M8.87,12.3c0-.16-.24-.73-.33-.73s-.35.34-.53.45-.59.2-.67.3,0,.33,0,.4a.8.8,0,0,1,.1.23c0,.08-.09.08-.13.13s-.06,1.59-.1,1.78-.27.25-.26.46h.42c0-.06,0-.13.18-.27a11.14,11.14,0,0,0,.2-1.77.94.94,0,0,1,.56-.53C8.59,12.64,8.87,12.45,8.87,12.3Z" transform="translate(0 0)" fill="#212121"/><path d="M20.08,6.93c-.06,0-.12.11-.17.1s0-.09,0-.16a5.73,5.73,0,0,0-1-.4c-.56-.24-.73-.45-.66-.62s.6-.58.77-1a1.81,1.81,0,0,1-.67.51,1.38,1.38,0,0,0,.18-.86c-.08.21-.27.86-.51.75s-.29-.47-.31-.71,0-.38-.06-.58a1,1,0,0,0-.49-.61,1.3,1.3,0,0,1,.31.74.71.71,0,0,1-.52.59c-.23,0-.56-.62-.64-.8a4.22,4.22,0,0,1-.17-.67,1.57,1.57,0,0,0-.52-.88,2.66,2.66,0,0,1,.32,1.27,9.09,9.09,0,0,1-.82-1.07,4.19,4.19,0,0,1,.36,1.17c-.52-.19-.65-.39-1-1a2.21,2.21,0,0,1,.08.41c0,.06-.24-.16-.42-.4,0,.41.47.79.77,1s.88.36,1.19.65a1.09,1.09,0,0,1,.19.94c0,.1-.09.12-.39.12s-.82-.57-1-.79a1.33,1.33,0,0,1-.17-.58.77.77,0,0,0-.53-.64,1.41,1.41,0,0,1,.32.92c0,.19-.19.1-.4,0s-.34-.73-.73-1.14c.12.24.24.77.15.88A2.34,2.34,0,0,1,13,3.25a1.7,1.7,0,0,0,.53,1.16c.34.32.59.3,1,.49s.37.38.9.74.8.19,1,.35.18.58.34.72.41,0,.41.12-.21.07-.37.14A13.4,13.4,0,0,0,16,8.21a19.57,19.57,0,0,1-2.33.25c-.46.12-3.23,0-4.41.11A1.79,1.79,0,0,0,7.58,9.7c0,.18.15.58.31.5s.09-.5.23-.5,0,.66.28,1.22.6,1,.6,1.43-.45.85-.45,1.07a13.33,13.33,0,0,0,.56,1.9h.36a12.34,12.34,0,0,1-.19-1.67c0-.31.35-.57.67-1.1s.51-1.06.79-1.11a.59.59,0,0,0-.16.42c0,.09.46.23,1.12.33a17.39,17.39,0,0,0,3-.06c0-.08-.19-.37-.32-.46.31.06.45.32.6.45s.68.28,1.2.57a3,3,0,0,1,1.06,1.17,2.68,2.68,0,0,1,.31,1.46H18a2.6,2.6,0,0,0,0-.7c0-.21-.71-1.68-.82-2s-1-.8-1.06-1a.51.51,0,0,1,0-.56c0,.23.06.31.17.47.15-.07,1.42-1.05,1.54-1.09s.14.09.09.29c.17-.18.24-.42.3-.44s.06.13,0,.37a2.58,2.58,0,0,0,.39-.55,10.57,10.57,0,0,0,.1-1.31c0-.17-.21-.75-.12-.8s.16.21.23.41a7,7,0,0,1,.59-.79c.14-.12.54-.18.64-.4S20.15,7,20.08,6.93Z" transform="translate(0 0)" fill="#212121"/><rect width="30" height="30" fill="none"/></svg>