<!-- Copyright (c) 2022 - 2023 Jan Stehno -->
<svg xmlns="http://www.w3.org/2000/svg" viewBox="0 0 300 300"><title>laytonlakedistrict</title><g id="laytonlakedistrict"><g id="inner_border"><path d="M150,16.2a5,5,0,0,1,1.94.4l92.5,39.81a4.91,4.91,0,0,1,3,4.5V239.09a4.91,4.91,0,0,1-3,4.5l-92.5,39.81a4.9,4.9,0,0,1-3.88,0l-92.5-39.81a4.91,4.91,0,0,1-3-4.5V60.91a4.91,4.91,0,0,1,3-4.5l92.5-39.81a5,5,0,0,1,1.94-.4m0-2a6.78,6.78,0,0,0-2.73.57L54.77,54.58a6.89,6.89,0,0,0-4.17,6.33V239.09a6.89,6.89,0,0,0,4.17,6.33l92.5,39.81a6.82,6.82,0,0,0,5.46,0l92.5-39.81a6.89,6.89,0,0,0,4.17-6.33V60.91a6.89,6.89,0,0,0-4.17-6.33l-92.5-39.81A6.78,6.78,0,0,0,150,14.2Z" transform="translate(0)" fill="#212121"/></g><g id="outter_border"><path d="M150,4a4.77,4.77,0,0,1,1.93.4L255.51,48.93a4.92,4.92,0,0,1,3,4.5V246.57a4.92,4.92,0,0,1-3,4.5L151.93,295.6a4.86,4.86,0,0,1-3.86,0L44.49,251.07a4.92,4.92,0,0,1-3-4.5V53.43a4.92,4.92,0,0,1,3-4.5L148.07,4.4A4.77,4.77,0,0,1,150,4m0-4a8.87,8.87,0,0,0-3.52.72L42.91,45.26a8.88,8.88,0,0,0-5.38,8.17V246.57a8.88,8.88,0,0,0,5.38,8.17l103.58,44.54a8.92,8.92,0,0,0,7,0l103.58-44.54a8.88,8.88,0,0,0,5.38-8.17V53.43a8.88,8.88,0,0,0-5.38-8.17L153.51.72A8.78,8.78,0,0,0,150,0Z" transform="translate(0)" fill="#212121"/></g><g id="subtitle"><path d="M145.64,268.25h5.41V269h-6.11V265.9a4.6,4.6,0,0,1,.25-1.58,4.83,4.83,0,0,1,.67-1.25,6.46,6.46,0,0,1,.93-1c.34-.32.69-.62,1.05-.92s.63-.53.94-.8a5.94,5.94,0,0,0,.8-.87,4.27,4.27,0,0,0,.56-1,3.39,3.39,0,0,0,.21-1.24,2.46,2.46,0,0,0-.7-1.72,2.49,2.49,0,0,0-.74-.53,2.12,2.12,0,0,0-.91-.19,2.23,2.23,0,0,0-.92.19,2.83,2.83,0,0,0-.75.53,2.49,2.49,0,0,0-.5.77,2.29,2.29,0,0,0-.19.94h-.7a3.22,3.22,0,0,1,.24-1.24,3.11,3.11,0,0,1,.66-1,2.86,2.86,0,0,1,1-.67A2.82,2.82,0,0,1,148,254a3,3,0,0,1,1.19.25,3.15,3.15,0,0,1,1,.68,3.21,3.21,0,0,1,.9,2.26,4.2,4.2,0,0,1-.24,1.47,4.84,4.84,0,0,1-.64,1.16,6.31,6.31,0,0,1-.89,1c-.33.3-.66.59-1,.87s-.67.56-1,.84a6.67,6.67,0,0,0-.85.92,4.42,4.42,0,0,0-.59,1.09,3.77,3.77,0,0,0-.22,1.34Z" transform="translate(0)" fill="#212121"/><path d="M155.6,269.09a2.91,2.91,0,0,1-1.2-.26,3,3,0,0,1-1-.68,3.21,3.21,0,0,1-.9-2.25v-8.67a3.27,3.27,0,0,1,.24-1.25,3.46,3.46,0,0,1,.66-1,3.33,3.33,0,0,1,1-.68,3.07,3.07,0,0,1,1.2-.25,2.94,2.94,0,0,1,1.18.25,3.33,3.33,0,0,1,1,.68,3.43,3.43,0,0,1,.65,1,3.27,3.27,0,0,1,.24,1.25v8.67a3.22,3.22,0,0,1-.24,1.24,3.19,3.19,0,0,1-.65,1,3,3,0,0,1-1,.68A2.79,2.79,0,0,1,155.6,269.09Zm0-14.32a2.2,2.2,0,0,0-.92.19,2.54,2.54,0,0,0-.75.53,2.72,2.72,0,0,0-.51.77,2.34,2.34,0,0,0-.19.95v8.69a2.34,2.34,0,0,0,.19,1,2.56,2.56,0,0,0,.51.79,2.34,2.34,0,0,0,.75.52,2.06,2.06,0,0,0,.92.2,2,2,0,0,0,.91-.2,2.42,2.42,0,0,0,.74-.52,2.56,2.56,0,0,0,.51-.79,2.52,2.52,0,0,0,.19-1v-8.69a2.52,2.52,0,0,0-.19-.95,2.72,2.72,0,0,0-.51-.77,2.63,2.63,0,0,0-.74-.53A2.15,2.15,0,0,0,155.6,254.77Z" transform="translate(0)" fill="#212121"/><path d="M163.19,269.09a2.83,2.83,0,0,1-1.19-.26,2.93,2.93,0,0,1-1-.68,3.19,3.19,0,0,1-.65-1,3.23,3.23,0,0,1-.25-1.24v-8.67a3.28,3.28,0,0,1,.25-1.25,3.43,3.43,0,0,1,.65-1,3.25,3.25,0,0,1,1-.68,3,3,0,0,1,2.38,0A3.13,3.13,0,0,1,166,256a3.1,3.1,0,0,1,.25,1.25v8.67a3.05,3.05,0,0,1-.25,1.24,3.19,3.19,0,0,1-.65,1,3.06,3.06,0,0,1-1,.68A2.83,2.83,0,0,1,163.19,269.09Zm0-14.32a2.23,2.23,0,0,0-.92.19,2.54,2.54,0,0,0-.75.53,2.72,2.72,0,0,0-.51.77,2.52,2.52,0,0,0-.19.95v8.69a2.52,2.52,0,0,0,.19,1,2.56,2.56,0,0,0,.51.79,2.34,2.34,0,0,0,.75.52,2.09,2.09,0,0,0,.92.2,2,2,0,0,0,.91-.2,2.42,2.42,0,0,0,.74-.52,2.56,2.56,0,0,0,.51-.79,2.34,2.34,0,0,0,.19-1v-8.69a2.34,2.34,0,0,0-.19-.95,2.72,2.72,0,0,0-.51-.77,2.63,2.63,0,0,0-.74-.53A2.12,2.12,0,0,0,163.19,254.77Z" transform="translate(0)" fill="#212121"/><path d="M173.39,260.43a3.25,3.25,0,0,1-1.19,1.17,3,3,0,0,1,1.19,1.14,3.25,3.25,0,0,1,.44,1.67v1.49a3.21,3.21,0,0,1-.9,2.25,2.85,2.85,0,0,1-1,.68,2.8,2.8,0,0,1-1.19.26,2.83,2.83,0,0,1-1.19-.26,2.89,2.89,0,0,1-1-.68,3.05,3.05,0,0,1-.66-1,3.22,3.22,0,0,1-.24-1.24h.7a2.38,2.38,0,0,0,.19,1,2.43,2.43,0,0,0,.5.78,2.59,2.59,0,0,0,.75.52,2.09,2.09,0,0,0,.92.2,2,2,0,0,0,.91-.2,2.3,2.3,0,0,0,.74-.52,2.45,2.45,0,0,0,.51-.78,2.38,2.38,0,0,0,.19-1v-1.49a2.38,2.38,0,0,0-.19-1,2.45,2.45,0,0,0-.51-.78,2.3,2.3,0,0,0-.74-.52,2,2,0,0,0-.91-.2H170v-.73h.76a2.12,2.12,0,0,0,.91-.19,2.48,2.48,0,0,0,1.25-1.32,2.37,2.37,0,0,0,.19-.95v-1.53a2.55,2.55,0,0,0-.7-1.74,2.49,2.49,0,0,0-.74-.53,2.12,2.12,0,0,0-.91-.19,2.23,2.23,0,0,0-.92.19,2.83,2.83,0,0,0-.75.53,2.43,2.43,0,0,0-.5.78,2.38,2.38,0,0,0-.19,1h-.7a3.21,3.21,0,0,1,.9-2.26,2.89,2.89,0,0,1,1-.68,2.82,2.82,0,0,1,1.19-.25,3,3,0,0,1,1.19.25,2.9,2.9,0,0,1,1,.7,3.38,3.38,0,0,1,.66,1,3.22,3.22,0,0,1,.24,1.24v1.51A3.23,3.23,0,0,1,173.39,260.43Z" transform="translate(0)" fill="#212121"/><path d="M128.35,266.79h-3.27V254.35h3.23v1H126V260h2.13v1H126v4.85h2.38Z" transform="translate(0)" fill="#212121"/><path d="M133.61,265.9a1,1,0,0,1-.2.64.62.62,0,0,1-.5.25H130.4a.66.66,0,0,1-.51-.25,1,1,0,0,1-.2-.64v-3.15h.89v3.06h2.14v-3L130,258.7a1.69,1.69,0,0,1-.29-.95v-2.52a1,1,0,0,1,.2-.63.63.63,0,0,1,.51-.25h2.51a.59.59,0,0,1,.5.25,1,1,0,0,1,.2.63v2.9h-.89v-2.8h-2.14V258l2.75,4.15a1.57,1.57,0,0,1,.28.93Z" transform="translate(0)" fill="#212121"/><path d="M138.6,255.33h-1.54v11.46h-.89V255.33h-1.55v-1h4Z" transform="translate(0)" fill="#212121"/><path d="M140.4,266.79h-1v-1.4h1Z" transform="translate(0)" fill="#212121"/></g><g id="title"><path d="M72.62,201.64q5.09,0,8.39,4.88T84.31,219v6.9q0,7.66-3.3,12.51t-8.39,4.85H60.13v-5l2.95-.86V207.54l-2.95-.86v-5H72.62Zm-4,6.44v28.8h3.68a5.19,5.19,0,0,0,4.69-3,16.15,16.15,0,0,0,1.7-7.92v-7a16.05,16.05,0,0,0-1.7-7.87,5.19,5.19,0,0,0-4.69-3Z" transform="translate(0)" fill="#212121"/><path d="M87,206.68v-5h11.5v5l-3,.86v29.88l3,.86v5H87v-5l3-.86V207.54Z" transform="translate(0)" fill="#212121"/><path d="M121.71,214.94h-4.17l-.73-5.72a6.34,6.34,0,0,0-2.11-1.2,8.57,8.57,0,0,0-3-.51,4.42,4.42,0,0,0-3.53,1.44,5.46,5.46,0,0,0-1.25,3.73,4.81,4.81,0,0,0,1.3,3.48,16,16,0,0,0,4.51,2.87,16.31,16.31,0,0,1,7,5.07,13.36,13.36,0,0,1,2.37,8.26q0,5.35-2.82,8.44a9.59,9.59,0,0,1-7.43,3.09,11.47,11.47,0,0,1-6-1.58,13.11,13.11,0,0,1-4.43-4.34v-8.7h4.3l.6,5.92a6.08,6.08,0,0,0,2.27,1.7,7.49,7.49,0,0,0,3.22.68,4.34,4.34,0,0,0,3.48-1.4,5.64,5.64,0,0,0,1.19-3.75,6.09,6.09,0,0,0-1.14-3.86,10.46,10.46,0,0,0-4-2.75,20.37,20.37,0,0,1-7.48-5.09q-2.53-2.94-2.53-8.06a12,12,0,0,1,2.86-8.28,9.46,9.46,0,0,1,7.19-3.31,11.84,11.84,0,0,1,5.83,1.46,13.63,13.63,0,0,1,4.42,3.89Z" transform="translate(0)" fill="#212121"/><path d="M148.75,201.64v11.1h-4.27l-.23-4.66h-5.11v29.34l3,.86v5H130.6v-5l3-.86V208.08h-5.09l-.23,4.66H124v-11.1Z" transform="translate(0)" fill="#212121"/><path d="M163,201.64a9.13,9.13,0,0,1,7.42,3.25q2.69,3.24,2.69,9a12.38,12.38,0,0,1-1.13,5.46,9.32,9.32,0,0,1-3.3,3.75,6.66,6.66,0,0,1,3.54,3.61,16,16,0,0,1,1.08,6.28v2.12a5.11,5.11,0,0,0,.36,2.13,1.56,1.56,0,0,0,1.2.9l.69.14v5H172.7a3.92,3.92,0,0,1-3.83-2.21,12.61,12.61,0,0,1-1.11-5.69V233a9,9,0,0,0-1.08-4.76,3.58,3.58,0,0,0-3-1.82h-4.55v11l3,.86v5h-11.5v-5l3-.86V207.54l-3-.86v-5H163ZM159.09,220h3.85a4.17,4.17,0,0,0,3.49-1.49,6.87,6.87,0,0,0,1.16-4.29,7.85,7.85,0,0,0-1.15-4.48,3.89,3.89,0,0,0-3.41-1.67h-3.94Z" transform="translate(0)" fill="#212121"/><path d="M177.39,206.68v-5h11.5v5l-3,.86v29.88l3,.86v5h-11.5v-5l3-.86V207.54Z" transform="translate(0)" fill="#212121"/><path d="M213.75,215.69h-4.14l-.57-5.55a6.22,6.22,0,0,0-2.07-1.95,5.87,5.87,0,0,0-2.94-.71c-2.42,0-4.28,1.31-5.58,4a23.29,23.29,0,0,0-2,10.29v1.46a23.55,23.55,0,0,0,1.95,10.33q2,4,5.49,4a6.44,6.44,0,0,0,3-.71,5.31,5.31,0,0,0,2.11-2l.57-5.55h4.14v8.24a13.8,13.8,0,0,1-4.28,4.65,10.34,10.34,0,0,1-5.83,1.73q-5.58,0-9.15-5.81t-3.56-14.9v-1.4q0-9.06,3.54-14.9t9.17-5.84a10.16,10.16,0,0,1,5.82,1.76,14.23,14.23,0,0,1,4.29,4.65Z" transform="translate(0)" fill="#212121"/><path d="M240.2,201.64v11.1h-4.28l-.22-4.66h-5.11v29.34l3,.86v5H222v-5l3-.86V208.08h-5.09l-.23,4.66h-4.25v-11.1Z" transform="translate(0)" fill="#212121"/><path d="M61.91,189.05v-8.67L67,178.89v-51.8l-5.12-1.49v-8.73H81.84v8.73l-5.16,1.49V178H90.26l.47-9.07H98.1v20.17Z" transform="translate(0)" fill="#212121"/><path d="M101.07,180.38l3.44-.74,14.64-62.77H129l14.54,62.77,3.44.74v8.67H130.62v-8.67l3.33-.89-2.11-9.92h-15.6l-2.12,9.92,3.34.89v8.67H101.07Zm17.45-21.47h11l-5.42-25.43h-.2Z" transform="translate(0)" fill="#212121"/><path d="M150.18,180.38l5.12-1.49v-51.8l-5.12-1.49v-8.73h19.67v8.73l-4.9,1.49v19.28h4.2l9.26-20.17-2.85-.6v-8.73h19.07v8.73l-5.22,1.34-11.83,23.69,13.28,28.51,4.83,1.24v8.67H176.62v-8.67l3-.6-9.25-20.87H165v20l4.9,1.49v8.67H150.18Z" transform="translate(0)" fill="#212121"/><path d="M229.63,157.33H213.34V178h15.53l.43-8.63h7.34v19.73H198.57v-8.67l5.12-1.49v-51.8l-5.12-1.49v-8.73h38v19.79h-7.4l-.43-8.63h-15.4v18.14h16.29Z" transform="translate(0)" fill="#212121"/><path d="M64.23,108.42v-5.56l3.28-1V68.7l-3.28-1v-5.6H77v5.6l-3.31,1v32.61h8.71l.29-5.82h4.73v12.93Z" transform="translate(0)" fill="#212121"/><path d="M89.34,102.86l2.2-.47,9.38-40.24h6.34l9.32,40.24,2.2.47v5.56h-10.5v-5.56l2.14-.57-1.36-6.36h-10l-1.36,6.36,2.14.57v5.56H89.34ZM100.52,89.1h7.08l-3.48-16.3H104Z" transform="translate(0)" fill="#212121"/><path d="M126.64,67.75l-2.52.54,4.79,15.19H129l4.78-15.19-2.49-.54v-5.6H143v5.6l-2.63.63L132,92.15v9.76l3.31,1v5.56H122.51v-5.56l3.31-1V91.68l-8.24-23.3L115,67.75v-5.6h11.67Z" transform="translate(0)" fill="#212121"/><path d="M172.53,62.15V74.48h-4.74l-.26-5.18h-5.68v32.61l3.31,1v5.56h-12.8v-5.56l3.31-1V69.3H150l-.25,5.18H145V62.15Z" transform="translate(0)" fill="#212121"/><path d="M202.15,85.64q0,10.17-3.88,16.81t-10.15,6.64q-6.24,0-10.09-6.64t-3.85-16.81v-.7q0-10.11,3.84-16.78t10.08-6.67q6.27,0,10.16,6.67t3.89,16.78ZM196,84.88a29,29,0,0,0-2-11.67c-1.33-3-3.29-4.48-5.89-4.48s-4.54,1.49-5.81,4.45a29.94,29.94,0,0,0-1.92,11.7v.76q0,7.31,1.94,11.77t5.81,4.47q3.93,0,5.89-4.47t2-11.77Z" transform="translate(0)" fill="#212121"/><path d="M236.15,62.15v5.6l-3.3,1v39.72h-6.17L214.22,77.28l-.12,0v24.6l3.3,1v5.56H204.63v-5.56l3.28-1V68.7l-3.28-1v-5.6h9.47L226.55,93.3l.13,0V68.7l-3.3-1v-5.6h12.77Z" transform="translate(0)" fill="#212121"/></g><g id="mountain"><polygon points="105.73 57.98 128.65 35.77 132.92 39.16 150 19.63 155.42 25.44 155.78 23.54 174.77 43.34 180.1 40.45 192.84 57.98 180.91 47.23 174.77 52.29 159.49 33.22 158.23 39.63 150 23.9 131.83 47.23 126.95 41.71 105.73 57.98" fill="#212121"/></g></g><g id="frame"><rect width="300" height="300" fill="none"/></g></svg>