<svg xmlns="http://www.w3.org/2000/svg" viewBox="0 0 30 30"><path d="M15,1.62a.41.41,0,0,1,.19,0l9.25,4a.5.5,0,0,1,.3.45V23.91a.5.5,0,0,1-.3.45l-9.25,4a.47.47,0,0,1-.38,0l-9.25-4a.5.5,0,0,1-.3-.45V6.09a.5.5,0,0,1,.3-.45l9.25-4a.41.41,0,0,1,.19,0m0-.2a.63.63,0,0,0-.27.06l-9.25,4a.68.68,0,0,0-.42.63V23.91a.68.68,0,0,0,.42.63l9.25,4a.64.64,0,0,0,.54,0l9.25-4a.68.68,0,0,0,.42-.63V6.09a.68.68,0,0,0-.42-.63l-9.25-4A.63.63,0,0,0,15,1.42Z" transform="translate(0)" fill="#212121"/><path d="M15,.4a.41.41,0,0,1,.19,0L25.55,4.89a.5.5,0,0,1,.3.45V24.66a.5.5,0,0,1-.3.45L15.19,29.56a.47.47,0,0,1-.38,0L4.45,25.11a.5.5,0,0,1-.3-.45V5.34a.5.5,0,0,1,.3-.45L14.81.44A.41.41,0,0,1,15,.4M15,0a.84.84,0,0,0-.35.07L4.29,4.53a.88.88,0,0,0-.54.81V24.66a.88.88,0,0,0,.54.81l10.36,4.46a.91.91,0,0,0,.7,0l10.36-4.46a.88.88,0,0,0,.54-.81V5.34a.88.88,0,0,0-.54-.81L15.35.07A.84.84,0,0,0,15,0Z" transform="translate(0)" fill="#212121"/><path d="M14.56,26.83h.55v.07h-.62v-.31a.41.41,0,0,1,0-.16.47.47,0,0,1,.07-.12.44.44,0,0,1,.09-.11l.1-.09a.39.39,0,0,0,.1-.08L15,26l0-.1a.28.28,0,0,0,0-.13.29.29,0,0,0,0-.09.56.56,0,0,0,0-.08l-.08-.05a.21.21,0,0,0-.18,0l-.08.05a.56.56,0,0,0-.05.08.29.29,0,0,0,0,.09h-.07a.27.27,0,0,1,0-.12.24.24,0,0,1,.06-.1.23.23,0,0,1,.1-.07.26.26,0,0,1,.24,0l.1.07.06.1a.27.27,0,0,1,0,.12.33.33,0,0,1,0,.15L15,26l-.09.09-.1.09-.1.09a.38.38,0,0,0-.09.09.37.37,0,0,0-.05.11.28.28,0,0,0,0,.13Z" transform="translate(0)" fill="#212121"/><path d="M15.56,26.91a.27.27,0,0,1-.12,0,.33.33,0,0,1-.1-.06.39.39,0,0,1-.06-.11.24.24,0,0,1,0-.12v-.87a.27.27,0,0,1,0-.12.33.33,0,0,1,.06-.1l.1-.07a.25.25,0,0,1,.24,0,.31.31,0,0,1,.09.07.36.36,0,0,1,.07.1.25.25,0,0,1,0,.12v.87a.23.23,0,0,1,0,.12.41.41,0,0,1-.07.11.28.28,0,0,1-.09.06A.27.27,0,0,1,15.56,26.91Zm0-1.43a.15.15,0,0,0-.09,0l-.08.05a.22.22,0,0,0-.05.08.29.29,0,0,0,0,.09v.87a.36.36,0,0,0,0,.1.18.18,0,0,0,.05.07.24.24,0,0,0,.08.06l.09,0,.09,0a.6.6,0,0,0,.13-.13.34.34,0,0,0,0-.1v-.87a.28.28,0,0,0,0-.09.24.24,0,0,0-.06-.08.18.18,0,0,0-.07-.05A.15.15,0,0,0,15.56,25.48Z" transform="translate(0)" fill="#212121"/><path d="M16.32,26.91a.27.27,0,0,1-.12,0,.33.33,0,0,1-.1-.06.49.49,0,0,1-.09-.23v-.87a.27.27,0,0,1,0-.12.21.21,0,0,1,.06-.1l.1-.07a.25.25,0,0,1,.24,0,.31.31,0,0,1,.09.07.36.36,0,0,1,.07.1.25.25,0,0,1,0,.12v.87a.23.23,0,0,1,0,.12.41.41,0,0,1-.07.11.28.28,0,0,1-.09.06A.27.27,0,0,1,16.32,26.91Zm0-1.43a.15.15,0,0,0-.09,0l-.08.05a.22.22,0,0,0,0,.08.29.29,0,0,0,0,.09v.87a.36.36,0,0,0,0,.1.18.18,0,0,0,0,.07.24.24,0,0,0,.08.06l.09,0,.09,0a.2.2,0,0,0,.07-.06.12.12,0,0,0,.05-.07.18.18,0,0,0,0-.1v-.87a.15.15,0,0,0,0-.09.14.14,0,0,0-.05-.08.18.18,0,0,0-.07-.05A.15.15,0,0,0,16.32,25.48Z" transform="translate(0)" fill="#212121"/><path d="M17.34,26a.34.34,0,0,1-.12.12.32.32,0,0,1,.12.11.33.33,0,0,1,0,.17v.15a.43.43,0,0,1,0,.12.41.41,0,0,1-.07.11.28.28,0,0,1-.09.06.25.25,0,0,1-.24,0,.33.33,0,0,1-.1-.06.49.49,0,0,1-.09-.23h.07a.36.36,0,0,0,0,.1.18.18,0,0,0,.05.07.24.24,0,0,0,.08.06l.09,0,.09,0a.2.2,0,0,0,.07-.06.22.22,0,0,0,.07-.17v-.15a.15.15,0,0,0,0-.09.22.22,0,0,0-.05-.08l-.07-.06-.09,0H17v-.07h.08a.15.15,0,0,0,.09,0,.18.18,0,0,0,.07-.05.22.22,0,0,0,.05-.08.15.15,0,0,0,0-.09v-.16a.15.15,0,0,0,0-.09.22.22,0,0,0-.05-.08.18.18,0,0,0-.07-.05.21.21,0,0,0-.18,0l-.08.05a.22.22,0,0,0-.05.08.29.29,0,0,0,0,.09h-.07a.27.27,0,0,1,0-.12.21.21,0,0,1,.06-.1.23.23,0,0,1,.1-.07.25.25,0,0,1,.24,0,.31.31,0,0,1,.09.07.36.36,0,0,1,.07.1.5.5,0,0,1,0,.12v.16A.29.29,0,0,1,17.34,26Z" transform="translate(0)" fill="#212121"/><path d="M12.84,26.68h-.33V25.44h.32v.09H12.6V26h.21v.1H12.6v.48h.24Z" transform="translate(0)" fill="#212121"/><path d="M13.36,26.59a.08.08,0,0,1,0,.06.05.05,0,0,1-.05,0H13a.05.05,0,0,1,0,0,.08.08,0,0,1,0-.06v-.32h.09v.31h.21v-.3L13,25.87a.16.16,0,0,1,0-.09v-.26a.14.14,0,0,1,0-.06s0,0,0,0h.25s0,0,.05,0a.14.14,0,0,1,0,.06v.29h-.09v-.28h-.21v.27l.27.41a.16.16,0,0,1,0,.09Z" transform="translate(0)" fill="#212121"/><path d="M13.86,25.53h-.15v1.15h-.09V25.53h-.16v-.09h.4Z" transform="translate(0)" fill="#212121"/><path d="M14,26.68h-.1v-.14H14Z" transform="translate(0)" fill="#212121"/><path d="M7.26,20.16a1,1,0,0,1,.84.49,2.19,2.19,0,0,1,.33,1.25v.69a2.17,2.17,0,0,1-.33,1.25,1,1,0,0,1-.84.49H6v-.5l.3-.09v-3L6,20.67v-.51H7.26Zm-.39.65v2.88h.36a.51.51,0,0,0,.47-.31,1.52,1.52,0,0,0,.17-.79V21.9a1.54,1.54,0,0,0-.17-.79.52.52,0,0,0-.47-.3Z" transform="translate(0)" fill="#212121"/><path d="M8.7,20.67v-.51H9.85v.51l-.3.08v3l.3.09v.5H8.7v-.5l.3-.09v-3Z" transform="translate(0)" fill="#212121"/><path d="M12.17,21.49h-.42l-.07-.57a1,1,0,0,0-.21-.12.94.94,0,0,0-.3-.05.43.43,0,0,0-.35.15.55.55,0,0,0-.12.37.48.48,0,0,0,.13.35,1.4,1.4,0,0,0,.45.28,1.62,1.62,0,0,1,.69.51,1.32,1.32,0,0,1,.24.83,1.2,1.2,0,0,1-.28.84,1,1,0,0,1-.74.31,1.12,1.12,0,0,1-.6-.16,1.21,1.21,0,0,1-.44-.43v-.87h.43l.06.59a.65.65,0,0,0,.22.17.88.88,0,0,0,.33.07.43.43,0,0,0,.34-.14.58.58,0,0,0,.12-.38.61.61,0,0,0-.11-.38,1.11,1.11,0,0,0-.4-.28,2,2,0,0,1-.75-.51,1.21,1.21,0,0,1-.25-.8,1.2,1.2,0,0,1,.29-.83.91.91,0,0,1,.72-.33,1.27,1.27,0,0,1,.58.14,1.49,1.49,0,0,1,.44.39Z" transform="translate(0)" fill="#212121"/><path d="M14.88,20.16v1.11h-.43l0-.46h-.52v2.93l.3.09v.5H13.06v-.5l.3-.09V20.81h-.51l0,.46H12.4V20.16Z" transform="translate(0)" fill="#212121"/><path d="M16.3,20.16a.88.88,0,0,1,.74.33,1.36,1.36,0,0,1,.27.9,1.13,1.13,0,0,1-.11.54.87.87,0,0,1-.33.38.67.67,0,0,1,.36.36,1.67,1.67,0,0,1,.1.63v.21a.41.41,0,0,0,0,.21.14.14,0,0,0,.12.09l.07,0v.5h-.29a.38.38,0,0,1-.38-.22,1.21,1.21,0,0,1-.11-.57V23.3a.88.88,0,0,0-.11-.47.36.36,0,0,0-.31-.19h-.45v1.1l.3.09v.5H15.06v-.5l.29-.09v-3l-.29-.08v-.51H16.3ZM15.91,22h.38a.4.4,0,0,0,.35-.15.67.67,0,0,0,.12-.43.74.74,0,0,0-.12-.44.36.36,0,0,0-.34-.17h-.39Z" transform="translate(0)" fill="#212121"/><path d="M17.74,20.67v-.51h1.15v.51l-.3.08v3l.3.09v.5H17.74v-.5l.3-.09v-3Z" transform="translate(0)" fill="#212121"/><path d="M21.38,21.57H21L20.9,21a.61.61,0,0,0-.2-.19.58.58,0,0,0-.3-.07.62.62,0,0,0-.56.39,2.37,2.37,0,0,0-.19,1v.15a2.34,2.34,0,0,0,.19,1,.6.6,0,0,0,.55.4.73.73,0,0,0,.3-.07.58.58,0,0,0,.21-.2l.06-.55h.42v.82a1.5,1.5,0,0,1-.43.47,1.1,1.1,0,0,1-.59.17,1,1,0,0,1-.91-.58,2.81,2.81,0,0,1-.36-1.49v-.14a2.79,2.79,0,0,1,.36-1.49,1,1,0,0,1,.91-.59,1,1,0,0,1,.59.18,1.5,1.5,0,0,1,.43.47Z" transform="translate(0)" fill="#212121"/><path d="M24,20.16v1.11h-.43l0-.46h-.51v2.93l.3.09v.5H22.2v-.5l.3-.09V20.81H22l0,.46h-.43V20.16Z" transform="translate(0)" fill="#212121"/><path d="M6.19,18.91V18l.51-.15V12.71l-.51-.15v-.87h2v.87l-.51.15v5.08H9l0-.9h.74v2Z" transform="translate(0)" fill="#212121"/><path d="M10.11,18l.34-.08,1.46-6.27h1L14.36,18l.34.08v.87H13.06V18L13.4,18l-.22-1H11.62l-.21,1,.34.09v.87H10.11Zm1.74-2.15H13l-.55-2.54h0Z" transform="translate(0)" fill="#212121"/><path d="M15,18l.51-.15V12.71L15,12.56v-.87h2v.87l-.48.15v1.93h.42l.92-2-.28-.06v-.87h1.9v.87l-.52.13-1.18,2.37,1.33,2.85.48.13v.87H17.66V18L18,18,17,15.89H16.5v2L17,18v.87H15Z" transform="translate(0)" fill="#212121"/><path d="M23,15.73H21.33v2.06h1.56l0-.86h.73v2h-3.8V18l.51-.15V12.71l-.51-.15v-.87h3.8v2h-.74l-.05-.87H21.33v1.82H23Z" transform="translate(0)" fill="#212121"/><path d="M6.42,10.84v-.55l.33-.1V6.87l-.33-.1V6.22H7.7v.55l-.33.1v3.26h.87l0-.58h.47v1.29Z" transform="translate(0)" fill="#212121"/><path d="M8.93,10.29l.22,0,.94-4h.64l.93,4,.22,0v.55H10.83v-.55l.21-.06-.13-.64h-1l-.14.64.21.06v.55H8.93Zm1.12-1.38h.71l-.35-1.63h0Z" transform="translate(0)" fill="#212121"/><path d="M12.66,6.77l-.25.06.48,1.52h0l.48-1.52-.25-.06V6.22H14.3v.55L14,6.84,13.2,9.22v1l.33.1v.55H12.25v-.55l.33-.1v-1l-.82-2.33-.26-.07V6.22h1.16Z" transform="translate(0)" fill="#212121"/><path d="M17.25,6.22V7.45h-.47l0-.52h-.56v3.26l.33.1v.55H15.24v-.55l.33-.1V6.93H15l0,.52H14.5V6.22Z" transform="translate(0)" fill="#212121"/><path d="M20.21,8.56a3.27,3.27,0,0,1-.38,1.68,1.1,1.1,0,0,1-2,0,3.37,3.37,0,0,1-.38-1.68V8.49a3.35,3.35,0,0,1,.38-1.67,1.14,1.14,0,0,1,1-.67,1.15,1.15,0,0,1,1,.67,3.25,3.25,0,0,1,.38,1.67Zm-.61-.07a3,3,0,0,0-.2-1.17.63.63,0,0,0-.59-.45.62.62,0,0,0-.58.45A2.91,2.91,0,0,0,18,8.49v.07a3,3,0,0,0,.19,1.18.62.62,0,0,0,.58.45.63.63,0,0,0,.59-.45,3,3,0,0,0,.2-1.18Z" transform="translate(0)" fill="#212121"/><path d="M23.62,6.22v.55l-.34.1v4h-.61L21.42,7.73h0v2.46l.33.1v.55H20.46v-.55l.33-.1V6.87l-.33-.1V6.22h.95l1.25,3.11h0V6.87l-.33-.1V6.22h1.28Z" transform="translate(0)" fill="#212121"/><polygon points="10.57 5.8 12.87 3.58 13.29 3.92 15 1.96 15.54 2.54 15.58 2.35 17.48 4.33 18.01 4.04 19.29 5.8 18.09 4.72 17.48 5.23 15.95 3.32 15.82 3.96 15 2.39 13.18 4.72 12.7 4.17 10.57 5.8" fill="#212121"/><rect width="30" height="30" fill="none"/></svg>