<!-- Copyright (c) 2022 - 2023 Jan Stehno -->
<svg xmlns="http://www.w3.org/2000/svg" xmlns:xlink="http://www.w3.org/1999/xlink" viewBox="0 0 300 300"><defs><clipPath id="clip-path"><path d="M253,242.12H47q4.5,5,9.48,9.6h187Q248.48,247.15,253,242.12Z" fill="none"/></clipPath></defs><title>medvedtaiganationalpark</title><g id="medvedtaiganationalpark"><g id="inner_border" data-name="inner border"><path d="M150,23.33a126.7,126.7,0,0,1,125.74,142H24.26A126.7,126.7,0,0,1,150,23.33m0-2A128.68,128.68,0,0,0,21.33,150a131.5,131.5,0,0,0,.94,15.59l.22,1.76h255l.22-1.76a131.5,131.5,0,0,0,.94-15.59A128.68,128.68,0,0,0,150,21.33Z" fill="#212121"/><path d="M236.93,242.12h0m0,0a126.64,126.64,0,0,1-173.86,0H236.93m5-2H58l3.66,3.46a128.64,128.64,0,0,0,176.6,0l3.66-3.46Zm-5,0Zm0,4h0Z" fill="#212121"/></g><g id="outter_border" data-name="outter border"><path d="M253,242.12h0m0,0a138.17,138.17,0,0,1-206,0H253m8.95-4H38.06l6,6.67a142.09,142.09,0,0,0,211.94,0l6-6.67Zm-8.95,0h0Zm0,8Z" fill="#212121"/><path d="M150,11.82A138.22,138.22,0,0,1,287.33,165.35H12.67A138.22,138.22,0,0,1,150,11.82m0-4A142.17,142.17,0,0,0,7.82,150a144.74,144.74,0,0,0,.87,15.79l.4,3.56H290.91l.4-3.56a144.74,144.74,0,0,0,.87-15.79A142.17,142.17,0,0,0,150,7.82Z" fill="#212121"/></g><g id="subtitle"><path d="M137,266.43v-.91l3-3.58a9.49,9.49,0,0,0,1.11-1.53,2.59,2.59,0,0,0,.29-1.16A1.91,1.91,0,0,0,141,258a1.3,1.3,0,0,0-1.08-.5,1.76,1.76,0,0,0-1.41.52,2.11,2.11,0,0,0-.46,1.47h-1.2v0a2.84,2.84,0,0,1,.79-2.14,3,3,0,0,1,2.29-.86,2.67,2.67,0,0,1,2,.77,2.75,2.75,0,0,1,.74,2,3.27,3.27,0,0,1-.45,1.61,10.79,10.79,0,0,1-1.26,1.73l-2.44,2.81v0h3.29l.11-1.13H143v2.17Z" fill="#212121"/><path d="M150.28,262.68a4.63,4.63,0,0,1-.79,2.89,2.82,2.82,0,0,1-4.32,0,4.55,4.55,0,0,1-.8-2.88v-2.33a4.55,4.55,0,0,1,.79-2.88,2.81,2.81,0,0,1,4.32,0,4.55,4.55,0,0,1,.8,2.88ZM149,260.07a3.46,3.46,0,0,0-.43-1.92,1.46,1.46,0,0,0-1.28-.64,1.42,1.42,0,0,0-1.25.64,3.45,3.45,0,0,0-.44,1.92V263a3.51,3.51,0,0,0,.44,1.93,1.46,1.46,0,0,0,1.27.65,1.43,1.43,0,0,0,1.26-.65A3.47,3.47,0,0,0,149,263Z" fill="#212121"/><path d="M151.81,265.58l1.44-.19V258l-1.46,0v-.83l2.71-.62v8.79l1.43.19v.85h-4.12Z" fill="#212121"/><path d="M163.17,257.65a14.14,14.14,0,0,0-2.27,3.75,18.17,18.17,0,0,0-.85,4l-.1,1.06H158.7l.1-1.06a14.93,14.93,0,0,1,1-4.15,15.71,15.71,0,0,1,2.11-3.57h-3.88l-.1,1.13H156.9V256.6h6.27Z" fill="#212121"/></g><g id="title"><polygon points="199.27 198.64 203.72 198.64 201.49 180.47 199.27 198.64" fill="#212121"/><path d="M201.76,225.4a1.54,1.54,0,0,0-1.82-1.81h-1.89v3.6h1.89a1.55,1.55,0,0,0,1.82-1.79Z" fill="#212121"/><polygon points="186.42 230.23 189.52 230.23 187.97 224.92 186.42 230.23" fill="#212121"/><path d="M151.48,177.09H148.1v29.72h3.38c.81,0,1.15-.47,1.15-1.68V178.78C152.63,177.56,152.29,177.09,151.48,177.09Z" fill="#212121"/><path d="M178.09,223.59h-2v3.58h2a1.69,1.69,0,0,0,1.29-.46,1.92,1.92,0,0,0,.4-1.31,2,2,0,0,0-.4-1.35A1.61,1.61,0,0,0,178.09,223.59Z" fill="#212121"/><path d="M93.16,177.09H89.78v29.72h3.38c.81,0,1.16-.47,1.16-1.68V178.78C94.32,177.56,94,177.09,93.16,177.09Z" fill="#212121"/><polygon points="99.2 230.23 102.31 230.23 100.76 224.92 99.2 230.23" fill="#212121"/><polygon points="249.62 198.64 254.07 198.64 251.85 180.47 249.62 198.64" fill="#212121"/><polygon points="150.44 230.23 153.55 230.23 152 224.92 150.44 230.23" fill="#212121"/><path d="M300,190.94H286.39l9.47-25.59H4.14l9.47,25.59H0l15.14,25.72L5,242.12H295l-10.1-25.46ZM174.92,170.47H191v7.09h-5v35.87h-6.11V177.56h-5Zm-13.09,19.46h11.55v6.62H161.83Zm-37.65-19.46h14.5v7.09H130.3V188h7.14v7.1H130.3v11.21H139v7.09H124.18Zm-40.52,0H95c3.89,0,5.43,2.84,5.43,7.43v28c0,4.66-1.54,7.49-5.43,7.49H83.66ZM62,213.43H56.62V184.59l-3.51,19.52H48.58l-3.51-19.45v28.77H39.68v-43h6.67l4.5,24.32,4.49-24.32H62Zm18.7,0H65.86v-43H80.37v7.09H72V188h7.15v7.1H72v11.21h8.73ZM93.53,237H91.3l-5.17-9.51V237h-2.8V220.24h2.2l5.17,9.48v-9.48h2.83Zm10.76,0-1-3.46h-5l-1,3.46h-3l5.33-16.77h2.37L107.25,237Zm11.12-13.19H112V237h-3V223.82h-3.4v-3.58h9.83Zm-6.93-10.39-6-43h6.37l3.38,31.89,3.42-31.89H122l-6,43ZM119.64,237h-3V220.24h3Zm12.48-3.84a6.81,6.81,0,0,1-2,3,4.57,4.57,0,0,1-3,1.06,4.62,4.62,0,0,1-3.05-1.06,6.76,6.76,0,0,1-2-3,13.59,13.59,0,0,1-.7-4.57,13.24,13.24,0,0,1,.71-4.54,6.73,6.73,0,0,1,2-3,4.67,4.67,0,0,1,3.05-1.05,4.62,4.62,0,0,1,3,1.05,6.72,6.72,0,0,1,2,3,15.17,15.17,0,0,1,0,9.11ZM144.77,237h-2.22l-5.17-9.51V237h-2.8V220.24h2.19l5.17,9.48v-9.48h2.83Zm10.76,0-1-3.46h-5.05l-1,3.46h-3l5.33-16.77h2.37L158.49,237Zm3.22-31.07c0,4.66-1.54,7.49-5.44,7.49H142v-43h11.33c3.9,0,5.44,2.84,5.44,7.43ZM167,237h-7.83V220.24h3v13.19H167Zm11.51-6.55h-2.42V237h-3V220.24h5.43a3.62,3.62,0,0,1,3,1.39,6,6,0,0,1,1.06,3.72,5.88,5.88,0,0,1-1.08,3.72A3.58,3.58,0,0,1,178.49,230.46Zm13,6.55-1-3.46h-5.05l-1,3.46h-3l5.33-16.77h2.37L194.46,237Zm10.34,0-1.47-5.58a1.13,1.13,0,0,0-.48-.73,1.32,1.32,0,0,0-.72-.21h-1.09V237h-3V220.24h5.3a3.69,3.69,0,0,1,3.11,1.32,5.9,5.9,0,0,1,1,3.72,5.81,5.81,0,0,1-1.08,3.66,3.5,3.5,0,0,1-1.27,1,1.69,1.69,0,0,1,.71.47,3.77,3.77,0,0,1,.76,1.57l1.34,5Zm2.77-31.34h-6.2l-.94,7.76h-6l6.16-43h7.78l6.33,43h-6.15ZM214.12,237l-4.56-7.61V237h-3V220.24h3v7.21l4.43-7.21h3.53l-5,8,5.21,8.81Zm5.9-23.58h-6.08v-43H220Zm20.06-29H234v-5.61c0-1.22-.3-1.69-1.15-1.69h-1.76c-.85,0-1.15.47-1.15,1.69v26.35c0,1.28.3,1.68,1.15,1.68h1.76c.85,0,1.15-.4,1.15-1.68v-8.38h-2.14v-6.42h8.26V206c0,4.6-1.54,7.43-5.39,7.43h-5.52c-3.89,0-5.39-2.83-5.39-7.43V177.9c0-4.59,1.5-7.43,5.39-7.43h5.52c3.85,0,5.39,2.84,5.39,7.43Zm15.83,29-.94-7.76h-6.2l-.94,7.76h-6l6.17-43h7.78l6.33,43Z" fill="#212121"/><path d="M127.12,223.4a2.22,2.22,0,0,0-2,1.29,8.16,8.16,0,0,0-.74,3.91,8.31,8.31,0,0,0,.74,4,2.21,2.21,0,0,0,2,1.3,2.24,2.24,0,0,0,2-1.32,8.16,8.16,0,0,0,.74-3.93,8,8,0,0,0-.74-3.89A2.25,2.25,0,0,0,127.12,223.4Z" fill="#212121"/></g><g id="head_right" data-name="head right"><path d="M150,156.78c1.34,0,2.94-1.09,4.73-1.09a6.85,6.85,0,0,1,4.93,1.86,8.42,8.42,0,0,0-5.25.89A8.52,8.52,0,0,1,150,160Z" fill="#212121"/><path d="M150,151.89c1.45,0,7.55,3.8,11.07,3.8,3.86,0,3.75-3.27,5.09-2.75a19.8,19.8,0,0,0-.23-8.7,6.6,6.6,0,0,1,1.85,2.56,39.73,39.73,0,0,0,0-7.42A12.83,12.83,0,0,1,170,143s1.67-8.7.52-11.06-5.36-15.17-7.17-18.37a97.28,97.28,0,0,1,8.7,16.83,9.82,9.82,0,0,0,1-3.26c1.76,3.71,2.82,11.19,2.82,11.19a24.9,24.9,0,0,0,1.85-6,8.33,8.33,0,0,1,1.66,2.33s2.5-9,2.44-13.53c.7,1.6,1.79,5.7,1.79,5.7s1.79-9.76,1.72-16.06c1.21,1.23,1.54,4,1.54,4s.77-17.18.17-19.78a13.74,13.74,0,0,0-2.41-5.37c.85-.57,2.9-.06,2.9-.06s-4-5.42-6.29-6.35c1.47-.58,4.52.81,4.52.81s-2.94-5.36-5.16-7.08c.68-.52,3.16.64,3.16.64s-2.78-3.87-4.82-4.78-10.84-5.89-12.29-8-1.7-4.26-.85-5.37,4.61-4.44,5-6.23.91-3.86,1.2-5.29a22.86,22.86,0,0,1,.89,5.63,3.68,3.68,0,0,0,2.69-.59c-.94,3.75-2.9,4.26-2.9,4.26s2.69.53,4.18-.51a7.6,7.6,0,0,1-4.1,4.09s4.27,0,5.81-1.75a45.08,45.08,0,0,0,5-7.2c-.06,3.74-2.56,7.5-2.56,7.5a26.12,26.12,0,0,0,5-3.15A9.12,9.12,0,0,1,183,59.84a9.21,9.21,0,0,0,3.92,0,26.89,26.89,0,0,1-6.9,2.9,38.37,38.37,0,0,0,8,.08A47.65,47.65,0,0,1,178.06,65a37.66,37.66,0,0,0,7.25,1.37,46.64,46.64,0,0,1-10.15.77s2.9,1,3.67,2A8.58,8.58,0,0,0,184.46,72c2.22,0,4.61-4.26,4.95-6.57,1.32.69,2.22,3.25,2.22,3.25a52,52,0,0,0,1.19-8.45,6.75,6.75,0,0,1,1.62,2.73s1.32-4.56,2.09-5.42,2.74-6.56,2.74-10.49,1.06-7.42-10.54-11.73C180,32,175.67,38.51,174.65,38.43s-1.53-2.82-1.53-2.82a15.58,15.58,0,0,1-1.8,4.87,6.14,6.14,0,0,1-3.58,2.43,2.81,2.81,0,0,1,.75,2.13c-.25,1.74-1.17,6.78-2.8,7.63s-9.78.33-11.08,1.2c-1,.68-3.59,3.05-3.59,3.05V67.47a28.57,28.57,0,0,0,7.17-3.9c.25,1.34-7.17,7.68-7.17,7.68V77a31.21,31.21,0,0,0,3.71-3.33c0,1.53-3.71,5.88-3.71,5.88v8a14.91,14.91,0,0,0,2.69-2.49c.13,1-2.69,5.31-2.69,5.31v5.75a20.63,20.63,0,0,0,2.82-4.6,23.15,23.15,0,0,1,.08,4.35s4.65.06,6.44-1a4.93,4.93,0,0,1-.42,3.06s9.72-.81,11.3.21,8.12,6.91,11,13a36.68,36.68,0,0,0-8.74-7s-1.07,5-7.12,5a8.43,8.43,0,0,1-7.89-5.54s-3.16,1.19-3.5,0,2.73-4,2.73-4A11.31,11.31,0,0,1,153.8,101,4.38,4.38,0,0,1,151,99.46V133.2c2.82,0,7.17-.34,8.36,1.36s.93,5.58-.85,8.19a4.25,4.25,0,0,1-5.37,1.71s.76,2.38-.09,3.49a3.86,3.86,0,0,1-3.07,1.47Z" fill="#212121"/><path d="M163.56,105.35c.78,1.23,4.35.76,5.5,0s2.44-3.59,1.16-4.48-4.1-1.54-5.25,0S162.92,104.32,163.56,105.35Z" fill="#212121"/><path d="M154.44,142.41c1.37.88,2.21-.3,2.55-1.71s1.37-3.37-.38-3.84a2.66,2.66,0,0,0-3.28,2.14A3,3,0,0,0,154.44,142.41Z" fill="#212121"/><path d="M188.85,115.52s4.46-7,5.7-18.55c1.7.32,3.39,3.9,3.39,3.9a36.39,36.39,0,0,0-4.67-11.26,9.79,9.79,0,0,1,3.64,1.47,17.39,17.39,0,0,0-4.73-6.65c1.35-.31,4.22.64,4.22.64s-3.15-4.93-6.39-7c1.76-1.28,4.26-.45,4.26-.45s-3.37-2.81-5.54-3.33a33.6,33.6,0,0,0-5.89-.51,41.05,41.05,0,0,1,5.42,6.4A14,14,0,0,0,184,78.35a22.14,22.14,0,0,1,6.36,9.85c-2.56-2.81-4.56-3.07-4.56-3.07a35.39,35.39,0,0,1,6.73,13.5c-2.94-4.8-4.1-5.37-4.1-5.37S190.39,97.61,188.85,115.52Z" fill="#212121"/><path d="M150,54.42a7.25,7.25,0,0,1,3.92-2.64c2.61-.68,10.5.21,11-2.1a9.71,9.71,0,0,1,1.87-3.62s-1.45-.21-3.79,2.22c-.94-1.28,2-4.9,2-4.9a13.12,13.12,0,0,0-5,4.3c-1.45-1.4.38-4.3.38-4.3s-1.32.17-3.62,2.9c-1.49-1.79.85-6.7.85-6.7s-3.79,3.2-4.82,6.06c-1.15,0-2.77-3.88-2.77-3.88Z" fill="#212121"/><path d="M197.6,59.63c5.2,1.06,9.76,6.7,9.76,6.7s-5.07-2.86-4.56-2.4a28.23,28.23,0,0,1,6,7.68s-5.29-3.16-5.6-2.77c6.2,8.4,8.2,13.8,8.2,13.8s-3.64-1.6-4-1.28a19.88,19.88,0,0,1,4,6s-2,0-2.49.45c2.84,3.67,5.18,8.15,7,15.2a104.17,104.17,0,0,1,2.43,13.18s-1.79-3.82-2.43-3.56c.64,3.56.26,14.2.26,14.2s-1.54-4.48-2.56-3.84c.9,5.18-.38,13.18-.38,13.18s-.13-4.6-1.92-3.84a70.61,70.61,0,0,1-2.31,8.45,3.7,3.7,0,0,0-2.68-1,13.33,13.33,0,0,1-2.69,5.53s-1.54-1.41-2.56-1.28c-.51,3.52-6.27,9.59-6.27,9.59a5.2,5.2,0,0,0,0-3.58c-1.85,3.33-11.45,10-11.45,10s1.09-2.56,0-2.56c-2.11,3.46-9.65,7.87-9.65,7.87H161.83a18.41,18.41,0,0,0,3.14-3.13,10.89,10.89,0,0,0,1.09-4.35,4.79,4.79,0,0,1,1.6,2.49c2.88-3.9,1.75-10.36,1.75-10.36a11.83,11.83,0,0,1,2.79,5.69,36.85,36.85,0,0,0,2-13.58,13.21,13.21,0,0,1,3.1,5.91,39,39,0,0,0,3.81-12,31.9,31.9,0,0,1,1.71,8.7c4.22-5.63,4.95-14.93,4.95-14.93a18.81,18.81,0,0,1,1.79,6.06c2.51-5.8,2.39-18.59,2.39-18.59a58.51,58.51,0,0,1,2,14.15c2.9-2.58,3-11.18,3-11.18a37.92,37.92,0,0,1,1.64,7.77c2.94-2.91,3-5.88,3.08-9,.1-3.94-2.32-12.2-2.32-12.2a56.9,56.9,0,0,1,5.3,8.36A22.08,22.08,0,0,0,201.44,103a11.72,11.72,0,0,1,3.66,1.77c-1.51-5-7.16-10.75-7.16-10.75a11.63,11.63,0,0,1,4.86,2.48c-1.3-3.58-6.4-9.56-6.4-9.56a18.54,18.54,0,0,1,5.89,3.59c-2.1-4.72-9-11.77-9-11.77s1.88.11,4.69,2.21c-1.59-3.6-8.79-9.45-8.79-9.45s1.95-.29,8.38,3.71c-3.84-3.71-4.37-6.62-4.37-6.62s1.56.54,2.22-.09a9.09,9.09,0,0,1-1.54-4.35s1,1.43,3.44.54A8,8,0,0,0,197.6,59.63Z" fill="#212121"/></g><g id="head_left" data-name="head left"><path d="M150,156.78c-1.34,0-2.94-1.09-4.73-1.09a6.85,6.85,0,0,0-4.93,1.86,8.42,8.42,0,0,1,5.25.89A8.52,8.52,0,0,0,150,160Z" fill="#212121"/><path d="M150,151.89c-1.45,0-7.55,3.8-11.07,3.8-3.86,0-3.75-3.27-5.09-2.75a19.8,19.8,0,0,1,.23-8.7,6.6,6.6,0,0,0-1.85,2.56,39.73,39.73,0,0,1,0-7.42A12.83,12.83,0,0,0,130,143s-1.67-8.7-.52-11.06,5.36-15.17,7.17-18.37a97.28,97.28,0,0,0-8.7,16.83,9.82,9.82,0,0,1-1-3.26c-1.76,3.71-2.82,11.19-2.82,11.19a24.9,24.9,0,0,1-1.85-6,8.33,8.33,0,0,0-1.66,2.33s-2.5-9-2.43-13.53a58.14,58.14,0,0,0-1.8,5.7s-1.79-9.76-1.72-16.06c-1.21,1.23-1.54,4-1.54,4s-.77-17.18-.17-19.78a13.74,13.74,0,0,1,2.41-5.37c-.85-.57-2.9-.06-2.9-.06s4-5.42,6.29-6.35c-1.47-.58-4.52.81-4.52.81s2.94-5.36,5.16-7.08c-.68-.52-3.16.64-3.16.64s2.78-3.87,4.82-4.78,10.84-5.89,12.29-8,1.7-4.26.85-5.37-4.61-4.44-5-6.23-.91-3.86-1.2-5.29a22.86,22.86,0,0,0-.89,5.63,3.68,3.68,0,0,1-2.69-.59c.94,3.75,2.9,4.26,2.9,4.26s-2.69.53-4.18-.51a7.6,7.6,0,0,0,4.1,4.09s-4.27,0-5.8-1.75a44.49,44.49,0,0,1-5-7.2c.06,3.74,2.56,7.5,2.56,7.5a26.12,26.12,0,0,1-5-3.15A9.12,9.12,0,0,0,117,59.84a9.21,9.21,0,0,1-3.92,0,26.89,26.89,0,0,0,6.9,2.9,38.37,38.37,0,0,1-8,.08,47.65,47.65,0,0,0,10,2.22,37.66,37.66,0,0,1-7.25,1.37,46.64,46.64,0,0,0,10.15.77s-2.9,1-3.67,2A8.58,8.58,0,0,1,115.54,72c-2.22,0-4.61-4.26-5-6.57-1.32.69-2.22,3.25-2.22,3.25a52,52,0,0,1-1.19-8.45,6.75,6.75,0,0,0-1.62,2.73s-1.32-4.56-2.09-5.42-2.74-6.56-2.74-10.49-1.06-7.42,10.54-11.73c8.71-3.23,13.06,3.24,14.08,3.16s1.53-2.82,1.53-2.82a15.58,15.58,0,0,0,1.8,4.87,6.14,6.14,0,0,0,3.58,2.43,2.81,2.81,0,0,0-.75,2.13c.25,1.74,1.17,6.78,2.8,7.63s9.78.33,11.08,1.2c1,.68,3.59,3.05,3.59,3.05V67.47a28.57,28.57,0,0,1-7.17-3.9c-.25,1.34,7.17,7.68,7.17,7.68V77a31.21,31.21,0,0,1-3.71-3.33c0,1.53,3.71,5.88,3.71,5.88v8a15.29,15.29,0,0,1-2.69-2.49c-.13,1,2.69,5.31,2.69,5.31v5.75a20.63,20.63,0,0,1-2.82-4.6,23.15,23.15,0,0,0-.08,4.35s-4.65.06-6.44-1a4.93,4.93,0,0,0,.42,3.06s-9.72-.81-11.3.21-8.12,6.91-11,13a36.68,36.68,0,0,1,8.74-7s1.07,5,7.12,5a8.43,8.43,0,0,0,7.89-5.54s3.16,1.19,3.5,0-2.73-4-2.73-4A11.31,11.31,0,0,0,146.2,101,4.38,4.38,0,0,0,149,99.46V133.2c-2.82,0-7.17-.34-8.36,1.36s-.93,5.58.85,8.19a4.25,4.25,0,0,0,5.37,1.71s-.76,2.38.09,3.49a3.86,3.86,0,0,0,3.07,1.47Z" fill="#212121"/><path d="M136.44,105.35c-.78,1.23-4.35.76-5.5,0s-2.44-3.59-1.16-4.48,4.1-1.54,5.25,0S137.08,104.32,136.44,105.35Z" fill="#212121"/><path d="M145.56,142.41c-1.37.88-2.21-.3-2.55-1.71s-1.37-3.37.38-3.84a2.66,2.66,0,0,1,3.28,2.14A3,3,0,0,1,145.56,142.41Z" fill="#212121"/><path d="M111.15,115.52s-4.46-7-5.7-18.55c-1.7.32-3.39,3.9-3.39,3.9a36.39,36.39,0,0,1,4.67-11.26,9.79,9.79,0,0,0-3.64,1.47,17.39,17.39,0,0,1,4.73-6.65c-1.35-.31-4.22.64-4.22.64s3.15-4.93,6.4-7c-1.77-1.28-4.27-.45-4.27-.45s3.37-2.81,5.54-3.33a33.6,33.6,0,0,1,5.89-.51,41.05,41.05,0,0,0-5.42,6.4A14,14,0,0,1,116,78.35a22.14,22.14,0,0,0-6.36,9.85c2.56-2.81,4.56-3.07,4.56-3.07a35.39,35.39,0,0,0-6.73,13.5c2.94-4.8,4.1-5.37,4.1-5.37S109.61,97.61,111.15,115.52Z" fill="#212121"/><path d="M150,54.42a7.25,7.25,0,0,0-3.92-2.64c-2.61-.68-10.5.21-11-2.1a9.71,9.71,0,0,0-1.87-3.62s1.45-.21,3.79,2.22c.94-1.28-2-4.9-2-4.9a13.12,13.12,0,0,1,5,4.3c1.45-1.4-.38-4.3-.38-4.3s1.32.17,3.62,2.9c1.49-1.79-.85-6.7-.85-6.7s3.79,3.2,4.82,6.06c1.15,0,2.77-3.88,2.77-3.88Z" fill="#212121"/><path d="M102.4,59.63c-5.2,1.06-9.76,6.7-9.76,6.7s5.07-2.86,4.56-2.4a28.23,28.23,0,0,0-6,7.68s5.29-3.16,5.61-2.77c-6.21,8.4-8.21,13.8-8.21,13.8s3.64-1.6,4-1.28a19.88,19.88,0,0,0-4,6s2,0,2.49.45c-2.84,3.67-5.18,8.15-7,15.2a104.17,104.17,0,0,0-2.43,13.18s1.79-3.82,2.43-3.56c-.64,3.56-.26,14.2-.26,14.2s1.54-4.48,2.56-3.84c-.9,5.18.38,13.18.38,13.18s.13-4.6,1.92-3.84A70.61,70.61,0,0,0,91,140.79a3.7,3.7,0,0,1,2.68-1,13.33,13.33,0,0,0,2.69,5.53S97.93,143.86,99,144c.51,3.52,6.27,9.59,6.27,9.59a5.2,5.2,0,0,1,0-3.58c1.85,3.33,11.45,10,11.45,10s-1.09-2.56,0-2.56c2.11,3.46,9.65,7.87,9.65,7.87h11.85a18.41,18.41,0,0,1-3.14-3.13,10.89,10.89,0,0,1-1.09-4.35,4.79,4.79,0,0,0-1.6,2.49c-2.88-3.9-1.75-10.36-1.75-10.36a11.83,11.83,0,0,0-2.79,5.69,36.85,36.85,0,0,1-2-13.58,13.21,13.21,0,0,0-3.1,5.91,39,39,0,0,1-3.81-12,31.9,31.9,0,0,0-1.71,8.7c-4.22-5.63-5-14.93-5-14.93a18.81,18.81,0,0,0-1.79,6.06c-2.51-5.8-2.39-18.59-2.39-18.59a58.51,58.51,0,0,0-2,14.15c-2.9-2.58-3-11.18-3-11.18a37.92,37.92,0,0,0-1.64,7.77c-2.94-2.91-3-5.88-3.08-9-.1-3.94,2.32-12.2,2.32-12.2a56.9,56.9,0,0,0-5.3,8.36A22,22,0,0,1,98.57,103a11.72,11.72,0,0,0-3.67,1.77c1.51-5,7.16-10.75,7.16-10.75a11.63,11.63,0,0,0-4.86,2.48c1.3-3.58,6.4-9.56,6.4-9.56a18.54,18.54,0,0,0-5.89,3.59c2.1-4.72,9-11.77,9-11.77s-1.88.11-4.69,2.21c1.59-3.6,8.79-9.45,8.79-9.45s-1.95-.29-8.38,3.71c3.84-3.71,4.37-6.62,4.37-6.62s-1.56.54-2.22-.09a9.09,9.09,0,0,0,1.54-4.35s-1,1.43-3.44.54A8,8,0,0,1,102.4,59.63Z" fill="#212121"/></g><g id="hatching"><g clip-path="url(#clip-path)"><path d="M119.19,237.79,96.81,255.6l3.5,0,22.39-17.82Z" fill="none" stroke="#212121" stroke-miterlimit="10" stroke-width="0.75"/><path d="M122.7,237.76l-22.39,17.82h3.49l22.42-17.85Z" fill="none" stroke="#212121" stroke-miterlimit="10" stroke-width="0.75"/><path d="M126.22,237.72,103.8,255.57h3.49l22.44-17.86Z" fill="none" stroke="#212121" stroke-miterlimit="10" stroke-width="0.75"/><path d="M108.63,237.89l-22.35,17.8,3.51,0,22.36-17.81Z" fill="none" stroke="#212121" stroke-miterlimit="10" stroke-width="0.75"/><path d="M112.15,237.85,89.79,255.66l3.51,0,22.37-17.81Z" fill="none" stroke="#212121" stroke-miterlimit="10" stroke-width="0.75"/><path d="M115.67,237.82,93.3,255.63l3.51,0,22.38-17.81Z" fill="none" stroke="#212121" stroke-miterlimit="10" stroke-width="0.75"/><path d="M140.26,237.61l-22.53,17.94h3.47l22.56-18Z" fill="none" stroke="#212121" stroke-miterlimit="10" stroke-width="0.75"/><path d="M143.76,237.59l-22.56,18h3.47l22.6-18Z" fill="none" stroke="#212121" stroke-miterlimit="10" stroke-width="0.75"/><path d="M129.73,237.7l-22.44,17.86h3.49l22.46-17.88Z" fill="none" stroke="#212121" stroke-miterlimit="10" stroke-width="0.75"/><path d="M136.75,237.64l-22.49,17.91h3.47l22.53-17.94Z" fill="none" stroke="#212121" stroke-miterlimit="10" stroke-width="0.75"/><path d="M76.8,238.33l-3.55.06L51.79,255.48l21.46-17.09-3.56.07L50.44,253.78l19.25-15.32-3.57.08-17,13.55,17-13.55-3.57.07L47.75,250.4l14.8-11.79-3.57.08-12.58,10,12.58-10-3.59.08L45.05,247l10.34-8.24-3.59.1-8.1,6.44,8.75,11,1.84-.05Z" fill="none" stroke="#212121" stroke-miterlimit="10" stroke-width="0.75"/><path d="M76.8,238.33,54.29,256.25l3.59-.09,22.47-17.89Z" fill="none" stroke="#212121" stroke-miterlimit="10" stroke-width="0.75"/><path d="M80.35,238.27,57.88,256.16l3.58-.08L83.9,238.21Z" fill="none" stroke="#212121" stroke-miterlimit="10" stroke-width="0.75"/><path d="M87.44,238.16,65,256l3.56-.07L91,238.11Z" fill="none" stroke="#212121" stroke-miterlimit="10" stroke-width="0.75"/><path d="M83.9,238.21,61.46,256.08,65,256l22.42-17.85Z" fill="none" stroke="#212121" stroke-miterlimit="10" stroke-width="0.75"/><path d="M147.27,237.56l-22.6,18,3.46,0,22.65-18Z" fill="none" stroke="#212121" stroke-miterlimit="10" stroke-width="0.75"/><path d="M105.1,237.93l-22.35,17.8,3.53,0,22.35-17.8Z" fill="none" stroke="#212121" stroke-miterlimit="10" stroke-width="0.75"/><path d="M48.21,239l-5.86,4.66,1.35,1.69,8.1-6.44Z" fill="none" stroke="#212121" stroke-miterlimit="10" stroke-width="0.75"/><path d="M101.58,238,79.21,255.78l3.54-.05,22.35-17.8Z" fill="none" stroke="#212121" stroke-miterlimit="10" stroke-width="0.75"/><path d="M98.05,238,75.68,255.83l3.53-.05L101.58,238Z" fill="none" stroke="#212121" stroke-miterlimit="10" stroke-width="0.75"/><path d="M91,238.11l-22.4,17.83,3.56-.06,22.38-17.82Z" fill="none" stroke="#212121" stroke-miterlimit="10" stroke-width="0.75"/><path d="M94.52,238.06,72.14,255.88l3.54,0L98.05,238Z" fill="none" stroke="#212121" stroke-miterlimit="10" stroke-width="0.75"/><path d="M133.24,237.67l-22.46,17.88h3.48l22.49-17.91Z" fill="none" stroke="#212121" stroke-miterlimit="10" stroke-width="0.75"/><path d="M199.94,237.14l-23.58,18.77,3.43,0,23.67-18.84Z" fill="none" stroke="#212121" stroke-miterlimit="10" stroke-width="0.75"/><path d="M203.46,237.1l-23.67,18.84,3.44,0L207,237.06Z" fill="none" stroke="#212121" stroke-miterlimit="10" stroke-width="0.75"/><path d="M207,237.06,183.23,256l3.43,0,23.86-19Z" fill="none" stroke="#212121" stroke-miterlimit="10" stroke-width="0.75"/><path d="M192.89,237.21l-23.4,18.63,3.44,0,23.48-18.69Z" fill="none" stroke="#212121" stroke-miterlimit="10" stroke-width="0.75"/><path d="M196.41,237.18l-23.48,18.69,3.43,0,23.58-18.77Z" fill="none" stroke="#212121" stroke-miterlimit="10" stroke-width="0.75"/><path d="M217.59,236.92l-24.06,19.15,3.43,0,24.16-19.23Z" fill="none" stroke="#212121" stroke-miterlimit="10" stroke-width="0.75"/><path d="M214.05,237l-24,19.07,3.44,0,24.06-19.15Z" fill="none" stroke="#212121" stroke-miterlimit="10" stroke-width="0.75"/><path d="M228.22,236.75l-24.39,19.42,3.44,0,24.5-19.51Z" fill="none" stroke="#212121" stroke-miterlimit="10" stroke-width="0.75"/><path d="M221.12,236.87,197,256.1l3.44,0,24.27-19.33Z" fill="none" stroke="#212121" stroke-miterlimit="10" stroke-width="0.75"/><path d="M224.67,236.81,200.4,256.14l3.43,0,24.39-19.42Z" fill="none" stroke="#212121" stroke-miterlimit="10" stroke-width="0.75"/><path d="M257.62,238.25l-22.79,18.14,3.45,0L259,239.94Z" fill="none" stroke="#212121" stroke-miterlimit="10" stroke-width="0.75"/><path d="M231.77,236.69l-24.5,19.51,3.44,0,24.61-19.6C234.14,236.66,233,236.67,231.77,236.69Z" fill="none" stroke="#212121" stroke-miterlimit="10" stroke-width="0.75"/><path d="M238.89,236.56l-24.74,19.7,3.44,0,24.87-19.8Z" fill="none" stroke="#212121" stroke-miterlimit="10" stroke-width="0.75"/><path d="M235.32,236.63l-24.61,19.6,3.44,0,24.74-19.7Z" fill="none" stroke="#212121" stroke-miterlimit="10" stroke-width="0.75"/><path d="M249.59,236.34l-25.11,20,3.44,0,25.26-20.11Z" fill="none" stroke="#212121" stroke-miterlimit="10" stroke-width="0.75"/><path d="M256,236.18l-2.79.07-25.26,20.11,3.45,0,24.9-19.83-24.9,19.83h3.46l22.79-18.14Z" fill="none" stroke="#212121" stroke-miterlimit="10" stroke-width="0.75"/><path d="M242.46,236.49l-24.87,19.8,3.44,0,25-19.9Z" fill="none" stroke="#212121" stroke-miterlimit="10" stroke-width="0.75"/><path d="M246,236.41l-25,19.9,3.45,0,25.11-20Z" fill="none" stroke="#212121" stroke-miterlimit="10" stroke-width="0.75"/><path d="M189.38,237.24l-23.32,18.57,3.43,0,23.4-18.63Z" fill="none" stroke="#212121" stroke-miterlimit="10" stroke-width="0.75"/><path d="M210.52,237l-23.86,19,3.43,0,24-19.07Z" fill="none" stroke="#212121" stroke-miterlimit="10" stroke-width="0.75"/><path d="M175.33,237.36l-23,18.34,3.44,0,23.1-18.39Z" fill="none" stroke="#212121" stroke-miterlimit="10" stroke-width="0.75"/><path d="M161.3,237.47l-22.79,18.14,3.45,0,22.84-18.19Z" fill="none" stroke="#212121" stroke-miterlimit="10" stroke-width="0.75"/><path d="M164.8,237.44,142,255.63l3.45,0,22.9-18.24Z" fill="none" stroke="#212121" stroke-miterlimit="10" stroke-width="0.75"/><path d="M154.28,237.51l-22.69,18.07h3.46l22.74-18.1Z" fill="none" stroke="#212121" stroke-miterlimit="10" stroke-width="0.75"/><path d="M185.86,237.27l-23.24,18.51,3.44,0,23.32-18.57Z" fill="none" stroke="#212121" stroke-miterlimit="10" stroke-width="0.75"/><path d="M157.79,237.49l-22.74,18.1,3.46,0,22.79-18.14Z" fill="none" stroke="#212121" stroke-miterlimit="10" stroke-width="0.75"/><path d="M168.31,237.41l-22.9,18.24,3.44,0,23-18.28Z" fill="none" stroke="#212121" stroke-miterlimit="10" stroke-width="0.75"/><path d="M171.82,237.39l-23,18.28,3.45,0,23-18.34Z" fill="none" stroke="#212121" stroke-miterlimit="10" stroke-width="0.75"/><path d="M182.35,237.3l-23.17,18.45,3.44,0,23.24-18.51Z" fill="none" stroke="#212121" stroke-miterlimit="10" stroke-width="0.75"/><path d="M178.84,237.33l-23.1,18.39,3.44,0,23.17-18.45Z" fill="none" stroke="#212121" stroke-miterlimit="10" stroke-width="0.75"/><path d="M150.78,237.54l-22.65,18h3.46l22.69-18.07Z" fill="none" stroke="#212121" stroke-miterlimit="10" stroke-width="0.75"/></g></g><g id="stars"><polygon points="78.15 134.89 62.94 134.89 57.88 120.55 52.82 134.89 37.61 134.89 49.69 144.51 44.99 158.98 57.88 150.46 70.76 158.98 66.06 144.51 78.15 134.89" fill="#212121"/><polygon points="262.39 134.89 247.18 134.89 242.12 120.55 237.06 134.89 221.85 134.89 233.94 144.51 229.24 158.98 242.12 150.46 255.01 158.98 250.31 144.51 262.39 134.89" fill="#212121"/><polygon points="77 99.55 66.49 99.55 63 89.63 59.5 99.55 48.99 99.55 57.34 106.2 54.09 116.2 63 110.31 71.9 116.2 68.65 106.2 77 99.55" fill="#212121"/><polygon points="251.01 99.55 240.5 99.55 237 89.63 233.51 99.55 223 99.55 231.35 106.2 228.1 116.2 237 110.31 245.91 116.2 242.66 106.2 251.01 99.55" fill="#212121"/><polygon points="80.51 71.48 75.05 71.48 73.23 66.33 71.41 71.48 65.95 71.48 70.29 74.94 68.6 80.14 73.23 77.07 77.86 80.14 76.17 74.94 80.51 71.48" fill="#212121"/><polygon points="234.05 71.48 228.59 71.48 226.77 66.33 224.95 71.48 219.49 71.48 223.83 74.94 222.14 80.14 226.77 77.07 231.4 80.14 229.71 74.94 234.05 71.48" fill="#212121"/></g></g><g id="frame"><rect width="300" height="300" fill="none"/></g></svg>