<svg xmlns="http://www.w3.org/2000/svg" xmlns:xlink="http://www.w3.org/1999/xlink" viewBox="0 0 30 30"><defs><clipPath id="a"><path d="M25.3,24.21H4.7a12.3,12.3,0,0,0,1,1h18.7A12.3,12.3,0,0,0,25.3,24.21Z" fill="none"/></clipPath></defs><path d="M15,2.33A12.67,12.67,0,0,1,27.67,15a13.13,13.13,0,0,1-.1,1.54H2.43A13.13,13.13,0,0,1,2.33,15,12.67,12.67,0,0,1,15,2.33m0-.2A12.89,12.89,0,0,0,2.13,15a11.67,11.67,0,0,0,.1,1.56l0,.18h25.5l0-.18a11.67,11.67,0,0,0,.1-1.56A12.89,12.89,0,0,0,15,2.13Z" fill="#212121"/><path d="M23.69,24.21h0m0,0a12.64,12.64,0,0,1-17.38,0H23.69m.51-.2H5.8l.37.35a12.86,12.86,0,0,0,17.66,0L24.2,24Zm-.5,0Zm0,.4h0Z" fill="#212121"/><path d="M25.3,24.21h0m0,0a13.81,13.81,0,0,1-20.6,0H25.3m.89-.4H3.81l.59.67a14.22,14.22,0,0,0,21.2,0l.59-.67Zm-.89,0h0Zm0,.8Z" fill="#212121"/><path d="M15,1.18A13.82,13.82,0,0,1,28.82,15a13.13,13.13,0,0,1-.09,1.54H1.27A13.13,13.13,0,0,1,1.18,15,13.82,13.82,0,0,1,15,1.18m0-.4A14.24,14.24,0,0,0,.78,15a14.08,14.08,0,0,0,.09,1.58l0,.36H29.09l0-.36A14.08,14.08,0,0,0,29.22,15,14.24,14.24,0,0,0,15,.78Z" fill="#212121"/><path d="M13.7,26.64v-.09l.3-.36a.64.64,0,0,0,.12-.15.5.5,0,0,0,0-.12.17.17,0,0,0,0-.12.12.12,0,0,0-.1-.05.21.21,0,0,0-.15.05.24.24,0,0,0,0,.15h-.12a.29.29,0,0,1,.08-.22.28.28,0,0,1,.23-.08.24.24,0,0,1,.27.27.32.32,0,0,1,0,.16,1.55,1.55,0,0,1-.13.17l-.25.29h.34v-.11h.1v.21Z" fill="#212121"/><path d="M15,26.27a.5.5,0,0,1-.08.29.29.29,0,0,1-.22.1.27.27,0,0,1-.21-.1.43.43,0,0,1-.08-.29V26a.4.4,0,0,1,.08-.29.24.24,0,0,1,.21-.1.27.27,0,0,1,.22.1A.46.46,0,0,1,15,26ZM14.9,26a.32.32,0,0,0,0-.19.14.14,0,0,0-.13-.07.12.12,0,0,0-.12.07.31.31,0,0,0,0,.19v.29a.36.36,0,0,0,0,.19.14.14,0,0,0,.12.06.15.15,0,0,0,.13-.06.36.36,0,0,0,0-.19Z" fill="#212121"/><path d="M15.18,26.56l.14,0V25.8h-.14v-.09l.27-.06v.88l.14,0v.08h-.41Z" fill="#212121"/><path d="M16.32,25.76a1.66,1.66,0,0,0-.23.38,1.41,1.41,0,0,0-.08.4v.1h-.13v-.1a1.62,1.62,0,0,1,.1-.42,2.24,2.24,0,0,1,.21-.36h-.38v.12h-.11v-.22h.63Z" fill="#212121"/><polygon points="19.93 19.86 20.37 19.86 20.15 18.05 19.93 19.86" fill="#212121"/><path d="M20.18,22.54a.2.2,0,0,0-.05-.14s-.07,0-.14,0h-.18v.36H20a.21.21,0,0,0,.14,0A.2.2,0,0,0,20.18,22.54Z" fill="#212121"/><polygon points="18.64 23.02 18.95 23.02 18.8 22.49 18.64 23.02" fill="#212121"/><path d="M15.15,17.71h-.34v3h.34c.08,0,.11-.05.11-.17V17.88C15.26,17.76,15.23,17.71,15.15,17.71Z" fill="#212121"/><path d="M17.81,22.36h-.2v.36h.2a.17.17,0,0,0,.13,0,.22.22,0,0,0,0-.13.21.21,0,0,0,0-.14A.17.17,0,0,0,17.81,22.36Z" fill="#212121"/><path d="M9.32,17.71H9v3h.34c.08,0,.11-.05.11-.17V17.88C9.43,17.76,9.4,17.71,9.32,17.71Z" fill="#212121"/><polygon points="9.92 23.02 10.23 23.02 10.08 22.49 9.92 23.02" fill="#212121"/><polygon points="24.96 19.86 25.41 19.86 25.18 18.05 24.96 19.86" fill="#212121"/><polygon points="15.04 23.02 15.36 23.02 15.2 22.49 15.04 23.02" fill="#212121"/><path d="M30,19.09H28.64l.95-2.55H.41l1,2.55H0l1.51,2.58-1,2.54h29l-1-2.54Zm-12.51-2H19.1v.71h-.5v3.58H18V17.76h-.5ZM16.18,19h1.16v.66H16.18Zm-3.76-1.94h1.45v.71H13v1h.71v.71H13v1.12h.87v.71H12.42Zm-4.05,0H9.5c.39,0,.54.28.54.74v2.8c0,.47-.15.75-.54.75H8.37ZM6.2,21.34H5.66V18.46l-.35,1.95H4.86l-.35-1.94v2.87H4V17.05h.67l.44,2.43.45-2.43H6.2Zm1.87,0H6.59V17.05H8v.71H7.2v1h.71v.71H7.2v1.12h.87ZM9.35,23.7H9.13l-.52-.95v.95H8.33V22h.22l.52.95V22h.28Zm1.08,0-.1-.35H9.82l-.1.35h-.3L10,22h.24l.53,1.68Zm1.11-1.32H11.2V23.7h-.3V22.38h-.34V22h1Zm-.69-1-.61-4.29h.64l.34,3.19.34-3.19h.64l-.6,4.29ZM12,23.7h-.3V22H12Zm1.25-.38a.59.59,0,0,1-.2.3.5.5,0,0,1-.6,0,.59.59,0,0,1-.2-.3,1.27,1.27,0,0,1-.07-.46,1.22,1.22,0,0,1,.07-.45.66.66,0,0,1,.2-.3.46.46,0,0,1,.6,0,.59.59,0,0,1,.2.3,1.22,1.22,0,0,1,.07.45A1.27,1.27,0,0,1,13.21,23.32Zm1.27.38h-.23l-.51-.95v.95h-.28V22h.22l.51.95V22h.29Zm1.07,0-.1-.35H15l-.1.35h-.31L15.08,22h.23l.54,1.68Zm.32-3.11c0,.47-.15.75-.54.75H14.2V17.05h1.13c.39,0,.54.28.54.74Zm.83,3.11h-.79V22h.31v1.32h.48Zm1.15-.65h-.24v.65h-.3V22h.54a.36.36,0,0,1,.3.14.63.63,0,0,1,.11.38.62.62,0,0,1-.11.37A.36.36,0,0,1,17.85,23.05Zm1.3.65-.1-.35h-.51l-.1.35h-.3L18.67,22h.24l.54,1.68Zm1,0L20,23.14a.13.13,0,0,0-.05-.07l-.07,0h-.11v.65h-.3V22H20a.37.37,0,0,1,.31.14.56.56,0,0,1,.11.37.57.57,0,0,1-.11.36.45.45,0,0,1-.13.11.12.12,0,0,1,.07.05.27.27,0,0,1,.08.15l.13.5Zm.28-3.13h-.62l-.09.77h-.61l.62-4.29h.78l.63,4.29h-.61Zm.95,3.13L21,22.94v.76h-.3V22H21v.73L21.4,22h.35l-.5.8.52.88ZM22,21.34h-.61V17.05H22Zm2-2.9H23.4v-.56c0-.12,0-.17-.12-.17h-.17c-.09,0-.12.05-.12.17v2.63c0,.13,0,.17.12.17h.17c.09,0,.12,0,.12-.17v-.84h-.22V19H24V20.6c0,.46-.16.74-.54.74h-.55c-.39,0-.54-.28-.54-.74V17.79c0-.46.15-.74.54-.74h.55c.38,0,.54.28.54.74Zm1.58,2.9-.09-.77h-.62l-.1.77h-.6l.62-4.29h.77l.64,4.29Z" fill="#212121"/><path d="M12.71,22.34a.22.22,0,0,0-.2.13.82.82,0,0,0-.07.39.77.77,0,0,0,.07.39.21.21,0,0,0,.4,0,.78.78,0,0,0,.08-.39.81.81,0,0,0-.08-.39A.22.22,0,0,0,12.71,22.34Z" fill="#212121"/><path d="M15,15.68c.13,0,.29-.11.47-.11a.74.74,0,0,1,.5.18.89.89,0,0,0-.53.09A.79.79,0,0,1,15,16Z" fill="#212121"/><path d="M15,15.19c.15,0,.75.38,1.11.38s.37-.33.51-.28a2,2,0,0,0,0-.87.71.71,0,0,1,.19.26,4.26,4.26,0,0,0,0-.74,1.23,1.23,0,0,1,.22.36,3.1,3.1,0,0,0,.05-1.11c-.11-.24-.53-1.52-.71-1.84A9.87,9.87,0,0,1,17.21,13a1,1,0,0,0,.09-.33,4.89,4.89,0,0,1,.28,1.12,2.32,2.32,0,0,0,.19-.6.75.75,0,0,1,.17.23,6.68,6.68,0,0,0,.24-1.35c.07.16.18.57.18.57a10.53,10.53,0,0,0,.17-1.61.85.85,0,0,1,.15.4s.08-1.72,0-2A1.42,1.42,0,0,0,18.46,9a.54.54,0,0,1,.29,0,2.78,2.78,0,0,0-.63-.64.89.89,0,0,1,.45.08,3.06,3.06,0,0,0-.51-.7c.07-.06.31.06.31.06a1.73,1.73,0,0,0-.48-.48,5.64,5.64,0,0,1-1.23-.8c-.14-.21-.17-.43-.08-.54s.46-.44.5-.62l.12-.53a2.1,2.1,0,0,1,.09.56.33.33,0,0,0,.27-.06c-.09.38-.29.43-.29.43a.69.69,0,0,0,.42,0,.78.78,0,0,1-.41.41,1,1,0,0,0,.58-.18,4.18,4.18,0,0,0,.5-.72,1.52,1.52,0,0,1-.26.75,2.35,2.35,0,0,0,.51-.31A.88.88,0,0,1,18.3,6a.81.81,0,0,0,.39,0,2.64,2.64,0,0,1-.69.29,3.52,3.52,0,0,0,.8,0,4.71,4.71,0,0,1-1,.22,3.5,3.5,0,0,0,.72.14,5,5,0,0,1-1,.08,1,1,0,0,1,.36.2.88.88,0,0,0,.57.28c.22,0,.46-.43.49-.66a.71.71,0,0,1,.22.32A4.57,4.57,0,0,0,19.28,6a.55.55,0,0,1,.16.27,3,3,0,0,1,.21-.54,2.49,2.49,0,0,0,.28-1c0-.39.1-.74-1.06-1.17a1.36,1.36,0,0,0-1.4.31c-.11,0-.16-.28-.16-.28a1.53,1.53,0,0,1-.18.49.65.65,0,0,1-.36.24.26.26,0,0,1,.08.21c0,.18-.12.68-.28.77s-1,0-1.11.12-.36.3-.36.3V6.75a2.84,2.84,0,0,0,.72-.39c0,.13-.72.76-.72.76V7.7a3.34,3.34,0,0,0,.37-.33c0,.15-.37.59-.37.59v.8a1.84,1.84,0,0,0,.27-.25A2.16,2.16,0,0,1,15.1,9v.57a1.78,1.78,0,0,0,.28-.46,2.26,2.26,0,0,1,0,.44,1.93,1.93,0,0,0,.65-.1.51.51,0,0,1,0,.31,4.35,4.35,0,0,1,1.13,0,3.94,3.94,0,0,1,1.1,1.3,3.56,3.56,0,0,0-.87-.7.68.68,0,0,1-.71.49.84.84,0,0,1-.79-.55s-.32.12-.35,0,.27-.4.27-.4a1.07,1.07,0,0,1-.39.14A.44.44,0,0,1,15.1,10v3.37c.28,0,.72,0,.84.14a.81.81,0,0,1-.09.81.42.42,0,0,1-.53.18.51.51,0,0,1,0,.35.39.39,0,0,1-.31.14Z" fill="#212121"/><path d="M16.36,10.53c.07.13.43.08.55,0s.24-.35.11-.44-.41-.16-.52,0S16.29,10.43,16.36,10.53Z" fill="#212121"/><path d="M15.44,14.24c.14.09.23,0,.26-.17s.14-.34,0-.38a.26.26,0,0,0-.33.21A.3.3,0,0,0,15.44,14.24Z" fill="#212121"/><path d="M18.89,11.55a4.66,4.66,0,0,0,.56-1.85c.18,0,.34.39.34.39A3.71,3.71,0,0,0,19.33,9a.89.89,0,0,1,.36.15,1.73,1.73,0,0,0-.47-.67,1.14,1.14,0,0,1,.42.07A2.89,2.89,0,0,0,19,7.8a.52.52,0,0,1,.43,0,1.94,1.94,0,0,0-.56-.33,2.83,2.83,0,0,0-.59-.06,4.6,4.6,0,0,1,.55.64,1.62,1.62,0,0,0-.43-.18,2.29,2.29,0,0,1,.64,1,.91.91,0,0,0-.46-.31,3.55,3.55,0,0,1,.68,1.35c-.3-.48-.41-.53-.41-.53A5.81,5.81,0,0,1,18.89,11.55Z" fill="#212121"/><path d="M15,5.44a.73.73,0,0,1,.39-.26c.26-.07,1.05,0,1.1-.21a1,1,0,0,1,.19-.36s-.14,0-.38.22c-.09-.13.2-.49.2-.49a1.27,1.27,0,0,0-.5.43c-.15-.14,0-.43,0-.43s-.14,0-.37.29c-.15-.18.09-.67.09-.67a1.9,1.9,0,0,0-.48.6c-.12,0-.28-.38-.28-.38Z" fill="#212121"/><path d="M19.76,6a2.14,2.14,0,0,1,1,.67s-.51-.28-.46-.24a2.76,2.76,0,0,1,.6.77,3.25,3.25,0,0,0-.56-.28,6.35,6.35,0,0,1,.82,1.38s-.36-.16-.4-.12a1.94,1.94,0,0,1,.4.6.66.66,0,0,0-.25,0,3.92,3.92,0,0,1,.7,1.52,10,10,0,0,1,.24,1.32s-.18-.38-.24-.36a11.81,11.81,0,0,1,0,1.42s-.15-.44-.25-.38a5,5,0,0,1,0,1.32s0-.46-.19-.39a6.78,6.78,0,0,1-.23.85.37.37,0,0,0-.27-.11,1.34,1.34,0,0,1-.27.56s-.15-.14-.25-.13a3,3,0,0,1-.63,1,.57.57,0,0,0,0-.36,6.06,6.06,0,0,1-1.15,1s.11-.25,0-.25a3.81,3.81,0,0,1-1,.79H16.18a2.31,2.31,0,0,0,.32-.32,1.13,1.13,0,0,0,.11-.43.5.5,0,0,1,.16.25,1.62,1.62,0,0,0,.17-1,1.2,1.2,0,0,1,.28.57,3.8,3.8,0,0,0,.2-1.36,1.35,1.35,0,0,1,.31.59,3.69,3.69,0,0,0,.38-1.2,3.06,3.06,0,0,1,.17.87,3.28,3.28,0,0,0,.5-1.49,1.92,1.92,0,0,1,.18.6,6.39,6.39,0,0,0,.24-1.86,5.61,5.61,0,0,1,.19,1.42c.29-.26.3-1.12.3-1.12a3.76,3.76,0,0,1,.16.78,1.13,1.13,0,0,0,.31-.9,5.8,5.8,0,0,0-.23-1.22,5.81,5.81,0,0,1,.53.83,2.21,2.21,0,0,0-.32-1.21,1.31,1.31,0,0,1,.37.18,3.41,3.41,0,0,0-.72-1.08,1.16,1.16,0,0,1,.49.25,4.43,4.43,0,0,0-.64-1,2,2,0,0,1,.59.35,5.61,5.61,0,0,0-.91-1.17,1,1,0,0,1,.47.22,4.24,4.24,0,0,0-.87-.95s.19,0,.83.37a1.38,1.38,0,0,1-.43-.66s.15.06.22,0a1,1,0,0,1-.16-.43s.1.14.35,0A.81.81,0,0,0,19.76,6Z" fill="#212121"/><path d="M15,15.68c-.13,0-.29-.11-.47-.11a.74.74,0,0,0-.5.18.89.89,0,0,1,.53.09A.79.79,0,0,0,15,16Z" fill="#212121"/><path d="M15,15.19c-.15,0-.75.38-1.11.38s-.37-.33-.51-.28a2,2,0,0,1,0-.87.71.71,0,0,0-.19.26,4.26,4.26,0,0,1,0-.74,1.23,1.23,0,0,0-.22.36A3.1,3.1,0,0,1,13,13.19c.11-.24.53-1.52.71-1.84A9.87,9.87,0,0,0,12.79,13a1,1,0,0,1-.09-.33,4.89,4.89,0,0,0-.28,1.12,2.32,2.32,0,0,1-.19-.6.75.75,0,0,0-.17.23,6.68,6.68,0,0,1-.24-1.35c-.07.16-.18.57-.18.57a10.53,10.53,0,0,1-.17-1.61.85.85,0,0,0-.15.4s-.08-1.72,0-2A1.42,1.42,0,0,1,11.54,9a.54.54,0,0,0-.29,0,2.78,2.78,0,0,1,.63-.64.89.89,0,0,0-.45.08,3.06,3.06,0,0,1,.51-.7c-.07-.06-.31.06-.31.06a1.73,1.73,0,0,1,.48-.48,5.64,5.64,0,0,0,1.23-.8c.14-.21.17-.43.08-.54s-.46-.44-.5-.62l-.12-.53a2.1,2.1,0,0,0-.09.56.33.33,0,0,1-.27-.06c.09.38.29.43.29.43a.69.69,0,0,1-.42,0,.78.78,0,0,0,.41.41,1,1,0,0,1-.58-.18,4.18,4.18,0,0,1-.5-.72,1.52,1.52,0,0,0,.26.75,2.35,2.35,0,0,1-.51-.31A.88.88,0,0,0,11.7,6a.81.81,0,0,1-.39,0,2.64,2.64,0,0,0,.69.29,3.52,3.52,0,0,1-.8,0,4.71,4.71,0,0,0,1,.22,3.5,3.5,0,0,1-.72.14,5,5,0,0,0,1,.08,1,1,0,0,0-.36.2.88.88,0,0,1-.57.28c-.22,0-.46-.43-.49-.66a.71.71,0,0,0-.22.32A4.57,4.57,0,0,1,10.72,6a.55.55,0,0,0-.16.27,3,3,0,0,0-.21-.54,2.49,2.49,0,0,1-.28-1c0-.39-.1-.74,1.06-1.17a1.36,1.36,0,0,1,1.4.31c.11,0,.16-.28.16-.28a1.53,1.53,0,0,0,.18.49.65.65,0,0,0,.36.24.26.26,0,0,0-.08.21c0,.18.12.68.28.77s1,0,1.11.12.36.3.36.3V6.75a2.84,2.84,0,0,1-.72-.39c0,.13.72.76.72.76V7.7a3.34,3.34,0,0,1-.37-.33c0,.15.37.59.37.59v.8a1.84,1.84,0,0,1-.27-.25A2.16,2.16,0,0,0,14.9,9v.57a1.78,1.78,0,0,1-.28-.46,2.26,2.26,0,0,0,0,.44,1.93,1.93,0,0,1-.65-.1.51.51,0,0,0,0,.31,4.35,4.35,0,0,0-1.13,0,3.94,3.94,0,0,0-1.1,1.3,3.56,3.56,0,0,1,.87-.7.68.68,0,0,0,.71.49.84.84,0,0,0,.79-.55s.32.12.35,0-.27-.4-.27-.4a1.07,1.07,0,0,0,.39.14A.44.44,0,0,0,14.9,10v3.37c-.28,0-.72,0-.84.14a.81.81,0,0,0,.09.81.42.42,0,0,0,.53.18.51.51,0,0,0,0,.35.39.39,0,0,0,.31.14Z" fill="#212121"/><path d="M13.64,10.53c-.07.13-.43.08-.55,0s-.24-.35-.11-.44.41-.16.52,0S13.71,10.43,13.64,10.53Z" fill="#212121"/><path d="M14.56,14.24c-.14.09-.23,0-.26-.17s-.14-.34,0-.38a.26.26,0,0,1,.33.21A.3.3,0,0,1,14.56,14.24Z" fill="#212121"/><path d="M11.11,11.55a4.66,4.66,0,0,1-.56-1.85c-.18,0-.34.39-.34.39A3.71,3.71,0,0,1,10.67,9a.89.89,0,0,0-.36.15,1.73,1.73,0,0,1,.47-.67,1.14,1.14,0,0,0-.42.07A2.89,2.89,0,0,1,11,7.8a.52.52,0,0,0-.43,0,1.94,1.94,0,0,1,.56-.33,2.83,2.83,0,0,1,.59-.06,4.6,4.6,0,0,0-.55.64,1.62,1.62,0,0,1,.43-.18,2.29,2.29,0,0,0-.64,1,.91.91,0,0,1,.46-.31,3.55,3.55,0,0,0-.68,1.35c.3-.48.41-.53.41-.53A5.81,5.81,0,0,0,11.11,11.55Z" fill="#212121"/><path d="M15,5.44a.73.73,0,0,0-.39-.26c-.26-.07-1,0-1.1-.21a1,1,0,0,0-.19-.36s.14,0,.38.22c.09-.13-.2-.49-.2-.49a1.27,1.27,0,0,1,.5.43c.15-.14,0-.43,0-.43s.14,0,.37.29c.15-.18-.09-.67-.09-.67a1.9,1.9,0,0,1,.48.6c.12,0,.28-.38.28-.38Z" fill="#212121"/><path d="M10.24,6a2.14,2.14,0,0,0-1,.67s.51-.28.46-.24a2.76,2.76,0,0,0-.6.77,3.25,3.25,0,0,1,.56-.28,6.35,6.35,0,0,0-.82,1.38s.36-.16.4-.12a1.94,1.94,0,0,0-.4.6.66.66,0,0,1,.25,0,3.92,3.92,0,0,0-.7,1.52,10,10,0,0,0-.24,1.32s.18-.38.24-.36a11.81,11.81,0,0,0,0,1.42s.15-.44.25-.38a5,5,0,0,0,0,1.32s0-.46.19-.39a6.78,6.78,0,0,0,.23.85A.37.37,0,0,1,9.37,14a1.34,1.34,0,0,0,.27.56s.15-.14.25-.13a3,3,0,0,0,.63,1,.57.57,0,0,1,0-.36,6.06,6.06,0,0,0,1.15,1s-.11-.25,0-.25a3.81,3.81,0,0,0,1,.79h1.19a2.31,2.31,0,0,1-.32-.32,1.13,1.13,0,0,1-.11-.43.5.5,0,0,0-.16.25,1.62,1.62,0,0,1-.17-1,1.2,1.2,0,0,0-.28.57,3.8,3.8,0,0,1-.2-1.36,1.35,1.35,0,0,0-.31.59,3.69,3.69,0,0,1-.38-1.2,3.06,3.06,0,0,0-.17.87,3.28,3.28,0,0,1-.5-1.49,1.92,1.92,0,0,0-.18.6,6.39,6.39,0,0,1-.24-1.86,5.61,5.61,0,0,0-.19,1.42c-.29-.26-.3-1.12-.3-1.12a3.76,3.76,0,0,0-.16.78,1.13,1.13,0,0,1-.31-.9,5.8,5.8,0,0,1,.23-1.22,5.81,5.81,0,0,0-.53.83,2.21,2.21,0,0,1,.32-1.21,1.31,1.31,0,0,0-.37.18,3.41,3.41,0,0,1,.72-1.08,1.16,1.16,0,0,0-.49.25,4.43,4.43,0,0,1,.64-1,2,2,0,0,0-.59.35,5.61,5.61,0,0,1,.91-1.17,1,1,0,0,0-.47.22,4.24,4.24,0,0,1,.87-.95s-.19,0-.83.37a1.38,1.38,0,0,0,.43-.66s-.15.06-.22,0a1,1,0,0,0,.16-.43s-.1.14-.35,0A.81.81,0,0,1,10.24,6Z" fill="#212121"/><g clip-path="url(#a)"><path d="M11.92,23.78,9.68,25.56H10l2.24-1.78Z" fill="none" stroke="#212121" stroke-miterlimit="10" stroke-width="0.75"/><path d="M12.27,23.78,10,25.56h.35l2.24-1.79Z" fill="none" stroke="#212121" stroke-miterlimit="10" stroke-width="0.75"/><path d="M12.62,23.77l-2.24,1.79h.35L13,23.77Z" fill="none" stroke="#212121" stroke-miterlimit="10" stroke-width="0.75"/><path d="M10.86,23.79,8.63,25.57H9l2.24-1.78Z" fill="none" stroke="#212121" stroke-miterlimit="10" stroke-width="0.75"/><path d="M11.22,23.79,9,25.57h.35l2.24-1.78Z" fill="none" stroke="#212121" stroke-miterlimit="10" stroke-width="0.75"/><path d="M11.57,23.78,9.33,25.56h.35l2.24-1.78Z" fill="none" stroke="#212121" stroke-miterlimit="10" stroke-width="0.75"/><path d="M14,23.76l-2.26,1.79h.35l2.26-1.8Z" fill="none" stroke="#212121" stroke-miterlimit="10" stroke-width="0.75"/><path d="M14.38,23.76l-2.26,1.8h.35l2.26-1.8Z" fill="none" stroke="#212121" stroke-miterlimit="10" stroke-width="0.75"/><path d="M13,23.77l-2.24,1.79h.35l2.24-1.78Z" fill="none" stroke="#212121" stroke-miterlimit="10" stroke-width="0.75"/><path d="M13.67,23.76l-2.24,1.79h.34L14,23.76Z" fill="none" stroke="#212121" stroke-miterlimit="10" stroke-width="0.75"/><path d="M7.68,23.83H7.32L5.18,25.55l2.14-1.71H7L5,25.38,7,23.85H6.61l-1.7,1.36,1.7-1.36H6.25L4.77,25l1.48-1.18H5.9l-1.26,1,1.26-1H5.54l-1,.82,1-.82H5.18l-.81.64.87,1.1h.19Z" fill="none" stroke="#212121" stroke-miterlimit="10" stroke-width="0.75"/><path d="M7.68,23.83l-2.25,1.8h.36L8,23.83Z" fill="none" stroke="#212121" stroke-miterlimit="10" stroke-width="0.75"/><path d="M8,23.83,5.79,25.62h.36l2.24-1.79Z" fill="none" stroke="#212121" stroke-miterlimit="10" stroke-width="0.75"/><path d="M8.74,23.82,6.5,25.6h.36L9.1,23.81Z" fill="none" stroke="#212121" stroke-miterlimit="10" stroke-width="0.75"/><path d="M8.39,23.82,6.15,25.61H6.5l2.24-1.78Z" fill="none" stroke="#212121" stroke-miterlimit="10" stroke-width="0.75"/><path d="M14.73,23.76l-2.26,1.8h.34l2.27-1.81Z" fill="none" stroke="#212121" stroke-miterlimit="10" stroke-width="0.75"/><path d="M10.51,23.79,8.27,25.57h.36l2.23-1.78Z" fill="none" stroke="#212121" stroke-miterlimit="10" stroke-width="0.75"/><path d="M4.82,23.9l-.58.46.13.17.81-.64Z" fill="none" stroke="#212121" stroke-miterlimit="10" stroke-width="0.75"/><path d="M10.16,23.8,7.92,25.58h.35l2.24-1.78Z" fill="none" stroke="#212121" stroke-miterlimit="10" stroke-width="0.75"/><path d="M9.81,23.8,7.57,25.58h.35l2.24-1.78Z" fill="none" stroke="#212121" stroke-miterlimit="10" stroke-width="0.75"/><path d="M9.1,23.81,6.86,25.59h.35l2.24-1.78Z" fill="none" stroke="#212121" stroke-miterlimit="10" stroke-width="0.75"/><path d="M9.45,23.81,7.21,25.59h.36L9.81,23.8Z" fill="none" stroke="#212121" stroke-miterlimit="10" stroke-width="0.75"/><path d="M13.32,23.77l-2.24,1.78h.35l2.24-1.79Z" fill="none" stroke="#212121" stroke-miterlimit="10" stroke-width="0.75"/><path d="M20,23.71l-2.35,1.88H18l2.37-1.88Z" fill="none" stroke="#212121" stroke-miterlimit="10" stroke-width="0.75"/><path d="M20.35,23.71,18,25.59h.34l2.38-1.89Z" fill="none" stroke="#212121" stroke-miterlimit="10" stroke-width="0.75"/><path d="M20.7,23.71,18.32,25.6h.35l2.38-1.9Z" fill="none" stroke="#212121" stroke-miterlimit="10" stroke-width="0.75"/><path d="M19.29,23.72,17,25.58h.34l2.35-1.87Z" fill="none" stroke="#212121" stroke-miterlimit="10" stroke-width="0.75"/><path d="M19.64,23.72l-2.35,1.87h.35L20,23.71Z" fill="none" stroke="#212121" stroke-miterlimit="10" stroke-width="0.75"/><path d="M21.76,23.69l-2.41,1.92h.35l2.41-1.92Z" fill="none" stroke="#212121" stroke-miterlimit="10" stroke-width="0.75"/><path d="M21.41,23.7,19,25.6h.34l2.41-1.92Z" fill="none" stroke="#212121" stroke-miterlimit="10" stroke-width="0.75"/><path d="M22.82,23.68l-2.44,1.94h.35l2.45-1.95Z" fill="none" stroke="#212121" stroke-miterlimit="10" stroke-width="0.75"/><path d="M22.11,23.69,19.7,25.61H20l2.43-1.93Z" fill="none" stroke="#212121" stroke-miterlimit="10" stroke-width="0.75"/><path d="M22.47,23.68,20,25.61h.34l2.44-1.94Z" fill="none" stroke="#212121" stroke-miterlimit="10" stroke-width="0.75"/><path d="M25.76,23.82l-2.28,1.82h.35L25.9,24Z" fill="none" stroke="#212121" stroke-miterlimit="10" stroke-width="0.75"/><path d="M23.18,23.67l-2.45,1.95h.34l2.46-2Z" fill="none" stroke="#212121" stroke-miterlimit="10" stroke-width="0.75"/><path d="M23.89,23.66l-2.48,2h.35l2.49-2Z" fill="none" stroke="#212121" stroke-miterlimit="10" stroke-width="0.75"/><path d="M23.53,23.66l-2.46,2h.34l2.48-2Z" fill="none" stroke="#212121" stroke-miterlimit="10" stroke-width="0.75"/><path d="M25,23.63l-2.51,2h.34l2.53-2Z" fill="none" stroke="#212121" stroke-miterlimit="10" stroke-width="0.75"/><path d="M25.6,23.62h-.28l-2.53,2h.35l2.49-2-2.49,2h.34l2.28-1.82Z" fill="none" stroke="#212121" stroke-miterlimit="10" stroke-width="0.75"/><path d="M24.25,23.65l-2.49,2h.34l2.5-2Z" fill="none" stroke="#212121" stroke-miterlimit="10" stroke-width="0.75"/><path d="M24.6,23.64l-2.5,2h.35l2.51-2Z" fill="none" stroke="#212121" stroke-miterlimit="10" stroke-width="0.75"/><path d="M18.94,23.72l-2.33,1.86H17l2.34-1.86Z" fill="none" stroke="#212121" stroke-miterlimit="10" stroke-width="0.75"/><path d="M21.05,23.7l-2.38,1.9H19l2.4-1.9Z" fill="none" stroke="#212121" stroke-miterlimit="10" stroke-width="0.75"/><path d="M17.53,23.74l-2.3,1.83h.34l2.31-1.84Z" fill="none" stroke="#212121" stroke-miterlimit="10" stroke-width="0.75"/><path d="M16.13,23.75l-2.28,1.81h.35l2.28-1.82Z" fill="none" stroke="#212121" stroke-miterlimit="10" stroke-width="0.75"/><path d="M16.48,23.74,14.2,25.56h.34l2.29-1.82Z" fill="none" stroke="#212121" stroke-miterlimit="10" stroke-width="0.75"/><path d="M15.43,23.75l-2.27,1.81h.35l2.27-1.81Z" fill="none" stroke="#212121" stroke-miterlimit="10" stroke-width="0.75"/><path d="M18.59,23.73l-2.33,1.85h.35l2.33-1.86Z" fill="none" stroke="#212121" stroke-miterlimit="10" stroke-width="0.75"/><path d="M15.78,23.75l-2.27,1.81h.34l2.28-1.81Z" fill="none" stroke="#212121" stroke-miterlimit="10" stroke-width="0.75"/><path d="M16.83,23.74l-2.29,1.82h.35l2.29-1.83Z" fill="none" stroke="#212121" stroke-miterlimit="10" stroke-width="0.75"/><path d="M17.18,23.74l-2.29,1.83h.34l2.3-1.83Z" fill="none" stroke="#212121" stroke-miterlimit="10" stroke-width="0.75"/><path d="M18.23,23.73l-2.31,1.85h.34l2.33-1.85Z" fill="none" stroke="#212121" stroke-miterlimit="10" stroke-width="0.75"/><path d="M17.88,23.73l-2.31,1.84h.35l2.31-1.85Z" fill="none" stroke="#212121" stroke-miterlimit="10" stroke-width="0.75"/><path d="M15.08,23.75l-2.27,1.81h.35l2.27-1.81Z" fill="none" stroke="#212121" stroke-miterlimit="10" stroke-width="0.75"/></g><polygon points="7.82 13.49 6.29 13.49 5.79 12.05 5.28 13.49 3.76 13.49 4.97 14.45 4.5 15.9 5.79 15.05 7.08 15.9 6.61 14.45 7.82 13.49" fill="#212121"/><polygon points="26.24 13.49 24.72 13.49 24.21 12.05 23.71 13.49 22.18 13.49 23.39 14.45 22.92 15.9 24.21 15.05 25.5 15.9 25.03 14.45 26.24 13.49" fill="#212121"/><polygon points="7.7 9.96 6.65 9.96 6.3 8.96 5.95 9.96 4.9 9.96 5.73 10.62 5.41 11.62 6.3 11.03 7.19 11.62 6.87 10.62 7.7 9.96" fill="#212121"/><polygon points="25.1 9.96 24.05 9.96 23.7 8.96 23.35 9.96 22.3 9.96 23.14 10.62 22.81 11.62 23.7 11.03 24.59 11.62 24.27 10.62 25.1 9.96" fill="#212121"/><polygon points="8.05 7.15 7.5 7.15 7.32 6.63 7.14 7.15 6.59 7.15 7.03 7.49 6.86 8.01 7.32 7.71 7.79 8.01 7.62 7.49 8.05 7.15" fill="#212121"/><polygon points="23.41 7.15 22.86 7.15 22.68 6.63 22.5 7.15 21.95 7.15 22.38 7.49 22.21 8.01 22.68 7.71 23.14 8.01 22.97 7.49 23.41 7.15" fill="#212121"/><rect width="30" height="30" fill="none"/></svg>