<!-- Copyright (c) 2023 Jan Stehno -->
<svg xmlns="http://www.w3.org/2000/svg" viewBox="0 0 300 300">
    <title>mississippiacrespreserve</title>
    <g id="mississippiacrespreserve">
        <g id="stars">
            <polygon
                points="171.88 179.91 155.46 179.91 150 164.42 144.54 179.91 128.12 179.91 141.16 190.29 136.09 205.91 150 196.71 163.91 205.91 158.84 190.29 171.88 179.91"
                fill="#212121" stroke="#212121" stroke-miterlimit="10" />
            <polygon
                points="217.49 190.69 204.9 190.69 200.72 178.82 196.54 190.69 183.95 190.69 193.95 198.65 190.06 210.61 200.72 203.57 211.38 210.61 207.49 198.65 217.49 190.69"
                fill="#212121" stroke="#212121" stroke-miterlimit="10" />
            <polygon
                points="116.05 190.69 103.46 190.69 99.28 178.82 95.09 190.69 82.51 190.69 92.51 198.65 88.62 210.61 99.28 203.57 109.94 210.61 106.05 198.65 116.05 190.69"
                fill="#212121" stroke="#212121" stroke-miterlimit="10" />
        </g>
        <g id="border">
            <polygon
                points="258.3 169.64 241.11 163.25 226.93 163.16 226.93 160.91 278.49 160.91 278.49 163.16 258.2 163.16 258.3 169.64"
                fill="#212121" stroke="#212121" stroke-miterlimit="10" />
            <path d="M238.92,228.41c15-15.39,18-30.4,18.81-39.51.94-11.09,1.31-15.83,0-25.67"
                transform="translate(0)" fill="none" stroke="#212121" stroke-miterlimit="10"
                stroke-width="4" />
            <path d="M88.87,249C113.68,263.87,150,282.35,150,282.35s36.7-18.68,61.52-33.61"
                transform="translate(0)" fill="none" stroke="#212121" stroke-miterlimit="10"
                stroke-width="4" />
            <path d="M42.27,163.23c-1.31,9.84-.94,14.58,0,25.67.76,9,3.73,23.66,18.12,38.79"
                transform="translate(0)" fill="none" stroke="#212121" stroke-miterlimit="10"
                stroke-width="4" />
            <path
                d="M250.78,232.79c11.59-14.6,14.24-28.27,15.81-37.09,2.2-12.38,2.25-17.54,1.83-28.6"
                transform="translate(0)" fill="none" stroke="#212121" stroke-miterlimit="10"
                stroke-width="2" />
            <path d="M70.19,252.16c23.59,16.62,79.81,46.7,79.81,46.7s61-32.63,82.57-48.69"
                transform="translate(0)" fill="none" stroke="#212121" stroke-miterlimit="10"
                stroke-width="2" />
            <path d="M31.58,167.1c-.42,11.06-.37,16.22,1.83,28.6,1.51,8.5,4,21.49,14.57,35.5"
                transform="translate(0)" fill="none" stroke="#212121" stroke-miterlimit="10"
                stroke-width="2" />
            <polygon
                points="41.7 169.64 58.89 163.25 73.07 163.16 73.07 160.91 21.51 160.91 21.51 163.16 41.8 163.16 41.7 169.64"
                fill="#212121" stroke="#212121" stroke-miterlimit="10" />
        </g>
        <g id="border-2" data-name="border">
            <rect x="237.35" y="101.17" width="41.14" height="2.25" fill="#212121" stroke="#212121"
                stroke-miterlimit="10" />
            <rect x="21.51" y="101.17" width="41.14" height="2.25" fill="#212121" stroke="#212121"
                stroke-miterlimit="10" />
            <path
                d="M47.57,102.29S49,87.22,43.35,65.8s-8.46-26.91-8.46-26.91S82,10.62,148.12,10.62h3.76c66.12,0,113.23,28.27,113.23,28.27s-2.82,5.5-8.46,26.91-4.22,36.49-4.22,36.49"
                transform="translate(0)" fill="none" stroke="#212121" stroke-miterlimit="10"
                stroke-width="4" />
            <path
                d="M37.78,96.24S38.13,84.73,31,59.18a180,180,0,0,0-8.92-24.79S74.88,1.13,148,1.14H152c73.15,0,126,33.25,126,33.25A180,180,0,0,0,269,59.18c-7.14,25.55-6.79,37.06-6.79,37.06"
                transform="translate(0)" fill="none" stroke="#212121" stroke-miterlimit="10"
                stroke-width="2" />
        </g>
        <polygon
            points="66.31 258.03 31.46 273.34 34.38 251.64 20 240.74 43.39 231.92 47.99 260.65 66.31 258.03"
            fill="#212121" />
        <polygon
            points="233.69 258.03 268.54 273.34 265.62 251.64 280 240.74 256.61 231.92 252 260.65 233.69 258.03"
            fill="#212121" />
        <path
            d="M177,230.82l-.61,0c-.1,2.66-.21,5.33-.32,8l.6,0a4.55,4.55,0,0,0,3.12-.82,3.88,3.88,0,0,0,1.21-3,3.84,3.84,0,0,0-1-3A4.32,4.32,0,0,0,177,230.82Z"
            transform="translate(0)" fill="#212121" />
        <path
            d="M200.44,231.9a1.71,1.71,0,0,0-1.63,1.13,8.76,8.76,0,0,0-.46,6.1c.3.86.78,1.32,1.43,1.37s1.19-.33,1.62-1.13a7.76,7.76,0,0,0,.79-3,7.66,7.66,0,0,0-.31-3.09C201.58,232.41,201.1,232,200.44,231.9Z"
            transform="translate(0)" fill="#212121" />
        <path
            d="M120.75,235.18l-1.25,0,.18,3.82L121,239a2.61,2.61,0,0,0,1.69-.57,1.91,1.91,0,0,0-.14-2.8A2.66,2.66,0,0,0,120.75,235.18Z"
            transform="translate(0)" fill="#212121" />
        <path d="M108.22,236.92l3-.19L109.55,233C109.1,234.3,108.66,235.61,108.22,236.92Z"
            transform="translate(0)" fill="#212121" />
        <path
            d="M121.76,233.77a1.56,1.56,0,0,0,.51-1.32,1.42,1.42,0,0,0-.62-1.23,2.6,2.6,0,0,0-1.57-.34l-.78,0,.16,3.44.87,0A2.24,2.24,0,0,0,121.76,233.77Z"
            transform="translate(0)" fill="#212121" />
        <path
            d="M45.86,227.22q2.39,15,4.76,30a635.73,635.73,0,0,1,198.75,0l4.77-30A665.59,665.59,0,0,0,45.86,227.22Zm40.41,15.13c-2.7.27-5.4.55-8.11.86l-.07-.65,1.35-.46-.87-7.9-1.43-.15-.07-.64q4-.45,7.94-.85c.09,1,.19,1.92.29,2.88l-.72.07c-.28-.63-.57-1.25-.85-1.88l-3.3.23.39,3.61,3.24-.6.13,1.24-3.3.09c.14,1.28.28,2.56.41,3.84l3.53-.48c.18-.73.37-1.45.55-2.18l.71-.07Zm7.85-1.21a4.54,4.54,0,0,1-2.54.92l-1.4.06a11.77,11.77,0,0,1-2.13-.18l-.26-2.77.69-.06c.32.67.65,1.35,1,2a5.55,5.55,0,0,0,1.49,0,4.05,4.05,0,0,0,1.86-.55,1.29,1.29,0,0,0,.62-1.28,1.35,1.35,0,0,0-.75-1,9.32,9.32,0,0,0-2-.8,7.76,7.76,0,0,1-2.52-1.11,2.45,2.45,0,0,1-.84-1.8,2,2,0,0,1,.83-1.9,4.72,4.72,0,0,1,2.55-.89,13.65,13.65,0,0,1,3.15.05c.06.9.11,1.8.16,2.7l-.68.06c-.32-.65-.63-1.3-.94-2a8.19,8.19,0,0,0-1.31,0,3.07,3.07,0,0,0-1.62.53,1.18,1.18,0,0,0,.13,2,9.71,9.71,0,0,0,2,.73c.49.14.89.27,1.22.39a6.83,6.83,0,0,1,1,.53,2.45,2.45,0,0,1,.88.84,2.77,2.77,0,0,1,.36,1.17A2.47,2.47,0,0,1,94.12,241.14Zm9.24-9.21-2.2,0,.6,8.06,1.41.21,0,.64-4.62.36,0-.65,1.36-.42-.63-8.06-2.2.29c-.17.7-.34,1.4-.5,2.1l-.72.06-.24-3q4.53-.37,9.08-.69l.21,3-.71.05Zm12.49,8.17-4.43.25,0-.65,1.11-.3-.84-1.86-3.71.23-.66,1.91,1.35.19,0,.65-3.8.26,0-.65,1.39-.41q1.53-4.59,3.11-9.19l1.1-.07q2,4.38,4,8.77l1.41.22ZM124.2,239a4.5,4.5,0,0,1-2.7.87l-5,.24,0-.65,1.37-.38-.39-7.94-1.42-.23,0-.65,4.39-.22q3.73-.17,3.83,2.24a2,2,0,0,1-.44,1.37,2.84,2.84,0,0,1-1.31.89v0a3.41,3.41,0,0,1,2,.78,2.11,2.11,0,0,1,.74,1.59A2.42,2.42,0,0,1,124.2,239Zm10.43.42c-2.71.06-5.43.15-8.14.25l0-.65,1.37-.36-.27-7.94-1.42-.26,0-.65,4.7-.16,0,.65-1.4.35c.08,2.66.17,5.32.25,8l3.55-.11.76-2.13.7,0C134.68,237.35,134.65,238.36,134.63,239.38Zm5.67-9.33-1.4.34q.06,4,.13,7.94l1.39.29v.65l-4.63.08v-.65l1.4-.33c-.05-2.65-.11-5.3-.16-8l-1.43-.28v-.65l4.7-.08Zm7.85,8.67a4.45,4.45,0,0,1-2.6.7c-.29,0-.75,0-1.4-.06A11.73,11.73,0,0,1,142,239l0-2.78h.7l.79,2.11a5.48,5.48,0,0,0,1.48.17,4.09,4.09,0,0,0,1.9-.4,1.3,1.3,0,0,0,.72-1.22,1.34,1.34,0,0,0-.65-1.1,9.42,9.42,0,0,0-1.92-1,7.81,7.81,0,0,1-2.42-1.32,2.47,2.47,0,0,1-.69-1.86,2,2,0,0,1,1-1.83,4.76,4.76,0,0,1,2.61-.67,13.43,13.43,0,0,1,3.14.31c0,.9,0,1.8-.07,2.7h-.69c-.25-.68-.51-1.36-.77-2a8.05,8.05,0,0,0-1.3-.11,3.09,3.09,0,0,0-1.65.4,1.17,1.17,0,0,0-.05,2,9.46,9.46,0,0,0,1.89.89,11.33,11.33,0,0,1,1.18.5,6.72,6.72,0,0,1,1,.61,2.48,2.48,0,0,1,.8.91,2.65,2.65,0,0,1,.27,1.2A2.49,2.49,0,0,1,148.15,238.72Zm13.8-8.63-1.41.29-.13,7.94,1.39.34,0,.64c-1.54,0-3.08-.05-4.62-.06v-.65l1.39-.29,0-3.57-4.69,0c0,1.18,0,2.37,0,3.56l1.39.32v.65l-4.63,0v-.65l1.39-.31,0-7.94-1.41-.32v-.65l4.7,0V230l-1.41.3c0,1.15,0,2.3,0,3.46l4.69,0c0-1.15,0-2.3,0-3.45l-1.4-.33v-.65l4.7.07Zm9.3,9.46c-2.71-.09-5.43-.16-8.14-.22v-.65l1.4-.28.18-7.94-1.4-.34v-.65q4,.08,8,.21l-.1,2.89-.71,0-.6-2-3.3-.21-.09,3.64,3.29-.18,0,1.25-3.27-.34c0,1.28-.06,2.57-.1,3.86l3.55,0,.84-2.08.71,0C171.4,237.52,171.32,238.53,171.25,239.55Zm9.82-1a6.62,6.62,0,0,1-4.38,1.17c-1.3-.06-2.61-.11-3.92-.15l0-.65,1.4-.26c.09-2.65.19-5.29.29-7.94l-1.39-.36,0-.65,4,.15a7,7,0,0,1,4.37,1.44,4.87,4.87,0,0,1-.4,7.25Zm12.82,2.11q-3.28-.23-6.58-.41l.05-.85,1.37-1.22c.33-.29.7-.66,1.14-1.11s.81-.89,1.14-1.32a9.8,9.8,0,0,0,.88-1.38,3.55,3.55,0,0,0,.41-1.36,1.9,1.9,0,0,0-.36-1.37,1.53,1.53,0,0,0-1.18-.59l-1.9,1.41a1.89,1.89,0,0,1-.78-1.55,7.36,7.36,0,0,1,3.29-.51,3.82,3.82,0,0,1,2.14.72,2,2,0,0,1,.74,1.78,4,4,0,0,1-.53,1.68,7.94,7.94,0,0,1-1.3,1.7c-.55.56-1,1-1.51,1.43s-1,.82-1.59,1.29l3.61.23c.3-.49.61-1,.92-1.47l.66.05C194.3,238.79,194.1,239.74,193.89,240.69Zm8.85-.57a3.69,3.69,0,0,1-5.83-.45,6.08,6.08,0,0,1-.82-3.77,6,6,0,0,1,1.36-3.62,3.76,3.76,0,0,1,5.9.45,6.86,6.86,0,0,1-.61,7.39Zm8.75,2q-3.28-.31-6.57-.59l.07-.85,1.41-1.17c.33-.29.71-.65,1.16-1.09a15,15,0,0,0,1.18-1.29,7.43,7.43,0,0,0,.91-1.35,3.51,3.51,0,0,0,.46-1.34,2,2,0,0,0-.33-1.39,1.53,1.53,0,0,0-1.16-.62l-1.94,1.36a1.85,1.85,0,0,1-.73-1.58,7.35,7.35,0,0,1,3.29-.41,3.71,3.71,0,0,1,2.12.78,1.94,1.94,0,0,1,.7,1.8,3.9,3.9,0,0,1-.58,1.66,7.74,7.74,0,0,1-1.35,1.67c-.56.54-1.08,1-1.54,1.38s-1,.8-1.63,1.24l3.6.33,1-1.44.67.07C212,240.24,211.72,241.19,211.49,242.13Zm6.61.67-4.84-.5.06-.6,1.76-.11c.25-2.5.51-5,.76-7.51l-1.9.53-.18-.6,3.37-1.23.71.08-.93,8.94,1.25.4Z"
            transform="translate(0)" fill="#212121" />
        <path
            d="M21.46,135v-2.21l3.86-.91,1.26-21.5L23,109.55l.08-2.18H33.16l8.37,18.81,8.7-18.81h9.83v2.18l-3.62.81,1.43,21.54,3.9.87V135H47.5v-2.21l3.58-.83L50,115.34l-9.1,19.84H38.24l-8.82-20-.93,16.72,3.61.83V135Z"
            transform="translate(0)" fill="#212121" />
        <path
            d="M63.64,135v-2.21l3.73-.87V110.44l-3.73-.86v-2.21h14.1v2.21l-3.74.86V131.9l3.74.87V135Z"
            transform="translate(0)" fill="#212121" />
        <path
            d="M81.07,133.72v-7.26h2.27L85.41,132a13,13,0,0,0,4.27.59,11.2,11.2,0,0,0,4.78-.94,3,3,0,0,0,2-2.8,3.7,3.7,0,0,0-.1-.83,2.55,2.55,0,0,0-.35-.75c-.16-.24-.33-.45-.49-.65a3.21,3.21,0,0,0-.73-.63c-.32-.23-.61-.41-.85-.56l-1.08-.57c-.47-.23-1.31-.63-2.5-1.18L88.91,123a16.94,16.94,0,0,1-5.77-4,7.61,7.61,0,0,1-1.75-5.1,6.06,6.06,0,0,1,2.76-5.19,12.17,12.17,0,0,1,7.16-2,29.62,29.62,0,0,1,8.85,1.23v7.26H97.89l-2-5.29a15.15,15.15,0,0,0-3.21-.35,9.54,9.54,0,0,0-4.11.8,2.56,2.56,0,0,0-1.7,2.35,2.73,2.73,0,0,0,1.36,2.31,31.85,31.85,0,0,0,4.85,2.43l.82.35a17.36,17.36,0,0,1,6.09,4,7.86,7.86,0,0,1,2,5.37,7.44,7.44,0,0,1-1.52,4.83,8.32,8.32,0,0,1-4,2.68,18.22,18.22,0,0,1-5.65.81A26,26,0,0,1,81.07,133.72Z"
            transform="translate(0)" fill="#212121" />
        <path
            d="M105.57,133.72v-7.26h2.27l2.08,5.52a13,13,0,0,0,4.26.59,11.17,11.17,0,0,0,4.78-.94,3,3,0,0,0,2-2.8,3.7,3.7,0,0,0-.1-.83,2.55,2.55,0,0,0-.35-.75,6.89,6.89,0,0,0-.49-.65,3.21,3.21,0,0,0-.73-.63c-.32-.23-.61-.41-.85-.56s-.6-.33-1.08-.57-1.31-.63-2.5-1.18l-1.46-.67a17,17,0,0,1-5.77-4,7.66,7.66,0,0,1-1.75-5.1,6,6,0,0,1,2.77-5.19,12.11,12.11,0,0,1,7.15-2,29.69,29.69,0,0,1,8.86,1.23v7.26h-2.28l-2-5.29a15.15,15.15,0,0,0-3.21-.35,9.46,9.46,0,0,0-4.1.8,2.55,2.55,0,0,0-1.71,2.35,2.73,2.73,0,0,0,1.36,2.31,32.09,32.09,0,0,0,4.86,2.43l.81.35a17.36,17.36,0,0,1,6.09,4,7.86,7.86,0,0,1,2,5.37,7.39,7.39,0,0,1-1.52,4.83,8.32,8.32,0,0,1-4,2.68,18.17,18.17,0,0,1-5.65.81A26,26,0,0,1,105.57,133.72Z"
            transform="translate(0)" fill="#212121" />
        <path
            d="M129.42,135v-2.21l3.74-.87V110.44l-3.74-.86v-2.21h14.1v2.21l-3.74.86V131.9l3.74.87V135Z"
            transform="translate(0)" fill="#212121" />
        <path
            d="M146.85,133.72v-7.26h2.28L151.2,132a13,13,0,0,0,4.27.59,11.12,11.12,0,0,0,4.77-.94,3,3,0,0,0,2-2.8,3.2,3.2,0,0,0-.1-.83,2.32,2.32,0,0,0-.35-.75c-.16-.24-.32-.45-.48-.65a3.54,3.54,0,0,0-.74-.63c-.32-.23-.6-.41-.85-.56s-.6-.33-1.08-.57-1.3-.63-2.49-1.18l-1.47-.67a17,17,0,0,1-5.77-4,7.66,7.66,0,0,1-1.74-5.1,6.06,6.06,0,0,1,2.76-5.19,12.11,12.11,0,0,1,7.15-2A29.69,29.69,0,0,1,166,108v7.26h-2.28l-2-5.29a15.15,15.15,0,0,0-3.21-.35,9.49,9.49,0,0,0-4.1.8,2.55,2.55,0,0,0-1.71,2.35,2.73,2.73,0,0,0,1.36,2.31,32.09,32.09,0,0,0,4.86,2.43l.81.35a17.42,17.42,0,0,1,6.1,4,7.86,7.86,0,0,1,2,5.37,7.39,7.39,0,0,1-1.53,4.83,8.27,8.27,0,0,1-4,2.68,18.13,18.13,0,0,1-5.65.81A26,26,0,0,1,146.85,133.72Z"
            transform="translate(0)" fill="#212121" />
        <path
            d="M171.35,133.72v-7.26h2.28L175.7,132a13,13,0,0,0,4.27.59,11.12,11.12,0,0,0,4.77-.94,3,3,0,0,0,2-2.8,3.2,3.2,0,0,0-.1-.83,2.52,2.52,0,0,0-.34-.75c-.17-.24-.33-.45-.49-.65a3.45,3.45,0,0,0-.73-.63c-.33-.23-.61-.41-.86-.56s-.6-.33-1.07-.57-1.31-.63-2.5-1.18l-1.47-.67a16.88,16.88,0,0,1-5.76-4,7.61,7.61,0,0,1-1.75-5.1,6.06,6.06,0,0,1,2.76-5.19,12.13,12.13,0,0,1,7.15-2,29.69,29.69,0,0,1,8.86,1.23v7.26h-2.28l-2-5.29a15.15,15.15,0,0,0-3.21-.35,9.49,9.49,0,0,0-4.1.8,2.55,2.55,0,0,0-1.71,2.35,2.75,2.75,0,0,0,1.36,2.31,32.09,32.09,0,0,0,4.86,2.43l.81.35a17.42,17.42,0,0,1,6.1,4,7.86,7.86,0,0,1,2,5.37,7.39,7.39,0,0,1-1.53,4.83,8.27,8.27,0,0,1-4,2.68,18.13,18.13,0,0,1-5.65.81A26,26,0,0,1,171.35,133.72Z"
            transform="translate(0)" fill="#212121" />
        <path
            d="M195.2,135v-2.21l3.74-.87V110.44l-3.74-.86v-2.21h14.1v2.21l-3.73.86V131.9l3.73.87V135Z"
            transform="translate(0)" fill="#212121" />
        <path
            d="M212,135v-2.21l3.73-.87V110.44l-3.73-.86v-2.21h11.49q5.9,0,9.15,2c2.16,1.33,3.25,3.54,3.25,6.65a8,8,0,0,1-1,4.12,7.47,7.47,0,0,1-2.82,2.76,14.9,14.9,0,0,1-3.94,1.5,20.94,20.94,0,0,1-4.68.49h-1.05v7l5,.87V135Zm10.36-13h.85a6.1,6.1,0,0,0,4.2-1.52,5.6,5.6,0,0,0,1.73-4.47,5.5,5.5,0,0,0-1.6-4.3,5.76,5.76,0,0,0-4.05-1.46h-1.13Z"
            transform="translate(0)" fill="#212121" />
        <path
            d="M237.87,135v-2.21l3.74-.87V110.44l-3.74-.86v-2.21h11.5q5.88,0,9.14,2c2.17,1.33,3.25,3.54,3.25,6.65a8,8,0,0,1-1,4.12,7.47,7.47,0,0,1-2.82,2.76,14.77,14.77,0,0,1-3.94,1.5,20.85,20.85,0,0,1-4.67.49h-1.06v7l5,.87V135Zm10.36-13h.85a6.12,6.12,0,0,0,4.21-1.52A5.64,5.64,0,0,0,255,116a5.51,5.51,0,0,0-1.61-4.3,5.75,5.75,0,0,0-4-1.46h-1.14Z"
            transform="translate(0)" fill="#212121" />
        <path
            d="M263.75,135v-2.21l3.74-.87V110.44l-3.74-.86v-2.21h14.1v2.21l-3.74.86V131.9l3.74.87V135Z"
            transform="translate(0)" fill="#212121" />
        <path
            d="M55.2,157V155.7l2.12-.52,5.18-14.11h1.88l4.85,14.11,2.07.52V157H64V155.7l1.53-.39-.93-2.7H60l-1,2.64,1.82.45V157Zm5.41-5.91H64l-1.69-4.8Z"
            transform="translate(0)" fill="#212121" />
        <path
            d="M71.54,149.07a8.53,8.53,0,0,1,2-6.09,7.76,7.76,0,0,1,5.91-2.14,11,11,0,0,1,2.26.26,8.91,8.91,0,0,1,2,.62v4.17H82.49l-.95-3.2a7,7,0,0,0-1.23-.13,4.68,4.68,0,0,0-3.94,1.57,8,8,0,0,0-1.24,4.94A8.33,8.33,0,0,0,76.3,154a4.21,4.21,0,0,0,3.64,1.58,7,7,0,0,0,1.21-.11l1.6-3.42H84l-.56,4.14a8.88,8.88,0,0,1-1.94.77,8.23,8.23,0,0,1-2.34.34,7.23,7.23,0,0,1-5.61-2.15A8.7,8.7,0,0,1,71.54,149.07Z"
            transform="translate(0)" fill="#212121" />
        <path
            d="M85.52,157V155.7l2-.5V142.94l-2-.5v-1.26H92.3a7.44,7.44,0,0,1,4.51,1.14,3.82,3.82,0,0,1,1.5,3.23,4,4,0,0,1-2.92,4l3,5.73,2.08.53V157H95.24l-3.44-6.83H91v5.07l1.88.5V157ZM91,148.55h.63a3.09,3.09,0,0,0,2.31-.81,3,3,0,0,0,.8-2.19,2.54,2.54,0,0,0-.82-2,3.31,3.31,0,0,0-2.31-.74H91Z"
            transform="translate(0)" fill="#212121" />
        <path
            d="M101,157V155.7l2-.5V142.94l-2-.5v-1.26h11.49v4.62h-1.27l-.87-2.91h-3.83v5.26l4-.39V150l-4-.33v5.59h3.87l1.48-3.16h1.27l-.65,4.87Z"
            transform="translate(0)" fill="#212121" />
        <path
            d="M115,156.24v-4.15h1.22l1.1,3.16a6.68,6.68,0,0,0,2.27.33,5.57,5.57,0,0,0,2.54-.54,1.7,1.7,0,0,0,1.07-1.6,1.83,1.83,0,0,0-.05-.47,1.78,1.78,0,0,0-.18-.43l-.26-.37a2.36,2.36,0,0,0-.39-.36l-.46-.32c-.13-.08-.32-.19-.57-.32s-.7-.36-1.33-.68l-.78-.38a9,9,0,0,1-3.07-2.27,4.58,4.58,0,0,1-.93-2.92,3.53,3.53,0,0,1,1.47-3,6.09,6.09,0,0,1,3.81-1.12,15,15,0,0,1,4.71.7v4.15h-1.21l-1.06-3a7.37,7.37,0,0,0-1.71-.2,4.71,4.71,0,0,0-2.18.46,1.44,1.44,0,0,0-.91,1.34,1.6,1.6,0,0,0,.72,1.32,17.45,17.45,0,0,0,2.59,1.38l.43.21a9.2,9.2,0,0,1,3.25,2.3,4.67,4.67,0,0,1,1,3.06,4.38,4.38,0,0,1-.82,2.76,4.43,4.43,0,0,1-2.13,1.54,9.27,9.27,0,0,1-3,.46A13.22,13.22,0,0,1,115,156.24Z"
            transform="translate(0)" fill="#212121" />
        <path
            d="M132.48,157V155.7l2-.5V142.94l-2-.5v-1.26h6.13a8.78,8.78,0,0,1,4.86,1.14,4.19,4.19,0,0,1,1.74,3.8,4.78,4.78,0,0,1-.56,2.35,4,4,0,0,1-1.5,1.58,7.67,7.67,0,0,1-2.1.86,10.26,10.26,0,0,1-2.49.28H138v4l2.64.5V157Zm5.52-7.42h.45a3.17,3.17,0,0,0,2.24-.86,3.34,3.34,0,0,0,.92-2.56,3.28,3.28,0,0,0-.85-2.46,2.94,2.94,0,0,0-2.15-.83H138Z"
            transform="translate(0)" fill="#212121" />
        <path
            d="M146.27,157V155.7l2-.5V142.94l-2-.5v-1.26H153a7.4,7.4,0,0,1,4.51,1.14,3.83,3.83,0,0,1,1.51,3.23,4,4,0,0,1-2.93,4l3,5.73,2.08.53V157H156l-3.44-6.83h-.75v5.07l1.88.5V157Zm5.52-8.41h.62a3.13,3.13,0,0,0,2.32-.81,3,3,0,0,0,.8-2.19,2.58,2.58,0,0,0-.82-2,3.32,3.32,0,0,0-2.32-.74h-.6Z"
            transform="translate(0)" fill="#212121" />
        <path
            d="M161.72,157V155.7l2-.5V142.94l-2-.5v-1.26h11.49v4.62h-1.28l-.86-2.91h-3.83v5.26l4-.39V150l-4-.33v5.59h3.87l1.47-3.16h1.28l-.65,4.87Z"
            transform="translate(0)" fill="#212121" />
        <path
            d="M175.7,156.24v-4.15h1.21l1.1,3.16a6.78,6.78,0,0,0,2.28.33,5.6,5.6,0,0,0,2.54-.54,1.72,1.72,0,0,0,1.07-1.6,2.42,2.42,0,0,0-.05-.47,1.49,1.49,0,0,0-.19-.43c-.09-.13-.17-.26-.26-.37a2,2,0,0,0-.39-.36l-.45-.32c-.13-.08-.32-.19-.58-.32s-.69-.36-1.33-.68l-.78-.38a9.11,9.11,0,0,1-3.07-2.27,4.58,4.58,0,0,1-.93-2.92,3.53,3.53,0,0,1,1.47-3,6.09,6.09,0,0,1,3.81-1.12,15.05,15.05,0,0,1,4.72.7v4.15h-1.21l-1.06-3a7.43,7.43,0,0,0-1.71-.2,4.78,4.78,0,0,0-2.19.46,1.44,1.44,0,0,0-.91,1.34,1.59,1.59,0,0,0,.73,1.32A16.7,16.7,0,0,0,182.1,147l.44.21a9.06,9.06,0,0,1,3.24,2.3,4.61,4.61,0,0,1,1,3.06,4.25,4.25,0,0,1-2.94,4.3,9.28,9.28,0,0,1-3,.46A13.18,13.18,0,0,1,175.7,156.24Z"
            transform="translate(0)" fill="#212121" />
        <path
            d="M188.4,157V155.7l2-.5V142.94l-2-.5v-1.26h11.49v4.62h-1.28l-.86-2.91h-3.83v5.26l4-.39V150l-4-.33v5.59h3.87l1.47-3.16h1.28l-.65,4.87Z"
            transform="translate(0)" fill="#212121" />
        <path
            d="M202,157V155.7l2-.5V142.94l-2-.5v-1.26h6.78a7.42,7.42,0,0,1,4.51,1.14,3.82,3.82,0,0,1,1.5,3.23,4,4,0,0,1-2.92,4l3,5.73,2.08.53V157h-5.26l-3.44-6.83h-.76v5.07l1.89.5V157Zm5.52-8.41h.63a3.13,3.13,0,0,0,2.32-.81,3,3,0,0,0,.8-2.19,2.55,2.55,0,0,0-.83-2,3.29,3.29,0,0,0-2.31-.74h-.61Z"
            transform="translate(0)" fill="#212121" />
        <path
            d="M215.58,142.44v-1.26h7.49v1.26l-1.78.39,3.27,9.33,3-9.22-1.71-.5v-1.26h5.45v1.26l-2,.5-4.72,14.18h-2.1l-5-14.18Z"
            transform="translate(0)" fill="#212121" />
        <path
            d="M231.88,157V155.7l2-.5V142.94l-2-.5v-1.26h11.49v4.62h-1.28l-.86-2.91h-3.84v5.26l4-.39V150l-4-.33v5.59h3.88l1.47-3.16H244l-.65,4.87Z"
            transform="translate(0)" fill="#212121" />
        <path id="crocodille"
            d="M231.13,83.06c-1.2-3.24-5.38-4-5.38-4a56.24,56.24,0,0,0-4.6-6.24,27.63,27.63,0,0,0-6.62-5.92,16.4,16.4,0,0,0-1.46-3.33,15.78,15.78,0,0,0-3.45-4.28,2.18,2.18,0,0,1,1.67-.28c.8.28,13.9,5.68,13.9,5.68L222,61.91,229.14,63l-3-1.88L231.77,60l-5.83-1.88,4.13-1.5s-7.7-.57-11.27-1.88-7-7-12-7S198,51.57,198,51.57s-17.09-11.46-25.73-13.52-11.84-4.89-11.84-4.89l-1.69,1.51L156.25,32l-.38,2.06L151,31.66v1.88l-5.64-2.82-.19,2.07-5.63-1.88L139,33.35l-6-3V33L126,31.85l1.13,2.44-8.83-1.5L120,35.23l-7.89-.75,1.51,2.44h-7.89l1.12,1.88H98.76l1.32,2.07-8.27-.19,1.51,2.82H85.8l1.32,3.57-6.58-1.32,2.07,3.76-4.89-.19L79,51.57l-6,.57,1.69,1.69L70,55,71.15,57l-3,.75A40.07,40.07,0,0,0,71,71.67c2.82,6.58,9.77,8.83,25.55,9.77s44.38-3.24,44.38-3.24-21.56-3.31-29.45-4.86S88.15,68,84.72,65.57s-3.61-4.74-3.61-4.74a10.62,10.62,0,0,0,3.19,3.61,10.09,10.09,0,0,0,4.23,1.22s3.57-2.53,11.6-3.66a46.48,46.48,0,0,1,15.27.57s-.15.84-.29,1.9-.42,4.93,2.82,7.32,9,2.78,9,2.78l-.28-1.86,6.55.74-2.36-2.33,3.87.28-2.5-2.57,3.66-.45,13.07,4.19a38.53,38.53,0,0,1-.75,7.18c-.66,2.21-4.74,5.12-4.74,5.12a19.92,19.92,0,0,0,3.61-.75,17.9,17.9,0,0,0,3.53-1.5l-1.93,3.61a10.33,10.33,0,0,0,2.72-.94c1.37-.7,3-3.19,3-3.19l2.44,3.52.05-3.8,2.91,1.69a11.25,11.25,0,0,1-1.73-5.4c-.33-3.52,1.65-9.23,1.65-9.23a24.11,24.11,0,0,0-.36,3.72c0,1.77.24,3.41,1.92,3.44s2.23,1.53,4.14,4.35,6.12,5.84,11.27,7.89,11.16.84,14.16-.22c2.61-.92,3.38.15,11.34,2.4s21.55,4.12,26,1.23S232.29,86.21,231.13,83.06Zm-97.94-22.9c-1.07,1.79.09-1.44.3-4s.29-3.81-1.76-7.29-11.16-5.39-6.55-4.79,8.24,2.71,9.41,6.23S133.52,59.6,133.19,60.16Zm28.06-1.75a11.54,11.54,0,0,0-6.59-4.16c-2.92-.56-5.83.59-6.87,3.17s.31,8.24,1.65,8.85,3.51,2,3.31,2.73c-.12.47-.83-.43-1.73-.73s-2.73-1.06-2.87-2-1.48-4.65-2.4-7.25.92-4.51,2.61-5.57,6.62-3,10.21.56a22,22,0,0,1,5,8A23.21,23.21,0,0,0,161.25,58.41ZM192,66.51c.89.17,1.18-.41,3,.16,2.16.67,3.17,2.11,3.19,2.9s-.47,0-1.21-.17-.69.4-2.44-.29-3.69-2.09-4-2.83S191.12,66.33,192,66.51Zm19.61,22.93a4.65,4.65,0,0,0-1-1.44,9.32,9.32,0,0,1-.16,1.26A1.89,1.89,0,0,1,210,90a4.47,4.47,0,0,0-.23-1,3.56,3.56,0,0,0-.94-1s-.08,1.47-.45,1.83-.68-.15-.89-.8S205,86.7,203,85.25s-2.44-1.51-4.22-1.37-2.82-.65-4.56-2.53-7.09-3.71-10.1-4.93S181,73.88,181,73.88c1,1.08,5.87,1.5,10.38,3.22s5.35,4.41,6.31,4.62,2.33-.3,3.06-.21,3.26,2.84,5.84,4.63a9.75,9.75,0,0,0,6.11,1.29,5.56,5.56,0,0,0-.16,1.64,5.17,5.17,0,0,0,.83,2.14A6.11,6.11,0,0,1,211.63,89.44Z"
            transform="translate(0)" fill="#212121" />
    </g>
    <g id="frame">
        <rect width="300" height="300" fill="none" />
    </g>
</svg>