<svg xmlns="http://www.w3.org/2000/svg" viewBox="0 0 30 30"><polygon points="17.19 17.99 15.55 17.99 15 16.44 14.45 17.99 12.81 17.99 14.12 19.03 13.61 20.59 15 19.67 16.39 20.59 15.88 19.03 17.19 17.99" fill="#212121" stroke="#212121" stroke-miterlimit="10" stroke-width="0.1"/><polygon points="21.75 19.07 20.49 19.07 20.07 17.88 19.65 19.07 18.39 19.07 19.39 19.86 19.01 21.06 20.07 20.36 21.14 21.06 20.75 19.86 21.75 19.07" fill="#212121" stroke="#212121" stroke-miterlimit="10" stroke-width="0.1"/><polygon points="11.61 19.07 10.35 19.07 9.93 17.88 9.51 19.07 8.25 19.07 9.25 19.86 8.86 21.06 9.93 20.36 10.99 21.06 10.61 19.86 11.61 19.07" fill="#212121" stroke="#212121" stroke-miterlimit="10" stroke-width="0.1"/><polygon points="25.83 16.96 24.11 16.32 22.69 16.32 22.69 16.09 27.85 16.09 27.85 16.32 25.82 16.32 25.83 16.96" fill="#212121" stroke="#212121" stroke-miterlimit="10" stroke-width="0.1"/><path d="M23.89,22.84a6.2,6.2,0,0,0,1.88-3.95,9.6,9.6,0,0,0,0-2.57" transform="translate(0)" fill="none" stroke="#212121" stroke-miterlimit="10" stroke-width="0.4"/><path d="M8.89,24.9C11.37,26.39,15,28.24,15,28.24s3.67-1.87,6.15-3.37" transform="translate(0)" fill="none" stroke="#212121" stroke-miterlimit="10" stroke-width="0.4"/><path d="M4.23,16.32a9.6,9.6,0,0,0,0,2.57A6.17,6.17,0,0,0,6,22.77" transform="translate(0)" fill="none" stroke="#212121" stroke-miterlimit="10" stroke-width="0.4"/><path d="M25.08,23.28a7.73,7.73,0,0,0,1.58-3.71,10.92,10.92,0,0,0,.18-2.86" transform="translate(0)" fill="none" stroke="#212121" stroke-miterlimit="10" stroke-width="0.2"/><path d="M7,25.22c2.36,1.66,8,4.67,8,4.67s6.1-3.27,8.26-4.87" transform="translate(0)" fill="none" stroke="#212121" stroke-miterlimit="10" stroke-width="0.2"/><path d="M3.16,16.71a10.92,10.92,0,0,0,.18,2.86A7.67,7.67,0,0,0,4.8,23.12" transform="translate(0)" fill="none" stroke="#212121" stroke-miterlimit="10" stroke-width="0.2"/><polygon points="4.17 16.96 5.89 16.32 7.31 16.32 7.31 16.09 2.15 16.09 2.15 16.32 4.18 16.32 4.17 16.96" fill="#212121" stroke="#212121" stroke-miterlimit="10" stroke-width="0.1"/><rect x="23.74" y="10.12" width="4.11" height="0.23" fill="#212121" stroke="#212121" stroke-miterlimit="10" stroke-width="0.1"/><rect x="2.15" y="10.12" width="4.11" height="0.23" fill="#212121" stroke="#212121" stroke-miterlimit="10" stroke-width="0.1"/><path d="M4.76,10.23a11.5,11.5,0,0,0-.43-3.65,16.8,16.8,0,0,0-.84-2.69A23.92,23.92,0,0,1,14.81,1.06h.38A23.92,23.92,0,0,1,26.51,3.89a16.8,16.8,0,0,0-.84,2.69,11.5,11.5,0,0,0-.43,3.65" transform="translate(0)" fill="none" stroke="#212121" stroke-miterlimit="10" stroke-width="0.4"/><path d="M3.78,9.62a14.46,14.46,0,0,0-.68-3.7,17.57,17.57,0,0,0-.89-2.48A25.72,25.72,0,0,1,14.8.11h.4A25.72,25.72,0,0,1,27.79,3.44a17.57,17.57,0,0,0-.89,2.48,14.46,14.46,0,0,0-.68,3.7" transform="translate(0)" fill="none" stroke="#212121" stroke-miterlimit="10" stroke-width="0.2"/><polygon points="6.63 25.8 3.15 27.33 3.44 25.16 2 24.07 4.34 23.19 4.8 26.07 6.63 25.8" fill="#212121"/><polygon points="23.37 25.8 26.85 27.33 26.56 25.16 28 24.07 25.66 23.19 25.2 26.07 23.37 25.8" fill="#212121"/><path d="M17.7,23.08h-.06l0,.8h.06A.44.44,0,0,0,18,23.8a.42.42,0,0,0,.12-.3.4.4,0,0,0-.1-.3A.46.46,0,0,0,17.7,23.08Z" transform="translate(0)" fill="#212121"/><path d="M20,23.19c-.06,0-.12,0-.16.11a.82.82,0,0,0-.08.3.73.73,0,0,0,0,.31.16.16,0,0,0,.14.14.18.18,0,0,0,.16-.11.82.82,0,0,0,.08-.3.74.74,0,0,0,0-.31A.18.18,0,0,0,20,23.19Z" transform="translate(0)" fill="#212121"/><path d="M12.07,23.52H12l0,.38h.13a.24.24,0,0,0,.17-.06.14.14,0,0,0,.05-.14.16.16,0,0,0-.07-.14A.24.24,0,0,0,12.07,23.52Z" transform="translate(0)" fill="#212121"/><path d="M10.82,23.69l.31,0L11,23.3C10.91,23.43,10.87,23.56,10.82,23.69Z" transform="translate(0)" fill="#212121"/><path d="M12.18,23.38a.22.22,0,0,0,.05-.14.15.15,0,0,0-.07-.12.22.22,0,0,0-.15,0h-.08l0,.34H12A.25.25,0,0,0,12.18,23.38Z" transform="translate(0)" fill="#212121"/><path d="M4.59,22.72l.47,3a63.13,63.13,0,0,1,19.88,0l.47-3A66.69,66.69,0,0,0,4.59,22.72Zm4,1.52-.81.08v-.06l.13-.05-.08-.79-.15,0v-.06l.79-.08,0,.28H8.46l-.09-.19-.33,0,0,.36.33-.06v.12H8.09l0,.38.35,0,.06-.22h.07Zm.78-.13a.4.4,0,0,1-.25.1H9a.75.75,0,0,1-.21,0l0-.27h.07l.09.2h.15a.47.47,0,0,0,.19-.06.11.11,0,0,0,.06-.13s0-.07-.07-.1l-.2-.08a.59.59,0,0,1-.25-.11.26.26,0,0,1-.09-.18.2.2,0,0,1,.08-.19.5.5,0,0,1,.26-.09,1.13,1.13,0,0,1,.32,0v.27H9.33l-.09-.19H9.11a.23.23,0,0,0-.16.05.11.11,0,0,0,0,.11.1.1,0,0,0,.06.09.77.77,0,0,0,.19.07l.13,0,.1.06a.24.24,0,0,1,.09.08.42.42,0,0,1,0,.12A.26.26,0,0,1,9.41,24.11Zm.93-.92h-.22l.06.8.14,0v.07l-.46,0v-.06L10,24l-.06-.81-.22,0-.05.21H9.59l0-.3.91-.07,0,.3h-.07Zm1.25.82-.45,0V24l.11,0-.09-.19-.37,0-.06.19.13,0v.06l-.38,0V24l.14,0c.1-.3.21-.61.31-.92H11c.14.29.27.58.4.87l.14,0Zm.83-.11a.46.46,0,0,1-.27.08l-.5,0v-.07l.13,0,0-.79-.14,0V23L12,23c.25,0,.37.06.38.22a.17.17,0,0,1-.05.14.25.25,0,0,1-.13.09h0a.37.37,0,0,1,.2.08.2.2,0,0,1,.07.16A.23.23,0,0,1,12.42,23.9Zm1,0-.81,0V23.9l.13,0,0-.79-.14,0V23l.47,0V23l-.14,0,0,.8h.35a1.8,1.8,0,0,0,.08-.21h.07ZM14,23l-.14,0v.79l.14,0v.07h-.46v-.07l.14,0,0-.8-.14,0V23H14Zm.79.86a.45.45,0,0,1-.27.07h-.13l-.22,0v-.28h.07l.08.21.15,0a.36.36,0,0,0,.19,0,.13.13,0,0,0,.07-.12.13.13,0,0,0-.07-.11l-.19-.1a.86.86,0,0,1-.24-.13.26.26,0,0,1-.07-.19.2.2,0,0,1,.1-.18.5.5,0,0,1,.26-.07,1.58,1.58,0,0,1,.32,0v.28h-.07L14.71,23h-.13a.34.34,0,0,0-.16,0,.13.13,0,0,0-.06.11.11.11,0,0,0,.05.09.67.67,0,0,0,.19.09l.12.05.1.06a.25.25,0,0,1,.08.1.2.2,0,0,1,0,.11A.25.25,0,0,1,14.82,23.87ZM16.2,23l-.15,0v.79l.14,0v.06h-.46v-.06l.14,0v-.36h-.47v.36l.14,0v.06h-.47v-.07l.14,0V23l-.14,0v-.07h.47V23l-.14,0v.35h.47V23l-.14,0v-.06h.47Zm.93.94-.82,0v-.06l.14,0,0-.79-.14,0V23l.8,0v.29h-.07L17,23.06l-.33,0v.36l.33,0v.13l-.32,0v.39H17l.09-.21h.07Zm1-.09a.69.69,0,0,1-.44.11h-.39V23.9l.14,0,0-.79-.14,0V23l.4,0a.79.79,0,0,1,.44.14.45.45,0,0,1,.14.38A.47.47,0,0,1,18.11,23.86Zm1.28.21-.66,0v-.09l.13-.12.12-.11.11-.13.09-.14a.37.37,0,0,0,0-.14.18.18,0,0,0,0-.13.11.11,0,0,0-.11-.06l-.19.14a.17.17,0,0,1-.08-.16.88.88,0,0,1,.33-.05.36.36,0,0,1,.21.08.19.19,0,0,1,.08.17.58.58,0,0,1-.06.17.52.52,0,0,1-.13.17,1,1,0,0,1-.15.14l-.16.13.36,0,.09-.15h.07Zm.88-.06a.34.34,0,0,1-.3.12.36.36,0,0,1-.28-.16.65.65,0,0,1-.08-.38.58.58,0,0,1,.13-.36.36.36,0,0,1,.31-.12.34.34,0,0,1,.28.16.53.53,0,0,1,.08.38A.59.59,0,0,1,20.27,24Zm.88.2-.66-.06v-.08l.14-.12.12-.11a.69.69,0,0,0,.11-.13.64.64,0,0,0,.1-.13.37.37,0,0,0,0-.14.14.14,0,0,0,0-.13.19.19,0,0,0-.12-.07l-.19.14a.19.19,0,0,1-.08-.16.75.75,0,0,1,.33,0,.39.39,0,0,1,.22.08.21.21,0,0,1,.07.18.7.7,0,0,1-.06.17,1,1,0,0,1-.14.16,1,1,0,0,1-.15.14L20.7,24l.36,0,.09-.15h.07Zm.66.07-.48-.05v-.06h.18l.07-.75-.19.05V23.4l.33-.12h.07l-.09.89.13,0Z" transform="translate(0)" fill="#212121"/><path d="M2.15,13.5v-.22l.38-.09L2.66,11,2.3,11v-.21h1l.83,1.88L5,10.74H6V11L5.64,11l.15,2.15.39.09v.22H4.75v-.22l.36-.09L5,11.53l-.91,2H3.82l-.88-2-.09,1.67.36.09v.22Z" transform="translate(0)" fill="#212121"/><path d="M6.36,13.5v-.22l.38-.09V11L6.36,11v-.22H7.77V11L7.4,11v2.15l.37.09v.22Z" transform="translate(0)" fill="#212121"/><path d="M8.11,13.37v-.72h.22l.21.55a1.35,1.35,0,0,0,.43.06,1.06,1.06,0,0,0,.48-.1.3.3,0,0,0,.2-.28s0-.05,0-.08a.3.3,0,0,0,0-.08l0-.06a.22.22,0,0,0-.07-.06l-.09-.06-.1-.06L9,12.37l-.15-.07a1.76,1.76,0,0,1-.58-.4.8.8,0,0,1-.17-.51.6.6,0,0,1,.28-.52,1.19,1.19,0,0,1,.71-.19,3.09,3.09,0,0,1,.89.12v.73H9.79L9.59,11a1.22,1.22,0,0,0-.32,0,1,1,0,0,0-.41.08.25.25,0,0,0-.17.24.27.27,0,0,0,.13.23,3.72,3.72,0,0,0,.49.24l.08,0a1.65,1.65,0,0,1,.61.4.82.82,0,0,1,0,1,.89.89,0,0,1-.4.27,1.89,1.89,0,0,1-.56.08A2.47,2.47,0,0,1,8.11,13.37Z" transform="translate(0)" fill="#212121"/><path d="M10.56,13.37v-.72h.22l.21.55a1.35,1.35,0,0,0,.43.06,1.06,1.06,0,0,0,.48-.1.3.3,0,0,0,.2-.28s0-.05,0-.08a.3.3,0,0,0,0-.08L12,12.66a.22.22,0,0,0-.07-.06l-.09-.06-.1-.06-.25-.11-.15-.07a1.76,1.76,0,0,1-.58-.4.8.8,0,0,1-.17-.51.6.6,0,0,1,.28-.52,1.19,1.19,0,0,1,.71-.19,3.09,3.09,0,0,1,.89.12v.73h-.23L12,11a1.22,1.22,0,0,0-.32,0,1,1,0,0,0-.41.08.25.25,0,0,0-.17.24.27.27,0,0,0,.13.23,3.72,3.72,0,0,0,.49.24l.08,0a1.65,1.65,0,0,1,.61.4.82.82,0,0,1,0,1,.89.89,0,0,1-.4.27,1.89,1.89,0,0,1-.56.08A2.47,2.47,0,0,1,10.56,13.37Z" transform="translate(0)" fill="#212121"/><path d="M12.94,13.5v-.22l.38-.09V11L12.94,11v-.22h1.41V11L14,11v2.15l.37.09v.22Z" transform="translate(0)" fill="#212121"/><path d="M14.69,13.37v-.72h.22l.21.55a1.31,1.31,0,0,0,.43.06,1,1,0,0,0,.47-.1.29.29,0,0,0,.21-.28.24.24,0,0,0,0-.08.13.13,0,0,0,0-.08l-.05-.06a.22.22,0,0,0-.07-.06L16,12.54l-.1-.06-.25-.11-.15-.07a1.76,1.76,0,0,1-.58-.4.8.8,0,0,1-.17-.51.62.62,0,0,1,.27-.52,1.25,1.25,0,0,1,.72-.19,3,3,0,0,1,.88.12v.73h-.22l-.2-.53a1.22,1.22,0,0,0-.32,0,1,1,0,0,0-.41.08.25.25,0,0,0-.17.24.27.27,0,0,0,.13.23,3.16,3.16,0,0,0,.49.24l.08,0a1.65,1.65,0,0,1,.61.4.85.85,0,0,1,0,1,.89.89,0,0,1-.4.27,1.89,1.89,0,0,1-.56.08A2.47,2.47,0,0,1,14.69,13.37Z" transform="translate(0)" fill="#212121"/><path d="M17.14,13.37v-.72h.22l.21.55a1.31,1.31,0,0,0,.43.06,1,1,0,0,0,.47-.1.29.29,0,0,0,.21-.28s0-.05,0-.08l0-.08-.05-.06a.22.22,0,0,0-.07-.06l-.09-.06-.1-.06-.25-.11-.15-.07a1.76,1.76,0,0,1-.58-.4.8.8,0,0,1-.17-.51.62.62,0,0,1,.27-.52,1.25,1.25,0,0,1,.72-.19,3,3,0,0,1,.88.12v.73h-.22l-.2-.53a1.22,1.22,0,0,0-.32,0,1,1,0,0,0-.41.08.25.25,0,0,0-.17.24.27.27,0,0,0,.13.23,3.16,3.16,0,0,0,.49.24l.08,0a1.65,1.65,0,0,1,.61.4.85.85,0,0,1,0,1,.89.89,0,0,1-.4.27,1.89,1.89,0,0,1-.56.08A2.47,2.47,0,0,1,17.14,13.37Z" transform="translate(0)" fill="#212121"/><path d="M19.52,13.5v-.22l.37-.09V11L19.52,11v-.22h1.41V11l-.37.08v2.15l.37.09v.22Z" transform="translate(0)" fill="#212121"/><path d="M21.2,13.5v-.22l.37-.09V11L21.2,11v-.22h1.15a1.66,1.66,0,0,1,.91.2.7.7,0,0,1,.33.66.76.76,0,0,1-.11.41.69.69,0,0,1-.28.28,1.32,1.32,0,0,1-.39.15,2.34,2.34,0,0,1-.47.05h-.11v.7l.5.09v.22Zm1-1.3h.09a.6.6,0,0,0,.42-.15.59.59,0,0,0-.39-1h-.12Z" transform="translate(0)" fill="#212121"/><path d="M23.79,13.5v-.22l.37-.09V11L23.79,11v-.22h1.15a1.68,1.68,0,0,1,.91.2.7.7,0,0,1,.33.66.79.79,0,0,1-.39.69,1.32,1.32,0,0,1-.39.15,2.34,2.34,0,0,1-.47.05h-.11v.7l.5.09v.22Zm1-1.3h.09a.64.64,0,0,0,.42-.15.58.58,0,0,0,.17-.45.54.54,0,0,0-.16-.43.57.57,0,0,0-.4-.15h-.12Z" transform="translate(0)" fill="#212121"/><path d="M26.38,13.5v-.22l.37-.09V11L26.38,11v-.22h1.41V11l-.38.08v2.15l.38.09v.22Z" transform="translate(0)" fill="#212121"/><path d="M5.52,15.7v-.13l.21-.05.52-1.41h.19l.48,1.41.21.05v.13H6.4v-.13l.15,0-.09-.27H6l-.09.26.18.05v.13Zm.54-.59H6.4l-.17-.48Z" transform="translate(0)" fill="#212121"/><path d="M7.15,14.91a.82.82,0,0,1,.21-.61A.78.78,0,0,1,8,14.08l.22,0,.2.06v.42H8.25l-.1-.32H8a.47.47,0,0,0-.39.15.77.77,0,0,0-.13.5.82.82,0,0,0,.12.49.41.41,0,0,0,.36.16h.13l.16-.35H8.4l-.06.42-.19.08a1,1,0,0,1-.24,0,.7.7,0,0,1-.56-.22A.85.85,0,0,1,7.15,14.91Z" transform="translate(0)" fill="#212121"/><path d="M8.55,15.7v-.13l.2-.05V14.29l-.2,0v-.12h.68a.78.78,0,0,1,.45.11.4.4,0,0,1,.15.33.35.35,0,0,1-.08.24.41.41,0,0,1-.21.15l.3.57.21.06v.12H9.52L9.18,15H9.1v.51l.19.05v.13Zm.55-.84h.07a.3.3,0,0,0,.23-.09.29.29,0,0,0,.08-.21.26.26,0,0,0-.08-.2.36.36,0,0,0-.24-.08H9.1Z" transform="translate(0)" fill="#212121"/><path d="M10.1,15.7v-.13l.2-.05V14.29l-.2,0v-.12h1.15v.46h-.13L11,14.29h-.38v.52l.4,0V15l-.4,0v.55H11l.14-.31h.13l-.06.49Z" transform="translate(0)" fill="#212121"/><path d="M11.5,15.62v-.41h.12l.11.31a.48.48,0,0,0,.22,0,.53.53,0,0,0,.26-.06.17.17,0,0,0,.11-.16v0s0,0,0-.05l0,0,0,0-.05,0-.06,0L12,15.05l-.08,0a.84.84,0,0,1-.3-.23.39.39,0,0,1-.1-.29.34.34,0,0,1,.15-.29.58.58,0,0,1,.38-.12,1.66,1.66,0,0,1,.47.07v.42h-.12l-.1-.3a.55.55,0,0,0-.18,0,.46.46,0,0,0-.21,0,.16.16,0,0,0-.1.14.17.17,0,0,0,.08.13,2.41,2.41,0,0,0,.26.14l0,0a.83.83,0,0,1,.32.23.44.44,0,0,1,.11.3.47.47,0,0,1-.08.28.48.48,0,0,1-.22.15.85.85,0,0,1-.3.05A1.26,1.26,0,0,1,11.5,15.62Z" transform="translate(0)" fill="#212121"/><path d="M13.25,15.7v-.13l.2-.05V14.29l-.2,0v-.12h.61a1,1,0,0,1,.49.11.43.43,0,0,1,.17.38.6.6,0,0,1,0,.24.57.57,0,0,1-.15.16l-.21.08a1,1,0,0,1-.25,0H13.8v.4l.26.05v.13ZM13.8,15h0a.3.3,0,0,0,.22-.08.36.36,0,0,0,.09-.26.33.33,0,0,0-.08-.24.29.29,0,0,0-.22-.09H13.8Z" transform="translate(0)" fill="#212121"/><path d="M14.63,15.7v-.13l.2-.05V14.29l-.2,0v-.12h.67a.84.84,0,0,1,.46.11.4.4,0,0,1,.15.33.41.41,0,0,1-.08.24.44.44,0,0,1-.22.15l.31.57.2.06v.12H15.6L15.25,15h-.07v.51l.19.05v.13Zm.55-.84h.06a.29.29,0,0,0,.23-.09.25.25,0,0,0,.08-.21.23.23,0,0,0-.08-.2.32.32,0,0,0-.23-.08h-.06Z" transform="translate(0)" fill="#212121"/><path d="M16.17,15.7v-.13l.2-.05V14.29l-.2,0v-.12h1.15v.46h-.13l-.08-.29h-.39v.52l.41,0V15l-.41,0v.55h.39l.15-.31h.13l-.07.49Z" transform="translate(0)" fill="#212121"/><path d="M17.57,15.62v-.41h.12l.11.31a.53.53,0,0,0,.23,0,.49.49,0,0,0,.25-.06.17.17,0,0,0,.11-.16.06.06,0,0,0,0,0s0,0,0-.05l0,0,0,0,0,0-.06,0-.13-.07L18,15a.8.8,0,0,1-.31-.23.44.44,0,0,1-.09-.29.36.36,0,0,1,.14-.29.61.61,0,0,1,.39-.12,1.72,1.72,0,0,1,.47.07v.42h-.12l-.11-.3a.52.52,0,0,0-.17,0,.48.48,0,0,0-.22,0,.15.15,0,0,0-.09.14.16.16,0,0,0,.07.13l.26.14,0,0a.87.87,0,0,1,.33.23.44.44,0,0,1,.1.3.42.42,0,0,1-.29.43.94.94,0,0,1-.3.05A1.35,1.35,0,0,1,17.57,15.62Z" transform="translate(0)" fill="#212121"/><path d="M18.84,15.7v-.13l.2-.05V14.29l-.2,0v-.12H20v.46h-.13l-.09-.29h-.38v.52l.4,0V15l-.4,0v.55h.39l.15-.31h.12L20,15.7Z" transform="translate(0)" fill="#212121"/><path d="M20.2,15.7v-.13l.2-.05V14.29l-.2,0v-.12h.68a.78.78,0,0,1,.45.11.4.4,0,0,1,.15.33.35.35,0,0,1-.08.24.41.41,0,0,1-.21.15l.3.57.21.06v.12h-.52L20.83,15h-.07v.51l.18.05v.13Zm.56-.84h.06a.29.29,0,0,0,.31-.3.26.26,0,0,0-.08-.2.34.34,0,0,0-.23-.08h-.06Z" transform="translate(0)" fill="#212121"/><path d="M21.56,14.24v-.12h.75v.12l-.18,0,.33.94.29-.93-.17,0v-.12h.55v.12l-.2,0-.47,1.42h-.21l-.5-1.42Z" transform="translate(0)" fill="#212121"/><path d="M23.19,15.7v-.13l.2-.05V14.29l-.2,0v-.12h1.15v.46h-.13l-.09-.29h-.38v.52l.4,0V15l-.4,0v.55h.39l.14-.31h.13l-.06.49Z" transform="translate(0)" fill="#212121"/><path d="M23.11,8.31a.73.73,0,0,0-.53-.4,6.82,6.82,0,0,0-.46-.63,2.94,2.94,0,0,0-.67-.59A1.62,1.62,0,0,0,21,5.93a.27.27,0,0,1,.17,0l1.39.57-.32-.28.71.11-.3-.18L23.18,6l-.59-.19L23,5.66a5.73,5.73,0,0,1-1.13-.18c-.36-.13-.69-.7-1.2-.7a1.36,1.36,0,0,0-.88.38A12.3,12.3,0,0,0,17.22,3.8,2.91,2.91,0,0,1,16,3.32l-.17.15-.25-.27,0,.21-.49-.24v.18l-.56-.28,0,.21L14,3.09l0,.25L13.3,3V3.3l-.7-.12.11.25-.88-.15.17.24-.79-.07.15.24h-.79l.11.19h-.8l.13.21-.83,0,.15.28H8.58l.13.36-.66-.13L8.26,5l-.49,0,.13.23-.6,0,.17.17L7,5.5l.12.2-.31.08A3.92,3.92,0,0,0,7.1,7.17c.28.65,1,.88,2.55,1a28.85,28.85,0,0,0,4.44-.32s-2.16-.33-2.95-.49a12.42,12.42,0,0,1-2.67-.77.77.77,0,0,1-.36-.48,1,1,0,0,0,.32.36,1,1,0,0,0,.42.13A2.76,2.76,0,0,1,10,6.2a4.7,4.7,0,0,1,1.53.06,1.38,1.38,0,0,0,0,.19.8.8,0,0,0,.28.73,2.07,2.07,0,0,0,.9.28l0-.19.66.07-.24-.23.39,0-.25-.26.37,0,1.3.42a4.39,4.39,0,0,1-.07.72c-.07.22-.48.51-.48.51a2.45,2.45,0,0,0,.36-.08,1.66,1.66,0,0,0,.36-.15l-.2.36a1,1,0,0,0,.28-.09,1.2,1.2,0,0,0,.29-.32l.25.35V8.18l.29.17a1.13,1.13,0,0,1-.17-.54A3,3,0,0,1,16,6.89a2.75,2.75,0,0,0,0,.37c0,.18,0,.34.19.34s.22.16.41.44a2.64,2.64,0,0,0,1.13.79,2.25,2.25,0,0,0,1.42,0c.26-.1.33,0,1.13.24a4.62,4.62,0,0,0,2.6.12A.61.61,0,0,0,23.11,8.31ZM13.32,6c-.11.18,0-.15,0-.4a1,1,0,0,0-.18-.73c-.2-.35-1.11-.54-.65-.48a1.06,1.06,0,0,1,.94.62A1.82,1.82,0,0,1,13.32,6Zm2.8-.18a1.11,1.11,0,0,0-.65-.41.58.58,0,0,0-.69.31,1.07,1.07,0,0,0,.16.89c.14.06.36.19.33.27s-.08,0-.17-.07-.27-.11-.29-.2a6.72,6.72,0,0,0-.23-.73.47.47,0,0,1,.26-.56.86.86,0,0,1,1,.06,2.13,2.13,0,0,1,.5.8A1.74,1.74,0,0,0,16.12,5.84Zm3.08.81c.09,0,.12,0,.3,0s.32.21.32.29-.05,0-.12,0-.07,0-.25,0a.86.86,0,0,1-.39-.28C19,6.55,19.11,6.63,19.2,6.65Zm2,2.29a.39.39,0,0,0-.1-.14s0,.08,0,.13A.15.15,0,0,1,21,9a.27.27,0,0,0,0-.1s-.09-.1-.09-.1,0,.15-.05.19-.06,0-.09-.08a1.84,1.84,0,0,0-.44-.39.45.45,0,0,0-.42-.13c-.18,0-.28-.07-.46-.26a3.66,3.66,0,0,0-1-.49c-.3-.12-.31-.25-.31-.25a8.16,8.16,0,0,0,1,.32c.45.17.53.44.63.46a2.51,2.51,0,0,0,.3,0c.08,0,.33.29.59.46a1,1,0,0,0,.61.13.68.68,0,0,0,0,.17.61.61,0,0,0,.09.21A.57.57,0,0,1,21.16,8.94Z" transform="translate(0)" fill="#212121"/><rect width="30" height="30" fill="none"/></svg>