<svg xmlns="http://www.w3.org/2000/svg" viewBox="0 0 30 30"><polygon points="15 6.67 14.7 7.04 14.46 6.94 14.46 7.55 14.03 7.42 14.03 7.68 13.51 7.57 13.87 8.25 14.35 8.53 14.14 8.7 14 8.96 14.63 8.96 14.72 8.85 14.78 8.89 14.9 8.79 14.83 9.2 15 9.2 15 6.67" fill="#212121"/><polygon points="0.04 14.33 0.04 14.21 2.05 14.21 2.05 15.8 2.08 16.12 2.22 16.43 2.41 16.7 2.67 16.91 14.02 23.7 14.35 23.86 14.67 23.95 14.85 23.97 15 23.97 15 24.11 14.7 24.1 14.29 23.95 13.86 23.76 2.59 17 2.32 16.77 2.18 16.6 2.05 16.31 1.98 16.09 1.95 15.78 1.95 14.33 1.53 14.33 1.53 15.97 1.59 16.3 1.74 16.66 1.97 16.99 2.22 17.25 2.61 17.48 13.89 24.23 14.26 24.4 14.61 24.49 14.87 24.52 15 24.52 15 24.79 14.57 24.76 14.09 24.63 13.63 24.4 2.14 17.52 1.89 17.29 1.62 16.94 1.41 16.56 1.3 16.24 1.27 15.87 1.27 14.33 0.04 14.33" fill="#212121"/><polygon points="0.06 9.94 0.06 9.8 6.63 9.8 13.74 5.54 14.14 5.37 14.47 5.27 14.75 5.23 15 5.21 15 5.5 14.65 5.53 14.22 5.64 13.89 5.78 13.52 6.01 7.15 9.8 7.93 9.8 13.96 6.2 14.31 6.01 14.62 5.93 14.84 5.89 15 5.88 15 6.03 14.79 6.04 14.59 6.07 14.28 6.19 13.92 6.38 7.98 9.94 0.06 9.94" fill="#212121"/><polygon points="15 6.67 15.31 7.04 15.54 6.94 15.54 7.55 15.97 7.42 15.97 7.68 16.49 7.57 16.14 8.25 15.66 8.53 15.86 8.7 16 8.96 15.37 8.96 15.29 8.85 15.22 8.89 15.11 8.79 15.18 9.2 15 9.2 15 6.67" fill="#212121"/><polygon points="29.96 14.33 29.96 14.21 27.95 14.21 27.95 15.8 27.92 16.12 27.78 16.43 27.59 16.7 27.33 16.91 15.98 23.7 15.65 23.86 15.34 23.95 15.15 23.97 15 23.97 15 24.11 15.31 24.1 15.71 23.95 16.14 23.76 27.42 17 27.68 16.77 27.82 16.6 27.95 16.31 28.02 16.09 28.06 15.78 28.06 14.33 28.48 14.33 28.48 15.97 28.41 16.3 28.26 16.66 28.04 16.99 27.78 17.25 27.4 17.48 16.11 24.23 15.75 24.4 15.39 24.49 15.13 24.52 15 24.52 15 24.79 15.43 24.76 15.92 24.63 16.38 24.4 27.87 17.52 28.12 17.29 28.39 16.94 28.6 16.56 28.7 16.24 28.73 15.87 28.73 14.33 29.96 14.33" fill="#212121"/><polygon points="29.95 9.94 29.95 9.8 23.38 9.8 16.26 5.54 15.86 5.37 15.54 5.27 15.25 5.23 15 5.21 15 5.5 15.36 5.53 15.79 5.64 16.12 5.78 16.48 6.01 22.85 9.8 22.08 9.8 16.04 6.2 15.69 6.01 15.39 5.93 15.16 5.89 15 5.88 15 6.03 15.21 6.04 15.42 6.07 15.73 6.19 16.08 6.38 22.02 9.94 29.95 9.94" fill="#212121"/><polygon points="5.14 18.43 6.33 18.37 7.1 18.15 7.22 18.75 8.35 18.36 8.55 18.04 8.78 17.87 9.38 19.07 9.43 19.46 10.77 20.64 12.13 21.05 10.4 18.96 10.97 19.12 11.22 19.1 12.06 18.04 13.33 17.41 13.63 18.21 14.83 19.5 14.53 18.7 14.2 18.27 14.16 18.11 13.84 17.55 14.34 17.81 14.71 17 15.15 16.97 15.73 16.4 16.94 17.61 17.73 18.09 18.05 17.5 19.2 18.63 18.85 18.61 18.55 18.53 18.76 18.77 19.36 19.21 19.56 19.51 19.95 19.93 19.06 19.55 18.11 18.91 16.85 17.8 15.94 16.86 15.94 18.14 15.07 17.81 15.26 18.09 16.3 19.04 17.37 19.67 16.86 19.61 16.48 19.4 16.77 19.95 17.99 20.78 19.7 21.5 22.13 20.05 21.62 19.81 21.41 19.81 20.89 19.56 20.26 19.05 21.25 18.54 21.48 18.04 22.21 18.73 22.36 18.95 22.82 19.2 23.11 19.21 22.9 18.85 23.38 18.23 24.21 18.45 24.21 18.54 24.33 18.6 24.57 18.59 24.52 18.69 18.2 22.49 17.42 22.16 15.3 20.99 16.14 22.05 16.92 22.61 17.29 23.01 16.15 23.71 15.58 23.97 15.12 24.07 14.71 24.03 14.05 23.78 5.23 18.54 5.14 18.43" fill="#212121"/><path d="M2.93,10.67c-.26,0-.35.08-.36.3s0,.35,0,.79v1.9H2.4L.63,11.18v1.19c0,.43,0,.64,0,.78s.11.31.41.34v.13h-1v-.13c.25,0,.35-.1.37-.33s0-.36,0-.8V11.15a.47.47,0,0,0-.08-.31c-.08-.12-.17-.15-.37-.17v-.13H.62l1.75,2.38V11.76c0-.44,0-.64,0-.79s-.11-.28-.44-.3v-.13h1Z" fill="#212121"/><path d="M5.32,12.87c0,.12-.13.61-.18.75h-2v-.13c.38,0,.41-.08.41-.47V11.15c0-.42,0-.45-.35-.48v-.13H5.06c0,.11,0,.47,0,.72l-.13,0a2.5,2.5,0,0,0-.12-.36c-.07-.16-.16-.19-.41-.19H4.05c-.13,0-.14,0-.14.15v1h.46c.31,0,.33-.07.38-.4h.13v1H4.75c-.06-.34-.09-.39-.39-.39H3.91v1c0,.33.09.36.3.36h.38c.25,0,.29,0,.39-.16a3,3,0,0,0,.22-.44Z" fill="#212121"/><path d="M9.23,10.67c-.29.05-.33.08-.44.47s-.47,1.68-.69,2.53H8c-.22-.74-.49-1.65-.71-2.36-.24.82-.48,1.63-.7,2.36H6.42c-.21-.81-.45-1.7-.67-2.53-.11-.39-.15-.44-.42-.47v-.13h1v.13c-.31,0-.31.09-.26.33.17.64.33,1.27.5,1.94.23-.76.47-1.58.69-2.36h.13c.23.81.46,1.56.7,2.36.17-.63.41-1.47.5-1.89s0-.33-.32-.38v-.13h.94Z" fill="#212121"/><path d="M12.92,12.87c0,.12-.14.61-.18.75h-2v-.13c.38,0,.41-.08.41-.47V11.15c0-.42,0-.45-.35-.48v-.13h1.86c0,.11,0,.47,0,.72l-.13,0a1.26,1.26,0,0,0-.12-.36c-.07-.16-.16-.19-.41-.19h-.39c-.13,0-.14,0-.14.15v1H12c.31,0,.33-.07.38-.4h.13v1h-.13c-.05-.34-.09-.39-.38-.39H11.5v1c0,.33.09.36.3.36h.38c.26,0,.3,0,.39-.16a2.26,2.26,0,0,0,.22-.44Z" fill="#212121"/><path d="M16,10.67c-.26,0-.35.08-.36.3s0,.35,0,.79v1.9h-.16l-1.77-2.48v1.19c0,.43,0,.64,0,.78s.11.31.4.34v.13h-1v-.13c.26,0,.36-.1.37-.33s0-.36,0-.8V11.15a.47.47,0,0,0-.08-.31c-.08-.12-.16-.15-.37-.17v-.13h.62l1.75,2.38V11.76c0-.44,0-.64,0-.79s-.11-.28-.44-.3v-.13h1Z" fill="#212121"/><path d="M18.93,12.33c-.26,0-.28.06-.28.34v.4a3,3,0,0,0,0,.45,3.51,3.51,0,0,1-.93.17,1.49,1.49,0,0,1-1.52-1.62,1.5,1.5,0,0,1,1.54-1.6,4.44,4.44,0,0,1,.86.12c0,.17,0,.47.06.77l-.12,0c-.1-.41-.23-.59-.49-.69a1,1,0,0,0-.37-.06c-.63,0-1.05.48-1.05,1.37s.34,1.51,1.15,1.51a.7.7,0,0,0,.35-.08c.09-.06.13-.12.13-.31v-.39c0-.34,0-.38-.42-.41v-.14h1.06Z" fill="#212121"/><path d="M21.26,12.83c0,.15-.15.64-.19.79H19.15v-.13c.37,0,.4-.07.4-.47V11.13c0-.4,0-.42-.37-.46v-.13h1.11v.13c-.33,0-.38.06-.38.46v1.94c0,.29,0,.35.27.36h.33a.39.39,0,0,0,.37-.14,1.88,1.88,0,0,0,.25-.49Z" fill="#212121"/><path d="M23.09,13.62v-.13c.27,0,.3-.09.25-.27s-.14-.42-.23-.72h-.89c-.06.22-.13.4-.18.6s0,.34.3.39v.13h-.95v-.13c.26,0,.32-.07.47-.5l.85-2.49.13,0L23.65,13c.13.41.17.45.46.49v.13Zm-.41-2.53c-.13.41-.27.84-.4,1.22h.78Z" fill="#212121"/><path d="M27.05,10.67c-.27,0-.35.08-.37.3s0,.35,0,.79v1.9h-.15l-1.77-2.48v1.19c0,.43,0,.64,0,.78s.11.31.41.34v.13h-1v-.13c.26,0,.36-.1.38-.33s0-.36,0-.8V11.15a.42.42,0,0,0-.09-.31c-.07-.12-.16-.15-.36-.17v-.13h.62l1.75,2.38V11.76c0-.44,0-.64,0-.79s-.11-.28-.44-.3v-.13h1Z" fill="#212121"/><path d="M28.44,10.54a1.51,1.51,0,0,1,1.21.41A1.49,1.49,0,0,1,30,12a1.67,1.67,0,0,1-.52,1.29,1.76,1.76,0,0,1-1.22.37h-1v-.13c.35,0,.37-.07.37-.46v-1.9c0-.4-.05-.42-.37-.46v-.13ZM28,13c0,.36.13.46.44.46.74,0,1.12-.59,1.12-1.42a1.29,1.29,0,0,0-.48-1.14,1.15,1.15,0,0,0-.7-.19.5.5,0,0,0-.33.07s0,.08,0,.26Z" fill="#212121"/><path d="M9,15.92v-.76l-.33.62H8.51l-.32-.6v.74H8V14.66h.21l.41.78.4-.78h.21v1.26Z" fill="#212121"/><path d="M10.18,15.85a.54.54,0,0,1-.22-.23.73.73,0,0,1-.08-.33A.74.74,0,0,1,10,15a.54.54,0,0,1,.22-.23.53.53,0,0,1,.3-.09.54.54,0,0,1,.31.09A.61.61,0,0,1,11,15a.74.74,0,0,1,.07.34.72.72,0,0,1-.07.33.61.61,0,0,1-.22.23.54.54,0,0,1-.31.09A.53.53,0,0,1,10.18,15.85Zm.48-.21a.36.36,0,0,0,.12-.15.46.46,0,0,0,.05-.2.46.46,0,0,0-.05-.21.44.44,0,0,0-.12-.15.35.35,0,0,0-.18,0,.34.34,0,0,0-.17,0,.44.44,0,0,0-.12.15.46.46,0,0,0,0,.21.46.46,0,0,0,0,.2.36.36,0,0,0,.12.15.34.34,0,0,0,.17,0A.35.35,0,0,0,10.66,15.64Z" fill="#212121"/><path d="M11.91,15.79a.62.62,0,0,1-.14-.43v-.7H12v.69c0,.23.08.34.24.34a.22.22,0,0,0,.18-.08.38.38,0,0,0,.07-.26v-.69h.25v.7a.67.67,0,0,1-.13.43.47.47,0,0,1-.37.15A.43.43,0,0,1,11.91,15.79Z" fill="#212121"/><path d="M14.53,14.66v1.26h-.21l-.54-.77v.77h-.25V14.66h.21l.54.76v-.76Z" fill="#212121"/><path d="M15.53,14.89h-.35v-.23h.95v.23h-.35v1h-.25Z" fill="#212121"/><path d="M17.45,15.65h-.51l-.1.27h-.26l.49-1.26h.25l.49,1.26h-.27Zm-.08-.23-.18-.48-.17.48Z" fill="#212121"/><path d="M18.43,14.66h.26v1.26h-.26Z" fill="#212121"/><path d="M20.46,14.66v1.26h-.21l-.54-.77v.77h-.25V14.66h.21l.54.76v-.76Z" fill="#212121"/><path d="M21.34,15.9a.75.75,0,0,1-.2-.11l.09-.22a.69.69,0,0,0,.17.1.63.63,0,0,0,.19,0,.32.32,0,0,0,.16,0,.11.11,0,0,0,.05-.1.11.11,0,0,0,0-.08l-.08,0a.33.33,0,0,0-.13,0l-.2-.07a.36.36,0,0,1-.14-.11.31.31,0,0,1,0-.2.33.33,0,0,1,0-.2.29.29,0,0,1,.15-.14.53.53,0,0,1,.26-.06.64.64,0,0,1,.2,0,.51.51,0,0,1,.18.09l-.08.22a.51.51,0,0,0-.3-.1.22.22,0,0,0-.16,0,.1.1,0,0,0,0,.1.1.1,0,0,0,.06.1l.18.06.2.07a.36.36,0,0,1,.14.11.3.3,0,0,1,.05.2.32.32,0,0,1-.05.19.36.36,0,0,1-.15.15.67.67,0,0,1-.26,0A1,1,0,0,1,21.34,15.9Z" fill="#212121"/><rect x="23.57" y="15.75" width="1.15" height="0.15" fill="#212121"/><path d="M24.1,15.36v.15h-.54v-.12l.28-.31A.33.33,0,0,0,23.9,15a.17.17,0,0,0,0-.07.11.11,0,0,0,0-.08l-.08,0a.13.13,0,0,0-.09,0,.09.09,0,0,0-.06.06l-.13-.09a.25.25,0,0,1,.12-.11.33.33,0,0,1,.17,0,.29.29,0,0,1,.14,0,.25.25,0,0,1,.1.08.28.28,0,0,1,0,.13.3.3,0,0,1-.12.26l-.17.19Z" fill="#212121"/><path d="M24.77,15.36v.15h-.55v-.12l.28-.31a.33.33,0,0,0,.06-.08.17.17,0,0,0,0-.07.19.19,0,0,0,0-.08l-.09,0a.15.15,0,0,0-.09,0l-.06.06-.12-.09a.2.2,0,0,1,.11-.11.33.33,0,0,1,.17,0,.33.33,0,0,1,.15,0,.18.18,0,0,1,.09.08.35.35,0,0,1,0,.26.5.5,0,0,1-.1.13l-.16.19Z" fill="#212121"/><rect x="5.28" y="15.75" width="1.15" height="0.15" fill="#212121"/><path d="M5.78,15.36v.15H5.23v-.12l.28-.31A.33.33,0,0,0,5.57,15a.19.19,0,0,0,0-.07.11.11,0,0,0,0-.08l-.09,0a.15.15,0,0,0-.09,0l-.06.06-.12-.09a.29.29,0,0,1,.11-.11.34.34,0,0,1,.18,0,.32.32,0,0,1,.14,0,.18.18,0,0,1,.09.08.35.35,0,0,1,0,.26.5.5,0,0,1-.1.13l-.16.19Z" fill="#212121"/><path d="M6.05,15.48a.33.33,0,0,1-.11-.15.56.56,0,0,1,0-.23.61.61,0,0,1,0-.24.26.26,0,0,1,.11-.14.22.22,0,0,1,.16-.05.24.24,0,0,1,.16.05.31.31,0,0,1,.11.14.61.61,0,0,1,0,.24.56.56,0,0,1,0,.23.42.42,0,0,1-.11.15.3.3,0,0,1-.16,0A.28.28,0,0,1,6.05,15.48Zm.26-.18a.37.37,0,0,0,0-.2.39.39,0,0,0,0-.21.11.11,0,0,0-.1-.06.1.1,0,0,0-.1.06.39.39,0,0,0,0,.21.37.37,0,0,0,0,.2.1.1,0,0,0,.1.06A.11.11,0,0,0,6.31,15.3Z" fill="#212121"/><rect width="30" height="30" fill="none"/></svg>