<svg xmlns="http://www.w3.org/2000/svg" viewBox="0 0 300 300"><title>newenglandmountains</title><g id="newenglandmountains"><g id="border"><polygon points="150.02 66.67 146.95 70.42 144.64 69.44 144.64 75.52 140.33 74.25 140.33 76.82 135.13 75.69 138.69 82.49 143.47 85.32 141.4 86.96 140.03 89.57 146.32 89.57 147.17 88.49 147.78 88.86 148.97 87.85 148.26 91.99 150.02 91.99 150.02 66.67" fill="#212121"/><polygon points="0.43 143.3 0.43 142.15 20.5 142.15 20.5 158.01 20.84 161.22 22.21 164.33 24.11 167 26.75 169.08 140.21 236.98 143.52 238.54 146.67 239.48 148.51 239.72 150.02 239.72 150.02 241.15 146.95 241.02 142.89 239.54 138.64 237.58 25.87 169.98 23.22 167.73 21.79 166.02 20.49 163.13 19.82 160.94 19.45 157.83 19.45 143.3 15.27 143.3 15.27 159.71 15.91 162.95 17.41 166.63 19.67 169.87 22.24 172.48 26.07 174.85 138.89 242.34 142.56 244.04 146.08 244.93 148.71 245.19 150.02 245.19 150.02 247.9 145.71 247.56 140.88 246.28 136.28 244.02 21.38 175.25 18.86 172.84 16.16 169.43 14.05 165.61 13.04 162.43 12.69 158.7 12.69 143.3 0.43 143.3" fill="#212121"/><polygon points="0.55 99.4 0.55 98.05 66.28 98.05 137.4 55.38 141.4 53.66 144.66 52.66 147.51 52.26 150.02 52.1 150.02 54.97 146.48 55.24 142.19 56.37 138.87 57.82 135.21 60.11 71.5 98.05 79.27 98.05 139.64 61.99 143.14 60.15 146.15 59.28 148.42 58.89 150.02 58.76 150.02 60.26 147.9 60.35 145.87 60.73 142.78 61.88 139.21 63.83 79.8 99.4 0.55 99.4" fill="#212121"/><polygon points="150.02 66.67 153.09 70.42 155.4 69.44 155.4 75.52 159.71 74.25 159.71 76.82 164.91 75.69 161.35 82.49 156.56 85.32 158.64 86.96 160.01 89.57 153.72 89.57 152.87 88.49 152.25 88.86 151.07 87.85 151.78 91.99 150.02 91.99 150.02 66.67" fill="#212121"/><polygon points="299.61 143.3 299.61 142.15 279.54 142.15 279.54 158.01 279.19 161.22 277.83 164.33 275.93 167 273.29 169.08 159.83 236.98 156.51 238.54 153.37 239.48 151.53 239.72 150.02 239.72 150.02 241.15 153.09 241.02 157.15 239.54 161.4 237.58 274.17 169.98 276.82 167.73 278.25 166.02 279.55 163.13 280.22 160.94 280.59 157.83 280.59 143.3 284.77 143.3 284.77 159.71 284.13 162.95 282.63 166.63 280.37 169.87 277.8 172.48 273.96 174.85 161.15 242.34 157.47 244.04 153.96 244.93 151.32 245.19 150.02 245.19 150.02 247.9 154.33 247.56 159.16 246.28 163.76 244.02 278.66 175.25 281.18 172.84 283.88 169.43 285.99 165.61 287 162.43 287.35 158.7 287.35 143.3 299.61 143.3" fill="#212121"/><polygon points="299.49 99.4 299.49 98.05 233.76 98.05 162.64 55.38 158.64 53.66 155.38 52.66 152.53 52.26 150.02 52.1 150.02 54.97 153.56 55.24 157.85 56.37 161.17 57.82 164.83 60.11 228.54 98.05 220.77 98.05 160.4 61.99 156.9 60.15 153.89 59.28 151.62 58.89 150.02 58.76 150.02 60.26 152.14 60.35 154.17 60.73 157.26 61.88 160.83 63.83 220.24 99.4 299.49 99.4" fill="#212121"/></g><g id="mountain"><polygon points="51.36 184.33 63.35 183.74 71 181.54 72.19 187.51 83.46 183.62 85.48 180.42 87.79 178.7 93.84 190.68 94.26 194.59 107.72 206.4 121.31 210.55 104.04 189.61 109.74 191.21 112.17 190.98 120.66 180.36 133.29 174.07 136.26 182.08 148.3 194.95 145.27 187 142.01 182.73 141.6 181.07 138.39 175.49 143.38 178.1 147.05 170.03 151.5 169.74 157.32 163.98 169.42 176.15 177.31 180.89 180.51 174.96 191.96 186.29 188.46 186.05 185.55 185.28 187.57 187.65 193.6 192.14 195.58 195.07 199.46 199.34 190.6 195.47 181.1 189.06 168.49 177.99 159.35 168.61 159.43 181.39 150.73 178.06 152.55 180.91 163.03 190.4 173.71 196.73 168.61 196.14 164.77 194.04 167.74 199.54 179.86 207.79 197 215 221.33 200.5 216.24 198.09 214.15 198.06 208.93 195.56 202.58 190.5 212.46 185.43 214.77 180.39 222.13 187.27 223.58 189.49 228.24 192.04 231.14 192.07 229.04 188.54 233.78 182.29 242.06 184.54 242.09 185.43 243.28 185.96 245.65 185.9 245.23 186.94 181.96 224.89 174.16 221.59 153.04 209.9 161.35 220.52 169.24 226.1 172.92 230.13 161.53 237.13 155.77 239.74 151.21 240.69 147.11 240.27 140.47 237.78 52.33 185.42 51.36 184.33" fill="#212121"/></g><g id="text"><path d="M29.32,106.69c-2.65.33-3.51.8-3.64,3,0,1.52-.12,3.51-.12,7.93v19H24L6.32,111.81v11.88c0,4.27.12,6.41.2,7.78.09,2.42,1.12,3.14,4.09,3.42v1.33H.58v-1.33c2.56-.24,3.55-.95,3.71-3.27.13-1.52.21-3.66.21-8V111.53a4.57,4.57,0,0,0-.82-3.13C2.89,107.21,2,106.92,0,106.69v-1.33H6.19L23.7,129.24V117.61c0-4.42-.08-6.46-.21-7.88-.12-2.14-1.07-2.81-4.37-3v-1.33h10.2Z" fill="#212121"/><path d="M53.22,128.67c-.25,1.24-1.36,6.13-1.77,7.55H31.38v-1.33c3.84-.33,4.13-.76,4.13-4.65V111.48c0-4.22-.46-4.46-3.55-4.79v-1.33H44.59c3.88,0,5.49,0,6-.1,0,1.19.21,4.75.37,7.27l-1.24.23a16.69,16.69,0,0,0-1.24-3.6c-.66-1.57-1.61-1.9-4.08-1.9H40.46c-1.28,0-1.36.14-1.36,1.52v10.49h4.58c3.1,0,3.31-.71,3.8-3.94h1.28v9.78H47.48c-.53-3.42-.86-3.89-3.84-3.89H39.1v9.45c0,3.32.91,3.6,3,3.65h3.84c2.52,0,2.94-.43,3.84-1.66A20.53,20.53,0,0,0,52,128.29Z" fill="#212121"/><path d="M92.32,106.69c-2.89.47-3.3.85-4.42,4.75-1.36,4.74-4.66,16.8-6.93,25.3H79.56c-2.14-7.4-4.91-16.57-7.06-23.6-2.39,8.17-4.83,16.29-7,23.6H64.16c-2.06-8.16-4.42-17-6.65-25.35-1.07-3.85-1.52-4.37-4.21-4.7v-1.33H63.5v1.33c-3,.38-3.14.9-2.56,3.27,1.61,6.41,3.26,12.73,5,19.42,2.27-7.55,4.74-15.81,6.85-23.6h1.32c2.31,8.08,4.63,15.58,7,23.65,1.74-6.31,4.09-14.77,5-18.9.62-2.75.29-3.37-3.22-3.84v-1.33h9.45Z" fill="#212121"/><path d="M129.15,128.67c-.25,1.24-1.36,6.13-1.78,7.55H107.31v-1.33c3.84-.33,4.13-.76,4.13-4.65V111.48c0-4.22-.46-4.46-3.55-4.79v-1.33h12.63c3.88,0,5.49,0,6-.1,0,1.19.2,4.75.37,7.27l-1.24.23a16.69,16.69,0,0,0-1.24-3.6c-.66-1.57-1.61-1.9-4.09-1.9h-3.92c-1.28,0-1.36.14-1.36,1.52v10.49h4.58c3.1,0,3.31-.71,3.8-3.94h1.28v9.78h-1.28c-.54-3.42-.87-3.89-3.84-3.89H115v9.45c0,3.32.91,3.6,3,3.65h3.84c2.52,0,2.93-.43,3.84-1.66a21,21,0,0,0,2.23-4.37Z" fill="#212121"/><path d="M159.74,106.69c-2.64.33-3.5.8-3.63,3,0,1.52-.12,3.51-.12,7.93v19h-1.57l-17.67-24.84v11.88c0,4.27.12,6.41.2,7.78.08,2.42,1.12,3.14,4.09,3.42v1.33H131v-1.33c2.56-.24,3.55-.95,3.71-3.27.13-1.52.21-3.66.21-8V111.53a4.52,4.52,0,0,0-.83-3.13c-.78-1.19-1.65-1.48-3.67-1.71v-1.33h6.19l17.51,23.88V117.61c0-4.42-.08-6.46-.21-7.88-.12-2.14-1.07-2.81-4.37-3v-1.33h10.19Z" fill="#212121"/><path d="M189.27,123.26c-2.56.38-2.73.66-2.73,3.46v4a29.34,29.34,0,0,0,.25,4.51,35.8,35.8,0,0,1-9.25,1.71c-9.21,0-15.2-6.69-15.2-16.24,0-10.3,7.11-16,15.36-16,4.38,0,7.31,1.09,8.59,1.19.09,1.76.29,4.7.62,7.69l-1.24.29c-1-4-2.23-5.89-4.83-6.89a10.83,10.83,0,0,0-3.71-.52c-6.32,0-10.49,4.7-10.49,13.67,0,7.6,3.34,15.06,11.44,15.06a7.46,7.46,0,0,0,3.51-.76c.86-.57,1.36-1.19,1.36-3.14v-3.84c0-3.47-.33-3.85-4.3-4.18v-1.38h10.62Z" fill="#212121"/><path d="M212.55,128.34c-.25,1.47-1.49,6.41-1.9,7.88h-19.2v-1.33c3.76-.43,4.09-.66,4.09-4.7V111.34c0-4-.41-4.27-3.72-4.65v-1.33h11.07v1.33c-3.3.38-3.76.57-3.76,4.65v19.33c0,2.89.33,3.56,2.69,3.6,0,0,3,0,3.26,0,2.1,0,2.72-.28,3.67-1.47a16.7,16.7,0,0,0,2.52-4.89Z" fill="#212121"/><path d="M230.92,136.22v-1.33c2.69-.38,3-.85,2.44-2.66S232,128,231.13,125h-8.92c-.66,2.13-1.28,4-1.86,5.93-.9,3.09-.33,3.47,3.06,3.94v1.33h-9.54v-1.33c2.6-.38,3.26-.71,4.71-5L227.13,105l1.32-.29c2.6,8.12,5.45,17.1,8.05,25.31,1.32,4.13,1.69,4.51,4.62,4.89v1.33Zm-4.12-25.31c-1.33,4.09-2.73,8.41-4,12.16h7.72Z" fill="#212121"/><path d="M270.48,106.69c-2.64.33-3.51.8-3.63,3-.05,1.52-.13,3.51-.13,7.93v19h-1.57l-17.67-24.84v11.88c0,4.27.12,6.41.21,7.78.08,2.42,1.11,3.14,4.08,3.42v1.33h-10v-1.33c2.56-.24,3.55-.95,3.72-3.27.12-1.52.2-3.66.2-8V111.53a4.57,4.57,0,0,0-.82-3.13c-.79-1.19-1.65-1.48-3.68-1.71v-1.33h6.2l17.5,23.88V117.61c0-4.42-.08-6.46-.2-7.88-.13-2.14-1.08-2.81-4.38-3v-1.33h10.2Z" fill="#212121"/><path d="M284.43,105.36c5.83,0,9.5,1.33,12.06,4.13A14.86,14.86,0,0,1,300,119.65c0,5.56-2,10.07-5.16,12.82s-7.14,3.75-12.22,3.75H273v-1.33c3.56-.38,3.72-.71,3.72-4.6V111.34c0-4.08-.49-4.27-3.72-4.65v-1.33Zm-4.17,24.55c0,3.56,1.32,4.55,4.42,4.55,7.43,0,11.23-5.84,11.23-14.15,0-5.17-1.53-9.11-4.79-11.39a11.7,11.7,0,0,0-7.06-1.9c-1.86,0-2.85.28-3.26.66s-.54.81-.54,2.66Z" fill="#212121"/><path d="M89.47,159.16l0-7.57-3.23,6.24H85.08l-3.21-6.07v7.4H79.49V146.55h2.1l4.1,7.84,4-7.84h2.08l0,12.61Z" fill="#212121"/><path d="M101.77,158.53a5.9,5.9,0,0,1-2.15-2.33,7.65,7.65,0,0,1,0-6.69,5.9,5.9,0,0,1,2.15-2.33,6,6,0,0,1,6.14,0,6,6,0,0,1,2.15,2.33,7.56,7.56,0,0,1,0,6.69,6,6,0,0,1-2.15,2.33,6,6,0,0,1-6.14,0Zm4.83-2.15a3.59,3.59,0,0,0,1.23-1.43,5.18,5.18,0,0,0,0-4.18,3.55,3.55,0,0,0-1.23-1.44,3.27,3.27,0,0,0-3.51,0,3.55,3.55,0,0,0-1.23,1.44,5.18,5.18,0,0,0,0,4.18,3.59,3.59,0,0,0,1.23,1.43,3.27,3.27,0,0,0,3.51,0Z" fill="#212121"/><path d="M119.06,157.88a6.3,6.3,0,0,1-1.31-4.27v-7.06h2.54v6.95c0,2.26.81,3.39,2.44,3.39a2.15,2.15,0,0,0,1.82-.82,4.3,4.3,0,0,0,.62-2.57v-6.95h2.51v7.06a6.3,6.3,0,0,1-1.31,4.27,5.2,5.2,0,0,1-7.31,0Z" fill="#212121"/><path d="M145.33,146.55v12.61h-2.08l-5.47-7.66v7.66h-2.51V146.55h2.1l5.45,7.66v-7.66Z" fill="#212121"/><path d="M155.29,148.93h-3.51v-2.38h9.55v2.38h-3.5v10.23h-2.54Z" fill="#212121"/><path d="M174.46,156.46h-5.09l-1,2.7h-2.6l4.88-12.61h2.51l4.9,12.61h-2.66Zm-.8-2.22-1.74-4.82-1.74,4.82Z" fill="#212121"/><path d="M184.33,146.55h2.53v12.61h-2.53Z" fill="#212121"/><path d="M204.61,146.55v12.61h-2.09l-5.46-7.66v7.66h-2.51V146.55h2.1l5.45,7.66v-7.66Z" fill="#212121"/><path d="M213.38,159a5.81,5.81,0,0,1-1.95-1.05l.87-2.2a5.43,5.43,0,0,0,1.67.95,5.58,5.58,0,0,0,1.94.36,2.74,2.74,0,0,0,1.6-.37,1.13,1.13,0,0,0,.52-1,1,1,0,0,0-.31-.74,2.15,2.15,0,0,0-.78-.48c-.32-.12-.75-.25-1.29-.4a15.78,15.78,0,0,1-2.05-.68,3.37,3.37,0,0,1-1.37-1.1,3.23,3.23,0,0,1-.58-2,4,4,0,0,1,.52-2,3.64,3.64,0,0,1,1.56-1.41,5.58,5.58,0,0,1,2.54-.52,7.53,7.53,0,0,1,2.06.28,5.9,5.9,0,0,1,1.75.83l-.78,2.22a5.56,5.56,0,0,0-3-1,2.61,2.61,0,0,0-1.58.39,1.27,1.27,0,0,0-.5,1.05,1,1,0,0,0,.58,1,8.09,8.09,0,0,0,1.8.62,16.16,16.16,0,0,1,2.05.69,3.47,3.47,0,0,1,1.37,1.08,3.19,3.19,0,0,1,.57,2,3.92,3.92,0,0,1-.52,2,3.7,3.7,0,0,1-1.58,1.41,5.65,5.65,0,0,1-2.55.53A7.92,7.92,0,0,1,213.38,159Z" fill="#212121"/></g><g id="numbers"><rect x="235.69" y="157.46" width="11.53" height="1.54" fill="#212121"/><path d="M241.05,153.56v1.57h-5.48v-1.25l2.8-3a3.52,3.52,0,0,0,.6-.84,1.72,1.72,0,0,0,.15-.69,1,1,0,0,0-.29-.77,1.26,1.26,0,0,0-.87-.27,1.7,1.7,0,0,0-1.5.83l-1.22-.9a3.05,3.05,0,0,1,1.17-1.14,3.54,3.54,0,0,1,1.71-.41,3,3,0,0,1,1.41.31,2.22,2.22,0,0,1,.94.85,2.44,2.44,0,0,1,.34,1.31,3.2,3.2,0,0,1-.25,1.27,4.83,4.83,0,0,1-1,1.36l-1.67,1.81Z" fill="#212121"/><path d="M247.67,153.56v1.57H242.2v-1.25l2.79-3a3,3,0,0,0,.6-.84,1.73,1.73,0,0,0,.16-.69,1,1,0,0,0-.3-.77,1.23,1.23,0,0,0-.86-.27,1.7,1.7,0,0,0-1.5.83l-1.23-.9a3.2,3.2,0,0,1,1.17-1.14,3.54,3.54,0,0,1,1.71-.41,3.06,3.06,0,0,1,1.42.31,2.27,2.27,0,0,1,.94.85,2.52,2.52,0,0,1,.33,1.31,3.38,3.38,0,0,1-.24,1.27,4.9,4.9,0,0,1-1,1.36l-1.66,1.81Z" fill="#212121"/><rect x="52.82" y="157.46" width="11.53" height="1.54" fill="#212121"/><path d="M57.79,153.56v1.57H52.31v-1.25l2.8-3a3.52,3.52,0,0,0,.6-.84,1.72,1.72,0,0,0,.15-.69,1,1,0,0,0-.29-.77,1.26,1.26,0,0,0-.87-.27,1.77,1.77,0,0,0-.86.21,1.8,1.8,0,0,0-.64.62L52,148.2a3.05,3.05,0,0,1,1.17-1.14,3.54,3.54,0,0,1,1.71-.41,3,3,0,0,1,1.41.31,2.22,2.22,0,0,1,.94.85,2.44,2.44,0,0,1,.34,1.31,3.2,3.2,0,0,1-.25,1.27,5,5,0,0,1-1,1.36l-1.67,1.81Z" fill="#212121"/><path d="M60.48,154.76a3.41,3.41,0,0,1-1.11-1.48A6.22,6.22,0,0,1,59,151a6.13,6.13,0,0,1,.39-2.31,3.44,3.44,0,0,1,1.11-1.49,2.65,2.65,0,0,1,1.6-.51,2.68,2.68,0,0,1,1.61.51,3.43,3.43,0,0,1,1.1,1.49,6.12,6.12,0,0,1,.4,2.31,6.22,6.22,0,0,1-.4,2.32,3.39,3.39,0,0,1-1.1,1.48,2.68,2.68,0,0,1-1.61.51A2.65,2.65,0,0,1,60.48,154.76ZM63.12,153a5.56,5.56,0,0,0,0-4,1.14,1.14,0,0,0-2.07,0,5.56,5.56,0,0,0,0,4,1.14,1.14,0,0,0,2.07,0Z" fill="#212121"/></g></g><g id="frame"><rect width="300" height="300" fill="none"/></g></svg>