<svg xmlns="http://www.w3.org/2000/svg" viewBox="0 0 30 30"><path d="M15,1.62h.05a40.32,40.32,0,0,1,6.66.92,26.12,26.12,0,0,1,3.68,1.63.69.69,0,0,1,.37.67L24.61,20.94a.68.68,0,0,1-.24.48c-.75.65-3.2,2.78-4.17,3.53s-3.77,2.62-4.81,3.31a.75.75,0,0,1-.78,0c-1-.69-3.88-2.58-4.81-3.31s-3.42-2.88-4.17-3.53a.68.68,0,0,1-.24-.48L4.24,4.85a.69.69,0,0,1,.37-.67A26.12,26.12,0,0,1,8.29,2.55,40.32,40.32,0,0,1,15,1.63H15m0-.2h-.06a40.19,40.19,0,0,0-6.71.93A27.34,27.34,0,0,0,4.52,4,.9.9,0,0,0,4,4.86L5.19,21a.93.93,0,0,0,.31.62c.73.64,3.2,2.79,4.18,3.54s3.68,2.56,4.82,3.31a.91.91,0,0,0,1,0c1.14-.75,3.9-2.59,4.82-3.31s3.45-2.9,4.18-3.54a.93.93,0,0,0,.31-.62L26,4.86A.9.9,0,0,0,25.48,4a27.34,27.34,0,0,0-3.71-1.64,40.19,40.19,0,0,0-6.71-.93H15Z" transform="translate(0 0)" fill="#212121"/><path d="M15,.4a30,30,0,0,1,7,1,19.87,19.87,0,0,1,4.62,2.13.71.71,0,0,1,.33.65L25.69,21.33a.66.66,0,0,1-.23.47c-.8.71-3.61,3.23-4.55,4s-4.37,3-5.53,3.73a.71.71,0,0,1-.76,0c-1.16-.76-4.61-3-5.53-3.73s-3.75-3.25-4.55-4a.66.66,0,0,1-.23-.47L3.08,4.14a.71.71,0,0,1,.33-.65A19.87,19.87,0,0,1,8,1.36a30,30,0,0,1,7-1M15,0h0A29.75,29.75,0,0,0,7.92,1,20.13,20.13,0,0,0,3.19,3.15a1.12,1.12,0,0,0-.51,1L3.91,21.36a1.11,1.11,0,0,0,.36.74c.84.75,3.63,3.24,4.58,4S13,28.93,14.4,29.82a1.09,1.09,0,0,0,1.2,0c1.37-.89,4.64-3,5.55-3.74s3.74-3.23,4.58-4a1.11,1.11,0,0,0,.36-.74L27.32,4.17a1.12,1.12,0,0,0-.51-1A20.13,20.13,0,0,0,22.08,1,29.75,29.75,0,0,0,15,0Z" transform="translate(0 0)" fill="#212121"/><path d="M5.77,9.88a.19.19,0,0,1,0-.08.16.16,0,0,1,0-.12.18.18,0,0,1,.11,0H6V7.17l-.09,0a.17.17,0,0,1-.12-.06.14.14,0,0,1,0-.11c0-.06,0-.08.06-.08H7.63v.62s0,.07,0,.07-.1-.07-.12-.21l0-.2H6.35V8.3h.87l0-.18c0-.09,0-.14.1-.14s0,0,0,.07v.79c0,.05,0,.07,0,.07s-.08,0-.1-.13l0-.2H6.35V9.65l.16.06a.19.19,0,0,1,.09,0,.19.19,0,0,1,0,.08s0,.07,0,.07H5.83A.07.07,0,0,1,5.77,9.88Z" transform="translate(0 0)" fill="#212121"/><path d="M7.86,9.82c0-.09.06-.15.16-.18l.1,0V7.17l-.1,0L7.9,7.09a.21.21,0,0,1,0-.12c0-.06,0-.08.06-.08H9.81v.6s0,.08-.05.08a.08.08,0,0,1-.07-.05.49.49,0,0,1,0-.17l0-.19H8.47V8.22H9.4l0-.18c0-.09.05-.13.09-.13s.05,0,.05.06v.78s0,.06-.05.06-.07,0-.09-.13l0-.18H8.47V9.63H9.65l0-.2a1.08,1.08,0,0,1,0-.17s0,0,.07,0,.06,0,.06.08v.62H7.92S7.86,9.88,7.86,9.82Z" transform="translate(0 0)" fill="#212121"/><path d="M10.13,9.88a.19.19,0,0,1,0-.08.16.16,0,0,1,0-.12.18.18,0,0,1,.11,0h.09V7.15l-.09,0a.33.33,0,0,1-.12-.06.1.1,0,0,1,0-.09c0-.06,0-.08.06-.08h1a.81.81,0,0,1,.59.2.86.86,0,0,1,.21.63.72.72,0,0,1-.8.81h-.08L12,9.65l.18.06c.07,0,.11.07.11.13s0,.07-.05.07h-.53l-1-1.37V9.65l.16.06a.19.19,0,0,1,.09,0,.19.19,0,0,1,0,.08s0,.07-.05.07h-.74A.07.07,0,0,1,10.13,9.88Zm1-1.61a.46.46,0,0,0,.36-.14.63.63,0,0,0,.12-.41.66.66,0,0,0-.12-.42.45.45,0,0,0-.36-.15h-.47V8.27Z" transform="translate(0 0)" fill="#212121"/><path d="M12.35,9.88a.11.11,0,0,1,0-.08.16.16,0,0,1,0-.12.21.21,0,0,1,.11,0h.09V7.17l-.09,0-.12-.06a.17.17,0,0,1,0-.1s0-.06,0-.07,0,0,0,0h.5l1.11,2a2.66,2.66,0,0,1,.2.48V7.15H14a.07.07,0,0,1-.06,0,.22.22,0,0,1,0-.09.15.15,0,0,1,0-.11.2.2,0,0,1,.11,0h.6s.05,0,.05.06a.11.11,0,0,1,0,.08l-.09.06-.14,0V9.91h-.32L13,7.85a2.31,2.31,0,0,1-.17-.41V9.65l.18.06c.07,0,.11.07.11.13s0,.07-.05.07H12.4A0,0,0,0,1,12.35,9.88Z" transform="translate(0 0)" fill="#212121"/><path d="M14.68,9.88a.19.19,0,0,1,0-.08.17.17,0,0,1,.05-.12.16.16,0,0,1,.11,0h.08l.81-2.75h.39l.81,2.76.14,0a.19.19,0,0,1,.09.05s0,0,0,.09,0,.08,0,.08h-.78a.05.05,0,0,1-.05,0,.19.19,0,0,1,0-.08.16.16,0,0,1,0-.12.21.21,0,0,1,.12,0h.13L16.35,9h-1l-.2.7.2.06a.19.19,0,0,1,.09,0,.1.1,0,0,1,0,.08s0,.07-.05.07h-.71A.05.05,0,0,1,14.68,9.88Zm1.59-1.21-.41-1.42-.41,1.42Z" transform="translate(0 0)" fill="#212121"/><path d="M17.21,9.88a.19.19,0,0,1,0-.08.16.16,0,0,1,0-.12.18.18,0,0,1,.11,0h.09V7.17l-.09,0a.33.33,0,0,1-.12-.06.17.17,0,0,1,0-.1s0-.06,0-.07a0,0,0,0,1,0,0h.51l1.11,2a2.66,2.66,0,0,1,.2.48V7.15h-.21a.05.05,0,0,1-.05,0,.2.2,0,0,1,0-.09A.14.14,0,0,1,19,6.89h.6s.05,0,.05.06a.09.09,0,0,1,0,.08l-.08.06-.14,0V9.91H19L17.87,7.85a2.34,2.34,0,0,1-.16-.41V9.65l.18.06c.07,0,.11.07.11.13s0,.07-.05.07h-.68A.06.06,0,0,1,17.21,9.88Z" transform="translate(0 0)" fill="#212121"/><path d="M19.8,9.82c0-.09.05-.15.16-.18l.09,0V7.17l-.09,0c-.11,0-.16-.09-.16-.18s0-.08.05-.08h1a1.08,1.08,0,0,1,.6.16,1.14,1.14,0,0,1,.42.51,2.07,2.07,0,0,1,.15.84,2,2,0,0,1-.15.84,1.11,1.11,0,0,1-.42.5,1.08,1.08,0,0,1-.6.17h-1S19.8,9.88,19.8,9.82Zm1.08-.2a.68.68,0,0,0,.6-.32,1.62,1.62,0,0,0,.21-.9,1.62,1.62,0,0,0-.21-.9.67.67,0,0,0-.6-.33H20.4V9.62Z" transform="translate(0 0)" fill="#212121"/><path d="M22.72,9.79a1.07,1.07,0,0,1-.4-.52,2.26,2.26,0,0,1-.15-.87,2.19,2.19,0,0,1,.15-.87,1.1,1.1,0,0,1,.4-.53A1.11,1.11,0,0,1,23.9,7a1.17,1.17,0,0,1,.4.53,2.4,2.4,0,0,1,.14.87,2.48,2.48,0,0,1-.14.87,1.14,1.14,0,0,1-.4.52,1.11,1.11,0,0,1-1.18,0Zm1.16-.44a1.81,1.81,0,0,0,.21-.95,1.78,1.78,0,0,0-.21-1,.67.67,0,0,0-1.15,0,1.79,1.79,0,0,0-.2,1,1.81,1.81,0,0,0,.2.95.67.67,0,0,0,1.15,0Z" transform="translate(0 0)" fill="#212121"/><path d="M12.6,3c.18,0,.26.15.26.41v.82c0,.25-.08.4-.26.4h-.29v1H12V3Zm0,.47c0-.08,0-.11-.07-.11h-.2V4.3h.2c.06,0,.07,0,.07-.11Z" transform="translate(0 0)" fill="#212121"/><path d="M13.62,5.07h-.34l0,.54H13L13.26,3h.37L14,5.61h-.28Zm0-.35-.14-1.23-.12,1.23Z" transform="translate(0 0)" fill="#212121"/><path d="M14.47,4.6h-.09v1H14.1V3h.56c.19,0,.27.15.27.41V4.2c0,.21,0,.35-.18.39l.26,1h-.3Zm-.09-.34h.2c.05,0,.07,0,.07-.11V3.5c0-.08,0-.11-.07-.11h-.2Z" transform="translate(0 0)" fill="#212121"/><path d="M15.73,6l-.17-.34H15.4c-.18,0-.26-.15-.26-.41V3.44c0-.26.08-.41.26-.41h.3c.19,0,.27.15.27.41V5.2a.47.47,0,0,1-.12.37L16,6Zm-.31-.81c0,.08,0,.11.07.11h.13c.05,0,.07,0,.07-.11V3.5c0-.08,0-.11-.07-.11h-.13c-.05,0-.07,0-.07.11Z" transform="translate(0 0)" fill="#212121"/><path d="M17,3V5.2c0,.26-.08.41-.27.41h-.3c-.19,0-.27-.15-.27-.41V3h.29V5.14c0,.08,0,.11.06.11h.13c.06,0,.07,0,.07-.11V3Z" transform="translate(0 0)" fill="#212121"/><path d="M18,5.25v.36h-.75V3H18v.36h-.45v.72h.38v.36h-.38v.78Z" transform="translate(0 0)" fill="#212121"/><polygon points="9.23 4.32 9.05 3.71 8.82 4.32 8.21 4.51 8.82 4.73 9 5.34 9.23 4.73 9.84 4.55 9.23 4.32" fill="#212121"/><polygon points="21.18 4.32 21 3.71 20.77 4.32 20.16 4.51 20.77 4.73 20.95 5.34 21.18 4.73 21.79 4.55 21.18 4.32" fill="#212121"/><polygon points="10.86 23.01 10.68 22.4 10.45 23.01 9.84 23.19 10.45 23.42 10.63 24.03 10.86 23.42 11.47 23.24 10.86 23.01" fill="#212121"/><polygon points="19.55 23.01 19.37 22.4 19.14 23.01 18.53 23.19 19.14 23.42 19.32 24.03 19.55 23.42 20.16 23.24 19.55 23.01" fill="#212121"/><polygon points="15.41 24.44 15.05 23.22 14.59 24.44 13.37 24.8 14.59 25.26 14.95 26.48 15.41 25.26 16.63 24.89 15.41 24.44" fill="#212121"/><polygon points="9.74 13.44 12.12 11.91 12.17 11.87 12.23 11.91 12.89 12.32 12.76 12.32 14.64 11.11 14.75 11.04 14.84 11.13 15.73 11.96 15.64 11.92 16.98 11.98 17.02 11.98 17.04 11.99 17.95 12.72 16.93 12.17 16.98 12.18 15.64 12.21 15.59 12.21 15.54 12.17 14.62 11.38 14.82 11.39 12.89 12.52 12.82 12.56 12.76 12.52 12.12 12.09 12.23 12.09 9.74 13.44" fill="#212121"/><polygon points="16.62 13.28 18.87 12.11 18.94 12.08 19 12.11 20.87 13.1 18.87 12.39 19 12.39 16.63 13.3 16.62 13.28" fill="#212121"/><path d="M9.15,14.58c.07-.26-.39-.51-.75-.51a3.15,3.15,0,0,0-1.92.64c-.35.34-.58,1.42-.1,1.8a2,2,0,0,0,1.41.55,3.94,3.94,0,0,0,1.76-.5,1.6,1.6,0,0,1-.72,1.19,4.26,4.26,0,0,1-.93.58s0,2-.07,2.12a7.59,7.59,0,0,0,.21,1H9c0-.44,0-.53-.14-.61s-.33,0-.37-.06a3.12,3.12,0,0,1,.21-1.36A3.36,3.36,0,0,1,10,18.88a2.88,2.88,0,0,0,1.45-.83c.37.7,0,1.33.38,1.6s1.34,1.69,1.52,1.8h1.3c0-.29,0-.45-.12-.5s-.52.13-.71,0a3.75,3.75,0,0,1-.74-1.51,1.55,1.55,0,0,1,.53-1.18c.06-.12,0-.5.09-.65.06.27.14.32.27.34a10.49,10.49,0,0,1,1.21.13,7.82,7.82,0,0,0,1.27.26c.14,0,.2-.33.62-.34a1,1,0,0,0-.39.68c0,.25.38.45.53,1.28a5.23,5.23,0,0,0,1.08,1.52h1.25c.06-.29,0-.47-.11-.52s-.79.15-1,0a4.54,4.54,0,0,1-.35-1.52,2.22,2.22,0,0,1,1.2-1.78c-.33.39-.29.52-.2.75a1.74,1.74,0,0,0,1,.79c.36.15.46,0,.9.37a1.57,1.57,0,0,1,.49,1.19c0,.15.63.32.69.19a1.85,1.85,0,0,0-.1-1.38c-.31-.46-.68-.51-1-.94a3.07,3.07,0,0,1-.58-1.21.43.43,0,0,0-.71,0c.55-.48.75-.47,1-.42s.3.28.52.28a.69.69,0,0,1,.48.14c.11.11.26.47.52.46s.68-.22.69-.38a5.7,5.7,0,0,0-.12-1.72c-.19-.4-.37-.7-.28-.82s.2-.12.19-.29a.25.25,0,0,0-.33-.24c-.22,0-.23.3-.68.25a8.79,8.79,0,0,1-2-.33c-.29-.2-.41-.45-.95-.45s-2.87.54-3.54.54-1.88-.21-2.83-.21a4.72,4.72,0,0,0-3,1.23c-.85.8-1.23,1.27-1.77,1.2s-1.14-.38-1.11-.81.19-.86.55-.95a1.69,1.69,0,0,1,.91,0,.62.62,0,0,0,.56.22A.56.56,0,0,0,9.15,14.58Z" transform="translate(0 0)" fill="#212121"/><rect width="30" height="30" fill="none"/></svg>