<!-- Copyright (c) 2022 Jan Stehno -->
<svg xmlns="http://www.w3.org/2000/svg" viewBox="0 0 300 300"><title>parquefernando</title><g id="parquefernando"><g id="inner_border"><path d="M150,16.24h.47c5.05.35,49.29,3.5,66.6,9.21,13.71,4.52,29.52,12.47,36.8,16.3a7,7,0,0,1,3.75,6.74L246.1,209.4a7.08,7.08,0,0,1-2.4,4.81c-7.47,6.5-32,27.81-41.71,35.34-9.32,7.24-37.7,26.13-48.11,33a7,7,0,0,1-7.76,0c-10.41-6.89-38.79-25.78-48.11-33C88.32,242,63.77,220.71,56.3,214.21a7.08,7.08,0,0,1-2.4-4.81L42.38,48.5a7,7,0,0,1,3.75-6.74c7.28-3.83,23.09-11.78,36.8-16.3,17.31-5.71,61.55-8.86,66.6-9.21H150m0-2-.61,0c-5,.34-49.54,3.51-67.08,9.3C68.68,28.05,53.21,35.78,45.2,40a9,9,0,0,0-4.81,8.65L51.91,209.55A9,9,0,0,0,55,215.72c7.34,6.39,32.05,27.84,41.79,35.41,9.26,7.2,36.82,25.55,48.24,33.11a9,9,0,0,0,10,0c11.42-7.56,39-25.91,48.24-33.11,9.74-7.57,34.45-29,41.79-35.41a9,9,0,0,0,3.08-6.17L259.61,48.64A9,9,0,0,0,254.8,40c-8-4.21-23.48-11.94-37.11-16.43-17.54-5.79-62.06-9-67.08-9.3l-.61,0Z" transform="translate(0 0)" fill="#212121"/></g><g id="outter_border"><path d="M150,4s37.59.32,69.7,9.64c20.7,6,38.83,16.61,46.25,21.28a7.06,7.06,0,0,1,3.27,6.46l-12.31,171.9a7,7,0,0,1-2.32,4.73c-8,7.13-36.08,32.26-45.52,39.6-9.14,7.11-43.63,29.68-55.23,37.25a7,7,0,0,1-7.68,0c-11.6-7.57-46.09-30.14-55.23-37.25-9.44-7.34-37.56-32.47-45.52-39.6a7,7,0,0,1-2.32-4.73L30.78,41.38a7.06,7.06,0,0,1,3.27-6.46C41.47,30.25,59.6,19.66,80.3,13.64,112.41,4.32,150,4,150,4m0-4h0c-1.56,0-38.52.43-70.78,9.8C57.81,16,39,27.07,31.92,31.54a11,11,0,0,0-5.13,10.13L39.1,213.56A11,11,0,0,0,42.74,221c8.33,7.47,36.24,32.39,45.73,39.78,9.08,7.05,41.84,28.53,55.51,37.44a11,11,0,0,0,12,0c13.67-8.91,46.43-30.39,55.51-37.44,9.49-7.39,37.4-32.31,45.73-39.78a11,11,0,0,0,3.64-7.43L273.21,41.67a11,11,0,0,0-5.13-10.13C261,27.07,242.19,16,220.81,9.8,188.55.43,151.59,0,150,0Z" transform="translate(0 0)" fill="#212121"/></g><g id="title"><path d="M57.74,98.75a1.61,1.61,0,0,1-.17-.78A1.47,1.47,0,0,1,58,96.84a1.61,1.61,0,0,1,1.14-.39H60V71.68l-.94-.26a2.52,2.52,0,0,1-1.23-.61,1.5,1.5,0,0,1-.37-1.09c0-.58.19-.87.56-.87H76.34v6.22c0,.49-.19.74-.59.74s-.9-.71-1.18-2.13l-.38-2H63.52V83h8.69l.41-1.87c.19-.9.5-1.35.94-1.35s.52.22.52.66v8c0,.46-.17.7-.52.7s-.75-.45-.94-1.35l-.41-1.91H63.52V96.49l1.59.57a1.88,1.88,0,0,1,.86.54,1.29,1.29,0,0,1,.26.81c0,.43-.17.65-.49.65H58.27A.56.56,0,0,1,57.74,98.75Z" transform="translate(0 0)"/><path d="M78.64,98.19c0-.9.53-1.48,1.6-1.74l.94-.22V71.68l-.94-.22A2.2,2.2,0,0,1,79,70.85a1.66,1.66,0,0,1-.38-1.13c0-.58.18-.87.56-.87H98.14v6.09c0,.49-.19.74-.59.74a.8.8,0,0,1-.69-.52,6,6,0,0,1-.49-1.66L96,71.63H84.65V82.24H94l.45-1.87c.23-.87.53-1.3.9-1.3s.56.21.56.65V87.5c0,.43-.19.65-.56.65s-.67-.44-.9-1.3L94,85H84.65v11.3H96.51l.35-2a5.86,5.86,0,0,1,.48-1.63c.19-.33.41-.5.66-.5.4,0,.6.24.6.74v6.17H79.2C78.82,99.06,78.64,98.77,78.64,98.19Z" transform="translate(0 0)"/><path d="M101.34,98.75a1.61,1.61,0,0,1-.17-.78,1.47,1.47,0,0,1,.42-1.13,1.59,1.59,0,0,1,1.14-.39h.91V71.55l-.94-.31a4.31,4.31,0,0,1-1.24-.6,1.15,1.15,0,0,1-.36-.92c0-.58.18-.87.56-.87h10.43A8.1,8.1,0,0,1,118,70.94q2.16,2.09,2.16,6.21T118,83.3a8.24,8.24,0,0,1-5.87,2h-.77l8.31,11.22,1.74.56c.76.26,1.14.7,1.14,1.31,0,.43-.16.65-.48.65h-5.32l-9.6-13.69V96.49l1.6.57a1.79,1.79,0,0,1,.85.54,1.24,1.24,0,0,1,.27.81c0,.43-.17.65-.49.65h-7.48A.56.56,0,0,1,101.34,98.75Zm10.5-16a4.39,4.39,0,0,0,3.55-1.44,6.21,6.21,0,0,0,1.22-4.13A6.27,6.27,0,0,0,115.37,73a4.37,4.37,0,0,0-3.53-1.45h-4.73V82.72Z" transform="translate(0 0)"/><path d="M123.45,98.75a1.61,1.61,0,0,1-.17-.78,1.47,1.47,0,0,1,.42-1.13,1.62,1.62,0,0,1,1.15-.39h.9V71.68l-.94-.31a2.85,2.85,0,0,1-1.18-.6,1.38,1.38,0,0,1-.35-1,1.18,1.18,0,0,1,.17-.7.55.55,0,0,1,.42-.22H129l11.09,20a26.42,26.42,0,0,1,2,4.74V71.46H140a.56.56,0,0,1-.52-.3,1.65,1.65,0,0,1-.18-.83,1.44,1.44,0,0,1,.42-1.09,1.62,1.62,0,0,1,1.15-.39h6q.48,0,.48.66a1.12,1.12,0,0,1-.33.78,2.34,2.34,0,0,1-.88.56l-1.39.57V99.06h-3.24L130.06,78.5a22.75,22.75,0,0,1-1.67-4.13V96.49l1.81.61c.74.26,1.11.7,1.11,1.31,0,.43-.16.65-.48.65H124A.56.56,0,0,1,123.45,98.75Z" transform="translate(0 0)"/><path d="M146.82,98.75a1.5,1.5,0,0,1-.18-.78,1.47,1.47,0,0,1,.42-1.13,1.62,1.62,0,0,1,1.15-.39H149l8.07-27.6H161l8.1,27.64,1.43.44a1.59,1.59,0,0,1,.85.5,1.34,1.34,0,0,1,.26.84c0,.53-.15.79-.45.79h-7.75a.59.59,0,0,1-.54-.31,1.41,1.41,0,0,1-.19-.78,1.5,1.5,0,0,1,.41-1.13,1.62,1.62,0,0,1,1.15-.39h1.29l-2-6.91h-9.87l-2,6.95,2,.61a1.83,1.83,0,0,1,.92.48,1.12,1.12,0,0,1,.26.78c0,.47-.15.7-.45.7h-7.09A.55.55,0,0,1,146.82,98.75Zm15.89-12L158.6,72.5l-4.1,14.21Z" transform="translate(0 0)"/><path d="M172.13,98.75A1.5,1.5,0,0,1,172,98a1.47,1.47,0,0,1,.42-1.13,1.62,1.62,0,0,1,1.15-.39h.9V71.68l-.94-.31a2.92,2.92,0,0,1-1.18-.6,1.38,1.38,0,0,1-.35-1,1.11,1.11,0,0,1,.18-.7.52.52,0,0,1,.42-.22h5.07l11.09,20a25.71,25.71,0,0,1,2,4.74V71.46h-2.05a.57.57,0,0,1-.52-.3,1.77,1.77,0,0,1-.17-.83,1.44,1.44,0,0,1,.42-1.09,1.59,1.59,0,0,1,1.14-.39h6c.33,0,.49.22.49.66a1.12,1.12,0,0,1-.33.78,2.38,2.38,0,0,1-.89.56l-1.39.57V99.06h-3.23L178.73,78.5a22.79,22.79,0,0,1-1.66-4.13V96.49l1.8.61c.75.26,1.12.7,1.12,1.31,0,.43-.17.65-.49.65h-6.85A.55.55,0,0,1,172.13,98.75Z" transform="translate(0 0)"/><path d="M198,98.19c0-.9.53-1.48,1.6-1.74l.94-.22V71.68l-.94-.22c-1.07-.26-1.6-.84-1.6-1.74,0-.58.19-.87.56-.87h10.32a11,11,0,0,1,6,1.65A11.17,11.17,0,0,1,219,75.57,20.62,20.62,0,0,1,220.49,84,20.33,20.33,0,0,1,219,92.43a11,11,0,0,1-4.15,5,11.14,11.14,0,0,1-6,1.63H198.52C198.15,99.06,198,98.77,198,98.19Zm10.88-2a6.78,6.78,0,0,0,6-3.19c1.42-2.13,2.12-5.13,2.12-9s-.7-6.9-2.12-9.06a6.74,6.74,0,0,0-6-3.24H204V96.19Z" transform="translate(0 0)"/><path d="M227.18,97.91a11.2,11.2,0,0,1-4-5.24A22.81,22.81,0,0,1,221.74,84a22.78,22.78,0,0,1,1.45-8.69,11.31,11.31,0,0,1,4-5.26A10.86,10.86,0,0,1,239,70a11.33,11.33,0,0,1,4,5.26A23,23,0,0,1,244.41,84,23,23,0,0,1,243,92.67a11.22,11.22,0,0,1-4,5.24,11,11,0,0,1-11.79,0Zm11.67-4.46q2-3.3,2-9.47t-2-9.48a6.71,6.71,0,0,0-11.6,0q-2,3.34-2,9.48t2,9.47a6.75,6.75,0,0,0,11.6,0Z" transform="translate(0 0)"/><path d="M126,30.35c1.88,0,2.66,1.46,2.66,4v8.19c0,2.53-.78,4-2.66,4H123.1v9.45h-2.82V30.35ZM125.81,35c0-.85-.15-1.1-.68-1.1h-2V43h2c.53,0,.68-.25.68-1.1Z" transform="translate(0 0)"/><path d="M136.18,50.72H132.8l-.54,5.34h-2.81l3.11-25.71h3.79l3.25,25.71h-2.84Zm-.4-3.54-1.34-12.31-1.27,12.31Z" transform="translate(0 0)"/><path d="M144.71,46h-.93v10H141V30.35h5.67c1.88,0,2.66,1.46,2.66,4V42c0,2.12-.53,3.51-1.78,3.91l2.57,10.15h-3Zm-.93-3.46h2c.54,0,.68-.24.68-1.1V35c0-.85-.14-1.1-.68-1.1h-2Z" transform="translate(0 0)"/><path d="M157.27,59.48l-1.64-3.42H154c-1.88,0-2.66-1.47-2.66-4V34.38c0-2.57.78-4,2.66-4h3c1.88,0,2.66,1.46,2.66,4V52c0,1.75-.36,3-1.22,3.62l1.88,3.83Zm-3.08-8.11c0,.86.17,1.1.71,1.1h1.3c.53,0,.68-.24.68-1.1V35c0-.85-.15-1.1-.68-1.1h-1.3c-.54,0-.71.25-.71,1.1Z" transform="translate(0 0)"/><path d="M170.25,30.35V52c0,2.56-.78,4-2.66,4h-3c-1.89,0-2.67-1.47-2.67-4V30.35h2.81v21c0,.86.15,1.1.69,1.1h1.29c.54,0,.71-.24.71-1.1v-21Z" transform="translate(0 0)"/><path d="M180.1,52.47v3.59h-7.53V30.35h7.34v3.58h-4.5v7.13h3.79v3.63h-3.79v7.78Z" transform="translate(0 0)"/></g><g id="stars"><polygon points="92.29 43.24 90.47 37.14 88.19 43.24 82.09 45.06 88.19 47.34 90.02 53.44 92.29 47.34 98.39 45.52 92.29 43.24" fill="#212121"/><polygon points="211.81 43.24 209.99 37.14 207.71 43.24 201.61 45.06 207.71 47.34 209.53 53.44 211.81 47.34 217.91 45.52 211.81 43.24" fill="#212121"/><polygon points="108.59 230.12 106.77 224.02 104.49 230.12 98.39 231.94 104.49 234.21 106.31 240.31 108.59 234.21 114.69 232.39 108.59 230.12" fill="#212121"/><polygon points="195.51 230.12 193.69 224.02 191.41 230.12 185.31 231.94 191.41 234.21 193.23 240.31 195.51 234.21 201.61 232.39 195.51 230.12" fill="#212121"/><polygon points="154.1 244.37 150.46 232.16 145.9 244.37 133.7 248.01 145.9 252.56 149.54 264.76 154.1 252.56 166.3 248.92 154.1 244.37" fill="#212121"/></g><g id="lines"><polygon points="97.44 134.38 121.21 119.07 121.74 118.73 122.33 119.09 128.93 123.18 127.64 123.16 146.41 111.09 147.47 110.4 148.4 111.27 157.34 119.6 156.4 119.23 169.84 119.76 170.21 119.77 170.41 119.94 179.47 127.25 169.25 121.66 169.82 121.84 156.37 122.09 155.86 122.1 155.43 121.73 146.17 113.76 148.16 113.94 128.9 125.22 128.23 125.62 127.61 125.21 121.17 120.88 122.29 120.9 97.44 134.38" fill="#212121"/><polygon points="166.16 132.79 188.73 121.1 189.36 120.77 189.97 121.09 208.67 130.99 188.74 123.89 189.98 123.88 166.25 132.98 166.16 132.79" fill="#212121"/></g><g id="puma"><path d="M91.46,145.79c.77-2.61-3.82-5.06-7.49-5.06s-14,1.26-19.19,6.35c-3.5,3.45-5.77,14.19-1,18s8.15,5.44,14.12,5.57,15.93-3.5,17.66-5.06c-.82,5.71-2.65,8.12-7.27,11.92a42,42,0,0,1-9.3,5.77s-.27,20.28-.65,21.19,2,10,2,10h10c-.1-4.39-.32-5.27-1.41-6s-3.22.2-3.63-.66.29-11.77,2.1-13.58,6.49-3.74,12.83-5.37,13.26-6.07,14.44-8.37c3.71,7.06.21,13.36,3.81,16.06,4.07,3,13.39,16.84,15.19,18h13c0-2.9-.13-4.5-1.13-5-1.36-.62-5.22,1.31-7.12-.32S131,197.58,131,194.14c0-8.25,4.68-10.49,5.32-11.84s.15-5.05.86-6.5c.67,2.65,1.45,3.2,2.69,3.42,1.4.25,5.34-.05,12.11,1.23,7.71,1.46,11.28,3.1,12.7,2.63s2-3.3,6.28-3.41c-2,1.67-4,4.32-4,6.79s3.78,4.49,5.33,12.85c.5,2.67,8.21,13.37,10.81,15.18h12.49c.59-2.86.12-4.73-1.13-5.21s-7.9,1.52-9.53-.05c-1.16-1.1-3.66-11.38-3.53-15.27.27-8.33,6.56-14.92,12-17.77-3.26,3.87-2.88,5.18-1.94,7.53,1.53,3.79,6,6.34,9.62,7.88s4.65-.11,9.05,3.71c5.24,4.57,4.51,10.23,4.83,11.87s6.33,3.23,7,2,2.06-9.21-1-13.83-6.79-5.16-10.32-9.41a31.66,31.66,0,0,1-5.77-12.12c-.27-1.44-4-3.34-7.06-.42,5.46-4.72,7.43-4.65,10-4.18s3,2.77,5.18,2.82,3.62.36,4.8,1.45,2.66,4.68,5.25,4.58,6.75-2.18,6.84-3.81.72-13.22-1.18-17.2-3.71-7.07-2.81-8.24,2.06-1.16,1.88-2.86-1.11-2.8-3.28-2.44-2.31,3-6.74,2.49-17.3-1.27-20.29-3.26-4.16-4.53-9.5-4.53-28.7,5.44-35.4,5.44-18.84-2.09-28.34-2.09S102.38,145.88,94,153.85s-12.22,12.67-17.65,12S64.89,162,65.16,157.67s2-8.62,5.54-9.46,8.45-1.2,9.13-.43C81,149.1,82,150.05,85.44,150S90.7,148.41,91.46,145.79Z" transform="translate(0 0)" fill="#212121"/></g></g><g id="frame"><rect width="300" height="300" fill="none"/></g></svg>