<svg xmlns="http://www.w3.org/2000/svg" viewBox="0 0 30 30"><g opacity="0.25"><path d="M26.18,9.6l-.71.5L22.6,13.34l-.86,0-.34.05-3.78.2-.33.33-.77.62-.76.26L14.37,15l-1.44-1-.36-.3-1.79,0-1.69-1L6.62,10.84,5.86,9.05,4.47,8.42A12.31,12.31,0,0,0,2.58,15,12.66,12.66,0,0,0,3,18.1H27a12.66,12.66,0,0,0,.39-3.1A12.38,12.38,0,0,0,26.18,9.6Z" fill="#212121"/></g><path d="M24.81,25.52H0v.34H5.31a14.57,14.57,0,0,0,19.38,0H30v-.34H24.81ZM15,25.86h6.27a12.54,12.54,0,0,1-12.54,0Zm0,3.52a14.33,14.33,0,0,1-9.43-3.52H6a14.12,14.12,0,0,0,18,0h.43A14.33,14.33,0,0,1,15,29.38Z" fill="#212121"/><path d="M29.26,17.91A14.55,14.55,0,1,0,.45,15a14.65,14.65,0,0,0,.29,2.91H0v.34H30v-.34Zm-2.06,0H2.8A12.54,12.54,0,1,1,27.54,15,12.67,12.67,0,0,1,27.2,17.91Zm1.89,0H28.8A14,14,0,0,0,29.1,15,14.1,14.1,0,0,0,.9,15a14,14,0,0,0,.3,2.91H.91A14.65,14.65,0,0,1,.62,15a14.38,14.38,0,0,1,28.76,0A14.65,14.65,0,0,1,29.09,17.91Z" fill="#212121"/><path d="M27.08,16.57s-.19.78-.19.8-.35-.76-.35-.76l.15,1-.4,0L26,16.88l0,.58-.23.07s.13-.72.15-.77l-.45.74s-.3-.51-.3-.53-.53.4-.53.4l.29-1-.3.23-.11-.24v1.15l-.25-.1L24,16.74l-.2.59-.19.13-.11-1.09-.31,1-.23.16-.07-1.2s-.26,1-.28,1-.07-.95-.07-.95l-.5,1-.1-1.11-.26,1.13-1.2-.08-1-.25-.11-.26c0-.05-.14.44-.14.44l-.14-.62s-.28.51-.33.56a7.45,7.45,0,0,1,.23-.86L18.6,17l-.14-.27-.18.25-.18-.58-.11.86a5.63,5.63,0,0,0-.28-.79c-.14-.27-.81-.27-1.07-.49a.8.8,0,0,1-.16-.16c-.22-.25-.53-.67-.84-1a2.21,2.21,0,0,0-.28-.26A3.65,3.65,0,0,0,13.43,14a1.89,1.89,0,0,0-.4.08,1.34,1.34,0,0,0-.81.68,1.43,1.43,0,0,0-.08.47,10.54,10.54,0,0,0,0,1.19L12,15.86l.05.95s-.2-.49-.2-.52-.21.64-.21.64l0-.43-.18.25L11,16.36l-.13-.55s-.31.77-.32.74-.5-.85-.5-.85l0,.42-.61-.18.51.5.26.63-.21.06-.16-.35L9.7,17l-.16-.19a4.77,4.77,0,0,1-.25.43S9,15.92,9,15.92s-.13,1.18-.18,1a2.52,2.52,0,0,1,.1-1.6c.31-.39,1-.28,1.42-.55l0,0c.21-.15.27-.55.29-1.06s0-1.1,0-1.66c0-1.1-.59-1.37-.85-1.37s-.51.06-.56.78c0,.43,0,1,0,1.38a3.73,3.73,0,0,1,0,.63c-.08.26-.45.5-.5.38s0-.69,0-1.45,0-1.84,0-2.4c0-1.05-.47-1.8-1-1.8s-.87.38-.93,1.23c0,.48,0,1.16,0,1.69a2.45,2.45,0,0,1,0,.79.41.41,0,0,1-.53-.07c0-.13,0-.39,0-1.33S6,9.18,5.57,9.18,5,9.75,4.9,10.84a3,3,0,0,0,.33,2,2.14,2.14,0,0,0,.13.19,1.36,1.36,0,0,0,1.33.41s0,1.07-.06,1.91.14,1.21.07,1.55a.43.43,0,0,1-.32.37l0-1.19-.18.27L5.94,16l.13,1-.33-.35-.29.6-.37-.77.06.77-.26,0,0-.77-.26.83-.27,0,0-1.07L4,17.33l-.29-1v1.05l-.22-.81-.2.73L3.09,17l.17-.84L3,16.43,3,16.13l-.12.68-.13.11A11.74,11.74,0,0,0,3,18.1H27c.05-.21.1-.41.14-.62Z" fill="#212121"/><path d="M9.94,6.24l.76.83a1.71,1.71,0,0,1,.49-.16,5.32,5.32,0,0,1,.62,0l.48-1.2s.08,1.23.14,1.39a2,2,0,0,0,1,.56,1.41,1.41,0,0,1,.7.31,3.26,3.26,0,0,0,1.31.61,8.5,8.5,0,0,1,3.17,1.38c1.74,1.11,1.94,1.66,2.16,2.23a4.13,4.13,0,0,0,.6,1.33c.3.32.6.65.39.93s-.7.16-1-.52-.39-.9-.39-.9a2.57,2.57,0,0,0,.12,1.34,7.08,7.08,0,0,0,.73,1.9c.28.37.43.39.31.75s-.18.52-1.07.52-1-.05-.84-.55.36-.11.36-.41-.41-.32-.59-.67-.22-.21-.53,0a3.11,3.11,0,0,1-1.52.64c-.39,0-.69-.49-.93-.8s0-.42.41-.46.39.15.81,0,.49-.23.34-.52-.5-.62-.51-.84a1.26,1.26,0,0,0-.26-.81c-.29-.42-.16-.73-.8-1s-.72-.41-1-.41-.22.4-.1.79a4.21,4.21,0,0,1,0,1.58c-.08.16-.19.3-.35.3a5.06,5.06,0,0,0-1.08-.33c-.52,0-.37-.11-.3-.4a2.55,2.55,0,0,0-.15-1.54c-.27-.77-1-1.15-1.21-1.63a4,4,0,0,1-.36-1.08.36.36,0,0,1-.31.11c-.16,0-.39-.37-.39-.37s-.12.13-.35-.11a1.27,1.27,0,0,1-.46-.81c0-.3.13-.57,0-.75A6.45,6.45,0,0,1,9.94,6.24Z" fill="#212121"/><path d="M7,20.4a.77.77,0,0,1,.23.58v.4H6.62v-.12a1.06,1.06,0,0,0,0-.33.17.17,0,0,0-.18-.13H5.79v.58H5.23V19.49a.47.47,0,0,1,.09-.28.28.28,0,0,1,.22-.12h1.1a.46.46,0,0,1,.4.21.8.8,0,0,1,.13.51A.73.73,0,0,1,7,20.4Zm-.5-.18a.14.14,0,0,0,.15-.09.64.64,0,0,0,0-.2.9.9,0,0,0,0-.18.17.17,0,0,0-.16-.08H5.91a.09.09,0,0,0-.09,0,.16.16,0,0,0,0,.09v.41Z" fill="#212121"/><path d="M8,20.8v.58H7.45V19.8a.85.85,0,0,1,.16-.5A.46.46,0,0,1,8,19.09h.87a.46.46,0,0,1,.38.21.79.79,0,0,1,.16.5v1.58H8.84V20.8Zm.83-.58V20a.5.5,0,0,0,0-.19.13.13,0,0,0-.13-.1H8.17a.13.13,0,0,0-.13.1A.5.5,0,0,0,8,20v.26Z" fill="#212121"/><path d="M11.09,19.09a.45.45,0,0,1,.37.21.79.79,0,0,1,.16.5v1.58h-.56V20.13a1.55,1.55,0,0,0,0-.33.19.19,0,0,0-.19-.13h-.39a.19.19,0,0,0-.18.13,1.49,1.49,0,0,0,0,.33v1.25H9.68V19.8a.84.84,0,0,1,.15-.5.47.47,0,0,1,.38-.21Z" fill="#212121"/><path d="M11.9,19.8a.84.84,0,0,1,.15-.5.48.48,0,0,1,.38-.21h1.41v.58H12.68a.19.19,0,0,0-.19.13,1.49,1.49,0,0,0,0,.33v.21a1.32,1.32,0,0,0,0,.32.2.2,0,0,0,.19.14h1.16v.58H12.43a.48.48,0,0,1-.38-.21.84.84,0,0,1-.15-.5Z" fill="#212121"/><path d="M15.87,21.38h-.56V20.5h-.63v.88h-.56V19.09h.56v.83h.63v-.83h.56Z" fill="#212121"/><path d="M17.56,19.09a.47.47,0,0,1,.38.21.84.84,0,0,1,.15.5v.87a.84.84,0,0,1-.15.5.47.47,0,0,1-.38.21h-.88a.48.48,0,0,1-.38-.21.84.84,0,0,1-.15-.5V19.8a.84.84,0,0,1,.15-.5.48.48,0,0,1,.38-.21Zm0,1a1.49,1.49,0,0,0,0-.33.19.19,0,0,0-.18-.13h-.4a.19.19,0,0,0-.18.13,1.49,1.49,0,0,0,0,.33v.21a1.32,1.32,0,0,0,0,.32.2.2,0,0,0,.18.14h.4a.2.2,0,0,0,.18-.14,1.32,1.32,0,0,0,0-.32Z" fill="#212121"/><path d="M20.59,19.09a.46.46,0,0,1,.38.21.85.85,0,0,1,.16.5v.87a.85.85,0,0,1-.16.5.46.46,0,0,1-.38.21H19.18V19.51a.49.49,0,0,1,.09-.3.28.28,0,0,1,.22-.12Zm0,1a1.06,1.06,0,0,0,0-.33.17.17,0,0,0-.18-.13h-.49a.1.1,0,0,0-.09,0,.2.2,0,0,0,0,.11v1h.61a.18.18,0,0,0,.18-.14,1,1,0,0,0,0-.32Z" fill="#212121"/><path d="M21.4,19.51a.44.44,0,0,1,.1-.3.26.26,0,0,1,.21-.12H23v.58h-1a.11.11,0,0,0-.09,0,.2.2,0,0,0,0,.11V20H23v.47H22v.33H23v.58H21.4Z" fill="#212121"/><path d="M23.86,20.64a.15.15,0,0,0,0,.11.1.1,0,0,0,.08.05h.83v.58H23.62a.26.26,0,0,1-.22-.12.49.49,0,0,1-.09-.3V19.09h.55Z" fill="#212121"/><path d="M9.05,23.9v.58H8.49V22.91a.8.8,0,0,1,.16-.51A.46.46,0,0,1,9,22.19H9.9a.46.46,0,0,1,.38.21.86.86,0,0,1,.16.51v1.57H9.88V23.9Zm.83-.58v-.25a.53.53,0,0,0,0-.2.14.14,0,0,0-.13-.1H9.21a.14.14,0,0,0-.13.1.53.53,0,0,0,0,.2v.25Z" fill="#212121"/><path d="M12.44,23.5a.76.76,0,0,1,.22.58v.4H12.1v-.12a1.06,1.06,0,0,0,0-.33.17.17,0,0,0-.18-.13h-.61v.58h-.55V22.59a.47.47,0,0,1,.09-.28.26.26,0,0,1,.22-.12h1.1a.46.46,0,0,1,.39.21.82.82,0,0,1,.14.51A.75.75,0,0,1,12.44,23.5Zm-.51-.18c.09,0,.14,0,.16-.09a1.23,1.23,0,0,0,0-.2.5.5,0,0,0,0-.18c0-.05-.07-.08-.16-.08h-.54a.1.1,0,0,0-.08.05.13.13,0,0,0,0,.1v.4Z" fill="#212121"/><path d="M14.66,23.5a.76.76,0,0,1,.22.58v.4h-.55v-.12a1.49,1.49,0,0,0,0-.33.18.18,0,0,0-.18-.13h-.62v.58h-.55V22.59a.47.47,0,0,1,.09-.28.26.26,0,0,1,.22-.12h1.1a.46.46,0,0,1,.39.21.82.82,0,0,1,.14.51A.75.75,0,0,1,14.66,23.5Zm-.51-.18c.09,0,.14,0,.16-.09a.64.64,0,0,0,0-.2.48.48,0,0,0,0-.18c0-.05-.07-.08-.16-.08h-.54a.1.1,0,0,0-.08.05.18.18,0,0,0,0,.1v.4Z" fill="#212121"/><path d="M16.57,22.19a.47.47,0,0,1,.38.21.86.86,0,0,1,.16.51v.86a.85.85,0,0,1-.16.5.47.47,0,0,1-.38.21H15.7a.46.46,0,0,1-.38-.21.79.79,0,0,1-.16-.5v-.86a.8.8,0,0,1,.16-.51.46.46,0,0,1,.38-.21Zm0,1a1,1,0,0,0,0-.32.18.18,0,0,0-.18-.14h-.39a.18.18,0,0,0-.18.14,1,1,0,0,0,0,.32v.22a1,1,0,0,0,0,.32.17.17,0,0,0,.18.13h.39a.17.17,0,0,0,.18-.13,1,1,0,0,0,0-.32Z" fill="#212121"/><path d="M18.77,22.19h.56v1.58a.79.79,0,0,1-.16.5.46.46,0,0,1-.38.21H17.38V23.9H18.5a.26.26,0,0,0,.21-.08.51.51,0,0,0,.06-.28v-.15a.44.44,0,0,1-.34.16h-.51a.46.46,0,0,1-.38-.21,1.08,1.08,0,0,1-.16-.63v-.52h.56v.2a1.62,1.62,0,0,0,0,.45.17.17,0,0,0,.18.13h.39a.17.17,0,0,0,.18-.13,1.62,1.62,0,0,0,0-.45Z" fill="#212121"/><path d="M21,22.19a.45.45,0,0,1,.37.21.8.8,0,0,1,.16.51v.86a.79.79,0,0,1-.16.5.45.45,0,0,1-.37.21h-.88a.47.47,0,0,1-.38-.21.84.84,0,0,1-.15-.5v-.86a.85.85,0,0,1,.15-.51.47.47,0,0,1,.38-.21Zm0,1a1,1,0,0,0,0-.32.18.18,0,0,0-.18-.14h-.39a.2.2,0,0,0-.18.14,1.32,1.32,0,0,0,0,.32v.22a1.47,1.47,0,0,0,0,.32.19.19,0,0,0,.18.13h.39a.17.17,0,0,0,.18-.13,1,1,0,0,0,0-.32Z" fill="#212121"/><rect width="30" height="30" fill="none"/></svg>