<!-- Copyright (c) 2022 - 2023 Jan Stehno -->
<svg xmlns="http://www.w3.org/2000/svg" viewBox="0 0 300 300"><title>ranchodelarroyo</title><g id="ranchodelarroyo"><g opacity="0.25"><path d="M261.85,96l-7.19,5L226,133.4l-8.68.18-3.32.49-37.81,2-3.3,3.3-7.71,6.22-7.63,2.54L143.67,150l-14.4-9.67-3.62-3-17.89-.17-16.88-9.63L66.25,108.38,58.56,90.46,44.67,84.23A124.43,124.43,0,0,0,29.73,181H270.27A124.59,124.59,0,0,0,261.85,96Z" fill="#212121"/></g><path d="M248.06,255.22H0v3.36H53.13a145.48,145.48,0,0,0,193.74,0H300v-3.36H248.06ZM150,258.58h62.71a125.5,125.5,0,0,1-125.42,0Zm0,35.26a143.27,143.27,0,0,1-94.34-35.26H60a141.05,141.05,0,0,0,180,0h4.32A143.27,143.27,0,0,1,150,293.84Z" fill="#212121"/><path d="M292.61,179.1a145.52,145.52,0,1,0-285.22,0H0v3.36H300V179.1Zm-20.64,0H28a125.37,125.37,0,1,1,243.94,0Zm18.93,0H288A141,141,0,1,0,12,179.1H9.1a143.84,143.84,0,1,1,281.8,0Z" fill="#212121"/><path d="M270.83,165.67s-2,7.84-2,8.05-3.5-7.63-3.5-7.63l1.54,9.73-4-.21-2.73-6.86-.42,5.81-2.31.7s1.33-7.21,1.54-7.63-4.55,7.35-4.55,7.35-2.93-5-2.93-5.25-5.32,4-5.32,4l2.94-9.8-3,2.24L245,163.78l-.14,11.48-2.52-1-2.66-6.93-2,6-1.89,1.33-1.12-10.92-3,10.36-2.33,1.58-.7-11.94s-2.56,9.61-2.8,9.56-.7-9.51-.7-9.51l-4.94,10.17-1.07-11.1-2.62,11.28-12-.84-9.63-2.49-1.12-2.59c-.21-.49-1.47,4.41-1.47,4.41l-1.33-6.23s-2.87,5.11-3.36,5.6,2.31-8.54,2.31-8.54L186,170.29l-1.4-2.66-1.75,2.52L181,164.34l-1.12,8.54a50.83,50.83,0,0,0-2.72-7.84c-1.4-2.73-8.19-2.73-10.78-4.9a15.3,15.3,0,0,1-1.57-1.61c-2.19-2.51-5.27-6.74-8.4-10a26.47,26.47,0,0,0-2.76-2.54c-4.83-3.78-14.41-5.8-19.31-5.66a13.48,13.48,0,0,0-4.07.8c-3.63,1.27-7,3.9-8.11,6.75a18.33,18.33,0,0,0-.8,4.71,108.39,108.39,0,0,0,0,11.87l-1.89-5.87.49,9.51s-2-5-2-5.18-2.1,6.37-2.1,6.37l-.21-4.34-1.89,2.52-3.43-3.85L109,158.12s-3.08,7.69-3.22,7.41-5-8.53-5-8.53l.21,4.19-6.09-1.75,5.11,5,2.52,6.3-2,.56-1.61-3.43L97,169.52l-1.61-1.89a45.33,45.33,0,0,1-2.52,4.27c-.21,0-2.94-12.73-2.94-12.73S88.71,171,88.22,169.38s-2.17-11.89,1-15.95,9.93-2.81,14.17-5.5c.13-.08.26-.15.38-.24,2.1-1.5,2.77-5.53,2.91-10.56s-.25-11.06-.25-16.58c0-11.06-5.87-13.79-8.46-13.79s-5.18.63-5.67,7.84c-.29,4.28-.24,9.6-.31,13.79a31.78,31.78,0,0,1-.46,6.29c-.77,2.66-4.48,5-5,3.78-.23-.6-.13-6.87,0-14.42.18-8.42.45-18.43.45-24,0-10.57-4.68-18-10.49-18s-8.75,3.84-9.31,12.31c-.31,4.79.06,11.61.24,16.91.13,4.06.14,7.22-.38,7.86-1.19,1.47-4.82.56-5.24-.7s.07-3.85.07-13.3S60,91.79,55.69,91.79,49.46,97.53,49,108.37c-.43,9.7,0,14.53,3.32,19.85.4.63.82,1.26,1.3,1.91,4.55,6.16,13.29,4.06,13.29,4.06s.07,10.7-.63,19.1,1.47,12.1.77,15.46-3.26,3.78-3.26,3.78L64,160.59l-1.82,2.75-2.75-3,1.31,9.84-3.31-3.59-2.9,6.06-3.73-7.74.66,7.69-2.62-.28-.51-7.64-2.66,8.25-2.7.37-.24-10.63-2.47,10.68-2.84-10.21.14,10.44-2.24-8.06-2,7.32-2.42-2.94,1.77-8.35-2.24,2.75-.7-3-1.26,6.81-1.23,1.07q.93,6,2.42,11.8H270.36c.52-2,1-4.09,1.41-6.16Z" fill="#212121"/><path d="M99.39,62.41l7.65,8.3a15.26,15.26,0,0,1,4.9-1.63,57.22,57.22,0,0,1,6.2-.19l4.71-12s.84,12.31,1.45,13.9,6.2,5,9.61,5.64a13.36,13.36,0,0,1,7,3.12c2.38,1.82,5.22,3.88,13.15,6.07s14.37,2.75,31.72,13.85,19.4,16.6,21.55,22.3,3.07,10,6.06,13.24,6,6.53,3.82,9.33-7,1.59-10.07-5.22-3.92-9-3.92-9-1.4,4.85,1.21,13.34,4.48,15.3,7.28,19,4.29,3.92,3.17,7.46-1.86,5.23-10.73,5.23-10-.47-8.39-5.51,3.61-1.07,3.54-4.08-4.05-3.22-5.87-6.71-2.17-2.1-5.25.55-11.26,6.44-15.18,6.37-7-4.9-9.31-8,.14-4.27,4.06-4.62,3.92,1.47,8.12.42,4.89-2.31,3.35-5.25-5-6.23-5.1-8.39.28-3.92-2.59-8.12-1.54-7.28-8-9.94-7.2-4.12-10.28-4.12-2.17,4-1.05,7.9,1.12,14.14.28,15.74-1.94,3.08-3.57,3.08-5.69-3.12-10.82-3.31-3.69-1.12-2.94-4.06,1.17-7.6-1.54-15.34S124,110.26,121.46,105.5a41.77,41.77,0,0,1-3.55-10.82,3.64,3.64,0,0,1-3.08,1.17c-1.68-.37-4-3.73-4-3.73s-1.12,1.3-3.45-1.08-4.67-5.17-4.67-8.16,1.35-5.69.28-7.51C101.21,72.29,99.39,62.41,99.39,62.41Z" fill="#212121"/><path d="M69.51,204a7.7,7.7,0,0,1,2.24,5.81v4H66.19v-1.21a11.26,11.26,0,0,0-.4-3.23A1.72,1.72,0,0,0,64,208H57.87v5.78H52.3V194.9a4.54,4.54,0,0,1,.91-2.78,2.71,2.71,0,0,1,2.21-1.21h11a4.61,4.61,0,0,1,4,2.08,8.1,8.1,0,0,1,1.34,5.08Q71.7,202.11,69.51,204Zm-5-1.8a1.44,1.44,0,0,0,1.56-.93,7.67,7.67,0,0,0,.24-2,6.48,6.48,0,0,0-.21-1.78q-.32-.81-1.59-.81H59.05a1.06,1.06,0,0,0-.85.47,1.67,1.67,0,0,0-.33,1v4.06Z" fill="#212121"/><path d="M80.09,208v5.78H74.53V198a8.17,8.17,0,0,1,1.56-5,4.62,4.62,0,0,1,3.78-2.08h8.77A4.58,4.58,0,0,1,92.4,193,8.12,8.12,0,0,1,94,198v15.74H88.42V208Zm8.33-5.79v-2.55a5.49,5.49,0,0,0-.28-1.94,1.38,1.38,0,0,0-1.32-1H81.69a1.38,1.38,0,0,0-1.33,1,5.53,5.53,0,0,0-.27,1.94v2.55Z" fill="#212121"/><path d="M110.86,190.91a4.62,4.62,0,0,1,3.78,2.08,8.12,8.12,0,0,1,1.57,5v15.72h-5.57V201.26a11.73,11.73,0,0,0-.38-3.23,1.86,1.86,0,0,0-1.82-1.34h-3.91a1.83,1.83,0,0,0-1.81,1.34,11.31,11.31,0,0,0-.4,3.23v12.51H96.76V198a8.12,8.12,0,0,1,1.57-5,4.59,4.59,0,0,1,3.77-2.08Z" fill="#212121"/><path d="M119,198a8.17,8.17,0,0,1,1.56-5,4.62,4.62,0,0,1,3.78-2.08h14.1v5.78H126.75A1.83,1.83,0,0,0,125,198a11.31,11.31,0,0,0-.4,3.23v2.17a11.16,11.16,0,0,0,.4,3.21,1.83,1.83,0,0,0,1.8,1.35h11.68v5.78h-14.1a4.62,4.62,0,0,1-3.78-2.08,8.16,8.16,0,0,1-1.56-5Z" fill="#212121"/><path d="M158.7,213.77h-5.55V205h-6.37v8.76h-5.57V190.91h5.57v8.3h6.37v-8.3h5.55Z" fill="#212121"/><path d="M175.58,190.91a4.62,4.62,0,0,1,3.78,2.08,8.12,8.12,0,0,1,1.57,5v8.63a8.11,8.11,0,0,1-1.57,5,4.62,4.62,0,0,1-3.78,2.08h-8.76a4.62,4.62,0,0,1-3.78-2.08,8.16,8.16,0,0,1-1.56-5V198a8.17,8.17,0,0,1,1.56-5,4.62,4.62,0,0,1,3.78-2.08Zm-.21,10.35A11.67,11.67,0,0,0,175,198a1.84,1.84,0,0,0-1.81-1.34h-3.91a1.83,1.83,0,0,0-1.81,1.34,11.31,11.31,0,0,0-.4,3.23v2.17a11.16,11.16,0,0,0,.4,3.21,1.83,1.83,0,0,0,1.81,1.35h3.91a1.84,1.84,0,0,0,1.81-1.35,11.52,11.52,0,0,0,.4-3.21Z" fill="#212121"/><path d="M205.92,190.91A4.62,4.62,0,0,1,209.7,193a8.18,8.18,0,0,1,1.57,5v8.63a8.17,8.17,0,0,1-1.57,5,4.62,4.62,0,0,1-3.78,2.08h-14.1V195.06a4.74,4.74,0,0,1,.91-2.94,2.68,2.68,0,0,1,2.2-1.21Zm-.22,10.35a11.31,11.31,0,0,0-.4-3.23,1.83,1.83,0,0,0-1.8-1.34h-4.93a1,1,0,0,0-.84.47,1.85,1.85,0,0,0-.35,1.13V208h6.12a1.83,1.83,0,0,0,1.8-1.35,11.16,11.16,0,0,0,.4-3.21Z" fill="#212121"/><path d="M214,195.06a4.81,4.81,0,0,1,.91-2.94,2.68,2.68,0,0,1,2.2-1.21h13.17v5.78h-9.54a1,1,0,0,0-.83.47,1.8,1.8,0,0,0-.36,1.13V200h10.73v4.67H219.59V208h10.73v5.78H214Z" fill="#212121"/><path d="M238.63,206.39a1.91,1.91,0,0,0,.34,1.13,1.06,1.06,0,0,0,.85.47h8.31v5.78H236.19a2.68,2.68,0,0,1-2.21-1.21,4.74,4.74,0,0,1-.91-2.94V190.91h5.56Z" fill="#212121"/><path d="M90.49,239v5.78H84.92V229.05a8.18,8.18,0,0,1,1.57-5,4.6,4.6,0,0,1,3.78-2.08H99A4.59,4.59,0,0,1,102.8,224a8.12,8.12,0,0,1,1.57,5v15.74H98.81V239Zm8.32-5.79v-2.55a5.27,5.27,0,0,0-.28-1.94,1.36,1.36,0,0,0-1.32-1H92.09a1.38,1.38,0,0,0-1.34,1,5.81,5.81,0,0,0-.26,1.94v2.55Z" fill="#212121"/><path d="M124.36,235a7.66,7.66,0,0,1,2.24,5.8v4H121v-1.21a11.26,11.26,0,0,0-.4-3.23,1.72,1.72,0,0,0-1.81-1.34h-6.12v5.78h-5.56V225.92a4.56,4.56,0,0,1,.91-2.78,2.71,2.71,0,0,1,2.21-1.21h11a4.61,4.61,0,0,1,3.95,2.08,8.12,8.12,0,0,1,1.34,5.08Q126.55,233.13,124.36,235Zm-5-1.81a1.45,1.45,0,0,0,1.56-.92,7.81,7.81,0,0,0,.24-2,6.53,6.53,0,0,0-.21-1.78q-.31-.81-1.59-.81H113.9a1.06,1.06,0,0,0-.85.47,1.71,1.71,0,0,0-.34,1v4.06Z" fill="#212121"/><path d="M146.59,235a7.66,7.66,0,0,1,2.24,5.8v4h-5.56v-1.21a11.62,11.62,0,0,0-.4-3.23,1.72,1.72,0,0,0-1.81-1.34h-6.12v5.78h-5.56V225.92a4.5,4.5,0,0,1,.91-2.78,2.69,2.69,0,0,1,2.2-1.21h11a4.62,4.62,0,0,1,3.95,2.08,8.19,8.19,0,0,1,1.34,5.08Q148.78,233.13,146.59,235Zm-5-1.81a1.45,1.45,0,0,0,1.56-.92,7.81,7.81,0,0,0,.24-2,6.13,6.13,0,0,0-.22-1.78c-.21-.54-.74-.81-1.58-.81h-5.42a1.06,1.06,0,0,0-.85.47,1.71,1.71,0,0,0-.34,1v4.06Z" fill="#212121"/><path d="M165.71,221.93a4.62,4.62,0,0,1,3.78,2.08,8.12,8.12,0,0,1,1.57,5v8.63a8.11,8.11,0,0,1-1.57,5,4.62,4.62,0,0,1-3.78,2.08H157a4.62,4.62,0,0,1-3.78-2.08,8.16,8.16,0,0,1-1.56-5v-8.63a8.17,8.17,0,0,1,1.56-5,4.62,4.62,0,0,1,3.78-2.08Zm-.21,10.36a11.75,11.75,0,0,0-.4-3.24,1.84,1.84,0,0,0-1.81-1.34h-3.91a1.83,1.83,0,0,0-1.81,1.34,11.38,11.38,0,0,0-.4,3.24v2.16a11.28,11.28,0,0,0,.4,3.22,1.83,1.83,0,0,0,1.81,1.34h3.91a1.84,1.84,0,0,0,1.81-1.34,11.65,11.65,0,0,0,.4-3.22Z" fill="#212121"/><path d="M187.72,221.93h5.56v15.75a8.11,8.11,0,0,1-1.57,5,4.59,4.59,0,0,1-3.77,2.08h-14.1V239H185a2.4,2.4,0,0,0,2.05-.86,4.58,4.58,0,0,0,.64-2.73v-1.55a4.49,4.49,0,0,1-3.41,1.65h-5.13a4.61,4.61,0,0,1-3.78-2.09q-1.56-2.09-1.56-6.31v-5.19h5.56v1.94a18.15,18.15,0,0,0,.39,4.51,1.84,1.84,0,0,0,1.81,1.34h3.92a1.84,1.84,0,0,0,1.8-1.34,17.56,17.56,0,0,0,.4-4.51Z" fill="#212121"/><path d="M210.17,221.93A4.62,4.62,0,0,1,214,224a8.17,8.17,0,0,1,1.56,5v8.63a8.16,8.16,0,0,1-1.56,5,4.62,4.62,0,0,1-3.78,2.08h-8.76a4.62,4.62,0,0,1-3.78-2.08,8.11,8.11,0,0,1-1.57-5v-8.63a8.12,8.12,0,0,1,1.57-5,4.62,4.62,0,0,1,3.78-2.08ZM210,232.29a11.38,11.38,0,0,0-.4-3.24,1.83,1.83,0,0,0-1.81-1.34h-3.91a1.84,1.84,0,0,0-1.81,1.34,11.75,11.75,0,0,0-.4,3.24v2.16a11.65,11.65,0,0,0,.4,3.22,1.84,1.84,0,0,0,1.81,1.34h3.91a1.83,1.83,0,0,0,1.81-1.34,11.28,11.28,0,0,0,.4-3.22Z" fill="#212121"/></g><g id="frame"><rect width="300" height="300" fill="none"/></g></svg>