<svg xmlns="http://www.w3.org/2000/svg" viewBox="0 0 30 30"><path d="M27.25,18l-.1.16-.12.25.07.16-.11.1,0,.26-.1.08,0,.2L26.81,19l0,.33.26.32-.09.08-.29-.1,0-.26-.11.08-.07-.32-.3.13,0-.21.16-.34-.32.13.27-.23.09-.25h-.38l.22-.17,0-.08H26V18l.1-.22.07-.26-.15.15L26,17.45V17l.08-.06-.1-.11-.06-.49-.06.24-.09.16,0,.19v.16l-.12-.06v.17l.09.16v.14l-.12-.16-.14.19.09.17.08.2-.06.15L25.55,18l-.1,0,0,.23.11.18-.28.31.18,0-.12.16-.05.21.27.11-.13.12-.23.07-.12-.14.08-.15-.14-.2.12-.14-.09-.2.09-.14-.09-.11,0-.59-.11.63-.14,0-.09.3-.23,0,.08-.2-.15-.24a1.06,1.06,0,0,1,.1-.12.67.67,0,0,0-.06-.12l0-.47-.2.4-.12.09.12.19-.14.18.11.22-.31,0-1.46-.39L22,19l-.13,0,.13-.19-.12-.19.16-.16L22,18.26l-.09-.64-.21.38.07.19v.27l-.15.2.12.24-.45.19.2-.29-.26-.07s.14-.27.15-.27l-.18.1v-.23s.28-.32.29-.32l-.32.06.22-.36-.22.08.11-.23-.16-.07v-.18l.34-.06-.22-.18v-.8l-.56,0,.12.42-.09.08.11.21-.23.1.29.23-.27.27.14.13-.42.27-.06-.57-.07.31,0,.31-.15.25-.11-.19V17.7l-.18.32-.07.48-.16.14L19.32,18l0,.58-.15.22.18.2-.19.28L19,19l-.07.08,0,.28-.11.1.09.24-.21,0-.11-.26,0-.19,0-.24v-.23l-.11-.49-.09.45,0,.19.12.21-.18,0,.11.2-.17,0-.07-.2-.08-.37-.12.43-.11.17.19.2-.05.14-.83.05-.33-.18.2-.16-.19-.14.1-.2-.08-.11-.05-.42-.14.15,0-.29-.07-.48-.11.33-.11.08.07.14-.07.05.07.14-.11.13.08.22-.22-.1.17.27h-.11l.17.22,0,.15h-.21l-.1-.1-.05-.37-.13.26.11.13-.12.18-.52,0-.07-.22.09-.2-.17-.15.11-.34s-.21.15-.21.14.14-.4.14-.4l-.2-.22.1-.16-.11-.2.13-.15-.13-.07-.08-.39s-.06.41-.05.4a1,1,0,0,1-.09.13l.09.18-.15.14.09.13-.18,0-.09-.16,0,.38-.08.18,0,.17,0,.15H14.5l0,.17-.27-.14-.07-.17.11-.13-.11-.13,0-.26,0,.22-.19.08L14,19l-.14.13.16.17-.16.11.14.2-.24,0-.22-.23.18-.14-.14-.11.14-.09-.15-.13.15,0-.12-.09-.06-.22.09-.12-.14-.12.12-.15-.12-.34v.33l-.14.23.05.14-.13.12.1.14s0,.23,0,.23l-.3.13.18-.2-.17-.06.12-.11-.11-.11.08-.19L13,18.17l.13-.11L13,18l.15-.29-.13,0-.12-.18.12-.19L13,17.23l.08-.18-.14-.17.12-.14-.1-.07.1-.07-.13-.27-.13.28,0,.23-.15.09.13.06-.12.11s.09.16.09.16-.11.16-.11.15.09.16.09.16l-.16.09.18.22-.27.24.16.15-.15.11.13.32-.06.26-.16.09.11.21-.11.17.08.3-.09-.09-.13,0,.05-.16-.09-.11.11-.13-.07-.1,0-.19-.09-.56-.08.59-.24-.13,0,.21L11.67,19l0-.2.22-.09-.14-.14-.09-.18.06-.25-.08-.24.13-.15-.12-.09-.08-.21-.19.18.1-.21-.13-.12,0-.21.13-.07-.09-.1-.07-.28-.09.28-.11,0,.07.24-.08-.09-.1.07.11.21-.09.06.12.18,0,.26-.22-.06.24.31L10.74,18l.12.24-.18.09.33.11-.21.05v.15l.18,0,.16.16V19l-.36,0-.17-.18,0-.26-.06-.23-.13.15.07.17-.09.09.06.12-.14.08.12.12-.13.15.13.3-.2,0-.12-.27,0-.27-.2.23-.29,0,.29-.27-.18,0,.18-.13-.18-.12.13-.21-.16-.08.12-.15L9.78,18l-.06-.47-.13.33-.39.19.27-.38-.14-.1.22-.33-.23.07-.12-.18.17-.23-.24,0,.24-.55-.22,0-.08-.23L9,16.29v.27l-.2,0,.18.2-.09.05.09.19-.17.11.11.2-.2-.05.11.27-.19,0,.17.26a1.15,1.15,0,0,0,0,.18l-.26,0,.29.32v.17l-.29-.1.26.24,0,.14-.4-.06-.16.21-.05-.34L8,18.29l.09.52-.24-.14,0-.4-.11-.19-.09.12L7.38,18l.22-.27-.17-.08,0-.22V17l-.15.29,0,.19-.06.16-.22,0-.15-.09v.28l-.15-.13-.4.27.19-.36,0-.29-.6.26.21.3H6l0,.15-.3-.18-.08-.34L5,15.9,5,15.61l-.1-.11,0-.14-.13,0,.05-.2,0-.39-.1.23-.06.2,0,.17H4.47l.17.21,0,.33-.19.22-.15-.06.12-.15H4.17l-.1-.08.13-.22H4l.25-.32H4l.2-.22,0-.29L4,15l.12-.28L4,14.7v-.21l.14-.19L4,14.17,4.1,14l-.16-.27.16-.24-.22,0L4,13.29l-.06-.35-.09.2-.12,0,.06.18v.28l-.17.08.22.1-.2.12.2.14,0,.26H3.66v.25l-.18-.05.14.32-.19-.08.25.3,0,.19-.43.21.31.28v.18l-.21-.06.13.3-.22-.07.15.26-.22.13L3.05,18l.33.38H3.14l-.39-.43.09-9.84.06-.64.42-1,.86-1,1.21-.71,1-.23.82,0h16l1.17.17,1,.43,1.17,1.14.65,1.51Z" transform="translate(0)" opacity="0.25"/><path d="M15,4.08H6.62A4.34,4.34,0,0,0,2.28,8.42V19.6" transform="translate(0)" fill="none" stroke="#212121" stroke-miterlimit="10" stroke-width="0.4"/><path d="M15,4.48H6.76a4.07,4.07,0,0,0-4,4.12v11" transform="translate(0)" fill="none" stroke="#212121" stroke-miterlimit="10" stroke-width="0.15"/><path d="M15,4.08h8.38a4.34,4.34,0,0,1,4.34,4.34V19.6" transform="translate(0)" fill="none" stroke="#212121" stroke-miterlimit="10" stroke-width="0.4"/><path d="M15,4.48h8.24a4.07,4.07,0,0,1,4,4.12v11" transform="translate(0)" fill="none" stroke="#212121" stroke-miterlimit="10" stroke-width="0.15"/><path d="M3.15,23.82v1.83h-1V20.76H4a.77.77,0,0,1,.88.85V23a.73.73,0,0,1-.56.81l.78,1.86H4l-.7-1.83Zm0-2.25v1.48h.54A.2.2,0,0,0,3.83,23s0-.07,0-.14v-1.1c0-.13-.06-.19-.18-.19Z" transform="translate(0)" fill="#212121"/><path d="M6.43,24.84H7.86v.81H5.43V20.76H7.8v.81H6.43v1.19H7.6v.81H6.43Z" transform="translate(0)" fill="#212121"/><path d="M10.17,20.76h1l-1,4.89H9L8,20.76h1l.55,3.63Z" transform="translate(0)" fill="#212121"/><path d="M12.42,20.76h.94a.77.77,0,0,1,.88.85V24.8a.77.77,0,0,1-.88.85h-.94c-.59,0-.89-.29-.89-.85V21.61C11.53,21.05,11.83,20.76,12.42,20.76Zm.82,3.89V21.76c0-.13-.06-.19-.18-.19h-.34a.17.17,0,0,0-.19.19v2.89a.17.17,0,0,0,.19.19h.34C13.18,24.84,13.24,24.78,13.24,24.65Z" transform="translate(0)" fill="#212121"/><path d="M16.69,20.76h.92v4.89h-.9l-1-2.93v2.93h-.9V20.76h.9l1,2.92Z" transform="translate(0)" fill="#212121"/><path d="M20.58,20.76v.81h-.82v4.08h-1V21.57H18v-.81Z" transform="translate(0)" fill="#212121"/><path d="M22.62,20.76h1v4c0,.56-.3.85-.89.85H21.8a.77.77,0,0,1-.88-.85v-4h1v3.89c0,.13.06.19.18.19h.33a.17.17,0,0,0,.19-.19Z" transform="translate(0)" fill="#212121"/><path d="M25.23,24.84h1.28v.81H24.24V20.76h1Z" transform="translate(0)" fill="#212121"/><path d="M26.85,20.76h1v4.89h-1Z" transform="translate(0)" fill="#212121"/><polygon points="14.97 28.59 15.28 28.59 15.13 27.73 14.97 28.59" fill="#212121"/><path d="M10.89,27.59h-.14c-.05,0-.08,0-.08.08v1.21a.07.07,0,0,0,.08.08h.14a.07.07,0,0,0,.08-.08V27.67C11,27.61,10.94,27.59,10.89,27.59Z" transform="translate(0)" fill="#212121"/><path d="M27.42,26.54H2.58A.56.56,0,0,0,2,27.1v2.34a.56.56,0,0,0,.56.56H27.42a.56.56,0,0,0,.56-.56V27.1A.56.56,0,0,0,27.42,26.54ZM3.62,28.78a.76.76,0,0,1-.76-.47l.19.06a.46.46,0,0,1,.31-.2,1.86,1.86,0,0,1,.59,0l-.16-.17A.24.24,0,0,1,4,27.66c.19,0,.26.22.26.22s-.28,0-.28.09.3.17.3.34S4.23,28.78,3.62,28.78ZM7.13,28H6.71v-.32c0-.06,0-.08-.07-.08H6.52c-.06,0-.08,0-.08.08V28.9s0,.05,0,.06l.07,0h.12l.05,0s0,0,0-.06v-.31h.42v.35c0,.24-.12.35-.37.35H6.39c-.25,0-.37-.11-.37-.35V27.6c0-.23.12-.35.37-.35h.37c.25,0,.37.12.37.35Zm4.26,1a.32.32,0,0,1-.37.35h-.39c-.25,0-.37-.12-.37-.35V27.6c0-.23.12-.35.37-.35H11a.32.32,0,0,1,.37.35Zm4,.35-.06-.37h-.42l-.07.37h-.41l.42-2h.53l.43,2ZM20,28.94c0,.23-.12.35-.37.35h-.35c-.25,0-.37-.12-.37-.35v-.27h.41v.21a.07.07,0,0,0,.08.08h.1a.07.07,0,0,0,.08-.08v-.37s0-.05,0-.06l-.06,0H19.2a.32.32,0,0,1-.35-.36V27.6c0-.23.12-.35.37-.35h.35c.25,0,.37.12.37.35v.27h-.41v-.2c0-.06,0-.08-.08-.08h-.1c-.06,0-.08,0-.08.08V28s0,0,0,.06h.31a.37.37,0,0,1,.27.09.4.4,0,0,1,.08.26Zm4.13-1.35h-.35v1.7h-.41v-1.7H23v-.34h1.1Zm2.3,1.19c-.61,0-.62-.31-.62-.47s.3-.23.3-.34-.28-.09-.28-.09.07-.22.26-.22a.24.24,0,0,1,.17.39l-.16.17a1.86,1.86,0,0,1,.59,0,.46.46,0,0,1,.31.2l.19-.06A.76.76,0,0,1,26.38,28.78Z" transform="translate(0)" fill="#212121"/><path d="M1.23,7.1c0-.18.32-.16.92.11a9.27,9.27,0,0,1,2.14,1.2c.63.54.69.44,1.37,1a3.22,3.22,0,0,1,1.16,1.26c.13.37.67.47,1.45,1.08s1.18,1.52,2,1.52.8-.85,1.8-1.37a1.54,1.54,0,0,1,2,.16c.55.41,1.25.2,1.25.46s-.11.18-1,.26a4.39,4.39,0,0,0-2.64,1A9.33,9.33,0,0,1,9,16.4,12.85,12.85,0,0,1,4,18c-1.3,0-1.55-.12-1.55-.39s.12-.17.12-.31-.28-.07-.28-.23.24-.2.32-.35.28-.25,1-.37,1-.11,1.36-.75-.18-1.35-.45-2-.37-.51-.61-1.13-.37-.4-.73-1-.51-.44-.68-1S2,9.7,1.93,9.39s-.43-.27-.42-.49-.12-.14-.12-.3.31-.08.31-.2-.51,0-.51-.2.13-.14.11-.25-.18-.07-.18-.18.69-.22.72-.26S1.23,7.3,1.23,7.1Z" transform="translate(0)" fill="#212121"/><path d="M15.77,14.06c.15-.17.27-.15.63-.26a12.82,12.82,0,0,0,2.12-1.66,11.11,11.11,0,0,1,3.27-1.62,6.87,6.87,0,0,0,2.44-.38C25.11,9.7,25.68,9,26.54,9s.73.31,1.59.29,1.11.1.08.41a11.84,11.84,0,0,1-2,.76,5.57,5.57,0,0,0-2.77,1.72c0,.29.47,1.19.62,2a24.81,24.81,0,0,1,.25,2.6c0,.28-.25,0-.34-.15s-.14.32,0,.85a11.71,11.71,0,0,1,.13,2c0,.42,0,.26-.16.11s-.12,0-.15.23-.5-.15-.61-.5-.21-.27-.21-.08-.17-.12-.27-.48-.21,0-.25.19-.23-.26-.24-.5-.22-.05-.34-.34-.12-.39-.25-.43-.12-.52-.38-.56,0-.44-.31-.59-.13-.46-.27-.65-.2-.37-.08-.55-.56-.55-.84-.87-.31-.32-.68-.19a5.54,5.54,0,0,1-1.61.19,5.46,5.46,0,0,1-1.58-.05c-.28-.13.6-.27.39-.3S15.63,14.22,15.77,14.06Z" transform="translate(0)" fill="#212121"/><path d="M11.91,9.57A6.13,6.13,0,0,0,13,8.6c.21-.32.85-.85.94-1.09s-.07,0-.08-.49-.34-.73-.41-1-.21-.15-.29-.35-.19-.08-.22-.26-.33-.12-.28-.24.15-.27-.1-.16-.15-.31-.45-.63-.32-.48-.63-.62.18-.09-.21-.33,0-.27-.3-.46-.45-.44-.3-.42.15-.06-.12-.29-.17-.32.06-.24-.25-.23-.37-.46.11-.19.24-.06.26.18,0-.14-.3-.58-.1-.4.69.7.43.19-.46-.66-.35-.79.46.51.64.75.23,0,.1-.29A1.41,1.41,0,0,1,11,.13c0-.15.15.26.25.42s0-.32.12-.49.13.07.16.42a2.4,2.4,0,0,0,.82,1.78c.85.91,1.83,1.25,2.46,1.94s1,1.32,1.24,1.32S16.4,5,16.66,5s.3-.58.59-.64.38-.31.59-.36.26-.39.38-.39.22.31.25.13a1.24,1.24,0,0,1,.36-.56c.11-.07.17.56.25.46a3.69,3.69,0,0,1,.39-.83c.19-.2.17-.15.16.23s0,.69.28.09.58-.8.55-.58.05.2.2.07.31,0,.05.61a8.59,8.59,0,0,1-1.16,2A4.33,4.33,0,0,1,18.23,6c-.18.14,1.21.1,1.69-.22a1.14,1.14,0,0,1,1.41,0c.38.32,1,.25,1,.48s-.44.19-.88.21-.53.23-1.42.36-1.67,1.27-2.36,1.65a13,13,0,0,1-1.67,1c-.5.14-.71.11-.81.33s-.32.43-.84.46-.22-.26-.4-.39-.82.06-1.22-.07S11.72,9.71,11.91,9.57Z" transform="translate(0)" fill="#212121"/><rect width="30" height="30" fill="none"/></svg>