<!-- Copyright (c) 2023 Jan Stehno -->
<svg xmlns="http://www.w3.org/2000/svg" viewBox="0 0 300 300">
    <title>revontulicoast</title>
    <g id="revontulicoast">
        <path
            d="M272.5,179.69l-1,1.62-1.23,2.49.72,1.55-1,1.05.32,2.59-.94.76.33,2.06-1.59-1.91-.36,3.35,2.56,3.17-.9.8-2.81-1,.36-2.64-1.12.8-.65-3.14-3.06,1.23.43-2.1,1.55-3.35-3.17,1.3,2.7-2.31.94-2.49-3.82.11,2.19-1.69-.39-.83-2.24-.11v-1.52l1.05-2.12.65-2.67-1.45,1.51-.57-1.66v-2.05l0-2.24.87-.68-1-1.05-.69-4.87-.5,2.31-.9,1.66.21,1.91,0,1.62-1.15-.68-.08,1.73,1,1.62-.18,1.41-1.12-1.66L255,175.47l.94,1.7.76,2.05-.54,1.52-.58-.83-1-.29.25,2.31,1.12,1.76-2.81,3.1,1.76.44-1.15,1.58-.51,2.06s2.6,1.12,2.71,1.12a14.27,14.27,0,0,1-1.3,1.26l-2.27.68-1.26-1.47.83-1.41L250.5,189l1.19-1.41-.87-2,.87-1.34-.87-1.15-.21-5.88-1.16,6.28-1.37.32-.86,3-2.27.4.79-2-1.59-2.38a15.09,15.09,0,0,1,1-1.23c.11,0-.65-1.22-.65-1.22l.36-4.66-2,4-1.19.94,1.19,1.91-1.34,1.8,1.06,2.19-3,.29-14.65-3.88-4.58,6.63-1.34-.14,1.3-1.91-1.19-1.92,1.59-1.58-.83-1.37-.9-6.49L216.78,180l.76,1.91v2.71l-1.51,2,1.15,2.42-4.47,1.91,2-3-2.56-.64s1.37-2.71,1.48-2.74-1.77,1-1.77,1l0-2.3s2.77-3.21,2.88-3.21-3.21.57-3.21.57l2.24-3.6-2.2.86,1.12-2.34-1.66-.69.07-1.76,3.46-.65-2.16-1.8v-8l-5.66.29,1.26,4.21-1,.76,1.15,2.13-2.34,1,2.92,2.24-2.74,2.7,1.47,1.34-4.25,2.67-.54-5.66-.8,3.06-.25,3.14-1.48,2.49L199,181.24V177l-1.84,3.14-.69,4.87-1.55,1.4-1.69-6.67-.36,5.88-1.52,2.2,1.88,1.91-1.91,2.81-1.23-2.27-.72.83.25,2.78-1.15,1,1,2.35-2.13.21-1.15-2.56.36-1.94-.54-2.38v-2.35l-1.05-4.86-.9,4.5-.54,1.84,1.19,2.13-1.8.54,1.15,2-1.73.43-.76-2-.75-3.72-1.19,4.33-1.12,1.66,1.91,2-.54,1.37-8.3.58-3.28-1.81,2-1.65-1.91-1.34,1-2-.79-1.08L168.1,187l-1.4,1.55.25-3-.76-4.8-1.08,3.32-1.08.83.65,1.33-.72.58.72,1.41-1.12,1.22.86,2.24-2.2-1,1.7,2.74-1.08.11,1.66,2.17.18,1.51-2.06.07-1-.94-.51-3.67-1.33,2.56,1.12,1.3-1.23,1.8-5.23.25-.68-2.16.88-2L153,192.87l1-3.33s-2,1.42-2.09,1.4,1.45-4,1.45-4l-2.06-2.25,1.06-1.55-1.13-2,1.28-1.51-1.28-.69-.78-3.89s-.59,4-.52,4-.92,1.29-.92,1.29l.92,1.75-1.48,1.5.85,1.26-1.75.22-.9-1.59-.4,3.72-.86,1.8.57,1.73.29,1.51-1.33-.07-.33,1.7L142,192.42l-.68-1.69,1.08-1.34-1.08-1.26L141,185.5l-.43,2.23-1.8.72,1.37,1.05-1.41,1.33,1.59,1.66-1.62,1.08,1.44,2-2.38-.28L135.5,193l1.77-1.45-1.41-1,1.41-.87-1.48-1.29,1.48-.47-1.19-.83-.54-2.24.87-1.22L135,182.4l1.12-1.48L135,177.46l-.18,3.35-1.33,2.27.47,1.41-1.3,1.26,1,1.37a11.84,11.84,0,0,0,.33,2.27c.14,0-3,1.3-3,1.3l1.81-1.95-1.77-.61,1.22-1.15-1-1L132,184l-1.88-2.27,1.23-1.19-1.08-.54,1.55-2.89-1.3.4-1.26-1.84,1.26-1.84-.8-1.59.8-1.73-1.44-1.69,1.19-1.48-1-.65,1-.72-1.3-2.68-1.3,2.82.47,2.27-1.59.91,1.3.61s-1.12,1.15-1.15,1,.93,1.59.93,1.59-1.12,1.62-1.12,1.52.91,1.65.91,1.65l-1.59.91,1.8,2.12-2.74,2.46,1.62,1.51L125,183.77l1.29,3.21-.54,2.57-1.57.94,1,2.15-1.08,1.62.77,3-.88-.87-1.33.33.57-1.61-1-1.17,1.16-1.3-.73-1-.19-1.95-.87-5.55-.86,6-2.35-1.34-.22,2.13-1.47-.72.18-2.05,2.16-.87-1.37-1.37-.87-1.84.55-2.49-.8-2.45,1.37-1.41-1.26-1-.79-2.06L114,176.48l1-2.09-1.37-1.19-.36-2.06,1.26-.75-.86-1-.69-2.74-.94,2.74-1.08.43.69,2.38-.8-.94-1,.76L111,174.1l-.9.61,1.15,1.81-.36,2.56-2.2-.54,2.34,3.1-3.6-1.91,1.12,2.41-1.77.87,3.28,1-2.13.55-.07,1.51,1.8.29,1.59,1.62v1.44l-3.57-.29L106,187.44l.25-2.59-.65-2.35L104.31,184l.72,1.73-.93.9.61,1.16-1.37.83,1.15,1.15-1.33,1.59,1.33,2.92-2,.22-1.19-2.64.4-2.77-2,2.3-2.88.47,2.88-2.77-1.73-.26,1.73-1.33-1.8-1.23,1.33-2.09-1.55-.75,1.19-1.56-1-1.65-.57-4.66L96,178.83,92,180.7l2.66-3.79-1.37-1,2.2-3.32-2.34.76L92,171.47l1.69-2.27-2.34.18,2.34-5.52-2.12.47L90.72,162l-1.23.9v2.7l-1.95-.32,1.73,2-.82.51.82,1.87-1.65,1.12,1.08,2-2-.47L87.76,175l-1.88.25,1.7,2.6a15.75,15.75,0,0,0,.07,1.76,21.65,21.65,0,0,1-2.59-.21l3,3.28v1.66l-2.92-1.05,2.6,2.45.32,1.37-4-.57-1.66,2.05-.51-3.35-1.73-2.35.9,5.27-2.34-1.48-.47-4-1.12-1.91-.9,1.19-2.38-1.73,2.2-2.74-1.69-.79.25-2.2V170l-1.52,2.93.29,1.87-.58,1.62-2.19.29-1.52-.9v2.85l-1.48-1.3-4,2.67,1.95-3.57-.36-3-6,2.63,2.17,3-1.73.11-.51,1.48-3-1.77-.8-3.46-5-16.51-.61-2.85-1-1.12.36-1.41-1.33-.18.47-2-.4-4-1,2.35-.58,2,.18,1.73H44.74l1.62,2.09L46,158.88l-1.88,2.24-1.44-.58L43.84,159l-2.09,0-1-.83L42,156l-1.73.07,2.49-3.14-2.31-.18,2-2.16.29-2.88-2.88,1.83L41,146.7l-1.55.28.14-2L41,143l-.91-1.34.91-2.09-1.63-2.67L41,134.51l-2.28-.22.73-1.37-.55-3.57L38,131.44l-1.19.29.61,1.8.11,2.82-1.7.79,2.17,1-2,1.12,2,1.44-.18,2.63H36.55l0,2.45-1.77-.46,1.34,3.2-1.88-.86,2.49,3.06.22,1.92-4.26,2.09,3,2.74v1.84l-2.09-.62,1.37,3L32.77,161l1.55,2.59-2.24,1.37-1.55,14.75,3.25,3.82-2.38.08-3.86-4.3.82-98.39L29,74.46l4.17-9.81,8.56-10.21,12.1-7.17L63.94,45l8.17-.17H231.68l11.72,1.69,10.41,4.37,11.68,11.39,6.5,15.1Z"
            transform="translate(0)" opacity="0.25" />
        <path d="M150,40.8H66.17A43.39,43.39,0,0,0,22.78,84.19V196" transform="translate(0)"
            fill="none" stroke="#212121" stroke-miterlimit="10" stroke-width="4" />
        <path d="M150,44.79H67.64C45.41,44.79,27.4,63.23,27.4,86V196" transform="translate(0)"
            fill="none" stroke="#212121" stroke-miterlimit="10" stroke-width="1.5" />
        <path d="M150,40.8h83.85a43.39,43.39,0,0,1,43.39,43.39V196" transform="translate(0)"
            fill="none" stroke="#212121" stroke-miterlimit="10" stroke-width="4" />
        <path d="M150,44.79h82.36c22.23,0,40.25,18.44,40.25,41.19V196" transform="translate(0)"
            fill="none" stroke="#212121" stroke-miterlimit="10" stroke-width="1.5" />
        <path
            d="M31.5,238.21v18.28H21.59V207.65H39.88q8.81,0,8.8,8.44v13.67q0,6.77-5.59,8.14l7.82,18.59H40.23l-7-18.28Zm0-22.5v14.74h5.38a1.94,1.94,0,0,0,1.4-.42,2,2,0,0,0,.41-1.42v-11c0-1.28-.6-1.92-1.81-1.92Z"
            transform="translate(0)" fill="#212121" />
        <path d="M64.32,248.42H78.56v8.07H54.33V207.65H78v8.06H64.32v11.9H76v8.07H64.32Z"
            transform="translate(0)" fill="#212121" />
        <path d="M101.67,207.65H112l-9.78,48.84H90l-9.85-48.84H90.57l5.51,36.24Z"
            transform="translate(0)" fill="#212121" />
        <path
            d="M124.21,207.65h9.36q8.79,0,8.8,8.44V248q0,8.53-8.8,8.53h-9.36q-8.86,0-8.86-8.53V216.09Q115.35,207.65,124.21,207.65Zm8.17,38.85V217.63c0-1.28-.6-1.92-1.81-1.92h-3.35a1.68,1.68,0,0,0-1.89,1.92V246.5a1.68,1.68,0,0,0,1.89,1.92h3.35C131.78,248.42,132.38,247.78,132.38,246.5Z"
            transform="translate(0)" fill="#212121" />
        <path d="M166.94,207.65h9.15v48.84h-8.94l-9.7-29.26v29.26h-9.08V207.65h9l9.56,29.18Z"
            transform="translate(0)" fill="#212121" />
        <path d="M205.76,207.65v8.06h-8.17v40.78h-10V215.71h-8.09v-8.06Z" transform="translate(0)"
            fill="#212121" />
        <path
            d="M226.21,207.65h10V248q0,8.53-8.86,8.53H218q-8.79,0-8.8-8.53V207.65h10V246.5c0,1.28.6,1.92,1.81,1.92h3.35a1.68,1.68,0,0,0,1.89-1.92Z"
            transform="translate(0)" fill="#212121" />
        <path d="M252.32,248.42h12.77v8.07H242.41V207.65h9.91Z" transform="translate(0)"
            fill="#212121" />
        <path d="M268.51,207.65h9.92v48.84h-9.92Z" transform="translate(0)" fill="#212121" />
        <polygon points="149.74 285.9 152.77 285.9 151.25 277.26 149.74 285.9" fill="#212121" />
        <path
            d="M108.92,275.88h-1.4a.71.71,0,0,0-.79.8v12.08a.71.71,0,0,0,.79.8h1.4c.51,0,.76-.27.76-.8V276.68C109.68,276.15,109.43,275.88,108.92,275.88Z"
            transform="translate(0)" fill="#212121" />
        <path
            d="M274.24,265.38H25.76A5.58,5.58,0,0,0,20.18,271v23.46A5.58,5.58,0,0,0,25.76,300H274.24a5.58,5.58,0,0,0,5.58-5.58V271A5.58,5.58,0,0,0,274.24,265.38ZM36.16,287.84c-6.1,0-7.54-4.76-7.54-4.76l1.88.57a4.47,4.47,0,0,1,3.1-2,17.94,17.94,0,0,1,5.88.54s-.44-.5-1.59-1.73-.22-3.9,1.69-3.9,2.64,2.2,2.64,2.2-2.78-.28-2.78.87,3,1.77,3,3.43S42.25,287.84,36.16,287.84Zm35.16-8.17h-4.2v-3.21c0-.54-.26-.81-.76-.81h-1.2a.71.71,0,0,0-.79.81V289a.88.88,0,0,0,.18.63.83.83,0,0,0,.61.17h1.2a.79.79,0,0,0,.58-.17.88.88,0,0,0,.18-.63v-3.11h4.2v3.53q0,3.53-3.71,3.53H63.88c-2.46,0-3.68-1.18-3.68-3.53V276c0-2.36,1.22-3.53,3.68-3.53h3.73c2.47,0,3.71,1.17,3.71,3.53Zm42.54,9.7q0,3.56-3.68,3.56h-3.91c-2.48,0-3.71-1.19-3.71-3.56V276c0-2.36,1.23-3.53,3.71-3.53h3.91c2.45,0,3.68,1.17,3.68,3.53ZM154,292.93l-.64-3.69h-4.24l-.64,3.69h-4.12l4.21-20.42h5.31l4.32,20.42Zm45.45-3.56c0,2.37-1.22,3.56-3.68,3.56h-3.53q-3.71,0-3.71-3.56v-2.64h4.18v2a.7.7,0,0,0,.79.8h1a.71.71,0,0,0,.79-.8v-3.7a.66.66,0,0,0-.79-.77H192c-2.3,0-3.44-1.2-3.44-3.59V276c0-2.36,1.22-3.53,3.67-3.53h3.57c2.45,0,3.67,1.17,3.67,3.53v2.66h-4.17v-2a.7.7,0,0,0-.79-.8h-1a.7.7,0,0,0-.79.8v3.6a.79.79,0,0,0,.18.59.82.82,0,0,0,.61.18H196a3.54,3.54,0,0,1,2.69.88,3.75,3.75,0,0,1,.81,2.62Zm41.28-13.49h-3.41v17.05h-4.18V275.88h-3.38v-3.37h11Zm23.08,12c-6.09,0-6.27-3.11-6.27-4.76s3-2.28,3-3.43-2.78-.87-2.78-.87.73-2.2,2.64-2.2,2.85,2.67,1.69,3.9-1.59,1.73-1.59,1.73a17.94,17.94,0,0,1,5.88-.54,4.47,4.47,0,0,1,3.1,2l1.88-.57S269.94,287.84,263.84,287.84Z"
            transform="translate(0)" fill="#212121" />
        <path
            d="M12.31,71c0-1.84,3.21-1.63,9.23,1.11s15.07,6.6,21.38,12,6.85,4.36,13.63,9.56,10.32,8.94,11.61,12.62,6.71,4.69,14.57,10.82,11.76,15.14,20.41,15.14,8-8.51,18-13.7,14.5-2.53,20,1.59,12.55,2,12.55,4.68-1.16,1.81-10.1,2.6-20.41,4-26.47,10.38-11.68,17.6-27.4,26.18S52.8,179.65,39.82,179.94s-15.54-1.22-15.54-3.89,1.26-1.77,1.26-3.17-2.88-.69-2.88-2.28,2.41-2,3.21-3.49,2.84-2.53,10.09-3.72,10.14-1,13.67-7.53-1.88-13.49-4.54-19.62-3.68-5.09-6.13-11.35-3.68-4-7.22-9.86-5.19-4.47-6.85-9.66S20.2,97,19.34,93.9,15,91.24,15.08,89s-1.17-1.35-1.17-3S17,85.2,17,84s-5.16-.2-5.16-1.91S13.19,80.6,13,79.52s-1.82-.73-1.82-1.86,6.91-2.11,7.21-2.6S12.31,73,12.31,71Z"
            transform="translate(0)" fill="#212121" />
        <path
            d="M157.67,140.6c1.54-1.73,2.77-1.51,6.38-2.59s16.19-12.16,21.17-16.63,25.67-15.14,32.67-16.23,15.5.65,24.37-3.75,14.57-11.32,23.15-11.46,7.29,3,15.87,2.88,11.11.94.87,4.11-10.46,5.92-20.49,7.58S234.11,118.79,234,121.67s4.62,12,6.13,19.83,2.38,23.3,2.53,26-2.46.36-3.39-1.59-1.37,3.25-.15,8.51,1.37,15.72,1.37,19.91-.43,2.63-1.62,1.12-1.23-.06-1.48,2.29-5.07-1.52-6.13-4.95-2.11-2.75-2.05-.82-1.77-1.21-2.74-4.78-2.15-.25-2.49,1.85-2.27-2.57-2.46-5-2.18-.41-3.37-3.33-1.17-3.91-2.54-4.35-1.19-5.15-3.71-5.55-.44-4.44-3.18-5.88-1.29-4.69-2.63-6.56-2-3.64-.79-5.45-5.59-5.5-8.4-8.72-3.18-3.25-6.82-1.88S180,144.11,174,144.21s-13.09.83-15.87-.51,6.06-2.74,4-3S156.26,142.19,157.67,140.6Z"
            transform="translate(0)" fill="#212121" />
        <path
            d="M119.12,95.71C120.74,94.5,128,89.11,130,86s8.48-8.47,9.34-10.89-.72-.14-.75-4.9-3.47-7.32-4.15-10-2.09-1.48-2.92-3.54-1.91-.75-2.18-2.56-3.3-1.22-2.8-2.41,1.52-2.67-1-1.59-1.44-3.1-4.47-6.27-3.21-4.8-6.31-6.24,1.77-.83-2.13-3.28-.07-2.71-2.92-4.62-4.51-4.4-3-4.22,1.41-.58-1.23-2.85-1.69-3.17.54-2.38-2.45-2.31-3.64-4.61,1-1.95,2.38-.65,2.56,1.87.25-1.34-3-5.84-.93-4.07,6.88,7,4.29,1.95-4.58-6.57-3.46-7.9,4.54,5.08,6.34,7.54,2.27-.26,1-3-2.2-5.37-1.87-6.89,1.44,2.6,2.45,4.26.22-3.17,1.19-4.94,1.33.76,1.66,4.18-.29,8.8,8.18,17.85,18.25,12.52,24.6,19.44,10.17,13.2,12.4,13.2,3.1-5.2,5.7-5.56,3-5.77,5.84-6.42,3.87-3,5.91-3.58,2.67-3.92,3.88-3.92,2.13,3.13,2.45,1.37a12.59,12.59,0,0,1,3.6-5.67c1.09-.7,1.76,5.6,2.48,4.64s1.91-6.32,3.89-8.3,1.73-1.56,1.59,2.27.11,6.88,2.85.9,5.84-8,5.52-5.81.47,2,2,.76,3.06-.36.46,6.06A82.47,82.47,0,0,1,195.46,51.5c-4.47,5.48-11.4,7.21-13.2,8.65s12.12,1.08,17-2.16,10.38-3.25,14.13-.07,9.88,2.52,9.88,4.83-4.47,1.87-8.87,2-5.26,2.38-14.13,3.6-16.73,12.7-23.66,16.52-11.68,9-16.66,10.42-7.14,1.08-8.08,3.28-3.21,4.29-8.4,4.58-2.2-2.52-4-3.82-8.22.5-12.22-.72S117.17,97.15,119.12,95.71Z"
            transform="translate(0)" fill="#212121" />
    </g>
    <g id="frame">
        <rect width="300" height="300" fill="none" />
    </g>
</svg>