<svg xmlns="http://www.w3.org/2000/svg" viewBox="0 0 30 30"><g id="salzwiesenpark"><path id="border" d="M27.61,7.17,27.25,7,15.35.09a.73.73,0,0,0-.7,0L2.75,7l-.36.21A.92.92,0,0,0,1.93,8V22a.92.92,0,0,0,.46.79l.36.21,11.9,6.87a.73.73,0,0,0,.7,0L27.25,23l.36-.21a.92.92,0,0,0,.46-.79V8A.92.92,0,0,0,27.61,7.17Zm-.36,8.15v6.77L15,29.16,2.75,22.09V7.91L15,.84,27.25,7.91v7.41Z" transform="translate(0)" fill="#212121"/><g id="lighthouse"><polygon points="19.9 21.36 24.57 21.13 19.9 20.9 19.9 21.36" fill="#212121"/><path d="M15,22.58l-10.75-.4L15,28.38v0h0v0l10.73-6.2Zm-2.88.3L15,23h0l2.86-.09.1,3.34-3,1.72-3-1.72Z" transform="translate(0)" fill="#212121"/><path d="M25.84,13.82l-7.6-2,.36-.71L17.85,11l-.48,0V9.85h.4V9.44h0l6-1.95.93-.3L15,1.62v0h0v0L5.34,7.19l.93.3,6,1.95h0v.41h.4V11l-.48,0-.75.11.36.71-7.6,2L3.42,14v3.5l.74,0L15,17.17l10.84.32.74,0V14Zm-11-8.12A12.28,12.28,0,0,1,15,3.93a12.28,12.28,0,0,1,.15,1.77s.35.17.35.47a.39.39,0,0,1-.29.37v.65l1.94,1.7-.07,0-.13,0L16,8.72l-.28,0H14.26l-.28,0-.93.11-.13,0-.07,0,1.94-1.7V6.54a.39.39,0,0,1-.29-.37C14.5,5.87,14.85,5.7,14.85,5.7ZM12.49,9.58V9.26l.29-.13L13.39,9l.88-.06h1.46l.88.06.61.13.29.13v.32h-5Zm4.58.25V11l-1,0H13.9l-1,0V9.83h4.14Zm-4.58,1.39,1.42-.06h2.18l1.42.06.73.1-.35.78h-.25l-.22.48v1.33l-.4,0-1.19,0H14.17l-1.19,0-.4,0V12.58l-.22-.48h-.25l-.35-.78Zm5.76,4.38h-.38l-.29.47v.86L15,16.81h0l-2.56.12v-.86l-.29-.47h-.38l-.37-1.34L13,14.15l2,0,2,0,1.64.11Z" transform="translate(0)" fill="#212121"/><polygon points="5.43 21.13 10.1 21.36 10.1 20.9 5.43 21.13" fill="#212121"/></g><path id="right_bird" d="M20.47,10.55h.3l.38-.17.46-.18h0l.27,0h0l.43,0h0l.31,0,.08,0,.18.16a0,0,0,0,0,0,0l.12.17,0,0,.2.13a.18.18,0,0,1,.05.07l.07.18,0,0,.16.19s0,0,0,0l0,0a.16.16,0,0,0,.09,0h.39l.17-.07a.18.18,0,0,0,.07-.05l0,0a.08.08,0,0,0,0-.05h0a.14.14,0,0,0,0-.14h0l0,0-.47-.3,0,0,0-.06,0-.06a.16.16,0,0,1,.07-.07l.46-.2h0l.39-.09h.05l.59.08h0l.76.32L25,9.78h0l-.61-.26h0l-.17,0h-.07L24,9.5l-.07,0-.16.16,0,0-.18.07h-.25l-.2-.08h0l-.17,0h-.06l-.06,0-.05,0-.06,0-.48-.18h0l-.2,0h-.06l-.18.05h0l-.44.23,0,0-.36.28h0l-.35.35Z" transform="translate(0)" fill="#212121"/><polygon id="left_bird" points="6.4 11.55 6.66 11.64 7.27 11.63 7.37 11.57 7.37 11.45 7.31 11.32 7.33 11.13 7.49 10.94 7.68 10.87 8.41 10.84 8.86 10.75 9.18 10.66 9.66 10.67 10.19 10.63 10.53 10.54 10.75 10.48 10.72 10.42 9.88 10.25 9.37 10.18 8.79 10.18 8.26 10.25 7.89 10.33 7.73 10.32 7.69 10.17 7.59 10.1 7.37 10.09 7.16 10.16 7.02 10.16 6.75 9.99 6.11 9.56 5.51 9.27 4.7 9.1 3.85 8.94 3.44 8.88 3.34 8.91 3.52 9.1 4.43 9.56 5.65 10.2 6.41 10.62 6.62 10.77 6.64 10.84 6.62 10.93 6.45 11 6.12 11.12 6.06 11.19 6.13 11.3 6.4 11.55" fill="#212121"/><g id="title"><g id="park"><path d="M11.83,21.84V20.37h.66a.57.57,0,0,1,.31.07.35.35,0,0,1,.16.18.59.59,0,0,1,0,.22A.47.47,0,0,1,13,21a.51.51,0,0,1-.09.16.64.64,0,0,1-.16.11.61.61,0,0,1-.24,0h-.33v.52Zm.33-.83h.34a.17.17,0,0,0,.1,0,.1.1,0,0,0,.05-.06.29.29,0,0,0,0-.15.15.15,0,0,0-.05-.06.15.15,0,0,0-.1,0h-.34Z" transform="translate(0)" fill="#212121"/><path d="M13.17,21.84l.59-1.47h.32l.59,1.47h-.36l-.11-.28h-.55l-.11.28Zm.59-.58h.32L14,21v0l0,0v0l0,0v0Z" transform="translate(0)" fill="#212121"/><path d="M15.17,21.84V20.37h.73a.61.61,0,0,1,.3.06.39.39,0,0,1,.16.18.6.6,0,0,1,.05.24.55.55,0,0,1,0,.17.46.46,0,0,1-.09.15.36.36,0,0,1-.14.11l.27.56h-.37l-.27-.51H15.5v.51ZM15.5,21h.41L16,21a.18.18,0,0,0,.05-.07.33.33,0,0,0,0-.16.1.1,0,0,0-.05-.06.12.12,0,0,0-.09,0H15.5Z" transform="translate(0)" fill="#212121"/><path d="M17,21.84V20.37h.33v.69l.55-.69h.4l-.44.54.52.93H18l-.36-.65-.28.35v.3Z" transform="translate(0)" fill="#212121"/></g><g id="salzwiesen"><path d="M5,19.8a.81.81,0,0,1-.35-.07.7.7,0,0,1-.26-.19.85.85,0,0,1-.17-.31l.38-.15a.81.81,0,0,0,.17.23.43.43,0,0,0,.24.08.31.31,0,0,0,.2-.05.13.13,0,0,0,.08-.13.14.14,0,0,0,0-.11A.5.5,0,0,0,5.08,19L4.89,19l-.22-.08a.78.78,0,0,1-.2-.11.44.44,0,0,1-.16-.17.58.58,0,0,1,0-.25.48.48,0,0,1,.08-.28.57.57,0,0,1,.23-.2.82.82,0,0,1,.37-.07.75.75,0,0,1,.31.06.71.71,0,0,1,.23.18.55.55,0,0,1,.13.25l-.38.13a.58.58,0,0,0-.11-.15.33.33,0,0,0-.21-.06.25.25,0,0,0-.16,0,.11.11,0,0,0-.06.11.08.08,0,0,0,0,.07.17.17,0,0,0,.11.06l.17.06.24.09a.94.94,0,0,1,.22.12.69.69,0,0,1,.16.18.5.5,0,0,1,0,.26.52.52,0,0,1-.35.52A.9.9,0,0,1,5,19.8Z" transform="translate(0)" fill="#212121"/><path d="M6.26,19.77,7,17.84h.41l.78,1.93H7.74L7.6,19.4H6.88l-.14.37ZM7,19h.43l-.16-.38,0-.05a.17.17,0,0,0,0-.05v0s0,0,0,0,0,0,0,.05l0,.05Z" transform="translate(0)" fill="#212121"/><path d="M8.91,19.77V17.84h.44v1.51h.92v.42Z" transform="translate(0)" fill="#212121"/><path d="M10.81,19.77v-.32l.93-1.2h-.87v-.41h1.45v.32l-.94,1.2h.94v.41Z" transform="translate(0)" fill="#212121"/><path d="M14.56,17.84l.33,1.24.29-1.24h.49l-.52,1.93h-.48l-.33-1.2L14,19.77h-.47L13,17.84h.49l.29,1.24.33-1.24Z" transform="translate(0)" fill="#212121"/><path d="M16.44,19.77V17.84h.43v1.93Z" transform="translate(0)" fill="#212121"/><path d="M17.73,19.77V17.84h1.41v.42h-1v.31H19V19h-.78v.37h1v.42Z" transform="translate(0)" fill="#212121"/><path d="M20.52,19.8a.81.81,0,0,1-.35-.07.7.7,0,0,1-.26-.19.87.87,0,0,1-.18-.31l.39-.15a.81.81,0,0,0,.17.23.41.41,0,0,0,.24.08.31.31,0,0,0,.2-.05.13.13,0,0,0,.08-.13.14.14,0,0,0,0-.11L20.64,19,20.45,19l-.22-.08a1.06,1.06,0,0,1-.21-.11.5.5,0,0,1-.15-.17.46.46,0,0,1-.06-.25.57.57,0,0,1,.08-.28.6.6,0,0,1,.24-.2.92.92,0,0,1,.68,0,.71.71,0,0,1,.23.18.67.67,0,0,1,.13.25l-.38.13a.44.44,0,0,0-.12-.15.28.28,0,0,0-.2-.06.24.24,0,0,0-.16,0,.11.11,0,0,0-.06.11.08.08,0,0,0,0,.07.17.17,0,0,0,.11.06l.17.06.24.09a.94.94,0,0,1,.22.12.52.52,0,0,1,.15.18.5.5,0,0,1,.06.26.57.57,0,0,1-.09.32.6.6,0,0,1-.27.2A.83.83,0,0,1,20.52,19.8Z" transform="translate(0)" fill="#212121"/><path d="M22,19.77V17.84h1.4v.42h-1v.31h.78V19h-.78v.37h1v.42Z" transform="translate(0)" fill="#212121"/><path d="M24.2,19.77V17.84h.39l.7,1,0,.06,0,.08a.15.15,0,0,1,0-.07V17.84h.43v1.93h-.38l-.71-1,0-.06,0-.08s0,.05,0,.07v1.06Z" transform="translate(0)" fill="#212121"/></g></g></g><g id="frame"><rect width="30" height="30" fill="none"/></g></svg>