<!-- Copyright (c) 2022 - 2023 Jan Stehno -->
<svg xmlns="http://www.w3.org/2000/svg" viewBox="0 0 300 300"><title>silverridgepeaks</title><g id="silverridgepeaks"><g id="inner_border" data-name="inner border"><path d="M150,16.17A133.83,133.83,0,1,1,16.17,150,133.83,133.83,0,0,1,150,16.17m0-2A135.84,135.84,0,0,0,54,246.05,135.84,135.84,0,0,0,246.05,54,135,135,0,0,0,150,14.17Z" fill="#212121"/></g><g id="outter_border" data-name="outter border"><path d="M150,4A146,146,0,1,1,4,150,146,146,0,0,1,150,4m0-4A150,150,0,0,0,43.93,256.07,150,150,0,0,0,256.07,43.93,149,149,0,0,0,150,0Z" fill="#212121"/></g><g id="title"><path d="M97.76,232.67l-3-1v-2.86l6.8-.26h3.76c5.38,0,8.24,4.16,8.24,10.64,0,8-3.58,12.21-9.67,12.21h-2.33v9.34l3,1v3.11H94.72v-3.11l3-1Zm6.09,14.53c3.94,0,5.91-2.59,5.91-7.27,0-4.15-1.61-7.26-4.66-7.26h-3.58V247.2Z" fill="#212121"/><path d="M131.25,243.83V248H123V260.7h8.24l.72-5.19h2.33v9.34H116.21v-3.11l3-1v-28l-3-1v-2.86l6.8-.26h10.93v8.83h-2.33l-.89-4.67H123v11.16Z" fill="#212121"/><path d="M145.94,228.77l3.58-.26,7.95,32.24,3,1v3.11H150.06v-3.11l3.33-1L152,255h-9.32l-1.39,5.76,3.36,1v3.11h-9.85v-3.11l2.94-1Zm1.5,6.44-3.76,15.63h7.38Z" fill="#212121"/><path d="M162.23,261.74l3.05-1v-28l-3.05-1v-2.86l10.21-.26v3.12l-3.4,1v11.42h3.3l6.19-15.32,5.91-.26v3.12l-3.54,1-5.45,13.13,7.38,14.9,3,1v3.11H175.67v-3.11l3-1-6.16-12.46H169V260.7l3.4,1v3.11H162.23Z" fill="#212121"/><path d="M191.43,259.66a6.79,6.79,0,0,0,3.94,1.3,5.38,5.38,0,0,0,5.48-5.56c0-8-12.93-4.67-12.93-17.08,0-7.26,4-10.33,8.49-10.33,3.4,0,7.56,2.08,7.56,2.08l-.18,8.82h-2.33l-1.22-5.55a9.54,9.54,0,0,0-3.8-.93c-3.22,0-4.76,2.44-4.76,5,0,7.89,12.89,4.88,12.89,16.56,0,7.79-4.33,11.37-9.35,11.37a17.11,17.11,0,0,1-7.38-2.07v-9.09h2.87Z" fill="#212121"/><path d="M43,208.26a6.41,6.41,0,0,0,3.7,1.22,5,5,0,0,0,5.14-5.21c0-7.49-12.13-4.37-12.13-16,0-6.81,3.76-9.68,8-9.68,3.19,0,7.09,1.95,7.09,1.95l-.17,8.27H52.42l-1.14-5.21a9,9,0,0,0-3.56-.87c-3,0-4.47,2.28-4.47,4.72,0,7.4,12.09,4.57,12.09,15.52,0,7.3-4.06,10.66-8.77,10.66a16,16,0,0,1-6.91-2v-8.51h2.68Z" fill="#212121"/><path d="M58.86,210.21l2.86-1V183l-2.86-1v-2.68l9.24-.24V182l-2.86,1v26.28l2.86,1v2.92H58.86Z" fill="#212121"/><path d="M84.72,203.64h2.35v9.49H70.78v-2.92l2.86-1V183l-2.86-1v-2.68l9.24-.24V182l-2.86,1v26.28h6.89Z" fill="#212121"/><path d="M85.9,179.31l9.4-.24V182l-3.06.92,5.27,23.65,5.61-23.6L100,182v-2.68l9.07-.24V182l-2.62,1L99,213.13H95.63L88.48,183l-2.58-1Z" fill="#212121"/><path d="M123.84,193.42v3.9h-7.72v11.92h7.72l.67-4.87h2.19v8.76h-17v-2.92l2.85-1V183l-2.85-1v-2.68l6.38-.24h10.24v8.27h-2.18l-.84-4.38h-7.22v10.46Z" fill="#212121"/><path d="M132.91,183l-2.86-1v-2.68l6.38-.24h3.7c4.73,0,7.55,3.31,7.55,8.76,0,4.72-1.47,7.93-4.36,9.49a16.62,16.62,0,0,1,2,4.38l2.66,7.73,2.38.78v2.92h-5l-2.85-9c-1.58-4.87-2.32-5.84-4.53-5.84h-1.52v11l2.86,1v2.92h-9.24v-2.92l2.86-1Zm6,11.68c3.29,0,5.21-2.24,5.21-6.08,0-3.26-1.75-5.6-4.2-5.6h-3.53v11.68Z" fill="#212121"/><path d="M162.46,183l-2.86-1v-2.68l6.38-.24h3.7c4.73,0,7.55,3.31,7.55,8.76,0,4.72-1.47,7.93-4.36,9.49a16.62,16.62,0,0,1,2,4.38l2.66,7.73,2.38.78v2.92h-5l-2.85-9c-1.58-4.87-2.32-5.84-4.54-5.84H166v11l2.86,1v2.92H159.6v-2.92l2.86-1Zm6,11.68c3.29,0,5.21-2.24,5.21-6.08,0-3.26-1.75-5.6-4.2-5.6H166v11.68Z" fill="#212121"/><path d="M181.6,210.21l2.85-1V183l-2.85-1v-2.68l9.23-.24V182L188,183v26.28l2.85,1v2.92H181.6Z" fill="#212121"/><path d="M196.71,183l-2.86-1v-2.68l6.39-.24h4.19c6.55,0,10.58,5.84,10.58,16.54s-4.36,17.52-11.08,17.52H193.85v-2.92l2.86-1Zm7.39,26.28c4.19,0,7.05-4.14,7.05-13.38,0-9-2.69-12.9-6.88-12.9h-4v26.28Z" fill="#212121"/><path d="M238.18,210.7a14.7,14.7,0,0,1-8.56,2.92c-6.72,0-10.75-5.84-10.75-16.79,0-11.19,4.37-18.25,11.25-18.25,3.7,0,7.56,2.43,7.56,2.43l-.17,8h-2.18l-1-5.35a11.6,11.6,0,0,0-4.53-1c-4.54,0-7.06,4.86-7.06,13.87,0,8.76,3,12.89,7.39,12.89a11.81,11.81,0,0,0,4.7-1.22v-8l-2.85-1v-2.68l8.73-.24v2.92l-2.52,1Z" fill="#212121"/><path d="M257.83,193.42v3.9H250.1v11.92h7.73l.67-4.87h2.18v8.76h-17v-2.92l2.86-1V183l-2.86-1v-2.68l6.38-.24h10.24v8.27h-2.18l-.84-4.38H250.1v10.46Z" fill="#212121"/></g><g id="line"><line x1="67.28" y1="220.82" x2="232.72" y2="220.82" fill="none" stroke="#212121" stroke-miterlimit="10" stroke-width="2"/></g><g id="mountain"><path d="M203.25,154.63l-.33-.27-.22.24A2.23,2.23,0,0,0,203.25,154.63Z" fill="#212121"/><path d="M202.7,147.3l0,0h.07Z" fill="#212121"/><path d="M204.09,148.56l-.72,1.35a8.19,8.19,0,0,0,1.92-.45C204.9,149.2,204.49,148.89,204.09,148.56Z" fill="#212121"/><path d="M197.77,166l-.07,0a4.17,4.17,0,0,1-.54.31l.35.05A.47.47,0,0,0,197.77,166Z" fill="#212121"/><path d="M198.42,160.35c-.11,0-.21-.08-.32-.12a4.43,4.43,0,0,1-.6.39C198,160.59,198.42,160.52,198.42,160.35Z" fill="#212121"/><path d="M196.24,155.67l-.1-.13s2.75-.71,2.75-1.34c-.24-.13-.44-.27-.65-.4a9.39,9.39,0,0,1-2.23,1.56C196,155.46,196.1,155.56,196.24,155.67Z" fill="#212121"/><path d="M198.31,157.55l-.27-.16a6.88,6.88,0,0,1-.9.75C197.81,158.12,198.4,158,198.31,157.55Z" fill="#212121"/><path d="M166.4,164.17a5.07,5.07,0,0,1-.59-.33,5.91,5.91,0,0,1-.82.49A5.3,5.3,0,0,0,166.4,164.17Z" fill="#212121"/><path d="M172.84,159.51a20.55,20.55,0,0,1-2.63-2.17,3.73,3.73,0,0,1-1,1.81l0,0A19.88,19.88,0,0,0,172.84,159.51Z" fill="#212121"/><path d="M164.81,161.2a.63.63,0,0,1-.07-.14s.18.05.45.1l1.28-.15-.41.28a5.93,5.93,0,0,0,.73,0c-.61-.77-1.17-1.5-1.42-1.82a21.13,21.13,0,0,1-2.79,1.81A14.76,14.76,0,0,0,164.81,161.2Z" fill="#212121"/><path d="M204.81,144.05s-.28.48-.67,1.09a8.75,8.75,0,0,0,2.54.09c-1.07-1-1.94-1.91-2.65-2.67a7.23,7.23,0,0,1-1.56,2.33h.08A6.3,6.3,0,0,0,204.81,144.05Z" fill="#212121"/><path d="M198.44,151.57a2.09,2.09,0,0,1-.3-.21q-.15.19-.36.42C198.2,151.88,198.5,151.85,198.44,151.57Z" fill="#212121"/><path d="M197.48,163.35l-.07-.06-.1.06Z" fill="#212121"/><path d="M196.46,152.92c-.07.29.31.29.8.16l-.43-.4A2.85,2.85,0,0,1,196.46,152.92Z" fill="#212121"/><path d="M181.63,166.29a7.68,7.68,0,0,0,1.27-.07l-.48-.36C182.22,166,182,166.12,181.63,166.29Z" fill="#212121"/><path d="M179.78,165a3.56,3.56,0,0,1-1.08-.41s1.28-.13,1.35-.34a1.13,1.13,0,0,1-.48-.47,5.67,5.67,0,0,1-2.16,1.42c0,.28.81.22,1.64.07l-.35-.21S179.8,165.18,179.78,165Z" fill="#212121"/><path d="M179.42,163.56a3.23,3.23,0,0,1-.23-.52s.87.22,1,.07a1.87,1.87,0,0,1-.73-1A5.55,5.55,0,0,1,177,163.4C177,163.64,178.64,163.6,179.42,163.56Z" fill="#212121"/><path d="M179,167.46a3.17,3.17,0,0,1-.75-.39s1.41.12,1.32-.1a3.29,3.29,0,0,1-.81-.34,6.58,6.58,0,0,1-1.16.57C177.7,167.49,178.32,167.53,179,167.46Z" fill="#212121"/><path d="M179.85,166.2l-.28-.09-.47.31C179.46,166.36,179.85,166.28,179.85,166.2Z" fill="#212121"/><path d="M190.6,154.1a14.26,14.26,0,0,1-1.31-1.61l-1.14,2A7,7,0,0,0,190.6,154.1Z" fill="#212121"/><path d="M204,142.55A28.13,28.13,0,0,1,202,140.1l-.3.25A3,3,0,0,0,204,142.55Z" fill="#212121"/><path d="M181.93,165.41l-.1-.09-.1.09Z" fill="#212121"/><path d="M191.41,158.15c-.2-.13-.4-.29-.61-.45-.19.21-.43.47-.69.73A5.07,5.07,0,0,0,191.41,158.15Z" fill="#212121"/><path d="M190.77,154.28a6.1,6.1,0,0,1-.89,1.26,8.7,8.7,0,0,0,2.32.19C191.63,155.18,191.16,154.7,190.77,154.28Z" fill="#212121"/><path d="M197.76,151a9.6,9.6,0,0,1-.69-.74,4.37,4.37,0,0,1-.9.43C196.14,151.08,197.07,151.08,197.76,151Z" fill="#212121"/><path d="M190.35,157.31c-.39-.36-.77-.73-1.08-1.07-.35.37-.77.8-1.29,1.3A9.2,9.2,0,0,0,190.35,157.31Z" fill="#212121"/><path d="M190.6,161.36a5.14,5.14,0,0,1-.62.61,4,4,0,0,0,1-.36Z" fill="#212121"/><path d="M188.75,159.59l-.08,0a.85.85,0,0,0,.17.06Z" fill="#212121"/><path d="M170.76,163.32a7.44,7.44,0,0,1-.91-.66l-.4.17C169.45,163,170.22,163.21,170.76,163.32Z" fill="#212121"/><path d="M100.13,153.73A6.64,6.64,0,0,1,99,152.31a5,5,0,0,1-1,.61C97.87,153.62,99,153.76,100.13,153.73Z" fill="#212121"/><path d="M101.31,158.23l-.4.45C101.18,158.6,101.35,158.46,101.31,158.23Z" fill="#212121"/><path d="M100.07,157.16a8.81,8.81,0,0,1-.69-.86s2.45-.67,2.45-1.26c-.22-.13-.4-.26-.59-.39a7.59,7.59,0,0,1-3.4,2.13C97.84,157.11,99,157.17,100.07,157.16Z" fill="#212121"/><path d="M97.16,148.31c0,.87,4,1.85,4,1.85l-.39.47c.47,0,.91-.07.89-.34a5.82,5.82,0,0,1-2.07-1.66s2.45-.56,2.59-1.39a5.36,5.36,0,0,1-1-2.13A12.6,12.6,0,0,1,97.16,148.31Z" fill="#212121"/><path d="M156.83,166.17h0c.53,0,.92,0,.94-.15a5.65,5.65,0,0,1-1.35-.56,6.29,6.29,0,0,1-.89.55,12.3,12.3,0,0,0,1.28.15Z" fill="#212121"/><path d="M101.43,152.54a5.65,5.65,0,0,1-1.24-1.25,10.91,10.91,0,0,1-.92.83C100.07,152.5,101.55,153.16,101.43,152.54Z" fill="#212121"/><path d="M156.18,165.35c-.23-.15-.43-.28-.58-.4l-.51.46A7.3,7.3,0,0,0,156.18,165.35Z" fill="#212121"/><path d="M101,163.43l-.3-.19c-.18.15-.37.29-.56.43C100.64,163.74,101,163.7,101,163.43Z" fill="#212121"/><path d="M107.13,164.64a3.12,3.12,0,0,0,1.29-.33c-.22-.14-.41-.29-.59-.43A6.18,6.18,0,0,1,107.13,164.64Z" fill="#212121"/><path d="M108.66,161.93a9.07,9.07,0,0,1-1.42-1.27,6.69,6.69,0,0,1-.88.76A3.69,3.69,0,0,0,108.66,161.93Z" fill="#212121"/><path d="M164.86,165.07a3.77,3.77,0,0,1-.45-.45l-.55.23A7.17,7.17,0,0,0,164.86,165.07Z" fill="#212121"/><path d="M98.5,160.53c0,.56,1.22.44,2.47.15a4.85,4.85,0,0,1-1.27-.91A7,7,0,0,1,98.5,160.53Z" fill="#212121"/><path d="M99.38,165q-.27-.27-.51-.54l-.06,0A.72.72,0,0,0,99.38,165Z" fill="#212121"/><path d="M109.3,155.86c-.21-.25-.45-.58-.68-.9l-.44.58A3.9,3.9,0,0,0,109.3,155.86Z" fill="#212121"/><path d="M109.28,160.36c-.4-.38-.71-.69-1-1a7.15,7.15,0,0,1-.65.85A6,6,0,0,0,109.28,160.36Z" fill="#212121"/><path d="M170.18,165.68l-.21-.16-.21,0C169.76,165.64,169.94,165.67,170.18,165.68Z" fill="#212121"/><path d="M164.6,166.83l.23,0-.11-.1Z" fill="#212121"/><path d="M171.63,163.81l-.49-.27a4.81,4.81,0,0,1-.89.6A4.77,4.77,0,0,0,171.63,163.81Z" fill="#212121"/><path d="M151.85,167.29a3.86,3.86,0,0,1-.36-.22s1.47.12,1.37-.1a3.94,3.94,0,0,1-1.05-.46s1.33-.17,1.33-.31c-.27-.07-.48-.15-.68-.22a8.51,8.51,0,0,1-1.77,1C150.77,167.26,151.25,167.32,151.85,167.29Z" fill="#212121"/><path d="M171.46,161.41l.25-.08,0,0,.4-.1a11.09,11.09,0,0,1-1.64-1.05,3.6,3.6,0,0,1-.89.36c0,.28,1.54.11,1.54.11a7.2,7.2,0,0,1-1.09.83A10.39,10.39,0,0,0,171.46,161.41Z" fill="#212121"/><path d="M183.1,166.36a6.26,6.26,0,0,1-1.1.53,6.86,6.86,0,0,0,1.39.08.4.4,0,0,0,.29-.27A4.88,4.88,0,0,1,183.1,166.36Z" fill="#212121"/><path d="M169.32,159.31l-.07-.06Z" fill="#212121"/><path d="M155.6,167.75a4.36,4.36,0,0,0,1.48.11h0c.25,0,.42-.1.47-.21a9.94,9.94,0,0,1-1-.35A4.28,4.28,0,0,1,155.6,167.75Z" fill="#212121"/><path d="M163.39,162.76a7.52,7.52,0,0,0,1.17.16l-.16-.14s.69.11,1.37.18,1,0,1,0l-.05.08h.2a17.77,17.77,0,0,1-1.61-1.25A12.56,12.56,0,0,1,163.39,162.76Z" fill="#212121"/><path d="M155.87,167l-.28-.14-.22.08A3.43,3.43,0,0,0,155.87,167Z" fill="#212121"/><path d="M152.7,168.24a1.39,1.39,0,0,1-.19-.06l-.24.12C152.51,168.31,152.69,168.31,152.7,168.24Z" fill="#212121"/><path d="M154.87,164.05a4.93,4.93,0,0,0,1.14-.2,11.57,11.57,0,0,1-1,.76,6.06,6.06,0,0,0,1.25-.23l-.29.27c.88,0,2.29,0,2.29-.14a6.46,6.46,0,0,1-2.59-1A2.22,2.22,0,0,1,154.87,164.05Z" fill="#212121"/><path d="M152.49,164.88a4.32,4.32,0,0,1-.55-.25s1.33-.13,1.41-.34a1.76,1.76,0,0,1-.73-.87,5.91,5.91,0,0,1-2.15,1.44C150.5,165.2,151.52,165.07,152.49,164.88Z" fill="#212121"/><path d="M281.43,163.34l.12-1.21c-.23.28-.62.76-1.05,1.27A5.52,5.52,0,0,0,281.43,163.34Z" fill="#212121"/><path d="M246.32,141.74l-.87.95a7.26,7.26,0,0,0,2,.57C247.11,142.83,246.7,142.29,246.32,141.74Z" fill="#212121"/><path d="M245.86,145.09c-.38-.68-.73-1.28-1-1.77-.56.58-1.2,1.21-1.93,1.91A10.39,10.39,0,0,0,245.86,145.09Z" fill="#212121"/><path d="M265.36,159.91a2.53,2.53,0,0,1-.23-.12,5.91,5.91,0,0,1-.41.57C265.12,160.32,265.42,160.19,265.36,159.91Z" fill="#212121"/><path d="M265.48,155.09a5.86,5.86,0,0,1-1.36-1.22,9.42,9.42,0,0,1-.73.86C264.17,155.07,265.59,155.61,265.48,155.09Z" fill="#212121"/><path d="M247.16,147.35l-.11-.19-.2.19Z" fill="#212121"/><path d="M247.74,140.39c-.07-.06-.11-.12-.17-.18l-.11.14Z" fill="#212121"/><path d="M244.8,149.12l-.49.34a6.4,6.4,0,0,0,1.07.31Z" fill="#212121"/><path d="M270.84,162.89l-.13-.11a13.78,13.78,0,0,0,2.34.23,14.91,14.91,0,0,1-1.55-1.31,7.86,7.86,0,0,1-1.21,1A2.91,2.91,0,0,0,270.84,162.89Z" fill="#212121"/><path d="M272.93,161.31l-.52-.71a6.5,6.5,0,0,1-.49.65A4.77,4.77,0,0,0,272.93,161.31Z" fill="#212121"/><path d="M246.18,154.76l-.53.39a3.88,3.88,0,0,0,.75-.23C246.33,154.88,246.25,154.81,246.18,154.76Z" fill="#212121"/><path d="M261.31,156.76a14.41,14.41,0,0,0,3.29-.34,6.48,6.48,0,0,1-1.43-1.45C262.71,155.45,262.11,156,261.31,156.76Z" fill="#212121"/><path d="M265.08,164.37a3.85,3.85,0,0,1-.53-.3c-.14.16-.3.32-.47.48C264.63,164.64,265.06,164.62,265.08,164.37Z" fill="#212121"/><path d="M262.1,159a7.43,7.43,0,0,0,2.36.31,7.65,7.65,0,0,1-1-1s2.4-.57,2.4-1.08a8.59,8.59,0,0,1-1-.61A15.73,15.73,0,0,1,262.1,159Z" fill="#212121"/><path d="M262.9,162.35h0s2.56.21,2.56-.17a4.19,4.19,0,0,1-1.63-.89,8.53,8.53,0,0,1-1.27.93Z" fill="#212121"/><path d="M182.48,164.47l.35-.09-.15.14c.63.12,1.16.13,1.18-.15a5.34,5.34,0,0,1-2-1.71c-.15.08-.41.2-.75.34a1.61,1.61,0,0,0,1.11.51,2.25,2.25,0,0,1-.74.54,4.61,4.61,0,0,0,1.1-.2s-.31.26-.64.5A4.54,4.54,0,0,0,182.48,164.47Z" fill="#212121"/><path d="M19.85,146a16.7,16.7,0,0,1-1.71-1.46s1.87-1.57,2-2.83c-.66-.4-.74-.77-.74-.77a13.47,13.47,0,0,0,1.49-5c.48,3.42.43,4.72.75,4.94A2.93,2.93,0,0,0,23,141a4.81,4.81,0,0,1-1.51,1.75,1.84,1.84,0,0,0,1.57-.15,8.55,8.55,0,0,1-1.44,3.8c.3.54,1.94-.25,1.94-.25s-.68,3.64-1.62,4.4c.08.43,1,.78,1.73,1-.19-.8-.3-1.5-.3-1.5s1.18.66,1.39.21a8,8,0,0,1-1-3.18,1.15,1.15,0,0,0,1.13.13,3.91,3.91,0,0,1-1.08-1.46s.71.1.95-.08.19-1.27.54-4.13a12.67,12.67,0,0,0,1.06,4.17,1.13,1.13,0,0,1-.53.64,5.31,5.31,0,0,0,1.44,2.37A12.27,12.27,0,0,1,26,149.94a1.92,1.92,0,0,0,1.49,1.49,4.88,4.88,0,0,1-1,1.59,3.62,3.62,0,0,0,1.48-.58s-.79,1.44-1.34,2.22a3.55,3.55,0,0,0,1.08-.37l-.16-.28a3,3,0,0,0,.33.19c.22-.12.37-.22.37-.22l-.16.32a2.76,2.76,0,0,0,.83.24,4.48,4.48,0,0,1-.92-1.45,1.77,1.77,0,0,0,1.38-1.35,13.37,13.37,0,0,1-1.14-1.11,4.79,4.79,0,0,0,1.33-2.16,1,1,0,0,1-.49-.58,11.11,11.11,0,0,0,.9-3.17l-.25-.31.29.06c0-.12,0-.24.05-.38,0,.15,0,.27,0,.4,1.22.26,5,1,6.27.74-5.81-5.57-5.75-7-5.75-7a15,15,0,0,0,5.4.91c-2.16-3.75-4.11-7.21-4.11-7.21a14.23,14.23,0,0,0,4.53,1.62c-1.55-1.86-3.75-5.32-3.75-5.32a11.31,11.31,0,0,0,4.12,1.4A11.62,11.62,0,0,1,34,125.76a5.17,5.17,0,0,0,4.15-3.56,33.68,33.68,0,0,1-3.43-2.93s3.74-3.16,4-5.68c-1.33-.79-1.48-1.53-1.48-1.53a27.26,27.26,0,0,0,3-10c1,6.86.88,9.47,1.51,9.9s2.64.2,2.64.2a9.62,9.62,0,0,1-3,3.51,3.7,3.7,0,0,0,3.15-.31s-.63,5-2.88,7.61c.58,1.08,3.87-.49,3.87-.49s-1.35,7.3-3.24,8.81c.27,1.42,5.07,2.36,5.07,2.36s-.2.22-.52.53a1.64,1.64,0,0,0,.85-.16c.36-.27.31-1.89.87-6.13a17.49,17.49,0,0,0,1.7,6.19s-.09.46-.85,1c.15,1.56,2.29,3.51,2.29,3.51a18.38,18.38,0,0,1-2,1.82,3,3,0,0,0,2.38,2.2,7.37,7.37,0,0,1-1.59,2.37,6.1,6.1,0,0,0,2.36-.87s-1.26,2.14-2.15,3.29a7.67,7.67,0,0,0,2.59-1s-1.11,2.15-2.35,4.46a8.16,8.16,0,0,0,3.1-.56s0,.91-3.3,4.36a15.5,15.5,0,0,0,3.81-.51,18.32,18.32,0,0,1-3,3.12,8.23,8.23,0,0,0,3.21.35c.07-.3.13-.85.32-1.76a4.45,4.45,0,0,0,1,2.07s-.05.15-.48.31c.09.53,1.27,1.18,1.27,1.18a10,10,0,0,1-1.08.6,1.21,1.21,0,0,0,.35.39l0-.06s2.63.4,2.47-.38a6.07,6.07,0,0,1-1.89-1.62s2.39-.57,2.39-1.08a6.29,6.29,0,0,1-3-2.69s2.73,1.28,2.58.57a8.18,8.18,0,0,1-1.77-1.72s2.06.3,2-.2a5.55,5.55,0,0,1-2-1.42s2.4-.47,2.53-1.18c-.94-.76-1.62-4.4-1.62-4.4s1.64.79,1.94.25a8.55,8.55,0,0,1-1.44-3.8,1.84,1.84,0,0,0,1.57.15,4.73,4.73,0,0,1-1.5-1.75,2.89,2.89,0,0,0,1.31-.1c.32-.22.27-1.52.75-4.94a13.47,13.47,0,0,0,1.49,5s-.08.37-.74.77c.13,1.26,2,2.83,2,2.83A16.7,16.7,0,0,1,61.42,146a2.57,2.57,0,0,0,2.07,1.78,5.63,5.63,0,0,1-1.38,1.91,5.69,5.69,0,0,0,2-.69l-.52.8a20.93,20.93,0,0,0,4.89.49c-5-4.43-5-5.59-5-5.59a14.2,14.2,0,0,0,4.68.72c-1.87-3-3.56-5.72-3.56-5.72A13,13,0,0,0,68.59,141a52.46,52.46,0,0,1-3.24-4.21,10.51,10.51,0,0,0,3.56,1.11,9.27,9.27,0,0,1-2.39-3A4.43,4.43,0,0,0,70.1,132a28.47,28.47,0,0,1-3-2.32s3.24-2.5,3.47-4.5c-1.15-.63-1.29-1.22-1.29-1.22a20.26,20.26,0,0,0,2.58-7.93c.83,5.43.76,7.51,1.3,7.85a5.43,5.43,0,0,0,2.28.15,7.68,7.68,0,0,1-2.61,2.79,3.46,3.46,0,0,0,2.73-.25s-.55,4-2.49,6c.5.86,3.35-.39,3.35-.39s-1.17,5.79-2.81,7c.24,1.12,4.39,1.87,4.39,1.87a9.47,9.47,0,0,1-3.51,2.25c-.06.81,3.51.33,3.51.33A13.39,13.39,0,0,1,75,146.43c-.27,1.12,4.47-.91,4.47-.91s-1.11,2.39-5.15,4.29c0,.8,4.16,1.71,4.16,1.71a10.53,10.53,0,0,1-3.28,2.58c-.19.8,1.68.8,3,.71a.32.32,0,0,1,0-.07l.16.06.79-.07a3.18,3.18,0,0,1-.91-.87,2.45,2.45,0,0,0,.93-.06c.22-.12.19-.84.53-2.73a6.44,6.44,0,0,0,1,2.76s-.06.21-.53.43c.1.69,1.41,1.57,1.41,1.57a12.89,12.89,0,0,1-1.2.81,1.82,1.82,0,0,0,1.46,1,2.76,2.76,0,0,1-.37.49l.65.26a1.16,1.16,0,0,0,.19-.08l-.09.12c.57.21,1.18.37,1.12.07A6.26,6.26,0,0,1,82,157.16s1.6.23,1.58-.16A4.23,4.23,0,0,1,82,155.91s1.87-.36,2-.91c-.73-.58-1.26-3.38-1.26-3.38s1.28.61,1.51.19a6.57,6.57,0,0,1-1.13-2.92,1.5,1.5,0,0,0,1.23.12,3.67,3.67,0,0,1-1.17-1.35,2.27,2.27,0,0,0,1-.08c.25-.16.21-1.17.59-3.8a10.22,10.22,0,0,0,1.16,3.84s-.06.29-.58.59c.1,1,1.56,2.18,1.56,2.18a12.3,12.3,0,0,1-1.33,1.13,2,2,0,0,0,1.61,1.36l0,.08a9.78,9.78,0,0,0,3.3-.5,26,26,0,0,1-4.42-4.3s4.34,1,5.58.7c-4.87-4.75-4.82-6-4.82-6a12.52,12.52,0,0,0,4.53.77c-1.82-3.19-3.45-6.15-3.45-6.15a11.83,11.83,0,0,0,3.79,1.39c-1.3-1.59-3.14-4.54-3.14-4.54A9.36,9.36,0,0,0,92,135.52a9.83,9.83,0,0,1-2.33-3.26,4.33,4.33,0,0,0,3.48-3,28.24,28.24,0,0,1-2.87-2.5s3.13-2.69,3.36-4.84c-1.12-.67-1.25-1.31-1.25-1.31a23.19,23.19,0,0,0,2.49-8.52c.81,5.84.74,8.06,1.27,8.43a4.75,4.75,0,0,0,2.21.17,8.25,8.25,0,0,1-2.53,3,3.07,3.07,0,0,0,2.64-.27s-.53,4.27-2.42,6.49c.49.92,3.25-.42,3.25-.42s-1.13,6.22-2.72,7.51c.23,1.2,4.25,2,4.25,2a9.21,9.21,0,0,1-3.4,2.42c-.06.87,3.4.35,3.4.35a13.77,13.77,0,0,1-3,2.94c-.17.81,1.83.09,3.17-.47-.27-1.14-.44-2.14-.44-2.14s1.68.92,2,.29a11.07,11.07,0,0,1-1.47-4.46,1.69,1.69,0,0,0,1.61.19,5.62,5.62,0,0,1-1.54-2.06s1,.14,1.35-.12.27-1.78.77-5.79a17.35,17.35,0,0,0,1.52,5.86,1.62,1.62,0,0,1-.76.89c.14,1.48,2,3.33,2,3.33a18.16,18.16,0,0,1-1.75,1.71,2.7,2.7,0,0,0,2.12,2.09,6.94,6.94,0,0,1-1.42,2.24,5.43,5.43,0,0,0,2.11-.82s-1.13,2-1.92,3.12a6.79,6.79,0,0,0,2.31-1s-1,2-2.1,4.22a7,7,0,0,0,2.77-.53s0,.86-3,4.12a12.8,12.8,0,0,0,3.38-.47c-.41-.58-.76-1.12-.76-1.12a4.25,4.25,0,0,0,1.6.53,4.45,4.45,0,0,1-1.08-1.47,2,2,0,0,0,1.61-1.36,12.3,12.3,0,0,1-1.33-1.13s1.46-1.21,1.56-2.18c-.52-.3-.58-.59-.58-.59a10.22,10.22,0,0,0,1.16-3.84c.38,2.63.34,3.64.59,3.8a2.27,2.27,0,0,0,1,.08,3.67,3.67,0,0,1-1.17,1.35,1.47,1.47,0,0,0,1.22-.12,6.51,6.51,0,0,1-1.12,2.92c.23.42,1.51-.19,1.51-.19s-.53,2.8-1.26,3.38c.1.55,2,.91,2,.91A4.33,4.33,0,0,1,112,157c0,.39,1.58.16,1.58.16a6.26,6.26,0,0,1-1.38,1.32c-.11.51,1.68-.29,2-.41l-.16-.18a2.86,2.86,0,0,0,.84,0c.2-.09.17-.63.48-2a4.38,4.38,0,0,0,.94,2.07s0,.15-.47.31c.08.53,1.27,1.18,1.27,1.18l-.09.06a14.76,14.76,0,0,0,3,.23c-3.2-2.3-3.17-2.9-3.17-2.9a11.08,11.08,0,0,0,3,.37c-1.2-1.55-2.27-3-2.27-3a9.33,9.33,0,0,0,2.49.67c-.85-.77-2.06-2.19-2.06-2.19a7.63,7.63,0,0,0,2.27.57,5,5,0,0,1-1.53-1.58,2.88,2.88,0,0,0,2.29-1.47,16.74,16.74,0,0,1-1.89-1.21s2.06-1.3,2.21-2.34c-.73-.33-.82-.63-.82-.63a9.36,9.36,0,0,0,1.64-4.14c.53,2.83.48,3.91.83,4.09a4.27,4.27,0,0,0,1.45.08,4.4,4.4,0,0,1-.7.8,7.71,7.71,0,0,0,2.11.55,40.22,40.22,0,0,1-2.6-3.29,8.38,8.38,0,0,0,2.85.87,7.1,7.1,0,0,1-1.92-2.37,3.57,3.57,0,0,0,2.88-2.2,22,22,0,0,1-2.38-1.82s2.59-1.95,2.78-3.51c-.92-.49-1-1-1-1a15.52,15.52,0,0,0,2.06-6.19c.67,4.24.61,5.86,1.05,6.13a4.5,4.5,0,0,0,1.82.12,6,6,0,0,1-2.09,2.17,2.82,2.82,0,0,0,2.19-.19s-.44,3.1-2,4.71c.41.67,2.68-.31,2.68-.31s-.93,4.52-2.24,5.45c.18.88,3.51,1.47,3.51,1.47a7.57,7.57,0,0,1-2.81,1.75c-.05.63,2.81.26,2.81.26a10.6,10.6,0,0,1-2.46,2.13c-.21.88,3.58-.71,3.58-.71s-.89,1.87-4.12,3.34c0,.63,3.33,1.34,3.33,1.34a8.52,8.52,0,0,1-2.63,2c-.18.77,2.15.6,3.06.5a11.63,11.63,0,0,1-.43-1.34s1.16.44,1.36.14a4.17,4.17,0,0,1-1-2.11,1.6,1.6,0,0,0,1.11.09,2.86,2.86,0,0,1-1.06-1,2.4,2.4,0,0,0,.92-.06c.23-.12.19-.84.53-2.73a6.44,6.44,0,0,0,1.05,2.76s-.06.21-.52.43c.09.69,1.41,1.57,1.41,1.57a12.36,12.36,0,0,1-1.21.81,1.82,1.82,0,0,0,1.46,1,3.36,3.36,0,0,1-1,1.06,4.66,4.66,0,0,0,1.44-.39,18.65,18.65,0,0,1-1.31,1.47,5.93,5.93,0,0,0,1.59-.45l-1.45,2a6.56,6.56,0,0,0,1.9-.25s0,.4-2,1.95a13.42,13.42,0,0,0,2.33-.23,4.58,4.58,0,0,1-.85-.45s1.52-.2,1.6-.49c-.6-.31-1-1.82-1-1.82s1,.32,1.22.1a2.91,2.91,0,0,1-.91-1.57,1.73,1.73,0,0,0,1,.06,2.49,2.49,0,0,1-1-.72,2.86,2.86,0,0,0,.84,0c.2-.09.17-.63.47-2a4.45,4.45,0,0,0,1,2.07s-.05.15-.47.31c.08.53,1.27,1.18,1.27,1.18a11,11,0,0,1-1.09.6,1.73,1.73,0,0,0,1.31.74l-.09.13a9,9,0,0,0,2.48-.27,16.2,16.2,0,0,1-3-2.29,21.42,21.42,0,0,0,3.81.38c-3.32-2.54-3.29-3.2-3.29-3.2a10.72,10.72,0,0,0,3.09.41c-1.23-1.7-2.35-3.28-2.35-3.28a9.42,9.42,0,0,0,2.59.74,29.57,29.57,0,0,1-2.14-2.41,7.6,7.6,0,0,0,2.36.63,5.29,5.29,0,0,1-1.59-1.74,3,3,0,0,0,2.37-1.61,20.85,20.85,0,0,1-2-1.33s2.14-1.44,2.3-2.58c-.76-.36-.85-.7-.85-.7A10.7,10.7,0,0,0,148,139c.55,3.11.5,4.3.86,4.49a4,4,0,0,0,1.51.09,4.67,4.67,0,0,1-1.73,1.6,2.59,2.59,0,0,0,1.81-.14,6.84,6.84,0,0,1-1.65,3.45c.33.49,2.22-.22,2.22-.22s-.78,3.31-1.86,4c.15.64,2.9,1.07,2.9,1.07a6.51,6.51,0,0,1-2.32,1.29c0,.46,2.32.19,2.32.19a8.85,8.85,0,0,1-2,1.56c-.18.64,3-.52,3-.52s-.74,1.37-3.41,2.45c0,.46,2.75,1,2.75,1a6.8,6.8,0,0,1-2.17,1.47c-.19.7,2.83.34,2.83.34a5.69,5.69,0,0,1-2.94,1.71c0,.25,1.58.22,2.42.18h0l.49,0-.09.1c.26,0,.56.07.64,0a1.94,1.94,0,0,1-.8-1.09,1.84,1.84,0,0,0,.88,0,2.08,2.08,0,0,1-.84-.5,2.76,2.76,0,0,0,.73,0c.18-.06.15-.43.42-1.41a2.86,2.86,0,0,0,.83,1.43s-.05.11-.42.22c.08.36,1.11.81,1.11.81s-.37.19-.94.42a1.73,1.73,0,0,0,1.14.51c-.26-.18-.41-.31-.41-.31s3.08.28,2.88-.26a7.17,7.17,0,0,1-2.21-1.12s2.8-.4,2.8-.75c-2.72-.82-3.47-1.87-3.47-1.87s3.19.89,3,.4a8.79,8.79,0,0,1-2.08-1.19s2.41.21,2.37-.14a7.39,7.39,0,0,1-2.37-1s2.81-.32,3-.82c-1.1-.52-1.89-3-1.89-3s1.92.54,2.26.17a4.75,4.75,0,0,1-1.68-2.64,3.44,3.44,0,0,0,1.84.11,4.39,4.39,0,0,1-1.76-1.22,5.68,5.68,0,0,0,1.54-.06c.37-.15.31-1.06.88-3.43a7.1,7.1,0,0,0,1.74,3.46s-.1.26-.87.53c.16.88,2.34,2,2.34,2a19.75,19.75,0,0,1-2,1,3.26,3.26,0,0,0,2.42,1.23,4.76,4.76,0,0,1-1.62,1.33,9.87,9.87,0,0,0,2.41-.48,28.45,28.45,0,0,1-2.19,1.84,12.42,12.42,0,0,0,2.64-.57s-1.13,1.21-2.4,2.5a14.53,14.53,0,0,0,3.16-.31s0,.14-.47.54a5.44,5.44,0,0,0,1.48.36,18.29,18.29,0,0,1-1.42-1.47,5.37,5.37,0,0,0,1.56.39,3.36,3.36,0,0,1-1.05-1.06,2,2,0,0,0,1.57-1,14.2,14.2,0,0,1-1.3-.81s1.42-.88,1.53-1.57c-.51-.22-.57-.43-.57-.43a6.23,6.23,0,0,0,1.13-2.76c.37,1.89.33,2.61.57,2.73a2.83,2.83,0,0,0,1,.06,3,3,0,0,1-1.14,1,1.83,1.83,0,0,0,1.19-.09,4.06,4.06,0,0,1-1.09,2.11c.12.16.53.11.88,0a.74.74,0,0,1-.15-.32s.28.08.69.17l.05,0v0a9.15,9.15,0,0,0,2.26.21c-1.2-1.56-2.27-3-2.27-3a9.18,9.18,0,0,0,2.5.68,29.08,29.08,0,0,1-2.07-2.22,7.49,7.49,0,0,0,2.28.58,5,5,0,0,1-1.54-1.6,2.92,2.92,0,0,0,2.3-1.49,18,18,0,0,1-1.9-1.23s2.07-1.32,2.22-2.38c-.73-.33-.82-.64-.82-.64a9.53,9.53,0,0,0,1.64-4.19c.54,2.87.49,4,.84,4.15a4.33,4.33,0,0,0,1.46.08,4.6,4.6,0,0,1-1.67,1.47,2.62,2.62,0,0,0,1.74-.13,6.23,6.23,0,0,1-1.59,3.19c.32.45,2.14-.21,2.14-.21s-.75,3.06-1.79,3.69c.15.59,2.8,1,2.8,1a6.4,6.4,0,0,1-2.24,1.19c0,.42,2.24.17,2.24.17a8.17,8.17,0,0,1-2,1.44c-.17.59,2.86-.48,2.86-.48s-.71,1.26-3.29,2.26c0,.43,2.65.91,2.65.91a6.67,6.67,0,0,1-2.09,1.36c-.19.64,2.62.32,2.72.31a1.89,1.89,0,0,1-.32-.26,2.53,2.53,0,0,0,.7,0c.17-.06.15-.43.4-1.41a2.93,2.93,0,0,0,.8,1.43s0,.11-.4.22c0,.22.44.47.74.64a.28.28,0,0,1,0-.07s2.56.21,2.56-.17a5,5,0,0,1-2.56-1.88s2.63.4,2.46-.38a6.07,6.07,0,0,1-1.89-1.62s2.4-.57,2.4-1.08a6.29,6.29,0,0,1-3-2.69s2.73,1.28,2.58.57a7.94,7.94,0,0,1-1.77-1.72s2.05.3,2-.2a5.47,5.47,0,0,1-2-1.42s2.39-.47,2.53-1.18c-.95-.76-1.62-4.4-1.62-4.4s1.64.79,1.93.25a8.68,8.68,0,0,1-1.44-3.8,1.87,1.87,0,0,0,1.58.15A4.81,4.81,0,0,1,184,141a2.88,2.88,0,0,0,1.31-.1c.32-.22.28-1.52.76-4.94a13.58,13.58,0,0,0,1.48,5s-.07.37-.74.77c.14,1.26,2,2.83,2,2.83a16.7,16.7,0,0,1-1.71,1.46,2.57,2.57,0,0,0,2.07,1.78,5.63,5.63,0,0,1-1.38,1.91,5.78,5.78,0,0,0,2.06-.69s-1.1,1.72-1.87,2.65a7.07,7.07,0,0,0,2.26-.81l-.59,1a7.45,7.45,0,0,0,2.38.3c-1.24-2.14-2.35-4.13-2.35-4.13a8.05,8.05,0,0,0,2.59.93,36.74,36.74,0,0,1-2.15-3,6.48,6.48,0,0,0,2.36.8,6.57,6.57,0,0,1-1.58-2.19,3,3,0,0,0,2.37-2,19.84,19.84,0,0,1-2-1.68s2.14-1.8,2.29-3.25c-.76-.45-.85-.88-.85-.88a15.5,15.5,0,0,0,1.71-5.73c.55,3.93.5,5.42.86,5.67a3.25,3.25,0,0,0,1.51.12,5.6,5.6,0,0,1-1.73,2,2.15,2.15,0,0,0,1.81-.18,10,10,0,0,1-1.65,4.36c.33.62,2.21-.28,2.21-.28s-.77,4.18-1.85,5c.15.82,2.9,1.36,2.9,1.36s-.18.19-.46.45c.4,0,.72-.12.7-.36a6.32,6.32,0,0,1-2.32-1.75s2.75-.59,2.9-1.47c-1.08-.93-1.85-5.45-1.85-5.45s1.88,1,2.21.31a11.39,11.39,0,0,1-1.65-4.71,2,2,0,0,0,1.81.19,5.9,5.9,0,0,1-1.73-2.17s1.14.15,1.51-.12.31-1.89.86-6.13a17.61,17.61,0,0,0,1.71,6.19s-.09.46-.85,1c.15,1.56,2.29,3.51,2.29,3.51l-.3.32a11.86,11.86,0,0,0,3,.25c-2.17-3.75-4.11-7.21-4.11-7.21a14.13,14.13,0,0,0,4.52,1.62c-1.55-1.86-3.75-5.32-3.75-5.32a11.32,11.32,0,0,0,4.13,1.4,11.58,11.58,0,0,1-2.78-3.83,5.17,5.17,0,0,0,4.15-3.56,34.16,34.16,0,0,1-3.42-2.93s3.74-3.16,4-5.68c-1.33-.79-1.49-1.53-1.49-1.53a27,27,0,0,0,3-10c1,6.86.88,9.47,1.51,9.9s2.64.2,2.64.2a9.62,9.62,0,0,1-3,3.51,3.7,3.7,0,0,0,3.15-.31s-.63,5-2.88,7.61c.59,1.08,3.88-.49,3.88-.49s-1.36,7.3-3.25,8.81c.27,1.42,5.07,2.36,5.07,2.36a10.87,10.87,0,0,1-4.06,2.84c-.06,1,4.06.41,4.06.41s-2.14,2.75-3.55,3.44c-.3,1.42,5.17-1.14,5.17-1.14s-1.28,3-5.95,5.4c0,1,4.8,2.17,4.8,2.17a12.43,12.43,0,0,1-3.78,3.24c-.29,1.32,3.44.94,4.59.79-.59-.66-1.07-1.25-1.07-1.25a8.63,8.63,0,0,0,2.59.68,5.84,5.84,0,0,1-1.74-1.86,3.25,3.25,0,0,0,2.6-1.74,21.77,21.77,0,0,1-2.15-1.42s2.35-1.54,2.52-2.76c-.83-.39-.93-.75-.93-.75a11.36,11.36,0,0,0,1.87-4.87c.6,3.34.55,4.61,1,4.82a4.72,4.72,0,0,0,1.65.09,5.08,5.08,0,0,1-1.9,1.71,2.88,2.88,0,0,0,2-.15A7.3,7.3,0,0,1,223.5,147c.37.52,2.44-.24,2.44-.24s-.85,3.55-2,4.28c.17.7,3.19,1.16,3.19,1.16a7.18,7.18,0,0,1-2.55,1.38c0,.49,2.55.2,2.55.2a9.58,9.58,0,0,1-2.23,1.67c-.19.7,3.24-.56,3.24-.56s-.8,1.47-3.73,2.64c0,.41,2.09.87,2.79,1l-.22-.25a5.37,5.37,0,0,0,1.56.39,3.36,3.36,0,0,1-1.05-1.06,2,2,0,0,0,1.57-1,14.2,14.2,0,0,1-1.3-.81s1.42-.88,1.52-1.57c-.5-.22-.56-.43-.56-.43a6.29,6.29,0,0,0,1.12-2.76c.36,1.89.33,2.61.57,2.73a2.77,2.77,0,0,0,1,.06,3,3,0,0,1-1.14,1,1.12,1.12,0,0,0,.31,0h.17a2.19,2.19,0,0,0,.71-.15,1.52,1.52,0,0,1,0,.19c1.5.08,4.09.13,4.09-.4a10.11,10.11,0,0,1-5.14-3.79s5.27.81,4.94-.74a12.52,12.52,0,0,1-3.79-3.24s4.8-1.15,4.8-2.17c-4.66-2.39-6-5.4-6-5.4s5.48,2.56,5.17,1.14c-1.4-.69-3.55-3.44-3.55-3.44s4.13.61,4.06-.41a11,11,0,0,1-4.06-2.84s4.8-.94,5.07-2.36c-1.89-1.51-3.24-8.81-3.24-8.81s3.29,1.57,3.88.49c-2.26-2.6-2.89-7.61-2.89-7.61a3.73,3.73,0,0,0,3.16.31,9.5,9.5,0,0,1-3-3.51s2,.25,2.63-.2.55-3,1.51-9.9a27.14,27.14,0,0,0,3,10s-.16.74-1.49,1.53c.27,2.52,4,5.68,4,5.68a33.68,33.68,0,0,1-3.43,2.93,5.17,5.17,0,0,0,4.15,3.56,11.62,11.62,0,0,1-2.77,3.83,11.31,11.31,0,0,0,4.12-1.4,64.06,64.06,0,0,1-3.75,5.32,13.45,13.45,0,0,0,4.23-1.46,6.91,6.91,0,0,0,2.08-3.36c-1-.57-1.09-1.12-1.09-1.12a19.82,19.82,0,0,0,2.18-7.31c.7,5,.64,6.92,1.1,7.24a4.28,4.28,0,0,0,1.93.14,7,7,0,0,1-2.21,2.57,2.71,2.71,0,0,0,2.31-.23s-.46,3.67-2.11,5.57c.43.79,2.83-.36,2.83-.36s-1,5.33-2.37,6.44c.2,1,3.71,1.73,3.71,1.73a8,8,0,0,1-3,2.07c0,.75,3,.3,3,.3a11.9,11.9,0,0,1-2.6,2.52c-.22,1,3.78-.84,3.78-.84s-.94,2.21-4.35,4c0,.62,2.51,1.32,3.28,1.52-.29-.32-.5-.57-.5-.57s2.34.33,2.31-.21a6.26,6.26,0,0,1-2.31-1.51s2.73-.5,2.88-1.25c-1.07-.8-1.84-4.68-1.84-4.68s1.87.84,2.2.26a8.78,8.78,0,0,1-1.64-4,2.26,2.26,0,0,0,1.8.17,5.24,5.24,0,0,1-1.72-1.87,3.58,3.58,0,0,0,1.5-.1c.36-.23.31-1.62.86-5.26a13.58,13.58,0,0,0,1.69,5.31s-.09.4-.85.82c.16,1.34,2.29,3,2.29,3a19.26,19.26,0,0,1-2,1.56,2.92,2.92,0,0,0,2.36,1.89,6.15,6.15,0,0,1-1.58,2,6.91,6.91,0,0,0,2.35-.74,34.84,34.84,0,0,1-2.14,2.82,8.29,8.29,0,0,0,2.58-.86s-1.11,1.84-2.34,3.83a9.3,9.3,0,0,0,3.08-.48,1.07,1.07,0,0,1-.18.42c.6,0,1.34,0,1.32-.27a5.47,5.47,0,0,1-2-1.42s2.39-.47,2.53-1.18c-.95-.76-1.62-4.4-1.62-4.4s1.64.79,1.93.25a8.68,8.68,0,0,1-1.44-3.8,1.87,1.87,0,0,0,1.58.15,4.81,4.81,0,0,1-1.51-1.75,2.93,2.93,0,0,0,1.32-.1c.31-.22.27-1.52.75-4.94a13.47,13.47,0,0,0,1.49,5s-.08.37-.75.77c.14,1.26,2,2.83,2,2.83a16.7,16.7,0,0,1-1.71,1.46,2.56,2.56,0,0,0,2.07,1.78,5.79,5.79,0,0,1-1.39,1.91A5.69,5.69,0,0,0,271,149s-1.1,1.72-1.87,2.65a7.07,7.07,0,0,0,2.26-.81s-1,1.73-2.05,3.6a7.55,7.55,0,0,0,2.7-.45s0,.73-2.88,3.52a15.2,15.2,0,0,0,3.33-.42,15.06,15.06,0,0,1-2.64,2.52,6.14,6.14,0,0,0,2.05.3l-.45-.63a5.93,5.93,0,0,0,1.59.45,19.64,19.64,0,0,1-1.32-1.47,4.77,4.77,0,0,0,1.45.39,3.36,3.36,0,0,1-1-1.06,1.82,1.82,0,0,0,1.46-1,12.36,12.36,0,0,1-1.21-.81s1.32-.88,1.41-1.57c-.46-.22-.52-.43-.52-.43a6.36,6.36,0,0,0,1-2.76c.34,1.89.31,2.61.54,2.73a2.4,2.4,0,0,0,.92.06,2.86,2.86,0,0,1-1.06,1,1.6,1.6,0,0,0,1.11-.09,4.17,4.17,0,0,1-1,2.11c.2.3,1.36-.14,1.36-.14s-.48,2-1.14,2.44c.09.39,1.78.65,1.78.65a3.94,3.94,0,0,1-1.43.79c0,.28,1.43.11,1.43.11a5.14,5.14,0,0,1-1.25,1c-.1.39,1.82-.32,1.82-.32a4.07,4.07,0,0,1-2.09,1.5c0,.28,1.68.6,1.68.6l-.1.1c.48.14,1.24.33,1.18.13a4.51,4.51,0,0,1-1.07-.72s1.24.12,1.22-.09a3.55,3.55,0,0,1-1.22-.59s1.45-.2,1.53-.49c-.57-.32-1-1.84-1-1.84s1,.33,1.17.11a3,3,0,0,1-.87-1.59,1.56,1.56,0,0,0,.95.06,2.33,2.33,0,0,1-.91-.73,2.53,2.53,0,0,0,.79,0c.2-.09.17-.63.46-2.06a4.52,4.52,0,0,0,.9,2.08s-.05.16-.45.32c.08.53,1.21,1.19,1.21,1.19a10.34,10.34,0,0,1-1,.61,1.61,1.61,0,0,0,1.25.74,2.53,2.53,0,0,1-.84.8,4.45,4.45,0,0,0,1.25-.3,14,14,0,0,1-1.14,1.11,4.67,4.67,0,0,0,1.19-.27c.36-3.94.56-7.93.56-12a131.87,131.87,0,0,0-9.29-48.76c-5.19-.23-20.09-6.4-31.58-13.15s-25.46-12.26-26.54-12.26a3.91,3.91,0,0,0-2.34.9c-.73.45-5.23.36-9.47.36s-9,8-10.81,8.11-7.35,10.93-7.35,10.93-4.39-8.65-7.23-13.11-9.67-4.94-11.15-6.16-4.87-6.35-7.71-11.08-5-5.54-8.65-9.06-3.92-1.62-7.44-3.65-5.27-7.61-5.27-7.61-11.62,3-13.07,3-2.7-2.07-2.7-2.07S114.85,56.45,112.24,62s-4.15,11.67-5.36,14.51-3.38,1.35-4.74,1.89-5.58,4.87-7.12,6-8.56,0-10.09,0-2.52,2.34-4.33,2.43-4.5-2.43-4.5-2.43-.72,3-1.17,4.06S63.84,95.11,52.85,95.2A95,95,0,0,1,31,92.45a131.62,131.62,0,0,0-13.13,55.34A2.59,2.59,0,0,0,19.85,146Z" fill="#212121"/><path d="M281.31,164.64l.06-.66c-.24.19-.55.42-1,.7A5.31,5.31,0,0,0,281.31,164.64Z" fill="#212121"/><path d="M272.56,164.17l-.24-.13-.17.22A2.26,2.26,0,0,0,272.56,164.17Z" fill="#212121"/><path d="M105.94,157.89a4.44,4.44,0,0,0,1.36.31,1.3,1.3,0,0,1-.26-.54,5.88,5.88,0,0,0,2.1.35l-1.23-2.14A13,13,0,0,1,105.94,157.89Z" fill="#212121"/><path d="M257.08,154.16a6.07,6.07,0,0,1-1.37-1.11,10.69,10.69,0,0,1-.75.83C255.87,154.23,257.19,154.65,257.08,154.16Z" fill="#212121"/><path d="M280.81,165.56l.38.07c0-.1,0-.2,0-.29A4.23,4.23,0,0,1,280.81,165.56Z" fill="#212121"/><path d="M256.94,159.29a4.37,4.37,0,0,1-.43-.22,7,7,0,0,1-.53.71C256.55,159.75,257,159.63,256.94,159.29Z" fill="#212121"/><path d="M255.08,157.49c.7-.17,2.44-.64,2.44-1.07-.34-.17-.65-.33-.92-.5A8.49,8.49,0,0,1,255.08,157.49Z" fill="#212121"/><path d="M256.54,155.88a7.83,7.83,0,0,1-2-1.65,6,6,0,0,1-1.56,1.09C252.8,156.35,256,156,256.54,155.88Z" fill="#212121"/><path d="M256.26,158.9a8,8,0,0,1-1.4-1.25,5.92,5.92,0,0,1-2,1C252.88,159.07,255.32,159,256.26,158.9Z" fill="#212121"/><path d="M253.71,161.7l-.21.27c.11.18.43.23.85.2-.14-.18-.22-.3-.22-.3s.87.06,1.66.06c.38-.09.75-.2,1.09-.3a4.85,4.85,0,0,1-1.76-.95A6.9,6.9,0,0,1,253.71,161.7Z" fill="#212121"/><path d="M256.62,164a4,4,0,0,1-.65-.35c-.2.18-.4.36-.62.53C256,164.31,256.59,164.31,256.62,164Z" fill="#212121"/><path d="M253.72,165.25c.1.45.7.55,1.45.5a9.12,9.12,0,0,1-.93-.78A5.36,5.36,0,0,1,253.72,165.25Z" fill="#212121"/><path d="M246.41,138.83a5.89,5.89,0,0,1-.7-1.24,3.76,3.76,0,0,0,3-2.6,26.11,26.11,0,0,1-2.11-1.76c-.76,1.35-2,3.55-3.35,5.87A12.3,12.3,0,0,0,246.41,138.83Z" fill="#212121"/><path d="M228.2,161.31l-.39-.5a6,6,0,0,1-.54.46A7.16,7.16,0,0,0,228.2,161.31Z" fill="#212121"/><path d="M234.31,163.59a12.33,12.33,0,0,1-2.17-1.4,6.83,6.83,0,0,1-1.3.64c0,.28,1.81.6,1.81.6a5,5,0,0,1-1.1.76C232.9,164.38,234.14,164.34,234.31,163.59Z" fill="#212121"/><path d="M227.81,164.17a5.87,5.87,0,0,1-.88-.53,6.13,6.13,0,0,1-1.16.69A7.75,7.75,0,0,0,227.81,164.17Z" fill="#212121"/><path d="M227.67,163a3.74,3.74,0,0,0,.66,0l-.39-.29A3.29,3.29,0,0,1,227.67,163Z" fill="#212121"/><path d="M231.59,161.74l-.22-.2a1.58,1.58,0,0,1-.23.11C231.1,161.78,231.31,161.78,231.59,161.74Z" fill="#212121"/><path d="M234.68,158.92a9.76,9.76,0,0,1-2.9-2.18,6.89,6.89,0,0,1-.93,2.14C232.62,159.35,234.63,159.71,234.68,158.92Z" fill="#212121"/><path d="M227.41,165.79l-.22.16.31-.11Z" fill="#212121"/><path d="M227.71,162.55a11.2,11.2,0,0,1-1.07-.88,5.49,5.49,0,0,1-1.76.69C224.88,162.65,226.84,162.59,227.71,162.55Z" fill="#212121"/><path d="M179.58,162.05a1.39,1.39,0,0,0,.71,0,2,2,0,0,1-.48-.24A1.35,1.35,0,0,1,179.58,162.05Z" fill="#212121"/><path d="M226.56,167.11a5.29,5.29,0,0,1-.59-.5c-.12,0-.24.12-.37.16C225.67,167,226.06,167.11,226.56,167.11Z" fill="#212121"/><path d="M225.92,164.72a2.67,2.67,0,0,1-.27-.34,2.36,2.36,0,0,1-.28.12C225.38,164.66,225.6,164.72,225.92,164.72Z" fill="#212121"/><path d="M232.29,166.88c-.17-.08-.33-.15-.49-.24a1.94,1.94,0,0,1-.36.15C231.46,166.94,231.84,166.94,232.29,166.88Z" fill="#212121"/><path d="M231.76,156.72c-.28-.3-.52-.58-.73-.84a2.86,2.86,0,0,1-.71,1C230.53,157.12,231.6,156.77,231.76,156.72Z" fill="#212121"/><path d="M277.17,168.23a4.78,4.78,0,0,1-.6-.38,3.6,3.6,0,0,1-.49.23C276.14,168.31,276.65,168.3,277.17,168.23Z" fill="#212121"/><path d="M277.9,167.53a2.39,2.39,0,0,1-.51-.23l-.36.27C277.47,167.64,277.89,167.67,277.9,167.53Z" fill="#212121"/><path d="M276.73,169h0c0,.06.13.09.34.12A1.61,1.61,0,0,1,276.73,169Z" fill="#212121"/><path d="M277.48,164.53a3.35,3.35,0,0,1-.52.46c.12,0,1.42-.25,1.42-.45a4.35,4.35,0,0,1-1.57-.88,3.43,3.43,0,0,1-1.07.66C275.63,164.75,277.48,164.53,277.48,164.53Z" fill="#212121"/><path d="M276.78,166.87l-.19-.19s.57,0,1,0l.45-.11a3.13,3.13,0,0,1-1.07-.44,3.3,3.3,0,0,1-1.05.64C276,167,276.34,166.94,276.78,166.87Z" fill="#212121"/><path d="M277.79,168.5h0l-.22.14C277.66,168.61,277.77,168.57,277.79,168.5Z" fill="#212121"/><path d="M277.48,165.67l-.17.2c.4,0,.82,0,.77-.2a3.62,3.62,0,0,1-1.14-.67,3.12,3.12,0,0,1-1.27.57C275.67,165.78,277.48,165.67,277.48,165.67Z" fill="#212121"/><path d="M218.81,162.84a9.91,9.91,0,0,1-1.24-.74,13.26,13.26,0,0,1-1.65,1.16A6.56,6.56,0,0,0,218.81,162.84Z" fill="#212121"/><path d="M220.23,152.13c-.35-.32-.75-.74-1.12-1.15a8.32,8.32,0,0,1-.64.76A7.37,7.37,0,0,0,220.23,152.13Z" fill="#212121"/><path d="M220.19,157.84c-.83-.62-1.46-1.12-2-1.55a12.08,12.08,0,0,1-1.29,1.3A16.24,16.24,0,0,0,220.19,157.84Z" fill="#212121"/><path d="M216.9,155c-.33-.41-.33-.56-.33-.56a11.86,11.86,0,0,0,3.4.44c-.76-1-1.47-2-1.95-2.64a9.06,9.06,0,0,1-3.87,2.32C214.15,154.92,215.55,155,216.9,155Z" fill="#212121"/><path d="M214.92,158.92c.05.68,1.53.51,3.07.15-.57-.41-1.08-.84-1.45-1.15A8.68,8.68,0,0,1,214.92,158.92Z" fill="#212121"/><path d="M227.62,160.57l-1-1.26a6.63,6.63,0,0,0,1.71.45,13.87,13.87,0,0,1-1.08-1.09,7.14,7.14,0,0,1-2.28,1.49C224.84,160.73,226.71,160.64,227.62,160.57Z" fill="#212121"/><path d="M216.31,164.25a8.4,8.4,0,0,1-.71-.82l-.31.16C215.39,164,215.78,164.17,216.31,164.25Z" fill="#212121"/><path d="M271.28,165.2l-.36.32a5.76,5.76,0,0,0,1.27.27A5.13,5.13,0,0,1,271.28,165.2Z" fill="#212121"/><path d="M53.69,167.55l-.16-.07-.26.13.18,0C53.59,167.63,53.69,167.61,53.69,167.55Z" fill="#212121"/><path d="M58.21,164.37a4.08,4.08,0,0,1-.73-.45c-.19.15-.44.32-.76.53C57.47,164.62,58.18,164.7,58.21,164.37Z" fill="#212121"/><path d="M52,161a4.25,4.25,0,0,0,2.07.56A5.63,5.63,0,0,1,53.4,160s1.05.32,1.23.1a2.32,2.32,0,0,1-.71-1A8.36,8.36,0,0,1,52,161Z" fill="#212121"/><path d="M56.92,163.45l-.26-.28a3.33,3.33,0,0,1-.25.28A4.34,4.34,0,0,0,56.92,163.45Z" fill="#212121"/><path d="M58,166.7l-.34-.2a5.37,5.37,0,0,1-.68.34,2.77,2.77,0,0,0,.68.15C57.86,166.94,58,166.85,58,166.7Z" fill="#212121"/><path d="M56.28,162.3a6.23,6.23,0,0,0,1.44-.34l-.38.44c.63,0,1.26,0,1.26-.23a4,4,0,0,1-1.4-.7A10.59,10.59,0,0,1,56.28,162.3Z" fill="#212121"/><path d="M30.4,149.26a1.12,1.12,0,0,0,1.05-.12s-.05.39-.16.9a11.29,11.29,0,0,0,3.67-.58,27.76,27.76,0,0,1-4.84-4.54c.22,2,.22,2.78.41,2.93s.87.07.87.07A3.59,3.59,0,0,1,30.4,149.26Z" fill="#212121"/><path d="M54.72,158.61a1.8,1.8,0,0,1-.31-.17c0,.07-.08.14-.13.22A1.13,1.13,0,0,0,54.72,158.61Z" fill="#212121"/><path d="M27.31,161.14l-.2.17a1.87,1.87,0,0,0,.49.15C27.5,161.36,27.4,161.25,27.31,161.14Z" fill="#212121"/><path d="M32.38,156.08l-.09.11a7.16,7.16,0,0,0,1.86-.69,14.17,14.17,0,0,1-2.68-2.18,4.69,4.69,0,0,1-.77,1.86C30.79,155.72,32.38,156.08,32.38,156.08Z" fill="#212121"/><path d="M23.84,161.63a3.1,3.1,0,0,1-.5.29C23.61,161.89,23.81,161.81,23.84,161.63Z" fill="#212121"/><path d="M46.79,149.18a3.55,3.55,0,0,1-.89-.45,9.27,9.27,0,0,1-1,.76C45.59,149.57,46.81,149.64,46.79,149.18Z" fill="#212121"/><path d="M24.22,159.28l-.29-.19a4.46,4.46,0,0,1-1.15.82.22.22,0,0,0,0,.18C23.29,159.94,24.22,159.59,24.22,159.28Z" fill="#212121"/><path d="M24.11,156l-.16.14A.25.25,0,0,0,24.11,156Z" fill="#212121"/><path d="M56.71,161.06a3.6,3.6,0,0,1-.54.43,4.93,4.93,0,0,0,.86-.15A2.92,2.92,0,0,1,56.71,161.06Z" fill="#212121"/><path d="M46,163.07,46,163a6.32,6.32,0,0,1-.56.33C45.77,163.37,46,163.29,46,163.07Z" fill="#212121"/><path d="M28.62,158.15l-.35-.69c-.12.18-.25.38-.45.63A3.05,3.05,0,0,0,28.62,158.15Z" fill="#212121"/><path d="M46.91,146.52a1,1,0,0,0,.46-.56A7.76,7.76,0,0,1,46,142.67a17.1,17.1,0,0,1-3,1.92C43,145.33,45.52,146.13,46.91,146.52Z" fill="#212121"/><path d="M43.78,140.33c-.13.58.7.5,1.73.2v0h0a16.26,16.26,0,0,0,1.65-.58,10,10,0,0,1-.74-2A11.18,11.18,0,0,1,43.78,140.33Z" fill="#212121"/><path d="M45.73,150.94a12,12,0,0,1-1.09-1.28A4.86,4.86,0,0,1,44,150C43.87,150.65,44.71,150.88,45.73,150.94Z" fill="#212121"/><path d="M64.15,151.08l-.81-.82c-.34.49-.72,1-1.05,1.42A6,6,0,0,0,64.15,151.08Z" fill="#212121"/><path d="M53.86,164.78c.19-.06.34-.13.34-.19a6.38,6.38,0,0,1-1.08-.47c-.12.12-.25.25-.39.37A5.69,5.69,0,0,0,53.86,164.78Z" fill="#212121"/><path d="M66.63,158.46a15.09,15.09,0,0,1-1.35-.92,15.58,15.58,0,0,1-1.63,1.62A7.27,7.27,0,0,0,66.63,158.46Z" fill="#212121"/><path d="M111.87,160.12c0,.39,1.86.83,1.86.83a4.74,4.74,0,0,1-1.47,1.24c-.07.35.57.39,1.13.36a3.86,3.86,0,0,1-.36-.22s1.52-.2,1.6-.49c-.6-.31-1-1.82-1-1.82s1,.32,1.22.1a2.91,2.91,0,0,1-.91-1.57,1.73,1.73,0,0,0,1,.06,2.55,2.55,0,0,1-.77-.51A5.09,5.09,0,0,1,111.87,160.12Z" fill="#212121"/><path d="M64.33,162a7,7,0,0,1-.91.69,3.8,3.8,0,0,0,1.75.44l.37-.11A12.28,12.28,0,0,1,64.33,162Z" fill="#212121"/><path d="M54,163.71a1.66,1.66,0,0,1-.31-.14l-.17.19C53.76,163.81,54,163.82,54,163.71Z" fill="#212121"/><path d="M64.94,157.27a11.54,11.54,0,0,1-1.22-1.15c-.37.4-.82.87-1.4,1.42A10.65,10.65,0,0,0,64.94,157.27Z" fill="#212121"/><polygon points="62.5 154.47 62.5 154.47 62.5 154.47 62.5 154.47" fill="#212121"/><path d="M32.54,161.05s-.11.16-.28.37l.62-.2a15.2,15.2,0,0,1-1.43-1.32,4.81,4.81,0,0,1-.5.33C31,160.62,32.54,161.05,32.54,161.05Z" fill="#212121"/><path d="M151.83,169.8h.22l-.14,0Z" fill="#212121"/><path d="M165.1,169.8h.19l-.09,0Z" fill="#212121"/><path d="M143.2,169.8h0Z" fill="#212121"/><path d="M156.18,169.8h.2l-.09,0Z" fill="#212121"/><path d="M107.44,169.8h.16l-.09,0Z" fill="#212121"/><path d="M133.07,169.8h0Z" fill="#212121"/><path d="M138.4,169.8h0Z" fill="#212121"/><path d="M271.35,169.8h.18l-.1,0Z" fill="#212121"/><path d="M87.93,169.8h0Z" fill="#212121"/><path d="M27.46,155.53a3.6,3.6,0,0,0,1.3.5c-.28-.38-.62-.94-.88-1.37Z" fill="#212121"/><path d="M263.77,169.8h.12l-.05,0Z" fill="#212121"/><path d="M217.29,169.8h.18l-.1,0Z" fill="#212121"/><path d="M178.71,169.8h0Z" fill="#212121"/><path d="M255.18,169.8h.09l-.05,0Z" fill="#212121"/><path d="M279.22,169.8h-2l-.22-.05-.19.05h2.44Z" fill="#212121"/><path d="M28.73,160.48c-.14-.16-.25-.3-.38-.44l-.35.42A2.3,2.3,0,0,0,28.73,160.48Z" fill="#212121"/><path d="M22.88,155l-.22.14c-.05.22.18.25.53.18A3,3,0,0,1,22.88,155Z" fill="#212121"/><path d="M64.48,169.8h.32l-.17-.05Z" fill="#212121"/><path d="M24.25,153.39a5.19,5.19,0,0,1-.42-1.07,4.56,4.56,0,0,1-1.43.85C22.38,153.58,23.76,153.45,24.25,153.39Z" fill="#212121"/><path d="M28,156.85l-.59-1.17c-.2.4-.41.85-.64,1.31A4.07,4.07,0,0,0,28,156.85Z" fill="#212121"/><path d="M27.86,159.46c-.23-.28-.41-.52-.55-.72-.2.24-.43.51-.7.81A4.22,4.22,0,0,0,27.86,159.46Z" fill="#212121"/><path d="M23.43,154.49c.47-.18,1-.44,1.06-.76a1.28,1.28,0,0,1-.17-.22C24.15,153.71,23.81,154.12,23.43,154.49Z" fill="#212121"/><path d="M18.77,154.47,17.94,153c0,.47,0,.95,0,1.43A4.39,4.39,0,0,0,18.77,154.47Z" fill="#212121"/><path d="M19,157.54c-.34-.32-.62-.61-.88-.88,0,.29,0,.59,0,.88A3.31,3.31,0,0,0,19,157.54Z" fill="#212121"/><path d="M18.23,159.63v0h0Z" fill="#212121"/><path d="M24,157.51a3.64,3.64,0,0,1-.81-.81c-.24.16-.5.31-.78.46C22.88,157.43,24,158,24,157.51Z" fill="#212121"/><path d="M19,151.68c-.35-.41-.75-1-1.1-1.48,0,.4,0,.81,0,1.21A4.1,4.1,0,0,0,19,151.68Z" fill="#212121"/><path d="M17.91,148.08c0,.44,0,.88,0,1.32a4.82,4.82,0,0,0,1.27.32A6.74,6.74,0,0,1,17.91,148.08Z" fill="#212121"/><path d="M62.7,154.12c.49,0,1.36,0,2.29,0l.21-.07a.18.18,0,0,1,0,0,8.65,8.65,0,0,0,2.15-.4,18.18,18.18,0,0,1-3-2.42C64,151.81,63.4,152.91,62.7,154.12Z" fill="#212121"/><path d="M143.5,165.72a7.09,7.09,0,0,1-.59-.46,3.9,3.9,0,0,1-.64.33A5.46,5.46,0,0,0,143.5,165.72Z" fill="#212121"/><path d="M139.64,162.91a2.58,2.58,0,0,1-.42-.13l-.28.25C139.28,163,139.65,163,139.64,162.91Z" fill="#212121"/><path d="M142.32,164.72l-.18-.19-.3.19A1.89,1.89,0,0,0,142.32,164.72Z" fill="#212121"/><path d="M137.94,166l-.1-.09s1.67.17,1.57-.15a3.53,3.53,0,0,1-.87-.43,5.08,5.08,0,0,1-.89.56Z" fill="#212121"/><path d="M113.3,164.1a4.38,4.38,0,0,1-.56-.38,3.09,3.09,0,0,1-.56.21C112.18,164.09,112.76,164.11,113.3,164.1Z" fill="#212121"/><path d="M130.89,160.35c0,.42,3,.25,3.49.21a3.94,3.94,0,0,1-1.36-.76s1.69-.26,1.78-.65a2.16,2.16,0,0,1-.6-.85A6.76,6.76,0,0,1,130.89,160.35Z" fill="#212121"/><path d="M114.15,163.71a3.09,3.09,0,0,1-.74-.42,3.94,3.94,0,0,1-.45.31C113.47,163.73,114.22,163.91,114.15,163.71Z" fill="#212121"/><path d="M113.77,167.63h0c.06,0,.09,0,.09-.07a3.22,3.22,0,0,1-.81-.39,5.05,5.05,0,0,1-.45.25c0,.06.07.1.11.14A3.71,3.71,0,0,0,113.77,167.63Z" fill="#212121"/><path d="M142.4,161.79c-.2.18-.4.37-.59.51a4.64,4.64,0,0,0,.93-.18A3.58,3.58,0,0,1,142.4,161.79Z" fill="#212121"/><path d="M142,163.45a7.06,7.06,0,0,0,1.71-.18s0,.09-.3.36a4.58,4.58,0,0,0,1.14-.33,8,8,0,0,1-1.55-1C142.71,162.59,142.34,163,142,163.45Z" fill="#212121"/><path d="M139.14,166.55a1.53,1.53,0,0,1-.18.18c.29,0,.51,0,.51-.09A3.18,3.18,0,0,1,139.14,166.55Z" fill="#212121"/><path d="M141.7,161.49l.38-.05-.12-.14Z" fill="#212121"/><path d="M139.22,167.55a3.07,3.07,0,0,1-.77-.37c-.11.09-.23.17-.35.25a5.65,5.65,0,0,0,1.07.16S139.22,167.57,139.22,167.55Z" fill="#212121"/><path d="M46.16,158s0,0,.07,0Z" fill="#212121"/><path d="M125,150.25s0,.23-.15.56a4.73,4.73,0,0,0,.65,0c-.51-.78-1-1.53-1.42-2.2a4.86,4.86,0,0,1-1.21,1.86C123.17,150.9,125,150.25,125,150.25Z" fill="#212121"/><path d="M122.7,147.44a1.63,1.63,0,0,0,.69.1l-.23-.36C123,147.27,122.86,147.36,122.7,147.44Z" fill="#212121"/><path d="M125.72,154.6c-.71-.61-1.29-1.14-1.77-1.6a2.45,2.45,0,0,1-.75.89c.07.3.81.55,1.51.72A4.65,4.65,0,0,0,125.72,154.6Z" fill="#212121"/><polygon points="116.49 162.3 116.48 162.3 116.49 162.3 116.49 162.3" fill="#212121"/><path d="M117.8,163.37a5.72,5.72,0,0,1-.68-.49l-.5.57A6.2,6.2,0,0,0,117.8,163.37Z" fill="#212121"/><path d="M139,164.89c.37-.09.75-.2.75-.3l-.39-.15A3.61,3.61,0,0,1,139,164.89Z" fill="#212121"/><path d="M117.25,160.7a2.87,2.87,0,0,1-.88.79,5,5,0,0,0,1.3-.29s-.19.2-.44.44a8.37,8.37,0,0,0,1.94-.24,14.94,14.94,0,0,1-2.57-1.79c-.17.1-.39.22-.67.35A1.74,1.74,0,0,0,117.25,160.7Z" fill="#212121"/><path d="M117.15,165.64l-.11-.09-.09,0Z" fill="#212121"/><path d="M113.85,166.56l-.2.17c.27,0,.49,0,.49-.09A2.45,2.45,0,0,1,113.85,166.56Z" fill="#212121"/><path d="M112.49,165.62c0,.29.72.18,1.39,0a3.66,3.66,0,0,1-.75-.41A3.45,3.45,0,0,1,112.49,165.62Z" fill="#212121"/><path d="M118.11,163.56a7,7,0,0,1-.86.67,4.93,4.93,0,0,0,1.48-.34A6,6,0,0,1,118.11,163.56Z" fill="#212121"/><path d="M114.31,162.91a1.68,1.68,0,0,1-.38-.12l-.23.24C114,163,114.32,163,114.31,162.91Z" fill="#212121"/><path d="M114.4,164.59l-.47-.18a4.78,4.78,0,0,1-.46.52C113.9,164.84,114.4,164.71,114.4,164.59Z" fill="#212121"/><path d="M113.78,168.51h0a1.74,1.74,0,0,1-.27.14C113.63,168.63,113.75,168.59,113.78,168.51Z" fill="#212121"/><path d="M139,168.61h0Z" fill="#212121"/><path d="M78.34,164.32a2.87,2.87,0,0,1-.71-.39,9.74,9.74,0,0,1-1,.6C76.92,164.56,78.45,164.72,78.34,164.32Z" fill="#212121"/><path d="M87.54,161.4a7.41,7.41,0,0,1-.75.59,4.71,4.71,0,0,0,1.59.22A10.77,10.77,0,0,1,87.54,161.4Z" fill="#212121"/><path d="M86.23,155.86a4.14,4.14,0,0,0,1.08-.3l-.45-.53C86.65,155.33,86.42,155.63,86.23,155.86Z" fill="#212121"/><path d="M86.65,160.38l-.18-.23-.22.21A1.61,1.61,0,0,0,86.65,160.38Z" fill="#212121"/><path d="M77.87,165.4a3.56,3.56,0,0,1-1.24-.85,5.46,5.46,0,0,1-.64.32C76.12,165.38,76.91,165.48,77.87,165.4Z" fill="#212121"/><path d="M86.08,154.35a2.3,2.3,0,0,0,.26,0l-.1-.14Z" fill="#212121"/><path d="M82.56,167.22l-.31.21a4.86,4.86,0,0,0,.55.11s.09-.07.1-.13A2.27,2.27,0,0,1,82.56,167.22Z" fill="#212121"/><path d="M87.62,155.88,86.39,158a5.88,5.88,0,0,0,2.1-.35,1.25,1.25,0,0,1-.26.53,5.93,5.93,0,0,0,1.52-.58A12.26,12.26,0,0,1,87.62,155.88Z" fill="#212121"/><path d="M78.24,158a11,11,0,0,1-.42-1.31s1.15.44,1.36.14a3.26,3.26,0,0,1-.72-1.11A8,8,0,0,1,75,157.69C75,158.08,76.92,158.07,78.24,158Z" fill="#212121"/><path d="M46.23,137c-.11-.54-.15-.9-.15-.9a2,2,0,0,0,1.8.19,5.56,5.56,0,0,1-1.5-1.74,9,9,0,0,1-3.11,1.92C43.23,137.15,45,137.11,46.23,137Z" fill="#212121"/><path d="M45.9,155c.56-.23,1-.5,1-.77a11.06,11.06,0,0,1-1-.62,7.64,7.64,0,0,1-2.15.95C43.81,154.85,44.79,155,45.9,155Z" fill="#212121"/><path d="M81.16,161.31a5.49,5.49,0,0,0,.91-.05c-.17-.18-.27-.31-.27-.31s1.86-.44,1.86-.83a7.28,7.28,0,0,1-1.12-.71C82.35,159.66,81.79,160.46,81.16,161.31Z" fill="#212121"/><path d="M79,159.15a1.07,1.07,0,0,1-.26-.26,9.73,9.73,0,0,1-.72.74C78.43,159.52,78.91,159.35,79,159.15Z" fill="#212121"/><path d="M78.6,160.59a3.6,3.6,0,0,1-1.11-.55,7.8,7.8,0,0,1-1.82,1.13c0,.31.46.39,1.08.36a1.17,1.17,0,0,1-.14-.2l.48.17c.27,0,.56-.08.86-.13a8.3,8.3,0,0,1-.77-.67S78.63,160.87,78.6,160.59Z" fill="#212121"/><path d="M139.08,164.33a3.92,3.92,0,0,1-1-.61,5.58,5.58,0,0,1-.71.45A6,6,0,0,0,139.08,164.33Z" fill="#212121"/><path d="M134.18,164.32h0l-.27.23C134.09,164.51,134.22,164.44,134.18,164.32Z" fill="#212121"/><path d="M134.54,162.83a6.11,6.11,0,0,1-1.43-.81,6.59,6.59,0,0,1-1.68,1c0,.53,1.7.22,3-.11C134.49,162.91,134.54,162.87,134.54,162.83Z" fill="#212121"/><path d="M134.45,160.59h0l-.07.1S134.45,160.63,134.45,160.59Z" fill="#212121"/><path d="M132.45,165.67s1.81.11,1.81-.1a3,3,0,0,1-1.11-.46,7.36,7.36,0,0,1-1.46.84c.1.4.74.48,1.51.42A3.66,3.66,0,0,1,132.45,165.67Z" fill="#212121"/><path d="M133.85,168.08a4,4,0,0,1-.47-.22c-.14.06-.28.13-.43.18,0,.1.17.17.43.23S133.81,168.21,133.85,168.08Z" fill="#212121"/><path d="M139.48,163.71a3.43,3.43,0,0,1-.8-.46c-.12.11-.27.22-.42.34C138.76,163.73,139.55,163.91,139.48,163.71Z" fill="#212121"/><path d="M81,159.76a5.41,5.41,0,0,0,1.48-.4,4.62,4.62,0,0,1-.59-.55C81.63,159.12,81.29,159.5,81,159.76Z" fill="#212121"/><path d="M83.27,162.19a3,3,0,0,1-.71-.46c-.21.2-.5.46-.9.79C82.23,162.58,83.37,162.64,83.27,162.19Z" fill="#212121"/><path d="M83,165.62a2.43,2.43,0,0,1-.44-.26,4.15,4.15,0,0,1-.56.35C82.56,165.82,83,165.85,83,165.62Z" fill="#212121"/><path d="M81.68,164.08c.57,0,1.67.06,1.67-.15a2.66,2.66,0,0,1-.87-.39A6.61,6.61,0,0,1,81.68,164.08Z" fill="#212121"/><path d="M134.27,161.65a2.46,2.46,0,0,1-.48-.28c-.09.09-.18.19-.29.29C133.93,161.77,134.32,161.83,134.27,161.65Z" fill="#212121"/><path d="M81.66,158.53a1.85,1.85,0,0,1-.23-.35,4.85,4.85,0,0,1-.55.5A3.6,3.6,0,0,0,81.66,158.53Z" fill="#212121"/><path d="M81.79,163l-.31-.33L81,163A4,4,0,0,0,81.79,163Z" fill="#212121"/></g></g><g id="frame"><rect width="300" height="300" fill="none"/></g></svg>