<svg xmlns="http://www.w3.org/2000/svg" viewBox="0 0 30 30"><path d="M15,1.62A13.38,13.38,0,1,1,1.62,15,13.38,13.38,0,0,1,15,1.62m0-.2A13.58,13.58,0,1,0,28.58,15,13.59,13.59,0,0,0,15,1.42Z" fill="#212121"/><path d="M15,.4A14.6,14.6,0,1,1,.4,15,14.6,14.6,0,0,1,15,.4M15,0A15,15,0,1,0,30,15,15,15,0,0,0,15,0Z" fill="#212121"/><path d="M9.78,23.27l-.31-.11v-.28l.68,0h.38c.54,0,.82.42.82,1.07s-.36,1.22-1,1.22h-.24v.93l.31.1v.32h-1v-.32l.31-.1Zm.61,1.45c.39,0,.59-.26.59-.73s-.16-.72-.47-.72h-.36v1.45Z" fill="#212121"/><path d="M13.13,24.38v.42H12.3v1.27h.83l.07-.52h.23v.94H11.62v-.32l.31-.1v-2.8l-.31-.11v-.28l.68,0h1.09v.88h-.23l-.09-.46H12.3v1.11Z" fill="#212121"/><path d="M14.59,22.88l.36,0,.8,3.23.29.09v.32H15v-.32l.33-.09-.14-.58h-.93l-.14.58.34.09v.32h-1v-.32l.3-.09Zm.15.64-.37,1.56h.74Z" fill="#212121"/><path d="M16.22,26.17l.31-.1v-2.8l-.31-.11v-.28l1,0v.31l-.34.11v1.14h.33l.62-1.53.59,0v.31l-.35.11-.54,1.31.73,1.49.31.1v.32h-1v-.32l.3-.1-.61-1.25H16.9v1.25l.34.1v.32h-1Z" fill="#212121"/><path d="M19.14,26a.68.68,0,0,0,.4.13.54.54,0,0,0,.54-.56c0-.8-1.29-.47-1.29-1.71,0-.72.4-1,.85-1a2.09,2.09,0,0,1,.76.21l0,.88h-.23L20,23.33a1,1,0,0,0-.38-.09.46.46,0,0,0-.47.5c0,.79,1.29.49,1.29,1.66,0,.78-.44,1.14-.94,1.14a1.74,1.74,0,0,1-.74-.21v-.91h.29Z" fill="#212121"/><path d="M4.3,20.83a.64.64,0,0,0,.37.12.5.5,0,0,0,.51-.52C5.18,19.68,4,20,4,18.83c0-.68.38-1,.8-1a2,2,0,0,1,.71.19l0,.83H5.24l-.11-.52a.87.87,0,0,0-.36-.09.43.43,0,0,0-.44.47c0,.74,1.2.46,1.2,1.56,0,.73-.4,1.06-.87,1.06A1.57,1.57,0,0,1,4,21.17v-.85h.26Z" fill="#212121"/><path d="M5.89,21l.28-.1V18.3l-.28-.1v-.27l.92,0v.29l-.29.1v2.62l.29.1v.29H5.89Z" fill="#212121"/><path d="M8.47,20.36h.24v.95H7.08V21l.28-.1V18.3l-.28-.1v-.27l.92,0v.29l-.28.1v2.62H8.4Z" fill="#212121"/><path d="M8.59,17.93l.94,0v.29l-.31.09.53,2.37.56-2.36L10,18.2v-.27l.91,0v.29l-.27.1-.74,3H9.56l-.71-3-.26-.1Z" fill="#212121"/><path d="M12.38,19.34v.39h-.77v1.19h.77l.07-.48h.22v.87H11V21l.29-.1V18.3L11,18.2v-.27l.64,0h1v.82h-.22l-.09-.43h-.72v1Z" fill="#212121"/><path d="M13.29,18.3,13,18.2v-.27l.63,0H14c.48,0,.76.33.76.87a1,1,0,0,1-.44.95,1.41,1.41,0,0,1,.2.44l.27.77L15,21v.29h-.51l-.28-.9c-.16-.48-.23-.58-.46-.58h-.15v1.09l.29.1v.29H13V21l.28-.1Zm.61,1.16c.32,0,.52-.22.52-.6s-.18-.56-.42-.56h-.36v1.16Z" fill="#212121"/><path d="M16.25,18.3,16,18.2v-.27l.64,0H17c.47,0,.75.33.75.87a1,1,0,0,1-.43.95,2.14,2.14,0,0,1,.2.44l.26.77L18,21v.29h-.5l-.29-.9c-.15-.48-.23-.58-.45-.58H16.6v1.09l.28.1v.29H16V21l.29-.1Zm.6,1.16c.33,0,.52-.22.52-.6s-.17-.56-.42-.56H16.6v1.16Z" fill="#212121"/><path d="M18.16,21l.29-.1V18.3l-.29-.1v-.27l.92,0v.29l-.28.1v2.62l.28.1v.29h-.92Z" fill="#212121"/><path d="M19.67,18.3l-.28-.1v-.27l.63,0h.42c.66,0,1.06.58,1.06,1.65s-.44,1.75-1.11,1.75h-1V21l.28-.1Zm.74,2.62c.42,0,.7-.41.7-1.33s-.26-1.29-.68-1.29H20v2.62Z" fill="#212121"/><path d="M23.82,21.07a1.5,1.5,0,0,1-.86.29c-.67,0-1.07-.58-1.07-1.68s.43-1.82,1.12-1.82a1.72,1.72,0,0,1,.76.24l0,.8h-.22l-.1-.53a1.11,1.11,0,0,0-.45-.1c-.45,0-.71.49-.71,1.39S22.58,21,23,21a1.16,1.16,0,0,0,.47-.12V20l-.28-.1v-.27l.87,0v.29l-.25.1Z" fill="#212121"/><path d="M25.78,19.34v.39H25v1.19h.77l.07-.48h.22v.87h-1.7V21l.29-.1V18.3l-.29-.1v-.27l.64,0h1v.82h-.21l-.09-.43H25v1Z" fill="#212121"/><line x1="6.73" y1="22.08" x2="23.27" y2="22.08" fill="none" stroke="#212121" stroke-miterlimit="10" stroke-width="0.2"/><path d="M20.33,15.46l0,0,0,0Z" fill="#212121"/><polygon points="20.27 14.73 20.27 14.73 20.27 14.73 20.27 14.73" fill="#212121"/><path d="M20.41,14.86l-.07.13.19,0Z" fill="#212121"/><path d="M19.78,16.6h0l-.05,0h0Z" fill="#212121"/><path d="M19.84,16l0,0-.06,0C19.8,16.06,19.84,16.05,19.84,16Z" fill="#212121"/><path d="M19.62,15.57v0s.28-.07.28-.13l-.07,0a.83.83,0,0,1-.22.16S19.61,15.56,19.62,15.57Z" fill="#212121"/><path d="M19.83,15.75h0a.35.35,0,0,1-.09.07C19.78,15.81,19.84,15.8,19.83,15.75Z" fill="#212121"/><path d="M16.64,16.42l-.06,0-.08.05Z" fill="#212121"/><path d="M17.28,16a1.39,1.39,0,0,1-.26-.22.34.34,0,0,1-.1.18h0A3.25,3.25,0,0,0,17.28,16Z" fill="#212121"/><path d="M16.48,16.12h0l.13,0,0,0h.07L16.54,16l-.28.18Z" fill="#212121"/><path d="M20.48,14.41l-.07.1a.8.8,0,0,0,.26,0l-.27-.26a.79.79,0,0,1-.15.23h0A.58.58,0,0,0,20.48,14.41Z" fill="#212121"/><path d="M19.84,15.16l0,0,0,0S19.85,15.19,19.84,15.16Z" fill="#212121"/><path d="M19.75,16.33h0S19.74,16.34,19.75,16.33Z" fill="#212121"/><path d="M19.65,15.29s0,0,.08,0l-.05,0Z" fill="#212121"/><path d="M18.16,16.63h.13l-.05,0Z" fill="#212121"/><path d="M18,16.5a.35.35,0,0,1-.11,0s.13,0,.14,0a.12.12,0,0,1-.05-.05.49.49,0,0,1-.22.14s.08,0,.16,0l0,0S18,16.52,18,16.5Z" fill="#212121"/><path d="M17.94,16.36l0-.06s.09,0,.1,0a.2.2,0,0,1-.07-.1.53.53,0,0,1-.25.13S17.86,16.36,17.94,16.36Z" fill="#212121"/><path d="M17.9,16.75l-.07,0s.14,0,.13,0l-.08,0-.12.06S17.83,16.75,17.9,16.75Z" fill="#212121"/><path d="M18,16.62h0l-.05,0Z" fill="#212121"/><path d="M19.06,15.41a.69.69,0,0,1-.13-.16l-.11.2A.75.75,0,0,0,19.06,15.41Z" fill="#212121"/><path d="M20.4,14.25a2.49,2.49,0,0,1-.2-.24l0,0A.27.27,0,0,0,20.4,14.25Z" fill="#212121"/><path d="M18.19,16.54h0Z" fill="#212121"/><path d="M19.14,15.81l-.06,0-.07.07A.28.28,0,0,0,19.14,15.81Z" fill="#212121"/><path d="M19.08,15.43l-.09.12a.68.68,0,0,0,.23,0Z" fill="#212121"/><path d="M19.78,15.1a.46.46,0,0,1-.07-.07l-.09,0S19.71,15.11,19.78,15.1Z" fill="#212121"/><path d="M19,15.73l-.11-.11-.13.13A.74.74,0,0,0,19,15.73Z" fill="#212121"/><path d="M19.06,16.14,19,16.2l.09,0Z" fill="#212121"/><path d="M18.88,16h0Z" fill="#212121"/><path d="M17.08,16.33,17,16.27h0S17,16.32,17.08,16.33Z" fill="#212121"/><path d="M10,15.37a.6.6,0,0,1-.11-.14.33.33,0,0,1-.1.06C9.79,15.36,9.9,15.38,10,15.37Z" fill="#212121"/><path d="M10.13,15.82l0,0S10.13,15.85,10.13,15.82Z" fill="#212121"/><path d="M10,15.72l-.07-.09s.24-.07.24-.13l-.06,0a.72.72,0,0,1-.34.22S9.9,15.72,10,15.72Z" fill="#212121"/><path d="M9.72,14.83c0,.09.4.19.4.19l0,0c.05,0,.09,0,.09,0a.59.59,0,0,1-.21-.17s.25,0,.26-.14a.51.51,0,0,1-.1-.21A1.31,1.31,0,0,1,9.72,14.83Z" fill="#212121"/><path d="M15.68,16.62h0c.05,0,.09,0,.1,0a.46.46,0,0,1-.14-.05l-.09.05.13,0Z" fill="#212121"/><path d="M10.14,15.25a.45.45,0,0,1-.12-.12l-.09.08C10,15.25,10.15,15.32,10.14,15.25Z" fill="#212121"/><path d="M15.62,16.53l-.06,0-.05,0Z" fill="#212121"/><path d="M10.1,16.34l0,0-.05.05S10.1,16.37,10.1,16.34Z" fill="#212121"/><path d="M10.71,16.46a.31.31,0,0,0,.13,0l-.06,0A.46.46,0,0,1,10.71,16.46Z" fill="#212121"/><path d="M10.87,16.19l-.15-.12-.08.07A.3.3,0,0,0,10.87,16.19Z" fill="#212121"/><path d="M16.49,16.51l0-.05-.05,0A.29.29,0,0,0,16.49,16.51Z" fill="#212121"/><path d="M9.85,16.05c0,.06.12.05.25,0L10,16Z" fill="#212121"/><path d="M9.94,16.5l0-.05h0S9.91,16.49,9.94,16.5Z" fill="#212121"/><path d="M10.93,15.59l-.07-.09,0,.05Z" fill="#212121"/><path d="M10.93,16l-.1-.1-.06.08Z" fill="#212121"/><path d="M17,16.57l0,0h0Z" fill="#212121"/><path d="M16.46,16.68h0Z" fill="#212121"/><path d="M17.16,16.38l-.05,0a.23.23,0,0,1-.09.06A.32.32,0,0,0,17.16,16.38Z" fill="#212121"/><path d="M15.18,16.73l0,0s.15,0,.14,0l-.11-.05.13,0-.06,0-.18.1S15.13,16.73,15.18,16.73Z" fill="#212121"/><path d="M17.15,16.14h.06L17,16l-.08,0s.15,0,.15,0l-.11.08Z" fill="#212121"/><path d="M18.31,16.64l-.11.05h.14l0,0Z" fill="#212121"/><path d="M16.93,15.93h0Z" fill="#212121"/><path d="M15.56,16.78a.43.43,0,0,0,.15,0h0s0,0,0,0a.32.32,0,0,1-.09,0Z" fill="#212121"/><path d="M16.34,16.28h.1l.14,0h.11a.92.92,0,0,1-.16-.12Z" fill="#212121"/><path d="M15.59,16.7l0,0h0Z" fill="#212121"/><path d="M15.27,16.82h0Z" fill="#212121"/><path d="M15.49,16.41l.11,0-.1.07.12,0,0,0c.09,0,.23,0,.23,0a.74.74,0,0,1-.26-.1A.22.22,0,0,1,15.49,16.41Z" fill="#212121"/><path d="M15.25,16.49l-.06,0s.14,0,.14,0-.05-.06-.07-.09a.63.63,0,0,1-.21.15S15.15,16.51,15.25,16.49Z" fill="#212121"/><path d="M28.14,16.33a.49.49,0,0,0,0-.12l-.1.13Z" fill="#212121"/><path d="M24.63,14.17a.41.41,0,0,1-.09.1l.21.06Z" fill="#212121"/><path d="M24.59,14.51a1.8,1.8,0,0,1-.1-.18l-.2.19A.78.78,0,0,0,24.59,14.51Z" fill="#212121"/><path d="M26.54,16h0l0,.06S26.54,16,26.54,16Z" fill="#212121"/><path d="M26.55,15.51a.75.75,0,0,1-.14-.12l-.07.08C26.42,15.51,26.56,15.56,26.55,15.51Z" fill="#212121"/><path d="M24.72,14.73h0Z" fill="#212121"/><path d="M24.77,14v0Z" fill="#212121"/><path d="M24.48,14.91l-.05,0,.11,0Z" fill="#212121"/><path d="M27.08,16.29h0a1.21,1.21,0,0,0,.23,0l-.15-.13a.63.63,0,0,1-.12.1Z" fill="#212121"/><path d="M27.29,16.13l-.05-.07,0,.06Z" fill="#212121"/><path d="M24.62,15.48l-.06,0,.08,0Z" fill="#212121"/><path d="M26.13,15.68a1.4,1.4,0,0,0,.33,0,.6.6,0,0,1-.14-.14Z" fill="#212121"/><path d="M26.51,16.44l-.06,0s0,0,0,0S26.51,16.46,26.51,16.44Z" fill="#212121"/><path d="M26.21,15.9a.63.63,0,0,0,.24,0,.78.78,0,0,1-.1-.1s.24-.06.24-.11l-.11-.06A1.68,1.68,0,0,1,26.21,15.9Z" fill="#212121"/><path d="M26.29,16.23h0s.26,0,.26,0a.68.68,0,0,1-.17-.09l-.12.09Z" fill="#212121"/><path d="M18.25,16.45h0c.06,0,.11,0,.12,0a.6.6,0,0,1-.2-.17l-.08,0a.17.17,0,0,0,.12.05l-.08.06.11,0-.06.05Z" fill="#212121"/><path d="M2,14.6a1.16,1.16,0,0,1-.18-.14s.19-.16.2-.29-.07-.07-.07-.07a1.56,1.56,0,0,0,.15-.5,2.46,2.46,0,0,0,.07.49.37.37,0,0,0,.14,0,.6.6,0,0,1-.16.18.2.2,0,0,0,.16,0,.87.87,0,0,1-.14.38c0,.06.19,0,.19,0a1.25,1.25,0,0,1-.16.44s.1.07.17.1,0-.15,0-.15.12.06.14,0a.8.8,0,0,1-.1-.32.11.11,0,0,0,.11,0,.39.39,0,0,1-.11-.15s.07,0,.1,0a2.1,2.1,0,0,0,0-.42,1.37,1.37,0,0,0,.11.42.21.21,0,0,1,0,.07c0,.1.14.23.14.23L2.6,15c0,.14.14.15.14.15a.35.35,0,0,1-.09.16.38.38,0,0,0,.14-.06l-.13.23.11,0,0,0,0,0,0,0v0l.08,0a.3.3,0,0,1-.09-.14s.09,0,.13-.14l-.11-.11A.5.5,0,0,0,3,14.85a.14.14,0,0,1-.05-.06A.85.85,0,0,0,3,14.47l0,0H3v0a2.62,2.62,0,0,0,.62.07c-.58-.55-.57-.7-.57-.7a1.47,1.47,0,0,0,.54.09c-.22-.37-.41-.72-.41-.72a1.44,1.44,0,0,0,.45.16c-.15-.19-.37-.53-.37-.53a1.13,1.13,0,0,0,.41.14,1.14,1.14,0,0,1-.28-.38.55.55,0,0,0,.42-.36c-.21-.16-.35-.29-.35-.29s.38-.32.4-.57c-.13-.08-.14-.15-.14-.15a2.64,2.64,0,0,0,.29-1,4.76,4.76,0,0,0,.15,1,.63.63,0,0,0,.27,0,1,1,0,0,1-.3.36.36.36,0,0,0,.31,0,1.69,1.69,0,0,1-.29.77c.06.1.39-.05.39-.05a2.44,2.44,0,0,1-.32.88c0,.14.5.23.5.23l-.05.06.09,0a3.17,3.17,0,0,0,.08-.61,1.81,1.81,0,0,0,.17.62s0,0-.08.09.23.35.23.35A1.49,1.49,0,0,1,5,14a.29.29,0,0,0,.24.22.7.7,0,0,1-.16.24.67.67,0,0,0,.24-.08s-.13.21-.22.32a.79.79,0,0,0,.26-.1l-.23.45A.75.75,0,0,0,5.4,15s0,.09-.32.44a1.59,1.59,0,0,0,.38-.05,1.68,1.68,0,0,1-.31.31.83.83,0,0,0,.32,0s0-.09,0-.18a.45.45,0,0,0,.09.21s0,0,0,0,.13.12.13.12L5.57,16s0,0,0,0h0s.27,0,.25,0a.56.56,0,0,1-.19-.16s.24-.06.24-.11a.68.68,0,0,1-.3-.27s.28.13.26.06a1,1,0,0,1-.18-.17s.21,0,.21,0a.64.64,0,0,1-.21-.15s.24,0,.26-.11-.16-.44-.16-.44.16.08.19,0a.94.94,0,0,1-.15-.38.21.21,0,0,0,.16,0,.5.5,0,0,1-.15-.18.31.31,0,0,0,.13,0A2,2,0,0,0,6,13.6a1.31,1.31,0,0,0,.15.5s0,0-.08.07a.69.69,0,0,0,.2.29.82.82,0,0,1-.17.14.26.26,0,0,0,.21.18.61.61,0,0,1-.14.19.66.66,0,0,0,.21-.07L6.36,15a1.81,1.81,0,0,0,.49,0c-.5-.44-.49-.56-.49-.56a1.21,1.21,0,0,0,.46.07L6.47,14a1.17,1.17,0,0,0,.39.13,5,5,0,0,1-.33-.42,1,1,0,0,0,.36.11,1,1,0,0,1-.24-.3A.44.44,0,0,0,7,13.2a2.73,2.73,0,0,1-.3-.23s.33-.25.35-.45-.13-.12-.13-.12a2,2,0,0,0,.26-.79c.08.54.08.75.13.78a.5.5,0,0,0,.23,0,.85.85,0,0,1-.26.28.37.37,0,0,0,.27,0,1.27,1.27,0,0,1-.25.61c.05.08.34,0,.34,0s-.12.57-.28.69c0,.12.43.19.43.19a1,1,0,0,1-.35.23c0,.08.35,0,.35,0a1.2,1.2,0,0,1-.3.27c0,.12.44-.09.44-.09a1,1,0,0,1-.51.43c0,.08.41.17.41.17a1,1,0,0,1-.32.26c0,.08.17.08.3.07h.09a.24.24,0,0,1-.09-.08h.09s0-.08.06-.27a.57.57,0,0,0,.1.27s0,0-.05,0,.14.15.14.15L8,15.66a.17.17,0,0,0,.15.1l0,.05.06,0h0c.06,0,.12,0,.12,0a.61.61,0,0,1-.14-.13s.16,0,.16,0a.43.43,0,0,1-.16-.11s.18,0,.2-.09-.13-.34-.13-.34.13.06.15,0a.61.61,0,0,1-.11-.29.13.13,0,0,0,.12,0,.36.36,0,0,1-.12-.13.23.23,0,0,0,.11,0,1.79,1.79,0,0,0,.05-.38,1.07,1.07,0,0,0,.12.38.13.13,0,0,1-.06.06c0,.1.16.22.16.22a1,1,0,0,1-.14.11.21.21,0,0,0,.17.14h0A1.63,1.63,0,0,0,9,15.25a2.92,2.92,0,0,1-.44-.43,2.88,2.88,0,0,0,.56.07c-.49-.48-.48-.6-.48-.6a1.19,1.19,0,0,0,.45.07l-.34-.61a1.26,1.26,0,0,0,.37.14,5.15,5.15,0,0,1-.31-.46.83.83,0,0,0,.35.12A1.07,1.07,0,0,1,9,13.23a.43.43,0,0,0,.35-.31A3.22,3.22,0,0,1,9,12.67s.32-.27.34-.48-.12-.13-.12-.13a2.28,2.28,0,0,0,.24-.85,4.34,4.34,0,0,0,.13.84.46.46,0,0,0,.22,0,1,1,0,0,1-.25.3.3.3,0,0,0,.26,0A1.45,1.45,0,0,1,9.6,13c.05.09.33,0,.33,0s-.12.62-.28.75c0,.12.43.2.43.2a1,1,0,0,1-.34.24c0,.09.34,0,.34,0a1.35,1.35,0,0,1-.3.3c0,.08.19,0,.32-.05a1.44,1.44,0,0,1,0-.21s.16.09.19,0a1.19,1.19,0,0,1-.14-.45.17.17,0,0,0,.16,0,.66.66,0,0,1-.16-.21s.1,0,.14,0a2.45,2.45,0,0,0,.07-.58,1.82,1.82,0,0,0,.16.59s0,0-.08.09.21.33.21.33a1.65,1.65,0,0,1-.18.17.26.26,0,0,0,.21.21.61.61,0,0,1-.14.23.61.61,0,0,0,.21-.09,2.58,2.58,0,0,1-.19.31.69.69,0,0,0,.23-.09l-.21.42a.74.74,0,0,0,.28,0s0,.08-.3.41a1.11,1.11,0,0,0,.34,0l-.08-.11a.46.46,0,0,0,.16.06.5.5,0,0,1-.1-.15.21.21,0,0,0,.16-.14L10.87,15s.14-.12.15-.22a.13.13,0,0,1-.06-.06,1.07,1.07,0,0,0,.12-.38c0,.26,0,.36.06.38s.1,0,.1,0a.36.36,0,0,1-.12.13.15.15,0,0,0,.13,0,.67.67,0,0,1-.12.29s.15,0,.15,0a.92.92,0,0,1-.12.34c0,.05.19.09.19.09a.45.45,0,0,1-.15.11s.15,0,.15,0a.76.76,0,0,1-.13.13c0,.05.16,0,.19,0v0h.08s0-.06,0-.2a.45.45,0,0,0,.09.21s0,0,0,0,.13.12.13.12h0l.3,0c-.32-.23-.31-.3-.31-.3a.93.93,0,0,0,.29,0l-.22-.3a1,1,0,0,0,.25.07,2.85,2.85,0,0,1-.21-.22.79.79,0,0,0,.23.06c-.13-.1-.15-.16-.15-.16a.27.27,0,0,0,.22-.15,1.15,1.15,0,0,1-.18-.12s.2-.13.22-.23S12,14.6,12,14.6a.94.94,0,0,0,.17-.42c0,.29,0,.39.08.41a.42.42,0,0,0,.15,0l-.07.08a.72.72,0,0,0,.21.05,3.26,3.26,0,0,1-.26-.32.86.86,0,0,0,.28.08.78.78,0,0,1-.19-.24A.35.35,0,0,0,12.7,14a1.36,1.36,0,0,1-.24-.18s.26-.19.28-.35-.1-.09-.1-.09a1.68,1.68,0,0,0,.2-.62c.07.42.06.58.11.61s.18,0,.18,0a.58.58,0,0,1-.21.22.26.26,0,0,0,.22,0,1.07,1.07,0,0,1-.2.47c0,.07.27,0,.27,0s-.1.45-.23.55.35.14.35.14a.7.7,0,0,1-.28.18c0,.06.28,0,.28,0a1.4,1.4,0,0,1-.24.22c0,.08.36-.07.36-.07a.86.86,0,0,1-.42.33c0,.06.34.13.34.13a.79.79,0,0,1-.27.2c0,.08.22.06.31.06a.63.63,0,0,1,0-.14s.11,0,.13,0a.4.4,0,0,1-.1-.21.15.15,0,0,0,.11,0,.21.21,0,0,1-.1-.09h.09s0-.08.05-.27a.64.64,0,0,0,.11.27.16.16,0,0,1-.06,0c0,.07.14.15.14.15a.5.5,0,0,1-.12.08.18.18,0,0,0,.15.1.44.44,0,0,1-.1.11.63.63,0,0,0,.15,0l-.13.15a.59.59,0,0,0,.15-.05,2.05,2.05,0,0,1-.14.2.56.56,0,0,0,.19,0s0,0-.2.19a1.3,1.3,0,0,0,.23,0,.26.26,0,0,1-.08-.05s.15,0,.16-.05-.11-.18-.11-.18S14,16,14,16a.26.26,0,0,1-.1-.16.13.13,0,0,0,.1,0,.27.27,0,0,1-.09-.07H14s0-.06.05-.2a.45.45,0,0,0,.09.21s0,0,0,0,.12.12.12.12l-.1.06c0,.07.13.07.13.07h0a1.06,1.06,0,0,0,.25,0,1.67,1.67,0,0,1-.31-.23,1.85,1.85,0,0,0,.39,0c-.34-.25-.33-.32-.33-.32a1.21,1.21,0,0,0,.31.05l-.24-.33a1.16,1.16,0,0,0,.26.07,2.66,2.66,0,0,1-.22-.24.62.62,0,0,0,.24.06.52.52,0,0,1-.16-.17.3.3,0,0,0,.24-.16l-.2-.13s.22-.15.23-.26-.08-.07-.08-.07a1.12,1.12,0,0,0,.17-.46c0,.32,0,.43.08.45a.48.48,0,0,0,.16,0,.47.47,0,0,1-.18.16.29.29,0,0,0,.18,0,.62.62,0,0,1-.16.34c0,.05.22,0,.22,0s-.08.33-.19.4.29.11.29.11a.63.63,0,0,1-.23.13s.23,0,.23,0a.82.82,0,0,1-.2.15c0,.07.3-.05.3-.05a.71.71,0,0,1-.34.25s.27.09.27.09a.61.61,0,0,1-.22.15c0,.07.29,0,.29,0a.62.62,0,0,1-.3.18s.16,0,.25,0h0a.06.06,0,0,0,.06,0,.22.22,0,0,1-.08-.11.17.17,0,0,0,.09,0,.16.16,0,0,1-.08-.05h.07s0,0,0-.14a.27.27,0,0,0,.08.14s0,0,0,0,.11.08.11.08l-.09,0a.14.14,0,0,0,.11.05l0,0s.31,0,.29,0a.8.8,0,0,1-.22-.11s.28,0,.28-.07a.78.78,0,0,1-.35-.19s.32.09.3,0a.71.71,0,0,1-.2-.12s.24,0,.23,0a.9.9,0,0,1-.23-.1s.28,0,.29-.08-.19-.31-.19-.31.2.06.23,0a.49.49,0,0,1-.17-.26.43.43,0,0,0,.19,0,.46.46,0,0,1-.18-.13h.15s0-.11.09-.34a.71.71,0,0,0,.17.34s0,0-.08,0,.23.2.23.2l-.2.1a.32.32,0,0,0,.24.13.5.5,0,0,1-.16.13,1.19,1.19,0,0,0,.24-.05,2.35,2.35,0,0,1-.22.18,1,1,0,0,0,.27-.05l-.24.25a2,2,0,0,0,.31,0l0,0,.15,0-.15-.15.16,0a.41.41,0,0,1-.11-.11.18.18,0,0,0,.16-.1l-.13-.08s.14-.08.15-.15-.05,0-.05,0a.64.64,0,0,0,.11-.27c0,.19,0,.26.06.27H17a.27.27,0,0,1-.12.09.17.17,0,0,0,.12,0,.36.36,0,0,1-.11.21s.06,0,.09,0v0H17a.55.55,0,0,0,.23,0l-.23-.3a1,1,0,0,0,.25.07,2.85,2.85,0,0,1-.21-.22.79.79,0,0,0,.23.06c-.13-.1-.15-.16-.15-.16a.27.27,0,0,0,.22-.15l-.18-.13s.2-.13.22-.23-.09-.07-.09-.07a.94.94,0,0,0,.17-.42c.05.29.05.4.08.42a.42.42,0,0,0,.15,0,.44.44,0,0,1-.17.14.29.29,0,0,0,.18,0,.67.67,0,0,1-.16.32s.21,0,.21,0-.07.3-.18.37.28.1.28.1a.5.5,0,0,1-.22.11c0,.05.22,0,.22,0a.94.94,0,0,1-.19.15c0,.06.28-.05.28-.05a.65.65,0,0,1-.33.22c0,.05.27.09.27.09a.68.68,0,0,1-.21.14c0,.06.26,0,.27,0l0,0H18s0,0,0-.14a.27.27,0,0,0,.08.14.07.07,0,0,1,0,0s0,0,.07.06h0s.26,0,.26,0a.5.5,0,0,1-.26-.19s.26,0,.24,0a.6.6,0,0,1-.18-.16s.24-.06.24-.11a.61.61,0,0,1-.3-.27s.27.13.26.06a1,1,0,0,1-.18-.17s.21,0,.2,0a.68.68,0,0,1-.2-.15s.24,0,.25-.11a1.25,1.25,0,0,1-.16-.44s.16.08.19,0a.87.87,0,0,1-.14-.38.21.21,0,0,0,.16,0,.5.5,0,0,1-.15-.18.31.31,0,0,0,.13,0s0-.15.07-.49a1.56,1.56,0,0,0,.15.5s0,0-.07.07.2.29.2.29a1.41,1.41,0,0,1-.17.14.25.25,0,0,0,.2.18.47.47,0,0,1-.13.19.56.56,0,0,0,.2-.07,2.47,2.47,0,0,1-.19.27.77.77,0,0,0,.23-.08l-.06.1a.58.58,0,0,0,.24,0L19,14.81a.88.88,0,0,0,.26.09L19,14.6a.67.67,0,0,0,.24.08.79.79,0,0,1-.16-.22.31.31,0,0,0,.23-.21,1.94,1.94,0,0,1-.19-.16s.21-.19.23-.33-.09-.09-.09-.09a1.56,1.56,0,0,0,.17-.57c.06.39,0,.54.09.57a.42.42,0,0,0,.15,0,.62.62,0,0,1-.17.2.21.21,0,0,0,.18,0,1,1,0,0,1-.17.44c0,.06.22,0,.22,0s-.07.42-.18.5.29.14.29.14l-.05,0s.07,0,.07,0a.62.62,0,0,1-.23-.18s.28-.06.29-.14a1.49,1.49,0,0,1-.18-.55s.18.1.22,0a1.14,1.14,0,0,1-.17-.47.18.18,0,0,0,.18,0,.6.6,0,0,1-.17-.22s.11,0,.15,0,0-.19.09-.61a1.81,1.81,0,0,0,.17.62s0,0-.09.09a.78.78,0,0,0,.23.35l0,0a1.46,1.46,0,0,0,.3,0l-.41-.72a1.56,1.56,0,0,0,.45.16c-.15-.19-.37-.53-.37-.53a1.13,1.13,0,0,0,.41.14,1.38,1.38,0,0,1-.28-.38.53.53,0,0,0,.42-.36,3.68,3.68,0,0,1-.34-.29s.37-.32.4-.57c-.14-.08-.15-.15-.15-.15a2.75,2.75,0,0,0,.3-1c.09.68.08.94.15,1s.26,0,.26,0a.92.92,0,0,1-.3.36.36.36,0,0,0,.31,0,1.76,1.76,0,0,1-.28.77c.05.1.38-.05.38-.05s-.13.73-.32.88c0,.14.51.23.51.23a1.19,1.19,0,0,1-.41.29c0,.1.41,0,.41,0a1.72,1.72,0,0,1-.36.34c0,.15.52-.11.52-.11a1.28,1.28,0,0,1-.6.54c0,.1.48.22.48.22a1.25,1.25,0,0,1-.38.32c0,.13.35.09.46.08l-.1-.13a.88.88,0,0,0,.26.07.55.55,0,0,1-.18-.18.34.34,0,0,0,.26-.18,1.24,1.24,0,0,1-.21-.14s.23-.15.25-.28-.09-.07-.09-.07a1.15,1.15,0,0,0,.18-.49c.06.34.06.46.1.48s.16,0,.16,0a.44.44,0,0,1-.19.17.28.28,0,0,0,.2,0,.75.75,0,0,1-.18.37c0,.05.24,0,.24,0s-.08.35-.2.42.32.12.32.12a.82.82,0,0,1-.26.14c0,.05.26,0,.26,0a1.41,1.41,0,0,1-.22.17c0,.06.32-.06.32-.06a.69.69,0,0,1-.37.26s.21.09.28.1l0,0,.16,0c-.09-.07-.1-.11-.1-.11a.17.17,0,0,0,.15-.1l-.13-.08s.14-.08.15-.15-.05,0-.05,0a.64.64,0,0,0,.11-.27c0,.19,0,.26.06.27h.1a.27.27,0,0,1-.12.09h.05a.14.14,0,0,0,.07,0v0c.15,0,.41,0,.41,0a1,1,0,0,1-.52-.38s.53.09.5-.07a1.25,1.25,0,0,1-.38-.32s.48-.12.48-.22a1.28,1.28,0,0,1-.6-.54s.55.26.52.11a1.72,1.72,0,0,1-.36-.34s.42.06.41,0a1.19,1.19,0,0,1-.41-.29s.48-.09.51-.23c-.19-.15-.32-.88-.32-.88s.33.15.38.05a1.76,1.76,0,0,1-.28-.77.36.36,0,0,0,.31,0,.92.92,0,0,1-.3-.36s.2,0,.26,0,.06-.31.15-1a2.75,2.75,0,0,0,.3,1s0,.07-.15.15c0,.25.4.57.4.57a3.68,3.68,0,0,1-.34.29.53.53,0,0,0,.42.36,1.14,1.14,0,0,1-.28.38,1.13,1.13,0,0,0,.41-.14s-.22.34-.37.53a1.2,1.2,0,0,0,.42-.15.72.72,0,0,0,.21-.33c-.1-.06-.11-.11-.11-.11A2,2,0,0,0,25,12c.07.5.06.69.11.72s.19,0,.19,0a.71.71,0,0,1-.22.26.29.29,0,0,0,.23,0,1.31,1.31,0,0,1-.21.55c0,.08.28,0,.28,0s-.1.53-.24.64c0,.11.37.18.37.18a.85.85,0,0,1-.29.2c0,.08.29,0,.29,0a1.35,1.35,0,0,1-.25.26c0,.1.37-.09.37-.09a.92.92,0,0,1-.43.4c0,.06.25.13.33.15l0-.06s.23,0,.23,0a.49.49,0,0,1-.23-.15s.27-.05.28-.13-.18-.46-.18-.46.19.08.22,0a.8.8,0,0,1-.16-.4.25.25,0,0,0,.18,0,.51.51,0,0,1-.18-.19.41.41,0,0,0,.15,0s0-.16.09-.53a1.35,1.35,0,0,0,.17.53s0,0-.09.09.23.3.23.3a1.36,1.36,0,0,1-.19.15.28.28,0,0,0,.23.19.48.48,0,0,1-.15.2.54.54,0,0,0,.23-.07,3.12,3.12,0,0,1-.21.28,1,1,0,0,0,.26-.08l-.24.38a.92.92,0,0,0,.31,0l0,0c.06,0,.14,0,.13,0a.68.68,0,0,1-.2-.15s.24,0,.25-.11a1.25,1.25,0,0,1-.16-.44s.17.08.2,0a.81.81,0,0,1-.15-.38.21.21,0,0,0,.16,0,.5.5,0,0,1-.15-.18.31.31,0,0,0,.13,0,2,2,0,0,0,.08-.49,1.42,1.42,0,0,0,.14.5s0,0-.07.07.2.29.2.29a1.41,1.41,0,0,1-.17.14.26.26,0,0,0,.21.18.61.61,0,0,1-.14.19.56.56,0,0,0,.2-.07s-.11.18-.18.27a.79.79,0,0,0,.22-.08s-.1.17-.2.36a.72.72,0,0,0,.27,0s0,.08-.29.35a1.28,1.28,0,0,0,.33,0A1.23,1.23,0,0,1,27,16a.46.46,0,0,0,.2,0l0-.06a.75.75,0,0,0,.16.05l-.13-.15.14,0a.44.44,0,0,1-.1-.11.17.17,0,0,0,.15-.1l-.12-.08s.13-.08.14-.15-.05,0-.05,0a.57.57,0,0,0,.1-.27c0,.19,0,.26,0,.27h.1a.28.28,0,0,1-.11.09.15.15,0,0,0,.11,0,.4.4,0,0,1-.1.21s.14,0,.14,0-.05.2-.12.24.18.07.18.07a.45.45,0,0,1-.14.08s.14,0,.14,0a.46.46,0,0,1-.12.1s.18,0,.18,0a.4.4,0,0,1-.21.15s.17.06.17.06h0s.12,0,.11,0a.55.55,0,0,1-.1-.08s.12,0,.12,0a.59.59,0,0,1-.12-.06s.14,0,.15-.05-.1-.19-.1-.19.1,0,.12,0a.28.28,0,0,1-.09-.16.13.13,0,0,0,.1,0,.27.27,0,0,1-.09-.07h.08s0-.06,0-.2a.45.45,0,0,0,.09.21l0,0s.12.12.12.12L28,16a.16.16,0,0,0,.13.07.45.45,0,0,1-.08.08.31.31,0,0,0,.12,0l-.11.11.12,0c0-.4.05-.8.05-1.2a13.2,13.2,0,0,0-.93-4.88,10.57,10.57,0,0,1-3.16-1.31,14.05,14.05,0,0,0-2.65-1.23.4.4,0,0,0-.23.09,4.37,4.37,0,0,1-.95,0c-.42,0-.9.8-1.08.81s-.74,1.09-.74,1.09S18,8.75,17.75,8.3s-1-.49-1.11-.61a6.74,6.74,0,0,1-.77-1.11A3.79,3.79,0,0,0,15,5.67c-.37-.35-.39-.16-.74-.36a1.52,1.52,0,0,1-.53-.76s-1.16.29-1.31.29-.27-.2-.27-.2-.66,1-.93,1.55-.41,1.17-.53,1.46-.34.13-.48.19a8.43,8.43,0,0,0-.71.6c-.15.12-.85,0-1,0s-.25.23-.43.24-.45-.24-.45-.24a2.92,2.92,0,0,1-.12.4,4,4,0,0,1-2.21.68A9.8,9.8,0,0,1,3.1,9.25a13.12,13.12,0,0,0-1.31,5.53A.28.28,0,0,0,2,14.6Z" fill="#212121"/><path d="M28.13,16.46a.13.13,0,0,1,0-.06l-.1.07Z" fill="#212121"/><path d="M27.26,16.42l0,0v0Z" fill="#212121"/><path d="M10.59,15.79a.32.32,0,0,0,.14,0l0-.05a.6.6,0,0,0,.21,0l-.12-.21A1.26,1.26,0,0,1,10.59,15.79Z" fill="#212121"/><path d="M25.71,15.42a.5.5,0,0,1-.14-.12l-.07.09C25.59,15.42,25.72,15.47,25.71,15.42Z" fill="#212121"/><path d="M28.08,16.56h0v0Z" fill="#212121"/><path d="M25.69,15.93l0,0,0,.07C25.66,16,25.7,16,25.69,15.93Z" fill="#212121"/><path d="M25.51,15.75c.07,0,.24-.07.24-.11l-.09-.05A.6.6,0,0,1,25.51,15.75Z" fill="#212121"/><path d="M25.65,15.59a.83.83,0,0,1-.19-.17.57.57,0,0,1-.16.11C25.28,15.64,25.6,15.6,25.65,15.59Z" fill="#212121"/><path d="M25.63,15.89a.36.36,0,0,1-.14-.13.54.54,0,0,1-.2.1C25.29,15.91,25.53,15.9,25.63,15.89Z" fill="#212121"/><path d="M25.37,16.17l0,0a.14.14,0,0,0,.09,0l0,0h.17l.11,0a.51.51,0,0,1-.18-.09A.71.71,0,0,1,25.37,16.17Z" fill="#212121"/><path d="M25.66,16.4l-.06,0-.06.05C25.6,16.43,25.66,16.43,25.66,16.4Z" fill="#212121"/><path d="M25.37,16.53s.07,0,.15,0l-.1-.08Z" fill="#212121"/><path d="M24.64,13.88a.64.64,0,0,1-.07-.12.37.37,0,0,0,.3-.26l-.21-.18c-.07.14-.2.36-.33.59A1.05,1.05,0,0,0,24.64,13.88Z" fill="#212121"/><path d="M22.82,16.13l0-.05-.05.05Z" fill="#212121"/><path d="M23.43,16.36l-.22-.14-.13.06s.19.06.19.06a.49.49,0,0,1-.11.08C23.29,16.44,23.41,16.43,23.43,16.36Z" fill="#212121"/><path d="M22.78,16.42l-.09-.06a.41.41,0,0,1-.11.07A.72.72,0,0,0,22.78,16.42Z" fill="#212121"/><path d="M22.77,16.3h.06l0,0Z" fill="#212121"/><path d="M23.16,16.17l0,0,0,0Z" fill="#212121"/><path d="M23.47,15.89a.82.82,0,0,1-.29-.22,1,1,0,0,1-.09.22C23.26,15.94,23.46,16,23.47,15.89Z" fill="#212121"/><path d="M22.74,16.58h0Z" fill="#212121"/><path d="M22.77,16.25l-.11-.08a.54.54,0,0,1-.17.07A.75.75,0,0,0,22.77,16.25Z" fill="#212121"/><path d="M18,16.21H18l-.05,0Z" fill="#212121"/><path d="M22.66,16.71s-.05,0-.06-.05l0,0S22.61,16.71,22.66,16.71Z" fill="#212121"/><path d="M22.59,16.47l0,0h0S22.56,16.47,22.59,16.47Z" fill="#212121"/><path d="M23.23,16.69l-.05,0,0,0Z" fill="#212121"/><path d="M23.18,15.67l-.08-.08a.2.2,0,0,1-.07.09S23.16,15.68,23.18,15.67Z" fill="#212121"/><path d="M27.72,16.82l-.06,0-.05,0S27.67,16.83,27.72,16.82Z" fill="#212121"/><path d="M27.79,16.75l-.05,0,0,0C27.75,16.76,27.79,16.77,27.79,16.75Z" fill="#212121"/><path d="M27.67,16.9h0s0,0,0,0Z" fill="#212121"/><path d="M27.75,16.45l-.05.05s.14,0,.14-.05a.56.56,0,0,1-.16-.08.23.23,0,0,1-.11.06C27.56,16.48,27.75,16.45,27.75,16.45Z" fill="#212121"/><path d="M27.68,16.69l0,0h.15l-.11,0-.11.06Z" fill="#212121"/><path d="M27.78,16.85Z" fill="#212121"/><path d="M27.75,16.57l0,0s.08,0,.08,0a.75.75,0,0,1-.12-.07.34.34,0,0,1-.12.06S27.75,16.57,27.75,16.57Z" fill="#212121"/><path d="M21.88,16.28a.35.35,0,0,1-.12-.07l-.17.12A.68.68,0,0,0,21.88,16.28Z" fill="#212121"/><path d="M22,15.21l-.11-.11-.06.07A.53.53,0,0,0,22,15.21Z" fill="#212121"/><path d="M22,15.78l-.2-.15a.53.53,0,0,1-.13.13A2.13,2.13,0,0,0,22,15.78Z" fill="#212121"/><path d="M21.69,15.5a.12.12,0,0,1,0-.06,1.49,1.49,0,0,0,.34.05l-.2-.27a.83.83,0,0,1-.39.23S21.56,15.5,21.69,15.5Z" fill="#212121"/><path d="M21.49,15.89c0,.07.16,0,.31,0l-.15-.12A.62.62,0,0,1,21.49,15.89Z" fill="#212121"/><path d="M22.76,16.06l-.1-.13a.89.89,0,0,0,.18.05l-.11-.11a1.13,1.13,0,0,1-.23.15C22.48,16.07,22.67,16.06,22.76,16.06Z" fill="#212121"/><path d="M21.63,16.42l-.07-.08,0,0A.09.09,0,0,0,21.63,16.42Z" fill="#212121"/><path d="M27.13,16.52l0,0a.61.61,0,0,0,.13,0Z" fill="#212121"/><path d="M5.37,16.75h0S5.37,16.76,5.37,16.75Z" fill="#212121"/><path d="M5.82,16.44l-.07-.05-.08.06C5.75,16.46,5.82,16.47,5.82,16.44Z" fill="#212121"/><path d="M5.2,16.09a.36.36,0,0,0,.21.06A.56.56,0,0,1,5.34,16s.1,0,.12,0a.31.31,0,0,1-.07-.09A.65.65,0,0,1,5.2,16.09Z" fill="#212121"/><path d="M5.69,16.34l0,0,0,0Z" fill="#212121"/><path d="M5.8,16.67l0,0-.07,0,.07,0S5.8,16.69,5.8,16.67Z" fill="#212121"/><path d="M5.63,16.23a.5.5,0,0,0,.14,0l0,0c.07,0,.13,0,.13,0a.61.61,0,0,1-.14-.07Z" fill="#212121"/><path d="M3,14.93a.11.11,0,0,0,.1,0,.51.51,0,0,1,0,.09A1.14,1.14,0,0,0,3.5,15,2.78,2.78,0,0,1,3,14.49c0,.2,0,.28,0,.29s.09,0,.09,0A.32.32,0,0,1,3,14.93Z" fill="#212121"/><path d="M5.47,15.86l0,0v0Z" fill="#212121"/><path d="M2.73,16.11l0,0,0,0Z" fill="#212121"/><path d="M3.24,15.61h0a.67.67,0,0,0,.18-.07,1.49,1.49,0,0,1-.26-.22.49.49,0,0,1-.08.19C3.08,15.57,3.24,15.61,3.24,15.61Z" fill="#212121"/><path d="M2.38,16.16l0,0S2.38,16.18,2.38,16.16Z" fill="#212121"/><path d="M4.68,14.92l-.09-.05a.39.39,0,0,1-.1.08C4.56,15,4.68,15,4.68,14.92Z" fill="#212121"/><path d="M2.42,15.93l0,0L2.28,16v0C2.33,16,2.42,16,2.42,15.93Z" fill="#212121"/><path d="M2.41,15.59l0,0Z" fill="#212121"/><path d="M5.67,16.11l0,0,.08,0Z" fill="#212121"/><path d="M4.6,16.31h0l-.06,0S4.6,16.33,4.6,16.31Z" fill="#212121"/><path d="M2.86,15.81l0-.06-.05.06Z" fill="#212121"/><path d="M4.69,14.65a.08.08,0,0,0,0-.05.73.73,0,0,1-.14-.33,2,2,0,0,1-.3.19C4.3,14.53,4.55,14.61,4.69,14.65Z" fill="#212121"/><path d="M4.38,14c0,.06.07.05.17,0h0A.58.58,0,0,0,4.72,14a1.19,1.19,0,0,1-.08-.2A1,1,0,0,1,4.38,14Z" fill="#212121"/><path d="M4.57,15.09,4.46,15,4.4,15C4.39,15.06,4.47,15.09,4.57,15.09Z" fill="#212121"/><path d="M6.42,15.11,6.33,15l-.1.14Z" fill="#212121"/><path d="M5.39,16.48l0,0-.11-.05s0,0,0,0Z" fill="#212121"/><path d="M6.66,15.85l-.13-.1-.16.17A.87.87,0,0,0,6.66,15.85Z" fill="#212121"/><path d="M11.19,16s.18.08.18.08a.44.44,0,0,1-.14.13s0,0,.11,0l0,0s.15,0,.16-.05-.1-.18-.1-.18.1,0,.12,0a.28.28,0,0,1-.09-.16.13.13,0,0,0,.1,0,.13.13,0,0,1-.07,0A.69.69,0,0,1,11.19,16Z" fill="#212121"/><path d="M6.43,16.2l-.09.07a.42.42,0,0,0,.18,0h0Z" fill="#212121"/><path d="M5.39,16.37h0v0S5.4,16.38,5.39,16.37Z" fill="#212121"/><path d="M6.49,15.73l-.12-.12-.14.14A1.28,1.28,0,0,0,6.49,15.73Z" fill="#212121"/><polygon points="6.25 15.45 6.25 15.45 6.25 15.45 6.25 15.45" fill="#212121"/><path d="M3.25,16.11l0,0,.06,0L3.14,16l-.05,0S3.25,16.11,3.25,16.11Z" fill="#212121"/><path d="M15.18,17h0Z" fill="#212121"/><polygon points="16.51 16.98 16.53 16.98 16.52 16.98 16.51 16.98" fill="#212121"/><polygon points="14.32 16.98 14.33 16.98 14.32 16.98 14.32 16.98" fill="#212121"/><polygon points="15.62 16.98 15.64 16.98 15.63 16.98 15.62 16.98" fill="#212121"/><polygon points="10.74 16.98 10.76 16.98 10.75 16.98 10.74 16.98" fill="#212121"/><polygon points="13.31 16.98 13.31 16.98 13.31 16.98 13.31 16.98" fill="#212121"/><polygon points="13.84 16.98 13.85 16.98 13.84 16.98 13.84 16.98" fill="#212121"/><polygon points="27.14 16.98 27.15 16.98 27.14 16.98 27.14 16.98" fill="#212121"/><polygon points="8.79 16.98 8.8 16.98 8.79 16.98 8.79 16.98" fill="#212121"/><path d="M2.75,15.55a.22.22,0,0,0,.13,0,1,1,0,0,1-.09-.13Z" fill="#212121"/><polygon points="26.38 16.98 26.39 16.98 26.38 16.98 26.38 16.98" fill="#212121"/><polygon points="21.73 16.98 21.75 16.98 21.74 16.98 21.73 16.98" fill="#212121"/><polygon points="17.87 16.98 17.88 16.98 17.88 16.98 17.87 16.98" fill="#212121"/><polygon points="25.52 16.98 25.53 16.98 25.52 16.98 25.52 16.98" fill="#212121"/><path d="M27.92,17h0Z" fill="#212121"/><path d="M2.87,16.05l0-.05,0,.05Z" fill="#212121"/><path d="M2.29,15.5h0s0,0,0,0Z" fill="#212121"/><path d="M6.45,17h0Z" fill="#212121"/><path d="M2.42,15.34a.76.76,0,0,0,0-.11.48.48,0,0,1-.14.09S2.38,15.35,2.42,15.34Z" fill="#212121"/><path d="M2.8,15.68l-.06-.11-.07.13Z" fill="#212121"/><path d="M2.79,16a.33.33,0,0,1-.06-.08L2.66,16Z" fill="#212121"/><path d="M2.34,15.45c.05,0,.1,0,.11-.08l0,0Z" fill="#212121"/><path d="M1.88,15.45l-.09-.15a.61.61,0,0,0,0,.14Z" fill="#212121"/><path d="M1.89,15.75l-.08-.08v.08Z" fill="#212121"/><polygon points="1.82 15.96 1.82 15.96 1.82 15.96 1.82 15.96" fill="#212121"/><path d="M2.39,15.75l-.08-.08-.07.05S2.4,15.8,2.39,15.75Z" fill="#212121"/><path d="M1.9,15.17A.83.83,0,0,1,1.79,15v.12Z" fill="#212121"/><path d="M1.79,14.81v.13a.5.5,0,0,0,.13,0A.63.63,0,0,1,1.79,14.81Z" fill="#212121"/><path d="M6.27,15.41h.25l.21,0a2.25,2.25,0,0,1-.3-.24Z" fill="#212121"/><path d="M14.35,16.57l-.06,0-.06,0Z" fill="#212121"/><path d="M14,16.29h0l0,0S14,16.3,14,16.29Z" fill="#212121"/><path d="M14.23,16.47l0,0,0,0Z" fill="#212121"/><path d="M13.79,16.59h0s.17,0,.16,0l-.09,0-.08,0S13.78,16.59,13.79,16.59Z" fill="#212121"/><path d="M11.33,16.41l-.06,0,0,0S11.28,16.41,11.33,16.41Z" fill="#212121"/><path d="M13.09,16s.3,0,.35,0A.45.45,0,0,1,13.3,16s.17,0,.18-.07a.18.18,0,0,1-.06-.08A.75.75,0,0,1,13.09,16Z" fill="#212121"/><path d="M11.42,16.37a.2.2,0,0,1-.08,0l0,0S11.42,16.39,11.42,16.37Z" fill="#212121"/><path d="M11.38,16.76h0s0,0,0,0l-.08,0-.05,0s0,0,0,0Z" fill="#212121"/><path d="M14.24,16.18l-.06.05.09,0Z" fill="#212121"/><path d="M14.19,16.35l.18,0s0,0,0,0l.11,0a1,1,0,0,1-.15-.1Z" fill="#212121"/><path d="M13.91,16.65v0s0,0,0,0Z" fill="#212121"/><path d="M14.17,16.15h0Z" fill="#212121"/><path d="M13.92,16.75s-.05,0-.08,0l0,0,.11,0Z" fill="#212121"/><path d="M4.62,15.8h0Z" fill="#212121"/><path d="M12.5,15l0,.05h.07l-.14-.22a.59.59,0,0,1-.13.19S12.5,15,12.5,15Z" fill="#212121"/><path d="M12.27,14.74a.09.09,0,0,0,.07,0l0,0Z" fill="#212121"/><path d="M12.57,15.46l-.18-.16a.22.22,0,0,1-.07.09s.08,0,.15.07Z" fill="#212121"/><polygon points="11.65 16.23 11.65 16.23 11.65 16.23 11.65 16.23" fill="#212121"/><path d="M11.78,16.34l-.07-.05-.05.06Z" fill="#212121"/><path d="M13.9,16.49l.07,0,0,0A.09.09,0,0,1,13.9,16.49Z" fill="#212121"/><path d="M11.72,16.07s0,0-.08.08a.4.4,0,0,0,.13,0l0,0a.65.65,0,0,0,.2,0,1.17,1.17,0,0,1-.26-.18l-.07,0A.16.16,0,0,0,11.72,16.07Z" fill="#212121"/><path d="M11.72,16.56h0Z" fill="#212121"/><path d="M11.38,16.66h0s.05,0,.05,0Z" fill="#212121"/><path d="M11.25,16.56s.07,0,.14,0a.2.2,0,0,1-.08,0Z" fill="#212121"/><path d="M11.81,16.36l-.09.06a.4.4,0,0,0,.15,0Z" fill="#212121"/><path d="M11.43,16.29h0l0,0S11.43,16.3,11.43,16.29Z" fill="#212121"/><path d="M11.44,16.46l0,0,0,0Z" fill="#212121"/><path d="M11.38,16.85Z" fill="#212121"/><path d="M13.9,16.86Z" fill="#212121"/><path d="M7.83,16.43l-.07,0a.47.47,0,0,1-.09.06S7.85,16.47,7.83,16.43Z" fill="#212121"/><path d="M8.75,16.14l-.07.06a.41.41,0,0,0,.16,0Z" fill="#212121"/><path d="M8.62,15.59l.11,0,0-.06Z" fill="#212121"/><path d="M8.66,16v0l0,0Z" fill="#212121"/><path d="M7.79,16.54a1.18,1.18,0,0,1-.13-.08l-.06,0C7.61,16.54,7.69,16.55,7.79,16.54Z" fill="#212121"/><path d="M8.61,15.44h0Z" fill="#212121"/><path d="M8.26,16.72l0,0h0a0,0,0,0,0,0,0Z" fill="#212121"/><path d="M8.76,15.59l-.12.21a.56.56,0,0,0,.21,0l0,.05L9,15.76A1.2,1.2,0,0,1,8.76,15.59Z" fill="#212121"/><path d="M7.82,15.8l0-.13s.12,0,.14,0a.19.19,0,0,1-.07-.11.79.79,0,0,1-.35.2S7.69,15.81,7.82,15.8Z" fill="#212121"/><path d="M4.62,13.7a.51.51,0,0,1,0-.09.18.18,0,0,0,.18,0,.44.44,0,0,1-.15-.17,1.17,1.17,0,0,1-.31.19C4.32,13.72,4.5,13.71,4.62,13.7Z" fill="#212121"/><path d="M4.59,15.5c.06,0,.1-.05.1-.08l-.09-.06a.85.85,0,0,1-.22.09S4.48,15.5,4.59,15.5Z" fill="#212121"/><path d="M8.12,16.13h.09l0,0s.19,0,.19-.08l-.12-.07A1.29,1.29,0,0,1,8.12,16.13Z" fill="#212121"/><path d="M7.9,15.91l0,0L7.8,16S7.89,15.94,7.9,15.91Z" fill="#212121"/><path d="M7.86,16.06A.39.39,0,0,1,7.75,16a.57.57,0,0,1-.18.12s0,0,.1,0v0l0,0h.08l-.07-.07S7.86,16.09,7.86,16.06Z" fill="#212121"/><path d="M13.91,16.43a.29.29,0,0,1-.1-.06l-.07.05Z" fill="#212121"/><path d="M13.42,16.43h0l0,0S13.42,16.44,13.42,16.43Z" fill="#212121"/><path d="M13.45,16.28a.37.37,0,0,1-.14-.08.71.71,0,0,1-.17.11c0,.05.17,0,.3,0Z" fill="#212121"/><path d="M13.44,16.06Z" fill="#212121"/><path d="M13.25,16.57s.18,0,.18,0a.23.23,0,0,1-.11,0l-.15.09s.07,0,.15,0A.36.36,0,0,1,13.25,16.57Z" fill="#212121"/><path d="M13.39,16.81l-.05,0h0s0,0,0,0Z" fill="#212121"/><path d="M14,16.37l-.08-.05s0,0,0,0S14,16.39,14,16.37Z" fill="#212121"/><path d="M8.1,16l.15,0-.06-.06Z" fill="#212121"/><path d="M8.33,16.22a.18.18,0,0,1-.07,0l-.09.08C8.22,16.26,8.34,16.26,8.33,16.22Z" fill="#212121"/><path d="M8.3,16.56l0,0-.06,0C8.26,16.58,8.3,16.59,8.3,16.56Z" fill="#212121"/><path d="M8.17,16.41c.05,0,.16,0,.16,0a.12.12,0,0,1-.08,0Z" fill="#212121"/><path d="M13.43,16.17l0,0,0,0Z" fill="#212121"/><path d="M8.17,15.85l0,0-.05,0Z" fill="#212121"/><path d="M8.18,16.3s0,0,0,0l-.05,0Z" fill="#212121"/><rect width="30" height="30" fill="none"/></svg>