<svg xmlns="http://www.w3.org/2000/svg" viewBox="0 0 30 30"><path d="M2.63,24.59v1.12H2.37l-.25-.58v.58H1.84V24.59h.27l.24.6v-.6Z" fill="#212121"/><path d="M4,25.5v.21H3.26V24.59h.67v.22H3.56V25h.32v.22H3.56v.24Z" fill="#212121"/><path d="M5.05,24.59c.18,0,.25.09.25.22v.32c0,.13-.07.22-.25.22H4.83v.36h-.3V24.59Zm0,.26s0,0,0,0H4.83v.32H5s0,0,0,0Z" fill="#212121"/><path d="M6.43,25.55H6.16l0,.16h-.3l.29-1.12h.37l.29,1.12H6.46Zm0-.22-.08-.4-.09.4Z" fill="#212121"/><path d="M8,25.5v.21H7.33V24.59h.3v.91Z" fill="#212121"/><path d="M10.19,24.59v1.12h-.3v-.44H9.67v.44h-.3V24.59h.3v.46h.22v-.46Z" fill="#212121"/><path d="M11.59,24.59v.91c0,.13-.07.21-.26.21h-.26c-.18,0-.25-.08-.25-.21v-.91h.3v.87a0,0,0,0,0,0,0h.08a0,0,0,0,0,0,0v-.87Z" fill="#212121"/><path d="M13,24.59v1.12h-.26l-.25-.58v.58h-.28V24.59h.26l.25.6v-.6Z" fill="#212121"/><path d="M14.3,24.81h-.21v.9h-.31v-.9h-.21v-.22h.73Z" fill="#212121"/><path d="M15.17,24.59v1.12h-.3V24.59Z" fill="#212121"/><path d="M16.59,24.59v1.12h-.26l-.25-.58v.58H15.8V24.59h.26l.25.6v-.6Z" fill="#212121"/><path d="M17.66,25v-.15s0,0,0,0h-.07s0,0,0,0v.64s0,0,0,0h.07s0,0,0,0v-.18h-.09v-.2H18v.41c0,.13-.07.21-.25.21h-.25c-.19,0-.26-.08-.26-.21v-.69c0-.13.07-.22.26-.22h.25c.18,0,.25.09.25.22V25Z" fill="#212121"/><path d="M19.73,25.32h0v.39h-.3V24.59h.52c.18,0,.25.09.25.22v.29a.18.18,0,0,1-.15.2l.21.41h-.33Zm0-.51v.3h.12s.05,0,.05,0v-.22s0,0-.05,0Z" fill="#212121"/><path d="M21.48,25.5v.21h-.69V24.59h.67v.22H21.1V25h.31v.22H21.1v.24Z" fill="#212121"/><path d="M22.49,25.3a0,0,0,0,0,0,0h-.17c-.18,0-.24-.09-.24-.22v-.23c0-.13.07-.22.26-.22h.24c.18,0,.25.09.25.22v.13h-.3v-.09s0,0,0,0h-.05s0,0,0,0V25s0,0,0,0h.16c.19,0,.24.09.24.22v.23c0,.13-.06.21-.25.21H22.3c-.18,0-.25-.08-.25-.21v-.14h.3v.1a0,0,0,0,0,0,0h.06a0,0,0,0,0,0,0Z" fill="#212121"/><path d="M24.09,25.5v.21H23.4V24.59h.67v.22h-.36V25H24v.22h-.31v.24Z" fill="#212121"/><path d="M25,25.32h0v.39h-.31V24.59h.52c.19,0,.25.09.25.22v.29a.18.18,0,0,1-.14.2l.2.41h-.33Zm0-.51v.3h.12s0,0,0,0v-.22s0,0,0,0Z" fill="#212121"/><path d="M26.9,24.59l-.27,1.12h-.36L26,24.59h.31l.14.75.13-.75Z" fill="#212121"/><path d="M28.16,25.5v.21h-.69V24.59h.67v.22h-.37V25h.32v.22h-.32v.24Z" fill="#212121"/><path d="M0,16.54v7.52H30V16.54Zm27.76,1.8.32-.92h.19l-.3.87h.21V17.9h.18v.39h.1v.16h-.1v.24h-.18v-.24h-.42Zm-.68.23.44-.76v-.23h-.24v.23H27.1v-.28a.1.1,0,0,1,.11-.11h.38c.08,0,.11,0,.11.11v.25a.24.24,0,0,1,0,.13l-.35.61h.39v.17h-.62ZM20,18h5v.2H20ZM5,18h5v.2H5Zm-2.74-.42a.1.1,0,0,1,.11-.11h.4a.1.1,0,0,1,.11.11v1c0,.08,0,.12-.11.12h-.4c-.08,0-.11,0-.11-.12Zm-.73,1L2,17.81v-.23H1.73v.23H1.55v-.28c0-.08,0-.11.11-.11H2a.1.1,0,0,1,.11.11v.25a.24.24,0,0,1,0,.13l-.35.61h.39v.17H1.53Zm2.21,3.59c0,.39-.2.64-.76.64H2.27c-.56,0-.77-.25-.77-.64v-.41h.92V22c0,.07,0,.11.13.11H2.7c.09,0,.13,0,.13-.11v-.48c0-.08,0-.11-.13-.11H2.2c-.55,0-.71-.27-.71-.66V20.1c0-.39.21-.65.76-.65H3c.56,0,.76.26.76.65v.4H2.82v-.28c0-.08,0-.12-.13-.12H2.54c-.09,0-.13,0-.13.12v.49c0,.08,0,.12.13.12H3c.54,0,.71.24.71.64Zm2.46,0c0,.39-.21.64-.77.64H4.66c-.56,0-.77-.25-.77-.64V19.45H4.8V22c0,.07,0,.11.13.11h.22c.09,0,.13,0,.13-.11V19.45H6.2Zm2.54.64H8L7.21,21V22.8H6.38V19.45h.78l.75,1.79V19.45h.83Zm2.52-.64c0,.39-.21.64-.77.64H9V19.45h1.54c.56,0,.77.26.77.65Zm1.93.64-.11-.5h-.8l-.11.5h-.9l.86-3.35h1.11l.86,3.35Zm2.49,0-.53-1.19h-.06V22.8h-.91V19.45h1.55c.56,0,.77.26.77.65V21a.58.58,0,0,1-.45.62l.62,1.22Zm.89-4.41v-.71a.15.15,0,0,1,.07-.13l.11,0a1.08,1.08,0,0,1,.18,0h0v-.16h-.61v1.18h-.2V17.37h-.23v1.18h-.2v-.18a.71.71,0,0,1-.29,0,.14.14,0,0,1-.13-.15v-.86h-.21v.43A.14.14,0,0,1,15,18h-.28v.41s0,0,0,0h.13s0,0,0,0V18.1h.19a0,0,0,0,1,0,0c0,.1,0,.2,0,.3s-.06.13-.16.13h-.27a.15.15,0,0,1-.14-.07.17.17,0,0,1,0-.1V17.6h.2v.22h.17a0,0,0,0,0,0,0v-.32c0-.07,0-.08-.08-.08h-.54v.31h-.33c-.07,0-.08,0-.08.07v.41c0,.07,0,.08.08.08H14s.06,0,.06-.06V18h.2v.57h-.2v-.18a.67.67,0,0,1-.28,0,.15.15,0,0,1-.14-.15v-.55h-.19v.5a.28.28,0,0,1,0,.09.13.13,0,0,1-.11.11,1.22,1.22,0,0,1-.33,0,.14.14,0,0,1-.14-.15v-.55a.15.15,0,0,1,.07-.13l.08,0h1v-.15H12.68v1.18h.09a.14.14,0,0,1,.11.11.76.76,0,0,1,0,.26.13.13,0,0,1-.11.1h-.4a.25.25,0,0,1-.21-.11l-.11-.18h.21s0,0,0,0l.05.08a.14.14,0,0,0,.1.05h.2s0,0,0,0v-.11s0,0,0,0h-.16V18h-.61c0,.13,0,.26,0,.39s0,0,0,.05H12s.05,0,.05-.05v-.22s0,0,0,0h.15s0,0,0,0v.28a.13.13,0,0,1-.13.13,1.09,1.09,0,0,1-.36,0,.13.13,0,0,1-.11-.11.19.19,0,0,1,0-.08v-.73s0,0,0,0h.14s0,0,0,0v.2h.18a0,0,0,0,0,0,0,.09.09,0,0,0,0-.05v-.29h0c0-.06,0-.07-.08-.07h-.48v-.14h6.94v.15h-.13s0,0,0,0v1.15h-.17s0,0,0,0v-.85h-.18v.49a.34.34,0,0,1,0,.1c0,.06-.06.09-.12.11h0a2.81,2.81,0,0,1-.29,0,.15.15,0,0,1-.14-.15v-.54c0-.12.07-.16.17-.16h.6v-.15h-.95v.31h-.32c-.06,0-.07,0-.07.06v.6c0,.05,0,.06.06.06h.08s.05,0,.06,0v-.23h.2v.26a.16.16,0,0,1-.15.16,1.15,1.15,0,0,1-.32,0A.14.14,0,0,1,16.57,18.39Zm1.08,3.32V22.8h-.91V19.45h1.55c.56,0,.77.26.77.65v1c0,.39-.21.65-.77.65Zm3.14,1.09-.11-.5h-.8l-.11.5h-.9l.86-3.35h1.12l.86,3.35Zm2.12,0H22V20.1h-.64v-.65h2.2v.65h-.64Zm2.19,0-.1-.5h-.8l-.11.5h-.9l.86-3.35h1.11L26,22.8Zm3.37,0h-.79L26.94,21V22.8H26.1V19.45h.78l.75,1.79V19.45h.84Z" fill="#212121"/><path d="M13.15,17.68c-.07,0-.08,0-.08.07v.45s0,0,0,0h.07c.07,0,.08,0,.08-.08v-.48h-.11Z" fill="#212121"/><path d="M15.49,17.39v.81s0,0,0,0h.12s0,0,0,0a0,0,0,0,0,0,0v-.79h-.22Z" fill="#212121"/><path d="M17.58,17.68s0,0,0,0v.48s0,0,.05,0h.06c.07,0,.08,0,.08-.08v-.48Z" fill="#212121"/><path d="M12.29,17.44v.24a.21.21,0,0,1,0,.13h.22v-.44h-.2S12.29,17.41,12.29,17.44Z" fill="#212121"/><path d="M15.46,20.1h-.37V21h.37c.08,0,.13,0,.13-.11v-.66C15.59,20.14,15.54,20.1,15.46,20.1Z" fill="#212121"/><rect x="2.44" y="17.58" width="0.25" height="0.95" fill="#212121"/><polygon points="12.42 21.65 12.94 21.65 12.68 20.45 12.42 21.65" fill="#212121"/><path d="M18,20.1h-.36v.95H18c.09,0,.13,0,.13-.11v-.72C18.14,20.14,18.1,20.1,18,20.1Z" fill="#212121"/><path d="M10.21,20.05H9.86V22.2h.35c.09,0,.13,0,.13-.11V20.17C10.34,20.09,10.3,20.05,10.21,20.05Z" fill="#212121"/><polygon points="20.02 21.65 20.54 21.65 20.29 20.45 20.02 21.65" fill="#212121"/><polygon points="24.34 21.65 24.86 21.65 24.6 20.45 24.34 21.65" fill="#212121"/><path d="M25,12.05l-1.07.7L21.2,11.61,17.62,13l1.71-1L15,8.26l-5,4.32,1,.83L7.47,11.57l-2.71,2.1L5,13.21l-.75-.63L3,13.67v.46a3.81,3.81,0,0,1,.59-.32.91.91,0,0,1,.65,0,1.21,1.21,0,0,0,.44.2,16.13,16.13,0,0,0,1.67,0A12.57,12.57,0,0,0,4,14.46c-.5.24-.47.45-.25.61a2.33,2.33,0,0,0,1.11.3c.62.09,1.52.16,2.63.24s2.81.22,3.63.39a6.67,6.67,0,0,1,1.53.54h4.83s-.16-.42-2.47-.78a37.8,37.8,0,0,0-5.43-.4,37.28,37.28,0,0,1-4.08-.3c-.47-.12-.82-.34-.21-.58a8.46,8.46,0,0,1,2.63-.43,4.26,4.26,0,0,1,.5,0l.08-.22.1.23c.52.05,1,.14,1.24.18a.42.42,0,0,0,.22,0,2.31,2.31,0,0,1,.94-.16l.07-.18.08.19h.11l.08-.17.05.18.12,0,.16-.34.16.41a2.38,2.38,0,0,1,.54.22.25.25,0,0,0,.25,0,3.56,3.56,0,0,1,1.3-.41l.07-.19L14,14l.16,0,.15-.38.13.35.12,0c.06-.25.15-.57.15-.57l.13.55h.06l.2-.36.16.34.23,0,.12-.26.1.26h.19l.35-.83.3.85h.06l.16-.49.16.52h.09l.18-.42.27.49a12.12,12.12,0,0,1,2,.67,3.57,3.57,0,0,0,1.62-.16c.15,0,.46-.15.83-.28,0-.18.09-.35.09-.35l.09.29.8-.27c.05-.19.11-.39.11-.39l.09.33.13-.05.13-.52.11.45.15,0,.07-.26.07.22.26-.08,0-.19.06.16.24-.06.13-.64.11.58h.08l.18,0,.08-.41.11.38.19,0,.07-.36.15.35a1.24,1.24,0,0,1,.77.24A5.19,5.19,0,0,1,27,14v-.44Zm-17,.7a2.22,2.22,0,0,1-.78.35.46.46,0,0,0,.12-.3c0-.12-.08-.15-.24-.15a7.53,7.53,0,0,0-1.1.47L7.49,12l1.31.73A1.68,1.68,0,0,0,8,12.75Zm3.89-.25c-.09-.08,0-.14.09-.23a.15.15,0,0,0-.07-.26,2,2,0,0,0-1,.25,4,4,0,0,1,1.16-.84,1.87,1.87,0,0,1,1.21.06s-.82.28-.82.47,1.57.59,1.57.59A18,18,0,0,1,11.86,12.5Zm4.24-1.59c-.36.11-.36.31-.61.43s-.44-.09-.86,0a6.91,6.91,0,0,0-1,.44,2,2,0,0,0,.26-.31,1.38,1.38,0,0,1,.6-.67,3.23,3.23,0,0,1,1.39-.29s-.23,0-.62-.06-.43-.22-.77-.22c-.56,0-.81.6-.93.6s-.07-.21-.3-.21a2.13,2.13,0,0,0-.7.26l2.45-2,2.65,2.26A2.71,2.71,0,0,0,16.1,10.91Zm5.37,1.59a1.75,1.75,0,0,0-.67.49s.16-.32.21-.47,0-.18-.27-.18a7.19,7.19,0,0,0-.85.09L21.25,12l1.5.53A6.57,6.57,0,0,0,21.47,12.5Z" fill="#212121"/><polygon points="26.97 9.97 17.9 6.49 17.9 6.74 26.97 10.21 26.97 16.54 27.2 16.54 27.2 10.05 26.97 9.97" fill="#212121"/><polygon points="18.18 5.84 17.9 6.17 27.56 9.87 27.56 16.54 27.96 16.54 27.96 10.02 27.96 9.59 18.18 5.84" fill="#212121"/><polygon points="3.03 9.97 12.1 6.49 12.1 6.74 3.03 10.21 3.03 16.54 2.8 16.54 2.8 10.05 3.03 9.97" fill="#212121"/><polygon points="11.82 5.84 12.1 6.17 2.44 9.87 2.44 16.54 2.04 16.54 2.04 10.02 2.04 9.59 11.82 5.84" fill="#212121"/><path d="M15.36,7a3.33,3.33,0,0,1,1.51.27,17.47,17.47,0,0,1,1.42,1.35,3.2,3.2,0,0,1-1.48-.5,6.59,6.59,0,0,1-1.1-.84A2.51,2.51,0,0,0,15.36,7Z" fill="#212121"/><path d="M15.61,6.71a3.11,3.11,0,0,1,.85-.54c.29,0,.52,0,.66-.14s.2-.2.2-.3-.63-.5-.63-.5,0-.07.28-.07a.61.61,0,0,1,.54.28.48.48,0,0,0,.29.2c.07,0,.07.18-.07.32a1.63,1.63,0,0,1-.44.28.69.69,0,0,1,.25.22c.07.12.08.28.15.36a1,1,0,0,0,.16.13.62.62,0,0,1-.37.14,3.66,3.66,0,0,1-.82-.31A4.92,4.92,0,0,0,15.61,6.71Z" fill="#212121"/><path d="M16.34,5.32a1.17,1.17,0,0,0-.6.07.33.33,0,0,1,.16-.19.57.57,0,0,0,.33-.29c.08-.16.15-.34.1-.42s-.11,0-.35,0-.25-.18-.49-.18-.42.42-.49.42V6a.73.73,0,0,1,.53.3A1.26,1.26,0,0,0,15,6.15v.59a1.14,1.14,0,0,0,.71-.45A.67.67,0,0,1,16.32,6c.35,0,.56-.15.56-.25S16.58,5.4,16.34,5.32Zm-.9-.42c.1,0,.18,0,.19.14s0,.17-.18.26-.28.49-.28.49C15.19,5.28,15.29,4.9,15.44,4.9Zm.41.86a1,1,0,0,0-.55.12,1.67,1.67,0,0,1,.44-.33c.2-.08.24,0,.26.06S16,5.78,15.85,5.76Z" fill="#212121"/><path d="M14.64,7a3.33,3.33,0,0,0-1.51.27,17.47,17.47,0,0,0-1.42,1.35,3.2,3.2,0,0,0,1.48-.5,6.59,6.59,0,0,0,1.1-.84A2.51,2.51,0,0,1,14.64,7Z" fill="#212121"/><path d="M14.39,6.71a3.11,3.11,0,0,0-.85-.54c-.29,0-.52,0-.66-.14s-.2-.2-.2-.3.63-.5.63-.5,0-.07-.28-.07a.61.61,0,0,0-.54.28.48.48,0,0,1-.29.2c-.07,0-.07.18.07.32a1.63,1.63,0,0,0,.44.28.69.69,0,0,0-.25.22c-.07.12-.08.28-.15.36a1,1,0,0,1-.16.13.62.62,0,0,0,.37.14,3.66,3.66,0,0,0,.82-.31A4.92,4.92,0,0,1,14.39,6.71Z" fill="#212121"/><path d="M15,6V4.71c-.07,0-.24-.42-.49-.42s-.25.11-.49.18-.3,0-.35,0,0,.26.1.42a.57.57,0,0,0,.33.29.33.33,0,0,1,.16.19,1.17,1.17,0,0,0-.6-.07c-.24.08-.54.28-.54.39s.21.25.56.25a.67.67,0,0,1,.61.33,1.14,1.14,0,0,0,.71.45V6.15a1.26,1.26,0,0,0-.53.12A.73.73,0,0,1,15,6ZM14.56,4.9c.15,0,.25.38.27.89,0,0-.14-.4-.28-.49s-.19-.16-.18-.26S14.46,4.9,14.56,4.9Zm-.41.86c-.12,0-.16-.07-.15-.15s.06-.14.26-.06a1.67,1.67,0,0,1,.44.33A1,1,0,0,0,14.15,5.76Z" fill="#212121"/><rect width="30" height="30" fill="none"/></svg>