<!-- Copyright (c) 2022 Jan Stehno -->
<svg xmlns="http://www.w3.org/2000/svg" viewBox="0 0 300 300"><title>teawaroanationalpark</title><g id="teawaroanationalpark"><path d="M273.36,108.88V274.77a14,14,0,0,1-14,14H150V300H259.35a25.24,25.24,0,0,0,25.23-25.23V91.12l-11.22,11.22Z" transform="translate(0)" fill="#212121"/><path d="M284.58,25.23A25.24,25.24,0,0,0,259.35,0H150V11.21H259.35a14,14,0,0,1,14,14v1.13l11.22,11.21Z" transform="translate(0)" fill="#212121"/><path d="M26.64,108.88V274.77a14,14,0,0,0,14,14H150V300H40.65a25.24,25.24,0,0,1-25.23-25.23V91.12l11.22,11.22Z" transform="translate(0)" fill="#212121"/><path d="M15.42,25.23A25.24,25.24,0,0,1,40.65,0H150V11.21H40.65a14,14,0,0,0-14,14v1.13L15.42,37.57Z" transform="translate(0)" fill="#212121"/><path d="M37.75,278.6V260.28c0-.91.32-1.23,1.34-1.23h3.78a1.41,1.41,0,0,1,1.34.59l5.24,7.52a25.56,25.56,0,0,1,2.69,5.32h.25A19,19,0,0,1,51,265.11v-4.83c0-.91.32-1.23,1.35-1.23h3.26c1,0,1.34.32,1.34,1.23V278.6c0,.91-.35,1.23-1.34,1.23H51.94a1.39,1.39,0,0,1-1.31-.59l-4.92-7a19.91,19.91,0,0,1-2.81-6h-.26a26.37,26.37,0,0,1,1.06,7.55v4.77c0,.91-.35,1.23-1.38,1.23H39.09C38.07,279.83,37.75,279.51,37.75,278.6Z" transform="translate(0)"/><path d="M57.5,278.63l7.36-18.55c.32-.85.76-1,1.66-1h3.64c.9,0,1.35.21,1.67,1l7.38,18.61c.32.79,0,1.2-.93,1.2H74.83c-1.63,0-2.14-.32-2.4-1.23l-.7-2.11h-7L64,278.6c-.29.91-.74,1.23-2.31,1.23H58.37C57.38,279.83,57.18,279.42,57.5,278.63Zm11.58-10.15a17.35,17.35,0,0,1-.71-4.13h-.32a14.27,14.27,0,0,1-.6,4.09l-1.19,3.46h4Z" transform="translate(0)"/><path d="M82.08,278.6V264.15H77.32c-1,0-1.34-.3-1.34-1.23v-2.64c0-.91.32-1.23,1.34-1.23H93.15c1,0,1.34.32,1.34,1.23v2.64c0,.93-.32,1.23-1.34,1.23H88.38V278.6c0,.91-.32,1.23-1.34,1.23H83.43C82.4,279.83,82.08,279.51,82.08,278.6Z" transform="translate(0)"/><path d="M95.35,278.66V260.22c0-.87.32-1.17,1.28-1.17h3.74c1,0,1.28.3,1.28,1.17v18.44c0,.88-.32,1.17-1.28,1.17H96.63C95.67,279.83,95.35,279.54,95.35,278.66Z" transform="translate(0)"/><path d="M103.21,272.1v-5.32c0-5,3.48-8.17,9.81-8.17s9.82,3.13,9.82,8.17v5.32c0,5-3.52,8.17-9.82,8.17S103.21,277.14,103.21,272.1Zm13.3.24v-5.8c0-1.84-1.28-2.8-3.49-2.8s-3.51,1-3.51,2.8v5.8c0,1.84,1.28,2.81,3.51,2.81S116.51,274.18,116.51,272.34Z" transform="translate(0)"/><path d="M124.4,278.6V260.28c0-.91.32-1.23,1.34-1.23h3.78a1.41,1.41,0,0,1,1.34.59l5.24,7.52a25.56,25.56,0,0,1,2.69,5.32H139a19,19,0,0,1-1.44-7.37v-4.83c0-.91.32-1.23,1.35-1.23h3.26c1,0,1.34.32,1.34,1.23V278.6c0,.91-.35,1.23-1.34,1.23h-3.62a1.39,1.39,0,0,1-1.31-.59l-4.92-7a19.67,19.67,0,0,1-2.81-6h-.26a26.37,26.37,0,0,1,1.06,7.55v4.77c0,.91-.35,1.23-1.38,1.23h-3.23C124.72,279.83,124.4,279.51,124.4,278.6Z" transform="translate(0)"/><path d="M144.15,278.63l7.36-18.55c.32-.85.76-1,1.66-1h3.64c.9,0,1.34.21,1.66,1l7.39,18.61c.32.79,0,1.2-.93,1.2h-3.45c-1.63,0-2.14-.32-2.4-1.23l-.7-2.11h-7l-.73,2.11c-.29.91-.74,1.23-2.31,1.23H145C144,279.83,143.83,279.42,144.15,278.63Zm11.58-10.15a17.35,17.35,0,0,1-.71-4.13h-.32a14.69,14.69,0,0,1-.6,4.09l-1.19,3.46h4Z" transform="translate(0)"/><path d="M166.46,278.6V260.28c0-.91.32-1.23,1.35-1.23h3.61c1,0,1.34.32,1.34,1.23v14.43h7.7c1,0,1.35.29,1.35,1.23v2.66c0,.91-.35,1.23-1.35,1.23H167.81C166.78,279.83,166.46,279.51,166.46,278.6Z" transform="translate(0)"/><path d="M186.44,278.6V260.28c0-.91.32-1.23,1.34-1.23h8.83c5,0,8.24,2.67,8.24,7.32s-3.23,7.23-8.18,7.23h-3.93v5c0,.91-.32,1.23-1.34,1.23h-3.62C186.76,279.83,186.44,279.51,186.44,278.6Zm11.86-12.29a2.12,2.12,0,0,0-2.4-2.16h-3.16v4.33h3.16A2.13,2.13,0,0,0,198.3,266.31Z" transform="translate(0)"/><path d="M202.48,278.63l7.36-18.55c.32-.85.76-1,1.66-1h3.64c.9,0,1.34.21,1.66,1l7.39,18.61c.32.79,0,1.2-.93,1.2h-3.45c-1.63,0-2.14-.32-2.4-1.23l-.7-2.11h-7L209,278.6c-.29.91-.74,1.23-2.31,1.23h-3.35C202.36,279.83,202.16,279.42,202.48,278.63Zm11.58-10.15a17.35,17.35,0,0,1-.71-4.13H213a14.69,14.69,0,0,1-.6,4.09l-1.19,3.46h4Z" transform="translate(0)"/><path d="M224.79,278.6V260.28c0-.91.32-1.23,1.35-1.23h9.11c4.82,0,8,2.52,8,7.06a6.36,6.36,0,0,1-3.46,6,7.79,7.79,0,0,1,.87,1.26l2.87,5c.45.78.23,1.43-.83,1.43h-3.45c-1.69,0-2.4-.38-2.94-1.41l-2.05-4a2.35,2.35,0,0,0-2.39-1.5h-.74v5.68c0,.91-.32,1.23-1.34,1.23h-3.61C225.11,279.83,224.79,279.51,224.79,278.6Zm11.86-12.53c0-1.19-.73-1.92-2.11-1.92h-3.45V268h3.45A1.88,1.88,0,0,0,236.65,266.07Z" transform="translate(0)"/><path d="M244.77,278.6V260.28c0-.91.32-1.23,1.34-1.23h3.62c1,0,1.34.32,1.34,1.23v6.5l.45,0h.25l4.6-6.68c.61-.9.93-1.08,2.56-1.08h3.68c1,0,1.28.53.76,1.29l-5.81,8.46a7.16,7.16,0,0,1,1.95,2.28l4.22,7.32c.44.78.22,1.43-.83,1.43h-3.46c-1.69,0-2.27-.21-2.81-1.23l-2.78-5.24a2.21,2.21,0,0,0-2.21-1.49h-.57v6.73c0,.91-.32,1.23-1.34,1.23h-3.62C245.09,279.83,244.77,279.51,244.77,278.6Z" transform="translate(0)"/><path d="M41.44,247.35v-25.6H34.78c-1.43,0-1.88-.52-1.88-2.17v-4.67c0-1.6.45-2.17,1.88-2.17H56.93c1.43,0,1.88.57,1.88,2.17v4.67c0,1.65-.45,2.17-1.88,2.17H50.26v25.6c0,1.61-.45,2.18-1.88,2.18H43.32C41.89,249.53,41.44,249,41.44,247.35Z" transform="translate(0)"/><path d="M60,247.35V214.91c0-1.6.45-2.17,1.88-2.17H80.64c1.44,0,1.93.57,1.93,2.17v4.67c0,1.65-.49,2.17-1.93,2.17H68.83v4.67h9.44c1.43,0,1.93.57,1.93,2.22v4.62c0,1.65-.5,2.22-1.93,2.22H68.83v5H81.05c1.38,0,1.88.52,1.88,2.18v4.71c0,1.61-.5,2.18-1.88,2.18H61.89C60.46,249.53,60,249,60,247.35Z" transform="translate(0)"/><path d="M87.85,247.4l10.29-32.85c.45-1.5,1.07-1.81,2.33-1.81h5.1a2.07,2.07,0,0,1,2.33,1.71l10.33,33c.45,1.4,0,2.13-1.3,2.13H112.1c-2.28,0-3-.57-3.35-2.18l-1-3.73H98l-1,3.73c-.41,1.61-1,2.18-3.23,2.18H89.06C87.67,249.53,87.4,248.8,87.85,247.4Zm16.2-18a37.47,37.47,0,0,1-1-7.3h-.44a32.46,32.46,0,0,1-.85,7.25l-1.66,6.11h5.59Z" transform="translate(0)"/><path d="M121.86,247.82l-7.07-33c-.32-1.45-.18-2.12,1.2-2.12h5.51c1.56,0,2.24.31,2.51,1.91l2,13.58c.36,2.75.63,7.72.63,9.17h.31a67.88,67.88,0,0,1,.85-9.17l2.78-13.58c.31-1.65,1.07-1.91,2.5-1.91h4.79c1.43,0,2.24.31,2.51,1.91l2.77,13.58a76.59,76.59,0,0,1,.85,9.17h.36c.05-1.45.31-6.32.67-9.17l1.88-13.58c.27-1.6.94-1.91,2.55-1.91h5c1.39,0,1.52.67,1.21,2.12l-7.12,32.85c-.36,1.51-1,1.82-2.28,1.82H141c-1.29,0-2.05-.37-2.32-1.71l-2.42-12.13a58.49,58.49,0,0,1-.85-9.33H135a58.65,58.65,0,0,1-1,9.33l-2.42,12c-.31,1.51-1.07,1.82-2.32,1.82h-5.11C122.89,249.53,122.13,249.22,121.86,247.82Z" transform="translate(0)"/><path d="M152.15,247.4l10.29-32.85c.45-1.5,1.08-1.81,2.33-1.81h5.1a2.07,2.07,0,0,1,2.33,1.71l10.34,33c.44,1.4,0,2.13-1.3,2.13H176.4c-2.28,0-3-.57-3.35-2.18l-1-3.73h-9.75l-1,3.73c-.4,1.61-1,2.18-3.22,2.18h-4.7C152,249.53,151.7,248.8,152.15,247.4Zm16.2-18a37.47,37.47,0,0,1-1-7.3h-.44a32.46,32.46,0,0,1-.85,7.25l-1.66,6.11H170Z" transform="translate(0)"/><path d="M183.38,247.35V214.91c0-1.6.45-2.17,1.88-2.17H198c6.75,0,11.14,4.45,11.14,12.48,0,5-1.79,8.71-4.83,10.68a13.8,13.8,0,0,1,1.2,2.23l4,8.86c.63,1.4.32,2.54-1.16,2.54h-4.83c-2.38,0-3.36-.68-4.12-2.49l-2.87-7.1c-.76-1.76-1.52-2.64-3.35-2.64h-1v10c0,1.61-.45,2.18-1.88,2.18h-5.06C183.83,249.53,183.38,249,183.38,247.35ZM200,225.17c0-2.12-1-3.42-3-3.42H192.2v6.89H197C198.91,228.64,200,227.3,200,225.17Z" transform="translate(0)"/><path d="M210.59,235.85v-9.43c0-8.92,4.88-14.46,13.74-14.46s13.74,5.54,13.74,14.46v9.43c0,8.91-4.93,14.45-13.74,14.45S210.59,244.76,210.59,235.85Zm18.62.41V226c0-3.26-1.79-5-4.88-5s-4.92,1.71-4.92,5v10.26c0,3.27,1.79,5,4.92,5S229.21,239.53,229.21,236.26Z" transform="translate(0)"/><path d="M237.17,247.4l10.29-32.85c.45-1.5,1.08-1.81,2.33-1.81h5.1a2.07,2.07,0,0,1,2.33,1.71l10.34,33c.44,1.4,0,2.13-1.3,2.13h-4.84c-2.28,0-3-.57-3.35-2.18l-1-3.73h-9.75l-1,3.73c-.4,1.61-1,2.18-3.22,2.18h-4.7C237,249.53,236.72,248.8,237.17,247.4Zm16.2-18a37.47,37.47,0,0,1-1-7.3h-.44a32.46,32.46,0,0,1-.85,7.25l-1.66,6.11H255Z" transform="translate(0)"/><g id="stars"><polygon points="185.27 47.9 179.28 47.9 177.29 42.25 175.3 47.9 169.31 47.9 174.07 51.68 172.22 57.38 177.29 54.02 182.36 57.38 180.51 51.68 185.27 47.9" fill="#212121"/><polygon points="159.47 25.47 153.49 25.47 151.5 19.82 149.5 25.47 143.52 25.47 148.27 29.25 146.42 34.95 151.5 31.59 156.57 34.95 154.72 29.25 159.47 25.47" fill="#212121"/><polygon points="129.19 55.75 123.21 55.75 121.22 50.1 119.22 55.75 113.24 55.75 117.99 59.53 116.14 65.23 121.22 61.87 126.29 65.23 124.44 59.53 129.19 55.75" fill="#212121"/><polygon points="160.47 103 152.61 103 150 95.59 147.39 103 139.53 103 145.77 107.97 143.35 115.44 150 111.04 156.65 115.44 154.23 107.97 160.47 103" fill="#212121"/></g><path id="leaf" d="M202.85,189.32l2.66,3.09,13.32-10s1.12,1.83,7.5,2.11a21.22,21.22,0,0,0,10.59-2.11,57.87,57.87,0,0,1-8.35-1.12c-4.13-.91-5.67-2.52-5.67-2.52a33.59,33.59,0,0,0,8.9,1,13.13,13.13,0,0,0,7-2.24,40.16,40.16,0,0,1-7.71-.91,28.36,28.36,0,0,1-5.12-1.76s7,.63,10.45,0a12.3,12.3,0,0,0,5-1.89,65.09,65.09,0,0,1-7.36-.91,11.18,11.18,0,0,1-4.41-1.75s5.25.84,8.27.14a10.32,10.32,0,0,0,4.55-2.18,28.6,28.6,0,0,1-5.79-.16,8.57,8.57,0,0,1-4-1.82,25.91,25.91,0,0,0,6.4.19,11,11,0,0,0,5.28-2.25s-5.32.38-6.87,0a4.85,4.85,0,0,1-2.38-1.5,15.79,15.79,0,0,0,5.56,0,14.12,14.12,0,0,0,4.25-1.69,20.06,20.06,0,0,1-4.95-.14,6.92,6.92,0,0,1-2.57-1.16,23.1,23.1,0,0,0,5.47-.28,7.6,7.6,0,0,0,3.22-1.27,28.15,28.15,0,0,1-5.19-.42,4.48,4.48,0,0,1-2-1.12,20.13,20.13,0,0,0,5.47.24,6.8,6.8,0,0,0,3.41-1.83,22.86,22.86,0,0,1-4.3.14,6.46,6.46,0,0,1-2.43-.6s3.37-.28,5.33-.56,2.05-1.13,2.05-1.13l-4.62-.93,6.45-1.26-4.44-.56,5.75-1.31-3.42-.66,4.49-1-2.62-.7,3.68-1-2.06-1,3.15-.52-1-.88,3.16-3-4.87,2.14-.8-1.57-.72,2.67-.87-2.48-.77,3.83-.93-2-.66,3.32-1.28-3.13-1,4.53-1.31-3.29-.7,5.39-1.47-4.86-.82,5.94-1.38-5.45a9.76,9.76,0,0,0-1,4.73,32,32,0,0,0,.54,3.92,2.85,2.85,0,0,1-1.64-2.24,35.93,35.93,0,0,1-.61-4.07s-1.21,3-.84,5.14.8,4.07.8,4.07a5.07,5.07,0,0,1-1.92-2.53c-.65-1.77-1.31-4-1.31-4a11.35,11.35,0,0,0,0,5.47,16.9,16.9,0,0,0,1.36,3.37,3.75,3.75,0,0,1-2.43-2.29,40,40,0,0,1-1.73-4.44,15.92,15.92,0,0,0,0,6.3,20.78,20.78,0,0,0,1.68,4.4s-1.73-.33-3-3.46a27.38,27.38,0,0,1-1.68-5.23s-1.07,5.56,0,8.36,1.82,4.49,1.82,4.49a10.66,10.66,0,0,1-3.41-4.16,40.27,40.27,0,0,1-1.91-5.33s-1.27,4.67-.1,7.8,2.43,5.84,2.43,5.84A13,13,0,0,1,222.8,167a43.17,43.17,0,0,1-2.61-6.73s-1.12,6,.14,9.21,2.29,4.06,2.29,4.06-1.83-.7-3.74-4a52.58,52.58,0,0,1-2.9-5.6,16.83,16.83,0,0,0,.05,8.87,30.79,30.79,0,0,0,2.29,5.8Z" transform="translate(0)" fill="#212121"/><path id="leaf-2" data-name="leaf" d="M97.15,189.32l-2.66,3.09-13.32-10s-1.12,1.83-7.5,2.11a21.22,21.22,0,0,1-10.59-2.11,57.87,57.87,0,0,0,8.35-1.12c4.13-.91,5.67-2.52,5.67-2.52a33.59,33.59,0,0,1-8.9,1,13.13,13.13,0,0,1-7-2.24,40.16,40.16,0,0,0,7.71-.91A28.36,28.36,0,0,0,74,174.88s-7,.63-10.45,0a12.3,12.3,0,0,1-5-1.89,65.09,65.09,0,0,0,7.36-.91,11.18,11.18,0,0,0,4.41-1.75s-5.25.84-8.27.14a10.32,10.32,0,0,1-4.55-2.18,28.6,28.6,0,0,0,5.79-.16,8.57,8.57,0,0,0,4-1.82,25.91,25.91,0,0,1-6.4.19,11,11,0,0,1-5.28-2.25s5.32.38,6.87,0a4.85,4.85,0,0,0,2.38-1.5,15.79,15.79,0,0,1-5.56,0,14.12,14.12,0,0,1-4.25-1.69,20.06,20.06,0,0,0,5-.14,6.92,6.92,0,0,0,2.57-1.16,23.1,23.1,0,0,1-5.47-.28,7.6,7.6,0,0,1-3.22-1.27,28.15,28.15,0,0,0,5.19-.42,4.48,4.48,0,0,0,2-1.12,20.13,20.13,0,0,1-5.47.24,6.8,6.8,0,0,1-3.41-1.83,22.86,22.86,0,0,0,4.3.14,6.46,6.46,0,0,0,2.43-.6s-3.37-.28-5.33-.56-2-1.13-2-1.13l4.62-.93-6.45-1.26,4.44-.56-5.75-1.31,3.42-.66-4.49-1,2.62-.7-3.68-1,2.06-1-3.15-.52,1-.88-3.16-3,4.87,2.14.8-1.57.72,2.67.87-2.48.77,3.83.93-2,.66,3.32,1.28-3.13,1,4.53,1.31-3.29.7,5.39,1.47-4.86.82,5.94,1.38-5.45a9.76,9.76,0,0,1,1,4.73,32,32,0,0,1-.54,3.92,2.85,2.85,0,0,0,1.64-2.24,35.93,35.93,0,0,0,.61-4.07s1.21,3,.84,5.14-.8,4.07-.8,4.07a5.07,5.07,0,0,0,1.92-2.53c.65-1.77,1.31-4,1.31-4a11.35,11.35,0,0,1,0,5.47,16.9,16.9,0,0,1-1.36,3.37,3.75,3.75,0,0,0,2.43-2.29,40,40,0,0,0,1.73-4.44,15.92,15.92,0,0,1,0,6.3,20.78,20.78,0,0,1-1.68,4.4s1.73-.33,3-3.46a27.38,27.38,0,0,0,1.68-5.23s1.07,5.56,0,8.36-1.82,4.49-1.82,4.49a10.66,10.66,0,0,0,3.41-4.16,40.27,40.27,0,0,0,1.91-5.33s1.27,4.67.1,7.8-2.43,5.84-2.43,5.84A13,13,0,0,0,77.2,167a43.17,43.17,0,0,0,2.61-6.73s1.12,6-.14,9.21-2.29,4.06-2.29,4.06,1.83-.7,3.74-4a52.58,52.58,0,0,0,2.9-5.6,16.83,16.83,0,0,1,0,8.87,30.79,30.79,0,0,1-2.29,5.8Z" transform="translate(0)" fill="#212121"/><g id="deer"><path d="M157.89,141.1a27.66,27.66,0,0,0,7.39,7.11c4.21,2.49,6.66,3.61,9.25,3.09s1.9-1.3,3.33-3.79,12-8.21,22.14-9.66,31.8-5.23,46.73-17.5S273.08,85.93,276,77.8s11.35-21.3,13.46-24.53-1.27-.28-4.91.28S280.09,43,277,38.41s-6.87-11.91-4.91-2.24,2.81,24.11-.56,28.6-8.13,4.48-11.91-5.75-6.87-18.23-11.08-22.29-5.47-2.1-1.4,5.05,3.64,12.89,6.31,19.2.42,9.81-2.39,6.17-5.18-5.61-4.06-2.52-1.4,1.4-6.87-4.35-11.78-16.68-11.5-11.92,7.86,17.11,16.69,23.56S258.5,83,253.74,92.38,244.21,112,227.66,118.6s-23.08,12.52-23.08,12.52,10.84-8.13,12.9-13.92,2-13.56,1.59-17.48-1.22-2.15-3.56,7-5.14,16.54-14.67,19.81-15.51,2.62-18.22,4.39-6.73,5.14-6.73,5.14,9-10.09,12.33-20.28,5.89-18.5,5.8-30c-.06-6.82-1.71-4.46-3.27,6.45-.84,5.89-8.13,27-15.14,34.21s-8,10.93-12.06,12.34A40.77,40.77,0,0,0,157.89,141.1Z" transform="translate(0)" fill="#212121"/><path d="M175.86,169.28s-2.73-2.11-4.06-7.43.07-8.06.07-8.06a42,42,0,0,1-9.53-5.19,20.89,20.89,0,0,1-5.82-7,21.16,21.16,0,0,0-2,1.68c-1.41,1.26-4.49,1.26-4.49,1.26v32.95a15.69,15.69,0,0,1,10.93,4.39,13.06,13.06,0,0,1,3.65,10.47,19.5,19.5,0,0,0,4-5.7c2-3.93,1.12-9.35,1.12-9.35a25.56,25.56,0,0,0,3.27-2.9A12.18,12.18,0,0,0,175.86,169.28Zm-6.79,4.27a6.31,6.31,0,0,1-2.88-1c-.56-.35-2,.35-2,.35s1.68-2.73,3.36-2.73,2.74.37,2.74,1.82C170.33,173,170.12,173.55,169.07,173.55Z" transform="translate(0)" fill="#212121"/><path d="M150,185.09a5.28,5.28,0,0,0,4.21-2.19c1.82-2.55,2.57-3,4.2-.89a9.35,9.35,0,0,1,1.89,4.33s-.91-1.48-2.12-1.57-3.23,1.82-2.85,3.27a2.69,2.69,0,0,0,2.89,1.82,6.63,6.63,0,0,0,1.91-.26,10,10,0,0,1-4.8,4,13.06,13.06,0,0,1-5.33.89Z" transform="translate(0)" fill="#212121"/><path d="M150,196.45s6.36-.09,7.94,1.21,1.41,5,.24,6a7.84,7.84,0,0,1-4.44,1.82H150Z" transform="translate(0)" fill="#212121"/><path d="M173.78,153.55s-1.16,5.52.24,8.79a28.29,28.29,0,0,0,3.46,5.84s10.56-.94,16.4-4.54,12.57-10.7,14.44-16,7.43-9.95-3.32-5.74-8.46.56-16.64,4.62-9.11,5.33-11.12,6.08A17.81,17.81,0,0,1,173.78,153.55Z" transform="translate(0)" fill="#212121"/><path d="M142.11,141.1a27.66,27.66,0,0,1-7.39,7.11c-4.21,2.49-6.66,3.61-9.25,3.09s-1.9-1.3-3.33-3.79-12-8.21-22.14-9.66-31.8-5.23-46.73-17.5S26.92,85.93,24,77.8,12.62,56.5,10.51,53.27s1.27-.28,4.91.28S19.91,43,23,38.41s6.87-11.91,4.91-2.24-2.81,24.11.56,28.6S36.59,69.25,40.37,59s6.87-18.23,11.08-22.29,5.47-2.1,1.4,5.05S49.21,54.67,46.54,61s-.42,9.81,2.39,6.17,5.18-5.61,4.06-2.52,1.4,1.4,6.87-4.35S71.64,43.6,71.36,48.36,63.5,65.47,54.67,71.92,41.5,83,46.26,92.38,55.79,112,72.34,118.6s23.08,12.52,23.08,12.52S84.58,123,82.52,117.2s-2-13.56-1.59-17.48,1.22-2.15,3.56,7,5.14,16.54,14.67,19.81,15.51,2.62,18.22,4.39,6.73,5.14,6.73,5.14-9-10.09-12.33-20.28-5.89-18.5-5.8-30c.06-6.82,1.71-4.46,3.27,6.45.84,5.89,8.13,27,15.14,34.21s8,10.93,12.06,12.34A40.77,40.77,0,0,1,142.11,141.1Z" transform="translate(0)" fill="#212121"/><path d="M145.51,143.27a21.16,21.16,0,0,0-2-1.68,20.89,20.89,0,0,1-5.82,7,42,42,0,0,1-9.53,5.19s1.4,2.73.07,8.06-4.06,7.43-4.06,7.43a12.18,12.18,0,0,0,2.87,5.11,25.56,25.56,0,0,0,3.27,2.9s-.84,5.42,1.12,9.35a19.5,19.5,0,0,0,4,5.7,13.06,13.06,0,0,1,3.65-10.47A15.69,15.69,0,0,1,150,177.48V144.53S146.92,144.53,145.51,143.27Zm-11.7,29.3a6.31,6.31,0,0,1-2.88,1c-1.05,0-1.26-.56-1.26-1.54,0-1.45,1.05-1.82,2.74-1.82s3.36,2.73,3.36,2.73S134.37,172.22,133.81,172.57Z" transform="translate(0)" fill="#212121"/><path d="M150,185.09a5.28,5.28,0,0,1-4.21-2.19c-1.82-2.55-2.57-3-4.2-.89a9.35,9.35,0,0,0-1.89,4.33s.91-1.48,2.12-1.57,3.23,1.82,2.85,3.27a2.69,2.69,0,0,1-2.89,1.82,6.63,6.63,0,0,1-1.91-.26,10,10,0,0,0,4.8,4,13.06,13.06,0,0,0,5.33.89Z" transform="translate(0)" fill="#212121"/><path d="M150,196.45s-6.36-.09-7.94,1.21-1.41,5-.24,6a7.84,7.84,0,0,0,4.44,1.82H150Z" transform="translate(0)" fill="#212121"/><path d="M126.22,153.55s1.16,5.52-.24,8.79a28.29,28.29,0,0,1-3.46,5.84s-10.56-.94-16.4-4.54-12.57-10.7-14.44-16-7.43-9.95,3.32-5.74,8.46.56,16.64,4.62,9.11,5.33,11.12,6.08A17.81,17.81,0,0,0,126.22,153.55Z" transform="translate(0)" fill="#212121"/></g></g><g id="frame"><rect width="300" height="300" fill="none"/></g></svg>