<svg xmlns="http://www.w3.org/2000/svg" viewBox="0 0 30 30"><path d="M27.34,10.89V27.48a1.41,1.41,0,0,1-1.41,1.4H15V30H25.93a2.52,2.52,0,0,0,2.53-2.52V9.11l-1.12,1.12Z" transform="translate(0)" fill="#212121"/><path d="M28.46,2.52A2.52,2.52,0,0,0,25.93,0H15V1.12H25.93a1.41,1.41,0,0,1,1.41,1.4v.12l1.12,1.12Z" transform="translate(0)" fill="#212121"/><path d="M2.66,10.89V27.48a1.41,1.41,0,0,0,1.41,1.4H15V30H4.07a2.52,2.52,0,0,1-2.53-2.52V9.11l1.12,1.12Z" transform="translate(0)" fill="#212121"/><path d="M1.54,2.52A2.52,2.52,0,0,1,4.07,0H15V1.12H4.07a1.41,1.41,0,0,0-1.41,1.4v.12L1.54,3.76Z" transform="translate(0)" fill="#212121"/><path d="M3.78,27.86V26c0-.09,0-.12.13-.12h.38c.07,0,.1,0,.13.05l.53.76a2.37,2.37,0,0,1,.26.53h0a1.94,1.94,0,0,1-.14-.74V26c0-.09,0-.12.13-.12h.33c.09,0,.13,0,.13.12v1.83c0,.09,0,.12-.13.12H5.19a.13.13,0,0,1-.13-.06l-.49-.69a2.08,2.08,0,0,1-.28-.6h0a2.51,2.51,0,0,1,.11.75v.48c0,.09,0,.12-.14.12H3.91C3.81,28,3.78,28,3.78,27.86Z" transform="translate(0)" fill="#212121"/><path d="M5.75,27.86,6.49,26c0-.09.07-.1.16-.1H7c.09,0,.13,0,.16.09l.74,1.86Q8,28,7.83,28H7.48c-.16,0-.21,0-.24-.12l-.07-.21H6.48l-.08.21c0,.09-.07.12-.23.12H5.84C5.74,28,5.72,27.94,5.75,27.86Zm1.16-1a1.45,1.45,0,0,1-.07-.42h0a1.37,1.37,0,0,1-.07.41l-.11.35H7Z" transform="translate(0)" fill="#212121"/><path d="M8.21,27.86V26.41H7.73c-.1,0-.13,0-.13-.12V26c0-.09,0-.12.13-.12H9.31c.11,0,.14,0,.14.12v.26c0,.1,0,.12-.14.12H8.84v1.45c0,.09,0,.12-.14.12H8.34C8.24,28,8.21,28,8.21,27.86Z" transform="translate(0)" fill="#212121"/><path d="M9.53,27.87V26c0-.09,0-.11.13-.11H10c.09,0,.12,0,.12.11v1.85c0,.08,0,.11-.12.11H9.66C9.57,28,9.53,28,9.53,27.87Z" transform="translate(0)" fill="#212121"/><path d="M10.32,27.21v-.53c0-.51.35-.82,1-.82s1,.31,1,.82v.53c0,.5-.35.82-1,.82S10.32,27.71,10.32,27.21Zm1.33,0v-.58c0-.18-.13-.28-.35-.28s-.35.1-.35.28v.58c0,.19.13.28.35.28S11.65,27.42,11.65,27.23Z" transform="translate(0)" fill="#212121"/><path d="M12.44,27.86V26c0-.09,0-.12.13-.12H13c.07,0,.11,0,.14.05l.52.76a2.4,2.4,0,0,1,.27.53h0a1.94,1.94,0,0,1-.14-.74V26c0-.09,0-.12.13-.12h.33c.1,0,.13,0,.13.12v1.83c0,.09,0,.12-.13.12h-.36c-.07,0-.1,0-.13-.06l-.49-.69a2.09,2.09,0,0,1-.29-.6h0a2.52,2.52,0,0,1,.1.75v.48c0,.09,0,.12-.13.12h-.33C12.47,28,12.44,28,12.44,27.86Z" transform="translate(0)" fill="#212121"/><path d="M14.42,27.86,15.15,26c0-.09.08-.1.17-.1h.36c.09,0,.14,0,.17.09l.74,1.86c0,.08,0,.12-.1.12h-.34c-.17,0-.22,0-.24-.12l-.07-.21h-.7l-.07.21c0,.09-.08.12-.23.12H14.5C14.4,28,14.38,27.94,14.42,27.86Zm1.15-1a2,2,0,0,1-.07-.42h0a1.58,1.58,0,0,1-.06.41l-.12.35h.4Z" transform="translate(0)" fill="#212121"/><path d="M16.65,27.86V26c0-.09,0-.12.13-.12h.36c.1,0,.14,0,.14.12v1.44h.77c.1,0,.13,0,.13.12v.27c0,.09,0,.12-.13.12H16.78C16.68,28,16.65,28,16.65,27.86Z" transform="translate(0)" fill="#212121"/><path d="M18.64,27.86V26c0-.09,0-.12.14-.12h.88c.5,0,.83.26.83.73s-.33.72-.82.72h-.4v.5c0,.09,0,.12-.13.12h-.36C18.68,28,18.64,28,18.64,27.86Zm1.19-1.23a.22.22,0,0,0-.24-.22h-.32v.44h.32A.22.22,0,0,0,19.83,26.63Z" transform="translate(0)" fill="#212121"/><path d="M20.25,27.86,21,26c0-.09.08-.1.17-.1h.36c.09,0,.14,0,.17.09l.74,1.86q0,.12-.09.12H22c-.16,0-.21,0-.24-.12l-.07-.21H21l-.07.21c0,.09-.07.12-.23.12h-.34C20.24,28,20.22,27.94,20.25,27.86Zm1.16-1a1.45,1.45,0,0,1-.07-.42h0a1.2,1.2,0,0,1-.06.41l-.12.35h.4Z" transform="translate(0)" fill="#212121"/><path d="M22.48,27.86V26c0-.09,0-.12.13-.12h.91c.49,0,.8.25.8.7a.64.64,0,0,1-.34.6.57.57,0,0,1,.08.13l.29.5c0,.08,0,.14-.08.14h-.35c-.17,0-.24,0-.29-.14l-.21-.4a.23.23,0,0,0-.24-.15h-.07v.57c0,.09,0,.12-.14.12h-.36C22.51,28,22.48,28,22.48,27.86Zm1.19-1.25a.2.2,0,0,0-.22-.2h-.34v.39h.34C23.59,26.8,23.67,26.73,23.67,26.61Z" transform="translate(0)" fill="#212121"/><path d="M24.48,27.86V26c0-.09,0-.12.13-.12H25c.1,0,.14,0,.14.12v.65h.07l.46-.67c.06-.09.09-.1.25-.1h.37c.1,0,.13.05.08.12l-.58.85a.9.9,0,0,1,.19.23l.42.73c.05.08,0,.14-.08.14h-.35c-.17,0-.22,0-.28-.12l-.28-.52c-.05-.1-.09-.15-.22-.15h-.05v.67c0,.09,0,.12-.14.12h-.36C24.51,28,24.48,28,24.48,27.86Z" transform="translate(0)" fill="#212121"/><path d="M4.14,24.74V22.18H3.48c-.15,0-.19-.06-.19-.22v-.47c0-.16,0-.22.19-.22H5.69c.15,0,.19.06.19.22V22c0,.16,0,.22-.19.22H5v2.56c0,.16,0,.21-.19.21H4.33C4.19,25,4.14,24.9,4.14,24.74Z" transform="translate(0)" fill="#212121"/><path d="M6,24.74V21.49c0-.16,0-.22.19-.22H8.06c.15,0,.2.06.2.22V22c0,.16,0,.22-.2.22H6.88v.46h1c.14,0,.19.06.19.22v.47c0,.16,0,.22-.19.22h-1v.5H8.1c.14,0,.19.05.19.21v.48c0,.16,0,.21-.19.21H6.19C6.05,25,6,24.9,6,24.74Z" transform="translate(0)" fill="#212121"/><path d="M8.78,24.74l1-3.28c0-.16.11-.19.24-.19h.51a.21.21,0,0,1,.23.17l1,3.3c0,.14,0,.21-.13.21h-.48c-.23,0-.3-.05-.34-.21l-.09-.38h-1l-.1.38c0,.16-.11.21-.32.21H8.91C8.77,25,8.74,24.88,8.78,24.74Zm1.62-1.8a4.29,4.29,0,0,1-.09-.73h-.05a3.09,3.09,0,0,1-.08.73l-.17.61h.56Z" transform="translate(0)" fill="#212121"/><path d="M12.19,24.78l-.71-3.29c0-.15,0-.22.12-.22h.55c.16,0,.22,0,.25.2l.2,1.35c0,.28.06.78.06.92h0a5.88,5.88,0,0,1,.09-.92l.27-1.35c0-.17.11-.2.25-.2h.48c.15,0,.23,0,.25.2l.28,1.35c0,.3.08.77.09.92h0c0-.14,0-.63.07-.92l.19-1.35c0-.17.09-.2.25-.2h.5c.14,0,.15.07.12.22l-.71,3.28c0,.15-.1.18-.23.18H14.1c-.13,0-.21,0-.24-.17l-.24-1.21a5.16,5.16,0,0,1-.08-.93h0a5.27,5.27,0,0,1-.1.93l-.24,1.2a.2.2,0,0,1-.23.18h-.51C12.29,25,12.21,24.92,12.19,24.78Z" transform="translate(0)" fill="#212121"/><path d="M15.21,24.74l1-3.28c.05-.16.11-.19.24-.19H17a.21.21,0,0,1,.23.17l1,3.3c.05.14,0,.21-.13.21h-.48c-.23,0-.3-.05-.34-.21l-.09-.38h-1l-.1.38c0,.16-.11.21-.32.21h-.47C15.2,25,15.17,24.88,15.21,24.74Zm1.62-1.8a4.29,4.29,0,0,1-.09-.73h0a3.09,3.09,0,0,1-.08.73l-.17.61H17Z" transform="translate(0)" fill="#212121"/><path d="M18.34,24.74V21.49c0-.16,0-.22.19-.22H19.8a1.1,1.1,0,0,1,1.12,1.25,1.19,1.19,0,0,1-.49,1.07.94.94,0,0,1,.12.22l.41.89c.06.14,0,.25-.12.25h-.48c-.24,0-.34-.06-.42-.25L19.66,24c-.08-.17-.15-.26-.34-.26h-.1v1c0,.16,0,.21-.19.21h-.5C18.38,25,18.34,24.9,18.34,24.74ZM20,22.52c0-.22-.1-.34-.3-.34h-.48v.68h.48C19.89,22.86,20,22.73,20,22.52Z" transform="translate(0)" fill="#212121"/><path d="M21.06,23.58v-.94a1.38,1.38,0,1,1,2.75,0v.94a1.38,1.38,0,1,1-2.75,0Zm1.86.05v-1a.49.49,0,1,0-1,0v1a.49.49,0,1,0,1,0Z" transform="translate(0)" fill="#212121"/><path d="M23.72,24.74l1-3.28c0-.16.1-.19.23-.19h.51a.21.21,0,0,1,.23.17l1,3.3c0,.14,0,.21-.13.21h-.49c-.23,0-.3-.05-.33-.21l-.1-.38h-1l-.1.38c0,.16-.1.21-.32.21h-.47C23.7,25,23.67,24.88,23.72,24.74Zm1.62-1.8a3.77,3.77,0,0,1-.1-.73h0a3.09,3.09,0,0,1-.08.73l-.17.61h.56Z" transform="translate(0)" fill="#212121"/><polygon points="18.53 4.79 17.93 4.79 17.73 4.22 17.53 4.79 16.93 4.79 17.41 5.17 17.22 5.74 17.73 5.4 18.24 5.74 18.05 5.17 18.53 4.79" fill="#212121"/><polygon points="15.95 2.55 15.35 2.55 15.15 1.98 14.95 2.55 14.35 2.55 14.83 2.92 14.64 3.5 15.15 3.16 15.66 3.5 15.47 2.92 15.95 2.55" fill="#212121"/><polygon points="12.92 5.58 12.32 5.58 12.12 5.01 11.92 5.58 11.32 5.58 11.8 5.95 11.61 6.52 12.12 6.19 12.63 6.52 12.44 5.95 12.92 5.58" fill="#212121"/><polygon points="16.05 10.3 15.26 10.3 15 9.56 14.74 10.3 13.95 10.3 14.58 10.8 14.34 11.54 15 11.1 15.66 11.54 15.42 10.8 16.05 10.3" fill="#212121"/><path d="M20.29,18.93l.26.31,1.33-1s.12.18.75.21a2.24,2.24,0,0,0,1.06-.21,6.64,6.64,0,0,1-.83-.12,1.14,1.14,0,0,1-.57-.25,3.38,3.38,0,0,0,.89.1,1.28,1.28,0,0,0,.7-.23,3.51,3.51,0,0,1-.77-.09,2.64,2.64,0,0,1-.51-.17,5.66,5.66,0,0,0,1,0,1.17,1.17,0,0,0,.51-.19,7.19,7.19,0,0,1-.74-.09A1.2,1.2,0,0,1,23,17a2.78,2.78,0,0,0,.83,0,1,1,0,0,0,.45-.22,2.44,2.44,0,0,1-.58,0,.88.88,0,0,1-.4-.18,2.4,2.4,0,0,0,.64,0,1.15,1.15,0,0,0,.53-.22,4.09,4.09,0,0,1-.69,0,.51.51,0,0,1-.24-.15,1.72,1.72,0,0,0,.56,0,1.65,1.65,0,0,0,.43-.17,1.81,1.81,0,0,1-.5,0,.72.72,0,0,1-.26-.11,2.45,2.45,0,0,0,.55,0,.67.67,0,0,0,.32-.13,3,3,0,0,1-.52,0,.43.43,0,0,1-.19-.11,1.91,1.91,0,0,0,.54,0,.74.74,0,0,0,.35-.18,2.36,2.36,0,0,1-.43,0,.72.72,0,0,1-.25-.06l.53-.05c.2,0,.21-.12.21-.12l-.46-.09.64-.13L24.59,15l.57-.13-.34-.07.45-.1L25,14.65l.37-.1-.21-.1.32-.06-.1-.08.32-.3-.49.21-.08-.15-.07.26L25,14.08l-.08.39-.09-.21-.06.34-.13-.32-.1.46-.13-.33-.07.54-.15-.49-.08.59L24,14.51a1,1,0,0,0-.1.47,2.21,2.21,0,0,0,.06.39s-.12,0-.17-.22-.06-.41-.06-.41a1.2,1.2,0,0,0-.08.52l.08.4a.46.46,0,0,1-.19-.25c-.07-.18-.13-.4-.13-.4a1.13,1.13,0,0,0,0,.55,1.33,1.33,0,0,0,.13.33s-.14,0-.24-.23a3.93,3.93,0,0,1-.18-.44,1.7,1.7,0,0,0,0,.63,2.23,2.23,0,0,0,.17.44s-.17,0-.3-.35a2.9,2.9,0,0,1-.17-.52,2,2,0,0,0,0,.84l.18.45a1.09,1.09,0,0,1-.34-.42,4.1,4.1,0,0,1-.19-.53,1.51,1.51,0,0,0,0,.78c.12.31.24.58.24.58a1.34,1.34,0,0,1-.37-.42A4.65,4.65,0,0,1,22,16a2.28,2.28,0,0,0,0,.92,1.07,1.07,0,0,0,.23.41.89.89,0,0,1-.37-.4,5,5,0,0,1-.29-.56,1.67,1.67,0,0,0,0,.89,3.24,3.24,0,0,0,.23.58Z" transform="translate(0)" fill="#212121"/><path d="M9.71,18.93l-.26.31-1.33-1s-.12.18-.75.21a2.24,2.24,0,0,1-1.06-.21,6.64,6.64,0,0,0,.83-.12,1.14,1.14,0,0,0,.57-.25,3.38,3.38,0,0,1-.89.1,1.28,1.28,0,0,1-.7-.23,3.51,3.51,0,0,0,.77-.09,2.64,2.64,0,0,0,.51-.17,5.66,5.66,0,0,1-1,0,1.17,1.17,0,0,1-.51-.19,7.19,7.19,0,0,0,.74-.09A1.2,1.2,0,0,0,7,17a2.78,2.78,0,0,1-.83,0,1,1,0,0,1-.45-.22,2.44,2.44,0,0,0,.58,0,.88.88,0,0,0,.4-.18,2.4,2.4,0,0,1-.64,0,1.15,1.15,0,0,1-.53-.22,4.09,4.09,0,0,0,.69,0,.51.51,0,0,0,.24-.15,1.72,1.72,0,0,1-.56,0,1.65,1.65,0,0,1-.43-.17,1.81,1.81,0,0,0,.5,0A.72.72,0,0,0,6.26,16a2.45,2.45,0,0,1-.55,0,.67.67,0,0,1-.32-.13,3,3,0,0,0,.52,0,.43.43,0,0,0,.19-.11,1.91,1.91,0,0,1-.54,0,.74.74,0,0,1-.35-.18,2.36,2.36,0,0,0,.43,0,.72.72,0,0,0,.25-.06l-.53-.05c-.2,0-.21-.12-.21-.12l.46-.09L5,15.07,5.41,15l-.57-.13.34-.07-.45-.1L5,14.65l-.37-.1.21-.1-.32-.06.1-.08L4.29,14l.49.21.08-.15.07.26L5,14.08l.08.39.09-.21.06.34.13-.32.1.46.13-.33.07.54.15-.49.08.59.14-.54a1,1,0,0,1,.1.47,2.21,2.21,0,0,1-.06.39s.12,0,.17-.22.06-.41.06-.41a1.2,1.2,0,0,1,.08.52l-.08.4a.46.46,0,0,0,.19-.25c.07-.18.13-.4.13-.4a1.13,1.13,0,0,1,0,.55,1.33,1.33,0,0,1-.13.33s.14,0,.24-.23a3.93,3.93,0,0,0,.18-.44,1.7,1.7,0,0,1,0,.63,2.23,2.23,0,0,1-.17.44s.17,0,.3-.35a2.9,2.9,0,0,0,.17-.52,2,2,0,0,1,0,.84l-.18.45a1.09,1.09,0,0,0,.34-.42,4.1,4.1,0,0,0,.19-.53,1.51,1.51,0,0,1,0,.78c-.12.31-.24.58-.24.58a1.34,1.34,0,0,0,.37-.42A4.65,4.65,0,0,0,8,16a2.28,2.28,0,0,1,0,.92,1.07,1.07,0,0,1-.23.41.89.89,0,0,0,.37-.4,5,5,0,0,0,.29-.56,1.67,1.67,0,0,1,0,.89,3.24,3.24,0,0,1-.23.58Z" transform="translate(0)" fill="#212121"/><path d="M15.79,14.11a2.82,2.82,0,0,0,.74.71c.42.25.66.36.92.31s.19-.13.34-.38a4.18,4.18,0,0,1,2.21-1A10,10,0,0,0,24.67,12,11.63,11.63,0,0,0,27.6,7.78,16.31,16.31,0,0,1,29,5.33c.21-.33-.13,0-.49,0S28,4.3,27.7,3.84s-.69-1.19-.49-.22a5,5,0,0,1-.06,2.86c-.33.45-.81.45-1.19-.58a6.63,6.63,0,0,0-1.1-2.23c-.43-.4-.55-.21-.15.51a12.69,12.69,0,0,1,.64,1.92c.26.63,0,1-.24.61s-.52-.56-.41-.25S24.56,6.6,24,6s-1.17-1.67-1.15-1.19a4.65,4.65,0,0,0,1.67,2.35c.89.65,1.32,1.11.84,2.05a4.52,4.52,0,0,1-2.6,2.62,8.22,8.22,0,0,0-2.31,1.25,4.78,4.78,0,0,0,1.29-1.39A4.86,4.86,0,0,0,21.91,10c0-.39-.12-.21-.36.7s-.51,1.66-1.47,2-1.55.27-1.82.44-.67.52-.67.52a6.85,6.85,0,0,0,1.23-2,8.52,8.52,0,0,0,.58-3c0-.68-.17-.45-.33.64a9,9,0,0,1-1.51,3.42c-.7.72-.8,1.1-1.2,1.24A3.86,3.86,0,0,0,15.79,14.11Z" transform="translate(0)" fill="#212121"/><path d="M17.59,16.93a1.35,1.35,0,0,1-.41-.75,1.22,1.22,0,0,1,0-.8,4.06,4.06,0,0,1-1-.52,2.23,2.23,0,0,1-.58-.7,1.93,1.93,0,0,0-.2.17.86.86,0,0,1-.45.12v3.3a1.54,1.54,0,0,1,1.09.44,1.29,1.29,0,0,1,.37,1,1.91,1.91,0,0,0,.4-.57,1.74,1.74,0,0,0,.11-.93,3.76,3.76,0,0,0,.33-.29A1.35,1.35,0,0,0,17.59,16.93Zm-.68.43a.7.7,0,0,1-.29-.1c-.06,0-.2,0-.2,0s.17-.27.34-.27.27,0,.27.18S17,17.36,16.91,17.36Z" transform="translate(0)" fill="#212121"/><path d="M15,18.51a.52.52,0,0,0,.42-.22c.18-.26.26-.29.42-.09a1,1,0,0,1,.19.43.34.34,0,0,0-.21-.15c-.12,0-.32.18-.29.32a.27.27,0,0,0,.29.19A.59.59,0,0,0,16,19a1,1,0,0,1-.48.4,1.17,1.17,0,0,1-.53.09Z" transform="translate(0)" fill="#212121"/><path d="M15,19.64a2,2,0,0,1,.79.13.5.5,0,0,1,0,.6.78.78,0,0,1-.45.18H15Z" transform="translate(0)" fill="#212121"/><path d="M17.38,15.36a1.78,1.78,0,0,0,0,.87,2.79,2.79,0,0,0,.35.59,4.76,4.76,0,0,0,1.64-.46,3.93,3.93,0,0,0,1.44-1.59c.19-.53.74-1-.33-.58s-.85.06-1.66.46-.91.54-1.12.61A1.64,1.64,0,0,1,17.38,15.36Z" transform="translate(0)" fill="#212121"/><path d="M14.21,14.11a2.82,2.82,0,0,1-.74.71c-.42.25-.66.36-.92.31s-.19-.13-.34-.38a4.18,4.18,0,0,0-2.21-1A10,10,0,0,1,5.33,12,11.63,11.63,0,0,1,2.4,7.78,16.31,16.31,0,0,0,1.05,5.33c-.21-.33.13,0,.49,0S2,4.3,2.3,3.84s.69-1.19.49-.22a5,5,0,0,0,.06,2.86c.33.45.81.45,1.19-.58a6.63,6.63,0,0,1,1.1-2.23c.43-.4.55-.21.15.51A12.69,12.69,0,0,0,4.65,6.1c-.26.63,0,1,.24.61s.52-.56.41-.25S5.44,6.6,6,6,7.16,4.36,7.14,4.84A4.65,4.65,0,0,1,5.47,7.19c-.89.65-1.32,1.11-.84,2.05a4.52,4.52,0,0,0,2.6,2.62,8.22,8.22,0,0,1,2.31,1.25,4.78,4.78,0,0,1-1.29-1.39A4.86,4.86,0,0,1,8.09,10c0-.39.12-.21.36.7s.51,1.66,1.47,2,1.55.27,1.82.44.67.52.67.52a6.85,6.85,0,0,1-1.23-2,8.52,8.52,0,0,1-.58-3c0-.68.17-.45.33.64a9,9,0,0,0,1.51,3.42c.7.72.8,1.1,1.2,1.24A3.86,3.86,0,0,1,14.21,14.11Z" transform="translate(0)" fill="#212121"/><path d="M14.55,14.33a1.93,1.93,0,0,0-.2-.17,2.23,2.23,0,0,1-.58.7,4.06,4.06,0,0,1-1,.52,1.22,1.22,0,0,1,0,.8,1.35,1.35,0,0,1-.41.75,1.35,1.35,0,0,0,.29.51,3.76,3.76,0,0,0,.33.29,1.74,1.74,0,0,0,.11.93,1.91,1.91,0,0,0,.4.57,1.29,1.29,0,0,1,.37-1A1.54,1.54,0,0,1,15,17.75v-3.3A.86.86,0,0,1,14.55,14.33Zm-1.17,2.93a.7.7,0,0,1-.29.1c-.1,0-.12-.06-.12-.16s.1-.18.27-.18.34.27.34.27S13.44,17.22,13.38,17.26Z" transform="translate(0)" fill="#212121"/><path d="M15,18.51a.52.52,0,0,1-.42-.22c-.18-.26-.26-.29-.42-.09a1,1,0,0,0-.19.43.34.34,0,0,1,.21-.15c.12,0,.32.18.29.32a.27.27,0,0,1-.29.19A.59.59,0,0,1,14,19a1,1,0,0,0,.48.4,1.17,1.17,0,0,0,.53.09Z" transform="translate(0)" fill="#212121"/><path d="M15,19.64a2,2,0,0,0-.79.13.5.5,0,0,0,0,.6.78.78,0,0,0,.45.18H15Z" transform="translate(0)" fill="#212121"/><path d="M12.62,15.36a1.78,1.78,0,0,1,0,.87,2.79,2.79,0,0,1-.35.59,4.76,4.76,0,0,1-1.64-.46,3.93,3.93,0,0,1-1.44-1.59c-.19-.53-.74-1,.33-.58s.85.06,1.66.46.91.54,1.12.61A1.64,1.64,0,0,0,12.62,15.36Z" transform="translate(0)" fill="#212121"/><rect width="30" height="30" fill="none"/></svg>