<svg xmlns="http://www.w3.org/2000/svg" viewBox="0 0 30 30"><path d="M15,1.62a.59.59,0,0,1,.23,0l11.12,4a.5.5,0,0,1,.36.45V23.91a.5.5,0,0,1-.36.45l-11.12,4a.68.68,0,0,1-.46,0l-11.12-4a.5.5,0,0,1-.36-.45V6.09a.5.5,0,0,1,.36-.45l11.12-4a.59.59,0,0,1,.23,0m0-.2a1,1,0,0,0-.3.05l-11.12,4a.71.71,0,0,0-.49.64V23.91a.71.71,0,0,0,.49.64l11.12,4a.93.93,0,0,0,.6,0l11.12-4a.71.71,0,0,0,.49-.64V6.09a.71.71,0,0,0-.49-.64l-11.12-4a1,1,0,0,0-.3-.05Z" transform="translate(0)" fill="#212121"/><path d="M15,.4a.59.59,0,0,1,.23,0L27.49,4.89a.49.49,0,0,1,.35.45V24.66a.49.49,0,0,1-.35.45L15.23,29.56a.68.68,0,0,1-.46,0L2.51,25.11a.49.49,0,0,1-.35-.45V5.34a.49.49,0,0,1,.35-.45L14.77.44A.59.59,0,0,1,15,.4M15,0a1.15,1.15,0,0,0-.37.06L2.37,4.52a.88.88,0,0,0-.61.82V24.66a.88.88,0,0,0,.61.82l12.26,4.46a1.17,1.17,0,0,0,.74,0l12.26-4.46a.88.88,0,0,0,.61-.82V5.34a.88.88,0,0,0-.61-.82L15.37.06A1.15,1.15,0,0,0,15,0Z" transform="translate(0)" fill="#212121"/><path d="M13.57,27.14h.58v.08H13.5v-.33a.79.79,0,0,1,0-.17.64.64,0,0,1,.08-.14,1.56,1.56,0,0,1,.21-.21l.1-.09.08-.09a.3.3,0,0,0,.06-.11.32.32,0,0,0,0-.14.36.36,0,0,0,0-.1.24.24,0,0,0-.06-.08.16.16,0,0,0-.08-.06.15.15,0,0,0-.09,0,.16.16,0,0,0-.1,0,.16.16,0,0,0-.08.06.24.24,0,0,0-.06.08.36.36,0,0,0,0,.1H13.5a.51.51,0,0,1,0-.13.41.41,0,0,1,.07-.11.26.26,0,0,1,.11-.07.28.28,0,0,1,.13,0,.27.27,0,0,1,.12,0,.26.26,0,0,1,.11.07.41.41,0,0,1,.07.11.59.59,0,0,1,0,.13.63.63,0,0,1,0,.16.54.54,0,0,1-.07.13l-.1.11-.1.09-.11.09-.09.1a.34.34,0,0,0-.06.12.33.33,0,0,0,0,.15Z" transform="translate(0)" fill="#212121"/><path d="M14.64,27.23l-.13,0a.39.39,0,0,1-.1-.08.26.26,0,0,1-.07-.11.28.28,0,0,1,0-.13v-.95a.31.31,0,0,1,0-.13.26.26,0,0,1,.07-.11.23.23,0,0,1,.1-.07.28.28,0,0,1,.13,0,.31.31,0,0,1,.13,0,.23.23,0,0,1,.1.07.41.41,0,0,1,.07.11.31.31,0,0,1,0,.13v.95a.28.28,0,0,1,0,.13.41.41,0,0,1-.07.11.39.39,0,0,1-.1.08Zm0-1.55a.16.16,0,0,0-.1,0,.16.16,0,0,0-.08.06.22.22,0,0,0-.05.08.18.18,0,0,0,0,.1v.95a.18.18,0,0,0,0,.1.41.41,0,0,0,.05.09l.08.05a.16.16,0,0,0,.1,0,.18.18,0,0,0,.1,0l.08-.05a.41.41,0,0,0,0-.09.36.36,0,0,0,0-.1v-.95a.36.36,0,0,0,0-.1.22.22,0,0,0,0-.08.21.21,0,0,0-.08-.06A.18.18,0,0,0,14.64,25.68Z" transform="translate(0)" fill="#212121"/><path d="M15.53,27.14v.08h-.35v-.08h.16V25.69l-.19.09,0-.08.22-.09h.08v1.53Z" transform="translate(0)" fill="#212121"/><path d="M16.34,26.11a.36.36,0,0,1-.18.31.3.3,0,0,1,.13.12.32.32,0,0,1,.05.19v.16a.27.27,0,0,1,0,.13.41.41,0,0,1-.07.11l-.11.08-.12,0-.13,0a.39.39,0,0,1-.1-.08.26.26,0,0,1-.07-.11.28.28,0,0,1,0-.13v-.16a.41.41,0,0,1,.05-.19.37.37,0,0,1,.13-.12.33.33,0,0,1-.13-.13.35.35,0,0,1-.05-.18v-.17a.31.31,0,0,1,0-.13.26.26,0,0,1,.07-.11.23.23,0,0,1,.1-.07.28.28,0,0,1,.13,0,.24.24,0,0,1,.12,0,.26.26,0,0,1,.11.07.41.41,0,0,1,.07.11.3.3,0,0,1,0,.13Zm-.32.26a.22.22,0,0,0,.17-.07.24.24,0,0,0,.06-.09.3.3,0,0,0,0-.1v-.17a.36.36,0,0,0,0-.1.16.16,0,0,0-.06-.08.13.13,0,0,0-.07-.06.18.18,0,0,0-.1,0,.16.16,0,0,0-.1,0,.16.16,0,0,0-.08.06l-.06.08a.36.36,0,0,0,0,.1v.17a.3.3,0,0,0,0,.1l.06.09.08.05A.16.16,0,0,0,16,26.37Zm.25.36a.36.36,0,0,0,0-.11.16.16,0,0,0-.06-.08.13.13,0,0,0-.07-.06.18.18,0,0,0-.1,0,.16.16,0,0,0-.1,0,.16.16,0,0,0-.08.06l-.06.08a.36.36,0,0,0,0,.11v.16a.36.36,0,0,0,0,.1l.06.09.08.05a.16.16,0,0,0,.1,0,.22.22,0,0,0,.17-.07.24.24,0,0,0,.06-.09.36.36,0,0,0,0-.1Z" transform="translate(0)" fill="#212121"/><path d="M10.63,23.44c0-.12,0-.15-.11-.15h-.29c-.25,0-.35-.17-.35-.46V22c0-.3.11-.46.36-.46h.38c.26,0,.37.16.37.46v.48h-.36V22c0-.13,0-.15-.12-.15h-.16c-.09,0-.12,0-.12.15v.72c0,.13,0,.15.12.15h.28c.25,0,.36.17.36.46v.94c0,.3-.11.46-.36.46h-.38c-.25,0-.37-.16-.37-.46v-.48h.36v.41c0,.12,0,.15.12.15h.16c.09,0,.11,0,.11-.15Z" transform="translate(0)" fill="#212121"/><path d="M12.14,24h-.51l-.09.76h-.35l.43-3.26h.51l.46,3.26h-.35Zm-.05-.38-.22-1.72-.2,1.72Z" transform="translate(0)" fill="#212121"/><path d="M14,21.51l-.44,3.26h-.5l-.44-3.26H13l.33,2.83.33-2.83Z" transform="translate(0)" fill="#212121"/><path d="M15.07,24h-.52l-.09.76h-.35l.43-3.26h.51l.47,3.26h-.36ZM15,23.63l-.22-1.72-.21,1.72Z" transform="translate(0)" fill="#212121"/><path d="M17,21.51v3.26h-.35l-.52-2.36v2.36h-.32V21.51h.37l.5,2.28V21.51Z" transform="translate(0)" fill="#212121"/><path d="M18.56,21.51v3.26h-.35l-.52-2.36v2.36h-.32V21.51h.37l.5,2.28V21.51Z" transform="translate(0)" fill="#212121"/><path d="M19.77,24h-.51l-.09.76h-.35l.43-3.26h.51l.46,3.26h-.35Zm-.05-.38-.22-1.72-.2,1.72Z" transform="translate(0)" fill="#212121"/><path d="M4.26,16.53H4.08a.05.05,0,0,1,0,0,.19.19,0,0,1,0-.08.12.12,0,0,1,0-.11.17.17,0,0,1,.13,0h.75s.05,0,.05.06-.05.12-.14.15l-.18,0,.65,2.23a.8.8,0,0,1,0,.15l0,.11h0l0-.11a.83.83,0,0,1,0-.15l.67-2.22H5.89a.06.06,0,0,1-.06,0,.19.19,0,0,1,0-.08.12.12,0,0,1,0-.11.17.17,0,0,1,.13,0h.66s.05,0,.05.06,0,.1-.11.13l-.18.07-.85,2.75H5.11Z" transform="translate(0)" fill="#212121"/><path d="M7.63,19.2a1,1,0,0,1-.37-.41,1.46,1.46,0,0,1-.14-.66v-1.6H6.94a.07.07,0,0,1-.06,0,.19.19,0,0,1,0-.08.13.13,0,0,1,0-.11.16.16,0,0,1,.12,0h.7s0,0,0,.06,0,.11-.12.14l-.17.05v1.65a1,1,0,0,0,.19.65.65.65,0,0,0,.53.23.66.66,0,0,0,.53-.23,1,1,0,0,0,.19-.65V16.53H8.72a.07.07,0,0,1-.06,0,.19.19,0,0,1,0-.08.12.12,0,0,1,0-.11.16.16,0,0,1,.12,0h.63s.05,0,.05.06,0,.09-.11.12l-.16.07v1.61A1.34,1.34,0,0,1,9,19a1,1,0,0,1-.76.31A1.13,1.13,0,0,1,7.63,19.2Z" transform="translate(0)" fill="#212121"/><path d="M9.87,19.25a.14.14,0,0,1,0-.07.17.17,0,0,1,.05-.12A.21.21,0,0,1,10,19h.09V16.54l-.1,0-.13-.06a.13.13,0,0,1,0-.1c0-.05,0-.08.06-.08H11a.88.88,0,0,1,.62.21.77.77,0,0,1,.23.62.74.74,0,0,1-.23.61.87.87,0,0,1-.62.2h-.08L11.81,19l.18.06c.09,0,.13.07.13.13a.05.05,0,0,1-.06.06H11.5l-1-1.36V19l.17,0,.09.06a.11.11,0,0,1,0,.08s0,.06,0,.06H9.93A.06.06,0,0,1,9.87,19.25ZM11,17.65a.51.51,0,0,0,.38-.14.58.58,0,0,0,.13-.41.6.6,0,0,0-.13-.42.51.51,0,0,0-.38-.14h-.5v1.11Z" transform="translate(0)" fill="#212121"/><path d="M12.4,19.25a.14.14,0,0,1,0-.07.17.17,0,0,1,0-.12.21.21,0,0,1,.12,0h.09V16.53h-.18a.06.06,0,0,1-.06,0,.19.19,0,0,1,0-.08.13.13,0,0,1,0-.11.16.16,0,0,1,.12,0h.7s.05,0,.05.06,0,.11-.12.14l-.17.05v1.05h1.33v-1h-.2a.06.06,0,0,1-.06,0,.19.19,0,0,1,0-.08.13.13,0,0,1,0-.11.16.16,0,0,1,.12,0h.7s.05,0,.05.06a.19.19,0,0,1,0,.08l-.08.05-.17.06V19l.17.06.08.05a.19.19,0,0,1,0,.08s0,.06-.05.06h-.79a.06.06,0,0,1-.06,0,.14.14,0,0,1,0-.07.17.17,0,0,1,0-.12.21.21,0,0,1,.12,0h.11V17.86H13V19l.17,0c.08,0,.12.07.12.14s0,.06-.05.06h-.79A.06.06,0,0,1,12.4,19.25Z" transform="translate(0)" fill="#212121"/><path d="M15.87,19.17a1.16,1.16,0,0,1-.42-.52,2.25,2.25,0,0,1-.16-.87,2.18,2.18,0,0,1,.16-.87,1.14,1.14,0,0,1,1.67-.52,1.18,1.18,0,0,1,.43.52,2.19,2.19,0,0,1,.15.87,2.26,2.26,0,0,1-.15.87,1.24,1.24,0,0,1-.43.52,1.23,1.23,0,0,1-1.25,0Zm1.24-.45a1.75,1.75,0,0,0,.21-.94,1.78,1.78,0,0,0-.21-1,.74.74,0,0,0-1.23,0,1.78,1.78,0,0,0-.21,1,1.75,1.75,0,0,0,.21.94.74.74,0,0,0,1.23,0Z" transform="translate(0)" fill="#212121"/><path d="M18,19.25a.14.14,0,0,1,0-.07.17.17,0,0,1,.05-.12.21.21,0,0,1,.12,0h.1V16.55l-.1,0-.13-.06a.15.15,0,0,1,0-.1.12.12,0,0,1,0-.07l.05,0h.54l1.17,2a2.39,2.39,0,0,1,.21.48V16.53h-.22a.05.05,0,0,1-.05,0,.19.19,0,0,1,0-.08.16.16,0,0,1,0-.11.17.17,0,0,1,.13,0h.63s.05,0,.05.06a.11.11,0,0,1,0,.08l-.1.06-.14.05v2.76H20l-1.21-2.05a2.31,2.31,0,0,1-.17-.41V19l.19.06a.14.14,0,0,1,.12.13.05.05,0,0,1-.06.06H18.1A.06.06,0,0,1,18,19.25Z" transform="translate(0)" fill="#212121"/><path d="M21.56,19.17a1.2,1.2,0,0,1-.46-.53,2,2,0,0,1-.16-.87,2,2,0,0,1,.16-.85,1.15,1.15,0,0,1,.43-.53,1.12,1.12,0,0,1,.62-.18,1.21,1.21,0,0,1,.48.09,1.08,1.08,0,0,1,.37.24v.53c0,.05,0,.07-.07.07a.07.07,0,0,1-.07,0,.32.32,0,0,1-.05-.14l-.06-.3a.71.71,0,0,0-.23-.12,1,1,0,0,0-.31,0,.77.77,0,0,0-.65.33,1.52,1.52,0,0,0-.25.94,1.79,1.79,0,0,0,.12.7.92.92,0,0,0,.32.44.82.82,0,0,0,.47.14.83.83,0,0,0,.43-.1V18h-.36s-.07,0-.07-.11a.13.13,0,0,1,.05-.11.15.15,0,0,1,.12,0h.85s.05,0,.05.06,0,.06,0,.08a.19.19,0,0,1-.09.05L23,18v1.09a1.18,1.18,0,0,1-.38.16,1.65,1.65,0,0,1-.43.06A1.29,1.29,0,0,1,21.56,19.17Z" transform="translate(0)" fill="#212121"/><path d="M23.37,19.25a.14.14,0,0,1,0-.07.17.17,0,0,1,0-.12.21.21,0,0,1,.12,0h.09l.85-2.75h.42L25.74,19l.15,0a.19.19,0,0,1,.09.05s0,.05,0,.09,0,.07,0,.07h-.83a.05.05,0,0,1-.05,0,.08.08,0,0,1,0-.07.16.16,0,0,1,0-.12.21.21,0,0,1,.12,0h.14l-.21-.69h-1l-.21.7.21.06a.19.19,0,0,1,.1.05.09.09,0,0,1,0,.07c0,.05,0,.07-.05.07h-.75A.06.06,0,0,1,23.37,19.25Zm1.69-1.2-.44-1.42-.43,1.42Z" transform="translate(0)" fill="#212121"/><line x1="7.21" y1="20.42" x2="22.79" y2="20.42" fill="none" stroke="#212121" stroke-miterlimit="10" stroke-width="0.1"/><polygon points="7.41 20.71 6.32 20.42 7.41 20.13 7.41 20.71" fill="#212121"/><polygon points="22.59 20.71 23.68 20.42 22.59 20.13 22.59 20.71" fill="#212121"/><line x1="13.1" y1="14.95" x2="4.97" y2="14.95" fill="none" stroke="#212121" stroke-miterlimit="10" stroke-width="0.1"/><line x1="13.54" y1="14.16" x2="4.97" y2="14.16" fill="none" stroke="#212121" stroke-miterlimit="10" stroke-width="0.1"/><line x1="13.37" y1="13.37" x2="4.97" y2="13.37" fill="none" stroke="#212121" stroke-miterlimit="10" stroke-width="0.1"/><line x1="25.03" y1="13.37" x2="15.49" y2="13.37" fill="none" stroke="#212121" stroke-miterlimit="10" stroke-width="0.1"/><line x1="25.03" y1="14.95" x2="15.81" y2="14.95" fill="none" stroke="#212121" stroke-miterlimit="10" stroke-width="0.1"/><line x1="25.04" y1="14.16" x2="15.6" y2="14.16" fill="none" stroke="#212121" stroke-miterlimit="10" stroke-width="0.1"/><path d="M13.25,11.93a6.06,6.06,0,0,1-.81-.6c-.28-.23-.45-.53-.67-.74a3.23,3.23,0,0,0-1.63-.95,12.94,12.94,0,0,1-1.9-.57L6.62,7.94,8.28,9a13.1,13.1,0,0,0,1.89.49,3.32,3.32,0,0,1,1.77.93c.26.23.43.51.68.69a6.9,6.9,0,0,0,.79.54Z" transform="translate(0)" fill="#212121"/><path d="M13.44,11.63a10.85,10.85,0,0,0-.52-1.2c-.22-.34-.61-.7-.55-1.23.05-.25.24-.43.28-.6A1.56,1.56,0,0,0,12.48,8a2.81,2.81,0,0,1-.26-1.3A3.84,3.84,0,0,0,12.59,8a1.41,1.41,0,0,1,.19.66c0,.27-.23.41-.25.61,0,.39.3.74.56,1.1a8.31,8.31,0,0,1,.57,1.21Z" transform="translate(0)" fill="#212121"/><polygon points="11.43 6.69 12.38 7.46 12.31 7.54 11.43 6.69" fill="#212121"/><path d="M13.74,11.58l.06-.93v0l-.18-.53a1.11,1.11,0,0,0-.27-.47c-.22-.3-.47-.59-.72-.87.27.26.54.52.8.8a1.58,1.58,0,0,1,.33.48l.22.52h0v0l.07.93Z" transform="translate(0)" fill="#212121"/><path d="M15.9,6.75c-.15.19-.3.38-.47.57a2.63,2.63,0,0,1-.54.51l-.62.38c-.19.14-.42.29-.47.48h0l0,.06,0,0a3.59,3.59,0,0,1-.54-.4,1.08,1.08,0,0,1-.36-.57c-.13-.42-.22-.86-.31-1.29.11.43.23.86.38,1.27a.89.89,0,0,0,.37.5l.51.42-.07,0h0c0-.3.31-.42.5-.57s.42-.25.63-.37A5.88,5.88,0,0,0,15.9,6.75Z" transform="translate(0)" fill="#212121"/><path d="M13.71,10.36a2.85,2.85,0,0,0,.13-.81L13.7,8.7h0a3.29,3.29,0,0,1,.05-.44c0-.15.11-.27,0-.39a2.58,2.58,0,0,0-.59-.6,2.49,2.49,0,0,1,.63.58.25.25,0,0,1,0,.22,1.55,1.55,0,0,0,0,.21,2.82,2.82,0,0,0,0,.41h0l.19.84a2.87,2.87,0,0,1-.09.88Z" transform="translate(0)" fill="#212121"/><path d="M12.62,10c-.28-.17-.56-.35-.85-.49A1.69,1.69,0,0,1,11,8.89a.9.9,0,0,1-.12-.24.3.3,0,0,0-.13-.17,1,1,0,0,0-.44-.18,1.28,1.28,0,0,1-.84-.51,1.23,1.23,0,0,0,.85.46,1,1,0,0,1,.47.17.36.36,0,0,1,.17.21.88.88,0,0,0,.12.2,1.51,1.51,0,0,0,.77.55c.31.13.6.3.9.46Z" transform="translate(0)" fill="#212121"/><path d="M8.37,7.75a6.64,6.64,0,0,0,.55.64,3.56,3.56,0,0,0,.31.26,2.57,2.57,0,0,0,.4.07,8.2,8.2,0,0,1,.85.1c.16,0,.28.15.39.18a1,1,0,0,0,.39.05V9.2a1.27,1.27,0,0,1-.44-.08c-.16-.06-.25-.16-.38-.18a7.19,7.19,0,0,0-.83-.13,1.58,1.58,0,0,1-.42-.09.86.86,0,0,1-.34-.28A6.63,6.63,0,0,1,8.37,7.75Z" transform="translate(0)" fill="#212121"/><path d="M9.21,7.79,9,8.06c-.06.09-.14.21-.11.3l-.06,0c0-.16.08-.24.15-.34A3,3,0,0,1,9.21,7.79Z" transform="translate(0)" fill="#212121"/><path d="M7.27,7.94a2.23,2.23,0,0,0,1.78.58v.12A2.29,2.29,0,0,1,7.27,7.94Z" transform="translate(0)" fill="#212121"/><path d="M11.26,10.1A.64.64,0,0,0,11,9.61a5.22,5.22,0,0,1-.54-.31,1.25,1.25,0,0,1-.42-.49c-.06-.2,0-.44-.16-.6.16.15.13.4.21.58a1.18,1.18,0,0,0,.43.43c.17.12.36.14.57.27a.8.8,0,0,1,.33.6Z" transform="translate(0)" fill="#212121"/><path d="M12.35,9.2a1.13,1.13,0,0,0-.11-.65c-.1-.17-.35-.31-.5-.49a1.18,1.18,0,0,1-.34-.65,2.9,2.9,0,0,1,0-.72,2.93,2.93,0,0,0,.07.72A1,1,0,0,0,11.8,8c.17.18.39.26.57.48a1.41,1.41,0,0,1,.18.75Z" transform="translate(0)" fill="#212121"/><path d="M12.35,9.32a1.79,1.79,0,0,0-.6-.55,1.23,1.23,0,0,1-.59-.71.65.65,0,0,1,0-.24.26.26,0,0,0-.05-.18,1.65,1.65,0,0,0-.28-.32,2.78,2.78,0,0,0-.76-.41,2.47,2.47,0,0,1,.83.34,1.4,1.4,0,0,1,.31.33.41.41,0,0,1,.08.25.47.47,0,0,0,0,.2,1.07,1.07,0,0,0,.54.59,1.9,1.9,0,0,1,.7.63Z" transform="translate(0)" fill="#212121"/><path d="M11.06,6.82c-.16.09-.36.3-.2.42l-.06.06a.21.21,0,0,1,0-.31A.7.7,0,0,1,11.06,6.82Z" transform="translate(0)" fill="#212121"/><path d="M11.22,8.26,10.91,8a.6.6,0,0,1-.23-.34h0a1,1,0,0,1,0-.56.91.91,0,0,0,0,.54h0c0,.09.13.17.22.23a3.18,3.18,0,0,0,.32.16Z" transform="translate(0)" fill="#212121"/><path d="M12.15,9a1.8,1.8,0,0,1-.4,0,.64.64,0,0,1-.38-.16,1.23,1.23,0,0,1-.17-.74,1.17,1.17,0,0,0,.25.67.85.85,0,0,0,.65,0Z" transform="translate(0)" fill="#212121"/><path d="M14.65,13.06a2.92,2.92,0,0,1,1-.87,3.22,3.22,0,0,0,1.07-.51,2.32,2.32,0,0,1,.84-.93,4.8,4.8,0,0,1,1.17-.5c.8-.24,1.63-.39,2.42-.62a2.54,2.54,0,0,0,1-.71c.27-.3.64-.56.68-1,0,.44-.36.75-.62,1.06a2.65,2.65,0,0,1-1,.79c-.8.26-1.62.41-2.4.66a2.78,2.78,0,0,0-1.9,1.41,3.29,3.29,0,0,1-1.15.58,2.66,2.66,0,0,0-.84.8Z" transform="translate(0)" fill="#212121"/><path d="M22.06,9a1.18,1.18,0,0,1,0-.56,1.86,1.86,0,0,0,.24-.49,1.12,1.12,0,0,1-.08.26,1.45,1.45,0,0,1-.11.25,1.12,1.12,0,0,0,.06.51Z" transform="translate(0)" fill="#212121"/><path d="M17.81,10.61c.19-.27.35-.64.73-.75a.51.51,0,0,0,.34-.26.85.85,0,0,1,.38-.39c.31-.16.63-.25.93-.4a1.41,1.41,0,0,0,.74-.64,1.42,1.42,0,0,1-.7.71c-.3.17-.62.3-.91.45a.65.65,0,0,0-.3.33.68.68,0,0,1-.42.36c-.3.08-.44.42-.61.69Z" transform="translate(0)" fill="#212121"/><path d="M19.54,9.09a4,4,0,0,0,.28-.43A.74.74,0,0,0,20,8.18a.9.9,0,0,1-.07.51,4.3,4.3,0,0,1-.24.48Z" transform="translate(0)" fill="#212121"/><path d="M19.32,10.09a2.54,2.54,0,0,1,.82-.63,1,1,0,0,0,.36-.31.69.69,0,0,0,.16-.45.71.71,0,0,1-.12.48,1.06,1.06,0,0,1-.36.37,2.48,2.48,0,0,0-.7.67Z" transform="translate(0)" fill="#212121"/><path d="M15.47,12.35a7.53,7.53,0,0,1,.08-.83,3.2,3.2,0,0,1,.1-.42.84.84,0,0,1,.25-.37,2.58,2.58,0,0,0,.43-.66,1.19,1.19,0,0,1,.51-.69,13.75,13.75,0,0,1,1.42-.86,1.46,1.46,0,0,1,.39-.16c.15,0,.27,0,.41-.07s.53-.15.79-.22c-.26.08-.51.19-.78.27a3.14,3.14,0,0,1-.4.08,1.81,1.81,0,0,0-.37.18,15.45,15.45,0,0,0-1.36.92,1,1,0,0,0-.43.61,2.74,2.74,0,0,1-.46.73c-.23.17-.23.41-.29.69s-.07.54-.09.81Z" transform="translate(0)" fill="#212121"/><path d="M17.06,9.26a1.41,1.41,0,0,1,.27-.37.65.65,0,0,1,.39-.25c.31-.06.62.09.88,0a.45.45,0,0,0,.23-.33c0-.14-.07-.27-.07-.43a5.2,5.2,0,0,1,0-.88,5.18,5.18,0,0,0,0,.88c0,.15.11.27.08.44a.44.44,0,0,1-.25.37c-.31.09-.6-.05-.88,0s-.43.35-.56.57Z" transform="translate(0)" fill="#212121"/><path d="M14.27,11.66a11.67,11.67,0,0,1,1-1.13,1.92,1.92,0,0,1,.63-.4l.66-.34-.62.4a2.06,2.06,0,0,0-.56.45,11.08,11.08,0,0,0-.84,1.19Z" transform="translate(0)" fill="#212121"/><path d="M15.68,11.07a7.05,7.05,0,0,1-.1-1.3,1.25,1.25,0,0,1,.08-.35.92.92,0,0,1,.26-.26l.54-.36A3.1,3.1,0,0,0,17,8.44a2.09,2.09,0,0,1,.4-.51l.13-.11a.48.48,0,0,0,.06-.11,2.64,2.64,0,0,0,.07-.3,1.93,1.93,0,0,0,.06-.63,2,2,0,0,1,0,.64,3,3,0,0,1-.06.32.43.43,0,0,1-.09.18.5.5,0,0,0-.11.1,3.48,3.48,0,0,0-.35.53,3.28,3.28,0,0,1-.53.41L16,9.32a.46.46,0,0,0-.24.46A9,9,0,0,0,15.87,11Z" transform="translate(0)" fill="#212121"/><path d="M17,8.43a8.31,8.31,0,0,0,.88-.31c.08,0,.13,0,.15-.12l.07-.23a1.39,1.39,0,0,1,.17-.44,1.73,1.73,0,0,0-.12.46l0,.23c0,.1-.11.18-.17.21a5.18,5.18,0,0,1-.9.34Z" transform="translate(0)" fill="#212121"/><path d="M17.92,8.11,18.23,8c.09,0,.21-.07.2-.17s0-.46.14-.63a1,1,0,0,0-.08.63c0,.14-.14.22-.23.26a1.7,1.7,0,0,1-.32.1Z" transform="translate(0)" fill="#212121"/><path d="M18.23,8.05a.64.64,0,0,1,.33.07c.09.08.2,0,.3,0a1.3,1.3,0,0,0,.54-.38,1.25,1.25,0,0,1-.53.4c-.09,0-.23.1-.32,0a.69.69,0,0,0-.32,0Z" transform="translate(0)" fill="#212121"/><path d="M14.73,11.14A2.43,2.43,0,0,1,15.07,10a3,3,0,0,1,.46-.42,2.41,2.41,0,0,1,.5-.33,3,3,0,0,1-.39.46,3.82,3.82,0,0,0-.4.41,3.39,3.39,0,0,0-.31,1.08Z" transform="translate(0)" fill="#212121"/><path d="M15,10.08a6.44,6.44,0,0,0,.1-.87,1.87,1.87,0,0,0,0-.41A1.66,1.66,0,0,1,15,8.36a1.28,1.28,0,0,1,.05-.47c.06-.17.12-.26.18-.41a4.09,4.09,0,0,0,.26-.84c0,.29-.1.58-.16.87s-.11.31-.12.42a1.42,1.42,0,0,0,0,.41,2.09,2.09,0,0,0,.1.42,2.46,2.46,0,0,1,0,.47,8.46,8.46,0,0,1-.11.88Z" transform="translate(0)" fill="#212121"/><path d="M13.79,10.34a.78.78,0,0,0,.46-.33,3.23,3.23,0,0,1,.27-.63,2.83,2.83,0,0,1,.36-.59,3.38,3.38,0,0,1,.61-.33c.1-.06.11-.09.17-.22A.81.81,0,0,1,15.9,8a1.33,1.33,0,0,1,.65-.22,3.61,3.61,0,0,0,.65-.15c.12,0,.12-.15.14-.26s0-.22,0-.33c0,.11,0,.22,0,.34s0,.25-.14.3a3.75,3.75,0,0,1-.65.2,1.35,1.35,0,0,0-.59.22.69.69,0,0,0-.18.24c0,.08-.12.26-.23.29A5.66,5.66,0,0,0,15,8.9a4.3,4.3,0,0,0-.32.56,3.06,3.06,0,0,0-.25.6.93.93,0,0,1-.57.47Z" transform="translate(0)" fill="#212121"/><path d="M16.76,7.78a.4.4,0,0,1-.09-.21.22.22,0,0,1,.09-.21A.51.51,0,0,0,17,7a.54.54,0,0,1-.15.38c-.1.1,0,.22.05.3Z" transform="translate(0)" fill="#212121"/><path d="M13.84,9.82a.8.8,0,0,0,.26-.32c0-.05,0-.13.07-.22a.93.93,0,0,1,.14-.22,1.13,1.13,0,0,1,.88-.36,1.48,1.48,0,0,0-.76.46.77.77,0,0,0-.16.4A1,1,0,0,1,14,10Z" transform="translate(0)" fill="#212121"/><path d="M14.78,8.83a1,1,0,0,1-.18-.31.84.84,0,0,1,0-.35.88.88,0,0,0-.12-.6,4.21,4.21,0,0,0-.5-.41c-.16-.14-.38-.27-.42-.51a1.17,1.17,0,0,0,.47.44,3.43,3.43,0,0,1,.54.42,1,1,0,0,1,.15.67.64.64,0,0,0,.17.56Z" transform="translate(0)" fill="#212121"/><path d="M14.1,7.22a1.24,1.24,0,0,0,.24-.55,1.35,1.35,0,0,1-.12.62Z" transform="translate(0)" fill="#212121"/><path d="M15.3,7.4a1.34,1.34,0,0,1,.81-.13,1.37,1.37,0,0,0-.77.2Z" transform="translate(0)" fill="#212121"/><path d="M14.37,8.12a.47.47,0,0,1-.23-.25c0-.12,0-.22,0-.32,0,.1,0,.22.06.29a.37.37,0,0,0,.22.15Z" transform="translate(0)" fill="#212121"/><path d="M13.85,15H15a3.22,3.22,0,0,1-.1-1.83c.14-.18-.48-.35-.51-.58a1.9,1.9,0,0,1,.18-.84,1.12,1.12,0,0,0-.66-.26c-.18,0-.3-.05-.5.14a1.22,1.22,0,0,0-.25.27,4.87,4.87,0,0,1,.53.51c.1.27.11.87.26,1a.9.9,0,0,1,.3.63A1.63,1.63,0,0,1,13.85,15Z" transform="translate(0)" fill="#212121"/><path d="M24.92,7.74a8.32,8.32,0,0,1,1.66,0,6.78,6.78,0,0,1-1.16-.23c-.05-.09.48-.21.48-.21a5.38,5.38,0,0,1-.9,0c-.09,0,.47-.26.47-.26a3.33,3.33,0,0,1-1,0c-.13-.1.4-.24.4-.24a6,6,0,0,1-.75-.07c-.09-.05.38-.21.38-.21a3.14,3.14,0,0,1-.82,0c-.16-.07.25-.25.25-.25a11,11,0,0,1-1.75,0c-.12-.1.44-.21.44-.21A12.87,12.87,0,0,1,21.22,6c-.06,0,.41-.17.41-.17A8.84,8.84,0,0,1,20,5.78c-.14-.1.42-.19.42-.19s-1.81-.21-1.91-.29.22-.21.22-.21S17.07,5,17,5s.41-.11.41-.11A8,8,0,0,1,16,4.78c-.18-.08.39-.22.39-.22a7,7,0,0,1-1.18-.12c-.14-.07.19-.15.19-.15s-.38,0-1.17,0a4.12,4.12,0,0,1-1.18-.13s.27.13.14.2a3.73,3.73,0,0,1-1-.09s.55.16.4.25a5.3,5.3,0,0,1-1.2,0s.45.27.32.36a13.63,13.63,0,0,1-1.81,0s.43.26.32.31a5,5,0,0,1-.78,0s.52.2.31.26a7.09,7.09,0,0,1-1.14,0s.37.15.23.22a13,13,0,0,1-1.53,0s.26.17.17.21a7.64,7.64,0,0,1-1,0s.48.23.39.27a2.7,2.7,0,0,1-.64,0s.43.17.32.22a4.44,4.44,0,0,1-.82,0s.5.29.4.31-.75,0-.75,0,.35.2.25.27a3.76,3.76,0,0,1-.89,0s.46.18.36.26-.85,0-.85,0,.18.21.11.27-.42,0-.42,0,.32.2.26.27a7,7,0,0,1-.88.32A11.55,11.55,0,0,1,5.17,8c.13.08-.44.2-.44.2a5.29,5.29,0,0,0,1.61.14l1.89-.1s-.46-.07-.29-.13,1.91,0,1.91,0-.29-.19-.23-.24a4.21,4.21,0,0,1,.62-.19,5.18,5.18,0,0,1-.8-.19s.31-.15.31-.15-.26-.05-.17-.14A3.19,3.19,0,0,1,10.66,7a24.25,24.25,0,0,1,2.78-.22A18.54,18.54,0,0,1,16.72,7c.11.11-.11.2-.11.2a10.38,10.38,0,0,1,1.66.13c.14.11-.18.27-.18.27s.79-.08.93.07-.32.22-.32.22a5.64,5.64,0,0,1,.67.07c.14,0-.28.28-.28.28s.56-.05.7.06-.25.26-.25.26h2s-.48-.07-.29-.21a13.08,13.08,0,0,1,2.34-.12l1.21,0s-.61-.21-.45-.31a2,2,0,0,1,.78,0S24.76,7.84,24.92,7.74Z" transform="translate(0)" fill="#212121"/><rect width="30" height="30" fill="none"/></svg>