<!-- Copyright (c) 2023 Jan Stehno -->
<svg xmlns="http://www.w3.org/2000/svg" viewBox="0 0 300 300">
    <title>vurhongasavannareserve</title>
    <g id="vurhongasavannareserve">
        <g id="inner_border" data-name="inner border">
            <path
                d="M150,16.2a7.13,7.13,0,0,1,2.33.4L263.5,56.41a5,5,0,0,1,3.56,4.5V239.09a5,5,0,0,1-3.56,4.5L152.33,283.4a7,7,0,0,1-4.66,0L36.5,243.59a5,5,0,0,1-3.56-4.5V60.91a5,5,0,0,1,3.56-4.5L147.67,16.6a7.13,7.13,0,0,1,2.33-.4m0-2a8.93,8.93,0,0,0-3,.52L35.83,54.53a6.93,6.93,0,0,0-4.89,6.38V239.09a6.93,6.93,0,0,0,4.89,6.38L147,285.28a8.91,8.91,0,0,0,6,0l111.17-39.81a6.93,6.93,0,0,0,4.89-6.38V60.91a6.93,6.93,0,0,0-4.89-6.38L153,14.72a8.93,8.93,0,0,0-3-.52Z"
                transform="translate(0)" fill="#212121" />
        </g>
        <g id="outter_border" data-name="outter border">
            <path
                d="M150,4a6.61,6.61,0,0,1,2.29.4L274.93,48.93a5,5,0,0,1,3.51,4.5V246.57a5,5,0,0,1-3.51,4.5L152.29,295.6a6.76,6.76,0,0,1-4.58,0L25.07,251.07a5,5,0,0,1-3.51-4.5V53.43a5,5,0,0,1,3.51-4.5L147.71,4.4A6.61,6.61,0,0,1,150,4m0-4a10.56,10.56,0,0,0-3.66.64L23.71,45.17a8.91,8.91,0,0,0-6.15,8.26V246.57a8.91,8.91,0,0,0,6.15,8.26l122.63,44.53a10.79,10.79,0,0,0,7.32,0l122.63-44.53a8.91,8.91,0,0,0,6.15-8.26V53.43a8.91,8.91,0,0,0-6.15-8.26L153.66.64A10.56,10.56,0,0,0,150,0Z"
                transform="translate(0)" fill="#212121" />
        </g>
        <path
            d="M135.72,271.43h5.8v.78H135v-3.34a5,5,0,0,1,.27-1.71,5.19,5.19,0,0,1,.72-1.36,7.56,7.56,0,0,1,1-1.13c.37-.34.75-.67,1.13-1l1-.87a7.54,7.54,0,0,0,.86-.94,4.64,4.64,0,0,0,.6-1.09,3.75,3.75,0,0,0,.22-1.35,2.52,2.52,0,0,0-.2-1,3,3,0,0,0-.54-.84,2.66,2.66,0,0,0-.8-.57,2.26,2.26,0,0,0-1-.22,2.39,2.39,0,0,0-1,.22,2.43,2.43,0,0,0-.8.57,2.84,2.84,0,0,0-.55.84,2.69,2.69,0,0,0-.2,1H135a3.55,3.55,0,0,1,.26-1.34,3.45,3.45,0,0,1,.7-1.1,3.36,3.36,0,0,1,1-.73,3.22,3.22,0,0,1,1.28-.26,3,3,0,0,1,1.27.27,3.42,3.42,0,0,1,1,.74,3.56,3.56,0,0,1,.7,1.1,3.38,3.38,0,0,1,.26,1.35,4.44,4.44,0,0,1-.26,1.6,5.09,5.09,0,0,1-.68,1.26,7.34,7.34,0,0,1-1,1.06c-.36.33-.71.64-1.08.95s-.71.6-1.05.91a7.22,7.22,0,0,0-.91,1,4.76,4.76,0,0,0-.63,1.18,4.12,4.12,0,0,0-.24,1.45Z"
            transform="translate(0)" fill="#212121" />
        <path
            d="M146.4,272.33a3.06,3.06,0,0,1-1.28-.27,3.27,3.27,0,0,1-1.05-.74,3.58,3.58,0,0,1-1-2.45v-9.42a3.58,3.58,0,0,1,1-2.45,3.27,3.27,0,0,1,1.05-.74,3.15,3.15,0,0,1,2.55,0,3.42,3.42,0,0,1,1,.74,3.58,3.58,0,0,1,1,2.45v9.42a3.58,3.58,0,0,1-1,2.45,3.42,3.42,0,0,1-1,.74A3,3,0,0,1,146.4,272.33Zm0-15.56a2.39,2.39,0,0,0-1,.22,2.43,2.43,0,0,0-.8.57,2.84,2.84,0,0,0-.55.84,2.7,2.7,0,0,0-.2,1v9.44a2.79,2.79,0,0,0,.2,1,2.89,2.89,0,0,0,.55.85,2.43,2.43,0,0,0,.8.57,2.39,2.39,0,0,0,1,.22,2.3,2.3,0,0,0,1-.22,2.5,2.5,0,0,0,.79-.57,2.89,2.89,0,0,0,.55-.85,2.79,2.79,0,0,0,.2-1v-9.44a2.7,2.7,0,0,0-.2-1,2.84,2.84,0,0,0-.55-.84,2.5,2.5,0,0,0-.79-.57A2.3,2.3,0,0,0,146.4,256.77Z"
            transform="translate(0)" fill="#212121" />
        <path d="M155.3,271.43v.78h-3.53v-.78h1.68V256.94l-1.93.81-.27-.74,2.2-.9v0h.74v15.35Z"
            transform="translate(0)" fill="#212121" />
        <path
            d="M163.44,261.09a3.4,3.4,0,0,1-.5,1.83,3.27,3.27,0,0,1-1.31,1.25,3.43,3.43,0,0,1,1.81,3.08v1.62a3.38,3.38,0,0,1-.26,1.35,3.56,3.56,0,0,1-.7,1.1,3.3,3.3,0,0,1-1,.74,3,3,0,0,1-1.27.27,3.09,3.09,0,0,1-1.28-.27,3.23,3.23,0,0,1-1-.74,3.53,3.53,0,0,1-1-2.45v-1.62a3.48,3.48,0,0,1,.5-1.84,3.35,3.35,0,0,1,1.32-1.24,3.24,3.24,0,0,1-1.32-1.25,3.49,3.49,0,0,1-.5-1.83v-1.64a3.53,3.53,0,0,1,1-2.45,3.23,3.23,0,0,1,1-.74,3.09,3.09,0,0,1,1.28-.27,3,3,0,0,1,1.27.27,3.3,3.3,0,0,1,1,.74,3.56,3.56,0,0,1,.7,1.1,3.38,3.38,0,0,1,.26,1.35Zm-3.26,2.65a2.25,2.25,0,0,0,1-.21,2.74,2.74,0,0,0,.8-.58,2.82,2.82,0,0,0,.54-.84,2.5,2.5,0,0,0,.21-1v-1.65a2.56,2.56,0,0,0-.21-1,2.82,2.82,0,0,0-.54-.84,2.71,2.71,0,0,0-.8-.57,2.26,2.26,0,0,0-1-.22,2.39,2.39,0,0,0-1,.22,2.71,2.71,0,0,0-.8.57,2.84,2.84,0,0,0-.55.84,2.74,2.74,0,0,0-.2,1v1.65a2.66,2.66,0,0,0,.2,1,2.84,2.84,0,0,0,.55.84,2.74,2.74,0,0,0,.8.58A2.38,2.38,0,0,0,160.18,263.74Zm2.52,3.51a2.61,2.61,0,0,0-.21-1,2.69,2.69,0,0,0-.54-.84,2.74,2.74,0,0,0-.8-.58,2.25,2.25,0,0,0-1-.21,2.38,2.38,0,0,0-1,.21,2.75,2.75,0,0,0-1.35,1.42,2.79,2.79,0,0,0-.2,1v1.62a2.71,2.71,0,0,0,.75,1.89,2.54,2.54,0,0,0,.8.57,2.39,2.39,0,0,0,1,.22,2.26,2.26,0,0,0,1-.22,2.54,2.54,0,0,0,.8-.57,2.74,2.74,0,0,0,.54-.85,2.58,2.58,0,0,0,.21-1Z"
            transform="translate(0)" fill="#212121" />
        <g id="title">
            <path
                d="M106.34,234.4c0-1.25-.19-1.5-1.13-1.5h-2.89c-2.5,0-3.55-1.67-3.55-4.64v-8.59c0-3,1.13-4.58,3.63-4.58h3.83c2.53,0,3.63,1.61,3.63,4.58v4.79H106.3V220.4c0-1.25-.23-1.51-1.17-1.51h-1.64c-.93,0-1.17.26-1.17,1.51v7.24c0,1.25.24,1.51,1.17,1.51h2.85c2.5,0,3.6,1.61,3.6,4.58v9.37c0,3-1.14,4.58-3.68,4.58h-3.78c-2.5,0-3.63-1.61-3.63-4.58v-4.79h3.55v4.06c0,1.25.23,1.51,1.17,1.51h1.64c.94,0,1.13-.26,1.13-1.51Z"
                transform="translate(0)" fill="#212121" />
            <path
                d="M121.42,240.13h-5.16l-.9,7.55h-3.51l4.33-32.59h5.12L126,247.68h-3.56Zm-.47-3.8-2.23-17.18-2,17.18Z"
                transform="translate(0)" fill="#212121" />
            <path d="M140.43,215.09,136,247.68h-5l-4.41-32.59h3.63l3.24,28.27,3.32-28.27Z"
                transform="translate(0)" fill="#212121" />
            <path
                d="M150.66,240.13h-5.15l-.9,7.55H141.1l4.33-32.59h5.12l4.64,32.59h-3.55Zm-.47-3.8L148,219.15l-2,17.18Z"
                transform="translate(0)" fill="#212121" />
            <path d="M169.64,215.09v32.59h-3.55l-5.16-23.53v23.53h-3.24V215.09h3.71l5,22.86V215.09Z"
                transform="translate(0)" fill="#212121" />
            <path d="M185.65,215.09v32.59H182.1l-5.16-23.53v23.53H173.7V215.09h3.71l5,22.86V215.09Z"
                transform="translate(0)" fill="#212121" />
            <path
                d="M197.72,240.13h-5.16l-.9,7.55h-3.51l4.33-32.59h5.12l4.65,32.59h-3.56Zm-.47-3.8L195,219.15l-2,17.18Z"
                transform="translate(0)" fill="#212121" />
            <path
                d="M42.64,165.28h-1.8a.62.62,0,0,1-.56-.3,1.61,1.61,0,0,1-.18-.82,1.39,1.39,0,0,1,.44-1.09,1.79,1.79,0,0,1,1.22-.39h7.52c.35,0,.52.22.52.65,0,.72-.46,1.2-1.37,1.43l-1.84.48,6.49,22.21c.15.52.27,1.05.37,1.59s.16.87.18,1h.19c0-.15.08-.49.16-1a10.85,10.85,0,0,1,.39-1.59l6.71-22.17H58.87a.65.65,0,0,1-.57-.3,1.42,1.42,0,0,1-.2-.82,1.35,1.35,0,0,1,.44-1.09,1.77,1.77,0,0,1,1.22-.39h6.6c.34,0,.51.22.51.65s-.34,1-1,1.26l-1.88.69-8.48,27.55H51.05Z"
                transform="translate(0)" fill="#212121" />
            <path
                d="M76.33,192a9.54,9.54,0,0,1-3.76-4.12,14.55,14.55,0,0,1-1.34-6.53V165.28H69.38a.61.61,0,0,1-.55-.3,1.51,1.51,0,0,1-.19-.82,1.36,1.36,0,0,1,.45-1.09,1.76,1.76,0,0,1,1.21-.39h7c.34,0,.52.22.52.65,0,.67-.4,1.11-1.18,1.35l-1.74.56v16.44c0,2.87.63,5,1.88,6.56a6.52,6.52,0,0,0,5.28,2.25,6.66,6.66,0,0,0,5.35-2.25c1.27-1.51,1.91-3.69,1.91-6.56v-16.4H87.19a.61.61,0,0,1-.55-.3,1.61,1.61,0,0,1-.18-.82,1.35,1.35,0,0,1,.44-1.09,1.77,1.77,0,0,1,1.22-.39h6.3c.35,0,.52.2.52.61s-.37.91-1.11,1.26l-1.58.69v16.1c0,3.84-.93,6.82-2.79,8.91a9.54,9.54,0,0,1-7.54,3.15A10.9,10.9,0,0,1,76.33,192Z"
                transform="translate(0)" fill="#212121" />
            <path
                d="M98.7,192.53a1.5,1.5,0,0,1-.18-.78,1.41,1.41,0,0,1,.44-1.13,1.77,1.77,0,0,1,1.22-.39h.95V165.37l-1-.3a4.76,4.76,0,0,1-1.31-.61,1.08,1.08,0,0,1-.39-.91c0-.58.2-.87.59-.87H110.1a8.9,8.9,0,0,1,6.23,2.08q2.28,2.09,2.28,6.21t-2.28,6.14a9.11,9.11,0,0,1-6.23,2h-.82l8.82,11.2,1.84.56c.81.26,1.22.7,1.22,1.3,0,.44-.17.65-.52.65H115l-10.18-13.66v11.1l1.7.57a1.92,1.92,0,0,1,.9.54,1.18,1.18,0,0,1,.28.8c0,.44-.17.65-.52.65H99.25A.61.61,0,0,1,98.7,192.53Zm11.14-16a4.83,4.83,0,0,0,3.76-1.43,7.23,7.23,0,0,0,0-8.27,4.8,4.8,0,0,0-3.74-1.45h-5v11.15Z"
                transform="translate(0)" fill="#212121" />
            <path
                d="M124,192.53a1.5,1.5,0,0,1-.19-.78,1.42,1.42,0,0,1,.45-1.13,1.76,1.76,0,0,1,1.21-.39h.93V165.28h-1.85a.61.61,0,0,1-.55-.3,1.6,1.6,0,0,1-.19-.82,1.36,1.36,0,0,1,.45-1.09,1.76,1.76,0,0,1,1.21-.39h7c.34,0,.52.22.52.65,0,.64-.4,1.09-1.18,1.35l-1.74.56v10.5H143.4V165.28h-2a.59.59,0,0,1-.55-.3,1.51,1.51,0,0,1-.19-.82,1.39,1.39,0,0,1,.44-1.09,1.79,1.79,0,0,1,1.22-.39h7c.32,0,.48.22.48.65a1.25,1.25,0,0,1-.22.76,1.91,1.91,0,0,1-.74.5l-1.73.65v25l1.73.66a1.9,1.9,0,0,1,.74.49,1.27,1.27,0,0,1,.22.76c0,.44-.16.65-.48.65h-7.93a.59.59,0,0,1-.55-.3,1.41,1.41,0,0,1-.19-.78,1.45,1.45,0,0,1,.44-1.13,1.79,1.79,0,0,1,1.22-.39h1.11V178.6H130.08v11.67l1.74.57c.78.23,1.18.68,1.18,1.34,0,.44-.18.65-.52.65h-7.93A.61.61,0,0,1,124,192.53Z"
                transform="translate(0)" fill="#212121" />
            <path
                d="M158.72,191.68a11.24,11.24,0,0,1-4.24-5.22,25.39,25.39,0,0,1,0-17.36,11.28,11.28,0,0,1,21,0,25.39,25.39,0,0,1,0,17.36,11.24,11.24,0,0,1-4.24,5.22,12.22,12.22,0,0,1-12.5,0Zm12.37-4.44q2.15-3.3,2.14-9.46t-2.14-9.46a7.32,7.32,0,0,0-12.29,0q-2.13,3.35-2.13,9.46t2.13,9.46a7.37,7.37,0,0,0,12.29,0Z"
                transform="translate(0)" fill="#212121" />
            <path
                d="M180.43,192.53a1.41,1.41,0,0,1-.19-.78,1.45,1.45,0,0,1,.44-1.13,1.79,1.79,0,0,1,1.22-.39h1V165.5l-1-.3a3.28,3.28,0,0,1-1.25-.61,1.3,1.3,0,0,1-.37-1,1,1,0,0,1,.19-.69.54.54,0,0,1,.44-.22h5.38l11.77,20a25.55,25.55,0,0,1,2.1,4.73V165.28h-2.18a.61.61,0,0,1-.55-.3,1.61,1.61,0,0,1-.18-.82,1.35,1.35,0,0,1,.44-1.09,1.77,1.77,0,0,1,1.22-.39h6.34c.34,0,.52.22.52.65a1.06,1.06,0,0,1-.36.78,2.59,2.59,0,0,1-.94.57l-1.47.56v27.59h-3.43l-12.1-20.52a21.62,21.62,0,0,1-1.77-4.12v22.08l1.92.61c.79.26,1.18.7,1.18,1.3,0,.44-.17.65-.52.65H181A.59.59,0,0,1,180.43,192.53Z"
                transform="translate(0)" fill="#212121" />
            <path
                d="M215.59,191.68a11.53,11.53,0,0,1-4.55-5.25,23.61,23.61,0,0,1-.06-17.24,12.12,12.12,0,0,1,4.35-5.3,11.16,11.16,0,0,1,6.18-1.77,12.7,12.7,0,0,1,4.83.89,10.89,10.89,0,0,1,3.69,2.36v5.29c0,.52-.24.78-.7.78a.91.91,0,0,1-.78-.43,4.14,4.14,0,0,1-.48-1.39l-.59-3a6.8,6.8,0,0,0-2.28-1.19,9.72,9.72,0,0,0-3.06-.46,7.73,7.73,0,0,0-6.57,3.32q-2.43,3.31-2.43,9.44a18.93,18.93,0,0,0,1.14,7,9.53,9.53,0,0,0,3.19,4.36,8,8,0,0,0,4.74,1.48,8.79,8.79,0,0,0,4.28-1v-9.29H223c-.49,0-.74-.36-.74-1.08a1.4,1.4,0,0,1,.44-1.09,1.79,1.79,0,0,1,1.22-.39h8.56c.34,0,.51.22.51.65a1.12,1.12,0,0,1-.26.78,1.86,1.86,0,0,1-.88.52l-1.62.61v11a13.1,13.1,0,0,1-3.8,1.6,16.73,16.73,0,0,1-4.24.57A12.54,12.54,0,0,1,215.59,191.68Z"
                transform="translate(0)" fill="#212121" />
            <path
                d="M233.72,192.53a1.41,1.41,0,0,1-.19-.78,1.45,1.45,0,0,1,.44-1.13,1.79,1.79,0,0,1,1.22-.39h.89l8.55-27.55h4.13l8.59,27.59,1.52.44a1.72,1.72,0,0,1,.9.5,1.22,1.22,0,0,1,.28.84q0,.78-.48.78h-8.23a.66.66,0,0,1-.57-.3,1.41,1.41,0,0,1-.2-.78,1.45,1.45,0,0,1,.44-1.13,1.79,1.79,0,0,1,1.22-.39h1.36l-2.14-6.9H241l-2.1,6.94,2.14.61a2,2,0,0,1,1,.48,1.08,1.08,0,0,1,.28.78q0,.69-.48.69h-7.52A.59.59,0,0,1,233.72,192.53Zm16.85-12-4.35-14.19-4.35,14.19Z"
                transform="translate(0)" fill="#212121" />
        </g>
        <g id="arrowsline">
            <line x1="72.08" y1="204.23" x2="227.92" y2="204.23" fill="none" stroke="#212121"
                stroke-miterlimit="10" />
            <polygon points="74.06 207.14 63.23 204.24 74.06 201.33 74.06 207.14" fill="#212121" />
            <polygon points="225.94 207.14 236.78 204.24 225.94 201.33 225.94 207.14"
                fill="#212121" />
        </g>
        <g id="lines">
            <line x1="131.02" y1="149.46" x2="49.67" y2="149.46" fill="none" stroke="#212121"
                stroke-miterlimit="10" />
            <line x1="135.36" y1="141.59" x2="49.67" y2="141.59" fill="none" stroke="#212121"
                stroke-miterlimit="10" />
            <line x1="133.73" y1="133.73" x2="49.67" y2="133.73" fill="none" stroke="#212121"
                stroke-miterlimit="10" />
            <line x1="250.33" y1="133.73" x2="154.88" y2="133.73" fill="none" stroke="#212121"
                stroke-miterlimit="10" />
            <line x1="250.33" y1="149.46" x2="158.14" y2="149.46" fill="none" stroke="#212121"
                stroke-miterlimit="10" />
            <line x1="250.38" y1="141.59" x2="156.01" y2="141.59" fill="none" stroke="#212121"
                stroke-miterlimit="10" />
        </g>
        <g id="tree">
            <path
                d="M132.5,119.27a64.56,64.56,0,0,1-8.13-6,27.72,27.72,0,0,1-3.58-3.75,30.45,30.45,0,0,0-3.11-3.59,46.43,46.43,0,0,0-7.45-6,18.4,18.4,0,0,0-4.18-2.1c-1.52-.5-3.11-.92-4.69-1.35L91.84,93.9c-1.59-.44-3.17-.89-4.75-1.38a24.52,24.52,0,0,1-4.67-1.85C77,87,71.59,83.21,66.21,79.45,71.73,83,77.25,86.58,82.82,90a24.3,24.3,0,0,0,4.54,1.57c1.58.42,3.17.8,4.77,1.17l9.61,2.13c1.61.37,3.21.72,4.84,1.18a19.87,19.87,0,0,1,4.69,2.1,48.91,48.91,0,0,1,8.09,6,33.09,33.09,0,0,1,3.49,3.71,25.65,25.65,0,0,0,3.36,3.21,60.59,60.59,0,0,0,7.93,5.36Z"
                transform="translate(0)" fill="#212121" />
            <path
                d="M134.35,116.27c-.77-2-1.59-4.08-2.45-6.09a57.72,57.72,0,0,0-2.82-5.8c-.13-.21-.27-.4-.41-.61l-.48-.66-1-1.35a33.42,33.42,0,0,1-1.88-2.85,16.12,16.12,0,0,1-1.45-3.21,7.14,7.14,0,0,1-.24-3.74,10.73,10.73,0,0,1,1.43-3.27A8.33,8.33,0,0,0,126.41,86a5.8,5.8,0,0,0-.47-2.88c-.33-1-.75-2-1.19-3s-.89-2-1.27-3.09a16.23,16.23,0,0,1-.78-3.31,52.69,52.69,0,0,1-.5-6.63c.48,2.16.88,4.34,1.37,6.47a24.08,24.08,0,0,0,2.3,6c.48,1,1,2,1.36,3.08a7.08,7.08,0,0,1,.67,3.57,9.44,9.44,0,0,1-1.42,3.29,9.07,9.07,0,0,0-1.1,2.8c-.32,1.78.57,3.78,1.67,5.55a30.39,30.39,0,0,0,1.84,2.63l1,1.29.51.65c.18.25.37.51.53.76a49.89,49.89,0,0,1,3.1,6c.91,2,1.77,4.08,2.59,6.15Z"
                transform="translate(0)" fill="#212121" />
            <polygon points="114.34 66.89 123.79 74.62 123.06 75.42 114.34 66.89" fill="#212121" />
            <path
                d="M137.36,115.83l.67-9.35.06.33h0l-1.78-5.34c-.15-.42-.29-.93-.46-1.3a9.12,9.12,0,0,0-.61-1.14c-.5-.77-1-1.54-1.6-2.28-2.27-3-4.76-5.82-7.29-8.61,2.77,2.56,5.49,5.18,8.05,8,.64.7,1.26,1.44,1.85,2.21a8.44,8.44,0,0,1,.83,1.27c.26.47.4.88.6,1.32l2.27,5.22h0l0,.09v.25l.67,9.35Z"
                transform="translate(0)" fill="#212121" />
            <path
                d="M159,67.45c-1.45,2-3,3.89-4.62,5.74-.81.93-1.65,1.83-2.53,2.71a16.58,16.58,0,0,1-2.9,2.41c-2.13,1.27-4.26,2.43-6.25,3.82a26.84,26.84,0,0,0-2.84,2.2A5.61,5.61,0,0,0,138,87l-.12.72-.58-.35a37.82,37.82,0,0,1-5.35-4,18.23,18.23,0,0,1-2.35-2.51,15.07,15.07,0,0,1-1.33-3.17c-.68-2.12-1.19-4.28-1.71-6.43s-.93-4.32-1.34-6.49c.58,2.13,1.21,4.24,1.84,6.36s1.29,4.22,2.05,6.27a14.14,14.14,0,0,0,1.32,2.88,16.61,16.61,0,0,0,2.3,2.19c1.66,1.41,3.43,2.72,5.09,4.17l-.71.36a3.26,3.26,0,0,1,.68-2,10.06,10.06,0,0,1,1.31-1.44,23.16,23.16,0,0,1,3-2.29c2.07-1.37,4.24-2.58,6.38-3.73A32.25,32.25,0,0,0,154,72.82C155.67,71.09,157.34,69.28,159,67.45Z"
                transform="translate(0)" fill="#212121" />
            <path
                d="M137.09,103.58a36.2,36.2,0,0,0,1-4,15.57,15.57,0,0,0,.3-4c-.06-.6-.2-1.38-.31-2.07l-.34-2.12L137,87V87a24.08,24.08,0,0,1,.44-4.33,13.25,13.25,0,0,1,.59-2.11,2.31,2.31,0,0,0-.35-1.79,15.46,15.46,0,0,0-2.66-3.24,35.58,35.58,0,0,0-3.23-2.78,37,37,0,0,1,3.39,2.59,15.53,15.53,0,0,1,2.93,3.17,2.87,2.87,0,0,1,.51,2.26,11.66,11.66,0,0,0-.44,2,24.23,24.23,0,0,0-.19,4.17v-.07l.92,4.18.46,2.09c.15.72.31,1.34.45,2.15a18.26,18.26,0,0,1,0,4.5,38,38,0,0,1-.79,4.34Z"
                transform="translate(0)" fill="#212121" />
            <path
                d="M126.21,100.11a84.54,84.54,0,0,0-8.51-4.93,8.86,8.86,0,0,0-1.08-.45l-.62-.22a4.21,4.21,0,0,1-.64-.31,12,12,0,0,1-2.11-1.56,26,26,0,0,1-3.41-3.79,11.67,11.67,0,0,1-.71-1.07,4.27,4.27,0,0,1-.58-1.27,2.68,2.68,0,0,0-1.23-1.73,10.66,10.66,0,0,0-4.45-1.8,13.52,13.52,0,0,1-4.71-1.69,14.56,14.56,0,0,1-3.66-3.38,14.35,14.35,0,0,0,3.78,3.17A12.86,12.86,0,0,0,103,82.5a11.57,11.57,0,0,1,4.79,1.68,4.91,4.91,0,0,1,1,.88,2.68,2.68,0,0,1,.64,1.28,4.07,4.07,0,0,0,.51,1,10.92,10.92,0,0,0,.72,1,24.18,24.18,0,0,0,3.42,3.44A10.61,10.61,0,0,0,116,93a4.12,4.12,0,0,0,.5.21l.56.16c.44.13.84.29,1.24.45a84.83,84.83,0,0,1,9,4.59Z"
                transform="translate(0)" fill="#212121" />
            <path
                d="M83.7,77.46a80.73,80.73,0,0,0,5.52,6.4c.49.49,1,1,1.52,1.41.26.22.54.42.8.62a3,3,0,0,0,.76.59,18.23,18.23,0,0,0,4,.71,64.39,64.39,0,0,1,8.49,1.07,6.8,6.8,0,0,1,2.14.87,7,7,0,0,0,1.75.86,11.15,11.15,0,0,0,3.91.55l.07,1.44a12.44,12.44,0,0,1-4.41-.8,8.83,8.83,0,0,1-2-1.07,6,6,0,0,0-1.75-.75,67,67,0,0,0-8.29-1.24A18,18,0,0,1,92,87.25a10,10,0,0,1-1-.51,8.45,8.45,0,0,1-.84-.73c-.52-.51-1-1-1.47-1.59A53.89,53.89,0,0,1,83.7,77.46Z"
                transform="translate(0)" fill="#212121" />
            <path
                d="M92.15,77.91a24.78,24.78,0,0,0-2.33,2.7,9.74,9.74,0,0,0-.92,1.5,2,2,0,0,0-.24,1.46l-.56.26a2.35,2.35,0,0,1,.39-1.94,10,10,0,0,1,1.09-1.47A24.36,24.36,0,0,1,92.15,77.91Z"
                transform="translate(0)" fill="#212121" />
            <path
                d="M72.67,79.45a20.94,20.94,0,0,0,3.93,2.89,22.5,22.5,0,0,0,4.43,2,20.59,20.59,0,0,0,4.7,1,23.13,23.13,0,0,0,4.78,0l.11,1.18a24.56,24.56,0,0,1-5-.25,22,22,0,0,1-4.8-1.31,23.06,23.06,0,0,1-4.38-2.28A21,21,0,0,1,72.67,79.45Z"
                transform="translate(0)" fill="#212121" />
            <path
                d="M112.6,101a6.55,6.55,0,0,0-2.21-4.87,5.07,5.07,0,0,0-1.18-.73c-.39-.21-1-.41-1.44-.66A17,17,0,0,1,105,93a16.5,16.5,0,0,1-2.39-2.18,8.57,8.57,0,0,1-1.77-2.73,23.4,23.4,0,0,1-.53-3.14,11.09,11.09,0,0,0-.32-1.52,2.41,2.41,0,0,0-.79-1.31,2.42,2.42,0,0,1,.91,1.26,11.66,11.66,0,0,1,.45,1.53,23.23,23.23,0,0,0,.75,3,8.2,8.2,0,0,0,1.84,2.38,16.19,16.19,0,0,0,2.42,1.88,16.41,16.41,0,0,0,2.7,1.39c.49.21.91.3,1.47.53a6.34,6.34,0,0,1,1.55.8,7.22,7.22,0,0,1,2.3,2.64,9.05,9.05,0,0,1,1,3.38Z"
                transform="translate(0)" fill="#212121" />
            <path
                d="M123.51,92a11.76,11.76,0,0,0-1.07-6.52,5,5,0,0,0-1-1.24l-1.37-1.17c-.92-.79-1.84-1.61-2.69-2.5a14.43,14.43,0,0,1-2.23-3,10.5,10.5,0,0,1-1.18-3.5,28.81,28.81,0,0,1-.26-7.24,28.6,28.6,0,0,0,.65,7.16A10.84,10.84,0,0,0,118,79.94c.88.79,1.82,1.52,2.79,2.23l1.47,1.08a6.26,6.26,0,0,1,1.38,1.48,10.25,10.25,0,0,1,1.46,3.61,16.85,16.85,0,0,1,.38,3.84Z"
                transform="translate(0)" fill="#212121" />
            <path
                d="M123.47,93.23a5.81,5.81,0,0,0-.44-.73c-.19-.26-.4-.53-.62-.78a13.71,13.71,0,0,0-1.49-1.46,29.3,29.3,0,0,0-3.47-2.52,17.21,17.21,0,0,1-3.63-2.94,9.29,9.29,0,0,1-2.31-4.2,7.89,7.89,0,0,1-.16-2.42,4.16,4.16,0,0,0,0-.44,2.25,2.25,0,0,0-.09-.4,4.62,4.62,0,0,0-.4-.89,15.27,15.27,0,0,0-2.76-3.23,14.1,14.1,0,0,0-1.67-1.35,15.22,15.22,0,0,0-1.94-1c-1.36-.59-2.71-1.21-4-1.87,1.42.42,2.84.86,4.25,1.33l1.06.35a5.26,5.26,0,0,1,1.08.45,14.46,14.46,0,0,1,1.91,1.28,15.05,15.05,0,0,1,3.17,3.34,5.52,5.52,0,0,1,.57,1.11,3.38,3.38,0,0,1,.18.68,3.85,3.85,0,0,1,0,.67,6.6,6.6,0,0,0,.24,2c.75,2.59,3,4.54,5.45,5.93a26,26,0,0,1,3.78,2.61,17.48,17.48,0,0,1,1.71,1.63,12.06,12.06,0,0,1,.77.94,5.93,5.93,0,0,1,.69,1.18Z"
                transform="translate(0)" fill="#212121" />
            <path
                d="M110.61,68.15a7.79,7.79,0,0,0-2.2,2,2,2,0,0,0-.41,1.24,1.58,1.58,0,0,0,.6,1L108,73a2.38,2.38,0,0,1-.63-1.64,2.52,2.52,0,0,1,.71-1.51A8,8,0,0,1,110.61,68.15Z"
                transform="translate(0)" fill="#212121" />
            <path
                d="M112.23,82.56c-.58-.34-1.1-.67-1.63-1s-1-.76-1.54-1.17a10.82,10.82,0,0,1-1.39-1.4,3.25,3.25,0,0,1-.85-2v.08a17.76,17.76,0,0,1-.21-2.82,8.18,8.18,0,0,1,.12-1.4,2.74,2.74,0,0,1,.51-1.3,2.64,2.64,0,0,0-.3,1.32,7.78,7.78,0,0,0,.1,1.36,16.86,16.86,0,0,0,.61,2.64V77a2.44,2.44,0,0,0,.84,1.23,10.48,10.48,0,0,0,1.4,1q.75.45,1.56.84c.53.26,1.09.51,1.62.71Z"
                transform="translate(0)" fill="#212121" />
            <path
                d="M121.45,90.25a16.85,16.85,0,0,1-4,0,8.19,8.19,0,0,1-2-.44,4.27,4.27,0,0,1-1.79-1.15,7.82,7.82,0,0,1-1.45-3.63,18.84,18.84,0,0,1-.27-3.74,19.07,19.07,0,0,0,.75,3.62,7,7,0,0,0,1.69,3,4.77,4.77,0,0,0,3.13.8,14.83,14.83,0,0,0,3.46-.51Z"
                transform="translate(0)" fill="#212121" />
            <path
                d="M146.45,130.62a43.74,43.74,0,0,1,4.26-4.85,23.43,23.43,0,0,1,2.47-2.16,13.27,13.27,0,0,1,2.95-1.77c.58-.26,1-.39,1.52-.58l1.46-.52c1-.35,1.93-.71,2.86-1.1a14.37,14.37,0,0,0,4.85-2.87,3,3,0,0,0,.36-.46,1.82,1.82,0,0,0,.15-.23l.18-.34c.25-.46.52-.94.8-1.41a18.78,18.78,0,0,1,1.95-2.69,22.12,22.12,0,0,1,5-4.22,46.47,46.47,0,0,1,11.71-5c4-1.2,8.09-2.16,12.14-3.1s8.13-1.81,12-3a13.33,13.33,0,0,0,2.72-1.1,26.86,26.86,0,0,0,2.41-1.83c1.57-1.33,3.07-2.75,4.56-4.18s2.91-3,4.27-4.5a9.53,9.53,0,0,0,2.57-5.5,9.78,9.78,0,0,1-2.18,5.8c-1.25,1.69-2.61,3.27-4,4.82s-2.86,3-4.42,4.47a27.58,27.58,0,0,1-2.48,2,13.91,13.91,0,0,1-3,1.37c-4,1.37-8.06,2.28-12.08,3.34s-8,2.08-11.95,3.35a46.27,46.27,0,0,0-11.06,5,19.82,19.82,0,0,0-4.44,3.85,17.13,17.13,0,0,0-1.67,2.37c-.24.43-.47.86-.71,1.32l-.18.35a3.78,3.78,0,0,1-.26.43,5.21,5.21,0,0,1-.59.77,11.26,11.26,0,0,1-2.77,2.15A27.34,27.34,0,0,1,163,122c-1,.42-2,.8-3,1.17l-1.47.53c-.47.18-1,.36-1.39.54a10.58,10.58,0,0,0-2.36,1.45,22.51,22.51,0,0,0-2.21,2,41.36,41.36,0,0,0-3.93,4.55Z"
                transform="translate(0)" fill="#212121" />
            <path
                d="M220.57,89.72a17.65,17.65,0,0,1-.31-2.79,7,7,0,0,1,.37-2.82,3,3,0,0,1,.38-.63c.13-.18.25-.36.37-.55.23-.38.43-.78.63-1.18a22.07,22.07,0,0,0,1-2.53,20.15,20.15,0,0,1-.74,2.63c-.16.43-.33.85-.53,1.27a8.5,8.5,0,0,0-.58,1.18,6.29,6.29,0,0,0,0,2.56,17,17,0,0,0,.6,2.56Z"
                transform="translate(0)" fill="#212121" />
            <path
                d="M178.14,106.13a38.31,38.31,0,0,1,2.87-4.34,11.71,11.71,0,0,1,1.89-2,9.41,9.41,0,0,1,2.52-1.23,7.52,7.52,0,0,0,2-1,5.08,5.08,0,0,0,1.36-1.66,9.54,9.54,0,0,1,1.53-2.25,8.2,8.2,0,0,1,2.23-1.62c1.59-.79,3.16-1.34,4.72-2s3.1-1.26,4.6-2a25.59,25.59,0,0,0,4.28-2.55,8.34,8.34,0,0,0,3.08-3.84,8.43,8.43,0,0,1-2.78,4.2,25.74,25.74,0,0,1-4.18,2.93c-2.95,1.7-6.18,3-9.06,4.46a6.61,6.61,0,0,0-3,3.38,6.52,6.52,0,0,1-1.73,2.28,9.31,9.31,0,0,1-2.45,1.31,7.68,7.68,0,0,0-2,1,10.67,10.67,0,0,0-1.53,1.71,35.39,35.39,0,0,0-2.65,4.13Z"
                transform="translate(0)" fill="#212121" />
            <path
                d="M195.39,90.87a32.88,32.88,0,0,0,2.84-4.23,16.13,16.13,0,0,0,1.07-2.31,5,5,0,0,0,.35-2.5,5.09,5.09,0,0,1,0,2.6,16.13,16.13,0,0,1-.77,2.51,34.39,34.39,0,0,1-2.32,4.72Z"
                transform="translate(0)" fill="#212121" />
            <path
                d="M193.23,100.88A40.19,40.19,0,0,1,197,97.36a17.89,17.89,0,0,1,4.37-2.75A9.35,9.35,0,0,0,205,91.5a9.86,9.86,0,0,0,1.22-2.14,3.87,3.87,0,0,0,.36-2.41,4,4,0,0,1-.12,2.5,10.49,10.49,0,0,1-1,2.32,10,10,0,0,1-3.58,3.73,16.61,16.61,0,0,0-3.82,3,38.55,38.55,0,0,0-3.22,3.68Z"
                transform="translate(0)" fill="#212121" />
            <path
                d="M154.68,123.48a83.65,83.65,0,0,1,.85-8.33,27.9,27.9,0,0,1,.95-4.18,8.06,8.06,0,0,1,1-2.16,3.89,3.89,0,0,1,.52-.57l.34-.29c.22-.22.44-.44.65-.68a27.08,27.08,0,0,0,2.37-3.18,22.47,22.47,0,0,0,1.9-3.43c.05-.14.11-.28.13-.37l0-.08,0-.15c0-.1,0-.21.08-.3a6.48,6.48,0,0,1,.42-1.12,9.72,9.72,0,0,1,1.24-1.92,16.49,16.49,0,0,1,3.21-2.94c2.29-1.61,4.61-3.07,7-4.54s4.73-2.87,7.22-4.1a22.32,22.32,0,0,1,3.9-1.6,5,5,0,0,1,1.09-.17c.34,0,.67,0,1-.07a19.49,19.49,0,0,0,2-.36c2.66-.63,5.27-1.59,7.94-2.26-2.62.85-5.15,1.94-7.82,2.72a20.15,20.15,0,0,1-2,.48,9.41,9.41,0,0,1-1.05.13,3.79,3.79,0,0,0-.93.21A21.48,21.48,0,0,0,183.06,86c-4.69,2.79-9.23,6-13.62,9.17a15,15,0,0,0-2.81,2.69,8.07,8.07,0,0,0-1,1.57,4.47,4.47,0,0,0-.29.82l-.11.47a3.81,3.81,0,0,1-.19.62,24,24,0,0,1-2,3.84,25.39,25.39,0,0,1-2.53,3.47c-.24.27-.51.54-.78.81l-.43.39a1.25,1.25,0,0,0-.17.2,5.9,5.9,0,0,0-.7,1.57,29.28,29.28,0,0,0-.87,3.88c-.45,2.66-.74,5.39-.93,8.09Z"
                transform="translate(0)" fill="#212121" />
            <path
                d="M170.58,92.62a16.09,16.09,0,0,1,2.68-3.76A12.65,12.65,0,0,1,175,87.28a6,6,0,0,1,2.25-.85,15.65,15.65,0,0,1,4.54.08c.74.1,1.47.2,2.19.27a3.74,3.74,0,0,0,2-.21,4.33,4.33,0,0,0,2.36-3.25,3.67,3.67,0,0,0-.25-2.07,7,7,0,0,1-.47-2.2,43.54,43.54,0,0,1,.52-8.84,44.05,44.05,0,0,0-.28,8.81,7,7,0,0,0,.51,2.1,4.06,4.06,0,0,1,.37,2.25,4.82,4.82,0,0,1-2.5,3.73,3.18,3.18,0,0,1-1.16.35,7.53,7.53,0,0,1-1.16,0c-.75,0-1.49-.12-2.22-.18a14.83,14.83,0,0,0-4.27.09,4.81,4.81,0,0,0-1.84.78,10.69,10.69,0,0,0-1.46,1.47,15.2,15.2,0,0,0-2.31,3.51Z"
                transform="translate(0)" fill="#212121" />
            <path
                d="M142.68,116.6c1.54-2,3.1-3.91,4.72-5.8a73.18,73.18,0,0,1,5.11-5.48,16.27,16.27,0,0,1,3-2.38c1.12-.61,2.21-1.12,3.31-1.69l6.61-3.32-6.23,4c-1,.66-2.11,1.32-3.09,2a15,15,0,0,0-2.52,2.46,70.42,70.42,0,0,0-4.4,5.82c-1.39,2-2.73,4.06-4,6.12Z"
                transform="translate(0)" fill="#212121" />
            <path
                d="M156.76,110.69c-.35-2.15-.59-4.28-.78-6.44a46.11,46.11,0,0,1-.17-6.56,10.13,10.13,0,0,1,.73-3.54,5,5,0,0,1,1.31-1.53c.44-.38.88-.72,1.32-1.05,1.78-1.29,3.6-2.41,5.39-3.57.89-.58,1.78-1.16,2.64-1.77a15.63,15.63,0,0,0,2.32-1.87c.06-.08.13-.16.16-.21l.06-.1.1-.19c.13-.26.28-.51.43-.75a15.19,15.19,0,0,1,1-1.37,22.63,22.63,0,0,1,2.21-2.48,10.54,10.54,0,0,1,1.32-1.1,1.3,1.3,0,0,0,.26-.39,5.87,5.87,0,0,0,.29-.67,24.34,24.34,0,0,0,.81-3,22.7,22.7,0,0,0,.61-6.31,10.8,10.8,0,0,1,.39,3.2,25,25,0,0,1-.14,3.24,21.51,21.51,0,0,1-.55,3.24,6.75,6.75,0,0,1-.28.83,2.21,2.21,0,0,1-.63.93,11.66,11.66,0,0,0-1,1.06,28.12,28.12,0,0,0-1.9,2.45c-.28.43-.57.85-.82,1.29-.12.21-.25.43-.35.65l-.08.16-.14.26a4,4,0,0,1-.31.43,16.49,16.49,0,0,1-2.58,2.25c-.87.65-1.76,1.27-2.64,1.88-1.76,1.22-3.54,2.41-5.2,3.66-.41.31-.82.63-1.19,1a3.14,3.14,0,0,0-.79.86,8.56,8.56,0,0,0-.48,2.72,86.16,86.16,0,0,0,.74,12.57Z"
                transform="translate(0)" fill="#212121" />
            <path
                d="M170,84.27l4.49-1.48a43.74,43.74,0,0,0,4.38-1.6,5.68,5.68,0,0,0,.95-.51,2.33,2.33,0,0,0,.26-.21,4.62,4.62,0,0,0,.18-.48c.23-.73.44-1.5.67-2.27a14.57,14.57,0,0,1,1.83-4.43,19.54,19.54,0,0,0-1.1,4.6c-.12.78-.22,1.57-.41,2.37a6.25,6.25,0,0,1-.19.65,1.82,1.82,0,0,1-.53.67,7.6,7.6,0,0,1-1.08.73,31.26,31.26,0,0,1-4.45,2c-1.52.53-3,1-4.6,1.4Z"
                transform="translate(0)" fill="#212121" />
            <path
                d="M179.2,81.15c1-.3,2.06-.54,3.06-.87a6.45,6.45,0,0,0,1.38-.63,1.53,1.53,0,0,0,.47-.43,1.64,1.64,0,0,0,.15-.65c.09-1,.07-2.17.22-3.27a5.57,5.57,0,0,1,1.25-3,5.49,5.49,0,0,0-.89,3.06c-.06,1.08.07,2.15.07,3.28a2.26,2.26,0,0,1-.14.94,2.31,2.31,0,0,1-.64.76,7.49,7.49,0,0,1-1.5.89,11.84,11.84,0,0,1-3.22,1Z"
                transform="translate(0)" fill="#212121" />
            <path
                d="M182.26,80.51a7.57,7.57,0,0,1,3.38.64c.25.12.53.38.69.44a1.64,1.64,0,0,0,.74,0,6.84,6.84,0,0,0,1.57-.45,17.1,17.1,0,0,0,2.92-1.57A7.81,7.81,0,0,0,194,77.38a8,8,0,0,1-2.36,2.35,17.48,17.48,0,0,1-2.9,1.7,7,7,0,0,1-1.62.53,1.81,1.81,0,0,1-.92,0c-.35-.16-.47-.3-.74-.41a7.2,7.2,0,0,0-3.16-.42Z"
                transform="translate(0)" fill="#212121" />
            <path
                d="M147.29,111.42a31.69,31.69,0,0,1,.91-6,18.66,18.66,0,0,1,2.4-5.84,5.44,5.44,0,0,1,.53-.68,5.54,5.54,0,0,1,.56-.6c.36-.37.74-.7,1.12-1,.75-.67,1.53-1.31,2.32-1.92a20.81,20.81,0,0,1,5.14-3.19,30.75,30.75,0,0,1-4,4.51l-2,2.12-1,1.06a5.57,5.57,0,0,0-.43.51,4.16,4.16,0,0,0-.36.51,19.11,19.11,0,0,0-2,5.15c-.47,1.85-.88,3.77-1.22,5.66Z"
                transform="translate(0)" fill="#212121" />
            <path
                d="M150.1,100.77c.38-2.88.76-5.79,1-8.66A22.62,22.62,0,0,0,151,88a4.18,4.18,0,0,0-.09-.41l0-.16-.1-.27A8.78,8.78,0,0,1,150.4,86a13.67,13.67,0,0,1-.41-2.34,12.18,12.18,0,0,1,.42-4.71,6.94,6.94,0,0,1,.5-1.18l.27-.46.23-.47c.3-.64.59-1.31.87-2A41.6,41.6,0,0,0,155,66.43c-.23,1.46-.54,2.9-.81,4.35s-.52,2.91-.85,4.37c-.18.72-.35,1.45-.58,2.17l-.2.56c-.07.18-.17.42-.2.53a4.06,4.06,0,0,0-.2.91,18.6,18.6,0,0,0,.06,4.08,11.86,11.86,0,0,0,.38,2,6.76,6.76,0,0,0,.31.93l.09.24.13.37a5.65,5.65,0,0,1,.15.66,20,20,0,0,1,.09,4.68,69.07,69.07,0,0,1-1.26,8.85Z"
                transform="translate(0)" fill="#212121" />
            <path
                d="M137.91,103.45a14.4,14.4,0,0,0,2.77-1.4,4.1,4.1,0,0,0,1.75-1.92,22,22,0,0,1,1.23-3.28c.47-1,1-2.06,1.49-3.06s1.06-2,1.64-3a21.94,21.94,0,0,1,2-2.91,5.14,5.14,0,0,1,1.6-1.16c.53-.28,1-.51,1.57-.74a28.47,28.47,0,0,0,2.93-1.4,4.15,4.15,0,0,0,1.09-.86.85.85,0,0,0,.14-.21s.08-.18.14-.33a5.73,5.73,0,0,1,.39-.83,9,9,0,0,1,2.31-2.79A7.43,7.43,0,0,1,162.21,78c1.12-.22,2.22-.4,3.32-.61a39.06,39.06,0,0,0,6.45-1.5,3.45,3.45,0,0,0,.69-.36.63.63,0,0,0,.21-.25,1.92,1.92,0,0,0,.14-.36,11.8,11.8,0,0,0,.37-1.61c.19-1.1.3-2.21.38-3.33,0,1.12,0,2.24-.11,3.37a9.79,9.79,0,0,1-.27,1.68,3.45,3.45,0,0,1-.14.42,1,1,0,0,1-.3.41,3.45,3.45,0,0,1-.75.49,20.27,20.27,0,0,1-3.2,1.19c-1.08.32-2.17.61-3.26.87s-2.19.52-3.25.8a6.62,6.62,0,0,0-2.67,1.41A7.8,7.8,0,0,0,158,83.05a6.76,6.76,0,0,0-.29.69c0,.12-.08.23-.17.45a3,3,0,0,1-.31.5,5.42,5.42,0,0,1-1.5,1.26,30.75,30.75,0,0,1-3.08,1.56c-.5.23-1,.46-1.46.71a3.82,3.82,0,0,0-1.1.8,20.8,20.8,0,0,0-1.72,2.67c-.54,1-1,1.94-1.53,2.93a35.66,35.66,0,0,0-2.48,6,4.39,4.39,0,0,1-1.08,1.85,9.1,9.1,0,0,1-1.46,1.21,16.58,16.58,0,0,1-3.19,1.64Z"
                transform="translate(0)" fill="#212121" />
            <path
                d="M167.6,77.8a4.31,4.31,0,0,1-.92-2.13,2.18,2.18,0,0,1,.21-1.2,3.75,3.75,0,0,1,.7-.87,8.71,8.71,0,0,0,1.32-1.49,4.94,4.94,0,0,0,.61-1.9,5.26,5.26,0,0,1-.36,2A9.73,9.73,0,0,1,168,74a1.66,1.66,0,0,0-.47,1.58,3.28,3.28,0,0,0,1,1.44Z"
                transform="translate(0)" fill="#212121" />
            <path
                d="M138.42,98.21A8.92,8.92,0,0,0,140.93,95a5,5,0,0,0,.27-.93,6.43,6.43,0,0,1,.41-1.35,8.73,8.73,0,0,1,1.48-2.15A11.16,11.16,0,0,1,151.9,87a17.6,17.6,0,0,0-4.22,1.83,12.11,12.11,0,0,0-3.32,2.86,6.46,6.46,0,0,0-1,1.8,4.58,4.58,0,0,0-.23.9,6.88,6.88,0,0,1-.32,1.34,8,8,0,0,1-1.3,2.31,10.69,10.69,0,0,1-1.85,1.83Z"
                transform="translate(0)" fill="#212121" />
            <path
                d="M147.76,88.3A11.39,11.39,0,0,1,146,85.24a4.5,4.5,0,0,1-.3-1.94c.08-.58.14-1.07.18-1.61a13.77,13.77,0,0,0-.13-3.15,6.36,6.36,0,0,0-1-2.8,12.68,12.68,0,0,0-2.34-2.11c-.87-.67-1.77-1.3-2.65-2a24,24,0,0,1-2.53-2.21,9.77,9.77,0,0,1-1.08-1.31,2.94,2.94,0,0,1-.59-1.57,3.29,3.29,0,0,0,.86,1.36A13.9,13.9,0,0,0,137.56,69c.87.66,1.77,1.28,2.67,1.9L143,72.78A13.61,13.61,0,0,1,145.61,75,7.58,7.58,0,0,1,147,78.31a14.9,14.9,0,0,1,.2,3.46c0,.56-.09,1.17-.15,1.69a3.4,3.4,0,0,0,.22,1.31,10.11,10.11,0,0,0,1.52,2.66Z"
                transform="translate(0)" fill="#212121" />
            <path
                d="M141,72.18a14.55,14.55,0,0,0,.81-1.23q.38-.66.69-1.35a12.59,12.59,0,0,0,.93-2.92,12.83,12.83,0,0,1-.27,3.14c-.11.52-.24,1-.4,1.54a12.66,12.66,0,0,1-.58,1.54Z"
                transform="translate(0)" fill="#212121" />
            <path
                d="M153,74a12.21,12.21,0,0,1,2-.81,13.1,13.1,0,0,1,2-.47,14,14,0,0,1,4.13,0,13.75,13.75,0,0,0-4.05.42,14.32,14.32,0,0,0-1.91.65,10.74,10.74,0,0,0-1.75.92Z"
                transform="translate(0)" fill="#212121" />
            <path
                d="M143.68,81.23a5.77,5.77,0,0,1-1.39-1.07,4.38,4.38,0,0,1-.93-1.46,3.19,3.19,0,0,1-.09-1.67,14,14,0,0,0,.17-1.51,10.53,10.53,0,0,1,.18,1.52A2.68,2.68,0,0,0,142,78.4a3.17,3.17,0,0,0,1,.95,4.73,4.73,0,0,0,1.23.58Z"
                transform="translate(0)" fill="#212121" />
            <path
                d="M138.48,150h11.76c-2.68-9.29-2.05-17.11-1.08-18.28,1.48-1.78-4.73-3.55-5.07-5.85s1-7.21,1.76-8.41c-.79-1.29-4.83-2.51-6.6-2.51s-3-.54-5,1.36a13.6,13.6,0,0,0-2.43,2.65s5,4.32,5.3,5.09c1,2.73,1.08,8.73,2.58,10.22s3.11,3.8,3,6.37A16,16,0,0,1,138.48,150Z"
                transform="translate(0)" fill="#212121" />
            <path
                d="M249.25,77.36c1.69-1.09,16.54,0,16.54,0s-11.07-1.46-11.57-2.3S259,73,259,73s-8.13.53-9,0,4.7-2.56,4.7-2.56-9.22,1.07-10.48,0,4-2.44,4-2.44-6.59-.27-7.5-.75,3.89-2,3.89-2-6.55.69-8.23,0,2.44-2.55,2.44-2.55-16.29,1.34-17.49.38S225.75,61,225.75,61s-12.93,0-13.52-.59,4.07-1.67,4.07-1.67-15.23.16-16.54-.88,4.2-1.91,4.2-1.91-18.11-2.13-19-3,2.17-2,2.17-2-16.37-.82-17.31-1.06,4.06-1.12,4.06-1.12-11.72-.09-13.56-.9,3.94-2.21,3.94-2.21-10.51-.48-11.87-1.2,1.9-1.51,1.9-1.51-3.8.28-11.66.28-11.8-1.32-11.8-1.32,2.67,1.3,1.43,2-9.56-.88-9.56-.88,5.49,1.59,4,2.47-12,0-12,0,4.5,2.74,3.25,3.59-18.16,0-18.16,0,4.37,2.67,3.25,3.11-7.86,0-7.86,0,5.22,2,3.11,2.63-11.39,0-11.39,0,3.77,1.52,2.31,2.16-15.25,0-15.25,0,2.57,1.75,1.62,2.15-9.56,0-9.56,0,4.82,2.27,3.87,2.71-6.37,0-6.37,0,4.33,1.68,3.18,2.15-8.13,0-8.13,0,5,2.87,3.93,3.11-7.46,0-7.46,0,3.5,2,2.51,2.72-8.88,0-8.88,0,4.54,1.8,3.52,2.63-8.45,0-8.45,0,1.79,2.1,1.06,2.71-4.2,0-4.2,0,3.21,1.94,2.58,2.63S34.43,81,34.43,81s15.85-1.59,17.22-.8-4.38,2-4.38,2,8.5,2.21,16.13,1.41l18.94-.95s-4.65-.72-3-1.36,19.12,0,19.12,0-2.85-1.93-2.31-2.39S102.38,77,102.38,77s-8.17-1.48-8-1.91,3.12-1.44,3.12-1.44-2.64-.56-1.73-1.43,6.34-1.84,10.81-2.24a256.67,256.67,0,0,1,27.8-2.15c15.77-.13,32.22,1.54,32.81,2.15,1.08,1.12-1.09,2-1.09,2s15.17.27,16.59,1.35S180.91,76,180.91,76s7.85-.81,9.34.71S187,78.9,187,78.9a61.9,61.9,0,0,1,6.69.65c1.36.38-2.76,2.86-2.76,2.86s5.56-.54,6.91.58-2.51,2.61-2.51,2.61l20.18-.11s-4.85-.69-2.89-2.13S236,82.25,236,82.25c3.94,0,12.16.37,12.16.37s-6.15-2.15-4.47-3.14,7.77,0,7.77,0S247.55,78.45,249.25,77.36Z"
                transform="translate(0)" fill="#212121" />
        </g>
    </g>
    <g id="frame">
        <rect width="300" height="300" fill="none" />
    </g>
</svg>