<svg xmlns="http://www.w3.org/2000/svg" viewBox="0 0 30 30.06"><path d="M15,1.62a51,51,0,0,1,5.86.62A17.89,17.89,0,0,1,24,3.36a1.51,1.51,0,0,1,.89,1.49l-.74,11.68s0,0,0,.08a35,35,0,0,1-1,3.47,14.36,14.36,0,0,1-1.56,3l-.06.09,0,0c-.39.42-2.63,2.64-3.2,3.08S15,28.38,15,28.38h0s-2.85-1.7-3.34-2.08-2.81-2.66-3.2-3.08l0,0-.06-.09a14.36,14.36,0,0,1-1.56-3,35,35,0,0,1-1-3.47s0-.05,0-.08L5.07,4.85A1.51,1.51,0,0,1,6,3.36,17.89,17.89,0,0,1,9.14,2.24,51,51,0,0,1,15,1.62h0m0-.2h0A49.79,49.79,0,0,0,9.1,2,18.25,18.25,0,0,0,5.88,3.18a1.73,1.73,0,0,0-1,1.68l.74,11.68a.36.36,0,0,0,0,.11,32.63,32.63,0,0,0,1,3.5A14.59,14.59,0,0,0,8.2,23.21l.07.09h0l0,.05c.4.43,2.64,2.65,3.24,3.11s3.24,2,3.36,2.09l.1.06.1-.05s2.86-1.71,3.36-2.1,2.84-2.68,3.23-3.11h0l0,0,.07-.1a14.59,14.59,0,0,0,1.59-3.06,32.63,32.63,0,0,0,1-3.5.36.36,0,0,0,0-.11l.74-11.68a1.73,1.73,0,0,0-1-1.68A18.25,18.25,0,0,0,20.9,2,49.79,49.79,0,0,0,15,1.42Z" transform="translate(0)" fill="#212121"/><path d="M15,.4A59.2,59.2,0,0,1,21.15,1a13.8,13.8,0,0,1,3,1,3.09,3.09,0,0,1,1.87,3L25.36,15.1A8.69,8.69,0,0,1,25,17.47a26.2,26.2,0,0,1-.91,3.24,18.18,18.18,0,0,1-1.68,2.95l-.27.34a33.48,33.48,0,0,1-3.37,3.19c-1.13.87-3.8,2.41-3.8,2.41h0s-2.67-1.54-3.8-2.41A33.48,33.48,0,0,1,7.83,24l-.27-.34a18.18,18.18,0,0,1-1.68-2.95A26.2,26.2,0,0,1,5,17.47a8.69,8.69,0,0,1-.33-2.37L4,5.05A3.09,3.09,0,0,1,5.86,2a13.8,13.8,0,0,1,3-1A59.2,59.2,0,0,1,15,.4h0M15,0A57.89,57.89,0,0,0,8.77.62a14.45,14.45,0,0,0-2.9,1l-.17.08A3.49,3.49,0,0,0,3.6,5.08l.64,10.05a9.15,9.15,0,0,0,.34,2.44c0,.14.07.3.12.49a20.57,20.57,0,0,0,.81,2.81,18.23,18.23,0,0,0,1.72,3l.15.19.13.17A33.22,33.22,0,0,0,11,27.51c1.12.87,3.73,2.37,3.84,2.44l.2.11.2-.11c.11-.07,2.71-1.57,3.84-2.44a34,34,0,0,0,3.43-3.24l.15-.2.13-.17a17.83,17.83,0,0,0,1.74-3,20.57,20.57,0,0,0,.81-2.81c.05-.19.08-.35.12-.49a9.16,9.16,0,0,0,.34-2.45l.64-10a3.49,3.49,0,0,0-2.1-3.43l-.17-.08a14.45,14.45,0,0,0-2.9-.95A57.89,57.89,0,0,0,15,0Z" transform="translate(0)" fill="#212121"/><path d="M12.61,8.26,12.2,11h-.49L11.3,8.26h.39L12,10.47l.27-2.21Z" transform="translate(0)" fill="#212121"/><path d="M13.54,10.43H13.1L13,11h-.37l.41-2.73h.51L14,11h-.38Zm0-.38-.18-1.31-.17,1.31Z" transform="translate(0)" fill="#212121"/><path d="M15.1,10.61V11h-.92V8.26h.37v2.35Z" transform="translate(0)" fill="#212121"/><path d="M16.18,10.61V11h-.92V8.26h.38v2.35Z" transform="translate(0)" fill="#212121"/><path d="M17.35,10.61V11h-1V8.26h1v.38h-.6V9.4h.51v.39h-.51v.82Z" transform="translate(0)" fill="#212121"/><path d="M18.26,10.12V11h-.37v-.86l-.48-1.87h.38l.28,1.41.27-1.41h.38Z" transform="translate(0)" fill="#212121"/><path d="M8.82,4.52l-.24,0,.46,1h0l.45-1-.24,0V4.15h1.11v.37l-.25,0L9.33,6.14v.65l.31.07v.37H8.43V6.86l.31-.07V6.11L8,4.56l-.24,0V4.15h1.1Z" transform="translate(0)" fill="#212121"/><path d="M11.74,4.15v.37l-.32.07v1.6a.64.64,0,0,0,.16.46A.59.59,0,0,0,12,6.8a.61.61,0,0,0,.43-.15.64.64,0,0,0,.15-.46V4.59l-.31-.07V4.15h1.21v.37l-.31.07v1.6a1,1,0,0,1-.32.8,1.25,1.25,0,0,1-.85.28A1.23,1.23,0,0,1,11.16,7a1,1,0,0,1-.32-.8V4.59l-.31-.07V4.15h1.21Z" transform="translate(0)" fill="#212121"/><path d="M13.67,6.86,14,6.79V4.59l-.31-.07V4.15h1.19v.37l-.3.07v.82h.26l.56-.86-.17,0V4.15h1.15v.37l-.31.06-.72,1,.81,1.21.29.06v.37H15.27V6.86l.18,0-.56-.89h-.33v.85l.3.07v.37H13.67Z" transform="translate(0)" fill="#212121"/><path d="M19.06,5.71a1.68,1.68,0,0,1-.37,1.12,1.19,1.19,0,0,1-1,.44,1.21,1.21,0,0,1-1-.44,1.73,1.73,0,0,1-.36-1.12v0a1.72,1.72,0,0,1,.36-1.11,1.27,1.27,0,0,1,1.92,0,1.67,1.67,0,0,1,.37,1.11Zm-.58,0a1.44,1.44,0,0,0-.19-.77.62.62,0,0,0-.56-.3.61.61,0,0,0-.55.29,1.5,1.5,0,0,0-.18.78v0a1.45,1.45,0,0,0,.18.78.61.61,0,0,0,.55.3.62.62,0,0,0,.56-.3,1.45,1.45,0,0,0,.19-.78Z" transform="translate(0)" fill="#212121"/><path d="M22.28,4.15v.37L22,4.59V7.23h-.59L20.2,5.16h0V6.79l.31.07v.37H19.29V6.86l.32-.07V4.59l-.32-.07V4.15h.9l1.18,2.07h0V4.59l-.31-.07V4.15h1.21Z" transform="translate(0)" fill="#212121"/><line x1="11.76" y1="11.43" x2="18.24" y2="11.43" fill="none" stroke="#212121" stroke-miterlimit="10" stroke-width="0.1"/><line x1="19.33" y1="8.32" x2="22.57" y2="8.32" fill="none" stroke="#212121" stroke-miterlimit="10" stroke-width="0.1"/><line x1="19.33" y1="8.69" x2="22.57" y2="8.69" fill="none" stroke="#212121" stroke-miterlimit="10" stroke-width="0.1"/><line x1="7.43" y1="8.32" x2="10.67" y2="8.32" fill="none" stroke="#212121" stroke-miterlimit="10" stroke-width="0.1"/><line x1="7.43" y1="8.69" x2="10.67" y2="8.69" fill="none" stroke="#212121" stroke-miterlimit="10" stroke-width="0.1"/><path d="M10.75,19.58a5.4,5.4,0,0,1,1.28.68,9.91,9.91,0,0,1-1.22-2.07,3.26,3.26,0,0,1,.91.66,7.56,7.56,0,0,0-.26-.87,13.84,13.84,0,0,1-1.17-.77,6.33,6.33,0,0,1-.87-.88A13.3,13.3,0,0,1,8.17,17.4,7.37,7.37,0,0,1,6.65,18a5.37,5.37,0,0,0,.26.86,1.54,1.54,0,0,1,.14.83,2.57,2.57,0,0,0,.46.56,2.14,2.14,0,0,0,.73.42,2.1,2.1,0,0,1,.85-.49,3.61,3.61,0,0,1,1.38.13,8,8,0,0,1-.72-.82A2.64,2.64,0,0,1,10.75,19.58ZM7.12,18.3a5.87,5.87,0,0,0,1.27-.11,3.43,3.43,0,0,1-.94,1.22A2.35,2.35,0,0,0,7.12,18.3Zm2.22.75a4.08,4.08,0,0,1-1,1.13,1.8,1.8,0,0,1-.8-.62c.1-.08.45-.47.83-.82s.65-.57.88-.85a1,1,0,0,1-.31.64,2.4,2.4,0,0,0,1.36-.89,2,2,0,0,1-.26,1.2C9.81,19.23,9.63,19.4,9.34,19.05Z" transform="translate(0)" fill="#212121"/><path d="M19.39,20s.53-.8.63-.9a10.31,10.31,0,0,1,.84-.89,3,3,0,0,1-1.61-.63,3.46,3.46,0,0,1-.91-1.31,2.2,2.2,0,0,1-.65,0,4,4,0,0,0,.88-.81s-.06-.15-.47,0a2.71,2.71,0,0,0,.86-.92s0-.12-.37,0a4.36,4.36,0,0,0,.68-1.84A4.64,4.64,0,0,0,20,14.47c-.27,0-.33.1-.33.1a2.73,2.73,0,0,0,.72,1,.68.68,0,0,0-.4,0,2,2,0,0,0,.57.69.87.87,0,0,0-.56.05,4.75,4.75,0,0,0,.68.53.94.94,0,0,0-.42.11,2,2,0,0,0,.32.26A1.06,1.06,0,0,0,21,16.7a.87.87,0,0,0-.42-.07,4.05,4.05,0,0,0,.65-.77s-.08-.09-.32,0a3.17,3.17,0,0,0,.73-1.18,3.65,3.65,0,0,0,.66,1.09c-.22,0-.27.11-.27.11a3.16,3.16,0,0,0,.65.82.43.43,0,0,0-.36.14,2.19,2.19,0,0,0,.65.49.75.75,0,0,0-.36.14,2.34,2.34,0,0,0,.58.62.85.85,0,0,0-.44.14,2.89,2.89,0,0,0,.6.67,2,2,0,0,0-1.41.24c-.85.4-1,.74-1.38.82A7.74,7.74,0,0,1,19.39,20Z" transform="translate(0)" fill="#212121"/><path d="M11.29,22.51a1.08,1.08,0,0,1,.56-.23,1,1,0,0,1-.34-.25.81.81,0,0,0,.25,0,.67.67,0,0,1-.26-.24s0,0,.17,0a2.16,2.16,0,0,1-.38-.44s.05,0,.18,0a1.58,1.58,0,0,1-.36-.71,2.58,2.58,0,0,1-.22.63c.1,0,.12.08.12.08a1.88,1.88,0,0,1-.27.37.29.29,0,0,1,.15,0,.64.64,0,0,1-.22.26c.16,0,.21,0,.21,0a1.75,1.75,0,0,1-.25.2.49.49,0,0,1,.16,0,.84.84,0,0,1-.12.1.4.4,0,0,1-.19-.2.28.28,0,0,1,.16,0,2,2,0,0,1-.25-.29s0,0,.13,0a1.1,1.1,0,0,1-.28-.44,1.49,1.49,0,0,1-.25.41c.08,0,.1,0,.1,0a1,1,0,0,1-.24.31.16.16,0,0,1,.13.06.74.74,0,0,1-.25.18.3.3,0,0,1,.14.06.82.82,0,0,1-.22.23.36.36,0,0,1,.17.05,1.45,1.45,0,0,1-.23.26,1.91,1.91,0,0,0,1-.25C10.9,22.62,11.14,22.63,11.29,22.51Z" transform="translate(0)" fill="#212121"/><path d="M19.07,17.76a2.3,2.3,0,0,1-.74-1.1,1.09,1.09,0,0,1-.76-.15,12.08,12.08,0,0,1-2-1.77c-.33-.46-.4-.71-.73-.86s-.91,0-1.29-.23A4.6,4.6,0,0,1,12.41,13c-.36-.29-.6-.66-1-1s-.63.36-.64.76a13.26,13.26,0,0,1,.06,1.71c-.1.1-1.05-.14-1.14,0a1.55,1.55,0,0,0,.1,1.12c.2.2.94.29,1.22.72A12.45,12.45,0,0,1,12,18.81c.08-1,.48.93.92,2,.12-.88.46,1.26.83,1.83.16-.7.53,1.15.89,1.63a5.83,5.83,0,0,0,.79.86,2.27,2.27,0,0,1,.43-.61c.22-.18.63-.31.79-.52a20.11,20.11,0,0,1,.92-2.22c.36-.43,1.25-1,1.37-1.35a10.74,10.74,0,0,1,1.59-2.05A2.18,2.18,0,0,1,19.07,17.76Zm-5-3.09c-.07,0-.33-.23-.66-.2-.09,0-.18-.25,0-.32a.54.54,0,0,1,.48.18C14,14.38,14.14,14.64,14.08,14.67Z" transform="translate(0)" fill="#212121"/><rect width="30" height="30" fill="none"/></svg>