<!-- Copyright (c) 2022 - 2023 Jan Stehno -->
<svg xmlns="http://www.w3.org/2000/svg" viewBox="0 0 300 300.66"><title>yukonvalley</title><g id="yukonvalley"><g id="inner_border" data-name="inner border"><path d="M150,16.17s41.27,2.19,58.58,6.22c11.85,2.75,23.82,7.62,31.83,11.24a15.26,15.26,0,0,1,8.94,14.86l-7.47,116.79a5.14,5.14,0,0,1-.11.8c-.66,2.95-4.93,21.66-9.76,34.75a147.26,147.26,0,0,1-15.57,30.07l-.68.9-.31.37c-3.93,4.26-26.35,26.42-32.06,30.84-4.94,3.82-33.39,20.82-33.39,20.82h0s-28.45-17-33.39-20.82c-5.71-4.42-28.13-26.58-32.06-30.84l-.31-.37-.68-.9A147.26,147.26,0,0,1,68,200.83c-4.83-13.09-9.1-31.8-9.76-34.75a5.14,5.14,0,0,1-.11-.8L50.65,48.49a15.26,15.26,0,0,1,8.94-14.86c8-3.62,20-8.49,31.83-11.24,17.31-4,58.58-6.22,58.58-6.22h0m0-2h-.1c-.41,0-41.54,2.22-58.93,6.27-12,2.8-24.15,7.73-32.2,11.37A17.34,17.34,0,0,0,48.65,48.62l7.47,116.79a8.24,8.24,0,0,0,.16,1.11c.8,3.55,5,21.93,9.83,35A148.31,148.31,0,0,0,82,232.09l.7.92,0,0,0,0,.09.11.21.26,0,0,0,0C87,237.77,109.42,260,115.39,264.6c4.84,3.74,30.65,19.2,33.58,20.94l1,.61,1-.58c.25-.15,28.58-17.08,33.61-21,6-4.62,28.4-26.83,32.31-31.07l0,0,0,0,.21-.26.09-.11,0,0,0,0,.68-.9a149,149,0,0,0,15.86-30.59c4.82-13.07,9-31.45,9.83-35a8.24,8.24,0,0,0,.16-1.11l7.47-116.79a17.34,17.34,0,0,0-10.12-16.81c-8-3.64-20.18-8.57-32.2-11.37-17.26-4-57.23-6.18-58.92-6.27Z" transform="translate(0)" fill="#212121"/></g><g id="outter_border" data-name="outter border"><path d="M150,4c5.54,0,47.35,3.08,61.46,6.13s20.68,6.07,29.93,10a30.92,30.92,0,0,1,18.67,30.39L253.63,151c-.62,12.24-.82,13.79-3.31,23.7-1.91,7.6-5.27,23-9.12,32.43-4.86,11.89-13.79,25.1-16.79,29.41L221.72,240c-6.39,6.95-22.45,23.29-33.73,32S150,296,150,296h0s-26.7-15.38-38-24.06-27.34-25-33.73-32l-2.69-3.41c-3-4.31-11.93-17.52-16.79-29.41-3.85-9.41-7.21-24.83-9.12-32.43C47.19,164.8,47,163.25,46.37,151L39.94,50.54A30.92,30.92,0,0,1,58.61,20.15c9.25-3.95,15.81-7,29.93-10S144.46,4,150,4h0m0-4c-5.83,0-47.91,3.11-62.31,6.22-13.62,2.94-20.39,5.85-29,9.53L57,16.47A35,35,0,0,0,36,50.79l6.42,100.44c.64,12.54.9,14.37,3.43,24.45.35,1.39.75,3,1.19,4.87,2,8.5,4.85,20.15,8.1,28.1,4.87,11.9,13.66,25.08,17.21,30.19l.07.1.08.09.51.65,2.19,2.76.09.12.1.11c7.4,8.05,23.24,24,34.23,32.44s36.67,23.34,38.37,24.32l2,1.23,2.08-1.19c1.1-.64,27.1-15.65,38.43-24.36,11-8.46,26.83-24.39,34.23-32.44l.1-.11.09-.12,2.19-2.76.51-.65.08-.09.07-.1c3.55-5.11,12.34-18.29,17.21-30.19,3.25-8,6.06-19.6,8.1-28.1.44-1.83.84-3.48,1.19-4.87,2.53-10.08,2.79-11.91,3.43-24.45l6.42-100.44A35,35,0,0,0,243,16.47l-1.69-.72c-8.58-3.68-15.35-6.59-29-9.53C197.91,3.11,155.83,0,150,0Z" transform="translate(0)" fill="#212121"/></g><g id="title"><path d="M126.06,82.64,122,109.93h-4.9l-4-27.29h3.86l2.63,22.06,2.69-22.06Z" transform="translate(0)" fill="#212121"/><path d="M135.44,104.26H131l-.72,5.67h-3.73l4.12-27.29h5L140,109.93h-3.77Zm-.52-3.76-1.79-13.06-1.69,13.06Z" transform="translate(0)" fill="#212121"/><path d="M151,106.12v3.81h-9.19V82.64h3.74v23.48Z" transform="translate(0)" fill="#212121"/><path d="M161.81,106.12v3.81h-9.18V82.64h3.73v23.48Z" transform="translate(0)" fill="#212121"/><path d="M173.46,106.12v3.81h-10V82.64h9.73v3.81h-6V94h5v3.85h-5v8.26Z" transform="translate(0)" fill="#212121"/><path d="M182.64,101.15v8.78h-3.73v-8.65l-4.77-18.64h3.8l2.79,14,2.63-14h3.79Z" transform="translate(0)" fill="#212121"/><path d="M88.21,45.22l-2.38.36,4.53,10.09h.12L95,45.58l-2.37-.36V41.5h11.06v3.72l-2.49.42-8,15.8v6.49l3.13.63v3.7H84.3v-3.7l3.13-.63V61.12l-7.8-15.48-2.47-.42V41.5h11Z" transform="translate(0)" fill="#212121"/><path d="M117.37,41.5v3.72l-3.13.63V61.91a6.08,6.08,0,0,0,1.56,4.55A5.86,5.86,0,0,0,120.06,68a5.37,5.37,0,0,0,5.88-6.06V45.85l-3.11-.63V41.5h12.1v3.72l-3.13.63V61.91q0,5.18-3.24,8a14.2,14.2,0,0,1-17,0c-2.14-1.87-3.22-4.53-3.22-8V45.85l-3.11-.63V41.5h12.1Z" transform="translate(0)" fill="#212121"/><path d="M136.66,68.56l3.11-.63V45.85l-3.11-.63V41.5H148.6v3.72l-3,.63v8.22h2.54l5.62-8.6-1.72-.25V41.5h11.58v3.72l-3.18.57-7.18,10.1L161.36,68l2.93.53v3.7H152.71v-3.7l1.8-.25-5.61-8.9h-3.27v8.52l3,.63v3.7H136.66Z" transform="translate(0)" fill="#212121"/><path d="M190.59,57.11a16.85,16.85,0,0,1-3.67,11.17,12.6,12.6,0,0,1-19.17,0,16.94,16.94,0,0,1-3.64-11.17v-.46a17.05,17.05,0,0,1,3.63-11.16,11.75,11.75,0,0,1,9.55-4.43,11.91,11.91,0,0,1,9.62,4.43,16.87,16.87,0,0,1,3.68,11.16Zm-5.83-.51a14.28,14.28,0,0,0-1.89-7.75,6.2,6.2,0,0,0-5.58-3,6,6,0,0,0-5.51,3A14.7,14.7,0,0,0,170,56.6v.51a14.78,14.78,0,0,0,1.83,7.83,6.05,6.05,0,0,0,5.51,3,6.16,6.16,0,0,0,5.58-3,14.59,14.59,0,0,0,1.87-7.83Z" transform="translate(0)" fill="#212121"/><path d="M222.8,41.5v3.72l-3.13.63V72.26h-5.84L202,51.56l-.12,0V67.93l3.13.63v3.7h-12.1v-3.7l3.11-.63V45.85l-3.11-.63V41.5h9l11.8,20.7.12,0V45.85l-3.13-.63V41.5h12.1Z" transform="translate(0)" fill="#212121"/></g><g id="lines"><line x1="117.56" y1="114.31" x2="182.44" y2="114.31" fill="none" stroke="#212121" stroke-miterlimit="10"/><line x1="193.26" y1="83.17" x2="225.7" y2="83.17" fill="none" stroke="#212121" stroke-miterlimit="10"/><line x1="193.26" y1="86.93" x2="225.7" y2="86.93" fill="none" stroke="#212121" stroke-miterlimit="10"/><line x1="74.3" y1="83.17" x2="106.74" y2="83.17" fill="none" stroke="#212121" stroke-miterlimit="10"/><line x1="74.3" y1="86.93" x2="106.74" y2="86.93" fill="none" stroke="#212121" stroke-miterlimit="10"/></g><g id="mountain"><path d="M107.46,195.81c4.78,1.59,6.56,2.86,12.82,6.75-4.23-4.61-11.22-17.79-12.16-20.66,3.17,1.85,6.62,3.56,9.1,6.63-1.2-3.4-1.17-5.93-2.57-8.72a129,129,0,0,1-11.78-7.71c-4-3-8.7-8.76-8.7-8.76S86.28,170.91,81.69,174s-15.23,5.95-15.23,5.95a65.91,65.91,0,0,0,2.61,8.56c2.16,5.65,1.47,8.32,1.47,8.32a25.43,25.43,0,0,0,4.52,5.56,23.06,23.06,0,0,0,7.35,4.27s4.32-4.18,8.47-4.9,10.76.25,13.79,1.26a79.84,79.84,0,0,1-7.12-8.2A26,26,0,0,1,107.46,195.81ZM71.23,183a57.48,57.48,0,0,0,12.63-1.13c-1.57,4.11-5,8.43-9.41,12.23A23.87,23.87,0,0,0,71.23,183Zm22.14,7.44c-3.27,4.95-5.06,7.61-9.81,11.31-3.25-1.49-6.26-3.5-7.91-6.22.92-.79,4.48-4.64,8.21-8.16s6.55-5.74,8.89-8.54c-.23,2.44-.91,4-3.19,6.43,5.93-1.6,7.31-2.58,13.67-8.86,0,4.78-.36,8.56-2.62,12C98.11,192.27,96.3,194,93.37,190.47Z" transform="translate(0)" fill="#212121"/></g><g id="trees"><path d="M193.87,200.42s5.34-8,6.28-9,7.43-8.54,8.48-8.9a30.14,30.14,0,0,1-16.14-6.35c-6-4.77-9.05-13.11-9.05-13.11a20.31,20.31,0,0,1-6.58,0,38.9,38.9,0,0,0,8.83-8.11s-.55-1.43-4.69-.18a27.22,27.22,0,0,0,8.61-9.15s-.3-1.23-3.73-.14c3.8-3.47,6.11-14.72,6.84-18.38.69,3.73,3.92,14.64,7.12,17.57-2.77,0-3.34,1-3.34,1s2.5,6.22,7.21,9.92a6.72,6.72,0,0,0-4.05.45s2.23,4.58,5.7,6.84c-4.19-.52-5.52.55-5.52.55s4.62,4.22,6.73,5.26a10,10,0,0,0-4.2,1.13,24.52,24.52,0,0,0,3.22,2.62,10.8,10.8,0,0,0,4.79-5.41s-2.59-1.15-4.14-.72c2.73-2.12,6.49-7.75,6.49-7.75s-.82-.85-3.25-.09c3.92-3.47,6.94-10.18,7.3-11.8.68,1.71,3.38,7.93,6.6,10.89-2.23,0-2.68,1.09-2.68,1.09s3.29,5.95,6.49,8.29a3.91,3.91,0,0,0-3.56,1.36,20.33,20.33,0,0,0,6.5,4.88,8.24,8.24,0,0,0-3.62,1.42,22.64,22.64,0,0,0,5.77,6.22,8.73,8.73,0,0,0-4.41,1.35s3.87,5.59,6,6.72c-4.37-1-8.2-.32-14.06,2.43-8.46,4-9.78,7.41-13.83,8.23A88.92,88.92,0,0,1,193.87,200.42Z" transform="translate(0)" fill="#212121"/><path d="M112.86,225.13a10.88,10.88,0,0,1,5.61-2.32,12,12,0,0,1-3.41-2.53,7.81,7.81,0,0,0,2.5,0,7.12,7.12,0,0,1-2.54-2.39s.15-.27,1.71.2a20.14,20.14,0,0,1-3.79-4.34s.44-.42,1.74,0c-2.08-2-3.31-5.73-3.59-7.12-.26,1.42-1.49,5.45-2.22,6.23a1.58,1.58,0,0,1,1.23.82,17.72,17.72,0,0,1-2.74,3.76,2.59,2.59,0,0,1,1.54.17,7.37,7.37,0,0,1-2.16,2.6c1.59-.2,2.1.21,2.1.21a18.4,18.4,0,0,1-2.56,2,3.91,3.91,0,0,1,1.59.43,9.16,9.16,0,0,1-1.22,1,4.12,4.12,0,0,1-1.82-2.06,3.16,3.16,0,0,1,1.58-.27,16.42,16.42,0,0,1-2.47-2.94s.31-.33,1.24,0a11.55,11.55,0,0,1-2.77-4.48,13.59,13.59,0,0,1-2.51,4.13c.85,0,1,.41,1,.41a12.24,12.24,0,0,1-2.46,3.15,1.49,1.49,0,0,1,1.35.51,7.68,7.68,0,0,1-2.47,1.85,3.1,3.1,0,0,1,1.37.55A8.58,8.58,0,0,1,96.52,227a3.29,3.29,0,0,1,1.68.51,12.09,12.09,0,0,1-2.27,2.55c2.2.61,6.94-.75,10.27-2.46C109,226.18,111.38,226.31,112.86,225.13Z" transform="translate(0)" fill="#212121"/></g><g id="wolf"><path d="M190.74,177.58c-4.6-4.51-7.45-9-7.48-11-2.79.16-4.33.33-7.57-1.56S159.28,152,156,147.39s-4.06-7.12-7.3-8.57-9.1-.18-13-2.34-5.75-2-11.54-6.76c-3.61-3-6-6.6-10-9.73-3-2.34-6.31,3.6-6.4,7.57-.16,7.21,1.53,16.13.54,17.12s-10.45-1.35-11.35-.36-1,9.19,1,11.18,9.37,2.88,12.17,7.21,7.22,17.12,9.47,25.41c.73-9.64,4.73,9.27,9.15,19.82,1.2-8.82,4.63,12.54,8.32,18.3,1.62-7,5.27,11.43,8.86,16.29a58.31,58.31,0,0,0,7.91,8.59s2.16-4.33,4.32-6.13,6.31-3.06,7.93-5.23,5.59-17.84,9.19-22.17,12.44-10.09,13.7-13.52,13.49-19,15.84-20.47C200.19,183.13,195.33,182.08,190.74,177.58Zm-50-30.93c-.67.26-3.26-2.21-6.62-1.92-.81.07-1.72-2.55.46-3.25,1.48-.46,3.66.65,4.78,1.83C139.88,143.83,141.45,146.4,140.77,146.65Z" transform="translate(0)" fill="#212121"/></g></g><g id="frame"><rect width="300" height="300" fill="none"/></g></svg>