<!-- Copyright (c) 2022 - 2023 Jan Stehno -->
<svg xmlns="http://www.w3.org/2000/svg" viewBox="0 0 300 200"><title>americanalligator_organs</title><g id="americanalligator"><g id="organs"><path d="M260.57,187.92c.53-1.11-2.95-5.23-4.42-8.17s-7.31-6.09-12.35-6.64-9.65,2.52-11.12,1.11-3-8.48-1.54-12.1,3.26-4.12,3-6.39-12.71-3.69-17.13-.8-6,18.43-2.22,22.85,11.37,6.57,14.32,6.51,5.71-6.94,9.58-7.68,11.61,3,13,4.79S259.77,189.57,260.57,187.92Z" fill="#1e88e5" opacity="0.7"/><path d="M186.79,180.54c.74,3.41,19.23,5,22.42,1.42s3.11-8.56,3.52-15.06,2.81-11,1.4-13.59-23.41-5.2-24.39-1.82.85,2.13,2.08,7.67S186,176.86,186.79,180.54Z" fill="#1e88e5" opacity="0.7"/><path d="M131.63,178.54c.29-1.93,6.59-1,8.39-2s7.21.66,8.85,3.89,1.6,5.61-2.66,5.57S130.52,185.7,131.63,178.54Z" fill="#e53935" opacity="0.7"/><path d="M122.25,172.07c0,5,16.22,9.83,26,12s26.79.65,30.56-2.05S192,167.56,192,160.68s-7.21-10-13.51-11.06S122.25,157.49,122.25,172.07Z" fill="#ffb300" opacity="0.7"/><path d="M73.12,150.9c4.91-1,13,3.3,12.53,9.89S68.74,151.81,73.12,150.9Z" fill="#1e88e5" opacity="0.7"/></g></g><g id="frame"><rect width="300" height="200" fill="none"/></g></svg>