<!-- Copyright (c) 2023 Jan Stehno -->
<svg xmlns="http://www.w3.org/2000/svg" viewBox="0 0 300 200">
    <title>americanalligator_body</title>
    <g id="americanalligator">
        <g id="body">
            <path
                d="M9.69,149.88c-2,0-1.51-7.49,4.94-9.79s6.81-.59,13.61,1.62,23.18,3.65,28.75,3.36,6.8-.82,6.8-.82a7.27,7.27,0,0,1,5.73-2.72c3.81,0,3.44,2.21,8.48,2.21S84.88,146,88.75,146a25.8,25.8,0,0,0,11.12-3.17c2.25-1.35,5.44.41,7.66.41s2.94-1.35,5.44-1.35,3.2-2.42,6.64-1.68,4.42-3.57,8.68-2.17,5.4-3.08,9-1.11,3.23-2,7.41-1.11,4.14-2.25,8-1.43,2.95-2.46,7.82-1.68,4.3-3.48,8.6-2.29,3.24-2.58,8.31-1.11,3.16-2.33,7.74-.77,3.65-3.28,8.19-1.23,6.07-1.4,8.69,1,4.42-1.06,7.2.94,5.25.45,6.76,2,3.93-.41,6.47,1.64,4.34-.45,6,1.1,4.34-.28,6.23,1.39,3,1.79,5.44,1.85,2.89.3,4.49,1.66,2.09,1.69,4.54,1.41,3.44,2.58,7.22,2.33,5.16,3.41,8.63,2.61,3.07,2.95,7.19,2.43,3.1,2.46,6.14,2.27,4.18,2.74,6.94,2.77,2.65,1.66,6.64,1.29,1.62,6.14,3,9c1.33,2.66-2.92,12.75-1.5,16.91s.75,10.34.75,10.34a81,81,0,0,1-15.17-1.42c-8.78-1.6-13.77,3.13-17.33,3.08a14.16,14.16,0,0,1-10.17-4.5s-1.14,5.75-9.14,6.17c-5.65.29-7-1.19-10.94-1.19s-5.69.52-12.08,2.61S211,197,201.06,197s-36.14-4-45.6-4-5.34,1.1-12.16,1.1-16.85-3.7-23.73-3.7-9.14,4.13-25.91,4.13-25.8-6.69-31.27-6.69-9.39,1.53-17.63,1.53-24.26-1-27-2.76-2.18-3.9-1.69-4.89a3.64,3.64,0,0,0-.16-2.51s1.48,1.29,2,.95.92-2,.92-2,.62,2,1.2,1.78,1.6-1.78,1.6-1.78,1.16,1.05,1.93.68,1.29-3.41,1.29-3.41,1.38,3.19,2.52,3,1.23-2.83,1.23-2.83,1.75,2.86,3,2.58a3.49,3.49,0,0,0,2-1.32s.22,1,.71,1,1.14-1.6,1.14-1.6.15,1.2.67,1.08.89-2.09.89-2.09,1.08.43,1.54,0,.58-2.52.58-2.52.37,1.78,1.29,1.2a2.52,2.52,0,0,0,.86-2.06s1,1.94,1.66,1.2,1-3.68,1-3.68.61,3.1,2.11,2.91a2,2,0,0,0,1.76-1.44s-.1,1.5.61,1.38,1.41-2.09,1.41-2.09.71,2.09,1.91,2.09,5.1-.24,6.35-3.16,1.2-7.71,0-8.63-3.14,0-3.14,0-.61-1.17-1.5-1.2a3.72,3.72,0,0,0-1.91.74s.16-1.14-.67-1.54a3.72,3.72,0,0,0-2.34.22s.47-1.58-.2-1.87-2.17.76-2.17.76.18-2.25-.39-2.6-2.07.8-2.07.8-.39-1.09-.92-1.11S41,156.7,41,156.7s-.72-2.31-1.85-2.11-2.13,3-2.13,3-.47-2.93-1.31-2.78-1.51,1.66-1.51,1.66.08-1.27-.6-1.23-1,1.18-1,1.18-.2-1.26-1-1.22-1.89,2.39-1.89,2.39,0-4.07-.84-4.4-2.25,1.92-2.25,1.92,0-3.21-1-3.76-2.36,1.43-2.36,1.43.52-2.21-1-2.66-2.7,2.27-2.7,2.27-1.11-2.8-2.4-2.62S14.64,153,14.64,153s-.65-3.07-1.37-3.19-1.45,1.09-1.45,1.09S11.45,149.92,9.69,149.88Z"
                transform="translate(0 0)" fill="#ccc" />
        </g>
    </g>
    <g id="frame">
        <rect id="frame-2" width="300" height="200" fill="none" />
    </g>
</svg>