<svg xmlns="http://www.w3.org/2000/svg" viewBox="0 0 30 20"><path d="M26.06,18.77c.05-.11-.3-.53-.45-.82a1.75,1.75,0,0,0-1.23-.66c-.5-.06-1,.25-1.11.11a1.61,1.61,0,0,1-.16-1.21c.15-.37.33-.41.31-.64s-1.28-.37-1.72-.08a2.26,2.26,0,0,0-.22,2.28,2.19,2.19,0,0,0,1.43.65c.3,0,.57-.69,1-.76a2,2,0,0,1,1.3.48C25.31,18.29,26,18.93,26.06,18.77Z" transform="translate(0 0.02)" fill="#1e88e5" opacity="0.7"/><path d="M18.68,18c.07.34,1.92.5,2.24.14a2.37,2.37,0,0,0,.35-1.5c0-.65.28-1.1.14-1.36s-2.34-.52-2.44-.19.09.22.21.77S18.6,17.66,18.68,18Z" transform="translate(0 0.02)" fill="#1e88e5" opacity="0.7"/><path d="M13.16,17.83c0-.19.66-.1.84-.2a.87.87,0,0,1,.89.39c.16.33.16.56-.27.56S13.05,18.55,13.16,17.83Z" transform="translate(0 0.02)" fill="#e53935" opacity="0.7"/><path d="M12.23,17.18c0,.5,1.62,1,2.59,1.2a6,6,0,0,0,3.06-.21A4,4,0,0,0,19.2,16c0-.68-.73-1-1.36-1.1S12.23,15.72,12.23,17.18Z" transform="translate(0 0.02)" fill="#ffb300" opacity="0.7"/><path d="M7.31,15.07c.49-.11,1.3.33,1.25,1S6.87,15.16,7.31,15.07Z" transform="translate(0 0.02)" fill="#1e88e5" opacity="0.7"/><rect width="30" height="20" fill="none"/></svg>