<svg xmlns="http://www.w3.org/2000/svg" viewBox="0 0 30 20"><path d="M1,15c-.2,0-.15-.75.49-1s.68-.05,1.36.17a12,12,0,0,0,2.88.33,2.75,2.75,0,0,0,.68-.08A.72.72,0,0,1,7,14.13c.38,0,.35.22.85.22s.69.22,1.07.22A2.55,2.55,0,0,0,10,14.25c.22-.13.54,0,.76,0s.3-.13.55-.13.32-.24.66-.17.44-.36.87-.22.54-.3.9-.11.32-.2.74-.11.41-.22.8-.14.3-.25.79-.17.43-.35.86-.23.32-.26.83-.11.31-.23.77-.08.37-.32.82-.12.61-.14.87.1.44-.1.72.1.52,0,.68.19.39,0,.64.17.44,0,.6.11.43,0,.62.14a.65.65,0,0,0,.55.18.54.54,0,0,1,.45.17.44.44,0,0,0,.45.14c.25,0,.34.26.72.23s.52.34.87.26.3.3.71.25.31.24.62.22.42.28.69.28.27.17.67.13.16.61.3.9-.29,1.27-.15,1.69a2.91,2.91,0,0,1,.07,1,7.93,7.93,0,0,1-1.51-.14c-.88-.16-1.38.31-1.73.31a1.41,1.41,0,0,1-1-.45.9.9,0,0,1-.92.62,10.29,10.29,0,0,1-1.09-.12,3.27,3.27,0,0,0-1.21.26,4.52,4.52,0,0,1-1.83.21c-1,0-3.62-.4-4.56-.4s-.54.11-1.22.11S12.64,19,12,19a13.85,13.85,0,0,1-2.59.41c-1.68,0-2.58-.67-3.13-.67s-.94.15-1.76.15a10.27,10.27,0,0,1-2.7-.27.36.36,0,0,1-.17-.49.37.37,0,0,0,0-.25s.14.13.2.09.09-.2.09-.2S2,18,2,18s.16-.18.16-.18.11.1.19.07.13-.34.13-.34.14.32.25.29.12-.28.12-.28.18.28.3.26a.35.35,0,0,0,.2-.14s0,.11.07.1.12-.16.12-.16,0,.12.06.11.09-.21.09-.21.11,0,.16,0,.05-.25.05-.25,0,.18.13.12a.25.25,0,0,0,.09-.21s.1.2.17.12a1.09,1.09,0,0,0,.09-.36s.06.31.22.29a.19.19,0,0,0,.17-.15s0,.15.06.14S5,17,5,17s.07.21.19.21.51,0,.64-.32.12-.77,0-.86-.31,0-.31,0-.06-.11-.15-.12a.38.38,0,0,0-.19.08s0-.12-.07-.16-.23,0-.23,0,0-.16,0-.19-.22.08-.22.08,0-.23,0-.26-.21.08-.21.08,0-.11-.09-.12-.18.22-.18.22-.08-.24-.19-.22-.21.3-.21.3-.05-.29-.13-.28-.15.17-.15.17,0-.13-.06-.12-.11.12-.11.12,0-.13-.09-.13-.19.24-.19.24,0-.41-.08-.44-.23.19-.23.19,0-.32-.1-.37-.24.14-.24.14.06-.22-.1-.27-.27.23-.27.23-.11-.28-.24-.26-.25.32-.25.32S1.4,15,1.33,15s-.15.11-.15.11S1.14,15,1,15Z" transform="translate(0 0.02)" fill="#ccc"/><rect width="30" height="20" fill="none"/></svg>