<svg xmlns="http://www.w3.org/2000/svg" viewBox="0 0 30 20"><path d="M17.68,12c-.48-.16-.77-1-.53-2.23s.51-2.06,1.27-2.42a.94.94,0,0,1,1.29,1C19.5,9,19.39,12.61,17.68,12Z" transform="translate(0 0.02)" fill="#1e88e5" opacity="0.7"/><path d="M22.36,11.37c-1.07,0-1.55-.7-2.12-2s-.78-2-.13-2.12a22.35,22.35,0,0,1,3.36-.08c1,0,1.5,1.07,1.8,1.32s.12.82-.71,1S24.16,11.41,22.36,11.37Z" transform="translate(0 0.02)" fill="#1e88e5" opacity="0.7"/><path d="M20.18,12.21c-.82.23-1.56,0-1.65-.25s.49-1,.63-1.88,0-1.62.43-1.8.73,1.6,1.22,2S22.94,11.43,20.18,12.21Z" transform="translate(0 0.02)" fill="#1e88e5" opacity="0.7"/><path d="M14.4,12.31c-.59-.07-.85-.11-1-.44s-.06-.48-.22-.86-.32-.59-.29-.71.21-.17.28-.08.22.77.29.79.08-.13,0-.37,0-.42-.11-.47-.18-.08-.08-.13.21,0,.24,0,.11-.09.15,0,.16,0,.23,0,0,.36.06.51.68.29.82.71a2.9,2.9,0,0,1,.16,1C15,12.34,14.63,12.34,14.4,12.31Z" transform="translate(0 0.02)" fill="#e53935" opacity="0.7"/><path d="M16.56,12.3c-1.12.35-2.24-.19-3.41-.17s-1.35-1-1.07-1.84.31-1.59,1.64-2.18a7.54,7.54,0,0,1,3.15-.65c.73,0,1.58-.21,1.37,1.33S17.88,11.9,16.56,12.3Z" transform="translate(0 0.02)" fill="#ffb300" opacity="0.7"/><path d="M6.58,5.38c-.41-.08-.25-.53-.41-.78s.45-.63.76-.11S6.87,5.44,6.58,5.38Z" transform="translate(0 0.02)" fill="#1e88e5" opacity="0.7"/><rect width="30" height="20" fill="none"/></svg>