<!-- Copyright (c) 2022 - 2023 Jan Stehno -->
<svg xmlns="http://www.w3.org/2000/svg" viewBox="0 0 300 200"><title>axisdeer_organs</title><g id="axisdeer"><g id="organs"><path d="M176.83,120.58C172,119,169.08,110.5,171.5,98.25s5.08-20.58,12.67-24.17,15,4.67,12.93,10.34S193.92,126.33,176.83,120.58Z" transform="translate(0 0)" fill="#1e88e5" opacity="0.7"/><path d="M223.62,113.94c-10.68-.23-15.56-7-21.18-19.81s-7.88-19.63-1.38-21.19,23.88-.75,33.63-.75,15.06,10.69,18.06,13.12,1.12,8.25-7.13,10.32S241.56,114.31,223.62,113.94Z" transform="translate(0 0)" fill="#1e88e5" opacity="0.7"/><path d="M201.83,122.33c-8.19,2.3-15.66,0-16.5-2.5s4.84-10,6.25-18.75,0-16.25,4.34-18,7.27,16,12.16,19.68S229.42,114.58,201.83,122.33Z" transform="translate(0 0)" fill="#1e88e5" opacity="0.7"/><path d="M144,123.32c-5.87-.69-8.41-1-10-4.35s-.57-4.83-2.14-8.66-3.23-5.91-2.93-7,2.14-1.68,2.84-.79,2.13,7.67,2.85,7.84.76-1.25.41-3.67-.27-4.25-1.09-4.66-1.84-.89-.81-1.33,2.08.19,2.44-.56,1.08-.86,1.5-.39,1.57-.3,2.23.27-.41,3.56.63,5.08,6.75,2.89,8.22,7a28,28,0,0,1,1.53,10.15C149.47,123.64,146.34,123.6,144,123.32Z" transform="translate(0 0)" fill="#e53935" opacity="0.7"/><path d="M165.58,123.28c-11.18,3.42-22.33-2-34.08-1.7s-13.5-10-10.67-18.46,3.09-15.87,16.34-21.79a75.41,75.41,0,0,1,31.5-6.5c7.33-.08,15.83-2.08,13.75,13.34S178.83,119.23,165.58,123.28Z" transform="translate(0 0)" fill="#ffb300" opacity="0.7"/><path d="M65.82,54.06c-4.08-.79-2.51-5.31-4.07-7.81s4.44-6.31,7.56-1.13S68.71,54.62,65.82,54.06Z" transform="translate(0 0)" fill="#1e88e5" opacity="0.7"/></g></g><g id="frame"><rect id="frame-2" width="300" height="200" fill="none"/></g></svg>