<svg xmlns="http://www.w3.org/2000/svg" viewBox="0 0 30 20"><path d="M26.38,20h-1.6a20,20,0,0,0,.48-2.62c0-.85,0-1.25-.21-1.4a14.29,14.29,0,0,1-2.18-2,7,7,0,0,1-1-1.46,5.76,5.76,0,0,1-1.17,1c-.34.12-.45.26-.52,0s-.46-.23-1.09-.11a8.4,8.4,0,0,1-2.07.11,21,21,0,0,0-2.35.06s0,1.55-.13,2.29a8.18,8.18,0,0,0-.09,1.82c0,.41.19,2.27.19,2.27H13.59a8.72,8.72,0,0,0-.24-1.92,16.57,16.57,0,0,1-.47-2.37,7.33,7.33,0,0,0-.94-2.4,9.1,9.1,0,0,1-1.88-1.2c-.66-.66-1.64-.8-2.24-1.45a8.24,8.24,0,0,1-1.3-2.45c-.32-.81-.42-.88-1-.9a9.63,9.63,0,0,1-1.79-.23c-.53-.12-.92.13-1.21-.06s-.32-.31-.32-.31A.26.26,0,0,1,2,6.56.51.51,0,0,1,2,6,6.15,6.15,0,0,1,3.71,4.86,9,9,0,0,0,5.14,4c.36-.2.53-.12.64-.27S6,3.49,6,3.33a.72.72,0,0,0-.55-.78,1.82,1.82,0,0,1-1.27-.77A2.42,2.42,0,0,1,4,.42C4.1,0,4.11.06,4.19.6a1.83,1.83,0,0,0,.5,1.13,1.19,1.19,0,0,0,.62.17,1,1,0,0,1,.06-.63A2.46,2.46,0,0,1,6,.49,4.32,4.32,0,0,0,6.3,0h.37A2.17,2.17,0,0,1,6.3.81c-.31.42-.47.67-.19,1s.45.43.81.24a4.88,4.88,0,0,0,1.31-.82,12.21,12.21,0,0,0,.93-1A1.43,1.43,0,0,0,9.29,0h.65a3.75,3.75,0,0,1-.41.7,5.55,5.55,0,0,0-.42.6A2.41,2.41,0,0,0,10,.85,8.76,8.76,0,0,0,10.92,0h1A4.45,4.45,0,0,1,10.49,1.3a14.33,14.33,0,0,1-1.93,1c-.67.36-1.18.62-1.31.91a.64.64,0,0,0-.07.58c.06.14.07.14.14.14s.12-.16.31-.3a2.7,2.7,0,0,1,1.24-.15c.58,0,.7.08.51.52s-.31.64-.65.77-.6.1-.46.49A3.49,3.49,0,0,0,9.35,6.88a2.05,2.05,0,0,0,1.8.33c.74-.17.84-.51,1.58-.72a7,7,0,0,1,2.6-.22A20.32,20.32,0,0,0,19.57,6a12.75,12.75,0,0,1,3.5-.17,10.34,10.34,0,0,1,3.37,1.46,4.16,4.16,0,0,1,1.67,2.48,2.24,2.24,0,0,1-.41,1.81c-.34.4-.59.54-.61-.05s0-1.82,0-1.82a18.13,18.13,0,0,1-.83,2.12,3.91,3.91,0,0,0-.14,2.71c.22.32.89.77.89,1.32s-.38,1.38-.51,2.4A13.44,13.44,0,0,0,26.38,20Z" transform="translate(0 0.02)" fill="#ccc"/><rect width="30" height="20" fill="none"/></svg>