<!-- Copyright (c) 2022 - 2023 Jan Stehno -->
<svg xmlns="http://www.w3.org/2000/svg" viewBox="0 0 300 200"><title>axisdeer_body</title><g id="axisdeer"><g id="body"><path d="M263.81,200h-16s4.41-17.75,4.72-26.19.19-12.43-2.06-14-14.69-11.06-21.81-19.56-9.75-14.56-9.75-14.56-8.25,8.37-11.69,9.56-4.5,2.63-5.25.38-4.56-2.25-10.88-1.13a79.9,79.9,0,0,1-20.75,1.13c-8.37-.57-23.43.62-23.43.62s-.38,15.5-1.38,22.87-1.31,14.19-.87,18.25S146.62,200,146.62,200H135.87s-.12-12.25-2.37-19.17-3.42-15.83-4.67-23.66-7.41-22.34-9.41-24-12.25-5.42-18.84-12-16.33-8-22.33-14.5-9.75-16.42-13-24.5-4.25-8.84-9.79-9a106,106,0,0,1-17.88-2.34c-5.29-1.16-9.21,1.29-12-.54s-3.21-3.17-3.21-3.17a2.53,2.53,0,0,1-2.58-1.25c-.91-1.56-1.66-4.15,0-6s8.08-6.83,17.33-11S47.79,41.92,51.42,40s5.25-1.13,6.41-2.67,1.89-2.21,1.87-3.83-.11-6.41-5.48-7.72S43.37,22.19,41.53,18A23.69,23.69,0,0,1,40.22,4.41c.81-4.63.87-3.6,1.65,1.84s2.85,9.56,5,11.28,6.19,1.69,6.19,1.69a10.85,10.85,0,0,1,.63-6.31c1.37-3.82,4-5.37,5.93-7.74A34,34,0,0,0,63,0h3.79A21.7,21.7,0,0,1,63,8.37c-3.09,4.17-4.67,6.67-1.84,9.84s4.46,4.37,8.09,2.41,8.87-3.83,13.12-8.2a133.7,133.7,0,0,0,9.29-10.3A7.77,7.77,0,0,0,92.87,0h6.55a36.79,36.79,0,0,1-4.13,7,57.82,57.82,0,0,0-4.17,6,23.28,23.28,0,0,0,8.67-4.29A81.07,81.07,0,0,0,109.21,0h9.58s-3.6,6.44-13.85,13.25S92.19,19.69,85.56,23.31s-11.73,6.19-13.1,9.11-1.25,4.33-.67,5.79.75,1.46,1.42,1.46,1.21-1.67,3.12-3,6.59-1.67,12.38-1.5,7,.75,5.12,5.16-3.16,6.42-6.54,7.75-6,1-4.54,4.84S87.5,65.08,93.5,69s10.67,5,18,3.33,8.33-5.12,15.75-7.21,11-2.54,26-2.2,26.92,0,42.34-2.67a131.39,131.39,0,0,1,35-1.75c8.18.75,25.93,9.38,33.68,14.69s15.75,16.06,16.69,24.75-.62,14.19-4.06,18.12-5.88,5.38-6.13-.56.07-18.11.07-18.11a183.52,183.52,0,0,1-8.38,21.17c-4.44,8.94-3.44,23.94-1.31,27.13s8.81,7.69,8.81,13.19-3.75,13.81-5.06,23.93A131,131,0,0,0,263.81,200Z" transform="translate(0 0)" fill="#ccc"/></g></g><g id="frame"><rect id="frame-2" width="300" height="200" fill="none"/></g></svg>