<!-- Copyright (c) 2022 - 2023 Jan Stehno -->
<svg xmlns="http://www.w3.org/2000/svg" viewBox="0 0 300 200"><title>banteng_body</title><g id="banteng"><g id="body"><path d="M80.68,38.43c-.33.38-.46,2.71-.93,4.86s-.27,4.11-1.55,6.94-2.68,5.38-2.68,5.38a50.33,50.33,0,0,1-5.08-.55l-4.38-.78a4.87,4.87,0,0,0-1.3-1.46,20.74,20.74,0,0,1-2-1.35c-.51-.41-.78-.39-.78-.39a78.06,78.06,0,0,0,.5-9.51c.05-6.33.26-10.72.11-13.25s.42-4,.11-4.57-.92-.43-1.17.69S59.33,34,58.34,37.13s-2.93,13.78-2.93,13.78a8.46,8.46,0,0,0-3.43,2,11,11,0,0,0-1.49,3.27,1.22,1.22,0,0,0-1.21.11A7.51,7.51,0,0,1,47,58c-1.27.51-2.6.64-3.91,1.93s-2.31,2.19-2.53,3.37a3.48,3.48,0,0,1-1.49,2.43,3.45,3.45,0,0,0-1.84,1.36c-.47.81-3,2.75-4.94,4.59s-4.12,3.11-5.86,5S22.45,80,21,81.8a7.54,7.54,0,0,0-1.67,5.75c.11,2.26,0,3,.85,4.23a1.81,1.81,0,0,0,1.86,1s-.09,1.26,1.93,2.39,2,1.32,4.57.56a8.64,8.64,0,0,1,5.79.15c1.62.54,8.46-1.36,11.37-.32s4.54,2.76,8.38,3.08a18.21,18.21,0,0,0,9.38-1.71c2.73-1.18,3.49-1.24,6,.48s4.42,2.34,5.9,5.16S78.35,108.31,80,111s3.94,3.45,5.55,8,3.69,10.53,6.73,13a74.1,74.1,0,0,0,10.62,6.76c3.61,1.93,5,3.57,9.12,5.17s5.37,3.37,9.39,4,11-.47,11-.47a92.51,92.51,0,0,1,2.35,12.68c.91,7.57,2.44,10.53.94,15.79s-2.49,8-4.41,10.16-4.58,3.82-4.56,4.93-.5,2.54,2.71,2.48,6.13-.18,7.37-.36a16.16,16.16,0,0,0,2.6-.66s-4.09,3.51-4.12,4.74-.63,2.37,4.79,2.72,7.82-.18,9.51-1.53,1.18-2.32,1.18-2.32a5.68,5.68,0,0,0,1.34-2.84c0-1.28.58-2.31,1.35-1.56s1.32,2,2.73,1,1.25-.58,1-2.93-1.94-7.64-2-12.87a89.3,89.3,0,0,1,1.52-15.94c.63-2.33.06-2.82-.61-8.41s-1.35-14.83-1.35-14.83,4.74-1.15,7.89-.31,14,5.1,19.35,6.59,9.65-1.37,12.8-1.6,4.47,1.78,10,.12,6.64-5.14,11.21-8.73,8.49-7.46,8.49-7.46,6.49,4.35,9.55,8.38,8.89,11.45,12,14.41,4.82,4,5.49,9,1.64,9.75,1.22,11.81-2.6,4-4,5.68-2.59,3.74-2.52,4.66a2.12,2.12,0,0,0,2.4,1.82c1.55,0,3.12-.08,3.12-.08s-.47,3.38-1.67,4.89a10.23,10.23,0,0,0-1.67,4c-.24.79-3.75,4.63-4.47,5.81s.3,2.48,4,3.05,8.73-.07,11-1.55,1.23-2.27,2-4.41,2.39-5.18,3.21-5.84,1.09.25,2,.6,2-1.15,1.61-1.61-.08-5.07-1-6.61-2-4.46-1.92-5.45.91.73,1.65,1.17,2-1.26,1.95-2.15-2.72-10.31-3-16.15.12-13.6.29-16.88,1.71-6.56-1.07-8.5-3-2.38-1.12-4.93-.88-12.14-1.4-16.13,1.86-9.32,2.41-17.28,1.29-13.33-2.35-20-7.1-10.75-11.23-13.38-11.3-2.09-17.43-3.49-11.92-2.47-21.27.06-22.22,1.91-29.13-.45-28.81-12.38-47.59-11.19S112,52.54,104,53.12s-17,3.12-19.54,3L79.9,56a42.51,42.51,0,0,0,2-9.46C82.1,42.38,81.33,37.63,80.68,38.43Z" fill="#ccc"/></g></g><g id="frame"><rect width="300" height="200" fill="none"/></g></svg>