<svg xmlns="http://www.w3.org/2000/svg" viewBox="0 0 30 20"><path d="M8.07,3.82S8,4.09,8,4.3a2.26,2.26,0,0,1-.15.7c-.13.28-.27.54-.27.54s-.28,0-.51-.06L6.61,5.4a.46.46,0,0,0-.13-.14l-.2-.14a.15.15,0,0,0-.08,0,6.88,6.88,0,0,0,0-1c0-.63,0-1.07,0-1.32a4,4,0,0,0,0-.46c0-.05-.09,0-.11.07s-.23,1-.33,1.27-.29,1.38-.29,1.38a.74.74,0,0,0-.34.2,1,1,0,0,0-.15.32.11.11,0,0,0-.12,0,.81.81,0,0,1-.23.16A1,1,0,0,0,4.31,6a.83.83,0,0,0-.26.34.34.34,0,0,1-.14.24.41.41,0,0,0-.19.14,4.87,4.87,0,0,1-.49.46,7.38,7.38,0,0,0-.59.5c-.17.19-.4.34-.54.52a.74.74,0,0,0-.17.57c0,.23,0,.3.08.42s.19.1.19.1,0,.13.19.24.2.13.46.06a.86.86,0,0,1,.58,0c.16,0,.85-.14,1.14,0a3,3,0,0,0,.84.31,1.91,1.91,0,0,0,.93-.17c.28-.12.35-.13.6,0s.44.24.59.52.3.58.47.85.39.34.55.8a3.22,3.22,0,0,0,.67,1.29,8.13,8.13,0,0,0,1.07.68,7.17,7.17,0,0,0,.91.51c.41.16.53.34.94.4a4.71,4.71,0,0,0,1.09,0A8.87,8.87,0,0,1,13.47,16a3.68,3.68,0,0,1,.09,1.58,2.28,2.28,0,0,1-.44,1c-.19.22-.46.38-.45.49s-.05.25.27.25.61,0,.73,0l.27-.06s-.41.35-.42.47-.06.24.48.27a1.32,1.32,0,0,0,.95-.15c.17-.13.12-.23.12-.23a.51.51,0,0,0,.13-.29c0-.12.06-.23.14-.15s.13.2.27.1.13-.06.11-.29a7.48,7.48,0,0,1-.2-1.29,9.62,9.62,0,0,1,.15-1.59c.07-.23,0-.28-.06-.84s-.13-1.49-.13-1.49a2,2,0,0,1,.78,0c.32.09,1.41.51,1.94.66s1-.13,1.28-.16.45.18,1,0,.67-.51,1.12-.87.85-.74.85-.74a4.94,4.94,0,0,1,1,.83,15.17,15.17,0,0,0,1.2,1.45,1.22,1.22,0,0,1,.55.9A5.66,5.66,0,0,1,25.28,17a1.65,1.65,0,0,1-.4.57,1.17,1.17,0,0,0-.25.46.21.21,0,0,0,.24.18h.31a1.21,1.21,0,0,1-.16.48,1,1,0,0,0-.17.41c0,.08-.38.46-.45.58s0,.25.4.3a1.83,1.83,0,0,0,1.1-.15c.23-.15.13-.23.21-.44a2.07,2.07,0,0,1,.32-.59c.08-.06.11,0,.2.06s.19-.11.16-.16,0-.5-.1-.66a1.4,1.4,0,0,1-.19-.54c0-.1.09.07.16.11s.2-.12.2-.21a11.6,11.6,0,0,1-.31-1.62c0-.58,0-1.36,0-1.68s.18-.66-.1-.85-.31-.24-.11-.5-.09-1.21-.14-1.61a15.43,15.43,0,0,1,.24-1.73,3.21,3.21,0,0,0-.24-2,3.42,3.42,0,0,0-1.12-1.33,6.29,6.29,0,0,0-1.74-.35,3.91,3.91,0,0,0-2.13,0,5.84,5.84,0,0,1-2.92,0,12.56,12.56,0,0,0-4.75-1.12c-1.88.12-2.37.69-3.17.75s-1.7.31-2,.3H8a4.38,4.38,0,0,0,.2-1C8.21,4.21,8.13,3.74,8.07,3.82Z" transform="translate(0 0.02)" fill="#ccc"/><rect width="30" height="20" fill="none"/></svg>