<svg xmlns="http://www.w3.org/2000/svg" viewBox="0 0 30 20"><path d="M20.07,11.67c-.42.72-1.06.74-1.66.9s-.85.39-1.1.08a2.39,2.39,0,0,1-.64-1.37,3.7,3.7,0,0,1,.4-2.7c.57-.76.87-1.15,1.14-1.17s1,1.15,1.33,1.6S20.54,10.88,20.07,11.67Z" transform="translate(0 0.02)" fill="#1e88e5" opacity="0.7"/><path d="M18.36,10.07a6.15,6.15,0,0,1-1.91,2.32c-.5.29-1,.32-1-.9a7.53,7.53,0,0,1,.71-3.16c.36-.61.63-1.23,1.21-1.27S19.38,7.69,18.36,10.07Z" transform="translate(0 0.02)" fill="#1e88e5" opacity="0.7"/><path d="M21.5,11.9a1.13,1.13,0,0,1-1.5-.74c-.28-.86-.75-1.78-.92-2.27s-.41-1.14,0-1.47,1.32-.09,2.29-.31,1.36-.51,1.83-.42.49.23.78.16.39-.18.63-.11.5.35.43.54-.21.23-.35.13-.68.26-.79.37.09.4,0,1.17a4.5,4.5,0,0,1-1.14,2.23A2.93,2.93,0,0,1,21.5,11.9Z" transform="translate(0 0.02)" fill="#1e88e5" opacity="0.7"/><path d="M12.38,12.56c-.55-.16-.79-.24-.88-.52s0-.38-.06-.7-.2-.51-.15-.59a.19.19,0,0,1,.28,0c.06.08.07.62.14.65s.09-.08.1-.27,0-.33,0-.38-.16-.1,0-.12.19.06.24,0a.1.1,0,0,1,.15,0c0,.05.16,0,.21.07s-.1.26,0,.4.6.34.66.69a1.73,1.73,0,0,1,0,.8C12.9,12.68,12.6,12.62,12.38,12.56Z" transform="translate(0 0.02)" fill="#e53935" opacity="0.7"/><path d="M17.77,7.16c-.5-.38-1.63-.5-3.47-.52s-3,0-3.72.86-.91,1.11-.66,2.17A3.36,3.36,0,0,0,12,12.17a19.11,19.11,0,0,0,5.07.76,1.72,1.72,0,0,0,1.65-1.67C18.91,10,18.42,7.64,17.77,7.16Z" transform="translate(0 0.02)" fill="#ffb300" opacity="0.7"/><path d="M6.52,6.45A.66.66,0,0,1,6,7.1a2.59,2.59,0,0,0-.7.19.77.77,0,0,1-.93-.18c-.24-.33-.2-.53.17-.82a2.11,2.11,0,0,1,1.31-.56A.65.65,0,0,1,6.52,6.45Z" transform="translate(0 0.02)" fill="#1e88e5" opacity="0.7"/><rect width="30" height="20" fill="none"/></svg>