<!-- Copyright (c) 2023 Jan Stehno -->
<svg xmlns="http://www.w3.org/2000/svg" viewBox="0 0 300 200">
    <title>banteng_organs</title>
    <g id="banteng">
        <g id="organs">
            <path
                d="M200.69,117c-4.22,7.14-10.55,7.39-16.6,9s-8.49,3.84-11,.8-5.1-6.06-6.37-13.75-1.69-19.46,4-27,8.64-11.45,11.4-11.65,9.87,11.53,13.33,16S205.39,109.05,200.69,117Z"
                fill="#1e88e5" opacity="0.7" />
            <path
                d="M183.64,101c-4,9.35-14,20.14-19.1,23.11s-10.49,3.26-10.3-8.91,3.5-25.56,7.08-31.64,6.26-12.26,12-12.68S193.84,77.18,183.64,101Z"
                fill="#1e88e5" opacity="0.7" />
            <path
                d="M215,119.25c-4.89,1-12.36,1.26-15.08-7.36s-7.5-17.82-9.17-22.71-4-11.39.36-14.69,13.23-1,22.91-3.1,13.63-5.17,18.29-4.25,5,2.26,7.87,1.63,3.93-1.78,6.24-1.11,5.08,3.44,4.33,5.41-2.1,2.24-3.48,1.32S240.46,77,239.4,78s.89,4-.1,11.69-7.33,18.9-11.37,22.35S219.68,118.26,215,119.25Z"
                fill="#1e88e5" opacity="0.7" />
            <path
                d="M123.77,125.82c-5.51-1.61-7.87-2.34-8.79-5.17s.3-3.79-.53-7-2.06-5.12-1.57-5.93a2,2,0,0,1,2.86-.08c.52.82.69,6.26,1.35,6.53s1-.82,1-2.74.49-3.3-.23-3.76-1.6-1-.54-1.17,2,.53,2.43,0a1,1,0,0,1,1.51,0c.32.44,1.56.06,2.1.62s-1,2.65-.3,4,6,3.46,6.63,6.91a17.65,17.65,0,0,1-.31,8C129,127.09,126,126.48,123.77,125.82Z"
                fill="#e53935" opacity="0.7" />
            <path
                d="M177.72,71.8c-5.05-3.77-16.28-5-34.71-5.16s-30.29.42-37.2,8.62-9.12,11.12-6.65,21.68,8.73,20.37,20.6,25,44.16,8.23,50.73,7.58,14.4-3.65,16.49-16.68S184.15,76.61,177.72,71.8Z"
                fill="#ffb300" opacity="0.7" />
            <path
                d="M65.2,64.71c0,2.29-1.53,6-5,6.54a24.83,24.83,0,0,0-7,1.89c-2.25,1-7,1.58-9.34-1.78s-2-5.31,1.77-8.26,8.35-5.71,13-5.6S65.25,61.13,65.2,64.71Z"
                fill="#1e88e5" opacity="0.7" />
        </g>
    </g>
    <g id="frame">
        <rect width="300" height="200" fill="none" />
    </g>
</svg>