<svg xmlns="http://www.w3.org/2000/svg" viewBox="0 0 30 20.02"><path d="M25.08,18.43,25,17.8l-.15-.95,0-.89,0-1.12,0-.68,0-.38,0-.29-.19-.2L24.14,13l-.5-.71-.18-.37,0-.29.06-.3.21-.47.43-.86.24-.73.1-.94,0-.65V7.31l-.12-.41-.25-.27-.51-.25L22.8,6l-.64-.32-.82-.21-.88,0-.92.1-1.22.12-1,.11-1.05.09-.66,0h-.51l-.33-.13-.66-.15-.79,0-.55.09-.5.08H11.5L11,5.66l-.37-.26L10.31,5l-.22-.6L9.84,4l-.37-.45.15-.14.07-.17V3l-.08-.16-.13-.13-.26-.07H9l0-.22-.07-.17L9.27,2l.42-.25.43-.3.37-.33.15-.28.17-.28L11,.38l.29-.16L11.64,0H10.35l-.12.41L10,.71l-.3.3-.34.21-.52.17L9,1.22,9.17.89,9.29.64,9.36.37,9.57,0H8.8L8.67.33,8.52.67,8.31,1l-.17.27L8,1.32h-.2L7.4,1.18,6.94,1,6.42.73,6.09.56,5.87.35,5.62,0H4.76L5,.3l.39.44.45.34.52.31.88.44.4.2.07.09v.17l0,.1-.16.19-.2.18L7,2.93l-.31.17-.18.13-.15.22-.2.13-.4.29-.52.38-.33.24-.37.16-.16.11-.11.15,0,.23,0,.18.07.11.1.06h.11l.07.1.11.08L5,5.75h.23l.2-.09.29-.07.33,0,.6.07.47.17L7.37,6l.14.13,0,.26,0,.41.1.55.22.5.43.58.5.43.35.25.42.23.35.16.32.19.24.19.14.32.18.45.24.57.38.46.47.39.65.26.12.47.17.56.17,1v.62l0,.31,0,.18,0,.17,0,.07.08.6,0,.66,0,.75-.15.53-.18.5-.25.39-.35.41-.21.25v.07l.07,0,0,.06.28.08h.42L13,20l.13-.12.09-.16v-.19l0-.15.16-.23.14.06.22,0,.43,0,.16-.15,0-.14,0-.18.08-.24.05-.1.05-.05,0,0,.06,0,.08-.06v-.1l0-.08L15,18l0-.15v-.09l-.08-.14,0-.36,0-.5-.05-.55v-1l.05-.31v-.31l-.06-.54-.06-1,0-.75.1-.15.54.06.73.07,1,0,.74-.11.68-.16.43-.12.14.05.35.07.34.08.4.21.63.55.63.53.38.43.21.45,0,.52-.07.74-.18.74-.22.67-.17.63-.05.29-.27.4-.48.47-.05.09V19l.12,0,.47.09.29,0,.16-.08.09-.14,0-.16,0-.22,0-.11.13-.09H22l.08,0,.09,0,.11-.17.06-.23,0-.52.09-.52.36-1.28.46-1.26.19.12.36.64.22.79.07.84v2.11l-.12.29-.05.15-.27.34-.17.25v.06l.08,0,.1,0,0,.05.2.08h.49l.2-.06.14-.18,0-.21v-.29l0-.32.05-.1h.05l.05.07h0l.07-.09.06-.18ZM14.2,17.68l-.1.42-.24.41L13.79,18l0-.48.05-.64.08-.65.12-.59.13.32,0,.49,0,.71Z" transform="translate(0 0.02)" fill="#ccc"/><rect width="30" height="20" fill="none"/></svg>