<svg xmlns="http://www.w3.org/2000/svg" viewBox="0 0 30 20"><polygon points="16.5 9.03 16.3 9.92 16.23 10.38 16.23 10.89 16.33 11.23 16.55 11.38 16.7 11.42 16.93 11.38 17.48 10.85 17.8 10.16 18.01 9.08 18.09 8.4 18.01 7.97 17.77 7.71 17.58 7.58 17.37 7.6 17.18 7.69 16.82 8.25 16.5 9.03" fill="#1e88e5" opacity="0.7"/><polygon points="16.79 9.31 16.69 9.8 16.73 10.29 16.95 10.87 17.22 11.23 17.55 11.34 18.15 11.27 18.89 11.11 19.57 10.8 19.84 10.55 19.85 10.34 19.79 9.97 19.02 9.08 18.39 8.27 18.16 7.92 17.91 7.79 17.71 7.82 17.53 7.93 17.21 8.36 16.95 8.9 16.79 9.31" fill="#1e88e5" opacity="0.7"/><polygon points="18.27 9.17 18.51 9.47 18.73 9.58 18.88 9.63 19.01 9.79 19.07 10 19.27 10.2 19.49 10.29 19.75 10.31 20.06 10.35 20.27 10.4 20.47 10.52 20.75 10.5 21.05 10.41 21.24 10.29 21.31 10.16 21.44 10.03 21.54 9.92 21.63 9.76 21.71 9.56 21.76 9.3 21.89 9.12 22.05 8.98 22.16 8.76 22.21 8.6 22.21 8.4 22.2 8.27 22.32 8.22 22.56 8.17 22.76 8.06 22.91 7.96 23.01 7.95 23.21 7.95 23.3 7.89 23.35 7.73 23.37 7.58 23.3 7.46 23.21 7.39 22.98 7.37 22.81 7.37 22.58 7.52 22.33 7.61 22.02 7.57 21.69 7.39 21.34 7.25 21.03 7.19 20.54 7.2 19.91 7.33 19.23 7.48 18.54 7.65 18.25 7.76 18.07 7.89 18.01 8.12 18.06 8.49 18.16 8.89 18.27 9.17" fill="#1e88e5" opacity="0.7"/><polygon points="7.54 2.95 7.45 3.16 7.5 3.4 7.64 3.55 8 3.67 8.22 3.67 8.4 3.72 8.62 3.79 8.78 3.84 8.91 3.8 9.02 3.64 9.02 3.41 8.94 3.16 8.64 2.91 8.29 2.77 8.02 2.73 7.72 2.8 7.54 2.95" fill="#1e88e5" opacity="0.7"/><path d="M14,11.28c-.44,0-.63,0-.76-.29s-.05-.37-.18-.65-.26-.43-.24-.52.16-.13.21-.07.18.57.24.59,0-.1,0-.28,0-.32-.1-.35-.14-.06-.06-.1.15,0,.18,0a.07.07,0,0,1,.11,0s.12,0,.17,0,0,.27.06.38.51.19.63.5a2.21,2.21,0,0,1,.15.76C14.39,11.29,14.15,11.3,14,11.28Z" transform="translate(0 0.02)" fill="#e53935" opacity="0.7"/><polygon points="12.35 8.92 12.26 9.43 12.31 9.93 12.67 10.43 13.11 10.76 14.04 11.06 15.28 11.29 16.22 11.17 16.66 10.93 16.93 10.53 17.22 9.4 17.26 8.41 17.13 7.73 16.84 7.55 16.48 7.49 14.97 7.6 13.42 7.96 12.76 8.31 12.49 8.6 12.35 8.92" fill="#ffb300" opacity="0.7"/><rect width="30" height="20" fill="none"/></svg>