<svg xmlns="http://www.w3.org/2000/svg" viewBox="0 0 30 20"><polygon points="13.84 9.56 13.64 10.05 13.54 10.69 13.56 11.36 13.68 11.76 13.98 12.04 14.23 12.15 14.49 12.15 14.72 11.87 15.05 11.05 15.28 9.39 15.33 8.25 15.37 7.71 15.19 7.49 14.89 7.45 14.53 7.58 14.3 7.82 14.25 8.12 14.14 8.76 14.03 9.23 13.84 9.56" fill="#1e88e5" opacity="0.7"/><polygon points="14.78 11.95 15.08 11.95 15.91 11.7 17.04 11.1 17.47 10.71 17.68 10.25 17.7 9.69 17.46 9.13 16.91 8.29 16.25 7.59 15.9 7.24 15.58 7.22 15.26 7.29 15.02 7.46 14.85 7.76 14.77 8.25 14.81 8.83 14.73 9.24 14.49 9.65 14.24 10.11 14.12 10.79 14.19 11.27 14.4 11.62 14.78 11.95" fill="#1e88e5" opacity="0.7"/><polygon points="16.96 9.77 17.29 9.92 17.42 10.05 17.51 10.35 17.64 10.61 17.88 10.71 18.09 10.72 18.22 10.88 18.43 10.91 18.64 10.84 19.05 10.78 19.36 10.73 19.66 10.57 19.95 10.48 20.27 10.42 20.41 10.23 20.62 9.94 20.73 9.65 20.82 9.44 21.02 9.32 21.12 9.25 21.22 8.95 21.27 8.72 21.3 8.52 21.54 8.54 21.71 8.54 21.93 8.53 22.23 8.55 22.42 8.63 22.62 8.64 22.79 8.54 22.85 8.35 22.82 8.15 22.68 8.03 22.44 7.94 22.2 7.89 21.82 7.87 21.61 7.83 21.46 7.73 21.19 7.55 20.86 7.29 20.53 7.08 20.19 6.97 19.36 6.79 18.44 6.8 17.2 6.9 16.37 7.05 15.99 7.29 15.91 7.59 15.94 7.95 16.24 8.55 16.57 8.91 16.78 9.45 16.96 9.77" fill="#1e88e5" opacity="0.7"/><polygon points="3.88 4.83 3.79 5 3.81 5.25 3.95 5.45 4.25 5.54 4.76 5.53 5.18 5.48 5.37 5.27 5.36 5.05 5.21 4.73 4.96 4.54 4.68 4.48 4.33 4.54 4.05 4.69 3.88 4.83" fill="#1e88e5" opacity="0.7"/><path d="M11.42,11.78c-.53-.14-.75-.2-.84-.45s0-.33-.07-.61-.2-.45-.16-.53a.2.2,0,0,1,.27,0c.05.07.08.55.14.57s.09-.07.1-.24,0-.29,0-.33-.16-.09-.06-.11.19.05.23,0a.1.1,0,0,1,.15,0s.14,0,.19.06-.09.23,0,.35.57.3.64.6a1.43,1.43,0,0,1,0,.71C11.91,11.89,11.63,11.84,11.42,11.78Z" transform="translate(0 0.02)" fill="#e53935" opacity="0.7"/><polygon points="8.88 9.51 8.83 9.84 8.85 10.07 9.24 10.58 9.53 10.89 10.14 11.41 10.9 11.94 11.36 12.15 12.36 12.36 13.49 12.33 14.12 12.17 14.44 11.92 14.7 11.34 14.89 10.27 15.03 8.98 15.04 7.98 14.86 7.67 14.58 7.55 14.02 7.54 13.05 7.6 11.62 7.76 10.48 8.01 9.57 8.49 9.09 9.03 8.88 9.51" fill="#ffb300" opacity="0.7"/><rect width="30" height="20" fill="none"/></svg>