<svg xmlns="http://www.w3.org/2000/svg" viewBox="0 0 30 20.02"><path d="M1.54,7v-.1l.06-.1.08-.09.05-.1.09-.14L2,6.2l.17-.14.11-.13.09-.14.2-.28.1-.18,0-.19.15-.26.26-.25.3-.24.23-.14.29-.12H4l0-.16V3.73l0-.22,0-.17.06-.1.08-.06h.09l.09.07.07,0h.09l.11.09.11.15.12.17.06.13.06.1L5.08,4l.2,0,.42.09.5.21.42.16.53.37.39.29L8,5.39l.49.23.25.08.23,0,.2-.07.18-.08h.78l.36.06.31.15.26.12.19.15.26.11.22.07.2,0,.19.09.29,0,.67,0,.64,0,.71-.13.71-.08.8-.08L17,5.92l.72-.07,1.22,0,.57,0,.7.1,1.09.29,1.15.4L23,7l.59.56L24,8.2l.36.72.22.66.24.78.23.86.1.85.17.88.15.7.17.53.33.62.27.39.34.37.36.23.38.1h.94l.14.05.13.11,0,.13v.12l0,.08-.08.06-.14,0-.49,0L27,16.39l-.63-.21L26,15.91l-.4-.39-.26-.32L25,14.67l-.27-.48-.18-.74-.18-.8-.21-.91L24,11.12l-.17-.56-.1-.31-.11-.18,0,0-.07.42-.14.67-.2.72-.15.58-.08.67.08.74.18.71.29.75.36.56.22.19.09.21.05.28,0,.16-.11.16-.09.61-.06.63v.53l0,.43-.06.25-.13.16-.18.12-.16,0-.2.05-.08.14-.26.16h-.4l-.14-.08-.17,0h-.17l-.17,0-.27-.16-.1-.16v-.25l0-.06,0-.09,0-.11.13-.11.13-.08v-.09l-.23,0-.17,0-.16-.09L21,18.56l-.07-.22v-.15L21,18l.15-.15.29-.13.22,0,.12-.05.08-.26,0-.55-.15-.46-.4-.65-.47-.51-.36-.44-.56-.59-.52-.56L19,13.22l-.19-.36-.2-.37-.07-.34-.05-.32-.73.18-.63.26-.54.35-.4.21-.77.25-.78.12-1,0-.93-.16-.63-.14h-.42l-.16,0,.19.45,0,.31-.09.51-.1.56-.09,1-.05.66v.54l0,.19,0,.23-.1.15-.14.15,0,.29v.51l0,.38v.23l-.12.27-.16.22-.21.11-.28,0-.16.15L10,20l-.16,0H9.62l-.1-.07-.16,0h-.2l-.18,0-.08-.07-.13,0-.1-.11-.08-.15-.05-.14.05-.14-.17-.13-.06-.09,0-.21,0-.15.16-.19.26-.19L9,18.24l.13-.09.1-.21,0-.82-.05-.39.07-.57,0-.5-.28-1-.18-.84-.25-.55-.24-.42-.49-.53-.28-.42-.41-.81-.22-.62-.18-.36-.36-.43-.26-.5-.18-.35-.24-.18-.21-.38-.22-.25-.33-.17-.58-.08-.46,0-.44.24-.28.2-.31.14-.35,0-.22-.17L2.17,8l0-.23-.1-.13L2,7.59l-.17-.16-.06-.15L1.7,7.16l-.08,0-.06-.08Z" transform="translate(0 0.02)" fill="#ccc"/><rect width="30" height="20" fill="none"/></svg>