<svg xmlns="http://www.w3.org/2000/svg" viewBox="0 0 30 20"><path d="M18.16,7.81c.54,0,.84.46.66,1.87s0,3.07-.46,3.48-1.24.49-1.6-.83S16.88,7.91,18.16,7.81Z" transform="translate(0 0.02)" fill="#1e88e5" opacity="0.7"/><path d="M20.47,10.32c.54,1.09,1.5,1.91,1,2.76a2,2,0,0,1-2.64.5C18.23,13,17.58,12,18.1,9.76s1.27-2.3,1.57-1.28A7.27,7.27,0,0,0,20.47,10.32Z" transform="translate(0 0.02)" fill="#1e88e5" opacity="0.7"/><path d="M22.46,12.73c.66-.07,1.74-1.23,2.06-2.06s0-1.54.54-1.49.58-.35.84-.23.67.65.75.12-.31-1-.57-.89l-.26.07a.49.49,0,0,1-.62-.19c-.28-.38-.45-1-1.29-.79a4.67,4.67,0,0,1-2,.1c-1-.14-1.86.21-1.65,1.22a20.69,20.69,0,0,0,.88,3.33A1.27,1.27,0,0,0,22.46,12.73Z" transform="translate(0 0.02)" fill="#1e88e5" opacity="0.7"/><path d="M13.28,13.57c-.59-.11-.85-.16-1-.5s0-.49-.15-.88-.29-.62-.25-.73a.18.18,0,0,1,.29-.06c.07.1.16.78.24.81s.08-.12.06-.37,0-.42-.08-.47-.18-.1-.07-.14.21,0,.25,0a.1.1,0,0,1,.16,0c0,.05.16,0,.22,0s-.06.36,0,.52.67.33.79.76a2.64,2.64,0,0,1,.08,1C13.84,13.64,13.52,13.61,13.28,13.57Z" transform="translate(0 0.02)" fill="#e53935" opacity="0.7"/><path d="M11.64,12.88c.24.76,3.33,1.28,4.53,1.16s1.45-1,1.59-2.76.28-2.84-.62-2.91a9.74,9.74,0,0,0-3.07.48,3.64,3.64,0,0,0-2.39,2.42A3.06,3.06,0,0,0,11.64,12.88Z" transform="translate(0 0.02)" fill="#ffb300" opacity="0.7"/><path d="M5.38,3.33c0,.39.69.15,1.27.3s1.2,0,.89-.43S5.43,2.44,5.38,3.33Z" transform="translate(0 0.02)" fill="#1e88e5" opacity="0.7"/><rect width="30" height="20" fill="none"/></svg>