<svg xmlns="http://www.w3.org/2000/svg" viewBox="0 0 30 20"><path d="M12.82,20H14a6,6,0,0,1,.41-1.84,2.35,2.35,0,0,0,.25-1.71,4.64,4.64,0,0,1,0-1.21,11,11,0,0,0,3,.27,28.84,28.84,0,0,0,3.82-1,2,2,0,0,0,1,1.1A29.31,29.31,0,0,1,25.31,17,9.75,9.75,0,0,1,25,18.82,6.41,6.41,0,0,1,24.47,20h1.92a7.71,7.71,0,0,1,.42-1.85c.32-.79.86-1,.86-1.58a4.87,4.87,0,0,0-1.1-2.13c-.56-.75-.65-1.35-.33-1.87s1.11-1.19,1.28-2a3.43,3.43,0,0,0,.15-1,3.32,3.32,0,0,1,.15,1.45c-.11.69.56.36.68-.54A4.37,4.37,0,0,0,27,7.3c-1-.87-1.47-1.54-3-1.72s-3.26.33-5.41.36-3.24-.8-4.45-.9a6.79,6.79,0,0,0-3.21.59A2.85,2.85,0,0,1,9.8,6a.52.52,0,0,1-.48-.3,3.49,3.49,0,0,0,.44-2.66,2.1,2.1,0,0,0-2-1.67c-1-.18-2.24.3-2.41.83s-.61.66-.74.94a2.08,2.08,0,0,1-.83,1.17c-.72.58-.76.89-1.3,1.24s-1,.79-1,1,.19.48.18.73a.22.22,0,0,0,.22.25A.5.5,0,0,0,2.56,8a5,5,0,0,1,1.77,0c.53.09,1-.06,1.1.11a7.13,7.13,0,0,0,1.92,3.07c1.51,1.34,2.34,1.55,2.72,2s1.19.69,1.42,1a5.63,5.63,0,0,1,1.11,2.74c-.08.9.28,1.22.3,1.89A5.52,5.52,0,0,1,12.82,20Z" transform="translate(0 0.02)" fill="#ccc"/><rect width="30" height="20" fill="none"/></svg>