<!-- Copyright (c) 2022 Jan Stehno -->
<svg xmlns="http://www.w3.org/2000/svg" viewBox="0 0 300 200"><title>bighornsheep_body</title><g id="bighornsheep"><g id="body"><path d="M128.25,200h12.06a60.65,60.65,0,0,1,4.11-18.33c3.66-8.67,3.5-10.75,2.5-17.09a48.23,48.23,0,0,1-.25-12.16s17.7,4.08,29.83,2.71,38.25-10,38.25-10,1.37,6.12,10,11.06,28.37,11.62,28.37,13.69a103.06,103.06,0,0,1-3.5,18.56A63.85,63.85,0,0,1,244.69,200h19.25s1-10.62,4.18-18.5,8.63-10.31,8.63-15.75-5.5-13.83-11.08-21.33-6.5-13.5-3.25-18.67,11.08-11.94,12.83-19.81,1.5-9.5,1.5-9.5,2.67,7.56,1.5,14.48,5.58,3.66,6.75-5.34S279.67,82,269.92,73.25,255.17,57.83,239.83,56s-32.66,3.33-54.16,3.67-32.34-8-44.5-9a68.86,68.86,0,0,0-32.09,5.83c-6.66,3.25-8.76,4.13-11.09,4.13a5.15,5.15,0,0,1-4.79-3c4.35-4.81,6.43-16.3,4.43-26.55s-9.44-15-19.94-16.78-22.36,3-24.11,8.36-6.08,6.58-7.41,9.41S45.08,38,37.92,43.75s-7.59,8.92-13,12.42S15.33,64,15.25,66.58s1.87,4.8,1.75,7.3a2.16,2.16,0,0,0,2.25,2.43s.75,5.44,6.37,4.25,12.38-.68,17.69.19,9.52-.58,11,1.08,4.13,17.42,19.21,30.75,23.42,15.5,27.17,20,11.91,6.84,14.25,9.67,11.91,18.42,11.08,27.42,2.75,12.16,3,18.83A52.86,52.86,0,0,1,128.25,200Z" transform="translate(0 0)" fill="#ccc"/></g></g><g id="frame"><rect id="frame-2" width="300" height="200" fill="none"/></g></svg>