<!-- Copyright (c) 2023 Jan Stehno -->
<svg xmlns="http://www.w3.org/2000/svg" viewBox="0 0 300 200">
    <title>bighornsheep_organs</title>
    <g id="bighornsheep">
        <g id="organs">
            <path
                d="M181.58,78.33C187,77.91,190,82.92,188.17,97s-.25,30.75-4.59,34.83-12.33,4.92-16-8.33S168.83,79.33,181.58,78.33Z"
                transform="translate(0 0)" fill="#1e88e5" opacity="0.7" />
            <path
                d="M204.67,103.42c5.42,10.9,15,19.16,10.41,27.66s-20,10.5-26.37,4.92S175.83,119.83,181,97.83s12.75-23,15.67-12.75S202.25,98.56,204.67,103.42Z"
                transform="translate(0 0)" fill="#1e88e5" opacity="0.7" />
            <path
                d="M224.58,127.5c6.65-.66,17.42-12.25,20.67-20.58s.33-15.34,5.33-14.84,5.84-3.5,8.42-2.33,6.67,6.5,7.5,1.17-3.08-9.5-5.67-8.84l-2.58.67s-3.5,1.83-6.25-1.92-4.5-9.58-12.92-7.91-10.25,2.33-20.33,1S200.25,76,202.33,86.17s5.59,26.41,8.75,33.25S219.58,128,224.58,127.5Z"
                transform="translate(0 0)" fill="#1e88e5" opacity="0.7" />
            <path
                d="M132.79,135.93c-5.92-1.08-8.48-1.6-9.84-5s-.25-4.86-1.59-8.79-2.88-6.13-2.5-7.24,2.29-1.54,3-.6,1.63,7.81,2.35,8,.86-1.19.67-3.64,0-4.28-.79-4.74-1.8-1-.73-1.38,2.1.32,2.51-.39,1.16-.79,1.55-.29,1.62-.2,2.26.41-.67,3.54.28,5.13,6.67,3.34,7.87,7.59a27.56,27.56,0,0,1,.87,10.25C138.37,136.62,135.19,136.37,132.79,135.93Z"
                transform="translate(0 0)" fill="#e53935" opacity="0.7" />
            <path
                d="M116.42,129c2.37,7.64,33.25,12.83,45.33,11.67s14.5-9.59,15.83-27.59,2.84-28.41-6.16-29.16-16.59,1.5-30.67,4.83-22.5,18-23.92,24.17S114.92,124.17,116.42,129Z"
                transform="translate(0 0)" fill="#ffb300" opacity="0.7" />
            <path
                d="M53.83,33.5c-.22,3.91,6.92,1.58,12.67,3s12-.25,8.92-4.25S54.33,24.67,53.83,33.5Z"
                transform="translate(0 0)" fill="#1e88e5" opacity="0.7" />
        </g>
    </g>
    <g id="frame">
        <rect id="frame-2" width="300" height="200" fill="none" />
    </g>
</svg>