<!-- Copyright (c) 2023 Jan Stehno -->
<svg xmlns="http://www.w3.org/2000/svg" viewBox="0 0 300 200">
    <title>blackbear_organs</title>
    <g id="blackbear">
        <g id="organs">
            <path
                d="M213.56,141.06c3.84-3,5.82-11.18,7.38-16.93s1.25-12.25-1.19-12.94-7.56,3.25-8.56,10.75S201.94,150.13,213.56,141.06Z"
                transform="translate(0 0)" fill="#1e88e5" opacity="0.7" />
            <path
                d="M222.69,140.38c5.34-1.28,9.81-5.25,6.44-12.75s-4.57-13.82-6.82-14.25-4.56,9.06-6.68,13.5S208.56,143.75,222.69,140.38Z"
                transform="translate(0 0)" fill="#1e88e5" opacity="0.7" />
            <path
                d="M235.13,138.25c5.27-.67,9.37-2.75,10.81-6.44s7-.94,9.12-4.66,6.63-.8,9.13,1.59,8.12,10.89,6.56,4.51-12.19-12.81-15.87-16.06-5.63-7.38-13.38-8.06-13.94-1.29-16.87,1.35,1.81,14.21,1.06,18.52S231,138.78,235.13,138.25Z"
                transform="translate(0 0)" fill="#1e88e5" opacity="0.7" />
            <path
                d="M185.27,149.88c-3.44-1-4.91-1.4-5.57-3.74s.06-3.24-.55-5.92S177.72,136,178,135.3s1.42-.93,1.76-.28.62,5.27,1,5.45.55-.77.55-2.41.19-2.84-.26-3.18-1-.75-.37-.95,1.22.3,1.49-.16.72-.48.93-.13,1-.07,1.31.36-.55,2.33-.06,3.43,3.78,2.5,4.3,5.38a20.92,20.92,0,0,1,.07,6.86C188.52,150.57,186.66,150.27,185.27,149.88Z"
                transform="translate(0 0)" fill="#e53935" opacity="0.7" />
            <path
                d="M191.19,146.88c9.35-.83,16.5-2.75,19.37-11.13s5.82-19.62,3.13-23.62-11.75.56-17.88.5-16.68-.19-22.18,7.62-6.94,15.5-1.63,21.19S187.11,147.24,191.19,146.88Z"
                transform="translate(0 0)" fill="#ffb300" opacity="0.7" />
            <path
                d="M130.8,118.57c1.66,1.52,4-.94,5.62-.78s3.47.41,3.12-1.8-2.33-3.79-5.43-3.35S127.84,115.86,130.8,118.57Z"
                transform="translate(0 0)" fill="#1e88e5" opacity="0.7" />
            <path
                d="M44.06,112.63c4,3.75,18.24,2.25,23.47-.32s6.78-5.56,6.47-10.37S71.19,96,67.94,94.5s-9.19-3.19-14.06-.31S43,101.5,42.69,104.75,42.81,111.44,44.06,112.63Z"
                transform="translate(0 0)" fill="#1e88e5" opacity="0.7" />
            <path
                d="M41.83,101.08c.24,2.75,4.54,5,12,1.17s13.67-3.33,15.84-5,0-7.27-8.17-7.74S41.33,95.29,41.83,101.08Z"
                transform="translate(0 0)" fill="#1e88e5" opacity="0.7" />
            <path
                d="M42.88,116.88c-.14,3.59,4.12,7.43,5.06,12s5.34,9.87,8.2,8.93,5-4.56,6-2.93-3.07,5.06-3,9,4.18,16.62,4.12,8-2.5-11.07,1.44-14.63,5.37-6.06,6.5-9.69,2.87-6.81,2.44-10.68-2.19-7.69-8.82-8.13-8.87.44-13,0S43,113.5,42.88,116.88Z"
                transform="translate(0 0)" fill="#1e88e5" opacity="0.7" />
            <path
                d="M45.33,94.83c3.48,1.73,8.25,1,9.25-5s1-26.16,1-31.75-3.08-6.91-7-2.91S37.08,90.75,45.33,94.83Z"
                transform="translate(0 0)" fill="#ffb300" opacity="0.7" />
            <path
                d="M70.8,94.83c-3.48,1.73-8.25,1-9.25-5s-1-26.16-1-31.75,3.09-6.91,7-2.91S79.05,90.75,70.8,94.83Z"
                transform="translate(0 0)" fill="#ffb300" opacity="0.7" />
            <path
                d="M56.42,60.35c1.83-.43,2.94.38,4,1,2.68,1.63,1.76,4.69,1.39,5.67s-3.68,2.57-5.29,1.46-3.48-2.15-3-3.65S54.73,60.74,56.42,60.35Z"
                transform="translate(0 0)" fill="#e53935" opacity="0.7" />
            <path
                d="M59.41,20.23c1.06,1.71,3.69.16,5,.69s2.89,1.2,3.13-.79-1.09-3.83-3.86-4.21S57.52,17.16,59.41,20.23Z"
                transform="translate(0 0)" fill="#1e88e5" opacity="0.7" />
        </g>
    </g>
    <g id="frame">
        <rect id="frame-2" width="300" height="200" fill="none" />
    </g>
</svg>