<svg xmlns="http://www.w3.org/2000/svg" viewBox="0 0 30 20"><path d="M27.22,20h-1l-.38-1.25,0,1.25h-1a13.09,13.09,0,0,0-.39-2.75c-.3-.78-1-1.26-1.31-2.18a5.11,5.11,0,0,0-1-1.69,2.11,2.11,0,0,1-1,.57c-.67.15-.69.37-1,.5s-.45.06-.61-.26-.54-.19-1.36-.31-1.41-.27-1.78-.29-.78,0-.78,0a16,16,0,0,1,0,1.88,15.31,15.31,0,0,0,.27,2.33c0,.37,0,.94,0,1.4s.06.8.06.8H15l-.26-1.62L14.48,20h-.81s0-2,.07-3.31A14.37,14.37,0,0,0,13.55,14a5.16,5.16,0,0,1-2.2-.95,10.77,10.77,0,0,0-2.68-1.71A6.31,6.31,0,0,1,6.51,9.13a4,4,0,0,1-.74-2.25c0-.42,0-.37-.55-.5A12.71,12.71,0,0,0,3.38,6C3,6,3,6,2.81,6a.71.71,0,0,1-.59-.32C2.15,5.51,2,5.52,2,5.38S1.87,5,1.87,4.83s.09-.4.5-.64A18.15,18.15,0,0,0,4.49,2.88a9.92,9.92,0,0,1,1.32-.76.77.77,0,0,0,.37-.45.5.5,0,0,1,.35-.31.45.45,0,0,1,.25,0A1.57,1.57,0,0,1,7.33.94,2.32,2.32,0,0,1,8.09.78,2.42,2.42,0,0,1,8.3.29a.44.44,0,0,1,.46-.2.73.73,0,0,1,.36.13L9.23,0h3a1.22,1.22,0,0,1-.83.26,6.75,6.75,0,0,0-.74,0,.83.83,0,0,1-.24.62,1.15,1.15,0,0,1-.57.25,1.28,1.28,0,0,1-.15.41,1.65,1.65,0,0,1-.36.29,1.18,1.18,0,0,0,.43,0c.25-.05.44-.09.45.11a1.11,1.11,0,0,1-.39.94,1.51,1.51,0,0,1-1,.52,1.58,1.58,0,0,1-.57,0,6.74,6.74,0,0,0,.73,2.09,2.94,2.94,0,0,0,2.25,1.38c1,0,1.54-.43,2.89-.52a15.52,15.52,0,0,1,2.41.22c.87,0,1.42-.36,2.56-.37s1.36-.24,2.65-.22,1.24-.21,1.89-.14a19,19,0,0,1,2.13.66,2.26,2.26,0,0,1,1.67,1.64c.27.9.4,2.3.59,2.9s.44,1.29.05,1.2-.56-.62-.7-1a5,5,0,0,1-.13-1.23,7.75,7.75,0,0,1-.72,1.71c-.38.52-1,1.13-1.09,1.7a3.56,3.56,0,0,0,.56,2.44c.54.53.67.7.64,1.24A14,14,0,0,0,27.22,20Z" transform="translate(0 0.02)" fill="#ccc"/><rect width="30" height="20" fill="none"/></svg>