<!-- Copyright (c) 2022 - 2023 Jan Stehno -->
<svg xmlns="http://www.w3.org/2000/svg" viewBox="0 0 300 200"><title>blackbuck_organs</title><g id="blackbuck"><g id="organs"><path d="M194.16,112.08c-5.2,3.35-12.58,6.67-16.5-3.33s-.91-23.17,3.67-29,15.5-12.33,19.08-3.5S201.16,107.58,194.16,112.08Z" transform="translate(0 0)" fill="#1e88e5" opacity="0.7"/><path d="M190.25,86.17c-.66,9.84-9.23,23-3.41,27s18.41,1.75,26.07-.84,7.67-3.9-.91-11.57-11.32-27.09-15.12-28.38S190.58,81.17,190.25,86.17Z" transform="translate(0 0)" fill="#1e88e5" opacity="0.7"/><path d="M263.75,86.58c-5.76-1.22-19.34,2.34-20.84,7.84s-11.66,20-21.16,14.33-13.18-11.23-16.54-18.24S195.75,73.42,201,70.92s14.41.41,24.08,0S242.33,72,246,76.75s4.58,4.83,8.91,3.83,9.92.09,12.25,2.92S267.66,87.42,263.75,86.58Z" transform="translate(0 0)" fill="#1e88e5" opacity="0.7"/><path d="M152.55,122c-5.62-.08-8.05-.17-9.92-3.31s-1.11-4.74-3-8.4-3.75-5.55-3.6-6.71,1.83-1.89,2.6-1.08,2.9,7.42,3.6,7.52.57-1.32-.05-3.7-.75-4.21-1.57-4.53-1.83-.7-.92-1.24,2,0,2.23-.8.92-1,1.38-.54,1.44-.47,2.14,0,0,3.59,1.18,5,6.72,2.18,8.58,6.17a29.48,29.48,0,0,1,2.64,10C157.79,121.75,154.83,122,152.55,122Z" transform="translate(0 0)" fill="#e53935" opacity="0.7"/><path d="M180.44,117.19c-5.82,4.9-19.82,5.81-33.94,4.81s-18.38,1.75-20.13-12,7.25-25.88,18.75-29.75,33.25-7.37,38.5-4.5S187.62,111.13,180.44,117.19Z" transform="translate(0 0)" fill="#ffb300" opacity="0.7"/><path d="M72.31,34.19c-1.86,2.48-3.19-.88-7.12-1.75s-5.94-1.82-4.63-3.82,5.38-2.12,8.63-.43S73.81,32.19,72.31,34.19Z" transform="translate(0 0)" fill="#1e88e5" opacity="0.7"/></g></g><g id="frame"><rect id="frame-2" width="300" height="200" fill="none"/></g></svg>