<svg xmlns="http://www.w3.org/2000/svg" viewBox="0 0 30 20"><path d="M18.76,13.39c1-.16,1.49-1.09,1.54-2.89S20,7.7,19.19,7.79,17.81,10,17.66,11,17.56,13.59,18.76,13.39Z" transform="translate(0 0.02)" fill="#1e88e5" opacity="0.7"/><path d="M21.15,13.11c1-.3,1.75-.95,1.2-1.77s-1.49-1-1.81-1.65S20.06,7.89,19.43,8s-.42,2.33-.67,3.52S18.62,13.86,21.15,13.11Z" transform="translate(0 0.02)" fill="#1e88e5" opacity="0.7"/><path d="M23.39,11.86c1-.24,1.56-.95,1.51-1.48s.11-1.07.64-1.17.58-.38,1-.5a1,1,0,0,1,1.11.2c.31.35.33-.7-.15-1a1.91,1.91,0,0,0-1.73,0c-.56.25-.52-.67-1.77-.66s-2.16.3-2.91.28A1.23,1.23,0,0,0,20,9.36c.53,1,1.42,1.29,1.53,1.89S22.94,12,23.39,11.86Z" transform="translate(0 0.02)" fill="#1e88e5" opacity="0.7"/><path d="M15.07,14.4c-.58,0-.82,0-1-.36s-.11-.49-.31-.87-.39-.59-.37-.71a.17.17,0,0,1,.26-.11c.08.09.3.78.37.79s.06-.14,0-.39-.08-.44-.17-.47-.18-.08-.09-.13.2,0,.23-.09.09-.1.14-.05.14,0,.21,0,0,.38.13.53.68.23.88.65a3.13,3.13,0,0,1,.27,1C15.6,14.37,15.3,14.4,15.07,14.4Z" transform="translate(0 0.02)" fill="#e53935" opacity="0.7"/><path d="M15.21,14c1.79-.07,2.91-.16,3.2-1.9s.58-3.63.09-4-2.07.7-3.5,1.1-2.24,1-2.45,2.19S13.07,14.1,15.21,14Z" transform="translate(0 0.02)" fill="#ffb300" opacity="0.7"/><path d="M5.3,3.15c.41.07.81-.07,1.19,0A.5.5,0,0,0,7,2.51a1.1,1.1,0,0,0-1.19-.23C5.46,2.5,4.8,3.06,5.3,3.15Z" transform="translate(0 0.02)" fill="#1e88e5" opacity="0.7"/><rect width="30" height="20" fill="none"/></svg>