<!-- Copyright (c) 2022 Jan Stehno -->
<svg xmlns="http://www.w3.org/2000/svg" viewBox="0 0 300 200"><title>blackbuck_body</title><g id="blackbuck"><g id="body"><path d="M272.25,200h-9.81l-3.88-12.5-.31,12.5h-9.81s-.94-19.62-3.94-27.44-10.13-12.64-13.09-21.85-10.08-16.88-10.08-16.88A20.76,20.76,0,0,1,211,139.5c-6.71,1.54-6.92,3.79-10.13,5s-4.46.67-6-2.54-5.39-2-13.64-3.08-14.13-2.75-17.82-2.94-7.75,0-7.75,0a162,162,0,0,1,.38,18.81c-.5,7.83,2.5,19.67,2.66,23.33s-.5,9.34-.25,14S159,200,159,200h-9.25l-2.67-16.17L144.83,200h-8.08s.12-20,.62-33.08a144.83,144.83,0,0,0-1.87-26.55s-15.84-3-22-9.54-19.25-13.5-26.75-17.08S71.31,101.12,65.12,91.5s-7.81-18.25-7.43-22.44-.25-3.75-5.5-5.06-15-4.25-18.4-4.25-3.46.75-5.67.71S23,59,22.25,57.21,20,55.46,19.91,54s-1.18-3.89-1.25-5.54.93-4,5-6.34S42.08,32,44.91,29.08s10.38-5.66,13.17-7.66,2.89-2.58,3.73-4.51a5,5,0,0,1,3.47-3.1,5.27,5.27,0,0,1,2.5,0,16,16,0,0,1,5.55-4.19,22.15,22.15,0,0,1,7.54-1.54,26.53,26.53,0,0,1,2.13-5C84.16,1.25,85.66,1,87.62,1.17a7.6,7.6,0,0,1,3.54,1.25L92.33,0h29.61s-3.75,3.16-8.38,2.69a60.69,60.69,0,0,0-7.34-.38s.22,4.1-2.41,6.28A11.24,11.24,0,0,1,98.12,11a11.8,11.8,0,0,1-1.56,4.09A16.57,16.57,0,0,1,93,18a11.83,11.83,0,0,0,4.25-.25c2.56-.56,4.41-1,4.5,1.09s.16,5.54-3.88,9.38-5.65,4.47-10.28,5.16-5.68.25-5.68.25,2.43,14,7.27,20.84,12.48,13.62,22.54,13.87,15.31-4.31,28.87-5.25,15.32,2.44,24.07,2.26,14.25-3.63,25.62-3.75,13.63-2.38,26.5-2.19,12.44-2.06,18.88-1.44,13.06,4.5,21.31,6.67,14,7.39,16.69,16.39,4,23,5.89,29,4.42,12.84.5,12-5.58-6.25-7-10.5-1.25-12.33-1.25-12.33-3.5,11.92-7.25,17.08-10.08,11.34-10.83,17,.16,19.17,5.58,24.42,6.67,7,6.42,12.42S270.16,195,272.25,200Z" transform="translate(0 0)" fill="#ccc"/></g></g><g id="frame"><rect id="frame-2" width="300" height="200" fill="none"/></g></svg>