<svg xmlns="http://www.w3.org/2000/svg" viewBox="0 0 30 20"><path d="M19.42,11.18c-.52.34-1.26.67-1.65-.33A3.3,3.3,0,0,1,18.13,8c.46-.58,1.55-1.23,1.91-.35S20.12,10.73,19.42,11.18Z" transform="translate(0 0.02)" fill="#1e88e5" opacity="0.7"/><path d="M19,8.59c-.06,1-.92,2.3-.34,2.7a3.59,3.59,0,0,0,2.61-.08c.77-.26.77-.39-.09-1.16s-1.13-2.71-1.51-2.84S19.06,8.09,19,8.59Z" transform="translate(0 0.02)" fill="#1e88e5" opacity="0.7"/><path d="M26.37,8.63c-.57-.12-1.93.24-2.08.79s-1.17,2-2.12,1.43A3.8,3.8,0,0,1,20.52,9c-.33-.7-.95-1.71-.42-2s1.44,0,2.41,0a2.49,2.49,0,0,1,2.09.58c.37.48.46.48.89.38a1.34,1.34,0,0,1,1.23.3C27,8.61,26.77,8.72,26.37,8.63Z" transform="translate(0 0.02)" fill="#1e88e5" opacity="0.7"/><path d="M15.26,12.18c-.57,0-.81,0-1-.34s-.11-.47-.3-.84-.38-.55-.36-.67.18-.19.26-.1.29.74.36.75.06-.13,0-.37-.07-.42-.15-.46-.19-.07-.09-.12.19,0,.22-.08.09-.1.14,0,.14-.05.21,0,0,.36.12.5.67.22.86.62a3.1,3.1,0,0,1,.26,1C15.78,12.15,15.48,12.18,15.26,12.18Z" transform="translate(0 0.02)" fill="#e53935" opacity="0.7"/><path d="M18,11.69c-.58.49-2,.59-3.39.49s-1.84.17-2-1.2a2.8,2.8,0,0,1,1.87-3c1.15-.39,3.33-.74,3.85-.45S18.76,11.09,18,11.69Z" transform="translate(0 0.02)" fill="#ffb300" opacity="0.7"/><path d="M7.23,3.39c-.19.25-.32-.08-.71-.17s-.6-.18-.46-.38.53-.21.86,0S7.38,3.19,7.23,3.39Z" transform="translate(0 0.02)" fill="#1e88e5" opacity="0.7"/><rect width="30" height="20" fill="none"/></svg>