<svg xmlns="http://www.w3.org/2000/svg" viewBox="0 0 30 20"><path d="M28.39,20h-1.8a6.39,6.39,0,0,0,0-2.34,8,8,0,0,0-2.53-2.49,4.86,4.86,0,0,1-1-.81s-.07.27-.55.26-.58-.25-1-.2a8.41,8.41,0,0,1-1.9.46c-1.3.09-1.78.29-2.61.33s-1.39,0-1.39,0,0,1.32.14,2.32a7.24,7.24,0,0,1,0,1.68,5.16,5.16,0,0,0,0,.77h-.91l-.26-.84-.11.84h-.76a11.41,11.41,0,0,0-.15-1.25c-.09-.29.05-.45,0-1.05a17.14,17.14,0,0,0-.37-2.14c-.07-.41-.27-.22-.79-.26a2.33,2.33,0,0,1-1.45-.75,5.89,5.89,0,0,0-1.35-2.17A11.93,11.93,0,0,1,7,9.54,13.11,13.11,0,0,1,5.66,7.22c0-.33.08-1-.47-1.11A10.88,10.88,0,0,0,3.52,6c-.48,0-.46.15-1,.13S1.87,6,1.84,6a.54.54,0,0,1,0-.15.39.39,0,0,1-.33-.15c-.14-.17-.35-.5.13-.87a14.29,14.29,0,0,0,1.77-1.4A5.43,5.43,0,0,1,4.81,2a1.85,1.85,0,0,1,.66-.19s.16-.46.25-.75a2.3,2.3,0,0,0,.1-.55S5.09.38,4.54.2,3.91,0,3.91,0H5.53l.33.1V0H6.7a1.82,1.82,0,0,0-.19.31s0,.06.09,0A3.64,3.64,0,0,0,6.8,0h.52a1.74,1.74,0,0,1-.17.43,2.52,2.52,0,0,1-.32.35.56.56,0,0,1,.54.16,1.17,1.17,0,0,1,.36,1,1.12,1.12,0,0,1-.27.64A8.25,8.25,0,0,1,8.75,4.36a3.47,3.47,0,0,0,2.18,1.95,4.76,4.76,0,0,0,2.35.05A14.13,14.13,0,0,1,16,6.69c.62,0,3.26-.78,5.24-1.12a9.13,9.13,0,0,1,5.72.76C28.62,7.2,29,8.06,29,9.08s-.24,1.26-.24,1.95a5.26,5.26,0,0,0,.13,1.2,3.09,3.09,0,0,1-.69-.84,6.8,6.8,0,0,1-.27-.87s-.71,1.18-1.16,1.81-.72,1.25-.25,1.87a6.56,6.56,0,0,0,1.63,1.54c.33.17.35.34.31,1.17S28.35,19.23,28.39,20Z" transform="translate(0 0.02)" fill="#ccc"/><rect width="30" height="20" fill="none"/></svg>