<!-- Copyright (c) 2022 - 2023 Jan Stehno -->
<svg xmlns="http://www.w3.org/2000/svg" viewBox="0 0 300 200"><title>blacktaildeer_body</title><g id="blacktaildeer"><g id="body"><path d="M283.92,200h-18s2.66-15.58,0-23.33-17.67-19.79-25.3-24.92-10-8.12-10-8.12-.75,2.75-5.54,2.62-5.75-2.5-10.41-2-5.92,3.67-18.92,4.6-17.88,2.94-26.19,3.32-13.81.24-13.81.24.31,13.13,1.31,23.13.19,12.12-.06,16.87a60.77,60.77,0,0,0,0,7.63h-9.06l-2.63-8.38L144.25,200h-7.69s-.69-9.56-1.5-12.44.5-4.56.44-10.5-3-17.37-3.69-21.44-2.75-2.18-7.87-2.62-12.57-4.19-14.57-7.44-5.31-15.44-13.43-21.69-20.38-18.5-26.07-28.18S56.75,75.75,56.56,72.44s.88-9.5-4.69-11.07-11.93-.25-16.68-.81S30.56,62,25.12,61.81s-6.41-1.37-6.7-2A6.35,6.35,0,0,1,18,58.37a3.9,3.9,0,0,1-3.3-1.5c-1.35-1.71-3.41-5,1.34-8.75s13.44-9,17.69-14,10-11.59,14.37-13.46a20.37,20.37,0,0,1,6.63-1.94s1.62-4.56,2.5-7.44a24.47,24.47,0,0,0,1-5.5S50.87,4,45.41,2.22A65.68,65.68,0,0,1,39.09,0H55.31l3.28,1V0H67s-2,2.85-1.9,3.19a.5.5,0,0,0,.9.16A38.09,38.09,0,0,0,68,0h5.23A18.18,18.18,0,0,1,71.5,4.33a25.3,25.3,0,0,1-3.23,3.52,5.82,5.82,0,0,1,5.48,1.59,12.12,12.12,0,0,1,3.59,9.72,11.25,11.25,0,0,1-2.75,6.4s6.53,6.38,12.91,18.25,12.81,16.88,21.81,19.56,13.19,1.63,23.52.46,20.75,3.34,26.92,3.34,32.58-7.84,52.33-11.25,40.42-1.17,57.25,7.58,20.92,17.33,20.92,27.58-2.42,12.59-2.42,19.5a55.48,55.48,0,0,0,1.25,12s-5.5-4.83-6.91-8.41a81,81,0,0,1-2.67-8.75s-7.08,11.83-11.58,18.08-7.17,12.5-2.5,18.75,12.91,13.75,16.25,15.42,3.5,3.41,3.16,11.66S283.5,192.58,283.92,200Z" transform="translate(0 0)" fill="#ccc"/></g></g><g id="frame"><rect id="frame-2" width="300" height="200" fill="none"/></g></svg>