<!-- Copyright (c) 2022 Jan Stehno -->
<svg xmlns="http://www.w3.org/2000/svg" viewBox="0 0 300 200"><title>blacktaildeer_organs</title><g id="blacktaildeer"><g id="organs"><path d="M187.63,134.13c9.68-1.62,14.87-10.88,15.37-28.88s-3.37-28-11.12-27.12S178.13,100,176.63,110.44,175.63,136.13,187.63,134.13Z" transform="translate(0 0)" fill="#1e88e5" opacity="0.7"/><path d="M211.5,131.38c10.14-3,17.5-9.5,12-17.75s-14.88-9.81-18.12-16.5-4.75-17.94-11.13-16.66-4.12,23.28-6.62,35.16S186.25,138.88,211.5,131.38Z" transform="translate(0 0)" fill="#1e88e5" opacity="0.7"/><path d="M233.88,118.88c10.29-2.41,15.62-9.5,15.12-14.88s1.13-10.62,6.38-11.62,5.87-3.88,10-5,8-1.5,11.12,2,3.25-7-1.5-10-11.62-2.5-17.25,0S252.5,72.63,240,72.75s-21.62,3-29.12,2.75a12.31,12.31,0,0,0-10.75,18.38c5.25,10.12,14.12,12.87,15.25,18.87S229.4,119.92,233.88,118.88Z" transform="translate(0 0)" fill="#1e88e5" opacity="0.7"/><path d="M150.66,144.2c-5.73-.12-8.21-.22-10.13-3.51s-1.15-5-3.14-8.79-3.85-5.82-3.7-7,1.85-2,2.64-1.11,3,7.77,3.71,7.88.58-1.38-.07-3.87-.79-4.4-1.63-4.74-1.87-.74-.94-1.3,2,0,2.27-.83.93-1,1.4-.56,1.46-.48,2.17,0,0,3.75,1.24,5.23,6.85,2.32,8.77,6.5A31.67,31.67,0,0,1,156,142.52C156,144,153,144.25,150.66,144.2Z" transform="translate(0 0)" fill="#e53935" opacity="0.7"/><path d="M152.13,140.38c17.86-.74,29.12-1.63,32-19S189.88,85,185,81.25s-20.75,7-35,11-22.37,10-24.5,21.88S130.75,141.25,152.13,140.38Z" transform="translate(0 0)" fill="#ffb300" opacity="0.7"/><path d="M53,31.75c4.12.72,8.06-.69,11.94,0s6.31-4.19,5.12-6.37-8.18-4.5-11.81-2.32S48,30.88,53,31.75Z" transform="translate(0 0)" fill="#1e88e5" opacity="0.7"/></g></g><g id="frame"><rect id="frame-2" width="300" height="200" fill="none"/></g></svg>