<svg xmlns="http://www.w3.org/2000/svg" viewBox="0 0 30 20"><path d="M10.35,13.19c0-.18,1-.83,1.17-1.1s0-.34.72-.78.84-.49.92-.6.32-.05.32-.05a.6.6,0,0,1,.26-.48.33.33,0,0,1,.49.15,2,2,0,0,1,.07.22,6.77,6.77,0,0,0,1.6-.2c.67-.19.75,0,1.2-.25a3.25,3.25,0,0,1,1.81-.26,7.25,7.25,0,0,0,2.36-.34A15.25,15.25,0,0,1,23,9.45a3.83,3.83,0,0,1,2.52.56,18.79,18.79,0,0,1,1.64,1.44c.41.58.52,1.3.9,1.74s.47.82.33,1-.3.22-.42.18a2.33,2.33,0,0,1-.3-.17,10.8,10.8,0,0,1-.26,1.4,10.64,10.64,0,0,0-.3,1.12c0,.14.15.28.14.52s-.13.24-.09.5a5.62,5.62,0,0,1,.24.9,1.2,1.2,0,0,1-.48.92,1.52,1.52,0,0,1-.73.08.6.6,0,0,1-.39.26c-.15,0-.94.07-.94.07L24,20c-.29,0-.49,0-.53-.12a.7.7,0,0,1,.48-.57c.29-.05.87-.06.95-.27a7.06,7.06,0,0,0-.34-1.48c-.07-.37-.47-.39-.63-.63a1.28,1.28,0,0,1-.21-.46A11.43,11.43,0,0,0,21.88,16a6.25,6.25,0,0,0-1.49.07s-.28,1.47-.38,2.22-.12,1.14-.48,1.24-.34.41-1.13.41-1.11,0-1.15-.17-.22-.11-.56-.11-.41-.14-.23-.34a.89.89,0,0,1,.75-.26c.36,0,.49-.48.53-1.14a2.5,2.5,0,0,0-.3-1.57c-.27-.46-.26-1-.75-1.41a5.51,5.51,0,0,0-3-.9,7,7,0,0,0-2,.06c-.28.11-.47.09-.58,0s-.09-.25-.15-.28-.23,0-.32-.14,0-.16-.15-.31S10.37,13.28,10.35,13.19Z" transform="translate(0 0.02)" fill="#ccc"/><path d="M3.31,20c.6,0,.9-.14.93-.3a13.81,13.81,0,0,1,.61-2.4,2.16,2.16,0,0,1,1.19-1A2.16,2.16,0,0,1,7.19,17a2.19,2.19,0,0,1,.56,1.14,8.34,8.34,0,0,1,.39,1.28c.06.4.33.55,1,.55s.93,0,.93-.26-.29-.29-.5-.39-.27-.78-.31-1.2a33.83,33.83,0,0,0-.5-3.45c-.23-1.06-.57-1.95-.6-2.43a2.76,2.76,0,0,1,.08-.85A.88.88,0,0,0,9,11.24a1.41,1.41,0,0,0,.37-1.11c0-.41.15-.54,0-1s-.62-1.24-.62-1.74a1.89,1.89,0,0,0-.15-1.11c-.2-.32-.81-.62-1-1.14a3,3,0,0,1,.05-1.67,8.43,8.43,0,0,0,.08-.93c.07,0,.14,0,.29,0s.48-.21.54-.52,0-.47-.28-.5-.6.16-.73.15-.35-.24-.6-.33a2.88,2.88,0,0,0-1-.09,2.77,2.77,0,0,0-.61,0s-.11-.09-.18-.05a.12.12,0,0,0-.08.15.14.14,0,0,1,0,.11.4.4,0,0,0-.15.25,3.87,3.87,0,0,1-.11.7c0,.18.07.68,0,.94s-.31.42-.52.64S4.11,4.47,3.81,5,3.14,5.86,3,6.2a4.68,4.68,0,0,1-.27,1.23,4.7,4.7,0,0,0-.65,1.7,3.91,3.91,0,0,0,.34,1.75,1.44,1.44,0,0,0,.72.58,2.44,2.44,0,0,0,.29.1A3.74,3.74,0,0,1,3.75,13c0,.74-.36,1.47-.46,2.41A10.84,10.84,0,0,1,3.18,17c-.14.39,0,1.87-.09,2.13s-.69.34-.69.6S2.61,20,3.31,20Z" transform="translate(0 0.02)" fill="#ccc"/><rect width="30" height="20" fill="none"/></svg>