<svg xmlns="http://www.w3.org/2000/svg" viewBox="0 0 30 20"><path d="M21.36,14.08a3.6,3.6,0,0,0,.73-1.69c.16-.58.13-1.23-.11-1.3s-.76.33-.86,1.08S20.19,15,21.36,14.08Z" transform="translate(0 0.02)" fill="#1e88e5" opacity="0.7"/><path d="M22.27,14a.83.83,0,0,0,.64-1.27c-.34-.75-.45-1.38-.68-1.43s-.46.91-.67,1.35S20.86,14.35,22.27,14Z" transform="translate(0 0.02)" fill="#1e88e5" opacity="0.7"/><path d="M23.51,13.8a1.22,1.22,0,0,0,1.08-.64c.15-.37.7-.1.92-.47s.66-.08.91.16.81,1.09.65.45S25.86,12,25.49,11.69s-.56-.73-1.34-.8-1.39-.13-1.69.13.18,1.42.11,1.86S23.1,13.85,23.51,13.8Z" transform="translate(0 0.02)" fill="#1e88e5" opacity="0.7"/><path d="M18.53,15c-.35-.09-.49-.14-.56-.37s0-.32-.06-.59-.14-.42-.11-.49.14-.1.17,0,.07.52.11.54.05-.07.05-.24,0-.28,0-.32-.1-.07,0-.09.12,0,.15,0,.07,0,.09,0,.1,0,.13,0-.05.23,0,.34.38.25.43.54a1.86,1.86,0,0,1,0,.68C18.85,15,18.67,15,18.53,15Z" transform="translate(0 0.02)" fill="#e53935" opacity="0.7"/><path d="M19.12,14.66c.93-.08,1.65-.27,1.94-1.11s.58-2,.31-2.36-1.18.05-1.79.05a2.53,2.53,0,0,0-2.22.76c-.55.78-.69,1.55-.16,2.12A2.47,2.47,0,0,0,19.12,14.66Z" transform="translate(0 0.02)" fill="#ffb300" opacity="0.7"/><path d="M13.08,11.83c.17.15.4-.09.56-.08s.35.05.31-.18-.23-.37-.54-.33S12.78,11.56,13.08,11.83Z" transform="translate(0 0.02)" fill="#1e88e5" opacity="0.7"/><path d="M4.41,11.24c.39.37,1.82.22,2.34,0a1,1,0,0,0,.65-1c0-.48-.28-.59-.61-.74a1.58,1.58,0,0,0-1.4,0c-.49.29-1.09.74-1.12,1.06A1.11,1.11,0,0,0,4.41,11.24Z" transform="translate(0 0.02)" fill="#1e88e5" opacity="0.7"/><path d="M4.18,10.08c0,.28.46.51,1.2.12S6.75,9.87,7,9.7,7,9,6.15,8.92,4.13,9.5,4.18,10.08Z" transform="translate(0 0.02)" fill="#1e88e5" opacity="0.7"/><path d="M4.29,11.66c0,.36.41.75.5,1.2s.54,1,.82.9.5-.46.6-.3-.3.51-.3.9.42,1.67.41.8-.25-1.1.15-1.46a2,2,0,0,0,.65-1,2.49,2.49,0,0,0,.24-1.07.83.83,0,0,0-.88-.81c-.66,0-.89,0-1.3,0A1,1,0,0,0,4.29,11.66Z" transform="translate(0 0.02)" fill="#1e88e5" opacity="0.7"/><path d="M4.53,9.46A.61.61,0,0,0,5.46,9c.1-.6.1-2.62.1-3.18s-.31-.69-.7-.29S3.71,9.05,4.53,9.46Z" transform="translate(0 0.02)" fill="#ffb300" opacity="0.7"/><path d="M7.08,9.46A.61.61,0,0,1,6.16,9c-.1-.6-.1-2.62-.1-3.18s.3-.69.7-.29S7.91,9.05,7.08,9.46Z" transform="translate(0 0.02)" fill="#ffb300" opacity="0.7"/><path d="M5.64,6a.54.54,0,0,1,.41.1.45.45,0,0,1,.13.57.46.46,0,0,1-.53.15c-.17-.12-.34-.22-.29-.37S5.47,6.05,5.64,6Z" transform="translate(0 0.02)" fill="#e53935" opacity="0.7"/><path d="M5.94,2c.11.17.37,0,.5.07s.29.12.32-.08-.11-.38-.39-.42S5.75,1.69,5.94,2Z" transform="translate(0 0.02)" fill="#1e88e5" opacity="0.7"/><rect width="30" height="20" fill="none"/></svg>