<!-- Copyright (c) 2023 Jan Stehno -->
<svg xmlns="http://www.w3.org/2000/svg" viewBox="0 0 300 200">
    <title>blackbear_body</title>
    <g id="blackbear">
        <g id="body">
            <path
                d="M103.5,132.13c-.34-1.79,10.44-8.29,11.69-11s-.31-3.41,7.19-7.82,8.43-4.84,9.25-5.93,3.21-.54,3.21-.54a5.75,5.75,0,0,1,2.54-4.75c2.68-1.81,4.37.57,4.87,1.5a8.67,8.67,0,0,1,.72,2.19s9.36-.07,16-2,7.5-.21,12-2.58,12-3.42,18.08-2.54,18.67-1.84,23.63-3.38,10.08.33,17.58-.58,21.29,1.29,25.25,5.67,12.17,8.66,16.34,14.41,5.18,13,9.06,17.34,4.69,8.25,3.25,10.12-3,2.19-4.19,1.75a20.12,20.12,0,0,1-3-1.62,114.89,114.89,0,0,1-2.58,14c-1.67,6.13-3,9.84-3,11.21s1.5,2.79,1.37,5.13-1.33,2.46-.92,5,2.38,6.08,2.38,9.08-2.08,7.71-4.71,9.13-7.33.83-7.33.83a5.94,5.94,0,0,1-3.94,2.63c-1.5.35-9.42.62-9.42.62s-7.79-.11-9.19-.25c-2.88-.28-4.88-.25-5.22-1.19s1.75-5.18,4.72-5.72,8.75-.59,9.5-2.65-2.6-11.19-3.35-14.88-4.68-3.87-6.34-6.28a13.11,13.11,0,0,1-2.06-4.59s-10.83-3.15-18.08-3.82a63.32,63.32,0,0,0-14.91.75s-2.86,14.69-3.86,22.13S198.92,195,195.29,196s-3.37,4-11.29,4-11.12-.17-11.54-1.63-2.13-1.08-5.54-1.16-4.13-1.38-2.34-3.34,3.92-2.75,7.5-2.66,5-4.79,5.34-11.34-.25-11-3-15.7-2.67-9.84-7.5-14.17-18.42-8.75-30.13-9-17.08-.46-19.83.67-4.67.91-5.75-.17-.88-2.46-1.54-2.79-2.29.17-3.13-1.33-.12-1.67-1.5-3.09S103.67,133,103.5,132.13Z"
                transform="translate(0 0)" fill="#ccc" />
            <path
                d="M33.06,200c6,0,9.07-1.37,9.38-3s3.48-19.17,6.1-23.92,9.21-9.66,11.88-9.66,7.52,2.91,11.5,6.93,4,6.79,5.61,11.36,3.22,8.82,3.85,12.82S84.69,200,91.19,200s9.34-.12,9.34-2.56-2.94-2.94-5.06-3.88-2.66-7.78-3-12.06-2.69-23.83-5-34.46-5.73-19.54-6-24.29a29.37,29.37,0,0,1,.75-8.53s4.92,1.41,8-1.59,3.75-7,3.62-11.09,1.54-5.41.38-10.33-6.25-12.33-6.19-17.4.37-7.87-1.56-11.06-8.07-6.19-9.94-11.37-.94-11.44.44-16.69.18-8.81.87-9.31,1.38.25,2.81-.38,4.85-2.06,5.44-5.16-.37-4.65-2.81-5-6,1.57-7.28,1.47-3.56-2.39-6-3.31-5.15-.87-10.46-.87-6.1.28-6.1.28-1.15-.82-1.84-.5a1.34,1.34,0,0,0-.81,1.56,1.45,1.45,0,0,1-.16,1.09A4.22,4.22,0,0,0,49,17.08a41.13,41.13,0,0,1-1,7c-.53,1.78.69,6.77.06,9.36s-3.08,4.23-5.16,6.39S41.08,45,38.08,50.67s-6.64,8.21-7.77,11.58,0,6.75-2.68,12.31-6.32,11.25-6.57,17S22.38,105.25,24.5,109a14.06,14.06,0,0,0,7.19,5.81,21.65,21.65,0,0,0,2.87,1s3.25,7.25,2.94,14.63-3.62,14.75-4.62,24.06.18,11.5-1.13,15.44,0,18.69-.87,21.31-6.92,3.4-6.92,6S26.1,200,33.06,200Z"
                transform="translate(0 0)" fill="#ccc" />
        </g>
    </g>
    <g id="frame">
        <rect id="frame-2" width="300" height="200" fill="none" />
    </g>
</svg>