<!-- Copyright (c) 2022 - 2023 Jan Stehno -->
<svg xmlns="http://www.w3.org/2000/svg" viewBox="0 0 300 200"><title>bluewildebeest_body</title><g id="bluewildebeest"><g id="body"><path d="M119.17,200h21.37s-1.79-3.92-1.46-16.17,2.84-24.33,2.67-27.83-.33-18.17.83-24.58,8.75-9.84,16.17-10.42,24.92,2.33,35.42,5.08,15,2.09,21.25-1.91a111.82,111.82,0,0,1,13-7s13.46,15.71,19.46,27.83,3.87,22.75,3.37,31.58S247.53,200,247.53,200h14.55a20.21,20.21,0,0,0-.79-6.87c-1-2.75-.6-16.5,1.09-26.94a162.28,162.28,0,0,1,4.06-18.44s7.56,8.13,8.37,12.5,4.44,9.5,6.69,22.19,2,17.56,2,17.56h13.25s-1.56-5.56-3.5-11-4.92-24.25-5.33-34-.59-7.5-3.75-10.58-8.92-22.17-9.42-30,2.08-21.59,2.08-21.59,1.42,2.34,1.5,9.42-.58,17,.25,23.25,6,16.08,9.42,19.5,3.92,2.42,3-2.17-6.37-11.83-2-7.66c1.84,1.75-6.87-12.92-2.25-9.17,2.47,2-2.67-5.42-2.5-9.58s3.13-20.79-2.25-42.17S265.5,43.5,249.17,39.67,235.25,41,208,37.33s-49.71-5.45-66.58-9.45-24.86,2.17-24.63-1.25c-2-5.05-1-8.88-6-7.63-3,1.08-7.58-6-12.58-3.42s-12.17.17-19.92,1.3-6.37-.75-14.75,1-10.87-.25-12,2S45,22.5,45,27.5s.75,11.88-1.37,12.63S36,35.63,33,29.75s-5.87-13.37-5.62-8.37,4.37,15.75,4.37,15.75-3.83,1.54-8.75-3.3-6.5-8.41-7.33-12.66-3.17-8.42-2.25,6,9.91,13.91,10.16,18.08-.42,4.59-3.3,9.31-8,19.07-9,32.4-1,29.6.65,30.85a6.84,6.84,0,0,0,3.44,1.32s2.37,3.81,6.06,4.12,9.69-1.5,11.37-3.62,5.69-1.88,7.19,2,10.88.75,12.5,3.62,6.38-1.37,9.25,2.38S72.88,131.5,73.5,133s3.5,1.13,4,2.5,5,.88,6.25,2.75,8.63-4,9.25-1.25,4.25-13.25,5.63-13.75,9.37,4.88,11.87,7.38a12.58,12.58,0,0,0,6.5,3s1.63,16.37,2.5,32.75A314.12,314.12,0,0,1,119.17,200Z" transform="translate(0 0)" fill="#ccc"/></g></g><g id="frame"><rect id="frame-2" width="300" height="200" fill="none"/></g></svg>