<svg xmlns="http://www.w3.org/2000/svg" viewBox="0 0 30 20.02"><polygon points="2.12 8.59 2.03 8.51 2 8.28 1.94 8.15 1.95 8.07 1.89 7.95 1.91 7.77 2.03 7.51 2.32 7.11 2.66 6.59 2.92 6.12 3.17 5.79 3.44 5.46 3.53 5.1 3.68 4.81 3.88 4.55 3.7 3.94 3.53 3.24 3.51 2.6 3.58 2.02 3.72 1.76 4.05 1.51 4.53 1.41 4.92 1.48 5.37 1.71 6.02 2.14 6.62 2.54 7.2 2.78 7.68 2.74 8.09 2.44 8.44 2.02 8.62 1.88 8.75 1.86 8.87 1.88 8.92 1.95 8.88 2.09 8.68 2.47 8.5 2.84 8.25 3.2 8.15 3.3 8.25 3.34 8.27 3.44 7.95 3.97 7.7 4.28 7.41 4.42 7 4.46 6.72 4.42 7.22 4.82 7.91 5.22 8.73 5.77 9.21 6 9.59 6.09 10.18 5.98 10.94 5.58 11.78 5.26 12.52 5.22 13.62 5.43 14.64 5.6 16.02 5.48 17.16 5.31 18.97 5.03 20.5 4.87 21.79 4.81 23.06 4.94 23.64 5.15 24.41 5.52 25.24 6.07 26 6.8 26.54 7.42 27.01 7.86 27.23 8.19 27.4 8.8 27.51 9.57 27.65 10.14 27.74 10.44 27.59 10.44 27.49 10.59 27.36 10.72 27.24 10.62 27.14 10.73 27.04 10.65 27.05 10.82 26.89 10.68 26.84 10.88 26.71 10.91 26.54 10.57 26.14 11.35 25.73 11.85 25.52 12.11 25.46 12.37 25.52 12.54 25.53 12.75 25.61 12.84 26 13.01 26.36 13.28 26.63 13.37 26.88 13.56 27.04 13.58 27.23 13.79 27.32 14.05 27.29 14.33 27.12 14.8 26.68 15.85 26.25 16.88 26.18 17.29 26.15 17.64 26.22 17.93 26.2 18.04 25.96 18.21 25.7 18.1 25.56 18.17 25.53 18.46 25.46 18.74 25.47 19.04 25.43 19.14 25.19 19.25 24.95 19.18 24.8 19.26 24.7 19.64 24.54 19.73 24.56 19.91 24.5 20.02 23.07 20.02 22.92 19.92 22.89 19.81 23.03 19.61 23.14 19.5 23.17 19.4 23.14 19.29 23.31 19.04 23.47 18.85 23.82 18.74 23.73 18.62 23.79 18.5 23.94 18.36 23.89 18.16 24.03 17.94 24.26 17.73 24.51 17.54 24.68 17.07 24.97 15.87 24.95 15.56 24.84 15.44 24.05 15.24 22.81 14.97 22.26 14.68 21.8 14.2 21.56 13.68 21.45 13.01 21.45 12.55 21.34 12.46 20.53 12.76 20.09 13.05 19.79 13.19 19.6 13.16 19.38 13.04 19.07 12.99 18.02 13.15 16.47 13.28 15.01 13.14 14.35 13.15 14.09 13.27 14 13.48 14.05 13.81 14.14 14.34 14.08 14.85 13.95 15.29 13.79 16.04 13.77 16.88 13.84 17.66 13.88 18.12 13.97 18.25 13.96 18.36 13.89 18.48 13.75 18.51 13.55 18.53 13.46 18.55 13.39 18.65 13.41 18.8 13.38 18.95 13.29 19.06 13.05 19.25 12.88 19.36 12.66 19.36 12.56 19.29 12.46 19.33 12.42 19.57 12.29 19.75 12.14 19.82 12.07 19.96 11.95 20.02 10.66 20.02 10.56 19.94 10.56 19.81 10.74 19.54 10.71 19.41 10.75 19.12 10.91 19 11.37 18.76 11.59 18.59 11.8 18.3 12.04 17.8 12.21 17.04 12.17 16 12.07 15.56 12.04 14.96 12.03 14.42 11.79 13.69 11.52 13.4 11.14 13.3 10.36 13.21 9.63 12.91 9.04 12.35 8.88 11.85 8.73 11.26 8.26 10.69 7.71 10.35 6.89 9.72 6.24 8.98 5.81 8.41 5.52 8.07 5.39 8.06 5.18 8.11 4.96 8.26 4.72 8.32 4.18 8.46 3.66 8.63 3.32 8.81 3.05 8.94 2.78 8.93 2.56 8.86 2.4 8.71 2.33 8.63 2.23 8.61 2.12 8.59" fill="#ccc"/><rect width="30" height="20" fill="none"/></svg>