<!-- Copyright (c) 2022 - 2023 Jan Stehno -->
<svg xmlns="http://www.w3.org/2000/svg" viewBox="0 0 300 200"><title>bluewildebeest_organs</title><g id="bluewildebeest"><g id="organs"><path d="M173,105.5c13.6-2.18,23.63-3.5,26.75-13.25s8.38-22.25,6-28.5-11.5-8-17.25-9.12-11.12.87-19.62,8.75-13.25,21.87-10.25,29.37S164.18,106.91,173,105.5Z" transform="translate(0 0)" fill="#1e88e5" opacity="0.7"/><path d="M205.75,112.63c10.49-3,19.75-5.75,19.25-11.63s-6.75-9.62-11-18.25-3.69-18-10.09-21.91-8.41-.71-13.16,7-10.75,21-15.87,26.25,3.5,14.62,16.12,17.5S203.32,113.32,205.75,112.63Z" transform="translate(0 0)" fill="#1e88e5" opacity="0.7"/><path d="M228.83,98.17c4.54,1.48,8.67,3.75,13.34,1.41s5.58-10.16,9.83-14.5,10.58-6.14,13.75-5.07,10.58,3.49,7.33-2.18-10.33-4.75-14.5-5.08-5.16-7.33-10.91-9.83-11.34-1.42-17.09-3.75-20-5.67-20.83,0,1.85,19.3,5.55,26S226.35,97.36,228.83,98.17Z" transform="translate(0 0)" fill="#1e88e5" opacity="0.7"/><path d="M133.67,114.18c-5.53-.05-7.92-.12-9.74-3.13s-1.07-4.55-3-8-3.66-5.32-3.51-6.43,1.81-1.83,2.56-1,2.82,7.11,3.51,7.2.57-1.27,0-3.55-.72-4-1.53-4.34-1.8-.67-.89-1.19,2,0,2.2-.78.9-.94,1.35-.53,1.42-.45,2.1,0,0,3.45,1.14,4.8,6.6,2.06,8.42,5.89a28,28,0,0,1,2.55,9.53C138.83,113.92,135.92,114.21,133.67,114.18Z" transform="translate(0 0)" fill="#e53935" opacity="0.7"/><path d="M151.5,116.25c19.18-2.34,29.38-9,33.88-22.87s5.37-26.25,2.37-33.38-6.12-6.37-17.25-7.25-23.37-5.25-37,1.13-19.37,19.75-19.25,34.5S123.88,119.63,151.5,116.25Z" transform="translate(0 0)" fill="#ffb300" opacity="0.7"/><path d="M34.08,57.83c1.25,3,6.75,1.5,8.67,4.67s9-.33,7.92-5.08-6.92-7.84-10.75-7.5S32.33,53.58,34.08,57.83Z" transform="translate(0 0)" fill="#1e88e5" opacity="0.7"/></g></g><g id="frame"><rect id="frame-2" width="300" height="200" fill="none"/></g></svg>