<svg xmlns="http://www.w3.org/2000/svg" viewBox="0 0 30 20"><path d="M11.92,20h2.13a4.54,4.54,0,0,1-.14-1.62c0-1.23.28-2.43.27-2.78a15.37,15.37,0,0,1,.08-2.46c.12-.64.87-1,1.62-1a15,15,0,0,1,3.54.5,2.21,2.21,0,0,0,2.12-.19,11.65,11.65,0,0,1,1.3-.7,17.06,17.06,0,0,1,1.95,2.79,5.45,5.45,0,0,1,.33,3.15A19.55,19.55,0,0,1,24.75,20h1.46a2.16,2.16,0,0,0-.08-.69,9.39,9.39,0,0,1,.11-2.7,17.79,17.79,0,0,1,.4-1.84A4.08,4.08,0,0,1,27.48,16a15.73,15.73,0,0,1,.67,2.22,8.66,8.66,0,0,1,.2,1.76h1.33s-.16-.56-.36-1.1a18.44,18.44,0,0,1-.53-3.4c0-1-.06-.75-.37-1.06a8.28,8.28,0,0,1-1-3,12.54,12.54,0,0,1,.21-2.16,2.09,2.09,0,0,1,.15.94,22.34,22.34,0,0,0,0,2.33,4.5,4.5,0,0,0,.94,2c.34.34.39.24.3-.22s-.64-1.18-.2-.77c.18.18-.69-1.29-.22-.91.24.2-.27-.55-.25-1A11.92,11.92,0,0,0,28.2,7.4a4.15,4.15,0,0,0-3.28-3.46c-1.64-.38-1.39.14-4.12-.23s-5-.55-6.66-1-2.49.22-2.46-.12c-.2-.51-.11-.89-.61-.76-.3.1-.75-.6-1.25-.35s-1.22,0-2,.13-.63-.07-1.47.1-1.09,0-1.2.2-.65.27-.65.77S4.57,3.91,4.36,4,3.6,3.54,3.3,3s-.59-1.34-.56-.84a7.44,7.44,0,0,0,.44,1.58s-.39.15-.88-.33a2.19,2.19,0,0,1-.73-1.27c-.09-.42-.32-.84-.23.6s1,1.39,1,1.81,0,.46-.33.93a8.93,8.93,0,0,0-.9,3.24,10,10,0,0,0,.06,3.09.74.74,0,0,0,.35.13.89.89,0,0,0,.6.41,1.69,1.69,0,0,0,1.14-.36.43.43,0,0,1,.72.2c.15.39,1.09.07,1.25.36s.64-.14.93.24,1.11.39,1.17.54.35.11.4.25.5.08.63.27.86-.4.92-.12.43-1.33.56-1.38a3.31,3.31,0,0,1,1.19.74,1.26,1.26,0,0,0,.65.3s.16,1.64.25,3.27A31.41,31.41,0,0,1,11.92,20Z" transform="translate(0 0.02)" fill="#ccc"/><rect width="30" height="20" fill="none"/></svg>