<svg xmlns="http://www.w3.org/2000/svg" viewBox="0 0 30 20"><polygon points="16.11 11.73 16.78 11.51 17.27 11.06 17.43 10.46 17.47 9.26 17.67 8.25 17.77 7.39 17.58 6.88 17.12 6.63 16.54 6.64 15.88 7.07 15.3 8.04 15.19 8.98 15.25 10.46 15.45 11.26 15.75 11.62 16.11 11.73" fill="#1e88e5" opacity="0.7"/><polygon points="17.3 11.72 18 11.86 18.8 11.73 19.32 11.45 19.77 11.05 19.82 10.63 19.57 10.05 18.99 9.14 18.35 7.7 17.98 6.73 17.49 6.44 17.13 6.44 16.66 6.73 16.14 7.49 15.73 8.59 15.76 9.8 16 10.75 16.24 11.26 16.84 11.63 17.3 11.72" fill="#1e88e5" opacity="0.7"/><polygon points="19.27 10.68 18.91 10.37 18.46 9.6 17.97 8.57 17.75 7.84 17.7 7.19 17.87 6.7 18.33 6.34 19.38 6.05 21.03 5.94 22.01 5.97 23.1 6.28 23.67 6.93 24.2 7.42 24.69 7.5 25.02 7.52 25.4 7.59 25.63 7.74 25.73 7.93 25.78 8.17 25.73 8.37 25.61 8.44 25.45 8.44 25.34 8.38 25.22 8.33 24.97 8.31 24.7 8.34 24.44 8.39 24.17 8.39 23.94 8.3 23.79 8.2 23.67 8.29 23.63 8.52 23.46 8.73 23.15 8.97 22.74 9.17 22.49 9.4 22.23 9.75 21.98 10.1 21.75 10.34 21.42 10.64 21.05 10.98 20.67 11.13 20.45 11.17 20.15 11.11 19.91 11.1 19.67 11.11 19.5 11.01 19.35 10.9 19.27 10.68" fill="#1e88e5" opacity="0.7"/><polygon points="5.27 5.68 5.6 5.62 5.84 5.43 5.97 5.17 5.99 4.85 5.81 4.6 5.52 4.42 5.16 4.36 4.86 4.35 4.55 4.42 4.34 4.54 4.15 4.78 4.14 5.13 4.32 5.47 4.7 5.65 5.27 5.68" fill="#1e88e5" opacity="0.7"/><path d="M11.22,11.75c-.61-.08-.87-.12-1-.47s-.06-.51-.21-.91-.33-.63-.3-.75a.19.19,0,0,1,.3-.08c.07.1.21.81.28.83s.08-.13.05-.38,0-.45-.11-.49-.19-.1-.08-.15.21,0,.25,0,.11-.09.16,0,.16,0,.23,0,0,.38.06.54.69.31.84.75a2.92,2.92,0,0,1,.15,1.07C11.79,11.79,11.46,11.78,11.22,11.75Z" transform="translate(0 0.02)" fill="#e53935" opacity="0.7"/><polygon points="10.2 8.53 9.82 9.3 9.55 10.03 9.51 10.54 9.69 11.27 10.03 11.62 10.79 11.93 12.08 12.21 14.34 12.31 15.22 12.23 15.76 11.86 16.03 11.31 16.17 10.41 16.32 9.15 16.53 7.93 16.56 7.43 16.44 7.05 16.2 6.9 15.1 6.77 13.6 7 12.17 7.4 10.82 7.93 10.2 8.53" fill="#ffb300" opacity="0.7"/><rect width="30" height="20" fill="none"/></svg>