<svg xmlns="http://www.w3.org/2000/svg" viewBox="0 0 30 20"><path d="M17.3,10.53c1.36-.22,2.36-.35,2.68-1.33s.83-2.22.59-2.85-1.14-.8-1.72-.91-1.11.09-2,.87a3.19,3.19,0,0,0-1,2.94C16.16,10,16.42,10.67,17.3,10.53Z" transform="translate(0 0.02)" fill="#1e88e5" opacity="0.7"/><path d="M20.57,11.24c1.05-.3,2-.58,1.93-1.16s-.68-1-1.1-1.83-.37-1.8-1-2.19-.84-.07-1.32.7a19.23,19.23,0,0,1-1.58,2.63c-.51.52.35,1.46,1.61,1.75S20.33,11.31,20.57,11.24Z" transform="translate(0 0.02)" fill="#1e88e5" opacity="0.7"/><path d="M22.88,9.79c.46.15.87.38,1.34.14s.55-1,1-1.45A1.57,1.57,0,0,1,26.57,8c.32.1,1.06.35.74-.22s-1-.48-1.45-.51-.52-.73-1.09-1-1.14-.14-1.71-.38-2-.56-2.09,0a5.69,5.69,0,0,0,.56,2.6A3.42,3.42,0,0,0,22.88,9.79Z" transform="translate(0 0.02)" fill="#1e88e5" opacity="0.7"/><path d="M13.37,11.39c-.56,0-.79,0-1-.31s-.1-.45-.29-.8-.37-.54-.35-.65.18-.18.25-.1.28.71.35.72.06-.13,0-.36-.07-.4-.15-.43-.18-.07-.09-.12.19,0,.22-.08.09-.09.13,0,.15-.05.21,0,0,.35.12.48.66.21.84.59a2.57,2.57,0,0,1,.25,1C13.88,11.37,13.59,11.4,13.37,11.39Z" transform="translate(0 0.02)" fill="#e53935" opacity="0.7"/><path d="M15.15,11.6c1.92-.23,2.94-.9,3.39-2.29A5.29,5.29,0,0,0,18.77,6c-.29-.72-.61-.64-1.72-.73s-2.34-.52-3.7.11a3.53,3.53,0,0,0-1.92,3.45C11.44,10.29,12.39,11.94,15.15,11.6Z" transform="translate(0 0.02)" fill="#ffb300" opacity="0.7"/><path d="M3.41,5.76c.12.3.67.15.86.47s.91,0,.8-.51A1.09,1.09,0,0,0,4,5,.59.59,0,0,0,3.41,5.76Z" transform="translate(0 0.02)" fill="#1e88e5" opacity="0.7"/><rect width="30" height="20" fill="none"/></svg>