<!-- Copyright (c) 2022 Jan Stehno -->
<svg xmlns="http://www.w3.org/2000/svg" viewBox="0 0 300 200"><title>brownbear_body</title><g id="brownbear"><g id="body"><path d="M105.68,138.66c-.11,1.39,2.57,2.62,3.12,3.9s.11,1.63,2.17,1.5,1.67.36,1.87,1.32.79,2.1,2.85,2,5.16-2.65,9.69-2.59,6.28,2.21,11,1.74,4.38-2,6.22-1.81,3.28,2.78,6.66,3.44a11.59,11.59,0,0,0,6.59-1s1.36,5.64,2.94,7.85.54,4.54,2.17,7.59,2.71,3.18,2.58,5.5-.92,7,0,12.18-.38,9.63-1.88,10.88-3.69.25-6.21,2.87-2.71,4.81.27,5.38,3.37.56,8,.56,4.93-1.19,6.73-1.56,2.29-1.5,4.52-1.56,3.63.15,4.51-.35.87-2,.87-2a12.15,12.15,0,0,0,4.63-1.16c2.87-1.21,6.55-5.88,6.63-11.42s2.46-10.63,1.79-14.75-.66-10-.12-10.55,6.58-1.33,11-.79,9.73,2.23,13.73,2.48,5.69-.93,6.44,2.57,1.75,3.81,4.37,4.81,3.88,2.87,4.88,5.87a54.91,54.91,0,0,0,3.4,7.94,4.37,4.37,0,0,1,.69,2.81,12.3,12.3,0,0,0-6.63,0,6,6,0,0,0-4.46,5.57c0,1.9,2.34,3.25,4.78,3.75s5.22-.53,8.22-.35,8,1.22,10.31-1.5a59.11,59.11,0,0,1,6.56-6.06,7.1,7.1,0,0,0,3.17,3.21c2.2,1,3.12,2.5,3,2.79s-9.5.25-10.88,2.38-2.91,6-1.12,6.62,3.47,1.25,12,1.25,14.12-.94,15.42-4.48,3.79-8.73,1.66-12.56-5.25-10-7.58-12.92-4.21-5.91-3.58-8.5,5.25-11.16,6.06-16.29l.81-5.12.31-3.32a2.54,2.54,0,0,0,2.25,1.44c1.63,0,2.88-2.69.75-5.62s-6-11.19-8.43-17.44S263.5,95.5,255.44,90.75s-17.44-8.37-31.94-6-21.75,8.33-29.67,8.5-12.66-3-19.25-2.33-18.83,3.33-21.91,6.91-12.59,4.17-15.84,6.67a47.34,47.34,0,0,1-9.79,6.06c-2.56,1-7.41,7.28-9.91,9.91a11.68,11.68,0,0,0-3.35,7.53C113.56,130.38,105.83,136.76,105.68,138.66Z" transform="translate(0 0)" fill="#ccc"/><path d="M27.81,200c8.32,0,9.84-.15,10.25-3.56s1.75-12.19,3.19-14.88a18.78,18.78,0,0,0,2.56-7.84c.1-2.47,5.72-5.38,7.94-8s4.16-2.78,7-2.63,6.35,2.32,7.25,4.1,4.81,4.22,5.1,7.06a50.34,50.34,0,0,0,2.5,11c1.33,3.71,2,9.25,3,11.46S78.44,200,87.25,200s11.5,0,11.58-3.48S94.41,191.41,92,191s-1.9-7.28-2.62-11.94-3.47-24.25-5.6-32.56-6.43-23.12-7.25-30.87S78.78,101.5,79,98.25s.47-11.47.47-11.47a32.1,32.1,0,0,0,1.94,6.47c1.25,2.69,2.93,3.16,2.31,4.56s-2.91,4.66-3.1,6.91,1.44,4.56,1.32,6.34,2.22,4.07,6.53,4.38,10.12-4.75,11.25-8.31,2.31-10.32,1.12-14.19-4.75-7.88-8.37-13.13S87.5,64.56,81.81,58.56s-7.43-7.75-8.18-12.93-.25-9.32-.88-13.88-1.94-6.25-1.94-6.25a6.36,6.36,0,0,0,4.1-3.11c1.14-2.47,1.11-4.64-.53-6s-3.1-1-4.58-.08-2,1.57-3.11,1.57-3.19-2.37-10.15-2.37-9.09,2.35-9.09,2.35a4.62,4.62,0,0,0-1.86-1c-1.21-.38-1.31-1.44-2.06-1.42s-1.34.86-2,2.73-1.07,2.52-.44,4a3,3,0,0,0,1.69,1.77,72.87,72.87,0,0,0-1.64,8.56c-.19,2.69.94,6.55,0,9.66s-2.08,3.44-2.75,6.06a10.14,10.14,0,0,1-3.88,5.23c-2.16,1.62-4.21,4.7-5.87,9.66a145.54,145.54,0,0,1-7.38,17.67c-2.46,4.67-4.75,7.71-3.79,13.13s1.87,10.25,5,14.25,5.62,6.16,8.92,6.12,4.66-.12,4.66-.12a83.25,83.25,0,0,1-.91,19.37c-1.75,9.06-3.63,19.38-5.57,24.63s0,5.5-2.43,11-.75,13-1.32,17-.89,5.72-1.58,6.12-5.73,1.81-6.54,3.71S15.79,200,27.81,200Z" transform="translate(0 0)" fill="#ccc"/></g></g><g id="frame"><rect id="frame-2" width="300" height="200" fill="none"/></g></svg>