<svg xmlns="http://www.w3.org/2000/svg" viewBox="0 0 30 20"><path d="M21,14.34c.6-.27.72-1.11.91-1.94s.32-1.65,0-2-.69-.25-1,.13A4.06,4.06,0,0,0,20,12.27C19.71,13.14,19.46,15,21,14.34Z" transform="translate(0 0.02)" fill="#1e88e5" opacity="0.7"/><path d="M22,14.42c1-.12,1.29-.34.91-.81A3.58,3.58,0,0,1,22.18,12c-.2-.74,0-1.55-.42-1.62s-.53,1.1-.83,1.75-.67,1.58-.36,1.94A1.69,1.69,0,0,0,22,14.42Z" transform="translate(0 0.02)" fill="#1e88e5" opacity="0.7"/><path d="M23.43,14c.4,0,.66-.38.88-.79s.35-.51.71-.59a.57.57,0,0,0,.53-.56c0-.26.53-.09.69.16s.28.6.37.62.22-.57-.31-1a8.9,8.9,0,0,1-1.36-1.09c-.5-.57-.65-.94-1.6-.8s-1.42.3-1.57.94A1.85,1.85,0,0,0,22,12.53c.35.37.05.76.44,1S22.66,14,23.43,14Z" transform="translate(0 0.02)" fill="#1e88e5" opacity="0.7"/><path d="M17.71,14.88c-.38-.08-.54-.12-.63-.39s0-.38-.11-.69a2.68,2.68,0,0,1-.17-.57c0-.09.15-.13.19-.05a6.39,6.39,0,0,0,.16.63s.05-.09,0-.29,0-.33-.06-.37-.11-.08,0-.11.13,0,.16,0,.07-.06.09,0,.11,0,.15,0,0,.28,0,.4.43.26.51.6a2.54,2.54,0,0,1,.06.81C18.07,14.94,17.86,14.92,17.71,14.88Z" transform="translate(0 0.02)" fill="#e53935" opacity="0.7"/><path d="M18.44,14.64c1.6,0,1.87-.32,2-1.39s.43-1.48.44-2.31-.62-.53-1.54-.22a12.86,12.86,0,0,0-2.46.88c-.62.39-1.2.83-.81,1.71S17,14.66,18.44,14.64Z" transform="translate(0 0.02)" fill="#ffb300" opacity="0.7"/><path d="M12.45,12.44c.37.09.47-.24.62-.4s.3-.44.11-.6-.53,0-.69.22S12,12.31,12.45,12.44Z" transform="translate(0 0.02)" fill="#1e88e5" opacity="0.7"/><path d="M4.51,10.66c.38.22,1.28-.37,1.76-.68s.86-.74.73-1A2.14,2.14,0,0,0,5.77,8.2a1.71,1.71,0,0,0-1.42.86C4.11,9.59,3.82,10.28,4.51,10.66Z" transform="translate(0 0.02)" fill="#1e88e5" opacity="0.7"/><path d="M6.8,10.93c.51-.18.5-.72.49-1.15a.93.93,0,0,0-.79-.95,1.71,1.71,0,0,0-1.81.66c-.62.69-.89,1.34-.17,1.6A4.09,4.09,0,0,0,6.8,10.93Z" transform="translate(0 0.02)" fill="#1e88e5" opacity="0.7"/><path d="M5.75,15.34c.09.32.25.2.26-.17s0-.93.39-1.13.51-.67.69-1.17A1.65,1.65,0,0,0,7,11.43a1.38,1.38,0,0,0-1.48-.57c-.86.17-1.32.76-1.29,1.27s.4.75.39,1.18.22.66.68.77.53.17.41.53A1,1,0,0,0,5.75,15.34Z" transform="translate(0 0.02)" fill="#1e88e5" opacity="0.7"/><path d="M6.3,9.6a1.25,1.25,0,0,0,1-.69,8,8,0,0,0-.44-2.65c-.29-.89-.78-1.46-1-1.23a9.4,9.4,0,0,0-.13,2.5C5.69,8.43,5.77,9.48,6.3,9.6Z" transform="translate(0 0.02)" fill="#ffb300" opacity="0.7"/><path d="M4.79,9.6a1.26,1.26,0,0,1-1-.69,8.3,8.3,0,0,1,.44-2.65c.3-.89.79-1.46,1-1.23a9.4,9.4,0,0,1,.13,2.5C5.4,8.43,5.32,9.48,4.79,9.6Z" transform="translate(0 0.02)" fill="#ffb300" opacity="0.7"/><path d="M5.56,6.05c.22,0,.5-.14.48-.33s0-.46-.28-.52a.67.67,0,0,0-.65.28C5,5.68,5.05,6,5.56,6.05Z" transform="translate(0 0.02)" fill="#e53935" opacity="0.7"/><path d="M5.63,2.5c.27,0,.52-.09.54-.3s-.12-.34-.41-.33-.69.09-.69.32S5.32,2.48,5.63,2.5Z" transform="translate(0 0.02)" fill="#1e88e5" opacity="0.7"/><rect width="30" height="20" fill="none"/></svg>