<svg xmlns="http://www.w3.org/2000/svg" viewBox="0 0 30 20"><path d="M10.57,13.84c0,.14.25.26.31.39s0,.16.22.15.16,0,.18.13.08.21.29.2a4.39,4.39,0,0,1,1-.26c.45,0,.63.23,1.09.18s.44-.2.63-.18.32.28.66.34a1.1,1.1,0,0,0,.66-.1,3.16,3.16,0,0,0,.3.79c.15.22,0,.45.21.76s.27.32.26.55a4.82,4.82,0,0,0,0,1.22,1.3,1.3,0,0,1-.19,1.08c-.15.13-.37,0-.62.29s-.27.48,0,.54a2.9,2.9,0,0,0,.79.06,1.47,1.47,0,0,0,.68-.16c.18,0,.23-.15.45-.16a1.12,1.12,0,0,0,.45,0c.09-.05.09-.2.09-.2a1.35,1.35,0,0,0,.46-.12,1.31,1.31,0,0,0,.66-1.14,12,12,0,0,0,.18-1.48,3.24,3.24,0,0,1,0-1.05,2.61,2.61,0,0,1,1.1-.08c.44,0,1,.22,1.37.25s.57-.1.65.25.17.38.44.48a.82.82,0,0,1,.48.59,6.62,6.62,0,0,0,.34.8.39.39,0,0,1,.07.28,1.16,1.16,0,0,0-.66,0,.62.62,0,0,0-.45.56c0,.19.24.32.48.37a8.06,8.06,0,0,0,.82,0c.3,0,.8.12,1-.15a5.72,5.72,0,0,1,.66-.61.71.71,0,0,0,.32.32c.22.11.31.25.3.28s-.95,0-1.09.24-.29.59-.11.66a2.89,2.89,0,0,0,1.2.13c.85,0,1.41-.1,1.54-.45s.38-.88.17-1.26A12.92,12.92,0,0,0,27.22,17c-.23-.3-.42-.59-.36-.85a12.78,12.78,0,0,0,.61-1.63l.08-.51,0-.33a.25.25,0,0,0,.23.14c.16,0,.28-.27.07-.56A10.72,10.72,0,0,1,27,11.49a5.06,5.06,0,0,0-1.5-2.44,4.39,4.39,0,0,0-3.19-.6c-1.45.24-2.17.83-3,.85s-1.26-.3-1.92-.23a4.5,4.5,0,0,0-2.19.69c-.31.36-1.26.42-1.59.67a4.54,4.54,0,0,1-1,.6c-.25.1-.74.73-1,1a1.15,1.15,0,0,0-.33.76C11.36,13,10.58,13.65,10.57,13.84Z" transform="translate(0 0.02)" fill="#ccc"/><path d="M2.78,20c.83,0,1,0,1-.36a6.9,6.9,0,0,1,.31-1.49,1.84,1.84,0,0,0,.26-.78c0-.25.57-.54.8-.8a.71.71,0,0,1,.7-.27,1,1,0,0,1,.72.41c.09.18.48.43.51.71a5.45,5.45,0,0,0,.25,1.1c.14.37.21.93.31,1.15s.17.33,1.06.33,1.15,0,1.15-.35-.44-.51-.68-.55-.19-.73-.26-1.2-.35-2.42-.56-3.25a30.31,30.31,0,0,1-.72-3.09A5.86,5.86,0,0,1,7.9,9.8c0-.32,0-1.15,0-1.15a3.08,3.08,0,0,0,.2.65c.12.27.29.32.23.46a2.6,2.6,0,0,0-.31.69c0,.22.14.45.13.63s.22.41.65.44A1.41,1.41,0,0,0,10,10.69a3,3,0,0,0,.11-1.42A5.7,5.7,0,0,0,9.24,8c-.36-.53-.49-1.53-1.06-2.13s-.74-.77-.82-1.29,0-.93-.09-1.39a1.33,1.33,0,0,0-.19-.62.64.64,0,0,0,.41-.32c.11-.24.11-.46,0-.59a.35.35,0,0,0-.46,0c-.15.09-.2.16-.31.16a2.29,2.29,0,0,0-1-.24c-.69,0-.9.23-.9.23a.61.61,0,0,0-.19-.1c-.12,0-.13-.14-.21-.14s-.13.09-.2.27-.1.25,0,.4a.33.33,0,0,0,.17.18,5.89,5.89,0,0,0-.16.85,4,4,0,0,1,0,1c-.09.31-.21.34-.27.6a1.07,1.07,0,0,1-.39.53,2,2,0,0,0-.59,1,13,13,0,0,1-.74,1.77,1.85,1.85,0,0,0-.37,1.31,3,3,0,0,0,.5,1.43c.31.4.56.61.89.61H3.6a8,8,0,0,1-.09,1.94A20.91,20.91,0,0,1,3,15.79c-.2.52,0,.55-.25,1.1a5.77,5.77,0,0,0-.13,1.7c-.06.4-.09.57-.16.61s-.57.18-.65.37S1.58,20,2.78,20Z" transform="translate(0 0.02)" fill="#ccc"/><rect width="30" height="20" fill="none"/></svg>