<!-- Copyright (c) 2023 Jan Stehno -->
<svg xmlns="http://www.w3.org/2000/svg" viewBox="0 0 300 200">
    <title>brownbear_organs</title>
    <g id="brownbear">
        <g id="organs">
            <path
                d="M209.94,143.69c6-2.72,7.19-11.13,9.06-19.44s3.19-16.49,0-19.93-6.94-2.44-10.25,1.37A41.37,41.37,0,0,0,199.56,123C197.13,131.63,194.56,150.69,209.94,143.69Z"
                transform="translate(0 0)" fill="#1e88e5" opacity="0.7" />
            <path
                d="M220.19,144.44c9.7-1.16,12.94-3.44,9.12-8.06s-5.62-8.5-7.56-15.88-.31-15.49-4.12-16.18-5.29,11-8.31,17.56-6.69,15.75-3.63,19.37S214.94,145.06,220.19,144.44Z"
                transform="translate(0 0)" fill="#1e88e5" opacity="0.7" />
            <path
                d="M234.31,140.13c4-.2,6.57-3.82,8.82-7.88s3.5-5.12,7.06-5.87,5.31-3,5.31-5.63,5.31-.94,6.94,1.56,2.81,6,3.69,6.19,2.18-5.69-3.13-10.06-8.5-5.19-13.56-10.88-6.56-9.37-16-8.06-14.28,3.06-15.74,9.44-1.2,12.82,2.3,16.56.5,7.69,4.38,10.06S226.63,140.5,234.31,140.13Z"
                transform="translate(0 0)" fill="#1e88e5" opacity="0.7" />
            <path
                d="M177.11,149.08c-3.79-.84-5.42-1.24-6.32-3.93s-.2-3.84-1.09-6.94-1.89-4.83-1.66-5.71,1.45-1.22,1.87-.48,1.11,6.16,1.58,6.33.54-.94.39-2.88,0-3.37-.55-3.73-1.15-.8-.47-1.09,1.34.25,1.59-.32.74-.63,1-.23,1-.17,1.44.31-.39,2.8.23,4.05,4.28,2.62,5.09,6a26.74,26.74,0,0,1,.64,8.09C180.68,149.6,178.65,149.42,177.11,149.08Z"
                transform="translate(0 0)" fill="#e53935" opacity="0.7" />
            <path
                d="M184.38,146.69c16-.14,18.75-3.25,20-13.94s4.31-14.81,4.37-23.06-6.12-5.31-15.37-2.25-18.32,4.94-24.57,8.81-12.06,8.25-8.06,17.06S169.81,146.81,184.38,146.69Z"
                transform="translate(0 0)" fill="#ffb300" opacity="0.7" />
            <path
                d="M124.46,124.63c3.7.93,4.71-2.34,6.25-4s3-4.35,1.08-5.95-5.25.4-6.91,2.15S119.5,123.38,124.46,124.63Z"
                transform="translate(0 0)" fill="#1e88e5" opacity="0.7" />
            <path
                d="M45.06,106.88c3.81,2.14,12.88-3.75,17.69-6.88s8.56-7.31,7.25-9.94-8.34-7.55-12.34-7.81S45.88,85.44,43.5,90.81,38.19,103,45.06,106.88Z"
                transform="translate(0 0)" fill="#1e88e5" opacity="0.7" />
            <path
                d="M68,109.56c5.06-1.86,5-7.25,5-11.5S70.76,89.94,65,88.5s-11.85-.31-18.1,6.63-8.94,13.43-1.69,16S63.75,111.13,68,109.56Z"
                transform="translate(0 0)" fill="#1e88e5" opacity="0.7" />
            <path
                d="M57.52,153.63c.87,3.25,2.48,2,2.54-1.69s.07-9.25,3.94-11.25,5.06-6.75,6.94-11.75,1.78-11.44-.68-14.38-6.08-7.31-14.73-5.68-13.28,7.56-12.9,12.68,4,7.44,3.87,11.75,2.19,6.63,6.81,7.75,5.28,1.69,4.11,5.25A10.58,10.58,0,0,0,57.52,153.63Z"
                transform="translate(0 0)" fill="#1e88e5" opacity="0.7" />
            <path
                d="M63,96.25c2.47.58,8.83-3.67,9.75-6.92s-1.5-17.58-4.42-26.5S60.5,48.25,58.5,50.5s-1.08,16.17-1.33,25.08S57.67,95,63,96.25Z"
                transform="translate(0 0)" fill="#ffb300" opacity="0.7" />
            <path
                d="M47.87,96.25c-2.47.58-8.84-3.67-9.75-6.92s1.5-17.58,4.41-26.5,7.84-14.58,9.84-12.33,1.08,16.17,1.33,25.08S53.2,95,47.87,96.25Z"
                transform="translate(0 0)" fill="#ffb300" opacity="0.7" />
            <path
                d="M55.61,60.77c2.21.1,5-1.47,4.75-3.31s-.41-4.63-2.75-5.19a6.38,6.38,0,0,0-6.47,2.81C50.08,57.05,50.51,60.55,55.61,60.77Z"
                transform="translate(0 0)" fill="#e53935" opacity="0.7" />
            <path
                d="M56.28,25.22c2.76.19,5.25-.91,5.44-2.94s-1.22-3.44-4.13-3.37-6.9.93-6.93,3.23S53.19,25,56.28,25.22Z"
                transform="translate(0 0)" fill="#1e88e5" opacity="0.7" />
        </g>
    </g>
    <g id="frame">
        <rect id="frame-2" width="300" height="200" fill="none" />
    </g>
</svg>