<!-- Copyright (c) 2023 Jan Stehno -->
<svg xmlns="http://www.w3.org/2000/svg" viewBox="0 0 300 200">
    <title>capebuffalo_body</title>
    <g id="capebuffalo">
        <g id="body">
            <path
                d="M118.42,200c12.12,0,11.79-1.46,12.83-3s4.58-1.71,6.83-1.79,3.55-4.21,5-5,4,3.21,3.38-.38S145.25,172.67,146,165s4.29-12.38,3.71-16.34-1.13-7.75-1.13-7.75,5.36-3.74,17.92.88,14.81,5.69,16.69,8.5,2.31,2.44,8.62-1.31,12.94-4.06,18.94-6.56a69.34,69.34,0,0,0,12.31-7.19,130.87,130.87,0,0,0,12.61,9.06c5.25,3.08,9.25,7.92,8.5,17.83s-2.25,16.38-5.71,19.88-7.21,6.75-7.83,8.83,1,2.46,9.2,2.46,8.75-1,9.75-3.33,1.59-2.75,3.13-1.34,2,.88,1.92-2.41.7-10,2.83-18.58,3.91-19.88,3.91-19.88S271,152,272,157.92s2,11.87,1.38,16.83-3,12.54-5.3,15.08-5.91,7.5-6.12,8.71,1,1.46,9.87,1.46,10.42-2.29,11.57-4.94,2.37-3,3.58-1.21,2.32.59.76-6,.3-25.44,1.43-32.6.79-8.71-3.83-13-9.5-15.13-10.82-24.94-2.81-14.37-3.25-19.81a21.94,21.94,0,0,0-2.56-8.94,33.56,33.56,0,0,0-1.81-10.75c-1.88-4.81-4.88-6-7.81-9.56s-15.88-15-24.71-16.69-22.84.08-31.34-.5S167.83,45.83,152,42.33s-37,1.5-51.67,4.17S83.5,50.31,78.69,55.63A87.86,87.86,0,0,1,66.81,66a48.88,48.88,0,0,0,0-6.87c-.18-5.88.94-11.38-1.81-11.38s-2.69,7.31-4.25,12.69a53.82,53.82,0,0,1-3.62,9.25,4.58,4.58,0,0,1-3.88-1.5c-1.75-1.88-6.19-6.94-14.06-5.75S29,68.63,28.38,72.31s1.68,8,1.68,8-2.62,2.57-2.93,5.25a13.11,13.11,0,0,0,0,4.07S16.75,99.69,13.31,102.38s-4,7.25-3.75,11.12,4.94,9.19,7.5,10.75,7,.44,11-.94,11.69,2.63,15.13,6.5,9.75,5.88,21.69,3.88,22.37,4.87,30.18,7.5,18.77,4.06,22.11,7.89,6.16,3.75,6.16,3.75,1.34,15.5.42,21-4.4,14.94-6.73,17.4-6.58,5.5-6.58,7S113.4,200,118.42,200Z"
                transform="translate(0 0)" fill="#ccc" />
        </g>
    </g>
    <g id="frame">
        <rect id="frame-2" width="300" height="200" fill="none" />
    </g>
</svg>