<svg xmlns="http://www.w3.org/2000/svg" viewBox="0 0 30 20"><path d="M11.84,20c1.21,0,1.18-.15,1.28-.3s.46-.18.69-.18.35-.42.49-.51.41.32.34,0a12.9,12.9,0,0,1,0-2.48c.08-.77.43-1.24.37-1.63s-.11-.78-.11-.78.53-.37,1.79.09,1.48.57,1.67.85.23.24.86-.13a12.2,12.2,0,0,1,1.89-.66,6.74,6.74,0,0,0,1.24-.72,12.47,12.47,0,0,0,1.26.91,1.7,1.7,0,0,1,.85,1.78,3.28,3.28,0,0,1-.57,2,3.9,3.9,0,0,0-.79.88c-.06.21.1.25.92.25s.88-.1,1-.33.16-.28.31-.14.21.09.19-.24a7.74,7.74,0,0,1,.29-1.86c.21-.85.39-2,.39-2s1,.43,1.06,1a5.87,5.87,0,0,1,.14,1.68A3.45,3.45,0,0,1,26.81,19a3.79,3.79,0,0,0-.61.87c0,.12.1.15,1,.15s1-.23,1.15-.5.24-.3.36-.12.23.06.08-.6a13.29,13.29,0,0,1,.14-3.26c.11-.72.08-.87-.38-1.31a4.68,4.68,0,0,1-1.08-2.49c-.14-1-.28-1.44-.33-2a2.19,2.19,0,0,0-.25-.89,3.42,3.42,0,0,0-.19-1.08c-.18-.48-.48-.6-.78-1a6.1,6.1,0,0,0-2.47-1.66,27.35,27.35,0,0,0-3.13,0c-.85-.06-3.53-.52-5.11-.87s-3.7.15-5.17.42S8.35,5,7.87,5.54a8.89,8.89,0,0,1-1.19,1,4.68,4.68,0,0,0,0-.69c0-.59.09-1.14-.18-1.14S6.23,5.48,6.07,6a4.69,4.69,0,0,1-.36.92.45.45,0,0,1-.39-.15,1.52,1.52,0,0,0-1.4-.57,1.15,1.15,0,0,0-1.08,1A1.41,1.41,0,0,0,3,8a1,1,0,0,0-.3.52,1.42,1.42,0,0,0,0,.41s-1,1-1.38,1.27A1.27,1.27,0,0,0,1,11.33a1.82,1.82,0,0,0,.75,1.07c.25.16.7,0,1.1-.09A1.85,1.85,0,0,1,4.32,13c.34.38,1,.58,2.17.38s2.24.49,3,.75,1.87.41,2.21.79.61.38.61.38a13.75,13.75,0,0,1,.05,2.1,4.86,4.86,0,0,1-.68,1.74c-.23.24-.66.55-.66.7S11.34,20,11.84,20Z" transform="translate(0 0.02)" fill="#ccc"/><rect width="30" height="20" fill="none"/></svg>