<!-- Copyright (c) 2022 Jan Stehno -->
<svg xmlns="http://www.w3.org/2000/svg" viewBox="0 0 300 200"><title>capebuffalo_organs</title><g id="capebuffalo"><g id="organs"><path d="M160.63,129.5c6.4-2.41,15.5-11.87,19.87-23.5S186,84.16,184,76.7s-8.77-15.2-14-5.32-13.87,23-16.37,33.75S149,133.88,160.63,129.5Z" transform="translate(0 0)" fill="#1e88e5" opacity="0.7"/><path d="M188.13,125.5c9.63-6.37,11.25-11,8-19.25S188.63,89,187,81.75s-7-16.75-8.5-8-2.5,20.13-9.25,30.38-11.75,23.34-5,26S185.1,127.5,188.13,125.5Z" transform="translate(0 0)" fill="#1e88e5" opacity="0.7"/><path d="M213.58,117.75c10.09-3.5,17.75-14.33,20.34-22.5S239,81.08,238.5,78.17s4.67-7.84,8-6.17,4.58,1,3.67-3.25-5.59-2.5-8.67-1.25-3.33-2.83-11.67-2.75-13.58,4.63-23.75,3.44-18.58,1.08-18.91,7,2,14.89,6.16,24.24,3.17,18,8.25,18.34S205.42,120.58,213.58,117.75Z" transform="translate(0 0)" fill="#1e88e5" opacity="0.7"/><path d="M120.16,122.51c-5.39-2.11-7.71-3.06-8.38-6.13s.66-4,.12-7.5-1.61-5.59-1-6.42a1.94,1.94,0,0,1,2.89.13c.45.9.11,6.7.76,7s1-.79,1.29-2.83.8-3.47.13-4-1.52-1.2-.44-1.28,1.93.71,2.44.21a1,1,0,0,1,1.53.08c.28.49,1.56.18,2.05.81s-1.28,2.74-.67,4.23,5.69,4.12,6,7.83a20,20,0,0,1-1,8.53C125.31,124.24,122.35,123.37,120.16,122.51Z" transform="translate(0 0)" fill="#e53935" opacity="0.7"/><path d="M157.42,133.58c13.84.35,23.66-6.58,24.91-17s4.67-11,3.34-26.91S183.08,67.92,173.5,64.5s-24.25-4.33-37.58-2.25-17.5,5.67-26.5,10S94.58,81,94.58,89s4.59,21.17,18.75,28.58S143.92,133.25,157.42,133.58Z" transform="translate(0 0)" fill="#ffb300" opacity="0.7"/><path d="M45.42,91.25c4.16-.29,7.12-2.29,7.71-4.58s-.8-5.79-6.17-3.79-7,5.58-5.17,6.87S44.7,91.3,45.42,91.25Z" transform="translate(0 0)" fill="#1e88e5" opacity="0.7"/></g></g><g id="frame"><rect id="frame-2" width="300" height="200" fill="none"/></g></svg>