<svg xmlns="http://www.w3.org/2000/svg" viewBox="0 0 30 20"><path d="M16.06,12.93a4.33,4.33,0,0,0,2-2.35,5,5,0,0,0,.35-2.93c-.2-.75-.88-1.52-1.4-.54a16.72,16.72,0,0,0-1.64,3.38C15.11,11.56,14.9,13.36,16.06,12.93Z" transform="translate(0 0.02)" fill="#1e88e5" opacity="0.7"/><path d="M18.81,12.53c1-.64,1.13-1.1.8-1.93a19.18,19.18,0,0,1-.91-2.45c-.16-.72-.7-1.67-.85-.8a7.45,7.45,0,0,1-.92,3c-.68,1-1.18,2.33-.5,2.6A3.76,3.76,0,0,0,18.81,12.53Z" transform="translate(0 0.02)" fill="#1e88e5" opacity="0.7"/><path d="M21.36,11.75a3.67,3.67,0,0,0,2-2.25,6.09,6.09,0,0,0,.46-1.71c-.05-.29.47-.78.8-.61s.46.1.37-.33-.56-.25-.87-.12-.33-.29-1.17-.28-1.36.46-2.37.34-1.86.11-1.89.7a5.92,5.92,0,0,0,.61,2.43c.42.93.32,1.8.83,1.83S20.54,12,21.36,11.75Z" transform="translate(0 0.02)" fill="#1e88e5" opacity="0.7"/><path d="M12,12.23c-.54-.21-.77-.31-.84-.62s.06-.4,0-.75-.16-.56-.1-.64a.2.2,0,0,1,.29,0c0,.09,0,.67.07.71s.1-.08.13-.29.08-.34,0-.4-.15-.12,0-.13.19.08.24,0a.11.11,0,0,1,.16,0s.15,0,.2.08-.13.28-.07.43.57.41.61.78a2.06,2.06,0,0,1-.11.85C12.53,12.4,12.24,12.31,12,12.23Z" transform="translate(0 0.02)" fill="#e53935" opacity="0.7"/><path d="M15.74,13.33c1.39,0,2.37-.65,2.49-1.7a7.41,7.41,0,0,0,.34-2.69c-.14-1.59-.26-2.17-1.22-2.51a8.2,8.2,0,0,0-3.76-.23,7.49,7.49,0,0,0-2.65,1c-.9.43-1.48.88-1.48,1.68a3.35,3.35,0,0,0,1.87,2.85A11.33,11.33,0,0,0,15.74,13.33Z" transform="translate(0 0.02)" fill="#ffb300" opacity="0.7"/><path d="M4.54,9.1a.8.8,0,0,0,.77-.46c.06-.23-.08-.58-.61-.38S4,8.82,4.18,9A.55.55,0,0,0,4.54,9.1Z" transform="translate(0 0.02)" fill="#1e88e5" opacity="0.7"/><rect width="30" height="20" fill="none"/></svg>