<!-- Copyright (c) 2022 - 2023 Jan Stehno -->
<svg xmlns="http://www.w3.org/2000/svg" viewBox="0 0 300 200"><title>caribou_body</title><g id="caribou"><path d="M267.9,166.83c0-4.6-2.73-4.59-5.39-8.93s-4.84-20.91,2.54-28.31,13.67-19.84,13.67-19.84,3.91,4.68,3.9,2.86,3.61-.66,4-2.39,4.82-2,3.24-3.94,1.43-3.85-.12-7.33-3.5-8.47-1.41-7.72-.72-5.87-4.93-6.62-3.56-4.29-9-8.31S259.83,68.79,252.86,67s-12.49-2.62-23-1.38-25.37,5-41.61,4.43-20.37-1.39-29.15-3.92-20.55-4.07-28-.18-7.25,6.75-13.66,9.12-3-1.52-14.37-1.12-12.59-1.67-15.53-2.85-4.16-.17-4.16-.17a4.32,4.32,0,0,0-1-2.77,12.25,12.25,0,0,0-3.12-1.85s.72-.93,7.86-2.06,16-4.3,22.72-10.22,8.73-12,9-16.37,0-10.33-.76-13.38-3.12-9.51-3.56-11.67a43.57,43.57,0,0,1,.28-10.54c.14-.75.31-1.44.48-2.06h-6l-.53,1.36L108.18,0H101.9l1.55,2.63A11.18,11.18,0,0,1,99.19,0h-11a51.45,51.45,0,0,1,6.09,3.94A127.88,127.88,0,0,0,106,11.72,98.5,98.5,0,0,1,105.42,22a42.43,42.43,0,0,1-3,11.54s-1,.46-1.09-1.72-.31-2.81-1-3.67-.38,1.1-.59,3.26-.13,4.27-2.87,6.11a10.73,10.73,0,0,1-6.11,1.58,40.45,40.45,0,0,1-.55-8c.21-3.58,5.79-7.26,5.85-8.26s-.91-1-.86-1.86S96.7,19.11,97,17.09s-.2-.95-2.75,2.53-6.38,7-9.34,7.39-4.42.64-8.94-2.88S71.16,19,70.07,17.26s-2.06,1,.7,4.52a28.63,28.63,0,0,0,8.36,7.86,18.61,18.61,0,0,1,6.36,8.3,27.19,27.19,0,0,1-5.21-3.5c-1.77-1.74-3.87-5.9-2.74-1.86s8.95,8,8.95,8,1.23,5,.2,7.53S84,53.41,79.47,55.86,72,61,68.93,61.84s-2.65-.07-2.5-1.75-.09-2-.94-.34-4.07,3.14-3.94-.14-.32-3.5-1.43-1.25-2.51,3.77-4.88-.48-1.85-6.81-2.18-10.18-1.51-.93-2.19,3.13S49.78,57,49.78,57s-3.08-1.43-1.89-5.59,1.51-5.26,2.32-6.72.16-2.74-3.57,1.51S43,54.52,40.43,56.37,26,61.89,21.78,60.67s-4.3-.71-5.73.95S8.67,62.89,11.9,64s6,2.2,5.6,4.68-.64,5.1,2.29,2.23,5.43-.81,5.53,2.46.86,4.43,2.91.92,2.88-2.75,4-1.8,1.39-.21,2.43-2.23,4.43-3.58,6.88-4,3.13-2.73,8-2.52,7.9-.82,12.33,2.45,5.25,4.18,3.59,6.27c-1.37,1.73-2.35,4.49-6.82,6.92s-10.94,5-16.2,8-9.68,5.81-14.08,7.11S20.78,100,22,105.85s3.4,5.9,4.55,7.6,4.35,3.71,9.15,2,11.13-4,21.16.08,14.73,7,17.09,13.61,10.18,14,9.55,12,17.08,20.06,14.87,13,17.29,10.18,15.35,7.18,15.61,2.82,12.62.39,8.87-1.73,6.88-4,2.69-5.23,2.69-5.23,4.49,12.8,3.29,18.23.48,8.67.88,16.59a58.62,58.62,0,0,1-.51,12.67H149a59.66,59.66,0,0,0,.43-7.1c0-3.3.24-6.75.24-6.75s2,6.84,1.9,9.25a41.53,41.53,0,0,1-.47,4.6h9.44c-.44-2.8-2-13.23-1.7-17.1.35-4.49,1.34-8.52,1.62-13.18S159,154.27,159,149.35s.32-5.32,6.06-3.56,14.09,4.6,30.59,5S222,146,222,146s16.39,12.17,18.21,26.22c1.24,9.47-1.3,21.14-3.09,27.74h9.08a40.43,40.43,0,0,1,1.9-7.48c2.08-5.47,4.48-17.68,4.48-17.68s4.45,14.87,5.84,22.3c.2,1.07.36,2,.48,2.86h9.24c-.29-2.85-.56-6.63-.68-11.5C267.08,175,268,171.42,267.9,166.83ZM99.17,48.37s7.52-9,9.93-15.68,1.13-15.77,1.13-15.77A50,50,0,0,1,113.12,22c1.17,2.45,3.82,8.24.14,18.54S103.2,53.66,100.68,54,99.17,48.37,99.17,48.37Zm-21.32,13c2.09-.85,5.68-2.79,10.38-5.42a76.68,76.68,0,0,0,7.22-4.48s.68,1.7-1,3.92-4.33,3.87-9.81,4.75A30.84,30.84,0,0,0,74.45,64,8.77,8.77,0,0,1,77.85,61.34Z" transform="translate(0 0)" fill="#ccc"/></g><g id="frame"><rect id="frame-2" width="300" height="200" fill="none"/></g></svg>