<svg xmlns="http://www.w3.org/2000/svg" viewBox="0 0 30 20"><path d="M26.79,16.66c0-.46-.27-.46-.54-.89a3,3,0,0,1,.25-2.84,9.29,9.29,0,0,0,1.37-2s.39.47.39.29.36-.07.4-.24.49-.2.33-.4.14-.38,0-.73-.35-.85-.15-.77-.07-.59-.49-.66S28,8,27.44,7.61a6.68,6.68,0,0,0-2.15-.93A5.39,5.39,0,0,0,23,6.54,24.11,24.11,0,0,1,18.82,7a9.75,9.75,0,0,1-2.91-.39,4.17,4.17,0,0,0-2.81,0c-.75.39-.72.67-1.36.91s-.3-.15-1.44-.11a2.33,2.33,0,0,1-1.55-.29c-.3-.11-.42,0-.42,0a.45.45,0,0,0-.1-.28,1.09,1.09,0,0,0-.31-.18s.07-.1.78-.21a4.65,4.65,0,0,0,2.28-1,2.41,2.41,0,0,0,.9-1.64A6.14,6.14,0,0,0,11.8,2.4c-.08-.3-.31-.95-.36-1.16a4.73,4.73,0,0,1,0-1.06,1.17,1.17,0,0,1,0-.2h-.6l-.05.13,0-.13h-.63l.15.26A1.13,1.13,0,0,1,9.92,0H8.82a5,5,0,0,1,.61.39,12.13,12.13,0,0,0,1.17.78s0,.4-.06,1a4.15,4.15,0,0,1-.29,1.15s-.1,0-.11-.17,0-.28-.1-.37,0,.11-.06.33a.69.69,0,0,1-.29.61,1.11,1.11,0,0,1-.61.16A4.08,4.08,0,0,1,9,3.09c0-.36.58-.73.59-.82s-.09-.11-.09-.19.15-.19.17-.4,0-.09-.27.26a1.83,1.83,0,0,1-.93.74,1,1,0,0,1-.9-.29A1.74,1.74,0,0,1,7,1.7c-.11-.17-.21.11.07.45a2.87,2.87,0,0,0,.83.79,1.87,1.87,0,0,1,.64.83A3,3,0,0,1,8,3.42c-.18-.17-.39-.59-.28-.19s.9.8.9.8a1.71,1.71,0,0,1,0,.76A1.42,1.42,0,0,1,8,5.56a6.58,6.58,0,0,1-1.06.6c-.3.08-.26,0-.25-.18s0-.2-.09,0-.41.31-.39,0,0-.35-.15-.13-.25.38-.49,0a2,2,0,0,1-.21-1c0-.34-.15-.1-.22.31L5,5.68a.45.45,0,0,1-.19-.56A2.89,2.89,0,0,1,5,4.45c.08-.15,0-.28-.36.15s-.36.83-.62,1A3.63,3.63,0,0,1,2.18,6c-.42-.12-.43-.07-.58.1s-.73.12-.41.23.6.22.56.47-.06.51.23.22.54-.08.55.25.09.44.29.09.29-.27.41-.18.14,0,.24-.22a1,1,0,0,1,.69-.4c.24,0,.31-.28.8-.26s.79-.08,1.23.25.53.42.36.63a1.77,1.77,0,0,1-.68.69c-.45.24-1.09.5-1.62.8a6.65,6.65,0,0,1-1.41.71.93.93,0,0,0-.64,1.14c.12.58.34.59.45.76a.77.77,0,0,0,.92.2,2.6,2.6,0,0,1,2.11,0c1,.4,1.48.69,1.71,1.36s1,1.4,1,1.2,1.71,2,1.49,1.3,1.73,1,1.53.72,1.56.28,1.26,0,.89-.18.69-.4.27-.52.27-.52a5.14,5.14,0,0,1,.33,1.82A6.24,6.24,0,0,0,14,18.71,6,6,0,0,1,14,20h.94a5.5,5.5,0,0,0,0-.71c0-.33,0-.68,0-.68a4.85,4.85,0,0,1,.19.93,4.48,4.48,0,0,1-.05.46h.94a12.37,12.37,0,0,1-.17-1.71c0-.45.14-.86.17-1.32s-.15-1.55-.15-2,0-.53.61-.36a9.82,9.82,0,0,0,3.06.51,5.74,5.74,0,0,0,2.63-.48A4.9,4.9,0,0,1,24,17.2,7.92,7.92,0,0,1,23.71,20h.91a3.93,3.93,0,0,1,.19-.75,15.42,15.42,0,0,0,.45-1.77s.44,1.49.58,2.23c0,.11,0,.2.05.29h.92c0-.29,0-.67-.07-1.15C26.71,17.47,26.8,17.12,26.79,16.66ZM9.92,4.81a6.89,6.89,0,0,0,1-1.57A3.87,3.87,0,0,0,11,1.67a3.9,3.9,0,0,1,.29.5,2.24,2.24,0,0,1,0,1.86c-.37,1-1,1.31-1.26,1.35S9.92,4.81,9.92,4.81ZM7.79,6.11c.2-.09.56-.28,1-.54s.72-.45.72-.45a.42.42,0,0,1-.09.39,1.38,1.38,0,0,1-1,.48,2.94,2.94,0,0,0-1,.39A.89.89,0,0,1,7.79,6.11Z" transform="translate(0 0.02)" fill="#ccc"/><rect width="30" height="20" fill="none"/></svg>