<!-- Copyright (c) 2022 Jan Stehno -->
<svg xmlns="http://www.w3.org/2000/svg" viewBox="0 0 300 200"><title>caribou_organs</title><g id="caribou"><g id="organs"><path d="M177.13,133.38c5.56-.09,13-7.4,14.31-14.57S193,99.94,189.88,95.5s-10-6.69-14.75,3.81S165,133.56,177.13,133.38Z" transform="translate(0 0)" fill="#1e88e5" opacity="0.7"/><path d="M201.44,137.44c8.05,2.26,15.37,0,18.94-3.44s4-4.56-2.13-11.31-15.75-26-21.69-30.9-11.31-.91-12.5,8.21.88,15.06-3.37,22.94-5.56,11.94,4.06,8.25S196.31,136,201.44,137.44Z" transform="translate(0 0)" fill="#1e88e5" opacity="0.7"/><path d="M198.08,89.7a23.75,23.75,0,0,0,4.59,19.13c5.16,6.75,8,17.5,17.08,19.59s21.67,2.58,25-1.59,5-9.41,9.08-14.25S256.42,100,257.08,95s.25-4.67,5.59-7.08,6.25-3.59,8.66-.75,6.84,3.33,1.5-4.25S259,81.25,249.08,81.5s-21.33,3.42-32,3.25S198.66,86.74,198.08,89.7Z" transform="translate(0 0)" fill="#1e88e5" opacity="0.7"/><path d="M149.22,136.66c-4.62.5-6.62.67-8.55-1.85s-1.51-4-3.55-6.94-3.78-4.41-3.8-5.42,1.25-1.82,2-1.2,3.32,6.11,3.91,6.13.3-1.2-.51-3.19-1.15-3.56-1.87-3.75-1.59-.42-.9-1,1.62-.23,1.72-.92.63-.93,1-.61,1.13-.55,1.76-.19.48,3.1,1.61,4.2,5.77,1.2,7.81,4.45a27.51,27.51,0,0,1,3.43,8.32C153.48,135.91,151.09,136.45,149.22,136.66Z" transform="translate(0 0)" fill="#e53935" opacity="0.7"/><path d="M156.17,139.58c8.72,1.79,17.5,4.84,25.66-2.66S193.5,121.5,192.75,112s-5.5-19.17-10.83-21.33-14.75,2-27.67,3.91S128.5,102.33,127.5,112s2.75,14.67,10.75,20.25S149.83,138.28,156.17,139.58Z" transform="translate(0 0)" fill="#ffb300" opacity="0.7"/><path d="M71.69,88.69c5.88.09,13.44-1.13,14.31-5.44s-1.94-7.69-7.16-7.31S68,79.63,67.19,83A4.57,4.57,0,0,0,71.69,88.69Z" transform="translate(0 0)" fill="#1e88e5" opacity="0.7"/></g></g><g id="frame"><rect id="frame-2" width="300" height="200" fill="none"/></g></svg>