<svg xmlns="http://www.w3.org/2000/svg" viewBox="0 0 30 20"><path d="M17.71,13.31a1.86,1.86,0,0,0,1.43-1.45A4,4,0,0,0,19,9.53c-.31-.45-1-.67-1.48.38S16.5,13.33,17.71,13.31Z" transform="translate(0 0.02)" fill="#1e88e5" opacity="0.7"/><path d="M20.14,13.72a2,2,0,0,0,1.9-.34c.35-.35.4-.46-.22-1.14s-1.57-2.6-2.16-3.09-1.14-.09-1.25.83.08,1.5-.34,2.29-.56,1.19.41.82S19.63,13.58,20.14,13.72Z" transform="translate(0 0.02)" fill="#1e88e5" opacity="0.7"/><path d="M19.81,9a2.36,2.36,0,0,0,.46,1.91c.51.67.8,1.75,1.7,2s2.17.26,2.5-.16.5-.94.91-1.43.26-1.25.33-1.75,0-.47.56-.71.62-.36.86-.08.69.34.15-.42-1.38-.17-2.37-.14-2.14.34-3.2.32S19.87,8.65,19.81,9Z" transform="translate(0 0.02)" fill="#1e88e5" opacity="0.7"/><path d="M14.92,13.64c-.46,0-.66.07-.85-.18s-.15-.4-.36-.7-.38-.44-.38-.54.13-.18.2-.12.33.61.39.61,0-.12-.05-.32-.12-.35-.19-.37-.16,0-.09-.1.16,0,.17-.09.07-.09.11-.06.11-.06.18,0,0,.31.16.42.57.12.78.44a3,3,0,0,1,.34.84C15.35,13.57,15.11,13.62,14.92,13.64Z" transform="translate(0 0.02)" fill="#e53935" opacity="0.7"/><path d="M15.62,13.93c.87.18,1.75.49,2.56-.26a2.89,2.89,0,0,0,1.09-2.49A2.66,2.66,0,0,0,18.19,9c-.53-.21-1.47.2-2.76.39s-2.58.78-2.68,1.75a2,2,0,0,0,1.07,2A3.73,3.73,0,0,0,15.62,13.93Z" transform="translate(0 0.02)" fill="#ffb300" opacity="0.7"/><path d="M7.17,8.84c.59,0,1.34-.11,1.43-.54s-.19-.77-.72-.73-1.08.37-1.16.71A.45.45,0,0,0,7.17,8.84Z" transform="translate(0 0.02)" fill="#1e88e5" opacity="0.7"/><rect width="30" height="20" fill="none"/></svg>