<!-- Copyright (c) 2023 Jan Stehno -->
<svg xmlns="http://www.w3.org/2000/svg" viewBox="0 0 300 200">
    <title>chamois_organs</title>
    <g id="chamois">
        <g id="organs">
            <path
                d="M191,132.69c5.45-4.4,4.13-18.06,2.44-29.13s.14-20.06-4.19-22.73S172.08,83.5,171.33,100s-.33,29,7,33.5S187.25,135.71,191,132.69Z"
                transform="translate(0 0)" fill="#1e88e5" opacity="0.7" />
            <path
                d="M205.92,137.58c10.07-4,14.25-7.25,9.16-14.66s-8.5-14.59-11.5-26.92-5.91-16.08-10.41-15.33-9.59,11.5-10.59,24.08-4.5,23.42,1.67,29.33S199.79,140,205.92,137.58Z"
                transform="translate(0 0)" fill="#1e88e5" opacity="0.7" />
            <path
                d="M220.17,124.42c4.59-1.38,3.08,3.16,10.25,0s5.5-6.84,8.83-8.5.92-6.84,5.83-10.09,7.67-12.75,7.92-15,4.25-.25,9.67-1.41,10.08,4.5,8.58,0-5.08-6-8.83-5.17-5.5,1.42-8.84-3-6.75-6.42-10.16-6.42-9.42,1-16.92,0S208.25,71.25,206.08,76s-.08,14.75,0,21.92,3.82,18.2,7.49,22.72S219.32,124.67,220.17,124.42Z"
                transform="translate(0 0)" fill="#1e88e5" opacity="0.7" />
            <path
                d="M137.13,136.61c-5.48-2-7.83-2.89-8.6-6.59s.53-5-.13-9.2-1.79-6.68-1.25-7.76,2.44-1.22,2.91-.16.33,8.2,1,8.54,1-1.1,1.21-3.62.69-4.35,0-4.95-1.56-1.3-.48-1.52,1.95.65,2.46,0,1.23-.63,1.53-.06,1.57,0,2.08.75-1.19,3.51-.54,5.27,5.84,4.41,6.32,8.92a29.94,29.94,0,0,1-.79,10.58C142.35,138.15,139.36,137.42,137.13,136.61Z"
                transform="translate(0 0)" fill="#e53935" opacity="0.7" />
            <path
                d="M149.17,139.42c19.38,1.6,30.91,2.58,33.25-16.17s5.75-35.42-1.84-39S160.42,86.17,147,88.67s-22.58,14.41-24,22.58S115.92,136.67,149.17,139.42Z"
                transform="translate(0 0)" fill="#ffb300" opacity="0.7" />
            <path
                d="M39.21,49.58c1.81,2.64,5.75-.16,9.25-.25s8,.8,6.25-3.91c-2-5.28-5.25-4.46-9.58-3.21S37.29,46.79,39.21,49.58Z"
                transform="translate(0 0)" fill="#1e88e5" opacity="0.7" />
        </g>
    </g>
    <g id="frame">
        <rect id="frame-2" width="300" height="200" fill="none" />
    </g>
</svg>