<!-- Copyright (c) 2022 Jan Stehno -->
<svg xmlns="http://www.w3.org/2000/svg" viewBox="0 0 300 200"><title>chamois_body</title><g id="chamois"><g id="body"><path d="M116.69,200h15.69s0-16.37,2-21,2.75-15.12,3.25-19.62a103.13,103.13,0,0,1,2.62-12.13s3.88-1.75,21.5-.75,31,1.38,35.75.88,3.5,4.12,8.63,1.5,12.5-8.63,16.37-12.13,6.13-4.37,6.13-4.37-6,11.37,8,20.37,38.79,12.17,37.28,20.14c-.68,3.58-4.53,27.11-4.53,27.11h13.95s0-11.83,3-19.83S303.67,158,288.83,150s-20.83-7.5-17.16-25,4.14-20.32,4.14-20.32a35.09,35.09,0,0,1,1.19,9.45c-.17,4.66,4-5.6,1-21.93-2.89-15.71-6.79-25.55-19-32.22s-50.31-4-73.56-.23-41.75,4-55,2.5S111,73,97.5,74.75,83.13,70.19,78.38,61.13a61.87,61.87,0,0,0-9.69-14s3.87-4.57,5.19-9.25,4.56-7.63,4.93-10.82-1.87-2.56-5.68,0a58.39,58.39,0,0,1-12.75,6.88c-4.38,1.5-5.19,4.44-5.19,4.44s-3.86.45-6.27-.75A7.28,7.28,0,0,0,44.25,37s-4.08-7-5.42-10.87-2.73-8.61-2.08-9.25,3.71,3.41,3.67,1.83-1.17-2.54-2.29-3.38a2.57,2.57,0,0,0-2.17-.5s.5-3.25,3.46-3.25,5.58,2.92,4,.71S40,8.88,37,9.54s-6.58,6.59-6.71,11.21S35.71,41,35.71,41a69.59,69.59,0,0,0-5.42,8.33C28.42,53,24.58,57.08,17.5,61.67S8.25,68,8.92,73.08s2.66,4.75,2.66,4.75-1,3.67,3.84,4.34,16.5-.75,22.08-1.75,13.08-3.84,12,1.16,3,13.84,7.75,20.34,7,10.46,19.88,16.71S93,131.5,96,137.63s12.13,6.5,12.13,6.5,6.12,8.54,7.87,18.7,1.5,12.75,2.75,17.42S116.69,200,116.69,200Z" transform="translate(0 0)" fill="#ccc"/></g></g><g id="frame"><rect id="frame-2" width="300" height="200" fill="none"/></g></svg>