<svg xmlns="http://www.w3.org/2000/svg" viewBox="0 0 30 20"><path d="M11.67,20h1.57a9.3,9.3,0,0,1,.2-2.1,9.19,9.19,0,0,0,.32-2A10.36,10.36,0,0,1,14,14.7a6.25,6.25,0,0,1,2.16-.07,32.53,32.53,0,0,0,3.57.08c.48-.05.35.42.86.15a9.66,9.66,0,0,0,1.64-1.21,2.49,2.49,0,0,1,.61-.44,1.56,1.56,0,0,0,.8,2c1.4.9,3.88,1.22,3.73,2-.07.36-.45,2.72-.45,2.72h1.39a6.91,6.91,0,0,1,.3-2c.3-.8,1.74-2.21.25-3s-2.08-.75-1.71-2.5.41-2,.41-2a3.39,3.39,0,0,1,.12,1c0,.46.4-.56.1-2.19S27.12,6.64,25.91,6s-5-.39-7.36,0a20.55,20.55,0,0,1-5.5.25c-1.32-.15-2,1.08-3.3,1.25S8.31,7,7.84,6.09a6.27,6.27,0,0,0-1-1.4,2.93,2.93,0,0,0,.52-.93c.13-.47.45-.76.49-1.08s-.19-.25-.57,0A5.58,5.58,0,0,1,6,3.37a.75.75,0,0,0-.52.44,1.34,1.34,0,0,1-.63-.07.7.7,0,0,0-.46-.06,9.19,9.19,0,0,1-.55-1.09c-.13-.39-.27-.86-.2-.93s.37.34.36.19a.42.42,0,0,0-.23-.34.25.25,0,0,0-.21-.05s0-.33.34-.33.56.3.4.07A.56.56,0,0,0,3.7.93,1.34,1.34,0,0,0,3,2.05a11.24,11.24,0,0,0,.54,2A6.94,6.94,0,0,0,3,4.91,3.49,3.49,0,0,1,1.75,6.14C1,6.6.82,6.78.89,7.28s.27.48.27.48-.1.37.38.43A10,10,0,0,0,3.75,8c.56-.1,1.31-.39,1.2.11a3.25,3.25,0,0,0,.78,2,4.14,4.14,0,0,0,2,1.67,3.45,3.45,0,0,1,1.89,1.9c.3.61,1.21.65,1.21.65a5,5,0,0,1,.79,1.87c.17,1,.15,1.27.28,1.74A7.63,7.63,0,0,1,11.67,20Z" transform="translate(0 0.02)" fill="#ccc"/><rect width="30" height="20" fill="none"/></svg>