<svg xmlns="http://www.w3.org/2000/svg" viewBox="0 0 30 20"><path d="M19.1,13.24c.55-.43.41-1.8.24-2.91s0-2-.41-2.27-1.72.27-1.8,1.92,0,2.9.7,3.35S18.73,13.55,19.1,13.24Z" transform="translate(0 0.02)" fill="#1e88e5" opacity="0.7"/><path d="M20.59,13.73c1-.39,1.43-.72.92-1.46a7.4,7.4,0,0,1-1.15-2.69c-.3-1.24-.59-1.61-1-1.54s-1,1.15-1.06,2.41-.45,2.34.17,2.93A2.06,2.06,0,0,0,20.59,13.73Z" transform="translate(0 0.02)" fill="#1e88e5" opacity="0.7"/><path d="M22,12.42c.46-.14.3.31,1,0s.55-.69.89-.85.09-.69.58-1a2.71,2.71,0,0,0,.79-1.5c0-.23.42,0,1-.14s1,.45.85,0a.71.71,0,0,0-.88-.52c-.37.08-.55.14-.88-.3a1.34,1.34,0,0,0-1-.64,9.23,9.23,0,0,1-1.69,0c-.75-.1-1.83-.36-2,.12a6.94,6.94,0,0,0,0,2.19A4.57,4.57,0,0,0,21.36,12C21.73,12.49,21.93,12.44,22,12.42Z" transform="translate(0 0.02)" fill="#1e88e5" opacity="0.7"/><path d="M13.71,13.64c-.54-.2-.78-.29-.86-.66s.06-.5,0-.92-.18-.67-.12-.78a.17.17,0,0,1,.29,0c0,.1,0,.82.09.85s.11-.11.13-.36.06-.44,0-.5-.15-.13,0-.15.19.07.24,0a.09.09,0,0,1,.16,0c0,.06.15,0,.2.08s-.12.35,0,.52.58.45.63.9a2.86,2.86,0,0,1-.08,1.05C14.24,13.79,13.94,13.72,13.71,13.64Z" transform="translate(0 0.02)" fill="#e53935" opacity="0.7"/><path d="M14.92,13.92c1.94.16,3.09.26,3.32-1.62s.58-3.54-.18-3.9-2,.19-3.36.44a3.13,3.13,0,0,0-2.4,2.26C12.16,11.92,11.59,13.64,14.92,13.92Z" transform="translate(0 0.02)" fill="#ffb300" opacity="0.7"/><path d="M3.92,4.93c.18.27.58,0,.93,0s.8.08.62-.39-.52-.45-1-.32S3.73,4.65,3.92,4.93Z" transform="translate(0 0.02)" fill="#1e88e5" opacity="0.7"/><rect width="30" height="20" fill="none"/></svg>