<!-- Copyright (c) 2022 - 2023 Jan Stehno -->
<svg xmlns="http://www.w3.org/2000/svg" viewBox="0 0 300 200"><title>collaredpeccary_body</title><g id="collaredpeccary"><g id="body"><path d="M275.54,200H262.08a32.74,32.74,0,0,0,3.11-13.75c.06-8,.06-13.37-5.44-17.25s-12.42-6.92-16.67-9.75-6.91-4.67-6.91-4.67a32.22,32.22,0,0,0-2.34,11.25c0,5.84,2.09,9.09-1,12.84s-9.41,12.41-11.33,16.25S219,200,219,200H207.08A50.08,50.08,0,0,0,214,173.75C213.87,158,208.12,150,208.12,150a199.7,199.7,0,0,0-22.25,1.75c-11.62,1.63-16.87.38-20.87-.37a79.91,79.91,0,0,0-9-1s-2,5.29-2.17,15.45-1.16,16.34-3,21.67-1,12.5-1,12.5H137.5a49,49,0,0,0,.75-11.08c-.42-4.92-1.67-13.92-1.67-13.92s-4.16,9.25-5.5,13.92A44.49,44.49,0,0,0,129.92,200H116.75a58.83,58.83,0,0,0,4.33-17.75c.75-9.83-.75-15.83-.83-22s-.58-12.42-.58-12.42-19.67,1.75-31.5,0-31.09-.75-38.5,1-13.09-.08-14.59-1.41-.58-2.71-.33-3.44-.19-1.15-2.46-.88-5.54-.07-6.76-2.85a24.4,24.4,0,0,0-4.06-6.31c-1.22-1.38-2.38-3.22-2.28-5.16s2.06-1.31,3.56-2.31,12.33-11,15.33-15.8S50,94.31,56.06,88.56s10.47-10.5,13.16-12a22.14,22.14,0,0,1,4.09-1.9s.85-4.54,4.13-6.63,5.59-2.72,9-1.09,4.43,6.15,4.43,6.15,7.29,1.2,12.12-.67,13.48-7.55,26.35-9.05,19.19,2,29.07.82,31.56-4.94,47.12-5.06,30.5.7,44,6.87,22.21,13.33,26.67,21.46,4.66,8.17,2.75,10-2.67,2-1.8,3.25,3.25,6.73,1.88,15.23-5,12.44-8.13,16.62-6.25,11-1.87,15.82,12.06,13.56,12,17.47-3.52,12.65-4.48,20.53A124.74,124.74,0,0,0,275.54,200Z" transform="translate(0 0)" fill="#ccc"/></g></g><g id="frame"><rect id="frame-2" width="300" height="200" fill="none"/></g></svg>