<svg xmlns="http://www.w3.org/2000/svg" viewBox="0 0 30 20"><path d="M27.55,20H26.21a3.38,3.38,0,0,0,.31-1.38c0-.8,0-1.34-.55-1.72s-1.24-.7-1.66-1-.69-.47-.69-.47a3.22,3.22,0,0,0-.24,1.13c0,.58.21.91-.1,1.28a12.58,12.58,0,0,0-1.13,1.63L21.9,20H20.71a5,5,0,0,0,.69-2.63A4.31,4.31,0,0,0,20.81,15a19.69,19.69,0,0,0-2.22.17,5.34,5.34,0,0,1-2.09,0c-.4-.07-.9-.1-.9-.1a5.09,5.09,0,0,0-.22,1.55,6.45,6.45,0,0,1-.3,2.17A3.45,3.45,0,0,0,15,20H13.75a4.58,4.58,0,0,0,.07-1.11c0-.49-.16-1.39-.16-1.39a13.48,13.48,0,0,0-.55,1.39A4.18,4.18,0,0,0,13,20H11.67a6,6,0,0,0,.44-1.78A16.84,16.84,0,0,0,12,16c0-.62,0-1.24,0-1.24a18,18,0,0,1-3.15,0,13.28,13.28,0,0,0-3.85.1,1.92,1.92,0,0,1-1.46-.14c-.15-.14-.06-.27,0-.35s0-.11-.24-.08A.63.63,0,0,1,2.55,14a2.45,2.45,0,0,0-.4-.63.74.74,0,0,1-.23-.52c0-.19.2-.13.35-.23A9.71,9.71,0,0,0,3.81,11a15.24,15.24,0,0,1,1.8-2.21,11.54,11.54,0,0,1,1.31-1.2,2.23,2.23,0,0,1,.41-.19,1.15,1.15,0,0,1,.41-.66.81.81,0,0,1,.9-.11,1,1,0,0,1,.44.61,2.93,2.93,0,0,0,1.22-.06,8.24,8.24,0,0,1,2.63-.91c1.29-.15,1.92.2,2.91.08a46.52,46.52,0,0,1,4.71-.5,10.22,10.22,0,0,1,4.4.69,5.48,5.48,0,0,1,2.67,2.14c.44.81.46.82.27,1s-.27.2-.18.33a2.26,2.26,0,0,1,.19,1.52,3.34,3.34,0,0,1-.81,1.66c-.32.42-.63,1.1-.19,1.58s1.21,1.36,1.2,1.75-.35,1.27-.45,2.05A12.1,12.1,0,0,0,27.55,20Z" transform="translate(0 0.02)" fill="#ccc"/><rect width="30" height="20" fill="none"/></svg>