<svg xmlns="http://www.w3.org/2000/svg" viewBox="0 0 30 20"><path d="M18,14.28c1.22-.45,2.08-.59,2.45-2.14s.48-2.86.12-3.48-.9-.88-1.95.12a7.62,7.62,0,0,0-2.16,3.55C16.32,13.22,16.49,14.81,18,14.28Z" transform="translate(0 0.02)" fill="#1e88e5" opacity="0.7"/><path d="M17.43,13.45c.26.49.82.73,2.18.64s2.12.34,1.77-1.34a23.88,23.88,0,0,1-.65-3.23c0-.88-.91-1.5-1.54-.34A14.11,14.11,0,0,1,17.61,12,1.08,1.08,0,0,0,17.43,13.45Z" transform="translate(0 0.02)" fill="#1e88e5" opacity="0.7"/><path d="M22.79,13.56c.87-.36.57-1.25,1.18-1.42s.35-.88,1-1.14.25-.65.66-.52.86,0,1.23.77c.14.27.45-.62-.13-1.05a5.58,5.58,0,0,1-1.2-1.32,1.79,1.79,0,0,1-.27-.4,2.71,2.71,0,0,0-1.76-.32c-.9.2-1.71-.78-2.36-.4s-.5,1.23-.22,2.86a21.85,21.85,0,0,1,.57,2.63C21.41,13.77,21.62,14.05,22.79,13.56Z" transform="translate(0 0.02)" fill="#1e88e5" opacity="0.7"/><path d="M13.55,13.75c-.46-.05-.65-.07-.8-.37s-.08-.45-.23-.81-.29-.54-.28-.65.15-.16.21-.08.23.71.28.72,0-.12,0-.34-.05-.4-.11-.44-.15-.07-.08-.12.16,0,.18-.06.08-.08.12,0,.11,0,.17,0,0,.33.09.47.53.25.68.63a3.47,3.47,0,0,1,.19,1C14,13.76,13.73,13.77,13.55,13.75Z" transform="translate(0 0.02)" fill="#e53935" opacity="0.7"/><path d="M12.34,12.66a2.91,2.91,0,0,0,2.46,1c.93,0,1.61.7,2.38-.44s1.54-1.94,1.71-3.06.08-1.65-.67-1.95a5.6,5.6,0,0,0-3.45.15A2.9,2.9,0,0,0,12.88,10C12.38,10.79,11.66,11.51,12.34,12.66Z" transform="translate(0 0.02)" fill="#ffb300" opacity="0.7"/><path d="M6.07,10.1c.47.21.8-.21,1-.49s.26-.48,0-.6-.75.36-.94.59S5.88,10,6.07,10.1Z" transform="translate(0 0.02)" fill="#1e88e5" opacity="0.7"/><rect width="30" height="20" fill="none"/></svg>