<!-- Copyright (c) 2022 - 2023 Jan Stehno -->
<svg xmlns="http://www.w3.org/2000/svg" viewBox="0 0 300 200"><title>collaredpeccary_organs</title><g id="collaredpeccary"><g id="organs"><path d="M179.5,143c12.17-4.45,20.83-5.83,24.5-21.33s4.75-28.67,1.25-34.84-9-8.83-19.58,1.25-20.67,26.67-21.59,35.5S164.87,148.35,179.5,143Z" transform="translate(0 0)" fill="#1e88e5" opacity="0.7"/><path d="M174.33,134.75c2.55,4.9,8.17,7.25,21.75,6.42s21.25,3.33,17.75-13.42-6.12-23.6-6.52-32.34-9.14-15-15.39-3.41-9.84,21.5-15.84,27.83S172.08,130.42,174.33,134.75Z" transform="translate(0 0)" fill="#1e88e5" opacity="0.7"/><path d="M227.94,135.88c8.62-3.59,5.64-12.55,11.73-14.21s3.5-8.84,9.75-11.42,2.5-6.5,6.58-5.25,8.63.56,12.33,7.71c1.39,2.68,4.5-6.13-1.33-10.46s-9.33-9.5-12-13.17S252.25,85,252.25,85s-8.67-5.17-17.58-3.17-17.09-7.75-23.59-4-5,12.34-2.16,28.59,6.21,21.12,5.68,26.32S216.21,140.75,227.94,135.88Z" transform="translate(0 0)" fill="#1e88e5" opacity="0.7"/><path d="M135.46,137.73c-4.52-.44-6.47-.67-7.93-3.72s-.81-4.5-2.3-8-2.93-5.42-2.79-6.5,1.5-1.65,2.11-.84,2.21,7.11,2.77,7.25.49-1.2,0-3.46-.54-4-1.19-4.33-1.47-.77-.72-1.22,1.6.1,1.81-.61.75-.85,1.11-.42,1.17-.34,1.72.17,0,3.36.87,4.74,5.37,2.47,6.81,6.31a32.67,32.67,0,0,1,2,9.47C139.69,137.83,137.3,137.9,135.46,137.73Z" transform="translate(0 0)" fill="#e53935" opacity="0.7"/><path d="M123.42,126.83c4.28,7.22,15.25,10.25,24.58,10.25s16.08,7,23.75-4.41,15.5-19.42,17.17-30.67.75-16.5-6.75-19.42-22.34-3-34.42,1.5S133.83,91.83,128.83,100,116.58,115.33,123.42,126.83Z" transform="translate(0 0)" fill="#ffb300" opacity="0.7"/><path d="M60.69,101.25c4.76,2.06,8-2.06,9.81-4.94s2.56-4.75-.44-6-7.5,3.63-9.37,5.94S58.81,100.44,60.69,101.25Z" transform="translate(0 0)" fill="#1e88e5" opacity="0.7"/></g></g><g id="frame"><rect id="frame-2" width="300" height="200" fill="none"/></g></svg>