<svg xmlns="http://www.w3.org/2000/svg" viewBox="0 0 30 20"><path d="M11.07,20c1.26,0,1.43-.05,1.55-.43s.66-1.06.82-1.54a8,8,0,0,1,.85-2c.25-.24,1.06-.09,2.29-.25s1.79-.55,2.24.1a14.53,14.53,0,0,1,1.41,1.95c.21.52.18,1.18-.39,1.33s-1.22.13-1.4.23-.18.25,0,.38.46.18,1.32.18a2,2,0,0,0,1.23-.3,2.46,2.46,0,0,0,.86,0,1,1,0,0,0,.82-.6,3.68,3.68,0,0,0,.5-1.58,8.87,8.87,0,0,0-.06-1.32,1,1,0,0,1,.17-.79,11.19,11.19,0,0,0,.33,2.17c.3,1.09.32,2.42,1.77,2.42s1.92-.71,1.49-2-.42-4.17-.79-5.73a6.39,6.39,0,0,0-2-3.94,8.25,8.25,0,0,0-5.38-2.19c-2.41-.07-2.9.09-4.07.91A18.38,18.38,0,0,1,10,8.94c-2.12.74-2.72.87-2.72.87A2.74,2.74,0,0,0,6.62,9c-.27-.18-.57-.34-.62.13s0,.88-.21,1.17a9.48,9.48,0,0,0-1.3,1.31,4,4,0,0,1-.9,1.36c-.42.28-.47.43-.78.57s-.38.23-.24.45.26.34.4.36.16.22.4.24.14.16.17.25.06.25.44.22a11.5,11.5,0,0,1,2.24-.38c.8,0,1.9-.15,2.44.45s.89,1,1.63,1,1.05,0,1.05,0a10.45,10.45,0,0,1,0,1.34c-.05.64,0,1.27-.33,1.48a1.52,1.52,0,0,1-1,.36c-.41,0-.51.06-.57.19s-.07.2.13.19h.19s0,.11.18.17A3.66,3.66,0,0,0,11.07,20Z" transform="translate(0 0.02)" fill="#ccc"/><rect width="30" height="20" fill="none"/></svg>