<svg xmlns="http://www.w3.org/2000/svg" viewBox="0 0 30 20"><path d="M15.32,13.82c.54,0,1.13-.56,1.33-1.51A10.14,10.14,0,0,0,16.94,9c-.19-.83-1.08-1.4-1.51,0s-.7,3.11-.84,3.59S14.88,13.84,15.32,13.82Z" transform="translate(0 0.02)" fill="#1e88e5" opacity="0.7"/><path d="M17.12,13.19c.53,0,1,.35,1.28-.38s-.64-2.79-1-3.53-.88-1.63-1.24-.89a8,8,0,0,0-1,3.44c.06,1.19.31,2.11.95,1.66S16.77,13.17,17.12,13.19Z" transform="translate(0 0.02)" fill="#1e88e5" opacity="0.7"/><path d="M18.92,13.28c.61,0,.79-.47,1-1.09s.73-.8,1-1.28.09-.62.78-.4,1.15.18,1.22.35.81,0-.53-.75S21,8.94,20.18,8.51,19,7.73,18,7.94s-1.81.29-1.15,1.26a5.3,5.3,0,0,1,.85,2.73A1.37,1.37,0,0,0,18.92,13.28Z" transform="translate(0 0.02)" fill="#1e88e5" opacity="0.7"/><path d="M12.07,14.07c-.49-.08-.7-.12-.81-.37s0-.37-.13-.67-.24-.46-.21-.55a.17.17,0,0,1,.25,0c.05.07.13.59.19.6s.07-.09.06-.27,0-.32-.07-.36-.15-.08-.06-.1.17,0,.21,0a.08.08,0,0,1,.13,0s.13,0,.18,0-.05.27,0,.39.55.25.65.58a2.13,2.13,0,0,1,.07.77C12.53,14.12,12.27,14.11,12.07,14.07Z" transform="translate(0 0.02)" fill="#e53935" opacity="0.7"/><path d="M13.26,13.78c.73-.14,1.78-.12,2.1-.59a3.85,3.85,0,0,0,.7-2.42c0-1.39.14-2.43-.57-2.33a18.09,18.09,0,0,0-2.92,1.41c-1,.43-2.64,1.08-2.72,1.91s.56,1.31,1.49,1.63A3.54,3.54,0,0,0,13.26,13.78Z" transform="translate(0 0.02)" fill="#ffb300" opacity="0.7"/><path d="M5.58,11.67c.2.29.46-.07.78-.08s1-.06.72-.4a.92.92,0,0,0-1-.21C5.81,11.08,5.4,11.41,5.58,11.67Z" transform="translate(0 0.02)" fill="#1e88e5" opacity="0.7"/><rect width="30" height="20" fill="none"/></svg>