<!-- Copyright (c) 2023 Jan Stehno -->
<svg xmlns="http://www.w3.org/2000/svg" viewBox="0 0 300 200">
    <title>commonraccoon_organs</title>
    <g id="commonraccoon">
        <g id="organs">
            <path
                d="M153.25,138.4c5.37-.28,11.25-5.52,13.25-15s4.75-25,2.88-33.25-10.75-14-15.13,0-6.92,31.12-8.33,36S148.83,138.64,153.25,138.4Z"
                transform="translate(0 0)" fill="#1e88e5" opacity="0.7" />
            <path
                d="M171.17,132.17c5.33.36,9.75,3.5,12.83-3.84s-6.42-27.91-10.42-35.25-8.75-16.33-12.41-8.91-10.84,22.41-10.25,34.33,3.05,21.14,9.44,16.61S167.72,131.93,171.17,132.17Z"
                transform="translate(0 0)" fill="#1e88e5" opacity="0.7" />
            <path
                d="M189.17,133c6.16.39,7.91-4.67,9.83-10.83s7.33-8,9.75-12.84,1-6.16,7.83-4,11.5,1.76,12.25,3.51,8.09-.51-5.33-7.51-13.08-11.66-21.75-16-12.06-7.77-21.81-5.64-18.19,2.87-11.5,12.56,7.56,18.69,8.44,27.25S183.27,132.63,189.17,133Z"
                transform="translate(0 0)" fill="#1e88e5" opacity="0.7" />
            <path
                d="M120.73,141c-4.89-.81-7-1.19-8.12-3.78s-.21-3.68-1.31-6.65-2.38-4.63-2.07-5.47a1.6,1.6,0,0,1,2.44-.46c.53.71,1.34,5.9,1.94,6.07s.71-.91.55-2.76,0-3.23-.65-3.58-1.49-.76-.6-1,1.73.25,2.07-.3a.79.79,0,0,1,1.28-.22c.33.38,1.33-.16,1.86.31s-.55,2.68.24,3.88,5.5,2.51,6.49,5.73a19.18,19.18,0,0,1,.72,7.75C125.34,141.49,122.71,141.31,120.73,141Z"
                transform="translate(0 0)" fill="#e53935" opacity="0.7" />
            <path
                d="M132.58,138.08c7.36-1.42,17.84-1.25,21-5.91s6.75-10.42,7-24.25,1.42-24.25-5.66-23.25-19.75,9.75-29.25,14.08S99.25,109.5,98.5,117.83s5.58,13.09,14.92,16.34S127,139.17,132.58,138.08Z"
                transform="translate(0 0)" fill="#ffb300" opacity="0.7" />
            <path
                d="M55.81,116.94c2,2.9,4.57-.69,7.82-.81s9.75-.63,7.18-4-7.75-3.07-10.25-2.07S54,114.31,55.81,116.94Z"
                transform="translate(0 0)" fill="#1e88e5" opacity="0.7" />
        </g>
    </g>
    <g id="frame">
        <rect id="frame-2" width="300" height="200" fill="none" />
    </g>
</svg>