<!-- Copyright (c) 2022 Jan Stehno -->
<svg xmlns="http://www.w3.org/2000/svg" viewBox="0 0 300 200"><title>commonraccoon_body</title><g id="commonraccoon"><g id="body"><path d="M110.71,200c12.62,0,14.29-.46,15.54-4.29s6.56-10.58,8.13-15.33,6.06-17.19,8.56-19.57,10.56-.89,22.89-2.48,17.84-5.5,22.34,1,12.08,14.25,14.16,19.5,1.75,11.84-3.91,13.34-12.23,1.25-14,2.28-1.85,2.51-.43,3.8,4.6,1.75,13.25,1.75,12.31-2.94,12.31-2.94a24.33,24.33,0,0,0,8.61,0c3.81-.92,6.66-2.45,8.19-5.95s5.37-10.3,4.95-15.88.42-8.79-.62-13.21a9.78,9.78,0,0,1,1.7-7.83,113.81,113.81,0,0,0,3.38,21.66c2.92,10.92,3.17,24.17,17.67,24.17s19.16-7.08,14.91-19.67-4.2-41.7-7.95-57.33S253.63,95.25,240,83.63,210.38,62.5,186.25,61.75s-29.08.92-40.75,9.08-24.83,11.5-46,18.84-27.17,8.66-27.17,8.66S69,91.56,66.25,89.81,60.5,86.44,60,91.13s.44,8.81-2.12,11.68-10.5,8.69-13,13.13-4.82,10.75-9,13.56-4.66,4.34-7.75,5.78-3.88,2.22-2.44,4.5,2.65,3.41,4,3.53,1.62,2.22,4,2.47,1.43,1.53,1.75,2.47.56,2.47,4.43,2.16,14.33-4.16,22.37-3.78,19-1.5,24.35,4.5,8.94,9.93,16.38,10.37,10.5.31,10.5.31a111.66,111.66,0,0,1-.06,13.44c-.5,6.38-.13,12.66-3.29,14.84s-5.71,3.66-9.87,3.6-5.17.59-5.69,1.84c-.31.75-.72,2,1.31,1.94a9.76,9.76,0,0,0,1.88-.13s-.19,1.07,1.75,1.72S104.64,200,110.71,200Z" transform="translate(0 0)" fill="#ccc"/></g></g><g id="frame"><rect id="frame-2" width="300" height="200" fill="none"/></g></svg>