<svg xmlns="http://www.w3.org/2000/svg" viewBox="0 0 30 20"><path d="M13.75,20H11.88a2.83,2.83,0,0,0,0-.95c-.08-.49-.33-1.83-.39-2.85a6.27,6.27,0,0,0-.89-2.94c-.43-.48-2-1.5-2.21-2.16s-1.1-.42-1.69-1.1-.53-1.5-.91-1.79a3.81,3.81,0,0,0-2.27-.28,1.4,1.4,0,0,1-1-.11.47.47,0,0,1-.45-.07,2,2,0,0,1-.32-.5c-.09-.13-.09-.22.17-.34s.58-.53,1-.75.6-.39.67-.72a3.33,3.33,0,0,1,.91-1.17A5.92,5.92,0,0,1,5,3.92a1.75,1.75,0,0,1,0-.76c.09-.38.4-1.06.45-1.33s.18-.57.33-.23A1.88,1.88,0,0,1,6,2.3a3.76,3.76,0,0,0,.68,1.11c.12.19,0,.3.27.36a4.23,4.23,0,0,1,1.95.84A6.13,6.13,0,0,0,11.68,6c1.2.24,1.88.47,2.67.62s2.71-.37,4-.31a13.62,13.62,0,0,1,2.86.51,7.15,7.15,0,0,1,2.61,1,4.48,4.48,0,0,0,1.56,1.24c.68.29,1.71,2.33,1.81,3.49A12.55,12.55,0,0,0,27.72,16a5.47,5.47,0,0,1,.85,1.6c0,.37-.14.59-.52.57s-.74-.13-1.11-.9a3.75,3.75,0,0,0-1.42-1.36c-1.42-.93-1-3.53-1-3.53a6.86,6.86,0,0,0-.46,2A1.87,1.87,0,0,0,25,15.9l.57.36s.94.3,1,.94.12,1.47.23,1.95A7.36,7.36,0,0,0,27,20H26a3.85,3.85,0,0,0-.5-1.8A8.57,8.57,0,0,0,23.64,17a10.29,10.29,0,0,0-.73,1.66c-.16.59-.44,1.29-.44,1.29H21.09A5.7,5.7,0,0,0,22,18.46c.25-.74.59-1.33-.07-2a26.6,26.6,0,0,1-2.23-2.65A2.15,2.15,0,0,0,18,12.71c-.63,0-1.26,1-2.31.93a19.34,19.34,0,0,0-2.36,0,4.15,4.15,0,0,0,0,2.06,12.45,12.45,0,0,0,.53,2.69A1.09,1.09,0,0,1,14,19.5,1.13,1.13,0,0,0,13.75,20Z" transform="translate(0 0.02)" fill="#ccc"/><rect width="30" height="20" fill="none"/></svg>