<!-- Copyright (c) 2023 Jan Stehno -->
<svg xmlns="http://www.w3.org/2000/svg" viewBox="0 0 300 200">
    <title>coyote_organs</title>
    <g id="coyote">
        <g id="organs">
            <path
                d="M160.5,117c7.48-1.51,12.94-6.12,15.81-13.5s5.5-16.75,2.38-20.56-10.31-3.5-13.5,1.12-7.94,12.38-11,17.07S146.88,119.75,160.5,117Z"
                transform="translate(0 0)" fill="#1e88e5" opacity="0.7" />
            <path
                d="M176.13,114.56c7.68-.68,12.5-.93,12.62-5.43s-6-8.13-8.65-12.82-1.35-13.25-5.72-13.93-6.44,8.87-10.69,14.5-13.06,15.75-1.75,17.37S171.55,115,176.13,114.56Z"
                transform="translate(0 0)" fill="#1e88e5" opacity="0.7" />
            <path
                d="M195.25,112.13c3.94,1.63,6.75.54,8.08-1s4.21-1.29,5.54-3.5,5.63-2.33,6.94-5.14,1-3.5,4.75-2.06,5.38-.94,9.07,1.62,8.18,1.75,3.25-2.75-9.69-1.5-13.63-5.5-5.87-11.94-12.31-12.12-13.19-1.44-18.88-2.44S175.31,82.5,175.94,88s6.87,9.75,7.12,13.81,7.94,4.63,8.13,7.38S192.69,111.06,195.25,112.13Z"
                transform="translate(0 0)" fill="#1e88e5" opacity="0.7" />
            <path
                d="M124.13,121.9c-4.11-1.65-5.87-2.4-6.37-5.43s.52-4.09.12-7.54-1.2-5.48-.77-6.36,1.88-1,2.21-.13.06,6.73.55,7,.79-.9,1-3,.62-3.57.11-4-1.15-1.08-.33-1.25,1.47.54,1.87,0,.94-.51,1.16,0,1.19,0,1.56.63-1,2.86-.53,4.31,4.33,3.64,4.58,7.34a26.7,26.7,0,0,1-.84,8.66C128.05,123.19,125.8,122.57,124.13,121.9Z"
                transform="translate(0 0)" fill="#e53935" opacity="0.7" />
            <path
                d="M126.94,119.06c11.14,2.82,20.06,3.88,25.5-1.5s11.5-16.18,13.5-23.43,2.56-9.19-10.25-8.63-20.5.69-32.19-1.44-17.62,1.88-19.06,7.82,1.5,11.56,6.06,16.31S120.1,117.33,126.94,119.06Z"
                transform="translate(0 0)" fill="#ffb300" opacity="0.7" />
            <path
                d="M51.13,50c2.2,3.29,4.58,0,9.41.75s8.79-1.54,6.25-4.91a9.46,9.46,0,0,0-10-4C52.5,42.63,48.75,46.5,51.13,50Z"
                transform="translate(0 0)" fill="#1e88e5" opacity="0.7" />
        </g>
    </g>
    <g id="frame">
        <rect id="frame-2" width="300" height="200" fill="none" />
    </g>
</svg>