<!-- Copyright (c) 2022 - 2023 Jan Stehno -->
<svg xmlns="http://www.w3.org/2000/svg" viewBox="0 0 300 200"><title>coyote_body</title><g id="coyote"><g id="body"><path d="M137.48,200H118.83a28.66,28.66,0,0,0,.17-9.42c-.79-5-3.25-18.33-3.92-28.5s-4.5-24.58-8.83-29.41-19.88-15-22.13-21.67-11-4.13-16.87-11-5.37-15-9.12-17.88-14.63-4-22.75-2.75S25.6,78.12,25,78.23s-2.71.93-4.49-.7-2.4-3.66-3.28-5-.84-2.22,1.75-3.44,5.83-5.25,9.46-7.45,6-4,6.71-7.21,7-10.25,9.16-11.71,5.84-3.29,5.84-3.29a17.66,17.66,0,0,1,0-7.59C51,28,54.08,21.25,54.63,18.54s1.79-5.67,3.29-2.25,2.08,4,2.33,6.92,5.58,9.29,6.83,11.16-.25,3,2.67,3.55a42.71,42.71,0,0,1,19.5,8.45c8.25,6.5,15.5,11.82,27.5,14.25s18.88,4.75,26.75,6.25,27.08-3.7,40.08-3.12,20.5,3.25,28.59,5.08S234.94,75,238.31,78.94s8.75,9.56,15.57,12.44S271,114.69,272,126.25s2,28.81,5.19,34.13,8.43,12.31,8.56,16-1.44,5.87-5.25,5.62-7.39-1.29-11.08-9c-1.92-4-6.08-8.25-14.25-13.58C241,150.17,245,124.13,245,124.13s-5,13.12-4.63,19.66a18.77,18.77,0,0,0,9.13,15.42l5.75,3.62s9.37,3,10.25,9.46,1.17,14.67,2.29,19.46a70.67,70.67,0,0,0,2.46,8.25H260.12s-.75-13.31-5-18-18.75-11.5-18.75-11.5-5.75,10.75-7.31,16.63A133.44,133.44,0,0,1,224.69,200H210.94s6.56-7.69,9.12-15.12,5.94-13.32-.69-20.07-17.87-20.06-22.31-26.43-10.5-11.44-16.81-11.07-12.69,10.32-23.13,9.38a187.79,187.79,0,0,0-23.62-.13s-2.75,7.77-.17,20.61,2.42,22.33,5.25,26.91,2.34,9.75.92,11.17S137.48,200,137.48,200Z" transform="translate(0 0)" fill="#ccc"/></g></g><g id="frame"><rect id="frame-2" width="300" height="200" fill="none"/></g></svg>