<svg xmlns="http://www.w3.org/2000/svg" viewBox="0 0 30 20"><path d="M16.05,11.68a2.1,2.1,0,0,0,1.58-1.35c.29-.74.55-1.68.24-2.06a.89.89,0,0,0-1.35.11c-.32.46-.79,1.24-1.1,1.71S14.69,12,16.05,11.68Z" transform="translate(0 0.02)" fill="#1e88e5" opacity="0.7"/><path d="M17.61,11.43c.77-.07,1.25-.09,1.27-.54s-.6-.81-.87-1.28-.13-1.33-.57-1.4-.65.89-1.07,1.45-1.31,1.58-.18,1.74A3.2,3.2,0,0,0,17.61,11.43Z" transform="translate(0 0.02)" fill="#1e88e5" opacity="0.7"/><path d="M19.52,11.19a.68.68,0,0,0,.81-.11c.14-.15.42-.13.56-.35s.56-.23.69-.51.1-.35.48-.21.53-.09.9.17.82.17.33-.28-1-.15-1.36-.55-.59-1.19-1.24-1.21a13.55,13.55,0,0,1-1.88-.25c-.57-.1-1.28.34-1.22.89s.69,1,.72,1.38.79.46.81.73S19.27,11.08,19.52,11.19Z" transform="translate(0 0.02)" fill="#1e88e5" opacity="0.7"/><path d="M12.41,12.17c-.41-.17-.58-.24-.63-.55s.05-.41,0-.75-.12-.55-.08-.64.19-.1.22,0,0,.67.06.7.08-.09.1-.3.06-.35,0-.4-.12-.11,0-.13.14.06.18,0,.1-.05.12,0,.12,0,.15.06-.09.29,0,.43.43.37.46.74a3.22,3.22,0,0,1-.08.86C12.81,12.29,12.58,12.23,12.41,12.17Z" transform="translate(0 0.02)" fill="#e53935" opacity="0.7"/><path d="M12.69,11.88c1.12.28,2,.39,2.55-.15a6.26,6.26,0,0,0,1.35-2.34c.2-.73.26-.92-1-.86a13.12,13.12,0,0,1-3.22-.15c-1.17-.21-1.76.19-1.91.78a1.77,1.77,0,0,0,.61,1.63A3.47,3.47,0,0,0,12.69,11.88Z" transform="translate(0 0.02)" fill="#ffb300" opacity="0.7"/><path d="M5.11,5c.22.33.46,0,.94.07s.88-.15.63-.49a1,1,0,0,0-1-.4C5.25,4.24,4.88,4.63,5.11,5Z" transform="translate(0 0.02)" fill="#1e88e5" opacity="0.7"/><rect width="30" height="20" fill="none"/></svg>