<svg xmlns="http://www.w3.org/2000/svg" viewBox="0 0 30 20"><path d="M20.89,13.43c.06.15.26.2.28,0a1.52,1.52,0,0,1,.14-.69.44.44,0,0,0,.06-.52,1.84,1.84,0,0,1-.32-.8,2,2,0,0,0-.62-1.12c-.22-.18-.52.05-.76.39a7.6,7.6,0,0,0-.71,1.4c-.19.5-.23.7-.06,1s.34.62.67.68a1.23,1.23,0,0,0,.94-.32c.2-.19.31-.53.33-.4A1.68,1.68,0,0,0,20.89,13.43Z" transform="translate(0 0.02)" fill="#1e88e5" opacity="0.7"/><path d="M17.63,12.23a.62.62,0,0,0,.93.32c.36-.24.38-.58.77-.8s.7-.56.69-.87-.11-.54-.11-.71-.21-.49-.79-.43S18,9.37,17.54,9.35s-.55.43-.69.79-.07.51,0,.64-.06.4.1.64S17.53,11.73,17.63,12.23Z" transform="translate(0 0.02)" fill="#1e88e5" opacity="0.7"/><path d="M17.17,8.92c-.05-.26.42-.33,1-.2s1.79.34,2,.67.59.69,0,.76a2.62,2.62,0,0,1-1.86-.34C17.84,9.41,17.25,9.38,17.17,8.92Z" transform="translate(0 0.02)" fill="#1e88e5" opacity="0.7"/><path d="M15.94,6.85a.74.74,0,0,0,0,.66c.11.2.11.39.31.5a.36.36,0,0,0,.58-.17c.12-.32.26-.48.05-.79S16.23,6.43,15.94,6.85Z" transform="translate(0 0.02)" fill="#e53935" opacity="0.7"/><path d="M16.06,5.87a1.73,1.73,0,0,0,0,.89c.05.19.24.15.42.54a3.21,3.21,0,0,1,.23,1.09.46.46,0,0,0,.35.45,2.54,2.54,0,0,0,1.15.3c.67,0,.88.13,1.24,0s.67-.25.44-.6-1-1.13-1.44-1.61A5.78,5.78,0,0,0,16.64,5.7C16.21,5.56,16.12,5.66,16.06,5.87Z" transform="translate(0 0.02)" fill="#ffb300" opacity="0.7"/><path d="M15.21,2.62c-.1.12-.13.21.15.28a.85.85,0,0,0,.69,0c.11-.1,0-.43,0-.5A.91.91,0,0,0,15.21,2.62Z" transform="translate(0 0.02)" fill="#1e88e5" opacity="0.7"/><path d="M6.18,11.63c0,.29.49.77.76,1s.21.48.57.56.31.31.62.19.31-.37.49-.52A1.38,1.38,0,0,0,9,12.21a1.81,1.81,0,0,0,0-1c-.1-.28-.29-.64-.61-.72s-.56-.44-.84-.43-.89.36-.95.66S6.16,11.39,6.18,11.63Z" transform="translate(0 0.02)" fill="#1e88e5" opacity="0.7"/><path d="M6.31,10c-.09.3-.33.6-.18.86s.16.23.38.59a1.1,1.1,0,0,0,.93.68,1.31,1.31,0,0,0,1.07-.63,3.27,3.27,0,0,0,.5-.87.82.82,0,0,0-.24-.91,1.75,1.75,0,0,0-.87-.51,1.25,1.25,0,0,0-.87,0A2.4,2.4,0,0,0,6.31,10Z" transform="translate(0 0.02)" fill="#1e88e5" opacity="0.7"/><path d="M6.19,9.64c.09.3,0,.41.49.43a2.84,2.84,0,0,0,1.46-.15c.34-.22.55-.24.39-.54s-.53-.8-.8-.88a1.11,1.11,0,0,0-.93.22C6.56,8.93,6.08,9.29,6.19,9.64Z" transform="translate(0 0.02)" fill="#1e88e5" opacity="0.7"/><path d="M6,8.9c0,.18.26.19.59.17s.56-.05.67-.2a1.72,1.72,0,0,0,.08-.94c0-.47,0-1,0-1.3a5,5,0,0,0-.06-1c-.06-.22-.09-.31-.25-.3s-.34.25-.4.44a2.1,2.1,0,0,0-.36.86A13.54,13.54,0,0,0,6,8.9Z" transform="translate(0 0.02)" fill="#ffb300" opacity="0.7"/><path d="M8.84,8.77c0,.19-.25.22-.58.22s-.56,0-.68-.16a1.78,1.78,0,0,1-.15-.93c0-.47,0-1-.07-1.3a5.3,5.3,0,0,1,0-1c.05-.22.07-.32.23-.32s.32.24.43.41a2.78,2.78,0,0,1,.53,1A11.85,11.85,0,0,1,8.84,8.77Z" transform="translate(0 0.02)" fill="#ffb300" opacity="0.7"/><path d="M7.35,6.3c.31,0,.56,0,.55.47s0,.92-.17,1.05-.36.15-.59-.1a.8.8,0,0,1-.24-.61C6.86,6.81,6.7,6.31,7.35,6.3Z" transform="translate(0 0.02)" fill="#e53935" opacity="0.7"/><path d="M7,2.47a.29.29,0,0,1,0-.35c.07-.13.18-.25.28-.25s.43.33.33.51A.37.37,0,0,1,7,2.47Z" transform="translate(0 0.02)" fill="#1e88e5" opacity="0.7"/><rect width="30" height="20" fill="none"/></svg>