<!-- Copyright (c) 2023 Jan Stehno -->
<svg xmlns="http://www.w3.org/2000/svg" viewBox="0 0 300 200">
    <title>easterngraykangaroo_organs</title>
    <g id="easterngraykangaroo">
        <g id="organs">
            <path
                d="M208.9,134.59c.58,1.45,2.59,1.94,2.77-.48s.3-5.06,1.43-6.82,1.84-3.16.56-5.24-1.87-2.47-3.12-8-3.94-9.42-6.2-11.2-5.24.53-7.63,3.93a74.72,74.72,0,0,0-7.09,14c-2,5-2.32,7-.67,10.14s3.45,6.26,6.75,6.79a12.12,12.12,0,0,0,9.38-3.13c2-2,3.13-5.36,3.31-4.06S208.42,133.4,208.9,134.59Z"
                fill="#1e88e5" opacity="0.7" />
            <path
                d="M176.34,122.5c.78,3.59,5.6,5.66,9.23,3.27s3.82-5.84,7.69-8,7.09-5.6,7-8.76-1.13-5.42-1.13-7.09-2.09-4.88-7.87-4.29-11.73-3.75-15.84-3.87-5.48,4.29-6.91,7.87-.72,5.06.29,6.43-.53,4,1,6.37S175.27,117.55,176.34,122.5Z"
                fill="#1e88e5" opacity="0.7" />
            <path
                d="M171.69,89.49c-.48-2.67,4.17-3.39,10.19-2.08S199.75,90.8,202,94.14s5.89,6.91,0,7.62-13.62.46-18.59-3.45S172.53,94.08,171.69,89.49Z"
                fill="#1e88e5" opacity="0.7" />
            <path
                d="M159.42,68.73c-1,1.51-.86,4.71.27,6.64s1.13,3.91,3.07,5,4.58,1.46,5.81-1.73,2.59-4.86.5-7.89S162.25,64.53,159.42,68.73Z"
                fill="#e53935" opacity="0.7" />
            <path
                d="M160.61,58.9a17.22,17.22,0,0,0-.44,8.94c.56,1.93,2.47,1.49,4.23,5.42a34.1,34.1,0,0,1,2.35,10.93c.12,2.09.71,3.43,3.48,4.5s4.71,2.65,11.44,2.92,8.79,1.34,12.42.21,6.73-2.51,4.41-6-9.95-11.29-14.37-16.12-13.4-11.08-17.74-12.46S161.2,56.84,160.61,58.9Z"
                fill="#ffb300" opacity="0.7" />
            <path
                d="M152.12,26.45c-1,1.23-1.28,2.05,1.49,2.81s5.81.54,6.88-.44.36-4.27-.29-4.94S154.22,23.79,152.12,26.45Z"
                fill="#1e88e5" opacity="0.7" />
            <path
                d="M61.79,116.51c.29,3,4.92,7.73,7.57,10s2.19,4.8,5.69,5.64,3.12,3.11,6.28,1.87,3.1-3.62,4.85-5.2,2.54-3.61,3.39-6.49,1.47-6.55.51-9.43-2.88-6.49-6.1-7.22-5.53-4.41-8.41-4.29-8.86,3.61-9.43,6.54S61.57,114.13,61.79,116.51Z"
                fill="#1e88e5" opacity="0.7" />
            <path
                d="M63.15,100c-1,3.06-3.39,6-1.86,8.58s1.58,2.32,3.78,6,4.68,6.66,9.37,6.77,8.58-3.1,10.67-6.27,4.23-5.81,5-8.75,1-6-2.37-9.14S82,92.79,79,92.12s-6.27-1.7-8.64-.29S63.77,98,63.15,100Z"
                fill="#1e88e5" opacity="0.7" />
            <path
                d="M61.91,96.69c.93,3,0,4.06,4.92,4.29s11.22.56,14.61-1.58,5.42-2.32,3.84-5.31S80,86,77.32,85.23A11.24,11.24,0,0,0,68,87.43C65.58,89.52,60.79,93.19,61.91,96.69Z"
                fill="#1e88e5" opacity="0.7" />
            <path
                d="M59.71,89.21c.45,1.84,2.62,2,5.9,1.75s5.61-.48,6.69-2,1.1-4.79.84-9.45-.25-10.16-.21-13,0-8.34-.63-10.5-.85-3.09-2.55-3-3.34,2.54-3.93,4.44-2.88,3.09-3.64,8.64S58.93,86,59.71,89.21Z"
                fill="#ffb300" opacity="0.7" />
            <path
                d="M88.38,88c-.33,1.87-2.49,2.15-5.77,2.15S77,90,75.8,88.56s-1.43-4.69-1.5-9.36-.45-10.15-.69-13S73,57.9,73.52,55.7s.63-3.14,2.33-3.17S79,55,80.08,56.69c1.15,1.86,4.17,4.77,5.31,10.25S88.93,84.72,88.38,88Z"
                fill="#ffb300" opacity="0.7" />
            <path
                d="M73.52,63.25c3.1-.06,5.55.26,5.51,4.66s0,9.27-1.74,10.55S73.69,80,71.41,77.4s-2-3.11-2.42-6.09S67,63.38,73.52,63.25Z"
                fill="#e53935" opacity="0.7" />
            <path
                d="M70,24.9a2.87,2.87,0,0,1-.33-3.5c.76-1.23,1.87-2.5,2.81-2.48s4.32,3.28,3.31,5.13S71.48,26.89,70,24.9Z"
                fill="#1e88e5" opacity="0.7" />
        </g>
    </g>
    <g id="frame">
        <rect width="300" height="200" fill="none" />
    </g>
</svg>