<svg xmlns="http://www.w3.org/2000/svg" viewBox="0 0 30 20"><path d="M29.62,19.08a1,1,0,0,1,0-.55s0-.16,0-.18l0-.34a.71.71,0,0,1,0-.43.06.06,0,0,0-.05-.06c-.61-.06-1.29-.1-2.1-.13-1.73-.07-2-.28-2.52-1.16a11,11,0,0,1-1.06-3.36,20.09,20.09,0,0,0-1.32-3.53c-.35-.75-1.82-1.45-2.54-1.91a4,4,0,0,1-1.18-1.62,5.76,5.76,0,0,0-1-1.07c-.21-.14-.06-.34-.11-.65A2.12,2.12,0,0,0,17.39,3a2,2,0,0,0-.63-.59L17.13,2c.18-.17.28-.33.29-.84S17.3.39,17.09.32s-.52.19-.74.4a1,1,0,0,0-.26.56H16c-.07,0-.12,0-.24.29a.49.49,0,0,0-.07.39,1.39,1.39,0,0,0-.53.12c-.25.13-.38,0-.55.23a1.45,1.45,0,0,1-.46.39c-.16.07-.2.18-.41.22s-.33.24-.49.35-.09.3,0,.53.13.19.29.34a.64.64,0,0,0,.55.18,1.35,1.35,0,0,1,.72,0,2,2,0,0,0,.64.11V4.5a3,3,0,0,0-.23.24.86.86,0,0,0,0,.69,3,3,0,0,1,0,1.4,1.25,1.25,0,0,0,.21,1.28c.29.25.24.37.38.92a8.25,8.25,0,0,0,.37,1.12s-.25.32-.25.46-.08.22-.24.35,0,.21-.17.34a.8.8,0,0,0-.1.59c0,.18.18.31.45.36s.05-.11.17-.05a.84.84,0,0,0,.24.08,2,2,0,0,0,0,.51,10.43,10.43,0,0,0,.92,1.88,12.45,12.45,0,0,1,.74,2.82,4.93,4.93,0,0,0-.74,0,7.91,7.91,0,0,1-.85,0,2.48,2.48,0,0,0-.66.19,1.63,1.63,0,0,1-.72,0c-.2,0-.3,0-.32.06l0,.13a.61.61,0,0,0-.17.2c0,.09,0,.12.11.1l.09-.07a.31.31,0,0,0,.05.07,1.28,1.28,0,0,0,.32.12.73.73,0,0,0,.36,0v0s.1,0,.14,0,.05,0,.13,0a.28.28,0,0,1,.21,0,1.18,1.18,0,0,0,.56,0c.28,0,.36-.08.77-.13a3.44,3.44,0,0,1,.92,0,.38.38,0,0,1,.06.14,1,1,0,0,1,0,.19,5.59,5.59,0,0,0-.79,0c-.5,0-.54.12-.76.11a1.39,1.39,0,0,0-.61.06c-.2.07-.2.17-.31.17a2.29,2.29,0,0,0-.47.08,4,4,0,0,1-.74.08c-.26,0-.28.08-.34.16a.12.12,0,0,0,0,.14,3,3,0,0,0-.25.2c-.08.08-.09.16.06.17s.16,0,.21-.06.13,0,.13,0a.6.6,0,0,0,.34.15,1.19,1.19,0,0,0,.35,0,.17.17,0,0,1,0,.08s.16,0,.21,0a.16.16,0,0,1,.1-.07l.1.05s.1,0,.43,0,.51,0,.61-.09.3-.16,1-.16a10.45,10.45,0,0,1,1.56.16c.68.07,1.2.13,1.28-.33a4.34,4.34,0,0,0-.45-1.93,12.71,12.71,0,0,1-.46-2.32s.5-.07,1.18-.22a4,4,0,0,0,1-.35,15.9,15.9,0,0,0,1.33,2.91,4.06,4.06,0,0,0,2.53,1.87,8.6,8.6,0,0,0,3.16,0l1.13-.12a0,0,0,0,0,0,0v-.14A.43.43,0,0,1,29.62,19.08Z" transform="translate(0 0.02)" fill="#ccc"/><path d="M6.22,4.26s0-.71,0-.89a4,4,0,0,0,0-.7c0-.19-.13-.31-.13-.45s-.19-.34-.22-.57A6.17,6.17,0,0,0,5.64.86c-.08-.25-.08-.4,0-.36s.31.1.53.2a1.34,1.34,0,0,1,.51.6A1.09,1.09,0,0,0,7,1.65h.52l.55-.8c.22-.29.31-.18.6-.34S9,.3,9,.55s-.25.54-.35.93a5.91,5.91,0,0,0-.22.73,1.65,1.65,0,0,1-.09.41,3.16,3.16,0,0,0,.2.76,4,4,0,0,1,.06.87v0c0,.34.5.63.76.85A2.1,2.1,0,0,1,9.9,6.33c0,.32.06,1.45.08,2a1.57,1.57,0,0,1-.25.94,1.92,1.92,0,0,1,.68.75A3.77,3.77,0,0,1,10.55,12a12.88,12.88,0,0,0-.2,2.7c.08.65-.07,1.5,0,2s.17,1.05.19,1.33,0,.41.16.56.45.25.6.38.1.19.15.29,0,.17,0,.17,0,0,0,.09,0,.15-.06.12,0,.08-.12.14-.07.06-.11.15-.16,0-.21-.09-.11,0-.26,0a.6.6,0,0,1-.3-.22c-.06-.07-.18-.1-.22,0s-.07,0-.08,0-.09-.08-.12-.22a2,2,0,0,1-.12-.46c0-.13-.24-.16-.34-.24s-.2-.29-.19-.89a10.68,10.68,0,0,0,0-1.56c-.07-.79-.13-2-.13-2l-.16.12s-.47,2.24-.7,2.87A1,1,0,0,1,7,17.75c-.5-.09-.59-.45-.69-.83a10.34,10.34,0,0,1,.13-1.62,2.75,2.75,0,0,0-.12-1,.61.61,0,0,1-.21,0l-.12,0a1.39,1.39,0,0,0-.06.58c0,.41-.05,1.16-.09,2a11.74,11.74,0,0,1,0,1.41c-.09.31-.26.36-.39.36a.14.14,0,0,0-.14.2.39.39,0,0,1-.1.35,2.23,2.23,0,0,0-.15.34c-.06.11-.13.13-.13.07s0-.07-.09,0-.2,0-.2,0a.68.68,0,0,1-.09.12.41.41,0,0,1-.32.13.27.27,0,0,0-.23.08.14.14,0,0,1-.2,0c0-.05,0-.18,0-.18a.18.18,0,0,1-.16-.12c-.05-.13,0-.18,0-.18a.25.25,0,0,1,0-.24,1.26,1.26,0,0,1,.58-.52c.31-.14.26-.24.4-.85a7.77,7.77,0,0,0,0-2.38,22.51,22.51,0,0,0,0-2.34,6.13,6.13,0,0,1-.21-2.45C4.6,9.71,5,9.51,5,9.51a3.52,3.52,0,0,1-.34-.78,4.21,4.21,0,0,1,0-1.45,5.17,5.17,0,0,0,0-1,2.06,2.06,0,0,1,.73-1.09c.25-.21.78-.48.77-.86Z" transform="translate(0 0.02)" fill="#ccc"/><rect width="30" height="20" fill="none"/></svg>