<!-- Copyright (c) 2023 Jan Stehno -->
<svg xmlns="http://www.w3.org/2000/svg" viewBox="0 0 300 200">
    <title>easterngraykangaroo_body</title>
    <g id="easterngraykangaroo">
        <g id="body">
            <path
                d="M296.22,191.06c-.38-.65-.7-4.42-.14-5.49.07-.15,0-1.67.11-1.86l.19-3.39a7.15,7.15,0,0,1-.1-4.26.51.51,0,0,0-.44-.6c-6.18-.65-12.89-1.05-21-1.34-17.25-.63-19.75-2.77-25.2-11.53S241.54,140.7,239,129s-9.65-28-13.13-35.39-18.23-14.47-25.38-19S190.7,61.66,188.6,58.35s-7.55-9.29-9.61-10.68-.62-3.44-1.07-6.48-.89-6.57-4-10.81a20.87,20.87,0,0,0-6.3-5.94s1.83-2,3.64-3.76,2.84-3.37,2.89-8.46S173,4.11,170.86,3.44s-5.16,1.9-7.4,4a9.94,9.94,0,0,0-2.56,5.62,3.7,3.7,0,0,0-.91,0c-.7,0-1.15.31-2.4,2.84s-.73,3.91-.73,3.91a13.89,13.89,0,0,0-5.24,1.28c-2.48,1.23-3.77.47-5.51,2.25s-2.93,3.24-4.56,3.91-2,1.75-4.16,2.21-3.3,2.35-4.87,3.49-.93,3-.18,5.29,1.23,1.86,2.86,3.44a6.48,6.48,0,0,0,5.46,1.75c1.94-.18,4.75-1.12,7.28,0a20.46,20.46,0,0,0,6.34,1.19l0,.67a25.19,25.19,0,0,0-2.37,2.37c-.89,1.07-1.21,3.48-.4,6.88a30.15,30.15,0,0,1-.14,14c-1.38,6-.76,10.27,2.1,12.78s2.42,3.7,3.76,9.2a94.8,94.8,0,0,0,3.66,11.24s-2.41,3.16-2.47,4.56-.75,2.18-2.41,3.55-.51,2-1.67,3.42-1.25,4.08-1,5.87,1.84,3.13,4.52,3.63.54-1.16,1.67-.56a10.75,10.75,0,0,0,2.41.86,27.16,27.16,0,0,0,.42,5c.54,4.2,4.47,8.81,9.23,18.82s7.37,28.22,7.37,28.22a45.08,45.08,0,0,0-7.42.41c-3.08.53-5.11-.05-8.42.18s-4.22,1.36-6.59,2a17.91,17.91,0,0,1-7.26.31c-1.94-.4-3,.05-3.2.63s-.46,1.36-.46,1.36a6.35,6.35,0,0,0-1.77,2c-.31.87.56,1.2,1.12,1a3.8,3.8,0,0,0,1-.63s.2.32.42.61,1.23.67,3.22,1.2a7.42,7.42,0,0,0,3.6.09l0,.29c0,.29.94.14,1.39-.06s.51.2,1.29,0,1.16-.07,2.06.36,2.77.53,5.63.15,3.64-.84,7.7-1.38a36.5,36.5,0,0,1,9.16.33,3.41,3.41,0,0,1,.61,1.41,6.85,6.85,0,0,1-.29,1.88,52,52,0,0,0-7.89-.25c-5,.16-5.41,1.22-7.6,1a13.93,13.93,0,0,0-6.07.66c-2,.72-2,1.72-3.06,1.72a22.12,22.12,0,0,0-4.76.76,33.52,33.52,0,0,1-7.42.76c-2.52,0-2.79.87-3.33,1.59a1.25,1.25,0,0,0,.06,1.46,24.85,24.85,0,0,0-2.54,2c-.76.78-.82,1.54.66,1.64s1.58-.09,2-.58a1.7,1.7,0,0,1,1.38-.31,5.5,5.5,0,0,0,3.36,1.49,11.78,11.78,0,0,0,3.54-.24,7.47,7.47,0,0,1,0,.76c0,.48,1.59.36,2-.28a1.69,1.69,0,0,1,1.06-.72,3.53,3.53,0,0,0,.94.51c.5.16,1.07.09,4.33-.09s5.09.22,6.12-.9,3-1.56,9.61-1.56,8.74.73,15.53,1.51,12,1.31,12.87-3.22-1.31-10.13-4.53-19.36-4.66-23.21-4.66-23.21,5.09-.62,11.89-2.14a39.5,39.5,0,0,0,10.29-3.55s6,17.82,13.22,29.13,15.67,16,25.32,18.7,20.69,1.16,31.63,0c4.72-.49,8-.91,11.3-1.21a.3.3,0,0,0,.27-.27v-1.41C296.27,191.51,296.24,191.1,296.22,191.06Z"
                fill="#ccc" />
            <path
                d="M62.18,42.85s-.27-7.14-.11-8.92.86-5.11.56-7-1.3-3.12-1.36-4.45S59.38,19,59.08,16.75s-1.92-5.41-2.7-7.91-.78-4,.16-3.6,3,1,5.25,2,4.22,4,5.12,6a10.25,10.25,0,0,0,3.29,3.49s1.12-.12,2.82-.12a14.44,14.44,0,0,1,2.33.12s3.44-5,5.57-7.94S84,7,86.94,5.33s3-2.05,3,.43-2.45,5.35-3.44,9.32-2.34,5.83-2.21,7.25-.74,3-.93,4.1,1.17,4.82,2,7.62.62,8.73.62,8.73v.51c0,3.32,5.06,6.3,7.62,8.46S99,60.42,99,63.57s.67,14.51.83,20.3a15.79,15.79,0,0,1-2.51,9.35s5.09,3.23,6.79,7.49,2.77,11.45,1.44,19.18-2.76,20.45-2,27-.68,14.94-.4,20,1.68,10.55,1.92,13.27.28,4.17,1.56,5.63,4.47,2.56,6,3.84,1,1.89,1.48,2.91-.08,1.66-.34,1.64-.22.38,0,1-.34,1.42-.56,1.14-.32.8-1.22,1.42-.68.64-1.1,1.5-1.61-.2-2.15-.94-1,.06-2.54-.28a5.64,5.64,0,0,1-3-2.18c-.6-.72-1.84-1-2.2-.2s-.74.26-.8-.28-.87-.84-1.19-2.2-1.28-3.27-1.26-4.59-2.34-1.66-3.4-2.46-2-2.82-1.86-8.9A106.71,106.71,0,0,0,92,161.5c-.69-7.88-1.31-19.85-1.31-19.85l-1.63,1.2s-4.72,22.42-7,28.65-7.35,7-12.39,6.2-5.87-4.44-6.91-8.27,1.2-9,1.28-16.19S62.91,143,62.91,143a7.68,7.68,0,0,1-2.12.08,4.09,4.09,0,0,1-1.23-.2s-.76,1.76-.56,5.8-.48,11.55-.88,20.14.5,11-.34,14.1-2.54,3.62-3.9,3.62a1.41,1.41,0,0,0-1.4,2c.3.82.12,2-.94,3.53s-.94,2.16-1.52,3.34-1.29,1.32-1.35.78-.42-.74-.86-.4a5,5,0,0,1-2,.34,6.68,6.68,0,0,1-1,1.26,4.31,4.31,0,0,1-3.16,1.24,2.62,2.62,0,0,0-2.33.86,1.39,1.39,0,0,1-2,.18c-.38-.5.16-1.82.16-1.82A1.78,1.78,0,0,1,36,196.62a1.42,1.42,0,0,1,.26-1.78,2.48,2.48,0,0,1-.18-2.4,12.81,12.81,0,0,1,5.81-5.19c3.12-1.4,2.54-2.36,4-8.51s1.52-15.83.48-23.82,2.16-14.14.24-23.41-3.52-14.79-2.08-24.46,5.39-11.71,5.39-11.71a35.48,35.48,0,0,1-3.39-7.75c-.8-3.36-.52-10.39.4-14.55s0-6.55.24-10.31S52,53.9,54.52,51.83s7.79-4.8,7.67-8.54Z"
                fill="#ccc" />
        </g>
    </g>
    <g id="frame">
        <rect width="300" height="200" fill="none" />
    </g>
</svg>