<!-- Copyright (c) 2023 Jan Stehno -->
<svg xmlns="http://www.w3.org/2000/svg" viewBox="0 0 300 200">
    <title>eurasianlynx_organs</title>
    <g id="eurasianlynx">
        <g id="organs">
            <path
                d="M146.75,103c2.65-.67,2.47-10.53,4.94-19.61s3.23-23.51,4.89-28.17S151,48.83,146.17,60.5s-11.25,23.75-8.25,31.83S143,103.9,146.75,103Z"
                transform="translate(0 0)" fill="#1e88e5" opacity="0.7" />
            <path
                d="M166.08,98.33c9.7-4.7,14.92-8.91,14.75-15s-4.58-9.41-8.41-17.08S169,54.12,163.58,53.43,153.17,67,149.25,72,141,82.25,142.5,89.42,149.58,106.33,166.08,98.33Z"
                transform="translate(0 0)" fill="#1e88e5" opacity="0.7" />
            <path
                d="M185.56,85.56c3-1.22,5.94,1,9.38-1.12s7.5.87,12.56-3,8.25-2.44,10.88-6.25,1.93-6.25,6.87-4.63,8.19,2.75,10.75,4.63,5.5-1-.44-5.14-9.43-3.67-12.5-6.67-2.75-6.94-8.25-10-7-4.1-16.5-4.1-16,1.38-21.43.94-8.82,3.25-12.32,8.56-3.43,5.69-1.06,12.38,6.19,4.75,8.19,8.81,5.75,2.63,7.56,4.81S184.19,86.13,185.56,85.56Z"
                transform="translate(0 0)" fill="#1e88e5" opacity="0.7" />
            <path
                d="M125,105.45c-5.79-.38-8.29-.57-9.68-2.52s-.33-2.83-1.7-5.08-2.92-3.47-2.56-4.14a2.5,2.5,0,0,1,2.86-.47c.66.52,1.73,4.5,2.44,4.6s.82-.74.58-2.17-.05-2.5-.85-2.74-1.77-.51-.73-.77,2.06.09,2.44-.34a1.23,1.23,0,0,1,1.51-.24c.4.27,1.57-.19,2.21.14s-.59,2.11.36,3,6.56,1.67,7.81,4.11a9.94,9.94,0,0,1,1,6C130.42,105.61,127.31,105.6,125,105.45Z"
                transform="translate(0 0)" fill="#e53935" opacity="0.7" />
            <path
                d="M124.5,102.94c14.64.14,25.31-1,26.25-10.38s2.31-20.18,1.63-29.25S152.06,50.5,137.5,56a129,129,0,0,0-32.31,17.31C97.56,79,94.13,83.81,94.13,89.06S104.94,102.75,124.5,102.94Z"
                transform="translate(0 0)" fill="#ffb300" opacity="0.7" />
            <path
                d="M42.46,53.63c3-.06,7.46,1.37,7.87-2.55s-3-7.29-8.12-6.33-8.08,3.46-7.08,6.88S40.58,53.66,42.46,53.63Z"
                transform="translate(0 0)" fill="#1e88e5" opacity="0.7" />
        </g>
    </g>
    <g id="frame">
        <rect id="frame-2" width="300" height="200" fill="none" />
    </g>
</svg>