<svg xmlns="http://www.w3.org/2000/svg" viewBox="0 0 30 20"><path d="M22.51,20c-1.13,0-1.26-.25-1.3-.42a2.27,2.27,0,0,1-.05-.34,1.24,1.24,0,0,1-.93-.14c-.35-.27-.45-.6.05-.9s.91-.22,1.11-.52a6,6,0,0,0,.72-1.79c0-.38-.46-.74-1.13-1.24a13.8,13.8,0,0,0-1.73-1.4A3.15,3.15,0,0,1,18,11.94a4.57,4.57,0,0,1-.22-.76s-.3.46-1.36.51-.84.43-1.64.49a1.87,1.87,0,0,0-1,.23A13.62,13.62,0,0,1,14,14.7a8.85,8.85,0,0,0,.19,1.84c0,.18-.46.36-.47,1s.11,1.51-.52,1.75-1.06,0-1.62.15a.7.7,0,0,1-1-.6c0-.4.66-.64,1-.7s.46-1,.5-1.37-.77-3.65-.77-3.65a26.3,26.3,0,0,0-1.22,3.05c-.19.84-.39,1.27-.39,1.54s-.18.18-.45.34a2.18,2.18,0,0,0-.79,1.12c0,.36,0,.77-1.43.77s-1.65-.2-1.53-.77.81-.39,1.24-.82A5.61,5.61,0,0,0,7.94,16c.11-.72.61-2.7.31-3.25a14,14,0,0,1-1.38-2.71A2.35,2.35,0,0,0,5.2,8.53a3.21,3.21,0,0,0-1.82-.35.77.77,0,0,1-.74,0,.89.89,0,0,1-.25-.34s-.49,0-.58-.22-.11-.3-.25-.4a.28.28,0,0,1-.11-.41,3.51,3.51,0,0,0,.63-1.15c.11-.53.7-.85.85-1a2.64,2.64,0,0,1,.51-.42,2.08,2.08,0,0,0,0-.7,1.58,1.58,0,0,0-.24-.83c-.21-.35-.15-.35.27.08s.38.45.56.54.43.48.6.56A9.38,9.38,0,0,1,5.74,4a13.82,13.82,0,0,0,1.77.4A12.17,12.17,0,0,1,9.17,4a14,14,0,0,1,1.77.38,9,9,0,0,0,2.93-.7,22.36,22.36,0,0,1,5.93-.54,6.2,6.2,0,0,1,2.56.53,8.44,8.44,0,0,1,2.17,1.23,17,17,0,0,1,1.75,1.67c.3.46.43.9,1,.63s.34-.68.48-.92,1-.68,1.26.13a1.49,1.49,0,0,1-.84,1.87,2.64,2.64,0,0,1-2.09.24,5.42,5.42,0,0,1-1.2-1,10,10,0,0,1-1,2.57c-.57.86-.85,1.15-.85,1.73s1.36,1.7,1.77,2.12a1.68,1.68,0,0,1,.67,1.61c0,1-.58,1.44-.67,2a4.3,4.3,0,0,1-.73,2C23.73,19.93,23.5,20,22.51,20Z" transform="translate(0 0.02)" fill="#ccc"/><rect width="30" height="20" fill="none"/></svg>