<svg xmlns="http://www.w3.org/2000/svg" viewBox="0 0 30 20"><path d="M14.68,10.27c.26-.07.24-1,.49-2s.32-2.35.49-2.82-.56-.63-1,.54-1.13,2.37-.83,3.18S14.3,10.37,14.68,10.27Z" transform="translate(0 0.02)" fill="#1e88e5" opacity="0.7"/><path d="M16.61,9.81c1-.47,1.49-.89,1.47-1.5s-.46-.94-.84-1.71-.34-1.21-.88-1.28-1,1.36-1.43,1.86a2.07,2.07,0,0,0-.68,1.74C14.4,9.63,15,10.61,16.61,9.81Z" transform="translate(0 0.02)" fill="#1e88e5" opacity="0.7"/><path d="M18.56,8.53c.29-.12.59.1.93-.11s.75.09,1.26-.3.82-.24,1.09-.63.19-.62.68-.46a4,4,0,0,1,1.08.46c.26.19.55-.09,0-.51s-.95-.37-1.25-.67-.28-.69-.83-1a2.46,2.46,0,0,0-1.65-.41c-.95,0-1.6.13-2.14.09s-.88.33-1.23.86-.35.57-.11,1.23.62.48.82.89.57.26.76.48A.54.54,0,0,0,18.56,8.53Z" transform="translate(0 0.02)" fill="#1e88e5" opacity="0.7"/><path d="M12.5,10.52c-.58,0-.83-.06-1-.25s0-.28-.17-.51-.29-.35-.26-.41a.26.26,0,0,1,.29,0c.06,0,.17.45.24.46s.08-.07.06-.22,0-.25-.08-.27-.18,0-.08-.08.21,0,.25,0a.12.12,0,0,1,.15,0s.15,0,.22,0-.06.21,0,.3.66.16.78.41a1,1,0,0,1,.11.6C13,10.54,12.73,10.54,12.5,10.52Z" transform="translate(0 0.02)" fill="#e53935" opacity="0.7"/><path d="M12.45,10.27c1.46,0,2.53-.1,2.62-1a17.07,17.07,0,0,0,.17-2.92c-.07-.91,0-1.28-1.49-.73a12.72,12.72,0,0,0-3.23,1.73c-.76.57-1.11,1-1.11,1.57S10.49,10.25,12.45,10.27Z" transform="translate(0 0.02)" fill="#ffb300" opacity="0.7"/><path d="M4.25,5.34c.3,0,.74.14.78-.26a.62.62,0,0,0-.81-.63c-.51.1-.81.35-.71.69S4.06,5.34,4.25,5.34Z" transform="translate(0 0.02)" fill="#1e88e5" opacity="0.7"/><rect width="30" height="20" fill="none"/></svg>