<!-- Copyright (c) 2023 Jan Stehno -->
<svg xmlns="http://www.w3.org/2000/svg" viewBox="0 0 300 200">
    <title>eurasianlynx_body</title>
    <g id="eurasianlynx">
        <g id="body">
            <path
                d="M225.15,200c-11.38,0-12.69-2.44-13.06-4.12a21.28,21.28,0,0,1-.44-3.44s-5.88,1.37-9.38-1.38-4.5-6,.57-9.06,9.06-2.12,11.06-5.19,7.25-14.12,7.25-17.87-4.69-7.44-11.38-12.38-12.25-12-17.25-14.06-11-9.87-12.25-12.87a50.57,50.57,0,0,1-2.18-7.57s-2.94,4.63-13.63,5.13-8.37,4.25-16.31,4.87-9.81,2.25-9.81,2.25a145.4,145.4,0,0,1,1.77,22.94c-.25,10.67,1.9,16.67,1.9,18.42s-4.65,3.58-4.74,10.41,1.13,15.11-5.12,17.48-10.63.06-16.25,1.5-9.44-2.06-9.56-6.06,6.56-6.38,9.93-6.94,4.63-9.69,5-13.75-7.62-36.5-7.62-36.5S103.34,154,101.4,162.37,97.52,175,97.52,177.75s-1.81,1.81-4.5,3.44-7.43,7.5-7.93,11.12S84.77,200,70.84,200s-16.57-2-15.32-7.63,8.13-3.93,12.38-8.18,10.46-16.52,11.54-23.69,6.08-26.92,3.08-32.42-12.08-19.33-13.83-27.16S59.94,88.42,52,85.58,37.27,80.42,33.77,82s-5.75,1.25-7.33.25a8.05,8.05,0,0,1-2.5-3.42s-5,0-5.79-2.21-1.19-3-2.56-3.93-2.19-2.41-1.13-4.13S19.74,62.28,20.84,57s6.93-8.5,8.43-10.37a27.05,27.05,0,0,1,5.1-4.19,20.3,20.3,0,0,0,.15-7.06c-.59-3.94-.33-4.83-2.41-8.31s-1.48-3.45,2.71.82,3.75,4.54,5.56,5.41,4.33,4.82,6.06,5.57,2.63-.57,10.92,1.14,14,4.13,17.75,4,10.08-3.79,16.62-3.67,13.42,3.3,17.63,3.8,16.16-2.17,29.35-7.05,48-6,59.31-5.37,19.32,2,25.57,5.31,16.12,6.5,21.75,12.25,14.43,12,17.43,16.69,4.38,9.06,9.94,6.31,3.44-6.81,4.81-9.12,10.38-6.88,12.63,1.25-.69,14.62-8.44,18.69-16.06,4.56-20.87,2.37-12-10.25-12-10.25-4.07,17.08-9.82,25.67-8.5,11.5-8.5,17.33,13.59,17,17.67,21.17,7.08,6.33,6.67,16.16-5.75,14.34-6.67,20.5-3.58,16.42-7.25,19.92S235,200,225.15,200Z"
                transform="translate(0 0)" fill="#ccc" />
        </g>
    </g>
    <g id="frame">
        <rect id="frame-2" width="300" height="200" fill="none" />
    </g>
</svg>