<svg xmlns="http://www.w3.org/2000/svg" viewBox="0 0 30 20"><path d="M17.51,11.33A14.71,14.71,0,0,0,17.88,9c.14-.61.15-1.43-.37-1.57s-1.54.95-1.88,2-.32,2.82.25,3.12S17.27,11.92,17.51,11.33Z" transform="translate(0 0.02)" fill="#1e88e5" opacity="0.7"/><path d="M18.33,12.13c.58-.21,1-.46.65-1.35s-.3-1.85-.65-2.59-1.07-1.15-1.49,0-.33,1.9-.74,2.81S16,13,18.33,12.13Z" transform="translate(0 0.02)" fill="#1e88e5" opacity="0.7"/><path d="M20.27,11.43a1.24,1.24,0,0,0,1.22-.68c.1-.34.63-.44.68-.86s.33-.51.67-.5,1.37.14,1-.25-.92,0-1.37-.33-.63-.77-1.22-.93a4.51,4.51,0,0,0-1.7-.29c-.56.07-1.19-.21-1.21.34a12.35,12.35,0,0,0,.34,1.85c.11.61.13,1.16.59,1.25S19.52,11.39,20.27,11.43Z" transform="translate(0 0.02)" fill="#1e88e5" opacity="0.7"/><path d="M11.61,12.17c-.56-.18-.81-.27-.9-.62s0-.47,0-.87-.21-.63-.15-.73.24-.12.29,0,.06.78.13.81.1-.11.11-.34.06-.42,0-.47-.17-.12-.06-.15.21.06.26,0,.12-.06.15,0,.16,0,.22.07-.12.34,0,.5.61.42.67.84a2.52,2.52,0,0,1-.06,1C12.15,12.31,11.84,12.24,11.61,12.17Z" transform="translate(0 0.02)" fill="#e53935" opacity="0.7"/><path d="M14.21,12.83c1.83-.08,2.69-.24,3.05-1.37s.88-3.3.3-3.93a4,4,0,0,0-3-.9c-1.39,0-3.37-.08-4,.63a4.41,4.41,0,0,0-.58,3.59C10.35,11.75,11.85,12.93,14.21,12.83Z" transform="translate(0 0.02)" fill="#ffb300" opacity="0.7"/><path d="M5,6.78c.44,0,1.07,0,.93-.49s-.81-.52-1.23-.47-1.27.33-.87.68A1.45,1.45,0,0,0,5,6.78Z" transform="translate(0 0.02)" fill="#1e88e5" opacity="0.7"/><rect width="30" height="20" fill="none"/></svg>