<!-- Copyright (c) 2023 Jan Stehno -->
<svg xmlns="http://www.w3.org/2000/svg" viewBox="0 0 300 200">
    <title>europeanbison_organs</title>
    <g id="europeanbison">
        <g id="organs">
            <path
                d="M175.08,113.58c2.6-6.27,2.42-17.33,3.75-23.5s1.5-14.33-3.75-15.75S159.75,83.83,156.33,94s-3.25,28.21,2.5,31.21S172.67,119.42,175.08,113.58Z"
                transform="translate(0 0)" fill="#1e88e5" opacity="0.7" />
            <path
                d="M183.33,121.5c5.75-2.08,10.25-4.58,6.5-13.42s-3.08-18.5-6.5-25.91-10.75-11.5-14.91.41-3.34,19-7.42,28.09S159.67,130.08,183.33,121.5Z"
                transform="translate(0 0)" fill="#1e88e5" opacity="0.7" />
            <path
                d="M202.75,114.58c5.74.32,11.13-3.39,12.13-6.83s6.37-4.37,6.81-8.62,3.31-5.07,6.69-4.94,13.75,1.37,10.18-2.5-9.12-.25-13.68-3.31-6.25-7.69-12.13-9.38-11.5-3.44-17.06-2.81-11.94-2.13-12.06,3.37S186,91.84,187,98s1.27,11.61,5.9,12.48S195.19,114.17,202.75,114.58Z"
                transform="translate(0 0)" fill="#1e88e5" opacity="0.7" />
            <path
                d="M116.11,121.94c-5.66-1.85-8.09-2.69-9-6.17s.4-4.73-.38-8.71-2-6.3-1.49-7.32,2.46-1.18,3-.18.56,7.75,1.23,8.07,1-1,1.14-3.43.59-4.12-.14-4.68-1.63-1.22-.53-1.43,2,.6,2.52,0A.91.91,0,0,1,114,98c.32.54,1.61,0,2.15.7s-1.13,3.33-.41,5,6.09,4.13,6.7,8.4a26.34,26.34,0,0,1-.52,10C121.48,123.36,118.4,122.69,116.11,121.94Z"
                transform="translate(0 0)" fill="#e53935" opacity="0.7" />
            <path
                d="M142.13,128.5c18.25-.77,26.87-2.37,30.5-13.62s8.75-33.07,3-39.29S159,66,145.13,66.5s-33.75-.75-39.88,6.38-10,26.87-5.87,35.87S118.5,129.5,142.13,128.5Z"
                transform="translate(0 0)" fill="#ffb300" opacity="0.7" />
            <path
                d="M50.44,68.06c4.38,0,10.69-.12,9.25-4.87s-8.13-5.25-12.25-4.75-12.75,3.31-8.75,6.81S46.52,68.11,50.44,68.06Z"
                transform="translate(0 0)" fill="#1e88e5" opacity="0.7" />
        </g>
    </g>
    <g id="frame">
        <rect id="frame-2" width="300" height="200" fill="none" />
    </g>
</svg>