<svg xmlns="http://www.w3.org/2000/svg" viewBox="0 0 30 20"><path d="M12.15,20c.75,0,.67-.06.79-.3s.16-.38.5-.37.63-.14.67-.34.08-.38.16-.27.14,0,.13-.4a6.18,6.18,0,0,1,.36-2c.22-.51.08-.85.18-1.21s.3-.71.33-.94a1,1,0,0,0,0-.38,6.44,6.44,0,0,0,1.58.26c.53,0,.72-.09.64.27s0,.43.76.16a20.92,20.92,0,0,0,2-.82,3.67,3.67,0,0,1,.7-.31,6.34,6.34,0,0,0,1.32.85c.61.27,1.41.76,1.58,1.37a6.42,6.42,0,0,1,.44,1.81c-.08.28.14.58-.17.88a6.5,6.5,0,0,0-.62.59c-.06.13.07.24.68.24s.81-.16.85-.3.06-.37.15-.21.32,0,.2-.45a19.5,19.5,0,0,1-.26-2,6.69,6.69,0,0,1,.11-1,3.16,3.16,0,0,1,1.33,1,8.12,8.12,0,0,1,.88,2.07c.08.5.19.8,0,1s-.42.5-.42.65.24.15.79.15.78-.3.77-.47,0-.47.12-.32.21-.1,0-.55a7.27,7.27,0,0,1-.85-2.71c-.05-1-.1-1.22-.44-1.45S26.11,13.41,26,12.83s.13-.44,0-1.2-.16-1.2-.16-1.2a2.23,2.23,0,0,0,.31-1.37,2.06,2.06,0,0,0-1.05-1.7,19.91,19.91,0,0,0-3.42-1.22c-1.17-.43-2.19-.13-3.22-.7A33.61,33.61,0,0,0,14,3.18a12.27,12.27,0,0,0-6-.13,3.68,3.68,0,0,0-2,.87c-.34.26-.38.74-.75.74A7.89,7.89,0,0,0,3.91,5a1.77,1.77,0,0,0-.24-.35c-.12-.11,0,.43,0,.43l-.21.1A2.08,2.08,0,0,1,3,4.73C3,4.57,2.73,4,2.8,4.65s.28.7.28.7a1.77,1.77,0,0,0-.37.53,2,2,0,0,1-.58,1,3.18,3.18,0,0,0-.78,1.66,2.73,2.73,0,0,0-.06,1.4c.15.35,1.15,1.11,1.47,1.92s1.14.38,1.94,1,1.42.23,1.81.84,1.23.36,1.73,1,1.38.19,2,.74,2.28.4,2.28.4a1.84,1.84,0,0,1,.18.7,4.77,4.77,0,0,1,0,1.46c-.15.38-.08.82-.23.95s-.85.67-.85.83S11.77,20,12.15,20Z" transform="translate(0 0.02)" fill="#ccc"/><rect width="30" height="20" fill="none"/></svg>