<!-- Copyright (c) 2023 Jan Stehno -->
<svg xmlns="http://www.w3.org/2000/svg" viewBox="0 0 300 200">
    <title>europeanbison_body</title>
    <g id="europeanbison">
        <g id="body">
            <path
                d="M121.53,200c7.47,0,6.69-.53,7.88-3s1.56-3.75,5-3.66,6.25-1.4,6.65-3.4.85-3.78,1.66-2.69,1.38-.42,1.21-4,1.37-14.79,3.62-19.88.84-8.5,1.84-12.08,3-7.08,3.33-9.42a11.22,11.22,0,0,0,0-3.75s10.5,3,15.75,2.59,7.17-.92,6.42,2.66.33,4.34,7.58,1.59,16.08-6,20-8.17a38.79,38.79,0,0,1,7-3.08s7,5.83,13.17,8.5,14.16,7.58,15.83,13.66,5.25,15.25,4.42,18.09,1.41,5.83-1.67,8.83-5.66,4.66-6.25,5.91.66,2.43,6.78,2.43,8.1-1.63,8.55-3.09.55-3.67,1.5-2.08,3.17-.17,2-4.5-2.43-17.15-2.58-20.11,1-9.56,1-9.56,10,4,13.31,9.81,8.13,15.69,8.88,20.69,1.87,8,.35,9.79-4.16,5-4.16,6.46,2.37,1.5,7.9,1.5,7.74-3,7.7-4.67-.35-4.66,1.15-3.2,2.16-1-.46-5.46-8.09-17.3-8.54-27.13-1-12.21-4.42-14.54-12.9-10.62-13.9-16.44,1.32-4.37.44-12.06-1.56-12-1.56-12A22.27,22.27,0,0,0,262,90.88c-.87-7.69-3.19-12.07-10.5-17.07s-22.62-7.93-34.25-12.18-21.87-1.25-32.12-7-27-15.71-44.88-22.63S94.33,27.83,80.5,30.75,64,36.83,60.58,39.42s-3.79,7.46-7.45,7.46-14.05,3.37-14.05,3.37a17,17,0,0,0-2.37-3.46c-1.17-1.12,0,4.25,0,4.25l-2.13,1S31,49.13,30.29,47.54s-3-7-2.29-.83,2.79,7,2.79,7A17.38,17.38,0,0,0,27.08,59c-1.08,2.84-1.91,6.88-5.75,10S14.5,79.94,13.5,85.69s-2.12,10.37-.62,13.94,11.5,11.12,14.75,19.25S39,122.63,47,128.75s14.25,2.25,18.13,8.38,12.25,3.62,17.25,10.25,13.87,1.87,19.87,7.37,22.88,4,22.88,4a17.9,17.9,0,0,1,1.79,7c.08,3.75,1.25,10.75-.17,14.58s-.75,8.25-2.25,9.5-8.53,6.7-8.53,8.3S117.75,200,121.53,200Z"
                transform="translate(0 0)" fill="#ccc" />
        </g>
    </g>
    <g id="frame">
        <rect id="frame-2" width="300" height="200" fill="none" />
    </g>
</svg>