<svg xmlns="http://www.w3.org/2000/svg" viewBox="0 0 30 20"><path d="M1.74,5.52a.82.82,0,0,0,.34.56.68.68,0,0,0,.19,0s-.12.11.15.31a1.34,1.34,0,0,0,1,.17c.3,0,.32-.23.53-.19a8,8,0,0,0,1.32,0c.42,0,1,.31,1,.58s-.07.82.13,1.09a9.27,9.27,0,0,1,1,1,29,29,0,0,0,2.52,3.3,2.53,2.53,0,0,1,1,1.32c.25.67.24,1,.85,1.29a2.41,2.41,0,0,0,1.19.37,3.18,3.18,0,0,0,.38,0,3.8,3.8,0,0,1,.39,1.44,3.92,3.92,0,0,1,0,1.52,4.39,4.39,0,0,0,.09,1c0,.41,0,.76,0,.76h.75l.15-.87.21.87h.93a6.15,6.15,0,0,1,0-1.26,34.44,34.44,0,0,0-.25-3.44,2.44,2.44,0,0,0,1,.13,10.23,10.23,0,0,1,2.05-.26,6,6,0,0,0,2.19-.37c.47-.18.58,0,.88.1a1.25,1.25,0,0,0,1,0,4.55,4.55,0,0,0,.38-.28,15.41,15.41,0,0,1,1.77,1.21c.73.6,1.61,1.34,1.71,1.89a4.91,4.91,0,0,1,.05,1.46c-.05.4-.11.77-.11.77h.9l.13-.55V20h.91s0-1.28,0-2.24A5.9,5.9,0,0,0,28.35,16c-.09-.2-.46-.19-1.21-.9s-1-1.2-1-1.41a7.79,7.79,0,0,1,1.12-1.84,3,3,0,0,0,.4-.56s-.08,1.26-.05,1.85a6.32,6.32,0,0,0,.11,1,14,14,0,0,0,.85-2.27,5.62,5.62,0,0,0-.14-3.1C28.07,7.84,27,7.08,25.3,6.58a9.62,9.62,0,0,0-4.51,0A17.35,17.35,0,0,1,16.41,7c-1-.19-1.48-.69-2.71-.69S12,6.68,11,6.68,9.45,5.73,9,5s-1.2-2-1.2-2A.83.83,0,0,0,8,2.52a1.41,1.41,0,0,0-.17-.66,6.79,6.79,0,0,0,1.23-.75A10.68,10.68,0,0,1,10.65.33a2.13,2.13,0,0,0,.4-.35H8.74L8.59.39A1,1,0,0,1,8.08.23,1.32,1.32,0,0,1,7.85,0h-.4A2.22,2.22,0,0,0,7.7.25a1.44,1.44,0,0,0,.19.14,2.57,2.57,0,0,0-.65.23A4.47,4.47,0,0,0,6.8.89,2.75,2.75,0,0,0,6.37.52c-.15-.08-.11.08,0,.26l.2.25s.1.16-.7.24-1.14,0-1.2-.18A2,2,0,0,1,4.62.63c0-.12-.16.08-.13.36s.1.43.26.52a1.76,1.76,0,0,0,.42.12,1.18,1.18,0,0,1-.61-.15A.43.43,0,0,1,4.39,1c0-.23-.1-.06-.14.25s.28.6.6.65l.62.1a.83.83,0,0,1-.38.43,5.69,5.69,0,0,0-1.18,1A6,6,0,0,1,2.54,4.66C2,5,1.74,5.31,1.74,5.52ZM7.81,1a.76.76,0,0,1,.34,0,1.13,1.13,0,0,1-.35.17c-.11,0-.14-.05-.2-.09S7.57,1,7.81,1Z" transform="translate(0 0.02)" fill="#ccc"/><rect width="30" height="20" fill="none"/></svg>