<!-- Copyright (c) 2023 Jan Stehno -->
<svg xmlns="http://www.w3.org/2000/svg" viewBox="0 0 300 200">
    <title>fallowdeer_body</title>
    <g id="fallowdeer">
        <g id="body">
            <path
                d="M17.36,55.44c0,2.12,2.68,5.62,3.43,5.62a6.08,6.08,0,0,0,1.88-.5s-1.13,1.06,1.56,3.06,6.56,2.13,9.5,1.69,3.13-2.25,5.31-1.87a81.37,81.37,0,0,0,13.13.12c4.19-.31,9.85,3.11,10.1,5.77s-.66,8.25,1.34,10.92S69.77,85,73.52,90.58,92.11,117.5,98.73,123.5s7.38,6.56,9.94,13.25,2.44,9.69,8.5,12.94,9.69,3.62,11.94,3.62a34.87,34.87,0,0,0,3.81-.19s2.77,4.63,3.85,14.38.59,13.25,0,15.25.59,5.58.92,9.67.25,7.58.25,7.58h7.42l1.58-8.67L149,200h9.25a65.22,65.22,0,0,1,.09-12.58c.75-6-2.5-34.34-2.5-34.34s5.83,1.92,9.75,1.25,9.41-2.25,20.5-2.58,17.25-1.83,21.91-3.67,5.75-.41,8.75,1,7.84,1.67,9.84.42a35.36,35.36,0,0,0,3.75-2.75,159.61,159.61,0,0,1,17.75,12.13c7.25,6,16.12,13.37,17.12,18.87a49.3,49.3,0,0,1,.5,14.63c-.5,4-1.12,7.62-1.12,7.62h9l1.25-5.5V200H284s-.25-12.75.13-22.37.25-15.5-.63-17.5-4.62-1.88-12.12-9-10.13-12-10.13-14.13,7.75-14.37,11.13-18.37,4-5.63,4-5.63-.75,12.63-.5,18.5a67.32,67.32,0,0,0,1.12,10s6.13-12.62,8.5-22.62,2-21.75-1.37-31S270,71,253,66s-32.5-2-45.12.13-33.88,6-43.75,4.12S149.29,63.31,137,63.37,119.54,67,110.29,67,94.54,57.56,89.48,50.12,77.54,30.44,77.54,30.44a8.71,8.71,0,0,0,2.57-5c.25-2.88-1.69-6.57-1.69-6.57a70.45,70.45,0,0,0,12.31-7.5c4.88-4,13.13-6.06,15.81-7.87a18.39,18.39,0,0,0,4-3.5H87.4L85.92,4.19s-3.55-.25-5.16-1.66A11.26,11.26,0,0,1,78.51,0h-4A19,19,0,0,0,77,2.72c1,.78,1.92,1.4,1.92,1.4a25.16,25.16,0,0,0-6.5,2.35A48.8,48.8,0,0,0,68,9.16,25.78,25.78,0,0,0,63.7,5.44c-1.53-.78-1.09.84.19,2.59A23.79,23.79,0,0,0,66,10.56s.91,1.6-7,2.41-11.41-.28-12.06-1.78-.38-3.32-.72-4.6-1.56.75-1.22,3.57.94,4.31,2.56,5.15a17.26,17.26,0,0,0,4.19,1.28s-4.5-.09-6.09-1.5-1.88-2.37-1.69-4.59-1-.53-1.44,2.5,2.84,6,6,6.53l6.22,1s-.62,2.34-3.84,4.37A54.11,54.11,0,0,0,39.11,35.22,61,61,0,0,1,25.42,46.87C19.73,50.69,17.36,53.31,17.36,55.44ZM78.14,9.94a7.77,7.77,0,0,1,3.34.4S79,12.09,78,12.09s-1.34-.56-2-.93S75.73,10,78.14,9.94Z"
                transform="translate(0 0)" fill="#ccc" />
        </g>
    </g>
    <g id="frame">
        <rect id="frame-2" width="300" height="200" fill="none" />
    </g>
</svg>