<!-- Copyright (c) 2022 - 2023 Jan Stehno -->
<svg xmlns="http://www.w3.org/2000/svg" viewBox="0 0 300 200"><title>fallowdeer_organs</title><g id="fallowdeer"><g id="organs"><path d="M226.11,123.08c-4.42-.35-9.5-.33-11-6.16s-1.5-10.75-7-15.5-10-10.25-7.67-13.75,11.5-4,20.08-4.59,16.75-3.33,23.09-1.5c5.15,1.49,10.1,3.73,12.25,6.66.49.68,8.83,2,10.64,4.57,3.77,5.33-6.56-.56-9.69,1.85-2.43,1.88-2.57,6.09-5.83,8.34-4.87,3.38-4,12.63-7.37,16.13S231.86,123.54,226.11,123.08Z" transform="translate(0 0)" fill="#1e88e5" opacity="0.7"/><path d="M221.19,126.17c-.15,3.77-13.67,9.41-20.5,9.5s-14.25-1-14-8.5,3.83-12.92,4.75-22.92-.62-15.3,3.42-15.92c5.34-.82,6.78,4.19,9.66,7.84,3.11,3.91,9,8.33,10,15.79C215.62,120.16,221.44,119.67,221.19,126.17Z" transform="translate(0 0)" fill="#1e88e5" opacity="0.7"/><path d="M182.61,136.25c-7.05-.39-8.25-13.5-5.59-23.08s3.25-23.67,12-26,15,3.16,14.42,11.91,2,23.84-5.5,30.42S185.61,136.42,182.61,136.25Z" transform="translate(0 0)" fill="#1e88e5" opacity="0.7"/><path d="M151.85,145.83c-5.53-.06-7.92-.13-9.74-3.13s-1.07-4.55-3-8-3.66-5.32-3.51-6.43,1.81-1.83,2.56-1,2.82,7.11,3.51,7.2.57-1.27,0-3.55-.72-4-1.53-4.34-1.8-.66-.89-1.19,1.95,0,2.19-.78.91-.94,1.36-.53,1.42-.45,2.1,0,0,3.45,1.14,4.8,6.6,2.07,8.41,5.89a27.46,27.46,0,0,1,2.55,9.54C157,145.56,154.1,145.85,151.85,145.83Z" transform="translate(0 0)" fill="#e53935" opacity="0.7"/><path d="M185.89,87.79c-2.76-2.37-13-.43-28.92,3.78s-28.15,9.1-30.9,20.94,2.24,22.23,8.84,26.43,14.76,5.15,26.09,3.52,19.23-4,22.74-16.48S189.49,90.88,185.89,87.79Z" transform="translate(0 0)" fill="#ffb300" opacity="0.7"/><path d="M62.79,27.19c-6,.87-8,5.31-6.93,7.25s4.25,1.62,9.43.68,5.5-3,4.32-5.75S66.67,26.62,62.79,27.19Z" transform="translate(0 0)" fill="#1e88e5" opacity="0.7"/></g></g><g id="frame"><rect id="frame-2" width="300" height="200" fill="none"/></g></svg>