<svg xmlns="http://www.w3.org/2000/svg" viewBox="0 0 30 20"><path d="M22.61,12.28c-.44,0-.95,0-1.1-.61a2.41,2.41,0,0,0-.7-1.55c-.55-.48-1-1-.77-1.38s1.15-.4,2-.46a8.31,8.31,0,0,1,2.31-.15,2.48,2.48,0,0,1,1.23.67c0,.07.88.2,1.06.46.38.53-.66-.06-1,.18s-.26.61-.58.84c-.49.33-.4,1.26-.74,1.61A2.5,2.5,0,0,1,22.61,12.28Z" transform="translate(0 0.02)" fill="#1e88e5" opacity="0.7"/><path d="M22.12,12.59c0,.38-1.37.94-2.05.95s-1.43-.1-1.4-.85.38-1.29.47-2.29-.06-1.53.35-1.59.67.42,1,.78a3.25,3.25,0,0,1,1,1.58C21.56,12,22.14,11.94,22.12,12.59Z" transform="translate(0 0.02)" fill="#1e88e5" opacity="0.7"/><path d="M18.26,13.6c-.7,0-.82-1.35-.56-2.31s.33-2.36,1.2-2.6a1.08,1.08,0,0,1,1.44,1.19c-.05.88.2,2.39-.55,3A2,2,0,0,1,18.26,13.6Z" transform="translate(0 0.02)" fill="#1e88e5" opacity="0.7"/><path d="M15.19,14.56c-.56,0-.8,0-1-.31s-.11-.46-.29-.81-.37-.53-.35-.64.18-.19.25-.11.28.71.35.72.06-.12,0-.35-.07-.41-.15-.44-.18-.06-.09-.12.19,0,.22-.07.09-.1.13-.06.14,0,.21,0,0,.34.12.48.66.2.84.58a2.83,2.83,0,0,1,.25,1C15.7,14.53,15.41,14.56,15.19,14.56Z" transform="translate(0 0.02)" fill="#e53935" opacity="0.7"/><path d="M18.59,8.75c-.28-.23-1.3,0-2.89.38s-2.82.91-3.09,2.1a2.47,2.47,0,0,0,.88,2.64,3.7,3.7,0,0,0,2.61.35c1.13-.16,1.92-.4,2.27-1.65S19,9.06,18.59,8.75Z" transform="translate(0 0.02)" fill="#ffb300" opacity="0.7"/><path d="M6.28,2.69c-.6.09-.8.54-.69.73s.42.16.94.07.55-.3.43-.58S6.67,2.64,6.28,2.69Z" transform="translate(0 0.02)" fill="#1e88e5" opacity="0.7"/><rect width="30" height="20" fill="none"/></svg>