<!-- Copyright (c) 2023 Jan Stehno -->
<svg xmlns="http://www.w3.org/2000/svg" viewBox="0 0 300 200">
    <title>feralpig_organs</title>
    <g id="feralpig">
        <g id="organs">
            <path
                d="M212.79,137c-.41-3.14-3-7.12-5.25-8s-3.13-9.12-3-17.75-1.9-21.87,0-24.87,13.88-4.25,20.13-2.25,20-.75,26.25,4.62c3.3,2.83,6.45,4.11,8,7.63s8.1,2.65,9.8,6.3-8.71-2.14-10.05,2c-1.8,5.55-13.8,3.83-16.92,9.33s-12.75,15.38-16.5,18.5S213.29,140.88,212.79,137Z"
                transform="translate(0 0)" fill="#1e88e5" opacity="0.7" />
            <path
                d="M201.29,142.13c-11.67.76-21.5,3.87-24.25-.88s-1.13-9.25,4.25-16.12,10.75-19.5,12.5-26.75,2.37-11,5.5-9.88,5.12,10.38,5.12,17.13,2.88,22,6.5,25.25,6.5,6.5,2.75,8.12A31.91,31.91,0,0,1,201.29,142.13Z"
                transform="translate(0 0)" fill="#1e88e5" opacity="0.7" />
            <path
                d="M169,142.17c-3.06-3.86-5.5-15.42-1.84-24s15.34-24.92,21-29.25S202.12,85,203.87,92.5s-.33,24.42-3.75,32.67-14.58,15.33-20.5,17.75S170.62,144.17,169,142.17Z"
                transform="translate(0 0)" fill="#1e88e5" opacity="0.7" />
            <path
                d="M136.66,126.23c-3.84-1.46-5.49-2.12-6-4.25s.44-2.78,0-5.2-1.18-3.87-.78-4.45a1.39,1.39,0,0,1,2.05.09c.32.62.13,4.64.59,4.88s.72-.56.9-2,.54-2.41,0-2.79-1.08-.83-.31-.88,1.37.48,1.73.14a.69.69,0,0,1,1.08.06c.21.33,1.11.11,1.46.55s-.88,1.91-.44,2.94,4.06,2.85,4.34,5.43a13.4,13.4,0,0,1-.69,5.91C140.33,127.43,138.22,126.83,136.66,126.23Z"
                transform="translate(0 0)" fill="#e53935" opacity="0.7" />
            <path
                d="M167,136.73c-5.66.73-14.38-3.67-23.06-5.07s-18-15.2-18.3-19.51,10.7-19.76,12.86-21.66,14.31-7.35,24.76-7.35,22.81,2,24.52,6,1.2,12.22-1.59,20.58-11,17.61-12.35,21S169.51,136.4,167,136.73Z"
                transform="translate(0 0)" fill="#ffb300" opacity="0.7" />
            <path
                d="M72.35,107.94c-2.09,1.78-4.62,1.62-8.06,2s-6.13,1-6.19-1,.38-5.44,4.56-6.5,8.82-1.44,9.69,1.62S73.15,107.26,72.35,107.94Z"
                transform="translate(0 0)" fill="#1e88e5" opacity="0.7" />
        </g>
    </g>
    <g id="frame">
        <rect id="frame-2" width="300" height="200" fill="none" />
    </g>
</svg>