<!-- Copyright (c) 2022 - 2023 Jan Stehno -->
<svg xmlns="http://www.w3.org/2000/svg" viewBox="0 0 300 200"><title>feralpig_body</title><g id="feralpig"><g id="body"><path d="M263.57,200H251.78a.93.93,0,0,1-.85-1.31,4.83,4.83,0,0,1,1.83-2.13c2.06-1.34,2.31-1.12,2.53-2.06s3.15-10.66,3-15.56-.09-13-2.41-15-5.56-1.91-7.65-4.35-2.66-2.25-2.66-2.25.66,4.78-.66,7.38-8.15,6.44-10.24,13.23-6.37,19.54-6.37,19.54l-2-1.38s-1.17,3.42-3.12,3.92H210.78a1.12,1.12,0,0,1-1-1.69,3.32,3.32,0,0,1,1.72-1.68c1.87-.71,2.66-1,3.29-2s1.08-5.29,3.25-9.83,6.58-16.12,6.58-22.81a60,60,0,0,0-2.31-14.44s-4.94-.94-11.69,4.5-14.18,7.25-20.81,5.5-16.56.44-22.25-.75A135.34,135.34,0,0,1,154,152.81s-4.81,13.56-6.63,21.31-1,16.07-1.47,17.19a1.31,1.31,0,0,1-1,.76.89.89,0,0,0-.65,1.13,2.2,2.2,0,0,1,0,1.58,4.55,4.55,0,0,1-1.26,1.53s.06-.36-.43-1.06c-.38-.54-.63-.94-1.19.28a12.3,12.3,0,0,1-5.27,4.47h-9.17c-.91-.54.13-2.17,1.42-3.23a11.14,11.14,0,0,0,3.12-3.48c.55-1.21,2.25-12.54,2.21-17.46a45.38,45.38,0,0,0-.21-5.71s-3.54,7.67-3.87,12c-.3,4-.3,8.05-1,8.31-1.11.39-.64,1.72-.64,1.72a3.14,3.14,0,0,1-.21,2,4.35,4.35,0,0,1-1.58,1.53l-.77-.76a.54.54,0,0,0-.87.16c-.49,1.1-1.57,3.14-3,3.79A16.52,16.52,0,0,1,115.1,200a28,28,0,0,1-3.91-.16c-.71-.12-.06-1.9.85-2.78s2.25-1.12,2.72-2.19a171.48,171.48,0,0,0,3.4-18.25c.44-4.43,0-15.54-1.12-20.2a21.3,21.3,0,0,0-2.75-6.84,37.44,37.44,0,0,1-20.13,5.79c-12,0-37.25-2.25-46.75-2.75s-20.11.24-20.58-.71S30,148.08,34,147.79s9-4.87,12.09-5.67,4.46-1.58,1.37-1.33-6.25-2-8.41-2-2.59,3.83-4.25,4.79-6.13,0-6.92,1.46-2.08,2.25-3.5,1-1.92-4.38-3.67-5.92-2.46-4.33-2.16-4.92,1.37-.25,2.41-.58,6.09-3.67,7.5-5.83,4.09-5,7.5-5.5,6.21-2.59,9.38-7.84S55.1,94.19,55.85,92a3.15,3.15,0,0,1,2.56-2.31,27.27,27.27,0,0,1,1.19-8.5C61,77,61.85,76.5,62.73,76.75s7.43,6.94,7.43,6.94,7.5-.69,19.5-10.19c12.7-10,40.38-10,57.13-8s29.12-1.37,40.87,1.25S219.91,63.57,232,65.1s32.75,8.65,41.5,18.53,11.25,16.7,9.58,24.45-3,16.5-1.5,19.34,1.33,5.58-2.83,2.75-3.42-9-3.42-9-6.58,12.83-8.77,15.46-2.12,1.87.75,6.56,3.63,7,6.44,9,1.56,6.56-.31,8.94-2.75,19.62-2.32,23.18-1.62,6.57-1.5,7.75a20.57,20.57,0,0,1-.06,3.19l-2.25-1.31A8.5,8.5,0,0,1,263.57,200Z" transform="translate(0 0)" fill="#ccc"/></g></g><g id="frame"><rect id="frame-2" width="300" height="200" fill="none"/></g></svg>