<svg xmlns="http://www.w3.org/2000/svg" viewBox="0 0 30 20"><path d="M26.36,20H25.18a.1.1,0,0,1-.09-.14.59.59,0,0,1,.19-.21c.2-.13.23-.11.25-.2a7.92,7.92,0,0,0,.3-1.56c0-.49,0-1.3-.24-1.5s-.55-.19-.76-.44-.27-.22-.27-.22a1.47,1.47,0,0,1-.07.73c-.13.26-.81.65-1,1.33s-.64,1.95-.64,1.95l-.19-.14s-.12.35-.32.4H21.08a.12.12,0,0,1-.1-.17.35.35,0,0,1,.17-.17c.19-.07.27-.1.33-.21s.11-.53.33-1a7.18,7.18,0,0,0,.66-2.28,6,6,0,0,0-.23-1.44,1.54,1.54,0,0,0-1.17.45,2.38,2.38,0,0,1-2.08.55c-.67-.18-1.66,0-2.23-.08s-1.36-.39-1.36-.39-.48,1.35-.66,2.13a12.51,12.51,0,0,0-.15,1.72.14.14,0,0,1-.1.07.09.09,0,0,0-.06.12.19.19,0,0,1,0,.15.42.42,0,0,1-.12.16.22.22,0,0,0-.05-.11c0-.05-.06-.09-.11,0a1.33,1.33,0,0,1-.53.45h-.92c-.09-.06,0-.22.14-.33a1.05,1.05,0,0,0,.32-.35,10.44,10.44,0,0,0,.22-1.74c0-.49,0-.57,0-.57a4.64,4.64,0,0,0-.39,1.2c0,.4,0,.81-.1.83s-.07.18-.07.18a.27.27,0,0,1,0,.19.43.43,0,0,1-.16.16l-.07-.08s-.08,0-.09,0a.84.84,0,0,1-.3.38,1.66,1.66,0,0,1-.64.11l-.39,0c-.07,0,0-.19.08-.28s.23-.11.28-.22.29-1.38.34-1.82a8.61,8.61,0,0,0-.12-2,2.06,2.06,0,0,0-.27-.69,3.72,3.72,0,0,1-2,.58c-1.2,0-3.73-.22-4.68-.27a18,18,0,0,1-2.06-.07c0-.1.32-.39.72-.42s.9-.48,1.2-.56.45-.16.14-.14-.62-.2-.84-.2-.26.38-.43.48-.61,0-.69.15-.21.22-.35.09-.19-.44-.36-.59a.62.62,0,0,1-.22-.49c0-.06.14,0,.24-.06a2.41,2.41,0,0,0,.75-.58,1.17,1.17,0,0,1,.75-.55c.34-.05.62-.26.94-.79A24,24,0,0,0,5.59,9.18a.32.32,0,0,1,.25-.24A2.65,2.65,0,0,1,6,8.09c.14-.41.23-.46.31-.44A8.88,8.88,0,0,1,7,8.34a4.15,4.15,0,0,0,2-1c1.27-1,4-1,5.71-.8s2.91-.14,4.09.12S22,6.33,23.2,6.49a7.74,7.74,0,0,1,4.15,1.85c.88,1,1.13,1.67,1,2.44a4.53,4.53,0,0,0-.15,1.94c.15.28.14.56-.28.27a1,1,0,0,1-.34-.9,16.5,16.5,0,0,1-.88,1.55c-.22.26-.21.19.08.65s.36.7.64.9.16.66,0,.9a7.27,7.27,0,0,0-.23,2.32c0,.35-.17.65-.15.77a2.29,2.29,0,0,1,0,.32l-.22-.13A.89.89,0,0,1,26.36,20Z" transform="translate(0 0.02)" fill="#ccc"/><rect width="30" height="20" fill="none"/></svg>