<svg xmlns="http://www.w3.org/2000/svg" viewBox="0 0 30 20"><path d="M11.79,20h1.69a6.88,6.88,0,0,1,.25-2,3.35,3.35,0,0,0,.39-1.26,4.3,4.3,0,0,0,0-.55,16.3,16.3,0,0,1,2-.1c.88,0,1.92.12,2.5.14s.63.12.81.28.48,0,1-.19,1.2-.45,1.2-.45a1.07,1.07,0,0,0,.82,1c.85.31,2.19.91,2.74,1s.54.35.14,1.06A5,5,0,0,0,24.84,20h1.93a4.18,4.18,0,0,1,.49-1.79c.47-.8,1.12-1.16.38-1.83s-1.45-1.18-1.45-1.67.51-.61,1-1.16.3-2.75.3-2.75A2.84,2.84,0,0,1,28,12c.14.8.95-.55-.08-2a7.32,7.32,0,0,0-5.28-3.2,21.65,21.65,0,0,0-6.68.36c-1.53.32-3-.56-4.42-.15s-1.48.79-2,.79S8,6.83,7,6.38A8.59,8.59,0,0,0,5.32,5.8a.51.51,0,0,1,.3-.67,3.37,3.37,0,0,1,1.51-.22c.44,0,.26-.23.2-.44s-.08-.5.46-.77,1-.39.94-1-.06-1-.22-1-.19-.07-.35-.44A13.83,13.83,0,0,1,7.74,0H7.61A12,12,0,0,0,7.72,1.2c.08.46.2,1,.2,1a3.44,3.44,0,0,0-.27.38c-.15.24-.19.47-.36.49a1.27,1.27,0,0,0-.55.14l-.27.15s-.23-.1,0-.71.67-.94.86-1.42A4,4,0,0,0,7.52,0H6.22a11.11,11.11,0,0,0-.31,1.07c-.08.4,0,.93-.36,1.21s-.47.46-.84.54a1.86,1.86,0,0,0-1.06,1,2.86,2.86,0,0,0-.49,1.34c0,.47,0,.89,0,.89a.92.92,0,0,0-.78.56A10.83,10.83,0,0,0,2.16,8a14.55,14.55,0,0,1-.72,1.69,1.42,1.42,0,0,0-.14,1.05c.09.22,0,.39.17.55a.77.77,0,0,0,.37.2.37.37,0,0,0,.35.35.9.9,0,0,0,.58-.12s.46-.19.58,1.07.88,2.8.71,2.24,1.41,2.6,1.26,2.06.41,2.09.47,1.5.89,1.05.66.13,1,1.12.82.56,1.23.3,1-.11,1.42.09,1.21-.2.66.2.46-.37.84-.32.45-1.13.14-1.18.59-1a1.87,1.87,0,0,0,.87.12,9.14,9.14,0,0,1,.2,1.83A5.72,5.72,0,0,1,11.79,20Z" transform="translate(0 0.02)" fill="#ccc"/><rect width="30" height="20" fill="none"/></svg>