<!-- Copyright (c) 2022 Jan Stehno -->
<svg xmlns="http://www.w3.org/2000/svg" viewBox="0 0 300 200"><title>feralgoat_organs</title><g id="feralgoat"><g id="organs"><path d="M180.33,142.17c6.36-3.92,2.09-18.5,3.34-26.84s3.25-17.33-2.25-20.41-12.92,10.66-14.92,21.16S162.92,152.92,180.33,142.17Z" transform="translate(0 0)" fill="#1e88e5" opacity="0.7"/><path d="M201.5,146.25c8.14-1.64,14.08-6.08,13.58-11.25s-7.16-5.67-12.75-17.5-7.66-21.25-11.91-23.92-9,.59-12.34,13.67-7.16,28.08,1.42,33.33S192.83,148,201.5,146.25Z" transform="translate(0 0)" fill="#1e88e5" opacity="0.7"/><path d="M227.42,134.08c6.45-4.43,10.66-6.38,11.66-11.15s6.09-7.51,6.75-12.18.75-2.92,5.42-4.75,5.17-1.92,8.25,0,3.25-1.92,2.33-6-7-3.75-10.25-2.58-4.25-6.34-11.66-8-9.92.91-18.17,1-16.25-3.17-20.5-1.09-6.67,6.5-5.42,13.84,6.17,16.5,7,20.33,5.67,12.58,10.42,12S221.83,137.92,227.42,134.08Z" transform="translate(0 0)" fill="#1e88e5" opacity="0.7"/><path d="M130.94,146c-5-1.52-7.12-2.23-8-5.59s.22-4.63-.57-8.48-1.92-6-1.49-7.08,2.1-1.26,2.58-.32.7,7.55,1.3,7.82.84-1.06.9-3.4.4-4.05-.25-4.56-1.46-1.11-.5-1.37,1.77.48,2.19-.17,1.06-.65,1.35-.14,1.41-.06,1.9.58-.89,3.3-.22,4.89,5.42,3.73,6.07,7.87a28.92,28.92,0,0,1-.18,9.8C135.67,147.17,133,146.66,130.94,146Z" transform="translate(0 0)" fill="#e53935" opacity="0.7"/><path d="M144.88,148.75c13.46,1.25,23.12,1.75,27.37-11.12s4.25-36.5.75-39.63-15.62-.87-26.75,2.63-21,4.62-25.37,15.75S107.13,145.25,144.88,148.75Z" transform="translate(0 0)" fill="#ffb300" opacity="0.7"/><path d="M46.38,76c5.39-.45,11.68.19,9.12-5.31s-8.81-3.69-12-3.13-6.94,4-6.12,6.88S43.49,76.24,46.38,76Z" transform="translate(0 0)" fill="#1e88e5" opacity="0.7"/></g></g><g id="frame"><rect id="frame-2" width="300" height="200" fill="none"/></g></svg>