<!-- Copyright (c) 2022 - 2023 Jan Stehno -->
<svg xmlns="http://www.w3.org/2000/svg" viewBox="0 0 300 200"><title>feralgoat_body</title><g id="feralgoat"><g id="body"><path d="M117.88,200h16.87s-.19-14.31,2.5-20.31,4-9.38,4-12.69a35.08,35.08,0,0,0-.37-5.44,161.46,161.46,0,0,1,20.06-1c8.75.32,19.12,1.19,24.94,1.38s6.31,1.25,8.12,2.81,4.75.19,10.25-1.94,12.06-4.5,12.06-4.5-.31,6.52,8.19,9.69,21.92,9.17,27.42,10.5,5.41,3.5,1.41,10.67S248.42,200,248.42,200h19.33s.19-9.87,4.88-17.87,11.18-11.63,3.75-18.32-14.5-11.75-14.5-16.62S267,141,271.75,135.5s3-27.5,3-27.5,3.5,4.25,5,12.25,9.5-5.5-.75-20.25-27.25-29-52.75-32-51.62.38-66.87,3.63S129,66,115.25,70.13,100.38,78,95.25,78s-15-9.5-25.12-14a84,84,0,0,0-16.88-5.75s-1.81-4.84,2.91-6.75a35.18,35.18,0,0,1,15.12-2.19c4.38.41,2.63-2.31,2-4.37s-.78-5,4.6-7.69,9.56-3.94,9.43-9.56-.59-10.25-2.18-9.56-1.94-.69-3.54-4.35S77.44,0,77.44,0H76.08s.34,7.67,1.13,12.25,2,9.88,2,9.88A33.65,33.65,0,0,0,76.46,26c-1.5,2.42-1.88,4.66-3.54,4.87a12.93,12.93,0,0,0-5.5,1.42c-2.21,1.21-2.71,1.5-2.71,1.5s-2.34-1-.13-7.12,6.71-9.34,8.67-14.21S75.17,0,75.17,0h-13a108.12,108.12,0,0,0-3.09,10.75c-.79,4-.12,9.25-3.62,12.08s-4.67,4.59-8.38,5.42-7.83,4.54-10.58,9.5-4.92,8.75-4.92,13.42.34,8.87.34,8.87-5.86.34-7.86,5.65S23,74.38,21.56,80.25,16.44,92,14.38,97.19s-2.25,8.37-1.38,10.5-.12,3.87,1.69,5.5a8.74,8.74,0,0,0,3.69,2,3.71,3.71,0,0,0,3.56,3.44,8.62,8.62,0,0,0,5.75-1.19s4.56-1.86,5.81,10.73,8.75,28,7.08,22.41,14.09,26,12.67,20.59,4.08,20.91,4.67,15,8.91,10.5,6.58,1.25,9.79,11.21,8.21,5.63S85,196,82.58,191.92s14.25.91,12.09-2,6.66,2,4.66-3.67,8.34-3.17,4.5-11.33,1.42-11.75,5.84-9.92a18.85,18.85,0,0,0,8.75,1.25,97.63,97.63,0,0,1,2,18.31A56.25,56.25,0,0,1,117.88,200Z" fill="#ccc"/></g></g><g id="frame"><rect id="frame-2" width="300" height="200" fill="none"/></g></svg>