<svg xmlns="http://www.w3.org/2000/svg" viewBox="0 0 30 20"><path d="M21.28,13.68a1.1,1.1,0,0,0-.53-.8c-.22-.09-.31-.92-.3-1.78a11.84,11.84,0,0,1,0-2.49c.19-.3,1.39-.42,2-.22s2-.08,2.62.46c.33.28.65.41.81.76s.81.27,1,.63-.88-.21-1,.2c-.18.56-1.38.39-1.69.94a10.37,10.37,0,0,1-1.65,1.85C22.15,13.54,21.33,14.06,21.28,13.68Z" transform="translate(0 0.02)" fill="#1e88e5" opacity="0.7"/><path d="M20.13,14.19c-1.17.07-2.15.39-2.43-.09s-.11-.92.43-1.61a8.55,8.55,0,0,0,1.25-2.68c.17-.72.24-1.1.55-1s.51,1,.51,1.71a5.23,5.23,0,0,0,.65,2.52c.36.33.65.65.28.82A3.35,3.35,0,0,1,20.13,14.19Z" transform="translate(0 0.02)" fill="#1e88e5" opacity="0.7"/><path d="M16.9,14.19a2.83,2.83,0,0,1-.18-2.4,10.48,10.48,0,0,1,2.1-2.92c.57-.44,1.39-.39,1.57.36A7.29,7.29,0,0,1,20,12.49,4.13,4.13,0,0,1,18,14.27C17.37,14.51,17.06,14.39,16.9,14.19Z" transform="translate(0 0.02)" fill="#1e88e5" opacity="0.7"/><path d="M13.67,12.6c-.39-.15-.55-.21-.6-.43s0-.27,0-.52-.12-.38-.08-.44a.14.14,0,0,1,.21,0c0,.06,0,.46.06.49s.07-.06.09-.2.05-.24,0-.28-.11-.08,0-.09.14,0,.17,0a.07.07,0,0,1,.11,0s.11,0,.15.06-.09.19-.05.29.41.29.44.54a1.56,1.56,0,0,1-.07.59C14,12.72,13.82,12.66,13.67,12.6Z" transform="translate(0 0.02)" fill="#e53935" opacity="0.7"/><path d="M16.7,13.65a13.16,13.16,0,0,1-2.31-.51,3.06,3.06,0,0,1-1.83-2A6.35,6.35,0,0,1,13.85,9a5.14,5.14,0,0,1,2.47-.73c1.05,0,2.28.2,2.46.6a3.38,3.38,0,0,1-.16,2,15.32,15.32,0,0,1-1.24,2.11A.93.93,0,0,1,16.7,13.65Z" transform="translate(0 0.02)" fill="#ffb300" opacity="0.7"/><path d="M7.24,10.77c-.21.18-.47.16-.81.2s-.61.1-.62-.1a.59.59,0,0,1,.46-.65c.42-.11.88-.14,1,.16S7.31,10.7,7.24,10.77Z" transform="translate(0 0.02)" fill="#1e88e5" opacity="0.7"/><rect width="30" height="20" fill="none"/></svg>