<svg xmlns="http://www.w3.org/2000/svg" viewBox="0 0 30 20"><path d="M18,14.19c.64-.39.21-1.85.34-2.68s.32-1.73-.23-2-1.29,1.06-1.49,2.11S16.29,15.27,18,14.19Z" transform="translate(0 0.02)" fill="#1e88e5" opacity="0.7"/><path d="M20.15,14.6c.81-.16,1.41-.61,1.36-1.12s-.72-.57-1.28-1.75S19.47,9.6,19,9.33s-.9.06-1.23,1.37S17.09,13.51,18,14A2.62,2.62,0,0,0,20.15,14.6Z" transform="translate(0 0.02)" fill="#1e88e5" opacity="0.7"/><path d="M22.74,13.38c.65-.44,1.07-.63,1.17-1.11s.61-.75.67-1.22.08-.29.54-.47.52-.2.83,0,.33-.2.23-.6-.7-.38-1-.26-.43-.64-1.17-.8S23,9,22.18,9s-1.63-.32-2.06-.11a1.17,1.17,0,0,0-.54,1.38c.13.74.62,1.65.7,2s.57,1.25,1,1.2S22.18,13.77,22.74,13.38Z" transform="translate(0 0.02)" fill="#1e88e5" opacity="0.7"/><path d="M13.09,14.58c-.49-.15-.71-.22-.8-.56s0-.46,0-.85-.19-.6-.15-.71a.16.16,0,0,1,.26,0,6.85,6.85,0,0,0,.13.79c.06,0,.08-.11.09-.35s0-.4,0-.45-.14-.11,0-.14.18.05.22,0,.11-.07.14,0,.14,0,.19.06-.09.33,0,.49.55.37.61.78a2.64,2.64,0,0,1,0,1C13.57,14.69,13.3,14.64,13.09,14.58Z" transform="translate(0 0.02)" fill="#e53935" opacity="0.7"/><path d="M14.49,14.85c1.34.13,2.31.18,2.74-1.11s.42-3.65.07-4-1.56-.09-2.68.26-2.1.46-2.53,1.57S10.71,14.5,14.49,14.85Z" transform="translate(0 0.02)" fill="#ffb300" opacity="0.7"/><path d="M4.64,7.58c.54,0,1.17,0,.91-.54s-.88-.36-1.2-.31-.69.4-.61.69S4.35,7.6,4.64,7.58Z" transform="translate(0 0.02)" fill="#1e88e5" opacity="0.7"/><rect width="30" height="20" fill="none"/></svg>