<svg xmlns="http://www.w3.org/2000/svg" viewBox="0 0 30 20"><path d="M11.55,20H10s.19-1.54.26-2.65-.09-1.35,0-2.14.1-1.86.1-1.86a6.87,6.87,0,0,1-1.05-.63c-.23-.23-1.45-.44-2-.87a17.17,17.17,0,0,0-1.82-.9c-.79-.47-1-.6-1.39-.24a9,9,0,0,0-1.34,1.17.71.71,0,0,1-.77.33.56.56,0,0,1-.26-.09s-.12.07-.27-.13a1.09,1.09,0,0,1-.28-.59,10.78,10.78,0,0,1,.37-1.63c.22-1,.61-2,.71-2.39a7.63,7.63,0,0,1,.19-.83c.08-.23.4-.35.4-.35L3,5.91a.9.9,0,0,1-.15-.45c0-.3-.08-.53.13-.6a.59.59,0,0,1,.44.07s1.38-2.55,1.88-3.4S6.12,0,6.12,0h.36s-.54.9-.86,1.56l-.33.66L6.58,0h.31S5.75,2,5.33,2.85s-1,2.49-1,2.49.24,0,.32.14a.62.62,0,0,0,.5.22,14.68,14.68,0,0,0,2.71-.11,18.41,18.41,0,0,0,2.28-1c.91-.28,3,.14,5,.41a64.44,64.44,0,0,0,6.54.75,4,4,0,0,1,3.15.66,6.57,6.57,0,0,1,2.63,3.65c.5,1.41,1.73,2.95,1.9,3.65A6.47,6.47,0,0,1,29.09,16c.05-.29-.49,0-.43-.19s-.54,0-.45-.25-.31-.12-.31-.45-.35-.21-.28-.58-.28,0-.22-.6-.23-.52-.15-1.14.32-1.08,0-1.79-.75-1.61-.75-1.61A4.48,4.48,0,0,1,25.81,11a6.82,6.82,0,0,0-1.12,3.25c.07.84.53,1.31.37,1.88a8.26,8.26,0,0,0-.51,2.5,9.25,9.25,0,0,0,.21,1.4H23a7.25,7.25,0,0,0,.07-3.09c-.3-2-.71-2-.91-3s-.85-.9-.94-1.21A5.09,5.09,0,0,0,21,12a6.32,6.32,0,0,1-2.35,1.25A22.09,22.09,0,0,1,15,13a7.85,7.85,0,0,0-2.65.2,11.71,11.71,0,0,0-.45,2.67c.05.88-.3,1.68-.32,2.53S11.55,20,11.55,20Z" transform="translate(0 0.02)" fill="#ccc"/><rect width="30" height="20" fill="none"/></svg>