<svg xmlns="http://www.w3.org/2000/svg" viewBox="0 0 30 20"><path d="M17.3,11.67a2.12,2.12,0,0,0,1.62-1.94c.12-1.27.26-2.92-.3-3.05a3.08,3.08,0,0,0-2.7.8,3.64,3.64,0,0,0-.54,3.34C15.77,11.83,16.36,11.92,17.3,11.67Z" transform="translate(0 0.02)" fill="#1e88e5" opacity="0.7"/><path d="M19.3,12c.82-.3,1.5-.67,1.46-1.17s-.61-.71-.93-1.87-.45-1.94-1-2-.68.25-1.33.68a2.15,2.15,0,0,0-1.13,2.32C16.56,11.16,17,12.8,19.3,12Z" transform="translate(0 0.02)" fill="#1e88e5" opacity="0.7"/><path d="M21.43,10.73c.53-.05.42.2,1.24-.12s.32-.53.87-.93.34-.9.78-.94a2,2,0,0,1,1.2.14c.25.17.46-.38-.13-.61s-1,0-1.37-.44-.64-.8-1.39-.68a3.83,3.83,0,0,1-1.65,0c-.75-.12-1.43.11-1.41.57A8.67,8.67,0,0,0,20,9.47C20.21,10.08,20.48,10.83,21.43,10.73Z" transform="translate(0 0.02)" fill="#1e88e5" opacity="0.7"/><path d="M12.45,12.18c-.55,0-.79-.07-.94-.39s-.07-.46-.23-.82-.32-.56-.3-.67.2-.17.26-.09.23.74.3.75.06-.12,0-.35,0-.41-.11-.45-.18-.08-.08-.12.19,0,.22-.06.1-.09.14-.05.15,0,.21,0,0,.35.07.49.64.26.79.66a2.8,2.8,0,0,1,.18,1C13,12.2,12.68,12.21,12.45,12.18Z" transform="translate(0 0.02)" fill="#e53935" opacity="0.7"/><path d="M10.44,11.23c.51.91,2,1.4,4.17,1.36s3.16-.49,3.57-1.71a4.87,4.87,0,0,0-.32-3.68c-.55-.87-.79-.34-2.2-.62a4.26,4.26,0,0,0-3.8.73C10.56,8.26,9.73,10,10.44,11.23Z" transform="translate(0 0.02)" fill="#ffb300" opacity="0.7"/><path d="M3.88,7.2c.34-.23.79-.18.58-.49S4,6.47,3.7,6.63s-.51.4-.37.57S3.74,7.29,3.88,7.2Z" transform="translate(0 0.02)" fill="#1e88e5" opacity="0.7"/><rect width="30" height="20" fill="none"/></svg>