<!-- Copyright (c) 2023 Jan Stehno -->
<svg xmlns="http://www.w3.org/2000/svg" viewBox="0 0 300 200">
    <title>gemsbok_organs</title>
    <g id="gemsbok">
        <g id="organs">
            <path
                d="M173,116.92c6.44-1.71,14.92-6.75,16.17-19.42s2.66-29.17-2.92-30.42-20.08-.66-27.08,7.92-9.42,23.33-5.42,33.42S163.58,119.42,173,116.92Z"
                transform="translate(0 0)" fill="#1e88e5" opacity="0.7" />
            <path
                d="M193,119.92c8.25-3,15-6.67,14.58-11.67s-6.08-7.08-9.25-18.75-4.58-19.33-10.5-19.83-6.83,2.5-13.33,6.75S160.92,87.5,163.25,99.67,170.17,128.25,193,119.92Z"
                transform="translate(0 0)" fill="#1e88e5" opacity="0.7" />
            <path
                d="M214.25,107.58c5.3-.51,4.25,1.92,12.42-1.25s3.25-5.33,8.75-9.25,3.33-9,7.75-9.41,9.5-.42,12,1.33,4.66-3.75-1.25-6.08-9.59-.34-13.67-4.34-6.42-8-13.92-6.83-8.91,1-16.5-.21-14.33,1.13-14.16,5.71,2.71,11.58,4.56,17.66S204.75,108.5,214.25,107.58Z"
                transform="translate(0 0)" fill="#1e88e5" opacity="0.7" />
            <path
                d="M124.52,122.09c-5.51-.5-7.89-.77-9.46-3.91s-.69-4.63-2.28-8.27-3.21-5.59-3-6.69,2-1.67,2.64-.83,2.23,7.31,2.91,7.46.67-1.22.26-3.54-.39-4.09-1.17-4.46-1.74-.8-.79-1.25,1.94.12,2.25-.6,1-.86,1.39-.42,1.46-.33,2.1.2-.28,3.44.74,4.87,6.41,2.6,7.9,6.56a27.44,27.44,0,0,1,1.76,9.71C129.68,122.26,126.75,122.3,124.52,122.09Z"
                transform="translate(0 0)" fill="#e53935" opacity="0.7" />
            <path
                d="M104.38,112.5c5.1,9.13,20.25,14,41.75,13.63s31.62-4.88,35.62-17.13,2.38-28-3.12-36.75-7.88-3.37-22-6.25-25-2.12-38,7.38S97.25,99.75,104.38,112.5Z"
                transform="translate(0 0)" fill="#ffb300" opacity="0.7" />
            <path
                d="M38.81,72.25c3.42-2.33,7.9-1.79,5.77-4.92s-4.2-2.39-7.58-.83-5.12,4.06-3.69,5.75S37.44,73.19,38.81,72.25Z"
                transform="translate(0 0)" fill="#1e88e5" opacity="0.7" />
        </g>
    </g>
    <g id="frame">
        <rect id="frame-2" width="300" height="200" fill="none" />
    </g>
</svg>