<!-- Copyright (c) 2022 - 2023 Jan Stehno -->
<svg xmlns="http://www.w3.org/2000/svg" viewBox="0 0 300 200"><title>gemsbok_body</title><g id="gemsbok"><g id="body"><path d="M115.53,200H100s1.84-15.38,2.59-26.5-.87-13.5-.37-21.38,1-18.62,1-18.62-8.25-4-10.54-6.29-14.52-4.34-19.84-8.65-10.31-4.31-18.18-9-9.57-6.06-13.88-2.37-11.12,8.12-13.44,11.62a7.22,7.22,0,0,1-7.68,3.38,6.39,6.39,0,0,1-2.63-.94s-1.19.69-2.62-1.31-2.63-3.32-2.82-5.88,1.5-6.69,3.69-16.31,6.13-20.13,7.07-23.88,1-6,1.87-8.33S28.33,62,28.33,62l1.3-2.63a8.75,8.75,0,0,1-1.5-4.54c-.25-3-.88-5.25,1.29-6a5.75,5.75,0,0,1,4.33.67s13.88-25.48,18.81-34S61.19,0,61.19,0h3.56s-5.31,9-8.56,15.62l-3.25,6.63L65.75,0h3.13S57.5,20.31,53.25,28.75,43,53.69,43,53.69s2.38,0,3.17,1.35,2.79,2,5,2.17,17.6.73,27.1-1.09,13.75-7,22.82-9.81,29.45,1.44,49.87,4.11,52.5,8,65.42,7.5,17.21-2.42,31.46,6.58,21.37,22.38,26.37,36.5,17.25,29.5,19,36.5-2.88,25.13-2.38,22.25-4.87,0-4.25-1.87-5.37.25-4.5-2.5-3.12-1.25-3.12-4.5-3.5-2.13-2.75-5.88-2.88.13-2.25-6-2.25-5.12-1.5-11.37,3.25-10.75-.38-17.88-7.5-16.12-7.5-16.12a45,45,0,0,1-6.5,16.12c-5.37,8.38-12,24.13-11.25,32.5s5.38,13.13,3.75,18.75-5.75,17-5.12,25a93.91,93.91,0,0,0,2.12,14H230s3.75-11.12.75-30.87-7.13-19.88-9.13-29.5-8.5-9-9.37-12.13-2.5-7-2.5-7-14.92,12-23.58,12.5-24.67-1.33-36.5-3.17-26.5,2-26.5,2-5,17.84-4.5,26.67-3,16.83-3.17,25.33S115.53,200,115.53,200Z" transform="translate(0 0)" fill="#ccc"/></g></g><g id="frame"><rect id="frame-2" width="300" height="200" fill="none"/></g></svg>