<!-- Copyright (c) 2022 Jan Stehno -->
<svg xmlns="http://www.w3.org/2000/svg" viewBox="0 0 300 200"><title>graywolf_organs</title><g id="graywolf"><g id="organs"><path d="M163.73,110.83c6-7.73,3.35-12.58,2.44-23.83s3-19.33,1.41-21.67-7.91,1-11.83,12.34a272.78,272.78,0,0,0-8.17,29.75C146.25,113.67,154.14,123.17,163.73,110.83Z" transform="translate(0 0)" fill="#1e88e5" opacity="0.7"/><path d="M177.08,110.42c5.57-5.21,12-4.92,10.25-12.84s-7.5-14.16-8.16-22.5-4.59-11.85-8.25-7.41S164.33,78.25,165,88.42s-2.33,14.66-.67,19.75S171.92,115.25,177.08,110.42Z" transform="translate(0 0)" fill="#1e88e5" opacity="0.7"/><path d="M189.31,105.38c5,.11,7.5-4.07,12-4.44s7.82-3.63,8.07-7.13,3.31-5.37,4.18-9.25,8-4.31,10.82-2.93,15.31,7,11.56.18-10.63-2.93-16.88-7.62-5.5-11.56-14.31-10.31-9.69-2.24-17.12-.15-11.44,8.83-10,16.86,1.81,13.54,4.81,15S183.75,105.25,189.31,105.38Z" transform="translate(0 0)" fill="#1e88e5" opacity="0.7"/><path d="M120.43,118c-3.66-1-5.24-1.45-5.93-3.76s.07-3.2-.58-5.85-1.51-4.16-1.22-4.87,1.52-.9,1.88-.26.65,5.21,1.09,5.39.6-.75.59-2.36.22-2.81-.26-3.15-1.09-.75-.39-.94,1.3.31,1.59-.14.76-.47,1-.12,1-.06,1.39.37-.59,2.3-.06,3.39,4,2.5,4.57,5.35a19,19,0,0,1,0,6.78C123.9,118.68,121.92,118.37,120.43,118Z" transform="translate(0 0)" fill="#e53935" opacity="0.7"/><path d="M126.5,116.58c12,4,25.08,3.17,30.92-3s6.75-16,6.16-27.33-3-20.5-8-21.42-19.08.92-30.16,6.34-20.5,15-20.84,23.75S119.17,114.17,126.5,116.58Z" transform="translate(0 0)" fill="#ffb300" opacity="0.7"/><path d="M40.31,63.5c1.27,2.47,2.82,3.25,7.19,1.63s9.44-.63,9.44-4.07-3.19-6.18-9.88-5.37S39.44,61.81,40.31,63.5Z" transform="translate(0 0)" fill="#1e88e5" opacity="0.7"/></g></g><g id="frame"><rect id="frame-2" width="300" height="200" fill="none"/></g></svg>