<svg xmlns="http://www.w3.org/2000/svg" viewBox="0 0 30 20"><path d="M14.9,10.84a3.51,3.51,0,0,0,.52-1.78c.1-.4-.05-1.24-.56-1.15s-1,1-1.33,1.58-.87,1.46-.68,1.87S14,12,14.9,10.84Z" transform="translate(0 0.02)" fill="#1e88e5" opacity="0.7"/><path d="M14.82,11.48c.4-.12.77.15,1-.1s.33-.43,0-1.25a10.35,10.35,0,0,1-.5-1.93c-.06-.23-.61-.42-.78.25s-.89,1.14-1,1.66S13.29,11.93,14.82,11.48Z" transform="translate(0 0.02)" fill="#1e88e5" opacity="0.7"/><path d="M16.71,11.7a1,1,0,0,0,1.13-.57c.27-.44.65-.6.81-.8s.13-.74.79-.72A2.87,2.87,0,0,1,21,9.94c.39.24.59-.25-.33-.68s-.86.07-1.32-.39-.33-.95-1-1-.65-.31-1.56-.29-1.9.1-1.64.8A9.79,9.79,0,0,1,15.62,10C15.72,10.45,15.87,11.58,16.71,11.7Z" transform="translate(0 0.02)" fill="#1e88e5" opacity="0.7"/><path d="M11,12.29c-.49,0-.7,0-.83-.26s-.06-.33-.19-.59-.28-.39-.25-.47A.16.16,0,0,1,10,10.9c.06.06.19.52.25.53s.06-.09,0-.25,0-.3-.1-.32-.15-.06-.07-.09.18,0,.21,0a.08.08,0,0,1,.12,0s.13,0,.19,0,0,.25.06.35.56.17.69.45a1.78,1.78,0,0,1,.14.7C11.45,12.29,11.19,12.3,11,12.29Z" transform="translate(0 0.02)" fill="#e53935" opacity="0.7"/><path d="M9.88,11.88a3.87,3.87,0,0,0,3,.19c1.34-.35,1.69-.79,1.69-2.19s.29-2-.79-1.67a15.2,15.2,0,0,1-3,.6c-1.66.2-2.18.9-2.21,1.59S9.52,11.71,9.88,11.88Z" transform="translate(0 0.02)" fill="#ffb300" opacity="0.7"/><path d="M4.93,6.17c.35,0,1-.07.68-.44a1,1,0,0,0-1.23,0C4.18,6,4.17,6.27,4.93,6.17Z" transform="translate(0 0.02)" fill="#1e88e5" opacity="0.7"/><rect width="30" height="20" fill="none"/></svg>