<svg xmlns="http://www.w3.org/2000/svg" viewBox="0 0 30 20"><path d="M11.74,20c.91,0,1,.1,1.2-.63a2.3,2.3,0,0,1,.6-1.34c.23-.14.2-1.07.13-1.63a14.65,14.65,0,0,1-.07-2.94,4.8,4.8,0,0,1,.21-.62,7.83,7.83,0,0,0,2.24-.13,8.56,8.56,0,0,1,1.89-.35c.79,0,.83-.16.83-.16A4.17,4.17,0,0,0,20,13.81c.94.75,2.13,1.81,2.13,2.49a4.35,4.35,0,0,1-1,2.41c-.42.29-.92.51-1.1.8S20,20,21.05,20s1.34-.15,1.51-.7.61-2.09.86-2.67.19-.72,0-1a7.38,7.38,0,0,1-.48-1.13,9.3,9.3,0,0,0,1,1.17,2,2,0,0,1,.22,2c-.27.44-.82.38-1,.65s-.55.65.23.65,1.46.22,1.8,0,.53-2.16.53-2.16a2.89,2.89,0,0,0,1.88,1c1.13.07,1.68-.06,1-1.05s-.41-2-.79-2.56a6.65,6.65,0,0,1-1.26-2.86C26.34,10,26.32,9,25.16,7.9a8.32,8.32,0,0,0-3.51-2.41A18.17,18.17,0,0,0,16.88,5c-2.11,0-2.13.37-3.95,0a35,35,0,0,0-4.64-.9,21.36,21.36,0,0,0-2.47.1s0,.1-.62-.22-1.12-.89-1-.13S4.35,5,4.35,5a5.79,5.79,0,0,0-1.09.79,1.37,1.37,0,0,0-.54,1c0,.34,0,.52-.55.85s-1.09.82-1.06,1,.2.25.41.4.19.43.6.43a13.36,13.36,0,0,1,1.52-.25c.57,0,1.23.82,2.07,1.12s1.6,1.39,2.79,1.78l2.07.67c.58.18.74,2.71.71,3.56s0,1.83-.4,2-1.05.37-1.17.63,0,.42.38.45a1.42,1.42,0,0,0,.5,0,.31.31,0,0,0,.07.32C10.81,19.87,11,20,11.74,20Z" transform="translate(0 0.02)" fill="#ccc"/><rect width="30" height="20" fill="none"/></svg>