<!-- Copyright (c) 2022 Jan Stehno -->
<svg xmlns="http://www.w3.org/2000/svg" viewBox="0 0 300 200"><title>grayfox_body</title><g id="grayfox"><g id="body"><path d="M270.17,200c-15,0-26.42-6.25-30.59-9.75a41.34,41.34,0,0,1-5.75-5.58s.34,11.41-1.75,13.16S229.25,200,220.67,200s-9.84-3.42-8.75-4.92,5.08-4,7.16-4.08,3.67-9,3-14.25-1.33-8.25-6.08-10.42-11.25-5.75-11.25-5.75-3.42,6.92-5.42,11.75-4.33,15.17-6.5,17-8.66,3.92-12.75,3.5-8.25-3-5.08-5.58,4.67-2.33,6.92-4.25,6.33-10.08,6.33-16.33-9.23-12.86-16-19.11-14.19-19.39-14.19-19.39-1,2.58-13.08,4.91-24.42,4.25-24.42,4.25A42.19,42.19,0,0,1,118,149c-2.25,5.67,1.83,19.75.92,25.33s-3.09,16.84-5,19.75-8.67,2-8.67,2S106.75,200,96,200s-13.48-1.75-12.17-4.94,3.44-4.81,6-5,7.32-6.5,7.63-12.31-2.88-16.56-4.25-24.56-8.63-15.38-13.75-19.38-9.06-18.94-15.19-24S53,98.62,51.15,94.12,44.08,89,37.8,89.41s-10.69.12-11.94-1a3.91,3.91,0,0,1-1.28-2.63,27.65,27.65,0,0,0-3.28-1.72c-1.4-.56-3.15-2.28-1.25-4.47s7-6.12,9.25-8.53A12.83,12.83,0,0,0,32.68,65c.43-1.72,4.24-7.46,6.53-9s3.54-4,3.71-9.88-.29-9,.87-10.2,3.5,3.25,4.25,4.54A19.24,19.24,0,0,1,49.42,44a37.52,37.52,0,0,1,3.46-4.79c1.75-2,4.83-2.63,5.5.95s1.39,9,3.45,11.19,6.42,1.61,14.5,8.36,13.42,11.66,23.75,12.08,16.75,1.58,27.75-1.33,28-11.25,47.59-8,24.91,6.33,35.66,14.41S244.33,110,250,128.42s2.25,28.83,14.42,37.75,21.83,13.41,22,22.66S277.33,200,270.17,200Z" transform="translate(0 0)" fill="#ccc"/></g></g><g id="frame"><rect id="frame-2" width="300" height="200" fill="none"/></g></svg>