<svg xmlns="http://www.w3.org/2000/svg" viewBox="0 0 30 20"><path d="M16.37,11.06c.61-.77.34-1.26.25-2.38s.3-1.94.14-2.17-.79.1-1.19,1.23a26.66,26.66,0,0,0-.81,3C14.62,11.34,15.41,12.29,16.37,11.06Z" transform="translate(0 0.02)" fill="#1e88e5" opacity="0.7"/><path d="M17.71,11c.55-.52,1.2-.49,1-1.29S18,8.32,17.92,7.48s-.46-1.18-.83-.74a2.79,2.79,0,0,0-.59,2.08c.07,1-.23,1.46-.07,2A.74.74,0,0,0,17.71,11Z" transform="translate(0 0.02)" fill="#1e88e5" opacity="0.7"/><path d="M18.93,10.51c.5,0,.75-.4,1.2-.44a.85.85,0,0,0,.81-.71c0-.35.33-.54.42-.93s.8-.43,1.08-.29,1.53.7,1.15,0-1.06-.3-1.68-.77-.55-1.15-1.43-1-1-.22-1.72,0a1.4,1.4,0,0,0-1,1.68c.15.81.18,1.36.48,1.5S18.38,10.5,18.93,10.51Z" transform="translate(0 0.02)" fill="#1e88e5" opacity="0.7"/><path d="M12,11.77c-.36-.1-.52-.14-.59-.37s0-.32-.06-.59-.15-.41-.12-.49a.11.11,0,0,1,.19,0c0,.06.06.52.11.54s.06-.08.06-.24,0-.28,0-.31-.11-.08,0-.1.13,0,.16,0,.08,0,.1,0,.1,0,.14,0-.06.23,0,.34.4.25.46.54a1.86,1.86,0,0,1,0,.68C12.39,11.84,12.19,11.81,12,11.77Z" transform="translate(0 0.02)" fill="#e53935" opacity="0.7"/><path d="M12.65,11.63a3.15,3.15,0,0,0,3.09-.3,3.64,3.64,0,0,0,.62-2.73c-.06-1.13-.3-2-.8-2.14a6.34,6.34,0,0,0-3,.63c-1.11.54-2,1.5-2.08,2.38S11.92,11.39,12.65,11.63Z" transform="translate(0 0.02)" fill="#ffb300" opacity="0.7"/><path d="M4,6.33c.13.24.28.32.72.16s.94-.06.94-.41-.31-.62-1-.54S3.94,6.16,4,6.33Z" transform="translate(0 0.02)" fill="#1e88e5" opacity="0.7"/><rect width="30" height="20" fill="none"/></svg>