<svg xmlns="http://www.w3.org/2000/svg" viewBox="0 0 30 20"><path d="M27,20A5.06,5.06,0,0,1,24,19a4,4,0,0,1-.58-.56s0,1.14-.17,1.32-.29.22-1.14.22-1-.35-.88-.5a1.29,1.29,0,0,1,.72-.4c.21,0,.36-.9.3-1.43s-.14-.82-.61-1S20.47,16,20.47,16s-.34.7-.54,1.18a8.69,8.69,0,0,1-.65,1.7,2.22,2.22,0,0,1-1.27.35c-.41,0-.83-.3-.51-.56s.47-.23.69-.42a2.81,2.81,0,0,0,.63-1.64c0-.62-.92-1.28-1.59-1.91a9.76,9.76,0,0,1-1.42-1.94s-.1.26-1.31.49-2.44.43-2.44.43a4.53,4.53,0,0,1-.26,1.17c-.23.56.18,2,.09,2.53a8.4,8.4,0,0,1-.5,2c-.19.3-.87.2-.87.2s.15.4-.92.4-1.35-.18-1.22-.5A.71.71,0,0,1,9,19c.26,0,.73-.65.77-1.23a16,16,0,0,0-.43-2.46A3.6,3.6,0,0,0,8,13.36C7.43,13,7,11.46,6.43,11A4.82,4.82,0,0,1,5.11,9.39c-.18-.45-.7-.51-1.33-.47a2.4,2.4,0,0,1-1.19-.1.37.37,0,0,1-.13-.26,3,3,0,0,0-.33-.18A.25.25,0,0,1,2,7.94c.19-.22.7-.61.92-.86a1.29,1.29,0,0,0,.34-.6,2.42,2.42,0,0,1,.65-.9c.23-.16.36-.4.37-1s0-.91.09-1,.35.32.42.45a1.66,1.66,0,0,1,.14.35,3.78,3.78,0,0,1,.35-.48c.17-.19.48-.26.55.1a2.64,2.64,0,0,0,.34,1.12c.21.22.65.16,1.45.83A3.67,3.67,0,0,0,10,7.15,7.91,7.91,0,0,0,12.78,7c1.1-.29,2.8-1.13,4.76-.8a6.36,6.36,0,0,1,3.57,1.44A13.8,13.8,0,0,1,25,12.82c.57,1.84.22,2.88,1.44,3.77s2.18,1.34,2.2,2.27S27.73,20,27,20Z" transform="translate(0 0.02)" fill="#ccc"/><rect width="30" height="20" fill="none"/></svg>