<!-- Copyright (c) 2022 Jan Stehno -->
<svg xmlns="http://www.w3.org/2000/svg" viewBox="0 0 300 200.05"><title>graywolf_body</title><g id="graywolf"><g id="body"><path d="M117.42,200c9,0,10.46,1,12-6.25s3.71-12,6-13.37,2-10.69,1.27-16.38-1.94-24.87-.69-29.37a43.1,43.1,0,0,1,2.06-6.19,78.82,78.82,0,0,0,22.44-1.31c11.38-2.5,11.06-3.07,18.94-3.44s8.31-1.63,8.31-1.63a41.59,41.59,0,0,0,12.5,16.32c9.31,7.5,21.25,18.06,21.25,24.87s-6.33,21.17-10.5,24.08-9.25,5.09-11,8-.5,4.72,10.5,4.72,13.42-1.47,15.08-7,6.09-20.91,8.59-26.75,1.91-7.16,0-10-4.75-11.25-4.75-11.25,5.83,7.92,10,11.67,4.83,15.5,2.16,19.83-8.16,3.75-10.41,6.42-5.5,6.58,2.33,6.58,14.58,2.17,18-.16,5.33-21.59,5.33-21.59,7.42,9.09,18.75,9.75,16.84-.66,10-10.58-4.08-19.92-7.91-25.58-10.92-15.75-12.59-28.59-1.83-22.5-13.5-33.58S230,58.5,216.5,55.17s-26.5-5.17-47.67-5-21.33,3.64-39.5,0-33.75-8.66-46.41-9a200.93,200.93,0,0,0-24.67,1s.19,1-6.25-2.25-11.19-8.88-10.06-1.31S43.5,49.94,43.5,49.94a58.81,58.81,0,0,0-10.94,7.94c-4.18,4.18-5.25,6.62-5.37,10.06s-.44,5.19-5.5,8.5-10.88,8.19-10.63,9.87,2.07,2.57,4.19,4,1.88,4.32,5.94,4.32,9.44-2.82,15.19-2.5,12.31,8.25,20.75,11.18,16,13.94,27.87,17.82,15,4.93,20.75,6.75,7.31,27.06,7.06,35.56-.37,18.31-4,20.37-10.5,3.75-11.75,6.38,0,4.12,3.82,4.5,5.06-.06,5.06-.06-.75,2.06.69,3.18S109.63,200,117.42,200Z" transform="translate(0 0)" fill="#ccc"/></g></g><g id="frame"><rect id="frame-2" width="300" height="200" fill="none"/></g></svg>