<!-- Copyright (c) 2022 - 2023 Jan Stehno -->
<svg xmlns="http://www.w3.org/2000/svg" viewBox="0 0 300 200"><title>grayfox_organs</title><g id="grayfox"><g id="organs"><path d="M149,108.69c5.22-6.84,4.19-13.88,5.19-17.88s-.5-12.37-5.56-11.43-10,10.25-13.32,15.75-8.75,14.62-6.81,18.75S140.13,120.31,149,108.69Z" transform="translate(0 0)" fill="#1e88e5" opacity="0.7"/><path d="M148.19,115.06c4-1.17,7.75,1.44,10.12-1.06s3.32-4.25,0-12.5-4.5-17-5.06-19.28-6.09-4.14-7.73,2.54-8.89,11.43-10.08,16.62S132.88,119.56,148.19,115.06Z" transform="translate(0 0)" fill="#1e88e5" opacity="0.7"/><path d="M167.06,117.24c5,.72,8.75-1.24,11.38-5.68s6.44-6,8.06-8,1.31-7.37,7.88-7.18,11.25.81,15.12,3.25,5.94-2.5-3.31-6.75-8.56.62-13.19-3.94-3.31-9.5-10.31-10.38-6.5-3.12-15.63-2.87-19,.94-16.31,7.94,4.56,11.62,5.5,16.37S158.69,116,167.06,117.24Z" transform="translate(0 0)" fill="#1e88e5" opacity="0.7"/><path d="M109.92,123.16c-4.91-.25-7-.39-8.37-2.62s-.52-3.31-1.87-5.89-2.76-4-2.52-4.74a1.68,1.68,0,0,1,2.37-.66c.59.59,1.84,5.21,2.45,5.3s.62-.89.3-2.55-.26-2.92-1-3.17-1.54-.54-.69-.89,1.74,0,2-.47a.82.82,0,0,1,1.25-.33c.35.31,1.3-.27,1.86.1s-.31,2.47.57,3.48,5.67,1.73,6.93,4.55a15.94,15.94,0,0,1,1.39,6.94C114.53,123.17,111.91,123.26,109.92,123.16Z" transform="translate(0 0)" fill="#e53935" opacity="0.7"/><path d="M98.83,119c8.61,4,16.17,5.42,29.59,1.92S145.33,113,145.33,99s2.92-19.58-7.91-16.67-13.42,4-30,6-21.84,9-22.09,15.92S95.2,117.3,98.83,119Z" transform="translate(0 0)" fill="#ffb300" opacity="0.7"/><path d="M49.34,62c3.42-.43,9.79-.69,6.72-4.38s-10.25-2.5-12.25-.18S41.69,62.94,49.34,62Z" transform="translate(0 0)" fill="#1e88e5" opacity="0.7"/></g></g><g id="frame"><rect id="frame-2" width="300" height="200" fill="none"/></g></svg>