<!-- Copyright (c) 2023 Jan Stehno -->
<svg xmlns="http://www.w3.org/2000/svg" viewBox="0 0 300 200">
    <title>grizzlybear_organs</title>
    <g id="grizzlybear">
        <g id="organs">
            <path
                d="M217.75,155.81c5.41-1.95,7.31-4.5,10.13-11.12s5.25-13.06,5.06-16.94-1.31-6.62-5.31-6.94-10.07,4.19-14.19,11.75-7.13,14.07-4.06,19.32S216,156.45,217.75,155.81Z"
                transform="translate(0 0)" fill="#1e88e5" opacity="0.7" />
            <path
                d="M230.44,158.13c4.72-.51,9.06-1.88,8.25-5.75s-3.75-5.75-4.75-10.88l-1-5.12s-.25-8.69-2.5-11.13-6.73-1.57-8.77,2.72-4.61,11.16-7,16.09-4.5,10.61,2.37,12.18S227.72,158.42,230.44,158.13Z"
                transform="translate(0 0)" fill="#1e88e5" opacity="0.7" />
            <path
                d="M230.22,151.13c3.37.64,3.59,5.5,9.5,4.25s8.22-4.16,8.19-7.35.47-4.74,4.09-6.07,2.25-3.88,4.79-5.54,1.21-5.67,2.71-6.46,5.54,1.62,6.88,5,3-.34.54-4.5-6.55-4.38-10.25-7.09S249,118,244.13,118.75s-8.63.75-11,3.42-5.5,3.83-6,8.62-2.5,8.59-.33,11.29S228.27,150.75,230.22,151.13Z"
                transform="translate(0 0)" fill="#1e88e5" opacity="0.7" />
            <path
                d="M191.64,155.37c-2.77-.63-4-.94-4.61-2.92s-.12-2.82-.76-5.1-1.35-3.56-1.18-4.2,1.07-.89,1.38-.34.77,4.52,1.11,4.66.4-.7.31-2.12,0-2.47-.38-2.74-.84-.59-.34-.81,1,.2,1.17-.22.54-.46.72-.17.76-.11,1.06.25-.31,2.05.14,3,3.12,2,3.69,4.41a19.61,19.61,0,0,1,.42,6C194.24,155.78,192.76,155.63,191.64,155.37Z"
                transform="translate(0 0)" fill="#e53935" opacity="0.7" />
            <path
                d="M195.72,153.81c9.76.31,16.12,3.25,18.78-4.87s5.62-13.19,7.08-20.52-1.58-8.75-7.29-8.21a194.49,194.49,0,0,0-22,4.08c-7.33,1.71-13.54,7-14.41,11.5s.71,10.13,4.58,13S191.06,153.67,195.72,153.81Z"
                transform="translate(0 0)" fill="#ffb300" opacity="0.7" />
            <path
                d="M131.75,122.91c2.43,2.45,4.06-1.07,6.22-1.5s4.28-1.53,3.69-4.6-3.35-3.87-6.69-1.78S128.16,119.28,131.75,122.91Z"
                transform="translate(0 0)" fill="#1e88e5" opacity="0.7" />
            <path
                d="M48.81,111c4.68,2.48,11.62-2.12,15.91-4.62s13.47-2.69,13.66-6.75-2-8.13-10.5-8S51,91.5,47.56,95.44,41.38,107.06,48.81,111Z"
                transform="translate(0 0)" fill="#1e88e5" opacity="0.7" />
            <path
                d="M46.63,112.5c1,3.29,13.62,2.13,16.87.31s6-3.37,9.49-3.62,6.35-2.88,5.82-5.94-.75-3.25-.75-3.25-2.56-3.81-6.87-4S59.69,98.75,56,99.38,42.56,99.38,46.63,112.5Z"
                transform="translate(0 0)" fill="#1e88e5" opacity="0.7" />
            <path
                d="M61.88,140.94c-.72,2.74.93,6.87,2.31,2s1.19-7.5,3.87-8.19,2.82-4.37,5.38-5.62,1.25-6,2.87-7.5,2.94-8,1.25-10.63a11.63,11.63,0,0,0-9.5-4.75c-3.93.06-6.37,1.13-10.87.56s-7.19,1.5-8.25,5.75,3.12,7.75,3.25,9.69,2.56,5.63,2.44,7.5,2,5,4.17,5.81S63.25,135.63,61.88,140.94Z"
                transform="translate(0 0)" fill="#1e88e5" opacity="0.7" />
            <path
                d="M55.75,66c5.45-.39,1.83,10.42,2.25,18.42s1,17.33-6.08,18.66-9.59.92-9.67-11.5S47.67,66.58,55.75,66Z"
                transform="translate(0 0)" fill="#ffb300" opacity="0.7" />
            <path
                d="M67.76,65.39c-5.45-.39-1.83,10.42-2.25,18.42s-1,17.33,6.09,18.66,9.58.92,9.66-11.5S75.85,66,67.76,65.39Z"
                transform="translate(0 0)" fill="#ffb300" opacity="0.7" />
            <path
                d="M55.19,81.5c.11,2.72,3.81,4.06,6.22,4.19A9,9,0,0,0,68.19,82a3.08,3.08,0,0,0-2.06-4.62c-2.41-.6-3.19.31-6.16.81S55.13,80,55.19,81.5Z"
                transform="translate(0 0)" fill="#e53935" opacity="0.7" />
            <path
                d="M45.21,27.88c1.88,1.69,3.54.62,6.08-.84s4.38-2.21,3.79-4.46-3.62-3.87-5.75-2.7-4.7,3.37-4.95,5S44.33,27.08,45.21,27.88Z"
                transform="translate(0 0)" fill="#1e88e5" opacity="0.7" />
        </g>
    </g>
    <g id="frame">
        <rect id="frame-2" width="300" height="200" fill="none" />
    </g>
</svg>