<svg xmlns="http://www.w3.org/2000/svg" viewBox="0 0 30 20"><path d="M18.27,20c.91,0,.79-.14,1-.29s.55-.13.64-.31A4.46,4.46,0,0,0,20.56,18a6.51,6.51,0,0,0-.1-1.42,4,4,0,0,0,1.44.08,8,8,0,0,1,1.63-.31c.22.07.41.53.45,1s.15.9,0,1a1.49,1.49,0,0,0-.54.38c-.06.1-.2.09-.36.23s-.17.37-.1.34.11-.15.13-.07,0,.05.19,0,.16,0,.42.08a3.56,3.56,0,0,0,1.13.07c.41-.06.48-.05.65-.24s.48-.31.38-.54a.53.53,0,0,1,0-.44s.24.48.2.64a.55.55,0,0,1-.38.36c-.21.06-.16.21-.28.25s-.42.26-.4.4.08.13.18.05,0,0,.18,0,.3-.09.32,0a.09.09,0,0,0,.17,0c.05-.06.12-.06.29,0a2.51,2.51,0,0,0,1,.1c.63,0,.91-.33.95-.74a2.66,2.66,0,0,0-.15-1c-.08-.44.08-.84-.17-1.27a2.72,2.72,0,0,1,.1-1.69,4.26,4.26,0,0,0,0-2A5.16,5.16,0,0,0,26,10.9a4.18,4.18,0,0,0-2.66-.33c-.87.13-2.2.11-2.64.19s-1.57-.53-2.22-.57-.75.19-1.38.31-.53.39-1,.3a5,5,0,0,0-1.42-.19c-.33.07-.57,0-.73,0l-.15,0a.94.94,0,0,1-.33-.09c-.22-.08-.32-.11-.42,0a.52.52,0,0,0-.13.44c0,.18,0,.3,0,.35a1.65,1.65,0,0,0-.54.49c-.1.21,0,.39-.19.47s-.77.47-.94.52a.2.2,0,0,0-.07.34c.1.12.09.33.18.34a.67.67,0,0,1,.19.06s-.11,0-.07.11.1.19.41.18.81-.08,1.07.16a2.91,2.91,0,0,0,1.45.29,2.76,2.76,0,0,1,1.42.53A2.87,2.87,0,0,0,17,15.4c.37,0,.21.11.32.47a6.27,6.27,0,0,1,.44,1.61c0,.65.25.64.16,1.11s-.1.47-.25.51a.67.67,0,0,0-.35.2c0,.06-.5.12-.59.23s-.17.29-.05.25a1.39,1.39,0,0,1,.28-.1s0,.16.11.1.14-.15.23-.1A1.75,1.75,0,0,0,18.27,20Z" transform="translate(0 0.02)" fill="#ccc"/><path d="M9.5,20c.89,0,1-.22.84-.56a4.72,4.72,0,0,1-.58-1.56,17.82,17.82,0,0,0-.18-2.47A8.69,8.69,0,0,0,9,14.14c-.24-.55-.36-.91-.36-.91s.3,0,.66-.44a2.16,2.16,0,0,0,.64-1.7A8.37,8.37,0,0,0,9.82,9,11.33,11.33,0,0,0,9,6.38a10.38,10.38,0,0,1-.82-1.47,8,8,0,0,1-.58-1,6.29,6.29,0,0,0-.73-1.75,4,4,0,0,0-.59-.37.8.8,0,0,1,0-.42c.07-.25.14-.6,0-.76S6,.44,5.73.69s-.09.59-.3.62a1.25,1.25,0,0,0-.63.14,2,2,0,0,1-.57.35L3.77,2a1,1,0,0,0-.35-.09c-.19,0-.35.07-.32.22s.16.27.17.47a6.52,6.52,0,0,0,.18,1.15c.11.34.31.41.37.9a3.51,3.51,0,0,1-.43,2,6.17,6.17,0,0,0-.66,2.57A6.86,6.86,0,0,0,3,12.05a1.3,1.3,0,0,0,.64.5,6.63,6.63,0,0,1-.47,1.34,9.32,9.32,0,0,0-.59,2.42c-.13.8-.17,2.28-.28,2.53s-.4.3-.49.54-.19.6.77.6,1.15-.3,1.16-.62a1.88,1.88,0,0,1,.6-1.23c.44-.45.43-1,.76-1.55s.55-.94.87-1.06A.9.9,0,0,1,7,16a8.75,8.75,0,0,1,.72,1.74c.1.43.76,1.13.75,1.41S8.61,20,9.5,20Z" transform="translate(0 0.02)" fill="#ccc"/><rect width="30" height="20" fill="none"/></svg>