<!-- Copyright (c) 2022 Jan Stehno -->
<svg xmlns="http://www.w3.org/2000/svg" viewBox="0 0 300 200"><title>grizzlybear_body</title><g id="grizzlybear"><g id="body"><path d="M182.72,200c9.12,0,7.87-1.31,9.78-2.81s5.5-1.35,6.41-3.13,6.09-8.62,6.72-13.75-1-14.12-1-14.12,8.06,1.94,14.37.75,14.13-3.75,16.31-3.06,4.07,5.31,4.5,10.12,1.5,9.06,0,9.63-4.89,2.85-5.44,3.83-2,.87-3.56,2.25-1.75,3.69-1,3.46,1.08-1.48,1.36-.73.37.48,1.83,0,1.65.19,4.25.81a33,33,0,0,0,11.24.66c4.12-.57,4.83-.44,6.56-2.33s4.72-3.18,3.78-5.45a5.13,5.13,0,0,1,.36-4.34s2.43,4.79,2,6.34a5.38,5.38,0,0,1-3.83,3.64c-2.07.58-1.61,2-2.8,2.48s-4.23,2.6-4,4,.84,1.27,1.8.46.43.56,1.85,0,3-.9,3.12-.09a1,1,0,0,0,1.71.46c.54-.64,1.27-.62,2.94,0s3.54.92,9.88.92,9.08-3.25,9.54-7.37-.73-5.38-1.54-9.79.81-8.43-1.63-12.68-.22-12.85,1-16.88a41.6,41.6,0,0,0,0-20c-2-7.5-11.54-19.42-19.29-24s-17.77-4.66-26.52-3.35-22,1.06-26.44,1.87-15.69-5.31-22.19-5.68S177.33,104,171,105.29s-5.21,3.84-10.33,3-10.9-2.63-14.23-1.92-5.67-.12-7.25.36l-1.59.48a11.7,11.7,0,0,1-3.31-.9c-2.17-.85-3.13-1.1-4.17.1a5.11,5.11,0,0,0-1.24,4.35c.25,1.81.38,3-.25,3.5s-4.42,2.7-5.42,4.88-.23,4-1.88,4.75-7.73,4.68-9.38,5.24-1.66,2.22-.69,3.38.84,3.31,1.75,3.37a6.45,6.45,0,0,1,1.94.57s-1.1.47-.75,1.15,1.06,1.88,4.15,1.78,8.07-.8,10.73,1.62,9,2.46,14.5,2.92a27.26,27.26,0,0,1,14.13,5.29,28.7,28.7,0,0,0,12.62,5.08c3.75.46,2.13,1.12,3.17,4.71s4.1,9.48,4.42,16,2.5,6.44,1.62,11.13-1,4.75-2.48,5.15a7.38,7.38,0,0,0-3.5,1.92c-.43.64-5,1.27-5.91,2.38s-1.7,2.87-.48,2.45,2.39-1.05,2.79-.95,0,1.56,1,.95,1.43-1.48,2.39-.94A17.81,17.81,0,0,0,182.72,200Z" transform="translate(0 0)" fill="#ccc"/><path d="M95,200c8.88,0,10.13-2.12,8.38-5.56s-4.5-7.78-5.82-15.6.62-17.63-1.8-24.67-3.41-7-5.85-12.54-3.63-9.07-3.63-9.07,2.94.07,6.57-4.43,7.06-8.63,6.37-17,1.31-13.07-1.06-20.75S95,71.31,90.38,64a110,110,0,0,1-8.21-14.67c-1.84-4-5.34-7.75-5.75-10.25S71.17,23.13,69.13,21.5a51.13,51.13,0,0,0-5.88-3.67,7.68,7.68,0,0,1,0-4.17c.63-2.47,1.34-6-.09-7.63s-3-1.4-5.85,1.1-.9,5.93-3,6.25-4.15-.13-6.34,1.34S45.63,17,42.34,18.28s-4.62,1.91-4.62,1.91a9.16,9.16,0,0,0-3.5-.91c-1.88-.06-3.53.66-3.22,2.19s1.59,2.66,1.75,4.66.63,8.18,1.72,11.56,3.09,4.09,3.78,9-.56,12.37-4.31,19.69a62.26,62.26,0,0,0-6.69,25.68c-.5,9.94.25,24.63,3.19,28.69a13.09,13.09,0,0,0,6.31,5s-1.81,8.19-4.69,13.38-4.56,16.25-5.87,24.25-1.69,22.75-2.75,25.31-4,2.94-4.94,5.31-1.94,6,7.75,6,11.5-2.94,11.56-6.12,1.5-7.75,5.94-12.32,4.38-10,7.69-15.56,5.5-9.37,8.69-10.56,7.5.94,9.87,4.81a85.37,85.37,0,0,1,7.17,17.42c1,4.29,7.66,11.25,7.5,14S86.1,200,95,200Z" transform="translate(0 0)" fill="#ccc"/></g></g><g id="frame"><rect id="frame-2" width="300" height="200" fill="none"/></g></svg>