<svg xmlns="http://www.w3.org/2000/svg" viewBox="0 0 30 20"><path d="M21.77,15.56c.55-.2.74-.45,1-1.12a4.84,4.84,0,0,0,.5-1.69c0-.39-.13-.66-.53-.69s-1,.42-1.42,1.17-.71,1.41-.4,1.93S21.6,15.62,21.77,15.56Z" transform="translate(0 0.02)" fill="#1e88e5" opacity="0.7"/><path d="M23,15.79c.48,0,.91-.19.83-.58s-.38-.57-.48-1.08l-.1-.52s0-.87-.25-1.11-.67-.16-.87.27-.46,1.12-.7,1.61-.45,1.06.24,1.22A4.38,4.38,0,0,0,23,15.79Z" transform="translate(0 0.02)" fill="#1e88e5" opacity="0.7"/><path d="M23,15.09c.34.06.36.55.95.42s.82-.41.82-.73.05-.48.41-.61.23-.39.48-.55.12-.57.27-.65.55.16.69.5.3,0,.05-.45-.65-.44-1-.71a1.73,1.73,0,0,0-1.26-.46c-.48.08-.86.08-1.09.34s-.55.39-.6.86-.25.86,0,1.13S22.83,15.05,23,15.09Z" transform="translate(0 0.02)" fill="#1e88e5" opacity="0.7"/><path d="M19.16,15.51c-.27-.06-.39-.09-.46-.29s0-.28-.07-.51-.14-.36-.12-.42.11-.09.14,0,.07.45.11.46,0-.07,0-.21,0-.25,0-.27-.08-.06,0-.08.09,0,.11,0a0,0,0,0,1,.08,0s.07,0,.1,0,0,.21,0,.3.31.19.36.44a2,2,0,0,1,.05.59C19.42,15.55,19.28,15.54,19.16,15.51Z" transform="translate(0 0.02)" fill="#e53935" opacity="0.7"/><path d="M19.57,15.36c1,0,1.61.32,1.88-.49a18,18,0,0,0,.71-2c.14-.74-.16-.88-.73-.82a19,19,0,0,0-2.2.4,2,2,0,0,0-1.44,1.15,1.34,1.34,0,0,0,.46,1.3A2.54,2.54,0,0,0,19.57,15.36Z" transform="translate(0 0.02)" fill="#ffb300" opacity="0.7"/><path d="M13.18,12.27c.24.24.4-.11.62-.15s.43-.16.37-.46-.34-.39-.67-.18S12.82,11.9,13.18,12.27Z" transform="translate(0 0.02)" fill="#1e88e5" opacity="0.7"/><path d="M4.88,11.08c.47.24,1.16-.22,1.59-.47s1.35-.27,1.37-.67-.2-.81-1-.8-1.69,0-2,.38A1,1,0,0,0,4.88,11.08Z" transform="translate(0 0.02)" fill="#1e88e5" opacity="0.7"/><path d="M4.66,11.23c.1.32,1.36.21,1.69,0a2.38,2.38,0,0,1,1-.37.56.56,0,0,0,.58-.59c0-.31-.07-.32-.07-.32a.94.94,0,0,0-.69-.4,8.88,8.88,0,0,0-1.52.33C5.23,10,4.26,9.91,4.66,11.23Z" transform="translate(0 0.02)" fill="#1e88e5" opacity="0.7"/><path d="M6.19,14.07c-.07.27.09.69.23.2s.12-.75.39-.82.28-.44.53-.56.13-.6.29-.75a1.18,1.18,0,0,0,.13-1.06,1.14,1.14,0,0,0-1-.48,6.35,6.35,0,0,1-1.09.06.68.68,0,0,0-.83.57c-.1.43.32.78.33,1s.26.56.24.75a.75.75,0,0,0,.42.58C6.09,13.61,6.32,13.54,6.19,14.07Z" transform="translate(0 0.02)" fill="#1e88e5" opacity="0.7"/><path d="M5.57,6.58c.55,0,.19,1,.23,1.84s.1,1.73-.61,1.86-1,.1-1-1.15S4.77,6.63,5.57,6.58Z" transform="translate(0 0.02)" fill="#ffb300" opacity="0.7"/><path d="M6.78,6.51c-.55,0-.19,1-.23,1.85s-.1,1.73.61,1.86,1,.09,1-1.15S7.58,6.57,6.78,6.51Z" transform="translate(0 0.02)" fill="#ffb300" opacity="0.7"/><path d="M5.52,8.13c0,.27.38.4.62.41a.87.87,0,0,0,.68-.36.31.31,0,0,0-.21-.46c-.24-.06-.32,0-.61.08S5.51,8,5.52,8.13Z" transform="translate(0 0.02)" fill="#e53935" opacity="0.7"/><path d="M4.52,2.76c.19.17.36.07.61-.08s.44-.22.38-.45A.44.44,0,0,0,4.93,2c-.21.12-.47.34-.49.5S4.43,2.68,4.52,2.76Z" transform="translate(0 0.02)" fill="#1e88e5" opacity="0.7"/><rect width="30" height="20" fill="none"/></svg>