<!-- Copyright (c) 2023 Jan Stehno -->
<svg xmlns="http://www.w3.org/2000/svg" viewBox="0 0 300 200">
    <title>hogdeer_body</title>
    <g id="hogdeer">
        <g id="body">
            <path
                d="M36.31,62.55c1-1.08,2.81-2,4.86-4.1s6-4.25,8.1-5.4a46.58,46.58,0,0,0,7.8-5.22,42.07,42.07,0,0,1,7.3-4.66,16.86,16.86,0,0,0,5.07-4.72c1.41-1.91,1.76-1.64,1.76-1.64s-.15-2.76,0-7.1a77.92,77.92,0,0,1,.89-12.18c.79-4.33,1.76-4.73,2.42-4.18s1.08,6.2,1.48,10.14,1.23,5.32,3.05,5.32,7.57-3.58,14.25-8.07,5.63-6.29,8-10.6c2.08-3.71,2.58-5.89,4.13-10.14h6.66c-1.08,3.14-2.08,5.61-2.08,5.61a13.19,13.19,0,0,1,5.34-.5,12,12,0,0,1,7.85,3.46c2.55,2.32,2.35,2.61.53,2.64s-5.19-1.61-8-1.58a12.39,12.39,0,0,0-8.18,3.87,41.41,41.41,0,0,0-4.52,6.33,24.72,24.72,0,0,1,12-.15c2.6.8,3,1.37,2,1.81s-5.06.22-9.72,1.14-7,3.92-8.75,6.86a14.34,14.34,0,0,1-5.38,4.74,16.38,16.38,0,0,1-.67,7.33c-1.3,3.31-2.26,4-2.26,4s9.91,14,13.78,21.29,8.79,9.79,14.48,10.32,10.68-2.23,19.41-2.4,10,2.46,15.89,1.58,10.15-1.46,19.83-2.34,25.8-2.17,38.93-2.64,14.43,2.17,17.95,5S243.78,82.84,251.7,88s8.15,8.86,11.26,16.48.58,15.88-.34,18.3a6.26,6.26,0,0,1-3.12,3.34,56.49,56.49,0,0,1-1.85,6.55c-1.54,4.75-5.37,8.18-10.25,12.54s-6.14,7.18-6.17,10.7,2.9,6.22,5.72,7.83,3.22,2.11,3.72,5,.53,1.82,1.29,5.13-.79,7.07-2.9,12.9c-1.14,3.15-1.47,8.52-1.52,13.22h-13c1.77-7.25,2-13.87-.27-20.46-2.75-8-12.84-15.6-17.82-19.88s-11.62-12.78-11.62-12.78-2.22,1.29-7.38,1.87-7.83,3.36-15.62,3.58-13.28-2.94-18.12-3.08-15.22-1.93-15.22-1.93a27.38,27.38,0,0,0-1.23,9.94c.35,5.54.49,16.45.53,21.33s-1.05,7.43-1.8,15.7c-.17,1.87-.25,3.81-.26,5.71H139a55.22,55.22,0,0,0-1.78-12.13c-.82-2.43-1-7.92-1-7.92a39.11,39.11,0,0,0-2.25,7.92c-.44,3.46-.18,5.22-.85,8.3a28.2,28.2,0,0,0-.51,3.83h-7.08c.5-1.83,1-3.79,1.37-5.74a53.11,53.11,0,0,0,.35-15.95c-.41-2.7-.29-2.64.41-7.27s-.06-10.79-.53-16.83-1.93-7.39-1.93-7.39-4.4-.94-11.32-3.23-7.86-5.51-10.32-9.73S99.35,123.3,92.78,117.5a79.67,79.67,0,0,1-16.2-19C71.65,90.63,71,82,69.91,79.47s-2.26-2.14-6.31-2.7a47.35,47.35,0,0,1-9.32-1.87c-2.58-.91-4.07-1.62-8-1.47s-5.21.15-6.68-1A3.53,3.53,0,0,1,38.13,70a1.88,1.88,0,0,0-.71-.24c-.29,0-.56-.41-1.67-2.34A4,4,0,0,1,36.31,62.55Z"
                transform="translate(0 0)" fill="#ccc" />
        </g>
    </g>
    <g id="frame">
        <rect width="300" height="200" fill="none" />
    </g>
</svg>