<!-- Copyright (c) 2023 Jan Stehno -->
<svg xmlns="http://www.w3.org/2000/svg" viewBox="0 0 300 200">
    <title>hogdeer_organs</title>
    <g id="hogdeer">
        <g id="organs">
            <path
                d="M248.91,100.49c1.3,2.15.62,3.73-1.46,4.34s-3.2-1-5.87-.64-3.93,1.43-6.18,1.23-2.5-.76-2.2,1-.68,6.06-3.14,7.3-3.78,4.34-4.66,7.12-4.72,4.9-7.48,7.59-8.33,3.52-10.5,1.71-5.69-2.23-7.44-3.87-3.93-6.87-5.69-9.39-4.75-2.23-7-8.5-4.75-12.55-1.53-16.24,7.8-4.64,15.37-3.93,14.89.11,19.94,1.35,10.85,8.79,13.25,8.67,3.69-1.23,7-.88S247.71,98.5,248.91,100.49Z"
                fill="#1e88e5" opacity="0.7" />
            <path
                d="M204.7,130.43c-1.21,3.29-9.5,4.88-18.21,4.71s-13.11-1.59-15.35-7a28.81,28.81,0,0,1,.81-21.9c3.57-7.51,6.86-14.07,9.79-13.9s6.8,10.08,12.55,17.24S206.66,125.06,204.7,130.43Z"
                fill="#1e88e5" opacity="0.7" />
            <path
                d="M188,118.73c-1.81,6.71-4.9,10.83-9.09,12.41s-10.32,2.72-12.84-1.33-3.58-13.19-.47-21.46,6.51-16.24,11.85-17.65,9.38,1.41,11.08,5.75S189.77,112.22,188,118.73Z"
                fill="#1e88e5" opacity="0.7" />
            <path
                d="M141.34,143.8c-4.83-.65-6.91-1-8.09-3.45s-.31-3.59-1.48-6.46-2.47-4.45-2.19-5.28a1.57,1.57,0,0,1,2.38-.52c.55.68,1.49,5.72,2.09,5.87s.67-.91.46-2.71-.08-3.15-.74-3.48-1.49-.7-.63-1,1.72.19,2-.35a.79.79,0,0,1,1.26-.26c.33.36,1.31-.19,1.84.25s-.47,2.63.34,3.78,5.48,2.3,6.55,5.41a18.57,18.57,0,0,1,.92,7.54C145.88,144.16,143.3,144.06,141.34,143.8Z"
                fill="#e53935" opacity="0.7" />
            <path
                d="M174.26,110.73c-3.42,13.2-3.25,16.36-7.92,20.23s-14.07,6.15-26.56,4.92-15.31-7-16.54-12.84.2-13.11,6.3-17.5,21.68-10.82,32.05-13.81S180.68,86,174.26,110.73Z"
                fill="#ffb300" opacity="0.7" />
            <path
                d="M85.42,48.07c.13,2.53-1.29,5.16-4.69,4.19s-6.28-2-8.94-2.52a4.41,4.41,0,0,1-3.23-5.1c.41-1.62,4.81-3.35,6.8-3.32S85.1,42,85.42,48.07Z"
                fill="#1e88e5" opacity="0.7" />
        </g>
    </g>
    <g id="frame">
        <rect width="300" height="200" fill="none" />
    </g>
</svg>