<svg xmlns="http://www.w3.org/2000/svg" viewBox="0 0 30 20"><path d="M3.63,6.23c.11-.11.28-.2.49-.41a4.39,4.39,0,0,1,.81-.54,4.57,4.57,0,0,0,.78-.52,4.84,4.84,0,0,1,.73-.47,1.6,1.6,0,0,0,.5-.47c.14-.19.18-.16.18-.16s0-.28,0-.71a7.08,7.08,0,0,1,.09-1.22c.08-.43.18-.47.24-.42a4.21,4.21,0,0,1,.15,1c0,.4.12.54.3.54a5.35,5.35,0,0,0,1.43-.81c.67-.45.56-.63.8-1.06a6.11,6.11,0,0,0,.42-1h.66C11.1.29,11,.54,11,.54a1.35,1.35,0,0,1,.54-.05,1.18,1.18,0,0,1,.78.34c.26.23.24.26.06.27s-.52-.16-.8-.16a1.2,1.2,0,0,0-.82.39,3.57,3.57,0,0,0-.45.63,2.44,2.44,0,0,1,1.2,0c.26.08.3.14.19.18s-.5,0-1,.12a1.27,1.27,0,0,0-.87.68,1.41,1.41,0,0,1-.54.48,1.63,1.63,0,0,1-.07.73A1.19,1.19,0,0,1,9,4.54s1,1.39,1.37,2.12a1.72,1.72,0,0,0,1.45,1c.57,0,1.07-.23,1.94-.24s1,.24,1.59.15,1-.14,2-.23,2.58-.22,3.9-.26,1.44.21,1.79.49,1.33.65,2.12,1.17.81.88,1.13,1.64a2.67,2.67,0,0,1,0,1.83.61.61,0,0,1-.31.34,4.92,4.92,0,0,1-.19.65,3.06,3.06,0,0,1-1,1.26,1.37,1.37,0,0,0-.62,1.07,1,1,0,0,0,.57.78c.29.16.33.21.38.5a4.79,4.79,0,0,0,.13.51,2.61,2.61,0,0,1-.29,1.29A4.7,4.7,0,0,0,24.75,20h-1.3a3.48,3.48,0,0,0,0-2.05,5.76,5.76,0,0,0-1.78-2,11.2,11.2,0,0,1-1.16-1.28,2,2,0,0,1-.74.19,8.67,8.67,0,0,1-1.56.36,13.83,13.83,0,0,1-1.81-.31,14.83,14.83,0,0,1-1.53-.19,2.9,2.9,0,0,0-.12,1c0,.56,0,1.65,0,2.13a15.66,15.66,0,0,1-.18,1.57c0,.19,0,.39,0,.58h-.68a5.8,5.8,0,0,0-.17-1.22,3.39,3.39,0,0,1-.1-.79,4.35,4.35,0,0,0-.23.79c0,.35,0,.52-.08.83a2.3,2.3,0,0,0-.05.39h-.71a5.43,5.43,0,0,0,.13-.58,5.12,5.12,0,0,0,0-1.59,1.74,1.74,0,0,1,0-.73,8.12,8.12,0,0,0,0-1.68c-.05-.61-.2-.74-.2-.74s-.43-.1-1.13-.32-.78-.56-1-1a5.09,5.09,0,0,0-1.07-1.63,8.07,8.07,0,0,1-1.62-1.9A7.21,7.21,0,0,1,7,7.92c-.1-.25-.22-.21-.63-.27a4.51,4.51,0,0,1-.93-.18,1.57,1.57,0,0,0-.8-.15c-.38,0-.52,0-.67-.1A.39.39,0,0,1,3.81,7a.15.15,0,0,0-.07,0s-.05,0-.16-.23A.4.4,0,0,1,3.63,6.23Z" transform="translate(0 0.02)" fill="#ccc"/><rect width="30" height="20" fill="none"/></svg>