<svg xmlns="http://www.w3.org/2000/svg" viewBox="0 0 30 20"><path d="M24.89,10c.13.22.06.38-.15.44s-.31-.1-.58-.07-.39.15-.62.13-.25-.08-.22.1a.82.82,0,0,1-.31.73,1.13,1.13,0,0,0-.47.71c-.09.28-.47.49-.75.76a.94.94,0,0,1-1.05.17c-.21-.18-.57-.22-.74-.38a8,8,0,0,1-.57-.94c-.18-.26-.48-.23-.7-.85s-.47-1.26-.15-1.63.78-.46,1.53-.39,1.49,0,2,.13,1.08.88,1.32.87a3.25,3.25,0,0,1,.71-.09A1,1,0,0,1,24.89,10Z" transform="translate(0 0.02)" fill="#1e88e5" opacity="0.7"/><path d="M20.47,13c-.12.33-.95.49-1.82.47s-1.31-.16-1.54-.7a2.94,2.94,0,0,1,.08-2.19c.36-.75.69-1.41,1-1.39s.68,1,1.26,1.72S20.67,12.48,20.47,13Z" transform="translate(0 0.02)" fill="#1e88e5" opacity="0.7"/><path d="M18.8,11.85a1.66,1.66,0,0,1-.91,1.24c-.42.16-1,.27-1.28-.13a2.76,2.76,0,0,1-.05-2.15c.31-.83.65-1.62,1.19-1.76a.88.88,0,0,1,1.1.57A4.84,4.84,0,0,1,18.8,11.85Z" transform="translate(0 0.02)" fill="#1e88e5" opacity="0.7"/><path d="M14.13,14.36c-.48-.07-.69-.1-.81-.35s0-.36-.14-.65-.25-.44-.22-.52a.16.16,0,0,1,.24-.06c.05.07.15.58.2.59s.07-.09,0-.27,0-.31-.07-.35-.15-.07-.07-.1.18,0,.21,0a.07.07,0,0,1,.12,0s.13,0,.19,0-.05.26,0,.37.55.23.66.55a1.94,1.94,0,0,1,.09.75C14.59,14.39,14.33,14.38,14.13,14.36Z" transform="translate(0 0.02)" fill="#e53935" opacity="0.7"/><path d="M17.43,11.05c-.35,1.32-.33,1.63-.8,2a3.69,3.69,0,0,1-2.65.49c-1.25-.12-1.53-.7-1.66-1.28A1.71,1.71,0,0,1,13,10.53a13.62,13.62,0,0,1,3.21-1.38C17.2,8.85,18.07,8.57,17.43,11.05Z" transform="translate(0 0.02)" fill="#ffb300" opacity="0.7"/><path d="M8.54,4.78c0,.26-.13.52-.47.42S7.45,5,7.18,5a.43.43,0,0,1-.32-.51c0-.16.48-.33.68-.33S8.51,4.18,8.54,4.78Z" transform="translate(0 0.02)" fill="#1e88e5" opacity="0.7"/><rect width="30" height="20" fill="none"/></svg>