<!-- Copyright (c) 2023 Jan Stehno -->
<svg xmlns="http://www.w3.org/2000/svg" viewBox="0 0 300 200">
    <title>iberianmouflon_body</title>
    <g id="iberianmouflon">
        <g id="body">
            <path
                d="M116.17,200H129.5s.71-12.21,2.54-18,2.71-13.71,3.09-16.46.91-5.45.91-5.45a192.89,192.89,0,0,0,32.52.31c17.44-1.38,25.19-5.88,28.63-5.5s5.5,3,7.5,1.87a7,7,0,0,1,3.62-1s.88,5.13,8.07,9.32,21.75,13.68,24.81,17.37,9.44,3.5,9.44,7.44S246.81,200,246.81,200h19.38s1.25-7.75,4.62-12.31,6.57-8.44-.43-14.56-16-15.84-16-22.84,7.45-11.37,10.2-15.5a133.2,133.2,0,0,0,7.5-12.46,21,21,0,0,0,2-8.08s1.17,9.33,2.34,12,6.16-3.67,2.41-16.33-15.08-25.59-22.5-30.84S235,67,210.5,66.5s-39.5,3.5-59,4-18-5.67-28.67-5.67S95.17,73,91.33,72.67s-5.64-6.54-5.64-6.54,1.44-.57,2.62-7.57-.06-22.31-7-30.81S67.58,14.58,60.92,13.17,45.58,15,41.75,21.08,35.08,42.5,35.08,42.5s-1.08-.39-1.75,5.17c-.79,6.59-1.08,8.41-5.08,12S21.75,69,18.08,74.5s-5.33,7.83-4.58,10.92,1.83,5.58,3,6,3.67,1.16,3.67,1.16,2.66,4,6.75,2.5,6.83-2.75,10.66-3.25a25.86,25.86,0,0,0,8.17-3.08s2.58,16.42,11.75,26.92,18.17,18.16,22.5,20.5,5.33,9.33,11.5,14.66,22.33,10.84,22.33,10.84,2.67,11,2.92,19.58S116.17,200,116.17,200Z"
                transform="translate(0 0)" fill="#ccc" />
        </g>
    </g>
    <g id="frame">
        <rect id="frame-2" width="300" height="200" fill="none" />
    </g>
</svg>