<svg xmlns="http://www.w3.org/2000/svg" viewBox="0 0 30 20"><path d="M17.64,14.53c.66-.42.41-1.52.59-2.65s.29-2.24-.19-2.63-1.68.5-1.83,1.71-.4,2.69.06,3.4S17.3,14.74,17.64,14.53Z" transform="translate(0 0.02)" fill="#1e88e5" opacity="0.7"/><path d="M19.29,15.05c1-.14,1.92-.3,1.48-1a6,6,0,0,1-1.41-2.68c-.2-1.34-.32-2.31-1-2.4s-1.12,1.29-1.24,2.28-.44,2.53.24,3.21A2.1,2.1,0,0,0,19.29,15.05Z" transform="translate(0 0.02)" fill="#1e88e5" opacity="0.7"/><path d="M22.25,14.37a2.15,2.15,0,0,0,1.87-1.45l.23-.76a1.81,1.81,0,0,0,.72-1.2c.07-.74-.14-1.41.16-1.44s.75-.34.95-.24.76.29.45-.12a1.06,1.06,0,0,0-1.2-.38c-.42.15-1-.42-1.69-.2s-1.44-.1-2.57-.17S19.25,8.39,19,9s.27,2,.44,2.81a4.53,4.53,0,0,0,1.37,2.33C21.44,14.66,21.71,14.43,22.25,14.37Z" transform="translate(0 0.02)" fill="#1e88e5" opacity="0.7"/><path d="M12.38,14.5c-.5-.12-.72-.18-.81-.5s0-.43-.09-.79-.22-.56-.18-.66.21-.13.26,0,.1.71.16.73.08-.1.07-.32,0-.38,0-.43-.15-.1-.05-.13.17,0,.21,0a.09.09,0,0,1,.14,0s.14,0,.19,0-.08.32,0,.46.56.34.64.72a2.6,2.6,0,0,1,0,.92C12.86,14.59,12.58,14.56,12.38,14.5Z" transform="translate(0 0.02)" fill="#e53935" opacity="0.7"/><path d="M13,15.09c1.29.16,2.83.37,3.24-.19a6.64,6.64,0,0,0,.48-3.1c0-1.14.37-1.8-.67-2a6.47,6.47,0,0,0-3.81.65,3.34,3.34,0,0,0-1.4,2.83C10.91,14.16,11.24,14.86,13,15.09Z" transform="translate(0 0.02)" fill="#ffb300" opacity="0.7"/><path d="M4.75,6.47c.41.42,1-.34,1.36-.42s1-.33.67-.72S5.26,5.05,5,5.33,4.27,6,4.75,6.47Z" transform="translate(0 0.02)" fill="#1e88e5" opacity="0.7"/><rect width="30" height="20" fill="none"/></svg>