<svg xmlns="http://www.w3.org/2000/svg" viewBox="0 0 30 20"><path d="M28.19,14.69c-.67.07-.74-.06-1.19-1.26A13.45,13.45,0,0,1,26.43,10a6.61,6.61,0,0,0-2.05-3.9,6.55,6.55,0,0,0-5.08-2c-2.79,0-3.89.41-5.51.41a11.61,11.61,0,0,1-4.41-.85A7,7,0,0,0,6.45,3a2.36,2.36,0,0,0-1,.27,1.78,1.78,0,0,1-.78-.42c-.37-.33-.54-.87-.65-.35A5.81,5.81,0,0,0,4,3.93a2.82,2.82,0,0,0-1,.64c-.5.49-.55,1.29-.73,1.57A7.9,7.9,0,0,1,1,7.38c-.35.24-.59.38-.25.6s.46.46.6.54a.68.68,0,0,0,.29.08s-.09.25.27.26,1-.18,1.72-.21A3.5,3.5,0,0,1,6,9.11a7.67,7.67,0,0,0,1.69,1.28c.62.25.55,1.11,1.45,1.5s1.39.29,1.64.81a5.15,5.15,0,0,1,.46,2.44,15.38,15.38,0,0,1,0,2.61c-.19.53-.5,1-1,1.09s-.46.28-.47.46.31.34.6.34h.3s0,.34,1.23.34c.86,0,1-.06,1.19-.57s.33-1.29.47-1.36.22-.37.09-1.3a18.93,18.93,0,0,1-.17-3.26,5.81,5.81,0,0,1,.29-1,12.26,12.26,0,0,0,2-.21c.9-.19,1.33-.66,2.18-.76a6.41,6.41,0,0,0,1.27-.25,2.23,2.23,0,0,0,.31,1.17,18.75,18.75,0,0,1,1.82,1.63,2.69,2.69,0,0,1,.78,2.15,13.1,13.1,0,0,1-.75,2.52c-.21.14-1.13.34-1.13.74s.18.47,1.13.47,1.05-.12,1.23-.76.54-1.63.81-2.33.6-1,.44-1.33S23.3,14,23.31,14a8.54,8.54,0,0,1,.94,2c.26,1,.35,1.75.13,1.93s-1,.12-1,.58.56.44,1.16.44,1,.07,1.11-.79.23-2.36.23-2.36a2.06,2.06,0,0,0,1.58.22c.89-.24,1.51-.15,1.5-.58S28.87,14.63,28.19,14.69ZM24.11,9.76a6.52,6.52,0,0,0-.17,2,4.17,4.17,0,0,0,.11.81,1.86,1.86,0,0,1-.29-.76c0-.43.07-1.15.08-1.74a3.06,3.06,0,0,1,.23-1.21S24.28,8.94,24.11,9.76Z" transform="translate(0 0.02)" fill="#ccc"/><rect width="30" height="20" fill="none"/></svg>