<!-- Copyright (c) 2023 Jan Stehno -->
<svg xmlns="http://www.w3.org/2000/svg" viewBox="0 0 300 200">
    <title>iberianmouflon_organs</title>
    <g id="iberianmouflon">
        <g id="organs">
            <path
                d="M176.38,145.5c6.6-4.16,4.12-15.12,5.87-26.5s3-22.37-1.87-26.25-16.75,5-18.25,17.13-4,26.87.62,34S173,147.63,176.38,145.5Z"
                transform="translate(0 0)" fill="#1e88e5" opacity="0.7" />
            <path
                d="M192.88,150.75c10.22-1.41,19.25-3,14.87-9.75s-12.12-13.37-14.12-26.75-3.28-23.12-9.83-24S172.63,103.13,171.38,113s-4.38,25.38,2.37,32.13S188.07,151.41,192.88,150.75Z"
                transform="translate(0 0)" fill="#1e88e5" opacity="0.7" />
            <path
                d="M222.5,143.92c9.27-1,16.33-6.92,18.67-14.5l2.33-7.59s6.58-4.58,7.25-12-1.42-14.08,1.58-14.41,7.5-3.42,9.42-2.34,7.67,2.83,4.58-1.25a10.62,10.62,0,0,0-12.08-3.75c-4.17,1.42-10-4.25-16.83-2S223,85,211.67,84.33s-19.17-.16-21.5,6.34,2.71,20,4.4,28.07,7.65,18.44,13.75,23.27S217.08,144.5,222.5,143.92Z"
                transform="translate(0 0)" fill="#1e88e5" opacity="0.7" />
            <path
                d="M123.82,145.28c-5-1.28-7.17-1.87-8.16-5s0-4.36-.88-7.95-2.14-5.63-1.76-6.61,2-1.25,2.56-.38,1,7.07,1.58,7.31.8-1,.77-3.23.24-3.81-.42-4.27-1.49-1-.55-1.28,1.78.41,2.17-.21,1-.65,1.35-.18,1.39-.1,1.9.49-.76,3.12,0,4.59,5.53,3.34,6.33,7.21a25.75,25.75,0,0,1,.19,9.21C128.56,146.19,125.85,145.8,123.82,145.28Z"
                transform="translate(0 0)" fill="#e53935" opacity="0.7" />
            <path
                d="M130.13,151.13c12.84,1.63,28.25,3.75,32.37-1.88s4.75-19.62,4.75-31,3.75-18-6.62-20.37-28.88,1-38.13,6.5-14.62,19-14,28.25S112.37,148.87,130.13,151.13Z"
                transform="translate(0 0)" fill="#ffb300" opacity="0.7" />
            <path
                d="M47.5,64.92c4.07,4.21,10.17-3.34,13.58-4.17s9.59-3.33,6.75-7.25S52.58,50.75,50,53.5,42.67,59.92,47.5,64.92Z"
                transform="translate(0 0)" fill="#1e88e5" opacity="0.7" />
        </g>
    </g>
    <g id="frame">
        <rect id="frame-2" width="300" height="200" fill="none" />
    </g>
</svg>