<svg xmlns="http://www.w3.org/2000/svg" viewBox="0 0 30 20"><path d="M14.94,10.65c.1.56,1.18.84,1.66-.27A6.41,6.41,0,0,0,17,7.62c0-.83.43-1.44.08-1.64s-1.43,1.2-1.55,2.36S14.82,9.94,14.94,10.65Z" transform="translate(0 0.02)" fill="#1e88e5" opacity="0.7"/><path d="M18.27,10.44c.55-.33,1.2-.51.9-1.58S18.53,6.18,18.12,6,17,6.43,16.89,7.37a14.27,14.27,0,0,0-.23,2.85C16.82,10.79,17.18,11.09,18.27,10.44Z" transform="translate(0 0.02)" fill="#1e88e5" opacity="0.7"/><path d="M18.24,7.69c.1.75.12,1.18.4,1.29s.33,1.1.73,1,.8-.21.88-.58,1.28-.32,1.42-.74.54-.58.57-1a.45.45,0,0,1,.66-.36c.19.13,1.42.7.87-.11s-1-.33-1.5-.58-.49-.59-1.19-.76a1.88,1.88,0,0,0-1.49,0c-.34.23-.92-.08-1.17.42A2,2,0,0,0,18.24,7.69Z" transform="translate(0 0.02)" fill="#1e88e5" opacity="0.7"/><path d="M12.92,11.46c-.41,0-.6-.07-.71-.3s0-.34-.16-.61-.23-.42-.21-.5S12,9.93,12,10s.16.54.21.55.05-.09,0-.26,0-.3-.08-.33-.13-.06-.06-.09.15,0,.17,0,.08-.06.11,0,.11,0,.16,0,0,.25,0,.35.49.2.59.5a1.92,1.92,0,0,1,.12.71C13.32,11.48,13.09,11.48,12.92,11.46Z" transform="translate(0 0.02)" fill="#e53935" opacity="0.7"/><path d="M13.29,11.46c1.33.28,2.65,0,3.07-.85a6.07,6.07,0,0,0,.2-3.67c-.31-1-.49-1.24-2.22-.81s-3.1.81-3.61,2.16S11.68,11.13,13.29,11.46Z" transform="translate(0 0.02)" fill="#ffb300" opacity="0.7"/><path d="M3.84,5.39c.21.43.68.06,1.09,0s.8-.38.5-.71A1,1,0,0,0,4.2,4.59C3.91,4.84,3.67,5,3.84,5.39Z" transform="translate(0 0.02)" fill="#1e88e5" opacity="0.7"/><rect width="30" height="20" fill="none"/></svg>