<svg xmlns="http://www.w3.org/2000/svg" viewBox="0 0 30 20"><path d="M11.62,20H13a10.39,10.39,0,0,1,.25-1.8,9.05,9.05,0,0,0,.31-1.65c0-.27.09-.54.09-.54a19.06,19.06,0,0,0,3.26,0,28,28,0,0,0,2.86-.55c.34,0,.55.3.75.19a.61.61,0,0,1,.36-.1,1.54,1.54,0,0,0,.81.93,15.63,15.63,0,0,1,2.48,1.74c.31.36.94.35.94.74a2.67,2.67,0,0,1-.38,1h1.94a3.35,3.35,0,0,1,.46-1.24c.34-.45.66-.84,0-1.45s-1.6-1.59-1.6-2.29.74-1.13,1-1.55.56-.87.75-1.24a2.16,2.16,0,0,0,.2-.81,7.21,7.21,0,0,0,.23,1.2c.12.27.62-.37.24-1.63a6.66,6.66,0,0,0-2.25-3.09,8,8,0,0,0-4.58-1.25c-2.45,0-3.95.35-5.9.4s-1.8-.57-2.87-.57-2.76.82-3.15.78-.56-.65-.56-.65.14-.06.26-.76a4.51,4.51,0,0,0-.7-3.08,3.76,3.76,0,0,0-2-1.46,2,2,0,0,0-1.91.79,8.42,8.42,0,0,0-.67,2.15s-.11,0-.18.51-.1.84-.51,1.2a8.76,8.76,0,0,0-1,1.49c-.37.55-.54.78-.46,1.09s.18.56.3.6L2,9.23a.59.59,0,0,0,.67.25,4.78,4.78,0,0,1,1.07-.32,2.54,2.54,0,0,0,.81-.31,6.15,6.15,0,0,0,1.18,2.69A10.67,10.67,0,0,0,8,13.59c.43.24.53.94,1.15,1.47a9.38,9.38,0,0,0,2.23,1.08,11.7,11.7,0,0,1,.3,2C11.7,19,11.62,20,11.62,20Z" transform="translate(0 0.02)" fill="#ccc"/><rect width="30" height="20" fill="none"/></svg>