<!-- Copyright (c) 2022 Jan Stehno -->
<svg xmlns="http://www.w3.org/2000/svg" viewBox="0 0 300 200"><title>iberianwolf_organs</title><g id="iberianwolf"><g id="organs"><path d="M149.42,106.75c1,5.55,11.83,8.42,16.58-2.75s4.33-19.33,4.42-27.58,4.25-14.34.83-16.42-14.33,12-15.5,23.67S148.17,99.67,149.42,106.75Z" transform="translate(0 0)" fill="#1e88e5" opacity="0.7"/><path d="M182.67,104.67c5.53-3.32,12-5.09,9-15.84s-6.34-26.75-10.42-28.58-11.58,4.25-12.33,13.67-3.82,22.82-2.29,28.53S171.83,111.17,182.67,104.67Z" transform="translate(0 0)" fill="#1e88e5" opacity="0.7"/><path d="M182.42,77.17c1,7.5,1.16,11.75,4,12.91s3.25,10.92,7.25,10.42,8-2.08,8.83-5.75,12.83-3.25,14.17-7.42,5.41-5.83,5.75-9.75,4.66-5,6.58-3.66,14.17,7,8.75-1.09-9.67-3.25-15-5.75-5-5.91-12-7.62-11.44-2-14.85.33S186.7,59,184.18,64,181.78,72.22,182.42,77.17Z" transform="translate(0 0)" fill="#1e88e5" opacity="0.7"/><path d="M129.24,114.85c-4.19-.45-6-.67-7.13-3s-.44-3.4-1.58-6.09-2.34-4.16-2.13-5a1.29,1.29,0,0,1,2-.57c.5.62,1.55,5.4,2.07,5.52s.53-.89.27-2.6-.22-3-.8-3.29-1.32-.61-.59-.93,1.49.12,1.73-.41.77-.61,1.07-.28,1.12-.23,1.6.17-.28,2.52.47,3.59,4.83,2,5.89,4.92a19.24,19.24,0,0,1,1.15,7.16C133.17,115,130.94,115,129.24,114.85Z" transform="translate(0 0)" fill="#e53935" opacity="0.7"/><path d="M132.88,114.88c13.31,2.78,26.5-.13,30.75-8.5s5.12-26.63,2-36.75-4.88-12.38-22.25-8.13-31,8.13-36.13,21.63S116.75,111.5,132.88,114.88Z" transform="translate(0 0)" fill="#ffb300" opacity="0.7"/><path d="M38.38,54.13c2.08,4.32,6.83.62,10.87.2s8-3.75,5-7.12S44.83,43.58,42,46.13,36.71,50.67,38.38,54.13Z" transform="translate(0 0)" fill="#1e88e5" opacity="0.7"/></g></g><g id="frame"><rect id="frame-2" width="300" height="200" fill="none"/></g></svg>