<!-- Copyright (c) 2023 Jan Stehno -->
<svg xmlns="http://www.w3.org/2000/svg" viewBox="0 0 300 200">
    <title>iberianwolf_body</title>
    <g id="iberianwolf">
        <g id="body">
            <path
                d="M281.92,147.17c-6.75.66-7.42-.59-11.92-12.67s-4.25-22.42-5.75-34.5-8.79-29.21-20.42-39C231,50.21,220.88,41.13,193,41.13s-38.87,4.12-55.12,4.12-27-2.37-44.13-8.5-24-6.37-29.25-6.12a24,24,0,0,0-9.62,2.75,18.87,18.87,0,0,1-7.75-4.21c-3.71-3.34-5.46-8.71-6.55-3.5s-.2,13.83-.2,13.83a28.85,28.85,0,0,0-9.75,6.44c-5.07,4.87-5.5,12.87-7.32,15.69S13.5,71.69,10.06,74.06s-5.87,3.75-2.43,6,4.56,4.57,6,5.38a6.46,6.46,0,0,0,2.87.81s-.87,2.5,2.69,2.56,9.69-1.75,17.25-2.06,17-.87,23.87,4.56,10.63,10.38,16.88,12.88,5.5,11.06,14.5,15,13.94,2.81,16.37,8.06,4.94,12.33,4.61,24.42,2.25,20.83.33,26.08-5,10.17-9.5,10.88-4.58,2.83-4.67,4.62,3,3.42,6,3.42h3s-.54,3.33,12.34,3.33c8.56,0,9.53-.59,11.87-5.69s3.31-12.87,4.66-13.59,2.22-3.72,1-13-2.63-27.83-1.75-32.58a57.86,57.86,0,0,1,2.87-9.69,121.12,121.12,0,0,0,19.67-2.11c9-1.91,13.25-6.58,21.75-7.58a65.34,65.34,0,0,0,12.75-2.5s0,8.08,3.08,11.67,13.08,9.5,18.17,16.33,9.83,14.42,7.83,21.5-5.42,23.75-7.5,25.17-11.33,3.41-11.33,7.41S205,200,214.5,200s10.5-1.17,12.33-7.58,5.34-16.25,8.09-23.25,6-9.92,4.41-13.34-6.33-15.75-6.25-15.5,6.84,10.5,9.42,20.25,3.5,17.5,1.33,19.25-10.41,1.17-10.41,5.84,5.59,4.41,11.63,4.41,9.7.67,11-7.91,2.34-23.67,2.34-23.67a20.31,20.31,0,0,0,15.75,2.25c8.91-2.42,15.08-1.5,15-5.83S288.67,146.5,281.92,147.17ZM241.13,97.88c-1.69,8.18-2.19,13.81-1.75,19.62a44.8,44.8,0,0,0,1.13,8.19,18,18,0,0,1-2.88-7.69c-.44-4.25.68-11.44.81-17.31s1.25-10.5,2.31-12.19C240.75,88.5,242.81,89.69,241.13,97.88Z"
                transform="translate(0 0)" fill="#ccc" />
        </g>
    </g>
    <g id="frame">
        <rect id="frame-2" width="300" height="200" fill="none" />
    </g>
</svg>