<!-- Copyright (c) 2022 - 2023 Jan Stehno -->
<svg xmlns="http://www.w3.org/2000/svg" viewBox="0 0 300 200"><title>javanrusa_organs</title><g id="javanrusa"><g id="organs"><path d="M254.87,93.5c.28,1.49-.44,4.12-2.18,3.72s-3.34-1.66-5.87-.76a21.17,21.17,0,0,1-6.13,1.25c-1.77.12-.64.32-2.15,4.16s-4.83,4.88-6.22,9.18-3.6,7-6.68,8.77-5.41,4.77-9.3,4.42-4.54-1.16-7.79-2.21-6.34-4-7-6.33-3.43-4.71-6.11-6.45-6.45-14.47-6.1-17.79,2.62-7.15,10.93-7.32,13.95.41,19.41-.93,11.68.87,15.34,4.13,5.2,4.12,7.79,2.84S254,89.12,254.87,93.5Z" fill="#1e88e5" opacity="0.7"/><path d="M211.05,125.23c-1.51,2.68-11,4.47-18.13,4.3s-10.87.64-13.84-2.56a22,22,0,0,1-5.17-15.63c.52-6.16,7.85-20.63,10.11-22.61s5.18-.23,7.56,3.49,7.55,13.13,12,17.2S214,120.06,211.05,125.23Z" fill="#1e88e5" opacity="0.7"/><path d="M194.43,115.87c-1.11,5.83-4.42,8-8.84,9.88s-9.93,2.73-12.55.41-7.67-8.37-3.84-19,6.17-18.36,11.92-20.4,10.81-1.91,13.31,4.54S195.94,107.91,194.43,115.87Z" fill="#1e88e5" opacity="0.7"/><path d="M144.66,139.81c-5.3-.71-7.58-1.06-8.86-3.74s-.32-3.85-1.58-6.94-2.69-4.8-2.37-5.69a1.76,1.76,0,0,1,2.62-.55c.6.73,1.6,6.16,2.25,6.32s.74-1,.52-2.91-.07-3.39-.79-3.74-1.63-.76-.68-1.08,1.88.21,2.23-.37a.87.87,0,0,1,1.38-.27c.36.39,1.44-.2,2,.27s-.53,2.83.35,4.07,6,2.49,7.15,5.84a19.58,19.58,0,0,1,1,8.11C149.65,140.23,146.81,140.1,144.66,139.81Z" fill="#e53935" opacity="0.7"/><path d="M180.48,106.22c-3.34,13.42-5.64,20.46-14.88,22.84s-25,2.68-29.23,1-9.42-7.55-10.11-14,1.16-14.82,9.29-19.23,28.89-10.93,37.26-11.22S185.3,86.87,180.48,106.22Z" fill="#ffb300" opacity="0.7"/><path d="M86.74,38.21c.34,3.35-1.83,4.64-6.08,3.42s-6.27-2.12-9-2.39-3.54-3.05-3.08-4.85,4.16-3.92,8-3.78S86.1,31.88,86.74,38.21Z" fill="#1e88e5" opacity="0.7"/></g></g><g id="frame"><rect width="300" height="200" fill="none"/></g></svg>