<svg xmlns="http://www.w3.org/2000/svg" viewBox="0 0 30 20"><path d="M3.32,5.79A.28.28,0,0,0,3.56,6s-.11.15.09.29.29.32.69.2a2.74,2.74,0,0,1,1.23-.11,8.88,8.88,0,0,1,.95.08.41.41,0,0,1,.25.44c0,.18.11,2.1.16,1.68s.91,2.12.91,1.75S9,11.9,9.06,11.58s1.09.59,1.27.91a5.45,5.45,0,0,0,.9,1.51,1.91,1.91,0,0,0,1,.53l.39.05a7.31,7.31,0,0,1,.25,1.57c0,.56-.15.86-.13,1.39a8.62,8.62,0,0,1,0,1.77,4.68,4.68,0,0,1-.11.67h.89c0-.16,0-.34,0-.58A9.11,9.11,0,0,1,14,17.68a20.84,20.84,0,0,1,.33,2.09c0,.07,0,.14,0,.21h.89c0-.36,0-.72,0-.93,0-.4.21-.9.22-1.31s-.06-1.56,0-2,.09-1.18.09-1.18a10,10,0,0,1,2.05-.22,11.22,11.22,0,0,0,2.35.06c.61-.12,1.21-.2,1.21-.2a6.76,6.76,0,0,0,1,.83,8.69,8.69,0,0,1,2.12,2.07,3.14,3.14,0,0,1,.15,2.39c0,.16-.08.32-.12.5H25.7a10.15,10.15,0,0,1,.16-1.59c.14-.64.33-1.16.38-1.44s0-.43-.1-.45l-.18,0a.63.63,0,0,0-.09-.58c-.21-.22-.4-.17-.59-.32a1.93,1.93,0,0,1-.65-1.06A2.12,2.12,0,0,1,25.36,13c.42-.36.68.15.78.45s.17-.16.29-.34.17.29.24-.83.28-1.57.25-2.35.1-1.61-.39-2a19.6,19.6,0,0,0-3.37-1.49c-.68-.19-1.13,0-2.14-.16s-1.16,0-2.36.28-2.15.6-3.24.12a2.83,2.83,0,0,0-2.23-.32c-.55.19-1,.55-1.26.45s-.21-.53-.78-1A3.57,3.57,0,0,1,10,4.58a6.56,6.56,0,0,0-.91-1.26,2,2,0,0,0,.18-.57,2.51,2.51,0,0,0,.08-.59,4.61,4.61,0,0,1,1-.24A5.68,5.68,0,0,0,12,1.65,2.44,2.44,0,0,0,13.4.78c.16-.18.61-.64.77-.8H11.63a.21.21,0,0,1-.2.11c-.08,0-.06-.07,0-.11h-.21a.37.37,0,0,1-.32.16,8.17,8.17,0,0,0-2,.57,9.9,9.9,0,0,0-1.06.69.44.44,0,0,1-.58,0,2.05,2.05,0,0,1,0-.75c0-.21,0-.19-.08-.1a.54.54,0,0,1-.1.11,2.25,2.25,0,0,1,0-.63H6.79l0,.16a2,2,0,0,0,0,1.29,7.66,7.66,0,0,1,.22,1c0,.16,0,.19-.14.25s-.16.27-.35.39a4.45,4.45,0,0,0-.6.44A5.11,5.11,0,0,1,5.25,4a7.76,7.76,0,0,1-.66.45,3,3,0,0,1-.65.39.79.79,0,0,0-.55.37A.53.53,0,0,0,3.32,5.79ZM11.44.85a2.32,2.32,0,0,0,.76-.2l1-.39a2.6,2.6,0,0,1-.92.62A1.64,1.64,0,0,1,11.44.85Zm-2,.55a3.06,3.06,0,0,1,.81-.33A4.75,4.75,0,0,1,11.05.9s.09.18,0,.27-.15,0-.76.09Z" transform="translate(0 0.02)" fill="#ccc"/><rect width="30" height="20" fill="none"/></svg>