<!-- Copyright (c) 2022 - 2023 Jan Stehno -->
<svg xmlns="http://www.w3.org/2000/svg" viewBox="0 0 300 200"><title>javanrusa_body</title><g id="javanrusa"><g id="body"><path d="M33.19,58.16a2.72,2.72,0,0,0,2.4,1.67s-1.08,1.55.9,2.94,2.94,3.14,6.93,2a27,27,0,0,1,12.24-1.09c4.85.66,7.44,0,9.54.82a3.93,3.93,0,0,1,2.51,4.34c-.11,1.82,1.05,21.07,1.59,16.81s9.07,21.23,9.15,17.51S90,119.26,90.61,116.08s10.85,5.89,12.71,9.07,4.63,11.35,9,15.13,7.55,5,10,5.29l3.9.46s2.73,10.12,2.55,15.7-1.51,8.6-1.33,13.94,1,9.71,0,17.67A66,66,0,0,1,126.4,200h8.88c0-1.51.11-3.39.33-5.79.7-7.67,3.9-17.2,3.9-17.2s2.55,12.38,3.31,21c.06.67.1,1.34.14,2h8.95a83,83,0,0,1-.32-9.22c.28-4,2.1-9.06,2.17-13.17s-.58-15.61-.34-20.11.85-11.78.85-11.78,12.13-2.59,20.57-2.13,17.44,1.71,23.48.55,12.09-2,12.09-2a67.48,67.48,0,0,0,10.15,8.37c5.66,3.72,18.05,14.41,21.23,20.61s4.19,12.87,1.47,24c-.38,1.56-.78,3.23-1.21,4.95h15a92.82,92.82,0,0,1,1.54-15.84c1.43-6.39,3.33-11.66,3.83-14.41s-.35-4.34-1-4.46l-1.75-.31s1.17-3.68-.93-5.85-4-1.7-5.85-3.22-6.16-6.21-6.51-10.57,3-11.28,7.27-14.88,6.8,1.45,7.85,4.53,1.68-1.62,2.9-3.48,1.63,2.9,2.33-8.26,2.79-15.75,2.49-23.48,1-16.15-3.81-19.72-26.89-12.94-33.71-14.87-11.31.15-21.46-1.63-11.63.31-23.56,2.79-21.54,6-32.39,1.24-16.82-5.2-22.32-3.26-10.38,5.5-12.63,4.5-2.09-5.27-7.75-10S102.78,51.46,100.3,46,91.15,33.4,91.15,33.4A19.29,19.29,0,0,0,93,27.71a24.76,24.76,0,0,0,.74-5.89s6.59-2.33,10-2.4a55.21,55.21,0,0,0,15.89-2.64c6.12-2.09,9.26-2.67,14.37-8.71,1.52-1.8,6-6.4,7.63-8.07H116.33a2.26,2.26,0,0,1-2,1.17c-.74,0-.57-.7-.39-1.16h-2.15c-.3.5-.82,1.46-3.16,1.61-3.14.21-14.8,3.28-19.68,5.72s-8.18,5.5-10.66,6.9-5,.77-5.73-.51-.35-5.5-.23-7.51,0-1.86-.82-.93-.93,1.08-.93,1.08a24,24,0,0,1,0-6.36H67.93l-.41,1.66C66.24,7,65.89,8.49,67.37,14.5s2.24,8.83,2.2,10.38-.4,1.9-1.35,2.44c-1.63.93-1.65,2.69-3.47,3.95s-4.92,3-6.06,4.4-3.87,2.41-6.17,4.11S48.12,43,45.9,44.29s-3.88,3-6.51,3.82-3.64,1.1-5.5,3.7S32.22,56.38,33.19,58.16Zm81.24-49.4s2.53,0,7.58-2,10-3.87,10-3.87-4.85,5-9.21,6.13A16.23,16.23,0,0,1,114.43,8.76ZM94.76,14.25A31.62,31.62,0,0,1,102.89,11a62.75,62.75,0,0,1,7.65-1.77s.87,1.8.26,2.76-1.54,0-7.64.93S94.76,14.25,94.76,14.25Z" transform="translate(0 0)" fill="#ccc"/></g></g><g id="frame"><rect width="300" height="200" fill="none"/></g></svg>