<svg xmlns="http://www.w3.org/2000/svg" viewBox="0 0 30 20"><path d="M25.49,9.33c0,.14,0,.41-.22.37s-.34-.17-.59-.08a2,2,0,0,1-.61.13c-.18,0-.07,0-.22.41s-.48.49-.62.92a1.47,1.47,0,0,1-.67.88c-.3.18-.54.47-.93.44a3,3,0,0,1-.78-.22,1.19,1.19,0,0,1-.7-.63,1.4,1.4,0,0,0-.61-.65,3.58,3.58,0,0,1-.61-1.78c0-.33.26-.71,1.09-.73A10.1,10.1,0,0,0,22,8.3a1.78,1.78,0,0,1,1.54.41c.37.32.52.41.78.28S25.4,8.89,25.49,9.33Z" transform="translate(0 0.02)" fill="#1e88e5" opacity="0.7"/><path d="M21.1,12.5c-.15.27-1.1.45-1.81.43s-1.09.06-1.38-.26a2.18,2.18,0,0,1-.52-1.56,6.26,6.26,0,0,1,1-2.26c.23-.2.52,0,.76.35a9.82,9.82,0,0,0,1.2,1.72C20.8,11.32,21.4,12,21.1,12.5Z" transform="translate(0 0.02)" fill="#1e88e5" opacity="0.7"/><path d="M19.44,11.56a1.24,1.24,0,0,1-.88,1,1.34,1.34,0,0,1-1.26,0,1.63,1.63,0,0,1-.38-1.89c.38-1.06.62-1.84,1.19-2s1.08-.19,1.33.45A5.07,5.07,0,0,1,19.44,11.56Z" transform="translate(0 0.02)" fill="#1e88e5" opacity="0.7"/><path d="M14.47,14c-.53-.07-.76-.11-.89-.38s0-.38-.16-.69-.27-.48-.23-.57a.18.18,0,0,1,.26-.06c.06.08.16.62.22.64s.08-.1.05-.29,0-.34-.08-.38-.16-.07-.06-.11.19,0,.22,0,.1-.07.14,0,.14,0,.2,0-.05.28,0,.4.61.25.72.59a1.91,1.91,0,0,1,.1.81C15,14,14.68,14,14.47,14Z" transform="translate(0 0.02)" fill="#e53935" opacity="0.7"/><path d="M18.05,10.6c-.34,1.34-.57,2-1.49,2.28a7.2,7.2,0,0,1-2.92.1,1.83,1.83,0,0,1-1-1.39,1.88,1.88,0,0,1,.93-1.93,12.61,12.61,0,0,1,3.72-1.12C18.12,8.51,18.53,8.66,18.05,10.6Z" transform="translate(0 0.02)" fill="#ffb300" opacity="0.7"/><path d="M8.67,3.8c0,.33-.18.46-.6.34a6.2,6.2,0,0,0-.9-.24.38.38,0,0,1-.31-.49A.85.85,0,0,1,7.66,3C8,3.05,8.61,3.16,8.67,3.8Z" transform="translate(0 0.02)" fill="#1e88e5" opacity="0.7"/><rect width="30" height="20" fill="none"/></svg>