<!-- Copyright (c) 2022 - 2023 Jan Stehno -->
<svg xmlns="http://www.w3.org/2000/svg" viewBox="0 0 300 200"><title>lesserkudu_organs</title><g id="lesserkudu"><g id="organs"><path d="M186,125.63c6.93-2.56,10.63-6.7,11.5-18s1.13-25-3.62-28.09S176.5,79.38,173,93,166,133,186,125.63Z" transform="translate(0 0)" fill="#1e88e5" opacity="0.7"/><path d="M202.06,126c9.25-1.62,16.32-5.37,8.88-14.06s-9.75-14.56-11.69-22.13-7.19-15.75-13.75-7.5-4,17.79-5.31,28.57S184.63,129.06,202.06,126Z" transform="translate(0 0)" fill="#1e88e5" opacity="0.7"/><path d="M223.13,121.63c8.39-.92,12.06-3.32,13.93-7.88s5.63-5.25,7.32-10.5,4-7.54,9.91-7.42S262.5,97,264,99.21s4.38-2.38-.33-7.54-7.75-5.79-13.38-4.54-5.39-3.57-10.58-7.19-7.94-5-17.06-4.13-19.93-2.28-25.38.44-5.56,8.38-2,16.5,7.88,11.06,10.25,16.81S218.5,122.13,223.13,121.63Z" transform="translate(0 0)" fill="#1e88e5" opacity="0.7"/><path d="M141.08,131.57c-6.06-1.56-8.67-2.28-9.81-5.76s.13-4.81-.94-8.8-2.5-6.28-2-7.35,2.51-1.32,3.11-.34,1.07,7.83,1.8,8.11,1-1.11,1-3.54.36-4.21-.44-4.73-1.79-1.15-.64-1.43,2.15.5,2.63-.18a1,1,0,0,1,1.64-.15c.37.52,1.69-.07,2.3.59s-1,3.43-.11,5.08,6.65,3.85,7.56,8.14a26,26,0,0,1,.08,10.18C146.82,132.71,143.54,132.2,141.08,131.57Z" transform="translate(0 0)" fill="#e53935" opacity="0.7"/><path d="M122.19,130.19c6.07,3.39,24.19,2.56,34.44,3.62s20.18,0,24-18.5,5.29-34.48-5-34.23-32.41.34-41.83,7.09-16.33,23.75-16.25,30.58S118.79,128.29,122.19,130.19Z" transform="translate(0 0)" fill="#ffb300" opacity="0.7"/><path d="M53,41.75c.72,2.85,5.71.75,7.67,2.29s8.33.34,6.58-3.79-5.63-5-8.92-4.75S51.67,36.67,53,41.75Z" transform="translate(0 0)" fill="#1e88e5" opacity="0.7"/></g></g><g id="frame"><rect id="frame-2" width="300" height="200" fill="none"/></g></svg>