<!-- Copyright (c) 2022 - 2023 Jan Stehno -->
<svg xmlns="http://www.w3.org/2000/svg" viewBox="0 0 300 200"><title>lesserkudu_body</title><g id="lesserkudu"><g id="body"><path d="M151.52,200H141L139,188.5,137.27,200h-9.44a227.37,227.37,0,0,1,0-26.63A130.45,130.45,0,0,0,126,144.75s-10.75-1.06-16.81-8.25-8.82-14.56-13.63-17.69-21.85-16.06-28-28.31-8.25-21.83-9.92-22.33-7,2-13.5.83-11.91.92-16.41,2.17S20.5,72,19.79,71a2.74,2.74,0,0,1-.5-2s-3,0-3.55-2.49a9,9,0,0,1,2.19-8.35c2.53-3,11.4-9.79,14.49-13.87a38.4,38.4,0,0,1,9.08-8.54,18.3,18.3,0,0,1,4.38-1.88,11.68,11.68,0,0,1,2.77-9.27C52.4,20.25,54.46,17,58.52,14S69.54,9.58,77,8.5A155.27,155.27,0,0,0,94.71,4.37l2-4.37H107.5S104,8.21,98.83,11.58s-7.37,7.67-12.12,8.79-8,2.09-8,2.09.87,5.79-1.06,9.29A25.41,25.41,0,0,1,74,37s1.94.37,8.12,12.62S94.58,68.5,105.21,69s21.56-3.81,30.5-4.56,18,3.39,31.54,3.14,31.5-6.83,58.33-7.5,37.17,7.5,42,16.84,7.84,30.41,10.42,39.66,4.92,22.42,7.83,28.17,3.59,14.92-5,6.58-14.91-36.16-14.91-36.16-5.17,11.75-10.67,16.75-4.75,23.25-1,28.16,8.58,6.84,7.92,12.67S268.33,200,268.33,200H245.75s1-13.62-5.54-22.62-9.63-15.5-11.38-23.13-11.62-19.62-11.62-19.62A54.19,54.19,0,0,1,188,140.75c-17.25-1.12-21.13,0-28.5-.75a26,26,0,0,0-12.5,1.62s1.87,14.5,1.5,24.75,3.23,15,3.18,20.5S151.52,200,151.52,200Z" transform="translate(0 0)" fill="#ccc"/></g></g><g id="frame"><rect id="frame-2" width="300" height="200" fill="none"/></g></svg>