<svg xmlns="http://www.w3.org/2000/svg" viewBox="0 0 30 20"><path d="M15.15,20H14.1l-.2-1.15L13.73,20h-1a24.86,24.86,0,0,1,0-2.67,13.17,13.17,0,0,0-.18-2.86,2.87,2.87,0,0,1-1.69-.82c-.6-.72-.88-1.46-1.36-1.77A9.82,9.82,0,0,1,6.75,9c-.62-1.23-.82-2.19-1-2.24a6.21,6.21,0,0,1-1.35.09,3.49,3.49,0,0,0-1.64.21c-.45.13-.72.08-.79,0a.28.28,0,0,1-.05-.2s-.3,0-.36-.25a.9.9,0,0,1,.22-.83c.26-.3,1.14-1,1.45-1.39a3.7,3.7,0,0,1,.91-.85,1.66,1.66,0,0,1,.44-.19,1.18,1.18,0,0,1,.27-.93,6.7,6.7,0,0,1,1-1.05A4.31,4.31,0,0,1,7.7.83,15.08,15.08,0,0,0,9.47.41L9.67,0h1.08a3,3,0,0,1-.87,1.15c-.51.34-.73.77-1.21.88l-.8.21a1.73,1.73,0,0,1-.11.93,2.73,2.73,0,0,1-.36.53s.19,0,.81,1.26,1.25,1.89,2.31,1.94a22,22,0,0,0,3.05-.46c.89-.08,1.81.34,3.16.31s3.15-.68,5.83-.75,3.72.75,4.2,1.69a26.61,26.61,0,0,1,1,4,22.7,22.7,0,0,0,.78,2.82c.29.58.36,1.49-.5.66s-1.49-3.62-1.49-3.62a6.32,6.32,0,0,1-1.07,1.68,3,3,0,0,0-.1,2.81c.38.5.86.69.8,1.27A13.14,13.14,0,0,0,26.83,20H24.57A4,4,0,0,0,24,17.71a6.16,6.16,0,0,1-1.14-2.31,6.8,6.8,0,0,0-1.16-2,5.45,5.45,0,0,1-2.92.61c-1.73-.11-2.12,0-2.85-.07a2.53,2.53,0,0,0-1.25.16,20.15,20.15,0,0,1,.15,2.47,13.74,13.74,0,0,0,.31,2.05C15.16,19.21,15.15,20,15.15,20Z" transform="translate(0 0.02)" fill="#ccc"/><rect width="30" height="20" fill="none"/></svg>