<svg xmlns="http://www.w3.org/2000/svg" viewBox="0 0 30 20"><path d="M18.6,12.54c.69-.26,1.06-.67,1.15-1.81s.11-2.49-.36-2.8-1.74,0-2.09,1.35S16.6,13.28,18.6,12.54Z" transform="translate(0 0.02)" fill="#1e88e5" opacity="0.7"/><path d="M20.21,12.58c.92-.17,1.63-.54.88-1.41A4.84,4.84,0,0,1,19.93,9c-.2-.76-.72-1.58-1.38-.75S18.15,10,18,11.06,18.46,12.88,20.21,12.58Z" transform="translate(0 0.02)" fill="#1e88e5" opacity="0.7"/><path d="M22.31,12.14c.84-.09,1.21-.33,1.4-.79s.56-.52.73-1a.88.88,0,0,1,1-.74c.59,0,.82.12,1,.34s.44-.24,0-.76A1.16,1.16,0,0,0,25,8.69c-.56.12-.54-.36-1.05-.72a2,2,0,0,0-1.71-.41c-.91.08-2-.23-2.54,0s-.55.84-.2,1.65.79,1.11,1,1.68A2.44,2.44,0,0,0,22.31,12.14Z" transform="translate(0 0.02)" fill="#1e88e5" opacity="0.7"/><path d="M14.11,13.13c-.61-.15-.87-.23-1-.57s0-.48-.1-.88-.25-.63-.2-.74.25-.13.31,0,.11.78.18.81.1-.11.1-.36,0-.42,0-.47-.18-.11-.07-.14.22.05.27,0a.09.09,0,0,1,.16,0s.17,0,.23,0-.1.35,0,.51.66.39.75.82a2.57,2.57,0,0,1,0,1C14.68,13.25,14.35,13.2,14.11,13.13Z" transform="translate(0 0.02)" fill="#e53935" opacity="0.7"/><path d="M12.22,13c.61.34,2.42.26,3.44.37s2,0,2.4-1.85.53-3.45-.5-3.43-3.24,0-4.18.71a4.85,4.85,0,0,0-1.63,3.06C11.76,12.53,11.88,12.8,12.22,13Z" transform="translate(0 0.02)" fill="#ffb300" opacity="0.7"/><path d="M5.3,4.15c.07.29.57.08.76.23s.84,0,.66-.38a.81.81,0,0,0-.89-.47C5.5,3.55,5.17,3.64,5.3,4.15Z" transform="translate(0 0.02)" fill="#1e88e5" opacity="0.7"/><rect width="30" height="20" fill="none"/></svg>