<!-- Copyright (c) 2023 Jan Stehno -->
<svg xmlns="http://www.w3.org/2000/svg" viewBox="0 0 300 200">
    <title>lion_body</title>
    <g id="lion">
        <g id="body">
            <path
                d="M96.75,200c16.66,0,15.44-2.56,17-9.37s3.75-9.88,3.06-13.75-2.31-19.3,1.27-27.21a59.17,59.17,0,0,0,4.5-15.5A163.3,163.3,0,0,0,154.17,137c16.08-.33,26.21-2.87,31.83-6.37a101,101,0,0,0,10.75-7.88s-2.75,10,6.75,21,17.63,19,15.63,28.88-3,13.59-8.88,14.25-8.69,5.87-8.69,8.81,3.88,4.31,12.69,4.31,11.75-1.81,13-3.69a6.85,6.85,0,0,0,1.19-3.68s7.31,2.2,10.81-.38,4.12-4.71,4.42-10.87.64-12.13,2.52-17.94,2.19-10.31-1.19-13.06-8.12-11.25-7.62-20.63,3-15.37,4.87-21.37a52.27,52.27,0,0,0,2-12.75s5,8.87,7.75,31.62,3.13,39.75,10,43.88,9.5,4.12,9.63,5.37,1.75,0,2.62.88,2-1.25,4.38.75,3-3,3.66-1.55.21-1.16,2-1.41,1.78-1,1.78-1,.1-1.28,1.85-1.78a1.79,1.79,0,0,0,1.37-2.13,7.72,7.72,0,0,1,.75-2.37c.5-.75,0,0,0-1.38a5.9,5.9,0,0,0-1.08-3.17c-.38-.5-.54-4-2.54-2.83s-2.3.17-2.3.17-1.83-1.67-2.2.83-1.25.17-1.63,1.17-1.92-.79-2.29.33-1.83.17-2.58,1.92,0,1.21-3.63,2.46-6.25,1.62-7.62-2.13-2.5-15.37-3.5-30-3.25-33.37-6.25-43.62-19.13-27.38-36.63-31.88-35.58,2.17-53.58,3.83-32.34,1.09-37.5-.08-6-7.58-4.34-6.25-13.08-8.58-10.08-8.67-4.83-5.16-3.08-5.33S92.9,34.07,101.42,35c1.92.21-13-3.92-10-4.25S76.85,26.81,84,26.25c5.11-.4-16-1-8.75-3.21,6.67-2-19.81,2-17.5.21S43.33,29.67,47,26.92s-11.22,7.71-11,5.71c.44-4-9.42,17.12-9.33,13.79s-1.84,9.33-1.84,9.33-2.91,3.75-3.62,7.08-2,9.38-4.08,12-4.84,5.79-4.71,7.5S14.21,84,14.5,85.83s2.88,5.13,4.63,6a4,4,0,0,1,2.45,4.2c-.12,2.13,2.67,2.54,3.25,3.13s1.5.37,2.75.17,1.67-1.46,2.25-1.34,1.25-1.37,1.5-1.54a11.14,11.14,0,0,0,.8-2.33S33.54,92,34,92.29s1.63-1.29,2-.71,1.58.55,1.58,2.92.88,1.33.67,4a14.45,14.45,0,0,0,1,6.17c.58,1.87,2.46.87,4.21,3.25s3.46,1.79,5.17,3.91.91.13,3.58,3,4.79,1.34,6.92,3.92,4.66-.46,6.08,3.33,7.85,2.3,10.67,6.67,5.75,1.38,9.18,4.94,5.19,11.06,6.07,19.69,1.68,24.93.25,27.37-9.63,1.69-11.19,3.5S76.88,187,77.67,190s5.41,3.29,5.41,3.29-.54,2.59.13,3.75S85,200,96.75,200Z"
                transform="translate(0 0)" fill="#ccc" />
        </g>
    </g>
    <g id="frame">
        <rect id="frame-2" width="300" height="200" fill="none" />
    </g>
</svg>