<svg xmlns="http://www.w3.org/2000/svg" viewBox="0 0 30 20"><path d="M9.68,20c1.66,0,1.54-.26,1.7-.94s.37-1,.3-1.38a6,6,0,0,1,.13-2.72,5.85,5.85,0,0,0,.45-1.55,16.29,16.29,0,0,0,3.16.29A6.66,6.66,0,0,0,18.6,13a10.72,10.72,0,0,0,1.08-.79,2.41,2.41,0,0,0,.67,2.1c.95,1.1,1.76,1.9,1.56,2.89s-.3,1.36-.89,1.42a1,1,0,0,0-.86.88c0,.3.38.44,1.27.44s1.17-.19,1.3-.37a.69.69,0,0,0,.11-.37s.73.22,1.09,0,.41-.47.44-1.09a6.73,6.73,0,0,1,.25-1.79c.19-.58.22-1-.12-1.31A2.73,2.73,0,0,1,23.74,13a7.53,7.53,0,0,1,.49-2.14,5.69,5.69,0,0,0,.2-1.27,9.4,9.4,0,0,1,.77,3.16c.28,2.28.31,4,1,4.39s.95.41,1,.54.18,0,.27.08.19-.12.43.08.31-.31.37-.16,0-.11.2-.14.17-.1.17-.1,0-.13.19-.18a.18.18,0,0,0,.14-.21.76.76,0,0,1,.07-.24c.05-.07,0,0,0-.13a.57.57,0,0,0-.11-.32s-.05-.4-.25-.28-.23,0-.23,0-.18-.16-.22.09-.13,0-.17.11-.19-.08-.22,0-.19,0-.26.19,0,.12-.36.24-.63.17-.77-.21a17,17,0,0,1-.35-3,24.8,24.8,0,0,0-.62-4.36A5.87,5.87,0,0,0,21.77,6c-1.75-.45-3.55.22-5.35.38a15.69,15.69,0,0,1-3.75,0c-.52-.12-.6-.76-.44-.63s-1.3-.86-1-.87-.49-.51-.31-.53-1.63-.92-.78-.82c.19,0-1.3-.4-1-.43S7.68,2.66,8.4,2.6c.51,0-1.6-.1-.88-.32s-2,.2-1.75,0-1.44.64-1.07.37-1.12.77-1.1.57c0-.4-.94,1.71-.93,1.38s-.19.93-.19.93a2.22,2.22,0,0,0-.36.71,3.29,3.29,0,0,1-.41,1.2c-.21.27-.48.58-.47.75s.18.16.21.35a1.14,1.14,0,0,0,.46.6.4.4,0,0,1,.25.42c0,.22.27.26.32.32s.15,0,.28,0,.17-.14.22-.13.13-.14.15-.15a1,1,0,0,0,.08-.24s.14-.21.19-.19.16-.12.2-.07.16.06.16.3.09.13.06.4a1.42,1.42,0,0,0,.11.61c0,.19.24.09.42.33s.34.18.51.39.09,0,.36.3.48.13.69.39.47,0,.61.33.79.23,1.07.67.57.14.92.49a3.67,3.67,0,0,1,.6,2,10.93,10.93,0,0,1,0,2.74c-.15.24-1,.17-1.12.35s-.33.28-.25.58.54.33.54.33a.66.66,0,0,0,0,.37C8.39,19.8,8.5,20,9.68,20Z" transform="translate(0 0.02)" fill="#ccc"/><rect width="30" height="20" fill="none"/></svg>