<svg xmlns="http://www.w3.org/2000/svg" viewBox="0 0 30 20"><path d="M15.09,12.33a8,8,0,0,0,.4-2.56c.08-1,.5-1.83,0-2s-1.1,1.33-1.42,2-.48,2.28,0,2.62S14.94,12.72,15.09,12.33Z" transform="translate(0 0.02)" fill="#1e88e5" opacity="0.7"/><path d="M17,12.18c1-.62,1.84-1.2,1.39-2A8.8,8.8,0,0,0,16.9,7.83c-.52-.36-1.47-.56-1.53.45a19.74,19.74,0,0,1-.27,2.31c-.11.66-.18,1.08.28,1.54A1.23,1.23,0,0,0,17,12.18Z" transform="translate(0 0.02)" fill="#1e88e5" opacity="0.7"/><path d="M17.62,9.55c.26.79.64.42.9.94s1.07.13,1.44.42,1.56-.12,1.72-.41.66-.42.69-.84.05-.44.39-.35.75-.08,1,.17.61-.21.19-.49-1.05-.16-1.22-.46-.29-.85-1-1-.5-.57-1.44-.5a11.51,11.51,0,0,1-1.91.12c-.7,0-1,.18-1,.78A5.47,5.47,0,0,0,17.62,9.55Z" transform="translate(0 0.02)" fill="#1e88e5" opacity="0.7"/><path d="M11.17,12.16c-.56-.06-.8-.09-.94-.36s0-.41-.19-.73-.29-.5-.26-.6a.18.18,0,0,1,.27-.06c.06.07.19.64.26.66s.07-.11,0-.31,0-.36-.09-.39-.18-.08-.08-.11.2,0,.24,0a.09.09,0,0,1,.14,0s.15,0,.21,0,0,.3.05.43.64.24.77.59a2.13,2.13,0,0,1,.13.86C11.7,12.19,11.4,12.19,11.17,12.16Z" transform="translate(0 0.02)" fill="#e53935" opacity="0.7"/><path d="M10.26,12.36c1,.39,3,.87,3.93.38s1.07-3,1-3.84-.59-.86-2.52-1-3.81.61-4.14,1.29a1.17,1.17,0,0,0,.29,1.6C9.31,11.34,9.65,12.11,10.26,12.36Z" transform="translate(0 0.02)" fill="#ffb300" opacity="0.7"/><path d="M3.16,6.39c.13.46.55.28,1,.21s1-.14.94-.6A.78.78,0,0,0,4,5.46C3.41,5.68,3.06,6.06,3.16,6.39Z" transform="translate(0 0.02)" fill="#1e88e5" opacity="0.7"/><rect width="30" height="20" fill="none"/></svg>