<!-- Copyright (c) 2022 - 2023 Jan Stehno -->
<svg xmlns="http://www.w3.org/2000/svg" viewBox="0 0 300 200"><title>lion_organs</title><g id="lion"><g id="organs"><path d="M150.92,123.58c3.21-8.15,3.25-15.25,4-25.66s5-18.25,0-19.75-11,13.25-14.25,19.5-4.75,22.75,0,26.16S149.39,127.46,150.92,123.58Z" transform="translate(0 0)" fill="#1e88e5" opacity="0.7"/><path d="M170,122.08c10.17-6.28,18.42-12,13.92-19.83S174.25,82.08,169,78.5s-14.67-5.58-15.33,4.5a211.55,211.55,0,0,1-2.62,23.15c-1.13,6.55-1.88,10.77,2.7,15.35S164.2,125.67,170,122.08Z" transform="translate(0 0)" fill="#1e88e5" opacity="0.7"/><path d="M176.17,95.75c2.63,7.9,6.43,4.17,9,9.42s10.74,1.25,14.4,4.16,15.59-1.16,17.17-4.08,6.67-4.17,6.92-8.42.5-4.41,3.91-3.5,7.5-.75,9.84,1.67,6.08-2.08,1.83-4.83-10.42-1.59-12.17-4.67-2.91-8.42-10.25-10.42-5.08-5.75-14.41-5-12.09,1.59-19.09,1.17S173.08,73,173.17,79.08A57.07,57.07,0,0,0,176.17,95.75Z" transform="translate(0 0)" fill="#1e88e5" opacity="0.7"/><path d="M111.74,121.88c-5.59-.59-8-.89-9.44-3.68s-.45-4.06-1.87-7.28-3-5-2.67-5.93a1.84,1.84,0,0,1,2.73-.66c.66.76,1.88,6.45,2.56,6.61s.76-1,.47-3.09-.18-3.58-1-3.93-1.74-.75-.75-1.12,2,.17,2.34-.46a.91.91,0,0,1,1.44-.32c.39.39,1.5-.26,2.12.22s-.46,3,.5,4.28,6.39,2.45,7.7,6a20.59,20.59,0,0,1,1.27,8.53C117,122.16,114,122.12,111.74,121.88Z" transform="translate(0 0)" fill="#e53935" opacity="0.7"/><path d="M102.63,123.88c9.56,3.9,30.25,8.62,39.25,3.75s10.75-29.5,9.5-38.38-5.88-8.62-25.13-10-38.12,6.13-41.5,12.88-2.37,10.5,3,16S96.5,121.38,102.63,123.88Z" transform="translate(0 0)" fill="#ffb300" opacity="0.7"/><path d="M31.58,64.13c1.36,4.61,5.55,2.83,9.88,2.12s10.21-1.37,9.46-6-5.59-7.54-11.21-5.37S30.63,60.88,31.58,64.13Z" transform="translate(0 0)" fill="#1e88e5" opacity="0.7"/></g></g><g id="frame"><rect id="frame-2" width="300" height="200" fill="none"/></g></svg>