<svg xmlns="http://www.w3.org/2000/svg" viewBox="0 0 30 20"><path d="M23.87,20c-1.27,0-1.23-.25-1.26-.4a.62.62,0,0,1,0-.26,1.45,1.45,0,0,1-1,0c-.35-.23-.44-.6-.06-.87s.77-.22,1-.45a2.65,2.65,0,0,0,.65-1.39c-.07-.29-1.16-.93-1.81-1.34a15.45,15.45,0,0,1-2.78-1.9,3.35,3.35,0,0,1-.41-1.07,6.15,6.15,0,0,1-1.71.58c-1,.18-2,.27-2,.27a5.39,5.39,0,0,0-.33,1.67,12.63,12.63,0,0,1,.05,2,1.69,1.69,0,0,0-.4,1c-.11.68-.18,1.62-.47,1.69s-.93-.11-1.42,0-1-.17-1-.52.35-.55.75-.63.48-.5.52-1.1a8.11,8.11,0,0,0-.1-1.85,8.1,8.1,0,0,0-.27-1,7.76,7.76,0,0,0-.85,1.9,15.21,15.21,0,0,1-.47,1.81c-.13.19-.5,0-.74.4A5.58,5.58,0,0,0,9,19.69c0,.22-.37.29-1.29.29s-1.76-.1-1.56-.59.53-.94,1.16-.85,1.09-1.28,1.29-2.05a5.78,5.78,0,0,0,.09-3,19.32,19.32,0,0,0-2.29-3.08A13.37,13.37,0,0,0,4.48,9.16a1.19,1.19,0,0,0-1.29-.11.59.59,0,0,1-.73-.21,1.62,1.62,0,0,0-.11-.22A.42.42,0,0,1,2,8.44c-.11-.21-.37-.33-.39-.47s0-.34.25-.67a3.24,3.24,0,0,0,.46-.88,3,3,0,0,1,.65-.9A3.2,3.2,0,0,1,3.72,5s0-.47,0-.9a2.41,2.41,0,0,0-.1-.82c-.08-.24.35.17.6.58s.48.93.86,1A11.91,11.91,0,0,0,8,5.17a6.09,6.09,0,0,1,2.23-.06,4.33,4.33,0,0,0,1.9.41c.95,0,3.39-.32,5.56-.26a27.6,27.6,0,0,1,4.48.19,7.93,7.93,0,0,1,2.46,1.29A15.64,15.64,0,0,1,26.47,8c.41.42,1,.4,1.13,0s.13-.69.48-.74.85,0,.7.86a1.69,1.69,0,0,1-1.3,1.39A2.87,2.87,0,0,1,26,9.5a7,7,0,0,1-.8,2.06c-.48.6-1.15,1-1.15,1.58s1.12,1.91,2,2.36.78,1,.38,1.49a5,5,0,0,0-1,1.74C25.32,19.23,25.44,20,23.87,20Z" transform="translate(0 0.02)" fill="#ccc"/><rect width="30" height="20" fill="none"/></svg>