<svg xmlns="http://www.w3.org/2000/svg" viewBox="0 0 30 20"><path d="M14.16,11.37a8.31,8.31,0,0,0,1-2.15,10.52,10.52,0,0,1,.2-1.81c.2-.35-.48-.62-1,.28a8.06,8.06,0,0,0-.88,2.25C13.2,10.7,13.76,12.11,14.16,11.37Z" transform="translate(0 0.02)" fill="#1e88e5" opacity="0.7"/><path d="M16,11.58a2.49,2.49,0,0,0,1.75-.94c.25-.45.36-1.08-.25-2.19S16.71,6.13,15.79,7A24.22,24.22,0,0,0,14.14,9.4C13.7,9.83,13.52,12.05,16,11.58Z" transform="translate(0 0.02)" fill="#1e88e5" opacity="0.7"/><path d="M16.91,9.8c.41.15.45.71,1,.76s.21.32,1.11.1A4.48,4.48,0,0,0,20.66,10c.29-.24,1.28-.84,1.52-1s.26-.53.4-.66.45.21.84.25a3.13,3.13,0,0,1,1,.25c.16.09.42-.15,0-.35a5.34,5.34,0,0,0-1.42-.64c-.43,0-.44-.3-.73-.68a2.41,2.41,0,0,0-1.89-.5A16.87,16.87,0,0,0,18,6.6c-.51.17-1.08.18-1.43.88s-.35,1-.08,1.41S16.63,9.7,16.91,9.8Z" transform="translate(0 0.02)" fill="#1e88e5" opacity="0.7"/><path d="M11.41,11.54c-.51-.1-.73-.15-.83-.35s0-.29-.1-.53-.22-.38-.19-.44a.21.21,0,0,1,.26,0c.06.06.11.47.17.49s.08-.07.08-.21,0-.25-.05-.29-.15-.07-.06-.08.18,0,.22,0a.11.11,0,0,1,.14,0s.14,0,.19,0-.07.2,0,.3.56.23.65.49a1.19,1.19,0,0,1,0,.61C11.9,11.61,11.62,11.58,11.41,11.54Z" transform="translate(0 0.02)" fill="#e53935" opacity="0.7"/><path d="M8.67,9.29c-.09.74.73,1.29,2.43,1.84s2.83.67,3.31-1,.67-2.89.19-3.15-1.68,0-2.77.45S8.78,8.26,8.67,9.29Z" transform="translate(0 0.02)" fill="#ffb300" opacity="0.7"/><path d="M3.62,6c.09.33.7,0,.94.1s.88.15.72-.33a.87.87,0,0,0-1-.54C4,5.32,3.51,5.66,3.62,6Z" transform="translate(0 0.02)" fill="#1e88e5" opacity="0.7"/><rect width="30" height="20" fill="none"/></svg>