<!-- Copyright (c) 2023 Jan Stehno -->
<svg xmlns="http://www.w3.org/2000/svg" viewBox="0 0 300 200">
    <title>mexicanbobcat_body</title>
    <g id="mexicanbobcat">
        <g id="body">
            <path
                d="M238.71,200c-12.71,0-12.34-2.46-12.63-4a6.51,6.51,0,0,1,0-2.62s-6.62,2.29-10.16,0-4.42-6-.59-8.71,7.67-2.13,10-4.46,7.17-11.06,6.48-13.94-11.56-9.31-18.12-13.37-24.75-14.44-27.75-19a33.56,33.56,0,0,1-4.13-10.69,61.53,61.53,0,0,1-17.06,5.81c-9.88,1.82-20.5,2.69-20.5,2.69a53,53,0,0,0-3.38,16.69c-.31,9.31,2.07,18.37.57,20.43s-2.88,2.94-4,9.69-1.82,16.19-4.75,16.88-9.32-1.13-14.19-.13-10.06-1.69-10.13-5.12,3.57-5.5,7.5-6.38,4.88-5,5.19-11,0-14.5-.94-18.5-2.56-9.81-2.75-9.75a77.35,77.35,0,0,0-8.43,18.94c-2.57,9.44-3.44,16.19-4.75,18.12s-5,.44-7.38,4-6.19,9.38-6.56,11.57-3.79,2.81-13,2.81-17.54-.94-15.6-5.88,5.31-9.37,11.62-8.5,10.94-12.75,12.94-20.5,4.08-24,.83-29.62-15.33-23.75-22.89-30.75S50,95.69,44.81,91.81s-9.44-2.37-12.94-1.06-6.5-.41-7.25-2.06a16.61,16.61,0,0,0-1.12-2.22s-2.75.31-3.87-1.81S15.94,81.31,15.69,80s0-3.47,2.5-6.72,3.31-5.72,4.62-8.84,3.82-6.12,6.52-9S37.17,50,37.17,50s.08-4.67.08-9a23.34,23.34,0,0,0-1-8.13c-.71-2.45,3.5,1.71,6.08,5.75s4.8,9.34,8.55,10.25S71.69,52.94,80,51.94s17.25-2.38,22.31-.57,9.5,4.32,19,4.07,33.86-3.19,55.61-2.61,35.5-.5,44.75,1.92,17.08,7.67,24.58,12.92,14.42,8,18.46,12.25,9.58,4,11.29.16,1.33-6.91,4.75-7.41,8.5.37,7.08,8.54-6.33,11.67-13,14-14.71.12-14.71.12-3.27,14.52-8,20.52-11.5,9.75-11.5,15.88,11.27,19.06,20.36,23.56,7.75,10.42,3.75,14.92-8.92,12.25-10.17,17.33S254.37,200,238.71,200Z"
                transform="translate(0 0)" fill="#ccc" />
        </g>
    </g>
    <g id="frame">
        <rect id="frame-2" width="300" height="200" fill="none" />
    </g>
</svg>