<!-- Copyright (c) 2022 Jan Stehno -->
<svg xmlns="http://www.w3.org/2000/svg" viewBox="0 0 300 200"><title>mexicanbobcat_organs</title><g id="mexicanbobcat"><g id="organs"><path d="M141.63,113.94c3.24-6,8.68-14.86,9.81-21.53s.06-14.47,2-18-4.81-6.19-10.25,2.75-6.44,14.87-8.81,22.5S137.63,121.31,141.63,113.94Z" transform="translate(0 0)" fill="#1e88e5" opacity="0.7"/><path d="M160.19,116c8.44-1.61,15.12-4.88,17.56-9.38s3.58-10.8-2.5-21.88-8.18-23.25-17.33-14.17-12.09,19.34-16.5,23.67S135.21,120.78,160.19,116Z" transform="translate(0 0)" fill="#1e88e5" opacity="0.7"/><path d="M169.06,98.25c4.09,1.49,4.5,7.06,9.63,7.63s2.12,3.18,11.12,1,13.82-4.5,16.75-6.88,12.88-8.37,15.25-10.37,2.63-5.25,4-6.57,4.5,2.13,8.38,2.5,8.56,1.5,10.12,2.44,4.19-1.5.38-3.44-9.84-6-14.15-6.39-4.44-3-7.37-6.79-11-5.5-18.92-5.07-19.44-1.69-24.53,0S168.88,68.06,165.44,75s-3.5,10.31-.88,14.19S166.31,97.25,169.06,98.25Z" transform="translate(0 0)" fill="#1e88e5" opacity="0.7"/><path d="M114.14,115.6c-5.11-1-7.31-1.41-8.35-3.5s0-2.87-1-5.26-2.24-3.76-1.86-4.39a2.06,2.06,0,0,1,2.6-.19c.52.59,1.07,4.68,1.69,4.85s.8-.65.74-2.1.21-2.51-.47-2.83-1.53-.7-.58-.86,1.82.31,2.21-.09a1,1,0,0,1,1.36-.08c.33.31,1.42,0,2,.37s-.74,2,0,3,5.66,2.34,6.51,4.9a11.07,11.07,0,0,1,.3,6.08C119,116.32,116.21,116,114.14,115.6Z" transform="translate(0 0)" fill="#e53935" opacity="0.7"/><path d="M86.67,93.17C85.84,100.5,94,106,111,111.58s28.25,6.67,33.08-9.58,6.75-28.83,1.92-31.5-16.83.58-27.67,4.5S87.83,82.83,86.67,93.17Z" transform="translate(0 0)" fill="#ffb300" opacity="0.7"/><path d="M36.19,60.69c.89,3.24,7-.13,9.44,1s8.81,1.5,7.18-3.38S45.94,52.44,43,52.94,35.13,56.81,36.19,60.69Z" transform="translate(0 0)" fill="#1e88e5" opacity="0.7"/></g></g><g id="frame"><rect id="frame-2" width="300" height="200" fill="none"/></g></svg>