<svg xmlns="http://www.w3.org/2000/svg" viewBox="0 0 30 20"><path d="M14.37,20h.71l.42-2.58a.67.67,0,0,1,.11.38,3,3,0,0,0,.13,1A9.14,9.14,0,0,1,16,20h.65a14.93,14.93,0,0,1,0-2,3.35,3.35,0,0,0,0-1.5,14.43,14.43,0,0,1-.08-2A6.46,6.46,0,0,0,19,14.35c1.2-.31,2.3-.79,2.69-.62s.38.27.69,0a1.33,1.33,0,0,1,.65-.28,5.6,5.6,0,0,0,.76,1.22,3.83,3.83,0,0,1,1.07,2.46c-.1.9-.6,2.83-.6,2.83h.91a9.63,9.63,0,0,1,.45-1.83c.33-.9.58-1.91.58-1.91s.48.34.72,1.65.3,2.09.3,2.09h.89A13.67,13.67,0,0,1,28,17.91a12.77,12.77,0,0,0-.18-2.63,7.46,7.46,0,0,1-1.27-2c-.17-.8.25-1.35.7-2.29a6.93,6.93,0,0,0,.48-2.35s.4.14.46-.25a1,1,0,0,0-.59-1.08,5.19,5.19,0,0,1-1.48-.88,5,5,0,0,0-2.54-.85c-.94,0-1.83.35-2.8.35a9,9,0,0,1-3.55-.51,10.31,10.31,0,0,0-2.81-1.08,23.62,23.62,0,0,0-2.95.29l-.52,0a3.65,3.65,0,0,0,1.58-1,8.85,8.85,0,0,0,1.3-1.87c.27-.59.88-1.71.88-1.71h-.39A.58.58,0,0,1,14,.29a2,2,0,0,1-.36.19s.14-.22.18-.31A.71.71,0,0,0,13.89,0h-.28a1,1,0,0,1-.39.56,1.11,1.11,0,0,1-1,.2c-.34-.12-.37-.31-.35-.46A2,2,0,0,1,12,0h-.36A2.2,2.2,0,0,1,11,.81a2.33,2.33,0,0,1-1.18.69c-.29,0-.23-.28-.23-.6A5.59,5.59,0,0,1,9.73,0H9.61s-.21.5-.34.86-.16.77-.64.84-.9-.1-1-.3A7,7,0,0,1,7.3.5C7.21.2,7.18.34,7.24.86a3.08,3.08,0,0,1,0,1.37,1.85,1.85,0,0,1-1,.41c-.37,0-.56-.39-.71-.67s-.22-.43-.31-.6-.06.29.06.8a4.9,4.9,0,0,1,.22,1.36c0,.17-.54.15-.77,0a2,2,0,0,1-.76-1,2.91,2.91,0,0,1-.22-.83c0-.22-.15-.07-.11.51a3.8,3.8,0,0,0,.55,1.46c.13.24.3.35-.21.21a2.66,2.66,0,0,1-1.46-1,3.77,3.77,0,0,1-.55-1.26c-.09-.37-.18.11-.06.56a2.73,2.73,0,0,0,1,1.48c.64.51.91.59.91.89S3.45,5,3.21,5s-1,.08-.59.2a2.55,2.55,0,0,0,1,.13c.27,0,.64-.08.69,0s.17.24.12.31a8.37,8.37,0,0,1-1.18.6A2.49,2.49,0,0,0,1.88,7.31c-.35.67-.39,1.08-.15,1.4A.55.55,0,0,0,2.36,9c.16,0,.1.1.16.22a1.23,1.23,0,0,0,1,.21c.37-.16.89-.73,1.08-.66s.62.83.79,1.1.54.31.83.64.82.38,1,.7.75-.06.91,0,.09-.34.25-.37-.1-.33,0-.35,0-.52.08-.47.1-.4.19-.23.84.55.87.84,1.08.86,1.2,1.25.21,1.57,1.23,2a2.9,2.9,0,0,0,1.52.34A19.33,19.33,0,0,0,14,16.44c.23.65.07.83.18,1.23s-.14.63,0,1A5.86,5.86,0,0,1,14.37,20Z" transform="translate(0 0.02)" fill="#ccc"/><rect width="30" height="20" fill="none"/></svg>