<!-- Copyright (c) 2022 Jan Stehno -->
<svg xmlns="http://www.w3.org/2000/svg" viewBox="0 0 300 200"><title>moose_body</title><g id="moose"><g id="body"><path d="M143.67,200h7.12L155,174.29a6.51,6.51,0,0,1,1.12,3.79,29.37,29.37,0,0,0,1.34,9.92,85.2,85.2,0,0,1,2,12H166s-1-15.42,0-20.33,1.21-6.67,0-15-.79-20.42-.79-20.42,13.08,2.58,25.08-.5,23-7.92,26.84-6.25,3.83,2.75,6.91.25a13.5,13.5,0,0,1,6.5-2.83,58.23,58.23,0,0,0,7.59,12.25c4.33,5,11.71,15.58,10.71,24.58s-6,28.25-6,28.25H252a101,101,0,0,1,4.5-18.25c3.25-9,5.75-19.12,5.75-19.12s4.83,3.45,7.25,16.54,3,20.83,3,20.83h8.92a138.22,138.22,0,0,1-1.92-20.67c.08-9.16-.58-23.75-1.83-26.25s-11-12.58-12.67-20.58,2.5-13.44,7-22.87,4.75-23.44,4.75-23.44,4,1.31,4.67-2.56-.92-8.94-5.92-10.82a49.7,49.7,0,0,1-14.75-8.75c-5.25-4.31-16-7.89-25.42-8.48s-18.33,3.5-28,3.5-24.08-.08-35.5-5.16-19.5-9.84-28.16-10.75-25.13,3-29.5,2.83-5.13-.17-5.13-.17,10.25-3,15.79-9.95,10.38-12.75,13-18.71S146.56,0,146.56,0h-3.81a5.83,5.83,0,0,1-2.56,3.19A14.82,14.82,0,0,1,136.56,5a27.94,27.94,0,0,0,1.82-3,8.93,8.93,0,0,0,.5-2h-2.79a9.58,9.58,0,0,1-3.9,5.69c-3.16,2-6.41,3.19-9.81,2s-3.66-3.07-3.44-4.57A16.56,16.56,0,0,1,119.78,0h-3.53a22.77,22.77,0,0,1-6,8.38c-4.5,4.12-8.87,6.7-11.79,6.83s-2.29-2.79-2.33-6A62.81,62.81,0,0,1,97.29,0H96.14S94,5,92.75,8.63s-1.67,7.7-6.42,8.37-9-.94-9.87-3A75.53,75.53,0,0,1,73,5.22c-.82-3-1.2-1.59-.57,3.62s1.06,12.07-.32,13.69S65.66,26.47,62,26.66s-5.56-3.91-7.09-6.72-2.16-4.31-3.07-6-.65,3,.6,8,2.69,11.78,2.19,13.56-5.47,1.5-7.69-.06a19.11,19.11,0,0,1-7.66-9.66c-1.78-5.28-2-6.15-2.15-8.34s-1.54-.72-1.13,5.15,4.22,12.29,5.53,14.6,3,3.47-2.12,2.06-11.47-5-14.6-9.91a37.79,37.79,0,0,1-5.56-12.56c-.81-3.75-1.78,1.1-.53,5.56a27,27,0,0,0,9.86,14.79C35,42.25,37.75,43,37.75,46s-3.2,3.81-5.64,4.27-9.88.77-5.9,2S33.83,54,36.56,53.54s6.42-.79,7-.14,1.69,2.41,1.13,3.18-6.94,3.75-11.73,6-10.75,4.11-14.19,10.8-3.81,10.81-1.5,14,4.63,2.81,6.31,2.5,1,1,1.63,2.12,6.75,3.69,10.5,2.13,8.87-7.32,10.81-6.63,6.25,8.33,7.92,11.08,5.41,3.09,8.33,6.34,8.17,3.83,9.83,7,7.5-.59,9.09,0,.91-3.42,2.5-3.67-.92-3.33.08-3.5-.17-5.17.83-4.75,1-4,1.92-2.25,8.42,5.5,8.75,8.42,10.75,8.58,12,12.5,2,15.71,12.25,20.08,15.25,3.38,15.25,3.38,2.75,16,5.13,22.5.77,8.33,1.81,12.35-1.42,6.31-.06,10.37S143.67,200,143.67,200Z" fill="#ccc"/></g></g><g id="frame"><rect id="frame-2" width="300" height="200" fill="none"/></g></svg>