<svg xmlns="http://www.w3.org/2000/svg" viewBox="0 0 30 20"><path d="M19.44,12.85a3,3,0,0,0,.67-2.61C20,9,19.79,8,19.34,7.87s-1.05.56-1.12,2S17.93,14.2,19.44,12.85Z" transform="translate(0 0.02)" fill="#1e88e5" opacity="0.7"/><path d="M21,12.63c.78-.43,1.47-1,.9-1.41a5.19,5.19,0,0,1-1.46-1.67c-.3-.61-.79-2-1.23-1.53S19,9.48,19,10.48,18.43,14.1,21,12.63Z" transform="translate(0 0.02)" fill="#1e88e5" opacity="0.7"/><path d="M22.79,11.53c.63-.12,1.17-.41,1.22-.81s.48-.74.57-1A4.2,4.2,0,0,1,25,8.86c.15-.22,1-.43,1.14-.17s.42-.21,0-.5-.88.09-1.35-.22a3.39,3.39,0,0,0-1.6-.75,14.64,14.64,0,0,1-1.92.27A1.17,1.17,0,0,0,20.07,9c.24.58.39,1.34,1,1.64s.61.9,1,.9A4.93,4.93,0,0,0,22.79,11.53Z" transform="translate(0 0.02)" fill="#1e88e5" opacity="0.7"/><path d="M14.55,12.56c-.45-.08-.64-.12-.74-.39s0-.38-.13-.69-.23-.48-.2-.57.17-.13.22-.05.13.61.19.63.06-.1,0-.29,0-.34-.06-.37-.14-.08-.06-.11.16,0,.19,0a.07.07,0,0,1,.12,0s.12,0,.16,0,0,.28,0,.41.51.25.6.59a2.19,2.19,0,0,1,.08.81C15,12.61,14.73,12.59,14.55,12.56Z" transform="translate(0 0.02)" fill="#e53935" opacity="0.7"/><path d="M14.45,12.7c1.17.64,2.81,1,3.56.49s.76-1.73.69-3.13.23-2.26-.95-2.23a7.93,7.93,0,0,0-3.94.71C12.66,9.25,12.54,11.65,14.45,12.7Z" transform="translate(0 0.02)" fill="#ffb300" opacity="0.7"/><path d="M6.4,5.43c.12.37.7.07,1.08,0s.77-.13.69-.45a.67.67,0,0,0-.81-.44C7,4.64,6.22,4.89,6.4,5.43Z" transform="translate(0 0.02)" fill="#1e88e5" opacity="0.7"/><rect width="30" height="20" fill="none"/></svg>