<!-- Copyright (c) 2022 - 2023 Jan Stehno -->
<svg xmlns="http://www.w3.org/2000/svg" viewBox="0 0 300 200"><title>moose_organs</title><g id="moose"><g id="organs"><path d="M194.42,128.75c5.64-5,7.91-13.83,6.66-26.08s-3.16-22.09-7.66-23.75-10.5,5.58-11.25,19.5S179.25,142.25,194.42,128.75Z" transform="translate(0 0)" fill="#1e88e5" opacity="0.7"/><path d="M210.42,126.58c7.75-4.35,14.66-10.08,9-14.16a50.91,50.91,0,0,1-14.59-16.67c-3.08-6.08-7.91-20.33-12.33-15.33S190.42,95,189.58,105,184.33,141.25,210.42,126.58Z" transform="translate(0 0)" fill="#1e88e5" opacity="0.7"/><path d="M227.88,115.5c6.3-1.19,11.75-4.06,12.18-8.06s4.88-7.38,5.75-10.25a36.24,36.24,0,0,1,3.82-8.31c1.43-2.25,9.54-4.38,11.41-1.75s4.17-2.09.42-5S252.71,83,248,80s-11-7.79-16-7.5-9,2.48-19.23,2.67-14.5,9.18-12.12,15,4,13.38,9.62,16.46,6.13,9,9.88,8.91S224.79,116.08,227.88,115.5Z" transform="translate(0 0)" fill="#1e88e5" opacity="0.7"/><path d="M145.5,125.86c-4.46-.8-6.38-1.18-7.45-3.88s-.25-3.85-1.3-7-2.24-4.83-2-5.71a1.35,1.35,0,0,1,2.21-.5c.5.73,1.31,6.17,1.86,6.34s.63-1,.46-2.9,0-3.38-.65-3.74-1.37-.79-.57-1.09,1.59.23,1.89-.34.86-.64,1.16-.24,1.21-.18,1.7.3-.46,2.81.27,4.06,5,2.59,6,6a22.85,22.85,0,0,1,.77,8.11C149.71,126.35,147.32,126.18,145.5,125.86Z" transform="translate(0 0)" fill="#e53935" opacity="0.7"/><path d="M144.5,127.25c11.72,6.44,28.13,10.25,35.63,4.88s7.62-17.25,6.87-31.25,2.25-22.63-9.5-22.38-27.87,0-39.37,7.13S125.38,116.75,144.5,127.25Z" transform="translate(0 0)" fill="#ffb300" opacity="0.7"/><path d="M64,54.54c1.22,3.69,7,.67,10.83.21s7.67-1.33,6.88-4.46-4.25-5.21-8.13-4.41S62.21,49.13,64,54.54Z" transform="translate(0 0)" fill="#1e88e5" opacity="0.7"/></g></g><g id="frame"><rect id="frame-2" width="300" height="200" fill="none"/></g></svg>