<svg xmlns="http://www.w3.org/2000/svg" viewBox="0 0 30 20"><path d="M16.74,11.46c.05,1.11,1,1.8,1.9,1s.65-2.16.35-3-.63-2.41-1.47-1.65S16.72,11.08,16.74,11.46Z" transform="translate(0 0.02)" fill="#1e88e5" opacity="0.7"/><path d="M21.11,13.51c1.38-.17,1.89-.74,2-1.29s-.83-1.39-1.07-2.35-.24-2.14-1.28-2.22-1.63,0-1.75.61a7.38,7.38,0,0,0-.34,3.11C19,12.5,19.58,13.7,21.11,13.51Z" transform="translate(0 0.02)" fill="#1e88e5" opacity="0.7"/><path d="M22.53,11.36c.09.62,1,.51,1.23.71a1.5,1.5,0,0,0,1.51-.24c.22-.37.31-1,.59-1.19s.22-.76.42-.89a.46.46,0,0,1,.55.07c.08.11.35,0,0-.41s-.52-.27-.73-.59A2.29,2.29,0,0,0,24.81,8c-.73-.27-2.25-.65-2.67-.18S22,8.89,22,9.49,22.45,10.76,22.53,11.36Z" transform="translate(0 0.02)" fill="#1e88e5" opacity="0.7"/><path d="M14.7,13.28c-.55,0-.79,0-1-.31s-.11-.46-.3-.81-.36-.53-.35-.64a.18.18,0,0,1,.26-.11c.07.08.28.71.35.72s.06-.12,0-.35-.08-.4-.16-.44-.18-.06-.09-.11.2,0,.22-.08.09-.1.14-.05.14,0,.21,0,0,.34.11.48.66.2.84.59a2.65,2.65,0,0,1,.26.95C15.22,13.25,14.93,13.28,14.7,13.28Z" transform="translate(0 0.02)" fill="#e53935" opacity="0.7"/><path d="M11.82,13.27a7.82,7.82,0,0,0,4.67.84c1.35-.28,2.91-1.14,3.13-2.43A5.52,5.52,0,0,0,18.49,8c-.49-.54-.4-.5-2.41-.13s-3.26.3-3.9,1.38S11.2,12.71,11.82,13.27Z" transform="translate(0 0.02)" fill="#ffb300" opacity="0.7"/><path d="M4,6c.07.24.6.2.78.32s.82.33.68-.26a.74.74,0,0,0-.95-.59C4.1,5.53,3.87,5.68,4,6Z" transform="translate(0 0.02)" fill="#1e88e5" opacity="0.7"/><rect width="30" height="20" fill="none"/></svg>