<!-- Copyright (c) 2022 Jan Stehno -->
<svg xmlns="http://www.w3.org/2000/svg" viewBox="0 0 300 200"><title>mountaingoat_body</title><g id="mountaingoat"><g id="body"><path d="M127.5,200h12.92a76.69,76.69,0,0,1,1.08-18c1.75-8.5,1.92-17.92,3.67-24s2.33-9.42,2.33-9.42a45.56,45.56,0,0,1,17,.25c9.33,1.92,26,1.17,33.67.34s9.83,2,16.25-.5,9.41-3.5,9.41-3.5a11.77,11.77,0,0,0,6.09,10.16c6.41,3.75,27.08,11.34,29.58,15.34s3,4-1.08,11.08S248.5,200,248.5,200h16.17s2.46-15.5,11-23.12,12.75-16,2-23.63-12.25-12-9.63-18.62,8.38-12.75,11.25-19A62.63,62.63,0,0,0,283.38,102s1.37.5,1.25,10.38,6.5,2.37,3.62-11.38-13-23.37-29.62-32.12-37.8-11-59.13-9.21-39.17-.5-57-9.84-18.87-5.83-37.12-.7-30.63-2-42.38-1.38-13.12,1.13-13.12,1.13,1.5-8.59,3.33-13.09,3.37-7.66,6.25-10.54-3.08-.92-7,3.17A32.88,32.88,0,0,0,46,37a25.75,25.75,0,0,0-2.46,6,37.08,37.08,0,0,1,.88-15c2.21-7.5,2.87-8.59,5-11.38s-7.82,2.9-10.57,8.84-3.81,13.93-3.75,19a64,64,0,0,0,.44,7.56,13.16,13.16,0,0,1-4.31,4.12c-2.81,1.63-1.31,3.69-3.56,7.32A170.36,170.36,0,0,1,16.19,79.81c-3.94,4.69-6.22,10-5.41,13.28s1.91,4.72,2.78,5a5.67,5.67,0,0,0,1.6.29s.53,2.31,4.12,2.68,5-1.5,6.13-.81,6.84,3.71,6.76,2.33,2.91-1.75,3.66-3.16,1.34-.46,2.42-1.71,1.92.33,3-1.42,2.12-.66,3.29-2.12A8.9,8.9,0,0,1,54,92.33c4.09,1.8,15.52,11.42,21,13.67s7.44,7.19,13.44,9.88,5.25,10.37,9.12,17.43,9.07,7.5,10.88,10.5,15.06,3.94,15.06,3.94.5,13.75,3.33,22.75,3.42,14,3.34,18.5S127.5,200,127.5,200Z" transform="translate(0 0)" fill="#ccc"/></g></g><g id="frame"><rect id="frame-2" width="300" height="200" fill="none"/></g></svg>