<svg xmlns="http://www.w3.org/2000/svg" viewBox="0 0 30 20"><path d="M12.75,20H14a8.05,8.05,0,0,1,.11-1.8c.17-.85.19-1.8.37-2.4s.23-.95.23-.95a4.66,4.66,0,0,1,1.7,0,13.63,13.63,0,0,0,3.37,0c.76-.08,1,.2,1.62-.05s.94-.35.94-.35a1.19,1.19,0,0,0,.61,1c.64.37,2.71,1.13,3,1.53s.3.4-.11,1.11-1,1.83-1,1.83h1.62a4.58,4.58,0,0,1,1.09-2.32c.85-.76,1.28-1.6.2-2.36s-1.22-1.2-1-1.86.84-1.28,1.13-1.9a6.8,6.8,0,0,0,.41-1.36s.14.05.12,1,.65.24.36-1.13-1.3-2.34-3-3.22A10.94,10.94,0,0,0,20,5.94a9.8,9.8,0,0,1-5.7-1c-1.78-.93-1.89-.58-3.71-.07s-3.06-.2-4.24-.14A8.1,8.1,0,0,0,5,4.86a8.76,8.76,0,0,1,.33-1.31A2.86,2.86,0,0,1,6,2.5c.28-.29-.31-.09-.7.32a3.15,3.15,0,0,0-.65.86,2.54,2.54,0,0,0-.25.59,3.73,3.73,0,0,1,.09-1.5,2.72,2.72,0,0,1,.5-1.14c.21-.28-.78.29-1.06.88a4.92,4.92,0,0,0-.37,1.9,5.4,5.4,0,0,0,0,.76,1.3,1.3,0,0,1-.43.41c-.28.16-.13.37-.36.73A16.09,16.09,0,0,1,1.62,8a1.82,1.82,0,0,0-.54,1.32c.08.33.19.48.28.5a.51.51,0,0,0,.16,0s.05.23.41.27.5-.15.61-.08.69.37.68.23.29-.17.36-.31.14-.05.24-.17.2,0,.3-.15.21-.06.33-.21a.9.9,0,0,1,1-.18c.41.18,1.56,1.14,2.1,1.37s.74.71,1.34,1,.53,1,.92,1.75.9.75,1.08,1,1.51.39,1.51.39A10.87,10.87,0,0,0,12.68,17,5.6,5.6,0,0,1,13,18.88,4,4,0,0,1,12.75,20Z" transform="translate(0 0.02)" fill="#ccc"/><rect width="30" height="20" fill="none"/></svg>