<!-- Copyright (c) 2022 - 2023 Jan Stehno -->
<svg xmlns="http://www.w3.org/2000/svg" viewBox="0 0 300 200"><title>mountaingoat_organs</title><g id="mountaingoat"><g id="organs"><path d="M167.38,114.81c.55,11.16,10.06,18.07,19.06,10.07s6.5-21.63,3.5-29.63-6.38-24.06-14.75-16.5S167.19,111.06,167.38,114.81Z" transform="translate(0 0)" fill="#1e88e5" opacity="0.7"/><path d="M211.08,135.33c13.81-1.73,18.92-7.41,20.17-12.91s-8.33-13.84-10.75-23.5-2.42-21.36-12.83-22.14-16.25-.36-17.42,6-6.25,19.75-3.42,31.09S195.83,137.25,211.08,135.33Z" transform="translate(0 0)" fill="#1e88e5" opacity="0.7"/><path d="M225.31,113.81c.85,6.26,9.88,5.13,12.32,7.13s12.87,1.23,15.08-2.44,3.1-9.94,5.92-11.81,2.18-7.69,4.18-8.94a4.59,4.59,0,0,1,5.5.69c.75,1.06,3.5.12-.37-4.06s-5.19-2.69-7.38-5.94-5.25-5.94-12.5-8.63-22.5-6.5-26.68-1.75-1.75,11-1.72,17.06S224.5,107.81,225.31,113.81Z" transform="translate(0 0)" fill="#1e88e5" opacity="0.7"/><path d="M147,133c-5.53,0-7.92-.12-9.75-3.13s-1.06-4.55-2.94-8-3.67-5.31-3.51-6.43,1.8-1.82,2.56-1,2.81,7.1,3.5,7.2.58-1.27,0-3.55-.72-4-1.53-4.35-1.8-.66-.9-1.19,2,0,2.2-.78.91-.93,1.35-.52,1.43-.46,2.11,0,0,3.45,1.14,4.79,6.59,2.07,8.41,5.89a27.46,27.46,0,0,1,2.55,9.54C152.18,132.78,149.26,133.06,147,133Z" transform="translate(0 0)" fill="#e53935" opacity="0.7"/><path d="M118.19,132.94c6.69,6,33.23,11.14,46.73,8.39s29.08-11.41,31.33-24.25-6.42-31.25-11.33-36.66-4-5-24.09-1.25-32.66,3-39.08,13.75S112,127.38,118.19,132.94Z" transform="translate(0 0)" fill="#ffb300" opacity="0.7"/><path d="M39.67,60.38c.71,2.37,6,2,7.83,3.16s8.17,3.33,6.79-2.62-5.75-6.38-9.5-5.88S38.67,57,39.67,60.38Z" transform="translate(0 0)" fill="#1e88e5" opacity="0.7"/></g></g><g id="frame"><rect id="frame-2" width="300" height="200" fill="none"/></g></svg>