<svg xmlns="http://www.w3.org/2000/svg" viewBox="0 0 30 20"><path d="M14.58,20H13.34s-.24-1.44-.43-2.77A5.48,5.48,0,0,0,12,14.54,4.07,4.07,0,0,1,9.4,13.6C8.16,12.49,5.89,10,5.54,8.93S5,6.54,4.71,6.38a4.34,4.34,0,0,0-2-.56c-.68.09-.77,0-.88-.16a.49.49,0,0,1-.12-.25s-.32,0-.29-.5.2-.7,1-1.2S3.68,3,4.21,2.64s.74-.32,1-.59a1.13,1.13,0,0,1,.57-.34,1.73,1.73,0,0,0,.3-.37c.06-.15.16-.28.13-.33S5,.89,4.2.68A12.13,12.13,0,0,1,2.34,0H4.63a1.24,1.24,0,0,0,.7.15c.51,0,.6-.15.6-.15h1l.29.67L7.55.23A.76.76,0,0,0,7.68,0h.93a1.52,1.52,0,0,1-.36.73c-.28.28-.86.93-.87.93A2.63,2.63,0,0,1,8.67.77C9.49.53,10,.54,10.14.76S10,1.94,9.86,2.26A1.49,1.49,0,0,1,9,3a2.39,2.39,0,0,1-.91.1A5.16,5.16,0,0,0,9,4.74,3.2,3.2,0,0,0,11.21,6c.84,0,1-.3,2.07,0A7.4,7.4,0,0,0,16,6.48a20.31,20.31,0,0,0,3.79-.29A9.42,9.42,0,0,0,22.24,6a3.81,3.81,0,0,1,2.92.13c1.35.47,1.89.82,2.47,1S29,8.93,29.11,9.73s-.1,1.45-.53,1.6-.61,0-.61,0A9.28,9.28,0,0,1,27.49,13a3.6,3.6,0,0,0-.18,2.87c.46.8.75,1.17.61,1.95S27.45,20,27.45,20h-2a7.3,7.3,0,0,0,0-2.35,11.13,11.13,0,0,0-2.08-3,9,9,0,0,1-.79-1.12,5.55,5.55,0,0,1-3.52,1.62,8.56,8.56,0,0,1-3.68-.29,3,3,0,0,0-.32,1.27,13.53,13.53,0,0,1-.31,2.38A8.27,8.27,0,0,0,14.58,20Z" transform="translate(0 0.02)" fill="#ccc"/><rect width="30" height="20" fill="none"/></svg>