<svg xmlns="http://www.w3.org/2000/svg" viewBox="0 0 30 20"><path d="M19,13.63c.8-.35,1.08-1,1.26-2.4s.51-2.42.3-2.87-.85-1-1.71,0a6.19,6.19,0,0,0-1.37,3.63C17.45,13.12,17.61,14.27,19,13.63Z" transform="translate(0 0.02)" fill="#1e88e5" opacity="0.7"/><path d="M20.85,13.78c1-.22,1.44-.85,1.23-1.44s-1-1.31-1.23-2.26-.05-1.9-.59-2.14-.7,1.53-1.19,2.52-1.13,2.2-.63,3.1S20.12,13.93,20.85,13.78Z" transform="translate(0 0.02)" fill="#1e88e5" opacity="0.7"/><path d="M22.18,12.66c.44,0,.64.37,1.24.17s1-.29,1-.95.65-.7.81-1.28.05-1.25.4-1.18.65-.25,1.06-.16.89.32.59-.55-1,0-1.5-.32-.39-.78-.94-.94a2.41,2.41,0,0,0-1.75,0c-.81.28-1.62-.1-2.12.27s-.32,1.65-.1,2.42.68.89.72,1.66S21.87,12.63,22.18,12.66Z" transform="translate(0 0.02)" fill="#1e88e5" opacity="0.7"/><path d="M14.11,13.49c-.57-.13-.82-.19-.95-.59s0-.57-.15-1-.28-.72-.24-.84.22-.18.29-.07.15.91.22.94.09-.14.07-.43,0-.49-.08-.55-.17-.12-.07-.16.21,0,.25,0,.11-.09.15,0,.16,0,.22.05-.07.42,0,.6.65.4.76.89a4,4,0,0,1,.08,1.2C14.66,13.58,14.35,13.55,14.11,13.49Z" transform="translate(0 0.02)" fill="#e53935" opacity="0.7"/><path d="M11.94,12.5c.47,1.11,3.6,1.61,4.8,1.46s2-2.18,2.17-3.67.53-2.45-1-2.51a19.32,19.32,0,0,0-3.76.53C13.05,8.45,11.09,10.5,11.94,12.5Z" transform="translate(0 0.02)" fill="#ffb300" opacity="0.7"/><path d="M5.83,3.33c.33.2.9.76,1.21.3a.64.64,0,0,0-.31-1c-.3-.12-1-.21-1.05.1S5.65,3.21,5.83,3.33Z" transform="translate(0 0.02)" fill="#1e88e5" opacity="0.7"/><rect width="30" height="20" fill="none"/></svg>