<!-- Copyright (c) 2022 - 2023 Jan Stehno -->
<svg xmlns="http://www.w3.org/2000/svg" viewBox="0 0 300 200"><title>muledeer_organs</title><g id="muledeer"><g id="organs"><path d="M190.25,136.58c7.93-3.54,10.75-10,12.58-24.08s5.09-24.17,3-28.67-8.5-10.41-17.16-.5S175.5,107.92,175,119.67,176.08,142.92,190.25,136.58Z" transform="translate(0 0)" fill="#1e88e5" opacity="0.7"/><path d="M208.5,138c9.82-2.12,14.42-8.42,12.33-14.33S210.75,110.52,208.5,101s-.47-18.91-5.9-21.33-7,15.25-11.89,25.16-11.29,22-6.29,31S201.17,139.58,208.5,138Z" transform="translate(0 0)" fill="#1e88e5" opacity="0.7"/><path d="M221.83,126.83c4.4.36,6.34,3.67,12.34,1.75s9.58-2.91,10.08-9.5,6.58-7,8.17-12.83.5-12.5,4-11.83,6.5-2.5,10.58-1.59,8.92,3.25,5.92-5.5-10,0-15-3.16-3.92-7.84-9.42-9.42-9.42-2.33-17.5.5-16.25-1-21.17,2.68-3.23,16.49-1,24.2,6.78,8.87,7.2,16.62S218.74,126.58,221.83,126.83Z" transform="translate(0 0)" fill="#1e88e5" opacity="0.7"/><path d="M141.14,135.16c-5.78-1.33-8.27-2-9.59-5.95s-.21-5.66-1.48-10.26-2.78-7.16-2.4-8.45,2.26-1.77,2.89-.67,1.54,9.11,2.24,9.38.85-1.38.68-4.24.05-5-.74-5.52-1.75-1.2-.7-1.62,2.05.41,2.46-.42,1.13-.91,1.52-.32,1.58-.22,2.2.5-.68,4.11.24,6,6.5,4,7.64,8.93a38.25,38.25,0,0,1,.78,11.94C146.59,136,143.49,135.69,141.14,135.16Z" transform="translate(0 0)" fill="#e53935" opacity="0.7"/><path d="M119.38,125.25c4.69,11.05,36,16.13,48,14.63s19.75-21.88,21.75-36.75,5.25-24.5-9.63-25.13-26.25,4-37.62,5.38S110.88,105.25,119.38,125.25Z" transform="translate(0 0)" fill="#ffb300" opacity="0.7"/><path d="M58.31,33.5c3.26,2,8.94,7.63,12.13,3s-.19-8.56-3.19-9.75-9.56-2.12-10.44,1S56.5,32.38,58.31,33.5Z" transform="translate(0 0)" fill="#1e88e5" opacity="0.7"/></g></g><g id="frame"><rect id="frame-2" width="300" height="200" fill="none"/></g></svg>