<!-- Copyright (c) 2022 Jan Stehno -->
<svg xmlns="http://www.w3.org/2000/svg" viewBox="0 0 300 200"><title>muledeer_body</title><g id="muledeer"><g id="body"><path d="M145.81,200H133.37s-2.37-14.38-4.25-27.63-6.25-25.37-8.87-26.75-13.88,1.75-26.25-9.37S58.88,100,55.38,89.5,50.25,65.62,47.13,64s-13.69-6.44-20.5-5.56-7.75.06-8.88-1.57a5.12,5.12,0,0,1-1.12-2.5s-3.25-.18-2.94-5.06,2-7,9.62-12S36.75,30.5,42.13,26.62s7.37-3.18,9.68-5.87a11.71,11.71,0,0,1,5.69-3.44,16.73,16.73,0,0,0,3-3.69c.63-1.43,1.63-2.75,1.25-3.31S50.06,9.12,42,7.06,23.44,0,23.44,0H46.25s2,1.5,7.06,1.5,6-1.5,6-1.5H69l2.88,6.75s2.62-3,3.62-4.25A7.26,7.26,0,0,0,76.81,0h9.32s-.82,4.62-3.63,7.37-8.56,9.25-8.69,9.25A26,26,0,0,1,86.69,7.94c8.19-2.38,13.31-2.25,14.75-.07s-1.25,11.75-2.88,15-4.68,5.5-8.87,7a23.7,23.7,0,0,1-9.06,1s3.06,9.63,9.56,16.82,13.56,12.81,21.94,12.93,10.45-2.95,20.7-.29,8.75,4,27.59,4.75,29.25-2.25,37.91-2.91S209.67,63,222.42,60s15.66-3.42,29.16,1.33,18.92,8.25,24.67,10,13.58,18.25,14.83,26.17-1,14.5-5.25,16.08-6.08.34-6.08.34a90,90,0,0,1-4.88,16.71c-3.37,8.12-6.37,20.75-1.75,28.75s7.5,11.62,6.13,19.5S274.5,200,274.5,200H254.75s2.25-13.83-.08-23.42-15.75-23.83-20.75-30A94.81,94.81,0,0,1,226,135.33s-11.92,13.92-35.17,16.25S154,148.67,154,148.67a29.75,29.75,0,0,0-3.17,12.66c-.08,7.09-1.33,14.59-3.16,23.84A86,86,0,0,0,145.81,200Z" transform="translate(0 0)" fill="#ccc"/></g></g><g id="frame"><rect id="frame-2" width="300" height="200" fill="none"/></g></svg>