<svg xmlns="http://www.w3.org/2000/svg" viewBox="0 0 30 20"><polygon points="17.1 7.42 16.6 8.07 16.27 9.09 16.04 10.22 15.97 10.89 16.08 11.25 16.31 11.4 16.54 11.46 16.98 11.42 17.5 11.22 17.75 10.94 17.89 10.56 18.04 9.28 18.01 8.12 17.84 7.59 17.62 7.35 17.45 7.31 17.1 7.42" fill="#1e88e5" opacity="0.7"/><polygon points="17.39 7.53 17.1 7.88 16.8 8.64 16.57 9.42 16.56 10.24 16.66 10.88 16.9 11.32 17.34 11.62 17.96 11.75 18.66 11.7 19.14 11.52 19.44 11.21 19.54 10.81 19.47 10.38 18.84 9.07 18.34 7.95 18.07 7.55 17.9 7.42 17.73 7.39 17.54 7.42 17.39 7.53" fill="#1e88e5" opacity="0.7"/><polygon points="18.44 7.41 18.26 7.66 18.16 8.08 18.18 8.44 18.48 9.36 18.75 10.07 19.14 10.48 19.39 10.82 19.7 10.97 20.05 11.08 20.42 11.02 20.71 10.86 20.94 10.63 21.19 10.42 21.4 10.08 21.63 9.83 21.88 9.51 21.99 9.22 22.08 9.14 22.31 9.09 22.6 9 22.88 8.9 23.17 8.92 23.4 8.9 23.62 8.78 23.76 8.63 23.75 8.53 23.6 8.42 23.34 8.42 22.89 8.41 22.51 8.52 22.32 8.46 22.12 8.28 21.84 7.93 21.43 7.71 20.62 7.52 19.58 7.34 19.1 7.27 18.75 7.33 18.44 7.41" fill="#1e88e5" opacity="0.7"/><polygon points="6.39 3.36 6.41 3.59 6.59 3.71 6.78 3.71 7.04 3.63 7.24 3.62 7.45 3.62 7.58 3.67 7.7 3.73 7.8 3.72 7.84 3.66 7.82 3.6 7.72 3.44 7.39 3.1 7.17 2.99 6.85 3.02 6.49 3.17 6.39 3.36" fill="#1e88e5" opacity="0.7"/><path d="M15.34,11.44a1.87,1.87,0,0,0-.52-.85,1.88,1.88,0,0,0-.72-.27,1.4,1.4,0,0,0-.41,0h0a1.61,1.61,0,0,1-.37,0c-.15-.07-.22-.34-.3-.35s-.12.1-.18.09a.08.08,0,0,0-.09.1c0,.08-.09.08-.15.17s.05.07.13.05.17.13.32.3.17.17.1.19-.34-.38-.44-.42-.25.17-.22.27.13.1.44.31a1,1,0,0,1,.15.11.72.72,0,0,1,.07.15.86.86,0,0,0,.6.56,2.63,2.63,0,0,0,1.25,0C15.26,11.75,15.36,11.63,15.34,11.44Z" transform="translate(0 0.02)" fill="#e53935" opacity="0.7"/><polygon points="12.55 8.1 12.18 8.57 12.04 9.06 12 9.57 12.15 10.07 12.53 10.65 13.31 11.17 14.17 11.44 14.98 11.51 15.62 11.44 16.1 11.19 16.58 10.48 16.95 9.28 16.98 8.16 16.87 7.58 16.61 7.33 15.83 7.27 13.98 7.51 12.91 7.87 12.55 8.1" fill="#ffb300" opacity="0.7"/><rect width="30" height="20" fill="none"/></svg>