<svg xmlns="http://www.w3.org/2000/svg" viewBox="0 0 30 20.02"><polygon points="3.88 5.9 3.79 5.87 3.73 5.79 3.67 5.61 3.61 5.39 3.6 5.22 3.66 5.07 3.78 4.98 3.89 4.94 4.2 4.72 4.53 4.42 4.97 4.11 5.24 3.9 5.44 3.73 5.58 3.63 5.75 3.35 5.85 3.16 5.99 3.07 6.22 2.94 6.33 2.81 6.56 2.35 6.7 1.88 6.75 1.38 6.75 0.84 6.74 0.67 6.75 0.6 6.78 0.59 6.83 0.61 6.87 0.72 6.92 0.92 6.97 1.16 7.03 1.49 7.02 1.21 7.03 1.14 7.06 1.12 7.09 1.12 7.13 1.19 7.21 1.51 7.26 1.88 7.31 2.22 7.44 2.03 7.59 1.93 7.84 1.94 7.98 2.04 8.11 2.27 8.16 2.56 8.15 2.9 8.54 3.23 9.37 3.98 9.95 4.47 11.37 5.21 11.86 5.41 12.4 5.47 12.84 5.44 13.65 5.24 14.25 5.14 14.95 5.24 15.55 5.5 15.98 5.78 16.48 5.93 17.63 5.95 18.43 5.98 19.11 6.09 19.71 6.19 20.28 6.18 21.22 6.2 22.23 6.31 22.99 6.53 23.68 6.83 24.44 7.27 24.81 7.7 25.09 8.32 25.25 8.9 25.26 9.28 25.22 9.88 25.28 10.65 25.34 11.27 25.41 11.62 25.59 11.94 25.7 12.33 25.69 12.69 25.81 13.28 25.66 13.35 25.61 13.54 25.42 13.63 25.29 13.51 25.16 13.62 25 13.53 24.86 13.34 24.77 12.77 24.86 12.14 24.9 11.68 24.85 10.87 24.75 10.57 24.48 10.97 24.25 11.42 23.98 12.04 23.93 12.39 24.01 12.72 24.33 13.15 24.8 13.68 25.07 14 25.16 14.31 25.16 14.76 25.11 15.28 25.05 15.99 25.05 16.51 25.17 17.27 25.34 17.95 25.42 18.38 25.5 18.67 25.45 18.75 25.39 18.81 25.31 18.85 25.2 19.04 25.14 19.24 25.13 19.49 25.09 19.7 25.04 19.86 24.89 19.96 24.66 20.02 23.82 20.02 23.7 19.97 23.65 19.91 23.61 19.93 23.57 19.91 23.55 19.87 23.57 19.74 23.84 19.4 23.83 19.3 23.95 19.07 24.18 18.8 24.28 18.49 24.34 17.96 24.23 17.13 23.96 16.05 23.62 15.02 23.51 14.9 23.42 14.87 23.33 15.15 23.14 15.75 23.07 16.2 23.05 16.8 23.05 17.66 23.05 18.15 22.99 18.24 22.92 18.28 22.85 18.27 22.73 18.4 22.69 18.5 22.66 18.73 22.64 18.92 22.59 18.96 22.52 18.98 22.45 19.06 22.34 19.13 21.67 19.13 21.3 19.01 21.16 18.95 21.14 18.85 21.18 18.75 21.36 18.62 21.5 18.54 21.68 18.31 21.77 18.16 21.94 17.96 22.09 17.51 22.17 16.98 22.18 16.07 22.11 15.16 22.04 14.7 21.88 14.45 21.61 14.18 21.41 13.85 20.77 13.06 20.34 12.51 20.09 12.15 19.98 11.93 19.9 11.88 19.8 11.89 19.62 12.01 19.14 12.23 18.66 12.37 18.18 12.47 17.76 12.53 17.18 12.52 16.5 12.46 15.97 12.38 15.51 12.35 15.11 12.38 14.93 12.41 14.8 12.87 14.66 13.44 14.59 13.87 14.53 14.69 14.41 15.5 14.34 15.95 14.29 16.45 14.27 17.03 14.25 17.7 14.28 18.18 14.28 18.3 14.23 18.4 14.15 18.45 14.03 18.6 13.98 18.76 13.96 18.92 13.96 19.05 13.91 19.11 13.8 19.19 13.72 19.27 13.59 19.34 13.47 19.36 13.3 19.36 13.29 19.61 13.27 19.76 13.11 19.94 12.96 20 12.77 20.02 12.06 20.02 11.9 19.97 11.86 19.9 11.9 19.81 12.11 19.61 12.28 19.43 12.27 19.32 12.34 19.16 12.55 18.86 12.73 18.54 12.91 17.81 12.94 16.7 12.9 15.85 12.87 15.69 12.78 15.47 12.74 15.06 12.75 14.42 12.76 13.8 12.63 12.98 12.58 12.75 12.19 12.63 11.71 12.26 10.93 11.42 10.43 10.69 10.02 10.06 9.71 9.8 9.37 9.59 9.21 9.55 9.08 10.45 8.87 10.89 8.57 11.11 8.63 10.82 8.49 10.95 8.52 10.54 8.5 10.26 8.45 10.04 8.24 9.72 7.93 9.23 7.79 8.95 7.73 8.61 7.74 8.29 7.78 8.14 7.46 7.66 7.18 6.79 6.93 5.95 6.88 5.77 6.8 5.71 6.65 5.65 6.34 5.64 5.79 5.75 5.22 5.9 4.83 6.11 4.53 6.19 4.31 6.18 4.13 6.14 3.99 6.05 3.92 5.95 3.88 5.9" fill="#ccc"/><rect width="30" height="20" fill="none"/></svg>