<svg xmlns="http://www.w3.org/2000/svg" viewBox="0 0 30 20"><polygon points="16.29 6.97 15.87 7.65 15.61 8.58 15.54 9.48 15.59 10.3 15.82 10.86 16.08 11.21 16.34 11.29 16.7 11.17 17.05 10.87 17.23 10.55 17.35 9.88 17.38 8.65 17.47 7.77 17.38 7.12 17.18 6.77 16.99 6.67 16.69 6.64 16.48 6.75 16.29 6.97" fill="#1e88e5" opacity="0.7"/><polygon points="16.52 7.57 16.21 8.27 16.07 8.77 16.02 9.5 16.13 10.16 16.38 10.87 16.69 11.3 17.02 11.47 17.57 11.52 18.43 11.25 19.01 10.94 19.24 10.7 19.24 10.29 19.09 9.7 18 7.74 17.54 7.05 17.31 6.85 17.11 6.84 16.95 6.88 16.75 7.12 16.52 7.57" fill="#1e88e5" opacity="0.7"/><polygon points="17.57 6.67 17.32 6.93 17.3 7.22 17.29 7.68 17.57 8.26 17.88 9.04 18.13 9.44 18.46 9.71 18.65 10.01 18.86 10.54 19.24 10.77 19.72 10.93 20.22 11 20.51 10.91 20.9 10.73 21.14 10.56 21.25 10.31 21.42 10.08 21.58 9.83 21.7 9.26 21.72 8.86 21.88 8.62 21.98 8.23 21.96 7.91 21.86 7.67 22.11 7.67 22.29 7.58 22.47 7.44 22.65 7.41 22.83 7.42 23 7.43 23.15 7.27 23.15 7.12 23.1 6.99 22.92 6.91 22.63 6.84 22.35 6.84 22.1 6.95 21.85 6.96 21.57 6.82 21.2 6.59 20.86 6.39 20.39 6.33 19.96 6.3 19.19 6.32 18.4 6.37 17.85 6.48 17.57 6.67" fill="#1e88e5" opacity="0.7"/><polygon points="6.37 2.98 6.29 3.1 6.32 3.23 6.34 3.36 6.46 3.48 6.65 3.56 6.92 3.62 7.24 3.72 7.42 3.81 7.63 3.84 7.79 3.81 7.89 3.71 7.94 3.58 7.92 3.44 7.85 3.24 7.71 3.08 7.51 2.96 7.28 2.9 7.01 2.84 6.67 2.85 6.48 2.88 6.37 2.98" fill="#1e88e5" opacity="0.7"/><path d="M13.61,11.8c-.48-.06-.69-.09-.81-.37s0-.39-.17-.71-.26-.49-.23-.58a.16.16,0,0,1,.24-.06c0,.07.16.63.22.65s.06-.11,0-.3,0-.35-.09-.39-.15-.07-.06-.11.17,0,.2,0,.09-.07.12,0,.13,0,.19,0,0,.3,0,.42.55.25.67.59a2.27,2.27,0,0,1,.11.83C14.07,11.84,13.81,11.83,13.61,11.8Z" transform="translate(0 0.02)" fill="#e53935" opacity="0.7"/><polygon points="12.16 8.39 11.88 8.84 11.71 9.37 11.74 10.02 12.06 10.51 12.56 10.97 13.13 11.22 13.98 11.39 14.97 11.53 15.58 11.56 16.01 11.48 16.32 11.21 16.58 10.32 16.72 8.44 16.68 7.33 16.6 6.92 16.39 6.71 16.17 6.68 15.66 6.75 15.01 6.96 13.16 7.77 12.58 8.07 12.16 8.39" fill="#ffb300" opacity="0.7"/><rect width="30" height="20" fill="none"/></svg>