<svg xmlns="http://www.w3.org/2000/svg" viewBox="0 0 30 20.02"><path d="M25.4,9.2V8.86l-.27-.52L25,8l-.42-.52,0-.3-.32-.39V6.6l-.62-.32-.4-.11L22.79,6l-.73-.35-.79-.34-1-.19-.7,0-1.08,0-1,.09-1,.11-1.08.27-1.15.27L13.59,6l-.85,0-.67.1-.78.08-.65-.12-.53-.31-.51-.5L9.16,4.8l-.39-.53-.15-.4.08-.16.1-.26v-.4l0-.31-.13-.16-.14-.05.1-.13,0-.11,0-.15L8.76,2l.47-.36.47-.26.29-.1h.26l.12,0h.05l0,0,0-.06-.09-.07-.2-.06H9.8l-.28,0-.3.12-.53.32L9,1.18,9.42.94,9.78.86l.27,0,.19.06.14.08,0,0v0L10.36.84,10.24.73,10,.63,9.79.58H9.56l-.22,0L9,.77,8.55,1,8,1.47l0,0-.11,0-.1,0-.13.06-.23.21-.26.22-.28.29-.35.28-.19.19-.18.14L6,2.91,5.7,3l-.28.25-.36.33-.26.17-.41.26-.46.3-.39.25-.16.07-.09.15L3.23,5l0,.22.07.15.12.08,0,0,.07.07.14.1.19.09.25,0h.36l.32,0,.46.06L5.8,6l.44.18.42.32L7,6.84l.3.62.37.73.54.67.66.57.48.43.58.64.47.59.35.48.37.37.47.36.61.24.37.07.08.52,0,.64-.05.78,0,.49.07.73.05.77v.61l-.09.64-.15.42-.18.41-.27.3-.15.21v.14l0,.15-.06.13-.14.16-.06.07v0l.06,0,0,.08.25.07h.45l.23-.09.15-.11.14-.05,0-.1v-.21l0-.24L13,19l.12.05h.59l.07-.05h.17l.13-.11,0-.29,0-.29.11-.1,0-.11v-.25l0-.29.08-.46v-.77l0-.91,0-.73v-.79l0-.68.09-.57.07-.3.58,0,.49.05.61.11.66.1h.62l.66-.09.44-.15.4-.16.13,0,.17,0h.16l.25-.1.41.34,1.05,1.09.41.49.14.46,0,.77-.22.81-.34,1.06-.28.66-.19.22-.13.07-.14.21,0,.16-.2.19,0,.06.07,0,.08.07.32.06H21l.15-.07.19,0,.1-.08.12-.33.14-.27.1-.06.07-.09v-.11l.07-.4.18-.75.23-.75.3-.82.3-.69.11.06.16.2.22.47.19.56.11.75.05.91,0,.8-.05.33-.15.32-.24.35,0,.19-.14.19a1.19,1.19,0,0,0-.09.15l.06.06h.1l.05.08.16.07H24l.28-.08.17-.07.12-.16.06-.41,0-.42.08-.06v-.13L24.68,18l-.11-.74-.06-1,0-1,0-1V13.8l-.07-.35-.09-.16-.13-.07-.21,0-.19-.1-.21-.29-.16-.44-.26-.52-.14-.32,0-.44.31-.5.33-.58L24,9.37l.29.22.13.18.29,0L25,9.71l.31,0,.19-.18ZM13.63,17.45l-.08.32-.14.24-.13.15-.09.11.07-.29.11-.21.05-.3.05-.49,0-.49.08-.31.07.85Z" transform="translate(0 0.02)" fill="#ccc"/><rect width="30" height="20" fill="none"/></svg>