<svg xmlns="http://www.w3.org/2000/svg" viewBox="0 0 30 20"><path d="M13.72,20c-.56,0-.71,0-.48-.3s.62-.56.69-.95a6.72,6.72,0,0,0,.15-1.27c0-.31-.06-.35-.06-.35a2.05,2.05,0,0,0-.31.82c0,.43,0,1.26-.13,1s-.06.1-.14.24-.19.25-.69.25-.8,0-.48-.28A2.07,2.07,0,0,0,13,17.91a4.66,4.66,0,0,0,0-1.59,7.33,7.33,0,0,0-.14-1.07c-.16-.51-1.14-.12-1.08.06s-1.15-.05-1.11.19-1.15,0-1.16.1-1-.47-1-.27-1-.95-.95-.67-1-1-1-.74-.23-.48-.83-.33-1.24.49-1.08.19-.92-.12-.71-.31-.47-.27-.39-.71-.08-.37-.3-.37-.61-.49-.82-.59-.32-.46-.44-.59a.9.9,0,0,1-.14-.84L1.88,10a2.4,2.4,0,0,1,0-1.38c.25-.68.65-.91.84-1.79a2.39,2.39,0,0,1,.9-1.65c.5-.4.92-.13,1.25-.62s.81-2,.87-.45c0,.59-.26.68.11.59.67-.17,2.29-1.11,3-1.4a8.32,8.32,0,0,1,3.29-1A12.58,12.58,0,0,1,17,3c1.48.65,1.6,1.64,3.65,2.34s4.2.89,5.62,1.59A2.57,2.57,0,0,1,28,9.17c0,.62-.38,1.46-.24,2.06a2.91,2.91,0,0,0,.39,1.1c.12.1-.05,0-.06.2s.08.12-.1.25-.11,0-.27,0-.09-.13-.16,0,0,0-.19-.05.25.64.43.89.54.5.6.75a16.49,16.49,0,0,1-.19,1.76,6,6,0,0,0,.11,1.61c.09.3-.14.73-.18.46s-.05.32-.27.44a1.11,1.11,0,0,1-.4.15,1.23,1.23,0,0,1,0,.3c0,.17-.14.16-.19.06s-.07.41-.19.6-.24.27-.75.27-.74,0-.45-.38a2.11,2.11,0,0,0,.53-1c0-.37.23-2.41-.22-3.09a16.83,16.83,0,0,0-1.88-1.84,9.74,9.74,0,0,0-.79-.77A4.91,4.91,0,0,1,21.92,14a15.91,15.91,0,0,0-2.13.95c-.53.3-.42.06-.63-.33s-3.38,0-3.38,0A2.29,2.29,0,0,1,15.72,16a10.24,10.24,0,0,0-.9,2.14,8.22,8.22,0,0,0,0,1c0,.25-.07.39-.15.21s-.1.3-.19.41S14.14,20,13.72,20Z" transform="translate(0 0.02)" fill="#ccc"/><rect width="30" height="20" fill="none"/></svg>