<!-- Copyright (c) 2023 Jan Stehno -->
<svg xmlns="http://www.w3.org/2000/svg" viewBox="0 0 300 200">
    <title>plainsbison_body</title>
    <g id="plainsbison">
        <g id="body">
            <path
                d="M137.25,200c-5.63,0-7.17-.16-4.86-2.95s6.2-5.64,6.88-9.49,1.85-9.62,1.57-12.72-.62-3.47-.62-3.47a20.69,20.69,0,0,0-3.1,8.22c-.4,4.22-.06,12.57-1.31,10.07s-.56,1-1.44,2.37-1.87,2.5-6.84,2.5-8,0-4.87-2.78a20.81,20.81,0,0,0,7-12.41c.82-5.47.84-12.13-.08-15.92s.17-5.59-1.46-10.67-11.33-1.17-10.75.58-11.5-.5-11.08,1.92-11.58-.42-11.67,1S84.5,151.5,84.33,153.5s-10.25-9.42-9.5-6.67-10-9.58-10-7.41-2.37-4.82-8.33-3.23C50.73,137.73,44.1,141,45.69,138s-9.23-1.15-7.07-3.06-4.75-2.69-3.87-7.07-.81-3.68-3.06-3.68-6.11-4.9-8.19-6-3.17-4.54-4.38-5.88A9.06,9.06,0,0,1,17.67,104l1.16-3.71s-2.33-7.06.11-13.81,6.43-9.07,8.37-17.94,3.62-11.93,9-16.42c4.92-4.08,9.21-1.37,12.5-6.21,3.63-5.33,8.09-19.87,8.63-4.54.21,5.88-2.58,6.83,1.1,5.92,6.74-1.67,23-11.09,30.36-14,11.41-4.5,19.33-10.38,32.83-10.5s33.13,1,48,7.5,16.08,16.42,36.58,23.42,42,8.83,56.17,15.83,17.25,16.17,17.33,22.42-3.83,14.58-2.41,20.66,2.75,9.92,3.91,10.92-.5.17-.58,2,.75,1.25-1,2.5-1.17-.5-2.75-.17-.92-1.25-1.58-.16-.17,0-1.92-.5,2.5,6.33,4.33,8.91,5.42,5,6,7.45-1.66,12.64-2,17.64.17,13.12,1.09,16.08-1.34,7.33-1.75,4.63-.46,3.16-2.67,4.41a11.14,11.14,0,0,1-4,1.42,13.34,13.34,0,0,1,.38,3.08c0,1.67-1.38,1.59-1.88.54s-.75,4.09-1.92,6-2.41,2.67-7.5,2.67-7.37,0-4.54-3.75,5-6.46,5.29-10.12,2.3-24.13-2.12-30.88-15-14.25-18.83-18.42a107.61,107.61,0,0,0-7.92-7.66,49.75,49.75,0,0,1-16.25,10.75,157.85,157.85,0,0,0-21.33,9.5c-5.34,3-4.25.58-6.34-3.25s-33.75.08-33.75.08a23.2,23.2,0,0,1-.66,14.42c-2.92,7.91-9.09,16.33-9,21.33s-.34,7.62,0,10.12-.67,3.88-1.46,2.17-1,3-1.92,4S141.37,200,137.25,200Z"
                transform="translate(0 0)" fill="#ccc" />
        </g>
    </g>
    <g id="frame">
        <rect id="frame-2" width="300" height="200" fill="none" />
    </g>
</svg>