<svg xmlns="http://www.w3.org/2000/svg" viewBox="0 0 30 20"><path d="M16.49,12.5a3.75,3.75,0,0,0,2-2.52c.26-1.35.61-2.42,0-2.83s-1.27.21-1.69,1a9.27,9.27,0,0,0-1.08,2.94C15.62,12,15.32,13.16,16.49,12.5Z" transform="translate(0 0.02)" fill="#1e88e5" opacity="0.7"/><path d="M18.5,12.57c.95-.36,1.89-.52,1.86-1.33s-.66-1.05-.87-2-.27-1.82-.7-2.15-1.11.81-1.39,1.77a27.73,27.73,0,0,1-.89,2.85C16.25,12.29,16.2,13.45,18.5,12.57Z" transform="translate(0 0.02)" fill="#1e88e5" opacity="0.7"/><path d="M20.66,11c.58.08.95.63,1.5.25s.86-.58.95-.91.71-.32.77-.72.39-.45.79-.46,1.53.13,1.16-.22a1.45,1.45,0,0,0-1.33-.29c-.42.1-.68-.43-1.22-.66s-.72,0-1.7-.27-1.47-.53-2-.25-.49.88-.28,1.47S19.93,10.86,20.66,11Z" transform="translate(0 0.02)" fill="#1e88e5" opacity="0.7"/><path d="M14.65,12.91c-.53-.17-.76-.24-.86-.64s0-.57-.08-1a3.35,3.35,0,0,1-.18-.85c0-.12.22-.16.27-.05s.1.91.16.94.09-.13.09-.41,0-.5,0-.55-.16-.13-.06-.17.19,0,.24,0,.11-.08.14,0,.15,0,.2.06-.08.4,0,.59.59.43.66.93a3.79,3.79,0,0,1,0,1.18C15.15,13,14.87,13,14.65,12.91Z" transform="translate(0 0.02)" fill="#e53935" opacity="0.7"/><path d="M10.71,9.79c.21,1.19,1.22,1.62,2.64,2.32s2.26.72,2.89-.75S17.73,8,17.52,7.23s-1.14-.62-2.36-1.13-2.11-1.1-3-.79S10.38,7.9,10.71,9.79Z" transform="translate(0 0.02)" fill="#ffb300" opacity="0.7"/><path d="M4.27,7.43a2.09,2.09,0,0,0,1.87-.35A.65.65,0,0,0,6,5.93a2.48,2.48,0,0,0-1.85.68C3.88,7,4,7.33,4.27,7.43Z" transform="translate(0 0.02)" fill="#1e88e5" opacity="0.7"/><rect width="30" height="20" fill="none"/></svg>