<!-- Copyright (c) 2022 - 2023 Jan Stehno -->
<svg xmlns="http://www.w3.org/2000/svg" viewBox="0 0 300 200"><title>plainsbison_organs</title><g id="plainsbison"><g id="organs"><path d="M164.88,125.25c7.24-4.13,17-11.75,19.62-25.25s6.13-24.12,0-28.25-12.75,2.13-16.87,10.5-10.38,20.5-10.88,29.38S153.25,131.88,164.88,125.25Z" transform="translate(0 0)" fill="#1e88e5" opacity="0.7"/><path d="M185,126c9.51-3.61,18.88-5.23,18.63-13.35S197,102.13,194.88,93s-2.7-18.12-7-21.5S176.75,79.6,174,89.24s-6.25,23.14-8.87,28.51S162,134.7,185,126Z" transform="translate(0 0)" fill="#1e88e5" opacity="0.7"/><path d="M206.63,109.88c5.73.8,9.5,6.25,15,2.5s8.54-5.88,9.45-9.13,7.09-3.25,7.75-7.17,3.92-4.58,7.84-4.66,15.33,1.31,11.66-2.18-9.16-3.91-13.33-2.91-6.83-4.25-12.16-6.58-7.26.33-17-2.67-14.73-5.36-19.58-2.58-4.92,8.8-2.83,14.74S199.25,108.83,206.63,109.88Z" transform="translate(0 0)" fill="#1e88e5" opacity="0.7"/><path d="M146.51,129.31c-5.32-1.63-7.61-2.38-8.61-6.41s.12-5.61-.82-10.23-2.19-7.24-1.76-8.5,2.2-1.62,2.73-.5.93,9.1,1.57,9.4.87-1.32.87-4.16.32-4.92-.38-5.5-1.57-1.28-.57-1.64,1.9.51,2.32-.3,1.11-.83,1.44-.23,1.48-.13,2,.62-.86,4-.11,5.92,5.84,4.27,6.63,9.25a40,40,0,0,1,.06,11.86C151.54,130.45,148.66,130,146.51,129.31Z" transform="translate(0 0)" fill="#e53935" opacity="0.7"/><path d="M107.13,98.13c2.12,11.87,12.12,16.25,26.37,23.25s22.63,7.12,28.88-7.5,14.87-33.63,12.87-41.38-11.5-6.12-23.62-11.25-21.13-11-29.75-7.87S103.75,79.25,107.13,98.13Z" transform="translate(0 0)" fill="#ffb300" opacity="0.7"/><path d="M42.67,74.5c6.22,2.31,14.58.08,18.75-3.5s3.33-10.33-1.5-11.5-15.92,3-18.5,6.83S40,73.5,42.67,74.5Z" transform="translate(0 0)" fill="#1e88e5" opacity="0.7"/></g></g><g id="frame"><rect id="frame-2" width="300" height="200" fill="none"/></g></svg>