<svg xmlns="http://www.w3.org/2000/svg" viewBox="0 0 30 20"><path d="M21.44,6.28c.75-.09,1.13.3,1.8.25s1.3.5,1.79.6c.22,0,.23.16.39.38s1.11.21,1.3.65c.28.66,0,.23-.8,0a.72.72,0,0,0-.72.38,4.37,4.37,0,0,1-.72,1.86c-.44.59-.94,1.22-2,.67s-1.58-1-1.62-1.7a10.87,10.87,0,0,0-.06-1.91C20.61,6.81,20.33,6.4,21.44,6.28Z" transform="translate(0 0.02)" fill="#1e88e5" opacity="0.7"/><path d="M22.19,10.94c-.08.48-1.47,1.36-2.14.56s0-1.2.12-2,.63-1.29.93-.37S22.35,10.08,22.19,10.94Z" transform="translate(0 0.02)" fill="#1e88e5" opacity="0.7"/><path d="M20.68,11.09c-.28.52-1.34.57-1.74.34s-.61-1.53-.32-2.87.66-2.15,1.43-2.21.79,1.65.72,2.38S21.19,10.15,20.68,11.09Z" transform="translate(0 0.02)" fill="#1e88e5" opacity="0.7"/><path d="M17,12.74c-.43,0-.62,0-.75-.24s-.05-.32-.18-.57-.25-.38-.23-.45a.15.15,0,0,1,.21-.07c.05.06.17.5.23.51s.05-.08,0-.24,0-.28-.09-.31-.14,0-.07-.08.16,0,.18,0,.08-.06.11,0,.12,0,.17,0,0,.24.06.33.5.17.62.43a1.66,1.66,0,0,1,.14.67C17.43,12.74,17.2,12.75,17,12.74Z" transform="translate(0 0.02)" fill="#e53935" opacity="0.7"/><path d="M18.54,12.63A6.53,6.53,0,0,1,14,11.9a3.36,3.36,0,0,1-.18-2.35c.2-1,.47-1.69,1.22-2.05s3.57-.88,4.06-1,.56-.26.74.65a13.28,13.28,0,0,1,.24,4.25C19.83,12.24,19.1,12.43,18.54,12.63Z" transform="translate(0 0.02)" fill="#ffb300" opacity="0.7"/><path d="M7.86,5.08A1.09,1.09,0,0,1,7,4.43c-.17-.35-.51-.65-.08-.73s1.26.13,1.42.54A.58.58,0,0,1,7.86,5.08Z" transform="translate(0 0.02)" fill="#1e88e5" opacity="0.7"/><rect width="30" height="20" fill="none"/></svg>