<svg xmlns="http://www.w3.org/2000/svg" viewBox="0 0 30 20.05"><path d="M25.9,20a6,6,0,0,0,0-1,7.9,7.9,0,0,0-.23-1L25.52,20h-1a8,8,0,0,0,.21-1.7,7.41,7.41,0,0,0-.15-1.75A17.23,17.23,0,0,0,23,13.68a8.09,8.09,0,0,1-.74-.88s-.1.15-.42.12-.39-.15-.39-.15a3.47,3.47,0,0,1-1.72.59c-.88,0-1.06-.09-1.67-.09s-1,.11-1.35.11-.66,0-.66,0a5.65,5.65,0,0,0,.15,1.54,6.46,6.46,0,0,1,.31,1.79,8.48,8.48,0,0,0,.15,1.74L16.89,20H16a10.33,10.33,0,0,0-.21-1.83,8.46,8.46,0,0,0-.6-1.74s-.09,1-.09,1.76,0,1.81,0,1.81H14.2a11.11,11.11,0,0,0,.19-1.9,6.65,6.65,0,0,0-.28-1.65,6.31,6.31,0,0,0,0-1.7,8.47,8.47,0,0,0-.27-1.45,3,3,0,0,1-1.54-.22,2.18,2.18,0,0,1-.77-1A2.82,2.82,0,0,0,10,10.77,8.8,8.8,0,0,1,7.56,8.39c-.45-.67-.54-1-.95-1.29a3.59,3.59,0,0,0-1.8-.26c-.63,0-1,.25-1.43.25s-.62-.21-.62-.29V6.63s-.16.06-.26-.16a.91.91,0,0,1,0-.77,12,12,0,0,1,2-1.52c.3-.15.66-.39.73-.73s0-.32.15-.51a.93.93,0,0,1,.27-.26A20.16,20.16,0,0,1,4,.49c0-.17.23,0,.4-.1s0-.36,0-.36H5.68A6.85,6.85,0,0,0,6,1.25a8.31,8.31,0,0,0,.51,1l.26-.06a5.6,5.6,0,0,1,0-.75c0-.52,0-.74.07-.76a5.56,5.56,0,0,1,.6,1s0-.36.08-.37.31.84.62,1.22,1.19.79,1.75,1.74A2.79,2.79,0,0,0,12.31,6a21.53,21.53,0,0,0,2.58-.51,6.14,6.14,0,0,0,1.57.1,30.81,30.81,0,0,1,4.27-.37c1.93,0,1.66-.45,3.81.17s3,1.71,3.24,2.67.13,2.26-.11,2.23S27,9.61,27,9.61a6.1,6.1,0,0,1-1,1.6,3.35,3.35,0,0,0-.95,1.72A4,4,0,0,0,26,15c.57.5.45.55.43,1.06a9.86,9.86,0,0,0,.18,2.46c.21.88.31,1.48.31,1.48Z" transform="translate(0 0.02)" fill="#ccc"/><rect width="30" height="20" fill="none"/></svg>