<!-- Copyright (c) 2023 Jan Stehno -->
<svg xmlns="http://www.w3.org/2000/svg" viewBox="0 0 300 200">
    <title>pronghorn_organs</title>
    <g id="pronghorn">
        <g id="organs">
            <path
                d="M214.44,63c7.45-.84,11.25,3,18,2.5s13,5,17.88,6c2.17.45,2.31,1.64,3.87,3.88,2.33,3.36,11.07,2.06,13,6.5,2.82,6.58,0,2.28-8,.06-2.95-.82-6.88,2.31-7.19,3.81-1.29,6.26-2.81,12.75-7.18,18.63s-9.38,12.12-20.38,6.62-15.83-9.53-16.26-16.92.92-12.49-.59-19.11S203.32,64.25,214.44,63Z"
                transform="translate(0 0)" fill="#1e88e5" opacity="0.7" />
            <path
                d="M221.94,109.67c-.88,4.82-14.79,13.57-21.44,5.62s-.3-12.05,1.24-20S208,82.33,211,91.58,223.52,101,221.94,109.67Z"
                transform="translate(0 0)" fill="#1e88e5" opacity="0.7" />
            <path
                d="M206.82,111.19c-2.8,5.13-13.38,5.69-17.44,3.37s-6.11-15.31-3.19-28.73,6.58-21.5,14.33-22,7.84,16.46,7.17,23.71S211.94,101.79,206.82,111.19Z"
                transform="translate(0 0)" fill="#1e88e5" opacity="0.7" />
            <path
                d="M170.22,127.67c-4.36-.21-6.25-.34-7.49-2.47s-.54-3.16-1.79-5.63-2.54-3.78-2.35-4.54a1.42,1.42,0,0,1,2.09-.64c.54.56,1.76,5,2.3,5.07s.53-.86.21-2.45-.3-2.8-.92-3-1.38-.51-.63-.84,1.54,0,1.79-.47a.7.7,0,0,1,1.1-.32c.32.3,1.15-.27,1.66.08s-.22,2.38.58,3.34,5.08,1.64,6.26,4.33a16.56,16.56,0,0,1,1.38,6.65C174.31,127.66,172,127.76,170.22,127.67Z"
                transform="translate(0 0)" fill="#e53935" opacity="0.7" />
            <path
                d="M185.36,126.5c-15.31,5.18-42.09-3.42-45.17-7.25s-3.67-13.25-1.75-23.5,4.67-16.92,12.17-20.5,35.66-8.83,40.58-10.42,5.58-2.58,7.42,6.5,5.16,33.67,2.41,42.5S191,124.58,185.36,126.5Z"
                transform="translate(0 0)" fill="#ffb300" opacity="0.7" />
            <path
                d="M78.61,51c-3.43.3-7.34-2.83-9.09-6.42s-5.08-6.5-.83-7.33,12.64,1.29,14.17,5.42S82.4,50.67,78.61,51Z"
                transform="translate(0 0)" fill="#1e88e5" opacity="0.7" />
        </g>
    </g>
    <g id="frame">
        <rect id="frame-2" width="300" height="200" fill="none" />
    </g>
</svg>