<!-- Copyright (c) 2022 Jan Stehno -->
<svg xmlns="http://www.w3.org/2000/svg" viewBox="0 0 300 200.5"><title>pronghorn_body</title><g id="pronghorn"><g id="body"><path d="M259,200.5a54.91,54.91,0,0,0-.41-10.19,76.42,76.42,0,0,0-2.25-10.37l-1.13,20.56H245a77.75,77.75,0,0,0,2.13-16.94c0-8.62-.88-15.75-1.56-17.5s-10.42-23.18-15.8-29a72.14,72.14,0,0,1-7.33-8.87s-1,1.58-4.21,1.25-3.91-1.5-3.91-1.5-8.38,5.87-17.21,5.87-10.59-.91-16.75-.91-9.84,1.16-13.5,1.16a65.39,65.39,0,0,1-6.59-.33,56.65,56.65,0,0,0,1.5,15.42c2,8.41,3.42,13,3.17,17.83s.25,10.25,1.42,17.42,2.58,16.08,2.58,16.08h-8.66a103.06,103.06,0,0,0-2.09-18.29,85.68,85.68,0,0,0-6-17.33s-1,9.7-.91,17.58-.38,18-.38,18H142a108.46,108.46,0,0,0,1.92-18.92c0-9.5-2.83-14.58-2.83-16.58a63.57,63.57,0,0,0-.42-17c-1.5-11.17-2.67-14.42-2.67-14.42s-11.33.92-15.45-2.27-5.38-5.37-7.69-10.44-8.5-10.75-14.63-12.93-20.18-17-24.68-23.75-5.38-10.13-9.44-12.94-11.75-2.56-18.06-2.56-9.75,2.5-14.32,2.5-6.18-2.13-6.18-3V66.58S26,67.16,25,65a8.69,8.69,0,0,1,.2-7.72C26.69,54.79,41.75,43.5,44.75,42s6.63-3.88,7.32-7.25.2-3.25,1.58-5.13A9.32,9.32,0,0,1,56.32,27S39.63,6.94,39.75,5.19s2.32,0,4-1,.5-3.69.5-3.69h12.5a69,69,0,0,0,3.63,12.25A83,83,0,0,0,65.5,23.12l2.63-.56a51.87,51.87,0,0,1-.56-7.5c-.13-5.19-.19-7.37.68-7.62s6.07,10.18,6.07,10.18S74,14,75.13,13.94s3.06,8.37,6.19,12.25S93.19,34,98.82,43.5s12.75,16.62,24.25,16.62,19.7-5,25.87-5,2.83,1.75,15.67.92,23.33-4.17,42.66-3.67,16.67-4.45,38.17,1.67,30.38,17.13,32.38,26.75,1.25,22.63-1.13,22.25-6.5-6.62-6.5-6.62-4,10-9.58,16-9.84,14.09-9.5,17.25,2.91,15.84,8.58,20.92,4.5,5.5,4.33,10.67-.41,15.83,1.75,24.58,3.09,14.75,3.09,14.75Z" transform="translate(0 0)" fill="#ccc"/></g></g><g id="frame"><rect id="frame-2" width="300" height="200" fill="none"/></g></svg>