<svg xmlns="http://www.w3.org/2000/svg" viewBox="0 0 30 20"><path d="M14,12.49a2.76,2.76,0,0,0,.66-1.61,21.7,21.7,0,0,1,.59-2.8c.14-.52-.37-1-1-.13s-1.46,2-1.39,3.11S13.71,12.88,14,12.49Z" transform="translate(0 0.02)" fill="#1e88e5" opacity="0.7"/><path d="M15.74,12.4c1.06-.4,1.94-1.09,2-1.6a1.75,1.75,0,0,0-.15-1.6c-.42-.82-.78-1.81-1.24-2s-1.29.36-1.63,1A24.93,24.93,0,0,0,14,10.9C13.81,11.56,13.66,13.18,15.74,12.4Z" transform="translate(0 0.02)" fill="#1e88e5" opacity="0.7"/><path d="M16.67,8.79c.23.87.95.9,1,1.53s.68.46.8.75S19.3,10.88,20,11s1-.8,1.46-1.16.89-.74.94-1.19.19-.31.75-.3.66-.08.94.09.67-.62-.22-.71-1.15-.2-1.47-.5a3,3,0,0,0-2.15-.83c-1.19,0-1.48-.26-2.4,0S16.13,6.84,16.67,8.79Z" transform="translate(0 0.02)" fill="#1e88e5" opacity="0.7"/><path d="M10.5,12.23c-.49-.09-.7-.13-.81-.44s0-.43-.14-.78-.25-.54-.22-.64.19-.14.24,0,.15.69.21.71.07-.11.05-.33,0-.38-.07-.42-.15-.09-.06-.12.17,0,.2,0,.1-.07.13,0,.13,0,.18,0-.05.32,0,.46.56.29.66.66a2.75,2.75,0,0,1,.08.91C11,12.29,10.7,12.27,10.5,12.23Z" transform="translate(0 0.02)" fill="#e53935" opacity="0.7"/><path d="M10,11.74a5.53,5.53,0,0,0,3.6.64c.88-.33,1-1.52,1.28-2.58s.68-2,.11-2.37A10.3,10.3,0,0,0,10.39,7C8.7,7.28,7.61,8.28,7.68,9A4.72,4.72,0,0,0,10,11.74Z" transform="translate(0 0.02)" fill="#ffb300" opacity="0.7"/><path d="M3.41,5.28c0,.54.72.2,1,.4s1,.16.91-.27-.18-.82-.68-.84S3.42,4.73,3.41,5.28Z" transform="translate(0 0.02)" fill="#1e88e5" opacity="0.7"/><rect width="30" height="20" fill="none"/></svg>