<!-- Copyright (c) 2023 Jan Stehno -->
<svg xmlns="http://www.w3.org/2000/svg" viewBox="0 0 300 200">
    <title>puma_body</title>
    <g id="puma">
        <g id="body">
            <path
                d="M288.08,186c-1.75-2-3.83-.08-7.5,1.17s-14,.91-17.16-4.59-3.67-18.25-1.25-35.08,7.21-40.62,2.83-54.62-8.33-23.68-25.75-32.25C223,52.63,212.38,49.25,195,50.5s-16.67,6.83-42.08,8.42-38,1.21-53.92-3-18.75-3.8-24-1.8-8.33,3.5-14.08-2.58S49.83,45.17,47.5,42.83s-2.28-5.14-4.59-6-5.28,2.22-5.5,3.6-.69,3.78-.69,3.78a31.55,31.55,0,0,0-10.8,4.27c-4.71,3.21-6.38,5.62-9,8.21S10.29,62.38,10.25,64s1,2.38,1.17,4.33.46,5.17,2,6.17l1.58,1a2.81,2.81,0,0,0-.62,3.29c1,1.88,3.91,4.67,7.21,2.92s5.45-2.75,8.83-2.08,6.29.79,8.83,5,8,7.75,15.38,12.25,10.91,6,12.16,9.42a52.83,52.83,0,0,0,10.59,17.08c6,6.42,6.41,16.09,7.08,27.25s2.33,24.25-.42,28.75-6.33,3.92-10.66,5.09-5.69,3.34-5.25,6,4.39,4.52,7.52,4.27a28.14,28.14,0,0,0,6.44-1.48s-1.29,3.13.15,4.63S84.75,200,95,200c15.63,0,14.25-3.87,15.75-8.5s1.69-14.44,3.19-16,1-5.87.56-9.5,1-17,1.75-23,.83-14.58.83-14.58a138.2,138.2,0,0,0,34,2.33c17.84-1.17,38.75-9.67,38.75-9.67s-.25,7.5,9.17,17,24.83,21.34,24.83,26.59-9,18.41-14.16,20.58-14.17,4.5-14.17,8.58,1.25,6.17,10.92,6.17,14-2.08,14.91-3.25a30.41,30.41,0,0,0,2-3.08h7.25c4.42,0,8.59-1.75,11-7.25s9.84-21.25,9.84-21.25-.17,19.75,8.5,25.58,16.83,6.33,21.5,4.25S289.83,188,288.08,186Zm-33.7-69.62c-1.81,14.8-2.11,29.13-1.79,30.29,0,.06.06.09,0,.08s0,0,0-.08c-.73-.95-9.76-10.13-14.46-15.54-5-5.75-5.88-9.38-2.88-14.25s6.32-13.5,8.85-19.75S248.75,84,248.75,84,256.25,101,254.38,116.38Z"
                transform="translate(0 0)" fill="#ccc" />
        </g>
    </g>
    <g id="frame">
        <rect id="frame-2" width="300" height="200" fill="none" />
    </g>
</svg>