<!-- Copyright (c) 2022 - 2023 Jan Stehno -->
<svg xmlns="http://www.w3.org/2000/svg" viewBox="0 0 300 200"><title>puma_organs</title><g id="puma"><g id="organs"><path d="M139.63,125.19c2.67-4.08,5.43-6.55,6.53-16.18s4.59-22.88,6-28-3.75-10.5-9.88-1.25-14.5,19.63-13.87,31.13S137.13,129,139.63,125.19Z" transform="translate(0 0)" fill="#1e88e5" opacity="0.7"/><path d="M157.38,124.25c10.61-4,19.37-10.87,20.37-16s2.75-7.75-1.5-16-7.87-18.12-12.5-19.62-12.87,3.62-16.25,10.5-4.93,19.5-7.15,26.12S136.63,132,157.38,124.25Z" transform="translate(0 0)" fill="#1e88e5" opacity="0.7"/><path d="M166.67,88.17c2.37,8.67,9.5,9,10.5,15.25s6.83,4.58,8,7.5,7.83-1.84,14.5-.84,9.66-8,14.66-11.66,8.84-7.34,9.34-11.84,1.91-3.16,7.5-3.08,6.66-.75,9.41.92,6.67-6.17-2.16-7.09-11.5-2-14.75-5a29.35,29.35,0,0,0-21.5-8.28c-11.84.17-14.75-2.67-24,0S161.33,68.67,166.67,88.17Z" transform="translate(0 0)" fill="#1e88e5" opacity="0.7"/><path d="M105,122.55c-4.89-.91-7-1.35-8.16-4.38s-.26-4.32-1.4-7.8S93,105,93.32,104s1.87-1.38,2.42-.55,1.43,6.92,2,7.12.69-1.07.5-3.25,0-3.8-.7-4.2-1.49-.88-.61-1.22,1.73.27,2.06-.37.94-.71,1.27-.27,1.33-.2,1.86.34-.51,3.15.29,4.56S108,109,109,112.79a26.14,26.14,0,0,1,.83,9.1C109.62,123.11,107,122.92,105,122.55Z" transform="translate(0 0)" fill="#e53935" opacity="0.7"/><path d="M100.13,117.63c12.49,5.77,27.25,9.62,36,6.37s9.75-15.12,12.75-25.75S155.75,78,150,74.5s-29.25-6.25-46.12-3.87S76.13,83,76.75,90.13,88.57,112.29,100.13,117.63Z" transform="translate(0 0)" fill="#ffb300" opacity="0.7"/><path d="M34.13,53.06c-.07,5.38,7.18,2,10.12,3.94s9.63,1.69,9.19-2.62-1.81-8.25-6.81-8.44S34.19,47.5,34.13,53.06Z" transform="translate(0 0)" fill="#1e88e5" opacity="0.7"/></g></g><g id="frame"><rect id="frame-2" width="300" height="200" fill="none"/></g></svg>