<svg xmlns="http://www.w3.org/2000/svg" viewBox="0 0 30 20"><path d="M28.81,18.58c-.18-.2-.38,0-.75.11s-1.4.09-1.72-.46a6.57,6.57,0,0,1-.12-3.5c.24-1.69.72-4.07.28-5.47A4.42,4.42,0,0,0,23.93,6,7.56,7.56,0,0,0,19.5,5c-1.74.12-1.67.68-4.21.84A15,15,0,0,1,9.9,5.56C8.31,5.14,8,5.18,7.5,5.38s-.83.35-1.41-.25S5,4.49,4.75,4.26s-.23-.52-.46-.6-.53.22-.55.36-.07.37-.07.37a3.21,3.21,0,0,0-1.08.43,5,5,0,0,0-.9.82c-.27.26-.66.57-.67.74s.1.23.12.43.05.52.21.62l.15.1a.28.28,0,0,0-.06.32.56.56,0,0,0,.72.3,1.18,1.18,0,0,1,.89-.21,1,1,0,0,1,.88.49A4.53,4.53,0,0,0,5.47,9.66c.73.45,1.09.59,1.21.94a5.33,5.33,0,0,0,1.06,1.71A4.26,4.26,0,0,1,8.45,15a7.75,7.75,0,0,1,0,2.88c-.28.45-.64.39-1.07.51s-.57.33-.52.6.44.45.75.42a2.7,2.7,0,0,0,.64-.14s-.13.31,0,.46S8.48,20,9.5,20c1.56,0,1.43-.39,1.57-.85s.17-1.45.32-1.6.1-.59.06-1a19,19,0,0,1,.17-2.3c.08-.6.09-1.46.09-1.46a13.69,13.69,0,0,0,3.4.23,15,15,0,0,0,3.87-1,2.62,2.62,0,0,0,.92,1.7c.94,1,2.48,2.14,2.48,2.66A3.6,3.6,0,0,1,21,18.5c-.52.22-1.42.45-1.42.86s.13.62,1.09.62,1.4-.21,1.49-.33a2.16,2.16,0,0,0,.2-.31h.73a1.11,1.11,0,0,0,1.1-.72c.24-.55,1-2.13,1-2.13s0,2,.85,2.56a2.39,2.39,0,0,0,2.15.43C28.61,19.27,29,18.78,28.81,18.58Zm-3.37-7a21.17,21.17,0,0,0-.18,3h0c-.07-.09-1-1-1.45-1.55s-.58-.94-.29-1.43a15.09,15.09,0,0,0,.89-2c.25-.63.47-1.31.47-1.31A7.34,7.34,0,0,1,25.44,11.61Z" transform="translate(0 0.02)" fill="#ccc"/><rect width="30" height="20" fill="none"/></svg>