<svg xmlns="http://www.w3.org/2000/svg" viewBox="0 0 30 20"><path d="M17.76,12.39c.25,0,.39.08.65.08s.69-.64,1.08-1a2.65,2.65,0,0,0,.78-.94c.09-.27.29-.39.7-.4s1.47.39,1.24,0S21.6,9.72,21,9.62s-.44-.48-.95-.83a2,2,0,0,0-1.41-.48c-.56,0-1.14-.22-1.7-.07s-.71.68-.46,1.43.55,1,.54,1.54S17.41,12.39,17.76,12.39Z" transform="translate(0 0.02)" fill="#1e88e5" opacity="0.7"/><path d="M15.58,12.25a2.47,2.47,0,0,1,1.23-.09c.3.08.93,0,1-.49a9.52,9.52,0,0,0-.44-1.89c-.05-.39-.53-1.25-.87-1.25s-1,1.24-1.41,1.66S14.25,12.59,15.58,12.25Z" transform="translate(0 0.02)" fill="#1e88e5" opacity="0.7"/><path d="M14.55,12.42A2.8,2.8,0,0,0,16.36,11,5.11,5.11,0,0,0,16.76,9c-.12-.47-.45-.56-.76-.42A3.22,3.22,0,0,0,14.76,10c-.33.73-.65,1.31-.79,1.6A.7.7,0,0,0,14.55,12.42Z" transform="translate(0 0.02)" fill="#1e88e5" opacity="0.7"/><path d="M12,13c-.46-.06-.66-.09-.78-.33s0-.34-.14-.61-.24-.43-.21-.51a.16.16,0,0,1,.23-.05c.05.07.14.55.2.56s.06-.08,0-.25,0-.3-.07-.34-.14-.06-.06-.09.17,0,.2,0a.07.07,0,0,1,.12,0s.13,0,.18,0,0,.26,0,.36.53.22.63.52a1.62,1.62,0,0,1,.09.72C12.43,13,12.18,13,12,13Z" transform="translate(0 0.02)" fill="#e53935" opacity="0.7"/><path d="M9.6,11c-.14.56,1.16,1.86,2.51,2a4,4,0,0,0,2.24-.24,2,2,0,0,0,1.46-1.92,3.9,3.9,0,0,0-.12-2.25c-.23-.24-1.23.23-2.71.48S10.07,9,9.6,11Z" transform="translate(0 0.02)" fill="#ffb300" opacity="0.7"/><path d="M5.15,7c0,.21.45.18.8.2s.78.06.77-.2-.21-.53-.7-.53A.9.9,0,0,0,5.15,7Z" transform="translate(0 0.02)" fill="#1e88e5" opacity="0.7"/><rect width="30" height="20" fill="none"/></svg>