<!-- Copyright (c) 2022 Jan Stehno -->
<svg xmlns="http://www.w3.org/2000/svg" viewBox="0 0 300 200"><title>raccoondog_body</title><g id="raccoondog"><g id="body"><path d="M27.44,89.72c0,2.66,4.34,4.84,6.22,5.12s.4,1.57,3,2.29,4.59-.88,7.93-.29,9.66,2.41,13.19,2.35,8-.83,9.25.47.12,6,3.9,8.76S79.67,113.21,83,121s2.46,9.83,4.67,16.79,11.17,23.77,14.23,32.09,2.69,17.43-2.25,20.62-5.25,1.25-7.69,4.31S90.38,200,99.67,200s9.62-2.33,9.62-2.33,6.92,1,8.79-.88,2.25-10.37,4.09-15,1.58-10.08,2.16-18.25a175.6,175.6,0,0,1,2.59-18.16s11.08.77,19.83-1a182.06,182.06,0,0,1,22.19-3c1.75,0,3.31,6.56,10.06,10.56s13.44,6.06,17.75,10,7.81,6.44,5.25,13.25-2.81,12.87-6.56,13.19-6.25,3-6.25,4.37,1.87,3.19,8.69,3.19,8.93-2.31,8.81-6.44,4.56-15.75,6.73-19.25a44,44,0,0,1,5.16-6.58s14.59,4.25,16.42,6.08,4.67,12.33,4.13,17.38-.84,6-3.42,6-4.77,3.12-4.77,4.77,2.15,2.1,9.19,2.1,9.16-.92,9.08-7.29-1-22.83-1-22.83,3.08,5.62,11.17,3.79,11.66-6.42,7.75-14.09-4.67-16.33-5.34-20.75S256,124.25,250.67,119.5s-8.25-7.17-10.5-14.67-7.5-25.33-22-33.66-38.34-10.5-51-8.17-21,6.25-27.29,6.25-13-5.76-24.25-7.13-11.5,0-26.13-4.12-22.9-4-25.17-3.75a21.2,21.2,0,0,0-5.14,1.48,18.82,18.82,0,0,0-2.44-3c-1.25-1.14-3.19.63-3.25,2.06a42.16,42.16,0,0,1-.83,4.86,9,9,0,0,0-7.11,4.56c-2.37,4.38-2.68,8.63-5.12,12a33.17,33.17,0,0,1-7.91,8.16C29.19,86.91,27.44,88.16,27.44,89.72Z" transform="translate(0 0)" fill="#ccc"/></g></g><g id="frame"><rect id="frame-2" width="300" height="200" fill="none"/></g></svg>