<svg xmlns="http://www.w3.org/2000/svg" viewBox="0 0 30 20"><path d="M2.74,9c0,.26.44.48.63.51s0,.16.29.23.46-.09.8,0a8.16,8.16,0,0,0,1.31.23c.36,0,.8-.08.93,0s0,.61.39.88A2.64,2.64,0,0,1,8.3,12.08a10.69,10.69,0,0,1,.47,1.67c.22.7,1.12,2.38,1.42,3.21S10.46,18.71,10,19s-.53.12-.77.43S9,20,10,20s1-.24,1-.24.69.1.88-.09.22-1,.41-1.49a6.55,6.55,0,0,0,.21-1.83,17.79,17.79,0,0,1,.26-1.81,9,9,0,0,0,2-.11,18.56,18.56,0,0,1,2.21-.3c.18,0,.34.66,1,1.06a13.31,13.31,0,0,1,1.78,1c.43.39.78.64.52,1.32s-.28,1.29-.66,1.32-.62.3-.62.44.19.32.87.32.89-.23.88-.64A5.84,5.84,0,0,1,21.34,17a4.66,4.66,0,0,1,.52-.66A9.56,9.56,0,0,1,23.5,17a3.46,3.46,0,0,1,.41,1.74c-.05.5-.08.6-.34.6a.56.56,0,0,0-.48.48c0,.16.22.21.92.21s.92-.1.91-.73-.1-2.29-.1-2.29a1,1,0,0,0,1.12.38c.81-.18,1.17-.64.78-1.41a6.32,6.32,0,0,1-.54-2.07,4.25,4.25,0,0,0-1.11-1.93A2.68,2.68,0,0,1,24,10.46a5.64,5.64,0,0,0-2.2-3.37,8.83,8.83,0,0,0-5.1-.81c-1.27.23-2.11.62-2.73.62s-1.3-.58-2.43-.71A10.79,10.79,0,0,1,9,5.78,7.44,7.44,0,0,0,6.43,5.4a2,2,0,0,0-.51.15,2.35,2.35,0,0,0-.24-.3c-.13-.11-.32.07-.33.21s-.08.48-.08.48a.89.89,0,0,0-.71.46A11.63,11.63,0,0,1,4,7.6a3.24,3.24,0,0,1-.79.82C2.92,8.67,2.74,8.79,2.74,9Z" transform="translate(0 0.02)" fill="#ccc"/><rect width="30" height="20" fill="none"/></svg>