<!-- Copyright (c) 2022 Jan Stehno -->
<svg xmlns="http://www.w3.org/2000/svg" viewBox="0 0 300 200"><title>reddeer_organs</title><g id="reddeer"><g id="organs"><path d="M216.61,115.67c-6.39-2.61-7-7.17-12.08-9.34s-11.67-10.75-12.09-16.16-1.83-9.75,7.67-11.34,15.42-.25,19.17-3.75,13.1-.86,20-1.58c3-.31,8.1,3.53,9.75,5,3.44,3.07,12.77.73,14.63,5.5s-7.25-.75-9.63.94c-4.56,3.24-1.85,4.87-3.22,6.81-4.63,6.5-12,6.75-11.13,12.88S226.82,119.83,216.61,115.67Z" transform="translate(0 0)" fill="#1e88e5" opacity="0.7"/><path d="M202.44,123.5c-10.31,2.47-19.16,6.17-21.41.5s2.66-11.83,3.16-23.58S182.11,82,187.94,81.58s6.25,8.25,13.75,14.42,18.67,12.08,17.42,18S210.78,121.5,202.44,123.5Z" transform="translate(0 0)" fill="#1e88e5" opacity="0.7"/><path d="M172.94,126.83c-2.31-5.12-4.25-21.58,0-31.66s5.59-15.75,13-15.92,11.25,8.67,10.5,18.83-3.83,22.34-11.41,27S174,129.06,172.94,126.83Z" transform="translate(0 0)" fill="#1e88e5" opacity="0.7"/><path d="M145,139.37c-5.72.52-8.2.7-10.49-2.38s-1.71-4.84-4.13-8.44-4.5-5.4-4.49-6.63,1.62-2.17,2.51-1.4S132.3,128,133,128s.42-1.44-.51-3.86-1.28-4.32-2.16-4.56-2-.53-1.09-1.2,2-.24,2.17-1.08.81-1.11,1.33-.72,1.41-.64,2.17-.19.48,3.75,1.83,5.09,7.09,1.56,9.48,5.52a32.1,32.1,0,0,1,3.92,10.11C150.34,138.55,147.36,139.16,145,139.37Z" transform="translate(0 0)" fill="#e53935" opacity="0.7"/><path d="M159.68,134.56c-17.6,3.45-28.78.45-34.19-6.34s-9-14.4-5.91-22.25,7.08-13.92,21.85-18.9,31.27-11.42,36-8.32,3.86,35.16.09,43.61S166.68,133.18,159.68,134.56Z" transform="translate(0 0)" fill="#ffb300" opacity="0.7"/><path d="M57.6,23.32c-.88-2.76-3.55-3.39-8.32-2.43s-9.5,4.26-7,6.87,5,2.62,9.82,1.58S58.83,27.16,57.6,23.32Z" transform="translate(0 0)" fill="#1e88e5" opacity="0.7"/></g></g><g id="frame"><rect id="frame-2" width="300" height="200" fill="none"/></g></svg>