<svg xmlns="http://www.w3.org/2000/svg" viewBox="0 0 30 20"><path d="M21.66,11.54c-.64-.26-.7-.71-1.21-.93A2.54,2.54,0,0,1,19.24,9c0-.54-.18-1,.77-1.13s1.54,0,1.92-.38,1.31-.08,2-.15c.29,0,.81.35,1,.5.34.3,1.28.07,1.46.55s-.72-.08-1,.09c-.46.32-.18.49-.32.68-.46.65-1.2.68-1.11,1.29S22.68,12,21.66,11.54Z" transform="translate(0 0.02)" fill="#1e88e5" opacity="0.7"/><path d="M20.24,12.33c-1,.24-1.91.61-2.14.05s.27-1.19.32-2.36-.21-1.84.37-1.89.63.83,1.38,1.45,1.87,1.2,1.74,1.8S21.08,12.13,20.24,12.33Z" transform="translate(0 0.02)" fill="#1e88e5" opacity="0.7"/><path d="M17.29,12.66a5.21,5.21,0,0,1,0-3.17c.43-1,.56-1.57,1.3-1.59s1.13.87,1.05,1.88a3.5,3.5,0,0,1-1.14,2.7C17.74,13,17.39,12.88,17.29,12.66Z" transform="translate(0 0.02)" fill="#1e88e5" opacity="0.7"/><path d="M14.5,13.91c-.57.05-.82.07-1-.24s-.18-.48-.42-.84-.45-.54-.45-.66.17-.22.25-.14.39.74.46.74,0-.14-.05-.38-.13-.43-.21-.46-.2,0-.11-.12.2,0,.21-.11.09-.11.14-.07.14-.06.21,0,0,.38.19.51.71.16,1,.55a3.66,3.66,0,0,1,.39,1C15,13.83,14.74,13.89,14.5,13.91Z" transform="translate(0 0.02)" fill="#e53935" opacity="0.7"/><path d="M16,13.43c-1.76.35-2.88.05-3.42-.63A2.24,2.24,0,0,1,12,10.57a2.94,2.94,0,0,1,2.18-1.89c1.48-.5,3.13-1.14,3.61-.83s.38,3.52,0,4.36A2.18,2.18,0,0,1,16,13.43Z" transform="translate(0 0.02)" fill="#ffb300" opacity="0.7"/><path d="M5.76,2.31C5.67,2,5.41,2,4.93,2.06s-.95.43-.71.69.5.26,1,.16S5.88,2.69,5.76,2.31Z" transform="translate(0 0.02)" fill="#1e88e5" opacity="0.7"/><rect width="30" height="20" fill="none"/></svg>