<svg xmlns="http://www.w3.org/2000/svg" viewBox="0 0 30 20"><path d="M1,4.73A.31.31,0,0,0,1.25,5s0,.06.18.25.9.13,1.51.26.6.55.7,1.21a8.87,8.87,0,0,1,0,1.86c0,.77.25,1.51.2.9s.55.4.73,1.16.9,1.84.7,1.05.8,1,1.12,1.54.83.64.61.3,1.93.77,1.55.45,1.11.12,1-.19.31.23,1.1.54a16.25,16.25,0,0,0,1.65.55s.13.35.34,1.1a6.13,6.13,0,0,1,.25,2.1c-.05.45-.12.35,0,.82A3.79,3.79,0,0,1,13,20h.81s0-.26,0-.5a2.87,2.87,0,0,1,.21-.69l.3,1.19h.82a12.25,12.25,0,0,1,0-1.71,2.14,2.14,0,0,0,0-1c-.08-.37-.12-2.36-.12-2.36a7.51,7.51,0,0,0,1.34-.06c.87-.11,1.46-.41,2.32-.53a5.83,5.83,0,0,0,1.82-.72c.24-.09.39.08.73.18a2,2,0,0,0,.7.06s.25.26.73.66,1.44.74,2.49,1.39,1,1.15,1,2.24A5.25,5.25,0,0,1,26,20h1l.09-.6.07.6h.95a9.42,9.42,0,0,1-.08-1.1c0-.53.07-1.77.09-2.27s.05-.84-.71-1.3a4.09,4.09,0,0,1-1.76-2.26c0-.6.4-1,.87-1.47a4.8,4.8,0,0,0,.8-1.4s.52.82.51.41.55.23.47-.3c0-.26.33-.22.3-.54s.31-.18.22-.57.16.1.16-.37.13-.13.15-.28a1.54,1.54,0,0,0-.05-.6C29,7.4,28.05,7,27.75,6.73a3,3,0,0,0-1.63-.82A26.18,26.18,0,0,0,23,5.14c-1.75,0-3.05.94-5.63.94S15,5.51,13.73,5.51s-1.05.2-2.18.2A3.72,3.72,0,0,1,8.43,4.45,4.76,4.76,0,0,1,7,2.16a1.67,1.67,0,0,0,.69-.53A1.49,1.49,0,0,0,7.77.55a6.56,6.56,0,0,0,.8-.2A7.83,7.83,0,0,0,9.33,0h-4l.08.2L5.2.27,4.85,0H4a.61.61,0,0,0,.11.24,3.61,3.61,0,0,0,.49.49.73.73,0,0,1-.24,0,3.78,3.78,0,0,1-1-.33A.43.43,0,0,1,3.17,0H2.88a.34.34,0,0,0-.06.18,1.3,1.3,0,0,0,0,.32A1.4,1.4,0,0,1,2,.57C1.74.46,1.73,0,1.73,0H1.3A1.49,1.49,0,0,0,1.65.9c.36.38.8.18,1.53.18s.86.35.86.35a4,4,0,0,0-.59.37c-.66.5-.47.56-1.09,1.14S1.31,3.5,1,3.8.89,4.52,1,4.73ZM5.82,1.31A2,2,0,0,1,6.06.78c.09-.07.39,0,.39,0A2.17,2.17,0,0,0,6.24,1a1.35,1.35,0,0,0-.18.34Z" transform="translate(0 0.02)" fill="#ccc"/><rect width="30" height="20" fill="none"/></svg>