<!-- Copyright (c) 2022 Jan Stehno -->
<svg xmlns="http://www.w3.org/2000/svg" viewBox="0 0 300 200"><title>reddeer_body</title><g id="reddeer"><g id="body"><path d="M9.65,47.58a3.14,3.14,0,0,0,2.84,2.17s.08.58,1.79,2.46,9,1.37,15.12,2.66,6,5.5,7,12.09.17,10.79,0,18.54,2.42,15.17,1.92,9,5.58,4,7.33,11.67,9,18.33,7,10.5,8,10.08,11.17,15.41,8.33,6.34,6.13,3,19.29,7.67,15.54,4.5,11.08,1.17,10-1.91,3.08,2.25,11,5.41A160.28,160.28,0,0,0,123,148.5s1.25,3.5,3.41,11.08,3.09,16.42,2.5,20.92-1.25,3.58.17,8.25S130,200,130,200h8.08s.08-2.58.25-4.92,2.17-6.91,2.17-6.91l3,11.83h8.16s-.66-14,.09-17.08a21.49,21.49,0,0,0,.16-10.09c-.83-3.66-1.29-23.58-1.29-23.58a70.14,70.14,0,0,0,13.44-.62c8.69-1.07,14.62-4.13,23.19-5.25s15.87-6.38,18.25-7.25,3.87.81,7.25,1.81a19.71,19.71,0,0,0,7,.56s2.5,2.63,7.31,6.69,14.44,7.39,24.94,13.89,10,11.42,10.41,22.34A54.1,54.1,0,0,1,260.11,200h10.25l.92-5.92L272,200h9.5a88.73,88.73,0,0,1-.84-11c0-5.25.67-17.67.92-22.67s.5-8.41-7.08-13-17.67-16.58-17.67-22.58,4-9.5,8.75-14.67,8-14,8-14,5.21,8.17,5.13,4.09,5.45,2.25,4.66-3c-.4-2.64,3.34-2.21,3-5.46s3.13-1.79,2.21-5.71,1.59,1,1.54-3.62c0-4.42,1.35-1.3,1.5-2.84a16.08,16.08,0,0,0-.41-6c-1.35-5.27-10.71-9.12-13.71-12s-9.67-7.5-16.34-8.17-21.83-7.66-31.08-7.66c-17.5,0-30.5,9.41-56.33,9.41s-23.38-5.77-36.44-5.77-10.5,2-21.81,2S96.59,56.5,84.34,44.75,70,21.87,70,21.87a16.65,16.65,0,0,0,6.87-5.29c2.79-3.79.83-10.79.83-10.79a67.33,67.33,0,0,0,8-2.08A63.81,63.81,0,0,0,93.28,0H53.15L54,2l-2,.94L48.46,0H40.28A7.06,7.06,0,0,0,41.4,2.44c1.06,1.75,4.88,4.87,4.88,4.87a5.27,5.27,0,0,1-2.38.19C42.53,7.31,36,5.87,33.59,4.25A4.49,4.49,0,0,1,31.65,0H28.78a3.76,3.76,0,0,0-.63,1.87,16.09,16.09,0,0,0,.19,3.19S23.4,7,20.4,5.94,17.34,0,17.34,0H13s0,5.5,3.57,9.25,8,1.75,15.31,1.81S40.4,14.5,40.4,14.5a45.13,45.13,0,0,0-5.87,3.75c-6.65,4.95-4.75,5.58-11,11.42s-10.5,5.58-14.08,8.62S8.9,45.42,9.65,47.58ZM58.18,13.37S59.71,8.62,60.62,8s3.84,0,3.84,0a30.13,30.13,0,0,0-2.09,2.62,14.37,14.37,0,0,0-1.78,3.47Z" transform="translate(0 0)" fill="#ccc"/></g></g><g id="frame"><rect id="frame-2" width="300" height="200" fill="none"/></g></svg>