<!-- Copyright (c) 2023 Jan Stehno -->
<svg xmlns="http://www.w3.org/2000/svg" viewBox="0 0 300 200">
    <title>redfox_body</title>
    <g id="redfox">
        <g id="body">
            <path
                d="M15.5,70.25A7.23,7.23,0,0,0,19,73.17s-.17,1.58,3.75,3.16,11.42.09,21,.67,13.33,4.5,18.67,12.08,15,19.36,21.33,25.42,15.88,9.44,15.88,9.44,2.18,7.25,4.56,14.93,3.56,29.13,3.89,32.67-.16,15.33-3.66,16.13-4.46,1.12-6.21,3.79-.62,5.2,3.13,5.2,5.35-.16,5.35-.16.81,3.5,7,3.5c6.77,0,10.89-2.33,10.89-7.08S126,181.33,127,177.17s-1.42-4.59-3.92-21.75S122,132,122,132a45.77,45.77,0,0,0,16.17,2.83c8.75-.16,13-1.5,23.58-8.33s17.81-6.87,22.94-5.56,6.69,6.94,9.19,12.12,8.75,12.13,16.68,19.63,8.63,8.06,7.25,14.37-11.56,23.25-14.31,23.69-4.62-.44-6.44,4.38S197.69,200,204,200s8.5-1.37,9.06-2.44,3.75-9.18,6.82-16.56,9.81-16.81,9.81-16.81,1.44,16.69-.81,19.19-6.44.93-8,4.25-1.75,6,6.43,6,10.07-4.94,11-7.88-1.37-18.94-.68-27-4-11.56-8.38-14.06-10.12-7.56-10.12-14.81,6.12-21.13,6.12-21.13,3.13,15.13,4.88,24.75,8.25,16.5,12.25,24.13,9.5,10.62,23.5,9.25,23.87-.63,23.87-9.63-10.25-4-21.75-7.12-14.12-11.88-15-25.88-11.37-34.37-17.62-42.5-26.13-10.5-38.63-13.25-26.12-.37-47.5,2.87-37.5-.7-45.33-2-15.75-7.5-22-13.25-8.25-10.5-13.59-13.84-8.66-5-9.83-8.41S52,26.83,52,26.83s-4.71-4-6.08-6-3-2.12-3.33-.87,1.12,4.83,2,9.75a27.8,27.8,0,0,1-.09,9.62,13.34,13.34,0,0,0-4.91,2.38c-2.67,1.95-6.38,5.66-6.5,8.83S32.13,55,28.75,58s-9.25,6-12.17,7.46S14.58,68.33,15.5,70.25Zm98.13,120.58L117,176.08s1.63,7.21,1,9.63S113.63,190.83,113.63,190.83Z"
                transform="translate(0 0)" fill="#ccc" />
        </g>
    </g>
    <g id="frame">
        <rect id="frame-2" width="300" height="200" fill="none" />
    </g>
</svg>