<svg xmlns="http://www.w3.org/2000/svg" viewBox="0 0 30 20"><path d="M1.55,7a.72.72,0,0,0,.35.29s0,.16.38.32a11.89,11.89,0,0,0,2.1.07,2.15,2.15,0,0,1,1.86,1.2,21.38,21.38,0,0,0,2.14,2.55,5.17,5.17,0,0,0,1.58.94l.46,1.49a22.57,22.57,0,0,1,.39,3.27c0,.35,0,1.53-.37,1.61s-.44.11-.62.38-.06.52.31.52h.54s.08.35.7.35,1.09-.24,1.09-.71a7.91,7.91,0,0,1,.24-1.58c.1-.41-.14-.46-.39-2.17a7.57,7.57,0,0,1-.11-2.34,4.53,4.53,0,0,0,1.62.28,3.78,3.78,0,0,0,2.36-.83,2.77,2.77,0,0,1,2.29-.56c.51.13.67.69.92,1.21a8.06,8.06,0,0,0,1.67,2c.79.75.86.81.72,1.44a6,6,0,0,1-1.43,2.37c-.27,0-.46,0-.64.44s.06.49.69.49.85-.14.91-.25.37-.92.68-1.65a10.37,10.37,0,0,1,1-1.69,5.86,5.86,0,0,1-.08,1.92c-.23.25-.65.1-.8.43s-.18.6.64.6a1,1,0,0,0,1.1-.79c.1-.29-.14-1.89-.07-2.7a1.37,1.37,0,0,0-.83-1.41,1.81,1.81,0,0,1-1-1.48,7.54,7.54,0,0,1,.62-2.11s.31,1.51.48,2.48a8.56,8.56,0,0,0,1.23,2.41c.4.76,1,1.06,2.35.92S29,16.6,29,15.7s-1-.4-2.18-.71-1.41-1.19-1.5-2.59a10,10,0,0,0-1.76-4.25c-.63-.81-2.61-1.05-3.86-1.32a13.61,13.61,0,0,0-4.75.28,13,13,0,0,1-4.54-.19,4.84,4.84,0,0,1-2.2-1.33c-.62-.57-.82-1-1.36-1.38s-.86-.5-1-.84a2.07,2.07,0,0,0-.65-.71,4.28,4.28,0,0,1-.6-.61c-.14-.2-.3-.21-.34-.08a7.71,7.71,0,0,0,.21,1,2.78,2.78,0,0,1,0,1A1.44,1.44,0,0,0,4,4.14c-.27.2-.64.57-.65.89s-.11.45-.44.74a7.34,7.34,0,0,1-1.22.75C1.37,6.67,1.46,6.81,1.55,7Zm9.81,12.06.34-1.48a3.6,3.6,0,0,1,.1,1C11.75,18.79,11.36,19.06,11.36,19.06Z" transform="translate(0 0.02)" fill="#ccc"/><rect width="30" height="20" fill="none"/></svg>