<svg xmlns="http://www.w3.org/2000/svg" viewBox="0 0 30 20"><path d="M15.36,11.26a2.47,2.47,0,0,0,1.21-1.75c.19-.72.22-1.2-.22-1.28s-1.12.34-1.59,1.2S13.54,12,15.36,11.26Z" transform="translate(0 0.02)" fill="#1e88e5" opacity="0.7"/><path d="M16.7,11.19c.68-.12,1.44,0,1.19-.68s-.82-.82-.92-1.33-.46-1.24-.89-.77-1.32,1.15-1.24,1.86S15.16,11.47,16.7,11.19Z" transform="translate(0 0.02)" fill="#1e88e5" opacity="0.7"/><path d="M16.83,9.44c.34.35.52.23.64.62s.65.4.78.57,1.11.24,1.17.07.34-.31.39-.52.58-.32.69-.59.34-.32.72-.25,1.27.16.61-.25-.74,0-1.18-.29-.29-.65-1-.77A9.32,9.32,0,0,0,18.3,8c-.64-.06-1.55.15-1.56.48S16.68,9.28,16.83,9.44Z" transform="translate(0 0.02)" fill="#1e88e5" opacity="0.7"/><path d="M11.93,11.72c-.44-.09-.63-.13-.72-.38s0-.34-.1-.63-.2-.44-.17-.52.18-.1.22,0,.11.56.16.58.07-.09.06-.26,0-.31-.05-.34-.13-.08-.05-.1.15,0,.19,0a.07.07,0,0,1,.11,0s.12,0,.17,0-.06.25,0,.36.48.25.56.56a1.74,1.74,0,0,1,0,.73C12.34,11.78,12.1,11.76,11.93,11.72Z" transform="translate(0 0.02)" fill="#e53935" opacity="0.7"/><path d="M9.71,9.74c-.07.74.75,1.45,2.47,1.72s2.3,0,2.82-1,.91-2,.32-2.12-.9.27-2.58.21S9.86,8.27,9.71,9.74Z" transform="translate(0 0.02)" fill="#ffb300" opacity="0.7"/><path d="M4.62,4.74c0,.28.35.34.79.39s1.06,0,.86-.4-.55-.5-1-.41S4.62,4.49,4.62,4.74Z" transform="translate(0 0.02)" fill="#1e88e5" opacity="0.7"/><rect width="30" height="20" fill="none"/></svg>