<!-- Copyright (c) 2023 Jan Stehno -->
<svg xmlns="http://www.w3.org/2000/svg" viewBox="0 0 300 200">
    <title>redfox_organs</title>
    <g id="redfox">
        <g id="organs">
            <path
                d="M153.56,112.88c6.54-2.63,10.38-10.44,12.19-17.57s2.13-12-2.25-12.81-11.25,3.44-15.87,12S135.38,120.19,153.56,112.88Z"
                transform="translate(0 0)" fill="#1e88e5" opacity="0.7" />
            <path
                d="M167,112.19c6.85-1.22,14.44-.5,11.94-6.88s-8.19-8.18-9.25-13.31-4.63-12.37-8.88-7.69-13.25,11.57-12.43,18.63S151.57,114.94,167,112.19Z"
                transform="translate(0 0)" fill="#1e88e5" opacity="0.7" />
            <path
                d="M168.33,94.63c3.41,3.5,5.21,2.33,6.38,6.2s6.46,4,7.79,5.75,11.12,2.38,11.71.63,3.41-3,3.87-5.17,5.79-3.21,6.92-5.87,3.37-3.25,7.25-2.5,12.67,1.58,6.08-2.5-7.41-.21-11.83-3-2.92-6.46-9.88-7.71-7.29-.17-13.66-.75-15.42,1.5-15.58,4.83S166.83,93.08,168.33,94.63Z"
                transform="translate(0 0)" fill="#1e88e5" opacity="0.7" />
            <path
                d="M119.25,117.47c-4.35-.92-6.23-1.34-7.16-3.8s-.07-3.46-1-6.28-2-4.42-1.68-5.2a1.4,1.4,0,0,1,2.2-.35c.46.68,1,5.58,1.55,5.75s.66-.83.58-2.57.11-3-.47-3.38-1.31-.76-.51-1,1.55.29,1.87-.21a.7.7,0,0,1,1.16-.17c.28.36,1.2-.1,1.66.35s-.58,2.49.08,3.64,4.86,2.54,5.65,5.58a18.88,18.88,0,0,1,.39,7.3C123.37,118.09,121,117.84,119.25,117.47Z"
                transform="translate(0 0)" fill="#e53935" opacity="0.7" />
            <path
                d="M97.13,97.63c-.77,7.45,7.43,14.5,24.68,17.25s22.94.18,28.19-10.38,9.06-20.25,3.19-21.19-9,2.75-25.75,2.13S98.63,82.94,97.13,97.63Z"
                transform="translate(0 0)" fill="#ffb300" opacity="0.7" />
            <path
                d="M46.25,47.69c.1,2.77,3.41,3.31,7.84,3.87s10.57.5,8.57-4.06-5.44-5-10.07-4S46.16,45.16,46.25,47.69Z"
                transform="translate(0 0)" fill="#1e88e5" opacity="0.7" />
        </g>
    </g>
    <g id="frame">
        <rect id="frame-2" width="300" height="200" fill="none" />
    </g>
</svg>