<svg xmlns="http://www.w3.org/2000/svg" viewBox="0 0 30 20"><path d="M1.74,8.18a.67.67,0,0,0,.42.42.51.51,0,0,0,0,.23.86.86,0,0,0,.58.37c.31,0,.73-.22,1.55-.22a2.81,2.81,0,0,1,2.1.58A23.49,23.49,0,0,0,8.83,12a9.2,9.2,0,0,0,3.52,1.64,5.74,5.74,0,0,1,.24.8c.12.5.45,1,.59,1.65s0,1.18.21,2.05a4.53,4.53,0,0,1,0,1.8h1.18s-.13-2.12-.08-2.65.09-2.06.12-2.7a2,2,0,0,1,.48-1.13,32.37,32.37,0,0,0,4.77-.4c1.35-.34,1.24-.31,1.35,0,.05.11.23.11.66-.06a8.06,8.06,0,0,1,.89-.29l1.48,1.22c.72.59,1.8,1.41,2,2.06a6.1,6.1,0,0,1-.15,2.62A9,9,0,0,0,26,20h1.2s0-.42,0-.87a17.45,17.45,0,0,1,.24-1.87,5.94,5.94,0,0,1,.09,1.22A12,12,0,0,1,27.22,20h1.26l.26-3.55c.22-1.1.23-1.23-.66-1.92a4.18,4.18,0,0,1-1.51-2.69c0-.78.5-1.57.57-2.57a3.43,3.43,0,0,1,.34-1.44,2.33,2.33,0,0,1,.39.29c.17.18.12-.17.26,0s.13-.3.25-.14.25-.23.17-.57a1.66,1.66,0,0,0-1.12-1,10,10,0,0,0-2.82-.92,14.51,14.51,0,0,0-3.93.06,22.23,22.23,0,0,1-5.1.09,5.11,5.11,0,0,0-2.94-.09,6.83,6.83,0,0,1-3.4.23A6.8,6.8,0,0,1,7.7,5.3L7.6,5a.5.5,0,0,0-.43-.33.44.44,0,0,0-.3.1l-.19-.27a1.39,1.39,0,0,1,.15-.33c.11-.17.3-.39,1.2-.6A4.17,4.17,0,0,0,9.8,2.75,4.16,4.16,0,0,0,11,1.19,3,3,0,0,0,11.13,0h-.67a4.35,4.35,0,0,1-.53.67,8.62,8.62,0,0,1-1,.86A1.67,1.67,0,0,1,8.65,1C8.64.8,8.6.74,8.52.82s-.09.11-.3.09A4.36,4.36,0,0,1,7,.46,1,1,0,0,1,6.58,0H6.45s0,.12,0,.23a1.23,1.23,0,0,0,.31.44,5.85,5.85,0,0,0,1.12.6c.52.25.57.58.57.58A10.06,10.06,0,0,1,6.76,3,2.87,2.87,0,0,1,5,3.07a2.19,2.19,0,0,1-1.74-1C3.05,1.55,3,1.62,3,1.78a1.4,1.4,0,0,1,0,.64,4.41,4.41,0,0,1-.16.82c-.08.29-.24.34-.34.46a2.4,2.4,0,0,1-.44.69c-.27.27-.4.64-.21.48s.94-.52,1-.58.19,0,.19.13-.23.25-.12.27.26-.14.5-.31A3.45,3.45,0,0,1,4.82,4a1.43,1.43,0,0,1,1,.32c.13.15,0,.31-.18.4s-.14.21-.26.38a4.35,4.35,0,0,1-1.16.72C3.72,6.09,3,6.75,2.52,7a2.92,2.92,0,0,0-.76.47A.78.78,0,0,0,1.74,8.18ZM9.1,2S10.38,1,10.63.67a2,2,0,0,1-.45,1.13c-.44.53-.68.59-.83.59S9.1,2,9.1,2ZM7.5,3.23l1.16-.91s.14.18-.2.52A1.85,1.85,0,0,1,7.5,3.23Z" transform="translate(0 0.02)" fill="#ccc"/><rect width="30" height="20" fill="none"/></svg>