<svg xmlns="http://www.w3.org/2000/svg" viewBox="0 0 30 20"><path d="M18.62,11a3.4,3.4,0,0,0,.59-2.58c-.16-.74-.48-1.1-1-1.21S17,7.65,16.65,9s-.21,2,.05,2.26A1.18,1.18,0,0,0,18.62,11Z" transform="translate(0 0.02)" fill="#1e88e5" opacity="0.7"/><path d="M19.71,11.69c1.12.06,1.85-.39,1.72-.88s-.85-.73-1.32-1.5S19,7.32,18.42,7.4s-1.15,1.54-1.18,2.18.18,1.87.74,2.11S19,11.66,19.71,11.69Z" transform="translate(0 0.02)" fill="#1e88e5" opacity="0.7"/><path d="M19.34,9.2c.19.6,1.13.49,1.4,1.08s1.12.42,1.44.65a1.46,1.46,0,0,0,1.42-.37c.21-.3.71-.68.78-1.11s.55-.49.56-.87-.12-.54.44-.6.76-.31,1.08-.2.57-.54-.07-.66-1,.41-1.49.24a3.45,3.45,0,0,0-1.78-.46,14.19,14.19,0,0,1-2.36.15c-1,0-1.63.3-1.79.71a.81.81,0,0,0,.16,1C19.38,8.92,19.26,8.93,19.34,9.2Z" transform="translate(0 0.02)" fill="#1e88e5" opacity="0.7"/><path d="M14,12.5c-.57,0-.82,0-1-.32s-.11-.48-.31-.84-.38-.55-.36-.66.19-.19.26-.11.29.73.37.74.05-.13,0-.36-.07-.42-.16-.45-.18-.07-.09-.13.2,0,.23-.08a.09.09,0,0,1,.14,0s.15-.05.22,0,0,.36.11.5.69.21.87.61a2.89,2.89,0,0,1,.27,1C14.49,12.47,14.18,12.5,14,12.5Z" transform="translate(0 0.02)" fill="#e53935" opacity="0.7"/><path d="M13.71,12.06c1.6.27,3.13.57,3.48-.73A8.25,8.25,0,0,0,17.57,8c-.13-1-.57-.82-1.73-.59s-2.91.28-3.59,1a2,2,0,0,0-.42,2.34A2.29,2.29,0,0,0,13.71,12.06Z" transform="translate(0 0.02)" fill="#ffb300" opacity="0.7"/><path d="M5.7,5.8c0,.28.61.29,1,.42s1,.08,1-.24a.91.91,0,0,0-.88-.66C6.29,5.26,5.65,5.33,5.7,5.8Z" transform="translate(0 0.02)" fill="#1e88e5" opacity="0.7"/><rect width="30" height="20" fill="none"/></svg>