<!-- Copyright (c) 2022 - 2023 Jan Stehno -->
<svg xmlns="http://www.w3.org/2000/svg" viewBox="0 0 300 200"><title>reindeer_organs</title><g id="reindeer"><g id="organs"><path d="M186.17,110.25c5.69-7.33,7.5-18.42,5.91-25.83s-4.75-11-9.66-12.09-12.5,4.42-15.92,17.75-2.08,19.59.5,22.59S178,120.75,186.17,110.25Z" transform="translate(0 0)" fill="#1e88e5" opacity="0.7"/><path d="M197.08,117.17c11.25.54,18.5-3.92,17.25-8.84s-8.5-7.33-13.25-15-10.66-19.91-16.91-19.08-11.42,15.42-11.75,21.83,1.75,18.67,7.33,21.09S190.17,116.83,197.08,117.17Z" transform="translate(0 0)" fill="#1e88e5" opacity="0.7"/><path d="M193.43,92.25c1.84,6,11.24,4.92,14,10.75s11.16,4.25,14.33,6.5,12.17-.67,14.25-3.67,7.08-6.75,7.75-11.08,5.58-4.92,5.67-8.75-1.25-5.33,4.33-5.92,7.67-3.16,10.83-2.08,5.75-5.33-.66-6.58-10,4.08-14.92,2.41-9.83-5.5-17.83-4.58-13.75,1.83-23.59,1.5-16.25,3-17.83,7.09-.83,7.41,1.58,9.49S192.61,89.58,193.43,92.25Z" transform="translate(0 0)" fill="#1e88e5" opacity="0.7"/><path d="M139.53,125.24c-5.71-.06-8.18-.13-10.07-3.24s-1.1-4.71-3.05-8.33-3.78-5.5-3.62-6.66,1.86-1.88,2.64-1.08,2.91,7.36,3.63,7.46.58-1.32,0-3.68-.75-4.18-1.58-4.49-1.86-.69-.93-1.23,2,0,2.27-.81.94-1,1.4-.55,1.47-.47,2.17,0,0,3.57,1.18,5,6.81,2.14,8.69,6.1a28.53,28.53,0,0,1,2.64,9.87C144.85,125,141.85,125.27,139.53,125.24Z" transform="translate(0 0)" fill="#e53935" opacity="0.7"/><path d="M137.08,120.83c16,2.7,31.34,5.75,34.84-7.25s5.16-23.5,3.83-33.08-5.75-8.17-17.33-5.83S129.25,77.42,122.5,85s-8.42,16.92-4.17,23.42S125.6,118.9,137.08,120.83Z" transform="translate(0 0)" fill="#ffb300" opacity="0.7"/><path d="M57,58.25c.3,2.84,6.06,2.88,10.44,4.19s10.25.81,9.56-2.38S73.5,54,68.19,53.44,56.5,53.5,57,58.25Z" transform="translate(0 0)" fill="#1e88e5" opacity="0.7"/></g></g><g id="frame"><rect id="frame-2" width="300" height="200" fill="none"/></g></svg>