<!-- Copyright (c) 2023 Jan Stehno -->
<svg xmlns="http://www.w3.org/2000/svg" viewBox="0 0 300 200">
    <title>reindeer_body</title>
    <g id="reindeer">
        <g id="body">
            <path
                d="M17.38,82a6.87,6.87,0,0,0,4.21,4.28,4.69,4.69,0,0,0,.25,2.22,8.07,8.07,0,0,0,5.78,3.75c3.07.31,7.25-2.19,15.44-2.19s16,.63,21,5.81,10.61,13,24.27,24.8S123.5,137,123.5,137a52,52,0,0,1,2.42,8c1.16,5.08,4.5,10.58,5.91,16.58s-.08,11.75,2,20.42,0,18,0,18h11.88s-1.31-21.19-.81-26.5.87-20.56,1.18-27,4.82-11.25,4.82-11.25,34.06-.56,47.62-4,12.39-3.08,13.56-.37c.46,1.05,2.32,1.06,6.57-.63a83.75,83.75,0,0,1,8.87-2.87s7.63,6.18,14.81,12.12,18,14.19,20.44,20.69-.06,19.94-1.5,26.12A83.55,83.55,0,0,0,259.62,200h11.94s-.19-4.19-.31-8.62,2.31-18.75,2.31-18.75a57.54,57.54,0,0,1,.94,12.25A126.12,126.12,0,0,1,272.25,200h12.56l2.61-35.5c2.16-11,2.25-12.25-6.59-19.17S266,126.17,265.75,118.42s5-15.67,5.67-25.67,3.41-14.42,3.41-14.42a20,20,0,0,1,3.84,2.92c1.75,1.75,1.25-1.67,2.66-.5s1.25-3,2.5-1.42,2.42-2.25,1.67-5.66-5.17-8-11.25-9.92-12.5-7.08-28.17-9.25-20.7-.75-39.33.63-39.87,3.5-51,.87-19.56-3.94-29.31-.81a69.67,69.67,0,0,1-34,2.25C80.38,55.06,77,53.25,77,53.25s-.5-1.63-1-3.13a5,5,0,0,0-4.29-3.29,4.38,4.38,0,0,0-3,1l-1.88-2.66a12.82,12.82,0,0,1,1.46-3.3c1.09-1.75,3-3.95,12-6A42.34,42.34,0,0,0,98,27.75c3.71-2.79,9.87-9.58,12-15.63A29.13,29.13,0,0,0,111.25,0h-6.67a41.44,41.44,0,0,1-5.29,6.79,94,94,0,0,1-10.08,8.54S86.63,11.71,86.5,10,86,7.62,85.21,8.42s-.92,1.12-3,.95-8.67-2.62-12-4.54A9.64,9.64,0,0,1,65.79,0H64.5s.21,1.29.5,2.33a12.62,12.62,0,0,0,3.08,4.42c1.38,1.25,6,3.62,11.21,6S85,18.58,85,18.58,74,27.42,67.58,30,58,31.83,50.25,31s-15-4.67-17.37-10-3.05-4.58-2.59-3,.5,2.75.09,6.38a41.86,41.86,0,0,1-1.59,8.2C28,35.5,26.38,36,25.42,37.25S23.79,41.5,21,44.17,17,50.5,18.92,49s9.42-5.21,10.17-5.84S31,43,31,44.44s-2.31,2.5-1.22,2.72,2.63-1.41,5-3.13,8.66-3.28,13.38-3.72,9,1.81,10.37,3.25.16,3.13-1.72,4-1.46,2.06-2.63,3.77S48,55.87,42.58,58.5,30.06,67.75,25.19,70.34s-6.75,3.72-7.56,4.75S16.19,78.59,17.38,82ZM91,20.25s12.79-10.5,15.25-13.33a20.23,20.23,0,0,1-4.5,11.37c-4.37,5.29-6.79,5.88-8.33,5.88S91,20.25,91,20.25ZM75,32.54l11.59-9.12s1.33,1.87-2,5.2S75,32.54,75,32.54Z"
                transform="translate(0 0)" fill="#ccc" />
        </g>
    </g>
    <g id="frame">
        <rect id="frame-2" width="300" height="200" fill="none" />
    </g>
</svg>