<!-- Copyright (c) 2022 Jan Stehno -->
<svg xmlns="http://www.w3.org/2000/svg" viewBox="0 0 300 200"><title>rooseveltelk_organs</title><g id="rockymountainelk"><g id="organs"><path d="M186.5,136.13c5.75-2.19,8.63-12.5,8.88-26.88S191.25,90.63,188,90.13s-11.37,10.5-15,22.12S167.38,143.38,186.5,136.13Z" transform="translate(0 0)" fill="#1e88e5" opacity="0.7"/><path d="M201.5,138.38c8.28-1.77,17.38-3.75,15.88-9.5s-8.13-7.07-13.75-15-8.74-20.44-12.06-21.61-11.69,11.71-13.32,19S170.5,145,201.5,138.38Z" transform="translate(0 0)" fill="#1e88e5" opacity="0.7"/><path d="M197.1,100.58c.85,5,6.62,11.38,8.47,15.77s8,7.82,12,10.73,17.38,3.17,20.13-1.5,7.41-7.08,7.91-12.25,3.86-5.27,3.86-10.39,2.5-8.44,9.56-7.75,14.63-1.31,7.63-4.81-10.88-.5-15.69-1.75-11.5-7-17.13-6.88-13.37,3.75-21.37,4.81S195.77,92.67,197.1,100.58Z" transform="translate(0 0)" fill="#1e88e5" opacity="0.7"/><path d="M143.37,136.9c-5.41-.51-7.74-.77-9-2.82s-.27-3-1.52-5.32-2.69-3.66-2.35-4.34a2.18,2.18,0,0,1,2.69-.44c.6.56,1.55,4.72,2.21,4.84s.78-.75.58-2.24,0-2.6-.76-2.86-1.65-.58-.68-.83,1.92.15,2.29-.3a1.05,1.05,0,0,1,1.41-.21c.37.29,1.48-.16,2.06.19s-.57,2.18.31,3.12,6.11,1.88,7.25,4.44a11.42,11.42,0,0,1,.88,6.22C148.47,137.19,145.57,137.11,143.37,136.9Z" transform="translate(0 0)" fill="#e53935" opacity="0.7"/><path d="M128.25,132.38c7.19,7.31,33.63,9.62,43.13,4.75s11.25-26.75,11.5-37.13-3.13-12.87-15.75-10.62-30.5,7-36.25,16.37S121,125,128.25,132.38Z" transform="translate(0 0)" fill="#ffb300" opacity="0.7"/><path d="M68.44,31.38c.94,3.24,10.12,5.56,13.69,4.5s4-5.88,1.37-8.25S66.63,25.13,68.44,31.38Z" transform="translate(0 0)" fill="#1e88e5" opacity="0.7"/></g></g><g id="frame"><rect id="frame-2" width="300" height="200" fill="none"/></g></svg>