<svg xmlns="http://www.w3.org/2000/svg" viewBox="0 0 30 20"><path d="M27.89,20H26.15a4.15,4.15,0,0,0-.24-1.41,3.39,3.39,0,0,1-.42-1.41,3.71,3.71,0,0,0-1-1.68,7.35,7.35,0,0,1-.78-1.16,8.07,8.07,0,0,0-1.1.51c-.44.27-1,.42-1.12.25s-.51.19-1.07.2a8.73,8.73,0,0,0-1.76,0,5.28,5.28,0,0,1-2,.07C16,15.2,15,15.1,15,15.1s-.17.18-.22,1.35,0,1.83-.11,2.42a5,5,0,0,0,0,1.11H13.48s-.11-.14-.12-.94-.41-1.7-.42-2.31a4.47,4.47,0,0,0-.42-1.47,8.47,8.47,0,0,1-3.61-1.92A10.83,10.83,0,0,1,6,8.93c-.29-1.12-.18-1.67-.51-2a2.87,2.87,0,0,0-1.75-.62c-.9-.09-1.32-.18-1.49-.46s-.15-.36-.15-.36a.55.55,0,0,1-.33-.55c0-.45.3-.63.66-.78s1.93-.71,2.56-1a3.43,3.43,0,0,0,1.13-.77A1.82,1.82,0,0,0,6.28,2S4.9,1.71,4.22,1.46A2,2,0,0,1,3,.47,2.14,2.14,0,0,1,2.89,0h.29A1.24,1.24,0,0,0,3.8.87a4.38,4.38,0,0,0,1.45.38A2.47,2.47,0,0,1,4.36.62,1.73,1.73,0,0,1,4.06,0h.63s0,.39.71.54A5,5,0,0,0,6.58.65L6,0H7L7.49.2,7.63,0H9.18S8.31.77,8.27,1.1a3.27,3.27,0,0,0,0,.51l.23.21s.13-.29.77-.45a2.26,2.26,0,0,1,1.18-.08,1,1,0,0,1-.05.85,2,2,0,0,1-.48.75.72.72,0,0,1-.32.1A2.69,2.69,0,0,0,10,4.32a4.27,4.27,0,0,0,1.52,1.74c.57.33,1.32.18,2.47.08a4.25,4.25,0,0,1,2.69.59c1,.5,2.3.1,3.89,0s2.6-.35,3.4-.35a9.26,9.26,0,0,1,2.7,1c1,.4,1.66.78,1.71,1.23s0,1.29-.18,1.39-.3-.37-.3-.37-.2,1.43-.41,2.28a7.81,7.81,0,0,0-.52,2.37,3.17,3.17,0,0,0,.9,2.38c.63.47.45.62.38,1.07s-.27,1.05-.3,1.52A6.91,6.91,0,0,0,27.89,20Z" transform="translate(0 0.02)" fill="#ccc"/><rect width="30" height="20" fill="none"/></svg>