<!-- Copyright (c) 2023 Jan Stehno -->
<svg xmlns="http://www.w3.org/2000/svg" viewBox="0 0 300 200">
    <title>rooseveltelk_body</title>
    <g id="rockymountainelk">
        <g id="body">
            <path
                d="M278.86,200H261.54s-.12-9.81-2.43-14.06a33.7,33.7,0,0,1-4.19-14.06c-.63-6.07-6.27-11.88-10.52-16.88a80.06,80.06,0,0,1-7.84-11.58,78.72,78.72,0,0,0-11,5.16c-4.33,2.67-10,4.17-11.16,2.5s-5.09,1.84-10.67,2-12.92-1.75-17.67-.33-13.75,1.83-20,.67-15.66-2.17-15.66-2.17-1.67,1.75-2.17,13.5-.33,18.33-1.08,24.17a46.26,46.26,0,0,0,0,11.08H134.81s-1.08-1.38-1.2-9.38-4.07-17-4.19-23.12-4.19-14.63-4.19-14.63-20.69-4.56-36.12-19.25S62.86,100.81,60,89.56s-1.75-16.75-5.06-20-8.56-5.25-17.56-6.19S24.23,61.5,22.54,58.75,21,55.12,21,55.12s-3.31-1.06-3.31-5.5,2.94-6.25,6.56-7.75,19.32-7.12,25.57-10.25,10.31-6.06,11.31-7.68a19.75,19.75,0,0,0,1.62-3.44S49,17.37,42.23,14.87,31.81,8,30.44,4.92A16.47,16.47,0,0,1,28.94,0h2.87A12.34,12.34,0,0,0,38,9c5.67,3.12,14.5,3.75,14.5,3.75S46.15,10,43.61,6.46a16.62,16.62,0,0,1-3-6.46h6.33s.5,4,7,5.46A49.91,49.91,0,0,0,65.81,6.75L59.86,0H70.4l4.54,2.21L76.31,0h15.5s-8.75,8-9.12,11.29a29.85,29.85,0,0,0-.25,5l2.29,2.09S86,15.58,92.44,14s11-1.42,11.79-.79,1.29,4.5-.54,8.45-3.42,6.63-4.75,7.55a6.88,6.88,0,0,1-3.25.95s-.38,5.13,4,13.3,9.42,14.08,15.17,17.41,13.16,1.84,24.75.84,16.46.83,26.83,5.83,23,1,38.88.13,26-3.5,34-3.5,16.62,5.68,27,9.68S283,81.69,283.48,86.19,283.29,99,281.73,100s-3-3.62-3-3.62-2.06,14.25-4.12,22.81-5.63,14.69-5.25,23.69,2.75,19,9.06,23.75,4.44,6.18,3.75,10.75-2.63,10.5-3,15.18S278.86,200,278.86,200Z"
                transform="translate(0 0)" fill="#ccc" />
        </g>
    </g>
    <g id="frame">
        <rect id="frame-2" width="300" height="200" fill="none" />
    </g>
</svg>