<svg xmlns="http://www.w3.org/2000/svg" viewBox="0 0 30 20"><path d="M18.65,13.59c.58-.22.86-1.25.89-2.69S19.12,9,18.8,9s-1.14,1-1.5,2.21S16.74,14.31,18.65,13.59Z" transform="translate(0 0.02)" fill="#1e88e5" opacity="0.7"/><path d="M20.15,13.81c.83-.17,1.74-.37,1.59-1s-.81-.7-1.38-1.49-.87-2-1.2-2.16S18,10.38,17.82,11.1,17.05,14.48,20.15,13.81Z" transform="translate(0 0.02)" fill="#1e88e5" opacity="0.7"/><path d="M19.71,10c.08.51.66,1.14.85,1.58s.8.78,1.19,1.07,1.74.32,2-.15.74-.7.79-1.22.38-.53.38-1,.25-.84,1-.78,1.46-.13.76-.48-1.09,0-1.57-.17-1.15-.7-1.71-.69-1.34.38-2.14.48S19.58,9.24,19.71,10Z" transform="translate(0 0.02)" fill="#1e88e5" opacity="0.7"/><path d="M14.34,13.67c-.54-.06-.78-.08-.91-.29s0-.29-.15-.53-.27-.36-.23-.43a.23.23,0,0,1,.27-.05c.06.06.15.48.22.49s.08-.08.06-.23,0-.26-.08-.28-.17-.06-.07-.09.19,0,.23,0a.11.11,0,0,1,.14,0s.15,0,.21,0-.06.22,0,.31.61.19.72.45a1,1,0,0,1,.09.62C14.85,13.69,14.56,13.69,14.34,13.67Z" transform="translate(0 0.02)" fill="#e53935" opacity="0.7"/><path d="M12.82,13.21c.72.73,3.37,1,4.32.48S18.26,11,18.29,10,18,8.69,16.71,8.91s-3.05.7-3.62,1.64S12.1,12.48,12.82,13.21Z" transform="translate(0 0.02)" fill="#ffb300" opacity="0.7"/><path d="M6.84,3.11c.1.33,1,.56,1.37.45a.48.48,0,0,0,.14-.82C8.09,2.5,6.66,2.49,6.84,3.11Z" transform="translate(0 0.02)" fill="#1e88e5" opacity="0.7"/><rect width="30" height="20" fill="none"/></svg>