<!-- Copyright (c) 2022 Jan Stehno -->
<svg xmlns="http://www.w3.org/2000/svg" viewBox="0 0 300 200"><title>roedeer_body</title><g id="roedeer"><g id="body"><path d="M266,200H258.5l-.38-8.17L255.87,200h-8.25s3.88-14.79,1.84-22.75-13.34-17.69-19.71-22.5a109.4,109.4,0,0,1-11.88-10.62s-1.87,1.06-5.06,0-4.37-2.69-7.94-.38-8.43,6.88-20.56,8.81-30.75,1.94-30.75,1.94,1.19,14.31,2.31,19.87a40.31,40.31,0,0,1,.88,12.75c-.25,5.32.06,12.88.06,12.88h-7.19l-2.18-7.25s-.63,2.87-.94,4.37a7.64,7.64,0,0,0,0,2.88h-6.81s.81-1.81,0-6.81a45.44,45.44,0,0,1-.75-12.25c.37-3.38.31-15.19-2.13-20.13s-4.31-7.69-11.06-9.69-12.31-5.81-14.75-12.06-10.58-11.64-14.83-18.39S86.33,109,81,98.17,72.5,77.75,67.83,75.58s-7.83-.66-13.33-2-9.75.25-14-.66-4.58-4.09-4.58-4.09-2-.42-2.75-3.92S34.28,60,37.05,59s7.76-5.54,10.78-8.58a88.41,88.41,0,0,0,8.92-11.17c2-3,3.69-4.22,5.09-6.22a6.2,6.2,0,0,1,2.47-2.37s3.57-6.88,3.22-9.54a32.78,32.78,0,0,0-1.65-6,30.55,30.55,0,0,1-.22-6.81c.09-1.34.34,2.66,1.43,5s2,3.81,2,3S67.78,13,67.34,11.16a24.32,24.32,0,0,1-.78-4.88c-.15-2.25.19.16,2.1,3.16s2.06,4,3.06,4,4.18-3.39,5.49-6.22S79,2.94,79,1.87A5.53,5.53,0,0,0,78.83,0h1.82a8.4,8.4,0,0,1,.48,3.35C81,5.23,80.5,6,80.75,6.79S82.59,8.7,84.7,9a14.7,14.7,0,0,0,5.46-.18c1.53-.34.61,1.14-1.85,1.57s-7.33-.6-8.11-.14-1.12,2.18-1.43,3.4-2,2.91-3.61,4-3,7.8-3,7.8S76,19.48,77,17.92,80.54,11,82.25,11s3.44,1.92,4.75,8.06S89.47,31,88.09,33.69s-2.68,5.37-2.68,5.37,2.47,3,5.4,10.5,6.38,19.69,15.69,30.38,11.31,10.37,21.81,7.25,13.61-3.61,21.52-1.61,17.92,3,34,.09,26.75-8.09,42.34-8.67,15.58,2.17,27.16,4.08,17.09,12.25,17.25,15.17a11.1,11.1,0,0,1-1.41,5.58,17,17,0,0,1-4.09,12.75c-5.16,6.17-15.5,12.59-17.75,20.25s2.42,12.84,8,18.75,9.92,6.92,10.84,8.75-.84,4.84-.25,12.17-.59,12.58-.34,17.25S266,200,266,200Z" transform="translate(0 0)" fill="#ccc"/></g></g><g id="frame"><rect id="frame-2" width="300" height="200" fill="none"/></g></svg>