<!-- Copyright (c) 2022 Jan Stehno -->
<svg xmlns="http://www.w3.org/2000/svg" viewBox="0 0 300 200"><title>roedeer_organs</title><g id="roedeer"><g id="organs"><path d="M189.38,136c6.13-6.85,5.25-8.81,6.18-18.44s-.81-15.62-5.25-17.25-12.37.07-16.12,13.25-4.88,22.82,1.69,26.5S187.76,137.8,189.38,136Z" transform="translate(0 0)" fill="#1e88e5" opacity="0.7"/><path d="M202.94,134.31c6.55-2.87,14.31-5.25,12-10.12s-10.19-6.38-13.44-10.63-6.69-11.89-10.37-12.83-8.25,9.58-11.57,14.52-4.31,18.56,2.88,21.88S199.09,136,202.94,134.31Z" transform="translate(0 0)" fill="#1e88e5" opacity="0.7"/><path d="M195.78,111.43c2.14,4.63,4.1,6.82,8,7.07s2.75,6.13,8.94,5.88,7.19,1.56,11.87.37,8.25-4,9.5-6.45,1.88-5.49,4.88-6.87,2.56-7.12,5-7.49,5.56-4.13,9.44-3.94,10.18-.81,6.31-4.06-12.31,1-14.88,1.12-8-5.68-14.12-5.5-6.63,1.88-16.5,3.07S188.81,96.37,195.78,111.43Z" transform="translate(0 0)" fill="#1e88e5" opacity="0.7"/><path d="M149.19,147.82c-5.47,0-7.84,0-9.61-2.82s-1-4.24-2.83-7.49-3.56-4.93-3.4-6,1.81-1.73,2.55-1,2.71,6.61,3.39,6.69.58-1.19,0-3.32-.67-3.77-1.46-4-1.78-.6-.88-1.1,1.94-.06,2.19-.76.91-.88,1.34-.51,1.42-.44,2.09,0,0,3.23,1.07,4.47,6.51,1.86,8.26,5.41a24.22,24.22,0,0,1,2.42,8.89C154.3,147.51,151.41,147.81,149.19,147.82Z" transform="translate(0 0)" fill="#e53935" opacity="0.7"/><path d="M154,143.42c14.33-1.57,22.17-2.92,24.25-12.17s4-24.92,2.42-29-14,1-29.92,4.5-21.25,9.67-22.33,17.67S132.67,145.75,154,143.42Z" transform="translate(0 0)" fill="#ffb300" opacity="0.7"/><path d="M66.13,45.38c1,2.44,5.2.95,8.58,2.58s7.54-.67,6.37-4-4.12-5-7.79-5S64.13,40.29,66.13,45.38Z" transform="translate(0 0)" fill="#1e88e5" opacity="0.7"/></g></g><g id="frame"><rect id="frame-2" width="300" height="200" fill="none"/></g></svg>