<svg xmlns="http://www.w3.org/2000/svg" viewBox="0 0 30 20"><path d="M18.94,13.58c.61-.69.52-.89.62-1.85S19.48,10.17,19,10s-1.24,0-1.61,1.32-.49,2.28.17,2.65S18.78,13.76,18.94,13.58Z" transform="translate(0 0.02)" fill="#1e88e5" opacity="0.7"/><path d="M20.29,13.41c.66-.29,1.44-.53,1.2-1s-1-.63-1.34-1.06-.67-1.19-1-1.28S18.29,11,18,11.5s-.44,1.86.28,2.19A2.71,2.71,0,0,0,20.29,13.41Z" transform="translate(0 0.02)" fill="#1e88e5" opacity="0.7"/><path d="M19.58,11.12c.21.46.41.68.8.71s.27.61.89.58.72.16,1.19,0a1.54,1.54,0,0,0,.95-.64c.12-.25.18-.55.48-.69s.26-.71.5-.75S25,10,25.34,10s1-.09.63-.41-1.23.1-1.49.11-.8-.57-1.41-.55-.66.19-1.65.31S18.88,9.61,19.58,11.12Z" transform="translate(0 0.02)" fill="#1e88e5" opacity="0.7"/><path d="M14.92,14.76c-.55,0-.78,0-1-.28s-.1-.43-.28-.75-.36-.5-.34-.6a.16.16,0,0,1,.25-.1c.07.07.27.66.34.67s.06-.12,0-.33-.07-.38-.15-.41-.17-.06-.08-.11.19,0,.21-.07.1-.09.14,0,.14-.05.21,0,0,.33.11.45.65.19.82.54a2.24,2.24,0,0,1,.24.89C15.43,14.73,15.14,14.76,14.92,14.76Z" transform="translate(0 0.02)" fill="#e53935" opacity="0.7"/><path d="M15.4,14.32c1.43-.16,2.22-.29,2.42-1.22a8.59,8.59,0,0,0,.25-2.9c-.16-.41-1.4.1-3,.45s-2.12,1-2.23,1.77S13.27,14.55,15.4,14.32Z" transform="translate(0 0.02)" fill="#ffb300" opacity="0.7"/><path d="M6.61,4.51c.1.25.52.1.86.26s.76-.07.64-.4a.78.78,0,0,0-.78-.5C7,3.86,6.41,4,6.61,4.51Z" transform="translate(0 0.02)" fill="#1e88e5" opacity="0.7"/><rect width="30" height="20" fill="none"/></svg>