<svg xmlns="http://www.w3.org/2000/svg" viewBox="0 0 30 20"><path d="M26.6,20h-.75l0-.82-.22.82h-.83A6.19,6.19,0,0,0,25,17.7a5.7,5.7,0,0,0-2-2.25,11.31,11.31,0,0,1-1.18-1.06.7.7,0,0,1-.51,0c-.32-.11-.44-.27-.79,0a4.29,4.29,0,0,1-2.06.88,23.81,23.81,0,0,1-3.07.2s.11,1.43.23,2a4,4,0,0,1,.08,1.28c0,.53,0,1.29,0,1.29H15l-.22-.73-.09.44a.8.8,0,0,0,0,.29H14a1.43,1.43,0,0,0,0-.69,5,5,0,0,1-.08-1.22,5.21,5.21,0,0,0-.21-2,1.5,1.5,0,0,0-1.11-1,2.11,2.11,0,0,1-1.47-1.21C10.86,13.26,10,12.72,9.62,12A16,16,0,0,1,8.1,9.79c-.53-1.08-.85-2-1.32-2.26S6,7.47,5.45,7.33s-1,0-1.4-.06a.53.53,0,0,1-.46-.41s-.19,0-.27-.39.11-.5.38-.59A4.41,4.41,0,0,0,4.78,5a8.66,8.66,0,0,0,.9-1.12c.19-.3.36-.42.5-.62A.72.72,0,0,1,6.43,3a2.71,2.71,0,0,0,.32-1,2.92,2.92,0,0,0-.16-.6,3.11,3.11,0,0,1,0-.68c0-.14,0,.26.14.5s.2.38.2.3-.13-.34-.18-.52A2.22,2.22,0,0,1,6.66.6c0-.22,0,0,.21.32s.2.4.3.4S7.59,1,7.72.7A1.46,1.46,0,0,0,7.9.16a.44.44,0,0,0,0-.18h.18a.65.65,0,0,1,0,.33c0,.19-.06.27,0,.34a.49.49,0,0,0,.39.23A1.64,1.64,0,0,0,9,.86c.15,0,.06.11-.19.16S8.1,1,8,1s-.11.22-.14.34a.94.94,0,0,1-.36.4c-.16.1-.3.78-.3.78l.48-.75c.1-.16.35-.69.53-.69s.34.19.47.8a2.89,2.89,0,0,1,.11,1.46l-.27.54a4.08,4.08,0,0,1,.54,1,9.38,9.38,0,0,0,1.57,3c.93,1.07,1.13,1,2.18.72A3.23,3.23,0,0,1,15,8.53a7.68,7.68,0,0,0,3.4,0,27.73,27.73,0,0,1,4.24-.86,8.12,8.12,0,0,1,2.71.4A2.18,2.18,0,0,1,27.06,9.6a1.1,1.1,0,0,1-.14.56,1.68,1.68,0,0,1-.41,1.27c-.52.62-1.55,1.26-1.78,2s.24,1.28.8,1.87,1,.7,1.09.88-.09.48,0,1.22-.06,1.25,0,1.72S26.6,20,26.6,20Z" transform="translate(0 0.02)" fill="#ccc"/><rect width="30" height="20" fill="none"/></svg>