<!-- Copyright (c) 2023 Jan Stehno -->
<svg xmlns="http://www.w3.org/2000/svg" viewBox="0 0 300 200">
    <title>rondaibex_organs</title>
    <g id="ibex">
        <g id="organs">
            <path
                d="M182.83,133c6.87-.95,8.59-5.42,9.17-16.42s3.42-24.91.92-31.33-12.84-9.08-16.25-3.08-.34,26.91-2.25,34.66S171.42,134.58,182.83,133Z"
                transform="translate(0 0)" fill="#1e88e5" opacity="0.7" />
            <path
                d="M206.58,135.42c10-.38,16.59-3.59,17.59-11s-2.5-11.09-8.79-14.92S202.83,92.17,200.5,85.58s-8.7-9.8-11-4.56-9,27.48-6.95,38.81S193.33,135.92,206.58,135.42Z"
                transform="translate(0 0)" fill="#1e88e5" opacity="0.7" />
            <path
                d="M234.42,122.92c6.72-3,8-13.34,13.58-18.09s7.58-9.08,7.5-12.66,4.75.91,8.83-1.09,5.25-1.25,9.5,1.34,7.17,1.25,1.5-4.25-7.75-7.75-11.75-6.34-6-.29-7.75-3-4.58-7.39-14.16-5.81-9.75,2.58-20.75.83-19.67-1.5-20.67,7.42S209,101,212,110.83,225.17,127,234.42,122.92Z"
                transform="translate(0 0)" fill="#1e88e5" opacity="0.7" />
            <path
                d="M135.62,135.18c-5.23-1.27-7.49-1.86-8.63-5.47s-.11-5.08-1.22-9.22-2.42-6.47-2.06-7.62,2.07-1.55,2.63-.56,1.28,8.19,1.92,8.45.79-1.24.67-3.8.1-4.46-.6-5-1.58-1.1-.62-1.46,1.86.38,2.24-.36,1-.79,1.38-.26,1.44-.18,2,.48-.66,3.68.15,5.36,5.84,3.64,6.82,8.11a34.11,34.11,0,0,1,.55,10.73C140.56,136,137.74,135.69,135.62,135.18Z"
                transform="translate(0 0)" fill="#e53935" opacity="0.7" />
            <path
                d="M119.92,123.83c2.88,7.42,11.33,10.75,28.5,13s26.58,1.59,28.16-16.75,2.84-35-2.25-36.66S158,82.92,149.5,86.5,132.08,90.83,127.92,97,117,116.33,119.92,123.83Z"
                transform="translate(0 0)" fill="#ffb300" opacity="0.7" />
            <path d="M38.22,63.08c3.45.67,4-4.26,7.9-6s2.65-7.19-2.16-5.44S31.16,61.72,38.22,63.08Z"
                transform="translate(0 0)" fill="#1e88e5" opacity="0.7" />
        </g>
    </g>
    <g id="frame">
        <rect id="frame-2" width="300" height="200" fill="none" />
    </g>
</svg>