<svg xmlns="http://www.w3.org/2000/svg" viewBox="0 0 30 20"><path d="M19.84,13.11c.8-.74.6-2.68.39-3.25s-1.06-1-1.48-.62a4.31,4.31,0,0,0-.91,2.43C17.73,12.72,17.66,15.13,19.84,13.11Z" transform="translate(0 0.02)" fill="#1e88e5" opacity="0.7"/><path d="M20.87,13.38c1.16-.45,1.81-.55,1.51-1.21s-1.05-1-1.61-1.69S20,9,19.37,9.34s-.55,1.86-.81,2.81S18.56,14.29,20.87,13.38Z" transform="translate(0 0.02)" fill="#1e88e5" opacity="0.7"/><path d="M20.56,11.08c.27.45.72.36,1,.77s.71.33,1.14.5,1.47.15,1.7-.29.65-.7.65-1,.43-.62.5-1.14.83-.74,1.2-.69.72-.46,0-.54-.92.34-1.45.13-.68-.64-1.57-.52A14,14,0,0,1,22,8.71c-1,0-2.1.38-2,1.21A1.64,1.64,0,0,0,20.56,11.08Z" transform="translate(0 0.02)" fill="#1e88e5" opacity="0.7"/><path d="M15.39,14.48c-.56,0-.81,0-1-.33s-.11-.47-.3-.83-.38-.55-.36-.66a.17.17,0,0,1,.26-.11c.08.08.29.73.36.74s.06-.13,0-.36-.08-.42-.16-.45-.19-.07-.09-.13.2,0,.22-.08.1-.09.14,0,.15-.05.22,0,0,.36.12.5.67.21.86.61a2.6,2.6,0,0,1,.26,1C15.92,14.45,15.62,14.48,15.39,14.48Z" transform="translate(0 0.02)" fill="#e53935" opacity="0.7"/><path d="M15.13,14.59c1.4.1,2.73.09,3.15-1.21a8.57,8.57,0,0,0,.49-3.7c-.19-.8-.84-.7-2-.38S13.64,10,13.25,11a2.36,2.36,0,0,0-.06,2.37A2.47,2.47,0,0,0,15.13,14.59Z" transform="translate(0 0.02)" fill="#ffb300" opacity="0.7"/><path d="M5.85,3.9C6,4.28,6.61,4,7,4.19s1.05-.15.76-.48a1.2,1.2,0,0,0-1-.53C6.32,3.17,5.66,3.35,5.85,3.9Z" transform="translate(0 0.02)" fill="#1e88e5" opacity="0.7"/><rect width="30" height="20" fill="none"/></svg>