<!-- Copyright (c) 2022 Jan Stehno -->
<svg xmlns="http://www.w3.org/2000/svg" viewBox="0 0 300 200"><title>rooseveltelk_body</title><g id="rooseveltelk"><g id="body"><path d="M18.94,64.37c1.44,2.38,5.19,3.32,5.19,3.32s.12,3.31,1.5,4.87,3.12,2.94,8,1.13,12.7-2.86,19.95,1.89,9.09,19,15.67,32.42S97.62,134.19,105,138.81s8.33,8,13.42,12.61,13.2,3.79,15.12,5,4,14.71,4.58,19.16-.75,11.5,0,14.5,1.44,9.88,1.44,9.88h7.06a38.76,38.76,0,0,1,.82-4.75c.62-2.69,2.12-8,2.12-8a62.24,62.24,0,0,0,1.38,6.75c.75,2.5,1.37,6,1.37,6h10a75.61,75.61,0,0,1,0-8.87c.31-3.88.13-6.38-.31-14.88s-1.81-19.38-1.81-19.38a35.43,35.43,0,0,0,8.56-.06c5.5-.56,19.62-4.12,30.31-5.56s15.88-4.87,19-4.75,1,2.38,5.13,2.81,5.81-1.62,5.81-1.62,5.25,3.5,14.12,8.75,19.38,14,22.5,21,.75,22.58.75,22.58h14.34s-.63-16.08.79-21.5,1-8.17-.33-11.5.33-4.25-3.67-6.42a28.59,28.59,0,0,1-12.33-12.08c-3.5-6.58-.73-11,3.2-17.25s10.82-14.75,14.32-22.06,3.48-12.27,3.48-12.27,1.5-.5,1.66-2.92a20.57,20.57,0,0,0-1-8.33c-1-2.5-13.25-12.17-24.75-14.67s-17.16-6.92-27.91-5.5-37.5,6.92-52.5,6.33-26-8.33-31.92-8.33-13.81,2.19-21.69,3.69S119.19,72,112.13,72s-8.44-5.06-11.57-7.5S92.44,52.25,86.5,43.12s-7.87-9.91-7.87-9.91a21.54,21.54,0,0,0,.2-2.75,18.47,18.47,0,0,0-.29-3.54s8.79-.71,14.5-4.46,10.42-9.21,12-12.79S112.38,0,112.38,0H92.21S79.29,13.33,74.46,13.33,61.38,11.12,59.21,8.5,57.54,0,57.54,0h-.83l-.88,2.17L55.17,0H51.29s0,2.37.21,6.71S55.31,14,55.31,14a11,11,0,0,0,.75,5.41,6.46,6.46,0,0,0,4.69,4s-1.83,7.5-7.5,9.66S47.08,35.67,39,42.75,24.06,53,20.38,55.56,17.5,62,18.94,64.37ZM86.33,17.25S94.79,11.08,98,5.54c0,0,1.29,1.92-2,5.54S86.33,17.25,86.33,17.25Z" transform="translate(0 0)" fill="#ccc"/></g></g><g id="frame"><rect id="frame-2" width="300" height="200" fill="none"/></g></svg>