<svg xmlns="http://www.w3.org/2000/svg" viewBox="0 0 30 20"><path d="M1.89,6.41a1,1,0,0,0,.52.33,1,1,0,0,0,.15.49c.14.16.32.3.8.11a2.25,2.25,0,0,1,2,.19c.72.48.91,1.9,1.57,3.25s2.83,2.61,3.57,3.08.83.8,1.34,1.26,1.32.38,1.51.5a5.87,5.87,0,0,1,.46,1.92c.06.44-.07,1.15,0,1.45A9.27,9.27,0,0,1,14,20h.7a4.37,4.37,0,0,1,.08-.48c.07-.27.22-.8.22-.8a6.75,6.75,0,0,0,.13.68,5.39,5.39,0,0,1,.14.6h1a7.86,7.86,0,0,1,0-.89,11.55,11.55,0,0,0,0-1.49c0-.85-.18-1.94-.18-1.94a3.7,3.7,0,0,0,.85,0c.55-.06,2-.42,3-.56s1.58-.49,1.9-.47.1.23.51.28a.66.66,0,0,0,.58-.17s.52.35,1.41.88a6.06,6.06,0,0,1,2.25,2.1A5.71,5.71,0,0,1,26.64,20h1.43a12.44,12.44,0,0,1,.08-2.15,1.62,1.62,0,0,0,0-1.15c-.14-.34,0-.43-.37-.65a2.84,2.84,0,0,1-1.23-1.2c-.35-.66-.08-1.1.32-1.73a23.39,23.39,0,0,0,1.43-2.21,3.13,3.13,0,0,0,.35-1.22s.15-.05.16-.29a2,2,0,0,0-.1-.84,5,5,0,0,0-2.47-1.46c-1.15-.25-1.72-.7-2.79-.55a37.42,37.42,0,0,1-5.25.63c-1.5-.06-2.6-.83-3.19-.83a13.57,13.57,0,0,0-2.17.36c-.79.15-.89.49-1.6.49s-.84-.51-1.15-.75A15.26,15.26,0,0,1,8.65,4.29c-.59-.91-.79-1-.79-1a1.58,1.58,0,0,0,0-.28,1.39,1.39,0,0,0,0-.35A3.59,3.59,0,0,0,9.3,2.22,3.47,3.47,0,0,0,10.51.94a5.07,5.07,0,0,1,.73-1h-2S7.93,1.31,7.45,1.31A2.65,2.65,0,0,1,5.92.83,1.46,1.46,0,0,1,5.75,0H5.67L5.58.19,5.52,0H5.13s0,.23,0,.67a1.18,1.18,0,0,0,.38.73,1.12,1.12,0,0,0,.08.54.64.64,0,0,0,.47.4,1.5,1.5,0,0,1-.75,1,3.58,3.58,0,0,0-1.43,1A12.59,12.59,0,0,1,2,5.53.62.62,0,0,0,1.89,6.41ZM8.63,1.7A5.21,5.21,0,0,0,9.8.53s.13.19-.2.55A2.9,2.9,0,0,1,8.63,1.7Z" transform="translate(0 0.02)" fill="#ccc"/><rect width="30" height="20" fill="none"/></svg>