<!-- Copyright (c) 2022 - 2023 Jan Stehno -->
<svg xmlns="http://www.w3.org/2000/svg" viewBox="0 0 300 200"><title>rooseveltelk_organs</title><g id="rooseveltelk"><g id="organs"><path d="M198.44,131.31c8-7.4,5.94-26.75,3.87-32.43s-10.62-10.07-14.81-6.19-8,13.75-9.12,24.25S176.63,151.56,198.44,131.31Z" transform="translate(0 0)" fill="#1e88e5" opacity="0.7"/><path d="M208.67,134.08c11.64-4.58,18.08-5.58,15.16-12.16s-10.49-10.4-16.08-16.92-8.08-14.75-14.08-11.33-5.42,18.58-8.09,28.08S185.58,143.17,208.67,134.08Z" transform="translate(0 0)" fill="#1e88e5" opacity="0.7"/><path d="M205.63,111.06c2.64,4.45,7.18,3.55,10.12,7.65s7.06,3.29,11.31,5,14.75,1.5,17-2.87,6.5-7.07,6.57-10.13,4.31-6.19,5-11.37,8.31-7.44,11.93-6.94,7.25-4.56.57-5.44-9.25,3.44-14.5,1.38-6.82-6.44-15.75-5.19-8.57,3.56-18.25,4.12-21,3.88-20.25,12.13S204.44,109.06,205.63,111.06Z" transform="translate(0 0)" fill="#1e88e5" opacity="0.7"/><path d="M153.93,145c-5.68-.06-8.13-.14-10-3.25s-1.1-4.71-3-8.32-3.77-5.51-3.61-6.66,1.85-1.88,2.62-1.07,2.91,7.35,3.62,7.45.58-1.32,0-3.68-.74-4.17-1.57-4.49-1.85-.69-.92-1.23,2,0,2.25-.8.94-1,1.39-.55,1.46-.46,2.16,0,0,3.57,1.18,5,6.78,2.14,8.65,6.1a29,29,0,0,1,2.64,9.86C159.23,144.77,156.24,145.06,153.93,145Z" transform="translate(0 0)" fill="#e53935" opacity="0.7"/><path d="M151.33,146.17c14,1,27.25.83,31.5-12.09s6.67-28.91,4.84-37-8.34-7-19.84-3.83-31.41,7.08-35.33,16.83-5.25,16.59-.58,23.67S142.67,145.54,151.33,146.17Z" transform="translate(0 0)" fill="#ffb300" opacity="0.7"/><path d="M58.5,39.25C59.82,43,66.13,40.44,70,42.19s10.5-1.5,7.56-4.88S72.19,32.06,67.69,32,56.56,33.75,58.5,39.25Z" transform="translate(0 0)" fill="#1e88e5" opacity="0.7"/></g></g><g id="frame"><rect id="frame-2" width="300" height="200" fill="none"/></g></svg>