<svg xmlns="http://www.w3.org/2000/svg" viewBox="0 0 30 20"><path d="M29.37,18.18a1.78,1.78,0,0,1-.05-1.06c.1-.35-.08-1,.11-1.21,0,0,0,0,0-.05l0-.8a.08.08,0,0,0-.08-.08.44.44,0,0,1-.23-.1c-.14-.13-.46-.13-.68-.23a1.19,1.19,0,0,1-.42-.3c-.17-.13-.23,0-.31-.11s-.2-.25-.29-.26a.33.33,0,0,1-.31-.09c-.11-.12-.18-.24-.32-.26s-.29,0-.39-.08-.2-.26-.45-.24-.35-.08-.59-.21-.42.09-.54-.06a.82.82,0,0,0-.42-.26c-.24-.09-.38.1-.44,0a.59.59,0,0,0-.47-.24c-.23,0-.32.1-.52,0s-.31,0-.58,0-.18-.11-.42-.15-.32.11-.46.05-.14-.24-.39-.15-.29.2-.43.05a.43.43,0,0,0-.53-.05c-.17.08-.14.21-.3.12s-.32-.26-.49-.11-.24.21-.3.15a.42.42,0,0,0-.46,0c-.18.11-.28.26-.38.15a.32.32,0,0,0-.45-.07c-.22.14-.27.21-.37.12a.23.23,0,0,0-.34,0c-.13.09-.31.22-.43.08s-.23-.15-.45,0-.25.19-.43,0-.35,0-.57.15-.26-.09-.4,0-.27.25-.39.25-.19-.16-.41-.15-.19.26-.29.12a.33.33,0,0,0-.55,0c-.15.24-.22.08-.36,0s-.3,0-.38.19-.19.06-.43.13-.24,0-.41.09a.42.42,0,0,1-.44,0c-.11-.09-.15-.15-.28-.1s-.28.33-.34.34-.1-.2-.31-.23-.3.17-.46.22-.22-.06-.44,0a3.13,3.13,0,0,1-.91,0c-.27,0-.27-.07-.31-.21s0-.21-.29-.29-.43-.19-.78-.31-.33-.25-.49-.32a.64.64,0,0,0-.49,0c-.17.07-.15,0-.27-.05a.43.43,0,0,0-.37,0c-.15,0-.3-.06-.65-.11a3.51,3.51,0,0,1-1.28-.5,1.6,1.6,0,0,1-.59-.46c-.13-.13-.3,0-.37-.17s-.16,0-.39-.09a.82.82,0,0,0-.62,0,.25.25,0,0,0-.13.26c0,.08.1.05.06.13s0,.2,0,.14.09-.05.06.09,0,.13.11.06.08.07.08.15a1,1,0,0,0,0,.33c0,.19.06.06.12-.06S2,12,2,12.07s0,.12,0,.21.1,0,.18-.16.18-.08.15,0,0,.13,0,.12.12,0,.11.08,0,.17.08.12.11-.07.09,0-.06.21,0,.15.15,0,.11.07a.73.73,0,0,0,0,.24c0,.14,0,.17.11,0s.18-.19.19-.13S3,13,3,13.13s.05.16.12.06A.64.64,0,0,1,3.4,13c.07,0,.05.12.08.17s.07,0,.2-.16.15,0,.18.06.06.15.12,0,.2-.1.21,0,.06.13.08.1.17,0,.16.11,0,.13.12.07.1,0,.09.07,0,.12.09.08.14-.08.15,0,0,.13.08.1,0-.06.13-.05a1,1,0,0,1,.41.31c.12.16.07.19.13.32s.06.14,0,.19a1.85,1.85,0,0,0-.23.38c-.08.16-.24.21-.28.17S5,14.93,5,15s-.14,0-.19-.06-.14-.07-.13,0-.1.06-.15-.07-.09-.09-.15,0-.11.13-.17,0-.08-.13-.13-.07a1.28,1.28,0,0,0-.11.2c0,.07-.13,0-.2-.14s-.13,0-.12.1,0,.1-.13,0-.07-.22-.12-.15a.2.2,0,0,0,0,.22c0,.1,0,.15-.11.1s-.09-.05-.14,0-.11.08-.25,0-.15,0-.21,0-.15-.13-.16-.07-.06,0-.15-.11-.08.1-.18-.13S2,14.81,2,15s-.07.06-.12-.09-.11-.23-.17-.13,0,.25,0,.32-.2,0-.26-.08-.14-.05-.14,0-.08,0-.11-.07-.18-.18-.2-.11a.77.77,0,0,0,0,.25.49.49,0,0,0-.09.1c-.05.06,0,.23.22.44a5.58,5.58,0,0,0,1.79.59,16.91,16.91,0,0,1,1.65.43,6,6,0,0,0,1.37.19c.39.06.43.19.76.49a3.91,3.91,0,0,0,1.4.63A13,13,0,0,0,10.4,18a3.37,3.37,0,0,1,1.2.13c.13,0,.09.14-.08.36s-.45.31-.72.5a2.38,2.38,0,0,0-.58.58c-.07.11.44-.14.37,0s.27-.06.61-.05a2.16,2.16,0,0,0,1-.12,2.71,2.71,0,0,0,.85-.73c.26-.26.27-.43.39-.41a.28.28,0,0,1,.21.34c0,.19.09.23,0,.37s-.37.23-.68.4a1.46,1.46,0,0,0-.64.53c-.1.22.21,0,.2.05s.3,0,.24,0,.12.07.49,0,.49-.08.41,0-.1.12.07.1a1.52,1.52,0,0,0,1-.46c.42-.43.24-.57.33-.87a1,1,0,0,1,.26-.46s1,.09,2,.16a18.4,18.4,0,0,0,3,0,5.91,5.91,0,0,1,1.36,0l0,.07a2.28,2.28,0,0,0-.39.31c-.2.18-.65.35-1,.63s.12.05-.18.32.73,0,.54.12-.17.25.07.14,1.34-.38,1.19-.16-.09.28.21.11a8.2,8.2,0,0,1,1.26-.44c.6-.22.46-.49.75-.64a2.19,2.19,0,0,0,.5-.36,1.15,1.15,0,0,1,.32.18c.24.17.88,0,1.4,0s1.93.43,2.78.35h.18a.09.09,0,0,0,.08-.09l0-.57Z" transform="translate(0 0.02)" fill="#ccc"/><rect width="30" height="20" fill="none"/></svg>