<!-- Copyright (c) 2022 - 2023 Jan Stehno -->
<svg xmlns="http://www.w3.org/2000/svg" viewBox="0 0 300 200"><title>saltwatercrocodile_body</title><g id="saltwatercrocodile"><g id="body"><path d="M293.69,182.06c-.94-1.18-1.5-7.12-.5-10.62s-.75-9.69,1.06-12.13a2.79,2.79,0,0,0,.26-.45l.18-8a.9.9,0,0,0-.77-.9,3.92,3.92,0,0,1-2.28-.92c-1.4-1.33-4.6-1.29-6.88-2.28s-2.5-1.65-4.16-3-2.34.13-3.13-1.17-2-2.44-2.84-2.53-2.08.23-3.15-1-1.78-2.37-3.13-2.54-3,.09-4-.8-2-2.61-4.53-2.43-3.46-.77-5.92-2.14-4.1,1-5.38-.56-1.72-1.65-4.17-2.57-3.78,1-4.41,0a6.13,6.13,0,0,0-4.73-2.46c-2.26-.07-3.2,1.08-5.16-.45s-3.15,0-5.79.26-1.79-1-4.16-1.5-3.21,1.12-4.63.49-1.43-2.32-3.88-1.42-2.91,2-4.34.46-3.53-1.37-5.27-.54-1.46,2.19-3.05,1.2-3.16-2.56-4.91-1.08-2.39,2.14-3,1.5-2.84-1-4.63.11-2.76,2.57-3.78,1.5a3.24,3.24,0,0,0-4.55-.64c-2.15,1.31-2.66,2.06-3.63,1.12s-2.08-1.39-3.39-.41-3.15,2.25-4.35.88-2.23-1.5-4.47-.11-2.55,1.84-4.32.21-3.52.3-5.7,1.5-2.61-.93-4-.2-2.67,2.46-3.9,2.5-1.9-1.59-4-1.58-2,2.63-2.94,1.2a3.35,3.35,0,0,0-5.5,0c-1.54,2.38-2.21.82-3.56-.07s-3,.18-3.85,1.9-1.89.59-4.33,1.32-2.39.15-4.07.83a4.27,4.27,0,0,1-4.38-.48c-1.1-.88-1.47-1.53-2.82-1s-2.8,3.3-3.43,3.4-.93-2-3.06-2.25-3,1.67-4.57,2.17-2.24-.58-4.4.14-6.36,0-9.11-.17-2.72-.67-3.13-2.05,0-2.14-2.85-2.95S74,129.5,70.5,128.3s-3.3-2.48-4.85-3.12a6.52,6.52,0,0,0-5,.08c-1.63.69-1.5.14-2.69-.54a4.22,4.22,0,0,0-3.69-.27c-1.48.44-3-.59-6.52-1.11s-7.6-2-12.79-5-4.58-3.34-5.85-4.62-3-.39-3.71-1.63-1.62-.38-3.89-.91-4.48-.93-6.17.23-1.2,1.71-1.29,2.54.9.56.58,1.32-.13,2,.16,1.44.94-.58.58.83.42,1.36,1.08.66.89.71.83,1.47a11.82,11.82,0,0,0-.12,3.27c.19,1.92.68.65,1.25-.56s1.72-2,1.8-1.46-.28,1.2,0,2.11,1-.27,1.81-1.52,1.81-.84,1.54.18-.18,1.32.49,1.18,1.17-.08,1.09.76-.12,1.71.78,1.21,1.14-.72.93.42-.59,2.11.32,1.54,1.42.1,1.1.65a7,7,0,0,0-.49,2.42c-.21,1.35.38,1.69,1,.27s1.79-1.83,2-1.29-.54.86-.62,2.72.49,1.62,1.16.59a6.32,6.32,0,0,1,2.69-1.9c.71-.35.56,1.22.79,1.7s.76,0,2-1.61,1.57-.49,1.8.61.63,1.49,1.26.41,1.93-1,2.1.11.56,1.28.82,1,1.62-.12,1.55,1.11.36,1.31,1.22.67,1,0,.9.74.35,1.22.93.83,1.33-.83,1.44.08.41,1.32.79,1a1.26,1.26,0,0,1,1.32-.49A9.38,9.38,0,0,1,55,139.44c1.23,1.61.69,1.92,1.35,3.2s.54,1.41,0,1.92A17.76,17.76,0,0,0,54,148.38c-.75,1.57-2.37,2.1-2.83,1.69s-.74-.5-1.23.17-1.45.27-1.93-.55-1.37-.79-1.28.21-1,.69-1.52-.66-.93-.94-1.46,0-1.11,1.3-1.7.41-.86-1.33-1.3-.73a16.63,16.63,0,0,0-1.17,2c-.36.68-1.23-.07-1.93-1.4s-1.29,0-1.25,1-.38,1-1.24.23-.72-2.22-1.28-1.53a2.1,2.1,0,0,0-.31,2.23c.37.94-.21,1.42-1.15,1s-.89-.58-1.38,0-1.08.75-2.5.15-1.48.34-2.16-.25-1.48-1.34-1.55-.7-.61.46-1.46-1.15-.87,1-1.82-1.23-1.6-.94-1.71.52-.72.64-1.18-.88-1.14-2.24-1.72-1.26,0,2.52-.38,3.14-2.06.08-2.6-.73-1.48-.53-1.43.12-.79.3-1.11-.67-1.8-1.74-2-1.12a8.55,8.55,0,0,0,.25,2.5,4.83,4.83,0,0,0-.87,1c-.47.67.08,2.32,2.19,4.49s12.39,4.75,17.88,5.86a164.9,164.9,0,0,1,16.59,4.3c6.28,1.94,9.87,1.43,13.69,2s4.31,1.88,7.6,4.83,9.09,4.93,13.94,6.33,13.3.52,23.28.65,10.87,1.12,12.09,1.38.87,1.32-.85,3.59-4.45,3.09-7.18,4.95a24.33,24.33,0,0,0-5.84,5.81c-.71,1.12,4.46-1.42,3.76-.47s2.67-.58,6.08-.48,6,.12,9.58-1.24,5.92-4.69,8.53-7.31,2.71-4.3,3.82-4.11a2.88,2.88,0,0,1,2.14,3.45c-.41,1.92.91,2.3.19,3.64s-3.68,2.35-6.8,4.08-5.27,3.08-6.34,5.27,2.08-.11,1.92.45,3.08-.26,2.41.18,1.26.67,4.91-.42,4.93-.81,4.11-.12-1,1.2.68,1a15.14,15.14,0,0,0,10-4.63c4.17-4.22,2.43-5.62,3.29-8.68a9.79,9.79,0,0,1,2.64-4.57s9.55.86,19.76,1.55a184.09,184.09,0,0,0,29.7,0c9.52-.89,13.57-.22,13.57-.22l.32.74a29,29,0,0,0-3.93,3.06c-2,1.84-6.42,3.54-9.77,6.29s1.26.55-1.79,3.28,7.32-.12,5.44,1.12-1.71,2.53.63,1.4c2.8-1.34,13.42-3.73,11.95-1.52s-.89,2.8,2.11,1,6.61-2.27,12.61-4.4,4.59-4.89,7.44-6.33a21,21,0,0,0,5-3.64,10,10,0,0,1,3.29,1.85c2.33,1.69,8.71.49,13.94-.26s19.3,4.36,27.82,3.54q.9-.09,1.77-.12a.89.89,0,0,0,.87-.87l.13-5.72A2.09,2.09,0,0,0,293.69,182.06Z" fill="#ccc"/></g></g><g id="frame"><rect width="300" height="200" fill="none"/></g></svg>