<!-- Copyright (c) 2022 - 2023 Jan Stehno -->
<svg xmlns="http://www.w3.org/2000/svg" viewBox="0 0 300 200"><title>saltwatercrocodile_organs</title><g id="saltwatercrocodile"><g id="organs"><path d="M255.16,179c-1,.64-2.15-2.49-4.23-5.46s-3.87-2.73-6.69-4.92-5.28-4.57-7.79-3-5.24,4.16-9.16,7-9.6,5.43-13.79,4.55a10.19,10.19,0,0,1-7.8-9.77c-.24-5.08.48-9.49-1.35-12.23s-6.62-5.47-3.42-9.36,8.94-5.16,15.68-4.36,13.62,1.13,14.21,7-1.81,13.71-.08,15.43,3.65-.45,7.07-2.4,6,.08,10.06,2.25,6.54,7.11,7,9.6S256.49,178.21,255.16,179Z" fill="#1e88e5" opacity="0.7"/><path d="M201.94,179c-3,3.41-10.37,1.05-15.43-.08s-8.79-4-5.08-9,1.67-10.29,5-17.88,7.63-11.12,12.4-10.66,9.16,6.73,9,12.24,6.44,10.22,3.89,16.3S204.5,176.1,201.94,179Z" fill="#1e88e5" opacity="0.7"/><path d="M186,174c-2.67,1.95-7.11,4.34-10.56,2.14s.35-8.61,1.17-15.18,3.46-8.5,4.16-14.1,2.92-4.7,7.59-4.77,5,1.84,4.57,7.65-.94,9.93-2.41,12.9S188.7,172.06,186,174Z" fill="#1e88e5" opacity="0.7"/><path d="M148.52,171.56c.68,2.14-5,3.39-8.17,3.87s-9.51.68-11.14-1.83-1.71-2.69-2.7-4.26-1.61-2.21,1.72-3.8,8.68-2.85,13.42-.33S147.9,169.58,148.52,171.56Z" fill="#e53935" opacity="0.7"/><path d="M188.45,153.35c.55,5.34-.48,8.6-6.73,13.63s-6.16,10.55-14.94,11-15.5-2.42-27-3.77-16.76-.74-19.62-5.37-6-11.63.28-16.59,16-8.65,33.55-9.68,24.12-1.13,27.8,2.65S187.94,148.45,188.45,153.35Z" fill="#ffb300" opacity="0.7"/><path d="M75.84,141.44c-.8,2.8-6.64,3.33-7.92.6s-2.25-7.94-.62-9.18,6-1.55,6.78,1.15S76.32,139.75,75.84,141.44Z" fill="#1e88e5" opacity="0.7"/></g></g><g id="frame"><rect width="300" height="200" fill="none"/></g></svg>