<svg xmlns="http://www.w3.org/2000/svg" viewBox="0 0 30 20"><path d="M25.52,17.88c-.1.06-.22-.25-.43-.55s-.38-.27-.67-.49-.52-.46-.77-.3-.53.42-.92.7a2,2,0,0,1-1.38.45,1,1,0,0,1-.78-1,2.59,2.59,0,0,0-.14-1.22c-.18-.27-.66-.55-.34-.93a1.71,1.71,0,0,1,1.57-.44c.68.08,1.36.11,1.42.7s-.18,1.37,0,1.54.37,0,.71-.24.6,0,1,.23a1.54,1.54,0,0,1,.7,1C25.53,17.56,25.65,17.8,25.52,17.88Z" transform="translate(0 0.02)" fill="#1e88e5" opacity="0.7"/><path d="M20.19,17.88c-.3.34-1,.1-1.54,0s-.88-.41-.51-.9.17-1,.5-1.79.77-1.11,1.24-1.06a1.23,1.23,0,0,1,.91,1.22c0,.55.64,1,.39,1.63S20.45,17.59,20.19,17.88Z" transform="translate(0 0.02)" fill="#1e88e5" opacity="0.7"/><path d="M18.6,17.38c-.27.19-.71.43-1.06.21s0-.86.12-1.52.35-.85.42-1.41.29-.47.76-.47.5.18.45.76a3.51,3.51,0,0,1-.24,1.29C18.91,16.54,18.87,17.18,18.6,17.38Z" transform="translate(0 0.02)" fill="#1e88e5" opacity="0.7"/><path d="M14.85,17.13c.07.22-.5.34-.81.39s-1,.07-1.12-.18l-.27-.43c-.1-.16-.16-.22.17-.38a1.54,1.54,0,0,1,1.35,0C14.64,16.75,14.79,16.93,14.85,17.13Z" transform="translate(0 0.02)" fill="#e53935" opacity="0.7"/><path d="M18.84,15.31c.06.53,0,.86-.67,1.36s-.61,1.06-1.49,1.11A16.63,16.63,0,0,1,14,17.4c-1.15-.14-1.67-.07-2-.54s-.6-1.16,0-1.66a5.82,5.82,0,0,1,3.36-1c1.75-.11,2.41-.12,2.78.26S18.79,14.82,18.84,15.31Z" transform="translate(0 0.02)" fill="#ffb300" opacity="0.7"/><path d="M7.58,14.12a.48.48,0,0,1-.79.06c-.13-.27-.22-.79-.06-.92s.61-.15.68.12S7.63,14,7.58,14.12Z" transform="translate(0 0.02)" fill="#1e88e5" opacity="0.7"/><rect width="30" height="20" fill="none"/></svg>