<svg xmlns="http://www.w3.org/2000/svg" viewBox="0 0 30 20"><path d="M26,18.58c.22-.82.57-1.76.32-1.92a1.22,1.22,0,0,1-.35-.29.59.59,0,0,0-.16-.47c-.19-.15-.7-.25-.94-.63a1.36,1.36,0,0,1,0-1.45,2.93,2.93,0,0,1,1.27-1.05,2.83,2.83,0,0,0,1.36-2c.22-1,0-2.5-.86-3s-2.11-.56-3.33-.92a2.94,2.94,0,0,0-1.88-.13,12,12,0,0,0-2.38.17c-1.49.29-2.21.66-3.33.52s-.93-.51-2.46-.56-1.78.14-2.59-.61S9,4.65,9,4.65A.91.91,0,0,0,8.91,4a1.85,1.85,0,0,0-.73-.52.46.46,0,0,0,.05-.15.93.93,0,0,0,0-.18,6.92,6.92,0,0,0,1.49-.87c.38-.39.44-.83.77-1.16a5.47,5.47,0,0,0,.8-.83l.18-.3h-.11L11.2.17c-.17.15-.43.46-.7.35S10.24.23,10.21,0H10V0a4.26,4.26,0,0,1-.08,1.15,1.26,1.26,0,0,1-.71,1,4,4,0,0,1-1.08.48.76.76,0,0,0-.27-.22.41.41,0,0,0-.36-.05,3,3,0,0,0,.23-.31c.13-.21.71-.73,1-1.08A4,4,0,0,0,9.35,0H8.84A4.85,4.85,0,0,1,7.78,1.29a10.38,10.38,0,0,0-1,1.15,2,2,0,0,1,0-.64,4.43,4.43,0,0,0,.19-.63s-.09,0-.28.31a2.37,2.37,0,0,0-.27.79l-.06.39s-.14,0-.35-.68A2.81,2.81,0,0,1,5.89.35C6,.06,6,0,6,0H5.78a1.6,1.6,0,0,0-.2.52,3.93,3.93,0,0,0,.09,1.66,6.25,6.25,0,0,0,.6,1.43s-.12,0-.25.24a1.54,1.54,0,0,1-.52.5,1.82,1.82,0,0,0-.5.53,3.72,3.72,0,0,1-.91.7,6.71,6.71,0,0,0-1,.7A.53.53,0,0,0,3,6.82c.07.19.14.28.2.31a.32.32,0,0,0,.15,0,.37.37,0,0,0,.22.28.69.69,0,0,0,.67.1,3.79,3.79,0,0,1,1.46,0c.4.09.56.1.6.34a6.28,6.28,0,0,1-.09,1.86c-.15.64.1,1.62.16,1.08S6.85,13,7,12.42s.82,1.4.81,1,1.38.6,1.15.31.54.16.84-.1.49.23.79.64a2.15,2.15,0,0,0,1.29.85l.85.15a14.79,14.79,0,0,1,.21,1.65A8.63,8.63,0,0,0,12.86,18a6.38,6.38,0,0,1,0,1.95h.86c0-.24,0-.48,0-.71a2.51,2.51,0,0,1,.22-1A15.85,15.85,0,0,1,14.33,20h.88a10.89,10.89,0,0,1,.06-1.47,2.68,2.68,0,0,0,0-1.16,10.44,10.44,0,0,1,0-1.92,13.12,13.12,0,0,0,3.16-.19,11.22,11.22,0,0,0,2.49-.92,2.25,2.25,0,0,0,.69.58,10.46,10.46,0,0,1,2.65,2.44A4.14,4.14,0,0,1,24.43,20v0h1.45A4.85,4.85,0,0,1,26,18.58Z" transform="translate(0 0.03)" fill="#ccc"/><rect width="30" height="20" fill="none"/></svg>