<svg xmlns="http://www.w3.org/2000/svg" viewBox="0 0 30 20"><path d="M18.58,12.67a1.52,1.52,0,0,1-1.63.27,1.57,1.57,0,0,1-.46-1.68,4.63,4.63,0,0,1,1-2.25.82.82,0,0,1,1.17.07,2.23,2.23,0,0,1,.4,1.85C19,11.82,18.9,12.39,18.58,12.67Z" transform="translate(0 0.02)" fill="#1e88e5" opacity="0.7"/><path d="M20.89,12.12c0,.41.18.71-1.22,1s-2,.24-2.35-.41a2.9,2.9,0,0,1,.05-2.44c.37-.77.56-1.22.84-1.18s1,1.54,1.56,1.89S20.85,11.78,20.89,12.12Z" transform="translate(0 0.02)" fill="#1e88e5" opacity="0.7"/><path d="M24.82,9.58a1.23,1.23,0,0,0-.78.09c-.21.1-.53,0-.62.07a9.2,9.2,0,0,1-.49,1.66,2,2,0,0,1-1.23,1.09,1.67,1.67,0,0,1-1.39-.26c-.51-.23-.47-.67-.74-.86a1.92,1.92,0,0,1-1-1.2c-.1-.68-.29-1.14.23-1.37a19.48,19.48,0,0,1,2.11-.34,2.18,2.18,0,0,1,1.92.11c.53.36.59.48,1.1.35s.95-.11,1.12.12S25.16,9.62,24.82,9.58Z" transform="translate(0 0.02)" fill="#1e88e5" opacity="0.7"/><path d="M14.31,14.39c-.52,0-.74,0-.89-.28s-.07-.38-.23-.67-.3-.45-.28-.54a.17.17,0,0,1,.24-.08c.07.07.22.59.28.6s.07-.1,0-.29,0-.33-.11-.36-.16-.06-.08-.1.19,0,.21-.06a.09.09,0,0,1,.13,0s.14,0,.2,0,0,.28.07.39.61.19.75.51a1.92,1.92,0,0,1,.18.79C14.79,14.38,14.51,14.4,14.31,14.39Z" transform="translate(0 0.02)" fill="#e53935" opacity="0.7"/><path d="M17.71,10.22A6,6,0,0,1,17,13c-.49.59-1.91.73-3,.62a1.76,1.76,0,0,1-1.74-1.38,2,2,0,0,1,.58-1.89A18.66,18.66,0,0,1,16.33,9C17.26,8.8,17.81,8.64,17.71,10.22Z" transform="translate(0 0.02)" fill="#ffb300" opacity="0.7"/><path d="M8.09,4.74c0,.27-.13.53-.72.41s-1-.29-1-.53.08-.49.62-.53S8,4.14,8.09,4.74Z" transform="translate(0 0.02)" fill="#1e88e5" opacity="0.7"/><rect width="30" height="20" fill="none"/></svg>