<!-- Copyright (c) 2022 - 2023 Jan Stehno -->
<svg xmlns="http://www.w3.org/2000/svg" viewBox="0 0 300 200"><title>sambar_organs</title><g id="sambar"><g id="organs"><path d="M185.83,126.92c-5.89,5.08-13.4,4.57-16.35,2.69s-6.57-7.83-4.57-16.79,6-19.29,10.17-22.48,8-2.69,11.69.69,4.76,9.63,4.07,18.53S189,124.16,185.83,126.92Z" fill="#1e88e5" opacity="0.7"/><path d="M208.88,121.47c.43,4.07,1.82,7-12.21,9.47s-20,2.36-23.43-4.09-3.32-16.66.44-24.36,5.58-12.28,8.39-11.84,10.46,15.35,15.66,18.92S208.52,118.05,208.88,121.47Z" fill="#1e88e5" opacity="0.7"/><path d="M248.21,96c-3.93-.52-5.64-.06-7.76.94s-5.39,0-6.2.69-1.88,11.77-4.95,16.6-5.58,9.26-12.34,10.89-8.89-.31-13.91-2.63-4.69-6.64-7.32-8.58-8.65-5.2-9.71-12-2.88-11.43,2.25-13.73,12.47-1.18,21.11-3.31,13.9-2.5,19.23,1.07,5.89,4.76,11,3.44,9.52-1.06,11.27,1.22S251.58,96.48,248.21,96Z" fill="#1e88e5" opacity="0.7"/><path d="M143.06,144.12c-5.16-.18-7.38-.29-8.89-2.81s-.7-3.77-2.24-6.69-3.07-4.46-2.86-5.37a1.67,1.67,0,0,1,2.46-.79c.65.66,2.17,5.91,2.81,6s.61-1,.2-2.92-.41-3.33-1.15-3.6-1.63-.59-.76-1,1.83,0,2.1-.59a.83.83,0,0,1,1.3-.4c.38.34,1.35-.34,2,.07s-.22,2.84.76,4,6,1.86,7.46,5a19.88,19.88,0,0,1,1.77,7.9C147.88,144,145.15,144.2,143.06,144.12Z" fill="#e53935" opacity="0.7"/><path d="M177.06,102.4c-.49,7.6-2.25,22.36-7.14,28.18s-19.16,7.23-29.59,6.2S123.8,129.64,122.86,123s.65-15.41,5.82-18.88,25.37-11.18,34.67-13.53S178.1,86.61,177.06,102.4Z" fill="#ffb300" opacity="0.7"/><path d="M80.91,47.63c.38,2.7-1.32,5.35-7.23,4.08S63.86,48.8,63.44,46.4s.79-4.83,6.15-5.21S80.06,41.66,80.91,47.63Z" fill="#1e88e5" opacity="0.7"/></g></g><g id="frame"><rect width="300" height="200" fill="none"/></g></svg>