<!-- Copyright (c) 2022 - 2023 Jan Stehno -->
<svg xmlns="http://www.w3.org/2000/svg" viewBox="0 0 300 200.01"><title>sambar_body</title><g id="sambar"><g id="body"><path d="M260.22,186.09c2.21-8.27,5.72-17.66,3.21-19.23a13.29,13.29,0,0,1-3.51-2.94s.25-3.26-1.63-4.7-7-2.5-9.39-6.32-3.38-10.4-.19-14.47,7.69-9,12.67-10.44,11.51-10.39,13.67-20.16-.09-25-8.64-30.53-21.14-5.54-33.26-9.11-10.9-2.16-18.88-1.32-8.84-1.22-23.77,1.69-22.08,6.55-33.29,5.17-9.27-5.07-24.58-5.54-17.85,1.31-25.93-6.11S89.58,46.7,89.58,46.7s1.21-3.72-.48-6.6-7.27-5.17-7.27-5.17a4.55,4.55,0,0,0,.47-1.53,8.65,8.65,0,0,0,0-1.73s11.12-4.88,14.91-8.76,4.41-8.24,7.7-11.59,6.27-5.42,8-8.3c.66-1.08,1.41-2.35,1.76-3h-1.11A12.85,12.85,0,0,1,112,1.92c-1.72,1.54-4.24,4.58-7,3.56-1.92-.72-2.66-2.94-2.92-5.49H99.54c0,.28,0,.36,0,.65,0,4.23.25,6.48-.79,11.52s-2,6.68-7.14,10.15a38.09,38.09,0,0,1-10.76,4.87A7.78,7.78,0,0,0,78.08,25c-2.17-1.22-3.54-.5-3.54-.5a34.76,34.76,0,0,0,2.22-3.13c1.38-2.13,7.17-7.27,10.46-10.8C89.61,8,91.78,3.86,93.49,0H88.43c-3.1,5.77-6,8.65-10.6,13.15a98.94,98.94,0,0,0-9.59,11.49,19.71,19.71,0,0,1,.41-6.42c.81-3.45,2.13-5.73,1.85-6.23s-.91-.16-2.76,3.07a21.54,21.54,0,0,0-2.69,7.86c-.35,2.06-.66,3.91-.66,3.91S63,27,60.88,20.06s-3.41-11.4-2-16.29C59.72.87,60,0,60,0H57.83a13.3,13.3,0,0,0-2,5.13,40.29,40.29,0,0,0,.82,16.66,62.59,62.59,0,0,0,6,14.25s-1.19.22-2.44,2.41a16,16,0,0,1-5.27,5,19.64,19.64,0,0,0-5,5.29c-1.28,2-4.91,4.23-9.05,6.95s-7.89,5.11-9.7,7a5.21,5.21,0,0,0-1.35,5.76c.69,1.88,1.31,2.79,1.94,3.07a3.35,3.35,0,0,0,1.47.19,3.87,3.87,0,0,0,2.23,2.78c2.06,1.1,3,2,6.67,1S52.9,75,56.84,76s5.51,1,5.95,3.41A64,64,0,0,1,62,97.91c-1.51,6.45.94,16.28,1.5,10.83s5,21.55,6.39,15.66,8.2,14.09,8,9.64,13.84,6,11.58,3.14,5.33,1.56,8.4-1.07,4.88,2.32,7.82,6.39a21.2,21.2,0,0,0,13,8.52l8.45,1.5s2.26,12.48,2.16,16.57-1.26,9.16-.61,11.46c.6,2.07,1.42,12.41.06,19.45h8.63c.14-2.36.28-4.79.41-7,.38-6.39,2.13-9.77,2.13-9.77A160.72,160.72,0,0,1,143.31,200h8.77c0-6.17.16-11.92.65-14.66.66-3.66.75-5.83-.23-11.6s.37-19.17.37-19.17,18.32,1.13,31.61-1.88a110.92,110.92,0,0,0,24.9-9.25s1.19,2.13,6.89,5.76,23.86,17.91,26.49,24.43,4.14,13.59,1.51,26.24l0,.13h14.48A45.52,45.52,0,0,1,260.22,186.09Z" transform="translate(0 0.01)" fill="#ccc"/></g></g><g id="frame"><rect y="0.01" width="300" height="200" fill="none"/></g></svg>