<!-- Copyright (c) 2022 Jan Stehno -->
<svg xmlns="http://www.w3.org/2000/svg" viewBox="0 0 300 200"><title>siberianmuskdeer_organs</title><g id="siberianmuskdeer"><g id="organs"><path d="M181.25,131c6-3.24,11.75-9.56,11.94-23s-1.75-22.94-6.38-26.06-11.62-3.75-15.06,10.19-7.12,30.62-1.75,36.31S179.1,132.15,181.25,131Z" transform="translate(0 0)" fill="#1e88e5" opacity="0.7"/><path d="M199.83,126.33c8.79-2,18.59-4.41,13.25-11.5s-13.41-8.58-16.83-16.08S189.15,80,183,80.24s-10.62,34.93-8.87,41.93S180.42,130.83,199.83,126.33Z" transform="translate(0 0)" fill="#1e88e5" opacity="0.7"/><path d="M189.5,81.58c.29,9.63,3.42,12.75,5.42,18.42s6.41,2.62,9.08,8.81,9.25,6.69,12.25,7.94,14.42-.75,15.83-5.83,9.59-10.67,11.67-12.5,1.92-6.67,4.08-8.17S257.5,89,260,87.42s13.67,1.41,10.58-4.25-10.91-5.09-14.5-3.5-9.66-2.59-16.5-5.67-15,1-24.41-.58S189.31,75.42,189.5,81.58Z" transform="translate(0 0)" fill="#1e88e5" opacity="0.7"/><path d="M137.68,136c-6-.61-8.59-.91-10.12-3.85s-.49-4.28-2-7.68-3.2-5.24-2.87-6.24,2.23-1.5,2.93-.7,2,6.79,2.76,7,.8-1.11.49-3.26-.19-3.77-1-4.13-1.86-.79-.8-1.18,2.12.16,2.5-.5a1,1,0,0,1,1.55-.35c.42.42,1.61-.27,2.28.24s-.5,3.16.53,4.51,6.86,2.56,8.27,6.24a21.47,21.47,0,0,1,1.37,9C143.32,136.27,140.11,136.24,137.68,136Z" transform="translate(0 0)" fill="#e53935" opacity="0.7"/><path d="M143.75,133.13c14.26.15,25.38,4.75,29.38-10.88s4.87-28.5,2.75-34.62-8.88-4.13-20,0-26,4.75-33,14.62S110.13,132.75,143.75,133.13Z" transform="translate(0 0)" fill="#ffb300" opacity="0.7"/><path d="M53.19,44.5c2.94,3.89,13.19,1.31,14.69-2.75S66.56,33,61,34.13,50.25,40.63,53.19,44.5Z" transform="translate(0 0)" fill="#1e88e5" opacity="0.7"/></g></g><g id="frame"><rect id="frame-2" width="300" height="200" fill="none"/></g></svg>