<!-- Copyright (c) 2022 Jan Stehno -->
<svg xmlns="http://www.w3.org/2000/svg" viewBox="0 0 300 200"><title>siberianmuskdeer_body</title><g id="siberianmuskdeer"><g id="body"><path d="M270.44,200H251.69s4.39-18.58,1-26.75-16.5-13.25-24.34-19.33-15.41-11.09-16.33-14.5-1.42-5.67-7.58-2.34-17.75,8.67-30.92,9.25a198.41,198.41,0,0,1-26.71-.91s.88,15.16,3.13,23.25a60.82,60.82,0,0,1,1.83,19.66A66.49,66.49,0,0,0,152.83,200h-10l-3.41-9.42L139,200h-9.67a35.32,35.32,0,0,0-1.08-14.42c-2.25-7.5-.58-6.58-.67-13.83s-.58-18.33-6-23.08-13.46-5.8-18.58-14.3-10.88-8.5-19.88-21.62-13-20.63-17.24-29.88S57.78,71,54,71.28s-5.56,2-10.06,2.19A15.13,15.13,0,0,0,36.28,76a5.36,5.36,0,0,0,.91,1.66c.69.87,3.5,2.34,1.69,2a7,7,0,0,1-3.75-2.25c-.57-.66-.94-1.13-.94-1.13s-2.53.35-3.85-.53a5.91,5.91,0,0,1-1.87-3,7.46,7.46,0,0,1-4-2.53c-1.78-2.12-3.87-4.69-.66-7.5s11.74-9.7,13.79-14.61S45.38,38,48.94,35.44s5.56-3.75,5.56-3.75a37.2,37.2,0,0,1-.69-11c.44-6.88,2.5-8.88,3.75-9s2.07,1.62,2.07,1.62.68-1.63,2-1.63,4.43,4.26,6.25,7.44,3.31,6.82,3.56,8.69a27.68,27.68,0,0,1,.19,3.88A38.48,38.48,0,0,1,83.5,44.5c4.83,8.5,10.83,21,17.5,25.67s8.17,3.33,14.83-.59S126.5,65,136.58,65.67s9.17,2,30-2.92,24.5-7.83,37.5-9.33,18.84-2.42,40.17.75,28.58,11.33,31.25,16.5,4.33,9.58,4.25,13.16a14,14,0,0,1-2.17,6.67s1.59,8.77-2.58,15.34-11.08,18.24-15.33,23.74l-4.25,5.5s1.08,4.17,7.16,9.59,10.34,7.08,9.59,11.83-2,33.17-2.09,37A39.13,39.13,0,0,0,270.44,200Z" transform="translate(0 0)" fill="#ccc"/></g></g><g id="frame"><rect id="frame-2" width="300" height="200" fill="none"/></g></svg>