<svg xmlns="http://www.w3.org/2000/svg" viewBox="0 0 30 20"><path d="M18.12,13.08a2.39,2.39,0,0,0,1.2-2.3c0-1.35-.18-2.3-.64-2.61s-1.16-.38-1.5,1-.72,3.06-.18,3.63S17.91,13.19,18.12,13.08Z" transform="translate(0 0.02)" fill="#1e88e5" opacity="0.7"/><path d="M20,12.61c.88-.2,1.86-.44,1.33-1.15S20,10.6,19.62,9.85,18.91,8,18.29,8s-1.06,3.49-.88,4.19S18,13.06,20,12.61Z" transform="translate(0 0.02)" fill="#1e88e5" opacity="0.7"/><path d="M19,8.13A4.47,4.47,0,0,0,19.49,10c.2.56.64.26.91.88s.92.67,1.22.79,1.45-.07,1.59-.58,1-1.07,1.17-1.25.19-.67.4-.82,1-.12,1.22-.28,1.37.14,1.06-.43a1.17,1.17,0,0,0-1.45-.35c-.36.16-1-.26-1.65-.56s-1.5.1-2.44-.06S18.93,7.52,19,8.13Z" transform="translate(0 0.02)" fill="#1e88e5" opacity="0.7"/><path d="M13.77,13.57c-.6-.06-.86-.09-1-.38s0-.43-.21-.77-.32-.52-.28-.62a.2.2,0,0,1,.29-.07c.07.08.2.68.28.69s.08-.11,0-.32,0-.38-.1-.42-.18-.08-.08-.11.22,0,.25-.05a.1.1,0,0,1,.16,0s.16,0,.23,0-.05.32.05.46.69.25.83.62a2.16,2.16,0,0,1,.13.9C14.33,13.6,14,13.6,13.77,13.57Z" transform="translate(0 0.02)" fill="#e53935" opacity="0.7"/><path d="M14.38,13.29c1.42,0,2.53.47,2.93-1.09a7.32,7.32,0,0,0,.28-3.46c-.21-.61-.89-.41-2,0s-2.6.47-3.3,1.46S11,13.25,14.38,13.29Z" transform="translate(0 0.02)" fill="#ffb300" opacity="0.7"/><path d="M5.32,4.43c.29.38,1.32.13,1.47-.28a.56.56,0,0,0-.69-.76C5.54,3.5,5,4,5.32,4.43Z" transform="translate(0 0.02)" fill="#1e88e5" opacity="0.7"/><rect width="30" height="20" fill="none"/></svg>