<svg xmlns="http://www.w3.org/2000/svg" viewBox="0 0 30 20"><path d="M27,20H25.17a6.22,6.22,0,0,0,.1-2.68c-.35-.82-1.65-1.32-2.44-1.93s-1.54-1.11-1.63-1.45-.14-.57-.76-.24a7.34,7.34,0,0,1-3.09.93,19.69,19.69,0,0,1-2.67-.09A15.34,15.34,0,0,0,15,16.84a5.88,5.88,0,0,1,.18,2A7.46,7.46,0,0,0,15.28,20h-1L13.94,19l0,.95h-1a3.49,3.49,0,0,0-.11-1.45c-.22-.75-.05-.65-.06-1.38a3.42,3.42,0,0,0-.6-2.31c-.54-.47-1.35-.58-1.86-1.43s-1.09-.85-2-2.16a17.28,17.28,0,0,1-1.72-3C6.16,7.34,5.78,7.08,5.4,7.1s-.55.2-1,.22a1.51,1.51,0,0,0-.77.26.43.43,0,0,0,.09.16c.07.09.35.24.17.2a.75.75,0,0,1-.38-.22l-.09-.11A.72.72,0,0,1,3,7.55a.53.53,0,0,1-.18-.29A.74.74,0,0,1,2.45,7c-.18-.21-.39-.47-.07-.75A5.68,5.68,0,0,0,3.76,4.79,3.79,3.79,0,0,1,4.89,3.52c.36-.26.56-.38.56-.38A3.81,3.81,0,0,1,5.38,2c0-.68.25-.88.38-.9s.2.17.2.17.07-.17.2-.17.45.43.63.75a2.89,2.89,0,0,1,.35.87,2.06,2.06,0,0,1,0,.38A3.89,3.89,0,0,1,8.35,4.43,8.55,8.55,0,0,0,10.1,7c.67.47.82.34,1.48-.06a3,3,0,0,1,2.08-.39,6.25,6.25,0,0,0,3-.29,34.08,34.08,0,0,1,3.75-.93,11.89,11.89,0,0,1,4,.07c2.13.32,2.85,1.14,3.12,1.65A3.09,3.09,0,0,1,28,8.36a1.42,1.42,0,0,1-.22.67,2.4,2.4,0,0,1-.26,1.53c-.42.66-1.11,1.82-1.53,2.37l-.43.55a2.25,2.25,0,0,0,.72,1c.61.54,1,.71,1,1.19s-.2,3.31-.21,3.7A4.16,4.16,0,0,0,27,20Z" transform="translate(0 0.02)" fill="#ccc"/><rect width="30" height="20" fill="none"/></svg>