<!-- Copyright (c) 2023 Jan Stehno -->
<svg xmlns="http://www.w3.org/2000/svg" viewBox="0 0 300 200">
    <title>sidestripedjackal_organs</title>
    <g id="sidestripedjackal">
        <g id="organs">
            <path
                d="M151.31,121.19c7.26-2.51,11.13-7.75,13.38-15.13s4.12-13.43,0-16-10.44,1.57-14.13,6.19-10.37,11.06-10.81,16.94S144.44,123.56,151.31,121.19Z"
                transform="translate(0 0)" fill="#1e88e5" opacity="0.7" />
            <path
                d="M168.44,119.06c6.28-1.51,11.06-3.81,8.87-7.87s-6.06-7.81-8.12-11.88-2.75-8-6.19-8.31-8.25,12.5-11.44,16.63S137.25,126.56,168.44,119.06Z"
                transform="translate(0 0)" fill="#1e88e5" opacity="0.7" />
            <path
                d="M171.08,108.21c1.2,3.79,6,3.83,7.55,6.75S189.08,118.54,190,117s2.71-2.25,2.42-4.21,2.29-4.33,3-5.91,2-2.25,2-3.88,6.11.15,8.61.43,9.62,3.51,7-1.11-10.13-3.3-12.38-4.23-4.47-5-8.26-7.44-7.86-.08-11.86-1.41-10.4-1.07-12.38,1.28-4.75,3.32-2.81,8.13S169.67,103.73,171.08,108.21Z"
                transform="translate(0 0)" fill="#1e88e5" opacity="0.7" />
            <path
                d="M118,122.37c-4.2-1.24-6-1.82-6.77-4.71s.14-4-.57-7.33-1.68-5.22-1.34-6.11,1.76-1.13,2.17-.31.67,6.52,1.17,6.75.7-.94.72-3,.29-3.51-.26-3.94-1.23-.94-.44-1.18,1.5.39,1.84-.17.88-.58,1.14-.15,1.18-.07,1.6.47-.72,2.88-.13,4.24,4.59,3.15,5.18,6.72a25.79,25.79,0,0,1,0,8.48C122,123.27,119.67,122.88,118,122.37Z"
                transform="translate(0 0)" fill="#e53935" opacity="0.7" />
            <path
                d="M98.75,96.92c-.42,8.14,6.75,17,17.83,22s22.09,7.16,29.42-4.09,10.92-21.5,7.92-24-7.34.5-20.59-1-24.5-3-28.83-1S98.9,94,98.75,96.92Z"
                transform="translate(0 0)" fill="#ffb300" opacity="0.7" />
            <path
                d="M57.75,40.21C59,44.42,64,43.92,66,45s9.37,1.88,7.08-3.87-7.58-5.88-10.54-5.46S56.88,37.12,57.75,40.21Z"
                transform="translate(0 0)" fill="#1e88e5" opacity="0.7" />
        </g>
    </g>
    <g id="frame">
        <rect id="frame-2" width="300" height="200" fill="none" />
    </g>
</svg>