<svg xmlns="http://www.w3.org/2000/svg" viewBox="0 0 30 20"><path d="M2.69,6c.17.31.35.4.8.45a13.84,13.84,0,0,1,1.6.09c.81.13,1,.72,1,1.66A6.72,6.72,0,0,0,7,10.58c.38.75,1.78,1.41,2.33,1.9A6.64,6.64,0,0,1,10.21,15a10.35,10.35,0,0,1,0,3.63c-.19.42-.56.32-.77.52s-.24.69.33.69.8-.32.8-.13.14.24.81.24.87-.05,1-.26a2.1,2.1,0,0,0,0-1.18c-.07-.53.3-.48.13-.94a12,12,0,0,1-.19-1.91c-.11-.88-.26-2.62-.26-2.62a1.85,1.85,0,0,0,.38.42,2,2,0,0,0,1.55.08c.75-.19,1,.24,1.82,0s1.78-.7,1.78-.7a2.46,2.46,0,0,0,.41.73,5.84,5.84,0,0,1,.66,1.28,15.28,15.28,0,0,1,1.05,1.93c.17.63-.32,1.19-.58,1.69s-.39.67-.78.77a.36.36,0,0,0-.16.11c-.32.41-.08.63.64.63.92,0,1-.69,1.17-1.24a6.47,6.47,0,0,1,.73-1.36,4.08,4.08,0,0,1,0,1.36c-.16.21-.48,0-.57.28s-.14.64.64.64.9-.46.89-.81a6.9,6.9,0,0,1,0-2,.77.77,0,0,0-.22-1,4.15,4.15,0,0,1-.65-1.9,7,7,0,0,1,.46-1.34s.3,1.7.53,2.75a3.91,3.91,0,0,0,1.94,2.55,3.87,3.87,0,0,0,3.42.34c.95-.38,1.15-1.44.42-1.66a5.92,5.92,0,0,1-2.07-.71c-.66-.49-.73-1.09-.84-2.21a4.75,4.75,0,0,0-1.36-2.72,9.21,9.21,0,0,0-2.47-2.36,8.79,8.79,0,0,0-3.69-1.07c-.88,0-1.14.24-2.18.28a16.4,16.4,0,0,1-4.5-.93c-.37-.25-.76-1.29-1.64-2.43a3.34,3.34,0,0,0-1.4-1.25C7.3,3.06,6.87,2,6.58,1.58s-.45-.29-.41-.14a1.79,1.79,0,0,1,0,.81A3.31,3.31,0,0,1,6,3s0,0-.49.26A3.11,3.11,0,0,0,4.47,4.35,4.62,4.62,0,0,1,3,5.42C2.59,5.62,2.51,5.65,2.69,6Zm8.44,13.31a9.13,9.13,0,0,1,.06-1c.06-.45.22-.46.19-.8a4.8,4.8,0,0,1,0-.8s0,.33.1.58a8.52,8.52,0,0,1,0,1.75A.44.44,0,0,1,11.13,19.26Z" transform="translate(0 0.02)" fill="#ccc"/><rect width="30" height="20" fill="none"/></svg>