<!-- Copyright (c) 2022 - 2023 Jan Stehno -->
<svg xmlns="http://www.w3.org/2000/svg" viewBox="0 0 300 200"><title>sidestripedjackal_body</title><g id="sidestripedjackal"><g id="body"><path d="M26.86,59.78c1.73,3.08,3.52,4,8,4.47s8-.44,16.06.87,9.44,7.19,10.44,16.63,4.5,16.92,8.29,24.33S87.47,120.16,93,125c3.15,2.75,6.72,14.75,9,25.58s1.88,32,0,36.25-5.54,3.21-7.66,5.25-2.38,6.84,3.29,6.84,8-3.13,8-1.3,1.39,2.38,8.14,2.38,8.69-.44,10.19-2.56.94-6.57.25-11.82,3-4.81,1.31-9.37-.81-10.38-1.87-19.13-2.56-26.18-2.56-26.18a16.89,16.89,0,0,0,3.81,4.18c2.37,1.82,8.06,2.75,15.5.82s10.19,2.43,18.12-.25,17.88-7,17.88-7a24,24,0,0,0,4.06,7.25c2.63,2.94,3.56,6.62,6.56,12.81s8.75,13.06,10.5,19.31-3.18,11.86-5.73,16.86c-2.36,4.65-3.9,6.71-7.8,7.75a3,3,0,0,0-1.63,1.09c-3.16,4.11-.81,6.24,6.43,6.24,9.21,0,10.11-6.87,11.67-12.31S207.75,174,207.75,174s1.58,11.58,0,13.67-4.75-.09-5.67,2.75-1.41,6.41,6.42,6.41,9-4.58,8.92-8.08-2.25-16.08-.42-19.83,1.58-6.67-2.17-10.25-6.58-16.09-6.58-19,4.67-13.42,4.67-13.42,3,17,5.25,27.5,8.41,18.5,19.41,25.5,24.84,7.25,34.25,3.42S283.33,168.25,276,166s-14.17-2.17-20.75-7.08S248,148,246.92,136.83s-6.84-19.5-13.59-27.16S220.58,92.83,208.58,86s-28.16-10.58-36.91-10.67-11.42,2.42-21.75,2.84-41.36-6.73-45-9.3S97.31,55.94,88.5,44.56,76,33.21,74.5,32s-5.79-11.46-8.67-16-4.58-2.88-4.12-1.38.54,3.05,0,8.09A33.27,33.27,0,0,1,60.21,30s-.33-.13-4.92,2.62A31.72,31.72,0,0,0,44.71,43.79c-2.29,4-11.36,8.61-15.11,10.65S25.13,56.7,26.86,59.78Zm84.45,133a94.23,94.23,0,0,1,.63-10c.59-4.5,2.19-4.66,1.81-8.06a48.11,48.11,0,0,1,.06-8s.38,3.25.94,5.81,1.09,14.78.31,17.44S111.31,192.81,111.31,192.81Z" transform="translate(0 0)" fill="#ccc"/></g></g><g id="frame"><rect id="frame-2" width="300" height="200" fill="none"/></g></svg>