<svg xmlns="http://www.w3.org/2000/svg" viewBox="0 0 30 20"><path d="M15.13,12.09a2.07,2.07,0,0,0,1.34-1.51c.22-.74.41-1.34,0-1.6s-1,.16-1.41.62S14,10.71,14,11.29A.8.8,0,0,0,15.13,12.09Z" transform="translate(0 0.02)" fill="#1e88e5" opacity="0.7"/><path d="M16.84,11.88c.63-.15,1.11-.38.89-.79s-.61-.78-.81-1.18-.28-.8-.62-.83-.82,1.25-1.14,1.66S13.73,12.63,16.84,11.88Z" transform="translate(0 0.02)" fill="#1e88e5" opacity="0.7"/><path d="M17.11,10.8c.12.38.6.38.75.67a1.13,1.13,0,0,0,1.14.21c.08-.15.27-.23.24-.42s.23-.43.29-.59.2-.23.2-.39.61,0,.86,0,1,.35.7-.11-1-.33-1.23-.42-.45-.5-.83-.75S18.44,9,18,8.9A1.4,1.4,0,0,0,16.81,9c-.2.24-.48.33-.29.81S17,10.35,17.11,10.8Z" transform="translate(0 0.02)" fill="#1e88e5" opacity="0.7"/><path d="M11.8,12.21c-.42-.12-.6-.18-.68-.47s0-.4-.06-.73-.17-.52-.13-.61a.12.12,0,0,1,.22,0c0,.08.06.65.11.67s.07-.09.08-.3,0-.35,0-.39-.12-.09,0-.12.14,0,.18,0,.09-.06.11,0,.12,0,.16.05-.07.29,0,.42.46.32.52.67a2.49,2.49,0,0,1,0,.85C12.19,12.3,12,12.26,11.8,12.21Z" transform="translate(0 0.02)" fill="#e53935" opacity="0.7"/><path d="M9.88,9.67a2.61,2.61,0,0,0,1.78,2.2c1.11.5,2.21.71,2.94-.41s1.09-2.15.79-2.4-.73,0-2.06-.1a8.27,8.27,0,0,0-2.88-.1A.88.88,0,0,0,9.88,9.67Z" transform="translate(0 0.02)" fill="#ffb300" opacity="0.7"/><path d="M5.77,4c.12.42.63.37.83.48s.93.18.7-.39a.9.9,0,0,0-1-.55C6,3.58,5.69,3.69,5.77,4Z" transform="translate(0 0.02)" fill="#1e88e5" opacity="0.7"/><rect width="30" height="20" fill="none"/></svg>