<svg xmlns="http://www.w3.org/2000/svg" viewBox="0 0 30 20"><path d="M12,20h1.44s.08-1.22.17-2.14a21.86,21.86,0,0,1,.2-2.59c.15-.4.57-.25,1.8-.07a10,10,0,0,0,3.32.27c1.49-.17,1.64-.47,2.21-.36a1.61,1.61,0,0,0,1-.09,1.7,1.7,0,0,0,.83,1.08c.76.5.45.87,1.21,1.41s1.08.48,1.07,1.14A11,11,0,0,0,25.28,20H27a7.68,7.68,0,0,1,.05-1.42c.1-.58,0-.72-.4-1.35a4.67,4.67,0,0,1-.6-2.48,5,5,0,0,1,.61-1.66s0,.74.12.57.28.45.41.22.43.16.47-.15.59-.06.32-.38-.23-1.26-.08-.95-.1-1.4,0-1.2-.05-.75-.34-1.38a6.6,6.6,0,0,0-2.14-2.68A6.28,6.28,0,0,0,21.4,6c-1.75.13-3.41.75-5,.8s-2.74-.4-4.12-.35-2.2.34-2.86-.23A6,6,0,0,1,8.13,4a2.89,2.89,0,0,0-.42-.84s0-.55,0-.88a.88.88,0,0,0-.38-.75c-.2-.1-.38.06-.56.18A5,5,0,0,0,6.34,2s-.07-.18.15-.37A2.63,2.63,0,0,0,7.08,1c.19-.32.49-1,.49-1H6.84a2.29,2.29,0,0,1-.29.65,3.19,3.19,0,0,1-.62.58A5.51,5.51,0,0,0,6.22.42c0-.28.09-.44.09-.44H5.57a1.24,1.24,0,0,1-.05.39A.92.92,0,0,1,5.33.7L5.1,0H4.79a2.85,2.85,0,0,1,0,.33,2.49,2.49,0,0,0,0,.29L4.48.22A.89.89,0,0,1,4.31,0H3.76a4.82,4.82,0,0,0,.68,1c.44.5.77.75.79,1a.75.75,0,0,1-.18.67,2.42,2.42,0,0,1-.69.64c-.43.29-.45.37-.55.56s-.23.26-.62.39-.5.47-1.11.67a.77.77,0,0,0-.6.9.64.64,0,0,0,.36.39.62.62,0,0,0,.64.53c.59,0,.9-.13,1.4.19s1.24.33,1,.82S4.49,11,4.8,10.35s.59,2.58.71,1.86,1.26,1.44,1.08,1,1.51,1,1.32.64,1.29.56,1.8.82,1.6.31,1.91,1.64a3.92,3.92,0,0,1,.22,2.05A5.64,5.64,0,0,0,12,20Z" transform="translate(0 0.02)" fill="#ccc"/><rect width="30" height="20" fill="none"/></svg>