<!-- Copyright (c) 2022 Jan Stehno -->
<svg xmlns="http://www.w3.org/2000/svg" viewBox="0 0 300 200"><title>sikadeer_organs</title><g id="sikadeer"><g id="organs"><path d="M185.63,127.5c7.79-5.3,8-21.62,10.62-29.87S195.63,78.5,189,77.88s-14.87,5.25-19.62,20.75S160.63,144.5,185.63,127.5Z" transform="translate(0 0)" fill="#1e88e5" opacity="0.7"/><path d="M193.63,136.13c10.5.57,21.87-2.75,21.37-10s-9.87-15.88-12.75-24.75-3.75-21.88-11.62-21-16.47,18.27-15.13,28.81S166,134.63,193.63,136.13Z" transform="translate(0 0)" fill="#1e88e5" opacity="0.7"/><path d="M207.19,117c1.52,7.67,4.12,9.06,8.69,10.38s3.68,4.56,11.43,4.68,7.25-3.93,9.5-6.93,4.63-8.32,8.32-12,6.12-9.57,8-8.63,6.25-2,9.37-.1,6.13-3.4,2.69-7-8.06-.44-10.63-3.31-5.87-10.5-13.43-13.38-13.75-2.62-22.88-3.81-22.78-.75-21.94,7.06,3.44,10.38,4,17.19S205.88,110.38,207.19,117Z" transform="translate(0 0)" fill="#1e88e5" opacity="0.7"/><path d="M136.28,127.61c-6.1-1.26-8.72-1.84-10-5.17s-.08-4.68-1.33-8.5-2.77-6-2.33-7,2.43-1.39,3.07-.46,1.42,7.55,2.16,7.79.93-1.12.82-3.48.17-4.09-.65-4.57-1.83-1-.71-1.35,2.17.39,2.62-.29a1,1,0,0,1,1.62-.22c.39.49,1.68-.13,2.31.48s-.81,3.37.12,4.93,6.79,3.45,7.88,7.57a24.54,24.54,0,0,1,.53,9.87C142,128.47,138.75,128.12,136.28,127.61Z" transform="translate(0 0)" fill="#e53935" opacity="0.7"/><path d="M130.5,138.5c19.64-.1,38.38,5.5,45.38-15.75s8.62-36.5,2.25-41-22.13-2-34.75,1S119,94.13,114.25,106.88,106.5,138.63,130.5,138.5Z" transform="translate(0 0)" fill="#ffb300" opacity="0.7"/><path d="M54.94,38.69c.59,3.83,6.94,3.31,9.94,5.44s11.31,2.31,10.18-3.63-6-7.81-10.5-8.44S54,32.63,54.94,38.69Z" transform="translate(0 0)" fill="#1e88e5" opacity="0.7"/></g></g><g id="frame"><rect id="frame-2" width="300" height="200" fill="none"/></g></svg>