<svg xmlns="http://www.w3.org/2000/svg" viewBox="0 0 30 20"><path d="M18.56,12.73c.78-.53.8-2.17,1.06-3s-.06-1.91-.72-2-1.49.53-2,2.08S16.06,14.43,18.56,12.73Z" transform="translate(0 0.02)" fill="#1e88e5" opacity="0.7"/><path d="M19.36,13.59c1.05.06,2.19-.28,2.14-1s-1-1.59-1.27-2.48S19.85,7.93,19.06,8s-1.64,1.83-1.51,2.88S16.6,13.44,19.36,13.59Z" transform="translate(0 0.02)" fill="#1e88e5" opacity="0.7"/><path d="M20.72,11.68c.15.76.41.9.87,1s.37.46,1.14.47.73-.39.95-.69a9.39,9.39,0,0,1,.83-1.2c.37-.37.61-1,.8-.86s.63-.2.94,0,.61-.34.27-.7-.81,0-1.06-.33-.59-1.05-1.35-1.34a9.2,9.2,0,0,0-2.29-.38c-.91-.12-2.27-.08-2.19.71s.35,1,.4,1.71S20.59,11,20.72,11.68Z" transform="translate(0 0.02)" fill="#1e88e5" opacity="0.7"/><path d="M13.63,12.74c-.61-.13-.87-.19-1-.52s0-.47-.14-.85-.27-.6-.23-.7a.2.2,0,0,1,.31-.05c.06.09.14.75.21.78s.1-.11.08-.35,0-.41-.06-.46-.18-.1-.07-.13.22,0,.26,0,.12-.07.16,0,.17,0,.23.05-.08.33,0,.49.67.34.78.76a2.52,2.52,0,0,1,.06,1C14.2,12.82,13.88,12.79,13.63,12.74Z" transform="translate(0 0.02)" fill="#e53935" opacity="0.7"/><path d="M13.05,13.83c2,0,3.84.55,4.54-1.58s.86-3.65.22-4.1-2.21-.2-3.47.1a4,4,0,0,0-2.91,2.41C11,11.94,10.65,13.84,13.05,13.83Z" transform="translate(0 0.02)" fill="#ffb300" opacity="0.7"/><path d="M5.49,3.84c.06.39.7.34,1,.55s1.13.23,1-.36a1.09,1.09,0,0,0-1-.85C6,3.12,5.4,3.24,5.49,3.84Z" transform="translate(0 0.02)" fill="#1e88e5" opacity="0.7"/><rect width="30" height="20" fill="none"/></svg>