<!-- Copyright (c) 2022 Jan Stehno -->
<svg xmlns="http://www.w3.org/2000/svg" viewBox="0 0 300 200"><title>sikadeer_body</title><g id="sikadeer"><g id="body"><path d="M119.75,200h14.42s.83-12.12,1.71-21.37.5-21.88,2-25.88,5.75-2.5,18-.75,18.37,4.5,33.25,2.75,16.37-4.75,22.12-3.62a15.67,15.67,0,0,0,9.63-.92s.7,5.79,8.29,10.79,4.5,8.79,12.16,14.11,10.75,4.81,10.67,11.39a109.51,109.51,0,0,0,.83,13.5h17.34a76.49,76.49,0,0,1,.5-14.17c1-5.83.41-7.16-4-13.5s-6.34-18.16-6-24.75,6.08-16.66,6.08-16.66.42,7.41,1.25,5.75,2.83,4.5,4.08,2.16,4.34,1.59,4.67-1.5,5.92-.58,3.25-3.83-2.33-12.58-.83-9.5-.92-13.92.41-12-.5-7.5-3.33-13.75-10.58-20-21.5-26.83S231.5,59.13,214,60.5s-34.12,7.5-49.62,8S137,64.5,123.17,65s-22,3.42-28.59-2.25-12-18.58-13.25-23a29.72,29.72,0,0,0-4.25-8.42s.17-5.5,0-8.83-1.71-6.58-3.75-7.5-3.87.67-5.58,1.88a53.53,53.53,0,0,0-4.37,3.7s-.71-1.79,1.5-3.75a26.37,26.37,0,0,0,5.91-6.95c1.92-3.25,5-9.88,5-9.88H68.38a21.63,21.63,0,0,1-2.92,6.54,31.8,31.8,0,0,1-6.17,5.84,56.85,56.85,0,0,0,2.88-8c.58-2.79,1-4.42,1-4.42H55.67a12.15,12.15,0,0,1-.42,4,10.19,10.19,0,0,1-2,3.33L51,0H47.92s.25,2.08.33,3.33a23.93,23.93,0,0,0,.46,3s-2.54-2.42-3.88-3.83A8.06,8.06,0,0,1,43.13,0H37.58a50.29,50.29,0,0,0,6.8,9.88c4.37,4.95,7.74,7.5,7.95,10s.23,4.25-1.83,6.68a24.75,24.75,0,0,1-6.87,6.38c-4.32,2.94-4.5,3.75-5.57,5.62s-2.25,2.63-6.12,3.88-5.06,4.75-11.13,6.75-6.5,6.44-6,9S18.44,62,18.44,62a6.2,6.2,0,0,0,6.37,5.38c5.88.18,9-1.3,14,1.87s12.42,3.33,10.25,8.17-4.2,32.33-1.08,26.33,5.88,25.75,7.13,18.63,12.62,14.37,10.75,9.75S81,142.25,79.13,138.5s12.87,5.63,18,8.25,16,3.13,19.12,16.38,3.13,14.62,2.13,20.5S119.75,200,119.75,200Z" fill="#ccc"/></g></g><g id="frame"><rect id="frame-2" width="300" height="200" fill="none"/></g></svg>