<svg xmlns="http://www.w3.org/2000/svg" viewBox="0 0 30 20"><polygon points="10.94 13.82 10.94 14.26 11.05 14.47 11.33 14.71 11.59 14.78 11.74 14.68 11.96 14.38 12.19 13.84 12.38 13.09 12.53 12.14 12.58 11.52 12.52 11.25 12.37 11.14 12.21 11.13 11.98 11.15 11.78 11.28 11.67 11.56 11.61 11.9 11.52 12.2 11.37 12.43 11.1 12.83 10.99 13.19 10.94 13.82" fill="#1e88e5" opacity="0.7"/><polygon points="11.32 13.56 11.3 14.03 11.33 14.36 11.47 14.67 11.74 14.92 11.99 15 12.44 14.96 13.26 14.72 13.83 14.38 14.19 14.06 14.33 13.65 14.34 13.28 14.1 12.82 13.66 12.1 12.98 11.37 12.75 11.29 12.52 11.29 12.3 11.39 12.15 11.53 11.99 11.74 11.91 12 11.85 12.35 11.77 12.62 11.54 13.01 11.39 13.31 11.32 13.56" fill="#1e88e5" opacity="0.7"/><polygon points="12.76 11.84 13.03 12.33 13.32 12.76 13.54 13.16 13.79 13.37 13.97 13.46 14.12 13.71 14.16 13.93 14.33 14.07 14.49 14.1 14.59 14.1 14.68 14.17 14.8 14.22 15.03 14.19 15.23 14.12 15.47 14.12 15.71 14.06 15.84 14 15.96 13.95 16.15 13.93 16.35 13.91 16.54 13.73 16.8 13.33 17.01 13.02 17.23 12.66 17.29 12.47 17.3 12.28 17.39 12.2 17.66 12.14 17.86 12.16 18.04 12.22 18.2 12.27 18.44 12.29 18.56 12.25 18.6 12.18 18.61 12.08 18.61 11.96 18.54 11.86 18.47 11.79 18.32 11.72 18.08 11.66 17.85 11.66 17.57 11.7 17.37 11.69 17.26 11.64 17.07 11.47 16.83 11.29 16.26 10.97 15.82 10.89 15.26 10.84 14.88 10.86 13.97 10.98 13.3 11.08 13.07 11.16 12.9 11.29 12.8 11.42 12.76 11.55 12.76 11.71 12.76 11.84" fill="#1e88e5" opacity="0.7"/><polygon points="3.16 9.93 3.12 10.07 3.13 10.24 3.18 10.34 3.34 10.41 3.53 10.43 3.71 10.41 3.88 10.35 3.96 10.29 4.12 10.24 4.32 10.21 4.4 10.16 4.45 10.05 4.45 9.91 4.42 9.78 4.25 9.58 4.05 9.48 3.89 9.48 3.6 9.52 3.39 9.66 3.16 9.93" fill="#1e88e5" opacity="0.7"/><path d="M8.77,14.11c-.45-.15-.64-.22-.71-.42s0-.26,0-.49-.15-.36-.1-.41a.18.18,0,0,1,.23,0c0,.06,0,.43.09.45s.08,0,.1-.18.05-.22,0-.25-.13-.09,0-.09.16,0,.2,0a.09.09,0,0,1,.13,0s.13,0,.17.06-.1.17,0,.27.48.28.52.52a.94.94,0,0,1,0,.55C9.2,14.24,9,14.18,8.77,14.11Z" transform="translate(0 0.02)" fill="#e53935" opacity="0.7"/><polygon points="6.78 12.38 6.72 12.63 6.72 12.86 6.79 13.06 7.11 13.47 7.65 13.84 8.67 14.44 9.71 14.83 10.64 14.91 11.16 14.83 11.63 14.64 11.83 14.32 12.11 13.57 12.34 12.19 12.36 11.54 12.25 11.32 12.12 11.22 11.72 11.19 11.18 11.22 10.6 11.15 10.09 11.07 9.58 11.07 9.13 11.07 8.47 11.21 7.68 11.54 7.1 11.94 6.78 12.38" fill="#ffb300" opacity="0.7"/><rect width="30" height="20" fill="none"/></svg>