<svg xmlns="http://www.w3.org/2000/svg" viewBox="0 0 30 20.02"><polygon points="2.32 12.33 2.31 12.22 2.26 12.15 2.16 12.11 2.03 12.1 1.92 12.03 1.79 11.88 1.77 11.82 1.67 11.74 1.61 11.67 1.6 11.53 1.67 11.35 1.88 11.03 2.12 10.67 2.22 10.48 2.25 10.26 2.32 10.04 2.46 9.87 2.69 9.67 2.85 9.54 3 9.39 3.07 9.32 3.16 9.27 3.19 9.22 3.19 9.11 3.19 8.98 3.24 8.92 3.29 8.88 3.37 8.88 3.44 8.93 3.5 8.97 3.56 8.99 3.62 9.01 3.69 8.77 3.79 8.66 3.93 8.63 4.06 8.65 4.18 8.7 4.29 8.78 4.38 8.89 4.44 8.94 4.61 8.97 4.79 9.03 5.25 9.26 5.77 9.48 6.16 9.68 6.33 9.77 6.59 9.79 6.9 9.74 7.37 9.66 7.97 9.68 8.48 9.84 9.03 10.01 9.79 10.03 10.41 9.99 11.31 10.03 12.22 10.08 13.07 10.19 13.52 10.19 14.14 10.15 14.87 10.08 15.32 10 15.75 9.91 16.35 9.9 17.03 9.96 17.81 10.11 18.42 10.32 19.2 10.64 19.77 11.02 20.5 11.84 21.02 12.52 21.68 13.65 22.14 14.43 22.65 15.01 23.19 15.56 23.87 16.11 24.51 16.52 25.32 16.93 26.03 17.09 26.53 17.13 26.8 17.05 26.94 16.91 27.16 16.57 27.29 15.99 27.29 15.46 27.29 15.02 27.39 14.6 27.55 14.41 27.81 14.32 28.12 14.36 28.44 14.51 28.7 14.88 28.86 15.54 28.92 16.41 28.71 17.08 28.28 17.79 27.72 18.31 27.12 18.54 26.22 18.67 25.41 18.61 24.48 18.36 23.48 17.91 22.63 17.21 21.94 16.67 21.19 15.96 20.7 15.44 20.16 14.75 19.8 14.06 19.42 13.36 19.18 13.02 19.09 13.39 18.99 14.06 18.84 14.42 18.51 15.03 18.42 15.25 18.42 15.46 18.47 15.61 18.64 15.87 19.07 16.29 19.39 16.64 19.55 16.81 19.69 16.86 19.76 16.98 19.84 17.23 19.84 17.4 19.77 17.52 19.66 18.07 19.44 18.67 19.36 19.25 19.27 19.53 19.15 19.7 19.05 19.79 18.92 19.83 18.82 19.84 18.75 19.82 18.66 19.95 18.56 20.01 18.45 20.02 18.16 20.02 18.05 19.97 17.98 19.95 17.88 19.99 17.76 20 17.62 19.94 17.5 19.84 17.43 19.78 17.35 19.75 17.32 19.68 17.33 19.51 17.34 19.45 17.28 19.41 17.04 19.48 16.83 19.45 16.64 19.36 16.43 19.38 16.29 19.42 16.24 19.47 16.17 19.47 16.09 19.38 16.03 19.37 15.99 19.41 15.92 19.38 15.9 19.3 15.8 19.28 15.73 19.2 15.68 19.08 15.66 18.96 15.69 18.89 15.64 18.84 15.75 18.7 15.85 18.62 15.96 18.5 16.14 18.43 16.31 18.39 16.56 18.38 16.69 18.36 16.84 18.25 17.08 17.94 17.14 17.71 17.17 17.52 17.11 17.36 16.99 17.24 16.69 17.09 16.35 16.88 16 16.71 15.77 16.53 15.44 16.39 15.27 16.19 15.13 15.98 15.07 15.88 14.45 15.89 14.12 15.92 13.72 15.99 13.45 16.06 12.89 16.11 12.47 16.14 12.19 16.17 11.54 16.18 11.07 16.08 10.83 16.02 10.36 15.98 10.25 15.98 10.16 16.43 10.12 16.79 10.14 17.18 10.17 17.41 10.22 17.54 10.22 17.6 10.15 17.68 10.07 17.79 10 18.04 9.93 18.37 9.92 18.78 9.87 18.96 9.75 19.15 9.58 19.3 9.45 19.38 9.3 19.38 9.1 19.32 8.96 19.27 8.86 19.23 8.79 19.22 8.71 19.26 8.64 19.28 8.54 19.35 8.44 19.37 8.37 19.37 8.3 19.57 8.18 19.75 8.02 19.91 7.83 19.95 7.59 19.95 7.36 19.9 7.29 19.88 7.17 19.96 7.04 20.01 6.94 20.02 6.63 20.02 6.5 19.98 6.43 19.93 6.27 19.95 6.17 19.92 6.08 19.79 6.04 19.66 6.03 19.57 6 19.5 6.14 19.32 6.4 19.07 6.63 18.95 7 18.87 7.19 18.78 7.23 18.7 7.28 18.51 7.27 18.32 7.23 18.09 7.18 17.61 7.12 17.18 7.01 16.63 6.92 16.07 6.8 15.67 6.64 15.5 6.33 15.32 6.06 14.89 5.85 14.65 5.74 14.5 5.71 14.18 5.59 13.95 5.35 13.82 5.14 13.69 5.01 13.44 4.85 13.15 4.75 13.03 4.55 12.94 4.37 12.78 4.32 12.62 4.2 12.44 4.01 12.25 3.87 12.18 3.64 12.18 3.39 12.29 3.27 12.39 3.13 12.57 2.94 12.67 2.74 12.73 2.54 12.7 2.4 12.62 2.34 12.5 2.32 12.33" fill="#ccc"/><rect width="30" height="20" fill="none"/></svg>