<!-- Copyright (c) 2022 - 2023 Jan Stehno -->
<svg xmlns="http://www.w3.org/2000/svg" viewBox="0 0 300 200"><title>southeasternspanishibex_body</title><g id="ibex"><g id="body"><path d="M113.17,200h25a168.45,168.45,0,0,1-1.9-25.25c.19-12.31,2.25-17.69,2.69-20.75a21.17,21.17,0,0,0,0-5.75,30.73,30.73,0,0,1,11.38-2.5c6,0,11,2.5,26.87,2.17s20.88-3.46,28-1.55,8.21,1.59,12-1.12a17.9,17.9,0,0,1,7.29-3.17s1.4,4.92,10.34,7.92,18.45,3.17,23.45,6,12.5,4.75,12.5,6.83-9,23.17-12.25,25.42S247.75,200,247.75,200h19.08s3-9.83,8.34-15.67,10.5-18,12.83-21.33.33-9.33-5.67-14.17-19.5-14.83-19.5-20.16,11.84-10.5,14.84-16.67a78.44,78.44,0,0,0,4-9.33s2.33,8.83-.84,16.16,7.34,1.67,10.34-6S285.17,87.67,272,73s-33.67-20.67-43.17-22.33S170.5,61,151.83,61.5s-21.5-5.33-36.33-4.83-12,7.5-20.83,7.5-23-11.34-28.5-17.34c-5.92-6.45-9.73-8.33-21.36-6.77S30.92,46.17,30,51.17s-3.17,6.66-7.08,10-5.75,11.08-8.59,13.16-4.06,3.63-4,5.82.19,4.77,1.44,6.18S14,87.52,14,87.52s-.06,3.35,4.78,3.86S27.09,88,31.09,89s5.44-.09,6.91-1.5,7.81-3.41,8.81-2.41.61,11.86,7.82,20.52,16.62,16.17,29.43,23.3,12.31,9.87,19.5,12.43a79.41,79.41,0,0,0,10.88,3.25s2.06,6.44,3,20.11S113.17,200,113.17,200Z" transform="translate(0 0)" fill="#ccc"/></g><g id="horn"><path id="southeasterspanish" d="M33.52,45.85c1,2.42,4.92,2.27,8.95,1s4.91-5,7.83-5.61S53.87,40,53,34.91s-1.58-10,3.43-11.91,12.38-1,16.5-2S83.27,18.13,76,16.83s-9.78-.56-14.47-2.6-10.71-.32-13.35,1.63A20.7,20.7,0,0,0,43.58,21s-1.9-6.91,0-10.52,4.87-2.46,10-2.64,7.37-1.39,10-3.39S66.44,2,58.74,2.37,47.38,0,42.84,0,30.72,5.94,29.46,11.29a36,36,0,0,0,.63,18.5C32.11,37,32.22,42.79,33.52,45.85Z" transform="translate(0 0)" fill="#ccc"/></g></g><g id="frame"><rect id="frame-2" width="300" height="200" fill="none"/></g></svg>