<svg xmlns="http://www.w3.org/2000/svg" viewBox="0 0 30 20"><path d="M18.28,13.28c.69-.1.86-.55.92-1.65a10.94,10.94,0,0,0,.09-3.13C19,7.86,18,7.59,17.67,8.19s0,2.69-.23,3.47S17.14,13.43,18.28,13.28Z" transform="translate(0 0.02)" fill="#1e88e5" opacity="0.7"/><path d="M20.66,13.52c1,0,1.66-.36,1.76-1.1s-.25-1.11-.88-1.49a5.61,5.61,0,0,1-1.49-2.4c-.23-.65-.87-1-1.1-.45A9.59,9.59,0,0,0,18.26,12C18.47,13.09,19.33,13.57,20.66,13.52Z" transform="translate(0 0.02)" fill="#1e88e5" opacity="0.7"/><path d="M23.44,12.27c.67-.3.8-1.34,1.36-1.81a1.71,1.71,0,0,0,.75-1.27c0-.36.48.09.88-.11s.53-.12.95.14.72.12.15-.43-.77-.77-1.17-.63a.59.59,0,0,1-.78-.3,1.17,1.17,0,0,0-1.41-.58,4.49,4.49,0,0,1-2.08.08c-1.1-.18-2-.15-2.07.74s.88,2,1.18,3A1.71,1.71,0,0,0,23.44,12.27Z" transform="translate(0 0.02)" fill="#1e88e5" opacity="0.7"/><path d="M13.56,13.49c-.52-.12-.75-.18-.86-.54s0-.51-.12-.93-.25-.64-.21-.76.21-.15.26,0,.13.82.2.84.07-.12.06-.38,0-.44-.06-.49-.15-.11-.06-.15.19,0,.22,0,.11-.08.14,0,.15,0,.2,0-.06.36,0,.53.58.37.68.81a3.23,3.23,0,0,1,.05,1.08C14.06,13.58,13.77,13.54,13.56,13.49Z" transform="translate(0 0.02)" fill="#e53935" opacity="0.7"/><path d="M12,12.36c.29.74,1.13,1.07,2.85,1.3s2.66.16,2.82-1.68.28-3.5-.23-3.66A4.34,4.34,0,0,0,15,8.63c-.85.35-1.74.43-2.16,1S11.7,11.61,12,12.36Z" transform="translate(0 0.02)" fill="#ffb300" opacity="0.7"/><path d="M3.82,6.28c.35.07.41-.42.79-.59S4.88,5,4.4,5.14,3.12,6.15,3.82,6.28Z" transform="translate(0 0.02)" fill="#1e88e5" opacity="0.7"/><rect width="30" height="20" fill="none"/></svg>