<svg xmlns="http://www.w3.org/2000/svg" viewBox="0 0 30 20"><path d="M11.32,20h2.5a16.66,16.66,0,0,1-.19-2.53,9.27,9.27,0,0,1,.27-2.07,2.36,2.36,0,0,0,0-.58A3.06,3.06,0,0,1,15,14.55a20.16,20.16,0,0,0,2.69.22c1.58,0,2.08-.35,2.79-.16s.83.16,1.21-.11a1.78,1.78,0,0,1,.72-.32s.14.5,1,.8a22,22,0,0,1,2.34.6c.5.28,1.25.47,1.25.68a9.35,9.35,0,0,1-1.22,2.54A9.64,9.64,0,0,0,24.77,20h1.91a4.72,4.72,0,0,1,.84-1.57,15.86,15.86,0,0,0,1.28-2.13c.23-.34,0-.94-.57-1.42s-1.95-1.48-1.95-2,1.19-1.05,1.49-1.66a7.8,7.8,0,0,0,.4-.94,2.84,2.84,0,0,1-.09,1.62c-.31.73.74.17,1-.6s-.6-2.52-1.92-4A8.05,8.05,0,0,0,22.88,5c-.95-.16-5.83,1-7.7,1.09S13,5.59,11.55,5.64s-1.2.75-2.08.75S7.17,5.26,6.62,4.66A2,2,0,0,0,4.48,4C3.32,4.14,3.09,4.59,3,5.09s-.32.67-.71,1S1.72,7.2,1.43,7.41,1,7.77,1,8a1,1,0,0,0,.14.62c.13.14.23.12.23.12s0,.33.48.38.83-.33,1.23-.24a.61.61,0,0,0,.69-.15c.15-.14.78-.34.88-.24a4.73,4.73,0,0,0,.78,2,9.88,9.88,0,0,0,3,2.33c1.28.72,1.23,1,1.95,1.25a8.35,8.35,0,0,0,1.08.32,9.26,9.26,0,0,1,.3,2A15.58,15.58,0,0,1,11.32,20Z" transform="translate(0 0.02)" fill="#ccc"/><path d="M3.35,4.56c.1.24.49.23.9.1s.49-.5.78-.56.36-.12.26-.63-.15-1,.35-1.19a11.83,11.83,0,0,1,1.65-.21c.41-.11,1-.28.31-.41A6.23,6.23,0,0,1,6.15,1.4a1.49,1.49,0,0,0-1.33.16,2,2,0,0,0-.46.52A1.88,1.88,0,0,1,4.36,1c.19-.36.49-.24,1-.26a1.5,1.5,0,0,0,1-.34c.26-.2.29-.24-.48-.21A10.06,10.06,0,0,1,4.28,0,1.74,1.74,0,0,0,3,1.1,3.56,3.56,0,0,0,3,3C3.21,3.67,3.22,4.25,3.35,4.56Z" transform="translate(0 0.02)" fill="#ccc"/><rect width="30" height="20" fill="none"/></svg>