<svg xmlns="http://www.w3.org/2000/svg" viewBox="0 0 30 20"><path d="M21.51,9.06c-.63.08-.62-.32-1-.38a1.89,1.89,0,0,1-1.24-.89c-.19-.44-.67-.66-.88-1.52s-.23-1.1.74-1.2,1.79.07,2.51,0A1.76,1.76,0,0,1,23,5.53a3.41,3.41,0,0,0,1,.62c.09,0,.31.1.38.3.17.45-1-.13-1,0s.14.43.09.52c-.21.38-.78.47-1,.89S22.15,9,21.51,9.06Z" transform="translate(0 0.02)" fill="#1e88e5" opacity="0.7"/><path d="M20.46,8.86c0,.36-2.15,1.11-2.73.93s-.39-.53-.12-1.32.08-2.55.91-2c.47.29.54,1.44,1.13,1.66S20.46,8.54,20.46,8.86Z" transform="translate(0 0.02)" fill="#1e88e5" opacity="0.7"/><path d="M16.57,10.08c-.36,0-.86-.88-.68-2.07s.52-2.22,1.45-2.58,1,.76,1.14,1.64-.25,2.35-.95,2.71S16.81,10.1,16.57,10.08Z" transform="translate(0 0.02)" fill="#1e88e5" opacity="0.7"/><path d="M13.6,11c-.57.06-.81.08-1-.2s-.17-.45-.4-.79-.44-.5-.43-.62A.17.17,0,0,1,12,9.26c.08.07.37.69.44.69s0-.13,0-.36-.12-.4-.21-.43-.19,0-.1-.11.2,0,.21-.1.09-.11.14-.07.14-.07.21,0,0,.36.17.48.71.14.94.5a3,3,0,0,1,.37.95C14.13,10.92,13.84,11,13.6,11Z" transform="translate(0 0.02)" fill="#e53935" opacity="0.7"/><path d="M17,10.48a5.2,5.2,0,0,1-3,.61c-1.3.07-2.16.35-2.67,0s-.6-.72-.48-1.51A3.19,3.19,0,0,1,12,7.38,12.77,12.77,0,0,1,15.5,6c1.32-.31,1.95-.74,2.3-.69s.71,1.2.7,2.19A3.78,3.78,0,0,1,17,10.48Z" transform="translate(0 0.02)" fill="#ffb300" opacity="0.7"/><path d="M6,5.37c-.32.12-.4-.36-.81-.4a.55.55,0,0,1-.47-.74c.14-.27.86-.18,1.13,0S6.56,5.16,6,5.37Z" transform="translate(0 0.02)" fill="#1e88e5" opacity="0.7"/><rect width="30" height="20" fill="none"/></svg>