<svg xmlns="http://www.w3.org/2000/svg" viewBox="0 0 30 20"><path d="M1.61,6.58c0,.12.09.27.12.45s.23.16.34.34a.5.5,0,0,0,.7.06c.29-.18,1-.09,1.49-.2a.87.87,0,0,1,1,.45c.13.33.41.49.89,1.3a3.58,3.58,0,0,0,2.11,1.53,4.13,4.13,0,0,1,2.11,1.21,1.6,1.6,0,0,0,1.43.57,2.21,2.21,0,0,1,.19.85c.06.64.24,3.16.24,4.4A24,24,0,0,1,12.1,20H13A10.11,10.11,0,0,0,13,18a7.3,7.3,0,0,1,.15-2s.18.9.39,1.76a18.8,18.8,0,0,1,.3,2.24h.86a3.7,3.7,0,0,0-.06-.85,8.42,8.42,0,0,1-.28-2,6.6,6.6,0,0,0-.16-2.36A18.41,18.41,0,0,1,14,11.82s1.3-.05,3.05-.05a15.41,15.41,0,0,0,3.23-.36s1.34,1.56,2.69,2.86c.73.93.54,5.71.54,5.71h1V17.3L25.21,20h1.12a12.11,12.11,0,0,1-.84-2.85,4.61,4.61,0,0,1,.27-2.25.55.55,0,0,0-.35-.85,5.68,5.68,0,0,1-1.57-2.43c0-.42.43-.88.89-1.55a7.13,7.13,0,0,0,.76-1.67,2.47,2.47,0,0,0,.08.46,4.16,4.16,0,0,1,.24.64c0,.18-.13.55,0,.71s.06.6,0,.79.28.28.53.49a3.79,3.79,0,0,0,1.23.39c.49.12.19-.14.72-.1s-.28-.42.18-.36-.27-.35,0-.3-.21-.4.14-.43-.85-.38-.37-.37-.79-.41-.42-.32-.59-.4-.32-.39-.55-.28-.34-.36-.67-.09-.41-.25-.53,0-.62-.22-.35-1.31-.66-2.52-1-1.46-1.85-1.94A4.86,4.86,0,0,0,21,3.91a16.08,16.08,0,0,0-3.76.5,23.1,23.1,0,0,1-3.43,1c-1.44.23-2,0-2.46.4A6,6,0,0,1,8.72,7C8,7,7.38,6.22,7.14,5.51a9.23,9.23,0,0,0-.48-1.16,1.61,1.61,0,0,0,.69-.52.68.68,0,0,0,.14-.64,1.28,1.28,0,0,0,.2-.5,2.28,2.28,0,0,0,0-1l.2-.11a3,3,0,0,0,.9-.79A1.74,1.74,0,0,0,9,0H8.86V0l0,0V.14l-.07,0V.27L8.7.32l0,.1L8.59.49V.57L8.52.62l0,.11L8.42.78l0,.07-.11,0L8.21,1l-.1,0,0,.07H8l-.12.1H7.71l-.16.09H7.41l-.18.09H7.07l-.17,0-.16,0a7.32,7.32,0,0,0,1-.5A2.67,2.67,0,0,0,8.53,0H8.07L8,0,7.91.12l-.12,0L7.72.23l-.1,0L7.5.36l-.12,0L7.29.48l-.1,0L7.13.56H7L7,.62H6.73l0,0-.25,0L6.36.75H6.19l0,.12H6L5.92,1,5.84,1H5.66l0,.13H5.44v.11H5.23v.18l-.07,0L5,1.42l0,.22L5,1.72l-.18,0,0,.2,0,.06-.18,0,0,.18-.06.08-.14,0v.24l-.06.06-.12,0v.25H4.11l-.06.07,0,.17L3.91,3,4,3.14l-.13.07.1.18-.12.13.08.1,0,.09,0,.06a3.31,3.31,0,0,1-.31.66A3.88,3.88,0,0,1,2.45,5.64C1.78,6.18,1.62,6.46,1.61,6.58ZM5.44,3.17a2.56,2.56,0,0,1,.35-.64c.3-.46,1.31-.64,1.31-.64a4.52,4.52,0,0,0-.82.65,2.14,2.14,0,0,0-.47.74l-.17-.06A.58.58,0,0,0,5.44,3.17Z" transform="translate(0 0.02)" fill="#ccc"/><rect width="30" height="20" fill="none"/></svg>