<!-- Copyright (c) 2022 - 2023 Jan Stehno -->
<svg xmlns="http://www.w3.org/2000/svg" viewBox="0 0 300 200"><title>springbok_body</title><g id="springbok"><g id="body"><path d="M16.1,66c-.08,1.17.92,2.75,1.17,4.46s2.29,1.67,3.42,3.42,4.21,2.5,7,.66,10.25-.91,14.92-2,8.83,1.25,10.08,4.5S56.81,81.92,61.65,90a35,35,0,0,0,21.08,15.33c7.5,1.75,13.17,4.59,21.08,12.09s14.34,5.71,14.34,5.71,1.25,2.12,1.87,8.5,2.38,31.62,2.38,44A236.5,236.5,0,0,1,121,200h8.58a96.47,96.47,0,0,0,.67-20.08c-.92-9.34,1.5-19.92,1.5-19.92s1.75,9,3.83,17.67S138.65,200,138.65,200h8.58s.25-1.67-.67-8.5-3.41-13.5-2.79-20.37a66.07,66.07,0,0,0-1.54-23.63c-2.38-9.38-2.59-29.07-2.59-29.07s13-.51,30.42-.51a157,157,0,0,0,32.34-3.54s13.36,15.55,26.93,28.56c7.23,9.31,5.4,57.06,5.4,57.06h9.75l.08-26.75L252.15,200h11.16c-1.75-4.33-7.33-17.67-8.41-28.5s1-18.42,2.75-22.42.91-6.83-3.5-8.58-15.75-20.08-15.75-24.25,4.33-8.83,8.91-15.5S254.9,84,254.9,84a28.79,28.79,0,0,0,.83,4.67c.58,1.91,2.17,4.5,2.42,6.33s-1.34,5.5,0,7.17.58,6,.16,7.91,2.75,2.75,5.34,4.84,7.33,2.66,12.25,3.91,1.91-1.41,7.16-1-2.75-4.16,1.84-3.58-2.67-3.5.33-3-2.08-4,1.42-4.33-8.5-3.75-3.75-3.67S275,99.17,278.73,100s-5.92-4-3.25-3.83-5.5-2.84-3.33-3.67S265.4,91.67,268,90s-5.25-.33-6.17-2.17-3.48-13.08-6.6-25.14S245.46,48,236.71,43.25s-15.94-4.06-27-3.87-27.4,1.87-37.65,4.95-19.83,7.84-34.25,10.17-19.58-.08-24.58,4.08S94,70.25,87.21,70.25,73.77,62.44,71.4,55.38a92.38,92.38,0,0,0-4.75-11.67,15.75,15.75,0,0,0,6.87-5.21c2.54-3.67,1.42-6.33,1.42-6.33s.87-.92,2-5-.26-9.83-.26-9.83.19-.06,2.06-1.12,6.78-4.38,9-7.91A17.56,17.56,0,0,0,89.83,0H88.58l-.06.69-.34.44.15.53-.71.43,0,.82L87,3.47l-.25,1-.81.65,0,.82-.72.53L85,7.56,84.18,8l-.35.72-1.12.31-.66.66-.9.22-.57.69-.78.06-1.25,1-1.47.12-1.59.88-1.44-.13-1.75.88-1.62,0L69,13.75l-1.62-.41a78.45,78.45,0,0,0,9.62-5A26.44,26.44,0,0,0,85.31,0h-4.6l-.86.69-.77.71-1.14.35-.77.83-1,.32L75,3.88l-1.19.31L72.94,5l-1.09.36-.56.45L70.19,6l-.48.46H67.25l-.31.41L64.44,7l-.84.79H61.92L61.58,8.9h-1.7l-.67.89-.81.38-1.84.1.19,1.27H54.38v1.13H52.25l.17,1.77-.71.44-1.63-.44.38,2.25-.69.71L48,17.08,48.54,19,48,19.6l-1.77-.12.23,1.73-.59.79-1.41-.23,0,2.42-.55.52-1.27-.21,0,2.5H41.12l-.6.75.41,1.72-1.78.59.75,1.57-1.32.68,1,1.78L38.4,35.47l.81,1-.53.9.53.6s-.38,1.75-3.13,6.56-4.93,6.81-11.62,12.19S16.19,64.88,16.1,66Zm38.33-34.1s.37-1.72,3.44-6.38S71,19.16,71,19.16a48.38,48.38,0,0,0-8.22,6.43A21.66,21.66,0,0,0,58.15,33s-.53-.16-1.75-.59A7.33,7.33,0,0,0,54.43,31.94Z" transform="translate(0 0)" fill="#ccc"/></g></g><g id="frame"><rect id="frame-2" width="300" height="200" fill="none"/></g></svg>