<!-- Copyright (c) 2022 Jan Stehno -->
<svg xmlns="http://www.w3.org/2000/svg" viewBox="0 0 300 200"><title>springbok_organs</title><g id="springbok"><g id="organs"><path d="M215.15,90.83c-6.38.8-6.25-3.16-10.42-3.83s-10.5-4.42-12.42-8.83-6.73-6.67-8.82-15.26-2.26-11,7.41-12,17.87.73,25.12,0a18,18,0,0,1,14.42,4.64c2.41,2.48,7.47,5.17,10,6.19,1,.39,3.13,1,3.88,3,1.62,4.43-9.59-1.35-9.88,0-.34,1.53,1.44,4.25.94,5.19-2.07,3.81-7.82,4.75-9.63,8.94S221.52,90,215.15,90.83Z" transform="translate(0 0)" fill="#1e88e5" opacity="0.7"/><path d="M204.65,88.8c0,3.65-21.55,11.12-27.31,9.39s-4-5.38-1.26-13.22.85-25.54,9.17-20.25c4.6,2.93,5.39,14.47,11.28,16.64C201.72,83.27,204.65,85.66,204.65,88.8Z" transform="translate(0 0)" fill="#1e88e5" opacity="0.7"/><path d="M165.73,101.08c-3.59-.24-8.58-8.83-6.83-20.75s5.16-22.24,14.49-25.82,10,7.64,11.41,16.4S182.31,94.42,175.31,98,168.15,101.25,165.73,101.08Z" transform="translate(0 0)" fill="#1e88e5" opacity="0.7"/><path d="M136,110.28c-5.7.59-8.17.8-10.39-2s-1.61-4.53-4-7.88-4.37-5-4.34-6.16,1.65-2.08,2.52-1.37,3.71,6.93,4.43,7,.44-1.37-.44-3.63-1.2-4-2.06-4.26-1.93-.46-1.06-1.1,2-.27,2.17-1.06.83-1.06,1.34-.7,1.41-.63,2.16-.23.4,3.53,1.72,4.77,7,1.34,9.33,5a27.91,27.91,0,0,1,3.71,9.44C141.32,109.4,138.35,110,136,110.28Z" transform="translate(0 0)" fill="#e53935" opacity="0.7"/><path d="M170.15,105c-9.19,6.07-16.94,5.5-29.94,6.19s-21.56,3.5-26.69,0-6.06-7.25-4.81-15.13,4-17.37,11-22.06S141.83,63.69,155,60.56s19.44-7.43,22.94-6.93,7.12,12,7.06,21.93S179.6,98.75,170.15,105Z" transform="translate(0 0)" fill="#ffb300" opacity="0.7"/><path d="M60.15,53.94c-3.28,1.24-4-3.63-8.19-4s-6-4.82-4.63-7.44,8.57-1.75,11.25.19S65.58,51.87,60.15,53.94Z" transform="translate(0 0)" fill="#1e88e5" opacity="0.7"/></g></g><g id="frame"><rect id="frame-2" width="300" height="200" fill="none"/></g></svg>