<svg xmlns="http://www.w3.org/2000/svg" viewBox="0 0 30 20"><polygon points="14.83 8.44 14.82 9.34 14.89 10.14 15.11 10.78 15.39 11.13 15.56 11.27 15.89 11.26 16.31 11.05 16.59 10.75 16.75 10.3 16.75 8.96 16.85 8.02 16.93 7.08 16.73 6.75 16.31 6.51 15.81 6.59 15.28 7.13 14.92 7.87 14.83 8.44" fill="#1e88e5" opacity="0.7"/><polygon points="15.45 7.8 15.28 8.25 15.24 8.96 15.4 9.81 15.66 10.64 16.14 11.05 16.75 11.2 17.75 11.24 18.54 10.95 18.98 10.56 19.05 10.27 19.04 9.86 18.9 9.56 18.23 8.65 17.53 7.23 17.18 6.7 16.87 6.4 16.57 6.37 16.23 6.46 15.91 6.81 15.45 7.8" fill="#1e88e5" opacity="0.7"/><polygon points="17.13 8.43 17.56 9.08 17.96 9.64 18.3 10.08 18.66 10.2 18.84 10.36 19.1 10.44 19.33 10.41 19.54 10.46 19.91 10.34 20.46 9.81 21.06 9.1 21.46 8.65 21.85 8.46 22.1 8.18 22.25 7.79 22.34 7.69 22.59 7.8 22.88 7.84 23.29 7.76 23.63 7.77 23.84 7.86 24.02 7.86 24.11 7.71 24.16 7.45 24.06 7.28 23.78 7.11 23.45 7.07 23.17 7.08 22.91 7.08 22.64 6.96 22.29 6.47 21.77 5.96 21.01 5.7 19.95 5.72 18.34 5.92 17.51 6.17 17.09 6.52 16.84 7.02 16.82 7.38 17.05 7.91 17.13 8.43" fill="#1e88e5" opacity="0.7"/><polygon points="5.57 3.26 5.5 3.49 5.53 3.84 5.75 4.1 5.91 4.2 6.23 4.19 6.46 4.25 6.66 4.26 6.92 4.14 7.18 3.9 7.23 3.62 7.13 3.3 6.97 3.15 6.75 3.02 6.39 2.93 5.96 2.95 5.78 3.01 5.57 3.26" fill="#1e88e5" opacity="0.7"/><path d="M11.33,11.43c-.53,0-.76-.08-.91-.4s-.07-.47-.23-.84-.31-.56-.29-.67.19-.17.25-.09.22.74.29.76.06-.12,0-.36,0-.41-.11-.45-.17-.08-.08-.13.19,0,.21-.06a.09.09,0,0,1,.14,0s.14,0,.2,0,0,.35.08.49.61.27.76.67a2.92,2.92,0,0,1,.18,1C11.83,11.45,11.55,11.45,11.33,11.43Z" transform="translate(0 0.02)" fill="#e53935" opacity="0.7"/><polygon points="10.24 8.79 9.98 9.47 9.82 10.07 9.79 10.45 9.95 11.05 10.32 11.37 10.89 11.62 12.08 11.86 13.97 11.95 15.08 11.73 15.46 11.5 15.74 10.96 15.91 9.29 16.06 7.3 15.91 6.97 15.55 6.81 14.96 6.72 13.76 6.88 12.08 7.41 11.19 7.78 10.63 8.2 10.24 8.79" fill="#ffb300" opacity="0.7"/><rect width="30" height="20" fill="none"/></svg>