<svg xmlns="http://www.w3.org/2000/svg" viewBox="0 0 30 20.02"><path d="M3.52,6.89H3.38l-.09-.07,0-.13V6.53l-.07-.12,0-.19,0-.19.08-.2.19-.19.2-.3L4,4.82l.48-.55.33-.39L5,3.54l.33-.4.19-.33.12-.22.26-.24L6,2.21l.35-.53.4-.32.41-.14.43,0L8,1.31l.37.29.14.14v.07h-.1L8.15,1.7,8,1.65l-.25,0-.18.15-.15.21.19.13.61,0,0,.11.72.09-.08.13.83.22-.14.14.84.45-.15.11.92.44L11,4l1.2.43-.13.1L13.38,5l1.32.19,1.45,0,1.25-.22,1.84-.38,1.34-.13,1.11.09,1.06.39.76.42.75.72.47.75.48.35.35.35.31.57,0,.58-.17.63-.31.29-.37.17-.24.59-.06.52.06.54.1.52.11.22,0,.4-.06.29.07.4.26.43.31.26.24.26.05.25-.06.25-.29.45-.6,1.27-.28.68-.07.43v.44l0,.11-.11.11-.1,0-.11-.11-.1-.08-.1.4,0,.32v.25l0,.1-.09.1-.05,0h-.06l-.08-.11-.1-.06h-.07l-.12.09-.05.09,0,.24-.05.23v.16L23,20H21.86l-.24-.13v-.06l.06-.07h-.1l0,0,.21-.28.29-.29.11-.14.39-.27-.17,0-.1-.08,0-.07-.08,0,.17-.23.27-.31.24-.17.28-.19.19-.4.18-.75.08-.63-.05-.29-.12-.23-.29-.24-.6-.45-.71-.56-.54-.41L21,13.14l-.27-.54-.14-.46-.59.18-.71,0-.41,0-.56.27-.45.32-.42.13-.42.05-.58,0-.78.27-.48.2-.36,0-.48-.05h-.24l-.35.3-.33.28-.21.09L13,15l-.14.65-.13.53v.8l.08.47.08.56,0,.35-.07.18-.08.14,0,0h-.05l0-.05,0-.1,0,0h-.11l-.07,0,0,.09,0,.13,0,.18,0,.22-.09.11-.14,0-.06,0,0,0,0,.05h0l0,0-.05,0-.12,0h-.09l-.05,0,0,.1v.15l0,.15-.23.13-.45.15H10l-.27-.11,0-.06.29-.34.15-.23,0-.05.2-.21.29-.21.21-.14.25-.3.16-.2.19-.66.08-.66,0-.49-.07-.28,0-.39V15l-.17-.69L11,13.74l-.26-.45-.28-.12-.49.07L9.36,13l-.53-.12-.44-.5-.24-.55L8.08,12l-.19-.79-.13.18-.22-.88-.17.12-.24-.79L7,10,6.88,9l-.15.1,0-.67-.18.12,0-.66L6.32,8V7.36l.1-.45.05-.31-.37,0-.47.05-.56.12-.44.14L4.27,7l-.14.09H4l-.18,0L3.64,7,3.57,7Z" transform="translate(0 0.02)" fill="#ccc"/><rect width="30" height="20" fill="none"/></svg>