<svg xmlns="http://www.w3.org/2000/svg" viewBox="0 0 30 20"><polygon points="13.83 11.1 13.72 11.66 13.66 11.86 13.6 12 13.62 12.16 13.77 12.37 14.19 12.71 14.51 12.75 14.86 12.6 15.32 12.04 15.62 11.42 15.92 10.27 15.99 9.68 15.82 9.32 15.61 9.18 15.27 9.22 14.73 9.63 14.32 10.16 13.83 11.1" fill="#1e88e5" opacity="0.7"/><polygon points="14.07 11.61 14.23 12.09 14.53 12.51 14.79 12.62 15.25 12.6 16.07 12.38 16.52 12.34 16.8 12.2 17.01 11.94 17.07 11.6 16.96 11.17 16.21 9.77 16.03 9.37 15.84 9.28 15.58 9.32 15.07 9.69 14.61 10.16 14.34 10.56 14.09 11.01 14.02 11.36 14.07 11.61" fill="#1e88e5" opacity="0.7"/><polygon points="16.26 10.9 16.5 11.23 16.59 11.53 16.77 11.81 17.01 11.94 17.14 12.11 17.32 12.18 17.7 12.23 18.13 12.28 18.43 12.18 18.52 11.99 18.69 11.9 18.88 11.87 18.95 11.75 19.05 11.55 19.18 11.32 19.31 11.15 19.44 11.02 19.7 10.98 19.87 10.84 20.07 10.64 20.22 10.45 20.37 10.37 20.54 10.37 20.92 10.51 21.26 10.73 21.69 11.21 21.93 11.51 22.12 11.66 22.33 11.74 22.47 11.63 22.51 11.45 22.5 11.3 22.4 11.18 22.2 11.04 21.9 10.67 21.52 10.31 20.99 9.99 20.63 9.76 20.21 9.47 19.87 9.26 18.83 9.06 17.76 8.96 16.69 8.99 16.07 9.13 15.84 9.28 15.71 9.52 15.71 9.73 15.78 9.99 16.02 10.47 16.12 10.77 16.26 10.9" fill="#1e88e5" opacity="0.7"/><polygon points="5.37 7.09 5.38 7.2 5.59 7.29 5.92 7.33 6.31 7.25 6.75 7.15 7.09 7.12 7.25 7.08 7.33 7 7.31 6.84 7.13 6.64 6.85 6.54 6.47 6.52 6.18 6.56 5.83 6.69 5.54 6.87 5.37 7.09" fill="#1e88e5" opacity="0.7"/><path d="M11.26,13c-.47,0-.64-.18-.7-.41s0-.3,0-.56-.13-.42-.09-.48a.18.18,0,0,1,.24,0c0,.07,0,.51.06.53s.09-.05.11-.2.07-.26,0-.31-.12-.09,0-.09.16.06.2,0a.08.08,0,0,1,.13,0s.13,0,.17.07,0,.27.05.39.38.19.48.45a.57.57,0,0,1,0,.49C11.86,13,11.46,13,11.26,13Z" transform="translate(0 0.02)" fill="#e53935" opacity="0.7"/><polygon points="9.48 10.59 9.34 10.98 9.31 11.32 9.45 11.81 9.84 12.21 10.7 12.71 11.96 13.03 12.84 13.03 13.89 13.03 14.38 12.96 14.79 12.67 15.15 12.02 15.34 10.97 15.34 9.84 15.3 9.4 15.19 9.3 14.9 9.26 14.47 9.26 13.74 9.43 13.08 9.65 12.35 9.71 11.55 9.6 11.02 9.55 10.49 9.64 10.17 9.83 9.75 10.17 9.48 10.59" fill="#ffb300" opacity="0.7"/><rect width="30" height="20" fill="none"/></svg>