<svg xmlns="http://www.w3.org/2000/svg" viewBox="0 0 30 20"><path d="M16.19,15.54c.64.24,2.08-.44,2.56-1.74s.73-3.1.4-3.54-1.36-.78-2.17.67-1.64,2.15-1.49,3S15.69,15.35,16.19,15.54Z" transform="translate(0 0.02)" fill="#1e88e5" opacity="0.7"/><path d="M18.89,15.41c1.45-.19,2.17-.43,1.73-1.18a6.74,6.74,0,0,1-.92-2.58c-.14-1.05-.26-1.57-.95-1.37a6.28,6.28,0,0,0-2.32,3.17C16.39,14.18,15.89,15.81,18.89,15.41Z" transform="translate(0 0.02)" fill="#1e88e5" opacity="0.7"/><path d="M20,14.27a1.52,1.52,0,0,0,.13.31c.22.35.59.4,1.27.21.86-.24,1-.49,1.12-.91s.55-.42.76-.83.6-.43.73-.68.51-.34,1.05-.22,1.11.42.92-.05a.83.83,0,0,0-.9-.6A1.47,1.47,0,0,1,24,10.87a2.74,2.74,0,0,0-1.75-.4,4,4,0,0,1-1.66-.24c-.55-.19-1.37.28-1.2,1s-.1,1.1,0,1.83S19.88,13.93,20,14.27Z" transform="translate(0 0.02)" fill="#1e88e5" opacity="0.7"/><path d="M13,14.11c-.37-.06-.53-.09-.63-.35s0-.37-.13-.67a2.91,2.91,0,0,1-.19-.55c0-.08.14-.12.18,0s.14.59.18.61.05-.1,0-.28,0-.33-.07-.36-.12-.08-.05-.11.13,0,.15,0,.07-.06.09,0,.1,0,.14,0,0,.27,0,.39.43.24.52.56a2.65,2.65,0,0,1,.09.78C13.3,14.15,13.11,14.14,13,14.11Z" transform="translate(0 0.02)" fill="#e53935" opacity="0.7"/><path d="M13.17,14.05c1.29.54,2.4,1,3.13.07S18,11.51,18,10.68s-.45-1.34-2.16-1.4-3,.47-3.47,1.2-1.19,1.32-.93,2A2.82,2.82,0,0,0,13.17,14.05Z" transform="translate(0 0.02)" fill="#ffb300" opacity="0.7"/><path d="M6.19,8.61c.17.17.7,0,1,.08s.81-.2.49-.47A1,1,0,0,0,6.57,8C6.18,8.19,6,8.39,6.19,8.61Z" transform="translate(0 0.02)" fill="#1e88e5" opacity="0.7"/><rect width="30" height="20" fill="none"/></svg>