<svg xmlns="http://www.w3.org/2000/svg" viewBox="0 0 30 20"><path d="M26.17,20H24.82a5,5,0,0,0,.36-2c-.1-1-2.32-2.08-2.32-2.08a2.46,2.46,0,0,0-.32,1.2,1.48,1.48,0,0,1-.4,1.31A5.72,5.72,0,0,0,21.4,20H20a8.48,8.48,0,0,0,.86-1.87,8,8,0,0,0-.32-2.28,5.52,5.52,0,0,1-2.95.52,4.59,4.59,0,0,1-3.13-.87,18.4,18.4,0,0,0-.37,2.1c0,.56-.35,1.42-.35,1.75s0,.65,0,.65H12.5s.15-.58.25-1.23.1-.69.18-1.07A1.19,1.19,0,0,0,12.8,17a1.46,1.46,0,0,1-.09.82,6.89,6.89,0,0,0-.26,1.52,3.84,3.84,0,0,1-.15.68H11.14a5.85,5.85,0,0,0,.41-1.77c.15-1.26.37-2.58-.33-3.32s-.94-1.13-1-1.39S9.4,12.89,9,13s-1.42-.49-2.21-.24-2,.28-2.28.63-.75.27-1.18.29-.62-.07-.7-.28-.5-.34-.53-.52,0-.2.25-.27.36-.5.36-.5A2.41,2.41,0,0,1,2.49,11,2.28,2.28,0,0,1,3,9.28c.36-.28.57-.15.57,0s-.09,0-.22.27a1.93,1.93,0,0,0-.28,1.08c0,.62,0,.69.08.8a.7.7,0,0,0,.09.14l.87-.7a6.06,6.06,0,0,0,0-1.06c-.06-.63-.41-.67-.14-.72s.47.11.57.41.16.58.16.58a2.56,2.56,0,0,0,.39-.71c.05-.27,0-.52.17-.77s.39-.17.58-.37.35-.36.35-.36a1.2,1.2,0,0,1,0-.71c.15-.33.39-.62.62-.64s.05.25.09.43a3.68,3.68,0,0,0,.14.45L7.3,7.3a1.23,1.23,0,0,1,.45-.72c.4-.33.68-.5.8-.45s.08.24.06.53.4-.25.65-.14.91-.3.84-.14.65,0,.85.06.91.17.82.2,1.16.11.89.17,1.39.07,1.16.22,1.65.15,1.39.23,1.58.29,1.34.4,1.38.23,1.32.29,1.75.19,1.59.32,1.05,0,1.82,0,2.54-.29,3.37.38A7,7,0,0,1,26.87,11a10.08,10.08,0,0,1,.5,3.5c-.06.44-.05,1.08.23,1.29s.67.89.46.81.2,1,0,.75-.53.05-.51-.32-.37-.56-.36-.84a7.7,7.7,0,0,0-.18-1c-.05-.31-.05-1.54,0-2a6,6,0,0,0-.32-1.41,4.54,4.54,0,0,1-.56,1.87c-.48.66-.82,1.07-.46,1.82s.89.87.89,1.21-.26,1.18-.28,1.85S26.17,20,26.17,20Z" transform="translate(0 0.02)" fill="#ccc"/><rect width="30" height="20" fill="none"/></svg>