<!-- Copyright (c) 2022 Jan Stehno -->
<svg xmlns="http://www.w3.org/2000/svg" viewBox="0 0 300 200"><title>warthog_organs</title><g id="warthog"><g id="organs"><path d="M161.88,155.63c6.39,2.39,20.87-4.38,25.62-17.38s7.25-31,4-35.37S177.88,95,169.75,109.5s-16.37,21.5-14.87,29.88S156.88,153.75,161.88,155.63Z" transform="translate(0 0)" fill="#1e88e5" opacity="0.7"/><path d="M188.88,154.38c14.51-1.94,21.75-4.38,17.37-11.88s-7.87-15.25-9.25-25.75S194.38,101,187.5,103s-22.87,24.5-23.25,31.75S158.88,158.38,188.88,154.38Z" transform="translate(0 0)" fill="#1e88e5" opacity="0.7"/><path d="M199.88,142.94a13.2,13.2,0,0,0,1.37,3.13c2.18,3.48,5.82,4,12.69,2.06,8.56-2.38,10.19-4.88,11.19-9.07s5.5-4.25,7.62-8.31,5.94-4.31,7.25-6.81,5.06-3.44,10.5-2.19,11.06,4.15,9.19-.55-4.06-5.7-8.94-6-8.19-3.37-10.56-6.31-12.38-4.63-17.44-4-11.06-.47-16.62-2.36-13.69,2.8-12.07,9.8-1,10.93-.21,18.25S198.81,139.56,199.88,142.94Z" transform="translate(0 0)" fill="#1e88e5" opacity="0.7"/><path d="M129.57,141.37c-3.68-.65-5.26-1-6.25-3.55s-.35-3.71-1.34-6.68-2-4.61-1.83-5.47,1.34-1.24,1.78-.54,1.33,5.92,1.78,6.08.48-1,.25-2.81-.16-3.27-.68-3.6-1.14-.73-.5-1,1.3.19,1.52-.38.68-.63.94-.26,1-.2,1.4.25-.26,2.72.39,3.91,4.23,2.36,5.14,5.58a26.52,26.52,0,0,1,1,7.82C133,141.74,131.06,141.64,129.57,141.37Z" transform="translate(0 0)" fill="#e53935" opacity="0.7"/><path d="M131.67,140.75c13,5.35,24.08,10.5,31.33.67s17.25-26.09,16.67-34.42-4.42-13.33-21.59-14-30.33,4.75-34.66,12-11.92,13.25-9.34,20.5S123.28,137.29,131.67,140.75Z" transform="translate(0 0)" fill="#ffb300" opacity="0.7"/><path d="M61.88,86.31c1.69,1.75,7,.19,9.93.88s8.13-2.06,4.88-4.75-7.06-3.81-11-2.06S59.81,84.19,61.88,86.31Z" transform="translate(0 0)" fill="#1e88e5" opacity="0.7"/></g></g><g id="frame"><rect id="frame-2" width="300" height="200" fill="none"/></g></svg>