<!-- Copyright (c) 2023 Jan Stehno -->
<svg xmlns="http://www.w3.org/2000/svg" viewBox="0 0 300 200.04">
    <title>warthog_body</title>
    <g id="warthog">
        <g id="body">
            <path
                d="M261.7,200H248.2s4.52-10.79,3.59-20.35-23.19-20.88-23.19-20.88-4,7.32-3.19,12.07-.69,10.12-4,13.06S214,200,214,200H199.6s7.31-12.06,8.56-18.69S205,158.5,205,158.5s-7.18,5.25-29.52,5.25-31.25-8.67-31.25-8.67-3.5,15.25-3.75,20.92S137,190.25,137,193.58s0,6.42,0,6.42H125a108.06,108.06,0,0,0,2.5-12.25c.92-6.5,1.09-6.92,1.84-10.67a11.45,11.45,0,0,0-1.34-7.25s.92,3.17-.83,8.25-2.42,12.09-2.67,15.17A33.54,33.54,0,0,1,123,200H111.37s2.67-5.08,4.17-17.67,3.62-25.83-3.38-33.21-9.37-11.25-9.5-13.87-8.62-6.13-12.75-5.13-14.25-4.87-22.12-2.37-20,2.83-22.84,6.33-7.45,2.67-11.75,2.84-6.16-.67-7-2.75-4.91-3.42-5.25-5.21.38-2,2.5-2.71,3.59-5,3.59-5-2.13-3.63-2.13-11.09,1.67-14.16,5.25-17,5.67-1.58,5.67-.46-.92.21-2.17,2.71-2.79,4.59-2.79,10.79.25,6.88.79,8a7.31,7.31,0,0,0,.83,1.46l8.8-7.08a56,56,0,0,0-.09-10.58c-.58-6.25-4.08-6.67-1.33-7.21s4.71,1.16,5.62,4.12,1.67,5.79,1.67,5.79S50.54,96.17,51,93.5s-.54-5.17,1.66-7.63,3.88-1.7,5.8-3.75S62,78.53,62,78.53a11.93,11.93,0,0,1,.38-7.09c1.44-3.32,3.87-6.16,6.19-6.35s.5,2.41.87,4.28a30.17,30.17,0,0,0,1.44,4.44L73,73.29A12.53,12.53,0,0,1,77.54,66c4-3.29,6.79-5,8-4.5s.79,2.38.58,5.33,4-2.56,6.48-1.43,9.12-3,8.37-1.38,6.5-.5,8.5.63,9.13,1.68,8.19,1.93,11.63,1.13,8.94,1.75,13.94.63,11.62,2.13,16.5,1.56,13.88,2.31,15.81,2.94,13.44,4.07,13.81,2.25,13.18,2.87,17.5,1.88,15.88,3.19,10.5.31,18.25.12,25.35-2.89,33.6,3.77,18,13.34,22.25,22.92,5.56,30.69,5,35-.5,10.8,2.34,12.85,6.66,8.87,4.58,8.16,2,10.13.08,7.42-5.29.5-5-3.13-3.75-5.66-3.67-8.41-1.2-6.92-1.7-10-.59-15.33-.42-19.5-3.25-14.08-3.25-14.08-.86,12.06-5.61,18.68-8.18,10.69-4.56,18.19,8.94,8.75,8.88,12.13-2.63,11.81-2.82,18.5S261.7,200,261.7,200Z"
                transform="translate(0 0)" fill="#ccc" />
        </g>
    </g>
    <g id="frame">
        <rect id="frame-2" width="300" height="200" fill="none" />
    </g>
</svg>