<svg xmlns="http://www.w3.org/2000/svg" viewBox="0 0 30 20"><path d="M18.64,13.4a4.71,4.71,0,0,0,2.07-2.92c.16-1.22,0-2.46-.58-2.8s-1.31.74-1.87,1.93a6.36,6.36,0,0,0-.73,3A.84.84,0,0,0,18.64,13.4Z" transform="translate(0 0.02)" fill="#1e88e5" opacity="0.7"/><path d="M20.65,13.08c.67-.46,1.51-.33,1.59-1s-.64-1.7-1-2.54-.46-1.94-1.32-1.89-1.19,3.28-1.31,4.2S18.54,14.53,20.65,13.08Z" transform="translate(0 0.02)" fill="#1e88e5" opacity="0.7"/><path d="M21.83,11.19c0,.6.26.94.85.76l.59-.18s1.22-.55,1.31-.95A4,4,0,0,1,25,9.58a2.09,2.09,0,0,0,.17-1.25A.87.87,0,0,1,26,7.65c.28,0,.61.11.32-.31s-.59-.06-1-.12-.75-.36-1.39-.19a10.49,10.49,0,0,1-2.05.14c-.7,0-1.38.26-1.09,1.21S21.79,10.11,21.83,11.19Z" transform="translate(0 0.02)" fill="#1e88e5" opacity="0.7"/><path d="M13.81,12.28c-.64-.23-.91-.33-1-.64s.06-.4,0-.75-.21-.56-.14-.64a.26.26,0,0,1,.34,0c0,.09,0,.67.11.7s.12-.07.14-.27.08-.35,0-.4-.18-.13-.06-.13.23.07.29,0a.14.14,0,0,1,.18,0s.18,0,.24.09-.14.27-.06.42.68.43.74.8a1.79,1.79,0,0,1-.09.84C14.42,12.47,14.07,12.37,13.81,12.28Z" transform="translate(0 0.02)" fill="#e53935" opacity="0.7"/><path d="M11.62,10.48c-.16,1,2.87,2.36,4.11,2.57S18,13.18,19,10.81s.45-3.5-.85-3.88a8.86,8.86,0,0,0-5.15.6C12.15,8.11,11.72,9.83,11.62,10.48Z" transform="translate(0 0.02)" fill="#ffb300" opacity="0.7"/><path d="M5.14,6.38c.1.23.57,0,.86,0s.64.1.61-.16A.54.54,0,0,0,6,5.7C5.58,5.69,4.93,5.9,5.14,6.38Z" transform="translate(0 0.02)" fill="#1e88e5" opacity="0.7"/><rect width="30" height="20" fill="none"/></svg>