<!-- Copyright (c) 2022 Jan Stehno -->
<svg xmlns="http://www.w3.org/2000/svg" viewBox="0 0 300 200"><title>waterbuffalo_organs</title><g id="waterbuffalo"><g id="organs"><path d="M186.42,134.25c6.33-2.64,19.08-17.08,20.66-29.25s.09-24.58-5.75-28-13.08,7.42-18.75,19.33-7.83,23-7.25,30.09S182.42,135.92,186.42,134.25Z" transform="translate(0 0)" fill="#1e88e5" opacity="0.7"/><path d="M206.5,131.08c6.69-4.6,15.08-3.33,15.92-10.41S216,103.67,212,95.25s-4.58-19.45-13.25-18.89-11.83,32.81-13.08,42S185.42,145.58,206.5,131.08Z" transform="translate(0 0)" fill="#1e88e5" opacity="0.7"/><path d="M218.31,112.19c.24,5.93,2.57,9.37,8.5,7.56l5.94-1.81s12.13-5.5,13.06-9.5,1.5-7.44,4.38-12.38,1.62-9.12,1.75-12.56,4.75-6.81,7.56-6.75,6.06,1.06,3.19-3.06-5.88-.63-9.69-1.25-7.5-3.63-13.87-1.88-13.44.88-20.5,1.38-13.87,2.64-11,12.14S217.88,101.38,218.31,112.19Z" transform="translate(0 0)" fill="#1e88e5" opacity="0.7"/><path d="M138.13,123c-6.39-2.29-9.13-3.32-10-6.4s.61-4-.16-7.47-2.1-5.63-1.47-6.44a2.56,2.56,0,0,1,3.39.22c.55.92.39,6.69,1.15,7s1.18-.77,1.41-2.79.79-3.44,0-4-1.82-1.25-.56-1.29,2.28.76,2.86.28a1.25,1.25,0,0,1,1.78.14c.35.5,1.84.22,2.43.87s-1.38,2.7-.61,4.2,6.81,4.3,7.37,8a16.75,16.75,0,0,1-.9,8.47C144.21,124.92,140.72,124,138.13,123Z" transform="translate(0 0)" fill="#e53935" opacity="0.7"/><path d="M116.17,105.08c-1.55,9.71,28.71,23.55,41.08,25.67s23.13,1.25,32.25-22.37,4.5-35-8.5-38.88-43.5.13-51.5,6S117.21,98.54,116.17,105.08Z" transform="translate(0 0)" fill="#ffb300" opacity="0.7"/><path d="M51.38,64c1,2.32,5.75-.37,8.66,0s6.38,1,6-1.58-1.66-5.17-5.95-5.21S49.25,59.21,51.38,64Z" transform="translate(0 0)" fill="#1e88e5" opacity="0.7"/></g></g><g id="frame"><rect id="frame-2" width="300" height="200" fill="none"/></g></svg>