<svg xmlns="http://www.w3.org/2000/svg" viewBox="0 0 30 20"><path d="M25.57,20c-.91,0-1.06-.09-.63-.59a2.66,2.66,0,0,0,.94-1.87,3.33,3.33,0,0,0-.58-2.64c-.6-.8-1.31-1.74-1.66-1.81s-.73.39-2.27.79a5,5,0,0,1-3.12.11L17,13.58a1.35,1.35,0,0,0-.26,1.15,2.62,2.62,0,0,1-.23,1.79,3.64,3.64,0,0,0-.07,2.08c.15.45.08,1-.12.76s-.48.45-.68.51a2.45,2.45,0,0,1-.9.11c-.54,0-.91-.06-.55-.4s0-.23-.3-.23-.76,0-.34-.42a3.63,3.63,0,0,0,1-1.81,2.88,2.88,0,0,0-.09-1.59c-.17-.3-.29-.33-.11-.7s.11-.58-.53-.28-1.59.28-2.8-1-1.57-2-3.73-2.61a16.34,16.34,0,0,0-4.08-1c-.78,0-1.11.11-1.24-.12s-.12-.31-.12-.31-.29,0-.38-.4a.66.66,0,0,1,.34-.79,2.09,2.09,0,0,0,.69-.57c.21-.27.41-.31.9-.67A5.6,5.6,0,0,0,4.55,6c.38-.48.45-.74,1-.76a2.74,2.74,0,0,1,1.32.06,6.37,6.37,0,0,0,3.32,0A25.8,25.8,0,0,0,14,4.07c.93-.34,2.78.36,4.24.74a11.19,11.19,0,0,0,4.5.37c1.87-.2,2.5.45,3.67,1.15s1.91,1,2,2.35A5.31,5.31,0,0,1,28.16,11c-.16.7-.22,1.14.07,1.5s.69,1.54.49,1.42a2,2,0,0,1-.26-.17s.29.77.05.72,0,.25,0,.58a9.89,9.89,0,0,0,0,1.64c.09.83.26,2.08-.08,1.74s-.17.47-.59.47h-.41a1.36,1.36,0,0,1,0,.24c0,.31-.13.29-.24.11s-.38.07-.45.33S26.22,20,25.57,20Z" transform="translate(0 0.02)" fill="#ccc"/><rect width="30" height="20" fill="none"/></svg>