<!-- Copyright (c) 2022 Jan Stehno -->
<svg xmlns="http://www.w3.org/2000/svg" viewBox="0 0 300 200"><title>waterbuffalo_body</title><g id="waterbuffalo"><g id="body"><path d="M255.75,200c-9.13,0-10.67-.87-6.33-5.87s8.25-7.55,9.41-18.71S258.93,157,253,149s-13.05-17.33-16.55-18.08-7.34,3.91-22.67,7.91-22.58,3.84-31.25,1.09S170.33,136,170.33,136s-4,4.25-2.58,11.5.42,10.84-2.33,17.92-2.09,16.33-.67,20.83.79,9.83-1.23,7.58-4.85,4.5-6.77,5.09-3.58,1.08-9,1.08-9.17-.58-5.5-4,.42-2.25-3-2.25-7.67,0-3.42-4.25,8.59-11.17,9.75-18.08.71-12.75-.91-15.84-2.84-3.33-1.09-7,1.09-5.83-5.25-2.83-15.91,2.83-28-10S94.62,115.87,73,109.62,39.94,99.69,32.19,100s-11.07,1.12-12.38-1.19-1.19-3.06-1.19-3.06-2.93.44-3.81-4,1-6.5,3.38-7.88a21.82,21.82,0,0,0,6.87-5.68c2.13-2.75,4.19-3.19,9.06-6.75S41.69,64.75,45.5,60s4.5-7.31,9.87-7.56,9-1.19,13.25.56,15.8,3.67,33.21-.08,29.25-8.59,38.5-12,27.75,3.66,42.42,7.41,26.17,5.84,44.92,3.75,25,4.5,36.75,11.42,19.08,10.58,20.25,23.58-1.42,16.42-3.05,23.42-2.25,11.44.69,15.06,6.88,15.38,4.88,14.19a14.92,14.92,0,0,1-2.63-1.75c-.19-.19,2.94,7.75.52,7.25s-.33,2.5-.16,5.75-1.42,8.08-.5,16.42,2.58,20.83-.84,17.41-1.66,4.75-5.83,4.75h-4.17a18.42,18.42,0,0,1-.27,2.36c-.51,3.06-1.31,2.89-2.39,1.06s-3.84.75-4.5,3.33S262.25,200,255.75,200Z" transform="translate(0 0)" fill="#ccc"/></g></g><g id="frame"><rect id="frame-2" width="300" height="200" fill="none"/></g></svg>