<svg xmlns="http://www.w3.org/2000/svg" viewBox="0 0 30 20"><path d="M17.7,13.66c.66-.27,1.07-1.15,1.24-2.71s-.32-2.12-.82-2.24-1.16.6-1.48,1.73S15.23,14.66,17.7,13.66Z" transform="translate(0 0.02)" fill="#1e88e5" opacity="0.7"/><path d="M19.4,13.65c1.05-.31,1.61-.4,1.21-1.14s-1.09-1.06-1.31-2S18.7,8.68,18.1,9s-1.45,3.39-1,4.28S18.77,13.84,19.4,13.65Z" transform="translate(0 0.02)" fill="#1e88e5" opacity="0.7"/><path d="M20.08,12.14c.18.44,1,.31,1.29.58s1.28-.16,1.3-.49.3-.25.36-.57a1.08,1.08,0,0,1,.35-.61c.18-.23.41-.31.48-.7a1,1,0,0,1,1-.67c.45-.06,1.2,0,.81-.43s-1-.16-1.33-.12-.43-.59-1.27-.72a20.52,20.52,0,0,0-2.42,0c-1.19,0-2.13.28-2,1.15s.29,1.41.64,1.61A2,2,0,0,1,20.08,12.14Z" transform="translate(0 0.02)" fill="#1e88e5" opacity="0.7"/><path d="M13.57,14.54c-.55,0-.79,0-1-.37s-.09-.47-.26-.83-.34-.56-.32-.67a.16.16,0,0,1,.26-.1c.07.09.25.74.32.75s.06-.12,0-.36,0-.41-.13-.45-.18-.08-.09-.12.2,0,.22-.07.1-.09.14-.05.15,0,.21,0,0,.35.1.5.65.24.81.64a3,3,0,0,1,.22,1C14.09,14.54,13.79,14.56,13.57,14.54Z" transform="translate(0 0.02)" fill="#e53935" opacity="0.7"/><path d="M12.18,13.57a3.9,3.9,0,0,0,3.79.31c1.26-.7,1.35-2.2,1.46-3.45s.25-1.74-.67-1.57-3.14.86-3.83,1.08a2.1,2.1,0,0,0-1.47,1.59A2.67,2.67,0,0,0,12.18,13.57Z" transform="translate(0 0.02)" fill="#ffb300" opacity="0.7"/><path d="M5.62,2.76c0,.36.79.11,1.18.24s.71-.25.45-.54a1,1,0,0,0-1.11-.2C5.74,2.43,5.59,2.59,5.62,2.76Z" transform="translate(0 0.02)" fill="#1e88e5" opacity="0.7"/><rect width="30" height="20" fill="none"/></svg>