<!-- Copyright (c) 2023 Jan Stehno -->
<svg xmlns="http://www.w3.org/2000/svg" viewBox="0 0 300 200">
    <title>whitetaildeer_body</title>
    <g id="whitetaildeer">
        <g id="body">
            <path
                d="M277.71,200h-9.29l-.17-11.33L265.87,200h-8.33s3.71-13.12,1.46-21.25-5.06-8.25-12.75-11.44a99.67,99.67,0,0,1-20.13-10.93,36.37,36.37,0,0,1-6.81-6.19s-2.87,3.19-8.81,2.62-8.94-3.12-13.69-2.12-13.89,4.39-21.31,4.06l-7.42-.33s-9.16-2.25-15.33-.84-14.25-.33-14.25-.33-1.42,1.92-1.83,12.58-.59,18.92-1.84,23.17-1.16,11-1.16,11H122.92a41,41,0,0,1-1.25-12.25c.5-5.83-1.84-16.5-5.17-24.17A116.67,116.67,0,0,1,112,152s-11.17-1.5-14.42-7.42-4.25-11.66-8.41-16.08-8.3-14.5-13.79-21.88S63.38,87,60.75,78.25s-5.5-11.06-6.31-16.81-3.06-8.88-13-8.75-14.52.39-16.81-.69a6.71,6.71,0,0,1-3.13-3.71s-2.21.33-3.21-4S20.46,39,24.92,36s12.66-7.29,15.54-11,5.08-5.71,8.08-6.58A15.22,15.22,0,0,0,54.08,15s1.63-7,3-9.83A32.35,32.35,0,0,1,60.33,0H79s-1.83,4.25-4.62,5.83a23.37,23.37,0,0,0-4.5,3.29,10.63,10.63,0,0,1,1.54,2.34,13.47,13.47,0,0,1,1,3.46l.16,4.2a12.76,12.76,0,0,1,7.92,5.67c2.88,4.75,12,26,20,34.58s16.25,8.5,24.5,8,13,0,18.7,2.38,21.67,2.67,32.17,1.5,20.67-2.83,36.75-3.5,15.33-1,32.92,5.33,21.83,11.59,26.66,18.09,6.5,17.5,6.59,27.41,5.35,24.73,1.74,21.8c-2.84-2.31,2.67,10.48-.48,8.27s-7.68,7.52-8.1,2.93-7.58-2.83-5.83-5.58-4.17-5.17-3.25-8.17,1.62-13.62,1.62-13.62-6,15.62-5.7,20.62,4.08,12.84,11.41,16.67,13.42,5.75,12.42,13.08S278.75,192.25,277.71,200Z"
                transform="translate(0 0)" fill="#ccc" />
        </g>
    </g>
    <g id="frame">
        <rect id="frame-2" width="300" height="200" fill="none" />
    </g>
</svg>