<svg xmlns="http://www.w3.org/2000/svg" viewBox="0 0 30 20"><path d="M27.77,20h-.93l0-1.14L26.59,20h-.84a5.13,5.13,0,0,0,.15-2.13c-.23-.81-.51-.82-1.28-1.14a10.36,10.36,0,0,1-2-1.1,3.76,3.76,0,0,1-.68-.62,1.08,1.08,0,0,1-.88.27c-.59-.06-.89-.32-1.37-.22a8.75,8.75,0,0,1-2.13.41l-.74,0a4.15,4.15,0,0,0-1.54-.09,3.74,3.74,0,0,1-1.42,0,3,3,0,0,0-.18,1.26,13.15,13.15,0,0,1-.19,2.32,4.82,4.82,0,0,0-.11,1.1H12.29a4.25,4.25,0,0,1-.12-1.23,6.18,6.18,0,0,0-.52-2.42c-.33-.76-.45-1.15-.45-1.15s-1.12-.15-1.44-.75a7.76,7.76,0,0,0-.84-1.6c-.42-.45-.83-1.45-1.38-2.19A10.62,10.62,0,0,1,6.08,7.8a17.19,17.19,0,0,1-.64-1.68c-.08-.58-.3-.89-1.3-.88a5.71,5.71,0,0,1-1.68-.06.67.67,0,0,1-.31-.38s-.22,0-.32-.39.22-.54.66-.83a7.73,7.73,0,0,0,1.56-1.1,1.59,1.59,0,0,1,.8-.66,1.62,1.62,0,0,0,.56-.34,6.41,6.41,0,0,1,.3-1A3.21,3.21,0,0,1,6,0H7.9a1.41,1.41,0,0,1-.46.58A2.32,2.32,0,0,0,7,.89a1,1,0,0,1,.16.23,1.51,1.51,0,0,1,.1.35l0,.42a1.28,1.28,0,0,1,.79.56,21,21,0,0,0,2,3.46,2.67,2.67,0,0,0,2.45.8A3.73,3.73,0,0,1,14.38,7a9.05,9.05,0,0,0,3.22.15c1-.12,2.07-.28,3.68-.35a5.67,5.67,0,0,1,3.29.53,4.61,4.61,0,0,1,2.66,1.81,4.93,4.93,0,0,1,.66,2.74c0,1,.54,2.48.18,2.18s.26,1.05-.05.83-.77.75-.81.29-.76-.28-.59-.55-.41-.52-.32-.82a11.19,11.19,0,0,0,.16-1.36,9.16,9.16,0,0,0-.57,2.06A2.22,2.22,0,0,0,27,16.13c.74.38,1.34.57,1.24,1.3S27.87,19.2,27.77,20Z" transform="translate(0 0.02)" fill="#ccc"/><rect width="30" height="20" fill="none"/></svg>