<!-- Copyright (c) 2022 - 2023 Jan Stehno -->
<svg xmlns="http://www.w3.org/2000/svg" viewBox="0 0 300 200"><title>whitetaildeer_organs</title><g id="whitetaildeer"><g id="organs"><path d="M177,136.88c6.64-2.69,10.75-11.5,12.38-27.13s-3.13-21.25-8.13-22.37-11.62,6-14.87,17.25S152.25,146.88,177,136.88Z" transform="translate(0 0)" fill="#1e88e5" opacity="0.7"/><path d="M194,136.75c10.5-3.12,16.13-4,12.13-11.37S195.25,114.75,193,105.75s-6-18.66-12-16-14.5,33.88-10.37,42.75S187.74,138.61,194,136.75Z" transform="translate(0 0)" fill="#1e88e5" opacity="0.7"/><path d="M200.83,121.67c1.75,4.4,10.34,3.08,12.84,5.75s12.83-1.59,13-4.92,3.08-2.5,3.66-5.67,1.59-3.75,3.42-6.08,4.17-3.08,4.83-7,5-6.17,9.59-6.75,12.08.42,8.16-4.25S246.08,91.17,243,91.5s-4.33-5.83-12.67-7.17-12.33.75-24.25.42-21.25,2.83-20.25,11.5,2.84,14.08,6.34,16.08S199.25,117.67,200.83,121.67Z" transform="translate(0 0)" fill="#1e88e5" opacity="0.7"/><path d="M135.7,145.66c-5.54-.34-7.93-.53-9.62-3.68s-.86-4.69-2.59-8.35-3.43-5.6-3.23-6.73,1.89-1.77,2.61-.94,2.5,7.39,3.19,7.52.63-1.27.13-3.62-.54-4.15-1.33-4.5-1.78-.77-.85-1.26,2,.06,2.24-.68,1-.91,1.38-.47,1.44-.39,2.1.12-.14,3.52.93,5,6.52,2.44,8.17,6.43a28.8,28.8,0,0,1,2.13,9.84C140.88,145.66,138,145.8,135.7,145.66Z" transform="translate(0 0)" fill="#e53935" opacity="0.7"/><path d="M121.75,135.92c5.85,5.38,25.25,10.25,37.92,3.16s13.5-22.08,14.58-34.58,2.58-17.33-6.67-15.67-31.33,8.59-38.25,10.84-13.83,8.27-14.75,15.92S117.58,132.08,121.75,135.92Z" transform="translate(0 0)" fill="#ffb300" opacity="0.7"/><path d="M56.19,27.88c.53,3.56,7.94,1.06,11.81,2.37s7.06-2.5,4.5-5.44-7-3.56-11.06-1.93S55.94,26.19,56.19,27.88Z" transform="translate(0 0)" fill="#1e88e5" opacity="0.7"/></g></g><g id="frame"><rect id="frame-2" width="300" height="200" fill="none"/></g></svg>