<svg xmlns="http://www.w3.org/2000/svg" viewBox="0 0 30 20"><path d="M26.73,20H25.44a5.09,5.09,0,0,0,.4-1.56c0-.73,0-1-.67-1.31S23.29,16,23.29,16A3.32,3.32,0,0,0,23,17.31c.09.5.18.54-.3,1A8.41,8.41,0,0,0,21.64,20H20.35a5.67,5.67,0,0,0,1-2,6.69,6.69,0,0,0-.72-2.58,8.14,8.14,0,0,1-2.47.59,5.85,5.85,0,0,1-2.42-.32,10.89,10.89,0,0,0-.43,2c0,.82-.19,1.42-.19,1.74a3.78,3.78,0,0,0,0,.56h-1s0-.66,0-1.12S14,17.38,14,17.38a7.94,7.94,0,0,0-.4,1.54c0,.48,0,1.06,0,1.06H12.38a7.78,7.78,0,0,0,.3-2.3c0-1.32-.1-2.22-1.9-2.72a10.21,10.21,0,0,0-4-.54c-1.6.06-2.09.11-2.47-.13a8.59,8.59,0,0,1-.79-.56.6.6,0,0,0-.36-.09c-.18,0-.31,0-.44-.31s-.44-.28-.49-.5,0-.2.15-.27a2.17,2.17,0,0,0,.75-.66c.33-.42.85-.51,1.48-1A4.07,4.07,0,0,0,6,9.38c.38-.79.37-1.28.75-1.59a1,1,0,0,1,.65-.28A1,1,0,0,1,7.57,7c.16-.29.28-.35.36-.24a3.2,3.2,0,0,1,.2.44,1.84,1.84,0,0,1,.28-.81c.23-.29.45-.47.56-.26s.28,1,.3,1.08a7.35,7.35,0,0,0,1.32-.54,5.14,5.14,0,0,1,3.12-.42c1.37.21,3.18.89,4.53,1.09a43.53,43.53,0,0,0,4.82-.18c1.13,0,2.1.89,3.32,1.61s1.39.91,1.51,1.68-.08,1.5,0,1.78,0,.58-.05.5,0,.55-.12.47-.29-.11-.22-.26-.19-.22-.1-.43a5.44,5.44,0,0,0,.09-1.1s-.47,1.31-.72,1.84a4.64,4.64,0,0,0-.69,1.71A2.06,2.06,0,0,0,27,16.53c.44.19.32.78.15,1.07a5.13,5.13,0,0,0-.41,1.49A6.5,6.5,0,0,0,26.73,20Z" transform="translate(0 0.02)" fill="#ccc"/><rect width="30" height="20" fill="none"/></svg>