<svg xmlns="http://www.w3.org/2000/svg" viewBox="0 0 30 20"><path d="M17.68,14c.9-.24,1.13-1.13,1.47-2.22s.49-2,.07-2.46-1.17-.29-1.65.6-1.39,2.4-1.32,3.15A1,1,0,0,0,17.68,14Z" transform="translate(0 0.02)" fill="#1e88e5" opacity="0.7"/><path d="M19,14.69c1.14.09,2-.17,1.94-.81s-.54-1-.82-1.89-.62-2.55-.92-2.67-.59.36-1.21,1.19-1.21,2.47-.72,3.2A2.17,2.17,0,0,0,19,14.69Z" transform="translate(0 0.02)" fill="#1e88e5" opacity="0.7"/><path d="M20.38,13.06c.13.7.71.45,1,.76a1.79,1.79,0,0,0,1.8-.16c.17-.33.66-.38.72-.65s.5-.48.71-.86.15-.82.38-.86.66.15,1.06.09,1.2.14.6-.48-.93,0-1.33-.3-.42-.73-1.15-.95a13.88,13.88,0,0,0-1.95-.27c-1.25-.21-2.48-.14-2.59.31a3.09,3.09,0,0,1-.11.46,3.26,3.26,0,0,0,.19,1.59C19.94,12.26,20.26,12.46,20.38,13.06Z" transform="translate(0 0.02)" fill="#1e88e5" opacity="0.7"/><path d="M13.4,14.19c-.54-.14-.77-.2-.87-.53s0-.47-.1-.86-.23-.6-.19-.7.22-.14.27,0,.11.75.17.78.09-.11.08-.35,0-.41,0-.46-.16-.1-.06-.13.19,0,.23,0,.11-.07.14,0,.15,0,.21.05-.08.34,0,.5.59.35.68.77a3,3,0,0,1,0,1C13.91,14.28,13.62,14.24,13.4,14.19Z" transform="translate(0 0.02)" fill="#e53935" opacity="0.7"/><path d="M13.91,13.93c1.53.09,2.35.4,3.35-1.55s1.12-3.05.71-3.3-2.22,0-3.59-.07-2.44,1.67-2.59,2.49S11.53,13.78,13.91,13.93Z" transform="translate(0 0.02)" fill="#ffb300" opacity="0.7"/><path d="M6.82,9.87c.45.12.67-.22,1-.35s.47-.45.16-.69-.72,0-1,.33l-.26.32S6.57,9.8,6.82,9.87Z" transform="translate(0 0.02)" fill="#1e88e5" opacity="0.7"/><rect width="30" height="20" fill="none"/></svg>