<!-- Copyright (c) 2022 - 2023 Jan Stehno -->
<svg xmlns="http://www.w3.org/2000/svg" viewBox="0 0 300 200"><title>wildboar_body</title><g id="wildboar"><path d="M267.31,200h-12.9s3.65-8.25,4-15.56-.31-9.56-6.62-13.13-18.81-11.37-18.81-11.37-3.5,8.37-2.69,13.37,1.75,5.44-3.06,10.07S216.44,200,216.44,200H203.5s8.42-11.23,9.58-20-7.16-25.8-7.16-25.8A81.83,81.83,0,0,1,181.25,160,57.26,57.26,0,0,1,157,156.83s-3.75,12.09-4.25,20.25-1.92,14.13-1.92,17.34a43.75,43.75,0,0,0,.34,5.58H140.71s.51-6.56.35-11.16S139.53,174,139.53,174s-3.78,10.69-4,15.47,0,10.53,0,10.53H123.84a77.92,77.92,0,0,0,3-22.92c-.19-13.21-1-22.27-19-27.27s-24.06-6.06-40.06-5.39S46.83,145.5,43,143.17a93,93,0,0,1-7.92-5.59,5.78,5.78,0,0,0-3.58-.91c-1.75.29-3.13-.46-4.42-3.09s-4.41-2.83-4.91-5.08-.05-2,1.5-2.63,4.25-2.5,7.54-6.66S39.75,114.12,46,109s10.6-7.17,14.42-15,3.68-12.75,7.5-15.88,6.56-2.81,6.56-2.81a9.4,9.4,0,0,1,1.28-5.25c1.59-2.94,2.81-3.5,3.59-2.37a28.23,28.23,0,0,1,1.94,4.37s.56-5.19,2.88-8.12,4.46-4.72,5.59-2.57,2.78,10.5,3,10.75,5.72-1.78,13.19-5.34,17.47-6.47,31.15-4.28,31.82,8.94,45.32,10.94,36.87-2.06,48.18-1.81,21.07,8.93,33.19,16.12,13.94,9.13,15.12,16.81-.81,15,.32,17.82.37,5.81-.44,5-.31,5.5-1.27,4.62-2.92-1.08-2.19-2.52-1.87-2.21-1-4.29.94-11,.94-11-4.75,13.06-7.25,18.35-6.88,11.4-6.88,17.09,4.67,14,9.09,15.91,3.21,7.79,1.54,10.71-3.71,10.46-4.17,14.92A68.91,68.91,0,0,0,267.31,200Z" transform="translate(0 0)" fill="#ccc"/></g><g id="frame"><rect id="frame-2" width="300" height="200" fill="none"/></g></svg>