<!-- Copyright (c) 2022 - 2023 Jan Stehno -->
<svg xmlns="http://www.w3.org/2000/svg" viewBox="0 0 300 200"><title>wildboar_organs</title><g id="wildboar"><g id="organs"><path d="M176.83,140.24c8.95-2.36,11.25-11.32,14.67-22.16s4.92-19.75.67-24.66-11.67-2.92-16.42,6-14,24-13.25,31.5S168.67,142.4,176.83,140.24Z" transform="translate(0 0)" fill="#1e88e5" opacity="0.7"/><path d="M190.17,147.17c11.47.83,19.83-1.75,19.41-8.09s-5.41-9.83-8.16-18.91-6.25-25.5-9.25-26.75-5.84,3.66-12.09,11.91-12.08,24.75-7.16,32A21.71,21.71,0,0,0,190.17,147.17Z" transform="translate(0 0)" fill="#1e88e5" opacity="0.7"/><path d="M203.75,130.88c1.3,7,7.13,4.43,9.63,7.56s16.25,1.81,18-1.56,6.62-3.88,7.18-6.57,5.07-4.75,7.19-8.56,1.44-8.25,3.75-8.62,6.63,1.56,10.56.87,12,1.44,6-4.75-9.31-.37-13.25-3-4.18-7.31-11.5-9.5-7.12-.69-19.56-2.75S197,92.63,195.88,97.19s-.85,4.25-1.12,4.56-.82,10.75,1.93,15.94S202.63,124.81,203.75,130.88Z" transform="translate(0 0)" fill="#1e88e5" opacity="0.7"/><path d="M134,142.13c-5.36-1.35-7.67-2-8.74-5.33s0-4.67-1-8.51-2.31-6-1.9-7.08,2.19-1.35,2.73-.41,1.08,7.57,1.73,7.82.85-1.1.8-3.46.25-4.09-.46-4.58-1.6-1.06-.6-1.36,1.91.42,2.32-.25,1.1-.69,1.44-.19,1.49-.11,2,.51-.8,3.36,0,4.93,5.92,3.56,6.79,7.7a27.68,27.68,0,0,1,.25,9.87C139.08,143.09,136.18,142.68,134,142.13Z" transform="translate(0 0)" fill="#e53935" opacity="0.7"/><path d="M139.08,139.5c15.36.92,23.5,4,33.5-15.5s11.17-30.5,7.09-33-22.17-.25-35.92-.67S119.42,107,117.92,115.26,115.33,138.08,139.08,139.5Z" transform="translate(0 0)" fill="#ffb300" opacity="0.7"/><path d="M68.25,98.92c4.49,1.19,6.67-2.17,9.92-3.5s4.75-4.5,1.66-6.84-7.25.09-9.91,3.25L67.25,95S65.75,98.25,68.25,98.92Z" transform="translate(0 0)" fill="#1e88e5" opacity="0.7"/></g></g><g id="frame"><rect id="frame-2" width="300" height="200" fill="none"/></g></svg>