<svg xmlns="http://www.w3.org/2000/svg" viewBox="0 0 30 20"><polygon points="14.51 13.34 14.86 13.51 15.16 13.53 15.57 13.32 16.39 12.6 17.1 11.39 17.36 10.42 17.3 9.53 16.78 8.85 16.16 8.46 15.78 8.47 15.24 8.61 14.71 8.96 14.45 9.5 14.32 10.15 14.28 10.8 14.15 11.37 14.07 12.14 14.2 12.82 14.51 13.34" fill="#1e88e5" opacity="0.7"/><polygon points="16.05 13.79 16.8 14.11 17.71 14.31 18.52 14.21 19.23 13.84 19.61 13.46 19.8 12.95 19.74 12.34 18.09 9.49 17.71 9.05 17.3 8.95 16.88 9.09 16.45 9.54 15.85 10.31 15.49 10.71 15.25 11.21 15.12 11.73 15.19 12.45 15.39 13.06 15.72 13.54 16.05 13.79" fill="#1e88e5" opacity="0.7"/><polygon points="18.74 12.26 19.24 12.51 19.65 12.9 20.28 13.24 20.66 13.43 21.3 13.32 21.72 12.83 21.96 12.06 22.26 10.92 22.39 10.36 22.5 10.23 22.92 10.13 23.25 10 23.47 9.89 23.73 9.87 23.86 9.88 24.02 9.84 24.07 9.67 24.05 9.52 23.97 9.41 23.77 9.35 23.52 9.34 23.29 9.4 22.98 9.5 22.7 9.51 22.21 9.37 21.32 9 20.57 8.83 19.38 8.87 18.59 8.9 18.02 9.01 17.79 9.2 17.73 9.42 17.7 9.94 17.7 10.66 17.75 10.98 17.92 11.25 18.18 11.44 18.36 11.64 18.54 11.98 18.74 12.26" fill="#1e88e5" opacity="0.7"/><polygon points="3.97 8.21 3.93 8.41 4.05 8.66 4.36 8.88 4.66 8.96 5 8.9 5.33 8.61 5.67 8.18 5.74 7.99 5.69 7.82 5.51 7.72 5.23 7.69 4.86 7.71 4.44 7.81 4.14 7.97 3.97 8.21" fill="#1e88e5" opacity="0.7"/><polygon points="10.08 12.02 10.05 12.29 10.07 12.58 10.24 12.8 10.67 12.96 11.2 12.98 11.46 12.87 11.54 12.59 11.44 12.06 11.16 11.61 10.88 11.41 10.61 11.38 10.33 11.54 10.17 11.75 10.08 12.02" fill="#e53935" opacity="0.7"/><polygon points="9.13 9.5 9 10.14 9.12 10.95 9.47 12.04 9.82 12.54 10.42 12.92 11.21 13.15 12.31 13.39 13.23 13.52 14.01 13.49 14.31 13.33 14.92 12.41 15.8 10.78 16.08 9.37 15.8 8.67 15.28 8.27 14.14 7.9 12.71 7.8 11.13 8.07 9.85 8.49 9.28 9 9.13 9.5" fill="#ffb300" opacity="0.7"/><rect width="30" height="20" fill="none"/></svg>