<svg xmlns="http://www.w3.org/2000/svg" viewBox="0 0 30 20.02"><polygon points="1.31 4.84 1.37 4.88 1.42 5.03 1.5 5.43 1.66 5.85 1.9 6.14 2.35 6.47 2.94 6.74 3.51 6.92 3.64 6.95 3.63 6.74 3.69 6.56 3.78 6.4 3.85 6.36 3.91 6.41 3.9 6.52 3.86 6.7 3.88 6.86 3.91 6.99 4.05 7 4 6.98 4.42 6.96 4.35 6.94 4.84 6.9 4.75 6.88 5.29 6.81 5.23 6.78 5.61 6.73 5.86 6.75 6.1 6.84 6.25 6.95 6.49 7.18 6.46 7.12 6.79 7.38 6.78 7.31 7.02 7.38 7.04 7.33 7.19 7.3 7.33 7.1 7.39 6.93 7.33 6.96 7.65 6.56 7.55 6.57 7.86 6.28 7.75 6.28 8.16 6 7.89 6.04 8.52 5.83 8.22 5.76 9.13 5.69 8.8 5.51 9.87 5.57 9.58 5.41 10.61 5.54 10.62 5.42 11.56 5.6 11.55 5.51 12.73 5.71 13.93 5.99 14.76 6.35 15.4 6.78 16.37 7.16 17.29 7.35 18.46 7.34 19.69 7.12 20.45 7.11 21.46 7.21 22.63 7.6 23.24 7.92 23.8 8.16 24.3 8.36 25.02 9.04 25.65 9.62 26.63 10.22 27.3 10.91 27.91 11.68 28.15 12.14 28.4 13.63 28.65 14.61 28.96 15.61 28.78 15.47 28.52 16.27 28.31 16.22 28.01 16.96 27.72 16.8 27.18 17.31 26.68 17.02 26.77 17.86 26.9 18.36 27.03 18.69 27.03 18.8 26.99 18.93 26.91 18.97 26.82 19 26.77 19.14 26.75 19.28 26.75 19.53 26.73 19.7 26.69 19.77 26.53 19.84 26.41 19.95 26.25 20.02 25.09 20.02 25.01 19.92 24.89 19.89 24.87 19.78 24.96 19.6 25.18 19.29 25.14 19.18 25.36 18.81 25.49 18.41 25.44 17.49 25.2 16.75 24.9 16.41 24.35 15.99 24.05 15.88 23.96 16.47 23.9 16.95 23.94 17.45 23.98 17.76 24.01 17.88 23.94 17.98 23.85 17.98 23.74 18.04 23.59 18.23 23.37 18.51 23.21 18.57 22.43 18.57 22.11 18.47 22 18.41 22 18.31 21.95 18.25 22.18 17.97 22.29 17.8 22.28 17.68 22.65 17.3 22.74 16.89 22.75 16.25 22.51 15.67 22.11 16.15 21.66 16.39 21.13 16.43 20.6 16.74 19.72 16.82 19.17 17 18.61 16.93 17.93 16.97 17.22 16.8 16.39 16.9 15.65 16.71 15.09 16.64 14.56 16.39 14.04 16.5 13.52 16.37 13.36 16.96 13.33 17.38 13.39 17.63 13.45 17.89 13.43 18 13.36 18.05 13.33 18.16 13.27 18.21 13.15 18.22 12.99 18.41 12.81 18.67 12.51 18.85 12.34 18.88 12.38 19.01 12.34 19.11 12.21 19.19 12.12 19.17 11.94 19.35 11.81 19.66 11.63 19.75 11.53 19.9 11.24 20.02 10.57 20.02 10.12 19.9 10.08 19.81 10.14 19.73 10.14 19.68 10.53 19.19 10.77 18.81 11 18.35 11.24 17.86 11.29 17.4 11.19 16.97 11.17 16.3 10.85 15.55 10.83 15.87 10.38 15.01 10.36 15.34 10.01 14.81 9.76 14.59 9.03 14.29 7.95 13.77 7.44 13.4 7.12 12.95 6.6 12.6 6.11 12.28 5.56 12.23 5.03 12.41 4.6 12.69 4.23 13.03 3.92 13.29 3.63 13.4 3.26 13.38 3.02 13.3 2.87 13.18 2.73 13.23 2.54 13.14 2.25 12.94 2.09 12.7 2.07 12.49 2.12 12.3 2.18 12.23 2.18 12.06 2.28 11.85 2.4 11.62 2.65 11.06 2.79 10.4 2.9 9.74 2.96 9.2 2.83 9.31 2.94 8.88 2.81 8.92 2.99 8.53 2.87 8.58 3.2 8.19 3.06 8.13 3.44 7.97 3.33 7.9 3.61 7.83 3.27 7.63 2.69 7.34 1.9 6.82 1.52 6.41 1.31 5.87 1.24 5.46 1.24 5.16 1.25 4.95 1.28 4.88 1.31 4.84" fill="#ccc"/><rect width="30" height="20" fill="none"/></svg>