<svg xmlns="http://www.w3.org/2000/svg" viewBox="0 0 30 30"><path d="M21.8,4.78h-.32L6.16,20.1a1,1,0,0,0,.25.66c.25.25.43.18,1-.17s1.71.17,2.13.59a11.06,11.06,0,0,1,1.55,3.72,18.68,18.68,0,0,0,1.31,3.74,2.34,2.34,0,0,0,.72.86,2.46,2.46,0,0,0,.71,0,6.31,6.31,0,0,0,.77-.23,1,1,0,0,0,.17.66c.21.21.28.18,1.81-1.35s2-1.94,2-2.18-.21-.35-.36-.49L18,25.68a1.91,1.91,0,0,0,.16-.61c0-.22.08-.36-.24-.64a3.18,3.18,0,0,1-.78-1.54c-.06-.5.11-.73-.35-1.1a1.43,1.43,0,0,1-.52-1.23c0-.44,0-.44-.44-.83s-.82-1-.61-1.41a1.13,1.13,0,0,1,.82-.69c.39-.11.66-.52,1.94-1.79s1.74-1.66,1.51-1.89a9.73,9.73,0,0,1-1.18-.86c-.58-.58-.74-1-.5-1.6a1.45,1.45,0,0,1,.68-.85,14.23,14.23,0,0,0,2-2.07A1.59,1.59,0,0,1,20.93,8L21,8.1l1.56-1.56.15-.43-.06-.34,3-3-.93-.92ZM17.19,15.89c-1,1-1.53,1.28-2,1.17a1.82,1.82,0,0,1-.91-.76.94.94,0,0,0,.55-.1c.17-.15.18-.17.33-.11a2.37,2.37,0,0,0,1.15,0c.54-.1.8-.36.65-.36a.81.81,0,0,1-.35-.1l.22-.13c.13-.1.3-.31.05-.25a3.82,3.82,0,0,1-1.17,0c-.35,0-.8-.59-.8-.59A7.23,7.23,0,0,1,16,13.27a1.19,1.19,0,0,1,1.75.16C18.53,14.18,18.19,14.89,17.19,15.89Z" transform="translate(0 0)" fill="#212121"/><path d="M5.74,20H6l15.5-15.5h.3l2.91-2.92a3.66,3.66,0,0,0-.78-.91C23.25,0,23.06,0,23.06,0h-.47l-.15.16-.58-.1L21.52.4l.22.41L13.26,9.29l.35.35c.25.24.63.7.14,1.19l-1.63,1.63a.61.61,0,0,1-.95,0l-.49-.49L5.21,17.41l-.16-.16H4.71l-.32.32L4.6,18l-.28.28v.3Z" transform="translate(0 0)" fill="#212121"/><path d="M10.87,11.83,13.2,9.5l.3.3a.64.64,0,0,1,.09.95L12.1,12.24a.58.58,0,0,1-.87-.05C11,11.92,10.87,11.83,10.87,11.83Z" transform="translate(0 0)" fill="#212121"/><rect width="30" height="30" fill="none"/></svg>