<!-- Copyright (c) 2022 Jan Stehno -->
<svg xmlns="http://www.w3.org/2000/svg" viewBox="0 0 300 300"><title>10mmdavani</title><g id="handguns"><g id="_10mmdavani" data-name="10mmdavani"><path d="M218,47.79h-3.17L61.62,201s-.06,4.08,2.45,6.59,4.3,1.87,10.54-1.66,17.1,1.66,21.31,5.88,9.41,16.7,15.45,37.21,9.5,31.65,13.11,37.41S130,294,131.66,295a26.68,26.68,0,0,0,7.16-.15,70.44,70.44,0,0,0,7.72-2.3s-.41,4.41,1.7,6.52,2.79,1.89,18.08-13.41,19.93-19.4,19.63-21.82-2.07-3.5-3.5-4.93l-2.11-2.11s1.62-3.88,1.54-6.07.87-3.58-2.37-6.44-7.16-10.32-7.76-15.37,1-7.35-3.51-11S163.05,210,163,205.58s.11-4.33-4.37-8.29-8.21-9.87-6.14-14,4.26-5.84,8.21-6.94,6.67-5.16,19.44-17.93,17.37-16.61,15.11-18.88-6.1-2.86-11.87-8.62-7.38-10.25-4.93-16,4.78-7.49,6.74-8.47,18.65-17.14,20.2-20.65a17.26,17.26,0,0,1,3.91-5.57l.83.82,15.56-15.56,1.58-4.29-.64-3.43,30.18-30.18-9.27-9.27Zm-46.11,111.1c-10,10-15.23,12.8-20.37,11.73s-9.1-7.58-9.1-7.58,3.73.4,5.48-1.07,1.83-1.68,3.3-1,6.25,1.21,11.56.19,7.92-3.62,6.45-3.58a9.21,9.21,0,0,1-3.51-1,16,16,0,0,0,2.19-1.35c1.32-.94,3-3.09.49-2.45s-8.25.49-11.68,0-8-5.88-8-5.88,7.31-11.23,11.64-14.13,9.95-5.87,17.45,1.62S181.9,148.86,171.87,158.89Z" transform="translate(0 0)" fill="#212121"/><path d="M57.36,200.12h2.76l155-155h2.94l29.16-29.16s-.85-2.21-7.8-9.16S230.62,0,230.62,0h-4.69l-1.56,1.55-5.73-1L215.24,4l2.15,4.18L132.6,92.93s1,.94,3.51,3.43,6.33,7.08,1.43,12S124,121.79,121.23,124.58s-6.26,2.93-9.5-.31l-4.9-4.89L52.09,174.12l-1.58-1.58H47.06l-3.19,3.19L46,180.45l-2.77,2.77v2.94Z" transform="translate(0 0)" fill="#212121"/><path d="M108.75,118.31,132,95l3,3c1.95,2,4.41,5.94.88,9.47L121,122.38c-2.65,2.65-6,2.12-8.68-.52S108.75,118.31,108.75,118.31Z" transform="translate(0 0)" fill="#212121"/></g></g><g id="frame"><rect width="300" height="300" fill="none"/></g></svg>