<!-- Copyright (c) 2023 Jan Stehno -->
<svg xmlns="http://www.w3.org/2000/svg" viewBox="0 0 300 300">
    <title>223docent</title>
    <g id="rifles">
        <g id="_223docent" data-name="223docent">
            <path
                d="M214.55,76.76c-3.35-.83-11.37-2.89-11.37-2.89l-87.33,87.46,4.47,4.4-1.61,1.69.42,4.07a2,2,0,0,1,.23.16c3.17-2.77,6.15-4.8,7.31-4.36,2.89,1.1,3.52,5.39,3.52,5.39s-1.79-3.4-4.13-2.89c-.89.2-2.94,1.84-5.24,4a10.74,10.74,0,0,1,.72,2.81c.5,4.06-.53,5.25-2.78,6-1.74.55-3.41,0-4.36-2.23a22.62,22.62,0,0,0-2.64,3.4,8.24,8.24,0,0,0-.62,5.85s-2.26-3.17-1.84-6.19c.14-1.06,2-3.48,4.39-6.13-.36-3.81,1.23-5.2,1.23-5.2l-.33-3.33-3.48-3.29-1.58,1.6,1,.89-1.34,1.32,1.75,1.69-2.75,2.89-1.86-1.65-3,3.16-1.52-1.17-6.18,6.67a6.84,6.84,0,0,1,2.75,5.3c.07,3.5-3.72,15.19-4,19.94-.14,2.31-.2,3.8-.29,4.77h0c0,.37-.06.66-.1.9-.18,1.57-.53,5-.68,8.76-.2,5.16.48,14.54.48,14.54s-1.44-3.4-2.16-10.52-1.12-12.44-1.12-12.44c-2.76-.55-6.61-1.32-8.65-.93-3.3.62-15.54,11.64-24.15,19.62s-18,16.87-18.07,19.62a24.62,24.62,0,0,0,.55,6.69c.37,1-.91,2.38-5.5,7.52s-9,10.27-8.62,12.92,11.56,14.31,21,18.8S57.91,303.35,65.7,291s34.75-60.74,38.67-61c3.71-.26,4.61,3.09,5.84,3.09s7.15-2.75,11.42-6.74,6.39-4.88,2.47-9.21S113.72,204.86,113,199.77s1.45-4.81,6.19-4.54,8.18.35,13.13-5.7a20.43,20.43,0,0,0,4.41-15.61c-.35-3.17,0-5.57.61-6.47s.21,1.52.76,2.82,1.79,2.48,2.34,1.45,0-1.31-.76-2.89-.41-3.72,2.34-6.19,72-79.6,73.32-81.25S217.89,77.58,214.55,76.76ZM61.07,287.44s-11.09-12.19-10-22.92,10.82-19.94,10.82-19.94a18.39,18.39,0,0,0-3.17,10.18,76.44,76.44,0,0,0,3,17.1l-2.45,4.05ZM75.14,252a214.16,214.16,0,0,1-12.28,18.18s-3.81-13.09-2.16-19.56S77.21,229.13,80,229.41s5.36,3.09,5.29,5.22S79.48,244.4,75.14,252ZM133,183.75c-.82,4.74-3.78,8.18-8.45,8.49a10.57,10.57,0,0,1-7.6-2.51l3.69-3.69s2.91,3.83,5.83,3.69,4.16-1.37,2.55-1.27a6.24,6.24,0,0,1-5-3.3c-.62-1.69.77-3.8,2.85-5.88l3.73-3.73A10.31,10.31,0,0,1,133,183.75ZM201.48,92s.07-3.75-.11-6.3c-.3-4.27-1.56-2.91-3.39-1.08s-58.06,58.63-61.87,62.62-3.71,7.33-2.93,9.58,1,8.94,1,8.94c-.69-3.3-2.15-6.6-3.21-10.45s1.1-7.2,3-9.08l64.32-64.31c2-2,4.4-1.1,4.49,1.46S201.48,92,201.48,92Z"
                transform="translate(0)" fill="#212121" />
            <path
                d="M112.45,165l3-2.79,3.39,3.48L117.58,167l.47,5.18s1.91.27,2.34,4.17c.45,4.12,0,4.67-2.34,5.13s-3.07-1.93-3.25-4.58c-.25-3.59,1.26-4.48,1.26-4.48l-.4-4.26Z"
                transform="translate(0)" fill="#212121" />
            <path
                d="M94.57,180.89,93.3,180l-.55-3.3,2.79-2.94a4.61,4.61,0,0,1,.2-2.29c.41-1.79,11.24-12.41,12.27-13.44s1.58-1.55,1.58-1.55l-1.66-1.66,8.86-8.86,2.32,2.31,21.11-21.11-2.55-2.54,7.61-7.61,2.73,2.73L175.67,93a5.25,5.25,0,0,1,0-2.37A4.5,4.5,0,0,1,177,88.45l-1.65-1.65,1.46-1.47,1.84,1.84a5.1,5.1,0,0,1,2.68-1,3.09,3.09,0,0,1,1.86.38l71.21-71.22s-.45-.55,1.75-3.2,5-5.73,5-5.73l-2.55-2.55S262.07,0,263.52,0s1.79.5,1.79.5S265.7,0,267,0a4.4,4.4,0,0,1,2.63,1.29l2.24-.51,2,2v4l-67,67-3.91-1-91.42,92-.55-.5-2.52,2.61.94,1-1.24,1.33,1.67,1.68-1.66,1.8-1.77-1.65-3.19,3.22-1.45-1.1Z"
                transform="translate(0)" fill="#212121" />
        </g>
    </g>
    <g id="frame">
        <rect width="300" height="300" fill="none" />
    </g>
</svg>