<svg xmlns="http://www.w3.org/2000/svg" viewBox="0 0 30 30"><path d="M21.45,7.68l-1.13-.29-8.73,8.74.44.44-.16.17,0,.41,0,0c.31-.28.61-.49.73-.44.29.11.35.54.35.54s-.18-.34-.41-.29a1.94,1.94,0,0,0-.53.39,1,1,0,0,1,.07.29c0,.4-.05.52-.27.59a.33.33,0,0,1-.44-.22,1.69,1.69,0,0,0-.26.34.81.81,0,0,0-.07.58,1,1,0,0,1-.18-.62,2,2,0,0,1,.44-.61.6.6,0,0,1,.12-.52l0-.33-.35-.33L11,16.7l.11.09-.14.13.18.17-.28.29-.18-.17-.31.32-.15-.12-.62.67a.69.69,0,0,1,.28.53c0,.35-.37,1.52-.4,2,0,.23,0,.38,0,.48h0s0,.07,0,.09-.05.5-.07.88.05,1.45.05,1.45a4.31,4.31,0,0,1-.22-1.05c-.07-.71-.11-1.24-.11-1.25a3,3,0,0,0-.86-.09,13.27,13.27,0,0,0-2.42,2c-.86.8-1.79,1.69-1.8,2a2.26,2.26,0,0,0,0,.66c0,.11-.09.24-.55.76s-.9,1-.86,1.29a5.44,5.44,0,0,0,2.1,1.88c.94.45,1.08.7,1.86-.53S10,23,10.44,23s.46.31.58.31a2.86,2.86,0,0,0,1.14-.68c.43-.4.64-.49.25-.92A4.56,4.56,0,0,1,11.3,20c-.07-.51.15-.48.62-.46A1.28,1.28,0,0,0,13.24,19a2.07,2.07,0,0,0,.44-1.56,1.09,1.09,0,0,1,.06-.64c.06-.09,0,.15.07.28s.18.24.24.14,0-.13-.08-.29,0-.37.24-.62,7.2-8,7.33-8.12S21.79,7.76,21.45,7.68ZM6.11,28.74a3.74,3.74,0,0,1-1-2.29,3.85,3.85,0,0,1,1.08-2,1.88,1.88,0,0,0-.31,1,7.75,7.75,0,0,0,.29,1.71l-.24.4Zm1.4-3.54A20.35,20.35,0,0,1,6.29,27a5.3,5.3,0,0,1-.22-1.95A5.16,5.16,0,0,1,8,22.94a.64.64,0,0,1,.53.52A13,13,0,0,1,7.51,25.2Zm5.79-6.83a.93.93,0,0,1-.85.85,1,1,0,0,1-.76-.25l.37-.37s.29.39.58.37.42-.13.26-.12a.64.64,0,0,1-.5-.33c-.06-.17.08-.38.29-.59l.37-.38A1.05,1.05,0,0,1,13.3,18.37ZM20.15,9.2s0-.37,0-.63c0-.42-.16-.29-.34-.11S14,14.33,13.61,14.73a.88.88,0,0,0-.29.95,4.63,4.63,0,0,1,.09.9c-.06-.33-.21-.66-.32-1a1,1,0,0,1,.3-.9l6.43-6.44c.2-.19.44-.11.45.15A5.22,5.22,0,0,1,20.15,9.2Z" transform="translate(0 0)" fill="#212121"/><path d="M11.25,16.5l.29-.28.34.35-.12.13.05.52s.19,0,.23.42,0,.46-.23.51-.31-.19-.33-.46.13-.45.13-.45l0-.42Z" transform="translate(0 0)" fill="#212121"/><path d="M9.46,18.09,9.33,18l-.06-.33.28-.29a.48.48,0,0,1,0-.23,12.14,12.14,0,0,1,1.23-1.34,1.83,1.83,0,0,1,.16-.16l-.17-.16.89-.89.23.23L14,12.72l-.25-.25.76-.76.27.27L17.57,9.3a.54.54,0,0,1,0-.24.47.47,0,0,1,.13-.22l-.17-.16.15-.15.18.19a.51.51,0,0,1,.27-.1.32.32,0,0,1,.19,0l7.12-7.12s-.05-.06.17-.32.51-.58.51-.58L25.86.39s.35-.39.49-.39.18.05.18.05,0,0,.17,0A.46.46,0,0,1,27,.13l.22,0,.2.2v.4l-6.7,6.7-.39-.1-9.14,9.2-.06-.05-.25.26.1.11-.13.13.17.17-.17.18-.17-.17-.32.32-.15-.11Z" transform="translate(0 0)" fill="#212121"/><rect width="30" height="30" fill="none"/></svg>