<svg xmlns="http://www.w3.org/2000/svg" viewBox="0 0 30 30"><polygon points="10.7 18.85 10.8 18.75 10.61 18.55 10.7 18.85" fill="#212121"/><path d="M27.88.25h-.33L27.3,0l-1,1,.13.13L26.54,1l.18.19L19.47,8.45,19,8.71l-.15-.15-.12.12.15.15-.27.5L13.93,14l-.14-.15L9.71,17.91a.73.73,0,0,1-.13.37,5.78,5.78,0,0,0-.44.68.9.9,0,0,0,0,.33l.83-.83.26.25v0c0-.09,0-.18.17-.23a.23.23,0,0,1,.12,0l-.26-.27L19,9.43l.15.16L28.06.67V.43Z" transform="translate(0 0)" fill="#212121"/><path d="M19.2,10.7c.13-.81-.21-1.11-.21-1.11l-8.61,8.57.58.58-.23.23.1.32a.24.24,0,0,1,.13.09.62.62,0,0,1,.12.33.35.35,0,0,1-.3.34.53.53,0,0,1-.45-.12.46.46,0,0,1-.12-.3.41.41,0,0,1,.14-.27s0-.27-.1-.47L10,18.6l-.84.84A4,4,0,0,1,9,20.85c-.22.59-.55,1.08-1.13,1.06s-.47,0-1.58,1a40.07,40.07,0,0,0-3.21,3,1,1,0,0,0,0,.38s-1.13.93-1.12,1.36,1,1.18,2,1.72,1.26.86,1.79.08,3.38-5.26,3.55-5.45.2-.15.42.06.78.12,1.23-.29.52-.53.13-1a2,2,0,0,1-.36-1.77c.18-.6.15-.59.7-.56A1.76,1.76,0,0,0,13,19.92c.49-.57.34-1,.22-1.09a.56.56,0,0,1-.11-.56C13.15,18.08,19.08,11.52,19.2,10.7Zm-.48.11a.73.73,0,0,1,0,.61,2.56,2.56,0,0,0-.14-.55,1.54,1.54,0,0,0-.23-.44A.54.54,0,0,1,18.72,10.81Zm-4.1,4.58a2.25,2.25,0,0,1-.24,1.17s0-.63,0-1.15a4.6,4.6,0,0,0-.12-.9A1.22,1.22,0,0,1,14.62,15.39Zm-8,8.17a13.42,13.42,0,0,1-3.18,3.25s-.28-.29-.28-.29a.56.56,0,0,0,.25.06A18,18,0,0,0,5,25.09c1.73-1.82,1.82-2.34,1.81-2.46A2.79,2.79,0,0,1,6.62,23.56Zm3.33-3a2,2,0,0,1-.75-.19,4,4,0,0,1,.77,0,6.51,6.51,0,0,1,.85.13A1.62,1.62,0,0,1,10,20.54Zm2.53-.4a.7.7,0,0,1-.85.08.69.69,0,0,1-.13-.54s.07.41.35.45.48,0,.47,0-.3,0-.45-.1a.4.4,0,0,1,0-.59c.21-.22.59-.35.78-.16A.55.55,0,0,1,12.48,20.14Z" transform="translate(0 0)" fill="#212121"/><path d="M10.48,19.4s-.26.17-.11.4.64.19.59-.13-.22-.29-.22-.29l-.24-.79a.11.11,0,0,0-.12,0c-.08,0-.07.07-.07.07Z" transform="translate(0 0)" fill="#212121"/><rect width="30" height="30" fill="none"/></svg>