<!-- Copyright (c) 2023 Jan Stehno -->
<svg xmlns="http://www.w3.org/2000/svg" viewBox="0 0 300 300">
    <title>243ranger</title>
    <g id="rifles">
        <g id="_243ranger" data-name="243ranger">
            <polygon points="106.95 188.49 107.99 187.45 106.07 185.54 106.95 188.49"
                fill="#212121" />
            <path
                d="M278.79,2.5h-3.32L273,0l-9.73,9.73L264.52,11l.86-.86L267.19,12,194.66,84.49l-5.08,2.59-1.47-1.48-1.2,1.2,1.47,1.48-2.65,5-46.46,46.46-1.41-1.4L97.11,179.1a8,8,0,0,1-1.27,3.74c-1.34,2.4-4,5.1-4.45,6.75a8.29,8.29,0,0,0-.1,3.3l8.33-8.33,2.55,2.55c0-.15,0-.28-.06-.36-.12-.91-.13-1.89,1.69-2.31a2.15,2.15,0,0,1,1.2,0l-2.62-2.63,87.5-87.51,1.56,1.56L280.59,6.74V4.3Z"
                transform="translate(0)" fill="#212121" />
            <path
                d="M192,107C193.3,98.86,190,95.87,190,95.87l-86.13,85.77,5.78,5.78-2.29,2.28,1,3.19a2.54,2.54,0,0,1,1.36.87,6.35,6.35,0,0,1,1.14,3.37,3.44,3.44,0,0,1-3,3.35,5.22,5.22,0,0,1-4.53-1.23,4,4,0,0,1-1.15-3,3.94,3.94,0,0,1,1.42-2.72s-.59-2.65-1-4.68L99.62,186l-8.43,8.43s.75,8.16-1.43,14.06-5.44,10.78-11.24,10.6-4.71-.18-15.87,10.43-31.73,28-32.09,30.37a10.64,10.64,0,0,0,0,3.81S19.32,273,19.41,277.29s10.15,11.79,19.94,17.23,12.66,8.62,17.91.81C61.53,289,91.05,242.7,92.82,240.8s2-1.5,4.15.61,7.82,1.22,12.38-2.92,5.16-5.24,1.29-9.86A19.77,19.77,0,0,1,107,211c1.77-6.06,1.5-6,6.94-5.65s10.88-.47,15.78-6.12,3.4-9.65,2.17-10.88a5.6,5.6,0,0,1-1.15-5.57C131.51,180.82,190.76,115.18,192,107Zm-4.81,1.11a7.38,7.38,0,0,1-.45,6.08,25.53,25.53,0,0,0-1.4-5.53,17,17,0,0,0-2.22-4.33A5.23,5.23,0,0,1,187.22,108.13Zm-41,45.77a22,22,0,0,1-2.41,11.66s.25-6.26,0-11.49a45.53,45.53,0,0,0-1.26-9S145.83,147.61,146.2,153.9Zm-80,81.66c-5,9.84-29.17,32.57-31.76,32.57-.55,0-2.85-2.94-2.85-2.94a6.58,6.58,0,0,0,2.53.63c.82-.13,12.19-10.64,16.3-15,17.27-18.12,18.2-23.38,18.09-24.55A24.83,24.83,0,0,1,66.17,235.56Zm33.32-30.19c-5.06-.44-7.46-1.86-7.46-1.86a44.26,44.26,0,0,1,7.68,0,55.94,55.94,0,0,1,8.46,1.34S106.31,206,99.49,205.37Zm25.3-4c-3.58,2.69-7.25,2-8.47.81s-1.53-3.36-1.3-5.33c0,0,.65,4,3.44,4.48s4.83.21,4.76-.27-3,.44-4.49-1-2.45-3.81-.34-5.92,5.9-3.48,7.79-1.6S129,198.17,124.79,201.36Z"
                transform="translate(0)" fill="#212121" />
            <path
                d="M104.76,194s-2.59,1.7-1,4.05,6.35,1.83,5.84-1.33-2.17-2.92-2.17-2.92L105,185.86a1.21,1.21,0,0,0-1.22-.3c-.75.21-.69.79-.69.79Z"
                transform="translate(0)" fill="#212121" />
        </g>
    </g>
    <g id="frame">
        <rect width="300" height="300" fill="none" />
    </g>
</svg>