<svg xmlns="http://www.w3.org/2000/svg" viewBox="0 0 30 30"><path d="M18.14,6.88c-.13,0-1.42,1.45-4.41,4.44S9.44,15.77,9,16a.59.59,0,0,1-.8-.17l-.33-.33-.7.7.43.43c.24.23.49.47.33.76s-1.08,2.12-1.35,2.44-.37.39-.25.59.78,1,.7,1.61a5.7,5.7,0,0,0-.17,2.16A38.55,38.55,0,0,0,9.74,30s1.35-.89,2.18-1.51a8,8,0,0,0,1.59-1.34c0-.14.06-.24-.28-.57s-.49-.32-.75-.58-.25-.82-.61-1.17-.56-.56-.56-.9-.37-.66-.62-.81a.8.8,0,0,1-.25-1c.17-.46.48-.79.59-.79s.3-.15.24-.28-.24-.5-.1-.64a2,2,0,0,1,1.22-.38,4,4,0,0,0,.76.19,1.42,1.42,0,0,1,.8.48,8.58,8.58,0,0,1,.61.89c0,.05.12-.06,0-.32a2.43,2.43,0,0,1-.4-1.4,13.36,13.36,0,0,1,1-2.47,2,2,0,0,0,.09-1.25l.1,0s.72-2.76,1.13-3.79a19.42,19.42,0,0,1,2.26-3.63c.61-.73.69-.76.68-.91s0-.55-.12-.65A3.31,3.31,0,0,0,18.14,6.88ZM12.28,19.76a3,3,0,0,0-.63,0l-.22-.25a1.09,1.09,0,0,1,.6-.27,4.15,4.15,0,0,1,.72.33l.14.07-.1.21A2.8,2.8,0,0,0,12.28,19.76ZM15,17.05c-.06.35-.75,1.74-.94,2.24s-.12.67-.27.82-.24.09-.51,0-.3-.2-.3-.2l.07-.14.21,0c.21,0,.39-.3.28-.26s-.33,0-.91-.28a4.39,4.39,0,0,1-1-.77,10.78,10.78,0,0,1,1.62-1.95c.67-.51,1.27-.51,1.52-.26A.91.91,0,0,1,15,17.05Z" transform="translate(0 0)" fill="#212121"/><path d="M5.27,18.4l.21.23a.69.69,0,0,1,.39-.35c.25-.07.41,0,.62-.1a2.69,2.69,0,0,1,.85-.12,6.76,6.76,0,0,0,.44-.86c0-.11-.07-.26-.3-.5L7,16.19l-.17.16,0,.08-.28.29.1.23-.3.29s.18.31.16.41-.08.06-.27.1-.24.2-.48.31A1.15,1.15,0,0,0,5.27,18.4Z" transform="translate(0 0)" fill="#212121"/><path d="M8.21,15.52,20.11,3.63l-.24-.24L21.6,1.08,21.21.7l.84-.48.21.22.17-.16h.24l.14.14L23.1.13h.35L23.58,0l1.15,1.15L19,6.85l-.86-.19c-.1,0,0-.07-.92.84L9.58,15.24c-.3.29-.58.61-.86.59A.92.92,0,0,1,8.21,15.52Z" transform="translate(0 0)" fill="#212121"/><path d="M7.82,14.72V14.5l-.19-.19.25-.25.2.2.18-.18h.21a15.58,15.58,0,0,1,1.44-1.27,7.32,7.32,0,0,0,.91-.77.62.62,0,0,0,.25.15.76.76,0,0,0,.2,0l-3,3Z" transform="translate(0 0)" fill="#212121"/><rect width="30" height="30" fill="none"/></svg>