<!-- Copyright (c) 2022 - 2023 Jan Stehno -->
<svg xmlns="http://www.w3.org/2000/svg" viewBox="0 0 300 300"><title>243rcuomo</title><g id="handguns"><g id="_243rcuomo" data-name="243rcuomo"><path d="M181.35,68.77c-1.23.32-14.19,14.57-44.08,44.46s-42.9,44.51-47.46,46.28-5.89.43-8-1.72l-3.27-3.26-7,7,4.28,4.28c2.36,2.36,4.83,4.72,3.27,7.66S68.28,194.64,65.55,197.8s-3.69,3.91-2.46,5.9,7.82,10.07,7,16.12-3.53,13.39-1.66,21.58S94.37,297.86,97.37,300c0,0,13.49-8.89,21.8-15.05s15.8-12.16,16-13.5.59-2.3-2.79-5.68-4.93-3.21-7.5-5.78-2.57-8.14-6.1-11.68-5.63-5.62-5.63-9.05-3.69-6.59-6.21-8-4.12-5.31-2.46-9.86,4.76-7.87,5.83-7.87,3-1.5,2.47-2.79-2.41-5-1-6.37,8.57-4.71,12.16-3.8,4.77,1.66,7.66,1.87,5.46,2.36,7.93,4.82,5.62,8.41,6.1,8.89,1.18-.64,0-3.21-4.82-7.82-4-14,7.12-18.59,9.85-24.75a19.92,19.92,0,0,0,.86-12.46l1-.18s7.18-27.67,11.32-37.95,16.5-28.93,22.57-36.28,6.93-7.65,6.86-9.15-.15-5.42-1.22-6.49S182.58,68.45,181.35,68.77Zm-58.6,128.82a29.84,29.84,0,0,0-6.26.16l-2.14-2.46s2.93-2.68,6-2.68c1.13,0,7.15,3.28,7.15,3.28l1.41.74-1,2A30.57,30.57,0,0,0,122.75,197.59Zm27.54-27.1c-.59,3.48-7.45,17.41-9.38,22.44s-1.18,6.64-2.73,8.19-2.36.86-5.09-.37-2.94-2.09-2.94-2.09l.64-1.39,2.09-.38c2.09-.37,4-3,2.78-2.57s-3.26.27-9-2.84a43.75,43.75,0,0,1-10.07-7.71s9.54-14.46,16.18-19.5,12.69-5.08,15.21-2.57S150.87,167,150.29,170.49Z" transform="translate(0)" fill="#212121"/><path d="M52.71,184l2.11,2.32a7,7,0,0,1,3.86-3.5c2.57-.71,4.1.18,6.25-1s8.46-1.18,8.46-1.18,4.28-7.43,4.43-8.57-.68-2.68-3-5-4.93-5.07-4.93-5.07l-1.6,1.53.32.82-2.75,2.89,1,2.36-3,2.89s1.86,3.07,1.61,4-.82.68-2.71,1-2.36,2.07-4.75,3.1S54.07,182.29,52.71,184Z" transform="translate(0)" fill="#212121"/><path d="M82.14,155.22,201.08,36.28l-2.43-2.43,17.36-23L212.15,7l8.36-4.71,2.14,2.14,1.6-1.6h2.47l1.39,1.39L231,1.29h3.54L235.82,0l11.47,11.46-57,57.05s-7.7-1.73-8.66-1.87-.05-.78-9.23,8.4-73.51,74.37-76.51,77.32-5.86,6.18-8.65,5.92S82.14,155.22,82.14,155.22Z" transform="translate(0)" fill="#212121"/><path d="M78.16,147.21l.17-2.24-1.91-1.91,2.49-2.49,2,2,1.76-1.76h2.12s10.34-10,14.41-12.72a77.84,77.84,0,0,0,9.16-7.66,5,5,0,0,0,2.41,1.44,7.28,7.28,0,0,0,2,.11l-30,29.94Z" transform="translate(0)" fill="#212121"/></g></g><g id="frame"><rect width="300" height="300" fill="none"/></g></svg>