<svg xmlns="http://www.w3.org/2000/svg" viewBox="0 0 30 30"><path d="M20,9.17c0-.18-.53-.64-.53-.64l-7.3,7.29.15.15-1.91,1.91-.16-.16-.87.86.45.44L10,20l0,0a.35.35,0,0,1,.1.28.31.31,0,0,1-.34.33.35.35,0,0,1-.26-.1.49.49,0,0,1,0-.34A.44.44,0,0,1,9.57,20l0-.52-.32-.33-.64.64a5,5,0,0,1-.63,1.76A1.84,1.84,0,0,1,6.89,22L4,24.57a5.06,5.06,0,0,1-.67,1.75c-.5.73-1.17,1.28-1.2,1.49s.63.82,1.52,1.4A4.4,4.4,0,0,0,5.21,30c.12,0,.17-.12.34-.44.31-.6.76-1.65.76-1.65l.2.19.29-.29-.29-.29a15.22,15.22,0,0,0,.92-2c.33-.94.64-2,.71-2.11s.26-.08.32.22.34.39.8.15.82-.53.66-.89-.57-.68-.52-1.27.14-1,.46-.83.58.35.89.15.72-.6.66-1-.33-.64,0-1l6.06-6.71s.12.13.24.11a.15.15,0,0,0,.13-.24,1.66,1.66,0,0,0-.15-.18l2.21-2.49A.3.3,0,0,0,20,9.17ZM6.26,23.84c-.59.18-.36-.37-.09-.75A5.37,5.37,0,0,1,7,22.16a5.82,5.82,0,0,0-.83,1.27.12.12,0,0,0,.15.17,4.1,4.1,0,0,0,.9-.48A3.23,3.23,0,0,1,6.26,23.84ZM11,20.57c-.35.35-.56.26-.66.16a.46.46,0,0,1-.16-.33l0-.12s.11.27.27.3.33,0,.26,0a.33.33,0,0,1-.27-.18c-.11-.15-.11-.22.09-.41s.45-.22.57-.1S11.32,20.21,11,20.57Z" transform="translate(0 0)" fill="#212121"/><path d="M8.53,19.68l-.3-.3a.61.61,0,0,0,.15-.24,1.49,1.49,0,0,0,0-.23l1.54-1.53.28.28L8.94,18.94l.16.16Z" transform="translate(0 0)" fill="#212121"/><polygon points="10.04 17.33 10.45 17.74 12.21 15.98 11.79 15.56 10.04 17.33" fill="#212121"/><path d="M12.13,15.74l-.36-.35,1-1,.07.07,2.95-3,.09-.4L15.74,11l.13-.13L16,11l.48-.13,9-9-.05,0s.67-.55.73-.79.07-.29.07-.29L26.15.62V.4l.4-.4h.27l.35.35.26-.26h.24l.22.22V.58L19.78,8.69l-.28-.28Z" transform="translate(0 0)" fill="#212121"/><path d="M9.12,18.91l.23-.23.41.4.1,1a.24.24,0,0,1,.14.21c0,.15,0,.27-.21.27s-.24-.07-.24-.23a.3.3,0,0,1,.13-.24l0-.64Z" transform="translate(0 0)" fill="#212121"/><rect width="30" height="30" fill="none"/></svg>