<!-- Copyright (c) 2022 Jan Stehno -->
<svg xmlns="http://www.w3.org/2000/svg" viewBox="0 0 300 300"><title>270huntsman</title><g id="rifles"><g id="_270huntsman" data-name="270huntsman"><path d="M200.4,91.74c-.27-1.8-5.33-6.41-5.33-6.41l-73,72.88,1.54,1.53-19.06,19-1.62-1.62-8.67,8.67,4.4,4.33.94,9.59a4,4,0,0,1,.54.43,3.45,3.45,0,0,1,1,2.81c0,1.82-1,3.31-3.45,3.34a3.46,3.46,0,0,1-2.53-1c-.65-.68-.73-2.44-.56-3.44A4,4,0,0,1,95.7,200l-.44-5.23-3.13-3.31-6.46,6.46s-2.62,14-6.23,17.61-10.57,4.06-10.57,4.06L39.8,245.71s-1.72,10.2-6.69,17.52-11.73,12.82-12,14.9,6.33,8.21,15.17,14,14.54,8.13,15.81,7.86,1.72-1.17,3.38-4.38c3.1-6,7.63-16.53,7.63-16.53l2,2L68,278.11l-2.9-2.9a154.61,154.61,0,0,0,9.18-19.84C77.59,246,80.7,235,81.45,234.31s2.57-.82,3.18,2.23S88,240.4,92.56,238s8.19-5.28,6.63-8.87-5.69-6.77-5.14-12.73,1.33-9.71,4.58-8.31,5.75,3.55,8.87,1.54,7.17-6,6.59-9.55-3.29-6.44.39-10.45,60.63-67.1,60.63-67.1a3.43,3.43,0,0,0,2.41,1.15,1.56,1.56,0,0,0,1.23-2.45,12.08,12.08,0,0,0-1.4-1.78l22.1-25A2.87,2.87,0,0,0,200.4,91.74ZM62.6,238.39c-5.87,1.76-3.57-3.68-.86-7.54a53.81,53.81,0,0,1,8.49-9.25,55.92,55.92,0,0,0-8.31,12.73,1.23,1.23,0,0,0,1.49,1.72c3.93-1.22,9-4.84,9-4.84S66.8,237.13,62.6,238.39Zm47.11-32.73c-3.53,3.53-5.58,2.61-6.59,1.6s-1.83-2.41-1.62-3.25.31-1.2.31-1.2,1.13,2.65,2.67,3,3.27-.19,2.61-.36a3.67,3.67,0,0,1-2.73-1.78c-1-1.54-1-2.24.91-4.15,1.71-1.72,4.53-2.22,5.75-1S113.25,202.13,109.71,205.66Z" transform="translate(0)" fill="#212121"/><path d="M85.31,196.82l-3-3a6.44,6.44,0,0,0,1.49-2.44,12.69,12.69,0,0,0,.17-2.27l15.38-15.38,2.85,2.85L89.39,189.43,91,191Z" transform="translate(0)" fill="#212121"/><polygon points="100.43 173.29 104.54 177.4 122.11 159.83 117.93 155.66 100.43 173.29" fill="#212121"/><path d="M121.27,157.44l-3.52-3.52,9.85-9.86.73.73,29.46-29.46.93-4L157.37,110l1.29-1.28,1.46,1.47,4.74-1.22,90.33-90.33-.45-.44s6.62-5.51,7.23-7.84.75-3,.75-3l-1.2-1.21V4l4-4h2.68l3.53,3.53L274.33.89h2.37l2.2,2.2V5.8L197.8,86.91l-2.8-2.8Z" transform="translate(0)" fill="#212121"/><path d="M91.23,189.1l2.31-2.31,4.09,4.05.93,9.6A2.21,2.21,0,0,1,100,202.5c0,1.53-.16,2.73-2.07,2.73s-2.36-.74-2.36-2.36a2.79,2.79,0,0,1,1.25-2.34l-.5-6.4Z" transform="translate(0)" fill="#212121"/></g></g><g id="frame"><rect width="300" height="300" fill="none"/></g></svg>