<svg xmlns="http://www.w3.org/2000/svg" viewBox="0 0 30 30"><path d="M20.68,8A2,2,0,0,0,20,7.76l-6.8,6.8.22.22-2,2-.18-.18-.83.83.54.54a1.64,1.64,0,0,0,0,.18,3.63,3.63,0,0,0,.11.42c0,.08.08.12.14.26a.48.48,0,0,1,0,.39.24.24,0,0,1-.17.14.65.65,0,0,0,.22.22c.13.05.54,0,.37,0a.44.44,0,0,1-.37-.23.38.38,0,0,1,.14-.41c.22-.23.5-.26.64-.13s.2.4-.2.8-.65.29-.78.16-.11-.22-.1-.28a.16.16,0,0,1,.05-.1H10.9c-.1,0-.17-.13-.21-.25a1.94,1.94,0,0,1,0-.4,2.4,2.4,0,0,0-.12-.38l-.07.08L10,18l-.85.85a5.37,5.37,0,0,1-.29,1.24,1.42,1.42,0,0,1-1,.93,1.48,1.48,0,0,1-.5.08L4.36,24a3.17,3.17,0,0,1-.6,1.56c-.55.77-1.35,1.39-1.36,1.63s1,1.07,1.66,1.55A15.81,15.81,0,0,0,5.65,30c.13,0,.16-.07.3-.43.25-.62.82-2.19.82-2.19l.21.21.28-.27L7,27s1.76-4.21,1.87-4.33.2-.13.44.13.53.38,1.18,0,1-.54.46-.79a1.42,1.42,0,0,1-.72-1.53c.11-.67.39-.78.62-.59s.57.34,1.13-.22a1.25,1.25,0,0,0,.33-1.32.67.67,0,0,0-.17-.19l6.06-7,.19.19.26-.26-.2-.2,2.29-2.6A.24.24,0,0,0,20.68,8ZM7.15,22.37a13.21,13.21,0,0,1-.86,1.09,5.82,5.82,0,0,1,.6-1.22,5.66,5.66,0,0,1,.67-.83A2,2,0,0,1,7.15,22.37Z" transform="translate(0 0)" fill="#212121"/><path d="M10.12,18l.28-.28.37.36a3.27,3.27,0,0,0,.19.68.61.61,0,0,1,.13.43c0,.15-.19.18-.26,0a.76.76,0,0,1-.05-.41,3.59,3.59,0,0,0-.2-.61l-.12.13Z" transform="translate(0 0)" fill="#212121"/><polygon points="9.26 18.67 10.32 17.61 10.21 17.49 11.17 16.53 11.35 16.71 13.26 14.8 13.04 14.57 19.94 7.66 20.29 7.74 27.6 0.43 27.6 0.23 27.36 0 27.17 0 25.97 1.2 25.74 1.2 25.43 0.89 25.02 1.29 25.02 1.51 25.16 1.65 24.89 1.92 24.95 1.99 24.46 2.49 24.52 2.55 17.44 9.63 17.17 9.63 16.97 9.84 16.88 9.74 16.64 9.98 16.75 10.09 16.59 10.25 16.59 10.45 15.49 11.55 15.43 11.48 13.67 13.24 13.62 13.18 12.67 14.12 12.79 14.24 9.88 17.14 9.79 17.05 9.34 17.5 9.46 17.62 8.88 18.2 8.88 18.43 9.1 18.64 9.26 18.67" fill="#212121"/><rect width="30" height="30" fill="none"/></svg>