<!-- Copyright (c) 2022 - 2023 Jan Stehno -->
<svg xmlns="http://www.w3.org/2000/svg" viewBox="0 0 300 300"><title>300canningmagnum</title><g id="rifles"><g id="_300canningmagnum" data-name="300canningmagnum"><path d="M206.84,80c-1.49-1.49-7.2-2.41-7.2-2.41l-68,68,2.17,2.17-20.26,20.27-1.82-1.82-8.32,8.33,5.44,5.38s.09.74.34,1.85.83,3.44,1.08,4.2.8,1.17,1.4,2.63a4.78,4.78,0,0,1,0,3.87,2.35,2.35,0,0,1-1.72,1.36,5.73,5.73,0,0,0,2.19,2.19c1.32.57,5.43-.07,3.77-.28s-3.2-.89-3.77-2.31.25-3,1.39-4.12c2.25-2.25,5.07-2.55,6.39-1.24s2.07,4-2,8-6.42,2.91-7.77,1.56-1.14-2.23-1-2.8a2.49,2.49,0,0,1,.52-1,2.15,2.15,0,0,1-.72-.06c-1-.27-1.65-1.38-2.07-2.58a15.68,15.68,0,0,1-.29-3.94,25.78,25.78,0,0,0-1.21-3.78l-.74.78-4.26-4-8.5,8.49a53,53,0,0,1-2.85,12.48c-2.2,5.53-5.82,8.3-9.58,9.29s-5,.78-5,.78L43.6,239.81a31.89,31.89,0,0,1-6,15.62C32.06,263.09,24.11,269.34,24,271.7s10.22,10.7,16.56,15.52,14.58,13,15.9,12.78,1.63-.66,3.08-4.31c2.45-6.19,8.14-21.91,8.14-21.91l2.15,2.16,2.77-2.77-3-2.95s17.66-42.14,18.7-43.28,2.08-1.32,4.45,1.23,5.3,3.79,11.83.29,9.74-5.4,4.54-7.86-8.33-8.7-7.19-15.33,3.88-7.76,6.24-5.86,5.69,3.39,11.26-2.18a12.57,12.57,0,0,0,3.27-13.2,6.08,6.08,0,0,0-1.63-1.92l60.54-70.33,1.91,1.92,2.63-2.63-2-2,22.85-26A2.3,2.3,0,0,0,206.84,80ZM71.52,223.7a135.91,135.91,0,0,1-8.59,10.93,59.63,59.63,0,0,1,6-12.21,64.5,64.5,0,0,1,6.74-8.37S75.35,218.17,71.52,223.7Z" transform="translate(0)" fill="#212121"/><path d="M101.21,179.56l2.81-2.75,3.72,3.63s1.11,5.79,1.85,6.78a5.61,5.61,0,0,1,1.28,4.26c-.35,1.56-1.83,1.84-2.55.25-.84-1.83-.5-2.67-.54-4.13s-2-6-2-6l-1.2,1.2Z" transform="translate(0)" fill="#212121"/><polygon points="92.63 186.66 103.22 176.06 102.09 174.93 111.74 165.28 113.53 167.07 132.62 147.98 130.35 145.71 199.43 76.63 202.89 77.36 275.99 4.26 275.99 2.34 273.64 0 271.66 0 259.7 11.96 257.39 11.96 254.29 8.85 250.19 12.95 250.19 15.12 251.59 16.52 248.88 19.23 249.55 19.91 244.58 24.88 245.19 25.48 174.35 96.31 171.73 96.31 169.67 98.37 168.75 97.44 166.37 99.82 167.47 100.92 165.91 102.48 165.91 104.54 154.94 115.51 154.27 114.83 136.74 132.36 136.17 131.79 126.73 141.23 127.87 142.37 98.84 171.4 97.92 170.47 93.38 175.02 94.58 176.22 88.83 181.97 88.83 184.31 90.96 186.44 92.63 186.66" fill="#212121"/></g></g><g id="frame"><rect width="300" height="300" fill="none"/></g></svg>