<!-- Copyright (c) 2022 Jan Stehno -->
<svg xmlns="http://www.w3.org/2000/svg" viewBox="0 0 300 300"><title>303flsporter</title><g id="rifles"><g id="_303flsporter" data-name="303flsporter"><path d="M227.27,60.71c-2.11-1.93-9.36-3.75-9.36-3.75L140.59,134.2l-1.24,5.9L98.26,180.2l2.87,3.27,10.81,5.75-7.11,7.11a4.25,4.25,0,0,1,.18,1c.11,2.27-1.73,3.83-4.11,3.91s-4.53-.88-4.53-3.37a4.44,4.44,0,0,1,1.32-3.51s0-.45-.15-1.39l-3.79-3.79A72.86,72.86,0,0,0,88,201.61c-1.89,5.85-2.48,9.81-7.14,9.71s-4.61-2-14.87,8.08-19.33,18.14-23,21.27-1.63,4.16-4.61,11.59-10,15.32-12.63,17.4-3.13,3.72,3.42,10.56,15.31,13.68,22.45,17.1,8.42,3.57,10.75.44c3.06-4.1,10.81-22.89,17-39.25s7.54-24.49,9.82-27.16,2.23-.75,4.66,1.68,2.57,3.67,7.93,1.49,7.53-3.27,9.91-5.75,1.88-3-1.69-6.94-5.25-8.13-5-14.37,1.46-8.13,4.14-9.1,3.79-.67,5.65,1.19,5.24,2,10.85-3.57,4.61-12.26,3.42-14.27a21.57,21.57,0,0,0-2.6-3.49L144.67,159l1.57,1.41,2.9-2.82-1.94-1.94S225.64,68.18,227.57,66,229.39,62.64,227.27,60.71ZM126.65,185.17c1.43,1.43,1.93,4.94-2.49,9.36s-6.55,4.2-8.37,2.38-2.51-3.88-1.86-4.53l.95-.95s1.54,3.4,3.7,3.51,5.58-.85,3.23-1-4-1.21-4.53-3.12c-.41-1.38-.08-1.67,2.15-3.9C122.72,183.59,125.21,183.74,126.65,185.17Z" transform="translate(0)" fill="#212121"/><polygon points="97.19 178.93 93.47 175.37 90.83 178.01 88.51 175.69 91.22 172.97 88.77 170.52 90.81 168.48 93.37 171.03 108.18 156.22 107.37 155.41 108.99 153.79 109.99 154.8 112.58 152.21 115.79 152.21 136.05 131.95 134.94 130.83 146.09 119.68 147.49 121.09 248.61 22.16 248.61 19.78 256.14 12.26 256.14 9.11 257.86 7.39 256.14 5.67 260.19 1.62 264.19 1.62 265.83 3.27 267.27 1.83 268.94 3.5 272.45 0 276.19 3.75 222.75 57.19 216.78 55.46 138.88 133.37 137.57 139.59 97.19 178.93" fill="#212121"/><path d="M90.55,180.38l5.09,5.08A8.7,8.7,0,0,1,98.43,191l.52,3.79a3.37,3.37,0,0,0-1.39,2.8c0,1.94,1.39,2.53,3.4,2.41s2.85-1.07,2.85-2.85a2.75,2.75,0,0,0-1.79-2.43,32.9,32.9,0,0,1-.69-6.17c0-3.05-1-3.76-1-3.76l-6.81-7.36Z" transform="translate(0)" fill="#212121"/><path d="M102.18,185.79a10.9,10.9,0,0,1,.34,2.85,29.7,29.7,0,0,0,.59,5.28,4.54,4.54,0,0,1,.93.88l5.23-5.23Z" transform="translate(0)" fill="#212121"/><path d="M95.56,187c-.65-.73-4.35-4.35-5.84-5.8L87,183.92,92,188.85l1.4-2.36,3.71,3.7A7,7,0,0,0,95.56,187Z" transform="translate(0)" fill="#212121"/></g></g><g id="frame"><rect width="300" height="300" fill="none"/></g></svg>