<svg xmlns="http://www.w3.org/2000/svg" viewBox="0 0 30 30"><path d="M22.73,6.07a3.29,3.29,0,0,0-.94-.37l-7.73,7.72-.13.59-4.1,4,.28.33,1.08.57-.71.71a.36.36,0,0,1,0,.1.38.38,0,0,1-.41.39c-.24,0-.45-.08-.45-.33a.48.48,0,0,1,.13-.36.69.69,0,0,0,0-.13l-.38-.38a7.57,7.57,0,0,0-.58,1.24c-.18.59-.24,1-.71,1s-.46-.2-1.49.81-1.93,1.81-2.3,2.13-.16.41-.46,1.16A5.29,5.29,0,0,1,2.56,27c-.26.2-.31.37.35,1.05a8.46,8.46,0,0,0,2.24,1.71c.72.34.84.36,1.08.05a29.92,29.92,0,0,0,1.7-3.93c.63-1.63.76-2.45,1-2.72s.23-.07.47.17.26.37.79.15a2.49,2.49,0,0,0,1-.57c.24-.25.19-.3-.16-.7a1.8,1.8,0,0,1-.5-1.43c0-.63.15-.82.41-.91a.43.43,0,0,1,.57.12c.18.18.52.2,1.08-.36a1.28,1.28,0,0,0,.35-1.43,2.33,2.33,0,0,0-.26-.35l1.82-1.92.15.14.29-.29-.19-.19,8-9C23,6.37,22.94,6.26,22.73,6.07ZM12.66,18.52c.15.14.2.49-.24.93s-.66.42-.84.24-.25-.39-.19-.45l.1-.1s.15.34.37.35.56-.08.32-.1a.45.45,0,0,1-.45-.31c0-.14,0-.17.21-.39S12.52,18.37,12.66,18.52Z" transform="translate(0 0)" fill="#212121"/><polygon points="9.72 17.89 9.35 17.54 9.08 17.8 8.85 17.57 9.12 17.3 8.88 17.05 9.08 16.85 9.34 17.1 10.82 15.62 10.74 15.54 10.9 15.38 11 15.48 11.26 15.22 11.58 15.22 13.61 13.2 13.49 13.08 14.61 11.97 14.75 12.11 24.86 2.22 24.86 1.98 25.61 1.23 25.61 0.91 25.79 0.74 25.61 0.57 26.02 0.16 26.42 0.16 26.58 0.33 26.73 0.18 26.89 0.35 27.25 0 27.62 0.38 22.27 5.72 21.68 5.55 13.89 13.34 13.76 13.96 9.72 17.89" fill="#212121"/><path d="M9.06,18l.5.51a.84.84,0,0,1,.28.55l.06.38a.34.34,0,0,0-.14.28c0,.19.14.25.34.24a.26.26,0,0,0,.28-.29.28.28,0,0,0-.18-.24,3.23,3.23,0,0,1-.07-.62c0-.3-.1-.37-.1-.37l-.68-.74Z" transform="translate(0 0)" fill="#212121"/><path d="M10.22,18.58a1.14,1.14,0,0,1,0,.28,3.67,3.67,0,0,0,.06.53.32.32,0,0,1,.09.09l.53-.52Z" transform="translate(0 0)" fill="#212121"/><path d="M9.56,18.7,9,18.12l-.27.27.5.49.14-.23.37.37A.87.87,0,0,0,9.56,18.7Z" transform="translate(0 0)" fill="#212121"/><rect width="30" height="30" fill="none"/></svg>