<!-- Copyright (c) 2022 - 2023 Jan Stehno -->
<svg xmlns="http://www.w3.org/2000/svg" viewBox="0 0 300 300"><title>44panthermagnum</title><g id="handguns"><g id="_44panthermagnum" data-name="44panthermagnum"><path d="M156,103.29l84.05-86.57a6.75,6.75,0,0,0-1.86-6.09,12.63,12.63,0,0,0-6.74-3.37s-2.32-3.18-5-3-3.37,1.22-3.37,1.22L217.66,0,210.5,7.16,212,8.64,210,18.1,140.63,87.52l-1.06-1L89.86,136.18H88.1L70.27,154H67.44l-1.51,1.51,6.74,6.66,1.45-1.39L78.41,165l4.4-4.56-2.66-2.66L112.92,125l15.9,15.9,26.35-26.34a9.65,9.65,0,0,0,1.78-6A26,26,0,0,0,156,103.29Z" transform="translate(0)" fill="#212121"/><polygon points="112.95 128.99 138.13 153.95 109.56 182.62 83.77 157.76 112.95 128.99" fill="#212121"/><path d="M84.43,161.83l18.1,17.66s-4.62,6-10.69,5.63S80.53,180.66,79,176.43C77.18,171.23,78.5,167.76,84.43,161.83Z" transform="translate(0)" fill="#212121"/><path d="M118.71,210c4.68.58,10.87,4.09,15.13,3.09s6-2.34,12-11.78,5.76-13.62.17-19.55-9.45-10.28-3-17.55,11.11-12.28,11.11-12.28-18.38-14.46-12-20.89l-11.84,11.31,11.42,11.41L109.44,186l-5.13-5.13A23.43,23.43,0,0,1,99,185.45c-3.62,2.39-11,3.79-18.49-2.79s-3.34-15.9-3.34-15.9l-3.07-3-1.67,1.67s2.73,5.73.06,9.52-4.57,2.68-7.69,3.12-5.57,4.23-4.9,5,1.89-1.89,4.46-1.78,5.34,2.45,7.46,1.45a30.14,30.14,0,0,0,4-2.34s1,5.46,3.45,7.46,5.57,7.47,2.45,11.15-8.69,11.58-8.57,13.92S79,216,81,221.6s3.57,29.52,9.36,37.43,12.15,15,15.38,26.18,1.44,20.61,12.75,10.48c8.23-7.38,21.67-20.95,26-28.8s4.73-6.69-7-15.71S118,233.47,116.29,223.86,114,209.4,118.71,210Zm28.13-59.8a2.43,2.43,0,1,1-2.42,2.42A2.42,2.42,0,0,1,146.84,150.19Zm-26.26,48.74c.17-2.56.5-3,.5-3s4.62.22,6.85,2.62,7.3,4.29,10.81,2.73,6.85-5.85,4-4.79-6.3,2.39-10.25.39-7.69-7.35-7.69-7.35.78-1.9,4-5c4.79-4.62,8.05-6,13.82-.22s6.29,8.63-.39,17.38-9.08,8.13-15.93,5.4S120.41,201.49,120.58,198.93ZM118,258a4,4,0,1,1-4-4A4,4,0,0,1,118,258Zm-4.45-67.48a3,3,0,1,1,3,3A3,3,0,0,1,113.51,190.55Z" transform="translate(0)" fill="#212121"/></g></g><g id="frame"><rect width="300" height="300" fill="none"/></g></svg>