<svg xmlns="http://www.w3.org/2000/svg" viewBox="0 0 30 30"><path d="M15.6,10.33,24,1.67a.7.7,0,0,0-.19-.61,1.25,1.25,0,0,0-.67-.33s-.24-.32-.5-.31a.46.46,0,0,0-.34.13L21.77,0l-.72.72.15.14-.2,1L14.06,8.75l-.1-.1-5,5H8.81L7,15.4H6.74l-.15.15.68.67.14-.14.43.42.44-.45L8,15.78l3.27-3.28,1.59,1.59,2.64-2.63a1,1,0,0,0,.18-.6A2.42,2.42,0,0,0,15.6,10.33Z" transform="translate(0 0)" fill="#212121"/><polygon points="11.29 12.9 13.81 15.39 10.96 18.26 8.38 15.78 11.29 12.9" fill="#212121"/><path d="M8.44,16.18,10.25,18a1.47,1.47,0,0,1-1.07.56,1.47,1.47,0,0,1-1.28-.87C7.72,17.12,7.85,16.78,8.44,16.18Z" transform="translate(0 0)" fill="#212121"/><path d="M11.87,21c.47.06,1.09.41,1.51.31s.61-.24,1.21-1.18.57-1.36,0-2-.94-1-.3-1.75l1.11-1.23s-1.83-1.44-1.2-2.09L13,14.23l1.14,1.15L10.94,18.6l-.51-.51a2.23,2.23,0,0,1-.53.45,1.52,1.52,0,0,1-1.85-.27,1.41,1.41,0,0,1-.33-1.59l-.31-.31-.16.17a1.07,1.07,0,0,1,0,.95c-.27.38-.46.27-.77.31s-.55.43-.49.51.19-.19.45-.18.53.24.74.14a2.62,2.62,0,0,0,.4-.23,1.61,1.61,0,0,0,.35.74c.25.2.56.75.25,1.12a4.27,4.27,0,0,0-.86,1.39c0,.24.58.31.78.87s.35,2.95.93,3.74a8,8,0,0,1,1.54,2.62c.32,1.12.15,2.06,1.28,1.05a15.82,15.82,0,0,0,2.59-2.88c.43-.79.48-.67-.7-1.57a4.84,4.84,0,0,1-2.11-2.73C11.45,21.42,11.4,20.94,11.87,21Zm2.81-6a.25.25,0,0,1,.25.24.24.24,0,0,1-.25.24.24.24,0,0,1-.24-.24A.24.24,0,0,1,14.68,15Zm-2.62,4.87c0-.25,0-.3,0-.3a1.14,1.14,0,0,1,.68.26,1.09,1.09,0,0,0,1.08.28c.35-.16.69-.59.4-.48a1.19,1.19,0,0,1-1,0,2.63,2.63,0,0,1-.77-.74,1.8,1.8,0,0,1,.4-.5c.48-.46.81-.6,1.38,0s.63.86,0,1.74-.9.81-1.59.54S12,20.15,12.06,19.89ZM11.8,25.8a.41.41,0,1,1-.4-.4A.4.4,0,0,1,11.8,25.8Zm-.45-6.75a.31.31,0,0,1,.61,0,.31.31,0,1,1-.61,0Z" transform="translate(0 0)" fill="#212121"/><rect width="30" height="30" fill="none"/></svg>