<!-- Copyright (c) 2024 Jan Stehno -->
<svg xmlns="http://www.w3.org/2000/svg" viewBox="0 0 300 300">
    <path
        d="M236.13.85,214.6,22.38v.71l-1.81,1.81-1.16-1.16H211l-.95,1-1.57-1.57L199.9,28s-.68.62-.32,1l1.22,1.22s-15.06,18-15.51,19.3a3.61,3.61,0,0,0-.26,1.93L96.45,138.63a2.31,2.31,0,0,0-2.11-.15c-1.16.51-15.32,13.31-16,13.57s-1.19-.59-2.68-2.08S74,148.43,73.6,148.8l-3.52,3.52c-.3.3-.64.49.86,2l4.29,4.29-2.45,2.45-1.14-1.14c-.49-.49-.92-.12-2.44,1.39l-5.82,5.82c-1.06,1.07-.82,1.09,0,1.92a3.26,3.26,0,0,1,1,1.75,8.52,8.52,0,0,0,1.32,1.68s-3.78,4.63-5.2,4.9-2-.65-3.25-.35-3.2,2-3,3.34.58,1.92,2.12,3.47,1.76,1.84,2.79,1.44a13.87,13.87,0,0,0,3.37-2.61l1.15-1.15S65,182.4,65,183a13.7,13.7,0,0,1-3.72,5.9c-2.22,2-1.94,3.81-3.32,5.75a36.55,36.55,0,0,0-5.52,11.9c-1.13,5.05-.68,8.64.83,10.16s3,2.58,7.55,1.9,10.36,3.59,12.79,7.57a24.55,24.55,0,0,1,4,14.25c0,6.48-2.88,15.53-4.72,28.36S73.17,291,78.22,296c4.28,4.29,7.06,4.69,11.64,3.21s12.23-8.2,20.19-16.15,11.88-10.1,10.15-14.2-3.92-5.7-7-7.84-2-7.48-2-10-2-4.4-4.46-6-.23-6.06-1.24-8.85-4.1-3.74-6.74-6.73-1-6.95-.09-13,.91-11.2,2.41-12.71,6.69-4.31,12.83-2.45,5.94,1.5,9.54,7,4.28,7.84,5,7.84,2.44-.52,2.44-1.33-4.69-6.71-5.58-11.11.48-8.55,2.88-13.51,3.18-10,1.19-14-5.14-5.9-6.35-7.72-1.16-1.75,1-3.95,15.09-13.89,20.73-21.67,22.06-29,29.47-38S196,79.58,203.82,71.74,218.59,59.35,223,57.53s8-2.1,9.1-3.17,2.81-3.84,1.94-8.83a40.76,40.76,0,0,0-3.48-11.32c-1.23-2.34-2.06-2.7-2.06-2.7l18.95-19c1.7-1.69.41-5.53-3.27-9.22S237.65-.67,236.13.85ZM125.53,188.76c-2.22,5.54-3.23,9.28-4.24,10.29s-5.29.57-10.54-.53a11.72,11.72,0,0,1-9.17-8.34s3.89-.09,4.69.34,2.58,3.55,5.33,5a13.09,13.09,0,0,0,7.67,1.15c1.59-.31,1.29-.45.93-1.24s-.11-1.27-1.26-1.27-3.84,1-7.51-2.91c-2.74-3-4.68-5.17-5.48-6.09a.58.58,0,0,0-.86,0l-2,2s-.31-.29,0-.9c.55-1.28,2.75-3.75,7.27-8s9.24-6.11,13.44-2.23S127.75,183.21,125.53,188.76Z"
        fill="#212121" />
    <rect width="300" height="300" fill="none" />
</svg>