<svg xmlns="http://www.w3.org/2000/svg" viewBox="0 0 30 30"><path d="M23.61.08,21.46,2.24v.07l-.18.18-.12-.12H21.1l-.09.1-.16-.16L20,2.8s-.07.06,0,.1l.12.12S18.57,4.82,18.53,5a.31.31,0,0,0,0,.19L9.64,13.86a.23.23,0,0,0-.21,0c-.11.05-1.53,1.33-1.6,1.36s-.12-.06-.26-.21-.17-.16-.21-.12L7,15.23s-.07,0,.08.2l.43.43-.24.25L7.16,16c0-.05-.09,0-.24.14l-.58.58c-.11.11-.08.11,0,.19a.41.41,0,0,1,.1.18,1,1,0,0,0,.13.17s-.38.46-.52.49-.2-.07-.32,0-.33.2-.3.34a.59.59,0,0,0,.21.34c.16.16.18.19.28.15a1.46,1.46,0,0,0,.34-.26l.11-.12s.13.09.13.15a1.37,1.37,0,0,1-.37.59c-.23.2-.2.38-.34.57a3.69,3.69,0,0,0-.55,1.19c-.11.51-.07.87.08,1a.74.74,0,0,0,.76.19,1.55,1.55,0,0,1,1.28.76A2.47,2.47,0,0,1,7.76,24c0,.65-.29,1.56-.48,2.84a3.2,3.2,0,0,0,.54,2.72A1,1,0,0,0,9,29.92a7.47,7.47,0,0,0,2-1.61c.8-.8,1.19-1,1-1.42a1.65,1.65,0,0,0-.7-.79c-.31-.21-.2-.75-.2-1s-.2-.44-.44-.6,0-.61-.13-.89-.41-.37-.67-.67-.1-.69,0-1.29.09-1.13.24-1.28a1.37,1.37,0,0,1,1.28-.24c.62.18.6.15,1,.7s.43.78.5.78.24-.05.24-.13a6,6,0,0,1-.56-1.11A2.15,2.15,0,0,1,12.82,19a1.6,1.6,0,0,0,.12-1.4,4.54,4.54,0,0,0-.63-.77c-.13-.18-.12-.17.1-.39a20.82,20.82,0,0,0,2.07-2.17c.57-.78,2.21-2.9,2.95-3.8S19.6,8,20.38,7.17A6.71,6.71,0,0,1,22.3,5.75a7.66,7.66,0,0,0,.91-.31,1,1,0,0,0,.2-.89,4.21,4.21,0,0,0-.35-1.13c-.12-.23-.21-.27-.21-.27l1.9-1.89c.17-.17,0-.56-.33-.93S23.76-.07,23.61.08ZM12.55,18.88a6.07,6.07,0,0,1-.42,1c-.1.11-.53.06-1.06,0a1.18,1.18,0,0,1-.91-.83,2.09,2.09,0,0,1,.47,0c.08,0,.26.36.53.5a1.25,1.25,0,0,0,.77.11c.16,0,.13,0,.09-.12s0-.13-.13-.13a.76.76,0,0,1-.75-.29l-.55-.61a.05.05,0,0,0-.08,0l-.21.2s0,0,0-.09a4.06,4.06,0,0,1,.73-.8c.45-.43.92-.61,1.34-.22S12.77,18.32,12.55,18.88Z" transform="translate(0 0)" fill="#212121"/><rect width="30" height="30" fill="none"/></svg>