<!-- Copyright (c) 2022 - 2023 Jan Stehno -->
<svg xmlns="http://www.w3.org/2000/svg" viewBox="0 0 300 300"><title>45rolleston</title><g id="handguns"><g id="_45rolleston" data-name="45rolleston"><path d="M85.4,152.28l22,22a1.62,1.62,0,0,0,2.29,0l23-23a1.61,1.61,0,0,0,0-2.29l-22.25-22a1.62,1.62,0,0,0-2.29,0L85.37,150A1.61,1.61,0,0,0,85.4,152.28Z" transform="translate(0)" fill="#212121"/><path d="M196.35,51.59,127.6,120.34l-8.69-8.7s-1.31-1-5.09,1.78-11,10.25-21.35,20.55l-18,18a15.14,15.14,0,0,0,.75,5.42c.9,2.09-.65,7-2.54,8.91a11.55,11.55,0,0,1-8.76,3c-3.83-.15-5.07.7-6.17,1.79a5.8,5.8,0,0,0-1.19,3.28,5.07,5.07,0,0,1,5.07-1.49c3.34.75,7.72,2.34,9.91,2.24a30.37,30.37,0,0,0,5-.8A32.78,32.78,0,0,0,80,178.22a16.05,16.05,0,0,0,5,3.33,38.59,38.59,0,0,0-1.74,7.52,21.78,21.78,0,0,0,.45,8.31,41.78,41.78,0,0,0-10.35,18.81c-2.69,11.45-4.48,21.66,4,47s12.94,34.18,14.77,36.07,3.08,1.22,16.62-11.71,22.2-19.35,22.1-22.83-11-11.15-16.73-16.92-8.57-12.76-10.11-17.39.22-12.51,4.52-16.82,9.81-2.29,13.09-.75,7.7,2.84,13.67-3.33,8.89-12,9.26-16.09S143,187,137.91,181.9s-7-6.92-1.7-14.33,7-9.61,6.72-10.9-.79-1.69,1.45-4,3-4.83-1-8.86-3.78-10.95-3.78-10.95l-4.55-4.55,52.74-52.73L191,78.8l2.72-2.72-3.51-3.52,14.26-14.27-4.78-4.77ZM140.69,189.36c1.84,3.44-.49,7.77-4.77,14.24s-8.46,7.56-11.1,6.92-7.72-4.63-8.91-8.12,1.84-8.61,1.84-8.61c4.53,4.73,8.16,6,12.94,6.47s5.87-1.79,4.23-1.64a19.34,19.34,0,0,1-9.9-2.74,14.11,14.11,0,0,1-5.28-5.57,56.64,56.64,0,0,1,3.49-4.88c2-2.49,4.18-4.38,8.16-3.88S138.85,185.93,140.69,189.36Zm-3.23-39.16-32.75,32.74-2.83-2.83,2-2-3.79-3.79-2.34,2.34L95.06,174s-4.43,2.73-9.56-2.39-5.67-7.37-2.39-15.73l-3.78-3.78,30-30Z" transform="translate(0)" fill="#212121"/><path d="M85.9,156.14,107.73,178l-2.92,2.92-.76-.77,1.82-1.82L100,172.46l-2.29,2.29-2.55-2.56s-4.38,2.59-9.46-2.48S84,159,85.9,156.14Z" transform="translate(0)" fill="#212121"/><polygon points="120.77 111.78 127.54 118.55 196.28 49.8 201.66 52.65 243.41 10.9 242.37 7.76 234.6 0 232.12 0 227.44 4.68 223.36 3.88 220.22 5.33 216.64 8.91 217.44 11.5 218.78 13.74 120.77 111.78" fill="#212121"/></g></g><g id="frame"><rect width="300" height="300" fill="none"/></g></svg>