<svg xmlns="http://www.w3.org/2000/svg" viewBox="0 0 30 30"><path d="M27.05.25,12.38,14.93a.23.23,0,0,1-.26,0L12,14.72l-.35.34a4.56,4.56,0,0,1-.74,1.59A11.81,11.81,0,0,0,9.79,18.8a1.07,1.07,0,0,1-.82.63c-.38.07-1.86,1.71-3.09,3.17A43.86,43.86,0,0,0,2.8,26.94c-.18.35-.2.63.31,1.12a21,21,0,0,0,2.31,1.75c.41.24.92.42,1.29-.57s2.78-6.58,3-7a2.55,2.55,0,0,1,.49-.63s.21.35.47.35a4,4,0,0,0,1.4-.94c0-.11-.3-.31-.53-.91a3.2,3.2,0,0,1,.11-1.93c.15-.2.36-.19.6-.07s.63.28,1.28-.38.59-1.05.34-1.3-.41-.5,0-.88,7.47-8.11,7.47-8.11h.21l.13-.13v-.2L26.75,1.5h.17l.4-.39V.52ZM7.67,22.19c-.27.63-3.79,5.87-3.79,5.87l-.13-.13s3.77-5.4,3.89-6.1a2.67,2.67,0,0,0,.05-1l.12-.16A2.61,2.61,0,0,1,7.67,22.19Zm4-5.65a.74.74,0,0,1-.27-.62l.11-.22a.85.85,0,0,0,.32.7,1.39,1.39,0,0,0,1,0l-.2.19S12,16.87,11.7,16.54Zm2,0c.2.2.28.52-.1.89s-1,.75-1.23.48a.45.45,0,0,1-.07-.57.74.74,0,0,0,.21.34c.15.14.66.14.49.08a.62.62,0,0,1-.4-.39c0-.18,0-.36.28-.67S13.49,16.32,13.69,16.52Zm.56-1.66-.14.14a1.66,1.66,0,0,0-.12-.83,2,2,0,0,0-.33-.34l.1-.11s.45.35.48.71A2,2,0,0,1,14.25,14.86Zm1-1a1.41,1.41,0,0,0-.07-.51c-.08-.14-.13-.15-.33-.13a.61.61,0,0,1-.46-.07l.12-.12s0,.07.32,0,.45.06.52.26a1.84,1.84,0,0,1,.07.38Zm2.53-3.62a13,13,0,0,0-.74,1.7l-.17.18s.31-1,.57-1.58a5.92,5.92,0,0,1,.74-1.14L18.5,9S18,9.72,17.74,10.21ZM21.66,7l-.16.16v-.2l-.21-.21h-.54l.17-.16h.46l.28.28Z" transform="translate(0 0)" fill="#212121"/><path d="M11,15.74l.42-.4a1.93,1.93,0,0,1-.12.29l-.11.25-.11.11s0,0-.11.16-.43-.23-.25-.41S11,15.74,11,15.74Z" transform="translate(0 0)" fill="#212121"/><path d="M11.91,14.55c.19.19.29.3.35.3s.11,0,.34-.26,3.3-3.31,3.3-3.31L15.65,11a.21.21,0,0,0-.19,0,5.88,5.88,0,0,0-1.18,1.21c0,.14,0,.16,0,.16l-1,1a.2.2,0,0,0-.19,0C13,13.41,11.91,14.55,11.91,14.55Z" transform="translate(0 0)" fill="#212121"/><polygon points="15.78 10.89 16.03 11.14 26.98 0.18 26.85 0.06 26.63 0.06 26.44 0.24 26.2 0 25.47 0.72 25.47 1.04 25.34 1.17 25.34 1.28 25.04 1.58 25.04 1.72 19.79 6.97 19.46 6.97 18.85 7.58 18.85 7.88 15.78 10.89" fill="#212121"/><rect width="30" height="30" fill="none"/></svg>