<!-- Copyright (c) 2023 Jan Stehno -->
<svg xmlns="http://www.w3.org/2000/svg" viewBox="0 0 300 300">
    <title>7mmregentmagnum</title>
    <g id="rifles">
        <g id="_7mmregentmagnum" data-name="7mmregentmagnum">
            <path
                d="M270.53,2.52,123.78,149.27a2.13,2.13,0,0,1-2.58-.28l-1.75-1.76L116,150.65s-.63,5-7.45,15.81A107.75,107.75,0,0,0,97.94,188a10.64,10.64,0,0,1-8.22,6.22C85.86,195,71.06,211.44,58.81,226s-29,40-30.81,43.47-2,6.29,3.14,11.15A209.82,209.82,0,0,0,54.2,298.13c4.1,2.38,9.15,4.19,12.87-5.72s27.87-65.85,30.44-70.28a24.25,24.25,0,0,1,4.86-6.29s2.15,3.43,4.72,3.51,13.68-8.26,14-9.4-3.07-3.15-5.29-9.11-.46-17.23,1-19.3,3.57-1.93,6-.79,6.33,2.83,12.87-3.71,5.82-10.55,3.36-13-4.08-5.07-.29-8.86S213.53,74.1,213.53,74.1h2.09l1.29-1.29v-2L267.46,15h1.79l3.91-3.91V5.16ZM76.69,221.94c-2.72,6.27-37.92,58.65-37.92,58.65l-1.29-1.28s37.73-54,39-61,.43-9.72.43-9.72L78.07,207A26.05,26.05,0,0,1,76.69,221.94ZM117,165.42c-3.31-3.3-2.74-6.18-2.74-6.18l1.16-2.25s-.32,4.52,3.22,7,10.06.1,10.06.1l-2,2S120.29,168.73,117,165.42Zm19.92-.25c2,2,2.78,5.21-1,9s-9.67,7.46-12.37,4.76a4.55,4.55,0,0,1-.71-5.69,8.33,8.33,0,0,0,2.12,3.38c1.55,1.43,6.6,1.41,4.88.81s-3.57-2.16-3.93-3.93-.37-3.51,2.79-6.67C131.65,163.86,134.91,163.17,136.91,165.17Zm5.6-16.55L141.1,150s.5-6.18-1.21-8.34a22.22,22.22,0,0,0-3.33-3.41l1.08-1.09s4.42,3.52,4.78,7.09A19.19,19.19,0,0,1,142.51,148.62Zm9.63-10.3s0-3.71-.74-5.09-1.29-1.58-3.29-1.36-3.38.19-4.64-.62l1.25-1.25s.39.65,3.22.32,4.51.57,5.13,2.6a16.63,16.63,0,0,1,.69,3.78Zm25.24-36.25c-3,4.86-7.35,17.06-7.35,17.06l-1.77,1.77s3.15-10,5.72-15.76a57,57,0,0,1,7.42-11.42L185,90.1S180.34,97.21,177.38,102.07ZM216.65,69.6,215,71.17v-2l-2.1-2.1H207.5l1.66-1.66h4.68l2.81,2.81Z"
                transform="translate(0 0)" fill="#212121" />
            <path
                d="M110.45,157.42l4.11-4a29.14,29.14,0,0,1-1.11,2.89c-.61,1.33-1.14,2.58-1.14,2.58l-1.09,1.09s.26.48-1.09,1.52-4.36-2.25-2.58-4S110.45,157.42,110.45,157.42Z"
                transform="translate(0 0)" fill="#212121" />
            <path
                d="M119.09,145.52c1.91,1.9,2.89,3,3.55,3s1-.36,3.32-2.67S159,112.78,159,112.78l-2.52-2.53a2.18,2.18,0,0,0-1.93-.29c-1.14.36-11.87,10.83-11.83,12.19s.31,1.58.31,1.58l-10.12,10.12a1.85,1.85,0,0,0-1.93-.24C129.77,134.06,119.09,145.52,119.09,145.52Z"
                transform="translate(0 0)" fill="#212121" />
            <polygon
                points="157.78 108.91 160.27 111.4 269.82 1.85 268.53 0.55 266.34 0.55 264.44 2.45 261.99 0 254.74 7.25 254.74 10.36 253.38 11.72 253.38 12.76 250.38 15.76 250.38 17.2 197.87 69.7 194.64 69.7 188.52 75.82 188.52 78.84 157.78 108.91"
                fill="#212121" />
        </g>
    </g>
    <g id="frame">
        <rect width="300" height="300" fill="none" />
    </g>
</svg>