<svg xmlns="http://www.w3.org/2000/svg" viewBox="0 0 30 30"><path d="M7,26.31a24.46,24.46,0,0,1-2.2,3.58c-.34.27-.73,0-.48-.46S5.81,27,6.25,26s1.09-3.77,2.83-8.26a36.87,36.87,0,0,1,4.23-7.81.62.62,0,0,1,.8.66,15.76,15.76,0,0,0-2.81,4.17,92.06,92.06,0,0,0-3.48,8.81C7.2,25.57,7.21,25.74,7,26.31Z" transform="translate(0 0)" fill="#212121"/><path d="M17.38,6.35A.78.78,0,0,0,17.07,6a.83.83,0,0,0-.43-.14,15.31,15.31,0,0,1,2.13-1.91,17.17,17.17,0,0,1,4.17-2.19c1.16-.38,1.21-.28,1.76-.85s.52-.74.72-.86.41,0,.32.26a5.4,5.4,0,0,1-1.07,1.32c-.31.23-.46.2-1.58.59a13.52,13.52,0,0,0-3.58,1.87A10.9,10.9,0,0,0,17.38,6.35Z" transform="translate(0 0)" fill="#212121"/><path d="M17.29,6.76A.88.88,0,0,0,17,6.15a.68.68,0,0,0-.64-.07l-3,3.59a.83.83,0,0,1,.65.15,1.28,1.28,0,0,1,.34.68Z" transform="translate(0 0)" fill="#212121"/><polygon points="7.34 25.89 16.84 12.32 24.42 2 17.06 12.54 7.34 25.89" fill="#212121"/><rect width="30" height="30" fill="none"/></svg>