<!-- Copyright (c) 2022 Jan Stehno -->
<svg xmlns="http://www.w3.org/2000/svg" viewBox="0 0 300 300"><title>alexanderlongbow</title><g id="bows"><g id="alexanderlongbow"><path d="M70,263.1c-1.69,4.55-18.66,33.15-22,35.82s-7.24.14-4.78-4.65,15-24.64,19.28-34.66S73.37,221.92,90.84,177a368.5,368.5,0,0,1,42.25-78.13,6.23,6.23,0,0,1,5.85,1.1,6,6,0,0,1,2.11,5.53,158.62,158.62,0,0,0-28,41.66c-11.83,25.5-28.5,67.67-34.78,88.07S72.09,257.38,70,263.1Z" transform="translate(0)" fill="#212121"/><path d="M173.76,63.47a7.71,7.71,0,0,0-3.08-3.66,8.19,8.19,0,0,0-4.29-1.39,151.4,151.4,0,0,1,21.32-19.07c12.61-9.26,30.09-18.11,41.67-21.92s12.09-2.86,17.6-8.5c4.27-4.36,5.24-7.45,7.24-8.68,1.33-.81,4.08.39,3.2,2.66s-7.5,10.91-10.7,13.19-4.63,2-15.83,5.93-27.41,11.56-35.76,18.65S181,53.2,173.76,63.47Z" transform="translate(0)" fill="#212121"/><path d="M172.94,67.64a9.06,9.06,0,0,0-3.45-6.17,6.93,6.93,0,0,0-6.4-.66L133.53,96.66s3.84-.73,6.49,1.56,3.34,6.79,3.34,6.79Z" transform="translate(0)" fill="#212121"/><polygon points="73.42 258.87 168.41 123.17 244.21 20.03 170.63 125.39 73.42 258.87" fill="#212121"/></g></g><g id="frame"><rect width="300" height="300" fill="none"/></g></svg>