<svg xmlns="http://www.w3.org/2000/svg" viewBox="0 0 30 30"><path d="M3,27.5l.2.19.37.29,1.23.83,1.32.78L7,30l.11,0,.08-.07.41-.56v-.09l-.1-.09L7.28,29l.57-.78L8,28,8,26.8l0-1.49.05-.12L9,23.86l0-.14L9,23.37l-.11-.5v-.06l.52-.58,0-.1v-.29l1-1.08.07,0h.07l.13-.15.19,0h.08l-.07.18,0,.15v.16l.06.19.07.11.1.12.14.09.17.07.18,0,.16,0,.21-.07.15-.13.13-.14.27-.54.29-.57.05-.21.08-.51,0-.29v-.14l0-.09,0-.08.08-.06.16-.07.16-.1.11-.12.11-.16.29-.64,0-.13v-.17l0-.17-.05-.16L13.65,17l-.12-.12-.12-.08-.15-.08-.06-.06,0-.08,0-.05v0l0,0,.06-.06,0-.07,0-.06v-.08l0-.08.57-.73.35-.43.32-.37.14-.18.09-.17.1-.12.15-.17.14-.11.2-.21.27.27.14-.15-.06-.07.13-.12.06.06.14-.13L16,13.38l.12-.13.07.07.14-.14-.07-.07.12-.12.08.06.13-.13-.07-.07.12-.12.08.06.13-.13-.06-.07.12-.13.07.06.13-.13-.06-.08.12-.11.06.06.14-.14-.06-.07.12-.12.07.06.13-.13-.06-.07.12-.13.07.08.13-.14-.06-.07.12-.12.07.06.13-.14-.05-.07.12-.12.06.06.14-.14L18.4,11l.11-.11.08,0,.12-.12-.05-.07.12-.13.06.06.13-.12,0-.08.11-.11.07.05.13-.13-.06-.07.12-.12.07.06.12-.13,0-.08.11-.11.07.06.13-.13-.05-.07.11-.12.06.06L20,9.5,20,9.42l.12-.12.06.06.13-.12,0-.08-.1-.07L20,9,19.93,9l0,0,0-.08.46-.46,0,0,0-.06-.06-.09-.08-.11L22,6.27V6.19l0-.05,0,0,0,0,.84-.84.05,0,1.11-1.13,0,0h0l0,0v0l.13.14,0,0,.07,0,.14-.14,0-.06v0L24.41,4h0l0,0V4l0,0,1.3-1.32h0l.09-.09v0h0l0,0,.13-.13,0-.1-.1-.14L25.68,2h-.09l-.13.13,0,0,0,0h0l-.08.08v0L24.1,3.57,24,3.51,25.4,2.14h0L27.11.45l0-.15L27,.12,26.84,0l-.12,0-.08,0L25,1.68v0l0,0,0,0,0,0h0l-.07,0,0,0,0,0v0l0-.06-.07-.05h-.09l-.07,0-.08.07L24.08,2l0,.06v.07l0,.06.13.14-.14.13-.16.24L23.67,3V3l0,0,0,0h-.07l-.11.08-.07.08,0,.08,0,.06-4.46,4.5h-.06l-.1,0L18.63,8l-.05.1v.07l-2.12,2.15,0,0-.12.12h0l-.08.07,0,0-.05,0,0,.05v0l0,0-.27.27v0l-.05,0,0,0,0,.05,0,0-.2.2-.28.17-.06-.06h0l0,0-.24.24v0l0,0,0,0-.18.24-.05,0h-.06l-.06,0h-.07l-.08-.05h0l0,0,0,0,0,0,.15.09h0l.08.1.05,0h.06l-.52.5,0,0h0l-.08.06h-.1l-3,3,0,.11v.2l0,.07v.07l-.11,0-.07,0-.09.08v0l-.06,0-.12,0-.11,0-.09,0-.08.05-.07.07,0,.05v0h0l0,0,.15-.05h.34v0l0,.15V17l0,.19,0,.15,0,.1,0,.06,0,.11,0,.05-.12.25-.2.21-.1.14-.25.5L9.85,19l0,.19-.05.09-.12.19-.07.15v.05l0,.06h0l-.12.14,0,0v0l0,.07L7.83,21.92l-.09-.05h0L7.65,22l-.81.92-.18-.13-.11-.08-.06,0h0l-.07.06-.5.57L3.44,26l0,0v0l0,.06.22.21-.1.12-.1-.08h0l-.05.05-.45.6-.06.19v.1Zm23-26.09s.18-.27.46-.55a2.18,2.18,0,0,1,.55-.47s-.18.28-.46.56A2,2,0,0,1,25.93,1.41Zm-.2-.2s.18-.28.46-.56a2.27,2.27,0,0,1,.55-.46s-.18.28-.46.56A2,2,0,0,1,25.73,1.21Zm-1.4,3.1a.08.08,0,0,1,0-.11.08.08,0,0,1,.1,0,.07.07,0,0,1-.1.1ZM19.84,7.75l3.92-4,.07.07-3.93,4Zm-.5.93a.1.1,0,0,1,0-.14.11.11,0,1,1,.15.15A.1.1,0,0,1,19.34,8.68Zm-2.11,2.14a.11.11,0,0,1,0-.15.1.1,0,0,1,.15,0,.1.1,0,0,1,0,.14A.11.11,0,0,1,17.23,10.82ZM10.57,16.5a0,0,0,0,1,0,.06s-.05,0-.06,0a0,0,0,0,1,0-.07A0,0,0,0,1,10.57,16.5Zm2.12-.09a.12.12,0,0,1,0,.15.09.09,0,0,1-.14,0,.1.1,0,0,1,0-.14A.11.11,0,0,1,12.69,16.41Zm-.22,2.29-.12,0-.1-.06-.1-.1-.07-.1,0,0,0,0h0l.05,0,0-.06.11-.3v0l0,0v0h.09v0h.06l.05,0,.1.08.15.09.14.05H13l.09,0V18h0l-.17,0-.17-.06-.13-.09-.13-.15,0-.08,0,0,.57-.84,0,.07,0,0,.11,0,.15.06.12.07.12.13.08.13.05.16v.17l0,.15L13.5,18l-.17.34-.11.17-.14.13-.11.06-.18.06h-.18Zm-1.53,1.91.45-.92.31-.62.09-.12.09-.08.08,0,.11,0,.14,0,.13,0,.11,0,.06,0,.08.06.09.1.05.12,0,.11,0,.24-.06.42-.05.21-.13.29-.36.74-.1.16-.17.16-.16.06-.17,0h-.15l-.16-.05-.1-.06-.12-.1-.06-.08-.06-.14,0-.17,0-.17Zm-5,6a.16.16,0,0,1,0,.23.16.16,0,1,1,0-.23Zm1.75,1,0,0,0-.82v0l0,0h0l0,.05,0,.85,0,0Zm-2.07-.09.06-.14v-.11l0-.1,0,0,.09-.13h.22L6,27l.3-.39v-.1l0-.09.59-.69L6.81,26l-.36.59v0l0,0h0l0-.06.63-1,.21,0,.1,0,.11.12,0,.52,0,.86v.65l0,.27-.18.29-.14.15-.12,0-.15-.05Zm-.46,0a.22.22,0,1,1,.31,0A.23.23,0,0,1,5.15,27.56Z" transform="translate(0 0)" fill="#212121"/><rect width="30" height="30" fill="none"/></svg>