<svg xmlns="http://www.w3.org/2000/svg" viewBox="0 0 30 30"><path d="M16.63,16c-.6-.63-.74-.8-.52-1.12s.75-.56.53-1.08a4.44,4.44,0,0,0-1-1.17.83.83,0,0,0-.67-.3c-.46,0-.74.2-.78.55a.92.92,0,0,0,.14.6L5.07,22.81l1.83.33s.82-1.1,1.71-.79,1.17.73,1.66,2.88a26.51,26.51,0,0,0,1,3.85c.22.35.62,1.58,2.78.46,1.89-1,2.27-1.35,2.31-2.26a1.56,1.56,0,0,0-.71-1.52c-.45-.41-1.55-4.4-1.19-5.22s2.08-1.48,2.41-2.27A1.94,1.94,0,0,0,16.63,16Zm-5.15,5.33a.49.49,0,1,1,0-1,.49.49,0,0,1,0,1ZM15,12.61a.49.49,0,0,1,.48.49.49.49,0,0,1-1,0A.49.49,0,0,1,15,12.61Zm-1.5,15.67a.49.49,0,0,1-.48-.49.49.49,0,0,1,1,0A.49.49,0,0,1,13.49,28.28Zm3.16-10.94A2.29,2.29,0,0,1,15,18.91a1.59,1.59,0,0,1-1.49-.67,1.37,1.37,0,0,1-.23-.88l.74.06a1.5,1.5,0,0,0,.73.71c.45.14,1.73-.09,1.07-.17a1.57,1.57,0,0,1-1.38-.79,1.42,1.42,0,0,1-.25-1,1.26,1.26,0,0,1,1-.4A1.52,1.52,0,0,1,16.65,17.34Z" transform="translate(0 0)" fill="#212121"/><path d="M4.88,22.65,3.35,21.12,5,19.46l-.62-.62.21-.21-.13-.12L5,18l.2.2L5.4,18h.38l1.15-1.16.42.41,6.7-6.7.17.16,8-8,.32-1.1L23.79.32l.46.46L25,0l1.61,1.62L15.94,12.32l.19.19-.15.15-.37-.37a1,1,0,0,0-.74-.18.86.86,0,0,0-.86.62,1.26,1.26,0,0,0,0,.7Z" transform="translate(0 0)" fill="#212121"/><rect width="30" height="30" fill="none"/></svg>