<!-- Copyright (c) 2022 - 2023 Jan Stehno -->
<svg xmlns="http://www.w3.org/2000/svg" viewBox="0 0 300 300"><title>andersson22lr</title><g id="handguns"><g id="andersson22lr"><path d="M166.25,160.36c-6-6.23-7.38-8-5.19-11.19s7.5-5.54,5.31-10.73-9.7-11.77-9.7-11.77a8.32,8.32,0,0,0-6.65-3c-4.62-.08-7.46,2.07-7.85,5.53a9.33,9.33,0,0,0,1.46,6L50.7,228.14,69,231.37s8.16-10.93,17.08-7.85,11.69,7.23,16.62,28.77,7.54,34.93,9.69,38.47,6.15,15.85,27.77,4.61c18.94-9.83,22.74-13.5,23.08-22.61s-2.54-11-7-15.12-15.46-44.08-11.88-52.27,20.77-14.77,24.11-22.62S172.25,166.59,166.25,160.36Zm-51.46,53.31a4.85,4.85,0,1,1,4.84-4.84A4.85,4.85,0,0,1,114.79,213.67Zm35.08-87.54A4.85,4.85,0,1,1,145,131,4.84,4.84,0,0,1,149.87,126.13ZM134.94,282.76a4.85,4.85,0,1,1,4.85-4.85A4.85,4.85,0,0,1,134.94,282.76Zm31.54-109.32c-1.31,6.85-10.46,15.46-16.38,15.69s-11.93-1.69-14.93-6.69-2.31-8.85-2.31-8.85l7.47.62s2.69,5.62,7.23,7.08,17.31-.85,10.69-1.7-10.23-2.15-13.77-7.92S142,161.52,142,161.52a12.31,12.31,0,0,1,9.54-4C161,157.87,167.79,166.59,166.48,173.44Z" transform="translate(0 0)" fill="#212121"/><path d="M48.78,226.52,33.47,211.21l16.58-16.58-6.23-6.23,2.07-2.07-1.27-1.27,5.14-5.14,2,2L54,179.69h3.75l11.57-11.57,4.1,4.11,67.07-67.07,1.65,1.66,80.47-80.47,3.16-11L237.91,3.23l4.62,4.62L250.38,0l16.15,16.16L159.44,123.24l1.81,1.81-1.5,1.5-3.61-3.61s-2.16-2-7.39-1.81c-4.51.16-7.92,2.81-8.69,6.19a12.79,12.79,0,0,0,.42,7Z" transform="translate(0 0)" fill="#212121"/></g></g><g id="frame"><rect width="300" height="300" fill="none"/></g></svg>