<!-- Copyright (c) 2024 Jan Stehno -->
<svg xmlns="http://www.w3.org/2000/svg" viewBox="0 0 300 300">
    <path
        d="M282.6,0,263.5,18.58l-2.5,0L248.1,31.1l-2.55,0-1.22-1.25-2.77,0-3.9,3.8,0,1.43-.71-.73L235.15,36l0,1.6-.79-.81-1.6,1.55,0,1.79-.88-.9-1.69,1.64,0,1.61-.8-.82L228,43l-1.61-1.65-6.45,2.3L218,45.48,213,40.29l-2.43,0L209,41.72l0,3.86L216.21,53v1.26l.48.5L215.38,56l0,1.79-.84-.86-1.64,1.59,0,1.87-.92-1-1.85,1.81,0,1.66-.59-.61-1.53,1.48,0,1.53-.73-.75-1.76,1.7,0,1.6-.72-.74-1.6,1.56,0,1.44-1.28,0-1.47,1.43,0,1.23-1.13,0L197.87,74l0,1.25-1.12,0-.89.87,0,1.58-1.47,0-1.17,1.14V80H192l-1.38,1.33v1.31h-1.06L188.2,84v1l-1,0-1.37,1.34,0,1.15-1.13,0-1.36,1.33,0,1.36h-.92l-1.09,1.06v1.1h-1L178.49,94l0,1.35h-1l-1.26,1.23,0,1.33-1.43,0-.86.83v1h-1.1l-1.45,1.41v1.11h-1.08l-1.32,1.28v1.08l-1,0-1.38,1.35,0,1.31H165.1l-1,1,0,1.35h-.82l-1.68,1.64V112h-1l-1.13,1.09,0,1.29s-1-.14-1,0a15.19,15.19,0,0,1-1.42,1.38v.81l-1.28,0-1.44,1.4v1.14h-.81l-1.33,1.3,0,1.14h-1.11l-1,1,0,1.5-1.19,0-1.25,1.22,0,1.16-1.23,0-1.35,1.31v1.13H144l-1.36,1.33,0,1.05-1.28,0-1.24,1.21,0,1.32-1,0-1,1v1h-1.24L135.35,137l0,1.25h-1l-1.23,1.19v1.25H132l-1.19,1.15v1.29l-1.28,0-1.17,1.15,0,1.13-1,0-1.15,1.13,0,1.05-1.26,0-1.3,1.26,0,1.5-1.09,0-1.26,1.23,0,1.12-.95,0L119,153.76l0,1.16-1.1,0-1,1v1.24l-1.19,0-1.25,1.21,0,1.2h-.79l-1.23,1.2v1.09l-1.62,0-1,1,0,1.44-1.1,0-1.14,1.11,0,1.22h-1.18l-1.05,1,0,1.41H104l-1,1,0,1.19h-.92l-1.29,1.25v1.07l-1.33,0-1.12,1.1,0,1.18h-1l-1,1,0,1.6h-.81L94,179.59v1.07h-1.2l-1.09,1.06-.86-.89-1.92,0-6,1.94-3.39-3.49H78.34l-.59-.62-1.69,0-.63-.65-1.23,1.2-.64,2.68.69.72v.61l1.46,1.5h.84l5.5,5.66.41,1.33-9.71,9.44-.44-.45-2.16,2.1-.05,3.61,1.79,1.84-1.68,1.63,0,1.65-29,29.5-1.65-.51L18.53,262l.2,2.2-.85,1,2.28,3.23,6.08,6.25-1,1-3.08-3.92-3.63-3.72-3.08-1.26L10.49,273l1.77,4.13,4,2.92,4.91,3.07,6.71,6.9L33,296.86,36,300l6.82-4.51-3.64-3.91,1.1-1.06L44,294.35l12.78-12.44,9.3-10.12,8.72-11.67-1.58-2.32-3.43-.65L66,252.78,65.41,245l3.13-7.17,14.09-14.36,1.82-.32,5.33-4.91,3.12-1.58,3.28,1.46,2.46,2.53,1.83,14.45,1.68,9.94,1.17,3,1.34,1.23,4.88-2,8.29-5.28,2.33-2.26-.59-1.42L116,235.2V234l.51-2.72-.69-1.62L114.25,228l-.27-1.46.07-2.34-.69-1.67L112,221.14l-1-1.56,1.07-2.91,2.62-2.41,3.31-.79,2-.7,5.91-5.75h.81l1.12,2,2.18.2,25.25-24.57,0-1.55-1.76-1.81H152.2l-6.45-6.63.75-3.26-.93-1-2-.13-2-.93L140.35,168l-.27-2.26.61-2.52,20.09-20.26L150.43,132.3l-1-1.71.77-2.08,46.65-46.92,1.63-.87,2.15,1.1,10,10.31,5.14-5,6.7-1.51,2.29-2.23,0-1.27,1.18,0,1.47-1.56.32-.83.64,0,1.23-1.26.73-1.23.63,0,1.44-1.6.18-1.11.91.18,1.2-1.36.15-1,1.08.08,1.71-1.8,0-.77h.74l1.75-1.7-.06-.74.67.14,1.78-1.73.14-.87h.81l1.35-1.76.2-.75.86-.28,1.54-1.5.27-1,.92-.15,1.27-1.23.28-1.28.91-.16,1.37-1.53v-.54l.92.12.92-1.17.69-1.34.91-.29L259,48.6l.54-4.64-.83-.86-.64-2.9,12.24-11.91,0-2.5,19.12-18.6,0-2.3L284.78,0ZM48.54,281l-7.85-8.06L52.2,277.4Zm12.84-12.5-1.25,1.22-1.51-2.92-6.08-16.59,1.39,0,1.35,1.39Zm8.88-6.37L70,263.2,67.62,266l-3.1-3.73,2.09.14,2-.73,1.19-.1Zm-9-17.9-.8,2.51-.58,5.14L58.68,249l-1.2-3.88-.37-2.75.7-.33,1.36.81,1.68.45ZM122.68,204l.47,1.74-.58,1.21-2.81,2.64L117,211.72l-3,.92-2.12-.49-1.85-1.56-1-2-.4-2.35h.46l2,2.47,2.07,1.47,2,.39,1.6-.75-.14-.48-1.93-.47-2-1.7-1.32-2.2-.09-1.41,3.78-3.68,1.71-.61,1.9.29,2.92,2.77ZM227.92,51.41l.26,2.19-3,2.94-2.59.3Zm-6.84,7.23,2.5-.25-2.8,2.54-2.57.51ZM207.52,72.19v2.27l-2.73,2.66-2.63.3Zm-7.93,7.72,1.71-1.67,2.33.21-2.78,2.87Zm9.59,10L207.37,88l3.24-3.15.28,3.39Zm3-2.88,0-3.67,2.4-2.55,2.84,1Zm-3.59-15.81,3.71-3.61,0,2.07L208.84,73C208.84,72.61,208.55,71.19,208.55,71.19ZM219.35,80,216,79.21l3.16-3c.1,0,3.11,1,3.11,1Zm-5.51-14.35,2.46-2.39,2.52-.28-4.72,4.81Zm12.61,6.79L224,74.89l-3.18-.5L226.38,69C226.37,69.05,226.45,72.48,226.45,72.48Zm4.7-4.84L228,70.73V67.39l3.2-3.11Zm1.62-1.58-.12-3.38L235,60.37l2.84.73ZM234,45.29l2.87-2.79,3.08-.71-5.7,5.54Zm-4.76,4.86,3.71-3.61-.13,2.19-3.46,3.36S229.22,50.28,229.22,50.15Zm10.43,9.21-3.21-.5,3.28-3.43,3.35.61ZM247,52l-2.55,2.48-3.07-.67,5.36-5.21Zm5.07-4.93-3.33,3.24,0-3.68,3-2.95Zm-10.68-6.71-2.62.27,3.07-3,3.24-.87Z"
        fill="#212121" />
    <polygon
        points="161.65 142.05 151.5 131.63 150.78 130.41 151.25 128.99 197.34 82.72 198.37 82.14 199.77 82.77 209.71 92.98 161.65 142.05"
        fill="#212121" />
    <rect width="300" height="300" fill="none" />
</svg>