<svg xmlns="http://www.w3.org/2000/svg" viewBox="0 0 30 30"><path d="M28.26,0,26.35,1.86H26.1L24.81,3.11h-.26L24.43,3h-.27l-.39.38V3.5l-.07-.07-.17.17v.16l-.08-.08-.16.16V4l-.09-.1L23,4.09v.16l-.08-.08-.13.13-.16-.17L22,4.36l-.19.19L21.3,4h-.25l-.15.14v.39l.72.74v.13l.05.05-.13.12v.18l-.09-.08-.16.16V6L21.19,6,21,6.13v.16L21,6.23l-.16.15v.15l-.07-.07-.18.17v.16l-.07-.08-.16.16V7h-.13L20,7.16v.12h-.11l-.13.12v.13h-.12l-.09.08v.16h-.14l-.12.11V8H19.2l-.14.14v.13H19l-.13.13v.1h-.1l-.14.14v.11h-.11l-.14.13V9h-.09l-.11.1v.11H18l-.18.18v.13h-.1l-.13.12v.14h-.15l-.08.09V10h-.11l-.15.15v.11H17l-.13.12v.11h-.1l-.14.13v.14h-.14l-.11.11V11h-.08l-.17.16v.09h-.1l-.11.11v.13s-.1,0-.1,0l-.15.13v.08h-.13l-.14.14v.12h-.08l-.13.12v.12h-.11l-.1.1v.15h-.12l-.12.13v.11h-.12l-.13.13v.11H14.4l-.14.14v.1h-.13l-.13.12v.13h-.1l-.1.1v.1h-.13l-.14.14v.12h-.09l-.13.12v.13H13.2l-.12.12v.13H13l-.11.11v.11h-.1l-.11.11v.11h-.13l-.13.12V15h-.11l-.13.13v.11H12l-.13.12v.11h-.11l-.1.1v.12h-.11l-.13.12V16h-.08l-.12.12v.11h-.17l-.1.1v.14h-.11l-.11.11v.12h-.11l-.11.1v.15H10.4l-.1.1v.12h-.09l-.13.13v.1H9.94l-.11.11v.12H9.72l-.1.1v.16H9.54L9.4,18v.11H9.28l-.11.11-.08-.09h-.2l-.6.19L8,17.93H7.83l-.06-.06H7.61l-.07-.07-.12.12-.06.27.07.08v.06l.15.15h.09l.55.56,0,.14-1,.94,0-.05L7,20.28v.36l.18.18L7,21v.17l-2.9,3L4,24.05,1.85,26.2l0,.22-.08.11.23.32.6.63-.1.1-.31-.4-.36-.37-.31-.12-.49.61.18.41.39.29.49.31.68.69.51.69.3.31.69-.45-.37-.39L4,29.05l.37.38,1.28-1.24.93-1L7.48,26l-.15-.23L7,25.71l-.38-.43-.06-.78.31-.72,1.41-1.44.19,0L9,21.82l.31-.16.33.15.24.25.19,1.45.17,1,.11.3.14.12.48-.2.83-.52L12,24,12,23.83l-.36-.31V23.4l.05-.27L11.59,23l-.17-.16,0-.15v-.23l-.07-.17-.14-.14L11.1,22l.11-.29.26-.24.33-.08.2-.07.59-.58h.08l.12.21.21,0,2.53-2.46v-.15l-.18-.19h-.13l-.64-.66.07-.33-.09-.09h-.2l-.2-.1L14,16.8l0-.23.06-.25,2-2-1-1.06-.1-.17.08-.21,4.66-4.69.16-.09.22.11,1,1,.52-.5.67-.15.23-.22V8.21h.12l.14-.16,0-.08h.06L23,7.84,23,7.72h.07l.14-.16,0-.11.09,0,.12-.14,0-.1h.1l.17-.18V7h.08L24,6.81V6.73l.07,0,.18-.18V6.49h.09l.13-.18,0-.07.09,0,.15-.15,0-.1.09,0L25,5.82l0-.13h.09l.14-.16v0h.09l.1-.12.07-.13.09,0,.31-.34L26,4.4l-.08-.09L25.81,4,27,2.83V2.58L29,.72V.49L28.48,0ZM4.85,28.1l-.78-.81,1.15.45Zm1.29-1.25L6,27l-.15-.29L5.25,25h.14l.14.14ZM7,26.21l0,.11-.24.28-.31-.37.21,0,.2-.08H7Zm-.9-1.79-.08.25L6,25.18l-.12-.28-.12-.39,0-.27.07,0,.14.08.17,0Zm6.14-4,0,.18-.05.12L12,21l-.28.21-.3.09-.21,0L11,21.06l-.1-.2,0-.24h.05l.2.25.2.14.2,0,.16-.07v-.05l-.2-.05-.19-.17-.14-.22v-.14L11.5,20l.17-.06.19,0,.3.28ZM22.79,5.14l0,.22-.3.29-.26,0Zm-.68.72.25,0-.28.25-.26,0ZM20.75,7.22v.23l-.27.26-.27,0ZM20,8l.17-.17.23,0-.28.29Zm1,1-.18-.19.32-.31,0,.34Zm.29-.29V8.33l.24-.25.28.1Zm-.36-1.58.38-.36V7l-.34.33S20.85,7.12,20.85,7.12ZM21.93,8l-.33-.08.32-.3.31.1Zm-.55-1.43.25-.24.25,0-.47.48Zm1.26.68-.24.24-.32,0,.56-.54Zm.47-.49-.31.31V6.74l.32-.31Zm.17-.15,0-.34L23.5,6l.29.07Zm.12-2.08.28-.28L24,4.18l-.57.55ZM22.92,5l.37-.36v.22l-.35.34S22.92,5,22.92,5Zm1,.93-.33-.05L24,5.54l.34.06Zm.73-.74-.25.25-.31-.07.54-.52Zm.51-.49L24.88,5V4.66l.3-.29ZM24.14,4l-.26,0,.31-.3.32-.08Z" transform="translate(0 0)" fill="#212121"/><polygon points="16.16 14.21 15.15 13.16 15.08 13.04 15.13 12.9 19.73 8.27 19.84 8.21 19.98 8.28 20.97 9.3 16.16 14.21" fill="#212121"/><rect width="30" height="30" fill="none"/></svg>