<!-- Copyright (c) 2023 Jan Stehno -->
<svg xmlns="http://www.w3.org/2000/svg" viewBox="0 0 300 300">
    <title>cacciatore12g</title>
    <g id="shotguns">
        <g id="cacciatore12g">
            <path
                d="M128.14,145.79,123,150.91a3.54,3.54,0,0,1,4.37.44c2,2,.1,4.63.1,4.63l-13.82,14.16s-3.1,1.77-4.82.05.1-4.57.1-4.57S93.54,180.45,89.85,186.2a80.7,80.7,0,0,0-8.71,17.27C79,209.59,78,213.72,75.46,215.35s-15,15.71-24.35,26.78S28.29,270,23.76,274.86s-4.82,8.27-.68,12.3,10.52,8.07,15.24,10.72,8.76,3.54,11.66-1.72c4.21-7.64,26.22-56.52,28.87-59.12s6.69-2.09,9.35-5.39,3-3.47,1-10-.81-11,2.59-14.76,4.13-5.09,6.64-3.61,7.15,2.06,12.61-3.4,4.65-6,4.58-9,.07-6.71,2.51-10.18,22.49-22.49,22.49-22.49Zm-18,52.14c-2.77,2.77-6.28,5.57-8.19,3.65s-.15-4.16-.15-4.16a3,3,0,0,0,1.29,2.58c1.36.74,4.94-.3,3.25-.44s-2.66-.71-2.81-2-.31-2.34,2.22-4.87c2.78-2.78,4.39-3.09,6-1.51S112.94,195.17,110.18,197.93Z"
                transform="translate(0 0)" fill="#212121" />
            <polygon points="136.36 151.65 145.78 142.23 150 146.46 140.56 155.9 136.36 151.65"
                fill="#212121" />
            <polygon
                points="144.96 139.25 153.28 147.56 203.62 97.22 203.62 92.77 198.25 87.39 193.86 87.39 155.06 126.19 153.03 131.23 144.96 139.25"
                fill="#212121" />
            <polygon
                points="200.23 86.74 204.8 91.32 221.66 74.46 217.2 70 214.95 72.25 213.58 70.88 279.84 4.62 279.84 2.26 277.57 0 275.02 0 273.66 1.36 272.92 0.62 270.95 2.6 269.77 1.41 267.75 3.42 269.08 4.75 257.78 16.06 258.44 16.72 158.06 117.1 157.22 116.27 154.67 118.83 153.18 117.34 151.31 119.21 153.76 121.65 130.24 145.17 134.56 149.5 143.75 140.3 142.55 139.1 151.31 130.35 153.23 125.58 193.55 85.25 198.75 85.24 208.83 75.17 210.44 76.76 200.23 86.74"
                fill="#212121" />
            <path d="M110.25,164.51,122.35,152s-.89,3.3-5.28,7.69S110.25,164.51,110.25,164.51Z"
                transform="translate(0 0)" fill="#212121" />
        </g>
    </g>
    <g id="frame">
        <rect width="300" height="300" fill="none" />
    </g>
</svg>