<svg xmlns="http://www.w3.org/2000/svg" viewBox="0 0 30 30"><path d="M12.81,14.58l-.51.51a.36.36,0,0,1,.44.05c.2.19,0,.46,0,.46L11.37,17s-.31.18-.48,0,0-.46,0-.46A20.52,20.52,0,0,0,9,18.62a8.76,8.76,0,0,0-.87,1.73c-.21.61-.31,1-.56,1.18a33.55,33.55,0,0,0-2.44,2.68C4.18,25.32,2.83,27,2.38,27.49s-.49.82-.07,1.23a8.2,8.2,0,0,0,1.52,1.07c.47.26.88.35,1.17-.17.42-.77,2.62-5.66,2.89-5.92s.66-.21.93-.53.31-.35.1-1a1.38,1.38,0,0,1,.26-1.48c.34-.37.41-.51.66-.36s.72.21,1.26-.34.47-.6.46-.9a1.63,1.63,0,0,1,.25-1c.24-.34,2.25-2.24,2.25-2.24ZM11,19.79c-.28.28-.63.56-.82.37a.33.33,0,0,1,0-.42.32.32,0,0,0,.13.26c.14.07.5,0,.33,0s-.27-.07-.28-.2,0-.24.22-.49.44-.31.6-.15S11.29,19.52,11,19.79Z" transform="translate(0 0)" fill="#212121"/><rect x="13.65" y="14.61" width="1.33" height="0.6" transform="translate(-6.35 14.49) rotate(-45)" fill="#212121"/><polygon points="14.5 13.93 15.33 14.76 20.36 9.72 20.36 9.28 19.82 8.74 19.39 8.74 15.51 12.62 15.3 13.12 14.5 13.93" fill="#212121"/><polygon points="20.02 8.67 20.48 9.13 22.17 7.45 21.72 7 21.5 7.22 21.36 7.09 27.98 0.46 27.98 0.23 27.76 0 27.5 0 27.37 0.14 27.29 0.06 27.09 0.26 26.98 0.14 26.78 0.34 26.91 0.47 25.78 1.61 25.84 1.67 15.81 11.71 15.72 11.63 15.47 11.88 15.32 11.73 15.13 11.92 15.38 12.16 13.02 14.52 13.46 14.95 14.38 14.03 14.26 13.91 15.13 13.04 15.32 12.56 19.36 8.53 19.88 8.52 20.88 7.52 21.05 7.68 20.02 8.67" fill="#212121"/><path d="M11,16.45l1.21-1.25a1.88,1.88,0,0,1-.52.77A1.54,1.54,0,0,1,11,16.45Z" transform="translate(0 0)" fill="#212121"/><rect width="30" height="30" fill="none"/></svg>