<svg xmlns="http://www.w3.org/2000/svg" viewBox="0 0 30 30"><path d="M18.74,10.4c-.17-.18-.3-.47-.82-.32s-.84.26-2.18,1.59-5.57,5.51-5.57,5.51a4,4,0,0,0-.7,1.15,3.82,3.82,0,0,1-.72,1.05A7.46,7.46,0,0,1,8,21c-.39.54-4.56,4.77-5.35,5.62s-1.16,1-.58,1.6a18.17,18.17,0,0,0,2.14,1.54c.43.31.75.48,1.19-.37s2.83-5.72,3-5.82.12.14.39.14A1.65,1.65,0,0,0,9.91,23c.23-.41.17-.46-.17-.76a1.7,1.7,0,0,1-.27-1.55c.18-.41.41-.57.49-.5s.41.38.73.2,1-.74,1-1.07a.67.67,0,0,0-.21-.62l-.29-.26,7.2-7.2a2.71,2.71,0,0,1,.33-.27A.39.39,0,0,0,18.74,10.4Zm-8.66,7.23,1,.71-.1.09-1-.67ZM11.36,19c.16.16.22.44-.25.91s-.67.46-.88.24a.34.34,0,0,1,0-.47.58.58,0,0,0,.14.34c.13.13.59,0,.41,0s-.28-.07-.32-.22-.06-.31.2-.56S11.2,18.79,11.36,19Zm1.19-2.22a.22.22,0,0,1-.22-.23.22.22,0,0,1,.22-.22.23.23,0,1,1,0,.45Zm.78-.55-.89-.89.09-.08.89.88Z" transform="translate(0 0)" fill="#212121"/><path d="M18.32,9.9a.43.43,0,0,1,.29.12l.25.26L28.23.91V.73L28,.48h-.21Z" transform="translate(0 0)" fill="#212121"/><path d="M18.11,9.9a1.28,1.28,0,0,0-.42.09l-.3.14L26.89.64,26.8.55l.29-.29L27,.16,27.14,0l.11.11L27.38,0l.09.09L27.65,0l.17.17-.09.17Z" transform="translate(0 0)" fill="#212121"/><path d="M9.38,18.16a1.62,1.62,0,0,1-.15.36l-.17.28a.15.15,0,0,1-.21,0c-.09-.09,0-.26.22-.43A1.15,1.15,0,0,1,9.38,18.16Z" transform="translate(0 0)" fill="#212121"/><rect width="30" height="30" fill="none"/></svg>