<!-- Copyright (c) 2022 - 2023 Jan Stehno -->
<svg xmlns="http://www.w3.org/2000/svg" viewBox="0 0 300 300"><title>cavershamsteward12g</title><g id="shotguns"><g id="cavershamsteward12g"><path d="M187.42,104c-1.76-1.76-3-4.66-8.23-3.18s-8.37,2.56-21.76,15.94-55.7,55.11-55.7,55.11-3.79,3.81-7,11.5a36.66,36.66,0,0,1-7.24,10.41s-3.67,10.81-7.64,16.16-45.63,47.67-53.52,56.15-11.6,10.26-5.8,16S36,293.29,41.94,297.52c4.25,3,7.46,4.74,11.87-3.76,4.59-8.84,28.29-57.14,29.55-58.18S84.55,237,87.3,237s9.52-2.53,11.83-6.62,1.63-4.61-1.71-7.58S93,211.48,94.74,207.32s4-5.73,4.91-5,4,3.71,7.21,2,9.67-7.43,10.26-10.7a6.59,6.59,0,0,0-2.15-6.25c-1-.82-2.9-2.55-2.9-2.55l72.06-72.06a27.1,27.1,0,0,1,3.32-2.66C189.51,108.71,189.18,105.74,187.42,104ZM100.8,176.27l10.39,7.12-.94,1L100,177.61Zm12.83,13.24c1.62,1.62,2.17,4.4-2.49,9.07s-6.7,4.57-8.85,2.42.07-4.72.07-4.72a6,6,0,0,0,1.42,3.42c1.28,1.28,5.87.22,4.16-.19s-2.83-.71-3.27-2.19-.56-3.09,2-5.65C110.26,188.08,112,187.89,113.63,189.51Zm11.88-22.24a2.25,2.25,0,1,1,2.25-2.25A2.25,2.25,0,0,1,125.51,167.27Zm7.77-5.44-8.91-8.91,1-.82,8.83,8.83Z" transform="translate(0 0)" fill="#212121"/><path d="M183.24,99a4.35,4.35,0,0,1,2.9,1.16c1.15,1.19,2.49,2.6,2.49,2.6L282.3,9.12V7.25l-2.42-2.42h-2.13Z" transform="translate(0 0)" fill="#212121"/><path d="M181.1,99a11.4,11.4,0,0,0-4.17.92c-2.25.94-3,1.37-3,1.37l95-94.95L268,5.49l2.92-2.92-1-1L271.4.17l1.12,1.13L273.83,0l.91.92L276.49,0l1.69,1.64-.87,1.69Z" transform="translate(0 0)" fill="#212121"/><path d="M93.8,181.59a17.92,17.92,0,0,1-1.49,3.62A29.19,29.19,0,0,1,90.55,188a1.45,1.45,0,0,1-2,0c-1-.94.33-2.65,2.16-4.26A13,13,0,0,1,93.8,181.59Z" transform="translate(0 0)" fill="#212121"/></g></g><g id="frame"><rect width="300" height="300" fill="none"/></g></svg>