<svg xmlns="http://www.w3.org/2000/svg" viewBox="0 0 30 30"><path d="M23.48,6.18V5.69l-.7-.7L15,12.75l.87.86-2.15,2.14s-.64.67-1,1.13a11.2,11.2,0,0,0-1,1.77l-1.37-.58a26.17,26.17,0,0,1-1.41,2.8,1,1,0,0,1-.89.28L7.67,21S2.3,27,2.18,27.31c-.22.57.63.77,1.53,1.49s1.71,1.67,2.19.93c.29-.46,3.42-6.63,3.6-6.83s.3-.07.64.1a.85.85,0,0,0,1-.11c.31-.26.65-.53.46-.83s-.61-.51-.49-1.26a10.51,10.51,0,0,1,.78-2.2,2.7,2.7,0,0,1,.38-.64l.14.16a.77.77,0,0,0-.26.46c0,.31-.3.5-.52,1.15a4.27,4.27,0,0,0-.35,1.54,1.34,1.34,0,0,0,.54.77c.26.2.48.22.78-.08s.3-.49.2-.93a1.89,1.89,0,0,1,.06-1.28,4.17,4.17,0,0,0,.23-.73,1,1,0,0,0,.86-.36,1.1,1.1,0,0,0,.37-1.05c-.05-.22-.2-.33-.17-.57s.14-.41-.05-.59a.66.66,0,0,1-.22-.57c0-.19,2.19-2.25,2.19-2.25l.11.11,3.3-3.3-.11-.1,4-4,.23.22.16-.16Zm-11,13.68a2.42,2.42,0,0,0,0,1.2c.1.35.09.51-.14.74s-.32.17-.47.05a.79.79,0,0,1-.4-.71,6.4,6.4,0,0,1,.39-1.58c.16-.44.34-.62.56-.68a.27.27,0,0,1,.37.21A4.24,4.24,0,0,1,12.53,19.86Zm1.39-2.11a.75.75,0,0,1-.51.93.74.74,0,0,1-.81-.15,2.45,2.45,0,0,1-.19-.23,1.81,1.81,0,0,1,.26.1c.15.06,1,.05.79,0a1.82,1.82,0,0,1-.62-.21.42.42,0,0,1-.2-.5,1.14,1.14,0,0,1,.74-.44C13.61,17.23,13.85,17.49,13.92,17.75Z" transform="translate(0 0)" fill="#212121"/><path d="M27.1.24h-.39L26.47,0l-.58.58L26,.71V.9l-.3.3v.14L17,10.07h-.35l-5,4.95h-.32l-.29.3a.4.4,0,0,0-.4.18.44.44,0,0,0,0,.6.35.35,0,0,1,0,.4,1.23,1.23,0,0,1-.51-.08c-.09-.07.1.23.27.3s.23,0,.23.12-.3.16-.45.55a1.55,1.55,0,0,0,0,.78l.13-.26,1.35.53a16.33,16.33,0,0,1,.8-1.44,18.11,18.11,0,0,1,1.7-1.85l1.57-1.53-.86-.86,8-8,.29.29L27.39.77V.53ZM12.2,15.73a.29.29,0,0,1-.4-.3,6.94,6.94,0,0,1,1-1.18s1-1,1.19-1.13.38.13.39.28a9.27,9.27,0,0,1-1.08,1.25A10.85,10.85,0,0,1,12.2,15.73Zm2-1a6.54,6.54,0,0,1-.58.55c-.11.05-.28-.14-.28-.24a4.21,4.21,0,0,1,.52-.61s.51-.51.61-.57.29.15.29.23A4.5,4.5,0,0,1,14.24,14.71Z" transform="translate(0 0)" fill="#212121"/><polygon points="23.2 5.15 23.61 5.57 27.86 1.32 27.86 1.11 27.65 0.9 27.44 0.9 23.2 5.15" fill="#212121"/><rect width="30" height="30" fill="none"/></svg>