<!-- Copyright (c) 2023 Jan Stehno -->
<svg xmlns="http://www.w3.org/2000/svg" viewBox="0 0 300 300">
    <title>coachmatelever4570</title>
    <g id="rifles">
        <g id="coachmatelever4570">
            <path
                d="M234.8,61.8V56.9l-7-7-77.62,77.62,8.61,8.62-21.41,21.42s-6.43,6.66-10.39,11.33-10,17.66-10,17.66l-13.7-5.81s-11,24.84-14,28a9.59,9.59,0,0,1-9,2.73c-1.79-.47-3.58-1-3.58-1S23,270,21.78,273.07c-2.21,5.75,6.36,7.78,15.36,14.93,9.18,7.31,17.09,16.72,21.83,9.28C61.87,292.72,93.16,231,95,229s3-.71,6.43.92,6.78,1.55,9.81-1.06,6.48-5.28,4.6-8.34-6.17-5.09-4.9-12.53,5.65-17.52,7.72-22a27.41,27.41,0,0,1,3.82-6.41l1.46,1.56a7.37,7.37,0,0,0-2.59,4.66c-.43,3.06-3,5-5.23,11.44s-4.05,12.34-3.49,15.4,2.74,5.75,5.37,7.73,4.76,2.21,7.77-.8,3.07-5,2-9.28a19.48,19.48,0,0,1,.65-12.86,34.76,34.76,0,0,0,2.27-7.25s4.26.75,8.66-3.65,4.06-8.3,3.63-10.49-2-3.25-1.62-5.72,1.38-4.1-.49-5.87a6.21,6.21,0,0,1-2.22-5.68c.33-1.94,21.9-22.52,21.9-22.52l1.09,1.09,32.94-32.95-1.05-1,39.85-39.84,2.29,2.3,1.6-1.61ZM125.3,198.61a24.32,24.32,0,0,0-.37,12c1,3.48.87,5.15-1.42,7.44-2.59,2.59-3.2,1.65-4.75.47s-4-2.83-4-7.07,2.36-11.3,3.91-15.77,3.44-6.22,5.6-6.88a2.73,2.73,0,0,1,3.72,2.17C128.13,192.25,126.29,195.65,125.3,198.61Zm13.94-21.14a7.64,7.64,0,0,1-5.13,9.32c-5.32,1.84-8.08-1.44-8.08-1.44a20.26,20.26,0,0,1-2-2.37,26.58,26.58,0,0,1,2.59,1c1.51.65,10.17.54,7.91-.17-2.06-.64-3.91-.61-6.17-2.14s-2.54-3.49-2-5,5-4.43,7.35-4.38S138.54,174.92,139.24,177.47Z"
                transform="translate(0)" fill="#212121" />
            <path
                d="M271,2.4h-3.89L264.69,0l-5.8,5.8,1.28,1.27v2L257.23,12v1.38l-87.3,87.3h-3.51l-49.59,49.59h-3.21l-3,3s-2-.61-4,1.79a4.43,4.43,0,0,0-.14,6c1.06,1.34.43,3.67-.14,4a10.34,10.34,0,0,1-5-.78c-1-.63.94,2.34,2.71,3s2.26.5,2.26,1.2-3,1.63-4.45,5.51a14.75,14.75,0,0,0-.52,7.84l1.27-2.63,13.52,5.37s5.46-11,8-14.42a194.46,194.46,0,0,1,17-18.55c6.71-6.43,15.75-15.26,15.75-15.26l-8.65-8.65,79.9-79.91,2.95,3L273.89,7.72V5.3ZM122,157.26c-2.17,1.08-4.2-1.08-4.05-3s10.25-11.77,10.25-11.77,10-10.27,11.88-11.35,3.77,1.32,3.86,2.83-10.73,12.52-10.73,12.52S124.17,156.18,122,157.26Zm20.44-10.2s-4.73,4.95-5.82,5.49-2.87-1.39-2.8-2.34,5.18-6.09,5.18-6.09,5.1-5.15,6.05-5.7,2.9,1.48,2.94,2.24S142.45,147.06,142.45,147.06Z"
                transform="translate(0)" fill="#212121" />
            <polygon
                points="231.97 51.53 236.1 55.65 278.57 13.18 278.57 11.06 276.52 9.01 274.4 9.01 231.97 51.53"
                fill="#212121" />
        </g>
    </g>
    <g id="frame">
        <rect width="300" height="300" fill="none" />
    </g>
</svg>