<svg xmlns="http://www.w3.org/2000/svg" viewBox="0 0 30 30"><polygon points="17.65 10.43 18.63 11.41 23 7.05 21.99 6.04 17.65 10.43" fill="#212121"/><path d="M25,2.94,27.37.59,26.78,0l-.37.37L26.26.22,26.1.37l.15.15L14.17,12.61l-.1-.1-.31.32-.1-.1-.69.69a1.1,1.1,0,0,1-.27.33l-1.82,1.83-.12.41a1.08,1.08,0,0,0-.32-.17.32.32,0,0,0-.18,0,1.63,1.63,0,0,1,.33.21.75.75,0,0,1,.13.12,12,12,0,0,0-.5,1.41c0,.12,0,.15,0,.15a20.15,20.15,0,0,1-1.48,3,1.83,1.83,0,0,1-1,.4s-5.17,5.59-5.16,6a20,20,0,0,0,3,3,43.54,43.54,0,0,0,3.29-6.13A5.36,5.36,0,0,1,10.47,22a2.65,2.65,0,0,1,.15-1.75c.44-1,.59-1.31.75-1.31s.29.21.6.17a.88.88,0,0,0,.69-.48c.21-.32.24-.63,0-.83s-.28-.27-.24-.49a.77.77,0,0,1,.27-.47c.21-.2,1.86-1.92,1.86-1.92l.08.09,1.23-1.23-.08-.07,2.43-2.42-.83-.83,7-7,.23.22L22.24,6l.66.66,2.35-2.35.09.08.22-.22L25.37,4l.35-.36ZM12.46,17.84a.47.47,0,0,1,0,.7c-.22.29-.51.44-.69.34a.41.41,0,0,1-.22-.41,2,2,0,0,1,.16-.4.85.85,0,0,0,0,.48c.1.19.2.25.22.2s-.11-.1-.15-.36a.64.64,0,0,1,.17-.6A.36.36,0,0,1,12.46,17.84Zm5.09-6.94L15,13.49l-.34-.34,2.6-2.58Z" transform="translate(0 0)" fill="#212121"/><rect width="30" height="30" fill="none"/></svg>