<!-- Copyright (c) 2023 Jan Stehno -->
<svg xmlns="http://www.w3.org/2000/svg" viewBox="0 0 300 300">
    <title>cousomodel1897</title>
    <g id="shotguns">
        <g id="cousomodel1897">
            <polygon points="176.47 104.26 186.33 114.12 229.98 70.47 219.93 60.42 176.47 104.26"
                fill="#212121" />
            <path
                d="M250.16,29.44,273.7,5.89,267.8,0l-3.66,3.67-1.51-1.52L261,3.74l1.47,1.47L141.67,126.06l-.95-1-3.15,3.15-1-1-6.93,6.93a11.23,11.23,0,0,1-2.62,3.32L108.78,155.8l-1.13,4.1a11.11,11.11,0,0,0-3.23-1.66,3.87,3.87,0,0,0-1.86,0,17.91,17.91,0,0,1,3.32,2.07c1.21,1.06,1.36,1.21,1.36,1.21s-5.24,12.84-5.09,14.1.16,1.52.16,1.52-11,25.92-14.79,29.47-9.6,4-9.6,4-51.69,56-51.62,59.63c.07,3,28,29.1,29.93,29.7s28-48.74,32.83-61.34,15.41-17.23,15.61-18.94-2.92-7.86,1.52-17.53,5.87-13.05,7.53-13.1,2.84,2.09,6,1.68,4.94-1.63,7-4.78,2.34-6.33,0-8.24-2.85-2.77-2.4-4.91.66-2.65,2.72-4.71,18.54-19.2,18.54-19.2l.84.83,12.24-12.24-.72-.72,24.22-24.22-8.22-8.23,69.79-69.79,2.27,2.27-23.51,23.5,6.6,6.6,23.55-23.54.87.87L255.63,42l-2-2,3.55-3.55Zm-125.57,149c2,1.91,2.42,4.08.26,7s-5.1,4.35-6.84,3.4a4.21,4.21,0,0,1-2.23-4.15,27,27,0,0,1,1.63-4s-.61,2.91.38,4.8,2,2.57,2.23,2.08-1.1-1-1.52-3.59.27-5,1.7-6A3.49,3.49,0,0,1,124.59,178.43ZM175.54,109l-25.92,25.92-3.4-3.4,26-25.82Z"
                transform="translate(0)" fill="#212121" />
        </g>
    </g>
    <g id="frame">
        <rect width="300" height="300" fill="none" />
    </g>
</svg>