<svg xmlns="http://www.w3.org/2000/svg" viewBox="0 0 30 30"><path d="M.09,26.77a23.8,23.8,0,0,0,2.77,1.29c.91.4.84.41,1.26-.24S7.3,23.45,7.3,23.45a3.9,3.9,0,0,0,.28.38c.17.2.24.35.69.16A1.27,1.27,0,0,0,9,22.91c0-.27-.7-.43-.9-.95s0-1,.78-1.72,1-.81,1.12-.8.27.12,0,.86,0,.59.41,0A4.63,4.63,0,0,0,11,18.54a2.38,2.38,0,0,1,1.33-1.2.81.81,0,0,1,.78.24s.32-.27,1.65-1.46a7,7,0,0,0,1.41-1.89L15.43,13,6.75,20.6l-1-.8A20.17,20.17,0,0,1,4,21.59a1.85,1.85,0,0,1-1.29.34L.62,23.76c-.54.48-.54.64-.39.88s.79.43.76.65-.62.61-.83.81A.53.53,0,0,0,.09,26.77Zm4.81-4.4a1.88,1.88,0,0,1,1-1.4c.45-.17.74-.15.7.3a6.39,6.39,0,0,0,.26,1.44.92.92,0,0,1-1,.82A.93.93,0,0,1,4.9,22.37Z" transform="translate(0 0)" fill="#212121"/><path d="M16.86,9.62l.05,0L20.23,6.6l.11.14a4.78,4.78,0,0,0,1.32-.23,11.67,11.67,0,0,0,2-.83,8.34,8.34,0,0,1-.55-.91c-.15-.31.3-.74.36-.8s-.37.35-.6.58a.59.59,0,0,1-.52.2,17,17,0,0,1-1.28,1.19.84.84,0,0,1-.5.17,2,2,0,0,1,.07-.35,5.38,5.38,0,0,1,1-1l-.24-.3c.18-.45,1.29-1.56,1.15-1.51-.46.18-1.48.59-1.66.69a10.4,10.4,0,0,0-1.18,1l-.35,1.52.39.43-3,2.75ZM22.74,5.8a1.31,1.31,0,0,1,.51-.38c.32-.1-.12.41-.33.48S22.62,5.94,22.74,5.8Zm-1.46.43c0-.08.77-.75,1-1A.89.89,0,0,1,22.85,5c.55-.06-.32.91-.5,1S21.27,6.32,21.28,6.23ZM20.4,4.49c-.08,0-.12-.18.1-.37s1.3-.86.82-.24A1.88,1.88,0,0,1,20.4,4.49Zm-.61,1c.05-.35.62-.79.92-.92s.5-.21-.16.54C20.06,5.67,19.74,5.82,19.79,5.47Zm0-.63c.2-.23.53-.31.27-.06S19.64,5.07,19.83,4.84Z" transform="translate(0 0)" fill="#212121"/><polygon points="17.56 11.17 18.15 11.82 17.81 12.1 17.48 11.23 17.56 11.17" fill="#212121"/><path d="M17.18,11.5l.39.8-.78.63a7.44,7.44,0,0,1-.41,1l-.63-1.15Z" transform="translate(0 0)" fill="#212121"/><polygon points="18.34 10.49 18.98 11.15 18.39 11.63 17.86 10.91 18.34 10.49" fill="#212121"/><polygon points="6.74 20.34 5.02 18.91 8.85 15.27 9.13 15.52 8.11 16.59 8.25 17.81 14.69 11.89 15.32 12.86 6.74 20.34" fill="#212121"/><polygon points="17.39 10.99 17.42 11.02 17.41 11.03 17.39 10.99" fill="#212121"/><polygon points="15.07 11.54 16.53 10.2 17.08 11.31 15.65 12.57 15.07 11.54" fill="#212121"/><polygon points="20.22 6.8 21.32 8.18 18.65 10.51 18.36 10.2 17.74 10.74 17.01 9.76 20.22 6.8" fill="#212121"/><polygon points="8.37 17.54 8.33 17.1 14.46 11.45 14.62 11.78 8.37 17.54" fill="#212121"/><polygon points="16.46 10.06 16.47 10.07 15 11.42 14.82 11.12 16.29 9.77 16.42 9.92 16.46 10.06" fill="#212121"/><path d="M16,8.89l-.5-.43.15-.22.15-.11.25.71Z" transform="translate(0 0)" fill="#212121"/><path d="M17,7.06a8.82,8.82,0,0,1,1.83-1.57c.5-.32.71-.43.71-.43l-.22,1a5.9,5.9,0,0,0-1.53,1c-.33.36-.91.94-1.4,1.42L16,7.93A7.35,7.35,0,0,0,17,7.06Z" transform="translate(0 0)" fill="#212121"/><path d="M15.64,9.22c-.4.33-.74.57-.74.57l-.42-.51a3,3,0,0,0,.84-.59l.4.45A.6.6,0,0,0,15.64,9.22Z" transform="translate(0 0)" fill="#212121"/><polygon points="8.75 15.12 8.74 14.67 5.04 18.2 4.96 18.74 8.75 15.12" fill="#212121"/><path d="M9,20.24l-.27.23a1,1,0,0,0,.46.2c.29,0,.77,0,.57-.1S9.39,20.61,9,20.24Z" transform="translate(0 0)" fill="#212121"/><path d="M19.06,15.77l.43.48s4.15-4.89,4.9-5.87a31.05,31.05,0,0,0,2.08-3.91L26,5.66l-.79.61A5.52,5.52,0,0,1,24,9a36.48,36.48,0,0,1-2.66,3.41,1.66,1.66,0,0,1-.06,1,3.08,3.08,0,0,1-1.08,1.58A11,11,0,0,1,19.06,15.77Z" transform="translate(0 0)" fill="#212121"/><path d="M20.45,11.58a1.4,1.4,0,0,0-.77-.06c-.42.1-.86.26-.86.26a50.48,50.48,0,0,0,4-4.37,10.56,10.56,0,0,0,1.41-2.86L25,3.89l.55.91a15.67,15.67,0,0,1-2.32,4C21.86,10.29,20.45,11.58,20.45,11.58Z" transform="translate(0 0)" fill="#212121"/><path d="M14.51,7.31A1.13,1.13,0,0,1,15,7.14a1,1,0,0,1,.36,0A20.29,20.29,0,0,1,17.91,5.3c1-.59,1.53-.91,1.53-.91l-.38-.5.15-.29a16.74,16.74,0,0,0-2.39,1.67C15.7,6.22,14.51,7.31,14.51,7.31Z" transform="translate(0 0)" fill="#212121"/><path d="M19.86,12.35l-2,2.08-.27-.26a3.55,3.55,0,0,1,.71-1A3.37,3.37,0,0,1,19.86,12.35Z" transform="translate(0 0)" fill="#212121"/><path d="M26.64,6.52l-.64-1L25,6.28l.71-1.5-.64-1-1,.76L23.7,5.56l-.43-.72a.48.48,0,0,1,0-.46,8.69,8.69,0,0,1,.89-.91L24.33,2l.84-.38,1.42,2.47Z" transform="translate(0 0)" fill="#212121"/><path d="M23.55,5.89a8.88,8.88,0,0,1-2,.76,6.6,6.6,0,0,1-1.16.2l1,1.25a3,3,0,0,1,.86-.73,6.15,6.15,0,0,1,.6-.26Z" transform="translate(0 0)" fill="#212121"/><path d="M21.53,4.4,22,5l.32-.34a.49.49,0,0,0,.36,0c.15-.1.83-.78.83-.78L22.22,1.66,19.86,2.85l-.53.65-.18.37.48.68s.94-.9,1.17-1a18.63,18.63,0,0,1,1.95-.72Z" transform="translate(0 0)" fill="#212121"/><path d="M26.71,4.25v.36L30,2.14l0-.33s-.95-.15-1.26.06-.14.39-.47.38a11.73,11.73,0,0,1-1.38,0c-.08,0-.41-.41-.54-.44a8.37,8.37,0,0,0-1,0l.21.31a2.61,2.61,0,0,1,.58,0c.11,0,.47.39.57.42a7,7,0,0,0,1.67,0c.18-.1.28-.34.45-.39a2.64,2.64,0,0,1,.67,0Z" transform="translate(0 0)" fill="#212121"/><polygon points="24.11 3.03 24.07 3.43 23.63 3.84 23.51 3.69 24.11 3.03" fill="#212121"/><polygon points="16.59 14.56 14.75 11.72 13.56 9.32 14.94 11.57 16.59 14.56" fill="#212121"/><polygon points="17.77 12.38 16.59 10 15.81 7.75 16.81 9.83 17.77 12.38" fill="#212121"/><polygon points="15.43 8.6 16.88 9.81 18.45 11.94 16.68 10 15.43 8.6" fill="#212121"/><ellipse cx="18.99" cy="13.69" rx="2.25" ry="1.28" transform="translate(-4.35 15.48) rotate(-40.18)" fill="none" stroke="#212121" stroke-miterlimit="10" stroke-width="0.5"/><ellipse cx="14.55" cy="8.26" rx="1.17" ry="0.56" transform="translate(-1.9 11.34) rotate(-40.18)" fill="none" stroke="#212121" stroke-miterlimit="10" stroke-width="0.3"/><rect width="30" height="30" fill="none"/></svg>