<!-- Copyright (c) 2022 - 2023 Jan Stehno -->
<svg xmlns="http://www.w3.org/2000/svg" viewBox="0 0 300 300"><title>crosspointcb165</title><g id="bows"><g id="crosspointcb165"><path d="M.88,267.74C2,269.36,20,276.83,28.57,280.6c9.14,4,8.4,4.15,12.66-2.38S73,234.51,73,234.51a42.33,42.33,0,0,0,2.81,3.84c1.62,2,2.38,3.4,6.81,1.53s7.5-8,7.08-10.73-7.08-4.35-9-9.55,0-10.22,7.75-17.21,9.88-8.09,11.24-8,2.73,1.19.26,8.6.08,5.88,4.17.09,5.29-13,6.31-17.64,8.86-10.73,13.29-12,7.75,2.38,7.75,2.38,3.24-2.72,16.53-14.65c6.11-5.49,10.81-12.66,14.12-18.82l-7.84-12.08L67.5,206l-9.71-7.92s-12,13.29-18.06,17.8a18.93,18.93,0,0,1-12.95,3.5S11.53,232.81,6.16,237.58.79,244,2.32,246.44s7.84,4.26,7.59,6.48S3.69,259.05,1.56,261A5.36,5.36,0,0,0,.88,267.74Zm48.13-44c1-6.48,5.51-12.27,10-14s7.38-1.53,7,2.95,1.65,8.47,2.56,14.43c.46,3-3.58,8.8-10.34,8.24S48.05,230.22,49,223.75Z" fill="#212121"/><path d="M168.6,96.21l.5.4L202.25,66l1.14,1.42s4.17.17,13.2-2.3,20.08-8.37,20.08-8.37a87.17,87.17,0,0,1-5.51-9.09c-1.43-3.11,3.08-7.4,3.68-8-.49.45-3.78,3.46-6.06,5.82a5.93,5.93,0,0,1-5.2,2s-10,10.05-12.78,11.92a8.34,8.34,0,0,1-5,1.65,20.4,20.4,0,0,1,.77-3.43c.73-2.68,9.63-10.27,9.63-10.27l-2.35-3c1.79-4.48,12.91-15.6,11.43-15-4.55,1.75-14.71,5.91-16.52,6.87-3,1.62-11.82,10.34-11.82,10.34l-3.52,15.17L197.25,66,167.36,93.53ZM227.36,58a14.07,14.07,0,0,1,5.16-3.75c3.19-1-1.24,4.09-3.35,4.77S226.22,59.38,227.36,58Zm-14.54,4.37c.11-.85,7.72-7.55,10.11-10.11a8.85,8.85,0,0,1,5.62-2.67c5.45-.51-3.3,9.15-5.06,10.28S212.7,63.18,212.82,62.33ZM204,44.89c-.85-.34-1.19-1.81,1-3.69s12.95-8.63,8.13-2.44C210.51,42.16,204.86,45.24,204,44.89Zm-6.13,9.83c.51-3.52,6.19-7.89,9.26-9.26s4.94-2.1-1.59,5.46C200.56,56.69,197.37,58.24,197.88,54.72Zm.45-6.3c1.93-2.33,5.28-3.13,2.67-.57C199,49.82,196.4,50.74,198.33,48.42Z" fill="#212121"/><polygon points="175.58 111.69 181.51 118.2 178.07 121.02 174.84 112.34 175.58 111.69" fill="#212121"/><path d="M171.77,115,175.7,123,168,129.3a89.67,89.67,0,0,1-4.12,9.72l-6.37-11.52Z" fill="#212121"/><polygon points="183.4 104.87 189.76 111.46 183.88 116.27 178.58 109.08 183.4 104.87" fill="#212121"/><polygon points="67.37 203.37 50.2 189.06 88.46 152.72 91.36 155.19 81.05 165.93 82.49 178.11 146.9 118.89 153.18 128.55 67.37 203.37" fill="#212121"/><polygon points="173.93 109.89 174.22 110.2 174.09 110.32 173.93 109.89" fill="#212121"/><polygon points="150.74 115.36 165.31 101.96 170.84 113.15 156.46 125.69 150.74 115.36" fill="#212121"/><polygon points="202.19 68.04 213.19 81.84 186.52 105.1 183.62 102 177.38 107.45 170.09 97.56 202.19 68.04" fill="#212121"/><polygon points="83.69 175.43 83.3 171.04 144.62 114.5 146.19 117.75 83.69 175.43" fill="#212121"/><polygon points="164.65 100.64 164.68 100.69 150.04 114.2 148.21 111.19 162.87 97.67 164.2 99.17 164.65 100.64" fill="#212121"/><path d="M159.92,88.88l-5.06-4.23c1.18-1.64,1.5-2.21,1.5-2.21s.6-.43,1.55-1.15l2.51,7.11Z" fill="#212121"/><path d="M169.48,70.57c4.88-6,13.4-12.5,18.35-15.68s7-4.26,7-4.26L192.65,61s-9.77,4.48-15.22,10.28c-3.38,3.58-9.15,9.43-14,14.17l-3-6.19A65.55,65.55,0,0,0,169.48,70.57Z" fill="#212121"/><path d="M156.36,92.15c-3.92,3.35-7.38,5.74-7.38,5.74l-4.15-5.06s5.86-2.8,8.38-6l4,4.51C156.92,91.66,156.62,91.93,156.36,92.15Z" fill="#212121"/><polygon points="87.46 151.16 87.41 146.73 50.43 181.95 49.58 187.4 87.46 151.16" fill="#212121"/><path d="M90,202.35l-2.72,2.34a9.54,9.54,0,0,0,4.64,2.05c2.85.42,7.71-.13,5.66-1.07S93.87,206.14,90,202.35Z" fill="#212121"/><path d="M190.61,157.67l4.26,4.85s41.57-48.9,49.07-58.7,20.79-39.16,20.79-39.16l-5.23-8.07-7.95,6.14s0,10.34-11.24,27.15S213.72,124,213.72,124a16.83,16.83,0,0,1-.58,9.64c-1.87,5.34-4.23,10.56-10.82,15.84A102.16,102.16,0,0,1,190.61,157.67Z" fill="#212121"/><path d="M204.5,115.83a13.25,13.25,0,0,0-7.72-.59c-4.21,1-8.6,2.55-8.6,2.55s29.52-29.27,39.63-43.7A105.39,105.39,0,0,0,241.9,45.46l7.83-6.59L255.19,48S245.42,73,232,88,204.5,115.83,204.5,115.83Z" fill="#212121"/><path d="M145.09,73.09a12,12,0,0,1,5.22-1.73c2.84-.17,3.55.17,3.55.17S168.74,58.81,179.14,53s15.27-9.09,15.27-9.09l-3.8-4.94,1.47-3a172.9,172.9,0,0,0-23.85,16.7C157,62.22,145.09,73.09,145.09,73.09Z" fill="#212121"/><path d="M198.56,123.5l-20.05,20.79-2.67-2.56s3.3-7,7.1-10.16A34.6,34.6,0,0,1,198.56,123.5Z" fill="#212121"/><path d="M266.43,65.17,260,55.12l-10.5,7.67,7-15L250.19,37.4,240.59,45,237,55.57l-4.25-7.15s-1.54-2.5-.23-4.66,8.92-9.09,8.92-9.09l2-14.26,8.35-3.83,14.23,24.71Z" fill="#212121"/><path d="M235.48,58.87s-10.23,5.51-19.94,7.61-11.64,2-11.64,2L214.07,81s3.91-5,8.63-7.27a44.23,44.23,0,0,1,6-2.61Z" fill="#212121"/><path d="M215.32,44l4.54,5.62,3.24-3.41a5.15,5.15,0,0,0,3.63-.4C228.21,44.84,235,38,235,38L222.19,16.61,198.56,28.54,193.33,35l-1.87,3.74,4.88,6.82s9.39-9,11.68-10.39c3.52-2.13,19.51-7.25,19.51-7.25Z" fill="#212121"/><path d="M267.11,42.48,267,46.14l33-24.7-.26-3.33s-9.54-1.53-12.69.6-1.36,3.92-4.6,3.83-12.95.26-13.8-.25-4.18-4.09-5.45-4.43-9.89-.09-9.89-.09l2.13,3.16s4.6-.52,5.71-.09,4.77,3.83,5.71,4.18,14.82,1.27,16.7.34,2.81-3.33,4.51-3.84,6.73.17,6.73.17Z" fill="#212121"/><polygon points="241.09 30.34 240.66 34.26 236.27 38.43 235.12 36.9 241.09 30.34" fill="#212121"/><polygon points="165.9 145.65 147.5 117.2 135.57 93.17 149.37 115.66 165.9 145.65" fill="#212121"/><polygon points="177.66 123.84 165.9 99.99 158.06 77.5 168.12 98.28 177.66 123.84" fill="#212121"/><polygon points="154.31 86.02 168.8 98.11 184.47 119.41 166.75 99.99 154.31 86.02" fill="#212121"/><ellipse cx="189.9" cy="136.88" rx="22.53" ry="12.82" transform="translate(-43.5 154.81) rotate(-40.18)" fill="none" stroke="#212121" stroke-miterlimit="10" stroke-width="5"/><ellipse cx="145.5" cy="82.58" rx="11.69" ry="5.58" transform="translate(-18.95 113.35) rotate(-40.18)" fill="none" stroke="#212121" stroke-miterlimit="10" stroke-width="3"/></g></g><g id="frame"><rect width="300" height="300" fill="none"/></g></svg>