<svg xmlns="http://www.w3.org/2000/svg" viewBox="0 0 30 30"><path d="M26.76,0l-.23.22h-.2L26.18.07,25.75.5,26,.72l-.38.38v.16L12.41,14.6h-.08l-.45.44h-.11l-.57.57H11l-.12.11h0l-.08.08v.06l.15.16s-1.1,1.12-1.2,1.24A10.68,10.68,0,0,0,9,18.83a18.6,18.6,0,0,1-1.12,2.88A9.46,9.46,0,0,1,6.08,23a11.06,11.06,0,0,0-2.61,2.67c-1,1.38-1,1.45-1,1.68a3.49,3.49,0,0,0,1,1.43C4.12,29.46,5,30.21,5.21,30l.61-.75.56-.85a1.79,1.79,0,0,0,.23.15c.09.06.15.07.25-.1s.06-.24-.09-.32L6.59,28s1.26-2.62,1.48-3a3.79,3.79,0,0,1,.63-.65.58.58,0,0,0,.23.07.31.31,0,0,0,.3-.11c.12-.12,1.17-1.13,1.25-1.28s.11-.23,0-.44a3.82,3.82,0,0,1-.67-1.82c0-.8.11-1.07.29-1.25s.32-.29.72-.11.69.31,1.11-.11.82-.76.83-1a.51.51,0,0,1,.17-.38l0-.16a.9.9,0,0,1-.47-.27c-.23-.23-.19-.39-.19-.39l.08,0,.92-.92s.11.06.3-.12a.33.33,0,0,0,.06-.39S15.15,14,15.5,13.74a10.27,10.27,0,0,0,1.82-1.45c.86-.88,2.6-2.7,2.6-2.7L20,9.7c.09.09.14.13.27,0s.06-.19,0-.29l-.11-.12a1.74,1.74,0,0,0,.31-.64.94.94,0,0,0,0-.42l4.36-4.5.14,0,.15-.16V3.53l.1-.09.07,0,.35-.36V3l.11-.1h.08l.14-.17,0-.14L27.45,1l0,0L27.53,1,27.27.75l-.05.06,0,0L25.67,2.41l-.17-.08L27.28.54V.31L27,0Zm-20,28.38a.13.13,0,0,1-.18,0,.12.12,0,0,1,0-.17.12.12,0,0,1,.17.17ZM12,19c-.57.56-.86.47-1.06.27s-.21-.32-.21-.32c.26.23.45.39.66.3s-.15-.07-.34-.26a.65.65,0,0,1-.19-.4c0-.09,0-.16.14-.21a9.48,9.48,0,0,0,.81-.87c.08-.08.14-.24.49.12S12.57,18.42,12,19Zm1.4-3a.21.21,0,0,1-.3,0,.21.21,0,0,1,0-.29.2.2,0,0,1,.3,0A.22.22,0,0,1,13.41,16Zm6.86-6.32a.11.11,0,0,1-.17,0,.12.12,0,0,1,.17-.17A.11.11,0,0,1,20.27,9.67ZM24.6,3.56,20.26,8l-.15-.14,4.33-4.45Z" transform="translate(0 0)" fill="#212121"/><rect width="30" height="30" fill="none"/></svg>