<svg xmlns="http://www.w3.org/2000/svg" viewBox="0 0 300 300"><title>curman50inline</title><g id="rifles"><g id="curman50inline"><g id="weapon"><path d="M267.62,0l-2.28,2.25h-2L261.81.71,257.5,5l2.21,2.24L255.87,11v1.63L124.12,146h-.79l-4.51,4.46h-1.14L112,156.07h-1.68l-1.18,1.16h-.42l-.8.79v.6l1.52,1.55s-10.94,11.24-12,12.48-6.2,11.06-7.87,15.66-7.72,24.25-11.23,28.83-7.92,6.05-17.41,13-15.81,13-26.16,26.75-10.31,14.44-9.84,16.77,3,7.76,9.69,14.32,15.57,14,17.57,11.47l6.13-7.5,5.6-8.43s1.29.93,2.22,1.49,1.57.64,2.57-1.07.56-2.41-.89-3.18a10.86,10.86,0,0,1-1.8-1.09s12.58-26.23,14.81-29.56a35.13,35.13,0,0,1,6.3-6.56,4.81,4.81,0,0,0,2.22.7,3,3,0,0,0,3-1c1.23-1.21,11.7-11.34,12.56-12.87s1-2.33-.36-4.33S98,215.82,97.82,207.81s1.07-10.67,2.93-12.51,3.18-3,7.18-1.1,6.84,3.06,11.08-1.12,8.15-7.61,8.29-10.24A5.36,5.36,0,0,1,129,179l-.41-1.58a8.84,8.84,0,0,1-4.69-2.68c-2.35-2.39-2-3.93-2-3.93l.82.23,9.24-9.2s1.1.57,3-1.27a3.19,3.19,0,0,0,.68-3.85S151.46,140,155,137.38s9.65-5.75,18.25-14.52,25.93-27,25.93-27,.3.25,1.19,1.16,1.4,1.25,2.72-.06.58-1.83-.45-2.87a15.73,15.73,0,0,1-1.11-1.18s2.73-3.76,3.06-6.45a8.5,8.5,0,0,0-.3-4.13L247.9,37.28l1.36.41,1.54-1.6,0-.75.93-.92.71.14L256,31l0-.77,1.06-1,.77.08,1.39-1.61L259,26.28l15.49-16,.38.38.47-.48-2.6-2.63-.55.55.43.42L256.74,24.13,255,23.35,272.84,5.42l-.13-2.32L270,.38ZM67.82,283.85a1.26,1.26,0,1,1-1.76-1.79,1.26,1.26,0,0,1,1.76,1.79Zm52.24-94.06c-5.65,5.58-8.6,4.73-10.57,2.73s-2.08-3.22-2.08-3.22c2.62,2.28,4.44,3.86,6.59,3s-1.49-.75-3.36-2.65a5.67,5.67,0,0,1-1.9-3.95c-.21-.95.12-1.67,1.33-2.16s7.29-7.83,8.13-8.66,1.4-2.4,4.92,1.16S125.72,184.21,120.06,189.79Zm14-29.93a2.11,2.11,0,1,1,0-3A2.11,2.11,0,0,1,134.07,159.86Zm68.66-63.12a1.21,1.21,0,1,1,0-1.7A1.2,1.2,0,0,1,202.73,96.74ZM246,35.56,202.58,79.85l-1.48-1.49,43.27-44.45Z" transform="translate(0)" fill="#212121"/></g></g></g><g id="frame"><rect width="300" height="300" fill="none"/></g></svg>