<svg xmlns="http://www.w3.org/2000/svg" viewBox="0 0 30 30"><path d="M9.9,19.45c0,.29.28.68.53.45a.41.41,0,0,0,0-.67,1.63,1.63,0,0,1-.5-.64,1.78,1.78,0,0,0-.3-.63c-.08-.05-.22.05-.22.15a1.78,1.78,0,0,0,.27.56A1.79,1.79,0,0,1,9.9,19.45Z" transform="translate(0 0)" fill="#212121"/><path d="M27.42,0h-.18l-.41.41L26.65.22,25.89,1v.22L17.13,10h-.29l-.38.37-.12-.12-.15.15.12.11-.2.2v.25L13.22,13.8l-.14-.14L9.34,17.4a2,2,0,0,0-.42.63,4.25,4.25,0,0,0-.18.61l.5-.51a.37.37,0,0,1,.06-.21.38.38,0,0,1,.32-.17L18.9,8.42A1.24,1.24,0,0,1,19.61,8c.51-.11.63-.12.63-.12L27.7.45V.28Z" transform="translate(0 0)" fill="#212121"/><path d="M20.24,8.09a2.33,2.33,0,0,0-1.07.33c-.23.18-8.35,8.4-8.73,8.78l-.64.62a1.23,1.23,0,0,1,.28.54,1.15,1.15,0,0,0,.43.64.79.79,0,0,1,.31.52.71.71,0,0,1-.28.54.41.41,0,0,1-.54,0,1.2,1.2,0,0,1-.33-.86,1.32,1.32,0,0,0-.28-.68,1.5,1.5,0,0,1-.09-.18,4.84,4.84,0,0,0-.64.75c-.1.27-.2,1.05-.33,1.58a1.3,1.3,0,0,1-.86.9.63.63,0,0,1-.34,0l-3,2.71a2.56,2.56,0,0,1-.52,1.52,10.14,10.14,0,0,1-1.16,1.3c-.21.17-.41.37.39,1.08a16.73,16.73,0,0,0,2.05,1.61c.48.28.67.47,1-.54a12.21,12.21,0,0,1,.74-1.88l.49-.49-.19-.19s1.31-3.38,1.52-3.55.16,0,.44.37.51.6,1.21.16.85-.62.3-1.21A1.74,1.74,0,0,1,10,20.74c.13-.26.26-.31.48-.14s.62.24,1.07-.21.39-.76.25-1.05-.25-.37-.06-.64,3.82-4.21,4.66-5.35,1.31-1.78,1.31-1.78l.21.21.32-.32L18,11.19a28,28,0,0,1,2.1-2.31c.21-.06.61,0,.63-.34S20.62,8.06,20.24,8.09ZM11.42,20.22c-.32.33-.6.35-.79.16a.25.25,0,0,1,0-.35s.09.22.27.24.51-.08.37-.08a.42.42,0,0,1-.39-.14c-.08-.11,0-.19.19-.39s.41-.23.53-.11S11.75,19.89,11.42,20.22Z" transform="translate(0 0)" fill="#212121"/><rect width="30" height="30" fill="none"/></svg>