<!-- Copyright (c) 2022 Jan Stehno -->
<svg xmlns="http://www.w3.org/2000/svg" viewBox="0 0 300 300"><title>eckers3006</title><g id="rifles"><g id="eckers3006"><path d="M99,194.49c.36,2.93,2.79,6.77,5.31,4.46s2.45-4.42.27-6.66-3.6-3-4.95-6.36-2.1-5.7-3-6.29-2.24.5-2.27,1.42,1,2.78,2.7,5.69S98.64,191.72,99,194.49Z" transform="translate(0)" fill="#212121"/><path d="M274.21,0h-1.79l-4.09,4.09-1.87-1.86-7.52,7.52v2.11L171.3,99.51h-2.92l-3.74,3.73L163.39,102l-1.48,1.47,1.15,1.15-2,2v2.5L132.2,138l-1.38-1.38L93.4,174a19.36,19.36,0,0,0-4.17,6.26,40.25,40.25,0,0,0-1.85,6.12l5.07-5.09a3.39,3.39,0,0,1,.54-2,3.77,3.77,0,0,1,3.2-1.71L189,84.24s2.11-2.88,7.18-4a55.83,55.83,0,0,1,6.23-1.13L277,4.53V2.78Z" transform="translate(0)" fill="#212121"/><path d="M202.37,80.93c-3.87.37-8.37,1.49-10.66,3.29s-83.53,84-87.34,87.75c-1.32,1.3-3.71,3.64-6.32,6.26a12.32,12.32,0,0,1,2.75,5.37,12,12,0,0,0,4.25,6.39,7.89,7.89,0,0,1,3.13,5.26,7.13,7.13,0,0,1-2.82,5.4,4.08,4.08,0,0,1-5.33,0c-2.87-2.38-3-6.06-3.29-8.64s-.87-3.43-2.81-6.81a16.41,16.41,0,0,1-.92-1.82c-3.21,3.36-5.9,6.39-6.36,7.54-1.07,2.66-2,10.44-3.32,15.76s-6.3,8.59-8.59,9a6.56,6.56,0,0,1-3.44-.08L41.75,242.7s.16,8.59-5.24,15.22-9.49,11.38-11.62,13-4.1,3.68,3.93,10.72S44.45,295,49.28,297.78,56,302.45,59,292.42a127,127,0,0,1,7.43-18.78l4.91-4.91-1.88-1.89S82.5,233,84.62,231.31s1.54.09,4.36,3.71,5.1,6,12.16,1.54,8.47-6.14,2.94-12.1-5-14.42-3.72-17,2.62-3.11,4.83-1.4,6.26,2.34,10.72-2.12,3.85-7.62,2.54-10.48-2.54-3.68-.66-6.39S156,144.88,164.37,133.5l13.1-17.84,2.16,2.17,3.2-3.2-2.72-2.72s18.82-22.45,21-23.06,6.14-.49,6.32-3.44S206.24,80.56,202.37,80.93ZM114.24,202.18c-3.28,3.28-6,3.5-7.92,1.62a2.46,2.46,0,0,1-.43-3.49s.86,2.14,2.74,2.42,5.06-.83,3.65-.8-3.16-.24-3.9-1.41-.11-1.89,1.9-3.9c3-3,4.12-2.33,5.31-1.13S117.53,198.89,114.24,202.18Z" transform="translate(0)" fill="#212121"/></g></g><g id="frame"><rect width="300" height="300" fill="none"/></g></svg>