<!-- Copyright (c) 2022 - 2023 Jan Stehno -->
<svg xmlns="http://www.w3.org/2000/svg" viewBox="0 0 300 300"><title>focoso357</title><g id="handguns"><g id="focoso357"><path d="M230.16,36.58c-23.6,24.27-58.75,60.89-59.92,64.39a19.49,19.49,0,0,0-.69,9.79l-35.87,35.88-21.9-21.93L203.49,33V24.54l4.13-4.13,4.45,4.46,1.83-1.66,3.24.71Z" transform="translate(0)" fill="#212121"/><path d="M114,222.85c-.28,1.05-1.41,2.11-4.74,4.81a10.53,10.53,0,0,0-3.63,10.52c.88,3.36,6.31,4.9,8.19,4.84s2.83.94,2.83,2.42-1.47,5.48,1.24,9.25,5.37,2.77,7.08,2.6,2.47,1.41,2.59,2.47-1.24,3.95-.12,6.43,1.6,3.54.59,9.79-13.75,19.17-22.93,22.4c-7.37,2.6-8.08,1.89-8.43-.82s-2.71-7.2-9.08-15S73.28,255.22,71,242.49s-3-15-8.17-20.27l-3.93-4L67.12,210s6.81,4.42,14.19,4.2,14-4.12,17.82-.4a45,45,0,0,0,11.19,7.65C112.22,222.26,114,222.85,114,222.85Z" transform="translate(0)" fill="#212121"/><path d="M62.65,179.72s4.56,4.82,5.13,10a21.77,21.77,0,0,1-1.15,11,20.43,20.43,0,0,1-1.86,3.72,17.6,17.6,0,0,1,.14-6.72c.84-2.75,1.72-5,1.72-5a7.59,7.59,0,0,0-4.64-2.7,19.52,19.52,0,0,0-9.69.71c-3.49,1.28-5.35,1.06-4.51-.66s3-3,7-4,4.87-1.19,4.87-1.19,1.46,2,2.17,1.32a2.58,2.58,0,0,0,.39-2.91C61.77,182.33,59.82,180.79,62.65,179.72Z" transform="translate(0)" fill="#212121"/><path d="M249.87,3.64c-4.78-4.78-8.44-3.48-8.44-3.48L218.76,22.31,231.55,35c11.94-12.28,19.67-19.83,19.67-19.83S254.64,8.42,249.87,3.64ZM228.5,26.08A2.12,2.12,0,1,1,230.62,24,2.12,2.12,0,0,1,228.5,26.08Zm5.73-5.73a2.12,2.12,0,1,1,2.12-2.12A2.12,2.12,0,0,1,234.23,20.35Zm5.61-5.61A2.13,2.13,0,1,1,242,12.62,2.12,2.12,0,0,1,239.84,14.74Zm5.6-5.6A2.12,2.12,0,1,1,247.56,7,2.12,2.12,0,0,1,245.44,9.14Z" transform="translate(0)" fill="#212121"/><path d="M142.25,163.76s-6.34-6.12-8.05-9.42a16.31,16.31,0,0,1-1.81-6L109.1,125.09,74.47,159.72h-7l-7.77,7.78H54.41L56.88,170s-1.88,2-.2,3.7,3.67,0,3.67,0,8.57,8.8,9.27,16.22a25.12,25.12,0,0,1-5.33,18.46c-2.35,3.06-6.49,8.19-6.49,8.19l9.29-9A13.74,13.74,0,0,0,69.18,209a27.92,27.92,0,0,0,12.35,3.09c4.38.06,6.64-1,10.88-1.75a10.16,10.16,0,0,1,9.46,3c2.36,2.24,6.15,4.78,12.74,7.65,0,0,5.66,2.87,12.12-2.43s12.73-12.47,13.26-20-2.56-10.88-5-13.8-4.33-8.13-.09-13.09S142.25,163.76,142.25,163.76ZM97.05,195.9S82.86,193,78,188s-6.11-18.49-6.11-18.49l31-31.19,25.85,25.86Zm40.44-.34c.29,5.77-8.26,18.63-13.51,20.45s-7.48,2.36-12.73-1.12a17.84,17.84,0,0,1-6.78-9.55l4.89-1.53a13.46,13.46,0,0,0,9.5,6.13c6.36.71,17.57-5.42,12.38-4.6s-13.15.59-14.86-2.77-.71-5.54-1.95-7.66a8.55,8.55,0,0,0-3.3-3.13s6.78-9,13.86-7.84S137.19,189.78,137.49,195.56Z" transform="translate(0)" fill="#212121"/><path d="M102.94,141.87l22.5,22.51L96.57,193.26S87.41,189,81.36,182.91s-7-12.38-7-12.38Z" transform="translate(0)" fill="#212121"/></g></g><g id="frame"><rect width="300" height="300" fill="none"/></g></svg>