<svg xmlns="http://www.w3.org/2000/svg" viewBox="0 0 30 30"><path d="M23,3.66c-2.36,2.42-5.88,6.09-6,6.44a2,2,0,0,0-.06,1l-3.59,3.58-2.19-2.19L20.35,3.3V2.45L20.76,2l.45.45.18-.17.32.07Z" transform="translate(0 0)" fill="#212121"/><path d="M11.4,22.29c0,.1-.14.21-.48.48a1.05,1.05,0,0,0-.36,1.05c.09.33.63.49.82.48s.28.1.28.24a1.19,1.19,0,0,0,.13.93.59.59,0,0,0,.7.26c.17,0,.25.14.26.25s-.12.39,0,.64.16.35.06,1a4.53,4.53,0,0,1-2.29,2.24c-.74.26-.81.19-.85-.08a3.58,3.58,0,0,0-.91-1.5,11.34,11.34,0,0,1-1.65-4c-.22-1.27-.29-1.5-.81-2l-.4-.4L6.71,21a2.84,2.84,0,0,0,1.42.42c.74,0,1.4-.41,1.78,0a4.57,4.57,0,0,0,1.12.77Z" transform="translate(0 0)" fill="#212121"/><path d="M6.27,18a2.09,2.09,0,0,1,.51,1,2.18,2.18,0,0,1-.12,1.1,1.91,1.91,0,0,1-.18.37,1.81,1.81,0,0,1,0-.67c.08-.28.17-.5.17-.5A.75.75,0,0,0,6.2,19a1.93,1.93,0,0,0-1,.07c-.35.13-.53.1-.45-.07s.3-.29.7-.4L6,18.49s.14.2.22.13a.27.27,0,0,0,0-.29C6.18,18.23,6,18.08,6.27,18Z" transform="translate(0 0)" fill="#212121"/><path d="M25,.36c-.48-.47-.85-.34-.85-.34L21.88,2.23,23.16,3.5c1.19-1.23,2-2,2-2A1,1,0,0,0,25,.36ZM22.85,2.61a.21.21,0,0,1-.21-.21.21.21,0,1,1,.42,0A.21.21,0,0,1,22.85,2.61ZM23.42,2a.22.22,0,0,1,0-.43.21.21,0,0,1,.21.21A.21.21,0,0,1,23.42,2ZM24,1.47a.21.21,0,0,1,0-.42.21.21,0,1,1,0,.42Zm.56-.56a.21.21,0,0,1,0-.42.21.21,0,1,1,0,.42Z" transform="translate(0 0)" fill="#212121"/><path d="M14.22,16.38a6,6,0,0,1-.8-.95,1.51,1.51,0,0,1-.18-.59l-2.33-2.33L7.45,16h-.7L6,16.75H5.44l.25.25s-.19.2,0,.37a.29.29,0,0,0,.37,0A3.58,3.58,0,0,1,7,19a2.51,2.51,0,0,1-.53,1.84l-.65.82.93-.89a1.65,1.65,0,0,0,.21.14,2.81,2.81,0,0,0,1.23.31A5,5,0,0,0,9.24,21a1,1,0,0,1,.95.3,4.15,4.15,0,0,0,1.27.77,1.15,1.15,0,0,0,1.21-.25,3.18,3.18,0,0,0,1.33-2,1.69,1.69,0,0,0-.5-1.38,1,1,0,0,1,0-1.31C13.91,16.68,14.22,16.38,14.22,16.38ZM9.7,19.59a4.93,4.93,0,0,1-1.9-.79A3.86,3.86,0,0,1,7.19,17l3.1-3.12,2.58,2.58Zm4.05,0a3.09,3.09,0,0,1-1.35,2,1.14,1.14,0,0,1-1.28-.11,1.79,1.79,0,0,1-.67-1l.49-.15a1.34,1.34,0,0,0,1,.61c.63.07,1.75-.54,1.23-.46s-1.31.06-1.48-.27-.07-.56-.2-.77a.84.84,0,0,0-.33-.31s.68-.9,1.39-.79A1.36,1.36,0,0,1,13.75,19.56Z" transform="translate(0 0)" fill="#212121"/><path d="M10.29,14.19l2.25,2.25L9.66,19.33a6.1,6.1,0,0,1-1.52-1,2.43,2.43,0,0,1-.7-1.24Z" transform="translate(0 0)" fill="#212121"/><rect width="30" height="30" fill="none"/></svg>