<svg xmlns="http://www.w3.org/2000/svg" viewBox="0 0 30 30"><g id="rifles"><g id="forselite300"><path d="M27.1,0l-.82.82,0,.05-.1.1-.06,0L26.06,1l.05.06-.05,0,0-.06-.34.34-.17-.17H25l-.53.53.06.06h.11l.13.14-.37.37-.24.42v.15L18,9.14l-.36-.36-.78.78.09.08-.11.1-.08-.08-.19.19.09.08-.1.1-.08-.09-.19.19.09.08-.1.1-.08-.09L16,10.4l.08.09-.09.09-.08-.09-.19.19.08.09-.11.11-.08-.09-.16.16.08.09-.11.11-.08-.09-.18.17.09.09-.1.1-.08-.09-.17.17.08.09-.12.11-.08-.08-.15.15.08.08-.11.12-.08-.09-.17.17.08.09-.12.12-.08-.09-.17.17.09.08-.11.11L14,12.45l-.16.16.08.09-.08.08-.09-.08-.16.16.08.08-.1.11L13.45,13l-.18.18.08.09-.1.1-.08-.09-.17.17.09.08-.11.11-.09-.08-.17.17.09.08-.11.11-.09-.08-.18.18.09.08-.11.11-.1-.11-.56.57-.08-.08-.1.1.08.08-.2.21.33.33-.85.86-.17.34.25.25-.39.47-.15.35-.29.92-.28.65-.24.41-.22.28-.27.26-.42.21-.49.16-.21.12L7.53,21,2.41,26.3l-.09.21.14.33,1.46,1.44,1.6,1.42L6,30h.16l.11-.15,1-2.16s.3.14.37-.07-.2-.3-.2-.3L9,24.12l.52-.9.26-.28.16-.12.11,0h.26l1-.38.19-.16,0-.12-.3-.9-.09-.95.09-.57.32-.6.51-.62.35-.32.1,0,.15,0,.24.24s.51.46,1.18-.21A1,1,0,0,0,14.33,17l-.28-.31L14,16.56l.1-.14.35-.35.73.74,1.69-1.76-.78-.77,2.23-2.37L20,10.1l1.44-1.6s.21.22.36.06-.08-.35-.08-.35L22.79,7l.12-.28,0-.39L22.78,6l-.09-.14-.15-.16,3.77-3.84.06.06.25-.24-.06-.06.06-.06.06.06.11-.11-.07-.07.08-.08.06.06.82-.81V.37L27.3,0ZM7.53,27.6a.08.08,0,0,1-.11,0,.08.08,0,0,1,.11-.11A.08.08,0,0,1,7.53,27.6ZM14,18.14c-.53.53-.85.31-1,.13a.44.44,0,0,1-.13-.43.55.55,0,0,1,.13-.17.67.67,0,0,0,.22.37.38.38,0,0,0,.47.1c.14-.05,0,0-.32-.26s-.12-.51.1-.73.51-.33.74-.11S14.49,17.61,14,18.14Zm.51-5.33-1.54,1.54-.19-.18v-.1l1.45-1.45h.09Zm2.47-2.59-.8.8-.25.05-.47.47-.07-.07,1.42-1.42Zm4.72-1.76a.08.08,0,1,1,0-.11A.08.08,0,0,1,21.66,8.46Z" transform="translate(0 0)" fill="#212121"/></g></g><g id="frame"><rect width="30" height="30" fill="none"/></g></svg>