<svg xmlns="http://www.w3.org/2000/svg" viewBox="0 0 30 30"><path d="M2.55,28l2.66,1.88.18.12.16.05h.07l.07-.06.11-.18,3-6.21L9,23.37l.09-.07.1,0,.13.06.12.09.11.1h.11l.26-.11.35-.21.36-.27.19-.16.07-.1v-.05l0-.06-.13-.16L10.45,22l-.13-.29-.1-.31,0-.3,0-.32.09-.38.13-.38.12-.25.13-.22.08-.12,0,0,.05,0h.05l.1,0,.18.08.2.1.12,0h.23l.11,0,.13-.08.18-.16.2-.21.13-.16.14-.25.07-.2,0-.21,0-.22,0-.19,0-.21,0,0h.07l0,0,0-.05,0-.2v-.05l0,0h0l.06,0,.07,0,.07-.07v0l0,0,0,0v0l.32-.32,0-.1.05-.11.08-.12.1-.12.85-.85.07-.06.07-.05.1,0h.08l.72-.73h0l.23-.22,0-.07,0-.07V14l0,0-.08-.08,1.23-1.24-.36-.37L15,13.9l-.11-.11,1.62-1.63-.08-.07.07-.07.54.54.27.26.08.07.06,0h0l0,0,.9-1,1.28-1.4L20.7,9.41l1.39-1.5.23-.25,0-.06V7.54l0-.1-.09-.13-.16-.16L21.85,7l-.19-.09-.11,0h-.12L27.89.41v0l0-.09-.06-.1-.1-.1L27.62,0h-.09l0,0-.21.21,0,0H27l-.11,0H26.7l0,0H26.6l-.2.2v0l.05,0,0,.06,0,.09v0l0,0v0l0,.07V.79l0,0-.5.63-.33.41,0,.05V2l-7.17,7.2,0,0h0l-.09.07-.13,0-.12,0-.07,0h-.08l0,0-.07.08-.37.5-.1-.11h0l0,0h0l-.07.07v0l-.09,0-.08-.08,0,0,0,0-.07.07.08.08v.07l0,.06v0l0,0,0,.15,0,0-.14.21v0l0,0-2.25,2.07-.38.37h0l-1.51,1.52L11.29,16l-.36.38-.4.48-.36.47-.27.4-.24.42-.14.24h0l-.23.55-.34.95-.19.52-.09.19-.08.11-.11.08-.16.07-.17.06L8,21,7.93,21l-.2.21L7,22.06l-1,1.11-.82.89c-2.37,2.55-2.92,3.1-3,3.2a.34.34,0,0,0,0,.38A2.76,2.76,0,0,0,2.55,28Zm9.56-10.54a.09.09,0,0,1-.13,0,.09.09,0,1,1,.13-.13A.09.09,0,0,1,12.11,17.41Zm-.67,1.87-.08-.08,0-.09V19h0l0,.05.11.11.15.07.12,0h.07l0,0,0,0h0l-.1,0-.11-.07-.1-.09-.05-.11v-.34l.2-.22.56-.56,0,0h.07l.06,0,.06.06,0,.1,0,.21,0,.23,0,.18-.11.21-.1.13-.21.23-.2.18-.16.06h-.1l-.11,0Zm-.62-.57a.09.09,0,1,1-.13-.13.09.09,0,0,1,.13.13Zm.21.61a.13.13,0,1,1,.19,0A.14.14,0,0,1,11,19.32Z" transform="translate(0 0)" fill="#212121"/><rect width="30" height="30" fill="none"/></svg>