<svg xmlns="http://www.w3.org/2000/svg" viewBox="0 0 30 30"><polygon points="25.07 2.46 26.42 1.14 26.53 0.98 26.53 0.91 26.5 0.88 26.5 0.81 26.63 0.67 26.75 0.67 26.77 0.64 26.92 0.64 27.56 0 27.72 0.03 27.88 0.19 27.93 0.36 26.38 1.92 26.46 2.02 26.51 2.2 26.25 2.46 26.3 2.58 28.13 0.72 28.22 0.73 28.31 0.83 28.31 0.92 25.83 3.28 25.07 2.46" fill="#212121"/><polygon points="16.96 11.99 16.13 11.16 24.44 3.02 25.2 3.88 16.96 11.99" fill="#212121"/><path d="M25.69,4a.39.39,0,0,0,.1.25c.09.09.22.15.34,0s.08-.21,0-.32a.31.31,0,0,0-.24-.09s0,0,0-.15a.7.7,0,0,0-.16-.3L25,2.55l-.16,0-.27.25,0,.11.75.85s.15.17.27.16Zm.16.17c-.09-.09-.07-.11,0-.17s.1,0,.17,0,.1.1,0,.17S26,4.21,25.85,4.12Z" transform="translate(0 0)" fill="#212121"/><path d="M2.15,28.62c.36.32.31.19.57.46a4.16,4.16,0,0,0,1.11.81c.33.14.42.2.56-.15s2.37-5.63,3-6.73a12.8,12.8,0,0,1,.73-1.26l.09,0a2.74,2.74,0,0,0-.26,1c0,.39,0,.49.24.65s.31.22.47.06.05-.34-.13-.56a.76.76,0,0,1-.19-.75,2.12,2.12,0,0,1,.46-.91c.26-.29.41-.34.61-.33a2.58,2.58,0,0,0,.88,0,1.12,1.12,0,0,0,.67-.5A1.46,1.46,0,0,0,11,19.8l.71.07A.33.33,0,0,0,12,20a.43.43,0,0,0,.31-.12c.06-.05,0-.14-.07-.09s-.17.13-.32.09-.17-.09-.17-.09L11,19.69a5.42,5.42,0,0,1-.09-.65,3,3,0,0,1,0-.42l0-.05L12.34,17l1.91-2,1.64-1.72.66-.7-.9-1-1.33,1.31-.09-.08.15-.16v0l-.05-.05h-.24l-.06.06.11.11-.09.09-.13.05,0,0-.54.56-.11.08h-.07l0,.08-.09,0v.08l-.08,0,0,.08L13,14l-.13.13v.09l0,0L10,17.1H9.84l-.19.2H9.58l-.11.1-.23.09-.19.14-.13.13a.77.77,0,0,1-.05.38,2.18,2.18,0,0,1-.61.71c-.33.26-.52.33-.74.54s-.27.29-.25.49a1.75,1.75,0,0,1-.27,1c-.29.6-.68,1.52-.83,1.74s-.29.22-.47.4S3,26.1,2.57,26.54s-.82.74-.87,1.1A1.05,1.05,0,0,0,2.15,28.62Zm6-5.81.05.06.17.21.14.18v0h0l-.09,0-.12-.09L8.13,23l-.06-.17,0-.07Zm1.77-2.34-.06-.14V20.2L9.88,20l0-.07h.29l.2-.17h.14l.07-.07h.11l0,0,0,.26-.09.26-.22.23-.19.1-.14,0h-.09Zm-1.51.86.42-.5.39-.41.39-.35L9.7,20l0,.2,0,.17,0,.11.07.1.08.07-.32,0H9.3l-.17.05-.17.1-.18.15-.17.19-.12.14-.08.1Z" transform="translate(0 0)" fill="#212121"/><path d="M15.75,11.42l.18-.17h.13l.82.84.08.08s.06.08-.1.24-.23.1-.23.1l-.9-1Z" transform="translate(0 0)" fill="#212121"/><rect width="30" height="30" fill="none"/></svg>