<svg xmlns="http://www.w3.org/2000/svg" viewBox="0 0 30 30"><path d="M3.26,27.68l.12.11.06,0H3.5l0,0h0l.05,0V28l.09.05,0,0,.06,0,.07.06v.05l0,0,.07,0,.08,0,.07,0v.06l0,.05.06,0h.09l.07,0v.06l0,.05.06,0,.07,0,.06.06v.07l.06.05H4.8l.06,0,.07.06v.05l0,0,0,0H5l.07,0,.06.06v.06l0,.06,0,0,.07,0,.08.06v.07l.06.07h0l.06,0,.06.05v.06l0,.05,0,0h0l.07,0,.06.06v.07l0,0,.06,0,.07,0,.06.07,0,.06,0,0,0,0,0,0,.06,0,.06.06v0l0,.06.06.05.11.06.1,0,.11,0,.22-.26.28-.32v0l.17-.22v0l0,0,0,0,.4-.47v0l0,0,0,0,0,0L8,27.93l.32-.42.15-.26.18-.57L9,25.5l.25-.8L9.8,23l.13-.41,0-.09.09-.12.53-.55.28-.32.07-.12,0-.12v-.13l0-.12-.1-.14,0,0v0l-.16-.24-.16-.31-.14-.57v-.43l.08-.42.08-.26,0-.08,0,0,.53-.57.13-.07h.14l.1.06.18.16.16.14.09.06.11,0h.13l.11,0,.11-.08.78-.79,0-.09,0-.14,0-.14-.06-.15L13,16.6l-.15-.15,0-.05,0-.08v-.07l0,0,.15-.16.36.35.21.18.11.07.1.05h.11v0l0,0,0,0-.1,0-.15-.1-.14-.16-.12-.2,0-.18V15.8l0-.06.05-.07,1.23-1.31h.09l.09,0,.1-.06.07-.09.05-.11V14l0-.11-.06-.11-.11-.08-.1-.06-.06,0-.07-.07,1.11-1.14-.06-.07.15-.15.07.07.14-.14L15.81,12l.12-.14.09.08.13-.14-.06-.09.12-.13.08.07.14-.14-.07-.08.12-.13.1.07.14-.14-.07-.1.11-.1.1.06L17,11l-.07-.09.11-.11.1.05.14-.15-.06-.09.11-.11.09.07.14-.15-.06-.09.11-.11.09.06.15-.15L17.79,10l.09-.11.1.06.15-.14-.06-.11.11-.1.09.07.13-.13,0-.11.11-.1.09,0,.14-.14-.05-.1.1-.11.1.06L19,8.94l0-.09.1-.11.1.06.14-.15-.06-.09.1-.1.11,0,.12-.13,0-.09.11-.12.09.05.13-.13L19.77,8l.1-.1.08.06.14-.15,0-.09.1-.1.1.06.13-.14-.05-.11.09-.1.12.05.95-1,0-.19-.09-.06,0-.05,0,0h0L26,1.43l0,0h0l0,0,.6-.62V.76h0l.16-.18V.47l-.13-.2L26.54.13,26.4.1l-.06,0-.13.14L26.07.17,26,.11l0,0L26,0H25.9l0,0v0l-.1.1h0l0,0v0l0,.06,0,.08V.55l0,0-.15.15V1h0l0,0L20.94,5.6l0,0,0-.08h-.2l-.13.14.07.08-.1.1-.11-.05-.15.16L20.3,6l-.08.09-.11-.05L20,6.21l.06.1-.09.09-.1-.06-.15.15.05.11-.08.09-.09-.06-.16.15.06.1L19.38,7l-.12,0-.14.15.05.12-.08.08-.12,0-.14.14.07.1-.1.09-.11,0-.14.15.07.09-.11.11-.09-.07-.15.16.05.1-.1.09-.09-.06L18,8.2l0,.12L18,8.4l-.1-.05-.15.15.06.1-.09.1-.1-.06-.16.15.06.1L17.38,9l-.1-.07-.14.15.06.09-.11.13L17,9.21l-.15.16.07.07-.12.11-.09-.05-.15.15.06.08-.1.1-.09-.05-.15.15.06.1-.11.1-.1-.06-.14.14.07.11-.11.1-.11-.07-.12.15,0,.1-.1.11-.1-.06-.14.14.05.1-.1.11-.1-.07-.13.14.06.1-.13.12L15,11.22l-.13.15.07.08-.12.12-.09-.06-.13.14.06.09-.13.13-.09-.07-.14.15.06.09-.12.1-.09-.05-.12.13.05.1-.12.12-.1-.07-.15.15,0,.17L12,14.42l-.05,0h-.05l0,0-.06.07-.49.72-.12,0H11l-.08,0,0,0,0,0H11l.11.06,0,.05v0l-.35.53L9.73,17.51l0,.06v.05l.07.08L9.58,18l-.31.59-.19.55-.18.63-.21.65-.1.29v.1l0,0h0L8.56,21l-.19.16-.21.09-.25.11-.19.16-.21.27-.57-.54-.08-.06-.06,0H6.74l-.08.1-.6.94-.9,1.44-.42.68-.08.24v.13l0,.12L4.8,25l.18.13.25.21-.09.14L5,25.67,4.7,26l-.17.2-.08-.05h0l0,0-.4.49,0-.05H3.87l-.05.05-.16.18h0l-.08.09-.32.4,0,.13v.11ZM20.68,6.39A.19.19,0,1,1,21,6.12a.19.19,0,0,1-.27.27ZM17.87,9.23a.2.2,0,0,1,0-.27.19.19,0,1,1,.27.27A.2.2,0,0,1,17.87,9.23Zm-.62.63a.19.19,0,1,1,.27-.27.19.19,0,0,1-.27.27Zm-2.83,2.83a.2.2,0,0,1,0-.27.21.21,0,0,1,.28,0,.2.2,0,0,1,0,.27A.19.19,0,0,1,14.42,12.69Zm-.06,1.45a.21.21,0,0,1,0-.29.19.19,0,0,1,.28,0,.21.21,0,0,1,0,.29A.19.19,0,0,1,14.36,14.14Zm-2.19,1.32a.11.11,0,0,1,0-.17.12.12,0,0,1,.17.17A.11.11,0,0,1,12.17,15.46Zm-.36-.22a0,0,0,0,1,.07-.07,0,0,0,0,1-.07.07Zm0,.81a.09.09,0,0,1,0,.12.09.09,0,0,1-.13,0,.09.09,0,0,1,0-.12A.09.09,0,0,1,11.79,16.05Zm0-.41a.15.15,0,0,1,0-.21.15.15,0,0,1,.2,0,.15.15,0,0,1-.21.21Zm-.11,2.14-.08-.1,0-.11,0-.11.07-.07,0,0,.05,0,.07.12.1.17.12.14.15.13,0,0,0,0,0,0,0,0-.09-.07-.09-.1-.1-.13-.06-.19v-.26l0-.12.09-.12.35-.37.06,0,.09,0h.08l.08,0,.09.07.3.3.06.11,0,.12-.12.18-.39.39-.33.33-.11.06h-.11l-.07,0-.14-.1ZM5.71,25.72l0,.11,0,.1-.47.82-.51-.38,0-.06.2-.22.24-.31.21-.31.15.14Zm.91-1.09a.1.1,0,1,1-.14,0A.1.1,0,0,1,6.62,24.63Zm1.49-2.29a.1.1,0,1,1-.14,0A.1.1,0,0,1,8.11,22.34Zm2.27-1.5-.19,0,0-.05-.06,0,0,0-.07,0H9.92l0,0,0,.08-.85,0,.26-.78.37-1.21.13-.32L10.1,18l.13.21-.15.41-.1.53v.41L10,20l.13.4Zm-.38.09,0,0,0,0H9.94ZM7.36,28.28,5.56,27,6.62,25l0,0,0,0h0l0,0v-.17l0-.05,0,0L7,24.73v-.07l0-.05,1.2-1.86,0,0,0,0h0l0,0,0,0v-.17l0,0,0,0h0l0,0v-.08l0,0,0,0,0,0,0,0,0,0v-.14l0,0,0,0,0,0h0l0,0,0,0H8l-.06,0,0,0H7.85l-.13-.13.12-.16L8,21.63l.12-.09.21-.09.28-.13.14-.11L8.88,21H9l.88,0-.05,0-.09.08-.06.1,0,.15,0,.05h.08l0-.15,0-.12.08-.07,0,0,.05,0H10l.06-.05,0,0h0l.05-.05.08.05.12.09.08.06h0l0-.05-.14-.14L10.19,21h.25l0,.06,0,0,.08,0,.07.09,0,.08v.07l0,.09L10,22l-.18.2-.11.14-.06.14L9.25,23.8,8.6,25.93l-.3,1-.09.27-.07.11-.33.43Zm-2.1-.92.16-.19,1.42,1-.15.18Zm-.14-.13a.1.1,0,0,1,0-.13.09.09,0,1,1,.13.13A.1.1,0,0,1,5.12,27.23Zm-.28-.17L5,26.87l.13.09L5,27.15Z" transform="translate(0 0)" fill="#212121"/><rect width="30" height="30" fill="none"/></svg>