<svg xmlns="http://www.w3.org/2000/svg" viewBox="0 0 30 30"><g id="shotguns"><g id="gopi10ggrand"><path d="M27.11.56,27,.63l-.19.19-.05,0L27,.58a.27.27,0,0,0,.08-.11.43.43,0,0,0-.16-.33A.37.37,0,0,0,26.55,0a.44.44,0,0,0-.13.09L26.2.33,26.11.25,25.86.5l0,0-.07.07V.6L10.67,16l0,0,0,0v.07s-.32.34-.52.6-.27.48-.38.59-.25.11-.35.21a.2.2,0,0,0,0,.3.46.46,0,0,0,.2.1l-.1.27-.08.07,0,.13,0,0s-.21.57-.33,1a5.7,5.7,0,0,1-.74,1.46.89.89,0,0,1-.67.35,1,1,0,0,0-.67.47C6.72,22,2.63,27,2.52,27.13s-.16.21-.15.3c0,.32.39.65.61.87l1.27,1.17c.4.35.74.63,1,.5s.4-.38.73-1,2.56-5.08,2.68-5.32.12-.33.39-.45,1.25-.66,1.37-.75.11-.11,0-.25a3,3,0,0,1-.4-1.4c.06-.44.16-.93.38-1.06a.39.39,0,0,1,.5.06.55.55,0,0,0,.48.13,3.16,3.16,0,0,0,.93-.72.59.59,0,0,0,.1-.68,1.4,1.4,0,0,0-.41-.39c-.05-.06-.12-.07.07-.27S13.9,16,13.9,16s.1,0,.41-.32,2.06-2.21,2.38-2.57,1.18-1.49,1.36-1.77a1.7,1.7,0,0,1,.54-.6c.2-.12.24-.16.2-.3a.94.94,0,0,0-.09-.22l8.68-9c.18-.2.24-.25.25-.31s0-.15-.18-.28A.33.33,0,0,0,27.11.56Zm-17.69,17c.07-.07.22-.11.26-.08s0,.13-.08.22-.11.09-.17,0A.11.11,0,0,1,9.42,17.58Zm2.67,1.69c-.33.32-.63.64-1,.55a.51.51,0,0,1-.37-.52c0-.11.05-.2.11-.19s0,.1,0,.18a.42.42,0,0,0,.11.34.38.38,0,0,0,.38.1c.1-.05,0,0-.16-.07s-.24-.2-.21-.32a.91.91,0,0,1,.21-.38c.13-.13.1-.14.12-.18s.13-.14.13-.19a.17.17,0,0,1,.06-.17.52.52,0,0,1,.59,0A.58.58,0,0,1,12.09,19.27Zm-.23-1.5a.08.08,0,1,1,0-.11A.08.08,0,0,1,11.86,17.77Zm1.39-1.51a.13.13,0,0,1-.2,0,.14.14,0,0,1,0-.2.14.14,0,0,1,.21,0A.15.15,0,0,1,13.25,16.26Zm.24-.52a0,0,0,0,1-.07,0,0,0,0,0,1,0-.07.06.06,0,0,1,.08,0A0,0,0,0,1,13.49,15.74Zm5.6-7-.84.86-.06-.07L19,8.71Zm1-1-.84.87-.07-.07L20,7.67Zm1.07-1.09-.84.86-.07-.07.84-.86Zm1-1.06-.84.86-.07-.06.84-.87ZM23.26,4.5l-.84.86-.07-.07.84-.86Zm1-1.08-.84.86-.07-.06.84-.87Zm1.06-1.09-.84.87-.07-.07.84-.86Z" transform="translate(0 0)" fill="#212121"/></g></g><g id="frame"><rect width="30" height="30" fill="none"/></g></svg>