<!-- Copyright (c) 2023 Jan Stehno -->
<svg xmlns="http://www.w3.org/2000/svg" viewBox="0 0 300 300">
    <title>grelckdrillingrifle</title>
    <g id="shotguns">
        <g id="grelckdrillingrifle">
            <path
                d="M186.4,109.42c-.3-2.52-3.76-6.23-6.23-6.33a5.94,5.94,0,0,0-4.15,1.63L140.79,140a16.39,16.39,0,0,1-2.56,7.91c-2.47,3.65-25.2,26.88-25.2,26.88s-3.07,3.85-6.3,3.73-7.36-3.31-7.36-3.31-9.71,10.25-13.86,19.09-8.6,20.89-11.16,23.85-7.48,3.08-7.48,3.08S25.29,269,21.58,273s-6.33,4.88.53,10.86,12.8,10.62,20,13.64,7.17,4.64,10.73-3.31,22-44,23.28-46.72,2-3.15,7.3-4.11a14.81,14.81,0,0,0,8.82-5.23c.93-1,.17-1.7-2-8.27s3.36-18.48,4.77-19.74,3.33-.74,5.33.29,5.49,1,11.12-5.55,4.08-10.83,3.48-12.31-1.82-3-3.28-3.06a10.56,10.56,0,0,1-2.55-.45L185,113.2A4.19,4.19,0,0,0,186.4,109.42ZM92,201.71a3.29,3.29,0,1,1,3.29-3.28A3.28,3.28,0,0,1,92,201.71Zm3.34-13.91A1.66,1.66,0,1,1,97,189.46,1.65,1.65,0,0,1,95.34,187.8ZM111.93,193c1.37,1.37,2.8,5.54-2.52,10.86s-8.28,5.06-10.12,3.22-1.52-3.63-.85-5.26,1.37-2,1.37-2a9.91,9.91,0,0,0,0,4.26c.56,1.74,5.52,3.7,4,2.11s-2.3-2.34-2.23-4.23a29.8,29.8,0,0,1,1-5.07,6.24,6.24,0,0,0,2.74,3.37c2.11,1.19,7.08.33,5.37-.07s-4-1.19-4.82-2.82-.87-3.17.56-4.6A4.08,4.08,0,0,1,111.93,193Z"
                transform="translate(0 0)" fill="#212121" />
            <path
                d="M99.33,172.75s4.2,3.91,7.26,3.85,11-9.35,15.13-13.55,14.8-15.09,15.76-17.44a19,19,0,0,0,1.36-4.94c0-.62,0-1.66,0-1.66l35.61-35.61a6.94,6.94,0,0,1,5.6-2.33c3.6.19,6.37,3.88,6.37,3.88l95.2-95.2V8.18l-1.6-1.6,2.1-2.11V2.69L279.46,0h-1.75l-1.92,1.91L275,1.14l-1.23,1.23L272,.57l-1.86,1.85V4.47Z"
                transform="translate(0 0)" fill="#212121" />
            <path
                d="M88.51,185.94a38.72,38.72,0,0,0-2.21,3.19,18,18,0,0,0-1.39,2.7,2.39,2.39,0,0,1-.89-2.3C84,188.57,88.51,185.94,88.51,185.94Z"
                transform="translate(0 0)" fill="#212121" />
        </g>
    </g>
    <g id="frame">
        <rect width="300" height="300" fill="none" />
    </g>
</svg>