<svg xmlns="http://www.w3.org/2000/svg" viewBox="0 0 30 30"><path d="M18.64,10.94a.88.88,0,0,0-.62-.63.61.61,0,0,0-.42.16L14.08,14a1.64,1.64,0,0,1-.26.79c-.24.36-2.52,2.68-2.52,2.68s-.3.39-.63.38a1.76,1.76,0,0,1-.73-.33,9.19,9.19,0,0,0-1.39,1.91,22.32,22.32,0,0,1-1.11,2.38,1.14,1.14,0,0,1-.75.31S2.53,26.9,2.16,27.3s-.64.49,0,1.09a7.39,7.39,0,0,0,2,1.36c.72.3.72.47,1.07-.33s2.2-4.4,2.33-4.67.21-.32.73-.41a1.56,1.56,0,0,0,.89-.52c.09-.11,0-.18-.2-.83a3,3,0,0,1,.48-2c.14-.12.33-.07.53,0s.55.11,1.11-.55.41-1.08.35-1.23-.18-.3-.33-.31a1.45,1.45,0,0,1-.25,0l7.58-7.59A.42.42,0,0,0,18.64,10.94ZM9.2,20.17a.33.33,0,1,1,.33-.33A.33.33,0,0,1,9.2,20.17Zm.33-1.39a.18.18,0,0,1,.17-.17.17.17,0,0,1,0,.34A.18.18,0,0,1,9.53,18.78Zm1.66.52c.14.14.28.55-.25,1.08s-.83.51-1,.33a.46.46,0,0,1-.09-.53A.43.43,0,0,1,10,20a1.14,1.14,0,0,0,0,.43c.06.17.55.37.4.21s-.23-.23-.22-.42a2.52,2.52,0,0,1,.09-.51.61.61,0,0,0,.28.34c.21.12.7,0,.53,0a.72.72,0,0,1-.48-.28.35.35,0,0,1,.06-.46A.39.39,0,0,1,11.19,19.3Z" transform="translate(0 0)" fill="#212121"/><path d="M9.93,17.27s.42.4.73.39,1.1-.93,1.51-1.35a16.75,16.75,0,0,0,1.58-1.75,1.83,1.83,0,0,0,.13-.49,1.39,1.39,0,0,0,0-.17l3.56-3.56a.7.7,0,0,1,.56-.23,1,1,0,0,1,.63.38L28.16,1V.82L28,.66l.22-.21V.27L28,0h-.18l-.19.19L27.5.11l-.12.13L27.2.06,27,.24V.45Z" transform="translate(0 0)" fill="#212121"/><path d="M8.85,18.59s-.12.16-.22.32a1.6,1.6,0,0,0-.14.27A.24.24,0,0,1,8.4,19C8.4,18.86,8.85,18.59,8.85,18.59Z" transform="translate(0 0)" fill="#212121"/><rect width="30" height="30" fill="none"/></svg>