<!-- Copyright (c) 2022 - 2023 Jan Stehno -->
<svg xmlns="http://www.w3.org/2000/svg" viewBox="0 0 300 301.5"><title>hawkedgecb70</title><g id="bows"><g id="hawkedgecb70"><circle cx="267.38" cy="39.27" r="18.74" fill="none" stroke="#212121" stroke-miterlimit="10" stroke-width="2"/><circle cx="64.27" cy="278.47" r="21.53" fill="none" stroke="#212121" stroke-miterlimit="10" stroke-width="3"/><polygon points="243.56 40.97 173.14 141.5 87.42 266.83 175.87 142.89 243.56 40.97" fill="#212121"/><polygon points="250.78 56.33 173.14 141.5 72.75 254.91 175.87 142.89 250.78 56.33" fill="#212121"/><polygon points="273.64 60.24 182.08 169.9 88.25 285.7 184.51 171.8 273.64 60.24" fill="#212121"/><path d="M279.28,33.62l-2.45,5.14-5.15,3.54-9.12-6.09a20.14,20.14,0,0,0-3.73-4.73,29.05,29.05,0,0,0-3.89-2.81l4.17-3.56,4.47-1.53Z" transform="translate(0)" fill="#212121"/><path d="M253.45,31.61l16,12.27-4.37,4.31-2.63.94S257.2,46.5,254.86,44a32.34,32.34,0,0,0-3.92-3.65l.52-4.65Z" transform="translate(0)" fill="#212121"/><path d="M258.56,19.94l-4.71,2.74-3.72,3.93s-15.82-7.86-31.54-11.91-22-3.42-22-3.42l-3,4.9-4.43.35-3.8-2.63-.42-2.66-23,3.54s-1.42-9.91,2.65-11.89S181.6,0,181.6,0l.47,3s14.58-4,39.32,2.56S258.56,19.94,258.56,19.94Z" transform="translate(0)" fill="#212121"/><path d="M248.93,29s-19.88-9.4-33.08-12.14-19.77-2.73-19.77-2.73l-1.71,3.12-4.89.36,2.79,3.86s17.89,1.86,30.25,6.45S246,37.5,246,37.5l.93-4.54Z" transform="translate(0)" fill="#212121"/><path d="M51.29,265.85l-3.61,4.82-1.37,5s7,10.05,11.36,13.43,7,9.15,10.85,6.3a17.07,17.07,0,0,0,5.36-7.81s-8-8.77-8.77-9.16-3.5-.66-4.55-1.06S51.29,265.85,51.29,265.85Z" transform="translate(0)" fill="#212121"/><polygon points="53.52 263.78 56.86 261.71 61.81 260.29 68.73 268.99 70.86 273.49 65.89 277.32 61.49 276.43 53.52 263.78" fill="#212121"/><path d="M49.87,258.36l2.59-1.84,5.82-2s-9-10.21-13.92-22.8-6.16-15.29-6.16-15.29l-4.38-1.16.47,4-2.21,2.87A133.71,133.71,0,0,0,42,244.94C48.1,255.81,49.87,258.36,49.87,258.36Z" transform="translate(0)" fill="#212121"/><path d="M47.57,260.07l-4.16,4.67-2,4.26s-12.28-17.37-18-33.92-6.23-23.81-6.23-23.81l-1.19.17s-4.17-15.12-1-18.48,14.59-7.58,17-7.88a23,23,0,0,0,2.71-.4l.2,1.63-4.35.55s-5.36,2.44-6.07,3.64,2.8,21.62,2.8,21.62l2.7.34,2.72,2.87.38,3.69-2.63,3.8-1.52.23s1.67,7.21,8.13,19.45S47.57,260.07,47.57,260.07Z" transform="translate(0)" fill="#212121"/><path d="M181.82,148.39c3.62-4.44-.61-6.92-.61-6.92l-9-4.95-3.27-4L139.6,108.91a3.66,3.66,0,0,0-5,.78,3.87,3.87,0,0,0,.15,5.12L164,139.33l3.78,2.18,6.36,7.37S178.19,152.83,181.82,148.39Zm-30-21.89-7.26-5.91,2.61-3.21,7.17,5.79Zm11.32,9.21-7.38-5.83,2.72-3.29,7.09,6Z" transform="translate(0)" fill="#212121"/><path d="M181.58,174.5l4.14-.36,3.82,3.31.3,1.36L202.5,189.6s-.23,5.46-4.4,8.32-8.68,2.75-7.51,6,6.68,5.33,14.24-.1,10.83-11.35,11.41-18.63-8.64-12.65-10-12.84-2.79,1.29-1.25,3.06,4.45,4.86,2.89,7.58-3.28,3.14-3.28,3.14l-11.77-9.88-1.38-.33-4.34-3.46-.61-3.9Z" transform="translate(0)" fill="#212121"/><path d="M118.64,123.67l4.28-5.08,12.48,10.56,5.95-6.93s-7.27-6.1-8.22-7.3a5.16,5.16,0,0,1,.47-6.28c2-1.92,4.36-2.36,5.9-1.71s8.22,6.56,8.22,6.56,26.21-34.27,29-37.18,1.95-6.81,2.35-13.2,4.11-11.1,5.49-14.61,1-11.58,1.84-15.64,5.85-9.48,5.85-9.48l-3.87-5.69-4.18-2.32-.38-2.62-21.75,3.42s1.94,30-2.87,45.09-23.79,37.54-35.62,48.42-13.38,16.65-13.38,16.65l15.84,14,5.37-5.92Zm57.22-73c-3.25.39-7.49-2.79-7.53-10,0-5.81,1-6.93,6.51-6.9S181,36,180,41.67,179.11,50.24,175.86,50.64Zm-7.37,14a5.23,5.23,0,0,1,.37-9.25c2.22-.94,5-1.8,5.56,6.12S172.61,67.55,168.49,64.63Zm-15,26.07c-3.63-2.52-2.29-4.09.68-8.38,2.51-3.63,3-4.6,7.15-1.74s3.67,4.31.73,8.56S157.18,93.21,153.54,90.7Zm-7.86,10.46c-2.61-1.8-2.69-3-1.09-5.27,1.34-1.94,2.12-2,4.88,0s3.05,2.83,1.3,5.37S148.29,103,145.68,101.16ZM126,114c1.27-1.51,2.13-1,5.57,1.88s3.63,4.29,2,6.19-2.59,1.07-5.74-1.57S124.13,116.17,126,114Z" transform="translate(0)" fill="#212121"/><path d="M110.05,128.21l12.59,11.19a18.17,18.17,0,0,0-9.88,9.32c-3.64,7.4-6.78,19.7-8.48,21.08s-4.09,1.43-3.56-2.92.39-11.84.25-17.73S110.05,128.21,110.05,128.21Z" transform="translate(0)" fill="#212121"/><path d="M39.1,215.6s8.34-9.43,15-11,18.75-3.8,25.65-7.2,13.74-12.86,13.74-12.86l-8.34-7.71,4.59-5.92,8.3,7,5.56-6.23s-2.26.46-3.31-.48-1-3.47-.44-7.78,0-15.73,0-15.73-6,12.07-8.2,17-5.7,6.22-9.92,7.23-4.87,4.11-7.83,8-8.92,4.89-15.67,4.36-8.79-.26-14.94,1.64-11,1.86-12.65,2.16-4.19,2.18-5.06,3,2.47,20.06,2.47,20.06l2.89.31,2.77,2.87Zm25.74-22.26c-2.9-3.09-.43-4.81,4.12-5.83s6.07-1.25,9.83,1.39.45,4.65-3.32,5.39S67.82,196.5,64.84,193.34Zm-11.29,6.4c-6.08,1-7.16.62-8-3.57s.94-5.55,5.59-6,5.42-.55,6.22.38c2.36,2.72,2.4,3,2.67,5S59.63,198.78,53.55,199.74Z" transform="translate(0)" fill="#212121"/><polygon points="120.07 123.74 123.1 120.14 137.06 131.75 136.29 132.75 137.81 134.03 143.86 126.53 147.32 129.46 133.24 145.61 129.93 143.06 136.27 135.71 134.88 134.49 134.06 135.42 120.07 123.74" fill="#212121"/><polygon points="86.43 176.7 89.65 172.52 97.9 179.78 104.31 179.54 112.19 185.31 111.42 186.27 118.1 191.27 114.93 195.21 130.68 207.91 134.71 206.88 146.18 215.73 146.57 219.32 142.79 223.54 139.78 223.87 129.33 214.83 129.4 210.47 112.8 197.66 110.56 200.35 103.7 194.97 107.03 190.93 100.24 185.68 95.88 185.61 86.43 176.7" fill="#212121"/></g></g><g id="frame"><rect width="300" height="300" fill="none"/></g></svg>