<svg xmlns="http://www.w3.org/2000/svg" viewBox="0 0 30 30.15"><circle cx="26.74" cy="3.93" r="1.87" fill="none" stroke="#212121" stroke-miterlimit="10" stroke-width="0.2"/><circle cx="6.43" cy="27.85" r="2.15" fill="none" stroke="#212121" stroke-miterlimit="10" stroke-width="0.3"/><polygon points="24.36 4.1 17.31 14.15 8.74 26.68 17.59 14.29 24.36 4.1" fill="#212121"/><polygon points="25.08 5.63 17.31 14.15 7.28 25.49 17.59 14.29 25.08 5.63" fill="#212121"/><polygon points="27.36 6.02 18.21 16.99 8.82 28.57 18.45 17.18 27.36 6.02" fill="#212121"/><path d="M27.93,3.36l-.25.52-.51.35-.91-.61a2,2,0,0,0-.77-.75l.42-.36.45-.15Z" transform="translate(0 0)" fill="#212121"/><path d="M25.35,3.16l1.59,1.23-.43.43-.27.09a3.29,3.29,0,0,1-.75-.51,3.73,3.73,0,0,0-.4-.37l.06-.46Z" transform="translate(0 0)" fill="#212121"/><path d="M25.86,2l-.48.28L25,2.66a18.28,18.28,0,0,0-3.15-1.19,7.58,7.58,0,0,0-2.21-.34l-.29.49-.44,0-.38-.26-.05-.27-2.3.36s-.14-1,.27-1.19A7.48,7.48,0,0,1,18.16,0l.05.3a8.26,8.26,0,0,1,3.93.25A14.9,14.9,0,0,1,25.86,2Z" transform="translate(0 0)" fill="#212121"/><path d="M24.89,2.9a19.48,19.48,0,0,0-3.3-1.22,11.15,11.15,0,0,0-2-.27l-.17.31-.49,0,.28.38a15,15,0,0,1,3,.65c1.24.46,2.35,1,2.35,1l.09-.45Z" transform="translate(0 0)" fill="#212121"/><path d="M5.13,26.58l-.36.49-.14.5a8.53,8.53,0,0,0,1.14,1.34c.43.34.7.92,1.08.63a1.66,1.66,0,0,0,.54-.78s-.81-.88-.88-.92-.35-.06-.45-.1A12.1,12.1,0,0,1,5.13,26.58Z" transform="translate(0 0)" fill="#212121"/><polygon points="5.35 26.38 5.69 26.17 6.18 26.03 6.87 26.9 7.09 27.35 6.59 27.73 6.15 27.64 5.35 26.38" fill="#212121"/><path d="M5,25.84l.26-.19.58-.2a8.67,8.67,0,0,1-1.39-2.28c-.49-1.26-.62-1.53-.62-1.53l-.44-.12.05.4-.22.29a12.83,12.83,0,0,0,1,2.28C4.81,25.58,5,25.84,5,25.84Z" transform="translate(0 0)" fill="#212121"/><path d="M4.76,26l-.42.46-.2.43a16.36,16.36,0,0,1-1.79-3.39,10.88,10.88,0,0,1-.62-2.38H1.61s-.42-1.51-.11-1.84a4.71,4.71,0,0,1,1.71-.79l.27,0,0,.16-.44.06a2.41,2.41,0,0,0-.6.36,18.63,18.63,0,0,0,.28,2.16l.27,0,.27.28,0,.37-.27.38-.15,0a9.33,9.33,0,0,0,.81,1.94A15.62,15.62,0,0,0,4.76,26Z" transform="translate(0 0)" fill="#212121"/><path d="M18.18,14.84a.43.43,0,0,0-.06-.69l-.9-.5-.32-.4L14,10.89a.37.37,0,0,0-.5.08.39.39,0,0,0,0,.51l2.93,2.45.37.22.64.74A.51.51,0,0,0,18.18,14.84Zm-3-2.19-.73-.59.26-.32.72.58Zm1.13.92L15.57,13l.27-.33.71.6Z" transform="translate(0 0)" fill="#212121"/><path d="M18.16,17.45l.41,0,.38.33,0,.14L20.25,19a1.13,1.13,0,0,1-.44.83c-.42.29-.87.28-.75.6s.67.53,1.42,0a2.39,2.39,0,0,0,1.14-1.87c.06-.72-.86-1.26-1-1.28s-.28.13-.12.31.44.48.29.76a.61.61,0,0,1-.33.31l-1.18-1-.13,0-.44-.35-.06-.39Z" transform="translate(0 0)" fill="#212121"/><path d="M11.86,12.37l.43-.51,1.25,1.06.59-.7s-.72-.61-.82-.73a.53.53,0,0,1,0-.63.59.59,0,0,1,.59-.17,9.23,9.23,0,0,1,.82.66s2.62-3.43,2.9-3.72.2-.68.24-1.32a4.13,4.13,0,0,1,.55-1.46,14.84,14.84,0,0,0,.18-1.56,2.67,2.67,0,0,1,.58-1l-.38-.57-.42-.23,0-.26-2.17.34a16.74,16.74,0,0,1-.29,4.51A15.06,15.06,0,0,1,12.36,11,4.55,4.55,0,0,0,11,12.63L12.6,14l.54-.6Zm5.73-7.31c-.33,0-.75-.28-.76-1s.11-.7.65-.69.62.22.52.79S17.91,5,17.59,5.06Zm-.74,1.4a.52.52,0,0,1,0-.92c.22-.1.5-.18.55.61S17.26,6.76,16.85,6.46Zm-1.5,2.61c-.36-.25-.22-.41.07-.84s.3-.46.72-.17.36.43.07.85S15.72,9.32,15.35,9.07Zm-.78,1c-.26-.18-.27-.3-.11-.53s.21-.2.49,0,.3.28.13.53S14.83,10.3,14.57,10.12Zm-2,1.28c.13-.16.21-.11.56.18s.36.43.2.62-.26.11-.57-.16S12.41,11.62,12.6,11.4Z" transform="translate(0 0)" fill="#212121"/><path d="M11,12.82l1.25,1.12a1.8,1.8,0,0,0-1,.93c-.37.74-.68,2-.85,2.11s-.41.14-.36-.29a14.4,14.4,0,0,0,0-1.77A6.74,6.74,0,0,1,11,12.82Z" transform="translate(0 0)" fill="#212121"/><path d="M3.91,21.56a4.09,4.09,0,0,1,1.5-1.1A14.3,14.3,0,0,0,8,19.74a4.93,4.93,0,0,0,1.38-1.29l-.84-.77L9,17.09l.83.7.56-.63s-.23.05-.33,0-.1-.35,0-.78a13.93,13.93,0,0,0,0-1.58s-.6,1.21-.82,1.7a1.25,1.25,0,0,1-1,.72c-.42.11-.48.42-.78.8a1.75,1.75,0,0,1-1.57.44,3,3,0,0,0-1.49.16,6.3,6.3,0,0,1-1.26.22,1.41,1.41,0,0,0-.51.3,13.8,13.8,0,0,0,.25,2l.29,0,.27.28Zm2.57-2.23c-.29-.31,0-.48.42-.58a1,1,0,0,1,1,.14c.37.26,0,.47-.33.54S6.78,19.65,6.48,19.33ZM5.36,20c-.61.1-.72.07-.81-.35s.1-.56.56-.61.54-.05.62,0c.24.27.24.3.27.5S6,19.88,5.36,20Z" transform="translate(0 0)" fill="#212121"/><polygon points="12.01 12.37 12.31 12.01 13.71 13.18 13.63 13.28 13.78 13.4 14.39 12.65 14.73 12.95 13.32 14.56 12.99 14.31 13.63 13.57 13.49 13.45 13.41 13.54 12.01 12.37" fill="#212121"/><polygon points="8.64 17.67 8.96 17.25 9.79 17.98 10.43 17.95 11.22 18.53 11.14 18.63 11.81 19.13 11.49 19.52 13.07 20.79 13.47 20.69 14.62 21.57 14.66 21.93 14.28 22.36 13.98 22.39 12.93 21.48 12.94 21.05 11.28 19.77 11.06 20.04 10.37 19.5 10.7 19.09 10.02 18.57 9.59 18.56 8.64 17.67" fill="#212121"/><rect width="30" height="30" fill="none"/></svg>