<!-- Copyright (c) 2022 Jan Stehno -->
<svg xmlns="http://www.w3.org/2000/svg" viewBox="0 0 300 300"><title>houyirecurvebow</title><g id="bows"><g id="houyirecurvebow"><path d="M45.31,299.19c6.28,3.77,11.42-5.6,26.77-29.23s16.35-25.81,16.35-25.81l-9.33-5.21s-11.39,21.5-21.69,33.82S36.35,293.82,45.31,299.19Z" transform="translate(0 0)" fill="#212121"/><path d="M100.75,172.42l13.88,4.93s10.75-32.81,24-56.33S164.19,84.9,164.19,84.9s-.79-2.74-7.45-4-7-.5-7-.5-18.2,16.23-33.65,50.95S100.75,172.42,100.75,172.42Z" transform="translate(0 0)" fill="#212121"/><path d="M172.59,59.42s7.22-.67,9.57,4c2,4,1.91,5.6,1.91,5.6l16.18-20.78s-.06-4-3.47-5.87-5.6-1.8-7.67-.79-4.43,5-9,10S172.59,59.42,172.59,59.42Z" transform="translate(0 0)" fill="#212121"/><path d="M201.82,19.93s5.5-.46,8.65.72a16.58,16.58,0,0,1,4,1.85s5.83-11.18,12.67-12.91a19.19,19.19,0,0,1,12.37,1.06L239.89,9S236,5.78,226,5.33,211.28,9,207.86,12.5A57.34,57.34,0,0,0,201.82,19.93Z" transform="translate(0 0)" fill="#212121"/><path d="M244.48,11.6s2.58-.16,3.53,1.46.67,2.46.67,2.46a67.47,67.47,0,0,0,6.61-8c1.9-3.08,1.68-4.26,1.68-4.26s-1.46,4.59-.78,4.31S258,6.84,258,6a33,33,0,0,0-.5-4.87c-.22-.67-2.85-1.29-3.69-1s-2.19,2-3.64,4.65S244.48,11.6,244.48,11.6Z" transform="translate(0 0)" fill="#212121"/><polygon points="100.69 225.84 181.38 108.25 244.54 19.55 183.62 109.59 100.69 225.84" fill="#212121"/><path d="M79,237.77l10.92,5.75s8.9-15.83,11.09-25a254,254,0,0,1,9.32-29.06c2.18-5.21,4.79-10.5,4.79-10.5l-15.63-5.42s-2.85,10.88-5.88,23.9-7,26.88-10.33,32.67S79,237.77,79,237.77Z" transform="translate(0 0)" fill="#212121"/><path d="M149.32,79.36a28,28,0,0,1,10.11,1c5.82,1.85,6.83,4.48,6.83,4.48s7.17-6.36,9.6-7.53,7.53-6.13,7.53-6.13-1.14-6.81-3.5-8.82-9.32-2.19-9.32-2.19-10.83,9.58-14.45,12.1A33.21,33.21,0,0,0,149.32,79.36Z" transform="translate(0 0)" fill="#212121"/><path d="M185.69,42.23s3.3-3.47,7.56-2.46,6.44,2.46,7.17,3.92a19.79,19.79,0,0,1,1.12,4.59s4.76-7.45,6.32-11.93S215,23.76,215,23.76s-4.08-2.47-7.27-2.8a48.34,48.34,0,0,0-8,.16s-5.77,7-7.62,10.31S185.69,42.23,185.69,42.23Z" transform="translate(0 0)" fill="#212121"/><path d="M229.37,9.81s4.76,2.24,6.32,5,3.92,4.54,7.34,4a12.32,12.32,0,0,0,5.36-2.13,12.3,12.3,0,0,0-.67-2.9,3.67,3.67,0,0,0-3.09-1.7c-1,0-1.26-.48-2.43-2.37S240.7,7.08,238,6.12a17.46,17.46,0,0,0-6.13-.72s4.28.55,6.5,2S240.6,8.8,240.6,8.8l-.71,2.69A17.9,17.9,0,0,0,235.27,10,19,19,0,0,0,229.37,9.81Z" transform="translate(0 0)" fill="#212121"/></g></g><g id="frame"><rect width="300" height="300" fill="none"/></g></svg>