<svg xmlns="http://www.w3.org/2000/svg" viewBox="0 0 30 30"><path d="M4.53,29.92c.63.38,1.14-.56,2.68-2.92s1.63-2.58,1.63-2.58l-.93-.53a24.77,24.77,0,0,1-2.17,3.39C4.71,28.51,3.64,29.38,4.53,29.92Z" transform="translate(0 0)" fill="#212121"/><path d="M10.07,17.24l1.39.49a37.5,37.5,0,0,1,2.41-5.63,18.68,18.68,0,0,1,2.55-3.61s-.08-.27-.75-.4S15,8,15,8a15.78,15.78,0,0,0-3.36,5.09C10.06,16.6,10.07,17.24,10.07,17.24Z" transform="translate(0 0)" fill="#212121"/><path d="M17.26,5.94s.72-.06,1,.4a1.33,1.33,0,0,1,.19.56L20,4.82a.72.72,0,0,0-.34-.59.78.78,0,0,0-.77-.07c-.21.1-.44.49-.9,1S17.26,5.94,17.26,5.94Z" transform="translate(0 0)" fill="#212121"/><path d="M20.18,2a2.8,2.8,0,0,1,.87.07,1.83,1.83,0,0,1,.4.19S22,1.13,22.71,1A1.93,1.93,0,0,1,24,1.07L24,.9a2.52,2.52,0,0,0-1.4-.37,2.12,2.12,0,0,0-1.8.72A5.51,5.51,0,0,0,20.18,2Z" transform="translate(0 0)" fill="#212121"/><path d="M24.45,1.16s.26,0,.35.15.07.24.07.24a6.6,6.6,0,0,0,.66-.8c.19-.31.17-.42.17-.42s-.15.46-.08.43.18-.08.18-.17a2.44,2.44,0,0,0-.05-.48c0-.07-.28-.13-.37-.1S25.17.2,25,.47A4.45,4.45,0,0,1,24.45,1.16Z" transform="translate(0 0)" fill="#212121"/><polygon points="10.07 22.58 18.14 10.82 24.45 1.96 18.36 10.96 10.07 22.58" fill="#212121"/><path d="M7.9,23.78,9,24.35a13.57,13.57,0,0,0,1.11-2.5A28,28,0,0,1,11,19c.22-.52.48-1.05.48-1.05L10,17.36s-.28,1.08-.59,2.39a15,15,0,0,1-1,3.26C8,23.59,7.9,23.78,7.9,23.78Z" transform="translate(0 0)" fill="#212121"/><path d="M14.93,7.94a2.81,2.81,0,0,1,1,.09c.59.19.69.45.69.45a7.18,7.18,0,0,1,1-.75,5,5,0,0,0,.75-.62A2.07,2.07,0,0,0,18,6.23,2.11,2.11,0,0,0,17.06,6S16,7,15.61,7.22A3.27,3.27,0,0,0,14.93,7.94Z" transform="translate(0 0)" fill="#212121"/><path d="M18.57,4.22A.86.86,0,0,1,19.32,4c.43.1.65.24.72.39a2,2,0,0,1,.11.46,8.43,8.43,0,0,0,.64-1.19,7.3,7.3,0,0,1,.71-1.26,2.17,2.17,0,0,0-.73-.28,4.42,4.42,0,0,0-.8,0,10.19,10.19,0,0,0-.76,1C19,3.48,18.57,4.22,18.57,4.22Z" transform="translate(0 0)" fill="#212121"/><path d="M22.94,1a1.75,1.75,0,0,1,.63.51.67.67,0,0,0,.73.39,1.21,1.21,0,0,0,.54-.21,1.28,1.28,0,0,0-.07-.29.35.35,0,0,0-.31-.17c-.09,0-.12-.05-.24-.24A.64.64,0,0,0,23.8.61a1.91,1.91,0,0,0-.61-.07,1.82,1.82,0,0,1,.65.2l.22.14L24,1.15A1.7,1.7,0,0,0,23.53,1,2,2,0,0,0,22.94,1Z" transform="translate(0 0)" fill="#212121"/><rect width="30" height="30" fill="none"/></svg>