<svg xmlns="http://www.w3.org/2000/svg" viewBox="0 0 30 30"><path d="M17.19,10a.13.13,0,0,0-.14,0c-.08,0-7.88,7.67-7.88,7.67a8.21,8.21,0,0,0-1.48,2.28,5.49,5.49,0,0,1-1,2,.81.81,0,0,1-.58.07S4.7,23.61,3.77,24.62A16.59,16.59,0,0,0,2.1,26.43c0,.18.24.29.72.21a1.51,1.51,0,0,1,1.41.6c.56.56.47,1,.17,1.36s-.41,1-.12,1.24a.47.47,0,0,0,.8-.14c.18-.35,0-.51-.09-.55a2.81,2.81,0,0,0-.31-.08A3.64,3.64,0,0,0,5.5,28c.31-.69,1.8-3.59,2-4s.26-.66.26-.66.27.56.68.52A.67.67,0,0,0,9,23a6.85,6.85,0,0,1,0-1.7c.1-.3.32-.37.45-.24a1.62,1.62,0,0,1,.26.45,1.19,1.19,0,0,1,.36-.29,2.93,2.93,0,0,0,.5-.38,2,2,0,0,1-.47.11c-.19,0-.26-.14-.07-.31s.82-.65.87-1,0-.55-.14-.71-.29-.29-.29-.29l7.43-7.63s.12-.11.12-.17A11.42,11.42,0,0,0,17.19,10ZM7.33,22.52a.16.16,0,0,1-.19-.11.16.16,0,0,1,.12-.2.16.16,0,0,1,.07.31Zm.52-1.46a.16.16,0,0,1,.12-.2.15.15,0,0,1,.19.12.15.15,0,0,1-.11.19A.17.17,0,0,1,7.85,21.06Zm.55,2.45a.35.35,0,0,1-.35-.34.35.35,0,0,1,.35-.35.35.35,0,0,1,.34.35A.34.34,0,0,1,8.4,23.51Zm.3-1.65c0,.2,0,.79,0,.79a.58.58,0,0,0-.25-.12.46.46,0,0,0-.27,0l.56-1.16A3.12,3.12,0,0,0,8.7,21.86Zm.3-1,.11-.21.13.18Zm1.32-.68c-.52.45-.7.58-.89.39s0-.46,0-.6a1.46,1.46,0,0,1,.25-.29A.59.59,0,0,0,10,20c.19.06.53-.1.39-.11a.38.38,0,0,1-.39-.24.47.47,0,0,1,.1-.53c.14-.14.17-.22.41,0S10.83,19.73,10.32,20.18Zm2.1-4.42a.16.16,0,1,1,.16-.16A.16.16,0,0,1,12.42,15.76Zm1.45-1.45a.16.16,0,1,1,.16-.16A.16.16,0,0,1,13.87,14.31Zm1.52-1.52a.16.16,0,0,1-.16-.16.16.16,0,0,1,.32,0A.16.16,0,0,1,15.39,12.79Zm1.45-1.45a.16.16,0,1,1,.16-.16A.16.16,0,0,1,16.84,11.34Z" transform="translate(0 0)" fill="#212121"/><path d="M7.6,19s.19-.32.39-.38a.61.61,0,0,1,.28,0s.18-.3.3-.45l.33-.36s-.3.08-.36,0,.07-.19.16-.18.38-.11.23-.25-.33-.25-.55,0-.31.37-.24.6.14.38-.07.51a1.12,1.12,0,0,0-.42.36A.48.48,0,0,0,7.6,19Z" transform="translate(0 0)" fill="#212121"/><polygon points="13.35 13.44 14.69 12.14 14.46 12.12 13.46 12.98 13.22 12.98 13.06 13.14 13.35 13.44" fill="#212121"/><polygon points="17.21 9.94 18.08 10.77 27.9 0.95 27.57 0.63 18.7 9.51 18.6 9.4 27.54 0.46 27.54 0.3 27.24 0 27.11 0 26.78 0.33 26.68 0.23 26.09 0.47 25.82 0.74 26.08 1 17.21 9.94" fill="#212121"/><path d="M7.13,12.79l-.07.29.15.21.29,0,.39.32a.84.84,0,0,0,.62.18c.45,0,.86-.33,1.74-1.33a10.76,10.76,0,0,0,2.09-3.27c.34-1,.48-1.78.55-1.87s-.24-.35-.36-.24A6.36,6.36,0,0,0,11.45,8.3a5.76,5.76,0,0,1-2,1.95,8.71,8.71,0,0,0-2.28,1.24c-.29.39-.3.58-.25.76A4.74,4.74,0,0,0,7.13,12.79Z" transform="translate(0 0)" fill="#212121"/><rect width="30" height="30" fill="none"/></svg>