<svg xmlns="http://www.w3.org/2000/svg" viewBox="0 0 30 30"><g id="rifles"><g id="johansson450"><path d="M27.42,0,27,.46V.55l-.18.18H26.6l-.13.13L26.28.68h-.13l-.39.39.21.05.07.31-9.48,9.38-1,.93-.14.07-1.81,1.77.09.17-1.72,1.72-.09-.1-.19.19H11.5l-.14.14-.08-.09-.13.14v.11l-.2.45-.19.33-.5.5v.09l-.23.23.26.26.23-.23.07.07-.1.16-.31.83-.44,1.09-.25.42-.26.26-.3.18-.41.07-.18.07-.62.62L2.09,26.68l.06.29.35.49,1.86,1.82.64.51.39.21.14,0,.29-.48,3.32-6.06.24-.48.23-.19.16-.06.14,0,.22.2h.11l1-.53.08-.12v-.14l-.32-.8-.06-.58.1-.6.27-.57.25-.32.2-.14H12l.19.17s.33.31.81-.17.71-.8.41-1.15l-.26-.32,0-.14.18-.19.12,0,1.91-2.07,0-.17L19,11,20.86,9l1-1.1.47-.58L22.45,7V6.75l-.11-.27-.21-.21L27.36.92h.09l.46-.46V.28L27.63,0ZM13,18.9c-.39.4-.6.49-.88.2s-.14-.42-.14-.42l.05-.05a.5.5,0,0,0,.18.35c.19.19.65.09.51.06a.6.6,0,0,1-.4-.27c-.09-.16-.17-.25.22-.64,0,0,.37-.42.66-.14S13.43,18.51,13,18.9ZM13.9,14v.17l-1.53,1.52h-.18L12,15.56l1.7-1.7Zm1.9-.15a.24.24,0,1,1,0-.34A.23.23,0,0,1,15.8,13.87Z" transform="translate(0 0)" fill="#212121"/></g></g><g id="frame"><rect width="30" height="30" fill="none"/></g></svg>