<!-- Copyright (c) 2022 Jan Stehno -->
<svg xmlns="http://www.w3.org/2000/svg" viewBox="0 0 300 300"><title>king470db</title><g id="rifles"><g id="king470db"><path d="M204.11,89c-1.32-1.66-2.25-1.58-5.49-.77l-3.25.81L157.46,127s-.91,5-6.12,10.3-28.18,28.18-28.18,28.18-2.8,3.39-5.55,2.8-5.12-3.83-5.12-3.83a84.11,84.11,0,0,0-10.77,10.67c-5.21,6.24-8.8,13-12.93,22.4S82.45,215,78.24,215.84a38,38,0,0,1-6.41.81s-28.57,26.24-40.67,42.66-19.47,18.88-8.06,25.86a182.29,182.29,0,0,0,27.44,13.67c4.62,1.77,5.54,1.84,7.37-2.16s14.46-29.26,14.46-29.26l1.2-1.2,1,1v1.38h1.83v-3.06l-2.2-2.19s8.73-19,11.21-21.4,9.34-.29,13.87-4.92,3.93-5.41.59-10.62.09-16.13,2.65-19.76,3.74-4.73,7-3.64,8.9,1.53,14.07-6.69,4.31-11.14,2.61-13.35a9.38,9.38,0,0,0-4-3l13.57-13.57-.48-.48s27.39-27.93,39.39-42.29S198.94,95,198.94,95a8.24,8.24,0,0,0,4.4-1A3.22,3.22,0,0,0,204.11,89Zm-123,152.84c-.49,3.45-22.17,39.69-23.75,40.37s-1.08.79-5.65-3.78S37.6,266.78,37.6,266.78s6.84,2.22,11.51,6.59,5.36,5.46,6,5.41,23.31-34,23.55-37.37-2.37-8.67-3.15-11.66.4-8,.4-8a28,28,0,0,0,2.26,9.64C80.29,236.25,81.56,238.41,81.07,241.85Zm42.24-58.36a4.87,4.87,0,0,1,.91,6.63c-.85,1.36-5.58,8.66-8.73,10.13s-5.06-.05-6.49-1.52a3.93,3.93,0,0,1-.44-4.67,5.18,5.18,0,0,1,.82-1.15,16,16,0,0,0,1.05,4c.59,1.37,3.29,2.29,5.26,1.7,2.24-.67-1.91-.25-3.22-2.32-.86-1.35-1.06-5.11-.52-6.05a11,11,0,0,1,1.48-1.87,6.25,6.25,0,0,0,2.73,3.56c1.88,1.18,6.91-.45,4.64-.59s-3.09-.37-3.94-1.63c-1.47-2.16-1.37-3.3-1.37-3.3S120.61,181.18,123.31,183.49Z" transform="translate(0 0)" fill="#212121"/><polygon points="89.12 193.46 91.04 188.99 86.47 190.8 89.12 193.46" fill="#212121"/><path d="M95.5,182.06a61,61,0,0,1,6.61-9A103.15,103.15,0,0,1,112.58,163s3.28,4,5.46,4.1,6-4.28,11.76-10,18.34-17.81,22.42-23.12,3.94-7.82,3.94-7.82L194.51,87.8l7.43-1.58,76-76,1.21,1.2L282.58,8V3.71L278.87,0h-3.42L273.1,2.35,271.61.86l-1,1L269.17.38,261.55,8l1.71,1.71-2.17,2.17v2.2L195.42,79.75h-2.68l-4,4L187,82l-1.34,1.34,1.91,1.9-1.39,1.39-1.92-1.93L182.9,86,185,88.11l-1.26,1.26-2.23-2.23L180,88.66l2.19,2.2L109.4,163.63s-5.23,5.3-7.29,7.59-3.62,4.17-3.62,4.17a3.91,3.91,0,0,0-3,.07c-1.29.74-2.61,2.36-2.36,4S95.5,182.06,95.5,182.06Z" transform="translate(0 0)" fill="#212121"/></g></g><g id="frame"><rect width="300" height="300" fill="none"/></g></svg>