<svg xmlns="http://www.w3.org/2000/svg" viewBox="0 0 30 30"><path d="M20.41,8.9c-.13-.16-.22-.16-.55-.08l-.32.09L15.75,12.7a2.17,2.17,0,0,1-.62,1l-2.81,2.81s-.28.34-.56.28a1,1,0,0,1-.51-.38,8,8,0,0,0-1.08,1.07,8.75,8.75,0,0,0-1.29,2.24c-.41.93-.64,1.75-1.06,1.83a3.43,3.43,0,0,1-.64.09,42.23,42.23,0,0,0-4.06,4.26c-1.21,1.64-1.95,1.89-.81,2.59a17.35,17.35,0,0,0,2.74,1.36c.47.18.56.19.74-.21s1.45-2.93,1.45-2.93l.12-.12.1.11v.14h.18v-.31l-.22-.22A19,19,0,0,1,8.54,24.2c.25-.24.94,0,1.39-.49s.39-.54.06-1.06a2.31,2.31,0,0,1,.27-2c.25-.36.37-.47.69-.36s.89.15,1.41-.67.43-1.12.26-1.34a1,1,0,0,0-.4-.3l1.35-1.35,0,0s2.73-2.79,3.93-4.23S19.89,9.5,19.89,9.5a.8.8,0,0,0,.44-.1A.32.32,0,0,0,20.41,8.9ZM8.11,24.19a31.49,31.49,0,0,1-2.38,4c-.16.07-.11.08-.56-.38s-1.41-1.16-1.41-1.16a3.51,3.51,0,0,1,1.15.66c.47.43.54.54.6.54a31,31,0,0,0,2.35-3.74A4.41,4.41,0,0,0,7.55,23a2.16,2.16,0,0,1,0-.81,2.91,2.91,0,0,0,.22,1C8,23.62,8.16,23.84,8.11,24.19Zm4.22-5.84a.49.49,0,0,1,.09.66,3.56,3.56,0,0,1-.87,1,.52.52,0,0,1-.65-.16.38.38,0,0,1,0-.46c.06-.11.08-.12.08-.12a1.56,1.56,0,0,0,.1.4.48.48,0,0,0,.53.17c.22-.07-.19,0-.32-.23A.88.88,0,0,1,11.2,19a1,1,0,0,1,.14-.18.62.62,0,0,0,.28.35c.18.12.69,0,.46-.06s-.31,0-.39-.16a.59.59,0,0,1-.14-.33S12.06,18.12,12.33,18.35Z" transform="translate(0 0)" fill="#212121"/><polygon points="8.91 19.35 9.1 18.9 8.65 19.08 8.91 19.35" fill="#212121"/><path d="M9.55,18.21a6.23,6.23,0,0,1,.66-.9,9.88,9.88,0,0,1,1-1s.33.4.54.41.6-.43,1.18-1,1.83-1.78,2.24-2.31.4-.78.4-.78l3.83-3.84.74-.16L27.79,1l.12.12L28.26.8V.37L27.89,0h-.34l-.24.23L27.16.09l-.1.09L26.92,0,26.15.8l.18.17-.22.22v.22L19.54,8h-.27l-.4.4L18.7,8.2l-.14.13.19.19-.13.14-.2-.19-.13.13.21.21-.13.13-.22-.23L18,8.87l.22.22-7.28,7.27s-.52.53-.73.76-.36.42-.36.42a.37.37,0,0,0-.3,0,.44.44,0,0,0-.24.4C9.34,18.11,9.55,18.21,9.55,18.21Z" transform="translate(0 0)" fill="#212121"/><rect width="30" height="30" fill="none"/></svg>