<!-- Copyright (c) 2022 - 2023 Jan Stehno -->
<svg xmlns="http://www.w3.org/2000/svg" viewBox="0 0 300 300"><title>kotercb65</title><g id="bows"><g id="kotercb65"><path d="M70.85,259.17a20.3,20.3,0,0,0-9.92,2.58l17.49,20.13-6.84,6.36L54.44,267.47a20.4,20.4,0,1,0,16.41-8.3Zm.25,7.42c-3-.43-3.67,1.56-4.72.69s-3.42-3,.18-3.92c3.13-.75,6.28-.74,6.84.75S74.08,267,71.1,266.59ZM54,272.93c1.42-1.92,2.92-1.8,4.53-.06s.87,2.11.31,3.92-.31,3.6-3.85,3.23c-1.18-.13-2-.06-2.42-2S52.52,274.86,54,272.93Zm8.94,19.71c-2.61,2.61-5.09,1.3-7.58-3s-3.79-7.58.69-7.52c3.71.05,3.73.13,6,3.36S65.51,290,62.89,292.64Z" transform="translate(0)" fill="#212121"/><path d="M289.28,40.84A20.39,20.39,0,0,0,255,28.75l22.15,13.64-4.8,7.53L250.09,36a20.41,20.41,0,1,0,39.19,4.87ZM264.68,32c-1.71.8-2,1.59-3.92.21s-2.26-2.83-.54-4.5,2.9-2.21,4.86-2.09,2,1,2.29,2.14C268.21,31.17,266.39,31.16,264.68,32ZM256.21,45.5c.82,2.9-.61,3-2.16,2.61s-2-3.47-1.65-6.68c.39-3.69,2.86-1.63,3.86-.7S255.38,42.6,256.21,45.5Zm24.72-11.58c-2.24,2.94-3.71,1.82-7.21,0s-3.57-1.79-4.11-5.47c-.65-4.43,2.78-3.57,7.36-1.68S283.17,31,280.93,33.92Z" transform="translate(0)" fill="#212121"/><path d="M71.72,286.05l4.6-4.29L58.11,260.81l4.23-2.3a68.07,68.07,0,0,0-12.06-14c-7-5.84-14.92-14.54-18.9-22.62s-6.61-15.23-6.61-15.23l-8.08,2.15s6.24,19.42,15.69,30.11S71.72,286.05,71.72,286.05Z" transform="translate(0)" fill="#212121"/><path d="M13.24,198l4.28-1s-2.65-10.53-2.93-16.13a79.33,79.33,0,0,1,.23-10.62l-3.08.32s-1.91,4.34-.93,12.54S13.24,198,13.24,198Z" transform="translate(0)" fill="#212121"/><polygon points="94.16 277.91 195.81 154.67 274.55 64.98 197.58 157.67 94.16 277.91" fill="#212121"/><polygon points="88.19 263.18 174.24 138.77 246.86 41.58 176.48 140.71 88.19 263.18" fill="#212121"/><polygon points="64.95 257.71 174.25 140.21 257.02 62.37 176.46 142.18 64.95 257.71" fill="#212121"/><path d="M271.94,47.87c0-.14,3.14-5,3.14-5S241.27,21.66,235.8,19.48,218.21,9.42,207.21,6.18s-16.66-3.66-16.66-3.66l.31,3.23-.68,5.34s17.34,1.12,26.23,7.52,17.15,12.62,23.68,16l7.14,3.66L249,33.53Z" transform="translate(0)" fill="#212121"/><path d="M180.3,1.35V4.61s-10.54-.18-17.48.56a64.67,64.67,0,0,0-8.53,1.22l0-2.89s4.25-1.64,13.52-2.15S180.3,1.35,180.3,1.35Z" transform="translate(0)" fill="#212121"/><path d="M148.88,213.25l-2.84,3.5-6.58-5.22.89-1.31-31.84-27-2.05.18-23.12-20.5,1-1.4L82.6,160l-4.48.83L51.46,138.07l-1.63,1.68-7.74-6.58s-4.06-2.84,1.12-8.48,8.39-1.82,8.39-1.82l7,6.15-1.21,1.36L85,154,84,158l22.19,18.69.93-1,3.31,3.08-.24,1.72L142,208.05l.93-1.06Z" transform="translate(0)" fill="#212121"/><polygon points="150.34 121.72 153.32 118.24 156.99 121.41 156.06 122.16 172.71 136.58 173.65 135.52 191.98 151.8 192.73 150.99 197.64 155.72 195.4 158.76 189.99 154.41 190.68 153.73 171.22 138.69 172.03 137.63 154.63 123.52 153.82 124.77 150.34 121.72" fill="#212121"/><polygon points="137.04 136.34 145.71 126.04 149.53 129.3 140.4 139.84 137.04 136.34" fill="#212121"/><path d="M142.87,101.76l9.18-10.63s-3.08-1.26-7,3.07S142.87,101.76,142.87,101.76Z" transform="translate(0)" fill="#212121"/><path d="M98.88,178.5S98,179.89,97,180s-1.84-.81-.91-2l.94-1.18-1.43-1.15-3.11,5.53s-2,1.34-7.65,1.62-6.12.4-6.46-.66,4.26-6.71,5.1-7.89,1.27-1.12,4.57-1.55,3.57-.72,3.57-.72l-1.34-1.21a3,3,0,0,1-1.92.4c-1.43,0-1.84-.84-1.22-1.74s1.12-.68,1.12-.68l-2-1.77s-5.06,5.37-15.69,6.06-16.1.25-24.12-2.18a46.73,46.73,0,0,0-21.9-1.21c-6.9,1.12-8.3,1.4-8.3,1.4a49.82,49.82,0,0,0,.47,12.4c1.11,6.52,3.07,14.91,3.07,14.91L12.58,200l1.82,7.36,20.14-5.4s28.67-.47,37-3.08,22.07-11.28,25.14-14.54,4.07-4.2,4.07-4.2Zm-35.12-1.79,15.06-2.61,1.49.88L75,182.26,62.79,178.2Zm-28-.09,7.36-2.47,7.13,1.07,5.13,3.21-11,6.9-5.88-3.49-8.53-1.22Zm-16.55,7.59,4.15-1.39,2.14,1.07-.46,3.17-4.25,7.69ZM33.51,197l-9.18-3.68,3.5-4.61,1-5,7,.89,6.2,2.94Zm21.72-1-9.27,2-9.79-.18,7.88-9.14,11.32,6Zm-1.81-5.12-6.2-4.15,5.45-4.2,6.9-3.17,6.15,2.89,7.37,2-6.16,5.82-6.33,3.69Zm24.84,2.42L64.6,195.4,66.1,193l10.06-8.25,11.84.56.38,1.91Z" transform="translate(0)" fill="#212121"/><path d="M189.62,47.08c-.87-11-3-22.89-2.33-27.64s2.05-11.56,2.1-13.66A44.49,44.49,0,0,0,189,.51L181.7,0l.18,6.15A144.57,144.57,0,0,0,167,6.39C161.37,7,154.75,8.2,154.75,8.2a51.44,51.44,0,0,0,.05,13.85c1,8.25,5,16.17,7.92,25.12s2.6,22.22-.63,30.61-14.56,22.48-22.3,29.48-12.57,12.41-14.37,13-2.71-1.21-4.82,1.37-8.68,10-12.32,16.59-7,14.17-10.07,18.09a36.41,36.41,0,0,1-6.54,6.34l2.27,1.86s4.47-5.37,5.06-4.72,0,5.72-.46,6.93L98.07,168l1.59,1.4a33.45,33.45,0,0,0,5.5-3.82c1.49-1.56,3.73-3.55,3.79-1.84s-2.24,5.94-3.3,7.09l-2,2.21,1.81,1.33s3.68-3.68,7.69-14.12,9.12-20.53,12.1-22.45,5.16.06,8.58-1.93,19.64-20.32,19.64-20.32,8.14-8.77,14.23-13.12a48.66,48.66,0,0,0,16.47-22.06C187.75,70.51,190.49,58.08,189.62,47.08ZM138.1,121.16l-4.73-3.48,5.47-4.35S138.1,121,138.1,121.16Zm47-89-.37,10.48-1.8-.1-3.14-6-3.36-3.6,7.31-10Zm-16,17,5.06-13.3,2,.34,6.62,11.94-5.4,13.36-1.9-.22Zm5,15.2-5.34,6-1.34-.31,0-15.88,1.9.06Zm7.93-43.69-7.15,9.72-4-5.28-2-7,8.55-5.78ZM168.27,8.44l8.95-.28-3.92,4.71-5.64,1.91-.6-3.13ZM163.7,41.3l-2-7.46L166,20.18l2.37,7.27,4.29,5.88-4.94,12.44Zm1.87,36.12-.33,12.5L157,92.25Zm-13.74,36.91-3.17-.32-2.42,2.49.74,3s-5.22,4.22-5.28,4.41L140,122l1.31-6.71,5.28-6,7.21-1.86.87,2Zm7-8.71-3.92-1.44-10.11,2.94,7.5-9.79,7.83-3.59v3.59l2,1.07Zm6.71-3.72-2.24-.52L167,90.94l9-4.47.7,2Zm7.83-16-5.83,2.61.8-7.74-.75-6,7.65-7.18L177,74.25l.14,8.3Zm12.23-20-4,12-2-1.31-.34-5.87-2-5.81,3.92-5.16,3.23-7.34,1.33,1.34Z" transform="translate(0)" fill="#212121"/></g></g><g id="frame"><rect width="300" height="300" fill="none"/></g></svg>