<svg xmlns="http://www.w3.org/2000/svg" viewBox="0 0 30 30"><path d="M7.08,25.92a2.08,2.08,0,0,0-1,.25l1.75,2-.68.63L5.44,26.75A2,2,0,0,0,5,28a2,2,0,1,0,2-2Zm0,.74c-.3,0-.37.15-.47.07s-.34-.31,0-.39.62-.08.68.07S7.41,26.7,7.11,26.66Zm-1.72.63c.15-.19.3-.18.46,0s.09.21,0,.39,0,.36-.39.32c-.11,0-.2,0-.24-.2A.57.57,0,0,1,5.39,27.29Zm.9,2c-.26.26-.51.13-.76-.29s-.38-.76.07-.76.37,0,.6.34S6.55,29,6.29,29.26Z" transform="translate(0 0)" fill="#212121"/><path d="M28.93,4.08A2,2,0,0,0,25.5,2.87l2.22,1.37L27.23,5,25,3.6a1.94,1.94,0,0,0-.13,1,2,2,0,1,0,4.05-.54ZM26.47,3.2c-.17.07-.2.15-.39,0s-.23-.29-.06-.45a.57.57,0,0,1,.49-.21c.19,0,.2.1.23.21C26.82,3.12,26.64,3.12,26.47,3.2Zm-.85,1.35c.08.29-.06.3-.22.26s-.19-.35-.16-.67.29-.16.39-.07S25.54,4.26,25.62,4.55Zm2.47-1.16c-.22.3-.37.18-.72,0S27,3.22,27,2.85s.28-.36.74-.17S28.32,3.1,28.09,3.39Z" transform="translate(0 0)" fill="#212121"/><path d="M7.17,28.6l.46-.42-1.82-2.1.42-.23A7.06,7.06,0,0,0,5,24.45a7.73,7.73,0,0,1-1.89-2.26c-.4-.81-.66-1.52-.66-1.52l-.81.21a10.1,10.1,0,0,0,1.57,3C4.18,25,7.17,28.6,7.17,28.6Z" transform="translate(0 0)" fill="#212121"/><path d="M1.32,19.8l.43-.1a12,12,0,0,1-.29-1.61,7.8,7.8,0,0,1,0-1.06l-.31,0a2.57,2.57,0,0,0-.09,1.25C1.18,19.13,1.32,19.8,1.32,19.8Z" transform="translate(0 0)" fill="#212121"/><polygon points="9.42 27.79 19.58 15.47 27.45 6.5 19.76 15.77 9.42 27.79" fill="#212121"/><polygon points="8.82 26.32 17.42 13.88 24.69 4.16 17.65 14.07 8.82 26.32" fill="#212121"/><polygon points="6.5 25.77 17.43 14.02 25.7 6.24 17.65 14.22 6.5 25.77" fill="#212121"/><path d="M27.19,4.79s.32-.5.32-.5S24.13,2.17,23.58,2A23.12,23.12,0,0,0,20.72.62,9.87,9.87,0,0,0,19.06.25l0,.32L19,1.11a6.23,6.23,0,0,1,2.62.75A23.64,23.64,0,0,0,24,3.46l.71.37.18-.48Z" transform="translate(0 0)" fill="#212121"/><path d="M18,.14V.46a16.62,16.62,0,0,0-1.75.06,5.74,5.74,0,0,0-.85.12V.35A5.11,5.11,0,0,1,16.79.14,5.92,5.92,0,0,1,18,.14Z" transform="translate(0 0)" fill="#212121"/><path d="M14.89,21.33l-.29.34L14,21.15,14,21l-3.18-2.7-.2,0L8.33,16.29l.11-.14L8.26,16l-.45.08L5.15,13.81,5,14l-.77-.65s-.41-.29.11-.85.84-.18.84-.18l.7.61L5.74,13,8.5,15.4l-.11.4,2.22,1.87.1-.1.33.31,0,.17,3.18,2.75.1-.1Z" transform="translate(0 0)" fill="#212121"/><polygon points="15.03 12.17 15.33 11.82 15.7 12.14 15.61 12.22 17.27 13.66 17.36 13.55 19.2 15.18 19.27 15.1 19.76 15.57 19.54 15.88 19 15.44 19.07 15.37 17.12 13.87 17.2 13.76 15.46 12.35 15.38 12.48 15.03 12.17" fill="#212121"/><polygon points="13.7 13.63 14.57 12.6 14.95 12.93 14.04 13.98 13.7 13.63" fill="#212121"/><path d="M14.29,10.18l.91-1.07s-.3-.12-.69.31S14.29,10.18,14.29,10.18Z" transform="translate(0 0)" fill="#212121"/><path d="M9.89,17.85S9.8,18,9.7,18s-.18-.08-.09-.2l.09-.12-.14-.11-.31.55a1.7,1.7,0,0,1-.76.16c-.57,0-.62,0-.65-.06s.43-.67.51-.79.13-.11.46-.16.35-.07.35-.07L9,17.08a.32.32,0,0,1-.19,0c-.15,0-.19-.08-.12-.17s.11-.07.11-.07l-.21-.18a2.42,2.42,0,0,1-1.57.61,6.09,6.09,0,0,1-2.41-.22A4.72,4.72,0,0,0,2.45,17l-.83.14a5.19,5.19,0,0,0,0,1.24c.11.65.31,1.49.31,1.49L1.26,20l.18.73,2-.54a23.25,23.25,0,0,0,3.7-.3,8.85,8.85,0,0,0,2.52-1.46c.3-.33.4-.42.4-.42Zm-3.51-.18,1.5-.26L8,17.5l-.53.73-1.22-.41Zm-2.8,0,.74-.25.71.11.51.32-1.09.69-.59-.35L3,18.06Zm-1.66.76.42-.14.21.11,0,.32-.43.76ZM3.35,19.7l-.92-.37.35-.46.1-.49.7.09.62.29Zm2.17-.09-.92.2-1,0,.78-.91,1.14.6Zm-.18-.52-.62-.41.55-.42L6,17.94l.61.29.74.2L6.69,19l-.63.37Zm2.49.24-1.37.21.15-.24,1-.83,1.18.06,0,.19Z" transform="translate(0 0)" fill="#212121"/><path d="M19,4.71a23.14,23.14,0,0,1-.23-2.77c.06-.47.2-1.15.21-1.36s0-.53,0-.53l-.73,0,0,.62a13,13,0,0,0-1.49,0c-.56,0-1.22.18-1.22.18a5.12,5.12,0,0,0,0,1.38,14.51,14.51,0,0,0,.79,2.52,5.23,5.23,0,0,1-.06,3.06,10.35,10.35,0,0,1-2.23,3A15.46,15.46,0,0,1,12.54,12c-.18.06-.27-.12-.48.14a10.75,10.75,0,0,0-1.23,1.66,17.65,17.65,0,0,1-1,1.8,3.43,3.43,0,0,1-.65.64l.22.18s.45-.53.51-.47a1.52,1.52,0,0,1-.05.69l0,.13.16.14a3.27,3.27,0,0,0,.55-.39c.14-.15.37-.35.37-.18a1.7,1.7,0,0,1-.32.71l-.21.22.18.13A4.33,4.33,0,0,0,11.31,16a6.53,6.53,0,0,1,1.21-2.24c.3-.2.52,0,.86-.2a24.88,24.88,0,0,0,2-2,12.14,12.14,0,0,1,1.43-1.31A5,5,0,0,0,18.42,8,8.22,8.22,0,0,0,19,4.71Zm-5.15,7.41-.47-.35.54-.44S13.81,12.1,13.81,12.12Zm4.7-8.9,0,1h-.18L18,3.65l-.34-.36.73-1Zm-1.6,1.7.51-1.33.2,0,.66,1.19-.54,1.34-.19,0Zm.5,1.52-.53.6-.13,0V5.43h.19Zm.8-4.37-.72,1-.4-.53-.19-.7.85-.58ZM16.83.84l.89,0-.39.47-.56.19-.06-.31Zm-.46,3.29-.2-.75L16.6,2l.24.73.43.58-.5,1.25Zm.19,3.61,0,1.25-.82.23Zm-1.38,3.69-.31,0-.25.25.08.3s-.52.43-.53.45L14,12.2l.13-.67.53-.6.72-.19.09.2Zm.7-.87-.39-.14-1,.29.75-1L16,9.37v.36l.2.11Zm.67-.37-.22,0,.37-1.05.9-.44.07.19Zm.79-1.6-.59.26.08-.78-.07-.59.76-.72.18.67,0,.83Zm1.22-2-.4,1.2L18,7.66l0-.59-.19-.58L18.12,6l.32-.74.13.14Z" transform="translate(0 0)" fill="#212121"/><rect width="30" height="30" fill="none"/></svg>