<svg xmlns="http://www.w3.org/2000/svg" viewBox="0 0 30 30"><path d="M26.77.14l-.15.15h-.15L26.18,0H26l-.62.62v.2l.23.24L25,2l-8.28,8.22-.07-.07-1.19,1.19-.14-.13-.22.22v.16l-.28.28-.28-.28-.07.08.27.27-.2.2v.16l-4.29,4.27.07.32v.31l-.07.08-.12-.11-.27.1-.26.18-.2.11,0,.06.08,0,.43-.2.05,0,0,.07-.09.3v.25l0,.22-.45,1-.35.85-.23.4-.11.13-.2.18L8.33,21l-.5.16-.18.07-.19.18-.37.38L5.17,24.18,2.69,27.32l0,.11,0,.12.12.15,3,2.26L6,30l.1-.11,1-2.31.08-.08s.17.13.26,0a.19.19,0,0,0,.06-.25c0-.06-.2-.07-.2-.07l0-.22L9,23.46l.13-.19.19-.08.21,0,.31.24H10l.35-.06.52-.3.17-.23,0-.22-.31-.7-.1-.75,0-.68.17-.66.22-.66.17-.34h.07l0,.09-.29.67-.22.78-.05.48v.38l.1.16.22.17.25,0,.26-.09.19-.17.1-.25,0-.36.12-.59.2-.61.19-.33.26-.31.35-.42.07-.18,0-.22,0-.34,0-.36.07-.2.11-.18.12-.08.1-.07.09-.12v-.12l-.11-.15-.07-.18V16l.1-.24.66-.75.64-.64.57-.42.62-.55,1.72-1.78,2.06-2.19.28-.38.14-.33.06-.05h.07v.08s0,.06.08.17.17.11.27,0,0-.19,0-.28a.31.31,0,0,0-.2-.09V8.51l.05-.09.75-.75V7.48l6.05-6.24,0-.15L27.15.93,27,.87,25.81,2.11,25.72,2,27.21.5l0-.12L26.93.14ZM7.44,27.47a.09.09,0,0,1-.13,0,.08.08,0,0,1,0-.12.09.09,0,0,1,.13,0A.09.09,0,0,1,7.44,27.47Zm4.12-10.78a.11.11,0,1,1,0,.16A.1.1,0,0,1,11.56,16.69Zm-.83.58a.13.13,0,1,1,0,.19A.14.14,0,0,1,10.73,17.27Zm.27.58a.13.13,0,0,1,.18,0,.11.11,0,0,1,0,.17A.13.13,0,0,1,11,18,.11.11,0,0,1,11,17.85Zm1.23,1.49-.07.26-.18.53-.13.68,0,.31-.11.18-.17.12-.26,0-.2-.11-.1-.15,0-.19,0-.4.11-.55.26-.77.14-.2.14-.09.17,0L12,19l.16.15Zm.71-1.57,0,.2,0,.3-.13.28-.23.23-.18.08-.16,0H12l-.26-.1-.25-.2,0-.09,0-.07.06,0h.09l.15.1a1.42,1.42,0,0,0,.36.09c.15,0,.3-.06.19-.06H12.2l-.22,0-.16-.11-.1-.16,0-.21.23-.25.25-.21.16-.07.23,0,.18.12Zm.56-1a.13.13,0,1,1,0-.19A.14.14,0,0,1,13.5,16.74Zm-.1-2.38L11.74,16a.28.28,0,0,1-.39-.39L13,14a.27.27,0,0,1,.39,0A.29.29,0,0,1,13.4,14.36Zm7.26-5.47a.1.1,0,1,1,0-.14A.1.1,0,0,1,20.66,8.89Zm4.82-6.42L20.94,7.11l-.1-.1,4.55-4.63Z" transform="translate(0 0)" fill="#212121"/><rect width="30" height="30" fill="none"/></svg>