<!-- Copyright (c) 2022 Jan Stehno -->
<svg xmlns="http://www.w3.org/2000/svg" viewBox="0 0 300 300"><title>m1iwaniec</title><g id="rifles"><g id="m1iwaniec"><path d="M195.18,89.2l1.49-1.49L190.92,82,143.83,129l3.74,3.74L168.36,112l2.7,2.7L98.11,187.64s-7,5.87-9,13.63-3.29,10.1-6.46,12.57a13.84,13.84,0,0,1-6.82,2.7s-31.71,34.65-41.23,43.58S21.29,271.4,22.11,277.74s3.17,5.88,14.8,14,16.45,14.45,25-2c6.81-13.14,23.79-50,26.32-52.33s10.39-5.76,11.63-7.22.47-1.47-.3-7-.17-11.69,2.35-15a23.35,23.35,0,0,1,3-3.58l1.5,1.5,1.64-1.65s5.55,1.79,7.55.5,6.87-6,7.52-8.58a10.37,10.37,0,0,0-.65-5.58l1.41-1.41-2.53-2.52L143,165.17s6.53-7.09,8.64-11.48,16.17-19.15,27.33-31a347.52,347.52,0,0,0,22.48-27.25ZM118.23,199.77c-2.76,2.85-5.87,3.94-8,2.91a3.32,3.32,0,0,1-2-3.85,9,9,0,0,1,1.91-2.58,4.73,4.73,0,0,0,2.2,2.79c1.85,1.11,5.84-.15,3.76-.47s-2.91-1.3-3.17-2.41.32-2.35,1.9-3.73c2.35-2.05,4.09-2.15,5.17,0S121,196.92,118.23,199.77Z" transform="translate(0)" fill="#212121"/><path d="M193.26,79.61l11.32,11.31s14.53-16.4,24.87-27.21c7.13-7.46,11.92-12.41,14.2-14.75a2.25,2.25,0,0,0,0-3.16l-6.84-6.87a1.82,1.82,0,0,0-2.58,0Z" transform="translate(0)" fill="#212121"/><polygon points="243.03 42.23 245.98 45.24 254.16 37.05 255.17 38.06 259.44 33.79 258.38 32.73 278 13.12 275.26 10.38 267.47 18.17 265.51 16.21 277.96 3.76 274.2 0 266.29 7.91 262.42 4.03 258.66 4.03 254.94 7.75 254.94 11.16 258.95 15.17 237.51 36.61 241 40.1 262.64 18.86 264.73 20.99 243.03 42.23" fill="#212121"/><polygon points="140.99 131.78 144.75 135.54 139.26 141.03 137.44 139.21 134.03 142.62 132.03 140.62 140.99 131.78" fill="#212121"/><path d="M91.14,191.91l-2.46-2.47,7.51-7.52,1-3.32-3.48-3.49s-1.72-1.8,1.13-4.66,7.05-.94,7.05-.94l6.21-6.2,2.9,2.89,12-12-1.61-1.6,6.23-6.23-1-1L130,142l3.91,3.92,3.41-3.41,1.57,1.57Z" transform="translate(0)" fill="#212121"/><path d="M243.28,48.71c.81,0,1.89.93,2.3,2.5s-.09,3.16-1.05,3.4a.84.84,0,0,1-.27,0c-.81,0-1.88-.94-2.29-2.51a4,4,0,0,1,.07-2.36,1.56,1.56,0,0,1,1-1,1.09,1.09,0,0,1,.26,0m0-1a2.22,2.22,0,0,0-.51.06c-1.53.4-2.32,2.46-1.77,4.62.5,1.92,1.89,3.26,3.26,3.26a1.81,1.81,0,0,0,.52-.07c1.53-.39,2.32-2.46,1.76-4.62-.49-1.91-1.88-3.25-3.26-3.25Z" transform="translate(0)" fill="#212121"/></g></g><g id="frame"><rect width="300" height="300" fill="none"/></g></svg>