<svg xmlns="http://www.w3.org/2000/svg" viewBox="0 0 30 30"><path d="M19.52,8.92l.15-.15-.58-.57-4.71,4.7.38.38,2.08-2.08.27.27-7.3,7.29a3.08,3.08,0,0,0-.9,1.37c-.2.77-.33,1-.65,1.25a1.34,1.34,0,0,1-.68.27S4.41,25.12,3.46,26s-1.33,1.13-1.25,1.76.32.59,1.48,1.4,1.65,1.45,2.5-.2c.68-1.31,2.38-5,2.63-5.23s1-.58,1.16-.72,0-.15,0-.71a1.84,1.84,0,0,1,.54-1.85l.15.15.16-.17s.56.18.76,0a2.4,2.4,0,0,0,.75-.86,1,1,0,0,0-.07-.55l.14-.15-.25-.25,2.17-2.16a6.78,6.78,0,0,0,.86-1.15,29.23,29.23,0,0,1,2.73-3.1,34.21,34.21,0,0,0,2.25-2.73ZM11.82,20a.76.76,0,0,1-.8.29.34.34,0,0,1-.2-.39.91.91,0,0,1,.19-.26.45.45,0,0,0,.22.28c.18.12.58,0,.37,0s-.29-.13-.31-.24,0-.24.19-.38.4-.21.51,0A.59.59,0,0,1,11.82,20Z" transform="translate(0 0)" fill="#212121"/><path d="M19.33,8l1.13,1.13s1.45-1.64,2.48-2.72L24.36,4.9a.22.22,0,0,0,0-.32l-.68-.69a.19.19,0,0,0-.26,0Z" transform="translate(0 0)" fill="#212121"/><polygon points="24.3 4.22 24.6 4.52 25.42 3.71 25.52 3.81 25.94 3.38 25.84 3.27 27.8 1.31 27.53 1.04 26.75 1.82 26.55 1.62 27.8 0.38 27.42 0 26.63 0.79 26.24 0.4 25.87 0.4 25.49 0.78 25.49 1.12 25.89 1.52 23.75 3.66 24.1 4.01 26.26 1.89 26.47 2.1 24.3 4.22" fill="#212121"/><polygon points="14.1 13.18 14.47 13.55 13.93 14.1 13.74 13.92 13.4 14.26 13.2 14.06 14.1 13.18" fill="#212121"/><path d="M9.11,19.19l-.24-.25.75-.75.1-.33-.35-.35s-.17-.18.11-.46a.67.67,0,0,1,.71-.1l.62-.62.29.29,1.2-1.2-.16-.16.62-.63-.1-.1L13,14.2l.4.39.34-.34.15.16Z" transform="translate(0 0)" fill="#212121"/><path d="M24.33,4.77h0c-.16,0-.24.24-.18.46a.39.39,0,0,0,.33.32h.05a.36.36,0,0,0,.17-.46.37.37,0,0,0-.32-.33Z" transform="translate(0 0)" fill="#212121"/><rect width="30" height="30" fill="none"/></svg>