<svg xmlns="http://www.w3.org/2000/svg" viewBox="0 0 30 30"><path d="M2.91,28c.71.71,1.68,1.64,1.94,1.83s.29.34.5,0,1.09-2,1.09-2,.15.15.29.09a.18.18,0,0,0,.07-.29.46.46,0,0,0-.23-.11S8,24.74,8.41,24.13s.64-.83.71-.75.1.16.18.16a6.2,6.2,0,0,0,1-.66c.14-.12.12-.16,0-.35A2.11,2.11,0,0,1,10,21.45a1.28,1.28,0,0,1,.4-1.1c.24-.25.32-.3.44-.21s.31.31.54.32.38,0,.77-.37a.73.73,0,0,0,.1-1.07c-.24-.24-.36-.3-.17-.49A17.77,17.77,0,0,0,14,16.39a51.79,51.79,0,0,1,3.52-4.05c.88-.93,1.4-1.6,1.4-1.6a.37.37,0,0,0,.25.15.18.18,0,0,0,.14-.28.38.38,0,0,0-.19-.12l1-1.15a.44.44,0,0,0,0-.52A1.43,1.43,0,0,0,20,8.59L27.76.77,27,0l-.29.29.14.14V.59l-.55.82-10.2,10.2L13.9,13.52h-.13L12.39,14.9v.2l-1.78,1.78-.25-.07-.21.21H10v.16l.19.19v.11L9.66,18v.1l-.35.36v.16l.21.22h.13a1,1,0,0,0-.31.56c0,.3-.31.61-.43,1a1,1,0,0,1-.3.48.63.63,0,0,1-.46.19c-.19,0-.17,0-.39.2S2.55,26.72,2.35,27,2.2,27.26,2.91,28ZM19.09,10.78a.1.1,0,1,1,.14,0A.1.1,0,0,1,19.09,10.78Zm-6.66,5.93c.1-.24.64-.61.76-.94a.73.73,0,0,0,.06-.5s6-6,6.19-6.11.34.27.34.27-.19-.24-.31-.2-6.11,6-6.11,6a1,1,0,0,1,0,.37c0,.2-.23.39-.51.67s-.55.52-.16.92C12.67,17.24,12.34,17,12.43,16.71Zm-1.34,3.44a.41.41,0,0,1,0-.56.52.52,0,0,0,.15.35c.14.15.28.26.43.17s.12-.11,0-.1-.14,0-.32-.18a.52.52,0,0,1,.11-.71c.14-.14.23-.18.32-.09s.19,0,.34.15.19.48-.14.81S11.35,20.41,11.09,20.15Zm-2,3a1.73,1.73,0,0,1-.35-.68c-.06-.35.28-.87.4-1.34s.14-.81.27-.94a.27.27,0,0,1,.4,0,.42.42,0,0,1,.16.48v0a.39.39,0,0,0-.1-.37.3.3,0,0,0-.44,0c-.08.08-.07.49-.21.92s-.4.83-.4,1A1.63,1.63,0,0,0,9.12,23.15ZM6.57,27.72a.12.12,0,0,1,0-.14.1.1,0,1,1,0,.14Z" transform="translate(0 0)" fill="#212121"/><rect width="30" height="30" fill="none"/></svg>