<!-- Copyright (c) 2022 - 2023 Jan Stehno -->
<svg xmlns="http://www.w3.org/2000/svg" viewBox="0 0 300 300"><title>malmer7mmmagnum</title><g id="rifles"><g id="malmer7mmmagnum"><g id="weapon"><path d="M29.1,279.71c7.09,7.09,16.77,16.36,19.36,18.32s2.95,3.35,5-.3,10.88-20.32,10.88-20.32,1.54,1.48,2.91.88a1.73,1.73,0,0,0,.72-2.88,4.77,4.77,0,0,0-2.26-1.11s14.47-26.87,18.4-33,6.34-8.36,7.1-7.57.93,1.6,1.77,1.66,8.83-5.34,10.26-6.6,1.2-1.6.15-3.52a20.72,20.72,0,0,1-3.3-10.76c-.2-5.87,1.52-8.64,4-11.09s3.26-3,4.4-2.07,3.09,3.15,5.4,3.18,3.79.24,7.72-3.7,3.42-8.2,1-10.62-3.61-3-1.69-5,14.38-14,19.19-21.41,26.34-31.17,35.16-40.47,14.08-16,14.08-16a3.62,3.62,0,0,0,2.42,1.46c1.36,0,2.48-1.67,1.4-2.74a4.63,4.63,0,0,0-1.82-1.27s8.3-9.64,9.91-11.44.9-4,.3-5.2a14.39,14.39,0,0,0-1.7-2.35L277.55,7.74,269.81,0,266.9,2.92l1.4,1.4V6l-5.48,8.13L160.76,116.13,139,135.24H137.7L123.91,149v2l-17.84,17.83-2.46-.71-2.1,2.1h-1.9v1.61l1.85,1.86v1.14l-4.82,4.82v1l-3.57,3.57v1.6L95.23,188h1.3s-2.91,2.66-3.09,5.68-3.13,6-4.37,9.54-2.06,3.93-3,4.82a6.19,6.19,0,0,1-4.57,1.89c-2-.12-1.78-.12-3.9,2s-52.17,55.33-54.18,57.92S22,272.63,29.1,279.71ZM190.92,107.78a1,1,0,1,1,1.36-1.36,1,1,0,0,1-1.36,1.36Zm-66.58,59.34c.92-2.4,6.31-6.15,7.57-9.38s.59-5.07.59-5.07,60.27-60.16,61.91-61.11,3.38,2.73,3.38,2.73-1.9-2.36-3.11-2-61,60.49-61,60.49a12.13,12.13,0,0,1-.2,3.73c-.42,2-2.36,3.95-5.13,6.72s-5.47,5.21-1.65,9.23C126.66,172.44,123.37,169.67,124.34,167.12ZM110.87,201.5c-2.59-2.6.18-5.63.18-5.63a5.35,5.35,0,0,0,1.41,3.57c1.46,1.46,2.83,2.57,4.33,1.62s1.2-1.08.41-.93-1.36,0-3.16-1.82-1-5.06,1-7.13c1.39-1.39,2.32-1.77,3.25-.83s1.88,0,3.41,1.48,1.86,4.77-1.45,8.08S113.47,204.1,110.87,201.5Zm-19.7,30s-2.86-3.38-3.45-6.84,2.75-8.61,4-13.38,1.42-8.09,2.7-9.38a2.82,2.82,0,0,1,4,0c.93.93,2.26,2,1.61,4.77a2.74,2.74,0,0,1-.08.34c0-.12.06-.23.08-.34A4,4,0,0,0,99,203a3,3,0,0,0-4.37-.3c-.77.77-.74,4.92-2.07,9.22s-4.06,8.28-4,10.23S88.08,225.31,91.17,231.49ZM65.74,277.18a1,1,0,1,1,1.36-1.36,1,1,0,0,1-1.36,1.36Z" transform="translate(0)" fill="#212121"/></g></g></g><g id="frame"><rect width="300" height="300" fill="none"/></g></svg>