<svg xmlns="http://www.w3.org/2000/svg" viewBox="0 0 30 30"><path d="M18.58,12.15,17.4,10.87,17.34,10,14.86,7.54,12,10.44l-.17-.17L8.92,13.16H8.54l-.72.72-.29-.29-.28.28.3.29a.35.35,0,0,0,0,.46.33.33,0,0,0,.43,0,3.35,3.35,0,0,1,.32,1.79,8.67,8.67,0,0,1-1,2.6,5.5,5.5,0,0,1,.63-.63,2.66,2.66,0,0,1,.45-.3,3.92,3.92,0,0,0,.37.9,1.3,1.3,0,0,0,1.22.78,2.4,2.4,0,0,0,1.48-.87c.16-.22.31-.46.31-.46L14.28,20a1.43,1.43,0,0,0,1.85-.53c.67-.79,1.27-2.08.95-2.75s-.89-1.16-.81-1.8S18.58,12.15,18.58,12.15ZM9.9,18.62a.7.7,0,1,1,.69-.7A.69.69,0,0,1,9.9,18.62Zm6.89-1.73A3,3,0,0,1,16,19.07a1.56,1.56,0,0,1-1.73.65,1.92,1.92,0,0,1-1-.89,1.31,1.31,0,0,1-.14-.43l.59-.24a1.58,1.58,0,0,0,1,.76A1.82,1.82,0,0,0,16,18.59c.16-.13.41-.45,0-.31a1.33,1.33,0,0,1-1.38-.21c-.41-.37-.19-.8-.36-1s-.23-.22-.23-.22l-.53.11a4,4,0,0,1,1.67-1.22A1.42,1.42,0,0,1,16.79,16.89Zm-4.5.25A4.87,4.87,0,0,1,10,15.93a3.92,3.92,0,0,1-1.11-2l4.8-4.8L17,12.42Z" transform="translate(0 0)" fill="#212121"/><path d="M13.74,9.56l2.85,2.85-4.41,4.41a6.8,6.8,0,0,1-1.73-1.29A4.83,4.83,0,0,1,9.31,14Z" transform="translate(0 0)" fill="#212121"/><path d="M13.22,29.52a6,6,0,0,0,2.24-2.68c.17-.73.07-.81-.08-1.12s0-.83,0-1-.18-.32-.47-.33a.68.68,0,0,1-.72-.67c-.05-.53,0-.82-.59-.85s-.84-.45-.71-1.13A4.3,4.3,0,0,1,14,20.12l-2.16-1.33a2.84,2.84,0,0,1-2,1.25c-1.19,0-1.62-1.56-1.62-1.56s-1.06.81-1.08,1.22.15.63.81,1.15S8.59,23.24,9.29,25a33.5,33.5,0,0,0,2.42,4.76C12,30.15,12.48,30.06,13.22,29.52Z" transform="translate(0 0)" fill="#212121"/><path d="M7.89,15.11a3.29,3.29,0,0,1,.16.8,3.33,3.33,0,0,1,0,.76,1,1,0,0,0-.65-.09,2.15,2.15,0,0,0-1,.73c-.2.26-.22-.22.21-.72a1.51,1.51,0,0,1,1.09-.52c.15,0,.16-.16.09-.26s-.24-.35-.14-.53A.3.3,0,0,1,7.89,15.11Z" transform="translate(0 0)" fill="#212121"/><path d="M16.85,9.1,19.1,6.84s.21-.23.35-.09,0,.34,0,.34l-2.3,2.29Z" transform="translate(0 0)" fill="#212121"/><path d="M16.65,8.93,19,6.59s.47-.59.82-.23a.5.5,0,0,1,0,.72L17.3,9.57l.23.24,2.91-2.9A2.16,2.16,0,0,1,20.53,6a34.19,34.19,0,0,1,3.23-3.51V1.09L22.93.26H21.6L21.33,0h-.39L19.79,1.15l.47.47-.77.78.09.09L19.1,3l.12.12L15.06,7.26Z" transform="translate(0 0)" fill="#212121"/><rect width="30" height="30" fill="none"/></svg>