<!-- Copyright (c) 2022 Jan Stehno -->
<svg xmlns="http://www.w3.org/2000/svg" viewBox="0 0 300 300"><title>mangiafico41045colt</title><g id="handguns"><g id="mangiafico41045colt"><path d="M185.82,121.53,174,108.71l-.55-8.5L148.64,75.43l-29,29L118,102.74,89.16,131.58H85.45l-7.24,7.23-2.9-2.9-2.77,2.77,2.93,2.93s-2.11,2.52,0,4.58a3.16,3.16,0,0,0,4.25.28,33.16,33.16,0,0,1,3.2,18c-1.05,10.38-10.31,26-10.31,26a60.55,60.55,0,0,1,6.3-6.29,28.66,28.66,0,0,1,4.5-3,40.55,40.55,0,0,0,3.71,9c2.3,3.76,5.59,8.15,12.27,7.73s13.13-6.51,14.74-8.67,3.13-4.65,3.13-4.65,21.06,12.64,25.6,15.31,11.7,2.71,18.44-5.23,12.73-20.86,9.53-27.55-8.92-11.56-8.08-18S185.82,121.53,185.82,121.53ZM99,186.17a6.93,6.93,0,1,1,6.93-6.93A6.94,6.94,0,0,1,99,186.17Zm68.92-17.28c1.12,7.32-3.55,16.65-8.29,21.81s-11,9.26-17.34,6.55a20,20,0,0,1-10.1-8.92,15.14,15.14,0,0,1-1.4-4.32l5.93-2.44s4,7,10.3,7.67a18.59,18.59,0,0,0,12.82-3.35c1.6-1.32,4-4.53-.35-3.06s-9.68,1.67-13.79-2.09-1.88-8.08-3.62-10.17-2.23-2.16-2.23-2.16l-5.36,1.11s8.56-10.45,16.71-12.19A14.17,14.17,0,0,1,167.92,168.89Zm-45,2.5s-13.07-2.62-22.52-12.07a39.76,39.76,0,0,1-11.08-20l48-48,32.81,32.81Z" transform="translate(0)" fill="#212121"/><path d="M137.38,95.58,165.9,124.1l-44.09,44.1a69,69,0,0,1-17.35-12.85c-8.88-8.88-11.39-15.78-11.39-15.78Z" transform="translate(0)" fill="#212121"/><path d="M132.15,295.15c11.74-8.73,20.8-19.43,22.47-26.75s.73-8.15-.84-11.18.52-8.36.42-10.55-1.78-3.14-4.7-3.24-6.69-1.36-7.21-6.69-.42-8.25-5.85-8.57-8.47-4.49-7.11-11.28,10.45-15.67,10.45-15.67L118.15,188S110,200.28,98.09,200.38s-16.2-15.57-16.2-15.57S71.34,192.86,71.13,197s1.52,6.27,8.05,11.55S85.86,232.35,92.87,250s21.14,43.57,24.2,47.54S124.8,300.62,132.15,295.15Z" transform="translate(0)" fill="#212121"/><path d="M78.92,151.06a33.62,33.62,0,0,1,1.62,8.05,31.24,31.24,0,0,1-.32,7.57,9.64,9.64,0,0,0-6.48-.83c-3.76.78-7.88,4.65-9.92,7.26s-2.25-2.19,2.09-7.21a15.05,15.05,0,0,1,10.92-5.22c1.46-.21,1.62-1.62.88-2.56s-2.4-3.56-1.41-5.33A3.11,3.11,0,0,1,78.92,151.06Z" transform="translate(0)" fill="#212121"/><path d="M168.48,91l22.57-22.57s2.09-2.37,3.48-1-.35,3.42-.35,3.42l-23,23Z" transform="translate(0)" fill="#212121"/><path d="M166.53,89.28,189.9,65.91s4.67-5.89,8.22-2.27-.56,7.14-.56,7.14L173,95.68l2.33,2.41,29-29a22.43,22.43,0,0,1,1-9.19c1.6-5,32.25-35,32.25-35V11l-8.31-8.31H216L213.31,0h-3.94L197.89,11.48l4.74,4.74L194.9,24l.94.94L191,29.75,192.23,31,150.62,72.62Z" transform="translate(0)" fill="#212121"/></g></g><g id="frame"><rect width="300" height="300" fill="none"/></g></svg>