<!-- Copyright (c) 2022 - 2023 Jan Stehno -->
<svg xmlns="http://www.w3.org/2000/svg" viewBox="0 0 300 300"><title>martensson65mm</title><g id="rifles"><g id="martensson65mm"><polygon points="135.5 173.53 143.52 181.55 141.94 183.14 144.08 185.28 164.55 162.48 161.8 159.73 159.96 161.57 152.99 154.6 135.5 173.53" fill="#212121"/><path d="M37.61,246.16c0,1.21,4.21,3.31,9.67,4.66,4.53,1.12,3.41,1.42,15.37-12.29s19.51-22,20.07-23.78-3.92-5.87-5.88-6.57-2.2.33-15.4,13.49S37.61,244.24,37.61,246.16Z" transform="translate(0)" fill="#212121"/><path d="M102.51,183.38a56.61,56.61,0,0,1,3.74-5.87c1.72-2.21,3.61-4.34,3.61-4.34l-3.76-3.76s-3.66,4.5-4.46,7.89A8.6,8.6,0,0,0,102.51,183.38Z" transform="translate(0)" fill="#212121"/><polygon points="110.88 167.22 109.33 165.66 118.15 156.85 118.79 157.49 139.36 136.92 138.04 135.6 147.74 125.9 148.93 127.09 178.12 99.21 178.12 96.69 180.01 94.8 178.94 93.73 180 92.67 181.19 93.86 184.79 90.25 187.21 90.25 249.02 28.45 248.2 27.63 257.06 18.77 257.06 15.38 261.51 10.93 266.46 10.93 269.6 7.79 269.6 6.67 273.04 3.23 274.22 3.23 277.45 0 280.65 0 283.05 2.39 283.05 5.95 222.95 66.05 220.68 59.69 151.98 128.39 150.35 126.77 139.02 138.1 142.06 141.14 122.98 160.22 120.39 157.63 110.88 167.22" fill="#212121"/><path d="M116.71,188.84a1.79,1.79,0,0,0,2.55-2.17c-.49-2.06-1.31-3.58-1.38-5.92a13.45,13.45,0,0,1,.79-4.25l-10.94-11.07-2,2,10.75,10.76a22.09,22.09,0,0,1-.37,3.94C115.7,184.15,114.86,187.44,116.71,188.84Z" transform="translate(0)" fill="#212121"/><path d="M222.42,69.32a38.5,38.5,0,0,0-2.27-7.81L152,129.7l-1.61-1.61-9.79,9.8,3.18,3.18-20.8,20.81-2.77-2.77-8.7,8.71,8.5,8.51a13.08,13.08,0,0,0-1,3.56,8.9,8.9,0,0,0,.7,4.31,10.27,10.27,0,0,1,.79,4,7.63,7.63,0,0,0,3,3.22c2,.94,5.74.07,4.41-.11s-3.64-1-4.48-2.38-1.35-2.25,2.06-5.66c3-3,5.2-3,6.93-1.3s1.43,5.35-2.66,9.45-6.8,3.51-8.46,1.85-1.77-2.83-1.55-3.78A3.8,3.8,0,0,1,120,189a3,3,0,0,1-3.83.84c-1.26-.82-2-2.79-1.65-5s1-6.18,1-6.18l-4.85-4.85s-7.34,8.32-9.58,15.46-5.64,22-9.28,25.78S85,216.85,85,216.85L55.16,250.42s-3.33,3.94-10.14,1.89c-5.92-1.79-7.34-2.94-7.34-2.94s-16.74,16.81-19.26,19.24-3.54,2.61,11.94,18.09,14.66,15.41,20,10l31.33-31.33-4.31-4.31L104,229.93s2.38,3.5,5.39,3,12.24-6.37,14.47-8.82,2.45-2.51-3.14-8-8.82-13.36-7.91-17.35,3.43-6.08,5.07-5.31,2.45,3.71,5.67,3.71,7.27-3.57,9.86-6.79a10.08,10.08,0,0,0,2.17-8.78,6.54,6.54,0,0,1,.92-4.51l-3.31-3.31,61.32-67.56,2.23,2.24,3.31-3.31L197.89,103l22.33-25.69C222.18,75.1,223,73.21,222.42,69.32ZM62.3,250.66c0,1.21,1.58,2,4.29,3a54.62,54.62,0,0,0,5.4,1.69,34.25,34.25,0,0,1-7.27-.25c-4.48-.56-7.37-1.4-4.85-4.75a95.28,95.28,0,0,1,9.19-10.59,111.66,111.66,0,0,1,10.63-9.14S62.3,249.44,62.3,250.66ZM217,75a2.85,2.85,0,1,1,2.85-2.85A2.85,2.85,0,0,1,217,75Z" transform="translate(0)" fill="#212121"/></g></g><g id="frame"><rect width="300" height="300" fill="none"/></g></svg>