<!-- Copyright (c) 2022 - 2023 Jan Stehno -->
<svg xmlns="http://www.w3.org/2000/svg" viewBox="0 0 300 300"><title>millermodel1891</title><g id="shotguns"><g id="millermodel1891"><path d="M109.86,190.91c1-1.18,2.28-2.52,2.28-2.52a4.39,4.39,0,0,1-1.28-3,7.4,7.4,0,0,1,1.71-3.9L99.83,168.77s-6.39,5.82-6.5,9.31c-.12,3.84-11,9.92-11,17.94s2,10.33-1.07,14.58S72.56,225.53,70.55,230s-3.48,5.43-6,5.25a15.28,15.28,0,0,1-5-1.42s-27.84,32.56-32.41,37.68-6.06,5.9.95,12.9,11.4,10.7,15.42,13.3,5.51,4.8,9.37-4.56c3.75-9.13,19.83-43.38,21.3-45s2.19-.89,3.42.41,3.61,1.95,6.14-1,2.34-3.69,1.71-8.1,1.42-14.09,3.78-17.71a24.27,24.27,0,0,1,3.15-4.28s-4,6.68-4.8,10.89-1.61,10-.51,12.2,4.37,3.54,6.17,3.7,5.36-2.6,5.91-4.49a14.13,14.13,0,0,0-.18-7.73c-.89-3.48,1.24-10.09,1.89-11.39a2.56,2.56,0,0,0,.35-2s3.84,1.12,6.49-1.6,4.2-5.19,3-9-2.72-6.31-2.42-10.56S108.87,192.09,109.86,190.91ZM96.34,226.18c-1.06,3.13-.47,6.61.12,9.38s.06,5.26-2.77,5.14-3.9-1.48-4.08-5.55,4.09-14.4,5-15.58c1-1.36,3.37-.53,3.48.65S97.41,223.05,96.34,226.18ZM103,214.87a4.2,4.2,0,1,1,4.2-4.2A4.2,4.2,0,0,1,103,214.87Z" transform="translate(0 0)" fill="#212121"/><path d="M101.52,166.87l12.8,12.8,53.81-53.8s5.23-6.18-.39-11.81-11.89-.15-11.89-.15Z" transform="translate(0 0)" fill="#212121"/><path d="M170.18,113.51a10.79,10.79,0,0,1,1.83,4.31,16.43,16.43,0,0,1,.41,3.31l25.32-25.32-6.2-6.2L276.75,4.4,272.36,0l-4,4L266.5,2.16l-2.11,2.11,2,2L186.67,85.42l-1.11-.9-2,2,.88.94-23.54,22.2a10.66,10.66,0,0,1,4.88.67,18.85,18.85,0,0,1,2.87,1.89L189.3,91.76l1.39,1.39Z" transform="translate(0 0)" fill="#212121"/></g></g><g id="frame"><rect width="300" height="300" fill="none"/></g></svg>