<svg xmlns="http://www.w3.org/2000/svg" viewBox="0 0 30 30"><path d="M11,19.09a2.8,2.8,0,0,1,.22-.25.47.47,0,0,1-.12-.31.78.78,0,0,1,.17-.39L10,16.88s-.64.58-.65.93-1.1,1-1.09,1.79.2,1-.11,1.46A14.79,14.79,0,0,0,7.06,23c-.21.45-.35.54-.61.53a1.64,1.64,0,0,1-.5-.14s-2.78,3.25-3.24,3.76-.6.59.1,1.29a9.75,9.75,0,0,0,1.54,1.33c.41.27.55.48.93-.45s2-4.34,2.14-4.5.21-.09.34,0,.36.2.61-.1.24-.37.17-.81a3.58,3.58,0,0,1,.38-1.77,3.71,3.71,0,0,1,.31-.43,4.6,4.6,0,0,0-.48,1.09,2.88,2.88,0,0,0-.05,1.22.87.87,0,0,0,.62.37A.79.79,0,0,0,9.91,24a1.35,1.35,0,0,0,0-.77,2.55,2.55,0,0,1,.19-1.14.25.25,0,0,0,0-.2.7.7,0,0,0,.65-.16.81.81,0,0,0,.29-.9,2.6,2.6,0,0,1-.24-1.06C10.85,19.32,10.89,19.21,11,19.09ZM9.63,22.62a1.86,1.86,0,0,0,0,.94c.06.27,0,.52-.28.51S9,23.92,9,23.52A4.53,4.53,0,0,1,9.46,22a.21.21,0,0,1,.35.06A2,2,0,0,1,9.63,22.62Zm.67-1.13a.42.42,0,0,1-.42-.42.42.42,0,1,1,.84,0A.42.42,0,0,1,10.3,21.49Z" transform="translate(0 0)" fill="#212121"/><path d="M10.15,16.69,11.43,18l5.38-5.38a.86.86,0,0,0,0-1.18.85.85,0,0,0-1.18,0Z" transform="translate(0 0)" fill="#212121"/><path d="M17,11.35a1.12,1.12,0,0,1,.18.43,1.3,1.3,0,0,1,0,.33l2.53-2.53L19.15,9,27.68.44,27.24,0l-.41.4L26.65.22l-.21.21.2.19-8,7.92-.11-.09-.2.2.08.1L16.09,11a1.14,1.14,0,0,1,.49.06,2.27,2.27,0,0,1,.28.19l2.07-2,.14.14Z" transform="translate(0 0)" fill="#212121"/><rect width="30" height="30" fill="none"/></svg>