<!-- Copyright (c) 2022 - 2023 Jan Stehno -->
<svg xmlns="http://www.w3.org/2000/svg" viewBox="0 0 300 300">
    <path
        d="M266,0l-3.35,3.35-1.21-1.2-2.58,2.58-2.33-2.32h-1.09l-1.13,1.13,1.61,4-4.53,4.52v2.47L149.12,116.83l-4.84,2.57L126,137.67h-1.57L120.82,140l-.73-.73-1.38,1.38.73.73L117.77,143l1.38,1.38-1.35,1.35-.24,6.59a3.29,3.29,0,0,0-2.82-.12,7.11,7.11,0,0,1-4.27.33c-1.14-.27-2.94,1.7-1.52,3.11s2.61.8,4.14-.2a3,3,0,0,1,2.91-.27l-1.34,1.35a6.91,6.91,0,0,0-1.43,6.81c.53,1.36,1,2.12-.87,4.78s-7.44,17.22-12,23.78-8.22,7.91-13,9.56-5.91,3.42-16,15.61-28.68,36.52-35.85,45-9.13,10.27-8.25,13,4.07,5.26,11.19,9.43S59.8,300.91,63.07,300c2.45-.72,2.7-5.84,3.57-5.77s3.64-5.52,6.94-12.78,18.07-36.85,21.91-43.9,5.41-11.37,8-14,3-2,3.25-.59.51,1,6.39-1.92,6-2.66,5.18-5.88a66.24,66.24,0,0,1-1.77-10.35c-.3-3.93.9-7.43,4.14-16.66a67.9,67.9,0,0,0-2.21,9,7.61,7.61,0,0,0,1.71,5.88c.17.19.92.94,1.12,1.14,2.36,2.36,7.32,5.65,14-1.05s8.82-17.12,8.53-23,1.76-7.94,4-11.27,3-6,2.29-10.76a23.18,23.18,0,0,1-.09-8.42c.27-2.5-1.74-3.27-1.53-6.15s.33-2.57,7-9.19l6.9-6.9s1.9,1.59,9.9-6.65,54.51-57,57.39-59.86a11.63,11.63,0,0,0,3.31-6l3.49-3.49a7.53,7.53,0,0,0,2-3.21l34.44-34.44v-3l-2-2h-2.12l-.79.8-.76-.77L271,4.91V3l-3-3ZM134.1,201.63c-4.19,4.19-9,2.86-11.6.31-5.8-5.8,1.92-18.86,5-21.95s7.6-5.8,12.19-1.22S138.3,197.43,134.1,201.63Zm7.79-31.7c-5.69,5.69-13.12-.25-10.37-3,0,0,1.9,3.08,4.43,3.65s6.56-.53,2.49-1.12-5.37-3.41-5-5.82,1.47-3.23,3.62-5.39,4.79-2.86,6.65-1S147.57,164.25,141.89,169.93Zm6.25-35a2,2,0,1,1,0-2.82A2,2,0,0,1,148.14,135ZM265.06,12.38l-31,31-.84-.84,31.06-30.88Z"
        transform="translate(0 0)" fill="#212121" />
    <rect width="300" height="300" fill="none" />
</svg>