<svg xmlns="http://www.w3.org/2000/svg" viewBox="0 0 30 30"><path d="M26.6,0l-.33.34L26.15.21l-.26.26L25.65.24h-.1l-.12.11.16.41-.45.45v.25L14.91,11.68l-.48.26L12.6,13.77h-.16l-.36.23L12,13.92l-.14.14.07.07-.16.17.13.14-.13.13,0,.66a.37.37,0,0,0-.29,0,.62.62,0,0,1-.42,0c-.12,0-.3.17-.16.32s.27.07.42,0a.29.29,0,0,1,.29,0l-.13.13a.68.68,0,0,0-.15.68c.06.14.1.22-.08.48s-.75,1.72-1.2,2.38a2.22,2.22,0,0,1-1.3,1c-.48.16-.59.34-1.6,1.56s-2.87,3.65-3.59,4.5-.91,1-.82,1.3.41.52,1.12.94S6,30.09,6.31,30s.27-.58.35-.57a4.19,4.19,0,0,0,.7-1.28c.33-.72,1.8-3.68,2.19-4.39a7,7,0,0,1,.8-1.4c.26-.25.3-.19.32-.05s.06.09.64-.2.61-.26.52-.58a6.5,6.5,0,0,1-.18-1,4.27,4.27,0,0,1,.42-1.67,6,6,0,0,0-.22.91.71.71,0,0,0,.17.58l.11.12c.24.23.73.56,1.4-.11a3.28,3.28,0,0,0,.85-2.3,1.56,1.56,0,0,1,.4-1.13A1.32,1.32,0,0,0,15,15.81,2.4,2.4,0,0,1,15,15c0-.25-.17-.32-.15-.61s0-.26.69-.92l.69-.69s.2.16,1-.66l5.74-6a1.21,1.21,0,0,0,.34-.6l.34-.35a.8.8,0,0,0,.21-.32l3.44-3.45v-.3l-.2-.2h-.21L26.8,1,26.72.87,27.1.49V.3L26.81,0ZM13.41,20.16a.78.78,0,0,1-1.16,0c-.58-.58.19-1.88.5-2.19s.76-.58,1.22-.12S13.83,19.74,13.41,20.16ZM14.19,17c-.57.57-1.31,0-1-.3a.9.9,0,0,0,.44.37c.26.05.66-.06.25-.11a.51.51,0,0,1-.49-.59c0-.24.14-.32.36-.54s.48-.28.66-.09S14.76,16.42,14.19,17Zm.62-3.49a.2.2,0,1,1,0-.28A.19.19,0,0,1,14.81,13.5ZM26.51,1.24l-3.1,3.09-.09-.08,3.11-3.09Z" transform="translate(0 0)" fill="#212121"/><rect width="30" height="30" fill="none"/></svg>