<svg xmlns="http://www.w3.org/2000/svg" viewBox="0 0 30 30"><polygon points="13.55 17.35 14.35 18.16 14.19 18.31 14.41 18.53 16.45 16.25 16.18 15.97 16 16.16 15.3 15.46 13.55 17.35" fill="#212121"/><path d="M3.76,24.62c0,.12.42.33,1,.46s.34.14,1.53-1.23a25.25,25.25,0,0,0,2-2.37c.06-.19-.39-.59-.59-.66s-.22,0-1.54,1.35A19.29,19.29,0,0,0,3.76,24.62Z" transform="translate(0 0)" fill="#212121"/><path d="M10.25,18.34a4.64,4.64,0,0,1,.38-.59c.17-.22.36-.43.36-.43l-.38-.38a2.6,2.6,0,0,0-.45.79A.86.86,0,0,0,10.25,18.34Z" transform="translate(0 0)" fill="#212121"/><polygon points="11.09 16.72 10.93 16.57 11.81 15.69 11.88 15.75 13.94 13.69 13.8 13.56 14.77 12.59 14.89 12.71 17.81 9.92 17.81 9.67 18 9.48 17.89 9.37 18 9.27 18.12 9.39 18.48 9.03 18.72 9.03 24.9 2.85 24.82 2.76 25.71 1.88 25.71 1.54 26.15 1.09 26.65 1.09 26.96 0.78 26.96 0.67 27.3 0.32 27.42 0.32 27.75 0 28.07 0 28.3 0.24 28.3 0.59 22.3 6.61 22.07 5.97 15.2 12.84 15.04 12.68 13.9 13.81 14.21 14.11 12.3 16.02 12.04 15.76 11.09 16.72" fill="#212121"/><path d="M11.67,18.88a.18.18,0,0,0,.26-.21,2.31,2.31,0,0,1-.14-.59,1.23,1.23,0,0,1,.08-.43l-1.1-1.11-.2.21,1.07,1.07a1.85,1.85,0,0,1,0,.4C11.57,18.42,11.49,18.74,11.67,18.88Z" transform="translate(0 0)" fill="#212121"/><path d="M22.24,6.93A4,4,0,0,0,22,6.15L15.2,13,15,12.81l-1,1,.31.32-2.08,2.08L12,15.91l-.87.87.85.85a1.41,1.41,0,0,0-.1.36.83.83,0,0,0,.07.43,1,1,0,0,1,.08.4.76.76,0,0,0,.3.32c.2.1.58,0,.44,0a.67.67,0,0,1-.44-.24c-.09-.13-.14-.22.2-.56s.52-.3.69-.13.15.53-.26.94-.68.35-.85.19S12,19,12,19a.08.08,0,0,1,0-.05.3.3,0,0,1-.39.08.5.5,0,0,1-.16-.5c0-.22.09-.62.09-.62l-.48-.48a5.34,5.34,0,0,0-1,1.54,9.64,9.64,0,0,1-.93,2.58c-.36.38-.67.18-.67.18L5.52,25a1,1,0,0,1-1,.19,2.69,2.69,0,0,1-.73-.29L1.84,26.86c-.25.24-.35.26,1.2,1.81s1.46,1.54,2,1l3.13-3.13-.43-.43L10.4,23s.24.35.54.3a4.51,4.51,0,0,0,1.44-.88c.23-.24.25-.25-.31-.79a2.34,2.34,0,0,1-.79-1.74c.09-.4.34-.61.51-.53s.24.37.56.37a1.66,1.66,0,0,0,1-.68,1,1,0,0,0,.22-.88.62.62,0,0,1,.09-.45l-.33-.33,6.13-6.76.22.23.33-.33-.21-.22S21.83,8,22,7.73A.83.83,0,0,0,22.24,6.93Zm-16,18.14c0,.12.16.2.43.3s.54.17.54.17a3.38,3.38,0,0,1-.73,0C6,25.46,5.74,25.37,6,25A8.34,8.34,0,0,1,6.91,24,10.8,10.8,0,0,1,8,23.07S6.23,24.94,6.23,25.07ZM21.7,7.5a.28.28,0,0,1-.29-.28.29.29,0,0,1,.29-.29.28.28,0,0,1,.28.29A.27.27,0,0,1,21.7,7.5Z" transform="translate(0 0)" fill="#212121"/><rect width="30" height="30" fill="none"/></svg>