<!-- Copyright (c) 2022 Jan Stehno -->
<svg xmlns="http://www.w3.org/2000/svg" viewBox="0 0 300 300"><title>nordin20sa</title><g id="shotguns"><g id="nordin20sa"><path d="M201.32,95.88c-.62-2.46-7.57-7.93-7.57-7.93l-61.82,59.3s1.89,1.38,1.89,2.4-16.47,16.7-16.47,16.7l1.2,1.2-14.07,14.07s-1.33,2-2.84.53.45-3,.45-3l6.88-7.29a2.24,2.24,0,0,0,3-.52c1.56-1.6,2-2.09,2-2.09s-3-2.43-3.27-4.13a2.6,2.6,0,0,1,.54-2.4l-1.45-1.45L89.49,181.52s-5.73,5.34-7.39,16.11-4.61,16-8.92,18.45-8,6-13.47,12.68S31.17,264,27.11,269s-6.92,6.36,2.86,13.38,12.36,8.3,18.45,13,7.54,9.29,12.21-4.77c3.79-11.4,20.55-48.71,22.35-50.5s9.66-4.49,12.14-6.52,2.39-2.3-1.3-9.08-2.54-14.53-1-17.81,3-4.61,7.38-3.74,8.49,2.5,13.24-2.21,4-4.94,2.91-10.61.51-9,4.2-12.69,18.18-15.55,18.18-15.55h-5.22l3.28-3.27h5.68l57.71-59.1A3.31,3.31,0,0,0,201.32,95.88ZM112.1,199.8c-3.34,3-6.91,3.41-8.41.21s-.1-4.79,2.78-7.47c3.37-3.12,6.15-3.44,7.54,0S115.43,196.81,112.1,199.8Z" transform="translate(0 0)" fill="#212121"/><path d="M105.8,195s-.3.37,1.33,2.66,2.49,2.53,2.49,2.53l-1.23.62a2.7,2.7,0,0,1-3.73-1.11,3.53,3.53,0,0,1,.42-4.14Z" transform="translate(0 0)" fill="#212121"/><polygon points="197.83 89.34 199.18 88 201.89 88 202.5 87.39 204.1 88.99 203.41 89.67 203.41 92.17 201.93 93.65 197.83 89.34" fill="#212121"/><polygon points="111.61 159.05 113.63 161.07 129.61 145.09 130.18 145.66 193.75 84.38 196.09 86.72 276.65 6.15 270.5 0 263.79 6.71 265.22 8.14 111.61 159.05" fill="#212121"/></g></g><g id="frame"><rect width="300" height="300" fill="none"/></g></svg>