<svg xmlns="http://www.w3.org/2000/svg" viewBox="0 0 30 30"><path d="M20.13,9.59c-.06-.25-.75-.8-.75-.8l-6.19,5.93s.19.14.19.24-1.64,1.67-1.64,1.67l.11.12-1.4,1.41s-.13.21-.29.06.05-.31.05-.31l.69-.73a.22.22,0,0,0,.3-.05l.19-.21s-.29-.24-.32-.41a.26.26,0,0,1,0-.24L11,16.12l-2,2a3,3,0,0,0-.74,1.61c-.17,1.08-.46,1.6-.89,1.85A4.88,4.88,0,0,0,6,22.88l-3.26,4c-.41.49-.69.63.29,1.33s1.23.83,1.84,1.3.76.93,1.22-.47A48.49,48.49,0,0,1,8.3,24c.18-.18,1-.45,1.21-.65s.24-.23-.13-.91a2.12,2.12,0,0,1-.09-1.78.55.55,0,0,1,.73-.38c.45.09.85.25,1.33-.22s.4-.49.29-1.06a1.25,1.25,0,0,1,.42-1.27c.37-.36,1.82-1.55,1.82-1.55h-.53l.33-.33h.57L20,10A.34.34,0,0,0,20.13,9.59ZM11.21,20c-.33.3-.69.34-.84,0s0-.48.28-.75.61-.34.75,0S11.54,19.68,11.21,20Z" transform="translate(0 0)" fill="#212121"/><path d="M10.58,19.5s0,0,.13.26S11,20,11,20l-.12.07a.27.27,0,0,1-.37-.11.35.35,0,0,1,0-.42Z" transform="translate(0 0)" fill="#212121"/><polygon points="19.78 8.93 19.92 8.8 20.19 8.8 20.25 8.74 20.41 8.9 20.34 8.97 20.34 9.22 20.19 9.37 19.78 8.93" fill="#212121"/><polygon points="11.16 15.9 11.36 16.11 12.96 14.51 13.02 14.57 19.38 8.44 19.61 8.67 27.66 0.61 27.05 0 26.38 0.67 26.52 0.81 11.16 15.9" fill="#212121"/><rect width="30" height="30" fill="none"/></svg>