<!-- Copyright (c) 2023 Jan Stehno -->
<svg xmlns="http://www.w3.org/2000/svg" viewBox="0 0 300 300">
    <title>olssonmodel23308</title>
    <g id="rifles">
        <g id="olssonmodel23308">
            <g id="weapon">
                <path
                    d="M197.26,86.13c-1.73.75-46.86,46.07-46.86,46.07s-44.14,45-47.95,50.13c-2.83,3.81-3.28,4.48-5.21,7.35l-.67-.69-.88-.88h-.77l-.63-.63v-.8l-1-1v-1.56l4.18-4.17.85-2L97,176.65l3.68-3.68-1.38-1.38.8-.79h1.53l1.86-1.86h3.72l16.42-16.42v-2.36l11.8-11.8.88.87,26.29-24.29L262.94,14.61,268,5.71l-2.45-2.45L268.85,0l8.7,8.7L200.61,86.25A5.41,5.41,0,0,0,197.26,86.13Z"
                    transform="translate(0)" fill="#212121" />
                <path
                    d="M34.22,286c11.6,11.25,16.64,16.95,19.38,12.53s10.91-20.25,10.91-20.25,1.13,1.72,2.65,1.46,1.91-1.24,1.31-2.57S66,275.61,66,275.61s12-22.45,17.7-31.26,6.79-9.44,7.71-9,.93,1.14,1.63,1.29,10.62-6.62,11.22-7.69-2.91-5.68-3.77-9.64-1.49-7.84,1-11,4.84-5.78,5.92-5.86,2,1,3.09,2.1,5.56,3.64,11.36-2.16,2.73-8.93.53-11.13-2.8-3.13-1.4-5.23,9.11-9.85,23.49-26.64,45-50.82,45-50.82,1.94,2.64,3.55,1-1.25-3.49-1.25-3.49,8.54-9.3,9.77-12.68-1.82-6-1.82-6a3,3,0,0,0-2.19,0c-4,3.2-41.94,41-46.62,45.81s-44,45-47.64,49.9c-4,5.36-10,14.47-11.62,16.93l-3.2,6.49L84,210.86H79.51s-54.42,57.86-56.34,60.6S22.63,274.72,34.22,286ZM190.85,108.74a.85.85,0,1,1,1.2-1.21.86.86,0,0,1,0,1.21A.85.85,0,0,1,190.85,108.74Zm-80,93.71c-2.19-2.19.23-5.1.2-5.16a7.49,7.49,0,0,0,1.88,4.21,4,4,0,0,0,4.78.55c.65-.51.14-.41-1.36-.25s-2.28-1.12-3.13-2.46-.38-4.25,2.16-6.79c2-2,2.24-1.86,3.07-1s1.81-.09,3.32,1.42,3,4.24-1.23,8.5S113,204.63,110.82,202.45Zm-44.59,76a.87.87,0,0,1,1.23-1.23.87.87,0,1,1-1.23,1.23Z"
                    transform="translate(0)" fill="#212121" />
            </g>
        </g>
    </g>
    <g id="frame">
        <rect width="300" height="300" fill="none" />
    </g>
</svg>