<svg xmlns="http://www.w3.org/2000/svg" viewBox="0 0 30 30"><path d="M19.73,8.61c-.18.08-4.69,4.61-4.69,4.61s-4.41,4.5-4.79,5-.33.45-.53.74l-.06-.07-.09-.09H9.49l-.06-.06v-.08l-.1-.11v-.15L9.74,18l.09-.2-.13-.13.37-.36-.14-.14.08-.08h.15l.19-.19h.37l1.64-1.64V15l1.18-1.18.09.08,2.63-2.43,10-10L26.8.57,26.56.33,26.88,0l.87.87L20.06,8.62A.59.59,0,0,0,19.73,8.61Z" transform="translate(0 0)" fill="#212121"/><path d="M3.42,28.6c1.16,1.12,1.67,1.69,1.94,1.25s1.09-2,1.09-2,.11.18.27.15.19-.12.13-.26-.26-.15-.26-.15,1.21-2.24,1.78-3.12.67-1,.77-.91.09.12.16.13a5.47,5.47,0,0,0,1.12-.77c.06-.1-.29-.56-.38-1a1.33,1.33,0,0,1,.1-1.11c.25-.32.48-.57.59-.58s.2.1.31.21.56.36,1.14-.22.27-.89.05-1.11-.28-.31-.14-.52.91-1,2.35-2.67,4.5-5.08,4.5-5.08.19.27.35.1-.12-.35-.12-.35a7.76,7.76,0,0,0,1-1.26A.61.61,0,0,0,20,8.73a.28.28,0,0,0-.22,0c-.4.32-4.19,4.1-4.66,4.58s-4.4,4.5-4.76,5-1,1.44-1.17,1.69l-.32.65-.43.44H8s-5.44,5.78-5.63,6.06S2.26,27.47,3.42,28.6ZM19.08,10.87a.09.09,0,0,1,0-.12.11.11,0,0,1,.13,0,.09.09,0,0,1,0,.12A.09.09,0,0,1,19.08,10.87Zm-8,9.37c-.22-.21,0-.51,0-.51a.77.77,0,0,0,.19.42.41.41,0,0,0,.48.06c.06-.06,0-.05-.14,0s-.23-.11-.31-.25,0-.42.21-.67.23-.19.31-.11.18,0,.33.14.31.43-.12.85S11.3,20.46,11.08,20.24ZM6.62,27.85a.09.09,0,0,1,0-.12.09.09,0,0,1,.13,0,.09.09,0,0,1,0,.12A.11.11,0,0,1,6.62,27.85Z" transform="translate(0 0)" fill="#212121"/><rect width="30" height="30" fill="none"/></svg>