<svg xmlns="http://www.w3.org/2000/svg" viewBox="0 0 30 30"><g id="rifles"><g id="perry308"><path d="M3.29,27.75l.88.71,1.12.79L6.51,30l.16,0,.1-.05.52-.69,2.42-3.43s.25.23.42,0-.15-.4-.15-.4L11.71,23l.42-.56.26-.24.27-.15L13,22l.24,0,.24-.1.9-.57.23-.22L14.7,21l0-.2-.12-.35-.49-.9-.33-.88-.07-.4.09-.14.06-.18-.06-.13a3.29,3.29,0,0,0,.54-.2,4,4,0,0,0,.58-.55l.65-.75.08.13h.05l.07-.07L15,15.28l1.23,1.07.11,0h.05l1.83-2.06,0-.1,0-.07L16.83,13l1.27-1.43.07.05h.1l.22-.09.26-.18.31-.27.36-.42.26-.37.2-.44.24-.38.22-.25L23.57,6s.19.24.37.06,0-.39,0-.39l.41-.42.41-.38.2-.27,0-.14-.1-.11-.4-.25,2.92-2.93v-.1L27.12.9,27,.78h-.1l-.38.37L25.76.31l0-.08L25.56.06,25.46,0l-.09,0-.3.35,0,.07.05.12.2.17.19.84.28.29L24.11,3.54l-.23.19-.2.1h-.19l-.17-.11-.13.11-.08-.09L23,3.68l-.18-.05-5,4.86-.16,0-.08.07h-.31L17,8.81l-.12,0-.09,0,0,0,0,.06,0,0-.88.87h-.08l-.06,0-.07.07-.06.08v.1l0,.06h-.06l-.09,0-.07,0,0,.05.09.1.1.06.06,0,.14-.16.08.07,0,.05v.09l.06.06-1.7,1.69-2.55,2.5L10.1,16.14l-.2.24,0,.14,0,.5,0,.07-.11.05-.06.07,0,.13,0,.16.07.05.11,0,0,.35-1,1.55-.25.37-.43.47L6.47,22.11,4.64,24l-.13.16-.06.16,0,.37-.06.11L4,25.32l-.72.77-.5.53-.07.14V27l.11.28ZM25.75.61a.13.13,0,0,1,0,.19.12.12,0,0,1-.18,0,.13.13,0,0,1,0-.19A.14.14,0,0,1,25.75.61Zm0,.92-.12-.23V1.14L26,.84H26l.24.27,0,.09-.33.34-.11,0ZM23.76,6a.09.09,0,0,1,0-.11.08.08,0,0,1,.11,0,.08.08,0,0,1,0,.1A.09.09,0,0,1,23.76,6ZM16.91,9a.07.07,0,0,1,.09-.1A.06.06,0,0,1,17,9,.08.08,0,0,1,16.91,9Zm-1,1a.09.09,0,0,1,0,.13.1.1,0,0,1-.14,0,.11.11,0,0,1,0-.14A.1.1,0,0,1,16,10Zm1,.82a.15.15,0,0,1-.23,0,.16.16,0,0,1,.21-.25A.17.17,0,0,1,17,10.82Zm.53.86a.17.17,0,0,1,0-.24.17.17,0,0,1,.25.22A.17.17,0,0,1,17.49,11.68Zm-.85.06a.16.16,0,0,1,0-.23.17.17,0,0,1,.24,0,.18.18,0,0,1,0,.24A.16.16,0,0,1,16.64,11.74Zm-.39.38a.17.17,0,0,1,.22-.25.17.17,0,1,1-.22.25Zm0,1a.17.17,0,0,1,0-.24.17.17,0,0,1,.25.22A.17.17,0,0,1,16.21,13.09ZM16.07,16,16,14.22H16L16.14,16Zm-.39-.29-.06-1h.06l.07,1Zm-.37-.31,0-.38h.07l0,.39Zm-2.05,1.12a.16.16,0,0,1,0,.23.17.17,0,1,1-.25-.22A.16.16,0,0,1,13.26,16.47Zm.78-1a.17.17,0,0,1,0-.24.17.17,0,0,1,.25.22A.17.17,0,0,1,14,15.47Zm-.93,1.66.22-.22a.08.08,0,0,1,.11,0,.75.75,0,0,0,.36.23c.26.05.38.05.54-.11S14.22,17,14,17s-.41-.16-.4-.3.66-.8.66-.8l.67.64.07.11v.08l-.05.1a3.3,3.3,0,0,1-.63.62c-.23.12-.46.25-.66.16A2.77,2.77,0,0,1,13.11,17.13Zm-1.18-.19a.16.16,0,0,1,0-.24.17.17,0,0,1,.23,0,.16.16,0,0,1,0,.23A.17.17,0,0,1,11.93,16.94Zm-.34.6a.16.16,0,0,1,0-.23.17.17,0,1,1,.25.22A.16.16,0,0,1,11.59,17.54Zm-1.11.4a.16.16,0,0,1,0-.23.17.17,0,0,1,.24,0,.18.18,0,0,1,0,.24A.17.17,0,0,1,10.48,17.94Zm-.06,3.81-.31-.28-.2-.39,0-.36.17-.45.34-.44.49-.46.44-.24.22,0,.29.13.21.19.12.33.06.56,0,.83,0,.2-.1.13-.29.26-.51.2h-.45Zm-.5,4a.07.07,0,1,1,.1-.11.07.07,0,0,1,0,.1A.08.08,0,0,1,9.92,25.76Zm-5.8,1.92a.13.13,0,0,1,0,.19.14.14,0,0,1-.2,0,.13.13,0,0,1,.18-.2Zm.82.79a.13.13,0,0,1-.19,0,.14.14,0,0,1,0-.2.13.13,0,1,1,.2.18Zm.21.1a.13.13,0,1,1,0,.19A.13.13,0,0,1,5.15,28.57Zm-.81-.38a.13.13,0,1,1,.2,0A.14.14,0,0,1,4.34,28.19Zm.15-.38-.22.06,0-.22Zm.42.3-.21.06V28Zm.4.25-.21.08v-.23Zm.43.29-.21.08v-.22Zm-.17.4a.15.15,0,0,1,0-.2.14.14,0,0,1,.2,0,.14.14,0,0,1,0,.19A.14.14,0,0,1,5.57,29.05ZM5.22,29l.21-.09v.24Zm-.43-.29L5,28.57v.24Zm-.42-.28.22-.08v.23ZM4,28.08,4.17,28v.24Z" transform="translate(0 0)" fill="#212121"/></g></g><g id="frame"><rect width="30" height="30" fill="none"/></g></svg>