<svg xmlns="http://www.w3.org/2000/svg" viewBox="0 0 30 30"><g id="rifles"><g id="quistreaper762x39"><path d="M2.36,28.2l.55.41L5,30H5.2l.1-.06.1-.13L7.75,25.7v.22l.1,0,.32-.29.12-.19.11-.4L8.31,25l-.19.12.37-.55.24-.24.32-.27.26-.27.11-.2,0-.14,0-.41,0-.75.23-.76.27-.48.29-.33.36-.33a1.84,1.84,0,0,0,.19.22.89.89,0,0,0,.6.24c.35,0,.68-.38,1-.75a.8.8,0,0,0,.08-1l-.29-.31.91-1,.24.13.56-.68.73.37.13,0,.1-.11,1-2.17,0-.08-.32-.17.42-.54.57-.68,1-1.16,2.19-2.37,1-1.31L21,8.52l0-.14-.15-.18,5.3-5.32.39.35s.11.15.34-.08.08-.35.08-.35l-.36-.38.76-.76.1.08.32-.33-.15-.16V1.18L28,.83l0-.13L27.74.52l-.14,0-.35.36-.43-.4,0-.07L26.45,0l-.07,0-.32.32v.1l.35.35.09,0,.38.39L23.08,5l-.31-.17-.11.06-.39,0L15.9,11.1,15.82,11h-.2l-.09.08-.07.11v.23l.21.19-.06.06-.23-.2,0-.08-.06,0h-.1l-.18.2,0,.05-.63.69h-.15l-.22.26,0,.08-.05.06,0,0-.05,0-.09,0-.08.09v.08l.05.07L14,13l-.14.15-.12,0h-.13l-.11.06-.13.15v.09l.05.11-.14.18L13,14l-2.34,2.33-.09,0L7.85,19.06l0,.1,0,.17.07.12.69.62-.05.32-.17.54-.25.52-.2.33-.29.28-.35.28-.41.19-.26.18L6.25,23l-4,4.32-.14.21v.14l.07.2ZM26.6,3.05a.11.11,0,0,1,0-.16.12.12,0,0,1,.17,0,.11.11,0,0,1,0,.16A.12.12,0,0,1,26.6,3.05Zm-7.44,6-.08-.18.38-.38.23,0Zm-1.11,1.1L18,10l.42-.42.2.06ZM17,11.24,17,11l.42-.43.23,0Zm-1,1L15.92,12l.33-.36.16.13Zm-1.47.51a.07.07,0,0,1,0,.11.08.08,0,0,1-.11,0,.09.09,0,0,1,0-.11A.08.08,0,0,1,14.53,12.74Zm0-.26s0,.07,0,.11a.08.08,0,0,1-.11,0,.08.08,0,0,1,0-.11A.08.08,0,0,1,14.55,12.48Zm.35.82-.08.08-.15-.13-.1.06-.06-.14.75-.64.1,0,.07.07-.09.08-.05-.05-.45.45v.11ZM15,14a.21.21,0,1,1,.28-.32A.21.21,0,1,1,15,14ZM10.86,20.2c0-.06.1-.18.14-.16a1.79,1.79,0,0,0,.29.32c.25.21.43.16.52.1s0,0-.19-.09a.69.69,0,0,1-.4-.48c0-.17.68-.9.8-.85s.69.52.05,1.23c-.44.49-.64.38-.87.24S10.86,20.27,10.86,20.2Zm-2,.8a.22.22,0,0,1,.28-.33.22.22,0,0,1,0,.3A.23.23,0,0,1,8.85,21ZM7.9,25.75,8,25.47l.21-.23-.09.3Z" transform="translate(0 0)" fill="#212121"/></g></g><g id="frame"><rect width="30" height="30" fill="none"/></g></svg>