<svg xmlns="http://www.w3.org/2000/svg" viewBox="0 0 30 30"><path d="M4.85,29.73l.49-.49a2.05,2.05,0,0,1-.73-.39L4,28.23s-.3.37-.61.3A3.27,3.27,0,0,1,2,27.06a1.07,1.07,0,0,1,0-.37,1,1,0,0,0-.36.87c.11.47.78.76,1.55,1.5S4.24,30.35,4.85,29.73Z" transform="translate(0 0)" fill="#212121"/><path d="M5.81,28.66A1.85,1.85,0,0,0,6,28.41c.1-.16.17-.29.17-.29a1.94,1.94,0,0,1-.73-.28c-.25-.2-.59-.54-.59-.54l-.39.4a4.18,4.18,0,0,0,.85.82A1.81,1.81,0,0,0,5.81,28.66Z" transform="translate(0 0)" fill="#212121"/><path d="M6.6,27.57l.45-.67a1.11,1.11,0,0,1-.57-.22c-.32-.23-.63-.51-.63-.51l-.55.63a3.41,3.41,0,0,0,.84.68A1.1,1.1,0,0,0,6.6,27.57Z" transform="translate(0 0)" fill="#212121"/><path d="M14.07,14.4l.15.15a.8.8,0,0,1,.43-.07.43.43,0,0,1,.34.36c0,.12,0,.38,0,.38s6.5-6.34,6.49-6.6-.68-.83-.68-.83Z" transform="translate(0 0)" fill="#212121"/><path d="M6.66,26.68a2.69,2.69,0,0,0,.56.14l.35-.44A.87.87,0,0,1,7,26.33a3.55,3.55,0,0,1-.87-.78.64.64,0,0,0,0-.47,2.82,2.82,0,0,0-.52-.82.85.85,0,0,1-.2-.57,2,2,0,0,1,.19-.53L2.1,26.52a1.53,1.53,0,0,0,0,.6,2.38,2.38,0,0,0,.69.9c.31.26.45.44.7.41s.49-.34.49-.34.64.71.82.84a3.11,3.11,0,0,0,.67.26l.42-.44a1.7,1.7,0,0,1-.68-.2,7.09,7.09,0,0,1-.87-.85l.54-.55a6.11,6.11,0,0,0,.76.73,3.16,3.16,0,0,0,.67.17l.35-.39A1.51,1.51,0,0,1,6,27.51c-.21-.16-.79-.71-.79-.71L5.85,26A4.33,4.33,0,0,0,6.66,26.68ZM4.42,26c0,.07-.1.19-.17.16A.51.51,0,0,1,4.09,26l.2-.2A.6.6,0,0,1,4.42,26Zm-.34.4c0,.08-.11.2-.18.17a1.25,1.25,0,0,1-.19-.2l.21-.21A2.23,2.23,0,0,1,4.08,26.38Zm-.38.33c0,.08-.11.2-.18.17a1.15,1.15,0,0,1-.16-.18l.2-.2A1.12,1.12,0,0,1,3.7,26.71Zm-.3.36c0,.07-.11.19-.18.17A1.58,1.58,0,0,1,3,27l.2-.2A1.63,1.63,0,0,1,3.4,27.07Zm1.4-1.42c0,.07-.11.19-.18.16a.8.8,0,0,1-.17-.2l.2-.2A1.2,1.2,0,0,1,4.8,25.65Zm-.66-.84a2.12,2.12,0,0,1,.22.24l-.19.19a2.48,2.48,0,0,1-.19-.3A.12.12,0,0,1,4.14,24.81Zm-.38.33a2.69,2.69,0,0,1,.25.27l-.2.19c-.11-.16-.2-.31-.21-.33A.12.12,0,0,1,3.76,25.14Zm-.35.4.22.24L3.44,26a3.2,3.2,0,0,1-.19-.3C3.23,25.59,3.34,25.51,3.41,25.54ZM3,25.87a2,2,0,0,1,.24.27l-.19.19a1.67,1.67,0,0,1-.2-.33A.12.12,0,0,1,3,25.87Zm-.3.36a2.12,2.12,0,0,1,.22.24l-.19.18a2.43,2.43,0,0,1-.19-.29C2.55,26.28,2.66,26.2,2.73,26.23Zm-.38.33a1.28,1.28,0,0,1,.24.26L2.4,27a1.73,1.73,0,0,1-.2-.32A.12.12,0,0,1,2.35,26.56Zm.49,1a1,1,0,0,1-.16-.19l.2-.2A1,1,0,0,1,3,27.4C3,27.47,2.91,27.59,2.84,27.57Zm.41.46a1.62,1.62,0,0,1-.38-.38s.06,0,.12-.08,0-.12.08-.12a2.75,2.75,0,0,1,.36.55C3.47,28.12,3.42,28.16,3.25,28Zm.38-.33a1.29,1.29,0,0,1-.38-.38c0-.05.06,0,.11-.08s.05-.12.09-.12a2.38,2.38,0,0,1,.35.55C3.84,27.79,3.8,27.83,3.63,27.7Zm.3-.36A1.64,1.64,0,0,1,3.55,27c0-.06.06,0,.12-.09s.05-.12.08-.12a2.87,2.87,0,0,1,.36.56C4.15,27.43,4.1,27.47,3.93,27.34ZM4.31,27a1.29,1.29,0,0,1-.38-.37c0-.06.06,0,.11-.09s0-.12.09-.12a2.48,2.48,0,0,1,.35.56C4.52,27.1,4.48,27.14,4.31,27Zm.34-.41a1.36,1.36,0,0,1-.37-.37c0-.06,0,0,.11-.08s.05-.13.09-.13a3.24,3.24,0,0,1,.35.56C4.87,26.69,4.83,26.73,4.65,26.6ZM5,26.28a1.84,1.84,0,0,1-.38-.38c0-.06.06,0,.12-.08s.05-.13.08-.13a2.72,2.72,0,0,1,.36.56C5.25,26.36,5.2,26.4,5,26.28Z" transform="translate(0 0)" fill="#212121"/><path d="M14.18,15.48a1.34,1.34,0,0,0-.47-.68L11.54,17l-.12-.12a6.8,6.8,0,0,0-1.1,1.57c-.5.95-.55,1.61-1.13,2a1.86,1.86,0,0,1-1.09.39L6,23s-.54.46-.42.86.66.83.71,1.2,0,.48,0,.48.58.66.87.73a.68.68,0,0,0,.43,0S8.66,24.37,9,23.72s.5-1,.87-1a1.07,1.07,0,0,1,.5.15,6.09,6.09,0,0,0,1.25-1.28c0-.17-.34-.1-.5-.83s.16-1.58.46-1.65.38,0,.53.06.38.14,1-.52.63-.92.47-1.08a.71.71,0,0,1-.24-.53c0-.18.06-.25.43-.62S14.35,16,14.18,15.48Zm-1,2.89c-.4.41-.78.79-1.1.47s0-.56,0-.56a.58.58,0,0,0,.12.38c.17.17.68.05.45,0a.37.37,0,0,1-.35-.3c0-.15,0-.22.22-.48s.69-.43.85-.27S13.55,18,13.15,18.37Z" transform="translate(0 0)" fill="#212121"/><path d="M28.12,0h-.24L26.31,1.57h-.43l-.73.37.14.13-.13.14.1.1-.21.21.08.08L24.69,3l.08.08L19.53,8.35h-.25L19,8.59l-.2-.21-.13.14.19.19-.34.34v.27l-3,3h-.42L12,15.43l.09.08a2.7,2.7,0,0,0-.58.67,3.12,3.12,0,0,1-.49.64.22.22,0,0,0-.19,0,.18.18,0,0,0-.11.24.82.82,0,0,0,.19.21s.24-.3.34-.41l.16-.15.11.12,2.14-2.14a1.91,1.91,0,0,1,.51.56,1.56,1.56,0,0,1,.13.56l.54-.53a2.09,2.09,0,0,0,0-.46.29.29,0,0,0-.31-.23.86.86,0,0,0-.36.11l-.27-.28,6.82-6.76.26.18L28.37.47V.24ZM14.58,14.72a.15.15,0,0,1,.15.15.15.15,0,1,1-.3,0A.15.15,0,0,1,14.58,14.72Z" transform="translate(0 0)" fill="#212121"/><rect width="30" height="30" fill="none"/></svg>