<!-- Copyright (c) 2022 Jan Stehno -->
<svg xmlns="http://www.w3.org/2000/svg" viewBox="0 0 300 300"><title>rangemaster338</title><g id="rifles"><g id="rangemaster338"><path d="M48.52,297.34c3.56-3.6,4.84-4.92,4.84-4.92s-5-1.52-7.3-3.91-6-6.23-6-6.23-3,3.69-6.15,3-13-10.53-13.73-14.71a10.18,10.18,0,0,1-.05-3.69s-4.75,3.95-3.61,8.66,7.81,7.6,15.53,15S42.41,303.49,48.52,297.34Z" transform="translate(0)" fill="#212121"/><path d="M58.1,286.63a17.32,17.32,0,0,0,2.18-2.57A26.08,26.08,0,0,0,62,281.2s-4.82-.76-7.28-2.79S48.81,273,48.81,273l-4,4s5.68,6.95,8.5,8.18A18.55,18.55,0,0,0,58.1,286.63Z" transform="translate(0)" fill="#212121"/><path d="M66,275.65,70.54,269a10.52,10.52,0,0,1-5.74-2.22,72,72,0,0,1-6.27-5.11L53,268s5.3,5.74,8.34,6.85A9.75,9.75,0,0,0,66,275.65Z" transform="translate(0)" fill="#212121"/><path d="M140.69,144l1.52,1.53a7.49,7.49,0,0,1,4.34-.71,4.29,4.29,0,0,1,3.38,3.57c0,1.26-.2,3.86-.2,3.86s65-63.39,64.92-66.05c-.15-4.07-6.85-8.27-6.85-8.27Z" transform="translate(0)" fill="#212121"/><path d="M66.64,266.83a25.91,25.91,0,0,0,5.56,1.34l3.55-4.36a9.07,9.07,0,0,1-6.13-.49c-3.42-1.44-8.75-7.81-8.75-7.81a6.45,6.45,0,0,0,.5-4.71c-.7-2.77-4-6.73-5.13-8.17s-2.3-3.79-2.06-5.77a22.18,22.18,0,0,1,1.93-5.28L21,265.24a15.75,15.75,0,0,0,.18,5.95c.76,2.41,3.76,6.35,6.91,9s4.56,4.45,7,4.16S40,280.91,40,280.91s6.37,7.14,8.23,8.39,6.7,2.63,6.7,2.63l4.15-4.46s-4.17-.26-6.8-2S43.62,277,43.62,277L49,271.5s5.69,6.23,7.7,7.26,6.65,1.76,6.65,1.76l3.48-3.95s-5.05.14-7.17-1.47S51.72,268,51.72,268l6.82-7.74S64.17,265.85,66.64,266.83Zm-22.39-7.08c.09.73-1.07,1.92-1.79,1.68a8.35,8.35,0,0,1-1.57-1.72l2-2A10.72,10.72,0,0,1,44.25,259.75Zm-3.48,4.09c.09.72-1.06,1.91-1.79,1.67a10.05,10.05,0,0,1-1.83-2.06l2-2A12.88,12.88,0,0,1,40.77,263.84ZM37,267.14c.1.72-1.06,1.91-1.78,1.67a9,9,0,0,1-1.63-1.8l2-2A10.57,10.57,0,0,1,37,267.14Zm-3,3.57c.1.73-1.06,1.92-1.78,1.68a10.33,10.33,0,0,1-1.87-2.11l2-2A13,13,0,0,1,34,270.71Zm14-14.25c.1.72-1.06,1.91-1.79,1.67a9.68,9.68,0,0,1-1.77-2l2-2A11.77,11.77,0,0,1,48,256.46Zm-6.66-8.4a18.83,18.83,0,0,1,2.25,2.46l-1.89,1.9a21.77,21.77,0,0,1-2-3.06A1.24,1.24,0,0,1,41.35,248.06Zm-3.76,3.3a20.43,20.43,0,0,1,2.46,2.72L38.14,256A24.53,24.53,0,0,1,36,252.66,1.23,1.23,0,0,1,37.59,251.36Zm-3.48,4.08a18.23,18.23,0,0,1,2.19,2.39l-1.89,1.89a22.1,22.1,0,0,1-1.89-3A1.24,1.24,0,0,1,34.11,255.44Zm-3.76,3.3a21,21,0,0,1,2.4,2.64l-1.91,1.91A25.07,25.07,0,0,1,28.75,260,1.24,1.24,0,0,1,30.35,258.74Zm-3,3.58a17.19,17.19,0,0,1,2.15,2.34l-1.88,1.89a22.09,22.09,0,0,1-1.86-2.93A1.24,1.24,0,0,1,27.31,262.32Zm-3.76,3.3a19.17,19.17,0,0,1,2.36,2.59L24,270.12a25,25,0,0,1-2.05-3.2A1.23,1.23,0,0,1,23.55,265.62Zm4.87,10.06a8.91,8.91,0,0,1-1.66-1.84l2-2A11.3,11.3,0,0,1,30.21,274C30.3,274.73,29.15,275.93,28.42,275.68Zm4.08,4.63c-1.71-1.28-3.74-3.36-3.76-3.77s.55-.3,1.13-.82.51-1.25.87-1.23,3.11,4.44,3.52,5.55S34.21,281.58,32.5,280.31Zm3.76-3.3c-1.71-1.28-3.74-3.35-3.76-3.76s.55-.31,1.13-.83.51-1.25.87-1.23,3.11,4.44,3.52,5.55S38,278.29,36.26,277Zm3-3.58c-1.72-1.28-3.74-3.35-3.77-3.76,0-.56.56-.3,1.14-.83s.5-1.25.86-1.22,3.12,4.44,3.53,5.55S41,274.71,39.3,273.43Zm3.76-3.3c-1.71-1.28-3.74-3.35-3.76-3.76,0-.56.55-.3,1.13-.83s.51-1.24.87-1.22,3.11,4.44,3.52,5.55S44.77,271.41,43.06,270.13Zm3.48-4.08c-1.72-1.28-3.74-3.35-3.77-3.76,0-.56.56-.31,1.14-.83s.5-1.25.87-1.22,3.11,4.43,3.52,5.54S48.25,267.33,46.54,266.05Zm3.76-3.3c-1.71-1.28-3.74-3.35-3.76-3.76,0-.56.55-.3,1.13-.83s.51-1.25.87-1.22,3.11,4.44,3.52,5.55S52,264,50.3,262.75Z" transform="translate(0)" fill="#212121"/><path d="M141.8,154.85c-1.67-5-4.72-6.86-4.72-6.86l-21.66,21.65-1.23-1.23a68.88,68.88,0,0,0-11,15.67c-4.92,9.55-5.45,16.16-11.29,20.41S81,208.4,81,208.4L59.59,230s-5.43,4.55-4.16,8.57,6.58,8.25,7,12-.25,4.74-.25,4.74S68,262,70.88,262.72s4.34,0,4.34,0,11.39-19,14.71-25.47,5-10.18,8.69-9.89,4.39,1.49,5,1.49,12.59-11,12.54-12.73-3.42-1.06-5-8.3,1.55-15.83,4.59-16.5,3.76-.44,5.26.63,3.83,1.32,10.42-5.26,6.34-9.15,4.68-10.81a7.14,7.14,0,0,1-2.37-5.31c.1-1.73.62-2.52,4.27-6.17S143.46,159.84,141.8,154.85Zm-10.28,28.89c-4,4-7.86,7.87-11.05,4.68s-.41-5.59-.41-5.59-.07,2.46,1.21,3.74c1.76,1.76,6.8.5,4.53,0s-3.23-1.47-3.47-3-.41-2.22,2.22-4.85c2.91-2.91,6.84-4.28,8.47-2.65S135.55,179.72,131.52,183.74Z" transform="translate(0)" fill="#212121"/><path d="M281.23,0H278.8L263.07,15.73h-4.32l-7.24,3.64,1.38,1.38-1.34,1.33,1,1.05-2.1,2.1.76.76-4.34,4.34.79.8L195.32,83.52h-2.53l-2.35,2.36-2-2-1.32,1.32L189,87.09l-3.39,3.38v2.75l-30.51,30.52H150.9l-30.56,30.55.86.86s-4.4,3.67-5.84,6.64a31.47,31.47,0,0,1-4.85,6.44,2.06,2.06,0,0,0-2-.18,1.79,1.79,0,0,0-1.08,2.31,9.44,9.44,0,0,0,1.94,2.19s2.39-3.07,3.38-4.1,1.59-1.55,1.59-1.55l1.16,1.16,21.37-21.37s3.72,2.75,5.06,5.63a14.48,14.48,0,0,1,1.36,5.56l5.32-5.33a21.84,21.84,0,0,0,.19-4.51,3.13,3.13,0,0,0-3.16-2.39,8.2,8.2,0,0,0-3.56,1.13L139.36,144l68.28-67.58,2.55,1.74L283.67,4.7V2.44ZM145.8,147.23a1.51,1.51,0,1,1-1.51,1.51A1.51,1.51,0,0,1,145.8,147.23Z" transform="translate(0)" fill="#212121"/></g></g><g id="frame"><rect width="300" height="300" fill="none"/></g></svg>