<!-- Copyright (c) 2022 - 2023 Jan Stehno -->
<svg xmlns="http://www.w3.org/2000/svg" viewBox="0 0 300 300.5"><title>razorbacklitecb60</title><g id="bows"><g id="razorbacklitecb60"><circle cx="60.14" cy="276.08" r="12.92" fill="#212121"/><circle cx="60.14" cy="276.08" r="23.92" fill="none" stroke="#212121" stroke-miterlimit="10"/><circle cx="265.65" cy="34.02" r="12.92" fill="#212121"/><circle cx="265.65" cy="34.02" r="23.92" fill="none" stroke="#212121" stroke-miterlimit="10"/><path d="M10.43,186.38l1.08,8.88,1.94,1.81s.64,17.58,6.2,33.1,12.12,24.91,18.48,33.33,10,12.32,10,12.32l2.08-6.74s-15.13-16.92-21-31.33-5.48-24.1-5.48-24.1,4.52,18.82,12.14,30.7a257.58,257.58,0,0,0,17,23l4.62-2.95S38.33,241.59,34.59,229.6s-4.11-19.86-4.11-19.86,16.66-.83,28-.13,24.85,1.6,24.85,1.6l4.54-5.85,17-40.27s-4.64-3.93-5.77-8.67.46-11.41.46-11.41l-7.87,17.53L99.35,169l-4.58,6.09-18,8.55-2.44-11.73,6.76-6.45-3-2.62a64.91,64.91,0,0,1-23.71,13.74C39.65,181.4,29.65,181,29.65,181l-2.59-1.81L13.84,181Zm69.19,19.2a1.79,1.79,0,1,1,.9,2.35A1.79,1.79,0,0,1,79.62,205.58Zm1.18-4.92-3.4-12.74,15.22-7-8.89,20.47Zm-20.6,2.69,10.34-12.72,3.1-.13L78,203.94l-2.17,2.43-13.22-1Zm-22.11-3.66,1.45-2.28,21.5-1-5.76,8.38-13.93-.66Zm22-5.66a1.95,1.95,0,1,1,2.58-1A1.94,1.94,0,0,1,60.07,194Zm-6.42.38a1.95,1.95,0,1,1,2.57-1A1.95,1.95,0,0,1,53.65,194.41ZM47,194.8a1.94,1.94,0,1,1,2.57-1A1.94,1.94,0,0,1,47,194.8Zm-7.36-9.41,2.23-2.7a77,77,0,0,0,12.9-3.11A132.13,132.13,0,0,0,70,173.72l1.8,1.31,1.72,8.59-3.6,3.67L42.3,189.53l-2.53-1.93Zm-12.2,9.16,3.67.18,3,2.58-1.41,1.92Zm-6.94,4.7,1.92-.28,0,4.57H21.05Zm-2.12-16.42,2.09-.2L22.2,193l-3,.28Z" transform="translate(0)" fill="#212121"/><path d="M88.71,207.21l-3.64,4.61,1.65,1.28L83,217.94l23.35,19.43a24.36,24.36,0,0,0,6.14,8.46c4.23,3.63,5,4.11,7.25,1.51s2-3.85-2.14-7.58a23.36,23.36,0,0,0-9.49-4.85l-17-14.36,1.2-1.47-2.69-2.24L94,211.52Z" transform="translate(0)" fill="#212121"/><path d="M80,160l-.9,1.11,14.3,12.57,3.3-4.45L82.54,156.81l-.84,1-4.17-3.83,1.39-1.52-33.8-29.36-1.63-4.47-8.62-7.4s-2.48-.89-5.48,2.65-1.77,5.77-1.77,5.77l8.82,7.54,4.66,1,33,29.54,1.48-1.61Z" transform="translate(0)" fill="#212121"/><path d="M105.3,163.48s-6.52-5.32-5.45-13.74,2.94-11.87,6.41-17.8a44,44,0,0,1,6.27-8.64l13.94,11.63a7,7,0,0,0-6.56,1.56C116.77,139.05,105.3,163.48,105.3,163.48Z" transform="translate(0)" fill="#212121"/><polygon points="120.31 113.09 118.33 113.04 113.4 118.7 114.05 121 112.91 122.44 130.07 136.71 132.13 136.71 135.63 139.58 143.3 130.72 139.91 127.97 138.53 125.54 121.75 111.5 120.31 113.09" fill="#212121"/><path d="M160.8,61.57c-2.83,7.92-12.11,23.59-19.71,32.48a136.83,136.83,0,0,1-18.28,17l16,13.54,5.12-6.55a158.88,158.88,0,0,1,30.37-28.49C189.93,78.41,199.19,75,199.19,75l5-6s-2.35-12.89-5.33-25.84A124.51,124.51,0,0,1,196.23,16s9.45-.75,26.12,3.47S257.4,36,257.4,36l2.92-4.34a152.79,152.79,0,0,0-25.82-14.3c-15.08-6.55-35.81-8.25-35.81-8.25s10.91-1.83,28.63,3,36.29,17.81,36.29,17.81l4.64-4.54s-4.16-3.06-10.61-6.83-18.17-9.35-35-14.71-43.25-2.08-43.25-2.08l-2-1.69-9.26.48-3.9,2.23-.1,14.42,2.41,1.74s0,1.83,0,12.46S163.63,53.65,160.8,61.57Zm15-50.3-9.42,0,.1-1.91,9.31.16Zm8.61,8.89-1.44,1.74L178,17.19l3.7.39Zm9.35,22-4.74,6-3,.28-2-20.73,2.14-2.24,5.09,2.34Zm-13.6,24.44,15,2.15.39,2.85-18.29,12.2-1.41-2Zm2.56-6.49,10.8-12.57L196,49l3,13.5L196,65.19l-13.3-2.06Zm-28.12,26.5c-1.8-2.76.06-5,3.6-10.76A46.68,46.68,0,0,0,163,65.53a32.26,32.26,0,0,0,6.64,1.82c4.41.82,6.51.17,6.51.17s-.65,2.25-2,7.24-2.54,10.5-8.35,14.26S156.37,89.33,154.57,86.57Zm-20.79,29.09,8.21-.72-3.64,4.23Zm8.39-16.93,7.21,5.7-6,7.08-14.06.85Zm7.53-9.35,2.93.08.4,4.09,7.27,1.38-5.76,5.74-4.07.2L150.05,97h-4.5l.12-3.64Zm20.74-57.27,1.37-2.21,3.05.23,2,1.84,1.65,29-2.92,2.76-7.86.11-2.84-2.63a83.34,83.34,0,0,0,3.8-15.61C170,36.94,170.44,32.11,170.44,32.11Z" transform="translate(0)" fill="#212121"/><path d="M141.22,123.27l39.6,32.54a3.88,3.88,0,0,0,4.09-1.06c1.81-1.94-.06-5-.06-5l9.08-11.2-9.85-8.14-2.61.42-1.64,5.59,1.38-1.69,6.48,5.15-5.9,7.34-34.43-31.66Zm4.25-.12,2.79-3.16L174,144.3,173,145.62Z" transform="translate(0)" fill="#212121"/><path d="M200.94,75.23l3.9-4.39,1.55,1.41,4.12-4.53,23.18,19.65A24.28,24.28,0,0,1,243.08,92c4.31,3.54,4.92,4.26,2.74,6.87s-3.44,2.69-7.83-.79a23.29,23.29,0,0,1-6.43-8.51L214.48,75.26l-1.24,1.44-2.67-2.26-4.49,5.2Z" transform="translate(0)" fill="#212121"/><polygon points="250.76 35.38 173.35 145 75.14 277.39 175.93 147.35 250.76 35.38" fill="#212121"/><polygon points="267.54 49.39 173.53 144.79 58.84 261.3 175.91 146.91 267.54 49.39" fill="#212121"/><polygon points="278.75 54.96 192.27 161.74 79.87 289.33 190.06 159.88 278.75 54.96" fill="#212121"/></g></g><g id="frame"><rect width="300" height="300" fill="none"/></g></svg>