<svg xmlns="http://www.w3.org/2000/svg" viewBox="0 0 30 30.05"><circle cx="6.01" cy="27.61" r="1.29" fill="#212121"/><circle cx="6.01" cy="27.61" r="2.39" fill="none" stroke="#212121" stroke-miterlimit="10" stroke-width="0.1"/><circle cx="26.56" cy="3.4" r="1.29" fill="#212121"/><circle cx="26.56" cy="3.4" r="2.39" fill="none" stroke="#212121" stroke-miterlimit="10" stroke-width="0.1"/><path d="M1,18.64l.11.89.19.18A12.93,12.93,0,0,0,2,23a11.83,11.83,0,0,0,1.85,3.33c.64.84,1,1.23,1,1.23l.2-.67a13.5,13.5,0,0,1-2.09-3.14,6.3,6.3,0,0,1-.55-2.4,12.14,12.14,0,0,0,1.21,3.07c.77,1.18,1.7,2.3,1.7,2.3l.46-.3A15.8,15.8,0,0,1,3.46,23a9,9,0,0,1-.41-2s1.66-.08,2.8,0l2.48.16.46-.58,1.7-4a2,2,0,0,1-.58-.87A3,3,0,0,1,10,14.5l-.79,1.75.76.65-.45.61-1.8.85-.24-1.17.67-.64-.3-.27a6.37,6.37,0,0,1-2.37,1.38A7.82,7.82,0,0,1,3,18.1l-.25-.19-1.33.19ZM8,20.56a.18.18,0,0,1,.24-.09.17.17,0,0,1,.09.23.18.18,0,0,1-.24.09A.17.17,0,0,1,8,20.56Zm.12-.49-.34-1.28,1.52-.7-.89,2.05ZM6,20.34l1-1.28h.31l.44,1.34-.22.25-1.32-.1ZM3.81,20,4,19.74l2.15-.1-.57.84-1.39-.07ZM6,19.4a.19.19,0,1,1,.16-.35.19.19,0,0,1,.09.26A.18.18,0,0,1,6,19.4Zm-.65,0a.19.19,0,0,1-.09-.26.19.19,0,0,1,.25-.09.18.18,0,0,1,.1.25A.2.2,0,0,1,5.36,19.44Zm-.66,0a.2.2,0,0,1-.1-.26.2.2,0,1,1,.36.16A.2.2,0,0,1,4.7,19.48ZM4,18.54l.22-.27A7.59,7.59,0,0,0,5.48,18,12.29,12.29,0,0,0,7,17.37l.18.13.18.86L7,18.73,4.23,19,4,18.76Zm-1.22.91.36,0,.3.26-.14.19Zm-.7.48.2,0v.45H2.1Zm-.21-1.65.21,0,.17,1-.3,0Z" transform="translate(0 0)" fill="#212121"/><path d="M8.87,20.72l-.36.46.16.13-.37.48,2.33,1.95a2.36,2.36,0,0,0,.62.84c.42.37.5.41.72.15s.21-.38-.21-.75a2.27,2.27,0,0,0-.95-.49l-1.7-1.44.12-.14L9,21.68l.43-.53Z" transform="translate(0 0)" fill="#212121"/><path d="M8,16l-.09.11,1.43,1.26.33-.45L8.25,15.68l-.08.1-.42-.39.14-.15L4.51,12.31l-.16-.45-.86-.74s-.25-.09-.55.26-.18.58-.18.58l.88.75.47.11,3.3,2.95.14-.16Z" transform="translate(0 0)" fill="#212121"/><path d="M10.53,16.35A1.65,1.65,0,0,1,10,15a3.93,3.93,0,0,1,.65-1.78,4.19,4.19,0,0,1,.62-.86l1.4,1.16a.73.73,0,0,0-.66.16A20.93,20.93,0,0,0,10.53,16.35Z" transform="translate(0 0)" fill="#212121"/><polygon points="12.03 11.31 11.83 11.3 11.34 11.87 11.4 12.1 11.29 12.24 13.01 13.67 13.21 13.67 13.56 13.96 14.33 13.07 13.99 12.8 13.85 12.55 12.18 11.15 12.03 11.31" fill="#212121"/><path d="M16.08,6.16a13.43,13.43,0,0,1-2,3.25,13.92,13.92,0,0,1-1.83,1.69l1.6,1.36.51-.66a16.5,16.5,0,0,1,3-2.85A12,12,0,0,1,19.92,7.5l.5-.61s-.24-1.28-.54-2.58a12.28,12.28,0,0,1-.26-2.71A8.74,8.74,0,0,1,22.24,2a13.68,13.68,0,0,1,3.5,1.65L26,3.16a15.52,15.52,0,0,0-2.58-1.43A13.58,13.58,0,0,0,19.87.91a7.25,7.25,0,0,1,2.86.29A14,14,0,0,1,26.36,3l.47-.45a11.87,11.87,0,0,0-1.07-.68A17.33,17.33,0,0,0,22.27.38,12.59,12.59,0,0,0,17.94.17L17.74,0l-.92.05-.39.22V1.71l.24.18V3.13A9.72,9.72,0,0,1,16.08,6.16Zm1.5-5h-.94V.93l.94,0Zm.86.89-.15.17-.49-.47.37,0Zm.93,2.19-.47.6-.3,0-.21-2.08.22-.22.51.23ZM18,6.66l1.5.21,0,.29L17.72,8.38l-.14-.2ZM18.27,6l1.08-1.26.25.15.3,1.35-.3.27-1.33-.21ZM15.46,8.66c-.18-.28,0-.5.36-1.08a4.8,4.8,0,0,0,.48-1,3.41,3.41,0,0,0,.66.19,1.45,1.45,0,0,0,.65,0l-.19.73a2.06,2.06,0,0,1-.84,1.42A.73.73,0,0,1,15.46,8.66Zm-2.08,2.91.82-.08-.36.43Zm.84-1.7.72.57-.6.71-1.41.09ZM15,8.94h.29l0,.41.73.13-.58.58-.4,0L15,9.7h-.44V9.34ZM17,3.21,17.18,3l.31,0,.2.19.17,2.89-.3.28h-.78l-.29-.26a8.3,8.3,0,0,0,.38-1.56C17,3.69,17,3.21,17,3.21Z" transform="translate(0 0)" fill="#212121"/><path d="M14.12,12.33l4,3.25a.38.38,0,0,0,.41-.11c.18-.19,0-.5,0-.5l.91-1.12-1-.81-.26,0-.17.56.14-.17.65.52-.59.73-3.44-3.17Zm.43,0,.28-.32,2.57,2.43-.11.13Z" transform="translate(0 0)" fill="#212121"/><path d="M20.09,7.52l.39-.44.16.14.41-.45,2.32,2a2.4,2.4,0,0,1,.94.45c.43.36.49.43.27.69s-.34.27-.78-.08A2.32,2.32,0,0,1,23.16,9L21.45,7.53l-.13.14-.26-.23L20.61,8Z" transform="translate(0 0)" fill="#212121"/><polygon points="25.08 3.54 17.34 14.5 7.51 27.74 17.59 14.73 25.08 3.54" fill="#212121"/><polygon points="26.75 4.94 17.35 14.48 5.88 26.13 17.59 14.69 26.75 4.94" fill="#212121"/><polygon points="27.88 5.5 19.23 16.17 7.99 28.93 19.01 15.99 27.88 5.5" fill="#212121"/><rect width="30" height="30" fill="none"/></svg>