<svg xmlns="http://www.w3.org/2000/svg" viewBox="0 0 30 30"><path d="M15.57,15,11.64,11,9.26,13.4l-.15-.15L7.35,15H6.79L6,15.79l-.11-.1H5.57l-.13.13.23.23s-.24.28,0,.5.5,0,.5,0a2.89,2.89,0,0,1,1,1.64,3.71,3.71,0,0,1-.37,2.12,4.84,4.84,0,0,0,1.82.77,3.15,3.15,0,0,0,2.07-.21,2.5,2.5,0,0,0,1,.57,2.23,2.23,0,0,0,1.8-.08,2.44,2.44,0,0,0,1.06-1.78,1.7,1.7,0,0,0-.49-1.42A1.16,1.16,0,0,1,14,16.69,17.71,17.71,0,0,1,15.57,15Zm-5.28,3.9-.2-.2a1.74,1.74,0,0,1-2.41,0,1.86,1.86,0,0,1-.07-2.4l-.19-.19,3.41-3.43,2.82,2.83Zm3.94.19a1.52,1.52,0,0,1-.59,1.73,1.52,1.52,0,0,1-1.87.24A1.91,1.91,0,0,1,11,19.94l.6-.18a1.56,1.56,0,0,0,1.18.72c.76,0,1.53-.42,1.23-.48s-.86.17-1.27-.06a.9.9,0,0,1-.55-.81.73.73,0,0,0-.31-.54l-.49.19s.62-.85,1.3-.89A1.69,1.69,0,0,1,14.23,19Z" transform="translate(0 0)" fill="#212121"/><path d="M11.78,29.72a4.45,4.45,0,0,0,1.72-2,1,1,0,0,0-.29-.93c-.19-.18-.13-.39-.23-.59s-.45-.16-.62-.72a5.07,5.07,0,0,0-.29-1c-.12-.12-.73-.65-.81-1a1,1,0,0,1,.47-1.1,2.75,2.75,0,0,0,.86-.6,3,3,0,0,1-1.09-.2,3.81,3.81,0,0,1-.86-.44,3,3,0,0,1-2,.15,4.32,4.32,0,0,1-1.93-.81s-.85.74-.85,1,.09.32.46.43.71.53,1,1.66a10.5,10.5,0,0,0,1.43,4.12C9.75,29.22,10.51,30.61,11.78,29.72Z" transform="translate(0 0)" fill="#212121"/><path d="M6.36,17a2.23,2.23,0,0,1,.5.85,3,3,0,0,1,.15,1s-.29-.51-.43-.55a.33.33,0,0,0-.27.05.52.52,0,0,0-.42-.08c-.21.07-.54.25-.63.15s.09-.27.42-.44L6,17.76s.26.16.35.07a.45.45,0,0,0,0-.43A1.2,1.2,0,0,1,6.36,17Z" transform="translate(0 0)" fill="#212121"/><path d="M10.82,12.94l2.55,2.56-2.95,2.95a3.17,3.17,0,0,1-1.78-.92,2.72,2.72,0,0,1-.89-1.48Z" transform="translate(0 0)" fill="#212121"/><path d="M24.07,1.31,22.93.17l-.32.32L22.26.13l-.14.15L21.84,0l-1,1,.26.26-.58.58L20,3l-8.1,8,2.39,2.39L24.76,2.93v-.4ZM12.64,10.79l-.15-.16L14,9.18l.15.15Zm2-2-.16-.15L16,7.16l.16.16Zm2.11-2.11-.15-.16L18.1,5.05l.15.16Zm2-2-.16-.16L20.11,3l.16.16Z" transform="translate(0 0)" fill="#212121"/><rect width="30" height="30" fill="none"/></svg>