<!-- Copyright (c) 2023 Jan Stehno -->
<svg xmlns="http://www.w3.org/2000/svg" viewBox="0 0 300 300">
    <title>rhino454</title>
    <g id="handguns">
        <g id="rhino454">
            <path
                d="M155.66,149.48l-39.29-39.3L92.55,134l-1.46-1.46L73.5,150.12H67.89L60.06,158l-1.05-1H55.74l-1.34,1.34,2.27,2.28s-2.39,2.79-.24,4.94,5-.22,5-.22,8.21,6,10.19,16.37-3.68,21.22-3.68,21.22a47.64,47.64,0,0,0,18.25,7.64c13.19,2.41,20.69-2.06,20.69-2.06a25.12,25.12,0,0,0,10.32,5.67c6.64,1.89,14,2.24,18.06-.82s10.75-9.79,10.64-17.74-1.58-10.75-5-14.26a11.56,11.56,0,0,1-1-14.37C143,161.86,155.66,149.48,155.66,149.48Zm-52.73,39-2-2s-12.71,11.75-24.11.35c-10.82-10.82-.7-24-.7-24l-1.92-1.93,34.09-34.27,28.27,28.27Zm39.41,1.93c1.52,6.08.7,12.27-5.9,17.29s-12.51,6.08-18.76,2.4-8.12-10.75-8.12-10.75l6-1.81s4.26,7.07,11.86,7.18,15.25-4.14,12.21-4.79-8.53,1.76-12.68-.58-5-4.27-5.49-8.12a7.27,7.27,0,0,0-3.1-5.32l-4.85,1.87s6.14-8.53,13-8.94S140.82,184.36,142.34,190.44Z"
                transform="translate(0)" fill="#212121" />
            <path
                d="M117.8,297.2c8.55-6.05,16.48-15.43,17.18-20.22s-1.06-7.36-2.93-9.23-1.22-4-2.22-5.9-4.5-1.64-6.19-7.25-1.81-8.65-3-9.88-7.25-6.48-8.06-10.22.29-9.53,4.67-11.05,8.66-6,8.66-6a31,31,0,0,1-10.91-2,37.91,37.91,0,0,1-8.59-4.38s-7.16,4.19-20.42,1.51-19.34-8.13-19.34-8.13-8.48,7.42-8.48,9.64.94,3.16,4.62,4.33,7.13,5.26,9.76,16.54,3.71,25.33,14.31,41.28S105.15,306.14,117.8,297.2Z"
                transform="translate(0)" fill="#212121" />
            <path
                d="M63.61,169.93a22.51,22.51,0,0,1,5,8.46A28.74,28.74,0,0,1,70.06,188s-2.9-5-4.21-5.52a3.4,3.4,0,0,0-2.76.57s-2.11-1.58-4.21-.83-5.35,2.54-6.27,1.49.92-2.72,4.17-4.38,3.46-1.76,3.46-1.76,2.54,1.63,3.42.7.92-2.45.3-4.25A11,11,0,0,1,63.61,169.93Z"
                transform="translate(0)" fill="#212121" />
            <path
                d="M108.18,129.43,133.73,155,104.2,184.52s-9.29-.79-17.75-9.25-8.94-14.81-8.94-14.81Z"
                transform="translate(0)" fill="#212121" />
            <path
                d="M240.74,13.15,229.29,1.69l-3.16,3.16-3.5-3.51L221.17,2.8,218.36,0,208.14,10.23l2.57,2.57-5.85,5.84-4.55,11.22-81,79.94,23.88,23.88L247.62,29.26v-4ZM126.43,107.9l-1.56-1.59,14.81-14.55,1.56,1.59Zm20.16-20.16L145,86.15,159.84,71.6l1.56,1.59Zm21.13-21.12L166.15,65,181,50.47l1.57,1.59Zm20.16-20.16-1.57-1.59,14.81-14.56,1.57,1.59Z"
                transform="translate(0)" fill="#212121" />
        </g>
    </g>
    <g id="frame">
        <rect width="300" height="300" fill="none" />
    </g>
</svg>