<!-- Copyright (c) 2022 Jan Stehno -->
<svg xmlns="http://www.w3.org/2000/svg" viewBox="0 0 300 300"><title>solokhinmn1890</title><g id="rifles"><g id="solokhinmn1890"><path d="M231.22,36.55c-.28-1.15,10.31-11.57,11.74-12s6.36,4.57,6.68,6.39.71,3.71-1.64,6.89-6.54,8-7.45,8-2.66-2-2.69-2.64S247,35,247.14,34.05a1.06,1.06,0,0,0-1.36-1.22c-.75.18-8.71,8.36-9.39,8.57S231.5,37.72,231.22,36.55Z" transform="translate(0)" fill="#212121"/><path d="M232.79,42.08c-2.43-2.36-3.56-3.27-4.18-3.25s-34.78,33.48-34.87,34.54c-.11,1.47,4.62,5.85,5.29,5.76s8.85-9.1,10.18-10,2,1,1.53,1.48-10.57,9.28-10.38,10.13,1.95,3.24,3.24,3.34S220.52,66.61,226.06,61s12.3-12.16,12.19-12.81S235.22,44.44,232.79,42.08ZM229,54l-7.62,7.73a1.69,1.69,0,0,1-2.82.37,1.93,1.93,0,0,1-.15-3l7.52-7.69s1.8-2.18,3.33-.59S229,54,229,54Z" transform="translate(0)" fill="#212121"/><path d="M251,36l.83-3.17V29.91l1.29-1.3L251.51,27l-1,1a25.09,25.09,0,0,0-3-3.44c-1-.71-2.12-1.4-2.12-1.4L268.54,0h2.06l2.67,2.67V5.06l-17.8,17.79,1.74,1.74,12.92-12.93h1.25l1.45,1.45V14.2Z" transform="translate(0)" fill="#212121"/><path d="M196.6,80.79c-4-4-4.62-4.23-6-4.14s-9.8,9-9.8,9l3,3-51.38,51.39s2.07,1.45,1.88,2.92-1.91,1.48-2.72.91a8.5,8.5,0,0,1-1.47-1.38l-29.24,29.24a201.89,201.89,0,0,1-7.11,21.45c-4.57,11.57-6.74,15.82-9,18.07s-7.86,3-11.64,6.07S47.23,242,36.94,257.06s-11.61,18.56-9.14,23.13S40.47,291.24,48.37,296s9.09,5.19,12.16,1.74c3.86-4.34,30.49-55.15,38-72.1s13.52-29.41,14.57-30.18,3.9-.22,5,1.63,4.82,2.9,8.31,0,9.43-12.17,13.18-18.28,13.53-19.8,15.77-25,2.69-9.55,3.15-10.66,21-20.92,28.6-33.27,13.28-20.09,13.23-22.42S200.65,84.74,196.6,80.79ZM83.88,238.33l-4.32,10a1.69,1.69,0,0,1-2.5,1.36,1.93,1.93,0,0,1-1.21-2.72L80.09,237s.9-2.67,2.9-1.75S83.88,238.33,83.88,238.33Zm44.27-46.59c-4.84,4.84-7.37,4.73-9.32,2.78s-1.93-3.46-1.75-4.46a11,11,0,0,1,1.46-2.85,7.65,7.65,0,0,0,1.4,4.39c1.75,2.14,7,.68,4.92.42a4.17,4.17,0,0,1-3.92-3.7c-.5-2.36-.16-4.2,2-6.4,2.73-2.73,5.34-2.87,7.39-.82S133,186.9,128.15,191.74Zm7.52-9.7-7.8-7.7,2.1-2.09,7.29,7.29Zm15.55-26.21a1.85,1.85,0,1,1,1.84-1.84A1.85,1.85,0,0,1,151.22,155.83Zm-.76-17.15a3.61,3.61,0,1,1,3.61-3.61A3.61,3.61,0,0,1,150.46,138.68Z" transform="translate(0)" fill="#212121"/><path d="M101.4,170a3,3,0,0,1-.77-2.57c.15-1.86,13.78-13.78,13.78-13.78h1.79l1.82-1.82-.89-.9,3.38-3.38h1.59l7.46-7.46v-5.37l27.89-27.88h3.19l4.74-4.75-.57-.57-4.12,4.13h-3.27l-1.58-1.58,2.3-2.3h2.67l2.52-2.51-.48-.49,3.46-3.46.79.79L172,91.2l-.75-.75,2.57-2.57h1.86l1,1,3.09-3.09,2.84,2.84Z" transform="translate(0)" fill="#212121"/></g></g><g id="frame"><rect width="300" height="300" fill="none"/></g></svg>