<svg xmlns="http://www.w3.org/2000/svg" viewBox="0 0 30 30"><path d="M23.12,3.65A5.31,5.31,0,0,1,24.3,2.46c.14,0,.63.46.66.64a.71.71,0,0,1-.16.69c-.24.31-.65.8-.75.8s-.26-.2-.26-.26.91-.83.92-.93a.11.11,0,0,0-.13-.12c-.08,0-.87.84-.94.86S23.15,3.77,23.12,3.65Z" transform="translate(0 0)" fill="#212121"/><path d="M23.28,4.21c-.24-.24-.36-.33-.42-.33s-3.48,3.35-3.49,3.46.47.58.53.57.89-.91,1-1,.2.1.15.15a11,11,0,0,0-1,1c0,.09.19.33.32.34s1.69-1.75,2.25-2.31a15.53,15.53,0,0,0,1.22-1.28A3.77,3.77,0,0,0,23.28,4.21ZM22.9,5.4l-.77.77a.17.17,0,0,1-.28,0,.2.2,0,0,1,0-.3l.75-.77s.18-.21.33,0S22.9,5.4,22.9,5.4Z" transform="translate(0 0)" fill="#212121"/><path d="M25.1,3.6l.09-.32V3l.12-.13-.16-.16-.1.1a2.3,2.3,0,0,0-.3-.34l-.21-.15L26.85,0h.21l.27.27V.51L25.55,2.29l.17.17L27,1.17h.13l.14.14v.11Z" transform="translate(0 0)" fill="#212121"/><path d="M19.66,8.08c-.4-.4-.46-.42-.6-.41s-1,.9-1,.9l.3.3L13.25,14s.2.15.18.3-.19.14-.27.09a1.14,1.14,0,0,1-.15-.14l-2.92,2.92a19.43,19.43,0,0,1-.71,2.15,5.69,5.69,0,0,1-.9,1.8c-.22.23-.78.3-1.16.61a28.3,28.3,0,0,0-3.63,4c-1,1.5-1.16,1.85-.91,2.31A7.13,7.13,0,0,0,4.84,29.6c.79.48.91.52,1.21.17a79.82,79.82,0,0,0,3.8-7.21,27.94,27.94,0,0,1,1.46-3,.4.4,0,0,1,.5.16c.11.19.48.29.83,0A9.44,9.44,0,0,0,14,17.89c.38-.62,1.35-2,1.58-2.51a6.16,6.16,0,0,0,.31-1.07A30.35,30.35,0,0,0,18.71,11,14.3,14.3,0,0,0,20,8.75C20,8.51,20.06,8.47,19.66,8.08ZM8.39,23.83l-.43,1a.17.17,0,0,1-.25.13.19.19,0,0,1-.13-.27l.43-1s.09-.26.29-.17A.21.21,0,0,1,8.39,23.83Zm4.42-4.66c-.48.49-.73.48-.93.28a.46.46,0,0,1-.17-.44,1.29,1.29,0,0,1,.14-.29.81.81,0,0,0,.14.44c.18.21.71.07.5,0a.42.42,0,0,1-.4-.37.63.63,0,0,1,.21-.64c.27-.27.53-.29.74-.08S13.3,18.69,12.81,19.17Zm.76-1-.78-.77.21-.21.73.73Zm1.55-2.62a.18.18,0,0,1-.18-.18.19.19,0,0,1,.18-.19.2.2,0,0,1,.19.19A.19.19,0,0,1,15.12,15.58Zm-.07-1.71a.36.36,0,1,1,.36-.36A.36.36,0,0,1,15.05,13.87Z" transform="translate(0 0)" fill="#212121"/><path d="M10.14,17a.31.31,0,0,1-.08-.26,11.21,11.21,0,0,1,1.38-1.38h.18l.18-.18-.09-.09.34-.33h.16L13,14v-.54l2.79-2.79h.31l.48-.47-.06-.06-.41.41h-.33l-.16-.15.23-.23h.27l.25-.25,0,0,.35-.35.08.08.49-.49-.08-.07.26-.26h.19l.09.1L18,8.58l.29.28Z" transform="translate(0 0)" fill="#212121"/><rect width="30" height="30" fill="none"/></svg>