<!-- Copyright (c) 2022 - 2023 Jan Stehno -->
<svg xmlns="http://www.w3.org/2000/svg" viewBox="0 0 300 300">
    <path
        d="M279.77,0A82.78,82.78,0,0,1,268,17.69c-7.67,8.73-17.32,13.5-28.32,19.53s-37.59,22.33-52.2,33.12-27.6,20.13-27.6,20.13l-.48-.79.51-.75-.52-.8L154.52,91l.56.89.91.1.46.81s-3.92,4.56-8,9.17-7.74,5.65-10.06,8.29-1.52,3.18-5.68,7.93-10,5.59-15.24,11.59-11.69,21.08-16.29,26.32a95,95,0,0,1-6.55,7l-1.22-.54-.28-1-.9-.47-3,5.83.83.38.81-.42,1.12.52s-1.56,3.67-7.59,15.14-19.6,37.24-27.17,55.21-15,38.08-22,46.1a118.29,118.29,0,0,1-16.5,14.94l.81,1.31s5.92-1.94,16.59-14.09S49.73,260.49,55.5,247s9.66-21.71,19.77-41.49S90,181.87,90,181.87a8.76,8.76,0,0,0,4.51-.17c2.1-.77,4.65-2.41,10-8.45s7-11.39,10.22-17.51,10-12.43,12.86-15.65,2.06-3.35,1.52-5.8.19-3.56,3.28-4.18,10.09-3.11,14-7.54,3.33-6.59,5.37-8.92,2.12-1.87,5.69-4.13A34.1,34.1,0,0,0,166,102c3.18-3.62,3.74-3.45,6.19-8.59s.53-7.78.53-7.78,8.75-7.53,18.92-14.65,35.08-23.54,45.1-29.72S259.19,30.68,269.44,19,281.24.58,281.24.58ZM109,153.72a.92.92,0,1,1-.09-1.3A.92.92,0,0,1,109,153.72Zm13.57-14.15a1.11,1.11,0,1,1-.1-1.56A1.1,1.1,0,0,1,122.61,139.57Z"
        fill="#212121" />
    <line x1="46.07" y1="273.67" x2="256.92" y2="33.42" fill="#212121" />
    <path
        d="M46.07,273.67c8.61-10.16,17.33-20.23,26-30.35L98.2,213.1c17.45-20.13,35-40.14,52.54-60.22L203.63,93,230.2,63.12c8.91-9.9,17.77-19.84,26.72-29.7-8.61,10.16-17.33,20.23-26,30.35L204.79,94,152.25,154.2c-17.64,20-35.2,40-52.89,59.91L72.79,244C63.88,253.86,55,263.81,46.07,273.67Z"
        fill="#212121" />
    <rect width="300" height="300" fill="none" />
</svg>