<svg xmlns="http://www.w3.org/2000/svg" viewBox="0 0 30 30"><path d="M28,0A8.47,8.47,0,0,1,26.8,1.77a9.68,9.68,0,0,1-2.83,2C22.86,4.33,20.21,6,18.74,7s-2.76,2-2.76,2l0-.08L16,8.89l-.05-.08-.49.29.06.08h.09l.05.08-.8.92c-.41.46-.78.57-1,.83a8.17,8.17,0,0,1-.57.79c-.41.48-1,.56-1.52,1.16s-1.17,2.11-1.63,2.63a9,9,0,0,1-.65.7l-.13-.05,0-.1-.09,0-.3.58.08,0,.08,0,.11.05s-.15.37-.75,1.51-2,3.73-2.72,5.52a23.14,23.14,0,0,1-2.2,4.62,12.21,12.21,0,0,1-1.65,1.49L2,30a4.71,4.71,0,0,0,1.66-1.41A12.86,12.86,0,0,0,5.55,24.7c.58-1.35,1-2.17,2-4.15A8.82,8.82,0,0,1,9,18.19a.85.85,0,0,0,.45,0,2.64,2.64,0,0,0,1-.85,7.17,7.17,0,0,0,1-1.75A8.82,8.82,0,0,1,12.76,14c.28-.32.2-.34.15-.58s0-.36.33-.42a2.85,2.85,0,0,0,1.4-.75c.39-.45.33-.66.53-.89s.21-.19.57-.42a3.31,3.31,0,0,0,.86-.75,2.7,2.7,0,0,0,.61-.86c.25-.52.06-.78.06-.78s.87-.75,1.89-1.47,3.51-2.35,4.51-3A11.77,11.77,0,0,0,26.94,1.9,5,5,0,0,0,28.12.06ZM10.9,15.37a.09.09,0,1,1-.14-.12.11.11,0,0,1,.14,0A.09.09,0,0,1,10.9,15.37ZM12.26,14a.11.11,0,0,1-.15,0,.11.11,0,0,1,0-.16.11.11,0,0,1,.15,0A.11.11,0,0,1,12.26,14Z" transform="translate(0 0)" fill="#212121"/><line x1="4.61" y1="27.37" x2="25.69" y2="3.34" fill="#212121"/><path d="M4.61,27.37c3.45-4.06,7-8,10.46-12.08s7-8,10.62-11.95c-3.45,4.06-7,8.05-10.47,12.08S8.19,23.42,4.61,27.37Z" transform="translate(0 0)" fill="#212121"/><rect width="30" height="30" fill="none"/></svg>