<!-- Copyright (c) 2024 Jan Stehno -->
<svg xmlns="http://www.w3.org/2000/svg" viewBox="0 0 300 300">
    <path
        d="M277.26,1.75c-1.65-.53-1.95,0-1.95,0L273.6,0h-.83L125,147.82a134.54,134.54,0,0,0-9.76,10.32c-3,3.58-9.33,10-13.66,14.76S91.68,182.88,87,190s-6,11.06-8,17.48-4.18,10.51-6.64,13-4,.73-6.8,3.5-21,21.67-26.81,27.74S24.22,266.79,21,270.38s-2.95,5.32-.83,8.29,7.56,5.43,16.16,15.82a10.5,10.5,0,0,0,4.16,3.76c3,1.64,4.35,2.3,6.36,1.22a7.62,7.62,0,0,0,4-4c1.16-2.28,15.3-29.48,18.24-36s7.38-14.18,9.06-15.86,2.38-.33,3.73-.63,8.8-5,10.58-6.76,1.42-3.13.63-4.65-5.64-8.34-3.86-14.34a88.67,88.67,0,0,1,5.41-13,1.86,1.86,0,0,1,2.08-.57c1.19.53,6.07,3.3,8.11,3.3s2.47.5,6.53-3.56,3.79-6.49,3.79-9.92-.46-4.75,2.34-7.55,8.9-9.24,13-12.9,10.09-8.37,11.37-9.66.86-1.85,1.85-2.83,1.61-2.11,1.61-1.49.47,1.39,1.13.73,67.25-67.7,71.86-72.32,5.34-5.37,5.34-6.8.9-2,2.53-3.67,2-2.9-.82-5.74-3.93-3-5.19-1.8l-1.4,1.41-.11-.64,59.94-59.95c2.61-2.6,3-3.09,2.61-4.51A7.39,7.39,0,0,0,277.26,1.75Zm-167,200.71c-4.18,4.17-5.57,3.19-6.57,2.19a3.81,3.81,0,0,1-1.37-3.07c.14-1-.08,0,1.3,1.43a3.81,3.81,0,0,0,5,.15c1.46-1.11-1.64.23-3-1.16s-1.34-3.21,1-5.55c2-2,4.07-2.4,5.69-.78S114.4,198.28,110.23,202.46ZM158.7,117.8l-3.33,3.33-1.09-1.08,3.33-3.33Zm19.08-18.88-3.33,3.33-1.09-1.09,3.33-3.33Zm19-18.65-3.33,3.33-1.09-1.08,3.33-3.33Zm18.88-19-3.33,3.33-1.09-1.09,3.33-3.33Zm19.13-19-3.33,3.33-1.09-1.09,3.33-3.33Zm20.07-19.86-3.33,3.33-1.08-1.09,3.33-3.33ZM273.31,4,270,7.36l-1.09-1.09,3.33-3.33Z"
        fill="#212121" />
    <rect width="300" height="300" fill="none" />
</svg>