<svg xmlns="http://www.w3.org/2000/svg" viewBox="0 0 30 30"><path d="M27.73.17c-.17-.05-.2,0-.2,0L27.36,0h-.08L12.5,14.78a14,14,0,0,0-1,1c-.3.36-.93,1-1.37,1.48A14.13,14.13,0,0,0,8.7,19a5.72,5.72,0,0,0-.8,1.75,3.28,3.28,0,0,1-.67,1.3c-.24.24-.4.07-.68.34L3.87,25.17c-.58.61-1.45,1.51-1.77,1.87s-.29.53-.08.83a20,20,0,0,1,1.62,1.58,1,1,0,0,0,.41.37c.3.17.44.24.64.13a.78.78,0,0,0,.4-.4c.11-.23,1.53-2.95,1.82-3.61a7.89,7.89,0,0,1,.91-1.58c.16-.17.23,0,.37-.07a4.82,4.82,0,0,0,1.06-.67.34.34,0,0,0,.06-.47,2,2,0,0,1-.39-1.43,8.71,8.71,0,0,1,.55-1.3.17.17,0,0,1,.2-.06,3,3,0,0,0,.81.33c.21,0,.25,0,.66-.35a1.12,1.12,0,0,0,.38-1c0-.35,0-.48.23-.76s.89-.92,1.3-1.29,1-.84,1.14-1,.09-.19.18-.29.17-.21.17-.15,0,.14.11.08l7.19-7.24c.46-.46.53-.53.53-.68s.09-.2.25-.36.2-.29-.08-.58-.39-.3-.52-.18l-.14.14V7l6-6c.26-.27.31-.31.26-.46A.76.76,0,0,0,27.73.17ZM11,20.25c-.42.41-.55.31-.65.21a.35.35,0,0,1-.14-.3c0-.1,0,0,.13.14a.38.38,0,0,0,.5,0c.14-.11-.17,0-.31-.12s-.13-.32.1-.56.41-.24.57-.07S11.44,19.83,11,20.25Zm4.85-8.47-.33.33L15.43,12l.33-.33Zm1.91-1.89-.34.34-.1-.11.33-.34ZM19.68,8l-.34.33-.1-.11.33-.33Zm1.89-1.9-.34.33-.11-.11L21.46,6Zm1.91-1.9-.33.33L23,4.45l.33-.33Zm2-2-.34.34L25,2.47l.34-.33ZM27.33.4,27,.74,26.89.63l.33-.34Z" transform="translate(0 0)" fill="#212121"/><rect width="30" height="30" fill="none"/></svg>