<svg xmlns="http://www.w3.org/2000/svg" viewBox="0 0 30 30"><path d="M5.28,29.54c.31-.7,3.85-7.77,4-8s.23-.39.47-.33a1,1,0,0,0,1.22-.51c.48-.69.48-1.09.26-1.29a1.22,1.22,0,0,0-.36-.2,10.64,10.64,0,0,1-1.52,1.35c-.61.38-.79.13-.53-.68a9.55,9.55,0,0,1,.71-1.55A14,14,0,0,0,7.9,20.89c-.44,1.09-.53,1.34-.79,1.43a.92.92,0,0,1-.45.05S3.05,26.6,2.37,27.31s-.87.75,0,1.36a8.38,8.38,0,0,0,2,1.17C5,30.09,5,30.09,5.28,29.54Z" transform="translate(0 0)" fill="#212121"/><path d="M12.69,16.15l.49.49s1.49-1.52,2.41-2.67a22.48,22.48,0,0,0,1.63-2.35Z" transform="translate(0 0)" fill="#212121"/><path d="M10.57,19.64c.17-.12.37-.11.45.09s0,.52-.37.9-.57.45-.73.39a.32.32,0,0,1-.22-.34c0-.13,0-.15,0-.15a.41.41,0,0,0,.18.25c.16.11.59-.08.42-.08a.39.39,0,0,1-.42-.25c0-.18.21-.38.21-.38a1.16,1.16,0,0,0,.25.18c.17.09.57,0,.37,0a.4.4,0,0,1-.4-.24C10.29,19.81,10.38,19.77,10.57,19.64Z" transform="translate(0 0)" fill="#212121"/><path d="M10,17.66s-.75,1.54-1,2.18c-.33,1-.19,1,1.17-.24s2.89-2.81,2.89-2.81l-.5-.5L11,18s-.25.24-.49.17S10,17.66,10,17.66Z" transform="translate(0 0)" fill="#212121"/><path d="M10.11,17.48s.24.44.46.43,1-.91,2.24-2.14c1.07-1,4.8-4.81,6-6S28.21.4,28.21.4l-.4-.4Z" transform="translate(0 0)" fill="#212121"/><path d="M9.2,18.52s-.17.22-.42.51a2.87,2.87,0,0,0-.36.57.66.66,0,0,1-.13-.33C8.3,19.14,9.2,18.52,9.2,18.52Z" transform="translate(0 0)" fill="#212121"/><rect width="30" height="30" fill="none"/></svg>