<!-- Copyright (c) 2023 Jan Stehno -->
<svg xmlns="http://www.w3.org/2000/svg" viewBox="0 0 300 300">
    <title>streckersxs20g</title>
    <g id="shotguns">
        <g id="streckersxs20g">
            <path
                d="M52.8,295.37c3.08-7,38.5-77.65,39.58-79.93s2.34-3.89,4.74-3.3,7.35,1.72,12.19-5.15,4.77-10.9,2.56-12.87a12.46,12.46,0,0,0-3.57-2s-9.11,9.66-15.18,13.5-7.92,1.29-5.28-6.8a95.59,95.59,0,0,1,7-15.46s-11.35,14.58-15.82,25.54-5.36,13.43-8,14.31a10,10,0,0,1-4.47.56S30.52,266,23.72,273.15s-8.71,7.43-.08,13.59,13.59,9.19,20.15,11.67S50.39,300.89,52.8,295.37Z"
                transform="translate(0)" fill="#212121" />
            <path
                d="M126.86,161.48l4.91,4.91s14.93-15.23,24.17-26.74a230.3,230.3,0,0,0,16.29-23.41Z"
                transform="translate(0)" fill="#212121" />
            <path
                d="M105.71,196.35c1.72-1.18,3.68-1,4.48,1s-.12,5.2-3.64,9-5.72,4.54-7.4,3.88a3.31,3.31,0,0,1-2.15-3.4,5,5,0,0,1,.36-1.52,4.31,4.31,0,0,0,1.83,2.52c1.6,1.12,6-.79,4.2-.76-2.4,0-4.07-1.46-4.2-2.48-.24-1.88,2.08-3.84,2.08-3.84a10.92,10.92,0,0,0,2.48,1.8c1.76.92,5.72-.32,3.8-.4s-3.52-.8-4.08-2.4S103.79,197.67,105.71,196.35Z"
                transform="translate(0)" fill="#212121" />
            <path
                d="M99.73,176.61S92.16,192,90,198.41c-3.3,9.72-1.92,10.08,11.75-2.39s28.83-28.17,28.83-28.17l-5-4.92-16.07,16.54s-2.53,2.39-5,1.73S99.73,176.61,99.73,176.61Z"
                transform="translate(0)" fill="#212121" />
            <path
                d="M101.07,174.79s2.47,4.37,4.63,4.32c3.58-.08,9.64-9.15,22.41-21.39,10.74-10.3,48-48.11,60-59.68S282.13,4,282.13,4l-4-4Z"
                transform="translate(0)" fill="#212121" />
            <path
                d="M92,185.25s-1.68,2.12-4.14,5.08c-1.54,1.86-3.75,5.34-3.61,5.64,0,0-1.38-1.9-1.28-3.22S92,185.25,92,185.25Z"
                transform="translate(0)" fill="#212121" />
        </g>
    </g>
    <g id="frame">
        <rect width="300" height="300" fill="none" />
    </g>
</svg>