<!-- Copyright (c) 2022 - 2023 Jan Stehno -->
<svg xmlns="http://www.w3.org/2000/svg" viewBox="0 0 300 300"><title>tsurugilrr338</title><g id="rifles"><g id="tsurugilrr338"><g id="weapon"><path d="M21.05,277.68l20.2,20.2c3.19,3.2,6,2.43,8.44,0l8.65-8.65c2.67-2.67,1.73-3.37-.76-5.87s-3.69-3.4,4.72-11.81S86.11,254,90.69,253s11.64-8.94,11.78-9.5-2-2.44-4.54-5.49-3.16-8.16-3.28-11.79,5.46-8.39,5.46-8.39,4.57,1.25,6.15,1.08,9.51-8.33,10.29-10,.24-6.07.24-6.07l1.36,1.36h2.52l-2.7-2.7.53-.53,3.15,3.15,1-.12,21.53-25.77-1-1-1.72,1.72-.66-.66a50.86,50.86,0,0,1,6.25-10.64c4.3-5.7,37-39.69,37-39.69s2.17,2.64,4.07.73-.7-4.16-.7-4.16l4.23-4.23L181.3,109.92l90-90,2.41,2.41,6.2-6.2-2.33-2.33,3.65-3.65-5.44-5.44-3.65,3.65-3.61-2.29L262.45,0l-5.16,5.16,3.24,3.24.53,4,1.14,1.14,2.06-.62,1.41,1.41L161.2,118.81l-22.45,21.42h-2.64L95.42,180.92l-2.68-2.67-6.84-1.14-3.37,3.37L89.08,187l-2.36,2.37L88,190.7l-3.13,9.23.64.64h.9l.51.51s-1.72,4.42-3.61,8.11A19.92,19.92,0,0,0,82,223.7c1.62,5.33,1.58,9.67-1.29,12.55s-6.22,3-9.43-.16-3.69-7.1-4.37-7.78-12.68,6.56-17.07,9.62-17.43,16.35-17.43,16.35v3.81L21.08,269.44C17.56,273,18.52,275.15,21.05,277.68ZM185.71,127.83a1.27,1.27,0,0,1,0-1.8,1.27,1.27,0,1,1,1.8,1.8A1.27,1.27,0,0,1,185.71,127.83Zm-65,72.83a2,2,0,1,1,2.78,0A2,2,0,0,1,120.7,200.66Zm-27.16-18a2.3,2.3,0,1,1-3.25,0A2.29,2.29,0,0,1,93.54,182.63Zm7.13,32.28c-3.12-3.12-.32-4.89.62-4.78s4,4.33,6.77,3.26,2.52-1.94.45-1.89-2.61-.74-4.09-2.22-.26-2.66,2.06-5,2.3-2.57,2.81-2.05-.31,1.15.43,1.9,1.48-.17,1.15-1.08a5.32,5.32,0,0,0-1.39-1.81l.84-.83c.69-.69,1.7-.47,3.47,1.3s2.86,5.15-2.81,10.82S103.79,218,100.67,214.91ZM55.48,255.77a3.26,3.26,0,1,1,4.61-4.61Zm-17,16.15a2.48,2.48,0,1,1,3.51,0A2.47,2.47,0,0,1,38.44,271.92Z" transform="translate(0)" fill="#212121"/></g></g></g><g id="frame"><rect width="300" height="300" fill="none"/></g></svg>