<svg xmlns="http://www.w3.org/2000/svg" viewBox="0 0 30 30"><path d="M2.1,27.77l2,2a.53.53,0,0,0,.85,0l.86-.87c.27-.26.18-.33-.07-.58s-.37-.34.47-1.19A9.12,9.12,0,0,1,9.07,25.3a3.27,3.27,0,0,0,1.18-.95c0-.06-.21-.25-.46-.55a2.08,2.08,0,0,1-.32-1.18c0-.37.54-.84.54-.84a3.38,3.38,0,0,0,.62.11,4.39,4.39,0,0,0,1-1,1.67,1.67,0,0,0,0-.61l.13.13h.26l-.27-.27,0-.05.31.32h.11l2.15-2.58-.1-.1-.17.17-.07-.07a5.28,5.28,0,0,1,.63-1.06c.43-.57,3.69-4,3.69-4s.22.26.41.07-.07-.41-.07-.41l.42-.43-1-1,9-9,.24.24L28,1.61l-.23-.23L28.12,1,27.58.47l-.37.37L26.85.61,26.25,0l-.52.52.32.32.06.4.11.12.21-.07.14.14L16.12,11.88,13.88,14h-.27L9.54,18.09l-.27-.27-.68-.11-.34.34.66.65-.24.24.13.13L8.49,20l.06.07h.09l.06.05s-.18.44-.37.81a2,2,0,0,0-.13,1.45,1.19,1.19,0,0,1-.13,1.25.6.6,0,0,1-.94,0,2.61,2.61,0,0,1-.44-.78,8.46,8.46,0,0,0-1.7,1c-.44.31-1.75,1.64-1.75,1.64v.38L2.11,26.94C1.76,27.3,1.85,27.52,2.1,27.77Zm16.47-15a.13.13,0,1,1,.18,0A.13.13,0,0,1,18.57,12.78Zm-6.5,7.29a.2.2,0,1,1,.28,0A.21.21,0,0,1,12.07,20.07ZM9.35,18.26a.24.24,0,0,1,0,.33.22.22,0,0,1-.32,0,.24.24,0,0,1,0-.33A.22.22,0,0,1,9.35,18.26Zm.72,3.23c-.32-.31,0-.49.06-.48s.4.44.68.33.25-.19,0-.19-.26-.07-.41-.22,0-.27.21-.5.23-.26.28-.2,0,.11,0,.18.15,0,.12-.1a.51.51,0,0,0-.14-.18L11,20c.07-.07.17,0,.35.13s.28.52-.28,1.09S10.38,21.8,10.07,21.49ZM5.55,25.58A.33.33,0,0,1,6,25.12ZM3.84,27.19a.25.25,0,0,1,.35-.35.25.25,0,1,1-.35.35Z" transform="translate(0 0)" fill="#212121"/><rect width="30" height="30" fill="none"/></svg>