<svg xmlns="http://www.w3.org/2000/svg" viewBox="0 0 30 30"><g id="rifles"><g id="vallgarda375"><path d="M27.09.3l-.3-.3-.66.66v.4l.17.17L25.24,2.47,17.69,10h-.38l-.75.75-.17-.16-.09.1V11l-.16.16v.39l-.69.59L14,13.55l-.05,0-1.06,1.06.2.19L11,16.82h-.19L9.54,18.11v.16l-.17.16v.09l-.08.09.21.21.09-.1h.1l.06.06L9.59,19l-.27.62-.37,1L8.8,21l-.14.13-.15.07-.34,0-.23,0-.23.18L4.8,24.2,2.21,26.72l0,.14,0,.25.68.79,1.33,1.23.9.75.23.12h.1l.13-.16,1.23-2.38s.22.12.3,0S7,27.15,7,27.15l1.61-2.94.24-.46.08-.09.11,0,.13.09.33-.07.56-.26.23-.22,0-.18-.21-.77,0-.71.15-.53.35-.59.3-.33L11,20l.15.12s.47.4,1.06-.18a.84.84,0,0,0,.14-1.14l-.08-.21V18.5L14.51,16l4-4.4,2-2.28V9.21l.6-.63.08-.25-.05-.23-.34-.34,1.52-1.52s.23.2.39,0-.06-.39-.06-.39L27.84.76V.53L27.61.3ZM7,27.39a.08.08,0,1,1,0-.11A.08.08,0,0,1,7,27.39Zm5.12-7.53c-.3.3-.58.52-.91.17a.27.27,0,0,1,0-.4.39.39,0,0,0,.12.36.35.35,0,0,0,.46.06c.13-.08-.18,0-.37-.16s.07-.57.23-.73.37-.32.58-.11S12.45,19.55,12.14,19.86Zm-.37-1.59a.19.19,0,0,1-.26,0,.2.2,0,0,1,0-.27.19.19,0,0,1,.26,0A.18.18,0,0,1,11.77,18.27Zm2.34-2.75a.18.18,0,0,1-.27,0,.19.19,0,1,1,.27,0ZM22.7,6.21a.1.1,0,1,1-.14-.14.1.1,0,0,1,.14.14Z" transform="translate(0 0)" fill="#212121"/></g></g><g id="frame"><rect width="30" height="30" fill="none"/></g></svg>