<!-- Copyright (c) 2022 - 2023 Jan Stehno -->
<svg xmlns="http://www.w3.org/2000/svg" viewBox="0 0 300 300"><title>vasquezcyclone45</title><g id="rifles"><g id="vasquezcyclone45"><path d="M139.5,124.26l3.15,3.15,9.73-9.73L154,119.3l54.08-54.08a7.55,7.55,0,0,1,2.7-1.76,10.52,10.52,0,0,1,3-.4L271.12,5.68V3.24L267.88,0h-2.21l-4.32,4.32-1.42-1.43-2.34,2.34-2.08-2.07-3.42,3.42v5.48l-1.35,1.35.6.69Z" transform="translate(0)" fill="#212121"/><path d="M222,74.9A50.27,50.27,0,0,0,214.51,67c-2.17-1.6-4.74.66-4.74.66l-55.85,55.84-1.72-1.72-9.53,9.53-5.54-5.54-13.77,13.77,7.52,7.51-4.27,4.27-7.51-7.52-8.29,8.29h-2.36L102,158.59H98.1l-1.56,1.56,2.7,2.7-4.37,4.38,7.84,7.83-2.12,2.12s-2.14,2-2.89,10S95.25,200.09,92.91,202s-10.38,2.68-10.38,2.68l-33.16,31.5s.57,6.27-5.25,15.06-14.94,14-15.17,17.23-.57,4.91,13.69,17.35,20.09,19.89,23.74,8.75C69,286.46,94.05,227,95.19,224.69s2.51-1.54,5.31,1.31,4.17,4.16,10.84.8,8.85-4.28,5-8.1-6-6.93-5.86-15,5.79-8.83,8-8,4.72,3.12,11.07-3.23,6.16-9.06,5-12.48-.56-6.11,2.58-9.25l8.09-8.08-2.54-2.54,24.77-26.39s5,.61,10.39-4.83A23.8,23.8,0,0,0,184.38,118l5.1-5.1h4.79v-4l17.1-17.1-1-1,11.53-11.53A3,3,0,0,0,222,74.9ZM128.57,188.65c-3.11,3.11-6.3,6.45-8.67,4.08a4.32,4.32,0,0,1-.94-5,6.63,6.63,0,0,0,2.22,2.83c1.4.79,5.25.08,3.71-.26a3.88,3.88,0,0,1-3.51-3c-.79-2.36,2.34-5.44,2.34-5.44,3.3-3.3,4.75-2,6.31-.46S131.68,185.54,128.57,188.65ZM135.18,164l-15.4,16-13.27,14.29a2.42,2.42,0,0,1-3.68.18c-2-1.77.09-4,.09-4l13.29-13.3L131.91,161s1.64-1.8,3.16-.24A2.32,2.32,0,0,1,135.18,164Zm14.76-29.39a3.11,3.11,0,1,1,3.11-3.11A3.11,3.11,0,0,1,149.94,134.59Z" transform="translate(0)" fill="#212121"/><polygon points="126.73 149.9 129.53 147.1 121.14 138.72 118.42 141.44 126.73 149.9" fill="#212121"/></g></g><g id="frame"><rect width="300" height="300" fill="none"/></g></svg>