<svg xmlns="http://www.w3.org/2000/svg" viewBox="0 0 30 30"><path d="M14,12.43l.32.31,1-1,.16.16,5.41-5.41a.66.66,0,0,1,.27-.17.82.82,0,0,1,.29,0L27.11.57V.32L26.79,0h-.22l-.43.43L26,.29l-.23.23-.21-.2-.34.34v.55l-.14.13.06.07Z" transform="translate(0 0)" fill="#212121"/><path d="M22.2,7.49a4.74,4.74,0,0,0-.75-.79c-.22-.16-.47.07-.47.07l-5.59,5.58-.17-.17-1,1-.56-.55L12.34,14l.75.75-.43.42-.75-.75-.83.83h-.23l-.65.65H9.81L9.65,16l.27.27-.43.43.78.79-.21.21s-.22.2-.29,1a2.23,2.23,0,0,1-.48,1.48,3,3,0,0,1-1,.27L4.94,23.62a2.63,2.63,0,0,1-.53,1.5c-.58.88-1.49,1.41-1.52,1.73s-.05.49,1.37,1.73,2,2,2.38.87c.26-.8,2.77-6.75,2.88-7s.25-.16.53.13.42.42,1.08.08.89-.43.51-.81a1.71,1.71,0,0,1-.59-1.5c0-.81.58-.88.8-.8s.47.31,1.11-.32.62-.91.49-1.25a.8.8,0,0,1,.26-.92l.81-.81L14.27,16l2.48-2.63a1.34,1.34,0,0,0,1-.49,2.34,2.34,0,0,0,.66-1.09l.51-.51h.48v-.41l1.71-1.71L21,9.07l1.16-1.15A.3.3,0,0,0,22.2,7.49ZM12.86,18.87c-.31.31-.63.64-.87.4a.42.42,0,0,1-.09-.5.64.64,0,0,0,.22.28c.14.08.52,0,.37,0a.4.4,0,0,1-.35-.3c-.08-.24.23-.55.23-.55.33-.33.48-.2.63-.05S13.17,18.55,12.86,18.87Zm.66-2.47L12,18l-1.33,1.42a.24.24,0,0,1-.37,0c-.2-.17,0-.39,0-.39l1.33-1.33,1.57-1.62s.17-.18.32,0A.24.24,0,0,1,13.52,16.4ZM15,13.46a.31.31,0,1,1,.32-.31A.31.31,0,0,1,15,13.46Z" transform="translate(0 0)" fill="#212121"/><polygon points="12.67 14.99 12.95 14.71 12.11 13.87 11.84 14.14 12.67 14.99" fill="#212121"/><rect width="30" height="30" fill="none"/></svg>