<!-- Copyright (c) 2022 Jan Stehno -->
<svg xmlns="http://www.w3.org/2000/svg" viewBox="0 0 300 300"><title>virant22lr</title><g id="rifles"><g id="virant22lr"><path d="M31,259.49l2.38-3.17s.82,3.49,3.72,4.3,5.35,2.82,4.21,4.36-2.89,2.45-6.23.44A9.67,9.67,0,0,1,31,259.49Z" transform="translate(0)" fill="#212121"/><polygon points="137.68 169.34 146.24 159.86 158.99 172.62 150.34 182.64 137.68 169.34" fill="#212121"/><path d="M27.88,262.16l1.75-3.11a9.73,9.73,0,0,0,2.25,5.4c3,3.16,5.64,4.06,8.33,3.46a4.38,4.38,0,0,0,3-4.25c-.11-1.65-1.8-2.93-2.71-3.37s-3-.88-4.13-2-1.88-5-1.88-5L58.9,230.91a12.55,12.55,0,0,0,1.62,1.85c1,1,2.52,2.88,6.82,6.69s8,7.25,8.11,8.16c.37,2.65-4.59,9.63-8.45,16.62s-9.24,18-10.61,19.06-1.75.78-11.92-4.74-13.54-6.5-15-9.38A19.53,19.53,0,0,1,27.88,262.16Z" transform="translate(0)" fill="#212121"/><path d="M152.41,151.46c8.13-9.09,74.5-76.27,74.8-78.52s-6.65-8.31-6.65-8.31l-72.87,71.46a13.86,13.86,0,0,1-2.49,5.62c-1.86,2.15-6.06,6.3-6.06,6.3s2.2,1.61,2.12,3-1.83,2.93-3.37,2.2a6.5,6.5,0,0,1-2.35-1.91l-36,36.95a38.08,38.08,0,0,0-8.36,13.34c-2.49,7.55-4,12.9-7.77,15.32s-14.44,5.5-17.59,8.43-5.87,4.84-2.2,8.21,10.48,9.75,12.09,11.59,2.13,3.66-.8,8.43S64.36,272.2,61.79,277.11s-4.69,9.75-7.77,8.5-20.86-11.32-23.23-12.83c-3.62-2.29-3.82-7.23-3.82-7.23s-7.25,8.7-8.17,11.6.15,5.46,6,7.47,18,8,22.66,11.73,7.18,5.28,9.45,1.29c1.93-3.39,19.43-32.92,22.29-41.13S85.47,242,93,239.8s17-5.36,19.21-7.41,1.76-1.83-2.2-7.11-5.65-16.05-3.23-20.67,3.3-6.16,7.26-4.77,6.45,3.67,13.49-3.37,6.3-7.84,5.28-12-.88-9.17.07-10.63S144.27,160.55,152.41,151.46ZM128,193.54c-4.68,4.67-6.82,6.45-10.08,5.64s-3.3-5.57-3.3-5.57a8.8,8.8,0,0,1,3.23,1.84c1.94,1.58,3.62,1.94,4.1,1.64s-1.32-.51-3-2.38-3.17-3.72,1.54-8.43c4-4.05,6.76-4,8.69-2.05S132.63,188.86,128,193.54Z" transform="translate(0)" fill="#212121"/><path d="M281.49,2.09,279.4,0h-2.17l-9.58,9.58L267,8.92,263.88,12l-.95-.95h-3.08L255.92,15l1.93,1.93-9,9,.73.73-77.73,77.73-.84-.83-20.23,20.22-1.57-1.57-1.08,1.08,1.48,1.48L146.39,128l.88.88-3.52,3.52-.95-1s-37.17,35.34-41,41-7.33,20-7.33,20c2.79-4.11,11.66-12.61,17-18.26s19.5-19.86,22.06-22.43,9.88-9.21,11.44-11.51a6.42,6.42,0,0,0,1.19-4.41L220.63,63l1.74,1.73,50-50-.74-.74,9.84-9.84ZM133.23,148.63a2.27,2.27,0,1,1,2.28-2.27A2.27,2.27,0,0,1,133.23,148.63Z" transform="translate(0)" fill="#212121"/></g></g><g id="frame"><rect width="300" height="300" fill="none"/></g></svg>