<svg xmlns="http://www.w3.org/2000/svg" viewBox="0 0 30 30"><path d="M3.1,26l.24-.32a.61.61,0,0,0,.37.43c.29.08.54.28.42.44s-.29.24-.62,0A1,1,0,0,1,3.1,26Z" transform="translate(0 0)" fill="#212121"/><polygon points="13.77 16.93 14.62 15.99 15.9 17.26 15.03 18.26 13.77 16.93" fill="#212121"/><path d="M2.79,26.22,3,25.91a.94.94,0,0,0,.23.53.84.84,0,0,0,.83.35.44.44,0,0,0,.3-.42A.46.46,0,0,0,4.05,26a1.54,1.54,0,0,1-.41-.2,1.35,1.35,0,0,1-.19-.51l2.44-2.23a1.4,1.4,0,0,0,.16.19c.11.09.25.28.68.67a4.87,4.87,0,0,1,.82.81,6.21,6.21,0,0,1-.85,1.66c-.39.7-.92,1.8-1.06,1.91s-.18.08-1.19-.47-1.36-.65-1.5-.94A1.9,1.9,0,0,1,2.79,26.22Z" transform="translate(0 0)" fill="#212121"/><path d="M15.24,15.15c.81-.91,7.45-7.63,7.48-7.86s-.66-.83-.66-.83l-7.29,7.15a1.29,1.29,0,0,1-.25.56c-.19.22-.61.63-.61.63s.22.16.22.3a.26.26,0,0,1-.34.22.7.7,0,0,1-.24-.19L10,18.83a3.88,3.88,0,0,0-.83,1.33c-.25.76-.4,1.29-.78,1.53a15.91,15.91,0,0,0-1.76.85c-.31.29-.58.48-.22.82s1,1,1.21,1.15.21.37-.08.85-1,1.86-1.31,2.35-.47,1-.78.85-2.08-1.13-2.32-1.28a1,1,0,0,1-.38-.72,7.3,7.3,0,0,0-.82,1.15c-.09.29,0,.55.6.75a10.11,10.11,0,0,1,2.26,1.18c.46.37.72.52,1,.12s1.94-3.29,2.23-4.11S8.55,24.2,9.3,24a8.15,8.15,0,0,0,1.92-.74c.22-.21.17-.18-.22-.71a2.47,2.47,0,0,1-.33-2.07c.25-.46.33-.62.73-.48s.64.37,1.35-.33.63-.79.53-1.21a1.85,1.85,0,0,1,0-1.06C13.38,17.24,14.43,16.05,15.24,15.15Zm-2.44,4.2c-.47.47-.69.65-1,.57s-.33-.56-.33-.56a.87.87,0,0,1,.32.19c.19.15.36.19.41.16s-.13-.05-.3-.24-.31-.37.16-.84.67-.4.87-.21S13.26,18.89,12.8,19.35Z" transform="translate(0 0)" fill="#212121"/><path d="M28.15.21,27.94,0h-.22l-1,1L26.7.89l-.31.31-.1-.09H26l-.4.39.19.19-.89.9.07.08-7.77,7.77-.09-.08-2,2-.16-.16-.11.11.15.15-.32.32.09.09-.35.35-.1-.1s-3.72,3.54-4.1,4.1a8.87,8.87,0,0,0-.73,2,23.44,23.44,0,0,1,1.7-1.82c.54-.57,1.95-2,2.21-2.24s1-.93,1.14-1.16a.63.63,0,0,0,.12-.44L22.06,6.3l.18.17,5-5-.08-.07,1-1ZM13.32,14.86a.22.22,0,0,1-.22-.22.23.23,0,1,1,.22.22Z" transform="translate(0 0)" fill="#212121"/><rect width="30" height="30" fill="none"/></svg>