<!-- Copyright (c) 2023 Jan Stehno -->
<svg xmlns="http://www.w3.org/2000/svg" viewBox="0 0 300 300">
    <title>whitlockmodel86</title>
    <g id="rifles">
        <g id="whitlockmodel86">
            <path
                d="M128.25,193.21c4.44-4.43,2.95-10.77,2.15-12.51s-4.55-4.34-4.7-6.15a28.27,28.27,0,0,1-.07-3.22L114,184.14a5.38,5.38,0,0,1-4.27,1.59c-2.75-.18-9.91-9.39-9.91-9.39s1.79,8-1.94,12.44c-3,3.57-5,6.17-9.13,15s-3.9,11.54-6.36,12.41S72,216.4,72,216.4s-45.55,52.48-48.64,55.86-5.62,6.46,3.28,13.84a88.32,88.32,0,0,0,21.41,13.09c3.4,1.37,5,1.46,7.57-3.45,2.79-5.33,29.18-55.41,30.43-58.69s2.34-4.39,3.31-3.33,2.36,1.91,7-2.24,6.61-5.62,5.84-9.47,2.36-16.11,6.32-24.21,5.45-9.46,5.45-9.46a6.86,6.86,0,0,0,4.48,3.91c3.18.68,6.46-.58,4.63-.67s-5.83-1.55-6.41-4.1-.34-4.25,2.46-7,3-2.95,6.41.48,3.33,8,1,10.32-5.49,4.1-8.39,3.33a7.63,7.63,0,0,1-4.29-3.19,49.61,49.61,0,0,0-7.23,14.35c-2.46,8.17-3.77,11.79-2.46,14.68s5.49,4.2,8,2.1,3.69-5,5-10,4.19-9.91,4.41-11.36a15.55,15.55,0,0,0-.22-3.83S123.81,197.65,128.25,193.21Zm-13.52,20c-1.83,6.22-3.47,8.52-5.84,7.86-5.49-1.54-2.74-7.28-1-13.41s4.49-11.67,6.85-12.05,5,2.46,5,4.48S116.56,207,114.73,213.23Z"
                transform="translate(0)" fill="#212121" />
            <path
                d="M135.23,139.59c-3.54-2.19-2.85-2.8-11.48,5.64S113.52,156.08,107,163.07s-7.43,7.82-7.43,8.88c0,1.74,8.53,12.25,11.19,11.91S123,171.32,127.46,166.4s15-13.36,14.9-16.68S137.88,141.23,135.23,139.59Zm-3.78,17.56-7.09,7.31s-1.26,1.95-3.69-.32a2.55,2.55,0,0,1,0-4.13l6.84-7a2.88,2.88,0,0,1,3.94.54C133.33,155.67,131.45,157.15,131.45,157.15Z"
                transform="translate(0)" fill="#212121" />
            <path
                d="M135.25,137.55s5.79,3.9,8.15,9c1.23,2.68,1,3.66,1,3.66L203,88.71a4,4,0,0,0,1.45-3.42c-.29-2.08-6.64-8.17-8.09-8.27S135.25,137.55,135.25,137.55Z"
                transform="translate(0)" fill="#212121" />
            <path
                d="M96.48,187.72a10.31,10.31,0,0,0,1.85-6.63,65.91,65.91,0,0,0-.92-9.12,5.38,5.38,0,0,0-4.45.46c-2,1.35-1.76,2.46.26,1.81s3.59.38,3.76,1.47.51,2.41-.5,3.4-1.26,3.25-.87,5.35A17,17,0,0,0,96.48,187.72Z"
                transform="translate(0)" fill="#212121" />
            <path
                d="M132.22,136.17l1.95.72s60.91-61.36,61.88-61.45,1.8.31,3.26,1.4a23.94,23.94,0,0,1,2.77,2.52L275.22,6.22V2.39L272.84,0h-3.69l-3.58,3.58-1.41-1.41-4.92,4.92V9.26L154.89,113.61l-.53-.53L150.48,117l-1-1-1.16,1.16,1.54,1.54Z"
                transform="translate(0)" fill="#212121" />
            <path
                d="M203.1,80.51a12.36,12.36,0,0,1,2.21,3,7.88,7.88,0,0,1,.33,3l73.83-73.82V9.24l-2.65-2.66Z"
                transform="translate(0)" fill="#212121" />
        </g>
    </g>
    <g id="frame">
        <rect width="300" height="300" fill="none" />
    </g>
</svg>