<svg xmlns="http://www.w3.org/2000/svg" viewBox="0 0 30 30"><path d="M12.83,19.32A1.19,1.19,0,0,0,13,18.07c-.08-.17-.46-.43-.47-.61s0-.33,0-.33L11.4,18.41a.52.52,0,0,1-.42.16c-.28,0-1-.94-1-.94a1.7,1.7,0,0,1-.19,1.25,5.44,5.44,0,0,0-.91,1.5c-.42.89-.39,1.16-.64,1.24a4.11,4.11,0,0,1-1,0s-4.55,5.25-4.86,5.59-.56.64.33,1.38a8.88,8.88,0,0,0,2.14,1.31c.34.14.5.14.76-.35s2.91-5.54,3-5.86.23-.44.33-.34.24.19.7-.22.66-.56.58-.95a5.94,5.94,0,0,1,.64-2.42,4.06,4.06,0,0,1,.54-1,.7.7,0,0,0,.45.4c.32.06.65-.06.46-.07s-.58-.16-.64-.41a.65.65,0,0,1,.25-.71c.28-.28.3-.29.64.05a.74.74,0,0,1,.1,1,.94.94,0,0,1-.84.34.77.77,0,0,1-.43-.32,4.87,4.87,0,0,0-.72,1.43c-.25.82-.38,1.18-.25,1.47a.54.54,0,0,0,.8.21,1.83,1.83,0,0,0,.5-1c.13-.5.42-1,.44-1.13a1.69,1.69,0,0,0,0-.39S12.38,19.77,12.83,19.32Zm-1.36,2c-.18.62-.34.86-.58.79-.55-.16-.28-.73-.1-1.34s.45-1.17.68-1.21A.51.51,0,0,1,12,20C12,20.21,11.66,20.7,11.47,21.32Z" transform="translate(0 0)" fill="#212121"/><path d="M13.52,14c-.35-.22-.28-.28-1.15.56s-1,1.09-1.67,1.79-.75.78-.75.88.86,1.23,1.12,1.2,1.23-1.26,1.68-1.75,1.5-1.34,1.49-1.67A1.75,1.75,0,0,0,13.52,14Zm-.37,1.76-.71.73s-.13.19-.37,0a.25.25,0,0,1,0-.41l.68-.7a.3.3,0,0,1,.4.06A.24.24,0,0,1,13.15,15.72Z" transform="translate(0 0)" fill="#212121"/><path d="M13.52,13.76a2.58,2.58,0,0,1,.82.9.72.72,0,0,1,.1.36L20.3,8.87a.39.39,0,0,0,.14-.34,2,2,0,0,0-.81-.83C19.49,7.69,13.52,13.76,13.52,13.76Z" transform="translate(0 0)" fill="#212121"/><path d="M9.65,18.77a1,1,0,0,0,.18-.66,5.62,5.62,0,0,0-.09-.91.54.54,0,0,0-.44,0c-.21.14-.18.25,0,.18a.28.28,0,0,1,.38.15.35.35,0,0,1,0,.34.66.66,0,0,0-.09.54A1.55,1.55,0,0,0,9.65,18.77Z" transform="translate(0 0)" fill="#212121"/><path d="M13.22,13.62l.2.07s6.09-6.14,6.18-6.15a.56.56,0,0,1,.33.14,2.92,2.92,0,0,1,.28.26L27.52.62V.24L27.28,0h-.37l-.35.36L26.42.22l-.5.49V.93L15.49,11.36l-.05,0-.39.39-.1-.1-.12.11.16.16Z" transform="translate(0 0)" fill="#212121"/><path d="M20.31,8.05a1.23,1.23,0,0,1,.22.3.68.68,0,0,1,0,.29L28,1.26V.92L27.68.66Z" transform="translate(0 0)" fill="#212121"/><rect width="30" height="30" fill="none"/></svg>