<svg xmlns="http://www.w3.org/2000/svg" viewBox="0 0 30 30"><path d="M6.4,22.63a.1.1,0,0,0-.15-.09,2.26,2.26,0,0,0-.27.2,29,29,0,0,0-2.22,2.11,1.48,1.48,0,0,0-.21.55.09.09,0,0,0,0,.05,1,1,0,0,0,.22.36c.15.13.33.23.48.17a14.39,14.39,0,0,0,1.41-1.43c.59-.65.94-.94,1-1.17s-.16-.48-.22-.61A.27.27,0,0,1,6.4,22.63Z" transform="translate(0 0)" fill="#212121"/><path d="M2.75,28.29A16.33,16.33,0,0,1,4.6,29.74c.37.33.46.3.6.18a4.14,4.14,0,0,0,.42-.87c.18-.37,2.6-4.68,2.78-4.95s.23-.33.39-.33S9,24,9.16,24a4.72,4.72,0,0,0,1.37-.71c.55-.35.62-.5.52-.67s-.46-.62-.66-1-.19-.87,0-1.05.35-.09.53.1.4.24.75.07a1.5,1.5,0,0,0,.64-1.09,1.07,1.07,0,0,0-.23-.7,2.09,2.09,0,0,0,.46.35c.19.08.31.07.42-.05s.79-.89,1.2-1.42.42-.66.29-.79L14,16.54l.75-.79.18,0s3.92-4.17,4.89-5.24,1-1.34.77-1.57-.35-.14-.35-.14L27.31,1.7l.2.08.49-.5-.08-.19,0-.12L27.51.58l-.12,0L26.83,0l-.39.39.33.33V.93l.1.1-13.21,13h-.15l-2.77,2.78-.09-.09-.37.37-.33.13H9.81l-.07-.07-.39.39.13.13c.13.13.19.16.1.33S9,18.85,9,19a1.83,1.83,0,0,0,.13.48L9,19.6l.09.09a2.18,2.18,0,0,1-.07.39,3.54,3.54,0,0,1-.65,1.43,1.1,1.1,0,0,1-.92.25c-.19,0-.66.57-.8.73s-.12.22,0,.39a.65.65,0,0,1,.13.55,5.91,5.91,0,0,1-1,1.2A14.37,14.37,0,0,1,4.39,26a.5.5,0,0,1-.56,0,1,1,0,0,1-.29-.34l-.75.75A2.37,2.37,0,0,0,2,27.51C1.94,27.85,2.23,28,2.75,28.29Zm16.47-18a.17.17,0,1,1,.24-.24.17.17,0,0,1-.24.24ZM10,17.53a.17.17,0,0,1,0,.21.16.16,0,0,1-.22,0,.14.14,0,0,1,0-.21A.16.16,0,0,1,10,17.53Zm1,2.92a.54.54,0,0,1-.12-.49l.12-.12s0,0,0,.17a.6.6,0,0,0,.36.37c.16.06.3-.05.21-.07a.59.59,0,0,1-.3-.2.42.42,0,0,1,.07-.64c.22-.22.29-.22.4-.21a.41.41,0,0,1,.29.32,1,1,0,0,1-.31.84C11.44,20.73,11.22,20.65,11,20.45ZM5.79,25.21a.17.17,0,0,1,0-.27.14.14,0,0,1,.19,0,.16.16,0,0,1,0,.27A.17.17,0,0,1,5.79,25.21Zm-.74,1.5a.14.14,0,0,1,0-.21.15.15,0,0,1,.21.21A.15.15,0,0,1,5.05,26.71Z" transform="translate(0 0)" fill="#212121"/><rect width="30" height="30" fill="none"/></svg>