<!-- Copyright (c) 2022 - 2023 Jan Stehno -->
<svg xmlns="http://www.w3.org/2000/svg" viewBox="0 0 300 300"><title>zaganvarminter22250</title><g id="rifles"><g id="zaganvarminter22250"><g id="weapon"><path d="M64,226.25a1,1,0,0,0-1.51-.89,23.49,23.49,0,0,0-2.69,2.07c-4.17,3.63-20.34,18.11-22.22,21.06A14.58,14.58,0,0,0,35.49,254a.89.89,0,0,0,.06.51,10.9,10.9,0,0,0,2.28,3.58c1.49,1.36,3.28,2.37,4.79,1.69s8.14-7.84,14.08-14.29,9.4-9.35,9.83-11.64-1.66-4.82-2.19-6.11A2.93,2.93,0,0,1,64,226.25Z" transform="translate(0)" fill="#212121"/><path d="M27.55,282.89c5.23,3.19,14.8,11.21,18.46,14.49s4.58,3,6,1.8,2.36-5,4.19-8.71S82.18,243.68,84,241s2.23-3.28,3.84-3.22,2.35,1.86,3.75,2.32,8.2-3.56,13.69-7.06,6.16-5,5.23-6.72-4.68-6.16-6.63-10.34-2-8.77.16-10.5,3.5-1,5.32,1,4,2.42,7.5.68,6-7.09,6.41-10.87-2.32-7-2.32-7a20.2,20.2,0,0,0,4.58,3.47c2,.84,3.13.71,4.18-.47s8-8.88,12.08-14.18,4.18-6.66,2.88-8L140,165.38l7.47-7.89,1.76-.34s39.21-41.75,48.91-52.44,10-13.44,7.74-15.67-3.47-1.42-3.47-1.42L273.05,17l2,.78,4.95-5-.87-1.92L279,9.68l-3.87-3.87-1.22-.2L268.25,0l-3.88,3.89,3.36,3.36v2l1,1L136.63,140.73l-1.51.1-27.75,27.75-.87-.86-3.65,3.65-3.33,1.32H98.06l-.68-.68-3.93,3.92,1.3,1.31c1.31,1.3,2,1.55,1.09,3.29s-5.67,7.94-5.81,9.32,1.26,4.81,1.26,4.81L90,196l.93.93a28.27,28.27,0,0,1-.7,3.88c-.66,3-3.12,11-6.5,14.35s-7.23,2.4-9.19,2.5-6.59,5.68-8,7.25-1.18,2.21,0,3.88a6.87,6.87,0,0,1,1.24,5.53c-.5,1.9-4.3,5.87-10,12S45.66,259.37,43.92,260.4a5,5,0,0,1-5.64-.27,9.74,9.74,0,0,1-2.87-3.44l-7.55,7.55c-4.43,4.43-7.06,7.37-7.78,10.81S22.31,279.7,27.55,282.89ZM192.22,103a1.71,1.71,0,0,1,0-2.42,1.71,1.71,0,1,1,2.42,2.42A1.71,1.71,0,0,1,192.22,103Zm-92,72.24a1.51,1.51,0,1,1-2.14,0A1.51,1.51,0,0,1,100.25,175.28Zm9.9,29.22a5.36,5.36,0,0,1-1.21-4.91l1.2-1.19a17.28,17.28,0,0,0,.17,1.72c.19,1.49,2.11,3,3.64,3.64s3-.48,2.08-.66-1.53-.46-3.06-2-1.64-4.06.72-6.42c2.19-2.19,2.9-2.17,4-2.07s2.62,1.75,2.89,3.19a10.21,10.21,0,0,1-3.07,8.36C114.44,207.27,112.16,206.51,110.15,204.5ZM57.88,252.06a1.67,1.67,0,1,1,1.95,0A1.68,1.68,0,0,1,57.88,252.06Zm-7.4,15.05a1.47,1.47,0,1,1,2.08,0A1.48,1.48,0,0,1,50.48,267.11Z" transform="translate(0)" fill="#212121"/></g></g></g><g id="frame"><rect width="300" height="300" fill="none"/></g></svg>