<svg xmlns="http://www.w3.org/2000/svg" viewBox="0 0 30 30"><path d="M26.88,1.39l.06.07-.63.63-.73-.72-.76.76L24.68,2h-.49l-.29.29L23.6,2c-.19-.18-.36-.3-.55-.11s-.1.29-.1.29l1,1L11.05,16l-.18-.18h-.5l-.27.26-.29-.29c-.2-.2-.56-.27-.69-.14s.14.49.14.49a.82.82,0,0,1,.45.26,1.58,1.58,0,0,1,.33.5L8.93,18v.24l-.25.25.41.41L9,19,9,19.1l-.59.59,0,0S1,26.82,1,27.11A14.41,14.41,0,0,0,4.65,30C5,30,7.1,27.64,7.1,27.64V26.1l-.21-.21a.77.77,0,0,1-.12-1c.3-.6,2.72-3.3,3-3.79s.06-.49,0-.5-.23-.2-.23-.2l.4-.4.33.33c.33.33.42.44.74.11s.59-.45,1-.06.76,3.14.86,3.64.14.46.39.26,1.27-.48,1.57-.87.27-.44,0-.46-.32-.54-.51-1.12.25-.59.13-.71-.29-.11-.43-.47.37-.75,1-1.4.47-1,.15-1.35a.82.82,0,0,0-.73-.22l.32-.32.87.87-.1.09.14.14.09-.09.48.47,1.47-2.27-.43-.43.11-.1-.15-.15-.1.11L16,14.91v-.6h.6l.63-.63V13l10-10-.34-.34L27.57,2l.05.05L29,.7,28.27,0ZM15,18c.26.27.24.62-.25,1.1s-.91.56-1.15.32a.66.66,0,0,1-.19-.52l.19.19a.58.58,0,0,0,.81.12c.36-.29-.22-.07-.44-.3s-.28-.4.09-.77S14.69,17.75,15,18Zm-.87-3.07-1.4,1.4L12.35,16l1.39-1.39Zm.81-.82-.63.64-.33-.34.63-.63Zm3.45-2.54-.69.68v-.38l.69-.68Zm-.4-.39-.68.68v-.38l.68-.69Zm-.39-.39-.68.68V11.1l.68-.69Zm1.93-.36-.69.68v-.38l.69-.68Zm-.4-.39-.68.68v-.38l.68-.68Zm-.39-.39-.69.68V10l.69-.69Zm1.93-.36-.69.68V9.6l.69-.68Zm-.4-.39-.68.68V9.21l.68-.68Zm-.39-.39-.69.68V8.82l.69-.69Zm1.92-.35-.69.68V8.47l.69-.68Zm-.39-.39-.69.68V8.08l.69-.69Zm-.4-.4-.68.68V7.68L21,7Zm1.88-.29-.69.68V7.39l.69-.69Zm-.4-.4-.68.68V7l.68-.68Zm-.39-.39L21.36,7V6.6l.69-.69ZM24,6l-.69.69V6.26L24,5.57Zm-.4-.39-.68.68V5.86l.68-.68Zm-.39-.39-.69.68V5.47l.69-.69Zm1.87-.29-.69.68V5.18l.69-.69Zm-.4-.4L24,5.16V4.78l.68-.68Zm-.39-.39-.69.68V4.39l.69-.69Zm1.89-.32-.68.68V4.07l.68-.68Zm-.39-.39-.69.68V3.68L25.76,3Zm-.4-.4-.68.68V3.28l.68-.68Z" transform="translate(0 0)" fill="#212121"/><rect width="30" height="30" fill="none"/></svg>