<!-- Copyright (c) 2023 Jan Stehno -->
<svg xmlns="http://www.w3.org/2000/svg" viewBox="0 0 300 300">
    <title>zarza10308</title>
    <g id="rifles">
        <g id="zarza10308">
            <g id="weapon">
                <path
                    d="M271.14,11.39l.61.6-34,34-6.89-6.89-8.22,8.22-1.85-1.84H217l-3.26,3.26-4.72-4.71a2.53,2.53,0,0,0-2.88.36,2.61,2.61,0,0,0-.35,2.92l7.8,7.81L96.36,172.41l-1.74-1.74H90.1l-2.19,2.19-2.57-2.57c-2-2-5.66-2.33-6.66-1.33s.71,4.43.71,4.43l2.1,2.09.76-.76,3.14,3.14-.76.76,2.43,2.43L76,192.14l1.23,1.23L74.63,196l3.24,3.23v1.71l-18,18-1.43-1.43s-47.77,44.62-47.71,49.61c.07,5.83,22.49,24.35,26.72,28.58s4.19,6.48,9.14,1.53,3.29-4.24,2.62-6.43,5.09-22.46,5.09-22.46H59.5v-13l2.71-2.71,1.86,1.86L67.54,251l-1.85-1.85,3.76-3.76L68.07,244s2.38-2.29,2.66-4.29S69,234.59,69,234.59l2.09-2.09L72.85,222l12.78-12.78,6.64,6.64,3.43-3.43c2.42-2.43,5.14-3.43,8.56,0s6.93,37.62,8.71,38,5.14-3.71,13.07-6.5,5.42-7,3.38-7.33-6.14-10-3.81-14.09-.62-3.37-2-4.18-3.33-5.71-.24-8.81,3.71-2.09,8.38-6.76,5.09-7.09,5.09-7.09l.67.67L139,194.8l8.09,8.09,14.54-21.06-7.49-7.49,1.28-1.29L153.31,171l-.81.81-9.62-9.62v-4.66L246.12,54.26l-3-3L277,17.42l.81.81,11.49-11.5L282.53,0ZM46.83,285.6l-1.07,1.07L35.44,276.36l1.07-1.08Zm6.28-29.06L38.33,271.32l-1.18-1.18L51.9,255.33Zm77.14-54.93c-5.36,5.35-8.57,5.35-11.17,2.75a5.43,5.43,0,0,1-1.11-5.89,7.46,7.46,0,0,0,1.82,3.1c1.39,1.4,4.35,2.79,6.92.57s-2.82-.6-4.49-2.28-3-3.5.89-7.39,6.32-4.75,9.49-1.57C135.64,193.93,135.6,196.25,130.25,201.61Zm-6.78-37.84-12,12-3-3,12-12Zm8.47-8.18-5.76,5.75L123,158.16l5.81-5.72Zm77.8-87.3,5.93-5.93,1,1-5.92,5.92Zm13.78-5.07,1,1-5.93,5.93-1-1Zm-8.39,8.39,1,1-5.93,5.93-1-1Zm-13.78,5.06,5.93-5.92,1,1-5.92,5.93Zm6.14,2.57,1,1L202.6,86.2l-1-1Zm-13.77,5.07,5.92-5.92,1,1-5.93,5.93ZM200,86.74l1,1-5.92,5.92-1-1Zm-13.78,5.07,5.92-5.93,1,1-5.93,5.92Zm6.25,2.46,1,1-5.92,5.92-1-1Zm-13.78,5.07,5.92-5.92,1,1-5.93,5.93Zm6,2.71,1,1L179.79,109l-1-1Zm-13.77,5.07,5.92-5.92,1,1-5.93,5.93Zm6,2.68,1,1-5.92,5.93-1-1Zm-13.78,5.07,5.93-5.93,1,1-5.93,5.92Zm6.1,2.6,1,1-5.93,5.92-1-1Zm-13.77,5.07,5.92-5.92,1,1-5.93,5.93Zm5.56,3.14,1,1-5.93,5.92-1-1Zm-13.77,5.07,5.92-5.92,1,1-5.93,5.93Zm15.27,3.43-5.92,5.93-1-1,5.93-5.93Zm8.21-8.21-5.92,5.93-1-1,5.93-5.93Zm7.68-7.67-5.93,5.92-1-1,5.92-5.93Zm7.74-7.75-5.92,5.92-1-1,5.93-5.93Zm7.79-7.78L188,108.69l-1-1,5.93-5.93Zm7.53-7.53-5.93,5.92-1-1,5.92-5.93Zm7.49-7.5-5.92,5.93-1-1L208,86.7Zm7.64-7.64L210.71,86l-1-1,5.93-5.92ZM225,71.71l-5.93,5.93-1-1L224,70.68Zm7.21-7.21-5.92,5.93-1-1,5.93-5.92Zm-8.32-8.32L218,62.11l-1-1,5.93-5.93Z"
                    transform="translate(0)" fill="#212121" />
            </g>
        </g>
    </g>
    <g id="frame">
        <rect width="300" height="300" fill="none" />
    </g>
</svg>