<!-- Copyright (c) 2022 - 2023 Jan Stehno -->
<svg xmlns="http://www.w3.org/2000/svg" viewBox="0 0 300 300"><title>zarza15223</title><g id="rifles"><g id="zarza15223"><g id="weapon"><path d="M278.37,1.78l.37.37L272,8.87l-.61-.61-5.91,5.92.56.56L234.79,46,221.37,32.59c-3-3-4.62-3.54-6.37-1.79a4.19,4.19,0,0,0-1.25,3.76l2.83,21.07,1.89,1.9-3-.21L136,134.2l1.29,1.29-5.73,3.62,4.58,4.58-1.1,1.1-9-9a6.46,6.46,0,0,0-5.11-2.63c-3.72-.28-5.29,1.19-5.29,1.19l-38.44,33v4.29l2.94,2.93,2.75,10.32L79,188.77l1.67,1.67-2.6,2.6,3.26,3.27s-68.88,67-68.86,70.39c0,4.05,31.11,33.79,33.32,33.29s5.73-10.59,11.74-22.18,33.2-61.18,39.16-67.14,9-4.56,11.75-1.8,5.73,35.42,7.91,36.38,15-6.08,17.28-9.26.36-2.72-1.29-3.65S128,222.69,128,219.88s2.34-3.58,1.05-4.87a2.48,2.48,0,0,0-2.81-.52L125,209l9.59-9.59c6.44-6.44,7.58-8.92,7.58-8.92l8,8,12.39-20.88-6.23-6.24,1.64-1.65-2-2-1,1-9.21-9.2V155.1l-3.29-3.3,1-1,4.55,4.55,3.34-5.77,1.24,1.24,77.09-79.66-.62-.62,2-2L238.4,76l2-2-6-6-2.81-5.49,6.1-6.11L242,60.69a26.36,26.36,0,0,0,2.62-2.62c1.58-1.77,3.82-4.3,1.86-6.25s-5,.86-5,.86l31.1-31.11.62.62L279,16.42l-.62-.62,7-7,.38.38,1.83-1.83L280.15,0ZM132.75,198.06c-6,6-8.48,4.69-11.06,2.11a3.93,3.93,0,0,1-.75-5.11s1.58,3.72,4.69,4.11,6.94-2.14,3.4-2.11-8.16-2.72-2.47-8.41c4.08-4.07,7.37-3,9-1.36S138.76,192.05,132.75,198.06Zm1.47-47.12v2.82l-19.47,19.46L111,169.5,130.35,150h2.89Zm-9.56-8L98.15,169.41l-4.36-.5v-8.63L118,136.12a4.34,4.34,0,0,1,5.81.59C125.88,138.82,125.88,141.68,124.66,142.9ZM228.31,45.76l-8.55,8.55-2.33-13.92,1.79-1.79,3,3,1-1Z" transform="translate(0)" fill="#212121"/></g></g></g><g id="frame"><rect width="300" height="300" fill="none"/></g></svg>