<svg xmlns="http://www.w3.org/2000/svg" viewBox="0 0 30 30"><path d="M27.84.18l0,0L27.2.89,27.14.83l-.59.59.06.05L23.48,4.6,22.14,3.26c-.31-.3-.46-.35-.64-.18a.42.42,0,0,0-.13.38l.29,2.1.19.19-.3,0-8,7.69.13.13-.57.36.46.46-.11.11-.9-.9a.63.63,0,0,0-.51-.26.71.71,0,0,0-.53.11l-3.85,3.3v.43l.3.29.27,1-.39.4.16.16-.26.26.33.33s-6.89,6.7-6.88,7S4.36,30.05,4.58,30s.57-1.06,1.17-2.22a69.91,69.91,0,0,1,3.92-6.71c.59-.6.9-.46,1.17-.18s.57,3.54.79,3.64a3.61,3.61,0,0,0,1.73-.93c.23-.32,0-.27-.13-.37A2.72,2.72,0,0,1,12.8,22c0-.28.24-.36.11-.49a.26.26,0,0,0-.29-.05l-.12-.55,1-1a3.91,3.91,0,0,0,.75-.89l.8.8,1.24-2.09-.62-.63.16-.16-.2-.2-.1.09-.92-.92v-.43l-.33-.33.1-.1.46.45.33-.57.12.12,7.71-8-.06-.06.2-.19.74.74.2-.2-.6-.6-.28-.54.61-.62.43.43s.1-.09.26-.26.38-.43.19-.63-.5.09-.5.09l3.11-3.11.06.06.58-.58-.06-.06.69-.7,0,0,.18-.18L28,0ZM13.27,19.81c-.6.6-.84.47-1.1.21a.39.39,0,0,1-.08-.51s.16.37.47.41.7-.22.34-.21-.81-.28-.24-.84c.4-.41.73-.31.9-.14S13.88,19.21,13.27,19.81Zm.15-4.72v.29l-1.94,1.94L11.1,17,13,15h.28Zm-.95-.8L9.82,16.94l-.44-.05V16l2.42-2.42a.44.44,0,0,1,.58.06A.47.47,0,0,1,12.47,14.29ZM22.83,4.58,22,5.43,21.74,4l.18-.18.31.3.09-.09Z" transform="translate(0 0)" fill="#212121"/><rect width="30" height="30" fill="none"/></svg>