<svg xmlns="http://www.w3.org/2000/svg" viewBox="0 0 30 30"><path d="M27.11,1.14l.06.06-3.4,3.4-.69-.69-.82.82-.18-.18H21.7l-.32.33-.47-.48a.27.27,0,0,0-.29,0,.25.25,0,0,0,0,.29l.78.78L9.64,17.24l-.18-.17H9l-.22.22L8.53,17a.59.59,0,0,0-.66-.13c-.1.1.07.44.07.44l.21.21.07-.08.32.32-.08.07.25.24L7.6,19.21l.12.13-.26.25.33.33v.17L6,21.89l-.14-.14s-4.78,4.46-4.78,5,2.25,2.43,2.68,2.86.42.64.91.15.33-.43.26-.64a16.51,16.51,0,0,1,.51-2.25H6v-1.3l.27-.27.19.19.34-.35-.18-.18.37-.38-.13-.14A1,1,0,0,0,7.07,24a1,1,0,0,0-.17-.51l.21-.21.17-1.05,1.28-1.28.67.66.34-.34a.53.53,0,0,1,.86,0c.34.34.69,3.76.87,3.8s.51-.37,1.3-.65.55-.7.34-.74a1.45,1.45,0,0,1-.38-1.4c.23-.41-.06-.34-.2-.42a.64.64,0,0,1,0-.88c.31-.31.37-.21.83-.68s.51-.71.51-.71l.07.07.15-.15.81.81,1.45-2.11-.75-.75.13-.12-.21-.21-.08.08-1-1v-.47L24.61,5.43l-.3-.3L27.7,1.74l.08.08L28.93.67,28.25,0ZM4.68,28.56l-.1.11-1-1,.11-.11Zm.63-2.91L3.83,27.13,3.72,27l1.47-1.48ZM13,20.16c-.53.54-.85.54-1.11.28a.55.55,0,0,1-.11-.59.72.72,0,0,0,.18.31.49.49,0,0,0,.69.05c.26-.22-.28-.06-.45-.22s-.3-.35.09-.74.63-.48.95-.16S13.56,19.63,13,20.16Zm-.67-3.78-1.2,1.2-.3-.3L12,16.07Zm.84-.82-.57.57-.32-.31.58-.58ZM21,6.83l.6-.59.1.1-.59.59Zm1.38-.51.11.11-.6.59-.1-.11Zm-.84.84.11.1-.6.6-.1-.11Zm-1.37.51.59-.6.1.11-.59.59Zm.61.25.1.11-.59.59-.1-.1Zm-1.38.51L20,7.84l.11.1-.59.59Zm.63.24.1.11-.59.59-.1-.1Zm-1.38.51.59-.59.11.1-.59.59Zm.63.25.1.1-.59.59-.11-.1Zm-1.38.5.59-.59.1.11L18,10Zm.6.28.1.1L18,10.9l-.1-.1Zm-1.38.5.59-.59.11.1-.6.6Zm.6.27.11.1-.6.6-.1-.11Zm-1.37.51.59-.6L17,11l-.59.59Zm.61.26.1.1-.59.59-.11-.1Zm-1.38.5.59-.59.1.11-.59.59Zm.56.32.1.1-.59.59-.11-.1Zm-1.38.51.59-.6.1.11-.59.59Zm1.53.34-.6.59-.1-.1.59-.6Zm.82-.82-.6.59-.1-.1.59-.6Zm.76-.77-.59.59-.1-.1.59-.59Zm.78-.78-.59.6-.11-.11.59-.59Zm.78-.77-.6.59-.1-.1.59-.6Zm.75-.76-.59.6L19.45,10l.6-.59Zm.75-.75-.59.6-.11-.11.6-.59ZM21.66,8l-.59.59L21,8.5l.59-.59Zm.84-.84-.59.59-.1-.1.59-.59Zm.72-.72L22.63,7l-.1-.1.59-.59Zm-.83-.83-.59.59-.1-.1.59-.6Z" transform="translate(0 0)" fill="#212121"/><rect width="30" height="30" fill="none"/></svg>