<!-- Copyright (c) 2022 - 2023 Jan Stehno -->
<svg xmlns="http://www.w3.org/2000/svg" viewBox="0 0 300 300"><title>zarza1522lr</title><g id="rifles"><g id="zarza1522lr"><g id="weapon"><path d="M268.78,14l.63.63-6.32,6.32-7.24-7.24-7.66,7.65-1.43-1.43H242l-3,3-3-3c-1.85-1.85-3.6-3-5.44-1.17s-1,3-1,3l9.57,9.57L110.48,159.8,108.7,158h-5L101,160.64l-2.91-2.92c-2-2-5.62-2.7-6.93-1.38s1.39,4.88,1.39,4.88a8.38,8.38,0,0,1,4.52,2.63,15,15,0,0,1,3.31,4.92L89.31,179.89v2.4l-2.48,2.48,4.11,4.11-1.39,1.39.78.77L84.42,197l-.44-.44s-73.89,71.72-73.75,74.63c.17,3.55,32.71,29,36.32,28.86S71,276.41,71,276.41V261l-2.11-2.11c-1.54-1.53-4.18-4.18-1.2-10.23s27.15-33.08,29.53-38,.68-4.86-.34-4.91-2.36-2-2.36-2l4-4,3.32,3.32c3.32,3.31,4.15,4.37,7.4,1.13s5.87-4.49,9.69-.66,7.6,31.39,8.6,36.47,1.41,4.52,3.86,2.6,12.73-4.81,15.77-8.78,2.63-4.37.07-4.54-3.18-5.37-5.07-11.2,2.45-6,1.31-7.1-3-1.17-4.3-4.69,3.64-7.49,10.15-14,4.72-10.25,1.46-13.51a8.09,8.09,0,0,0-7.29-2.24l3.21-3.2,8.68,8.67-1,1,1.39,1.39.95-.95,4.74,4.74,14.78-22.66L172,161.11l1-1-1.43-1.43-1.06,1-10.64-10.64v-5.94h6l6.31-6.32v-6.47L272.47,30.09l-3.4-3.41,6.61-6.61.53.54L289.77,7.05l-7-7ZM149.49,180.14c2.62,2.63,2.41,6.12-2.48,11-5.83,5.83-9.15,5.5-11.46,3.19a6.6,6.6,0,0,1-1.92-5.2l1.86,1.86c1.13,1.13,4.59,4.16,8.13,1.21s-2.19-.73-4.45-3-2.77-4,1-7.73S146.87,177.52,149.49,180.14Zm-8.71-30.73-14,14L123.46,160l14-14Zm8.16-8.17-6.3,6.31-3.36-3.35,6.31-6.31Zm34.44-25.42-6.85,6.81v-3.79l6.85-6.86Zm-3.94-3.93-6.85,6.8V114.9l6.85-6.85ZM175.51,108l-6.86,6.81V111l6.86-6.85Zm19.27-3.52-6.86,6.8v-3.79l6.86-6.85Zm-3.94-3.94-6.85,6.8V103.5l6.85-6.85Zm-3.94-3.94-6.85,6.81V99.57l6.85-6.86ZM206.17,93l-6.85,6.8V96l6.85-6.85Zm-3.93-3.94-6.86,6.81V92.11l6.86-6.86Zm-3.94-3.93L191.45,92V88.17l6.85-6.85Zm19.2-3.46-6.85,6.81V84.72l6.85-6.86Zm-3.94-3.93-6.85,6.8V80.78l6.85-6.85Zm-3.93-3.94-6.86,6.81v-3.8L209.63,70Zm18.72-3-6.85,6.81V73.87L228.35,67Zm-3.94-3.93-6.85,6.8V69.93l6.85-6.85ZM220.48,63l-6.86,6.8V66l6.86-6.85Zm19.18-3.43-6.86,6.8V62.56l6.86-6.85Zm-3.94-3.94-6.85,6.8V58.62l6.85-6.85Zm-3.94-3.94-6.85,6.81V54.69l6.85-6.86Zm18.67-2.92-6.85,6.81v-3.8l6.85-6.85Zm-3.93-3.94-6.86,6.81V47.83L246.52,41Zm-3.94-3.93-6.85,6.8V43.89L242.58,37Zm18.93-3.19-6.85,6.81V40.71l6.85-6.86Zm-3.94-3.93-6.85,6.8V36.77l6.85-6.85Zm-3.93-3.94-6.86,6.8V32.83L253.64,26Z" transform="translate(0)" fill="#212121"/></g></g></g><g id="frame"><rect width="300" height="300" fill="none"/></g></svg>