<svg xmlns="http://www.w3.org/2000/svg" viewBox="0 0 30 30"><path d="M15,2.87a3.29,3.29,0,0,1,2-1.15c.83,0,.83.21.83.21S15.45,5,15,5Z" transform="translate(0)" fill="#212121"/><path d="M16.13,4.54a1.6,1.6,0,0,0,1.73,1.21c1.28,0,1.1-.46,1.63-1.67S22.55,2.18,22.55,2s-.47-.51-1.26-.51-.62-.2-1.6-.2-2,1.17-2.62,2S16.13,4.35,16.13,4.54Z" transform="translate(0)" fill="#212121"/><path d="M21.8,5.81h-.06a.41.41,0,0,1,.32.4.41.41,0,0,1-.42.41.41.41,0,0,1-.41-.41A.43.43,0,0,1,21.29,6a.92.92,0,0,0-.35.5c0,.19.36.51.73.51s.83-.4.83-.65A.63.63,0,0,0,21.8,5.81Z" transform="translate(0)" fill="#212121"/><path d="M20.36,6.2c.24,0,.31-.32.41-.72s.34-.74.56-.74a5.64,5.64,0,0,1,1.17.77s-.83-1.68-1.13-1.68-1.54.56-1.54,1.25S20,6.2,20.36,6.2Z" transform="translate(0)" fill="#212121"/><path d="M28.42,11.35a4,4,0,0,1,.94.19,3.42,3.42,0,0,1,.56.27,5.11,5.11,0,0,0-.33-2.12c-.41-.86-1.34-.9-1.81-1.92A5.08,5.08,0,0,0,26.23,6c-.4-.41-.31-1.62-.31-1.62s-1.44.36-1.71.09-.06-1.19-.35-1.55a1.31,1.31,0,0,0-1-.55c-.38,0-1.27.46-1.27.67s1.92,1.38,1.92,1.6-.13.23-.13.51.13.23.77.23,1.46.41,1.46.87.95,1.19.95,1.19a2.85,2.85,0,0,1-1-.23,8,8,0,0,0-.93-.33s1.81,1.07,1.81,1.4-.09.42-.3.42-.34-.36-.54-.36-.35.85-.35,1.22-.11.35-.43,0a9.24,9.24,0,0,0-1.5-1.06,5,5,0,0,1,1.1,2.15c0,.83-.19.78-.47.78s-.39-.3-.86-1.27a13,13,0,0,0-3.63-3.34c-.34,0-.78.39-1.36.39s-.66-.31-1.41-.31-1.68-1-1.68-1v4.93a8.06,8.06,0,0,1,4.59,1.44A7.93,7.93,0,0,0,15,11.13v9.63c.55,0,.56-.07,1-.07s.55.06.87.06.27-.24.87-.31.83,0,1.11-.13.64,0,.89-.28a3.56,3.56,0,0,1,1.33-1.22c.76-.37.84-.65.84-1.28a1.18,1.18,0,0,1,.58-1.14c.44-.38.4-.57.4-1s.84-1.46,1.23-1.46.74.38.74,1A6.32,6.32,0,0,1,24,17.84a2.53,2.53,0,0,0-.62,2c0,1.12,0,1.4-.67,1.9a2.12,2.12,0,0,0-1,1.74,1.47,1.47,0,0,1-1.33,1.38c-.53,0-.61.61-1.42.61s-.74.23-1.12.23-.33-.26-.54-.26-.18.4-.41.62-1,.21-1.92.21v2.43c.61,0,.72-.49,1-.49a13.7,13.7,0,0,0,2,.41c1.38,0,1.13-1.07,1.13-1.07a1.21,1.21,0,0,0,1,.46c1.3,0,1.28-1,1.28-1a1.24,1.24,0,0,0,.88-.22A7.1,7.1,0,0,0,23.76,24c.16-1.07-.13-2.07.31-2.67a12.82,12.82,0,0,0,2.38-2.94,6.93,6.93,0,0,1,2.45-2.47c.23-.27.06-.73.38-1.62S30,13.22,30,13,28.42,11.35,28.42,11.35Zm-11,5.29a3.4,3.4,0,0,0-.6-1.42c-.44-.52-.76-.39-.76-.69s0-.45.17-.6,1.19.32,1.19.94Z" transform="translate(0)" fill="#212121"/><path d="M16.09,20.92c.33,0,.33.12.33.41a1.14,1.14,0,0,1-.53.78c-.12,0-.28-.48-.28-.69A.5.5,0,0,1,16.09,20.92Z" transform="translate(0)" fill="#212121"/><path d="M17.25,21.12c0,.2-.29.67-.45.67s-.25-.37-.25-.61.05-.27.39-.27S17.25,21,17.25,21.12Z" transform="translate(0)" fill="#212121"/><path d="M17.82,20.75c.32,0,.36.05.36.41s-.39,1.11-.55,1.11-.09-.59-.15-.88S17.46,20.75,17.82,20.75Z" transform="translate(0)" fill="#212121"/><path d="M18.43,22.38a4.09,4.09,0,0,0,.94-1.5c0-.24-.32-.37-.54-.37a.51.51,0,0,0-.42.22C18.28,20.86,18.24,22.38,18.43,22.38Z" transform="translate(0)" fill="#212121"/><path d="M19.73,21.47c.16,0,.58-.57.58-.92s-.22-.37-.39-.37-.29.07-.29.26S19.58,21.47,19.73,21.47Z" transform="translate(0)" fill="#212121"/><path d="M20.77,20.71a1.44,1.44,0,0,0,.58-1c0-.39-.06-.58-.25-.58s-.67.31-.67.59S20.6,20.71,20.77,20.71Z" transform="translate(0)" fill="#212121"/><path d="M21.7,20c.19,0,.46-.82.46-1.14s-.17-.29-.34-.29-.34.12-.34.45S21.53,20,21.7,20Z" transform="translate(0)" fill="#212121"/><path d="M22.53,19.13c.16,0,.5-.54.5-1.36s-.2-.91-.46-.91a.37.37,0,0,0-.41.37,2.74,2.74,0,0,0,0,.94C22.25,18.47,22.36,19.13,22.53,19.13Z" transform="translate(0)" fill="#212121"/><path d="M23.58,17.48a2.11,2.11,0,0,0,.88-1.81c0-1-.25-1-.57-1s-.46.23-.54.56a3.91,3.91,0,0,0,0,1.43C23.48,17.25,23.42,17.48,23.58,17.48Z" transform="translate(0)" fill="#212121"/><path d="M21.55,21.22a.68.68,0,0,0,.61.59c.34,0,.78-.54.87-1s0-1.38-.16-1.38-.15.45-.6,1S21.55,21.08,21.55,21.22Z" transform="translate(0)" fill="#212121"/><path d="M20.29,24.44c0,.22.05.26.44.08a1.64,1.64,0,0,0,.74-.93c.1-.29.11-.5,0-.5s-.7.74-.92.88A.52.52,0,0,0,20.29,24.44Z" transform="translate(0)" fill="#212121"/><path d="M20.7,23.38c.2,0,.44-.36.62-.79s.32-.77.22-.86-.63.69-.8.83S20.54,23.38,20.7,23.38Z" transform="translate(0)" fill="#212121"/><path d="M19.12,25.22c.39,0,.95-.8,1.13-1.34a5.43,5.43,0,0,0,.23-1.61c0-.42,0-.94-.26-.14S18.74,23.7,18.74,24s.2.27.27.57S18.94,25.22,19.12,25.22Z" transform="translate(0)" fill="#212121"/><path d="M18,25.4c.26,0,.43,0,.43-.76s-.11-1.18-.26-1.18-.47.92-.65,1.08-.24.31-.07.54A.68.68,0,0,0,18,25.4Z" transform="translate(0)" fill="#212121"/><path d="M16.31,26c.45,0,.89-.53.89-1.28a6.45,6.45,0,0,0,0-1.52c-.08-.08-.48.65-.66,1.23s-.73,1-.73,1.24S15.67,26,16.31,26Z" transform="translate(0)" fill="#212121"/><path d="M15.22,26.06c.25,0,.32-.4.47-.69s.14-.55.05-.55-.37.48-.49.53S14.87,26.06,15.22,26.06Z" transform="translate(0)" fill="#212121"/><path d="M15.24,21c-.2,0-.17.16-.18.41s0,.68.16.68S15.66,21,15.24,21Z" transform="translate(0)" fill="#212121"/><path d="M15,2.87a3.29,3.29,0,0,0-2-1.15c-.83,0-.83.21-.83.21S14.55,5,15,5Z" transform="translate(0)" fill="#212121"/><path d="M13.87,4.54a1.6,1.6,0,0,1-1.73,1.21c-1.28,0-1.1-.46-1.63-1.67S7.45,2.18,7.45,2s.47-.51,1.26-.51.62-.2,1.6-.2,2,1.17,2.62,2S13.87,4.35,13.87,4.54Z" transform="translate(0)" fill="#212121"/><path d="M8.2,5.81h.06a.41.41,0,0,0-.32.4.41.41,0,0,0,.42.41.41.41,0,0,0,.41-.41A.43.43,0,0,0,8.71,6a.92.92,0,0,1,.35.5c0,.19-.36.51-.73.51s-.83-.4-.83-.65A.63.63,0,0,1,8.2,5.81Z" transform="translate(0)" fill="#212121"/><path d="M9.64,6.2c-.24,0-.31-.32-.41-.72s-.34-.74-.56-.74a5.64,5.64,0,0,0-1.17.77s.83-1.68,1.13-1.68,1.54.56,1.54,1.25S10,6.2,9.64,6.2Z" transform="translate(0)" fill="#212121"/><path d="M0,13c0,.27.4.42.72,1.31s.15,1.35.38,1.62a6.93,6.93,0,0,1,2.45,2.47,12.82,12.82,0,0,0,2.38,2.94c.44.6.15,1.6.31,2.67A7.1,7.1,0,0,0,7.79,26.8a1.24,1.24,0,0,0,.88.22s0,1,1.28,1a1.21,1.21,0,0,0,1-.46s-.25,1.07,1.13,1.07a13.7,13.7,0,0,0,2-.41c.25,0,.36.49,1,.49V26.31c-.95,0-1.7,0-1.92-.21s-.19-.62-.41-.62-.17.26-.54.26-.32-.23-1.12-.23-.89-.61-1.42-.61a1.47,1.47,0,0,1-1.33-1.38,2.12,2.12,0,0,0-1-1.74c-.65-.5-.67-.78-.67-1.9a2.53,2.53,0,0,0-.62-2,6.32,6.32,0,0,1-.88-2.91c0-.65.36-1,.74-1s1.23,1,1.23,1.46,0,.65.4,1a1.18,1.18,0,0,1,.58,1.14c0,.63.08.91.84,1.28A3.56,3.56,0,0,1,10.25,20c.25.3.6.12.89.28s.51.07,1.11.13.55.31.87.31.41-.06.87-.06.46.07,1,.07V11.13a7.93,7.93,0,0,0-4.59,1.08A8.06,8.06,0,0,1,15,10.77V5.84s-.93,1-1.68,1-.84.31-1.41.31-1-.39-1.36-.39a13,13,0,0,0-3.63,3.34c-.47,1-.59,1.27-.86,1.27s-.47,0-.47-.78a5,5,0,0,1,1.1-2.15,9.24,9.24,0,0,0-1.5,1.06c-.32.38-.43.4-.43,0s-.15-1.22-.35-1.22-.33.36-.54.36-.3-.08-.3-.42,1.81-1.4,1.81-1.4a8,8,0,0,0-.93.33,2.85,2.85,0,0,1-1,.23s1-.73,1-1.19.82-.87,1.46-.87.77,0,.77-.23-.13-.29-.13-.51S8.43,3.21,8.43,3s-.89-.67-1.27-.67a1.31,1.31,0,0,0-1,.55c-.29.36-.09,1.29-.35,1.55s-1.71-.09-1.71-.09S4.17,5.58,3.77,6A5.08,5.08,0,0,0,2.22,7.77C1.75,8.79.82,8.83.41,9.69a5.11,5.11,0,0,0-.33,2.12,3.42,3.42,0,0,1,.56-.27,4,4,0,0,1,.94-.19S0,12.68,0,13Zm12.6,1.92c0-.62,1-1.14,1.19-.94s.17.31.17.6-.32.17-.76.69a3.4,3.4,0,0,0-.6,1.42Z" transform="translate(0)" fill="#212121"/><path d="M13.91,20.92c-.33,0-.33.12-.33.41a1.14,1.14,0,0,0,.53.78c.12,0,.28-.48.28-.69A.5.5,0,0,0,13.91,20.92Z" transform="translate(0)" fill="#212121"/><path d="M12.75,21.12c0,.2.29.67.45.67s.25-.37.25-.61,0-.27-.39-.27S12.75,21,12.75,21.12Z" transform="translate(0)" fill="#212121"/><path d="M12.18,20.75c-.32,0-.36.05-.36.41s.39,1.11.55,1.11.09-.59.15-.88S12.54,20.75,12.18,20.75Z" transform="translate(0)" fill="#212121"/><path d="M11.57,22.38a4.09,4.09,0,0,1-.94-1.5c0-.24.32-.37.54-.37a.51.51,0,0,1,.42.22C11.72,20.86,11.76,22.38,11.57,22.38Z" transform="translate(0)" fill="#212121"/><path d="M10.27,21.47c-.16,0-.58-.57-.58-.92s.22-.37.39-.37.29.07.29.26S10.42,21.47,10.27,21.47Z" transform="translate(0)" fill="#212121"/><path d="M9.23,20.71a1.44,1.44,0,0,1-.58-1c0-.39.06-.58.25-.58s.67.31.67.59S9.4,20.71,9.23,20.71Z" transform="translate(0)" fill="#212121"/><path d="M8.3,20c-.19,0-.46-.82-.46-1.14s.17-.29.34-.29.34.12.34.45S8.47,20,8.3,20Z" transform="translate(0)" fill="#212121"/><path d="M7.47,19.13c-.16,0-.5-.54-.5-1.36s.2-.91.46-.91a.37.37,0,0,1,.41.37,2.74,2.74,0,0,1,0,.94C7.75,18.47,7.64,19.13,7.47,19.13Z" transform="translate(0)" fill="#212121"/><path d="M6.42,17.48a2.11,2.11,0,0,1-.88-1.81c0-1,.25-1,.57-1s.46.23.54.56a3.91,3.91,0,0,1,0,1.43C6.52,17.25,6.58,17.48,6.42,17.48Z" transform="translate(0)" fill="#212121"/><path d="M8.45,21.22a.68.68,0,0,1-.61.59c-.34,0-.78-.54-.87-1s0-1.38.16-1.38.15.45.6,1S8.45,21.08,8.45,21.22Z" transform="translate(0)" fill="#212121"/><path d="M9.71,24.44c0,.22-.05.26-.44.08a1.64,1.64,0,0,1-.74-.93c-.1-.29-.11-.5,0-.5s.7.74.92.88A.52.52,0,0,1,9.71,24.44Z" transform="translate(0)" fill="#212121"/><path d="M9.3,23.38c-.2,0-.44-.36-.62-.79s-.32-.77-.22-.86.63.69.8.83S9.46,23.38,9.3,23.38Z" transform="translate(0)" fill="#212121"/><path d="M10.88,25.22c-.39,0-1-.8-1.13-1.34a5.43,5.43,0,0,1-.23-1.61c0-.42,0-.94.26-.14S11.26,23.7,11.26,24s-.2.27-.27.57S11.06,25.22,10.88,25.22Z" transform="translate(0)" fill="#212121"/><path d="M12,25.4c-.26,0-.43,0-.43-.76s.11-1.18.26-1.18.47.92.65,1.08.24.31.07.54A.68.68,0,0,1,12,25.4Z" transform="translate(0)" fill="#212121"/><path d="M13.69,26c-.45,0-.89-.53-.89-1.28a6.45,6.45,0,0,1,0-1.52c.08-.08.48.65.66,1.23s.73,1,.73,1.24S14.33,26,13.69,26Z" transform="translate(0)" fill="#212121"/><path d="M14.78,26.06c-.25,0-.32-.4-.47-.69s-.14-.55-.05-.55.37.48.49.53S15.13,26.06,14.78,26.06Z" transform="translate(0)" fill="#212121"/><path d="M14.76,21c.2,0,.17.16.18.41s0,.68-.16.68S14.34,21,14.76,21Z" transform="translate(0)" fill="#212121"/><rect width="30" height="30" fill="none"/></svg>