<!-- Copyright (c) 2023 Jan Stehno -->
<svg xmlns="http://www.w3.org/2000/svg" viewBox="0 0 300 300">
    <title>americanalligator</title>
    <g id="americanalligator">
        <g id="right">
            <path
                d="M150,28.7c4.43-4.44,12.08-11.45,20.31-11.45s8.24,2.07,8.24,2.07S154.47,49.89,150,49.89Z"
                transform="translate(0)" fill="#212121" />
            <path
                d="M161.32,45.36c0,2.83,4.4,12.14,17.23,12.14s11.07-4.62,16.36-16.7,30.56-19,30.56-21.13-4.62-5.09-12.55-5.09-6.22-2-16-2-19.72,11.7-26.23,19.63S161.32,43.51,161.32,45.36Z"
                transform="translate(0)" fill="#212121" />
            <path
                d="M218,58.13a5.85,5.85,0,0,0-.59,0,4.15,4.15,0,1,1-5.14,4,4.07,4.07,0,0,1,.62-2.16c-2.12,1.65-3.45,3.92-3.45,5,0,1.82,3.53,5.09,7.24,5.09s8.36-4,8.36-6.54S222.64,58.13,218,58.13Z"
                transform="translate(0)" fill="#212121" />
            <path
                d="M203.59,62c2.39,0,3.08-3.21,4.15-7.17s3.39-7.43,5.53-7.43S225,55.11,225,55.11s-8.36-16.86-11.32-16.86-15.41,5.6-15.41,12.58S200,62,203.59,62Z"
                transform="translate(0)" fill="#212121" />
            <path
                d="M284.15,113.54s6.1.5,9.5,1.82a30.54,30.54,0,0,1,5.53,2.77s.82-12.64-3.27-21.26-13.46-8.93-18.11-19.18-11.53-13.82-15.54-17.83-3.11-16.18-3.11-16.18-14.36,3.61-17,.94-.61-11.9-3.57-15.55-6.41-5.47-10.19-5.47-12.64,4.59-12.64,6.73c0,1.76,19.19,13.77,19.19,16s-1.26,2.32-1.26,5.09,1.26,2.33,7.67,2.33,14.62,4.05,14.62,8.68,9.44,11.88,9.44,11.88A28.81,28.81,0,0,1,255.47,72a67.69,67.69,0,0,0-9.24-3.3s18.06,10.66,18.06,14-.89,4.15-3,4.15-3.4-3.59-5.42-3.59-3.54,8.54-3.54,12.22-1.09,3.44-4.29-.28-15-10.62-15-10.62,11,13.26,11,21.5-1.89,7.73-4.66,7.73-3.9-2.95-8.68-12.64-32.83-33.46-36.22-33.46-7.86,3.9-13.59,3.9-6.66-3-14.15-3S150,58.44,150,58.44v49.25c27.36,0,45.94,14.43,45.94,14.43S181.79,111.27,150,111.27v96.32c5.52,0,5.61-.7,10.14-.7s5.47.61,8.68.61,2.64-2.41,8.68-3.07,8.25.19,11.13-1.36,6.42.23,8.92-2.79,5.66-8.53,13.25-12.21,8.45-6.47,8.45-12.79,1.44-7.72,5.78-11.43,4-5.66,4-10.25S237.42,139,241.26,139s7.48,3.77,7.48,10.25-3,20.19-8.87,29.18-6.16,9.12-6.16,20.32-.19,14-6.73,19.05-8.11,8-9.56,17.36-8,13.84-13.33,13.84-6.1,6.1-14.15,6.1-7.42,2.26-11.2,2.26-3.33-2.57-5.47-2.57-1.76,4-4,6.22S159.5,263.1,150,263.1v24.31c6.14,0,7.17-4.86,9.67-4.86s12.53,4.07,19.76,4.07c13.78,0,11.26-10.76,11.26-10.76a12,12,0,0,0,9.81,4.66c13,0,12.83-10.32,12.83-10.32s5.85.7,8.75-2.2,13.89-17.73,15.53-28.42-1.32-20.7,3.08-26.67,15.54-12.89,23.84-29.37,22.2-22.08,24.46-24.78.59-7.25,3.79-16.17S300,132.22,300,129.53,284.15,113.54,284.15,113.54ZM174,166.37s-1.51-9-5.94-14.15-7.64-4-7.64-6.89.14-4.48,1.7-6c2-2,11.88,3.21,11.88,9.44Z"
                transform="translate(0)" fill="#212121" />
            <path
                d="M160.87,209.2c3.3,0,3.3,1.18,3.3,4.15s-4,7.78-5.28,7.78-2.83-4.81-2.83-7A5,5,0,0,1,160.87,209.2Z"
                transform="translate(0)" fill="#212121" />
            <path
                d="M172.5,211.16c0,2.08-2.88,6.75-4.53,6.75s-2.46-3.73-2.46-6.09.48-2.73,3.87-2.73S172.5,210.33,172.5,211.16Z"
                transform="translate(0)" fill="#212121" />
            <path
                d="M178.16,207.55c3.21,0,3.68.47,3.68,4s-4,11.18-5.57,11.18-.85-5.9-1.46-8.83S174.58,207.55,178.16,207.55Z"
                transform="translate(0)" fill="#212121" />
            <path
                d="M184.34,223.82c1.56,0,9.34-12.69,9.34-15s-3.16-3.63-5.38-3.63-2.88.85-4.2,2.17S182.36,223.82,184.34,223.82Z"
                transform="translate(0)" fill="#212121" />
            <path
                d="M197.31,214.72c1.56,0,5.76-5.76,5.76-9.2s-2.13-3.73-3.82-3.73-3,.71-3,2.64S195.75,214.72,197.31,214.72Z"
                transform="translate(0)" fill="#212121" />
            <path
                d="M207.7,207.12c1.29,0,5.76-6,5.76-10s-.54-5.85-2.45-5.85-6.73,3.15-6.73,6S206,207.12,207.7,207.12Z"
                transform="translate(0)" fill="#212121" />
            <path
                d="M217,200.42c1.89,0,4.53-8.2,4.53-11.46s-1.65-2.83-3.35-2.83-3.45,1.13-3.45,4.48S215.28,200.42,217,200.42Z"
                transform="translate(0)" fill="#212121" />
            <path
                d="M225.28,191.27c1.65,0,5-5.41,5-13.61s-2-9.06-4.65-9.06-3.74,1.45-4.1,3.74a29.78,29.78,0,0,0,.33,9.41C222.55,184.73,223.55,191.27,225.28,191.27Z"
                transform="translate(0)" fill="#212121" />
            <path
                d="M235.85,174.8c2,0,8.73-8,8.73-18.1s-2.46-9.86-5.66-9.86-4.58,2.22-5.38,5.52-.62,8.54.33,14.34S234.15,174.8,235.85,174.8Z"
                transform="translate(0)" fill="#212121" />
            <path
                d="M215.52,212.22c0,2.12,2.59,5.89,6,5.89s7.8-5.42,8.75-9.86.07-13.77-1.63-13.77-1.46,4.53-6,9.81S215.52,210.75,215.52,212.22Z"
                transform="translate(0)" fill="#212121" />
            <path
                d="M202.88,244.39c0,2.21.56,2.64,4.43.85s6.37-6.42,7.36-9.34,1.08-5,0-5-7,7.35-9.2,8.77A5.21,5.21,0,0,0,202.88,244.39Z"
                transform="translate(0)" fill="#212121" />
            <path
                d="M207,233.82c2,0,4.39-3.58,6.23-7.88s3.15-7.72,2.24-8.63-6.35,6.84-8.09,8.26S205.38,233.82,207,233.82Z"
                transform="translate(0)" fill="#212121" />
            <path
                d="M191.18,252.17c3.91,0,9.53-7.92,11.37-13.35s2.17-11.84,2.21-16.08.19-9.49-2.54-1.42S187.36,237,187.36,239.53s2.07,2.69,2.78,5.66S189.43,252.17,191.18,252.17Z"
                transform="translate(0)" fill="#212121" />
            <path
                d="M180.06,254c2.68,0,4.34.28,4.34-7.63s-1.07-11.71-2.58-11.71-4.71,9.12-6.47,10.78-2.43,3.05-.76,5.35S178.22,254,180.06,254Z"
                transform="translate(0)" fill="#212121" />
            <path
                d="M163.14,260c4.47,0,8.89-5.29,8.89-12.77s.42-14.4-.39-15.22-4.88,6.44-6.59,12.28-7.31,10.05-7.31,12.44S156.67,260,163.14,260Z"
                transform="translate(0)" fill="#212121" />
            <path
                d="M152.17,260.57c2.5,0,3.21-4,4.76-6.84s1.37-5.52.43-5.52-3.63,4.76-4.81,5.28S148.73,260.57,152.17,260.57Z"
                transform="translate(0)" fill="#212121" />
            <path
                d="M152.43,209.5c-2,0-1.78,1.58-1.83,4.08s.23,6.8,1.64,6.8C155.14,220.38,156.58,209.5,152.43,209.5Z"
                transform="translate(0)" fill="#212121" />
        </g>
        <g id="left">
            <path
                d="M150,28.7c-4.43-4.44-12.08-11.45-20.31-11.45s-8.24,2.07-8.24,2.07S145.53,49.89,150,49.89Z"
                transform="translate(0)" fill="#212121" />
            <path
                d="M138.68,45.36c0,2.83-4.4,12.14-17.23,12.14s-11.07-4.62-16.36-16.7-30.56-19-30.56-21.13,4.62-5.09,12.55-5.09,6.22-2,16-2,19.72,11.7,26.23,19.63S138.68,43.51,138.68,45.36Z"
                transform="translate(0)" fill="#212121" />
            <path
                d="M82,58.13a5.85,5.85,0,0,1,.59,0,4.15,4.15,0,1,0,5.14,4A4.07,4.07,0,0,0,87.12,60c2.12,1.65,3.45,3.92,3.45,5,0,1.82-3.53,5.09-7.24,5.09S75,66.12,75,63.6,77.36,58.13,82,58.13Z"
                transform="translate(0)" fill="#212121" />
            <path
                d="M96.41,62c-2.39,0-3.08-3.21-4.15-7.17s-3.39-7.43-5.53-7.43S75,55.11,75,55.11s8.36-16.86,11.32-16.86,15.41,5.6,15.41,12.58S100,62,96.41,62Z"
                transform="translate(0)" fill="#212121" />
            <path
                d="M0,129.53c0,2.69,4,4.15,7.22,13.06S8.74,156.05,11,158.76s16.16,8.3,24.46,24.78,19.44,23.39,23.84,29.37,1.44,16,3.08,26.67S75,265.11,77.92,268s8.75,2.2,8.75,2.2-.19,10.32,12.83,10.32a12,12,0,0,0,9.81-4.66s-2.52,10.76,11.26,10.76c7.23,0,17.26-4.07,19.76-4.07s3.53,4.86,9.67,4.86V263.1c-9.5,0-17,.19-19.25-2.08s-1.88-6.22-4-6.22-1.7,2.57-5.47,2.57-3.15-2.26-11.2-2.26-8.87-6.1-14.15-6.1S84,244.54,82.58,235.17s-3-12.32-9.56-17.36-6.73-7.86-6.73-19.05-.25-11.32-6.16-20.32-8.87-22.7-8.87-29.18S54.91,139,58.74,139,71,149,71,153.6s-.38,6.54,4,10.25,5.78,5.11,5.78,11.43.85,9.11,8.45,12.79,10.75,9.19,13.25,12.21,6,1.23,8.92,2.79,5.09.7,11.13,1.36,5.47,3.07,8.68,3.07,4.15-.61,8.68-.61,4.62.7,10.14.7V111.27c-31.79,0-45.94,10.85-45.94,10.85s18.58-14.43,45.94-14.43V58.44s-9.31,10.19-16.79,10.19-8.43,3-14.15,3-10.19-3.9-13.59-3.9S74,91.53,69.25,101.21s-5.92,12.64-8.68,12.64-4.66.51-4.66-7.73,11-21.5,11-21.5-11.79,6.89-15,10.62-4.29,4-4.29.28S46.13,83.3,44.1,83.3s-3.35,3.59-5.42,3.59-3-.8-3-4.15,18.06-14,18.06-14A67.69,67.69,0,0,0,44.53,72a28.81,28.81,0,0,1-9.91,2.26S44.06,67,44.06,62.41s8.2-8.68,14.62-8.68,7.67.44,7.67-2.33-1.26-2.89-1.26-5.09,19.19-14.22,19.19-16c0-2.14-8.87-6.73-12.64-6.73s-7.24,1.82-10.19,5.47S60.54,42,57.88,44.62s-17-.94-17-.94.9,12.17-3.11,16.18S26.86,67.44,22.2,77.69,8.18,88.25,4.09,96.87.82,118.13.82,118.13a30.54,30.54,0,0,1,5.53-2.77c3.4-1.32,9.5-1.82,9.5-1.82S0,126.84,0,129.53Zm126,19.2c0-6.23,9.88-11.44,11.88-9.44,1.56,1.56,1.7,3.12,1.7,6s-3.21,1.7-7.64,6.89S126,166.37,126,166.37Z"
                transform="translate(0)" fill="#212121" />
            <path
                d="M139.13,209.2c-3.3,0-3.3,1.18-3.3,4.15s4,7.78,5.28,7.78,2.83-4.81,2.83-7A5,5,0,0,0,139.13,209.2Z"
                transform="translate(0)" fill="#212121" />
            <path
                d="M127.5,211.16c0,2.08,2.88,6.75,4.53,6.75s2.46-3.73,2.46-6.09-.48-2.73-3.87-2.73S127.5,210.33,127.5,211.16Z"
                transform="translate(0)" fill="#212121" />
            <path
                d="M121.84,207.55c-3.21,0-3.68.47-3.68,4s4,11.18,5.57,11.18.85-5.9,1.46-8.83S125.42,207.55,121.84,207.55Z"
                transform="translate(0)" fill="#212121" />
            <path
                d="M115.66,223.82c-1.56,0-9.34-12.69-9.34-15s3.16-3.63,5.38-3.63,2.88.85,4.2,2.17S117.64,223.82,115.66,223.82Z"
                transform="translate(0)" fill="#212121" />
            <path
                d="M102.69,214.72c-1.56,0-5.76-5.76-5.76-9.2s2.13-3.73,3.82-3.73,3,.71,3,2.64S104.25,214.72,102.69,214.72Z"
                transform="translate(0)" fill="#212121" />
            <path
                d="M92.3,207.12c-1.29,0-5.76-6-5.76-10s.54-5.85,2.45-5.85,6.73,3.15,6.73,6S94,207.12,92.3,207.12Z"
                transform="translate(0)" fill="#212121" />
            <path
                d="M83,200.42c-1.89,0-4.53-8.2-4.53-11.46s1.65-2.83,3.35-2.83,3.45,1.13,3.45,4.48S84.72,200.42,83,200.42Z"
                transform="translate(0)" fill="#212121" />
            <path
                d="M74.72,191.27c-1.65,0-5-5.41-5-13.61s2-9.06,4.65-9.06,3.74,1.45,4.1,3.74a29.78,29.78,0,0,1-.33,9.41C77.45,184.73,76.45,191.27,74.72,191.27Z"
                transform="translate(0)" fill="#212121" />
            <path
                d="M64.15,174.8c-2,0-8.73-8-8.73-18.1s2.46-9.86,5.66-9.86,4.58,2.22,5.38,5.52.62,8.54-.33,14.34S65.85,174.8,64.15,174.8Z"
                transform="translate(0)" fill="#212121" />
            <path
                d="M84.48,212.22c0,2.12-2.59,5.89-6,5.89s-7.8-5.42-8.75-9.86-.07-13.77,1.63-13.77,1.46,4.53,6,9.81S84.48,210.75,84.48,212.22Z"
                transform="translate(0)" fill="#212121" />
            <path
                d="M97.12,244.39c0,2.21-.56,2.64-4.43.85s-6.37-6.42-7.36-9.34-1.08-5,0-5,7,7.35,9.2,8.77A5.21,5.21,0,0,1,97.12,244.39Z"
                transform="translate(0)" fill="#212121" />
            <path
                d="M93,233.82c-2,0-4.39-3.58-6.23-7.88s-3.15-7.72-2.24-8.63,6.35,6.84,8.09,8.26S94.62,233.82,93,233.82Z"
                transform="translate(0)" fill="#212121" />
            <path
                d="M108.82,252.17c-3.91,0-9.53-7.92-11.37-13.35S95.28,227,95.24,222.74s-.19-9.49,2.54-1.42,14.86,15.71,14.86,18.21-2.07,2.69-2.78,5.66S110.57,252.17,108.82,252.17Z"
                transform="translate(0)" fill="#212121" />
            <path
                d="M119.94,254c-2.68,0-4.34.28-4.34-7.63s1.07-11.71,2.58-11.71,4.71,9.12,6.47,10.78,2.43,3.05.76,5.35S121.78,254,119.94,254Z"
                transform="translate(0)" fill="#212121" />
            <path
                d="M136.86,260c-4.47,0-8.89-5.29-8.89-12.77s-.42-14.4.39-15.22,4.88,6.44,6.59,12.28,7.31,10.05,7.31,12.44S143.33,260,136.86,260Z"
                transform="translate(0)" fill="#212121" />
            <path
                d="M147.83,260.57c-2.5,0-3.21-4-4.76-6.84s-1.37-5.52-.43-5.52,3.63,4.76,4.81,5.28S151.27,260.57,147.83,260.57Z"
                transform="translate(0)" fill="#212121" />
            <path
                d="M147.57,209.5c2,0,1.78,1.58,1.83,4.08s-.23,6.8-1.64,6.8C144.86,220.38,143.42,209.5,147.57,209.5Z"
                transform="translate(0)" fill="#212121" />
        </g>
    </g>
    <g id="frame">
        <rect width="300" height="300" fill="none" />
    </g>
</svg>