<svg xmlns="http://www.w3.org/2000/svg" viewBox="0 0 30 30"><path d="M15,29.5c.18,0,.48.09.62.09a2,2,0,0,0,.38-.1,0,0,0,0,1,0,.06,1.42,1.42,0,0,1-.47.37A1.67,1.67,0,0,1,15,30Z" transform="translate(0)" fill="#212121"/><path d="M15.11,29a.3.3,0,0,0,.15.26.72.72,0,0,0,.34.11,2.21,2.21,0,0,0,1-.38,3.85,3.85,0,0,0,.64-1.63A8.72,8.72,0,0,0,17,26.15s.26-.17.26-.29a4.66,4.66,0,0,0-.43-1.23L15.78,23a12.58,12.58,0,0,1,.57-1.36,2.05,2.05,0,0,1,.5-.19,2.83,2.83,0,0,0-.11-.86,1.71,1.71,0,0,0-.57-.83c-.24-.12-.33-.06-.57-.22s-.32-.26-.6-.26v8.82c.21,0,.39-.11.65-.55s.33-.6.33-.69.19-.09.19,0a4.39,4.39,0,0,1-.09.85,1.55,1.55,0,0,1-.78.58.26.26,0,0,0-.19.24Z" transform="translate(0)" fill="#212121"/><path d="M17.91,28.24a5.48,5.48,0,0,0,.61-.85A6.35,6.35,0,0,0,19,25.9a2.84,2.84,0,0,0-.15-1.41,8.07,8.07,0,0,1-.24-1.43,2.71,2.71,0,0,1-.24.75c-.16.26-.22.32-.34.35a1.87,1.87,0,0,1-.56-.24.61.61,0,0,0,.2.29.88.88,0,0,0,.3.18.79.79,0,0,1-.36,0,.42.42,0,0,1-.22-.19,2,2,0,0,0-.28.5c0,.11.49.94.49,1.11s-.32.47-.32.47.1.38.16.77a2.21,2.21,0,0,1,0,.57.9.9,0,0,1,.25.25A2.85,2.85,0,0,1,17.91,28.24Z" transform="translate(0)" fill="#212121"/><path d="M18.06,22.88c-.22.18-.26,1.16,0,.86S18.39,22.62,18.06,22.88Z" transform="translate(0)" fill="#212121"/><path d="M17.23,24.09a1.74,1.74,0,0,1,.23-.91,5.21,5.21,0,0,1,1-1.08,1.24,1.24,0,0,0-.13-.47c-.1-.1-.16.06-.28,0s-.32-.41-.47-.45-.78.68-.78.93a6,6,0,0,0,.17,1.38A1.75,1.75,0,0,0,17.23,24.09Z" transform="translate(0)" fill="#212121"/><path d="M15.59,19.18a1,1,0,0,0,.45.22,1.19,1.19,0,0,1,.77.71c.2.42.61.57.83.8a3.88,3.88,0,0,0,.45.46c.07,0,.15,0,.15-.1s-.13-.1-.17-.34a27.4,27.4,0,0,1,0-4.18c.18-.64.46-1.49.46-1.49a2.7,2.7,0,0,1,.16.77c0,.34-.3,1.62-.33,2.27s.11,2.22.11,2.22,0-2.2.11-2.79.38-1.29.38-1.67-.19-1-.19-1.38a30.75,30.75,0,0,0,.72-3.27,24.16,24.16,0,0,0,.09-4.92A39.46,39.46,0,0,0,18.14.12C18-.06,17.73,0,17.7.14a20.74,20.74,0,0,0-.34,2.8c-.1,1.5-.25,4.09-.44,4.85s-.73,2.34-1.1,4a12.94,12.94,0,0,0-.28,4.46,6.76,6.76,0,0,1,.24,2A4.35,4.35,0,0,1,15.59,19.18Z" transform="translate(0)" fill="#212121"/><path d="M15,29.5c-.18,0-.48.09-.62.09a2,2,0,0,1-.38-.1,0,0,0,0,0,0,.06,1.42,1.42,0,0,0,.47.37A1.67,1.67,0,0,0,15,30Z" transform="translate(0)" fill="#212121"/><path d="M14.89,29a.3.3,0,0,1-.15.26.72.72,0,0,1-.34.11,2.21,2.21,0,0,1-1-.38,3.85,3.85,0,0,1-.64-1.63A8.72,8.72,0,0,1,13,26.15s-.26-.17-.26-.29a4.66,4.66,0,0,1,.43-1.23L14.22,23a12.58,12.58,0,0,0-.57-1.36,2.05,2.05,0,0,0-.5-.19,2.83,2.83,0,0,1,.11-.86,1.71,1.71,0,0,1,.57-.83c.24-.12.33-.06.57-.22s.32-.26.6-.26v8.82c-.21,0-.39-.11-.65-.55s-.33-.6-.33-.69-.19-.09-.19,0a4.39,4.39,0,0,0,.09.85,1.55,1.55,0,0,0,.78.58.26.26,0,0,1,.19.24Z" transform="translate(0)" fill="#212121"/><path d="M12.09,28.24a5.48,5.48,0,0,1-.61-.85A6.35,6.35,0,0,1,11,25.9a2.84,2.84,0,0,1,.15-1.41,8.07,8.07,0,0,0,.24-1.43,2.71,2.71,0,0,0,.24.75c.16.26.22.32.34.35a1.87,1.87,0,0,0,.56-.24.61.61,0,0,1-.2.29.88.88,0,0,1-.3.18.79.79,0,0,0,.36,0,.42.42,0,0,0,.22-.19,2,2,0,0,1,.28.5c0,.11-.49.94-.49,1.11s.32.47.32.47-.1.38-.16.77a2.21,2.21,0,0,0,0,.57.9.9,0,0,0-.25.25A2.85,2.85,0,0,0,12.09,28.24Z" transform="translate(0)" fill="#212121"/><path d="M11.94,22.88c.22.18.26,1.16,0,.86S11.61,22.62,11.94,22.88Z" transform="translate(0)" fill="#212121"/><path d="M12.77,24.09a1.74,1.74,0,0,0-.23-.91,5.21,5.21,0,0,0-1-1.08,1.24,1.24,0,0,1,.13-.47c.1-.1.16.06.28,0s.32-.41.47-.45.78.68.78.93a6,6,0,0,1-.17,1.38A1.75,1.75,0,0,1,12.77,24.09Z" transform="translate(0)" fill="#212121"/><path d="M14.41,19.18a1,1,0,0,1-.45.22,1.19,1.19,0,0,0-.77.71c-.2.42-.61.57-.83.8a3.88,3.88,0,0,1-.45.46c-.07,0-.15,0-.15-.1s.13-.1.17-.34a27.4,27.4,0,0,0,0-4.18c-.18-.64-.46-1.49-.46-1.49a2.7,2.7,0,0,0-.16.77c0,.34.3,1.62.33,2.27s-.11,2.22-.11,2.22,0-2.2-.11-2.79-.38-1.29-.38-1.67.19-1,.19-1.38a30.75,30.75,0,0,1-.72-3.27,24.16,24.16,0,0,1-.09-4.92A39.46,39.46,0,0,1,11.86.12c.11-.18.41-.14.44,0a20.74,20.74,0,0,1,.34,2.8c.1,1.5.25,4.09.44,4.85s.73,2.34,1.1,4a12.94,12.94,0,0,1,.28,4.46,6.76,6.76,0,0,0-.24,2A4.35,4.35,0,0,0,14.41,19.18Z" transform="translate(0)" fill="#212121"/><rect width="30" height="30" fill="none"/></svg>