<!-- Copyright (c) 2023 Jan Stehno -->
<svg xmlns="http://www.w3.org/2000/svg" viewBox="0 0 300 300">
    <title>antelopejackrabbit</title>
    <g id="antelopejackrabbit">
        <g id="right">
            <path
                d="M150,295c1.77,0,4.84.91,6.18.91a15.8,15.8,0,0,0,3.77-1,.43.43,0,0,1,.46.7c-1.28,1.34-3.29,3.27-4.7,3.67A18.48,18.48,0,0,1,150,300Z"
                transform="translate(0 0)" fill="#212121" />
            <path
                d="M151.13,290.39a3,3,0,0,0,1.46,2.61,7,7,0,0,0,3.37,1.08c2.43,0,7.93-2.33,9.56-3.78s6.39-11.63,6.39-16.29a85.57,85.57,0,0,0-1.55-12.52S173,259.8,173,258.6s-2.41-9.33-4.35-12.34-10.88-16.76-10.88-16.76,4.71-12.68,5.74-13.57,5-1.89,5-1.89.09-5.84-1.08-8.67-3.4-7.16-5.75-8.29-3.3-.57-5.66-2.17-3.24-2.59-6-2.59v88.21c2.09,0,3.86-1.08,6.5-5.56s3.28-6,3.28-6.82,2-.92,2,.06-.31,7.13-1,8.49a15.62,15.62,0,0,1-7.79,5.83,2.48,2.48,0,0,0-1.86,2.37Z"
                transform="translate(0 0)" fill="#212121" />
            <path
                d="M179.12,282.38s4.76-5.57,6.08-8.45A60.72,60.72,0,0,0,189.65,259c.71-5.44.22-8.84-1.48-14.14s-2.4-14.27-2.4-14.27-.75,4.8-2.34,7.45-2.19,3.25-3.46,3.5-5.62-2.37-5.62-2.37a6.9,6.9,0,0,0,2.09,2.94,9.84,9.84,0,0,0,3,1.8,7.92,7.92,0,0,1-3.61,0,4.12,4.12,0,0,1-2.19-1.9s-2.82,3.83-2.82,5,4.95,9.37,4.95,11.14-3.22,4.63-3.22,4.63a69.52,69.52,0,0,1,1.56,7.74,22.23,22.23,0,0,1,.25,5.69,10,10,0,0,1,2.47,2.51A28.11,28.11,0,0,1,179.12,282.38Z"
                transform="translate(0 0)" fill="#212121" />
            <path d="M180.56,228.85c-2.18,1.76-2.54,11.52,0,8.52S183.85,226.17,180.56,228.85Z"
                transform="translate(0 0)" fill="#212121" />
            <path
                d="M172.29,240.85a16.76,16.76,0,0,1,2.36-9.09c2.78-5,9.56-10.74,9.56-10.74s-.38-3.82-1.32-4.76-1.6.61-2.83-.33-3.15-4.1-4.71-4.57-7.73,6.83-7.73,9.33a63.11,63.11,0,0,0,1.7,13.85C170.59,239,172.29,240.85,172.29,240.85Z"
                transform="translate(0 0)" fill="#212121" />
            <path
                d="M155.87,191.83a10.13,10.13,0,0,0,4.5,2.14c2.87.61,5.78,3,7.76,7.16s6,5.65,8.24,8a48,48,0,0,0,4.52,4.63c.67.39,1.55-.43,1.48-1.06s-1.3-1-1.69-3.43-1.91-35.41-.14-41.78,4.59-14.84,4.59-14.84a26.88,26.88,0,0,1,1.56,7.63c0,3.4-3,16.26-3.26,22.69s1.06,22.2,1.06,22.2.15-21.91,1.13-27.85,3.75-12.94,3.75-16.68-1.91-9.69-1.91-13.86,5.52-15.62,7.28-32.65,2.38-29.71.87-49.22S182.51,3,181.38,1.19s-4-1.42-4.43.19a222,222,0,0,0-3.39,28c-.94,15-2.5,40.92-4.33,48.49s-7.36,23.46-11,40.29-4.74,35.76-2.83,44.53,2.9,14.77,2.41,19.93A44.25,44.25,0,0,1,155.87,191.83Z"
                transform="translate(0 0)" fill="#212121" />
        </g>
        <g id="left">
            <path
                d="M150,295c-1.77,0-4.84.91-6.18.91a15.8,15.8,0,0,1-3.77-1,.43.43,0,0,0-.46.7c1.28,1.34,3.29,3.27,4.7,3.67A18.48,18.48,0,0,0,150,300Z"
                transform="translate(0 0)" fill="#212121" />
            <path
                d="M148.87,290.39a3,3,0,0,1-1.46,2.61,7,7,0,0,1-3.37,1.08c-2.43,0-7.93-2.33-9.56-3.78s-6.39-11.63-6.39-16.29a85.57,85.57,0,0,1,1.55-12.52S127,259.8,127,258.6s2.41-9.33,4.35-12.34,10.88-16.76,10.88-16.76-4.71-12.68-5.74-13.57-5-1.89-5-1.89-.09-5.84,1.08-8.67,3.4-7.16,5.75-8.29,3.3-.57,5.66-2.17,3.24-2.59,6-2.59v88.21c-2.09,0-3.86-1.08-6.5-5.56s-3.28-6-3.28-6.82-2-.92-2,.06.31,7.13,1,8.49a15.62,15.62,0,0,0,7.79,5.83,2.48,2.48,0,0,1,1.86,2.37Z"
                transform="translate(0 0)" fill="#212121" />
            <path
                d="M120.88,282.38s-4.76-5.57-6.08-8.45A60.72,60.72,0,0,1,110.35,259c-.71-5.44-.22-8.84,1.48-14.14s2.4-14.27,2.4-14.27.75,4.8,2.34,7.45,2.19,3.25,3.46,3.5,5.62-2.37,5.62-2.37a6.9,6.9,0,0,1-2.09,2.94,9.84,9.84,0,0,1-3,1.8,7.92,7.92,0,0,0,3.61,0,4.12,4.12,0,0,0,2.19-1.9s2.82,3.83,2.82,5-5,9.37-5,11.14,3.22,4.63,3.22,4.63a69.52,69.52,0,0,0-1.56,7.74,22.23,22.23,0,0,0-.25,5.69,10,10,0,0,0-2.47,2.51A28.11,28.11,0,0,0,120.88,282.38Z"
                transform="translate(0 0)" fill="#212121" />
            <path d="M119.44,228.85c2.18,1.76,2.54,11.52,0,8.52S116.15,226.17,119.44,228.85Z"
                transform="translate(0 0)" fill="#212121" />
            <path
                d="M127.71,240.85a16.76,16.76,0,0,0-2.36-9.09c-2.78-5-9.56-10.74-9.56-10.74s.38-3.82,1.32-4.76,1.6.61,2.83-.33,3.15-4.1,4.71-4.57,7.73,6.83,7.73,9.33a63.11,63.11,0,0,1-1.7,13.85C129.41,239,127.71,240.85,127.71,240.85Z"
                transform="translate(0 0)" fill="#212121" />
            <path
                d="M144.13,191.83a10.13,10.13,0,0,1-4.5,2.14c-2.87.61-5.78,3-7.76,7.16s-6,5.65-8.24,8a48,48,0,0,1-4.52,4.63c-.67.39-1.55-.43-1.48-1.06s1.3-1,1.69-3.43,1.91-35.41.14-41.78-4.59-14.84-4.59-14.84a26.88,26.88,0,0,0-1.56,7.63c0,3.4,3,16.26,3.26,22.69s-1.06,22.2-1.06,22.2-.15-21.91-1.13-27.85-3.75-12.94-3.75-16.68,1.91-9.69,1.91-13.86-5.52-15.62-7.28-32.65-2.38-29.71-.87-49.22S117.49,3,118.62,1.19s4-1.42,4.43.19a222,222,0,0,1,3.39,28c.94,15,2.5,40.92,4.33,48.49s7.36,23.46,11,40.29,4.74,35.76,2.83,44.53-2.9,14.77-2.41,19.93A44.25,44.25,0,0,0,144.13,191.83Z"
                transform="translate(0 0)" fill="#212121" />
        </g>
    </g>
    <g id="frame">
        <rect width="300" height="300" fill="none" />
    </g>
</svg>