<svg xmlns="http://www.w3.org/2000/svg" viewBox="0 0 30 30"><path d="M17.3,20.67a.62.62,0,0,0,.71,0,.81.81,0,0,0,.14-.51,0,0,0,0,0,0,0c-.08.12-.26.34-.46.34s-.33-.21-.45-.21a.29.29,0,0,0-.2.12C16.9,20.48,17.15,20.52,17.3,20.67Z" transform="translate(0 0)" fill="#212121"/><path d="M18.51,19.66a.86.86,0,0,0-.14.56.83.83,0,0,1-.72.77c-.32,0-.68-.38-.77-.49a.09.09,0,0,1,0-.06v-.33c0-.23.48-1.06.85-1.06a2.14,2.14,0,0,1,.71.2c.08,0,.15-.05.15-.28a9.69,9.69,0,0,0-.5-2.4,7.21,7.21,0,0,0-1.9-.8l-1.16,0v3.84c.08,0,.22-.17.35-.26a5.4,5.4,0,0,0,1.38-.62,3.79,3.79,0,0,0,1-1.05.9.9,0,0,0-.06.32c0,.18.21.3.21.43s-.18.13-.38.24A17.46,17.46,0,0,0,16.26,20a.68.68,0,0,1,.25.56.67.67,0,0,1-.2.54,1,1,0,0,0-.09-.29c-.06-.09-.39-.48-.59-.48s-.29.19-.33.31-.2.41-.3.41v1.1c.17,0,.55,0,1.25.77s.66,1.15.8,1.15a3.79,3.79,0,0,0,1-1.14,12.08,12.08,0,0,0,.51-2.61,2.11,2.11,0,0,1,.12-.79Z" transform="translate(0 0)" fill="#212121"/><path d="M17.14,19.9s.23-.48.57-.48a2.05,2.05,0,0,1,.45,0s-.13.69-.6.69S17.14,19.9,17.14,19.9Z" transform="translate(0 0)" fill="#212121"/><path d="M18.49,16.78a.05.05,0,0,0,.1,0,3.25,3.25,0,0,1,1.1-1,2.48,2.48,0,0,1,1.59-.32.55.55,0,0,1,.26.2,1.82,1.82,0,0,0-1.14.3,3.11,3.11,0,0,0-.79,1.24c0,.18.75.75.75.75a1.26,1.26,0,0,1-.75.2,1.61,1.61,0,0,1-.78-.22s-.08,0-.08.06a6.31,6.31,0,0,1,.13.78c0,.27,0,.58,0,.74a.09.09,0,0,0,.09.09,2.59,2.59,0,0,0,1.3-.36,3.45,3.45,0,0,0,1.1-1.94,7.12,7.12,0,0,0,.49-1.72c0-.25-.28-.46-1-.46a2.84,2.84,0,0,0-2,.88C18.5,16.44,18.43,16.47,18.49,16.78Z" transform="translate(0 0)" fill="#212121"/><path d="M15.46,24.08a.44.44,0,0,0,.49.46.66.66,0,0,0,.49-.32,1,1,0,0,1-.47.15h-.19s.47-.06.47-.39a3.38,3.38,0,0,0-.19-.85s0,.53-.12.66S15.47,23.71,15.46,24.08Z" transform="translate(0 0)" fill="#212121"/><path d="M15.79,25.11a1.28,1.28,0,0,0,.69-.15.73.73,0,0,0,.31-.49,1.65,1.65,0,0,1-.43.4A1.54,1.54,0,0,1,15.79,25.11Z" transform="translate(0 0)" fill="#212121"/><path d="M15,25.3c.37,0,.79.1,1,.1a1.77,1.77,0,0,0,.36,0S16.19,26,15,26Z" transform="translate(0 0)" fill="#212121"/><path d="M15,29.86a8.85,8.85,0,0,0,2.18-.15l-.36.29a2.33,2.33,0,0,0,1.36-.65,2.51,2.51,0,0,0,.74-1v.39s.39-.27.47-1.77a8.26,8.26,0,0,0-.2-3c-.22-.72-.6-2.42-.6-2.42a8.67,8.67,0,0,1-.66,3.28,7.23,7.23,0,0,1-2.48,2.62.91.91,0,0,1-.44.12Z" transform="translate(0 0)" fill="#212121"/><path d="M16.81,15.44c0,.18.34.16.69.3s.34.31.52.31.51-.75,1.12-1.07,3.68-.25,4.51-.38a4.07,4.07,0,0,0,2.68-1.89A12.71,12.71,0,0,1,28,10.18a6.37,6.37,0,0,0,1-2.75,10.6,10.6,0,0,0,0-3.71c-.31-1.45-.56-3.37-.6-3.62s-.15-.1-.15,1,.18,2,.18,3.15A17,17,0,0,1,27.15,9.8c-.57.87-.82,1.12-.94,1.12a1.19,1.19,0,0,1-.71-.66,3,3,0,0,1,0-1.59c.16-.31.23-.93,0-.38A3.2,3.2,0,0,0,25,9.94a8.53,8.53,0,0,0,.32,1.63,1.81,1.81,0,0,1-1,1.43,4,4,0,0,1-2.62.33c-.15-.13.14-.05.61-.85A3.93,3.93,0,0,0,23,10.55a10,10,0,0,0,0-1.64c0-.28-.06,0-.28.85a5.29,5.29,0,0,1-1.27,2.51,4.94,4.94,0,0,1-2.19,1.16,2.91,2.91,0,0,0-1.89,1.1C17,15.13,16.81,15.34,16.81,15.44Z" transform="translate(0 0)" fill="#212121"/><path d="M12.7,20.67a.62.62,0,0,1-.71,0,.81.81,0,0,1-.14-.51,0,0,0,0,1,0,0c.08.12.26.34.46.34s.33-.21.45-.21a.29.29,0,0,1,.2.12C13.1,20.48,12.85,20.52,12.7,20.67Z" transform="translate(0 0)" fill="#212121"/><path d="M11.49,19.66a.86.86,0,0,1,.14.56.83.83,0,0,0,.72.77c.32,0,.68-.38.77-.49a.09.09,0,0,0,0-.06v-.33c0-.23-.48-1.06-.85-1.06a2.14,2.14,0,0,0-.71.2c-.08,0-.15-.05-.15-.28a9.69,9.69,0,0,1,.5-2.4,7.21,7.21,0,0,1,1.9-.8l1.16,0v3.84c-.08,0-.22-.17-.35-.26a5.4,5.4,0,0,1-1.38-.62,3.79,3.79,0,0,1-1-1.05.9.9,0,0,1,.06.32c0,.18-.21.3-.21.43s.18.13.38.24A17.46,17.46,0,0,1,13.74,20a.68.68,0,0,0-.25.56.67.67,0,0,0,.2.54,1,1,0,0,1,.09-.29c.06-.09.39-.48.59-.48s.29.19.33.31.2.41.3.41v1.1c-.17,0-.55,0-1.25.77S13.09,24,13,24a3.79,3.79,0,0,1-1-1.14,12.08,12.08,0,0,1-.51-2.61,2.11,2.11,0,0,0-.12-.79Z" transform="translate(0 0)" fill="#212121"/><path d="M12.86,19.9s-.23-.48-.57-.48a2.05,2.05,0,0,0-.45,0s.13.69.6.69S12.86,19.9,12.86,19.9Z" transform="translate(0 0)" fill="#212121"/><path d="M11.51,16.78a.05.05,0,0,1-.1,0,3.25,3.25,0,0,0-1.1-1,2.48,2.48,0,0,0-1.59-.32.55.55,0,0,0-.26.2,1.82,1.82,0,0,1,1.14.3,3.11,3.11,0,0,1,.79,1.24c0,.18-.75.75-.75.75a1.26,1.26,0,0,0,.75.2,1.61,1.61,0,0,0,.78-.22s.08,0,.08.06a6.31,6.31,0,0,0-.13.78c0,.27,0,.58,0,.74a.09.09,0,0,1-.09.09,2.59,2.59,0,0,1-1.3-.36,3.45,3.45,0,0,1-1.1-1.94,7.12,7.12,0,0,1-.49-1.72c0-.25.28-.46,1-.46a2.84,2.84,0,0,1,2,.88C11.5,16.44,11.57,16.47,11.51,16.78Z" transform="translate(0 0)" fill="#212121"/><path d="M14.54,24.08a.44.44,0,0,1-.49.46.66.66,0,0,1-.49-.32,1,1,0,0,0,.47.15h.19s-.47-.06-.47-.39a3.38,3.38,0,0,1,.19-.85s0,.53.12.66S14.53,23.71,14.54,24.08Z" transform="translate(0 0)" fill="#212121"/><path d="M14.21,25.11a1.28,1.28,0,0,1-.69-.15.73.73,0,0,1-.31-.49,1.65,1.65,0,0,0,.43.4A1.54,1.54,0,0,0,14.21,25.11Z" transform="translate(0 0)" fill="#212121"/><path d="M15,25.3c-.37,0-.79.1-1,.1a1.77,1.77,0,0,1-.36,0S13.81,26,15,26Z" transform="translate(0 0)" fill="#212121"/><path d="M15,29.86a8.85,8.85,0,0,1-2.18-.15l.36.29a2.33,2.33,0,0,1-1.36-.65,2.51,2.51,0,0,1-.74-1v.39s-.39-.27-.47-1.77a8.26,8.26,0,0,1,.2-3c.22-.72.6-2.42.6-2.42a8.67,8.67,0,0,0,.66,3.28,7.23,7.23,0,0,0,2.48,2.62.91.91,0,0,0,.44.12Z" transform="translate(0 0)" fill="#212121"/><path d="M13.19,15.44c0,.18-.34.16-.69.3s-.34.31-.52.31-.51-.75-1.12-1.07-3.68-.25-4.51-.38a4.07,4.07,0,0,1-2.68-1.89A12.71,12.71,0,0,0,2,10.18a6.37,6.37,0,0,1-.95-2.75,10.6,10.6,0,0,1,0-3.71c.31-1.45.56-3.37.6-3.62s.15-.1.15,1-.18,2-.18,3.15A17,17,0,0,0,2.85,9.8c.57.87.82,1.12.94,1.12a1.19,1.19,0,0,0,.71-.66,3,3,0,0,0,0-1.59c-.16-.31-.23-.93,0-.38A3.2,3.2,0,0,1,5,9.94a8.53,8.53,0,0,1-.32,1.63,1.81,1.81,0,0,0,1,1.43,4,4,0,0,0,2.62.33c.15-.13-.14-.05-.61-.85A3.93,3.93,0,0,1,7,10.55a10,10,0,0,1,0-1.64c0-.28.06,0,.28.85a5.29,5.29,0,0,0,1.27,2.51,4.94,4.94,0,0,0,2.19,1.16,2.91,2.91,0,0,1,1.89,1.1C13.05,15.13,13.19,15.34,13.19,15.44Z" transform="translate(0 0)" fill="#212121"/><rect width="30" height="30" fill="none"/></svg>