<!-- Copyright (c) 2023 Jan Stehno -->
<svg xmlns="http://www.w3.org/2000/svg" viewBox="0 0 300 300">
    <title>axisdeer</title>
    <g id="axisdeer">
        <g id="right">
            <path
                d="M173,206.68c1.44,1.43,5.5,1.54,7.15-.11,1.2-1.2,1.4-3.74,1.41-5a.23.23,0,0,0-.43-.14c-.78,1.16-2.55,3.42-4.61,3.42-2.76,0-3.23-2.16-4.45-2.16a3.34,3.34,0,0,0-2.06,1.22C169,204.8,171.52,205.24,173,206.68Z"
                transform="translate(0 0)" fill="#212121" />
            <path
                d="M185.11,196.57c-.82.82-1.44,2.8-1.44,5.61s-2.9,7.75-7.21,7.75c-3.13,0-6.76-3.86-7.69-4.92a1,1,0,0,1-.23-.62v-3.28c0-2.3,4.78-10.64,8.42-10.64s6.42,2.05,7.19,2.05,1.44-.47,1.44-2.77-2.88-21.89-5-24-16.66-8-19-8-8.82.31-11.62.31v38.5c.81,0,2.2-1.77,3.5-2.64s6.89-1.48,13.84-6.22a37.1,37.1,0,0,0,10.34-10.54,9.81,9.81,0,0,0-.57,3.26c0,1.82,2.11,3,2.11,4.31s-1.82,1.24-3.84,2.34-12.74,12.46-12.74,12.46a6.72,6.72,0,0,1,2.49,5.55c0,3.88-2,5.46-2,5.46a10.26,10.26,0,0,0-.87-2.92c-.57-1-3.88-4.79-5.94-4.79s-2.82,1.92-3.25,3.12S151,210,150,210v11c1.68,0,5.51.19,12.45,7.71s6.66,11.5,8.1,11.5,8.67-8.24,10.25-11.45,5.07-20.93,5.07-26.1a21,21,0,0,1,1.22-7.9S185.92,195.76,185.11,196.57Z"
                transform="translate(0 0)" fill="#212121" />
            <path
                d="M171.43,199s2.3-4.89,5.68-4.89a20.56,20.56,0,0,1,4.52.31s-1.34,6.9-6,6.9S171.43,199,171.43,199Z"
                transform="translate(0 0)" fill="#212121" />
            <path
                d="M184.9,167.79a.54.54,0,0,0,1,.22,33.72,33.72,0,0,1,11.07-10.45,24.62,24.62,0,0,1,15.9-3.16,5.45,5.45,0,0,1,2.54,2s-7.52-.52-11.4,3-7.91,10.63-7.91,12.4,7.57,7.43,7.57,7.43-2.54,2-7.52,2a16.52,16.52,0,0,1-7.84-2.14.5.5,0,0,0-.73.54,74.54,74.54,0,0,1,1.24,7.87c.21,2.61.27,5.8.29,7.35a.91.91,0,0,0,.95.91c2.47-.13,9.13-.72,12.94-3.61,4.74-3.59,7.33-8,11.06-19.35s4.89-14.61,4.89-17.19-2.78-4.6-9.91-4.6a28.57,28.57,0,0,0-19.93,8.71C185,164.35,184.33,164.66,184.9,167.79Z"
                transform="translate(0 0)" fill="#212121" />
            <path
                d="M154.6,240.84c-.08,2.73,2,4.56,4.92,4.56s4.92-3.23,4.92-3.23a10.56,10.56,0,0,1-4.78,1.51h-1.83s4.71-.61,4.71-3.85-2-8.55-2-8.55.11,5.32-1.18,6.58S154.71,237.1,154.6,240.84Z"
                transform="translate(0 0)" fill="#212121" />
            <path
                d="M157.9,251.05s4.17.34,6.95-1.48a6.93,6.93,0,0,0,3-4.89,15.66,15.66,0,0,1-4.31,4C160.92,250.24,159.58,250.86,157.9,251.05Z"
                transform="translate(0 0)" fill="#212121" />
            <path d="M150,253c3.7,0,7.9,1,10.13,1a21.1,21.1,0,0,0,3.59-.26s-1.79,6.65-13.72,6.65Z"
                transform="translate(0 0)" fill="#212121" />
            <path
                d="M150,298.56c17.22,0,21.84-1.47,21.84-1.47L168.21,300a23.2,23.2,0,0,0,13.62-6.47c6.35-6.1,7.32-10,7.32-10l0,3.88s3.84-2.76,4.7-17.7.15-23-2.06-30.22-5.93-24.24-5.93-24.24.19,18.44-6.61,32.81-23,25.19-24.79,26.18a8.42,8.42,0,0,1-4.43,1.19Z"
                transform="translate(0 0)" fill="#212121" />
            <path
                d="M168.1,154.45c0,1.72,3.38,1.51,6.9,2.94s3.45,3.09,5.25,3.09,5.05-7.47,11.18-10.73,36.73-2.49,45.07-3.78,22.77-9.34,26.79-18.89,11.5-18.68,16.46-25.29,8-17.6,9.41-27.45,3.28-22.72.21-37.19S283.82,3.53,283.43,1s-1.53-1-1.53,10.25,1.82,19.83,1.82,31.52S277.26,89.31,271.51,98s-8.19,11.21-9.39,11.21-5.79-2.93-7.09-6.66-2-12.74-.43-15.85,2.35-9.3-.24-3.84-4.07,8.77-4.07,16.48,3.16,13.89,3.16,16.28-1.29,9.06-10,14.37-24.65,4.67-26.15,3.31,1.36-.51,6.1-8.55,5.89-11.78,6.68-19.26a109.93,109.93,0,0,0,.51-16.45c-.15-2.8-.58-.21-2.81,8.55s-6.77,20.14-12.71,25.07S201.37,133,193.25,134.26a29.08,29.08,0,0,0-19,11.06C169.54,151.29,168.1,153.37,168.1,154.45Z"
                transform="translate(0 0)" fill="#212121" />
        </g>
        <g id="left">
            <path
                d="M127.05,206.68c-1.44,1.43-5.5,1.54-7.15-.11-1.2-1.2-1.4-3.74-1.41-5a.23.23,0,0,1,.43-.14c.78,1.16,2.55,3.42,4.61,3.42,2.76,0,3.23-2.16,4.45-2.16a3.34,3.34,0,0,1,2.06,1.22C131,204.8,128.48,205.24,127.05,206.68Z"
                transform="translate(0 0)" fill="#212121" />
            <path
                d="M114.89,196.57c.82.82,1.44,2.8,1.44,5.61s2.9,7.75,7.21,7.75c3.13,0,6.76-3.86,7.69-4.92a1,1,0,0,0,.23-.62v-3.28c0-2.3-4.78-10.64-8.42-10.64s-6.42,2.05-7.19,2.05-1.44-.47-1.44-2.77,2.88-21.89,5-24,16.66-8,19-8,8.82.31,11.62.31v38.5c-.81,0-2.2-1.77-3.5-2.64s-6.89-1.48-13.84-6.22a37.1,37.1,0,0,1-10.34-10.54,9.81,9.81,0,0,1,.57,3.26c0,1.82-2.11,3-2.11,4.31s1.82,1.24,3.84,2.34,12.74,12.46,12.74,12.46a6.72,6.72,0,0,0-2.49,5.55c0,3.88,2,5.46,2,5.46a10.26,10.26,0,0,1,.87-2.92c.57-1,3.88-4.79,5.94-4.79s2.82,1.92,3.25,3.12S149,210,150,210v11c-1.68,0-5.51.19-12.45,7.71s-6.66,11.5-8.1,11.5-8.67-8.24-10.25-11.45-5.07-20.93-5.07-26.1a21,21,0,0,0-1.22-7.9S114.08,195.76,114.89,196.57Z"
                transform="translate(0 0)" fill="#212121" />
            <path
                d="M128.57,199s-2.3-4.89-5.68-4.89a20.56,20.56,0,0,0-4.52.31s1.34,6.9,6,6.9S128.57,199,128.57,199Z"
                transform="translate(0 0)" fill="#212121" />
            <path
                d="M115.1,167.79a.54.54,0,0,1-1,.22,33.72,33.72,0,0,0-11.07-10.45,24.62,24.62,0,0,0-15.9-3.16,5.45,5.45,0,0,0-2.54,2s7.52-.52,11.4,3,7.91,10.63,7.91,12.4-7.57,7.43-7.57,7.43,2.54,2,7.52,2a16.52,16.52,0,0,0,7.84-2.14.5.5,0,0,1,.73.54,74.54,74.54,0,0,0-1.24,7.87c-.21,2.61-.27,5.8-.29,7.35a.91.91,0,0,1-1,.91c-2.47-.13-9.13-.72-12.94-3.61-4.74-3.59-7.33-8-11.06-19.35s-4.89-14.61-4.89-17.19,2.78-4.6,9.91-4.6a28.57,28.57,0,0,1,19.93,8.71C115,164.35,115.67,164.66,115.1,167.79Z"
                transform="translate(0 0)" fill="#212121" />
            <path
                d="M145.4,240.84c.08,2.73-2,4.56-4.92,4.56s-4.92-3.23-4.92-3.23a10.56,10.56,0,0,0,4.78,1.51h1.83s-4.71-.61-4.71-3.85,2-8.55,2-8.55-.11,5.32,1.18,6.58S145.29,237.1,145.4,240.84Z"
                transform="translate(0 0)" fill="#212121" />
            <path
                d="M142.1,251.05s-4.17.34-6.95-1.48a6.93,6.93,0,0,1-3-4.89,15.66,15.66,0,0,0,4.31,4C139.08,250.24,140.42,250.86,142.1,251.05Z"
                transform="translate(0 0)" fill="#212121" />
            <path d="M150,253c-3.7,0-7.9,1-10.13,1a21.1,21.1,0,0,1-3.59-.26s1.79,6.65,13.72,6.65Z"
                transform="translate(0 0)" fill="#212121" />
            <path
                d="M150,298.56c-17.22,0-21.84-1.47-21.84-1.47l3.63,2.91a23.2,23.2,0,0,1-13.62-6.47c-6.35-6.1-7.32-10-7.32-10l0,3.88s-3.84-2.76-4.7-17.7-.15-23,2.06-30.22,5.93-24.24,5.93-24.24-.19,18.44,6.61,32.81,23,25.19,24.79,26.18a8.42,8.42,0,0,0,4.43,1.19Z"
                transform="translate(0 0)" fill="#212121" />
            <path
                d="M131.9,154.45c0,1.72-3.38,1.51-6.9,2.94s-3.45,3.09-5.25,3.09-5-7.47-11.18-10.73S71.84,147.26,63.5,146s-22.77-9.34-26.79-18.89-11.5-18.68-16.46-25.29-8-17.6-9.41-27.45-3.28-22.72-.21-37.19S16.18,3.53,16.57,1,18.1,0,18.1,11.29s-1.82,19.83-1.82,31.52S22.74,89.31,28.49,98s8.19,11.21,9.39,11.21,5.79-2.93,7.09-6.66,2-12.74.43-15.85-2.35-9.3.24-3.84,4.07,8.77,4.07,16.48-3.16,13.89-3.16,16.28,1.29,9.06,10,14.37,24.65,4.67,26.15,3.31-1.36-.51-6.1-8.55S70.69,113,69.9,105.52a109.93,109.93,0,0,1-.51-16.45c.15-2.8.58-.21,2.81,8.55S79,117.76,84.91,122.69,98.63,133,106.75,134.26a29.08,29.08,0,0,1,19,11.06C130.46,151.29,131.9,153.37,131.9,154.45Z"
                transform="translate(0 0)" fill="#212121" />
        </g>
    </g>
    <g id="frame">
        <rect width="300" height="300" fill="none" />
    </g>
</svg>