<svg xmlns="http://www.w3.org/2000/svg" viewBox="0 0 30 30"><path d="M15,8a5.84,5.84,0,0,1,3,.48,10.74,10.74,0,0,1,1.47,1.59.78.78,0,0,1,0,.87c-.13.22-.18.13-.62,0a9.15,9.15,0,0,0-2.45-.67,5.78,5.78,0,0,0-1.39.25Z" transform="translate(0)" fill="#212121"/><path d="M18.9,9c0-.15.48.1,3.46.22s4.71.15,5.61-1.34a14.44,14.44,0,0,0,1.56-4.28c.14-.75.31,0,.43,1.11a7.28,7.28,0,0,1-.64,3.86,5.65,5.65,0,0,1-3.46,2.62,24.29,24.29,0,0,1-3.77.51,13.51,13.51,0,0,1-2,.26,2.77,2.77,0,0,1-.31-.85c0-.14.22-.12.22-.54S18.9,9.13,18.9,9Z" transform="translate(0)" fill="#212121"/><path d="M19.83,14.53a1.84,1.84,0,0,1,0,1.26.76.76,0,0,1-.64.24.39.39,0,0,1-.42-.43C18.72,15.29,19.64,14.34,19.83,14.53Z" transform="translate(0)" fill="#212121"/><path d="M15,26.12A4.48,4.48,0,0,0,17,25.84c.2-.16.32-.09-.1.38a4,4,0,0,1-1.85.5Z" transform="translate(0)" fill="#212121"/><path d="M26.62,12.72a8.31,8.31,0,0,0-3.2-.76,19.06,19.06,0,0,0-2.41.5c-.49,0-.59-.21-.86-.21s.21.41.21,1.59a17.76,17.76,0,0,1-.25,1.81c.11.11.4-.21,1-.21s2,1.68,2.92,1.68,2.5-1.18,3.11-1.49,1-.41,1-1A2.32,2.32,0,0,0,26.62,12.72Zm1,1.82c-.09-.25-.17-.38-.66-.79s-.94-.26-1.56,0-.92.65-1.62.76c-.53.08-.52.07-.15-.1a2.42,2.42,0,0,0,.89-.66A2,2,0,0,1,26,13.08a1.63,1.63,0,0,1,1.42.75C27.76,14.31,27.73,14.79,27.65,14.54Z" transform="translate(0)" fill="#212121"/><path d="M20,12.9a2.33,2.33,0,0,0-.92-1.55,4.69,4.69,0,0,0-2.46-.83,12.68,12.68,0,0,0-1.6.2V25.84a4.74,4.74,0,0,0,2.13-.44,2.42,2.42,0,0,0,1-1.95,1.54,1.54,0,0,0-.62-1.23,1.68,1.68,0,0,0-1.15,0c-.37.11-.55.15-.15-.06a2.36,2.36,0,0,1,1.11-.33c.33,0,.67.37.46,0a2.66,2.66,0,0,1-.42-.82,15.26,15.26,0,0,1-.05-2.73c.05-1.15.34-2,.26-1.52a12.48,12.48,0,0,0-.06,2.48c.06,1.4.09,1.73.35,2.2s.28.7.54.2.78-1.6,1.13-2.53a7.9,7.9,0,0,0,.24-2.72c0-.37-.36-.11-.83-.11s-.65-.13-.65-.48a1.41,1.41,0,0,1,.3-1,4.63,4.63,0,0,1,1.22-.79C20.13,13.91,20.06,13.49,20,12.9Zm-2.8,9.7c.17,0,.19.37.19.7a.91.91,0,0,1-.54.95c-.48.19-.5.2-.5-.15A2.89,2.89,0,0,1,17.18,22.6Z" transform="translate(0)" fill="#212121"/><path d="M15,8a5.84,5.84,0,0,0-3,.48,10.74,10.74,0,0,0-1.47,1.59.78.78,0,0,0,0,.87c.13.22.18.13.62,0a9.15,9.15,0,0,1,2.45-.67,5.78,5.78,0,0,1,1.39.25Z" transform="translate(0)" fill="#212121"/><path d="M11.1,9c0-.15-.48.1-3.46.22S2.93,9.35,2,7.86A14.44,14.44,0,0,1,.47,3.58C.33,2.83.16,3.61,0,4.69A7.28,7.28,0,0,0,.68,8.55a5.65,5.65,0,0,0,3.46,2.62,24.29,24.29,0,0,0,3.77.51,13.51,13.51,0,0,0,2,.26,2.77,2.77,0,0,0,.31-.85c0-.14-.22-.12-.22-.54S11.1,9.13,11.1,9Z" transform="translate(0)" fill="#212121"/><path d="M10.17,14.53a1.84,1.84,0,0,0,.05,1.26.76.76,0,0,0,.64.24.39.39,0,0,0,.42-.43C11.28,15.29,10.36,14.34,10.17,14.53Z" transform="translate(0)" fill="#212121"/><path d="M15,26.12a4.48,4.48,0,0,1-1.95-.28c-.2-.16-.32-.09.1.38a4,4,0,0,0,1.85.5Z" transform="translate(0)" fill="#212121"/><path d="M1.85,14.66c0,.56.37.66,1,1s2.22,1.49,3.11,1.49,2.29-1.68,2.92-1.68.92.32,1,.21a17.76,17.76,0,0,1-.25-1.81c0-1.18.47-1.59.21-1.59s-.37.21-.86.21A19.06,19.06,0,0,0,6.58,12a8.31,8.31,0,0,0-3.2.76A2.32,2.32,0,0,0,1.85,14.66Zm.71-.83A1.63,1.63,0,0,1,4,13.08a2,2,0,0,1,1.47.64,2.42,2.42,0,0,0,.89.66c.37.17.38.18-.15.1-.7-.11-1-.53-1.62-.76s-1.07-.38-1.56,0-.57.54-.66.79S2.24,14.31,2.56,13.83Z" transform="translate(0)" fill="#212121"/><path d="M10.18,14.08a4.63,4.63,0,0,1,1.22.79,1.41,1.41,0,0,1,.3,1c0,.35-.18.48-.65.48s-.83-.26-.83.11a7.9,7.9,0,0,0,.24,2.72c.35.93.88,2,1.13,2.53s.29.27.54-.2.29-.8.35-2.2a12.48,12.48,0,0,0-.06-2.48c-.08-.47.21.37.26,1.52a15.26,15.26,0,0,1,0,2.73,2.66,2.66,0,0,1-.42.82c-.21.34.13,0,.46,0a2.36,2.36,0,0,1,1.11.33c.4.21.22.17-.15.06a1.68,1.68,0,0,0-1.15,0,1.54,1.54,0,0,0-.62,1.23,2.42,2.42,0,0,0,1,1.95,4.74,4.74,0,0,0,2.13.44V10.72a12.68,12.68,0,0,0-1.6-.2,4.69,4.69,0,0,0-2.46.83A2.33,2.33,0,0,0,10,12.9C9.94,13.49,9.87,13.91,10.18,14.08Zm3.49,10c0,.35,0,.34-.5.15a.91.91,0,0,1-.54-.95c0-.33,0-.7.19-.7A2.89,2.89,0,0,1,13.67,24.1Z" transform="translate(0)" fill="#212121"/><rect width="30" height="30" fill="none"/></svg>