<!-- Copyright (c) 2022 - 2023 Jan Stehno -->
<svg xmlns="http://www.w3.org/2000/svg" viewBox="0 0 300 300"><title>banteng</title><g id="banteng"><g id="right"><path d="M150,79.94c18.14,0,27.19,2.59,29.93,4.79s12.42,12.18,14.67,15.9a7.64,7.64,0,0,1,0,8.7c-1.32,2.2-1.81,1.23-6.21-.24s-16.68-6.65-24.5-6.65-12,2.49-13.89,2.49Z" transform="translate(0)" fill="#212121"/><path d="M189,89.78c0-1.5,4.8,1.07,34.59,2.24s47.11,1.52,56.11-13.45S294,43.36,295.34,35.83s3,.29,4.31,11.05-.88,29.93-6.46,38.64-16.14,22-34.62,26.21-24.46,3.62-37.66,5.08-19.45,3.45-20.29,2.61-3.12-7-3.12-8.47,2.2-1.25,2.2-5.43S189,91.25,189,89.78Z" transform="translate(0)" fill="#212121"/><path d="M198.3,145.31c1,1,1.47,10.42-.51,12.58s-4.11,2.39-6.38,2.39-4.18-1.29-4.18-4.33S196.43,143.44,198.3,145.31Z" transform="translate(0)" fill="#212121"/><path d="M150,261.22c9,0,16.81-.88,19.48-2.87,2.06-1.54,3.19-.85-1,3.89-1.79,2.06-12.72,4.92-18.52,4.92Z" transform="translate(0)" fill="#212121"/><path d="M266.24,127.23c-11.19-4.84-22.15-7.61-32.08-7.61s-19.12,5-24.06,5-5.87-2.15-8.56-2.15,2.11,4.07,2.11,15.92-3.52,17.06-2.52,18.05,3.92-2.09,10.23-2.09,20.41,16.87,29.26,16.87,25-11.88,31.08-15,9.75-4.11,9.75-9.63S277.44,132.07,266.24,127.23Zm10.23,18.16c-.88-2.5-1.69-3.82-6.57-7.89s-9.43-2.57-15.59-.29-9.22,6.52-16.25,7.59c-5.28.81-5.2.7-1.43-1s4.66-2.61,8.84-6.64,8.4-6.46,14.71-6.46a16.18,16.18,0,0,1,14.19,7.56C277.6,143.11,277.35,147.88,276.47,145.39Z" transform="translate(0)" fill="#212121"/><path d="M199.78,129a23.59,23.59,0,0,0-9.19-15.55c-5.38-4.11-16.09-8.27-24.64-8.27s-12.5,2-15.95,2V258.35c4.44,0,14.49-.47,21.33-4.36s10.07-13.72,10.07-19.48-3.49-10.71-6.16-12.36-7.85-1-11.52.08-5.5,1.5-1.54-.66a24.09,24.09,0,0,1,11.17-3.29c3.28,0,6.68,3.68,4.57.3s-3.32-4.74-4.23-8.16-.95-15.75-.46-27.29,3.32-19.95,2.54-15.26-1.07,10.91-.53,24.84.83,17.27,3.42,22,2.88,7,5.43,2,7.82-16,11.34-25.29,2.35-23.62,2.35-27.24-3.57-1.07-8.27-1.07-6.5-1.27-6.5-4.79.49-6.41,3-9.59,9.2-6.21,12.23-7.92S200.62,134.86,199.78,129Zm-28,97c1.73,0,1.87,3.74,1.87,7s-.62,7.59-5.42,9.46-5,1.94-5-1.54C163.28,235.72,170.94,226,171.82,226Z" transform="translate(0)" fill="#212121"/></g><g id="left"><path d="M150,79.94c-18.14,0-27.19,2.59-29.93,4.79s-12.42,12.18-14.67,15.9a7.64,7.64,0,0,0,0,8.7c1.32,2.2,1.81,1.23,6.21-.24s16.68-6.65,24.5-6.65,12,2.49,13.89,2.49Z" transform="translate(0)" fill="#212121"/><path d="M111,89.78c0-1.5-4.8,1.07-34.59,2.24S29.31,93.54,20.31,78.57,6,43.36,4.66,35.83s-3,.29-4.31,11.05.88,29.93,6.46,38.64,16.14,22,34.62,26.21,24.46,3.62,37.66,5.08,19.45,3.45,20.29,2.61,3.12-7,3.12-8.47-2.2-1.25-2.2-5.43S111,91.25,111,89.78Z" transform="translate(0)" fill="#212121"/><path d="M101.7,145.31c-1,1-1.47,10.42.51,12.58s4.11,2.39,6.38,2.39,4.18-1.29,4.18-4.33S103.57,143.44,101.7,145.31Z" transform="translate(0)" fill="#212121"/><path d="M150,261.22c-9,0-16.81-.88-19.48-2.87-2.06-1.54-3.19-.85,1,3.89,1.79,2.06,12.72,4.92,18.52,4.92Z" transform="translate(0)" fill="#212121"/><path d="M18.55,146.65c0,5.52,3.66,6.55,9.75,9.63s22.23,15,31.08,15,22.95-16.87,29.26-16.87,9.11,3.21,10.23,2.09-2.52-6.19-2.52-18.05,4.8-15.92,2.11-15.92-3.62,2.15-8.56,2.15-14.14-5-24.06-5S45,122.39,33.76,127.23,18.55,141.12,18.55,146.65Zm7.08-8.34a16.18,16.18,0,0,1,14.19-7.56c6.31,0,10.53,2.42,14.71,6.46s5.06,5,8.84,6.64,3.85,1.76-1.43,1c-7-1.07-10.09-5.32-16.25-7.59S35,133.43,30.1,137.5s-5.69,5.39-6.57,7.89S22.4,143.11,25.63,138.31Z" transform="translate(0)" fill="#212121"/><path d="M101.78,140.78c3,1.71,9.73,4.74,12.23,7.92s3,6.06,3,9.59-1.81,4.79-6.5,4.79-8.27-2.55-8.27,1.07-1.17,17.9,2.35,27.24,8.8,20.25,11.34,25.29,2.84,2.69,5.43-2,2.88-8,3.42-22,.25-20.14-.53-24.84,2,3.72,2.54,15.26.44,23.86-.46,27.29-2.13,4.79-4.23,8.16,1.29-.3,4.57-.3a24.09,24.09,0,0,1,11.17,3.29c4,2.16,2.13,1.68-1.54.66s-8.84-1.73-11.52-.08-6.16,6.61-6.16,12.36,3.23,15.59,10.07,19.48,16.89,4.36,21.33,4.36V107.23c-3.45,0-7.41-2-15.95-2s-19.26,4.16-24.64,8.27A23.59,23.59,0,0,0,100.22,129C99.38,134.86,98.75,139.07,101.78,140.78ZM136.72,241c0,3.48-.18,3.41-5,1.54s-5.42-6.16-5.42-9.46.14-7,1.87-7C129.06,226,136.72,235.72,136.72,241Z" transform="translate(0)" fill="#212121"/></g></g><g id="frame"><rect width="300" height="300" fill="none"/></g></svg>