<svg xmlns="http://www.w3.org/2000/svg" viewBox="0 0 30 30"><path d="M15,15.89c.23,0,.51-.05,1.25-.05a3.71,3.71,0,0,1,1.33.25s-.2-.19-.2-.33,0-.31.53-.31,1.19.43,1.19.88S19,17,18.87,17a1,1,0,0,1-.38-.16s1.17.95,1.17,1.37-.17,1.52-.71,1.52-.59-.24-1-.24-.74,1.39-.93,1.63,0,.23,0,.84c0,0,.25-.13.25-.68v-.32s.1.1.47.1.88-.42.88-.75v-.47a1,1,0,0,1,.19.53.9.9,0,0,1-.48.75,1.88,1.88,0,0,1-.75.2A1.66,1.66,0,0,0,18.76,21a1.15,1.15,0,0,0,.4-.81,4.65,4.65,0,0,1,.06.91A3.39,3.39,0,0,1,18.48,23a6.23,6.23,0,0,0-.57,1.88,6.19,6.19,0,0,1-.2-1,4.26,4.26,0,0,0-.86-1.49s.29,1.09.65,2.19a6.5,6.5,0,0,1,.5,2.19A1.44,1.44,0,0,1,17.26,28a6.67,6.67,0,0,1-1.21.49,3.43,3.43,0,0,0,1-1.15c.25-.6.33-.81-.24-1s-.69-.3-1.09,0-.43.51-.75.51Z" transform="translate(0 0)" fill="#212121"/><path d="M15.65,27.68c0,.19.14.17.36.17s.39-.17.28-.28a.28.28,0,0,1,0-.39c.11-.11.15,0,.32,0s.18-.14,0-.32-.25,0-.43.14S15.65,27.47,15.65,27.68Z" transform="translate(0 0)" fill="#212121"/><path d="M15,29.24a4.25,4.25,0,0,0,1.92-.41,3.91,3.91,0,0,0,.6-.48A2.83,2.83,0,0,1,15,30Z" transform="translate(0 0)" fill="#212121"/><path d="M19.32,21.77a1.87,1.87,0,0,1,1.25-.58c.81-.07,1.82,0,2.33-.05s1.25-.94,1.92-2.18A9.9,9.9,0,0,0,26,15.81c0-.51-.24-.75-.67-.75a13.86,13.86,0,0,0-3.44.88A3.93,3.93,0,0,0,20,18.09a5.71,5.71,0,0,0-.42,1.58c0,.36-.12.47.53.47s1.33,0,1.33,0L21,19.82a2.21,2.21,0,0,0,.66-.14,1.72,1.72,0,0,0,.6-.47l-.77.12c-.43.06-.78.08-.78.08a6.42,6.42,0,0,0,1-.36c.34-.17.9-.53.9-.53s-.63.07-1.06.16-.78.12-.78.12a14.71,14.71,0,0,0,1.55-.63,4.49,4.49,0,0,0,.69-.48s-1.06.2-1.53.34a7.39,7.39,0,0,1-.91.19,2.41,2.41,0,0,1,1.14-1.4,6.57,6.57,0,0,1,2.12-.92c.66-.16,1.59-.29,1.59-.29a3.41,3.41,0,0,1-.65.28c-.37.11-.36.13-.36.74a5.84,5.84,0,0,1-1,2.7,2,2,0,0,1-1.94,1.15A14.26,14.26,0,0,1,20,20.27c-.44,0-.4.05-.4.39A5.34,5.34,0,0,1,19.32,21.77Z" transform="translate(0 0)" fill="#212121"/><path d="M18,15.15c0,.16.25.1.58.3s.46.43.52.29a3.34,3.34,0,0,1,1.34-1.5,4.35,4.35,0,0,1,1.86-.52,2.1,2.1,0,0,0,1.6-1.13c.35-.68.79-1.56,1.28-2.53s1.51-3.22,2-4.16c.69-1.3.54-1.48.34-3.19-.15-1.3-.25-1.77-.6-2A5.73,5.73,0,0,0,25.4,0c-.34,0-.32.07.25.45s1.1.67,1.17,1.4a9.26,9.26,0,0,1-.06,2.91c-.24.47-.48.9-.48.9a1.65,1.65,0,0,1,.07.58,1.47,1.47,0,0,1-.15.59,3.6,3.6,0,0,0-.38-2A5.23,5.23,0,0,0,24.51,3c-.3-.23-.35,0,.06.52a4.76,4.76,0,0,1,1,2.17,2.73,2.73,0,0,1-.18,1.73c-.3.61-.76,1.62-.76,1.62a1.33,1.33,0,0,1,.18.43,2.1,2.1,0,0,1,.07.46,8.66,8.66,0,0,0-1-1.45,3.38,3.38,0,0,1-1-2c-.13-1-.18-2.67-.19-3.36s-.21-.28-.24.44a20.89,20.89,0,0,1-.13,2.6c-.11.2-.47.05-.86-.37a5,5,0,0,1-.85-1.22c-.2-.38-.13.27.13.81a3.74,3.74,0,0,0,1.12,1.46,11.11,11.11,0,0,1,1.83,2.74c.28.59.43,1,.1,1.48a5.84,5.84,0,0,0-.59,1.18c-.14.3-.6.6-1.45.7a3.64,3.64,0,0,0-1.83.63,2.62,2.62,0,0,0-.72,1.39,4.83,4.83,0,0,1,.38-1.9,6.38,6.38,0,0,0,.85-2.4,5.3,5.3,0,0,0-1.51-2.92c-.77-.72-.22.16.25.94a3,3,0,0,1,.47,1.75C19.6,11.47,18,14.6,18,15.15Z" transform="translate(0 0)" fill="#212121"/><path d="M15,15.89c-.23,0-.51-.05-1.25-.05a3.71,3.71,0,0,0-1.33.25s.2-.19.2-.33,0-.31-.53-.31-1.19.43-1.19.88.09.65.23.65a1,1,0,0,0,.38-.16s-1.17.95-1.17,1.37.17,1.52.71,1.52.59-.24,1-.24.74,1.39.93,1.63,0,.23,0,.84c0,0-.25-.13-.25-.68v-.32s-.1.1-.47.1-.88-.42-.88-.75v-.47a1,1,0,0,0-.19.53.9.9,0,0,0,.48.75,1.88,1.88,0,0,0,.75.2A1.66,1.66,0,0,1,11.24,21a1.15,1.15,0,0,1-.4-.81,4.65,4.65,0,0,0-.06.91A3.39,3.39,0,0,0,11.52,23a6.23,6.23,0,0,1,.57,1.88,6.19,6.19,0,0,0,.2-1,4.26,4.26,0,0,1,.86-1.49s-.29,1.09-.65,2.19a6.5,6.5,0,0,0-.5,2.19A1.44,1.44,0,0,0,12.74,28a6.67,6.67,0,0,0,1.21.49,3.43,3.43,0,0,1-1-1.15c-.25-.6-.33-.81.24-1s.69-.3,1.09,0,.43.51.75.51Z" transform="translate(0 0)" fill="#212121"/><path d="M14.35,27.68c0,.19-.14.17-.36.17s-.39-.17-.28-.28a.28.28,0,0,0,0-.39c-.11-.11-.15,0-.32,0s-.18-.14,0-.32.25,0,.43.14S14.35,27.47,14.35,27.68Z" transform="translate(0 0)" fill="#212121"/><path d="M15,29.24a4.25,4.25,0,0,1-1.92-.41,3.91,3.91,0,0,1-.6-.48A2.83,2.83,0,0,0,15,30Z" transform="translate(0 0)" fill="#212121"/><path d="M10.68,21.77a1.87,1.87,0,0,0-1.25-.58c-.81-.07-1.82,0-2.33-.05S5.85,20.2,5.18,19A9.9,9.9,0,0,1,4,15.81c0-.51.24-.75.67-.75a13.86,13.86,0,0,1,3.44.88A3.93,3.93,0,0,1,10,18.09a5.71,5.71,0,0,1,.42,1.58c0,.36.12.47-.53.47s-1.33,0-1.33,0L9,19.82a2.21,2.21,0,0,1-.66-.14,1.72,1.72,0,0,1-.6-.47l.77.12c.43.06.78.08.78.08a6.42,6.42,0,0,1-1-.36c-.34-.17-.9-.53-.9-.53s.63.07,1.06.16.78.12.78.12a14.71,14.71,0,0,1-1.55-.63A4.49,4.49,0,0,1,7,17.69S8,17.89,8.5,18a7.39,7.39,0,0,0,.91.19,2.41,2.41,0,0,0-1.14-1.4,6.57,6.57,0,0,0-2.12-.92c-.66-.16-1.59-.29-1.59-.29a3.41,3.41,0,0,0,.65.28c.37.11.36.13.36.74a5.84,5.84,0,0,0,1,2.7,2,2,0,0,0,1.94,1.15A14.26,14.26,0,0,0,10,20.27c.44,0,.4.05.4.39A5.34,5.34,0,0,0,10.68,21.77Z" transform="translate(0 0)" fill="#212121"/><path d="M12,15.15c0,.16-.25.1-.58.3s-.46.43-.52.29a3.34,3.34,0,0,0-1.34-1.5,4.35,4.35,0,0,0-1.86-.52,2.1,2.1,0,0,1-1.6-1.13c-.35-.68-.79-1.56-1.28-2.53s-1.51-3.22-2-4.16c-.69-1.3-.54-1.48-.34-3.19.15-1.3.25-1.77.6-2A5.73,5.73,0,0,1,4.6,0c.34,0,.32.07-.25.45s-1.1.67-1.17,1.4a9.26,9.26,0,0,0,.06,2.91c.24.47.48.9.48.9a1.65,1.65,0,0,0-.07.58,1.47,1.47,0,0,0,.15.59,3.6,3.6,0,0,1,.38-2A5.23,5.23,0,0,1,5.49,3c.3-.23.35,0-.06.52a4.76,4.76,0,0,0-1,2.17,2.73,2.73,0,0,0,.18,1.73c.3.61.76,1.62.76,1.62a1.33,1.33,0,0,0-.18.43,2.1,2.1,0,0,0-.07.46,8.66,8.66,0,0,1,1-1.45,3.38,3.38,0,0,0,1-2c.13-1,.18-2.67.19-3.36s.21-.28.24.44a20.89,20.89,0,0,0,.13,2.6c.11.2.47.05.86-.37a5,5,0,0,0,.85-1.22c.2-.38.13.27-.13.81A3.74,3.74,0,0,1,8.18,6.82,11.11,11.11,0,0,0,6.35,9.56c-.28.59-.43,1-.1,1.48a5.84,5.84,0,0,1,.59,1.18c.14.3.6.6,1.45.7a3.64,3.64,0,0,1,1.83.63,2.62,2.62,0,0,1,.72,1.39,4.83,4.83,0,0,0-.38-1.9,6.38,6.38,0,0,1-.85-2.4,5.3,5.3,0,0,1,1.51-2.92c.77-.72.22.16-.25.94a3,3,0,0,0-.47,1.75C10.4,11.47,12,14.6,12,15.15Z" transform="translate(0 0)" fill="#212121"/><rect width="30" height="30" fill="none"/></svg>