<!-- Copyright (c) 2023 Jan Stehno -->
<svg xmlns="http://www.w3.org/2000/svg" viewBox="0 0 300 300">
    <title>beceiteibex</title>
    <g id="beceiteibex">
        <g id="right">
            <path
                d="M184.77,177.67a47.73,47.73,0,0,0-5.06,1.48,5.4,5.4,0,0,1,2.23-2.63c1.51-.73,4.31-1.28,5.74-2.72s.78-10.55.78-10.55a13.74,13.74,0,0,1-3.5,5,37.4,37.4,0,0,0-9.63,11.57c-2.67,5.4-2.14,7.24-3,11.57a19.15,19.15,0,0,1-3,7.2,55.6,55.6,0,0,0,1.6-12.79,52.61,52.61,0,0,0-1.5-12.35,4.86,4.86,0,0,1,1.89,2.53,27.25,27.25,0,0,1,.73,4.13,74,74,0,0,1,3.8-8.22c2.09-3.74,4.91-4.76,8.16-7.14s3.36-6.08,3.36-9.92-.83-3.79-13.91-9.19S154.76,141.1,150,141.1v88.28c1.56,0,2.63-1.27,3.79-2.43s2.6-1.49,4.23-3.12,2.48-7.63,2.48-7.63a31.66,31.66,0,0,0,.83,4.33c.39,1,1.32,1.61,1.32,2.85s-.45,2.57-3.86,6-6,4.34-8.79,4.34v9.85c1.55,1.55,7.88.51,12.91-3.35s6.27-9.7,6.27-16.2,3.21-17.21,5.4-19.69,6.32-9.26,6.32-11.67-2.07-1.94-3.55-3.43-1.46-5.2-1.46-5.2a8.94,8.94,0,0,0,2.21,3.36c1.74,1.73,6.18,2.06,8.2,0s1.5-9.58,1.26-10S186.47,177.35,184.77,177.67Zm-.76,9c-2.07.85-5-1.12-5-1.12s3,.56,4.79-.59a7.53,7.53,0,0,0,2.62-3.16S186.08,185.83,184,186.69Z"
                transform="translate(0)" fill="#212121" />
            <path
                d="M150,246c2.72,0,2.38.34,4.67.34s7.73-3.65,9.09-3.65.83,4-3.89,6.76-5.88,4-9.87,4Z"
                transform="translate(0)" fill="#212121" />
            <path
                d="M191,174c1,1,5.3-4.38,13.66-4.38s11.77,0,11.77-1.17-2-1.36-2-2.72,13.91-1.75,12.06.29-5.35,5.45-8.75,6.95-7.54,7.88-13.47,7.88-10.7-1.41-11.13-1,2.72,4.42,9.58,4.42,12.3-5.25,15.12-8,7.19-3.16,10.84-6.81,4.81-5.2,1.8-6.51-15.9-6.13-22.17-6.13-14.61.41-15.51,1.31.43,8.81-.44,11.33S190.45,173.41,191,174Z"
                transform="translate(0)" fill="#212121" />
            <path
                d="M155.79,137.19c1.38,1.38,9,1.55,16.87,4.76s10.94,5.16,13,5.16,2-1.46,2-8.8,1-8.8,1-10.9-4.86-5-13.71-7.34-11.67-1.55-13.12-.14-2.58,1.31-4-.73-3-2-3,3.16S154.57,136,155.79,137.19Z"
                transform="translate(0)" fill="#212121" />
            <path
                d="M159.87,118.42c1.95,0,1.8-2,5-2s19.23,3.82,21.73,6.33,5.4-10.6,5.4-12.45-4.33-5.74-11.33-9.68S170.3,96.22,168.57,98s-3.25.34-3.25-1.7S162,92.16,162,95.91s-4.28,17.45-4.28,19.3S158.75,118.42,159.87,118.42Z"
                transform="translate(0)" fill="#212121" />
            <path
                d="M168.33,95.52c1.85,0,1-1.27,2.53-1.27s12.35,5.26,15.85,7.93,4.38,4.42,5.35,4.42,6.08-8.5,6.08-10.45-7.25-7.88-12.6-10.84-7.66-3.53-9.24-2-2.77.34-2.77-1.85-2.28-3.3-3.21-.63-2.84,7.55-3.69,10.12C166.14,92.45,167.31,95.52,168.33,95.52Z"
                transform="translate(0)" fill="#212121" />
            <path
                d="M176.74,80.64c1.19-1.19,9,1.56,13.86,5.49s6.81,6.81,8,6.81,5.3-4.28,5.3-6-5.1-9.24-9.28-12.93-6.52-4.91-7.78-3.65-2.39.59-2.39-1.94-3.21-3.46-3.21-1.41-6.61,9.28-6.61,11.08S175.19,82.2,176.74,80.64Z"
                transform="translate(0)" fill="#212121" />
            <path
                d="M187.73,68.44c2.24,0,7.88,1.84,12.35,8.07s4.23,7.68,5.5,7.68,5.83-3.94,5.83-5.59-4.86-11-8.36-14.74S199.3,62,197.84,62s-1.75-.54-1.75-2.24-1.21-2.63-3.3-.53-6.61,4.37-6.61,6.41S185.74,68.44,187.73,68.44Z"
                transform="translate(0)" fill="#212121" />
            <path
                d="M199.89,59.73c1.54-1.55,6.42,4.09,9.53,9.82s2.91,8.17,4.13,8.17,7.39-5.1,7.39-6.71-3.16-8.6-6.27-12-4.62-2.57-6.57-2.57-2.84-1.2-1.79-2.24-1.07-2.34-2.39-1S198,57.64,198,58.61,198.94,60.68,199.89,59.73Z"
                transform="translate(0)" fill="#212121" />
            <path
                d="M210.15,54.67c2.52,0,6.27,1.27,8.85,6.28s2.82,9.92,4.18,9.92S230,69,230,66.54s-3-10.94-4.81-13.42-6.13-.29-6.13-1.56,1.12-.92,1.12-2.33-3.4-.33-6.61,1.6S204.8,54.67,210.15,54.67Z"
                transform="translate(0)" fill="#212121" />
            <path
                d="M223.61,50.49c2.29,0,5.11,3.41,6.52,9.19S231.44,67,233,67s6.81-1.51,6.81-3.07-1.12-8.26-2.58-10.69-4-5-2.43-5,1.85-1.66-.93-1.66S216.81,50.49,223.61,50.49Z"
                transform="translate(0)" fill="#212121" />
            <path
                d="M236.94,49.33c0,1.46,2.72,2.77,3.55,7.19s0,7.49,1.89,7.49,9-.22,10-1.22-.58-8.16-2.58-10.21-5-.94-5-2.48c0-.85,3.91-1.63,1.3-2.29C243.29,47.09,236.94,47.77,236.94,49.33Z"
                transform="translate(0)" fill="#212121" />
            <path
                d="M249.07,50.71c2.51.9,5,5.67,5.13,8.2s-.54,4.76,1.89,4.76,7.4,1.6,8.17.83.88-6.13-2.52-10.75-10.51-4.52-12.6-4.52S247.29,50.08,249.07,50.71Z"
                transform="translate(0)" fill="#212121" />
            <path
                d="M264,54.38c1.81,1.81,2.43,4.77,2.43,7.3s.1,4.47,3.41,4.47,4.95,1.8,4.95-1.8-1.21-6.22-4.66-8.61S260.62,51,264,54.38Z"
                transform="translate(0)" fill="#212121" />
            <path
                d="M276.5,63.73c-.13,2.22-1.2,4.67,1.46,4.67s4,1.75,4-1.35-1.35-4.7-3.36-6.42-4.85-3.17-3.53-1.17S276.58,62.49,276.5,63.73Z"
                transform="translate(0)" fill="#212121" />
            <path
                d="M283.32,66.79c0,2.23-2,4,4.27,4s10-.55,11.67-1.82.58-1.39-4.78-1.35a16.88,16.88,0,0,1-11-3.83C281.9,62.31,283.32,64.86,283.32,66.79Z"
                transform="translate(0)" fill="#212121" />
        </g>
        <g id="left">
            <path
                d="M112.44,177.42c-.24.42-.75,8,1.26,10s6.46,1.68,8.2,0a8.94,8.94,0,0,0,2.21-3.36s0,3.72-1.46,5.2-3.55,1-3.55,3.43,4.13,9.19,6.32,11.67,5.4,13.2,5.4,19.69,1.24,12.33,6.27,16.2,11.36,4.9,12.91,3.35V233.7c-2.77,0-5.38-.93-8.79-4.34s-3.86-4.74-3.86-6,.93-1.88,1.32-2.85a31.66,31.66,0,0,0,.83-4.33s.85,6,2.48,7.63,3.06,1.95,4.23,3.12,2.23,2.43,3.79,2.43V141.1c-4.76,0-10.45-.85-23.53,4.55s-13.91,5.35-13.91,9.19.1,7.53,3.36,9.92,6.07,3.4,8.16,7.14a74,74,0,0,1,3.8,8.22,27.25,27.25,0,0,1,.73-4.13,4.86,4.86,0,0,1,1.89-2.53,52.61,52.61,0,0,0-1.5,12.35,55.6,55.6,0,0,0,1.6,12.79,19.15,19.15,0,0,1-3-7.2c-.82-4.33-.29-6.17-3-11.57A37.4,37.4,0,0,0,115,168.26a13.74,13.74,0,0,1-3.5-5s-.66,9.12.78,10.55,4.23,2,5.74,2.72a5.4,5.4,0,0,1,2.23,2.63,47.73,47.73,0,0,0-5.06-1.48C113.53,177.35,112.68,177,112.44,177.42Zm1.17,4.4a7.53,7.53,0,0,0,2.62,3.16c1.8,1.15,4.79.59,4.79.59s-3,2-5,1.12S113.61,181.82,113.61,181.82Z"
                transform="translate(0)" fill="#212121" />
            <path
                d="M150,246c-2.72,0-2.38.34-4.67.34s-7.73-3.65-9.09-3.65-.83,4,3.89,6.76,5.88,4,9.87,4Z"
                transform="translate(0)" fill="#212121" />
            <path
                d="M109,174c-1,1-5.3-4.38-13.66-4.38s-11.77,0-11.77-1.17,2-1.36,2-2.72S71.62,164,73.47,166s5.35,5.45,8.75,6.95,7.54,7.88,13.47,7.88,10.7-1.41,11.13-1-2.72,4.42-9.58,4.42-12.3-5.25-15.12-8-7.19-3.16-10.84-6.81-4.81-5.2-1.8-6.51,15.9-6.13,22.17-6.13,14.61.41,15.51,1.31-.43,8.81.44,11.33S109.55,173.41,109,174Z"
                transform="translate(0)" fill="#212121" />
            <path
                d="M144.21,137.19c-1.38,1.38-9,1.55-16.87,4.76s-10.94,5.16-13,5.16-2-1.46-2-8.8-1-8.8-1-10.9,4.86-5,13.71-7.34,11.67-1.55,13.12-.14,2.58,1.31,4-.73,3-2,3,3.16S145.43,136,144.21,137.19Z"
                transform="translate(0)" fill="#212121" />
            <path
                d="M140.13,118.42c-1.95,0-1.8-2-5-2s-19.23,3.82-21.73,6.33-5.4-10.6-5.4-12.45,4.33-5.74,11.33-9.68S129.7,96.22,131.43,98s3.25.34,3.25-1.7,3.31-4.09,3.31-.34,4.28,17.45,4.28,19.3S141.25,118.42,140.13,118.42Z"
                transform="translate(0)" fill="#212121" />
            <path
                d="M131.67,95.52c-1.85,0-1-1.27-2.53-1.27s-12.35,5.26-15.85,7.93-4.38,4.42-5.35,4.42-6.08-8.5-6.08-10.45,7.25-7.88,12.6-10.84,7.66-3.53,9.24-2,2.77.34,2.77-1.85,2.28-3.3,3.21-.63,2.84,7.55,3.69,10.12C133.86,92.45,132.69,95.52,131.67,95.52Z"
                transform="translate(0)" fill="#212121" />
            <path
                d="M123.26,80.64c-1.19-1.19-9,1.56-13.86,5.49s-6.81,6.81-8,6.81-5.3-4.28-5.3-6,5.1-9.24,9.28-12.93,6.52-4.91,7.78-3.65,2.39.59,2.39-1.94,3.21-3.46,3.21-1.41,6.61,9.28,6.61,11.08S124.81,82.2,123.26,80.64Z"
                transform="translate(0)" fill="#212121" />
            <path
                d="M112.27,68.44c-2.24,0-7.88,1.84-12.35,8.07s-4.23,7.68-5.5,7.68-5.83-3.94-5.83-5.59,4.86-11,8.36-14.74S100.7,62,102.16,62s1.75-.54,1.75-2.24,1.21-2.63,3.3-.53,6.61,4.37,6.61,6.41S114.26,68.44,112.27,68.44Z"
                transform="translate(0)" fill="#212121" />
            <path
                d="M100.11,59.73c-1.54-1.55-6.42,4.09-9.53,9.82s-2.91,8.17-4.13,8.17-7.39-5.1-7.39-6.71,3.16-8.6,6.27-12S90,56.43,91.9,56.43s2.84-1.2,1.79-2.24,1.07-2.34,2.39-1S102,57.64,102,58.61,101.06,60.68,100.11,59.73Z"
                transform="translate(0)" fill="#212121" />
            <path
                d="M89.85,54.67c-2.52,0-6.27,1.27-8.85,6.28s-2.82,9.92-4.18,9.92S70,69,70,66.54s3-10.94,4.81-13.42,6.13-.29,6.13-1.56-1.12-.92-1.12-2.33,3.4-.33,6.61,1.6S95.2,54.67,89.85,54.67Z"
                transform="translate(0)" fill="#212121" />
            <path
                d="M76.39,50.49c-2.29,0-5.11,3.41-6.52,9.19S68.56,67,67,67s-6.81-1.51-6.81-3.07,1.12-8.26,2.58-10.69,4-5,2.43-5-1.85-1.66.93-1.66S83.19,50.49,76.39,50.49Z"
                transform="translate(0)" fill="#212121" />
            <path
                d="M63.06,49.33c0,1.46-2.72,2.77-3.55,7.19s0,7.49-1.89,7.49-9-.22-10-1.22.58-8.16,2.58-10.21,5-.94,5-2.48c0-.85-3.91-1.63-1.3-2.29C56.71,47.09,63.06,47.77,63.06,49.33Z"
                transform="translate(0)" fill="#212121" />
            <path
                d="M50.93,50.71c-2.51.9-5,5.67-5.13,8.2s.54,4.76-1.89,4.76-7.4,1.6-8.17.83-.88-6.13,2.52-10.75,10.51-4.52,12.6-4.52S52.71,50.08,50.93,50.71Z"
                transform="translate(0)" fill="#212121" />
            <path
                d="M36,54.38c-1.81,1.81-2.43,4.77-2.43,7.3s-.1,4.47-3.41,4.47-4.95,1.8-4.95-1.8,1.21-6.22,4.66-8.61S39.38,51,36,54.38Z"
                transform="translate(0)" fill="#212121" />
            <path
                d="M23.5,63.73C23.63,66,24.7,68.4,22,68.4s-4,1.75-4-1.35,1.35-4.7,3.36-6.42,4.85-3.17,3.53-1.17S23.42,62.49,23.5,63.73Z"
                transform="translate(0)" fill="#212121" />
            <path
                d="M16.68,66.79c0,2.23,2,4-4.27,4S2.45,70.22.74,69,.16,67.56,5.52,67.6a16.88,16.88,0,0,0,11-3.83C18.1,62.31,16.68,64.86,16.68,66.79Z"
                transform="translate(0)" fill="#212121" />
        </g>
    </g>
    <g id="frame">
        <rect width="300" height="300" fill="none" />
    </g>
</svg>