<svg xmlns="http://www.w3.org/2000/svg" viewBox="0 0 30 30"><path d="M22.06,22.87c-.13-.55-.29-1.32-.55-1.32a6.66,6.66,0,0,0-1.41.58c-.81.35-2,.85-2,.85a10,10,0,0,1,1.39-1.19,3.68,3.68,0,0,1,1.67-.54c.58-.05.57-.21.38-.62a11.83,11.83,0,0,0-1.69-2.34,3.25,3.25,0,0,1-1-1.81,8.12,8.12,0,0,0-.86-1.71,13.15,13.15,0,0,1,.35,1.67,17.75,17.75,0,0,1,.18,2.8A24.38,24.38,0,0,0,18,16.47a36.87,36.87,0,0,0-1.27-3.7C16.12,11,15.69,11.16,15,11.16v9.71a4.94,4.94,0,0,0,2.48-.57c.29,0,1.09.4,1.09.78s-.82,1.15-1,1.15-.09-.12-.58-.12a.74.74,0,0,0-.75.37c-.13.18-.12.6.11.6a3.22,3.22,0,0,0,.83-.28s-1.39.94-1.55,1.09a1.06,1.06,0,0,0,0,1,34.4,34.4,0,0,0,4.49.38c.28,0,1-.67,1.6-1.17S22.19,23.41,22.06,22.87Zm-2.31.23c-.69.16-1.59.43-1.59.43a5.2,5.2,0,0,1,1.6-.81,6.68,6.68,0,0,1,1.65.1S20.43,22.94,19.75,23.1Z" transform="translate(0)" fill="#212121"/><path d="M15,26.31c.36,0,.53-.36,1-.36a22.06,22.06,0,0,1,3.86.45c0,.16-.67.16-.84.53s-.12.83-.28,1.33-.35.79-.44.79-.18-.4-.33-.4-.6,1.22-.81,1.22-.5-.65-.7-.65S16,30,15.74,30s-.58-.9-.74-.9Z" transform="translate(0)" fill="#212121"/><path d="M20.48,26a6.8,6.8,0,0,0,.74,1.79l.07-.76a3.76,3.76,0,0,0,.61.87,2,2,0,0,0,.79.47l-.23-.59.64.32a2.45,2.45,0,0,0-.27-.74,2.64,2.64,0,0,1-.29-.62,1.89,1.89,0,0,0,.38.38,2.07,2.07,0,0,0,.49.12,5,5,0,0,1-.78-1.54,13.68,13.68,0,0,1-.18-1.6c-.11-.11-.61.33-.61.66s.24.9.13,1-.46-.8-.57-.84-.1.26,0,.51a2.26,2.26,0,0,0,.13.43,1.68,1.68,0,0,1-.38-.27c-.16-.15-.19-.19-.29-.09S20.48,25.66,20.48,26Z" transform="translate(0)" fill="#212121"/><path d="M22.89,24.46a7.8,7.8,0,0,0,.27,1.7s.07-.33.09-.51a.41.41,0,0,1,.14-.27.59.59,0,0,1,.06.36c0,.21,0,.46,0,.46s.24,0,.35-1.45.6-3.81.6-3.81S22.89,23.08,22.89,24.46Z" transform="translate(0)" fill="#212121"/><path d="M24.56,26.34a4.27,4.27,0,0,1-.33-1.84,6,6,0,0,1,.3-2l.08.45c0,.13,0,.38,0,.38a2.21,2.21,0,0,0,.3-.85c.1-.55.2-.93.2-.93a5.14,5.14,0,0,1,.28.56c.1.27.18.58.18.58a5,5,0,0,0,.24-1.15c.06-.71.1-1.45.1-1.45a4.56,4.56,0,0,1,.67,2.31c0,1.3-.4,2.16-.47,3.21a8,8,0,0,0,0,1.39,4.55,4.55,0,0,1-.46-1.19c-.15-.69-.31-1.25-.31-1.25a2.31,2.31,0,0,0-.11.82,10,10,0,0,0,.06,1.06s-.3-.51-.43-.81-.24-.62-.24-.62A4.81,4.81,0,0,0,24.56,26.34Z" transform="translate(0)" fill="#212121"/><path d="M26.82,24.75a7.68,7.68,0,0,1,.74-1.58,6.41,6.41,0,0,1,.77-1l.18.7A4.43,4.43,0,0,0,29,21.52a10.52,10.52,0,0,0,.32-1.76l.52.39a10,10,0,0,1-.31-2.1,16,16,0,0,0-.17-2.4,2.44,2.44,0,0,0-.35-.58l.65.25s-.25-.61-.84-1.69-1.6-2.86-2-3.65A3.27,3.27,0,0,0,26,8.77c-.21-.13-.6-.33-.6-.33s.65.05,1.12.05a4.55,4.55,0,0,0,1.11-.21A12.68,12.68,0,0,1,26.35,8a5.26,5.26,0,0,1-1-.45h.88a1.41,1.41,0,0,0,.77-.26,4.83,4.83,0,0,1-1.83-.42A12.67,12.67,0,0,1,23.67,6s.3.57.71,1.56.2,1.17,1,1.94a5.25,5.25,0,0,1,1.5,2.68,9.3,9.3,0,0,0,.6,2.36,8.07,8.07,0,0,0,.67,1.13,2.66,2.66,0,0,1-.58-.08,4.42,4.42,0,0,0-.69-.12l.37.63a3.63,3.63,0,0,1-.54-.24,5.27,5.27,0,0,0-.61-.3,7.73,7.73,0,0,0,.89,1,4.45,4.45,0,0,1,.76,1.13l-.57-.38a5.34,5.34,0,0,0,.48,1.24,4.4,4.4,0,0,1,.78,1.83c0,.55-.23.69-.23.69a1.29,1.29,0,0,0-.15-.72,2.7,2.7,0,0,0-.36-.45,2.1,2.1,0,0,1-.05,1.29A13.41,13.41,0,0,0,26.82,24.75Z" transform="translate(0)" fill="#212121"/><path d="M22.14,20.74a2.74,2.74,0,0,1,.37-1.67c.46-.51.76-.28,1.15-.71a6.35,6.35,0,0,0,.77-1.66s-.58,1-1.24,1.14-.81.6-1.05,1-.85.27-1.33-.09a4.35,4.35,0,0,1-1.54-2,6,6,0,0,0-1.05-2c-.25-.25-.19-.48.21-.95s.51-.69.78-.69a6.46,6.46,0,0,0,1.23.16c.83,0,1.35,0,1.8-.92a10.14,10.14,0,0,0,.63-1.49,5.57,5.57,0,0,1,.27,1.6c0,.82-.34,1.44-1.09,1.54s-1.6.14-1.6.14a2.7,2.7,0,0,0,1.33.31c.82,0,1.12-.36,1.5-1.21s.95-2.37.95-2.37a6.54,6.54,0,0,1-.3,2.2c-.36.86,0,1.28-.42,2.42s-.77,1.67-1.4,1.67a2.52,2.52,0,0,1-1.21-.37s.44.92,1.05.92A3.13,3.13,0,0,0,24,16.42c.38-.59.18-1,.18-1.67s1.06-1.17,1.06-2.39a9.75,9.75,0,0,0-.41-2.52,7.41,7.41,0,0,1,.75,2.93,20.5,20.5,0,0,1-1.23,5.05,2.81,2.81,0,0,1-1.17,1.61A3.9,3.9,0,0,0,22.14,20.74Z" transform="translate(0)" fill="#212121"/><path d="M22.83,4.07A1.52,1.52,0,0,0,23,5.17c.32.51.29.44.54.44a1,1,0,0,0,.54-.25l1.32.53L25,5.5l1.09.3-.26-.27,1,.14-.46-.25a3.39,3.39,0,0,0,1.8-.49,2.31,2.31,0,0,0,.91-2.07A2.76,2.76,0,0,0,27.94.44,2.7,2.7,0,0,0,25.7.11C25.29.28,25,1,24.44,1.28a8.78,8.78,0,0,1-1.72.6l.75-.6s-1.27.6-1.66.71a3.1,3.1,0,0,1-.93.06A2.87,2.87,0,0,0,22,3a10.36,10.36,0,0,0,1.71.65l-.75-.7,1,.22-.47-.33,1.13.09-.47-.27h1.13l-.81-.29a5.79,5.79,0,0,0,1.17-.48c.16-.17,0-1,.5-1.15a2.11,2.11,0,0,1,2,.75,2.62,2.62,0,0,1,.55,1.67,2,2,0,0,1-.53,1.38c-.32.29-.66.25-1.17.25a5.64,5.64,0,0,1-1.59-.3C24.86,4.31,24.25,4,24.25,4l.49.58a1.9,1.9,0,0,1-1-.13Z" transform="translate(0)" fill="#212121"/><path d="M20.8,10.76a.42.42,0,0,1-.29.71.41.41,0,0,1-.42-.41.3.3,0,0,1,0-.1,6.24,6.24,0,0,0-.73.35,1.19,1.19,0,0,0,2.36-.21,1.22,1.22,0,0,0-.08-.43A7,7,0,0,0,20.8,10.76Z" transform="translate(0)" fill="#212121"/><path d="M23.42,8.81c-.3-.11-.53-.05-1.08-1s-.53-1.45-.3-1.76a1.41,1.41,0,0,0,.36-.82,7.29,7.29,0,0,0-1.31-2.33A7.11,7.11,0,0,0,18.43,1.7a5.71,5.71,0,0,0-2.72-.2c-.14.14-.12.31,0,.38a8.26,8.26,0,0,0,1.55,0,10.15,10.15,0,0,1,2.56.64,27.32,27.32,0,0,0-3-.23c-1.34,0-1.47.6-1.47,1s.14.45.63.45,1.85-.79,2.93-.79a2.25,2.25,0,0,1,1.94,1c.36.46.86,1,.86,1a8.54,8.54,0,0,0-2.25-.69c-.91-.06-3.64,0-4.46,0v.59c.44,0,.61-.11,1.6-.11A4.91,4.91,0,0,1,18.25,5a3.94,3.94,0,0,1-1.49.23c-1,0-1.42.08-1.42.48s.05.85.63.85a3.18,3.18,0,0,0,2-.69,1.76,1.76,0,0,1,1.92-.24c.5.28.61.41.69.69s1.16,1.21,1.16,1.21a9.33,9.33,0,0,0-2.3-.6c-.77,0-.72.26-1.24.26a6,6,0,0,1-.82-.11c-.25,0-.36.29-.73.29S16.09,7,15,7V8.41c1.06,0,2.83-.2,3.31.38a2.63,2.63,0,0,1,.51,1.37A4.36,4.36,0,0,0,17.05,9c-1-.26-1.34-.15-1.43.05s-.15,1.29.12,1.53a2.15,2.15,0,0,1,1,1.23c.43,1,.88,2.63,1,2.33a2.66,2.66,0,0,1,.47-.79c.33-.38.43-.46.43-.67s-.19-.78-.41-.78a4.85,4.85,0,0,0-.71.11s-.08-.29,1.61-1a9.35,9.35,0,0,1,3.6-.7c.82-.09,1.24,0,1.24-.3S23.72,8.92,23.42,8.81Zm-5.34,2.25c0,.18-.12-.42-.85-.83S15.93,10,16,9.83a1.29,1.29,0,0,1,.4-.25c.25-.1.29-.15.45-.1s.25.26.55.5a1.54,1.54,0,0,0,.6.27C18.15,10.3,18.13,10.89,18.08,11.06Zm2.61-1.25a1.29,1.29,0,0,0-.08-.46c-.09-.23-.33-.29-.89-.32s-2-1.28-2-1.28A7.78,7.78,0,0,1,18.78,8a5.28,5.28,0,0,0,1.32.16,1.21,1.21,0,0,1,.84,1A.78.78,0,0,1,20.69,9.81Zm.83-.38a1,1,0,0,0,.23-.61c0-.34-.78-1.15-.78-1.15s1.29.67,1.29,1S21.52,9.43,21.52,9.43Z" transform="translate(0)" fill="#212121"/><path d="M8.32,24.11c.58.5,1.32,1.17,1.6,1.17a34.4,34.4,0,0,0,4.49-.38,1.06,1.06,0,0,0,0-1c-.16-.15-1.55-1.09-1.55-1.09a3.22,3.22,0,0,0,.83.28c.23,0,.24-.42.11-.6a.74.74,0,0,0-.75-.37c-.49,0-.35.12-.58.12s-1-.77-1-1.15.8-.78,1.09-.78a4.94,4.94,0,0,0,2.48.57V11.16c-.69,0-1.12-.13-1.76,1.61A36.87,36.87,0,0,0,12,16.47a24.38,24.38,0,0,0-.43,2.77,17.75,17.75,0,0,1,.18-2.8,13.15,13.15,0,0,1,.35-1.67,8.12,8.12,0,0,0-.86,1.71,3.25,3.25,0,0,1-1,1.81A11.83,11.83,0,0,0,8.5,20.63c-.19.41-.2.57.38.62a3.68,3.68,0,0,1,1.67.54A10,10,0,0,1,11.94,23s-1.23-.5-2-.85a6.66,6.66,0,0,0-1.41-.58c-.26,0-.42.77-.55,1.32S7.74,23.61,8.32,24.11Zm.27-1.29a6.68,6.68,0,0,1,1.65-.1,5.2,5.2,0,0,1,1.6.81s-.9-.27-1.59-.43S8.59,22.82,8.59,22.82Z" transform="translate(0)" fill="#212121"/><path d="M15,26.31c-.36,0-.53-.36-1-.36a22.06,22.06,0,0,0-3.86.45c0,.16.67.16.84.53s.12.83.28,1.33.35.79.44.79.18-.4.33-.4.6,1.22.81,1.22.5-.65.7-.65.52.78.76.78.58-.9.74-.9Z" transform="translate(0)" fill="#212121"/><path d="M9.52,26a6.8,6.8,0,0,1-.74,1.79L8.71,27a3.76,3.76,0,0,1-.61.87,2,2,0,0,1-.79.47l.23-.59-.64.32a2.45,2.45,0,0,1,.27-.74,2.64,2.64,0,0,0,.29-.62,1.89,1.89,0,0,1-.38.38,2.07,2.07,0,0,1-.49.12,5,5,0,0,0,.78-1.54,13.68,13.68,0,0,0,.18-1.6c.11-.11.61.33.61.66s-.24.9-.13,1,.46-.8.57-.84.1.26,0,.51a2.26,2.26,0,0,1-.13.43,1.68,1.68,0,0,0,.38-.27c.16-.15.19-.19.29-.09S9.52,25.66,9.52,26Z" transform="translate(0)" fill="#212121"/><path d="M7.11,24.46a7.8,7.8,0,0,1-.27,1.7s-.07-.33-.09-.51a.41.41,0,0,0-.14-.27.59.59,0,0,0-.06.36c0,.21,0,.46,0,.46s-.24,0-.35-1.45-.6-3.81-.6-3.81S7.11,23.08,7.11,24.46Z" transform="translate(0)" fill="#212121"/><path d="M5.44,26.34a4.27,4.27,0,0,0,.33-1.84,6,6,0,0,0-.3-2L5.39,23c0,.13,0,.38,0,.38a2.21,2.21,0,0,1-.3-.85c-.1-.55-.2-.93-.2-.93a5.14,5.14,0,0,0-.28.56c-.1.27-.18.58-.18.58a5,5,0,0,1-.24-1.15c-.06-.71-.1-1.45-.1-1.45a4.56,4.56,0,0,0-.67,2.31c0,1.3.4,2.16.47,3.21A8,8,0,0,1,3.9,27a4.55,4.55,0,0,0,.46-1.19c.15-.69.31-1.25.31-1.25a2.31,2.31,0,0,1,.11.82,10,10,0,0,1-.06,1.06s.3-.51.43-.81.24-.62.24-.62A4.81,4.81,0,0,1,5.44,26.34Z" transform="translate(0)" fill="#212121"/><path d="M3.18,24.75a7.68,7.68,0,0,0-.74-1.58,6.41,6.41,0,0,0-.77-1l-.18.7A4.43,4.43,0,0,1,1,21.52a10.52,10.52,0,0,1-.32-1.76l-.52.39a10,10,0,0,0,.31-2.1,16,16,0,0,1,.17-2.4A2.44,2.44,0,0,1,1,15.07l-.65.25s.25-.61.84-1.69,1.6-2.86,2-3.65A3.27,3.27,0,0,1,4,8.77c.21-.13.6-.33.6-.33s-.65.05-1.12.05a4.55,4.55,0,0,1-1.11-.21A12.68,12.68,0,0,0,3.65,8a5.26,5.26,0,0,0,.95-.45H3.72A1.41,1.41,0,0,1,3,7.26a4.83,4.83,0,0,0,1.83-.42A12.67,12.67,0,0,0,6.33,6s-.3.57-.71,1.56-.2,1.17-1,1.94a5.25,5.25,0,0,0-1.5,2.68,9.3,9.3,0,0,1-.6,2.36,8.07,8.07,0,0,1-.67,1.13,2.66,2.66,0,0,0,.58-.08,4.42,4.42,0,0,1,.69-.12l-.37.63a3.63,3.63,0,0,0,.54-.24,5.27,5.27,0,0,1,.61-.3,7.73,7.73,0,0,1-.89,1,4.45,4.45,0,0,0-.76,1.13l.57-.38a5.34,5.34,0,0,1-.48,1.24,4.4,4.4,0,0,0-.78,1.83c0,.55.23.69.23.69A1.29,1.29,0,0,1,2,20.32a2.7,2.7,0,0,1,.36-.45,2.1,2.1,0,0,0,.05,1.29A13.41,13.41,0,0,1,3.18,24.75Z" transform="translate(0)" fill="#212121"/><path d="M7.86,20.74a2.74,2.74,0,0,0-.37-1.67c-.46-.51-.76-.28-1.15-.71a6.35,6.35,0,0,1-.77-1.66s.58,1,1.24,1.14.81.6,1.05,1,.85.27,1.33-.09a4.35,4.35,0,0,0,1.54-2,6,6,0,0,1,1-2c.25-.25.19-.48-.21-.95s-.51-.69-.78-.69a6.46,6.46,0,0,1-1.23.16c-.83,0-1.35,0-1.8-.92a10.14,10.14,0,0,1-.63-1.49,5.57,5.57,0,0,0-.27,1.6c0,.82.34,1.44,1.09,1.54s1.6.14,1.6.14a2.7,2.7,0,0,1-1.33.31c-.82,0-1.12-.36-1.5-1.21s-1-2.37-1-2.37a6.54,6.54,0,0,0,.3,2.2c.36.86,0,1.28.42,2.42s.77,1.67,1.4,1.67a2.52,2.52,0,0,0,1.21-.37s-.44.92-1,.92A3.13,3.13,0,0,1,6,16.42c-.38-.59-.18-1-.18-1.67s-1.06-1.17-1.06-2.39a9.75,9.75,0,0,1,.41-2.52,7.41,7.41,0,0,0-.75,2.93,20.5,20.5,0,0,0,1.23,5.05,2.81,2.81,0,0,0,1.17,1.61A3.9,3.9,0,0,1,7.86,20.74Z" transform="translate(0)" fill="#212121"/><path d="M7.17,4.07A1.52,1.52,0,0,1,7,5.17c-.32.51-.29.44-.54.44a1,1,0,0,1-.54-.25l-1.32.53L5,5.5l-1.09.3.26-.27-1,.14.46-.25a3.39,3.39,0,0,1-1.8-.49A2.31,2.31,0,0,1,.85,2.86,2.76,2.76,0,0,1,2.06.44,2.7,2.7,0,0,1,4.3.11C4.71.28,5,1,5.56,1.28a8.78,8.78,0,0,0,1.72.6l-.75-.6s1.27.6,1.66.71a3.1,3.1,0,0,0,.93.06A2.87,2.87,0,0,1,8,3a10.36,10.36,0,0,1-1.71.65l.75-.7L6,3.16l.47-.33-1.13.09.47-.27H4.72l.81-.29a5.79,5.79,0,0,1-1.17-.48c-.16-.17,0-1-.5-1.15a2.11,2.11,0,0,0-2,.75,2.62,2.62,0,0,0-.55,1.67,2,2,0,0,0,.53,1.38c.32.29.66.25,1.17.25a5.64,5.64,0,0,0,1.59-.3C5.14,4.31,5.75,4,5.75,4l-.49.58a1.9,1.9,0,0,0,1-.13Z" transform="translate(0)" fill="#212121"/><path d="M9.2,10.76a.42.42,0,0,0,.29.71.41.41,0,0,0,.42-.41.3.3,0,0,0,0-.1,6.24,6.24,0,0,1,.73.35,1.19,1.19,0,0,1-2.36-.21,1.22,1.22,0,0,1,.08-.43A7,7,0,0,1,9.2,10.76Z" transform="translate(0)" fill="#212121"/><path d="M6.06,10c0,.3.42.21,1.24.3a9.35,9.35,0,0,1,3.6.7c1.69.71,1.61,1,1.61,1a4.85,4.85,0,0,0-.71-.11c-.22,0-.41.56-.41.78s.1.29.43.67a2.66,2.66,0,0,1,.47.79c.14.3.59-1.31,1-2.33a2.15,2.15,0,0,1,.95-1.23c.27-.24.2-1.32.12-1.53S13.92,8.74,13,9a4.36,4.36,0,0,0-1.77,1.16,2.63,2.63,0,0,1,.51-1.37c.48-.58,2.25-.38,3.31-.38V7c-1.09,0-1.28.42-1.66.42s-.48-.29-.73-.29a6,6,0,0,1-.82.11c-.52,0-.47-.26-1.24-.26a9.33,9.33,0,0,0-2.3.6s1.08-.92,1.16-1.21.19-.41.69-.69A1.76,1.76,0,0,1,12,5.88a3.18,3.18,0,0,0,2,.69c.58,0,.63-.45.63-.85s-.45-.48-1.42-.48A3.94,3.94,0,0,1,11.75,5a4.91,4.91,0,0,1,1.65-.26c1,0,1.16.11,1.6.11V4.27c-.82,0-3.55,0-4.46,0A8.54,8.54,0,0,0,8.29,5s.5-.56.86-1a2.25,2.25,0,0,1,1.94-1c1.08,0,2.45.79,2.93.79s.63-.07.63-.45-.13-1-1.47-1a27.32,27.32,0,0,0-3,.23,10.15,10.15,0,0,1,2.56-.64,8.26,8.26,0,0,0,1.55,0c.15-.07.17-.24,0-.38a5.71,5.71,0,0,0-2.72.2A7.11,7.11,0,0,0,8.91,2.93,7.29,7.29,0,0,0,7.6,5.26,1.41,1.41,0,0,0,8,6.08c.23.31.25.84-.3,1.76s-.78.86-1.08,1S6.06,9.7,6.06,10Zm5.93.24a1.54,1.54,0,0,0,.6-.27c.3-.24.39-.45.55-.5s.2,0,.45.1a1.29,1.29,0,0,1,.4.25c.08.21-.5,0-1.22.4s-.81,1-.85.83S11.85,10.3,12,10.25ZM9.06,9.2a1.21,1.21,0,0,1,.84-1A5.28,5.28,0,0,0,11.22,8a7.78,7.78,0,0,1,1.08-.29S10.85,9,10.28,9s-.8.09-.89.32a1.29,1.29,0,0,0-.08.46A.78.78,0,0,1,9.06,9.2ZM7.74,8.65c0-.31,1.29-1,1.29-1s-.78.81-.78,1.15a1,1,0,0,0,.23.61S7.74,9,7.74,8.65Z" transform="translate(0)" fill="#212121"/><rect width="30" height="30" fill="none"/></svg>