<svg xmlns="http://www.w3.org/2000/svg" viewBox="0 0 30 30"><path d="M15,8.31c.61,0,1.14,1.11,2.2,1.87a4.68,4.68,0,0,0,2.09,1c.27,0,.82-1,1.13-1s.33,1.35.33,1.55-.77.23-1.46.64a2.88,2.88,0,0,0-.9.75,5.53,5.53,0,0,1,2.07-.7c.84,0,.59.28.49.79s-.07,1.23-.34,1.23-.39-.4-.79-.4a1.52,1.52,0,0,0-1.1,1c0,.33,1.52.92,1.52,2.23a8.11,8.11,0,0,1-1.65,3.83c-.19,0-.57-4-.87-4.95a18.37,18.37,0,0,0-1.15-2.45l.74.07a2.84,2.84,0,0,0-.66-.34A1.7,1.7,0,0,0,16,13.3a25.27,25.27,0,0,1,1.38,2.88c.21.75,1,6.2,1,6.56s-.19.43-.75.43-1.31.39-1.78.39-.56-.28-.56-.68a1.49,1.49,0,0,1,.76-1.12c.47-.33,1.06-.46,1.06-.83s-.16-.76-.38-.76,0,.76-.53.76-.72,0-.72-.48.19-1.71.19-2S15.29,16.8,15,16.8Z" fill="#212121"/><path d="M19.83,14.88c.15,0,.11.11.26.11s.27-.18.27-.32,0-.24-.44-.24a1,1,0,0,0-.83.61c0,.19.48.6.62.6s.14-.06.14-.19-.24-.12-.24-.33S19.7,14.88,19.83,14.88Z" fill="#212121"/><path d="M20.34,16c.14,0,.4-.8.4-.93s-.3,0-.43.12a.76.76,0,0,0-.23.4C20.08,15.65,20.18,16,20.34,16Z" fill="#212121"/><path d="M18.88,22.57c.27,0,.3-.66.52-1.14s.34-.58.34-.8-.67.6-.79.89S18.68,22.57,18.88,22.57Z" fill="#212121"/><path d="M15,24c.45,0,1.51-.15,2.31-.15s.83,0,.1.64a4,4,0,0,1-2.41.67Z" fill="#212121"/><path d="M24.55,12.06a3.64,3.64,0,0,0-1.48-.72c-.35,0-1.28.66-1.69.66s-.07.41-.07,1A8.6,8.6,0,0,1,21,15.34c-.19.42-.36.68-.3.75s.54-.46,1.19-.61a4.17,4.17,0,0,0,2.54-1.71C25,12.74,25.11,12.42,24.55,12.06ZM23.39,13.7c.12-.12.69-.14.69-.14a2.68,2.68,0,0,0-.34.23,6.26,6.26,0,0,1-1,.7c-.59.34-1.32.39-1.32.19s.14-.22.42-.67a2.4,2.4,0,0,0,.4-1.34c0-.49.73-.85,1.07-.85a1.5,1.5,0,0,1,.7.24,1.89,1.89,0,0,0-.88.11,1.08,1.08,0,0,0-.64.82c0,.34.15.19.47,0a2.9,2.9,0,0,1,1.33-.12,1.8,1.8,0,0,0-.6.18c-.28.15-.93.59-.93.78S23.27,13.81,23.39,13.7Z" fill="#212121"/><path d="M19.21,10.8c.24,0,.34-.12.34-.24s-.63-.57-1-.66a3.5,3.5,0,0,1-1.17-.6,2.19,2.19,0,0,1-.32-.44,5,5,0,0,0,1,.68,4.26,4.26,0,0,1,1.17.46c.3.24.38.32.53.32a7.49,7.49,0,0,0,1.47-1.84c0-.22-.47-.19-.9-.43S19.42,8,19,7.65a3.43,3.43,0,0,0-.88-.59,3.14,3.14,0,0,0-.46-.16,2.74,2.74,0,0,1,.94.18c.34.17.51.47,1.12.58A6,6,0,0,1,21,8c.34.15.54.29.75.09a6.25,6.25,0,0,1,1.93-1.67,4,4,0,0,1,2.12-.17l.46.21a3,3,0,0,0-.7-.82A3.4,3.4,0,0,0,24.41,5a4.62,4.62,0,0,1,.51.45.89.89,0,0,1,.17.35A4.14,4.14,0,0,0,24.28,5a2.53,2.53,0,0,0-1.34-.18,3.47,3.47,0,0,1,1,.54,1.16,1.16,0,0,1,.33.56,4.05,4.05,0,0,0-1.21-.85A8,8,0,0,0,21,5a8,8,0,0,1,1.51.37,2.1,2.1,0,0,1,.74.51,9.69,9.69,0,0,0-2-.56,5.16,5.16,0,0,0-1.59.09,12.42,12.42,0,0,1,1.87.35,8.43,8.43,0,0,1,1.22.64A14.66,14.66,0,0,0,21,5.85a10.51,10.51,0,0,0-2.21-.1,9,9,0,0,1,1.65.47,2.79,2.79,0,0,1,.88.66,4.86,4.86,0,0,0-1.77-.72,3.4,3.4,0,0,0-1.7.13,11.19,11.19,0,0,1,2,.44,2,2,0,0,1,1,.73,6.29,6.29,0,0,0-2-.8c-1.25-.28-1.39-.11-1.61.14s-.2.42,0,.55a6,6,0,0,0,1.74.84,2.8,2.8,0,0,1,1.41.32c.3.21.31.33.31.33s-.15-.24-1-.4a11.24,11.24,0,0,1-1.38-.19c-.62-.18-1.25-.89-1.44-.89s-.33.1-.33.25a2.81,2.81,0,0,0,1.63,1.23,5.11,5.11,0,0,1,1.56.67,1.47,1.47,0,0,0,.4.1,1.3,1.3,0,0,1-.95-.16,4.24,4.24,0,0,0-1.39-.51,3.05,3.05,0,0,1-1.26-1c-.19-.25-.28-.19-.5,0s-.3.24,0,.54a10.92,10.92,0,0,0,1.35,1.41A7.44,7.44,0,0,0,19.21,10.8Z" fill="#212121"/><path d="M21.07,11.74c.12,0,.23.06.41-.46a7.35,7.35,0,0,0,.45-1.76c0-.48,0-1.23,0-1.23a6.12,6.12,0,0,1-.75,1c-.33.32-.53.53-.53.7s.33.46.33,1S21,11.74,21.07,11.74Z" fill="#212121"/><path d="M21.61,11.5a7.55,7.55,0,0,0,1.2-2.35,10.12,10.12,0,0,0,.12-2s-.8.76-.8.92a10,10,0,0,1-.08,2A9.86,9.86,0,0,0,21.61,11.5Z" fill="#212121"/><path d="M22,11.33a11.13,11.13,0,0,0,1.83-2.71,7,7,0,0,0,.38-2.15l-.6.26c-.33.15-.51.23-.51.71a5.87,5.87,0,0,1-.31,2.33C22.43,10.51,21.91,11.33,22,11.33Z" fill="#212121"/><path d="M22.36,11.19c.09.09.33-.07.6-.1s.31,0,.63-.4a12.2,12.2,0,0,0,1.3-1.86,6.22,6.22,0,0,0,.38-1.31,5,5,0,0,1-.45,1.76c-.36.58-1.33,1.69-1.33,1.83s.18.25.34.25.49-.57,1.18-1.06a5.33,5.33,0,0,0,1.65-1.57,3.44,3.44,0,0,0,.05-1.58,2.05,2.05,0,0,0-.46-.55A3.55,3.55,0,0,1,26.1,8a2.07,2.07,0,0,1-.64.87,3.48,3.48,0,0,0,.59-1.26,1.84,1.84,0,0,0,0-1.11,4,4,0,0,0-1.5-.07,9.46,9.46,0,0,1-.39,2A13,13,0,0,1,22.36,11.19Z" fill="#212121"/><path d="M24.1,11.4c0,.14.18.25.37.25s.57-.49,1.21-.74a4.17,4.17,0,0,0,1.59-1.06,1,1,0,0,0,.23-1.06,6.91,6.91,0,0,0-.45-1.23A3.28,3.28,0,0,1,26.81,9a4.15,4.15,0,0,1-1.29,1.28A5.94,5.94,0,0,0,24.1,11.4Z" fill="#212121"/><path d="M24.71,11.76c0,.14.13.34.29.34s.59-.27,1.44-.49,1.48-.21,1.58-.32a9.5,9.5,0,0,0-.27-1.78,1.88,1.88,0,0,1-.78.93A14.75,14.75,0,0,0,24.71,11.76Z" fill="#212121"/><path d="M25.17,12.89a4.79,4.79,0,0,1,1.46-.53,6.42,6.42,0,0,1,1.61,0c.18,0,0-.66-.12-.79A9.23,9.23,0,0,0,25.7,12c-.51.16-.58.24-.58.34S25.05,12.89,25.17,12.89Z" fill="#212121"/><path d="M24.6,15.18c0,.11.1.24.15.37a.09.09,0,0,0,.14,0,3.81,3.81,0,0,1,1.65-1,.1.1,0,0,0,.07-.1c-.11-.53-.17-.94-.19-1.09v0c-.78.06-1.46,1.09-1.81,1.75A.06.06,0,0,0,24.6,15.18Z" fill="#212121"/><path d="M28.66,15.33a3.47,3.47,0,0,0-1.74-.62.09.09,0,0,0-.08.11c0,.17.07.36.11.55a.09.09,0,0,0,.08.06,3.43,3.43,0,0,1,1.54.88.09.09,0,0,0,.15-.07c0-.29,0-.57,0-.84A.1.1,0,0,0,28.66,15.33Z" fill="#212121"/><path d="M27.27,16.54a2.33,2.33,0,0,1,1.3.73.09.09,0,0,0,.15-.07v-.48a.07.07,0,0,0,0-.06,4.86,4.86,0,0,0-1.56-1.05.1.1,0,0,0-.11.11c.06.25.11.51.17.76A.08.08,0,0,0,27.27,16.54Z" fill="#212121"/><path d="M26.57,13.47c0,.12.1.5.2,1a.08.08,0,0,0,.09.07,2.82,2.82,0,0,1,1.68.49.1.1,0,0,0,.14-.09c0-.17,0-.33,0-.47s0-.25-.05-.37a.06.06,0,0,0,0-.06,4.36,4.36,0,0,0-2-.68S26.57,13.43,26.57,13.47Z" fill="#212121"/><path d="M27,16.47c-.06-.26-.12-.53-.17-.79a.09.09,0,0,0-.11-.07,3.83,3.83,0,0,0-1.56,1,.1.1,0,0,0,0,.09c.08.26.17.55.26.86a.09.09,0,0,0,.15,0,3.54,3.54,0,0,1,1.39-1A.09.09,0,0,0,27,16.47Z" fill="#212121"/><path d="M26.56,14.77a4.66,4.66,0,0,0-1.65,1.06.07.07,0,0,0,0,.09c.05.13.1.28.15.43a.09.09,0,0,0,.14,0,3.51,3.51,0,0,1,1.52-.94.09.09,0,0,0,.07-.11c0-.17-.07-.34-.1-.5A.09.09,0,0,0,26.56,14.77Z" fill="#212121"/><path d="M29.65,17.65c-.21,0-.95,1-.95,1s-.24.42-.54.42-.61-.45-1-1.95c0-.1-.05-.21-.08-.32a.08.08,0,0,0-.11-.06,3.44,3.44,0,0,0-1.45,1.12.07.07,0,0,0,0,.07c.05.16.09.33.13.5.78,3.06,1.54,3.85,2,3.85s.91,0,1.37-1.67.94-2.18.94-2.53S29.86,17.65,29.65,17.65Zm-1.48,4.17a.77.77,0,0,1-.6.12c.27,0,.3-.07.52-.23a19,19,0,0,0,1.17-2.47A21.8,21.8,0,0,1,28.17,21.82Z" fill="#212121"/><path d="M26.4,13.1v-.35l-.16-.13a2.2,2.2,0,0,0-1.49,1,2.3,2.3,0,0,0-.46.81,1.59,1.59,0,0,0,.15.4.08.08,0,0,0,.15,0c.32-.54,1-1.49,1.73-1.6A.09.09,0,0,0,26.4,13.1Z" fill="#212121"/><path d="M28.21,18.84c.07,0,.3-.23.48-.42a.14.14,0,0,0,0-.06c0-.18,0-.43,0-.73a.07.07,0,0,0,0-.06,3.75,3.75,0,0,0-1.31-.84.1.1,0,0,0-.11.11,10.4,10.4,0,0,0,.38,1.35C28,18.87,28.08,18.84,28.21,18.84Z" fill="#212121"/><path d="M26.62,13.18a4.43,4.43,0,0,1,1.79.58.09.09,0,0,0,.13-.09,3,3,0,0,0-.21-1,3.17,3.17,0,0,0-1.72-.08s-.08,0-.08.08,0,.29,0,.47A.09.09,0,0,0,26.62,13.18Z" fill="#212121"/><path d="M15,8.31c-.61,0-1.14,1.11-2.2,1.87a4.68,4.68,0,0,1-2.09,1c-.27,0-.82-1-1.13-1s-.33,1.35-.33,1.55.77.23,1.46.64a2.88,2.88,0,0,1,.9.75,5.53,5.53,0,0,0-2.07-.7c-.84,0-.59.28-.49.79s.07,1.23.34,1.23.39-.4.79-.4a1.52,1.52,0,0,1,1.1,1c0,.33-1.52.92-1.52,2.23a8.11,8.11,0,0,0,1.65,3.83c.19,0,.57-4,.87-4.95a18.37,18.37,0,0,1,1.15-2.45l-.74.07a2.84,2.84,0,0,1,.66-.34A1.7,1.7,0,0,1,14,13.3a25.27,25.27,0,0,0-1.38,2.88c-.21.75-1,6.2-1,6.56s.19.43.75.43,1.31.39,1.78.39.56-.28.56-.68a1.49,1.49,0,0,0-.76-1.12c-.47-.33-1.06-.46-1.06-.83s.16-.76.38-.76,0,.76.53.76.72,0,.72-.48-.19-1.71-.19-2,.39-1.64.68-1.64Z" fill="#212121"/><path d="M10.17,14.88c-.15,0-.11.11-.26.11s-.27-.18-.27-.32,0-.24.44-.24a1,1,0,0,1,.83.61c0,.19-.48.6-.62.6s-.14-.06-.14-.19.24-.12.24-.33S10.3,14.88,10.17,14.88Z" fill="#212121"/><path d="M9.66,16c-.14,0-.4-.8-.4-.93s.3,0,.43.12a.76.76,0,0,1,.23.4C9.92,15.65,9.82,16,9.66,16Z" fill="#212121"/><path d="M11.12,22.57c-.27,0-.3-.66-.52-1.14s-.34-.58-.34-.8.67.6.79.89S11.32,22.57,11.12,22.57Z" fill="#212121"/><path d="M15,24c-.45,0-1.51-.15-2.31-.15s-.83,0-.1.64a4,4,0,0,0,2.41.67Z" fill="#212121"/><path d="M5.61,13.77a4.17,4.17,0,0,0,2.54,1.71c.65.15,1.12.67,1.19.61s-.11-.33-.3-.75A8.6,8.6,0,0,1,8.69,13c0-.57.34-1-.07-1s-1.34-.66-1.69-.66a3.64,3.64,0,0,0-1.48.72C4.89,12.42,5,12.74,5.61,13.77Zm1.66,0c0-.19-.65-.63-.93-.78a1.8,1.8,0,0,0-.6-.18A2.9,2.9,0,0,1,7.07,13c.32.22.47.37.47,0a1.08,1.08,0,0,0-.64-.82A1.89,1.89,0,0,0,6,12.06a1.5,1.5,0,0,1,.7-.24c.34,0,1.07.36,1.07.85A2.4,2.4,0,0,0,8.19,14c.28.45.42.47.42.67s-.73.15-1.32-.19a6.26,6.26,0,0,1-1-.7,2.68,2.68,0,0,0-.34-.23s.57,0,.69.14S7.27,14,7.27,13.8Z" fill="#212121"/><path d="M10.79,10.8c-.24,0-.34-.12-.34-.24s.63-.57,1-.66a3.5,3.5,0,0,0,1.17-.6,2.19,2.19,0,0,0,.32-.44,5,5,0,0,1-1,.68,4.26,4.26,0,0,0-1.17.46c-.3.24-.38.32-.53.32A7.49,7.49,0,0,1,8.74,8.48c0-.22.47-.19.9-.43S10.58,8,11,7.65a3.43,3.43,0,0,1,.88-.59,3.14,3.14,0,0,1,.46-.16,2.74,2.74,0,0,0-.94.18c-.34.17-.51.47-1.12.58A6,6,0,0,0,9,8c-.34.15-.54.29-.75.09A6.25,6.25,0,0,0,6.35,6.39a4,4,0,0,0-2.12-.17l-.46.21a3,3,0,0,1,.7-.82A3.4,3.4,0,0,1,5.59,5a4.62,4.62,0,0,0-.51.45.89.89,0,0,0-.17.35A4.14,4.14,0,0,1,5.72,5a2.53,2.53,0,0,1,1.34-.18,3.47,3.47,0,0,0-1,.54A1.16,1.16,0,0,0,5.71,6,4.05,4.05,0,0,1,6.92,5.1,8,8,0,0,1,9,5a8,8,0,0,0-1.51.37,2.1,2.1,0,0,0-.74.51,9.69,9.69,0,0,1,2-.56,5.16,5.16,0,0,1,1.59.09,12.42,12.42,0,0,0-1.87.35,8.43,8.43,0,0,0-1.22.64A14.66,14.66,0,0,1,9,5.85a10.51,10.51,0,0,1,2.21-.1,9,9,0,0,0-1.65.47,2.79,2.79,0,0,0-.88.66,4.86,4.86,0,0,1,1.77-.72,3.4,3.4,0,0,1,1.7.13,11.19,11.19,0,0,0-2,.44,2,2,0,0,0-1.05.73,6.29,6.29,0,0,1,2-.8c1.25-.28,1.39-.11,1.61.14s.2.42,0,.55A6,6,0,0,1,11,8.19a2.8,2.8,0,0,0-1.41.32c-.3.21-.31.33-.31.33s.15-.24,1-.4a11.24,11.24,0,0,0,1.38-.19c.62-.18,1.25-.89,1.44-.89s.33.1.33.25a2.81,2.81,0,0,1-1.63,1.23,5.11,5.11,0,0,0-1.56.67,1.47,1.47,0,0,1-.4.1,1.3,1.3,0,0,0,1-.16,4.24,4.24,0,0,1,1.39-.51,3.05,3.05,0,0,0,1.26-1c.19-.25.28-.19.5,0s.3.24,0,.54a10.92,10.92,0,0,1-1.35,1.41A7.44,7.44,0,0,1,10.79,10.8Z" fill="#212121"/><path d="M8.93,11.74c-.12,0-.23.06-.41-.46a7.35,7.35,0,0,1-.45-1.76c0-.48,0-1.23,0-1.23a6.12,6.12,0,0,0,.75,1c.33.32.53.53.53.7S9,10.44,9,11,9,11.74,8.93,11.74Z" fill="#212121"/><path d="M8.39,11.5a7.55,7.55,0,0,1-1.2-2.35,10.12,10.12,0,0,1-.12-2s.8.76.8.92a10,10,0,0,0,.08,2A9.86,9.86,0,0,1,8.39,11.5Z" fill="#212121"/><path d="M8,11.33A11.13,11.13,0,0,1,6.18,8.62,7,7,0,0,1,5.8,6.47l.6.26c.33.15.51.23.51.71a5.87,5.87,0,0,0,.31,2.33C7.57,10.51,8.09,11.33,8,11.33Z" fill="#212121"/><path d="M7.64,11.19c-.09.09-.33-.07-.6-.1s-.31,0-.63-.4a12.2,12.2,0,0,1-1.3-1.86,6.22,6.22,0,0,1-.38-1.31,5,5,0,0,0,.45,1.76c.36.58,1.33,1.69,1.33,1.83s-.18.25-.34.25S5.68,10.79,5,10.3A5.33,5.33,0,0,1,3.34,8.73a3.44,3.44,0,0,1,0-1.58,2.05,2.05,0,0,1,.46-.55A3.55,3.55,0,0,0,3.9,8a2.07,2.07,0,0,0,.64.87A3.48,3.48,0,0,1,4,7.6,1.84,1.84,0,0,1,4,6.49a4,4,0,0,1,1.5-.07,9.46,9.46,0,0,0,.39,2A13,13,0,0,0,7.64,11.19Z" fill="#212121"/><path d="M5.9,11.4c0,.14-.18.25-.37.25s-.57-.49-1.21-.74A4.17,4.17,0,0,1,2.73,9.85,1,1,0,0,1,2.5,8.79,6.91,6.91,0,0,1,3,7.56,3.28,3.28,0,0,0,3.19,9a4.15,4.15,0,0,0,1.29,1.28A5.94,5.94,0,0,1,5.9,11.4Z" fill="#212121"/><path d="M5.29,11.76c0,.14-.13.34-.29.34s-.59-.27-1.44-.49S2.08,11.4,2,11.29a9.5,9.5,0,0,1,.27-1.78,1.88,1.88,0,0,0,.78.93A14.75,14.75,0,0,1,5.29,11.76Z" fill="#212121"/><path d="M4.83,12.89a4.79,4.79,0,0,0-1.46-.53,6.42,6.42,0,0,0-1.61,0c-.18,0,0-.66.12-.79A9.23,9.23,0,0,1,4.3,12c.51.16.58.24.58.34S5,12.89,4.83,12.89Z" fill="#212121"/><path d="M5.4,15.18c-.05.11-.1.24-.15.37a.09.09,0,0,1-.14,0,3.81,3.81,0,0,0-1.65-1,.1.1,0,0,1-.07-.1c.11-.53.17-.94.19-1.09v0c.78.06,1.46,1.09,1.81,1.75A.06.06,0,0,1,5.4,15.18Z" fill="#212121"/><path d="M1.34,15.33a3.47,3.47,0,0,1,1.74-.62.09.09,0,0,1,.08.11c0,.17-.07.36-.11.55a.09.09,0,0,1-.08.06,3.43,3.43,0,0,0-1.54.88.09.09,0,0,1-.15-.07c0-.29,0-.57,0-.84A.1.1,0,0,1,1.34,15.33Z" fill="#212121"/><path d="M2.73,16.54a2.33,2.33,0,0,0-1.3.73.09.09,0,0,1-.15-.07v-.48a.07.07,0,0,1,0-.06,4.86,4.86,0,0,1,1.56-1.05.1.1,0,0,1,.11.11c-.06.25-.11.51-.17.76A.08.08,0,0,1,2.73,16.54Z" fill="#212121"/><path d="M3.43,13.47c0,.12-.1.5-.2,1a.08.08,0,0,1-.09.07A2.82,2.82,0,0,0,1.46,15a.1.1,0,0,1-.14-.09c0-.17,0-.33,0-.47s0-.25,0-.37a.06.06,0,0,1,0-.06,4.36,4.36,0,0,1,2-.68S3.43,13.43,3.43,13.47Z" fill="#212121"/><path d="M3,16.47c.06-.26.12-.53.17-.79a.09.09,0,0,1,.11-.07,3.83,3.83,0,0,1,1.56,1,.1.1,0,0,1,0,.09c-.08.26-.17.55-.26.86a.09.09,0,0,1-.15,0,3.54,3.54,0,0,0-1.39-1A.09.09,0,0,1,3,16.47Z" fill="#212121"/><path d="M3.44,14.77a4.66,4.66,0,0,1,1.65,1.06.07.07,0,0,1,0,.09c-.05.13-.1.28-.15.43a.09.09,0,0,1-.14,0,3.51,3.51,0,0,0-1.52-.94.09.09,0,0,1-.07-.11c0-.17.07-.34.1-.5A.09.09,0,0,1,3.44,14.77Z" fill="#212121"/><path d="M0,18.09c0,.35.47.86.94,2.53s.87,1.67,1.37,1.67,1.26-.79,2-3.85c0-.17.08-.34.13-.5a.07.07,0,0,0,0-.07A3.44,3.44,0,0,0,3,16.75a.08.08,0,0,0-.11.06c0,.11,0,.22-.08.32-.37,1.5-.69,1.95-1,1.95s-.54-.42-.54-.42-.74-1-.95-1S0,17.74,0,18.09Zm.74,1.15a19,19,0,0,0,1.17,2.47c.22.16.25.22.52.23a.77.77,0,0,1-.6-.12A21.8,21.8,0,0,1,.74,19.24Z" fill="#212121"/><path d="M3.6,13.1v-.35l.16-.13a2.2,2.2,0,0,1,1.49,1,2.3,2.3,0,0,1,.46.81,1.59,1.59,0,0,1-.15.4.08.08,0,0,1-.15,0c-.32-.54-1-1.49-1.73-1.6A.09.09,0,0,1,3.6,13.1Z" fill="#212121"/><path d="M1.79,18.84c-.07,0-.3-.23-.48-.42a.14.14,0,0,1,0-.06c0-.18,0-.43,0-.73a.07.07,0,0,1,0-.06,3.75,3.75,0,0,1,1.31-.84.1.1,0,0,1,.11.11,10.4,10.4,0,0,1-.38,1.35C2.05,18.87,1.92,18.84,1.79,18.84Z" fill="#212121"/><path d="M3.38,13.18a4.43,4.43,0,0,0-1.79.58.09.09,0,0,1-.13-.09,3,3,0,0,1,.21-1,3.17,3.17,0,0,1,1.72-.08s.08,0,.08.08,0,.29,0,.47A.09.09,0,0,1,3.38,13.18Z" fill="#212121"/><rect width="30" height="30" fill="none"/></svg>