<svg xmlns="http://www.w3.org/2000/svg" viewBox="0 0 30 30"><path d="M17.68,14.74a1.15,1.15,0,0,0,.93.49,1.35,1.35,0,0,0,1-.71c0-.15-.37-.5-.88-.5S17.68,14.43,17.68,14.74Z" fill="#212121"/><path d="M15,24.38c.15,0,1.92-.75,1.92-2.16S16,20.48,15,20.48V2a8.61,8.61,0,0,0,1-.09s-.2.41-.06.41.66-.52.66-.52-.09.39,0,.49.65,0,.65,0-.33.32,0,.32a3.81,3.81,0,0,0,1-.33s-.37.51.29.51a1.91,1.91,0,0,0,1.08-.32s-.21.38-.1.5.44,0,.54.09a.68.68,0,0,1,.15.28l.38-.3a1,1,0,0,0,.19.59c.17.17.56,0,.56,0a.37.37,0,0,0,.31.24c.23,0,.17-.43.17-.43a1.46,1.46,0,0,0,.48-.39,1.71,1.71,0,0,0,.35-.63A.35.35,0,0,0,23,2.6c.19,0,1-.72,1-.72l.06.18a1.07,1.07,0,0,1,.55-.36,4.09,4.09,0,0,0,.75-.16,1.59,1.59,0,0,0,.27-.27s0,.2.2.2a3.53,3.53,0,0,0,.75-.17s-.07.18.09.18.62-.2.85-.2a1.13,1.13,0,0,1,.37.05s-.08.16,0,.24.88-.3.88-.3-.32.7-.13.89.64.1.9.13a.72.72,0,0,1,.41.16.81.81,0,0,0-.52.65,1.49,1.49,0,0,0,.13.84l-.29,0a1.36,1.36,0,0,1,.23.5,1,1,0,0,0,.26.45l-.27-.08a.88.88,0,0,1-.05.44.92.92,0,0,1-.18.33,1.7,1.7,0,0,0,.33.31A3.55,3.55,0,0,0,30,6a1.43,1.43,0,0,0-.73.16.93.93,0,0,0-.32.38l.34.26s-.34,0-.43,0,.17.49-.06.74-.8.29-.94.43,0,.3-.2.46a.55.55,0,0,1-.34.15s.08.23,0,.31a2.88,2.88,0,0,1-.85.06.4.4,0,0,1,.12.27c0,.15-.4.36-.79.48s-.27.34-.45.48a1.2,1.2,0,0,1-1.18-.07c-.39-.26-1.37-.79-1.48-1.06a1.92,1.92,0,0,0-.25-.52.85.85,0,0,0-.28-.15,7.35,7.35,0,0,1,0,1.24,7,7,0,0,1-.18.91.92.92,0,0,0,.3.18,2.35,2.35,0,0,0,.36.07,1.41,1.41,0,0,1-.39.13l-.4,0a1,1,0,0,0,.08.21,1.45,1.45,0,0,0,.16.27,2.8,2.8,0,0,0-.74-.1,1.32,1.32,0,0,0-.48.08s0,.18,0,.29.06.27.06.27a2.53,2.53,0,0,0-.54-.14l-.34,0a4.65,4.65,0,0,1,.57,1,1.46,1.46,0,0,1,0,.62.59.59,0,0,0-.22-.13.91.91,0,0,0-.24,0s.13.28.23.46a1.77,1.77,0,0,0,.27.33,3.38,3.38,0,0,1-1.11-.42c-.56-.35-.65-.46-.93-.46a3.67,3.67,0,0,0-1.43.7,2.84,2.84,0,0,1-.56.41,1.78,1.78,0,0,1,.73.2c.15.15-.29.77-.53,1.11s-.33.85,0,.85.56,0,.74.56a1.73,1.73,0,0,1,0,1.3c-.15.37-.22.46-.05.71a5.2,5.2,0,0,1,.86,2.38c0,1-.07,1.26-.4,1.7a2.57,2.57,0,0,0-.5,1,1.5,1.5,0,0,0,0,.55.45.45,0,0,1-.23-.14.72.72,0,0,1-.14-.27,1.28,1.28,0,0,0-.07.42.6.6,0,0,0,.14.28.58.58,0,0,0-.38,0A8.33,8.33,0,0,1,15,25.2Z" fill="#212121"/><path d="M16.14,21.83c.43,0,.51.19.51.41a1.21,1.21,0,0,1-.1.43s-.08-.26-.26-.26-.21.05-.39.05S15.42,21.83,16.14,21.83Z" fill="#212121"/><path d="M18,16.07c.07-.08.9.16,1.55-.21a2,2,0,0,0,.81-.89c.14-.14.48.09.62-.05s0-.72.26-1.09a1.47,1.47,0,0,0,0-1.27c-.16-.26-.24-.38.19-.5s1-.05,1.1-.13-.1-.48.1-.67.07-.6.19-.72.91.22,1.35.58.43.7.64.94a2.88,2.88,0,0,0,.42.38l-.24.08a.56.56,0,0,1,.2.3c0,.16,0,.38,0,.38l-.49-.06a2.16,2.16,0,0,1,.41.45,2.16,2.16,0,0,0,.34.4.68.68,0,0,1-.38,0,1.62,1.62,0,0,1-.37-.16.81.81,0,0,0,.16.35,1.12,1.12,0,0,0,.23.22,5.2,5.2,0,0,1-.52,0,2.79,2.79,0,0,1-.44,0,.5.5,0,0,0,0,.33.87.87,0,0,0,.22.21,1.89,1.89,0,0,0-.09.55,2.93,2.93,0,0,0,.06.56l-.42-.31a2.2,2.2,0,0,0,0,.33.9.9,0,0,0,0,.28s-.31-.07-.31.09.23.37.23.37a1.17,1.17,0,0,1-.25,0,.39.39,0,0,1-.17-.11s0,.58-.09.68-.87,0-.87,0a1.58,1.58,0,0,1,.2.63,3.32,3.32,0,0,0,0,.51,1,1,0,0,0-.65.06c-.22.15-.16,1-.16,1a.22.22,0,0,0-.2,0,1,1,0,0,0-.16.22l-.31-.35a2.6,2.6,0,0,1,0,1,1.42,1.42,0,0,1-.33.41l-.38-.26a2.14,2.14,0,0,0-.29.32,1.27,1.27,0,0,0-.14.31,2.71,2.71,0,0,0-.79,0,.43.43,0,0,0-.07.27.68.68,0,0,1-.41-.19,11.19,11.19,0,0,1-.46-1.61,6.36,6.36,0,0,1-.31-.84c0-.12.31-.53.31-.83s-.53-1.23-.53-1.48A.65.65,0,0,1,18,16.07Z" fill="#212121"/><path d="M23.94,10.41c.1-.09.45.28,1.06.28s.65-.49,1-.49a3.84,3.84,0,0,1,.81.18,2.34,2.34,0,0,0,.35,0,2.18,2.18,0,0,1-.62.1c-.37,0-.44.16-.32.32a4.07,4.07,0,0,0,.84.48,1.38,1.38,0,0,1-.43.07c-.23,0-.39,0-.43,0s0,.3.19.52a3.29,3.29,0,0,0,.43.35,4.16,4.16,0,0,0-.54,0c-.23,0-.34.09-.21.21a.29.29,0,0,1,0,.39c-.09.08-.06.26,0,.45a1.45,1.45,0,0,0,.28.35s-.27,0-.34.07.08.22.08.37-.23.27-.23.56a1.42,1.42,0,0,0,.26.66.41.41,0,0,0-.27.08c-.1.1,0,.77,0,.77s-.1-.11-.17,0a1.43,1.43,0,0,0,0,.94c.12.24.28.53.28.53s-.29-.28-.44-.28-.09.59,0,.82a4.86,4.86,0,0,0,.26.51s-.3-.31-.4-.31-.13.3-.13.59a1.79,1.79,0,0,0,.09.54.92.92,0,0,0-.32-.11.49.49,0,0,0-.23.07s.13.46,0,.63a.58.58,0,0,1-.43.14,2.4,2.4,0,0,1,.1.61.87.87,0,0,1-.14.48,1.78,1.78,0,0,0-1,.26c-.27.27.22,1.12.22,1.12a2.37,2.37,0,0,1-.35-.15,2.05,2.05,0,0,1-.26-.18l0,.35h-.21a.9.9,0,0,0-.05.29,1.13,1.13,0,0,0,.07.35s-.28-.1-.37,0-.07.48-.07.48-.32-.35-.54-.35,0,.44,0,.44a1.11,1.11,0,0,0-.41-.1c-.19,0-.05.82-.05.82A1.21,1.21,0,0,0,21,24.5c-.27,0-.23,1.13-.23,1.13s-1-.11-1.19.06,0,.71,0,.71-.69-.12-.81,0,0,.38,0,.38-1.06.08-1.29.35a.45.45,0,0,0-.12.47s-.21-.1-.21,0,.12.25.12.41-.22.19-.55.19a1,1,0,0,1-.6-.29s0,.3-.08.42a2.47,2.47,0,0,1-1.08.38V25.92a1.58,1.58,0,0,0,.74-.22.68.68,0,0,0,.09-.25,1,1,0,0,0,.61.34c.34,0,.35-.33.62-.5a2.06,2.06,0,0,0,1.19-1.13,6.9,6.9,0,0,0,.45-1.68,3.54,3.54,0,0,0,0-.5,5.34,5.34,0,0,0,1.11-.39,1.07,1.07,0,0,1,.73-.37c.37,0,1,0,1-.49a1.07,1.07,0,0,1,.5-.9c.23-.15.34-.4.17-.57s-.15-.23.32-.42.62-.26.58-.55-.15-.53.23-.53.46-.49.46-.49a.35.35,0,0,0,.28-.12c.1-.13,0-.82,0-.82a.72.72,0,0,0,.37.15c.19,0,.28-.65.25-.93a4.92,4.92,0,0,0-.11-.58.87.87,0,0,1,.34-.29c.16,0,.36,0,.49-.25l.25-.46a.48.48,0,0,1-.24-.39c0-.27.31-.67.31-.84s-.55-.53-.73-.85a2.77,2.77,0,0,0-.63-.9C24.07,10.75,23.89,10.46,23.94,10.41Z" fill="#212121"/><path d="M12.32,14.74a1.15,1.15,0,0,1-.93.49,1.35,1.35,0,0,1-1-.71c0-.15.37-.5.88-.5S12.32,14.43,12.32,14.74Z" fill="#212121"/><path d="M15,24.38c-.15,0-1.92-.75-1.92-2.16S14,20.48,15,20.48V2a8.61,8.61,0,0,1-1-.09s.2.41.06.41-.66-.52-.66-.52.09.39,0,.49-.65,0-.65,0,.33.32,0,.32a3.81,3.81,0,0,1-1-.33s.37.51-.29.51a1.91,1.91,0,0,1-1.08-.32s.21.38.1.5-.44,0-.54.09a.68.68,0,0,0-.15.28l-.38-.3a1,1,0,0,1-.19.59c-.17.17-.56,0-.56,0a.37.37,0,0,1-.31.24c-.23,0-.17-.43-.17-.43a1.46,1.46,0,0,1-.48-.39,1.71,1.71,0,0,1-.35-.63A.35.35,0,0,1,7,2.6c-.19,0-1-.72-1-.72L6,2.06a1.07,1.07,0,0,0-.55-.36,4.09,4.09,0,0,1-.75-.16,1.59,1.59,0,0,1-.27-.27s0,.2-.2.2a3.53,3.53,0,0,1-.75-.17s.07.18-.09.18-.62-.2-.85-.2a1.13,1.13,0,0,0-.37.05s.08.16,0,.24-.88-.3-.88-.3.32.7.13.89-.64.1-.9.13a.72.72,0,0,0-.41.16.81.81,0,0,1,.52.65,1.49,1.49,0,0,1-.13.84l.29,0a1.36,1.36,0,0,0-.23.5,1,1,0,0,1-.26.45l.27-.08a.88.88,0,0,0,0,.44.92.92,0,0,0,.18.33,1.7,1.7,0,0,1-.33.31A3.55,3.55,0,0,1,0,6a1.43,1.43,0,0,1,.73.16.93.93,0,0,1,.32.38l-.34.26s.34,0,.43,0-.17.49.06.74.8.29.94.43,0,.3.2.46a.55.55,0,0,0,.34.15s-.08.23,0,.31A2.88,2.88,0,0,0,3.54,9a.4.4,0,0,0-.12.27c0,.15.4.36.79.48s.27.34.45.48a1.2,1.2,0,0,0,1.18-.07c.39-.26,1.37-.79,1.48-1.06a1.92,1.92,0,0,1,.25-.52.85.85,0,0,1,.28-.15,7.35,7.35,0,0,0,0,1.24,7,7,0,0,0,.18.91.92.92,0,0,1-.3.18,2.35,2.35,0,0,1-.36.07A1.41,1.41,0,0,0,7.8,11l.4,0a1,1,0,0,1-.08.21A1.45,1.45,0,0,1,8,11.5a2.8,2.8,0,0,1,.74-.1,1.32,1.32,0,0,1,.48.08s0,.18,0,.29-.06.27-.06.27a2.53,2.53,0,0,1,.54-.14l.34,0a4.65,4.65,0,0,0-.57,1,1.46,1.46,0,0,0,0,.62.59.59,0,0,1,.22-.13.91.91,0,0,1,.24,0s-.13.28-.23.46a1.77,1.77,0,0,1-.27.33,3.38,3.38,0,0,0,1.11-.42c.56-.35.65-.46.93-.46a3.67,3.67,0,0,1,1.43.7,2.84,2.84,0,0,0,.56.41,1.78,1.78,0,0,0-.73.2c-.15.15.29.77.53,1.11s.33.85,0,.85-.56,0-.74.56a1.73,1.73,0,0,0,0,1.3c.15.37.22.46.05.71a5.2,5.2,0,0,0-.86,2.38c0,1,.07,1.26.4,1.7a2.57,2.57,0,0,1,.5,1,1.5,1.5,0,0,1,0,.55.45.45,0,0,0,.23-.14.72.72,0,0,0,.14-.27,1.28,1.28,0,0,1,.07.42.6.6,0,0,1-.14.28.58.58,0,0,1,.38,0A8.33,8.33,0,0,0,15,25.2Z" fill="#212121"/><path d="M13.86,21.83c-.43,0-.51.19-.51.41a1.21,1.21,0,0,0,.1.43s.08-.26.26-.26.21.05.39.05S14.58,21.83,13.86,21.83Z" fill="#212121"/><path d="M12,16.07c-.07-.08-.9.16-1.55-.21A2,2,0,0,1,9.65,15c-.14-.14-.48.09-.62-.05s0-.72-.26-1.09a1.47,1.47,0,0,1,0-1.27c.16-.26.24-.38-.19-.5s-1-.05-1.1-.13.1-.48-.1-.67-.07-.6-.19-.72-.91.22-1.35.58-.43.7-.64.94a2.88,2.88,0,0,1-.42.38l.24.08a.56.56,0,0,0-.2.3c0,.16,0,.38,0,.38l.49-.06a2.16,2.16,0,0,0-.41.45,2.16,2.16,0,0,1-.34.4A.68.68,0,0,0,5,14a1.62,1.62,0,0,0,.37-.16.81.81,0,0,1-.16.35,1.12,1.12,0,0,1-.23.22,5.2,5.2,0,0,0,.52,0,2.79,2.79,0,0,0,.44,0,.5.5,0,0,1,0,.33.87.87,0,0,1-.22.21,1.89,1.89,0,0,1,.09.55,2.93,2.93,0,0,1-.06.56l.42-.31a2.2,2.2,0,0,1,0,.33.9.9,0,0,1,0,.28s.31-.07.31.09-.23.37-.23.37a1.17,1.17,0,0,0,.25,0,.39.39,0,0,0,.17-.11s0,.58.09.68.87,0,.87,0a1.58,1.58,0,0,0-.2.63,3.32,3.32,0,0,1,0,.51,1,1,0,0,1,.65.06c.22.15.16,1,.16,1a.22.22,0,0,1,.2,0,1,1,0,0,1,.16.22l.31-.35a2.6,2.6,0,0,0,0,1,1.42,1.42,0,0,0,.33.41l.38-.26a2.14,2.14,0,0,1,.29.32,1.27,1.27,0,0,1,.14.31,2.71,2.71,0,0,1,.79,0,.43.43,0,0,1,.07.27.68.68,0,0,0,.41-.19,11.19,11.19,0,0,0,.46-1.61,6.36,6.36,0,0,0,.31-.84c0-.12-.31-.53-.31-.83s.53-1.23.53-1.48A.65.65,0,0,0,12,16.07Z" fill="#212121"/><path d="M6.06,10.41c-.1-.09-.45.28-1.06.28s-.65-.49-1-.49a3.84,3.84,0,0,0-.81.18,2.34,2.34,0,0,1-.35,0,2.18,2.18,0,0,0,.62.1c.37,0,.44.16.32.32a4.07,4.07,0,0,1-.84.48,1.38,1.38,0,0,0,.43.07c.23,0,.39,0,.43,0s0,.3-.19.52a3.29,3.29,0,0,1-.43.35,4.16,4.16,0,0,1,.54,0c.23,0,.34.09.21.21a.29.29,0,0,0,0,.39c.09.08.06.26,0,.45a1.45,1.45,0,0,1-.28.35s.27,0,.34.07-.08.22-.08.37.23.27.23.56a1.42,1.42,0,0,1-.26.66.41.41,0,0,1,.27.08c.1.1,0,.77,0,.77s.1-.11.17,0a1.43,1.43,0,0,1,0,.94c-.12.24-.28.53-.28.53s.29-.28.44-.28.09.59,0,.82a4.86,4.86,0,0,1-.26.51s.3-.31.4-.31.13.3.13.59a1.79,1.79,0,0,1-.09.54.92.92,0,0,1,.32-.11.49.49,0,0,1,.23.07s-.13.46,0,.63a.58.58,0,0,0,.43.14,2.4,2.4,0,0,0-.1.61.87.87,0,0,0,.14.48,1.78,1.78,0,0,1,1,.26c.27.27-.22,1.12-.22,1.12a2.37,2.37,0,0,0,.35-.15A2.05,2.05,0,0,0,7,22.31l0,.35h.21a.9.9,0,0,1,.05.29,1.13,1.13,0,0,1-.07.35s.28-.1.37,0,.07.48.07.48.32-.35.54-.35,0,.44,0,.44a1.11,1.11,0,0,1,.41-.1c.19,0,.05.82.05.82A1.21,1.21,0,0,1,9,24.5c.27,0,.23,1.13.23,1.13s1-.11,1.19.06,0,.71,0,.71.69-.12.81,0-.05.38-.05.38,1.06.08,1.29.35a.45.45,0,0,1,.12.47s.21-.1.21,0-.12.25-.12.41.22.19.55.19a1,1,0,0,0,.6-.29s0,.3.08.42a2.47,2.47,0,0,0,1.08.38V25.92a1.58,1.58,0,0,1-.74-.22.68.68,0,0,1-.09-.25,1,1,0,0,1-.61.34c-.34,0-.35-.33-.62-.5a2.06,2.06,0,0,1-1.19-1.13,6.9,6.9,0,0,1-.45-1.68,3.54,3.54,0,0,1,0-.5,5.34,5.34,0,0,1-1.11-.39,1.07,1.07,0,0,0-.73-.37c-.37,0-1,0-1-.49a1.07,1.07,0,0,0-.5-.9c-.23-.15-.34-.4-.17-.57S8,19,7.5,18.84s-.62-.26-.58-.55.15-.53-.23-.53-.46-.49-.46-.49A.35.35,0,0,1,6,17.15c-.1-.13,0-.82,0-.82a.72.72,0,0,1-.37.15c-.19,0-.28-.65-.25-.93A4.92,4.92,0,0,1,5.42,15a.87.87,0,0,0-.34-.29c-.16,0-.36,0-.49-.25L4.34,14a.48.48,0,0,0,.24-.39c0-.27-.31-.67-.31-.84s.55-.53.73-.85a2.77,2.77,0,0,1,.63-.9C5.93,10.75,6.11,10.46,6.06,10.41Z" fill="#212121"/><rect width="30" height="30" fill="none"/></svg>