<!-- Copyright (c) 2022 Jan Stehno -->
<svg xmlns="http://www.w3.org/2000/svg" viewBox="0 0 300 300"><title>blackgrouse</title><g id="blackgrouse"><g id="right"><path d="M150,125.1c1,0,2.47,2.4,4.87,2.4s2.55-2.59,5.2-2.59,3.21-3.32,4.47-3.32,1-2.32,1.77-3.1,2.43.41,2.43-2.13-2.21-6.24-3.87-6.24S152.62,119.6,150,119.6Z" fill="#212121"/><path d="M150,116.72c1.25,0,15.2-9.29,15.2-11.36s-.74-1.77-4.39,1-7.05,5-1-.36,6.71-4,6.71-5.65-4.24.63-7.34-1.73-6.05-13-9.15-13Z" fill="#212121"/><path d="M168.7,51.72c6.94,0,12.14,6.09,12.14,14.76S178.18,80.24,177,80.24s-1.84-3.06-4.16-3.06-3.84,2.87-4.43,5.75.29,7-3.58,2.73-8.08-11.55-8.08-17.48S160.18,51.72,168.7,51.72Z" fill="#212121"/><path d="M173.46,80.68c-2.62,0-4.09,2.51-4.09,5.94s2,5.24,4.39,5.24,2.62-1.73.63-1.73-1.84-1.89-1.84-3.86.65-3.93,2.17-3.93S175.31,80.68,173.46,80.68Z" fill="#212121"/><path d="M178,86.27c.77,0,.77,6.66-.56,8s-2.1,1.29-3.91,1.29-2.73-1.29-3.28-2.58,1.25.25,3.73.25,3.28-2.69,3.43-4.2S177.63,86.27,178,86.27Z" fill="#212121"/><path d="M185.45,88.35c0-8.74-2.47-10.62-2.47-11.69s8.82.15,13.24,1.77,5.72,2.55,5.17,6.79l-.55,4.24a10.47,10.47,0,0,0,1.73-4.76c0-2.28,1-3,5.61-2.4s7.41,3.36,7.49,6a25.24,25.24,0,0,1-1.26,6.64s2.51-3.36,3.06-5.31,5.87-1.22,10.37,1.55,5.72,4.54,5.72,7.63a13.39,13.39,0,0,1-1.29,5.58s2.17-5.13,5-5.13,4.79,1.55,4.79,3.61-2.25,4.61-2.25,4.61,2.7-2.39,4.43-2.39,4.94,2.39,6,4.39a5.6,5.6,0,0,1,.51,4.68,11.75,11.75,0,0,1-1.36,2.73,5.69,5.69,0,0,1,4.13-1.81c2.62,0,9.41,4.21,11.62,7.86s2.07,6.09,1.44,7.64a23.33,23.33,0,0,1-1.66,3.17s2.29-3.58,5-1.07,6.27,5.53,6.23,7.56-3.09,4.5-3.09,4.5,2.84-2.58,4.75-2.61,7.71,5,11.51,10.44,3.8,8.48,3.69,10.58-2.87,4.54-2.87,4.54,4.53-4.06,7.12.48,2.8,6.35,2.8,14.09-1.4,11-3.43,12.88a14.39,14.39,0,0,1-6.12,3.58c-1.92.4-5.21,4.64-8.78,4.64s-5.21-3.24-5.21-8.3.7-10-5.27-15.71-14.24-6.16-20.62-6.16-19.22,2.8-19.74,2,1.25-2.33,1.25-6.13-8.92-21-9.07-22.61,1.4-2.58,3.83-4.24-1.66-6.09-5.57-8.67-11.73-7.82-11.84-10.81.59-4.65-4.61-6.24-14.76-5.49-16.6-9.77-.92-6.2-1.88-9.41S185.45,91.6,185.45,88.35Z" fill="#212121"/><path d="M223.3,154.28c-4-7.53-5.2-9.48-.48-12s1.88-3.69-5.86-8.82-10.81-9.37-10.37-10.66,2-3.06-1.66-3.8-17-6.57-18.74-8.71-2.8-7.12-3.65-12.17-.67-4.39-3.06-2-5.92,2.58-11.08-1-8.26-8-11.35-15.29-2.48-14.32-1.44-16.9,0-2.4-5.61-2.4V83.12c1.81,0,4.61,5.31,7.34,10.07s4.8,4.31,8.38,5.31a4.53,4.53,0,0,1,2.95,6.42c-1,1.73-1.52,3.39-.85,4.65s2.43,5.53,2.43,7.67-.22,3.91-1.62,3.91-1,1.07-1.84,2.58-2.18.78-3.62,2.44-3.84.92-4.87,2.36-5.24,4.68-8.3,4.68V248.28c17.49,0,26.12-9.85,31.36-15.53s18.3-16.27,20.29-16.27-2.14,4,1.73,4S216.15,204,217.92,204s.33,2.14,2.51,2.14,5.34-10.88,5.34-18.59-1.4-14.06-.44-15,1.44,1.48,2.33,1.48,1.84,0,1.84-4.06S227.32,161.81,223.3,154.28ZM176.16,220c-2.18,0-8.27-10.66-8.27-10.66s6.53,7.75,8.16,7.12,1.14-9.52,1.14-9.52.85,2.51,1.59,5.87S178.33,220.06,176.16,220Zm2-45.71c-2.66,0-10-7-10-7,6.94,4.46,8.78,4.79,8.78,2.77s-2.77-8.64-2.77-8.64,2.4,3.66,3.51,5.32S180.77,174.31,178.11,174.31Zm5.06-7c-3,0-7.27-4.87-7.27-4.87,3.17,1.7,6.2,3.06,6.2,1.11s-1.85-7.6-1.85-7.6,1,1.4,2.21,3.5S186.19,167.34,183.17,167.34Zm28.77-12c2.1,2.47,4.57,6.34,1.73,6.34S203.09,158,203.09,158c4.46,1.47,8.92,2.54,8.92.92s-4.44-7.49-4.44-7.49A21.75,21.75,0,0,1,211.94,155.35Zm-8.78-26.86a16.7,16.7,0,0,1,5.39,2.62c2.17,1.77,3.46,2.51,1.47,3.36s-11.88.92-11.88.92,9-1.66,9-2.77S203.16,128.49,203.16,128.49Zm-5.9,68.66c-.22,2.36-.85,5-2.77,5.09-2.47.07-5.72-9.59-5.72-9.59s4.54,6.9,6.31,6.71,1.48-6.27,1.48-6.27A7.73,7.73,0,0,1,197.26,197.15Zm3.5,6.19c-1.58.15-2.58-5-2.58-5s1.7,2,2.58,1.89,1.48-3.58,1.48-3.58S202.17,203.21,200.76,203.34Zm1.48-8.63c-3.51,1.88-9.21-9.88-9.21-9.88a36.15,36.15,0,0,0,2.79,3.65c1.62,1.84,4.32,4.06,5.2,3.35s0-9.14,0-9.14,2.18,4.42,2.44,6.08S204.27,193.62,202.24,194.71Zm9.33-22.46c-2.73,0-9.77-4.39-9.77-4.39,5.38,1.88,8.89,3,8.89,1.32s-3.8-7.08-3.8-7.08a42.1,42.1,0,0,1,4.68,4.5C213.56,168.93,214.3,172.25,211.57,172.25Zm5.06-3.73a5,5,0,0,1-3.51-1.59s2.69.08,2.69-1.14-1.77-2.73-1.77-2.73a6.09,6.09,0,0,1,2.92,1.66C217.88,165.9,218.77,168.52,216.63,168.52Z" fill="#212121"/></g><g id="left"><path d="M150,125.1c-1,0-2.47,2.4-4.87,2.4s-2.55-2.59-5.2-2.59-3.21-3.32-4.47-3.32-1-2.32-1.77-3.1-2.43.41-2.43-2.13,2.21-6.24,3.87-6.24,12.25,9.48,14.87,9.48Z" fill="#212121"/><path d="M150,116.72c-1.25,0-15.2-9.29-15.2-11.36s.74-1.77,4.39,1,7.05,5,1-.36-6.71-4-6.71-5.65,4.24.63,7.34-1.73,6.05-13,9.15-13Z" fill="#212121"/><path d="M131.3,51.72c-6.94,0-12.14,6.09-12.14,14.76s2.66,13.76,3.84,13.76,1.84-3.06,4.16-3.06,3.84,2.87,4.43,5.75-.29,7,3.58,2.73,8.08-11.55,8.08-17.48S139.82,51.72,131.3,51.72Z" fill="#212121"/><path d="M126.54,80.68c2.62,0,4.09,2.51,4.09,5.94s-2,5.24-4.39,5.24-2.62-1.73-.63-1.73,1.84-1.89,1.84-3.86-.65-3.93-2.17-3.93S124.69,80.68,126.54,80.68Z" fill="#212121"/><path d="M122,86.27c-.77,0-.77,6.66.56,8s2.1,1.29,3.91,1.29,2.73-1.29,3.28-2.58-1.25.25-3.73.25-3.28-2.69-3.43-4.2S122.37,86.27,122,86.27Z" fill="#212121"/><path d="M114.55,88.35c0-8.74,2.47-10.62,2.47-11.69s-8.82.15-13.24,1.77S98.06,81,98.61,85.22l.55,4.24a10.47,10.47,0,0,1-1.73-4.76c0-2.28-1-3-5.61-2.4s-7.41,3.36-7.49,6a25.24,25.24,0,0,0,1.26,6.64s-2.51-3.36-3.06-5.31-5.87-1.22-10.37,1.55-5.72,4.54-5.72,7.63a13.39,13.39,0,0,0,1.29,5.58s-2.17-5.13-5-5.13S58,100.79,58,102.85s2.25,4.61,2.25,4.61-2.7-2.39-4.43-2.39-4.94,2.39-6,4.39a5.6,5.6,0,0,0-.51,4.68,11.75,11.75,0,0,0,1.36,2.73,5.69,5.69,0,0,0-4.13-1.81c-2.62,0-9.41,4.21-11.62,7.86s-2.07,6.09-1.44,7.64a23.33,23.33,0,0,0,1.66,3.17s-2.29-3.58-5-1.07-6.27,5.53-6.23,7.56,3.09,4.5,3.09,4.5-2.84-2.58-4.75-2.61-7.71,5-11.51,10.44S6.94,161,7.05,163.13s2.87,4.54,2.87,4.54-4.53-4.06-7.12.48S0,174.5,0,182.24s1.4,11,3.43,12.88a14.39,14.39,0,0,0,6.12,3.58c1.92.4,5.21,4.64,8.78,4.64s5.21-3.24,5.21-8.3-.7-10,5.27-15.71,14.24-6.16,20.62-6.16,19.22,2.8,19.74,2-1.25-2.33-1.25-6.13,8.92-21,9.07-22.61-1.4-2.58-3.83-4.24,1.66-6.09,5.57-8.67,11.73-7.82,11.84-10.81-.59-4.65,4.61-6.24,14.76-5.49,16.6-9.77.92-6.2,1.88-9.41S114.55,91.6,114.55,88.35Z" fill="#212121"/><path d="M70.5,170c0,4,1,4.06,1.84,4.06s1.37-2.44,2.33-1.48-.44,7.31-.44,15,3.17,18.59,5.34,18.59.74-2.14,2.51-2.14S92.74,220.5,96.62,220.5s-.26-4,1.73-4,15.05,10.59,20.29,16.27,13.87,15.53,31.36,15.53V133.21c-3.06,0-7.27-3.24-8.3-4.68s-3.43-.7-4.87-2.36-2.77-.92-3.62-2.44-.44-2.58-1.84-2.58-1.62-1.77-1.62-3.91,1.77-6.42,2.43-7.67.15-2.92-.85-4.65a4.53,4.53,0,0,1,2.95-6.42c3.58-1,5.65-.55,8.38-5.31s5.53-10.07,7.34-10.07V60.5c-5.57,0-6.64-.18-5.61,2.4s1.66,9.55-1.44,16.9-6.18,11.7-11.35,15.29-8.68,3.37-11.08,1-2.21-3-3.06,2-1.95,10-3.65,12.17-15,8-18.74,8.71-2.1,2.51-1.66,3.8S90.79,128.34,83,133.47s-10.59,6.31-5.86,8.82,3.54,4.46-.48,12S70.5,165.94,70.5,170Zm50.72,42.87c.74-3.36,1.59-5.87,1.59-5.87s-.48,8.89,1.14,9.52,8.16-7.12,8.16-7.12S126,220,123.84,220,120.49,216.18,121.22,212.83Zm1.11-46c1.11-1.66,3.51-5.32,3.51-5.32s-2.77,6.61-2.77,8.64,1.84,1.69,8.78-2.77c0,0-7.3,7-10,7S121.22,168.45,122.33,166.79Zm-4.79-7.31c1.21-2.1,2.21-3.5,2.21-3.5s-1.85,5.64-1.85,7.6,3,.59,6.2-1.11c0,0-4.24,4.87-7.27,4.87S116.32,161.58,117.54,159.48Zm-25.11-8S88,157.3,88,158.93s4.46.55,8.92-.92c0,0-7.74,3.68-10.58,3.68s-.37-3.87,1.73-6.34A21.75,21.75,0,0,1,92.43,151.44Zm.39-18.82c0,1.11,9,2.77,9,2.77S92,135.32,90,134.47s-.7-1.59,1.47-3.36a16.7,16.7,0,0,1,5.39-2.62S92.82,131.52,92.82,132.62Zm10.62,60.47s-.29,6.09,1.48,6.27,6.31-6.71,6.31-6.71-3.25,9.66-5.72,9.59c-1.92-.06-2.55-2.73-2.77-5.09A7.73,7.73,0,0,1,103.44,193.09Zm-5.68,3.58s.59,3.5,1.48,3.58,2.58-1.89,2.58-1.89-1,5.13-2.58,5C97.83,203.21,97.76,196.67,97.76,196.67Zm-1.22-7.9c.26-1.66,2.44-6.08,2.44-6.08s-.89,8.44,0,9.14,3.58-1.51,5.2-3.35a36.15,36.15,0,0,0,2.79-3.65s-5.7,11.76-9.21,9.88C95.73,193.62,96.29,190.43,96.54,188.77ZM88.43,166.6a42.1,42.1,0,0,1,4.68-4.5s-3.8,5.42-3.8,7.08,3.51.56,8.89-1.32c0,0-7,4.39-9.77,4.39S86.44,168.93,88.43,166.6ZM83,164.72A6.09,6.09,0,0,1,86,163.06s-1.77,1.51-1.77,2.73,2.69,1.14,2.69,1.14a5,5,0,0,1-3.51,1.59C81.23,168.52,82.12,165.9,83,164.72Z" fill="#212121"/></g></g><g id="frame"><rect width="300" height="300" fill="none"/></g></svg>