<!-- Copyright (c) 2022 Jan Stehno -->
<svg xmlns="http://www.w3.org/2000/svg" viewBox="0 0 300 300"><title>blackbuck</title><g id="blackbuck"><g id="right"><path d="M150,178c4.1,0,7.91-.79,9.53-4.86s1.54-9,2.71-10.16,11.52-.3,14.46.66,5.36,3.15,5.36,4.6-4.56,8-4.56,11,5.79,6.84,7.31,10.81a39.79,39.79,0,0,1,2.25,10.2c0,1.12-1.39,1.06-5.59,6a19.55,19.55,0,0,0-3.44,4.83,7,7,0,0,1-1.64,2.75c2.07-1,3.88,1.12,5,1.12,4.07,0,4.53-3.57,4.53-5.39a20.59,20.59,0,0,0-.8-4.54s1.82,3.48,1.82,5.63a7.07,7.07,0,0,1-4.89,6.75c-3.84,1.39-6.36,15.92-6.36,15.92s-2.28-6.29-2.58-9.93.83-5.53-.1-6.45-7.34-6-9-6.42-4.9-.86-.43-2.39S170,204,170.68,201s2.35-7.75,4.86-10.39,3.51-3.64,3.51-4.87-2.08-3.93-5.49-3.93-10.72,3.64-15.09,3.64H150Z" transform="translate(0)" fill="#212121"/><path d="M169.16,259.13s3-1.8,3.83-9,2.38-14.56,2.38-14.56a32.54,32.54,0,0,0-3.05,8.74C171.66,248.55,172.79,251.28,169.16,259.13Z" transform="translate(0)" fill="#212121"/><path d="M159.89,224.92s2.22,2.25,2.85,9.27,3.84,13.6,5,16.87,1.35,6.16.59,6.92-4.17-1-8.05,1.15A21,21,0,0,1,150,261.37v-2.78c.71,0,3.95-2.91,4.91-4.65a41.47,41.47,0,0,0,2-4.4,16.07,16.07,0,0,1-.37,3c-.31,1.16-.56,1.82-.56,1.82s4.58-3.09,4.58-6.35-.3-4.1-.86-4.67-6.12,3.07-9.66,3.07v-10c1.14,0,6,2.58,7.63,4s2.92,1.82,3.64,1.11-.26-3.42-.26-8S161.1,228.47,159.89,224.92Z" transform="translate(0)" fill="#212121"/><path d="M150,265.19a17.68,17.68,0,0,0,9.56-3.31c2.47-1.77,7.27-2,7.78-1.52s-3.6,6.45-8.52,10.18-6.75,4.87-8.82,4.87Z" transform="translate(0)" fill="#212121"/><path d="M178.72,235.18c.89.89-.53,10.12,1.06,17.54a40.48,40.48,0,0,1,.46,16.44,83.66,83.66,0,0,0-.92,9.2l-.63-6.75s-3,9-7.84,14.13a45.22,45.22,0,0,1-8.85,7.43l.75-3.86a18,18,0,0,0-5.9,4.3A83.73,83.73,0,0,1,150,300V282.85c2.6,0,7.51-4.26,11.08-9.35s9.6-11.35,11.88-16.35,2.78-15.16,3.88-17.6S178.06,234.52,178.72,235.18Z" transform="translate(0)" fill="#212121"/><path d="M230.87,149.41c-4.1,0-21.11,7.28-29.12,14.3S189.13,179.85,186,180.85s-4.9-.53-4.9.76,4,3.37,5.79,8.47,1.29,8.77,2.29,8.77-.27-4.61,7.23-9.56,13.9-4.58,20.52-9.88,13.08-12.53,14.54-19.87S235,149.41,230.87,149.41Zm-14,14.83c-5.79,2.87-8.47,6.48-10.62,9.06s-3.18,2.65-1.09,3.34a14.35,14.35,0,0,0,5.53.08.92.92,0,0,1,.29,0l-.29,0a4.68,4.68,0,0,0-1.92,1.31c-1.43,1.43-3.64.57-3.64.57a4,4,0,0,0,2.35.69,9.88,9.88,0,0,0,3.32-.83,18.59,18.59,0,0,1-5.25,4.11c-2.78,1.25-7.06.28-8,1.21s-3.46,6.33-5,6.33c-2.75,0,.48-1.89,1.74-4.5s1.06-6.68,3.57-10.85,12.57-10.23,17.17-11.85,11.75-7.15,11.75-7.15A31.88,31.88,0,0,1,216.87,164.24Z" transform="translate(0)" fill="#212121"/><path d="M207,111.82a31.12,31.12,0,0,1,5.14,7.57.34.34,0,0,0,.5.12,41.44,41.44,0,0,0,3.76-2.93.32.32,0,0,0,.1-.31c-.44-2.52-1.5-6.64-3.85-8.64s-7-1.56-9.5-1a.31.31,0,0,0-.13.06c-.31.24-.71.52-1.13.82a.34.34,0,0,0,0,.57A24.39,24.39,0,0,1,207,111.82Z" transform="translate(0)" fill="#212121"/><path d="M182.1,134.13a26.07,26.07,0,0,0-1.06,6.51.5.5,0,0,0,.67.49c2-.76,5.27-2,8.84-3,4.42-1.24,8.56-2.27,10.15-2.65a7,7,0,0,1,.15-1.21,69,69,0,0,1-11.8.92c-3,0-5-.57-6.2-1.38A.5.5,0,0,0,182.1,134.13Z" transform="translate(0)" fill="#212121"/><path d="M209.05,100.4a33,33,0,0,1-4-.17.23.23,0,0,0-.22.17,17.91,17.91,0,0,0-.67,3.7.2.2,0,0,0,.28.2,42.78,42.78,0,0,0,4.13-1.28c2.31-1.06,4.15-2.07,5.24-2.68a.21.21,0,0,0-.14-.39A38.93,38.93,0,0,1,209.05,100.4Z" transform="translate(0)" fill="#212121"/><path d="M191.13,134.19a85.88,85.88,0,0,0,9.65-.74.51.51,0,0,0,.41-.35,18.34,18.34,0,0,1,1.19-2.7.52.52,0,0,0-.35-.77,25.76,25.76,0,0,1-8.25-3.08,18.13,18.13,0,0,1-5.21-4.73.54.54,0,0,0-.84,0,29.35,29.35,0,0,0-4.9,9.95.49.49,0,0,0,.13.51C184,133.24,186.27,134.34,191.13,134.19Z" transform="translate(0)" fill="#212121"/><path d="M194.64,125.52a28.11,28.11,0,0,0,8.56,2.86.54.54,0,0,0,.55-.24q.62-.91,1.35-1.83a.55.55,0,0,0-.09-.79,37,37,0,0,1-6.57-6.42,38.08,38.08,0,0,1-3.29-5.2.55.55,0,0,0-.89-.12c-.38.4-.76.81-1.16,1.26-1.46,1.67-2.7,3.21-3.78,4.66a.54.54,0,0,0,0,.63A16.54,16.54,0,0,0,194.64,125.52Z" transform="translate(0)" fill="#212121"/><path d="M217.85,104.37a11.35,11.35,0,0,1,1.58,3,.29.29,0,0,0,.55-.08,60.64,60.64,0,0,1,1-8.36.27.27,0,0,0-.3-.34,5.79,5.79,0,0,0-2.77,1,22.24,22.24,0,0,1-4.15,2.19.28.28,0,0,0,.05.53A7.31,7.31,0,0,1,217.85,104.37Z" transform="translate(0)" fill="#212121"/><path d="M220.54,94.83a.29.29,0,0,0,0-.55,34.74,34.74,0,0,1-3.65-1.3,15.94,15.94,0,0,1-5.83-4.69.29.29,0,0,0-.46,0,50.38,50.38,0,0,0-4.14,7.26.28.28,0,0,0,.24.39,61.67,61.67,0,0,0,7.68,0A29.3,29.3,0,0,0,220.54,94.83Z" transform="translate(0)" fill="#212121"/><path d="M205.74,97.37c-.12.35-.26.81-.37,1.19a.52.52,0,0,0,.5.67,39.72,39.72,0,0,0,8.94-.86,46.77,46.77,0,0,1,6.44-1.08.5.5,0,0,0,.4-.25,3.92,3.92,0,0,0,.38-1.43,42.26,42.26,0,0,1-8.14,1.55,38.25,38.25,0,0,1-7.6-.16A.5.5,0,0,0,205.74,97.37Z" transform="translate(0)" fill="#212121"/><path d="M274.42,8.83A11.29,11.29,0,0,0,272.36,7a.62.62,0,0,0-.72,0c-1.25,1-2.51,2-3.72,3.06a.62.62,0,0,0,.11,1c.55.3,1.19.68,1.92,1.17a15.56,15.56,0,0,1,2.45,2,.6.6,0,0,0,.9,0c.81-1,1.6-1.86,2.41-2.76a.6.6,0,0,0,.08-.72A15.64,15.64,0,0,0,274.42,8.83Z" transform="translate(0)" fill="#212121"/><path d="M262,28.77a23.05,23.05,0,0,1-7.18.05.57.57,0,0,0-.56.32c-.24.5-.45,1-.65,1.45a.53.53,0,0,0,.51.75,15.49,15.49,0,0,1,5.19.69,12.51,12.51,0,0,1,4.14,2.19.56.56,0,0,0,.88-.31c.45-1.89.86-3.78,1.33-5.63a.54.54,0,0,0-.76-.62A16,16,0,0,1,262,28.77Z" transform="translate(0)" fill="#212121"/><path d="M275,7.33a21.5,21.5,0,0,1,2,2.21.33.33,0,0,0,.52,0A47.49,47.49,0,0,1,282.78,5a.35.35,0,0,0,.06-.5L281,2.19a.36.36,0,0,0-.4-.11c-.78.29-1.54.59-2.24.88a27.51,27.51,0,0,0-4.69,2.63.35.35,0,0,0,0,.57A14.63,14.63,0,0,1,275,7.33Z" transform="translate(0)" fill="#212121"/><path d="M238,55.88a12.49,12.49,0,0,1-4.72-4.1.56.56,0,0,0-.92,0A57.8,57.8,0,0,0,229.17,57a.55.55,0,0,0,.33.8,44.63,44.63,0,0,0,6,1.37,32.66,32.66,0,0,0,7.46.58.54.54,0,0,0,.4-.22c.32-.43.66-.86,1-1.29a.56.56,0,0,0-.41-.91A17,17,0,0,1,238,55.88Z" transform="translate(0)" fill="#212121"/><path d="M260.31,33.76s-1.67-1.22-5.48-1.22c-.66,0-1.16,0-1.61,0a.4.4,0,0,0-.35.3c-.14.46-.35.91-.42,1.3.48-.08,1.11-.12,1.68-.17A34.7,34.7,0,0,1,260.31,33.76Z" transform="translate(0)" fill="#212121"/><path d="M235.3,64.17c2.89-.91,4.69-1.36,5.76-1.59a.46.46,0,0,0,.29-.2c.34-.52.7-1.05,1.07-1.58a36,36,0,0,1-7-.2,26.79,26.79,0,0,1-6.68-1.72.48.48,0,0,0-.62.24q-.42.91-.75,1.74c-.69,1.79-1.26,3.29-1.74,4.56a.48.48,0,0,0,.5.65A51.59,51.59,0,0,0,235.3,64.17Z" transform="translate(0)" fill="#212121"/><path d="M263.46,20.66A15.62,15.62,0,0,1,261,18.49a.48.48,0,0,0-.73,0,40.09,40.09,0,0,0-4.88,8.28.48.48,0,0,0,.41.65,32.56,32.56,0,0,0,5.86.07,11.17,11.17,0,0,0,4.6-1.66.43.43,0,0,0,.2-.26c.3-1,.63-1.91,1-2.82a.47.47,0,0,0-.3-.64A16,16,0,0,1,263.46,20.66Z" transform="translate(0)" fill="#212121"/><path d="M217.37,91.7a16.86,16.86,0,0,0,7.57,1.77.29.29,0,0,0,.16,0c.51-.29,1.05-.57,1.61-.84-2-.72-5.31-2.26-7.22-5.17a15.11,15.11,0,0,1-2.16-7.18.35.35,0,0,0-.61-.2c-.93,1.06-1.87,2.2-2.75,3.41-.76,1.06-1.48,2.08-2.17,3.08a.35.35,0,0,0,0,.38A13.17,13.17,0,0,0,217.37,91.7Z" transform="translate(0)" fill="#212121"/><path d="M179,156.69a21.92,21.92,0,0,1,6,8.28.39.39,0,0,0,.59.18c.43-.29.9-.62,1.41-1a.41.41,0,0,0,.17-.34c-.13-2.89-.82-8.19-4.06-12.19a11.13,11.13,0,0,0-8.06-4.47.46.46,0,0,0-.23.06,25.09,25.09,0,0,0-5.8,5,.4.4,0,0,0,.24.66A21.25,21.25,0,0,1,179,156.69Z" transform="translate(0)" fill="#212121"/><path d="M243.91,48.42a21.83,21.83,0,0,0-5.17-3.66.79.79,0,0,0-.93.17c-1.3,1.42-2.58,3-3.77,4.56a.78.78,0,0,0,0,.95,17.81,17.81,0,0,0,4.54,4.25,14.21,14.21,0,0,0,6.83,1.84.71.71,0,0,0,.59-.26q.92-1,2-2.1a.77.77,0,0,0,.09-1A31,31,0,0,0,243.91,48.42Z" transform="translate(0)" fill="#212121"/><path d="M232.44,75.67a22.79,22.79,0,0,0-6.34-1.37.75.75,0,0,0-.77.86,13.62,13.62,0,0,0,3.19,7.18,16.65,16.65,0,0,0,5.24,3.86.75.75,0,0,0,1-.31c.13-.24.25-.48.37-.74A25.84,25.84,0,0,0,237,78.57a.77.77,0,0,0-.28-.72A15,15,0,0,0,232.44,75.67Z" transform="translate(0)" fill="#212121"/><path d="M233.22,66.09a23.57,23.57,0,0,1-8,1.22.45.45,0,0,0-.42.31,22.08,22.08,0,0,0-.8,2.73.44.44,0,0,0,.66.48,27.85,27.85,0,0,1,4.09-2c2.7-1,4.74-1.61,6-2.08A17.62,17.62,0,0,1,229.1,70a14.87,14.87,0,0,0-3.25,1.68.44.44,0,0,0,.19.8,38.47,38.47,0,0,1,5.51,1.22,19.28,19.28,0,0,1,5,2.64.44.44,0,0,0,.69-.31c.47-4,.67-7.84,2.18-10.53.34-.61.7-1.21,1.07-1.82C239,64.1,236,65,233.22,66.09Z" transform="translate(0)" fill="#212121"/><path d="M282.49,2l1.38,1.66a.42.42,0,0,0,.56.08c.54-.38,1.1-.76,1.7-1.14,5.71-3.67,1.45-2.91-3.45-1.27A.43.43,0,0,0,282.49,2Z" transform="translate(0)" fill="#212121"/><path d="M269.58,13.48a17.25,17.25,0,0,0-2.71-1.71.74.74,0,0,0-.86.12,48.5,48.5,0,0,0-4.4,4.82.74.74,0,0,0,.05,1,12.24,12.24,0,0,0,2.37,2A11.87,11.87,0,0,0,267.62,21a.75.75,0,0,0,.83-.38,18.49,18.49,0,0,1,2.19-3.27l.92-1.09a.75.75,0,0,0,0-1A15.56,15.56,0,0,0,269.58,13.48Z" transform="translate(0)" fill="#212121"/><path d="M258.86,34.94a64.09,64.09,0,0,0-7,.88.39.39,0,0,0-.15.06c-.81.53-2.43.72-4.84,1.87a.47.47,0,0,0,.05.87,15,15,0,0,1,4.61,2.26,19.13,19.13,0,0,1,5,5.33.47.47,0,0,0,.67.14c3.09-2.12,4.28-2.82,5.92-8.12.18-.59.35-1.19.51-1.79a.46.46,0,0,0-.2-.51A7.26,7.26,0,0,0,258.86,34.94Z" transform="translate(0)" fill="#212121"/><path d="M251.22,42.3c-2.15-1.8-5.3-2.43-7.54-2.65l-.7.5a34.19,34.19,0,0,0-3.09,2.65.74.74,0,0,0,.18,1.19,22.51,22.51,0,0,1,4.66,3.21,20.9,20.9,0,0,1,4.19,4.8.74.74,0,0,0,1.14.16c.77-.72,1.59-1.45,2.47-2.19s1.81-1.48,2.58-2a.76.76,0,0,0,.18-1A21.62,21.62,0,0,0,251.22,42.3Z" transform="translate(0)" fill="#212121"/><path d="M189.62,146.81c-2.78-2.28-7.15-2.81-9.46-2.93a.28.28,0,0,0-.18.06,34.63,34.63,0,0,1-3.12,2,.28.28,0,0,0,.1.51,11.41,11.41,0,0,1,7.85,4.59c2.72,3.88,3.27,8.79,3.34,11.72a.27.27,0,0,0,.44.21,60.83,60.83,0,0,0,6.6-6.1.25.25,0,0,0,.06-.27C194.31,153.87,192.35,149.05,189.62,146.81Z" transform="translate(0)" fill="#212121"/><path d="M178.54,158.15c-2.74-2.35-6.6-3.47-9.24-4a2.86,2.86,0,0,0-2.77,1c-3.9,4.71-3.53,5.94-2.74,5.94s8.34-.44,12,.64,6.57,4.54,7.7,4.54a2.2,2.2,0,0,0,.81-.3A23.48,23.48,0,0,0,178.54,158.15Z" transform="translate(0)" fill="#212121"/><path d="M196.41,142.66c-2.13-1.74-8.67-.84-11.72-.31a.27.27,0,0,0,0,.54,12.48,12.48,0,0,1,7.27,4.4,26,26,0,0,1,4,8.11.29.29,0,0,0,.48.09,21.49,21.49,0,0,0,2.52-3.61,16.8,16.8,0,0,0,1.12-2.76.25.25,0,0,0,0-.17C199.48,147.16,198.3,144.2,196.41,142.66Z" transform="translate(0)" fill="#212121"/><path d="M207.05,114a23.14,23.14,0,0,0-6.19-5.22.86.86,0,0,0-1,0,41.68,41.68,0,0,0-3.57,2.9.87.87,0,0,0-.19,1,32.6,32.6,0,0,0,4.48,6.82,50.83,50.83,0,0,0,5.15,4.71.85.85,0,0,0,1.16-.08c.27-.28.55-.56.83-.83a36.56,36.56,0,0,1,2.82-2.37.87.87,0,0,0,.24-1.1A47.46,47.46,0,0,0,207.05,114Z" transform="translate(0)" fill="#212121"/><path d="M216.53,105.25c-1.95-2-5.1-1.73-7-1.34a.34.34,0,0,0,0,.66,8.81,8.81,0,0,1,5.3,3.37,16.85,16.85,0,0,1,2.53,6.81.34.34,0,0,0,.61.13,8.2,8.2,0,0,0,1.14-2.2,13.34,13.34,0,0,0,.46-2,.29.29,0,0,0,0-.16A13.47,13.47,0,0,0,216.53,105.25Z" transform="translate(0)" fill="#212121"/><path d="M224.78,79.89a21.2,21.2,0,0,1-1.65-5.7.37.37,0,0,0-.65-.22c-1,1.08-2.32,2.41-3.81,4a.36.36,0,0,0-.11.26,13.2,13.2,0,0,0,2.69,8.47,17.7,17.7,0,0,0,6.88,5,.36.36,0,0,0,.32,0,15.5,15.5,0,0,0,4.82-3.65.38.38,0,0,0-.12-.59C230.69,86.25,226.4,83.67,224.78,79.89Z" transform="translate(0)" fill="#212121"/><path d="M195,138.16c-1.35.44-2.68.91-3.67,1.28a.29.29,0,0,0,.08.56c1.85.05,4.73.44,6.46,2.22a12.14,12.14,0,0,1,2.3,4.18.29.29,0,0,0,.56,0,32.22,32.22,0,0,0,.14-9.36.29.29,0,0,0-.35-.24A55.29,55.29,0,0,0,195,138.16Z" transform="translate(0)" fill="#212121"/></g><g id="left"><path d="M150,178c-4.1,0-7.91-.79-9.53-4.86s-1.54-9-2.71-10.16-11.52-.3-14.46.66-5.36,3.15-5.36,4.6,4.56,8,4.56,11-5.79,6.84-7.31,10.81a39.79,39.79,0,0,0-2.25,10.2c0,1.12,1.39,1.06,5.59,6a19.55,19.55,0,0,1,3.44,4.83,7,7,0,0,0,1.64,2.75c-2.07-1-3.88,1.12-5,1.12-4.07,0-4.53-3.57-4.53-5.39a20.59,20.59,0,0,1,.8-4.54s-1.82,3.48-1.82,5.63a7.07,7.07,0,0,0,4.89,6.75c3.84,1.39,6.36,15.92,6.36,15.92s2.28-6.29,2.58-9.93-.83-5.53.1-6.45,7.34-6,9-6.42,4.9-.86.43-2.39S130,204,129.32,201s-2.35-7.75-4.86-10.39S121,187,121,185.74s2.08-3.93,5.49-3.93,10.72,3.64,15.09,3.64H150Z" transform="translate(0)" fill="#212121"/><path d="M130.84,259.13s-3-1.8-3.83-9-2.38-14.56-2.38-14.56a32.54,32.54,0,0,1,3.05,8.74C128.34,248.55,127.21,251.28,130.84,259.13Z" transform="translate(0)" fill="#212121"/><path d="M140.11,224.92s-2.22,2.25-2.85,9.27-3.84,13.6-5,16.87-1.35,6.16-.59,6.92,4.17-1,8.05,1.15A21,21,0,0,0,150,261.37v-2.78c-.71,0-3.95-2.91-4.91-4.65a41.47,41.47,0,0,1-2-4.4,16.07,16.07,0,0,0,.37,3c.31,1.16.56,1.82.56,1.82s-4.58-3.09-4.58-6.35.3-4.1.86-4.67,6.12,3.07,9.66,3.07v-10c-1.14,0-6,2.58-7.63,4s-2.92,1.82-3.64,1.11.26-3.42.26-8S138.9,228.47,140.11,224.92Z" transform="translate(0)" fill="#212121"/><path d="M150,265.19a17.68,17.68,0,0,1-9.56-3.31c-2.47-1.77-7.27-2-7.78-1.52s3.6,6.45,8.52,10.18,6.75,4.87,8.82,4.87Z" transform="translate(0)" fill="#212121"/><path d="M121.28,235.18c-.89.89.53,10.12-1.06,17.54a40.48,40.48,0,0,0-.46,16.44,83.66,83.66,0,0,1,.92,9.2l.63-6.75s3,9,7.84,14.13a45.22,45.22,0,0,0,8.85,7.43l-.75-3.86a18,18,0,0,1,5.9,4.3A83.73,83.73,0,0,0,150,300V282.85c-2.6,0-7.51-4.26-11.08-9.35s-9.6-11.35-11.88-16.35-2.78-15.16-3.88-17.6S121.94,234.52,121.28,235.18Z" transform="translate(0)" fill="#212121"/><path d="M68.53,159.54c1.46,7.34,7.92,14.58,14.54,19.87s13,4.94,20.52,9.88,6.24,9.56,7.23,9.56.47-3.68,2.29-8.77,5.79-7.15,5.79-8.47-1.77.23-4.9-.76-7.74-10.13-15.75-17.14-25-14.3-29.12-14.3S67.08,152.19,68.53,159.54Zm4.67-3.78s7.15,5.53,11.75,7.15,14.66,7.68,17.17,11.85,2.32,8.24,3.57,10.85,4.49,4.5,1.74,4.5c-1.53,0-4.06-5.4-5-6.33s-5.21,0-8-1.21a18.59,18.59,0,0,1-5.25-4.11,9.88,9.88,0,0,0,3.32.83,4,4,0,0,0,2.35-.69s-2.21.86-3.64-.57a4.68,4.68,0,0,0-1.92-1.31l-.29,0a.92.92,0,0,1,.29,0,14.35,14.35,0,0,0,5.53-.08c2.09-.69,1.06-.76-1.09-3.34s-4.83-6.19-10.62-9.06A31.88,31.88,0,0,1,73.2,155.76Z" transform="translate(0)" fill="#212121"/><path d="M93,111.82a31.12,31.12,0,0,0-5.14,7.57.34.34,0,0,1-.5.12,41.44,41.44,0,0,1-3.76-2.93.32.32,0,0,1-.1-.31c.44-2.52,1.5-6.64,3.85-8.64s7-1.56,9.5-1a.31.31,0,0,1,.13.06c.31.24.71.52,1.13.82a.34.34,0,0,1,0,.57A24.39,24.39,0,0,0,93,111.82Z" transform="translate(0)" fill="#212121"/><path d="M117.9,134.13a26.07,26.07,0,0,1,1.06,6.51.5.5,0,0,1-.67.49c-2-.76-5.27-2-8.84-3-4.42-1.24-8.56-2.27-10.15-2.65a7,7,0,0,0-.15-1.21,69,69,0,0,0,11.8.92c3,0,5-.57,6.2-1.38A.5.5,0,0,1,117.9,134.13Z" transform="translate(0)" fill="#212121"/><path d="M91,100.4a33,33,0,0,0,4-.17.23.23,0,0,1,.22.17,17.91,17.91,0,0,1,.67,3.7.2.2,0,0,1-.28.2A42.78,42.78,0,0,1,91.39,103c-2.31-1.06-4.15-2.07-5.24-2.68a.21.21,0,0,1,.14-.39A38.93,38.93,0,0,0,91,100.4Z" transform="translate(0)" fill="#212121"/><path d="M108.87,134.19a85.88,85.88,0,0,1-9.65-.74.51.51,0,0,1-.41-.35,18.34,18.34,0,0,0-1.19-2.7.52.52,0,0,1,.35-.77,25.76,25.76,0,0,0,8.25-3.08,18.13,18.13,0,0,0,5.21-4.73.54.54,0,0,1,.84,0,29.35,29.35,0,0,1,4.9,9.95.49.49,0,0,1-.13.51C116,133.24,113.73,134.34,108.87,134.19Z" transform="translate(0)" fill="#212121"/><path d="M105.36,125.52a28.11,28.11,0,0,1-8.56,2.86.54.54,0,0,1-.55-.24q-.61-.91-1.35-1.83a.55.55,0,0,1,.09-.79,37,37,0,0,0,6.57-6.42,38.08,38.08,0,0,0,3.29-5.2.55.55,0,0,1,.89-.12c.38.4.76.81,1.16,1.26,1.46,1.67,2.7,3.21,3.78,4.66a.54.54,0,0,1,0,.63A16.54,16.54,0,0,1,105.36,125.52Z" transform="translate(0)" fill="#212121"/><path d="M82.15,104.37a11.35,11.35,0,0,0-1.58,3,.29.29,0,0,1-.55-.08,60.64,60.64,0,0,0-1-8.36.27.27,0,0,1,.3-.34,5.79,5.79,0,0,1,2.77,1,22.24,22.24,0,0,0,4.15,2.19.28.28,0,0,1,0,.53A7.31,7.31,0,0,0,82.15,104.37Z" transform="translate(0)" fill="#212121"/><path d="M79.46,94.83a.29.29,0,0,1,0-.55A34.74,34.74,0,0,0,83.12,93,15.94,15.94,0,0,0,89,88.29a.29.29,0,0,1,.46,0,50.38,50.38,0,0,1,4.14,7.26.28.28,0,0,1-.24.39,61.67,61.67,0,0,1-7.68,0A29.3,29.3,0,0,1,79.46,94.83Z" transform="translate(0)" fill="#212121"/><path d="M94.26,97.37c.12.35.26.81.37,1.19a.52.52,0,0,1-.5.67,39.72,39.72,0,0,1-8.94-.86,46.77,46.77,0,0,0-6.44-1.08.5.5,0,0,1-.4-.25A3.92,3.92,0,0,1,78,95.61a42.26,42.26,0,0,0,8.14,1.55,38.25,38.25,0,0,0,7.6-.16A.5.5,0,0,1,94.26,97.37Z" transform="translate(0)" fill="#212121"/><path d="M25.58,8.83A11.29,11.29,0,0,1,27.64,7a.62.62,0,0,1,.72,0c1.25,1,2.51,2,3.72,3.06a.62.62,0,0,1-.11,1c-.55.3-1.19.68-1.92,1.17a15.56,15.56,0,0,0-2.45,2,.6.6,0,0,1-.9,0c-.81-1-1.6-1.86-2.41-2.76a.6.6,0,0,1-.08-.72A15.64,15.64,0,0,1,25.58,8.83Z" transform="translate(0)" fill="#212121"/><path d="M38,28.77a23.05,23.05,0,0,0,7.18.05.57.57,0,0,1,.56.32c.24.5.45,1,.65,1.45a.53.53,0,0,1-.51.75,15.49,15.49,0,0,0-5.19.69,12.51,12.51,0,0,0-4.14,2.19.56.56,0,0,1-.88-.31c-.45-1.89-.86-3.78-1.33-5.63a.54.54,0,0,1,.76-.62A16,16,0,0,0,38,28.77Z" transform="translate(0)" fill="#212121"/><path d="M25,7.33a21.5,21.5,0,0,0-2,2.21.33.33,0,0,1-.52,0A47.49,47.49,0,0,0,17.22,5a.35.35,0,0,1-.06-.5L19,2.19a.36.36,0,0,1,.4-.11c.78.29,1.54.59,2.24.88A27.51,27.51,0,0,1,26.3,5.59a.35.35,0,0,1,0,.57A14.63,14.63,0,0,0,25,7.33Z" transform="translate(0)" fill="#212121"/><path d="M62,55.88a12.49,12.49,0,0,0,4.72-4.1.56.56,0,0,1,.92,0A57.8,57.8,0,0,1,70.83,57a.55.55,0,0,1-.33.8,44.63,44.63,0,0,1-6,1.37,32.66,32.66,0,0,1-7.46.58.54.54,0,0,1-.4-.22c-.32-.43-.66-.86-1-1.29a.56.56,0,0,1,.41-.91A17,17,0,0,0,62,55.88Z" transform="translate(0)" fill="#212121"/><path d="M39.69,33.76s1.67-1.22,5.48-1.22c.66,0,1.16,0,1.61,0a.4.4,0,0,1,.35.3c.14.46.35.91.42,1.3-.48-.08-1.11-.12-1.68-.17A34.7,34.7,0,0,0,39.69,33.76Z" transform="translate(0)" fill="#212121"/><path d="M64.7,64.17c-2.89-.91-4.69-1.36-5.76-1.59a.46.46,0,0,1-.29-.2c-.34-.52-.7-1.05-1.07-1.58a36,36,0,0,0,7-.2,26.79,26.79,0,0,0,6.68-1.72.48.48,0,0,1,.62.24q.42.91.75,1.74c.69,1.79,1.26,3.29,1.74,4.56a.48.48,0,0,1-.5.65A51.59,51.59,0,0,1,64.7,64.17Z" transform="translate(0)" fill="#212121"/><path d="M36.54,20.66A15.62,15.62,0,0,0,39,18.49a.48.48,0,0,1,.73,0,40.09,40.09,0,0,1,4.88,8.28.48.48,0,0,1-.41.65,32.56,32.56,0,0,1-5.86.07,11.17,11.17,0,0,1-4.6-1.66.43.43,0,0,1-.2-.26c-.3-1-.63-1.91-1-2.82a.47.47,0,0,1,.3-.64A16,16,0,0,0,36.54,20.66Z" transform="translate(0)" fill="#212121"/><path d="M82.63,91.7a16.86,16.86,0,0,1-7.57,1.77.29.29,0,0,1-.16,0c-.51-.29-1.05-.57-1.61-.84,2-.72,5.31-2.26,7.22-5.17a15.11,15.11,0,0,0,2.16-7.18.35.35,0,0,1,.61-.2c.93,1.06,1.87,2.2,2.75,3.41.76,1.06,1.48,2.08,2.17,3.08a.35.35,0,0,1,0,.38A13.17,13.17,0,0,1,82.63,91.7Z" transform="translate(0)" fill="#212121"/><path d="M121,156.69a21.92,21.92,0,0,0-6,8.28.39.39,0,0,1-.59.18c-.43-.29-.9-.62-1.41-1a.41.41,0,0,1-.17-.34c.13-2.89.82-8.19,4.06-12.19a11.13,11.13,0,0,1,8.06-4.47.46.46,0,0,1,.23.06,25.09,25.09,0,0,1,5.8,5,.4.4,0,0,1-.24.66A21.25,21.25,0,0,0,121,156.69Z" transform="translate(0)" fill="#212121"/><path d="M56.09,48.42a21.83,21.83,0,0,1,5.17-3.66.79.79,0,0,1,.93.17c1.3,1.42,2.58,3,3.77,4.56a.78.78,0,0,1,0,.95,17.81,17.81,0,0,1-4.54,4.25,14.21,14.21,0,0,1-6.83,1.84.71.71,0,0,1-.59-.26q-.91-1-2-2.1a.77.77,0,0,1-.09-1A31,31,0,0,1,56.09,48.42Z" transform="translate(0)" fill="#212121"/><path d="M67.56,75.67A22.79,22.79,0,0,1,73.9,74.3a.75.75,0,0,1,.77.86,13.62,13.62,0,0,1-3.19,7.18,16.65,16.65,0,0,1-5.24,3.86.75.75,0,0,1-1-.31c-.13-.24-.25-.48-.37-.74a25.84,25.84,0,0,1-1.84-6.58.77.77,0,0,1,.28-.72A15,15,0,0,1,67.56,75.67Z" transform="translate(0)" fill="#212121"/><path d="M66.78,66.09a23.57,23.57,0,0,0,8,1.22.45.45,0,0,1,.42.31,22.08,22.08,0,0,1,.8,2.73.44.44,0,0,1-.66.48,27.85,27.85,0,0,0-4.09-2c-2.7-1-4.74-1.61-6-2.08A17.62,17.62,0,0,0,70.9,70a14.87,14.87,0,0,1,3.25,1.68.44.44,0,0,1-.19.8,38.47,38.47,0,0,0-5.51,1.22,19.28,19.28,0,0,0-5.05,2.64.44.44,0,0,1-.69-.31c-.47-4-.67-7.84-2.18-10.53-.34-.61-.7-1.21-1.07-1.82C61,64.1,64,65,66.78,66.09Z" transform="translate(0)" fill="#212121"/><path d="M17.51,2,16.13,3.69a.42.42,0,0,1-.56.08c-.54-.38-1.1-.76-1.7-1.14C8.16-1,12.42-.28,17.32,1.36A.43.43,0,0,1,17.51,2Z" transform="translate(0)" fill="#212121"/><path d="M30.42,13.48a17.25,17.25,0,0,1,2.71-1.71.74.74,0,0,1,.86.12,48.5,48.5,0,0,1,4.4,4.82.74.74,0,0,1,0,1,12.24,12.24,0,0,1-2.37,2A11.87,11.87,0,0,1,32.38,21a.75.75,0,0,1-.83-.38,18.49,18.49,0,0,0-2.19-3.27l-.92-1.09a.75.75,0,0,1,0-1A15.56,15.56,0,0,1,30.42,13.48Z" transform="translate(0)" fill="#212121"/><path d="M41.14,34.94a64.09,64.09,0,0,1,7,.88.39.39,0,0,1,.15.06c.81.53,2.43.72,4.84,1.87a.47.47,0,0,1,0,.87,15,15,0,0,0-4.61,2.26,19.13,19.13,0,0,0-5,5.33.47.47,0,0,1-.67.14c-3.09-2.12-4.28-2.82-5.92-8.12-.18-.59-.35-1.19-.51-1.79a.46.46,0,0,1,.2-.51A7.26,7.26,0,0,1,41.14,34.94Z" transform="translate(0)" fill="#212121"/><path d="M48.78,42.3c2.15-1.8,5.3-2.43,7.54-2.65l.7.5a34.19,34.19,0,0,1,3.09,2.65A.74.74,0,0,1,59.93,44a22.51,22.51,0,0,0-4.66,3.21A20.9,20.9,0,0,0,51.08,52a.74.74,0,0,1-1.14.16c-.77-.72-1.59-1.45-2.47-2.19s-1.81-1.48-2.58-2a.76.76,0,0,1-.18-1A21.62,21.62,0,0,1,48.78,42.3Z" transform="translate(0)" fill="#212121"/><path d="M110.38,146.81c2.78-2.28,7.15-2.81,9.46-2.93a.28.28,0,0,1,.18.06,34.63,34.63,0,0,0,3.12,2,.28.28,0,0,1-.1.51,11.41,11.41,0,0,0-7.85,4.59c-2.72,3.88-3.27,8.79-3.34,11.72a.27.27,0,0,1-.44.21,60.83,60.83,0,0,1-6.6-6.1.25.25,0,0,1-.06-.27C105.69,153.87,107.65,149.05,110.38,146.81Z" transform="translate(0)" fill="#212121"/><path d="M121.46,158.15c2.74-2.35,6.6-3.47,9.24-4a2.86,2.86,0,0,1,2.77,1c3.9,4.71,3.53,5.94,2.74,5.94s-8.34-.44-12,.64-6.57,4.54-7.7,4.54a2.2,2.2,0,0,1-.81-.3A23.48,23.48,0,0,1,121.46,158.15Z" transform="translate(0)" fill="#212121"/><path d="M103.59,142.66c2.13-1.74,8.67-.84,11.72-.31a.27.27,0,0,1,0,.54,12.48,12.48,0,0,0-7.27,4.4,26,26,0,0,0-4,8.11.29.29,0,0,1-.48.09,21.49,21.49,0,0,1-2.52-3.61,16.8,16.8,0,0,1-1.12-2.76.25.25,0,0,1,0-.17C100.52,147.16,101.7,144.2,103.59,142.66Z" transform="translate(0)" fill="#212121"/><path d="M93,114a23.14,23.14,0,0,1,6.19-5.22.86.86,0,0,1,1,0,41.68,41.68,0,0,1,3.57,2.9.87.87,0,0,1,.19,1,32.6,32.6,0,0,1-4.48,6.82,50.83,50.83,0,0,1-5.15,4.71.85.85,0,0,1-1.16-.08c-.27-.28-.55-.56-.83-.83A36.56,36.56,0,0,0,89.41,121a.87.87,0,0,1-.24-1.1A47.46,47.46,0,0,1,93,114Z" transform="translate(0)" fill="#212121"/><path d="M83.47,105.25c2-2,5.1-1.73,7-1.34a.34.34,0,0,1,0,.66,8.81,8.81,0,0,0-5.3,3.37,16.85,16.85,0,0,0-2.53,6.81.34.34,0,0,1-.61.13,8.2,8.2,0,0,1-1.14-2.2,13.34,13.34,0,0,1-.46-2,.29.29,0,0,1,0-.16A13.47,13.47,0,0,1,83.47,105.25Z" transform="translate(0)" fill="#212121"/><path d="M75.22,79.89a21.2,21.2,0,0,0,1.65-5.7.37.37,0,0,1,.65-.22c1,1.08,2.32,2.41,3.81,4a.36.36,0,0,1,.11.26,13.2,13.2,0,0,1-2.69,8.47,17.7,17.7,0,0,1-6.88,5,.36.36,0,0,1-.32,0,15.5,15.5,0,0,1-4.82-3.65.38.38,0,0,1,.12-.59C69.31,86.25,73.6,83.67,75.22,79.89Z" transform="translate(0)" fill="#212121"/><path d="M105,138.16c1.35.44,2.68.91,3.67,1.28a.29.29,0,0,1-.08.56c-1.85.05-4.73.44-6.46,2.22a12.14,12.14,0,0,0-2.3,4.18.29.29,0,0,1-.56,0,32.22,32.22,0,0,1-.14-9.36.29.29,0,0,1,.35-.24A55.29,55.29,0,0,1,105,138.16Z" transform="translate(0)" fill="#212121"/></g></g><g id="frame"><rect width="300" height="300" fill="none"/></g></svg>