<svg xmlns="http://www.w3.org/2000/svg" viewBox="0 0 30 30"><path d="M15,17.8c.41,0,.79-.08.95-.48s.16-.9.27-1a3.33,3.33,0,0,1,1.45.07c.29.09.54.31.54.46s-.46.8-.46,1.1.58.68.73,1.08a4,4,0,0,1,.23,1c0,.11-.14.1-.56.6a1.8,1.8,0,0,0-.35.48.67.67,0,0,1-.16.27c.21-.09.39.12.49.12.41,0,.46-.36.46-.54a2,2,0,0,0-.08-.46,1.69,1.69,0,0,1,.18.57.71.71,0,0,1-.49.67c-.38.14-.64,1.59-.64,1.59a5.49,5.49,0,0,1-.25-1c0-.36.08-.55,0-.65a6,6,0,0,0-.9-.64c-.16,0-.49-.08,0-.24a1,1,0,0,0,.71-.71,2.39,2.39,0,0,1,.48-1c.26-.26.36-.36.36-.49a.55.55,0,0,0-.55-.39c-.34,0-1.08.36-1.51.36H15Z" transform="translate(0)" fill="#212121"/><path d="M16.92,25.91s.29-.18.38-.9.24-1.46.24-1.46a3.35,3.35,0,0,0-.31.88A3.37,3.37,0,0,1,16.92,25.91Z" transform="translate(0)" fill="#212121"/><path d="M16,22.49a1.61,1.61,0,0,1,.28.93,7.1,7.1,0,0,0,.5,1.69c.12.32.14.61.06.69s-.41-.1-.8.11a2.06,2.06,0,0,1-1,.23v-.28a1.32,1.32,0,0,0,.49-.47,3.42,3.42,0,0,0,.2-.44,2.07,2.07,0,0,1,0,.31,1.51,1.51,0,0,1-.06.18s.46-.31.46-.63,0-.42-.08-.47-.62.3-1,.3v-1a2.44,2.44,0,0,1,.76.4c.16.13.29.18.37.11s0-.35,0-.8A1.94,1.94,0,0,0,16,22.49Z" transform="translate(0)" fill="#212121"/><path d="M15,26.52a1.76,1.76,0,0,0,1-.33,1.07,1.07,0,0,1,.77-.15,2.54,2.54,0,0,1-.85,1c-.49.38-.67.49-.88.49Z" transform="translate(0)" fill="#212121"/><path d="M17.87,23.52c.09.09-.05,1,.11,1.75a4,4,0,0,1,0,1.65,7.88,7.88,0,0,0-.09.92l-.06-.68a4.43,4.43,0,0,1-.79,1.41,4.64,4.64,0,0,1-.88.75l.08-.39a1.82,1.82,0,0,0-.6.43A7.64,7.64,0,0,1,15,30V28.28c.26,0,.75-.42,1.11-.93a13.78,13.78,0,0,0,1.19-1.64c.22-.49.27-1.51.38-1.76S17.81,23.45,17.87,23.52Z" transform="translate(0)" fill="#212121"/><path d="M23.09,14.94a7.59,7.59,0,0,0-2.91,1.43c-.81.7-1.27,1.62-1.58,1.71s-.49,0-.49.08.4.34.58.85.13.87.23.87,0-.46.72-.95,1.39-.46,2.05-1a3.89,3.89,0,0,0,1.46-2C23.29,15.22,23.5,14.94,23.09,14.94Zm-1.4,1.48a3,3,0,0,0-1.06.91c-.22.26-.32.26-.11.33a1.28,1.28,0,0,0,.55,0h0a.44.44,0,0,0-.19.13.36.36,0,0,1-.37.06.41.41,0,0,0,.24.07,1,1,0,0,0,.33-.08,2,2,0,0,1-.53.41c-.27.12-.7,0-.79.12s-.35.63-.5.63,0-.19.17-.45a6.43,6.43,0,0,1,.36-1.08,4.44,4.44,0,0,1,1.72-1.19,5.73,5.73,0,0,0,1.17-.71A3.06,3.06,0,0,1,21.69,16.42Z" transform="translate(0)" fill="#212121"/><path d="M20.7,11.18a3.25,3.25,0,0,1,.51.76,0,0,0,0,0,.05,0,4.18,4.18,0,0,0,.38-.29,0,0,0,0,0,0,0,1.5,1.5,0,0,0-.39-.87,1.2,1.2,0,0,0-.94-.1h0l-.11.09a0,0,0,0,0,0,.05A2.41,2.41,0,0,1,20.7,11.18Z" transform="translate(0)" fill="#212121"/><path d="M18.21,13.41a2.82,2.82,0,0,0-.11.65s0,.07.07,0c.2-.07.53-.19.88-.29s.86-.23,1-.27a.5.5,0,0,1,0-.12,6.11,6.11,0,0,1-1.19.09,1.07,1.07,0,0,1-.62-.14A.05.05,0,0,0,18.21,13.41Z" transform="translate(0)" fill="#212121"/><path d="M20.91,10a2.24,2.24,0,0,1-.4,0l0,0a1.88,1.88,0,0,0-.07.37s0,0,0,0,.27-.06.41-.13a3.35,3.35,0,0,0,.52-.27,0,0,0,0,0,0,0A3.36,3.36,0,0,1,20.91,10Z" transform="translate(0)" fill="#212121"/><path d="M19.11,13.42c.49,0,.79-.05,1-.07a.08.08,0,0,0,0,0,2.86,2.86,0,0,1,.12-.27.06.06,0,0,0,0-.08,2.42,2.42,0,0,1-.82-.31,1.75,1.75,0,0,1-.52-.47.06.06,0,0,0-.09,0,3,3,0,0,0-.49,1,.06.06,0,0,0,0,.05A1.17,1.17,0,0,0,19.11,13.42Z" transform="translate(0)" fill="#212121"/><path d="M19.46,12.55a2.8,2.8,0,0,0,.86.29.05.05,0,0,0,.05,0l.14-.18a.05.05,0,0,0,0-.08,3.83,3.83,0,0,1-.66-.64,3.65,3.65,0,0,1-.32-.52s-.07,0-.09,0l-.12.12c-.15.17-.27.33-.38.47a.06.06,0,0,0,0,.06A1.54,1.54,0,0,0,19.46,12.55Z" transform="translate(0)" fill="#212121"/><path d="M21.79,10.44a1.3,1.3,0,0,1,.15.29s0,0,.06,0a5.39,5.39,0,0,1,.1-.83,0,0,0,0,0,0,0,.5.5,0,0,0-.28.1,1.86,1.86,0,0,1-.41.22s0,.05,0,.05A.77.77,0,0,1,21.79,10.44Z" transform="translate(0)" fill="#212121"/><path d="M22.05,9.48s0,0,0-.05l-.36-.13a1.68,1.68,0,0,1-.59-.47s0,0,0,0a5.3,5.3,0,0,0-.42.73s0,0,0,0a5.07,5.07,0,0,0,.77,0A2.38,2.38,0,0,0,22.05,9.48Z" transform="translate(0)" fill="#212121"/><path d="M20.57,9.74s0,.08,0,.12a0,0,0,0,0,.05.06,3.87,3.87,0,0,0,.89-.08,4.68,4.68,0,0,1,.64-.11s0,0,0,0a.25.25,0,0,0,0-.14,4.14,4.14,0,0,1-.81.16,4.49,4.49,0,0,1-.76,0A.05.05,0,0,0,20.57,9.74Z" transform="translate(0)" fill="#212121"/><path d="M27.44.88a1.62,1.62,0,0,0-.2-.18.08.08,0,0,0-.08,0c-.12.09-.25.19-.37.3a.07.07,0,0,0,0,.1l.19.12a1.45,1.45,0,0,1,.25.2.06.06,0,0,0,.09,0l.24-.27a.06.06,0,0,0,0-.07A1.21,1.21,0,0,0,27.44.88Z" transform="translate(0)" fill="#212121"/><path d="M26.2,2.88a2.41,2.41,0,0,1-.71,0,.06.06,0,0,0-.06,0l-.07.15s0,.08.06.07a1.57,1.57,0,0,1,.51.07,1.44,1.44,0,0,1,.42.22.05.05,0,0,0,.09,0c0-.19.08-.38.13-.56s0-.08-.08-.06A1.6,1.6,0,0,1,26.2,2.88Z" transform="translate(0)" fill="#212121"/><path d="M27.5.73l.2.22a0,0,0,0,0,.05,0A3.5,3.5,0,0,1,28.28.5s0,0,0,0L28.1.22s0,0,0,0L27.84.3a2.52,2.52,0,0,0-.47.26s0,0,0,.06Z" transform="translate(0)" fill="#212121"/><path d="M23.8,5.59a1.28,1.28,0,0,1-.47-.41.06.06,0,0,0-.09,0c-.12.18-.23.35-.32.52a.06.06,0,0,0,0,.08,5,5,0,0,0,.6.14,3.36,3.36,0,0,0,.74.06l0,0a1.47,1.47,0,0,1,.1-.13.06.06,0,0,0,0-.1A1.61,1.61,0,0,1,23.8,5.59Z" transform="translate(0)" fill="#212121"/><path d="M26,3.38a1,1,0,0,0-.55-.13h-.16l0,0-.05.13h.17A3.57,3.57,0,0,1,26,3.38Z" transform="translate(0)" fill="#212121"/><path d="M23.53,6.42a5.8,5.8,0,0,1,.58-.16l0,0a1.4,1.4,0,0,1,.1-.16,3.52,3.52,0,0,1-.7,0,2.69,2.69,0,0,1-.67-.17,0,0,0,0,0-.06,0,1.34,1.34,0,0,0-.07.18l-.18.45a.05.05,0,0,0,.05.07A5.8,5.8,0,0,0,23.53,6.42Z" transform="translate(0)" fill="#212121"/><path d="M26.35,2.07a1.79,1.79,0,0,1-.25-.22s-.06,0-.07,0a3.75,3.75,0,0,0-.49.83s0,.06,0,.07a3.74,3.74,0,0,0,.58,0,1.17,1.17,0,0,0,.46-.16l0,0c0-.1.07-.19.1-.28a0,0,0,0,0,0-.07A1.42,1.42,0,0,1,26.35,2.07Z" transform="translate(0)" fill="#212121"/><path d="M21.74,9.17a1.67,1.67,0,0,0,.75.18h0l.16-.08A1.45,1.45,0,0,1,22,8.74,1.54,1.54,0,0,1,21.73,8a0,0,0,0,0-.06,0,3.24,3.24,0,0,0-.27.35l-.22.3a0,0,0,0,0,0,0A1.39,1.39,0,0,0,21.74,9.17Z" transform="translate(0)" fill="#212121"/><path d="M17.9,15.67a2.15,2.15,0,0,1,.61.83,0,0,0,0,0,.06,0l.14-.1a.06.06,0,0,0,0,0,2.13,2.13,0,0,0-.4-1.22,1.08,1.08,0,0,0-.81-.44h0a2.57,2.57,0,0,0-.58.5,0,0,0,0,0,0,.07A2,2,0,0,1,17.9,15.67Z" transform="translate(0)" fill="#212121"/><path d="M24.39,4.84a2,2,0,0,0-.52-.36.07.07,0,0,0-.09,0c-.13.15-.26.3-.38.46a.07.07,0,0,0,0,.09,1.76,1.76,0,0,0,.46.43,1.31,1.31,0,0,0,.68.18l.06,0,.2-.21a.08.08,0,0,0,0-.1A3,3,0,0,0,24.39,4.84Z" transform="translate(0)" fill="#212121"/><path d="M23.24,7.57a2,2,0,0,0-.63-.14.08.08,0,0,0-.08.09,1.37,1.37,0,0,0,.32.71,1.66,1.66,0,0,0,.53.39.07.07,0,0,0,.09,0,.25.25,0,0,0,0-.07,2.32,2.32,0,0,0,.18-.66.06.06,0,0,0,0-.07A1.22,1.22,0,0,0,23.24,7.57Z" transform="translate(0)" fill="#212121"/><path d="M23.32,6.61a2.47,2.47,0,0,1-.8.12s0,0,0,0A2.55,2.55,0,0,0,22.4,7s0,.06.07,0a3.94,3.94,0,0,1,.41-.2l.6-.2a2.11,2.11,0,0,1-.57.32,1.66,1.66,0,0,0-.33.17,0,0,0,0,0,0,.08,3.17,3.17,0,0,1,.56.12,2,2,0,0,1,.5.26s.07,0,.07,0a3.09,3.09,0,0,1,.22-1l.1-.18A7.45,7.45,0,0,0,23.32,6.61Z" transform="translate(0)" fill="#212121"/><path d="M28.25.2l.14.17a0,0,0,0,0,.05,0l.17-.12c.57-.36.15-.29-.34-.12C28.24.15,28.23.18,28.25.2Z" transform="translate(0)" fill="#212121"/><path d="M27,1.35a1.69,1.69,0,0,0-.27-.17.07.07,0,0,0-.09,0,4.69,4.69,0,0,0-.44.48.08.08,0,0,0,0,.1,1.57,1.57,0,0,0,.23.2,1,1,0,0,0,.36.13s.07,0,.08,0a2.7,2.7,0,0,1,.22-.33l.1-.11a.08.08,0,0,0,0-.1A1.7,1.7,0,0,0,27,1.35Z" transform="translate(0)" fill="#212121"/><path d="M25.89,3.49a5.86,5.86,0,0,0-.7.09h0c-.08.05-.25.07-.49.19,0,0,0,.07,0,.08a1.65,1.65,0,0,1,.46.23,1.8,1.8,0,0,1,.5.53.07.07,0,0,0,.07,0,1.17,1.17,0,0,0,.59-.82,1.21,1.21,0,0,0,.05-.18,0,0,0,0,0,0-.05A.8.8,0,0,0,25.89,3.49Z" transform="translate(0)" fill="#212121"/><path d="M25.12,4.23A1.39,1.39,0,0,0,24.37,4L24.3,4a2.38,2.38,0,0,0-.31.26.07.07,0,0,0,0,.12,2.15,2.15,0,0,1,.46.32,1.67,1.67,0,0,1,.42.48.08.08,0,0,0,.12,0A2.5,2.5,0,0,1,25.25,5l.26-.21a.08.08,0,0,0,0-.1A2.05,2.05,0,0,0,25.12,4.23Z" transform="translate(0)" fill="#212121"/><path d="M19,14.68a1.68,1.68,0,0,0-.94-.29h0a2.84,2.84,0,0,1-.31.2s0,.05,0,.05a1.16,1.16,0,0,1,.78.46,2.15,2.15,0,0,1,.33,1.18,0,0,0,0,0,.05,0,7.33,7.33,0,0,0,.66-.61,0,0,0,0,0,0,0A2.47,2.47,0,0,0,19,14.68Z" transform="translate(0)" fill="#212121"/><path d="M17.85,15.81a2.08,2.08,0,0,0-.92-.39.3.3,0,0,0-.28.09c-.39.48-.35.6-.27.6a4.88,4.88,0,0,1,1.2.06c.37.11.66.46.77.46l.08,0A2.43,2.43,0,0,0,17.85,15.81Z" transform="translate(0)" fill="#212121"/><path d="M19.64,14.27c-.21-.18-.87-.09-1.17,0,0,0,0,0,0,0a1.29,1.29,0,0,1,.73.44,2.59,2.59,0,0,1,.39.81s0,0,.05,0a2.15,2.15,0,0,0,.25-.36,1.39,1.39,0,0,0,.12-.28v0A1.44,1.44,0,0,0,19.64,14.27Z" transform="translate(0)" fill="#212121"/><path d="M20.7,11.4a2.35,2.35,0,0,0-.61-.52.09.09,0,0,0-.1,0c-.1.08-.23.17-.36.29a.14.14,0,0,0,0,.11,4,4,0,0,0,.45.68,4.24,4.24,0,0,0,.52.47.07.07,0,0,0,.11,0l.09-.08a3,3,0,0,1,.28-.24.09.09,0,0,0,0-.11A4.68,4.68,0,0,0,20.7,11.4Z" transform="translate(0)" fill="#212121"/><path d="M21.65,10.52a.79.79,0,0,0-.7-.13,0,0,0,0,0,0,.07.85.85,0,0,1,.53.33,1.66,1.66,0,0,1,.25.68s.05,0,.06,0a.94.94,0,0,0,.12-.22c0-.06,0-.13.05-.2h0A1.27,1.27,0,0,0,21.65,10.52Z" transform="translate(0)" fill="#212121"/><path d="M22.48,8a2.21,2.21,0,0,1-.17-.57,0,0,0,0,0-.06,0l-.38.39a0,0,0,0,0,0,0,1.25,1.25,0,0,0,.27.85,1.83,1.83,0,0,0,.68.5h0a1.77,1.77,0,0,0,.48-.37,0,0,0,0,0,0-.05A1.81,1.81,0,0,1,22.48,8Z" transform="translate(0)" fill="#212121"/><path d="M19.5,13.82l-.37.12a0,0,0,0,0,0,.06,1,1,0,0,1,.65.22,1.3,1.3,0,0,1,.23.42s.05,0,.05,0a3.36,3.36,0,0,0,0-.94s0,0,0,0A4.45,4.45,0,0,0,19.5,13.82Z" transform="translate(0)" fill="#212121"/><path d="M15,17.8c-.41,0-.79-.08-.95-.48s-.16-.9-.27-1a3.33,3.33,0,0,0-1.45.07c-.29.09-.54.31-.54.46s.46.8.46,1.1-.58.68-.73,1.08a4,4,0,0,0-.23,1c0,.11.14.1.56.6a1.8,1.8,0,0,1,.35.48.67.67,0,0,0,.16.27c-.21-.09-.39.12-.49.12-.41,0-.46-.36-.46-.54a2,2,0,0,1,.08-.46,1.69,1.69,0,0,0-.18.57.71.71,0,0,0,.49.67c.38.14.64,1.59.64,1.59a5.49,5.49,0,0,0,.25-1c0-.36-.08-.55,0-.65a6,6,0,0,1,.9-.64c.16,0,.49-.08,0-.24a1,1,0,0,1-.71-.71,2.39,2.39,0,0,0-.48-1c-.26-.26-.36-.36-.36-.49a.55.55,0,0,1,.55-.39c.34,0,1.08.36,1.51.36H15Z" transform="translate(0)" fill="#212121"/><path d="M13.08,25.91s-.29-.18-.38-.9-.24-1.46-.24-1.46a3.35,3.35,0,0,1,.31.88A3.37,3.37,0,0,0,13.08,25.91Z" transform="translate(0)" fill="#212121"/><path d="M14,22.49a1.61,1.61,0,0,0-.28.93,7.1,7.1,0,0,1-.5,1.69c-.12.32-.14.61-.06.69s.41-.1.8.11a2.06,2.06,0,0,0,1,.23v-.28a1.32,1.32,0,0,1-.49-.47,3.42,3.42,0,0,1-.2-.44,2.07,2.07,0,0,0,0,.31,1.51,1.51,0,0,0,.06.18s-.46-.31-.46-.63,0-.42.08-.47.62.3,1,.3v-1a2.44,2.44,0,0,0-.76.4c-.16.13-.29.18-.37.11s0-.35,0-.8A1.94,1.94,0,0,1,14,22.49Z" transform="translate(0)" fill="#212121"/><path d="M15,26.52a1.76,1.76,0,0,1-1-.33,1.07,1.07,0,0,0-.77-.15,2.54,2.54,0,0,0,.85,1c.49.38.67.49.88.49Z" transform="translate(0)" fill="#212121"/><path d="M12.13,23.52c-.09.09,0,1-.11,1.75a4,4,0,0,0,0,1.65,7.88,7.88,0,0,1,.09.92l.06-.68a4.43,4.43,0,0,0,.79,1.41,4.64,4.64,0,0,0,.88.75l-.08-.39a1.82,1.82,0,0,1,.6.43A7.64,7.64,0,0,0,15,30V28.28c-.26,0-.75-.42-1.11-.93a13.78,13.78,0,0,1-1.19-1.64c-.22-.49-.27-1.51-.38-1.76S12.19,23.45,12.13,23.52Z" transform="translate(0)" fill="#212121"/><path d="M6.85,16a3.89,3.89,0,0,0,1.46,2c.66.53,1.3.5,2,1s.62.95.72.95.05-.36.23-.87.58-.72.58-.85-.18,0-.49-.08-.77-1-1.58-1.71a7.59,7.59,0,0,0-2.91-1.43C6.5,14.94,6.71,15.22,6.85,16Zm.47-.37a5.73,5.73,0,0,0,1.17.71,4.44,4.44,0,0,1,1.72,1.19,6.43,6.43,0,0,1,.36,1.08c.13.26.45.45.17.45s-.4-.54-.5-.63-.52,0-.79-.12a2,2,0,0,1-.53-.41,1,1,0,0,0,.33.08.41.41,0,0,0,.24-.07.36.36,0,0,1-.37-.06.44.44,0,0,0-.19-.13h0a1.28,1.28,0,0,0,.55,0c.21-.07.11-.07-.11-.33a3,3,0,0,0-1.06-.91A3.06,3.06,0,0,1,7.32,15.58Z" transform="translate(0)" fill="#212121"/><path d="M9.3,11.18a3.25,3.25,0,0,0-.51.76,0,0,0,0,1,0,0,4.18,4.18,0,0,1-.38-.29,0,0,0,0,1,0,0,1.5,1.5,0,0,1,.39-.87,1.2,1.2,0,0,1,.94-.1h0l.11.09a0,0,0,0,1,0,.05A2.41,2.41,0,0,0,9.3,11.18Z" transform="translate(0)" fill="#212121"/><path d="M11.79,13.41a2.82,2.82,0,0,1,.11.65s0,.07-.07,0c-.2-.07-.53-.19-.88-.29s-.86-.23-1-.27a.5.5,0,0,0,0-.12,6.11,6.11,0,0,0,1.19.09,1.07,1.07,0,0,0,.62-.14A.05.05,0,0,1,11.79,13.41Z" transform="translate(0)" fill="#212121"/><path d="M9.09,10a2.24,2.24,0,0,0,.4,0l0,0a1.88,1.88,0,0,1,.07.37s0,0,0,0-.27-.06-.41-.13A3.35,3.35,0,0,1,8.62,10a0,0,0,0,1,0,0A3.36,3.36,0,0,0,9.09,10Z" transform="translate(0)" fill="#212121"/><path d="M10.89,13.42c-.49,0-.79-.05-1-.07l0,0A2.86,2.86,0,0,0,9.76,13a.06.06,0,0,1,0-.08,2.42,2.42,0,0,0,.82-.31,1.75,1.75,0,0,0,.52-.47.06.06,0,0,1,.09,0,3,3,0,0,1,.49,1,.06.06,0,0,1,0,.05A1.17,1.17,0,0,1,10.89,13.42Z" transform="translate(0)" fill="#212121"/><path d="M10.54,12.55a2.8,2.8,0,0,1-.86.29.05.05,0,0,1,0,0l-.14-.18a.05.05,0,0,1,0-.08,3.83,3.83,0,0,0,.66-.64,3.65,3.65,0,0,0,.32-.52s.07,0,.09,0l.12.12c.15.17.27.33.38.47a.06.06,0,0,1,0,.06A1.54,1.54,0,0,1,10.54,12.55Z" transform="translate(0)" fill="#212121"/><path d="M8.21,10.44a1.3,1.3,0,0,0-.15.29s-.05,0-.06,0a5.39,5.39,0,0,0-.1-.83,0,0,0,0,1,0,0,.5.5,0,0,1,.28.1,1.86,1.86,0,0,0,.41.22s0,.05,0,.05A.77.77,0,0,0,8.21,10.44Z" transform="translate(0)" fill="#212121"/><path d="M8,9.48s0,0,0-.05l.36-.13a1.68,1.68,0,0,0,.59-.47s0,0,0,0a5.3,5.3,0,0,1,.42.73s0,0,0,0a5.07,5.07,0,0,1-.77,0A2.38,2.38,0,0,1,8,9.48Z" transform="translate(0)" fill="#212121"/><path d="M9.43,9.74l0,.12a0,0,0,0,1-.05.06,3.87,3.87,0,0,1-.89-.08,4.68,4.68,0,0,0-.64-.11s0,0,0,0a.25.25,0,0,1,0-.14,4.14,4.14,0,0,0,.81.16,4.49,4.49,0,0,0,.76,0A.05.05,0,0,1,9.43,9.74Z" transform="translate(0)" fill="#212121"/><path d="M2.56.88A1.62,1.62,0,0,1,2.76.7a.08.08,0,0,1,.08,0c.12.09.25.19.37.3a.07.07,0,0,1,0,.1L3,1.23a1.45,1.45,0,0,0-.25.2.06.06,0,0,1-.09,0l-.24-.27a.06.06,0,0,1,0-.07A1.21,1.21,0,0,1,2.56.88Z" transform="translate(0)" fill="#212121"/><path d="M3.8,2.88a2.41,2.41,0,0,0,.71,0,.06.06,0,0,1,.06,0l.07.15s0,.08-.06.07a1.57,1.57,0,0,0-.51.07,1.44,1.44,0,0,0-.42.22.05.05,0,0,1-.09,0c0-.19-.08-.38-.13-.56s0-.08.08-.06A1.6,1.6,0,0,0,3.8,2.88Z" transform="translate(0)" fill="#212121"/><path d="M2.5.73,2.3,1a0,0,0,0,1,0,0A3.5,3.5,0,0,0,1.72.5s0,0,0,0L1.9.22s0,0,0,0L2.16.3a2.52,2.52,0,0,1,.47.26s0,0,0,.06Z" transform="translate(0)" fill="#212121"/><path d="M6.2,5.59a1.28,1.28,0,0,0,.47-.41.06.06,0,0,1,.09,0c.12.18.23.35.32.52a.06.06,0,0,1,0,.08,5,5,0,0,1-.6.14A3.36,3.36,0,0,1,5.71,6l0,0a1.47,1.47,0,0,0-.1-.13.06.06,0,0,1,0-.1A1.61,1.61,0,0,0,6.2,5.59Z" transform="translate(0)" fill="#212121"/><path d="M4,3.38a1,1,0,0,1,.55-.13h.16l0,0,0,.13H4.59A3.57,3.57,0,0,0,4,3.38Z" transform="translate(0)" fill="#212121"/><path d="M6.47,6.42a5.8,5.8,0,0,0-.58-.16l0,0a1.4,1.4,0,0,0-.1-.16,3.52,3.52,0,0,0,.7,0,2.69,2.69,0,0,0,.67-.17,0,0,0,0,1,.06,0,1.34,1.34,0,0,1,.07.18l.18.45a.05.05,0,0,1-.05.07A5.8,5.8,0,0,1,6.47,6.42Z" transform="translate(0)" fill="#212121"/><path d="M3.65,2.07a1.79,1.79,0,0,0,.25-.22s.06,0,.07,0a3.75,3.75,0,0,1,.49.83s0,.06,0,.07a3.74,3.74,0,0,1-.58,0,1.17,1.17,0,0,1-.46-.16l0,0c0-.1-.07-.19-.1-.28a0,0,0,0,1,0-.07A1.42,1.42,0,0,0,3.65,2.07Z" transform="translate(0)" fill="#212121"/><path d="M8.26,9.17a1.67,1.67,0,0,1-.75.18h0l-.16-.08a1.45,1.45,0,0,0,.72-.52A1.54,1.54,0,0,0,8.27,8a0,0,0,0,1,.06,0,3.24,3.24,0,0,1,.27.35l.22.3a0,0,0,0,1,0,0A1.39,1.39,0,0,1,8.26,9.17Z" transform="translate(0)" fill="#212121"/><path d="M12.1,15.67a2.15,2.15,0,0,0-.61.83,0,0,0,0,1-.06,0l-.14-.1a.06.06,0,0,1,0,0,2.13,2.13,0,0,1,.4-1.22,1.08,1.08,0,0,1,.81-.44h0a2.57,2.57,0,0,1,.58.5,0,0,0,0,1,0,.07A2,2,0,0,0,12.1,15.67Z" transform="translate(0)" fill="#212121"/><path d="M5.61,4.84a2,2,0,0,1,.52-.36.07.07,0,0,1,.09,0c.13.15.26.3.38.46A.07.07,0,0,1,6.6,5a1.76,1.76,0,0,1-.46.43,1.31,1.31,0,0,1-.68.18l-.06,0-.2-.21a.08.08,0,0,1,0-.1A3,3,0,0,1,5.61,4.84Z" transform="translate(0)" fill="#212121"/><path d="M6.76,7.57a2,2,0,0,1,.63-.14.08.08,0,0,1,.08.09,1.37,1.37,0,0,1-.32.71,1.66,1.66,0,0,1-.53.39.07.07,0,0,1-.09,0,.25.25,0,0,1,0-.07,2.32,2.32,0,0,1-.18-.66.06.06,0,0,1,0-.07A1.22,1.22,0,0,1,6.76,7.57Z" transform="translate(0)" fill="#212121"/><path d="M6.68,6.61a2.47,2.47,0,0,0,.8.12s0,0,0,0A2.55,2.55,0,0,1,7.6,7s0,.06-.07,0a3.94,3.94,0,0,0-.41-.2l-.6-.2A2.11,2.11,0,0,0,7.09,7a1.66,1.66,0,0,1,.33.17,0,0,0,0,1,0,.08,3.17,3.17,0,0,0-.56.12,2,2,0,0,0-.5.26s-.07,0-.07,0a3.09,3.09,0,0,0-.22-1L6,6.37A7.45,7.45,0,0,1,6.68,6.61Z" transform="translate(0)" fill="#212121"/><path d="M1.75.2,1.61.37a0,0,0,0,1-.05,0L1.39.26C.82-.1,1.24,0,1.73.14,1.76.15,1.77.18,1.75.2Z" transform="translate(0)" fill="#212121"/><path d="M3,1.35a1.69,1.69,0,0,1,.27-.17.07.07,0,0,1,.09,0,4.69,4.69,0,0,1,.44.48.08.08,0,0,1,0,.1A1.57,1.57,0,0,1,3.6,2a1,1,0,0,1-.36.13s-.07,0-.08,0a2.7,2.7,0,0,0-.22-.33l-.1-.11a.08.08,0,0,1,0-.1A1.7,1.7,0,0,1,3,1.35Z" transform="translate(0)" fill="#212121"/><path d="M4.11,3.49a5.86,5.86,0,0,1,.7.09h0c.08.05.25.07.49.19,0,0,0,.07,0,.08a1.65,1.65,0,0,0-.46.23,1.8,1.8,0,0,0-.5.53.07.07,0,0,1-.07,0,1.17,1.17,0,0,1-.59-.82,1.21,1.21,0,0,1-.05-.18,0,0,0,0,1,0-.05A.8.8,0,0,1,4.11,3.49Z" transform="translate(0)" fill="#212121"/><path d="M4.88,4.23A1.39,1.39,0,0,1,5.63,4L5.7,4A2.38,2.38,0,0,1,6,4.28.07.07,0,0,1,6,4.4a2.15,2.15,0,0,0-.46.32,1.67,1.67,0,0,0-.42.48.08.08,0,0,1-.12,0A2.5,2.5,0,0,0,4.75,5l-.26-.21a.08.08,0,0,1,0-.1A2.05,2.05,0,0,1,4.88,4.23Z" transform="translate(0)" fill="#212121"/><path d="M11,14.68a1.68,1.68,0,0,1,.94-.29h0a2.84,2.84,0,0,0,.31.2s0,.05,0,.05a1.16,1.16,0,0,0-.78.46,2.15,2.15,0,0,0-.33,1.18,0,0,0,0,1,0,0,7.33,7.33,0,0,1-.66-.61,0,0,0,0,1,0,0A2.47,2.47,0,0,1,11,14.68Z" transform="translate(0)" fill="#212121"/><path d="M12.15,15.81a2.08,2.08,0,0,1,.92-.39.3.3,0,0,1,.28.09c.39.48.35.6.27.6a4.88,4.88,0,0,0-1.2.06c-.37.11-.66.46-.77.46l-.08,0A2.43,2.43,0,0,1,12.15,15.81Z" transform="translate(0)" fill="#212121"/><path d="M10.36,14.27c.21-.18.87-.09,1.17,0,0,0,0,0,0,0a1.29,1.29,0,0,0-.73.44,2.59,2.59,0,0,0-.39.81s0,0-.05,0a2.15,2.15,0,0,1-.25-.36,1.39,1.39,0,0,1-.12-.28v0A1.44,1.44,0,0,1,10.36,14.27Z" transform="translate(0)" fill="#212121"/><path d="M9.3,11.4a2.35,2.35,0,0,1,.61-.52.09.09,0,0,1,.1,0c.1.08.23.17.36.29a.14.14,0,0,1,0,.11,4,4,0,0,1-.45.68,4.24,4.24,0,0,1-.52.47.07.07,0,0,1-.11,0l-.09-.08a3,3,0,0,0-.28-.24.09.09,0,0,1,0-.11A4.68,4.68,0,0,1,9.3,11.4Z" transform="translate(0)" fill="#212121"/><path d="M8.35,10.52a.79.79,0,0,1,.7-.13,0,0,0,0,1,0,.07.85.85,0,0,0-.53.33,1.66,1.66,0,0,0-.25.68s0,0-.06,0a.94.94,0,0,1-.12-.22c0-.06,0-.13-.05-.2h0A1.27,1.27,0,0,1,8.35,10.52Z" transform="translate(0)" fill="#212121"/><path d="M7.52,8a2.21,2.21,0,0,0,.17-.57,0,0,0,0,1,.06,0l.38.39a0,0,0,0,1,0,0,1.25,1.25,0,0,1-.27.85,1.83,1.83,0,0,1-.68.5h0a1.77,1.77,0,0,1-.48-.37,0,0,0,0,1,0-.05A1.81,1.81,0,0,0,7.52,8Z" transform="translate(0)" fill="#212121"/><path d="M10.5,13.82l.37.12a0,0,0,0,1,0,.06,1,1,0,0,0-.65.22,1.3,1.3,0,0,0-.23.42s-.05,0-.05,0a3.36,3.36,0,0,1,0-.94s0,0,0,0A4.45,4.45,0,0,1,10.5,13.82Z" transform="translate(0)" fill="#212121"/><rect width="30" height="30" fill="none"/></svg>