<!-- Copyright (c) 2023 Jan Stehno -->
<svg xmlns="http://www.w3.org/2000/svg" viewBox="0 0 300 300">
    <title>blackbear</title>
    <g id="blackbear">
        <g id="right">
            <path
                d="M176.76,147.43c0,1.06,4.67,4.83,9.32,4.83s10.14-5.51,10.14-7-3.77-5-8.84-5S176.76,144.3,176.76,147.43Z"
                fill="#212121" />
            <path
                d="M150,243.78c1.5,0,19.16-7.44,19.16-21.55s-9.48-17.4-19.16-17.4V20.19a90.71,90.71,0,0,0,10.27-.84s-1.94,4-.53,4,6.57-5.15,6.57-5.15-.9,3.9,0,4.8,6.48,0,6.48,0-3.31,3.22,0,3.22,10.36-3.35,10.36-3.35S179.54,28,186.1,28a19.09,19.09,0,0,0,10.8-3.22s-2.13,3.86-1,5,4.41-.09,5.38.88a7.73,7.73,0,0,1,1.5,2.78l3.75-3s.18,4.15,1.89,5.87,5.6.52,5.6.52.93,2.43,3.18,2.43S219,35,219,35a16,16,0,0,0,4.76-3.92,17.29,17.29,0,0,0,3.48-6.3A3.47,3.47,0,0,0,229.92,26c1.85,0,9.66-7.23,9.66-7.23l.61,1.8A11,11,0,0,1,245.75,17c3.44-.84,6.13-.71,7.4-1.54a15.17,15.17,0,0,0,2.74-2.69s-.36,2,2,2,7.52-1.69,7.52-1.69-.75,1.76.93,1.76,6.17-2,8.5-2a13,13,0,0,1,3.71.45s-.84,1.63,0,2.46,8.72-3,8.72-3-3.17,6.92-1.27,8.81,6.43,1.06,9,1.33a7.52,7.52,0,0,1,4.06,1.58,8.19,8.19,0,0,0-5.2,6.53,14.47,14.47,0,0,0,1.32,8.37L292.26,39s2.1,2.89,2.33,5,2.62,4.5,2.62,4.5l-2.68-.74A9.55,9.55,0,0,1,294,52.1a10.31,10.31,0,0,1-1.76,3.29,15.54,15.54,0,0,0,3.23,3.09A28.12,28.12,0,0,0,300,60.42s-4.82-.18-7.26,1.56a9.25,9.25,0,0,0-3.23,3.85l3.41,2.58s-3.44-.5-4.29.36,1.71,5-.65,7.45-8,2.92-9.39,4.29,0,3-2,4.6a5.14,5.14,0,0,1-3.38,1.47s.79,2.32-.09,3.17-8.58.56-8.58.56A3.82,3.82,0,0,1,265.79,93c0,1.59-4,3.62-7.87,4.88s-2.74,3.32-4.47,4.79-8,2-11.87-.67S227.91,94,226.79,91.31s-1.58-4.21-2.47-5.18a7.52,7.52,0,0,0-2.82-1.55,74.14,74.14,0,0,1-.39,12.4,62.75,62.75,0,0,1-1.86,9.12,10.32,10.32,0,0,0,3.09,1.81,19.23,19.23,0,0,0,3.57.71,13.62,13.62,0,0,1-3.92,1.23c-2,.27-4,.35-4,.35a11.91,11.91,0,0,0,.79,2.08,16.45,16.45,0,0,0,1.59,2.69A27.74,27.74,0,0,0,213,114c-3.66.13-4.76.79-4.76.79s.22,1.81.35,2.91a25,25,0,0,0,.53,2.65,26.25,26.25,0,0,0-5.33-1.41c-2.52-.31-3.4-.36-3.4-.36s4.85,6.78,5.65,10.1a14.71,14.71,0,0,1,.11,6.17,5.63,5.63,0,0,0-2.2-1.26,9.32,9.32,0,0,0-2.38-.39s1.32,2.8,2.32,4.53a18.25,18.25,0,0,0,2.67,3.35,33.45,33.45,0,0,1-11.07-4.26c-5.68-3.44-6.53-4.53-9.32-4.53s-12.27,4.81-14.3,6.92a29.68,29.68,0,0,1-5.6,4.15s5.78.53,7.28,2-2.87,7.71-5.29,11.11-3.31,8.5.35,8.5,5.6-.39,7.45,5.56,1.94,9.26.4,13-2.16,4.59-.53,7.1,8.64,13.89,8.64,23.8-.75,12.61-4,17-4.58,7.41-5.07,9.92a16.09,16.09,0,0,0,.18,5.51,4.88,4.88,0,0,1-2.3-1.41,7.87,7.87,0,0,1-1.41-2.78,12.84,12.84,0,0,0-.66,4.23,6.41,6.41,0,0,0,1.37,2.82,5.48,5.48,0,0,0-3.79.27c-1.55.93-12.32,1.9-18.87,1.9Z"
                fill="#212121" />
            <path
                d="M161.37,218.25c4.37,0,5.16,1.94,5.16,4.1a11.77,11.77,0,0,1-1,4.32s-.84-2.6-2.65-2.6-2.07.57-3.83.57S154.19,218.25,161.37,218.25Z"
                fill="#212121" />
            <path
                d="M179.89,160.66c.72-.72,9,1.65,15.52-2.1s6.78-7.56,8.13-8.9,4.77,1,6.17-.44.33-7.25,2.62-10.95,1.06-10.08-.47-12.67-2.41-3.85,1.91-5,10.16-.52,11-1.35-1-4.71,1-6.7.69-6,1.91-7.18,9.17,2.22,13.54,5.79,4.32,7,6.43,9.44a25.67,25.67,0,0,0,4.15,3.83l-2.43.78s1.88,1.35,2.06,3,.32,3.82.32,3.82l-4.93-.65a23.94,23.94,0,0,1,4.08,4.5,23.44,23.44,0,0,0,3.38,4.09,6.69,6.69,0,0,1-3.82-.24,18.81,18.81,0,0,1-3.67-1.59,8.55,8.55,0,0,0,1.58,3.53,16,16,0,0,0,2.38,2.17s-2.64.27-5.29.3a20.5,20.5,0,0,1-4.32-.35,5.22,5.22,0,0,0,.27,3.32,8,8,0,0,0,2.2,2.14,18.65,18.65,0,0,0-.88,5.47,30.86,30.86,0,0,0,.56,5.61l-4.14-3.08a16.29,16.29,0,0,0-.39,3.29,8.07,8.07,0,0,0,.47,2.79s-3.14-.71-3.14.91,2.29,3.67,2.29,3.67a11.32,11.32,0,0,1-2.5-.08,4,4,0,0,1-1.64-1.12s.12,5.83-.89,6.84-8.73-.46-8.73-.46,1.95,3.49,1.95,6.31a30.84,30.84,0,0,0,.44,5.15s-4.32-1-6.53.56-1.61,10.33-1.61,10.33a2.21,2.21,0,0,0-2,.31,10.45,10.45,0,0,0-1.54,2.2l-3.13-3.48s.87,7.3-.42,9.77a14.88,14.88,0,0,1-3.24,4.08l-3.85-2.55a16.27,16.27,0,0,0-2.87,3.16,11.7,11.7,0,0,0-1.41,3.13s-7.13-.54-7.94.26a4.29,4.29,0,0,0-.71,2.67,6.67,6.67,0,0,1-4-1.88c-1.77-1.76-2.59-10.31-4.65-16.13s-3.05-7.17-3.05-8.35,3.05-5.35,3.05-8.28S177.8,168,177.8,165.51A6.72,6.72,0,0,1,179.89,160.66Z"
                fill="#212121" />
            <path
                d="M239.44,104.08c.93-.93,4.41,2.82,10.54,2.82s6.48-4.9,10.32-4.9,6.07,1.64,8.08,1.81a32.47,32.47,0,0,0,3.5.1,19.8,19.8,0,0,1-6.16,1c-3.7,0-4.38,1.57-3.23,3.16s8.36,4.8,8.36,4.8a12.46,12.46,0,0,1-4.21.75c-2.36,0-3.9-.09-4.37.38s-.3,3,2,5.24a29,29,0,0,0,4.32,3.5,45.14,45.14,0,0,0-5.47-.48c-2.29,0-3.33.88-2.11,2.09a2.75,2.75,0,0,1,.11,3.84c-.88.88-.53,2.6.46,4.52a14.84,14.84,0,0,0,2.8,3.55s-2.74-.06-3.45.65.8,2.17.8,3.7-2.32,2.68-2.32,5.64,2.64,6.53,2.64,6.53a4.26,4.26,0,0,0-2.73.88c-.93.93.14,7.7.14,7.7s-1-1.13-1.76-.35-1.15,7.08.12,9.43,2.82,5.29,2.82,5.29-2.85-2.85-4.41-2.85-.85,5.91.15,8.29a53.64,53.64,0,0,0,2.56,5.08s-3-3.11-4-3.11-1.35,2.94-1.35,5.85a17.11,17.11,0,0,0,.94,5.4,9.28,9.28,0,0,0-3.18-1.05,5,5,0,0,0-2.32.7s1.26,4.56,0,6.23-4.29,1.44-4.29,1.44a23,23,0,0,1,1,6.08,8.84,8.84,0,0,1-1.38,4.82s-7.33-.07-10,2.62,2.2,11.17,2.2,11.17a20.58,20.58,0,0,1-3.5-1.47,25,25,0,0,1-2.61-1.77l.31,3.44-2.16-.08a9.94,9.94,0,0,0-.44,2.95,10.91,10.91,0,0,0,.7,3.44s-2.8-.95-3.75,0-.66,4.8-.66,4.8-3.26-3.48-5.38-3.48-.08,4.36-.08,4.36a11.2,11.2,0,0,0-4.1-1c-2,0-.58,8.24-.58,8.24a11.66,11.66,0,0,0-4.49-.83c-2.69,0-2.3,11.35-2.3,11.35s-10.15-1.13-11.9.62.15,7.08.15,7.08-7-1.23-8.17,0,.57,3.81.57,3.81-10.62.78-12.88,3.45S174,276,174,276s-2.11-.94-2.11.2,1.26,2.56,1.26,4.12-2.26,1.85-5.5,1.85-6-2.88-6-2.88.31,3.07-.79,4.17-7.53,3.81-10.79,3.81v-28c2.6,0,6.79-1.59,7.41-2.29a6.35,6.35,0,0,0,.88-2.43s2.78,3.4,6.13,3.4,3.48-3.37,6.15-5,9.17-3.49,11.9-11.34S187,227.86,187,224.78a35.21,35.21,0,0,0-.31-5s9.39-2.34,11.1-3.81,3.61-3.7,7.28-3.7,10-.44,10-4.94a10.72,10.72,0,0,1,5-9c2.29-1.47,3.4-4,1.72-5.71s-1.54-2.34,3.22-4.16,6.2-2.62,5.82-5.53-1.56-5.32,2.23-5.32,4.59-4.94,4.59-4.94a3.56,3.56,0,0,0,2.85-1.17c.94-1.29.17-8.2.17-8.2a7,7,0,0,0,3.74,1.56c1.85,0,2.73-6.59,2.46-9.32a41,41,0,0,0-1.1-5.82s1.73-2.43,3.39-2.93,3.6-.15,4.88-2.47,2.55-4.58,2.55-4.58a4.76,4.76,0,0,1-2.42-3.93c0-2.64,3.14-6.64,3.14-8.35s-5.53-5.3-7.29-8.51-3.32-6.52-6.35-9S238.89,104.63,239.44,104.08Z"
                fill="#212121" />
        </g>
        <g id="left">
            <path
                d="M123.24,147.43c0,1.06-4.67,4.83-9.32,4.83s-10.14-5.51-10.14-7,3.77-5,8.84-5S123.24,144.3,123.24,147.43Z"
                fill="#212121" />
            <path
                d="M150,243.78c-1.5,0-19.16-7.44-19.16-21.55s9.48-17.4,19.16-17.4V20.19a90.71,90.71,0,0,1-10.27-.84s1.94,4,.53,4-6.57-5.15-6.57-5.15.9,3.9,0,4.8-6.48,0-6.48,0,3.31,3.22,0,3.22-10.36-3.35-10.36-3.35S120.46,28,113.9,28a19.09,19.09,0,0,1-10.8-3.22s2.13,3.86,1,5-4.41-.09-5.38.88a7.73,7.73,0,0,0-1.5,2.78l-3.75-3s-.18,4.15-1.89,5.87-5.6.52-5.6.52-.93,2.43-3.18,2.43S81.05,35,81.05,35a16,16,0,0,1-4.76-3.92,17.29,17.29,0,0,1-3.48-6.3A3.47,3.47,0,0,1,70.08,26c-1.85,0-9.66-7.23-9.66-7.23l-.61,1.8A11,11,0,0,0,54.25,17c-3.44-.84-6.13-.71-7.4-1.54a15.17,15.17,0,0,1-2.74-2.69s.36,2-2,2-7.52-1.69-7.52-1.69.75,1.76-.93,1.76-6.17-2-8.5-2a13,13,0,0,0-3.71.45s.84,1.63,0,2.46-8.72-3-8.72-3S15.9,19.66,14,21.55s-6.43,1.06-9,1.33A7.52,7.52,0,0,0,.91,24.46,8.19,8.19,0,0,1,6.11,31a14.47,14.47,0,0,1-1.32,8.37l3-.35s-2.1,2.89-2.33,5-2.62,4.5-2.62,4.5l2.68-.74A9.55,9.55,0,0,0,6,52.1a10.31,10.31,0,0,0,1.76,3.29,15.54,15.54,0,0,1-3.23,3.09A28.12,28.12,0,0,1,0,60.42S4.82,60.24,7.26,62a9.25,9.25,0,0,1,3.23,3.85L7.08,68.41s3.44-.5,4.29.36-1.71,5,.65,7.45,8,2.92,9.39,4.29,0,3,2,4.6a5.14,5.14,0,0,0,3.38,1.47s-.79,2.32.09,3.17,8.58.56,8.58.56A3.82,3.82,0,0,0,34.21,93c0,1.59,4,3.62,7.87,4.88s2.74,3.32,4.47,4.79,8,2,11.87-.67S72.09,94,73.21,91.31s1.58-4.21,2.47-5.18a7.52,7.52,0,0,1,2.82-1.55A74.14,74.14,0,0,0,78.89,97a62.75,62.75,0,0,0,1.86,9.12,10.32,10.32,0,0,1-3.09,1.81,19.23,19.23,0,0,1-3.57.71A13.62,13.62,0,0,0,78,109.85c2,.27,4,.35,4,.35a11.91,11.91,0,0,1-.79,2.08A16.45,16.45,0,0,1,79.64,115a27.74,27.74,0,0,1,7.41-.93c3.66.13,4.76.79,4.76.79s-.22,1.81-.35,2.91a25,25,0,0,1-.53,2.65A26.25,26.25,0,0,1,96.26,119c2.52-.31,3.4-.36,3.4-.36s-4.85,6.78-5.65,10.1a14.71,14.71,0,0,0-.11,6.17,5.63,5.63,0,0,1,2.2-1.26,9.32,9.32,0,0,1,2.38-.39s-1.32,2.8-2.32,4.53a18.25,18.25,0,0,1-2.67,3.35,33.45,33.45,0,0,0,11.07-4.26c5.68-3.44,6.53-4.53,9.32-4.53s12.27,4.81,14.3,6.92a29.68,29.68,0,0,0,5.6,4.15s-5.78.53-7.28,2,2.87,7.71,5.29,11.11,3.31,8.5-.35,8.5-5.6-.39-7.45,5.56-1.94,9.26-.4,13,2.16,4.59.53,7.1-8.64,13.89-8.64,23.8.75,12.61,4,17,4.58,7.41,5.07,9.92a16.09,16.09,0,0,1-.18,5.51,4.88,4.88,0,0,0,2.3-1.41,7.87,7.87,0,0,0,1.41-2.78,12.84,12.84,0,0,1,.66,4.23,6.41,6.41,0,0,1-1.37,2.82,5.48,5.48,0,0,1,3.79.27c1.55.93,12.32,1.9,18.87,1.9Z"
                fill="#212121" />
            <path
                d="M138.63,218.25c-4.37,0-5.16,1.94-5.16,4.1a11.77,11.77,0,0,0,1,4.32s.84-2.6,2.65-2.6,2.07.57,3.83.57S145.81,218.25,138.63,218.25Z"
                fill="#212121" />
            <path
                d="M120.11,160.66c-.72-.72-9,1.65-15.52-2.1s-6.78-7.56-8.13-8.9-4.77,1-6.17-.44S90,142,87.67,138.27s-1.06-10.08.47-12.67,2.41-3.85-1.91-5-10.16-.52-11-1.35,1-4.71-1-6.7-.69-6-1.91-7.18-9.17,2.22-13.54,5.79-4.32,7-6.43,9.44a25.67,25.67,0,0,1-4.15,3.83l2.43.78s-1.88,1.35-2.06,3-.32,3.82-.32,3.82l4.93-.65a23.94,23.94,0,0,0-4.08,4.5A23.44,23.44,0,0,1,45.73,140a6.69,6.69,0,0,0,3.82-.24,18.81,18.81,0,0,0,3.67-1.59,8.55,8.55,0,0,1-1.58,3.53,16,16,0,0,1-2.38,2.17s2.64.27,5.29.3a20.5,20.5,0,0,0,4.32-.35,5.22,5.22,0,0,1-.27,3.32,8,8,0,0,1-2.2,2.14,18.65,18.65,0,0,1,.88,5.47,30.86,30.86,0,0,1-.56,5.61l4.14-3.08a16.29,16.29,0,0,1,.39,3.29,8.07,8.07,0,0,1-.47,2.79s3.14-.71,3.14.91-2.29,3.67-2.29,3.67a11.32,11.32,0,0,0,2.5-.08,4,4,0,0,0,1.64-1.12s-.12,5.83.89,6.84,8.73-.46,8.73-.46-2,3.49-2,6.31a30.84,30.84,0,0,1-.44,5.15s4.32-1,6.53.56,1.61,10.33,1.61,10.33a2.21,2.21,0,0,1,2,.31,10.45,10.45,0,0,1,1.54,2.2l3.13-3.48s-.87,7.3.42,9.77a14.88,14.88,0,0,0,3.24,4.08l3.85-2.55a16.27,16.27,0,0,1,2.87,3.16A11.7,11.7,0,0,1,99.59,212s7.13-.54,7.94.26a4.29,4.29,0,0,1,.71,2.67,6.67,6.67,0,0,0,4-1.88c1.77-1.76,2.59-10.31,4.65-16.13s3-7.17,3-8.35-3-5.35-3-8.28,5.29-12.35,5.29-14.82A6.72,6.72,0,0,0,120.11,160.66Z"
                fill="#212121" />
            <path
                d="M60.56,104.08c-.93-.93-4.41,2.82-10.54,2.82S43.54,102,39.7,102s-6.07,1.64-8.08,1.81a32.47,32.47,0,0,1-3.5.1,19.8,19.8,0,0,0,6.16,1c3.7,0,4.38,1.57,3.23,3.16s-8.36,4.8-8.36,4.8a12.46,12.46,0,0,0,4.21.75c2.36,0,3.9-.09,4.37.38s.3,3-1.95,5.24a29,29,0,0,1-4.32,3.5,45.14,45.14,0,0,1,5.47-.48c2.29,0,3.33.88,2.11,2.09a2.75,2.75,0,0,0-.11,3.84c.88.88.53,2.6-.46,4.52a14.84,14.84,0,0,1-2.8,3.55s2.74-.06,3.45.65-.8,2.17-.8,3.7,2.32,2.68,2.32,5.64S38,152.76,38,152.76a4.26,4.26,0,0,1,2.73.88c.93.93-.14,7.7-.14,7.7s1-1.13,1.76-.35,1.15,7.08-.12,9.43-2.82,5.29-2.82,5.29,2.85-2.85,4.41-2.85.85,5.91-.15,8.29a53.64,53.64,0,0,1-2.56,5.08s3-3.11,4-3.11,1.35,2.94,1.35,5.85a17.11,17.11,0,0,1-.94,5.4,9.28,9.28,0,0,1,3.18-1.05A5,5,0,0,1,51,194s-1.26,4.56,0,6.23,4.29,1.44,4.29,1.44a23,23,0,0,0-1,6.08,8.84,8.84,0,0,0,1.38,4.82s7.33-.07,10,2.62-2.2,11.17-2.2,11.17a20.58,20.58,0,0,0,3.5-1.47,25,25,0,0,0,2.61-1.77l-.31,3.44,2.16-.08a9.94,9.94,0,0,1,.44,2.95,10.91,10.91,0,0,1-.7,3.44s2.8-.95,3.75,0,.66,4.8.66,4.8,3.26-3.48,5.38-3.48.08,4.36.08,4.36a11.2,11.2,0,0,1,4.1-1c2,0,.58,8.24.58,8.24a11.66,11.66,0,0,1,4.49-.83c2.69,0,2.3,11.35,2.3,11.35s10.15-1.13,11.9.62-.15,7.08-.15,7.08,7-1.23,8.17,0-.57,3.81-.57,3.81,10.62.78,12.88,3.45S126,276,126,276s2.11-.94,2.11.2-1.26,2.56-1.26,4.12,2.26,1.85,5.5,1.85,6-2.88,6-2.88-.31,3.07.79,4.17,7.53,3.81,10.79,3.81v-28c-2.6,0-6.79-1.59-7.41-2.29a6.35,6.35,0,0,1-.88-2.43s-2.78,3.4-6.13,3.4-3.48-3.37-6.15-5-9.17-3.49-11.9-11.34S113,227.86,113,224.78a35.21,35.21,0,0,1,.31-5s-9.39-2.34-11.1-3.81-3.61-3.7-7.28-3.7-10-.44-10-4.94a10.72,10.72,0,0,0-5-9c-2.29-1.47-3.4-4-1.72-5.71s1.54-2.34-3.22-4.16-6.2-2.62-5.82-5.53,1.56-5.32-2.23-5.32-4.59-4.94-4.59-4.94a3.56,3.56,0,0,1-2.85-1.17c-.94-1.29-.17-8.2-.17-8.2a7,7,0,0,1-3.74,1.56c-1.85,0-2.73-6.59-2.46-9.32a41,41,0,0,1,1.1-5.82s-1.73-2.43-3.39-2.93-3.6-.15-4.88-2.47-2.55-4.58-2.55-4.58a4.76,4.76,0,0,0,2.42-3.93c0-2.64-3.14-6.64-3.14-8.35s5.53-5.3,7.29-8.51,3.32-6.52,6.35-9S61.11,104.63,60.56,104.08Z"
                fill="#212121" />
        </g>
    </g>
    <g id="frame">
        <rect width="300" height="300" fill="none" />
    </g>
</svg>