<svg xmlns="http://www.w3.org/2000/svg" viewBox="0 0 30 30"><path d="M15,12.51c.1,0,.25.24.49.24s.25-.26.52-.26.32-.33.44-.33.1-.23.18-.31.24,0,.24-.21-.22-.63-.38-.63S15.26,12,15,12Z" fill="#212121"/><path d="M15,11.67a5.07,5.07,0,0,0,1.52-1.13c0-.21-.07-.18-.44.1s-.7.5-.1,0,.67-.4.67-.56-.43.06-.74-.18-.6-1.29-.91-1.29Z" fill="#212121"/><path d="M16.87,5.17a1.32,1.32,0,0,1,1.21,1.48c0,.86-.26,1.37-.38,1.37s-.18-.3-.42-.3-.38.29-.44.57,0,.7-.36.28a3.07,3.07,0,0,1-.8-1.75C15.68,6.22,16,5.17,16.87,5.17Z" fill="#212121"/><path d="M17.35,8.07c-.27,0-.41.25-.41.59s.2.53.44.53.26-.18.06-.18-.18-.19-.18-.38.06-.4.21-.4S17.53,8.07,17.35,8.07Z" fill="#212121"/><path d="M17.8,8.63c.08,0,.08.66-.05.8s-.21.12-.39.12A.35.35,0,0,1,17,9.3c-.06-.13.12,0,.37,0s.33-.27.34-.42S17.76,8.63,17.8,8.63Z" fill="#212121"/><path d="M18.55,8.84a2.31,2.31,0,0,0-.25-1.17c0-.11.88,0,1.32.17s.57.26.52.68L20.08,9a1.12,1.12,0,0,0,.18-.48c0-.23.1-.29.56-.24s.74.34.75.6a2.77,2.77,0,0,1-.13.66A2.41,2.41,0,0,0,21.75,9c.05-.19.58-.12,1,.16s.58.45.58.76a1.35,1.35,0,0,1-.13.56s.21-.52.49-.52.48.16.48.37a1,1,0,0,1-.22.46s.27-.24.44-.24A.92.92,0,0,1,25,11a.56.56,0,0,1,.05.46,1.08,1.08,0,0,1-.14.28.6.6,0,0,1,.42-.18,2.07,2.07,0,0,1,1.16.78.83.83,0,0,1,.14.77,2.31,2.31,0,0,1-.16.31s.23-.35.5-.1.62.55.62.75-.31.45-.31.45.28-.26.48-.26.77.5,1.15,1a1.55,1.55,0,0,1,.37,1.06,1,1,0,0,1-.29.46s.45-.41.71.05a2.16,2.16,0,0,1,.28,1.4c0,.78-.14,1.11-.34,1.29a1.39,1.39,0,0,1-.62.36c-.19,0-.52.46-.87.46s-.52-.32-.52-.83a1.76,1.76,0,0,0-.53-1.57,2.87,2.87,0,0,0-2.06-.61c-.64,0-1.93.28-2,.2s.13-.23.13-.61a18.88,18.88,0,0,0-.91-2.26c0-.16.14-.26.38-.43s-.16-.61-.55-.87-1.18-.78-1.19-1.08.06-.46-.46-.62-1.47-.55-1.66-1a5.37,5.37,0,0,1-.19-.94A3,3,0,0,1,18.55,8.84Z" fill="#212121"/><path d="M22.33,15.43c-.4-.75-.52-.95,0-1.2s.19-.37-.58-.88-1.09-.94-1-1.07.2-.31-.17-.38A6.74,6.74,0,0,1,18.62,11a3.26,3.26,0,0,1-.37-1.22c-.08-.5-.06-.44-.3-.2s-.59.26-1.11-.1A3.18,3.18,0,0,1,15.7,8a2.54,2.54,0,0,1-.14-1.69c.1-.26,0-.24-.56-.24V8.31c.18,0,.46.53.73,1s.48.43.84.53a.45.45,0,0,1,.3.64.54.54,0,0,0-.09.47,2.26,2.26,0,0,1,.25.76c0,.22,0,.4-.17.4s-.1.1-.18.25-.22.08-.36.25-.39.09-.49.23a1.33,1.33,0,0,1-.83.47V24.83a4,4,0,0,0,3.14-1.56,9.45,9.45,0,0,1,2-1.62c.2,0-.21.4.18.4s1.27-1.65,1.45-1.65,0,.21.25.21.54-1.08.54-1.85a10,10,0,0,1,0-1.51c.1-.09.15.15.24.15s.18,0,.18-.4A3.73,3.73,0,0,0,22.33,15.43ZM17.62,22c-.22,0-.83-1.06-.83-1.06s.65.77.81.71.12-.95.12-.95.08.25.16.58S17.83,22,17.62,22Zm.19-4.57c-.26,0-1-.7-1-.7.69.45.87.48.87.28a4.42,4.42,0,0,0-.27-.86l.35.53C17.88,16.84,18.08,17.43,17.81,17.43Zm.51-.7c-.31,0-.73-.48-.73-.48.32.17.62.3.62.11A4.08,4.08,0,0,0,18,15.6s.1.14.23.35S18.62,16.73,18.32,16.73Zm2.87-1.2c.21.25.46.64.18.64a4.27,4.27,0,0,1-1.06-.37c.45.15.89.26.89.09a3.08,3.08,0,0,0-.44-.75A2.56,2.56,0,0,1,21.19,15.53Zm-.87-2.68a1.5,1.5,0,0,1,.53.26c.22.18.35.25.15.34a7.23,7.23,0,0,1-1.19.09s.91-.17.91-.28S20.32,12.85,20.32,12.85Zm-.59,6.86c0,.24-.09.51-.28.51s-.57-1-.57-1,.45.69.63.68.15-.63.15-.63A.78.78,0,0,1,19.73,19.71Zm.35.62c-.16,0-.26-.49-.26-.49s.17.19.26.18.14-.35.14-.35S20.22,20.32,20.08,20.33Zm.14-.86c-.35.19-.92-1-.92-1s.12.18.28.37.43.4.52.33,0-.91,0-.91a3.81,3.81,0,0,1,.25.61C20.37,19,20.43,19.36,20.22,19.47Zm.94-2.25a3.31,3.31,0,0,1-1-.43c.54.18.89.29.89.13a2.66,2.66,0,0,0-.38-.71,4.46,4.46,0,0,1,.47.45C21.36,16.89,21.43,17.22,21.16,17.22Zm.5-.37a.51.51,0,0,1-.35-.16s.27,0,.27-.11-.18-.27-.18-.27a.6.6,0,0,1,.3.16C21.79,16.59,21.88,16.85,21.66,16.85Z" fill="#212121"/><path d="M15,12.51c-.1,0-.25.24-.49.24s-.25-.26-.52-.26-.32-.33-.44-.33-.1-.23-.18-.31-.24,0-.24-.21.22-.63.38-.63,1.23,1,1.49,1Z" fill="#212121"/><path d="M15,11.67a5.07,5.07,0,0,1-1.52-1.13c0-.21.07-.18.44.1s.7.5.1,0-.67-.4-.67-.56.43.06.74-.18.6-1.29.91-1.29Z" fill="#212121"/><path d="M13.13,5.17a1.32,1.32,0,0,0-1.21,1.48c0,.86.26,1.37.38,1.37s.18-.3.42-.3.38.29.44.57,0,.7.36.28a3.07,3.07,0,0,0,.8-1.75C14.32,6.22,14,5.17,13.13,5.17Z" fill="#212121"/><path d="M12.65,8.07c.27,0,.41.25.41.59s-.2.53-.44.53S12.36,9,12.56,9s.18-.19.18-.38-.06-.4-.21-.4S12.47,8.07,12.65,8.07Z" fill="#212121"/><path d="M12.2,8.63c-.08,0-.08.66.05.8s.21.12.39.12A.35.35,0,0,0,13,9.3c.06-.13-.12,0-.37,0s-.33-.27-.34-.42S12.24,8.63,12.2,8.63Z" fill="#212121"/><path d="M11.45,8.84a2.31,2.31,0,0,1,.25-1.17c0-.11-.88,0-1.32.17s-.57.26-.52.68L9.92,9a1.12,1.12,0,0,1-.18-.48c0-.23-.1-.29-.56-.24s-.74.34-.75.6a2.77,2.77,0,0,0,.13.66A2.41,2.41,0,0,1,8.25,9c-.05-.19-.58-.12-1,.16s-.58.45-.58.76a1.35,1.35,0,0,0,.13.56s-.21-.52-.49-.52-.48.16-.48.37a1,1,0,0,0,.22.46s-.27-.24-.44-.24A.92.92,0,0,0,5,11a.56.56,0,0,0-.05.46,1.08,1.08,0,0,0,.14.28.6.6,0,0,0-.42-.18,2.07,2.07,0,0,0-1.16.78.83.83,0,0,0-.14.77,2.31,2.31,0,0,0,.16.31s-.23-.35-.5-.1-.62.55-.62.75.31.45.31.45-.28-.26-.48-.26-.77.5-1.15,1A1.55,1.55,0,0,0,.7,16.31a1,1,0,0,0,.29.46s-.45-.41-.71.05A2.16,2.16,0,0,0,0,18.22c0,.78.14,1.11.34,1.29a1.39,1.39,0,0,0,.62.36c.19,0,.52.46.87.46s.52-.32.52-.83a1.76,1.76,0,0,1,.53-1.57,2.87,2.87,0,0,1,2.06-.61c.64,0,1.93.28,2,.2s-.13-.23-.13-.61a18.88,18.88,0,0,1,.91-2.26c0-.16-.14-.26-.38-.43s.16-.61.55-.87,1.18-.78,1.19-1.08-.06-.46.46-.62,1.47-.55,1.66-1a5.37,5.37,0,0,0,.19-.94A3,3,0,0,0,11.45,8.84Z" fill="#212121"/><path d="M7.05,17c0,.4.1.4.18.4s.14-.24.24-.15a10,10,0,0,1,0,1.51c0,.77.32,1.85.54,1.85s.07-.21.25-.21,1.06,1.65,1.45,1.65,0-.4.18-.4a9.45,9.45,0,0,1,2,1.62A4,4,0,0,0,15,24.83V13.32a1.33,1.33,0,0,1-.83-.47c-.1-.14-.34-.07-.49-.23s-.27-.1-.36-.25,0-.25-.18-.25-.17-.18-.17-.4a2.26,2.26,0,0,1,.25-.76.54.54,0,0,0-.09-.47.45.45,0,0,1,.3-.64c.36-.1.56-.06.84-.53s.55-1,.73-1V6.05c-.56,0-.66,0-.56.24A2.54,2.54,0,0,1,14.3,8a3.18,3.18,0,0,1-1.14,1.53c-.52.36-.87.34-1.11.1s-.22-.3-.3.2A3.26,3.26,0,0,1,11.38,11a6.74,6.74,0,0,1-1.87.87c-.37.07-.21.25-.17.38s-.26.55-1,1.07-1.05.63-.58.88.35.45,0,1.2A3.73,3.73,0,0,0,7.05,17Zm5.07,4.28c.08-.33.16-.58.16-.58s0,.89.12.95.81-.71.81-.71S12.6,22,12.38,22,12.05,21.62,12.12,21.28Zm.11-4.6.35-.53a4.42,4.42,0,0,0-.27.86c0,.2.18.17.87-.28,0,0-.73.7-1,.7S12.12,16.84,12.23,16.68ZM11.75,16c.13-.21.23-.35.23-.35a4.08,4.08,0,0,0-.19.76c0,.19.3.06.62-.11,0,0-.42.48-.73.48S11.63,16.16,11.75,16Zm-2.51-.81a3.08,3.08,0,0,0-.44.75c0,.17.44.06.89-.09a4.27,4.27,0,0,1-1.06.37c-.28,0,0-.39.18-.64A2.56,2.56,0,0,1,9.24,15.14Zm0-1.88c0,.11.91.28.91.28A7.23,7.23,0,0,1,9,13.45c-.2-.09-.07-.16.15-.34a1.5,1.5,0,0,1,.53-.26S9.28,13.15,9.28,13.26Zm1.06,6s0,.61.15.63.63-.68.63-.68-.32,1-.57,1-.25-.27-.28-.51A.78.78,0,0,1,10.34,19.31Zm-.56.36s.06.35.14.35.26-.18.26-.18-.1.51-.26.49S9.78,19.67,9.78,19.67Zm-.13-.79a3.81,3.81,0,0,1,.25-.61s-.09.84,0,.91.36-.15.52-.33.28-.37.28-.37-.57,1.18-.92,1S9.63,19,9.65,18.88Zm-.81-2.22a4.46,4.46,0,0,1,.47-.45,2.66,2.66,0,0,0-.38.71c0,.16.35,0,.89-.13a3.31,3.31,0,0,1-1,.43C8.57,17.22,8.64,16.89,8.84,16.66Zm-.54-.19a.6.6,0,0,1,.3-.16s-.18.15-.18.27.27.11.27.11a.51.51,0,0,1-.35.16C8.12,16.85,8.21,16.59,8.3,16.47Z" fill="#212121"/><rect width="30" height="30" fill="none"/></svg>