<svg xmlns="http://www.w3.org/2000/svg" viewBox="0 0 30 30"><path d="M15,25.92a1.6,1.6,0,0,0,1-.7c.26-.38.69-.86,1.16-.86a.85.85,0,0,1,.79.75c0,.28-.5.6-.8.6s-.64.69-.83.69A2.84,2.84,0,0,0,15,26.21Z" transform="translate(0)" fill="#212121"/><path d="M15,26.42c.47,0,1.44,0,1.44.32S16.11,27,15,27Z" transform="translate(0)" fill="#212121"/><path d="M18.24,21.43A5.44,5.44,0,0,1,18.52,19a5,5,0,0,0,.57-2.5,20.44,20.44,0,0,1,.39-3s-.05,1.32-.05,2.46a6.34,6.34,0,0,1-.26,3C18.67,20.34,18.6,21.08,18.24,21.43Z" transform="translate(0)" fill="#212121"/><path d="M15,24.24a1.79,1.79,0,0,0,1.25-1.81,5.06,5.06,0,0,1,.89-2.4s0,.23,0,.58,0,.48,0,.48a3.87,3.87,0,0,0,.15-1,7,7,0,0,1,.59-2,4.79,4.79,0,0,1,.51-.89,4.94,4.94,0,0,0-.3,1.34,5,5,0,0,1-.3,1.68,5.48,5.48,0,0,0,0,2.61c.18,1,.38,1.71.38,1.71s-.34-.51-.7-.51a1.27,1.27,0,0,0-.52.08s.42-.48.42-.75a.67.67,0,0,0-.19-.45,1.32,1.32,0,0,1,.05.38,2.44,2.44,0,0,1-.76,1.07,8.92,8.92,0,0,1-1.45.88Z" transform="translate(0)" fill="#212121"/><path d="M17.75,5.62a3.42,3.42,0,0,0,.88,1.59c.64.71.88.78,1.07.78s.37-.21.83-.21.47,0,.74-.38,1.36-.77,1.36-1a5.2,5.2,0,0,0-2.37-1.17C19.24,5.07,17.75,5.38,17.75,5.62Z" transform="translate(0)" fill="#212121"/><path d="M25.42,7.51a8.13,8.13,0,0,0,1.95.4c.95,0,1.59-.51,1.59-1.33A4.12,4.12,0,0,0,27.18,3.7C26.09,2.94,26,2.93,27,3.19s3,2.07,3,3.75-1,2.5-3.51,2.5S24,9.09,24,9A5.54,5.54,0,0,1,25.42,7.51Z" transform="translate(0)" fill="#212121"/><path d="M25,6a6.8,6.8,0,0,0-2.81,1.18,8.15,8.15,0,0,0-1.48,1.38c-.16.09-.44,0-.77.19s-.38.25-.51.25-.22-.16-.22-.27.5-.25.5-.39-.35-.11-.75-.4A5.15,5.15,0,0,1,17.8,6.29c-.16-.36-.23-.65-.36-.65a3.27,3.27,0,0,0-1.24.44c-.55.33-1,.88-1.2.88v17c.25,0,.87-1,.87-1.43s1.41-3.73,1.41-3.9A9.73,9.73,0,0,1,16,16.69a8.19,8.19,0,0,1-.49-2.63c0-.27.17-.3.17-.81s0-1.05-.14-.41-.22.5-.15-.56a4.42,4.42,0,0,1,1.08-2.15,7.61,7.61,0,0,0-.74,1.9,8.37,8.37,0,0,0,1,3.22c.7,1.25,1.19,1.52,1.34,1.52a2.69,2.69,0,0,0,.61-1.54c0-.52-.4-1.09-.4-1.47s.18-.38.48-.49,1.38-.63,1.38-1.59a1.65,1.65,0,0,1,1.27-1.54A4.26,4.26,0,0,0,23.77,8.9,6.88,6.88,0,0,1,25,7.55a1.83,1.83,0,0,0,.61-1.26C25.6,5.84,25.7,5.82,25,6ZM16,8.93a3.12,3.12,0,0,0-.21.52V8a1.46,1.46,0,0,0,.2.4,1.39,1.39,0,0,0,.24.24A2.22,2.22,0,0,0,16,8.93Zm2.88,3.58c-.3,0-.37,0-.37-.13s.24-.23.24-.44.71-.79.84-.79.17-.06.17.48A1,1,0,0,1,18.91,12.51Zm.1-2a2.37,2.37,0,0,0-.61.77.36.36,0,0,1,0-.22.77.77,0,0,1,.06-.29S18.18,11,18,11s-1.15-.69-1.15-.89a1.9,1.9,0,0,1,.42-.79,4.21,4.21,0,0,0,.6-1.3c0-.21.3-.15.3,0s-.13.15-.13.31.62.9.62,1.33a1.89,1.89,0,0,1-.3.89,2.06,2.06,0,0,1,.64-.39A3.11,3.11,0,0,1,20,10,3.82,3.82,0,0,0,19,10.54Zm4.67-2.29c-.37.47-.74.85-1,.85s-.72.53-.95.53-.38.14-.5.14-.46-.75-.32-.89.18.11.55.11a4.16,4.16,0,0,0,1.26-.58,3.63,3.63,0,0,1-.55.21c-.31.09-.31.07,0-.22A6.66,6.66,0,0,1,23,7.61,1.88,1.88,0,0,1,24,7.25C24.08,7.25,24.05,7.78,23.68,8.25Z" transform="translate(0)" fill="#212121"/><path d="M15,25.92a1.6,1.6,0,0,1-1-.7c-.26-.38-.69-.86-1.16-.86a.85.85,0,0,0-.79.75c0,.28.5.6.8.6s.64.69.83.69A2.84,2.84,0,0,1,15,26.21Z" transform="translate(0)" fill="#212121"/><path d="M15,26.42c-.47,0-1.44,0-1.44.32S13.89,27,15,27Z" transform="translate(0)" fill="#212121"/><path d="M11.76,21.43A5.44,5.44,0,0,0,11.48,19a5,5,0,0,1-.57-2.5,20.44,20.44,0,0,0-.39-3s.05,1.32.05,2.46a6.34,6.34,0,0,0,.26,3C11.33,20.34,11.4,21.08,11.76,21.43Z" transform="translate(0)" fill="#212121"/><path d="M15,24.24a1.79,1.79,0,0,1-1.25-1.81,5.06,5.06,0,0,0-.89-2.4s0,.23,0,.58,0,.48,0,.48a3.87,3.87,0,0,1-.15-1,7,7,0,0,0-.59-2,4.79,4.79,0,0,0-.51-.89,4.94,4.94,0,0,1,.3,1.34,5,5,0,0,0,.3,1.68,5.48,5.48,0,0,1,0,2.61c-.18,1-.38,1.71-.38,1.71s.34-.51.7-.51a1.27,1.27,0,0,1,.52.08s-.42-.48-.42-.75a.67.67,0,0,1,.19-.45,1.32,1.32,0,0,0-.05.38,2.44,2.44,0,0,0,.76,1.07,8.92,8.92,0,0,0,1.45.88Z" transform="translate(0)" fill="#212121"/><path d="M12.25,5.62a3.42,3.42,0,0,1-.88,1.59c-.64.71-.88.78-1.07.78s-.37-.21-.83-.21-.47,0-.74-.38-1.36-.77-1.36-1A5.2,5.2,0,0,1,9.74,5.28C10.76,5.07,12.25,5.38,12.25,5.62Z" transform="translate(0)" fill="#212121"/><path d="M4.58,7.51a8.13,8.13,0,0,1-1.95.4C1.68,7.91,1,7.4,1,6.58A4.12,4.12,0,0,1,2.82,3.7C3.91,2.94,4,2.93,3,3.19S0,5.26,0,6.94s1,2.5,3.51,2.5S6,9.09,6,9A5.54,5.54,0,0,0,4.58,7.51Z" transform="translate(0)" fill="#212121"/><path d="M4.4,6.29A1.83,1.83,0,0,0,5,7.55,6.88,6.88,0,0,1,6.23,8.9a4.26,4.26,0,0,0,2.31,1.24,1.65,1.65,0,0,1,1.27,1.54c0,1,1.07,1.49,1.38,1.59s.48.12.48.49-.4,1-.4,1.47a2.69,2.69,0,0,0,.61,1.54c.15,0,.64-.27,1.34-1.52a8.37,8.37,0,0,0,1-3.22,7.61,7.61,0,0,0-.74-1.9,4.42,4.42,0,0,1,1.08,2.15c.07,1.06,0,1.2-.15.56s-.14-.11-.14.41.17.54.17.81A8.19,8.19,0,0,1,14,16.69a9.73,9.73,0,0,1-1.26,1.91c0,.17,1.41,3.42,1.41,3.9s.62,1.43.87,1.43V7c-.2,0-.65-.55-1.2-.88a3.27,3.27,0,0,0-1.24-.44c-.13,0-.2.29-.36.65A5.15,5.15,0,0,1,11.08,7.9c-.4.29-.75.25-.75.4s.5.28.5.39-.09.27-.22.27-.18-.09-.51-.25-.61-.1-.77-.19A8.15,8.15,0,0,0,7.85,7.14,6.8,6.8,0,0,0,5,6C4.3,5.82,4.4,5.84,4.4,6.29Zm9.34,2.3A1.39,1.39,0,0,0,14,8.35a1.46,1.46,0,0,0,.2-.4v1.5A3.12,3.12,0,0,0,14,8.93,2.22,2.22,0,0,0,13.74,8.59Zm-3.53,3c0-.54,0-.48.17-.48s.84.58.84.79.24.29.24.44-.07.13-.37.13A1,1,0,0,1,10.21,11.63ZM10,10a3.11,3.11,0,0,1,1,.18,2.06,2.06,0,0,1,.64.39,1.89,1.89,0,0,1-.3-.89c0-.43.62-1.17.62-1.33s-.13-.18-.13-.31.3-.19.3,0a4.21,4.21,0,0,0,.6,1.3,1.9,1.9,0,0,1,.42.79c0,.2-1,.89-1.15.89s-.42-.24-.42-.24a.77.77,0,0,1,.06.29.36.36,0,0,1-.05.22,2.37,2.37,0,0,0-.61-.77A3.82,3.82,0,0,0,10,10ZM6,7.25A1.88,1.88,0,0,1,7,7.61a6.66,6.66,0,0,1,.86.79c.3.29.3.31,0,.22a3.63,3.63,0,0,1-.55-.21A4.16,4.16,0,0,0,8.54,9c.37,0,.43-.23.55-.11s-.19.89-.32.89-.26-.14-.5-.14-.69-.53-.95-.53-.63-.38-1-.85S5.92,7.25,6,7.25Z" transform="translate(0)" fill="#212121"/><rect width="30" height="30" fill="none"/></svg>