<!-- Copyright (c) 2023 Jan Stehno -->
<svg xmlns="http://www.w3.org/2000/svg" viewBox="0 0 300 300">
    <title>bluewildebeest</title>
    <g id="bluewildebeest">
        <g id="right">
            <path
                d="M150,259.23c2.77,0,7.33-3.34,9.89-7.08s7-8.51,11.63-8.51,7.88,4.74,7.88,7.51-5.05,5.91-8,5.91-6.33,7-8.23,7-1.25-1.9-13.15-1.9Z"
                transform="translate(0)" fill="#212121" />
            <path d="M150,264.21c4.73,0,14.41.51,14.41,3.19s-3.32,2.21-14.41,2.21Z"
                transform="translate(0)" fill="#212121" />
            <path
                d="M182.45,214.27s-1.87-13.52,2.77-24.46,5.67-14.6,5.67-25,3.87-29.55,3.87-29.55-.41,13.22-.41,24.56,2.35,16.33-2.63,30S186.05,210.85,182.45,214.27Z"
                transform="translate(0)" fill="#212121" />
            <path
                d="M150,242.4c3.64,0,12.45-6.58,12.45-18.06s8.93-24,8.93-24,.21,2.28.21,5.74-.07,4.85-.07,4.85,1.1-3,1.52-9.9,3.87-15.36,5.81-20A47.39,47.39,0,0,1,184,172.1a48.14,48.14,0,0,0-3,13.42c-.49,7.2-.7,10.66-3.05,16.82s-1.94,15.77-.21,26a156.23,156.23,0,0,0,3.81,17.16s-3.46-5.12-7.06-5.12a13.19,13.19,0,0,0-5.19.76s4.22-4.75,4.22-7.47a6.55,6.55,0,0,0-1.93-4.48,11.88,11.88,0,0,1,.55,3.79c0,2.3-5.35,9.31-7.61,10.74s-12.73,8.8-14.53,8.8Z"
                transform="translate(0)" fill="#212121" />
            <path
                d="M177.5,56.25c0,1.62,2.44,8.66,8.8,15.81S195.11,79.9,197,79.9s3.73-2.08,8.34-2.08,4.71-.09,7.43-3.78,13.56-7.75,13.56-9.5-13.47-9.74-23.66-11.77S177.5,53.81,177.5,56.25Z"
                transform="translate(0)" fill="#212121" />
            <path
                d="M254.24,75.15c1.94,0,9.92,3.92,19.42,3.92S289.58,74,289.58,65.78,282.66,44.56,271.77,37s-11.44-7.75-1.66-5.07S300,52.61,300,69.43s-9.82,25-35.15,25-24.77-3.53-24.77-4.84S252.14,75.15,254.24,75.15Z"
                transform="translate(0)" fill="#212121" />
            <path
                d="M249.63,59.6a67.19,67.19,0,0,0-28.09,11.83c-11.35,8-13.28,12.87-14.87,13.77s-4.36.21-7.68,1.87-3.81,2.56-5.12,2.56-2.15-1.66-2.15-2.77,5-2.42,5-3.87-3.46-1.11-7.47-3.95S179.47,66.52,178,62.92s-2.21-6.5-3.6-6.5-6.81,1.14-12.31,4.43S152,69.56,150,69.56V239.28c2.46,0,8.68-9.58,8.68-14.32s14.11-37.27,14.11-38.93-8.12-7.79-12.55-19.14a81.79,81.79,0,0,1-5-26.29c0-2.68,1.76-2.95,1.76-8.11s0-10.45-1.42-4.08-2.24,5-1.48-5.61,10.82-21.55,10.82-21.55-7.4,14.19-7.4,19.1,3.25,19.72,10.24,32.17,11.9,15.22,13.42,15.22,6.09-10.17,6.09-15.43-3.94-10.93-3.94-14.66,1.73-3.88,4.77-4.92,13.77-6.36,13.77-15.91,9.32-15.38,12.69-15.38S233,95.86,237.73,89a65,65,0,0,1,12.18-13.5c3.32-2.76,6.09-8.09,6.09-12.59S257,58.22,249.63,59.6ZM160.31,89.28a30.64,30.64,0,0,0-2.08,5.26V79.46a13.62,13.62,0,0,0,2,4.05,10,10,0,0,0,2.39,2.35A29,29,0,0,0,160.31,89.28Zm28.8,35.82c-3,0-3.69.32-3.69-1.29s2.4-2.31,2.4-4.43,7.11-7.89,8.4-7.89,1.73-.55,1.73,4.78S192.16,125.1,189.11,125.1Zm.95-19.73a24.14,24.14,0,0,0-6,7.71,3.61,3.61,0,0,1-.51-2.19,7.54,7.54,0,0,1,.6-2.86s-2.35,2.4-4.19,2.4-11.58-7-11.58-9,2-4.66,4.24-7.84,6-10.83,6-13,3-1.52,3-.2-1.24,1.52-1.24,3.08,6.19,9,6.19,13.31-3.08,8.93-3.08,8.93a21.9,21.9,0,0,1,6.44-4C194,100,200.23,100,200.23,100S194.07,102.08,190.06,105.37Zm46.75-22.89c-3.69,4.7-7.38,8.49-10,8.49s-7.15,5.35-9.5,5.35-3.79,1.33-5,1.33-4.61-7.42-3.22-8.82c1.23-1.22,1.87,1,5.5,1s12.7-5.78,12.7-5.78a34.67,34.67,0,0,1-5.57,2.11c-3.08.87-3.11.7-.07-2.21s4.59-5.11,8.6-7.92a18.53,18.53,0,0,1,9.41-3.55C240.76,72.52,240.5,77.77,236.81,82.48Z"
                transform="translate(0)" fill="#212121" />
        </g>
        <g id="left">
            <path
                d="M150,259.23c-2.77,0-7.33-3.34-9.89-7.08s-7-8.51-11.63-8.51-7.88,4.74-7.88,7.51,5.05,5.91,8,5.91,6.33,7,8.23,7,1.25-1.9,13.15-1.9Z"
                transform="translate(0)" fill="#212121" />
            <path d="M150,264.21c-4.73,0-14.41.51-14.41,3.19s3.32,2.21,14.41,2.21Z"
                transform="translate(0)" fill="#212121" />
            <path
                d="M117.55,214.27s1.87-13.52-2.77-24.46-5.67-14.6-5.67-25-3.87-29.55-3.87-29.55.41,13.22.41,24.56-2.35,16.33,2.63,30S114,210.85,117.55,214.27Z"
                transform="translate(0)" fill="#212121" />
            <path
                d="M150,242.4c-3.64,0-12.45-6.58-12.45-18.06s-8.93-24-8.93-24-.21,2.28-.21,5.74.07,4.85.07,4.85-1.1-3-1.52-9.9-3.87-15.36-5.81-20A47.39,47.39,0,0,0,116,172.1a48.14,48.14,0,0,1,3,13.42c.49,7.2.7,10.66,3,16.82s1.94,15.77.21,26a156.23,156.23,0,0,1-3.81,17.16s3.46-5.12,7.06-5.12a13.19,13.19,0,0,1,5.19.76s-4.22-4.75-4.22-7.47a6.55,6.55,0,0,1,1.93-4.48,11.88,11.88,0,0,0-.55,3.79c0,2.3,5.35,9.31,7.61,10.74s12.73,8.8,14.53,8.8Z"
                transform="translate(0)" fill="#212121" />
            <path
                d="M122.5,56.25c0,1.62-2.44,8.66-8.8,15.81S104.89,79.9,103,79.9s-3.73-2.08-8.34-2.08S90,77.73,87.27,74s-13.56-7.75-13.56-9.5S87.18,54.8,97.37,52.77,122.5,53.81,122.5,56.25Z"
                transform="translate(0)" fill="#212121" />
            <path
                d="M45.76,75.15c-1.94,0-9.92,3.92-19.42,3.92S10.42,74,10.42,65.78,17.34,44.56,28.23,37s11.44-7.75,1.66-5.07S0,52.61,0,69.43s9.82,25,35.15,25,24.77-3.53,24.77-4.84S47.86,75.15,45.76,75.15Z"
                transform="translate(0)" fill="#212121" />
            <path
                d="M44,62.92c0,4.5,2.77,9.83,6.09,12.59A65,65,0,0,1,62.27,89c4.77,6.85,19.79,12.43,23.15,12.43s12.69,5.83,12.69,15.38,10.72,14.88,13.77,15.91,4.77,1.18,4.77,4.92-3.94,9.41-3.94,14.66,4.56,15.43,6.09,15.43,6.43-2.77,13.42-15.22,10.24-27.26,10.24-32.17-7.4-19.1-7.4-19.1,10.06,10.93,10.82,21.55,0,12-1.48,5.61-1.42-1.07-1.42,4.08,1.76,5.43,1.76,8.11a81.79,81.79,0,0,1-5,26.29c-4.43,11.35-12.55,17.48-12.55,19.14s14.11,34.19,14.11,38.93,6.22,14.32,8.68,14.32V69.56c-2,0-6.54-5.43-12-8.71S127,56.42,125.65,56.42s-2.08,2.9-3.6,6.5S114.78,76.21,110.77,79,103.3,81.53,103.3,83s5,2.76,5,3.87-.83,2.77-2.15,2.77-1.79-.9-5.12-2.56-6.08-1-7.68-1.87-3.52-5.74-14.87-13.77A67.19,67.19,0,0,0,50.37,59.6C43,58.22,44,58.42,44,62.92Zm93.37,22.94a10,10,0,0,0,2.39-2.35,13.62,13.62,0,0,0,2-4.05V94.54a30.64,30.64,0,0,0-2.08-5.26A29,29,0,0,0,137.37,85.86Zm-35.32,30.41c0-5.33.44-4.78,1.73-4.78s8.4,5.77,8.4,7.89,2.4,2.91,2.4,4.43-.65,1.29-3.69,1.29S102.05,121.59,102.05,116.27ZM99.77,100s6.19,0,10.34,1.73a21.9,21.9,0,0,1,6.44,4s-3.08-4.57-3.08-8.93,6.19-11.76,6.19-13.31-1.24-1.77-1.24-3.08,3-2,3,.2,3.79,9.83,6,13,4.24,5.86,4.24,7.84-9.73,9-11.58,9-4.19-2.4-4.19-2.4a7.54,7.54,0,0,1,.6,2.86,3.61,3.61,0,0,1-.51,2.19,24.14,24.14,0,0,0-6-7.71C105.93,102.08,99.77,100,99.77,100ZM60.38,72.52a18.53,18.53,0,0,1,9.41,3.55c4,2.81,5.56,5,8.6,7.92s3,3.08-.07,2.21a34.67,34.67,0,0,1-5.57-2.11s9.07,5.78,12.7,5.78,4.27-2.26,5.5-1c1.39,1.4-2,8.82-3.22,8.82s-2.67-1.33-5-1.33S75.83,91,73.2,91s-6.32-3.79-10-8.49S59.24,72.52,60.38,72.52Z"
                transform="translate(0)" fill="#212121" />
        </g>
    </g>
    <g id="frame">
        <rect width="300" height="300" fill="none" />
    </g>
</svg>