<svg xmlns="http://www.w3.org/2000/svg" viewBox="0 0 30 30"><path d="M18.19,11.2a3.14,3.14,0,0,1-1.81-.76,2.68,2.68,0,0,1-.5-1.79.07.07,0,0,0-.12-.06A1.23,1.23,0,0,1,15,8.9v9.24l.56.4L15,18.45v.91h.35c.25,0,.56-.2.56-.36a.5.5,0,0,0-.11-.29.3.3,0,0,1,.32.33c0,.35-.57.49-.57.49s0,.32-.13.4-.27.15-.27.26-.06.39.64.39.82-.83.82-1.46-.69-1.57-.85-2.24a3.12,3.12,0,0,1,.05-1.94,4,4,0,0,1,1.66-1.17c.77-.33.76-.08.76-.51s-.6-.81-.6-1.16A2.28,2.28,0,0,1,18.19,11.2Z" fill="#212121"/><path d="M27.09,10.2a1.4,1.4,0,0,0,.36-.83,2,2,0,0,0-.75-1.18c-.3-.17-.47-.53-1.09-1a5.15,5.15,0,0,0-3.73-1.6,8.53,8.53,0,0,0-5,2.07l-.6.52a.3.3,0,0,0-.08.16,2.59,2.59,0,0,0,.41,1.92,2.62,2.62,0,0,0,1.67.66.27.27,0,0,0,.23-.08l.25-.26c-.33-.06-.81-.14-1.11-.23-.49-.16-.71-.29-.84-.59a6.33,6.33,0,0,1-.06-1.51A6.62,6.62,0,0,0,17,9.55a1.29,1.29,0,0,0,.92.57c.29.07.77.15,1.1.2l0-.05.29-.26a8.85,8.85,0,0,1-1.09-.18c-.48-.12-.69-.24-.83-.52a6.14,6.14,0,0,1-.11-1.42,6.35,6.35,0,0,0,.24,1.26,1.21,1.21,0,0,0,.9.51c.3.06.8.12,1.11.16l.32-.24A8.33,8.33,0,0,1,19,9.36c-.49-.16-.71-.3-.83-.6a6.09,6.09,0,0,1,0-1.47,6.65,6.65,0,0,0,.17,1.32,1.27,1.27,0,0,0,.9.59l1,.2a3.38,3.38,0,0,1,.58-.25,9,9,0,0,1-1-.23c-.43-.16-.63-.29-.74-.57a6.86,6.86,0,0,1,0-1.42A6.77,6.77,0,0,0,19.2,8.2a1.16,1.16,0,0,0,.8.56c.43.11,1.29.27,1.29.27h.13l.33,0a3.82,3.82,0,0,1-.53-.23c-.41-.22-.58-.38-.65-.69a6.88,6.88,0,0,1,.19-1.44,7.21,7.21,0,0,0,0,1.31,1.16,1.16,0,0,0,.72.68c.28.13.77.3,1,.39a6.07,6.07,0,0,1,1.43.58,4.49,4.49,0,0,0,2.45.66A4.91,4.91,0,0,0,27.09,10.2Z" fill="#212121"/><path d="M29.84,6.22c-.12,0-.16.26-.56,1a2.29,2.29,0,0,1-2,1.11h-.12a1.67,1.67,0,0,1,.55,1.12,1.18,1.18,0,0,1-.26.69,4,4,0,0,0,.78-.32,3.27,3.27,0,0,0,1.3-1.14A3.64,3.64,0,0,0,30,6.89C30,6.33,30,6.22,29.84,6.22Z" fill="#212121"/><path d="M18.91,14.58a2,2,0,0,1,1.15-.74A3.07,3.07,0,0,0,22,12.89a11.37,11.37,0,0,0,1.64-2.29c.16-.5.21-.5-.43-.37a12.94,12.94,0,0,0-3.13,1c-.94.51-1.41,1.07-1.41,1.29s.26.21.26.59,0,.38.15.38.63-.56,1.28-1.2a5.6,5.6,0,0,1,1.77-1.21c.63-.3.92-.39.94-.32s-.43.33-1,.89-1.38,1.5-1.55,1.56-.64,0-.76.06a2.41,2.41,0,0,0-.74.64A1.69,1.69,0,0,0,18.91,14.58Z" fill="#212121"/><path d="M15.59,24.46a2,2,0,0,0,.57-.39,4.09,4.09,0,0,0,.54-.56l.06.36a3,3,0,0,0,1.11-1.05,3.44,3.44,0,0,0,.42-1.12l.19.25a6,6,0,0,0,.15-1.38,18.48,18.48,0,0,0-.28-2.36,7.79,7.79,0,0,1-1.11,3c-.81,1-1.44,1.35-1.54,1.71A10.32,10.32,0,0,0,15.59,24.46Z" fill="#212121"/><path d="M15,21.18c.23,0,.17.11.48.11s1-.62,1-.62S16,21.91,15,21.91Z" fill="#212121"/><path d="M16.79,20.52a8.52,8.52,0,0,0,.92-2.45A5.35,5.35,0,0,1,18.56,16a1.5,1.5,0,0,0-.07-1l-.1-.16s-.11.4-.42.4-.4-.33-.48-.59-.08-.3-.21-.3a1.75,1.75,0,0,0-1,.62A3.1,3.1,0,0,0,16.11,17c.19.59.85,1.37.85,1.9a4.18,4.18,0,0,1-.17.94A4.4,4.4,0,0,0,16.79,20.52Z" fill="#212121"/><path d="M18,14.18l0,0a.19.19,0,0,1,.17-.08c.05,0,.06,0,.09.07s0,0,.15,0,.08,0,.08,0a.44.44,0,0,0-.27-.39.48.48,0,0,0-.55.31.11.11,0,0,0,.05.16l.1,0A.27.27,0,0,0,18,14.18Z" fill="#212121"/><path d="M18.32,14.39s-.12.14-.2.12a.18.18,0,0,1-.09-.07.09.09,0,0,0-.08,0h-.13a.13.13,0,0,0-.12.17.38.38,0,0,0,.23.22c.29.1.51-.22.55-.32S18.32,14.39,18.32,14.39Z" fill="#212121"/><path d="M11.81,11.2a3.14,3.14,0,0,0,1.81-.76,2.68,2.68,0,0,0,.5-1.79.07.07,0,0,1,.12-.06A1.23,1.23,0,0,0,15,8.9v9.24l-.56.4.56-.09v.91h-.35c-.25,0-.56-.2-.56-.36a.5.5,0,0,1,.11-.29.3.3,0,0,0-.32.33c0,.35.57.49.57.49s0,.32.13.4.27.15.27.26.06.39-.64.39-.82-.83-.82-1.46.69-1.57.85-2.24a3.12,3.12,0,0,0-.05-1.94,4,4,0,0,0-1.66-1.17c-.77-.33-.76-.08-.76-.51s.6-.81.6-1.16A2.28,2.28,0,0,0,11.81,11.2Z" fill="#212121"/><path d="M2.91,10.2a1.4,1.4,0,0,1-.36-.83A2,2,0,0,1,3.3,8.19c.3-.17.47-.53,1.09-1a5.15,5.15,0,0,1,3.73-1.6,8.53,8.53,0,0,1,5,2.07l.6.52a.3.3,0,0,1,.08.16,2.59,2.59,0,0,1-.41,1.92,2.62,2.62,0,0,1-1.67.66.27.27,0,0,1-.23-.08l-.25-.26c.33-.06.81-.14,1.11-.23.49-.16.71-.29.84-.59a6.33,6.33,0,0,0,.06-1.51A6.62,6.62,0,0,1,13,9.55a1.29,1.29,0,0,1-.92.57c-.29.07-.77.15-1.1.2l-.05-.05L10.65,10a8.85,8.85,0,0,0,1.09-.18c.48-.12.69-.24.83-.52a6.14,6.14,0,0,0,.11-1.42,6.35,6.35,0,0,1-.24,1.26,1.21,1.21,0,0,1-.9.51c-.3.06-.8.12-1.11.16l-.32-.24A8.33,8.33,0,0,0,11,9.36c.49-.16.71-.3.83-.6a6.09,6.09,0,0,0,0-1.47,6.65,6.65,0,0,1-.17,1.32,1.27,1.27,0,0,1-.9.59l-1,.2a3.38,3.38,0,0,0-.58-.25,9,9,0,0,0,1-.23c.43-.16.63-.29.74-.57a6.86,6.86,0,0,0,0-1.42A6.77,6.77,0,0,1,10.8,8.2a1.16,1.16,0,0,1-.8.56C9.57,8.87,8.71,9,8.71,9H8.58L8.25,9a3.82,3.82,0,0,0,.53-.23c.41-.22.58-.38.65-.69a6.88,6.88,0,0,0-.19-1.44,7.21,7.21,0,0,1,0,1.31,1.16,1.16,0,0,1-.72.68c-.28.13-.77.3-1,.39a6.07,6.07,0,0,0-1.43.58,4.49,4.49,0,0,1-2.45.66A4.91,4.91,0,0,1,2.91,10.2Z" fill="#212121"/><path d="M.16,6.22c.12,0,.16.26.56,1a2.29,2.29,0,0,0,2,1.11h.12A1.67,1.67,0,0,0,2.3,9.43a1.18,1.18,0,0,0,.26.69,4,4,0,0,1-.78-.32A3.27,3.27,0,0,1,.48,8.66,3.64,3.64,0,0,1,0,6.89C0,6.33.05,6.22.16,6.22Z" fill="#212121"/><path d="M11.09,14.58a2,2,0,0,0-1.15-.74A3.07,3.07,0,0,1,8,12.89,11.37,11.37,0,0,1,6.36,10.6c-.16-.5-.21-.5.43-.37a12.94,12.94,0,0,1,3.13,1c.94.51,1.41,1.07,1.41,1.29s-.26.21-.26.59,0,.38-.15.38-.63-.56-1.28-1.2A5.6,5.6,0,0,0,7.87,11.1c-.63-.3-.92-.39-.94-.32s.43.33,1,.89,1.38,1.5,1.55,1.56.64,0,.76.06a2.41,2.41,0,0,1,.74.64A1.69,1.69,0,0,1,11.09,14.58Z" fill="#212121"/><path d="M14.41,24.46a2,2,0,0,1-.57-.39,4.09,4.09,0,0,1-.54-.56l-.06.36a3,3,0,0,1-1.11-1.05,3.44,3.44,0,0,1-.42-1.12l-.19.25a6,6,0,0,1-.15-1.38,18.48,18.48,0,0,1,.28-2.36,7.79,7.79,0,0,0,1.11,3c.81,1,1.44,1.35,1.54,1.71A10.32,10.32,0,0,1,14.41,24.46Z" fill="#212121"/><path d="M15,21.18c-.23,0-.17.11-.48.11s-1-.62-1-.62S14,21.91,15,21.91Z" fill="#212121"/><path d="M13.21,20.52a8.52,8.52,0,0,1-.92-2.45A5.35,5.35,0,0,0,11.44,16a1.5,1.5,0,0,1,.07-1l.1-.16s.11.4.42.4.4-.33.48-.59.08-.3.21-.3a1.75,1.75,0,0,1,1,.62A3.1,3.1,0,0,1,13.89,17c-.19.59-.85,1.37-.85,1.9a4.18,4.18,0,0,0,.17.94A4.4,4.4,0,0,1,13.21,20.52Z" fill="#212121"/><path d="M12,14.18l0,0a.19.19,0,0,0-.17-.08s-.06,0-.09.07,0,0-.15,0-.08,0-.08,0a.44.44,0,0,1,.27-.39.48.48,0,0,1,.55.31.11.11,0,0,1,0,.16l-.1,0A.27.27,0,0,1,12,14.18Z" fill="#212121"/><path d="M11.68,14.39s.12.14.2.12a.18.18,0,0,0,.09-.07.09.09,0,0,1,.08,0h.13a.13.13,0,0,1,.12.17.38.38,0,0,1-.23.22c-.29.1-.51-.22-.55-.32S11.68,14.39,11.68,14.39Z" fill="#212121"/><rect width="30" height="30" fill="none"/></svg>