<!-- Copyright (c) 2023 Jan Stehno -->
<svg xmlns="http://www.w3.org/2000/svg" viewBox="0 0 300 300">
    <title>bobwhitequail</title>
    <g id="bobwhitequail">
        <g id="right">
            <path
                d="M150,153.41c8.69,0,16.62-.81,23.27-7.46s8.67-8.32,8.67-21,1.79-12.43,5.86-12.43,6.82-10,8-19A91.78,91.78,0,0,0,197,81.37l-5.46,6.24a47.11,47.11,0,0,0,4.38-16.27,103.24,103.24,0,0,0,.7-14.64l-6,6.41s4-8.63,4-13.76-5.25-17.62-8-17.62-4.55,5.6-4.55,5.6-2.57-3.15-3.74-13.06S172.4,11,169.6,11s-5.83,6.76-5.83,6.76S165.87,0,150,0Z"
                transform="translate(0)" fill="#212121" />
            <path
                d="M221.31,172.81s-4.42,6.34-9,6.34-6.39-3.41-6.39-8.75,6.45-16.4,9.71-21.3,3.21-4.2,4.55-4.2,2.57,5.6,2.57,5.6-.53-1.52-3.09-1.52-8.87,13.42-8.87,18.61,2.57,7.35,5.37,7.35A8.8,8.8,0,0,0,221.31,172.81Z"
                transform="translate(0)" fill="#212121" />
            <path
                d="M162.54,288s22-7.23,28.64-13,.29-7.35,7.29-11.14,15.4-15.83,15.4-15.83l-5.51-3.15a37.5,37.5,0,0,0,7,1.22c2.45,0,3.59-4.11,3.59-4.11l-3.94-2.1s5.34,1.14,7-.53,10.68-17.32,14.52-36.31,3-29.75,3-29.75a16.74,16.74,0,0,0-3.24,7.53,23.11,23.11,0,0,1-2.88,8V184s-4.47,3.76-5.17,7.17,2.45,6.21-6.73,14.61-18.64,10.85-22.84,15.7S162.54,288,162.54,288Z"
                transform="translate(0)" fill="#212121" />
            <path
                d="M163.12,171.55c1.52,1.52,6-.19,7.94,1.78s7.33,28.31,9.13,30.1,18.37.26,23.1-2.45,14.35-17.15,14.35-17.15-7.79,4-11.73,4-6-4.14-6-10.43,15.93-43.84,19.52-43.84,9.1,11,9.1,24.15a42.93,42.93,0,0,1-5.75,21.87s4.87-2.88,9.25-5.77,8.39-5,8.39-5-2.62-5.64-8-25.85-8.57-33-14.52-33-5.6,11.29-12.69,26.86-9.89,16.48-14.7,16.48-8-8.95-10.41-8.95-1.58,4.81-7.61,7.7-8.67,1.43-10,2.71S161.53,170,163.12,171.55Z"
                transform="translate(0)" fill="#212121" />
            <path
                d="M195.38,211.57c-2-2-9.94.17-16.07-1s-8.4-14-10.41-23.1-2.1-10-9.19-10-6.17-13-9.71-13V300s40.48-72.1,43-77S197,213.2,195.38,211.57Zm-24.09,22.22s-8.22-11.37-10.32-19.36-.94-23.34-.94-23.34-.35,6.89,3.5,17.8,7.12,13.59,7.12,13.59a6.52,6.52,0,0,0,1.75-3.27c.7-2.45,1.22-4.78,1.22-4.78s1.7,1.86,1.7,7.76S171.29,233.79,171.29,233.79Z"
                transform="translate(0)" fill="#212121" />
        </g>
        <g id="left">
            <path
                d="M150,153.41c-8.69,0-16.62-.81-23.27-7.46s-8.67-8.32-8.67-21-1.79-12.43-5.86-12.43-6.82-10-8-19A91.78,91.78,0,0,1,103,81.37l5.46,6.24a47.11,47.11,0,0,1-4.38-16.27,103.24,103.24,0,0,1-.7-14.64l6,6.41s-4-8.63-4-13.76,5.25-17.62,8-17.62,4.55,5.6,4.55,5.6,2.57-3.15,3.74-13.06S127.6,11,130.4,11s5.83,6.76,5.83,6.76S134.13,0,150,0Z"
                transform="translate(0)" fill="#212121" />
            <path
                d="M78.69,172.81s4.42,6.34,9,6.34,6.39-3.41,6.39-8.75-6.45-16.4-9.71-21.3-3.21-4.2-4.55-4.2-2.57,5.6-2.57,5.6.53-1.52,3.09-1.52,8.87,13.42,8.87,18.61-2.57,7.35-5.37,7.35A8.8,8.8,0,0,1,78.69,172.81Z"
                transform="translate(0)" fill="#212121" />
            <path
                d="M137.46,288s-22-7.23-28.64-13-.29-7.35-7.29-11.14-15.4-15.83-15.4-15.83l5.51-3.15a37.5,37.5,0,0,1-7,1.22c-2.45,0-3.59-4.11-3.59-4.11l3.94-2.1s-5.34,1.14-7-.53-10.68-17.32-14.52-36.31-3-29.75-3-29.75a16.74,16.74,0,0,1,3.24,7.53,23.11,23.11,0,0,0,2.88,8V184s4.47,3.76,5.17,7.17-2.45,6.21,6.73,14.61,18.64,10.85,22.84,15.7S137.46,288,137.46,288Z"
                transform="translate(0)" fill="#212121" />
            <path
                d="M136.88,171.55c-1.52,1.52-6-.19-7.94,1.78s-7.33,28.31-9.13,30.1-18.37.26-23.1-2.45-14.35-17.15-14.35-17.15,7.79,4,11.73,4,6-4.14,6-10.43S84.2,133.61,80.61,133.61s-9.1,11-9.1,24.15a42.93,42.93,0,0,0,5.75,21.87s-4.87-2.88-9.25-5.77-8.39-5-8.39-5,2.62-5.64,8-25.85,8.57-33,14.52-33,5.6,11.29,12.69,26.86,9.89,16.48,14.7,16.48,8.05-8.95,10.41-8.95,1.58,4.81,7.61,7.7,8.67,1.43,10,2.71S138.47,170,136.88,171.55Z"
                transform="translate(0)" fill="#212121" />
            <path
                d="M107,223c2.51,4.9,43,77,43,77V164.41c-3.54,0-2.62,13-9.71,13s-7.18.87-9.19,10-4.29,21.87-10.41,23.1-14-1-16.07,1C103,213.2,104.5,218.1,107,223Zm17.67-.81c0-5.9,1.7-7.76,1.7-7.76s.52,2.33,1.22,4.78a6.52,6.52,0,0,0,1.75,3.27s3.27-2.69,7.12-13.59,3.5-17.8,3.5-17.8,1.16,15.35-.94,23.34-10.32,19.36-10.32,19.36S124.68,228.08,124.68,222.19Z"
                transform="translate(0)" fill="#212121" />
        </g>
    </g>
    <g id="frame">
        <rect width="300" height="300" fill="none" />
    </g>
</svg>