<svg xmlns="http://www.w3.org/2000/svg" viewBox="0 0 30 30"><path d="M15,15.34a3,3,0,0,0,2.33-.75,2.18,2.18,0,0,0,.86-2.1c0-1.26.18-1.24.59-1.24s.68-1,.8-1.9a8.35,8.35,0,0,0,.12-1.21l-.55.62a4.71,4.71,0,0,0,.44-1.63,10.06,10.06,0,0,0,.07-1.46l-.6.64a4.46,4.46,0,0,0,.4-1.38c0-.51-.53-1.76-.81-1.76s-.45.56-.45.56a2.7,2.7,0,0,1-.38-1.3c-.11-1-.58-1.33-.86-1.33s-.58.67-.58.67S16.59,0,15,0Z" transform="translate(0)" fill="#212121"/><path d="M22.13,17.28s-.44.64-.9.64-.64-.35-.64-.88a6,6,0,0,1,1-2.13c.33-.49.32-.42.46-.42s.25.56.25.56-.05-.15-.31-.15-.88,1.34-.88,1.86.25.73.53.73A.9.9,0,0,0,22.13,17.28Z" transform="translate(0)" fill="#212121"/><path d="M16.25,28.8a12.65,12.65,0,0,0,2.87-1.3c.66-.57,0-.73.73-1.11a6.47,6.47,0,0,0,1.54-1.58l-.55-.32a3.72,3.72,0,0,0,.7.12c.24,0,.35-.41.35-.41L21.5,24s.53.12.7,0a10.31,10.31,0,0,0,1.45-3.63,11.65,11.65,0,0,0,.3-3,1.7,1.7,0,0,0-.32.76,2.43,2.43,0,0,1-.29.8V18.4a1.75,1.75,0,0,0-.52.72c-.07.34.25.62-.67,1.46s-1.87,1.08-2.29,1.57S16.25,28.8,16.25,28.8Z" transform="translate(0)" fill="#212121"/><path d="M16.31,17.16c.15.15.6,0,.8.17s.73,2.83.91,3a4.33,4.33,0,0,0,2.31-.24,8.61,8.61,0,0,0,1.43-1.72,3.8,3.8,0,0,1-1.17.41c-.39,0-.6-.42-.6-1.05s1.59-4.38,2-4.38.91,1.1.91,2.42A4.23,4.23,0,0,1,22.27,18s.49-.29.93-.57.84-.5.84-.5a19.59,19.59,0,0,1-.8-2.58c-.53-2-.86-3.3-1.45-3.3s-.56,1.13-1.27,2.68-1,1.65-1.47,1.65-.8-.89-1-.89-.16.48-.76.77-.87.14-1,.27A3.39,3.39,0,0,0,16.31,17.16Z" transform="translate(0)" fill="#212121"/><path d="M19.54,21.16c-.2-.21-1,0-1.61-.11s-.84-1.4-1-2.31-.21-1-.92-1-.62-1.3-1-1.3V30s4.05-7.21,4.3-7.7S19.7,21.32,19.54,21.16Zm-2.41,2.22a7.88,7.88,0,0,1-1-1.94,9.67,9.67,0,0,1-.1-2.33,5.29,5.29,0,0,0,.35,1.78,3.45,3.45,0,0,0,.71,1.36.62.62,0,0,0,.18-.33c.07-.24.12-.48.12-.48a1.24,1.24,0,0,1,.17.78A2.35,2.35,0,0,1,17.13,23.38Z" transform="translate(0)" fill="#212121"/><path d="M15,15.34a3,3,0,0,1-2.33-.75,2.18,2.18,0,0,1-.86-2.1c0-1.26-.18-1.24-.59-1.24s-.68-1-.8-1.9a8.35,8.35,0,0,1-.12-1.21l.55.62a4.71,4.71,0,0,1-.44-1.63,10.06,10.06,0,0,1-.07-1.46l.6.64a4.46,4.46,0,0,1-.4-1.38c0-.51.53-1.76.81-1.76s.45.56.45.56a2.7,2.7,0,0,0,.38-1.3c.11-1,.58-1.33.86-1.33s.58.67.58.67S13.41,0,15,0Z" transform="translate(0)" fill="#212121"/><path d="M7.87,17.28s.44.64.9.64.64-.35.64-.88a6,6,0,0,0-1-2.13c-.33-.49-.32-.42-.46-.42s-.25.56-.25.56,0-.15.31-.15.88,1.34.88,1.86-.25.73-.53.73A.9.9,0,0,1,7.87,17.28Z" transform="translate(0)" fill="#212121"/><path d="M13.75,28.8a12.65,12.65,0,0,1-2.87-1.3c-.66-.57,0-.73-.73-1.11a6.47,6.47,0,0,1-1.54-1.58l.55-.32a3.72,3.72,0,0,1-.7.12c-.24,0-.35-.41-.35-.41L8.5,24s-.53.12-.7,0a10.31,10.31,0,0,1-1.45-3.63,11.65,11.65,0,0,1-.3-3,1.7,1.7,0,0,1,.32.76,2.43,2.43,0,0,0,.29.8V18.4a1.75,1.75,0,0,1,.52.72c.07.34-.25.62.67,1.46s1.87,1.08,2.29,1.57S13.75,28.8,13.75,28.8Z" transform="translate(0)" fill="#212121"/><path d="M13.69,17.16c-.15.15-.6,0-.8.17s-.73,2.83-.91,3a4.33,4.33,0,0,1-2.31-.24,8.61,8.61,0,0,1-1.43-1.72,3.8,3.8,0,0,0,1.17.41c.39,0,.6-.42.6-1.05s-1.59-4.38-1.95-4.38-.91,1.1-.91,2.42A4.23,4.23,0,0,0,7.73,18s-.49-.29-.93-.57-.84-.5-.84-.5a19.59,19.59,0,0,0,.8-2.58c.53-2,.86-3.3,1.45-3.3s.56,1.13,1.27,2.68,1,1.65,1.47,1.65.8-.89,1-.89.16.48.76.77.87.14,1,.27A3.39,3.39,0,0,1,13.69,17.16Z" transform="translate(0)" fill="#212121"/><path d="M10.7,22.3C11,22.79,15,30,15,30V16.44c-.35,0-.26,1.3-1,1.3s-.72.09-.92,1-.43,2.19-1,2.31-1.41-.1-1.61.11S10.45,21.81,10.7,22.3Zm1.77-.08a1.24,1.24,0,0,1,.17-.78s0,.24.12.48a.62.62,0,0,0,.18.33,3.45,3.45,0,0,0,.71-1.36A5.29,5.29,0,0,0,14,19.11a9.67,9.67,0,0,1-.1,2.33,7.88,7.88,0,0,1-1,1.94A2.35,2.35,0,0,1,12.47,22.22Z" transform="translate(0)" fill="#212121"/><rect width="30" height="30" fill="none"/></svg>