<svg xmlns="http://www.w3.org/2000/svg" viewBox="0 0 30 30"><path d="M17.08,15.72a.64.64,0,0,0,.62.45c.38,0,.51-.32.65-.32a2.49,2.49,0,0,1,.48.1s-.42-.66-1-.66A.76.76,0,0,0,17.08,15.72Z" transform="translate(0)" fill="#212121"/><polygon points="15 3.62 15.82 3.41 15.77 4.09 16.45 4.12 16.73 4.5 17.13 4.5 17.17 4.73 17.64 4.75 17.65 5.05 18.28 5.11 18.8 5.58 18.48 6.29 17.97 6.65 17.94 6.28 17.41 6.58 17.04 6.13 16.02 6.71 15.78 6.51 15 6.96 15 3.62" fill="#212121"/><path d="M16.14,3,15,3.2V.46L15.67,0l.18.35.61-.17.1.32h.68s0,.27.34.48a2,2,0,0,0,.55.25l-.06.23.87.07-.23.32,1.15.3-.54.51,1,.24-.42.33.4.22a2.71,2.71,0,0,1-.56.48,1.45,1.45,0,0,0-.61.73c-.12.29-.2.54-.2.54l-1-.81-.34,0L17.36,4l-.52.16a1,1,0,0,0-.32-.46.6.6,0,0,0-.45,0Z" transform="translate(0)" fill="#212121"/><path d="M15.29,23.1c0,.18.21.23.41.14a.68.68,0,0,0,.3-.33v.52a4.54,4.54,0,0,1,.21-.55c.13-.28.31-.35.24-.42a.78.78,0,0,0-.79.06C15.33,22.75,15.29,22.91,15.29,23.1Z" transform="translate(0)" fill="#212121"/><path d="M15,25.84a5,5,0,0,0,1.25-.07c.31-.1.59-.19.59-.31s0-.3.2-.1a.69.69,0,0,1,0,.73,2.63,2.63,0,0,1-.91.38A3.73,3.73,0,0,0,15,26.21Z" transform="translate(0)" fill="#212121"/><path d="M15,27.27l1.26-.12.09.24a2.34,2.34,0,0,1,.7-.72,4.06,4.06,0,0,1,.78-.42l.52.28,1.2-2.09,0-.46.34.18.52-.79.75.09.45-.36.28.35.41-1,.55.24V21.07l.78-.47a2.53,2.53,0,0,1,.28-.94,5.25,5.25,0,0,1,.48-.67l.38.17.1-.94.34-.14s.18-1.13.19-1.32a1.47,1.47,0,0,0-.1-.44l.39.25A14.73,14.73,0,0,0,25.25,15a8.87,8.87,0,0,0-.52-1.09l.69.38-.37-1.16.21-.18a2,2,0,0,0-.31-.88,3.51,3.51,0,0,0-1-.71l.47,1.26-.29,0,.34.86h-.27l.63,1.93-.43-.34.36,1.9-.37.28.05.79-.34-.26a1.09,1.09,0,0,0-.15.45,1.77,1.77,0,0,0,.11.49l-.46-.12.25.41-.45.07.17.77-.31-.09-.12.56L22.69,20l-.43.4L22.21,22l-.5-.28v.84l-.58-.44v.58l-.35-.08-.21.41h-.38l-.44.47h-.32a.91.91,0,0,0-.61.48,11.7,11.7,0,0,0-.61,1.33v-.91l-.47-.12a4.68,4.68,0,0,0,1.14-.89c.51-.56.82-1,.82-1l.22.22a2.6,2.6,0,0,0,.82-.91,2.72,2.72,0,0,0,.34-.93l.2.18a6,6,0,0,0,.44-1.3,3,3,0,0,0-.14-1.1l.36.16.23-.72h.19a9,9,0,0,1-.3-1.37c0-.33.38-.69.38-.95a11.08,11.08,0,0,0-.24-1.52,4.72,4.72,0,0,0-.33-.87h.29l-.74-1.13v-.68a2.56,2.56,0,0,1-.53-.17.55.55,0,0,1-.27-.29,1.45,1.45,0,0,0,.86-.24,6.73,6.73,0,0,0,1.05-1.15h.37l1-1.81,1.08.4-.33.14.56.75-.28.13.58,1.11-.27-.12,0,.8-.82-.52s0,.29.49,1,1.24,1.24,1.4,1.51a12.94,12.94,0,0,1,.47,1.21h-.46l.61,1.34-.36,0,.71,1.64H27l.3.54h-.37l.6,1.42-.4-.08a.36.36,0,0,1-.14.34.57.57,0,0,1-.41.1l.16,1.69-.39-.11-.26.8-.28-.25L25.25,23l-.33-.67v1.3L24,23l-.46,1.5-.17-.37-.89.26-.21.34-.43-.22-.31.34-.16-.15-1.23,1.15-.2-.38A5.06,5.06,0,0,0,19,26.93a11.45,11.45,0,0,0-.3,1.62l-.26-.24L18,28.7l-.12-.45-.64.95-.2-.28a2.13,2.13,0,0,1-.63.75,1.74,1.74,0,0,1-.7.2l.08-.59L15,30Z" transform="translate(0)" fill="#212121"/><path d="M18.65,22.83l.7-.88,0,.37.73-.28.09-.72.52-.4v-.6l.23.09s.12-.06.16-.39a1.56,1.56,0,0,0,0-.56l.3-.06a2.83,2.83,0,0,0-.1-.75,4.56,4.56,0,0,0-.38-.71l.66.26a3,3,0,0,0,0-.49,3.07,3.07,0,0,0-.23-.55l.48.22a2.15,2.15,0,0,0-.34-.66,1.5,1.5,0,0,0-.72-.36l.17.68a8.8,8.8,0,0,0-.67-.77,3.22,3.22,0,0,0-.93-.58v.58L19,16.06l.1.72h-.58l.15.15-.59.61a3.5,3.5,0,0,1,.54,1,4.48,4.48,0,0,1,.13,1.16l-.48-.23a18.6,18.6,0,0,1,.65,2.34A3.28,3.28,0,0,1,18.65,22.83Z" transform="translate(0)" fill="#212121"/><path d="M15,25.34a2.62,2.62,0,0,0,1.32-.43c.43-.3.82-.64.82-.82A11.43,11.43,0,0,1,18,22.57l.21.21a1.36,1.36,0,0,0,.36-.86,4.52,4.52,0,0,0-.34-1.67,8.23,8.23,0,0,0-.78-1.76,2.1,2.1,0,0,0-.32-.41,4.48,4.48,0,0,1,.74.51,2.53,2.53,0,0,1,.41.63,3,3,0,0,0-.23-1.2,3.24,3.24,0,0,0-1.28-1.14c-.2-.07-.35-.48-.35-.48l.42-.55-.31,0a1.63,1.63,0,0,1,1.38-.86,2.75,2.75,0,0,1,1.64.58V15l.71,1h1l.71-.8-.26-.36v-.73l-.22.18-.18-.85h.24l-.3-.38.17-.27-.52-.38.21-.52a1.13,1.13,0,0,1-.7-.36,3,3,0,0,1-.34-.66l.15-.15-.61-.3a3.74,3.74,0,0,0,1.33,0c.42-.16.54-.44.87-.63s.56-.33,1-1.18.58-1.08.58-1.08h.33a2.94,2.94,0,0,1-.17-.77,3.54,3.54,0,0,1,.21-1.16L23.22,5l.2-.44-.5-.24.21-.24a8.85,8.85,0,0,0-1.32-.81,1.1,1.1,0,0,0-1.23.32c-.25.35-.87.66-1.16,1.18L19,5.59l.16.85-.46-.05L18,7l-.27-.44-.54.29L17,6.65l-.15.13-.21-.17-.56.54L15.74,7,15,7.53V18l.55.91h-.19l.11,1.25.62-.69-.53,1.25.34.32-.22.4s.79.08,1,.5a2.12,2.12,0,0,1-.4,1.58A2.44,2.44,0,0,1,15,24.4Z" transform="translate(0)" fill="#212121"/><path d="M12.92,15.72a.64.64,0,0,1-.62.45c-.38,0-.51-.32-.65-.32a2.49,2.49,0,0,0-.48.1s.42-.66,1-.66A.76.76,0,0,1,12.92,15.72Z" transform="translate(0)" fill="#212121"/><polygon points="15 3.62 14.18 3.41 14.23 4.09 13.54 4.12 13.27 4.5 12.87 4.5 12.83 4.73 12.36 4.75 12.35 5.05 11.72 5.11 11.2 5.58 11.52 6.29 12.03 6.65 12.06 6.28 12.59 6.58 12.96 6.13 13.98 6.71 14.22 6.51 15 6.96 15 3.62" fill="#212121"/><path d="M13.86,3,15,3.2V.46L14.33,0l-.18.35L13.54.18l-.1.32h-.68s0,.27-.34.48a2,2,0,0,1-.55.25l.06.23-.87.07.23.32-1.15.3.54.51-1,.24.42.33-.4.22a2.71,2.71,0,0,0,.56.48,1.45,1.45,0,0,1,.61.73c.12.29.2.54.2.54l1-.81.34,0L12.64,4l.52.16a1,1,0,0,1,.32-.46.6.6,0,0,1,.45,0Z" transform="translate(0)" fill="#212121"/><path d="M14.71,23.1c0,.18-.21.23-.41.14a.68.68,0,0,1-.3-.33v.52a4.54,4.54,0,0,0-.21-.55c-.13-.28-.31-.35-.24-.42a.78.78,0,0,1,.79.06C14.67,22.75,14.71,22.91,14.71,23.1Z" transform="translate(0)" fill="#212121"/><path d="M15,25.84a5,5,0,0,1-1.25-.07c-.31-.1-.59-.19-.59-.31s0-.3-.2-.1a.69.69,0,0,0,0,.73,2.63,2.63,0,0,0,.91.38A3.73,3.73,0,0,1,15,26.21Z" transform="translate(0)" fill="#212121"/><path d="M15,27.27l-1.26-.12-.09.24a2.34,2.34,0,0,0-.7-.72,4.06,4.06,0,0,0-.78-.42l-.52.28-1.2-2.09,0-.46-.34.18-.52-.79-.75.09-.45-.36-.28.35-.41-1-.55.24V21.07l-.78-.47a2.53,2.53,0,0,0-.28-.94A5.25,5.25,0,0,0,5.59,19l-.38.17-.1-.94-.34-.14S4.59,17,4.58,16.76a1.47,1.47,0,0,1,.1-.44l-.39.25A14.73,14.73,0,0,1,4.75,15a8.87,8.87,0,0,1,.52-1.09l-.69.38L5,13.11l-.21-.18a2,2,0,0,1,.31-.88,3.51,3.51,0,0,1,1-.71L5.6,12.6l.29,0-.34.86h.27l-.63,1.93.43-.34L5.26,17l.37.28,0,.79.34-.26a1.09,1.09,0,0,1,.15.45,1.77,1.77,0,0,1-.11.49l.46-.12L6.17,19l.45.07-.17.77.31-.09.12.56L7.31,20l.43.4,0,1.62.5-.28v.84l.58-.44v.58l.35-.08.21.41h.38l.44.47h.32a.91.91,0,0,1,.61.48,11.7,11.7,0,0,1,.61,1.33v-.91l.47-.12a4.68,4.68,0,0,1-1.14-.89c-.51-.56-.82-1-.82-1l-.22.22a2.6,2.6,0,0,1-.82-.91,2.72,2.72,0,0,1-.34-.93l-.2.18a6,6,0,0,1-.44-1.3,3,3,0,0,1,.14-1.1l-.36.16-.23-.72H7.64a9,9,0,0,0,.3-1.37c0-.33-.38-.69-.38-.95a11.08,11.08,0,0,1,.24-1.52,4.72,4.72,0,0,1,.33-.87H7.84l.74-1.13v-.68a2.56,2.56,0,0,0,.53-.17.55.55,0,0,0,.27-.29,1.45,1.45,0,0,1-.86-.24,6.73,6.73,0,0,1-1-1.15H7.1L6.15,7.87l-1.08.4.33.14-.56.75.28.13L4.54,10.4l.27-.12,0,.8.82-.52s0,.29-.49,1-1.24,1.24-1.4,1.51a12.94,12.94,0,0,0-.47,1.21h.46l-.61,1.34.36,0-.71,1.64H3l-.3.54h.37l-.6,1.42.4-.08a.36.36,0,0,0,.14.34.57.57,0,0,0,.41.1l-.16,1.69.39-.11.26.8.28-.25L4.75,23l.33-.67v1.3L6,23l.46,1.5.17-.37.89.26.21.34.43-.22.31.34.16-.15,1.23,1.15.2-.38A5.06,5.06,0,0,1,11,26.93a11.45,11.45,0,0,1,.3,1.62l.26-.24.44.39.12-.45.64.95.2-.28a2.13,2.13,0,0,0,.63.75,1.74,1.74,0,0,0,.7.2l-.08-.59L15,30Z" transform="translate(0)" fill="#212121"/><path d="M11.35,22.83l-.7-.88,0,.37L9.88,22l-.09-.72-.52-.4v-.6L9,20.41s-.12-.06-.16-.39a1.56,1.56,0,0,1,0-.56l-.3-.06a2.83,2.83,0,0,1,.1-.75,4.56,4.56,0,0,1,.38-.71l-.66.26a3,3,0,0,1,0-.49,3.07,3.07,0,0,1,.23-.55l-.48.22a2.15,2.15,0,0,1,.34-.66,1.5,1.5,0,0,1,.72-.36L9.12,17a8.8,8.8,0,0,1,.67-.77,3.22,3.22,0,0,1,.93-.58v.58l.29-.21-.1.72h.58l-.15.15.59.61a3.5,3.5,0,0,0-.54,1,4.48,4.48,0,0,0-.13,1.16l.48-.23a18.6,18.6,0,0,0-.65,2.34A3.28,3.28,0,0,0,11.35,22.83Z" transform="translate(0)" fill="#212121"/><path d="M15,25.34a2.62,2.62,0,0,1-1.32-.43c-.43-.3-.82-.64-.82-.82A11.43,11.43,0,0,0,12,22.57l-.21.21a1.36,1.36,0,0,1-.36-.86,4.52,4.52,0,0,1,.34-1.67,8.23,8.23,0,0,1,.78-1.76,2.1,2.1,0,0,1,.32-.41,4.48,4.48,0,0,0-.74.51,2.53,2.53,0,0,0-.41.63A3,3,0,0,1,12,18a3.24,3.24,0,0,1,1.28-1.14c.2-.07.35-.48.35-.48l-.42-.55.31,0a1.63,1.63,0,0,0-1.38-.86,2.75,2.75,0,0,0-1.64.58V15l-.71,1h-1L8,15.17l.26-.36v-.73l.22.18.18-.85H8.46l.3-.38-.17-.27.52-.38-.21-.52a1.13,1.13,0,0,0,.7-.36,3,3,0,0,0,.34-.66l-.15-.15.61-.3a3.74,3.74,0,0,1-1.33,0c-.42-.16-.54-.44-.87-.63s-.56-.33-1-1.18S6.59,7.5,6.59,7.5H6.26a2.94,2.94,0,0,0,.17-.77,3.54,3.54,0,0,0-.21-1.16L6.78,5l-.2-.44.5-.24-.21-.24a8.85,8.85,0,0,1,1.32-.81,1.1,1.1,0,0,1,1.23.32c.25.35.87.66,1.16,1.18l.46.83-.16.85.46-.05L12,7l.27-.44.54.29L13,6.65l.15.13.21-.17.56.54L14.26,7l.74.57V18l-.55.91h.19l-.11,1.25-.62-.69.53,1.25L14.1,21l.22.4s-.79.08-1,.5a2.12,2.12,0,0,0,.4,1.58A2.44,2.44,0,0,0,15,24.4Z" transform="translate(0)" fill="#212121"/><rect width="30" height="30" fill="none"/></svg>