<!-- Copyright (c) 2023 Jan Stehno -->
<svg xmlns="http://www.w3.org/2000/svg" viewBox="0 0 300 300">
    <title>brownbear</title>
    <g id="brownbear">
        <g id="right">
            <path
                d="M170.77,157.18c0,1.16,2.36,4.57,6.18,4.57s5.12-3.23,6.58-3.23a23.85,23.85,0,0,1,4.72,1s-4.17-6.6-9.7-6.6S170.77,156.48,170.77,157.18Z"
                transform="translate(0)" fill="#212121" />
            <polygon
                points="150 36.18 158.22 34.14 157.71 40.9 164.55 41.22 167.26 45.03 171.32 44.95 171.67 47.31 176.43 47.51 176.51 50.54 182.8 51.09 187.99 55.81 184.81 62.89 179.69 66.54 179.38 62.77 174.11 65.76 170.37 61.35 160.22 67.07 157.84 65.16 150 69.56 150 36.18"
                fill="#212121" />
            <path
                d="M161.43,29.73,150,32V4.62L156.69,0l1.82,3.5,6.06-1.71,1,3.22,6.83-.13s-.44,2.71,3.34,4.85a20.37,20.37,0,0,0,5.55,2.46l-.67,2.28,8.77.77-2.28,3.21,11.5,2.94-5.47,5.08L203,29l-4.21,3.22,4,2.2a26.22,26.22,0,0,1-5.59,4.8,14.71,14.71,0,0,0-6.17,7.32c-1.14,2.91-1.93,5.38-1.93,5.38l-10.07-8.1-3.38.28-2-3.86-5.23,1.58s-1.22-3.5-3.23-4.53a5.77,5.77,0,0,0-4.44.08Z"
                transform="translate(0)" fill="#212121" />
            <path
                d="M152.91,231c0,1.85,2.05,2.36,4.13,1.41a6.58,6.58,0,0,0,3-3.3l.08,5.23a37,37,0,0,1,2.08-5.51c1.34-2.79,3.09-3.48,2.4-4.16s-4.4-1.77-7.86.55S152.91,229.09,152.91,231Z"
                transform="translate(0)" fill="#212121" />
            <path
                d="M150,258.42c3.8,0,9.41.28,12.51-.71s5.84-1.92,5.84-3.1.08-3,2.07-1,1,6.43.16,7.26-6.89,3.86-9,3.86-4.33-2.62-11.54-2.62Z"
                transform="translate(0)" fill="#212121" />
            <path
                d="M150,272.67l12.62-1.14.87,2.41a23.65,23.65,0,0,1,7-7.24,41.38,41.38,0,0,1,7.79-4.19l5.19,2.78,12.06-20.93.16-4.56,3.38,1.81,5.25-7.94,7.47.89,4.48-3.52,2.83,3.46,4.09-10,5.46,2.47V210.67l7.86-4.72s.48-5.66,2.73-9.33a61.68,61.68,0,0,1,4.88-6.77l3.72,1.79,1.05-9.39,3.35-1.47s1.89-11.33,1.95-13.21a12.93,12.93,0,0,0-1-4.36l3.88,2.52a143.88,143.88,0,0,0-4.59-15.93A86.52,86.52,0,0,0,247.3,139l6.92,3.73-3.7-11.6,2.09-1.77s-.51-5.38-3.11-8.85-10.22-7.08-10.22-7.08L244,126l-2.84.28,3.39,8.53h-2.72l6.3,19.27-4.29-3.34,3.62,19-3.74,2.8.51,7.86-3.42-2.52a11,11,0,0,0-1.45,4.45,19.11,19.11,0,0,0,1.06,5l-4.6-1.21,2.47,4.05-4.44.74,1.69,7.67-3.07-.9-1.26,5.58L226.93,200l-4.36,4-.47,16.2-5-2.77v8.33l-5.77-4.35v5.82l-3.51-.84-2,4.15-3.88-.06-4.35,4.67h-3.25s-3.46.47-6.08,4.82-6.09,13.27-6.09,13.27v-9l-4.66-1.2a47.67,47.67,0,0,0,11.37-8.92c5.14-5.61,8.24-9.6,8.24-9.6l2.2,2.15a25.53,25.53,0,0,0,8.18-9c3.09-5.88,3.41-9.34,3.41-9.34l1.94,1.84s3.77-7.92,4.4-13.06-1.41-11-1.41-11l3.67,1.57,2.25-7.13,1.92,0s-3-10.41-3-13.71,3.83-6.92,3.83-9.49-1.36-10.8-2.41-15.21a43.86,43.86,0,0,0-3.25-8.65h2.83l-7.4-11.38v-6.71a32.67,32.67,0,0,1-5.29-1.73,6.13,6.13,0,0,1-2.73-2.89,14.8,14.8,0,0,0,8.65-2.41c4.09-2.78,10.49-11.48,10.49-11.48H229l9.5-18.09,10.75,3.93L246,84.08l5.56,7.56-2.72,1.25L254.56,104l-2.67-1.2.42,8-8.24-5.2s-.42,2.94,4.88,10.07,12.48,12.48,14,15.16,4.72,12.11,4.72,12.11l-4.56.05,6.13,13.43-3.67.42,7.18,16.38h-2.88l3,5.43h-3.69l6.05,14.2-4-.83a3.73,3.73,0,0,1-1.38,3.39,5.92,5.92,0,0,1-4.16,1l1.61,16.91-3.9-1.06-2.59,7.94L258,217.7l-5.56,12.43-3.25-6.72-.15,13-8.81-6-4.62,14.95-1.73-3.73L225,244.28l-2.1,3.47-4.25-2.26-3.09,3.41-1.63-1.52L201.6,258.86l-2-3.77s-7.23,7.94-9.2,14.23-3,16.21-3,16.21l-2.67-2.44L180.36,287l-1.18-4.48L172.81,292l-2-2.76s-2.81,5.49-6.31,7.46a16.54,16.54,0,0,1-7,2l.79-5.86L150,300Z"
                transform="translate(0)" fill="#212121" />
            <path
                d="M186.5,228.34l7-8.81.39,3.7,7.32-2.83.86-7.16,5.27-4.09v-6l2.28,1s1.18-.59,1.54-3.94a14.68,14.68,0,0,0-.36-5.54l3-.67a29.4,29.4,0,0,0-1-7.47,43.89,43.89,0,0,0-3.82-7.12l6.69,2.63a35.19,35.19,0,0,0-.47-4.87,32.64,32.64,0,0,0-2.24-5.51l4.79,2.16a21.66,21.66,0,0,0-3.42-6.56c-2.2-2.6-7.16-3.62-7.16-3.62l1.66,6.76a82.7,82.7,0,0,0-6.69-7.67c-3.5-3.46-9.32-5.82-9.32-5.82v5.86l-2.91-2.16,1,7.24h-5.78l1.51,1.51-5.91,6.12a32.79,32.79,0,0,1,5.34,10.14,43.75,43.75,0,0,1,1.34,11.57l-4.8-2.25s6.52,19.48,6.52,23.42S186.5,228.34,186.5,228.34Z"
                transform="translate(0)" fill="#212121" />
            <path
                d="M150,253.36c2.56,0,9-1.14,13.21-4.21s8.15-6.45,8.15-8.26,8.69-15.22,8.69-15.22l2,2.08a13.35,13.35,0,0,0,3.62-8.57c.2-5.31-.79-8.14-3.38-16.64a85.81,85.81,0,0,0-7.83-17.66,18.88,18.88,0,0,0-3.22-4.12s5.23,2.91,7.47,5.19a26.06,26.06,0,0,1,4.05,6.29s.16-7-2.28-12.07-10.86-10.62-12.86-11.33-3.5-4.84-3.5-4.84l4.25-5.5-3.15-.48s4.33-8.57,13.88-8.57a27.32,27.32,0,0,1,16.32,5.79v-5.08l7.14,9.54h9.91l7.08-8L217,148.11v-7.34l-2.15,1.78L213,134.06h2.36l-3-3.72,1.73-2.73-5.19-3.78,2.05-5.24s-4.88-.63-7-3.57a32.4,32.4,0,0,1-3.46-6.6l1.52-1.52-6.08-3s9.07,1.52,13.27-.06,5.4-4.35,8.75-6.24,5.61-3.3,10.33-11.79S234.06,75,234.06,75h3.3a31.39,31.39,0,0,1-1.66-7.71c-.44-4.56,2.08-11.56,2.08-11.56L232.16,50l2-4.41-5-2.4,2.12-2.4s-9-6.6-13.21-8.1-9.79-.39-12.31,3.15-8.69,6.61-11.56,11.8-4.61,8.34-4.61,8.34l1.58,8.45-4.6-.47-6.49,6.53L177.41,66l-5.39,3-2.2-2.43-1.53,1.33-2-1.69-5.66,5.43-3.19-2L150,75.31V179.89l5.45,9.12h-1.88l1.15,12.54,6.19-6.92-5.3,12.42,3.36,3.2-2.21,4s8,.84,9.81,5-1.31,11.51-4,15.81S152.31,244,150,244Z"
                transform="translate(0)" fill="#212121" />
        </g>
        <g id="left">
            <path
                d="M129.23,157.18c0,1.16-2.36,4.57-6.18,4.57s-5.12-3.23-6.58-3.23a23.85,23.85,0,0,0-4.72,1s4.17-6.6,9.7-6.6S129.23,156.48,129.23,157.18Z"
                transform="translate(0)" fill="#212121" />
            <polygon
                points="150 36.18 141.78 34.14 142.29 40.9 135.45 41.22 132.74 45.03 128.68 44.95 128.33 47.31 123.57 47.51 123.49 50.54 117.2 51.09 112.01 55.81 115.19 62.89 120.31 66.54 120.62 62.77 125.89 65.76 129.63 61.35 139.78 67.07 142.16 65.16 150 69.56 150 36.18"
                fill="#212121" />
            <path
                d="M138.57,29.73,150,32V4.62L143.31,0l-1.82,3.5-6.06-1.71-1,3.22-6.83-.13s.44,2.71-3.34,4.85a20.37,20.37,0,0,1-5.55,2.46l.67,2.28-8.77.77,2.28,3.21-11.5,2.94,5.47,5.08L97,29l4.21,3.22-4,2.2a26.22,26.22,0,0,0,5.59,4.8,14.71,14.71,0,0,1,6.17,7.32c1.14,2.91,1.93,5.38,1.93,5.38l10.07-8.1,3.38.28,2-3.86,5.23,1.58s1.22-3.5,3.23-4.53a5.77,5.77,0,0,1,4.44.08Z"
                transform="translate(0)" fill="#212121" />
            <path
                d="M147.09,231c0,1.85-2.05,2.36-4.13,1.41a6.58,6.58,0,0,1-3-3.3l-.08,5.23a37,37,0,0,0-2.08-5.51c-1.34-2.79-3.09-3.48-2.4-4.16s4.4-1.77,7.86.55S147.09,229.09,147.09,231Z"
                transform="translate(0)" fill="#212121" />
            <path
                d="M150,258.42c-3.8,0-9.41.28-12.51-.71s-5.84-1.92-5.84-3.1-.08-3-2.07-1-1,6.43-.16,7.26,6.89,3.86,9,3.86,4.33-2.62,11.54-2.62Z"
                transform="translate(0)" fill="#212121" />
            <path
                d="M150,272.67l-12.62-1.14-.87,2.41a23.65,23.65,0,0,0-7-7.24,41.38,41.38,0,0,0-7.79-4.19l-5.19,2.78-12.06-20.93-.16-4.56-3.38,1.81-5.25-7.94-7.47.89L83.72,231l-2.83,3.46-4.09-10-5.46,2.47V210.67L63.48,206s-.48-5.66-2.73-9.33a61.68,61.68,0,0,0-4.88-6.77l-3.72,1.79-1-9.39-3.35-1.47s-1.89-11.33-2-13.21a12.93,12.93,0,0,1,1-4.36l-3.88,2.52a143.88,143.88,0,0,1,4.59-15.93A86.52,86.52,0,0,1,52.7,139l-6.92,3.73,3.7-11.6-2.09-1.77s.51-5.38,3.11-8.85,10.22-7.08,10.22-7.08L56,126l2.84.28-3.39,8.53h2.72l-6.3,19.27,4.29-3.34-3.62,19,3.74,2.8-.51,7.86,3.42-2.52a11,11,0,0,1,1.45,4.45,19.11,19.11,0,0,1-1.06,5l4.6-1.21-2.47,4.05,4.44.74-1.69,7.67,3.07-.9,1.26,5.58L73.07,200l4.36,4,.47,16.2,5-2.77v8.33l5.77-4.35v5.82l3.51-.84,2.05,4.15,3.88-.06,4.35,4.67h3.25s3.46.47,6.08,4.82,6.09,13.27,6.09,13.27v-9l4.66-1.2a47.67,47.67,0,0,1-11.37-8.92c-5.14-5.61-8.24-9.6-8.24-9.6l-2.2,2.15a25.53,25.53,0,0,1-8.18-9c-3.09-5.88-3.41-9.34-3.41-9.34l-1.94,1.84s-3.77-7.92-4.4-13.06,1.41-11,1.41-11l-3.67,1.57-2.25-7.13-1.92,0s3-10.41,3-13.71-3.83-6.92-3.83-9.49S77,146.49,78,142.08a43.86,43.86,0,0,1,3.25-8.65H78.42l7.4-11.38v-6.71a32.67,32.67,0,0,0,5.29-1.73,6.13,6.13,0,0,0,2.73-2.89,14.8,14.8,0,0,1-8.65-2.41C81.1,105.53,74.7,96.83,74.7,96.83H71l-9.5-18.09L50.73,82.67,54,84.08l-5.56,7.56,2.72,1.25L45.44,104l2.67-1.2-.42,8,8.24-5.2s.42,2.94-4.88,10.07-12.48,12.48-14,15.16-4.72,12.11-4.72,12.11l4.56.05L30.76,156.4l3.67.42L27.25,173.2h2.88l-3,5.43h3.69l-6,14.2,4-.83a3.73,3.73,0,0,0,1.38,3.39,5.92,5.92,0,0,0,4.16,1l-1.61,16.91,3.9-1.06,2.59,7.94L42,217.7l5.56,12.43,3.25-6.72.15,13,8.81-6,4.62,14.95,1.73-3.73L75,244.28l2.1,3.47,4.25-2.26,3.09,3.41,1.63-1.52L98.4,258.86l2-3.77s7.23,7.94,9.2,14.23,3,16.21,3,16.21l2.67-2.44,4.41,3.93,1.18-4.48,6.37,9.44,2-2.76s2.81,5.49,6.31,7.46a16.54,16.54,0,0,0,7,2l-.79-5.86L150,300Z"
                transform="translate(0)" fill="#212121" />
            <path
                d="M113.5,228.34l-7-8.81-.39,3.7-7.32-2.83-.86-7.16-5.27-4.09v-6l-2.28,1s-1.18-.59-1.54-3.94a14.68,14.68,0,0,1,.36-5.54l-3-.67a29.4,29.4,0,0,1,1-7.47,43.89,43.89,0,0,1,3.82-7.12L84.36,182a35.19,35.19,0,0,1,.47-4.87,32.64,32.64,0,0,1,2.24-5.51l-4.79,2.16a21.66,21.66,0,0,1,3.42-6.56c2.2-2.6,7.16-3.62,7.16-3.62l-1.66,6.76a82.7,82.7,0,0,1,6.69-7.67c3.5-3.46,9.32-5.82,9.32-5.82v5.86l2.91-2.16-1,7.24h5.78l-1.51,1.51,5.91,6.12a32.79,32.79,0,0,0-5.34,10.14,43.75,43.75,0,0,0-1.34,11.57l4.8-2.25s-6.52,19.48-6.52,23.42S113.5,228.34,113.5,228.34Z"
                transform="translate(0)" fill="#212121" />
            <path
                d="M150,253.36c-2.56,0-9-1.14-13.21-4.21s-8.15-6.45-8.15-8.26S120,225.67,120,225.67l-2,2.08a13.35,13.35,0,0,1-3.62-8.57c-.2-5.31.79-8.14,3.38-16.64a85.81,85.81,0,0,1,7.83-17.66,18.88,18.88,0,0,1,3.22-4.12s-5.23,2.91-7.47,5.19a26.06,26.06,0,0,0-4,6.29s-.16-7,2.28-12.07,10.86-10.62,12.86-11.33,3.5-4.84,3.5-4.84l-4.25-5.5,3.15-.48s-4.33-8.57-13.88-8.57a27.32,27.32,0,0,0-16.32,5.79v-5.08L97.4,159.7H87.49l-7.08-8L83,148.11v-7.34l2.15,1.78L87,134.06H84.61l3-3.72-1.73-2.73,5.19-3.78-2-5.24s4.88-.63,7-3.57a32.4,32.4,0,0,0,3.46-6.6l-1.52-1.52,6.08-3s-9.07,1.52-13.27-.06S85.34,99.5,82,97.61s-5.61-3.3-10.33-11.79S65.94,75,65.94,75h-3.3a31.39,31.39,0,0,0,1.66-7.71c.44-4.56-2.08-11.56-2.08-11.56L67.84,50l-2-4.41,5-2.4-2.12-2.4s9-6.6,13.21-8.1,9.79-.39,12.31,3.15,8.69,6.61,11.56,11.8,4.61,8.34,4.61,8.34l-1.58,8.45,4.6-.47,6.49,6.53L122.59,66l5.39,3,2.2-2.43,1.53,1.33,2-1.69,5.66,5.43,3.19-2L150,75.31V179.89L144.55,189h1.88l-1.15,12.54-6.19-6.92,5.3,12.42-3.36,3.2,2.21,4s-8,.84-9.81,5,1.31,11.51,4,15.81S147.69,244,150,244Z"
                transform="translate(0)" fill="#212121" />
        </g>
    </g>
    <g id="frame">
        <rect width="300" height="300" fill="none" />
    </g>
</svg>