<!-- Copyright (c) 2022 - 2023 Jan Stehno -->
<svg xmlns="http://www.w3.org/2000/svg" viewBox="0 0 300 300"><title>canadagoose</title><g id="canadagoose"><g id="right"><path d="M150,.45c10.24,0,29.73-3.67,49.57,10s24.24,22.33,25.76,23.25a9,9,0,0,0,3.63,1l-5.42,5.05s2.49.91,2.49,12.51-1.55,15.46-4,18.64a66,66,0,0,1-4.72,5.41s0-6.53-2.75-10.74a28.72,28.72,0,0,0-6.87-7,21.89,21.89,0,0,1-7.71,11.94c-6.32,4.83-10.46,13-10.46,13l-4.69-3s-.37,6.18-6,13.59c-9.58,12.5-20.56,4.19-28.74,4.19Z" transform="translate(0)" fill="#212121"/><path d="M171.26,131.18c0-20.61-9.92-28-21.26-28v137c25.52,0,32.35-44.46,32.35-65.6S171.26,151.8,171.26,131.18Zm-6,50c-2,12.44-8.06,17.6-8.06,17.6s-2.25-11.93,2.13-18.75S167,158.7,167,158.7A141.46,141.46,0,0,1,165.21,181.18Z" transform="translate(0)" fill="#212121"/><path d="M186.4,190.66s5.61-9.95,5.61-26.18-9.11-24.66-9.11-24.66-1.37-22.85,2.32-28.95S188.4,94,188.4,94s7.41-3,9.41-8-1.74-5.35,4.38-12.11,9.92-10.31,9.92-.9S209,86.85,206.64,89.24s-5.42,2.19-5.42,8.76,1.1,6.9,5.8,3.29,8.06-8.06,9.15-11.34,2.32-8.83,2.32-8.83,2.13,1,2.13,22.7-5,50.17-12.8,63.23S186.4,190.66,186.4,190.66Z" transform="translate(0)" fill="#212121"/><path d="M225.64,84.53a18.81,18.81,0,0,0,1.47-4c.51-2.24,1-4.64,1-4.64a47.79,47.79,0,0,0,6.83,10.35,48.56,48.56,0,0,0,6.66,6.36,14.9,14.9,0,0,0,1.59,9.36,77.13,77.13,0,0,0,5.86,9.34l-5.22-3.41a27.67,27.67,0,0,1,4.13,14.43l-2.58-1.41s-.45,15.59,1,25.64a34.27,34.27,0,0,1-2,17.53l-1.25-4.26-6.65,9.07-.43-3.27s-5.78,7.48-8.42,25.84A275.37,275.37,0,0,1,216.92,237c-4.2,13.49-3.69,30.59-3.69,30.59a37.82,37.82,0,0,0-9.71,6.44,56.37,56.37,0,0,0-8.5,10.83l-2.24-2.58s-4.55,5-14,8-12.61,9-12.61,9a6.21,6.21,0,0,0-4.31-1.93C159.24,297.34,150,300,150,300V278.52c10.87,0,27.41-15.68,32.35-31.91s8.11-44.68,8.11-44.68,14.09-.68,27.75-16,20.11-43.21,20.11-57.3-10.14-45.19-10.14-45.19Z" transform="translate(0)" fill="#212121"/></g><g id="left"><path d="M150,.45c-10.24,0-29.73-3.67-49.57,10S76.19,32.77,74.67,33.69a9,9,0,0,1-3.63,1l5.42,5.05S74,40.68,74,52.28s1.55,15.46,4,18.64a66,66,0,0,0,4.72,5.41s0-6.53,2.75-10.74a28.72,28.72,0,0,1,6.87-7,21.89,21.89,0,0,0,7.71,11.94c6.32,4.83,10.46,13,10.46,13l4.69-3s.37,6.18,6.05,13.59c9.58,12.5,20.56,4.19,28.74,4.19Z" transform="translate(0)" fill="#212121"/><path d="M117.65,174.61c0,21.14,6.83,65.6,32.35,65.6v-137c-11.34,0-21.26,7.35-21.26,28S117.65,153.48,117.65,174.61ZM133,158.7s3.35,14.5,7.73,21.33,2.13,18.75,2.13,18.75-6.06-5.16-8.06-17.6A141.46,141.46,0,0,1,133,158.7Z" transform="translate(0)" fill="#212121"/><path d="M113.6,190.66S108,180.71,108,164.48s9.11-24.66,9.11-24.66,1.37-22.85-2.32-28.95S111.6,94,111.6,94s-7.41-3-9.41-8,1.74-5.35-4.38-12.11-9.92-10.31-9.92-.9S91,86.85,93.36,89.24s5.42,2.19,5.42,8.76-1.1,6.9-5.8,3.29S84.92,93.23,83.83,90s-2.32-8.83-2.32-8.83-2.13,1-2.13,22.7,5,50.17,12.8,63.23S113.6,190.66,113.6,190.66Z" transform="translate(0)" fill="#212121"/><path d="M74.36,84.53a18.81,18.81,0,0,1-1.47-4c-.51-2.24-1-4.64-1-4.64a47.79,47.79,0,0,1-6.83,10.35,48.56,48.56,0,0,1-6.66,6.36,14.9,14.9,0,0,1-1.59,9.36A77.13,77.13,0,0,1,51,111.27l5.22-3.41a27.67,27.67,0,0,0-4.13,14.43l2.58-1.41s.45,15.59-1,25.64a34.27,34.27,0,0,0,2,17.53l1.25-4.26,6.65,9.07.43-3.27s5.78,7.48,8.42,25.84A275.37,275.37,0,0,0,83.08,237c4.2,13.49,3.69,30.59,3.69,30.59A37.82,37.82,0,0,1,96.48,274a56.37,56.37,0,0,1,8.5,10.83l2.24-2.58s4.55,5,14,8,12.61,9,12.61,9a6.21,6.21,0,0,1,4.31-1.93c2.62,0,11.86,2.66,11.86,2.66V278.52c-10.87,0-27.41-15.68-32.35-31.91s-8.11-44.68-8.11-44.68-14.09-.68-27.75-16-20.11-43.21-20.11-57.3S71.82,83.46,71.82,83.46Z" transform="translate(0)" fill="#212121"/></g></g><g id="frame"><rect width="300" height="300" fill="none"/></g></svg>