<svg xmlns="http://www.w3.org/2000/svg" viewBox="0 0 30 30"><path d="M15,0a7.46,7.46,0,0,1,5,1,11.09,11.09,0,0,1,2.57,2.33.93.93,0,0,0,.37.1L22.35,4s.25.09.25,1.25-.15,1.54-.4,1.86a6.51,6.51,0,0,1-.47.54,2.26,2.26,0,0,0-.28-1.07,2.87,2.87,0,0,0-.69-.71A2.12,2.12,0,0,1,20,7.05a4.3,4.3,0,0,0-1,1.29l-.47-.29a2.76,2.76,0,0,1-.61,1.36c-.95,1.25-2.05.42-2.87.42Z" transform="translate(0)" fill="#212121"/><path d="M17.13,13.12c0-2.06-1-2.8-2.13-2.8V24c2.55,0,3.23-4.45,3.23-6.56S17.13,15.18,17.13,13.12Zm-.61,5a3,3,0,0,1-.8,1.76A3.11,3.11,0,0,1,15.93,18a8.76,8.76,0,0,0,.77-2.13A14.07,14.07,0,0,1,16.52,18.12Z" transform="translate(0)" fill="#212121"/><path d="M18.64,19.07a5.77,5.77,0,0,0,.56-2.62A3.47,3.47,0,0,0,18.29,14a8.57,8.57,0,0,1,.23-2.89,3.66,3.66,0,0,0,.32-1.69,1.93,1.93,0,0,0,.94-.79c.2-.49-.17-.54.44-1.21s1-1,1-.09a2.07,2.07,0,0,1-.55,1.61c-.23.24-.54.22-.54.88s.11.69.58.33A2.74,2.74,0,0,0,21.62,9c.11-.32.23-.88.23-.88s.21.1.21,2.27a14.92,14.92,0,0,1-1.28,6.33A10.12,10.12,0,0,1,18.64,19.07Z" transform="translate(0)" fill="#212121"/><path d="M22.56,8.45a1.7,1.7,0,0,0,.15-.4c.05-.22.1-.46.1-.46a4.69,4.69,0,0,0,.68,1,4.37,4.37,0,0,0,.67.64,1.46,1.46,0,0,0,.16.93,7,7,0,0,0,.58.94l-.52-.34a3.32,3.32,0,0,1,.32.72,3.44,3.44,0,0,1,.09.72l-.25-.14a19.09,19.09,0,0,0,.09,2.56,3.42,3.42,0,0,1-.2,1.75L24.31,16l-.67.91,0-.33a5.84,5.84,0,0,0-.84,2.58,28.25,28.25,0,0,1-1.07,4.56,11.06,11.06,0,0,0-.37,3.06,3.78,3.78,0,0,0-1,.64,5.85,5.85,0,0,0-.85,1.08l-.22-.25a3.48,3.48,0,0,1-1.4.79,2.17,2.17,0,0,0-1.26.91.62.62,0,0,0-.43-.2A8.1,8.1,0,0,0,15,30V27.85c1.09,0,2.74-1.57,3.23-3.19a31.89,31.89,0,0,0,.82-4.47,4.39,4.39,0,0,0,2.77-1.59,10,10,0,0,0,2-5.73,22.16,22.16,0,0,0-1-4.52Z" transform="translate(0)" fill="#212121"/><path d="M15,0a7.46,7.46,0,0,0-5,1A11.09,11.09,0,0,0,7.47,3.37a.93.93,0,0,1-.37.1L7.65,4s-.25.09-.25,1.25.15,1.54.4,1.86a6.51,6.51,0,0,0,.47.54,2.26,2.26,0,0,1,.28-1.07,2.87,2.87,0,0,1,.69-.71A2.12,2.12,0,0,0,10,7.05a4.3,4.3,0,0,1,1,1.29l.47-.29a2.76,2.76,0,0,0,.61,1.36c.95,1.25,2,.42,2.87.42Z" transform="translate(0)" fill="#212121"/><path d="M11.77,17.46c0,2.11.68,6.56,3.23,6.56V10.32c-1.13,0-2.13.74-2.13,2.8S11.77,15.35,11.77,17.46Zm1.53-1.59A8.76,8.76,0,0,0,14.07,18a3.11,3.11,0,0,1,.21,1.88,3,3,0,0,1-.8-1.76A14.07,14.07,0,0,1,13.3,15.87Z" transform="translate(0)" fill="#212121"/><path d="M11.36,19.07a5.77,5.77,0,0,1-.56-2.62A3.47,3.47,0,0,1,11.71,14a8.57,8.57,0,0,0-.23-2.89,3.66,3.66,0,0,1-.32-1.69,1.93,1.93,0,0,1-.94-.79c-.2-.49.17-.54-.44-1.21s-1-1-1-.09a2.07,2.07,0,0,0,.55,1.61c.23.24.54.22.54.88s-.11.69-.58.33A2.74,2.74,0,0,1,8.38,9c-.11-.32-.23-.88-.23-.88s-.21.1-.21,2.27a14.92,14.92,0,0,0,1.28,6.33A10.12,10.12,0,0,0,11.36,19.07Z" transform="translate(0)" fill="#212121"/><path d="M7.44,8.45a1.7,1.7,0,0,1-.15-.4l-.1-.46a4.69,4.69,0,0,1-.68,1,4.37,4.37,0,0,1-.67.64,1.46,1.46,0,0,1-.16.93,7,7,0,0,1-.58.94l.52-.34a3.32,3.32,0,0,0-.32.72,3.44,3.44,0,0,0-.09.72l.25-.14a19.09,19.09,0,0,1-.09,2.56,3.42,3.42,0,0,0,.2,1.75L5.69,16l.67.91,0-.33a5.84,5.84,0,0,1,.84,2.58A28.25,28.25,0,0,0,8.31,23.7a11.06,11.06,0,0,1,.37,3.06,3.78,3.78,0,0,1,1,.64,5.85,5.85,0,0,1,.85,1.08l.22-.25a3.48,3.48,0,0,0,1.4.79,2.17,2.17,0,0,1,1.26.91.62.62,0,0,1,.43-.2A8.1,8.1,0,0,1,15,30V27.85c-1.09,0-2.74-1.57-3.23-3.19A31.89,31.89,0,0,1,11,20.19,4.39,4.39,0,0,1,8.18,18.6a10,10,0,0,1-2-5.73,22.16,22.16,0,0,1,1-4.52Z" transform="translate(0)" fill="#212121"/><rect width="30" height="30" fill="none"/></svg>