<!-- Copyright (c) 2022 - 2023 Jan Stehno -->
<svg xmlns="http://www.w3.org/2000/svg" viewBox="0 0 300 300"><title>capebuffalo</title><g id="capebuffalo"><g id="horn_right" data-name="horn right"><path d="M197.06,125.21c9.71-10.06,21.51,18,54.42,20,23,1.34,33.83-8.41,41.14-18.29s8.91-23.81,6-35.24c-1.29-5.13-6.23-14.28-9.2-17.23a2,2,0,0,0-3.31,2.27c3.09,7,7.45,17.75,4.81,25.93-3.54,10.93-7.37,17.87-23,20.34-9.29,1.47-27.81-3.33-40.59-20.57C215.55,86.49,199.65,80.85,187.67,77c-7.08-2.29-24-2.29-36.57-2.29Z" transform="translate(0)" fill="#212121"/></g><g id="horn_left" data-name="horn left"><path d="M102.94,125.21c-9.71-10.06-21.51,18-54.42,20-23,1.34-33.83-8.41-41.14-18.29s-8.91-23.81-6-35.24c1.29-5.13,6.23-14.28,9.2-17.23a2,2,0,0,1,3.31,2.27c-3.09,7-7.45,17.75-4.81,25.93,3.54,10.93,7.37,17.87,23,20.34,9.29,1.47,27.81-3.33,40.59-20.57C84.45,86.49,100.35,80.85,112.33,77c7.08-2.29,24-2.29,36.57-2.29Z" transform="translate(0)" fill="#212121"/></g><g id="head_right" data-name="head right"><path d="M181.81,121.32c8.14,0,11.59,1.63,15.25,3.89,4.53-11,3.8-30.95-3.18-39.55-7.13-8.78-11.52-11-42.78-11V218.13c14.26,0,18.56,0,22.58-4.29s6-7.63,5.68-12.53c-.18-2.47-1.75-6.21-7.14-10.15,7.86.87,9,1.65,10.74,3.71,11.11-18.29,13.67-46.13,13.67-53.53s-5.77-14.45-11.25-15.09c-9.39-1.09-14,1.44-18.38,4.05C171.53,123.24,177.29,121.32,181.81,121.32Zm-.17,31.46a1.29,1.29,0,0,1-1.19-1.7c.17-.79,1-.73,1.52-.76a1.11,1.11,0,0,1,1.18,1.21C183.17,152.1,182.15,152.78,181.64,152.78Zm10.27-11c-.28,2-1.14,4.83-3.74,5.94a27.74,27.74,0,0,1-6.52,1.45,1,1,0,0,1-.87-1.51,28.79,28.79,0,0,1,3.14-3.51,20.63,20.63,0,0,1,6-3.89A1.45,1.45,0,0,1,191.91,141.8Zm-12.86-6.18c4.14-2.58,7.41-2.57,10.36-.4a1.49,1.49,0,0,1-.44,2.61c-3.52,1.14-4.36,2.13-6.33,4s-3.44,2.27-5,5.47a1.11,1.11,0,0,1-2,.07C173.27,143,175.15,138.06,179.05,135.62Zm-25.83,58.29v-4.4c5.15,0,12.82.79,12.82.79S155.35,190.48,153.22,193.91Zm19.28,10.33c-.12,2.5-1.74,7.4-5.58,7.77s-4.21.22-4.72-1.89a6.8,6.8,0,0,1,4-8C170.58,200.31,172.59,202.53,172.5,204.24Z" transform="translate(0)" fill="#212121"/><path d="M199.4,152.51c2.77-8.61.3-23.33.3-23.33,5.21,2.56,33.82,27.33,40.8,43.3,3,6.79,4,18.46-1.58,21.34s-33.28-1.6-47-10.79c2.19-2,5.3-4.3,5.76-11.25a83.35,83.35,0,0,0-.1-11.61c5,2,7.59,2.47,10,11.43-2-14.35,23,5.33,26.56,11.84-.14-8.37-6.31-14.13-14.81-20.71C211,156.29,202.69,152.65,199.4,152.51Z" transform="translate(0)" fill="#212121"/><path d="M150,222.11c4.11,0,10.22,0,12.48.58,0,3.53-9.46,3.53-12.48,3.53Z" transform="translate(0)" fill="#212121"/></g><g id="head_left" data-name="head left"><path d="M133,130.3c-4.39-2.61-9-5.14-18.38-4.05-5.48.64-11.25,7.68-11.25,15.09s2.56,35.24,13.67,53.53c1.74-2.06,2.88-2.84,10.74-3.71-5.39,3.94-7,7.68-7.14,10.15-.37,4.9,1.53,8.08,5.68,12.53s8.32,4.29,22.58,4.29V74.69c-31.26,0-35.65,2.19-42.78,11-7,8.6-7.71,28.58-3.18,39.55,3.66-2.26,7.11-3.89,15.24-3.89C122.71,121.32,128.47,123.24,133,130.3Zm-16.15,21.23a1.11,1.11,0,0,1,1.18-1.21c.51,0,1.35,0,1.52.76a1.29,1.29,0,0,1-1.19,1.7C117.85,152.78,116.83,152.1,116.85,151.53Zm-6.74-11.25a20.63,20.63,0,0,1,6,3.89,28.79,28.79,0,0,1,3.14,3.51,1,1,0,0,1-.88,1.51,27.77,27.77,0,0,1-6.51-1.45c-2.6-1.11-3.46-3.92-3.74-5.94A1.45,1.45,0,0,1,110.11,140.28Zm14.24,7.08a1.11,1.11,0,0,1-2-.07c-1.58-3.2-3-3.54-5-5.47s-2.81-2.85-6.33-4a1.49,1.49,0,0,1-.44-2.61c3-2.17,6.22-2.18,10.36.4C124.85,138.06,126.73,143,124.35,147.36ZM134,190.3s7.67-.79,12.82-.79v4.4C144.65,190.48,134,190.3,134,190.3Zm-.15,11.83a6.8,6.8,0,0,1,4,8c-.51,2.11-.88,2.25-4.72,1.89s-5.46-5.27-5.58-7.77C127.41,202.53,129.42,200.31,133.81,202.13Z" transform="translate(0)" fill="#212121"/><path d="M100.6,152.51c-2.77-8.61-.3-23.33-.3-23.33-5.21,2.56-33.82,27.33-40.8,43.3-3,6.79-4,18.46,1.58,21.34s33.28-1.6,47-10.79c-2.19-2-5.3-4.3-5.76-11.25a84.33,84.33,0,0,1,.09-11.61c-5,2-7.58,2.47-10,11.43,2-14.35-23,5.33-26.56,11.84.14-8.37,6.31-14.13,14.81-20.71C89,156.29,97.31,152.65,100.6,152.51Z" transform="translate(0)" fill="#212121"/><path d="M150,222.11c-4.11,0-10.22,0-12.48.58,0,3.53,9.46,3.53,12.48,3.53Z" transform="translate(0)" fill="#212121"/></g></g><g id="frame"><rect width="300" height="300" fill="none"/></g></svg>