<svg xmlns="http://www.w3.org/2000/svg" viewBox="0 0 30 30"><path d="M19.71,12.52c1-1,2.15,1.81,5.44,2a4.28,4.28,0,0,0,4.11-1.83,4.33,4.33,0,0,0,.6-3.53,5.13,5.13,0,0,0-.92-1.72.2.2,0,0,0-.33.23,4,4,0,0,1,.48,2.59,2.45,2.45,0,0,1-2.3,2,4.74,4.74,0,0,1-4.06-2.06,7.33,7.33,0,0,0-4-2.54,16.83,16.83,0,0,0-3.66-.23Z" fill="#212121"/><path d="M10.29,12.52c-1-1-2.15,1.81-5.44,2A4.28,4.28,0,0,1,.74,12.69a4.33,4.33,0,0,1-.6-3.53,5.13,5.13,0,0,1,.92-1.72.2.2,0,0,1,.33.23,4,4,0,0,0-.48,2.59,2.45,2.45,0,0,0,2.3,2,4.74,4.74,0,0,0,4.06-2.06,7.33,7.33,0,0,1,4-2.54,16.83,16.83,0,0,1,3.66-.23Z" fill="#212121"/><path d="M18.18,12.13a2.47,2.47,0,0,1,1.53.39,4.71,4.71,0,0,0-.32-3.95c-.71-.88-1.15-1.1-4.28-1.1V21.81c1.43,0,1.86,0,2.26-.43a1.57,1.57,0,0,0,.57-1.25,1.48,1.48,0,0,0-.72-1c.79.08.9.16,1.08.37a12.37,12.37,0,0,0,1.36-5.36,1.53,1.53,0,0,0-1.12-1.5,2.55,2.55,0,0,0-1.84.4A1.73,1.73,0,0,1,18.18,12.13Zm0,3.15c-.1,0-.13-.09-.11-.17s.1-.07.15-.08a.12.12,0,0,1,.12.12C18.32,15.21,18.22,15.28,18.16,15.28Zm1-1.1a.71.71,0,0,1-.37.59,2.45,2.45,0,0,1-.65.15.09.09,0,0,1-.09-.15,3.12,3.12,0,0,1,.31-.35A1.82,1.82,0,0,1,19,14,.14.14,0,0,1,19.19,14.18Zm-1.28-.62a.84.84,0,0,1,1,0,.15.15,0,0,1,0,.26,1.41,1.41,0,0,0-.64.4c-.2.19-.34.23-.5.55a.11.11,0,0,1-.2,0A.89.89,0,0,1,17.91,13.56Zm-2.59,5.83V19c.52,0,1.28.08,1.28.08S15.53,19.05,15.32,19.39Zm1.93,1c0,.25-.17.74-.56.78s-.42,0-.47-.19a.69.69,0,0,1,.4-.8C17.06,20,17.26,20.25,17.25,20.42Z" fill="#212121"/><path d="M19.94,15.25a6.27,6.27,0,0,0,0-2.33,14.71,14.71,0,0,1,4.08,4.33c.3.68.4,1.84-.16,2.13s-3.33-.16-4.7-1.08a1.42,1.42,0,0,0,.58-1.12,8.32,8.32,0,0,0,0-1.16c.5.2.76.24,1,1.14-.21-1.44,2.3.53,2.65,1.18,0-.83-.63-1.41-1.48-2.07A4.91,4.91,0,0,0,19.94,15.25Z" fill="#212121"/><path d="M15,22.21a7.54,7.54,0,0,1,1.25.06c0,.35-.95.35-1.25.35Z" fill="#212121"/><path d="M13.3,13a2.55,2.55,0,0,0-1.84-.4,1.53,1.53,0,0,0-1.12,1.5,12.37,12.37,0,0,0,1.36,5.36c.18-.21.29-.29,1.08-.37a1.48,1.48,0,0,0-.72,1,1.57,1.57,0,0,0,.57,1.25c.4.43.83.43,2.26.43V7.47c-3.13,0-3.57.22-4.28,1.1a4.71,4.71,0,0,0-.32,3.95,2.47,2.47,0,0,1,1.53-.39A1.73,1.73,0,0,1,13.3,13Zm-1.62,2.12A.12.12,0,0,1,11.8,15s.14,0,.15.08,0,.17-.11.17S11.68,15.21,11.68,15.15ZM11,14a1.82,1.82,0,0,1,.6.39,3.12,3.12,0,0,1,.31.35.09.09,0,0,1-.09.15,2.45,2.45,0,0,1-.65-.15.71.71,0,0,1-.37-.59A.14.14,0,0,1,11,14Zm1.43.71a.11.11,0,0,1-.2,0c-.16-.32-.3-.36-.5-.55a1.41,1.41,0,0,0-.64-.4.15.15,0,0,1,0-.26.84.84,0,0,1,1,0A.89.89,0,0,1,12.44,14.74Zm1,4.29s.76-.08,1.28-.08v.44C14.47,19.05,13.4,19,13.4,19Zm0,1.18a.69.69,0,0,1,.4.8c0,.21-.09.23-.47.19s-.55-.53-.56-.78S12.94,20,13.38,20.21Z" fill="#212121"/><path d="M10.06,15.25a6.27,6.27,0,0,1,0-2.33A14.71,14.71,0,0,0,6,17.25c-.3.68-.4,1.84.16,2.13s3.33-.16,4.7-1.08a1.42,1.42,0,0,1-.58-1.12,8.32,8.32,0,0,1,0-1.16c-.5.2-.76.24-1,1.14.21-1.44-2.3.53-2.65,1.18,0-.83.63-1.41,1.48-2.07A4.91,4.91,0,0,1,10.06,15.25Z" fill="#212121"/><path d="M15,22.21a7.54,7.54,0,0,0-1.25.06c0,.35.95.35,1.25.35Z" fill="#212121"/><rect width="30" height="30" fill="none"/></svg>