<svg xmlns="http://www.w3.org/2000/svg" viewBox="0 0 30 30"><path d="M15,26.8c.26,0,1.43.25,1.43.44s-.86.4-1.43.4Z" fill="#212121"/><path d="M25.79,12.52c-.13.13-.27.86-.15,1a12.2,12.2,0,0,0,2.8-1.31,5.14,5.14,0,0,0,1.55-3,12.71,12.71,0,0,0-.56-3.95C29,3.69,28.18,3,28.18,1.87A7,7,0,0,1,28.45.32c-.1-.1-.46.13-.73.8s-.34.87-.6.87-1.51-.93-2.74-.93-1.45.27-1.45.39.32,0,1.08,0a4.57,4.57,0,0,1,3.16,1.46c1.1,1.13,1,2,.79,2.23s-2,0-1.21.36a3.05,3.05,0,0,1,2.34,2.92,3.48,3.48,0,0,1-1.76,3.37C26.48,12.24,25.9,12.41,25.79,12.52Z" fill="#212121"/><path d="M19,22A2,2,0,0,0,18.53,23,1.3,1.3,0,0,1,18,24.11a2,2,0,0,0-.58,1.31,3.65,3.65,0,0,1-.43,1.5c-.22.3-.15.63-.34.84a1.27,1.27,0,0,1-.44.31.88.88,0,0,0,.17-.22.55.55,0,0,0,0-.23s-1,.56-1,.86-.4.43-.4.43v.79a8.73,8.73,0,0,1,.72-.72,2.3,2.3,0,0,1,.56-.37l0,.28a1.17,1.17,0,0,0,.24-.27l.18-.28,0,.17a.91.91,0,0,0,.22-.4c.06-.23.51-.5.53-.69a1.27,1.27,0,0,1,.08-.3l.16.21a4.36,4.36,0,0,1-.05-.51c0-.19.24-.32.33-.32a.83.83,0,0,1,.22,0,1.72,1.72,0,0,1,0-.25c0-.12.14-.21.14-.21l.27.26a.8.8,0,0,1,.09-.64,3.68,3.68,0,0,0,.38-.9l.35.11a2.72,2.72,0,0,1-.47-1,1,1,0,0,1,.15-.54,1.64,1.64,0,0,1-.22-.68A4.22,4.22,0,0,1,19,22Z" fill="#212121"/><path d="M24.77,8.13c-.35-.22-.41-.1-.14.11a1.51,1.51,0,0,1,.5,1.14c0,.48-.28,1-.43,1s-.2-.12-.34-.4A2.07,2.07,0,0,0,23,9.13a2.48,2.48,0,0,1-1.43-1c0-.18-.24-.22-.24,0a1.64,1.64,0,0,0,.85,1.23c.65.35.58.56-.15.56s-.87-.57-1.07-.57-.14.44.28.76,1.59.25,2.33.73a1.7,1.7,0,0,1,.88,1.54,3.3,3.3,0,0,1-.26,1.59,1.63,1.63,0,0,1-1.44,1c-.48,0-.87,0-.87-.15s.64-.24,1.47-.51a1,1,0,0,0,.78-1c-.12-.1-.44.06-1.33.43s-3.22.82-4.22,1.11-1.85,1.53-2.09,1.69-1.14,0-1.21.11S15.24,18,15,18V26.6a10.78,10.78,0,0,1,1.54.41c.22,0,.31-.15.31-.34s-.11-.11-.11-.44.43-.62.43-1.36a5.42,5.42,0,0,0-1-2.09,3.09,3.09,0,0,1,.75.89,3.61,3.61,0,0,1,.46,1.14s0-.13.17-.58a5.31,5.31,0,0,0,.12-1.11l.18.27a2.27,2.27,0,0,0,.14-.3A2.58,2.58,0,0,0,18.14,22a2.8,2.8,0,0,1,.27-1.13c0-.11,0-.14-.11-.14s-.21.56-.23,1a2.36,2.36,0,0,1-.13.68s0-.39,0-.66a1.47,1.47,0,0,0-.08-.47.86.86,0,0,1-.18.15.7.7,0,0,1-.23.09s.28-.28.51-.57a2.4,2.4,0,0,0,.42-.83c0-.08,0-.18-.1-.18s-.13.09-.21.4a.59.59,0,0,1-.52.49.62.62,0,0,1-.36-.11c.27-.78.56-1.08.7-1.08a1.5,1.5,0,0,1,.35.06.73.73,0,0,1-.32-.64,1.7,1.7,0,0,1,.23-.83,2.35,2.35,0,0,0-.1.58c0,.25.67.78.67.95a2.73,2.73,0,0,1-.3.69s.81-1,1.14-1,.55-.08,1-.66a3.54,3.54,0,0,0,.65-1.69c0-.17-.14-.17-1.07-.17a2.17,2.17,0,0,0-1.22.23v-.2a5.2,5.2,0,0,1-1,.43c-.19,0-.3.11-.53.42a1.06,1.06,0,0,0-.16.7L17,18.35a1.91,1.91,0,0,1,.28.56c0,.14,0,.07-.34.34a3.71,3.71,0,0,0-.59,1.07,3,3,0,0,1,.08-.58,2.08,2.08,0,0,1,.31-.55l-.41,0s.45-.26.45-.43-.27-.2-.27-.35.48-.58.48-.71-.15-.21-.53-.21a1.92,1.92,0,0,0-.6.08.89.89,0,0,1,.69-.28,1.57,1.57,0,0,1,.65.15c.12,0,.35-.4.89-1a3.38,3.38,0,0,1,2.36-1c.8,0,.93.18,2.19.18a2.86,2.86,0,0,0,2.45-1.52,5.48,5.48,0,0,0,.31-2.36c0-1.06.21-1,.21-1.83A2.25,2.25,0,0,0,24.77,8.13ZM18.85,18.32a.28.28,0,0,0,.23-.11l-.14-.06a.71.71,0,0,1,.12-.2,1.15,1.15,0,0,1,.4-.23h-.28a.48.48,0,0,1-.22,0,1.68,1.68,0,0,1,.6-.32,2.3,2.3,0,0,1,1.25-.07c.07.07-.22.22-.22.61s-.59,1.26-1.2,1.26-.88-1-.88-1A.75.75,0,0,0,18.85,18.32Zm-2.54,6.55a2.44,2.44,0,0,0,.4-.94A4,4,0,0,1,17,25a.91.91,0,0,1-.82.84c-.44,0-.4-.17-.4-.34C15.75,25.15,16,25.25,16.31,24.87Z" fill="#212121"/><path d="M15,26.8c-.26,0-1.43.25-1.43.44s.86.4,1.43.4Z" fill="#212121"/><path d="M4.21,12.52c.13.13.27.86.15,1a12.2,12.2,0,0,1-2.8-1.31A5.14,5.14,0,0,1,0,9.23,12.71,12.71,0,0,1,.57,5.28C1,3.69,1.82,3,1.82,1.87A7,7,0,0,0,1.55.32c.1-.1.46.13.73.8s.34.87.6.87,1.51-.93,2.74-.93,1.45.27,1.45.39-.32,0-1.08,0A4.57,4.57,0,0,0,2.83,2.91c-1.1,1.13-1,2-.79,2.23s2,0,1.21.36A3.05,3.05,0,0,0,.91,8.42a3.48,3.48,0,0,0,1.76,3.37C3.52,12.24,4.1,12.41,4.21,12.52Z" fill="#212121"/><path d="M11.05,22A2,2,0,0,1,11.47,23,1.3,1.3,0,0,0,12,24.11a2,2,0,0,1,.58,1.31,3.65,3.65,0,0,0,.43,1.5c.22.3.15.63.34.84a1.27,1.27,0,0,0,.44.31.88.88,0,0,1-.17-.22.55.55,0,0,1,0-.23s1,.56,1,.86.4.43.4.43v.79a8.73,8.73,0,0,0-.72-.72,2.3,2.3,0,0,0-.56-.37l0,.28a1.17,1.17,0,0,1-.24-.27l-.18-.28,0,.17a.91.91,0,0,1-.22-.4c-.06-.23-.51-.5-.53-.69a1.27,1.27,0,0,0-.08-.3l-.16.21a4.36,4.36,0,0,0,0-.51c0-.19-.24-.32-.33-.32a.83.83,0,0,0-.22,0,1.72,1.72,0,0,0,0-.25c0-.12-.14-.21-.14-.21l-.27.26a.8.8,0,0,0-.09-.64,3.68,3.68,0,0,1-.38-.9l-.35.11a2.72,2.72,0,0,0,.47-1,1,1,0,0,0-.15-.54,1.64,1.64,0,0,0,.22-.68A4.22,4.22,0,0,0,11.05,22Z" fill="#212121"/><path d="M14.7,16.6c-.07-.07-1,0-1.21-.11s-1.08-1.4-2.09-1.69-3.32-.75-4.22-1.11S6,13.16,5.85,13.26a1,1,0,0,0,.78,1c.83.27,1.47.38,1.47.51s-.39.15-.87.15a1.63,1.63,0,0,1-1.44-1,3.3,3.3,0,0,1-.26-1.59,1.7,1.7,0,0,1,.88-1.54c.74-.48,1.9-.41,2.33-.73s.48-.76.28-.76-.34.57-1.07.57-.8-.21-.15-.56a1.64,1.64,0,0,0,.85-1.23c0-.22-.24-.18-.24,0A2.48,2.48,0,0,1,7,9.13a2.07,2.07,0,0,0-1.34.9c-.14.28-.18.4-.34.4s-.43-.57-.43-1a1.51,1.51,0,0,1,.5-1.14c.27-.21.21-.33-.14-.11a2.25,2.25,0,0,0-.87,1.79c0,.87.21.77.21,1.83a5.48,5.48,0,0,0,.31,2.36,2.86,2.86,0,0,0,2.45,1.52c1.26,0,1.39-.18,2.19-.18a3.38,3.38,0,0,1,2.36,1c.54.63.77,1,.89,1a1.57,1.57,0,0,1,.65-.15.89.89,0,0,1,.69.28,1.92,1.92,0,0,0-.6-.08c-.38,0-.53.08-.53.21s.48.56.48.71-.27.18-.27.35.45.43.45.43l-.41,0a2.08,2.08,0,0,1,.31.55,3,3,0,0,1,.08.58A3.71,3.71,0,0,0,13,19.25c-.3-.27-.34-.2-.34-.34a1.91,1.91,0,0,1,.28-.56l-.26.13a1.06,1.06,0,0,0-.16-.7c-.23-.31-.34-.42-.53-.42a5.2,5.2,0,0,1-1-.43v.2A2.17,2.17,0,0,0,9.8,16.9c-.93,0-1.07,0-1.07.17a3.54,3.54,0,0,0,.65,1.69c.49.58.71.66,1,.66s1.14,1,1.14,1a2.73,2.73,0,0,1-.3-.69c0-.17.67-.7.67-.95a2.35,2.35,0,0,0-.1-.58,1.7,1.7,0,0,1,.23.83.73.73,0,0,1-.32.64,1.5,1.5,0,0,1,.35-.06c.14,0,.43.3.7,1.08a.62.62,0,0,1-.36.11.59.59,0,0,1-.52-.49c-.08-.31-.11-.4-.21-.4s-.1.1-.1.18a2.4,2.4,0,0,0,.42.83c.23.29.51.57.51.57a.7.7,0,0,1-.23-.09.86.86,0,0,1-.18-.15,1.47,1.47,0,0,0-.08.47c0,.27,0,.66,0,.66a2.36,2.36,0,0,1-.13-.68c0-.4-.1-1-.23-1s-.11,0-.11.14A2.8,2.8,0,0,1,11.86,22,2.58,2.58,0,0,0,12,23.09a2.27,2.27,0,0,0,.14.3l.18-.27a5.31,5.31,0,0,0,.12,1.11c.12.45.17.58.17.58A3.61,3.61,0,0,1,13,23.67a3.09,3.09,0,0,1,.75-.89,5.42,5.42,0,0,0-1,2.09c0,.74.43,1,.43,1.36s-.11.25-.11.44.09.34.31.34A10.78,10.78,0,0,1,15,26.6V18C14.76,18,14.78,16.68,14.7,16.6Zm-4.09,2.56c-.61,0-1.2-.86-1.2-1.26s-.29-.54-.22-.61a2.3,2.3,0,0,1,1.25.07,1.68,1.68,0,0,1,.6.32.48.48,0,0,1-.22,0h-.28a1.15,1.15,0,0,1,.4.23.71.71,0,0,1,.12.2l-.14.06a.28.28,0,0,0,.23.11.75.75,0,0,0,.34-.12S11.23,19.16,10.61,19.16Zm3.24,6.67A.91.91,0,0,1,13,25a4,4,0,0,1,.26-1.06,2.44,2.44,0,0,0,.4.94c.29.38.56.28.56.62C14.25,25.66,14.29,25.83,13.85,25.83Z" fill="#212121"/><rect width="30" height="30" fill="none"/></svg>