<!-- Copyright (c) 2022 - 2023 Jan Stehno -->
<svg xmlns="http://www.w3.org/2000/svg" viewBox="0 0 300 300"><title>caribou</title><g id="caribou"><g id="right"><path d="M150,268c2.59,0,14.26,2.49,14.26,4.39,0,1.45-8.56,4-14.26,4Z" transform="translate(0)" fill="#212121"/><path d="M257.87,125.24c-1.27,1.26-2.62,8.56-1.43,9.76s24.54-10.41,28-13.08,15-17.1,15.49-29.67-1.45-23.48-5.67-39.43S281.83,30,281.83,18.7s3.59-14.57,2.63-15.54-4.56,1.39-7.25,8-3.46,8.71-6,8.71-15.13-9.26-27.42-9.26-14.5,2.7-14.5,3.87,3.25,0,10.77,0,20.72,3.25,31.68,14.57,9.94,20.26,7.82,22.38-20.37.27-12.08,3.52,23.41,9.6,23.41,29.28-9,29.07-17.54,33.63S259,124.09,257.87,125.24Z" transform="translate(0)" fill="#212121"/><path d="M189.46,219.46s-4.14,5.38-4.14,10.49-1.17,7.25-5.14,11.19a20.13,20.13,0,0,0-5.77,13c0,3.45-2.14,12.12-4.31,15.09s-1.45,6.25-3.42,8.39a13.54,13.54,0,0,1-4.39,3.11,8.36,8.36,0,0,0,1.66-2.28,4.59,4.59,0,0,0,.45-2.32S154,281.84,154,284.76s-4,4.35-4,4.35V297a78.77,78.77,0,0,1,7.22-7.21,22,22,0,0,1,5.59-3.7l-.41,2.8a15.74,15.74,0,0,0,2.45-2.73l1.72-2.79.28,1.69a9.3,9.3,0,0,0,2.28-4c.55-2.31,5-5,5.32-6.9a14,14,0,0,1,.72-3l1.66,2.11a37.71,37.71,0,0,1-.56-5.05c0-1.92,2.46-3.2,3.38-3.2a9.52,9.52,0,0,1,2.12.34,18.17,18.17,0,0,1-.19-2.44c0-1.22,1.41-2.09,1.41-2.09l2.69,2.55a7.91,7.91,0,0,1,1-6.44c2.07-2.87,3.76-8.95,3.76-8.95l3.52,1.07s-4.76-6.56-4.76-9.94a9.32,9.32,0,0,1,1.59-5.42S188.5,230,188.5,227A45.57,45.57,0,0,1,189.46,219.46Z" transform="translate(0)" fill="#212121"/><path d="M247.72,81.27c-3.52-2.14-4.08-1-1.38,1.17s5,6.5,5,11.33-2.76,10.57-4.35,10.57-2-1.25-3.32-4.08-6.28-7.11-13.46-9-14.3-8.7-14.3-10.42-2.41-2.15-2.41,0,2,8.83,8.49,12.36,5.87,5.59-1.45,5.59-8.7-5.73-10.7-5.73-1.45,4.42,2.83,7.6,15.81,2.48,23.27,7.32,8.84,10.63,8.84,15.4.34,9-2.69,15.88a16.21,16.21,0,0,1-14.35,9.85c-4.78,0-8.7-.32-8.7-1.56s6.38-2.42,14.74-5c7.27-2.27,8.41-9.49,7.78-10-1.22-1-4.42.69-13.35,4.33S196,145.08,186,148s-18.42,15.33-20.84,16.92-11.39.38-12.15,1.14-.55,14.33-3,14.33V266c5.25,0,13.19,4.15,15.4,4.15s3.11-1.59,3.11-3.46-1.11-1.1-1.11-4.42,4.28-6.14,4.28-13.6-9.62-20.9-9.62-20.9a31.91,31.91,0,0,1,7.55,8.93,36.92,36.92,0,0,1,4.56,11.37,53.49,53.49,0,0,0,1.75-5.75,51.82,51.82,0,0,0,1.15-11.15l1.8,2.72a16.28,16.28,0,0,0,1.42-2.95c.88-2.16,1.16-3.82,1.16-10.91s2.62-10.22,2.62-11.32.14-1.38-1.11-1.38-2.07,5.57-2.25,9.57a23,23,0,0,1-1.29,6.77s.28-3.91.23-6.54a15.89,15.89,0,0,0-.85-4.75,10.59,10.59,0,0,1-1.76,1.55,9.53,9.53,0,0,1-2.35.9s2.76-2.87,5.07-5.77,4.22-7.35,4.22-8.21.1-1.83-.94-1.83-1.34.93-2.1,3.93-3,5-5.25,5a6,6,0,0,1-3.57-1.08c2.7-7.8,5.55-10.79,7-10.79a17.39,17.39,0,0,1,3.46.5,7.07,7.07,0,0,1-3.23-6.35,17.12,17.12,0,0,1,2.35-8.33,23.47,23.47,0,0,0-1,5.8c0,2.57,6.72,7.87,6.72,9.53s-3,7-3,7,8.05-10,11.37-10,5.48-.78,10.36-6.59,6.49-15.23,6.49-16.89S211.28,169,202,169s-12.24,2.31-12.24,2.31v-1.94s-8.06,4.28-10,4.28-3,1.06-5.25,4.19a10.25,10.25,0,0,0-1.61,7l-2.58-1.33s2.78,4.14,2.78,5.59-.48.76-3.47,3.48-5.89,10.63-5.89,10.63a29.61,29.61,0,0,1,.87-5.8,19.5,19.5,0,0,1,3-5.52l-4.05.55s4.51-2.63,4.51-4.33-2.76-2-2.76-3.5,4.83-5.8,4.83-7.09-1.47-2.12-5.29-2.12a18.71,18.71,0,0,0-6,.83,8.94,8.94,0,0,1,6.9-2.81c4.7,0,5.39,1.48,6.54,1.48s3.5-4,8.88-10.22,15.47-10.18,23.55-10.18,9.33,1.8,21.9,1.8,21.68-9.05,24.58-15.2,3-13,3-23.61,2.14-9.6,2.14-18.3S251.24,83.41,247.72,81.27ZM188.49,183.15a2.91,2.91,0,0,0,2.3-1l-1.43-.64a8.33,8.33,0,0,1,1.25-2c.92-1.15,4-2.3,4-2.3s-1.24.05-2.76.05a4.56,4.56,0,0,1-2.21-.42s1.38-1.47,6-3.18,11.8-1.4,12.47-.73-2.16,2.16-2.16,6.12-5.89,12.57-12.06,12.57-8.75-9.58-8.75-9.58A7.57,7.57,0,0,0,188.49,183.15ZM163.12,248.7c3-3.76,4-9.39,4-9.39s2.63,6.7,2.63,10.57-3.87,8.46-8.22,8.46-4-1.73-4-3.46C157.49,251.47,160.15,252.47,163.12,248.7Z" transform="translate(0)" fill="#212121"/></g><g id="left"><path d="M150,268c-2.59,0-14.26,2.49-14.26,4.39,0,1.45,8.56,4,14.26,4Z" transform="translate(0)" fill="#212121"/><path d="M42.13,125.24c1.27,1.26,2.62,8.56,1.43,9.76s-24.54-10.41-28-13.08S.56,104.82.07,92.25,1.52,68.77,5.74,52.82,18.17,30,18.17,18.7,14.58,4.13,15.54,3.16s4.56,1.39,7.25,8,3.46,8.71,6,8.71,15.13-9.26,27.42-9.26,14.5,2.7,14.5,3.87-3.25,0-10.77,0S39.23,17.74,28.27,29.06s-9.94,20.26-7.82,22.38,20.37.27,12.08,3.52S9.12,64.56,9.12,84.24s9,29.07,17.54,33.63S41,124.09,42.13,125.24Z" transform="translate(0)" fill="#212121"/><path d="M110.54,219.46s4.14,5.38,4.14,10.49,1.17,7.25,5.14,11.19a20.13,20.13,0,0,1,5.77,13c0,3.45,2.14,12.12,4.31,15.09s1.45,6.25,3.42,8.39a13.54,13.54,0,0,0,4.39,3.11,8.36,8.36,0,0,1-1.66-2.28,4.59,4.59,0,0,1-.45-2.32S146,281.84,146,284.76s4,4.35,4,4.35V297a78.77,78.77,0,0,0-7.22-7.21,22,22,0,0,0-5.59-3.7l.41,2.8a15.74,15.74,0,0,1-2.45-2.73l-1.72-2.79-.28,1.69a9.3,9.3,0,0,1-2.28-4c-.55-2.31-5-5-5.32-6.9a14,14,0,0,0-.72-3l-1.66,2.11a37.71,37.71,0,0,0,.56-5.05c0-1.92-2.46-3.2-3.38-3.2a9.52,9.52,0,0,0-2.12.34,18.17,18.17,0,0,0,.19-2.44c0-1.22-1.41-2.09-1.41-2.09l-2.69,2.55a7.91,7.91,0,0,0-1-6.44c-2.07-2.87-3.76-8.95-3.76-8.95l-3.52,1.07s4.76-6.56,4.76-9.94a9.32,9.32,0,0,0-1.59-5.42S111.5,230,111.5,227A45.57,45.57,0,0,0,110.54,219.46Z" transform="translate(0)" fill="#212121"/><path d="M147,166c-.76-.76-9.74.45-12.15-1.14s-10.8-14-20.84-16.92-33.28-7.46-42.22-11.09-12.13-5.31-13.35-4.33c-.63.5.51,7.72,7.78,10,8.36,2.6,14.74,3.77,14.74,5s-3.92,1.56-8.7,1.56a16.21,16.21,0,0,1-14.35-9.85c-3-6.91-2.69-11.12-2.69-15.88s1.38-10.57,8.84-15.4,19-4.15,23.27-7.32,4.84-7.6,2.83-7.6-3.38,5.73-10.7,5.73S71.55,96.74,78,93.22,86.53,83,86.53,80.86s-2.41-1.73-2.41,0S77,89.42,69.82,91.28s-12.15,6.15-13.46,9-1.73,4.08-3.32,4.08-4.35-5.74-4.35-10.57,2.28-9.19,5-11.33,2.14-3.31-1.38-1.17-8.7,9.18-8.7,17.89,2.14,7.73,2.14,18.3.14,17.47,3,23.61,12,15.2,24.58,15.2,13.82-1.8,21.9-1.8,18.16,3.92,23.55,10.18,7.73,10.22,8.88,10.22,1.84-1.48,6.54-1.48a8.94,8.94,0,0,1,6.9,2.81,18.71,18.71,0,0,0-6-.83c-3.82,0-5.29.83-5.29,2.12s4.83,5.57,4.83,7.09-2.76,1.8-2.76,3.5,4.51,4.33,4.51,4.33l-4.05-.55a19.5,19.5,0,0,1,3,5.52,29.61,29.61,0,0,1,.87,5.8s-2.9-7.92-5.89-10.63-3.47-2-3.47-3.48,2.78-5.59,2.78-5.59l-2.58,1.33a10.25,10.25,0,0,0-1.61-7c-2.26-3.13-3.31-4.19-5.25-4.19s-10-4.28-10-4.28v1.94S107.23,169,98,169s-10.64.05-10.64,1.71,1.61,11.09,6.49,16.89,7,6.59,10.36,6.59,11.37,10,11.37,10-3-5.3-3-7,6.72-7,6.72-9.53a23.47,23.47,0,0,0-1-5.8,17.12,17.12,0,0,1,2.35,8.33,7.07,7.07,0,0,1-3.23,6.35,17.39,17.39,0,0,1,3.46-.5c1.47,0,4.32,3,7,10.79a6,6,0,0,1-3.57,1.08c-2.23,0-4.49-2-5.25-5S118,199,117,199s-.94,1-.94,1.83,1.9,5.31,4.22,8.21,5.07,5.77,5.07,5.77a9.53,9.53,0,0,1-2.35-.9,10.59,10.59,0,0,1-1.76-1.55,15.89,15.89,0,0,0-.85,4.75c0,2.63.23,6.54.23,6.54a23,23,0,0,1-1.29-6.77c-.18-4-1-9.57-2.25-9.57s-1.11.27-1.11,1.38,2.62,4.23,2.62,11.32.28,8.75,1.16,10.91a16.28,16.28,0,0,0,1.42,2.95l1.8-2.72a51.82,51.82,0,0,0,1.15,11.15,53.49,53.49,0,0,0,1.75,5.75,36.92,36.92,0,0,1,4.56-11.37,31.91,31.91,0,0,1,7.55-8.93s-9.62,13.44-9.62,20.9,4.28,10.29,4.28,13.6-1.11,2.56-1.11,4.42.9,3.46,3.11,3.46S144.75,266,150,266V180.37C147.58,180.37,147.79,166.8,147,166Zm-40.91,25.54C100,191.58,94.06,183,94.06,179s-2.83-5.45-2.16-6.12,7.87-1,12.47.73,6,3.18,6,3.18a4.56,4.56,0,0,1-2.21.42c-1.52,0-2.76-.05-2.76-.05s3.08,1.15,4,2.3a8.33,8.33,0,0,1,1.25,2l-1.43.64a2.91,2.91,0,0,0,2.3,1,7.57,7.57,0,0,0,3.36-1.15S112.29,191.58,106.12,191.58Zm32.38,66.76c-4.35,0-8.22-4.6-8.22-8.46s2.63-10.57,2.63-10.57,1,5.63,4,9.39,5.63,2.77,5.63,6.18C142.51,256.61,142.85,258.34,138.5,258.34Z" transform="translate(0)" fill="#212121"/></g></g><g id="frame"><rect width="300" height="300" fill="none"/></g></svg>