<!-- Copyright (c) 2022 - 2023 Jan Stehno -->
<svg xmlns="http://www.w3.org/2000/svg" viewBox="0 0 300 300"><title>chamois</title><g id="chamois"><g id="right"><path d="M150,286.05c7.52,0,18.79-2.29,23.34-4.46s5.81,1.66,5.81,1.66a5.17,5.17,0,0,0-2.64-.73c-1.35.08.41,4.07.41,4.07a3.83,3.83,0,0,0-3-.72c-1.61.41-.11,3.65-.11,3.65s-2.46-.72-4,.31-1.71,4.15-1.71,4.15-1.51-.88-2.52-.36-.08,3.29-.08,3.29-2.18-1.92-4.43-1.55-5.16,4.64-5.16,4.64-1.09-2.07-5.89-2.07Z" transform="translate(0 0)" fill="#212121"/><path d="M150,273.46c5.21,0,12.92-7,13.34-10.31s9.15-7.59,9.92-11.29a13,13,0,0,0-.54-6.92s8,10.47,8,18.48-3.54,14-13.81,15.91-13,2-16.92,2Z" transform="translate(0 0)" fill="#212121"/><path d="M152.49,261c1.22-1.23,5.76,1.55,5.76,3.58s-4.81,5.58-6.07,4.32S151.15,262.31,152.49,261Z" transform="translate(0 0)" fill="#212121"/><path d="M150,250.39c1.56,0,6.73-5.45,12.49-5.45s7,2.92,7,4.51-1.87.47-5.95.47-9.46,7.74-13.58,7.74Z" transform="translate(0 0)" fill="#212121"/><path d="M183,183.35c3.79,0,4.51-.89,4.51-3.07a5.79,5.79,0,0,0-1.92-3.83,3.72,3.72,0,0,0,2.49-3.37c0-2.55,2-6.13,2-6.13l-1.24-.83s-.78-5.34,1.61-9,5.44-3,5.44-7.11-4.64-5.36-7.83-2.17-4.28,2.41-5.86,4-.39,3.81-1.81,5.24-3.12-.42-4.88,3.94-2.08,11.1-.73,14.27S180.24,183.35,183,183.35Z" transform="translate(0 0)" fill="#212121"/><path d="M200,202s4.67-3.12,4.67-7.73-1.92-8.15-4.25-8.15-2.73,2.11-.78,4S203,196.05,200,202Z" transform="translate(0 0)" fill="#212121"/><path d="M200,166.1c2.92,0,5.28.54,5.28,2.93s-.62,4.14-4.14,4.14-7.77-.43-7.77-2.17S196.58,166.1,200,166.1Z" transform="translate(0 0)" fill="#212121"/><path d="M200.2,163c3.22,0,6.07.36,7.88,1.55a15.55,15.55,0,0,0,.2-1.95c0-3-2.73-4.86-8.6-4.86-4.4,0-6.23,1.67-7.35,4.28a13.64,13.64,0,0,0-.51,4.14A13.91,13.91,0,0,1,200.2,163Z" transform="translate(0 0)" fill="#212121"/><path d="M202.35,176.28a48.85,48.85,0,0,1-10-.85c.41,2.88,1,5.3,1.88,6.14,2.33,2.33,6.81,2,8.83,0,.72-.72,1.57-2.93,2.38-5.61A13.52,13.52,0,0,1,202.35,176.28Z" transform="translate(0 0)" fill="#212121"/><path d="M184.05,268a.55.55,0,0,0,1.07.2c.91-2.54,2.26-6.08,3.94-9.65,3.16-6.74,3.56-8,3.56-16.33s.76-15.19,2.66-19.52a71.13,71.13,0,0,0,2.27-8.57.51.51,0,0,0-.94-.35c-1.81,3.39-4.6,8.56-6,10.86-2.23,3.58-9.14,20.22-9.14,25.41C181.43,254.75,184.4,255,184.05,268Z" transform="translate(0 0)" fill="#212121"/><path d="M229.05,32.77c2.22-6.1,4-16.76,3.11-17.69s-6.74,8.43-6.74,10.09S226.14,40.76,229.05,32.77Z" transform="translate(0 0)" fill="#212121"/><path d="M235.23,81.27l-2.32.51a12.75,12.75,0,0,1,.65-3,15.74,15.74,0,0,1,1.67-3l-1.86,1s.5-2.14.5-9.57-.15-16.07-5.44-24.4-7.71-4.35-9.81,3.43-16.54,26-20.69,43.91-7,26.86-9.08,26.86-3.11-4.61-3.11-4.61c0-2.7,4.1-26.4,16.39-51.92s26.3-44.2,28.94-48.4,5-15.34-5.27-11.15c.07.1.13.21.21.31a9.29,9.29,0,0,0,3.4,2.7,9.23,9.23,0,0,1-3.6-1.73,4.53,4.53,0,0,1-.79-.94l-.17.07a29.82,29.82,0,0,0-5.28,3.38c.2.2.4.4.61.59a26.91,26.91,0,0,0,6.1,4.14,26.76,26.76,0,0,1-6.11-3.07,12.5,12.5,0,0,1-1.31-1.1c-1.71,1.37-3.56,3-5.5,4.9.23.23.48.45.74.67a32.69,32.69,0,0,0,7.62,4.84,32.78,32.78,0,0,1-7.6-3.53,13.85,13.85,0,0,1-1.55-1.22c-1.4,1.39-2.86,2.92-4.34,4.54a15.26,15.26,0,0,0,1.66,1.36,32.93,32.93,0,0,0,8,4.18A32.81,32.81,0,0,1,210,18.14a15.72,15.72,0,0,1-2.57-1.83c-1.49,1.65-3,3.42-4.53,5.27.23.21.46.42.71.62a30.94,30.94,0,0,0,9.65,5.43,31.17,31.17,0,0,1-9.64-3.43,14.13,14.13,0,0,1-1.78-1.32c-1.52,1.87-3.05,3.84-4.58,5.88a14.05,14.05,0,0,0,1.43,1.34,30.79,30.79,0,0,0,9.64,5.42,30.86,30.86,0,0,1-9.63-3.43,14.69,14.69,0,0,1-2.47-1.93q-2,2.7-3.94,5.56a17,17,0,0,0,2.17,2.16,31,31,0,0,0,9.64,5.42,30.78,30.78,0,0,1-9.63-3.43,16.17,16.17,0,0,1-3.19-2.65q-2.38,3.54-4.67,7.28a17.13,17.13,0,0,0,3.69,3.33,31,31,0,0,0,10.16,4.38,31,31,0,0,1-9.94-2.4,18.54,18.54,0,0,1-4.91-3.65c-1.28,2.16-2.54,4.35-3.76,6.58A16.81,16.81,0,0,0,185.54,56a30.88,30.88,0,0,0,10.15,4.39A30.79,30.79,0,0,1,185.76,58,18.32,18.32,0,0,1,181,54.47c-1.2,2.26-2.37,4.56-3.48,6.88a18.11,18.11,0,0,0,5.08,4.13,31,31,0,0,0,10.53,3.4A30.76,30.76,0,0,1,183,67.43a20.29,20.29,0,0,1-6.38-4.17q-1.11,2.4-2.15,4.83l-.72,1.71A18,18,0,0,0,178.82,74a31.11,31.11,0,0,0,10.53,3.41,30.9,30.9,0,0,1-10.12-1.46,20.51,20.51,0,0,1-6.34-4.12q-1.68,4.09-3.11,7.82a18.69,18.69,0,0,0,6.93,4.25,30.76,30.76,0,0,0,11,1.53,30.77,30.77,0,0,1-10.22.32,22.89,22.89,0,0,1-8.47-4c-.93,2.46-1.77,4.79-2.54,7a18.73,18.73,0,0,0,6.82,4.14,30.72,30.72,0,0,0,11,1.53,30.7,30.7,0,0,1-10.21.32,22.44,22.44,0,0,1-8.29-3.85q-1,3-1.81,5.56a19.09,19.09,0,0,0,7.76,5.08,30.88,30.88,0,0,0,11,1.54,31.05,31.05,0,0,1-10.22.32c-3.93-.69-7.89-3.53-9.23-4.55-.61,2-1.14,3.92-1.6,5.61a19.4,19.4,0,0,0,8,5.3,31,31,0,0,0,10.95,1.53,31,31,0,0,1-10.21.32c-4.08-.72-8.18-3.72-9.36-4.65-.6,2.4-1,4.36-1.33,5.87a19.22,19.22,0,0,0,7.85,5.17,30.88,30.88,0,0,0,10.95,1.54,30.84,30.84,0,0,1-10.21.31c-3.79-.66-7.6-3.31-9.07-4.42-.13.83-.18,1.25-.18,1.25-1.58,0-3.45,2.85-3.45-.39s3-7.88,3-9.63-.15-4.09-1.37-4.09-4.63,4.09-7.08,4.09v47.06c1.24,0,2.65,3.19,2.65,9.06s-1.41,8.56-2.65,8.56v73.64c1.24,0,2.1-1.13,3.66-3s6.3-3,10.34-3,3.09-3,3.09-3l2,.65a18.59,18.59,0,0,1-1.32-6.56,22.64,22.64,0,0,1,.88-6.25l3.29,1.45a18.86,18.86,0,0,1-1.37-3.27,10.31,10.31,0,0,1-.18-3.27l2.31,1.58a21,21,0,0,0,0-4.77,45.64,45.64,0,0,0-1.82-7.67,8.94,8.94,0,0,1,2.54,1.08,9.47,9.47,0,0,1,1.74,2.42,30.29,30.29,0,0,0-.47-5.19c-.44-1.76-2.93-4.46-2.93-4.46a10.32,10.32,0,0,1,2.83.8,14,14,0,0,1,2.15,3.09s-2.54-8.48-2.07-10.06a9.1,9.1,0,0,1,1.66-3h-2.53a4.18,4.18,0,0,1,.08-1.52c.19-.76,2-2.31,2-2.31l-2.39.6a15.41,15.41,0,0,1,.7-3.11,4.48,4.48,0,0,1,2.18-2.14s-4.09-4-4.79-5.8a4.76,4.76,0,0,1,.2-3.54L170,176a10.1,10.1,0,0,1-.35-2.61,16.66,16.66,0,0,1,.42-3.54l-1.79.82a32.13,32.13,0,0,1,.7-3.45,10.73,10.73,0,0,1,2.78-4.07,7.47,7.47,0,0,0-2.39.8,9.33,9.33,0,0,0-1.71,2,17,17,0,0,1,1-4.54,23.81,23.81,0,0,1,3.63-5.42,8.76,8.76,0,0,0-3.11.78,5.45,5.45,0,0,0-2,1.32,29.16,29.16,0,0,1-1-8.75c0-5.87,2-8.39,2-8.39a5.68,5.68,0,0,0-3.24,1.66,8.87,8.87,0,0,0-1.4,3.5,12.8,12.8,0,0,1,0-4.9,10.06,10.06,0,0,1,2.28-4.31,8,8,0,0,0-2.67.68,9,9,0,0,0-2.28,2.2s-1.19-11.88,1.35-11.88,1.24,2.34,9.28,2.34,8.3-3.54,10.48-3.54,5.45,3.19,7.82,8.79,4.36,5.45,6.73,7.82,6.3.51,7.51,1.71,1,5.56,1,5.56a38.06,38.06,0,0,1,3.11-6.88c1.79-2.88,5.47-7.5,8.43-11.28s5.08-4.15,5.08-4.15l-2.7-.26a71.5,71.5,0,0,0,6-8.66c3.47-5.76,4.64-11.52,6.2-16.63s3-6.53,3-6.53l-3.79.49a12.73,12.73,0,0,1,1.79-4.15A12.1,12.1,0,0,1,235.23,89l-3.57.23a25.35,25.35,0,0,1,1.24-4.35A12.66,12.66,0,0,1,235.23,81.27ZM223.4,75c-1.09,4.1-8.46,12.4-8.46,12.4l4.46-2.34a31.73,31.73,0,0,1-1.3,4.41,23.33,23.33,0,0,1-3.26,5.6l5.6-3.52a13.92,13.92,0,0,1-1.25,4.3c-1.09,2.34-2.59,4.88-2.59,4.88L221,97.6s1.86,10.9-3.22,20.65-15.46,16-15.46,16a18.46,18.46,0,0,0,2-3.85,20.39,20.39,0,0,0,.47-4.08l-3.66,2.37a15.51,15.51,0,0,1-.24-5,17.94,17.94,0,0,1,2.34-6.14,20.63,20.63,0,0,0-3.19,3.26,26.64,26.64,0,0,0-1.83,3.93,44,44,0,0,1,.35-7.15,27.9,27.9,0,0,1,2.06-6.38s-2.46,1.53-4.77,6.36c0,0-.6-10.76,8.27-30.52s19.61-25.6,19.61-25.6S224.48,70.89,223.4,75Z" transform="translate(0 0)" fill="#212121"/></g><g id="left"><path d="M150,286.05c-7.52,0-18.79-2.29-23.34-4.46s-5.81,1.66-5.81,1.66a5.17,5.17,0,0,1,2.64-.73c1.35.08-.41,4.07-.41,4.07a3.83,3.83,0,0,1,3-.72c1.61.41.11,3.65.11,3.65s2.46-.72,4,.31,1.71,4.15,1.71,4.15,1.51-.88,2.52-.36.08,3.29.08,3.29,2.18-1.92,4.43-1.55,5.16,4.64,5.16,4.64,1.09-2.07,5.89-2.07Z" transform="translate(0 0)" fill="#212121"/><path d="M150,273.46c-5.21,0-12.92-7-13.34-10.31s-9.15-7.59-9.92-11.29a13,13,0,0,1,.54-6.92s-8,10.47-8,18.48,3.54,14,13.81,15.91,13,2,16.92,2Z" transform="translate(0 0)" fill="#212121"/><path d="M147.51,261c-1.22-1.23-5.76,1.55-5.76,3.58s4.81,5.58,6.07,4.32S148.85,262.31,147.51,261Z" transform="translate(0 0)" fill="#212121"/><path d="M150,250.39c-1.56,0-6.73-5.45-12.49-5.45s-7,2.92-7,4.51,1.87.47,5.95.47,9.46,7.74,13.58,7.74Z" transform="translate(0 0)" fill="#212121"/><path d="M117,183.35c-3.79,0-4.51-.89-4.51-3.07a5.79,5.79,0,0,1,1.92-3.83,3.72,3.72,0,0,1-2.49-3.37c0-2.55-2-6.13-2-6.13l1.24-.83s.78-5.34-1.61-9-5.44-3-5.44-7.11,4.64-5.36,7.83-2.17,4.28,2.41,5.86,4,.39,3.81,1.81,5.24,3.12-.42,4.88,3.94,2.08,11.1.73,14.27S119.76,183.35,117,183.35Z" transform="translate(0 0)" fill="#212121"/><path d="M100.05,202s-4.67-3.12-4.67-7.73,1.92-8.15,4.25-8.15,2.73,2.11.78,4S97,196.05,100.05,202Z" transform="translate(0 0)" fill="#212121"/><path d="M100,166.1c-2.92,0-5.28.54-5.28,2.93s.62,4.14,4.14,4.14,7.77-.43,7.77-2.17S103.42,166.1,100,166.1Z" transform="translate(0 0)" fill="#212121"/><path d="M99.8,163c-3.22,0-6.07.36-7.88,1.55a15.55,15.55,0,0,1-.2-1.95c0-3,2.73-4.86,8.6-4.86,4.4,0,6.23,1.67,7.35,4.28a13.64,13.64,0,0,1,.51,4.14A13.91,13.91,0,0,0,99.8,163Z" transform="translate(0 0)" fill="#212121"/><path d="M97.65,176.28a48.85,48.85,0,0,0,10-.85c-.41,2.88-1,5.3-1.88,6.14-2.33,2.33-6.81,2-8.83,0-.72-.72-1.57-2.93-2.38-5.61A13.52,13.52,0,0,0,97.65,176.28Z" transform="translate(0 0)" fill="#212121"/><path d="M116,268a.55.55,0,0,1-1.07.2c-.91-2.54-2.26-6.08-3.94-9.65-3.16-6.74-3.56-8-3.56-16.33s-.76-15.19-2.66-19.52a71.13,71.13,0,0,1-2.27-8.57.51.51,0,0,1,.94-.35c1.81,3.39,4.6,8.56,6,10.86,2.23,3.58,9.14,20.22,9.14,25.41C118.57,254.75,115.6,255,116,268Z" transform="translate(0 0)" fill="#212121"/><path d="M71,32.77c-2.22-6.1-4-16.76-3.11-17.69s6.74,8.43,6.74,10.09S73.86,40.76,71,32.77Z" transform="translate(0 0)" fill="#212121"/><path d="M67.1,84.86a25.35,25.35,0,0,1,1.24,4.35L64.77,89a12.1,12.1,0,0,1,3.12,3.49,12.73,12.73,0,0,1,1.79,4.15l-3.79-.49s1.46,1.42,3,6.53,2.73,10.87,6.2,16.63a71.5,71.5,0,0,0,6,8.66l-2.7.26s2.12.36,5.08,4.15,6.64,8.4,8.43,11.28A38.06,38.06,0,0,1,95,150.52S94.84,146.17,96,145s5.14.66,7.51-1.71,4.36-2.22,6.73-7.82,5.64-8.79,7.82-8.79,2.44,3.54,10.48,3.54,6.74-2.34,9.28-2.34,1.35,11.88,1.35,11.88a9,9,0,0,0-2.28-2.2,8,8,0,0,0-2.67-.68,10.06,10.06,0,0,1,2.28,4.31,12.8,12.8,0,0,1,0,4.9,8.87,8.87,0,0,0-1.4-3.5,5.68,5.68,0,0,0-3.24-1.66s2,2.52,2,8.39a29.16,29.16,0,0,1-1,8.75,5.45,5.45,0,0,0-2-1.32,8.76,8.76,0,0,0-3.11-.78,23.81,23.81,0,0,1,3.63,5.42,17,17,0,0,1,1,4.54,9.33,9.33,0,0,0-1.71-2,7.47,7.47,0,0,0-2.39-.8,10.73,10.73,0,0,1,2.78,4.07,32.13,32.13,0,0,1,.7,3.45l-1.79-.82a16.66,16.66,0,0,1,.42,3.54A10.1,10.1,0,0,1,130,176l-1.79-1.17a4.76,4.76,0,0,1,.2,3.54c-.7,1.75-4.79,5.8-4.79,5.8a4.48,4.48,0,0,1,2.18,2.14,15.41,15.41,0,0,1,.7,3.11l-2.39-.6s1.85,1.55,2,2.31a4.18,4.18,0,0,1,.08,1.52H123.7a9.1,9.1,0,0,1,1.66,3c.47,1.58-2.07,10.06-2.07,10.06a14,14,0,0,1,2.15-3.09,10.32,10.32,0,0,1,2.83-.8s-2.49,2.7-2.93,4.46a30.29,30.29,0,0,0-.47,5.19,9.47,9.47,0,0,1,1.74-2.42,8.94,8.94,0,0,1,2.54-1.08,45.64,45.64,0,0,0-1.82,7.67,21,21,0,0,0,0,4.77l2.31-1.58a10.31,10.31,0,0,1-.18,3.27,18.86,18.86,0,0,1-1.37,3.27l3.29-1.45a22.64,22.64,0,0,1,.88,6.25,18.59,18.59,0,0,1-1.32,6.56l2-.65s-1,3,3.09,3,8.79,1.18,10.34,3,2.42,3,3.66,3V171.3c-1.24,0-2.65-2.69-2.65-8.56s1.41-9.06,2.65-9.06V106.62c-2.45,0-5.86-4.09-7.08-4.09s-1.37,2.35-1.37,4.09,3,6.39,3,9.63-1.87.39-3.45.39c0,0-.05-.42-.18-1.25-1.47,1.11-5.28,3.76-9.07,4.42a30.84,30.84,0,0,1-10.21-.31A30.88,30.88,0,0,0,132.57,118a19.22,19.22,0,0,0,7.85-5.17c-.3-1.51-.73-3.47-1.33-5.87-1.18.93-5.28,3.93-9.36,4.65a31,31,0,0,1-10.21-.32,31,31,0,0,0,11-1.53,19.4,19.4,0,0,0,8-5.3c-.46-1.69-1-3.57-1.6-5.61-1.34,1-5.3,3.86-9.23,4.55a31.05,31.05,0,0,1-10.22-.32,30.88,30.88,0,0,0,11-1.54,19.09,19.09,0,0,0,7.76-5.08q-.81-2.61-1.81-5.56A22.44,22.44,0,0,1,126,94.71a30.7,30.7,0,0,1-10.21-.32,30.72,30.72,0,0,0,10.95-1.53,18.73,18.73,0,0,0,6.82-4.14c-.77-2.2-1.61-4.53-2.54-7a22.89,22.89,0,0,1-8.47,4,30.77,30.77,0,0,1-10.22-.32,30.76,30.76,0,0,0,11-1.53,18.69,18.69,0,0,0,6.93-4.25q-1.42-3.72-3.11-7.82a20.51,20.51,0,0,1-6.34,4.12,30.9,30.9,0,0,1-10.12,1.46A31.11,31.11,0,0,0,121.18,74a18,18,0,0,0,5.11-4.16l-.72-1.71q-1-2.43-2.15-4.83A20.29,20.29,0,0,1,117,67.43a30.76,30.76,0,0,1-10.12,1.45,31,31,0,0,0,10.53-3.4,18.11,18.11,0,0,0,5.08-4.13c-1.11-2.32-2.28-4.62-3.48-6.88A18.32,18.32,0,0,1,114.24,58a30.79,30.79,0,0,1-9.93,2.41A30.88,30.88,0,0,0,114.46,56a16.81,16.81,0,0,0,3.66-3.29c-1.22-2.23-2.48-4.42-3.76-6.58a18.54,18.54,0,0,1-4.91,3.65,31,31,0,0,1-9.94,2.4,31,31,0,0,0,10.16-4.38,17.13,17.13,0,0,0,3.69-3.33q-2.28-3.73-4.67-7.28a16.17,16.17,0,0,1-3.19,2.65,30.78,30.78,0,0,1-9.63,3.43,31,31,0,0,0,9.64-5.42,17,17,0,0,0,2.17-2.16q-2-2.86-3.94-5.56a14.69,14.69,0,0,1-2.47,1.93,30.86,30.86,0,0,1-9.63,3.43,30.79,30.79,0,0,0,9.64-5.42,14.05,14.05,0,0,0,1.43-1.34c-1.53-2-3.06-4-4.58-5.88a14.13,14.13,0,0,1-1.78,1.32,31.17,31.17,0,0,1-9.64,3.43,30.94,30.94,0,0,0,9.65-5.43c.25-.2.48-.41.71-.62-1.53-1.85-3-3.62-4.53-5.27A15.72,15.72,0,0,1,90,18.14,32.81,32.81,0,0,1,82.1,21a32.93,32.93,0,0,0,8-4.18,15.26,15.26,0,0,0,1.66-1.36c-1.48-1.62-2.94-3.15-4.34-4.54a13.85,13.85,0,0,1-1.55,1.22,32.78,32.78,0,0,1-7.6,3.53,32.69,32.69,0,0,0,7.62-4.84c.26-.22.51-.44.74-.67-1.94-1.88-3.79-3.53-5.5-4.9a12.5,12.5,0,0,1-1.31,1.1,26.76,26.76,0,0,1-6.11,3.07,26.91,26.91,0,0,0,6.1-4.14c.21-.19.41-.39.61-.59a29.82,29.82,0,0,0-5.28-3.38L75,1.26a4.53,4.53,0,0,1-.79.94,9.23,9.23,0,0,1-3.6,1.73A9.29,9.29,0,0,0,74,1.23c.08-.1.14-.21.21-.31C63.94-3.27,66.36,8,68.93,12.07S85.58,35,97.87,60.47s16.39,49.22,16.39,51.92c0,0-1,4.61-3.11,4.61s-4.93-8.92-9.08-26.86S83.48,54,81.38,46.23s-4.52-11.75-9.81-3.43-5.44,17-5.44,24.4.5,9.57.5,9.57l-1.86-1a15.74,15.74,0,0,1,1.67,3,12.75,12.75,0,0,1,.65,3l-2.32-.51A12.66,12.66,0,0,1,67.1,84.86ZM76.32,61.4S87.06,67.24,95.93,87s8.27,30.52,8.27,30.52c-2.31-4.83-4.77-6.36-4.77-6.36a27.9,27.9,0,0,1,2.06,6.38,44,44,0,0,1,.35,7.15,26.64,26.64,0,0,0-1.83-3.93,20.63,20.63,0,0,0-3.19-3.26,17.94,17.94,0,0,1,2.34,6.14,15.51,15.51,0,0,1-.24,5l-3.66-2.37a20.39,20.39,0,0,0,.47,4.08,18.46,18.46,0,0,0,2,3.85s-10.38-6.22-15.46-16S79,97.6,79,97.6l4.36,3.12s-1.5-2.54-2.59-4.88a13.92,13.92,0,0,1-1.25-4.3l5.6,3.52a23.33,23.33,0,0,1-3.26-5.6,31.73,31.73,0,0,1-1.3-4.41l4.46,2.34S77.69,79.09,76.6,75,76.32,61.4,76.32,61.4Z" transform="translate(0 0)" fill="#212121"/></g></g><g id="frame"><rect width="300" height="300" fill="none"/></g></svg>