<svg xmlns="http://www.w3.org/2000/svg" viewBox="0 0 30 30"><path d="M15,28.6a6.9,6.9,0,0,0,2.33-.44c.46-.22.59.16.59.16a.52.52,0,0,0-.27-.07c-.13,0,0,.41,0,.41a.38.38,0,0,0-.3-.07c-.16,0,0,.36,0,.36a.57.57,0,0,0-.4,0c-.15.11-.17.42-.17.42s-.15-.09-.25,0,0,.33,0,.33a.63.63,0,0,0-.45-.15c-.22,0-.51.46-.51.46s-.11-.21-.59-.21Z" transform="translate(0 0)" fill="#212121"/><path d="M15,27.35a1.78,1.78,0,0,0,1.33-1c.05-.33.92-.75,1-1.12a1.41,1.41,0,0,0-.06-.7,4,4,0,0,1,.8,1.85,1.47,1.47,0,0,1-1.38,1.59,7.14,7.14,0,0,1-1.69.2Z" transform="translate(0 0)" fill="#212121"/><path d="M15.25,26.1c.12-.13.57.15.57.35s-.48.56-.6.44A.82.82,0,0,1,15.25,26.1Z" transform="translate(0 0)" fill="#212121"/><path d="M15,25c.16,0,.67-.55,1.25-.55s.7.3.7.46-.18,0-.59,0-.95.78-1.36.78Z" transform="translate(0 0)" fill="#212121"/><path d="M18.3,18.33c.38,0,.46-.08.46-.3a.59.59,0,0,0-.2-.39.37.37,0,0,0,.25-.33,1.57,1.57,0,0,1,.2-.61l-.12-.09a1.45,1.45,0,0,1,.16-.89c.23-.37.54-.31.54-.72s-.46-.53-.78-.21-.43.24-.59.4,0,.38-.18.52-.31,0-.49.39a2.3,2.3,0,0,0-.07,1.43C17.61,17.85,18,18.33,18.3,18.33Z" transform="translate(0 0)" fill="#212121"/><path d="M20,20.2a1.07,1.07,0,0,0,.46-.78c0-.46-.19-.81-.42-.81s-.28.21-.08.4A1,1,0,0,1,20,20.2Z" transform="translate(0 0)" fill="#212121"/><path d="M20,16.61c.3,0,.53.05.53.29s-.06.42-.41.42-.78-.05-.78-.22A.71.71,0,0,1,20,16.61Z" transform="translate(0 0)" fill="#212121"/><path d="M20,16.3a1.51,1.51,0,0,1,.79.15c0-.08,0-.15,0-.19,0-.3-.27-.49-.86-.49a.7.7,0,0,0-.74.43,1.59,1.59,0,0,0-.05.41A1.46,1.46,0,0,1,20,16.3Z" transform="translate(0 0)" fill="#212121"/><path d="M20.24,17.63a4.48,4.48,0,0,1-1-.09,1.28,1.28,0,0,0,.19.62.68.68,0,0,0,.88,0,1.81,1.81,0,0,0,.24-.56A1.42,1.42,0,0,1,20.24,17.63Z" transform="translate(0 0)" fill="#212121"/><path d="M18.41,26.79a.05.05,0,0,0,.1,0,10.17,10.17,0,0,1,.4-1,2.81,2.81,0,0,0,.35-1.63,5.32,5.32,0,0,1,.27-2,7.9,7.9,0,0,0,.23-.85.05.05,0,0,0-.1,0c-.18.34-.46.86-.6,1.09A9,9,0,0,0,18.14,25,6.42,6.42,0,0,1,18.41,26.79Z" transform="translate(0 0)" fill="#212121"/><path d="M22.9,3.28a4.62,4.62,0,0,0,.32-1.77c-.1-.1-.68.84-.68,1S22.61,4.08,22.9,3.28Z" transform="translate(0 0)" fill="#212121"/><path d="M23.52,8.13l-.23,0a1,1,0,0,1,.07-.3,1.59,1.59,0,0,1,.16-.3l-.18.1a5.36,5.36,0,0,0,.05-1,4.27,4.27,0,0,0-.55-2.44c-.53-.83-.77-.44-1,.34S20.21,7.22,19.79,9s-.7,2.69-.9,2.69-.32-.46-.32-.46a17.94,17.94,0,0,1,1.64-5.19,34.77,34.77,0,0,1,2.9-4.84c.25-.41.5-1.54-.53-1.12l0,0a.91.91,0,0,0,.34.27.87.87,0,0,1-.36-.17L22.5.13h0A2.84,2.84,0,0,0,22,.47L22,.53a2.31,2.31,0,0,0,.61.41A2.44,2.44,0,0,1,22,.64L21.89.53a4.74,4.74,0,0,0-.55.49l.07.06a3.42,3.42,0,0,0,.76.49,3.33,3.33,0,0,1-.76-.35l-.15-.13c-.14.14-.29.29-.44.46l.17.13a3,3,0,0,0,.8.42A3.09,3.09,0,0,1,21,1.81a1.14,1.14,0,0,1-.25-.18l-.46.53.07.06a3.07,3.07,0,0,0,1,.54,3.1,3.1,0,0,1-1-.34.83.83,0,0,1-.18-.13c-.16.19-.31.38-.46.59l.14.13a3.07,3.07,0,0,0,1,.54,3.21,3.21,0,0,1-1-.34A1.43,1.43,0,0,1,19.63,3c-.14.18-.27.36-.4.55a1.52,1.52,0,0,0,.22.22,3.09,3.09,0,0,0,1,.54,3.19,3.19,0,0,1-1-.34,1.64,1.64,0,0,1-.32-.27l-.47.73a1.71,1.71,0,0,0,.37.33,3.06,3.06,0,0,0,1,.44,3.13,3.13,0,0,1-1-.24,2.21,2.21,0,0,1-.49-.36l-.37.65a1.63,1.63,0,0,0,.36.33,3.06,3.06,0,0,0,1,.44,3,3,0,0,1-1-.24,1.7,1.7,0,0,1-.48-.35,7.43,7.43,0,0,0-.35.69,1.83,1.83,0,0,0,.51.41,3.18,3.18,0,0,0,1,.34,3,3,0,0,1-1-.15,2.14,2.14,0,0,1-.64-.41c-.08.16-.15.32-.22.48a1.22,1.22,0,0,1-.07.17,2.2,2.2,0,0,0,.51.42,3.25,3.25,0,0,0,1.05.34,3,3,0,0,1-1-.15,2,2,0,0,1-.63-.41c-.11.27-.22.53-.31.78a1.82,1.82,0,0,0,.69.43,3.19,3.19,0,0,0,1.1.15,3,3,0,0,1-1,0,2.19,2.19,0,0,1-.84-.4l-.26.7a1.89,1.89,0,0,0,.69.42,3.14,3.14,0,0,0,1.09.15,3,3,0,0,1-1,0,2.47,2.47,0,0,1-.83-.38c-.07.19-.13.38-.18.55a1.91,1.91,0,0,0,.78.51,3.12,3.12,0,0,0,1.09.15,3.11,3.11,0,0,1-1,0,2.43,2.43,0,0,1-.92-.46c-.07.21-.12.39-.16.56A1.83,1.83,0,0,0,17,11a2.92,2.92,0,0,0,1.1.15,3.11,3.11,0,0,1-1,0,2.44,2.44,0,0,1-.94-.47c-.06.24-.1.44-.13.59a1.91,1.91,0,0,0,.78.52,3.19,3.19,0,0,0,1.1.15,3,3,0,0,1-1,0,2.33,2.33,0,0,1-.91-.44,1.13,1.13,0,0,1,0,.12c-.16,0-.34.29-.34,0s.3-.79.3-1,0-.41-.14-.41-.46.41-.71.41v4.71c.12,0,.26.32.26.9s-.14.86-.26.86v7.36c.12,0,.21-.11.37-.29a1.6,1.6,0,0,1,1-.3c.41,0,.31-.3.31-.3l.2.07a1.8,1.8,0,0,1-.14-.66,2.17,2.17,0,0,1,.09-.62l.33.14a1.77,1.77,0,0,1-.14-.33,1.19,1.19,0,0,1,0-.32l.23.16a2,2,0,0,0,0-.48,4.62,4.62,0,0,0-.18-.77.73.73,0,0,1,.25.11.89.89,0,0,1,.17.24,3.24,3.24,0,0,0,0-.52,1.65,1.65,0,0,0-.3-.44,1.07,1.07,0,0,1,.29.08,1.52,1.52,0,0,1,.21.3,4.79,4.79,0,0,1-.21-1,1,1,0,0,1,.17-.3h-.25a.63.63,0,0,1,0-.15c0-.08.21-.23.21-.23l-.24.06a1.65,1.65,0,0,1,.07-.31.47.47,0,0,1,.22-.22,3,3,0,0,1-.48-.58.47.47,0,0,1,0-.35L17,17.6a1.27,1.27,0,0,1,0-.26A1.79,1.79,0,0,1,17,17l-.18.08s0-.14.07-.34a1.07,1.07,0,0,1,.28-.41.9.9,0,0,0-.24.08,1,1,0,0,0-.17.2,1.71,1.71,0,0,1,.09-.45,2.54,2.54,0,0,1,.37-.55,1.06,1.06,0,0,0-.32.08.48.48,0,0,0-.2.13,2.86,2.86,0,0,1-.1-.87,1.41,1.41,0,0,1,.2-.84.56.56,0,0,0-.32.16.87.87,0,0,0-.14.36,1.21,1.21,0,0,1,0-.5,1.05,1.05,0,0,1,.22-.43.74.74,0,0,0-.26.07,1,1,0,0,0-.23.22s-.12-1.19.13-1.19.13.24.93.24.83-.36,1.05-.36.54.32.78.88.44.55.67.79.64.05.76.17.1.55.1.55a3.74,3.74,0,0,1,.31-.69c.18-.28.55-.75.84-1.12s.51-.42.51-.42l-.27,0a7.25,7.25,0,0,0,.6-.86,6.83,6.83,0,0,0,.62-1.66,1.9,1.9,0,0,1,.3-.66L23,9.66a1.29,1.29,0,0,1,.18-.41,1.26,1.26,0,0,1,.31-.35l-.35,0a2.49,2.49,0,0,1,.12-.43A1.15,1.15,0,0,1,23.52,8.13ZM22.34,7.5a5.16,5.16,0,0,1-.85,1.24l.45-.23a3.24,3.24,0,0,1-.13.44,2.48,2.48,0,0,1-.33.56L22,9.15a1.25,1.25,0,0,1-.12.43c-.11.24-.26.49-.26.49l.44-.31a3.65,3.65,0,0,1-.33,2.06,4.57,4.57,0,0,1-1.54,1.6,2.23,2.23,0,0,0,.2-.38,2.07,2.07,0,0,0,0-.41l-.36.24a1.53,1.53,0,0,1,0-.51,2,2,0,0,1,.24-.61,1.65,1.65,0,0,0-.32.33,2.1,2.1,0,0,0-.18.39,4.19,4.19,0,0,1,0-.72,2.56,2.56,0,0,1,.21-.63,1.5,1.5,0,0,0-.48.63,7.39,7.39,0,0,1,.83-3.05,5.37,5.37,0,0,1,2-2.56A5.82,5.82,0,0,1,22.34,7.5Z" transform="translate(0 0)" fill="#212121"/><path d="M15,28.6a6.9,6.9,0,0,1-2.33-.44c-.46-.22-.59.16-.59.16a.52.52,0,0,1,.27-.07c.13,0,0,.41,0,.41a.38.38,0,0,1,.3-.07c.16,0,0,.36,0,.36a.57.57,0,0,1,.4,0c.15.11.17.42.17.42s.15-.09.25,0,0,.33,0,.33a.63.63,0,0,1,.45-.15c.22,0,.51.46.51.46s.11-.21.59-.21Z" transform="translate(0 0)" fill="#212121"/><path d="M15,27.35a1.78,1.78,0,0,1-1.33-1c-.05-.33-.92-.75-1-1.12a1.41,1.41,0,0,1,.06-.7,4,4,0,0,0-.8,1.85,1.47,1.47,0,0,0,1.38,1.59,7.14,7.14,0,0,0,1.69.2Z" transform="translate(0 0)" fill="#212121"/><path d="M14.75,26.1c-.12-.13-.57.15-.57.35s.48.56.6.44A.82.82,0,0,0,14.75,26.1Z" transform="translate(0 0)" fill="#212121"/><path d="M15,25c-.16,0-.67-.55-1.25-.55s-.7.3-.7.46.18,0,.59,0,.95.78,1.36.78Z" transform="translate(0 0)" fill="#212121"/><path d="M11.7,18.33c-.38,0-.46-.08-.46-.3a.59.59,0,0,1,.2-.39.37.37,0,0,1-.25-.33,1.57,1.57,0,0,0-.2-.61l.12-.09a1.45,1.45,0,0,0-.16-.89c-.23-.37-.54-.31-.54-.72s.46-.53.78-.21.43.24.59.4,0,.38.18.52.31,0,.49.39a2.3,2.3,0,0,1,.07,1.43C12.39,17.85,12,18.33,11.7,18.33Z" transform="translate(0 0)" fill="#212121"/><path d="M10,20.2a1.07,1.07,0,0,1-.46-.78c0-.46.19-.81.42-.81s.28.21.08.4A1,1,0,0,0,10,20.2Z" transform="translate(0 0)" fill="#212121"/><path d="M10,16.61c-.3,0-.53.05-.53.29s.06.42.41.42.78-.05.78-.22A.71.71,0,0,0,10,16.61Z" transform="translate(0 0)" fill="#212121"/><path d="M10,16.3a1.51,1.51,0,0,0-.79.15c0-.08,0-.15,0-.19,0-.3.27-.49.86-.49a.7.7,0,0,1,.74.43,1.59,1.59,0,0,1,.05.41A1.46,1.46,0,0,0,10,16.3Z" transform="translate(0 0)" fill="#212121"/><path d="M9.76,17.63a4.48,4.48,0,0,0,1-.09,1.28,1.28,0,0,1-.19.62.68.68,0,0,1-.88,0,1.81,1.81,0,0,1-.24-.56A1.42,1.42,0,0,0,9.76,17.63Z" transform="translate(0 0)" fill="#212121"/><path d="M11.59,26.79a.05.05,0,0,1-.1,0,10.17,10.17,0,0,0-.4-1,2.81,2.81,0,0,1-.35-1.63,5.32,5.32,0,0,0-.27-2,7.9,7.9,0,0,1-.23-.85.05.05,0,0,1,.1,0c.18.34.46.86.6,1.09A9,9,0,0,1,11.86,25,6.42,6.42,0,0,0,11.59,26.79Z" transform="translate(0 0)" fill="#212121"/><path d="M7.1,3.28a4.62,4.62,0,0,1-.32-1.77c.1-.1.68.84.68,1S7.39,4.08,7.1,3.28Z" transform="translate(0 0)" fill="#212121"/><path d="M6.71,8.49a2.49,2.49,0,0,1,.12.43l-.35,0a1.26,1.26,0,0,1,.31.35A1.29,1.29,0,0,1,7,9.66l-.38-.05a1.9,1.9,0,0,1,.3.66,6.83,6.83,0,0,0,.62,1.66,7.25,7.25,0,0,0,.6.86l-.27,0s.21,0,.51.42.66.84.84,1.12a3.74,3.74,0,0,1,.31.69s0-.43.1-.55.52.06.76-.17.43-.23.67-.79.56-.88.78-.88.24.36,1,.36.67-.24.93-.24.13,1.19.13,1.19a1,1,0,0,0-.23-.22.74.74,0,0,0-.26-.07,1.05,1.05,0,0,1,.22.43,1.21,1.21,0,0,1,0,.5.87.87,0,0,0-.14-.36.56.56,0,0,0-.32-.16,1.41,1.41,0,0,1,.2.84,2.86,2.86,0,0,1-.1.87.48.48,0,0,0-.2-.13,1.06,1.06,0,0,0-.32-.08,2.54,2.54,0,0,1,.37.55,1.71,1.71,0,0,1,.09.45,1,1,0,0,0-.17-.2.9.9,0,0,0-.24-.08,1.07,1.07,0,0,1,.28.41c.05.2.07.34.07.34L13,17a1.79,1.79,0,0,1,0,.36,1.27,1.27,0,0,1,0,.26l-.18-.12a.47.47,0,0,1,0,.35,3,3,0,0,1-.48.58.47.47,0,0,1,.22.22,1.65,1.65,0,0,1,.07.31l-.24-.06s.19.15.21.23a.63.63,0,0,1,0,.15h-.25a1,1,0,0,1,.17.3,4.79,4.79,0,0,1-.21,1,1.52,1.52,0,0,1,.21-.3,1.07,1.07,0,0,1,.29-.08,1.65,1.65,0,0,0-.3.44,3.24,3.24,0,0,0,0,.52.89.89,0,0,1,.17-.24.73.73,0,0,1,.25-.11,4.62,4.62,0,0,0-.18.77,2,2,0,0,0,0,.48l.23-.16a1.19,1.19,0,0,1,0,.32,1.77,1.77,0,0,1-.14.33l.33-.14a2.17,2.17,0,0,1,.09.62,1.8,1.8,0,0,1-.14.66l.2-.07s-.1.3.31.3a1.6,1.6,0,0,1,1,.3c.16.18.25.29.37.29V17.13c-.12,0-.26-.27-.26-.86s.14-.9.26-.9V10.66c-.25,0-.59-.41-.71-.41s-.14.24-.14.41.3.64.3,1-.18,0-.34,0a1.13,1.13,0,0,1,0-.12,2.33,2.33,0,0,1-.91.44,3,3,0,0,1-1,0,3.19,3.19,0,0,0,1.1-.15,1.91,1.91,0,0,0,.78-.52c0-.15-.07-.35-.13-.59a2.44,2.44,0,0,1-.94.47,3.11,3.11,0,0,1-1,0,2.92,2.92,0,0,0,1.1-.15,1.83,1.83,0,0,0,.79-.53c0-.17-.09-.35-.16-.56a2.43,2.43,0,0,1-.92.46,3.11,3.11,0,0,1-1,0,3.12,3.12,0,0,0,1.09-.15,1.91,1.91,0,0,0,.78-.51c0-.17-.11-.36-.18-.55a2.47,2.47,0,0,1-.83.38,3,3,0,0,1-1,0,3.14,3.14,0,0,0,1.09-.15,1.89,1.89,0,0,0,.69-.42l-.26-.7a2.19,2.19,0,0,1-.84.4,3,3,0,0,1-1,0,3.19,3.19,0,0,0,1.1-.15A1.82,1.82,0,0,0,13,8c-.09-.25-.2-.51-.31-.78a2,2,0,0,1-.63.41,3,3,0,0,1-1,.15,3.25,3.25,0,0,0,1-.34A2.2,2.2,0,0,0,12.63,7a1.22,1.22,0,0,1-.07-.17c-.07-.16-.14-.32-.22-.48a2.14,2.14,0,0,1-.64.41,3,3,0,0,1-1,.15,3.18,3.18,0,0,0,1.05-.34,1.83,1.83,0,0,0,.51-.41,7.43,7.43,0,0,0-.35-.69,1.7,1.7,0,0,1-.48.35,3,3,0,0,1-1,.24,3.06,3.06,0,0,0,1-.44,1.63,1.63,0,0,0,.36-.33l-.37-.65A2.21,2.21,0,0,1,11,5a3.13,3.13,0,0,1-1,.24,3.06,3.06,0,0,0,1-.44,1.71,1.71,0,0,0,.37-.33l-.47-.73a1.64,1.64,0,0,1-.32.27,3.19,3.19,0,0,1-1,.34,3.09,3.09,0,0,0,1-.54,1.52,1.52,0,0,0,.22-.22c-.13-.19-.26-.37-.4-.55a1.43,1.43,0,0,1-.24.19,3.21,3.21,0,0,1-1,.34,3.07,3.07,0,0,0,1-.54l.14-.13c-.15-.21-.3-.4-.46-.59a.83.83,0,0,1-.18.13,3.1,3.1,0,0,1-1,.34,3.07,3.07,0,0,0,1-.54l.07-.06-.46-.53A1.14,1.14,0,0,1,9,1.81a3.09,3.09,0,0,1-.79.29A3,3,0,0,0,9,1.68l.17-.13c-.15-.17-.3-.32-.44-.46l-.15.13a3.33,3.33,0,0,1-.76.35,3.42,3.42,0,0,0,.76-.49L8.66,1A4.74,4.74,0,0,0,8.11.53L8,.64a2.44,2.44,0,0,1-.61.3A2.31,2.31,0,0,0,8,.53L8,.47A2.84,2.84,0,0,0,7.52.13h0L7.42.22a.87.87,0,0,1-.36.17A.91.91,0,0,0,7.4.12l0,0c-1-.42-.78.71-.53,1.12a34.77,34.77,0,0,1,2.9,4.84,17.94,17.94,0,0,1,1.64,5.19s-.11.46-.32.46-.49-.89-.9-2.69S8.35,5.4,8.14,4.62s-.45-1.17-1-.34a4.27,4.27,0,0,0-.55,2.44,5.36,5.36,0,0,0,0,1l-.18-.1a1.59,1.59,0,0,1,.16.3,1,1,0,0,1,.07.3l-.23,0A1.15,1.15,0,0,1,6.71,8.49Zm.92-2.35a5.37,5.37,0,0,1,2,2.56,7.39,7.39,0,0,1,.83,3.05,1.5,1.5,0,0,0-.48-.63,2.56,2.56,0,0,1,.21.63,4.19,4.19,0,0,1,0,.72,2.1,2.1,0,0,0-.18-.39,1.65,1.65,0,0,0-.32-.33,2,2,0,0,1,.24.61,1.53,1.53,0,0,1,0,.51l-.36-.24a2.07,2.07,0,0,0,0,.41,2.23,2.23,0,0,0,.2.38,4.57,4.57,0,0,1-1.54-1.6A3.65,3.65,0,0,1,7.9,9.76l.44.31s-.15-.25-.26-.49A1.25,1.25,0,0,1,8,9.15l.56.36A2.48,2.48,0,0,1,8.19,9a3.24,3.24,0,0,1-.13-.44l.45.23A5.16,5.16,0,0,1,7.66,7.5,5.82,5.82,0,0,1,7.63,6.14Z" transform="translate(0 0)" fill="#212121"/><rect width="30" height="30" fill="none"/></svg>