<!-- Copyright (c) 2023 Jan Stehno -->
<svg xmlns="http://www.w3.org/2000/svg" viewBox="0 0 300 300">
    <title>cinnamonteal</title>
    <g id="cinnamonteal">
        <g id="right">
            <path
                d="M200.86,220.51A31.15,31.15,0,0,1,207,209.94a30.82,30.82,0,0,1,8.87-6.78s-1-2.1,1.8-10,13.46-31.51,13.46-31.51-23,18.75-27.82,29.12-4.09,17.16-3.69,21.84A47.28,47.28,0,0,0,200.86,220.51Z"
                transform="translate(0)" fill="#212121" />
            <path
                d="M215.43,160.37s13.83-7.18,20.08-19.28,6.78-24.2,3.85-33.64-10.64-15.69-13-20.61-3.72-3.86-8.51-2.66-6.25,1.19-6.65,2.66,3.46,10.9,1.6,16.09-3.59,8.24-6.25,10.1a6.86,6.86,0,0,1-5.59.93s6.38-5.18,7.71-10S208,91.51,208,91.51s-2.15,7-6.79,10.77a17,17,0,0,1-9.47,3.89,23.36,23.36,0,0,0-3.33,8.39,40.5,40.5,0,0,0-.53,8.51,59.36,59.36,0,0,0,9.64,13.63c3.89,4.22,10,8.31,14.63,16.23A40.54,40.54,0,0,1,215.43,160.37Z"
                transform="translate(0)" fill="#212121" />
            <path
                d="M202.06,97.89c-2.54,3.69-7.73,5.58-10.32,3.59s-1.15-9.67,2.24-12.67c1.66-1.46,7.28-4.73,8.23-3.49C204,87.68,203.36,96,202.06,97.89Z"
                transform="translate(0)" fill="#212121" />
            <path
                d="M150,140.67c6.72,0,13.7-5.43,20.74-19.53s6.39-15.82,6.39-15.82-2,2.69-1.85-1.3,2.65-11.17,4.89-14.36a68.07,68.07,0,0,1,4.79-6s-.75,6.78-.05,8.22,2.59,4.54,5.43-1.54S196,76.8,199.57,74.45s12.41-11,13.26-16.16-3.59-23.58-9.77-32.56-11.77-14-18.35-17.35S163,1.2,158.78.6A71.9,71.9,0,0,0,150,0Z"
                transform="translate(0)" fill="#212121" />
            <path
                d="M194.18,190.29a70.39,70.39,0,0,0,0-33.51c-2.89-10.67-16.25-33.11-16.25-33.11s-3.59,13.36-10.28,18.65S153.49,150.7,150,150.7V300c3.45,0,24.14-4.45,37.43-23.07,8.49-11.88,6.72-27.59,5.92-44.88S191.69,199.57,194.18,190.29Zm-19.25-11c-1.59,2.52-4.65,4.25-6.91,4.25s-3.66-1.73-3.39-8.24,6.58-13.83,6.58-13.83a34.8,34.8,0,0,0,1.2,8.44c1.19,4.19,3.79,3.46,3.79,3.46A10.64,10.64,0,0,1,174.93,179.26Z"
                transform="translate(0)" fill="#212121" />
        </g>
        <g id="left">
            <path
                d="M99.14,220.51a31.15,31.15,0,0,0-6.09-10.57,30.82,30.82,0,0,0-8.87-6.78s1-2.1-1.8-10-13.46-31.51-13.46-31.51,23,18.75,27.82,29.12,4.09,17.16,3.69,21.84A47.28,47.28,0,0,1,99.14,220.51Z"
                transform="translate(0)" fill="#212121" />
            <path
                d="M84.57,160.37s-13.83-7.18-20.08-19.28-6.78-24.2-3.85-33.64,10.64-15.69,13-20.61,3.72-3.86,8.51-2.66,6.25,1.19,6.65,2.66-3.46,10.9-1.6,16.09,3.59,8.24,6.25,10.1a6.86,6.86,0,0,0,5.59.93s-6.38-5.18-7.71-10,.69-12.48.69-12.48,2.15,7,6.79,10.77a17,17,0,0,0,9.47,3.89,23.36,23.36,0,0,1,3.33,8.39,40.5,40.5,0,0,1,.53,8.51,59.36,59.36,0,0,1-9.64,13.63c-3.89,4.22-10,8.31-14.63,16.23A40.54,40.54,0,0,0,84.57,160.37Z"
                transform="translate(0)" fill="#212121" />
            <path
                d="M97.94,97.89c2.54,3.69,7.73,5.58,10.32,3.59s1.15-9.67-2.24-12.67c-1.66-1.46-7.28-4.73-8.23-3.49C96,87.68,96.64,96,97.94,97.89Z"
                transform="translate(0)" fill="#212121" />
            <path
                d="M150,140.67c-6.72,0-13.7-5.43-20.74-19.53s-6.39-15.82-6.39-15.82,2,2.69,1.85-1.3-2.65-11.17-4.89-14.36a68.07,68.07,0,0,0-4.79-6s.75,6.78,0,8.22-2.59,4.54-5.43-1.54S104,76.8,100.43,74.45,88,63.43,87.17,58.29s3.59-23.58,9.77-32.56,11.77-14,18.35-17.35S137,1.2,141.22.6A71.9,71.9,0,0,1,150,0Z"
                transform="translate(0)" fill="#212121" />
            <path
                d="M106.65,232.05c-.8,17.29-2.57,33,5.92,44.88C125.86,295.55,146.55,300,150,300V150.7c-3.49,0-11-3.09-17.65-8.38s-10.28-18.65-10.28-18.65-13.36,22.44-16.25,33.11a70.39,70.39,0,0,0,0,33.51C108.31,199.57,107.45,214.76,106.65,232.05Zm17.15-58.71s2.6.73,3.79-3.46a34.8,34.8,0,0,0,1.2-8.44s6.32,7.31,6.58,13.83-1.13,8.24-3.39,8.24-5.32-1.73-6.91-4.25A10.64,10.64,0,0,1,123.8,173.34Z"
                transform="translate(0)" fill="#212121" />
        </g>
    </g>
    <g id="frame">
        <rect width="300" height="300" fill="none" />
    </g>
</svg>