<svg xmlns="http://www.w3.org/2000/svg" viewBox="0 0 30 30"><path d="M20.09,22.05a2.86,2.86,0,0,1,1.49-1.73s-.1-.21.18-1,1.35-3.15,1.35-3.15a13.76,13.76,0,0,0-2.78,2.91A3.8,3.8,0,0,0,20,21.26,4.68,4.68,0,0,0,20.09,22.05Z" transform="translate(0)" fill="#212121"/><path d="M21.54,16a5.24,5.24,0,0,0,2-1.93,4.48,4.48,0,0,0,.39-3.37,10.58,10.58,0,0,0-1.31-2.06c-.24-.49-.37-.38-.85-.26s-.62.12-.66.26.34,1.09.16,1.61a1.91,1.91,0,0,1-.63,1,.69.69,0,0,1-.56.1,2.63,2.63,0,0,0,.77-1,2.92,2.92,0,0,0-.07-1.25,2.56,2.56,0,0,1-.67,1.08,1.71,1.71,0,0,1-.95.39,2.29,2.29,0,0,0-.33.84,4.29,4.29,0,0,0-.06.85,6.19,6.19,0,0,0,1,1.36,8.35,8.35,0,0,1,1.46,1.62A4.41,4.41,0,0,1,21.54,16Z" transform="translate(0)" fill="#212121"/><path d="M20.21,9.79c-.26.37-.78.56-1,.36s-.11-1,.23-1.27c.16-.15.73-.47.82-.35A1.76,1.76,0,0,1,20.21,9.79Z" transform="translate(0)" fill="#212121"/><path d="M15,14.07c.67,0,1.37-.55,2.07-2s.64-1.58.64-1.58-.2.27-.18-.13A3.3,3.3,0,0,1,18,9a6,6,0,0,1,.48-.6,3.09,3.09,0,0,0,0,.82c.07.15.26.45.54-.15A4.47,4.47,0,0,1,20,7.45a3.83,3.83,0,0,0,1.32-1.62,6.89,6.89,0,0,0-1-3.26A5,5,0,0,0,18.47.84,12.21,12.21,0,0,0,15.88.06,7.22,7.22,0,0,0,15,0Z" transform="translate(0)" fill="#212121"/><path d="M19.42,19a7,7,0,0,0,0-3.35,20.35,20.35,0,0,0-1.63-3.31,4.35,4.35,0,0,1-1,1.86,3.67,3.67,0,0,1-1.77.84V30a5.7,5.7,0,0,0,3.74-2.31c.85-1.19.67-2.76.6-4.49A16.54,16.54,0,0,1,19.42,19Zm-1.93-1.1a.91.91,0,0,1-.69.42c-.22,0-.36-.17-.34-.82a2.87,2.87,0,0,1,.66-1.39,3.52,3.52,0,0,0,.12.85c.12.42.38.34.38.34A1.11,1.11,0,0,1,17.49,17.93Z" transform="translate(0)" fill="#212121"/><path d="M9.91,22.05A3.19,3.19,0,0,0,9.31,21a3.17,3.17,0,0,0-.89-.67s.1-.21-.18-1-1.35-3.15-1.35-3.15a13.76,13.76,0,0,1,2.78,2.91A3.8,3.8,0,0,1,10,21.26,4.68,4.68,0,0,1,9.91,22.05Z" transform="translate(0)" fill="#212121"/><path d="M8.46,16a5.24,5.24,0,0,1-2-1.93,4.48,4.48,0,0,1-.39-3.37A10.58,10.58,0,0,1,7.37,8.68c.24-.49.37-.38.85-.26s.62.12.66.26-.34,1.09-.16,1.61a1.91,1.91,0,0,0,.63,1,.69.69,0,0,0,.56.1,2.63,2.63,0,0,1-.77-1,2.92,2.92,0,0,1,.07-1.25,2.56,2.56,0,0,0,.67,1.08,1.71,1.71,0,0,0,.95.39,2.29,2.29,0,0,1,.33.84,4.29,4.29,0,0,1,.06.85,6.19,6.19,0,0,1-1,1.36,8.35,8.35,0,0,0-1.46,1.62A4.41,4.41,0,0,0,8.46,16Z" transform="translate(0)" fill="#212121"/><path d="M9.79,9.79c.26.37.78.56,1,.36s.11-1-.23-1.27c-.16-.15-.73-.47-.82-.35A1.76,1.76,0,0,0,9.79,9.79Z" transform="translate(0)" fill="#212121"/><path d="M15,14.07c-.67,0-1.37-.55-2.07-2s-.64-1.58-.64-1.58.2.27.18-.13A3.3,3.3,0,0,0,12,9a6,6,0,0,0-.48-.6,3.09,3.09,0,0,1,0,.82c-.07.15-.26.45-.54-.15A4.47,4.47,0,0,0,10,7.45,3.83,3.83,0,0,1,8.72,5.83a6.89,6.89,0,0,1,1-3.26A5,5,0,0,1,11.53.84,12.21,12.21,0,0,1,14.12.06,7.22,7.22,0,0,1,15,0Z" transform="translate(0)" fill="#212121"/><path d="M10.66,23.2c-.07,1.73-.25,3.3.6,4.49A5.7,5.7,0,0,0,15,30V15.07a3.67,3.67,0,0,1-1.77-.84,4.35,4.35,0,0,1-1-1.86,20.35,20.35,0,0,0-1.63,3.31,7,7,0,0,0,0,3.35A16.54,16.54,0,0,1,10.66,23.2Zm1.72-5.87s.26.08.38-.34a3.52,3.52,0,0,0,.12-.85,2.92,2.92,0,0,1,.66,1.39c0,.65-.12.82-.34.82a.91.91,0,0,1-.69-.42A1.11,1.11,0,0,1,12.38,17.33Z" transform="translate(0)" fill="#212121"/><rect width="30" height="30" fill="none"/></svg>