<svg xmlns="http://www.w3.org/2000/svg" viewBox="0 0 30 30"><path d="M15,.81a7.86,7.86,0,0,1,5,2.26c0,.27-.57.83-.57,1.42S21.62,8,21.86,9.16s.11,1.33.51,1.77S22,11.22,22,12s0,1.15-.41,1.37-.7.18-.86-.15-.41-.32-.82-.32-1.33.78-1.33,1.31a2.44,2.44,0,0,0,.67,1.71c.56.65.58.81.32,2.06a8.68,8.68,0,0,0,.05,3.79A9.82,9.82,0,0,1,19.24,27a5.51,5.51,0,0,1-2.48,2.6,2.1,2.1,0,0,1-1.76.31V28.71a4.14,4.14,0,0,0,3.05-1.3A3.68,3.68,0,0,0,18.86,25c0-.85-.86-1.18-1.68-2.19A2.46,2.46,0,0,0,15,21.65V17.87a5.57,5.57,0,0,1,2.18.5A3.36,3.36,0,0,0,15,17.46V14.52a6.3,6.3,0,0,1,2.75,1A3.36,3.36,0,0,0,15,14.12V8.36a4.4,4.4,0,0,1,2.56,1.27s-1-1.8-2.56-1.8V3a7.16,7.16,0,0,1,2.55.64,4.73,4.73,0,0,0-2.55-1Z" transform="translate(0)" fill="#212121"/><path d="M17.06,23.17c-.54-.68-.67-1-2.06-1v5.16c1.31,0,1.35.2,2,.2s1.53-1.52,1.53-2.32S17.6,23.85,17.06,23.17Zm-.29,2.88c-.63,0-.82-.1-.82-.45s0-.82.48-.82,1.16.51,1.16.73S17.41,26.05,16.77,26.05Z" transform="translate(0)" fill="#212121"/><path d="M15,27.76c1.3,0,1.68,0,1.68.21a3.73,3.73,0,0,1-1.68.49Z" transform="translate(0)" fill="#212121"/><path d="M19.78,13.36a.71.71,0,0,1-.43,1.34.62.62,0,0,1-.45-.54c-.15.39-.1,1,.5,1s1-.77,1-1.16C20.44,13.42,20.13,13.27,19.78,13.36Z" transform="translate(0)" fill="#212121"/><path d="M27.86.63c-.1-.29-.21-.63-1-.63a25.58,25.58,0,0,0-4.49,1.16,3.27,3.27,0,0,0-1.71,1.65c-.46.77-.81,1.17-.81,1.65s.66,1.09,1.3,2.32S22.29,8.46,22.29,9s-.15.23-.06.84.35,1,.47,1,.21-.57.83-1.33,1-.43,2-.79,1.22-.67,1.58-2a18.46,18.46,0,0,0,.63-3.13A13.34,13.34,0,0,0,27.86.63ZM25.76,6.1c-1.28,1.3-2.21,1.64-2.36,1.49s.28-1.07.17-1.17-1,.63-1,.44a2.63,2.63,0,0,1,.89-1.15c.83-.33,1.88-.46,1.88-.64s-.5-.08-.5-.38.43-.52.43-.76S23,4.21,23,3.91s1.09-.72,1.09-.89S23,3.22,23,3s.24-.6,1.34-1.26a6.83,6.83,0,0,1,2.5-1c.31,0,.46-.12.46,1.19A5.72,5.72,0,0,1,25.76,6.1Z" transform="translate(0)" fill="#212121"/><path d="M23,11.28a9,9,0,0,1,.62,2.06,38.27,38.27,0,0,0,1,4.28c.16.66.29-1.21.36-1.46s.84.76.81.55a11.49,11.49,0,0,1-.56-1.53c-.12-.67-.17-1,0-1.09s.83.55.74.27-.58-.75-.67-1.19-.11-.74,0-.66.7.57.63.29-.42-.57-.57-1-.19-.71-.08-.82.69.6.55.26S25,10,25,9.91s.64.09.41-.07-.68-.56-.94-.56A4.34,4.34,0,0,0,23,11.28Z" transform="translate(0)" fill="#212121"/><path d="M22.62,11.59c.21,0,.69,1,.88,2.4s.94,3.91,1,5.72a9.1,9.1,0,0,0,.5,3.16c.24.53-.18-.08-.28,0s0,1.87-.15,1.55-.17-.58-.32-.58-.38.86-.43,1.58-.24-.3-.39-.3-.47.66-.49,1,.13,1-.12.69-.27-.58-.4-.43A4,4,0,0,0,21.75,28c-.13.68-.14,1.34-.32.58s-.19-.69-.56-.21-1.11,1.09-.92.74.25-.46,0-.46-1.38.68-2.15.89.37-.19,1-1a7.06,7.06,0,0,0,1.42-3.94c0-1.51-.48-3.55-.48-5a17.5,17.5,0,0,1,.44-2.94c0-.34-.42-.54-.7-.89s.09-.07.66-.07,1-.78,1-1.24-.25-.58.14-.69.92-.18,1-1.06S22.32,11.59,22.62,11.59Z" transform="translate(0)" fill="#212121"/><path d="M15,.81a7.86,7.86,0,0,0-5,2.26c0,.27.57.83.57,1.42S8.38,8,8.14,9.16,8,10.49,7.63,10.93s.42.29.42,1.06,0,1.15.41,1.37.7.18.86-.15.41-.32.82-.32,1.33.78,1.33,1.31a2.44,2.44,0,0,1-.67,1.71c-.56.65-.58.81-.32,2.06a8.68,8.68,0,0,1-.05,3.79A9.82,9.82,0,0,0,10.76,27a5.51,5.51,0,0,0,2.48,2.6,2.1,2.1,0,0,0,1.76.31V28.71A4.14,4.14,0,0,1,12,27.41,3.68,3.68,0,0,1,11.14,25c0-.85.86-1.18,1.68-2.19A2.46,2.46,0,0,1,15,21.65V17.87a5.57,5.57,0,0,0-2.18.5A3.36,3.36,0,0,1,15,17.46V14.52a6.3,6.3,0,0,0-2.75,1A3.36,3.36,0,0,1,15,14.12V8.36a4.4,4.4,0,0,0-2.56,1.27s1-1.8,2.56-1.8V3a7.16,7.16,0,0,0-2.55.64,4.73,4.73,0,0,1,2.55-1Z" transform="translate(0)" fill="#212121"/><path d="M11.45,25.23c0,.8.87,2.32,1.53,2.32s.71-.2,2-.2V22.19c-1.39,0-1.52.3-2.06,1S11.45,24.42,11.45,25.23Zm1,.28c0-.22.62-.73,1.16-.73s.48.46.48.82-.19.45-.82.45S12.41,25.74,12.41,25.51Z" transform="translate(0)" fill="#212121"/><path d="M15,27.76c-1.3,0-1.68,0-1.68.21a3.73,3.73,0,0,0,1.68.49Z" transform="translate(0)" fill="#212121"/><path d="M10.22,13.36a.71.71,0,0,0,.43,1.34.62.62,0,0,0,.45-.54c.15.39.1,1-.5,1s-1-.77-1-1.16C9.56,13.42,9.87,13.27,10.22,13.36Z" transform="translate(0)" fill="#212121"/><path d="M2.25,3.57A18.46,18.46,0,0,0,2.88,6.7c.36,1.38.53,1.7,1.58,2.05s1.4,0,2,.79.72,1.33.83,1.33.37-.42.47-1S7.71,9.53,7.71,9s.54-1,1.18-2.22,1.3-1.73,1.3-2.32-.35-.88-.81-1.65A3.27,3.27,0,0,0,7.67,1.16,25.58,25.58,0,0,0,3.18,0c-.83,0-.94.34-1,.63A13.34,13.34,0,0,0,2.25,3.57ZM2.7,1.9C2.7.59,2.85.71,3.16.71a6.83,6.83,0,0,1,2.5,1C6.76,2.35,7,2.68,7,3S5.91,2.85,5.91,3,7,3.61,7,3.91s-2.27-.22-2.27,0,.43.45.43.76-.5.13-.5.38,1,.31,1.88.64a2.63,2.63,0,0,1,.89,1.15c0,.19-.9-.55-1-.44s.31,1,.17,1.17S5.52,7.4,4.24,6.1A5.72,5.72,0,0,1,2.7,1.9Z" transform="translate(0)" fill="#212121"/><path d="M7,11.28a9,9,0,0,0-.62,2.06,38.27,38.27,0,0,1-1,4.28c-.16.66-.29-1.21-.36-1.46s-.84.76-.81.55a11.49,11.49,0,0,0,.56-1.53c.12-.67.17-1,0-1.09s-.83.55-.74.27.58-.75.67-1.19.11-.74,0-.66-.7.57-.63.29.42-.57.57-1,.19-.71.08-.82-.69.6-.55.26S5,10,5,9.91s-.64.09-.41-.07.68-.56.94-.56A4.34,4.34,0,0,1,7,11.28Z" transform="translate(0)" fill="#212121"/><path d="M7.38,11.59c-.21,0-.69,1-.88,2.4s-.94,3.91-1,5.72A9.1,9.1,0,0,1,5,22.87c-.24.53.18-.08.28,0s0,1.87.15,1.55.17-.58.32-.58.38.86.43,1.58.24-.3.39-.3.47.66.49,1-.13,1,.12.69.27-.58.4-.43A4,4,0,0,1,8.25,28c.13.68.14,1.34.32.58s.19-.69.56-.21,1.11,1.09.92.74-.25-.46,0-.46,1.38.68,2.15.89-.37-.19-1-1a7.06,7.06,0,0,1-1.42-3.94c0-1.51.48-3.55.48-5a17.5,17.5,0,0,0-.44-2.94c0-.34.42-.54.7-.89s-.09-.07-.66-.07-1-.78-1-1.24.25-.58-.14-.69-.92-.18-.95-1.06S7.68,11.59,7.38,11.59Z" transform="translate(0)" fill="#212121"/><rect width="30" height="30" fill="none"/></svg>