<!-- Copyright (c) 2023 Jan Stehno -->
<svg xmlns="http://www.w3.org/2000/svg" viewBox="0 0 300 300">
    <title>collaredpeccary</title>
    <g id="collaredpeccary">
        <g id="right">
            <path
                d="M150,8.11c23.48,0,49.88,19.91,49.88,22.58s-5.7,8.31-5.7,14.16,22,35.48,24.38,46.77,1.18,13.32,5.18,17.63-4.26,3-4.26,10.66-.17,11.53-4.1,13.69-6.95,1.81-8.56-1.54-4.1-3.19-8.21-3.19-13.36,7.79-13.36,13.12,1.24,10.68,6.78,17.14,5.73,8.1,3.13,20.55-2.46,21.79.51,37.9,3.18,39.93-3.28,52.66-13.65,19.94-24.81,26-12,3.08-17.58,3.08V287.12c9.54,0,23.91-4.26,30.48-13s8.11-16,8.11-24.53-8.55-11.84-16.76-21.9S157.25,216.49,150,216.49V178.72a55.93,55.93,0,0,1,21.83,5s-9.07-9.17-21.83-9.17V145.19c12.11,0,27.54,10.33,27.54,10.33A33.57,33.57,0,0,0,150,141.19V83.65c13,0,25.56,12.62,25.56,12.62s-10.06-18-25.56-18V29.76c11.91,0,25.45,6.42,25.45,6.42S163.14,26.12,150,26.12Z"
                transform="translate(0)" fill="#212121" />
            <path
                d="M170.58,231.7c-5.39-6.83-6.72-9.8-20.58-9.8v51.59c13.14,0,13.48,2.05,20.15,2.05s15.31-15.21,15.31-23.27S176,238.52,170.58,231.7Zm-2.85,28.79c-6.37,0-8.22-1-8.22-4.52s-.2-8.14,4.79-8.14c5.41,0,11.56,5.06,11.56,7.32S174.1,260.49,167.73,260.49Z"
                transform="translate(0)" fill="#212121" />
            <path d="M150,277.56c13,0,16.76.58,16.76,2.12S154.55,284.6,150,284.6Z"
                transform="translate(0)" fill="#212121" />
            <path
                d="M197.81,133.62a6.81,6.81,0,0,1,3.64,8.22c-1,3.77-4.57,6.1-7.95,5.19a6.31,6.31,0,0,1-4.47-5.42c-1.55,3.9-1,10.19,4.95,10.19,6.21,0,10.42-7.7,10.42-11.55C204.4,134.25,201.29,132.71,197.81,133.62Z"
                transform="translate(0)" fill="#212121" />
            <path
                d="M278.6,6.26c-1-2.87-2.05-6.26-10.37-6.26s-36.64,8.72-45,11.6-12.42,8.82-17,16.52-8.17,11.7-8.17,16.53c0,5.88,6.67,10.84,13,23.16S222.94,84.64,222.94,90s-1.58,2.32-.62,8.41,3.49,10.33,4.66,10.33,2.12-5.74,8.27-13.27,9.69-4.31,20.16-7.9,12.21-6.78,15.8-20.53,4.82-18.68,6.26-31.3S279.63,9.13,278.6,6.26Zm-21,54.7C244.77,74,235.46,77.39,234,76s2.77-10.71,1.71-11.77-10,6.29-10,4.45c0-2.4,6.61-10.64,9-11.57,8.27-3.26,18.72-4.54,18.75-6.36,0-2.53-5-.75-5-3.83s4.31-5.13,4.31-7.53S230,42.15,230,39.14s10.88-7.26,10.88-9S230,32.23,230,29.49s2.39-6,13.41-12.59,21.82-9.78,25-9.78S273,5.88,273,19,270.36,48,257.56,61Z"
                transform="translate(0)" fill="#212121" />
            <path
                d="M229.78,112.83c0,3.76,4.24,5.18,6.23,20.55s8.55,36.17,10.19,42.81,2.94-12.11,3.56-14.58,8.48,7.6,8.14,5.48-4.38-8.62-5.61-15.29-1.64-9.62-.34-10.92,8.28,5.48,7.32,2.67-5.82-7.46-6.64-11.84-1.16-7.39.48-6.56,7,5.61,6.25,2.87-4.13-5.75-5.63-9.85-1.95-7.09-.82-8.21,6.91,6,5.54,2.66-8.14-12.24-8.14-13.54,6.36,1,4.1-.69-6.77-5.61-9.44-5.61S229.78,108.18,229.78,112.83Z"
                transform="translate(0)" fill="#212121" />
            <path
                d="M226.15,115.87c2.16,0,6.91,9.75,8.83,24s9.44,39.13,10.4,57.2,2.58,26.35,5,31.63-1.81-.78-2.85.26,0,18.71-1.48,15.52-1.72-5.74-3.15-5.74-3.85,8.58-4.27,15.73-2.4-3-3.91-3-4.76,6.64-4.93,10.18,1.32,9.69-1.22,6.92-2.67-5.77-4-4.31-5.86,9-7.1,15.88-1.36,13.44-3.18,5.85-1.84-6.91-5.54-2.16-11.12,10.95-9.2,7.46,2.42-4.65-.31-4.65-13.87,6.82-21.52,8.93,3.64-1.9,10.16-10.27,14.2-24.29,14.2-39.41-4.76-35.51-4.76-49.67,4.42-26,4.42-29.39-4.21-5.44-7-9,1-.61,6.64-.61,10.41-7.8,10.41-12.47-2.56-5.8,1.42-6.83,9.16-1.85,9.41-10.62S223.18,115.87,226.15,115.87Z"
                transform="translate(0)" fill="#212121" />
        </g>
        <g id="left">
            <path
                d="M150,8.11c-23.48,0-49.88,19.91-49.88,22.58s5.7,8.31,5.7,14.16-22,35.48-24.38,46.77-1.18,13.32-5.18,17.63,4.26,3,4.26,10.66.17,11.53,4.1,13.69,6.95,1.81,8.56-1.54,4.1-3.19,8.21-3.19,13.36,7.79,13.36,13.12-1.24,10.68-6.78,17.14-5.73,8.1-3.13,20.55,2.46,21.79-.51,37.9-3.18,39.93,3.28,52.66,13.65,19.94,24.81,26,12,3.08,17.58,3.08V287.12c-9.54,0-23.91-4.26-30.48-13s-8.11-16-8.11-24.53,8.55-11.84,16.76-21.9,14.58-11.22,21.83-11.22V178.72a55.93,55.93,0,0,0-21.83,5s9.07-9.17,21.83-9.17V145.19c-12.11,0-27.54,10.33-27.54,10.33A33.57,33.57,0,0,1,150,141.19V83.65c-13,0-25.56,12.62-25.56,12.62s10.06-18,25.56-18V29.76c-11.91,0-25.45,6.42-25.45,6.42S136.86,26.12,150,26.12Z"
                transform="translate(0)" fill="#212121" />
            <path
                d="M114.54,252.27c0,8.06,8.64,23.27,15.31,23.27s7-2.05,20.15-2.05V221.9c-13.86,0-15.19,3-20.58,9.8S114.54,244.22,114.54,252.27Zm9.6,2.88c0-2.26,6.15-7.32,11.56-7.32,5,0,4.79,4.58,4.79,8.14s-1.85,4.52-8.22,4.52S124.14,257.41,124.14,255.15Z"
                transform="translate(0)" fill="#212121" />
            <path d="M150,277.56c-13,0-16.76.58-16.76,2.12s12.21,4.92,16.76,4.92Z"
                transform="translate(0)" fill="#212121" />
            <path
                d="M102.19,133.62a6.81,6.81,0,0,0-3.64,8.22c1,3.77,4.57,6.1,8,5.19a6.31,6.31,0,0,0,4.47-5.42c1.55,3.9,1,10.19-5,10.19-6.21,0-10.42-7.7-10.42-11.55C95.6,134.25,98.71,132.71,102.19,133.62Z"
                transform="translate(0)" fill="#212121" />
            <path
                d="M22.53,35.72C24,48.34,25.2,53.27,28.79,67S34.13,84,44.59,87.55s14,.37,20.16,7.9,7.11,13.27,8.27,13.27,3.7-4.24,4.66-10.33-.62-3.08-.62-8.41,5.48-9.86,11.84-22.17,13-17.28,13-23.16c0-4.83-3.55-8.83-8.17-16.53S85,14.47,76.72,11.6,40.08,0,31.77,0,22.43,3.39,21.4,6.26,21.09,23.09,22.53,35.72ZM27,19c0-13.14,1.44-11.9,4.59-11.9s14,3.21,25,9.78S70,26.75,70,29.49s-10.88-1-10.88.68,10.88,6,10.88,9S47.3,37,47.3,39.34s4.31,4.45,4.31,7.53-5,1.3-5,3.83c0,1.82,10.48,3.1,18.75,6.36,2.35.93,9,9.17,9,11.57,0,1.84-9-5.51-10-4.45S67.41,74.51,66,76,55.23,74,42.44,61,27,32.16,27,19Z"
                transform="translate(0)" fill="#212121" />
            <path
                d="M70.22,112.83c0,3.76-4.24,5.18-6.23,20.55s-8.55,36.17-10.19,42.81-2.94-12.11-3.56-14.58-8.48,7.6-8.14,5.48,4.38-8.62,5.61-15.29,1.64-9.62.34-10.92-8.28,5.48-7.32,2.67,5.82-7.46,6.64-11.84,1.16-7.39-.48-6.56-7,5.61-6.25,2.87,4.13-5.75,5.63-9.85,1.95-7.09.82-8.21-6.91,6-5.54,2.66,8.14-12.24,8.14-13.54-6.36,1-4.1-.69,6.77-5.61,9.44-5.61S70.22,108.18,70.22,112.83Z"
                transform="translate(0)" fill="#212121" />
            <path
                d="M73.85,115.87c-2.16,0-6.91,9.75-8.83,24s-9.44,39.13-10.4,57.2-2.58,26.35-5,31.63,1.81-.78,2.85.26,0,18.71,1.48,15.52,1.72-5.74,3.15-5.74,3.85,8.58,4.27,15.73,2.4-3,3.91-3,4.76,6.64,4.93,10.18-1.32,9.69,1.22,6.92,2.67-5.77,4-4.31,5.86,9,7.1,15.88S83.9,293.6,85.72,286s1.84-6.91,5.54-2.16,11.12,10.95,9.2,7.46-2.42-4.65.31-4.65,13.87,6.82,21.52,8.93-3.64-1.9-10.16-10.27S97.93,261,97.93,245.91s4.76-35.51,4.76-49.67-4.42-26-4.42-29.39,4.21-5.44,7-9-1-.61-6.64-.61-10.41-7.8-10.41-12.47,2.56-5.8-1.42-6.83-9.16-1.85-9.41-10.62S76.82,115.87,73.85,115.87Z"
                transform="translate(0)" fill="#212121" />
        </g>
    </g>
    <g id="frame">
        <rect width="300" height="300" fill="none" />
    </g>
</svg>