<svg xmlns="http://www.w3.org/2000/svg" viewBox="0 0 30 30"><path d="M30,13.34a4.61,4.61,0,0,0-1.57-1.89c-1.25-1-1.86-1.85-1.86-2.89a12.38,12.38,0,0,1,.76-2.68c0-.29-.4-.49-.4-.49a1.15,1.15,0,0,0,.5-.14c.11-.11.15-.28.12-1.25A3.73,3.73,0,0,0,27,2.21a1.15,1.15,0,0,1,.46-.34,3.37,3.37,0,0,1,.73-.18,12.22,12.22,0,0,0-1.82-.33,4.43,4.43,0,0,0-3.27.79C21.47,3,21.5,3.39,21.17,3.39s-1.89-.1-1.89-.1a1.7,1.7,0,0,0,.27-.44,1.32,1.32,0,0,0,.06-.48,2.5,2.5,0,0,1-.94.59,8,8,0,0,1-1.89.26,4.63,4.63,0,0,0,.67-.49A4.17,4.17,0,0,0,18,2a7.42,7.42,0,0,1-3,1.25V20.46c.2,0,.34.19.62.31a1.77,1.77,0,0,0,.66.08.93.93,0,0,1-.54.29A.83.83,0,0,1,15,20.9v2.49c1.26,0,2.32-.46,2.32-1.87s-1.4-1.75-1.4-2.11-.16-1-.16-1.26a.76.76,0,0,1,.69-.59c.34,0,.44.51.8.74a1,1,0,0,0,.68.16l.08.66a1.13,1.13,0,0,1,.58.26.55.55,0,0,1,.11.52l.48.28a1.11,1.11,0,0,0,.35.67,3.65,3.65,0,0,0,1.2.73,1.26,1.26,0,0,1-.17.39.68.68,0,0,1-.26.25l.7.63a1,1,0,0,1-.47.24,2,2,0,0,1-.67,0,.9.9,0,0,1,.21.48,1.88,1.88,0,0,1-.06.51l-.77-.21a.57.57,0,0,1,.2.31.5.5,0,0,1-.05.32l-.84-.32a1.21,1.21,0,0,1-.31.87c-.35.35-2.08.35-3.24.35v.38a1.12,1.12,0,0,0,.46.07,2,2,0,0,0,.58-.09,2.26,2.26,0,0,1-1,.32v2.28a11.91,11.91,0,0,0,2.94-.83l-.44,1.13a6.7,6.7,0,0,0,2.6-1.38,11,11,0,0,1,2.28-1.64l-.16.88a13.42,13.42,0,0,1,.69-1.2,2.83,2.83,0,0,1,1.2-1l-.42.87a3.12,3.12,0,0,0,1.07-.48,3.47,3.47,0,0,0,.86-1l-.37,1.41a4.09,4.09,0,0,0,1.81-1.43c1-1.18.72-1.88.72-1.88l.41.39a10.75,10.75,0,0,1,0-1.63,7.09,7.09,0,0,1,.34-1.59l.36,1.18s0-.73,0-1.77.15-1.82.15-1.82a1.36,1.36,0,0,1,.35.63,4.24,4.24,0,0,1,.2.79,9.19,9.19,0,0,0,0-2.68,6.59,6.59,0,0,0-1.38-3.08,2.4,2.4,0,0,1,.76.22A3,3,0,0,1,30,13.34Zm-13.6,8.9c-.16.15-.61.09-.61.09a1.57,1.57,0,0,0,.41-.27,1.37,1.37,0,0,0,.23-.54S16.55,22.08,16.4,22.24ZM23.7,2.58l.3.36.79-.74.24.61.92-.7-.38,1,.87-.44-.39.92.67-.17-.58,1.3h.48a11,11,0,0,1-.56,1A3,3,0,0,1,24.45,7a4.21,4.21,0,0,1-1.83-.8,3.63,3.63,0,0,1-.75-1.8C21.87,4.12,23.7,2.58,23.7,2.58ZM17.44,7.13c.64,0,.72.16,1.22.16A6.17,6.17,0,0,0,20,7.06a6.67,6.67,0,0,1-1.47.8c-.29,0-.42-.31-.7-.42a3.26,3.26,0,0,0-1.45-.15A3.57,3.57,0,0,1,17.44,7.13Zm.5,9a.66.66,0,0,1-.49-1,2.27,2.27,0,0,1,.33-.4A1.11,1.11,0,0,0,18,16l.12.09Zm10.52,1.21s-.62.05-.63,0-.14,1.83-.14,1.83-1.37-.39-1.61-.15a7.76,7.76,0,0,0-.67,1.62,6.66,6.66,0,0,0-1.81-1.24A5.1,5.1,0,0,0,21,19.07a10.58,10.58,0,0,0-1-1,2.24,2.24,0,0,0-1.58-.56,1.61,1.61,0,0,1,1.34-.75A2.09,2.09,0,0,0,22,15.58c.28-.84.62-1.63.62-1.63a4.6,4.6,0,0,1-1.23-.27,6.72,6.72,0,0,1-1.87-1.36v.77a5.19,5.19,0,0,0-1.45.83,15.88,15.88,0,0,0-1.76,1.56s.31-2.41.31-3.16a5.92,5.92,0,0,0-.77-2.07l.42-.85.54.67.8-.77.21.89.65-.8.39.81.93-.49.53.56,1.79-.37v.71l1.61-.08v.61s1.65.52,1.63.5.33,1,.33,1l1.41.77.2.95.9,1-.46.77Zm-10-3.05,0,0a1.66,1.66,0,0,1,.46-.1l.09.2a2,2,0,0,1,.05,1,.77.77,0,0,1-.53-.63A2.28,2.28,0,0,0,18.48,14.27Zm1.13-.08a.79.79,0,0,1,.61.81,1,1,0,0,1-.74.88.65.65,0,0,0,.11-.12A1.16,1.16,0,0,0,19.61,14.19Z" fill="#212121"/><path d="M1,12.55a2.4,2.4,0,0,1,.76-.22A6.59,6.59,0,0,0,.36,15.41a9.19,9.19,0,0,0,0,2.68,4.24,4.24,0,0,1,.2-.79,1.36,1.36,0,0,1,.35-.63s.09.77.15,1.82,0,1.77,0,1.77l.36-1.18a7.09,7.09,0,0,1,.34,1.59,10.75,10.75,0,0,1,0,1.63l.41-.39s-.23.7.72,1.88a4.09,4.09,0,0,0,1.81,1.43l-.37-1.41a3.47,3.47,0,0,0,.86,1,3.12,3.12,0,0,0,1.07.48l-.42-.87a2.83,2.83,0,0,1,1.2,1,13.42,13.42,0,0,1,.69,1.2l-.16-.88A11,11,0,0,1,9.9,27.31a6.7,6.7,0,0,0,2.6,1.38l-.44-1.13a11.91,11.91,0,0,0,2.94.83V26.11a2.26,2.26,0,0,1-1-.32,2,2,0,0,0,.58.09,1.12,1.12,0,0,0,.46-.07v-.38c-1.16,0-2.89,0-3.24-.35a1.21,1.21,0,0,1-.31-.87l-.84.32a.5.5,0,0,1,0-.32.57.57,0,0,1,.2-.31l-.77.21a1.88,1.88,0,0,1-.06-.51.9.9,0,0,1,.21-.48,2,2,0,0,1-.67,0A1,1,0,0,1,9,22.85l.7-.63A.68.68,0,0,1,9.44,22a1.26,1.26,0,0,1-.17-.39,3.65,3.65,0,0,0,1.2-.73,1.11,1.11,0,0,0,.35-.67l.48-.28a.55.55,0,0,1,.11-.52,1.13,1.13,0,0,1,.58-.26l.08-.66a1,1,0,0,0,.68-.16c.36-.23.46-.74.8-.74a.76.76,0,0,1,.69.59c0,.22-.16.9-.16,1.26s-1.4.7-1.4,2.11,1.06,1.87,2.32,1.87V20.9a.83.83,0,0,1-.74.24.93.93,0,0,1-.54-.29,1.77,1.77,0,0,0,.66-.08c.28-.12.42-.31.62-.31V3.29A7.42,7.42,0,0,1,12,2a4.17,4.17,0,0,0,.57.69,4.63,4.63,0,0,0,.67.49A8,8,0,0,1,11.33,3a2.5,2.5,0,0,1-.94-.59,1.32,1.32,0,0,0,.06.48,1.7,1.7,0,0,0,.27.44s-1.55.1-1.89.1S8.53,3,6.94,2.15a4.43,4.43,0,0,0-3.27-.79,12.22,12.22,0,0,0-1.82.33,3.37,3.37,0,0,1,.73.18A1.15,1.15,0,0,1,3,2.21,3.73,3.73,0,0,0,2.45,4c0,1,0,1.14.12,1.25a1.15,1.15,0,0,0,.5.14s-.4.2-.4.49a12.38,12.38,0,0,1,.76,2.68c0,1-.61,1.92-1.86,2.89A4.61,4.61,0,0,0,0,13.34,3,3,0,0,1,1,12.55Zm12.59,9a1.37,1.37,0,0,0,.23.54,1.57,1.57,0,0,0,.41.27s-.45.06-.61-.09S13.57,21.52,13.57,21.52ZM8.13,4.36a3.63,3.63,0,0,1-.75,1.8A4.21,4.21,0,0,1,5.55,7,3,3,0,0,1,3.94,5.71a11,11,0,0,1-.56-1h.48l-.58-1.3L4,3.62,3.56,2.7l.87.44-.38-1,.92.7.24-.61L6,2.94l.3-.36S8.13,4.12,8.13,4.36Zm5.52,2.93a3.26,3.26,0,0,0-1.45.15c-.28.11-.41.42-.7.42A6.67,6.67,0,0,1,10,7.06a6.17,6.17,0,0,0,1.31.23c.5,0,.58-.16,1.22-.16A3.57,3.57,0,0,1,13.65,7.29Zm-1.76,8.82L12,16a1.11,1.11,0,0,0,.21-1.35,2.27,2.27,0,0,1,.33.4.66.66,0,0,1-.49,1Zm-9.58,0-.46-.77.9-1,.2-.95,1.41-.77s.35-1,.33-1,1.63-.5,1.63-.5v-.61l1.61.08V9.9l1.79.37.53-.56.93.49.39-.81.65.8.21-.89.8.77.54-.67.42.85a5.92,5.92,0,0,0-.77,2.07c0,.75.31,3.16.31,3.16A15.88,15.88,0,0,0,12,13.92a5.19,5.19,0,0,0-1.45-.83v-.77a6.72,6.72,0,0,1-1.87,1.36A4.6,4.6,0,0,1,7.42,14s.34.79.62,1.63a2.09,2.09,0,0,0,2.14,1.16,1.61,1.61,0,0,1,1.34.75,2.24,2.24,0,0,0-1.58.56,10.58,10.58,0,0,0-1,1,5.1,5.1,0,0,0-2.56.35,6.66,6.66,0,0,0-1.81,1.24A7.76,7.76,0,0,0,3.92,19c-.24-.24-1.61.15-1.61.15s-.13-1.83-.14-1.83-.63,0-.63,0Zm9.1-1.4a.77.77,0,0,1-.53.63,2,2,0,0,1,0-1l.09-.2a1.66,1.66,0,0,1,.46.1l0,0A2.28,2.28,0,0,0,11.41,14.68Zm-1,1.08a.65.65,0,0,0,.11.12A1,1,0,0,1,9.78,15a.79.79,0,0,1,.61-.81A1.16,1.16,0,0,0,10.41,15.76Z" fill="#212121"/><rect width="30" height="30" fill="none"/></svg>