<!-- Copyright (c) 2022 - 2023 Jan Stehno -->
<svg xmlns="http://www.w3.org/2000/svg" viewBox="0 0 300 300"><title>commonraccoon</title><g id="commonraccoon"><g id="right"><path d="M300,133.38s-3.19-9.29-15.67-18.93S265.67,96,265.67,85.62s7.64-23.79,7.64-26.77-4-5-4-5,3.9-.32,5-1.43,1.5-2.73,1.23-12.5-5.89-17.87-5.89-17.87a11.09,11.09,0,0,1,4.58-3.36A31.45,31.45,0,0,1,281.53,17a118.92,118.92,0,0,0-18.27-3.31c-11.29-1.27-16.74-1-32.66,7.89S215,33.94,211.67,33.94s-18.89-1-18.89-1a18.45,18.45,0,0,0,2.71-4.42,13,13,0,0,0,.61-4.79,24.68,24.68,0,0,1-9.36,5.91c-6.21,2.3-18.93,2.54-18.93,2.54a41.71,41.71,0,0,0,6.65-4.85,41.44,41.44,0,0,0,5.76-6.92c.11,0-18.44,12.53-30.22,12.53V204.6c2,0,3.36,1.88,6.21,3.05a16.18,16.18,0,0,0,6.56.82s-2.69,2.95-5.34,2.95-4.78.25-7.43-2.39v24.88c12.62,0,23.15-4.58,23.15-18.68s-13.94-17.5-13.94-21.11-1.58-10.38-1.58-12.62,3.36-5.85,6.82-5.85,4.48,5,8,7.33a10,10,0,0,0,6.82,1.62l.76,6.57s3.79.53,5.85,2.59S187,199,187,199l4.78,2.75s-.05,2.65,3.52,6.77,12,7.32,12,7.32a13.77,13.77,0,0,1-1.66,3.91,7.3,7.3,0,0,1-2.68,2.44L210,228.5a10.63,10.63,0,0,1-4.75,2.44,23.07,23.07,0,0,1-6.68.3,8.56,8.56,0,0,1,2.1,4.72,19.36,19.36,0,0,1-.54,5.16L192.37,239a5.66,5.66,0,0,1,2.07,3.12,5.08,5.08,0,0,1-.51,3.19l-8.45-3.25s.44,5.25-3,8.75-20.83,3.52-32.43,3.52v3.74a10.14,10.14,0,0,0,4.61.73,20.11,20.11,0,0,0,5.77-.89s-5.09,3.21-10.38,3.21v22.73c9.16,0,29.38-8.28,29.38-8.28L175,286.91s15.53-3.87,26-13.84a111.32,111.32,0,0,1,22.86-16.35l-1.63,8.75s2.65-5.29,6.92-11.94,12-9.63,12-9.63l-4.2,8.75a31.82,31.82,0,0,0,10.65-4.82,35.67,35.67,0,0,0,8.68-9.7l-3.73,14s8.68-2.51,18.11-14.31,7.2-18.76,7.2-18.76l4.12,3.87a105,105,0,0,1,.4-16.23,69.16,69.16,0,0,1,3.31-16l3.66,11.8s-.2-7.22.41-17.7,1.45-18.17,1.45-18.17,1.76,1.22,3.51,6.31a36.72,36.72,0,0,1,2,7.94s2-9.57-.28-26.87-13.84-30.8-13.84-30.8,2.24.07,7.6,2.24S300,133.38,300,133.38Zm-136,89c-1.55,1.55-6.08,1-6.08,1a16.3,16.3,0,0,0,4.09-2.69c1.54-1.54,2.32-5.42,2.32-5.42S165.52,220.81,164,222.36ZM237,25.75l3,3.61L247.9,22l2.44,6.11,9.21-7-3.87,10.35L264.41,27l-3.89,9.24,6.69-1.68-5.78,13h4.78s-1.62,3.26-5.63,9.57S248.1,69.61,244.5,69.61s-14.17-4.34-18.31-8-7.53-15.19-7.53-18C218.66,41.15,237,25.75,237,25.75ZM174.42,71.29c6.41,0,7.18,1.63,12.22,1.63s13.07-2.29,13.07-2.29-11.8,8-14.7,8-4.23-3.16-7-4.23a33.15,33.15,0,0,0-14.56-1.47A35.45,35.45,0,0,1,174.42,71.29Zm5,89.81c-5.6,0-7.53-6.52-4.88-10.38a21.12,21.12,0,0,1,3.31-4c-2.39,4.77-1.69,10.34,2.06,13.48a10,10,0,0,0,1.23.85ZM284.6,173.17s-6.17.51-6.28.48-1.45,18.28-1.45,18.28-13.67-4-16.08-1.56-6.65,16.21-6.65,16.21A67.37,67.37,0,0,0,236,194.17c-11.47-5.43-25.56-3.46-25.56-3.46a93.88,93.88,0,0,0-9.82-10.18,22.11,22.11,0,0,0-15.77-5.63,16.06,16.06,0,0,1,13.36-7.46c9.09,0,18.66-3.26,21.44-11.67s6.17-16.28,6.17-16.28a48.75,48.75,0,0,1-12.28-2.65c-7.67-2.51-18.73-13.63-18.73-13.63v7.66s-5.08,1.43-14.44,8.35a156.18,156.18,0,0,0-17.64,15.6s3.12-24.15,3.12-31.61-7.74-20.7-7.74-20.7L162.28,94l5.43,6.72,8-7.73,2.08,8.9,6.57-8,3.81,8,9.31-4.88,5.35,5.64L220.73,99v7.12l16.07-.81v6.11s16.49,5.19,16.29,5,3.36,10,3.36,10l14,7.74,2,9.46,9,9.47-4.58,7.73ZM184.81,142.7l.4-.18a17.09,17.09,0,0,1,4.61-1.06c.26.63.53,1.34.83,2.08,1.63,4,.56,9.52.56,9.52-2.59-1.07-5.08-3.06-5.34-6.21A21.1,21.1,0,0,0,184.81,142.7Zm11.29-.8c3.33.95,6.05,3.28,6.05,8.1,0,4.54-3.25,7.23-7.38,8.82a12.56,12.56,0,0,0,1.12-1.18C200.06,152.66,200.1,145.77,196.1,141.9Z" fill="#212121"/></g><g id="left"><path d="M9.84,125.51c5.36-2.17,7.6-2.24,7.6-2.24S5.83,136.77,3.6,154.07s-.28,26.87-.28,26.87a36.72,36.72,0,0,1,2-7.94c1.75-5.09,3.51-6.31,3.51-6.31s.84,7.69,1.45,18.17.41,17.7.41,17.7l3.66-11.8a69.16,69.16,0,0,1,3.31,16,105,105,0,0,1,.4,16.23l4.12-3.87s-2.23,7,7.2,18.76,18.11,14.31,18.11,14.31l-3.73-14a35.67,35.67,0,0,0,8.68,9.7,31.82,31.82,0,0,0,10.65,4.82l-4.2-8.75s7.73,3,12,9.63,6.92,11.94,6.92,11.94l-1.63-8.75a111.32,111.32,0,0,1,22.86,16.35c10.45,10,26,13.84,26,13.84l-4.41-11.33s20.22,8.28,29.38,8.28V261.13c-5.29,0-10.38-3.21-10.38-3.21a20.11,20.11,0,0,0,5.77.89,10.14,10.14,0,0,0,4.61-.73v-3.74c-11.6,0-28.94,0-32.43-3.52s-3-8.75-3-8.75l-8.45,3.25a5.08,5.08,0,0,1-.51-3.19,5.66,5.66,0,0,1,2.07-3.12l-7.77,2.11a19.36,19.36,0,0,1-.54-5.16,8.56,8.56,0,0,1,2.1-4.72,23.07,23.07,0,0,1-6.68-.3A10.63,10.63,0,0,1,90,228.5l7.06-6.31a7.3,7.3,0,0,1-2.68-2.44,13.77,13.77,0,0,1-1.66-3.91s8.44-3.2,12-7.32,3.52-6.77,3.52-6.77L113,199s-1-3.18,1.07-5.24,5.85-2.59,5.85-2.59l.76-6.57a10,10,0,0,0,6.82-1.62c3.56-2.29,4.58-7.33,8-7.33s6.82,3.61,6.82,5.85-1.58,9-1.58,12.62-13.94,7-13.94,21.11,10.53,18.68,23.15,18.68V209c-2.65,2.64-4.78,2.39-7.43,2.39s-5.34-2.95-5.34-2.95a16.18,16.18,0,0,0,6.56-.82c2.85-1.17,4.17-3.05,6.21-3.05V32.92c-11.78,0-30.33-12.53-30.22-12.53a41.44,41.44,0,0,0,5.76,6.92,41.71,41.71,0,0,0,6.65,4.85s-12.72-.24-18.93-2.54a24.68,24.68,0,0,1-9.36-5.91,13,13,0,0,0,.61,4.79,18.45,18.45,0,0,0,2.71,4.42s-15.53,1-18.89,1-3-3.56-18.93-12.41S48,12.37,36.74,13.64A118.92,118.92,0,0,0,18.47,17a31.45,31.45,0,0,1,7.33,1.78,11.09,11.09,0,0,1,4.58,3.36S24.76,30.19,24.49,40s.12,11.4,1.23,12.5,5,1.43,5,1.43-4,2-4,5,7.64,16.39,7.64,26.77-6.18,19.2-18.66,28.83S0,133.38,0,133.38,4.48,127.68,9.84,125.51Zm125.86,89.7s.78,3.88,2.32,5.42a16.3,16.3,0,0,0,4.09,2.69s-4.53.59-6.08-1S135.7,215.21,135.7,215.21ZM81.34,43.56c0,2.85-3.39,14.38-7.53,18s-14.72,8-18.31,8S43.42,63.37,39.42,57.06s-5.63-9.57-5.63-9.57h4.78l-5.78-13,6.69,1.68L35.59,27l8.73,4.45L40.45,21.07l9.21,7L52.1,22,60,29.36l3-3.61S81.34,41.15,81.34,43.56Zm55.18,29.36A33.15,33.15,0,0,0,122,74.39c-2.74,1.07-4.07,4.23-7,4.23s-14.7-8-14.7-8,8,2.29,13.07,2.29,5.81-1.63,12.22-1.63A35.45,35.45,0,0,1,136.52,72.92Zm-17.65,88.15a10,10,0,0,0,1.23-.85c3.75-3.14,4.45-8.71,2.06-13.48a21.12,21.12,0,0,1,3.31,4c2.65,3.86.72,10.38-4.88,10.38Zm-95.77-.28-4.58-7.73,9-9.47,2-9.46,14-7.74s3.57-10.17,3.36-10,16.29-5,16.29-5v-6.11l16.07.81V99l17.91,3.71,5.35-5.64,9.31,4.88,3.81-8,6.57,8L124.3,93l8,7.73L137.72,94l4.21,8.48s-7.74,13.23-7.74,20.7,3.12,31.61,3.12,31.61a156.18,156.18,0,0,0-17.64-15.6c-9.36-6.92-14.44-8.35-14.44-8.35v-7.66S94.17,134.33,86.5,136.84a48.75,48.75,0,0,1-12.28,2.65s3.39,7.87,6.17,16.28,12.35,11.67,21.44,11.67a16.06,16.06,0,0,1,13.36,7.46,22.11,22.11,0,0,0-15.77,5.63,93.88,93.88,0,0,0-9.82,10.18s-14.09-2-25.56,3.46a67.37,67.37,0,0,0-18.18,12.41s-4.24-13.8-6.65-16.21-16.08,1.56-16.08,1.56-1.35-18.32-1.45-18.28-6.28-.48-6.28-.48Zm91-13.94c-.26,3.15-2.75,5.14-5.34,6.21,0,0-1.07-5.5.56-9.52.3-.74.57-1.45.83-2.08a17.09,17.09,0,0,1,4.61,1.06l.4.18A21.1,21.1,0,0,0,114.13,146.85Zm-10,10.79a12.56,12.56,0,0,0,1.12,1.18c-4.13-1.59-7.38-4.28-7.38-8.82,0-4.82,2.72-7.15,6.05-8.1C99.9,145.77,99.94,152.66,104.11,157.64Z" fill="#212121"/></g></g><g id="frame"><rect width="300" height="300" fill="none"/></g></svg>