<svg xmlns="http://www.w3.org/2000/svg" viewBox="0 0 30 30"><path d="M15.57,23.22c.28,0,.68-.73.68-.73a.42.42,0,0,1-.26.13c-.15,0-.17-.19-.17-.19a1.24,1.24,0,0,0-.34.18C15.38,22.71,15.35,23.22,15.57,23.22Z" transform="translate(0)" fill="#212121"/><path d="M15,24.52a6.52,6.52,0,0,0,1.56-.22c.24-.11-.12.79-1.56.79Z" transform="translate(0)" fill="#212121"/><path d="M15,28.58,15.7,30a8,8,0,0,1,.49-1.7,2.59,2.59,0,0,1,.87-.85l.46.43a4.6,4.6,0,0,1,1.38-1.17,1.13,1.13,0,0,0,.71-.94l.52.43.65-1.38.71.45.87-1.74.71,1.08-.41-2.48a4,4,0,0,0,.54.69.78.78,0,0,0,.42.22V21.85l.7,1v-.78a.48.48,0,0,1,.33,0,1,1,0,0,1,.32.25,13,13,0,0,0-.81-1.75,18.56,18.56,0,0,0-1.52-1.54,2,2,0,0,0,.1.62,3.35,3.35,0,0,0,.4.65l-1.27-.8a2.2,2.2,0,0,0,.11.57,4.17,4.17,0,0,0,.32.53l-.75-.39.69.91L21,20.3a1.1,1.1,0,0,0,.1.48c.11.21.26.45.26.45l-.84-.43.36.55-.81-.54.12.57-.51-.29a3.94,3.94,0,0,1,.7,1.05,2.79,2.79,0,0,1,0,1.07,2.28,2.28,0,0,0-.45-1.1c-.4-.55-.64-.61-.64-.61v.55l-.61-.28a4.57,4.57,0,0,1-.13,1.65A6.1,6.1,0,0,1,15,25.27Z" transform="translate(0)" fill="#212121"/><path d="M26.82,16.69l-1.23-1A10.83,10.83,0,0,0,26.48,14a3.21,3.21,0,0,0-.86-1.39,2.66,2.66,0,0,0-1-.71V10l-1,1.27,1.55-3.76-.3-.37s.28-2.82.28-3.42A12.75,12.75,0,0,0,23.75,0a11,11,0,0,0-3.13,1.5A18.16,18.16,0,0,0,18,4V5.47l-.4.81V4l1-1.28L15,3.55V6.78s1.2-1.3,1.56-1.65.08-1,.08-1a6.34,6.34,0,0,1,.46,1.14c0,.21-.17.27-.55.55S15,6.94,15,6.94v.4a6.33,6.33,0,0,1,2.76,1.21,10.91,10.91,0,0,1,1.8,2.32,11.24,11.24,0,0,0-2-1.87A11,11,0,0,0,15,8.15v3.09l.65-.88v1.58l.6-.57a4.9,4.9,0,0,0-.1.9c0,.43-.13.58-.13,1a1.59,1.59,0,0,0,.39.85h.15c.16,0,.45-.28.63-.28s.38.31.38.31a1.34,1.34,0,0,1,.56-.66,4.69,4.69,0,0,1,1.09-.37,3.91,3.91,0,0,0-.66.46,2.85,2.85,0,0,0-.53.65,4.56,4.56,0,0,1,.59-.24,2.29,2.29,0,0,1,.52-.12,1.4,1.4,0,0,0,1,.52,2.21,2.21,0,0,1,1.48.83c.32.32,1.19,1,1.19,1s-.8-.45-.9-.55a1.24,1.24,0,0,0-.85,0C21,15.7,19.9,17,19.9,17l1-1.67s-.47-.65-.9-.65-.38.52-.86.91-1,.23-1.17.32-.28.48-.28.48-.1-.41-.3-.41a.52.52,0,0,0-.35.18s.45-1.51.45-1.66-.25-.28-.58-.28-.23.1-.44.1-1.24-.69-1.51-.69v1l1.2.78L15,15v4.62l.53.65L15,20V21.3c.4,0,1.16,1,1.16,1l.28-.23a4.57,4.57,0,0,0-.12.76c0,.26-1.12,1-1.32,1v.61c2.4,0,3.09-1.49,3.09-2.23s-.55-.87-.55-1.11a4,4,0,0,1,.3-.9,2.94,2.94,0,0,0,.07.67.63.63,0,0,0,.48.42c.18,0,.25-.1.49-.39s.06-.84.2-1.1a6,6,0,0,1,1.73-.93c.37-.13.76.06.93,0a3.48,3.48,0,0,0,.52-.78s-.32.35-.55.35-.59-.22-.59-.35a.52.52,0,0,1,.49-.44A3.21,3.21,0,0,1,23,18c.16.16.08.65.45,1.36a11.82,11.82,0,0,0,1.74,2A3.65,3.65,0,0,1,25.33,20c.22-.46,1.1-.7,1.1-.7l-.58-1.19Zm-4.6-5.51.22-.25a.08.08,0,0,0,0-.13l-1.13-.25a.08.08,0,0,1,0-.14l.36-.21a.07.07,0,0,0,0-.14h-.45a.08.08,0,0,1-.07-.11l.24-.59a.07.07,0,0,0-.07-.1h-.75a.08.08,0,0,1,0-.15l1.16-.5a.08.08,0,0,0,0-.15H20.35l-.06,0-.81-.91s0-.12.06-.12h.89a.07.07,0,0,0,.05-.13l-.62-.58a.07.07,0,0,1,0-.13l1.6-.4a.08.08,0,0,0,0-.15L20.35,5.8a.08.08,0,0,1,0-.14L21,5.19a.08.08,0,0,1,.1,0l1.16,1.07a.08.08,0,0,0,.12-.09l-.5-1a0,0,0,0,1,0,0l.38-1.41a.06.06,0,0,0,0-.08l0,0a.08.08,0,0,1,0-.14l.68-.18a.07.07,0,0,0,.06-.07V2.58a.07.07,0,0,1,.12-.06l.34.26a.08.08,0,0,0,.13-.06V2a.07.07,0,0,1,.13-.05l.78.89a.14.14,0,0,1,0,.09l-.4.88a.08.08,0,0,0,0,.08l.38.47a.07.07,0,0,1,0,.09L24,5a.09.09,0,0,0,0,.11l.34.27a.09.09,0,0,1,0,.12L24,5.8a.05.05,0,0,0,0,.08l.4,1a.07.07,0,0,1,0,.09l-.45.26a.09.09,0,0,0,0,.08l.06.46a.09.09,0,0,1,0,0l-.4.78a.07.07,0,0,1-.13,0L23,8a.08.08,0,0,0-.15,0l-.14,1.58a.08.08,0,0,0,.09.08l.26,0a.07.07,0,0,1,.09.07l.08,1.08s0,0,0,0l-.36.7a.08.08,0,0,1-.1,0l-.54-.23A.08.08,0,0,1,22.22,11.18Zm2.2,4.92a4.2,4.2,0,0,0-1.16.45c0-.26-.55-.86-.55-1.07s.67-.52.67-.73S23,14,23,14h.53a1.54,1.54,0,0,0-.26-.69,4.09,4.09,0,0,0-.7-.83s1.29.78,1.29,1.17.77,1.08.77,1.08h-.38a2,2,0,0,0,.56,1.1,1,1,0,0,1,.46.69S24.75,16.1,24.42,16.1Z" transform="translate(0)" fill="#212121"/><path d="M18.34,14.46c-.77.3-.8.68-.8.86a.45.45,0,0,0,.47.44,1.17,1.17,0,0,0,1.3-1.11C19.31,14.24,19.1,14.16,18.34,14.46Zm.13.68c-.18,0-.24-.4-.09-.55,0,0,.37.08.37.3S18.65,15.14,18.47,15.14Z" transform="translate(0)" fill="#212121"/><path d="M14.43,23.22c-.28,0-.68-.73-.68-.73a.42.42,0,0,0,.26.13c.15,0,.17-.19.17-.19a1.24,1.24,0,0,1,.34.18C14.62,22.71,14.65,23.22,14.43,23.22Z" transform="translate(0)" fill="#212121"/><path d="M15,24.52a6.52,6.52,0,0,1-1.56-.22c-.24-.11.12.79,1.56.79Z" transform="translate(0)" fill="#212121"/><path d="M15,28.58,14.3,30a8,8,0,0,0-.49-1.7,2.59,2.59,0,0,0-.87-.85l-.46.43a4.6,4.6,0,0,0-1.38-1.17,1.13,1.13,0,0,1-.71-.94l-.52.43-.65-1.38-.71.45-.87-1.74-.71,1.08.41-2.48a4,4,0,0,1-.54.69.78.78,0,0,1-.42.22V21.85l-.7,1v-.78a.48.48,0,0,0-.33,0A1,1,0,0,0,5,22.4a13,13,0,0,1,.81-1.75,18.56,18.56,0,0,1,1.52-1.54,2,2,0,0,1-.1.62,3.35,3.35,0,0,1-.4.65l1.27-.8a2.2,2.2,0,0,1-.11.57,4.17,4.17,0,0,1-.32.53l.75-.39-.69.91L9,20.3a1.1,1.1,0,0,1-.1.48c-.11.21-.26.45-.26.45l.84-.43-.36.55.81-.54-.12.57.51-.29a3.94,3.94,0,0,0-.7,1.05,2.79,2.79,0,0,0,0,1.07,2.28,2.28,0,0,1,.45-1.1c.4-.55.64-.61.64-.61v.55l.61-.28a4.57,4.57,0,0,0,.13,1.65A6.1,6.1,0,0,0,15,25.27Z" transform="translate(0)" fill="#212121"/><path d="M4.15,18.07l-.58,1.19s.88.24,1.1.7a3.65,3.65,0,0,1,.17,1.36,11.82,11.82,0,0,0,1.74-2c.37-.71.29-1.2.45-1.36a3.21,3.21,0,0,1,1.36-.42.52.52,0,0,1,.49.44c0,.13-.36.35-.59.35S7.74,18,7.74,18a3.48,3.48,0,0,0,.52.78c.17.09.56-.1.93,0a6,6,0,0,1,1.73.93c.14.26,0,.81.2,1.1s.31.39.49.39a.63.63,0,0,0,.48-.42,2.94,2.94,0,0,0,.07-.67,4,4,0,0,1,.3.9c0,.24-.55.37-.55,1.11s.69,2.23,3.09,2.23v-.61c-.2,0-1.32-.71-1.32-1a4.57,4.57,0,0,0-.12-.76l.28.23s.76-1,1.16-1V20l-.53.32.53-.65V15l-1.2.43,1.2-.78v-1c-.27,0-1.31.69-1.51.69s-.1-.1-.44-.1-.58.13-.58.28.45,1.66.45,1.66a.52.52,0,0,0-.35-.18c-.2,0-.3.41-.3.41s-.07-.4-.28-.48-.68.07-1.17-.32-.42-.91-.86-.91-.9.65-.9.65l1,1.67S9,15.7,8.9,15.61a1.24,1.24,0,0,0-.85,0c-.1.1-.9.55-.9.55s.87-.66,1.19-1a2.21,2.21,0,0,1,1.48-.83,1.4,1.4,0,0,0,1-.52,2.29,2.29,0,0,1,.52.12,4.56,4.56,0,0,1,.59.24,2.85,2.85,0,0,0-.53-.65,3.91,3.91,0,0,0-.66-.46,4.69,4.69,0,0,1,1.09.37,1.34,1.34,0,0,1,.56.66s.2-.31.38-.31.47.28.63.28h.15a1.59,1.59,0,0,0,.39-.85c0-.4-.13-.55-.13-1a4.9,4.9,0,0,0-.1-.9l.6.57V10.36l.65.88V8.15A11,11,0,0,0,12.47,9a11.24,11.24,0,0,0-2,1.87,10.91,10.91,0,0,1,1.8-2.32A6.33,6.33,0,0,1,15,7.34v-.4s-1.17-.84-1.55-1.13-.55-.34-.55-.55a6.34,6.34,0,0,1,.46-1.14s-.28.67.08,1S15,6.78,15,6.78V3.55l-3.55-.82,1,1.28V6.28L12,5.47V4A18.16,18.16,0,0,0,9.38,1.5,11,11,0,0,0,6.25,0,12.75,12.75,0,0,0,4.88,3.76c0,.6.28,3.42.28,3.42l-.3.37,1.55,3.76L5.38,10v1.9a2.66,2.66,0,0,0-1,.71A3.21,3.21,0,0,0,3.52,14a10.83,10.83,0,0,0,.89,1.66l-1.23,1ZM7.76,11.3l-.54.23a.08.08,0,0,1-.1,0l-.36-.7s0,0,0,0l.08-1.08a.07.07,0,0,1,.09-.07l.26,0a.08.08,0,0,0,.09-.08L7.14,8A.08.08,0,0,0,7,8l-.37.6a.07.07,0,0,1-.13,0l-.4-.78a.09.09,0,0,1,0,0l.06-.46a.09.09,0,0,0,0-.08l-.45-.26a.07.07,0,0,1,0-.09l.4-1A.05.05,0,0,0,6,5.8l-.37-.31a.09.09,0,0,1,0-.12L6,5.1A.09.09,0,0,0,6,5l-.42-.58a.07.07,0,0,1,0-.09L6,3.85a.08.08,0,0,0,0-.08l-.4-.88a.14.14,0,0,1,0-.09l.78-.89A.07.07,0,0,1,6.48,2v.76a.08.08,0,0,0,.13.06L7,2.52a.07.07,0,0,1,.12.06v.59a.07.07,0,0,0,.06.07l.68.18a.08.08,0,0,1,0,.14l0,0a.06.06,0,0,0,0,.08l.38,1.41a0,0,0,0,1,0,0l-.5,1a.08.08,0,0,0,.12.09L8.92,5.2a.08.08,0,0,1,.1,0l.66.47a.08.08,0,0,1,0,.14L8.52,6a.08.08,0,0,0,0,.15l1.6.4a.07.07,0,0,1,0,.13l-.62.58a.07.07,0,0,0,.05.13h.89c.06,0,.1.08.06.12l-.81.91-.06,0H8.43a.08.08,0,0,0,0,.15l1.16.5a.08.08,0,0,1,0,.15H8.78a.07.07,0,0,0-.07.1L9,10a.08.08,0,0,1-.07.11H8.43a.07.07,0,0,0,0,.14l.36.21a.08.08,0,0,1,0,.14L7.6,10.8a.08.08,0,0,0,0,.13l.22.25A.08.08,0,0,1,7.76,11.3Zm-3,5.26a1,1,0,0,1,.46-.69,2,2,0,0,0,.56-1.1H5.39s.77-.7.77-1.08,1.29-1.17,1.29-1.17a4.09,4.09,0,0,0-.7.83,1.54,1.54,0,0,0-.26.69H7s-.4.5-.4.71.67.51.67.73-.55.81-.55,1.07a4.2,4.2,0,0,0-1.16-.45C5.25,16.1,4.75,16.56,4.75,16.56Z" transform="translate(0)" fill="#212121"/><path d="M10.69,14.65A1.17,1.17,0,0,0,12,15.76a.45.45,0,0,0,.47-.44c0-.18,0-.56-.8-.86S10.69,14.24,10.69,14.65Zm.56.24c0-.22.37-.3.37-.3.15.15.09.55-.09.55S11.25,15.1,11.25,14.89Z" transform="translate(0)" fill="#212121"/><rect width="30" height="30" fill="none"/></svg>