<!-- Copyright (c) 2022 Jan Stehno -->
<svg xmlns="http://www.w3.org/2000/svg" viewBox="0 0 300 300"><title>coyote</title><g id="coyote"><g id="right"><path d="M155.71,232.25c2.77,0,6.75-7.33,6.75-7.33a3.85,3.85,0,0,1-2.56,1.32c-1.46,0-1.66-2-1.66-2a10.75,10.75,0,0,0-3.41,1.82C153.78,227.15,153.51,232.25,155.71,232.25Z" transform="translate(0)" fill="#212121"/><path d="M150,245.21c3.65,0,13.28-1.13,15.63-2.21s-1.22,7.88-15.63,7.88Z" transform="translate(0)" fill="#212121"/><path d="M150,285.81,157,300s2.11-11.7,4.94-17,8.7-8.55,8.7-8.55l4.59,4.37s7.14-9.08,13.82-11.71a11.24,11.24,0,0,0,7-9.39l5.2,4.25,6.55-13.84,7.1,4.59,8.71-17.43,7.09,10.74-4.12-24.72s3,4.79,5.41,6.89,4.18,2.16,4.18,2.16V218.5l7,10.47V221.2a5,5,0,0,1,3.31.34,8.77,8.77,0,0,1,3.24,2.5s-5.09-13.28-8.1-17.52-15.22-15.44-15.22-15.44a22.06,22.06,0,0,0,1,6.21c.94,2.52,4,6.49,4,6.49l-12.74-7.93a20.88,20.88,0,0,0,1.17,5.63,38.22,38.22,0,0,0,3.1,5.31l-7.47-3.92,6.93,9.1-12.34-9a10.94,10.94,0,0,0,1,4.82c1.13,2.12,2.57,4.51,2.57,4.51L205.35,208l3.51,5.54-8.11-5.45,1.3,5.71-5.14-2.87s5.78,6.38,7,10.43-.13,10.71-.13,10.71a23.54,23.54,0,0,0-4.5-11c-4.05-5.47-6.45-6.08-6.45-6.08v5.49l-6.09-2.79s1,11.65-1.34,16.48-23.2,18.58-35.36,18.58Z" transform="translate(0)" fill="#212121"/><path d="M268.17,166.89,255.92,157s8.91-14.32,8.91-16.58-3.51-8.55-8.64-14a27.51,27.51,0,0,0-10-7v-19l-10.27,12.7,15.49-37.64-3.06-3.7s2.88-28.19,2.88-34.13S239.8,0,237.45,0,218.72,6.39,206.2,15s-26.48,24.77-26.48,24.77V54.67l-4.05,8.11V40.12l9.82-12.78L150,35.49V67.8s12-13,15.6-16.48.81-10.14.81-10.14S171,50.5,171,52.6s-1.76,2.7-5.54,5.54S150,69.42,150,69.42v4c2.9,0,18.44,4.33,27.56,12.1s18,23.17,18,23.17S182.09,93.33,175.26,90,153.51,81.51,150,81.51v30.87l6.48-8.78v15.78l6-5.72a52.62,52.62,0,0,0-.94,9c0,4.37-1.31,5.81-1.31,9.86s3.83,8.42,3.83,8.42h1.59c1.59,0,4.44-2.79,6.25-2.79s3.82,3.15,3.82,3.15a13.7,13.7,0,0,1,5.59-6.57c4-2.3,10.85-3.69,10.85-3.69a34.91,34.91,0,0,0-6.57,4.54,28.93,28.93,0,0,0-5.27,6.49,55.32,55.32,0,0,1,5.85-2.39,29.69,29.69,0,0,1,5.23-1.21s3.87,5.22,10.44,5.22,11.62,5.13,14.82,8.33,11.89,9.82,11.89,9.82-8-4.5-9-5.54-7.57-1.17-8.51-.22-12,14.09-12,14.09l10.49-16.73s-4.69-6.45-9.08-6.45-3.72,5.17-8.58,9.09-9.6,2.29-11.68,3.17-2.79,4.8-2.79,4.8-1-4.08-3-4.08a5.16,5.16,0,0,0-3.49,1.87s4.45-15.13,4.45-16.66-2.47-2.79-5.81-2.79-2.25,1-4.32,1-12.38-7-15.13-7v10l12,7.84L150,150v46.25l5.34,6.48L150,199.45V213c4,0,11.62,9.75,11.62,9.75l2.75-2.3a49.35,49.35,0,0,0-1.13,7.61c0,2.57-11.21,9.73-13.24,9.73v6.08c24,0,30.87-14.93,30.87-22.29s-5.47-8.72-5.47-11.08,3-9.05,3-9.05,0,4.73.67,6.75,3,4.12,4.8,4.12,2.5-.94,4.86-3.85.59-8.37,2-11,13.6-7.93,17.29-9.28,7.66.54,9.28-.36,5.22-7.75,5.22-7.75-3.15,3.43-5.49,3.43-5.94-2.17-5.94-3.43a5.19,5.19,0,0,1,5-4.41c3.24,0,12,2.52,13.6,4.14s.81,6.58,4.5,13.6,17.39,19.73,17.39,19.73-.46-9,1.71-13.6,11-7,11-7l-5.76-11.89Zm-46-55.14,2.25-2.45A.76.76,0,0,0,224,108l-11.37-2.54a.75.75,0,0,1-.22-1.39L216,102a.76.76,0,0,0-.39-1.41h-4.4a.76.76,0,0,1-.7-1l2.39-5.87a.77.77,0,0,0-.71-1h-7.52a.76.76,0,0,1-.31-1.46L216,86.07a.76.76,0,0,0-.3-1.45H203.5a.73.73,0,0,1-.56-.26l-8.1-9a.76.76,0,0,1,.57-1.27h8.86a.76.76,0,0,0,.51-1.32L198.58,67a.77.77,0,0,1,.34-1.3l15.93-4a.76.76,0,0,0,0-1.48L203.48,58a.76.76,0,0,1-.29-1.37l6.65-4.72a.77.77,0,0,1,1,.06l11.58,10.74a.76.76,0,0,0,1.2-.88l-5-10.56a.75.75,0,0,1-.05-.53l3.87-14a.76.76,0,0,0-.35-.86l-.4-.23a.76.76,0,0,1,.19-1.39l6.86-1.85a.77.77,0,0,0,.56-.74V25.78a.76.76,0,0,1,1.23-.6l3.4,2.64a.76.76,0,0,0,1.23-.6V19.64a.76.76,0,0,1,1.33-.5l7.76,8.91a.75.75,0,0,1,.12.81l-4,8.86a.78.78,0,0,0,.1.79l3.76,4.68a.75.75,0,0,1,0,.92l-4.16,5.83a.78.78,0,0,0,.14,1l3.4,2.74a.76.76,0,0,1,0,1.18L240,58a.76.76,0,0,0-.22.88l4.06,9.44a.77.77,0,0,1-.32,1L239,71.84a.77.77,0,0,0-.38.76l.62,4.62a.78.78,0,0,1-.07.45L235.1,85.5a.76.76,0,0,1-1.32,0l-3.73-6a.76.76,0,0,0-1.4.33l-1.42,15.85a.77.77,0,0,0,.88.82l2.63-.43a.76.76,0,0,1,.88.69l.82,10.85a.84.84,0,0,1-.08.41L228.78,115a.78.78,0,0,1-1,.34L222.44,113A.76.76,0,0,1,222.18,111.75Zm22,49.24c-3.28,0-11.52,4.51-11.52,4.51,0-2.61-5.54-8.56-5.54-10.72s6.66-5.18,6.66-7.3-3.92-7.07-3.92-7.07h5.23s0-2.52-2.57-6.93a39.15,39.15,0,0,0-7-8.29S238.4,133,238.4,136.86s7.7,10.85,7.7,10.85h-3.78s1.3,7.92,5.58,10.94a10.49,10.49,0,0,1,4.64,6.94S247.45,161,244.16,161Z" transform="translate(0)" fill="#212121"/><path d="M183.37,144.6c-7.66,3-8,6.76-8,8.65a4.49,4.49,0,0,0,4.68,4.32c9.86,0,13-6.89,13-11S191,141.58,183.37,144.6Zm1.35,6.79c-1.82,0-2.4-3.95-.88-5.47,0,0,3.65.78,3.65,2.94S186.54,151.39,184.72,151.39Z" transform="translate(0)" fill="#212121"/></g><g id="left"><path d="M144.29,232.25c-2.77,0-6.75-7.33-6.75-7.33a3.85,3.85,0,0,0,2.56,1.32c1.46,0,1.66-2,1.66-2a10.75,10.75,0,0,1,3.41,1.82C146.22,227.15,146.49,232.25,144.29,232.25Z" transform="translate(0)" fill="#212121"/><path d="M150,245.21c-3.65,0-13.28-1.13-15.63-2.21s1.22,7.88,15.63,7.88Z" transform="translate(0)" fill="#212121"/><path d="M150,285.81,143,300s-2.11-11.7-4.94-17-8.7-8.55-8.7-8.55l-4.59,4.37s-7.14-9.08-13.82-11.71a11.24,11.24,0,0,1-7-9.39L98.73,262l-6.55-13.84-7.1,4.59-8.71-17.43-7.09,10.74,4.12-24.72s-3,4.79-5.41,6.89-4.18,2.16-4.18,2.16V218.5l-7,10.47V221.2a5,5,0,0,0-3.31.34A8.77,8.77,0,0,0,50.3,224s5.09-13.28,8.1-17.52,15.22-15.44,15.22-15.44a22.06,22.06,0,0,1-1,6.21c-.94,2.52-4,6.49-4,6.49l12.74-7.93a20.88,20.88,0,0,1-1.17,5.63,38.22,38.22,0,0,1-3.1,5.31l7.47-3.92L77.59,212l12.34-9a10.94,10.94,0,0,1-1,4.82c-1.13,2.12-2.57,4.51-2.57,4.51L94.65,208l-3.51,5.54,8.11-5.45L98,213.81l5.14-2.87s-5.78,6.38-7,10.43.13,10.71.13,10.71a23.54,23.54,0,0,1,4.5-11c4-5.47,6.45-6.08,6.45-6.08v5.49l6.09-2.79s-1,11.65,1.34,16.48,23.2,18.58,35.36,18.58Z" transform="translate(0)" fill="#212121"/><path d="M41.47,180.67l-5.76,11.89s8.82,2.43,11,7,1.71,13.6,1.71,13.6,13.7-12.7,17.39-19.73,2.88-12,4.5-13.6,10.36-4.14,13.6-4.14a5.19,5.19,0,0,1,5,4.41c0,1.26-3.6,3.43-5.94,3.43s-5.49-3.43-5.49-3.43,3.6,6.85,5.22,7.75,5.58-1,9.28.36,15.85,6.66,17.29,9.28-.34,8.08,2,11,3,3.85,4.86,3.85,4.12-2.09,4.8-4.12.67-6.75.67-6.75,3,6.69,3,9.05-5.47,3.72-5.47,11.08S126,243.9,150,243.9v-6.08c-2,0-13.24-7.16-13.24-9.73a49.35,49.35,0,0,0-1.13-7.61l2.75,2.3S146,213,150,213V199.45l-5.34,3.24,5.34-6.48V150l-12,4.37,12-7.84v-10c-2.75,0-13.06,7-15.13,7s-1-1-4.32-1-5.81,1.26-5.81,2.79,4.45,16.66,4.45,16.66A5.16,5.16,0,0,0,125.7,160c-2,0-3,4.08-3,4.08s-.72-3.92-2.79-4.8-6.82.74-11.68-3.17S104,147,99.64,147s-9.08,6.45-9.08,6.45l10.49,16.73S90,157,89,156.09s-7.47-.82-8.51.22-9.05,5.54-9.05,5.54,8.69-6.62,11.89-9.82,8.24-8.33,14.82-8.33,10.44-5.22,10.44-5.22a29.69,29.69,0,0,1,5.23,1.21,55.32,55.32,0,0,1,5.85,2.39,28.93,28.93,0,0,0-5.27-6.49,34.91,34.91,0,0,0-6.57-4.54s6.8,1.39,10.85,3.69a13.7,13.7,0,0,1,5.59,6.57s2-3.15,3.82-3.15,4.66,2.79,6.25,2.79H136s3.83-4.36,3.83-8.42-1.31-5.49-1.31-9.86a52.62,52.62,0,0,0-.94-9l6,5.72V103.6l6.48,8.78V81.51c-3.51,0-18.44,5.07-25.26,8.44s-20.34,18.72-20.34,18.72,8.92-15.41,18-23.17S147.1,73.4,150,73.4v-4S138.31,61,134.53,58.14,129,54.69,129,52.6s4.6-11.42,4.6-11.42-2.77,6.69.81,10.14S150,67.8,150,67.8V35.49l-35.49-8.15,9.82,12.78V62.78l-4-8.11V39.81S106.32,23.69,93.8,15,64.89,0,62.55,0,48.77,31.7,48.77,37.65s2.88,34.13,2.88,34.13l-3.06,3.7,15.49,37.64-10.27-12.7v19a27.51,27.51,0,0,0-10,7c-5.13,5.41-8.64,11.71-8.64,14S44.08,157,44.08,157l-12.25,9.9ZM77.56,113l-5.35,2.35a.78.78,0,0,1-1-.34l-3.58-6.92a.84.84,0,0,1-.08-.41l.82-10.85a.76.76,0,0,1,.88-.69l2.63.43a.77.77,0,0,0,.88-.82L71.35,79.86a.76.76,0,0,0-1.4-.33l-3.73,6a.76.76,0,0,1-1.32,0l-4.05-7.83a.78.78,0,0,1-.07-.45l.62-4.62a.77.77,0,0,0-.38-.76l-4.51-2.6a.77.77,0,0,1-.32-1l4.06-9.44A.76.76,0,0,0,60,58l-3.7-3.06a.76.76,0,0,1,0-1.18L59.74,51a.78.78,0,0,0,.14-1l-4.16-5.83a.75.75,0,0,1,0-.92l3.76-4.68a.78.78,0,0,0,.1-.79l-4-8.86a.75.75,0,0,1,.12-.81l7.76-8.91a.76.76,0,0,1,1.33.5v7.58a.76.76,0,0,0,1.23.6l3.4-2.64a.76.76,0,0,1,1.23.6v5.88a.77.77,0,0,0,.56.74l6.86,1.85a.76.76,0,0,1,.19,1.39l-.4.23a.76.76,0,0,0-.35.86l3.87,14a.75.75,0,0,1-.05.53l-5,10.56a.76.76,0,0,0,1.2.88L89.2,52a.77.77,0,0,1,1-.06l6.65,4.72A.76.76,0,0,1,96.52,58L85.18,60.25a.76.76,0,0,0,0,1.48l15.93,4a.77.77,0,0,1,.34,1.3l-6.2,5.76a.76.76,0,0,0,.51,1.32h8.86a.76.76,0,0,1,.57,1.27l-8.1,9a.73.73,0,0,1-.56.26H84.33a.76.76,0,0,0-.3,1.45L95.6,91.13a.76.76,0,0,1-.31,1.46H87.77a.77.77,0,0,0-.71,1l2.39,5.87a.76.76,0,0,1-.7,1h-4.4A.76.76,0,0,0,84,102l3.59,2.14a.75.75,0,0,1-.22,1.39L76,108a.76.76,0,0,0-.39,1.26l2.25,2.45A.76.76,0,0,1,77.56,113Zm-30.1,52.63a10.49,10.49,0,0,1,4.64-6.94c4.28-3,5.58-10.94,5.58-10.94H53.9s7.7-7,7.7-10.85,12.92-11.67,12.92-11.67a39.15,39.15,0,0,0-7,8.29c-2.57,4.41-2.57,6.93-2.57,6.93h5.23s-3.92,5-3.92,7.07,6.66,5.14,6.66,7.3-5.54,8.11-5.54,10.72c0,0-8.24-4.51-11.52-4.51S47.46,165.59,47.46,165.59Z" transform="translate(0)" fill="#212121"/><path d="M106.9,146.54c0,4.14,3.16,11,13,11a4.49,4.49,0,0,0,4.68-4.32c0-1.89-.31-5.63-8-8.65S106.9,142.4,106.9,146.54Zm5.61,2.32c0-2.16,3.65-2.94,3.65-2.94,1.52,1.52.94,5.47-.88,5.47S112.51,151,112.51,148.86Z" transform="translate(0)" fill="#212121"/></g></g><g id="frame"><rect width="300" height="300" fill="none"/></g></svg>