<svg xmlns="http://www.w3.org/2000/svg" viewBox="0 0 30 30"><g id="duskygrouse"><g id="right"><path d="M15,5a10.1,10.1,0,0,1,4.41.66c.77.32,1.17.61,1.17,1s-.3.48-.68.53-.78.46-1.27,1.47a7.41,7.41,0,0,0-.75,3.52,17.07,17.07,0,0,0,.55,3.15,1.21,1.21,0,0,1-.82,1c-.21,0-.38-.23-.54-.23s-.09.25,0,.43a.62.62,0,0,1,0,.73c-.23.25-.53.6-.9.6s-.7-.91-1.13-.91Z" transform="translate(0)" fill="#212121"/><path d="M15,18c.62,0,1.52,2.27,1.87,2.27s.22-.19.4-.19.07.08-.2.57a23.71,23.71,0,0,0-1,2.24C15.68,23.86,15.35,25,15,25Z" transform="translate(0)" fill="#212121"/><path d="M16.4,23.54c0,.39.1.51.84.53a8.43,8.43,0,0,0,3-.68c.6-.33.92-.64.92-.82s-.18-.2-.39-.2a2.28,2.28,0,0,1-1.1-.64c-.16-.24.06-.41-.08-.73s-.69-.86-1-.86-.38.27-.64.7A26.31,26.31,0,0,0,16.4,23.54Z" transform="translate(0)" fill="#212121"/><path d="M18.56,19.52c0,.33.28.26,1.17.44a11,11,0,0,1,2.06.52c.32.17.58.14.7-.16s0-.61.15-.93.34-.4.5-.4.3.48.51.48.27-.27.29-.62.11-.15.28-.06,0-.16,0-.53a3,3,0,0,1,0-.67c0-.16.05-.07.19,0s.17,0,0-.46-.25-.79.07-.69,0-.15-.12-.52S24.11,14.34,24,14a.39.39,0,0,0-.68-.15,4.58,4.58,0,0,1-1.51,1.44A8.63,8.63,0,0,0,20,16.43a2.3,2.3,0,0,0-.5,1.39c0,.36.11.38.28.34s.39-.34.63-.34.19.17.19.35,0,.43-.51.46C19.34,18.68,18.56,19.1,18.56,19.52Z" transform="translate(0)" fill="#212121"/><path d="M21.3,12.33c-.19,0-.23,0-.21.09s.33.57.54.6.15-.18.15-.32S21.48,12.34,21.3,12.33Z" transform="translate(0)" fill="#212121"/><path d="M22.88,11.72a1.54,1.54,0,0,0-.76-1.13,1.11,1.11,0,0,0-1.09.23,3.76,3.76,0,0,0-1.3,1.94c-.17,1,0,1.38.31,1.7a1.57,1.57,0,0,0,1.14.44c.91,0,1.42-1,1.56-1.36A5.13,5.13,0,0,0,22.88,11.72Zm-1.71,2.45a1.06,1.06,0,1,1,1.06-1.06A1.06,1.06,0,0,1,21.17,14.17Z" transform="translate(0)" fill="#212121"/><path d="M21.36,7.27a1.6,1.6,0,0,1,1.37,1,.67.67,0,0,1-.09.69A.7.7,0,0,1,22,8.86c-.15-.09.09.1.15.31a.55.55,0,0,1-.13.58c-.16.13-.44.1-.73.19a2.63,2.63,0,0,0-1.12.94,9.76,9.76,0,0,0-.93,2.1c-.19.57-.31,1.11-.36.85a5,5,0,0,1,0-1c0-.21-.17.08-.21.28s0,.77-.19,0-.14-.48-.21-.92a5.52,5.52,0,0,1,.17-2,6.22,6.22,0,0,1,1.26-2.33A2,2,0,0,1,21.36,7.27Z" transform="translate(0)" fill="#212121"/></g><g id="left"><path d="M15,5a10.1,10.1,0,0,0-4.41.66c-.77.32-1.17.61-1.17,1s.3.48.68.53.78.46,1.27,1.47a7.41,7.41,0,0,1,.75,3.52,17.07,17.07,0,0,1-.55,3.15,1.21,1.21,0,0,0,.82,1c.21,0,.38-.23.54-.23s.09.25,0,.43a.62.62,0,0,0,0,.73c.23.25.53.6.9.6s.7-.91,1.13-.91Z" transform="translate(0)" fill="#212121"/><path d="M15,18c-.62,0-1.52,2.27-1.87,2.27s-.22-.19-.4-.19-.07.08.2.57a23.71,23.71,0,0,1,1,2.24c.39.94.72,2.08,1.07,2.08Z" transform="translate(0)" fill="#212121"/><path d="M13.6,23.54c0,.39-.1.51-.84.53a8.43,8.43,0,0,1-3-.68c-.6-.33-.92-.64-.92-.82s.18-.2.39-.2a2.28,2.28,0,0,0,1.1-.64c.16-.24-.06-.41.08-.73s.69-.86,1-.86.38.27.64.7A26.31,26.31,0,0,1,13.6,23.54Z" transform="translate(0)" fill="#212121"/><path d="M11.44,19.52c0,.33-.28.26-1.17.44a11,11,0,0,0-2.06.52c-.32.17-.58.14-.7-.16s0-.61-.15-.93S7,19,6.86,19s-.3.48-.51.48-.27-.27-.29-.62-.11-.15-.28-.06,0-.16,0-.53a3,3,0,0,0,0-.67c0-.16,0-.07-.19,0s-.17,0,0-.46.25-.79-.07-.69,0-.15.12-.52S5.89,14.34,6,14a.39.39,0,0,1,.68-.15A4.58,4.58,0,0,0,8.21,15.3a8.63,8.63,0,0,1,1.84,1.13,2.3,2.3,0,0,1,.5,1.39c0,.36-.11.38-.28.34s-.39-.34-.63-.34-.19.17-.19.35,0,.43.51.46C10.66,18.68,11.44,19.1,11.44,19.52Z" transform="translate(0)" fill="#212121"/><path d="M8.7,12.33c.19,0,.23,0,.21.09s-.33.57-.54.6-.15-.18-.15-.32S8.52,12.34,8.7,12.33Z" transform="translate(0)" fill="#212121"/><path d="M7.26,13.54c.14.37.65,1.32,1.56,1.36A1.57,1.57,0,0,0,10,14.46c.35-.32.48-.75.31-1.7A3.76,3.76,0,0,0,9,10.82a1.11,1.11,0,0,0-1.09-.23,1.54,1.54,0,0,0-.76,1.13A5.13,5.13,0,0,0,7.26,13.54Zm.51-.43a1.06,1.06,0,1,1,1.06,1.06A1.06,1.06,0,0,1,7.77,13.11Z" transform="translate(0)" fill="#212121"/><path d="M8.64,7.27a1.6,1.6,0,0,0-1.37,1,.67.67,0,0,0,.09.69A.7.7,0,0,0,8,8.86c.15-.09-.09.1-.15.31A.55.55,0,0,0,8,9.75c.16.13.44.1.73.19a2.63,2.63,0,0,1,1.12.94,9.76,9.76,0,0,1,.93,2.1c.19.57.31,1.11.36.85a5,5,0,0,0,0-1c0-.21.17.08.21.28s0,.77.19,0,.14-.48.21-.92a5.52,5.52,0,0,0-.17-2,6.22,6.22,0,0,0-1.26-2.33A2,2,0,0,0,8.64,7.27Z" transform="translate(0)" fill="#212121"/></g></g><g id="frame"><rect width="30" height="30" fill="none"/></g></svg>