<!-- Copyright (c) 2022 Jan Stehno -->
<svg xmlns="http://www.w3.org/2000/svg" viewBox="0 0 300 300"><title>easterncottontailrabbit</title><g id="easterncottontailrabbit"><g id="right"><path d="M150,120.15c9.14,0,10.95,1.24,15.17,7.1s18.22,12.75,19.29,15a17,17,0,0,1,1.45,7.9c0,3.44-5.52,16.14-9.69,16.14s-11.34,11.1-11.34,16.43,1.6,10.42,8.58,20.79,12.89,25.49,12.89,28.3-5,4.05-5,7.4,2.19,7.48,2.19,17.73-3.06,18.69-10.18,24-12.51,5.67-16.24,4.92-6.23-2.11-7.1-2.11V269.65c3.13,0,11.67-3.09,14.69-7.89s2.68-13.56,2.68-13.56S160,265.72,150,265.72Z" transform="translate(0)" fill="#212121"/><path d="M150,288.53c9.4,0,16-1.22,23.16-1.22s10,1.46,10,3.28S173.56,300,150,300Z" transform="translate(0)" fill="#212121"/><path d="M198,143.73a73.25,73.25,0,0,1-2.37-17.64c0-9.26,11.82-35.58,13.42-55.64s.58-38.39-6.1-53.8S195.11,0,193.37,0s-10.29,11.74-11.6,19.08.22,11.58-4.63,26.41S168.61,83.68,166.58,100s-2.6,20.81-1.39,22,16.43,11.78,19.56,11.78,2.52-4.87,4.51-19.12,5.81-21.57,7.85-33.2,1.07-16.38,1.07-16.38a38.83,38.83,0,0,1,3.39,14.83c0,7.75-8.53,29.18-8.53,39.26S193.81,134.38,198,143.73Z" transform="translate(0)" fill="#212121"/><path d="M184.8,204.65a26.61,26.61,0,0,1,7-18c7.61-8.28,10.32-8.33,10.32-13.86s-1.21-5.23-4.07-5.23-5.57-6.5-8.14-6.5-12.85,10.67-12.85,17.11S177.72,198.06,184.8,204.65Z" transform="translate(0)" fill="#212121"/><path d="M194.2,210.81a19.92,19.92,0,0,1-3.44-2.62,10.72,10.72,0,0,1-2.08-2.86s1.89,1.75,6.44,1.75,8.1-4.41,8.68-7.42a23.62,23.62,0,0,0,.43-5.38s8.58,9.89,8.58,29.95-14,44-17.06,44-8.14-6.3-8.82-14.34S185,242.48,185,240.16s4.51-4.78,4.51-7.35S183,218,183,215s1.6-4.77,4.79-4.77A39.81,39.81,0,0,1,194.2,210.81Z" transform="translate(0)" fill="#212121"/><path d="M198.89,188.88c1.64,0,1.27,11.85-1.53,11.85S194.2,188.88,198.89,188.88Z" transform="translate(0)" fill="#212121"/></g><g id="left"><path d="M150,120.15c-9.14,0-10.95,1.24-15.17,7.1s-18.22,12.75-19.29,15a17,17,0,0,0-1.45,7.9c0,3.44,5.52,16.14,9.69,16.14s11.34,11.1,11.34,16.43-1.6,10.42-8.58,20.79-12.89,25.49-12.89,28.3,5,4.05,5,7.4-2.19,7.48-2.19,17.73,3.06,18.69,10.18,24,12.51,5.67,16.24,4.92,6.23-2.11,7.1-2.11V269.65c-3.13,0-11.67-3.09-14.69-7.89s-2.68-13.56-2.68-13.56S140,265.72,150,265.72Z" transform="translate(0)" fill="#212121"/><path d="M150,288.53c-9.4,0-16-1.22-23.16-1.22s-10,1.46-10,3.28S126.44,300,150,300Z" transform="translate(0)" fill="#212121"/><path d="M102,143.73a73.25,73.25,0,0,0,2.37-17.64c0-9.26-11.82-35.58-13.42-55.64s-.58-38.39,6.1-53.8S104.89,0,106.63,0s10.29,11.74,11.6,19.08-.22,11.58,4.63,26.41,8.53,38.19,10.56,54.47,2.6,20.81,1.39,22-16.43,11.78-19.56,11.78-2.52-4.87-4.51-19.12-5.81-21.57-7.85-33.2-1.07-16.38-1.07-16.38A38.83,38.83,0,0,0,98.43,79.9c0,7.75,8.53,29.18,8.53,39.26S106.19,134.38,102,143.73Z" transform="translate(0)" fill="#212121"/><path d="M115.2,204.65a26.61,26.61,0,0,0-7-18c-7.61-8.28-10.32-8.33-10.32-13.86s1.21-5.23,4.07-5.23,5.57-6.5,8.14-6.5,12.85,10.67,12.85,17.11S122.28,198.06,115.2,204.65Z" transform="translate(0)" fill="#212121"/><path d="M105.8,210.81a19.92,19.92,0,0,0,3.44-2.62,10.72,10.72,0,0,0,2.08-2.86s-1.89,1.75-6.44,1.75-8.1-4.41-8.68-7.42a23.62,23.62,0,0,1-.43-5.38s-8.58,9.89-8.58,29.95,14,44,17.06,44,8.14-6.3,8.82-14.34S115,242.48,115,240.16s-4.51-4.78-4.51-7.35S117,218,117,215s-1.6-4.77-4.79-4.77A39.81,39.81,0,0,0,105.8,210.81Z" transform="translate(0)" fill="#212121"/><path d="M101.11,188.88c-1.64,0-1.27,11.85,1.53,11.85S105.8,188.88,101.11,188.88Z" transform="translate(0)" fill="#212121"/></g></g><g id="frame"><rect width="300" height="300" fill="none"/></g></svg>