<!-- Copyright (c) 2022 - 2023 Jan Stehno -->
<svg xmlns="http://www.w3.org/2000/svg" viewBox="0 0 300 300"><title>easterngraykangaroo</title><g id="easterngraykangaroo"><g id="right"><path d="M153.72,248.41c0,1.11,2.34-2,6.24-3.2s7.18-3.75,7.18-7.86-.07-2.12-3.15.51a34,34,0,0,1-6.28,4.51C155.78,243.47,153.72,246.59,153.72,248.41Z" transform="translate(0)" fill="#212121"/><path d="M186,169.55c0,2.39,4.78,7.45,9.55,7.45s7.08-6.71,8.26-13.13c1-5.46.34-5.39-4.25-5.39S186,166.21,186,169.55Z" transform="translate(0)" fill="#212121"/><path d="M281.69.62c-1.82-1.81-5.92.19-28.17,8.12s-37,19.29-46.41,29.51S186,70.91,179.22,83.7s-15.18,22-29.22,22V236.26c1.53,0,11.7-9.6,13.8-9.6s7.83,5,7.83,12.75-10,11.22-14,11.51-6.11,5.44-6.11,11.5.48,8,2.48,10,.24,3.49,10.6.52,13.91-5.47,18-12.92,2.29-15.15-3.72-23.27S167,221,167,212.37s3.1-11.45,3.1-23.81S163.75,163,169,170.13s6.54,21.1,3.62,33.47-2.24,17.14,6.26,27,11.75,15.28,11.75,22.21-10.46,18.71-14.19,21-7.73,3.67-11.36,8-5.92,5.82-15,5.82V300c5.83,0,11.27-.67,21.87-9.93s5.63-12,18.72-18.62,28.55-27.41,32.18-36.29.67-24.07-3-41.16-3.34-30.61-4.59-31.51-3.91-1.1-6.78,2.48-2.1,8-5.58,12.7-9,4.68-14.09,1S179,166.21,177.31,158.9s.77-1.86,3,1.1,2.44,3.68,3.92,1.82,3.62-4.3,11.88-7.55,7.5-1.48,17,2.39,8.88,2.15,4.16-2.29-4-4.39-2.1-4.92,2.72-.38-.29-1.81-2-3.25-2.34-7.4-5.83-9.55-5.83-11.46,11.75-3.63,20.44-8.41,14.52-13.46,26.64-25.69,18-33.51,23.69-54S283.5,2.44,281.69.62Zm-14.8,28.27c-3.54,13.84-5.92,22.53-15.66,33.9s-31.9,18.72-31.9,18.72,4.39.66,12.32-.77,12-4.15,12-4.15-.81,4.44-10,14.27a52.76,52.76,0,0,1-19.53,13.28,21.49,21.49,0,0,0,3.48.28,40.14,40.14,0,0,0,4.21-.28,32.37,32.37,0,0,1-3.25,3.58c-2,1.91-3.2,1.86-3.2,1.86a7.23,7.23,0,0,0,3.58,2.15,18.5,18.5,0,0,0,4.35.81s-12.23,6.21-24.83,6.21-20.25-.41-20.25-2.77c0-2.1.62-3.2,1.82-5.06s1.95-1.53,4.2-1.53a5.89,5.89,0,0,0,3-.52,4,4,0,0,1-.91-1.49,4.35,4.35,0,0,1,0-1.86,17.09,17.09,0,0,0,3.72.81,17.77,17.77,0,0,0,4.2-.19,25.07,25.07,0,0,1-3.29-2.19,5,5,0,0,1-1.67-2.53,50.32,50.32,0,0,0,9.79-1.2c5.92-1.24,7.25-3.29,7.25-3.29a41.48,41.48,0,0,1-8.45-2.25c-4.91-1.81-6.39-3.43-6.39-3.43a39.36,39.36,0,0,0,8.3-2.34,26.06,26.06,0,0,0,8.55-5.54,36.7,36.7,0,0,1-5.87,1.33,17.8,17.8,0,0,1-4.73,0s8.55-3.48,11.32-8.45a61.65,61.65,0,0,0,4.48-10.6,45,45,0,0,1-5.58,6.64c-4.16,4.3-7.78,4.82-7.78,4.82s7.92-20.91,14.7-27.21,5.06-7.55,12-14.23,24.55-14.23,34.29-17.48S270.42,15,266.89,28.89Z" transform="translate(0)" fill="#212121"/></g><g id="left"><path d="M146.28,248.41c0,1.11-2.34-2-6.24-3.2s-7.18-3.75-7.18-7.86.07-2.12,3.15.51a34,34,0,0,0,6.28,4.51C144.22,243.47,146.28,246.59,146.28,248.41Z" transform="translate(0)" fill="#212121"/><path d="M114,169.55c0,2.39-4.78,7.45-9.55,7.45s-7.08-6.71-8.26-13.13c-1-5.46-.34-5.39,4.25-5.39S114,166.21,114,169.55Z" transform="translate(0)" fill="#212121"/><path d="M22.51,40.63C28.24,61.17,34.07,82.46,46.2,94.68s18,20.92,26.64,25.69,20.44,6.5,20.44,8.41-5.54,7.3-5.83,11.46.67,6-2.34,7.4-2.2,1.29-.29,1.81,2.63.48-2.1,4.92-5.34,6.16,4.16,2.29,8.74-5.63,17-2.39,10.4,5.69,11.88,7.55,1.68,1.14,3.92-1.82,4.68-8.4,3-1.1-6.35,16.1-11.46,19.77-10.6,3.68-14.09-1-2.72-9.12-5.58-12.7-5.54-3.39-6.78-2.48-1,14.42-4.59,31.51-6.59,32.28-3,41.16,19.1,29.7,32.18,36.29,8.12,9.36,18.72,18.62S144.17,300,150,300V287.63c-9.12,0-11.41-1.48-15-5.82s-7.64-5.78-11.36-8-14.19-14-14.19-21,3.25-12.32,11.75-22.21,9.17-14.66,6.26-27-1.58-26.36,3.62-33.47-1.14,6.06-1.14,18.43,3.1,15.21,3.1,23.81-5.92,16.29-11.94,24.41-7.86,15.82-3.72,23.27,7.69,10,18,12.92,8.59,1.48,10.6-.52,2.48-4,2.48-10-2.15-11.22-6.11-11.5-14-3.73-14-11.51,5.73-12.75,7.83-12.75,12.27,9.6,13.8,9.6V105.67c-14,0-22.44-9.17-29.22-22S102.35,48.46,92.89,38.25,68.73,16.66,46.48,8.74,20.13-1.19,18.31.62,16.78,20.1,22.51,40.63ZM38.84,18.19C48.58,21.44,66.15,29,73.13,35.67s5.25,7.92,12,14.23,14.7,27.21,14.7,27.21-3.62-.52-7.78-4.82a45,45,0,0,1-5.58-6.64A61.65,61.65,0,0,0,91,76.25c2.77,5,11.32,8.45,11.32,8.45a17.8,17.8,0,0,1-4.73,0,36.7,36.7,0,0,1-5.87-1.33,26.06,26.06,0,0,0,8.55,5.54,39.36,39.36,0,0,0,8.3,2.34s-1.48,1.62-6.39,3.43a41.48,41.48,0,0,1-8.45,2.25S95,99,101,100.22a50.32,50.32,0,0,0,9.79,1.2,5,5,0,0,1-1.67,2.53,25.07,25.07,0,0,1-3.29,2.19,17.77,17.77,0,0,0,4.2.19,17.09,17.09,0,0,0,3.72-.81,4.35,4.35,0,0,1,0,1.86,4,4,0,0,1-.91,1.49,5.89,5.89,0,0,0,3,.52c2.25,0,3-.33,4.2,1.53s1.82,3,1.82,5.06c0,2.36-7.64,2.77-20.25,2.77s-24.83-6.21-24.83-6.21a18.5,18.5,0,0,0,4.35-.81,7.23,7.23,0,0,0,3.58-2.15s-1.19,0-3.2-1.86a32.37,32.37,0,0,1-3.25-3.58,40.14,40.14,0,0,0,4.21.28,21.49,21.49,0,0,0,3.48-.28A52.76,52.76,0,0,1,66.39,90.86c-9.21-9.83-10-14.27-10-14.27s4.05,2.72,12,4.15,12.32.77,12.32.77-22.15-7.36-31.9-18.72S36.65,42.73,33.11,28.89,29.1,15,38.84,18.19Z" transform="translate(0)" fill="#212121"/></g></g><g id="frame"><rect width="300" height="300" fill="none"/></g></svg>