<svg xmlns="http://www.w3.org/2000/svg" viewBox="0 0 30 30"><path d="M15.37,24.84c0,.11.24-.2.63-.32a.87.87,0,0,0,.71-.78c0-.42,0-.22-.31.05a3.71,3.71,0,0,1-.63.45A.92.92,0,0,0,15.37,24.84Z" transform="translate(0)" fill="#212121"/><path d="M18.6,17a1.1,1.1,0,0,0,1,.74c.47,0,.7-.67.82-1.31s0-.54-.42-.54S18.6,16.62,18.6,17Z" transform="translate(0)" fill="#212121"/><path d="M28.17.06c-.18-.18-.59,0-2.82.81a11.59,11.59,0,0,0-4.64,2.95,27,27,0,0,0-2.79,4.55c-.68,1.28-1.52,2.2-2.92,2.2V23.63c.15,0,1.17-1,1.38-1a1.29,1.29,0,0,1,.78,1.27c0,.78-1,1.12-1.4,1.15s-.61.55-.61,1.15,0,.8.25,1,0,.35,1.06.06A2.41,2.41,0,0,0,18.27,26a2,2,0,0,0-.38-2.33,4.47,4.47,0,0,1-1.19-2.44c0-.86.31-1.15.31-2.38S16.38,16.3,16.9,17a4.51,4.51,0,0,1,.36,3.35,2.41,2.41,0,0,0,.62,2.7c.85,1,1.18,1.53,1.18,2.22a3.89,3.89,0,0,1-1.42,2.1,3.78,3.78,0,0,0-1.14.8c-.36.44-.59.58-1.5.58V30a3,3,0,0,0,2.19-1c1.06-.93.56-1.21,1.87-1.87a9.27,9.27,0,0,0,3.22-3.62c.36-.89.06-2.41-.3-4.12s-.33-3.06-.46-3.15-.39-.11-.68.25-.21.8-.55,1.27a1,1,0,0,1-1.41.1,3.76,3.76,0,0,1-1.15-2c-.17-.73.08-.19.3.11s.25.37.39.18a2.5,2.5,0,0,1,1.19-.75c.83-.33.75-.15,1.7.24s.89.21.42-.23-.4-.44-.21-.49.27,0,0-.19-.21-.32-.24-.74-.58-.95-.58-1.14,1.18-.37,2-.84a15.1,15.1,0,0,0,2.66-2.57c1.21-1.22,1.8-3.35,2.37-5.41A8.65,8.65,0,0,0,28.17.06ZM26.69,2.89a7,7,0,0,1-1.57,3.39,8.6,8.6,0,0,1-3.19,1.87,4,4,0,0,0,1.23-.08,3.33,3.33,0,0,0,1.2-.41,3.71,3.71,0,0,1-1,1.43,5.24,5.24,0,0,1-1.95,1.32,2,2,0,0,0,.35,0,3.87,3.87,0,0,0,.42,0,3.43,3.43,0,0,1-.33.36c-.2.19-.32.19-.32.19a.72.72,0,0,0,.36.21,1.56,1.56,0,0,0,.43.08,6.29,6.29,0,0,1-2.48.62c-1.26,0-2,0-2-.27a.84.84,0,0,1,.18-.51c.12-.18.19-.15.42-.15a.62.62,0,0,0,.3,0,.38.38,0,0,1-.09-.15.37.37,0,0,1,0-.19,1.78,1.78,0,0,0,.37.08,1.75,1.75,0,0,0,.42,0,2.09,2.09,0,0,1-.33-.22.48.48,0,0,1-.17-.25,4.5,4.5,0,0,0,1-.12c.6-.12.73-.33.73-.33a4.19,4.19,0,0,1-.85-.22,1.68,1.68,0,0,1-.64-.35A3.53,3.53,0,0,0,20,8.89a2.66,2.66,0,0,0,.85-.55,3.46,3.46,0,0,1-.59.13,2,2,0,0,1-.47,0,2.75,2.75,0,0,0,1.13-.84,6.13,6.13,0,0,0,.45-1.06,4.35,4.35,0,0,1-.56.66,1.48,1.48,0,0,1-.78.48A10.56,10.56,0,0,1,21.48,5c.68-.63.51-.75,1.21-1.42a11.22,11.22,0,0,1,3.43-1.75C27.09,1.49,27,1.5,26.69,2.89Z" transform="translate(0)" fill="#212121"/><path d="M14.63,24.84c0,.11-.24-.2-.63-.32a.87.87,0,0,1-.71-.78c0-.42,0-.22.31.05a3.71,3.71,0,0,0,.63.45A.92.92,0,0,1,14.63,24.84Z" transform="translate(0)" fill="#212121"/><path d="M11.4,17a1.1,1.1,0,0,1-1,.74c-.47,0-.7-.67-.82-1.31s0-.54.42-.54S11.4,16.62,11.4,17Z" transform="translate(0)" fill="#212121"/><path d="M2.25,4.06c.57,2.06,1.16,4.19,2.37,5.41A15.1,15.1,0,0,0,7.28,12c.87.47,2.05.65,2.05.84s-.56.73-.58,1.14.06.6-.24.74-.22.13,0,.19.27,0-.21.49-.53.61.42.23.87-.57,1.7-.24a2.5,2.5,0,0,1,1.19.75c.14.19.16.12.39-.18s.47-.84.3-.11a3.76,3.76,0,0,1-1.15,2,1,1,0,0,1-1.41-.1c-.34-.47-.27-.91-.55-1.27s-.56-.34-.68-.25S8.38,17.69,8,19.4s-.66,3.23-.3,4.12a9.27,9.27,0,0,0,3.22,3.62c1.31.66.81.94,1.87,1.87A3,3,0,0,0,15,30V28.76c-.91,0-1.14-.14-1.5-.58a3.78,3.78,0,0,0-1.14-.8,3.89,3.89,0,0,1-1.42-2.1c0-.69.33-1.23,1.18-2.22a2.41,2.41,0,0,0,.62-2.7A4.51,4.51,0,0,1,13.1,17c.52-.71-.11.61-.11,1.85s.31,1.52.31,2.38a4.47,4.47,0,0,1-1.19,2.44A2,2,0,0,0,11.73,26a2.41,2.41,0,0,0,1.81,1.29c1,.29.86.15,1.06-.06s.25-.39.25-1-.22-1.12-.61-1.15-1.4-.37-1.4-1.15a1.29,1.29,0,0,1,.78-1.27c.21,0,1.23,1,1.38,1V10.57c-1.4,0-2.24-.92-2.92-2.2A27,27,0,0,0,9.29,3.82,11.59,11.59,0,0,0,4.65.87C2.42.08,2-.12,1.83.06A8.65,8.65,0,0,0,2.25,4.06ZM3.88,1.82A11.22,11.22,0,0,1,7.31,3.57c.7.67.53.79,1.21,1.42A10.56,10.56,0,0,1,10,7.71a1.48,1.48,0,0,1-.78-.48,4.35,4.35,0,0,1-.56-.66A6.13,6.13,0,0,0,9.1,7.63a2.75,2.75,0,0,0,1.13.84,2,2,0,0,1-.47,0,3.46,3.46,0,0,1-.59-.13,2.66,2.66,0,0,0,.85.55,3.53,3.53,0,0,0,.84.23,1.68,1.68,0,0,1-.64.35,4.19,4.19,0,0,1-.85.22s.13.21.73.33a4.5,4.5,0,0,0,1,.12.48.48,0,0,1-.17.25,2.09,2.09,0,0,1-.33.22,1.75,1.75,0,0,0,.42,0,1.78,1.78,0,0,0,.37-.08.37.37,0,0,1,0,.19.38.38,0,0,1-.09.15.62.62,0,0,0,.3,0c.23,0,.3,0,.42.15a.84.84,0,0,1,.18.51c0,.23-.76.27-2,.27a6.29,6.29,0,0,1-2.48-.62,1.56,1.56,0,0,0,.43-.08A.72.72,0,0,0,8.47,11s-.12,0-.32-.19a3.43,3.43,0,0,1-.33-.36,3.87,3.87,0,0,0,.42,0,2,2,0,0,0,.35,0A5.24,5.24,0,0,1,6.64,9.09a3.71,3.71,0,0,1-1-1.43,3.33,3.33,0,0,0,1.2.41,4,4,0,0,0,1.23.08A8.6,8.6,0,0,1,4.88,6.28,7,7,0,0,1,3.31,2.89C3,1.5,2.91,1.49,3.88,1.82Z" transform="translate(0)" fill="#212121"/><rect width="30" height="30" fill="none"/></svg>