<svg xmlns="http://www.w3.org/2000/svg" viewBox="0 0 30 30"><path d="M15,12c.91,0,1.1.12,1.52.71s1.82,1.27,1.93,1.49a1.83,1.83,0,0,1,.14.79c0,.35-.55,1.62-1,1.62s-1.13,1.11-1.13,1.64a3.6,3.6,0,0,0,.86,2.08,9.81,9.81,0,0,1,1.29,2.83c0,.28-.51.4-.51.74a11.45,11.45,0,0,1,.22,1.77,2.8,2.8,0,0,1-1,2.4,2,2,0,0,1-1.62.49c-.37-.07-.62-.21-.71-.21V27a2.21,2.21,0,0,0,1.47-.78,3,3,0,0,0,.27-1.36S16,26.57,15,26.57Z" transform="translate(0)" fill="#212121"/><path d="M15,28.85c.94,0,1.6-.12,2.32-.12s1,.15,1,.33S17.36,30,15,30Z" transform="translate(0)" fill="#212121"/><path d="M19.8,14.37a7.24,7.24,0,0,1-.24-1.76c0-.93,1.18-3.56,1.34-5.57a11.3,11.3,0,0,0-.61-5.38C19.62.12,19.51,0,19.34,0a3.82,3.82,0,0,0-1.16,1.91,10.26,10.26,0,0,1-.47,2.64A33.9,33.9,0,0,0,16.66,10c-.21,1.62-.26,2.08-.14,2.2a8.5,8.5,0,0,0,2,1.18c.31,0,.25-.49.45-1.92s.58-2.15.78-3.32a5.25,5.25,0,0,0,.11-1.63A3.82,3.82,0,0,1,20.16,8c0,.78-.86,2.92-.86,3.93A5,5,0,0,0,19.8,14.37Z" transform="translate(0)" fill="#212121"/><path d="M18.48,20.47a2.67,2.67,0,0,1,.7-1.81c.76-.83,1-.83,1-1.38s-.13-.53-.41-.53-.56-.65-.82-.65a2.68,2.68,0,0,0-1.28,1.71A3.88,3.88,0,0,0,18.48,20.47Z" transform="translate(0)" fill="#212121"/><path d="M19.42,21.08a2.06,2.06,0,0,1-.34-.26,1,1,0,0,1-.21-.29,1,1,0,0,0,.64.18,1,1,0,0,0,.87-.74,2.15,2.15,0,0,0,0-.54,4.74,4.74,0,0,1,.86,3c0,2-1.39,4.4-1.7,4.4s-.82-.63-.89-1.43S18.5,24.25,18.5,24s.45-.48.45-.74-.65-1.48-.65-1.78a.43.43,0,0,1,.48-.48A4,4,0,0,1,19.42,21.08Z" transform="translate(0)" fill="#212121"/><path d="M19.89,18.89c.16,0,.13,1.18-.15,1.18S19.42,18.89,19.89,18.89Z" transform="translate(0)" fill="#212121"/><path d="M15,12c-.91,0-1.1.12-1.52.71S11.66,14,11.55,14.22a1.83,1.83,0,0,0-.14.79c0,.35.55,1.62,1,1.62s1.13,1.11,1.13,1.64a3.6,3.6,0,0,1-.86,2.08,9.81,9.81,0,0,0-1.29,2.83c0,.28.51.4.51.74a11.45,11.45,0,0,0-.22,1.77,2.8,2.8,0,0,0,1,2.4,2,2,0,0,0,1.62.49c.37-.07.62-.21.71-.21V27a2.21,2.21,0,0,1-1.47-.78,3,3,0,0,1-.27-1.36S14,26.57,15,26.57Z" transform="translate(0)" fill="#212121"/><path d="M15,28.85c-.94,0-1.6-.12-2.32-.12s-1,.15-1,.33,1,.94,3.32.94Z" transform="translate(0)" fill="#212121"/><path d="M10.2,14.37a7.24,7.24,0,0,0,.24-1.76c0-.93-1.18-3.56-1.34-5.57a11.3,11.3,0,0,1,.61-5.38C10.38.12,10.49,0,10.66,0a3.82,3.82,0,0,1,1.16,1.91,10.26,10.26,0,0,0,.47,2.64A33.9,33.9,0,0,1,13.34,10c.21,1.62.26,2.08.14,2.2a8.5,8.5,0,0,1-2,1.18c-.31,0-.25-.49-.45-1.92s-.58-2.15-.78-3.32a5.25,5.25,0,0,1-.11-1.63A3.82,3.82,0,0,0,9.84,8c0,.78.86,2.92.86,3.93A5,5,0,0,1,10.2,14.37Z" transform="translate(0)" fill="#212121"/><path d="M11.52,20.47a2.67,2.67,0,0,0-.7-1.81c-.76-.83-1-.83-1-1.38s.13-.53.41-.53.56-.65.82-.65a2.68,2.68,0,0,1,1.28,1.71A3.88,3.88,0,0,1,11.52,20.47Z" transform="translate(0)" fill="#212121"/><path d="M10.58,21.08a2.06,2.06,0,0,0,.34-.26,1,1,0,0,0,.21-.29,1,1,0,0,1-.64.18A1,1,0,0,1,9.62,20a2.15,2.15,0,0,1,0-.54,4.74,4.74,0,0,0-.86,3c0,2,1.39,4.4,1.7,4.4s.82-.63.89-1.43.19-1.14.19-1.37-.45-.48-.45-.74.65-1.48.65-1.78a.43.43,0,0,0-.48-.48A4,4,0,0,0,10.58,21.08Z" transform="translate(0)" fill="#212121"/><path d="M10.11,18.89c-.16,0-.13,1.18.15,1.18S10.58,18.89,10.11,18.89Z" transform="translate(0)" fill="#212121"/><rect width="30" height="30" fill="none"/></svg>