<!-- Copyright (c) 2023 Jan Stehno -->
<svg xmlns="http://www.w3.org/2000/svg" viewBox="0 0 300 300">
    <title>eurasianlynx</title>
    <g id="eurasianlynx">
        <g id="right">
            <path
                d="M186,138.4a3.2,3.2,0,0,1,.63-.07,3.86,3.86,0,1,1-2.53,1c-6.67,3.37-7.08,5.9-7.08,7.36s.83,6.17,9.39,5.11S197.6,146.15,197.6,140C197.6,134.07,192.85,135.22,186,138.4Z"
                transform="translate(0)" fill="#212121" />
            <path
                d="M150,223.5c3.48,0,8.14.71,14.27,1.6s11.73-.24,11.73,1.07-5.85,5.88-5.85,7.1a2.94,2.94,0,0,0,1.3,2.08s-2.6,0-3.62,1.06,0,4.4,0,4.4-2.9-.86-3.77,0,0,2.94,0,2.94a13.33,13.33,0,0,0-3.89-.66c-2,0-5.61,2.08-10.13,2.08Z"
                transform="translate(0)" fill="#212121" />
            <path
                d="M154.71,204.2c0-3.35,1.73-8.3,5-8.3s2.75,2.28,2.75,4.92-2.7,5.56-4.9,5.56S154.71,205.2,154.71,204.2Z"
                transform="translate(0)" fill="#212121" />
            <path
                d="M247.36,34.76c8.48-3.09,12.41-6,12.41-6a64.18,64.18,0,0,1-10.32,3.56A85.87,85.87,0,0,1,237,34.18a59.26,59.26,0,0,1,13.51-7c7.8-2.83,19.06-3.77,19.06-3.77a67,67,0,0,0-16.13.89,71.06,71.06,0,0,0-11.92,3.22A83.58,83.58,0,0,0,249,23.45c7.38-4.4,13.27-12.61,13.27-12.61a128.7,128.7,0,0,1-11.5,9c-7.58,5.38-11.32,6-11.32,6s1.38-1.13,5.42-5.22,6.56-10.88,6.56-10.88a53.26,53.26,0,0,1-5.93,7.5,47,47,0,0,1-7.19,6.29,43.55,43.55,0,0,1,4.29-10.14C245.68,8.13,253.77,0,253.77,0a39.7,39.7,0,0,0-13,11.55,111.08,111.08,0,0,0-9.54,15.59A47.36,47.36,0,0,1,232.88,17a150.43,150.43,0,0,1,5.53-15.32,54.4,54.4,0,0,0-5.85,10.84c-2.43,6.17-5.68,19.34-7,20.65s-18.85,9.79-28.86,20.11-24,29.78-24,29.78,5.34.12,13.12,5.58,15.59,14.73,15.59,14.73S184.72,84.64,150,84.64v66.12l13-9.11-6,18.48-2-3.66-5,6.28v23.78c6.81-.11,10,1.1,11.33,2.38s3.23,6.1,5,6.1a6.55,6.55,0,0,0,3-.68s-3.4,5.4-3.4,9.58-11.83,9.56-11.83,12.12,4.47,6.63,13.9,6.63,8.6-2.08,8.6-2.08a5.14,5.14,0,0,0,5.22-1.1,4.8,4.8,0,0,0,1.38-4.75,9.74,9.74,0,0,0,6.87-.55c3.15-1.73,11.83-14.3,11.83-14.3a17.55,17.55,0,0,1-4.76.83,8.18,8.18,0,0,1-3.65-.75s10-4.08,13-4.08,5.22,4.2,5.22,4.2a7.15,7.15,0,0,0-2.86-.59,7.28,7.28,0,0,0-2.28.24s10.94,10.44,10.94,12.74-3.67,3.67-3.67,3.67l1.41,3.15s-1.61-1.5-5.3-1.89a22.17,22.17,0,0,0-6.29.16,43.87,43.87,0,0,1,11.73,10.94,33.11,33.11,0,0,0-6.2,1.89,18.9,18.9,0,0,0-4.17,2.25l2.36,4.87a38.66,38.66,0,0,0-6.54-4.09,75.32,75.32,0,0,0-9.3-3.45,47.49,47.49,0,0,1,10,7.41,38,38,0,0,1,6.15,8,17.75,17.75,0,0,0-3.85-2.51,28.6,28.6,0,0,0-4.34-1.26,13.05,13.05,0,0,1,2.69,4.82,30,30,0,0,1,.92,6s-1.23-3-6.73-8.46a33,33,0,0,0-10.4-7.28,18.41,18.41,0,0,1,3.54,3.88,27,27,0,0,1,1.62,3.87h-3.43a20.53,20.53,0,0,1,2.62,3.22,12.25,12.25,0,0,1,1,3.75,7.12,7.12,0,0,0-3.19-1.6,16,16,0,0,0-4.27-.34,13.06,13.06,0,0,1,3.41,3.38,33,33,0,0,1,1.93,3.38,28.91,28.91,0,0,1-5.46-.44,28.25,28.25,0,0,1-4.09-1.41l.36,4.56a18.26,18.26,0,0,1-9.31-5.15,59.15,59.15,0,0,1-5.89-7.42l-.83,3.81s-.9-2.63-2.82-2.63-2.72,2.74-2.72,2.74l-.82-2.39a14.73,14.73,0,0,1-3.85,2.36,13.29,13.29,0,0,1-3.77.55v46.08a43.94,43.94,0,0,1,4.5-4.82,18.53,18.53,0,0,1,3.93-2s-.16,2.46-.21,5a17.89,17.89,0,0,0,.66,4.91s1.49-3.85,2.75-7.27a34.65,34.65,0,0,1,3.1-6.24,4.82,4.82,0,0,1,1.69,2.51l.59,3.18a16.35,16.35,0,0,1,4.2-6.52,13.71,13.71,0,0,1,7.31-3.22,17.09,17.09,0,0,0-.51,3.77,24.42,24.42,0,0,0,.27,3.5s1.92-3.1,3.65-5.26a12.6,12.6,0,0,1,4.24-3.26,30.93,30.93,0,0,0-2.27,6,22.23,22.23,0,0,0-.55,4.16,14.78,14.78,0,0,1,3.34-3.06,17.12,17.12,0,0,1,3.18-1.5s0,2.91.11,5.34a26.31,26.31,0,0,0,.63,4.29s1.5-4.64,3-9.27a14.76,14.76,0,0,1,5-7,11.19,11.19,0,0,1,.62,5.18,31.94,31.94,0,0,1-.94,4.79,15.27,15.27,0,0,0,5.42-6.91c1.73-4.56.63-10.88.63-10.88s1.65.08,4.48,3.77a17.25,17.25,0,0,1,3.3,7.62,84.55,84.55,0,0,0,1.57-15.32,77.72,77.72,0,0,0-2-15.94,13.54,13.54,0,0,1,6.45,8.79c1.41,6.29,2,17,2,17a130.06,130.06,0,0,0,2.12-21.13,75.42,75.42,0,0,0-3.27-20.24,42.86,42.86,0,0,0,3.19,5.6,17,17,0,0,0,4.29,4.71,35.23,35.23,0,0,1-3.08-8.53,20.67,20.67,0,0,1-.32-7.39,15.47,15.47,0,0,1,5.55,6.81c2.25,4.92,3.2,13.67,3.2,13.67a53.19,53.19,0,0,0-.58-16.13c-1.68-8.9-6.76-18.59-6.76-18.59s1.58,0,5.61,5.76A66.57,66.57,0,0,1,236.72,235a63.16,63.16,0,0,0-2.72-9.74,77.34,77.34,0,0,0-5-10.37s3.56,1.52,8.48,9.43a138.46,138.46,0,0,1,7.62,13.77s-8-25.84-16.5-37.16-19.79-12.76-19.79-12.76l7.7,6.09-13-4,3.51,3.5H195.54l2.34-2.33-7.35-3.14h9.39l-3.65-3.42,2.12-1.46-4.71-7.06,10.92-11.79h3.22l3.85-7.58,3.06,5.81h3.81l-3.81,6.92h8.72L219,175.26l7.74,5.3s1.73-4.09-.24-13.75-11.78-21.5-13.51-21.5-1.83,3.67-6.13,5.61a27,27,0,0,1-6.8,2.25,87.82,87.82,0,0,0,7.38-7.18c3-3.4,3.4-4.29,2.15-5.55s-7.28-1.62-8.59-.31-1.26,4-3.41,9.11-8.48,6.7-11.15,6.7-2.78-2.2-5.81-2.2-6.86,7.13-6.86,7.13a60.16,60.16,0,0,1,0-10.74c.57-4.4,2.14-10.37,8.95-12.72a34.48,34.48,0,0,0,11-6.18s4.29,4.34,8.85,4.34,8.22-1,18,12,9.82,20.82,9.82,29.54,2.36,13.59,6.83,24.35a173.85,173.85,0,0,0,11.55,22s-2.43-5.81-4.79-13a134.51,134.51,0,0,1-3.8-15l6.71,7.17a39.36,39.36,0,0,1-4.09-8.17c-1.73-4.76-2.62-8.22-2.62-8.22l5.53-2s-2.59-2.51-8.33-15.16S232,149,232,149l4.92,3.35a31.3,31.3,0,0,1-2.56-5.71,14.13,14.13,0,0,1-.84-5.55l6.7-.94s-8.48-4.32-8.48-17.05,9.42-16.26,9.42-18.22-4.71-6.52-4.71-8.17,2.75-1.81,2.75-4.08-2-5-2-7.47,3.22-2.75,3.22-10.37-6-28.54-6-31.94S238.87,37.85,247.36,34.76ZM168.43,139.55a16.71,16.71,0,0,1,.74-5.18c.82-2.44,4-4.52,4-4.52l-5.1-4.75s4.32-.08,4.32-1.85-4.64-20.3-4.64-20.3S179,122.39,179,126.43,168.43,139.55,168.43,139.55Zm20.25-15.66c-3.57,0-7.34,3.62-7.34,3.62s2.12-8.25,6.37-8.25,14,10.76,14,10.76S192.24,123.89,188.68,123.89Zm47.84-59-4.19,3.67,2.25,3.19L232,74.56l3,4.77-3.41,6.33-7.7-7.17,3.57,22.05,3.61-.68-2.88,6.49v13l-8.22-9V99.75l-5,8.85-4-3,2.31-9-8.44,1,11-7.69-13.41,3.77,3.51-7H195.56l3.72-2.56L197.81,81l17.29-2.46-13.41-3.72,15.55-2.46-12.83-6.13,8.8-2-3.77-5.55L218,55.71,215.31,53l5.6-7.34h3.87V42.3l6.24,5,1.36,8.85Z"
                transform="translate(0)" fill="#212121" />
        </g>
        <g id="left">
            <path
                d="M114,138.4a3.2,3.2,0,0,0-.63-.07,3.86,3.86,0,1,0,2.53,1c6.67,3.37,7.08,5.9,7.08,7.36s-.83,6.17-9.39,5.11S102.4,146.15,102.4,140C102.4,134.07,107.15,135.22,114,138.4Z"
                transform="translate(0)" fill="#212121" />
            <path
                d="M150,223.5c-3.48,0-8.14.71-14.27,1.6S124,224.86,124,226.17s5.85,5.88,5.85,7.1a2.94,2.94,0,0,1-1.3,2.08s2.6,0,3.62,1.06,0,4.4,0,4.4,2.9-.86,3.77,0,0,2.94,0,2.94a13.33,13.33,0,0,1,3.89-.66c2,0,5.61,2.08,10.13,2.08Z"
                transform="translate(0)" fill="#212121" />
            <path
                d="M145.29,204.2c0-3.35-1.73-8.3-5-8.3s-2.75,2.28-2.75,4.92,2.7,5.56,4.9,5.56S145.29,205.2,145.29,204.2Z"
                transform="translate(0)" fill="#212121" />
            <path
                d="M65.68,42.88c0,3.4-6,24.32-6,31.94s3.22,7.86,3.22,10.37-2,5.19-2,7.47,2.75,2.43,2.75,4.08-4.71,6.21-4.71,8.17,9.42,5.5,9.42,18.22-8.48,17.05-8.48,17.05l6.7.94a14.13,14.13,0,0,1-.84,5.55,31.3,31.3,0,0,1-2.56,5.71L68,149s.26,7.33-5.47,20-8.33,15.16-8.33,15.16l5.53,2s-.89,3.46-2.62,8.22a39.36,39.36,0,0,1-4.09,8.17l6.71-7.17a134.51,134.51,0,0,1-3.8,15c-2.36,7.23-4.79,13-4.79,13a173.85,173.85,0,0,0,11.55-22c4.47-10.76,6.83-15.63,6.83-24.35s0-16.57,9.82-29.54,13.48-12,18-12,8.85-4.34,8.85-4.34a34.48,34.48,0,0,0,11,6.18c6.81,2.35,8.38,8.32,9,12.72a60.16,60.16,0,0,1,0,10.74s-3.82-7.13-6.86-7.13-3.14,2.2-5.81,2.2-9-1.62-11.15-6.7-2.1-7.8-3.41-9.11-7.33-.94-8.59.31-.83,2.15,2.15,5.55a87.82,87.82,0,0,0,7.38,7.18,27,27,0,0,1-6.8-2.25c-4.3-1.94-4.4-5.61-6.13-5.61s-11.55,11.84-13.51,21.5-.24,13.75-.24,13.75l7.74-5.3-4.44-5.54h8.72l-3.81-6.92h3.81L88.33,157l3.85,7.58H95.4l10.92,11.79-4.71,7.06,2.12,1.46-3.65,3.42h9.39l-7.35,3.14,2.34,2.33H92.93l3.51-3.5-13,4,7.7-6.09s-11.31,1.45-19.79,12.76-16.5,37.16-16.5,37.16a138.46,138.46,0,0,1,7.62-13.77c4.92-7.91,8.48-9.43,8.48-9.43a77.34,77.34,0,0,0-5,10.37A63.16,63.16,0,0,0,63.28,235a66.57,66.57,0,0,1,6.54-12.15c4-5.76,5.61-5.76,5.61-5.76s-5.08,9.69-6.76,18.59a53.19,53.19,0,0,0-.58,16.13s1-8.75,3.2-13.67a15.47,15.47,0,0,1,5.55-6.81,20.67,20.67,0,0,1-.32,7.39,35.23,35.23,0,0,1-3.08,8.53,17,17,0,0,0,4.29-4.71,42.86,42.86,0,0,0,3.19-5.6,75.42,75.42,0,0,0-3.27,20.24,130.06,130.06,0,0,0,2.12,21.13s.63-10.76,2-17a13.54,13.54,0,0,1,6.45-8.79,77.72,77.72,0,0,0-2,15.94,84.55,84.55,0,0,0,1.57,15.32,17.25,17.25,0,0,1,3.3-7.62c2.83-3.69,4.48-3.77,4.48-3.77s-1.1,6.32.63,10.88a15.27,15.27,0,0,0,5.42,6.91,31.94,31.94,0,0,1-.94-4.79,11.19,11.19,0,0,1,.62-5.18,14.76,14.76,0,0,1,5,7c1.53,4.63,3,9.27,3,9.27a26.31,26.31,0,0,0,.63-4.29c.15-2.43.11-5.34.11-5.34a17.12,17.12,0,0,1,3.18,1.5,14.78,14.78,0,0,1,3.34,3.06,22.23,22.23,0,0,0-.55-4.16,30.93,30.93,0,0,0-2.27-6,12.6,12.6,0,0,1,4.24,3.26c1.73,2.16,3.65,5.26,3.65,5.26a24.42,24.42,0,0,0,.27-3.5,17.09,17.09,0,0,0-.51-3.77,13.71,13.71,0,0,1,7.31,3.22,16.35,16.35,0,0,1,4.2,6.52l.59-3.18a4.82,4.82,0,0,1,1.69-2.51,34.65,34.65,0,0,1,3.1,6.24c1.26,3.42,2.75,7.27,2.75,7.27a17.89,17.89,0,0,0,.66-4.91c-.05-2.57-.21-5-.21-5a18.53,18.53,0,0,1,3.93,2,43.94,43.94,0,0,1,4.5,4.82V250.79a13.29,13.29,0,0,1-3.77-.55,14.73,14.73,0,0,1-3.85-2.36l-.82,2.39s-.79-2.74-2.72-2.74-2.82,2.63-2.82,2.63l-.83-3.81a59.15,59.15,0,0,1-5.89,7.42,18.26,18.26,0,0,1-9.31,5.15l.36-4.56a28.25,28.25,0,0,1-4.09,1.41,28.91,28.91,0,0,1-5.46.44,33,33,0,0,1,1.93-3.38,13.06,13.06,0,0,1,3.41-3.38,16,16,0,0,0-4.27.34,7.12,7.12,0,0,0-3.19,1.6,12.25,12.25,0,0,1,1-3.75,20.53,20.53,0,0,1,2.62-3.22h-3.43a27,27,0,0,1,1.62-3.87,18.41,18.41,0,0,1,3.54-3.88A33,33,0,0,0,103.6,244c-5.5,5.45-6.73,8.46-6.73,8.46a30,30,0,0,1,.92-6,13.05,13.05,0,0,1,2.69-4.82,28.6,28.6,0,0,0-4.34,1.26,17.75,17.75,0,0,0-3.85,2.51,38,38,0,0,1,6.15-8,47.49,47.49,0,0,1,10-7.41,75.32,75.32,0,0,0-9.3,3.45,38.66,38.66,0,0,0-6.54,4.09L95,232.64a18.9,18.9,0,0,0-4.17-2.25,33.11,33.11,0,0,0-6.2-1.89,43.87,43.87,0,0,1,11.73-10.94,22.17,22.17,0,0,0-6.29-.16c-3.69.39-5.3,1.89-5.3,1.89l1.41-3.15s-3.67-1.37-3.67-3.67,10.94-12.74,10.94-12.74a7.28,7.28,0,0,0-2.28-.24,7.15,7.15,0,0,0-2.86.59s2.19-4.2,5.22-4.2,13,4.08,13,4.08a8.18,8.18,0,0,1-3.65.75,17.55,17.55,0,0,1-4.76-.83s8.68,12.57,11.83,14.3a9.74,9.74,0,0,0,6.87.55,4.8,4.8,0,0,0,1.38,4.75,5.14,5.14,0,0,0,5.22,1.1s-.83,2.08,8.6,2.08,13.9-4.08,13.9-6.63-11.83-7.93-11.83-12.12-3.4-9.58-3.4-9.58a6.55,6.55,0,0,0,3,.68c1.78,0,3.73-4.82,5-6.1s4.52-2.49,11.33-2.38V162.75l-5-6.28-2,3.66-6-18.48,13,9.11V84.64c-34.72,0-51.45,18.7-51.45,18.7s7.81-9.27,15.59-14.73S127.26,83,127.26,83s-14-19.47-24-29.78S75.74,34.45,74.43,33.14s-4.56-14.48-7-20.65A54.4,54.4,0,0,0,61.59,1.65,150.43,150.43,0,0,1,67.12,17a47.36,47.36,0,0,1,1.69,10.17,111.08,111.08,0,0,0-9.54-15.59A39.7,39.7,0,0,0,46.23,0s8.09,8.13,11.15,13.39a43.55,43.55,0,0,1,4.29,10.14,47,47,0,0,1-7.19-6.29,53.26,53.26,0,0,1-5.93-7.5s2.51,6.8,6.56,10.88,5.42,5.22,5.42,5.22-3.74-.62-11.32-6a128.7,128.7,0,0,1-11.5-9S43.6,19.05,51,23.45a83.58,83.58,0,0,0,7.51,4.06,71.06,71.06,0,0,0-11.92-3.22,67,67,0,0,0-16.13-.89s11.26.94,19.06,3.77a59.26,59.26,0,0,1,13.51,7A85.87,85.87,0,0,1,50.55,32.3a64.18,64.18,0,0,1-10.32-3.56s3.93,2.93,12.41,6S65.68,39.47,65.68,42.88ZM121,126.43c0-4,11.28-23.48,11.28-23.48s-4.64,18.53-4.64,20.3,4.32,1.85,4.32,1.85l-5.1,4.75s3.18,2.08,4,4.52a16.71,16.71,0,0,1,.74,5.18S121,130.48,121,126.43ZM98.28,130s9.77-10.76,14-10.76,6.37,8.25,6.37,8.25-3.77-3.62-7.34-3.62S98.28,130,98.28,130ZM67.62,56.18,69,47.33l6.24-5v3.35h3.87L84.69,53,82,55.71l8.54,2.93-3.77,5.55,8.8,2L82.76,72.31l15.55,2.46L84.9,78.49,102.19,81l-1.47,3.2,3.72,2.56H94l3.51,7L84.12,89.91l11,7.69-8.44-1,2.31,9-4,3-5-8.85v10.63l-8.22,9v-13l-2.88-6.49,3.61.68,3.57-22.05-7.7,7.17L65,79.33l3-4.77-2.57-2.83,2.25-3.19-4.19-3.67Z"
                transform="translate(0)" fill="#212121" />
        </g>
    </g>
    <g id="frame">
        <rect width="300" height="300" fill="none" />
    </g>
</svg>