<svg xmlns="http://www.w3.org/2000/svg" viewBox="0 0 30 30"><path d="M18.66,11.18c0-.78.06-1.07.88-1.37a2.1,2.1,0,0,0,1.4-1.63,6.63,6.63,0,0,0,.26-1.11,13.69,13.69,0,0,1,.66,2.16,14.69,14.69,0,0,1,.43,2.38,5,5,0,0,1-1.35,3.06,10.08,10.08,0,0,1-1.4,1.5A3.8,3.8,0,0,0,19.76,15a4,4,0,0,0-.6-1.95A3,3,0,0,1,18.66,11.18Z" transform="translate(0)" fill="#212121"/><path d="M19.37,1.71A5.53,5.53,0,0,0,15,0V12.59c.3-.54,1.42-1.8,1.95-1.8s1.47,1.77,1.47,1.77a7.5,7.5,0,0,1-.4-2.33,31.72,31.72,0,0,0,.37-4.78,28.49,28.49,0,0,0-1.49-5,13.33,13.33,0,0,1,1,1.84,12.85,12.85,0,0,1,1,3.52c.09,1.17-.11,2.52,0,3.12s.59.6,1.18.06a4.1,4.1,0,0,0,.91-3A7.08,7.08,0,0,0,19.37,1.71ZM19.46,9c-.11,0-.23-.06-.23-.38s.63-.67.63-.38S19.82,9,19.46,9Z" transform="translate(0)" fill="#212121"/><path d="M18.05,19.59c.19-.92,1.17-2.4,1.17-4s-1.22-3-1.64-3.66S17,11,16.4,11.39A8,8,0,0,0,15,13.5V30c.56,0,1.62-1.11,1.75-1.26s.08-.21,0-.54-.43-.83-.47-1.11a9.67,9.67,0,0,0-.21-.95,12.73,12.73,0,0,0,.56,1.36c.26.52.29.88.4.88A4.54,4.54,0,0,0,18.3,26.1a8,8,0,0,0-.09-3.23A11.12,11.12,0,0,1,18.05,19.59Zm-.84-4a4.22,4.22,0,0,1-.54,1.58c-.11,0-.12-.71-.12-1.2s.29-1.11.5-1.11S17.21,15.18,17.21,15.55Z" transform="translate(0)" fill="#212121"/><path d="M11.34,11.18c0-.78-.06-1.07-.88-1.37a2.1,2.1,0,0,1-1.4-1.63A6.63,6.63,0,0,1,8.8,7.07a13.69,13.69,0,0,0-.66,2.16,14.69,14.69,0,0,0-.43,2.38,5,5,0,0,0,1.35,3.06,10.08,10.08,0,0,0,1.4,1.5A3.8,3.8,0,0,1,10.24,15a4,4,0,0,1,.6-1.95A3,3,0,0,0,11.34,11.18Z" transform="translate(0)" fill="#212121"/><path d="M9.06,6A4.1,4.1,0,0,0,10,9c.59.54,1.09.54,1.18-.06s-.1-1.95,0-3.12a12.85,12.85,0,0,1,1-3.52,13.33,13.33,0,0,1,1-1.84,28.49,28.49,0,0,0-1.49,5A31.72,31.72,0,0,0,12,10.23a7.5,7.5,0,0,1-.4,2.33s.94-1.77,1.47-1.77,1.65,1.26,1.95,1.8V0a5.53,5.53,0,0,0-4.37,1.71A7.08,7.08,0,0,0,9.06,6Zm1.08,2.21c0-.29.63.06.63.38s-.12.38-.23.38C10.18,9,10.14,8.47,10.14,8.19Z" transform="translate(0)" fill="#212121"/><path d="M11.79,22.87a8,8,0,0,0-.09,3.23A4.54,4.54,0,0,0,13,28.38c.11,0,.14-.36.4-.88a12.73,12.73,0,0,0,.56-1.36,9.67,9.67,0,0,0-.21.95c0,.28-.38.79-.47,1.11s-.12.39,0,.54S14.44,30,15,30V13.5a8,8,0,0,0-1.4-2.11c-.55-.36-.75-.18-1.18.53S10.78,14,10.78,15.58s1,3.09,1.17,4A11.12,11.12,0,0,1,11.79,22.87Zm1.16-8c.21,0,.5.62.5,1.11s0,1.2-.12,1.2a4.22,4.22,0,0,1-.54-1.58C12.79,15.18,12.74,14.82,13,14.82Z" transform="translate(0)" fill="#212121"/><rect width="30" height="30" fill="none"/></svg>