<!-- Copyright (c) 2023 Jan Stehno -->
<svg xmlns="http://www.w3.org/2000/svg" viewBox="0 0 300 300">
    <title>eurasianwigeon</title>
    <g id="eurasianwigeon">
        <g id="right">
            <path
                d="M150,16a46.14,46.14,0,0,1,2.69-8.58A21.71,21.71,0,0,1,157.82,0s2.69,5,4,5,3.39-2.49,3.39-2.49l-.31,18.07,6.21-6.5-2.32,14.2,5-5.37L172,34.45,175.31,30l.63,4.93,2.48-1.63L178,43.53l4.06-2.8-.41,10.84,3.48-2.32-.31,3.86,2.29-.79-2.2,9.87,4.5-1.45-2.17,8.07,3.8-.88-4.37,12.22,3.43-2.89L189.2,83l2.7-1.26-3.11,6.6,2.23-.31-5.45,9.17,5.57-.13-2.82,6.75L191,106l-3.87,7.13,2.45.37-3.39,4.46,3.93.63-7.38,7.63,5.84-.66L184.26,130l3.11.32-10.17,7.31,4.27.82-10,6.5,2.94.76-5.75,3,.43,3.39s-2.52-1.16-8.61,4A58.28,58.28,0,0,0,150,168.69Z"
                transform="translate(0)" fill="#212121" />
            <path
                d="M150,175.56V300a12.76,12.76,0,0,0,6.93-1.74,15.67,15.67,0,0,0,3.72-2.69l-6.79-16.86,8.39,15.54s8.48-5.93,13.94-23.93S178,242.68,178,228.74s10.05-36.18,10.74-42.59-3.51-7.41-10.55-15.83-4.82-14-11.75-14S150,175.56,150,175.56Zm14.76,19.57c1.29-4.21,4.35-7,4.62-3.45s-1.73,2.92-2.64,7.41-.6,8.26-1.48,8.26S163.47,199.34,164.76,195.13Z"
                transform="translate(0)" fill="#212121" />
            <path
                d="M167.57,14.93l6.08-5.6-2,12.39,5-6.93-1.42,11.4,3.54-5L177.23,31l3.06-4.1.28,11.83,3.87-4.24-.9,13,3.63-3.91-.42,6.46,5.15-5.09-4.59,14.42,5.42-3.16-2.4,9.94,4.71-3.3-4,11,2.83-.61-2.31,6.17,4.24-1.84-2.92,7.4,3.81-.85-7.82,11.12,7.16-1.65-5,8.85h3l-2.88,8.39,3.54-1-3.91,6,4,.14-5.37,7,5.42-1.42-5.61,7.12,3.54.56-8,5.89,3.86.8-10.88,7.82,4.19.76-10.46,6.45v3.91a65.3,65.3,0,0,1,5.47,7.82c2.68,4.52,7,11.31,12.15,11.31s7.51-7.79,13.48-22.18,13.81-36.24,16.26-48,3.43-25.18-2.79-40.92S196.39,24.21,191.9,19.69s-15-14.18-24.33-18Zm29.59,98c0-1.88,4.54-8.62,5.38-12.35s.6-11.19,1.39-11.19,1.94,7,1.63,14.26-3,12-5.32,12C198.24,115.66,197.16,114.81,197.16,112.92Z"
                transform="translate(0)" fill="#212121" />
            <path
                d="M186.65,233c-3.25,0-5-1.65-5-7.4s6.64-21.62,10.1-34.31,12.88-34.48,15.07-40.26,2.86-8.11,3.85-8.11.9,9.66,2.36,17.1,2.49,11.26,2.49,11.26l-2.78-2.6a30,30,0,0,0,.33,6.84,50.58,50.58,0,0,0,1.94,6.36l-2.6-.18a55.32,55.32,0,0,0,2.12,10.93c1.7,5.32,3.25,9,3.25,9l-2.3-.05a21.82,21.82,0,0,0,.94,6c.94,2.82,1.93,5,1.93,5a6.89,6.89,0,0,0-1.79,4.52c0,2.73-.9,4.48-8.06,7.4S189.15,233,186.65,233Z"
                transform="translate(0)" fill="#212121" />
        </g>
        <g id="left">
            <path
                d="M150,16a46.14,46.14,0,0,0-2.69-8.58A21.71,21.71,0,0,0,142.18,0s-2.69,5-4,5-3.39-2.49-3.39-2.49l.31,18.07-6.21-6.5,2.32,14.2-5-5.37L128,34.45,124.69,30l-.63,4.93-2.48-1.63L122,43.53l-4.06-2.8.41,10.84-3.48-2.32.31,3.86-2.29-.79,2.2,9.87-4.5-1.45,2.17,8.07-3.8-.88,4.37,12.22-3.43-2.89L110.8,83l-2.7-1.26,3.11,6.6L109,88.07l5.45,9.17-5.57-.13,2.82,6.75L109,106l3.87,7.13-2.45.37,3.39,4.46-3.93.63,7.38,7.63-5.84-.66,4.31,4.43-3.11.32,10.17,7.31-4.27.82,10,6.5-2.94.76,5.75,3-.43,3.39s2.52-1.16,8.61,4A58.28,58.28,0,0,1,150,168.69Z"
                transform="translate(0)" fill="#212121" />
            <path
                d="M133.61,156.31c-6.93,0-4.72,5.59-11.75,14s-11.24,9.42-10.55,15.83,10.74,28.64,10.74,42.59-3.71,23.58,1.76,41.58,13.94,23.93,13.94,23.93l8.39-15.54-6.79,16.86a15.67,15.67,0,0,0,3.72,2.69A12.76,12.76,0,0,0,150,300V175.56S140.53,156.31,133.61,156.31Zm1.13,51c-.88,0-.57-3.77-1.48-8.26s-2.92-3.86-2.64-7.41,3.33-.76,4.62,3.45S135.71,207.35,134.74,207.35Z"
                transform="translate(0)" fill="#212121" />
            <path
                d="M132.43,1.67c-9.35,3.84-19.84,13.5-24.33,18S90.17,47,84,62.75s-5.24,29.18-2.79,40.92,10.3,33.61,16.26,48,8.34,22.18,13.48,22.18,9.47-6.79,12.15-11.31a65.3,65.3,0,0,1,5.47-7.82V150.8l-10.46-6.45,4.19-.76-10.88-7.82,3.86-.8-8-5.89,3.54-.56-5.61-7.12,5.42,1.42-5.37-7,4-.14-3.91-6,3.54,1L106,102.32h3l-5-8.85,7.16,1.65L103.27,84l3.81.85-2.92-7.4,4.24,1.84-2.31-6.17,2.83.61-4-11,4.71,3.3-2.4-9.94,5.42,3.16L108.1,44.85l5.15,5.09-.42-6.46,3.63,3.91-.9-13,3.87,4.24.28-11.83,3.06,4.1-1.51-9.8,3.54,5-1.42-11.4,5,6.93-2-12.39,6.08,5.6Zm-32.67,114c-2.32,0-5-4.7-5.32-12s.85-14.26,1.63-14.26.54,7.45,1.39,11.19,5.38,10.47,5.38,12.35S101.76,115.66,99.76,115.66Z"
                transform="translate(0)" fill="#212121" />
            <path
                d="M113.35,233c3.25,0,5-1.65,5-7.4s-6.64-21.62-10.1-34.31S95.41,156.82,93.22,151s-2.86-8.11-3.85-8.11-.9,9.66-2.36,17.1-2.49,11.26-2.49,11.26l2.78-2.6a30,30,0,0,1-.33,6.84A50.58,50.58,0,0,1,85,181.89l2.6-.18a55.32,55.32,0,0,1-2.12,10.93c-1.7,5.32-3.25,9-3.25,9l2.3-.05a21.82,21.82,0,0,1-.94,6c-.94,2.82-1.93,5-1.93,5a6.89,6.89,0,0,1,1.79,4.52c0,2.73.9,4.48,8.06,7.4S110.85,233,113.35,233Z"
                transform="translate(0)" fill="#212121" />
        </g>
    </g>
    <g id="frame">
        <rect width="300" height="300" fill="none" />
    </g>
</svg>