<svg xmlns="http://www.w3.org/2000/svg" viewBox="0 0 30 30"><path d="M18.6,13.84h.06a.39.39,0,1,1-.38.39.38.38,0,0,1,.13-.29c-.67.34-.71.59-.71.74s.08.61.94.51,1.12-.56,1.12-1.18S19.29,13.52,18.6,13.84Z" transform="translate(0)" fill="#212121"/><path d="M15,22.35a11.38,11.38,0,0,1,1.43.16c.61.09,1.17,0,1.17.11s-.59.59-.59.71a.28.28,0,0,0,.13.2.7.7,0,0,0-.36.11c-.1.1,0,.44,0,.44s-.29-.09-.37,0,0,.3,0,.3a1.28,1.28,0,0,0-.39-.07,6.76,6.76,0,0,1-1,.21Z" transform="translate(0)" fill="#212121"/><path d="M15.47,20.42c0-.33.17-.83.5-.83s.27.23.27.49a.6.6,0,0,1-.49.56C15.53,20.64,15.47,20.52,15.47,20.42Z" transform="translate(0)" fill="#212121"/><path d="M24.74,3.48A5.29,5.29,0,0,0,26,2.87a6,6,0,0,1-1,.36,9.12,9.12,0,0,1-1.25.19,5.86,5.86,0,0,1,1.35-.7A8.63,8.63,0,0,1,27,2.34a6.6,6.6,0,0,0-1.62.09,6.79,6.79,0,0,0-1.19.32,7.36,7.36,0,0,0,.75-.41,5.25,5.25,0,0,0,1.33-1.26,10.8,10.8,0,0,1-1.15.9,3.24,3.24,0,0,1-1.13.6s.13-.11.54-.52A3.75,3.75,0,0,0,25.15,1a4.77,4.77,0,0,1-.6.75,4.37,4.37,0,0,1-.72.63,4.89,4.89,0,0,1,.43-1A9.31,9.31,0,0,1,25.38,0a4.11,4.11,0,0,0-1.31,1.15,11.22,11.22,0,0,0-.95,1.56,4.79,4.79,0,0,1,.17-1A15,15,0,0,1,23.84.16a5.39,5.39,0,0,0-.58,1.09c-.25.62-.57,1.93-.7,2.06a16,16,0,0,0-2.89,2,35.55,35.55,0,0,0-2.4,3,2.78,2.78,0,0,1,1.32.56,10.73,10.73,0,0,1,1.56,1.47A7.09,7.09,0,0,0,15,8.46v6.62l1.3-.92L15.7,16l-.2-.36-.5.63v2.37c.68,0,1,.11,1.13.24s.33.61.5.61a.64.64,0,0,0,.3-.07,2.29,2.29,0,0,0-.34,1c0,.42-1.18,1-1.18,1.21s.45.67,1.39.67.86-.21.86-.21a.52.52,0,0,0,.52-.11.48.48,0,0,0,.14-.48,1,1,0,0,0,.69,0A8.62,8.62,0,0,0,20.19,20a1.84,1.84,0,0,1-.48.08.87.87,0,0,1-.36-.07,6.71,6.71,0,0,1,1.3-.41c.3,0,.52.42.52.42a.71.71,0,0,0-.29-.06.8.8,0,0,0-.22,0s1.09,1.05,1.09,1.28-.37.36-.37.36l.14.32a1,1,0,0,0-.53-.19,2,2,0,0,0-.62,0,3.48,3.48,0,0,1,.67.52,3.64,3.64,0,0,1,.5.57,3.32,3.32,0,0,0-.62.19,2.3,2.3,0,0,0-.42.22l.24.49a4,4,0,0,0-.66-.41,7,7,0,0,0-.93-.34,4.93,4.93,0,0,1,1,.74,3.83,3.83,0,0,1,.61.79,2.35,2.35,0,0,0-.38-.25,3.1,3.1,0,0,0-.44-.12,1.29,1.29,0,0,1,.27.48,2.86,2.86,0,0,1,.09.6,3,3,0,0,0-.67-.84,3.23,3.23,0,0,0-1-.73,1.69,1.69,0,0,1,.35.38,2.24,2.24,0,0,1,.17.39h-.35a2.39,2.39,0,0,1,.27.32,1.3,1.3,0,0,1,.09.38.71.71,0,0,0-.32-.16,1.46,1.46,0,0,0-.42,0,1.44,1.44,0,0,1,.34.33c.12.2.19.34.19.34a3.7,3.7,0,0,1-.55,0,3.39,3.39,0,0,1-.4-.14l0,.45a1.78,1.78,0,0,1-.93-.51,6.26,6.26,0,0,1-.59-.75L16.4,25s-.09-.27-.28-.27-.28.28-.28.28l-.08-.24a1.64,1.64,0,0,1-.38.23,1.38,1.38,0,0,1-.38.06v4.61a4,4,0,0,1,.45-.48,2,2,0,0,1,.39-.2s0,.24,0,.5a1.89,1.89,0,0,0,.07.49s.15-.38.27-.73a3.8,3.8,0,0,1,.31-.62.46.46,0,0,1,.17.25c0,.15.06.32.06.32a1.59,1.59,0,0,1,.42-.65,1.38,1.38,0,0,1,.73-.33,1.84,1.84,0,0,0-.05.38,2.13,2.13,0,0,0,0,.35s.19-.31.36-.53a1.36,1.36,0,0,1,.43-.32,2.7,2.7,0,0,0-.23.6,2.07,2.07,0,0,0-.06.42,1.57,1.57,0,0,1,.34-.31,1.88,1.88,0,0,1,.32-.15s0,.29,0,.53a2.08,2.08,0,0,0,.06.43l.3-.92a1.53,1.53,0,0,1,.5-.71,1.18,1.18,0,0,1,.07.52,3.64,3.64,0,0,1-.1.48,1.54,1.54,0,0,0,.54-.69,2.41,2.41,0,0,0,.07-1.09s.16,0,.44.38a1.63,1.63,0,0,1,.33.76,8.35,8.35,0,0,0,.16-1.53,7.69,7.69,0,0,0-.2-1.6,1.34,1.34,0,0,1,.65.88,13.84,13.84,0,0,1,.2,1.71,13.15,13.15,0,0,0,.21-2.12,7.68,7.68,0,0,0-.32-2,4,4,0,0,0,.32.56,1.59,1.59,0,0,0,.43.47,3.58,3.58,0,0,1-.31-.85,2,2,0,0,1,0-.74,1.53,1.53,0,0,1,.55.68,5.42,5.42,0,0,1,.32,1.37,5.26,5.26,0,0,0-.06-1.61,7.49,7.49,0,0,0-.67-1.86s.15,0,.56.57a6.81,6.81,0,0,1,.65,1.22,6.08,6.08,0,0,0-.27-1,7.39,7.39,0,0,0-.5-1s.36.15.85.94a13.85,13.85,0,0,1,.76,1.38,16.27,16.27,0,0,0-1.65-3.72,3.25,3.25,0,0,0-2-1.28l.77.61L20.36,19l.35.35H19.55l.24-.24-.74-.31H20l-.36-.34.21-.15-.47-.7,1.09-1.18h.32l.39-.76.3.58h.38l-.38.69h.87l-.44.56.77.53a2.52,2.52,0,0,0,0-1.38,4.22,4.22,0,0,0-1.35-2.15c-.17,0-.18.37-.61.56a2.53,2.53,0,0,1-.68.23,8.16,8.16,0,0,0,.73-.72c.3-.34.35-.43.22-.56a1,1,0,0,0-.86,0c-.13.13-.12.41-.34.91a1.28,1.28,0,0,1-1.12.67c-.26,0-.27-.22-.58-.22s-.68.72-.68.72a5.89,5.89,0,0,1,0-1.08,1.4,1.4,0,0,1,.89-1.27,3.53,3.53,0,0,0,1.1-.62,1.5,1.5,0,0,0,.89.44c.45,0,.82-.1,1.8,1.2a4.08,4.08,0,0,1,1,3,5.72,5.72,0,0,0,.69,2.44,18.08,18.08,0,0,0,1.15,2.19s-.24-.58-.48-1.3a15,15,0,0,1-.38-1.5l.67.72a4.35,4.35,0,0,1-.4-.82c-.18-.48-.27-.82-.27-.82l.56-.2a6.06,6.06,0,0,1-.84-1.52,4.94,4.94,0,0,1-.54-2l.49.34a3,3,0,0,1-.26-.57,1.38,1.38,0,0,1-.08-.56L24,14a1.86,1.86,0,0,1-.85-1.71c0-1.27.94-1.62.94-1.82s-.47-.65-.47-.82.28-.18.28-.4-.21-.5-.21-.75.32-.28.32-1-.6-2.85-.6-3.19S23.89,3.79,24.74,3.48ZM16.84,14a1.55,1.55,0,0,1,.08-.52,1.06,1.06,0,0,1,.4-.45l-.51-.48s.43,0,.43-.18-.46-2-.46-2a13,13,0,0,1,1.12,2.35C17.9,13.05,16.84,14,16.84,14Zm2-1.57a1.34,1.34,0,0,0-.74.36s.22-.82.64-.82S20.17,13,20.17,13A4.53,4.53,0,0,0,18.87,12.39Zm4.78-5.9-.42.36.23.32-.26.29.3.47-.34.64-.77-.72.36,2.2.36-.06-.29.64v1.31L22,11V10l-.5.88-.4-.3.23-.9-.84.1L21.59,9l-1.34.38.35-.7h-1l.37-.26-.15-.31,1.73-.25-1.34-.37,1.55-.25-1.28-.61.88-.2-.38-.56.86-.29-.27-.27.56-.73h.39V4.23l.62.5.14.89Z" transform="translate(0)" fill="#212121"/><path d="M11.4,13.84h-.06a.39.39,0,1,0,.38.39.38.38,0,0,0-.13-.29c.67.34.71.59.71.74s-.08.61-.94.51-1.12-.56-1.12-1.18S10.71,13.52,11.4,13.84Z" transform="translate(0)" fill="#212121"/><path d="M15,22.35a11.38,11.38,0,0,0-1.43.16c-.61.09-1.17,0-1.17.11s.59.59.59.71a.28.28,0,0,1-.13.2.7.7,0,0,1,.36.11c.1.1,0,.44,0,.44s.29-.09.37,0,0,.3,0,.3a1.28,1.28,0,0,1,.39-.07,6.76,6.76,0,0,0,1,.21Z" transform="translate(0)" fill="#212121"/><path d="M14.53,20.42c0-.33-.17-.83-.5-.83s-.27.23-.27.49a.6.6,0,0,0,.49.56C14.47,20.64,14.53,20.52,14.53,20.42Z" transform="translate(0)" fill="#212121"/><path d="M6.57,4.29c0,.34-.6,2.43-.6,3.19s.32.79.32,1-.21.52-.21.75.28.24.28.4-.47.62-.47.82.94.55.94,1.82A1.86,1.86,0,0,1,6,14l.67.09a1.38,1.38,0,0,1-.08.56,3,3,0,0,1-.26.57l.49-.34a4.94,4.94,0,0,1-.54,2,6.06,6.06,0,0,1-.84,1.52l.56.2s-.09.34-.27.82a4.35,4.35,0,0,1-.4.82L6,19.54A15,15,0,0,1,5.6,21c-.24.72-.48,1.3-.48,1.3a18.08,18.08,0,0,0,1.15-2.19A5.72,5.72,0,0,0,7,17.71a4.08,4.08,0,0,1,1-3c1-1.3,1.35-1.2,1.8-1.2a1.5,1.5,0,0,0,.89-.44,3.53,3.53,0,0,0,1.1.62A1.4,1.4,0,0,1,12.62,15a5.89,5.89,0,0,1,0,1.08s-.38-.72-.68-.72-.32.22-.58.22a1.28,1.28,0,0,1-1.12-.67c-.22-.5-.21-.78-.34-.91A1,1,0,0,0,9,14c-.13.13-.08.22.22.56a8.16,8.16,0,0,0,.73.72,2.53,2.53,0,0,1-.68-.23c-.43-.19-.44-.56-.61-.56a4.22,4.22,0,0,0-1.35,2.15,2.52,2.52,0,0,0,0,1.38l.77-.53L7.66,17h.87l-.38-.69h.38l.3-.58.39.76h.32l1.09,1.18-.47.7.21.15-.36.34H11l-.74.31.24.24H9.29L9.64,19l-1.29.39.77-.61a3.25,3.25,0,0,0-2,1.28,16.27,16.27,0,0,0-1.65,3.72,13.85,13.85,0,0,1,.76-1.38c.49-.79.85-.94.85-.94a7.39,7.39,0,0,0-.5,1,6.08,6.08,0,0,0-.27,1A6.81,6.81,0,0,1,7,22.28c.41-.57.56-.57.56-.57a7.49,7.49,0,0,0-.67,1.86,5.26,5.26,0,0,0-.06,1.61,5.42,5.42,0,0,1,.32-1.37,1.53,1.53,0,0,1,.55-.68,2,2,0,0,1,0,.74,3.58,3.58,0,0,1-.31.85,1.59,1.59,0,0,0,.43-.47,4,4,0,0,0,.32-.56,7.68,7.68,0,0,0-.32,2A13.15,13.15,0,0,0,8,27.83a13.84,13.84,0,0,1,.2-1.71,1.34,1.34,0,0,1,.65-.88,7.69,7.69,0,0,0-.2,1.6,8.35,8.35,0,0,0,.16,1.53,1.63,1.63,0,0,1,.33-.76c.28-.37.44-.38.44-.38a2.41,2.41,0,0,0,.07,1.09,1.54,1.54,0,0,0,.54.69,3.64,3.64,0,0,1-.1-.48,1.18,1.18,0,0,1,.07-.52,1.53,1.53,0,0,1,.5.71l.3.92a2.08,2.08,0,0,0,.06-.43c0-.24,0-.53,0-.53a1.88,1.88,0,0,1,.32.15,1.57,1.57,0,0,1,.34.31,2.07,2.07,0,0,0-.06-.42,2.7,2.7,0,0,0-.23-.6,1.36,1.36,0,0,1,.43.32c.17.22.36.53.36.53a2.13,2.13,0,0,0,0-.35,1.84,1.84,0,0,0,0-.38,1.38,1.38,0,0,1,.73.33,1.59,1.59,0,0,1,.42.65l.06-.32a.46.46,0,0,1,.17-.25,3.8,3.8,0,0,1,.31.62c.12.35.27.73.27.73a1.89,1.89,0,0,0,.07-.49c0-.26,0-.5,0-.5a2,2,0,0,1,.39.2,4,4,0,0,1,.45.48V25.08a1.38,1.38,0,0,1-.38-.06,1.64,1.64,0,0,1-.38-.23l-.08.24s-.08-.28-.28-.28-.28.27-.28.27l-.08-.39a6.26,6.26,0,0,1-.59.75,1.78,1.78,0,0,1-.93.51l0-.45a3.39,3.39,0,0,1-.4.14,3.7,3.7,0,0,1-.55,0s.07-.14.19-.34a1.44,1.44,0,0,1,.34-.33,1.46,1.46,0,0,0-.42,0,.71.71,0,0,0-.32.16,1.3,1.3,0,0,1,.09-.38,2.39,2.39,0,0,1,.27-.32h-.35a2.24,2.24,0,0,1,.17-.39,1.69,1.69,0,0,1,.35-.38,3.23,3.23,0,0,0-1,.73,3,3,0,0,0-.67.84,2.86,2.86,0,0,1,.09-.6,1.29,1.29,0,0,1,.27-.48,3.1,3.1,0,0,0-.44.12,2.35,2.35,0,0,0-.38.25,3.83,3.83,0,0,1,.61-.79,4.93,4.93,0,0,1,1-.74,7,7,0,0,0-.93.34,4,4,0,0,0-.66.41l.24-.49A2.3,2.3,0,0,0,9.08,23a3.32,3.32,0,0,0-.62-.19,3.64,3.64,0,0,1,.5-.57,3.48,3.48,0,0,1,.67-.52,2,2,0,0,0-.62,0,1,1,0,0,0-.53.19l.14-.32s-.37-.13-.37-.36S9.34,20,9.34,20a.8.8,0,0,0-.22,0,.71.71,0,0,0-.29.06s.22-.42.52-.42a6.71,6.71,0,0,1,1.3.41.87.87,0,0,1-.36.07A1.84,1.84,0,0,1,9.81,20,8.62,8.62,0,0,0,11,21.42a1,1,0,0,0,.69,0,.48.48,0,0,0,.14.48.52.52,0,0,0,.52.11s-.08.21.86.21,1.39-.41,1.39-.67-1.18-.79-1.18-1.21a2.29,2.29,0,0,0-.34-1,.64.64,0,0,0,.3.07c.17,0,.37-.48.5-.61s.45-.25,1.13-.24V16.28l-.5-.63-.2.36-.6-1.85,1.3.92V8.46a7.09,7.09,0,0,0-5.15,1.87,10.73,10.73,0,0,1,1.56-1.47,2.78,2.78,0,0,1,1.32-.56,35.55,35.55,0,0,0-2.4-3,16,16,0,0,0-2.89-2c-.13-.13-.45-1.44-.7-2.06A5.39,5.39,0,0,0,6.16.16,15,15,0,0,1,6.71,1.7a4.79,4.79,0,0,1,.17,1,11.22,11.22,0,0,0-1-1.56A4.11,4.11,0,0,0,4.62,0,9.31,9.31,0,0,1,5.74,1.34a4.89,4.89,0,0,1,.43,1,4.37,4.37,0,0,1-.72-.63A4.77,4.77,0,0,1,4.85,1a3.75,3.75,0,0,0,.66,1.09c.41.41.54.52.54.52A3.24,3.24,0,0,1,4.92,2a10.8,10.8,0,0,1-1.15-.9A5.25,5.25,0,0,0,5.1,2.34a7.36,7.36,0,0,0,.75.41,6.79,6.79,0,0,0-1.19-.32A6.6,6.6,0,0,0,3,2.34,8.63,8.63,0,0,1,5,2.72a5.86,5.86,0,0,1,1.35.7,9.12,9.12,0,0,1-1.25-.19,6,6,0,0,1-1-.36,5.29,5.29,0,0,0,1.24.61C6.11,3.79,6.57,4,6.57,4.29Zm5.53,8.35a13,13,0,0,1,1.12-2.35s-.46,1.86-.46,2,.43.18.43.18l-.51.48a1.06,1.06,0,0,1,.4.45,1.55,1.55,0,0,1,.08.52S12.1,13.05,12.1,12.64ZM9.83,13s1-1.07,1.4-1.07.64.82.64.82a1.34,1.34,0,0,0-.74-.36A4.53,4.53,0,0,0,9.83,13ZM6.76,5.62l.14-.89.62-.5v.34h.39l.56.73-.27.27.86.29-.38.56.88.2-1.28.61,1.55.25-1.34.37,1.73.25-.15.31.37.26h-1l.35.7L8.41,9l1.1.77-.84-.1.23.9-.4.3L8,10V11l-.82.9V10.63L6.89,10l.36.06.36-2.2-.77.72L6.5,7.93l.3-.47-.26-.29.23-.32-.42-.36Z" transform="translate(0)" fill="#212121"/><rect width="30" height="30" fill="none"/></svg>