<svg xmlns="http://www.w3.org/2000/svg" viewBox="0 0 30 30"><path d="M15,1.6a4.7,4.7,0,0,1,.27-.86A2.21,2.21,0,0,1,15.78,0s.27.5.4.5.34-.25.34-.25l0,1.81.62-.65-.24,1.42.51-.54L17.2,3.45,17.53,3l.06.49.25-.16,0,1,.41-.28,0,1.09.34-.24,0,.39.23-.08-.22,1,.45-.15-.22.81.38-.09L18.67,8,19,7.73l-.09.57.27-.12-.31.66.22,0-.54.91h.55l-.28.68.27.21-.39.71.25,0-.34.44.39.07-.74.76.59-.07-.43.45.31,0-1,.73.43.08-1,.65.3.08-.58.3,0,.34s-.25-.12-.86.4A5.78,5.78,0,0,0,15,16.87Z" transform="translate(0)" fill="#212121"/><path d="M15,17.56V30a1.27,1.27,0,0,0,.69-.17,1.61,1.61,0,0,0,.37-.27l-.67-1.69.83,1.56a4.63,4.63,0,0,0,1.4-2.4c.55-1.8.18-2.76.18-4.16s1-3.61,1.07-4.26-.35-.74-1.06-1.58-.48-1.4-1.17-1.4S15,17.56,15,17.56Zm1.48,2c.12-.42.43-.7.46-.34s-.17.29-.27.74-.06.82-.14.82S16.35,19.93,16.48,19.51Z" transform="translate(0)" fill="#212121"/><path d="M16.76,1.49l.6-.56-.19,1.24.49-.69-.14,1.14.35-.5-.15,1L18,2.69l0,1.18.38-.43-.09,1.3.37-.39,0,.64.52-.51-.46,1.45.54-.32L19,6.6l.47-.32-.39,1.09.28-.06-.23.62.42-.19-.29.74.38-.08-.78,1.11.72-.16-.51.88h.3l-.28.84.35-.1-.39.6h.4l-.54.7.54-.14-.56.71.36.06-.8.59.38.08-1.09.78.42.07-1,.65v.39a5.9,5.9,0,0,1,.54.78c.27.46.71,1.13,1.22,1.13s.75-.78,1.35-2.21a34.82,34.82,0,0,0,1.62-4.8,6.7,6.7,0,0,0-.28-4.09A19.71,19.71,0,0,0,19.19,2,8.91,8.91,0,0,0,16.76.17Zm3,9.8c0-.19.45-.86.53-1.23a10.7,10.7,0,0,1,.14-1.12,3,3,0,0,1,.17,1.42c0,.74-.3,1.21-.54,1.21S19.72,11.48,19.72,11.29Z" transform="translate(0)" fill="#212121"/><path d="M18.67,23.3c-.33,0-.51-.16-.51-.74a32.35,32.35,0,0,1,1-3.43c.35-1.27,1.29-3.45,1.51-4s.28-.81.38-.81A16.72,16.72,0,0,1,21.3,16c.14.75.25,1.13.25,1.13l-.28-.26a3,3,0,0,0,0,.68,4.12,4.12,0,0,0,.2.64l-.26,0a5.32,5.32,0,0,0,.21,1.09c.17.54.32.91.32.91h-.23a2.05,2.05,0,0,0,.1.6c.09.28.19.51.19.51a.66.66,0,0,0-.18.45c0,.27-.09.45-.8.74A18,18,0,0,1,18.67,23.3Z" transform="translate(0)" fill="#212121"/><path d="M15,1.6a4.7,4.7,0,0,0-.27-.86A2.21,2.21,0,0,0,14.22,0s-.27.5-.4.5-.34-.25-.34-.25l0,1.81-.62-.65.24,1.42-.51-.54.18,1.16L12.47,3l-.06.49-.25-.16,0,1-.41-.28,0,1.09-.34-.24,0,.39-.23-.08.22,1-.45-.15.22.81-.38-.09L11.33,8,11,7.73l.09.57-.27-.12.31.66-.22,0,.54.91h-.55l.28.68-.27.21.39.71-.25,0,.34.44-.39.07.74.76-.59-.07.43.45-.31,0,1,.73-.43.08,1,.65-.3.08.58.3,0,.34s.25-.12.86.4A5.78,5.78,0,0,1,15,16.87Z" transform="translate(0)" fill="#212121"/><path d="M13.36,15.63c-.69,0-.47.56-1.17,1.4s-1.13.94-1.06,1.58,1.07,2.87,1.07,4.26-.37,2.36.18,4.16a4.63,4.63,0,0,0,1.4,2.4l.83-1.56-.67,1.69a1.61,1.61,0,0,0,.37.27A1.27,1.27,0,0,0,15,30V17.56S14.05,15.63,13.36,15.63Zm.11,5.1c-.08,0-.05-.37-.14-.82s-.3-.39-.27-.74.34-.08.46.34S13.57,20.73,13.47,20.73Z" transform="translate(0)" fill="#212121"/><path d="M13.24.17A8.91,8.91,0,0,0,10.81,2,19.71,19.71,0,0,0,8.4,6.28a6.7,6.7,0,0,0-.28,4.09,34.82,34.82,0,0,0,1.62,4.8c.6,1.43.84,2.21,1.35,2.21s.95-.67,1.22-1.13a5.9,5.9,0,0,1,.54-.78v-.39l-1-.65.42-.07-1.09-.78.38-.08-.8-.59.36-.06-.56-.71.54.14-.54-.7h.4l-.39-.6.35.1-.28-.84h.3l-.51-.88.72.16L10.33,8.4l.38.08-.29-.74.42.19-.23-.62.28.06L10.5,6.28,11,6.6l-.24-1,.54.32-.46-1.45.52.51-.05-.64.37.39-.09-1.3.38.43,0-1.18.31.41-.15-1,.35.5-.14-1.14.49.69L12.64.93l.6.56ZM10,11.57c-.24,0-.5-.47-.54-1.21a3,3,0,0,1,.17-1.42,10.7,10.7,0,0,1,.14,1.12c.08.37.53,1,.53,1.23S10.18,11.57,10,11.57Z" transform="translate(0)" fill="#212121"/><path d="M11.33,23.3c.33,0,.51-.16.51-.74a32.35,32.35,0,0,0-1-3.43c-.35-1.27-1.29-3.45-1.51-4s-.28-.81-.38-.81A16.72,16.72,0,0,0,8.7,16c-.14.75-.25,1.13-.25,1.13l.28-.26a3,3,0,0,1,0,.68,4.12,4.12,0,0,1-.2.64l.26,0a5.32,5.32,0,0,1-.21,1.09c-.17.54-.32.91-.32.91h.23a2.05,2.05,0,0,1-.1.6c-.09.28-.19.51-.19.51a.66.66,0,0,1,.18.45c0,.27.09.45.8.74A18,18,0,0,0,11.33,23.3Z" transform="translate(0)" fill="#212121"/><rect width="30" height="30" fill="none"/></svg>