<!-- Copyright (c) 2023 Jan Stehno -->
<svg xmlns="http://www.w3.org/2000/svg" viewBox="0 0 300 300">
    <title>europeanhare</title>
    <g id="europeanhare">
        <g id="right">
            <path
                d="M190.19,194.07c-1,0-1.85.82-2.5,2.11a1.71,1.71,0,0,1,.95-.31c1.19,0,3.25,3.24,3.25,6.45s-1.87,4.55-4.6,4.55a1.83,1.83,0,0,1-1.81-1.1c-.19,3.31.58,5.52,2.87,5.52,3.71,0,6.24-2.09,6.24-7.12S191.8,194.07,190.19,194.07Z"
                transform="translate(0)" fill="#212121" />
            <path
                d="M150,288.14c1.71,0,4.36-2.74,4.36-2.74l3.49,3,3.67-2.63,3.45,2.75,2-2.55,5,1.13-.88-3,10.35,3.55-2.44-5.9,3.74.44-.78-2.3,6.87.51-2.89-4.08,4.95-1.35-1.79-2.27,7.07,1-1.49-3.52,8.91-2.23-1.47-2.71,7.63-4.15V257.9l-3.59-2.4,2.57-2.64-6-4.35,2.6-2-1-4.75a86.46,86.46,0,0,1,10.64,13.75c3.92,6.76,3.57,12.19,3.57,12.19s-.88-2.35-1.51-3.67a3.75,3.75,0,0,0-1.62-1.76s-.19,7.53-2.45,12.47-4.89,6.86-4.89,6.86a9.64,9.64,0,0,0-.39-3.09,5.61,5.61,0,0,0-2-2.64,35.37,35.37,0,0,1-1.17,8.47c-1.18,4.11-2.84,5.62-2.84,5.62a20.77,20.77,0,0,0-.59-2.64,7.61,7.61,0,0,0-1.42-2.25,10.41,10.41,0,0,1-4.68,5.82,25,25,0,0,1-7.31,3,4.3,4.3,0,0,0-.69-2,7.44,7.44,0,0,0-1.91-1.36,22.17,22.17,0,0,1-4.33,5.28c-3.05,2.83-8,4.15-8,4.15a12.47,12.47,0,0,0-.3-3.38,16.1,16.1,0,0,0-1.8-3.67,13.4,13.4,0,0,1-4.84,3.49,23.82,23.82,0,0,1-7.12,2.13s-1-2.83-3.34-2.83A12.36,12.36,0,0,0,150,297.5Z"
                transform="translate(0)" fill="#212121" />
            <path
                d="M240.44,16.93c0-5.28-9-16.93-11.94-16.93a38.13,38.13,0,0,0-12,2.54C213,4,179.56,54,169.18,88.09s-8,43.16-8,48-7.39,14.19-11.16,14.19,0,16.22,0,16.22,2.42.47,2.42,4.14-2.42,4-2.42,4V200s1.17.15,1.17,2.06-1.17,2-1.17,2v22.61l12.14,7.88L150,230.74v32.74a17.5,17.5,0,0,0,4.5-2.35c1.67-1.37,5-1.61,9.59-5.33s2.6-9.2,3.63-9.2,1.81,2,1.81,5.53-.88,6.8-8.86,12.92-8.17,10.57-8.17,13.16.14,5.38,6,5.38,13.11-1.61,16.44-4.5,4.75-2,5.92-3.18.43-4.17.43-4.17,3.81.44,6.35-1.95,1.83-4.4,1.83-4.4a11.93,11.93,0,0,0,5.14-.81c3.16-1.1,9.4-8.93,9.4-8.93a18.15,18.15,0,0,1-5-4.26,18.68,18.68,0,0,1-3.14-6.07l3.58.84a5.41,5.41,0,0,1-.79-2.55,24.1,24.1,0,0,1,.25-3h3.33s-1.72-.88-3.87-4.21a13.35,13.35,0,0,1-1.66-7.73l2.29,2a17.77,17.77,0,0,0,.4-4.46c0-8.27-11.61-11.12-11.61-11.12s1.91,3,1.91,5.21,0,5,0,5-6.17-9.1-6.17-18.35S187.73,189,189.93,189s2.69-1.29,2.69-4-4.35-8.22-9.15-12.38S166.41,165,166.41,165a34.12,34.12,0,0,1,10.35,1.79c5.8,1.91,8.25,4.08,8.25,4.08l-1.54-6.76s5.07,5.51,5.07,8.41c0,5.95,6.6,3.19,6.6,3.19a6.33,6.33,0,0,1-2.78-1,2.14,2.14,0,0,1-.85-1.58l5.36-2.57a3.89,3.89,0,0,1-1.91-.44,3.5,3.5,0,0,1-1-.95l3.39-2.75s-2.76.44-2.76-2.28,1.25-9,6.38-15,7.05-12.92,10.72-23.93S234.71,90.83,237.35,85s9-39.84,9-48.16S240.44,22.22,240.44,16.93ZM176.23,234c2.06,3.28,1.76,6.41,3.43,8.86s.29,4.65,1.76,6,2.42,3.16,2.42,6.53a12.38,12.38,0,0,0,.81,5s-3.38-3.83-3.38-7.21-2.45-4.11-2.45-6.26-1.46-3-2.64-8.32-6.46-10.67-6.46-10.67S174.18,230.69,176.23,234ZM235.84,73.5c-3.62,19.09-9,20.66-9,20.66a32.36,32.36,0,0,0-.78-3.82c-.39-1.18-2.25-7.73-11.45,2.84s-11.94,25.25-11.94,31.61-8.91,15-8.91,15c3.16-8.1,3.08-13.27,3.08-26s5.88-18.64,5.88-20.7-4-3.45-4-3.45a12.07,12.07,0,0,0,3.08-4.4c1.33-3,2.79-7,2.79-7h-3.52a17.08,17.08,0,0,0,2.28-8.07c0-4.41-.37-13.77-.37-13.77a9,9,0,0,0-2.72,2.72A33.88,33.88,0,0,0,198,64.21,90.5,90.5,0,0,1,200.8,48a129.77,129.77,0,0,1,5.77-15.56s-2.15.68-2.15-3.14,6.07-12.82,12.72-19.47,7.93-6.56,14.1-.39,9.29,21.33,9.29,27.5S239.46,54.42,235.84,73.5Z"
                transform="translate(0)" fill="#212121" />
        </g>
        <g id="left">
            <path
                d="M109.81,194.07c1,0,1.85.82,2.5,2.11a1.71,1.71,0,0,0-1-.31c-1.19,0-3.25,3.24-3.25,6.45s1.87,4.55,4.6,4.55a1.83,1.83,0,0,0,1.81-1.1c.19,3.31-.58,5.52-2.87,5.52-3.71,0-6.24-2.09-6.24-7.12S108.2,194.07,109.81,194.07Z"
                transform="translate(0)" fill="#212121" />
            <path
                d="M150,288.14c-1.71,0-4.36-2.74-4.36-2.74l-3.49,3-3.67-2.63L135,288.49l-2-2.55-5,1.13.88-3-10.35,3.55,2.44-5.9-3.74.44.78-2.3-6.87.51,2.89-4.08-5-1.35,1.79-2.27-7.07,1,1.49-3.52-8.91-2.23,1.47-2.71L90.25,261V257.9l3.59-2.4-2.57-2.64,6-4.35-2.6-2,1-4.75a86.46,86.46,0,0,0-10.64,13.75c-3.92,6.76-3.57,12.19-3.57,12.19s.88-2.35,1.51-3.67a3.75,3.75,0,0,1,1.62-1.76s.19,7.53,2.45,12.47S92,281.64,92,281.64a9.64,9.64,0,0,1,.39-3.09,5.61,5.61,0,0,1,2-2.64,35.37,35.37,0,0,0,1.17,8.47c1.18,4.11,2.84,5.62,2.84,5.62a20.77,20.77,0,0,1,.59-2.64,7.61,7.61,0,0,1,1.42-2.25,10.41,10.41,0,0,0,4.68,5.82,25,25,0,0,0,7.31,3,4.3,4.3,0,0,1,.69-2,7.44,7.44,0,0,1,1.91-1.36,22.17,22.17,0,0,0,4.33,5.28c3.05,2.83,8,4.15,8,4.15a12.47,12.47,0,0,1,.3-3.38,16.1,16.1,0,0,1,1.8-3.67,13.4,13.4,0,0,0,4.84,3.49,23.82,23.82,0,0,0,7.12,2.13s1-2.83,3.34-2.83A12.36,12.36,0,0,1,150,297.5Z"
                transform="translate(0)" fill="#212121" />
            <path
                d="M53.69,36.8c0,8.32,6.31,42.28,9,48.16s22,29.21,25.69,40.22,5.58,17.91,10.72,23.93,6.38,12.34,6.38,15-2.76,2.28-2.76,2.28l3.39,2.75a3.5,3.5,0,0,1-1,.95,3.89,3.89,0,0,1-1.91.44l5.36,2.57a2.14,2.14,0,0,1-.85,1.58,6.33,6.33,0,0,1-2.78,1s6.6,2.76,6.6-3.19c0-2.9,5.07-8.41,5.07-8.41L115,170.88s2.45-2.17,8.25-4.08A34.12,34.12,0,0,1,133.59,165s-12.27,3.43-17.06,7.59-9.15,9.69-9.15,12.38.48,4,2.69,4,6.41,8.69,6.41,17.94-6.17,18.35-6.17,18.35,0-2.74,0-5,1.91-5.21,1.91-5.21-11.61,2.85-11.61,11.12a17.77,17.77,0,0,0,.4,4.46l2.29-2a13.35,13.35,0,0,1-1.66,7.73c-2.15,3.33-3.87,4.21-3.87,4.21h3.33a24.1,24.1,0,0,1,.25,3,5.41,5.41,0,0,1-.79,2.55l3.58-.84a18.68,18.68,0,0,1-3.14,6.07,18.15,18.15,0,0,1-5,4.26s6.24,7.83,9.4,8.93a11.93,11.93,0,0,0,5.14.81s-.7,2,1.83,4.4,6.35,1.95,6.35,1.95-.74,3,.43,4.17,2.59.29,5.92,3.18,10.57,4.5,16.44,4.5,6-2.79,6-5.38-.19-7-8.17-13.16-8.86-9.35-8.86-12.92.79-5.53,1.81-5.53-.93,5.48,3.63,9.2,7.92,4,9.59,5.33a17.5,17.5,0,0,0,4.5,2.35V230.74l-12.14,3.89L150,226.75V204.14s-1.17-.14-1.17-2S150,200,150,200V174.68s-2.42-.36-2.42-4,2.42-4.14,2.42-4.14,3.77-16.22,0-16.22-11.16-9.35-11.16-14.19,2.35-13.95-8-48S87,4,83.54,2.54A38.13,38.13,0,0,0,71.5,0C68.57,0,59.56,11.65,59.56,16.93S53.69,28.48,53.69,36.8Zm76.59,191.1s-5.29,5.39-6.46,10.67-2.64,6.17-2.64,8.32-2.45,2.89-2.45,6.26-3.38,7.21-3.38,7.21a12.38,12.38,0,0,0,.81-5c0-3.37,1-5.21,2.42-6.53s.1-3.52,1.76-6,1.37-5.58,3.43-8.86S130.28,227.9,130.28,227.9ZM59.47,36.9c0-6.17,3.13-21.34,9.29-27.5s7.44-6.27,14.1.39S95.58,25.45,95.58,29.26s-2.15,3.14-2.15,3.14A129.77,129.77,0,0,1,99.2,48,90.5,90.5,0,0,1,102,64.21a33.88,33.88,0,0,0-2.32-5.13A9,9,0,0,0,97,56.36s-.37,9.36-.37,13.77a17.08,17.08,0,0,0,2.28,8.07H95.39s1.46,4,2.79,7a12.07,12.07,0,0,0,3.08,4.4s-4,1.4-4,3.45,5.88,7.93,5.88,20.7-.08,17.94,3.08,26c0,0-8.91-8.62-8.91-15s-2.74-21-11.94-31.61-11.06-4-11.45-2.84a32.36,32.36,0,0,0-.78,3.82s-5.39-1.57-9-20.66S59.47,43.07,59.47,36.9Z"
                transform="translate(0)" fill="#212121" />
        </g>
    </g>
    <g id="frame">
        <rect width="300" height="300" fill="none" />
    </g>
</svg>