<svg xmlns="http://www.w3.org/2000/svg" viewBox="0 0 30 30"><path d="M15,29.52s-.08-.23-.11-.34a.77.77,0,0,0-.13-.26.36.36,0,0,0,0,.16c0,.09,0,.21,0,.21A2.41,2.41,0,0,0,14.6,29a.76.76,0,0,0-.18-.17,1.11,1.11,0,0,0-.08.16.85.85,0,0,0,0,.13s-.07-.09-.14,0-.11.41-.22.52-.22,0-.31.13a.72.72,0,0,0-.14.22,1,1,0,0,1,.07-.39,1.16,1.16,0,0,0,.1-.43.46.46,0,0,0-.25,0,.87.87,0,0,0-.24.09,2,2,0,0,0-.06-.42,4.47,4.47,0,0,0-.19-.52.57.57,0,0,0-.07.22.89.89,0,0,0,0,.27,1,1,0,0,1-.19-.26c0-.1,0-.28,0-.28a.19.19,0,0,1-.21-.07,1.09,1.09,0,0,1-.09-.37.25.25,0,0,0-.08.13.85.85,0,0,0,0,.17,1.27,1.27,0,0,1-.37-.36,3.13,3.13,0,0,1-.17-.51.59.59,0,0,0-.06.12,1.08,1.08,0,0,0,0,.22,3.57,3.57,0,0,0-.16-.46c-.11-.23-.23-.31-.25-.45a1.2,1.2,0,0,1,0-.29.44.44,0,0,0-.16.08.46.46,0,0,0-.07.18.68.68,0,0,0-.08-.3,3.14,3.14,0,0,0-.29-.37s.11,0,.15-.23,0-.35,0-.41l.12-.15a2.17,2.17,0,0,1-.34.11.93.93,0,0,1-.31,0,.6.6,0,0,0,.27-.08c.13-.08.19-.13.11-.3a.51.51,0,0,0-.29-.24.43.43,0,0,0,.19-.16c0-.1,0-.22-.11-.22a.18.18,0,0,0-.14.06.77.77,0,0,1,0-.37c0-.22.14-.46.11-.49s-.12.07-.12.07a1.12,1.12,0,0,0,.12-.39c0-.21-.08-.31-.12-.26a.29.29,0,0,0,0,.16.74.74,0,0,1-.06-.35c0-.19.07-.3,0-.33a.2.2,0,0,0-.21.07.43.43,0,0,0-.06.15,1.42,1.42,0,0,1,.09-.51c.1-.16.6-.57.73-.88a2.15,2.15,0,0,1,.44-.83,1.14,1.14,0,0,1,.8-.18c.43,0,.73,0,1,.67s.29.81.68,1a3,3,0,0,1,.81.55.66.66,0,0,0,.53.23Z" transform="translate(0 0)" fill="#212121"/><path d="M15,20.52c-.25,0-.6.11-1.1.11s-.72-.4-.83-.36.3,1,.61,1.24A2.45,2.45,0,0,0,15,22Z" transform="translate(0 0)" fill="#212121"/><path d="M13.8,20.35a.52.52,0,0,0-.08-.26.42.42,0,0,1-.07-.47c.1-.23.33-.21.49-.21a1.37,1.37,0,0,1,.31,0,.83.83,0,0,0-.16-.52c-.17-.16-.84-.35-1-.59s-.07-.34-.25-.45a.23.23,0,0,0-.36.16c0,.15.1.21.22.21s.13.38.1.54a.65.65,0,0,0,.19.46.61.61,0,0,1,0,.54c-.06.12.07.15.26.28A1.47,1.47,0,0,1,13.8,20.35Z" transform="translate(0 0)" fill="#212121"/><path d="M10.71,20.66a2.3,2.3,0,0,1,.55-.57,2.21,2.21,0,0,1,.8-.2A1,1,0,0,1,12,19.5a4.2,4.2,0,0,1,.07-.58.68.68,0,0,1-.24,0,.27.27,0,0,1-.21-.1.81.81,0,0,0,.31-.19,1.06,1.06,0,0,0,.23-.39.29.29,0,0,1-.14,0,.65.65,0,0,1-.16,0,2.12,2.12,0,0,0,.34-.38.79.79,0,0,0,.16-.37l-.16-.08L12,17.39a1.92,1.92,0,0,0,.5-.36,2.64,2.64,0,0,0,.13-.4c0-.11.18-.25.31-.22s.15.31.15.31.33-.07.3,0a1.21,1.21,0,0,0-.13.51,1.14,1.14,0,0,0,.17.55,1.37,1.37,0,0,1,.09-.58c.11-.32.25-.5.28-.63a1.66,1.66,0,0,0,0-.33.77.77,0,0,1,.11.16.44.44,0,0,1,0,.2,1.35,1.35,0,0,1,.2-.32c.14-.17.3-.22.31-.17s0,.26.15.22a1.19,1.19,0,0,1,.39,0V2.2a2,2,0,0,1-.25.32.71.71,0,0,1-.26.14.33.33,0,0,1,0-.14.93.93,0,0,1,.05-.2s-.19.13-.22.22a.48.48,0,0,0,0,.13.88.88,0,0,1-.37-.36,3.11,3.11,0,0,1-.27-.49,1.37,1.37,0,0,0,0,.42,1.61,1.61,0,0,0,.08.33.93.93,0,0,1-.34-.15,2.18,2.18,0,0,1-.24-.22s-.3.59-.54.69a1.33,1.33,0,0,1-1-.05c-.2-.17-.56-.52-.56-.52s.27.46.22.66a1.57,1.57,0,0,1-.83.66,1.75,1.75,0,0,1-.41,0s.05.23,0,.27a1.14,1.14,0,0,1-.35,0,.49.49,0,0,1-.09.34,1.49,1.49,0,0,1-.4.31,1.46,1.46,0,0,1,.05.57c-.07.15-.29.06-.29.06s.08.35,0,.42-.45,0-.45,0,.19.36.13.44-.47,0-.47,0a1.28,1.28,0,0,1,0,.45.26.26,0,0,0,.17.34A3.42,3.42,0,0,0,10,7a3.31,3.31,0,0,1,1.38-.7,1.53,1.53,0,0,1,1.28.43,3,3,0,0,0,.34.31s-.42.1-.59,0-.34-.32-.44-.38-.62-.08-.7,0a2.64,2.64,0,0,1-.7.66c-.37.21-.66.17-.82.35s-.05.47-.21.67l-.32.4s.42,0,.42.28a.88.88,0,0,1-.3.53,1.25,1.25,0,0,1,.09.54,1.39,1.39,0,0,1-.15.64,1,1,0,0,1,.72,0,5.58,5.58,0,0,0,1.11.36,1.15,1.15,0,0,1-.32.18.53.53,0,0,1-.25,0,1.25,1.25,0,0,0,.2.26.85.85,0,0,0,.36.17.88.88,0,0,0,0,.56,4.39,4.39,0,0,0,.32.64.72.72,0,0,0-.39.22,1.27,1.27,0,0,0-.25.38,1.26,1.26,0,0,0-.47-.09c-.28,0-.62.35-.62.35A.43.43,0,0,1,10,14a3.71,3.71,0,0,1,.24,1.06,5,5,0,0,0,.72.87c.17.07.32.09.4,0a6.44,6.44,0,0,1,.36-.76.85.85,0,0,1,.38-.22.63.63,0,0,0-.06.42c.06.19.13.37,0,.45s-.49.16-.62.56-.08.91-.27,1.22a.91.91,0,0,0-.12.82,1.27,1.27,0,0,1,.07.64.45.45,0,0,1-.23.2.57.57,0,0,0,.24.13.42.42,0,0,0,.21,0,2.09,2.09,0,0,0-.35.55A3.72,3.72,0,0,0,10.71,20.66Z" transform="translate(0 0)" fill="#212121"/><path d="M10.89,19.54a1,1,0,0,0-.14.18.9.9,0,0,0-.07.22.44.44,0,0,0-.32-.12,1.55,1.55,0,0,0-.41,0,1.3,1.3,0,0,0,.23-.39c.07-.21.05-.4-.1-.43a1.09,1.09,0,0,0-.4.05s.07-.29,0-.37-.28,0-.28,0,.09-.41,0-.47a.32.32,0,0,0-.19-.06,1.2,1.2,0,0,1,.08-.28,4.54,4.54,0,0,1,.26-.46,1.06,1.06,0,0,0-.38.29,1.07,1.07,0,0,0-.2.35,2.94,2.94,0,0,1,0-.59A1.52,1.52,0,0,1,9.26,17a.71.71,0,0,0-.31.08,1.21,1.21,0,0,0-.23.19.94.94,0,0,0,.08-.35,2.22,2.22,0,0,0,0-.34.21.21,0,0,0-.12.06c0,.06-.1.18-.1.18a1.75,1.75,0,0,1,.09-.49.68.68,0,0,1,.22-.22.85.85,0,0,0-.37.05.66.66,0,0,0-.22.18.57.57,0,0,1,0-.22.51.51,0,0,1,.14-.18.62.62,0,0,0-.16,0,.47.47,0,0,0-.17.07,1.11,1.11,0,0,1,.18-.33l.25-.25a1.09,1.09,0,0,0-.29,0,.65.65,0,0,0-.27.11,1.76,1.76,0,0,1,0-.29,2.36,2.36,0,0,1,.1-.42.16.16,0,0,0-.11,0,.45.45,0,0,0-.15.1,1.11,1.11,0,0,0,.12-.23.33.33,0,0,0,0-.18.16.16,0,0,0-.11,0l-.12.1a.63.63,0,0,1,.13-.25A1,1,0,0,0,8.07,14a2.25,2.25,0,0,0,.11-.37,1.07,1.07,0,0,0-.21,0,.35.35,0,0,0-.21.08,1.09,1.09,0,0,1,.2-.31A2.16,2.16,0,0,0,8.23,13H8.06a.35.35,0,0,0-.16,0,.53.53,0,0,1,.14-.3.78.78,0,0,0,.18-.33,1,1,0,0,0,0-.21.83.83,0,0,0,.28-.2,1.1,1.1,0,0,0,.17-.36.41.41,0,0,0-.14,0,.44.44,0,0,0-.17.06.81.81,0,0,1,.11-.3A3.4,3.4,0,0,1,8.68,11a1.44,1.44,0,0,1-.51.15c-.27,0-.53,0-.53,0a.61.61,0,0,0,.21.21.83.83,0,0,0,.32.05.64.64,0,0,0-.15.37,6.15,6.15,0,0,0,0,.81,1.07,1.07,0,0,0-.33-.06.67.67,0,0,0-.35.15s-.06-.12-.3-.12a4.13,4.13,0,0,0-.52,0s.15-.1.07-.12a1.56,1.56,0,0,0-.35,0s.19-.16.11-.22a2.22,2.22,0,0,0-.64,0s.16-.14.08-.18-.28,0-.28,0,.12-.14.06-.17a2.12,2.12,0,0,0-.45,0s.26-.17.17-.23-.48.06-.48.06.21-.19.12-.22a.51.51,0,0,0-.23,0s.26-.14.16-.17a.53.53,0,0,0-.24,0s.07-.18,0-.16a1.44,1.44,0,0,0-.29.19,1.52,1.52,0,0,1,.21-.38c.11-.11.22-.21.23-.29s-.15-.19-.15-.19a2,2,0,0,0,.44-.1c.18-.07.32-.16.24-.22A1,1,0,0,0,5,10.26s.56-.07.56-.12S5.28,10,5.28,10,6,10,5.92,9.9s-.23-.17-.23-.17.76-.09.72-.17-.26-.13-.26-.13a1.67,1.67,0,0,1,.84,0,10.2,10.2,0,0,0,1.1.55c.27.05.63.09.63.2a.59.59,0,0,0,.17.49.8.8,0,0,0,.41.23,2.84,2.84,0,0,0,0,1,3.59,3.59,0,0,0,.29.68.29.29,0,0,0-.16.1c-.08.09.16.46.16.46a1.06,1.06,0,0,0-.23.66c.06.3.53.68.54.84s0,.43.13.62a5.89,5.89,0,0,1,.81,1.1,2.11,2.11,0,0,1-.13,1.18,1.52,1.52,0,0,0,0,1,2.68,2.68,0,0,0,.2.3s-.22.11-.2.31A.63.63,0,0,0,10.89,19.54Z" transform="translate(0 0)" fill="#212121"/><path d="M9.52,11.51s.38,0,.46.08.32.48.46.62l.3.27a2.88,2.88,0,0,1-.8,0c-.18-.07-.21-.46-.26-.59S9.52,11.51,9.52,11.51Z" transform="translate(0 0)" fill="#212121"/><path d="M6.82,9.17c.52.17.92.49,1.23.6s.81.16.81.16a.66.66,0,0,1,.06-.49,1.31,1.31,0,0,1,.36-.22S9,9.06,9,8.85s.28-.5.36-.61,0-.52,0-.52a2,2,0,0,0,.35-.25c.15-.13.15-.16.15-.16A4.37,4.37,0,0,1,8.7,7.22a1.76,1.76,0,0,1-1.19-.61,3.57,3.57,0,0,1-1-2.05A6.8,6.8,0,0,1,6.9,1.75C7.24,1,7.47.47,7.37.24S7.21-.31,6.62.7A12.86,12.86,0,0,0,4.86,5.09a3.92,3.92,0,0,0,.68,3A2.17,2.17,0,0,0,6.82,9.17Z" transform="translate(0 0)" fill="#212121"/><path d="M15,29.52s.08-.23.11-.34a.77.77,0,0,1,.13-.26.36.36,0,0,1,0,.16c0,.09,0,.21,0,.21A2.41,2.41,0,0,1,15.4,29a.76.76,0,0,1,.18-.17,1.11,1.11,0,0,1,.08.16.85.85,0,0,1,0,.13s.07-.09.14,0,.11.41.22.52.22,0,.31.13a.72.72,0,0,1,.14.22,1,1,0,0,0-.07-.39,1.16,1.16,0,0,1-.1-.43.46.46,0,0,1,.25,0,.87.87,0,0,1,.24.09,2,2,0,0,1,.06-.42,4.47,4.47,0,0,1,.19-.52.57.57,0,0,1,.07.22.89.89,0,0,1,0,.27,1,1,0,0,0,.19-.26c0-.1,0-.28,0-.28a.19.19,0,0,0,.21-.07,1.09,1.09,0,0,0,.09-.37.25.25,0,0,1,.08.13.85.85,0,0,1,0,.17,1.27,1.27,0,0,0,.37-.36,3.13,3.13,0,0,0,.17-.51.59.59,0,0,1,.06.12,1.08,1.08,0,0,1,0,.22,3.57,3.57,0,0,1,.16-.46c.11-.23.23-.31.25-.45a1.2,1.2,0,0,0,0-.29.44.44,0,0,1,.16.08.46.46,0,0,1,.07.18.68.68,0,0,1,.08-.3,3.14,3.14,0,0,1,.29-.37s-.11,0-.15-.23,0-.35,0-.41L19,25.19a2.17,2.17,0,0,0,.34.11.93.93,0,0,0,.31,0,.6.6,0,0,1-.27-.08c-.13-.08-.19-.13-.11-.3a.51.51,0,0,1,.29-.24.43.43,0,0,1-.19-.16c0-.1,0-.22.11-.22a.18.18,0,0,1,.14.06.77.77,0,0,0,0-.37c0-.22-.14-.46-.11-.49s.12.07.12.07a1.12,1.12,0,0,1-.12-.39c0-.21.08-.31.12-.26a.29.29,0,0,1,0,.16.74.74,0,0,0,.06-.35c0-.19-.07-.3,0-.33a.2.2,0,0,1,.21.07.43.43,0,0,1,.06.15,1.42,1.42,0,0,0-.09-.51c-.1-.16-.6-.57-.73-.88a2.15,2.15,0,0,0-.44-.83,1.14,1.14,0,0,0-.8-.18c-.43,0-.73,0-1,.67s-.29.81-.68,1a3,3,0,0,0-.81.55.66.66,0,0,1-.53.23Z" transform="translate(0 0)" fill="#212121"/><path d="M15,20.52c.25,0,.6.11,1.1.11s.72-.4.83-.36-.3,1-.61,1.24A2.45,2.45,0,0,1,15,22Z" transform="translate(0 0)" fill="#212121"/><path d="M16.2,20.35a.52.52,0,0,1,.08-.26.42.42,0,0,0,.07-.47c-.1-.23-.33-.21-.49-.21a1.37,1.37,0,0,0-.31,0,.83.83,0,0,1,.16-.52c.17-.16.84-.35,1-.59s.07-.34.25-.45a.23.23,0,0,1,.36.16c0,.15-.1.21-.22.21s-.13.38-.1.54a.65.65,0,0,1-.19.46.61.61,0,0,0,0,.54c.06.12-.07.15-.26.28A1.47,1.47,0,0,0,16.2,20.35Z" transform="translate(0 0)" fill="#212121"/><path d="M19.29,20.66a2.3,2.3,0,0,0-.55-.57,2.21,2.21,0,0,0-.8-.2A1,1,0,0,0,18,19.5a4.2,4.2,0,0,0-.07-.58.68.68,0,0,0,.24,0,.27.27,0,0,0,.21-.1.81.81,0,0,1-.31-.19,1.06,1.06,0,0,1-.23-.39.29.29,0,0,0,.14,0,.65.65,0,0,0,.16,0,2.12,2.12,0,0,1-.34-.38.79.79,0,0,1-.16-.37,1,1,0,0,1,.16-.08l.16-.05a1.92,1.92,0,0,1-.5-.36,2.64,2.64,0,0,1-.13-.4c-.05-.11-.18-.25-.31-.22s-.15.31-.15.31-.33-.07-.3,0a1.21,1.21,0,0,1,.13.51,1.14,1.14,0,0,1-.17.55,1.37,1.37,0,0,0-.09-.58c-.11-.32-.25-.5-.28-.63a1.66,1.66,0,0,1,0-.33.77.77,0,0,0-.11.16.44.44,0,0,0,0,.2,1.35,1.35,0,0,0-.2-.32c-.14-.17-.3-.22-.31-.17s0,.26-.15.22a1.19,1.19,0,0,0-.39,0V2.2a2,2,0,0,0,.25.32.71.71,0,0,0,.26.14.33.33,0,0,0,0-.14.93.93,0,0,0-.05-.2s.19.13.22.22a.48.48,0,0,1,0,.13.88.88,0,0,0,.37-.36,3.11,3.11,0,0,0,.27-.49,1.37,1.37,0,0,1,.05.42,1.61,1.61,0,0,1-.08.33.93.93,0,0,0,.34-.15,2.18,2.18,0,0,0,.24-.22s.3.59.54.69a1.33,1.33,0,0,0,1-.05c.2-.17.56-.52.56-.52s-.27.46-.22.66a1.57,1.57,0,0,0,.83.66,1.75,1.75,0,0,0,.41,0s0,.23,0,.27a1.14,1.14,0,0,0,.35,0,.49.49,0,0,0,.09.34,1.49,1.49,0,0,0,.4.31,1.46,1.46,0,0,0-.05.57c.07.15.29.06.29.06s-.08.35,0,.42.45,0,.45,0-.19.36-.13.44.47,0,.47,0a1.28,1.28,0,0,0,0,.45.26.26,0,0,1-.17.34A3.42,3.42,0,0,1,20,7a3.31,3.31,0,0,0-1.38-.7,1.53,1.53,0,0,0-1.28.43,3,3,0,0,1-.34.31s.42.1.59,0,.34-.32.44-.38.62-.08.7,0a2.64,2.64,0,0,0,.7.66c.37.21.66.17.82.35s0,.47.21.67l.32.4s-.42,0-.42.28a.88.88,0,0,0,.3.53,1.25,1.25,0,0,0-.09.54,1.39,1.39,0,0,0,.15.64,1,1,0,0,0-.72,0,5.58,5.58,0,0,1-1.11.36,1.15,1.15,0,0,0,.32.18.53.53,0,0,0,.25,0,1.25,1.25,0,0,1-.2.26.85.85,0,0,1-.36.17.88.88,0,0,1,0,.56,4.39,4.39,0,0,1-.32.64.72.72,0,0,1,.39.22,1.27,1.27,0,0,1,.25.38,1.26,1.26,0,0,1,.47-.09c.28,0,.62.35.62.35a.43.43,0,0,0-.33.24,3.71,3.71,0,0,0-.24,1.06,5,5,0,0,1-.72.87c-.17.07-.32.09-.4,0a6.44,6.44,0,0,0-.36-.76A.85.85,0,0,0,18,15a.63.63,0,0,1,.06.42c-.06.19-.13.37,0,.45s.49.16.62.56.08.91.27,1.22a.91.91,0,0,1,.12.82,1.27,1.27,0,0,0-.07.64.45.45,0,0,0,.23.2.57.57,0,0,1-.24.13.42.42,0,0,1-.21,0,2.09,2.09,0,0,1,.35.55A3.72,3.72,0,0,1,19.29,20.66Z" transform="translate(0 0)" fill="#212121"/><path d="M19.11,19.54a1,1,0,0,1,.14.18.9.9,0,0,1,.07.22.44.44,0,0,1,.32-.12,1.55,1.55,0,0,1,.41,0,1.3,1.3,0,0,1-.23-.39c-.07-.21-.05-.4.1-.43a1.09,1.09,0,0,1,.4.05s-.07-.29,0-.37.28,0,.28,0-.09-.41,0-.47a.32.32,0,0,1,.19-.06,1.2,1.2,0,0,0-.08-.28,4.54,4.54,0,0,0-.26-.46,1.06,1.06,0,0,1,.38.29,1.07,1.07,0,0,1,.2.35,2.94,2.94,0,0,0,0-.59,1.52,1.52,0,0,0-.23-.51.71.71,0,0,1,.31.08,1.21,1.21,0,0,1,.23.19.94.94,0,0,1-.08-.35,2.22,2.22,0,0,1,0-.34.21.21,0,0,1,.12.06c0,.06.1.18.1.18a1.75,1.75,0,0,0-.09-.49.68.68,0,0,0-.22-.22.85.85,0,0,1,.37.05.66.66,0,0,1,.22.18.57.57,0,0,0,0-.22.51.51,0,0,0-.14-.18.62.62,0,0,1,.16,0,.47.47,0,0,1,.17.07,1.11,1.11,0,0,0-.18-.33l-.25-.25a1.09,1.09,0,0,1,.29,0,.65.65,0,0,1,.27.11,1.76,1.76,0,0,0,0-.29,2.36,2.36,0,0,0-.1-.42.16.16,0,0,1,.11,0,.45.45,0,0,1,.15.1,1.11,1.11,0,0,1-.12-.23.33.33,0,0,1,0-.18.16.16,0,0,1,.11,0l.12.1a.63.63,0,0,0-.13-.25,1,1,0,0,1-.27-.35,2.25,2.25,0,0,1-.11-.37,1.07,1.07,0,0,1,.21,0,.35.35,0,0,1,.21.08,1.09,1.09,0,0,0-.2-.31,2.16,2.16,0,0,1-.27-.38h.17a.35.35,0,0,1,.16,0,.53.53,0,0,0-.14-.3.78.78,0,0,1-.18-.33,1,1,0,0,1,0-.21.83.83,0,0,1-.28-.2,1.1,1.1,0,0,1-.17-.36.41.41,0,0,1,.14,0,.44.44,0,0,1,.17.06.81.81,0,0,0-.11-.3,3.4,3.4,0,0,0-.22-.32,1.44,1.44,0,0,0,.51.15c.27,0,.53,0,.53,0a.61.61,0,0,1-.21.21.83.83,0,0,1-.32.05.64.64,0,0,1,.15.37,6.15,6.15,0,0,1,0,.81,1.07,1.07,0,0,1,.33-.06.67.67,0,0,1,.35.15s.06-.12.3-.12a4.13,4.13,0,0,1,.52,0s-.15-.1-.07-.12a1.56,1.56,0,0,1,.35,0s-.19-.16-.11-.22a2.22,2.22,0,0,1,.64,0s-.16-.14-.08-.18.28,0,.28,0-.12-.14-.06-.17a2.12,2.12,0,0,1,.45,0s-.26-.17-.17-.23.48.06.48.06-.21-.19-.12-.22a.51.51,0,0,1,.23,0s-.26-.14-.16-.17a.53.53,0,0,1,.24,0s-.07-.18,0-.16a1.44,1.44,0,0,1,.29.19,1.52,1.52,0,0,0-.21-.38c-.11-.11-.22-.21-.23-.29s.15-.19.15-.19a2,2,0,0,1-.44-.1c-.18-.07-.32-.16-.24-.22a1,1,0,0,1,.29-.06s-.56-.07-.56-.12.26-.12.26-.12-.67,0-.64-.12.23-.17.23-.17-.76-.09-.72-.17.26-.13.26-.13a1.67,1.67,0,0,0-.84,0,10.2,10.2,0,0,1-1.1.55c-.27.05-.63.09-.63.2a.59.59,0,0,1-.17.49.8.8,0,0,1-.41.23,2.84,2.84,0,0,1-.05,1,3.59,3.59,0,0,1-.29.68.29.29,0,0,1,.16.1c.08.09-.16.46-.16.46a1.06,1.06,0,0,1,.23.66c-.06.3-.53.68-.54.84s0,.43-.13.62a5.89,5.89,0,0,0-.81,1.1,2.11,2.11,0,0,0,.13,1.18,1.52,1.52,0,0,1,.05,1,2.68,2.68,0,0,1-.2.3s.22.11.2.31A.63.63,0,0,1,19.11,19.54Z" transform="translate(0 0)" fill="#212121"/><path d="M20.48,11.51s-.38,0-.46.08-.32.48-.46.62l-.3.27a2.88,2.88,0,0,0,.8,0c.18-.07.21-.46.26-.59S20.48,11.51,20.48,11.51Z" transform="translate(0 0)" fill="#212121"/><path d="M23.18,9.17c-.52.17-.92.49-1.23.6s-.81.16-.81.16a.66.66,0,0,0-.06-.49,1.31,1.31,0,0,0-.36-.22s.31-.16.31-.37-.28-.5-.36-.61,0-.52,0-.52a2,2,0,0,1-.35-.25c-.15-.13-.15-.16-.15-.16a4.37,4.37,0,0,0,1.12-.09,1.76,1.76,0,0,0,1.19-.61,3.57,3.57,0,0,0,1-2.05,6.8,6.8,0,0,0-.34-2.81C22.76,1,22.53.47,22.63.24s.16-.55.75.46a12.86,12.86,0,0,1,1.76,4.39,3.92,3.92,0,0,1-.68,3A2.17,2.17,0,0,1,23.18,9.17Z" transform="translate(0 0)" fill="#212121"/><rect width="30" height="30" fill="none"/></svg>