<!-- Copyright (c) 2022 Jan Stehno -->
<svg xmlns="http://www.w3.org/2000/svg" viewBox="0 0 300 300"><title>europeanbison</title><g id="europeanbison"><g id="left"><path d="M150,295.24s-.78-2.31-1.1-3.43a6.13,6.13,0,0,0-1.32-2.56c-.1,0-.24.65-.36,1.52a14.31,14.31,0,0,0-.09,2.09,16.44,16.44,0,0,0-1.17-2.47,6.76,6.76,0,0,0-1.8-1.66,8.71,8.71,0,0,0-.72,1.53,6.79,6.79,0,0,0-.13,1.3s-.72-.9-1.44-.27-1.12,4.09-2.2,5.21-2.2.36-3.09,1.3a7,7,0,0,0-1.35,2.2,8.45,8.45,0,0,1,.72-3.86,12.91,12.91,0,0,0,1-4.36,5.19,5.19,0,0,0-2.55-.18,8.08,8.08,0,0,0-2.43.95,17.41,17.41,0,0,0-.58-4.27,35.15,35.15,0,0,0-1.84-5.16,5,5,0,0,0-.72,2.2,10,10,0,0,0,.27,2.69,8.69,8.69,0,0,1-1.84-2.65c-.23-1-.41-2.78-.41-2.78a2,2,0,0,1-2.12-.7,10.18,10.18,0,0,1-.87-3.63,2.22,2.22,0,0,0-.88,1.28,6.46,6.46,0,0,0,.07,1.68s-2.93-1.89-3.77-3.64a31.63,31.63,0,0,1-1.62-5.12,4.65,4.65,0,0,0-.64,1.25,13.55,13.55,0,0,0-.2,2.19,31.92,31.92,0,0,0-1.62-4.61c-1-2.33-2.32-3.1-2.52-4.52a10.8,10.8,0,0,1,0-2.89,4.38,4.38,0,0,0-1.55.87,4.28,4.28,0,0,0-.74,1.72,7.05,7.05,0,0,0-.84-3,27.75,27.75,0,0,0-2.87-3.71s1.15,0,1.52-2.32,0-3.47.34-4.08a9.16,9.16,0,0,1,1.14-1.44,22.7,22.7,0,0,1-3.37,1.07,9.49,9.49,0,0,1-3.16,0,5.81,5.81,0,0,0,2.69-.8c1.35-.81,2-1.35,1.18-3a5.39,5.39,0,0,0-2.93-2.4,4,4,0,0,0,1.85-1.58c.44-1-.13-2.23-1-2.22a2,2,0,0,0-1.44.62,8.14,8.14,0,0,1-.34-3.75c.23-2.19,1.41-4.51,1-4.85s-1.15.71-1.15.71a11.62,11.62,0,0,0,1.15-3.94c.17-2.09-.81-3.1-1.18-2.56a3.29,3.29,0,0,0-.34,1.58,7.08,7.08,0,0,1-.53-3.5c.23-1.85.7-3,0-3.34a2,2,0,0,0-2.09.71,4,4,0,0,0-.68,1.48s0-3.4,1-5.05,6-5.66,7.24-8.82,2.53-6.84,4.48-8.32,3.6-1.8,7.91-1.8,7.37-.08,9.84,6.78,2.91,8,6.82,10a30.74,30.74,0,0,1,8.13,5.56,6.63,6.63,0,0,0,5.25,2.29Z" transform="translate(0 0)" fill="#212121"/><path d="M150,205.17c-2.54,0-6,1.08-11,1.08s-7.23-3.95-8.31-3.55,3,10,6.06,12.44,8.94,5.16,13.25,5.16Z" transform="translate(0 0)" fill="#212121"/><path d="M138,203.46a5,5,0,0,0-.74-2.56c-.78-1.18-1.82-2.39-.78-4.72s3.3-2.12,4.92-2.12a13.43,13.43,0,0,1,3.1.4s.13-3.43-1.59-5.11-8.41-3.54-9.86-6-.78-3.44-2.49-4.45a2.29,2.29,0,0,0-3.61,1.55c-.13,1.52,1,2.09,2.12,2.09s1.35,3.84,1.08,5.45.78,3.24,1.85,4.62,1,4.14.44,5.35.68,1.48,2.56,2.8A16.08,16.08,0,0,1,138,203.46Z" transform="translate(0 0)" fill="#212121"/><path d="M107.14,206.59s2.68-4,5.5-5.7,8-2,8-2a10,10,0,0,1-.92-3.95,41.84,41.84,0,0,1,.68-5.73,5.62,5.62,0,0,1-2.34.18,3.09,3.09,0,0,1-2.15-1,8.71,8.71,0,0,0,3.14-2,9.7,9.7,0,0,0,2.29-3.86,3,3,0,0,1-1.41.27,7.51,7.51,0,0,1-1.55-.14,24.58,24.58,0,0,0,3.34-3.79,7.59,7.59,0,0,0,1.57-3.73,8.18,8.18,0,0,0-1.59-.81,8.62,8.62,0,0,0-1.62-.49s4.34-2.31,5.1-3.57.72-3,1.21-4.06,1.85-2.48,3.17-2.21,1.48,3.09,1.48,3.09,3.3-.67,3,.11a9.93,9.93,0,0,0,.34,10.64,14.61,14.61,0,0,1,.87-5.8c1.15-3.23,2.56-5,2.83-6.33a13.37,13.37,0,0,0,.07-3.26,8.85,8.85,0,0,1,1.07,1.58,5.46,5.46,0,0,1,.27,2,13.26,13.26,0,0,1,2-3.23c1.42-1.68,3-2.19,3.1-1.72s.15,2.56,1.48,2.19,2,0,3.91,0V22a19.31,19.31,0,0,1-2.49,3.2A7.15,7.15,0,0,1,145,26.56a3.16,3.16,0,0,1-.41-1.34,10,10,0,0,1,.44-2s-1.92,1.28-2.22,2.19a4,4,0,0,0-.27,1.34,9.66,9.66,0,0,1-3.74-3.6,34.31,34.31,0,0,1-2.66-4.88,13.78,13.78,0,0,0-.47,4.17,17.34,17.34,0,0,0,.74,3.27A9.65,9.65,0,0,1,133,24.21,17.89,17.89,0,0,1,130.64,22s-3,5.85-5.42,6.92S117,30,115,28.36s-5.61-5.16-5.61-5.16,2.74,4.58,2.2,6.55-6,6.51-8.31,6.65a16.81,16.81,0,0,1-4.11-.27s.54,2.25-.33,2.66a11.37,11.37,0,0,1-3.54.17,4.53,4.53,0,0,1-.88,3.4,13.85,13.85,0,0,1-4,3.1s1.08,4.21.44,5.72-2.86.64-2.86.64.84,3.5.13,4.21-4.55.13-4.55.13,1.92,3.67,1.32,4.45-4.72.34-4.72.34.78,3.13.44,4.47-.23,2.46,1.65,3.34,14,3.56,17.43,1.4,7.64-6,13.83-6.91a15.2,15.2,0,0,1,12.75,4.22,35.39,35.39,0,0,0,3.42,3.14s-4.18,1-5.93-.09-3.37-3.23-4.4-3.77-6.2-.85-7,0-3.27,4.54-7,6.6-6.6,1.76-8.18,3.46-.54,4.76-2.15,6.74-3.19,4-3.19,4,4.22.14,4.22,2.83-3.05,5.25-3.05,5.25a13,13,0,0,1,.9,5.48,14.2,14.2,0,0,1-1.44,6.33s4.4-1.75,7.14,0S110.8,111,110.8,111a11.51,11.51,0,0,1-3.18,1.8,5.85,5.85,0,0,1-2.52.32,12.51,12.51,0,0,0,2,2.6,7.73,7.73,0,0,0,3.59,1.66s-1.3,3.1-.41,5.66a45.46,45.46,0,0,0,3.24,6.42,6.42,6.42,0,0,0-3.86,2.2,12,12,0,0,0-2.52,3.73,13.7,13.7,0,0,0-4.76-.81c-2.78,0-6.19,3.5-6.19,3.5s1.84-.05,3.36,2.33S101.91,151,101.91,151s5.62,8,7.23,8.72,3.19.89,4-.27,2.34-6.16,3.6-7.59a9.3,9.3,0,0,1,3.86-2.16,5.84,5.84,0,0,0-.63,4.13c.63,2,1.25,3.77.09,4.58s-4.9,1.62-6.24,5.62-.72,9-2.7,12.16-2,5.84-1.21,8.17,1.17,5.08.72,6.38a4.31,4.31,0,0,1-2.25,2,5.34,5.34,0,0,0,2.34,1.3,5,5,0,0,0,2.11-.13,20.91,20.91,0,0,0-3.46,5.43A35,35,0,0,0,107.14,206.59Z" transform="translate(0 0)" fill="#212121"/><path d="M108.9,195.41a8.4,8.4,0,0,0-1.44,1.84,7.68,7.68,0,0,0-.68,2.11,4.42,4.42,0,0,0-3.14-1.19,18.78,18.78,0,0,0-4.17.22,12.72,12.72,0,0,0,2.31-3.9c.69-2.11.49-4-1-4.27a11.12,11.12,0,0,0-4,.5s.74-2.95.18-3.69-2.71.25-2.71.25.87-4.13.26-4.71a3.26,3.26,0,0,0-1.88-.61,12,12,0,0,1,.83-2.81A33.62,33.62,0,0,1,96,174.62a10.2,10.2,0,0,0-3.8,2.87,11,11,0,0,0-2,3.53,29.56,29.56,0,0,1,.09-6,14.92,14.92,0,0,1,2.31-5,6.83,6.83,0,0,0-3,.78,11.35,11.35,0,0,0-2.31,1.89,11.13,11.13,0,0,0,.81-3.46,22.22,22.22,0,0,0-.16-3.43,1.94,1.94,0,0,0-1.19.65c-.38.54-1,1.77-1,1.77s.27-3.66,1-4.92a7,7,0,0,1,2.22-2.17,9,9,0,0,0-3.75.47,6.5,6.5,0,0,0-2.22,1.82,6,6,0,0,1,.15-2.2,5.39,5.39,0,0,1,1.35-1.82,6.32,6.32,0,0,0-1.55-.29,4.37,4.37,0,0,0-1.68.65,12.26,12.26,0,0,1,1.75-3.3L85.39,154a10.08,10.08,0,0,0-2.85-.34,6.71,6.71,0,0,0-2.74,1.08,16.61,16.61,0,0,1-.41-2.85,23.46,23.46,0,0,1,1-4.21,1.81,1.81,0,0,0-1.11,0,5.12,5.12,0,0,0-1.55,1,15,15,0,0,0,1.28-2.29,3.87,3.87,0,0,0,0-1.85,1.7,1.7,0,0,0-1.15.3,10.49,10.49,0,0,0-1.21,1A5.22,5.22,0,0,1,78,143.45,11,11,0,0,0,80.7,140a24.51,24.51,0,0,0,1.11-3.71,9.12,9.12,0,0,0-2.09-.23,3.62,3.62,0,0,0-2.12.77,11.29,11.29,0,0,1,2-3.06,21.86,21.86,0,0,0,2.69-3.78,10.79,10.79,0,0,0-1.68-.16,3.49,3.49,0,0,0-1.65.57,6,6,0,0,1,1.38-3.07A6.62,6.62,0,0,0,82.18,124a10.39,10.39,0,0,0,0-2.16,7.79,7.79,0,0,0,2.72-2,10.84,10.84,0,0,0,1.72-3.6,4.58,4.58,0,0,0-1.41-.27,3.94,3.94,0,0,0-1.65.6,8.87,8.87,0,0,1,1-3c.84-1.41,2.19-3.23,2.19-3.23a13.44,13.44,0,0,1-5.09,1.52c-2.69.16-5.25.06-5.25.06a5.12,5.12,0,0,0,2.12,2.12,7.2,7.2,0,0,0,3.17.48,6.55,6.55,0,0,0-1.55,3.7,58.4,58.4,0,0,0-.14,8.12,11,11,0,0,0-3.33-.61,6.67,6.67,0,0,0-3.47,1.48s-.6-1.14-3.06-1.14a40.82,40.82,0,0,0-5.15.4s1.51-1,.74-1.21a17.58,17.58,0,0,0-3.51.27s1.86-1.62,1-2.19-6.34.1-6.34.1,1.57-1.37.78-1.8-2.87.34-2.87.34,1.23-1.44.61-1.75-4.43.09-4.43.09,2.52-1.66,1.66-2.27-4.78.61-4.78.61,2-1.91,1.21-2.25a6.41,6.41,0,0,0-2.33-.18s2.56-1.37,1.62-1.68a5.18,5.18,0,0,0-2.41.07s.7-1.73-.11-1.55A13.12,13.12,0,0,0,43,115c.07,0,1-2.74,2.09-3.79s2.2-2.13,2.29-2.9-1.49-1.88-1.49-1.88a23.85,23.85,0,0,0,4.43-1.06c1.79-.69,3.14-1.55,2.38-2.13a10.34,10.34,0,0,0-2.91-.63s5.61-.66,5.59-1.24c0-1-2.59-1.18-2.59-1.18s6.7-.44,6.42-1.19c-.4-1.07-2.32-1.68-2.32-1.68s7.54-.88,7.14-1.68-2.52-1.31-2.52-1.31,4.59-1.13,8.32.31,8.21,5,11,5.48,6.33.85,6.37,2-.31,3,1.66,4.94A8.29,8.29,0,0,0,93,109.27s-.8,6,.5,10.15a35.45,35.45,0,0,0,2.87,6.78,3,3,0,0,0-1.62,1c-.78.88,1.67,4.65,1.67,4.65s-2.88,3.57-2.31,6.57,5.26,6.83,5.39,8.38-.33,4.31,1.25,6.2,7.29,8.42,8.15,11.07,0,8.93-1.35,11.76-1.39,8.4-.49,10a20.52,20.52,0,0,0,2,3s-2.2,1.13-2,3.15A6.35,6.35,0,0,0,108.9,195.41Z" transform="translate(0 0)" fill="#212121"/><path d="M95.16,115.13s3.88-.18,4.69.74,3.12,4.83,4.53,6.19,3.06,2.79,3.06,2.79-6.25.74-8,.07-2.15-4.65-2.6-5.89S95.16,115.13,95.16,115.13Z" transform="translate(0 0)" fill="#212121"/><path d="M68.19,91.71c5.17,1.71,9.25,4.85,12.35,6a79.73,79.73,0,0,0,8,1.62s-.81-3.14.63-4.94c.79-1,3.54-2.2,3.54-2.2s-3-1.52-3-3.63,2.83-5,3.59-6.11,0-5.25,0-5.25a22.69,22.69,0,0,0,3.45-2.43c1.53-1.35,1.53-1.66,1.53-1.66A45.78,45.78,0,0,1,87,72.23c-6.67-1.32-8.93-2.88-11.89-6.11S66,54.45,65.59,45.56s0-20.75,3.41-28S74.75,4.7,73.67,2.36,72.06-3.11,66.22,7s-16,28.47-17.6,43.91S50.41,74,55.35,81.12,63.16,90.05,68.19,91.71Z" transform="translate(0 0)" fill="#212121"/></g><g id="right"><path d="M150,295.24s.78-2.31,1.1-3.43a6.13,6.13,0,0,1,1.32-2.56c.1,0,.24.65.36,1.52a14.31,14.31,0,0,1,.09,2.09,16.44,16.44,0,0,1,1.17-2.47,6.76,6.76,0,0,1,1.8-1.66,8.71,8.71,0,0,1,.72,1.53,6.79,6.79,0,0,1,.13,1.3s.72-.9,1.44-.27,1.12,4.09,2.2,5.21,2.2.36,3.09,1.3a7,7,0,0,1,1.35,2.2,8.45,8.45,0,0,0-.72-3.86,12.91,12.91,0,0,1-1-4.36,5.19,5.19,0,0,1,2.55-.18,8.08,8.08,0,0,1,2.43.95,17.41,17.41,0,0,1,.58-4.27,35.15,35.15,0,0,1,1.84-5.16,5,5,0,0,1,.72,2.2,10,10,0,0,1-.27,2.69,8.69,8.69,0,0,0,1.84-2.65c.23-1,.41-2.78.41-2.78a2,2,0,0,0,2.12-.7,10.18,10.18,0,0,0,.87-3.63,2.22,2.22,0,0,1,.88,1.28,6.46,6.46,0,0,1-.07,1.68s2.93-1.89,3.77-3.64a31.63,31.63,0,0,0,1.62-5.12,4.65,4.65,0,0,1,.64,1.25,13.55,13.55,0,0,1,.2,2.19,31.92,31.92,0,0,1,1.62-4.61c1-2.33,2.32-3.1,2.52-4.52a10.8,10.8,0,0,0,0-2.89,4.38,4.38,0,0,1,1.55.87,4.28,4.28,0,0,1,.74,1.72,7.05,7.05,0,0,1,.84-3,27.75,27.75,0,0,1,2.87-3.71s-1.15,0-1.52-2.32,0-3.47-.34-4.08a9.16,9.16,0,0,0-1.14-1.44,22.7,22.7,0,0,0,3.37,1.07,9.49,9.49,0,0,0,3.16,0,5.81,5.81,0,0,1-2.69-.8c-1.35-.81-2-1.35-1.18-3a5.39,5.39,0,0,1,2.93-2.4,4,4,0,0,1-1.85-1.58c-.44-1,.13-2.23,1-2.22a2,2,0,0,1,1.44.62,8.14,8.14,0,0,0,.34-3.75c-.23-2.19-1.41-4.51-1-4.85s1.15.71,1.15.71a11.62,11.62,0,0,1-1.15-3.94c-.17-2.09.81-3.1,1.18-2.56a3.29,3.29,0,0,1,.34,1.58,7.08,7.08,0,0,0,.53-3.5c-.23-1.85-.7-3,0-3.34a2,2,0,0,1,2.09.71,4,4,0,0,1,.68,1.48s0-3.4-1-5.05-6-5.66-7.24-8.82S189.9,205.44,188,204s-3.6-1.8-7.91-1.8-7.37-.08-9.84,6.78-2.91,8-6.82,10a30.74,30.74,0,0,0-8.13,5.56,6.63,6.63,0,0,1-5.25,2.29Z" transform="translate(0 0)" fill="#212121"/><path d="M150,205.17c2.54,0,6,1.08,11,1.08s7.23-3.95,8.31-3.55-3,10-6.06,12.44-8.94,5.16-13.25,5.16Z" transform="translate(0 0)" fill="#212121"/><path d="M162,203.46a5,5,0,0,1,.74-2.56c.78-1.18,1.82-2.39.78-4.72s-3.3-2.12-4.92-2.12a13.43,13.43,0,0,0-3.1.4s-.13-3.43,1.59-5.11,8.41-3.54,9.86-6,.78-3.44,2.49-4.45a2.29,2.29,0,0,1,3.61,1.55c.13,1.52-1,2.09-2.12,2.09s-1.35,3.84-1.08,5.45-.78,3.24-1.85,4.62-1,4.14-.44,5.35-.68,1.48-2.56,2.8A16.08,16.08,0,0,0,162,203.46Z" transform="translate(0 0)" fill="#212121"/><path d="M192.86,206.59s-2.68-4-5.5-5.7-8-2-8-2a10,10,0,0,0,.92-3.95,41.84,41.84,0,0,0-.68-5.73,5.62,5.62,0,0,0,2.34.18,3.09,3.09,0,0,0,2.15-1,8.71,8.71,0,0,1-3.14-2,9.7,9.7,0,0,1-2.29-3.86,3,3,0,0,0,1.41.27,7.51,7.51,0,0,0,1.55-.14,24.58,24.58,0,0,1-3.34-3.79,7.59,7.59,0,0,1-1.57-3.73,8.18,8.18,0,0,1,1.59-.81,8.62,8.62,0,0,1,1.62-.49s-4.34-2.31-5.1-3.57-.72-3-1.21-4.06-1.85-2.48-3.17-2.21-1.48,3.09-1.48,3.09-3.3-.67-3,.11a9.93,9.93,0,0,1-.34,10.64,14.61,14.61,0,0,0-.87-5.8c-1.15-3.23-2.56-5-2.83-6.33a13.37,13.37,0,0,1-.07-3.26,8.85,8.85,0,0,0-1.07,1.58,5.46,5.46,0,0,0-.27,2,13.26,13.26,0,0,0-2-3.23c-1.42-1.68-3-2.19-3.1-1.72s-.15,2.56-1.48,2.19-2,0-3.91,0V22a19.31,19.31,0,0,0,2.49,3.2,7.15,7.15,0,0,0,2.56,1.41,3.16,3.16,0,0,0,.41-1.34,10,10,0,0,0-.44-2s1.92,1.28,2.22,2.19a4,4,0,0,1,.27,1.34,9.66,9.66,0,0,0,3.74-3.6,34.31,34.31,0,0,0,2.66-4.88,13.78,13.78,0,0,1,.47,4.17,17.34,17.34,0,0,1-.74,3.27A9.65,9.65,0,0,0,167,24.21,17.89,17.89,0,0,0,169.36,22s3,5.85,5.42,6.92S183,30,185,28.36s5.61-5.16,5.61-5.16-2.74,4.58-2.2,6.55,6,6.51,8.31,6.65a16.81,16.81,0,0,0,4.11-.27s-.54,2.25.33,2.66a11.37,11.37,0,0,0,3.54.17,4.53,4.53,0,0,0,.88,3.4,13.85,13.85,0,0,0,4,3.1s-1.08,4.21-.44,5.72,2.86.64,2.86.64-.84,3.5-.13,4.21,4.55.13,4.55.13-1.92,3.67-1.32,4.45,4.72.34,4.72.34-.78,3.13-.44,4.47.23,2.46-1.65,3.34-14,3.56-17.43,1.4-7.64-6-13.83-6.91a15.2,15.2,0,0,0-12.75,4.22,35.39,35.39,0,0,1-3.42,3.14s4.18,1,5.93-.09,3.37-3.23,4.4-3.77,6.2-.85,7,0,3.27,4.54,7,6.6,6.6,1.76,8.18,3.46.54,4.76,2.15,6.74,3.19,4,3.19,4-4.22.14-4.22,2.83,3.05,5.25,3.05,5.25a13,13,0,0,0-.9,5.48,14.2,14.2,0,0,0,1.44,6.33s-4.4-1.75-7.14,0S189.2,111,189.2,111a11.51,11.51,0,0,0,3.18,1.8,5.85,5.85,0,0,0,2.52.32,12.51,12.51,0,0,1-2,2.6,7.73,7.73,0,0,1-3.59,1.66s1.3,3.1.41,5.66a45.46,45.46,0,0,1-3.24,6.42,6.42,6.42,0,0,1,3.86,2.2,12,12,0,0,1,2.52,3.73,13.7,13.7,0,0,1,4.76-.81c2.78,0,6.19,3.5,6.19,3.5s-1.84-.05-3.36,2.33S198.09,151,198.09,151s-5.62,8-7.23,8.72-3.19.89-4-.27-2.34-6.16-3.6-7.59a9.3,9.3,0,0,0-3.86-2.16,5.84,5.84,0,0,1,.63,4.13c-.63,2-1.25,3.77-.09,4.58s4.9,1.62,6.24,5.62.72,9,2.7,12.16,2,5.84,1.21,8.17-1.17,5.08-.72,6.38a4.31,4.31,0,0,0,2.25,2,5.34,5.34,0,0,1-2.34,1.3,5,5,0,0,1-2.11-.13,20.91,20.91,0,0,1,3.46,5.43A35,35,0,0,1,192.86,206.59Z" transform="translate(0 0)" fill="#212121"/><path d="M191.1,195.41a8.4,8.4,0,0,1,1.44,1.84,7.68,7.68,0,0,1,.68,2.11,4.42,4.42,0,0,1,3.14-1.19,18.78,18.78,0,0,1,4.17.22,12.72,12.72,0,0,1-2.31-3.9c-.69-2.11-.49-4,1-4.27a11.12,11.12,0,0,1,4,.5s-.74-2.95-.18-3.69,2.71.25,2.71.25-.87-4.13-.26-4.71a3.26,3.26,0,0,1,1.88-.61,12,12,0,0,0-.83-2.81,33.62,33.62,0,0,0-2.54-4.53,10.2,10.2,0,0,1,3.8,2.87,11,11,0,0,1,2,3.53,29.56,29.56,0,0,0-.09-6,14.92,14.92,0,0,0-2.31-5,6.83,6.83,0,0,1,3,.78,11.35,11.35,0,0,1,2.31,1.89,11.13,11.13,0,0,1-.81-3.46,22.22,22.22,0,0,1,.16-3.43,1.94,1.94,0,0,1,1.19.65c.38.54,1,1.77,1,1.77s-.27-3.66-1-4.92a7,7,0,0,0-2.22-2.17,9,9,0,0,1,3.75.47,6.5,6.5,0,0,1,2.22,1.82,6,6,0,0,0-.15-2.2,5.39,5.39,0,0,0-1.35-1.82,6.32,6.32,0,0,1,1.55-.29,4.37,4.37,0,0,1,1.68.65,12.26,12.26,0,0,0-1.75-3.3L214.61,154a10.08,10.08,0,0,1,2.85-.34,6.71,6.71,0,0,1,2.74,1.08,16.61,16.61,0,0,0,.41-2.85,23.46,23.46,0,0,0-1-4.21,1.81,1.81,0,0,1,1.11,0,5.12,5.12,0,0,1,1.55,1,15,15,0,0,1-1.28-2.29,3.87,3.87,0,0,1,0-1.85,1.7,1.7,0,0,1,1.15.3,10.49,10.49,0,0,1,1.21,1,5.22,5.22,0,0,0-1.35-2.42,11,11,0,0,1-2.66-3.5,24.51,24.51,0,0,1-1.11-3.71,9.12,9.12,0,0,1,2.09-.23,3.62,3.62,0,0,1,2.12.77,11.29,11.29,0,0,0-2-3.06,21.86,21.86,0,0,1-2.69-3.78,10.79,10.79,0,0,1,1.68-.16,3.49,3.49,0,0,1,1.65.57,6,6,0,0,0-1.38-3.07,6.62,6.62,0,0,1-1.82-3.26,10.39,10.39,0,0,1,0-2.16,7.79,7.79,0,0,1-2.72-2,10.84,10.84,0,0,1-1.72-3.6,4.58,4.58,0,0,1,1.41-.27,3.94,3.94,0,0,1,1.65.6,8.87,8.87,0,0,0-1-3c-.84-1.41-2.19-3.23-2.19-3.23a13.44,13.44,0,0,0,5.09,1.52c2.69.16,5.25.06,5.25.06a5.12,5.12,0,0,1-2.12,2.12,7.2,7.2,0,0,1-3.17.48,6.55,6.55,0,0,1,1.55,3.7,58.4,58.4,0,0,1,.14,8.12,11,11,0,0,1,3.33-.61,6.67,6.67,0,0,1,3.47,1.48s.6-1.14,3.06-1.14a40.82,40.82,0,0,1,5.15.4s-1.51-1-.74-1.21a17.58,17.58,0,0,1,3.51.27s-1.86-1.62-1-2.19,6.34.1,6.34.1-1.57-1.37-.78-1.8,2.87.34,2.87.34-1.23-1.44-.61-1.75,4.43.09,4.43.09-2.52-1.66-1.66-2.27,4.78.61,4.78.61-2-1.91-1.21-2.25a6.41,6.41,0,0,1,2.33-.18s-2.56-1.37-1.62-1.68a5.18,5.18,0,0,1,2.41.07s-.7-1.73.11-1.55A13.12,13.12,0,0,1,257,115c-.07,0-1-2.74-2.09-3.79s-2.2-2.13-2.29-2.9,1.49-1.88,1.49-1.88a23.85,23.85,0,0,1-4.43-1.06c-1.79-.69-3.14-1.55-2.38-2.13a10.34,10.34,0,0,1,2.91-.63s-5.61-.66-5.59-1.24c0-1,2.59-1.18,2.59-1.18s-6.7-.44-6.42-1.19c.4-1.07,2.32-1.68,2.32-1.68s-7.54-.88-7.14-1.68,2.52-1.31,2.52-1.31-4.59-1.13-8.32.31-8.21,5-11,5.48-6.33.85-6.37,2,.31,3-1.66,4.94a8.29,8.29,0,0,1-4.13,2.25s.8,6-.5,10.15a35.45,35.45,0,0,1-2.87,6.78,3,3,0,0,1,1.62,1c.78.88-1.67,4.65-1.67,4.65s2.88,3.57,2.31,6.57-5.26,6.83-5.39,8.38.33,4.31-1.25,6.2-7.29,8.42-8.15,11.07,0,8.93,1.35,11.76,1.39,8.4.49,10a20.52,20.52,0,0,1-2,3s2.2,1.13,2,3.15A6.35,6.35,0,0,1,191.1,195.41Z" transform="translate(0 0)" fill="#212121"/><path d="M204.84,115.13s-3.88-.18-4.69.74-3.12,4.83-4.53,6.19-3.06,2.79-3.06,2.79,6.25.74,8,.07,2.15-4.65,2.6-5.89S204.84,115.13,204.84,115.13Z" transform="translate(0 0)" fill="#212121"/><path d="M231.81,91.71c-5.17,1.71-9.25,4.85-12.35,6a79.73,79.73,0,0,1-8,1.62s.81-3.14-.63-4.94c-.79-1-3.54-2.2-3.54-2.2s3-1.52,3.05-3.63-2.83-5-3.59-6.11,0-5.25,0-5.25a22.69,22.69,0,0,1-3.45-2.43c-1.53-1.35-1.53-1.66-1.53-1.66A45.78,45.78,0,0,0,213,72.23c6.67-1.32,8.93-2.88,11.89-6.11s9.16-11.67,9.52-20.56,0-20.75-3.41-28S225.25,4.7,226.33,2.36s1.61-5.47,7.45,4.67,16,28.47,17.6,43.91S249.59,74,244.65,81.12,236.84,90.05,231.81,91.71Z" transform="translate(0 0)" fill="#212121"/></g></g><g id="frame"><rect width="300" height="300" fill="none"/></g></svg>