<svg xmlns="http://www.w3.org/2000/svg" viewBox="0 0 30 30"><path d="M19,19.41c-.11,0-.19.08-.25.21a.16.16,0,0,1,.09,0c.12,0,.33.32.33.64a.42.42,0,0,1-.46.46.18.18,0,0,1-.18-.11c0,.33.06.55.29.55s.62-.21.62-.71S19.18,19.41,19,19.41Z" transform="translate(0)" fill="#212121"/><path d="M15,28.81c.17,0,.44-.27.44-.27l.35.3.36-.27.35.28.19-.26.51.12-.09-.3,1,.35-.24-.59.37,0L18.2,28l.68.06-.29-.41.5-.14-.18-.22.71.09L19.47,27l.89-.22-.15-.27L21,26.1v-.31l-.36-.24.25-.26-.6-.44.26-.2-.11-.47a8.35,8.35,0,0,1,1.07,1.38,2.38,2.38,0,0,1,.36,1.21s-.09-.23-.16-.36a.33.33,0,0,0-.16-.18,4,4,0,0,1-.24,1.25,1.84,1.84,0,0,1-.49.68.9.9,0,0,0,0-.3.55.55,0,0,0-.2-.27,3.46,3.46,0,0,1-.12.85,1.31,1.31,0,0,1-.28.56s0-.16-.06-.26a.7.7,0,0,0-.14-.23,1.06,1.06,0,0,1-.47.58,2.53,2.53,0,0,1-.73.3.41.41,0,0,0-.07-.2.68.68,0,0,0-.19-.13,2.36,2.36,0,0,1-.44.53,2.16,2.16,0,0,1-.8.41,1.11,1.11,0,0,0,0-.34,2.21,2.21,0,0,0-.18-.36,1.39,1.39,0,0,1-.49.34,2.38,2.38,0,0,1-.71.22s-.1-.29-.34-.29a1.24,1.24,0,0,0-.52.18Z" transform="translate(0)" fill="#212121"/><path d="M24,1.69A2.71,2.71,0,0,0,22.85,0a4,4,0,0,0-1.2.25,31,31,0,0,0-4.73,8.56c-1,3.4-.8,4.32-.8,4.8S15.38,15,15,15s0,1.62,0,1.62.24.05.24.41-.24.41-.24.41V20s.12,0,.12.21-.12.2-.12.2v2.27l1.21.78L15,23.07v3.28a1.8,1.8,0,0,0,.45-.24,5.38,5.38,0,0,0,1-.53c.45-.37.26-.92.36-.92s.18.2.18.55-.09.68-.88,1.29-.82,1.06-.82,1.32,0,.54.6.54a2.87,2.87,0,0,0,1.65-.45c.33-.29.47-.2.59-.32s0-.42,0-.42a.87.87,0,0,0,.64-.19c.25-.24.18-.44.18-.44a1.16,1.16,0,0,0,.51-.08c.32-.11.94-.89.94-.89a1.79,1.79,0,0,1-.5-.43,1.72,1.72,0,0,1-.31-.61l.35.09a.58.58,0,0,1-.08-.26,2.1,2.1,0,0,1,0-.3h.33a1.22,1.22,0,0,1-.38-.42,1.3,1.3,0,0,1-.17-.77l.23.19a1.69,1.69,0,0,0,0-.44c0-.83-1.16-1.11-1.16-1.11A1.2,1.2,0,0,1,19,22v.5a3.81,3.81,0,0,1-.62-1.84c0-.92.42-1.79.64-1.79s.27-.13.27-.4a2.6,2.6,0,0,0-.91-1.24,5.85,5.85,0,0,0-1.71-.76,3.45,3.45,0,0,1,1,.18,2.4,2.4,0,0,1,.82.41l-.15-.68s.5.55.5.84c0,.6.66.32.66.32a.55.55,0,0,1-.27-.1.21.21,0,0,1-.09-.15l.54-.26a.39.39,0,0,1-.19,0,.27.27,0,0,1-.11-.09l.34-.28s-.27.05-.27-.22a2.51,2.51,0,0,1,.63-1.51,6.67,6.67,0,0,0,1.08-2.39c.36-1.1,2.3-3.44,2.57-4a26.79,26.79,0,0,0,.89-4.82C24.63,2.85,24,2.22,24,1.69ZM17.62,23.4c.21.32.18.64.35.88s0,.47.17.6a.79.79,0,0,1,.24.65,1.3,1.3,0,0,0,.08.51,1.43,1.43,0,0,1-.33-.72c0-.34-.25-.42-.25-.63s-.14-.3-.26-.83A2.78,2.78,0,0,0,17,22.79,2.33,2.33,0,0,1,17.62,23.4Zm6-16c-.36,1.91-.9,2.07-.9,2.07A3.31,3.31,0,0,0,22.6,9c0-.11-.22-.77-1.14.29a5.31,5.31,0,0,0-1.19,3.16c0,.64-.89,1.5-.89,1.5a6.34,6.34,0,0,0,.3-2.61,4.71,4.71,0,0,1,.59-2.07c0-.2-.4-.34-.4-.34a1.18,1.18,0,0,0,.31-.44c.13-.3.28-.7.28-.7h-.35A1.72,1.72,0,0,0,20.34,7c0-.44,0-1.37,0-1.37a.84.84,0,0,0-.27.27,2.71,2.71,0,0,0-.23.51,8.32,8.32,0,0,1,.28-1.62,11.57,11.57,0,0,1,.58-1.56s-.22.07-.22-.31A4.37,4.37,0,0,1,21.71,1c.67-.67.8-.66,1.41,0a4.88,4.88,0,0,1,.93,2.75A20.81,20.81,0,0,1,23.58,7.35Z" transform="translate(0)" fill="#212121"/><path d="M11,19.41c.11,0,.19.08.25.21a.16.16,0,0,0-.09,0c-.12,0-.33.32-.33.64a.42.42,0,0,0,.46.46.18.18,0,0,0,.18-.11c0,.33-.06.55-.29.55s-.62-.21-.62-.71S10.82,19.41,11,19.41Z" transform="translate(0)" fill="#212121"/><path d="M15,28.81c-.17,0-.44-.27-.44-.27l-.35.3-.36-.27-.35.28-.19-.26-.51.12.09-.3-1,.35.24-.59-.37,0L11.8,28l-.68.06.29-.41-.5-.14.18-.22-.71.09.15-.35-.89-.22.15-.27L9,26.1v-.31l.36-.24-.25-.26.6-.44-.26-.2.11-.47a8.35,8.35,0,0,0-1.07,1.38,2.38,2.38,0,0,0-.36,1.21s.09-.23.16-.36a.33.33,0,0,1,.16-.18,4,4,0,0,0,.24,1.25,1.84,1.84,0,0,0,.49.68.9.9,0,0,1,0-.3.55.55,0,0,1,.2-.27,3.46,3.46,0,0,0,.12.85,1.31,1.31,0,0,0,.28.56s0-.16.06-.26a.7.7,0,0,1,.14-.23,1.06,1.06,0,0,0,.47.58,2.53,2.53,0,0,0,.73.3.41.41,0,0,1,.07-.2.68.68,0,0,1,.19-.13,2.36,2.36,0,0,0,.44.53,2.16,2.16,0,0,0,.8.41,1.11,1.11,0,0,1,0-.34,2.21,2.21,0,0,1,.18-.36,1.39,1.39,0,0,0,.49.34,2.38,2.38,0,0,0,.71.22s.1-.29.34-.29a1.24,1.24,0,0,1,.52.18Z" transform="translate(0)" fill="#212121"/><path d="M5.37,3.68A26.79,26.79,0,0,0,6.26,8.5c.27.58,2.21,2.92,2.57,4a6.67,6.67,0,0,0,1.08,2.39,2.51,2.51,0,0,1,.63,1.51c0,.27-.27.22-.27.22l.34.28a.27.27,0,0,1-.11.09.39.39,0,0,1-.19,0l.54.26a.21.21,0,0,1-.09.15.55.55,0,0,1-.27.1s.66.28.66-.32c0-.29.5-.84.5-.84l-.15.68a2.4,2.4,0,0,1,.82-.41,3.45,3.45,0,0,1,1-.18,5.85,5.85,0,0,0-1.71.76,2.6,2.6,0,0,0-.91,1.24c0,.27,0,.4.27.4s.64.87.64,1.79A3.81,3.81,0,0,1,11,22.53V22a1.2,1.2,0,0,1,.19-.52s-1.16.28-1.16,1.11a1.69,1.69,0,0,0,0,.44l.23-.19a1.3,1.3,0,0,1-.17.77,1.22,1.22,0,0,1-.38.42h.33a2.1,2.1,0,0,1,0,.3.58.58,0,0,1-.08.26l.35-.09a1.72,1.72,0,0,1-.31.61,1.79,1.79,0,0,1-.5.43s.62.78.94.89a1.16,1.16,0,0,0,.51.08s-.07.2.18.44a.87.87,0,0,0,.64.19s-.08.3,0,.42.26,0,.59.32a2.87,2.87,0,0,0,1.65.45c.59,0,.6-.28.6-.54s0-.7-.82-1.32-.88-.93-.88-1.29.08-.55.18-.55-.09.55.36.92a5.38,5.38,0,0,0,1,.53,1.8,1.8,0,0,0,.45.24V23.07l-1.21.39L15,22.68V20.41s-.12,0-.12-.2S15,20,15,20V17.47s-.24,0-.24-.41.24-.41.24-.41S15.38,15,15,15s-1.12-.94-1.12-1.42.24-1.4-.8-4.8A31,31,0,0,0,8.35.25,4,4,0,0,0,7.15,0,2.71,2.71,0,0,0,6,1.69C6,2.22,5.37,2.85,5.37,3.68ZM13,22.79a2.78,2.78,0,0,0-.65,1.07c-.12.53-.26.61-.26.83s-.25.29-.25.63a1.43,1.43,0,0,1-.33.72,1.3,1.3,0,0,0,.08-.51.79.79,0,0,1,.24-.65c.15-.13,0-.35.17-.6s.14-.56.35-.88A2.33,2.33,0,0,1,13,22.79ZM6,3.69A4.88,4.88,0,0,1,6.88.94c.61-.62.74-.63,1.41,0a4.37,4.37,0,0,1,1.27,2c0,.38-.22.31-.22.31A11.57,11.57,0,0,1,9.92,4.8a8.32,8.32,0,0,1,.28,1.62A2.71,2.71,0,0,0,10,5.91a.84.84,0,0,0-.27-.27s0,.93,0,1.37a1.72,1.72,0,0,0,.23.81H9.54s.15.4.28.7a1.18,1.18,0,0,0,.31.44s-.4.14-.4.34a4.71,4.71,0,0,1,.59,2.07,6.34,6.34,0,0,0,.3,2.61s-.89-.86-.89-1.5A5.31,5.31,0,0,0,8.54,9.32C7.62,8.26,7.43,8.92,7.4,9a3.31,3.31,0,0,0-.08.39s-.54-.16-.9-2.07A20.81,20.81,0,0,1,6,3.69Z" transform="translate(0)" fill="#212121"/><rect width="30" height="30" fill="none"/></svg>