<!-- Copyright (c) 2022 - 2023 Jan Stehno -->
<svg xmlns="http://www.w3.org/2000/svg" viewBox="0 0 300 300"><title>europeanrabbit</title><g id="europeanrabbit"><g id="right"><path d="M207.12,229.44s7.62,7.05,8.86,13.8,6.3,11.77,6.3,11.77a7.51,7.51,0,0,0-3.95,1.69c-1.42,1.41.93,11.72.93,11.72s-2.28-4-4.06-4c-3.29,0-5,10.76-5,10.76L207.74,273a4.76,4.76,0,0,0-1.74,3.18c0,1.78-4.12,3.12-4.12,5.61S200,284.6,200,286.88a6.05,6.05,0,0,0,.75,3.33,6.62,6.62,0,0,1-2.48-2.14,19.85,19.85,0,0,1-1.84-3.27A14.55,14.55,0,0,1,192,290a10,10,0,0,1-6.28,2c-1.44,0-3.65-2.5-3.65-2.5a27.15,27.15,0,0,0-4.73,4.47,52.15,52.15,0,0,0-4.09,6,21.49,21.49,0,0,1-2.46-4,16.22,16.22,0,0,1-1.19-4.92,31.19,31.19,0,0,1-5.1,4.55,10.46,10.46,0,0,1-5.18,1.78c-1.45,0-3.87-2.23-3.87-2.23a9.93,9.93,0,0,0-3.13.78,6.47,6.47,0,0,0-2.27,1.9v-9.42c2,0,3.83-2.42,3.83-2.42s1,2.49,3,2.49,3.17-2.38,3.17-2.38,1.67,2.16,3,2.16,1.64-2.34,1.64-2.34h5.89l-.75-2,9.65,3.1a7.08,7.08,0,0,0-.12-2.8,10,10,0,0,0-1.67-3h3.13l-1-2.16,6.59,1.41L184.78,276l3.91-.26-.82-2.72,6.33,1.42-1.68-3.24,8.79-2.46-1.08-2.79,7.37-4-1.52-1.6,1.41-1.79-2.9-4.21,4.28-2.86-3.61-5.66,3.53-2.09-1.67-3.65,2.94-2.34a13.39,13.39,0,0,1-2.09-3.84A20.86,20.86,0,0,1,207.12,229.44Z" transform="translate(0)" fill="#212121"/><path d="M192.11,196.65c-1.07-.09-2,.65-2.73,1.88a1.74,1.74,0,0,1,1-.23c1.22.1,3.08,3.46,2.82,6.63s-2.27,4.34-5.08,4.12a1.92,1.92,0,0,1-1.77-1.23c-.45,3.25.16,5.5,2.52,5.69,3.8.3,6.56-1.56,7-6.53S193.77,196.78,192.11,196.65Z" transform="translate(0)" fill="#212121"/><path d="M205.14,240.69a14.61,14.61,0,0,0-1-2.91l3-.78a17,17,0,0,1-3.5-2.68,15.89,15.89,0,0,1-2.57-4.47l3.5.71a32,32,0,0,1-2.5-2.61,9,9,0,0,1-1.41-3h2.63s.15-1.39-3.67-5.21-11.32-2.63-14.15-2.63-2.19-3-5.91-3-11.22,5.06-11.22,5.06a15.87,15.87,0,0,1-4.57-3.22c-2.38-2.34-4.07-8-6.7-8s-4.37-1.59-7.05-1.59v56.1a15,15,0,0,1,8-4.37c2.35-.37,5.62-2.87,5.43-4a43.3,43.3,0,0,0-1.29-5s4.37,3.85,4.37,5.46-1.74,3.33-6.87,8.24-6.78,6.67-6.78,13.33,1.39,7.38,8.09,7.38,8.69-1.59,11.52-3.68a6,6,0,0,1,5.31-1.19s.3-3.77,3.53-3.77,4.34-3.16,5.95-4.77,4.67-1.64,6-1.64,2.83-2.93,5.56-5.31a11.13,11.13,0,0,1,5.13-2.73,20.09,20.09,0,0,1-1.83-3.87,13,13,0,0,1-.22-4.43l1.64.67a18.6,18.6,0,0,0,.33-4.14,21.09,21.09,0,0,0-1-5.4l2.56.56A19.5,19.5,0,0,0,205.14,240.69Zm-13.4,14.18a21,21,0,0,0-3.13,2.87,5.89,5.89,0,0,1,2-.52,3.74,3.74,0,0,1,1.81.62,55,55,0,0,0-5.31,4.42,23.79,23.79,0,0,0-3.83,5.21s.42-3.29-.58-4.3-2,0-2-2,2.53-2.46,2.53-5.18-1.18-4.72-3.26-4.72a5.58,5.58,0,0,1-4.7-2c-1.51-1.56-9.58-1.14-9.58-1.14s1.79-1.74,6.95-1.74,5.19-2.09,5.19-5-8.49-10.43-8.49-10.43a33.32,33.32,0,0,1,11.07,9.23c4.52,6.11,5.14,8,5.14,8l-2.93,1.94a8.83,8.83,0,0,1,2.78,1.93,7.94,7.94,0,0,1,1.07,3.06,7.12,7.12,0,0,1,2.55-1.75c1.71-.72,5.92-.28,5.92-.28A12.57,12.57,0,0,0,191.74,254.87Z" transform="translate(0)" fill="#212121"/><path d="M241.3,7.67c0-3,6.78-7.67,1.94-7.67s-7.9-.07-25.47,17.5-32.52,43.84-43.25,66.18-14.14,39.52-14.14,50,1.83,15.07-1,15.07-6,4.1-9.41,4.1v11a2.63,2.63,0,0,1,2.72,2.64c0,1.82,4.32,1.64,4.32,4.17s2.72,4.84,2.72,4.84a22.33,22.33,0,0,0-5.44-.6c-3.28,0-4.32,1.38-4.32,1.38v25.86a5.66,5.66,0,0,1,4.52,1.73c1.49,1.49,4.46.22,5.31,1.64,4.42,7.4,7.6,9.91,7.6,9.91s6.59-4.5,11-4.5,6.2.7,6.2.7-.79-7.9,1.89-13,5-4.24,6.21-5.41.64-10.82-1.69-14.8-12.51-9.08-12.51-9.08a29.94,29.94,0,0,1,8.59,2,28.24,28.24,0,0,1,7.29,4.47s-2.08-2.43-.64-3.67,4.27-1,4.27-1l-3.63-2.19a8,8,0,0,0,1.84-1.49c.79-.89,1.79-2.33,1.79-2.33H194s4-1.42,4-4.54,4.62-4.1,8.86-8.49,8.94-9.91,14.45-12.51,8.86-12.14,8.86-24.36,7.52-27.25,10.8-40.28,3.27-16.83,1.41-26.07S241.3,10.72,241.3,7.67ZM187.83,186.43a23.49,23.49,0,0,0-6.78,8.08c-2.53,5.14-.87,9.7-2.08,10.91a1.81,1.81,0,0,1-2.72,0c-.82-.82-.22-5.43,2.05-10.35S187.83,186.43,187.83,186.43Zm38.33-85.57c-3.18,11.41,1.69,18.76-3.08,28.59s-11.77,15.14-15.75,16.13C202,146.91,194,158.15,194,158.15a22.52,22.52,0,0,0,.94-5v-3.27l-3.18,1.64s3.28-3.53,3.28-6.36,1.59-4.07,3.62-7.89,1.75-10.5,1.75-10.5L198,128.09a31.31,31.31,0,0,0,1.83-9.72v-9.5a7.81,7.81,0,0,1-1.73,2.64,13.68,13.68,0,0,1-2.26,1.24s3-6.33,3.72-11-.37-12.14-.37-12.14A23.06,23.06,0,0,1,195.87,96a32.22,32.22,0,0,1-5.06,5.31s4.32-8.39,4.32-12.46,3.67-6.6,3.67-6.6L200,78.76c1.24-3.52,7.52-6.73,7.52-6.73s0-1.32-2.34-2.59a6.82,6.82,0,0,0-4.13-.93s2.3-7.59,10.2-15.64,9.83-15.78,9.83-15.78l-3.65.37a46.39,46.39,0,0,0,7.67-8,60.65,60.65,0,0,0,6.73-12.24,22.23,22.23,0,0,1-3.58,2.63,12.13,12.13,0,0,1-4.71,1.05s4.61-7.35,8.78-8,5.61-3,5.61-3-1.09,4.87-1.09,16.78,3.48,25.23,3.48,34.16S229.33,89.44,226.16,100.86Z" transform="translate(0)" fill="#212121"/></g><g id="left"><path d="M92.88,229.44s-7.62,7.05-8.86,13.8S77.72,255,77.72,255a7.51,7.51,0,0,1,4,1.69c1.42,1.41-.93,11.72-.93,11.72s2.28-4,4.06-4c3.29,0,5,10.76,5,10.76L92.26,273A4.76,4.76,0,0,1,94,276.21c0,1.78,4.12,3.12,4.12,5.61s1.89,2.78,1.89,5.06a6.05,6.05,0,0,1-.75,3.33,6.62,6.62,0,0,0,2.48-2.14,19.85,19.85,0,0,0,1.84-3.27,14.55,14.55,0,0,0,4.47,5.21,10,10,0,0,0,6.28,2c1.44,0,3.65-2.5,3.65-2.5a27.15,27.15,0,0,1,4.73,4.47,52.15,52.15,0,0,1,4.09,6,21.49,21.49,0,0,0,2.46-4,16.22,16.22,0,0,0,1.19-4.92,31.19,31.19,0,0,0,5.1,4.55,10.46,10.46,0,0,0,5.18,1.78c1.45,0,3.87-2.23,3.87-2.23a9.93,9.93,0,0,1,3.13.78,6.47,6.47,0,0,1,2.27,1.9v-9.42c-2,0-3.83-2.42-3.83-2.42s-1,2.49-3,2.49-3.17-2.38-3.17-2.38-1.67,2.16-3,2.16-1.64-2.34-1.64-2.34h-5.89l.75-2-9.65,3.1a7.08,7.08,0,0,1,.12-2.8,10,10,0,0,1,1.67-3h-3.13l1-2.16-6.59,1.41,1.56-4.47-3.91-.26.82-2.72-6.33,1.42,1.68-3.24-8.79-2.46,1.08-2.79-7.37-4,1.52-1.6-1.41-1.79,2.9-4.21-4.28-2.86,3.61-5.66-3.53-2.09,1.67-3.65-2.94-2.34A13.39,13.39,0,0,0,92,233.87,20.86,20.86,0,0,0,92.88,229.44Z" transform="translate(0)" fill="#212121"/><path d="M107.89,196.65c1.07-.09,2,.65,2.73,1.88a1.74,1.74,0,0,0-1-.23c-1.22.1-3.08,3.46-2.82,6.63s2.27,4.34,5.08,4.12a1.92,1.92,0,0,0,1.77-1.23c.45,3.25-.16,5.5-2.52,5.69-3.8.3-6.56-1.56-7-6.53S106.23,196.78,107.89,196.65Z" transform="translate(0)" fill="#212121"/><path d="M94.6,243.81l2.56-.56a21.09,21.09,0,0,0-1,5.4,18.6,18.6,0,0,0,.33,4.14l1.64-.67a13,13,0,0,1-.22,4.43,20.09,20.09,0,0,1-1.83,3.87,11.13,11.13,0,0,1,5.13,2.73c2.73,2.38,4.27,5.31,5.56,5.31s4.34,0,6,1.64,2.73,4.77,6,4.77,3.53,3.77,3.53,3.77a6,6,0,0,1,5.31,1.19c2.83,2.09,4.82,3.68,11.52,3.68s8.09-.71,8.09-7.38-1.64-8.41-6.78-13.33-6.87-6.63-6.87-8.24,4.37-5.46,4.37-5.46a43.3,43.3,0,0,0-1.29,5c-.19,1.17,3.08,3.67,5.43,4a15,15,0,0,1,8,4.37V206.4c-2.68,0-4.42,1.59-7.05,1.59s-4.32,5.66-6.7,8a15.87,15.87,0,0,1-4.57,3.22s-7.5-5.06-11.22-5.06-3.08,3-5.91,3-10.32-1.19-14.15,2.63S96.73,225,96.73,225h2.63A9,9,0,0,1,98,228a32,32,0,0,1-2.5,2.61l3.5-.71a15.89,15.89,0,0,1-2.57,4.47,17,17,0,0,1-3.5,2.68l3,.78a14.61,14.61,0,0,0-1,2.91A19.5,19.5,0,0,0,94.6,243.81ZM105,253.08s4.21-.44,5.92.28a7.12,7.12,0,0,1,2.55,1.75,7.94,7.94,0,0,1,1.07-3.06,8.83,8.83,0,0,1,2.78-1.93l-2.93-1.94s.62-1.91,5.14-8a33.32,33.32,0,0,1,11.07-9.23s-8.49,7.55-8.49,10.43,0,5,5.19,5,6.95,1.74,6.95,1.74-8.07-.42-9.58,1.14a5.58,5.58,0,0,1-4.7,2c-2.08,0-3.26,2-3.26,4.72s2.53,3.09,2.53,5.18-1,1-2,2-.58,4.3-.58,4.3a23.79,23.79,0,0,0-3.83-5.21,55,55,0,0,0-5.31-4.42,3.74,3.74,0,0,1,1.81-.62,5.89,5.89,0,0,1,2,.52,21,21,0,0,0-3.13-2.87A12.57,12.57,0,0,0,105,253.08Z" transform="translate(0)" fill="#212121"/><path d="M57.66,48.85c-1.86,9.24-1.86,13,1.41,26.07S69.87,103,69.87,115.2s3.35,21.75,8.86,24.36,10.21,8.11,14.45,12.51,8.86,5.36,8.86,8.49,4,4.54,4,4.54h-4.07s1,1.44,1.79,2.33a8,8,0,0,0,1.84,1.49l-3.63,2.19s2.83-.25,4.27,1-.64,3.67-.64,3.67a28.24,28.24,0,0,1,7.29-4.47,29.94,29.94,0,0,1,8.59-2s-10.17,5.11-12.51,9.08-2.85,13.63-1.69,14.8,3.53.3,6.21,5.41,1.89,13,1.89,13,1.77-.7,6.2-.7,11,4.5,11,4.5,3.18-2.51,7.6-9.91c.85-1.42,3.82-.15,5.31-1.64a5.66,5.66,0,0,1,4.52-1.73V176.23s-1-1.38-4.32-1.38a22.33,22.33,0,0,0-5.44.6s2.72-2.31,2.72-4.84,4.32-2.35,4.32-4.17A2.63,2.63,0,0,1,150,163.8v-11c-3.43,0-6.6-4.1-9.41-4.1s-1-4.59-1-15.07-3.42-27.65-14.14-50S99.81,35.08,82.23,17.5,61.61,0,56.76,0,58.7,4.62,58.7,7.67,59.52,39.62,57.66,48.85Zm64,146.22c2.27,4.92,2.87,9.53,2,10.35a1.81,1.81,0,0,1-2.72,0c-1.21-1.21.45-5.77-2.08-10.91a23.49,23.49,0,0,0-6.78-8.08S119.43,190.16,121.7,195.07ZM59.64,60.84c0-8.93,3.48-22.24,3.48-34.16S62,9.9,62,9.9s1.44,2.39,5.61,3,8.78,8,8.78,8a12.13,12.13,0,0,1-4.71-1.05,22.23,22.23,0,0,1-3.58-2.63,60.65,60.65,0,0,0,6.73,12.24,46.39,46.39,0,0,0,7.67,8l-3.65-.37s1.94,7.74,9.83,15.78,10.2,15.64,10.2,15.64a6.82,6.82,0,0,0-4.13.93C92.47,70.71,92.44,72,92.44,72s6.28,3.21,7.52,6.73l1.24,3.53s3.67,2.53,3.67,6.6,4.32,12.46,4.32,12.46A32.22,32.22,0,0,1,104.13,96a23.06,23.06,0,0,1-3.28-6.45s-1,7.44-.37,12.14,3.72,11,3.72,11a13.68,13.68,0,0,1-2.26-1.24,7.81,7.81,0,0,1-1.73-2.64v9.5a31.31,31.31,0,0,0,1.83,9.72l-2.49-1.34s-.29,6.67,1.75,10.5,3.62,5.06,3.62,7.89,3.28,6.36,3.28,6.36L105,149.86v3.27a22.52,22.52,0,0,0,.94,5S98,146.91,92.67,145.58c-4-1-11-6.3-15.75-16.13s.1-17.18-3.08-28.59S59.64,69.78,59.64,60.84Z" transform="translate(0)" fill="#212121"/></g></g><g id="frame"><rect width="300" height="300" fill="none"/></g></svg>