<svg xmlns="http://www.w3.org/2000/svg" viewBox="0 0 30 30"><path d="M15.2,23.05c0,.12.09.19.09.28s0,.28,0,.28.32-.58.51-.58.13.18.32.18.17-.1.17-.16-.26-.44-.5-.44S15.2,22.9,15.2,23.05Z" transform="translate(0)" fill="#212121"/><path d="M15,24.06c.29,0,1,.09,1,.39s-.41.67-.41.67V25a1.48,1.48,0,0,0-.22.07,1.11,1.11,0,0,0-.24.21s0-.11-.11-.11Z" transform="translate(0)" fill="#212121"/><path d="M17.07,20.49c.24,0,.36-.18.52-.19s.69-.25.69-.65,0-.3-.33-.3a1.14,1.14,0,0,0-.8.54C17.09,20.05,17,20.49,17.07,20.49Z" transform="translate(0)" fill="#212121"/><path d="M15.65,14.88c0,.18.24.47.41.47s.2-.2.4-.2.2.32.59.32.43.25.73.25.85-1,2-1.52,2.16-.48,3.33-1.87,3.15-3.19,3.7-3.89a4.91,4.91,0,0,0,1-2.38c.05-.71.26-.65,1-1.26s.91-.92.91-1.6a1.83,1.83,0,0,0-.48-1.31c-.21-.2-.14.18-.14.86S28,4.08,28,4.4a1.12,1.12,0,0,1-.16.57,11.78,11.78,0,0,1-.31-2.29A9.15,9.15,0,0,1,27.9.3c.1-.33.1-.57-.3.31a11.34,11.34,0,0,0-.66,3.48c-.08,1.18.14,1.66-.35,2.65a2.78,2.78,0,0,1-1.22,1.41A.18.18,0,0,1,25.2,8c0-.09.81-.61,1.15-1.2a7.22,7.22,0,0,0,.29-2.51c.07-.83.5-2,.13-1.4S26.32,4,25.84,4s-.36-.19-.49-.85a13.9,13.9,0,0,0-.57-1.68c-.23-.73-.38-1.66-.43-.8a5.2,5.2,0,0,0,.25,1.82c.1.4.23,1-.07,1a4.44,4.44,0,0,1-2-1.23A5.86,5.86,0,0,0,21.07,1c-.38-.21-.17,0,.49.81s.73,1.32,1.26,1.65A2.08,2.08,0,0,1,24,5.05c0,.76,0,.85.19,1A6.14,6.14,0,0,1,24,8.74a2.78,2.78,0,0,1-.91,1.73,6,6,0,0,0,.67-2A10.47,10.47,0,0,1,24,6.53c.09-.29-.2-.31-.56.8s-.67,2.6-1.44,3.4-2.16,2.07-2.83,2.07-.74-.16-.87,0,0,.66-.25,1.18-.63,1-.86,1-.68-.42-.68-.42a1.41,1.41,0,0,0,.46.1A2.12,2.12,0,0,0,18,12.92,30.79,30.79,0,0,1,18.39,9a4.28,4.28,0,0,0-.09-2.87c-.29-.68-.35-.49-.35,1s-.72,2.9-.72,4.07,0,1.89-.69,2.65S15.65,14.74,15.65,14.88Z" transform="translate(0)" fill="#212121"/><path d="M21.92,14.19a2.65,2.65,0,0,0-1.85.42,8.47,8.47,0,0,1-2.25,1.27c-.41,0-.37-.19-.69-.19a1.17,1.17,0,0,1-.67-.36s-.31.25-.43.25-.12-.14-.29-.29a2.28,2.28,0,0,0-.4-.28s-.23.23-.34.23v6.44c.25,0,.31-.18.5-.18s.1.1.31.1.52,0,.52.16.14.14.31.31.08.37.21.5a.25.25,0,0,1,.09.26l-.19-.06a1,1,0,0,1,.12.35v.25l-.16-.13-.23-.16a2.15,2.15,0,0,1,.32.6c0,.14-.08.21-.23.38a1.19,1.19,0,0,0-.22.53s.38-.5.62-.5.27.08.27-.66a3.61,3.61,0,0,1,.4-1.31c0-.19,0-.31-.36-.67a1.61,1.61,0,0,1-.48-1.23,1.18,1.18,0,0,1,1-1.12c.52,0,.68.21.68.21a2.72,2.72,0,0,1,.93-1.83c.88-.7,2-.38,2.15-.56a6.11,6.11,0,0,0,1.07-2C22.89,14,22.87,14.19,21.92,14.19Zm-.09.38a.76.76,0,0,0-.29.08.28.28,0,0,1,.13.2c0,.11-.14.22-.14.22a.87.87,0,0,0-.18-.19,1.42,1.42,0,0,0-.35-.11,1,1,0,0,1,.24.33,1.16,1.16,0,0,1,.05.43,1.11,1.11,0,0,0-.31-.28,2.1,2.1,0,0,0-.44-.17s.13.11.13.17,0,.15-.25.21a.34.34,0,0,0-.11.52,1.45,1.45,0,0,0,.61.2,3.35,3.35,0,0,0-.81.05.18.18,0,0,0,0,.26c.09.08.35,0,.35,0s-.32.37-.58.37a.44.44,0,0,0-.36.14l.16.16a.8.8,0,0,1-.3.08c-.13,0-.37-.25-.64-.25s-.36-1.13-.18-1.13c1,0,1-.18,1.38-.61s.5-.15.77-.43.25-.39,1-.39S22,14.54,21.83,14.57Z" transform="translate(0)" fill="#212121"/><path d="M17.18,20.93c0-.2.45-.45.72-.54a1,1,0,0,0,.46-.4s0,.27,0,.47-.22,1.52-.22,2,1,1.52,1,1.52l-.29,0a2,2,0,0,1,.43.79c.13.48,0,.68.28.91a.83.83,0,0,1,.24.58L19.49,26a1.85,1.85,0,0,1,.23.79,1.69,1.69,0,0,1-.1.62s0-.09-.23-.09-.36.6-.36.6a.72.72,0,0,0-.4-.11c-.26,0-.36.69-.84,1a9.25,9.25,0,0,1-1.76.69.29.29,0,0,0-.06-.21,1.16,1.16,0,0,1-.13.36.92.92,0,0,1-.25.27s0-.11-.09-.11a.51.51,0,0,1,0,.2s-.08,0-.22-.16-.17-.24-.23-.24V27.81c.11,0,.21-.32.21-.32a.26.26,0,0,0,.24.11.34.34,0,0,0,.28-.17s-.05.22.07.22.62-.82.62-.82,0,.23.11.23.28-.49.28-.49,0,.25.12.25.37-.6.37-.6,0,.18.09.18.45-.94.45-.94a.36.36,0,0,0,.28.15c.18,0-.07-.8-.07-.8s.19.16.19,0-.46-.71-.46-1.35.12-.67.12-1.11S17.18,21.2,17.18,20.93Z" transform="translate(0)" fill="#212121"/><path d="M14.8,23.05c0,.12-.09.19-.09.28s0,.28,0,.28-.32-.58-.51-.58-.13.18-.32.18-.17-.1-.17-.16.26-.44.5-.44S14.8,22.9,14.8,23.05Z" transform="translate(0)" fill="#212121"/><path d="M15,24.06c-.29,0-1,.09-1,.39s.41.67.41.67V25a1.48,1.48,0,0,1,.22.07,1.11,1.11,0,0,1,.24.21s0-.11.11-.11Z" transform="translate(0)" fill="#212121"/><path d="M12.93,20.49c-.24,0-.36-.18-.52-.19s-.69-.25-.69-.65,0-.3.33-.3a1.14,1.14,0,0,1,.8.54C12.91,20.05,13.05,20.49,12.93,20.49Z" transform="translate(0)" fill="#212121"/><path d="M14.35,14.88c0,.18-.24.47-.41.47s-.2-.2-.4-.2-.2.32-.59.32-.43.25-.73.25-.85-1-2-1.52-2.16-.48-3.33-1.87S3.74,9.14,3.19,8.44a4.91,4.91,0,0,1-1-2.38c0-.71-.26-.65-1-1.26S.3,3.88.3,3.2A1.83,1.83,0,0,1,.78,1.89c.21-.2.14.18.14.86S2,4.08,2,4.4A1.12,1.12,0,0,0,2.12,5a11.78,11.78,0,0,0,.31-2.29A9.15,9.15,0,0,0,2.1.3C2,0,2-.27,2.4.61a11.34,11.34,0,0,1,.66,3.48c.08,1.18-.14,1.66.35,2.65A2.78,2.78,0,0,0,4.63,8.15.18.18,0,0,0,4.8,8c0-.09-.81-.61-1.15-1.2a7.22,7.22,0,0,1-.29-2.51c-.07-.83-.5-2-.13-1.4S3.68,4,4.16,4s.36-.19.49-.85a13.9,13.9,0,0,1,.57-1.68c.23-.73.38-1.66.43-.8A5.2,5.2,0,0,1,5.4,2.47c-.1.4-.23,1,.07,1a4.44,4.44,0,0,0,2-1.23A5.86,5.86,0,0,1,8.93,1c.38-.21.17,0-.49.81S7.71,3.1,7.18,3.43A2.08,2.08,0,0,0,6,5.05c0,.76,0,.85-.19,1A6.14,6.14,0,0,0,6,8.74a2.78,2.78,0,0,0,.91,1.73,6,6,0,0,1-.67-2A10.47,10.47,0,0,0,6,6.53c-.09-.29.2-.31.56.8s.67,2.6,1.44,3.4,2.16,2.07,2.83,2.07.74-.16.87,0,0,.66.25,1.18.63,1,.86,1,.68-.42.68-.42a1.41,1.41,0,0,1-.46.1A2.12,2.12,0,0,1,12,12.92,30.79,30.79,0,0,0,11.61,9a4.28,4.28,0,0,1,.09-2.87c.29-.68.35-.49.35,1s.72,2.9.72,4.07,0,1.89.69,2.65S14.35,14.74,14.35,14.88Z" transform="translate(0)" fill="#212121"/><path d="M7.37,14.92a6.11,6.11,0,0,0,1.07,2c.18.18,1.27-.14,2.15.56a2.72,2.72,0,0,1,.93,1.83s.16-.21.68-.21a1.18,1.18,0,0,1,1,1.12,1.61,1.61,0,0,1-.48,1.23c-.35.36-.36.48-.36.67a3.61,3.61,0,0,1,.4,1.31c0,.74,0,.66.27.66s.62.5.62.5a1.19,1.19,0,0,0-.22-.53c-.15-.17-.23-.24-.23-.38a2.15,2.15,0,0,1,.32-.6l-.23.16-.16.13v-.25a1,1,0,0,1,.12-.35l-.19.06a.25.25,0,0,1,.09-.26c.13-.13,0-.32.21-.5s.31-.14.31-.31.31-.16.52-.16.12-.1.31-.1.25.18.5.18V15.24c-.11,0-.34-.23-.34-.23a2.28,2.28,0,0,0-.4.28c-.17.15-.18.29-.29.29s-.43-.25-.43-.25a1.17,1.17,0,0,1-.67.36c-.32,0-.28.19-.69.19a8.47,8.47,0,0,1-2.25-1.27,2.65,2.65,0,0,0-1.85-.42C7.13,14.19,7.11,14,7.37,14.92Zm.87-.49c.78,0,.76.11,1,.39s.42,0,.77.43.35.61,1.38.61c.18,0,.1,1.13-.18,1.13s-.51.25-.64.25a.8.8,0,0,1-.3-.08l.16-.16a.44.44,0,0,0-.36-.14c-.26,0-.58-.37-.58-.37s.26.08.35,0a.18.18,0,0,0,0-.26,3.35,3.35,0,0,0-.81-.05,1.45,1.45,0,0,0,.61-.2.34.34,0,0,0-.11-.52c-.21-.06-.25-.14-.25-.21s.13-.17.13-.17a2.1,2.1,0,0,0-.44.17,1.11,1.11,0,0,0-.31.28,1.16,1.16,0,0,1,0-.43A1,1,0,0,1,9,14.77a1.42,1.42,0,0,0-.35.11.87.87,0,0,0-.18.19s-.14-.11-.14-.22a.28.28,0,0,1,.13-.2.76.76,0,0,0-.29-.08C8,14.54,7.46,14.43,8.24,14.43Z" transform="translate(0)" fill="#212121"/><path d="M12.82,20.93c0-.2-.45-.45-.72-.54a1,1,0,0,1-.46-.4s0,.27,0,.47.22,1.52.22,2-1,1.52-1,1.52l.29,0a2,2,0,0,0-.43.79c-.13.48,0,.68-.28.91a.83.83,0,0,0-.24.58l.35-.22a1.85,1.85,0,0,0-.23.79,1.69,1.69,0,0,0,.1.62s0-.09.23-.09.36.6.36.6a.72.72,0,0,1,.4-.11c.26,0,.36.69.84,1a9.25,9.25,0,0,0,1.76.69.29.29,0,0,1,.06-.21,1.16,1.16,0,0,0,.13.36.92.92,0,0,0,.25.27s0-.11.09-.11a.51.51,0,0,0,0,.2s.08,0,.22-.16.17-.24.23-.24V27.81c-.11,0-.21-.32-.21-.32a.26.26,0,0,1-.24.11.34.34,0,0,1-.28-.17s.05.22-.07.22-.62-.82-.62-.82,0,.23-.11.23-.28-.49-.28-.49,0,.25-.12.25-.37-.6-.37-.6,0,.18-.09.18-.45-.94-.45-.94a.36.36,0,0,1-.28.15c-.18,0,.07-.8.07-.8s-.19.16-.19,0,.46-.71.46-1.35-.12-.67-.12-1.11S12.82,21.2,12.82,20.93Z" transform="translate(0)" fill="#212121"/><rect width="30" height="30" fill="none"/></svg>