<!-- Copyright (c) 2022 - 2023 Jan Stehno -->
<svg xmlns="http://www.w3.org/2000/svg" viewBox="0 0 300 300"><title>fallowdeer</title><g id="fallowdeer"><g id="right"><path d="M152,230.5c0,1.22.94,1.92.94,2.83s-.21,2.8-.21,2.8,3.26-5.84,5.15-5.84,1.26,1.78,3.11,1.78,1.75-1,1.75-1.57-2.59-4.41-5-4.41S152,229,152,230.5Z" transform="translate(0 0)" fill="#212121"/><path d="M150,240.65c2.94,0,9.83.8,9.83,3.81s-4.13,6.79-4.13,6.79v-1.54a15.85,15.85,0,0,0-2.2.67,9.23,9.23,0,0,0-2.38,2.16s-.32-1.12-1.12-1.12Z" transform="translate(0 0)" fill="#212121"/><path d="M170.68,204.88c2.42,0,3.57-1.79,5.18-1.93s7-2.44,7-6.47-.07-3-3.33-3-7.49,3.85-8.05,5.42S169.54,204.88,170.68,204.88Z" transform="translate(0 0)" fill="#212121"/><path d="M156.51,148.82c0,1.78,2.38,4.65,4.06,4.65s2-2,4-2,2.06,3.15,6,3.15,4.31,2.59,7.21,2.59,8.6-10.46,20-15.27,21.65-4.78,33.34-18.64,31.5-32,37-39,9.49-16.52,10-23.7,2.66-6.53,9.84-12.6S297,38.81,297,32s-2.75-11.06-4.8-13.07-1.35,1.78-1.35,8.54S280.42,40.82,280.42,44a11.07,11.07,0,0,1-1.63,5.64s-3.08-12.83-3.08-22.91A96,96,0,0,1,279,3c1-3.31,1.08-5.64-2.94,3.13s-5.88,23-6.67,34.81,1.45,16.56-3.5,26.5-11.1,14.1-12.13,14.1a1.75,1.75,0,0,1-1.68-1.87c0-1,8-6.16,11.43-12s2.19-16.75,2.89-25.06,5-20.53,1.36-14-4.57,11.3-9.29,11.3-3.68-2-4.94-8.59-3.36-9.47-5.7-16.75-3.82-16.61-4.29-8S245,20.61,246,24.67s2.29,9.94-.7,9.94-14.41-6.3-19.5-12.32a58.78,58.78,0,0,0-15.12-12.6c-3.73-2-1.68.38,5,8.08s7.28,13.2,12.55,16.56,11.52,8.49,11.52,16.15.4,8.56,1.87,10,1.21,13.62-1.68,26.88-9.05,17.26-9.05,17.26,6.06-11,6.72-20.25S239,68.16,240,65.27s-2-3.08-5.6,8-6.62,26-14.37,34S198.44,128,191.72,128s-7.38-1.59-8.68-.28.28,6.63-2.57,11.81-6.25,10.36-8.54,10.36-6.86-4.16-6.86-4.16a14.25,14.25,0,0,0,4.67,1c2.28,0,9-6.53,10.64-17.5s.14-26.92,3.5-39.24,2.1-22-.84-28.7-3.5-4.9-3.5,9.94-7.28,29-7.28,40.74.21,18.9-6.86,26.46S156.51,147.38,156.51,148.82Z" transform="translate(0 0)" fill="#212121"/><path d="M219.15,141.89c-9.52,0-13,.37-18.43,4.2s-18.49,12.66-22.55,12.66-3.64-1.82-6.89-1.82-6.72-3.6-6.72-3.6-3.08,2.5-4.22,2.5-1.28-1.38-2.92-2.92a20.75,20.75,0,0,0-4-2.76s-2.26,2.29-3.38,2.29V216.8c2.5,0,3.1-1.77,5-1.77s1,1,3.08,1,5.22,0,5.22,1.65,1.34,1.34,3.08,3.08.77,3.64,2.12,5a2.41,2.41,0,0,1,.83,2.58l-1.87-.58a9.75,9.75,0,0,1,1.23,3.5c0,1.35,0,2.45,0,2.45a14.5,14.5,0,0,0-1.6-1.29c-.76-.51-2.28-1.59-2.28-1.59s3.22,4.57,3.22,6-.79,2.14-2.33,3.78-2.19,5.36-2.19,5.36,3.82-5,6.25-5,2.61.75,2.61-6.67,4.06-11.2,4.06-13.12-.14-3.07-3.64-6.62S168,207.07,168,202.17,172.72,191,178,191s6.84,2.1,6.84,2.1.53-11.24,9.31-18.29,19.73-3.83,21.51-5.6,8.07-11.15,10.68-20.06S228.67,141.89,219.15,141.89Zm-.8,3.78a9.32,9.32,0,0,0-3,.87s1.37.77,1.37,1.93-1.4,2.27-1.4,2.27a10.09,10.09,0,0,0-1.86-1.92,13.37,13.37,0,0,0-3.5-1.12,10.09,10.09,0,0,1,2.45,3.32,11.41,11.41,0,0,1,.42,4.3,10.5,10.5,0,0,0-3.08-2.86,28.1,28.1,0,0,0-4.37-1.68s1.33,1.08,1.33,1.75-.42,1.43-2.49,2.09-2.55,3.78-1.19,5.18,6.2,2,6.2,2-7.4-.23-8.12.49a1.73,1.73,0,0,0,.21,2.59c.86.86,3.5,0,3.5,0s-3.22,3.74-5.85,3.74-3.56,1.33-3.56,1.33l1.57,1.61a7.74,7.74,0,0,1-3,.88c-1.33,0-3.71-2.56-6.48-2.56s-3.52-11.23-1.78-11.23c10.36,0,10.29-1.86,13.82-6.16s5-1.47,7.7-4.27,2.55-3.95,10.32-3.95S220.27,145.39,218.35,145.67Z" transform="translate(0 0)" fill="#212121"/><path d="M171.77,209.34c0-2,4.55-4.53,7.21-5.41s4.62-4,4.62-4,.17,2.71.17,4.71-2.13,15.17-2.13,19.82,10.15,15.16,10.15,15.16l-2.93-.28a19.71,19.71,0,0,1,4.3,7.88c1.31,4.81.34,6.85,2.83,9.12a8.5,8.5,0,0,1,2.45,5.78l-3.5-2.21a19.06,19.06,0,0,1,2.24,7.94,16.67,16.67,0,0,1-1,6.16s-.33-.94-2.34-.94-3.54,6-3.54,6a7.2,7.2,0,0,0-4.06-1.12c-2.57,0-3.6,6.91-8.36,10.08s-17.63,6.91-17.63,6.91a2.94,2.94,0,0,0-.61-2.11,11.6,11.6,0,0,1-1.26,3.6,8.23,8.23,0,0,1-2.49,2.66s-.34-1.1-.91-1.12a5,5,0,0,1-.42,2s-.8-.14-2.13-1.61-1.72-2.34-2.35-2.34l-.1-18c1.12,0,2.1-3.12,2.1-3.12a2.7,2.7,0,0,0,2.45,1.05,3.37,3.37,0,0,0,2.76-1.71s-.56,2.24.7,2.24,6.2-8.19,6.2-8.19,0,2.24,1.08,2.24,2.84-4.9,2.84-4.9,0,2.48,1.19,2.48,3.64-6,3.64-6-.12,1.87.94,1.87,4.52-9.43,4.52-9.43a3.46,3.46,0,0,0,2.75,1.52c1.8,0-.65-8-.65-8s1.86,1.61,1.86,0-4.56-7.09-4.56-13.5,1.23-6.72,1.23-11.09S171.77,212,171.77,209.34Z" transform="translate(0 0)" fill="#212121"/></g><g id="left"><path d="M148,230.5c0,1.22-.94,1.92-.94,2.83s.21,2.8.21,2.8-3.26-5.84-5.15-5.84-1.26,1.78-3.11,1.78-1.75-1-1.75-1.57,2.59-4.41,5-4.41S148,229,148,230.5Z" transform="translate(0 0)" fill="#212121"/><path d="M150,240.65c-2.94,0-9.83.8-9.83,3.81s4.13,6.79,4.13,6.79v-1.54a15.85,15.85,0,0,1,2.2.67,9.23,9.23,0,0,1,2.38,2.16s.32-1.12,1.12-1.12Z" transform="translate(0 0)" fill="#212121"/><path d="M129.32,204.88c-2.42,0-3.57-1.79-5.18-1.93s-7-2.44-7-6.47.07-3,3.33-3,7.49,3.85,8.05,5.42S130.46,204.88,129.32,204.88Z" transform="translate(0 0)" fill="#212121"/><path d="M143.49,148.82c0,1.78-2.38,4.65-4.06,4.65s-2-2-4-2-2.06,3.15-6,3.15-4.31,2.59-7.21,2.59-8.6-10.46-20-15.27-21.65-4.78-33.34-18.64-31.5-32-37-39-9.49-16.52-10-23.7-2.66-6.53-9.84-12.6S3,38.81,3,32s2.75-11.06,4.8-13.07,1.35,1.78,1.35,8.54S19.58,40.82,19.58,44a11.07,11.07,0,0,0,1.63,5.64s3.08-12.83,3.08-22.91A96,96,0,0,0,21,3C20-.34,20-2.67,24,6.1s5.88,23,6.67,34.81-1.45,16.56,3.5,26.5,11.1,14.1,12.13,14.1A1.75,1.75,0,0,0,48,79.64c0-1-8-6.16-11.43-12s-2.19-16.75-2.89-25.06-5-20.53-1.36-14,4.57,11.3,9.29,11.3,3.68-2,4.94-8.59,3.36-9.47,5.7-16.75,3.82-16.61,4.29-8S55,20.61,54,24.67s-2.29,9.94.7,9.94,14.41-6.3,19.5-12.32A58.78,58.78,0,0,1,89.34,9.69c3.73-2,1.68.38-5,8.08S77.11,31,71.84,34.33,60.32,42.82,60.32,50.48s-.4,8.56-1.87,10-1.21,13.62,1.68,26.88,9.05,17.26,9.05,17.26-6.06-11-6.72-20.25S61,68.16,60,65.27s2-3.08,5.6,8,6.62,26,14.37,34S101.56,128,108.28,128s7.38-1.59,8.68-.28-.28,6.63,2.57,11.81,6.25,10.36,8.54,10.36,6.86-4.16,6.86-4.16a14.25,14.25,0,0,1-4.67,1c-2.28,0-9-6.53-10.64-17.5s-.14-26.92-3.5-39.24S114,68,117,61.25s3.5-4.9,3.5,9.94,7.28,29,7.28,40.74-.21,18.9,6.86,26.46S143.49,147.38,143.49,148.82Z" transform="translate(0 0)" fill="#212121"/><path d="M73.71,149.17c2.61,8.91,8.91,18.29,10.68,20.06s12.74-1.45,21.51,5.6,9.31,18.29,9.31,18.29,1.61-2.1,6.84-2.1,10,6.25,10,11.15-1.31,8.82-4.81,12.37-3.64,4.71-3.64,6.62,4.06,5.7,4.06,13.12.19,6.67,2.61,6.67,6.25,5,6.25,5-.65-3.73-2.19-5.36S132,238.24,132,236.8s3.22-6,3.22-6-1.52,1.08-2.28,1.59a14.5,14.5,0,0,0-1.6,1.29s0-1.1,0-2.45a9.75,9.75,0,0,1,1.23-3.5l-1.87.58a2.41,2.41,0,0,1,.83-2.58c1.35-1.35.38-3.25,2.12-5s3.08-1.45,3.08-3.08S139.8,216,141.9,216s1.17-1,3.08-1,2.52,1.77,5,1.77V152.44c-1.12,0-3.38-2.29-3.38-2.29a20.75,20.75,0,0,0-4,2.76c-1.64,1.54-1.78,2.92-2.92,2.92s-4.22-2.5-4.22-2.5-3.46,3.6-6.72,3.6-2.83,1.82-6.89,1.82-17.09-8.84-22.55-12.66-8.91-4.2-18.43-4.2S71.09,140.25,73.71,149.17Zm8.68-4.9c7.77,0,7.59,1.15,10.32,3.95s4.17,0,7.7,4.27,3.46,6.16,13.82,6.16c1.74,0,1,11.23-1.78,11.23s-5.15,2.56-6.48,2.56a7.74,7.74,0,0,1-3-.88l1.57-1.61s-.94-1.33-3.56-1.33-5.85-3.74-5.85-3.74,2.64.86,3.5,0a1.73,1.73,0,0,0,.21-2.59c-.72-.72-8.12-.49-8.12-.49s4.83-.6,6.2-2,.87-4.51-1.19-5.18-2.49-1.43-2.49-2.09,1.33-1.75,1.33-1.75a28.1,28.1,0,0,0-4.37,1.68,10.5,10.5,0,0,0-3.08,2.86,11.41,11.41,0,0,1,.42-4.3A10.09,10.09,0,0,1,90,147.7a13.37,13.37,0,0,0-3.5,1.12,10.09,10.09,0,0,0-1.86,1.92s-1.4-1.12-1.4-2.27,1.37-1.93,1.37-1.93a9.32,9.32,0,0,0-3-.87C79.73,145.39,74.62,144.27,82.39,144.27Z" transform="translate(0 0)" fill="#212121"/><path d="M128.23,209.34c0-2-4.55-4.53-7.21-5.41s-4.62-4-4.62-4-.17,2.71-.17,4.71,2.13,15.17,2.13,19.82-10.15,15.16-10.15,15.16l2.93-.28a19.71,19.71,0,0,0-4.3,7.88c-1.31,4.81-.34,6.85-2.83,9.12a8.5,8.5,0,0,0-2.45,5.78l3.5-2.21a19.06,19.06,0,0,0-2.24,7.94,16.67,16.67,0,0,0,1,6.16s.33-.94,2.34-.94,3.54,6,3.54,6a7.2,7.2,0,0,1,4.06-1.12c2.57,0,3.6,6.91,8.36,10.08s17.63,6.91,17.63,6.91a2.94,2.94,0,0,1,.61-2.11,11.6,11.6,0,0,0,1.26,3.6,8.23,8.23,0,0,0,2.49,2.66s.34-1.1.91-1.12a5,5,0,0,0,.42,2s.8-.14,2.13-1.61,1.72-2.34,2.35-2.34l.1-18c-1.12,0-2.1-3.12-2.1-3.12a2.7,2.7,0,0,1-2.45,1.05,3.37,3.37,0,0,1-2.76-1.71s.56,2.24-.7,2.24-6.2-8.19-6.2-8.19,0,2.24-1.08,2.24-2.84-4.9-2.84-4.9,0,2.48-1.19,2.48-3.64-6-3.64-6,.12,1.87-.94,1.87-4.52-9.43-4.52-9.43a3.46,3.46,0,0,1-2.75,1.52c-1.8,0,.65-8,.65-8s-1.86,1.61-1.86,0,4.56-7.09,4.56-13.5S121,227.87,121,223.5,128.23,212,128.23,209.34Z" transform="translate(0 0)" fill="#212121"/></g></g><g id="frame"><rect width="300" height="300" fill="none"/></g></svg>