<svg xmlns="http://www.w3.org/2000/svg" viewBox="0 0 30 30"><path d="M15,20.5a1,1,0,0,0,.78-.28,5.13,5.13,0,0,0,.6-.59,2.77,2.77,0,0,1-.6.92,1.17,1.17,0,0,1-.78.29V22a3.87,3.87,0,0,0,1.78-.79,1.24,1.24,0,0,0,.37-1.28,4.72,4.72,0,0,0-.67-1,1.45,1.45,0,0,1,.34.23,2.73,2.73,0,0,1,.23.22s.13-1.09.21-2.14a14.18,14.18,0,0,1,.2-1.93,4.53,4.53,0,0,1,1.2-.67,1.6,1.6,0,0,1,.56-.08,2.1,2.1,0,0,1-.16-.86,8.31,8.31,0,0,1,0-.94,4.15,4.15,0,0,1-.67-.71c-.36-.47-.55-.76-.55-.76s-.65-.26-1.5-.54A3.89,3.89,0,0,0,15,10.4v3.83a5.46,5.46,0,0,1,1.42-.67,2.82,2.82,0,0,1,1.43.2,7.44,7.44,0,0,0-1.27,0,5.5,5.5,0,0,0-1.58.93Z" transform="translate(0)" fill="#212121"/><path d="M15,22.55a5,5,0,0,0,1.49-.46,4.12,4.12,0,0,0,.6-.75.75.75,0,0,1,.28-.14s-.43.9-.59,1.39a2.54,2.54,0,0,1-1.29,1.07c-.28.09-.22,0-.49,0Z" transform="translate(0)" fill="#212121"/><path d="M17.19,21.07a1.76,1.76,0,0,1,.44-.23,1.82,1.82,0,0,1,.45-.14,32.91,32.91,0,0,0,.76-3.33,6.66,6.66,0,0,0,.05-1.44,1,1,0,0,1-.72-.13,1.57,1.57,0,0,1-.41-.36s-.11,1.15-.27,2.3-.22,1.73-.22,1.73a1.26,1.26,0,0,1,.18.73A1.92,1.92,0,0,1,17.19,21.07Z" transform="translate(0)" fill="#212121"/><path d="M19,15.26a.47.47,0,0,1-.43.28.37.37,0,0,1-.37-.42c0-.15.24-.37.6-.37a.51.51,0,0,1,.47.2,1.27,1.27,0,0,1-.4.12c-.15,0-.12-.09-.23-.09a.17.17,0,0,0-.19.17.18.18,0,0,0,.2.17A1.63,1.63,0,0,0,19,15.26Z" transform="translate(0)" fill="#212121"/><path d="M19.39,13.75a12.79,12.79,0,0,1,.75-1.47c.27-.4.47-.28.47-.08s.2.43.57,0a1.58,1.58,0,0,1,1.06-.64c.34,0,.45.33.28.5a2.46,2.46,0,0,1-.7.34.89.89,0,0,0,.53,0c.2-.11.32-.17.39-.1s-.07.21-.29.3a3.85,3.85,0,0,1-.46.13.92.92,0,0,0,.49,0c.29-.06.35-.2.43-.12s0,.22-.34.48l-.59.41a2.28,2.28,0,0,0,1.15-.64,1.46,1.46,0,0,0,0-1.66.91.91,0,0,0-1.32.1c-.42.42-.93.84-.8.5s.23-.34.23-.34a1.91,1.91,0,0,1-.74-.13c-.2-.13-.49-.37-.73.08a.4.4,0,0,1-.6.2s-.22.1-.12.29a2.66,2.66,0,0,1,.34,1A6.27,6.27,0,0,1,19.39,13.75Z" transform="translate(0)" fill="#212121"/><path d="M15.34,10.21l2.57.81,0,0,.48.62a.07.07,0,0,0,.12,0A3.45,3.45,0,0,0,19,11.1l.12-.44a.08.08,0,0,0,0-.09,4.15,4.15,0,0,1-1.11-.69,1.94,1.94,0,0,1-.52-.77,5.26,5.26,0,0,0,1,.91,5.47,5.47,0,0,0,.7.34.07.07,0,0,0,.1,0l.12-.34a.08.08,0,0,0,0-.09,1.08,1.08,0,0,1-.42-.25.75.75,0,0,1-.24-.43,1.58,1.58,0,0,0,.45.36,2.45,2.45,0,0,0,.34.14.08.08,0,0,0,.08,0l.21-.33a.07.07,0,0,0,0-.09,2.15,2.15,0,0,0-.61-.42,2.51,2.51,0,0,1-.78-.72,3.84,3.84,0,0,0,.86.57,1.86,1.86,0,0,1,.63.41.07.07,0,0,0,.1,0l.28-.31a.08.08,0,0,0,0-.08s-.07-.12-.12-.21-.2-.27-.2-.27a2,2,0,0,1,.34.23l.11.16a.1.1,0,0,0,.1,0l.14-.09a.07.07,0,0,0,0-.1.81.81,0,0,0-.13-.15,1.59,1.59,0,0,0-.25-.21,1.24,1.24,0,0,1,.44.22l.09.12a.08.08,0,0,0,.09,0L21,8.38s.05-.06,0-.1a1.29,1.29,0,0,0-.13-.17,1.49,1.49,0,0,0-.28-.21,1.51,1.51,0,0,1,.45.25.51.51,0,0,1,.09.14.07.07,0,0,0,.08,0l.23-.06a.07.07,0,0,0,.05-.1A.61.61,0,0,0,21.46,8a1.56,1.56,0,0,0-.23-.25.93.93,0,0,1,.39.22l.09.14s.05,0,.09,0a2.37,2.37,0,0,1,1.1-.08,8.36,8.36,0,0,0,2.9,0,8.05,8.05,0,0,0,1.87-.56,6,6,0,0,1-2.46.79,17.78,17.78,0,0,1-2.85,0,2.88,2.88,0,0,0-1.94.65,1.15,1.15,0,0,0-.13.24.07.07,0,0,0,.11.08A.7.7,0,0,1,21,9.18a5.21,5.21,0,0,1,1.86.75c.42.36,1.43.36,3.1-.28a11.56,11.56,0,0,0,3.84-2.57c.52-.6.08-1-.52-.64a6.51,6.51,0,0,1-4,1c-2.32,0-2.92-.17-4.54-.17s-3.53.14-4.41,1a4,4,0,0,0-1.05,1.78A.07.07,0,0,0,15.34,10.21Z" transform="translate(0)" fill="#212121"/><path d="M15,20.5a1,1,0,0,1-.78-.28,5.13,5.13,0,0,1-.6-.59,2.77,2.77,0,0,0,.6.92,1.17,1.17,0,0,0,.78.29V22a3.87,3.87,0,0,1-1.78-.79,1.24,1.24,0,0,1-.37-1.28,4.72,4.72,0,0,1,.67-1,1.45,1.45,0,0,0-.34.23,2.73,2.73,0,0,0-.23.22s-.13-1.09-.21-2.14a14.18,14.18,0,0,0-.2-1.93,4.53,4.53,0,0,0-1.2-.67,1.6,1.6,0,0,0-.56-.08,2.1,2.1,0,0,0,.16-.86,8.31,8.31,0,0,0,0-.94,4.15,4.15,0,0,0,.67-.71c.36-.47.55-.76.55-.76s.65-.26,1.5-.54A3.89,3.89,0,0,1,15,10.4v3.83a5.46,5.46,0,0,0-1.42-.67,2.82,2.82,0,0,0-1.43.2,7.44,7.44,0,0,1,1.27,0,5.5,5.5,0,0,1,1.58.93Z" transform="translate(0)" fill="#212121"/><path d="M15,22.55a5,5,0,0,1-1.49-.46,4.12,4.12,0,0,1-.6-.75.75.75,0,0,0-.28-.14s.43.9.59,1.39a2.54,2.54,0,0,0,1.29,1.07c.28.09.22,0,.49,0Z" transform="translate(0)" fill="#212121"/><path d="M12.81,21.07a1.76,1.76,0,0,0-.44-.23,1.82,1.82,0,0,0-.45-.14,32.91,32.91,0,0,1-.76-3.33,6.66,6.66,0,0,1-.05-1.44,1,1,0,0,0,.72-.13,1.57,1.57,0,0,0,.41-.36s.11,1.15.27,2.3.22,1.73.22,1.73a1.26,1.26,0,0,0-.18.73A1.92,1.92,0,0,0,12.81,21.07Z" transform="translate(0)" fill="#212121"/><path d="M11,15.26a.47.47,0,0,0,.43.28.37.37,0,0,0,.37-.42c0-.15-.24-.37-.6-.37a.51.51,0,0,0-.47.2,1.27,1.27,0,0,0,.4.12c.15,0,.12-.09.23-.09a.17.17,0,0,1,.19.17.18.18,0,0,1-.2.17A1.63,1.63,0,0,1,11,15.26Z" transform="translate(0)" fill="#212121"/><path d="M10.61,13.75a12.79,12.79,0,0,0-.75-1.47c-.27-.4-.47-.28-.47-.08s-.2.43-.57,0a1.58,1.58,0,0,0-1.06-.64c-.34,0-.45.33-.28.5a2.46,2.46,0,0,0,.7.34.89.89,0,0,1-.53,0c-.2-.11-.32-.17-.39-.1s.07.21.29.3a3.85,3.85,0,0,0,.46.13.92.92,0,0,1-.49,0c-.29-.06-.35-.2-.43-.12s0,.22.34.48l.59.41a2.28,2.28,0,0,1-1.15-.64,1.46,1.46,0,0,1,0-1.66.91.91,0,0,1,1.32.1c.42.42.93.84.8.5s-.23-.34-.23-.34a1.91,1.91,0,0,0,.74-.13c.2-.13.49-.37.73.08a.4.4,0,0,0,.6.2s.22.1.12.29a2.66,2.66,0,0,0-.34,1A6.27,6.27,0,0,0,10.61,13.75Z" transform="translate(0)" fill="#212121"/><path d="M14.66,10.21,12.09,11l0,0-.48.62a.08.08,0,0,1-.12,0A3.45,3.45,0,0,1,11,11.1l-.12-.44a.08.08,0,0,1,0-.09,4.15,4.15,0,0,0,1.11-.69,1.94,1.94,0,0,0,.52-.77,5.26,5.26,0,0,1-1,.91,5.47,5.47,0,0,1-.7.34.07.07,0,0,1-.1,0L10.68,10a.08.08,0,0,1,0-.09,1.08,1.08,0,0,0,.42-.25.75.75,0,0,0,.24-.43,1.58,1.58,0,0,1-.45.36,2.45,2.45,0,0,1-.34.14.08.08,0,0,1-.08,0l-.21-.33a.07.07,0,0,1,0-.09,2.15,2.15,0,0,1,.61-.42,2.51,2.51,0,0,0,.78-.72,3.84,3.84,0,0,1-.86.57,1.86,1.86,0,0,0-.63.41.07.07,0,0,1-.1,0l-.28-.31a.08.08,0,0,1,0-.08s.07-.12.12-.21.2-.27.2-.27a2,2,0,0,0-.34.23l-.11.16a.1.1,0,0,1-.1,0l-.14-.09a.07.07,0,0,1,0-.1.81.81,0,0,1,.13-.15,1.59,1.59,0,0,1,.25-.21,1.24,1.24,0,0,0-.44.22l-.09.12a.08.08,0,0,1-.09,0L9,8.38s-.05-.06,0-.1a1.29,1.29,0,0,1,.13-.17,1.49,1.49,0,0,1,.28-.21,1.51,1.51,0,0,0-.45.25.51.51,0,0,0-.09.14.07.07,0,0,1-.08,0L8.5,8.26a.07.07,0,0,1-.05-.1A.61.61,0,0,1,8.54,8a1.56,1.56,0,0,1,.23-.25A.93.93,0,0,0,8.38,8l-.09.14s0,0-.09,0a2.37,2.37,0,0,0-1.1-.08,8.36,8.36,0,0,1-2.9,0,8.05,8.05,0,0,1-1.87-.56,6,6,0,0,0,2.46.79,17.78,17.78,0,0,0,2.85,0,2.88,2.88,0,0,1,1.94.65,1.15,1.15,0,0,1,.13.24.07.07,0,0,1-.11.08A.7.7,0,0,0,9,9.18a5.21,5.21,0,0,0-1.86.75c-.42.36-1.43.36-3.1-.28A11.56,11.56,0,0,1,.23,7.08c-.52-.6-.08-1,.52-.64a6.51,6.51,0,0,0,4,1c2.32,0,2.92-.17,4.54-.17s3.53.14,4.41,1a4,4,0,0,1,1.05,1.78A.07.07,0,0,1,14.66,10.21Z" transform="translate(0)" fill="#212121"/><rect width="30" height="30" fill="none"/></svg>