<svg xmlns="http://www.w3.org/2000/svg" viewBox="0 0 30 30"><path d="M28.31,6.06a4.48,4.48,0,0,0,.06-.66L28,6a3.93,3.93,0,0,0,.23-.9,2.31,2.31,0,0,0,0-.7L28,4.53,28.14,4H27.9a3,3,0,0,0,.17-.56,1.84,1.84,0,0,0,0-.44l-.38.41s.1-.35.18-.59a3.33,3.33,0,0,1,.29-.57l-.47.28L28,1.54l-.37,0L27.71,1,27.44,1a1.27,1.27,0,0,1,.13-.42,4.43,4.43,0,0,1,.31-.46c.07-.1-.1-.36-2.33,1s-2.44,2-2.44,2l0-.36a19.31,19.31,0,0,0-1.92,1.83c-.81.92-.88,1.33-1.25,1.61s-.73.51-.12-.77a6.08,6.08,0,0,1,.93-1.58.72.72,0,0,1-.37-.21c-.16-.16,0-.54,0-.54a1.71,1.71,0,0,0-.68,0,3.41,3.41,0,0,0-.58.14.59.59,0,0,1,0-.28,1.4,1.4,0,0,1,.17-.38,1.13,1.13,0,0,1-.6.26,2.94,2.94,0,0,1-.61,0l.14-.25-.76.12-.08-.21-.21.25L17,2.46l-.65.22.24-.39a1.18,1.18,0,0,0-.87.49c-.34.47-.47,1.35-.73,1.35V10c.25,0,.55.8.55,1.69s-.3,1.71-.55,1.71V22a4.53,4.53,0,0,1,1.88.39,6.93,6.93,0,0,1,1.2,1.15,13.83,13.83,0,0,1,.54,1.32,10.21,10.21,0,0,0-1.93-1.85A4.81,4.81,0,0,0,15,22.79v4.94h1.25a4.51,4.51,0,0,0,1.94-.49,4,4,0,0,0,.37-.29,1.87,1.87,0,0,1-1,.91,4.62,4.62,0,0,1-1.75.44c-.35,0-.4-.2-.81-.2v.51l.72.1-.71.15v.6a2,2,0,0,1,.87.2,2,2,0,0,1,.59.34.89.89,0,0,0-.1-.26,1.68,1.68,0,0,0-.22-.23,1.14,1.14,0,0,1,.39,0,1.29,1.29,0,0,1,.33.18.87.87,0,0,0,.06-.25,2.9,2.9,0,0,0,0-.29l.26.21a.68.68,0,0,0,0-.26,3.52,3.52,0,0,0-.09-.36l.3.18a1.77,1.77,0,0,0,0-.2c0-.1,0-.24,0-.24a1.7,1.7,0,0,1,.31.33c.09.15.17.32.17.32a2.65,2.65,0,0,0,.06-.46c0-.2,0-.39,0-.39l.7.13s-.07-.48.19-.69.89.22.89.22l-.41-.76a.68.68,0,0,0,.53.12c.36-.05.56-.08.58,0a.59.59,0,0,1,0,.27.76.76,0,0,0,.23-.33,2,2,0,0,0,0-.44.94.94,0,0,1,.2.29,4.18,4.18,0,0,1,.08.48,1,1,0,0,0,.16-.53,1.23,1.23,0,0,0-.22-.49,1.66,1.66,0,0,1,.59,0c.23.08.58.25.58.25a1,1,0,0,0-.23-.34,2.12,2.12,0,0,0-.43-.22l1,.07-.46-.19h.94a.23.23,0,0,1,0-.3,2.52,2.52,0,0,1,.55-.28l-1-.11a1.25,1.25,0,0,0,.74-.32c.35-.31.36-.63.54-.78a1.9,1.9,0,0,1,.42-.26L23.71,24a1.55,1.55,0,0,1,.46-.25,1.79,1.79,0,0,1,.56-.1A2.41,2.41,0,0,1,25,22.19a6.35,6.35,0,0,1,.85-1.42l-.45,0a1.33,1.33,0,0,1,.06-.36.92.92,0,0,1,.32-.35l-.47-.33.76-.4a2.27,2.27,0,0,1-.53-.07,1.35,1.35,0,0,1-.42-.24l.52-.15a2.53,2.53,0,0,1-.48-.23,1,1,0,0,1-.36-.41l.85,0a1.22,1.22,0,0,1-.7-.79,4,4,0,0,1-.3-1.06.71.71,0,0,0,.34-.1.85.85,0,0,0,.19-.24.68.68,0,0,1-.52-.08.67.67,0,0,1-.22-.34.73.73,0,0,0,.39,0,.78.78,0,0,0,.26-.22.61.61,0,0,1-.56-.32,4.65,4.65,0,0,1-.4-.68l.21-.28s-.3.1-.45-.07a.91.91,0,0,1-.2-.34l.32-.21a.71.71,0,0,1-.49-.13c-.16-.16-.33-.36-.33-.36a1.58,1.58,0,0,0,.05.94,4.94,4.94,0,0,0,.45.81l-.58-.41a4.66,4.66,0,0,0,.32.73c.19.31.34.51.34.51l-.44-.23a1,1,0,0,0,.07.35c.06.17.15.39.15.39s-.27-.11-.75-1.41-.36-1.8,0-2,.77-.31.77-.31-.35-.57-.69-.57-.37.5-1,.5-.25-.26-.25-.26a1.21,1.21,0,0,1-.43,0c-.28,0-.34-.15-.34-.15a2,2,0,0,0,.49-.05,1.35,1.35,0,0,0,.39-.15l-.5-.13h.3a.55.55,0,0,0,.24-.1,1,1,0,0,1-.37-.16.32.32,0,0,1-.15-.23,2.1,2.1,0,0,0,.46.14,1.43,1.43,0,0,0,.51,0,1.09,1.09,0,0,1-.4-.14.51.51,0,0,1-.17-.24A.41.41,0,0,0,22,10.8a.44.44,0,0,0,.14-.21,1.22,1.22,0,0,1-.71,0,.86.86,0,0,1-.37-.28,1.52,1.52,0,0,1,.46-.08,1.84,1.84,0,0,1,.47.07,1.09,1.09,0,0,0-.51-.37c-.32-.12-.81-1-.81-1l.38.12-.06-.43a.63.63,0,0,0,.76.08,1.58,1.58,0,0,1-.44-.28A1.13,1.13,0,0,1,21,8.05a.66.66,0,0,0,.31.1,1.15,1.15,0,0,0,.31,0,1,1,0,0,1-.6-.5c-.23-.41-.2-.62.38-.84a6.4,6.4,0,0,0,1.71-.86,1.35,1.35,0,0,1,.45-.33L23,5.54a1.72,1.72,0,0,1,.74-.69A9,9,0,0,1,25,4.33l-.25-.17s.27,0,.7-.74a16.09,16.09,0,0,0,.76-1.48,4.54,4.54,0,0,0,0,1.08,2.54,2.54,0,0,0,.22.9s-.34,0-.45.24-.09.37-.33.48a1.44,1.44,0,0,1-.43.13.93.93,0,0,0,.55,0,2.41,2.41,0,0,1,.68-.09A.47.47,0,0,1,26.3,5a.9.9,0,0,1-.23.26.77.77,0,0,1,.32,0,.53.53,0,0,1,.29.18.44.44,0,0,1-.29.22,1.05,1.05,0,0,1-.33,0s.23.2.24.37a.47.47,0,0,1-.18.3,1.51,1.51,0,0,1,.44,0,.68.68,0,0,1,.34.26,4.84,4.84,0,0,0-.6.37,1.14,1.14,0,0,0-.35.47,1.44,1.44,0,0,1,.49-.29,1,1,0,0,1,.54,0l-.54.37.43.41-.35.29.25.23s-.06.14-.38.3a1.73,1.73,0,0,1-.55.17l.77.12s-.3,0-.36.24a1.79,1.79,0,0,0,0,.62l-.38-.13.07.43-.28,0v.45l-.3,0v.51L25,11.11l-.11.32-.28-.13-.09.49-.39,0a1.46,1.46,0,0,0-.17.89,1,1,0,0,0,.6.76.73.73,0,0,1,.24-.5.64.64,0,0,1,.55-.2L25,12.36a1,1,0,0,0,.57-.13l.53-.3-.55-.13.62-.11a.59.59,0,0,1,.21-.64,2.36,2.36,0,0,1,.73-.39s-.33-.15-.17-.43a2.4,2.4,0,0,1,.84-.6s-.57-.08-.32-.34a3,3,0,0,1,.61-.46s-.5-.15-.3-.48a4.29,4.29,0,0,1,.48-.61s-.37.06-.28-.31S28.25,6.43,28.31,6.06ZM16.81,26.38s.32-.28-.2-.67-.65.08-.65.08a1,1,0,0,1-.1-.35c0-.23.18-.68.51-.66a1.68,1.68,0,0,1,1.09,1.08C17.49,26.26,16.81,26.38,16.81,26.38Zm1.83-12.84c.12-.22.53-.49,1.37-.32.69.15.46.56.46.56l-.06,0a.7.7,0,0,0-.32-.09h-.46a.27.27,0,0,0-.28.27.28.28,0,0,0,.28.28.28.28,0,0,0,.26-.2l.13,0a2.51,2.51,0,0,0-.23.21.9.9,0,0,1-1,.09A.77.77,0,0,1,18.64,13.54Zm3.19,7.69a1,1,0,0,0-.36.21.86.86,0,0,0-.13.31.29.29,0,0,1,.3.08.58.58,0,0,1,.12.33.87.87,0,0,0-.45.06.54.54,0,0,0-.34.27.72.72,0,0,1,.47.08.61.61,0,0,1,.22.31,1,1,0,0,1-.42.28l-.57.23a1.36,1.36,0,0,0,.39.11,2.48,2.48,0,0,0,.36,0,1.12,1.12,0,0,1-.32.38,5.17,5.17,0,0,1-.47.31.49.49,0,0,0,.19.1,1.77,1.77,0,0,0,.29.06,2,2,0,0,0-.35.27.89.89,0,0,0-.18.28,1.24,1.24,0,0,1-.56-.48c-.18-.31-.07-.55-.23-.91a5.48,5.48,0,0,0-.93-1.06,1.13,1.13,0,0,0-.05-.72c-.15-.35-.35-.54-.27-.75s.48-.18.48-.18a3.37,3.37,0,0,0-.55-.62,4.25,4.25,0,0,1-.65-.8,1.14,1.14,0,0,0,.33.1.49.49,0,0,0,.26,0,1.45,1.45,0,0,1-.52-.77c-.2-.58-.7-1.67-.7-1.67a.6.6,0,0,1,.3.1,1.56,1.56,0,0,1,.25.23,3.9,3.9,0,0,1-.08-.62,4,4,0,0,1,.1-.67l.12.42a1.67,1.67,0,0,0,.22-.38,1.78,1.78,0,0,0,.06-.57,1.19,1.19,0,0,1,.11.57,2.59,2.59,0,0,0-.07,1c.08.42-.27.72.1,1.36a18.61,18.61,0,0,1,1.26,2.06c.05.33.37.67,1.06.61A3.13,3.13,0,0,1,21.83,21.23Z" transform="translate(0 0)" fill="#212121"/><path d="M2,7.43c.09.37-.28.31-.28.31a4.29,4.29,0,0,1,.48.61c.2.33-.3.48-.3.48a3,3,0,0,1,.61.46c.25.26-.32.34-.32.34a2.4,2.4,0,0,1,.84.6c.16.28-.17.43-.17.43a2.36,2.36,0,0,1,.73.39.59.59,0,0,1,.21.64l.62.11-.55.13.53.3a1,1,0,0,0,.57.13l-.33.33a.64.64,0,0,1,.55.2.73.73,0,0,1,.24.5,1,1,0,0,0,.6-.76,1.46,1.46,0,0,0-.17-.89l-.39,0-.09-.49-.28.13L5,11.11l-.38.06v-.51l-.3,0v-.45l-.28,0,.07-.43-.38.13a1.79,1.79,0,0,0,0-.62C3.69,9,3.39,9,3.39,9l.77-.12a1.73,1.73,0,0,1-.55-.17c-.32-.16-.38-.3-.38-.3l.25-.23-.35-.29.43-.41L3,7.09a1,1,0,0,1,.54,0,1.44,1.44,0,0,1,.49.29A1.14,1.14,0,0,0,3.7,6.9a4.84,4.84,0,0,0-.6-.37.68.68,0,0,1,.34-.26,1.51,1.51,0,0,1,.44,0A.47.47,0,0,1,3.7,6c0-.17.24-.37.24-.37a1.05,1.05,0,0,1-.33,0,.44.44,0,0,1-.29-.22.53.53,0,0,1,.29-.18.77.77,0,0,1,.32,0A.9.9,0,0,1,3.7,5a.47.47,0,0,1-.06-.24,2.41,2.41,0,0,1,.68.09.93.93,0,0,0,.55,0,1.44,1.44,0,0,1-.43-.13c-.24-.11-.22-.27-.33-.48s-.45-.24-.45-.24A2.54,2.54,0,0,0,3.88,3a4.54,4.54,0,0,0,0-1.08A16.09,16.09,0,0,0,4.6,3.42c.43.73.7.74.7.74l-.25.17a9,9,0,0,1,1.25.52A1.72,1.72,0,0,1,7,5.54l-.61.06a1.35,1.35,0,0,1,.45.33,6.4,6.4,0,0,0,1.71.86c.58.22.61.43.38.84a1,1,0,0,1-.6.5,1.15,1.15,0,0,0,.31,0A.66.66,0,0,0,9,8.05a1.13,1.13,0,0,1-.25.38,1.58,1.58,0,0,1-.44.28.63.63,0,0,0,.76-.08L9,9.06l.38-.12s-.49.84-.81,1a1.09,1.09,0,0,0-.51.37,1.84,1.84,0,0,1,.47-.07,1.52,1.52,0,0,1,.46.08.86.86,0,0,1-.37.28,1.22,1.22,0,0,1-.71,0,.44.44,0,0,0,.14.21.41.41,0,0,0,.28.07.51.51,0,0,1-.17.24,1.09,1.09,0,0,1-.4.14,1.43,1.43,0,0,0,.51,0,2.1,2.1,0,0,0,.46-.14.32.32,0,0,1-.15.23,1,1,0,0,1-.37.16.55.55,0,0,0,.24.1h.3l-.5.13a1.35,1.35,0,0,0,.39.15,2,2,0,0,0,.49.05s-.06.12-.34.15a1.21,1.21,0,0,1-.43,0s.35.26-.25.26-.62-.5-1-.5-.69.57-.69.57.41.14.77.31.48.67,0,2-.75,1.41-.75,1.41.09-.22.15-.39a1,1,0,0,0,.07-.35l-.44.23s.15-.2.34-.51a4.66,4.66,0,0,0,.32-.73l-.58.41A4.94,4.94,0,0,0,6.79,14a1.58,1.58,0,0,0,0-.94s-.17.2-.33.36a.71.71,0,0,1-.49.13l.32.21a.91.91,0,0,1-.2.34c-.15.17-.45.07-.45.07l.21.28a4.65,4.65,0,0,1-.4.68.61.61,0,0,1-.56.32.78.78,0,0,0,.26.22.73.73,0,0,0,.39,0,.67.67,0,0,1-.22.34.68.68,0,0,1-.52.08.85.85,0,0,0,.19.24.71.71,0,0,0,.34.1,4,4,0,0,1-.3,1.06,1.22,1.22,0,0,1-.7.79l.85,0a1,1,0,0,1-.36.41,2.53,2.53,0,0,1-.48.23l.52.15a1.35,1.35,0,0,1-.42.24A2.27,2.27,0,0,1,4,19.3l.76.4L4.25,20a.92.92,0,0,1,.32.35,1.33,1.33,0,0,1,.06.36l-.45,0A6.35,6.35,0,0,1,5,22.19a2.41,2.41,0,0,1,.24,1.46,1.79,1.79,0,0,1,.56.1,1.55,1.55,0,0,1,.46.25l-.39.15a1.9,1.9,0,0,1,.42.26c.18.15.19.47.54.78a1.25,1.25,0,0,0,.74.32l-1,.11a2.52,2.52,0,0,1,.55.28.23.23,0,0,1,0,.3H8.1l-.46.19,1-.07a2.12,2.12,0,0,0-.43.22,1,1,0,0,0-.23.34s.35-.17.58-.25a1.66,1.66,0,0,1,.59,0,1.23,1.23,0,0,0-.22.49,1,1,0,0,0,.16.53,4.18,4.18,0,0,1,.08-.48.94.94,0,0,1,.2-.29,2,2,0,0,0,0,.44.76.76,0,0,0,.23.33.59.59,0,0,1,0-.27c0-.11.22-.08.58,0a.68.68,0,0,0,.53-.12l-.41.76s.64-.44.89-.22.19.69.19.69l.7-.13s0,.19,0,.39a2.65,2.65,0,0,0,.06.46s.08-.17.17-.32a1.7,1.7,0,0,1,.31-.33s0,.14,0,.24a1.77,1.77,0,0,0,0,.2l.3-.18a3.52,3.52,0,0,0-.09.36.68.68,0,0,0,0,.26l.26-.21a2.9,2.9,0,0,0,0,.29.87.87,0,0,0,.06.25,1.29,1.29,0,0,1,.33-.18,1.14,1.14,0,0,1,.39,0,1.68,1.68,0,0,0-.22.23.89.89,0,0,0-.1.26,2,2,0,0,1,.59-.34,2,2,0,0,1,.87-.2v-.6l-.71-.15.72-.1V28.1c-.41,0-.46.2-.81.2a4.62,4.62,0,0,1-1.75-.44,1.87,1.87,0,0,1-1-.91,4,4,0,0,0,.37.29,4.51,4.51,0,0,0,1.94.49H15V22.79a4.81,4.81,0,0,0-1.69.26,10.21,10.21,0,0,0-1.93,1.85,13.83,13.83,0,0,1,.54-1.32,6.93,6.93,0,0,1,1.2-1.15A4.53,4.53,0,0,1,15,22V13.37c-.25,0-.55-.82-.55-1.71S14.75,10,15,10V4.13c-.26,0-.39-.88-.73-1.35a1.18,1.18,0,0,0-.87-.49l.24.39L13,2.46l-.21.29-.21-.25-.08.21-.76-.12.14.25a2.94,2.94,0,0,1-.61,0,1.13,1.13,0,0,1-.6-.26,1.4,1.4,0,0,1,.17.38.59.59,0,0,1,0,.28,3.41,3.41,0,0,0-.58-.14,1.71,1.71,0,0,0-.68,0s.18.38,0,.54a.72.72,0,0,1-.37.21,6.08,6.08,0,0,1,.93,1.58c.61,1.28.26,1.05-.12.77S9.6,5.51,8.79,4.59A19.31,19.31,0,0,0,6.87,2.76l0,.36s-.22-.67-2.44-2S2.05,0,2.12.09a4.43,4.43,0,0,1,.31.46A1.27,1.27,0,0,1,2.56,1L2.29,1l.11.55L2,1.54l.26.94L1.82,2.2a3.33,3.33,0,0,1,.29.57c.08.24.18.59.18.59L1.91,3a1.84,1.84,0,0,0,0,.44A3,3,0,0,0,2.1,4H1.86l.19.57L1.79,4.4a2.31,2.31,0,0,0,0,.7A3.93,3.93,0,0,0,2,6l-.38-.6a4.48,4.48,0,0,0,.06.66C1.75,6.43,1.93,7.06,2,7.43ZM12.54,25.86a1.68,1.68,0,0,1,1.09-1.08c.33,0,.54.43.51.66a1,1,0,0,1-.1.35s-.13-.47-.65-.08-.2.67-.2.67S12.51,26.26,12.54,25.86Zm-1.3-11.44a.9.9,0,0,1-1-.09,2.51,2.51,0,0,0-.23-.21l.13,0a.28.28,0,0,0,.26.2.28.28,0,0,0,.28-.28.27.27,0,0,0-.28-.27H9.91a.7.7,0,0,0-.32.09l-.06,0s-.23-.41.46-.56c.84-.17,1.25.1,1.37.32A.77.77,0,0,1,11.24,14.42ZM9.38,21.1c.69.06,1-.28,1.06-.61a18.61,18.61,0,0,1,1.26-2.06c.37-.64,0-.94.1-1.36a2.59,2.59,0,0,0-.07-1,1.19,1.19,0,0,1,.11-.57,1.78,1.78,0,0,0,.06.57,1.67,1.67,0,0,0,.22.38l.12-.42a4,4,0,0,1,.1.67,3.9,3.9,0,0,1-.08.62,1.56,1.56,0,0,1,.25-.23.6.6,0,0,1,.3-.1s-.5,1.09-.7,1.67a1.45,1.45,0,0,1-.52.77.49.49,0,0,0,.26,0,1.14,1.14,0,0,0,.33-.1,4.25,4.25,0,0,1-.65.8,3.37,3.37,0,0,0-.55.62s.39,0,.48.18-.12.4-.27.75a1.13,1.13,0,0,0,0,.72,5.48,5.48,0,0,0-.93,1.06c-.16.36-.05.6-.23.91a1.24,1.24,0,0,1-.56.48.89.89,0,0,0-.18-.28,2,2,0,0,0-.35-.27,1.77,1.77,0,0,0,.29-.06.49.49,0,0,0,.19-.1,5.17,5.17,0,0,1-.47-.31,1.12,1.12,0,0,1-.32-.38,2.48,2.48,0,0,0,.36,0,1.36,1.36,0,0,0,.39-.11l-.57-.23a1,1,0,0,1-.42-.28.61.61,0,0,1,.22-.31A.72.72,0,0,1,9,22.49a.54.54,0,0,0-.34-.27.87.87,0,0,0-.45-.06.58.58,0,0,1,.12-.33.29.29,0,0,1,.3-.08.86.86,0,0,0-.13-.31,1,1,0,0,0-.36-.21A3.13,3.13,0,0,1,9.38,21.1Z" transform="translate(0 0)" fill="#212121"/><rect width="30" height="30" fill="none"/></svg>