<!-- Copyright (c) 2022 Jan Stehno -->
<svg xmlns="http://www.w3.org/2000/svg" viewBox="0 0 300 300"><title>feralpig</title><g id="feralpig"><g id="right"><path d="M283.1,60.64a57.18,57.18,0,0,0,.64-6.61l-3.82,6a41.16,41.16,0,0,0,2.29-9,26.73,26.73,0,0,0-.06-7l-2.61,1.28,1.91-5.66L279,39.47a23.93,23.93,0,0,0,1.71-5.53,18,18,0,0,0,.26-4.45l-3.81,4.13s1-3.49,1.78-5.91A31.41,31.41,0,0,1,281.77,22l-4.71,2.8,2.61-9.34-3.63.31,1-5.46-2.67-.58a13.49,13.49,0,0,1,1.34-4.19,42.49,42.49,0,0,1,3-4.64c.7-1-1-3.62-23.27,10s-24.4,20.34-24.4,20.34l.19-3.62a188.26,188.26,0,0,0-19.2,18.3C204,55.11,203.33,59.24,199.58,62s-7.31,5-1.21-7.76,9.34-15.76,9.34-15.76a7.83,7.83,0,0,1-3.75-2.1c-1.52-1.65.2-5.4.2-5.4a17.49,17.49,0,0,0-6.81.06,43.13,43.13,0,0,0-5.72,1.4,4.71,4.71,0,0,1,.07-2.73,14.72,14.72,0,0,1,1.71-3.82,12,12,0,0,1-6,2.61,32.48,32.48,0,0,1-6.1-.13l1.46-2.54-7.62,1.27-.77-2.1-2.16,2.48-2-2.92-6.55,2.16L166,22.88a11.75,11.75,0,0,0-8.64,4.9c-3.37,4.76-4.7,13.5-7.31,13.5V99.73c2.48,0,5.47,8,5.47,16.91s-2.94,17-5.47,17v86.77c4.86,0,15.76,1.46,18.81,3.87s10.17,8.52,11.95,11.44S186.23,249,186.23,249s-13.6-16.14-19.32-18.43-12.08-2.67-16.91-2.67v49.44h12.49c7.15,0,17.11-3.1,19.45-4.86s3.67-3,3.67-3-2.34,5.77-10,9.15S161.49,283,158.06,283s-4-2-8.06-2v5.1l7.15,1-7.09,1.5-.06,6a20.06,20.06,0,0,1,8.74,1.94,23.36,23.36,0,0,1,5.9,3.45,8.72,8.72,0,0,0-1-2.57,16.18,16.18,0,0,0-2.2-2.34,9.85,9.85,0,0,1,3.86.05,12.38,12.38,0,0,1,3.34,1.76,8.71,8.71,0,0,0,.62-2.48,25.17,25.17,0,0,0-.33-2.91l2.57,2.05a5.55,5.55,0,0,0,.43-2.57,22.39,22.39,0,0,0-.9-3.58l3,1.82a11.12,11.12,0,0,0,.28-2,20,20,0,0,0-.09-2.43,17.85,17.85,0,0,1,3.1,3.29c.9,1.48,1.76,3.2,1.76,3.2a25.62,25.62,0,0,0,.53-4.63c-.05-1.91,0-3.86,0-3.86l7,1.34s-.66-4.82,1.91-7,9,2.24,9,2.24l-4.14-7.63s1.76,1.62,5.34,1.19,5.53-.76,5.81.33a6,6,0,0,1-.24,2.72s2-1.72,2.29-3.29a22.38,22.38,0,0,0,0-4.43,9.73,9.73,0,0,1,2,2.91,35.27,35.27,0,0,1,.77,4.81s2-3,1.66-5.34a12.47,12.47,0,0,0-2.24-4.91,18.41,18.41,0,0,1,6,.43c2.23.76,5.79,2.48,5.79,2.48a9.73,9.73,0,0,0-2.29-3.37,19.49,19.49,0,0,0-4.39-2.22l9.86.7L219,261.88l9.4.13a2.41,2.41,0,0,1,.32-3.06c1.46-1.27,5.47-2.73,5.47-2.73L224,255.08a12.44,12.44,0,0,0,7.43-3.18c3.44-3.12,3.56-6.29,5.34-7.82a18.62,18.62,0,0,1,4.2-2.54L237.08,240a16.66,16.66,0,0,1,4.58-2.54,20.53,20.53,0,0,1,5.59-1s-1.43-5.81,2.48-14.58a65.07,65.07,0,0,1,8.49-14.21l-4.49-.29a13,13,0,0,1,.58-3.52c.57-1.82,3.24-3.53,3.24-3.53L252.84,197l7.54-4.06a20.63,20.63,0,0,1-5.25-.7,11.69,11.69,0,0,1-4.26-2.42l5.28-1.43a23.74,23.74,0,0,1-4.89-2.32,10.67,10.67,0,0,1-3.6-4.07l8.58.16s-4.41-1.24-7.08-7.91-3-10.58-3-10.58a7,7,0,0,0,3.43-1.05,9.16,9.16,0,0,0,1.91-2.39s-3.36.79-5.19-.74a7,7,0,0,1-2.29-3.4s2.62.73,3.95.19a8.15,8.15,0,0,0,2.63-2.24s-3.07.54-5.68-3.15a44.37,44.37,0,0,1-4-6.87l2.14-2.71s-3,1-4.48-.72a10.13,10.13,0,0,1-2-3.38l3.19-2.1s-3.38.24-4.95-1.34-3.29-3.62-3.29-3.62a15.72,15.72,0,0,0,.57,9.44,48.14,48.14,0,0,0,4.48,8.06l-5.82-4.05a47.68,47.68,0,0,0,3.25,7.24,49.46,49.46,0,0,0,3.38,5.1L233,153.74a10.26,10.26,0,0,0,.62,3.48c.67,1.72,1.58,3.91,1.58,3.91S232.47,160,227.71,147s-3.58-17.92,0-19.64a78.58,78.58,0,0,1,7.72-3.1s-3.48-5.72-6.91-5.72-3.68,5-9.63,5-2.53-2.57-2.53-2.57a11.3,11.3,0,0,1-4.26.25c-2.8-.25-3.43-1.46-3.43-1.46a19.17,19.17,0,0,0,4.89-.45,15.29,15.29,0,0,0,3.94-1.59l-4.95-1.2s1.71,0,2.92-.13a5.85,5.85,0,0,0,2.41-1,10.08,10.08,0,0,1-3.68-1.59,3.57,3.57,0,0,1-1.53-2.35,18.92,18.92,0,0,0,4.64,1.46,14.55,14.55,0,0,0,5.09-.31,10.92,10.92,0,0,1-4-1.4,4.68,4.68,0,0,1-1.65-2.42,4.26,4.26,0,0,0,2.8-.7,4.52,4.52,0,0,0,1.4-2.1s-4.33,1.15-7.19-.25-3.62-2.86-3.62-2.86a14.38,14.38,0,0,1,4.58-.83,16.78,16.78,0,0,1,4.7.77A11.44,11.44,0,0,0,214.33,99c-3.25-1.15-8.14-9.54-8.14-9.54L210,90.64l-.63-4.32A6.89,6.89,0,0,0,213.05,88a7.39,7.39,0,0,0,3.94-.89,16.5,16.5,0,0,1-4.38-2.86,10.17,10.17,0,0,1-2.48-3.81,6.72,6.72,0,0,0,3.11,1,10.73,10.73,0,0,0,3.06-.19,10.23,10.23,0,0,1-6-5c-2.35-4.13-2-6.23,3.81-8.46s14.94-6.16,17.1-8.58a13,13,0,0,1,4.45-3.3l-6-.57A17,17,0,0,1,237,48.5a89.73,89.73,0,0,1,12.53-5.21L247,41.57s2.67-.06,7-7.37a160.64,160.64,0,0,0,7.63-14.81,46,46,0,0,0-.39,10.8,25.23,25.23,0,0,0,2.17,9s-3.44.45-4.52,2.48-.89,3.69-3.24,4.77a16.5,16.5,0,0,1-4.38,1.33s3.36,1.15,5.53.26,6.8-.89,6.8-.89a5.28,5.28,0,0,1-.58,2.41,10,10,0,0,1-2.28,2.61,7.92,7.92,0,0,1,3.17-.38,5.15,5.15,0,0,1,2.86,1.78,4.11,4.11,0,0,1-2.86,2.16,12.3,12.3,0,0,1-3.3.51s2.29,2,2.35,3.69-1.72,3-1.72,3a13.12,13.12,0,0,1,4.39-.12c1.91.38,3.37,2.54,3.37,2.54A48.54,48.54,0,0,0,263,69a12,12,0,0,0-3.53,4.67,13.84,13.84,0,0,1,5-2.86,9,9,0,0,1,5.34.1l-5.34,3.62,4.29,4.1-3.52,3,2.47,2.29s-.57,1.43-3.71,3a17.26,17.26,0,0,1-5.53,1.71l7.72,1.24s-3.05.19-3.62,2.39.19,6.19.19,6.19l-3.82-1.33.67,4.29-2.76.38v4.48l-3,.38v5.15l-3.81-.66-1.15,3.24L246.11,113l-1,5-3.81-.57a14.24,14.24,0,0,0-1.72,9c.67,5.34,6,7.53,6,7.53a7.17,7.17,0,0,1,2.38-5,6.4,6.4,0,0,1,5.53-2l-3.37-3.3a9.76,9.76,0,0,0,5.73-1.34c2.92-1.71,5.33-3,5.33-3L255.7,118l6.17-1.08a5.88,5.88,0,0,1,2.16-6.35,23.59,23.59,0,0,1,7.31-4s-3.3-1.46-1.71-4.32,8.39-6,8.39-6-5.73-.77-3.25-3.37a30,30,0,0,1,6.11-4.64s-5-1.53-3-4.77a46.36,46.36,0,0,1,4.77-6.16s-3.63.63-2.8-3.06S282.53,64.32,283.1,60.64Zm-115,203.21s3.24-2.86-2-6.74-6.48.83-6.48.83a11.2,11.2,0,0,1-1-3.56c-.32-2.29,1.84-6.74,5.15-6.61s10.61,6.73,10.87,10.8S168.05,263.85,168.05,263.85Zm18.37-128.46c1.15-2.19,5.33-4.94,13.67-3.18,6.93,1.46,4.59,5.56,4.59,5.56l-.53.37a7.21,7.21,0,0,0-3.27-1h-4.62a2.77,2.77,0,1,0,2.63,3.57,5.44,5.44,0,0,1,1.29.45,21.66,21.66,0,0,0-2.32,2.18c-2.05,2.33-7.52,2.78-10.29.81C186,143.08,184.56,139,186.42,135.39Zm31.85,76.94a8.51,8.51,0,0,0-3.53,2.1,7.6,7.6,0,0,0-1.34,3,2.88,2.88,0,0,1,3,.86,5.45,5.45,0,0,1,1.24,3.24,9,9,0,0,0-4.48.57,5.74,5.74,0,0,0-3.43,2.77s2.95-.48,4.67.76a6.74,6.74,0,0,1,2.29,3.15,11.76,11.76,0,0,1-4.3,2.76c-3.24,1.43-5.62,2.29-5.62,2.29a12.81,12.81,0,0,0,3.91,1.14,25.57,25.57,0,0,0,3.53.1,10.88,10.88,0,0,1-3.15,3.81c-2.1,1.53-4.77,3-4.77,3a5.29,5.29,0,0,0,1.91,1,18.75,18.75,0,0,0,2.91.58,24.09,24.09,0,0,0-3.48,2.71,9.16,9.16,0,0,0-1.77,2.82s-3.91-1.62-5.67-4.77-.67-5.48-2.29-9.15-9.29-10.54-9.29-10.54a11.69,11.69,0,0,0-.43-7.2c-1.53-3.57-3.58-5.43-2.72-7.48s4.77-1.86,4.77-1.86a32.85,32.85,0,0,0-5.48-6.22c-3.12-2.6-6.49-7.94-6.49-7.94a11.77,11.77,0,0,0,3.24.95,5.14,5.14,0,0,0,2.67-.31s-3.18-1.78-5.21-7.63-7-16.72-7-16.72a5.42,5.42,0,0,1,3,1,13.34,13.34,0,0,1,2.48,2.29,38.08,38.08,0,0,1-.83-6.23,37.85,37.85,0,0,1,1.08-6.74l1.14,4.19A13,13,0,0,0,181,161a17,17,0,0,0,.61-5.68s1.52,3.14,1.14,5.72-1.43,5.43-.66,9.63-2.77,7.24,1,13.63,12,17.26,12.58,20.59,3.72,6.68,10.59,6.11A31.22,31.22,0,0,1,218.27,212.33Z" transform="translate(0)" fill="#212121"/></g><g id="left"><path d="M20.14,74.3c.83,3.69-2.8,3.06-2.8,3.06a46.36,46.36,0,0,1,4.77,6.16c2,3.24-3,4.77-3,4.77a30,30,0,0,1,6.11,4.64C27.71,95.53,22,96.3,22,96.3s6.81,3.11,8.39,6-1.71,4.32-1.71,4.32a23.59,23.59,0,0,1,7.31,4,5.88,5.88,0,0,1,2.16,6.35L44.3,118l-5.53,1.34s2.41,1.27,5.33,3a9.76,9.76,0,0,0,5.73,1.34l-3.37,3.3a6.4,6.4,0,0,1,5.53,2,7.17,7.17,0,0,1,2.38,5s5.34-2.19,6-7.53a14.24,14.24,0,0,0-1.72-9l-3.81.57-1-5-2.76,1.34L50,111.08l-3.81.66v-5.15l-3-.38v-4.48l-2.76-.38.67-4.29L37.3,98.39s.77-4,.19-6.19-3.62-2.39-3.62-2.39l7.72-1.24a17.26,17.26,0,0,1-5.53-1.71c-3.14-1.53-3.71-3-3.71-3l2.47-2.29-3.52-3,4.29-4.1-5.34-3.62a9,9,0,0,1,5.34-.1,13.84,13.84,0,0,1,5,2.86A12,12,0,0,0,37,69a48.54,48.54,0,0,0-6-3.75s1.46-2.16,3.37-2.54a13.12,13.12,0,0,1,4.39.12s-1.78-1.33-1.72-3,2.35-3.69,2.35-3.69a12.3,12.3,0,0,1-3.3-.51,4.11,4.11,0,0,1-2.86-2.16,5.15,5.15,0,0,1,2.86-1.78,7.92,7.92,0,0,1,3.17.38A10,10,0,0,1,37,49.51a5.28,5.28,0,0,1-.58-2.41s4.64,0,6.8.89,5.53-.26,5.53-.26a16.5,16.5,0,0,1-4.38-1.33c-2.35-1.08-2.16-2.73-3.24-4.77s-4.52-2.48-4.52-2.48a25.23,25.23,0,0,0,2.17-9,46,46,0,0,0-.39-10.8A160.64,160.64,0,0,0,46,34.2c4.32,7.31,7,7.37,7,7.37l-2.48,1.72A89.73,89.73,0,0,1,63.05,48.5a17,17,0,0,1,7.31,6.93l-6,.57a13,13,0,0,1,4.45,3.3c2.16,2.42,11.25,6.36,17.1,8.58s6.16,4.33,3.81,8.46a10.23,10.23,0,0,1-6,5,10.73,10.73,0,0,0,3.06.19,6.72,6.72,0,0,0,3.11-1,10.17,10.17,0,0,1-2.48,3.81A16.5,16.5,0,0,1,83,87.14,7.39,7.39,0,0,0,87,88a6.89,6.89,0,0,0,3.68-1.71L90,90.64l3.81-1.21S88.92,97.82,85.67,99a11.44,11.44,0,0,0-5.08,3.75,16.78,16.78,0,0,1,4.7-.77,14.38,14.38,0,0,1,4.58.83s-.76,1.46-3.62,2.86-7.19.25-7.19.25a4.52,4.52,0,0,0,1.4,2.1,4.26,4.26,0,0,0,2.8.7,4.68,4.68,0,0,1-1.65,2.42,10.92,10.92,0,0,1-4,1.4,14.55,14.55,0,0,0,5.09.31,18.92,18.92,0,0,0,4.64-1.46,3.57,3.57,0,0,1-1.53,2.35,10.08,10.08,0,0,1-3.68,1.59,5.85,5.85,0,0,0,2.41,1c1.21.13,2.92.13,2.92.13l-5,1.2a15.29,15.29,0,0,0,3.94,1.59,19.17,19.17,0,0,0,4.89.45s-.63,1.21-3.43,1.46a11.3,11.3,0,0,1-4.26-.25s3.43,2.57-2.53,2.57-6.19-5-9.63-5-6.91,5.72-6.91,5.72a78.58,78.58,0,0,1,7.72,3.1c3.58,1.72,4.77,6.63,0,19.64s-7.53,14.16-7.53,14.16.91-2.19,1.58-3.91a10.26,10.26,0,0,0,.62-3.48L62.57,156a49.46,49.46,0,0,0,3.38-5.1,47.68,47.68,0,0,0,3.25-7.24l-5.82,4.05a48.14,48.14,0,0,0,4.48-8.06,15.72,15.72,0,0,0,.57-9.44s-1.71,2.05-3.29,3.62-5,1.34-5,1.34l3.19,2.1a10.13,10.13,0,0,1-2,3.38c-1.48,1.67-4.48.72-4.48.72L59,144.06a44.37,44.37,0,0,1-4,6.87c-2.61,3.69-5.68,3.15-5.68,3.15A8.15,8.15,0,0,0,52,156.32c1.33.54,3.95-.19,3.95-.19a7,7,0,0,1-2.29,3.4c-1.83,1.53-5.19.74-5.19.74a9.16,9.16,0,0,0,1.91,2.39,7,7,0,0,0,3.43,1.05s-.29,3.9-3,10.58-7.08,7.91-7.08,7.91l8.58-.16a10.67,10.67,0,0,1-3.6,4.07,23.74,23.74,0,0,1-4.89,2.32l5.28,1.43a11.69,11.69,0,0,1-4.26,2.42,20.63,20.63,0,0,1-5.25.7L47.16,197l-4.71,3.28s2.67,1.71,3.24,3.53a13,13,0,0,1,.58,3.52l-4.49.29a65.07,65.07,0,0,1,8.49,14.21c3.91,8.77,2.48,14.58,2.48,14.58a20.53,20.53,0,0,1,5.59,1A16.66,16.66,0,0,1,62.92,240L59,241.54a18.62,18.62,0,0,1,4.2,2.54c1.78,1.53,1.9,4.7,5.34,7.82A12.44,12.44,0,0,0,76,255.08l-10.17,1.14s4,1.46,5.47,2.73a2.41,2.41,0,0,1,.32,3.06l9.4-.13-4.64,1.91,9.86-.7a19.49,19.49,0,0,0-4.39,2.22,9.73,9.73,0,0,0-2.29,3.37s3.56-1.72,5.79-2.48a18.41,18.41,0,0,1,6-.43,12.47,12.47,0,0,0-2.24,4.91C88.79,273,90.74,276,90.74,276a35.27,35.27,0,0,1,.77-4.81,9.73,9.73,0,0,1,1.95-2.91,22.38,22.38,0,0,0,.05,4.43c.28,1.57,2.29,3.29,2.29,3.29a6,6,0,0,1-.24-2.72c.28-1.09,2.24-.76,5.81-.33s5.34-1.19,5.34-1.19l-4.14,7.63s6.38-4.39,9-2.24,1.91,7,1.91,7l7-1.34s0,1.95,0,3.86a25.62,25.62,0,0,0,.53,4.63s.86-1.72,1.76-3.2a17.85,17.85,0,0,1,3.1-3.29,20,20,0,0,0-.09,2.43,11.12,11.12,0,0,0,.28,2l3-1.82a22.39,22.39,0,0,0-.9,3.58,5.55,5.55,0,0,0,.43,2.57l2.57-2.05a25.17,25.17,0,0,0-.33,2.91,8.71,8.71,0,0,0,.62,2.48,12.38,12.38,0,0,1,3.34-1.76,9.85,9.85,0,0,1,3.86-.05,16.18,16.18,0,0,0-2.2,2.34,8.72,8.72,0,0,0-1,2.57,23.36,23.36,0,0,1,5.9-3.45,20.06,20.06,0,0,1,8.74-1.94l-.06-6-7.09-1.5,7.15-1V281c-4.07,0-4.62,2-8.06,2s-10-1-17.59-4.39-10-9.15-10-9.15,1.33,1.19,3.67,3,12.3,4.86,19.45,4.86H150V227.87c-4.83,0-11.19.38-16.91,2.67S113.77,249,113.77,249s3.69-10.29,5.47-13.22,8.89-9,12-11.44,13.95-3.87,18.81-3.87V133.67c-2.53,0-5.47-8.13-5.47-17s3-16.91,5.47-16.91V41.28c-2.61,0-3.94-8.74-7.31-13.5a11.75,11.75,0,0,0-8.64-4.9l2.35,3.88-6.55-2.16-2,2.92L125.66,25l-.77,2.1-7.62-1.27,1.46,2.54a32.48,32.48,0,0,1-6.1.13,12,12,0,0,1-6-2.61,14.72,14.72,0,0,1,1.71,3.82,4.71,4.71,0,0,1,.07,2.73,43.13,43.13,0,0,0-5.72-1.4A17.49,17.49,0,0,0,95.84,31s1.72,3.75.2,5.4a7.83,7.83,0,0,1-3.75,2.1s3.24,3,9.34,15.76,2.54,10.55-1.21,7.76S96,55.11,87.9,45.89a188.26,188.26,0,0,0-19.2-18.3l.19,3.62s-2.16-6.74-24.4-20.34-24-11-23.27-10a42.49,42.49,0,0,1,3.05,4.64,13.49,13.49,0,0,1,1.34,4.19l-2.67.58,1,5.46-3.63-.31,2.61,9.34L18.23,22a31.41,31.41,0,0,1,2.86,5.72c.77,2.42,1.78,5.91,1.78,5.91l-3.81-4.13a18,18,0,0,0,.26,4.45A23.93,23.93,0,0,0,21,39.47l-2.48.13,1.91,5.66L17.85,44a26.73,26.73,0,0,0-.06,7,41.16,41.16,0,0,0,2.29,9l-3.82-6a57.18,57.18,0,0,0,.64,6.61C17.47,64.32,19.32,70.62,20.14,74.3ZM125.4,258.57c.26-4.07,7.57-10.68,10.87-10.8s5.47,4.32,5.15,6.61a11.2,11.2,0,0,1-1,3.56s-1.27-4.71-6.48-.83-2,6.74-2,6.74S125.15,262.64,125.4,258.57Zm-13-114.41c-2.77,2-8.24,1.52-10.29-.81a21.66,21.66,0,0,0-2.32-2.18,5.44,5.44,0,0,1,1.29-.45,2.76,2.76,0,1,0,2.63-3.57H99.12a7.21,7.21,0,0,0-3.27,1l-.53-.37s-2.34-4.1,4.59-5.56c8.34-1.76,12.52,1,13.67,3.18C115.44,139,114,143.08,112.43,144.16ZM93.84,211c6.87.57,10-2.77,10.59-6.11s8.86-14.2,12.58-20.59.19-9.44.95-13.63-.28-7.06-.66-9.63,1.14-5.72,1.14-5.72a17,17,0,0,0,.61,5.68,13,13,0,0,0,2.16,3.75l1.14-4.19a37.85,37.85,0,0,1,1.08,6.74,38.08,38.08,0,0,1-.83,6.23,13.34,13.34,0,0,1,2.48-2.29,5.42,5.42,0,0,1,3-1s-5,10.87-7,16.72-5.21,7.63-5.21,7.63a5.14,5.14,0,0,0,2.67.31,11.77,11.77,0,0,0,3.24-.95s-3.37,5.34-6.49,7.94a32.85,32.85,0,0,0-5.48,6.22s3.91-.19,4.77,1.86-1.19,3.91-2.72,7.48a11.69,11.69,0,0,0-.43,7.2s-7.67,6.87-9.29,10.54-.53,6-2.29,9.15-5.67,4.77-5.67,4.77a9.16,9.16,0,0,0-1.77-2.82,24.09,24.09,0,0,0-3.48-2.71,18.75,18.75,0,0,0,2.91-.58,5.29,5.29,0,0,0,1.91-1s-2.67-1.52-4.77-3a10.88,10.88,0,0,1-3.15-3.81,25.57,25.57,0,0,0,3.53-.1,12.81,12.81,0,0,0,3.91-1.14s-2.38-.86-5.62-2.29a11.76,11.76,0,0,1-4.3-2.76,6.74,6.74,0,0,1,2.29-3.15c1.72-1.24,4.67-.76,4.67-.76a5.74,5.74,0,0,0-3.43-2.77,9,9,0,0,0-4.48-.57,5.45,5.45,0,0,1,1.24-3.24,2.88,2.88,0,0,1,3-.86,7.6,7.6,0,0,0-1.34-3,8.51,8.51,0,0,0-3.53-2.1A31.22,31.22,0,0,1,93.84,211Z" transform="translate(0)" fill="#212121"/></g></g><g id="frame"><rect width="300" height="300" fill="none"/></g></svg>