<svg xmlns="http://www.w3.org/2000/svg" viewBox="0 0 30 30"><g id="gadwall"><g id="right"><path d="M18.81,15.28a5.3,5.3,0,0,1-1-2.94c-.18-1.17-.16-1.33-.59-1.17A13.24,13.24,0,0,1,15,12V27.78a1.49,1.49,0,0,0,1.51-.85c.25-.61.43-.65.91-1a1.4,1.4,0,0,0,.76-1.2c.11-.69.07-1.56.26-2.94a25.75,25.75,0,0,1,.76-3.92c.31-1,.56-1.69.56-1.83S19.51,16.05,18.81,15.28Zm-2-.22s.09-.52.26-.52a3.1,3.1,0,0,1,0,.55c0,.35-.18.65-.31.65s-.45-.61-.45-1.6.51-1.24.69-1.24.24.06.24.2-.1.22-.23.37a1.56,1.56,0,0,0-.3.94A2.63,2.63,0,0,0,16.8,15.06Z" transform="translate(0)" fill="#212121"/><path d="M23.9,13.8a10.11,10.11,0,0,0-.51-1.51l.61.43a2.85,2.85,0,0,0-.17-.6c-.12-.32-.75-1.68-1.28-2.74a8.1,8.1,0,0,1-1-3.07c0-.84.2-1.32.2-2.18a2.69,2.69,0,0,0-.42-1.72,5.64,5.64,0,0,0-.91-1l.29,0a1.32,1.32,0,0,0-.4-.3,1.27,1.27,0,0,0-.59-.1L20.1.91a1.94,1.94,0,0,0-.68-.13h-.55l.41-.24a2.49,2.49,0,0,0-.63,0c-.37,0-.61.05-.61.05L18.5.22a1.24,1.24,0,0,0-.53,0c-.36.07-.74.18-.74.18l.52-.35a4.58,4.58,0,0,0-.65.08,2.63,2.63,0,0,0-.81.28L16.8,0A1.47,1.47,0,0,0,16,.13c-.49.19-.69.55-1,.55v11a8.34,8.34,0,0,0,1.71-.75c.45-.19,1-.48,1.19-.1A28,28,0,0,0,18.52,14a2.76,2.76,0,0,0,2,1.26c.52.07.61-.05.61.39s-.74.94-1.2,2.19a25.09,25.09,0,0,0-1.2,5.68c-.12,1.77-.06,2.27-.35,2.8s-1,.68-1.37,1.11a4.3,4.3,0,0,1-1.19,1,1.74,1.74,0,0,1-.8.14V30a4.79,4.79,0,0,0,2.63-.78,5.87,5.87,0,0,0,1.83-1.55l0,.59a2.38,2.38,0,0,0,.54-.47,1.27,1.27,0,0,0,.2-.82l.31.16a3.91,3.91,0,0,1-.47-.75,5,5,0,0,1-.42-2.05,4.47,4.47,0,0,1,.72-2.5,13.68,13.68,0,0,1,1.22-1.59l-.74,0,1.47-.94a3.58,3.58,0,0,0,1.29-2.15,15.59,15.59,0,0,0,.08-2.38l.4.32A4.32,4.32,0,0,0,23.9,13.8ZM20.18,8.93a1,1,0,0,0,.54-.16,1.43,1.43,0,0,1-.25.24,1.13,1.13,0,0,1-.51.15c-.2,0-.78-.32-.78-1.46a1.94,1.94,0,0,1,1.21-1.62,3.28,3.28,0,0,0-.25.3,2.75,2.75,0,0,0-.15.29,1,1,0,0,1,.31-.09c.15,0,.53-.11.53.63a1.36,1.36,0,0,1-.73,1.23c-.21.11-.27.17-.27.23S19.85,8.93,20.18,8.93Z" transform="translate(0)" fill="#212121"/><path d="M20.3,7.87c.12,0,.2,0,.2-.27s-.14-.35-.23-.35-.15.12-.15.27S20.22,7.87,20.3,7.87Z" transform="translate(0)" fill="#212121"/></g><g id="left"><path d="M10.24,16.06c0,.14.25.81.56,1.83a25.75,25.75,0,0,1,.76,3.92c.19,1.38.15,2.25.26,2.94a1.4,1.4,0,0,0,.76,1.2c.48.33.66.37.91,1a1.49,1.49,0,0,0,1.51.85V12a13.24,13.24,0,0,1-2.19-.84c-.43-.16-.41,0-.59,1.17a5.3,5.3,0,0,1-1,2.94C10.49,16.05,10.24,15.92,10.24,16.06Zm3-1.65a1.56,1.56,0,0,0-.3-.94c-.13-.15-.23-.22-.23-.37s.06-.2.24-.2.69.26.69,1.24-.32,1.6-.45,1.6-.31-.3-.31-.65a3.1,3.1,0,0,1,0-.55c.17,0,.26.52.26.52A2.63,2.63,0,0,0,13.26,14.41Z" transform="translate(0)" fill="#212121"/><path d="M6,15.11l.4-.32a15.59,15.59,0,0,0,.08,2.38,3.58,3.58,0,0,0,1.29,2.15l1.47.94-.74,0a13.68,13.68,0,0,1,1.22,1.59,4.47,4.47,0,0,1,.72,2.5A5,5,0,0,1,10,26.38a3.91,3.91,0,0,1-.47.75L9.82,27a1.27,1.27,0,0,0,.2.82,2.38,2.38,0,0,0,.54.47l0-.59a5.87,5.87,0,0,0,1.83,1.55A4.79,4.79,0,0,0,15,30V28.59a1.74,1.74,0,0,1-.8-.14,4.3,4.3,0,0,1-1.19-1c-.36-.43-1.09-.57-1.37-1.11s-.23-1-.35-2.8a25.09,25.09,0,0,0-1.2-5.68c-.46-1.25-1.2-1.75-1.2-2.19s.09-.32.61-.39a2.76,2.76,0,0,0,2-1.26,28,28,0,0,0,.62-3.14c.15-.38.74-.09,1.19.1a8.34,8.34,0,0,0,1.71.75V.68c-.32,0-.52-.36-1-.55A1.47,1.47,0,0,0,13.2,0l.51.42A2.63,2.63,0,0,0,12.9.15a4.58,4.58,0,0,0-.65-.08l.52.35S12.39.31,12,.24a1.24,1.24,0,0,0-.53,0L12,.54s-.24,0-.61-.05a2.49,2.49,0,0,0-.63,0l.41.24h-.55A1.94,1.94,0,0,0,9.9.91l.41.13a1.27,1.27,0,0,0-.59.1,1.32,1.32,0,0,0-.4.3l.29,0a5.64,5.64,0,0,0-.91,1,2.69,2.69,0,0,0-.42,1.72c0,.86.2,1.34.2,2.18a8.1,8.1,0,0,1-1,3.07c-.53,1.06-1.16,2.42-1.28,2.74a2.85,2.85,0,0,0-.17.6l.61-.43A10.11,10.11,0,0,0,6.1,13.8,4.32,4.32,0,0,0,6,15.11Zm4.21-6.44c0-.06-.06-.12-.27-.23a1.36,1.36,0,0,1-.73-1.23c0-.74.38-.64.53-.63a1,1,0,0,1,.31.09,2.75,2.75,0,0,0-.15-.29,3.28,3.28,0,0,0-.25-.3A1.94,1.94,0,0,1,10.82,7.7c0,1.14-.58,1.46-.78,1.46A1.13,1.13,0,0,1,9.53,9a1.43,1.43,0,0,1-.25-.24,1,1,0,0,0,.54.16C10.15,8.93,10.17,8.74,10.17,8.67Z" transform="translate(0)" fill="#212121"/><path d="M9.7,7.87c-.12,0-.2,0-.2-.27s.14-.35.23-.35.15.12.15.27S9.78,7.87,9.7,7.87Z" transform="translate(0)" fill="#212121"/></g></g><g id="frame"><rect width="30" height="30" fill="none"/></g></svg>