<svg xmlns="http://www.w3.org/2000/svg" viewBox="0 0 30 30"><path d="M15,29.6a1.13,1.13,0,0,0,.59-.15c.37-.19.8-.62.82-.58a1.64,1.64,0,0,1-.64.86A2,2,0,0,1,15,30Z" transform="translate(0 0)" fill="#212121"/><path d="M15,29.48a3.05,3.05,0,0,0,1.39-.73,1.94,1.94,0,0,0,.8-1.45,1.85,1.85,0,0,0-.41-1c0-.11.14-.16.14-.3a.61.61,0,0,0-.09-.28s-.06.2-.2.2a1.75,1.75,0,0,1-.77-.48A1.8,1.8,0,0,0,15,25v3.27a.86.86,0,0,0,.73-.36c.19-.21.23-.31.34-.37s.2.12.13.27a3.21,3.21,0,0,1-.68.85.93.93,0,0,1-.52.15Z" transform="translate(0 0)" fill="#212121"/><path d="M17.06,25.74a9.71,9.71,0,0,0,.09-1.59A20.92,20.92,0,0,1,17,21.9c.06-.19.46-.45.46-.45a.27.27,0,0,1-.28-.19c-.07-.21,0-.55.38-1s.62-.64.62-.78-.14-.21-.27-.48a9.56,9.56,0,0,0-.51-.94c-.12-.14-.12-.46-.6.4s-1.11,1.88-1.21,2-.11.24.2.47a6.57,6.57,0,0,1,.69,2.42A8.42,8.42,0,0,0,17.06,25.74Z" transform="translate(0 0)" fill="#212121"/><path d="M17.58,23.45a19.48,19.48,0,0,0,.68-2.16,4.52,4.52,0,0,0,0-1.33c0-.08-.12.18-.24.33a1.75,1.75,0,0,1-.23.24.21.21,0,0,1,.15.16,2.18,2.18,0,0,1-.15.82,1.89,1.89,0,0,1-.47.63.84.84,0,0,1,.2.38,3.32,3.32,0,0,1-.15.77,2.61,2.61,0,0,0,.06.82A3,3,0,0,1,17.58,23.45Z" transform="translate(0 0)" fill="#212121"/><path d="M22.76,16.23a4.26,4.26,0,0,0-1.9.08c-1,.15-1,.24-1.37.79a5.28,5.28,0,0,1-1,1.27,2,2,0,0,1-.43.3,1.76,1.76,0,0,1,.49.92,3.64,3.64,0,0,1,.07,1,1.27,1.27,0,0,1,.83-.54C20,20,20.7,20.17,21,20a9,9,0,0,0,1.63-1.63,3.42,3.42,0,0,0,0-1.16c-.06-.36,0-1,.09-.7a2.35,2.35,0,0,1,.16.91,4.48,4.48,0,0,1-.1.8,2.18,2.18,0,0,0,.21-.79A2.65,2.65,0,0,0,22.76,16.23Zm-1.45,2.85c-.43.53-.68.65-.7.36a7,7,0,0,1,0-1c0-.29-.23.12-.56.47s-.76.67-.74.48a1.51,1.51,0,0,1,.43-.77c.27-.33.22-.42,0-.42s-.39-.08-.4-.21.19-.15.45-.48a1.1,1.1,0,0,1,1.07-.55c.62,0,1.17,0,1.25.41C22.23,17.9,21.73,18.54,21.31,19.08Z" transform="translate(0 0)" fill="#212121"/><path d="M18.69,13.65A9.28,9.28,0,0,0,17,14l-.29.73a9.34,9.34,0,0,1,1.83-.37c.18,0,.27.23.31.47.07-.24.13-.48.2-.72S18.86,13.66,18.69,13.65Z" transform="translate(0 0)" fill="#212121"/><path d="M17.84,16.65a12.49,12.49,0,0,0-2.19.48l-.3.7a17,17,0,0,1,1.92-.45c.33,0,.6.7.6.7l.28-1C18.11,16.88,18,16.66,17.84,16.65Z" transform="translate(0 0)" fill="#212121"/><path d="M19,11.9a6.5,6.5,0,0,0-1.33.24l-.24.63a8.59,8.59,0,0,1,1.54-.3c.19,0,.28.25.32.51l.06-.24C19.35,12.42,19.28,11.9,19,11.9Z" transform="translate(0 0)" fill="#212121"/><path d="M18.85,12.77a7.55,7.55,0,0,0-1.53.29c-.08.22-.17.44-.26.66a9,9,0,0,1,1.76-.36c.15,0,.23.16.29.35,0-.1.05-.2.08-.3C19.15,13.11,19.07,12.77,18.85,12.77Z" transform="translate(0 0)" fill="#212121"/><path d="M18.07,15.65a10.82,10.82,0,0,0-2,.42c-.12.29-.23.54-.32.77A12.3,12.3,0,0,1,18,16.36c.16,0,.24.17.29.37,0-.15.09-.31.14-.48S18.28,15.66,18.07,15.65Z" transform="translate(0 0)" fill="#212121"/><path d="M18.35,14.65a9.33,9.33,0,0,0-1.81.37l-.32.76a10.9,10.9,0,0,1,2-.42c.18,0,.27.24.32.48.05-.19.11-.39.17-.6S18.56,14.65,18.35,14.65Z" transform="translate(0 0)" fill="#212121"/><path d="M19.2,11.26a7.06,7.06,0,0,0-1.28.24c0,.11-.08.23-.13.35h0a6.76,6.76,0,0,1,1.35-.24c.23,0,.31.35.34.65,0-.09,0-.18.07-.28C19.52,11.67,19.44,11.27,19.2,11.26Z" transform="translate(0 0)" fill="#212121"/><path d="M20.26,7.13a5.24,5.24,0,0,0-.88.14c-.05.16-.1.32-.16.48a6,6,0,0,1,1-.16c.12,0,.2.11.25.25,0-.12.05-.25.08-.37S20.41,7.14,20.26,7.13Z" transform="translate(0 0)" fill="#212121"/><path d="M20.08,7.88a5.43,5.43,0,0,0-.95.16c-.07.23-.15.46-.23.69A5.43,5.43,0,0,1,20,8.55c.14,0,.22.13.28.3,0-.19.08-.39.13-.59S20.24,7.89,20.08,7.88Z" transform="translate(0 0)" fill="#212121"/><path d="M21.76.07c0-.34-.37.59-.88,2.36-.28.95-.8,2.66-1.41,4.56a5.05,5.05,0,0,1,.93-.15c.11,0,.19.09.24.22.34-1.58.65-3.08.79-3.94A21.34,21.34,0,0,0,21.76.07Z" transform="translate(0 0)" fill="#212121"/><path d="M19.42,10.51a5.65,5.65,0,0,0-1.21.21l-.18.49a7.06,7.06,0,0,1,1.3-.24c.2,0,.29.27.33.54l0-.11.07-.3C19.71,10.82,19.63,10.51,19.42,10.51Z" transform="translate(0 0)" fill="#212121"/><path d="M19.84,8.84a5.84,5.84,0,0,0-1,.17c-.07.23-.15.46-.23.69a7.06,7.06,0,0,1,1.18-.21c.14,0,.23.15.28.33l.12-.53C20.1,9.06,20,8.85,19.84,8.84Z" transform="translate(0 0)" fill="#212121"/><path d="M19.62,9.79a5.47,5.47,0,0,0-1.15.19c0,.16-.11.31-.16.46a6.13,6.13,0,0,1,1.24-.22c.17,0,.25.19.3.41l.08-.36C19.89,10,19.8,9.79,19.62,9.79Z" transform="translate(0 0)" fill="#212121"/><path d="M15,29.6a1.13,1.13,0,0,1-.59-.15c-.37-.19-.8-.62-.82-.58a1.64,1.64,0,0,0,.64.86A2,2,0,0,0,15,30Z" transform="translate(0 0)" fill="#212121"/><path d="M15,29.48a3.05,3.05,0,0,1-1.39-.73,1.94,1.94,0,0,1-.8-1.45,1.85,1.85,0,0,1,.41-1c0-.11-.14-.16-.14-.3a.61.61,0,0,1,.09-.28s.06.2.2.2a1.75,1.75,0,0,0,.77-.48A1.8,1.8,0,0,1,15,25v3.27a.86.86,0,0,1-.73-.36c-.19-.21-.23-.31-.34-.37s-.2.12-.13.27a3.21,3.21,0,0,0,.68.85.93.93,0,0,0,.52.15Z" transform="translate(0 0)" fill="#212121"/><path d="M12.94,25.74a9.71,9.71,0,0,1-.09-1.59A20.92,20.92,0,0,0,13,21.9c-.06-.19-.46-.45-.46-.45a.27.27,0,0,0,.28-.19c.07-.21-.05-.55-.38-1s-.62-.64-.62-.78.14-.21.27-.48a9.56,9.56,0,0,1,.51-.94c.12-.14.12-.46.6.4s1.11,1.88,1.21,2,.11.24-.2.47a6.57,6.57,0,0,0-.69,2.42A8.42,8.42,0,0,1,12.94,25.74Z" transform="translate(0 0)" fill="#212121"/><path d="M12.42,23.45a19.48,19.48,0,0,1-.68-2.16,4.52,4.52,0,0,1,0-1.33c0-.08.12.18.24.33a1.75,1.75,0,0,0,.23.24.21.21,0,0,0-.15.16,2.18,2.18,0,0,0,.15.82,1.89,1.89,0,0,0,.47.63.84.84,0,0,0-.2.38,3.32,3.32,0,0,0,.15.77,2.61,2.61,0,0,1-.06.82A3,3,0,0,0,12.42,23.45Z" transform="translate(0 0)" fill="#212121"/><path d="M7,17.41a2.18,2.18,0,0,0,.21.79,4.48,4.48,0,0,1-.1-.8,2.35,2.35,0,0,1,.16-.91c.1-.26.15.34.09.7a3.42,3.42,0,0,0,0,1.16A9,9,0,0,0,9.05,20c.25.19.91,0,1.48.1a1.27,1.27,0,0,1,.83.54,3.64,3.64,0,0,1,.07-1,1.76,1.76,0,0,1,.49-.92,2,2,0,0,1-.43-.3,5.28,5.28,0,0,1-1-1.27c-.33-.55-.41-.64-1.37-.79a4.26,4.26,0,0,0-1.9-.08A2.65,2.65,0,0,0,7,17.41Zm.85-.06c.08-.38.63-.41,1.25-.41a1.1,1.1,0,0,1,1.07.55c.26.33.45.36.45.48s-.22.22-.4.21-.23.09,0,.42a1.51,1.51,0,0,1,.43.77c0,.19-.42-.13-.74-.48s-.58-.76-.56-.47a7,7,0,0,1,0,1c0,.29-.27.17-.7-.36S7.77,17.9,7.88,17.35Z" transform="translate(0 0)" fill="#212121"/><path d="M11.31,13.65a9.28,9.28,0,0,1,1.74.35l.29.73a9.34,9.34,0,0,0-1.83-.37c-.18,0-.27.23-.31.47-.07-.24-.13-.48-.2-.72S11.14,13.66,11.31,13.65Z" transform="translate(0 0)" fill="#212121"/><path d="M12.16,16.65a12.49,12.49,0,0,1,2.19.48l.3.7a17,17,0,0,0-1.92-.45c-.33,0-.6.7-.6.7l-.28-1C11.89,16.88,12,16.66,12.16,16.65Z" transform="translate(0 0)" fill="#212121"/><path d="M11,11.9a6.5,6.5,0,0,1,1.33.24l.24.63a8.59,8.59,0,0,0-1.54-.3c-.19,0-.28.25-.32.51l-.06-.24C10.65,12.42,10.72,11.9,11,11.9Z" transform="translate(0 0)" fill="#212121"/><path d="M11.15,12.77a7.55,7.55,0,0,1,1.53.29c.08.22.17.44.26.66a9,9,0,0,0-1.76-.36c-.15,0-.23.16-.29.35,0-.1-.05-.2-.08-.3C10.85,13.11,10.93,12.77,11.15,12.77Z" transform="translate(0 0)" fill="#212121"/><path d="M11.93,15.65a10.82,10.82,0,0,1,2,.42c.12.29.23.54.32.77A12.3,12.3,0,0,0,12,16.36c-.16,0-.24.17-.29.37-.05-.15-.09-.31-.14-.48S11.72,15.66,11.93,15.65Z" transform="translate(0 0)" fill="#212121"/><path d="M11.65,14.65a9.33,9.33,0,0,1,1.81.37l.32.76a10.9,10.9,0,0,0-2-.42c-.18,0-.27.24-.32.48-.05-.19-.11-.39-.17-.6S11.44,14.65,11.65,14.65Z" transform="translate(0 0)" fill="#212121"/><path d="M10.8,11.26a7.06,7.06,0,0,1,1.28.24c0,.11.08.23.13.35h0a6.76,6.76,0,0,0-1.35-.24c-.23,0-.31.35-.34.65,0-.09,0-.18-.07-.28C10.48,11.67,10.56,11.27,10.8,11.26Z" transform="translate(0 0)" fill="#212121"/><path d="M9.74,7.13a5.24,5.24,0,0,1,.88.14c.05.16.1.32.16.48a6,6,0,0,0-1-.16c-.12,0-.2.11-.25.25,0-.12,0-.25-.08-.37S9.59,7.14,9.74,7.13Z" transform="translate(0 0)" fill="#212121"/><path d="M9.92,7.88a5.43,5.43,0,0,1,.95.16c.07.23.15.46.23.69A5.43,5.43,0,0,0,10,8.55c-.14,0-.22.13-.28.3,0-.19-.08-.39-.13-.59S9.76,7.89,9.92,7.88Z" transform="translate(0 0)" fill="#212121"/><path d="M8.24.07c0-.34.37.59.88,2.36.28.95.8,2.66,1.41,4.56a5.05,5.05,0,0,0-.93-.15c-.11,0-.19.09-.24.22C9,5.48,8.71,4,8.57,3.12A21.34,21.34,0,0,1,8.24.07Z" transform="translate(0 0)" fill="#212121"/><path d="M10.58,10.51a5.65,5.65,0,0,1,1.21.21l.18.49a7.06,7.06,0,0,0-1.3-.24c-.2,0-.29.27-.33.54l0-.11-.07-.3C10.29,10.82,10.37,10.51,10.58,10.51Z" transform="translate(0 0)" fill="#212121"/><path d="M10.16,8.84a5.84,5.84,0,0,1,1,.17c.07.23.15.46.23.69a7.06,7.06,0,0,0-1.18-.21c-.14,0-.23.15-.28.33l-.12-.53C9.9,9.06,10,8.85,10.16,8.84Z" transform="translate(0 0)" fill="#212121"/><path d="M10.38,9.79a5.47,5.47,0,0,1,1.15.19c.05.16.11.31.16.46a6.13,6.13,0,0,0-1.24-.22c-.17,0-.25.19-.3.41l-.08-.36C10.11,10,10.2,9.79,10.38,9.79Z" transform="translate(0 0)" fill="#212121"/><rect width="30" height="30" fill="none"/></svg>