<!-- Copyright (c) 2022 - 2023 Jan Stehno -->
<svg xmlns="http://www.w3.org/2000/svg" viewBox="0 0 300 300"><title>gemsbok</title><g id="gemsbok"><g id="right"><path d="M150,296a11.78,11.78,0,0,0,5.9-1.56c3.67-1.85,8-6.18,8.16-5.73s-2.81,6.7-6.39,8.58S151.32,300,150,300Z" transform="translate(0)" fill="#212121"/><path d="M150,294.81c1.65,0,9.08-2.73,13.89-7.36s8-8.24,8-14.44-4.07-9.08-4.07-10.14,1.38-1.58,1.38-3a6.11,6.11,0,0,0-.87-2.77s-.61,2-2,2-5.19-2.27-7.73-4.77a17.92,17.92,0,0,0-8.57-4.17v32.74c4.07,0,5.32-1.58,7.27-3.66s2.36-3,3.43-3.66,2,1.25,1.29,2.69-4.58,7.22-6.8,8.47a9.12,9.12,0,0,1-5.19,1.56Z" transform="translate(0)" fill="#212121"/><path d="M170.6,257.4a94,94,0,0,0,.93-15.95c-.42-6.8-2.08-20.55-1.46-22.43s4.65-4.51,4.65-4.51a2.75,2.75,0,0,1-2.84-1.9c-.67-2.11.55-5.49,3.86-10s6.17-6.42,6.14-7.81-1.43-2.12-2.71-4.79-3.92-8.06-5.11-9.45-1.14-4.58-5.93,4S157,203.39,156,204.68s-1.14,2.43,1.91,4.76,6.11,17.74,7,24.17S168.6,256.41,170.6,257.4Z" transform="translate(0)" fill="#212121"/><path d="M175.8,234.51c1-3.7,5.73-15,6.81-21.57s.52-12.6.24-13.36-1.11,1.84-2.33,3.33a16.6,16.6,0,0,1-2.36,2.39,2.1,2.1,0,0,1,1.53,1.6c.3,1.1-.39,5.16-1.54,8.19a18.25,18.25,0,0,1-4.64,6.29,7.79,7.79,0,0,1,1.94,3.86c.21,2-.86,4.68-1.45,7.64s.55,8.23.55,8.23A34.11,34.11,0,0,1,175.8,234.51Z" transform="translate(0)" fill="#212121"/><path d="M227.6,162.3c-1.2-1.52-9.4-.64-19,.84s-10.42,2.4-13.75,7.82-6.6,10.21-9.8,12.78a21.7,21.7,0,0,1-4.29,3,17.14,17.14,0,0,1,4.88,9.12,34.7,34.7,0,0,1,.77,10.35,12.56,12.56,0,0,1,8.23-5.38c5.76-1.12,12.32.86,14.86-1s15.44-13.44,16.27-16.31.84-8,.28-11.58-.09-9.67.93-7a24.15,24.15,0,0,1,1.62,9.08,46.8,46.8,0,0,1-1.07,8,21.46,21.46,0,0,0,2.18-7.87C229.87,170.17,228.8,163.83,227.6,162.3Zm-14.54,28.45c-4.24,5.39-6.74,6.57-7,3.62a83.82,83.82,0,0,1-.28-10.14c.18-3-2.29,1.21-5.55,4.68s-7.61,6.71-7.43,4.76,1.52-4.44,4.23-7.71,2.23-4.16.45-4.13-3.88-.83-3.95-2.08,1.8-1.57,4.44-4.9,4.45-5.42,10.7-5.42,11.75.31,12.5,4C222.3,179,217.3,185.37,213.06,190.75Z" transform="translate(0)" fill="#212121"/><path d="M186.88,136.54c-3.22-.09-11.33,1.87-17.39,3.5-1,2.5-2,4.93-2.94,7.26,6.13-1.67,14.93-3.84,18.32-3.74,1.81.05,2.69,2.31,3.13,4.74.66-2.38,1.32-4.8,2-7.22C189.53,138.72,188.64,136.59,186.88,136.54Z" transform="translate(0)" fill="#212121"/><path d="M178.41,166.54c-4.14-.12-16.34,3.15-21.89,4.75-1.92,4.46-3.05,7-3.05,7s16-4.5,19.26-4.5,6,7,6,7,1.11-3.75,2.81-9.62C181.07,168.78,180.19,166.59,178.41,166.54Z" transform="translate(0)" fill="#212121"/><path d="M190.08,119c-2.53-.07-8.08,1.12-13.28,2.43q-1.23,3.19-2.44,6.32c5.74-1.5,12.55-3.07,15.44-3,1.88.06,2.76,2.49,3.18,5,.2-.8.41-1.59.61-2.38C193.46,124.24,192.83,119.05,190.08,119Z" transform="translate(0)" fill="#212121"/><path d="M188.48,127.65c-2.85-.08-9.54,1.45-15.24,2.93-.88,2.25-1.75,4.44-2.6,6.59,6.07-1.64,14.31-3.64,17.56-3.55,1.48,0,2.35,1.57,2.85,3.46.27-1,.54-2,.8-3C191.54,131.11,190.7,127.71,188.48,127.65Z" transform="translate(0)" fill="#212121"/><path d="M180.7,156.54c-3.65-.1-13.56,2.43-19.67,4.12-1.21,2.89-2.31,5.48-3.27,7.74,5.52-1.59,17.81-4.89,22-4.77,1.54,0,2.41,1.69,2.9,3.67.44-1.52.9-3.13,1.38-4.81C183.66,159.65,182.81,156.6,180.7,156.54Z" transform="translate(0)" fill="#212121"/><path d="M183.55,146.47c-3.36-.09-12.05,2.05-18.17,3.71-1.1,2.68-2.15,5.22-3.14,7.6,6.09-1.7,16.11-4.26,19.78-4.15,1.82.05,2.71,2.35,3.14,4.81l1.7-6C186.51,149.57,185.65,146.53,183.55,146.47Z" transform="translate(0)" fill="#212121"/><path d="M192,112.65c-2.45-.07-7.73,1-12.78,2.3q-.66,1.77-1.32,3.51l0,.08c5.26-1.33,10.94-2.56,13.51-2.49,2.26.07,3.09,3.59,3.38,6.58l.68-2.78C195.22,116.74,194.44,112.72,192,112.65Z" transform="translate(0)" fill="#212121"/><path d="M202.65,71.33a44.8,44.8,0,0,0-8.82,1.36l-1.58,4.84c4.08-1,7.93-1.68,9.91-1.62,1.21,0,2,1.06,2.53,2.45.27-1.21.53-2.42.79-3.63C205,72.87,204.11,71.37,202.65,71.33Z" transform="translate(0)" fill="#212121"/><path d="M200.84,78.83a47.86,47.86,0,0,0-9.52,1.52q-1.15,3.47-2.32,7c4.37-1,8.61-1.87,10.73-1.81,1.37,0,2.21,1.36,2.72,3.05q.66-3,1.32-6C203.27,80.56,202.4,78.87,200.84,78.83Z" transform="translate(0)" fill="#212121"/><path d="M217.64.67c0-3.33-3.75,6-8.88,23.61-2.78,9.54-7.92,26.66-14,45.59A46.87,46.87,0,0,1,204,68.41c1.12,0,1.88.93,2.41,2.19,3.41-15.76,6.54-30.82,7.93-39.37C217.09,14.14,217.64,4,217.64.67Z" transform="translate(0)" fill="#212121"/><path d="M194.18,105.08c-2.35-.07-7.27,1-12.11,2.14q-.88,2.46-1.78,4.88c5.14-1.28,10.56-2.44,13.05-2.37,2,.06,2.84,2.69,3.23,5.34l.24-1.06c.21-1,.44-2,.67-3C197.13,108.16,196.27,105.14,194.18,105.08Z" transform="translate(0)" fill="#212121"/><path d="M198.41,88.41c-2.06-.06-6.12.72-10.37,1.72-.78,2.3-1.57,4.6-2.36,6.88,4.75-1.16,9.53-2.14,11.83-2.07,1.43,0,2.29,1.48,2.8,3.29.39-1.75.78-3.53,1.19-5.35C201,90.55,200.15,88.46,198.41,88.41Z" transform="translate(0)" fill="#212121"/><path d="M196.19,97.86c-2.24-.07-6.86.86-11.5,2-.53,1.51-1.07,3-1.6,4.52,4.94-1.21,10-2.28,12.4-2.21,1.67,0,2.55,2,3,4.17.27-1.2.54-2.42.82-3.68C198.89,100.2,198,97.91,196.19,97.86Z" transform="translate(0)" fill="#212121"/></g><g id="left"><path d="M150,296a11.78,11.78,0,0,1-5.9-1.56c-3.67-1.85-8-6.18-8.16-5.73s2.81,6.7,6.39,8.58S148.68,300,150,300Z" transform="translate(0)" fill="#212121"/><path d="M150,294.81c-1.65,0-9.08-2.73-13.89-7.36s-8-8.24-8-14.44,4.07-9.08,4.07-10.14-1.38-1.58-1.38-3a6.11,6.11,0,0,1,.87-2.77s.61,2,2,2,5.19-2.27,7.73-4.77a17.92,17.92,0,0,1,8.57-4.17v32.74c-4.07,0-5.32-1.58-7.27-3.66s-2.36-3-3.43-3.66-2,1.25-1.29,2.69,4.58,7.22,6.8,8.47a9.12,9.12,0,0,0,5.19,1.56Z" transform="translate(0)" fill="#212121"/><path d="M129.4,257.4a94,94,0,0,1-.93-15.95c.42-6.8,2.08-20.55,1.46-22.43s-4.65-4.51-4.65-4.51a2.75,2.75,0,0,0,2.84-1.9c.67-2.11-.55-5.49-3.86-10s-6.17-6.42-6.14-7.81,1.43-2.12,2.71-4.79,3.92-8.06,5.11-9.45,1.14-4.58,5.93,4S143,203.39,144,204.68s1.14,2.43-1.91,4.76-6.11,17.74-7,24.17S131.4,256.41,129.4,257.4Z" transform="translate(0)" fill="#212121"/><path d="M124.2,234.51c-1-3.7-5.73-15-6.81-21.57s-.52-12.6-.24-13.36,1.11,1.84,2.33,3.33a16.6,16.6,0,0,0,2.36,2.39,2.1,2.1,0,0,0-1.53,1.6c-.3,1.1.39,5.16,1.54,8.19a18.25,18.25,0,0,0,4.64,6.29,7.79,7.79,0,0,0-1.94,3.86c-.21,2,.86,4.68,1.45,7.64s-.55,8.23-.55,8.23A34.11,34.11,0,0,0,124.2,234.51Z" transform="translate(0)" fill="#212121"/><path d="M70.27,174.11A21.46,21.46,0,0,0,72.45,182a46.8,46.8,0,0,1-1.07-8A24.15,24.15,0,0,1,73,164.94c1-2.68,1.48,3.38.93,7s-.56,8.71.28,11.58S88,197.94,90.48,199.82s9.1-.11,14.86,1a12.56,12.56,0,0,1,8.23,5.38,34.7,34.7,0,0,1,.77-10.35,17.14,17.14,0,0,1,4.88-9.12,21.7,21.7,0,0,1-4.29-3c-3.2-2.57-6.46-7.36-9.8-12.78s-4.16-6.34-13.75-7.82-17.78-2.36-19-.84S70.13,170.17,70.27,174.11Zm8.54-.65c.75-3.72,6.25-4,12.5-4s8.06,2.09,10.7,5.42,4.51,3.65,4.44,4.9-2.18,2.12-4,2.08-2.26.87.45,4.13,4.06,5.77,4.23,7.71-4.16-1.28-7.43-4.76-5.73-7.64-5.55-4.68a83.82,83.82,0,0,1-.28,10.14c-.24,2.95-2.74,1.77-7-3.62S77.7,179,78.81,173.46Z" transform="translate(0)" fill="#212121"/><path d="M113.12,136.54c3.22-.09,11.33,1.87,17.39,3.5,1,2.5,2,4.93,2.94,7.26-6.13-1.67-14.93-3.84-18.32-3.74-1.81.05-2.69,2.31-3.13,4.74-.66-2.38-1.32-4.8-2-7.22C110.47,138.72,111.36,136.59,113.12,136.54Z" transform="translate(0)" fill="#212121"/><path d="M121.59,166.54c4.14-.12,16.34,3.15,21.89,4.75,1.92,4.46,3.05,7,3.05,7s-16-4.5-19.26-4.5-6,7-6,7-1.11-3.75-2.81-9.62C118.93,168.78,119.81,166.59,121.59,166.54Z" transform="translate(0)" fill="#212121"/><path d="M109.92,119c2.53-.07,8.08,1.12,13.28,2.43q1.23,3.19,2.44,6.32c-5.74-1.5-12.55-3.07-15.44-3-1.88.06-2.76,2.49-3.18,5-.2-.8-.41-1.59-.61-2.38C106.54,124.24,107.17,119.05,109.92,119Z" transform="translate(0)" fill="#212121"/><path d="M111.52,127.65c2.85-.08,9.54,1.45,15.24,2.93.88,2.25,1.75,4.44,2.6,6.59-6.07-1.64-14.31-3.64-17.56-3.55-1.48,0-2.35,1.57-2.85,3.46-.27-1-.54-2-.8-3C108.46,131.11,109.3,127.71,111.52,127.65Z" transform="translate(0)" fill="#212121"/><path d="M119.3,156.54c3.65-.1,13.56,2.43,19.67,4.12,1.21,2.89,2.31,5.48,3.27,7.74-5.52-1.59-17.81-4.89-22-4.77-1.54,0-2.41,1.69-2.9,3.67-.44-1.52-.9-3.13-1.38-4.81C116.34,159.65,117.19,156.6,119.3,156.54Z" transform="translate(0)" fill="#212121"/><path d="M116.45,146.47c3.36-.09,12,2.05,18.17,3.71,1.1,2.68,2.15,5.22,3.14,7.6-6.09-1.7-16.11-4.26-19.78-4.15-1.82.05-2.71,2.35-3.14,4.81l-1.7-6C113.49,149.57,114.35,146.53,116.45,146.47Z" transform="translate(0)" fill="#212121"/><path d="M108,112.65c2.45-.07,7.73,1,12.78,2.3q.66,1.77,1.32,3.51l0,.08c-5.26-1.33-10.94-2.56-13.51-2.49-2.26.07-3.09,3.59-3.38,6.58l-.68-2.78C104.78,116.74,105.56,112.72,108,112.65Z" transform="translate(0)" fill="#212121"/><path d="M97.35,71.33a44.8,44.8,0,0,1,8.82,1.36l1.58,4.84c-4.08-1-7.93-1.68-9.91-1.62-1.21,0-2,1.06-2.53,2.45-.27-1.21-.53-2.42-.79-3.63C95,72.87,95.89,71.37,97.35,71.33Z" transform="translate(0)" fill="#212121"/><path d="M99.16,78.83a47.86,47.86,0,0,1,9.52,1.52q1.16,3.47,2.32,7c-4.37-1-8.61-1.87-10.73-1.81-1.37,0-2.21,1.36-2.72,3.05q-.66-3-1.32-6C96.73,80.56,97.6,78.87,99.16,78.83Z" transform="translate(0)" fill="#212121"/><path d="M82.36.67c0-3.33,3.75,6,8.88,23.61,2.78,9.54,7.92,26.66,14,45.59A46.87,46.87,0,0,0,96,68.41c-1.12,0-1.88.93-2.41,2.19-3.41-15.76-6.54-30.82-7.93-39.37C82.91,14.14,82.36,4,82.36.67Z" transform="translate(0)" fill="#212121"/><path d="M105.82,105.08c2.35-.07,7.27,1,12.11,2.14q.88,2.46,1.78,4.88c-5.14-1.28-10.56-2.44-13-2.37-2,.06-2.84,2.69-3.23,5.34l-.24-1.06c-.21-1-.44-2-.67-3C102.87,108.16,103.73,105.14,105.82,105.08Z" transform="translate(0)" fill="#212121"/><path d="M101.59,88.41c2.06-.06,6.12.72,10.37,1.72.78,2.3,1.57,4.6,2.36,6.88-4.75-1.16-9.53-2.14-11.83-2.07-1.43,0-2.29,1.48-2.8,3.29-.39-1.75-.78-3.53-1.19-5.35C99,90.55,99.85,88.46,101.59,88.41Z" transform="translate(0)" fill="#212121"/><path d="M103.81,97.86c2.24-.07,6.86.86,11.5,2,.53,1.51,1.07,3,1.6,4.52-4.94-1.21-10-2.28-12.4-2.21-1.67,0-2.55,2-3,4.17-.27-1.2-.54-2.42-.82-3.68C101.11,100.2,102,97.91,103.81,97.86Z" transform="translate(0)" fill="#212121"/></g></g><g id="frame"><rect width="300" height="300" fill="none"/></g></svg>