<svg xmlns="http://www.w3.org/2000/svg" viewBox="0 0 30 30"><path d="M15,.14c.23,0,.24-.14.56-.14s.43.38.58.38.17-.11.4-.11.25.11.56.14.45.26.8.36.43,0,.63.37.34.19.57.35.25.34.55.62a3,3,0,0,1,.89,1.29c.17.59.24,1,0,1.32a12.86,12.86,0,0,0-2.19,1.93A21.58,21.58,0,0,0,17.1,9l.63-.35A9.35,9.35,0,0,0,16,10.91a26.59,26.59,0,0,0-1,3.38Z" transform="translate(0)" fill="#212121"/><path d="M19.67,10.28c.18,0,.22-.34.22-.44s-.05-.35-.19-.35-.16.2-.16.45S19.62,10.28,19.67,10.28Z" transform="translate(0)" fill="#212121"/><path d="M23.4,15.22a4.74,4.74,0,0,0-.27-.88l.18-.12-.18-.39c-.09-.22-.28-.91-.28-.91l.17-.13s-.13-.15-.29-.37a6.38,6.38,0,0,1-.35-.57l.18,0a9.38,9.38,0,0,1-1-1.53A24.46,24.46,0,0,1,21,6.65c-.2-1-.41-1.56-.54-1.56a5.87,5.87,0,0,0-1.58,1.28,7.28,7.28,0,0,0-1.24,2.09l1-.63a15.76,15.76,0,0,0-2,2.54,22.77,22.77,0,0,0-1.36,3.44c2.4-2.15,3-2.56,3.19-2.41s.06.79.1,1.41a5.32,5.32,0,0,0,.65,1.75,9.4,9.4,0,0,1,.15,2.09,9.24,9.24,0,0,1,.6,1.68A4.77,4.77,0,0,1,19.31,20C19,20.5,18.87,21,19.13,21s1.23-.84,1.54-.94.46-.41.73-.75.64-.54.77-.88a8.22,8.22,0,0,1,.56-1l.08.15a.8.8,0,0,0,.16-.38,8.09,8.09,0,0,0,.09-.9l.09.11a1.31,1.31,0,0,0,.08-.37,3,3,0,0,0,0-.46l.17.09A1.31,1.31,0,0,0,23.4,15.22ZM19.74,8.43c.18,0,.49,0,.49,1.07s-.44,1.86-.78,1.86S19,11.15,19,10.11A1.81,1.81,0,0,1,19.74,8.43Zm2.45,9.21A2.37,2.37,0,0,1,20.84,19c-.17,0-.22-.24-.3-.77a6.75,6.75,0,0,0-.65-1.4c-.21-.54-.14-1.9-.29-2.52s-.71-1.1-.71-1.52.34-.7,1-.49a5.73,5.73,0,0,1,2.35,2.42A4.31,4.31,0,0,1,22.19,17.64Z" transform="translate(0)" fill="#212121"/><path d="M19,16.09a8.17,8.17,0,0,0-.51-2.5c-.31-.73-.24-1.41-.38-1.55s-.54.21-.87.68a10.51,10.51,0,0,1-2.23,2V30a2.56,2.56,0,0,0,2.44-2.46,53,53,0,0,1,1-6.12c.28-1,1.15-2.69,1.15-3.2S19.08,17.12,19,16.09ZM17.38,18.2c-.07.07-.21,0-.29-.39s.05-.89.27-.77,0,.18,0,.42S17.46,18.13,17.38,18.2Z" transform="translate(0)" fill="#212121"/><path d="M15,.14c-.23,0-.24-.14-.56-.14s-.43.38-.58.38-.17-.11-.4-.11-.25.11-.56.14-.45.26-.8.36-.43,0-.63.37-.34.19-.57.35-.25.34-.55.62A3,3,0,0,0,9.46,3.4c-.17.59-.24,1,0,1.32a12.86,12.86,0,0,1,2.19,1.93A21.58,21.58,0,0,1,12.9,9l-.63-.35A9.35,9.35,0,0,1,14,10.91a26.59,26.59,0,0,1,1,3.38Z" transform="translate(0)" fill="#212121"/><path d="M10.33,10.28c-.18,0-.22-.34-.22-.44s.05-.35.19-.35.16.2.16.45S10.38,10.28,10.33,10.28Z" transform="translate(0)" fill="#212121"/><path d="M6.6,15.69l.17-.09a3,3,0,0,0,0,.46,1.31,1.31,0,0,0,.08.37l.09-.11a8.09,8.09,0,0,0,.09.9.8.8,0,0,0,.16.38l.08-.15a8.22,8.22,0,0,1,.56,1c.13.34.5.54.77.88s.42.65.73.75,1.28.94,1.54.94S11,20.5,10.69,20A4.77,4.77,0,0,1,10,18.33a9.24,9.24,0,0,1,.6-1.68,9.4,9.4,0,0,1,.15-2.09,5.32,5.32,0,0,0,.65-1.75c0-.62,0-1.26.1-1.41s.79.26,3.19,2.41a22.77,22.77,0,0,0-1.36-3.44,15.76,15.76,0,0,0-2-2.54l1,.63a7.28,7.28,0,0,0-1.24-2.09A5.87,5.87,0,0,0,9.51,5.09c-.13,0-.34.55-.54,1.56a24.46,24.46,0,0,1-.55,3.65,9.38,9.38,0,0,1-1,1.53l.18,0a6.38,6.38,0,0,1-.35.57c-.16.22-.29.37-.29.37l.17.13s-.19.69-.28.91l-.18.39.18.12a4.74,4.74,0,0,0-.27.88A1.31,1.31,0,0,0,6.6,15.69ZM11,10.11c0,1-.29,1.25-.49,1.25s-.78-.8-.78-1.86.31-1.07.49-1.07A1.81,1.81,0,0,1,11,10.11ZM7.76,14.7a5.73,5.73,0,0,1,2.35-2.42c.66-.21,1,.15,1,.49s-.55.9-.71,1.52-.08,2-.29,2.52a6.75,6.75,0,0,0-.65,1.4c-.08.53-.13.77-.3.77a2.37,2.37,0,0,1-1.35-1.34A4.31,4.31,0,0,1,7.76,14.7Z" transform="translate(0)" fill="#212121"/><path d="M10.42,18.22c0,.51.87,2.2,1.15,3.2a53,53,0,0,1,1,6.12A2.56,2.56,0,0,0,15,30V14.69a10.51,10.51,0,0,1-2.23-2c-.33-.47-.73-.82-.87-.68s-.07.82-.38,1.55a8.17,8.17,0,0,0-.51,2.5C10.92,17.12,10.42,17.71,10.42,18.22Zm2.25-.76c0-.24-.16-.34,0-.42s.36.41.27.77-.22.46-.29.39S12.67,17.69,12.67,17.46Z" transform="translate(0)" fill="#212121"/><rect width="30" height="30" fill="none"/></svg>