<!-- Copyright (c) 2022 Jan Stehno -->
<svg xmlns="http://www.w3.org/2000/svg" viewBox="0 0 300 300"><title>goldeneye</title><g id="goldeneye"><g id="right"><path d="M150,1.44c2.28,0,2.36-1.44,5.55-1.44s4.35,3.83,5.87,3.83,1.68-1.15,4-1.15,2.51,1.15,5.67,1.39,4.43,2.68,7.94,3.68,4.36.4,6.31,3.67,3.36,1.84,5.71,3.52,2.44,3.39,5.48,6.15,7.06,7,8.86,12.94,2.44,10.1,0,13.13-16.13,10.67-21.88,19.37S171,89.7,171,89.7l6.31-3.52s-12.62,12.3-17.26,22.93S150,142.89,150,142.89Z" transform="translate(0)" fill="#212121"/><path d="M196.73,102.76c1.75,0,2.15-3.32,2.15-4.36s-.52-3.47-1.84-3.47-1.67,2-1.67,4.51S196.17,102.76,196.73,102.76Z" transform="translate(0)" fill="#212121"/><path d="M234,152.16a44,44,0,0,0-2.64-8.75l1.76-1.2s-.76-1.71-1.76-3.91-2.84-9.11-2.84-9.11l1.64-1.27s-1.24-1.48-2.83-3.72-3.48-5.71-3.48-5.71l1.8-.16A95.66,95.66,0,0,1,215.81,103c-3.51-7.43-3.51-26.44-5.51-36.51s-4.15-15.57-5.43-15.57-8.7,5.43-15.81,12.78-12.38,20.92-12.38,20.92l10-6.31s-12.86,13.5-19.57,25.4-13.58,34.4-13.58,34.4c24-21.51,30.4-25.57,31.87-24.09s.64,7.9,1,14.14,3.84,11.66,6.47,17.49.64,17.09,1.52,20.84,6,12.26,6,16.9-4.63,11.14-7.35,16.37-4.35,10.54-1.76,10.54,12.22-8.34,15.34-9.34,4.59-4.07,7.31-7.51,6.43-5.39,7.71-8.79,5.63-10.1,5.63-10.1l.76,1.44a7.77,7.77,0,0,0,1.63-3.76,78.12,78.12,0,0,0,.88-9l1,1.08a14.85,14.85,0,0,0,.72-3.68,30.78,30.78,0,0,0,0-4.63l1.72,1S234.43,155.63,234,152.16ZM197.44,84.31c1.8,0,4.88.11,4.88,10.7s-4.44,18.61-7.79,18.61c-2.08,0-4.91-2.12-4.91-12.54S195.65,84.31,197.44,84.31Zm24.45,92.13c-3.84,8.86-11.83,13.34-13.5,13.34s-2.16-2.4-3-7.67-4.47-8.71-6.55-14.06-1.36-18.93-2.91-25.16-7.11-11-7.11-15.17c0-3.44,3.39-7,10-5S219.41,139,222.44,147,225.72,167.57,221.89,176.44Z" transform="translate(0)" fill="#212121"/><path d="M189.86,160.86c-1-10.38-1.92-17.57-5-24.92s-2.43-14.09-3.83-15.49-5.43,2.07-8.71,6.79S152.16,146.88,150,146.88V300c10.12,0,23-8.07,24.36-24.6s7.27-51.12,10-61.18,11.5-26.92,11.5-32S190.81,171.25,189.86,160.86Zm-16,21.13c-.72.72-2.11-.24-3-3.87s.55-9,2.71-7.67c1.28.76-.32,1.79-.32,4.11S174.56,181.27,173.84,182Z" transform="translate(0)" fill="#212121"/></g><g id="left"><path d="M150,1.44c-2.28,0-2.36-1.44-5.55-1.44s-4.35,3.83-5.87,3.83-1.68-1.15-4-1.15S132.11,3.83,129,4.07,124.52,6.75,121,7.75s-4.36.4-6.31,3.67-3.36,1.84-5.71,3.52-2.44,3.39-5.48,6.15-7.06,7-8.86,12.94-2.44,10.1,0,13.13,16.13,10.67,21.88,19.37S129,89.7,129,89.7l-6.31-3.52s12.62,12.3,17.26,22.93S150,142.89,150,142.89Z" transform="translate(0)" fill="#212121"/><path d="M103.27,102.76c-1.75,0-2.15-3.32-2.15-4.36s.52-3.47,1.84-3.47,1.67,2,1.67,4.51S103.83,102.76,103.27,102.76Z" transform="translate(0)" fill="#212121"/><path d="M66,157l1.72-1a30.78,30.78,0,0,0,0,4.63,14.85,14.85,0,0,0,.72,3.68l1-1.08a78.12,78.12,0,0,0,.88,9A7.77,7.77,0,0,0,71.92,176l.76-1.44s4.36,6.71,5.63,10.1,5,5.36,7.71,8.79,4.2,6.51,7.31,7.51,12.74,9.34,15.34,9.34,1-5.31-1.76-10.54S99.56,188,99.56,183.35s5.15-13.14,6-16.9-1.12-15,1.52-20.84,6.07-11.26,6.47-17.49-.44-12.66,1-14.14,7.9,2.58,31.87,24.09c0,0-6.87-22.49-13.58-34.4s-19.57-25.4-19.57-25.4l10,6.31S118.05,71,110.94,63.66,96.41,50.88,95.13,50.88s-3.44,5.51-5.43,15.57-2,29.08-5.51,36.51a95.66,95.66,0,0,1-9.83,15.37l1.8.16s-1.88,3.47-3.48,5.71-2.83,3.72-2.83,3.72l1.64,1.27s-1.84,6.91-2.84,9.11-1.76,3.91-1.76,3.91l1.76,1.2A44,44,0,0,0,66,152.16C65.57,155.63,66,157,66,157Zm44.37-55.87c0,10.42-2.83,12.54-4.91,12.54-3.35,0-7.79-8-7.79-18.61s3.08-10.7,4.88-10.7S110.38,90.65,110.38,101.08ZM77.56,147c3-8,16.93-22.12,23.56-24.2s10,1.52,10,5c0,4.19-5.55,8.94-7.11,15.17s-.84,19.81-2.91,25.16-5.75,8.79-6.55,14.06-1.28,7.67-3,7.67S82,185.3,78.11,176.44,74.52,155,77.56,147Z" transform="translate(0)" fill="#212121"/><path d="M104.15,182.19c0,5.11,8.79,22,11.5,32s8.63,44.65,10,61.18S139.88,300,150,300V146.88c-2.16,0-19-14.93-22.28-19.64s-7.31-8.19-8.71-6.79-.72,8.14-3.83,15.49-4.08,14.54-5,24.92S104.15,177.08,104.15,182.19Zm22.57-7.63c0-2.32-1.6-3.35-.32-4.11,2.16-1.29,3.55,4,2.71,7.67s-2.23,4.59-3,3.87S126.72,176.88,126.72,174.56Z" transform="translate(0)" fill="#212121"/></g></g><g id="frame"><rect width="300" height="300" fill="none"/></g></svg>