<!-- Copyright (c) 2023 Jan Stehno -->
<svg xmlns="http://www.w3.org/2000/svg" viewBox="0 0 300 300">
    <title>graywolf</title>
    <g id="graywolf">
        <g id="right">
            <path d="M150,258.09c3.26,0,13.43-2.08,17.53-2.53s2.3.34-2.75,4-11,4-14.78,4Z"
                transform="translate(0)" fill="#212121" />
            <path
                d="M188.2,130.1c-3.65,2.36-11.18,10.4-11.18,11.47s.31,1.4.85,1.4c1.74,0,11.46-3.54,12.58-8S191.86,127.74,188.2,130.1Z"
                transform="translate(0)" fill="#212121" />
            <path
                d="M201.24,67.38c1.85,0,18.2-6.16,18.2-6.16a9.72,9.72,0,0,0-3.37-2.33,29.83,29.83,0,0,0-4.49-.7,74.24,74.24,0,0,1,5.84-6.4,76.8,76.8,0,0,1,7.41-6.35A66.53,66.53,0,0,1,215,44.2a23.32,23.32,0,0,1-7.48-3.48,9.83,9.83,0,0,0,3.23-2,42.92,42.92,0,0,0,2.86-3.41,106.78,106.78,0,0,1-12.21,1.4,12.43,12.43,0,0,1-6.15-1.4,26.6,26.6,0,0,0-5.28,2.21,29.81,29.81,0,0,0-4.83,3.52,44.47,44.47,0,0,1,7.38-14.78c5.73-7.7,31.24-18.77,34.28-18.77s11,12.42,11,14.5-2.64,2.81-4.5,13.31-6,28.77-6,32.82-4.77,6.79-4.77,6.79,2.82,5.76,7.07,8.46,7,4.13,8.6,4.13,6.45-4.13,6.45-6.11-4.76-6.59-4.76-23.33,3.42-11,3.42-25.34-1.36-11.08-6.58-19.85S230.23,0,227.7,0s-20.51,10.1-27.3,12-13.94,14.44-18.94,19.67-5.45,7.13-5.45,9,.68-.23,6.41,5.78S199.22,67.38,201.24,67.38Z"
                transform="translate(0)" fill="#212121" />
            <path
                d="M154.49,300s3.38-10.73,8.83-14.66,10.89-11,10.89-11v7.14a68.22,68.22,0,0,1,11.07-14.94c6.8-6.75,14.44-13.32,14.44-13.32a10.47,10.47,0,0,0,.39,5.39,14,14,0,0,0,2.7,4.22s-3.31-6.74,4.38-15.28,11-6.58,16.47-13.32S230.57,222,230.57,222a37.82,37.82,0,0,0,3.25,6.68,15.12,15.12,0,0,0,5.29,5.29,16.58,16.58,0,0,1,.44-14.89c4.22-7.92,7.93-9.95,7.93-9.95a16.17,16.17,0,0,1,3.76,11.24s1.74-2.14,2.42-9.44,10.5-19.27,11.35-20.67a10.67,10.67,0,0,0,1.12-3.38,7.89,7.89,0,0,1,2.53,2.42A9.72,9.72,0,0,1,270,193a53.34,53.34,0,0,0,1.52-9.95,60.41,60.41,0,0,0,0-8.82s1.68,1,3.93,4.44a23.31,23.31,0,0,1,3,7.42V169.83c0-6.69-2.42-10.4-2.42-10.4a5.41,5.41,0,0,1,4.16-2c2.7,0,6.4,2.19,6.4,2.19a63.38,63.38,0,0,0-7.41-13.37,31.4,31.4,0,0,1-6.18-17.31,36,36,0,0,1,.62-6.57,8.69,8.69,0,0,1,4.38,1.57,13.73,13.73,0,0,1,3.87,4.56s-.61-2.87-5.11-8.94-6.4-14.32-10.9-20.84S262.7,90.05,258,83a48.88,48.88,0,0,1-6.18-12s-.84,17.47,1,24.1,15.78,24,15.78,24l-7.19-5.23s-1.23,5.29,2.25,15.73,10.28,23.77,10.28,23.77a20.13,20.13,0,0,0-6.07-2.87c-4.1-1.29-4.55-1.18-4.55-1.18a42.77,42.77,0,0,0,3,10.4c2.3,5.11-.23,22.64-.23,22.64l-3-4.16s.11,1.86-2.65,5.79-4.66,5.51-6.18,8.82a50.25,50.25,0,0,0-2.52,7.3l-1.91-6.51s-3.32,3.54-9.22,11.18a39.34,39.34,0,0,0-7.3,15.17,15.69,15.69,0,0,1-2.7-6.18c-.39-3.09-2.25-3.54-2.13-7.81s3.65-9.39,3.65-9.39a13.57,13.57,0,0,1,.62,5.34A19.86,19.86,0,0,1,231,207.8s7.13-6.51,10-12.92a33.11,33.11,0,0,0,2.87-12.58,6.27,6.27,0,0,1,3.48,2.13,11.15,11.15,0,0,1,2.36,5.12,62.57,62.57,0,0,0,4.1-12.48,71,71,0,0,0,1.07-12,38,38,0,0,1,4.44,2.92,16.55,16.55,0,0,1,4.49,5.22s.23-2.86-3.76-11.12-4.33-20.9-4.33-20.9a17.42,17.42,0,0,1,5.17,2.53,23.13,23.13,0,0,1,4.1,4.21s.17-3-3.2-8.76-6.12-15.34-8-20.68-3.51-5.39-4.94-10.11-1.44-5.9-5.48-8.68-12.3-11.46-12.3-11.46,5.52,14.15,9.14,21.36a160.15,160.15,0,0,0,8.6,14.66,9.91,9.91,0,0,1-4.43-1.68c-2.36-1.56-5.65-4.38-5.65-4.38s6.41,9.6,7.8,16.43,1.1,15.55,1.1,18.5a57.74,57.74,0,0,0,1.34,8.89l-6.27-5.94s-8.52,12-15.34,17.61-15.93,32.45-15.93,32.45v-15c0-7.24,3.88-15.67,3.88-15.67s-8.32,6.35-13.82,25.34-7.31,31-14.27,42.58-25.1,26.13-27.41,30.68-.88,6.32-3,10.11S154.49,300,154.49,300Z"
                transform="translate(0)" fill="#212121" />
            <path
                d="M239.11,131.62c0-7.75-11.16-22.86-11.16-22.86l9.53,2.78a96,96,0,0,1-8.52-7.76c-2.69-3-6.57-12.13-8.59-18.37s-3.29-7.75-5.9-7.75S192.05,67,192.05,67a36.79,36.79,0,0,1,6.24,10.2,51.18,51.18,0,0,1,2.61,10.11A98.81,98.81,0,0,0,193.06,74c-5.64-8.43-13.56-13-13.56-15.76S168,40.7,168,39.19s16.82-15.47,16.82-16.77-5.65-3-14.46-3-17.82,4-20.39,4V152.91c1.07,0,2.25,1.13,2.25,3.38s-.9,3.37-2.25,3.37v51.91c3.71,0,8.26,0,13.71,5.22s6.52,9.19,6.52,14.33-.93,8.64-6.91,5.86-4.09.42-1.14,2.31a12.62,12.62,0,0,0,5.64,2s-.29,1.37-3.27,3.12-11,2.36-14.55,2.36v5.5s2.47,1.12,8.2,1.12,7.53.57,17-6.85,13-19.92,14.52-27,1.35-12.47-4-19.46-10-16.35-10.62-22.76a31,31,0,0,0-3.46-11.2s4.13,3,4.64,6.82,1.85,8.68,7,17.95a60.67,60.67,0,0,0,10.45,14.16s15.17-33,19.56-36.66,9-8.82,9-16.85-6.63-19.27-6.63-19.27,2.93-7.48,2.93-13.15-3-12.36-3-12.36,5.5,3,8.31,10.84-.11,10.4,3.77,19.5,11.12,11.68,11.12,11.68a26.54,26.54,0,0,1-1.12-7.53C237.59,137.13,239.11,139.37,239.11,131.62Zm-75.25,8c-.94-3-4.67-8-4.67-11.46s6.48-11,6.48-11-4.34,10.87-2.23,14.54,7.8,4.42,7.8,4.42-1.39,1.69-3.42,4.13a19.13,19.13,0,0,0-3,5.27A22.62,22.62,0,0,0,163.86,139.6Zm38.33-8.88c-1.68,0-3.76-2.92-3.76-2.92a5.85,5.85,0,0,0-2.64,5.11,12.66,12.66,0,0,1-3.93,9.05,25.24,25.24,0,0,1-5.45,3.54,22.62,22.62,0,0,0,8.87-.79c4.61-1.4,7.76-3,10.06-5.17,0,0,.45,2.19-6,8s-8.54,5.73-10.22,5.73a4.45,4.45,0,0,1-3-1.58s-1,1.58-5,1.58-2.53-5.17-2.53-5.17a13.49,13.49,0,0,0-6.4.22,12.47,12.47,0,0,0-4.5,2.7s5.51-15.28,11.41-21.12,14.33-7.25,19.38-7.25,8.6,4,8.6,5.39S203.88,130.72,202.19,130.72Z"
                transform="translate(0)" fill="#212121" />
        </g>
        <g id="left">
            <path d="M150,258.09c-3.26,0-13.43-2.08-17.53-2.53s-2.3.34,2.75,4,11,4,14.78,4Z"
                transform="translate(0)" fill="#212121" />
            <path
                d="M111.8,130.1c3.65,2.36,11.18,10.4,11.18,11.47s-.31,1.4-.85,1.4c-1.74,0-11.46-3.54-12.58-8S108.14,127.74,111.8,130.1Z"
                transform="translate(0)" fill="#212121" />
            <path
                d="M98.76,67.38c-1.85,0-18.2-6.16-18.2-6.16a9.72,9.72,0,0,1,3.37-2.33,29.83,29.83,0,0,1,4.49-.7,74.24,74.24,0,0,0-5.84-6.4,76.8,76.8,0,0,0-7.41-6.35,66.53,66.53,0,0,0,9.88-1.24,23.32,23.32,0,0,0,7.48-3.48,9.83,9.83,0,0,1-3.23-2,42.92,42.92,0,0,1-2.86-3.41,106.78,106.78,0,0,0,12.21,1.4,12.43,12.43,0,0,0,6.15-1.4,26.6,26.6,0,0,1,5.28,2.21,29.81,29.81,0,0,1,4.83,3.52,44.47,44.47,0,0,0-7.38-14.78C101.8,18.58,76.29,7.51,73.25,7.51s-11,12.42-11,14.5,2.64,2.81,4.5,13.31,6,28.77,6,32.82,4.77,6.79,4.77,6.79-2.82,5.76-7.07,8.46-7,4.13-8.6,4.13-6.45-4.13-6.45-6.11,4.76-6.59,4.76-23.33-3.42-11-3.42-25.34,1.36-11.08,6.58-19.85S69.77,0,72.3,0,92.81,10.1,99.6,12s13.94,14.44,18.94,19.67,5.45,7.13,5.45,9-.68-.23-6.41,5.78S100.78,67.38,98.76,67.38Z"
                transform="translate(0)" fill="#212121" />
            <path
                d="M145.51,300s-3.38-10.73-8.83-14.66-10.89-11-10.89-11v7.14a68.22,68.22,0,0,0-11.07-14.94c-6.8-6.75-14.44-13.32-14.44-13.32a10.47,10.47,0,0,1-.39,5.39,14,14,0,0,1-2.7,4.22s3.31-6.74-4.38-15.28-11-6.58-16.47-13.32S69.43,222,69.43,222a37.82,37.82,0,0,1-3.25,6.68A15.12,15.12,0,0,1,60.89,234a16.58,16.58,0,0,0-.44-14.89c-4.22-7.92-7.93-9.95-7.93-9.95a16.17,16.17,0,0,0-3.76,11.24S47,218.25,46.34,211,35.84,191.68,35,190.28a10.67,10.67,0,0,1-1.12-3.38,7.89,7.89,0,0,0-2.53,2.42A9.72,9.72,0,0,0,30.05,193a53.34,53.34,0,0,1-1.52-9.95,60.41,60.41,0,0,1,0-8.82s-1.68,1-3.93,4.44a23.31,23.31,0,0,0-3,7.42V169.83c0-6.69,2.42-10.4,2.42-10.4a5.41,5.41,0,0,0-4.16-2c-2.7,0-6.4,2.19-6.4,2.19a63.38,63.38,0,0,1,7.41-13.37,31.4,31.4,0,0,0,6.18-17.31,36,36,0,0,0-.62-6.57,8.69,8.69,0,0,0-4.38,1.57,13.73,13.73,0,0,0-3.87,4.56s.61-2.87,5.11-8.94,6.4-14.32,10.9-20.84S37.3,90.05,42,83a48.88,48.88,0,0,0,6.18-12s.84,17.47-1,24.1-15.78,24-15.78,24l7.19-5.23s1.23,5.29-2.25,15.73-10.28,23.77-10.28,23.77a20.13,20.13,0,0,1,6.07-2.87c4.1-1.29,4.55-1.18,4.55-1.18a42.77,42.77,0,0,1-3,10.4c-2.3,5.11.23,22.64.23,22.64l3-4.16s-.11,1.86,2.65,5.79,4.66,5.51,6.18,8.82a50.25,50.25,0,0,1,2.52,7.3l1.91-6.51s3.32,3.54,9.22,11.18A39.34,39.34,0,0,1,66.68,220a15.69,15.69,0,0,0,2.7-6.18c.39-3.09,2.25-3.54,2.13-7.81s-3.65-9.39-3.65-9.39a13.57,13.57,0,0,0-.62,5.34A19.86,19.86,0,0,0,69,207.8s-7.13-6.51-10.05-12.92a33.11,33.11,0,0,1-2.87-12.58,6.27,6.27,0,0,0-3.48,2.13,11.15,11.15,0,0,0-2.36,5.12,62.57,62.57,0,0,1-4.1-12.48,71,71,0,0,1-1.07-12A38,38,0,0,0,40.61,168a16.55,16.55,0,0,0-4.49,5.22s-.23-2.86,3.76-11.12,4.33-20.9,4.33-20.9A17.42,17.42,0,0,0,39,143.76a23.13,23.13,0,0,0-4.1,4.21s-.17-3,3.2-8.76,6.12-15.34,8-20.68,3.51-5.39,4.94-10.11,1.44-5.9,5.48-8.68,12.3-11.46,12.3-11.46-5.52,14.15-9.14,21.36a160.15,160.15,0,0,1-8.6,14.66,9.91,9.91,0,0,0,4.43-1.68c2.36-1.56,5.65-4.38,5.65-4.38s-6.41,9.6-7.8,16.43-1.1,15.55-1.1,18.5a57.74,57.74,0,0,1-1.34,8.89l6.27-5.94s8.52,12,15.34,17.61,15.93,32.45,15.93,32.45v-15c0-7.24-3.88-15.67-3.88-15.67s8.32,6.35,13.82,25.34,7.31,31,14.27,42.58,25.1,26.13,27.41,30.68.88,6.32,3,10.11S145.51,300,145.51,300Z"
                transform="translate(0)" fill="#212121" />
            <path
                d="M62.41,141.28a26.54,26.54,0,0,1-1.12,7.53s7.25-2.58,11.12-11.68,1-11.69,3.77-19.5,8.31-10.84,8.31-10.84-3,6.68-3,12.36,2.93,13.15,2.93,13.15-6.63,11.23-6.63,19.27,4.6,13.23,9,16.85,19.56,36.66,19.56,36.66a60.67,60.67,0,0,0,10.45-14.16c5.14-9.27,6.49-14.16,7-17.95s4.64-6.82,4.64-6.82a31,31,0,0,0-3.46,11.2c-.67,6.41-5.22,15.76-10.62,22.76s-5.56,12.39-4,19.46,5.08,19.58,14.52,27,11.24,6.85,17,6.85,8.2-1.12,8.2-1.12v-5.5c-3.54,0-11.57-.62-14.55-2.36s-3.27-3.12-3.27-3.12a12.62,12.62,0,0,0,5.64-2c3-1.89,4.85-5.09-1.14-2.31s-6.91-.72-6.91-5.86,1.07-9.1,6.52-14.33,10-5.22,13.71-5.22V159.66c-1.35,0-2.25-1.13-2.25-3.37s1.18-3.38,2.25-3.38V23.39c-2.57,0-11.59-4-20.39-4s-14.46,1.68-14.46,3S132,37.67,132,39.19s-11.47,16.22-11.47,19S112.58,65.52,106.94,74a98.81,98.81,0,0,0-7.84,13.4,51.18,51.18,0,0,1,2.61-10.11A36.79,36.79,0,0,1,108,67S88.14,77.66,85.53,77.66s-3.88,1.52-5.9,7.75-5.9,15.34-8.59,18.37a96,96,0,0,1-8.52,7.76l9.53-2.78s-11.16,15.11-11.16,22.86S62.41,137.13,62.41,141.28Zm72.76,4.22a19.13,19.13,0,0,0-3-5.27c-2-2.44-3.42-4.13-3.42-4.13s5.69-.76,7.8-4.42-2.23-14.54-2.23-14.54,6.48,7.58,6.48,11-3.73,8.5-4.67,11.46A22.62,22.62,0,0,0,135.17,145.5ZM92.86,128.08c0-1.35,3.54-5.39,8.6-5.39s13.48,1.4,19.38,7.25,11.41,21.12,11.41,21.12a12.47,12.47,0,0,0-4.5-2.7,13.49,13.49,0,0,0-6.4-.22s1.46,5.17-2.53,5.17-5-1.58-5-1.58a4.45,4.45,0,0,1-3,1.58c-1.68,0-4,0-10.22-5.73s-6-8-6-8c2.3,2.19,5.45,3.77,10.06,5.17a22.62,22.62,0,0,0,8.87.79,25.24,25.24,0,0,1-5.45-3.54,12.66,12.66,0,0,1-3.93-9.05,5.85,5.85,0,0,0-2.64-5.11s-2.08,2.92-3.76,2.92S92.86,129.43,92.86,128.08Z"
                transform="translate(0)" fill="#212121" />
        </g>
    </g>
    <g id="frame">
        <rect width="300" height="300" fill="none" />
    </g>
</svg>