<svg xmlns="http://www.w3.org/2000/svg" viewBox="0 0 30 30"><path d="M15,25.81c.33,0,1.34-.21,1.75-.25s.23,0-.27.4a2.46,2.46,0,0,1-1.48.4Z" transform="translate(0)" fill="#212121"/><path d="M18.82,13a5,5,0,0,0-1.12,1.15c0,.1,0,.14.09.14s1.14-.36,1.26-.81S19.19,12.77,18.82,13Z" transform="translate(0)" fill="#212121"/><path d="M20.12,6.74c.19,0,1.82-.62,1.82-.62a1,1,0,0,0-.33-.23,2.73,2.73,0,0,0-.45-.07,6.36,6.36,0,0,1,.58-.64,7.37,7.37,0,0,1,.74-.64,6,6,0,0,1-1-.12,2.41,2.41,0,0,1-.74-.35.91.91,0,0,0,.32-.2c.12-.12.29-.34.29-.34a10.68,10.68,0,0,1-1.22.14,1.23,1.23,0,0,1-.62-.14,3.17,3.17,0,0,0-.53.22,2.88,2.88,0,0,0-.48.36,4.31,4.31,0,0,1,.74-1.48A9.3,9.3,0,0,1,22.67.75C23,.75,23.78,2,23.78,2.2a5.3,5.3,0,0,0-.45,1.33c-.19,1.05-.6,2.88-.6,3.28s-.48.68-.48.68a2.36,2.36,0,0,0,.71.85,2.09,2.09,0,0,0,.86.41c.16,0,.64-.41.64-.61A5.13,5.13,0,0,1,24,5.81c0-1.68.35-1.1.35-2.54s-.14-1.1-.66-2S23,0,22.77,0,20.72,1,20,1.2s-1.39,1.44-1.89,2-.55.72-.55.9.07,0,.64.58A20.57,20.57,0,0,0,20.12,6.74Z" transform="translate(0)" fill="#212121"/><path d="M15.45,30a3.57,3.57,0,0,1,.88-1.47,6.2,6.2,0,0,0,1.09-1.1v.72a7,7,0,0,1,1.11-1.5C19.21,26,20,25.32,20,25.32a1.07,1.07,0,0,0,0,.54,1.38,1.38,0,0,0,.27.42,1.43,1.43,0,0,1,.44-1.53c.77-.85,1.1-.65,1.65-1.33a3.75,3.75,0,0,0,.69-1.22,3.83,3.83,0,0,0,.32.67,1.58,1.58,0,0,0,.53.53A1.64,1.64,0,0,1,24,21.91a2.42,2.42,0,0,1,.79-1,2.28,2.28,0,0,1,.27.45,2.27,2.27,0,0,1,.1.67,1.85,1.85,0,0,0,.25-.94A6,6,0,0,1,26.5,19a1.16,1.16,0,0,0,.11-.34.83.83,0,0,1,.26.24,1,1,0,0,1,.12.37,5.35,5.35,0,0,0,.16-1,6.58,6.58,0,0,0,0-.88,1.27,1.27,0,0,1,.39.44,2.53,2.53,0,0,1,.3.74V17a2,2,0,0,0-.24-1,.52.52,0,0,1,.41-.2,1.62,1.62,0,0,1,.64.22,6.53,6.53,0,0,0-.74-1.34,3.15,3.15,0,0,1-.62-1.73,3.57,3.57,0,0,1,.06-.65.89.89,0,0,1,.44.15,1.36,1.36,0,0,1,.39.46,2.79,2.79,0,0,0-.51-.9c-.45-.6-.64-1.43-1.09-2.08S26.27,9,25.8,8.3a5,5,0,0,1-.62-1.19,12.22,12.22,0,0,0,.1,2.41,12.53,12.53,0,0,0,1.57,2.39l-.71-.52A3.17,3.17,0,0,0,26.36,13a21.42,21.42,0,0,0,1,2.37,3.35,3.35,0,0,0-1.06-.4,4.2,4.2,0,0,0,.3,1,7.1,7.1,0,0,1,0,2.26l-.3-.41a1.1,1.1,0,0,1-.26.57,5.39,5.39,0,0,0-.62.89,5.75,5.75,0,0,0-.26.73L25,19.36s-.33.36-.92,1.12A4,4,0,0,0,23.33,22a1.58,1.58,0,0,1-.27-.62c0-.31-.22-.35-.21-.78a2.16,2.16,0,0,1,.36-.94,1.48,1.48,0,0,1,.07.54,2,2,0,0,1-.18.58,4.9,4.9,0,0,0,1-1.29,3.27,3.27,0,0,0,.28-1.26.64.64,0,0,1,.35.21A1.09,1.09,0,0,1,25,19a6,6,0,0,0,.41-1.24,6.94,6.94,0,0,0,.1-1.2,3.69,3.69,0,0,1,.45.29,1.77,1.77,0,0,1,.45.53A2.8,2.8,0,0,0,26,16.21a6.1,6.1,0,0,1-.43-2.09,1.69,1.69,0,0,1,.52.26,2.19,2.19,0,0,1,.41.42,1.89,1.89,0,0,0-.32-.88,11.88,11.88,0,0,1-.8-2.07c-.19-.53-.35-.54-.5-1s-.14-.59-.54-.87a11.09,11.09,0,0,1-1.23-1.14s.55,1.41.91,2.13a16,16,0,0,0,.86,1.47.93.93,0,0,1-.44-.17,5.67,5.67,0,0,1-.57-.44,6.11,6.11,0,0,1,.78,1.65,9.55,9.55,0,0,1,.11,1.85,5.67,5.67,0,0,0,.14.89l-.63-.6a11.19,11.19,0,0,1-1.54,1.76c-.68.57-1.59,3.25-1.59,3.25v-1.5a4.46,4.46,0,0,1,.39-1.57,5,5,0,0,0-1.38,2.53,17.53,17.53,0,0,1-1.43,4.26C18,25.5,16.22,27,16,27.41s-.09.63-.3,1A5.48,5.48,0,0,0,15.45,30Z" transform="translate(0)" fill="#212121"/><path d="M23.91,13.16a6.16,6.16,0,0,0-1.11-2.28l.95.27a10,10,0,0,1-.85-.77A7,7,0,0,1,22,8.54c-.21-.62-.33-.77-.59-.77A18.26,18.26,0,0,1,19.21,6.7a3.81,3.81,0,0,1,.62,1,5.3,5.3,0,0,1,.26,1,10.38,10.38,0,0,0-.78-1.33C18.74,6.55,18,6.1,18,5.82S16.8,4.07,16.8,3.92s1.68-1.55,1.68-1.68-.56-.3-1.44-.3a11.52,11.52,0,0,0-2,.4v13c.11,0,.22.11.22.34S15.13,16,15,16v5.19a1.71,1.71,0,0,1,1.37.52A1.73,1.73,0,0,1,17,23.11c0,.52-.09.87-.69.59s-.41,0-.11.23a1.21,1.21,0,0,0,.56.2s0,.14-.32.31a4,4,0,0,1-1.46.24v.55a2.25,2.25,0,0,0,.82.11c.57,0,.75.06,1.7-.68A4.68,4.68,0,0,0,19,22,2.08,2.08,0,0,0,18.56,20a5.39,5.39,0,0,1-1.06-2.27,3,3,0,0,0-.34-1.13,1.26,1.26,0,0,1,.46.69,5,5,0,0,0,.7,1.79,5.87,5.87,0,0,0,1.05,1.42,26,26,0,0,1,1.95-3.67,2.14,2.14,0,0,0,.9-1.68,4.93,4.93,0,0,0-.66-1.93,4.53,4.53,0,0,0,.29-1.32,3.64,3.64,0,0,0-.3-1.23,2,2,0,0,1,.83,1.08c.28.78,0,1,.38,2a2.15,2.15,0,0,0,1.11,1.17,2.72,2.72,0,0,1-.11-.75C23.76,13.71,23.91,13.94,23.91,13.16Zm-7.52.8c-.1-.3-.47-.8-.47-1.15s.65-1.1.65-1.1-.44,1.09-.23,1.46a1.2,1.2,0,0,0,.78.44l-.34.41a2.07,2.07,0,0,0-.3.53A2.26,2.26,0,0,0,16.39,14Zm3.83-.89c-.17,0-.38-.29-.38-.29a.59.59,0,0,0-.26.51,1.32,1.32,0,0,1-.39.91,2.49,2.49,0,0,1-.55.35,2.31,2.31,0,0,0,.89-.08,2.4,2.4,0,0,0,1-.52s0,.22-.59.81-.86.57-1,.57a.45.45,0,0,1-.3-.16s-.1.16-.5.16-.25-.52-.25-.52a1.46,1.46,0,0,0-.65,0,1.21,1.21,0,0,0-.44.27A7.59,7.59,0,0,1,17.92,13a2.83,2.83,0,0,1,1.93-.72.9.9,0,0,1,.86.54C20.71,12.94,20.39,13.07,20.22,13.07Z" transform="translate(0)" fill="#212121"/><path d="M15,25.81c-.33,0-1.34-.21-1.75-.25s-.23,0,.27.4a2.46,2.46,0,0,0,1.48.4Z" transform="translate(0)" fill="#212121"/><path d="M11.18,13a5,5,0,0,1,1.12,1.15c0,.1,0,.14-.09.14s-1.14-.36-1.26-.81S10.81,12.77,11.18,13Z" transform="translate(0)" fill="#212121"/><path d="M9.88,6.74c-.19,0-1.82-.62-1.82-.62a1,1,0,0,1,.33-.23,2.73,2.73,0,0,1,.45-.07,6.36,6.36,0,0,0-.58-.64,7.37,7.37,0,0,0-.74-.64,6,6,0,0,0,1-.12,2.41,2.41,0,0,0,.74-.35.91.91,0,0,1-.32-.2c-.12-.12-.29-.34-.29-.34a10.68,10.68,0,0,0,1.22.14,1.23,1.23,0,0,0,.62-.14,3.17,3.17,0,0,1,.53.22,2.88,2.88,0,0,1,.48.36,4.31,4.31,0,0,0-.74-1.48A9.3,9.3,0,0,0,7.33.75C7,.75,6.22,2,6.22,2.2a5.3,5.3,0,0,1,.45,1.33c.19,1.05.6,2.88.6,3.28s.48.68.48.68A2.36,2.36,0,0,1,7,8.34a2.09,2.09,0,0,1-.86.41c-.16,0-.64-.41-.64-.61A5.13,5.13,0,0,0,6,5.81c0-1.68-.35-1.1-.35-2.54s.14-1.1.66-2S7,0,7.23,0s2,1,2.73,1.2,1.39,1.44,1.89,2,.55.72.55.9-.07,0-.64.58A20.57,20.57,0,0,1,9.88,6.74Z" transform="translate(0)" fill="#212121"/><path d="M14.55,30a3.57,3.57,0,0,0-.88-1.47,6.2,6.2,0,0,1-1.09-1.1v.72a7,7,0,0,0-1.11-1.5C10.79,26,10,25.32,10,25.32a1.07,1.07,0,0,1,0,.54,1.38,1.38,0,0,1-.27.42,1.43,1.43,0,0,0-.44-1.53c-.77-.85-1.1-.65-1.65-1.33a3.75,3.75,0,0,1-.69-1.22,3.83,3.83,0,0,1-.32.67,1.58,1.58,0,0,1-.53.53,1.64,1.64,0,0,0,0-1.49,2.42,2.42,0,0,0-.79-1,2.28,2.28,0,0,0-.27.45,2.27,2.27,0,0,0-.1.67,1.85,1.85,0,0,1-.25-.94A6,6,0,0,0,3.5,19a1.16,1.16,0,0,1-.11-.34.83.83,0,0,0-.26.24A1,1,0,0,0,3,19.3a5.35,5.35,0,0,1-.16-1,6.58,6.58,0,0,1,0-.88,1.27,1.27,0,0,0-.39.44,2.53,2.53,0,0,0-.3.74V17a2,2,0,0,1,.24-1,.52.52,0,0,0-.41-.2,1.62,1.62,0,0,0-.64.22,6.53,6.53,0,0,1,.74-1.34,3.15,3.15,0,0,0,.62-1.73,3.57,3.57,0,0,0-.06-.65.89.89,0,0,0-.44.15,1.36,1.36,0,0,0-.39.46,2.79,2.79,0,0,1,.51-.9c.45-.6.64-1.43,1.09-2.08S3.73,9,4.2,8.3a5,5,0,0,0,.62-1.19,12.22,12.22,0,0,1-.1,2.41,12.53,12.53,0,0,1-1.57,2.39l.71-.52A3.17,3.17,0,0,1,3.64,13a21.42,21.42,0,0,1-1,2.37,1.9,1.9,0,0,1,.61-.28,1.9,1.9,0,0,1,.45-.12,4.2,4.2,0,0,1-.3,1,7.1,7.1,0,0,0,0,2.26l.3-.41A1.1,1.1,0,0,0,4,18.4a5.39,5.39,0,0,1,.62.89,5.75,5.75,0,0,1,.26.73L5,19.36s.33.36.92,1.12A4,4,0,0,1,6.67,22a1.58,1.58,0,0,0,.27-.62c0-.31.22-.35.21-.78a2.16,2.16,0,0,0-.36-.94,1.48,1.48,0,0,0-.07.54,2,2,0,0,0,.18.58,4.9,4.9,0,0,1-1-1.29,3.27,3.27,0,0,1-.28-1.26.64.64,0,0,0-.35.21A1.09,1.09,0,0,0,5,19a6,6,0,0,1-.41-1.24,6.94,6.94,0,0,1-.1-1.2,3.69,3.69,0,0,0-.45.29,1.77,1.77,0,0,0-.45.53A2.8,2.8,0,0,1,4,16.21a6.1,6.1,0,0,0,.43-2.09,1.69,1.69,0,0,0-.52.26,2.19,2.19,0,0,0-.41.42,1.89,1.89,0,0,1,.32-.88,11.88,11.88,0,0,0,.8-2.07c.19-.53.35-.54.5-1s.14-.59.54-.87A11.09,11.09,0,0,0,6.88,8.83S6.33,10.24,6,11a16,16,0,0,1-.86,1.47.93.93,0,0,0,.44-.17,5.67,5.67,0,0,0,.57-.44,6.11,6.11,0,0,0-.78,1.65,9.55,9.55,0,0,0-.11,1.85,5.67,5.67,0,0,1-.14.89l.63-.6a11.19,11.19,0,0,0,1.54,1.76c.68.57,1.59,3.25,1.59,3.25v-1.5a4.46,4.46,0,0,0-.39-1.57,5,5,0,0,1,1.38,2.53,17.53,17.53,0,0,0,1.43,4.26C12,25.5,13.78,27,14,27.41s.09.63.3,1A5.48,5.48,0,0,1,14.55,30Z" transform="translate(0)" fill="#212121"/><path d="M6.24,14.13a2.72,2.72,0,0,1-.11.75,2.15,2.15,0,0,0,1.11-1.17c.39-.91.1-1.17.38-2a2,2,0,0,1,.83-1.08,3.64,3.64,0,0,0-.3,1.23,4.53,4.53,0,0,0,.29,1.32,4.93,4.93,0,0,0-.66,1.93,2.14,2.14,0,0,0,.9,1.68,26,26,0,0,1,2,3.67,5.87,5.87,0,0,0,1-1.42,5,5,0,0,0,.7-1.79,1.26,1.26,0,0,1,.46-.69,3,3,0,0,0-.34,1.13A5.39,5.39,0,0,1,11.44,20,2.08,2.08,0,0,0,11,22a4.68,4.68,0,0,0,1.45,2.7c.95.74,1.13.68,1.7.68a2.25,2.25,0,0,0,.82-.11v-.55a4,4,0,0,1-1.46-.24c-.29-.17-.32-.31-.32-.31a1.21,1.21,0,0,0,.56-.2c.3-.19.49-.51-.11-.23s-.69-.07-.69-.59a1.73,1.73,0,0,1,.65-1.43A1.71,1.71,0,0,1,15,21.16V16c-.13,0-.22-.12-.22-.34s.11-.34.22-.34V2.34a11.52,11.52,0,0,0-2-.4c-.88,0-1.44.17-1.44.3S13.2,3.77,13.2,3.92s-1.15,1.62-1.15,1.9-.79.73-1.36,1.58a10.38,10.38,0,0,0-.78,1.33,5.3,5.3,0,0,1,.26-1,3.81,3.81,0,0,1,.62-1A18.26,18.26,0,0,1,8.55,7.77c-.26,0-.38.15-.59.77a7,7,0,0,1-.86,1.84,10,10,0,0,1-.85.77l1-.27a6.16,6.16,0,0,0-1.11,2.28C6.09,13.94,6.24,13.71,6.24,14.13Zm7.28.42a2.07,2.07,0,0,0-.3-.53l-.34-.41a1.2,1.2,0,0,0,.78-.44c.21-.37-.23-1.46-.23-1.46s.65.76.65,1.1-.37.85-.47,1.15A2.26,2.26,0,0,0,13.52,14.55ZM9.29,12.81a.9.9,0,0,1,.86-.54,2.83,2.83,0,0,1,1.93.72,7.59,7.59,0,0,1,1.14,2.12,1.21,1.21,0,0,0-.44-.27,1.46,1.46,0,0,0-.65,0s.15.52-.25.52-.5-.16-.5-.16a.45.45,0,0,1-.3.16c-.16,0-.39,0-1-.57S9.47,14,9.47,14a2.4,2.4,0,0,0,1,.52,2.31,2.31,0,0,0,.89.08,2.49,2.49,0,0,1-.55-.35,1.32,1.32,0,0,1-.39-.91.59.59,0,0,0-.26-.51s-.21.29-.38.29S9.29,12.94,9.29,12.81Z" transform="translate(0)" fill="#212121"/><rect width="30" height="30" fill="none"/></svg>