<!-- Copyright (c) 2023 Jan Stehno -->
<svg xmlns="http://www.w3.org/2000/svg" viewBox="0 0 300 300">
    <title>grayfox</title>
    <g id="grayfox">
        <g id="right">
            <path
                d="M150,234.91c5.94,0,12.89,5.86,12.89,13.68v9s11-2.09,16.25-10.36,2.69-15.29,4.9-17.5,2.25-10,2.25-10l2.57,4s.32-11.24,1.68-15.74a14.88,14.88,0,0,1,5.22-7.14,22,22,0,0,0-2.33,7.06,35.43,35.43,0,0,0-.16,9.39,27.43,27.43,0,0,1,2.49-6.78c1.53-2.45,5.34-4,5.34-4l-.4,4.25s9.3-5.73,13.9-10.65,12.1-22.21,12.1-25.21-13.81-10.81-16.86-10.81-4.07,7.17-10.17,10.81-13.44,2.68-14.72,4-1.66,5.94-1.66,5.94a24.15,24.15,0,0,1-2.35-3.42,14.57,14.57,0,0,1-1.5-3.64l-3.54,2.35a45.44,45.44,0,0,0,3.59-9.58c1.34-5.4,2.3-9.12.9-10.53s-9.38-2.35-11.08-.64-6.46,11.28-6.46,22.36,7.78,37.73,7.78,37.73-8-19.59-9.95-30.91,1-21.75,2.33-24.72,2.89-4.1,2.89-6.11-8.35-6.82-15.9-6.82Z"
                transform="translate(0 0)" fill="#212121" />
            <path
                d="M196.6,158.72c-3.18,0-6,2-5.75,2a4.5,4.5,0,0,1,4.5,3.64c.56,2.46-.56,4.8-2.49,5.23s-4-1.19-4.5-3.64c-.48-2.12.61-4.3,0-3.94-6,3.53-6.32,6.5-6.32,9.91s-.64,4.42,4.34,4.42,15.33-4,15.33-11S198.89,158.72,196.6,158.72Z"
                transform="translate(0 0)" fill="#212121" />
            <path
                d="M155.71,271.74c0,3.54,2,2.77,4.34.44a20.24,20.24,0,0,0,3.25-5,1.21,1.21,0,0,0-1.53-1.65C159.21,266.54,155.71,268.54,155.71,271.74Z"
                transform="translate(0 0)" fill="#212121" />
            <path d="M150,279.91c6,0,13.89-1.17,17-2.65s4.94-2.09.64,2.16-10.72,9-17.62,9Z"
                transform="translate(0 0)" fill="#212121" />
            <path
                d="M186.07,299.35l2.3-6.5a1,1,0,0,1,1.44-.5l3.86,2.41a1,1,0,0,0,1.49-.71l1.29-9.76a1,1,0,0,1,1-.85h5a1,1,0,0,0,1-1.12l-1.68-12.14a1,1,0,0,1,1.09-1.11l7.5,1a1,1,0,0,0,1.11-1V257.6a1,1,0,0,1,.4-.79l8.53-6.28a1,1,0,0,0,.22-1.36l-1.93-2.69a1,1,0,0,1,.67-1.54l4.72-.6a1,1,0,0,0,.82-.69l5-16.57a1,1,0,0,1,.5-.59l4.69-2.38a1,1,0,0,0,.53-1L234.33,215a1,1,0,0,1,.53-1l4.19-2.07a1,1,0,0,0,.55-.87v-10.2a1,1,0,0,1,.52-.87L252,193.87a1,1,0,0,0,.18-1.62l-11.71-9.92a1,1,0,0,0-1.48.27l-9.11,16.34a1,1,0,0,1-.29.33l-11.5,8a1,1,0,0,0-.37,1.11l4.2,12.52a1,1,0,0,1-.11.83l-15.18,23.95a1,1,0,0,1-.38.35l-12.27,6.13a1,1,0,0,0-.53.81l-.9,13.49a1,1,0,0,1-.33.67l-14.45,12.69a1,1,0,0,0-.27,1.08l6.78,18.42A1,1,0,0,0,186.07,299.35Z"
                transform="translate(0 0)" fill="#212121" />
            <path
                d="M260.42,161.11c0-2.73-6.53-4.23-6.53-6.37s5.94-5,5.94-6.42-9.64-5.94-9.64-7.92,4.77-4.55,4.77-6.74S246,130,246,127.77s2.19-3.91,2.19-5.89-11.88-1.87-11.88-3.58,5-4.13,5-6.21-3.4-3.83-3.4-6.16,6.34-5.94,13.25-20.71,13.16-28.9,13.16-46S262.82,9.65,257.15,4,238.53-1.92,222.68,7.4s-23.39,17.37-27.4,23.15a85.13,85.13,0,0,0-7.23,13.56l-1-7.86a75.12,75.12,0,0,0-3.53,7.38,45,45,0,0,0-2.33,7.87s-.8-10.2.4-15.58,9.31-12,9.31-13.4S172.56,11.44,150,11.44v101.4l5.62-12v24.09l7.71-7.71L159,134.11l7.79-5.3s-3.53,10.36-3.53,16.54,2.24,10.52,6.42,10.52S173.44,153,177,153s4.25,3.53,4.25,3.53a29.9,29.9,0,0,1,7.12-7.47c4.6-3.37,11.91-3,11.91-3s-6.21,1.69-8.41,4.82a11.26,11.26,0,0,0-2.27,5.46s1.93-1.69,8-1.69S204.43,160,212,160s25.42,11.62,28.18,15,20.26,4.14,20.26,1.52-6.59-6.8-6.59-9.2S260.42,163.84,260.42,161.11Zm-28.87-81-7.47-3.7a.9.9,0,0,0-1.21,1.22l6.42,12.45a.9.9,0,0,1-1.18,1.24,130.9,130.9,0,0,1-14.31-7.78C207,79,203.41,65.84,203.41,59.85s6.53-18.2,14.56-31.47S241.52,8.25,247.84,8.25s6.42,6.85,6.42,21.31a113.67,113.67,0,0,1-2.08,22.55.91.91,0,0,1-1.34.6l-5.68-3.26a.9.9,0,0,0-1.31,1.06l3,9.12a.91.91,0,0,1-1.47.95L233,49.45a.9.9,0,0,0-1.45,1l6.23,17.06a.9.9,0,0,1-1.45,1l-9.66-8.65a.9.9,0,0,0-1.43,1l7.5,18.09A.9.9,0,0,1,231.55,80.08Z"
                transform="translate(0 0)" fill="#212121" />
        </g>
        <g id="left">
            <path
                d="M150,234.91c-5.94,0-12.89,5.86-12.89,13.68v9s-11-2.09-16.25-10.36-2.69-15.29-4.9-17.5-2.25-10-2.25-10l-2.57,4s-.32-11.24-1.68-15.74a14.88,14.88,0,0,0-5.22-7.14,22,22,0,0,1,2.33,7.06,35.43,35.43,0,0,1,.16,9.39,27.43,27.43,0,0,0-2.49-6.78c-1.53-2.45-5.34-4-5.34-4l.4,4.25s-9.3-5.73-13.9-10.65-12.1-22.21-12.1-25.21,13.81-10.81,16.86-10.81,4.07,7.17,10.17,10.81,13.44,2.68,14.72,4,1.66,5.94,1.66,5.94a24.15,24.15,0,0,0,2.35-3.42,14.57,14.57,0,0,0,1.5-3.64l3.54,2.35a45.44,45.44,0,0,1-3.59-9.58c-1.34-5.4-2.3-9.12-.9-10.53s9.38-2.35,11.08-.64,6.46,11.28,6.46,22.36-7.78,37.73-7.78,37.73,8-19.59,9.95-30.91-1-21.75-2.33-24.72-2.89-4.1-2.89-6.11,8.35-6.82,15.9-6.82Z"
                transform="translate(0 0)" fill="#212121" />
            <path
                d="M103.4,158.72c3.18,0,6,2,5.75,2a4.5,4.5,0,0,0-4.5,3.64c-.56,2.46.56,4.8,2.49,5.23s4-1.19,4.5-3.64c.48-2.12-.61-4.3,0-3.94,6,3.53,6.32,6.5,6.32,9.91s.64,4.42-4.34,4.42-15.33-4-15.33-11S101.11,158.72,103.4,158.72Z"
                transform="translate(0 0)" fill="#212121" />
            <path
                d="M144.29,271.74c0,3.54-2,2.77-4.34.44a20.24,20.24,0,0,1-3.25-5,1.21,1.21,0,0,1,1.53-1.65C140.79,266.54,144.29,268.54,144.29,271.74Z"
                transform="translate(0 0)" fill="#212121" />
            <path d="M150,279.91c-6,0-13.89-1.17-17-2.65s-4.94-2.09-.64,2.16,10.72,9,17.62,9Z"
                transform="translate(0 0)" fill="#212121" />
            <path
                d="M113.93,299.35l-2.3-6.5a1,1,0,0,0-1.44-.5l-3.86,2.41a1,1,0,0,1-1.49-.71l-1.29-9.76a1,1,0,0,0-1-.85h-5a1,1,0,0,1-1-1.12l1.68-12.14a1,1,0,0,0-1.09-1.11l-7.5,1a1,1,0,0,1-1.11-1V257.6a1,1,0,0,0-.4-.79l-8.53-6.28a1,1,0,0,1-.22-1.36l1.93-2.69a1,1,0,0,0-.67-1.54l-4.72-.6a1,1,0,0,1-.82-.69l-5-16.57a1,1,0,0,0-.5-.59L65,224.11a1,1,0,0,1-.53-1L65.67,215a1,1,0,0,0-.53-1L61,211.93a1,1,0,0,1-.55-.87v-10.2a1,1,0,0,0-.52-.87l-11.83-6.12a1,1,0,0,1-.18-1.62l11.71-9.92a1,1,0,0,1,1.48.27l9.11,16.34a1,1,0,0,0,.29.33l11.5,8a1,1,0,0,1,.37,1.11l-4.2,12.52a1,1,0,0,0,.11.83l15.18,23.95a1,1,0,0,0,.38.35l12.27,6.13a1,1,0,0,1,.53.81l.9,13.49a1,1,0,0,0,.33.67l14.45,12.69a1,1,0,0,1,.27,1.08l-6.78,18.42A1,1,0,0,1,113.93,299.35Z"
                transform="translate(0 0)" fill="#212121" />
            <path
                d="M46.17,167.38c0,2.4-6.59,6.58-6.59,9.2s17.51,1.87,20.26-1.52S80.47,160,88,160s8.27-5.38,14.37-5.38,8,1.69,8,1.69a11.26,11.26,0,0,0-2.27-5.46c-2.2-3.13-8.41-4.82-8.41-4.82s7.31-.4,11.91,3a29.9,29.9,0,0,1,7.12,7.47S119.49,153,123,153s3.14,2.89,7.31,2.89,6.42-4.34,6.42-10.52-3.53-16.54-3.53-16.54l7.79,5.3-4.34-16.94,7.71,7.71V100.79l5.62,12V11.44c-22.56,0-40.94,9.63-40.94,11.08s8.1,8,9.31,13.4.4,15.58.4,15.58a45,45,0,0,0-2.33-7.87,75.12,75.12,0,0,0-3.53-7.38l-1,7.86a85.13,85.13,0,0,0-7.23-13.56c-4-5.78-11.56-13.84-27.4-23.15S48.52-1.7,42.85,4s-7.17,18.09-7.17,35.22,6.26,31.26,13.16,46,13.25,18.38,13.25,20.71-3.4,4.07-3.4,6.16,5,4.49,5,6.21-11.88,1.6-11.88,3.58S54,125.57,54,127.77,45,131.46,45,133.66s4.77,4.76,4.77,6.74-9.64,6.53-9.64,7.92,5.94,4.28,5.94,6.42-6.53,3.64-6.53,6.37S46.17,165,46.17,167.38Zm21-88.45,7.5-18.09a.9.9,0,0,0-1.43-1l-9.66,8.65a.9.9,0,0,1-1.45-1l6.23-17.06a.9.9,0,0,0-1.45-1L54.67,60.58a.91.91,0,0,1-1.47-.95l2.95-9.12a.9.9,0,0,0-1.31-1.06l-5.68,3.26a.91.91,0,0,1-1.34-.6,113.67,113.67,0,0,1-2.08-22.55c0-14.46.11-21.31,6.42-21.31S74,15.1,82,28.38,96.59,53.85,96.59,59.85,93.05,79,86.2,83.51a130.9,130.9,0,0,1-14.31,7.78.9.9,0,0,1-1.18-1.24L77.13,77.6a.9.9,0,0,0-1.21-1.22l-7.47,3.7A.9.9,0,0,1,67.22,78.93Z"
                transform="translate(0 0)" fill="#212121" />
        </g>
    </g>
    <g id="frame">
        <rect width="300" height="300" fill="none" />
    </g>
</svg>