<svg xmlns="http://www.w3.org/2000/svg" viewBox="0 0 30 30"><path d="M15,23.49a1.4,1.4,0,0,1,1.29,1.37v.9a2.7,2.7,0,0,0,1.62-1c.53-.82.27-1.53.49-1.75s.23-1,.23-1l.26.4a9.46,9.46,0,0,1,.16-1.57,1.53,1.53,0,0,1,.53-.72,2.08,2.08,0,0,0-.24.71,3.41,3.41,0,0,0,0,.94,2.39,2.39,0,0,1,.25-.68,1.35,1.35,0,0,1,.53-.4l0,.43A8.17,8.17,0,0,0,21.46,20a7.82,7.82,0,0,0,1.21-2.52c0-.3-1.38-1.08-1.69-1.08s-.4.72-1,1.08-1.35.27-1.48.4a1.48,1.48,0,0,0-.16.59,2.76,2.76,0,0,1-.24-.34,1.67,1.67,0,0,1-.15-.36l-.35.23a4.34,4.34,0,0,0,.36-1c.13-.54.23-.91.09-1.05a1.38,1.38,0,0,0-1.11-.06,4,4,0,0,0-.65,2.23A21.19,21.19,0,0,0,17.06,22a19.85,19.85,0,0,1-1-3.1,5,5,0,0,1,.23-2.47c.13-.3.29-.41.29-.61s-.84-.68-1.59-.68Z" transform="translate(0)" fill="#212121"/><path d="M19.66,15.87a.88.88,0,0,0-.57.21.46.46,0,0,1,.45.36.42.42,0,0,1-.25.52.4.4,0,0,1-.45-.36c-.05-.21.06-.43,0-.4-.6.36-.63.66-.63,1s-.06.44.44.44,1.53-.4,1.53-1.1S19.89,15.87,19.66,15.87Z" transform="translate(0)" fill="#212121"/><path d="M15.57,27.17c0,.36.2.28.43,0a2.06,2.06,0,0,0,.33-.5.12.12,0,0,0-.15-.17C15.92,26.65,15.57,26.85,15.57,27.17Z" transform="translate(0)" fill="#212121"/><path d="M15,28a5.37,5.37,0,0,0,1.7-.26c.31-.15.49-.21.06.21a2.69,2.69,0,0,1-1.76.9Z" transform="translate(0)" fill="#212121"/><path d="M18.61,29.93l.23-.64a.09.09,0,0,1,.14-.05l.39.24a.1.1,0,0,0,.15-.07l.13-1a.09.09,0,0,1,.09-.09h.5a.1.1,0,0,0,.1-.11L20.17,27a.1.1,0,0,1,.11-.11L21,27a.09.09,0,0,0,.11-.09V25.76a.12.12,0,0,1,0-.08l.86-.63a.09.09,0,0,0,0-.13l-.2-.27a.11.11,0,0,1,.07-.16l.47-.06a.09.09,0,0,0,.08-.06l.5-1.66a.1.1,0,0,1,.05-.06l.47-.24a.11.11,0,0,0,.06-.1l-.13-.81a.11.11,0,0,1,.06-.1l.41-.21a.08.08,0,0,0,.06-.08v-1A.11.11,0,0,1,24,20l1.18-.61a.09.09,0,0,0,0-.16l-1.17-1a.1.1,0,0,0-.15,0L23,19.89s0,0,0,0l-1.15.8a.09.09,0,0,0,0,.11l.42,1.25a.14.14,0,0,1,0,.09l-1.52,2.39a.08.08,0,0,1,0,0l-1.23.61a.1.1,0,0,0-.05.08l-.09,1.35a.09.09,0,0,1,0,.07L17.77,28a.1.1,0,0,0,0,.1l.68,1.85A.1.1,0,0,0,18.61,29.93Z" transform="translate(0)" fill="#212121"/><path d="M26,16.11c0-.27-.65-.42-.65-.64s.59-.5.59-.64-1-.59-1-.79.48-.45.48-.67-.9-.37-.9-.59.22-.39.22-.59-1.19-.19-1.19-.36.5-.41.5-.62-.34-.38-.34-.62a17.23,17.23,0,0,0,1.33-2.07,10.63,10.63,0,0,0,1.31-4.6c0-1.71-.15-3-.71-3.52s-1.87-.59-3.45.34a8.31,8.31,0,0,0-2.74,2.31,8.51,8.51,0,0,0-.72,1.36l-.1-.79s-.19.35-.35.74a5.24,5.24,0,0,0-.24.79,7.15,7.15,0,0,1,0-1.56c.12-.54.93-1.19.93-1.34A7.23,7.23,0,0,0,15,1.14V11.28l.56-1.2v2.41l.77-.77-.43,1.69.78-.53a6.82,6.82,0,0,0-.36,1.66c0,.61.23,1.05.65,1.05s.37-.29.73-.29a.44.44,0,0,1,.42.35,3,3,0,0,1,.71-.75,2.21,2.21,0,0,1,1.2-.29,1.8,1.8,0,0,0-.84.48,1.12,1.12,0,0,0-.23.54,1.34,1.34,0,0,1,.8-.16c.61,0,.68.53,1.44.53A6.61,6.61,0,0,1,24,17.51c.27.34,2,.41,2,.15s-.66-.68-.66-.92S26,16.38,26,16.11ZM23.16,8l-.75-.37a.09.09,0,0,0-.12.12L22.93,9a.09.09,0,0,1-.12.12,14.66,14.66,0,0,1-1.43-.78,3.35,3.35,0,0,1-1-2.37A9.09,9.09,0,0,1,21.8,2.84a4.33,4.33,0,0,1,3-2c.64,0,.65.68.65,2.13a11.34,11.34,0,0,1-.21,2.25.09.09,0,0,1-.14.06L24.52,5a.09.09,0,0,0-.14.1l.3.91a.09.09,0,0,1-.15.1L23.3,5a.08.08,0,0,0-.14.09l.62,1.71a.09.09,0,0,1-.14.1l-1-.87a.09.09,0,0,0-.14.1l.75,1.81C23.31,8,23.23,8.05,23.16,8Z" transform="translate(0)" fill="#212121"/><path d="M15,23.49a1.4,1.4,0,0,0-1.29,1.37v.9a2.7,2.7,0,0,1-1.62-1c-.53-.82-.27-1.53-.49-1.75s-.23-1-.23-1l-.26.4A9.46,9.46,0,0,0,11,20.8a1.53,1.53,0,0,0-.53-.72,2.08,2.08,0,0,1,.24.71,3.41,3.41,0,0,1,0,.94,2.39,2.39,0,0,0-.25-.68,1.35,1.35,0,0,0-.53-.4l0,.43A8.17,8.17,0,0,1,8.54,20a7.82,7.82,0,0,1-1.21-2.52c0-.3,1.38-1.08,1.69-1.08s.4.72,1,1.08,1.35.27,1.48.4a1.48,1.48,0,0,1,.16.59,2.76,2.76,0,0,0,.24-.34,1.67,1.67,0,0,0,.15-.36l.35.23a4.34,4.34,0,0,1-.36-1c-.13-.54-.23-.91-.09-1.05a1.38,1.38,0,0,1,1.11-.06,4,4,0,0,1,.65,2.23A21.19,21.19,0,0,1,12.94,22a19.85,19.85,0,0,0,1-3.1,5,5,0,0,0-.23-2.47c-.13-.3-.29-.41-.29-.61s.84-.68,1.59-.68Z" transform="translate(0)" fill="#212121"/><path d="M10.34,15.87a.88.88,0,0,1,.57.21.46.46,0,0,0-.45.36.42.42,0,0,0,.25.52.4.4,0,0,0,.45-.36c.05-.21-.06-.43,0-.4.6.36.63.66.63,1s.06.44-.44.44-1.53-.4-1.53-1.1S10.11,15.87,10.34,15.87Z" transform="translate(0)" fill="#212121"/><path d="M14.43,27.17c0,.36-.2.28-.43,0a2.06,2.06,0,0,1-.33-.5.12.12,0,0,1,.15-.17C14.08,26.65,14.43,26.85,14.43,27.17Z" transform="translate(0)" fill="#212121"/><path d="M15,28a5.37,5.37,0,0,1-1.7-.26c-.31-.15-.49-.21-.06.21a2.69,2.69,0,0,0,1.76.9Z" transform="translate(0)" fill="#212121"/><path d="M11.39,29.93l-.23-.64a.09.09,0,0,0-.14-.05l-.39.24a.1.1,0,0,1-.15-.07l-.13-1a.09.09,0,0,0-.09-.09h-.5a.1.1,0,0,1-.1-.11L9.83,27a.1.1,0,0,0-.11-.11L9,27a.09.09,0,0,1-.11-.09V25.76a.12.12,0,0,0,0-.08L8,25.05a.09.09,0,0,1,0-.13l.2-.27a.11.11,0,0,0-.07-.16l-.47-.06a.09.09,0,0,1-.08-.06L7,22.71a.1.1,0,0,0,0-.06l-.47-.24a.11.11,0,0,1-.06-.1l.13-.81a.11.11,0,0,0-.06-.1l-.41-.21A.08.08,0,0,1,6,21.11v-1A.11.11,0,0,0,6,20l-1.18-.61a.09.09,0,0,1,0-.16l1.17-1a.1.1,0,0,1,.15,0L7,19.89s0,0,0,0l1.15.8a.09.09,0,0,1,0,.11l-.42,1.25a.14.14,0,0,0,0,.09l1.52,2.39a.08.08,0,0,0,0,0l1.23.61a.1.1,0,0,1,.05.08l.09,1.35a.09.09,0,0,0,0,.07L12.23,28a.1.1,0,0,1,0,.1l-.68,1.85A.1.1,0,0,1,11.39,29.93Z" transform="translate(0)" fill="#212121"/><path d="M4.62,16.74c0,.24-.66.66-.66.92s1.75.19,2-.15A6.61,6.61,0,0,1,8.8,16c.76,0,.83-.53,1.44-.53a1.34,1.34,0,0,1,.8.16,1.12,1.12,0,0,0-.23-.54,1.8,1.8,0,0,0-.84-.48,2.21,2.21,0,0,1,1.2.29,3,3,0,0,1,.71.75.44.44,0,0,1,.42-.35c.36,0,.32.29.73.29s.65-.44.65-1.05a6.82,6.82,0,0,0-.36-1.66l.78.53-.43-1.69.77.77V10.08l.56,1.2V1.14a7.23,7.23,0,0,0-4.09,1.11c0,.15.81.8.93,1.34a7.15,7.15,0,0,1,0,1.56,5.24,5.24,0,0,0-.24-.79c-.16-.39-.35-.74-.35-.74l-.1.79a8.51,8.51,0,0,0-.72-1.36A8.31,8.31,0,0,0,7.73.74C6.15-.19,4.85-.17,4.28.4s-.71,1.81-.71,3.52a10.63,10.63,0,0,0,1.31,4.6,17.23,17.23,0,0,0,1.33,2.07c0,.24-.34.41-.34.62s.5.45.5.62-1.19.16-1.19.36.22.37.22.59-.9.37-.9.59S5,13.84,5,14s-1,.65-1,.79.59.43.59.64-.65.37-.65.64S4.62,16.5,4.62,16.74Zm2.1-8.85.75-1.81A.09.09,0,0,0,7.33,6l-1,.87a.09.09,0,0,1-.14-.1L6.84,5A.08.08,0,0,0,6.7,5L5.47,6.06A.09.09,0,0,1,5.32,6l.3-.91A.09.09,0,0,0,5.48,5l-.56.32a.09.09,0,0,1-.14-.06A11.34,11.34,0,0,1,4.57,3c0-1.45,0-2.13.65-2.13a4.33,4.33,0,0,1,3,2A9.09,9.09,0,0,1,9.66,6a3.35,3.35,0,0,1-1,2.37,14.66,14.66,0,0,1-1.43.78A.09.09,0,0,1,7.07,9l.64-1.25a.09.09,0,0,0-.12-.12L6.84,8C6.77,8.05,6.69,8,6.72,7.89Z" transform="translate(0)" fill="#212121"/><rect width="30" height="30" fill="none"/></svg>