<!-- Copyright (c) 2022 - 2023 Jan Stehno -->
<svg xmlns="http://www.w3.org/2000/svg" viewBox="0 0 300 300"><title>gredosibex</title><g id="gredosibex"><g id="right"><path d="M189.46,214a57,57,0,0,0-5.74,1.68,6.13,6.13,0,0,1,2.54-3c1.71-.83,4.88-1.46,6.51-3.09s.88-12,.88-12a15.66,15.66,0,0,1-4,5.69,42.61,42.61,0,0,0-10.93,13.13c-3,6.13-2.42,8.23-3.36,13.14a21.73,21.73,0,0,1-3.37,8.17,63,63,0,0,0,1.82-14.52,59.5,59.5,0,0,0-1.71-14,5.55,5.55,0,0,1,2.15,2.87,30.65,30.65,0,0,1,.83,4.69,81.74,81.74,0,0,1,4.31-9.32c2.37-4.25,5.57-5.41,9.27-8.12s3.81-6.89,3.81-11.25-.94-4.31-15.79-10.44-21.31-5.16-26.71-5.16v100.2c1.77,0,3-1.43,4.3-2.76s3-1.68,4.81-3.53,2.81-8.67,2.81-8.67a36.25,36.25,0,0,0,.94,4.92c.44,1.1,1.5,1.83,1.5,3.24s-.51,2.92-4.38,6.79-6.83,4.92-10,4.92v11.18c1.76,1.76,8.94.58,14.65-3.81s7.12-11,7.12-18.38,3.64-19.53,6.13-22.35,7.17-10.51,7.17-13.24-2.34-2.21-4-3.9-1.65-5.9-1.65-5.9A10.11,10.11,0,0,0,181.9,225c2,2,7,2.34,9.3.05s1.71-10.87,1.43-11.34S191.39,213.63,189.46,214Zm-.85,10.23c-2.35,1-5.72-1.26-5.72-1.26s3.4.63,5.44-.67a8.59,8.59,0,0,0,3-3.58S191,223.26,188.61,224.22Z" transform="translate(0)" fill="#212121"/><path d="M150,291.5c3.09,0,2.7.39,5.3.39s8.77-4.14,10.32-4.14.94,4.58-4.42,7.67S154.53,300,150,300Z" transform="translate(0)" fill="#212121"/><path d="M196.58,209.82c1.19,1.19,6-5,15.51-5s13.35.06,13.35-1.32-2.26-1.55-2.26-3.09,15.79-2,13.69.33-6.07,6.18-9.94,7.89-8.55,8.94-15.28,8.94S199.51,216,199,216.5s3.09,5,10.87,5,14-6,17.16-9.11,8.17-3.58,12.31-7.72,5.47-5.91,2-7.4-18-6.95-25.16-6.95-16.59.47-17.61,1.49.5,10-.49,12.86S195.92,209.16,196.58,209.82Z" transform="translate(0)" fill="#212121"/><path d="M174.75,168.48a114,114,0,0,1,10.93,5.14c4.39,2.48,11.76,6.45,11.76,6.45s.16-5.29,2.64-9.1a26.64,26.64,0,0,0,3.81-8.12,11,11,0,0,0,.5-4.3,25.22,25.22,0,0,1-8.36-5.8c-4.39-4.38-14-14-14-14s-3.23,9.69-4.56,15.24S174.75,168.48,174.75,168.48Z" transform="translate(0)" fill="#212121"/><path d="M172.85,167.9a96.24,96.24,0,0,1,2.65-16.3c2.15-8.2,4.22-15.4,4.22-15.4s-4.88.41-7.29,2.48-5.79,2.48-8.44,2.32a24.86,24.86,0,0,1-4.88-.83s-1.25,6.87-2,13.41-.83,11.59-.83,11.59a13.67,13.67,0,0,0,6.46,1.41A60.07,60.07,0,0,1,172.85,167.9Z" transform="translate(0)" fill="#212121"/><path d="M182.78,134.21s8.61,10.43,12.92,13.83a80.89,80.89,0,0,0,8.44,5.79s2-1.82,3.06-6.29S210.85,136,210.85,136s-7.37-4.55-11.34-8.28a136.16,136.16,0,0,0-11.26-8.86s-.91.83-2.65,6.13S182.78,134.21,182.78,134.21Z" transform="translate(0)" fill="#212121"/><path d="M180.71,134.13s.75-3.73,1.82-8.2a59.46,59.46,0,0,1,3-8.77s-2-1.16-5.13.25-8.86,4.3-11.84,4.47-4-.42-4-.42-1.24,8-2,10.93-1.24,4.3,2.32,4.06a51.81,51.81,0,0,0,10.68-1.83A13.3,13.3,0,0,1,180.71,134.13Z" transform="translate(0)" fill="#212121"/><path d="M168.87,117.41s5,0,7.87-2a16.6,16.6,0,0,1,8.86-2.57,8.82,8.82,0,0,1,2.81.25L196,97.7s-2.65-1-9.44,1.49-11.1,2.16-11.1,2.16a22.49,22.49,0,0,0-4.3,7.45A59.13,59.13,0,0,0,168.87,117.41Z" transform="translate(0)" fill="#212121"/><path d="M189.65,114.59s8.53,5.88,12.34,9.27,8.77,8,8.77,8a49.5,49.5,0,0,0,4.72-5.38,17,17,0,0,0,2.65-7s-2.48-.58-8.19-7.12-12.42-13.91-12.42-13.91Z" transform="translate(0)" fill="#212121"/><path d="M198.51,95.88a82,82,0,0,1,4.89-8.36,47.34,47.34,0,0,1,6-6.87s3.14,1.16,6.62,7.45,6.87,13,8.53,14.9,3,3.23,3,3.23a25.66,25.66,0,0,1-3.23,5.3,25.34,25.34,0,0,1-5.14,4.72,55,55,0,0,0-8.36-10.52A66.84,66.84,0,0,0,198.51,95.88Z" transform="translate(0)" fill="#212121"/><path d="M179.22,97.79s8-2.74,11.59-3.15a17.85,17.85,0,0,1,6.54.5,56.77,56.77,0,0,1,5.14-8.86A74.09,74.09,0,0,1,208,79.41a24.34,24.34,0,0,0-9.69-.09,35,35,0,0,1-7.7,1,36.17,36.17,0,0,0-6.45,8A54.28,54.28,0,0,0,179.22,97.79Z" transform="translate(0)" fill="#212121"/><path d="M211.59,77.81l12.86-11.48L237.09,96a20.93,20.93,0,0,1-4.8,4c-3.64,2.43-5.52,2.81-5.52,2.81a62.67,62.67,0,0,1-5.19-8.83C219.48,89.4,211.59,77.81,211.59,77.81Z" transform="translate(0)" fill="#212121"/><path d="M210.16,77l12.19-11.2A50.13,50.13,0,0,1,212,67.1c-4.8,0-5.25-1.49-5.25-1.49S196.47,76,196.19,76.21s3.26-.67,7.34-.33A32.1,32.1,0,0,1,210.16,77Z" transform="translate(0)" fill="#212121"/><path d="M226.58,64.34a22.39,22.39,0,0,1,6.45-6,83.42,83.42,0,0,1,7.78-4,97.76,97.76,0,0,1,4.72,16,77.86,77.86,0,0,0,6.38,17.72s-1.66,1.82-6.21,3.31a47.36,47.36,0,0,1-7.78,1.91Z" transform="translate(0)" fill="#212121"/><path d="M210.35,63.68l14.9-.42a25.1,25.1,0,0,1,6.38-6.12c3.72-2.32,8.44-4.55,8.44-4.55a13.14,13.14,0,0,0-5.46-.75c-3.4.17-6.88-2.32-6.88-2.32a124.46,124.46,0,0,1-10.84,8.28A27.18,27.18,0,0,0,210.35,63.68Z" transform="translate(0)" fill="#212121"/><path d="M233.36,49.27s4.89-.66,6.54,0a7.55,7.55,0,0,1,2.82,2.24s4.22-3,7-3.73a47.62,47.62,0,0,1,5.38-1.07,23.36,23.36,0,0,0-8.86-1.66C241.06,45.05,233.36,49.27,233.36,49.27Z" transform="translate(0)" fill="#212121"/><path d="M243.22,53.5a36,36,0,0,1,7.28-3.73,55.15,55.15,0,0,1,7.37-2.15s3.56,19,5.05,25.33a59.71,59.71,0,0,0,3.14,10,30.48,30.48,0,0,1-6.12,2.23,19.28,19.28,0,0,1-7,.91,108.27,108.27,0,0,1-5.46-16.8A161.35,161.35,0,0,0,243.22,53.5Z" transform="translate(0)" fill="#212121"/><path d="M253.31,44.14a39.14,39.14,0,0,1,10.77-.91,69.24,69.24,0,0,1,8.11,1.24,67.86,67.86,0,0,1-8,.67,18,18,0,0,0-5.13.57S257.45,44.56,253.31,44.14Z" transform="translate(0)" fill="#212121"/><path d="M260.35,47.29a21.47,21.47,0,0,1,5.47-.58c3,.08,8.85-1.49,8.85-1.49a140.58,140.58,0,0,0,2.65,15.56,56.28,56.28,0,0,0,5,12.83L267.14,81a93.88,93.88,0,0,1-4-16.64C262.26,56.56,260.35,47.29,260.35,47.29Z" transform="translate(0)" fill="#212121"/><path d="M283.7,73a35,35,0,0,0,7.2-5.79A21.89,21.89,0,0,0,295,61a93,93,0,0,1-6.3-12c-2.56-6.12-4.38-9.52-4.38-9.52a8.36,8.36,0,0,1-2.9,3.07A23.2,23.2,0,0,1,276,45.14a141.56,141.56,0,0,0,3.14,15.31A114.53,114.53,0,0,0,283.7,73Z" transform="translate(0)" fill="#212121"/><path d="M270.53,42.57l5.72.5A19.63,19.63,0,0,0,280,41.49a11,11,0,0,0,2.82-2.32,16.32,16.32,0,0,0-6.63.92C272.93,41.33,270.53,42.57,270.53,42.57Z" transform="translate(0)" fill="#212121"/><path d="M296.69,58.88s3.4-6,.75-11.76S289.08,36.61,285,35a24.89,24.89,0,0,0-8.69-1.41,9.45,9.45,0,0,1,3.23,1.82,17.78,17.78,0,0,1,1.82,1.9l3.48.17,2.23,1.24a19.17,19.17,0,0,0,1.9,7C290.73,49.11,296.69,58.88,296.69,58.88Z" transform="translate(0)" fill="#212121"/><path d="M270,40.83a14.54,14.54,0,0,1,4.72-2.48,14.72,14.72,0,0,1,4.88-1,6.92,6.92,0,0,0-1.57-1.65c-1.08-.83-3.56-2.49-3.56-2.49l-6.21-.91a11.34,11.34,0,0,1-3.73,4.31c-2.81,2.07-6,4.22-6,4.22Z" transform="translate(0)" fill="#212121"/><path d="M241.72,40.42a47,47,0,0,1,7-.42,32.1,32.1,0,0,1,7.62.83,23.16,23.16,0,0,0,5-4,16.31,16.31,0,0,0,3.07-4.31,54.39,54.39,0,0,1-10.1-.25A57.84,57.84,0,0,1,246,30.23a11.31,11.31,0,0,1-1.49,5.47A33,33,0,0,1,241.72,40.42Z" transform="translate(0)" fill="#212121"/><path d="M249.92,30a26.41,26.41,0,0,0,5,.24c2.23-.16,11.17,1.33,11.17,1.33a55.92,55.92,0,0,1-9.43.08C252,31.23,249.92,30,249.92,30Z" transform="translate(0)" fill="#212121"/><path d="M246,28.66a16.82,16.82,0,0,0,4.38.5c2.24-.09,2.54-.14,2.54-.14s-4.48-1.77-7.54-2.76a36.43,36.43,0,0,1-6.13-2.77,28.22,28.22,0,0,0,3.15,3A18.65,18.65,0,0,0,246,28.66Z" transform="translate(0)" fill="#212121"/><path d="M244.25,29.28a22.26,22.26,0,0,1-1.57,4.8,17.77,17.77,0,0,1-2.57,4.1,59,59,0,0,1-5.3-7.66c-1.86-3.47-2.19-6.25-2-6.37l2-1.16,3.27.41a7.48,7.48,0,0,0,2.49,3.32A15.69,15.69,0,0,0,244.25,29.28Z" transform="translate(0)" fill="#212121"/><path d="M232.23,23.06l2.27-2,4.08,1.44a24.06,24.06,0,0,1-4.86-8c-1.82-4.91-4-10.32-4.36-13.47s-1.23.73,0,8.61A123.31,123.31,0,0,0,232.23,23.06Z" transform="translate(0)" fill="#212121"/></g><g id="left"><path d="M107.37,213.71c-.28.47-.86,9,1.43,11.34s7.33,1.92,9.3-.05a10.11,10.11,0,0,0,2.51-3.81s0,4.22-1.65,5.9-4,1.16-4,3.9,4.69,10.43,7.17,13.24,6.13,15,6.13,22.35,1.41,14,7.12,18.38,12.89,5.57,14.65,3.81V277.59c-3.15,0-6.11-1-10-4.92s-4.38-5.38-4.38-6.79,1.06-2.14,1.5-3.24a36.25,36.25,0,0,0,.94-4.92s1,6.82,2.81,8.67,3.48,2.21,4.81,3.53,2.53,2.76,4.3,2.76V172.48c-5.4,0-11.87-1-26.71,5.16s-15.79,6.08-15.79,10.44.11,8.55,3.81,11.25,6.9,3.87,9.27,8.12a81.74,81.74,0,0,1,4.31,9.32,30.65,30.65,0,0,1,.83-4.69,5.55,5.55,0,0,1,2.15-2.87,59.5,59.5,0,0,0-1.71,14A63,63,0,0,0,128,237.75a21.73,21.73,0,0,1-3.37-8.17c-.94-4.91-.33-7-3.36-13.14a42.61,42.61,0,0,0-10.93-13.13,15.66,15.66,0,0,1-4-5.69s-.75,10.35.88,12,4.8,2.26,6.51,3.09a6.13,6.13,0,0,1,2.54,3,57,57,0,0,0-5.74-1.68C108.61,213.63,107.64,213.24,107.37,213.71Zm1.32,5a8.59,8.59,0,0,0,3,3.58c2,1.3,5.44.67,5.44.67s-3.37,2.23-5.72,1.26S108.69,218.71,108.69,218.71Z" transform="translate(0)" fill="#212121"/><path d="M150,291.5c-3.09,0-2.7.39-5.3.39s-8.77-4.14-10.32-4.14-.94,4.58,4.42,7.67S145.47,300,150,300Z" transform="translate(0)" fill="#212121"/><path d="M103.42,209.82c-1.19,1.19-6-5-15.51-5s-13.35.06-13.35-1.32,2.26-1.55,2.26-3.09-15.79-2-13.69.33,6.07,6.18,9.94,7.89,8.55,8.94,15.28,8.94,12.14-1.6,12.64-1.1-3.09,5-10.87,5-14-6-17.16-9.11-8.17-3.58-12.31-7.72-5.47-5.91-2-7.4,18-6.95,25.16-6.95,16.59.47,17.61,1.49-.5,10,.49,12.86S104.08,209.16,103.42,209.82Z" transform="translate(0)" fill="#212121"/><path d="M125.25,168.48a114,114,0,0,0-10.93,5.14c-4.39,2.48-11.76,6.45-11.76,6.45s-.16-5.29-2.64-9.1a26.64,26.64,0,0,1-3.81-8.12,11,11,0,0,1-.5-4.3,25.22,25.22,0,0,0,8.36-5.8c4.39-4.38,14-14,14-14s3.23,9.69,4.56,15.24S125.25,168.48,125.25,168.48Z" transform="translate(0)" fill="#212121"/><path d="M127.15,167.9a96.24,96.24,0,0,0-2.65-16.3c-2.15-8.2-4.22-15.4-4.22-15.4s4.88.41,7.29,2.48,5.79,2.48,8.44,2.32a24.86,24.86,0,0,0,4.88-.83s1.25,6.87,2,13.41.83,11.59.83,11.59a13.67,13.67,0,0,1-6.46,1.41A60.07,60.07,0,0,0,127.15,167.9Z" transform="translate(0)" fill="#212121"/><path d="M117.22,134.21S108.61,144.64,104.3,148a80.89,80.89,0,0,1-8.44,5.79s-2-1.82-3.06-6.29S89.15,136,89.15,136s7.37-4.55,11.34-8.28a136.16,136.16,0,0,1,11.26-8.86s.91.83,2.65,6.13S117.22,134.21,117.22,134.21Z" transform="translate(0)" fill="#212121"/><path d="M119.29,134.13s-.75-3.73-1.82-8.2a59.46,59.46,0,0,0-3-8.77s2-1.16,5.13.25,8.86,4.3,11.84,4.47,4-.42,4-.42,1.24,8,2,10.93,1.24,4.3-2.32,4.06a51.81,51.81,0,0,1-10.68-1.83A13.3,13.3,0,0,0,119.29,134.13Z" transform="translate(0)" fill="#212121"/><path d="M131.13,117.41s-5,0-7.87-2a16.6,16.6,0,0,0-8.86-2.57,8.82,8.82,0,0,0-2.81.25l-7.54-15.4s2.65-1,9.44,1.49,11.1,2.16,11.1,2.16a22.49,22.49,0,0,1,4.3,7.45A59.13,59.13,0,0,1,131.13,117.41Z" transform="translate(0)" fill="#212121"/><path d="M110.35,114.59s-8.53,5.88-12.34,9.27-8.77,8-8.77,8a49.5,49.5,0,0,1-4.72-5.38,17,17,0,0,1-2.65-7s2.48-.58,8.19-7.12,12.42-13.91,12.42-13.91Z" transform="translate(0)" fill="#212121"/><path d="M101.49,95.88a82,82,0,0,0-4.89-8.36,47.34,47.34,0,0,0-6-6.87S87.5,81.81,84,88.1s-6.87,13-8.53,14.9-3,3.23-3,3.23a25.66,25.66,0,0,0,3.23,5.3,25.34,25.34,0,0,0,5.14,4.72,55,55,0,0,1,8.36-10.52A66.84,66.84,0,0,1,101.49,95.88Z" transform="translate(0)" fill="#212121"/><path d="M120.78,97.79s-8-2.74-11.59-3.15a17.85,17.85,0,0,0-6.54.5,56.77,56.77,0,0,0-5.14-8.86,74.09,74.09,0,0,0-5.46-6.87,24.34,24.34,0,0,1,9.69-.09,35,35,0,0,0,7.7,1,36.17,36.17,0,0,1,6.45,8A54.28,54.28,0,0,1,120.78,97.79Z" transform="translate(0)" fill="#212121"/><path d="M88.41,77.81,75.55,66.33,62.91,96a20.93,20.93,0,0,0,4.8,4c3.64,2.43,5.52,2.81,5.52,2.81a62.67,62.67,0,0,0,5.19-8.83C80.52,89.4,88.41,77.81,88.41,77.81Z" transform="translate(0)" fill="#212121"/><path d="M89.84,77,77.65,65.83A50.13,50.13,0,0,0,88,67.1c4.8,0,5.25-1.49,5.25-1.49S103.53,76,103.81,76.21s-3.26-.67-7.34-.33A32.1,32.1,0,0,0,89.84,77Z" transform="translate(0)" fill="#212121"/><path d="M73.42,64.34a22.39,22.39,0,0,0-6.45-6,83.42,83.42,0,0,0-7.78-4,97.76,97.76,0,0,0-4.72,16A77.86,77.86,0,0,1,48.09,88.1s1.66,1.82,6.21,3.31a47.36,47.36,0,0,0,7.78,1.91Z" transform="translate(0)" fill="#212121"/><path d="M89.65,63.68l-14.9-.42a25.1,25.1,0,0,0-6.38-6.12c-3.72-2.32-8.44-4.55-8.44-4.55a13.14,13.14,0,0,1,5.46-.75c3.4.17,6.88-2.32,6.88-2.32A124.46,124.46,0,0,0,83.11,57.8,27.18,27.18,0,0,1,89.65,63.68Z" transform="translate(0)" fill="#212121"/><path d="M66.64,49.27s-4.89-.66-6.54,0a7.55,7.55,0,0,0-2.82,2.24s-4.22-3-7-3.73a47.62,47.62,0,0,0-5.38-1.07,23.36,23.36,0,0,1,8.86-1.66C58.94,45.05,66.64,49.27,66.64,49.27Z" transform="translate(0)" fill="#212121"/><path d="M56.78,53.5a36,36,0,0,0-7.28-3.73,55.15,55.15,0,0,0-7.37-2.15s-3.56,19-5.05,25.33a59.71,59.71,0,0,1-3.14,10,30.48,30.48,0,0,0,6.12,2.23,19.28,19.28,0,0,0,7,.91,108.27,108.27,0,0,0,5.46-16.8A161.35,161.35,0,0,1,56.78,53.5Z" transform="translate(0)" fill="#212121"/><path d="M46.69,44.14a39.14,39.14,0,0,0-10.77-.91,69.24,69.24,0,0,0-8.11,1.24,67.86,67.86,0,0,0,8,.67,18,18,0,0,1,5.13.57S42.55,44.56,46.69,44.14Z" transform="translate(0)" fill="#212121"/><path d="M39.65,47.29a21.47,21.47,0,0,0-5.47-.58c-3,.08-8.85-1.49-8.85-1.49a140.58,140.58,0,0,1-2.65,15.56,56.28,56.28,0,0,1-5,12.83L32.86,81a93.88,93.88,0,0,0,4-16.64C37.74,56.56,39.65,47.29,39.65,47.29Z" transform="translate(0)" fill="#212121"/><path d="M16.3,73a35,35,0,0,1-7.2-5.79A21.89,21.89,0,0,1,5,61a93,93,0,0,0,6.3-12c2.56-6.12,4.38-9.52,4.38-9.52a8.36,8.36,0,0,0,2.9,3.07A23.2,23.2,0,0,0,24,45.14a141.56,141.56,0,0,1-3.14,15.31A114.53,114.53,0,0,1,16.3,73Z" transform="translate(0)" fill="#212121"/><path d="M29.47,42.57l-5.72.5A19.63,19.63,0,0,1,20,41.49a11,11,0,0,1-2.82-2.32,16.32,16.32,0,0,1,6.63.92C27.07,41.33,29.47,42.57,29.47,42.57Z" transform="translate(0)" fill="#212121"/><path d="M3.31,58.88s-3.4-6-.75-11.76S10.92,36.61,15,35a24.89,24.89,0,0,1,8.69-1.41,9.45,9.45,0,0,0-3.23,1.82,17.78,17.78,0,0,0-1.82,1.9l-3.48.17-2.23,1.24a19.17,19.17,0,0,1-1.9,7C9.27,49.11,3.31,58.88,3.31,58.88Z" transform="translate(0)" fill="#212121"/><path d="M30,40.83a14.54,14.54,0,0,0-4.72-2.48,14.72,14.72,0,0,0-4.88-1,6.92,6.92,0,0,1,1.57-1.65c1.08-.83,3.56-2.49,3.56-2.49l6.21-.91a11.34,11.34,0,0,0,3.73,4.31c2.81,2.07,6,4.22,6,4.22Z" transform="translate(0)" fill="#212121"/><path d="M58.28,40.42a47,47,0,0,0-7-.42,32.1,32.1,0,0,0-7.62.83,23.16,23.16,0,0,1-5-4,16.31,16.31,0,0,1-3.07-4.31,54.39,54.39,0,0,0,10.1-.25A57.84,57.84,0,0,0,54,30.23a11.31,11.31,0,0,0,1.49,5.47A33,33,0,0,0,58.28,40.42Z" transform="translate(0)" fill="#212121"/><path d="M50.08,30a26.41,26.41,0,0,1-5,.24c-2.23-.16-11.17,1.33-11.17,1.33a55.92,55.92,0,0,0,9.43.08C48,31.23,50.08,30,50.08,30Z" transform="translate(0)" fill="#212121"/><path d="M54.05,28.66a16.82,16.82,0,0,1-4.38.5c-2.24-.09-2.54-.14-2.54-.14s4.48-1.77,7.54-2.76a36.43,36.43,0,0,0,6.13-2.77,28.22,28.22,0,0,1-3.15,3A18.65,18.65,0,0,1,54.05,28.66Z" transform="translate(0)" fill="#212121"/><path d="M55.75,29.28a22.26,22.26,0,0,0,1.57,4.8,17.77,17.77,0,0,0,2.57,4.1,59,59,0,0,0,5.3-7.66c1.86-3.47,2.19-6.25,2-6.37l-2-1.16-3.27.41a7.48,7.48,0,0,1-2.49,3.32A15.69,15.69,0,0,1,55.75,29.28Z" transform="translate(0)" fill="#212121"/><path d="M67.77,23.06l-2.27-2-4.08,1.44a24.06,24.06,0,0,0,4.86-8c1.82-4.91,4-10.32,4.36-13.47s1.23.73,0,8.61A123.31,123.31,0,0,1,67.77,23.06Z" transform="translate(0)" fill="#212121"/></g></g><g id="frame"><rect width="300" height="300" fill="none"/></g></svg>