<svg xmlns="http://www.w3.org/2000/svg" viewBox="0 0 30 30"><path d="M19,21.4a4.17,4.17,0,0,0-.58.17.58.58,0,0,1,.26-.3,2.4,2.4,0,0,0,.65-.31c.16-.16.09-1.2.09-1.2a1.54,1.54,0,0,1-.4.57,4.15,4.15,0,0,0-1.09,1.31A3.43,3.43,0,0,0,17.54,23a2.2,2.2,0,0,1-.34.81,6.26,6.26,0,0,0,.18-1.45,6,6,0,0,0-.17-1.4.58.58,0,0,1,.22.29,3.94,3.94,0,0,1,.08.47,7.91,7.91,0,0,1,.43-.94c.24-.42.56-.54.93-.81a1.24,1.24,0,0,0,.38-1.12c0-.44-.09-.43-1.58-1A5.44,5.44,0,0,0,15,17.25v10c.18,0,.3-.15.43-.28s.3-.17.48-.35a2.21,2.21,0,0,0,.28-.87,3,3,0,0,0,.1.49c0,.11.15.19.15.33s-.06.29-.44.68a1.38,1.38,0,0,1-1,.49v1.12c.18.17.89.05,1.47-.38a2.15,2.15,0,0,0,.71-1.84,5,5,0,0,1,.61-2.24,3.54,3.54,0,0,0,.72-1.32c0-.27-.24-.22-.41-.39a1.08,1.08,0,0,1-.16-.59,1,1,0,0,0,.25.38.76.76,0,0,0,.93,0c.23-.23.17-1.09.14-1.14S19.14,21.36,19,21.4Zm-.09,1c-.23.1-.57-.12-.57-.12a.9.9,0,0,0,.54-.07.82.82,0,0,0,.3-.36S19.1,22.33,18.86,22.42Z" transform="translate(0 0)" fill="#212121"/><path d="M15,29.15c.31,0,.27,0,.53,0s.88-.42,1-.42.1.46-.44.77S15.45,30,15,30Z" transform="translate(0 0)" fill="#212121"/><path d="M19.66,21c.12.12.6-.49,1.55-.49s1.33,0,1.33-.14-.22-.15-.22-.31,1.58-.19,1.37,0a3.43,3.43,0,0,1-1,.79c-.38.17-.85.89-1.53.89S20,21.6,19.9,21.65s.31.5,1.09.5a2.58,2.58,0,0,0,1.71-.91c.32-.31.82-.36,1.24-.77s.54-.59.2-.74a9.33,9.33,0,0,0-2.52-.7,6.46,6.46,0,0,0-1.76.15c-.1.1.05,1-.05,1.29S19.59,20.92,19.66,21Z" transform="translate(0 0)" fill="#212121"/><path d="M17.48,16.85a10.89,10.89,0,0,1,1.09.51l1.17.65A2,2,0,0,1,20,17.1a2.77,2.77,0,0,0,.38-.81,1.28,1.28,0,0,0,.05-.44,2.56,2.56,0,0,1-.84-.57l-1.4-1.4s-.32,1-.45,1.52S17.48,16.85,17.48,16.85Z" transform="translate(0 0)" fill="#212121"/><path d="M17.28,16.79a9.37,9.37,0,0,1,.27-1.63c.21-.82.42-1.54.42-1.54a1.53,1.53,0,0,0-.73.25,1.15,1.15,0,0,1-.84.23,2.89,2.89,0,0,1-.49-.08s-.12.68-.2,1.34-.08,1.16-.08,1.16a1.36,1.36,0,0,0,.64.14A6,6,0,0,1,17.28,16.79Z" transform="translate(0 0)" fill="#212121"/><path d="M18.28,13.42a13.86,13.86,0,0,0,1.29,1.38,8.22,8.22,0,0,0,.84.58,1.29,1.29,0,0,0,.31-.63c.11-.44.36-1.16.36-1.16A9.23,9.23,0,0,1,20,12.77a12.42,12.42,0,0,0-1.13-.89,1.75,1.75,0,0,0-.26.61C18.39,13,18.28,13.42,18.28,13.42Z" transform="translate(0 0)" fill="#212121"/><path d="M18.07,13.41l.18-.82a6.2,6.2,0,0,1,.3-.87.57.57,0,0,0-.51,0,5.14,5.14,0,0,1-1.19.45.92.92,0,0,1-.39,0s-.13.79-.2,1.09-.13.43.23.4a4.49,4.49,0,0,0,1.07-.18A1.38,1.38,0,0,1,18.07,13.41Z" transform="translate(0 0)" fill="#212121"/><path d="M16.89,11.74a1.64,1.64,0,0,0,.78-.2,1.66,1.66,0,0,1,.89-.25,1.11,1.11,0,0,1,.28,0l.75-1.54a1.53,1.53,0,0,0-.94.15,2.8,2.8,0,0,1-1.11.21,2.31,2.31,0,0,0-.43.75A5.08,5.08,0,0,0,16.89,11.74Z" transform="translate(0 0)" fill="#212121"/><path d="M19,11.46s.85.59,1.23.93l.88.8a6,6,0,0,0,.47-.54,1.73,1.73,0,0,0,.26-.7s-.25-.06-.82-.71-1.24-1.4-1.24-1.4Z" transform="translate(0 0)" fill="#212121"/><path d="M19.85,9.59a7.27,7.27,0,0,1,.49-.84,5.18,5.18,0,0,1,.6-.69s.31.12.66.75.69,1.3.85,1.49l.3.32a2.65,2.65,0,0,1-.32.53,2.35,2.35,0,0,1-.52.47,5.9,5.9,0,0,0-.83-1A6.7,6.7,0,0,0,19.85,9.59Z" transform="translate(0 0)" fill="#212121"/><path d="M17.92,9.78a10.25,10.25,0,0,1,1.16-.32,1.84,1.84,0,0,1,.66,0,5.17,5.17,0,0,1,.51-.88,7.47,7.47,0,0,1,.54-.69,2.33,2.33,0,0,0-1,0,3.36,3.36,0,0,1-.77.1,3.66,3.66,0,0,0-.65.8A5.2,5.2,0,0,0,17.92,9.78Z" transform="translate(0 0)" fill="#212121"/><path d="M21.16,7.78l1.29-1.15,1.26,3a2.29,2.29,0,0,1-.48.39,1.91,1.91,0,0,1-.55.29,6.76,6.76,0,0,1-.52-.89C22,8.94,21.16,7.78,21.16,7.78Z" transform="translate(0 0)" fill="#212121"/><path d="M21,7.7l1.22-1.12a4.68,4.68,0,0,1-1,.13c-.48,0-.53-.15-.53-.15s-1,1-1.05,1.06a3.74,3.74,0,0,1,.73,0A3.33,3.33,0,0,1,21,7.7Z" transform="translate(0 0)" fill="#212121"/><path d="M22.66,6.43a2.29,2.29,0,0,1,.64-.59c.4-.23.78-.4.78-.4A9.93,9.93,0,0,1,24.55,7a7.63,7.63,0,0,0,.64,1.77,1.48,1.48,0,0,1-.62.33,4.65,4.65,0,0,1-.78.19Z" transform="translate(0 0)" fill="#212121"/><path d="M21,6.37l1.5,0a2.57,2.57,0,0,1,.63-.62c.38-.23.85-.45.85-.45a1.41,1.41,0,0,0-.55-.08A1.28,1.28,0,0,1,22.77,5a11.84,11.84,0,0,1-1.08.83A2.78,2.78,0,0,0,21,6.37Z" transform="translate(0 0)" fill="#212121"/><path d="M23.34,4.93a2,2,0,0,1,.65,0,.65.65,0,0,1,.28.22A2.77,2.77,0,0,1,25,4.78a3.83,3.83,0,0,1,.53-.11,2.36,2.36,0,0,0-.88-.16A3.56,3.56,0,0,0,23.34,4.93Z" transform="translate(0 0)" fill="#212121"/><path d="M24.32,5.35A3.66,3.66,0,0,1,25.05,5a6.06,6.06,0,0,1,.74-.22s.35,1.9.5,2.54a5.9,5.9,0,0,0,.32,1,3.11,3.11,0,0,1-.62.22,2,2,0,0,1-.69.09,11,11,0,0,1-.55-1.68C24.59,6.17,24.32,5.35,24.32,5.35Z" transform="translate(0 0)" fill="#212121"/><path d="M25.33,4.41a4,4,0,0,1,1.08-.09,6.34,6.34,0,0,1,.81.13,6.87,6.87,0,0,1-.8.06,2.29,2.29,0,0,0-.52.06A1.31,1.31,0,0,0,25.33,4.41Z" transform="translate(0 0)" fill="#212121"/><path d="M26,4.73a1.91,1.91,0,0,1,.54-.06,4.29,4.29,0,0,0,.89-.15,14.42,14.42,0,0,0,.26,1.56,5.87,5.87,0,0,0,.5,1.28l-1.52.74a9.67,9.67,0,0,1-.39-1.67C26.23,5.66,26,4.73,26,4.73Z" transform="translate(0 0)" fill="#212121"/><path d="M28.37,7.3a3.63,3.63,0,0,0,.72-.58,2.3,2.3,0,0,0,.41-.63,7.94,7.94,0,0,1-.63-1.2c-.26-.61-.44-.95-.44-.95a.89.89,0,0,1-.29.31,2.39,2.39,0,0,1-.54.26,14.26,14.26,0,0,0,.31,1.54C28.1,6.67,28.37,7.3,28.37,7.3Z" transform="translate(0 0)" fill="#212121"/><path d="M27.05,4.26l.57,0A2.19,2.19,0,0,0,28,4.15a1.2,1.2,0,0,0,.28-.23,1.5,1.5,0,0,0-.66.09A4.69,4.69,0,0,0,27.05,4.26Z" transform="translate(0 0)" fill="#212121"/><path d="M29.67,5.89a1.41,1.41,0,0,0,.07-1.18A2.53,2.53,0,0,0,28.5,3.5a2.69,2.69,0,0,0-.87-.14,1.08,1.08,0,0,1,.33.18,1.85,1.85,0,0,1,.18.2h.35l.22.13a2,2,0,0,0,.19.69C29.07,4.91,29.67,5.89,29.67,5.89Z" transform="translate(0 0)" fill="#212121"/><path d="M27,4.08a1.54,1.54,0,0,1,.48-.25A1.47,1.47,0,0,1,28,3.74a.65.65,0,0,0-.15-.17l-.36-.25-.62-.09a1.16,1.16,0,0,1-.37.43c-.28.21-.61.42-.61.42Z" transform="translate(0 0)" fill="#212121"/><path d="M24.17,4a5,5,0,0,1,.71,0,3.35,3.35,0,0,1,.76.08,2.49,2.49,0,0,0,.49-.39,1.49,1.49,0,0,0,.31-.43,5.35,5.35,0,0,1-1,0A6.49,6.49,0,0,1,24.6,3a1.09,1.09,0,0,1-.15.55A2.89,2.89,0,0,1,24.17,4Z" transform="translate(0 0)" fill="#212121"/><path d="M25,3a2.59,2.59,0,0,0,.5,0,11.18,11.18,0,0,1,1.12.14,5.2,5.2,0,0,1-.95,0A1.77,1.77,0,0,1,25,3Z" transform="translate(0 0)" fill="#212121"/><path d="M24.59,2.87a2.28,2.28,0,0,0,.44,0l.26,0s-.45-.17-.76-.27a3.85,3.85,0,0,1-.61-.28,3,3,0,0,0,.31.3A2.29,2.29,0,0,0,24.59,2.87Z" transform="translate(0 0)" fill="#212121"/><path d="M24.42,2.93a2.32,2.32,0,0,1-.15.48,2,2,0,0,1-.26.41,6.25,6.25,0,0,1-.53-.77,1.23,1.23,0,0,1-.2-.64l.2-.11.33,0a.71.71,0,0,0,.25.33A1.65,1.65,0,0,0,24.42,2.93Z" transform="translate(0 0)" fill="#212121"/><path d="M23.22,2.31l.23-.2.41.14a2.3,2.3,0,0,1-.49-.79A7.75,7.75,0,0,1,22.94.11c0-.32-.13.07,0,.86A11.92,11.92,0,0,0,23.22,2.31Z" transform="translate(0 0)" fill="#212121"/><path d="M10.74,21.37c0,.05-.09.91.14,1.14a.76.76,0,0,0,.93,0,1,1,0,0,0,.25-.38,1.08,1.08,0,0,1-.16.59c-.17.17-.41.12-.41.39a3.54,3.54,0,0,0,.72,1.32,5,5,0,0,1,.61,2.24,2.15,2.15,0,0,0,.71,1.84c.58.43,1.29.55,1.47.38V27.76a1.38,1.38,0,0,1-1-.49c-.38-.39-.44-.54-.44-.68s.11-.22.15-.33a3,3,0,0,0,.1-.49,2.21,2.21,0,0,0,.28.87c.18.18.35.22.48.35s.25.28.43.28v-10a5.44,5.44,0,0,0-2.67.51c-1.49.62-1.58.61-1.58,1a1.24,1.24,0,0,0,.38,1.12c.37.27.69.39.93.81a7.91,7.91,0,0,1,.43.94,3.94,3.94,0,0,1,.08-.47.58.58,0,0,1,.22-.29,6,6,0,0,0-.17,1.4,6.26,6.26,0,0,0,.18,1.45,2.2,2.2,0,0,1-.34-.81,3.43,3.43,0,0,0-.34-1.32A4.15,4.15,0,0,0,11,20.33a1.54,1.54,0,0,1-.4-.57s-.07,1,.09,1.2a2.4,2.4,0,0,0,.65.31.58.58,0,0,1,.26.3,4.17,4.17,0,0,0-.58-.17C10.86,21.36,10.76,21.32,10.74,21.37Zm.13.5a.82.82,0,0,0,.3.36.9.9,0,0,0,.54.07s-.34.22-.57.12S10.87,21.87,10.87,21.87Z" transform="translate(0 0)" fill="#212121"/><path d="M15,29.15c-.31,0-.27,0-.53,0s-.88-.42-1-.42-.1.46.44.77S14.55,30,15,30Z" transform="translate(0 0)" fill="#212121"/><path d="M10.34,21c-.12.12-.6-.49-1.55-.49s-1.33,0-1.33-.14.22-.15.22-.31-1.58-.19-1.37,0a3.43,3.43,0,0,0,1,.79c.38.17.85.89,1.53.89s1.21-.16,1.26-.11-.31.5-1.09.5a2.58,2.58,0,0,1-1.71-.91c-.32-.31-.82-.36-1.24-.77s-.54-.59-.2-.74A9.33,9.33,0,0,1,8.38,19a6.46,6.46,0,0,1,1.76.15c.1.1-.05,1,0,1.29S10.41,20.92,10.34,21Z" transform="translate(0 0)" fill="#212121"/><path d="M12.52,16.85a10.89,10.89,0,0,0-1.09.51L10.26,18A2,2,0,0,0,10,17.1a2.77,2.77,0,0,1-.38-.81,1.28,1.28,0,0,1,0-.44,2.56,2.56,0,0,0,.84-.57l1.4-1.4s.32,1,.45,1.52S12.52,16.85,12.52,16.85Z" transform="translate(0 0)" fill="#212121"/><path d="M12.72,16.79a9.37,9.37,0,0,0-.27-1.63c-.21-.82-.42-1.54-.42-1.54a1.53,1.53,0,0,1,.73.25,1.15,1.15,0,0,0,.84.23,2.89,2.89,0,0,0,.49-.08s.12.68.2,1.34.08,1.16.08,1.16a1.36,1.36,0,0,1-.64.14A6,6,0,0,0,12.72,16.79Z" transform="translate(0 0)" fill="#212121"/><path d="M11.72,13.42a13.86,13.86,0,0,1-1.29,1.38,8.22,8.22,0,0,1-.84.58,1.29,1.29,0,0,1-.31-.63c-.11-.44-.36-1.16-.36-1.16a9.23,9.23,0,0,0,1.13-.82,12.42,12.42,0,0,1,1.13-.89,1.75,1.75,0,0,1,.26.61C11.61,13,11.72,13.42,11.72,13.42Z" transform="translate(0 0)" fill="#212121"/><path d="M11.93,13.41l-.18-.82a6.2,6.2,0,0,0-.3-.87.57.57,0,0,1,.51,0,5.14,5.14,0,0,0,1.19.45.92.92,0,0,0,.39,0s.13.79.2,1.09.13.43-.23.4a4.49,4.49,0,0,1-1.07-.18A1.38,1.38,0,0,0,11.93,13.41Z" transform="translate(0 0)" fill="#212121"/><path d="M13.11,11.74a1.64,1.64,0,0,1-.78-.2,1.66,1.66,0,0,0-.89-.25,1.11,1.11,0,0,0-.28,0l-.75-1.54a1.53,1.53,0,0,1,.94.15,2.8,2.8,0,0,0,1.11.21,2.31,2.31,0,0,1,.43.75A5.08,5.08,0,0,1,13.11,11.74Z" transform="translate(0 0)" fill="#212121"/><path d="M11,11.46s-.85.59-1.23.93l-.88.8a6,6,0,0,1-.47-.54,1.73,1.73,0,0,1-.26-.7s.25-.06.82-.71,1.24-1.4,1.24-1.4Z" transform="translate(0 0)" fill="#212121"/><path d="M10.15,9.59a7.27,7.27,0,0,0-.49-.84,5.18,5.18,0,0,0-.6-.69s-.31.12-.66.75-.69,1.3-.85,1.49l-.3.32a2.65,2.65,0,0,0,.32.53,2.35,2.35,0,0,0,.52.47,5.9,5.9,0,0,1,.83-1A6.7,6.7,0,0,1,10.15,9.59Z" transform="translate(0 0)" fill="#212121"/><path d="M12.08,9.78a10.25,10.25,0,0,0-1.16-.32,1.84,1.84,0,0,0-.66,0,5.17,5.17,0,0,0-.51-.88,7.47,7.47,0,0,0-.54-.69,2.33,2.33,0,0,1,1,0,3.36,3.36,0,0,0,.77.1,3.66,3.66,0,0,1,.65.8A5.2,5.2,0,0,1,12.08,9.78Z" transform="translate(0 0)" fill="#212121"/><path d="M8.84,7.78,7.55,6.63l-1.26,3a2.29,2.29,0,0,0,.48.39,1.91,1.91,0,0,0,.55.29,6.76,6.76,0,0,0,.52-.89C8.05,8.94,8.84,7.78,8.84,7.78Z" transform="translate(0 0)" fill="#212121"/><path d="M9,7.7,7.76,6.58a4.68,4.68,0,0,0,1,.13c.48,0,.53-.15.53-.15s1,1,1.05,1.06a3.74,3.74,0,0,0-.73,0A3.33,3.33,0,0,0,9,7.7Z" transform="translate(0 0)" fill="#212121"/><path d="M7.34,6.43a2.29,2.29,0,0,0-.64-.59c-.4-.23-.78-.4-.78-.4A9.93,9.93,0,0,0,5.45,7a7.63,7.63,0,0,1-.64,1.77,1.48,1.48,0,0,0,.62.33,4.65,4.65,0,0,0,.78.19Z" transform="translate(0 0)" fill="#212121"/><path d="M9,6.37l-1.5,0a2.57,2.57,0,0,0-.63-.62C6.46,5.48,6,5.26,6,5.26a1.41,1.41,0,0,1,.55-.08A1.28,1.28,0,0,0,7.23,5a11.84,11.84,0,0,0,1.08.83A2.78,2.78,0,0,1,9,6.37Z" transform="translate(0 0)" fill="#212121"/><path d="M6.66,4.93a2,2,0,0,0-.65,0,.65.65,0,0,0-.28.22A2.77,2.77,0,0,0,5,4.78a3.83,3.83,0,0,0-.53-.11,2.36,2.36,0,0,1,.88-.16A3.56,3.56,0,0,1,6.66,4.93Z" transform="translate(0 0)" fill="#212121"/><path d="M5.68,5.35A3.66,3.66,0,0,0,5,5a6.06,6.06,0,0,0-.74-.22s-.35,1.9-.5,2.54a5.9,5.9,0,0,1-.32,1A3.11,3.11,0,0,0,4,8.52a2,2,0,0,0,.69.09,11,11,0,0,0,.55-1.68C5.41,6.17,5.68,5.35,5.68,5.35Z" transform="translate(0 0)" fill="#212121"/><path d="M4.67,4.41a4,4,0,0,0-1.08-.09,6.34,6.34,0,0,0-.81.13,6.87,6.87,0,0,0,.8.06,2.29,2.29,0,0,1,.52.06A1.31,1.31,0,0,1,4.67,4.41Z" transform="translate(0 0)" fill="#212121"/><path d="M4,4.73a1.91,1.91,0,0,0-.54-.06,4.29,4.29,0,0,1-.89-.15,14.42,14.42,0,0,1-.26,1.56,5.87,5.87,0,0,1-.5,1.28l1.52.74a9.67,9.67,0,0,0,.39-1.67C3.77,5.66,4,4.73,4,4.73Z" transform="translate(0 0)" fill="#212121"/><path d="M1.63,7.3a3.63,3.63,0,0,1-.72-.58A2.3,2.3,0,0,1,.5,6.09a7.94,7.94,0,0,0,.63-1.2c.26-.61.44-.95.44-.95a.89.89,0,0,0,.29.31,2.39,2.39,0,0,0,.54.26,14.26,14.26,0,0,1-.31,1.54C1.9,6.67,1.63,7.3,1.63,7.3Z" transform="translate(0 0)" fill="#212121"/><path d="M3,4.26l-.57,0A2.19,2.19,0,0,1,2,4.15a1.2,1.2,0,0,1-.28-.23A1.5,1.5,0,0,1,2.38,4,4.69,4.69,0,0,1,3,4.26Z" transform="translate(0 0)" fill="#212121"/><path d="M.33,5.89A1.41,1.41,0,0,1,.26,4.71,2.53,2.53,0,0,1,1.5,3.5a2.69,2.69,0,0,1,.87-.14A1.08,1.08,0,0,0,2,3.54a1.85,1.85,0,0,0-.18.2H1.51l-.22.13a2,2,0,0,1-.19.69C.93,4.91.33,5.89.33,5.89Z" transform="translate(0 0)" fill="#212121"/><path d="M3,4.08a1.54,1.54,0,0,0-.48-.25A1.47,1.47,0,0,0,2,3.74a.65.65,0,0,1,.15-.17l.36-.25.62-.09a1.16,1.16,0,0,0,.37.43c.28.21.61.42.61.42Z" transform="translate(0 0)" fill="#212121"/><path d="M5.83,4a5,5,0,0,0-.71,0,3.35,3.35,0,0,0-.76.08,2.49,2.49,0,0,1-.49-.39,1.49,1.49,0,0,1-.31-.43,5.35,5.35,0,0,0,1,0A6.49,6.49,0,0,0,5.4,3a1.09,1.09,0,0,0,.15.55A2.89,2.89,0,0,0,5.83,4Z" transform="translate(0 0)" fill="#212121"/><path d="M5,3a2.59,2.59,0,0,1-.5,0,11.18,11.18,0,0,0-1.12.14,5.2,5.2,0,0,0,.95,0A1.77,1.77,0,0,0,5,3Z" transform="translate(0 0)" fill="#212121"/><path d="M5.41,2.87a2.28,2.28,0,0,1-.44,0l-.26,0s.45-.17.76-.27a3.85,3.85,0,0,0,.61-.28,3,3,0,0,1-.31.3A2.29,2.29,0,0,1,5.41,2.87Z" transform="translate(0 0)" fill="#212121"/><path d="M5.58,2.93a2.32,2.32,0,0,0,.15.48A2,2,0,0,0,6,3.82a6.25,6.25,0,0,0,.53-.77,1.23,1.23,0,0,0,.2-.64l-.2-.11-.33,0a.71.71,0,0,1-.25.33A1.65,1.65,0,0,1,5.58,2.93Z" transform="translate(0 0)" fill="#212121"/><path d="M6.78,2.31l-.23-.2-.41.14a2.3,2.3,0,0,0,.49-.79A7.75,7.75,0,0,0,7.06.11c0-.32.13.07,0,.86A11.92,11.92,0,0,1,6.78,2.31Z" transform="translate(0 0)" fill="#212121"/><rect width="30" height="30" fill="none"/></svg>