<svg xmlns="http://www.w3.org/2000/svg" viewBox="0 0 300 300"><title>eurasianteal</title><g id="eurasianteal"><g id="right"><path d="M186.58,111.83c0-7.86.61-10.73,8.85-13.76s11.56-7.93,14-16.25S212,70.71,212,70.71s4.91,12.17,6.58,21.62,4.38,15.64,4.38,23.81-3.7,18.59-13.53,30.53-14,15.05-14,15.05a38.08,38.08,0,0,0,2.19-12.25,39.26,39.26,0,0,0-6.05-19.5C188.4,125.28,186.58,119.77,186.58,111.83Z" transform="translate(0)" fill="#212121"/><path d="M193.69,17.12C183.48,4.35,165.68,0,150,0V125.85c3-5.33,14.21-18,19.5-18s14.66,17.73,14.66,17.73-4.53-13.38-3.93-23.28,5.07-32.66,3.71-47.77S169.05,4.42,169.05,4.42a140.63,140.63,0,0,1,9.67,18.37c3.55,8.69,9.07,23.58,9.9,35.22s-1.09,25.17-.15,31.18,5.94,6,11.83.57,9.11-16.1,9.11-30S203.89,29.89,193.69,17.12Zm.87,72.37c-1.05,0-2.31-.6-2.31-3.81s6.35-6.69,6.35-3.82S198.22,89.49,194.56,89.49Z" transform="translate(0)" fill="#212121"/><path d="M180.46,195.88c1.89-9.22,11.72-24,11.72-40.06S180,126.19,175.77,119.16s-6.27-8.84-11.79-5.25S150,135,150,135V300c5.59,0,16.18-11.07,17.46-12.59s.87-2.11,0-5.36-4.31-8.32-4.65-11.11-2.08-9.53-2.08-9.53A123,123,0,0,0,166.25,275c2.68,5.18,2.95,8.81,4,8.81S180.23,273.43,183,261s.53-22.07-.91-32.28S178.57,205.1,180.46,195.88Zm-8.39-40.36c0,3.74-4.38,15.76-5.33,15.76-1.13,0-1.28-7-1.28-11.95s2.94-11.11,5-11.11S172.07,151.78,172.07,155.52Z" transform="translate(0)" fill="#212121"/></g><g id="left"><path d="M113.42,111.83c0-7.86-.61-10.73-8.85-13.76S93,90.14,90.59,81.82,88,70.71,88,70.71s-4.91,12.17-6.58,21.62S77.06,108,77.06,116.14s3.7,18.59,13.53,30.53,14,15.05,14,15.05a38.08,38.08,0,0,1-2.19-12.25,39.26,39.26,0,0,1,6.05-19.5C111.6,125.28,113.42,119.77,113.42,111.83Z" transform="translate(0)" fill="#212121"/><path d="M90.59,59.75c0,13.91,3.21,24.6,9.11,30s10.88,5.44,11.83-.57-1-19.54-.15-31.18,6.35-26.53,9.9-35.22A140.63,140.63,0,0,1,131,4.42s-13.53,35-14.89,50.12,3.1,37.86,3.71,47.77-3.93,23.28-3.93,23.28,9.37-17.73,14.66-17.73,16.48,12.66,19.5,18V0c-15.68,0-33.48,4.35-43.69,17.12S90.59,45.84,90.59,59.75ZM101.4,81.86c0-2.87,6.35.6,6.35,3.82s-1.26,3.81-2.31,3.81C101.78,89.49,101.4,84.73,101.4,81.86Z" transform="translate(0)" fill="#212121"/><path d="M117.88,228.68c-1.44,10.21-3.71,19.81-.91,32.28s11.64,22.83,12.74,22.83,1.36-3.63,4-8.81a123,123,0,0,0,5.52-13.57s-1.74,6.73-2.08,9.53-3.78,7.86-4.65,11.11-1.29,3.85,0,5.36S144.41,300,150,300V135s-8.47-17.48-14-21.07-7.56-1.78-11.79,5.25-16.41,20.56-16.41,36.66,9.83,30.84,11.72,40.06S119.31,218.48,117.88,228.68Zm11.64-80.46c2.08,0,5,6.2,5,11.11s-.15,11.95-1.28,11.95c-.95,0-5.33-12-5.33-15.76S127.44,148.22,129.52,148.22Z" transform="translate(0)" fill="#212121"/></g></g><g id="frame"><rect width="300" height="300" fill="none"/></g></svg>