<svg xmlns="http://www.w3.org/2000/svg" viewBox="0 0 30 30"><path d="M15,0c1.82,0,3.9,0,5,1a5.86,5.86,0,0,1,1.81,3.1c.22.92,0,1.43-.09,1.43s-.08-.65-.56-.65-1,1.26-1,2.11.47,1.52.85,1.52,1-.74,1-1.45a10,10,0,0,1-.07-1.25c.09-.08.28.62.68,1.62s1.13,2.35,1.39,3.3a14,14,0,0,1,.49,3.53c0,1.23-.1,3.47-.95,4.66a6.31,6.31,0,0,1-3.45,2.66c-1.61.47-2.12.47-1.9.2a1.53,1.53,0,0,0,.26-1.06A5.6,5.6,0,0,1,20,18.28c.68-.63,1-.91,1-1.3s-.66-1-.77-1.35-.12-.39.24-.39.46-.22,0-.49-.44-.46-.29-.59-.07-.2-.29-.32-.09-.68-.29-1.82-.4-2.28-.43-2.65S19,9,19,8.8a1.66,1.66,0,0,1,.27-.54s-.28.28-.48.46-.77.22-1.2.37a3.53,3.53,0,0,1-1.09.23c-.23,0-.27-.42-.34-.42s0,.56-1.11.56Z" transform="translate(0)" fill="#212121"/><path d="M19.67,15.8c-.39-.52-.65-3.51-.74-4.73s-.45-1.46-.83-1.46a27.58,27.58,0,0,1-3.1.49v13c1.41,0,1.92-1.16,2.51-1.85s.16-.74.41-1.36a5.12,5.12,0,0,1,1.64-2c.6-.35.74-.73.74-1S20.06,16.32,19.67,15.8Zm-2.45,5.45a16.43,16.43,0,0,0-.07-2.77,8.59,8.59,0,0,0-.6-2,5.23,5.23,0,0,1,.7,1.91A11.29,11.29,0,0,1,17.22,21.25Zm.13-5.13c-.11.23,0,.67-.07.74S17,16.4,17,16.11a.89.89,0,0,1,.16-.61c.09-.14.06-.34.15-.34S17.46,15.88,17.35,16.12Z" transform="translate(0)" fill="#212121"/><path d="M15,30a23.36,23.36,0,0,0,4.85-1.41c1.68-.6,2.88-2,2.92-2.56s-.13-1,.08-1,.08-.55,0-1.17.29-1.74.4-2.9.17-1.16-.46-.57A6.85,6.85,0,0,1,20.35,22a6.33,6.33,0,0,1-2.27.5c-.39,0-.23,0-.74.38a12.8,12.8,0,0,1-1.69.9c-.25.1-.41.25-.65.25Z" transform="translate(0)" fill="#212121"/><path d="M21.22,5.74c.18,0,.41.63.41,1.1s-.14.94-.51.94-.48-.47-.48-.84S21,5.74,21.22,5.74Z" transform="translate(0)" fill="#212121"/><path d="M15,0c-1.82,0-3.9,0-5,1a5.86,5.86,0,0,0-1.81,3.1c-.22.92,0,1.43.09,1.43s.08-.65.56-.65,1,1.26,1,2.11S9.39,8.52,9,8.52,8,7.78,8,7.07a10,10,0,0,0,.07-1.25c-.09-.08-.28.62-.68,1.62S6.28,9.79,6,10.74a14,14,0,0,0-.49,3.53c0,1.23.1,3.47,1,4.66a6.31,6.31,0,0,0,3.45,2.66c1.61.47,2.12.47,1.9.2a1.53,1.53,0,0,1-.26-1.06A5.6,5.6,0,0,0,10,18.28c-.68-.63-1-.91-1-1.3s.66-1,.77-1.35.12-.39-.24-.39-.46-.22,0-.49.44-.46.29-.59.07-.2.29-.32.09-.68.29-1.82.4-2.28.43-2.65.22-.4.22-.57a1.66,1.66,0,0,0-.27-.54s.28.28.48.46.77.22,1.2.37a3.53,3.53,0,0,0,1.09.23c.23,0,.27-.42.34-.42s0,.56,1.11.56Z" transform="translate(0)" fill="#212121"/><path d="M9.7,16.91c0,.26.14.64.74,1a5.12,5.12,0,0,1,1.64,2c.25.62-.19.67.41,1.36s1.1,1.85,2.51,1.85v-13a27.58,27.58,0,0,1-3.1-.49c-.38,0-.73.25-.83,1.46s-.35,4.21-.74,4.73S9.7,16.66,9.7,16.91Zm3.05,1.48a5.23,5.23,0,0,1,.7-1.91,8.59,8.59,0,0,0-.6,2,16.43,16.43,0,0,0-.07,2.77A11.29,11.29,0,0,1,12.75,18.39Zm-.07-3.23c.09,0,.06.2.15.34a.89.89,0,0,1,.16.61c0,.29-.2.82-.27.75s0-.51-.07-.74S12.54,15.16,12.68,15.16Z" transform="translate(0)" fill="#212121"/><path d="M15,30a23.36,23.36,0,0,1-4.85-1.41c-1.68-.6-2.88-2-2.92-2.56s.13-1-.08-1-.08-.55-.05-1.17-.29-1.74-.4-2.9-.17-1.16.46-.57A6.85,6.85,0,0,0,9.65,22a6.33,6.33,0,0,0,2.27.5c.39,0,.23,0,.74.38a12.8,12.8,0,0,0,1.69.9c.25.1.41.25.65.25Z" transform="translate(0)" fill="#212121"/><path d="M8.78,5.74c-.18,0-.41.63-.41,1.1s.14.94.51.94.48-.47.48-.84S9,5.74,8.78,5.74Z" transform="translate(0)" fill="#212121"/><rect width="30" height="30" fill="none"/></svg>