<!-- Copyright (c) 2022 - 2023 Jan Stehno -->
<svg xmlns="http://www.w3.org/2000/svg" viewBox="0 0 300 300"><title>greylaggoose</title><g id="greylaggoose"><g id="right"><path d="M150,0c18.24,0,39,.16,50.21,10.07s15.87,21.82,18.09,31-.12,14.36-.88,14.36-.87-6.59-5.67-6.59S201.36,61.48,201.36,70s4.72,15.27,8.53,15.27,9.91-7.41,9.91-14.51-1.5-11.66-.67-12.5,2.82,6.19,6.74,16.15,11.35,23.55,14,33.07a142.78,142.78,0,0,1,4.88,35.3c0,12.26-1,34.71-9.52,46.6s-18.4,21.9-34.5,26.58-21.14,4.7-18.94,2,2.52-6.11,2.52-10.63,8.56-18.24,15.39-24.51,10-9,10-13-6.54-10.39-7.61-13.4-1.23-4,2.34-4,4.6-2.14.27-4.84-4.32-4.68-2.81-6-.76-1.9-2.94-3.13-.87-6.82-2.85-18.25-4-22.76-4.33-26.45-2.26-4-2.26-5.67,2.7-5.43,2.7-5.43-2.78,2.77-4.72,4.6-7.73,2.18-12,3.72a36.08,36.08,0,0,1-10.9,2.22c-2.3,0-2.7-4.16-3.41-4.16s.11,5.55-11.11,5.55Z" transform="translate(0)" fill="#212121"/><path d="M196.72,158c-3.89-5.23-6.5-35.14-7.45-47.27s-4.45-14.6-8.25-14.6S161.18,101,150,101V231.31c14.12,0,19.2-11.58,25.15-18.49s1.58-7.45,4-13.64,10.39-16.82,16.42-20.23,7.38-7.29,7.38-9.83S200.61,163.25,196.72,158Zm-24.52,54.5s1-16.66-.7-27.69a85.53,85.53,0,0,0-5.95-20s4.61,6.71,6.94,19.06C174.6,195.1,172.2,212.51,172.2,212.51Zm1.32-51.33c-1.11,2.34,0,6.71-.71,7.42s-2.5-4.56-2.7-7.53a8.9,8.9,0,0,1,1.62-6.07c.92-1.35.52-3.41,1.43-3.41C174.63,151.59,174.63,158.84,173.52,161.18Z" transform="translate(0)" fill="#212121"/><path d="M150,300c9,0,31.65-8.09,48.47-14.12s28.87-19.67,29.19-25.62-1.23-9.52.79-9.52.87-5.55.56-11.74,2.89-17.41,4-28.95,1.67-11.62-4.6-5.79-12.89,11.42-24.95,15.86-18.8,5-22.68,5-2.27.44-7.42,3.81a136.29,136.29,0,0,1-16.89,9c-2.5.95-4,2.52-6.47,2.52Z" transform="translate(0)" fill="#212121"/><path d="M212.23,57.43c1.78,0,4.08,6.23,4.08,11s-1.38,9.36-5.15,9.36-4.76-4.64-4.76-8.41S209.69,57.43,212.23,57.43Z" transform="translate(0)" fill="#212121"/></g><g id="left"><path d="M150,0c-18.24,0-39,.16-50.21,10.07s-15.87,21.82-18.09,31,.12,14.36.88,14.36.87-6.59,5.67-6.59S98.64,61.48,98.64,70s-4.72,15.27-8.53,15.27S80.2,77.82,80.2,70.72s1.5-11.66.67-12.5-2.82,6.19-6.74,16.15-11.35,23.55-14,33.07a142.78,142.78,0,0,0-4.88,35.3c0,12.26,1,34.71,9.52,46.6s18.4,21.9,34.5,26.58,21.14,4.7,18.94,2-2.52-6.11-2.52-10.63-8.56-18.24-15.39-24.51-10-9-10-13,6.54-10.39,7.61-13.4,1.23-4-2.34-4-4.6-2.14-.27-4.84,4.32-4.68,2.81-6,.76-1.9,2.94-3.13.87-6.82,2.85-18.25,4-22.76,4.33-26.45,2.26-4,2.26-5.67-2.7-5.43-2.7-5.43,2.78,2.77,4.72,4.6,7.73,2.18,12,3.72a36.08,36.08,0,0,0,10.9,2.22c2.3,0,2.7-4.16,3.41-4.16s-.11,5.55,11.11,5.55Z" transform="translate(0)" fill="#212121"/><path d="M97,169.12c0,2.54,1.35,6.42,7.38,9.83s14,14,16.42,20.23-1.9,6.74,4,13.64,11,18.49,25.15,18.49V101c-11.18,0-27.21-4.86-31-4.86s-7.29,2.46-8.25,14.6-3.56,42-7.45,47.27S97,166.58,97,169.12Zm30.5,14.77c2.33-12.35,6.94-19.06,6.94-19.06a85.53,85.53,0,0,0-5.95,20c-1.73,11-.7,27.69-.7,27.69S125.4,195.1,127.51,183.89Zm-.67-32.3c.91,0,.51,2.06,1.43,3.41a8.9,8.9,0,0,1,1.62,6.07c-.2,3-2,8.25-2.7,7.53s.4-5.08-.71-7.42S125.37,151.59,126.84,151.59Z" transform="translate(0)" fill="#212121"/><path d="M150,300c-9,0-31.65-8.09-48.47-14.12s-28.87-19.67-29.19-25.62,1.23-9.52-.79-9.52S70.68,245.19,71,239s-2.89-17.41-4-28.95-1.67-11.62,4.6-5.79,12.89,11.42,25,15.86,18.8,5,22.68,5,2.27.44,7.42,3.81a136.29,136.29,0,0,0,16.89,9c2.5.95,4,2.52,6.47,2.52Z" transform="translate(0)" fill="#212121"/><path d="M87.77,57.43c-1.78,0-4.08,6.23-4.08,11s1.38,9.36,5.15,9.36,4.76-4.64,4.76-8.41S90.31,57.43,87.77,57.43Z" transform="translate(0)" fill="#212121"/></g></g><g id="frame"><rect width="300" height="300" fill="none"/></g></svg>