<!-- Copyright (c) 2022 - 2023 Jan Stehno -->
<svg xmlns="http://www.w3.org/2000/svg" viewBox="0 0 300 300"><title>grizzlybear</title><g id="grizzlybear"><g id="right"><path d="M252.53,91.49s11.54-5.36,14.61-9.83,7.45-10.72,7.45-16.3a38.59,38.59,0,0,1,1.15-9.61l-3.47,4s1.91-4.88,1.91-8.6-.85-4.58-1.25-7a23,23,0,0,1,.2-6.09l-1.51,1.51s-1.51-1-2.21-5.68.25-6.34-2.47-7.6S258.19,24,252.81,24s-5.48,2-11.6,2-10.22,0-15.12,2.87-13.58,9.43-13.58,11.28,8.15,17.09,13.13,17.09,13.24,5.77,17.88,5.77,4.86-.64,4.86-1.66-2.15-2.34-2.15-4.75,8.26-7,8.26-7a31,31,0,0,1-3.47.26c-1.54,0-1.85-2.56,1.62-6.41s4.23-4.49,4.23-5.81S254,34,248.76,31.55,236.69,29,236.69,29a53.89,53.89,0,0,1,17.05,1.39c8.56,2.27,10,5.74,10,7.13s-4.9,6.45-4.9,10.3,0,5.47-3.17,8.07-3.28,3.36.11,7,4.34,3.76,4.34,11.76S257.44,87.42,252.53,91.49Z" transform="translate(0)" fill="#212121"/><path d="M158.15,31.36a23.25,23.25,0,0,1,4.52-3.42,19.19,19.19,0,0,1,6.24-1.71l-3.24,2.94a14.51,14.51,0,0,1,4.6-1.43c2.84-.43,4,.35,4,.35L171.15,34a22.83,22.83,0,0,1,4.95-2.54,20.22,20.22,0,0,1,8.33-1.11l-2.69,4.38A20.46,20.46,0,0,0,186,33.17a33.93,33.93,0,0,0,4.83-3s1.24,3.4.45,5.44a21.29,21.29,0,0,1-2.19,4,15.13,15.13,0,0,0,5.32,1.14c2.72,0,8.06-2.87,8.06-2.87l-3.32,4s4.83-.32,7.44-1.46,2.95-4.32,4.58-7.44,5-4,5-5.38S208,23,208,23l.75-2.22a11.78,11.78,0,0,0-5.54-2,27.12,27.12,0,0,0-7.28.41l2.75-3.13s-1.89-1-6.07-1-8,.27-8,.27l3.28-2.95a13.17,13.17,0,0,0-4.52.57A9.38,9.38,0,0,0,180,15.37a21.75,21.75,0,0,1-.33-6.74,10.4,10.4,0,0,1,2.71-4.83,14,14,0,0,0-5.23,1.63,22.59,22.59,0,0,0-3.55,2.79,13.29,13.29,0,0,1-2.86-3.32c-1.21-2-2.64-4.9-2.64-4.9s1.43,10.12-1.59,14.23-5.05,5.44-6.45,9.13A40.43,40.43,0,0,0,158.15,31.36Z" transform="translate(0)" fill="#212121"/><path d="M155.32,202.74c1.66,0,6.9-7.55,9.51-7.55s3.13,1.74,3.13,0-4.64-7.05-7.81-7.05-5.66,9.24-5.66,11.47S154.56,202.74,155.32,202.74Z" transform="translate(0)" fill="#212121"/><path d="M150,223.71c6.22,0,19.92,2.19,19.92,4.94s-3.67,2-5,1.51c-3.36-1.28-11.35-.79-14.9-.79Z" transform="translate(0)" fill="#212121"/><path d="M180.25,127.4c0,.95,2.34,1.93,5.06,1.93s6.79-1.93,6.79-5.43-.53-3.32-4-3.32S180.25,125.14,180.25,127.4Z" transform="translate(0)" fill="#212121"/><path d="M256.33,96.14c0-1.63,4.73-3.11,8.6-3.62a28.43,28.43,0,0,1,6.59-.15l-3.67,2.39A9.56,9.56,0,0,0,271,98.23a9.3,9.3,0,0,0,4.6,1.28l-6.94,4.2s.4,2.14,4.35,3.93a26.42,26.42,0,0,0,7.29,2.13h-8.45a23.71,23.71,0,0,0,2.19,3.4,14.31,14.31,0,0,0,4.27,3.37h-3.64a12.91,12.91,0,0,0,2.46,4.33,17.61,17.61,0,0,0,4.78,3.19l-6.34-.83a15.37,15.37,0,0,0,1.24,7.08,19.6,19.6,0,0,0,4.64,6.6l-8.27-4.49s5.47,10.87,6.45,18.71-.28,9.45-.28,12.56,3.42,11.82,3.42,11.82l-4.53-4.17S274,179,273.08,185.67a32.5,32.5,0,0,0,1.16,12.93,69.32,69.32,0,0,1-4.68-6.29,17.38,17.38,0,0,1-2.42-5.93s-3,5.38-3,9.3,1.13,5.51,1.13,10.41-5,11.25-5,11.25a27.73,27.73,0,0,0,.71-5.47,8.43,8.43,0,0,0-1-4.15s-1.92,1.13-3.6,6.15-7.08,12.29-7.08,12.29l-1.32-6.33s-7.28,3.54-8.38,9.5A23.89,23.89,0,0,0,240.72,241l-4.64-4.68a37.36,37.36,0,0,1-4.56,8.79,18.23,18.23,0,0,1-7.81,6.22l1-5.8s-2.37,3.73-5.35,5.35-4.34,7.62-4.34,7.62l-2.95-5.24s-4.18,4.37-4.86,8.9-5.81,10.22-5.81,10.22l-2.15-6.56s-7.68,5.82-8.89,10.1a21.06,21.06,0,0,0-.71,7.84l-4.92-5.23a6.2,6.2,0,0,1-2,4,17,17,0,0,1-5.43,3.17l2.82-5.89s-3.17-.5-9.26,5.13S164,295.88,164,295.88s-1.08-2.49-1.76-4.57a12.47,12.47,0,0,1-.6-4s-3.82,2.14-4.88,5.36-2.26,7.29-2.26,7.29L153,295.83s-3-.11-3,1.43v-8c2.26,0,6-4.3,7.77-9.46s3-14.53,3-14.53l4.94,7a41.37,41.37,0,0,1,3.93-9,27.9,27.9,0,0,1,6.33-6.89l-.8,6a27.41,27.41,0,0,0,7.9-7.09c2.81-4.18,3.87-10.16,3.87-10.16l1.86,7.89a37.92,37.92,0,0,0,1.11-5.48c.45-3.37,3.37-6.49,3.37-6.49l.55,7.14a11.4,11.4,0,0,0,3.65-4.18,68.29,68.29,0,0,0,2.45-7.36l1.85,3.92a59.16,59.16,0,0,1,3-7.35,31.13,31.13,0,0,1,5.89-8.08,24.91,24.91,0,0,0-.15,7.13,11,11,0,0,0,2.83,4.95,32.84,32.84,0,0,1,3-12.72c3.07-6.49,6-14.73,6-14.73l1.26,8.35a8.92,8.92,0,0,0,4-4.83c1-3.27-1.41-7.75-1.41-7.75l6.49,6.74a63.32,63.32,0,0,1,.21-6.56,18.2,18.2,0,0,1,2.53-6.76l1.28,8.76a43.29,43.29,0,0,0,3.06-8.45,86.26,86.26,0,0,0,2.26-10.94l1.55,7.58a75.92,75.92,0,0,1,10.75-11.66c6.19-5.32,7.47-22.22,7.47-22.22s3.43,3,4.56,6.11a16.28,16.28,0,0,1,.72,6.61,20.8,20.8,0,0,0,3.08-10.33c0-5.68-1.8-10.08-1.8-15.78s1.55-7.62,1.55-13a26.35,26.35,0,0,0-2.83-10.72s1,14-.94,16-2,11.67-.61,13.08.61,8,.61,8a16.38,16.38,0,0,0-4-6.18c-2.86-2.72-4.52-2.72-4.52-2.72a39.28,39.28,0,0,1-.3,10.61,25.73,25.73,0,0,1-4,10.37l-1-7.65a15.79,15.79,0,0,1-1.41,5.08,11,11,0,0,1-4.43,4.28l-.85-5.64s-2,5.84-6.09,8.8-5.43,14.74-5.43,14.74a41.8,41.8,0,0,1-1.16-6.54,32.56,32.56,0,0,1-.15-4.42s-1.91,4.87-4.73,7.54-4.88,2.87-4.88,2.87l1.36-5.48a28.12,28.12,0,0,0-5.9,9.54,43.53,43.53,0,0,0-2.3,9.43,10.81,10.81,0,0,1-2.19-4,23,23,0,0,1-.64-5.21s-8.6,7.06-11.46,11.36-16,16-18.3,23.91S179.35,248,173.31,248s-10.48,11.54-10.48,11.54l-2.76-4.19a10.89,10.89,0,0,1-4.68,4.42c-3.16,1.47-5.39,7.32-5.39,7.32V242.61s1.09-4.6,4.83-5.88,11.81-.95,11.81-.95a8.44,8.44,0,0,0-2.34,4.15,11.56,11.56,0,0,0-.19,4.72A14.35,14.35,0,0,0,169,237.9c1.48-4.42,3-7.32,8-8.87s9-13.53,14.73-16.95,18.05-19.31,18.71-23.94a41.64,41.64,0,0,1,3.37-10.21l4.35,6.74a31.22,31.22,0,0,1-.42-5.06c-.07-3.43,1.74-8,1.74-8s0,4.27,0,6.38a19.56,19.56,0,0,0,.6,4,45,45,0,0,0,7.09-6.48,42.12,42.12,0,0,0,5.09-7.59,20.12,20.12,0,0,1-.52,4.53,40.35,40.35,0,0,1-1.48,3.92s4.34-1.92,5.32-7.92a46.49,46.49,0,0,1,3.17-10.75l5.85,5.57a10.06,10.06,0,0,0,1.56-3.42c.4-1.86-1.31-7.29-1.31-7.29l5.13,2a24.58,24.58,0,0,1-.9-5.28,53.23,53.23,0,0,1-.05-5.74,28,28,0,0,0,4.17,3.63,10.34,10.34,0,0,0,5.33,1.25s-1.82-3.44-.05-11.55a83.35,83.35,0,0,0,1.59-16.9l2,4.94a15.8,15.8,0,0,0,2.26-6.38,19.68,19.68,0,0,0-.42-7l5.13,3s.53-2.83-4.33-9.43S256.33,98.12,256.33,96.14Z" transform="translate(0)" fill="#212121"/><path d="M255.74,106.77c-3.93-7.43-7.24-9.83-8.15-14.52a17.35,17.35,0,0,0-3.66-7.7h4.41s-7.45-3.85-10.57-8-7.44-6.74-11-11.57-6.38-7-10.66-8.93-8.73-11.54-8.73-11.54A12.2,12.2,0,0,1,200,47.32c-4.34,0-6.3-1.32-6.3-1.32l2.41-2.08s-2.34.27-4.45.27-3.17-2.32-3.17-2.32h-3.21a12,12,0,0,0,1.91-2.78A18.23,18.23,0,0,0,188.67,35a17,17,0,0,1-6.76,3.1,15.78,15.78,0,0,1-6.22,0L177.16,35a10.75,10.75,0,0,0-4.19,1,13.34,13.34,0,0,0-3.73,2.6,5.91,5.91,0,0,1-1.47-3.25,29.89,29.89,0,0,1-.12-5s-10.06,9-10.51,11.57S155.33,63.05,154,66.52s-2.81,35.26-2.81,35.26l2.36-6.94s-1.71,8.55-2.36,13.78S150,122.15,150,122.15v51.23c4.48,0,10.91-.68,13.93,2.08s9.91,7.7,9.91,12.68S172,200.21,170,202.22s-10.09,5.81-15.48,7.16c-2,.49-1.43,11.12,0,12.56s13,.11,15.43,1.36,6.6,0,11-5.17,4.86-13.59,4.86-21.14-2.21-7-2.21-19.06-4.23-22.49-4.23-27.92a36.86,36.86,0,0,0-3.87-15.89c-2.11-3.77-4.27-7.34-.35-12.17s4.58-7,9.71-7,6,2.86,7.89,2.86,6.29-4.57,6.29-4.57a5.77,5.77,0,0,1,3.29,1.18,9.42,9.42,0,0,1,2.32,2.94,10.29,10.29,0,0,0,1-4.24,16.25,16.25,0,0,0-.95-4.89s4.38,4.38,5.28,9a14,14,0,0,1-.45,7.73s-4.53-4.94-9.13-4.94.15,1.58-5,7.62-6,5.32-7.4,5.32-4.3-1.81-4.3-1.81l2.08,2.45s-1.36,0-3.59,0a10.26,10.26,0,0,1-4.37-1.21,29.25,29.25,0,0,0,7.47,10.64,24.8,24.8,0,0,0,12.41,5.7l-1.36-4.19s2.87,2.79,9,2.79a37.5,37.5,0,0,0,9.44-.94,12,12,0,0,1-8.15,3.09c-5.13,0-6-.83-6-.83L203,152.9a44.6,44.6,0,0,0-8.07-.6c-5.13,0-9.59-4.68-9.59-4.68s4.27,10.83,4.27,20S188,182.1,188,186s1.89,5.54,1.89,9.41a21.94,21.94,0,0,1-2.12,8.16,18.87,18.87,0,0,1,3.8-4.45,8,8,0,0,1,3.62-1.41,11.3,11.3,0,0,1-.58,3.12,13.59,13.59,0,0,1-1.78,3.45s10.52-6.93,12.6-13.76,3.51-11.84,6.3-15.69a33.69,33.69,0,0,1,4.45-5.28l.45,2.22s.91-4.67,3.4-6.94,4.86-4.86,4.86-4.86-1.17,2.3-1.17,7.54-1.69,8-1.69,8,4.6-3.09,6.33-6.07a26.79,26.79,0,0,0,2.53-6l.68,2.6a16.27,16.27,0,0,0,3.73-6.6,49.62,49.62,0,0,0,1.51-8.67l5.51,6.07a10.26,10.26,0,0,1-1.43-4.64,20.74,20.74,0,0,1,.53-5.21l6,4a22.46,22.46,0,0,1-2-8.86,13.2,13.2,0,0,1,2-7.47l6.94,8.45a43.16,43.16,0,0,1-.71-9,52.53,52.53,0,0,0-2.12-12.94l4.61,8.9a50.65,50.65,0,0,0-.38-10.3A38.79,38.79,0,0,0,252.42,109a44.27,44.27,0,0,1,3.8,3.06,10.48,10.48,0,0,1,2.69,4S259.66,114.2,255.74,106.77ZM168.48,87.49a32.71,32.71,0,0,1-1.5-8,22.6,22.6,0,0,0,2.15,6.14,42.32,42.32,0,0,0,4.33,6.27S169.69,90.55,168.48,87.49Z" transform="translate(0)" fill="#212121"/></g><g id="left"><path d="M47.47,91.49s-11.54-5.36-14.61-9.83-7.45-10.72-7.45-16.3a38.59,38.59,0,0,0-1.15-9.61l3.47,4s-1.91-4.88-1.91-8.6.85-4.58,1.25-7a23,23,0,0,0-.2-6.09l1.51,1.51s1.51-1,2.21-5.68-.25-6.34,2.47-7.6S41.81,24,47.19,24s5.48,2,11.6,2,10.22,0,15.12,2.87,13.58,9.43,13.58,11.28S79.34,57.28,74.36,57.28s-13.24,5.77-17.88,5.77-4.86-.64-4.86-1.66,2.15-2.34,2.15-4.75-8.26-7-8.26-7a31,31,0,0,0,3.47.26c1.54,0,1.85-2.56-1.62-6.41S43.13,39,43.13,37.66,46,34,51.24,31.55,63.31,29,63.31,29a53.89,53.89,0,0,0-17.05,1.39c-8.56,2.27-10,5.74-10,7.13s4.9,6.45,4.9,10.3,0,5.47,3.17,8.07,3.28,3.36-.11,7-4.34,3.76-4.34,11.76S42.56,87.42,47.47,91.49Z" transform="translate(0)" fill="#212121"/><path d="M141.85,31.36a23.25,23.25,0,0,0-4.52-3.42,19.19,19.19,0,0,0-6.24-1.71l3.24,2.94a14.51,14.51,0,0,0-4.6-1.43c-2.84-.43-4,.35-4,.35L128.85,34a22.83,22.83,0,0,0-4.95-2.54,20.22,20.22,0,0,0-8.33-1.11l2.69,4.38A20.46,20.46,0,0,1,114,33.17a33.93,33.93,0,0,1-4.83-3s-1.24,3.4-.45,5.44a21.29,21.29,0,0,0,2.19,4,15.13,15.13,0,0,1-5.32,1.14c-2.72,0-8.06-2.87-8.06-2.87l3.32,4s-4.83-.32-7.44-1.46-3-4.32-4.58-7.44-5-4-5-5.38S92,23,92,23l-.75-2.22a11.78,11.78,0,0,1,5.54-2,27.12,27.12,0,0,1,7.28.41l-2.75-3.13s1.89-1,6.07-1,8,.27,8,.27l-3.28-2.95a13.17,13.17,0,0,1,4.52.57A9.38,9.38,0,0,1,120,15.37a21.75,21.75,0,0,0,.33-6.74,10.4,10.4,0,0,0-2.71-4.83,14,14,0,0,1,5.23,1.63,22.59,22.59,0,0,1,3.55,2.79,13.29,13.29,0,0,0,2.86-3.32c1.21-2,2.64-4.9,2.64-4.9s-1.43,10.12,1.59,14.23,5.05,5.44,6.45,9.13A40.43,40.43,0,0,1,141.85,31.36Z" transform="translate(0)" fill="#212121"/><path d="M144.68,202.74c-1.66,0-6.9-7.55-9.51-7.55s-3.13,1.74-3.13,0,4.64-7.05,7.81-7.05,5.66,9.24,5.66,11.47S145.44,202.74,144.68,202.74Z" transform="translate(0)" fill="#212121"/><path d="M150,223.71c-6.22,0-19.92,2.19-19.92,4.94s3.67,2,5,1.51c3.36-1.28,11.35-.79,14.9-.79Z" transform="translate(0)" fill="#212121"/><path d="M119.75,127.4c0,.95-2.34,1.93-5.06,1.93s-6.79-1.93-6.79-5.43.53-3.32,4-3.32S119.75,125.14,119.75,127.4Z" transform="translate(0)" fill="#212121"/><path d="M43.67,96.14c0-1.63-4.73-3.11-8.6-3.62a28.43,28.43,0,0,0-6.59-.15l3.67,2.39A9.56,9.56,0,0,1,29,98.23a9.3,9.3,0,0,1-4.6,1.28l6.94,4.2s-.4,2.14-4.35,3.93a26.42,26.42,0,0,1-7.29,2.13h8.45a23.71,23.71,0,0,1-2.19,3.4,14.31,14.31,0,0,1-4.27,3.37h3.64a12.91,12.91,0,0,1-2.46,4.33,17.61,17.61,0,0,1-4.78,3.19l6.34-.83a15.37,15.37,0,0,1-1.24,7.08,19.6,19.6,0,0,1-4.64,6.6l8.27-4.49s-5.47,10.87-6.45,18.71.28,9.45.28,12.56-3.42,11.82-3.42,11.82l4.53-4.17S26,179,26.92,185.67a32.5,32.5,0,0,1-1.16,12.93,69.32,69.32,0,0,0,4.68-6.29,17.38,17.38,0,0,0,2.42-5.93s3,5.38,3,9.3-1.13,5.51-1.13,10.41,5.05,11.25,5.05,11.25a27.73,27.73,0,0,1-.71-5.47,8.43,8.43,0,0,1,1-4.15s1.92,1.13,3.6,6.15,7.08,12.29,7.08,12.29l1.32-6.33s7.28,3.54,8.38,9.5A23.89,23.89,0,0,1,59.28,241l4.64-4.68a37.36,37.36,0,0,0,4.56,8.79,18.23,18.23,0,0,0,7.81,6.22l-1-5.8s2.37,3.73,5.35,5.35S85,258.49,85,258.49l3-5.24s4.18,4.37,4.86,8.9,5.81,10.22,5.81,10.22l2.15-6.56s7.68,5.82,8.89,10.1a21.06,21.06,0,0,1,.71,7.84l4.92-5.23a6.2,6.2,0,0,0,2,4,17,17,0,0,0,5.43,3.17l-2.82-5.89s3.17-.5,9.26,5.13S136,295.88,136,295.88s1.08-2.49,1.76-4.57a12.47,12.47,0,0,0,.6-4s3.82,2.14,4.88,5.36,2.26,7.29,2.26,7.29l1.46-4.17s3-.11,3,1.43v-8c-2.26,0-6-4.3-7.77-9.46s-3-14.53-3-14.53l-4.94,7a41.37,41.37,0,0,0-3.93-9,27.9,27.9,0,0,0-6.33-6.89l.8,6a27.41,27.41,0,0,1-7.9-7.09c-2.81-4.18-3.87-10.16-3.87-10.16L111.22,253a37.92,37.92,0,0,1-1.11-5.48c-.45-3.37-3.37-6.49-3.37-6.49l-.55,7.14a11.4,11.4,0,0,1-3.65-4.18,68.29,68.29,0,0,1-2.45-7.36l-1.85,3.92a59.16,59.16,0,0,0-3-7.35,31.13,31.13,0,0,0-5.89-8.08,24.91,24.91,0,0,1,.15,7.13,11,11,0,0,1-2.83,4.95,32.84,32.84,0,0,0-3-12.72c-3.07-6.49-6-14.73-6-14.73l-1.26,8.35a8.92,8.92,0,0,1-4-4.83c-1-3.27,1.41-7.75,1.41-7.75l-6.49,6.74a63.32,63.32,0,0,0-.21-6.56A18.2,18.2,0,0,0,64.52,199l-1.28,8.76a43.29,43.29,0,0,1-3.06-8.45,86.26,86.26,0,0,1-2.26-10.94l-1.55,7.58a75.92,75.92,0,0,0-10.75-11.66C39.43,178.93,38.15,162,38.15,162s-3.43,3-4.56,6.11a16.28,16.28,0,0,0-.72,6.61,20.8,20.8,0,0,1-3.08-10.33c0-5.68,1.8-10.08,1.8-15.78S30,141,30,135.63a26.35,26.35,0,0,1,2.83-10.72s-1,14,.94,16,2,11.67.61,13.08-.61,8-.61,8a16.38,16.38,0,0,1,4-6.18c2.86-2.72,4.52-2.72,4.52-2.72a39.28,39.28,0,0,0,.3,10.61,25.73,25.73,0,0,0,4,10.37l1-7.65a15.79,15.79,0,0,0,1.41,5.08,11,11,0,0,0,4.43,4.28l.85-5.64s2,5.84,6.09,8.8,5.43,14.74,5.43,14.74A41.8,41.8,0,0,0,67,187.18a32.56,32.56,0,0,0,.15-4.42s1.91,4.87,4.73,7.54,4.88,2.87,4.88,2.87l-1.36-5.48a28.12,28.12,0,0,1,5.9,9.54,43.53,43.53,0,0,1,2.3,9.43,10.81,10.81,0,0,0,2.19-4,23,23,0,0,0,.64-5.21s8.6,7.06,11.46,11.36,16,16,18.3,23.91S120.65,248,126.69,248s10.48,11.54,10.48,11.54l2.76-4.19a10.89,10.89,0,0,0,4.68,4.42c3.16,1.47,5.39,7.32,5.39,7.32V242.61s-1.09-4.6-4.83-5.88-11.81-.95-11.81-.95a8.44,8.44,0,0,1,2.34,4.15,11.56,11.56,0,0,1,.19,4.72A14.35,14.35,0,0,1,131,237.9c-1.48-4.42-3-7.32-8-8.87s-9-13.53-14.73-16.95-18-19.31-18.71-23.94a41.64,41.64,0,0,0-3.37-10.21l-4.35,6.74a31.22,31.22,0,0,0,.42-5.06c.07-3.43-1.74-8-1.74-8s0,4.27,0,6.38a19.56,19.56,0,0,1-.6,4,45,45,0,0,1-7.09-6.48A42.12,42.12,0,0,1,67.73,168a20.12,20.12,0,0,0,.52,4.53,40.35,40.35,0,0,0,1.48,3.92s-4.34-1.92-5.32-7.92a46.49,46.49,0,0,0-3.17-10.75l-5.85,5.57a10.06,10.06,0,0,1-1.56-3.42c-.4-1.86,1.31-7.29,1.31-7.29l-5.13,2a24.58,24.58,0,0,0,.9-5.28,53.23,53.23,0,0,0,.05-5.74,28,28,0,0,1-4.17,3.63,10.34,10.34,0,0,1-5.33,1.25s1.82-3.44,0-11.55a83.35,83.35,0,0,1-1.59-16.9l-2,4.94a15.8,15.8,0,0,1-2.26-6.38,19.68,19.68,0,0,1,.42-7l-5.13,3s-.53-2.83,4.33-9.43S43.67,98.12,43.67,96.14Z" transform="translate(0)" fill="#212121"/><path d="M41.09,116.09a10.48,10.48,0,0,1,2.69-4,44.27,44.27,0,0,1,3.8-3.06,38.79,38.79,0,0,0-3.32,10.75,50.65,50.65,0,0,0-.38,10.3l4.61-8.9a52.53,52.53,0,0,0-2.12,12.94,43.16,43.16,0,0,1-.71,9l6.94-8.45a13.2,13.2,0,0,1,2,7.47,22.46,22.46,0,0,1-2,8.86l6-4a20.74,20.74,0,0,1,.53,5.21,10.26,10.26,0,0,1-1.43,4.64l5.51-6.07a49.62,49.62,0,0,0,1.51,8.67,16.27,16.27,0,0,0,3.73,6.6l.68-2.6a26.79,26.79,0,0,0,2.53,6c1.73,3,6.33,6.07,6.33,6.07s-1.69-2.72-1.69-8S75.16,160,75.16,160s2.37,2.6,4.86,4.86,3.4,6.94,3.4,6.94l.45-2.22a33.69,33.69,0,0,1,4.45,5.28c2.79,3.85,4.23,8.86,6.3,15.69s12.6,13.76,12.6,13.76a13.59,13.59,0,0,1-1.78-3.45,11.3,11.3,0,0,1-.58-3.12,8,8,0,0,1,3.62,1.41,18.87,18.87,0,0,1,3.8,4.45,21.94,21.94,0,0,1-2.12-8.16c0-3.87,1.89-5.49,1.89-9.41s-1.7-9.32-1.7-18.45,4.27-20,4.27-20-4.46,4.68-9.59,4.68a44.6,44.6,0,0,0-8.07.6l2.49-4.22s-.87.83-6,.83a12,12,0,0,1-8.15-3.09,37.5,37.5,0,0,0,9.44.94c6.18,0,9.05-2.79,9.05-2.79l-1.36,4.19a24.8,24.8,0,0,0,12.41-5.7,29.25,29.25,0,0,0,7.47-10.64,10.26,10.26,0,0,1-4.37,1.21c-2.23,0-3.59,0-3.59,0l2.08-2.45s-2.91,1.81-4.3,1.81-2.19.72-7.4-5.32-.45-7.62-5-7.62S90.55,125,90.55,125a14,14,0,0,1-.45-7.73c.9-4.6,5.28-9,5.28-9a16.25,16.25,0,0,0-.95,4.89,10.29,10.29,0,0,0,1,4.24,9.42,9.42,0,0,1,2.32-2.94,5.77,5.77,0,0,1,3.29-1.18s4.43,4.57,6.29,4.57,2.76-2.86,7.89-2.86,5.79,2.16,9.71,7,1.76,8.4-.35,12.17A36.86,36.86,0,0,0,120.68,150c0,5.43-4.23,15.9-4.23,27.92s-2.21,11.52-2.21,19.06.49,15.93,4.86,21.14,8.57,6.41,11,5.17,14,.07,15.43-1.36,2-12.07,0-12.56C140.12,208,132,204.23,130,202.22s-3.87-9.1-3.87-14.08,6.89-9.91,9.91-12.68,9.45-2.08,13.93-2.08V122.15s-.55-8.3-1.21-13.53-2.36-13.78-2.36-13.78l2.36,6.94S147.28,70,146,66.52s-2.67-22.08-3.12-24.65S132.35,30.3,132.35,30.3a29.89,29.89,0,0,1-.12,5,5.91,5.91,0,0,1-1.47,3.25,13.34,13.34,0,0,0-3.73-2.6,10.75,10.75,0,0,0-4.19-1L124.31,38a15.78,15.78,0,0,1-6.22,0,17,17,0,0,1-6.76-3.1,18.23,18.23,0,0,0,1.53,4.11,12,12,0,0,0,1.91,2.78h-3.21s-1.06,2.32-3.17,2.32-4.45-.27-4.45-.27L106.35,46s-2,1.32-6.3,1.32a12.2,12.2,0,0,1-7.46-2.83S88.13,54.11,83.86,56,76.72,60.13,73.2,65s-7.85,7.39-11,11.57-10.57,8-10.57,8h4.41a17.35,17.35,0,0,0-3.66,7.7c-.91,4.69-4.22,7.09-8.15,14.52S41.09,116.09,41.09,116.09Zm85.45-24.18a42.32,42.32,0,0,0,4.33-6.27A22.6,22.6,0,0,0,133,79.5a32.71,32.71,0,0,1-1.5,8C130.31,90.55,126.54,91.91,126.54,91.91Z" transform="translate(0)" fill="#212121"/></g></g><g id="frame"><rect width="300" height="300" fill="none"/></g></svg>