<svg xmlns="http://www.w3.org/2000/svg" viewBox="0 0 30 30"><path d="M25.25,9.15a5,5,0,0,0,1.46-1,3.38,3.38,0,0,0,.75-1.63,4,4,0,0,1,.11-1l-.34.4a3,3,0,0,0,.19-.86,2.82,2.82,0,0,0-.13-.71,2.29,2.29,0,0,1,0-.6L27.16,4s-.15-.1-.22-.57,0-.64-.25-.76a3.93,3.93,0,0,0-1.41-.23c-.54,0-.55.2-1.16.2a2.7,2.7,0,0,0-1.51.29c-.49.28-1.36.94-1.36,1.13s.82,1.71,1.31,1.71,1.33.57,1.79.57.49-.06.49-.16-.22-.24-.22-.48.83-.7.83-.7a2.66,2.66,0,0,1-.35,0c-.15,0-.18-.26.16-.64s.43-.45.43-.58-.29-.37-.81-.62a3.68,3.68,0,0,0-1.21-.26,5.59,5.59,0,0,1,1.7.14c.86.23,1,.58,1,.72s-.49.64-.49,1,0,.54-.32.8-.33.34,0,.71.44.37.44,1.17A2,2,0,0,1,25.25,9.15Z" transform="translate(0)" fill="#212121"/><path d="M15.81,3.14a2.42,2.42,0,0,1,.46-.35,2,2,0,0,1,.62-.17l-.32.3A1.48,1.48,0,0,1,17,2.77a.57.57,0,0,1,.39,0l-.3.59A2.05,2.05,0,0,1,18.44,3l-.27.44a2.22,2.22,0,0,0,.43-.16,3,3,0,0,0,.48-.3.93.93,0,0,1,.05.54,2.32,2.32,0,0,1-.22.4,1.55,1.55,0,0,0,.53.11,2.6,2.6,0,0,0,.81-.29l-.34.41A3.19,3.19,0,0,0,20.66,4c.26-.11.29-.43.46-.74s.49-.41.49-.54-.81-.46-.81-.46l.08-.22a1.22,1.22,0,0,0-.56-.2,3,3,0,0,0-.73.05l.28-.32a1.42,1.42,0,0,0-.61-.1c-.42,0-.8,0-.8,0l.33-.3a1.4,1.4,0,0,0-.45.06.87.87,0,0,0-.34.24,2.29,2.29,0,0,1,0-.68,1,1,0,0,1,.27-.48,1.42,1.42,0,0,0-.52.16,2.32,2.32,0,0,0-.36.28,1.58,1.58,0,0,1-.29-.33C17,.29,16.81,0,16.81,0a2.61,2.61,0,0,1-.16,1.42,3.85,3.85,0,0,0-.64.92A4.3,4.3,0,0,0,15.81,3.14Z" transform="translate(0)" fill="#212121"/><path d="M15.53,20.27c.17,0,.69-.75,1-.75s.32.17.32,0-.47-.71-.79-.71-.56.93-.56,1.15S15.46,20.27,15.53,20.27Z" transform="translate(0)" fill="#212121"/><path d="M15,22.37c.62,0,2,.22,2,.5s-.37.2-.5.15A5.72,5.72,0,0,0,15,22.94Z" transform="translate(0)" fill="#212121"/><path d="M18,12.74c0,.09.23.19.5.19s.68-.19.68-.54-.05-.33-.4-.33A1,1,0,0,0,18,12.74Z" transform="translate(0)" fill="#212121"/><path d="M25.63,9.61c0-.16.48-.31.86-.36a2.66,2.66,0,0,1,.66,0l-.37.24a1,1,0,0,0,.32.34.86.86,0,0,0,.46.13l-.69.42s0,.22.43.39A2.8,2.8,0,0,0,28,11h-.84a2.49,2.49,0,0,0,.22.34,1.37,1.37,0,0,0,.42.33h-.36a1.28,1.28,0,0,0,.25.44,1.67,1.67,0,0,0,.47.32l-.63-.09a1.56,1.56,0,0,0,.12.71,1.85,1.85,0,0,0,.47.66l-.83-.45A7.43,7.43,0,0,1,28,15.11a4.82,4.82,0,0,1,0,1.26,5.68,5.68,0,0,0,.34,1.18l-.45-.42a4.93,4.93,0,0,0-.52,1.44,3.33,3.33,0,0,0,.11,1.29,6.08,6.08,0,0,1-.46-.63,1.79,1.79,0,0,1-.25-.59,2.53,2.53,0,0,0-.29.93c0,.39.11.55.11,1A2.35,2.35,0,0,1,26,21.73a2.72,2.72,0,0,0,.07-.54.85.85,0,0,0-.1-.42s-.19.11-.36.62a6.08,6.08,0,0,1-.71,1.23L24.79,22s-.73.36-.83.95a2.43,2.43,0,0,0,.11,1.17l-.46-.47a3.65,3.65,0,0,1-.46.88,1.8,1.8,0,0,1-.78.62l.1-.58a1.91,1.91,0,0,1-.54.54c-.29.16-.43.76-.43.76l-.29-.53a2,2,0,0,0-.49.9,2.66,2.66,0,0,1-.58,1l-.22-.66s-.77.58-.89,1a2.15,2.15,0,0,0-.07.79l-.49-.53a.6.6,0,0,1-.2.4,1.59,1.59,0,0,1-.54.32L18,28s-.31-.05-.92.52a2.08,2.08,0,0,0-.69,1.09s-.11-.25-.18-.46a1.16,1.16,0,0,1-.06-.39,1.17,1.17,0,0,0-.49.53c-.1.32-.22.73-.22.73l-.15-.42s-.3,0-.3.15v-.8c.23,0,.6-.43.78-.95a11.06,11.06,0,0,0,.3-1.45l.49.7a4.21,4.21,0,0,1,.39-.9,2.68,2.68,0,0,1,.64-.69l-.09.6a2.68,2.68,0,0,0,.79-.71,2.94,2.94,0,0,0,.39-1l.19.79a4.7,4.7,0,0,0,.11-.55,1.34,1.34,0,0,1,.34-.64l.05.71a1.23,1.23,0,0,0,.37-.42,6.93,6.93,0,0,0,.24-.73l.19.39a4.77,4.77,0,0,1,.3-.74,3.07,3.07,0,0,1,.59-.81,2.35,2.35,0,0,0,0,.72,1.16,1.16,0,0,0,.28.49,3.28,3.28,0,0,1,.31-1.27c.31-.65.6-1.47.6-1.47l.13.83a.86.86,0,0,0,.4-.48,1.26,1.26,0,0,0-.14-.78l.64.68s0-.33,0-.66a1.75,1.75,0,0,1,.25-.67l.13.87a4.47,4.47,0,0,0,.3-.84,9.8,9.8,0,0,0,.23-1.1l.15.76a7.73,7.73,0,0,1,1.08-1.16c.62-.54.74-2.23.74-2.23a1.8,1.8,0,0,1,.46.61,1.69,1.69,0,0,1,.07.66,2,2,0,0,0,.31-1c0-.57-.18-1-.18-1.58s.16-.76.16-1.3a2.57,2.57,0,0,0-.29-1.07s.1,1.4-.09,1.6a1.76,1.76,0,0,0-.06,1.31c.14.14.06.8.06.8a1.68,1.68,0,0,0-.4-.62c-.29-.27-.45-.27-.45-.27a4.19,4.19,0,0,1,0,1.06,2.6,2.6,0,0,1-.4,1l-.1-.76a1.53,1.53,0,0,1-.15.5,1.05,1.05,0,0,1-.44.43L24.57,17a2.08,2.08,0,0,1-.61.88c-.41.3-.55,1.47-.55,1.47a3.74,3.74,0,0,1-.11-.65,2.94,2.94,0,0,1,0-.44,2.52,2.52,0,0,1-.47.75.93.93,0,0,1-.49.29l.14-.55a2.85,2.85,0,0,0-.59.95,4.18,4.18,0,0,0-.23,1,1,1,0,0,1-.22-.4,2.44,2.44,0,0,1-.06-.52,7.93,7.93,0,0,0-1.15,1.13c-.29.43-1.6,1.6-1.83,2.4s-.45,1.52-1.05,1.52-1,1.15-1,1.15L16,25.53a1,1,0,0,1-.47.44c-.32.15-.54.74-.54.74V24.26a.89.89,0,0,1,.48-.59,4.37,4.37,0,0,1,1.18-.09.84.84,0,0,0-.23.41,1.25,1.25,0,0,0,0,.47,1.43,1.43,0,0,0,.49-.67,1.13,1.13,0,0,1,.8-.89c.5-.15.9-1.35,1.47-1.69A6.47,6.47,0,0,0,21,18.81a4.39,4.39,0,0,1,.34-1l.43.68a4,4,0,0,1,0-.51,2.44,2.44,0,0,1,.17-.79s0,.42,0,.63a2.4,2.4,0,0,0,.06.41,4.77,4.77,0,0,0,.71-.65,4.62,4.62,0,0,0,.51-.76,1.75,1.75,0,0,1-.06.45,3.69,3.69,0,0,1-.14.39,1,1,0,0,0,.53-.79,4.59,4.59,0,0,1,.32-1.07l.58.55a.91.91,0,0,0,.16-.34,2.52,2.52,0,0,0-.13-.73l.51.2a2.43,2.43,0,0,1-.09-.52c0-.31,0-.58,0-.58a3,3,0,0,0,.42.36,1,1,0,0,0,.53.13,1.85,1.85,0,0,1,0-1.16A8.13,8.13,0,0,0,26,12l.2.5a1.68,1.68,0,0,0,.22-.64,1.94,1.94,0,0,0,0-.7l.52.3s.05-.29-.44-1S25.63,9.81,25.63,9.61Z" transform="translate(0)" fill="#212121"/><path d="M25.57,10.68c-.39-.75-.72-1-.81-1.45a1.69,1.69,0,0,0-.37-.77h.44a3.8,3.8,0,0,1-1-.81C23.47,7.24,23,7,22.68,6.5a2.42,2.42,0,0,0-1.07-.9c-.42-.19-.87-1.15-.87-1.15a1.3,1.3,0,0,1-1.38.15l.25-.21a4.27,4.27,0,0,1-.45,0,.41.41,0,0,1-.32-.23h-.32a1.24,1.24,0,0,0,.19-.28,1.68,1.68,0,0,0,.16-.41,1.82,1.82,0,0,1-.68.31,1.57,1.57,0,0,1-.62,0l.15-.3a1,1,0,0,0-.42.09,1.45,1.45,0,0,0-.38.26.59.59,0,0,1-.14-.32,2.92,2.92,0,0,1,0-.5s-1,.9-1.06,1.16-.18,2.11-.31,2.46-.28,3.53-.28,3.53l.24-.7s-.17.86-.24,1.38S15,12.21,15,12.21v5.13c.45,0,1.09-.07,1.39.21s1,.77,1,1.26A2.63,2.63,0,0,1,17,20.22a4.89,4.89,0,0,1-1.55.72c-.2,0-.14,1.11,0,1.25s1.3,0,1.54.14.66,0,1.1-.52a3.34,3.34,0,0,0,.49-2.11c0-.76-.23-.71-.23-1.91A26.21,26.21,0,0,0,17.93,15a3.73,3.73,0,0,0-.38-1.59c-.22-.38-.43-.73,0-1.22s.46-.69,1-.69.6.28.79.28.63-.46.63-.46a.58.58,0,0,1,.33.12.9.9,0,0,1,.23.3,1,1,0,0,0,.1-.43,1.62,1.62,0,0,0-.1-.49,2.13,2.13,0,0,1,.53.9,1.48,1.48,0,0,1,0,.78A1.57,1.57,0,0,0,20,12c-.46,0,0,.16-.5.76s-.6.53-.74.53a1.29,1.29,0,0,1-.43-.18l.2.25h-.35a1,1,0,0,1-.44-.12,2.84,2.84,0,0,0,.75,1.07,2.47,2.47,0,0,0,1.24.57l-.14-.42a1.35,1.35,0,0,0,.91.28,3.47,3.47,0,0,0,.94-.1,1.2,1.2,0,0,1-.82.31c-.51,0-.6-.08-.6-.08l.25.42a4.36,4.36,0,0,0-.8-.06,1.54,1.54,0,0,1-1-.47,6.6,6.6,0,0,1,.42,2c0,.91-.17,1.45-.17,1.84s.19.56.19.94a2.21,2.21,0,0,1-.21.82,1.82,1.82,0,0,1,.38-.44.89.89,0,0,1,.36-.15,1.33,1.33,0,0,1-.05.32,1.38,1.38,0,0,1-.18.34s1-.69,1.26-1.37a5.25,5.25,0,0,1,.63-1.57,3.43,3.43,0,0,1,.44-.53l.05.22a1.44,1.44,0,0,1,.34-.69c.25-.23.48-.49.48-.49a1.9,1.9,0,0,0-.11.75,1.6,1.6,0,0,1-.17.8,2.45,2.45,0,0,0,.63-.61,2.87,2.87,0,0,0,.25-.6l.07.26a1.63,1.63,0,0,0,.38-.66,5.85,5.85,0,0,0,.15-.87l.55.61a1.09,1.09,0,0,1-.15-.46,2,2,0,0,1,.06-.53l.6.41a2.27,2.27,0,0,1-.2-.89,1.33,1.33,0,0,1,.2-.75l.69.85a4.41,4.41,0,0,1-.07-.9,5.25,5.25,0,0,0-.21-1.29l.46.89a5.08,5.08,0,0,0,0-1,3.92,3.92,0,0,0-.33-1.08s.19.14.38.31a1,1,0,0,1,.27.4S26,11.42,25.57,10.68ZM16.85,8.75A3.32,3.32,0,0,1,16.7,8a2.21,2.21,0,0,0,.21.61,3.78,3.78,0,0,0,.44.63A.94.94,0,0,1,16.85,8.75Z" transform="translate(0)" fill="#212121"/><path d="M4.75,9.15a5,5,0,0,1-1.46-1,3.38,3.38,0,0,1-.75-1.63,4,4,0,0,0-.11-1l.34.4a3,3,0,0,1-.19-.86,2.82,2.82,0,0,1,.13-.71,2.29,2.29,0,0,0,0-.6L2.84,4s.15-.1.22-.57,0-.64.25-.76A3.93,3.93,0,0,1,4.72,2.4c.54,0,.55.2,1.16.2a2.7,2.7,0,0,1,1.51.29c.49.28,1.36.94,1.36,1.13S7.93,5.73,7.44,5.73s-1.33.57-1.79.57-.49-.06-.49-.16.22-.24.22-.48S4.55,5,4.55,5A2.66,2.66,0,0,0,4.9,5c.15,0,.18-.26-.16-.64s-.43-.45-.43-.58.29-.37.81-.62a3.68,3.68,0,0,1,1.21-.26A5.59,5.59,0,0,0,4.63,3c-.86.23-1,.58-1,.72s.49.64.49,1,0,.54.32.8.33.34,0,.71S4,6.66,4,7.46A2,2,0,0,0,4.75,9.15Z" transform="translate(0)" fill="#212121"/><path d="M14.19,3.14a2.42,2.42,0,0,0-.46-.35,2,2,0,0,0-.62-.17l.32.3A1.48,1.48,0,0,0,13,2.77a.57.57,0,0,0-.39,0l.3.59A2.05,2.05,0,0,0,11.56,3l.27.44a2.22,2.22,0,0,1-.43-.16,3,3,0,0,1-.48-.3.93.93,0,0,0-.05.54,2.32,2.32,0,0,0,.22.4,1.55,1.55,0,0,1-.53.11,2.6,2.6,0,0,1-.81-.29l.34.41A3.19,3.19,0,0,1,9.34,4c-.26-.11-.29-.43-.46-.74s-.49-.41-.49-.54.81-.46.81-.46l-.08-.22a1.22,1.22,0,0,1,.56-.2,3,3,0,0,1,.73.05l-.28-.32a1.42,1.42,0,0,1,.61-.1c.42,0,.8,0,.8,0l-.33-.3a1.4,1.4,0,0,1,.45.06.87.87,0,0,1,.34.24,2.29,2.29,0,0,0,0-.68,1,1,0,0,0-.27-.48,1.42,1.42,0,0,1,.52.16,2.32,2.32,0,0,1,.36.28,1.58,1.58,0,0,0,.29-.33c.12-.2.26-.49.26-.49a2.61,2.61,0,0,0,.16,1.42,3.85,3.85,0,0,1,.64.92A4.3,4.3,0,0,1,14.19,3.14Z" transform="translate(0)" fill="#212121"/><path d="M14.47,20.27c-.17,0-.69-.75-1-.75s-.32.17-.32,0,.47-.71.79-.71.56.93.56,1.15S14.54,20.27,14.47,20.27Z" transform="translate(0)" fill="#212121"/><path d="M15,22.37c-.62,0-2,.22-2,.5s.37.2.5.15A5.72,5.72,0,0,1,15,22.94Z" transform="translate(0)" fill="#212121"/><path d="M12,12.74c0,.09-.23.19-.5.19s-.68-.19-.68-.54.05-.33.4-.33A1,1,0,0,1,12,12.74Z" transform="translate(0)" fill="#212121"/><path d="M4.37,9.61c0-.16-.48-.31-.86-.36a2.66,2.66,0,0,0-.66,0l.37.24a1,1,0,0,1-.32.34.86.86,0,0,1-.46.13l.69.42s0,.22-.43.39A2.8,2.8,0,0,1,2,11h.84a2.49,2.49,0,0,1-.22.34,1.37,1.37,0,0,1-.42.33h.36a1.28,1.28,0,0,1-.25.44,1.67,1.67,0,0,1-.47.32l.63-.09a1.56,1.56,0,0,1-.12.71,1.85,1.85,0,0,1-.47.66l.83-.45A7.43,7.43,0,0,0,2,15.11a4.82,4.82,0,0,0,0,1.26,5.68,5.68,0,0,1-.34,1.18l.45-.42a4.93,4.93,0,0,1,.52,1.44,3.33,3.33,0,0,1-.11,1.29A6.08,6.08,0,0,0,3,19.23a1.79,1.79,0,0,0,.25-.59,2.53,2.53,0,0,1,.29.93c0,.39-.11.55-.11,1A2.35,2.35,0,0,0,4,21.73a2.72,2.72,0,0,1-.07-.54.85.85,0,0,1,.1-.42s.19.11.36.62a6.08,6.08,0,0,0,.71,1.23L5.21,22s.73.36.83.95a2.43,2.43,0,0,1-.11,1.17l.46-.47a3.65,3.65,0,0,0,.46.88,1.8,1.8,0,0,0,.78.62l-.1-.58a1.91,1.91,0,0,0,.54.54c.29.16.43.76.43.76l.29-.53a2,2,0,0,1,.49.9,2.66,2.66,0,0,0,.58,1l.22-.66s.77.58.89,1a2.15,2.15,0,0,1,.07.79l.49-.53a.6.6,0,0,0,.2.4,1.59,1.59,0,0,0,.54.32L12,28s.31-.05.92.52a2.08,2.08,0,0,1,.69,1.09s.11-.25.18-.46a1.16,1.16,0,0,0,.06-.39,1.17,1.17,0,0,1,.49.53c.1.32.22.73.22.73l.15-.42s.3,0,.3.15v-.8c-.23,0-.6-.43-.78-.95a11.06,11.06,0,0,1-.3-1.45l-.49.7a4.21,4.21,0,0,0-.39-.9,2.68,2.68,0,0,0-.64-.69l.09.6a2.68,2.68,0,0,1-.79-.71,2.94,2.94,0,0,1-.39-1l-.19.79a4.7,4.7,0,0,1-.11-.55,1.34,1.34,0,0,0-.34-.64l-.05.71a1.23,1.23,0,0,1-.37-.42,6.93,6.93,0,0,1-.24-.73l-.19.39a4.77,4.77,0,0,0-.3-.74,3.07,3.07,0,0,0-.59-.81,2.35,2.35,0,0,1,0,.72,1.16,1.16,0,0,1-.28.49,3.28,3.28,0,0,0-.31-1.27c-.31-.65-.6-1.47-.6-1.47l-.13.83a.86.86,0,0,1-.4-.48,1.26,1.26,0,0,1,.14-.78l-.64.68s0-.33,0-.66a1.75,1.75,0,0,0-.25-.67l-.13.87a4.47,4.47,0,0,1-.3-.84,9.8,9.8,0,0,1-.23-1.1l-.15.76a7.73,7.73,0,0,0-1.08-1.16c-.62-.54-.74-2.23-.74-2.23a1.8,1.8,0,0,0-.46.61,1.69,1.69,0,0,0-.07.66,2,2,0,0,1-.31-1c0-.57.18-1,.18-1.58S3,14.1,3,13.56a2.57,2.57,0,0,1,.29-1.07s-.1,1.4.09,1.6a1.76,1.76,0,0,1,.06,1.31c-.14.14-.06.8-.06.8a1.68,1.68,0,0,1,.4-.62c.29-.27.45-.27.45-.27a4.19,4.19,0,0,0,0,1.06,2.6,2.6,0,0,0,.4,1l.1-.76a1.53,1.53,0,0,0,.15.5,1.05,1.05,0,0,0,.44.43L5.43,17A2.08,2.08,0,0,0,6,17.9c.41.3.55,1.47.55,1.47a3.74,3.74,0,0,0,.11-.65,2.94,2.94,0,0,0,0-.44,2.52,2.52,0,0,0,.47.75.93.93,0,0,0,.49.29l-.14-.55a2.85,2.85,0,0,1,.59.95,4.18,4.18,0,0,1,.23,1,1,1,0,0,0,.22-.4,2.44,2.44,0,0,0,.06-.52,7.93,7.93,0,0,1,1.15,1.13c.29.43,1.6,1.6,1.83,2.4s.45,1.52,1.05,1.52S13.72,26,13.72,26l.27-.42a1,1,0,0,0,.47.44c.32.15.54.74.54.74V24.26a.89.89,0,0,0-.48-.59,4.37,4.37,0,0,0-1.18-.09.84.84,0,0,1,.23.41,1.25,1.25,0,0,1,0,.47,1.43,1.43,0,0,1-.49-.67,1.13,1.13,0,0,0-.8-.89c-.5-.15-.9-1.35-1.47-1.69A6.47,6.47,0,0,1,9,18.81a4.39,4.39,0,0,0-.34-1l-.43.68a4,4,0,0,0,0-.51,2.44,2.44,0,0,0-.17-.79s0,.42,0,.63a2.4,2.4,0,0,1-.06.41,4.77,4.77,0,0,1-.71-.65,4.62,4.62,0,0,1-.51-.76,1.75,1.75,0,0,0,.06.45,3.69,3.69,0,0,0,.14.39,1,1,0,0,1-.53-.79,4.59,4.59,0,0,0-.32-1.07l-.58.55A.91.91,0,0,1,5.38,16a2.52,2.52,0,0,1,.13-.73l-.51.2a2.43,2.43,0,0,0,.09-.52c0-.31,0-.58,0-.58a3,3,0,0,1-.42.36,1,1,0,0,1-.53.13,1.85,1.85,0,0,0,0-1.16A8.13,8.13,0,0,1,4,12l-.2.5a1.68,1.68,0,0,1-.22-.64,1.94,1.94,0,0,1,0-.7l-.52.3s0-.29.44-1S4.37,9.81,4.37,9.61Z" transform="translate(0)" fill="#212121"/><path d="M4.11,11.61a1,1,0,0,1,.27-.4c.19-.17.38-.31.38-.31A3.92,3.92,0,0,0,4.43,12a5.08,5.08,0,0,0,0,1l.46-.89a5.25,5.25,0,0,0-.21,1.29,4.41,4.41,0,0,1-.07.9l.69-.85a1.33,1.33,0,0,1,.2.75,2.27,2.27,0,0,1-.2.89l.6-.41a2,2,0,0,1,.06.53,1.09,1.09,0,0,1-.15.46l.55-.61a5.85,5.85,0,0,0,.15.87,1.63,1.63,0,0,0,.38.66l.07-.26a2.87,2.87,0,0,0,.25.6,2.45,2.45,0,0,0,.63.61,1.6,1.6,0,0,1-.17-.8A1.9,1.9,0,0,0,7.52,16s.23.26.48.49a1.44,1.44,0,0,1,.34.69L8.39,17a3.43,3.43,0,0,1,.44.53,5.25,5.25,0,0,1,.63,1.57c.21.68,1.26,1.37,1.26,1.37a1.38,1.38,0,0,1-.18-.34,1.33,1.33,0,0,1,0-.32.89.89,0,0,1,.36.15,1.82,1.82,0,0,1,.38.44,2.21,2.21,0,0,1-.21-.82c0-.38.19-.55.19-.94S11,17.67,11,16.76a6.6,6.6,0,0,1,.42-2,1.54,1.54,0,0,1-1,.47,4.36,4.36,0,0,0-.8.06l.25-.42s-.09.08-.6.08a1.2,1.2,0,0,1-.82-.31,3.47,3.47,0,0,0,.94.1,1.35,1.35,0,0,0,.91-.28l-.14.42a2.47,2.47,0,0,0,1.24-.57,2.84,2.84,0,0,0,.75-1.07,1,1,0,0,1-.44.12h-.35l.2-.25a1.29,1.29,0,0,1-.43.18c-.14,0-.22.08-.74-.53s0-.76-.5-.76a1.57,1.57,0,0,0-.92.5,1.48,1.48,0,0,1,0-.78,2.13,2.13,0,0,1,.53-.9,1.62,1.62,0,0,0-.1.49,1,1,0,0,0,.1.43.9.9,0,0,1,.23-.3.58.58,0,0,1,.33-.12s.44.46.63.46.28-.28.79-.28.58.21,1,.69.18.84,0,1.22A3.73,3.73,0,0,0,12.07,15a26.21,26.21,0,0,0-.42,2.79c0,1.2-.23,1.15-.23,1.91a3.34,3.34,0,0,0,.49,2.11c.44.52.86.64,1.1.52s1.4,0,1.54-.14.2-1.2,0-1.25A4.89,4.89,0,0,1,13,20.22a2.63,2.63,0,0,1-.38-1.41c0-.49.68-1,1-1.26s.94-.21,1.39-.21V12.21s-.06-.83-.12-1.35-.24-1.38-.24-1.38l.24.7S14.73,7,14.6,6.65s-.27-2.21-.31-2.46S13.23,3,13.23,3a2.92,2.92,0,0,1,0,.5.59.59,0,0,1-.14.32,1.45,1.45,0,0,0-.38-.26,1,1,0,0,0-.42-.09l.15.3a1.57,1.57,0,0,1-.62,0,1.82,1.82,0,0,1-.68-.31,1.68,1.68,0,0,0,.16.41,1.24,1.24,0,0,0,.19.28h-.32a.41.41,0,0,1-.32.23,4.27,4.27,0,0,1-.45,0l.25.21a1.3,1.3,0,0,1-1.38-.15s-.45,1-.87,1.15a2.42,2.42,0,0,0-1.07.9C7,7,6.53,7.24,6.22,7.65a3.8,3.8,0,0,1-1,.81h.44a1.69,1.69,0,0,0-.37.77c-.09.46-.42.7-.81,1.45S4.11,11.61,4.11,11.61Zm8.54-2.42a3.78,3.78,0,0,0,.44-.63A2.21,2.21,0,0,0,13.3,8a3.32,3.32,0,0,1-.15.8A.94.94,0,0,1,12.65,9.19Z" transform="translate(0)" fill="#212121"/><rect width="30" height="30" fill="none"/></svg>