<svg xmlns="http://www.w3.org/2000/svg" viewBox="0 0 30 30"><path d="M15.16,30a8.51,8.51,0,0,0,2.56-1.46c1.07-1,2.66-1.83,3.44-2.47a16.44,16.44,0,0,0,1.29-1.17,4,4,0,0,1-1-2.26A6.12,6.12,0,0,1,22,19.86a3.9,3.9,0,0,0-1.1,2.08A10.53,10.53,0,0,0,21,23.86c-.08.25-.3.21-.92,1s-1.51,1.58-2,2.36a9.87,9.87,0,0,1-1.41,1.82A8.72,8.72,0,0,1,15.16,30Z" transform="translate(0)" fill="#212121"/><path d="M18.51,19.12c0-.29,0-.43-.59-.94a11,11,0,0,1-1.58-2.79,7.57,7.57,0,0,1-.29-1s-.5,1-1.05,1v9.1c.39,0,1.26-.49,1.72-1.73s.46-1.9,1.17-2.59S18.51,19.42,18.51,19.12Zm-2.46-.82c-.14.32-.06.82-.28.82s-.11-.65-.06-1,.23-.86.47-.77S16.2,18,16.05,18.3Z" transform="translate(0)" fill="#212121"/><path d="M19.77,18.8a3,3,0,0,0,2.44-1.63A2,2,0,0,0,22,14.79c-.52-.68-2.15-1.93-2.84-2.87s-1.5-2.28-1.89-2.64a1.1,1.1,0,0,1-.31-1.07c0-.27.68,1,.68,1a7.64,7.64,0,0,1,0-1.43,6.15,6.15,0,0,1,.73-1.54,2.82,2.82,0,0,0-.68.56,3.1,3.1,0,0,0-.35.71,2,2,0,0,1,0-1c.12-.48.43-.73.53-1.06a1.39,1.39,0,0,0,0-.62,1.69,1.69,0,0,0-.29.48,3.31,3.31,0,0,0-.1.44,5.21,5.21,0,0,1,.12-1.31,14.45,14.45,0,0,1,.75-2.15,4.94,4.94,0,0,1,1.42,2.13,7.43,7.43,0,0,1,.28,2.67S19.25,7,18.78,8.2a8.43,8.43,0,0,0-.55,1.93,1.36,1.36,0,0,1,.42.4,4.17,4.17,0,0,0,.42.54,5.29,5.29,0,0,1-.31-.73.89.89,0,0,1,0-.52,1.21,1.21,0,0,0,1-.5,1.28,1.28,0,0,0,.05-1.18,1.89,1.89,0,0,1,0-.74,1,1,0,0,1,.62.75c.19.65.22.89.43,1a.9.9,0,0,0,.45.14,1.69,1.69,0,0,0-.29.91,3.11,3.11,0,0,0,.59,1.67c.36.43.62.67.93.35s.13-.93-.08-1.59A6.78,6.78,0,0,0,21.72,9a13.15,13.15,0,0,1-1.36-3.15,7.88,7.88,0,0,0-.69-2.66A5.86,5.86,0,0,0,17.16.51a5,5,0,0,0-2-.51V.88a4.74,4.74,0,0,1,1.95.34c.21.22.24.71.06,1.69s-1,5.37-1.09,6.55a19.24,19.24,0,0,0,.86,5C17.23,15.17,19,18.8,19.77,18.8Z" transform="translate(0)" fill="#212121"/><path d="M14.84,30a8.51,8.51,0,0,1-2.56-1.46c-1.07-1-2.66-1.83-3.44-2.47A16.44,16.44,0,0,1,7.55,24.9a4,4,0,0,0,1-2.26,6.12,6.12,0,0,0-.49-2.78,3.9,3.9,0,0,1,1.1,2.08A10.53,10.53,0,0,1,9,23.86c.08.25.3.21.92,1s1.51,1.58,2,2.36a9.87,9.87,0,0,0,1.41,1.82A8.72,8.72,0,0,0,14.84,30Z" transform="translate(0)" fill="#212121"/><path d="M12.11,20.19c.71.69.72,1.35,1.17,2.59s1.33,1.73,1.72,1.73v-9.1c-.55,0-1.05-1-1.05-1a7.57,7.57,0,0,1-.29,1,11,11,0,0,1-1.58,2.79c-.56.51-.59.65-.59.94S11.41,19.49,12.11,20.19Zm1.71-2.8c.24-.09.41.46.47.77s.16,1-.06,1-.14-.5-.28-.82S13.58,17.49,13.82,17.39Z" transform="translate(0)" fill="#212121"/><path d="M10.23,18.8a3,3,0,0,1-2.44-1.63A2,2,0,0,1,8,14.79c.52-.68,2.15-1.93,2.84-2.87s1.5-2.28,1.89-2.64a1.1,1.1,0,0,0,.31-1.07c0-.27-.68,1-.68,1a7.64,7.64,0,0,0,0-1.43,6.15,6.15,0,0,0-.73-1.54,2.82,2.82,0,0,1,.68.56,3.1,3.1,0,0,1,.35.71,2,2,0,0,0,0-1c-.12-.48-.43-.73-.53-1.06a1.39,1.39,0,0,1,0-.62,1.69,1.69,0,0,1,.29.48,3.31,3.31,0,0,1,.1.44,5.21,5.21,0,0,0-.12-1.31,14.45,14.45,0,0,0-.75-2.15,4.94,4.94,0,0,0-1.42,2.13A7.43,7.43,0,0,0,10,7.11s.8-.11,1.27,1.09a8.43,8.43,0,0,1,.55,1.93,1.36,1.36,0,0,0-.42.4,4.17,4.17,0,0,1-.42.54,5.29,5.29,0,0,0,.31-.73.89.89,0,0,0,0-.52,1.21,1.21,0,0,1-1-.5,1.28,1.28,0,0,1,0-1.18,1.89,1.89,0,0,0,0-.74,1,1,0,0,0-.62.75c-.19.65-.22.89-.43,1a.9.9,0,0,1-.45.14,1.69,1.69,0,0,1,.29.91,3.11,3.11,0,0,1-.59,1.67c-.36.43-.62.67-.93.35s-.13-.93.08-1.59A6.78,6.78,0,0,1,8.28,9,13.15,13.15,0,0,0,9.64,5.84a7.88,7.88,0,0,1,.69-2.66A5.86,5.86,0,0,1,12.84.51a5,5,0,0,1,2-.51V.88a4.74,4.74,0,0,0-1.95.34c-.21.22-.24.71-.06,1.69s1,5.37,1.09,6.55a19.24,19.24,0,0,1-.86,5C12.77,15.17,11,18.8,10.23,18.8Z" transform="translate(0)" fill="#212121"/><rect width="30" height="30" fill="none"/></svg>