<!-- Copyright (c) 2022 Jan Stehno -->
<svg xmlns="http://www.w3.org/2000/svg" viewBox="0 0 300 300"><title>harlequinduck</title><g id="harlequinduck"><g id="right"><path d="M151.56,300s14.81-5,25.6-14.62,26.64-18.32,34.44-24.69A152.38,152.38,0,0,0,224.46,249a40.37,40.37,0,0,1-9.87-22.61c-1.43-14,4.94-27.81,4.94-27.81s-9.88,9.49-11.05,20.79,2.21,16.77,1.43,19.24-3,2.08-9.23,10.26-15.07,15.86-20.14,23.65-9.84,14.14-14.17,18.2S151.56,300,151.56,300Z" transform="translate(0)" fill="#212121"/><path d="M185.09,191.23c0-2.93-.29-4.29-5.85-9.46s-14-22.9-15.89-27.87a75.9,75.9,0,0,1-2.82-9.55s-5.07,9.74-10.53,9.74v91c3.9,0,12.57-4.93,17.15-17.31s4.68-19,11.7-25.93S185.09,194.15,185.09,191.23ZM160.53,183c-1.43,3.12-.59,8.19-2.86,8.19s-1.11-6.5-.52-9.62,2.27-8.58,4.68-7.67S162,179.92,160.53,183Z" transform="translate(0)" fill="#212121"/><path d="M197.69,188c7.48,0,19.24-5.59,24.37-16.25s2.73-17-2.47-23.84-21.44-19.33-28.36-28.69-15-22.81-18.91-26.41-3.66-8-3.17-10.72S176,92,176,92s-.63-9,.2-14.23,7.31-15.4,7.31-15.4-4.63,2.68-6.77,5.55a28.59,28.59,0,0,0-3.51,7.17A20.14,20.14,0,0,1,173,65.3c1.27-4.82,4.34-7.26,5.36-10.57a12.92,12.92,0,0,0,.35-6.19,15.89,15.89,0,0,0-2.83,4.73,30.89,30.89,0,0,0-1,4.38A53.42,53.42,0,0,1,176,44.59c1.56-7.7,7.56-21.44,7.56-21.44a49,49,0,0,1,14.13,21.29,74.45,74.45,0,0,1,2.83,26.61S192.5,70,187.82,82s-5.56,19.3-5.56,19.3a14.11,14.11,0,0,1,4.19,4.06,47.34,47.34,0,0,0,4.29,5.39,50.59,50.59,0,0,1-3.18-7.28,10,10,0,0,1,.19-5.26s7.34.26,10.27-4.94a12.78,12.78,0,0,0,.52-11.82c-.91-1.69.13-7.41.13-7.41s4.35,1.1,6.24,7.54,2.14,8.9,4.28,10.26a9.27,9.27,0,0,0,4.49,1.37s-3.06,4.42-2.86,9.09,2.21,12.41,5.85,16.7,6.23,6.76,9.29,3.51,1.3-9.29-.72-15.92-4.61-10.91-8.05-16.63-11.37-21.38-13.58-31.52-1.43-16.63-7-26.64-14.19-22.51-25-26.7S156.92,0,151.56,0V8.77c5.51,0,17.4,1.27,19.54,3.46s2.44,7.12.64,16.91-10.17,53.64-11,65.47,5.68,42.43,8.61,49.74S189.64,188,197.69,188Z" transform="translate(0)" fill="#212121"/></g><g id="left"><path d="M148.44,300s-14.81-5-25.6-14.62S96.2,267.06,88.4,260.69A152.38,152.38,0,0,1,75.54,249a40.37,40.37,0,0,0,9.87-22.61c1.43-14-4.94-27.81-4.94-27.81s9.88,9.49,11,20.79-2.21,16.77-1.43,19.24,3,2.08,9.23,10.26,15.07,15.86,20.14,23.65,9.84,14.14,14.17,18.2S148.44,300,148.44,300Z" transform="translate(0)" fill="#212121"/><path d="M121.15,201.85c7,6.92,7.11,13.55,11.7,25.93S146.1,245.09,150,245.09v-91c-5.46,0-10.53-9.74-10.53-9.74a75.9,75.9,0,0,1-2.82,9.55c-1.85,5-10.33,22.71-15.89,27.87s-5.85,6.53-5.85,9.46S114.13,194.93,121.15,201.85Zm17-27.91c2.41-.91,4.1,4.55,4.68,7.67s1.69,9.62-.52,9.62-1.43-5.07-2.86-8.19S135.77,174.85,138.17,173.94Z" transform="translate(0)" fill="#212121"/><path d="M102.31,188c-7.48,0-19.24-5.59-24.37-16.25s-2.73-17,2.47-23.84,21.44-19.33,28.36-28.69,15-22.81,18.91-26.41,3.66-8,3.17-10.72S124,92,124,92s.63-9-.2-14.23-7.31-15.4-7.31-15.4,4.63,2.68,6.77,5.55a28.59,28.59,0,0,1,3.51,7.17,20.14,20.14,0,0,0,.25-9.75c-1.27-4.82-4.34-7.26-5.36-10.57a12.92,12.92,0,0,1-.35-6.19,15.89,15.89,0,0,1,2.83,4.73,30.89,30.89,0,0,1,1,4.38A53.42,53.42,0,0,0,124,44.59c-1.56-7.7-7.56-21.44-7.56-21.44a49,49,0,0,0-14.13,21.29,74.45,74.45,0,0,0-2.83,26.61S107.5,70,112.18,82s5.56,19.3,5.56,19.3a14.11,14.11,0,0,0-4.19,4.06,47.34,47.34,0,0,1-4.29,5.39,50.59,50.59,0,0,0,3.18-7.28,10,10,0,0,0-.19-5.26s-7.34.26-10.27-4.94a12.78,12.78,0,0,1-.52-11.82c.91-1.69-.13-7.41-.13-7.41s-4.35,1.1-6.24,7.54S93,90.45,90.81,91.81a9.27,9.27,0,0,1-4.49,1.37s3.06,4.42,2.86,9.09S87,114.68,83.33,119s-6.23,6.76-9.29,3.51-1.3-9.29.72-15.92,4.61-10.91,8-16.63S94.18,68.55,96.39,58.41s1.43-16.63,7-26.64,14.19-22.51,25-26.7S143.08,0,148.44,0V8.77c-5.51,0-17.4,1.27-19.54,3.46s-2.44,7.12-.64,16.91,10.17,53.64,11,65.47-5.68,42.43-8.61,49.74S110.36,188,102.31,188Z" transform="translate(0)" fill="#212121"/></g></g><g id="frame"><rect width="300" height="300" fill="none"/></g></svg>