<!-- Copyright (c) 2022 - 2023 Jan Stehno -->
<svg xmlns="http://www.w3.org/2000/svg" viewBox="0 0 300 300"><title>hazelgrouse</title><g id="hazelgrouse"><g id="right"><path d="M150,5.45c.71,0,1.86-5.45,4.07-5.45s9.39,17.21,10.81,17.21.52-3.91,1.58-3.91,3.36,2.06,3.71,6.79,6,14.25,7,14.25,1.1-1.14,2.37-1.14,5.52,10.58,6.63,15.12,2.68,4.81,3.31,3.19,2.53-1.18,3.68,1.86,6.51,17.92,8.68,19.85,3.61.22,5.57,2.18,2.13,16.46.19,23.17-5.76,10.18-11.25,16.38-6.59,12.43-8,12.43-1.78-5.25-7.22-8.88-10.5-4.81-17.33-4.81-9,5.13-9,7,7.22,3.6,7.22,6.48.63,13.89-.67,15.19-4.38-1.14-6-2.44-4-3.83-5.41-3.83Z" transform="translate(0 0)" fill="#212121"/><path d="M158,119.84c0-1.93.12-3.35,4.58-3.35s21.24,3.35,21.24,15.2-5.65,15.86-10,15.86A11.27,11.27,0,0,1,165,143.8c-1.66-1.93-1.62-4.06-1.62-8.44s.79-5.06.79-8.13-1.78-4.35-3.16-4.78S158,120.94,158,119.84Z" transform="translate(0 0)" fill="#212121"/><path d="M172.58,130c2.33,0,5.64,5.21,5.64,9.28s-1.1,4.26-3.27,4.26-5.88-4.38-5.88-7.34S171.08,130,172.58,130Z" transform="translate(0 0)" fill="#212121"/><path d="M150,141.16c3,0,8.61,8.92,10.3,8.92s-.23-1,3.63-1,8.45,2.06,8.45,4.31-1.3,2-6.27,6.35-7.86,18.16-16.11,18.16Z" transform="translate(0 0)" fill="#212121"/><path d="M190.12,136.54a.77.77,0,0,1,1-.78,8.58,8.58,0,0,0,2.34.27c2.53,0,4.26-1.66,4.26-6.08s-3.51-5.76-3.51-6.75,1.11-1.18,2.13-1.18,5.92,4,5.92,9.63-3.55,9.08-7,9.08C192.38,140.73,190.24,138.67,190.12,136.54Z" transform="translate(0 0)" fill="#212121"/><path d="M199,119.65c0-1.5,4.14-6.44,5.6-6.44s37,25.7,44.37,54.75,9.48,54.48,4.58,73.27-14.49,25.14-16.93,27.08-3.6,2-4.54,2-1.9-3.12-6.91-9.43S219,253.82,219,253s1.3-1.7,1.3-5.21,3.4-7.14,5.53-7.14,2.72,1.38,5.09,1.38,5.25-4.15,5.25-6.83-5.56-9.44-5.56-11.37,3.53,0,5.6-2.09-.83-8.29-.83-13.9,1.23-8.21,3-12.19,1.11-11.93-1.22-15.44-4.38-7.42-4.38-8.64,5.09-1.35,5.09-5.37-3.36-5.65-3.36-6.52,1.47-.82,1.47-3.15-18.75-12.24-21.87-12.24-5.45,3.31-9.52,6.08-6.22,3-8.4.67-3.43-3.83,0-2.21,7,.83,9.55-3.59,2.64-12.08.59-16.54S199,120.55,199,119.65Z" transform="translate(0 0)" fill="#212121"/><path d="M204.91,136c.69-.76-1.11,8.17-2.88,10-1.49,1.56-4.56,2.22-8,0s-5.65-3.51-2.89,1.15,5.09,7.82,7.58,7.82,12-7.78,14.84-7.78,18.52,7.85,18.52,9.16-5.21-1.31-5.21,0,7.89,6.55,7.89,9.31-5.17,1.42-6.35,2.61,7.61,14.05,7.61,21.12-4.1,8.76-4.1,16.14,1.93,10.27,1.93,12.71-4,.87-6.08,2.92,3,7.82,4.07,11.49-.08,6.2-2.41,6.2-3.43-1.23-4.81-1.23-6.36,3.83-7.39,7.15,1.11,7.74-2.76,4.54-9.55-7.26-4.06-1.15,15,18.48,15,22.5S222.63,276,217,276s-13-7.77-15-8.64,6.47,5.92,6.47,8.64-2.88,5.53-6.87,5.81-11.64,7-14.21,9.39-3.89,2.63-4.69,1.82-3.64,4.26-6.79,6-11.89,1.1-17.18-1.38S152,294,150,294s-1-47.44,0-47.44,1.09-3.32,2.23-4.33,9-1.71,10.09-.92,3,6.13,4.16,6.13,1.66-6,2.49-7.42,11.76-3.15,13.14-3,1.9,2.37,2.88,2.37,1.07-1.74,2-1.74,9,10.62,9,9-4.86-9.79-4.86-11.09,10.82-4.42,12.2-5.68,6.91,3.27,8.29,3.35-.51-3.43-1.5-5.21-1.07-2.41,3-4.69,6.79-5.73,7.46-11.89.87-6.79,2-6.79,4.7,1.94,4.7.52-4.22-3-4.22-6.08,1.54-5.45,1.54-11.05-6.63-10.58-8.25-10.58-2.49,8.32-9.16,13.26-16.5,3.63-20.53-1.11-8.21-12.79-13.58-20.13-6-6.75-3.12-9.59,12.24-9.87,14.29-15.75.48-7.58,3-8.37.87,2.8,2.49,4.34a13.17,13.17,0,0,0,8,3.32C201.63,143.49,204.16,136.86,204.91,136Z" transform="translate(0 0)" fill="#212121"/></g><g id="left"><path d="M150,5.45c-.71,0-1.86-5.45-4.07-5.45s-9.39,17.21-10.81,17.21-.52-3.91-1.58-3.91-3.36,2.06-3.71,6.79-6,14.25-7,14.25-1.1-1.14-2.37-1.14S115,43.78,113.84,48.32s-2.68,4.81-3.31,3.19-2.53-1.18-3.68,1.86-6.51,17.92-8.68,19.85-3.61.22-5.57,2.18-2.13,16.46-.19,23.17,5.76,10.18,11.25,16.38,6.59,12.43,8,12.43,1.78-5.25,7.22-8.88,10.5-4.81,17.33-4.81,9,5.13,9,7-7.22,3.6-7.22,6.48-.63,13.89.67,15.19,4.38-1.14,6-2.44,4-3.83,5.41-3.83Z" transform="translate(0 0)" fill="#212121"/><path d="M142,119.84c0-1.93-.12-3.35-4.58-3.35s-21.24,3.35-21.24,15.2,5.65,15.86,10,15.86A11.27,11.27,0,0,0,135,143.8c1.66-1.93,1.62-4.06,1.62-8.44s-.79-5.06-.79-8.13,1.78-4.35,3.16-4.78S142,120.94,142,119.84Z" transform="translate(0 0)" fill="#212121"/><path d="M127.42,130c-2.33,0-5.64,5.21-5.64,9.28s1.1,4.26,3.27,4.26,5.88-4.38,5.88-7.34S128.92,130,127.42,130Z" transform="translate(0 0)" fill="#212121"/><path d="M150,141.16c-3,0-8.61,8.92-10.3,8.92s.23-1-3.63-1-8.45,2.06-8.45,4.31,1.3,2,6.27,6.35,7.86,18.16,16.11,18.16Z" transform="translate(0 0)" fill="#212121"/><path d="M109.88,136.54a.77.77,0,0,0-1-.78,8.58,8.58,0,0,1-2.34.27c-2.53,0-4.26-1.66-4.26-6.08s3.51-5.76,3.51-6.75-1.11-1.18-2.13-1.18-5.92,4-5.92,9.63,3.55,9.08,7,9.08C107.62,140.73,109.76,138.67,109.88,136.54Z" transform="translate(0 0)" fill="#212121"/><path d="M101,119.65c0-1.5-4.14-6.44-5.6-6.44S58.42,138.91,51,168s-9.48,54.48-4.58,73.27,14.49,25.14,16.93,27.08,3.6,2,4.54,2,1.9-3.12,6.91-9.43S81,253.82,81,253s-1.3-1.7-1.3-5.21-3.4-7.14-5.53-7.14S71.49,242,69.12,242s-5.25-4.15-5.25-6.83,5.56-9.44,5.56-11.37-3.53,0-5.6-2.09.83-8.29.83-13.9-1.23-8.21-3-12.19-1.11-11.93,1.22-15.44,4.38-7.42,4.38-8.64-5.09-1.35-5.09-5.37,3.36-5.65,3.36-6.52S64,158.81,64,156.48s18.75-12.24,21.87-12.24,5.45,3.31,9.52,6.08,6.22,3,8.4.67,3.43-3.83,0-2.21-7,.83-9.55-3.59-2.64-12.08-.59-16.54S101,120.55,101,119.65Z" transform="translate(0 0)" fill="#212121"/><path d="M95.09,136c-.69-.76,1.11,8.17,2.88,10,1.49,1.56,4.56,2.22,8,0s5.65-3.51,2.89,1.15-5.09,7.82-7.58,7.82-12-7.78-14.84-7.78-18.52,7.85-18.52,9.16,5.21-1.31,5.21,0-7.89,6.55-7.89,9.31,5.17,1.42,6.35,2.61S64,182.37,64,189.44s4.1,8.76,4.1,16.14-1.93,10.27-1.93,12.71,4,.87,6.08,2.92-3,7.82-4.07,11.49.08,6.2,2.41,6.2,3.43-1.23,4.81-1.23,6.36,3.83,7.39,7.15-1.11,7.74,2.76,4.54,9.55-7.26,4.06-1.15-15,18.48-15,22.5S77.37,276,83,276s13-7.77,15-8.64-6.47,5.92-6.47,8.64,2.88,5.53,6.87,5.81,11.64,7,14.21,9.39,3.89,2.63,4.69,1.82,3.64,4.26,6.79,6,11.89,1.1,17.18-1.38S148,294,150,294s1-47.44,0-47.44-1.09-3.32-2.23-4.33-9-1.71-10.09-.92-3,6.13-4.16,6.13-1.66-6-2.49-7.42-11.76-3.15-13.14-3-1.9,2.37-2.88,2.37-1.07-1.74-2-1.74-9,10.62-9,9,4.86-9.79,4.86-11.09S98,231.2,96.63,229.94s-6.91,3.27-8.29,3.35.51-3.43,1.5-5.21,1.07-2.41-3-4.69-6.79-5.73-7.46-11.89-.87-6.79-2-6.79-4.7,1.94-4.7.52,4.22-3,4.22-6.08-1.54-5.45-1.54-11.05,6.63-10.58,8.25-10.58,2.49,8.32,9.16,13.26,16.5,3.63,20.53-1.11,8.21-12.79,13.58-20.13,6-6.75,3.12-9.59-12.24-9.87-14.29-15.75-.48-7.58-3-8.37-.87,2.8-2.49,4.34a13.17,13.17,0,0,1-8,3.32C98.37,143.49,95.84,136.86,95.09,136Z" transform="translate(0 0)" fill="#212121"/></g></g><g id="frame"><rect width="300" height="300" fill="none"/></g></svg>