<svg xmlns="http://www.w3.org/2000/svg" viewBox="0 0 30 30"><path d="M15,.54c.07,0,.19-.54.41-.54s.94,1.72,1.08,1.72.05-.39.16-.39S17,1.54,17,2a3,3,0,0,0,.7,1.42c.09,0,.11-.11.23-.11a4.42,4.42,0,0,1,.67,1.51c.11.46.26.48.33.32s.25-.12.36.19a12.33,12.33,0,0,0,.87,2c.22.2.36,0,.56.22a4.64,4.64,0,0,1,0,2.32,4,4,0,0,1-1.13,1.63c-.54.62-.65,1.25-.79,1.25s-.18-.53-.73-.89a2.87,2.87,0,0,0-1.73-.48.83.83,0,0,0-.9.7c0,.18.72.36.72.64a5.66,5.66,0,0,1-.06,1.52c-.13.13-.44-.11-.6-.24s-.4-.38-.54-.38Z" transform="translate(0)" fill="#212121"/><path d="M15.8,12c0-.19,0-.33.46-.33s2.12.33,2.12,1.52-.56,1.59-1,1.59a1.16,1.16,0,0,1-.89-.38c-.16-.19-.16-.41-.16-.84s.08-.51.08-.82a.47.47,0,0,0-.31-.48C16,12.2,15.8,12.09,15.8,12Z" transform="translate(0)" fill="#212121"/><path d="M17.26,13c.23,0,.56.53.56.93s-.11.43-.33.43-.58-.44-.58-.74S17.11,13,17.26,13Z" transform="translate(0)" fill="#212121"/><path d="M15,14.12c.3,0,.86.89,1,.89s0-.1.36-.1.85.2.85.43-.13.2-.63.64-.78,1.81-1.61,1.81Z" transform="translate(0)" fill="#212121"/><path d="M19,13.65a.07.07,0,0,1,.1-.07l.24,0c.25,0,.42-.16.42-.61s-.35-.57-.35-.67.11-.12.21-.12a1.1,1.1,0,0,1,.6,1,.81.81,0,0,1-.7.91A.49.49,0,0,1,19,13.65Z" transform="translate(0)" fill="#212121"/><path d="M19.9,12c0-.15.42-.64.56-.64s3.7,2.57,4.44,5.48a15.44,15.44,0,0,1,.46,7.32,4.42,4.42,0,0,1-1.7,2.71.65.65,0,0,1-.45.2c-.09,0-.19-.31-.69-.94s-.62-.71-.62-.79a1.36,1.36,0,0,0,.13-.53.77.77,0,0,1,.55-.71c.21,0,.27.14.51.14s.52-.42.52-.69-.55-.94-.55-1.13.35,0,.56-.21-.09-.83-.09-1.39a2.5,2.5,0,0,1,.31-1.22A2,2,0,0,0,23.72,18a2.83,2.83,0,0,1-.44-.87c0-.12.51-.13.51-.54s-.34-.56-.34-.65.15-.08.15-.31a5.88,5.88,0,0,0-2.19-1.23c-.31,0-.54.34-.95.61s-.62.3-.84.07-.34-.38,0-.22a.69.69,0,0,0,.95-.36,2,2,0,0,0,.06-1.66C20.43,12.42,19.9,12.06,19.9,12Z" transform="translate(0)" fill="#212121"/><path d="M20.49,13.6a2.11,2.11,0,0,1-.29,1,.62.62,0,0,1-.79,0c-.34-.23-.57-.36-.29.11s.51.78.76.78,1.2-.78,1.48-.78a5.92,5.92,0,0,1,1.85.92c0,.13-.52-.13-.52,0s.79.65.79.93-.52.14-.64.26.77,1.41.77,2.11-.42.88-.42,1.62a6.67,6.67,0,0,0,.2,1.27c0,.24-.4.09-.61.29s.3.78.41,1.15,0,.62-.24.62-.35-.12-.49-.12a1.36,1.36,0,0,0-.73.71c-.11.33.11.78-.28.46s-1-.73-.41-.12a7.08,7.08,0,0,1,1.5,2.25c0,.4-.28.53-.84.53s-1.3-.78-1.51-.86.65.59.65.86a.69.69,0,0,1-.68.58,3.92,3.92,0,0,0-1.43.94c-.25.24-.38.26-.47.18s-.36.43-.67.6a2.46,2.46,0,0,1-1.72-.14c-.53-.25-.67-.36-.87-.36a26,26,0,0,1,0-4.75c.1,0,.11-.33.23-.43a1.92,1.92,0,0,1,1-.09c.11.08.3.61.42.61s.17-.59.25-.74a3.44,3.44,0,0,1,1.31-.3c.14,0,.19.24.29.24s.11-.17.2-.17.9,1.06.9.9-.48-1-.48-1.11,1.08-.44,1.22-.57.69.33.83.34-.06-.34-.15-.52-.11-.24.29-.47a1.44,1.44,0,0,0,.75-1.19c.07-.62.08-.68.2-.68s.47.19.47.05-.43-.29-.43-.61.16-.54.16-1.1a1.33,1.33,0,0,0-.83-1.06c-.16,0-.25.83-.91,1.33A1.63,1.63,0,0,1,18.66,19c-.4-.48-.82-1.28-1.35-2s-.61-.67-.32-1,1.23-1,1.43-1.57,0-.76.3-.84.09.28.25.44a1.33,1.33,0,0,0,.8.33C20.16,14.35,20.42,13.69,20.49,13.6Z" transform="translate(0)" fill="#212121"/><path d="M15,.54c-.07,0-.19-.54-.41-.54s-.94,1.72-1.08,1.72,0-.39-.16-.39S13,1.54,13,2a3,3,0,0,1-.7,1.42c-.09,0-.11-.11-.23-.11a4.42,4.42,0,0,0-.67,1.51c-.11.46-.26.48-.33.32s-.25-.12-.36.19a12.33,12.33,0,0,1-.87,2c-.22.2-.36,0-.56.22a4.64,4.64,0,0,0,0,2.32,4,4,0,0,0,1.13,1.63c.54.62.65,1.25.79,1.25s.18-.53.73-.89a2.87,2.87,0,0,1,1.73-.48.83.83,0,0,1,.9.7c0,.18-.72.36-.72.64a5.66,5.66,0,0,0,.06,1.52c.13.13.44-.11.6-.24s.4-.38.54-.38Z" transform="translate(0)" fill="#212121"/><path d="M14.2,12c0-.19,0-.33-.46-.33s-2.12.33-2.12,1.52.56,1.59,1,1.59a1.16,1.16,0,0,0,.89-.38c.16-.19.16-.41.16-.84s-.08-.51-.08-.82a.47.47,0,0,1,.31-.48C14,12.2,14.2,12.09,14.2,12Z" transform="translate(0)" fill="#212121"/><path d="M12.74,13c-.23,0-.56.53-.56.93s.11.43.33.43.58-.44.58-.74S12.89,13,12.74,13Z" transform="translate(0)" fill="#212121"/><path d="M15,14.12c-.3,0-.86.89-1,.89s0-.1-.36-.1-.85.2-.85.43.13.2.63.64.78,1.81,1.61,1.81Z" transform="translate(0)" fill="#212121"/><path d="M11,13.65a.07.07,0,0,0-.1-.07l-.24,0c-.25,0-.42-.16-.42-.61s.35-.57.35-.67-.11-.12-.21-.12a1.1,1.1,0,0,0-.6,1,.81.81,0,0,0,.7.91A.49.49,0,0,0,11,13.65Z" transform="translate(0)" fill="#212121"/><path d="M10.1,12c0-.15-.42-.64-.56-.64S5.84,13.89,5.1,16.8a15.44,15.44,0,0,0-.46,7.32,4.42,4.42,0,0,0,1.7,2.71.65.65,0,0,0,.45.2c.09,0,.19-.31.69-.94s.62-.71.62-.79A1.36,1.36,0,0,1,8,24.77a.77.77,0,0,0-.55-.71c-.21,0-.27.14-.51.14s-.52-.42-.52-.69.55-.94.55-1.13-.35,0-.56-.21.09-.83.09-1.39a2.5,2.5,0,0,0-.31-1.22A2,2,0,0,1,6.28,18a2.83,2.83,0,0,0,.44-.87c0-.12-.51-.13-.51-.54s.34-.56.34-.65-.15-.08-.15-.31a5.88,5.88,0,0,1,2.19-1.23c.31,0,.54.34.95.61s.62.3.84.07.34-.38,0-.22a.69.69,0,0,1-1-.36,2,2,0,0,1-.06-1.66C9.57,12.42,10.1,12.06,10.1,12Z" transform="translate(0)" fill="#212121"/><path d="M9.51,13.6a2.11,2.11,0,0,0,.29,1,.62.62,0,0,0,.79,0c.34-.23.57-.36.29.11s-.51.78-.76.78-1.2-.78-1.48-.78a5.92,5.92,0,0,0-1.85.92c0,.13.52-.13.52,0s-.79.65-.79.93.52.14.64.26-.77,1.41-.77,2.11.42.88.42,1.62a6.67,6.67,0,0,1-.2,1.27c0,.24.4.09.61.29s-.3.78-.41,1.15,0,.62.24.62.35-.12.49-.12a1.36,1.36,0,0,1,.73.71c.11.33-.11.78.28.46s1-.73.41-.12a7.08,7.08,0,0,0-1.5,2.25c0,.4.28.53.84.53s1.3-.78,1.51-.86-.65.59-.65.86a.69.69,0,0,0,.68.58,3.92,3.92,0,0,1,1.43.94c.25.24.38.26.47.18s.36.43.67.6a2.46,2.46,0,0,0,1.72-.14c.53-.25.67-.36.87-.36a26,26,0,0,0,0-4.75c-.1,0-.11-.33-.23-.43a1.92,1.92,0,0,0-1-.09c-.11.08-.3.61-.42.61s-.17-.59-.25-.74a3.44,3.44,0,0,0-1.31-.3c-.14,0-.19.24-.29.24s-.11-.17-.2-.17-.9,1.06-.9.9.48-1,.48-1.11S9.8,23.12,9.66,23s-.69.33-.83.34.06-.34.15-.52.11-.24-.29-.47a1.44,1.44,0,0,1-.75-1.19c-.07-.62-.08-.68-.2-.68s-.47.19-.47.05.43-.29.43-.61-.16-.54-.16-1.1a1.33,1.33,0,0,1,.83-1.06c.16,0,.25.83.91,1.33A1.63,1.63,0,0,0,11.34,19c.4-.48.82-1.28,1.35-2s.61-.67.32-1-1.23-1-1.43-1.57-.05-.76-.3-.84-.09.28-.25.44a1.33,1.33,0,0,1-.8.33C9.84,14.35,9.58,13.69,9.51,13.6Z" transform="translate(0)" fill="#212121"/><rect width="30" height="30" fill="none"/></svg>