<svg xmlns="http://www.w3.org/2000/svg" viewBox="0 0 30 30"><path d="M17.53,19c.14.14.24.15.63.15s.6-.23.6-.75-.11-.5-.44-.5a.77.77,0,0,0-.63.48C17.57,18.63,17.44,18.94,17.53,19Z" transform="translate(0 0)" fill="#212121"/><path d="M25.72,11.42c-.59-.37-1.58-.23-2.92.3a5,5,0,0,0-2.15,1.61c-.52.51-.79.62-.79,1.43s.58,2.17.33,1.8a3.21,3.21,0,0,1-.69-1.63,11.6,11.6,0,0,1,.35-1.72c.07-.55,0-.83-.48-1.09A2.6,2.6,0,0,0,18,11.8c-.55,0-.64.13-1.06.67s-.37,1.23-.51,1.21a14,14,0,0,0-1.44,0v10.7c1,0,1.37.18,1.37.56a.68.68,0,0,1-.36.65c-.11,0-.22-.07-.22-.28s.21-.39.05-.3-.35.2-.35.36.06.42.48.42.29.22.65.22.79-.65.79-1.19a1.92,1.92,0,0,0-.73-1.37c-.35-.34-.37-.55-.27-1.23.13-.93-.12-1.22,0-.95s.21.4.21,1.2.3.89.68,1.25a1.86,1.86,0,0,1,.22,1.77c-.23.45-1,.72-.15.43s1.2-1,1.73-2a4.84,4.84,0,0,0,.54-2.69,1.8,1.8,0,0,1,.72-1.66c.47-.5.56-.78.91-.78a5.53,5.53,0,0,0,1.18.16c.92,0,2.84-1.66,3.19-2.32A13.34,13.34,0,0,0,26.43,13,1.59,1.59,0,0,0,25.72,11.42Zm-6,6.73a1.47,1.47,0,0,1-.49-.12c-.2-.08-.2-.2-.2.52s-.32.9-.64.9a1.3,1.3,0,0,1-.71-.11c-.23-.13-.48-.26-.48.35s.24,1,.06.81A1.66,1.66,0,0,1,17,19.34a2.51,2.51,0,0,1,.36-1.18,1.24,1.24,0,0,1,1-.75c.32,0,.4.05.78.37S19.93,18.18,19.73,18.15Zm4.66-2.51a3,3,0,0,1-2.05,2.09c-1,.4-1.28.71-1.43.56s.08-1.05.33-1.3a1.69,1.69,0,0,1,.75-.33,1,1,0,0,1-.17-.08.45.45,0,0,1-.1-.16,5.92,5.92,0,0,0,.64.08,3.6,3.6,0,0,0,.58,0,1.68,1.68,0,0,1-.28-.14.66.66,0,0,1-.15-.12s.26.05.6.08a2.11,2.11,0,0,0,.56,0,1.38,1.38,0,0,1-.35-.19c-.13-.11-.28-.27-.28-.27a1.34,1.34,0,0,0,.35.1,4.31,4.31,0,0,0,.55.06,3.6,3.6,0,0,1-.61-.33,2.56,2.56,0,0,1-.6-.63.39.39,0,0,0,.19,0h.21a1.08,1.08,0,0,1-.25-.19.46.46,0,0,1-.15-.28.65.65,0,0,0,.23,0,.45.45,0,0,0,.26-.07.94.94,0,0,1-.26-.17.73.73,0,0,1-.21-.32,3.12,3.12,0,0,0,.33.1l.4.06a1.12,1.12,0,0,1-.27-.57c0-.27,1.06-.83,1.44-1.08s.52-.28.52.34A9.84,9.84,0,0,1,24.39,15.64Z" transform="translate(0 0)" fill="#212121"/><path d="M15,27.65a2.13,2.13,0,0,0,1.74-1c.22-.43.22-.48.17-.54a3.85,3.85,0,0,1-1.91.43Z" transform="translate(0 0)" fill="#212121"/><path d="M15,28c1.16,0,1.77-.47,1.91-.84s.19-.7.42-.85a4.11,4.11,0,0,0,.92-.69,6.18,6.18,0,0,0,.81-1.16c.14-.25.05.25.11.78a4,4,0,0,0,.53,1.5c.18.21,0,.11-.07.29s0,.24,0,.32-.09,0-.24.21a2.07,2.07,0,0,0-.38.79c-.05.27-.08,0-.27.19s-.72.85-1.15,1a1.89,1.89,0,0,1-1,.13c-.41-.05-1.09.34-1.56.34Z" transform="translate(0 0)" fill="#212121"/><path d="M18.09,11.52c0,.13.63,0,1.08.19s.6.4.74.4A16,16,0,0,0,20.35,9a4.59,4.59,0,0,0-.17-2c-.2-.3-.39-.34-.47-.19a14.6,14.6,0,0,1-.3,1.75,22.49,22.49,0,0,1-.93,2.3C18.29,11.21,18.09,11.29,18.09,11.52Z" transform="translate(0 0)" fill="#212121"/><path d="M20.38,11.32c.13.13,1.92-1.23,3.06-2.81a9,9,0,0,0,1.81-5.3c0-1.95-.46-3-.73-3.15s-.44,0-.42.32a13.77,13.77,0,0,1,0,2.8,5.38,5.38,0,0,1-.39,1.68c-.11.1-.29,0-1.05,0s-1.36.27-1.36.56.29.07.95.07A1.36,1.36,0,0,1,23.28,6c.09.09,0,.42-.82,1.42a8.79,8.79,0,0,1-1.75,2c-.19,0-.05.21-.13.83S20.25,11.19,20.38,11.32Z" transform="translate(0 0)" fill="#212121"/><path d="M12.47,19c-.14.14-.24.15-.63.15s-.6-.23-.6-.75.11-.5.44-.5a.77.77,0,0,1,.63.48C12.43,18.63,12.56,18.94,12.47,19Z" transform="translate(0 0)" fill="#212121"/><path d="M3.57,13a13.34,13.34,0,0,0,.75,3.64c.35.66,2.27,2.32,3.19,2.32a5.53,5.53,0,0,0,1.18-.16c.35,0,.44.28.91.78a1.8,1.8,0,0,1,.72,1.66,4.84,4.84,0,0,0,.54,2.69c.53.94.9,1.67,1.73,2s.08,0-.15-.43a1.86,1.86,0,0,1,.22-1.77c.38-.36.68-.44.68-1.25s.05-.92.21-1.2-.09,0,0,.95c.1.68.08.89-.27,1.23a1.92,1.92,0,0,0-.73,1.37c0,.54.43,1.19.79,1.19s.23-.22.65-.22.48-.27.48-.42-.19-.27-.35-.36.05.1.05.3-.11.28-.22.28a.68.68,0,0,1-.36-.65c0-.38.4-.56,1.37-.56V13.64a14,14,0,0,0-1.44,0c-.14,0-.1-.67-.51-1.21s-.51-.67-1.06-.67a2.6,2.6,0,0,0-1.36.32c-.51.26-.55.54-.48,1.09a11.6,11.6,0,0,1,.35,1.72,3.21,3.21,0,0,1-.69,1.63c-.25.37.33-1,.33-1.8s-.27-.92-.79-1.43A5,5,0,0,0,7.2,11.72c-1.34-.53-2.33-.67-2.92-.3A1.59,1.59,0,0,0,3.57,13Zm7.29,4.8c.38-.32.46-.37.78-.37a1.24,1.24,0,0,1,1,.75A2.51,2.51,0,0,1,13,19.34a1.66,1.66,0,0,1-.27,1.16c-.18.24.06-.19.06-.81s-.25-.48-.48-.35a1.3,1.3,0,0,1-.71.11c-.32,0-.64-.17-.64-.9s0-.6-.2-.52a1.47,1.47,0,0,1-.49.12C10.07,18.18,10.47,18.1,10.86,17.78ZM4.83,13c0-.62.14-.59.52-.34s1.44.81,1.44,1.08a1.12,1.12,0,0,1-.27.57l.4-.06a3.12,3.12,0,0,0,.33-.1.73.73,0,0,1-.21.32.94.94,0,0,1-.26.17.45.45,0,0,0,.26.07.65.65,0,0,0,.23,0,.46.46,0,0,1-.15.28,1.08,1.08,0,0,1-.25.19h.21a.39.39,0,0,0,.19,0,2.56,2.56,0,0,1-.6.63,3.6,3.6,0,0,1-.61.33A4.31,4.31,0,0,0,6.61,16a1.34,1.34,0,0,0,.35-.1s-.15.16-.28.27a1.38,1.38,0,0,1-.35.19,2.11,2.11,0,0,0,.56,0c.34,0,.6-.08.6-.08a.66.66,0,0,1-.15.12,1.68,1.68,0,0,1-.28.14,3.6,3.6,0,0,0,.58,0,5.92,5.92,0,0,0,.64-.08.45.45,0,0,1-.1.16,1,1,0,0,1-.17.08,1.69,1.69,0,0,1,.75.33c.25.25.48,1.14.33,1.3s-.47-.16-1.43-.56a3,3,0,0,1-2-2.09A9.84,9.84,0,0,1,4.83,13Z" transform="translate(0 0)" fill="#212121"/><path d="M15,27.65a2.13,2.13,0,0,1-1.74-1c-.22-.43-.22-.48-.17-.54a3.85,3.85,0,0,0,1.91.43Z" transform="translate(0 0)" fill="#212121"/><path d="M15,28c-1.16,0-1.77-.47-1.91-.84s-.19-.7-.42-.85a4.11,4.11,0,0,1-.92-.69,6.18,6.18,0,0,1-.81-1.16c-.14-.25,0,.25-.11.78a4,4,0,0,1-.53,1.5c-.18.21,0,.11.07.29s0,.24,0,.32.09,0,.24.21a2.07,2.07,0,0,1,.38.79c0,.27.08,0,.27.19s.72.85,1.15,1a1.89,1.89,0,0,0,1,.13c.41-.05,1.09.34,1.56.34Z" transform="translate(0 0)" fill="#212121"/><path d="M11.91,11.52c0,.13-.63,0-1.08.19s-.6.4-.74.4A16,16,0,0,1,9.65,9a4.59,4.59,0,0,1,.17-2c.2-.3.39-.34.47-.19a14.6,14.6,0,0,0,.3,1.75,22.49,22.49,0,0,0,.93,2.3C11.71,11.21,11.91,11.29,11.91,11.52Z" transform="translate(0 0)" fill="#212121"/><path d="M9.62,11.32c-.13.13-1.92-1.23-3.06-2.81a9,9,0,0,1-1.81-5.3c0-1.95.46-3,.73-3.15s.44,0,.42.32a13.77,13.77,0,0,0,0,2.8,5.38,5.38,0,0,0,.39,1.68c.11.1.29,0,1,0s1.36.27,1.36.56-.29.07-1,.07A1.36,1.36,0,0,0,6.72,6c-.09.09,0,.42.82,1.42a8.79,8.79,0,0,0,1.75,2c.19,0,.05.21.13.83S9.75,11.19,9.62,11.32Z" transform="translate(0 0)" fill="#212121"/><rect width="30" height="30" fill="none"/></svg>