<svg xmlns="http://www.w3.org/2000/svg" viewBox="0 0 30 30"><path d="M15,29.06a2.27,2.27,0,0,0,1.77-.52c.37-.45.7-.75,0,.41A1.67,1.67,0,0,1,15,30Z" transform="translate(0 0)" fill="#212121"/><path d="M18.93,27.17a1.08,1.08,0,0,1-.09-.55,3.08,3.08,0,0,1,.05-.64l-.27.05a7.45,7.45,0,0,0,.68-1.48,27.91,27.91,0,0,1,1.44-3.73,4.69,4.69,0,0,1,1.11-1.46A6.83,6.83,0,0,0,21.28,21a5.48,5.48,0,0,0,0,1.55,7.91,7.91,0,0,1,1.53-2.83,27,27,0,0,1,2.54-2.49.71.71,0,0,0,.24.34,1.53,1.53,0,0,0,.42.2,6.63,6.63,0,0,1-.16-1.53c0-.92.15-1.23,0-1.77a5.81,5.81,0,0,0-.78-1.27,4.3,4.3,0,0,1,.73.38,1.18,1.18,0,0,1,.34.39,4.12,4.12,0,0,0-.54-1.65,10.12,10.12,0,0,0-1-1.69s1.79.74,1.79,1.31,1.11,1.95,1.11,2.68a4.06,4.06,0,0,0,.64,1.7,3,3,0,0,1-.66-.32,3.27,3.27,0,0,1-.54-.45,8,8,0,0,0,.27,1.85A7.43,7.43,0,0,0,27.81,19a3.22,3.22,0,0,1-.55-.34,2.54,2.54,0,0,1-.41-.41,2.26,2.26,0,0,1-.35,1.4A3.11,3.11,0,0,0,26,20.91a1.7,1.7,0,0,0-.21-.51,1.2,1.2,0,0,0-.29-.28,5.32,5.32,0,0,0-.53,1.19,4.37,4.37,0,0,1-1.23,1.48,2.22,2.22,0,0,0,.15-.61.92.92,0,0,0-.12-.51s0,.29-.83.9a6.8,6.8,0,0,0-2.27,2.48C20.33,25.89,19.28,26.33,18.93,27.17Z" transform="translate(0 0)" fill="#212121"/><path d="M25.56,10.52a.4.4,0,0,0,.41-.39,6.27,6.27,0,0,1-.21-1c0-.44-.33-.65-.33-1.39s.8-4.39.8-4.82A14.94,14.94,0,0,0,24.91.55c-.3-.63-.36-.63-.93-.43S21.9,1.21,21.33,1.4,20,2.73,19.84,2.75s0,.13-.26.49-1.06,1.28-1.06,1.64.32.32.95,1.09S21,8.18,21.33,8.18a6.15,6.15,0,0,0,1.24-.52,7.77,7.77,0,0,1,1-.26,1.42,1.42,0,0,0-.4-.26,1.68,1.68,0,0,0-.57-.08,4.82,4.82,0,0,1,.75-.9,3.6,3.6,0,0,1,.9-.66,3.54,3.54,0,0,0-1.44.07,3.29,3.29,0,0,1-2-.35,4.92,4.92,0,0,0,.59,0A1.48,1.48,0,0,0,22,5.1a4.56,4.56,0,0,1-1.47-.16C20,4.72,20,4.63,20,4.63a.75.75,0,0,0-.24.12,1.2,1.2,0,0,0-.21.21,3.62,3.62,0,0,1,1-1.79c.94-1.17.64-.67,1.76-1.28a8.45,8.45,0,0,1,2-1c.29,0,1.27,1.49,1.27,1.8s-.18.48-.44,1.59S24.39,8,24.33,8.45s-.51.35-.51.6S25,10.52,25.56,10.52Z" transform="translate(0 0)" fill="#212121"/><path d="M18.62,15c-.72.53-1,1-.88,1.07a1.52,1.52,0,0,0,1.51-.95C19.53,14.28,19.34,14.43,18.62,15Z" transform="translate(0 0)" fill="#212121"/><path d="M24.74,13.49c-.54-.76-.87-1.2-.87-1.2l1.16.3A3.55,3.55,0,0,1,23.64,11c-.3-1-3.3-2.37-3.3-2.37a2,2,0,0,1,.31.56,5.31,5.31,0,0,1,.21.75A5.39,5.39,0,0,0,20,8.65c-.62-.73-1.29-.8-1.58-1.69a4.12,4.12,0,0,0-.9-1.51,2.81,2.81,0,0,0,.23,1.47,2.27,2.27,0,0,1,.27,1.17,2.84,2.84,0,0,0-.49-.81,17.61,17.61,0,0,1-.85-1.88C16.48,5.05,16.5,5,17,5s1.47-1,1.47-1.21a6.3,6.3,0,0,0-2.74-.4c-.21.21,0,1.06-.13,1.83a3.05,3.05,0,0,0,.33,2.52,9,9,0,0,0,2.32,2.12A2.66,2.66,0,0,1,18,9.1c-.07-.37-.11-.9-.11-.9a6.68,6.68,0,0,0,.75,1.25,15.56,15.56,0,0,1,2,2.1,3.46,3.46,0,0,1,.78,1.92s-.82-1.21-1.31-1.21-.35.13-1.41.54-1.19.33-1.82,1.33-1,.73-1,1.35.17,2,.17,2L15.4,15.9,15,18.17V23.9a1.93,1.93,0,0,1,1.85,2c0,.86-.28.94-.47.94s-.27-.11-.27-.17a.16.16,0,0,0-.18-.16c-.15,0-.2,0-.2.18s0,.2.28.34a1.05,1.05,0,0,0,.51.13,1.13,1.13,0,0,1-.37.45,1.91,1.91,0,0,1-1.15.22v.94a3.61,3.61,0,0,0,1.34-.29c.66-.25,2.41-2.95,2.71-5.05s2.54-4.58,2.54-4.58a4.11,4.11,0,0,0-.88.12,4.19,4.19,0,0,0-1.87.94A7.5,7.5,0,0,0,17.5,22.6a7.34,7.34,0,0,1,.52-2,3.25,3.25,0,0,1,2.59-2.07c1.65-.32,1.71-.43,2.11-1.14s.13-.88,0-1.53a3.39,3.39,0,0,1-.13-1.07l-.32.06a4.52,4.52,0,0,0,.58-1.71,2.18,2.18,0,0,0-.23-1.08,1.43,1.43,0,0,1,.73.78c.32.65,0,1.37.32,2.31a2.41,2.41,0,0,0,1.19,1.27A2.24,2.24,0,0,1,25,15.21,1.41,1.41,0,0,0,24.74,13.49Zm-4.48.93a2.66,2.66,0,0,1-.4,1,8,8,0,0,1-1.05,1,3.6,3.6,0,0,0,1.11-.28A7.39,7.39,0,0,0,21,15.49a2.36,2.36,0,0,1-.88,1.12,3.38,3.38,0,0,1-2.23.51c-.12-.13.05-.34-.08-.47s-.43-.07-1,.18a6.53,6.53,0,0,1,1.39-2.28,3.19,3.19,0,0,1,2-.76c.63,0,1.17.53,1.08.93C21.15,14.49,20.6,14.42,20.26,14.42Z" transform="translate(0 0)" fill="#212121"/><path d="M15,29.06a2.27,2.27,0,0,1-1.77-.52c-.37-.45-.7-.75,0,.41A1.67,1.67,0,0,0,15,30Z" transform="translate(0 0)" fill="#212121"/><path d="M11.07,27.17a1.08,1.08,0,0,0,.09-.55,3.08,3.08,0,0,0-.05-.64l.27.05a7.45,7.45,0,0,1-.68-1.48,27.91,27.91,0,0,0-1.44-3.73,4.69,4.69,0,0,0-1.11-1.46A6.83,6.83,0,0,1,8.72,21a5.48,5.48,0,0,1,0,1.55,7.91,7.91,0,0,0-1.53-2.83,27,27,0,0,0-2.54-2.49.71.71,0,0,1-.24.34,1.53,1.53,0,0,1-.42.2,6.63,6.63,0,0,0,.16-1.53c0-.92-.15-1.23,0-1.77a5.81,5.81,0,0,1,.78-1.27,4.3,4.3,0,0,0-.73.38,1.18,1.18,0,0,0-.34.39,4.12,4.12,0,0,1,.54-1.65,10.12,10.12,0,0,1,1-1.69S3.65,11.41,3.65,12s-1.11,1.95-1.11,2.68a4.06,4.06,0,0,1-.64,1.7A3,3,0,0,0,2.56,16a3.27,3.27,0,0,0,.54-.45,8,8,0,0,1-.27,1.85A7.43,7.43,0,0,1,2.19,19a3.22,3.22,0,0,0,.55-.34,2.54,2.54,0,0,0,.41-.41,2.26,2.26,0,0,0,.35,1.4A3.11,3.11,0,0,1,4,20.91a1.7,1.7,0,0,1,.21-.51,1.2,1.2,0,0,1,.29-.28,5.32,5.32,0,0,1,.53,1.19A4.37,4.37,0,0,0,6.3,22.79a2.22,2.22,0,0,1-.15-.61.92.92,0,0,1,.12-.51s0,.29.83.9a6.8,6.8,0,0,1,2.27,2.48C9.67,25.89,10.72,26.33,11.07,27.17Z" transform="translate(0 0)" fill="#212121"/><path d="M4.44,10.52A.4.4,0,0,1,4,10.13a6.27,6.27,0,0,0,.21-1c0-.44.33-.65.33-1.39S3.77,3.38,3.77,3A14.94,14.94,0,0,1,5.09.55c.3-.63.36-.63.93-.43S8.1,1.21,8.67,1.4,10,2.73,10.16,2.75s0,.13.26.49,1.06,1.28,1.06,1.64-.32.32-1,1.09S9,8.18,8.67,8.18a6.15,6.15,0,0,1-1.24-.52,7.77,7.77,0,0,0-1-.26,1.42,1.42,0,0,1,.4-.26,1.68,1.68,0,0,1,.57-.08,4.82,4.82,0,0,0-.75-.9,3.6,3.6,0,0,0-.9-.66,3.54,3.54,0,0,1,1.44.07,3.29,3.29,0,0,0,2-.35,4.92,4.92,0,0,1-.59,0A1.48,1.48,0,0,1,8,5.1a4.56,4.56,0,0,0,1.47-.16c.58-.22.52-.31.52-.31a.75.75,0,0,1,.24.12,1.2,1.2,0,0,1,.21.21,3.62,3.62,0,0,0-.95-1.79C8.55,2,8.85,2.5,7.73,1.89a8.45,8.45,0,0,0-2-1c-.29,0-1.27,1.49-1.27,1.8s.18.48.44,1.59S5.61,8,5.67,8.45s.51.35.51.6S5,10.52,4.44,10.52Z" transform="translate(0 0)" fill="#212121"/><path d="M11.38,15c.72.53,1,1,.88,1.07a1.52,1.52,0,0,1-1.51-.95C10.47,14.28,10.66,14.43,11.38,15Z" transform="translate(0 0)" fill="#212121"/><path d="M5,15.21a2.24,2.24,0,0,1,.15,1.26A2.41,2.41,0,0,0,6.38,15.2c.36-.94,0-1.66.32-2.31a1.43,1.43,0,0,1,.73-.78,2.18,2.18,0,0,0-.23,1.08,4.52,4.52,0,0,0,.58,1.71l-.32-.06a3.39,3.39,0,0,1-.13,1.07c-.18.65-.44.81,0,1.53s.46.82,2.11,1.14A3.25,3.25,0,0,1,12,20.65a7.34,7.34,0,0,1,.52,2,7.5,7.5,0,0,0-1.34-2.71A4.19,4.19,0,0,0,9.29,19a4.11,4.11,0,0,0-.88-.12s2.24,2.49,2.54,4.58,2.05,4.8,2.71,5.05a3.61,3.61,0,0,0,1.34.29v-.94a1.91,1.91,0,0,1-1.15-.22,1.13,1.13,0,0,1-.37-.45A1.05,1.05,0,0,0,14,27c.23-.14.28-.19.28-.34s0-.18-.2-.18a.16.16,0,0,0-.18.16c0,.06-.08.17-.27.17s-.47-.08-.47-.94a1.93,1.93,0,0,1,1.85-2V18.17l-.4-2.27L14,17.51s.17-1.41.17-2-.33-.35-1-1.35-.75-.93-1.82-1.33-.93-.54-1.41-.54-1.31,1.21-1.31,1.21a3.46,3.46,0,0,1,.78-1.92,15.56,15.56,0,0,1,2-2.1,6.68,6.68,0,0,0,.75-1.25s0,.53-.11.9a2.66,2.66,0,0,1-.29.74,9,9,0,0,0,2.32-2.12,3.05,3.05,0,0,0,.33-2.52c-.14-.77.08-1.62-.13-1.83a6.3,6.3,0,0,0-2.74.4C11.54,4,12.52,5,13,5s.51.07.27.42a17.61,17.61,0,0,1-.85,1.88,2.84,2.84,0,0,0-.49.81,2.27,2.27,0,0,1,.27-1.17,2.81,2.81,0,0,0,.23-1.47A4.12,4.12,0,0,0,11.54,7c-.29.89-1,1-1.58,1.69a5.39,5.39,0,0,0-.82,1.24,5.31,5.31,0,0,1,.21-.75,2,2,0,0,1,.31-.56S6.66,10,6.36,11A3.55,3.55,0,0,1,5,12.59l1.16-.3s-.33.44-.87,1.2A1.41,1.41,0,0,0,5,15.21Zm3.7-.49c-.09-.4.45-.93,1.08-.93a3.19,3.19,0,0,1,2,.76,6.53,6.53,0,0,1,1.39,2.28c-.57-.25-.86-.32-1-.18s0,.34-.08.47a3.38,3.38,0,0,1-2.23-.51A2.36,2.36,0,0,1,9,15.49a7.39,7.39,0,0,0,1.07.66,3.6,3.6,0,0,0,1.11.28,8,8,0,0,1-1-1,2.66,2.66,0,0,1-.4-1C9.4,14.42,8.85,14.49,8.74,14.72Z" transform="translate(0 0)" fill="#212121"/><rect width="30" height="30" fill="none"/></svg>