<svg xmlns="http://www.w3.org/2000/svg" viewBox="0 0 30 30"><path d="M19.11,13.07c-.25-.24-1.85-.48-2.26-.9a9.68,9.68,0,0,1-1.4-2c-.06-.26,0-.72-.18-.72s-.16.19-.27.19v3.91c.47,0,.72.46,1,.46s1-.87,1.48-.87,1.67,1,1.77.88A1,1,0,0,0,19.11,13.07Zm-3.35-1.64a2.92,2.92,0,0,1-.43-1.06,7.12,7.12,0,0,0,.55,1,9.23,9.23,0,0,0,.62.78A2.06,2.06,0,0,1,15.76,11.43Z" fill="#212121"/><path d="M21.94,12.51a3.74,3.74,0,0,0-2.18.57c0,.16.2,0,.65,0s.05.12-.29.3-.43.38-.43,1.11-.39,1.19-.26,1.19.67-.28,1.64-.49,1.24-.37,1.59-1,.94-1,.94-1.23S23.11,12.51,21.94,12.51Zm0,.92a2.88,2.88,0,0,1-.7.06,2.86,2.86,0,0,1,.62.32,1.58,1.58,0,0,1,.39.37,4.7,4.7,0,0,0-.92-.08c-.48,0-.56.49-.87.53s-.35.35-.56.35-.13-.16,0-.24,0-.46.19-.56a7.15,7.15,0,0,0,.78-.82c.27-.26.51-.23,1-.23a4.23,4.23,0,0,0,.85-.09A1.7,1.7,0,0,1,22,13.43Z" fill="#212121"/><path d="M18.34,15.63a.06.06,0,0,0-.06.08.42.42,0,0,0,.07.19A.48.48,0,0,0,19,16a1.08,1.08,0,0,0,.15-.27.06.06,0,0,0-.07-.09A3.56,3.56,0,0,1,18.34,15.63Z" fill="#212121"/><path d="M18.79,15.17a1.86,1.86,0,0,1,.44,0,.05.05,0,0,0,.07,0c0-.32-.22-.47-.59-.47-.15,0-.27.09-.37.34a1.17,1.17,0,0,0-.05.2.05.05,0,0,0,.08.06A1.13,1.13,0,0,1,18.79,15.17Z" fill="#212121"/><path d="M17.46,21c.13,0,.71-1.35.57-1.35s-.49.62-.54.84S17.36,21,17.46,21Z" fill="#212121"/><path d="M15,22.36A3,3,0,0,0,16.74,22c.3-.28.33-.05-.18.58a2.3,2.3,0,0,1-1.56.84Z" fill="#212121"/><path d="M15.22,22a2.84,2.84,0,0,0,1.61-.27c.32-.21.34-.31.34-.5s-.13-.33-.26-.92A3.73,3.73,0,0,1,17,18.83a4.46,4.46,0,0,0,.07.74,1.49,1.49,0,0,0,.25.56A5.6,5.6,0,0,0,18.38,18a5,5,0,0,1,.89-1.94,3,3,0,0,0-.55.4c-.17.19-.28.27-.41.27s-.45-1.15-.45-1.15a2.44,2.44,0,0,0-.21.7,3.85,3.85,0,0,0,0,1,2.69,2.69,0,0,1-.35-1.18c0-.58.81-1,.95-1.29a2.89,2.89,0,0,0,.24-.89c0-.16-.68-.57-1-.57s-1.16,1-1.43,1-.68-.52-1.07-.52V17.5a6.28,6.28,0,0,1,1.21.65A5,5,0,0,0,15,17.69v2.62a1.09,1.09,0,0,0,.89-.52,1.78,1.78,0,0,0,.12-.93,3.4,3.4,0,0,1,.31,1.07c0,.41-.52.34-.87.8A1.35,1.35,0,0,0,15.22,22Z" fill="#212121"/><path d="M21.58,10.07l-.27.15a.1.1,0,0,0,0,.08v1a.1.1,0,0,0,.12.09c.11,0,.23,0,.35-.06a.08.08,0,0,0,.08-.1l-.1-1.1A.08.08,0,0,0,21.58,10.07Z" fill="#212121"/><path d="M20.93,10.43l-.33.18a.09.09,0,0,0-.05.1l.19.77a.09.09,0,0,0,.12.06l.14,0a.08.08,0,0,0,.07-.08v-.9A.09.09,0,0,0,20.93,10.43Z" fill="#212121"/><path d="M20.37,10.85a.09.09,0,0,0-.13-.07l-.1.05-.29.14a.09.09,0,0,0,0,.13l.39.66a.08.08,0,0,0,.12,0l.17-.09a.08.08,0,0,0,.05-.1Z" fill="#212121"/><path d="M22.72,22.31a.43.43,0,0,1,.14-.3.1.1,0,0,0-.06-.17,2.85,2.85,0,0,1-.48-.13h0c-.16,0-.35,0-.35.1a10.36,10.36,0,0,0,.74,1.33s0,0,.06,0h0a.09.09,0,0,0,.12-.12A2.69,2.69,0,0,1,22.72,22.31Z" fill="#212121"/><path d="M25.39,10.79A11.8,11.8,0,0,0,26,9.42a.09.09,0,0,0,0-.12,3.33,3.33,0,0,0-.6-.16.09.09,0,0,0-.11.08A4.77,4.77,0,0,1,25,10.39a10.27,10.27,0,0,1-.59,1.37.08.08,0,0,0,0,.12l.16.1a.11.11,0,0,0,.13,0C24.88,11.66,25.19,11.15,25.39,10.79Z" fill="#212121"/><path d="M24.56,22.27a5.91,5.91,0,0,1,.1-.76.1.1,0,0,0-.15-.1l-.16.12a.08.08,0,0,0,0,0,2.65,2.65,0,0,0-.27.67,5.42,5.42,0,0,0,.81,1,.14.14,0,0,0,.09,0l.45-.11a.1.1,0,0,0,0-.18C25.05,22.78,24.56,22.45,24.56,22.27Z" fill="#212121"/><path d="M23.83,22.26a1.65,1.65,0,0,1,.23-.57l-.25.1s0,0,0,0a1.3,1.3,0,0,0-.29.59,3.11,3.11,0,0,0,.54.92.12.12,0,0,0,.08,0h.23a.1.1,0,0,0,.08-.16A3.14,3.14,0,0,1,23.83,22.26Z" fill="#212121"/><path d="M23.24,22.49a1.07,1.07,0,0,1,.19-.46.1.1,0,0,0-.09-.16h-.16a.39.39,0,0,0-.2.31,5,5,0,0,0,.35,1.06.11.11,0,0,0,.07.06h0a.09.09,0,0,0,.09-.15A2.14,2.14,0,0,1,23.24,22.49Z" fill="#212121"/><path d="M25.31,22.06a2.1,2.1,0,0,1-.22-.95.1.1,0,0,0-.17-.06l0,0a.13.13,0,0,0,0,.05,3.37,3.37,0,0,0-.08,1c.05.24.71.63,1.1.85H26l.27-.13a.1.1,0,0,0,0-.18A1.87,1.87,0,0,1,25.31,22.06Z" fill="#212121"/><path d="M19.5,11.13l-.33.15a.11.11,0,0,0,0,.16l.68.6a.11.11,0,0,0,.12,0L20,12a.09.09,0,0,0,0-.12l-.41-.71A.1.1,0,0,0,19.5,11.13Z" fill="#212121"/><path d="M21.75,21.81s.05-.09.13-.13a.1.1,0,0,0,0-.17l-.13-.08H21.7c-.12,0-.24,0-.27.1a4.77,4.77,0,0,0,.1,1,.16.16,0,0,0,0,.07,4.23,4.23,0,0,0,.42.25.1.1,0,0,0,.13-.13A5.44,5.44,0,0,1,21.75,21.81Z" fill="#212121"/><path d="M27.14,16.61a2.82,2.82,0,0,1-.47-.26.09.09,0,0,0-.15.07v.23a.08.08,0,0,0,0,.09,9,9,0,0,0,2.46,1,1.36,1.36,0,0,0,.83-.28.09.09,0,0,0,0-.06c0-.1,0-.19.05-.28a.1.1,0,0,0-.14-.1,1.2,1.2,0,0,1-.59.16A6.36,6.36,0,0,1,27.14,16.61Z" fill="#212121"/><path d="M27.05,10a4.79,4.79,0,0,0-.69-.48.09.09,0,0,0-.13.06,9.77,9.77,0,0,1-.49,1.22A12,12,0,0,1,25,12.1a.09.09,0,0,0,0,.13l.05,0a.1.1,0,0,0,.12,0l1-.88a4.07,4.07,0,0,0,.93-1.29S27.08,10,27.05,10Z" fill="#212121"/><path d="M22.36,11.23V9.78a.1.1,0,0,0-.14-.08L22,9.83a.08.08,0,0,0,0,.11,3.25,3.25,0,0,1,.09.57c0,.17,0,.5,0,.72a.09.09,0,0,0,.09.09h.1A.09.09,0,0,0,22.36,11.23Z" fill="#212121"/><path d="M24.68,10.35A5.83,5.83,0,0,0,25,9.18a.09.09,0,0,0-.09-.1h-.25a.09.09,0,0,0-.1.1,3.18,3.18,0,0,1-.12,1.08,8.83,8.83,0,0,1-.52,1.28.08.08,0,0,0,.05.12l.1,0a.09.09,0,0,0,.12,0C24.27,11.37,24.5,10.85,24.68,10.35Z" fill="#212121"/><path d="M24,10.31a6.84,6.84,0,0,0,.2-1.23h-.13l-.4.05a.09.09,0,0,0-.08.09,4.82,4.82,0,0,1-.08,1c-.07.4-.18.84-.25,1.11a.11.11,0,0,0,.07.12l.14,0a.09.09,0,0,0,.11-.06A7.72,7.72,0,0,0,24,10.31Z" fill="#212121"/><path d="M22.73,11.35l.21,0a.08.08,0,0,0,.1-.08l.26-1.93a.09.09,0,0,0-.12-.1l-.39.15a.09.09,0,0,0-.05.1,4.43,4.43,0,0,1,0,.88,8.13,8.13,0,0,1-.13.84C22.64,11.3,22.67,11.35,22.73,11.35Z" fill="#212121"/><path d="M26.08,13.48l0,0,.92,0a7,7,0,0,0,2.07-.59.1.1,0,0,0,0-.12,5.6,5.6,0,0,0-.27-.55.1.1,0,0,0-.14,0,6,6,0,0,1-.92.48,15.53,15.53,0,0,1-1.71.57.1.1,0,0,0-.06.14Z" fill="#212121"/><path d="M29.07,18.09A11.31,11.31,0,0,1,26.62,17a.08.08,0,0,0-.13.07c0,.07,0,.13,0,.19a.1.1,0,0,0,0,.09,12.54,12.54,0,0,0,2.27,1.4,1.93,1.93,0,0,0,.88-.48.05.05,0,0,0,0,0c0-.06,0-.12,0-.18a.09.09,0,0,0-.12-.1A1.69,1.69,0,0,1,29.07,18.09Z" fill="#212121"/><path d="M26.59,11.49a8.22,8.22,0,0,1-1.2.93.08.08,0,0,0,0,.14l.12.13a.1.1,0,0,0,.12,0l1.24-.85A11.91,11.91,0,0,0,28,11a.09.09,0,0,0,0-.13c-.09-.11-.18-.22-.28-.32l-.23-.24a.1.1,0,0,0-.15,0A3.25,3.25,0,0,1,26.59,11.49Z" fill="#212121"/><path d="M28.05,20.76a6.46,6.46,0,0,1-1.3-.92c-.18-.18-.38-.41-.52-.58a.1.1,0,0,0-.17,0l-.06.15a.09.09,0,0,0,0,.07,3.2,3.2,0,0,0,.61,1c.51.53.68.7,1,.7h.57a.12.12,0,0,0,.08,0L28.4,21a.1.1,0,0,0-.07-.16A.64.64,0,0,1,28.05,20.76Z" fill="#212121"/><path d="M18.78,11.46l-.93.41a.09.09,0,0,0,0,.17c.45.18,1.24.64,1.36.64s.19-.17.43-.38a.1.1,0,0,0,0-.14l-.76-.69A.09.09,0,0,0,18.78,11.46Z" fill="#212121"/><path d="M28.55,19.8a2.23,2.23,0,0,0,.57-.08.1.1,0,0,0,.06,0,6.65,6.65,0,0,0,.28-.69.1.1,0,0,0-.14-.12,1,1,0,0,1-.5.14,8.79,8.79,0,0,1-2.24-1.29.1.1,0,0,0-.16.07,1,1,0,0,1,0,.17.08.08,0,0,0,0,.08C26.86,18.49,28.15,19.8,28.55,19.8Z" fill="#212121"/><path d="M20.59,20.71s0,0,.07,0a.1.1,0,0,0,0-.16,4.13,4.13,0,0,1-.31-.42c-.69-1-.59-.37-.14.84a2.33,2.33,0,0,0,.14.33.1.1,0,0,0,.19-.06A.89.89,0,0,1,20.59,20.71Z" fill="#212121"/><path d="M28.41,20c-.39,0-1.69-1.33-2.07-1.72a1.18,1.18,0,0,1,0,.2,2.37,2.37,0,0,1-.09.36.1.1,0,0,0,0,.09,7,7,0,0,0,.84.89c.53.45.94.75,1.18.75h.37a.1.1,0,0,0,.08-.05l.21-.35L28.78,20Z" fill="#212121"/><path d="M26.2,21.94a3.6,3.6,0,0,1-.77-1.26.09.09,0,0,0-.16,0l0,0a.14.14,0,0,0,0,.07,2.85,2.85,0,0,0,.3,1.16,3.31,3.31,0,0,0,1.17.62.14.14,0,0,0,.09,0l.1-.07a.1.1,0,0,0,0-.18A1.78,1.78,0,0,1,26.2,21.94Z" fill="#212121"/><path d="M21.26,21.44a.27.27,0,0,1,.13-.07.1.1,0,0,0,0-.17,5.3,5.3,0,0,1-.43-.38l0,0c-.1,0-.19,0-.21,0A6.16,6.16,0,0,0,21,22.06s0,0,0,.05a.46.46,0,0,1,.07.07.1.1,0,0,0,.17-.08A1.46,1.46,0,0,1,21.26,21.44Z" fill="#212121"/><path d="M29.2,16.22A5.65,5.65,0,0,1,27.26,16a6.51,6.51,0,0,1-.61-.24.09.09,0,0,0-.13.09v.08a.09.09,0,0,0,.05.08,8.54,8.54,0,0,0,2.52,1,1.18,1.18,0,0,0,.87-.32.08.08,0,0,0,0-.06c0-.12,0-.24,0-.35a.09.09,0,0,0-.12-.09A2.49,2.49,0,0,1,29.2,16.22Z" fill="#212121"/><path d="M27.54,21.38c-.38,0-.89-.5-1.26-1a4.07,4.07,0,0,1-.32-.51.09.09,0,0,0-.17,0v0a.11.11,0,0,0,0,.08,4.07,4.07,0,0,0,.53,1c.44.58.65.63,1,.65l.52,0a.11.11,0,0,0,.08,0l.05-.05a.1.1,0,0,0-.08-.16Z" fill="#212121"/><path d="M28.59,12a.09.09,0,0,0,0-.13,6.75,6.75,0,0,0-.44-.65.41.41,0,0,1-.05.09,20.06,20.06,0,0,1-1.92,1.42c-.09.06,0,.15.06.13A11.46,11.46,0,0,0,28.59,12Z" fill="#212121"/><path d="M26.3,14.1h0a.11.11,0,0,0,.09.07,24,24,0,0,0,2.9-.11l.23-.08a.1.1,0,0,0,.05-.12c-.07-.2-.15-.41-.24-.62a.09.09,0,0,0-.14,0,2.13,2.13,0,0,1-.59.37,7.72,7.72,0,0,1-2.21.41A.1.1,0,0,0,26.3,14.1Z" fill="#212121"/><path d="M26.92,21.73a2.24,2.24,0,0,1-1-1.1c-.07-.13-.12-.25-.16-.34a.1.1,0,0,0-.18,0h0a.14.14,0,0,0,0,.09,3,3,0,0,0,.57,1.14,3.08,3.08,0,0,0,1.18.6.12.12,0,0,0,.1,0l.09-.08a.11.11,0,0,0-.06-.18A1.69,1.69,0,0,1,26.92,21.73Z" fill="#212121"/><path d="M26.49,15.27v.07a.1.1,0,0,0,.06.08A15.79,15.79,0,0,0,29.2,16a1.29,1.29,0,0,0,.76-.2.11.11,0,0,0,0-.08,3.91,3.91,0,0,0-.07-.62.09.09,0,0,0-.14-.06,1.35,1.35,0,0,1-.68.16l-2.51,0A.1.1,0,0,0,26.49,15.27Z" fill="#212121"/><path d="M26.41,14.57l0,.18a.08.08,0,0,0,.08.08c.46,0,1.57.13,2.28.13a2.11,2.11,0,0,0,1-.18.11.11,0,0,0,0-.11,3.57,3.57,0,0,0-.12-.4.08.08,0,0,0-.13,0,1.92,1.92,0,0,1-.37.14,14.1,14.1,0,0,1-2.7.1A.09.09,0,0,0,26.41,14.57Z" fill="#212121"/><path d="M28.33,11.15c.13.18.25.37.37.56a.11.11,0,0,0,.2,0,2.83,2.83,0,0,0,.13-.5.19.19,0,0,0,0-.07,12,12,0,0,0-.87-1.38c0,.12.08.25.11.38a1.53,1.53,0,0,1,0,.87.11.11,0,0,0,0,.1Z" fill="#212121"/><path d="M29.31,11.71a.11.11,0,0,0-.21,0,1.07,1.07,0,0,1-.07.15A1,1,0,0,1,29,12a.11.11,0,0,0,0,.13c.09.17.18.35.26.52a.11.11,0,0,0,.2,0,1.21,1.21,0,0,0,.12-.35.06.06,0,0,0,0-.06C29.46,12.06,29.39,11.89,29.31,11.71Z" fill="#212121"/><path d="M19.49,10.21a12.09,12.09,0,0,1-2-1.48,2.74,2.74,0,0,1-.41-.6h0l-.21.12a.11.11,0,0,0,0,.14,1.83,1.83,0,0,0,.27.43,12.59,12.59,0,0,0,1.66,1.48c.36.26.68.47.85.57a.09.09,0,0,0,.1,0l.34-.16a.11.11,0,0,0,0-.19Z" fill="#212121"/><path d="M20,8.68a6.49,6.49,0,0,1-1.6-1.15.13.13,0,0,0-.13,0l-.2.1a.11.11,0,0,0,0,.18,10.26,10.26,0,0,0,1.3,1.11,19.16,19.16,0,0,0,1.76,1.19.11.11,0,0,0,.11,0l.27-.16a.11.11,0,0,0,0-.17A6.1,6.1,0,0,0,20,8.68Z" fill="#212121"/><path d="M29.4,13.07c.1.23.18.46.26.66a.11.11,0,0,0,.18,0h0a.09.09,0,0,0,0-.1q0-.28-.12-.63a1.42,1.42,0,0,0,0-.2.11.11,0,0,0-.2,0l-.1.15A.11.11,0,0,0,29.4,13.07Z" fill="#212121"/><path d="M21,8.44a6.36,6.36,0,0,1-1.73-1.25.11.11,0,0,0-.12,0l-.43.17a.11.11,0,0,0,0,.18,5,5,0,0,0,1.48,1A6.25,6.25,0,0,1,21.8,9.68a.11.11,0,0,0,.13,0l.27-.15a.1.1,0,0,0,0-.16A3.73,3.73,0,0,0,21,8.44Z" fill="#212121"/><path d="M19.3,9.07a8.62,8.62,0,0,1-1.43-1.25.14.14,0,0,0-.14,0l-.38.2a.12.12,0,0,0,0,.17c.1.14.25.33.39.49a12.7,12.7,0,0,0,1.9,1.39c.39.24.66.38.8.46a.09.09,0,0,0,.1,0l.35-.18a.11.11,0,0,0,0-.19C20.59,10,20.1,9.66,19.3,9.07Z" fill="#212121"/><path d="M23,8.56A6.48,6.48,0,0,0,21.4,7.29a4.6,4.6,0,0,1-.73-.52.1.1,0,0,0-.09,0,7.38,7.38,0,0,0-1,.26.11.11,0,0,0,0,.2c.28.21.64.37,1.42.85A12.69,12.69,0,0,1,22.6,9.28a.13.13,0,0,0,.12,0,3.83,3.83,0,0,1,.45-.18A.12.12,0,0,0,23.23,9,2.8,2.8,0,0,0,23,8.56Z" fill="#212121"/><path d="M17.92,10.88a10.15,10.15,0,0,1-1.39-1.26,1.76,1.76,0,0,1-.29-.56A.11.11,0,0,0,16,9a1.25,1.25,0,0,0-.22.41c0,.14-.07.14.61,1.27.53.88.86,1.1,1,1.16a.1.1,0,0,0,.09,0l.93-.42.05,0a.11.11,0,0,0,0-.2C18.32,11.13,18.09,11,17.92,10.88Z" fill="#212121"/><path d="M16.53,9.31A7.23,7.23,0,0,0,18,10.73a5.23,5.23,0,0,0,.83.49.1.1,0,0,0,.09,0l.35-.16a.11.11,0,0,0,0-.19l-.49-.32A10,10,0,0,1,17,9a2.84,2.84,0,0,1-.31-.47.12.12,0,0,0-.17,0l-.2.19a.11.11,0,0,0,0,.11A2.35,2.35,0,0,0,16.53,9.31Z" fill="#212121"/><path d="M29.83,14a.11.11,0,0,0,0,.11,1.54,1.54,0,0,1,.05.17c.14.49.16.24.07-.37Z" fill="#212121"/><path d="M27.15,8.92a2.63,2.63,0,0,1,.23,1.1.12.12,0,0,0,0,.09,5.2,5.2,0,0,1,.47.47.11.11,0,0,0,.19-.07,2.46,2.46,0,0,0,0-.26,7,7,0,0,0-.33-1s0,0,0,0c-.16-.19-.32-.39-.5-.58a5.93,5.93,0,0,0-.44-.43C26.88,8.37,27,8.64,27.15,8.92Z" fill="#212121"/><path d="M23.42,7.65a4.27,4.27,0,0,1,1,1.22.12.12,0,0,0,.1.05h.28a.11.11,0,0,0,.12-.13A2.89,2.89,0,0,0,24.52,8,6.46,6.46,0,0,0,23.17,6.7l-.06,0-.8,0a.12.12,0,0,0-.07.21A10.42,10.42,0,0,1,23.42,7.65Z" fill="#212121"/><path d="M21.44,7.07a9.81,9.81,0,0,1,1.27,1,4.33,4.33,0,0,1,.84.9.11.11,0,0,0,.11,0L24,9a.11.11,0,0,0,.08-.17A3.61,3.61,0,0,0,23.52,8a13,13,0,0,0-1.91-1.35l-.06,0-.39,0a.11.11,0,0,0-.05.2A3.16,3.16,0,0,0,21.44,7.07Z" fill="#212121"/><path d="M24.61,7.72a2.53,2.53,0,0,1,.59,1.15.12.12,0,0,0,.09.1,2.91,2.91,0,0,1,.63.15A.12.12,0,0,0,26.08,9a.84.84,0,0,0-.21-.41c-.27-.31-1-1.23-1.25-1.61l-.06,0c-.2-.06-.4-.1-.6-.15a.11.11,0,0,0-.09.2A4.21,4.21,0,0,1,24.61,7.72Z" fill="#212121"/><path d="M26.3,7.8a5.3,5.3,0,0,0-.94-.56.12.12,0,0,0-.14.18,7.86,7.86,0,0,1,1,1.35.9.9,0,0,1,.06.48.11.11,0,0,0,.05.11c.21.13.4.24.58.37a.11.11,0,0,0,.18-.1V9.57a13.42,13.42,0,0,0-.77-1.73A.08.08,0,0,0,26.3,7.8Z" fill="#212121"/><path d="M10.74,14c.1.11,1.25-.88,1.77-.88S13.7,14,14,14s.54-.46,1-.46V9.65c-.11,0-.14-.19-.27-.19s-.12.46-.18.72a9.68,9.68,0,0,1-1.4,2c-.41.42-2,.66-2.26.9A1,1,0,0,0,10.74,14Zm2.76-1.86a9.23,9.23,0,0,0,.62-.78,7.12,7.12,0,0,0,.55-1,2.92,2.92,0,0,1-.43,1.06A2.06,2.06,0,0,1,13.5,12.17Z" fill="#212121"/><path d="M6.4,13c0,.22.58.64.94,1.23s.61.75,1.59,1,1.5.49,1.64.49-.26-.46-.26-1.19-.08-.94-.43-1.11S9.15,13,9.59,13s.65.2.65,0a3.74,3.74,0,0,0-2.18-.57C6.89,12.51,6.4,12.74,6.4,13Zm.93.08a4.23,4.23,0,0,0,.85.09c.45,0,.69,0,1,.23a7.15,7.15,0,0,0,.78.82c.18.1.1.47.19.56s.09.24,0,.24-.24-.31-.56-.35-.39-.52-.87-.53a4.7,4.7,0,0,0-.92.08,1.58,1.58,0,0,1,.39-.37,2.86,2.86,0,0,1,.62-.32,2.88,2.88,0,0,1-.7-.06A1.7,1.7,0,0,1,7.33,13Z" fill="#212121"/><path d="M11.66,15.63a.06.06,0,0,1,.06.08.42.42,0,0,1-.07.19A.48.48,0,0,1,11,16a1.08,1.08,0,0,1-.15-.27.06.06,0,0,1,.07-.09A3.56,3.56,0,0,0,11.66,15.63Z" fill="#212121"/><path d="M11.21,15.17a1.86,1.86,0,0,0-.44,0,.05.05,0,0,1-.07,0c0-.32.22-.47.59-.47.15,0,.27.09.37.34a1.17,1.17,0,0,1,.05.2.05.05,0,0,1-.08.06A1.13,1.13,0,0,0,11.21,15.17Z" fill="#212121"/><path d="M12.54,21c-.13,0-.71-1.35-.57-1.35s.49.62.54.84S12.64,21,12.54,21Z" fill="#212121"/><path d="M15,22.36A3,3,0,0,1,13.26,22c-.3-.28-.33-.05.18.58a2.3,2.3,0,0,0,1.56.84Z" fill="#212121"/><path d="M14.78,22a2.84,2.84,0,0,1-1.61-.27c-.32-.21-.34-.31-.34-.5s.13-.33.26-.92A3.73,3.73,0,0,0,13,18.83a4.46,4.46,0,0,1-.07.74,1.49,1.49,0,0,1-.25.56A5.6,5.6,0,0,1,11.62,18a5,5,0,0,0-.89-1.94,3,3,0,0,1,.55.4c.17.19.28.27.41.27s.45-1.15.45-1.15a2.44,2.44,0,0,1,.21.7,3.85,3.85,0,0,1,0,1,2.69,2.69,0,0,0,.35-1.18c0-.58-.81-1-1-1.29a2.89,2.89,0,0,1-.24-.89c0-.16.68-.57,1-.57s1.16,1,1.43,1,.68-.52,1.07-.52V17.5a6.28,6.28,0,0,0-1.21.65A5,5,0,0,1,15,17.69v2.62a1.09,1.09,0,0,1-.89-.52,1.78,1.78,0,0,1-.12-.93,3.4,3.4,0,0,0-.31,1.07c0,.41.52.34.87.8A1.35,1.35,0,0,1,14.78,22Z" fill="#212121"/><path d="M8.42,10.07l.27.15a.1.1,0,0,1,.05.08v1a.1.1,0,0,1-.12.09c-.11,0-.23,0-.35-.06a.08.08,0,0,1-.08-.1l.1-1.1A.08.08,0,0,1,8.42,10.07Z" fill="#212121"/><path d="M9.07,10.43l.33.18a.09.09,0,0,1,0,.1l-.19.77a.09.09,0,0,1-.12.06l-.14,0a.08.08,0,0,1-.07-.08v-.9A.09.09,0,0,1,9.07,10.43Z" fill="#212121"/><path d="M9.63,10.85a.09.09,0,0,1,.13-.07l.1.05.29.14a.09.09,0,0,1,0,.13l-.39.66a.08.08,0,0,1-.12,0l-.17-.09a.08.08,0,0,1,0-.1Z" fill="#212121"/><path d="M7.28,22.31a.43.43,0,0,0-.14-.3.1.1,0,0,1,.06-.17,2.85,2.85,0,0,0,.48-.13h0c.16,0,.35,0,.35.1a10.36,10.36,0,0,1-.74,1.33s0,0-.06,0h0a.09.09,0,0,1-.12-.12A2.69,2.69,0,0,0,7.28,22.31Z" fill="#212121"/><path d="M4.61,10.79A11.8,11.8,0,0,1,4,9.42a.09.09,0,0,1,0-.12,3.33,3.33,0,0,1,.6-.16.09.09,0,0,1,.11.08A4.77,4.77,0,0,0,5,10.39a10.27,10.27,0,0,0,.59,1.37.08.08,0,0,1,0,.12l-.16.1a.11.11,0,0,1-.13,0C5.12,11.66,4.81,11.15,4.61,10.79Z" fill="#212121"/><path d="M5.44,22.27a5.91,5.91,0,0,0-.1-.76.1.1,0,0,1,.15-.1l.16.12a.08.08,0,0,1,0,0,2.65,2.65,0,0,1,.27.67,5.42,5.42,0,0,1-.81,1,.14.14,0,0,1-.09,0l-.45-.11a.1.1,0,0,1,0-.18C5,22.78,5.44,22.45,5.44,22.27Z" fill="#212121"/><path d="M6.17,22.26a1.65,1.65,0,0,0-.23-.57l.25.1s0,0,0,0a1.3,1.3,0,0,1,.29.59,3.11,3.11,0,0,1-.54.92.12.12,0,0,1-.08,0H5.67a.1.1,0,0,1-.08-.16A3.14,3.14,0,0,0,6.17,22.26Z" fill="#212121"/><path d="M6.76,22.49A1.07,1.07,0,0,0,6.57,22a.1.1,0,0,1,.09-.16h.16a.39.39,0,0,1,.2.31,5,5,0,0,1-.35,1.06.11.11,0,0,1-.07.06h0a.09.09,0,0,1-.09-.15A2.14,2.14,0,0,0,6.76,22.49Z" fill="#212121"/><path d="M4.69,22.06a2.1,2.1,0,0,0,.22-.95.1.1,0,0,1,.17-.06l0,0a.13.13,0,0,1,0,.05,3.37,3.37,0,0,1,.08,1c0,.24-.71.63-1.1.85H4l-.27-.13a.1.1,0,0,1,0-.18A1.87,1.87,0,0,0,4.69,22.06Z" fill="#212121"/><path d="M10.5,11.13l.33.15a.11.11,0,0,1,0,.16l-.68.6a.11.11,0,0,1-.12,0L10,12a.09.09,0,0,1,0-.12l.41-.71A.1.1,0,0,1,10.5,11.13Z" fill="#212121"/><path d="M8.25,21.81s-.05-.09-.13-.13a.1.1,0,0,1,0-.17l.13-.08H8.3c.12,0,.24,0,.27.1a4.77,4.77,0,0,1-.1,1,.16.16,0,0,1,0,.07,4.23,4.23,0,0,1-.42.25.1.1,0,0,1-.13-.13A5.44,5.44,0,0,0,8.25,21.81Z" fill="#212121"/><path d="M2.86,16.61a2.82,2.82,0,0,0,.47-.26.09.09,0,0,1,.15.07v.23a.08.08,0,0,1,0,.09,9,9,0,0,1-2.46,1,1.36,1.36,0,0,1-.83-.28.09.09,0,0,1,0-.06c0-.1,0-.19,0-.28A.1.1,0,0,1,.21,17a1.2,1.2,0,0,0,.59.16A6.36,6.36,0,0,0,2.86,16.61Z" fill="#212121"/><path d="M3,10a4.79,4.79,0,0,1,.69-.48.09.09,0,0,1,.13.06,9.77,9.77,0,0,0,.49,1.22,12,12,0,0,0,.79,1.32.09.09,0,0,1,0,.13l0,0a.1.1,0,0,1-.12,0l-1-.88a4.07,4.07,0,0,1-.93-1.29S2.92,10,3,10Z" fill="#212121"/><path d="M7.64,11.23V9.78a.1.1,0,0,1,.14-.08L8,9.83a.08.08,0,0,1,0,.11,3.25,3.25,0,0,0-.09.57c0,.17,0,.5,0,.72a.09.09,0,0,1-.09.09h-.1A.09.09,0,0,1,7.64,11.23Z" fill="#212121"/><path d="M5.32,10.35a5.83,5.83,0,0,1-.27-1.17.09.09,0,0,1,.09-.1h.25a.09.09,0,0,1,.1.1,3.18,3.18,0,0,0,.12,1.08,8.83,8.83,0,0,0,.52,1.28.08.08,0,0,1,0,.12l-.1,0a.09.09,0,0,1-.12,0C5.73,11.37,5.5,10.85,5.32,10.35Z" fill="#212121"/><path d="M6,10.31a6.84,6.84,0,0,1-.2-1.23h.13l.4.05a.09.09,0,0,1,.08.09,4.82,4.82,0,0,0,.08,1c.07.4.18.84.25,1.11a.11.11,0,0,1-.07.12l-.14,0a.09.09,0,0,1-.11-.06A7.72,7.72,0,0,1,6,10.31Z" fill="#212121"/><path d="M7.27,11.35l-.21,0A.08.08,0,0,1,7,11.3L6.7,9.37a.09.09,0,0,1,.12-.1l.39.15a.09.09,0,0,1,0,.1,4.43,4.43,0,0,0,0,.88,8.13,8.13,0,0,0,.13.84C7.36,11.3,7.33,11.35,7.27,11.35Z" fill="#212121"/><path d="M3.92,13.48l0,0-.92,0A7,7,0,0,1,.91,12.9a.1.1,0,0,1,0-.12,5.6,5.6,0,0,1,.27-.55.1.1,0,0,1,.14,0,6,6,0,0,0,.92.48,15.53,15.53,0,0,0,1.71.57.1.1,0,0,1,.06.14Z" fill="#212121"/><path d="M.93,18.09A11.31,11.31,0,0,0,3.38,17a.08.08,0,0,1,.13.07c0,.07,0,.13,0,.19a.1.1,0,0,1,0,.09,12.54,12.54,0,0,1-2.27,1.4,1.93,1.93,0,0,1-.88-.48.05.05,0,0,1,0,0c0-.06,0-.12,0-.18A.09.09,0,0,1,.38,18,1.69,1.69,0,0,0,.93,18.09Z" fill="#212121"/><path d="M3.41,11.49a8.22,8.22,0,0,0,1.2.93.08.08,0,0,1,0,.14l-.12.13a.1.1,0,0,1-.12,0l-1.24-.85A11.91,11.91,0,0,1,2.05,11a.09.09,0,0,1,0-.13c.09-.11.18-.22.28-.32l.23-.24a.1.1,0,0,1,.15,0A3.25,3.25,0,0,0,3.41,11.49Z" fill="#212121"/><path d="M2,20.76a6.46,6.46,0,0,0,1.3-.92c.18-.18.38-.41.52-.58a.1.1,0,0,1,.17,0l.06.15a.09.09,0,0,1,0,.07,3.2,3.2,0,0,1-.61,1c-.51.53-.68.7-1,.7H1.8a.12.12,0,0,1-.08,0L1.6,21a.1.1,0,0,1,.07-.16A.64.64,0,0,0,2,20.76Z" fill="#212121"/><path d="M11.22,11.46l.93.41a.09.09,0,0,1,0,.17c-.45.18-1.24.64-1.36.64s-.19-.17-.43-.38a.1.1,0,0,1,0-.14l.76-.69A.09.09,0,0,1,11.22,11.46Z" fill="#212121"/><path d="M1.45,19.8a2.23,2.23,0,0,1-.57-.08.1.1,0,0,1-.06,0A6.65,6.65,0,0,1,.54,19a.1.1,0,0,1,.14-.12,1,1,0,0,0,.5.14,8.79,8.79,0,0,0,2.24-1.29.1.1,0,0,1,.16.07,1,1,0,0,0,0,.17.08.08,0,0,1,0,.08C3.14,18.49,1.85,19.8,1.45,19.8Z" fill="#212121"/><path d="M9.41,20.71s0,0-.07,0a.1.1,0,0,1,0-.16,4.13,4.13,0,0,0,.31-.42c.69-1,.59-.37.14.84a2.33,2.33,0,0,1-.14.33.1.1,0,0,1-.19-.06A.89.89,0,0,0,9.41,20.71Z" fill="#212121"/><path d="M1.59,20C2,20,3.28,18.7,3.66,18.31a1.18,1.18,0,0,0,0,.2,2.37,2.37,0,0,0,.09.36.1.1,0,0,1,0,.09,7,7,0,0,1-.84.89c-.53.45-.94.75-1.18.75H1.38a.1.1,0,0,1-.08-.05l-.21-.35L1.22,20Z" fill="#212121"/><path d="M3.8,21.94a3.6,3.6,0,0,0,.77-1.26.09.09,0,0,1,.16,0l0,0a.14.14,0,0,1,0,.07,2.85,2.85,0,0,1-.3,1.16,3.31,3.31,0,0,1-1.17.62.14.14,0,0,1-.09,0l-.1-.07a.1.1,0,0,1,0-.18A1.78,1.78,0,0,0,3.8,21.94Z" fill="#212121"/><path d="M8.74,21.44a.27.27,0,0,0-.13-.07.1.1,0,0,1,0-.17A5.3,5.3,0,0,0,9,20.82l.05,0c.1,0,.19,0,.21,0A6.16,6.16,0,0,1,9,22.06s0,0,0,.05a.46.46,0,0,0-.07.07.1.1,0,0,1-.17-.08A1.46,1.46,0,0,0,8.74,21.44Z" fill="#212121"/><path d="M.8,16.22A5.65,5.65,0,0,0,2.74,16a6.51,6.51,0,0,0,.61-.24.09.09,0,0,1,.13.09v.08a.09.09,0,0,1,0,.08A8.54,8.54,0,0,1,.91,17,1.18,1.18,0,0,1,0,16.64a.08.08,0,0,1,0-.06c0-.12,0-.24,0-.35a.09.09,0,0,1,.12-.09A2.49,2.49,0,0,0,.8,16.22Z" fill="#212121"/><path d="M2.46,21.38c.38,0,.89-.5,1.26-1A4.07,4.07,0,0,0,4,19.86a.09.09,0,0,1,.17,0v0a.11.11,0,0,1,0,.08,4.07,4.07,0,0,1-.53,1c-.44.58-.65.63-1,.65l-.52,0a.11.11,0,0,1-.08,0l0-.05a.1.1,0,0,1,.08-.16Z" fill="#212121"/><path d="M1.41,12a.09.09,0,0,1,0-.13,6.75,6.75,0,0,1,.44-.65.41.41,0,0,0,.05.09A20.06,20.06,0,0,0,3.78,12.7c.09.06,0,.15-.06.13A11.46,11.46,0,0,1,1.41,12Z" fill="#212121"/><path d="M3.7,14.1h0a.11.11,0,0,1-.09.07,24,24,0,0,1-2.9-.11L.48,14a.1.1,0,0,1,0-.12c.07-.2.15-.41.24-.62a.09.09,0,0,1,.14,0,2.13,2.13,0,0,0,.59.37A7.72,7.72,0,0,0,3.61,14,.1.1,0,0,1,3.7,14.1Z" fill="#212121"/><path d="M3.08,21.73a2.24,2.24,0,0,0,1-1.1c.07-.13.12-.25.16-.34a.1.1,0,0,1,.18,0h0a.14.14,0,0,1,0,.09A3,3,0,0,1,3.9,21.5a3.08,3.08,0,0,1-1.18.6.12.12,0,0,1-.1,0L2.53,22a.11.11,0,0,1,.06-.18A1.69,1.69,0,0,0,3.08,21.73Z" fill="#212121"/><path d="M3.51,15.27v.07a.1.1,0,0,1-.06.08A15.79,15.79,0,0,1,.8,16a1.29,1.29,0,0,1-.76-.2.11.11,0,0,1,0-.08,3.91,3.91,0,0,1,.07-.62A.09.09,0,0,1,.22,15a1.35,1.35,0,0,0,.68.16l2.51,0A.1.1,0,0,1,3.51,15.27Z" fill="#212121"/><path d="M3.59,14.57l0,.18a.08.08,0,0,1-.08.08C3,14.87,1.91,15,1.2,15a2.11,2.11,0,0,1-1-.18.11.11,0,0,1,0-.11,3.57,3.57,0,0,1,.12-.4.08.08,0,0,1,.13,0,1.92,1.92,0,0,0,.37.14,14.1,14.1,0,0,0,2.7.1A.09.09,0,0,1,3.59,14.57Z" fill="#212121"/><path d="M1.67,11.15c-.13.18-.25.37-.37.56a.11.11,0,0,1-.2,0,2.83,2.83,0,0,1-.13-.5.19.19,0,0,1,0-.07,12,12,0,0,1,.87-1.38c0,.12-.08.25-.11.38a1.53,1.53,0,0,0,0,.87.11.11,0,0,1,0,.1Z" fill="#212121"/><path d="M.69,11.71a.11.11,0,0,1,.21,0,1.07,1.07,0,0,0,.07.15,1,1,0,0,0,.08.11.11.11,0,0,1,0,.13c-.09.17-.18.35-.26.52a.11.11,0,0,1-.2,0,1.21,1.21,0,0,1-.12-.35.06.06,0,0,1,0-.06C.54,12.06.61,11.89.69,11.71Z" fill="#212121"/><path d="M10.51,10.21a12.09,12.09,0,0,0,2-1.48,2.74,2.74,0,0,0,.41-.6h0l.21.12a.11.11,0,0,1,0,.14,1.83,1.83,0,0,1-.27.43,12.59,12.59,0,0,1-1.66,1.48c-.36.26-.68.47-.85.57a.09.09,0,0,1-.1,0L10,10.72a.11.11,0,0,1,0-.19Z" fill="#212121"/><path d="M10,8.68a6.49,6.49,0,0,0,1.6-1.15.13.13,0,0,1,.13,0l.2.1a.11.11,0,0,1,0,.18,10.26,10.26,0,0,1-1.3,1.11,19.16,19.16,0,0,1-1.76,1.19.11.11,0,0,1-.11,0l-.27-.16a.11.11,0,0,1,0-.17A6.1,6.1,0,0,1,10,8.68Z" fill="#212121"/><path d="M.6,13.07c-.1.23-.18.46-.26.66a.11.11,0,0,1-.18,0h0a.09.09,0,0,1,0-.1q0-.28.12-.63a1.42,1.42,0,0,1,0-.2.11.11,0,0,1,.2,0l.1.15A.11.11,0,0,1,.6,13.07Z" fill="#212121"/><path d="M9,8.44a6.36,6.36,0,0,0,1.73-1.25.11.11,0,0,1,.12,0l.43.17a.11.11,0,0,1,0,.18,5,5,0,0,1-1.48,1A6.25,6.25,0,0,0,8.2,9.68a.11.11,0,0,1-.13,0L7.8,9.55a.1.1,0,0,1,0-.16A3.73,3.73,0,0,1,9,8.44Z" fill="#212121"/><path d="M10.7,9.07a8.62,8.62,0,0,0,1.43-1.25.14.14,0,0,1,.14,0l.38.2a.12.12,0,0,1,0,.17c-.1.14-.25.33-.39.49a12.7,12.7,0,0,1-1.9,1.39c-.39.24-.66.38-.8.46a.09.09,0,0,1-.1,0l-.35-.18a.11.11,0,0,1,0-.19C9.41,10,9.9,9.66,10.7,9.07Z" fill="#212121"/><path d="M7,8.56A6.48,6.48,0,0,1,8.6,7.29a4.6,4.6,0,0,0,.73-.52.1.1,0,0,1,.09,0,7.38,7.38,0,0,1,1,.26.11.11,0,0,1,0,.2c-.28.21-.64.37-1.42.85A12.69,12.69,0,0,0,7.4,9.28a.13.13,0,0,1-.12,0,3.83,3.83,0,0,0-.45-.18A.12.12,0,0,1,6.77,9,2.8,2.8,0,0,1,7,8.56Z" fill="#212121"/><path d="M12.08,10.88a10.15,10.15,0,0,0,1.39-1.26,1.76,1.76,0,0,0,.29-.56A.11.11,0,0,1,14,9a1.25,1.25,0,0,1,.22.41c0,.14.07.14-.61,1.27-.53.88-.86,1.1-1,1.16a.1.1,0,0,1-.09,0l-.93-.42-.05,0a.11.11,0,0,1,0-.2C11.68,11.13,11.91,11,12.08,10.88Z" fill="#212121"/><path d="M13.47,9.31A7.23,7.23,0,0,1,12,10.73a5.23,5.23,0,0,1-.83.49.1.1,0,0,1-.09,0l-.35-.16a.11.11,0,0,1,0-.19l.49-.32A10,10,0,0,0,13,9a2.84,2.84,0,0,0,.31-.47.12.12,0,0,1,.17,0l.2.19a.11.11,0,0,1,0,.11A2.35,2.35,0,0,1,13.47,9.31Z" fill="#212121"/><path d="M.17,14a.11.11,0,0,1,0,.11,1.54,1.54,0,0,0-.05.17C0,14.81,0,14.56.08,14Z" fill="#212121"/><path d="M2.85,8.92A2.63,2.63,0,0,0,2.62,10a.12.12,0,0,1,0,.09,5.2,5.2,0,0,0-.47.47.11.11,0,0,1-.19-.07,2.46,2.46,0,0,1,0-.26,7,7,0,0,1,.33-1s0,0,0,0c.16-.19.32-.39.5-.58a5.93,5.93,0,0,1,.44-.43C3.12,8.37,3,8.64,2.85,8.92Z" fill="#212121"/><path d="M6.58,7.65a4.27,4.27,0,0,0-1,1.22.12.12,0,0,1-.1.05H5.19a.11.11,0,0,1-.12-.13A2.89,2.89,0,0,1,5.48,8,6.46,6.46,0,0,1,6.83,6.7l.06,0,.8,0a.12.12,0,0,1,.07.21A10.42,10.42,0,0,0,6.58,7.65Z" fill="#212121"/><path d="M8.56,7.07a9.81,9.81,0,0,0-1.27,1,4.33,4.33,0,0,0-.84.9.11.11,0,0,1-.11,0L6,9a.11.11,0,0,1-.08-.17A3.61,3.61,0,0,1,6.48,8,13,13,0,0,1,8.39,6.65l.06,0,.39,0a.11.11,0,0,1,.05.2A3.16,3.16,0,0,1,8.56,7.07Z" fill="#212121"/><path d="M5.39,7.72A2.53,2.53,0,0,0,4.8,8.87a.12.12,0,0,1-.09.1,2.91,2.91,0,0,0-.63.15A.12.12,0,0,1,3.92,9a.84.84,0,0,1,.21-.41c.27-.31,1-1.23,1.25-1.61l.06,0c.2-.06.4-.1.6-.15a.11.11,0,0,1,.09.2A4.21,4.21,0,0,0,5.39,7.72Z" fill="#212121"/><path d="M3.7,7.8a5.3,5.3,0,0,1,.94-.56.12.12,0,0,1,.14.18,7.86,7.86,0,0,0-1,1.35.9.9,0,0,0-.06.48.11.11,0,0,1,0,.11c-.21.13-.4.24-.58.37a.11.11,0,0,1-.18-.1V9.57a13.42,13.42,0,0,1,.77-1.73A.08.08,0,0,1,3.7,7.8Z" fill="#212121"/><rect width="30" height="30" fill="none"/></svg>