<!-- Copyright (c) 2023 Jan Stehno -->
<svg xmlns="http://www.w3.org/2000/svg" viewBox="0 0 300 300">
    <title>iberianmouflon</title>
    <g id="iberianmouflon">
        <g id="right">
            <path
                d="M191.07,130.68c-2.48-2.34-18.47-4.81-22.6-9s-13.38-17.28-14-19.91-.52-7.18-1.82-7.18-1.58,1.94-2.66,1.94v39.07c4.65,0,7.25,4.62,10.11,4.62s9.66-8.7,14.83-8.7,16.64,9.82,17.7,8.76S193.54,133,191.07,130.68Zm-33.48-16.39a30.44,30.44,0,0,1-4.32-10.56,74.21,74.21,0,0,0,5.56,10.21c2.69,3.81,6.2,7.72,6.2,7.72S161.16,119.92,157.59,114.29Z"
                transform="translate(0)" fill="#212121" />
            <path
                d="M219.42,125.06c-11.73,0-21.84,4.63-21.84,5.73,0,1.64,2,.16,6.47-.38s.58,1.21-2.88,3-4.26,3.86-4.26,11.14-4,11.86-2.56,11.86,6.65-2.74,16.39-4.85,12.32-3.69,15.86-9.62S236,131.8,236,129.6,231.14,125.06,219.42,125.06Zm.23,9.27a29.91,29.91,0,0,1-6.94.54,32.79,32.79,0,0,1,6.17,3.23,15.29,15.29,0,0,1,3.91,3.71,46.18,46.18,0,0,0-9.17-.81c-4.78.1-5.59,4.92-8.76,5.33s-3.47,3.43-5.59,3.43c-1.32,0-1.25-1.51-.38-2.39s.11-4.58,1.93-5.53,5.05-5.56,7.78-8.22,5.05-2.32,9.6-2.32a40.16,40.16,0,0,0,8.46-1S223.26,133.59,219.65,134.33Z"
                transform="translate(0)" fill="#212121" />
            <path
                d="M183.4,156.29a.64.64,0,0,0-.61.8,4.12,4.12,0,0,0,.75,1.87c1.43,1.65,4.91,2.09,6.29.5a10.4,10.4,0,0,0,1.43-2.65c.19-.48-.16-1-.61-.94A32.79,32.79,0,0,1,183.4,156.29Z"
                transform="translate(0)" fill="#212121" />
            <path
                d="M187.89,151.69a15.67,15.67,0,0,1,4.39.26.57.57,0,0,0,.71-.52c.32-3.21-2.16-4.76-5.88-4.76-1.54,0-2.69.93-3.68,3.46a11.38,11.38,0,0,0-.54,2,.56.56,0,0,0,.8.62A10.71,10.71,0,0,1,187.89,151.69Z"
                transform="translate(0)" fill="#212121" />
            <path
                d="M174.57,210.42c1.34,0,7.17-13.55,5.69-13.55s-4.82,6.27-5.39,8.43S173.62,210.42,174.57,210.42Z"
                transform="translate(0)" fill="#212121" />
            <path
                d="M150,223.64c6.39,0,14.38-1.21,17.41-4.09s3.28-.54-1.82,5.73-12.38,8.4-15.59,8.4Z"
                transform="translate(0)" fill="#212121" />
            <path
                d="M152.2,219.53c1.26,1.26,13-.55,16.13-2.71s3.4-3.1,3.4-5-1.38-3.27-2.66-9.23.91-14.22.91-14.22a41.09,41.09,0,0,0,.76,7.32,13.91,13.91,0,0,0,2.44,5.59s8.83-10.76,10.65-21.2,8.86-19.36,8.86-19.36a28.45,28.45,0,0,0-5.45,4c-1.77,1.9-2.85,2.66-4.18,2.66s-4.42-11.51-4.42-11.51a24.07,24.07,0,0,0-2.15,7.08,39.81,39.81,0,0,0-.21,10.24c0,.1-3.5-6-3.5-11.83s8.09-9.55,9.57-12.88a28.26,28.26,0,0,0,2.38-8.89c0-1.58-6.83-5.71-9.75-5.71S163.43,144,160.69,144s-6.78-5.17-10.69-5.17V175c2.07,0,12.06,6.47,12.06,6.47s-9-4.56-12.06-4.56v26.2c2.47,0,7-1.58,8.94-5.17s1.17-9.3,1.17-9.3,3,6.6,3,10.69-5.16,3.33-8.62,7.95S151.11,218.44,152.2,219.53Z"
                transform="translate(0)" fill="#212121" />
            <path
                d="M215.76,100.68l-2.64,1.51a.93.93,0,0,0-.48.81v10.07a.92.92,0,0,0,1.12.9c1.12-.23,2.3-.41,3.52-.54a.93.93,0,0,0,.83-1l-1-11A.92.92,0,0,0,215.76,100.68Z"
                transform="translate(0)" fill="#212121" />
            <path
                d="M209.34,104.29c-1.08.59-2.2,1.18-3.34,1.77a.91.91,0,0,0-.48,1l1.88,7.69a.91.91,0,0,0,1.22.64c.47-.17.94-.33,1.43-.48a.94.94,0,0,0,.65-.88v-9A.92.92,0,0,0,209.34,104.29Z"
                transform="translate(0)" fill="#212121" />
            <path
                d="M203.73,108.46a.92.92,0,0,0-1.31-.62l-1.07.51-2.82,1.32a.91.91,0,0,0-.41,1.3l3.86,6.65a.93.93,0,0,0,1.26.33c.54-.31,1.1-.61,1.69-.91a.93.93,0,0,0,.49-1Z"
                transform="translate(0)" fill="#212121" />
            <path
                d="M227.19,223.14a4.36,4.36,0,0,1,1.4-3,1,1,0,0,0-.59-1.66,26.06,26.06,0,0,1-4.82-1.36,1,1,0,0,0-.34-.06c-1.68,0-3.51.18-3.51,1,0,1.1,4.76,9,7.41,13.28a1,1,0,0,0,.56.42l.4.12a1,1,0,0,0,1.22-1.27A26.59,26.59,0,0,1,227.19,223.14Z"
                transform="translate(0)" fill="#212121" />
            <path
                d="M253.85,107.88a117.06,117.06,0,0,0,5.9-13.68.94.94,0,0,0-.54-1.19,33.81,33.81,0,0,0-6-1.66.92.92,0,0,0-1.07.86,44.32,44.32,0,0,1-2.45,11.65,91.92,91.92,0,0,1-5.88,13.75.92.92,0,0,0,.4,1.23q.86.45,1.68.93a.9.9,0,0,0,1.24-.31C248.8,116.61,251.85,111.46,253.85,107.88Z"
                transform="translate(0)" fill="#212121" />
            <path
                d="M245.61,222.74a60.44,60.44,0,0,1,1-7.62,1,1,0,0,0-1.56-1c-.53.4-1.07.78-1.61,1.13a.93.93,0,0,0-.34.37c-1.08,2.19-2.68,5.63-2.68,6.73s5.27,7.16,8,10.19a1,1,0,0,0,.92.31q2.29-.45,4.53-1.11a1,1,0,0,0,.23-1.81C250.54,227.81,245.61,224.53,245.61,222.74Z"
                transform="translate(0)" fill="#212121" />
            <path
                d="M238.29,222.56c0-1.25,1.19-3.68,2.31-5.68a19.75,19.75,0,0,1-2.46,1,.91.91,0,0,0-.49.35c-1.22,1.7-2.87,4.28-2.87,5.85s3.28,6.37,5.39,9.21a1,1,0,0,0,.8.4c.79,0,1.59,0,2.38-.06a1,1,0,0,0,.74-1.59C241.84,229.06,238.29,224.15,238.29,222.56Z"
                transform="translate(0)" fill="#212121" />
            <path
                d="M232.36,224.85c0-1.16.95-3,2-4.58a1,1,0,0,0-.92-1.52c-.38,0-.76,0-1.14,0a1,1,0,0,0-.51.15,3.75,3.75,0,0,0-1.94,3c0,1.86,2,7.19,3.42,10.6a.94.94,0,0,0,.77.6l.32,0a1,1,0,0,0,1-1.49C234,229.35,232.36,226.28,232.36,224.85Z"
                transform="translate(0)" fill="#212121" />
            <path
                d="M253.08,220.56c-1.58-2.66-2.06-6.46-2.17-9.42a1,1,0,0,0-1.7-.64l-.23.24a.87.87,0,0,0-.26.49c-.53,2.63-1.32,7.39-.82,9.85s7.06,6.32,11,8.49a1,1,0,0,0,.88,0c.92-.4,1.82-.84,2.72-1.29a1,1,0,0,0-.12-1.83C259.06,225.34,254.76,223.4,253.08,220.56Z"
                transform="translate(0)" fill="#212121" />
            <path
                d="M195,111.32l-3.28,1.51a.92.92,0,0,0-.23,1.53l6.79,6.07a.91.91,0,0,0,1.16,0l.65-.48a.91.91,0,0,0,.27-1.22l-4.17-7.09A.93.93,0,0,0,195,111.32Z"
                transform="translate(0)" fill="#212121" />
            <path
                d="M217.48,218.11c0-.53.53-1,1.29-1.27a1,1,0,0,0,.1-1.78c-.42-.23-.84-.48-1.25-.73a.93.93,0,0,0-.59-.14c-1.19.11-2.48.37-2.77,1-.38.83.46,6.57,1.06,10.34a1,1,0,0,0,.42.66,38.87,38.87,0,0,0,4.12,2.5,1,1,0,0,0,1.36-1.3C219.46,223.62,217.48,219.16,217.48,218.11Z"
                transform="translate(0)" fill="#212121" />
            <path
                d="M271.35,166.13a30.61,30.61,0,0,1-4.68-2.67.92.92,0,0,0-1.44.75c0,.78-.05,1.56-.08,2.33a.93.93,0,0,0,.48.85c5.19,2.8,19.25,10.15,24.59,10.15a13.22,13.22,0,0,0,8.26-2.88.9.9,0,0,0,.33-.57c.16-1,.31-1.89.44-2.83a.92.92,0,0,0-1.35-.94,12.62,12.62,0,0,1-5.88,1.56C286.54,171.88,276.48,168.47,271.35,166.13Z"
                transform="translate(0)" fill="#212121" />
            <path
                d="M270.52,99.84a44.91,44.91,0,0,0-6.94-4.79.91.91,0,0,0-1.31.54,88.49,88.49,0,0,1-4.84,12.22,102.82,102.82,0,0,1-8,13.18.92.92,0,0,0,.22,1.28l.54.39a.93.93,0,0,0,1.16,0c2.17-1.9,6-5.23,10.12-8.8,4.85-4.19,8-10.26,9.26-12.89A.92.92,0,0,0,270.52,99.84Z"
                transform="translate(0)" fill="#212121" />
            <path
                d="M223.59,112.27V97.85a.92.92,0,0,0-1.35-.82l-2.33,1.29a.92.92,0,0,0-.45,1.05,25.43,25.43,0,0,1,1,5.74c.06,1.68.18,5,.26,7.19a.91.91,0,0,0,.93.88h1A.92.92,0,0,0,223.59,112.27Z"
                transform="translate(0)" fill="#212121" />
            <path
                d="M246.78,103.54a53.1,53.1,0,0,0,2.71-11.7.92.92,0,0,0-.85-1c-.84,0-1.69-.08-2.56-.1a.94.94,0,0,0-.94,1,34.35,34.35,0,0,1-1.28,10.83,78,78,0,0,1-5.18,12.77.93.93,0,0,0,.5,1.27l1.07.43a.91.91,0,0,0,1.19-.45C242.71,113.73,245,108.52,246.78,103.54Z"
                transform="translate(0)" fill="#212121" />
            <path
                d="M240.4,103.14a68.45,68.45,0,0,0,2-12.37l-1.26.06a34.6,34.6,0,0,0-4,.48.92.92,0,0,0-.75.93,54.73,54.73,0,0,1-.81,10.25c-.71,4-1.79,8.39-2.5,11.15a.91.91,0,0,0,.66,1.11l1.44.4a.91.91,0,0,0,1.11-.5A93.71,93.71,0,0,0,240.4,103.14Z"
                transform="translate(0)" fill="#212121" />
            <path
                d="M227.26,113.52c.7.08,1.41.18,2.11.3a.91.91,0,0,0,1.07-.78L233,93.69a.92.92,0,0,0-1.2-1c-1.31.44-2.61,1-3.91,1.52a.91.91,0,0,0-.54,1,40.59,40.59,0,0,1,.3,8.81c-.18,2.39-.78,6-1.22,8.45A.92.92,0,0,0,227.26,113.52Z"
                transform="translate(0)" fill="#212121" />
            <path
                d="M260.8,134.81l.23.51c2.12-.07,5.26-.21,9.2-.45,6.79-.42,16.3-3.76,20.65-5.88a.92.92,0,0,0,.44-1.22q-1.27-2.74-2.75-5.48a.93.93,0,0,0-1.37-.31,49.38,49.38,0,0,1-9.24,4.84,148.33,148.33,0,0,1-17.1,5.72.92.92,0,0,0-.57,1.32C260.47,134.18,260.64,134.49,260.8,134.81Z"
                transform="translate(0)" fill="#212121" />
            <path
                d="M290.67,180.87c-3.85,0-17.66-7-24.44-10.51a.92.92,0,0,0-1.34.76c-.05.65-.1,1.29-.16,1.92a.94.94,0,0,0,.38.82c4.94,3.57,19.75,14.06,22.73,14.06,2.37,0,6.32-2.84,8.76-4.78a.92.92,0,0,0,.31-.48c.16-.58.31-1.15.45-1.72a.92.92,0,0,0-1.21-1.09A15.33,15.33,0,0,1,290.67,180.87Z"
                transform="translate(0)" fill="#212121" />
            <path
                d="M265.87,114.86a72,72,0,0,1-12,9.31.93.93,0,0,0-.12,1.47c.42.4.84.8,1.24,1.21a.91.91,0,0,0,1.17.13c2.33-1.56,6.5-4.37,12.37-8.43a120.51,120.51,0,0,0,11-8.29.94.94,0,0,0,.1-1.29c-.9-1.08-1.83-2.15-2.8-3.18-.79-.83-1.57-1.61-2.33-2.35a.92.92,0,0,0-1.5.34A31.63,31.63,0,0,1,265.87,114.86Z"
                transform="translate(0)" fill="#212121" />
            <path
                d="M280.48,207.6c-2.43-1.21-9.49-5.71-12.94-9.17-1.86-1.85-3.81-4.13-5.22-5.86a1,1,0,0,0-1.69.27c-.19.48-.4,1-.61,1.45a1,1,0,0,0,0,.75,31.79,31.79,0,0,0,6.13,9.82c5.05,5.32,6.81,7,10.18,7H282a1,1,0,0,0,.78-.38c.44-.55.88-1.11,1.3-1.68a1,1,0,0,0-.73-1.57A7.5,7.5,0,0,1,280.48,207.6Z"
                transform="translate(0)" fill="#212121" />
            <path
                d="M187.82,114.59c-4.28,1.94-7.38,3.3-9.31,4.14a.92.92,0,0,0,0,1.7c4.44,1.76,12.37,6.34,13.57,6.34.54,0,1.91-1.66,4.31-3.82a.92.92,0,0,0,0-1.37l-7.57-6.84A.93.93,0,0,0,187.82,114.59Z"
                transform="translate(0)" fill="#212121" />
            <path
                d="M285.46,198a21,21,0,0,0,5.74-.83,1,1,0,0,0,.62-.54c1.05-2.27,2-4.55,2.81-6.85a1,1,0,0,0-1.41-1.2,10.8,10.8,0,0,1-5,1.38c-3.88,0-16.75-8.84-22.47-12.91a1,1,0,0,0-1.55.69c-.07.59-.15,1.17-.23,1.75a1,1,0,0,0,.26.81C268.64,184.92,281.5,198,285.46,198Z"
                transform="translate(0)" fill="#212121" />
            <path
                d="M205.87,207.08a1.53,1.53,0,0,1,.69-.41,1,1,0,0,0,.47-1.57,45.3,45.3,0,0,1-3.11-4.15c-6.92-10.42-5.94-3.78-1.44,8.36a33.7,33.7,0,0,0,1.4,3.24,1,1,0,0,0,1.88-.57C205.48,209.63,205.4,207.61,205.87,207.08Z"
                transform="translate(0)" fill="#212121" />
            <path
                d="M284.07,200.32c-3.84,0-16.9-13.32-20.64-17.22-.13.71-.26,1.39-.39,2-.23,1.15-.54,2.33-.91,3.54a1,1,0,0,0,.15.89,63.05,63.05,0,0,0,8.42,9C276,203,280.12,206,282.5,206h3.68a1,1,0,0,0,.84-.46c.73-1.14,1.42-2.3,2.08-3.48l-1.27-1.92C286.7,200.23,285.42,200.32,284.07,200.32Z"
                transform="translate(0)" fill="#212121" />
            <path
                d="M262,219.45c-3.2-2.64-6.06-8.79-7.63-12.64a1,1,0,0,0-1.69-.24l-.24.3a1,1,0,0,0-.22.7c.28,3,1.07,9.19,3,11.64s8.07,4.84,11.71,6.16a1,1,0,0,0,.88-.1c.34-.22.67-.45,1-.68a1,1,0,0,0-.25-1.77A18.47,18.47,0,0,1,262,219.45Z"
                transform="translate(0)" fill="#212121" />
            <path
                d="M212.64,214.36a3.35,3.35,0,0,1,1.26-.7,1,1,0,0,0,.28-1.7,43.89,43.89,0,0,1-4.29-3.76,1,1,0,0,0-.51-.27c-1-.16-1.87-.17-2.09.3-.35.74,1.25,7.93,2.29,12.39a1,1,0,0,0,.24.45c.23.25.47.49.71.73a1,1,0,0,0,1.68-.77C212,218.05,212,215,212.64,214.36Z"
                transform="translate(0)" fill="#212121" />
            <path
                d="M292,162.19c-7.19,0-12.89-.15-19.41-2.4-2.65-.91-4.65-1.74-6.1-2.39a.91.91,0,0,0-1.29.86c0,.29,0,.57,0,.85a.93.93,0,0,0,.48.8c5.39,2.82,19.11,9.68,25.18,9.68,4.63,0,7.29-1.77,8.67-3.16a.94.94,0,0,0,.26-.59c.09-1.21.14-2.4.17-3.56a.92.92,0,0,0-1.18-.9A24.15,24.15,0,0,1,292,162.19Z"
                transform="translate(0)" fill="#212121" />
            <path
                d="M275.35,213.75c-3.77,0-8.89-4.92-12.6-10a39.89,39.89,0,0,1-3.13-5.06,1,1,0,0,0-1.74,0l-.09.15a1,1,0,0,0-.07.79,37.34,37.34,0,0,0,5.27,9.8c4.38,5.8,6.53,6.3,9.9,6.51l5.26.32a1,1,0,0,0,.78-.31c.14-.16.29-.31.43-.46a1,1,0,0,0-.72-1.68Z"
                transform="translate(0)" fill="#212121" />
            <path
                d="M285.92,119.73a.93.93,0,0,0,.43-1.33c-1.36-2.23-2.84-4.42-4.43-6.54-.16.3-.31.6-.5.89-1.3,2-13.95,10.45-19.27,14.26-.85.61-.36,1.5.67,1.29C272.48,126.32,282.21,121.34,285.92,119.73Z"
                transform="translate(0)" fill="#212121" />
            <path
                d="M263,141v0a.92.92,0,0,0,.88.69c6.19,0,24.6.06,29-1.1a14.86,14.86,0,0,0,2.26-.78.93.93,0,0,0,.52-1.15c-.71-2-1.49-4.13-2.37-6.27a.93.93,0,0,0-1.48-.33,19.55,19.55,0,0,1-5.89,3.68c-6.89,2.81-16.71,3.76-22.09,4.09A.91.91,0,0,0,263,141Z"
                transform="translate(0)" fill="#212121" />
            <path
                d="M269.15,217.33c-4.11-1.39-8-6.41-10.38-11-.68-1.32-1.21-2.47-1.61-3.44a1,1,0,0,0-1.74-.15v0a1,1,0,0,0-.13.82c.79,2.69,2.71,8.32,5.72,11.47,2.7,2.84,8.36,4.89,11.82,5.95a1,1,0,0,0,.93-.2c.31-.26.63-.53.93-.8a1,1,0,0,0-.58-1.74A20.65,20.65,0,0,1,269.15,217.33Z"
                transform="translate(0)" fill="#212121" />
            <path
                d="M264.94,152.73c0,.2,0,.41,0,.62a.92.92,0,0,0,.66.82c5.62,1.6,20.72,5.76,26.38,5.76,4,0,6.3-1.11,7.54-2.06a1,1,0,0,0,.36-.81,47.46,47.46,0,0,0-.71-6.12.93.93,0,0,0-1.37-.64,13.66,13.66,0,0,1-6.85,1.63c-5,0-19.14-.14-25.14-.2A.91.91,0,0,0,264.94,152.73Z"
                transform="translate(0)" fill="#212121" />
            <path
                d="M264.07,145.68c.11.61.2,1.24.3,1.87a.91.91,0,0,0,.82.79c4.6.39,15.73,1.25,22.79,1.25,5.33,0,8.27-1,9.79-1.81a.91.91,0,0,0,.44-1c-.35-1.3-.74-2.65-1.18-4.05a.92.92,0,0,0-1.32-.54,16.49,16.49,0,0,1-3.69,1.47c-5.31,1.44-21,1.15-27,1A.91.91,0,0,0,264.07,145.68Z"
                transform="translate(0)" fill="#212121" />
            <path
                d="M283.31,111.52c1.31,1.79,2.53,3.65,3.68,5.53a1.12,1.12,0,0,0,2-.1,19.07,19.07,0,0,0,1.3-5,1.15,1.15,0,0,0-.12-.68,119.43,119.43,0,0,0-8.77-13.82c.41,1.24.8,2.53,1.13,3.76a16.1,16.1,0,0,1,.21,8.78,1.12,1.12,0,0,0,.17,1Z"
                transform="translate(0)" fill="#212121" />
            <path
                d="M293.06,117.12a1.12,1.12,0,0,0-2.08.14,6.84,6.84,0,0,1-.71,1.56,11.61,11.61,0,0,1-.82,1.1,1.1,1.1,0,0,0-.1,1.23c1,1.75,1.84,3.5,2.66,5.22a1.12,1.12,0,0,0,2,.08,10.84,10.84,0,0,0,1.25-3.56,1.11,1.11,0,0,0-.05-.6C294.57,120.62,293.86,118.89,293.06,117.12Z"
                transform="translate(0)" fill="#212121" />
            <path
                d="M194.93,102.1c-4.67-2.74-16.4-10.78-20-14.82a27.46,27.46,0,0,1-4.1-6l0,0a23.15,23.15,0,0,0-2.14,1.16,1.11,1.11,0,0,0-.4,1.42A21,21,0,0,0,171,88.22c2.79,3.51,11.5,11,16.63,14.78,3.57,2.63,6.83,4.72,8.47,5.74a1.13,1.13,0,0,0,1,.06l3.39-1.55a1.11,1.11,0,0,0,.06-2C199.09,104.47,197.11,103.38,194.93,102.1Z"
                transform="translate(0)" fill="#212121" />
            <path
                d="M200.37,86.83a66.41,66.41,0,0,1-16-11.51,1.11,1.11,0,0,0-1.25-.21c-.7.33-1.37.66-2,1a1.11,1.11,0,0,0-.33,1.75,100.44,100.44,0,0,0,13,11.18,203.89,203.89,0,0,0,17.59,11.91,1.1,1.1,0,0,0,1.12,0l2.71-1.59a1.1,1.1,0,0,0,.24-1.74A58.55,58.55,0,0,0,200.37,86.83Z"
                transform="translate(0)" fill="#212121" />
            <path
                d="M294,130.68c1,2.35,1.88,4.59,2.61,6.63a1.11,1.11,0,0,0,1.8.43h0a1.09,1.09,0,0,0,.35-1c-.32-1.92-.72-4.07-1.18-6.38-.13-.63-.27-1.27-.44-1.93a1.11,1.11,0,0,0-2-.32c-.29.47-.62,1-1,1.46A1.13,1.13,0,0,0,294,130.68Z"
                transform="translate(0)" fill="#212121" />
            <path
                d="M209.58,84.42a67.14,67.14,0,0,1-17.31-12.49,1.12,1.12,0,0,0-1.18-.24c-1.48.56-2.9,1.15-4.26,1.74a1.1,1.1,0,0,0-.34,1.8,50.94,50.94,0,0,0,14.77,10.12A58,58,0,0,1,218,96.83a1.1,1.1,0,0,0,1.32.18L222,95.54a1.11,1.11,0,0,0,.34-1.69A36.49,36.49,0,0,0,209.58,84.42Z"
                transform="translate(0)" fill="#212121" />
            <path
                d="M193,90.7c-8.18-6.06-12.36-10.24-14.3-12.45a1.11,1.11,0,0,0-1.36-.25l-3.88,2a1.1,1.1,0,0,0-.37,1.64c1,1.41,2.52,3.32,3.91,4.93,2.56,3,13,10.2,19,13.89,3.87,2.37,6.55,3.84,8,4.59a1.09,1.09,0,0,0,1,0c1.24-.62,2.42-1.23,3.49-1.82a1.11,1.11,0,0,0,0-1.92C206,99.81,201,96.62,193,90.7Z"
                transform="translate(0)" fill="#212121" />
            <path
                d="M229.59,85.57C226.9,82.27,222.11,78,214,72.9a54.41,54.41,0,0,1-7.25-5.17,1.13,1.13,0,0,0-1-.26,79.92,79.92,0,0,0-10.28,2.66,1.12,1.12,0,0,0-.33,2c2.9,2.13,6.46,3.67,14.22,8.49A140.6,140.6,0,0,1,226,92.75a1.1,1.1,0,0,0,1.2.16,45,45,0,0,1,4.45-1.83,1.1,1.1,0,0,0,.61-1.58A26.82,26.82,0,0,0,229.59,85.57Z"
                transform="translate(0)" fill="#212121" />
            <path
                d="M179.25,108.79a99.23,99.23,0,0,1-13.93-12.62,18.51,18.51,0,0,1-3-5.58,1.12,1.12,0,0,0-2-.28,11.29,11.29,0,0,0-2.18,4.11c0,1.35-.72,1.35,6.11,12.67,5.3,8.78,8.54,11,9.73,11.62a1.1,1.1,0,0,0,.92,0c1.14-.5,4.65-2,9.37-4.24l.5-.23a1.11,1.11,0,0,0,.09-2C183.17,111.27,181,110,179.25,108.79Z"
                transform="translate(0)" fill="#212121" />
            <path
                d="M165.32,93.12c2,3.55,10.07,10.69,14.83,14.2a54.91,54.91,0,0,0,8.22,4.92,1.08,1.08,0,0,0,.93,0l3.51-1.55a1.12,1.12,0,0,0,.17-2c-1.2-.78-2.85-1.85-4.92-3.16-4.77-3-14.43-11.46-17.84-15.68a26.07,26.07,0,0,1-3.1-4.69,1.11,1.11,0,0,0-1.72-.32c-.73.62-1.42,1.26-2.05,1.9a1.13,1.13,0,0,0-.26,1.11A27.39,27.39,0,0,0,165.32,93.12Z"
                transform="translate(0)" fill="#212121" />
            <path
                d="M298.31,140.36a1.11,1.11,0,0,0-.31,1.17c.18.59.35,1.15.5,1.66,1.43,4.91,1.57,2.45.68-3.66C298.92,139.8,298.63,140.08,298.31,140.36Z"
                transform="translate(0)" fill="#212121" />
            <path
                d="M271.53,89.21a25.31,25.31,0,0,1,2.24,11,1.13,1.13,0,0,0,.37.84,53.8,53.8,0,0,1,4.64,4.73,1.11,1.11,0,0,0,1.94-.76,24,24,0,0,0-.2-2.54c-.29-2.23-2-6.93-3.31-10.41a1.09,1.09,0,0,0-.18-.31c-1.59-1.94-3.25-3.87-5-5.77-1.43-1.56-2.9-3-4.39-4.34C268.79,83.73,270.21,86.37,271.53,89.21Z"
                transform="translate(0)" fill="#212121" />
            <path
                d="M234.21,76.51a44.34,44.34,0,0,1,10.12,12.15,1.09,1.09,0,0,0,1,.55c.93,0,1.88,0,2.83,0a1.11,1.11,0,0,0,1.13-1.4,28.26,28.26,0,0,0-4.09-8.26C241.83,74.67,235,69.42,231.68,67a1,1,0,0,0-.54-.2c-2.61-.26-5.3-.42-8.08-.5a1.12,1.12,0,0,0-.61,2.07A100.54,100.54,0,0,1,234.21,76.51Z"
                transform="translate(0)" fill="#212121" />
            <path
                d="M214.36,70.68c4.45,2.59,6.24,4.51,12.74,9.8a42.43,42.43,0,0,1,8.4,9,1.08,1.08,0,0,0,1.09.48c1.13-.18,2.37-.33,3.7-.46a1.11,1.11,0,0,0,.86-1.66A41.52,41.52,0,0,0,235.23,80c-3.77-3.88-14.84-10.83-19.12-13.46a1.09,1.09,0,0,0-.64-.16c-1.29.06-2.57.16-3.82.28a1.12,1.12,0,0,0-.51,2C212.05,69.27,213.12,70,214.36,70.68Z"
                transform="translate(0)" fill="#212121" />
            <path
                d="M246.15,77.21c4.3,5.5,5.5,9.49,5.83,11.54a1.07,1.07,0,0,0,1,.9,28.3,28.3,0,0,1,6.31,1.58,1.1,1.1,0,0,0,1.51-1.14A7.89,7.89,0,0,0,258.68,86c-2.7-3.12-9.61-12.22-12.51-16.07a1.1,1.1,0,0,0-.59-.4q-2.91-.85-6-1.45a1.11,1.11,0,0,0-.92,2A43.58,43.58,0,0,1,246.15,77.21Z"
                transform="translate(0)" fill="#212121" />
            <path
                d="M263,78a54.55,54.55,0,0,0-9.48-5.52,1.12,1.12,0,0,0-1.32,1.75c4.19,4.85,9.45,11.21,10.24,13.47a10.41,10.41,0,0,1,.63,4.86,1.12,1.12,0,0,0,.52,1.08c2,1.26,3.94,2.44,5.79,3.74a1.11,1.11,0,0,0,1.75-1c0-.2-.05-.4-.09-.61-.36-2.47-5.35-12.64-7.69-17.31A1.16,1.16,0,0,0,263,78Z"
                transform="translate(0)" fill="#212121" />
        </g>
        <g id="left">
            <path
                d="M107.36,140.29c1.06,1.06,12.54-8.76,17.7-8.76s12,8.7,14.83,8.7,5.46-4.62,10.11-4.62V96.54c-1.08,0-1.36-1.94-2.66-1.94s-1.22,4.55-1.82,7.18-9.85,15.74-14,19.91-20.12,6.65-22.6,9S106.31,139.24,107.36,140.29ZM135,121.66s3.51-3.91,6.2-7.72a74.21,74.21,0,0,0,5.56-10.21,30.44,30.44,0,0,1-4.32,10.56C138.84,119.92,135,121.66,135,121.66Z"
                transform="translate(0)" fill="#212121" />
            <path
                d="M64.05,129.6c0,2.2,5.8,6.38,9.35,12.31s6.11,7.5,15.86,9.62,15,4.85,16.39,4.85-2.56-4.58-2.56-11.86-.81-9.39-4.26-11.14-7.33-3.51-2.88-3,6.47,2,6.47.38c0-1.1-10.11-5.73-21.84-5.73S64.05,127.4,64.05,129.6Zm9.29.75a40.16,40.16,0,0,0,8.46,1c4.55,0,6.87-.34,9.6,2.32s6,7.28,7.78,8.22,1,4.65,1.93,5.53.94,2.39-.38,2.39c-2.12,0-2.42-3-5.59-3.43s-4-5.23-8.76-5.33a46.18,46.18,0,0,0-9.17.81,15.29,15.29,0,0,1,3.91-3.71,32.79,32.79,0,0,1,6.17-3.23,29.91,29.91,0,0,1-6.94-.54C76.74,133.59,73.34,130.35,73.34,130.35Z"
                transform="translate(0)" fill="#212121" />
            <path
                d="M116.6,156.29a.64.64,0,0,1,.61.8,4.12,4.12,0,0,1-.75,1.87c-1.43,1.65-4.91,2.09-6.29.5a10.4,10.4,0,0,1-1.43-2.65c-.19-.48.16-1,.61-.94A32.79,32.79,0,0,0,116.6,156.29Z"
                transform="translate(0)" fill="#212121" />
            <path
                d="M112.11,151.69a15.67,15.67,0,0,0-4.39.26.57.57,0,0,1-.71-.52c-.32-3.21,2.16-4.76,5.88-4.76,1.54,0,2.69.93,3.68,3.46a11.38,11.38,0,0,1,.54,2,.56.56,0,0,1-.8.62A10.71,10.71,0,0,0,112.11,151.69Z"
                transform="translate(0)" fill="#212121" />
            <path
                d="M125.43,210.42c-1.34,0-7.17-13.55-5.69-13.55s4.82,6.27,5.39,8.43S126.38,210.42,125.43,210.42Z"
                transform="translate(0)" fill="#212121" />
            <path
                d="M150,223.64c-6.39,0-14.38-1.21-17.41-4.09s-3.28-.54,1.82,5.73,12.38,8.4,15.59,8.4Z"
                transform="translate(0)" fill="#212121" />
            <path
                d="M147.8,219.53c-1.26,1.26-13-.55-16.13-2.71s-3.4-3.1-3.4-5,1.38-3.27,2.66-9.23-.91-14.22-.91-14.22a41.09,41.09,0,0,1-.76,7.32,13.91,13.91,0,0,1-2.44,5.59s-8.83-10.76-10.65-21.2-8.86-19.36-8.86-19.36a28.45,28.45,0,0,1,5.45,4c1.77,1.9,2.85,2.66,4.18,2.66s4.42-11.51,4.42-11.51a24.07,24.07,0,0,1,2.15,7.08,39.81,39.81,0,0,1,.21,10.24c0,.1,3.5-6,3.5-11.83s-8.09-9.55-9.57-12.88a28.26,28.26,0,0,1-2.38-8.89c0-1.58,6.83-5.71,9.75-5.71S136.57,144,139.31,144s6.78-5.17,10.69-5.17V175c-2.07,0-12.06,6.47-12.06,6.47s9-4.56,12.06-4.56v26.2c-2.47,0-7-1.58-8.94-5.17s-1.17-9.3-1.17-9.3-3,6.6-3,10.69,5.16,3.33,8.62,7.95S148.89,218.44,147.8,219.53Z"
                transform="translate(0)" fill="#212121" />
            <path
                d="M84.24,100.68l2.64,1.51a.93.93,0,0,1,.48.81v10.07a.92.92,0,0,1-1.12.9c-1.12-.23-2.3-.41-3.52-.54a.93.93,0,0,1-.83-1l1-11A.92.92,0,0,1,84.24,100.68Z"
                transform="translate(0)" fill="#212121" />
            <path
                d="M90.66,104.29c1.08.59,2.2,1.18,3.34,1.77a.91.91,0,0,1,.48,1l-1.88,7.69a.91.91,0,0,1-1.22.64c-.47-.17-.94-.33-1.43-.48a.94.94,0,0,1-.65-.88v-9A.92.92,0,0,1,90.66,104.29Z"
                transform="translate(0)" fill="#212121" />
            <path
                d="M96.27,108.46a.92.92,0,0,1,1.31-.62l1.07.51,2.82,1.32a.91.91,0,0,1,.41,1.3L98,117.62a.93.93,0,0,1-1.26.33c-.54-.31-1.1-.61-1.69-.91a.93.93,0,0,1-.49-1Z"
                transform="translate(0)" fill="#212121" />
            <path
                d="M72.81,223.14a4.36,4.36,0,0,0-1.4-3,1,1,0,0,1,.59-1.66,26.06,26.06,0,0,0,4.82-1.36,1,1,0,0,1,.34-.06c1.68,0,3.51.18,3.51,1,0,1.1-4.76,9-7.41,13.28a1,1,0,0,1-.56.42l-.4.12a1,1,0,0,1-1.22-1.27A26.59,26.59,0,0,0,72.81,223.14Z"
                transform="translate(0)" fill="#212121" />
            <path
                d="M46.15,107.88a117.06,117.06,0,0,1-5.9-13.68A.94.94,0,0,1,40.79,93a33.81,33.81,0,0,1,6-1.66.92.92,0,0,1,1.07.86,44.32,44.32,0,0,0,2.45,11.65,91.92,91.92,0,0,0,5.88,13.75.92.92,0,0,1-.4,1.23q-.86.45-1.68.93a.9.9,0,0,1-1.24-.31C51.2,116.61,48.15,111.46,46.15,107.88Z"
                transform="translate(0)" fill="#212121" />
            <path
                d="M54.39,222.74a60.44,60.44,0,0,0-1-7.62,1,1,0,0,1,1.56-1c.53.4,1.07.78,1.61,1.13a.93.93,0,0,1,.34.37c1.08,2.19,2.68,5.63,2.68,6.73s-5.27,7.16-8,10.19a1,1,0,0,1-.92.31q-2.3-.45-4.53-1.11a1,1,0,0,1-.23-1.81C49.46,227.81,54.39,224.53,54.39,222.74Z"
                transform="translate(0)" fill="#212121" />
            <path
                d="M61.71,222.56c0-1.25-1.19-3.68-2.31-5.68a19.75,19.75,0,0,0,2.46,1,.91.91,0,0,1,.49.35c1.22,1.7,2.87,4.28,2.87,5.85s-3.28,6.37-5.39,9.21a1,1,0,0,1-.8.4c-.79,0-1.59,0-2.38-.06a1,1,0,0,1-.74-1.59C58.16,229.06,61.71,224.15,61.71,222.56Z"
                transform="translate(0)" fill="#212121" />
            <path
                d="M67.64,224.85c0-1.16-1-3-2-4.58a1,1,0,0,1,.92-1.52c.38,0,.76,0,1.14,0a1,1,0,0,1,.51.15,3.75,3.75,0,0,1,1.94,3c0,1.86-2,7.19-3.42,10.6a.94.94,0,0,1-.77.6l-.32,0a1,1,0,0,1-1-1.49C66,229.35,67.64,226.28,67.64,224.85Z"
                transform="translate(0)" fill="#212121" />
            <path
                d="M46.92,220.56c1.58-2.66,2.06-6.46,2.17-9.42a1,1,0,0,1,1.7-.64l.23.24a.87.87,0,0,1,.26.49c.53,2.63,1.32,7.39.82,9.85s-7.06,6.32-11,8.49a1,1,0,0,1-.88,0c-.92-.4-1.82-.84-2.72-1.29a1,1,0,0,1,.12-1.83C40.94,225.34,45.24,223.4,46.92,220.56Z"
                transform="translate(0)" fill="#212121" />
            <path
                d="M105,111.32l3.28,1.51a.92.92,0,0,1,.23,1.53l-6.79,6.07a.91.91,0,0,1-1.16,0L100,120a.91.91,0,0,1-.27-1.22l4.17-7.09A.93.93,0,0,1,105,111.32Z"
                transform="translate(0)" fill="#212121" />
            <path
                d="M82.52,218.11c0-.53-.53-1-1.29-1.27a1,1,0,0,1-.1-1.78c.42-.23.84-.48,1.25-.73a.93.93,0,0,1,.59-.14c1.19.11,2.48.37,2.77,1,.38.83-.46,6.57-1.06,10.34a1,1,0,0,1-.42.66,38.87,38.87,0,0,1-4.12,2.5,1,1,0,0,1-1.36-1.3C80.54,223.62,82.52,219.16,82.52,218.11Z"
                transform="translate(0)" fill="#212121" />
            <path
                d="M28.65,166.13a30.61,30.61,0,0,0,4.68-2.67.92.92,0,0,1,1.44.75c0,.78,0,1.56.08,2.33a.93.93,0,0,1-.48.85c-5.19,2.8-19.25,10.15-24.59,10.15a13.22,13.22,0,0,1-8.26-2.88.9.9,0,0,1-.33-.57c-.16-1-.31-1.89-.44-2.83a.92.92,0,0,1,1.35-.94A12.62,12.62,0,0,0,8,171.88C13.46,171.88,23.52,168.47,28.65,166.13Z"
                transform="translate(0)" fill="#212121" />
            <path
                d="M29.48,99.84a44.91,44.91,0,0,1,6.94-4.79.91.91,0,0,1,1.31.54,88.49,88.49,0,0,0,4.84,12.22,102.82,102.82,0,0,0,8,13.18.92.92,0,0,1-.22,1.28l-.54.39a.93.93,0,0,1-1.16,0c-2.17-1.9-6-5.23-10.12-8.8-4.85-4.19-8-10.26-9.26-12.89A.92.92,0,0,1,29.48,99.84Z"
                transform="translate(0)" fill="#212121" />
            <path
                d="M76.41,112.27V97.85A.92.92,0,0,1,77.76,97l2.33,1.29a.92.92,0,0,1,.45,1.05,25.43,25.43,0,0,0-1,5.74c-.06,1.68-.18,5-.26,7.19a.91.91,0,0,1-.93.88h-1A.92.92,0,0,1,76.41,112.27Z"
                transform="translate(0)" fill="#212121" />
            <path
                d="M53.22,103.54a53.1,53.1,0,0,1-2.71-11.7.92.92,0,0,1,.85-1c.84,0,1.69-.08,2.56-.1a.94.94,0,0,1,.94,1,34.35,34.35,0,0,0,1.28,10.83,78,78,0,0,0,5.18,12.77.93.93,0,0,1-.5,1.27l-1.07.43a.91.91,0,0,1-1.19-.45C57.29,113.73,55,108.52,53.22,103.54Z"
                transform="translate(0)" fill="#212121" />
            <path
                d="M59.6,103.14a68.45,68.45,0,0,1-2-12.37l1.26.06a34.6,34.6,0,0,1,4,.48.92.92,0,0,1,.75.93,54.73,54.73,0,0,0,.81,10.25c.71,4,1.79,8.39,2.5,11.15a.91.91,0,0,1-.66,1.11l-1.44.4a.91.91,0,0,1-1.11-.5A93.71,93.71,0,0,1,59.6,103.14Z"
                transform="translate(0)" fill="#212121" />
            <path
                d="M72.74,113.52c-.7.08-1.41.18-2.11.3a.91.91,0,0,1-1.07-.78L67,93.69a.92.92,0,0,1,1.2-1c1.31.44,2.61,1,3.91,1.52a.91.91,0,0,1,.54,1,40.59,40.59,0,0,0-.3,8.81c.18,2.39.78,6,1.22,8.45A.92.92,0,0,1,72.74,113.52Z"
                transform="translate(0)" fill="#212121" />
            <path
                d="M39.2,134.81l-.23.51c-2.12-.07-5.26-.21-9.2-.45-6.79-.42-16.3-3.76-20.65-5.88a.92.92,0,0,1-.44-1.22Q10,125,11.43,122.29A.93.93,0,0,1,12.8,122,49.38,49.38,0,0,0,22,126.82a148.33,148.33,0,0,0,17.1,5.72.92.92,0,0,1,.57,1.32C39.53,134.18,39.36,134.49,39.2,134.81Z"
                transform="translate(0)" fill="#212121" />
            <path
                d="M9.33,180.87c3.85,0,17.66-7,24.44-10.51a.92.92,0,0,1,1.34.76c0,.65.1,1.29.16,1.92a.94.94,0,0,1-.38.82c-4.94,3.57-19.75,14.06-22.73,14.06-2.37,0-6.32-2.84-8.76-4.78a.92.92,0,0,1-.31-.48c-.16-.58-.31-1.15-.45-1.72a.92.92,0,0,1,1.21-1.09A15.33,15.33,0,0,0,9.33,180.87Z"
                transform="translate(0)" fill="#212121" />
            <path
                d="M34.13,114.86a72,72,0,0,0,12,9.31.93.93,0,0,1,.12,1.47c-.42.4-.84.8-1.24,1.21a.91.91,0,0,1-1.17.13c-2.33-1.56-6.5-4.37-12.37-8.43a120.51,120.51,0,0,1-11-8.29.94.94,0,0,1-.1-1.29c.9-1.08,1.83-2.15,2.8-3.18.79-.83,1.57-1.61,2.33-2.35a.92.92,0,0,1,1.5.34A31.63,31.63,0,0,0,34.13,114.86Z"
                transform="translate(0)" fill="#212121" />
            <path
                d="M19.52,207.6c2.43-1.21,9.49-5.71,12.94-9.17,1.86-1.85,3.81-4.13,5.22-5.86a1,1,0,0,1,1.69.27c.19.48.4,1,.61,1.45a1,1,0,0,1,0,.75,31.79,31.79,0,0,1-6.13,9.82c-5.05,5.32-6.81,7-10.18,7H18a1,1,0,0,1-.78-.38c-.44-.55-.88-1.11-1.3-1.68a1,1,0,0,1,.73-1.57A7.5,7.5,0,0,0,19.52,207.6Z"
                transform="translate(0)" fill="#212121" />
            <path
                d="M112.18,114.59c4.28,1.94,7.38,3.3,9.31,4.14a.92.92,0,0,1,0,1.7c-4.44,1.76-12.37,6.34-13.57,6.34-.54,0-1.91-1.66-4.31-3.82a.92.92,0,0,1,0-1.37l7.57-6.84A.93.93,0,0,1,112.18,114.59Z"
                transform="translate(0)" fill="#212121" />
            <path
                d="M14.54,198a21,21,0,0,1-5.74-.83,1,1,0,0,1-.62-.54c-1-2.27-2-4.55-2.81-6.85a1,1,0,0,1,1.41-1.2,10.8,10.8,0,0,0,5,1.38c3.88,0,16.75-8.84,22.47-12.91a1,1,0,0,1,1.55.69c.07.59.15,1.17.23,1.75a1,1,0,0,1-.26.81C31.36,184.92,18.5,198,14.54,198Z"
                transform="translate(0)" fill="#212121" />
            <path
                d="M94.13,207.08a1.53,1.53,0,0,0-.69-.41A1,1,0,0,1,93,205.1,45.3,45.3,0,0,0,96.08,201c6.92-10.42,5.94-3.78,1.44,8.36a33.7,33.7,0,0,1-1.4,3.24,1,1,0,0,1-1.88-.57C94.52,209.63,94.6,207.61,94.13,207.08Z"
                transform="translate(0)" fill="#212121" />
            <path
                d="M15.93,200.32c3.84,0,16.9-13.32,20.64-17.22.13.71.26,1.39.39,2,.23,1.15.54,2.33.91,3.54a1,1,0,0,1-.15.89,63.05,63.05,0,0,1-8.42,9C24,203,19.88,206,17.5,206H13.82a1,1,0,0,1-.84-.46c-.73-1.14-1.42-2.3-2.08-3.48l1.27-1.92C13.3,200.23,14.58,200.32,15.93,200.32Z"
                transform="translate(0)" fill="#212121" />
            <path
                d="M38,219.45c3.2-2.64,6.06-8.79,7.63-12.64a1,1,0,0,1,1.69-.24l.24.3a1,1,0,0,1,.22.7c-.28,3-1.07,9.19-3,11.64s-8.07,4.84-11.71,6.16a1,1,0,0,1-.88-.1c-.34-.22-.67-.45-1-.68a1,1,0,0,1,.25-1.77A18.47,18.47,0,0,0,38,219.45Z"
                transform="translate(0)" fill="#212121" />
            <path
                d="M87.36,214.36a3.35,3.35,0,0,0-1.26-.7,1,1,0,0,1-.28-1.7,43.89,43.89,0,0,0,4.29-3.76,1,1,0,0,1,.51-.27c1-.16,1.87-.17,2.09.3.35.74-1.25,7.93-2.29,12.39a1,1,0,0,1-.24.45c-.23.25-.47.49-.71.73a1,1,0,0,1-1.68-.77C88,218.05,88,215,87.36,214.36Z"
                transform="translate(0)" fill="#212121" />
            <path
                d="M8,162.19c7.19,0,12.89-.15,19.41-2.4,2.65-.91,4.65-1.74,6.1-2.39a.91.91,0,0,1,1.29.86c0,.29,0,.57,0,.85a.93.93,0,0,1-.48.8c-5.39,2.82-19.11,9.68-25.18,9.68-4.63,0-7.29-1.77-8.67-3.16a.94.94,0,0,1-.26-.59c-.09-1.21-.14-2.4-.17-3.56a.92.92,0,0,1,1.18-.9A24.15,24.15,0,0,0,8,162.19Z"
                transform="translate(0)" fill="#212121" />
            <path
                d="M24.65,213.75c3.77,0,8.89-4.92,12.6-10a39.89,39.89,0,0,0,3.13-5.06,1,1,0,0,1,1.74,0l.09.15a1,1,0,0,1,.07.79,37.34,37.34,0,0,1-5.27,9.8c-4.38,5.8-6.53,6.3-9.9,6.51l-5.26.32a1,1,0,0,1-.78-.31c-.14-.16-.29-.31-.43-.46a1,1,0,0,1,.72-1.68Z"
                transform="translate(0)" fill="#212121" />
            <path
                d="M14.08,119.73a.93.93,0,0,1-.43-1.33c1.36-2.23,2.84-4.42,4.43-6.54.16.3.31.6.5.89,1.3,2,14,10.45,19.27,14.26.85.61.36,1.5-.67,1.29C27.52,126.32,17.79,121.34,14.08,119.73Z"
                transform="translate(0)" fill="#212121" />
            <path
                d="M37,141v0a.92.92,0,0,1-.88.69c-6.19,0-24.6.06-29-1.1a14.86,14.86,0,0,1-2.26-.78.93.93,0,0,1-.52-1.15c.71-2,1.49-4.13,2.37-6.27A.93.93,0,0,1,8.15,132,19.55,19.55,0,0,0,14,135.71c6.89,2.81,16.71,3.76,22.09,4.09A.91.91,0,0,1,37,141Z"
                transform="translate(0)" fill="#212121" />
            <path
                d="M30.85,217.33c4.11-1.39,8-6.41,10.38-11,.68-1.32,1.21-2.47,1.61-3.44a1,1,0,0,1,1.74-.15v0a1,1,0,0,1,.13.82C43.93,206.25,42,211.88,39,215c-2.7,2.84-8.36,4.89-11.82,5.95a1,1,0,0,1-.93-.2c-.31-.26-.63-.53-.93-.8a1,1,0,0,1,.58-1.74A20.65,20.65,0,0,0,30.85,217.33Z"
                transform="translate(0)" fill="#212121" />
            <path
                d="M35.06,152.73c0,.2,0,.41,0,.62a.92.92,0,0,1-.66.82c-5.62,1.6-20.72,5.76-26.38,5.76-4,0-6.3-1.11-7.54-2.06a1,1,0,0,1-.36-.81,47.46,47.46,0,0,1,.71-6.12.93.93,0,0,1,1.37-.64A13.66,13.66,0,0,0,9,151.93c5,0,19.14-.14,25.14-.2A.91.91,0,0,1,35.06,152.73Z"
                transform="translate(0)" fill="#212121" />
            <path
                d="M35.93,145.68c-.11.61-.2,1.24-.3,1.87a.91.91,0,0,1-.82.79c-4.6.39-15.73,1.25-22.79,1.25-5.33,0-8.27-1-9.79-1.81a.91.91,0,0,1-.44-1c.35-1.3.74-2.65,1.18-4.05a.92.92,0,0,1,1.32-.54A16.49,16.49,0,0,0,8,143.62c5.31,1.44,21,1.15,27,1A.91.91,0,0,1,35.93,145.68Z"
                transform="translate(0)" fill="#212121" />
            <path
                d="M16.69,111.52c-1.31,1.79-2.53,3.65-3.68,5.53a1.12,1.12,0,0,1-2-.1,19.07,19.07,0,0,1-1.3-5,1.15,1.15,0,0,1,.12-.68A119.43,119.43,0,0,1,18.63,97.4c-.41,1.24-.8,2.53-1.13,3.76a16.1,16.1,0,0,0-.21,8.78,1.12,1.12,0,0,1-.17,1Z"
                transform="translate(0)" fill="#212121" />
            <path
                d="M6.94,117.12a1.12,1.12,0,0,1,2.08.14,6.84,6.84,0,0,0,.71,1.56,11.61,11.61,0,0,0,.82,1.1,1.1,1.1,0,0,1,.1,1.23c-1,1.75-1.84,3.5-2.66,5.22a1.12,1.12,0,0,1-2,.08,10.84,10.84,0,0,1-1.25-3.56,1.11,1.11,0,0,1,0-.6C5.43,120.62,6.14,118.89,6.94,117.12Z"
                transform="translate(0)" fill="#212121" />
            <path
                d="M105.07,102.1c4.67-2.74,16.4-10.78,20-14.82a27.46,27.46,0,0,0,4.1-6l0,0a23.15,23.15,0,0,1,2.14,1.16,1.11,1.11,0,0,1,.4,1.42A21,21,0,0,1,129,88.22c-2.79,3.51-11.5,11-16.63,14.78-3.57,2.63-6.83,4.72-8.47,5.74a1.13,1.13,0,0,1-1,.06l-3.39-1.55a1.11,1.11,0,0,1-.06-2C100.91,104.47,102.89,103.38,105.07,102.1Z"
                transform="translate(0)" fill="#212121" />
            <path
                d="M99.63,86.83a66.41,66.41,0,0,0,16-11.51,1.11,1.11,0,0,1,1.25-.21c.7.33,1.37.66,2,1a1.11,1.11,0,0,1,.33,1.75,100.44,100.44,0,0,1-13,11.18,203.89,203.89,0,0,1-17.59,11.91,1.1,1.1,0,0,1-1.12,0l-2.71-1.59a1.1,1.1,0,0,1-.24-1.74A58.55,58.55,0,0,1,99.63,86.83Z"
                transform="translate(0)" fill="#212121" />
            <path
                d="M6,130.68c-1,2.35-1.88,4.59-2.61,6.63a1.11,1.11,0,0,1-1.8.43h0a1.09,1.09,0,0,1-.35-1c.32-1.92.72-4.07,1.18-6.38.13-.63.27-1.27.44-1.93a1.11,1.11,0,0,1,2-.32c.29.47.62,1,1,1.46A1.13,1.13,0,0,1,6,130.68Z"
                transform="translate(0)" fill="#212121" />
            <path
                d="M90.42,84.42a67.14,67.14,0,0,0,17.31-12.49,1.12,1.12,0,0,1,1.18-.24c1.48.56,2.9,1.15,4.26,1.74a1.1,1.1,0,0,1,.34,1.8A50.94,50.94,0,0,1,98.74,85.35,58,58,0,0,0,82,96.83a1.1,1.1,0,0,1-1.32.18L78,95.54a1.11,1.11,0,0,1-.34-1.69A36.49,36.49,0,0,1,90.42,84.42Z"
                transform="translate(0)" fill="#212121" />
            <path
                d="M107,90.7c8.18-6.06,12.36-10.24,14.3-12.45a1.11,1.11,0,0,1,1.36-.25l3.88,2a1.1,1.1,0,0,1,.37,1.64c-1,1.41-2.52,3.32-3.91,4.93-2.56,3-13,10.2-19,13.89-3.87,2.37-6.55,3.84-8,4.59a1.09,1.09,0,0,1-1,0c-1.24-.62-2.42-1.23-3.49-1.82a1.11,1.11,0,0,1,0-1.92C94.05,99.81,99,96.62,107,90.7Z"
                transform="translate(0)" fill="#212121" />
            <path
                d="M70.41,85.57C73.1,82.27,77.89,78,86,72.9a54.41,54.41,0,0,0,7.25-5.17,1.13,1.13,0,0,1,.95-.26,79.92,79.92,0,0,1,10.28,2.66,1.12,1.12,0,0,1,.33,2c-2.9,2.13-6.46,3.67-14.22,8.49A140.6,140.6,0,0,0,74,92.75a1.1,1.1,0,0,1-1.2.16,45,45,0,0,0-4.45-1.83,1.1,1.1,0,0,1-.61-1.58A26.82,26.82,0,0,1,70.41,85.57Z"
                transform="translate(0)" fill="#212121" />
            <path
                d="M120.75,108.79a99.23,99.23,0,0,0,13.93-12.62,18.51,18.51,0,0,0,3-5.58,1.12,1.12,0,0,1,2-.28,11.29,11.29,0,0,1,2.18,4.11c0,1.35.72,1.35-6.11,12.67-5.3,8.78-8.54,11-9.73,11.62a1.1,1.1,0,0,1-.92,0c-1.14-.5-4.65-2-9.37-4.24l-.5-.23a1.11,1.11,0,0,1-.09-2C116.83,111.27,119.05,110,120.75,108.79Z"
                transform="translate(0)" fill="#212121" />
            <path
                d="M134.68,93.12c-2,3.55-10.07,10.69-14.83,14.2a54.91,54.91,0,0,1-8.22,4.92,1.08,1.08,0,0,1-.93,0l-3.51-1.55a1.12,1.12,0,0,1-.17-2c1.2-.78,2.85-1.85,4.92-3.16,4.77-3,14.43-11.46,17.84-15.68a26.07,26.07,0,0,0,3.1-4.69,1.11,1.11,0,0,1,1.72-.32c.73.62,1.42,1.26,2.05,1.9a1.13,1.13,0,0,1,.26,1.11A27.39,27.39,0,0,1,134.68,93.12Z"
                transform="translate(0)" fill="#212121" />
            <path
                d="M1.69,140.36A1.11,1.11,0,0,1,2,141.53c-.18.59-.35,1.15-.5,1.66-1.43,4.91-1.57,2.45-.68-3.66C1.08,139.8,1.37,140.08,1.69,140.36Z"
                transform="translate(0)" fill="#212121" />
            <path
                d="M28.47,89.21a25.31,25.31,0,0,0-2.24,11,1.13,1.13,0,0,1-.37.84,53.8,53.8,0,0,0-4.64,4.73,1.11,1.11,0,0,1-1.94-.76,24,24,0,0,1,.2-2.54c.29-2.23,2-6.93,3.31-10.41a1.09,1.09,0,0,1,.18-.31c1.59-1.94,3.25-3.87,5-5.77,1.43-1.56,2.9-3,4.39-4.34C31.21,83.73,29.79,86.37,28.47,89.21Z"
                transform="translate(0)" fill="#212121" />
            <path
                d="M65.79,76.51A44.34,44.34,0,0,0,55.67,88.66a1.09,1.09,0,0,1-1,.55c-.93,0-1.88,0-2.83,0a1.11,1.11,0,0,1-1.13-1.4,28.26,28.26,0,0,1,4.09-8.26C58.17,74.67,65,69.42,68.32,67a1,1,0,0,1,.54-.2c2.61-.26,5.3-.42,8.08-.5a1.12,1.12,0,0,1,.61,2.07A100.54,100.54,0,0,0,65.79,76.51Z"
                transform="translate(0)" fill="#212121" />
            <path
                d="M85.64,70.68c-4.45,2.59-6.24,4.51-12.74,9.8a42.43,42.43,0,0,0-8.4,9,1.08,1.08,0,0,1-1.09.48c-1.13-.18-2.37-.33-3.7-.46a1.11,1.11,0,0,1-.86-1.66A41.52,41.52,0,0,1,64.77,80c3.77-3.88,14.84-10.83,19.12-13.46a1.09,1.09,0,0,1,.64-.16c1.29.06,2.57.16,3.82.28a1.12,1.12,0,0,1,.51,2C88,69.27,86.88,70,85.64,70.68Z"
                transform="translate(0)" fill="#212121" />
            <path
                d="M53.85,77.21c-4.3,5.5-5.5,9.49-5.83,11.54a1.07,1.07,0,0,1-1,.9,28.3,28.3,0,0,0-6.31,1.58,1.1,1.1,0,0,1-1.51-1.14A7.89,7.89,0,0,1,41.32,86C44,82.85,50.93,73.75,53.83,69.9a1.1,1.1,0,0,1,.59-.4q2.91-.85,6-1.45a1.11,1.11,0,0,1,.92,2A43.58,43.58,0,0,0,53.85,77.21Z"
                transform="translate(0)" fill="#212121" />
            <path
                d="M37,78a54.55,54.55,0,0,1,9.48-5.52,1.12,1.12,0,0,1,1.32,1.75C43.57,79,38.31,85.4,37.52,87.66a10.41,10.41,0,0,0-.63,4.86,1.12,1.12,0,0,1-.52,1.08c-2,1.26-3.94,2.44-5.79,3.74a1.11,1.11,0,0,1-1.75-1c0-.2.05-.4.09-.61.36-2.47,5.35-12.64,7.69-17.31A1.16,1.16,0,0,1,37,78Z"
                transform="translate(0)" fill="#212121" />
        </g>
    </g>
    <g id="frame">
        <rect width="300" height="300" fill="none" />
    </g>
</svg>