<!-- Copyright (c) 2022 - 2023 Jan Stehno -->
<svg xmlns="http://www.w3.org/2000/svg" viewBox="0 0 300 300"><title>iberianwolf</title><g id="iberianwolf"><g id="right"><path d="M150,290.58c6.57,0,13.93-.61,17.68-5.16s7-7.49.31,4.06S155.16,300,150,300Z" transform="translate(0 0)" fill="#212121"/><path d="M189.33,271.71s-.93-1.32-.93-5.55a33.5,33.5,0,0,1,.47-6.4l-2.67.58s5.25-8.76,6.8-14.88,9.26-27.31,14.38-37.24,11.17-14.64,11.17-14.64-4.71,9.52-5.76,16.81a56.66,56.66,0,0,0,.41,15.53s4.23-15.7,15.28-28.34a281.74,281.74,0,0,1,25.46-24.87,6.26,6.26,0,0,0,2.41,3.35,14.2,14.2,0,0,0,4.17,2.06,66.42,66.42,0,0,1-1.61-15.32c0-9.17,1.5-12.25-.44-17.72s-7.76-12.7-7.76-12.7a45.12,45.12,0,0,1,7.32,3.83,11.29,11.29,0,0,1,3.35,3.9s0-5.92-5.34-16.5a104,104,0,0,0-10.41-16.89s17.86,7.36,17.86,13.1,11.11,19.53,11.11,26.76,6.44,17,6.44,17a29.55,29.55,0,0,1-6.66-3.24,31.83,31.83,0,0,1-5.42-4.43,84.8,84.8,0,0,0,2.73,18.52,70.44,70.44,0,0,0,6.4,15.6,30.14,30.14,0,0,1-5.51-3.39,22,22,0,0,1-4.06-4.06s.76,8.34-3.53,14a31.05,31.05,0,0,0-5.35,12.52,19.14,19.14,0,0,0-2.12-5.11,14.08,14.08,0,0,0-2.89-2.83,51.83,51.83,0,0,0-5.34,11.94c-1.88,6.52-12.28,14.81-12.28,14.81a24.2,24.2,0,0,0,1.48-6.07,8.9,8.9,0,0,0-1.23-5.11s.34,2.84-8.25,9-19.75,16.49-22.75,24.87S192.77,263.33,189.33,271.71Z" transform="translate(0 0)" fill="#212121"/><path d="M255.56,105.22a4,4,0,0,0,4.14-4c0-1.94-2.07-5.2-2.07-9.61s-3.31-6.52-3.31-13.93,7.94-43.92,7.94-48.24-10.2-17.67-13.2-24-3.53-6.34-9.23-4.35S219.05,12.1,213.32,14s-13.14,13.32-14.91,13.58.18,1.24-2.64,4.85-10.59,12.79-10.59,16.4,3.21,3.24,9.5,10.88,15.75,22.16,18.64,22.16,8.17-3.58,12.34-5.17A69.28,69.28,0,0,1,235.42,74a15.15,15.15,0,0,0-4-2.64,19.36,19.36,0,0,0-5.76-.77,52.5,52.5,0,0,1,7.59-9,36.17,36.17,0,0,1,9-6.64s-4.06-1.12-14.46.7-19.7-3.47-19.7-3.47a46.39,46.39,0,0,0,5.88.42A14.44,14.44,0,0,0,220,51s-8.91.59-14.67-1.59-5.23-3.11-5.23-3.11a8.3,8.3,0,0,0-2.35,1.23,11.23,11.23,0,0,0-2.09,2.15s.18-6.21,9.52-17.91,6.35-6.7,17.52-12.81S240.06,8.87,243,8.87s12.63,14.93,12.63,18-1.82,4.88-4.4,15.94S243.92,80,243.3,84.5s-5.12,3.48-5.12,6S250.09,105.22,255.56,105.22Z" transform="translate(0 0)" fill="#212121"/><path d="M186.2,149.67c-7.23,5.37-9.78,9.73-8.82,10.69,1.38,1.38,12.21-1.3,15.08-9.42S193.43,144.29,186.2,149.67Z" transform="translate(0 0)" fill="#212121"/><path d="M247.44,134.85c-5.46-7.58-8.73-12-8.73-12l11.55,3s-10.84-6.71-13.84-16.32-33-23.72-33-23.72a21.74,21.74,0,0,1,3.09,5.56,46.41,46.41,0,0,1,2,7.49s-2-5-8.2-12.34-12.87-8-15.72-16.94a41.53,41.53,0,0,0-9-15.05s-1.12,8.12,2.24,14.7,2.76,11.7,2.76,11.7a30.22,30.22,0,0,0-4.94-8.11c-3.47-4.12-6.17-15.4-8.52-18.87s-2.18-4.21,2.72-4.21,14.74-9.9,14.74-12.08-25.69-5.7-27.4-4c-2.1,2.11.09,10.62-1.32,18.38s-3,14.81,3.26,25.13S182.39,98.4,182.39,98.4A27.25,27.25,0,0,1,179.51,91c-.7-3.7-1.12-9-1.12-9a67.77,67.77,0,0,0,7.47,12.46c4.53,5.82,11.94,8.82,20.17,21.05s7.81,19.16,7.81,19.16-8.28-12.11-13.11-12.11-3.52,1.36-14.16,5.41-11.82,3.29-18.17,13.29-9.58,7.35-9.58,13.56,1.64,20.3,1.64,20.3L154,159l-4,22.7V239c12.35,0,18.46,11.28,18.46,19.87s-2.79,9.31-4.67,9.31-2.68-1-2.68-1.7-.38-1.56-1.82-1.56-1.94.44-1.94,1.85.41,2,2.79,3.38a10.26,10.26,0,0,0,5,1.33,11.2,11.2,0,0,1-3.71,4.49c-2.64,1.86-6,2.12-11.46,2.12v9.44c2.91,0,6.79-.44,13.4-2.91s24.08-29.46,27.08-50.44,25.39-45.86,25.39-45.86a39.44,39.44,0,0,0-8.73,1.23c-4.85,1.24-11,2.74-18.69,9.35S175,226,175,226s1.32-11.28,5.2-19.57,9.43-17.38,25.92-20.64,17.11-4.32,21.08-11.46,1.32-8.73-.44-15.26a32.14,32.14,0,0,1-1.32-10.67l-3.18.62s5.82-10.14,5.82-17.2-2.29-10.76-2.29-10.76,4,1.24,7.23,7.76-.35,13.76,3.26,23.11a23.9,23.9,0,0,0,11.91,12.78s-1.32-8.11,1.41-12.61S252.91,142.43,247.44,134.85Zm-44.88,9.3a26.17,26.17,0,0,1-3.95,9.77c-2.34,3.46-10.51,10.43-10.51,10.43a36.35,36.35,0,0,0,11.06-2.82,70.84,70.84,0,0,0,10.72-6.62s-1.59,5.82-8.73,11.16-21.08,6.35-22.31,5.11.46-3.37-.89-4.72-4.24-.69-9.9,1.84c0,0,5.94-16.4,13.81-22.81a32.09,32.09,0,0,1,19.95-7.58c6.26,0,11.73,5.32,10.74,9.29C211.49,144.9,206,144.15,202.56,144.15Z" transform="translate(0 0)" fill="#212121"/></g><g id="left"><path d="M150,290.58c-6.57,0-13.93-.61-17.68-5.16s-7-7.49-.31,4.06S144.84,300,150,300Z" transform="translate(0 0)" fill="#212121"/><path d="M110.67,271.71s.93-1.32.93-5.55a33.5,33.5,0,0,0-.47-6.4l2.67.58s-5.25-8.76-6.8-14.88-9.26-27.31-14.38-37.24-11.17-14.64-11.17-14.64,4.71,9.52,5.76,16.81a56.66,56.66,0,0,1-.41,15.53s-4.23-15.7-15.28-28.34a281.74,281.74,0,0,0-25.46-24.87,6.26,6.26,0,0,1-2.41,3.35,14.2,14.2,0,0,1-4.17,2.06,66.42,66.42,0,0,0,1.61-15.32c0-9.17-1.5-12.25.44-17.72s7.76-12.7,7.76-12.7A45.12,45.12,0,0,0,42,136.21a11.29,11.29,0,0,0-3.35,3.9s0-5.92,5.34-16.5a104,104,0,0,1,10.41-16.89s-17.86,7.36-17.86,13.1S25.4,139.35,25.4,146.58s-6.44,17-6.44,17a29.55,29.55,0,0,0,6.66-3.24A31.83,31.83,0,0,0,31,155.93a84.8,84.8,0,0,1-2.73,18.52,70.44,70.44,0,0,1-6.4,15.6,30.14,30.14,0,0,0,5.51-3.39,22,22,0,0,0,4.06-4.06s-.76,8.34,3.53,14a31.05,31.05,0,0,1,5.35,12.52A19.14,19.14,0,0,1,42.48,204a14.08,14.08,0,0,1,2.89-2.83,51.83,51.83,0,0,1,5.34,11.94C52.59,219.62,63,227.91,63,227.91a24.2,24.2,0,0,1-1.48-6.07,8.9,8.9,0,0,1,1.23-5.11s-.34,2.84,8.25,9,19.75,16.49,22.75,24.87S107.23,263.33,110.67,271.71Z" transform="translate(0 0)" fill="#212121"/><path d="M44.44,105.22a4,4,0,0,1-4.14-4c0-1.94,2.07-5.2,2.07-9.61s3.31-6.52,3.31-13.93-7.94-43.92-7.94-48.24,10.2-17.67,13.2-24,3.53-6.34,9.23-4.35S81,12.1,86.68,14s13.14,13.32,14.91,13.58-.18,1.24,2.64,4.85,10.59,12.79,10.59,16.4-3.21,3.24-9.5,10.88S89.57,81.82,86.68,81.82s-8.17-3.58-12.34-5.17A69.28,69.28,0,0,0,64.58,74a15.15,15.15,0,0,1,4-2.64,19.36,19.36,0,0,1,5.76-.77,52.5,52.5,0,0,0-7.59-9,36.17,36.17,0,0,0-9-6.64s4.06-1.12,14.46.7,19.7-3.47,19.7-3.47a46.39,46.39,0,0,1-5.88.42A14.44,14.44,0,0,1,80,51s8.91.59,14.67-1.59,5.23-3.11,5.23-3.11a8.3,8.3,0,0,1,2.35,1.23,11.23,11.23,0,0,1,2.09,2.15s-.18-6.21-9.52-17.91S88.51,25,77.34,18.92,59.94,8.87,57.05,8.87s-12.63,14.93-12.63,18,1.82,4.88,4.4,15.94S56.08,80,56.7,84.5s5.12,3.48,5.12,6S49.91,105.22,44.44,105.22Z" transform="translate(0 0)" fill="#212121"/><path d="M113.8,149.67c7.23,5.37,9.78,9.73,8.82,10.69-1.38,1.38-12.21-1.3-15.08-9.42S106.57,144.29,113.8,149.67Z" transform="translate(0 0)" fill="#212121"/><path d="M50.44,152.13c2.73,4.5,1.41,12.61,1.41,12.61A23.9,23.9,0,0,0,63.76,152c3.61-9.35,0-16.58,3.26-23.11s7.23-7.76,7.23-7.76S72,124.8,72,131.85s5.82,17.2,5.82,17.2l-3.18-.62a32.14,32.14,0,0,1-1.32,10.67c-1.76,6.53-4.41,8.11-.44,15.26s4.59,8.2,21.08,11.46,22,12.35,25.92,20.64S125,226,125,226s-5.82-20.54-13.49-27.16-13.84-8.11-18.69-9.35a39.44,39.44,0,0,0-8.73-1.23s22.4,24.87,25.39,45.86,20.46,48,27.08,50.44,10.49,2.91,13.4,2.91v-9.44c-5.47,0-8.82-.26-11.46-2.12a11.2,11.2,0,0,1-3.71-4.49,10.26,10.26,0,0,0,5-1.33c2.38-1.41,2.79-2,2.79-3.38s-.5-1.85-1.94-1.85-1.82.91-1.82,1.56-.79,1.7-2.68,1.7-4.67-.73-4.67-9.31S137.65,239,150,239V181.71L146,159l-6.46,16.11s1.64-14.08,1.64-20.3-3.23-3.57-9.58-13.56S124.07,132,113.43,128s-9.34-5.41-14.16-5.41-13.11,12.11-13.11,12.11-.42-6.93,7.81-19.16,15.64-15.23,20.17-21.05A67.77,67.77,0,0,0,121.61,82s-.42,5.29-1.12,9a27.25,27.25,0,0,1-2.88,7.41s17-10.9,23.22-21.22,4.67-17.37,3.26-25.13.78-16.27-1.32-18.38c-1.71-1.7-27.4,1.83-27.4,4s9.85,12.08,14.74,12.08,5.08.74,2.72,4.21-5.05,14.75-8.52,18.87a30.22,30.22,0,0,0-4.94,8.11s-.59-5.11,2.76-11.7,2.24-14.7,2.24-14.7a41.53,41.53,0,0,0-9,15.05c-2.85,8.91-9.55,9.62-15.72,16.94s-8.2,12.34-8.2,12.34a46.41,46.41,0,0,1,2-7.49,21.74,21.74,0,0,1,3.09-5.56s-30,14.11-33,23.72-13.84,16.32-13.84,16.32l11.55-3s-3.27,4.41-8.73,12S47.71,147.64,50.44,152.13Zm37-4.93c-1-4,4.48-9.29,10.74-9.29a32.09,32.09,0,0,1,20,7.58C126,151.9,132,168.3,132,168.3c-5.66-2.53-8.56-3.18-9.9-1.84s.35,3.49-.89,4.72-15.16.22-22.31-5.11-8.73-11.16-8.73-11.16a70.84,70.84,0,0,0,10.72,6.62,36.35,36.35,0,0,0,11.06,2.82s-8.17-7-10.51-10.43a26.17,26.17,0,0,1-4-9.77C94,144.15,88.51,144.9,87.45,147.2Z" transform="translate(0 0)" fill="#212121"/></g></g><g id="frame"><rect width="300" height="300" fill="none"/></g></svg>