<!-- Copyright (c) 2022 - 2023 Jan Stehno -->
<svg xmlns="http://www.w3.org/2000/svg" viewBox="0 0 300 300"><title>javanrusa</title><g id="javanrusa"><g id="right"><path d="M160.07,237c-2.74,0-5,5.3-5,8.22s.09,3,3.73-.49S163.17,237,160.07,237Z" transform="translate(0)" fill="#212121"/><path d="M150,259c4.9,0,9.39-1.84,11.64-2.56s1.35.54,1,3.46c-.31,2.77-3.38,7-12.68,7Z" transform="translate(0)" fill="#212121"/><path d="M185.51,205.75c3.46-5.5,2.56-3.69,6.52,5.25s9.79,18.75,11.19,29.45a80.39,80.39,0,0,1,0,19.95,5.4,5.4,0,0,0-2-3.19,8.87,8.87,0,0,0-3.55-1.48,44,44,0,0,1-.18,10.2c-.72,6.65-1.89,7.91-1.89,7.91a6.08,6.08,0,0,0-1.3-2.29,3.64,3.64,0,0,0-1.85-1s-6.33,9.49-9.75,9.49a15.4,15.4,0,0,1-6.25-1.44,18.74,18.74,0,0,0-2.69,5.44,52,52,0,0,0-1.71,7.46,13.7,13.7,0,0,0-1.44-3.87,12.59,12.59,0,0,0-2.11-2.42,6.53,6.53,0,0,1,0,2.65,4.73,4.73,0,0,1-1.08,2.11,7.63,7.63,0,0,0-.32-2.38,4.92,4.92,0,0,0-1.34-1.17,7.48,7.48,0,0,1-.45,4.14,10,10,0,0,1-2.74,3.23s.62-2.38,0-3.46a4.84,4.84,0,0,0-1.76-1.66,11.13,11.13,0,0,1-4.18,5.35c-3.32,2.38-5.65,6-6.65,6V269.09c10.49,0,12-.87,19.15-9.59s10-15.1,11.5-25.53S180.92,213,185.51,205.75Z" transform="translate(0)" fill="#212121"/><path d="M187.22,170.06c-3.24,0-8,3.23-8,7.1s2.47,3.87,4.31,3.87,5.26-5.35,5.26-7.47S188.67,170.06,187.22,170.06Z" transform="translate(0)" fill="#212121"/><path d="M150,126.46V233.3c1.44,0,4.45-3,9.8-3s10.25,6.47,10.25,12.58-2.88,9.35,1.16,5.49,5-12.23,6.57-25.62,9.17-23.92,17.8-42.43,6.65-19.6,7.91-19.87,5.21.54,8.63,0,27.23-8,34.43-21.75S255,114,252.66,108.75,243.94,101,234.5,101s-20,8-30.65,16.18-11.15,11.24-12.17,10.31-.73-2.26-6-2.26-2,1-8.31,1-3.37-4-8.41-4S155.9,126.46,150,126.46ZM200.75,153c0-1.52,2.42-2.33,4.85-3.14s2.56-2.21,3.91-3.33,4.09-.49,4.09-.49l-.58-1.85a28.69,28.69,0,0,1,3.1-.13,18,18,0,0,1,4.13.58,27.44,27.44,0,0,0-3.05-2.15A23.77,23.77,0,0,0,214,141a8.76,8.76,0,0,1,4.14.31,10.87,10.87,0,0,1,3.15,1.35,12.89,12.89,0,0,0-.77-2.34,6,6,0,0,0-1.57-2,12,12,0,0,1,3.32-.4,8.87,8.87,0,0,1,3.6.76,18.29,18.29,0,0,0-1.75-2.07,9.6,9.6,0,0,0-2.25-1.39,12.75,12.75,0,0,1,4.9,0,39,39,0,0,1,4.09,1.08,24,24,0,0,0-3.15-3.15,24.78,24.78,0,0,0-3.5-2,12.48,12.48,0,0,1,5.84.5,31.1,31.1,0,0,1,5.3,2,22.77,22.77,0,0,0-2-1.94,24.53,24.53,0,0,0-3.68-2s.54-.36,2.92-.36a11.34,11.34,0,0,1,3.77.54s-4.58-2.61-5.93-4.59-5.21-4-5.21-4a9.92,9.92,0,0,0,3.91-.72,8.17,8.17,0,0,0,2.78-1.35,10.14,10.14,0,0,1-4.13-.94,12.23,12.23,0,0,1-3.15-2.65s1.65.58,5.52.16c4.64-.5,6.05-1.2,6.05-1.2a19.92,19.92,0,0,1-5.9-1.58,15.1,15.1,0,0,1-3.33-2.19s1.17-4.77,9.35-4.77c7.23,0,12,2.88,13.12,4s1.35,4.81-2.56,11.64S233.47,140.48,220.34,147s-16.13,8.45-18.11,8.45S200.75,154.55,200.75,153Zm-23.11,20.54c3.15-5,6.43-7.64,10.34-7.64s5.66,3.06,7.55,4-1.57.54-2.52,1.49.41,4-3.1,8.09-4.67,4.27-6.24,4.27-1.76-.68-4-.68-3,1.58-3,6.43c0,8,2.43,12.54-.9,6.56C172.54,190.39,174.5,178.55,177.64,173.56Zm-14.56,7.56c3-8.28,4.81-8.77,6.07-9.94s-.14.59-2.83,8.81-3.6,12.36-3.6,18.88,0,10.2.67,12.67-.45,1.13-1.3-1.07C159.9,204.82,160.11,189.39,163.08,181.12Z" transform="translate(0)" fill="#212121"/><path d="M189,123.58c-1.53,0-1.66-1.3-4.32-1.3s-3.55,1.57-6.24,1.57-3.51-3-7.28-3.86-4.9.4-4.9-2.74,4.63-15.92,15-26.21S196.65,73.33,202,58.77,206.09,41.64,205,39s1.12-2.38,3.64-1.89,6.15,7.42,6.15,19.06-4.4,22.43-12.4,34.2S190.9,110.22,190,114.77,190.69,123.58,189,123.58Z" transform="translate(0)" fill="#212121"/><path d="M195.71,114.05c-1.35-1.34,2.24-12.49,6.15-17.57s5.81-7,6.21-9,1.3-1.58,6.52-3.65,11.37-5.88,13-8.22.31-4.18,2.7-17.22,5.18-22.39,5.18-37.5S235.4,2.09,237.11.7s4.22-.95,5,3.59,4.23,18.49,4.89,30.12.59,19-1,23.6-.68,3.23,4.72-2.48,9.21-12,14.6-24.9S276.26,9.28,279,6.54s2.39,1.89,2.3,5.08-2.48,6.88-5,18.83-5,23.38-10.52,30.75-13.12,10-18.51,14.83S244.84,83.76,236,89.69s-24.18,15.46-29.67,19.15S197.1,115.44,195.71,114.05Z" transform="translate(0)" fill="#212121"/></g><g id="left"><path d="M139.93,237c2.74,0,5,5.3,5,8.22s-.09,3-3.73-.49S136.83,237,139.93,237Z" transform="translate(0)" fill="#212121"/><path d="M150,259c-4.9,0-9.39-1.84-11.64-2.56s-1.35.54-1,3.46c.31,2.77,3.38,7,12.68,7Z" transform="translate(0)" fill="#212121"/><path d="M114.49,205.75c-3.46-5.5-2.56-3.69-6.52,5.25s-9.79,18.75-11.19,29.45a80.39,80.39,0,0,0,0,19.95,5.4,5.4,0,0,1,2-3.19,8.87,8.87,0,0,1,3.55-1.48,44,44,0,0,0,.18,10.2c.72,6.65,1.89,7.91,1.89,7.91a6.08,6.08,0,0,1,1.3-2.29,3.64,3.64,0,0,1,1.85-1s6.33,9.49,9.75,9.49a15.4,15.4,0,0,0,6.25-1.44,18.74,18.74,0,0,1,2.69,5.44,52,52,0,0,1,1.71,7.46,13.7,13.7,0,0,1,1.44-3.87,12.59,12.59,0,0,1,2.11-2.42,6.53,6.53,0,0,0,0,2.65,4.73,4.73,0,0,0,1.08,2.11,7.63,7.63,0,0,1,.32-2.38,4.92,4.92,0,0,1,1.34-1.17,7.48,7.48,0,0,0,.45,4.14,10,10,0,0,0,2.74,3.23s-.62-2.38,0-3.46a4.84,4.84,0,0,1,1.76-1.66,11.13,11.13,0,0,0,4.18,5.35c3.32,2.38,5.65,6,6.65,6V269.09c-10.49,0-12-.87-19.15-9.59s-10-15.1-11.5-25.53S119.08,213,114.49,205.75Z" transform="translate(0)" fill="#212121"/><path d="M112.78,170.06c3.24,0,8,3.23,8,7.1s-2.47,3.87-4.31,3.87-5.26-5.35-5.26-7.47S111.33,170.06,112.78,170.06Z" transform="translate(0)" fill="#212121"/><path d="M131.08,122.28c-5,0-2.12,4-8.41,4s-3-1-8.31-1-5,1.33-6,2.26-1.47-2.13-12.17-10.31S74.94,101,65.5,101s-15.82,2.52-18.16,7.73-1.08,16.18,6.11,29.94,31,21.21,34.43,21.75,7.37-.27,8.63,0-.72,1.35,7.91,19.87,16.27,29,17.8,42.43,2.52,21.75,6.57,25.62,1.16.63,1.16-5.49,4.9-12.58,10.25-12.58,8.36,3,9.8,3V126.46C144.1,126.46,136.11,122.28,131.08,122.28ZM97.77,155.45c-2,0-5-1.93-18.11-8.45s-22.61-18.52-26.52-25.35S49.5,111.09,50.58,110s5.89-4,13.12-4c8.18,0,9.35,4.77,9.35,4.77A15.1,15.1,0,0,1,69.72,113a19.92,19.92,0,0,1-5.9,1.58s1.41.7,6.05,1.2c3.87.42,5.52-.16,5.52-.16a12.23,12.23,0,0,1-3.15,2.65,10.14,10.14,0,0,1-4.13.94,8.17,8.17,0,0,0,2.78,1.35,9.92,9.92,0,0,0,3.91.72s-3.86,2-5.21,4-5.93,4.59-5.93,4.59a11.34,11.34,0,0,1,3.77-.54c2.38,0,2.92.36,2.92.36a24.53,24.53,0,0,0-3.68,2,22.77,22.77,0,0,0-2,1.94,31.1,31.1,0,0,1,5.3-2,12.48,12.48,0,0,1,5.84-.5,24.78,24.78,0,0,0-3.5,2,24,24,0,0,0-3.15,3.15,39,39,0,0,1,4.09-1.08,12.75,12.75,0,0,1,4.9,0,9.6,9.6,0,0,0-2.25,1.39,18.29,18.29,0,0,0-1.75,2.07,8.87,8.87,0,0,1,3.6-.76,12,12,0,0,1,3.32.4,6,6,0,0,0-1.57,2,12.89,12.89,0,0,0-.77,2.34,10.87,10.87,0,0,1,3.15-1.35A8.76,8.76,0,0,1,86,141a23.77,23.77,0,0,0-3.2,1.53,27.44,27.44,0,0,0-3,2.15,18,18,0,0,1,4.13-.58,28.69,28.69,0,0,1,3.1.13l-.58,1.85s2.74-.63,4.09.49,1.48,2.52,3.91,3.33,4.85,1.62,4.85,3.14S99.75,155.45,97.77,155.45Zm26.52,40.63c-3.33,6-.9,1.44-.9-6.56,0-4.85-.72-6.43-3-6.43s-2.47.68-4,.68-2.74-.14-6.24-4.27-2.16-7.15-3.1-8.09-4.41-.54-2.52-1.49,3.64-4,7.55-4,7.19,2.65,10.34,7.64S127.46,190.39,124.29,196.08Zm13.62,14.39c-.85,2.2-1.93,3.55-1.3,1.07s.67-6.15.67-12.67-.9-10.65-3.6-18.88-4.09-10-2.83-8.81,3.1,1.66,6.07,9.94S140.1,204.82,137.91,210.47Z" transform="translate(0)" fill="#212121"/><path d="M111,123.58c1.53,0,1.66-1.3,4.32-1.3s3.55,1.57,6.24,1.57,3.51-3,7.28-3.86,4.9.4,4.9-2.74-4.63-15.92-15-26.21S103.35,73.33,98,58.77,93.91,41.64,95,39s-1.12-2.38-3.64-1.89-6.15,7.42-6.15,19.06,4.4,22.43,12.4,34.2S109.1,110.22,110,114.77,109.31,123.58,111,123.58Z" transform="translate(0)" fill="#212121"/><path d="M104.29,114.05c1.35-1.34-2.24-12.49-6.15-17.57s-5.81-7-6.21-9-1.3-1.58-6.52-3.65-11.37-5.88-13-8.22-.31-4.18-2.7-17.22S64.54,36,64.54,20.86,64.6,2.09,62.89.7s-4.22-.95-5,3.59S53.63,22.78,53,34.41s-.59,19,1,23.6.68,3.23-4.72-2.48-9.21-12-14.6-24.9S23.74,9.28,21.05,6.54s-2.39,1.89-2.3,5.08,2.48,6.88,5,18.83,5,23.38,10.52,30.75S47.43,71.17,52.82,76,55.16,83.76,64,89.69s24.18,15.46,29.67,19.15S102.9,115.44,104.29,114.05Z" transform="translate(0)" fill="#212121"/></g></g><g id="frame"><rect width="300" height="300" fill="none"/></g></svg>