<svg xmlns="http://www.w3.org/2000/svg" viewBox="0 0 30 30"><path d="M16,23.7c-.28,0-.51.53-.51.83s0,.3.38-.05S16.32,23.7,16,23.7Z" transform="translate(0 0)" fill="#212121"/><path d="M15,25.9a3.38,3.38,0,0,0,1.16-.26c.23-.07.14.06.11.35s-.34.7-1.27.7Z" transform="translate(0 0)" fill="#212121"/><path d="M18.55,20.57c.35-.55.26-.36.65.53A10.8,10.8,0,0,1,20.32,24a8,8,0,0,1,0,2,.52.52,0,0,0-.2-.32.88.88,0,0,0-.35-.15,4.66,4.66,0,0,1,0,1c-.07.67-.19.79-.19.79a.61.61,0,0,0-.13-.23.33.33,0,0,0-.18-.1s-.64.95-1,.95a1.54,1.54,0,0,1-.62-.14,1.68,1.68,0,0,0-.27.54,5.76,5.76,0,0,0-.17.75,1.24,1.24,0,0,0-.15-.39,1.18,1.18,0,0,0-.21-.24.65.65,0,0,1,0,.26.41.41,0,0,1-.11.21.84.84,0,0,0,0-.24.49.49,0,0,0-.13-.11.76.76,0,0,1,0,.41,1.05,1.05,0,0,1-.27.33.66.66,0,0,0,0-.35.47.47,0,0,0-.18-.17,1.09,1.09,0,0,1-.41.54c-.34.24-.57.6-.67.6V26.91c1.05,0,1.2-.09,1.91-1a4.62,4.62,0,0,0,1.16-2.55C18.22,22.35,18.09,21.3,18.55,20.57Z" transform="translate(0 0)" fill="#212121"/><path d="M18.72,17a.85.85,0,0,0-.8.71c0,.38.25.38.43.38s.53-.53.53-.74S18.87,17,18.72,17Z" transform="translate(0 0)" fill="#212121"/><path d="M15,12.65V23.33a2.78,2.78,0,0,1,1-.3,1.25,1.25,0,0,1,1,1.26c0,.61-.28.93.12.55s.5-1.23.66-2.57.91-2.39,1.78-4.24.66-2,.79-2a5.94,5.94,0,0,0,.86,0c.34,0,2.73-.8,3.44-2.17a4,4,0,0,0,.62-3c-.24-.53-.88-.78-1.82-.78s-2,.8-3.07,1.62-1.11,1.12-1.21,1-.08-.23-.61-.23-.2.1-.83.1-.33-.39-.84-.39S15.59,12.65,15,12.65Zm5.07,2.65c0-.15.25-.23.49-.31s.26-.22.39-.33a.54.54,0,0,1,.41-.05l-.06-.19h.31a1.87,1.87,0,0,1,.42.06,3.17,3.17,0,0,0-.31-.22,2,2,0,0,0-.32-.15.88.88,0,0,1,.41,0,1.11,1.11,0,0,1,.32.13,1,1,0,0,0-.08-.23.54.54,0,0,0-.16-.2,1.27,1.27,0,0,1,.34,0,1,1,0,0,1,.36.07,1.75,1.75,0,0,0-.18-.2.84.84,0,0,0-.22-.14,1.15,1.15,0,0,1,.49,0,2.91,2.91,0,0,1,.41.11,1.61,1.61,0,0,0-.67-.52,1.34,1.34,0,0,1,.59.05,4,4,0,0,1,.53.2,1.58,1.58,0,0,0-.21-.19A2.05,2.05,0,0,0,23,13a.64.64,0,0,1,.3,0,1,1,0,0,1,.37.06,2.48,2.48,0,0,1-.59-.46,1.71,1.71,0,0,0-.52-.4,1.1,1.1,0,0,0,.39-.07,1,1,0,0,0,.28-.14,1,1,0,0,1-.41-.09,1.29,1.29,0,0,1-.32-.27,1.4,1.4,0,0,0,.55,0,2.11,2.11,0,0,0,.61-.12A2,2,0,0,1,23,11.3a1.4,1.4,0,0,1-.34-.22s.12-.47.94-.47a2.09,2.09,0,0,1,1.31.39c.11.11.14.48-.25,1.17A6.79,6.79,0,0,1,22,14.7a8.83,8.83,0,0,1-1.81.85C20,15.55,20.07,15.46,20.07,15.3Zm-2.31,2.06c.32-.5.65-.77,1-.77s.56.31.75.4-.15.06-.25.15,0,.4-.31.81-.47.43-.62.43-.18-.07-.41-.07-.3.16-.3.64c0,.8.24,1.26-.09.66A2.8,2.8,0,0,1,17.76,17.36Zm-1.45.75c.29-.83.48-.87.6-1s0,.06-.28.88a5.29,5.29,0,0,0-.36,1.89,6.07,6.07,0,0,0,.07,1.26c.06.25-.05.12-.13-.1A5.71,5.71,0,0,1,16.31,18.11Z" transform="translate(0 0)" fill="#212121"/><path d="M18.9,12.36c-.16,0-.17-.13-.43-.13s-.36.16-.63.16-.35-.3-.73-.39-.49,0-.49-.28a5.33,5.33,0,0,1,1.5-2.62A7.59,7.59,0,0,0,20.2,5.88c.53-1.46.41-1.72.3-2s.11-.23.37-.19.61.75.61,1.91A6,6,0,0,1,20.24,9,7.64,7.64,0,0,0,19,11.48C18.9,11.93,19.07,12.36,18.9,12.36Z" transform="translate(0 0)" fill="#212121"/><path d="M19.57,11.41a3,3,0,0,1,.62-1.76c.39-.51.58-.7.62-.91s.13-.15.65-.36a3.73,3.73,0,0,0,1.3-.82c.16-.24,0-.42.27-1.72a18,18,0,0,0,.52-3.75c0-1.51,0-1.88.16-2s.42-.09.5.36a21,21,0,0,1,.49,3,6.88,6.88,0,0,1-.1,2.36c-.16.46-.07.32.47-.25a7.39,7.39,0,0,0,1.46-2.49A9,9,0,0,1,27.9.65c.26-.27.23.19.22.51s-.24.69-.5,1.89a8.39,8.39,0,0,1-1.05,3.07A9.52,9.52,0,0,1,24.72,7.6c-.54.49-.24.78-1.12,1.37s-2.42,1.55-3,1.91S19.71,11.54,19.57,11.41Z" transform="translate(0 0)" fill="#212121"/><path d="M14,23.7c.28,0,.51.53.51.83s0,.3-.38-.05S13.68,23.7,14,23.7Z" transform="translate(0 0)" fill="#212121"/><path d="M15,25.9a3.38,3.38,0,0,1-1.16-.26c-.23-.07-.14.06-.11.35s.34.7,1.27.7Z" transform="translate(0 0)" fill="#212121"/><path d="M11.45,20.57c-.35-.55-.26-.36-.65.53A10.8,10.8,0,0,0,9.68,24a8,8,0,0,0,0,2,.52.52,0,0,1,.2-.32.88.88,0,0,1,.35-.15,4.66,4.66,0,0,0,0,1c.07.67.19.79.19.79a.61.61,0,0,1,.13-.23.33.33,0,0,1,.18-.1s.64.95,1,.95a1.54,1.54,0,0,0,.62-.14,1.68,1.68,0,0,1,.27.54,5.76,5.76,0,0,1,.17.75,1.24,1.24,0,0,1,.15-.39,1.18,1.18,0,0,1,.21-.24.65.65,0,0,0,0,.26.41.41,0,0,0,.11.21.84.84,0,0,1,0-.24.49.49,0,0,1,.13-.11.76.76,0,0,0,.05.41,1.05,1.05,0,0,0,.27.33.66.66,0,0,1,0-.35.47.47,0,0,1,.18-.17,1.09,1.09,0,0,0,.41.54c.34.24.57.6.67.6V26.91c-1.05,0-1.2-.09-1.91-1a4.62,4.62,0,0,1-1.16-2.55C11.78,22.35,11.91,21.3,11.45,20.57Z" transform="translate(0 0)" fill="#212121"/><path d="M11.28,17a.85.85,0,0,1,.8.71c0,.38-.25.38-.43.38s-.53-.53-.53-.74S11.13,17,11.28,17Z" transform="translate(0 0)" fill="#212121"/><path d="M13.11,12.23c-.51,0-.21.39-.84.39s-.3-.1-.83-.1-.51.14-.61.23-.14-.21-1.21-1S7.49,10.1,6.55,10.1s-1.58.25-1.82.78a4,4,0,0,0,.62,3C6.06,15.24,8.45,16,8.79,16a5.94,5.94,0,0,0,.86,0c.13,0-.07.14.79,2s1.63,2.9,1.78,4.24.25,2.18.66,2.57.12.06.12-.55A1.25,1.25,0,0,1,14,23a2.78,2.78,0,0,1,1,.3V12.65C14.41,12.65,13.61,12.23,13.11,12.23ZM9.78,15.55A8.83,8.83,0,0,1,8,14.7a6.79,6.79,0,0,1-2.66-2.53C4.92,11.48,5,11.11,5.06,11a2.09,2.09,0,0,1,1.31-.39c.82,0,.94.47.94.47A1.4,1.4,0,0,1,7,11.3a2,2,0,0,1-.59.16,2.11,2.11,0,0,0,.61.12,1.4,1.4,0,0,0,.55,0,1.29,1.29,0,0,1-.32.27,1,1,0,0,1-.41.09,1,1,0,0,0,.28.14,1.1,1.1,0,0,0,.39.07,1.71,1.71,0,0,0-.52.4,2.48,2.48,0,0,1-.59.46,1,1,0,0,1,.37-.06A.64.64,0,0,1,7,13a2.05,2.05,0,0,0-.37.2,1.58,1.58,0,0,0-.21.19,4,4,0,0,1,.53-.2,1.34,1.34,0,0,1,.59-.05,2.21,2.21,0,0,0-.35.2,2.23,2.23,0,0,0-.32.32,2.91,2.91,0,0,1,.41-.11,1.15,1.15,0,0,1,.49,0,.84.84,0,0,0-.22.14,1.75,1.75,0,0,0-.18.2,1,1,0,0,1,.36-.07,1.27,1.27,0,0,1,.34,0A.54.54,0,0,0,8,14a1,1,0,0,0-.08.23,1.11,1.11,0,0,1,.32-.13.88.88,0,0,1,.41,0,2,2,0,0,0-.32.15,3.17,3.17,0,0,0-.31.22,1.87,1.87,0,0,1,.42-.06H8.7l-.06.19a.54.54,0,0,1,.41.05c.13.11.15.25.39.33s.49.16.49.31S10,15.55,9.78,15.55Zm2.65,4.06c-.33.6-.09.14-.09-.66,0-.48-.07-.64-.3-.64s-.25.07-.41.07-.27,0-.62-.43-.22-.71-.31-.81-.44-.05-.25-.15.36-.4.75-.4.72.27,1,.77A2.8,2.8,0,0,1,12.43,19.61Zm1.36,1.44c-.08.22-.19.35-.13.1a6.07,6.07,0,0,0,.07-1.26A5.29,5.29,0,0,0,13.37,18c-.27-.82-.41-1-.28-.88s.31.16.6,1A5.71,5.71,0,0,1,13.79,21.05Z" transform="translate(0 0)" fill="#212121"/><path d="M11.1,12.36c.16,0,.17-.13.43-.13s.36.16.63.16.35-.3.73-.39.49,0,.49-.28a5.33,5.33,0,0,0-1.5-2.62A7.59,7.59,0,0,1,9.8,5.88c-.53-1.46-.41-1.72-.3-2s-.11-.23-.37-.19-.61.75-.61,1.91A6,6,0,0,0,9.76,9,7.64,7.64,0,0,1,11,11.48C11.1,11.93,10.93,12.36,11.1,12.36Z" transform="translate(0 0)" fill="#212121"/><path d="M10.43,11.41a3,3,0,0,0-.62-1.76c-.39-.51-.58-.7-.62-.91s-.13-.15-.65-.36a3.73,3.73,0,0,1-1.3-.82c-.16-.24,0-.42-.27-1.72a18,18,0,0,1-.52-3.75c0-1.51,0-1.88-.16-2S5.87,0,5.79.43a21,21,0,0,0-.49,3A6.88,6.88,0,0,0,5.4,5.8c.16.46.07.32-.47-.25A7.39,7.39,0,0,1,3.47,3.06,9,9,0,0,0,2.1.65c-.26-.27-.23.19-.22.51s.24.69.5,1.89A8.39,8.39,0,0,0,3.43,6.12,9.52,9.52,0,0,0,5.28,7.6c.54.49.24.78,1.12,1.37s2.42,1.55,3,1.91S10.29,11.54,10.43,11.41Z" transform="translate(0 0)" fill="#212121"/><rect width="30" height="30" fill="none"/></svg>