<svg xmlns="http://www.w3.org/2000/svg" viewBox="0 0 30 30"><path d="M15.61,16.65a1.09,1.09,0,0,0,.86.79c.61.16.89.19,1,.11A14.47,14.47,0,0,1,19.17,15a3.32,3.32,0,0,0,1.26-2.05,2.66,2.66,0,0,0,0-1.24c-.08-.08-.24.43-1.22,1a7.29,7.29,0,0,0-2.43,2A6.87,6.87,0,0,0,15.61,16.65Z" transform="translate(0)" fill="#212121"/><path d="M18.24,12.88c.1.09,2.17-1.36,2.17-1.8a9.29,9.29,0,0,1-.11-2.42A5.31,5.31,0,0,1,21.87,6a2.65,2.65,0,0,0,.89-1.86c0-.46,0-.4-.28-.13S21,4.77,20.32,5.39a5,5,0,0,0-1.94,3.35c-.09,1.64.23,1,.14,2.36S18.14,12.77,18.24,12.88Z" transform="translate(0)" fill="#212121"/><path d="M21.59,4.22c.09.08,1-.58,1.06-.7a2.3,2.3,0,0,0-.27-1.19A1.73,1.73,0,0,1,22.5.69c.31-.42,1.35-.73.77-.68a2,2,0,0,0-1.68,1.38,3.79,3.79,0,0,0,.2,1.86C21.87,3.73,21.5,4.12,21.59,4.22Z" transform="translate(0)" fill="#212121"/><path d="M15.2,25.75c.1-.11.49-.07.49.06a1,1,0,0,1-.48.51C15.1,26.32,15.11,25.83,15.2,25.75Z" transform="translate(0)" fill="#212121"/><path d="M15.21,26.32c-.11,0-.09-.49,0-.57s.46-.07.49.06" transform="translate(0)" fill="#212121"/><path d="M15,27.15a5.56,5.56,0,0,1,.8.13c.29,0,.14.17-.24.31a1.49,1.49,0,0,1-.56.13Z" transform="translate(0)" fill="#212121"/><path d="M15,28.37a2,2,0,0,0,1.42-1.11A1.77,1.77,0,0,0,16.8,26a8.26,8.26,0,0,1,.57-2.57c.3-.87.73-1.68.8-1.31a19.63,19.63,0,0,1,.51,3.44,11.79,11.79,0,0,1,0,2.48c-.09.09-1.11.73-1.81,1.2A3.67,3.67,0,0,1,15,30Z" transform="translate(0)" fill="#212121"/><path d="M17.43,21.36A.61.61,0,0,0,18,20.7c0-.37-.35-.29-.65,0S17.11,21.36,17.43,21.36Z" transform="translate(0)" fill="#212121"/><path d="M23.73,14.54a5.58,5.58,0,0,0-2.56.75c-1.38.65-1.63,1.07-1.83,1.61s-.16.88-1,1A3.85,3.85,0,0,1,16,17.52c-.36-.29-.61-.67-1-.67s0,5.71,0,5.71a1.14,1.14,0,0,1,.26-.5,2.32,2.32,0,0,0,.35-.75,4.39,4.39,0,0,1-.07,1c-.09.34,0,1.38-.06,1.76a1.4,1.4,0,0,0,.12,1,.82.82,0,0,0,.4.31.55.55,0,0,1-.11-.56,1.43,1.43,0,0,1,.33.69c0,.31-.13.44-.42.67s-.55.44-.55.65.43.35.68.35a.64.64,0,0,0,.58-.72A7,7,0,0,1,17,23.76c.42-1,.73-1.93.73-1.93l.05.23a5.65,5.65,0,0,0,.88-1.18,2.62,2.62,0,0,1,.88-.9c.1-.12.2-.44.61-1s.67-.66.67-.83-.43-.47-.6-1.06a1.6,1.6,0,0,1,.24-1.21,1.94,1.94,0,0,0-.06.51.93.93,0,0,0,.12.35s.05-.54,1.08-1.06A4.51,4.51,0,0,1,23.66,15c.09.1.08.42-.38,1s-.68.63-.68.94.23.87.23,1-1,.66-1.15.9-.38.24-.71.49-.73.64.08.16a8.72,8.72,0,0,1,1.7-.69,2.36,2.36,0,0,0,.8-1.12c.24-.64,0-.9.26-1.09a4.63,4.63,0,0,0,.65-1.71C24.46,14.64,24.32,14.54,23.73,14.54ZM16.66,21.1A.59.59,0,0,1,16.9,21a1.39,1.39,0,0,1,.18-.3,1.28,1.28,0,0,1,.79-.54c.28,0,.36,0,.36.52a.87.87,0,0,1-.8.86.8.8,0,0,1-.6-.26s-.2.57-.52.7-.49,0-.49-.32.41-.41.66-1.07a2.34,2.34,0,0,0,0-1.38,1.35,1.35,0,0,1,.27.51,2.67,2.67,0,0,1,0,.52,1.08,1.08,0,0,1,.16-.22.5.5,0,0,1,.23-.14.57.57,0,0,1,0-.23.62.62,0,0,1,.66-.47c.46,0,.52.28.52.28a2.05,2.05,0,0,0-1,.56,5.94,5.94,0,0,0-1,1.21A2.17,2.17,0,0,1,16.66,21.1Z" transform="translate(0)" fill="#212121"/><path d="M14.39,16.65a1.09,1.09,0,0,1-.86.79c-.61.16-.89.19-1,.11A14.47,14.47,0,0,0,10.83,15a3.32,3.32,0,0,1-1.26-2.05,2.66,2.66,0,0,1,0-1.24c.08-.08.24.43,1.22,1a7.29,7.29,0,0,1,2.43,2A6.87,6.87,0,0,1,14.39,16.65Z" transform="translate(0)" fill="#212121"/><path d="M11.76,12.88c-.1.09-2.17-1.36-2.17-1.8A9.29,9.29,0,0,0,9.7,8.66,5.31,5.31,0,0,0,8.13,6a2.65,2.65,0,0,1-.89-1.86c0-.46,0-.4.28-.13S9,4.77,9.68,5.39a5,5,0,0,1,1.94,3.35c.09,1.64-.23,1-.14,2.36S11.86,12.77,11.76,12.88Z" transform="translate(0)" fill="#212121"/><path d="M8.41,4.22c-.09.08-1-.58-1.06-.7a2.3,2.3,0,0,1,.27-1.19A1.73,1.73,0,0,0,7.5.69C7.19.27,6.15,0,6.73,0A2,2,0,0,1,8.41,1.39a3.79,3.79,0,0,1-.2,1.86C8.13,3.73,8.5,4.12,8.41,4.22Z" transform="translate(0)" fill="#212121"/><path d="M14.8,25.75c-.1-.11-.49-.07-.49.06a1,1,0,0,0,.48.51C14.9,26.32,14.89,25.83,14.8,25.75Z" transform="translate(0)" fill="#212121"/><path d="M14.79,26.32c.11,0,.09-.49,0-.57s-.46-.07-.49.06" transform="translate(0)" fill="#212121"/><path d="M15,27.15a5.56,5.56,0,0,0-.8.13c-.29,0-.14.17.24.31a1.49,1.49,0,0,0,.56.13Z" transform="translate(0)" fill="#212121"/><path d="M15,28.37a2,2,0,0,1-1.42-1.11A1.77,1.77,0,0,1,13.2,26a8.26,8.26,0,0,0-.57-2.57c-.3-.87-.73-1.68-.8-1.31a19.63,19.63,0,0,0-.51,3.44,11.79,11.79,0,0,0,0,2.48c.09.09,1.11.73,1.81,1.2A3.67,3.67,0,0,0,15,30Z" transform="translate(0)" fill="#212121"/><path d="M12.57,21.36A.61.61,0,0,1,12,20.7c0-.37.35-.29.65,0S12.89,21.36,12.57,21.36Z" transform="translate(0)" fill="#212121"/><path d="M5.54,14.92a4.63,4.63,0,0,0,.65,1.71c.22.19,0,.45.26,1.09a2.36,2.36,0,0,0,.8,1.12,8.72,8.72,0,0,1,1.7.69c.81.48.4.09.08-.16s-.53-.25-.71-.49-1.15-.74-1.15-.9.23-.72.23-1-.22-.37-.68-.94-.47-.89-.38-1a4.51,4.51,0,0,1,2.09.64c1,.52,1.08,1.06,1.08,1.06a.93.93,0,0,0,.12-.35,1.94,1.94,0,0,0-.06-.51,1.6,1.6,0,0,1,.24,1.21c-.17.59-.6.89-.6,1.06s.27.27.67.83.51.89.61,1a2.62,2.62,0,0,1,.88.9,5.65,5.65,0,0,0,.88,1.18l.05-.23s.31.89.73,1.93a7,7,0,0,1,.46,2.64.64.64,0,0,0,.58.72c.25,0,.68-.12.68-.35s-.26-.42-.55-.65-.42-.36-.42-.67a1.43,1.43,0,0,1,.33-.69.55.55,0,0,1-.11.56.82.82,0,0,0,.4-.31,1.4,1.4,0,0,0,.12-1c-.1-.38,0-1.42-.06-1.76a4.39,4.39,0,0,1-.07-1,2.32,2.32,0,0,0,.35.75,1.14,1.14,0,0,1,.26.5s.42-5.71,0-5.71-.67.38-1,.67a3.85,3.85,0,0,1-2.32.38c-.83-.12-.78-.46-1-1s-.45-1-1.83-1.61a5.58,5.58,0,0,0-2.56-.75C5.68,14.54,5.54,14.64,5.54,14.92Zm8.08,6.34a5.94,5.94,0,0,0-1-1.21,2.05,2.05,0,0,0-1-.56s.06-.28.52-.28a.62.62,0,0,1,.66.47.57.57,0,0,1-.05.23.5.5,0,0,1,.23.14,1.08,1.08,0,0,1,.16.22,2.67,2.67,0,0,1,0-.52,1.35,1.35,0,0,1,.27-.51,2.34,2.34,0,0,0,0,1.38c.25.66.66.77.66,1.07s-.16.46-.49.32-.52-.7-.52-.7a.8.8,0,0,1-.6.26.87.87,0,0,1-.8-.86c0-.47.08-.52.36-.52a1.28,1.28,0,0,1,.79.54,1.39,1.39,0,0,1,.18.3.59.59,0,0,1,.24.07A2.17,2.17,0,0,1,13.62,21.26Z" transform="translate(0)" fill="#212121"/><rect width="30" height="30" fill="none"/></svg>