<!-- Copyright (c) 2023 Jan Stehno -->
<svg xmlns="http://www.w3.org/2000/svg" viewBox="0 0 300 300">
    <title>lesserkudu</title>
    <g id="lesserkudu">
        <g id="right">
            <path
                d="M156.1,166.48c0,1.64,2.46,6.39,8.61,7.94s8.84,1.93,10.11,1.07,7.89-16.73,16.85-25.57,11.69-13.66,12.62-20.48.79-11.67,0-12.46-2.41,4.32-12.18,9.67-17.45,10.82-24.33,19.77S156.1,164.55,156.1,166.48Z"
                transform="translate(0)" fill="#212121" />
            <path
                d="M182.44,128.75c.94.94,21.63-13.6,21.63-17.94S201.23,96.5,203,86.56s8.63-20,15.73-26.87,8.91-14.09,8.87-18.64.08-3.93-2.78-1.23-14.63,7.87-21.63,14.1S184.82,71,183.83,87.38s2.3,10.24,1.4,23.59S181.42,127.73,182.44,128.75Z"
                transform="translate(0)" fill="#212121" />
            <path
                d="M215.92,42.16c.85.85,9.67-5.79,10.54-7s-.33-5.85-2.62-11.85S221.87,11,225,6.88,238.48-.44,232.74.05s-14.85,5.41-16.82,13.82,1.2,13.82,2,18.62S215,41.2,215.92,42.16Z"
                transform="translate(0)" fill="#212121" />
            <path
                d="M152,257.45c1-1,4.94-.68,4.94.61s-3.74,5.16-4.81,5.16S151.15,258.27,152,257.45Z"
                transform="translate(0)" fill="#212121" />
            <path d="M152.1,263.22c-1.06,0-.93-4.92-.13-5.77.57-.6,4.58-.6,4.94.61"
                transform="translate(0)" fill="#212121" />
            <path d="M150,271.5c4,0,5.24,1.13,8.05,1.27s1.39,1.77-2.42,3.11-4.67,1.28-5.63,1.28Z"
                transform="translate(0)" fill="#212121" />
            <path
                d="M150,283.7c5.32,0,11.58-6.09,14.2-11.06s3.82-4.8,3.82-12.5,2.62-17,5.66-25.71,7.37-16.79,8-13.1,4.59,18.84,5.08,34.4.9,23.84,0,24.74-11,7.35-18.12,12S155.3,300,149.89,300Z"
                transform="translate(0)" fill="#212121" />
            <path
                d="M174.33,213.57c3.2,0,5.6-2.89,5.6-6.57s-3.56-2.95-6.51,0C169.6,210.82,171.14,213.57,174.33,213.57Z"
                transform="translate(0)" fill="#212121" />
            <path
                d="M237.33,145.44c-5.9,0-11.8.93-25.61,7.43S195.39,163.62,193.36,169s-1.52,8.74-9.88,9.94-19.55-.87-23.16-3.77-6.11-6.71-10.32-6.71,0,57.1,0,57.1.82-3.35,2.59-5,3.47-7.51,3.47-7.51.21,6.23-.65,9.59.37,13.8-.58,17.61a13.56,13.56,0,0,0,1.15,9.75,8.46,8.46,0,0,0,4,3.11,6.86,6.86,0,0,1-1.28-2.45,7.15,7.15,0,0,1,.23-3.14s3.33,3.87,3.33,6.93-1.31,4.37-4.23,6.67-5.54,4.45-5.54,6.52c0,2.32,4.37,3.52,6.82,3.52s5.79-2.07,5.79-7.27.33-15.94,4.59-26.34S177,218.32,177,218.32l.58,2.32a58,58,0,0,0,8.72-11.81c3.28-6.26,7.91-7.82,8.89-9.05s2-4.42,6-10,6.72-6.63,6.72-8.35-4.26-4.67-6-10.61,2.46-12.13,2.46-12.13a19.62,19.62,0,0,0-.62,5.17,9.23,9.23,0,0,0,1.23,3.52s.5-5.46,10.77-10.6,19.91-7.4,20.87-6.44.81,4.2-3.77,9.88-6.78,6.34-6.78,9.4,2.24,8.74,2.24,10.27-9.66,6.55-11.47,9-3.82,2.35-7,4.86-7.32,6.45.76,1.64,15.35-6,17-6.93,5.62-4.7,8-11.15.38-9,2.62-10.92,6.44-14.42,6.44-17.15S243.23,145.44,237.33,145.44ZM166.57,211a7.23,7.23,0,0,1,2.48-.68,13.36,13.36,0,0,1,1.72-3c1.43-2.09,5.2-5.41,7.94-5.41s3.61.53,3.61,5.16-4.06,8.6-8,8.6a8.17,8.17,0,0,1-6.05-2.58s-1.94,5.7-5.21,7-4.88-.17-4.88-3.2,4.1-4.09,6.64-10.77.37-13.72.37-13.72a12.12,12.12,0,0,1,2.66,5.08,24.14,24.14,0,0,1,.41,5.16,10.64,10.64,0,0,1,1.61-2.15,5.33,5.33,0,0,1,2.35-1.42,5.43,5.43,0,0,1-.58-2.34c0-1.29,2-4.7,6.64-4.7s5.19,2.87,5.19,2.87-4.26.41-9.94,5.51a57.33,57.33,0,0,0-9.76,12.18A17.69,17.69,0,0,1,166.57,211Z"
                transform="translate(0)" fill="#212121" />
        </g>
        <g id="right-2" data-name="right">
            <path
                d="M143.9,166.48c0,1.64-2.46,6.39-8.61,7.94s-8.84,1.93-10.11,1.07-7.89-16.73-16.85-25.57-11.69-13.66-12.62-20.48-.79-11.67,0-12.46,2.41,4.32,12.18,9.67,17.45,10.82,24.33,19.77S143.9,164.55,143.9,166.48Z"
                transform="translate(0)" fill="#212121" />
            <path
                d="M117.56,128.75c-.94.94-21.63-13.6-21.63-17.94S98.77,96.5,97,86.56s-8.63-20-15.73-26.87S72.38,45.6,72.42,41.05s-.08-3.93,2.78-1.23,14.63,7.87,21.63,14.1S115.18,71,116.17,87.38s-2.3,10.24-1.4,23.59S118.58,127.73,117.56,128.75Z"
                transform="translate(0)" fill="#212121" />
            <path
                d="M84.08,42.16c-.85.85-9.67-5.79-10.54-7s.33-5.85,2.62-11.85S78.13,11,75,6.88,61.52-.44,67.26.05,82.11,5.46,84.08,13.87s-1.2,13.82-2,18.62S85,41.2,84.08,42.16Z"
                transform="translate(0)" fill="#212121" />
            <path
                d="M148,257.45c-1-1-4.94-.68-4.94.61s3.74,5.16,4.81,5.16S148.85,258.27,148,257.45Z"
                transform="translate(0)" fill="#212121" />
            <path d="M147.9,263.22c1.06,0,.93-4.92.13-5.77-.57-.6-4.58-.6-4.94.61"
                transform="translate(0)" fill="#212121" />
            <path d="M150,271.5c-4,0-5.24,1.13-8.05,1.27s-1.39,1.77,2.42,3.11,4.67,1.28,5.63,1.28Z"
                transform="translate(0)" fill="#212121" />
            <path
                d="M150,283.7c-5.32,0-11.58-6.09-14.2-11.06s-3.82-4.8-3.82-12.5-2.62-17-5.66-25.71-7.37-16.79-8-13.1-4.59,18.84-5.08,34.4-.9,23.84,0,24.74,11,7.35,18.12,12S144.7,300,150.11,300Z"
                transform="translate(0)" fill="#212121" />
            <path
                d="M125.67,213.57c-3.2,0-5.6-2.89-5.6-6.57s3.56-2.95,6.51,0C130.4,210.82,128.86,213.57,125.67,213.57Z"
                transform="translate(0)" fill="#212121" />
            <path
                d="M55.41,149.15c0,2.73,4.2,15.24,6.44,17.15s.22,4.48,2.62,10.92,6.39,10.16,8,11.15,8.9,2.13,17,6.93,4,.88.76-1.64-5.24-2.45-7-4.86-11.47-7.43-11.47-9S74,172.64,74,169.58s-2.19-3.72-6.78-9.4-4.72-8.93-3.77-9.88,10.6,1.31,20.87,6.44,10.77,10.6,10.77,10.6a9.23,9.23,0,0,0,1.23-3.52,19.62,19.62,0,0,0-.62-5.17s4.22,6.19,2.46,12.13-6,8.89-6,10.61,2.7,2.74,6.72,8.35,5,8.81,6,10,5.61,2.79,8.89,9.05a58,58,0,0,0,8.72,11.81l.58-2.32s3,8.9,7.29,19.31,4.59,21.14,4.59,26.34,3.33,7.27,5.79,7.27,6.82-1.2,6.82-3.52c0-2.07-2.62-4.23-5.54-6.52s-4.23-3.61-4.23-6.67,3.33-6.93,3.33-6.93a7.15,7.15,0,0,1,.23,3.14,6.86,6.86,0,0,1-1.28,2.45,8.46,8.46,0,0,0,4-3.11,13.56,13.56,0,0,0,1.15-9.75c-.95-3.81.28-14.25-.58-17.61s-.65-9.59-.65-9.59,1.69,5.9,3.47,7.51,2.59,5,2.59,5,4.21-57.1,0-57.1-6.72,3.82-10.32,6.71-14.8,5-23.16,3.77-7.86-4.53-9.88-9.94-4.54-9.67-18.36-16.16-19.71-7.43-25.61-7.43S55.41,146.42,55.41,149.15Zm80.81,63.49a57.33,57.33,0,0,0-9.76-12.18c-5.68-5.1-9.94-5.51-9.94-5.51s.57-2.87,5.19-2.87,6.64,3.41,6.64,4.7a5.43,5.43,0,0,1-.58,2.34,5.33,5.33,0,0,1,2.35,1.42,10.64,10.64,0,0,1,1.61,2.15,24.14,24.14,0,0,1,.41-5.16,12.12,12.12,0,0,1,2.66-5.08s-2.17,7,.37,13.72,6.64,7.74,6.64,10.77-1.6,4.55-4.88,3.2-5.21-7-5.21-7a8.17,8.17,0,0,1-6,2.58c-3.93,0-8-4-8-8.6s.86-5.16,3.61-5.16,6.51,3.32,7.94,5.41a13.36,13.36,0,0,1,1.72,3,7.23,7.23,0,0,1,2.48.68A17.69,17.69,0,0,1,136.22,212.64Z"
                transform="translate(0)" fill="#212121" />
        </g>
    </g>
    <g id="frame">
        <rect width="300" height="300" fill="none" />
    </g>
</svg>