<svg xmlns="http://www.w3.org/2000/svg" viewBox="0 0 30 30"><path d="M18.18,10.93c-.15,0-.06.08-.21.24s-.3.12-.3.23,0,.14.19.14a.66.66,0,0,0,.47-.43C18.33,11,18.33,10.93,18.18,10.93Z" transform="translate(0)" fill="#212121"/><path d="M15,19.41a2.72,2.72,0,0,1,1.65.44c.33.24.63-.08.81-.08s-.17.41-.35.87-.29.78-.29.78l-.05-.29a1.43,1.43,0,0,0-.75.67,1.53,1.53,0,0,1-1,.76Z" transform="translate(0)" fill="#212121"/><path d="M19.24,13.25c-.35.46-.66.81-.66.81s.83-1.49,1.06-2a2.49,2.49,0,0,0,.1-2.07,7.45,7.45,0,0,1-.58-2.41c0-.35,0-.43-.19-.43s-.48.26-.77.26-.54-.06-1.42-.55-1.18-.43-1.35-.26a4.56,4.56,0,0,0-.16,1.43,1.23,1.23,0,0,0,.15-.24,1.85,1.85,0,0,0,.12-.45,3.36,3.36,0,0,1-.12.83,6.47,6.47,0,0,1-.27.73l.2-.28s0,.23-.11.51a1.79,1.79,0,0,1-.24.5v6.65a5.41,5.41,0,0,0,1-.1,2.56,2.56,0,0,0,.61-.16l-.14.27a1.08,1.08,0,0,0,.49-.29,1.2,1.2,0,0,0,.26-.6,1.26,1.26,0,0,1,0,.81,1.22,1.22,0,0,1-.94.62,1.37,1.37,0,0,0-.83.57c-.17.17-.1,1.28.06,1.32.62.17,1,.68,1.69.68a.72.72,0,0,0,.77-.5,1.41,1.41,0,0,1-.45-.1,6.14,6.14,0,0,1-.93-.49,3.17,3.17,0,0,0,1.21.37.62.62,0,0,0,.6-.54,1.76,1.76,0,0,1-.7-.1,3.13,3.13,0,0,1-.91-.42,7.05,7.05,0,0,0,1.39.22c.55,0,.45-.63.45-.63a1.39,1.39,0,0,1-.86.1,3.78,3.78,0,0,1-.89-.35,3.2,3.2,0,0,0,.61.07,3.33,3.33,0,0,0,.9-.09c.17-.07.37-.46-.12-1.44A11.76,11.76,0,0,0,17,13.71a3.72,3.72,0,0,1,1,1c.5.68.65,1.27.78,1.27a5.71,5.71,0,0,0,.91-1.65,11.09,11.09,0,0,0,.1-1.91A6.1,6.1,0,0,1,19.24,13.25ZM16,10a1.94,1.94,0,0,1,.18-1.08,2.87,2.87,0,0,0,0,1,3.43,3.43,0,0,0,.39,1A1.26,1.26,0,0,1,16,10Zm1.83,1.69c-.42,0-.48.09-.64.93,0,0-.05-1.4.27-1.73s1.39-.33,1.39-.57a6.17,6.17,0,0,0-.48-1.22,6.33,6.33,0,0,1,.78,1.29c0,.24-.36.3-.56.62S18.24,11.65,17.83,11.65Zm.24.41a1.57,1.57,0,0,0,.6-.38c.24-.23.25-.57.35-.57s.14.29-.14.63A1.09,1.09,0,0,1,18.07,12.06Z" transform="translate(0)" fill="#212121"/><path d="M27.68,7.58a3.45,3.45,0,0,1-2.08-.9,2.51,2.51,0,0,0-1.67-.82,4,4,0,0,1,1.3.08,4,4,0,0,1,1.36.55,2.26,2.26,0,0,0-.85-1,5,5,0,0,0-1.34-.63,2.18,2.18,0,0,0,.48-.15,2.38,2.38,0,0,0,.53-.31,3.6,3.6,0,0,1-1.26.06,3.11,3.11,0,0,1-1.31-.75,2.77,2.77,0,0,0-1.09-.45,1.84,1.84,0,0,0,.48-.18,1.7,1.7,0,0,0,.4-.3A3.27,3.27,0,0,1,21,2.59a3.71,3.71,0,0,0-1.63-.27,2,2,0,0,0,.4-.54A3.75,3.75,0,0,0,20,1a3,3,0,0,1-1.28.52c-.81.15-1.56.17-1.7-.27A3.55,3.55,0,0,1,17,0a1.55,1.55,0,0,1-.49.51,2,2,0,0,0-.54.6L15.54.28l-.54,1V5.54a1.15,1.15,0,0,1,.49-.79,2.07,2.07,0,0,0,0,.46,1.81,1.81,0,0,0,.1.33l.17-.08.06.4.22-.17.05.39A1.81,1.81,0,0,0,17,5.7a3,3,0,0,1,.89-.48,3.8,3.8,0,0,0-.38.65,1.14,1.14,0,0,1-.44.44s.21.14,1,0,.93-.35.93-.35a1.06,1.06,0,0,1-.22.34,1.52,1.52,0,0,1-.46.24,5.48,5.48,0,0,0,1.55-.2c1.13-.25,1.33-.5,1.33-.5a1.3,1.3,0,0,1-.51.48,3.24,3.24,0,0,1-1,.31,4.58,4.58,0,0,0,1.48.31A12.2,12.2,0,0,0,23.43,7a4.69,4.69,0,0,1-1.63.3A10.52,10.52,0,0,1,19.72,7s.82.45,2,1.15a12.8,12.8,0,0,1,1.89,1.44,11.43,11.43,0,0,0-1.64-1.12,9.91,9.91,0,0,0-1.71-.79,3.56,3.56,0,0,0,1.37,2.18A4,4,0,0,1,23,11.54a5.25,5.25,0,0,0-1.46-1,3.52,3.52,0,0,1-1.29-1,2.83,2.83,0,0,1,.38,1.63c0,1.12-.49,1.4-.49,1.4a5.16,5.16,0,0,1,.13,1.67c-.06,1.06-.65,1.85-.65,3.19a8.24,8.24,0,0,0,.28,2.23,6.06,6.06,0,0,1-.54-1.55,16.43,16.43,0,0,1-.12-2A14.68,14.68,0,0,1,19,18.41a2.68,2.68,0,0,1-.65,1.14l.2,0s-.53,1.17-.69,1.62-.26.5.41,1.27A17.26,17.26,0,0,0,20,24.1a3.27,3.27,0,0,1-.56-1.74A6.92,6.92,0,0,1,19.76,20,6.42,6.42,0,0,0,20,23.52a4.72,4.72,0,0,0,1.68,2,2.45,2.45,0,0,1-.69-.33c-.26-.19-.41-.61-.87-.8a7,7,0,0,1-1.41-1.1,1.8,1.8,0,0,1,0,1,2.65,2.65,0,0,1-.46,1.08l.36-.21A4.79,4.79,0,0,1,18,26a5.69,5.69,0,0,1-1,.88s1.39-2.22,1.39-3.32-.83-1.33-.83-1.89A5.16,5.16,0,0,1,18,20.16a5.71,5.71,0,0,0-.86,1.62c-.08.57.24.77,0,1.42a2.17,2.17,0,0,0-.06,1.11,1.5,1.5,0,0,1-.2-.89,4.81,4.81,0,0,0,0-1.09,2.5,2.5,0,0,1-.17.48.8.8,0,0,1-.39.34,2,2,0,0,0,.17-.23,1.06,1.06,0,0,0,.12-.36,3.43,3.43,0,0,1-.24.31,1.48,1.48,0,0,1-.39.24,4.08,4.08,0,0,0,.33-.4,2.26,2.26,0,0,0,.25-.61A1.8,1.8,0,0,1,15,23V30c0-.39.71-.57.71-.57l.18.34a2.61,2.61,0,0,1,.52-1.29,4.58,4.58,0,0,1,1.11-1.23l-.28,0a9,9,0,0,1,1-.89,4,4,0,0,0,1-1.89,3.25,3.25,0,0,1-1,2.25,5.35,5.35,0,0,0-1.42,2.37,5.73,5.73,0,0,1,.65-.86,3,3,0,0,1,.74-.59,2.46,2.46,0,0,0-.14.49,4.76,4.76,0,0,0-.08.7,5.85,5.85,0,0,1,.4-.8,3.56,3.56,0,0,1,.53-.72l.11.32a2,2,0,0,1,.73-.88,2.31,2.31,0,0,0,.79-.91.91.91,0,0,1,.28.71,2,2,0,0,1-.24.9,2.23,2.23,0,0,0,.7-.71,1.64,1.64,0,0,0,.28-.86l.62.49a9,9,0,0,1,.1-2.09,5.08,5.08,0,0,1,1-2.1,5,5,0,0,0-.58,1.23,8.13,8.13,0,0,0-.34,1.83,1.73,1.73,0,0,1,.33-.54,1,1,0,0,1,.4-.31l-.05.23s1-1,1.44-1.56a1.3,1.3,0,0,0,.34-1.37,4.12,4.12,0,0,1,0-1.29,5.28,5.28,0,0,0,.26,1.27,3,3,0,0,0,.8,1.26,4.52,4.52,0,0,1-.32-1.41,1,1,0,0,1,.45-1,1.27,1.27,0,0,0,.39-.67v.29a2.5,2.5,0,0,0,.2-1c0-.55-.27-.62-.81-1.12a4.08,4.08,0,0,1-.85-1.14,1.58,1.58,0,0,1-.06.39,1.5,1.5,0,0,1-.15.33,7.66,7.66,0,0,0-1.11-3.74,13.48,13.48,0,0,0-2.71-2.61,5.93,5.93,0,0,1,1.87,1.39,7.82,7.82,0,0,1,1.71,2.11,2.92,2.92,0,0,1-.24-.93,1.79,1.79,0,0,1,.15-.78,3.84,3.84,0,0,0,.33,1.67c.4,1.1.59,1.13.59,1.13a.43.43,0,0,1-.31-.12,1.45,1.45,0,0,1-.23-.34,2.54,2.54,0,0,0,.2,1.11,7,7,0,0,0,1.46,1.86l0-.25a1.1,1.1,0,0,0,.23.25,1.37,1.37,0,0,0,.35.19,2.56,2.56,0,0,1-.48-1.26,1.26,1.26,0,0,1,.23-.85l.28.33a4.11,4.11,0,0,1-.17-1.28c0-.82-1.21-1.18-1.21-1.18a2.45,2.45,0,0,1,1,.3,1.73,1.73,0,0,1,.84.68s-.07-1-1.52-2-1.52-1.83-1.52-1.83a2,2,0,0,0,1.24,1.22,3.6,3.6,0,0,1,1.44.77,2,2,0,0,0-1.36-2A4.8,4.8,0,0,1,23.65,10a5.64,5.64,0,0,0,2,1.13,3.17,3.17,0,0,0,1.81.09,1.79,1.79,0,0,1-.73-.26,4.62,4.62,0,0,1-1.34-1.65c-.32-.77-2.34-1.14-2.34-1.14a7.52,7.52,0,0,1,2.42.68,5.14,5.14,0,0,1,1.86,1.41,3.79,3.79,0,0,0-.26-1.18,2,2,0,0,0-.73-.95A2.75,2.75,0,0,0,27.1,8,1.26,1.26,0,0,0,27.68,7.58ZM17.52,4.41c-.27.48-.51.94-.51.94a4.06,4.06,0,0,1,.11-.56,2,2,0,0,1,.32-.59l-1,.56.24-.35L16,4.67s.62-.42.88-.64.75-.67.75-.67L17.33,4l1-.6A5.82,5.82,0,0,0,17.52,4.41Zm2.74,18.28a8.15,8.15,0,0,0,.8-1.53,6.71,6.71,0,0,0,.36-2.22,5.8,5.8,0,0,1-.14,2A4.25,4.25,0,0,1,20.26,22.69Zm2.15-.35a3.44,3.44,0,0,1-1.48,2,4.49,4.49,0,0,0,1.2-1.71,7.28,7.28,0,0,0,.34-2.88A4.8,4.8,0,0,1,22.41,22.34Zm1.21-6.9a4.18,4.18,0,0,1,.48,2.73,4.33,4.33,0,0,0-.82-2.76A6,6,0,0,1,22,13.18,19.66,19.66,0,0,0,23.62,15.44ZM21,16a.92.92,0,0,1,.19-.53,4.67,4.67,0,0,0,.1,1.45c.18.7.37.86,1,1.6a4.14,4.14,0,0,1,.83,1.88,4.08,4.08,0,0,0,.33-1.63,10.86,10.86,0,0,0-.31-2.17A5.57,5.57,0,0,1,23.72,19,4.2,4.2,0,0,1,23.13,21a4.91,4.91,0,0,0-1.19-2.22c-.82-.66-.56-.78-1.08-1.95a6.37,6.37,0,0,1-.3-2.82v0a7.85,7.85,0,0,0,.15,1.52A6.47,6.47,0,0,0,21,16.75,3.89,3.89,0,0,1,21,16Z" transform="translate(0)" fill="#212121"/><path d="M11.82,10.93c.15,0,.06.08.21.24s.3.12.3.23,0,.14-.19.14a.66.66,0,0,1-.47-.43C11.67,11,11.67,10.93,11.82,10.93Z" transform="translate(0)" fill="#212121"/><path d="M15,19.41a2.72,2.72,0,0,0-1.65.44c-.33.24-.63-.08-.81-.08s.17.41.35.87.29.78.29.78l.05-.29a1.43,1.43,0,0,1,.75.67,1.53,1.53,0,0,0,1,.76Z" transform="translate(0)" fill="#212121"/><path d="M10.2,12.39a11.09,11.09,0,0,0,.1,1.91A5.71,5.71,0,0,0,11.21,16c.13,0,.28-.59.78-1.27a3.72,3.72,0,0,1,1-1,11.76,11.76,0,0,0-1.17,1.83c-.49,1-.29,1.37-.12,1.44a3.33,3.33,0,0,0,.9.09,3.2,3.2,0,0,0,.61-.07,3.78,3.78,0,0,1-.89.35,1.39,1.39,0,0,1-.86-.1s-.1.63.45.63a7.05,7.05,0,0,0,1.39-.22,3.13,3.13,0,0,1-.91.42,1.76,1.76,0,0,1-.7.1.62.62,0,0,0,.6.54,3.17,3.17,0,0,0,1.21-.37,6.14,6.14,0,0,1-.93.49,1.41,1.41,0,0,1-.45.1.72.72,0,0,0,.77.5c.65,0,1.07-.51,1.69-.68.16,0,.23-1.15.06-1.32a1.37,1.37,0,0,0-.83-.57,1.22,1.22,0,0,1-.94-.62,1.26,1.26,0,0,1,0-.81,1.2,1.2,0,0,0,.26.6,1.08,1.08,0,0,0,.49.29l-.14-.27a2.56,2.56,0,0,0,.61.16,5.41,5.41,0,0,0,1,.1V9.67a1.79,1.79,0,0,1-.24-.5c-.07-.28-.11-.51-.11-.51l.2.28a6.47,6.47,0,0,1-.27-.73,3.36,3.36,0,0,1-.12-.83,1.85,1.85,0,0,0,.12.45,1.23,1.23,0,0,0,.15.24,4.56,4.56,0,0,0-.16-1.43c-.17-.17-.46-.22-1.35.26s-1.12.55-1.42.55-.57-.26-.77-.26-.19.08-.19.43A7.45,7.45,0,0,1,10.26,10a2.49,2.49,0,0,0,.1,2.07c.23.47,1.06,2,1.06,2s-.31-.35-.66-.81A6.1,6.1,0,0,1,10.2,12.39Zm3.21-1.54a3.43,3.43,0,0,0,.39-1,2.87,2.87,0,0,0,0-1A1.94,1.94,0,0,1,14,10,1.26,1.26,0,0,1,13.41,10.85Zm-2,.12c-.2-.32-.56-.38-.56-.62a6.33,6.33,0,0,1,.78-1.29,6.17,6.17,0,0,0-.48,1.22c0,.24,1.06.24,1.39.57s.27,1.73.27,1.73c-.16-.84-.22-.93-.64-.93S11.62,11.28,11.41,11Zm-.29.77c-.28-.34-.24-.63-.14-.63s.11.34.35.57a1.57,1.57,0,0,0,.6.38A1.09,1.09,0,0,1,11.12,11.74Z" transform="translate(0)" fill="#212121"/><path d="M2.9,8a2.75,2.75,0,0,0,.76.2,2,2,0,0,0-.73.95,3.79,3.79,0,0,0-.26,1.18A5.14,5.14,0,0,1,4.53,8.88,7.52,7.52,0,0,1,7,8.2s-2,.37-2.34,1.14A4.62,4.62,0,0,1,3.27,11a1.79,1.79,0,0,1-.73.26,3.17,3.17,0,0,0,1.81-.09,5.64,5.64,0,0,0,2-1.13,4.8,4.8,0,0,1-2.22,1.46,2,2,0,0,0-1.36,2,3.6,3.6,0,0,1,1.44-.77,2,2,0,0,0,1.24-1.22s-.07.86-1.52,1.83-1.52,2-1.52,2a1.73,1.73,0,0,1,.84-.68,2.45,2.45,0,0,1,1-.3s-1.21.36-1.21,1.18a4.11,4.11,0,0,1-.17,1.28l.28-.33a1.26,1.26,0,0,1,.23.85,2.56,2.56,0,0,1-.48,1.26,1.37,1.37,0,0,0,.35-.19,1.1,1.1,0,0,0,.23-.25l0,.25A7,7,0,0,0,5,16.54a2.54,2.54,0,0,0,.2-1.11,1.45,1.45,0,0,1-.23.34.43.43,0,0,1-.31.12s.19,0,.59-1.13a3.84,3.84,0,0,0,.33-1.67,1.79,1.79,0,0,1,.15.78,2.92,2.92,0,0,1-.24.93,7.82,7.82,0,0,1,1.71-2.11A5.93,5.93,0,0,1,9.09,11.3a13.48,13.48,0,0,0-2.71,2.61,7.66,7.66,0,0,0-1.11,3.74,1.5,1.5,0,0,1-.15-.33,1.58,1.58,0,0,1-.06-.39,4.08,4.08,0,0,1-.85,1.14c-.54.5-.81.57-.81,1.12a2.5,2.5,0,0,0,.2,1v-.29a1.27,1.27,0,0,0,.39.67,1,1,0,0,1,.45,1A4.52,4.52,0,0,1,4.12,23a3,3,0,0,0,.8-1.26,5.28,5.28,0,0,0,.26-1.27,4.12,4.12,0,0,1,0,1.29,1.3,1.3,0,0,0,.34,1.37c.44.57,1.44,1.56,1.44,1.56l0-.23a1,1,0,0,1,.4.31,1.73,1.73,0,0,1,.33.54,8.13,8.13,0,0,0-.34-1.83,5,5,0,0,0-.58-1.23,5.08,5.08,0,0,1,1,2.1,9,9,0,0,1,.1,2.09l.62-.49a1.64,1.64,0,0,0,.28.86,2.23,2.23,0,0,0,.7.71,2,2,0,0,1-.24-.9.91.91,0,0,1,.28-.71,2.31,2.31,0,0,0,.79.91,2,2,0,0,1,.73.88l.11-.32a3.56,3.56,0,0,1,.53.72,5.85,5.85,0,0,1,.4.8,4.76,4.76,0,0,0-.08-.7,2.46,2.46,0,0,0-.14-.49,3,3,0,0,1,.74.59,5.73,5.73,0,0,1,.65.86,5.35,5.35,0,0,0-1.42-2.37,3.25,3.25,0,0,1-1-2.25,4,4,0,0,0,1,1.89,9,9,0,0,1,1,.89l-.28,0a4.58,4.58,0,0,1,1.11,1.23,2.61,2.61,0,0,1,.52,1.29l.18-.34s.71.18.71.57V23a1.8,1.8,0,0,1-1.58-.85,2.26,2.26,0,0,0,.25.61,4.08,4.08,0,0,0,.33.4,1.48,1.48,0,0,1-.39-.24,3.43,3.43,0,0,1-.24-.31,1.06,1.06,0,0,0,.12.36,2,2,0,0,0,.17.23.8.8,0,0,1-.39-.34,2.5,2.5,0,0,1-.17-.48,4.81,4.81,0,0,0,0,1.09,1.5,1.5,0,0,1-.2.89,2.17,2.17,0,0,0-.06-1.11c-.2-.65.12-.85,0-1.42A5.71,5.71,0,0,0,12,20.16a5.16,5.16,0,0,1,.46,1.55c0,.56-.83.8-.83,1.89s1.39,3.32,1.39,3.32A5.69,5.69,0,0,1,12,26a4.79,4.79,0,0,1-.61-.86l.36.21a2.65,2.65,0,0,1-.46-1.08,1.8,1.8,0,0,1,0-1,7,7,0,0,1-1.41,1.1c-.46.19-.61.61-.87.8a2.45,2.45,0,0,1-.69.33,4.72,4.72,0,0,0,1.68-2A6.42,6.42,0,0,0,10.24,20a6.92,6.92,0,0,1,.32,2.35A3.27,3.27,0,0,1,10,24.1a17.26,17.26,0,0,0,1.77-1.68c.67-.77.56-.83.41-1.27s-.69-1.62-.69-1.62l.2,0A2.68,2.68,0,0,1,11,18.41a14.68,14.68,0,0,1-.31-2.22,16.43,16.43,0,0,1-.12,2,6.06,6.06,0,0,1-.54,1.55,8.24,8.24,0,0,0,.28-2.23c0-1.34-.59-2.13-.65-3.19a5.16,5.16,0,0,1,.13-1.67s-.49-.28-.49-1.4a2.83,2.83,0,0,1,.38-1.63,3.52,3.52,0,0,1-1.29,1,5.25,5.25,0,0,0-1.46,1A4,4,0,0,1,8.42,9.83,3.56,3.56,0,0,0,9.79,7.65a9.91,9.91,0,0,0-1.71.79A11.43,11.43,0,0,0,6.44,9.56,12.8,12.8,0,0,1,8.33,8.12C9.46,7.42,10.28,7,10.28,7a10.52,10.52,0,0,1-2.08.29A4.69,4.69,0,0,1,6.57,7,12.2,12.2,0,0,0,8.84,6.9a4.58,4.58,0,0,0,1.48-.31,3.24,3.24,0,0,1-1-.31,1.3,1.3,0,0,1-.51-.48s.2.25,1.33.5a5.48,5.48,0,0,0,1.55.2,1.52,1.52,0,0,1-.46-.24A1.06,1.06,0,0,1,11,5.92s.09.16.93.35,1,0,1,0a1.14,1.14,0,0,1-.44-.44,3.8,3.8,0,0,0-.38-.65A3,3,0,0,1,13,5.7a1.81,1.81,0,0,0,.84.38l.05-.39.22.17.06-.4.17.08a1.81,1.81,0,0,0,.1-.33,2.07,2.07,0,0,0,0-.46,1.15,1.15,0,0,1,.49.79V1.27l-.54-1L14,1.11a2,2,0,0,0-.54-.6A1.55,1.55,0,0,1,13,0a3.55,3.55,0,0,1,0,1.23c-.14.44-.89.42-1.7.27A3,3,0,0,1,10,1a3.75,3.75,0,0,0,.2.8,2,2,0,0,0,.4.54A3.71,3.71,0,0,0,9,2.59a3.27,3.27,0,0,1-1.6.24,1.7,1.7,0,0,0,.4.3,1.84,1.84,0,0,0,.48.18,2.77,2.77,0,0,0-1.09.45,3.11,3.11,0,0,1-1.31.75,3.6,3.6,0,0,1-1.26-.06,2.38,2.38,0,0,0,.53.31,2.18,2.18,0,0,0,.48.15,5,5,0,0,0-1.34.63,2.26,2.26,0,0,0-.85,1,4,4,0,0,1,1.36-.55,4,4,0,0,1,1.3-.08,2.51,2.51,0,0,0-1.67.82,3.45,3.45,0,0,1-2.08.9A1.26,1.26,0,0,0,2.9,8ZM11.65,3.4l1,.6-.28-.64s.48.46.75.67.88.64.88.64l-.69-.26.24.35-1-.56a2,2,0,0,1,.32.59,4.06,4.06,0,0,1,.11.56s-.24-.46-.51-.94A5.82,5.82,0,0,0,11.65,3.4ZM8.72,21a5.8,5.8,0,0,1-.14-2,6.71,6.71,0,0,0,.36,2.22,8.15,8.15,0,0,0,.8,1.53A4.25,4.25,0,0,1,8.72,21ZM7.53,19.74a7.28,7.28,0,0,0,.34,2.88,4.49,4.49,0,0,0,1.2,1.71,3.44,3.44,0,0,1-1.48-2A4.8,4.8,0,0,1,7.53,19.74ZM8,13.18a6,6,0,0,1-1.26,2.23,4.33,4.33,0,0,0-.82,2.76,4.18,4.18,0,0,1,.48-2.73A19.66,19.66,0,0,0,8,13.18Zm1,3.57a6.47,6.47,0,0,0,.33-1.18,7.85,7.85,0,0,0,.15-1.52v0a6.37,6.37,0,0,1-.3,2.82c-.52,1.17-.26,1.29-1.08,1.95A4.91,4.91,0,0,0,6.87,21,4.2,4.2,0,0,1,6.28,19a5.57,5.57,0,0,1,.55-2.37,10.86,10.86,0,0,0-.31,2.17,4.08,4.08,0,0,0,.33,1.63,4.14,4.14,0,0,1,.83-1.88c.66-.74.85-.9,1-1.6a4.67,4.67,0,0,0,.1-1.45A.92.92,0,0,1,9,16,3.89,3.89,0,0,1,9,16.75Z" transform="translate(0)" fill="#212121"/><rect width="30" height="30" fill="none"/></svg>