<svg xmlns="http://www.w3.org/2000/svg" viewBox="0 0 30 30"><path d="M15,0a3.53,3.53,0,0,1,3.11,1.89,20,20,0,0,0,2.61,3.19,7.62,7.62,0,0,1,1.74,3.5,8.57,8.57,0,0,1,0,3.71,14.46,14.46,0,0,1-1.85,3.93c-.59.76-.85,1.2-1,1.2a2.88,2.88,0,0,1-.88-2,9,9,0,0,1,1.47-3.84,2.71,2.71,0,0,0,.68-1.89,1.34,1.34,0,0,0-1.32-1.49c-1,0-2.51,1.95-3.26,1.95S15.39,8.83,15,8.83Z" transform="translate(0)" fill="#212121"/><path d="M19.69,9.14c.41,0,.49.26.49.85a2.16,2.16,0,0,1-1,1.46c-.34.22-.61.2-.61-.37S19.18,9.14,19.69,9.14Z" transform="translate(0)" fill="#212121"/><path d="M15,24.3c.69,0,2.05.86,2.57.86s.52-.21.72-.43.06.42-.12,1.28A3.47,3.47,0,0,1,17,28.4c-1.06,1.07-1.7,1.6-2,1.6Z" transform="translate(0)" fill="#212121"/><path d="M19.28,12c.16-.3-.16,0-.57,0s-.58-.35-.58-1a2.94,2.94,0,0,1,.53-1.64c.32-.5,0-.26-.65.25s-.93,1-1.69,1-.91-1-1.32-1v3.23a1.7,1.7,0,0,1,1.49.52,1.24,1.24,0,0,1,.25.88c0,.38,0,.18-.23-.3a1.54,1.54,0,0,0-1.51-.7V23.75c.59,0,.94.43,1.7.77s1.09.38,1.46,0,.24-1.24.42-2.92.35-3.19.33-3.64-.23-.34-.53-1.08a3,3,0,0,1-.06-2.17A13.24,13.24,0,0,1,19.28,12Zm-3,7.64c-.41.25-.54.44-.35-.06.11-.31.48-.69.61-.69s.25,0,.25.16S16.72,19.35,16.32,19.61Z" transform="translate(0)" fill="#212121"/><path d="M15,0a3.53,3.53,0,0,0-3.11,1.89A20,20,0,0,1,9.28,5.08a7.62,7.62,0,0,0-1.74,3.5,8.57,8.57,0,0,0,0,3.71,14.46,14.46,0,0,0,1.85,3.93c.59.76.85,1.2,1,1.2a2.88,2.88,0,0,0,.88-2A9,9,0,0,0,9.8,11.54a2.71,2.71,0,0,1-.68-1.89,1.34,1.34,0,0,1,1.32-1.49c1,0,2.51,1.95,3.26,1.95s.91-1.28,1.3-1.28Z" transform="translate(0)" fill="#212121"/><path d="M10.31,9.14c-.41,0-.49.26-.49.85a2.16,2.16,0,0,0,1,1.46c.34.22.61.2.61-.37S10.82,9.14,10.31,9.14Z" transform="translate(0)" fill="#212121"/><path d="M15,24.3c-.69,0-2.05.86-2.57.86s-.52-.21-.72-.43-.06.42.12,1.28A3.47,3.47,0,0,0,13,28.4c1.06,1.07,1.7,1.6,2,1.6Z" transform="translate(0)" fill="#212121"/><path d="M11.68,14.68a3,3,0,0,1-.06,2.17c-.3.74-.51.63-.53,1.08s.15,2,.33,3.64.06,2.51.42,2.92.71.36,1.46,0,1.11-.77,1.7-.77V13.21a1.54,1.54,0,0,0-1.51.7c-.23.48-.24.68-.23.3a1.24,1.24,0,0,1,.25-.88A1.7,1.7,0,0,1,15,12.81V9.58c-.41,0-.56,1-1.32,1s-1-.51-1.69-1-1-.75-.65-.25A2.94,2.94,0,0,1,11.87,11c0,.67-.18,1-.58,1s-.73-.3-.57,0A13.24,13.24,0,0,1,11.68,14.68ZM13.17,19c0-.16.12-.16.25-.16s.5.38.61.69c.19.5.06.31-.35.06S13.17,19.19,13.17,19Z" transform="translate(0)" fill="#212121"/><rect width="30" height="30" fill="none"/></svg>