<!-- Copyright (c) 2022 - 2023 Jan Stehno -->
<svg xmlns="http://www.w3.org/2000/svg" viewBox="0 0 300 300"><title>magpiegoose</title><g id="magpiegoose"><g id="right"><path d="M150,0c8.83,0,20.15,2.48,31.1,18.87S197.94,41,207.24,50.8s14.26,22.36,17.39,35,2.21,27.51,0,37.17-12.51,31.75-18.5,39.3-8.58,12-10,12-8.83-10-8.83-20.43S195.74,124.6,202,115.4s6.81-12.52,6.81-18.87-3-14.9-13.16-14.9-25.12,19.5-32.66,19.5-9-12.85-13-12.85Z" transform="translate(0)" fill="#212121"/><path d="M196.89,91.38c4.14,0,4.87,2.62,4.87,8.56s-6.48,12.38-9.93,14.58-6.17,1.94-6.17-3.68S191.78,91.38,196.89,91.38Z" transform="translate(0)" fill="#212121"/><path d="M150,243c6.86,0,20.48,8.65,25.72,8.65s5.2-2.16,7.22-4.32.56,4.18-1.24,12.79S180.51,273.27,170,284s-17,16-20,16Z" transform="translate(0)" fill="#212121"/><path d="M192.84,119.68c1.61-3-1.66,0-5.71,0s-5.8-3.5-5.8-10.17,2.17-11.32,5.3-16.38.13-2.62-6.49,2.48-9.39,10.22-17,10.22-9-10-13.16-10v32.29c8.5,0,12.52,2.05,14.88,5.12s2.45,5.09,2.51,8.87,0,1.75-2.27-3-7.91-7-15.12-7V237.47c5.89,0,9.4,4.32,17,7.68s11,3.87,14.6-.23,2.44-12.37,4.24-29.21,3.54-31.94,3.31-36.45-2.35-3.36-5.29-10.81-3-10.12-.6-21.62A128.19,128.19,0,0,1,192.84,119.68Zm-29.68,76.38c-4,2.53-5.39,4.47-3.5-.6,1.15-3.08,4.83-6.86,6.12-6.86s2.53,0,2.53,1.61S167.21,193.53,163.16,196.06Z" transform="translate(0)" fill="#212121"/></g><g id="left"><path d="M150,0c-8.83,0-20.15,2.48-31.1,18.87S102.06,41,92.76,50.8s-14.26,22.36-17.39,35-2.21,27.51,0,37.17,12.51,31.75,18.5,39.3,8.58,12,10,12,8.83-10,8.83-20.43S104.26,124.6,98,115.4,91.2,102.88,91.2,96.53s3-14.9,13.16-14.9,25.12,19.5,32.66,19.5,9-12.85,13-12.85Z" transform="translate(0)" fill="#212121"/><path d="M103.11,91.38c-4.14,0-4.87,2.62-4.87,8.56s6.48,12.38,9.93,14.58,6.17,1.94,6.17-3.68S108.22,91.38,103.11,91.38Z" transform="translate(0)" fill="#212121"/><path d="M150,243c-6.86,0-20.48,8.65-25.72,8.65s-5.2-2.16-7.22-4.32-.56,4.18,1.24,12.79S119.49,273.27,130,284s17,16,20,16Z" transform="translate(0)" fill="#212121"/><path d="M116.78,146.83c2.44,11.5,2.35,14.17-.6,21.62s-5.06,6.3-5.29,10.81,1.52,19.61,3.31,36.45.6,25.12,4.24,29.21,7,3.59,14.6.23,11.07-7.68,17-7.68V132.06c-7.21,0-12.85,2.23-15.12,7s-2.33,6.81-2.27,3,.15-5.8,2.51-8.87,6.38-5.12,14.88-5.12V95.84c-4.14,0-5.57,10-13.16,10s-10.35-5.11-17-10.22-9.61-7.54-6.49-2.48,5.3,9.71,5.3,16.38-1.75,10.17-5.8,10.17-7.32-3-5.71,0A128.19,128.19,0,0,1,116.78,146.83Zm14.91,43.38c0-1.65,1.24-1.61,2.53-1.61s5,3.78,6.12,6.86c1.89,5.07.55,3.13-3.5.6S131.69,191.87,131.69,190.21Z" transform="translate(0)" fill="#212121"/></g></g><g id="frame"><rect width="300" height="300" fill="none"/></g></svg>