<!-- Copyright (c) 2022 Jan Stehno -->
<svg xmlns="http://www.w3.org/2000/svg" viewBox="0 0 300 300"><title>mallard</title><g id="mallard"><g id="right"><path d="M150,300c10.29,0,21.81-7.68,45.55-22.9s31-25,31-25-2.34-4.08-5-10a41.93,41.93,0,0,1-3.14-11.71s-4,6.63-5.37,6.63-.82-2.18-.82-2.18-9.68,10.6-11.28,10.6-.89-2.45-.89-2.45-5.48,8.32-7.09,8.3c-1.26,0,.32-3.82.32-3.82s-14.21,14.32-16.39,14.28,5.71-7.5,5.71-7.5-12.29,9.25-18.8,10.93-7.55,3.87-9.55,5.61-2.55,1.88-4.26,1.88Z" transform="translate(0)" fill="#212121"/><path d="M193.87,200.52c-1.55-7.94-6-14.07-8.84-21.55s-3.8-10.32-4.45-13.87a25.57,25.57,0,0,1,.39-8.26,21.81,21.81,0,0,0,1.22,7.81,17.08,17.08,0,0,0,3,5.35,51.56,51.56,0,0,1,2.9-9.42,36.25,36.25,0,0,1,5.93-8.71,10.73,10.73,0,0,1-8.9-3.16c-4.19-4.06-6.64-12.84-8.26-22.52S173.68,107,173.68,107a53.87,53.87,0,0,1-10.13,11.32c-5.77,4.52-9.32,6.42-13.55,6.42,0,0-.2,9.56,0,20.34.26,14.12,3.55,30.37,0,30.37v23.07c3.23,0,11,.8,11.1,15.39s-.39,16.12-.39,16.12,15-1.8,22.58-8.77S195.42,208.45,193.87,200.52Zm-19.26-45.23c.58,2.29,0,6.48-3.58,6.48-5.16,0-4.06-4.35-4.06-6.22s.51-5.87,2.32-7.74,5.65-9.42,5.65-9.42a41,41,0,0,1-1.23,7.61C172.84,148.55,174,153,174.61,155.29Z" transform="translate(0)" fill="#212121"/><path d="M187.68,81.81c3,.14,6.35-.78,8.93-4.91S199.26,68,198,67.1s-4.81,1.93-7.36,5.64S185.58,81.71,187.68,81.81Z" transform="translate(0)" fill="#212121"/><path d="M150,241.94c8.13,0,25-1.17,34.52-8.78a52.74,52.74,0,0,0,13.74-16.32,34,34,0,0,1-6.39,5,38,38,0,0,1-5.68,2.45s9.62-6.65,12.07-12.58-.07-19-.07-27.62a57.5,57.5,0,0,1,3.68-20.58,123.14,123.14,0,0,1,5.55-11.67s-4.45,2.77-6,4.77a53.24,53.24,0,0,0-3.23,4.9A26.47,26.47,0,0,1,202,152.9c3-4.58,9.1-6.77,11.35-9.55s3.88-7.67,3.88-7.67-8,8.71-13.17,9.61-9.54.58-15.16-6.39-8.19-16.51-8.77-27.67,1-16.26,2.32-19.29,3.1-6.26,3.1-6.26,4.19,1.93,11.35-1.55,8-8.45,8.2-10.32a15.12,15.12,0,0,0-.52-4.46,11.09,11.09,0,0,0-1,2,12.31,12.31,0,0,0-.54,2.55,20.52,20.52,0,0,1-.73-5.44c-.05-3.27-.25-5.71-1.38-6.8s-7.19,1-12,7.89-11.64,20.49-14,23.91a33.54,33.54,0,0,1-4.55,5.35A21.45,21.45,0,0,0,172,93.55a8.29,8.29,0,0,0-.48-4.84s-4.45,8.39-9.84,12.74-9,6.9-11.71,6.9V0c6,0,17.08.1,27.1,5.35,13,6.85,23.74,15.49,29.16,25a65.38,65.38,0,0,1,8,29.67,76.56,76.56,0,0,1-.78,12.39s9.68,11.36,12.78,21.94,3.48,29.38,3.48,29.38a36.14,36.14,0,0,0-1.06-5.54,17.79,17.79,0,0,0-1.68-3.17s1.58,3.29,1.05,9.73-7.45,30.39-8.57,35.76a49.17,49.17,0,0,0-.53,15.24,52,52,0,0,0,1.45,6.39,24.84,24.84,0,0,1-2.46-4.41,46,46,0,0,1-1.55-4.69s.63,8.81-.78,13.07a23.78,23.78,0,0,0-.09,13.4,21.63,21.63,0,0,0,4.4,7s-2-.91-3.53-1.64a6.9,6.9,0,0,1-2.08-1.4s2,3,1.88,8.56.2,8,1.07,9.82a23,23,0,0,0,2.85,4.12,14.94,14.94,0,0,1-2.56-1.26,6.74,6.74,0,0,1-1.7-1.45s-2.69,5.79-6.69,7.66-6,2.06-6.51,2.88a1.64,1.64,0,0,0-.1,1.55,2.28,2.28,0,0,0-2.86-.14,46,46,0,0,0-5,4.74s2-3.15.87-2.52-4.93,4.07-6.77,5.37a36.79,36.79,0,0,1-3.92,2.38s1.93-1.89,2.46-2.62a10.8,10.8,0,0,0,.78-1.16s-5.57,3.68-9.73,5.76a53.87,53.87,0,0,1-7.5,3.1s3.25-1.7,4.26-3-1.16-.77-6.92,2.57a51.9,51.9,0,0,1-12.19,4.89s4.16-2.71,2.71-2.37-6.15,1.79-8.76,1.79Z" transform="translate(0)" fill="#212121"/></g><g id="left"><path d="M150,300c-10.29,0-21.81-7.68-45.55-22.9s-31-25-31-25,2.34-4.08,5-10a41.93,41.93,0,0,0,3.14-11.71S85.6,237,87,237s.82-2.18.82-2.18,9.68,10.6,11.28,10.6.89-2.45.89-2.45,5.48,8.32,7.09,8.3c1.26,0-.32-3.82-.32-3.82s14.21,14.32,16.39,14.28-5.71-7.5-5.71-7.5,12.29,9.25,18.8,10.93,7.55,3.87,9.55,5.61,2.55,1.88,4.26,1.88Z" transform="translate(0)" fill="#212121"/><path d="M116.71,221.29c7.55,7,22.58,8.77,22.58,8.77s-.45-1.54-.39-16.12,7.87-15.39,11.1-15.39V175.48c-3.55,0-.26-16.25,0-30.37.2-10.78,0-20.34,0-20.34-4.23,0-7.78-1.9-13.55-6.42A53.87,53.87,0,0,1,126.32,107s-1.61,9.49-3.22,19.16-4.07,18.46-8.26,22.52a10.73,10.73,0,0,1-8.9,3.16,36.25,36.25,0,0,1,5.93,8.71,51.56,51.56,0,0,1,2.9,9.42,17.08,17.08,0,0,0,3-5.35,21.81,21.81,0,0,0,1.22-7.81,25.57,25.57,0,0,1,.39,8.26c-.65,3.55-1.61,6.38-4.45,13.87s-7.29,13.61-8.84,21.55S109.16,214.32,116.71,221.29ZM126.29,146a41,41,0,0,1-1.23-7.61s3.84,7.55,5.65,9.42,2.32,5.87,2.32,7.74,1.1,6.22-4.06,6.22c-3.62,0-4.16-4.19-3.58-6.48S127.16,148.55,126.29,146Z" transform="translate(0)" fill="#212121"/><path d="M112.32,81.81c-3,.14-6.35-.78-8.93-4.91S100.74,68,102,67.1s4.81,1.93,7.36,5.64S114.42,81.71,112.32,81.81Z" transform="translate(0)" fill="#212121"/><path d="M150,241.94c-8.13,0-25-1.17-34.52-8.78a52.74,52.74,0,0,1-13.74-16.32,34,34,0,0,0,6.39,5,38,38,0,0,0,5.68,2.45s-9.62-6.65-12.07-12.58.07-19,.07-27.62a57.5,57.5,0,0,0-3.68-20.58,123.14,123.14,0,0,0-5.55-11.67s4.45,2.77,6,4.77a53.24,53.24,0,0,1,3.23,4.9A26.47,26.47,0,0,0,98,152.9c-3-4.58-9.1-6.77-11.35-9.55s-3.88-7.67-3.88-7.67,8,8.71,13.17,9.61,9.54.58,15.16-6.39,8.19-16.51,8.77-27.67-1-16.26-2.32-19.29-3.1-6.26-3.1-6.26-4.19,1.93-11.35-1.55-8-8.45-8.2-10.32a15.12,15.12,0,0,1,.52-4.46,11.09,11.09,0,0,1,1,2A12.31,12.31,0,0,1,97,73.86a20.52,20.52,0,0,0,.73-5.44c0-3.27.25-5.71,1.38-6.8s7.19,1,12,7.89,11.64,20.49,14,23.91a33.54,33.54,0,0,0,4.55,5.35A21.45,21.45,0,0,1,128,93.55a8.29,8.29,0,0,1,.48-4.84s4.45,8.39,9.84,12.74,9,6.9,11.71,6.9V0c-6,0-17.08.1-27.1,5.35-13,6.85-23.74,15.49-29.16,25a65.38,65.38,0,0,0-8,29.67,76.56,76.56,0,0,0,.78,12.39S76.84,83.81,73.74,94.39s-3.48,29.38-3.48,29.38a36.14,36.14,0,0,1,1.06-5.54A17.79,17.79,0,0,1,73,115.06s-1.58,3.29-1,9.73,7.45,30.39,8.57,35.76a49.17,49.17,0,0,1,.53,15.24,52,52,0,0,1-1.45,6.39,24.84,24.84,0,0,0,2.46-4.41,46,46,0,0,0,1.55-4.69s-.63,8.81.78,13.07a23.78,23.78,0,0,1,.09,13.4,21.63,21.63,0,0,1-4.4,7s2-.91,3.53-1.64a6.9,6.9,0,0,0,2.08-1.4s-2,3-1.88,8.56-.2,8-1.07,9.82A23,23,0,0,1,79.89,226a14.94,14.94,0,0,0,2.56-1.26,6.74,6.74,0,0,0,1.7-1.45s2.69,5.79,6.69,7.66,6,2.06,6.51,2.88a1.64,1.64,0,0,1,.1,1.55,2.28,2.28,0,0,1,2.86-.14,46,46,0,0,1,5,4.74s-2-3.15-.87-2.52,4.93,4.07,6.77,5.37a36.79,36.79,0,0,0,3.92,2.38s-1.93-1.89-2.46-2.62a10.8,10.8,0,0,1-.78-1.16s5.57,3.68,9.73,5.76a53.87,53.87,0,0,0,7.5,3.1s-3.25-1.7-4.26-3,1.16-.77,6.92,2.57A51.9,51.9,0,0,0,144,254.81s-4.16-2.71-2.71-2.37,6.15,1.79,8.76,1.79Z" transform="translate(0)" fill="#212121"/></g></g><g id="frame"><rect width="300" height="300" fill="none"/></g></svg>