<svg xmlns="http://www.w3.org/2000/svg" viewBox="0 0 30 30"><path d="M15,30c1,0,2.18-.77,4.55-2.29a12.36,12.36,0,0,0,3.1-2.5s-.23-.41-.49-1A4.38,4.38,0,0,1,21.84,23s-.4.66-.54.66-.08-.22-.08-.22a7.69,7.69,0,0,1-1.12,1.06c-.16,0-.09-.24-.09-.24s-.55.83-.71.83,0-.38,0-.38a10.35,10.35,0,0,1-1.64,1.42c-.22,0,.57-.75.57-.75a8.32,8.32,0,0,1-1.88,1.1,1.59,1.59,0,0,0-.95.56.52.52,0,0,1-.43.18Z" transform="translate(0)" fill="#212121"/><path d="M19.39,20.05a13.35,13.35,0,0,0-.89-2.15,7.56,7.56,0,0,1-.44-1.39,2.39,2.39,0,0,1,0-.83,2.18,2.18,0,0,0,.12.78,1.74,1.74,0,0,0,.3.54,5.41,5.41,0,0,1,.29-.94,3.64,3.64,0,0,1,.6-.87,1.07,1.07,0,0,1-.89-.32,4.38,4.38,0,0,1-.83-2.25l-.32-1.92a5.51,5.51,0,0,1-1,1.14,2.18,2.18,0,0,1-1.35.64s0,.95,0,2c0,1.41.35,3,0,3v2.3c.32,0,1.1.09,1.11,1.54a10.36,10.36,0,0,1,0,1.62,4.83,4.83,0,0,0,2.26-.88C19.08,21.43,19.54,20.85,19.39,20.05Zm-1.93-4.52c.06.23,0,.65-.36.65-.51,0-.4-.44-.4-.63a1.3,1.3,0,0,1,.23-.77,6.75,6.75,0,0,0,.56-.94,3.71,3.71,0,0,1-.12.76A2,2,0,0,0,17.46,15.53Z" transform="translate(0)" fill="#212121"/><path d="M18.77,8.18a1,1,0,0,0,.89-.49c.26-.41.27-.89.14-1s-.48.19-.74.56S18.56,8.17,18.77,8.18Z" transform="translate(0)" fill="#212121"/><path d="M15,24.19a6.11,6.11,0,0,0,3.45-.87,5.33,5.33,0,0,0,1.38-1.64,3.41,3.41,0,0,1-.64.5,4.84,4.84,0,0,1-.57.25,4.21,4.21,0,0,0,1.21-1.26,10.62,10.62,0,0,0,0-2.76,5.58,5.58,0,0,1,.37-2.06,12.37,12.37,0,0,1,.55-1.17,3.3,3.3,0,0,0-.6.48c-.15.2-.32.49-.32.49a2.73,2.73,0,0,1,.38-.86c.3-.46.91-.68,1.14-.95a3.06,3.06,0,0,0,.38-.77s-.8.87-1.31,1a1.38,1.38,0,0,1-1.52-.64A4.76,4.76,0,0,1,18,11.12a4.07,4.07,0,0,1,.24-1.93,6.13,6.13,0,0,1,.3-.62,1.43,1.43,0,0,0,1.14-.16,1.26,1.26,0,0,0,.82-1,1.43,1.43,0,0,0-.05-.44,1.19,1.19,0,0,0-.1.19,1.31,1.31,0,0,0-.06.26,2.6,2.6,0,0,1-.07-.55c0-.32,0-.57-.14-.68s-.72.1-1.2.79S17.73,9,17.49,9.34a3.6,3.6,0,0,1-.46.54,2.14,2.14,0,0,0,.17-.53.83.83,0,0,0-.05-.48,4.87,4.87,0,0,1-1,1.28c-.54.43-.9.69-1.17.69V0a5.74,5.74,0,0,1,2.71.54A7.12,7.12,0,0,1,20.63,3a6.53,6.53,0,0,1,.8,3,7.54,7.54,0,0,1-.08,1.24,7.28,7.28,0,0,1,1.28,2.19A14.53,14.53,0,0,1,23,12.38a3.32,3.32,0,0,0-.1-.56,1.89,1.89,0,0,0-.17-.31,2,2,0,0,1,.1,1c-.05.64-.74,3-.85,3.57a4.76,4.76,0,0,0-.05,1.53,5.09,5.09,0,0,0,.14.64,2.47,2.47,0,0,1-.25-.44c-.08-.22-.15-.47-.15-.47a4.69,4.69,0,0,1-.08,1.3,2.44,2.44,0,0,0,0,1.34,2.24,2.24,0,0,0,.44.71l-.35-.17a.66.66,0,0,1-.21-.14,1.63,1.63,0,0,1,.19.86,2,2,0,0,0,.11,1,2.13,2.13,0,0,0,.28.41,2.56,2.56,0,0,1-.26-.12.52.52,0,0,1-.16-.15,1.83,1.83,0,0,1-.67.77c-.4.18-.61.2-.66.29a.19.19,0,0,0,0,.15.22.22,0,0,0-.28,0,4.11,4.11,0,0,0-.5.47s.2-.31.09-.25-.5.4-.68.54a2.89,2.89,0,0,1-.39.23l.25-.26.07-.11s-.55.36-1,.57a5.31,5.31,0,0,1-.75.31,2.24,2.24,0,0,0,.43-.29c.1-.13-.12-.08-.7.25a4.83,4.83,0,0,1-1.22.49s.42-.27.28-.24a4.37,4.37,0,0,1-.88.18Z" transform="translate(0)" fill="#212121"/><path d="M15,30c-1,0-2.18-.77-4.55-2.29a12.36,12.36,0,0,1-3.1-2.5s.23-.41.49-1A4.38,4.38,0,0,0,8.16,23s.4.66.54.66.08-.22.08-.22A7.69,7.69,0,0,0,9.9,24.54c.16,0,.09-.24.09-.24s.55.83.71.83,0-.38,0-.38a10.35,10.35,0,0,0,1.64,1.42c.22,0-.57-.75-.57-.75a8.32,8.32,0,0,0,1.88,1.1,1.59,1.59,0,0,1,1,.56.52.52,0,0,0,.43.18Z" transform="translate(0)" fill="#212121"/><path d="M11.67,22.13a4.83,4.83,0,0,0,2.26.88,10.36,10.36,0,0,1,0-1.62c0-1.45.79-1.54,1.11-1.54v-2.3c-.35,0,0-1.63,0-3,0-1.08,0-2,0-2a2.18,2.18,0,0,1-1.35-.64,5.51,5.51,0,0,1-1-1.14l-.32,1.92a4.38,4.38,0,0,1-.83,2.25,1.07,1.07,0,0,1-.89.32,3.64,3.64,0,0,1,.6.87,5.41,5.41,0,0,1,.29.94,1.74,1.74,0,0,0,.3-.54,2.18,2.18,0,0,0,.12-.78,2.39,2.39,0,0,1,0,.83,7.56,7.56,0,0,1-.44,1.39,13.35,13.35,0,0,0-.89,2.15C10.46,20.85,10.92,21.43,11.67,22.13Zm1-7.53a3.71,3.71,0,0,1-.12-.76,6.75,6.75,0,0,0,.56.94,1.3,1.3,0,0,1,.23.77c0,.19.11.63-.4.63s-.42-.42-.36-.65A2,2,0,0,0,12.63,14.6Z" transform="translate(0)" fill="#212121"/><path d="M11.23,8.18a1,1,0,0,1-.89-.49c-.26-.41-.27-.89-.14-1s.48.19.74.56S11.44,8.17,11.23,8.18Z" transform="translate(0)" fill="#212121"/><path d="M15,24.19a6.11,6.11,0,0,1-3.45-.87,5.33,5.33,0,0,1-1.38-1.64,3.41,3.41,0,0,0,.64.5,4.84,4.84,0,0,0,.57.25,4.21,4.21,0,0,1-1.21-1.26,10.62,10.62,0,0,1,0-2.76,5.58,5.58,0,0,0-.37-2.06,12.37,12.37,0,0,0-.55-1.17,3.3,3.3,0,0,1,.6.48c.15.2.32.49.32.49a2.73,2.73,0,0,0-.38-.86c-.3-.46-.91-.68-1.14-.95a3.06,3.06,0,0,1-.38-.77s.8.87,1.31,1a1.38,1.38,0,0,0,1.52-.64A4.76,4.76,0,0,0,12,11.12a4.07,4.07,0,0,0-.24-1.93,6.13,6.13,0,0,0-.3-.62,1.43,1.43,0,0,1-1.14-.16,1.26,1.26,0,0,1-.82-1,1.43,1.43,0,0,1,0-.44,1.19,1.19,0,0,1,.1.19,1.31,1.31,0,0,1,.06.26,2.6,2.6,0,0,0,.07-.55c0-.32,0-.57.14-.68s.72.1,1.2.79S12.27,9,12.51,9.34a3.6,3.6,0,0,0,.46.54,2.14,2.14,0,0,1-.17-.53.83.83,0,0,1,0-.48,4.87,4.87,0,0,0,1,1.28c.54.43.9.69,1.17.69V0a5.74,5.74,0,0,0-2.71.54A7.12,7.12,0,0,0,9.37,3a6.53,6.53,0,0,0-.8,3,7.54,7.54,0,0,0,.08,1.24A7.28,7.28,0,0,0,7.37,9.44,14.53,14.53,0,0,0,7,12.38a3.32,3.32,0,0,1,.1-.56,1.89,1.89,0,0,1,.17-.31,2,2,0,0,0-.1,1c0,.64.74,3,.85,3.57a4.76,4.76,0,0,1,0,1.53,5.09,5.09,0,0,1-.14.64,2.47,2.47,0,0,0,.25-.44c.08-.22.15-.47.15-.47a4.69,4.69,0,0,0,.08,1.3,2.44,2.44,0,0,1,0,1.34,2.24,2.24,0,0,1-.44.71l.35-.17a.66.66,0,0,0,.21-.14,1.63,1.63,0,0,0-.19.86,2,2,0,0,1-.11,1A2.13,2.13,0,0,1,8,22.6l.26-.12a.52.52,0,0,0,.16-.15,1.83,1.83,0,0,0,.67.77c.4.18.61.2.66.29a.19.19,0,0,1,0,.15.22.22,0,0,1,.28,0,4.11,4.11,0,0,1,.5.47s-.2-.31-.09-.25.5.4.68.54a2.89,2.89,0,0,0,.39.23l-.25-.26-.07-.11s.55.36,1,.57a5.31,5.31,0,0,0,.75.31,2.24,2.24,0,0,1-.43-.29c-.1-.13.12-.08.7.25a4.83,4.83,0,0,0,1.22.49s-.42-.27-.28-.24a4.37,4.37,0,0,0,.88.18Z" transform="translate(0)" fill="#212121"/><rect width="30" height="30" fill="none"/></svg>