<!-- Copyright (c) 2023 Jan Stehno -->
<svg xmlns="http://www.w3.org/2000/svg" viewBox="0 0 300 300">
    <title>mexicanbobcat</title>
    <g id="mexicanbobcat">
        <g id="right">
            <path
                d="M150,273c14.37,0,31.84,1.17,31.84,3.75s-6.4,7-6.4,8.32,2.41,1.57,2.41,1.57S173.23,288,173,290a22.67,22.67,0,0,0-.14,3.76s-3-.75-4.1.4-.29,3.61-.29,3.61a22.63,22.63,0,0,0-5.68-.89,4.11,4.11,0,0,0-3.72,2.5,55.91,55.91,0,0,1-9,.6Z"
                transform="translate(0)" fill="#212121" />
            <path
                d="M201.54,168.91a48.1,48.1,0,0,0-8.57,1.46,4.85,4.85,0,1,1-3.29.93c-5.35,1.68-10.42,4.26-10.42,7.81,0,2.62,4,8.13,13.12,8.13s13.94-9.64,13.94-12.14S204.42,168.91,201.54,168.91Z"
                transform="translate(0)" fill="#212121" />
            <path
                d="M234.78,269c-8.2-2.64-16.75-5.91-16.75-7.12s-.28-4.36,3.39-4.36,9.64.86,18.7,3.33,18.5,11.47,18.5,11.47a52.11,52.11,0,0,0-15.35-13.53c-9.4-5.22-29.08-5.57-29.08-5.57s4.13-4.93,18-4.24,21,8,21,8-3.1-8.38-14.86-10.27a184.71,184.71,0,0,0-21.22-2.18l2.35-1.72-9.7-4.82,12.57.52s-11.07-9.35-11.07-11.82,23.66-26.59,25.81-26.59,4.73,2.93,7,5.77,4,14.54,4,14.54-.34-9.38,0-13.86,1.47-5.42,5.08-12.39a19.58,19.58,0,0,0,1.46-13.76l3.79,3.44s1.38-6.37-3-15.32-10.36-9.92-10.36-13.19,5.34-7.8,5.34-12.16S208.63,102.09,197.27,93,162.82,82.69,150,82.69v99.56l18.3-11.55a33.05,33.05,0,0,0-4.82,13.19c-1.09,7.86-3.2,11.09-3.2,11.09l-1.93-4.77L150,198v29.85c21.51,0,23.46,11.75,23.46,14.57,0,5.85-4.53,11.64-10.5,16.57s-10.09,4.36-10.09,4.36,7,6.66,11.53,6.66,15.37-3.39,21.8-4.76,14.28-7.23,14.28-20.88S191,220.21,191,220.21s3.9,3.15,8.43,7.68,5.51,8.09,6.31,17.79,0,8.49-6,16.23-13,9.18-13,10.78,2.7,8.38,4.53,8.38,2.07-2.7,5.28-2.7,4-1.89,5-4.64,1.66-2,9.41-2,15.14,10.1,15.14,10.1-.4-3-4.24-6.83-9.64-4.53-9.64-6.08,0-4.25,3.56-2.93,9.63,2.3,18,4.76A16.56,16.56,0,0,1,244.54,281S243,271.6,234.78,269ZM199.31,125.88c5.85,0,17.72,14.06,17.72,14.06s-11.93-8.27-15.83-8.27-6.37,1.73-9.61,5.68C191.59,137.35,193.46,125.88,199.31,125.88Zm-25.43,6.33s5.16.9,5.16-1.94-5.35-24.79-5.35-24.79,7.23,13.48,10.56,20.4,3.09,12.07,3.09,22.33-9.76,19.84-11.7,19.84-.86-5.12-.17-6.67,7.83-4,7.83-13.6S173.88,132.21,173.88,132.21Zm6.32,77.23c-2.23,0-2-4.26-2-4.26,0-1.9,19.06-4.69,19.06-4.69S182.44,209.44,180.2,209.44Zm13-17.08c-9.42,0-7.87-3.92-11.05-3.92s-6.67,3.18-6.67,3.18-.69-.94-.69-6.15a18.54,18.54,0,0,1,15.83-18.15c12.78-2.15,14.2-6.46,18-.18,2.61,4.32,3.1,1.64,9.21,4.22s11.1,12.79,11.1,12.79-4.52-4.87-8-6.89-10-1.55-11.27.25S202.57,192.36,193.15,192.36Z"
                transform="translate(0)" fill="#212121" />
            <path
                d="M259.11,97.32c0-3.1,3.57-2.24,3.57-5.42s-2.37-3.19-2.37-8.44,3.36-2,3.36-15.35-3.53-31.76-7.75-37.43a39.36,39.36,0,0,0-8.77-8.7,27.61,27.61,0,0,1,4.64-.14,22.62,22.62,0,0,1,4.85,1A40.45,40.45,0,0,0,250.06,20a19.27,19.27,0,0,0-5.06-.82s1.87-1.15,4.38-2.57,6.05-3.06,6.05-3.06a66.29,66.29,0,0,0-8.54,1.7A51.42,51.42,0,0,0,242,17.14s.89-2.38,3-7.07S249.15,0,249.15,0s-5.38,6.67-8.09,11A61,61,0,0,0,237,18.46c-1.64,0-13.24,3.84-25.46,18.24S177.76,79,177.76,80.07c0,1.75,8.21-.48,19.05,6.54s53.91,49.82,55.93,49.82-.43-11.19,1.51-16.09,10.62-10.67,10.62-13.34S259.11,100.42,259.11,97.32ZM256.74,66.6c0,2.06-2.06,3.57-2.06,3.57s2.53,3.66,2.53,6.5-3.7,7.14-3.7,7.14L245,75a68.86,68.86,0,0,0,.86,17c1.63,8.69,2.62,10.36,2.62,10.36l5-.9a36.73,36.73,0,0,0-3.35,7.83c-1.25,4.35-1,16.65-1,16.65s-7.5-6.09-9.51-10-1.43-14.06-1.43-14.06-4.25,10.27-5.8,10.27-4-1.49-4-3.78,2.87-10.9,2.87-10.9l-11.07,1.83,13.56-9.92-16.66,4.76,4.15-8.81H208.6s3.27-2.75,3.27-4.68S212.6,78,220.43,77s11.92-3,11.92-3S216.17,71.42,216.17,70,236,67.5,236,67.5s-15.32-4-15.32-7.8,10-2.87,10-2.87-4.87-4.76-4.87-6.82S236,46.82,236,46.82s-3.9-2.61.8-8.89S245,33.37,245,33.37V29.21s7.87,5.17,9.12,13,4.9,13,4.9,15.1-3.91,5.85-3.91,5.85A5,5,0,0,1,256.74,66.6Z"
                transform="translate(0)" fill="#212121" />
            <path
                d="M150,235.81c4.73,0,7.14-1.66,10.76-1.66s6.82,5.3,6.82,8.11-1.69,3.24-3.15,3.24S162.86,244,160.2,244a4.78,4.78,0,0,0-5,4.64c0,2.8,2.89,2.46,2.89,3.66s-5.9,5.34-8.05,5.34Z"
                transform="translate(0)" fill="#212121" />
        </g>
        <g id="left">
            <path
                d="M150,273c-14.37,0-31.84,1.17-31.84,3.75s6.4,7,6.4,8.32-2.41,1.57-2.41,1.57S126.77,288,127,290a22.67,22.67,0,0,1,.14,3.76s3-.75,4.1.4.29,3.61.29,3.61a22.63,22.63,0,0,1,5.68-.89,4.11,4.11,0,0,1,3.72,2.5,55.91,55.91,0,0,0,9,.6Z"
                transform="translate(0)" fill="#212121" />
            <path
                d="M98.46,168.91a48.1,48.1,0,0,1,8.57,1.46,4.85,4.85,0,1,0,3.29.93c5.35,1.68,10.42,4.26,10.42,7.81,0,2.62-4,8.13-13.12,8.13S93.68,177.6,93.68,175.1,95.58,168.91,98.46,168.91Z"
                transform="translate(0)" fill="#212121" />
            <path
                d="M55.46,281a16.56,16.56,0,0,1,10.73-10.27c8.38-2.46,14.46-3.44,18-4.76s3.56,1.38,3.56,2.93S82,271.15,78.12,275s-4.24,6.83-4.24,6.83,7.4-10.1,15.14-10.1,8.38-.75,9.41,2,1.78,4.64,5,4.64,3.44,2.7,5.28,2.7,4.53-6.77,4.53-8.38-6.94-3-13-10.78-6.83-6.54-6-16.23,1.78-13.25,6.31-17.79,8.43-7.68,8.43-7.68-9.46,10.49-9.46,24.15,7.86,19.5,14.28,20.88S131.07,270,135.6,270s11.53-6.66,11.53-6.66S143,263.92,137,259s-10.5-10.72-10.5-16.57c0-2.82,2-14.57,23.46-14.57V198l-8.35-7.78L139.72,195s-2.11-3.23-3.2-11.09a33.05,33.05,0,0,0-4.82-13.19L150,182.25V82.69c-12.82,0-35.91,1.28-47.27,10.34s-53.12,45.78-53.12,50.14S55,152.06,55,155.33s-6,4.24-10.36,13.19-3,15.32-3,15.32l3.79-3.44a19.58,19.58,0,0,0,1.46,13.76c3.61,7,4.73,7.92,5.08,12.39s0,13.86,0,13.86,1.63-11.7,4-14.54,4.9-5.77,7.05-5.77,25.81,24.12,25.81,26.59-11.07,11.82-11.07,11.82L90.23,238l-9.7,4.82,2.35,1.72a184.71,184.71,0,0,0-21.22,2.18C49.9,248.6,46.8,257,46.8,257s7.11-7.35,21-8,18,4.24,18,4.24-19.68.35-29.08,5.57a52.11,52.11,0,0,0-15.35,13.53s9.44-9,18.5-11.47,15-3.33,18.7-3.33S82,260.65,82,261.85s-8.55,4.48-16.75,7.12S55.46,281,55.46,281Zm53-143.66c-3.24-3.95-5.71-5.68-9.61-5.68S83,139.94,83,139.94s11.87-14.06,17.72-14.06S108.41,137.35,108.41,137.35Zm8.29,10.43c0,9.56,7.14,12.05,7.83,13.6s1.66,6.67-.17,6.67-11.7-9.57-11.7-19.84-.23-15.41,3.09-22.33,10.56-20.4,10.56-20.4-5.35,22-5.35,24.79,5.16,1.94,5.16,1.94S116.7,138.23,116.7,147.78Zm-13.94,52.71s19.06,2.79,19.06,4.69c0,0,.21,4.26-2,4.26S102.76,200.49,102.76,200.49Zm-12.35-23c-1.24-1.8-7.78-2.28-11.27-.25s-8,6.89-8,6.89,5-10.21,11.1-12.79,6.6.1,9.21-4.22c3.78-6.28,5.2-2,18,.18a18.54,18.54,0,0,1,15.83,18.15c0,5.21-.69,6.15-.69,6.15s-3.48-3.18-6.67-3.18-1.63,3.92-11.05,3.92S91.66,179.32,90.41,177.51Z"
                transform="translate(0)" fill="#212121" />
            <path
                d="M35.13,107c0,2.67,8.69,8.43,10.62,13.34s-.51,16.09,1.51,16.09,45.09-42.81,55.93-49.82,19-4.79,19-6.54c0-1.09-21.52-29-33.73-43.37S64.69,18.46,63.05,18.46A61,61,0,0,0,58.94,11C56.23,6.67,50.85,0,50.85,0s2,5.38,4.13,10.07,3,7.07,3,7.07a51.42,51.42,0,0,0-4.91-1.91,66.29,66.29,0,0,0-8.54-1.7s3.53,1.64,6,3.06S55,19.16,55,19.16a19.27,19.27,0,0,0-5.06.82,40.45,40.45,0,0,0-6.58,2.82,22.62,22.62,0,0,1,4.85-1,27.61,27.61,0,0,1,4.64.14,39.36,39.36,0,0,0-8.77,8.7c-4.22,5.67-7.75,24.09-7.75,37.43s3.36,10.11,3.36,15.35-2.37,5.25-2.37,8.44,3.57,2.32,3.57,5.42S35.13,104.33,35.13,107Zm9.72-43.84s-3.91-3.75-3.91-5.85,3.65-7.27,4.9-15.1,9.12-13,9.12-13v4.16s3.54-1.72,8.25,4.56.8,8.89.8,8.89S74.16,47.94,74.16,50s-4.87,6.82-4.87,6.82,10-.91,10,2.87S64,67.5,64,67.5,83.83,68.66,83.83,70,67.65,74,67.65,74s4.09,1.93,11.92,3,8.56,1.72,8.56,3.66,3.27,4.68,3.27,4.68H78.68l4.15,8.81L66.17,89.36l13.56,9.92L68.66,97.45s2.87,8.6,2.87,10.9-2.41,3.78-4,3.78-5.8-10.27-5.8-10.27.58,10.1-1.43,14.06-9.51,10-9.51,10,.26-12.3-1-16.65a36.73,36.73,0,0,0-3.35-7.83l5,.9s1-1.67,2.62-10.36A68.86,68.86,0,0,0,55,75l-8.47,8.78s-3.7-4.3-3.7-7.14,2.53-6.5,2.53-6.5-2.06-1.51-2.06-3.57A5,5,0,0,1,44.85,63.16Z"
                transform="translate(0)" fill="#212121" />
            <path
                d="M150,235.81c-4.73,0-7.14-1.66-10.76-1.66s-6.82,5.3-6.82,8.11,1.69,3.24,3.15,3.24,1.57-1.47,4.23-1.47a4.78,4.78,0,0,1,5,4.64c0,2.8-2.89,2.46-2.89,3.66s5.9,5.34,8.05,5.34Z"
                transform="translate(0)" fill="#212121" />
        </g>
    </g>
    <g id="frame">
        <rect width="300" height="300" fill="none" />
    </g>
</svg>