<svg xmlns="http://www.w3.org/2000/svg" viewBox="0 0 30 30"><path d="M15,27.3c1.44,0,3.18.12,3.18.38s-.64.69-.64.83.25.16.25.16-.47.13-.49.33a2.11,2.11,0,0,0,0,.38s-.29-.08-.41,0,0,.36,0,.36a2.2,2.2,0,0,0-.56-.09.42.42,0,0,0-.38.25A5.56,5.56,0,0,1,15,30Z" transform="translate(0)" fill="#212121"/><path d="M20.15,16.89a4.67,4.67,0,0,0-.85.15.48.48,0,1,1-.53.48.49.49,0,0,1,.2-.39c-.54.17-1,.43-1,.78s.4.81,1.31.81a1.54,1.54,0,0,0,1.39-1.21C20.63,17.26,20.44,16.89,20.15,16.89Z" transform="translate(0)" fill="#212121"/><path d="M23.48,26.9a5.48,5.48,0,0,1-1.68-.71c0-.13,0-.44.34-.44a8,8,0,0,1,1.87.33,5.39,5.39,0,0,1,1.85,1.15,5.15,5.15,0,0,0-1.53-1.35,8,8,0,0,0-2.91-.56s.41-.49,1.8-.43a3.25,3.25,0,0,1,2.1.81,1.84,1.84,0,0,0-1.49-1,18.37,18.37,0,0,0-2.12-.22l.24-.17-1-.48,1.25.05s-1.1-.93-1.1-1.18A13.85,13.85,0,0,1,23.71,20c.21,0,.47.29.7.58a4.7,4.7,0,0,1,.4,1.45s0-.94,0-1.38.15-.55.51-1.24A2,2,0,0,0,25.46,18l.38.34a2.53,2.53,0,0,0-.3-1.53c-.44-.89-1-1-1-1.32s.53-.78.53-1.21-4.18-4.11-5.31-5-3.45-1-4.73-1v10l1.83-1.16a3.31,3.31,0,0,0-.48,1.32A2.93,2.93,0,0,1,16,19.5l-.2-.48L15,19.8v3c2.15,0,2.35,1.18,2.35,1.46A2.42,2.42,0,0,1,16.3,25.9a1.45,1.45,0,0,1-1,.43s.7.67,1.15.67a17.25,17.25,0,0,0,2.18-.48,1.92,1.92,0,0,0,1.43-2.08A4,4,0,0,0,19.1,22s.39.32.84.77.56.81.64,1.78,0,.85-.61,1.62-1.29.92-1.29,1.08.27.84.45.84.21-.27.53-.27.39-.19.5-.47.16-.2.94-.2,1.51,1,1.51,1a1.35,1.35,0,0,0-.42-.68c-.39-.39-1-.45-1-.61s0-.42.36-.29,1,.23,1.8.47a1.65,1.65,0,0,1,1.07,1A1.58,1.58,0,0,0,23.48,26.9ZM19.93,12.59c.59,0,1.77,1.4,1.77,1.4a5.79,5.79,0,0,0-1.58-.82,1.16,1.16,0,0,0-1,.57S19.35,12.59,19.93,12.59Zm-2.54.63s.51.09.51-.19-.53-2.48-.53-2.48.72,1.35,1.05,2a4.44,4.44,0,0,1,.31,2.23,2.51,2.51,0,0,1-1.17,2c-.18,0-.08-.51,0-.66s.78-.41.78-1.36A2.09,2.09,0,0,0,17.39,13.22ZM18,20.94c-.22,0-.2-.42-.2-.42,0-.19,1.9-.47,1.9-.47A12,12,0,0,1,18,20.94Zm1.3-1.7c-.95,0-.79-.4-1.11-.4a1.25,1.25,0,0,0-.67.32s-.07-.09-.07-.61a1.86,1.86,0,0,1,1.59-1.82c1.27-.21,1.42-.64,1.8,0,.26.44.31.17.92.43s1.11,1.27,1.11,1.27a5,5,0,0,0-.8-.68,1.13,1.13,0,0,0-1.13,0C20.83,17.93,20.26,19.24,19.32,19.24Z" transform="translate(0)" fill="#212121"/><path d="M25.91,9.73c0-.31.36-.22.36-.54S26,8.87,26,8.35s.34-.21.34-1.54a8.56,8.56,0,0,0-.78-3.74,3.83,3.83,0,0,0-.88-.87,3.13,3.13,0,0,1,.47,0,2.37,2.37,0,0,1,.48.1A3.65,3.65,0,0,0,25,2a1.68,1.68,0,0,0-.51-.08l.44-.26c.25-.14.6-.31.6-.31a7,7,0,0,0-.85.17l-.49.19s.09-.23.3-.7.41-1,.41-1-.53.67-.8,1.09a5.46,5.46,0,0,0-.42.76,5,5,0,0,0-2.54,1.82C19.93,5.11,17.78,7.9,17.78,8s.82,0,1.9.65,5.39,5,5.59,5,0-1.12.15-1.61S26.49,11,26.49,10.7,25.91,10,25.91,9.73Zm-.24-3.07a.52.52,0,0,1-.2.36,1.44,1.44,0,0,1,.25.65,1.59,1.59,0,0,1-.37.71L24.5,7.5a7.25,7.25,0,0,0,.09,1.7,4.27,4.27,0,0,0,.26,1l.5-.09a3.56,3.56,0,0,0-.33.78,8.68,8.68,0,0,0-.1,1.67,4.75,4.75,0,0,1-1-1,4,4,0,0,1-.15-1.4s-.42,1-.58,1a.42.42,0,0,1-.39-.38,7.57,7.57,0,0,1,.28-1.09L22,9.93l1.35-1-1.66.47.41-.88H20.86s.33-.27.33-.47.07-.26.85-.36a4.47,4.47,0,0,0,1.19-.3A6.78,6.78,0,0,1,21.62,7a10.32,10.32,0,0,1,2-.25s-1.53-.4-1.53-.78,1-.29,1-.29-.49-.47-.49-.68,1-.32,1-.32-.39-.26.08-.89.82-.45.82-.45V2.92a2.26,2.26,0,0,1,.92,1.3,12.59,12.59,0,0,0,.49,1.51c0,.21-.4.59-.4.59A.47.47,0,0,1,25.67,6.66Z" transform="translate(0)" fill="#212121"/><path d="M15,23.58c.47,0,.71-.17,1.08-.17s.68.54.68.82-.17.32-.32.32-.15-.15-.42-.15a.48.48,0,0,0-.5.47c0,.28.28.24.28.36a1.43,1.43,0,0,1-.8.54Z" transform="translate(0)" fill="#212121"/><path d="M15,27.3c-1.44,0-3.18.12-3.18.38s.64.69.64.83-.25.16-.25.16.47.13.49.33a2.11,2.11,0,0,1,0,.38s.29-.08.41,0,0,.36,0,.36a2.2,2.2,0,0,1,.56-.09.42.42,0,0,1,.38.25A5.56,5.56,0,0,0,15,30Z" transform="translate(0)" fill="#212121"/><path d="M9.85,16.89a4.67,4.67,0,0,1,.85.15.48.48,0,1,0,.53.48.49.49,0,0,0-.2-.39c.54.17,1,.43,1,.78s-.4.81-1.31.81a1.54,1.54,0,0,1-1.39-1.21C9.37,17.26,9.56,16.89,9.85,16.89Z" transform="translate(0)" fill="#212121"/><path d="M5.55,28.1a1.65,1.65,0,0,1,1.07-1c.84-.24,1.44-.34,1.8-.47s.36.14.36.29-.58.22-1,.61a1.35,1.35,0,0,0-.42.68s.74-1,1.51-1,.84-.07.94.2.18.47.5.47.35.27.53.27.45-.68.45-.84S10.63,27,10,26.19s-.69-.65-.61-1.62.18-1.33.64-1.78.84-.77.84-.77a4,4,0,0,0-1,2.42,1.92,1.92,0,0,0,1.43,2.08,17.25,17.25,0,0,0,2.18.48c.45,0,1.15-.67,1.15-.67a1.45,1.45,0,0,1-1-.43,2.42,2.42,0,0,1-1-1.66c0-.28.2-1.46,2.35-1.46v-3L14.17,19l-.2.48a2.93,2.93,0,0,1-.32-1.11,3.31,3.31,0,0,0-.48-1.32L15,18.23v-10c-1.28,0-3.59.13-4.73,1S5,13.88,5,14.32s.53.89.53,1.21-.59.43-1,1.32a2.53,2.53,0,0,0-.3,1.53L4.54,18a2,2,0,0,0,.14,1.38c.36.69.48.79.51,1.24s0,1.38,0,1.38a4.7,4.7,0,0,1,.4-1.45c.23-.29.49-.58.7-.58a13.85,13.85,0,0,1,2.58,2.66c0,.25-1.1,1.18-1.1,1.18L9,23.8l-1,.48.24.17a18.37,18.37,0,0,0-2.12.22,1.84,1.84,0,0,0-1.49,1,3.25,3.25,0,0,1,2.1-.81c1.39-.06,1.8.43,1.8.43a8,8,0,0,0-2.91.56,5.15,5.15,0,0,0-1.53,1.35A5.39,5.39,0,0,1,6,26.08a8,8,0,0,1,1.87-.33c.37,0,.34.31.34.44a5.48,5.48,0,0,1-1.68.71A1.58,1.58,0,0,0,5.55,28.1Zm5.29-14.36a1.16,1.16,0,0,0-1-.57A5.79,5.79,0,0,0,8.3,14s1.18-1.4,1.77-1.4S10.84,13.74,10.84,13.74Zm.83,1c0,1,.71,1.2.78,1.36s.17.66,0,.66a2.51,2.51,0,0,1-1.17-2,4.44,4.44,0,0,1,.31-2.23c.33-.69,1.05-2,1.05-2S12.1,12.74,12.1,13s.51.19.51.19A2.09,2.09,0,0,0,11.67,14.78Zm-1.39,5.27s1.9.28,1.9.47c0,0,0,.42-.2.42A12,12,0,0,1,10.28,20.05ZM9,17.75a1.13,1.13,0,0,0-1.13,0,5,5,0,0,0-.8.68s.5-1,1.11-1.27.66,0,.92-.43c.38-.62.53-.19,1.8,0a1.86,1.86,0,0,1,1.59,1.82c0,.52-.07.61-.07.61a1.25,1.25,0,0,0-.67-.32c-.32,0-.16.4-1.11.4S9.17,17.93,9,17.75Z" transform="translate(0)" fill="#212121"/><path d="M3.51,10.7c0,.27.87.84,1.07,1.33s-.06,1.61.15,1.61,4.5-4.28,5.59-5,1.9-.48,1.9-.65-2.15-2.9-3.37-4.34A5,5,0,0,0,6.31,1.85a5.46,5.46,0,0,0-.42-.76C5.62.67,5.09,0,5.09,0s.19.54.41,1,.3.7.3.7l-.49-.19a7,7,0,0,0-.85-.17s.35.17.6.31l.44.26A1.68,1.68,0,0,0,5,2a3.65,3.65,0,0,0-.65.28,2.37,2.37,0,0,1,.48-.1,3.13,3.13,0,0,1,.47,0,3.83,3.83,0,0,0-.88.87,8.56,8.56,0,0,0-.78,3.74c0,1.33.34,1,.34,1.54s-.24.52-.24.84.36.23.36.54S3.51,10.43,3.51,10.7Zm1-4.38s-.4-.38-.4-.59a12.59,12.59,0,0,0,.49-1.51,2.26,2.26,0,0,1,.92-1.3v.42s.35-.17.82.45.08.89.08.89,1,.11,1,.32-.49.68-.49.68,1-.09,1,.29-1.53.78-1.53.78a10.32,10.32,0,0,1,2,.25,6.78,6.78,0,0,1-1.61.4A4.47,4.47,0,0,0,8,7.7c.78.1.85.17.85.36s.33.47.33.47H7.87l.41.88L6.62,8.94,8,9.93l-1.1-.19a7.57,7.57,0,0,1,.28,1.09.42.42,0,0,1-.39.38c-.16,0-.58-1-.58-1A4,4,0,0,1,6,11.59a4.75,4.75,0,0,1-1,1A8.68,8.68,0,0,0,5,10.93a3.56,3.56,0,0,0-.33-.78l.5.09a4.27,4.27,0,0,0,.26-1A7.25,7.25,0,0,0,5.5,7.5l-.85.88a1.59,1.59,0,0,1-.37-.71A1.44,1.44,0,0,1,4.53,7a.52.52,0,0,1-.2-.36A.47.47,0,0,1,4.49,6.32Z" transform="translate(0)" fill="#212121"/><path d="M15,23.58c-.47,0-.71-.17-1.08-.17s-.68.54-.68.82.17.32.32.32.15-.15.42-.15a.48.48,0,0,1,.5.47c0,.28-.28.24-.28.36a1.43,1.43,0,0,0,.8.54Z" transform="translate(0)" fill="#212121"/><rect width="30" height="30" fill="none"/></svg>