<!-- Copyright (c) 2022 Jan Stehno -->
<svg xmlns="http://www.w3.org/2000/svg" viewBox="0 0 300 300"><title>moose</title><g id="moose"><g id="right"><path d="M170.27,186.43c2.17,0,7.73-1.5,9.83-4.62s3.15-6.33-.45-6.33-3.54-.14-6.86,2.59a8.43,8.43,0,0,0-3.43,7C169.36,186.33,169.36,186.43,170.27,186.43Z" transform="translate(0)" fill="#212121"/><path d="M248,129.72c1.84-.29,19.88-10.73,28.56-21.23s15-27,15-49-12-47.6-21.77-54.74-7.63-5.46-12,0-5.6,5.6.7,12.32,12.18,11.34,14.42,25.76,1.26,28-3.15,37.38S263.68,88,259,106.11,245,130.19,248,129.72Z" transform="translate(0)" fill="#212121"/><path d="M182.15,140.36c0,2.94,8.17,13.86,11.2,13.86s12.3-3.38,22.45-4.22,23.66-12.32,30.52-22.33a74.81,74.81,0,0,0,12-26.53c2.38-9.31,5.11-12,5.11-15.75s-.42-4.2-3.5-4.2-7.28,15-8.61,16.38-7.52,2-9.45.07-1-10.08-2.38-19.32S227.14,56.69,233,71.6s-1.89,28.77-8.75,28.77-7.49-7.28-14.56-17-32-21.7-19.88-9.52,23.89,33.67,23.89,48.41-.93,16.24-11.38,16.24S182.15,136.25,182.15,140.36Z" transform="translate(0)" fill="#212121"/><path d="M249.73,96.17c1.88-.51,1.3-9.29,4.62-14.14s11.29-2.52,13.86-5,2.94-6.3,3-19.92-1.69-20.56-6.53-28.1c-9.08-14.11-2.9-.84-4.76,1.5s-7.38-.38-10.92-2.34-5.32,1.87.84,13.16,5.08,17,3.26,18.86-4.38-2.62-13.62-6.44-2.24,2.27,3.64,11.12,4.71,13.87,3.24,18.42-4,5-4,7.49S243,98,249.73,96.17Z" transform="translate(0)" fill="#212121"/><path d="M150,135.47c1.3,0,1.82-2.17,3.64-2.17s5.29,5.95,6.58,5.95,2.8-3.18,4.48-3.18,3.22,3.67,6.34,3.67,3.5,1.47,6.72,1.47,3.46,2.21,6.61,6.9,8.4,7.77,8.4,9-6.63,10.14-7.47,13.36a20,20,0,0,0-.79,5,9.58,9.58,0,0,0-6.33-2.27c-4,0-14.32,6.76-15.72,10.33s-1,17.64.14,26.53,6.23,13.79,7.56,16.31,1,7.56-1.12,11-4.09,4.37-5,2.73a7.55,7.55,0,0,1-.6-4s-2.45,2.17-.38,6.65,4.95,5.36.57,9.89-8.5,6.95-13.63,6.95Z" transform="translate(0)" fill="#212121"/><path d="M184.58,180s1.12,3.57,1.12,10.57-6.51,22.12-10.78,25.27-4.62,5.6-5.56,5.6-3.19-2.24-4.59-10-1.54-16.17-.91-17.57,3.43-5.53,8.26-5.53S184.21,185.7,184.58,180Z" transform="translate(0)" fill="#212121"/><path d="M172.93,224.3a1,1,0,0,1,.28-1.31,22.31,22.31,0,0,0,4.58-4.5,49.77,49.77,0,0,0,3.26-5.07,1,1,0,0,1,1.66-.17l4.83,5.44a1,1,0,0,1,.26.68v9.2a1,1,0,0,0,.18.58l3.49,5.07a1,1,0,0,1,.18.58v7.49a1.09,1.09,0,0,0,.13.5l6.56,11.52a1.07,1.07,0,0,1,.06.89l-4.05,10.26a1,1,0,0,1-.76.63l-1.09.21a1,1,0,0,0-.8,1.25l1.42,5.85a1,1,0,0,1-.09.72l-8.55,16a1,1,0,0,1-1.88-.15l-1.08-3.14a1,1,0,0,0-1.69-.4l-8.23,8a1,1,0,0,1-1.46,0l-.41-.42a1,1,0,0,0-1.31-.14l-8,5.32a1,1,0,0,1-1.6-.85v-3.54a1,1,0,0,0-1.77-.7l-5.28,5.55A1,1,0,0,1,150,299v-35.6a1,1,0,0,1,.9-1c2.1-.24,7.46-1.15,11.32-4.2a25,25,0,0,0,6.84-9.07,1,1,0,0,0,0-.87l-1.95-4a1,1,0,0,1,.47-1.37c2.11-1.06,7-4.15,7-9.79C174.6,228.14,173.57,225.48,172.93,224.3Z" transform="translate(0)" fill="#212121"/></g><g id="left"><path d="M129.73,186.43c-2.17,0-7.73-1.5-9.83-4.62s-3.15-6.33.45-6.33,3.54-.14,6.86,2.59a8.43,8.43,0,0,1,3.43,7C130.64,186.33,130.64,186.43,129.73,186.43Z" transform="translate(0)" fill="#212121"/><path d="M52,129.72c-1.84-.29-19.88-10.73-28.56-21.23s-15-27-15-49,12-47.6,21.77-54.74,7.63-5.46,12,0,5.6,5.6-.7,12.32S29.32,28.41,27.08,42.83s-1.26,28,3.15,37.38S36.32,88,41,106.11,55,130.19,52,129.72Z" transform="translate(0)" fill="#212121"/><path d="M117.85,140.36c0,2.94-8.17,13.86-11.2,13.86S94.35,150.84,84.2,150s-23.66-12.32-30.52-22.33a74.81,74.81,0,0,1-12-26.53c-2.38-9.31-5.11-12-5.11-15.75s.42-4.2,3.5-4.2,7.28,15,8.61,16.38,7.52,2,9.45.07,1-10.08,2.38-19.32,12.32-21.63,6.51-6.72,1.89,28.77,8.75,28.77,7.49-7.28,14.56-17,32-21.7,19.88-9.52-23.89,33.67-23.89,48.41.93,16.24,11.38,16.24S117.85,136.25,117.85,140.36Z" transform="translate(0)" fill="#212121"/><path d="M50.27,96.17C48.39,95.66,49,86.88,45.65,82s-11.29-2.52-13.86-5-2.94-6.3-3-19.92S30.45,36.55,35.29,29c9.08-14.11,2.9-.84,4.76,1.5s7.38-.38,10.92-2.34,5.32,1.87-.84,13.16-5.08,17-3.26,18.86,4.38-2.62,13.62-6.44S62.73,56,56.85,64.87s-4.71,13.87-3.24,18.42,4,5,4,7.49S57,98,50.27,96.17Z" transform="translate(0)" fill="#212121"/><path d="M150,135.47c-1.3,0-1.82-2.17-3.64-2.17s-5.29,5.95-6.58,5.95-2.8-3.18-4.48-3.18-3.22,3.67-6.34,3.67-3.5,1.47-6.72,1.47-3.46,2.21-6.61,6.9-8.4,7.77-8.4,9,6.63,10.14,7.47,13.36a20,20,0,0,1,.79,5,9.58,9.58,0,0,1,6.33-2.27c4,0,14.32,6.76,15.72,10.33s1,17.64-.14,26.53-6.23,13.79-7.56,16.31-1,7.56,1.12,11,4.09,4.37,5,2.73a7.55,7.55,0,0,0,.6-4s2.45,2.17.38,6.65-4.95,5.36-.57,9.89,8.5,6.95,13.63,6.95Z" transform="translate(0)" fill="#212121"/><path d="M115.42,180s-1.12,3.57-1.12,10.57,6.51,22.12,10.78,25.27,4.62,5.6,5.56,5.6,3.19-2.24,4.59-10,1.54-16.17.91-17.57-3.43-5.53-8.26-5.53S115.79,185.7,115.42,180Z" transform="translate(0)" fill="#212121"/><path d="M127.07,224.3a1,1,0,0,0-.28-1.31,22.31,22.31,0,0,1-4.58-4.5,49.77,49.77,0,0,1-3.26-5.07,1,1,0,0,0-1.66-.17l-4.83,5.44a1,1,0,0,0-.26.68v9.2a1,1,0,0,1-.18.58l-3.49,5.07a1,1,0,0,0-.18.58v7.49a1.09,1.09,0,0,1-.13.5l-6.56,11.52a1.07,1.07,0,0,0-.06.89l4.05,10.26a1,1,0,0,0,.76.63l1.09.21a1,1,0,0,1,.8,1.25l-1.42,5.85a1,1,0,0,0,.09.72l8.55,16a1,1,0,0,0,1.88-.15l1.08-3.14a1,1,0,0,1,1.69-.4l8.23,8a1,1,0,0,0,1.46,0l.41-.42a1,1,0,0,1,1.31-.14l8,5.32a1,1,0,0,0,1.6-.85v-3.54a1,1,0,0,1,1.77-.7l5.28,5.55A1,1,0,0,0,150,299v-35.6a1,1,0,0,0-.9-1c-2.1-.24-7.46-1.15-11.32-4.2a25,25,0,0,1-6.84-9.07,1,1,0,0,1,0-.87l1.95-4a1,1,0,0,0-.47-1.37c-2.11-1.06-7-4.15-7-9.79C125.4,228.14,126.43,225.48,127.07,224.3Z" transform="translate(0)" fill="#212121"/></g></g><g id="frame"><rect width="300" height="300" fill="none"/></g></svg>