<svg xmlns="http://www.w3.org/2000/svg" viewBox="0 0 30 30"><path d="M17,18.64a1.43,1.43,0,0,0,1-.46c.21-.31.32-.63-.05-.63s-.35,0-.68.26a.83.83,0,0,0-.34.69C16.94,18.63,16.94,18.64,17,18.64Z" transform="translate(0 0)" fill="#212121"/><path d="M24.8,13a9.81,9.81,0,0,0,2.86-2.12A7.66,7.66,0,0,0,29.15,6c0-2.2-1.2-4.76-2.17-5.48s-.77-.54-1.2,0-.56.56.07,1.24a4,4,0,0,1,1.44,2.57A6.7,6.7,0,0,1,27,8a8.2,8.2,0,0,0-1.08,2.59C25.43,12.42,24.5,13,24.8,13Z" transform="translate(0 0)" fill="#212121"/><path d="M18.22,14c0,.29.81,1.38,1.12,1.38s1.23-.34,2.24-.42a5.21,5.21,0,0,0,3.05-2.23,7.48,7.48,0,0,0,1.2-2.66,15.2,15.2,0,0,0,.51-1.57c0-.37,0-.42-.35-.42s-.73,1.5-.86,1.64a1,1,0,0,1-.95,0c-.19-.19-.09-1-.23-1.93s-1.24-2.16-.65-.67S23.11,10,22.42,10s-.75-.73-1.46-1.7-3.19-2.17-2-1a8.33,8.33,0,0,1,2.39,4.85c0,1.47-.1,1.62-1.14,1.62S18.22,13.63,18.22,14Z" transform="translate(0 0)" fill="#212121"/><path d="M25,9.62c.19,0,.13-.93.46-1.42s1.13-.25,1.39-.5.29-.63.3-2a4.51,4.51,0,0,0-.65-2.81c-.91-1.41-.29-.08-.48.15s-.73,0-1.09-.23S24.37,3,25,4.13s.51,1.71.32,1.89-.44-.26-1.36-.65-.22.23.36,1.12a1.83,1.83,0,0,1,.33,1.84c-.15.45-.4.5-.4.75S24.3,9.8,25,9.62Z" transform="translate(0 0)" fill="#212121"/><path d="M15,13.55c.13,0,.18-.22.36-.22s.53.6.66.6.28-.32.45-.32.32.36.63.36.35.15.68.15.34.22.66.69.84.78.84.9-.67,1-.75,1.34a2.3,2.3,0,0,0-.08.5.94.94,0,0,0-.63-.23,2.78,2.78,0,0,0-1.57,1,9.35,9.35,0,0,0,0,2.66A3.59,3.59,0,0,0,17,22.64a1.3,1.3,0,0,1-.12,1.1c-.21.34-.41.43-.5.27a.77.77,0,0,1-.06-.4s-.24.22,0,.66.49.54.05,1A1.84,1.84,0,0,1,15,26Z" transform="translate(0 0)" fill="#212121"/><path d="M18.46,18a4,4,0,0,1,.11,1.06,4.72,4.72,0,0,1-1.08,2.53c-.42.31-.46.56-.55.56s-.32-.23-.46-1a5.44,5.44,0,0,1-.09-1.76,1,1,0,0,1,.82-.55C17.7,18.84,18.42,18.57,18.46,18Z" transform="translate(0 0)" fill="#212121"/><path d="M17.29,22.43a.11.11,0,0,1,0-.13,2.34,2.34,0,0,0,.46-.45,5.85,5.85,0,0,0,.33-.51.1.1,0,0,1,.16,0l.48.55a.09.09,0,0,1,0,.07v.92a.08.08,0,0,0,0,.05l.35.51a.14.14,0,0,1,0,.06v.75a.09.09,0,0,0,0,.05l.65,1.15a.1.1,0,0,1,0,.09l-.4,1a.16.16,0,0,1-.08.06l-.11,0a.1.1,0,0,0-.08.12l.14.59a.09.09,0,0,1,0,.07L18.45,29a.11.11,0,0,1-.19,0l-.11-.32a.1.1,0,0,0-.17,0l-.82.81a.11.11,0,0,1-.15,0l0-.05a.1.1,0,0,0-.13,0l-.8.53a.1.1,0,0,1-.16-.08v-.36a.11.11,0,0,0-.18-.07l-.52.56A.1.1,0,0,1,15,29.9V26.34a.1.1,0,0,1,.09-.1,2.4,2.4,0,0,0,1.13-.43,2.56,2.56,0,0,0,.69-.9.1.1,0,0,0,0-.09l-.19-.39a.1.1,0,0,1,.05-.14,1.18,1.18,0,0,0,.7-1A1.76,1.76,0,0,0,17.29,22.43Z" transform="translate(0 0)" fill="#212121"/><path d="M13,18.64a1.43,1.43,0,0,1-1-.46c-.21-.31-.32-.63,0-.63s.35,0,.68.26a.83.83,0,0,1,.34.69C13.06,18.63,13.06,18.64,13,18.64Z" transform="translate(0 0)" fill="#212121"/><path d="M5.2,13a9.81,9.81,0,0,1-2.86-2.12A7.66,7.66,0,0,1,.85,6C.85,3.75,2.05,1.19,3,.47s.77-.54,1.2,0,.56.56-.07,1.24A4,4,0,0,0,2.71,4.28,6.7,6.7,0,0,0,3,8,8.2,8.2,0,0,1,4.1,10.61C4.57,12.42,5.5,13,5.2,13Z" transform="translate(0 0)" fill="#212121"/><path d="M11.78,14c0,.29-.81,1.38-1.12,1.38S9.43,15.08,8.42,15a5.21,5.21,0,0,1-3-2.23,7.48,7.48,0,0,1-1.2-2.66,15.2,15.2,0,0,1-.51-1.57c0-.37,0-.42.35-.42s.73,1.5.86,1.64a1,1,0,0,0,1,0c.19-.19.09-1,.23-1.93s1.24-2.16.65-.67S6.89,10,7.58,10,8.33,9.31,9,8.34s3.19-2.17,2-1a8.33,8.33,0,0,0-2.39,4.85c0,1.47.1,1.62,1.14,1.62S11.78,13.63,11.78,14Z" transform="translate(0 0)" fill="#212121"/><path d="M5,9.62c-.19,0-.13-.93-.46-1.42S3.44,8,3.18,7.7s-.29-.63-.3-2A4.51,4.51,0,0,1,3.53,2.9c.91-1.41.29-.08.48.15s.73,0,1.09-.23S5.63,3,5,4.13,4.5,5.84,4.69,6s.44-.26,1.36-.65.22.23-.36,1.12a1.83,1.83,0,0,0-.33,1.84c.15.45.4.5.4.75S5.7,9.8,5,9.62Z" transform="translate(0 0)" fill="#212121"/><path d="M15,13.55c-.13,0-.18-.22-.36-.22s-.53.6-.66.6-.28-.32-.45-.32-.32.36-.63.36-.35.15-.68.15-.34.22-.66.69-.84.78-.84.9.67,1,.75,1.34a2.3,2.3,0,0,1,.08.5.94.94,0,0,1,.63-.23,2.78,2.78,0,0,1,1.57,1,9.35,9.35,0,0,1,0,2.66A3.59,3.59,0,0,1,13,22.64a1.3,1.3,0,0,0,.12,1.1c.21.34.41.43.5.27a.77.77,0,0,0,.06-.4s.24.22,0,.66-.49.54,0,1A1.84,1.84,0,0,0,15,26Z" transform="translate(0 0)" fill="#212121"/><path d="M11.54,18a4,4,0,0,0-.11,1.06,4.72,4.72,0,0,0,1.08,2.53c.42.31.46.56.55.56s.32-.23.46-1a5.44,5.44,0,0,0,.09-1.76,1,1,0,0,0-.82-.55C12.3,18.84,11.58,18.57,11.54,18Z" transform="translate(0 0)" fill="#212121"/><path d="M12.71,22.43a.11.11,0,0,0,0-.13,2.34,2.34,0,0,1-.46-.45,5.85,5.85,0,0,1-.33-.51.1.1,0,0,0-.16,0l-.48.55a.09.09,0,0,0,0,.07v.92a.08.08,0,0,1,0,.05l-.35.51a.14.14,0,0,0,0,.06v.75a.09.09,0,0,1,0,.05l-.65,1.15a.1.1,0,0,0,0,.09l.4,1a.16.16,0,0,0,.08.06l.11,0a.1.1,0,0,1,.08.12l-.14.59a.09.09,0,0,0,0,.07l.85,1.6a.11.11,0,0,0,.19,0l.11-.32a.1.1,0,0,1,.17,0l.82.81a.11.11,0,0,0,.15,0l0-.05a.1.1,0,0,1,.13,0l.8.53a.1.1,0,0,0,.16-.08v-.36a.11.11,0,0,1,.18-.07l.52.56A.1.1,0,0,0,15,29.9V26.34a.1.1,0,0,0-.09-.1,2.4,2.4,0,0,1-1.13-.43,2.56,2.56,0,0,1-.69-.9.1.1,0,0,1,0-.09l.19-.39a.1.1,0,0,0,0-.14,1.18,1.18,0,0,1-.7-1A1.76,1.76,0,0,1,12.71,22.43Z" transform="translate(0 0)" fill="#212121"/><rect width="30" height="30" fill="none"/></svg>