<svg xmlns="http://www.w3.org/2000/svg" viewBox="0 0 30 30"><path d="M23.49,5.23a7.29,7.29,0,0,1-1.82,1.58,11.53,11.53,0,0,0-3.15,3.38,4.53,4.53,0,0,0,1.63,1.26c.22,0,.76-1.5,2-3.2a8.6,8.6,0,0,0,1.65-2.79C23.81,5.22,23.62,5.23,23.49,5.23Zm-.42,1.26a21.69,21.69,0,0,1-1.48,2.15,19.7,19.7,0,0,0-1.44,2.48c-.17.3-.09-.33.13-.89a9,9,0,0,1,.56-1.16l-.69.29a23.79,23.79,0,0,0,2.17-2.08C23.07,6.4,23.17,6.26,23.07,6.49Z" transform="translate(0)" fill="#212121"/><path d="M15,27.5A2.94,2.94,0,0,0,16.69,27a5.69,5.69,0,0,0,.61-.68,4.49,4.49,0,0,0-.43,1.43A2.82,2.82,0,0,0,17.39,29a5.08,5.08,0,0,1-.85-.9,1.4,1.4,0,0,1-.27-.55,1.43,1.43,0,0,0-.07.79,4.37,4.37,0,0,0,.27.73,4.12,4.12,0,0,1-.57-.5,1.23,1.23,0,0,1-.26-.52,2.24,2.24,0,0,0-.17.71A3.3,3.3,0,0,0,15.8,30s-.8-1-.8-1.42Z" transform="translate(0)" fill="#212121"/><path d="M15,26.33A3.55,3.55,0,0,0,16.9,26c.37-.3.43,0-.25.56A2.49,2.49,0,0,1,15,27.3Z" transform="translate(0)" fill="#212121"/><path d="M19.58,13.71a.72.72,0,0,0-.32.08.28.28,0,0,1,.22.28.3.3,0,0,1-.3.29.29.29,0,0,1-.29-.28.76.76,0,0,0-.19.44.5.5,0,0,0,.55.49c.32,0,.5-.14.59-.59S19.87,13.71,19.58,13.71Z" transform="translate(0)" fill="#212121"/><path d="M17.2,9.86a1.34,1.34,0,0,1-.54-.51,3.68,3.68,0,0,0,.82.43l.44.13a16.24,16.24,0,0,0,.73-2.1l-.14,0a1.43,1.43,0,0,1-.6-.44,4.6,4.6,0,0,0,.78.3c0-.12.06-.24.09-.36A35.63,35.63,0,0,0,19.33,1c0-1.49-.35-1.31-.57.39s-1,5.31-1.86,6.72l.17.12a4,4,0,0,0,.84.38,1.39,1.39,0,0,1-.73-.11,2.48,2.48,0,0,1-.4-.21C16,9.53,15.7,9.41,15.7,9.66s1.5,1,1.76,1c.08,0,.21-.19.36-.49A4.48,4.48,0,0,1,17.2,9.86Z" transform="translate(0)" fill="#212121"/><path d="M20.15,11.87c-.16-.26-1.88-1.37-1.88-1.56s.12-.25.28-.55-.19-.42-.29-.15a5.78,5.78,0,0,1-.47,1.1c-.19.28-.36.2-1,0s-1.42-.74-1.42-1,.79-.9.79-1.07-.66-.19-1.2-.19v3c.11,0,.24.09.24.49s-.13,1.15-.24,1.15v10.4a1.09,1.09,0,0,0,.89-.36,1.17,1.17,0,0,0,.27-1s.1,0,.34.25a1.33,1.33,0,0,1,.3,1c0,.48-.23.57-.66.93a7.33,7.33,0,0,0-.8.72.12.12,0,0,0,0,.1v.45a.22.22,0,0,0,.25.22c1.6-.27,1.7-.73,2.49-1.89s.65-1.87.65-3.39a7.25,7.25,0,0,1,.91-3.47,2.39,2.39,0,0,0,.32-1.49,4.94,4.94,0,0,1-.61.6c-.19.11-.47.25-.47-.09s.15-.12.47-.22.56-.64.62-.75a.81.81,0,0,1-.74.42c-.58,0-.91-.73-.91-1s.15-.88.58-.88.48-.52.84-.52.19.13.43.13S20.31,12.14,20.15,11.87Zm-4.25,0a.62.62,0,0,1,.26-.49c.2-.18.69-.07,1.06-.26s.17.2-.12.44S15.9,12,15.9,11.85Zm1.34,6.64a28.49,28.49,0,0,0-.5,2.88,15.29,15.29,0,0,1,.33-3,8.94,8.94,0,0,1,1-2.13A11.29,11.29,0,0,0,17.24,18.49Z" transform="translate(0)" fill="#212121"/><path d="M6.19,5.46A8.6,8.6,0,0,0,7.84,8.25c1.25,1.7,1.79,3.2,2,3.2a4.53,4.53,0,0,0,1.63-1.26A11.53,11.53,0,0,0,8.33,6.81,7.29,7.29,0,0,1,6.51,5.23C6.38,5.23,6.19,5.22,6.19,5.46ZM7.68,7.28A23.79,23.79,0,0,0,9.85,9.36l-.69-.29a9,9,0,0,1,.56,1.16c.22.56.3,1.19.13.89A19.7,19.7,0,0,0,8.41,8.64,21.69,21.69,0,0,1,6.93,6.49C6.83,6.26,6.93,6.4,7.68,7.28Z" transform="translate(0)" fill="#212121"/><path d="M15,27.5A2.94,2.94,0,0,1,13.31,27a5.69,5.69,0,0,1-.61-.68,4.49,4.49,0,0,1,.43,1.43A2.82,2.82,0,0,1,12.61,29a5.08,5.08,0,0,0,.85-.9,1.4,1.4,0,0,0,.27-.55,1.43,1.43,0,0,1,.07.79,4.37,4.37,0,0,1-.27.73,4.12,4.12,0,0,0,.57-.5,1.23,1.23,0,0,0,.26-.52,2.24,2.24,0,0,1,.17.71A3.3,3.3,0,0,1,14.2,30s.8-1,.8-1.42Z" transform="translate(0)" fill="#212121"/><path d="M15,26.33A3.55,3.55,0,0,1,13.1,26c-.37-.3-.43,0,.25.56A2.49,2.49,0,0,0,15,27.3Z" transform="translate(0)" fill="#212121"/><path d="M10.42,13.71a.72.72,0,0,1,.32.08.28.28,0,0,0-.22.28.3.3,0,0,0,.3.29.29.29,0,0,0,.29-.28.76.76,0,0,1,.19.44.5.5,0,0,1-.55.49c-.32,0-.5-.14-.59-.59S10.13,13.71,10.42,13.71Z" transform="translate(0)" fill="#212121"/><path d="M12.8,9.86a1.34,1.34,0,0,0,.54-.51,3.68,3.68,0,0,1-.82.43l-.44.13a16.24,16.24,0,0,1-.73-2.1l.14,0a1.43,1.43,0,0,0,.6-.44,4.6,4.6,0,0,1-.78.3c0-.12-.06-.24-.09-.36A35.63,35.63,0,0,1,10.67,1c0-1.49.35-1.31.57.39s1,5.31,1.86,6.72l-.17.12a4,4,0,0,1-.84.38,1.39,1.39,0,0,0,.73-.11,2.48,2.48,0,0,0,.4-.21c.83,1.23,1.08,1.11,1.08,1.36s-1.5,1-1.76,1c-.08,0-.21-.19-.36-.49A4.48,4.48,0,0,0,12.8,9.86Z" transform="translate(0)" fill="#212121"/><path d="M9.87,13.23c.24,0,.07-.13.43-.13s.41.52.84.52.58.58.58.88-.33,1-.91,1a.81.81,0,0,1-.74-.42c.06.11.32.66.62.75s.47-.12.47.22-.28.2-.47.09a4.94,4.94,0,0,1-.61-.6,2.39,2.39,0,0,0,.32,1.49,7.25,7.25,0,0,1,.91,3.47c0,1.52-.17,2.18.65,3.39s.89,1.62,2.49,1.89a.22.22,0,0,0,.25-.22v-.45a.12.12,0,0,0,0-.1,7.33,7.33,0,0,0-.8-.72c-.43-.36-.66-.45-.66-.93a1.33,1.33,0,0,1,.3-1c.24-.23.34-.25.34-.25a1.17,1.17,0,0,0,.27,1,1.09,1.09,0,0,0,.89.36V13.05c-.11,0-.24-.74-.24-1.15s.13-.49.24-.49v-3c-.54,0-1.2,0-1.2.19s.79.78.79,1.07-.82.83-1.42,1-.77.3-1,0a5.78,5.78,0,0,1-.47-1.1c-.1-.27-.45-.16-.29.15s.28.36.28.55S10,11.61,9.85,11.87,9.64,13.23,9.87,13.23Zm3-1.69c-.29-.24-.49-.63-.12-.44s.87.08,1.06.26a.62.62,0,0,1,.26.49C14.1,12,13.19,11.78,12.9,11.54ZM12,16.21a8.94,8.94,0,0,1,1,2.13,15.29,15.29,0,0,1,.33,3,28.49,28.49,0,0,0-.5-2.88A11.29,11.29,0,0,0,12,16.21Z" transform="translate(0)" fill="#212121"/><rect width="30" height="30" fill="none"/></svg>