<!-- Copyright (c) 2022 - 2023 Jan Stehno -->
<svg xmlns="http://www.w3.org/2000/svg" viewBox="0 0 300 300"><title>mountainhare</title><g id="mountainhare"><g id="right"><path d="M150,135.83c11.71,0,20.49,2,28.27,10.12s10.32,12.47,12.39,15.88,9.92,9.21,9.92,14.61-5.79,9.69-11,13.5-7.22,10.25-7.22,16.52,12.47,30.81,12.47,43.28-6.91,21-12.55,25.88-13.94,8.86-21.8,8.86-7.54-1.51-7.54-3.74,1.07-1.54,5-3.13,10.36-6,13-10.84,2.62-9.65,1.51-11.91.8,1.7-3.45,7.46S154.29,273,150,273Z" transform="translate(0)" fill="#212121"/><path d="M161.43,132.93c-1.64-1.65,1.67-11,3.74-28s7.3-45.5,8.65-56.62,2.94-21.12,3.89-29.78S181.37,0,185.65,0s3.42,3.57,6,12.71,6.19,14.29,8.65,30.57S206,69.16,206,86.47s-10.48,39.63-12.46,50.27.69,17.69-.44,18.82-6.63-7.82-15.49-15.21S163,134.54,161.43,132.93Z" transform="translate(0)" fill="#212121"/><path d="M196.69,187.92c1.51,0,2.66,4.05,2.66,10.44s-2.7,10.76-7.82,10.76-5.6-4-5.6-6.51S194.39,187.92,196.69,187.92Z" transform="translate(0)" fill="#212121"/><path d="M150,286.42c8.1,0,17.95,2.38,17.95,4.77S156.35,300,150,300Z" transform="translate(0)" fill="#212121"/><path d="M171,286.88c0,1.86,11.58,1.33,19.52-4.07s9.76-4.69,12.86-9,5.68-10,8.18-11.6,3.26-15.28,4.17-18.86,1.35-2.54.67-6-.39-7.9-2.46-11.83-1.9-4.37-2.34-7.94-2.82-4.81-4.72-9.18-3.3-7.7-3.94-3.77-4.32,10.21-9.33,10.21-8.41-6.28-6.31.95,6.2,14.85,8.62,23.74,2.42,16.28.51,22-6.39,9.57-12.23,15.4S171,285.15,171,286.88Z" transform="translate(0)" fill="#212121"/></g><g id="left"><path d="M150,135.83c-11.71,0-20.49,2-28.27,10.12s-10.32,12.47-12.39,15.88-9.92,9.21-9.92,14.61,5.79,9.69,11,13.5,7.22,10.25,7.22,16.52-12.47,30.81-12.47,43.28,6.91,21,12.55,25.88,13.94,8.86,21.8,8.86,7.54-1.51,7.54-3.74-1.07-1.54-5-3.13-10.36-6-13-10.84-2.62-9.65-1.51-11.91-.8,1.7,3.45,7.46S145.71,273,150,273Z" transform="translate(0)" fill="#212121"/><path d="M138.57,132.93c1.64-1.65-1.67-11-3.74-28s-7.3-45.5-8.65-56.62-2.94-21.12-3.89-29.78S118.63,0,114.35,0s-3.42,3.57-6,12.71S102.12,27,99.66,43.28,94,69.16,94,86.47s10.48,39.63,12.46,50.27-.69,17.69.44,18.82,6.63-7.82,15.49-15.21S137,134.54,138.57,132.93Z" transform="translate(0)" fill="#212121"/><path d="M103.31,187.92c-1.51,0-2.66,4.05-2.66,10.44s2.7,10.76,7.82,10.76,5.6-4,5.6-6.51S105.61,187.92,103.31,187.92Z" transform="translate(0)" fill="#212121"/><path d="M150,286.42c-8.1,0-17.95,2.38-17.95,4.77S143.65,300,150,300Z" transform="translate(0)" fill="#212121"/><path d="M129,286.88c0,1.86-11.58,1.33-19.52-4.07s-9.76-4.69-12.86-9-5.68-10-8.18-11.6-3.26-15.28-4.17-18.86-1.35-2.54-.67-6,.39-7.9,2.46-11.83,1.9-4.37,2.34-7.94,2.82-4.81,4.72-9.18,3.3-7.7,3.94-3.77,4.32,10.21,9.33,10.21,8.41-6.28,6.31.95-6.2,14.85-8.62,23.74-2.42,16.28-.51,22,6.39,9.57,12.23,15.4S129,285.15,129,286.88Z" transform="translate(0)" fill="#212121"/></g></g><g id="frame"><rect width="300" height="300" fill="none"/></g></svg>