<svg xmlns="http://www.w3.org/2000/svg" viewBox="0 0 30 30"><path d="M15,13.58a3.54,3.54,0,0,1,2.83,1,7.63,7.63,0,0,1,1.24,1.58c.2.34,1,.92,1,1.46s-.58,1-1.11,1.35a2,2,0,0,0-.72,1.66c0,.62,1.25,3.08,1.25,4.32a3.38,3.38,0,0,1-1.26,2.59,3.52,3.52,0,0,1-2.18.89c-.78,0-.75-.15-.75-.38s.11-.15.5-.31a2.83,2.83,0,0,0,1.3-1.08,1.45,1.45,0,0,0,.15-1.19c-.11-.23.08.17-.34.74A3.2,3.2,0,0,1,15,27.3Z" transform="translate(0)" fill="#212121"/><path d="M16.14,13.29c-.16-.16.17-1.1.38-2.8s.73-4.55.86-5.66.3-2.11.39-3S18.14,0,18.57,0s.34.36.6,1.27A15.36,15.36,0,0,1,20,4.33a24.3,24.3,0,0,1,.57,4.32c0,1.73-1.05,4-1.25,5a14.63,14.63,0,0,0,0,1.89c-.12.11-.67-.79-1.55-1.52S16.3,13.45,16.14,13.29Z" transform="translate(0)" fill="#212121"/><path d="M19.67,18.79c.15,0,.27.41.27,1.05s-.27,1.07-.79,1.07-.56-.4-.56-.65S19.44,18.79,19.67,18.79Z" transform="translate(0)" fill="#212121"/><path d="M15,28.64c.81,0,1.79.24,1.79.48S15.64,30,15,30Z" transform="translate(0)" fill="#212121"/><path d="M17.1,28.69c0,.18,1.16.13,1.95-.41s1-.47,1.29-.9a6.24,6.24,0,0,1,.81-1.16c.25-.16.33-1.53.42-1.89s.14-.25.07-.6a3.85,3.85,0,0,0-.25-1.18,1.6,1.6,0,0,1-.23-.79c-.05-.36-.28-.48-.47-.92s-.33-.77-.4-.38-.43,1-.93,1-.84-.62-.63.1.62,1.48.86,2.37a3.85,3.85,0,0,1,.05,2.2,4.31,4.31,0,0,1-1.22,1.54C17.83,28.27,17.1,28.52,17.1,28.69Z" transform="translate(0)" fill="#212121"/><path d="M15,13.58a3.54,3.54,0,0,0-2.83,1,7.63,7.63,0,0,0-1.24,1.58c-.2.34-1,.92-1,1.46s.58,1,1.11,1.35a2,2,0,0,1,.72,1.66c0,.62-1.25,3.08-1.25,4.32a3.38,3.38,0,0,0,1.26,2.59,3.52,3.52,0,0,0,2.18.89c.78,0,.75-.15.75-.38s-.11-.15-.5-.31a2.83,2.83,0,0,1-1.3-1.08,1.45,1.45,0,0,1-.15-1.19c.11-.23-.08.17.34.74A3.2,3.2,0,0,0,15,27.3Z" transform="translate(0)" fill="#212121"/><path d="M13.86,13.29c.16-.16-.17-1.1-.38-2.8s-.73-4.55-.86-5.66-.3-2.11-.39-3S11.86,0,11.43,0s-.34.36-.6,1.27A15.36,15.36,0,0,0,10,4.33,24.3,24.3,0,0,0,9.4,8.65c0,1.73,1,4,1.25,5a14.63,14.63,0,0,1,0,1.89c.12.11.67-.79,1.55-1.52S13.7,13.45,13.86,13.29Z" transform="translate(0)" fill="#212121"/><path d="M10.33,18.79c-.15,0-.27.41-.27,1.05s.27,1.07.79,1.07.56-.4.56-.65S10.56,18.79,10.33,18.79Z" transform="translate(0)" fill="#212121"/><path d="M15,28.64c-.81,0-1.79.24-1.79.48S14.36,30,15,30Z" transform="translate(0)" fill="#212121"/><path d="M12.9,28.69c0,.18-1.16.13-2-.41s-1-.47-1.29-.9a6.24,6.24,0,0,0-.81-1.16c-.25-.16-.33-1.53-.42-1.89s-.14-.25-.07-.6a3.85,3.85,0,0,1,.25-1.18,1.6,1.6,0,0,0,.23-.79c.05-.36.28-.48.47-.92s.33-.77.4-.38.43,1,.93,1,.84-.62.63.1-.62,1.48-.86,2.37a3.85,3.85,0,0,0-.05,2.2,4.31,4.31,0,0,0,1.22,1.54C12.17,28.27,12.9,28.52,12.9,28.69Z" transform="translate(0)" fill="#212121"/><rect width="30" height="30" fill="none"/></svg>