<svg xmlns="http://www.w3.org/2000/svg" viewBox="0 0 30 30"><path d="M15,26.9a4.26,4.26,0,0,1,1.71.62,4.36,4.36,0,0,0,1.18.54,2.08,2.08,0,0,0,1-.45c.18-.22.1-.3.21-.38s.57-.09.47,0-1.48,2.05-2.31,2.35a4.56,4.56,0,0,1-1.5.4c-.3,0-.52-.27-.79-.27Z" transform="translate(0)" fill="#212121"/><path d="M15,22.51a2.69,2.69,0,0,0,1-.29,1.52,1.52,0,0,1,.87-.27,1.41,1.41,0,0,1,1.14.47,3.68,3.68,0,0,0-.67-.07,1.57,1.57,0,0,0-1.19,1.25c0,.63-.52.9-1.15.9Z" transform="translate(0)" fill="#212121"/><path d="M26.63,0c-1.32,0-1.35.33-2.1.49s-.59.73-1.63,1.29A8.17,8.17,0,0,0,21,3.5c-.35.26-.46.27-.28,1S21,5.8,21.57,6s1.68,2.23,1.68,2.23a12.9,12.9,0,0,0-1-1.09,2.3,2.3,0,0,0-.56-.37,1.23,1.23,0,0,1,.16.42c0,.17-.11.45-.41-.12a9,9,0,0,0-1.76-2c-.74-.65-.92-.86-1.38-.86a17.79,17.79,0,0,0-1.87.31c-.41.07-.53,0-.49.62s-.61,2-.91,2V21.92a8.23,8.23,0,0,1,1.72-.27,1.88,1.88,0,0,1,1.4.54,1.78,1.78,0,0,1-.26-.66A1.06,1.06,0,0,1,18,21a1.64,1.64,0,0,0,.31.91c.31.45.43.62-.05,1.05a1.36,1.36,0,0,1-1.1.48c-.46,0-.7.1-.66.5s-.23.9-1,.92a3.18,3.18,0,0,1-.16.63,2.4,2.4,0,0,0-.2.77c0,.16.58,0,1.36.31a3.69,3.69,0,0,0,2.26.34,6.2,6.2,0,0,0,1.78-.46,1.11,1.11,0,0,1-.71-.09,3,3,0,0,1-.65-.74,2.81,2.81,0,0,0,1.31.55c.58,0,1.06-.89,1.06-.89a1.18,1.18,0,0,1-.76.05,1.56,1.56,0,0,1-.62-.36s1.14.13,1.4-.06.07-1.09-.39-1.73A13.5,13.5,0,0,0,20,21.83a3.81,3.81,0,0,1,.74.36,2.5,2.5,0,0,1,.45.5,2.65,2.65,0,0,1,.84-1,9.32,9.32,0,0,0,2.06-1.86,11.55,11.55,0,0,0,.58-2.46,4.37,4.37,0,0,1,0,2.34c-.36,1-.79.7-1.81,1.74S21.79,23,21.84,23.21s.27.46.29.7a2.07,2.07,0,0,1,0,.43,1.48,1.48,0,0,1,.4-.56A8.39,8.39,0,0,0,23.88,23c.34-.36,1.16-.45,1.88-1.22A4.39,4.39,0,0,0,27,18.71c0-1.32.26-2,.26-4.07a4,4,0,0,0-1.12-3.25,2.51,2.51,0,0,1-.79-1.58c0-.34.22-.42.22-.42A16.84,16.84,0,0,1,24.24,7.7a2.8,2.8,0,0,1-.35-.78,3.87,3.87,0,0,0,.49.55,2.69,2.69,0,0,0,.41.3A2.35,2.35,0,0,1,24.51,7a3.17,3.17,0,0,1,.08-.88.93.93,0,0,0,.26.43,1,1,0,0,0,.46.26,2.63,2.63,0,0,1-.3-1c0-.43.08-1.16.75-1.28s.83-.37.83-.37a.89.89,0,0,0-.37,0,.85.85,0,0,0-.28.15,2.41,2.41,0,0,1,.6-.54c.37-.23.38-.34.65-.51a1.23,1.23,0,0,0,.38-.39.82.82,0,0,1-.7,0c-.29-.17-.2-.67-.2-.67a.94.94,0,0,0,.29.15.62.62,0,0,0,.31,0,1.6,1.6,0,0,1-.43-.31.65.65,0,0,1-.17-.36A1.48,1.48,0,0,0,27,1.56c.18-.12.15-.24.33-.27s.6.38.85,1.17a4.27,4.27,0,0,1-.65,4A6.51,6.51,0,0,1,26,8a8.22,8.22,0,0,1,.72,1.68c.17.68.53,1.86.53,1.86a8.94,8.94,0,0,0,.69-1.77,2.39,2.39,0,0,0,0-2,1.18,1.18,0,0,1,.28-1.35A1.75,1.75,0,0,0,28.63,5a18.17,18.17,0,0,0,.23-2.35C28.85,1.58,28,0,26.63,0ZM17.12,15.3a2.24,2.24,0,0,1-1-2,3.61,3.61,0,0,1,1.45-2.49s-.32.42-.59.85a2.78,2.78,0,0,0-.52,1.67A5.12,5.12,0,0,0,17.12,15.3Zm5.22-1.21c-.49.23-.36.27-.43.59a2.41,2.41,0,0,1-.72,1.17,2.64,2.64,0,0,1-1.79.23c-.64-.06-.52.06-.61.15s-.31.05-.39.18a1.63,1.63,0,0,0,.16,1.15A9.56,9.56,0,0,1,19,19a4.59,4.59,0,0,0-1-1.35c-.37-.33-.37-.42-.37-1s.15-.81.81-1.44A3.5,3.5,0,0,1,20.72,14c1.21-.17,1.61-.46,1.61-1.56a3.44,3.44,0,0,0-.42-1.75,4,4,0,0,1,.65.71A3,3,0,0,1,23.22,13,1.34,1.34,0,0,1,22.34,14.09Z" transform="translate(0)" fill="#212121"/><path d="M19.52,15.56l.35-.33s.5.28.79,0a.59.59,0,0,0,.23-.54l.49-.15a1.21,1.21,0,0,1-.47,1.16C20.28,16.16,19.52,15.56,19.52,15.56Z" transform="translate(0)" fill="#212121"/><path d="M15,26.9a4.26,4.26,0,0,0-1.71.62,4.36,4.36,0,0,1-1.18.54,2.08,2.08,0,0,1-1-.45c-.18-.22-.1-.3-.21-.38s-.57-.09-.47,0,1.48,2.05,2.31,2.35a4.56,4.56,0,0,0,1.5.4c.3,0,.52-.27.79-.27Z" transform="translate(0)" fill="#212121"/><path d="M15,22.51a2.69,2.69,0,0,1-1-.29,1.52,1.52,0,0,0-.87-.27,1.41,1.41,0,0,0-1.14.47,3.68,3.68,0,0,1,.67-.07,1.57,1.57,0,0,1,1.19,1.25c0,.63.52.9,1.15.9Z" transform="translate(0)" fill="#212121"/><path d="M1.14,2.69A18.17,18.17,0,0,0,1.37,5a1.75,1.75,0,0,0,.48,1.34,1.18,1.18,0,0,1,.28,1.35,2.39,2.39,0,0,0,0,2,8.94,8.94,0,0,0,.69,1.77s.36-1.18.53-1.86A8.22,8.22,0,0,1,4,8a6.51,6.51,0,0,1-1.6-1.54,4.27,4.27,0,0,1-.65-4c.25-.79.67-1.2.85-1.17s.15.15.33.27a1.48,1.48,0,0,0,.36.15.65.65,0,0,1-.17.36,1.6,1.6,0,0,1-.43.31.62.62,0,0,0,.31,0,.94.94,0,0,0,.29-.15s.09.5-.2.67a.82.82,0,0,1-.7,0,1.23,1.23,0,0,0,.38.39c.27.17.28.28.65.51a2.41,2.41,0,0,1,.6.54.85.85,0,0,0-.28-.15.89.89,0,0,0-.37,0s.16.25.83.37S5,5.37,5,5.8a2.63,2.63,0,0,1-.3,1,1,1,0,0,0,.46-.26.93.93,0,0,0,.26-.43A3.17,3.17,0,0,1,5.49,7a2.35,2.35,0,0,1-.28.79,2.69,2.69,0,0,0,.41-.3,3.87,3.87,0,0,0,.49-.55,2.8,2.8,0,0,1-.35.78A16.84,16.84,0,0,1,4.41,9.39s.18.08.22.42a2.51,2.51,0,0,1-.79,1.58,4,4,0,0,0-1.12,3.25c0,2,.25,2.75.26,4.07a4.39,4.39,0,0,0,1.26,3.06c.72.77,1.54.86,1.88,1.22a8.39,8.39,0,0,0,1.34.79,1.48,1.48,0,0,1,.4.56,2.07,2.07,0,0,1,0-.43c0-.24.24-.46.29-.7s-.07-.74-1.08-1.78-1.45-.71-1.81-1.74a4.37,4.37,0,0,1,0-2.34,11.55,11.55,0,0,0,.58,2.46,9.32,9.32,0,0,0,2.06,1.86,2.65,2.65,0,0,1,.84,1,2.5,2.5,0,0,1,.45-.5,3.81,3.81,0,0,1,.74-.36,13.5,13.5,0,0,0-1.15,1.34c-.46.64-.64,1.54-.39,1.73s1.4.06,1.4.06a1.56,1.56,0,0,1-.62.36,1.18,1.18,0,0,1-.76-.05s.48.9,1.06.89a2.81,2.81,0,0,0,1.31-.55,3,3,0,0,1-.65.74,1.11,1.11,0,0,1-.71.09,6.2,6.2,0,0,0,1.78.46,3.69,3.69,0,0,0,2.26-.34c.78-.31,1.36-.15,1.36-.31a2.4,2.4,0,0,0-.2-.77,3.18,3.18,0,0,1-.16-.63c-.73,0-1-.51-1-.92s-.2-.49-.66-.5a1.36,1.36,0,0,1-1.1-.48c-.48-.43-.36-.6,0-1.05A1.64,1.64,0,0,0,12,21a1.06,1.06,0,0,1,.11.54,1.78,1.78,0,0,1-.26.66,1.88,1.88,0,0,1,1.4-.54,8.23,8.23,0,0,1,1.72.27V7.17c-.3,0-.95-1.39-.91-2s-.08-.55-.49-.62a17.79,17.79,0,0,0-1.87-.31c-.46,0-.64.21-1.38.86a9,9,0,0,0-1.76,2c-.3.57-.42.29-.41.12a1.23,1.23,0,0,1,.16-.42,2.3,2.3,0,0,0-.56.37,12.9,12.9,0,0,0-1,1.09S7.89,6.29,8.43,6s.64-.82.82-1.54.07-.74-.28-1A8.17,8.17,0,0,0,7.1,1.78C6.06,1.22,6.21.64,5.47.49S4.69,0,3.37,0,1.15,1.58,1.14,2.69ZM13.56,13.35A2.78,2.78,0,0,0,13,11.68c-.27-.43-.59-.85-.59-.85a3.61,3.61,0,0,1,1.45,2.49,2.24,2.24,0,0,1-1,2A5.12,5.12,0,0,0,13.56,13.35ZM6.78,13a3,3,0,0,1,.66-1.63,4,4,0,0,1,.65-.71,3.44,3.44,0,0,0-.42,1.75c0,1.1.4,1.39,1.61,1.56a3.5,3.5,0,0,1,2.29,1.19c.66.63.81.87.81,1.44s0,.66-.37,1A4.59,4.59,0,0,0,11,19a9.56,9.56,0,0,1,.42-1.41,1.63,1.63,0,0,0,.16-1.15c-.08-.13-.3-.09-.39-.18s0-.21-.61-.15a2.64,2.64,0,0,1-1.79-.23,2.41,2.41,0,0,1-.72-1.17c-.07-.32.06-.36-.43-.59A1.34,1.34,0,0,1,6.78,13Z" transform="translate(0)" fill="#212121"/><path d="M10.48,15.56l-.35-.33s-.5.28-.79,0a.59.59,0,0,1-.23-.54l-.49-.15a1.21,1.21,0,0,0,.47,1.16C9.72,16.16,10.48,15.56,10.48,15.56Z" transform="translate(0)" fill="#212121"/><rect width="30" height="30" fill="none"/></svg>