<!-- Copyright (c) 2023 Jan Stehno -->
<svg xmlns="http://www.w3.org/2000/svg" viewBox="0 0 300 300">
    <title>mountainlion</title>
    <g id="mountainlion">
        <g id="border">
            <g id="border_right" data-name="border right">
                <path
                    d="M231.28,79.34l-11.32-9a12.27,12.27,0,0,0-5.05,7.24l10.83,8.58C226.74,82.33,230.63,81.3,231.28,79.34Z"
                    transform="translate(0)" fill="#212121" />
                <path
                    d="M238,84.68c-1.7,3-3.93,4.78-5.3,7.06L260,113.33v73.34L150,273.75V285l120-95V110Z"
                    transform="translate(0)" fill="#212121" />
                <path d="M191.66,59.23a82.19,82.19,0,0,1,6.17-6.37L150,15V26.25Z"
                    transform="translate(0)" fill="#212121" />
            </g>
            <g id="border_left" data-name="border left">
                <path
                    d="M68.72,79.34l11.32-9a12.27,12.27,0,0,1,5,7.24L74.26,86.21C73.26,82.33,69.37,81.3,68.72,79.34Z"
                    transform="translate(0)" fill="#212121" />
                <path
                    d="M62,84.68c1.7,3,3.93,4.78,5.3,7.06L40,113.33v73.34l110,87.08V285L30,190V110Z"
                    transform="translate(0)" fill="#212121" />
                <path d="M108.34,59.23a82.19,82.19,0,0,0-6.17-6.37L150,15V26.25Z"
                    transform="translate(0)" fill="#212121" />
            </g>
        </g>
        <g id="head">
            <g id="head_right" data-name="head right">
                <path
                    d="M153.35,189.8c.87-1.37,13.26-4.49,12.77-2.47s-6.8,5.09-8.34,7.92-3,9.2-4.62,7.94S152.34,191.37,153.35,189.8Z"
                    transform="translate(0)" fill="#212121" />
                <path
                    d="M150,218.5c2.75,0,5.93,5.56,9.19,7.06a18,18,0,0,0,10.37.75,43,43,0,0,0,6.07-3.68s-5.25,11.12-10.94,12.62A53.53,53.53,0,0,1,150,237Z"
                    transform="translate(0)" fill="#212121" />
                <path
                    d="M227.17,115a21.37,21.37,0,0,0-1.09-11.92A34.37,34.37,0,0,0,219,92.83s5.75,2.42,7.08,0-.33-4.91,1.09-7.58,5.41-4,5.16-6.5-6.66-8.33-6.66-8.33,9.89-.26,14.39.89c.85.22-.56,9.11-3.14,13.27s-6.09,6-6.17,10.59a9.22,9.22,0,0,0,2.83,7s-2,4.16-1.91,7.25S227.17,115,227.17,115Z"
                    transform="translate(0)" fill="#212121" />
                <path
                    d="M185.66,146.83c3-.65,5.1-1.52,6-4.72.46-1.71-5.89-2-6.94-1.27s-2.8,2.08-3.16,3.89S182.69,147.48,185.66,146.83Z"
                    transform="translate(0)" fill="#212121" />
                <path
                    d="M238.63,53.75c-1.36-5.7-8.75-9.5-14.88-9.5s-16.37.38-27.12,11.13q-2.56,2.55-4.55,4.9c-3.53,4.19-8.12,9.35-8.7,11.55-.52,2,2.21,7,4.54,10.5a38.61,38.61,0,0,0,12.49,12.09,21.23,21.23,0,0,1-10-3C185,88.25,173,70.81,163.13,72.56s-7.75,5-12.13,5V182c3.58,0,18,.92,19.83,2.67s1.75,6.58-.41,9.08-7.67,2.42-8.5,3.17-.5,1.91-1,3.66-5.79,5.21-9.92,9.34v4.25c4.5,0,9.17,3,18.67,3s20.83-12,19.83-19-7.5-11.5-7.5-11.5a35.81,35.81,0,0,0,8.33-1c3.34-1,6.34-4.34,15-11.67s6.84-16,6.84-16,2.33,7.17,1.33,12.17S201,184,198.17,187.67,196,201.33,196,201.33s1.5-4.66,3.67-7.16,13.83-6.34,21.5-14.67,7-45.83,5.5-50.5-4-6.67-7.84-12.67S217.25,102,217.25,102a14.49,14.49,0,0,1-6.12-4.62c-2.75-3.5-3.75-13-2-14.38S213,85.75,213,85.75s-.72-10.2,4.88-15A18.82,18.82,0,0,1,229.25,66a24.41,24.41,0,0,1-4.62-4.37c-1.38-2-1.13-5.5.62-9s4.75,0,7.5,2.5c2,1.81,1.76,7.63,2.67,10.08.34.93,4.33.87,4.45.12C240.49,61.5,240,59.33,238.63,53.75Zm-76.71,90.58c-1.17,1.75-6.5-5.83-6.5-14.91s7.24-15.88,8-13.92c.83,2.17-3.5,9.5-3.5,14.54S163.08,142.58,161.92,144.33Zm38.25-15c-3,7.62-6.25,8.5-6.75,12.09s0,5.58-4.67,7.16-11.58-2.41-14.58.09-3.75,10.5,1.25,14.66c0,0-8.59-1.25-10.59-7.5s-1.41-10.5,4.75-16.25,11.34-.83,18.75-6,8.5-18.42,8.5-18.42S201.5,125.92,200.17,129.33Z"
                    transform="translate(0)" fill="#212121" />
            </g>
            <g id="head_left" data-name="head left">
                <path
                    d="M146.65,189.8c-.87-1.37-13.26-4.49-12.77-2.47s6.8,5.09,8.34,7.92,3,9.2,4.62,7.94S147.66,191.37,146.65,189.8Z"
                    transform="translate(0)" fill="#212121" />
                <path
                    d="M150,218.5c-2.75,0-5.93,5.56-9.19,7.06a18,18,0,0,1-10.37.75,43,43,0,0,1-6.07-3.68s5.25,11.12,10.94,12.62A53.53,53.53,0,0,0,150,237Z"
                    transform="translate(0)" fill="#212121" />
                <path
                    d="M72.83,115a21.37,21.37,0,0,1,1.09-11.92A34.37,34.37,0,0,1,81,92.83s-5.75,2.42-7.08,0,.33-4.91-1.09-7.58-5.41-4-5.16-6.5,6.66-8.33,6.66-8.33-9.89-.26-14.39.89c-.85.22.56,9.11,3.14,13.27s6.09,6,6.17,10.59a9.22,9.22,0,0,1-2.83,7s2,4.16,1.91,7.25S72.83,115,72.83,115Z"
                    transform="translate(0)" fill="#212121" />
                <path
                    d="M114.34,146.83c-3-.65-5.1-1.52-6-4.72-.46-1.71,5.89-2,6.94-1.27s2.8,2.08,3.16,3.89S117.31,147.48,114.34,146.83Z"
                    transform="translate(0)" fill="#212121" />
                <path
                    d="M60.13,65.33c.12.75,4.11.81,4.45-.12.91-2.45.67-8.27,2.67-10.09,2.75-2.5,5.75-6,7.5-2.5s2,7,.62,9A24.59,24.59,0,0,1,70.75,66a18.82,18.82,0,0,1,11.37,4.75c5.6,4.8,4.88,15,4.88,15s2.12-4.13,3.87-2.75.75,10.87-2,14.37A14.57,14.57,0,0,1,82.75,102s2.25,8.33-1.58,14.33-6.34,8-7.84,12.67-2.16,42.17,5.5,50.5,19.34,12.17,21.5,14.67,3.67,7.16,3.67,7.16.67-10-2.17-13.66-14.33-12.5-15.33-17.5S87.83,158,87.83,158s-1.83,8.67,6.84,16,11.66,10.67,15,11.67a35.81,35.81,0,0,0,8.33,1s-6.5,4.5-7.5,11.5,10.33,19,19.83,19,14.17-3,18.67-3v-4.25c-4.13-4.13-9.42-7.59-9.92-9.34s-.16-2.91-1-3.66-6.33-.67-8.5-3.17-2.25-7.33-.41-9.08S145.42,182,149,182V77.56c-4.38,0-2.25-3.25-12.13-5S115,88.25,109.62,91.38a21.23,21.23,0,0,1-10,3,38.61,38.61,0,0,0,12.49-12.09c2.33-3.51,5.06-8.54,4.54-10.5-.58-2.2-5.17-7.36-8.7-11.55-1.32-1.57-2.84-3.2-4.55-4.91-10.75-10.75-21-11.12-27.12-11.12s-13.52,3.8-14.88,9.5S59.51,61.5,60.13,65.33Zm80,64.71c0-5-4.33-12.37-3.5-14.54.76-2,8,4.83,8,13.92s-5.33,16.66-6.5,14.91S140.08,135.08,140.08,130Zm-36.91-14.88s1.08,13.26,8.5,18.42,12.58.25,18.75,6,6.75,10,4.75,16.25-10.59,7.5-10.59,7.5c5-4.16,4.25-12.16,1.25-14.66s-9.91,1.5-14.58-.09-4.17-3.58-4.67-7.16-3.78-4.47-6.75-12.09C98.5,125.92,103.17,115.16,103.17,115.16Z"
                    transform="translate(0)" fill="#212121" />
            </g>
        </g>
    </g>
    <g id="frame">
        <rect width="300" height="300" fill="none" />
    </g>
</svg>