<!-- Copyright (c) 2023 Jan Stehno -->
<svg xmlns="http://www.w3.org/2000/svg" viewBox="0 0 300 300">
    <title>mountaingoat</title>
    <g id="mountaingoat">
        <g id="right">
            <path
                d="M234.88,52.28c-1.28,0-2.38,5.7-18.19,15.8S185.17,100.26,185.17,102c0,2.2,14.16,12.5,16.37,12.5s7.53-15,20-31.94S238.1,57,238.1,54.58,236.17,52.28,234.88,52.28Zm-4.13,12.64c-1,2.27-7.37,11.29-14.81,21.49S202.18,110,201.49,111.17c-1.71,3-.85-3.26,1.29-8.84a100.19,100.19,0,0,1,5.58-11.65l-6.87,3s14.24-12.06,21.75-20.88S231.71,62.64,230.75,64.92Z"
                transform="translate(0)" fill="#212121" />
            <path
                d="M150,275c4.89,0,13.41-2,16.95-5.44a57.25,57.25,0,0,0,6.06-6.89s-4.27,8.95-4.27,14.33,5.19,12.58,5.19,12.58-5.79-4.73-8.5-8.95-2.71-5.56-2.71-5.56S161,279.28,162,283a45.3,45.3,0,0,0,2.77,7.35,44.52,44.52,0,0,1-5.78-5c-1.73-1.73-2.6-5.26-2.6-5.26a22.8,22.8,0,0,0-1.68,7.09c0,6.35,3.31,12.82,3.31,12.82s-8-9.74-8-14.19Z"
                transform="translate(0)" fill="#212121" />
            <path d="M150,263.31c7.37,0,15.3-.58,19-3.55s4.34-.38-2.44,5.62S154.31,273,150,273Z"
                transform="translate(0)" fill="#212121" />
            <path
                d="M195.78,137.12a7.51,7.51,0,0,0-3.16.74,2.93,2.93,0,1,1-3.73,3,7.54,7.54,0,0,0-1.89,4.36c0,3.07,2.31,4.91,5.53,4.91s5-1.39,5.91-5.91S198.75,137.12,195.78,137.12Z"
                transform="translate(0)" fill="#212121" />
            <path
                d="M172,98.63a13.73,13.73,0,0,1-5.33-5.14,39.45,39.45,0,0,0,8.13,4.31,44.49,44.49,0,0,0,4.49,1.27,152,152,0,0,0,7.2-21c-.44-.14-.88-.3-1.33-.47a13.68,13.68,0,0,1-6-4.37,41.73,41.73,0,0,0,7.8,3c.31-1.22.61-2.44.89-3.66,3.65-16,5.53-47.56,5.44-62.44S189.78-3,187.57,14c-2.16,16.67-10,53.14-18.61,67.18.53.38,1.11.8,1.78,1.24a39.33,39.33,0,0,0,8.4,3.78,13.74,13.74,0,0,1-7.33-1.06,36.82,36.82,0,0,1-4.05-2.1c-8.26,12.27-10.8,11-10.8,13.59s15.09,9.58,17.64,9.58c.82,0,2.11-1.85,3.61-4.88A40.42,40.42,0,0,1,172,98.63Z"
                transform="translate(0)" fill="#212121" />
            <path
                d="M201.49,118.75c-1.56-2.62-18.79-13.74-18.79-15.62s1.2-2.52,2.81-5.56-1.93-4.13-2.94-1.47-2.76,8.27-4.69,11-3.54,1.93-9.55-.19-14.2-7.47-14.2-10.4,7.84-9,7.84-10.77-6.55-1.91-12-1.91v30.21c1.1,0,2.38,1,2.38,5s-1.28,11.42-2.38,11.42V234.55c2.8,0,5.14-.14,8.91-3.63s2.73-9.71,2.73-9.71,1,.21,3.31,2.45,3.07,5.51,3.07,10.27-2.35,5.68-6.62,9.23a76.17,76.17,0,0,0-8,7.19,1.56,1.56,0,0,0-.4,1l0,4.47a2.23,2.23,0,0,0,2.59,2.21c15.91-2.63,17-7.31,24.84-18.84,8.25-12.13,6.48-18.74,6.48-34s4.48-25,9.1-34.65,3.2-14.89,3.2-14.89-4.13,4.83-6,6-4.72,2.52-4.72-.89,1.45-1.17,4.72-2.21c2.93-.92,5.6-6.39,6.13-7.53a7.86,7.86,0,0,1-7.37,4.22c-5.74,0-9-7.31-9-10.29s1.47-8.82,5.79-8.82S193.41,131,197,131s1.88,1.24,4.27,1.24S203.05,121.37,201.49,118.75Zm-42.44-.23c0-1.84.55-3,2.52-4.87s6.94-.73,10.62-2.62,1.74,2-1.15,4.37S159.05,120.13,159.05,118.52Zm13.34,66.35a291.67,291.67,0,0,0-5,28.87s.21-19.16,3.31-30.32a90.22,90.22,0,0,1,9.64-21.36A112.2,112.2,0,0,0,172.39,184.87Z"
                transform="translate(0)" fill="#212121" />
        </g>
        <g id="left">
            <path
                d="M61.9,54.58c0,2.39,4,10.93,16.54,27.93s17.82,31.94,20,31.94,16.37-10.3,16.37-12.5c0-1.69-15.72-23.76-31.52-33.87S66.4,52.28,65.12,52.28,61.9,52.19,61.9,54.58ZM76.76,72.77c7.51,8.82,21.75,20.88,21.75,20.88l-6.87-3a100.19,100.19,0,0,1,5.58,11.65c2.14,5.58,3,11.86,1.29,8.84-.69-1.21-7-14.56-14.45-24.76S70.21,67.19,69.25,64.92,69.25,64,76.76,72.77Z"
                transform="translate(0)" fill="#212121" />
            <path
                d="M150,275c-4.89,0-13.41-2-16.95-5.44a57.25,57.25,0,0,1-6.06-6.89s4.27,8.95,4.27,14.33-5.19,12.58-5.19,12.58,5.79-4.73,8.5-8.95,2.71-5.56,2.71-5.56,1.72,4.22.75,7.9a45.3,45.3,0,0,1-2.77,7.35,44.52,44.52,0,0,0,5.78-5c1.73-1.73,2.6-5.26,2.6-5.26a22.91,22.91,0,0,1,1.67,7.09c0,6.35-3.3,12.82-3.3,12.82s8-9.74,8-14.19Z"
                transform="translate(0)" fill="#212121" />
            <path d="M150,263.31c-7.37,0-15.3-.58-19-3.55s-4.34-.38,2.44,5.62S145.69,273,150,273Z"
                transform="translate(0)" fill="#212121" />
            <path
                d="M104.22,137.12a7.51,7.51,0,0,1,3.16.74,2.93,2.93,0,1,0,3.73,3,7.54,7.54,0,0,1,1.89,4.36c0,3.07-2.31,4.91-5.53,4.91s-5-1.39-5.91-5.91S101.25,137.12,104.22,137.12Z"
                transform="translate(0)" fill="#212121" />
            <path
                d="M128,98.63a13.73,13.73,0,0,0,5.33-5.14,39.45,39.45,0,0,1-8.13,4.31,44.49,44.49,0,0,1-4.49,1.27,152,152,0,0,1-7.2-21c.44-.14.88-.3,1.33-.47a13.68,13.68,0,0,0,6-4.37,41.73,41.73,0,0,1-7.8,3c-.31-1.22-.61-2.44-.89-3.66-3.65-16-5.53-47.56-5.44-62.44S110.22-3,112.43,14c2.16,16.67,10,53.14,18.61,67.18-.53.38-1.11.8-1.78,1.24a39.33,39.33,0,0,1-8.4,3.78,13.74,13.74,0,0,0,7.33-1.06,36.82,36.82,0,0,0,4.05-2.1c8.26,12.27,10.8,11,10.8,13.59s-15.09,9.58-17.64,9.58c-.82,0-2.11-1.85-3.61-4.88A40.42,40.42,0,0,0,128,98.63Z"
                transform="translate(0)" fill="#212121" />
            <path
                d="M98.74,132.25c2.39,0,.69-1.24,4.27-1.24s4,5.15,8.36,5.15,5.79,5.83,5.79,8.82-3.31,10.29-9,10.29a7.86,7.86,0,0,1-7.37-4.22c.53,1.14,3.2,6.61,6.13,7.53,3.27,1,4.72-1.2,4.72,2.21s-2.83,2-4.72.89-6-6-6-6S99.43,161,104,170.61s9.1,19.43,9.1,34.65-1.77,21.84,6.48,34c7.83,11.53,8.93,16.21,24.84,18.84a2.23,2.23,0,0,0,2.59-2.21l0-4.47a1.56,1.56,0,0,0-.4-1,76.17,76.17,0,0,0-8-7.19c-4.27-3.55-6.62-4.48-6.62-9.23s.76-8,3.07-10.27,3.31-2.45,3.31-2.45-1,6.22,2.73,9.71,6.11,3.63,8.91,3.63V130.47c-1.1,0-2.38-7.41-2.38-11.42s1.28-5,2.38-5V83.86c-5.42,0-12,.14-12,1.91s7.84,7.84,7.84,10.77-8.18,8.29-14.2,10.4-7.62,2.94-9.55.19-3.68-8.36-4.69-11-4.54-1.56-2.94,1.47,2.81,3.68,2.81,5.56-17.23,13-18.79,15.62S96.35,132.25,98.74,132.25ZM129,115.4c-2.89-2.39-4.82-6.25-1.15-4.37s8.64.74,10.62,2.62,2.52,3,2.52,4.87C141,120.13,131.86,117.78,129,115.4Zm-9.34,46.66a90.22,90.22,0,0,1,9.64,21.36c3.1,11.16,3.31,30.32,3.31,30.32a291.67,291.67,0,0,0-5-28.87A112.2,112.2,0,0,0,119.62,162.06Z"
                transform="translate(0)" fill="#212121" />
        </g>
    </g>
    <g id="frame">
        <rect width="300" height="300" fill="none" />
    </g>
</svg>