<svg xmlns="http://www.w3.org/2000/svg" viewBox="0 0 30 30"><path d="M15,30a2.32,2.32,0,0,1,.83-.36,2.75,2.75,0,0,0,.81-.33l.44-.35a1,1,0,0,1-.11.29,3.43,3.43,0,0,0-.17.3,1.48,1.48,0,0,0,.52-.52,1.71,1.71,0,0,1,.7-.71,2,2,0,0,0,.58-.57.82.82,0,0,1,0,.25c0,.1-.12.26-.12.26a2.21,2.21,0,0,0,.76-1.09,4.09,4.09,0,0,0,0-2.39,8.48,8.48,0,0,1-.41-1.2c0-.22-.08-.58-.08-.58a3.84,3.84,0,0,1-.51,1.88A5.89,5.89,0,0,1,16.91,26a4.53,4.53,0,0,1-.43,1.36c-.31.53-.48.51-.52.68a.67.67,0,0,1-.4.52,1.31,1.31,0,0,1-.56.17Z" transform="translate(0)" fill="#212121"/><path d="M15,27.21a1.73,1.73,0,0,0,1.06-.54,2.32,2.32,0,0,0,.17-.87,2.29,2.29,0,0,1-1.23.58Z" transform="translate(0)" fill="#212121"/><path d="M15.78,25.59c.28,0,.34-.33.3-.45s-.17-.15-.22-.18a.31.31,0,0,1,0-.28.66.66,0,0,1,.12-.11.69.69,0,0,0-.46.31C15.41,25.13,15.39,25.59,15.78,25.59Z" transform="translate(0)" fill="#212121"/><path d="M16.4,16.91c.12.07.25-.2.1-.28a2.9,2.9,0,0,0-1.5-.3v.3A3,3,0,0,1,16.4,16.91Z" transform="translate(0)" fill="#212121"/><path d="M23.93,18.37a15.48,15.48,0,0,0-2.54-.61,22.1,22.1,0,0,0-2.58.57c-.45,0-.6-.19-.82-.19s-.39,0-.65-.47a4.91,4.91,0,0,1-.39-.75c-.05-.11-.33,0-.26.14a3.55,3.55,0,0,1,.49,1.58c0,.73-.39,1.47-.86,1.47s-.5.07-.5.42-.19.43-.37,0S15.16,20,15,20V24c.45,0,1,.13,1.19.49a2,2,0,0,1,.25.73,1.79,1.79,0,0,1,0,.46,3.46,3.46,0,0,0,1.29-.9,4.14,4.14,0,0,0,.68-2.37,2.38,2.38,0,0,1,.23-1.28.76.76,0,0,0,0-.89,5.93,5.93,0,0,1-.45-1,1.72,1.72,0,0,1-.06-.27,2.2,2.2,0,0,0,.45.64c.23.16,1.4.84,1.59,1s.27.27.47.27a2.2,2.2,0,0,0,1.15-.22c.41-.25.75-.22,1-.37a16.92,16.92,0,0,0,1.64-1.45C24.66,18.57,24.73,18.49,23.93,18.37Zm-5.58,2.22a.33.33,0,0,1-.05.17.53.53,0,0,1-.27.16c-.08,0-.08.06-.1.24a.75.75,0,0,1-.62.43.35.35,0,0,1-.33-.17.47.47,0,0,0,0,.19c0,.1.15.19.22.45a1.85,1.85,0,0,1,0,.62A5.34,5.34,0,0,0,17,22c-.16-.34-.34-.42-.34-.53s0-.18.46-.67A1.27,1.27,0,0,1,18.35,20.59Zm4.29-.7a1.74,1.74,0,0,1-1.36.56,5.64,5.64,0,0,0-1,0,1.24,1.24,0,0,0-.68-.86.71.71,0,0,0-.57-.09,1.67,1.67,0,0,1-.43-.1,5.91,5.91,0,0,0,.88-.14c.61-.13,1.17-.59,1.85-.59a7.39,7.39,0,0,1,1.59.38C23.55,19.15,23.25,19.38,22.64,19.89Z" transform="translate(0)" fill="#212121"/><path d="M17.19,16.66a3.8,3.8,0,0,0,.56,1.12.33.33,0,0,0,.32.07,24.09,24.09,0,0,1,2.29-1,9.49,9.49,0,0,0,2.54-.77c1.05-.61,1.72-.55,2.86-1.57s3-2.13,3.48-3.2a7,7,0,0,0,.69-2.73,2.9,2.9,0,0,0-.57-1.79c-.24-.27-.16-.08,0,.32a3.71,3.71,0,0,1-.18,2.26,6.74,6.74,0,0,1-.86,1.5c-.13.17-.14.11-.14-.37A2.39,2.39,0,0,0,27.8,9.2c-.24-.34-.27-.38-.22,0s-.07.11-.16-.19-.4-.55-.31-.29a4.49,4.49,0,0,1,.34,1.42,3.08,3.08,0,0,1-.22,1.73,5.07,5.07,0,0,1-1.57,1.39c-.52.31-.41.17-.09-.46a3.55,3.55,0,0,0,.32-1.92,9.87,9.87,0,0,1,.47-2.92c.27-.73,1.17-1.79,1.41-2.5a5.25,5.25,0,0,0-.05-2.69A4.45,4.45,0,0,0,26.89,1c-.23-.3-.32-.34,0,.55a5.22,5.22,0,0,1-.19,3.17,17.5,17.5,0,0,1-1.41,2.78c-.26.28-.31-.06-.4-.6a12.89,12.89,0,0,1-.19-2.18A4.4,4.4,0,0,0,24,2,7.1,7.1,0,0,0,22.65.12c-.2-.21-.36-.25.2.75A5.16,5.16,0,0,1,23.55,4a15.48,15.48,0,0,0,.31,3.28,22.31,22.31,0,0,1,.56,3.94,3.2,3.2,0,0,1-1.91,3.17,5.51,5.51,0,0,1-2.59.86c-.68,0-1,.14-1.17.4s-.31.15-.48-.2a.7.7,0,0,0-.71-.48c-.36,0-.21.07,0,.34a.69.69,0,0,1,.08.76C17.43,16.32,17.21,16.44,17.19,16.66Z" transform="translate(0)" fill="#212121"/><path d="M15,30a2.32,2.32,0,0,0-.83-.36,2.75,2.75,0,0,1-.81-.33L12.92,29a1,1,0,0,0,.11.29,3.43,3.43,0,0,1,.17.3,1.48,1.48,0,0,1-.52-.52,1.71,1.71,0,0,0-.7-.71,2,2,0,0,1-.58-.57.82.82,0,0,0,0,.25c0,.1.12.26.12.26a2.21,2.21,0,0,1-.76-1.09,4.09,4.09,0,0,1,0-2.39,8.48,8.48,0,0,0,.41-1.2c0-.22.08-.58.08-.58a3.84,3.84,0,0,0,.51,1.88A5.89,5.89,0,0,0,13.09,26a4.53,4.53,0,0,0,.43,1.36c.31.53.48.51.52.68a.67.67,0,0,0,.4.52,1.31,1.31,0,0,0,.56.17Z" transform="translate(0)" fill="#212121"/><path d="M15,27.21a1.73,1.73,0,0,1-1.06-.54,2.32,2.32,0,0,1-.17-.87,2.29,2.29,0,0,0,1.23.58Z" transform="translate(0)" fill="#212121"/><path d="M14.22,25.59c-.28,0-.34-.33-.3-.45s.17-.15.22-.18a.31.31,0,0,0,0-.28.66.66,0,0,0-.12-.11.69.69,0,0,1,.46.31C14.59,25.13,14.61,25.59,14.22,25.59Z" transform="translate(0)" fill="#212121"/><path d="M13.6,16.91c-.12.07-.25-.2-.1-.28a2.9,2.9,0,0,1,1.5-.3v.3A3,3,0,0,0,13.6,16.91Z" transform="translate(0)" fill="#212121"/><path d="M5.63,18.88a16.92,16.92,0,0,0,1.64,1.45c.23.15.57.12,1,.37a2.2,2.2,0,0,0,1.15.22c.2,0,.29-.12.47-.27s1.36-.83,1.59-1a2.2,2.2,0,0,0,.45-.64,1.72,1.72,0,0,1-.06.27,5.93,5.93,0,0,1-.45,1,.76.76,0,0,0,0,.89,2.38,2.38,0,0,1,.23,1.28,4.14,4.14,0,0,0,.68,2.37,3.46,3.46,0,0,0,1.29.9,1.79,1.79,0,0,1,0-.46,2,2,0,0,1,.25-.73C14,24.17,14.55,24,15,24V20c-.16,0-.27.23-.45.62s-.37.3-.37,0,0-.42-.5-.42-.86-.74-.86-1.47a3.55,3.55,0,0,1,.49-1.58c.07-.15-.21-.25-.26-.14a4.91,4.91,0,0,1-.39.75c-.26.43-.44.47-.65.47s-.37.19-.82.19a22.1,22.1,0,0,0-2.58-.57,15.48,15.48,0,0,0-2.54.61C5.27,18.49,5.34,18.57,5.63,18.88Zm7.26,1.95c.46.49.46.57.46.67s-.18.19-.34.53a5.34,5.34,0,0,0-.23.65,1.85,1.85,0,0,1,0-.62c.07-.26.2-.35.22-.45a.47.47,0,0,0,0-.19.35.35,0,0,1-.33.17.75.75,0,0,1-.62-.43c0-.18,0-.23-.1-.24a.53.53,0,0,1-.27-.16.33.33,0,0,1,0-.17A1.27,1.27,0,0,1,12.89,20.83ZM7.06,19a7.39,7.39,0,0,1,1.59-.38c.68,0,1.24.46,1.85.59a5.91,5.91,0,0,0,.88.14,1.67,1.67,0,0,1-.43.1.71.71,0,0,0-.57.09,1.24,1.24,0,0,0-.68.86,5.64,5.64,0,0,0-1,0,1.74,1.74,0,0,1-1.36-.56C6.75,19.38,6.45,19.15,7.06,19Z" transform="translate(0)" fill="#212121"/><path d="M12.81,16.66a3.8,3.8,0,0,1-.56,1.12.33.33,0,0,1-.32.07,24.09,24.09,0,0,0-2.29-1,9.49,9.49,0,0,1-2.54-.77c-1-.61-1.72-.55-2.86-1.57s-3-2.13-3.48-3.2A7,7,0,0,1,.07,8.62,2.9,2.9,0,0,1,.64,6.83c.24-.27.16-.08,0,.32A3.71,3.71,0,0,0,.86,9.41a6.74,6.74,0,0,0,.86,1.5c.13.17.14.11.14-.37A2.39,2.39,0,0,1,2.2,9.2c.24-.34.27-.38.22,0s.07.11.16-.19.4-.55.31-.29a4.49,4.49,0,0,0-.34,1.42,3.08,3.08,0,0,0,.22,1.73,5.07,5.07,0,0,0,1.57,1.39c.52.31.41.17.09-.46a3.55,3.55,0,0,1-.32-1.92,9.87,9.87,0,0,0-.47-2.92c-.27-.73-1.17-1.79-1.41-2.5a5.25,5.25,0,0,1,0-2.69A4.45,4.45,0,0,1,3.11,1c.23-.3.32-.34,0,.55a5.22,5.22,0,0,0,.19,3.17A17.5,17.5,0,0,0,4.72,7.47c.26.28.31-.06.4-.6a12.89,12.89,0,0,0,.19-2.18A4.4,4.4,0,0,1,6,2,7.1,7.1,0,0,1,7.35.12c.2-.21.36-.25-.2.75A5.16,5.16,0,0,0,6.45,4a15.48,15.48,0,0,1-.31,3.28,22.31,22.31,0,0,0-.56,3.94,3.2,3.2,0,0,0,1.91,3.17,5.51,5.51,0,0,0,2.59.86c.68,0,1,.14,1.17.4s.31.15.48-.2a.7.7,0,0,1,.71-.48c.36,0,.21.07.05.34a.69.69,0,0,0-.08.76C12.57,16.32,12.79,16.44,12.81,16.66Z" transform="translate(0)" fill="#212121"/><rect width="30" height="30" fill="none"/></svg>