<!-- Copyright (c) 2022 - 2023 Jan Stehno -->
<svg xmlns="http://www.w3.org/2000/svg" viewBox="0 0 300 300"><title>muledeer</title><g id="muledeer"><g id="right"><path d="M150,300c2.36-2,5-2.48,8.3-3.58s6.47-1.92,8.15-3.31l4.31-3.55a9.34,9.34,0,0,1-1,2.92c-.77,1.25-1.73,3-1.73,3a15.52,15.52,0,0,0,5.22-5.17c1.94-3.35,4.42-6,7.05-7.16s5.72-5.65,5.72-5.65a8.82,8.82,0,0,1-.36,2.45,26.08,26.08,0,0,1-1.23,2.62s5-3.27,7.63-10.9,1.65-18.55-.36-23.88-3.81-9.85-4.1-12-.86-5.75-.86-5.75-.22,12.44-5.11,18.77-12.45,11.37-12.45,11.37-1.22,8.27-4.31,13.59-4.82,5.11-5.25,6.83-.87,3.82-4,5.18-4.32,1.71-5.61,1.71Z" transform="translate(0)" fill="#212121"/><path d="M150,272.05c2.84,0,9.14-2.84,10.65-5.39s1.61-8.63,1.61-8.63-6.36,5.75-12.26,5.75Z" transform="translate(0)" fill="#212121"/><path d="M157.84,255.94c2.77,0,3.35-3.31,2.95-4.57s-1.73-1.43-2.16-1.79-.36-2.13.22-2.81a6.51,6.51,0,0,1,1.15-1.08s-3.38.61-4.64,3.13S153.88,255.94,157.84,255.94Z" transform="translate(0)" fill="#212121"/><path d="M164,169.1c1.2.69,2.56-2,1-2.81s-5.46-3-15-3v3C158,166.25,162.78,168.4,164,169.1Z" transform="translate(0)" fill="#212121"/><path d="M239.27,183.72c-8-1.22-16-6.11-25.32-6.11s-21.44,5.68-25.9,5.68-6-1.92-8.1-1.92-4-.33-6.52-4.63a54.46,54.46,0,0,1-3.94-7.55c-.45-1.1-3.26-.05-2.59,1.37s4.9,8.49,4.9,15.82-3.86,14.75-8.56,14.75-5,.72-5,4.12-1.92,4.32-3.74.44-2.93-6.16-4.51-6.16V240.4c4.55,0,10.17,1.35,11.89,4.9s2.54,5.89,2.54,7.33a16.83,16.83,0,0,1-.48,4.61,34.14,34.14,0,0,0,12.9-9.07c5.52-6.42,6.57-17.21,6.81-23.69s.44-10,2.35-12.8,1.92-5.28,0-8.92a58.31,58.31,0,0,1-4.46-9.88,10.69,10.69,0,0,1-.58-2.68s2.25,4.79,4.51,6.37,13.95,8.4,15.82,9.93,2.78,2.73,4.75,2.73,7.36.32,11.46-2.2,7.56-2.23,9.86-3.74a186.23,186.23,0,0,0,16.4-14.46C246.6,185.66,247.25,184.94,239.27,183.72ZM183.52,206a3.53,3.53,0,0,1-.54,1.65,5,5,0,0,1-2.66,1.55c-.86.18-.79.68-1,2.41s-3.7,4.39-6.22,4.39a3.4,3.4,0,0,1-3.27-1.76,3.67,3.67,0,0,0-.18,1.87c.18,1,1.44,2,2.19,4.56a19.62,19.62,0,0,1,.4,6.19,47.78,47.78,0,0,0-2.34-6.47c-1.55-3.49-3.38-4.28-3.38-5.33s0-1.83,4.57-6.76S183.52,206,183.52,206Zm42.92-7c-6,5.09-10.84,6.19-13.62,5.57s-9.83-.15-9.83-.15c-.19-3.55-3.69-7-6.76-8.68s-4.08-.81-5.71-.81a15.75,15.75,0,0,1-4.31-1.06A57.67,57.67,0,0,0,195,192.4c6.09-1.29,11.7-5.9,18.51-5.9s9.74,2.69,15.87,3.84S232.48,193.84,226.44,198.92Z" transform="translate(0)" fill="#212121"/><path d="M171.87,166.64c-.15,1.35,4.53,10.28,5.64,11.11a3.38,3.38,0,0,0,3.2.76c1-.36,14.1-6.8,22.84-9.64s15-1.64,25.48-7.69,17.21-5.51,28.58-15.73,29.92-21.29,34.82-31.93,6.61-19.43,6.9-27.34S295.93,71,293.58,68.3s-1.59-.82-.34,3.21,1.87,13.71-1.87,22.58a64.84,64.84,0,0,1-8.58,15c-1.25,1.73-1.39,1.06-1.35-3.69s-1-9.91-3.4-13.37-2.77-3.81-2.2-.35-.71,1.07-1.61-1.91-4.07-5.5-3.13-2.91a44.47,44.47,0,0,1,3.41,14.27c.51,7.41.32,12.52-2.18,17.22s-10.64,10.84-15.77,14-4,1.73-.87-4.65,3.17-10,3.17-19.18,2.06-21.91,4.74-29.2,11.66-17.89,14.06-25,1.82-17.55-.44-26.9a44.92,44.92,0,0,0-8.34-17.65c-2.3-3.07-3.17-3.4-.05,5.47s1.58,23-1.92,31.65-11.53,25-14.12,27.81-3.09-.57-4-6a136.43,136.43,0,0,1-1.87-21.79c0-8.13.43-13.89-6.47-26.55S228.55,3.17,226.54,1.16s-3.6-2.45,2,7.55,6.91,15.9,6.91,31.15a154.69,154.69,0,0,0,3.16,32.87c1.8,9.71,5.61,25.54,5.61,39.42s-5,24.6-19.13,31.65-19.18,8.56-25.95,8.56-9.92,1.49-11.7,4-3.07,1.48-4.74-2-3.6-4.74-7.15-4.79-2,.72-.48,3.4,2.45,4.89.82,7.58S172.11,164.42,171.87,166.64Z" transform="translate(0)" fill="#212121"/></g><g id="left"><path d="M150,300c-2.36-2-5-2.48-8.3-3.58s-6.47-1.92-8.15-3.31l-4.31-3.55a9.34,9.34,0,0,0,1,2.92c.77,1.25,1.73,3,1.73,3a15.52,15.52,0,0,1-5.22-5.17c-1.94-3.35-4.42-6-7-7.16s-5.72-5.65-5.72-5.65a8.82,8.82,0,0,0,.36,2.45,26.08,26.08,0,0,0,1.23,2.62s-5-3.27-7.63-10.9-1.65-18.55.36-23.88,3.81-9.85,4.1-12,.86-5.75.86-5.75.22,12.44,5.11,18.77,12.45,11.37,12.45,11.37,1.22,8.27,4.31,13.59,4.82,5.11,5.25,6.83.87,3.82,4,5.18,4.32,1.71,5.61,1.71Z" transform="translate(0)" fill="#212121"/><path d="M150,272.05c-2.84,0-9.14-2.84-10.65-5.39s-1.61-8.63-1.61-8.63,6.36,5.75,12.26,5.75Z" transform="translate(0)" fill="#212121"/><path d="M142.16,255.94c-2.77,0-3.35-3.31-2.95-4.57s1.73-1.43,2.16-1.79.36-2.13-.22-2.81a6.51,6.51,0,0,0-1.15-1.08s3.38.61,4.64,3.13S146.12,255.94,142.16,255.94Z" transform="translate(0)" fill="#212121"/><path d="M136,169.1c-1.2.69-2.56-2-1-2.81s5.46-3,15-3v3C142,166.25,137.22,168.4,136,169.1Z" transform="translate(0)" fill="#212121"/><path d="M56.27,188.83a186.23,186.23,0,0,0,16.4,14.46c2.3,1.51,5.76,1.22,9.86,3.74s9.49,2.2,11.46,2.2,2.88-1.19,4.75-2.73,13.57-8.34,15.82-9.93,4.51-6.37,4.51-6.37a10.69,10.69,0,0,1-.58,2.68,58.31,58.31,0,0,1-4.46,9.88c-2,3.64-2,6.14,0,8.92s2.11,6.33,2.35,12.8,1.29,17.27,6.81,23.69a34.14,34.14,0,0,0,12.9,9.07,16.83,16.83,0,0,1-.48-4.61c0-1.44.81-3.79,2.54-7.33s7.34-4.9,11.89-4.9V199.53c-1.58,0-2.69,2.27-4.51,6.16s-3.74,3-3.74-.44-.29-4.12-5-4.12-8.56-7.41-8.56-14.75,4.22-14.41,4.9-15.82-2.14-2.47-2.59-1.37a54.46,54.46,0,0,1-3.94,7.55c-2.56,4.3-4.38,4.63-6.52,4.63s-3.64,1.92-8.1,1.92-16.62-5.68-25.9-5.68-17.33,4.89-25.32,6.11S53.4,185.66,56.27,188.83Zm72.65,19.42c4.61,4.93,4.57,5.72,4.57,6.76s-1.83,1.84-3.38,5.33a47.78,47.78,0,0,0-2.34,6.47,19.62,19.62,0,0,1,.4-6.19c.75-2.59,2-3.56,2.19-4.56a3.67,3.67,0,0,0-.18-1.87,3.4,3.4,0,0,1-3.27,1.76c-2.52,0-6-2.66-6.22-4.39s-.15-2.23-1-2.41A5,5,0,0,1,117,207.6a3.53,3.53,0,0,1-.54-1.65S124.32,203.32,128.92,208.25ZM70.64,190.34c6.13-1.15,9.06-3.84,15.87-3.84s12.42,4.61,18.51,5.9a57.67,57.67,0,0,0,8.77,1.39,15.75,15.75,0,0,1-4.31,1.06c-1.63,0-2.54-1-5.71.81s-6.57,5.13-6.76,8.68c0,0-7.05-.48-9.83.15s-7.58-.48-13.62-5.57S64.5,191.49,70.64,190.34Z" transform="translate(0)" fill="#212121"/><path d="M128.13,166.64c.15,1.35-4.53,10.28-5.64,11.11a3.38,3.38,0,0,1-3.2.76c-1-.36-14.1-6.8-22.84-9.64s-15-1.64-25.48-7.69-17.21-5.51-28.58-15.73S12.47,124.16,7.57,113.52,1,94.09.67,86.18,4.07,71,6.42,68.3s1.59-.82.34,3.21S4.89,85.22,8.63,94.09a64.84,64.84,0,0,0,8.58,15c1.25,1.73,1.39,1.06,1.35-3.69S19.55,95.5,22,92s2.77-3.81,2.2-.35.71,1.07,1.61-1.91,4.07-5.5,3.13-2.91a44.47,44.47,0,0,0-3.41,14.27c-.51,7.41-.32,12.52,2.18,17.22s10.64,10.84,15.77,14,4,1.73.87-4.65-3.17-10-3.17-19.18-2.06-21.91-4.74-29.2-11.66-17.89-14.06-25-1.82-17.55.44-26.9A44.92,44.92,0,0,1,31.12,9.74c2.3-3.07,3.17-3.4.05,5.47s-1.58,23,1.92,31.65,11.53,25,14.12,27.81,3.09-.57,4-6a136.43,136.43,0,0,0,1.87-21.79c0-8.13-.43-13.89,6.47-26.55S71.45,3.17,73.46,1.16s3.6-2.45-2,7.55-6.91,15.9-6.91,31.15a154.69,154.69,0,0,1-3.16,32.87c-1.8,9.71-5.61,25.54-5.61,39.42s5,24.6,19.13,31.65,19.18,8.56,25.95,8.56,9.92,1.49,11.7,4,3.07,1.48,4.74-2,3.6-4.74,7.15-4.79,2,.72.48,3.4-2.45,4.89-.82,7.58S127.89,164.42,128.13,166.64Z" transform="translate(0)" fill="#212121"/></g></g><g id="frame"><rect width="300" height="300" fill="none"/></g></svg>