<svg xmlns="http://www.w3.org/2000/svg" viewBox="0 0 30 30"><path d="M18.2,4A.7.7,0,0,1,18,3.74c-.09.23-.19.45-.29.67s-.2.39-.29.54a1.12,1.12,0,0,0,.37.51A4.58,4.58,0,0,0,19.32,5a8.92,8.92,0,0,0,.13-1c0-.11,0-.21,0-.31A3.17,3.17,0,0,1,18.2,4Z" transform="translate(0)" fill="#212121"/><path d="M20.59,12.14A5.73,5.73,0,0,1,19,10a9.85,9.85,0,0,1-.48-2.08s-.38.4-.84.91a8.29,8.29,0,0,1-1.09,1,2.73,2.73,0,0,1,.49-1.09c.41-.54,1-.87,1.31-1.36a5.62,5.62,0,0,0,.88-2.16,5,5,0,0,1-1.65.48,1.38,1.38,0,0,1-.38-.55,4.54,4.54,0,0,1-.65.78c-.34.34-.41.36-.25.52a1.67,1.67,0,0,1,.43,1.23,3.53,3.53,0,0,1-.19,1.19,6.5,6.5,0,0,0-.27-1.76A1.71,1.71,0,0,0,15,6.31V21.77H16s0-1.68,0-2.36a15,15,0,0,1,.47-3.6,7.65,7.65,0,0,1,1.2-2.59,2.48,2.48,0,0,1,1.83-1.09,1.15,1.15,0,0,1,1.05.7c.12.39,0,.64.2.43A1,1,0,0,0,20.59,12.14Z" transform="translate(0)" fill="#212121"/><path d="M18.05,3.5a.65.65,0,0,0,.24.27,3.16,3.16,0,0,0,1.2-.31,6.34,6.34,0,0,0-.3-2.92c-.26-.53-.51-.66-.51-.44a8.42,8.42,0,0,1-.15,1.59A8.59,8.59,0,0,1,18.05,3.5Z" transform="translate(0)" fill="#212121"/><path d="M19.63,10.29a7.48,7.48,0,0,1,2-2.73c1.39-1.13,1.81-1.2,2.47-1.2s.71.22.91.22.39-.32.39-.49S24.9,5.76,24,5.76A6.67,6.67,0,0,0,21,6.59C20.16,7.07,19.63,8.12,19.63,10.29Z" transform="translate(0)" fill="#212121"/><path d="M24.74,6.83a13.54,13.54,0,0,1-1.13,2.3,8,8,0,0,1-2.29,1.64,3,3,0,0,0,.54-1.1l.28-1.08a1.8,1.8,0,0,1,.07.49,2.72,2.72,0,0,1-.06.54s.26-.11.34-.68.07-.76.88-1.35A5.18,5.18,0,0,1,24.74,6.83Z" transform="translate(0)" fill="#212121"/><path d="M21.57,9.51a2.69,2.69,0,0,1-.32,1,2.44,2.44,0,0,1-.66.64,3,3,0,0,1,.35-1A2.07,2.07,0,0,1,21.57,9.51Z" transform="translate(0)" fill="#212121"/><path d="M20.92,9.64a2.7,2.7,0,0,0-.38.76,4.06,4.06,0,0,0-.16.75.84.84,0,0,1-.41-.63C20,10.13,20.92,9.64,20.92,9.64Z" transform="translate(0)" fill="#212121"/><path d="M15,26.76c.6,0,.38.29.84.29s1.07-.69,1.25-1.09.26-.57.16-.67a9.36,9.36,0,0,1-2.25.45Z" transform="translate(0)" fill="#212121"/><path d="M15.34,30a9.53,9.53,0,0,0,4.1-1,4.31,4.31,0,0,0,1.71-3.62,19.25,19.25,0,0,0-.7-3.29,10.86,10.86,0,0,1-.2-3.9A16.11,16.11,0,0,0,20.36,16a5.61,5.61,0,0,1-.71,1.67,18.49,18.49,0,0,0-1.26,3.71,12,12,0,0,0-.1,3,6.54,6.54,0,0,1-.73,3.07A9.83,9.83,0,0,1,15.34,30Z" transform="translate(0)" fill="#212121"/><path d="M20,14.76c.32-.69.32-1.68,0-2a1,1,0,0,0-1.24-.08,3.24,3.24,0,0,0-1.51,1.83,11.86,11.86,0,0,0-1,3.52,27.94,27.94,0,0,0-.06,3.78,1.52,1.52,0,0,1,.65.52,1.7,1.7,0,0,1,.21.73s-.34-.46-.53-.53-.31,0-.31.17a.45.45,0,0,0,.19.32,1.87,1.87,0,0,0-.67.37c-.27.25-.42.45-.42.69s.06.25.21.25.22-.31.66-.63.6-.35.73-.35.23.06.23.21-.5.59-.5.59v.21c0,.15.12.34-1.4.73a4.13,4.13,0,0,0,1.54-.29,1.4,1.4,0,0,0,.8-1.44,17.4,17.4,0,0,0-.34-2.28l.31.52a27,27,0,0,1,1-3.19c.62-1.67,1.2-1.89,1.2-2.24s0-.34-.31-.18a4.74,4.74,0,0,0-1.16,1.39c-.3.54-.83,1.66-.83,1.66a7.89,7.89,0,0,1,1-2.4C19.17,15.77,19.7,15.46,20,14.76Zm-2.09.18a2.31,2.31,0,0,0-.48.44,5.14,5.14,0,0,1,.93-1.9A1.47,1.47,0,0,1,19.86,13l-.15.13a1,1,0,0,1,.08.44,1.14,1.14,0,0,1-.1.49,1.61,1.61,0,0,0-.08-.55.53.53,0,0,0-.25-.28,2,2,0,0,1,.13.66,1.17,1.17,0,0,1-.87.88.74.74,0,0,1-.51-.2.5.5,0,0,0,.48.34,1.05,1.05,0,0,0,.61-.17.92.92,0,0,1-.68.36A.81.81,0,0,1,17.93,14.94Z" transform="translate(0)" fill="#212121"/><path d="M11.8,4a.7.7,0,0,0,.25-.28c.09.23.19.45.29.67s.2.39.29.54a1.12,1.12,0,0,1-.37.51A4.58,4.58,0,0,1,10.68,5a8.92,8.92,0,0,1-.13-1c0-.11,0-.21,0-.31A3.17,3.17,0,0,0,11.8,4Z" transform="translate(0)" fill="#212121"/><path d="M9.41,12.14A5.73,5.73,0,0,0,11,10a9.85,9.85,0,0,0,.48-2.08s.38.4.84.91a8.29,8.29,0,0,0,1.09,1,2.73,2.73,0,0,0-.49-1.09c-.41-.54-1-.87-1.31-1.36a5.62,5.62,0,0,1-.88-2.16,5,5,0,0,0,1.65.48,1.38,1.38,0,0,0,.38-.55,4.54,4.54,0,0,0,.65.78c.34.34.41.36.25.52a1.67,1.67,0,0,0-.43,1.23,3.53,3.53,0,0,0,.19,1.19,6.5,6.5,0,0,1,.27-1.76A1.71,1.71,0,0,1,15,6.31V21.77h-.95s0-1.68,0-2.36a15,15,0,0,0-.47-3.6,7.65,7.65,0,0,0-1.2-2.59,2.48,2.48,0,0,0-1.83-1.09,1.15,1.15,0,0,0-1,.7c-.12.39-.05.64-.2.43A1,1,0,0,1,9.41,12.14Z" transform="translate(0)" fill="#212121"/><path d="M12,3.5a.65.65,0,0,1-.24.27,3.16,3.16,0,0,1-1.2-.31,6.34,6.34,0,0,1,.3-2.92c.26-.53.51-.66.51-.44a8.42,8.42,0,0,0,.15,1.59A8.59,8.59,0,0,0,12,3.5Z" transform="translate(0)" fill="#212121"/><path d="M10.37,10.29a7.48,7.48,0,0,0-2-2.73C7,6.43,6.54,6.36,5.88,6.36s-.71.22-.91.22-.39-.32-.39-.49S5.1,5.76,6,5.76a6.67,6.67,0,0,1,3,.83C9.84,7.07,10.37,8.12,10.37,10.29Z" transform="translate(0)" fill="#212121"/><path d="M5.26,6.83a13.54,13.54,0,0,0,1.13,2.3,8,8,0,0,0,2.29,1.64,3,3,0,0,1-.54-1.1L7.86,8.59a1.8,1.8,0,0,0-.07.49,2.72,2.72,0,0,0,.06.54s-.26-.11-.34-.68-.07-.76-.88-1.35A5.18,5.18,0,0,0,5.26,6.83Z" transform="translate(0)" fill="#212121"/><path d="M8.43,9.51a2.69,2.69,0,0,0,.32,1,2.44,2.44,0,0,0,.66.64,3,3,0,0,0-.35-1A2.07,2.07,0,0,0,8.43,9.51Z" transform="translate(0)" fill="#212121"/><path d="M9.08,9.64a2.7,2.7,0,0,1,.38.76,4.06,4.06,0,0,1,.16.75.84.84,0,0,0,.41-.63C10,10.13,9.08,9.64,9.08,9.64Z" transform="translate(0)" fill="#212121"/><path d="M15,26.76c-.6,0-.38.29-.84.29s-1.07-.69-1.25-1.09-.26-.57-.16-.67a9.36,9.36,0,0,0,2.25.45Z" transform="translate(0)" fill="#212121"/><path d="M14.66,30a9.53,9.53,0,0,1-4.1-1,4.31,4.31,0,0,1-1.71-3.62,19.25,19.25,0,0,1,.7-3.29,10.86,10.86,0,0,0,.2-3.9A16.11,16.11,0,0,1,9.64,16a5.61,5.61,0,0,0,.71,1.67,18.49,18.49,0,0,1,1.26,3.71,12,12,0,0,1,.1,3,6.54,6.54,0,0,0,.73,3.07A9.83,9.83,0,0,0,14.66,30Z" transform="translate(0)" fill="#212121"/><path d="M11.5,16.68a7.89,7.89,0,0,1,1,2.4S12,18,11.71,17.42A4.74,4.74,0,0,0,10.55,16c-.29-.16-.31-.16-.31.18s.58.57,1.2,2.24a27,27,0,0,1,1,3.19l.31-.52a17.4,17.4,0,0,0-.34,2.28,1.4,1.4,0,0,0,.8,1.44,4.13,4.13,0,0,0,1.54.29c-1.52-.39-1.4-.58-1.4-.73v-.21s-.5-.44-.5-.59.1-.21.23-.21.29,0,.73.35.5.63.66.63.21,0,.21-.25-.15-.44-.42-.69a1.87,1.87,0,0,0-.67-.37.45.45,0,0,0,.19-.32c0-.18-.13-.23-.31-.17s-.53.53-.53.53a1.7,1.7,0,0,1,.21-.73,1.52,1.52,0,0,1,.65-.52,27.94,27.94,0,0,0-.06-3.78,11.86,11.86,0,0,0-1-3.52,3.24,3.24,0,0,0-1.51-1.83A1,1,0,0,0,10,12.8c-.33.28-.33,1.27,0,2S10.83,15.77,11.5,16.68Zm0-1.54a.92.92,0,0,1-.68-.36,1.05,1.05,0,0,0,.61.17.5.5,0,0,0,.48-.34.74.74,0,0,1-.51.2,1.17,1.17,0,0,1-.87-.88,2,2,0,0,1,.13-.66.53.53,0,0,0-.25.28,1.61,1.61,0,0,0-.08.55,1.14,1.14,0,0,1-.1-.49,1,1,0,0,1,.08-.44L10.14,13a1.47,1.47,0,0,1,1.48.44,5.14,5.14,0,0,1,.93,1.9,2.31,2.31,0,0,0-.48-.44A.81.81,0,0,1,11.48,15.14Z" transform="translate(0)" fill="#212121"/><rect width="30" height="30" fill="none"/></svg>