<svg xmlns="http://www.w3.org/2000/svg" viewBox="0 0 30 30"><g id="northamericanbeaver"><g id="right"><path d="M17.47,14.77a4.44,4.44,0,0,0-.82-1.08A2.38,2.38,0,0,0,15,13v3.69c.35,0,.45.11,1.17.11a1.45,1.45,0,0,0,1.27-.69A1.6,1.6,0,0,0,17.47,14.77Zm-1.11,0c-.05.11-.32.28-.42.4a1.35,1.35,0,0,0,0,.77.2.2,0,0,1,.06.24c0,.08-.25.09-.29,0a5.51,5.51,0,0,1,.11-1.92.39.39,0,0,1,.49,0C16.44,14.29,16.4,14.64,16.36,14.74Z" fill="#212121"/><circle cx="20.77" cy="10.84" r="0.2" fill="#212121"/><polygon points="21.31 10.63 21.04 10.66 21.16 10.81 21.51 10.83 21.82 10.95 21.63 10.72 21.31 10.63" fill="#212121"/><path d="M27.54,21c1.36.34,2.22.5,2.22.5a14.6,14.6,0,0,0-2.41-.9,13.57,13.57,0,0,0-2.14-.46l.08-.78s.79.24,1.85.53S30,20.6,30,20.6a11.12,11.12,0,0,0-1.77-.69c-1.2-.37-2.87-.84-2.87-.84l0-.37,1.8.37c1.2.24,2.61.44,2.61.44s-.87-.33-2-.64-2.37-.51-2.37-.51l0-.87a10.68,10.68,0,0,1,1.31.22l1.65.4a5.37,5.37,0,0,0-1.18-.56c-.69-.23-1.88-.46-1.88-.46a3.39,3.39,0,0,1-.12-.81c.05-.11.39-.14.39-.14L25.28,16l.91-.18A4,4,0,0,1,25,15.45a1,1,0,0,1-.21-.62l1.07.08a2.76,2.76,0,0,0-.67-.36,1.09,1.09,0,0,1-.58-.41l.35-.08a.82.82,0,0,0,.34-.26,3.61,3.61,0,0,1-.62-.21.8.8,0,0,1-.5-.49,1.86,1.86,0,0,0,.48-.09.9.9,0,0,0,.43-.23,4.31,4.31,0,0,1-1.27-.46c-.3-.25-.33-.62-.5-1s-.39-.61-.39-.89.15-.43.37-.74.11-.62.11-1.22.09-.66.22-.66.18.06.22.36,0,.36-.15,0-.09,0-.09.5a2.78,2.78,0,0,1-.09,1c-.12.28-.41.51-.41.72a.93.93,0,0,0,.62.64c.21,0,.31-.58.31-1.84s-.16-1.5-.31-1.59a3.13,3.13,0,0,0-1.26,0c-.36.08-.87.4-.87.53s.07.13.16.24a.71.71,0,0,1,.1.33,6.2,6.2,0,0,1-.84-1c0-.13.37-.36.94-.75S23.3,6,23.3,6a5.78,5.78,0,0,0-1.72.68c-.71.48-.76.73-.89.73s-.36-.28-.36-.4.16-.32.47-.77a12.55,12.55,0,0,1,.94-1.14A5.08,5.08,0,0,0,20.5,6c-.43.48-.45.71-.58.71a.42.42,0,0,1-.24-.12l.26-.41-.37.11a8.44,8.44,0,0,1,.15-1A6.45,6.45,0,0,1,20.25,4a2.38,2.38,0,0,0-.78.93,12.21,12.21,0,0,0-.32,1.2c-.07.12-.51.11-.51.11l.21-.16L17.78,6l.39-.67s-.43.14-.78.28a4.12,4.12,0,0,1-.8.2l.6-.34a1.38,1.38,0,0,0-.55.07,1.86,1.86,0,0,0-.42.2l.35-1S15.31,6.08,15,6.08v6.47a3,3,0,0,1,1.57.61,4.18,4.18,0,0,1,1.18,1.24A2.55,2.55,0,0,1,18,15.83a1.55,1.55,0,0,1-.82,1.1,5.74,5.74,0,0,1-2.15.23v2.63c.24,0,1.05.92,1.52,1.29a4.29,4.29,0,0,0,1.94,1.06,1.39,1.39,0,0,0,1.15-.58,5.1,5.1,0,0,0,.64-.88l.39.18a4,4,0,0,1-.3.49,4.19,4.19,0,0,1-1.23,1.14,7.16,7.16,0,0,1-2.62.45c-.89,0-.84-.14-1.49-.14v2.86c.23,0,.25.14.53.26a6.52,6.52,0,0,0,2,.08,13.28,13.28,0,0,0,4.08-.63,3.55,3.55,0,0,0,2-1.3,1.14,1.14,0,0,0,.57.17,3.76,3.76,0,0,0,.56,0l-.27-.15.76-.21-.61-.3a1.78,1.78,0,0,1-.53-.38h.62a1.46,1.46,0,0,0,.52-.08s.14.08.87.43,2,.83,2,.83a8.66,8.66,0,0,0-1.32-.85c-.8-.43-1.84-.95-1.84-.95l.74-.17a1.4,1.4,0,0,1-.33-.15,1,1,0,0,1-.23-.31l1.42.7c.62.3,2.27,1,2.27,1a8.65,8.65,0,0,0-1.49-.95c-1-.52-2.18-1.11-2.18-1.11l0-.31s.58.15,1.32.37l1.9.6A6.12,6.12,0,0,0,27,21.48c-.83-.32-1.83-.62-1.83-.62l0-.43ZM17.83,23.9a2,2,0,0,1-.83.84,1.49,1.49,0,0,1-1.1.07.29.29,0,0,1,0-.39c.11-.11.58.12,1.17-.24a2.76,2.76,0,0,0,.83-.86A2.81,2.81,0,0,1,17.83,23.9ZM20.17,9.72c.58-.59.67-.6,1-.6s.46.06.5.13a.26.26,0,0,1,0,.31c-.09.08-.29,0-.56,0A4,4,0,0,0,19.56,11,2.08,2.08,0,0,1,20.17,9.72Zm-1.06,7.76a.21.21,0,1,1,0,.41.2.2,0,0,1-.2-.2A.2.2,0,0,1,19.11,17.48Zm-.78,2.4a.18.18,0,1,1,.18-.18A.18.18,0,0,1,18.33,19.88Zm.48-.77a.2.2,0,0,1-.19-.19.2.2,0,1,1,.19.19Zm.43,1.12a.19.19,0,0,1-.19-.18.19.19,0,0,1,.38,0A.19.19,0,0,1,19.24,20.23Zm.23-3.75a.21.21,0,0,1,.21-.22.22.22,0,0,1,0,.43A.21.21,0,0,1,19.47,16.48Zm.35,2.63a.17.17,0,0,1-.17-.18.17.17,0,0,1,.34,0A.17.17,0,0,1,19.82,19.11Zm.3-1.28a.18.18,0,1,1,.18-.18A.18.18,0,0,1,20.12,17.83Zm1.55-5.71a1,1,0,0,1-.87,0,1.28,1.28,0,0,1-.55-1,.93.93,0,0,1,.89-1c.67,0,.91.54.91,1.11A1,1,0,0,1,21.67,12.12Z" fill="#212121"/><polygon points="20.42 20.39 20.82 20.54 21 20.2 20.57 20.07 20.42 20.39" fill="#212121"/><path d="M20.92,18.82a2,2,0,0,1-.08.34l.48.08.06-.83-.45,0A3.87,3.87,0,0,1,20.92,18.82Z" fill="#212121"/><polygon points="20.89 17.62 21.38 17.65 21.28 16.85 20.82 16.83 20.89 17.62" fill="#212121"/><path d="M20.67,16.41H21a8,8,0,0,0-.45-.77A6.48,6.48,0,0,0,20,15s.34.64.48.95S20.67,16.41,20.67,16.41Z" fill="#212121"/><polygon points="15.08 21.48 16.05 21.91 16.05 20.89 15.08 20.03 15.08 21.48" fill="#212121"/><polygon points="15.08 21.73 15.44 21.8 15.77 22 15.76 22.71 15.42 22.62 15.08 22.62 15.08 21.73" fill="#212121"/><path d="M20.15,16.85c-.13,0-.6-.26-.57-.4s.56-.11.69-.08-.18.07-.21.2S20.28,16.88,20.15,16.85Z" fill="#212121"/><path d="M19.62,18.06c-.13,0-.6-.27-.57-.4s.55-.11.68-.08-.17.06-.2.2S19.75,18.09,19.62,18.06Z" fill="#212121"/><path d="M20.65,18c-.14,0-.61-.27-.57-.4s.55-.11.68-.08-.18.06-.21.19S20.78,18.06,20.65,18Z" fill="#212121"/><path d="M20.31,19.29c-.14,0-.61-.26-.57-.39s.55-.12.68-.08-.18.06-.21.19S20.44,19.33,20.31,19.29Z" fill="#212121"/><path d="M19.3,19.31c-.13,0-.6-.26-.57-.39s.55-.12.69-.09-.18.07-.21.2S19.43,19.34,19.3,19.31Z" fill="#212121"/><path d="M19.8,20.31c-.13,0-.64-.13-.64-.26s.52-.23.65-.23-.16.1-.16.24S19.94,20.31,19.8,20.31Z" fill="#212121"/><path d="M18.93,19.94c-.13,0-.65-.09-.66-.22s.5-.27.64-.27-.15.11-.15.24S19.07,19.93,18.93,19.94Z" fill="#212121"/></g><g id="left"><path d="M12.56,16.08a1.45,1.45,0,0,0,1.27.69c.72,0,.82-.11,1.17-.11V13a2.38,2.38,0,0,0-1.65.72,4.44,4.44,0,0,0-.82,1.08A1.6,1.6,0,0,0,12.56,16.08Zm1.14-1.87a.39.39,0,0,1,.49,0,5.51,5.51,0,0,1,.11,1.92c0,.08-.25.07-.29,0a.2.2,0,0,1,.06-.24,1.35,1.35,0,0,0,0-.77c-.1-.12-.37-.29-.42-.4S13.56,14.29,13.7,14.21Z" fill="#212121"/><circle cx="9.23" cy="10.84" r="0.2" fill="#212121"/><polygon points="8.69 10.63 8.96 10.66 8.84 10.81 8.49 10.83 8.18 10.95 8.37 10.72 8.69 10.63" fill="#212121"/><path d="M4.85,20.43l0,.43s-1,.3-1.83.62a6.12,6.12,0,0,0-1.37.73l1.9-.6c.74-.22,1.32-.37,1.32-.37l0,.31s-1.19.59-2.18,1.11a8.65,8.65,0,0,0-1.49.95s1.65-.69,2.27-1l1.42-.7a1,1,0,0,1-.23.31,1.4,1.4,0,0,1-.33.15l.74.17s-1,.52-1.84.95a8.66,8.66,0,0,0-1.32.85s1.29-.49,2-.83.87-.43.87-.43a1.46,1.46,0,0,0,.52.08H6a1.78,1.78,0,0,1-.53.38l-.61.3.76.21-.27.15a3.76,3.76,0,0,0,.56,0,1.14,1.14,0,0,0,.57-.17,3.55,3.55,0,0,0,2,1.3,13.28,13.28,0,0,0,4.08.63,6.52,6.52,0,0,0,2-.08c.28-.12.3-.26.53-.26V22.8c-.65,0-.6.14-1.49.14a7.16,7.16,0,0,1-2.62-.45,4.19,4.19,0,0,1-1.23-1.14,4,4,0,0,1-.3-.49l.39-.18a5.1,5.1,0,0,0,.64.88,1.39,1.39,0,0,0,1.15.58,4.29,4.29,0,0,0,1.94-1.06c.47-.37,1.28-1.29,1.52-1.29V17.16a5.74,5.74,0,0,1-2.15-.23,1.55,1.55,0,0,1-.82-1.1,2.55,2.55,0,0,1,.22-1.43,4.18,4.18,0,0,1,1.18-1.24A3,3,0,0,1,15,12.55V6.08c-.31,0-1.57-1.34-1.57-1.34l.35,1a1.86,1.86,0,0,0-.42-.2,1.38,1.38,0,0,0-.55-.07l.6.34a4.12,4.12,0,0,1-.8-.2c-.35-.14-.78-.28-.78-.28l.39.67-1.07.06.21.16s-.44,0-.51-.11a12.21,12.21,0,0,0-.32-1.2A2.38,2.38,0,0,0,9.75,4a6.45,6.45,0,0,1,.53,1.34,8.44,8.44,0,0,1,.15,1l-.37-.11.26.41a.42.42,0,0,1-.24.12c-.13,0-.15-.23-.58-.71a5.08,5.08,0,0,0-1.24-.89A12.55,12.55,0,0,1,9.2,6.28c.31.45.47.65.47.77s-.24.4-.36.4-.18-.25-.89-.73A5.78,5.78,0,0,0,6.7,6s.8.58,1.37,1,.94.62.94.75a6.2,6.2,0,0,1-.84,1,.71.71,0,0,1,.1-.33c.09-.11.16-.11.16-.24s-.51-.45-.87-.53a3.13,3.13,0,0,0-1.26,0C6.15,7.73,6,8,6,9.23s.1,1.84.31,1.84a.93.93,0,0,0,.62-.64c0-.21-.29-.44-.41-.72a2.78,2.78,0,0,1-.09-1c0-.5,0-.86-.09-.5s-.2.31-.15,0,.1-.36.22-.36.22.07.22.66-.11.92.11,1.22.37.46.37.74-.22.54-.39.89-.2.73-.5,1a4.31,4.31,0,0,1-1.27.46.9.9,0,0,0,.43.23,1.86,1.86,0,0,0,.48.09.8.8,0,0,1-.5.49,3.61,3.61,0,0,1-.62.21.82.82,0,0,0,.34.26l.35.08a1.09,1.09,0,0,1-.58.41,2.76,2.76,0,0,0-.67.36l1.07-.08a1,1,0,0,1-.21.62,4,4,0,0,1-1.22.38l.91.18-.27.13s.34,0,.39.14a3.39,3.39,0,0,1-.12.81s-1.19.23-1.88.46a5.37,5.37,0,0,0-1.18.56l1.65-.4a10.68,10.68,0,0,1,1.31-.22l0,.87s-1.22.2-2.37.51-2,.64-2,.64,1.41-.2,2.61-.44l1.8-.37,0,.37s-1.67.47-2.87.84A11.12,11.12,0,0,0,0,20.6s1.81-.41,2.86-.69,1.85-.53,1.85-.53l.08.78a13.57,13.57,0,0,0-2.14.46,14.6,14.6,0,0,0-2.41.9s.86-.16,2.22-.5Zm7.25,2.89a2.76,2.76,0,0,0,.83.86c.59.36,1.06.13,1.17.24a.29.29,0,0,1,0,.39,1.49,1.49,0,0,1-1.1-.07,2,2,0,0,1-.83-.84A2.81,2.81,0,0,1,12.1,23.32ZM10.44,11A4,4,0,0,0,8.91,9.6c-.27-.07-.47,0-.56,0a.26.26,0,0,1,0-.31c0-.07.16-.13.5-.13s.42,0,1,.6A2.08,2.08,0,0,1,10.44,11Zm.65,6.71a.2.2,0,0,1-.2.2.21.21,0,1,1,0-.41A.2.2,0,0,1,11.09,17.69Zm.4,2a.18.18,0,1,1,.18.18A.18.18,0,0,1,11.49,19.7Zm-.5-.78a.2.2,0,1,1,.39,0,.2.2,0,0,1-.19.19A.2.2,0,0,1,11,18.92Zm-.42,1.13a.19.19,0,0,1,.38,0,.19.19,0,0,1-.38,0Zm-.25-3.36a.22.22,0,0,1,0-.43.21.21,0,0,1,.21.22A.21.21,0,0,1,10.32,16.69ZM10,18.93a.17.17,0,0,1,.34,0,.17.17,0,1,1-.34,0ZM9.7,17.65a.18.18,0,1,1,.18.18A.18.18,0,0,1,9.7,17.65ZM8,11.18c0-.57.24-1.11.91-1.11a.93.93,0,0,1,.89,1,1.28,1.28,0,0,1-.55,1,1,1,0,0,1-.87,0A1,1,0,0,1,8,11.18Z" fill="#212121"/><polygon points="9.58 20.39 9.18 20.54 9 20.2 9.43 20.07 9.58 20.39" fill="#212121"/><path d="M9.08,18.82a2,2,0,0,0,.08.34l-.48.08-.06-.83.45,0A3.87,3.87,0,0,0,9.08,18.82Z" fill="#212121"/><polygon points="9.11 17.62 8.62 17.65 8.72 16.85 9.18 16.83 9.11 17.62" fill="#212121"/><path d="M9.33,16.41H9a8,8,0,0,1,.45-.77A6.48,6.48,0,0,1,10,15s-.34.64-.48.95S9.33,16.41,9.33,16.41Z" fill="#212121"/><polygon points="14.92 21.48 13.95 21.91 13.95 20.89 14.92 20.03 14.92 21.48" fill="#212121"/><polygon points="14.92 21.73 14.56 21.8 14.23 22 14.24 22.71 14.58 22.62 14.92 22.62 14.92 21.73" fill="#212121"/><path d="M9.85,16.85c.13,0,.6-.26.57-.4s-.56-.11-.69-.08.18.07.21.2S9.72,16.88,9.85,16.85Z" fill="#212121"/><path d="M10.38,18.06c.13,0,.6-.27.57-.4s-.55-.11-.68-.08.17.06.2.2S10.25,18.09,10.38,18.06Z" fill="#212121"/><path d="M9.35,18c.14,0,.61-.27.57-.4s-.55-.11-.68-.08.18.06.21.19S9.22,18.06,9.35,18Z" fill="#212121"/><path d="M9.69,19.29c.14,0,.61-.26.57-.39s-.55-.12-.68-.08.18.06.21.19S9.56,19.33,9.69,19.29Z" fill="#212121"/><path d="M10.7,19.31c.13,0,.6-.26.57-.39s-.55-.12-.69-.09.18.07.21.2S10.57,19.34,10.7,19.31Z" fill="#212121"/><path d="M10.2,20.31c.13,0,.64-.13.64-.26s-.52-.23-.65-.23.16.1.16.24S10.06,20.31,10.2,20.31Z" fill="#212121"/><path d="M11.07,19.94c.13,0,.65-.09.66-.22s-.5-.27-.64-.27.15.11.15.24S10.93,19.93,11.07,19.94Z" fill="#212121"/></g></g><g id="frame"><rect width="30" height="30" fill="none"/></g></svg>