<svg xmlns="http://www.w3.org/2000/svg" viewBox="0 0 30 30"><path d="M18.83,27.05a3.19,3.19,0,0,0,.73,1.58c.48.57,1,1.08,1,.89s-.6-1.38-.8-2-.21-1.21-.33-1.21A1.26,1.26,0,0,0,18.83,27.05Z" transform="translate(0)" fill="#212121"/><path d="M18.51,27.3a1.39,1.39,0,0,1-.58,1.06,5.43,5.43,0,0,0-1.23.9A1.94,1.94,0,0,1,15,30V28.63A4.35,4.35,0,0,0,17.39,28C18.1,27.58,18.55,27,18.51,27.3Z" transform="translate(0)" fill="#212121"/><path d="M22.63,20.38c.13.12.47-.76,1.52-1.87a8,8,0,0,1,2.73-2A3.77,3.77,0,0,0,29,14.19a7.69,7.69,0,0,0,.64-2.92c-.13-.14-1,.28-1.56.72a8,8,0,0,0-1.22,1.21,3.2,3.2,0,0,1,.45-.16,1.19,1.19,0,0,1,.36,0s-.41.33-.8.72a3.58,3.58,0,0,0-.59.77,2.64,2.64,0,0,1,.56-.4,1.52,1.52,0,0,1,.5-.17,6.91,6.91,0,0,0-.63.47,2.67,2.67,0,0,0-.45.56,3.14,3.14,0,0,1,.42-.21,1.94,1.94,0,0,1,.33-.08s-.44.35-.78.64a2.6,2.6,0,0,0-.56.76,4.44,4.44,0,0,1,.79-.45c.32-.12.69-.3.69-.3a16.19,16.19,0,0,1-1.4,1.06,26.27,26.27,0,0,0-2.78,2A4.34,4.34,0,0,0,22.63,20.38Z" transform="translate(0)" fill="#212121"/><path d="M22.87,17.9c.2,0,.21-1.06.56-1.64a3.85,3.85,0,0,1,.83-1l-.51.17a3.49,3.49,0,0,1,.43-.39c.25-.19.54-.45.54-.45l-.72.21a3.14,3.14,0,0,1,.69-.51,2.37,2.37,0,0,0,.68-.68,5,5,0,0,1-.64.21,2.28,2.28,0,0,1-.52.05s.25-.19.42-.3a3.12,3.12,0,0,0,.38-.31h-.56a4.76,4.76,0,0,1,1.62-1.14,13.92,13.92,0,0,1,2.75-1.24c.5-.13.92,0,.92-.15s-.6-.15-1.59,0a15.52,15.52,0,0,0-4.49,2.35c-1,.79-1.13,1.14-1.13,2S22.67,17.9,22.87,17.9Z" transform="translate(0)" fill="#212121"/><path d="M20.55,7.17c.27,0,.24-.09.4-.49s.19-.43.19-.58a9.77,9.77,0,0,1-.65-1.3,2.14,2.14,0,0,1,0-1.72c.31-.64.21-.65-.24-.23a2,2,0,0,0-.71,1.78C19.57,5.63,20.25,7.17,20.55,7.17Z" transform="translate(0)" fill="#212121"/><path d="M21.16,7c.12.12,0,0,.89,0a3.17,3.17,0,0,1,1.32.33c.15,0,.35-.48.58-2a7.15,7.15,0,0,0-.35-4.08A2.09,2.09,0,0,0,21.82,0,2.61,2.61,0,0,0,20.1.7c-.36.34-.09.21.36.05S21.54.58,21.79,1a2.37,2.37,0,0,1,.32,1.59,10,10,0,0,1-.53,2.86C21.33,6.24,21,6.85,21.16,7Z" transform="translate(0)" fill="#212121"/><path d="M21.93,7.26c-1.43,0-1.71.44-1.71.8s.39.39.39,1-.29.52-.87.52-.92,0-.92.18.11.15.48.57A2.36,2.36,0,0,1,20,11.8c0,.53-.07.56-.85,1.14a4.31,4.31,0,0,0-1.75,2.7c-.47,1.59-.81,2.16-1,2.16s-.27-.86-.15-2a5.2,5.2,0,0,1,1-2.69c.44-.51.89-.69.89-1.29a2.82,2.82,0,0,0-.39-1.59c-.27-.36-1.9-.35-2.75-.35V17.4a8.6,8.6,0,0,1,1,1.77,9.35,9.35,0,0,1,.61,2.16,8.41,8.41,0,0,0-.58-1.44A3.13,3.13,0,0,0,15,18.54v5.33c.92,0,1,.48,1.07.93s.66.47.66,1-.78.45-1,.61A.34.34,0,0,0,16,27a1.07,1.07,0,0,0,1-.93c0-.43-.15-.87.08-.87a.88.88,0,0,1,.63.87c0,.48,0,.64-.59,1.14a4.3,4.3,0,0,1-1.83.66,7.19,7.19,0,0,0,1.85-.13,4.22,4.22,0,0,0,2-1.76,9.61,9.61,0,0,0,1.18-3.5,6,6,0,0,1-.84,3.62,6,6,0,0,0,.74-.84,16.19,16.19,0,0,0,1.14-2.07,8.89,8.89,0,0,0,.81-3.83c0-1.75-.09-1.82-.09-3.82s.21-1.8.78-2.74a4.19,4.19,0,0,0,.69-2.89,8.61,8.61,0,0,1,.11-1.77C23.69,7.9,23.37,7.26,21.93,7.26Zm-1,10.32a3.52,3.52,0,0,1-1.05.29,1.91,1.91,0,0,0,.78,0,2,2,0,0,0,.73-.41,1.5,1.5,0,0,1-.71.68,3.36,3.36,0,0,1-.75.32,1,1,0,0,0,.5.1c.35,0,.55,0,.55.32s-.35.53-.71.53-.69-.28-1.07-.63-.56-.55-.56-.88.31-.39.42-1.11a1.84,1.84,0,0,1,.4-1.14,2.87,2.87,0,0,1,.72-.49,2.62,2.62,0,0,0-.75,2.23,3.71,3.71,0,0,1,.67-1.62c.5-.52.67-.48.89-.48a.81.81,0,0,1,.67.9A1.65,1.65,0,0,1,20.91,17.58Z" transform="translate(0)" fill="#212121"/><path d="M20.28,16c-.36.6.68.2.6-.24a.07.07,0,0,0,0,0,.49.49,0,0,0-.43.14A.47.47,0,0,0,20.28,16Z" transform="translate(0)" fill="#212121"/><path d="M11.17,27.05a3.19,3.19,0,0,1-.73,1.58c-.48.57-1,1.08-.95.89s.6-1.38.8-2,.21-1.21.33-1.21A1.26,1.26,0,0,1,11.17,27.05Z" transform="translate(0)" fill="#212121"/><path d="M11.49,27.3a1.39,1.39,0,0,0,.58,1.06,5.43,5.43,0,0,1,1.23.9A1.94,1.94,0,0,0,15,30V28.63A4.35,4.35,0,0,1,12.61,28C11.9,27.58,11.45,27,11.49,27.3Z" transform="translate(0)" fill="#212121"/><path d="M7.37,20.38c-.13.12-.47-.76-1.52-1.87a8,8,0,0,0-2.73-2A3.77,3.77,0,0,1,1,14.19a7.69,7.69,0,0,1-.64-2.92c.13-.14,1,.28,1.56.72A8,8,0,0,1,3.16,13.2,3.2,3.2,0,0,0,2.71,13a1.19,1.19,0,0,0-.36,0s.41.33.8.72a3.58,3.58,0,0,1,.59.77,2.64,2.64,0,0,0-.56-.4,1.52,1.52,0,0,0-.5-.17,6.91,6.91,0,0,1,.63.47,2.67,2.67,0,0,1,.45.56,3.14,3.14,0,0,0-.42-.21A1.94,1.94,0,0,0,3,14.65s.44.35.78.64a2.6,2.6,0,0,1,.56.76,4.44,4.44,0,0,0-.79-.45c-.32-.12-.69-.3-.69-.3a16.19,16.19,0,0,0,1.4,1.06,26.27,26.27,0,0,1,2.78,2A4.34,4.34,0,0,1,7.37,20.38Z" transform="translate(0)" fill="#212121"/><path d="M7.13,17.9c-.2,0-.21-1.06-.56-1.64a3.85,3.85,0,0,0-.83-1l.51.17a3.49,3.49,0,0,0-.43-.39c-.25-.19-.54-.45-.54-.45l.72.21a3.14,3.14,0,0,0-.69-.51,2.37,2.37,0,0,1-.68-.68,5,5,0,0,0,.64.21,2.28,2.28,0,0,0,.52.05s-.25-.19-.42-.3A3.12,3.12,0,0,1,5,13.28h.56a4.76,4.76,0,0,0-1.62-1.14,13.92,13.92,0,0,0-2.75-1.24c-.5-.13-.92,0-.92-.15s.6-.15,1.59,0a15.52,15.52,0,0,1,4.49,2.35c1,.79,1.13,1.14,1.13,2S7.33,17.9,7.13,17.9Z" transform="translate(0)" fill="#212121"/><path d="M9.45,7.17c-.27,0-.24-.09-.4-.49s-.19-.43-.19-.58a9.77,9.77,0,0,0,.65-1.3,2.14,2.14,0,0,0,0-1.72c-.31-.64-.21-.65.24-.23a2,2,0,0,1,.71,1.78C10.43,5.63,9.75,7.17,9.45,7.17Z" transform="translate(0)" fill="#212121"/><path d="M8.84,7c-.12.12,0,0-.89,0a3.17,3.17,0,0,0-1.32.33c-.15,0-.35-.48-.58-2A7.15,7.15,0,0,1,6.4,1.13,2.09,2.09,0,0,1,8.18,0,2.61,2.61,0,0,1,9.9.7c.36.34.09.21-.36.05S8.46.58,8.21,1A2.37,2.37,0,0,0,7.89,2.6a10,10,0,0,0,.53,2.86C8.67,6.24,9,6.85,8.84,7Z" transform="translate(0)" fill="#212121"/><path d="M6.31,8.12a8.61,8.61,0,0,1,.11,1.77,4.19,4.19,0,0,0,.69,2.89c.57.94.78.75.78,2.74s-.09,2.07-.09,3.82a8.89,8.89,0,0,0,.81,3.83,16.19,16.19,0,0,0,1.14,2.07,6,6,0,0,0,.74.84,6,6,0,0,1-.84-3.62A9.61,9.61,0,0,0,10.83,26a4.22,4.22,0,0,0,2,1.76,7.19,7.19,0,0,0,1.85.13,4.3,4.3,0,0,1-1.83-.66c-.62-.5-.59-.66-.59-1.14a.88.88,0,0,1,.63-.87c.23,0,.08.44.08.87A1.07,1.07,0,0,0,14,27a.34.34,0,0,0,.26-.6c-.17-.16-1-.11-1-.61s.6-.52.66-1,.15-.93,1.07-.93V18.54a3.13,3.13,0,0,0-1.07,1.35,8.41,8.41,0,0,0-.58,1.44A9.35,9.35,0,0,1,14,19.17a8.6,8.6,0,0,1,1-1.77V9.85c-.85,0-2.48,0-2.75.35a2.82,2.82,0,0,0-.39,1.59c0,.6.45.78.89,1.29a5.2,5.2,0,0,1,1,2.69c.12,1.17,0,2-.15,2s-.52-.57-1-2.16a4.31,4.31,0,0,0-1.75-2.7c-.78-.58-.85-.61-.85-1.14a2.36,2.36,0,0,1,.72-1.48c.37-.42.48-.43.48-.57s-.33-.18-.92-.18-.87.09-.87-.52.39-.64.39-1-.28-.8-1.71-.8S6.31,7.9,6.31,8.12ZM8.36,16.2A.81.81,0,0,1,9,15.3c.22,0,.39,0,.89.48a3.71,3.71,0,0,1,.67,1.62,2.62,2.62,0,0,0-.75-2.23,2.87,2.87,0,0,1,.72.49A1.84,1.84,0,0,1,11,16.8c.11.72.42.78.42,1.11s-.18.54-.56.88-.7.63-1.07.63S9,19.17,9,18.89s.2-.32.55-.32a1,1,0,0,0,.5-.1,3.36,3.36,0,0,1-.75-.32,1.5,1.5,0,0,1-.71-.68,2,2,0,0,0,.73.41,1.91,1.91,0,0,0,.78,0,3.52,3.52,0,0,1-1.05-.29A1.65,1.65,0,0,1,8.36,16.2Z" transform="translate(0)" fill="#212121"/><path d="M9.72,16c.36.6-.68.2-.6-.24a.07.07,0,0,1,0,0,.49.49,0,0,1,.43.14A.47.47,0,0,1,9.72,16Z" transform="translate(0)" fill="#212121"/><rect width="30" height="30" fill="none"/></svg>