<svg xmlns="http://www.w3.org/2000/svg" viewBox="0 0 30 30"><g id="northernpintail"><g id="right"><path d="M19.72,8.82l.13.14.08.09.11.16.09,0,.06-.17a.68.68,0,0,0-.2-.37l0,0-.08-.06-.13-.1h-.12l-.1.11v.13l.09,0Z" transform="translate(0)" fill="#212121"/><polygon points="19.3 8.61 19.36 8.58 19.38 8.42 19.3 8.37 19.04 8.37 18.87 8.42 18.74 8.57 18.84 8.62 19.3 8.61" fill="#212121"/><path d="M23.33,11c-.46-.85-1.07-1.47-1.26-1.9A12.32,12.32,0,0,1,22,6.32a5,5,0,0,0-.54-2.24,6.66,6.66,0,0,0-1.09-1.62c-.26-.28-.7-.45-1.09-.88a5.25,5.25,0,0,0-1.36-1A5.55,5.55,0,0,0,15,0V15.61a1.63,1.63,0,0,0,1.17-.48A5.11,5.11,0,0,0,17,13.61c.18-.46.42-1,.59-1s.33.39.49.8.76,2.35.9,2.68.18.62.52.62.66-.21.89-.21a.56.56,0,0,1,.53.39,2.23,2.23,0,0,1-.07,1.31A8.33,8.33,0,0,1,20.22,20c-.19.36-.28.4.22.31a4.22,4.22,0,0,0,1.67-.94,4.34,4.34,0,0,0,1.43-1.7,4.94,4.94,0,0,0,.59-2.94A8.18,8.18,0,0,0,23.33,11ZM20.5,7.25a2,2,0,0,1,.94-.6c.2,0,.28,0,.28.19s-.29.25-.86.66-.56.68-.76.68A.2.2,0,0,1,19.92,8C19.92,7.82,20.1,7.62,20.5,7.25Zm-1.2.91a1.09,1.09,0,1,1-1.09,1.09A1.09,1.09,0,0,1,19.3,8.16ZM21.38,19c-.2.47-.36.54-.5.54s-.17,0-.18-.13a1.83,1.83,0,0,1,.19-.54,2.79,2.79,0,0,0,.25-.88,3.37,3.37,0,0,0,0-1,1.07,1.07,0,0,0-.37-.54.73.73,0,0,0-.61-.06,3.22,3.22,0,0,1-.7.19c-.21,0-.35-.48-.49-.89s-.4-1.18-.52-1.56A12,12,0,0,0,18,12.88c-.1-.2-.23-.4-.39-.4s-.21,0-.38.32-.25.64-.33.69-.09.06-.12,0,.08-.25.22-.54a8,8,0,0,1,.83-1.28,4.91,4.91,0,0,0,.61-1.06c.08-.17.16-.13.25-.09s.21.05.14.25a3.15,3.15,0,0,0-.16,1.38,10.44,10.44,0,0,0,.69,2.6c.25.65.45.93.73,1s.64,0,1,.17a1.62,1.62,0,0,1,.7,1.41A3.84,3.84,0,0,1,21.38,19Z" transform="translate(0)" fill="#212121"/><path d="M20.1,17c-.33,0-.51.08-.75.08s-.41-.12-.6-.39a4.61,4.61,0,0,1-.39-1.29c-.1-.49-.27-1.12-.38-1.47s-.35-.82-.47-.82-.16.28-.28.58a6.1,6.1,0,0,1-.56,1.16A2.5,2.5,0,0,1,15,15.94v.64c1.13,0,1.77-1.3,2.05-2s.4-1.13.49-1.13.12.13.27.57a5.67,5.67,0,0,1,.06,1.56c0,.23-.11.18-.32.23a1.69,1.69,0,0,0-.68,1A1.29,1.29,0,0,0,17,18c.22.27.35.19.3.32s-.31,1-.54,1.64a9.75,9.75,0,0,0-.51,3.12c0,1.4.1,3.16,0,3.73a3.87,3.87,0,0,1-.55,1.55c-.39.77-.57.82-.7.82V30a4.41,4.41,0,0,0,1.9-.76c.48-.3.34-.39.25-.81a16.1,16.1,0,0,1-.06-2.74,9.52,9.52,0,0,1,.4-2.29c.21-.74.52-1.5.73-2.27a19.12,19.12,0,0,1,.86-2.35,3.93,3.93,0,0,1,.79-1.26c.14-.17.28-.19.28,0a2,2,0,0,1-.34.86c-.27.51-.65,1.56-1,2.59a19.31,19.31,0,0,0-1,3.44,14,14,0,0,0,0,2.89c.05.83.12,1.24.24,1.24s.24-.18.24-.63.05-3.27.06-4a3.4,3.4,0,0,1,.48-1.67c.28-.55,1-1.94,1.33-2.77a5.14,5.14,0,0,0,.64-1.84A.63.63,0,0,0,20.1,17Zm-2.57.92c-.33,0-.41-.34-.41-.61s.28-1.1.58-1.1.4.44.4,1S17.86,17.87,17.53,17.87Z" transform="translate(0)" fill="#212121"/></g><g id="left"><path d="M10.28,8.82,10.15,9l-.08.09L10,9.21l-.09,0-.06-.17a.68.68,0,0,1,.2-.37l0,0,.08-.06.13-.1h.12l.1.11v.13l-.09,0Z" transform="translate(0)" fill="#212121"/><polygon points="10.7 8.61 10.63 8.58 10.62 8.42 10.7 8.37 10.96 8.37 11.13 8.42 11.26 8.57 11.16 8.62 10.7 8.61" fill="#212121"/><path d="M5.87,14.77a4.94,4.94,0,0,0,.59,2.94,4.34,4.34,0,0,0,1.43,1.7,4.22,4.22,0,0,0,1.67.94c.5.09.41,0,.22-.31a8.33,8.33,0,0,1-.63-1.81,2.23,2.23,0,0,1-.07-1.31.56.56,0,0,1,.53-.39c.23,0,.56.21.89.21s.39-.3.52-.62.75-2.27.9-2.68.31-.8.49-.8.41.51.59,1a5.11,5.11,0,0,0,.83,1.52,1.63,1.63,0,0,0,1.17.48V0a5.55,5.55,0,0,0-2.88.58,5.25,5.25,0,0,0-1.36,1c-.39.43-.83.6-1.09.88A6.66,6.66,0,0,0,8.58,4.08,5,5,0,0,0,8,6.32a12.32,12.32,0,0,1-.11,2.75c-.19.43-.8,1-1.26,1.9A8.18,8.18,0,0,0,5.87,14.77ZM10.08,8a.2.2,0,0,1-.18.22c-.2,0-.19-.27-.76-.68S8.29,7,8.28,6.84s.08-.19.28-.19a2,2,0,0,1,.94.6C9.9,7.62,10.08,7.82,10.08,8Zm1.71,1.29A1.09,1.09,0,1,1,10.7,8.16,1.09,1.09,0,0,1,11.79,9.25ZM8.26,17.36A1.62,1.62,0,0,1,9,16c.32-.18.69,0,1-.17s.48-.4.73-1a10.44,10.44,0,0,0,.69-2.6,3.15,3.15,0,0,0-.16-1.38c-.07-.2.05-.21.14-.25s.17-.08.25.09a4.91,4.91,0,0,0,.61,1.06A8,8,0,0,1,13,12.93c.14.29.25.47.22.54s-.05.08-.12,0-.15-.43-.33-.69-.22-.32-.38-.32-.29.2-.39.4a12,12,0,0,0-.47,1.26c-.12.38-.37,1.15-.52,1.56s-.28.88-.49.89a3.22,3.22,0,0,1-.7-.19.73.73,0,0,0-.61.06,1.07,1.07,0,0,0-.37.54,3.37,3.37,0,0,0,0,1,2.79,2.79,0,0,0,.25.88,1.83,1.83,0,0,1,.19.54c0,.11,0,.13-.18.13s-.3-.07-.5-.54A3.84,3.84,0,0,1,8.26,17.36Z" transform="translate(0)" fill="#212121"/><path d="M9.28,17.66a5.14,5.14,0,0,0,.64,1.84c.37.83,1.05,2.22,1.33,2.77a3.4,3.4,0,0,1,.48,1.67c0,.7.06,3.53.06,4s.12.63.24.63.19-.41.24-1.24a14,14,0,0,0,0-2.89,19.31,19.31,0,0,0-1-3.44c-.39-1-.77-2.08-1-2.59a2,2,0,0,1-.34-.86c0-.19.14-.17.28,0a3.93,3.93,0,0,1,.79,1.26,19.12,19.12,0,0,1,.86,2.35c.21.77.52,1.53.73,2.27a9.52,9.52,0,0,1,.4,2.29,16.1,16.1,0,0,1-.06,2.74c-.09.42-.23.51.25.81A4.41,4.41,0,0,0,15,30v-.85c-.13,0-.31,0-.7-.82a3.87,3.87,0,0,1-.55-1.55c-.08-.57,0-2.33,0-3.73a9.75,9.75,0,0,0-.51-3.12c-.23-.66-.49-1.52-.54-1.64s.08-.05.3-.32a1.29,1.29,0,0,0,.11-1.2,1.69,1.69,0,0,0-.68-1c-.21-.05-.32,0-.32-.23A5.67,5.67,0,0,1,12.19,14c.15-.44.18-.57.27-.57s.2.43.49,1.13.92,2,2.05,2v-.64a2.5,2.5,0,0,1-1.67-1.14,6.1,6.1,0,0,1-.56-1.16c-.12-.3-.16-.58-.28-.58s-.37.46-.47.82-.28,1-.38,1.47a4.61,4.61,0,0,1-.39,1.29c-.19.27-.35.39-.6.39S10.23,17,9.9,17A.63.63,0,0,0,9.28,17.66Zm2.62-.54c0-.52.16-1,.4-1s.58.84.58,1.1-.08.61-.41.61S11.9,17.63,11.9,17.12Z" transform="translate(0)" fill="#212121"/></g></g><g id="frame"><rect width="30" height="30" fill="none"/></g></svg>