<svg xmlns="http://www.w3.org/2000/svg" viewBox="0 0 30 30"><g id="plainsbison"><g id="right"><path d="M15.56,20.21c0,.36.37.49.89.49s.75,0,.57.2-.13.27.19,0,0-.44-.07-.54-.11-.31.09-.51.48-.48.48-.64-.34-.68-.27-.3,0,.59-.47.59S15.56,19.34,15.56,20.21Z" transform="translate(0)" fill="#212121"/><path d="M15,21.75a6.74,6.74,0,0,1,1.88.17c.1.09-.13.49-.48.63a3.53,3.53,0,0,1-1.4.32Z" transform="translate(0)" fill="#212121"/><path d="M19.65,12.26a1.24,1.24,0,0,0,1-.21.84.84,0,0,0,.15-.81c-.08-.09-.5,0-.76.32S19.58,12.19,19.65,12.26Z" transform="translate(0)" fill="#212121"/><path d="M21.08,12.24a10.43,10.43,0,0,1,.8-.94.73.73,0,0,0,.33-.54c0-.13-.16-.14-.3-.14a1,1,0,0,0-.58.7C21.28,11.67,21,12.35,21.08,12.24Z" transform="translate(0)" fill="#212121"/><path d="M23.14,11.34c0,.12-.3,0-.57.25s-.37.49-.66.71-.56.24-.44.36.54.12,1.31.12.78-.12.53-.17,0-.08.46-.12,1.05-.4,1.05-.52-.21-.11-.21-.59-.08-.62-.51-1.06-.56-.52-1.07,0-.91.75-.48.75S23.14,11.26,23.14,11.34Z" transform="translate(0)" fill="#212121"/><path d="M21.24,9.19c0,.2.7,1.12,1.06,1.12a5.35,5.35,0,0,0,2.22-1.54A4.45,4.45,0,0,0,26,5.49a5.8,5.8,0,0,0-1-3.43A4.56,4.56,0,0,0,23.47.43c-.25-.18-.16.07.4.85A5.43,5.43,0,0,1,24.13,5,3.8,3.8,0,0,1,22.25,7c-.64.16-.62.22-.62.63s.34.79.34.91-.31.06-.38.14S21.24,9.06,21.24,9.19Z" transform="translate(0)" fill="#212121"/><path d="M19.16,20.25a3.17,3.17,0,0,1,.67-1.48,5.71,5.71,0,0,0,.75-1.91c.17-.69.42-.73.42-1s-.12-.37-.17-.84.13-1.16-.08-.72a3.66,3.66,0,0,0-.36,1.18,3.05,3.05,0,0,1-.63,1.33,4.08,4.08,0,0,0-.52,1.76c0,.49-.28.77-.28,1.08S19.17,20.79,19.16,20.25Z" transform="translate(0)" fill="#212121"/><path d="M19,11.37c.44,0,1.05-.54.65-.16s-.58.53-.4.44.39-.32.18.14-.36.58-.17.77a1.06,1.06,0,0,0,.62.3c.24.05-.09.09-.28.1s0,.23.44.23a1.42,1.42,0,0,0,.92-.41c.17-.15.18.06,0,.41a13,13,0,0,1-.91,1.68,3.2,3.2,0,0,0-.28,1.37c0,.28-.08.16-.18,0s-.16.73-.47,1.4S19,19,18.72,19.48s0,.79,0,1.23-.38.52-.41,1-.12.38-.36,0a1.06,1.06,0,0,1,0-1.1,3.62,3.62,0,0,0,.3-1.66A5,5,0,0,0,17,17c-.38-.43-.31-.47-.08-.86a3.67,3.67,0,0,0,.64-1.26c.05-.45.5-.68.54-1.12s.25-.37.25-.64-.18-.4-.18-.61S18.48,11.37,19,11.37Z" transform="translate(0)" fill="#212121"/><path d="M15,24.27a1.49,1.49,0,0,1,.62-.75,7.82,7.82,0,0,0,1.72-1.26c.16-.35.12-.73.32-.26s.83.51.83,1a2.64,2.64,0,0,0,.5,1.2l-.3-.15a2.25,2.25,0,0,1-.16,1.16,1.67,1.67,0,0,0-.26.72l-.2-.18a.75.75,0,0,1-.09.34.85.85,0,0,0,0,.46l-.29-.27a1.63,1.63,0,0,1,.12.58,1,1,0,0,0,.18.53l-.37-.21s-.19.54-.52.54-.45.53-.45.53l-.15-.11s.09.54-.25.77a2.24,2.24,0,0,0-.59.72l0-.36S15,29.66,15,30Z" transform="translate(0)" fill="#212121"/><path d="M23.35,5A.55.55,0,0,1,23,4.83l.21-.34-.44.13a1.77,1.77,0,0,0,.2-.39,2.35,2.35,0,0,0,.11-.57l-.27.27a5.8,5.8,0,0,0-.1-.65,1.56,1.56,0,0,0-.35-.66,1.05,1.05,0,0,1-.13.37.48.48,0,0,1-.42.3c-.18,0-.37-.2-.56-.54A1.36,1.36,0,0,1,21.17,2l-.31.4a.87.87,0,0,1-.16-.58,1.32,1.32,0,0,0-.12-.63,1.08,1.08,0,0,1-.35.44,1.76,1.76,0,0,1-.7.21,3.59,3.59,0,0,0,.34-.31,1,1,0,0,0,.21-.4,1.18,1.18,0,0,1-.72.16A1.67,1.67,0,0,1,18.45,1l.29-.34a5.5,5.5,0,0,1-.6.12,1.37,1.37,0,0,1-.51,0l.22-.18a1.32,1.32,0,0,0-.4-.06A1.57,1.57,0,0,0,17,.57l.5-.39a3.3,3.3,0,0,0-.92.07,2.8,2.8,0,0,0-.76.24.84.84,0,0,1,.08-.24A1.2,1.2,0,0,1,16.06,0a1.11,1.11,0,0,0-.55.37,1.17,1.17,0,0,0-.18.48A1.57,1.57,0,0,1,15,0V17.1c.48,0,.81.59,1.09.59a2.71,2.71,0,0,1,1.41.8c.44.45.49.74.49.47a1.63,1.63,0,0,0-.82-1.23c-.64-.44-.89-.86-.89-1.09s.31-.54.52-.92S16.85,15,17,15s.21,0,.22-.32.61-1.07.61-1.22-.19-.24-.19-.35.18,0,.18-.22-.17-.07-.17-.29.64-.85.64-1.29a.67.67,0,0,1,.47-.59l.14.1a2.36,2.36,0,0,1,.51-.4c.32-.19,1,0,1.12-.08s0-1.08.41-1.45.17-.59.33-.75a1.28,1.28,0,0,0-.07-1,1.51,1.51,0,0,0-.64-.36,1.93,1.93,0,0,0,.7-.23,2.14,2.14,0,0,0,.7-.61,1.13,1.13,0,0,1-.14.35,1,1,0,0,1-.27.27,2.84,2.84,0,0,0,1.29-.32,2.13,2.13,0,0,0,.83-1.27A1.64,1.64,0,0,1,23.35,5Z" transform="translate(0)" fill="#212121"/></g><g id="left"><path d="M14.44,20.21c0,.36-.37.49-.89.49s-.75,0-.57.2.13.27-.19,0,0-.44.07-.54.11-.31-.09-.51-.48-.48-.48-.64.34-.68.27-.3,0,.59.47.59S14.44,19.34,14.44,20.21Z" transform="translate(0)" fill="#212121"/><path d="M15,21.75a6.74,6.74,0,0,0-1.88.17c-.1.09.13.49.48.63a3.53,3.53,0,0,0,1.4.32Z" transform="translate(0)" fill="#212121"/><path d="M10.35,12.26a1.24,1.24,0,0,1-1-.21.84.84,0,0,1-.15-.81c.08-.09.5,0,.76.32S10.42,12.19,10.35,12.26Z" transform="translate(0)" fill="#212121"/><path d="M8.92,12.24a10.43,10.43,0,0,0-.8-.94.73.73,0,0,1-.33-.54c0-.13.16-.14.3-.14a1,1,0,0,1,.58.7C8.72,11.67,9,12.35,8.92,12.24Z" transform="translate(0)" fill="#212121"/><path d="M6.86,11.34c0,.12.3,0,.57.25s.37.49.66.71.56.24.44.36-.54.12-1.31.12-.78-.12-.53-.17,0-.08-.46-.12-1.05-.4-1.05-.52.21-.11.21-.59.08-.62.51-1.06.56-.52,1.07,0,.91.75.48.75S6.86,11.26,6.86,11.34Z" transform="translate(0)" fill="#212121"/><path d="M8.76,9.19c0,.2-.7,1.12-1.06,1.12A5.35,5.35,0,0,1,5.48,8.77,4.45,4.45,0,0,1,4,5.49,5.8,5.8,0,0,1,5,2.06,4.56,4.56,0,0,1,6.53.43c.25-.18.16.07-.4.85A5.43,5.43,0,0,0,5.87,5,3.8,3.8,0,0,0,7.75,7c.64.16.62.22.62.63S8,8.44,8,8.56s.31.06.38.14S8.76,9.06,8.76,9.19Z" transform="translate(0)" fill="#212121"/><path d="M10.84,20.25a3.17,3.17,0,0,0-.67-1.48,5.71,5.71,0,0,1-.75-1.91c-.17-.69-.42-.73-.42-1s.12-.37.17-.84-.13-1.16.08-.72a3.66,3.66,0,0,1,.36,1.18,3.05,3.05,0,0,0,.63,1.33,4.08,4.08,0,0,1,.52,1.76c0,.49.28.77.28,1.08S10.83,20.79,10.84,20.25Z" transform="translate(0)" fill="#212121"/><path d="M11,11.37c-.44,0-1.05-.54-.65-.16s.58.53.4.44-.39-.32-.18.14.36.58.17.77a1.06,1.06,0,0,1-.62.3c-.24.05.09.09.28.1s0,.23-.44.23A1.42,1.42,0,0,1,9,12.78c-.17-.15-.18.06,0,.41a13,13,0,0,0,.91,1.68,3.2,3.2,0,0,1,.28,1.37c0,.28.08.16.18,0s.16.73.47,1.4.18,1.37.46,1.89,0,.79,0,1.23.38.52.41,1,.12.38.36,0a1.06,1.06,0,0,0,0-1.1,3.62,3.62,0,0,1-.3-1.66A5,5,0,0,1,13,17c.38-.43.31-.47.08-.86a3.67,3.67,0,0,1-.64-1.26c-.05-.45-.5-.68-.54-1.12s-.25-.37-.25-.64.18-.4.18-.61S11.52,11.37,11,11.37Z" transform="translate(0)" fill="#212121"/><path d="M15,24.27a1.49,1.49,0,0,0-.62-.75,7.82,7.82,0,0,1-1.72-1.26c-.16-.35-.12-.73-.32-.26s-.83.51-.83,1a2.64,2.64,0,0,1-.5,1.2l.3-.15a2.25,2.25,0,0,0,.16,1.16,1.67,1.67,0,0,1,.26.72l.2-.18a.75.75,0,0,0,.09.34.85.85,0,0,1,0,.46l.29-.27a1.63,1.63,0,0,0-.12.58,1,1,0,0,1-.18.53l.37-.21s.19.54.52.54.45.53.45.53l.15-.11s-.09.54.25.77a2.24,2.24,0,0,1,.59.72l0-.36s.66.37.66.71Z" transform="translate(0)" fill="#212121"/><path d="M6.65,5A.55.55,0,0,0,7,4.83l-.21-.34.44.13A1.77,1.77,0,0,1,7,4.23a2.35,2.35,0,0,1-.11-.57l.27.27a5.8,5.8,0,0,1,.1-.65,1.56,1.56,0,0,1,.35-.66A1.05,1.05,0,0,0,7.74,3a.48.48,0,0,0,.42.3c.18,0,.37-.2.56-.54A1.36,1.36,0,0,0,8.83,2l.31.4a.87.87,0,0,0,.16-.58,1.32,1.32,0,0,1,.12-.63,1.08,1.08,0,0,0,.35.44,1.76,1.76,0,0,0,.7.21,3.59,3.59,0,0,1-.34-.31,1,1,0,0,1-.21-.4,1.18,1.18,0,0,0,.72.16A1.67,1.67,0,0,0,11.55,1L11.26.62a5.5,5.5,0,0,0,.6.12,1.37,1.37,0,0,0,.51,0L12.15.54a1.32,1.32,0,0,1,.4-.06A1.57,1.57,0,0,1,13,.57l-.5-.39a3.3,3.3,0,0,1,.92.07,2.8,2.8,0,0,1,.76.24.84.84,0,0,0-.08-.24A1.2,1.2,0,0,0,13.94,0a1.11,1.11,0,0,1,.55.37,1.17,1.17,0,0,1,.18.48A1.57,1.57,0,0,0,15,0V17.1c-.48,0-.81.59-1.09.59a2.71,2.71,0,0,0-1.41.8c-.44.45-.49.74-.49.47a1.63,1.63,0,0,1,.82-1.23c.64-.44.89-.86.89-1.09s-.31-.54-.52-.92,0-.71-.24-.71-.21,0-.22-.32-.61-1.07-.61-1.22.19-.24.19-.35-.18,0-.18-.22.17-.07.17-.29-.64-.85-.64-1.29a.67.67,0,0,0-.47-.59l-.14.1a2.36,2.36,0,0,0-.51-.4c-.32-.19-1,0-1.12-.08S9.4,9.27,9,8.9s-.17-.59-.33-.75a1.28,1.28,0,0,1,.07-1,1.51,1.51,0,0,1,.64-.36,1.93,1.93,0,0,1-.7-.23A2.14,2.14,0,0,1,8,5.91a1.13,1.13,0,0,0,.14.35,1,1,0,0,0,.27.27,2.84,2.84,0,0,1-1.29-.32,2.13,2.13,0,0,1-.83-1.27A1.64,1.64,0,0,0,6.65,5Z" transform="translate(0)" fill="#212121"/></g></g><g id="frame"><rect width="30" height="30" fill="none"/></g></svg>