<!-- Copyright (c) 2022 - 2023 Jan Stehno -->
<svg xmlns="http://www.w3.org/2000/svg" viewBox="0 0 300 300"><title>plainsbison</title><g id="plainsbison"><g id="right"><path d="M155.62,202.1c0,3.57,3.65,4.94,8.9,4.94s7.49.14,5.7,1.92-1.28,2.77,1.85.45.28-4.46-.68-5.42-1.11-3.11.88-5.1,4.85-4.81,4.85-6.38-3.41-6.82-2.69-3,.41,5.89-4.73,5.89S155.62,193.44,155.62,202.1Z" transform="translate(0)" fill="#212121"/><path d="M150,217.54c8,0,17.87.67,18.83,1.63s-1.38,4.92-4.79,6.36a36.53,36.53,0,0,1-14,3.17Z" transform="translate(0)" fill="#212121"/><path d="M196.5,122.58c1,1,7.54.16,9.83-2.12s2.25-7.31,1.45-8.11-5,.44-7.63,3.25S195.82,121.9,196.5,122.58Z" transform="translate(0)" fill="#212121"/><path d="M210.82,122.38c1.17-1.16,5.42-7.3,8-9.43s3.21-4.13,3.21-5.37-1.53-1.37-2.93-1.37-5.26,3.49-5.82,7S209.72,123.48,210.82,122.38Z" transform="translate(0)" fill="#212121"/><path d="M231.45,113.36c0,1.2-3,.24-5.74,2.52s-3.73,4.93-6.58,7.1-5.66,2.45-4.45,3.66,5.45,1.16,13.16,1.16,7.74-1.2,5.21-1.69.4-.8,4.7-1.2,10.47-4,10.47-5.22-2.17-1.12-2.17-5.89-.7-6.2-5.05-10.56-5.64-5.23-10.68-.2-9.14,7.51-4.77,7.51S231.45,112.63,231.45,113.36Z" transform="translate(0)" fill="#212121"/><path d="M212.43,91.93c0,1.93,7,11.15,10.59,11.15s12.52-5.93,22.15-15.4,14.76-20,14.76-32.74-2.65-22.23-10.35-34.35S237.22,6.07,234.74,4.31s-1.61.72,3.93,8.5,5.7,28.49,2.65,36.83S228.8,68.58,222.46,70.18s-6.18,2.17-6.18,6.34,3.37,7.87,3.37,9.07-3.05.64-3.77,1.37S212.43,90.57,212.43,91.93Z" transform="translate(0)" fill="#212121"/><path d="M191.65,202.5c-.06-3.85,3.69-11.23,6.66-14.76s5.77-12.28,7.46-19.18,4.25-7.3,4.25-10.35-1.2-3.69-1.68-8.42,1.28-11.56-.81-7.23a38.27,38.27,0,0,0-3.61,11.8c-.72,4.49-4.65,12.28-6.34,13.32s-5.21,12.76-5.21,17.65-2.73,7.63-2.73,10.76S191.73,207.88,191.65,202.5Z" transform="translate(0)" fill="#212121"/><path d="M190.44,113.71c4.33,0,10.43-5.41,6.5-1.6s-5.8,5.26-4,4.39,3.87-3.2,1.81,1.37-3.64,5.84-1.71,7.72a11,11,0,0,0,6.22,3c2.37.44-.9.84-2.88,1s.23,2.29,4.44,2.29,7.59-2.57,9.23-4.09,1.81.6.2,4.09-6.66,13.56-9.11,16.81-2.6,10.92-2.8,13.68-.85,1.65-1.81-.48-1.64,7.3-4.69,14-1.77,13.73-4.66,18.94,0,7.87,0,12.28-3.77,5.19-4.09,10.46-1.2,3.72-3.53,0-1.85-6.85,0-11a37.27,37.27,0,0,0,3-16.61c-.48-5.78-8.43-15.25-12.28-19.58s-3.13-4.74-.8-8.59,5.78-8.1,6.34-12.6,5.05-6.82,5.45-11.23,2.49-3.69,2.49-6.42-1.76-4-1.76-6.1S184.83,113.71,190.44,113.71Z" transform="translate(0)" fill="#212121"/><path d="M150,242.71s1-3.94,6.18-7.47,15.57-9.22,17.21-12.67,1.16-7.31,3.17-2.61,8.31,5.12,8.31,10.28,5,12,5,12l-3-1.53s.88,7.34-1.6,11.56a16.22,16.22,0,0,0-2.53,7.26l-2-1.85a8.44,8.44,0,0,1-1,3.45c-.88,1.49-.28,4.58-.28,4.58L176.64,263a17.08,17.08,0,0,1,1.2,5.86,10,10,0,0,0,1.77,5.29L175.92,272s-1.89,5.37-5.26,5.37-4.49,5.38-4.49,5.38l-1.49-1.17s1,5.46-2.44,7.75-6,7.14-6,7.14l.32-3.57S150,296.59,150,300Z" transform="translate(0)" fill="#212121"/><path d="M233.45,50c-1.56,0-3.17-1.72-3.17-1.72l2.17-3.41L228,46.19a15.44,15.44,0,0,0,2-3.89,25.12,25.12,0,0,0,1.13-5.74l-2.71,2.76a63.11,63.11,0,0,0-1.07-6.53,14.34,14.34,0,0,0-3.49-6.58,10.93,10.93,0,0,1-1.24,3.65c-1,1.89-2.33,3-4.17,3s-3.77-2-5.66-5.41-1.12-7.87-1.12-7.87l-3,4A8.92,8.92,0,0,1,207,17.79a12.79,12.79,0,0,0-1.16-6.3,11.12,11.12,0,0,1-3.49,4.37c-2.45,1.77-7,2.17-7,2.17a41.79,41.79,0,0,0,3.33-3.13,11.37,11.37,0,0,0,2.16-4s-2,1.6-7.22,1.6a16.63,16.63,0,0,1-9.11-2.89l2.93-3.49a46.61,46.61,0,0,1-6,1.28,13.42,13.42,0,0,1-5.1-.2l2.17-1.8a13.21,13.21,0,0,0-4-.6,16.65,16.65,0,0,0-4.73.84l5-3.85a34.25,34.25,0,0,0-9.25.66,29.56,29.56,0,0,0-7.53,2.41,7.26,7.26,0,0,1,.73-2.43,12.28,12.28,0,0,1,2-2.46s-3.86,1.15-5.51,3.66a11.08,11.08,0,0,0-1.82,4.82S150,4.41,150,.08V33.61l8.47-2.46L150,38V171c4.79,0,8.14,5.85,10.87,5.85s9.79,3.41,14.17,8,4.89,7.42,4.85,4.74-1.76-8-8.18-12.32-8.91-8.55-8.91-10.91,3.13-5.34,5.21-9.19.45-7.1,2.37-7.1,2.09,0,2.21-3.13,6.1-10.7,6.1-12.26-1.89-2.39-1.89-3.51,1.79-.28,1.79-2.17-1.71-.72-1.71-2.89,6.42-8.5,6.42-12.92,4.74-5.85,4.74-5.85l1.38,1a24.37,24.37,0,0,1,5.12-4c3.12-1.85,10.19.16,11.15-.8s.36-10.8,4.09-14.53,1.71-5.88,3.29-7.46.8-8.19-.64-10.35S206,67.48,206,67.48a19.3,19.3,0,0,0,7-2.27,20.45,20.45,0,0,0,7-6.14,12.07,12.07,0,0,1-1.36,3.53,10.34,10.34,0,0,1-2.77,2.69,27.73,27.73,0,0,0,12.92-3.21c6.26-3.45,8.26-12.72,8.26-12.72A14.78,14.78,0,0,1,233.45,50Z" transform="translate(0)" fill="#212121"/></g><g id="left"><path d="M144.38,202.1c0,3.57-3.65,4.94-8.9,4.94s-7.49.14-5.7,1.92,1.28,2.77-1.85.45-.28-4.46.68-5.42,1.11-3.11-.88-5.1-4.85-4.81-4.85-6.38,3.41-6.82,2.69-3-.41,5.89,4.73,5.89S144.38,193.44,144.38,202.1Z" transform="translate(0)" fill="#212121"/><path d="M150,217.54c-8,0-17.87.67-18.83,1.63s1.38,4.92,4.79,6.36a36.53,36.53,0,0,0,14,3.17Z" transform="translate(0)" fill="#212121"/><path d="M103.5,122.58c-1,1-7.54.16-9.83-2.12s-2.25-7.31-1.45-8.11,5,.44,7.63,3.25S104.18,121.9,103.5,122.58Z" transform="translate(0)" fill="#212121"/><path d="M89.18,122.38c-1.17-1.16-5.42-7.3-8-9.43s-3.21-4.13-3.21-5.37,1.53-1.37,2.93-1.37,5.26,3.49,5.82,7S90.28,123.48,89.18,122.38Z" transform="translate(0)" fill="#212121"/><path d="M68.55,113.36c0,1.2,3,.24,5.74,2.52s3.73,4.93,6.58,7.1,5.66,2.45,4.45,3.66-5.45,1.16-13.16,1.16-7.74-1.2-5.21-1.69-.4-.8-4.7-1.2-10.47-4-10.47-5.22S54,118.57,54,113.8s.7-6.2,5-10.56S64.64,98,69.68,103s9.14,7.51,4.77,7.51S68.55,112.63,68.55,113.36Z" transform="translate(0)" fill="#212121"/><path d="M87.57,91.93c0,1.93-7,11.15-10.59,11.15s-12.52-5.93-22.15-15.4-14.76-20-14.76-32.74,2.65-22.23,10.35-34.35S62.78,6.07,65.26,4.31s1.61.72-3.93,8.5-5.7,28.49-2.65,36.83S71.2,68.58,77.54,70.18s6.18,2.17,6.18,6.34-3.37,7.87-3.37,9.07,3.05.64,3.77,1.37S87.57,90.57,87.57,91.93Z" transform="translate(0)" fill="#212121"/><path d="M108.35,202.5c.06-3.85-3.69-11.23-6.66-14.76s-5.77-12.28-7.46-19.18S90,161.26,90,158.21s1.2-3.69,1.68-8.42-1.28-11.56.81-7.23a38.27,38.27,0,0,1,3.61,11.8c.72,4.49,4.65,12.28,6.34,13.32s5.21,12.76,5.21,17.65,2.73,7.63,2.73,10.76S108.27,207.88,108.35,202.5Z" transform="translate(0)" fill="#212121"/><path d="M109.56,113.71c-4.33,0-10.43-5.41-6.5-1.6s5.8,5.26,4,4.39-3.87-3.2-1.81,1.37,3.64,5.84,1.71,7.72a11,11,0,0,1-6.22,3c-2.37.44.9.84,2.88,1s-.23,2.29-4.44,2.29-7.59-2.57-9.23-4.09-1.81.6-.2,4.09,6.66,13.56,9.11,16.81,2.6,10.92,2.8,13.68.85,1.65,1.81-.48,1.64,7.3,4.69,14,1.77,13.73,4.66,18.94,0,7.87,0,12.28,3.77,5.19,4.09,10.46,1.2,3.72,3.53,0,1.85-6.85,0-11a37.27,37.27,0,0,1-3-16.61c.48-5.78,8.43-15.25,12.28-19.58s3.13-4.74.8-8.59-5.78-8.1-6.34-12.6-5-6.82-5.45-11.23-2.49-3.69-2.49-6.42,1.76-4,1.76-6.1S115.17,113.71,109.56,113.71Z" transform="translate(0)" fill="#212121"/><path d="M150,242.71s-1-3.94-6.18-7.47-15.57-9.22-17.21-12.67-1.16-7.31-3.17-2.61-8.31,5.12-8.31,10.28-5,12-5,12l3-1.53s-.88,7.34,1.6,11.56a16.22,16.22,0,0,1,2.53,7.26l2-1.85a8.44,8.44,0,0,0,1,3.45c.88,1.49.28,4.58.28,4.58l2.85-2.73a17.08,17.08,0,0,0-1.2,5.86,10,10,0,0,1-1.77,5.29l3.69-2.12s1.89,5.37,5.26,5.37,4.49,5.38,4.49,5.38l1.49-1.17s-1,5.46,2.44,7.75,6,7.14,6,7.14l-.32-3.57S150,296.59,150,300Z" transform="translate(0)" fill="#212121"/><path d="M66.55,50c1.56,0,3.17-1.72,3.17-1.72l-2.17-3.41L72,46.19a15.44,15.44,0,0,1-2-3.89,25.12,25.12,0,0,1-1.13-5.74l2.71,2.76a63.11,63.11,0,0,1,1.07-6.53,14.34,14.34,0,0,1,3.49-6.58,10.93,10.93,0,0,0,1.24,3.65c1,1.89,2.33,3,4.17,3s3.77-2,5.66-5.41,1.12-7.87,1.12-7.87l3,4A8.92,8.92,0,0,0,93,17.79a12.79,12.79,0,0,1,1.16-6.3,11.12,11.12,0,0,0,3.49,4.37c2.45,1.77,7,2.17,7,2.17a41.79,41.79,0,0,1-3.33-3.13,11.37,11.37,0,0,1-2.16-4s2,1.6,7.22,1.6a16.63,16.63,0,0,0,9.11-2.89l-2.93-3.49a46.61,46.61,0,0,0,6,1.28,13.42,13.42,0,0,0,5.1-.2l-2.17-1.8a13.21,13.21,0,0,1,4-.6,16.65,16.65,0,0,1,4.73.84l-5-3.85a34.25,34.25,0,0,1,9.25.66,29.56,29.56,0,0,1,7.53,2.41,7.26,7.26,0,0,0-.73-2.43,12.28,12.28,0,0,0-2-2.46s3.86,1.15,5.51,3.66a11.08,11.08,0,0,1,1.82,4.82S150,4.41,150,.08V33.61l-8.47-2.46L150,38V171c-4.79,0-8.14,5.85-10.87,5.85s-9.79,3.41-14.17,8-4.89,7.42-4.85,4.74,1.76-8,8.18-12.32,8.91-8.55,8.91-10.91-3.13-5.34-5.21-9.19-.45-7.1-2.37-7.1-2.09,0-2.21-3.13-6.1-10.7-6.1-12.26,1.89-2.39,1.89-3.51-1.79-.28-1.79-2.17,1.71-.72,1.71-2.89-6.42-8.5-6.42-12.92-4.74-5.85-4.74-5.85l-1.38,1a24.37,24.37,0,0,0-5.12-4c-3.12-1.85-10.19.16-11.15-.8S94,92.69,90.22,89s-1.71-5.88-3.29-7.46-.8-8.19.64-10.35S94,67.48,94,67.48a19.3,19.3,0,0,1-7-2.27,20.45,20.45,0,0,1-7-6.14,12.07,12.07,0,0,0,1.36,3.53,10.34,10.34,0,0,0,2.77,2.69A27.73,27.73,0,0,1,71.2,62.08c-6.26-3.45-8.26-12.72-8.26-12.72A14.78,14.78,0,0,0,66.55,50Z" transform="translate(0)" fill="#212121"/></g></g><g id="frame"><rect width="300" height="300" fill="none"/></g></svg>