<!-- Copyright (c) 2022 Jan Stehno -->
<svg xmlns="http://www.w3.org/2000/svg" viewBox="0 0 300 300"><title>pronghorn</title><g id="pronghorn"><g id="right"><path d="M177.68,139.19c0,2,3.85,10.06,7.92,14.2s6.85,4.06,9.06,4.06,17.12-18.83,27.68-41.23,16.27-38.53,18-49.37-.71-7.28-9.84,12-14.84,25.69-12.13,18.27,11.13-25.26,11.13-54.65S216.35,4.92,206.22.92,176.68,7.2,181.39,7.2s27.83-1.57,33.53,15,3.57,39.81-4.71,62.93-25.47,52.15-26.82,53.51S177.68,137,177.68,139.19Z" transform="translate(0 0)" fill="#212121"/><path d="M150,290.62c7.63,0,14.48-.47,17.91-3.11s8.1-6.35,4.92-1S162.59,300,150,300Z" transform="translate(0 0)" fill="#212121"/><path d="M187.48,203.68c1.62,0,4.38,3.86,7.37,3.86s5.42-7.71,5.42-2.38,0,11.41-2.94,17.64-3.1,6.57-8.66-.23S184.82,203.68,187.48,203.68Z" transform="translate(0 0)" fill="#212121"/><path d="M202.15,191.88c-4.32-3.65-5.4-4.24-8.33-2.51a3.09,3.09,0,1,1-4,4.09c-1.65,2.91-1.14,5.61-.47,6.66a5.12,5.12,0,0,0,4.38,2.09,5.73,5.73,0,0,0,5.57-4.76c.52-2.52.88-2.92,2-2.92A1.44,1.44,0,0,0,202.15,191.88Z" transform="translate(0 0)" fill="#212121"/><path d="M215.92,137.69c-6.42,11.77-17.91,24.12-20.83,24.12s-12.2-5-16.05-13S174.9,140,173.12,140,165.17,151,150,151v18.46c2.59-2.59,6.8-3.05,13.41-3.05s9-7.13,9-4-1.38,8-8.7,8S153,173.77,150,176.76V214.1c1.52,0,2.33,2.19,2.33,7.75s-.81,7.47-2.33,7.47v31.82c5.3,0,11.46-3.47,12.56-7.47a12.88,12.88,0,0,0,0-7.08s6.27,7.13,6.27,14-14.5,16.07-15.36,17.79-1.19,5,.05,6.23,9.32,1.09,15.12-3.05,12-14.55,16.75-25.82,5.92-17.34,5.92-19.12-7.56-7.71-9.78-17.7,3.71-15.55,3.71-17.91-.92-2.06-.92-5.49,3.14-7.28,5.63-7.28,5.28-5.85,8.49-5.85,2.79,2.79,4.28,2.79.08-5.43,1.57-8.78,9.35-17.26,13.84-27.68,4.14-16.91,4.57-21.33S222.34,125.92,215.92,137.69Zm-42.09,123c.86,5.78-2.5-3.92-1.71-9.7s.85-14.56-4.28-32.89-3.21-25,5.63-32.47-3.56,6.64-3.56,14.42S177,231.22,177,238.86,173.14,256,173.83,260.69ZM214.5,149.46c-4.5,10.35-9.87,19.79-10.85,18.8-3.73-3.73-5-3.28-1.21-7.42s3.39-4,3.39-.5.5-1.21,6.56-11.91S219,139.12,214.5,149.46Z" transform="translate(0 0)" fill="#212121"/></g><g id="left"><path d="M122.32,139.19c0,2-3.85,10.06-7.92,14.2s-6.85,4.06-9.06,4.06-17.12-18.83-27.68-41.23-16.27-38.53-18-49.37.71-7.28,9.84,12S84.36,104.52,81.65,97.1,70.52,71.84,70.52,42.45,83.65,4.92,93.78.92,123.32,7.2,118.61,7.2s-27.83-1.57-33.53,15S81.51,62,89.79,85.11s25.47,52.15,26.82,53.51S122.32,137,122.32,139.19Z" transform="translate(0 0)" fill="#212121"/><path d="M150,290.62c-7.63,0-14.48-.47-17.91-3.11s-8.1-6.35-4.92-1S137.41,300,150,300Z" transform="translate(0 0)" fill="#212121"/><path d="M112.52,203.68c-1.62,0-4.38,3.86-7.37,3.86s-5.42-7.71-5.42-2.38,0,11.41,2.94,17.64,3.1,6.57,8.66-.23S115.18,203.68,112.52,203.68Z" transform="translate(0 0)" fill="#212121"/><path d="M97.85,191.88c4.32-3.65,5.4-4.24,8.33-2.51a3.09,3.09,0,1,0,4,4.09c1.65,2.91,1.14,5.61.47,6.66a5.12,5.12,0,0,1-4.38,2.09,5.73,5.73,0,0,1-5.57-4.76c-.52-2.52-.88-2.92-2-2.92A1.44,1.44,0,0,1,97.85,191.88Z" transform="translate(0 0)" fill="#212121"/><path d="M77.3,127.42c.43,4.42.07,10.91,4.57,21.33s12.34,24.33,13.84,27.68.07,8.78,1.57,8.78,1.07-2.79,4.28-2.79,6,5.85,8.49,5.85,5.63,3.86,5.63,7.28-.92,3.14-.92,5.49,5.92,7.92,3.71,17.91-9.78,15.91-9.78,17.7,1.21,7.84,5.92,19.12,10.94,21.69,16.75,25.82,13.88,4.28,15.12,3.05.9-4.52.05-6.23-15.36-10.9-15.36-17.79,6.27-14,6.27-14a12.88,12.88,0,0,0,0,7.08c1.1,4,7.26,7.47,12.56,7.47V229.32c-1.52,0-2.33-1.9-2.33-7.47s.81-7.75,2.33-7.75V176.76c-3-3-6.42-6.46-13.75-6.46s-8.7-4.86-8.7-8,2.43,4,9,4,10.82.46,13.41,3.05V151C134.83,151,128.67,140,126.88,140s-2.06.79-5.92,8.78-13.12,13-16,13S90.5,149.46,84.08,137.69,76.87,123,77.3,127.42ZM123,238.86c0-7.64,7.13-31,7.13-38.81s-12.41-21.84-3.56-14.42,10.77,14.13,5.63,32.47-5.06,27.11-4.28,32.89-2.57,15.48-1.71,9.7C126.86,256,123,246.49,123,238.86ZM87.61,148.43c6.06,10.7,6.56,15.41,6.56,11.91s-.39-3.64,3.39.5,2.52,3.69-1.21,7.42c-1,1-6.35-8.45-10.85-18.8S81.54,137.73,87.61,148.43Z" transform="translate(0 0)" fill="#212121"/></g></g><g id="frame"><rect width="300" height="300" fill="none"/></g></svg>