<svg xmlns="http://www.w3.org/2000/svg" viewBox="0 0 30 30"><path d="M17.77,13.92a3.44,3.44,0,0,0,.79,1.42,1.11,1.11,0,0,0,.91.41,13.14,13.14,0,0,0,2.76-4.13A20.1,20.1,0,0,0,24,6.68c.17-1.08-.07-.72-1,1.2s-1.49,2.57-1.22,1.83A13.52,13.52,0,0,0,23,4.24C23,1.31,21.64.49,20.62.09s-2.95.63-2.48.63,2.78-.16,3.35,1.5A10,10,0,0,1,21,8.51a31.39,31.39,0,0,1-2.68,5.35C18.2,14,17.77,13.7,17.77,13.92Z" transform="translate(0 0)" fill="#212121"/><path d="M15,29.06a3.25,3.25,0,0,0,1.79-.31c.34-.26.81-.63.49-.1A2.61,2.61,0,0,1,15,30Z" transform="translate(0 0)" fill="#212121"/><path d="M18.75,20.37c.16,0,.44.38.74.38S20,20,20,20.52a4,4,0,0,1-.3,1.76c-.29.62-.31.66-.86,0S18.48,20.37,18.75,20.37Z" transform="translate(0 0)" fill="#212121"/><path d="M20.22,19.19c-.44-.37-.54-.43-.84-.25a.3.3,0,0,1,.19.28.31.31,0,0,1-.31.31.31.31,0,0,1-.28-.18.72.72,0,0,0-.05.66.54.54,0,0,0,.44.21.57.57,0,0,0,.56-.47c.05-.26.09-.3.19-.3S20.37,19.32,20.22,19.19Z" transform="translate(0 0)" fill="#212121"/><path d="M21.59,13.77a6.32,6.32,0,0,1-2.08,2.41,2.55,2.55,0,0,1-1.61-1.3c-.38-.8-.41-.88-.59-.88A3.45,3.45,0,0,1,15,15.1v1.84c.26-.26.68-.3,1.34-.3s.9-.71.9-.4-.13.79-.87.79a1.74,1.74,0,0,0-1.37.65v3.73c.15,0,.23.22.23.78s-.08.74-.23.74v3.18a1.37,1.37,0,0,0,1.26-.74,1.28,1.28,0,0,0,0-.71,2.59,2.59,0,0,1,.62,1.4c0,.69-1.45,1.61-1.53,1.78a.65.65,0,0,0,0,.62,1.76,1.76,0,0,0,1.51-.3,6.57,6.57,0,0,0,1.68-2.58,6.74,6.74,0,0,0,.59-1.92,6,6,0,0,1-1-1.76,2.89,2.89,0,0,1,.37-1.8c0-.23-.09-.2-.09-.54s.32-.73.57-.73.52-.59.84-.59.28.28.43.28,0-.54.16-.88.93-1.72,1.38-2.77a5.52,5.52,0,0,0,.46-2.13C22.31,12.3,22.23,12.59,21.59,13.77Zm-4.21,12.3c.09.58-.25-.39-.17-1a7.82,7.82,0,0,0-.43-3.29c-.51-1.83-.32-2.5.57-3.25S17,19.23,17,20s.71,3.12.71,3.89S17.31,25.6,17.38,26.07ZM21.45,15c-.45,1-1,2-1.08,1.88-.38-.38-.5-.33-.13-.75s.34-.4.34,0,.05-.12.66-1.19S21.9,13.91,21.45,15Z" transform="translate(0 0)" fill="#212121"/><path d="M12.23,13.92a3.44,3.44,0,0,1-.79,1.42,1.11,1.11,0,0,1-.91.41,13.14,13.14,0,0,1-2.76-4.13A20.1,20.1,0,0,1,6,6.68C5.8,5.6,6,6,7,7.88s1.49,2.57,1.22,1.83A13.52,13.52,0,0,1,7.05,4.24C7.05,1.31,8.36.49,9.38.09s2.95.63,2.48.63S9.08.56,8.51,2.22A10,10,0,0,0,9,8.51a31.39,31.39,0,0,0,2.68,5.35C11.8,14,12.23,13.7,12.23,13.92Z" transform="translate(0 0)" fill="#212121"/><path d="M15,29.06a3.25,3.25,0,0,1-1.79-.31c-.34-.26-.81-.63-.49-.1A2.61,2.61,0,0,0,15,30Z" transform="translate(0 0)" fill="#212121"/><path d="M11.25,20.37c-.16,0-.44.38-.74.38S10,20,10,20.52a4,4,0,0,0,.3,1.76c.29.62.31.66.86,0S11.52,20.37,11.25,20.37Z" transform="translate(0 0)" fill="#212121"/><path d="M9.78,19.19c.44-.37.54-.43.84-.25a.3.3,0,0,0-.19.28.31.31,0,0,0,.31.31.31.31,0,0,0,.28-.18.72.72,0,0,1,.05.66.54.54,0,0,1-.44.21.57.57,0,0,1-.56-.47c-.05-.26-.09-.3-.19-.3S9.63,19.32,9.78,19.19Z" transform="translate(0 0)" fill="#212121"/><path d="M7.73,12.74a5.52,5.52,0,0,0,.46,2.13c.45,1.05,1.23,2.44,1.38,2.77s0,.88.16.88.1-.28.43-.28.59.59.84.59.57.38.57.73-.09.31-.09.54a2.89,2.89,0,0,1,.37,1.8,6,6,0,0,1-1,1.76,6.74,6.74,0,0,0,.59,1.92,6.57,6.57,0,0,0,1.68,2.58,1.76,1.76,0,0,0,1.51.3.65.65,0,0,0,0-.62c-.08-.17-1.53-1.09-1.53-1.78a2.59,2.59,0,0,1,.62-1.4,1.28,1.28,0,0,0,0,.71,1.37,1.37,0,0,0,1.26.74V22.93c-.15,0-.23-.19-.23-.74s.08-.78.23-.78V17.68A1.74,1.74,0,0,0,13.63,17c-.74,0-.87-.49-.87-.79s.24.4.9.4,1.08,0,1.34.3V15.1A3.45,3.45,0,0,1,12.69,14c-.18,0-.21.08-.59.88a2.55,2.55,0,0,1-1.61,1.3,6.32,6.32,0,0,1-2.08-2.41C7.77,12.59,7.69,12.3,7.73,12.74ZM12.3,23.89c0-.77.71-3.11.71-3.89s-1.24-2.18-.36-1.44,1.08,1.42.57,3.25a7.82,7.82,0,0,0-.43,3.29c.08.58-.26,1.55-.17,1S12.3,24.65,12.3,23.89Zm-3.54-9c.61,1.07.66,1.54.66,1.19s0-.36.34,0,.25.37-.13.75C9.54,16.92,9,16,8.55,15S8.15,13.77,8.76,14.84Z" transform="translate(0 0)" fill="#212121"/><rect width="30" height="30" fill="none"/></svg>