<!-- Copyright (c) 2023 Jan Stehno -->
<svg xmlns="http://www.w3.org/2000/svg" viewBox="0 0 300 300">
    <title>puma</title>
    <g id="puma">
        <g id="right">
            <path
                d="M150,269c4.59,0,10.44,2.77,17.1,6.25s10,5.41,11.79,5.41,8.6-2.32,10.34-4.54,1-3,2-3.82,5.75-.88,4.78.25S181.21,293,172.9,296s-12,4-15,4-5.26-2.66-7.92-2.66Z"
                transform="translate(0)" fill="#212121" />
            <path
                d="M150,225.07c3.07,0,8.26-1.89,10.05-2.85s3.77-2.71,8.69-2.71c7.93,0,11.41,4.74,11.41,4.74a36.19,36.19,0,0,0-6.77-.73c-3.43,0-11.83,6.19-11.83,12.47s-5.22,9-11.55,9Z"
                transform="translate(0)" fill="#212121" />
            <path
                d="M266.33,0c-13.27,0-13.52,3.35-21,4.9S239.41,12.24,229,17.78,213.77,32.47,210.29,35s-4.64,2.71-2.83,9.92,2.83,13,8.24,15.46,16.75,22.29,16.75,22.29-6.79-8-10.27-10.89a24.32,24.32,0,0,0-5.61-3.76,12.07,12.07,0,0,1,1.65,4.25c.09,1.74-1.16,4.54-4.16-1.16s-10.24-13.53-17.58-20.1-9.18-8.6-13.82-8.6S168.17,44.87,164,45.54s-5.31.1-4.93,6.19S153,71.66,150,71.66V219.18c2.13,0,7.87-2.71,17.25-2.71s14,5.41,14,5.41-2.32-3.53-2.56-6.62a10.41,10.41,0,0,1,1-5.36,17.07,17.07,0,0,0,3.1,9.13c3.14,4.44,4.29,6.18-.49,10.43s-6.38,4.69-11,4.84-7,1-6.62,5-2.32,8.94-9.62,9.23a28.34,28.34,0,0,1-1.59,6.28,24.28,24.28,0,0,0-1.93,7.63c0,1.64,5.79,0,13.57,3.14s11.69,4.69,22.61,3.38a61.69,61.69,0,0,0,17.78-4.59s-4.06.92-7.1-.91-6.52-7.35-6.52-7.35,7.29,5.46,13.09,5.51,10.58-9,10.58-9a11.59,11.59,0,0,1-7.59.54,15.15,15.15,0,0,1-6.13-3.58s11.4,1.31,13.91-.63.73-10.92-3.81-17.24a138.51,138.51,0,0,0-11.55-13.44s5.36,2,7.44,3.58a26,26,0,0,1,4.44,5,27.07,27.07,0,0,1,8.39-10.21c6.06-4.5,17.4-12.88,20.62-18.61s5.86-24.54,5.86-24.54,3.86,12.94.19,23.31-7.92,7-18.1,17.46-11.34,15.4-10.82,17.78,2.64,4.57,2.9,7a22.6,22.6,0,0,1,.06,4.32,14.65,14.65,0,0,1,4-5.61c2.57-1.93,9.92-4.31,13.39-7.92s11.66-4.51,18.88-12.24S270,200.33,270.15,187.1s2.63-20.39,2.63-40.75-5.41-25.63-11.21-32.46-8.25-12.37-7.86-15.78,2.19-4.19,2.19-4.19S245.53,82.32,242.44,77s-3.55-7.73-3.55-7.73a39.54,39.54,0,0,0,4.9,5.41,23.1,23.1,0,0,0,4.12,3,23.12,23.12,0,0,1-2.83-7.93,31.21,31.21,0,0,1,.83-8.76,10,10,0,0,0,7.15,6.89s-3-5.6-3-9.92.77-11.53,7.47-12.75,8.31-3.67,8.31-3.67a7.56,7.56,0,0,0-3.67.26,10.29,10.29,0,0,0-2.83,1.48,24.37,24.37,0,0,1,6.05-5.41c3.67-2.26,3.8-3.42,6.44-5.09a11.48,11.48,0,0,0,3.8-3.87s-4,1.94-6.95.2-2.06-6.77-2.06-6.77a8.84,8.84,0,0,0,3,1.55,6.7,6.7,0,0,0,3.09-.07,16.92,16.92,0,0,1-4.31-3.15,6.25,6.25,0,0,1-1.68-3.55,12.79,12.79,0,0,0,3.54-1.54c1.87-1.16,1.55-2.38,3.35-2.71s6,3.87,8.44,11.73,5.35,26-6.44,39.58-16,15.36-16,15.36,5.61,10,7.28,16.82,5.28,18.68,5.28,18.68,3.48-6.19,6.83-17.78,1.93-14.17-.26-20-.51-10.18,2.84-13.53,4.38-6.57,4.76-13.4,2.45-12.36,2.32-23.44S279.6,0,266.33,0ZM171.16,153S161,147.48,161,133.18s14.5-24.83,14.5-24.83-3.19,4.15-5.9,8.4-5.21,8.8-5.21,16.72S171.16,153,171.16,153Zm52.27-12.08c-4.92,2.32-3.67,2.7-4.34,5.89a24.09,24.09,0,0,1-7.15,11.69c-3.77,3.19-11.5,3-17.94,2.36s-5.22.51-6.12,1.41-3,.52-3.87,1.87-.77,6.12,1.55,11.47a97.21,97.21,0,0,1,4.25,14.1,44.68,44.68,0,0,0-9.95-13.52c-3.68-3.29-3.68-4.16-3.68-9.86s1.55-8.12,8.12-14.4,10.82-10.14,22.9-11.88,16.14-4.64,16.14-15.65-4.25-17.49-4.25-17.49,2,1.35,6.47,7.15,6.67,12,6.67,16.23S228.36,138.59,223.43,140.91Z"
                transform="translate(0)" fill="#212121" />
            <path
                d="M195.19,155.6l3.54-3.29s5,2.77,7.89-.16,2.26-5.48,2.26-5.48l4.89-1.48a11.86,11.86,0,0,1-4.7,11.6C202.79,161.59,195.19,155.6,195.19,155.6Z"
                transform="translate(0)" fill="#212121" />
        </g>
        <g id="left">
            <path
                d="M150,269c-4.59,0-10.44,2.77-17.1,6.25s-10,5.41-11.79,5.41-8.6-2.32-10.34-4.54-1-3-2-3.82-5.75-.88-4.78.25S118.79,293,127.1,296s12,4,15,4,5.26-2.66,7.92-2.66Z"
                transform="translate(0)" fill="#212121" />
            <path
                d="M150,225.07c-3.07,0-8.26-1.89-10.05-2.85s-3.77-2.71-8.69-2.71c-7.93,0-11.41,4.74-11.41,4.74a36.19,36.19,0,0,1,6.77-.73c3.43,0,11.83,6.19,11.83,12.47s5.22,9,11.55,9Z"
                transform="translate(0)" fill="#212121" />
            <path
                d="M11.38,26.93C11.25,38,13.31,43.55,13.7,50.37s1.41,10.05,4.76,13.4,5,7.73,2.84,13.53-3.61,8.37-.26,20,6.83,17.78,6.83,17.78,3.61-11.86,5.28-18.68,7.28-16.82,7.28-16.82-4.25-1.74-16-15.36S15.5,32.47,18,24.61s6.63-12,8.44-11.73,1.48,1.55,3.35,2.71a12.79,12.79,0,0,0,3.54,1.54,6.25,6.25,0,0,1-1.68,3.55,16.92,16.92,0,0,1-4.31,3.15,6.7,6.7,0,0,0,3.09.07,8.84,8.84,0,0,0,3-1.55s.91,5-2.06,6.77-7-.2-7-.2a11.48,11.48,0,0,0,3.8,3.87c2.64,1.67,2.77,2.83,6.44,5.09a24.37,24.37,0,0,1,6,5.41,10.29,10.29,0,0,0-2.83-1.48,7.56,7.56,0,0,0-3.67-.26s1.61,2.45,8.31,3.67S49.9,53.66,49.9,58s-3,9.92-3,9.92A10,10,0,0,0,54.09,61a31.21,31.21,0,0,1,.83,8.76,23.12,23.12,0,0,1-2.83,7.93,23.1,23.1,0,0,0,4.12-3,39.54,39.54,0,0,0,4.9-5.41s-.45,2.38-3.55,7.73S44.1,93.92,44.1,93.92s1.8.77,2.19,4.19-2.06,9-7.86,15.78S27.22,126,27.22,146.35s2.44,27.51,2.63,40.75,5.3,22.83,12.51,30.56,15.4,8.63,18.88,12.24,10.82,6,13.39,7.92a14.65,14.65,0,0,1,4,5.61,22.6,22.6,0,0,1,.06-4.32c.26-2.45,2.39-4.64,2.9-7s-.64-7.34-10.82-17.78-14.43-7.08-18.1-17.46.19-23.31.19-23.31,2.64,18.81,5.86,24.54,14.56,14.11,20.62,18.61a27.07,27.07,0,0,1,8.39,10.21,26,26,0,0,1,4.44-5c2.08-1.55,7.44-3.58,7.44-3.58a138.51,138.51,0,0,0-11.55,13.44c-4.54,6.32-6.32,15.31-3.81,17.24s13.91.63,13.91.63A15.15,15.15,0,0,1,92,253.19a11.59,11.59,0,0,1-7.59-.54s4.78,9,10.58,9,13.09-5.51,13.09-5.51-3.47,5.51-6.52,7.35-7.1.91-7.1.91A61.69,61.69,0,0,0,112.27,269c10.92,1.31,14.83-.24,22.61-3.38s13.57-1.5,13.57-3.14a24.28,24.28,0,0,0-1.93-7.63,28.34,28.34,0,0,1-1.59-6.28c-7.3-.29-10-5.17-9.62-9.23s-2-4.88-6.62-5-6.18-.58-11-4.84-3.63-6-.49-10.43a17.07,17.07,0,0,0,3.1-9.13,10.41,10.41,0,0,1,1,5.36c-.24,3.09-2.56,6.62-2.56,6.62s4.59-5.41,14-5.41,15.12,2.71,17.25,2.71V71.66c-3,0-9.47-13.85-9.08-19.93s-.78-5.51-4.93-6.19-14-3.09-18.65-3.09-6.47,2-13.82,8.6-14.59,14.4-17.58,20.1-4.25,2.9-4.16,1.16a12.07,12.07,0,0,1,1.65-4.25,24.32,24.32,0,0,0-5.61,3.76c-3.48,2.9-10.27,10.89-10.27,10.89S78.89,62.87,84.3,60.42,90.74,52.18,92.54,45s.65-7.34-2.83-9.92S81.46,23.32,71,17.78,62.14,6.44,54.66,4.9,46.94,0,33.67,0,11.51,15.85,11.38,26.93ZM135.6,133.47c0-7.92-2.51-12.47-5.21-16.72s-5.9-8.4-5.9-8.4S139,118.88,139,133.18,128.84,153,128.84,153,135.6,141.39,135.6,133.47Zm-67.83-3.19c0-4.25,2.23-10.43,6.67-16.23s6.47-7.15,6.47-7.15-4.25,6.47-4.25,17.49S80.72,138.3,92.8,140s16.33,5.6,22.9,11.88,8.12,8.7,8.12,14.4,0,6.57-3.68,9.86a44.68,44.68,0,0,0-10,13.52,97.21,97.21,0,0,1,4.25-14.1c2.32-5.35,2.39-10.12,1.55-11.47s-3-1-3.87-1.87.33-2.06-6.12-1.41-14.17.83-17.94-2.36a24.09,24.09,0,0,1-7.15-11.69c-.67-3.19.58-3.57-4.34-5.89S67.77,134.53,67.77,130.28Z"
                transform="translate(0)" fill="#212121" />
            <path
                d="M104.81,155.6l-3.54-3.29s-5,2.77-7.89-.16-2.26-5.48-2.26-5.48l-4.89-1.48a11.86,11.86,0,0,0,4.7,11.6C97.21,161.59,104.81,155.6,104.81,155.6Z"
                transform="translate(0)" fill="#212121" />
        </g>
    </g>
    <g id="frame">
        <rect width="300" height="300" fill="none" />
    </g>
</svg>