<!-- Copyright (c) 2023 Jan Stehno -->
<svg xmlns="http://www.w3.org/2000/svg" viewBox="0 0 300 300">
    <title>raccoondog</title>
    <g id="raccoondog">
        <g id="right">
            <path
                d="M150,32.67c2.68,0,5.27-5.06,8.08-5s-.38,1-1.36,3.15,4.6,3,5.83.43,2.81-5.41,6-5.7-.13.55-1.45,2.89-1.1,4.39,1.45,4.39,3.49-3.88,7.83-4.52,1.15.26-.34,2-2.13,4.21-.64,3.15,1.4-1.83,4.42-2.13-1.31,1.45-1.36,2.59,2.21,1.88,7.53,4.94,15.32,10.59,19.74,14.42S216,63,217.22,63s3.19-3.7,6.5-4.29-.42.59-2.21,3.19-2.25,3.48-.47,3.48,3.54-1.82,4.9-1.91-2.6,2.38-3.24,3.87,6.51,8.25,13.15,13.79,10.89,12.25,15.48,14.37,10.38,4.17,5.49,4.3-3.91,1-.38,5.28,6.72,13.57,19.14,17.23,19.57,4.42,13.28,5.95-5.88,1.87-.77,3.15,10.21,3.49,10.21,5-.68,1.62-8.17,1.28-10.46,2.72-2.64,5.78,16.17,3.74,10.81,5.11-15.14,1.1-18.12.59-.17,3.75,3.49,5.19,7.57,3.23,11.82,3.58-1.36,3.23-8.93,3.23-15.23-4.68-8.17,1.79,8.93,9.57,9.32,12.5-1.24,2.94-5,0-14.25-12.5-11.23-2.76S276,185.1,276,187.52s-1.83,3.92-6.05,2.89-3.65-.55-3.1,5.07S268,210.62,268,214.54s-1.53,2.59-5.15,0-3.87-.6-4.34,4.85-1.49,11.78-3.53,16-2,1-3.74-4.29-2.43-6.21-4.13,2.55-4,13.78-6.85,17.65-6.38,10-6.38,1.24-5.19-5.45-8-1.83-16.63,10.93-27.52,15.1-23.49,9.7-31.82,12-13.87,3.32-16.51,3.32v-9.59c4.25,0,33.69-3.35,45.86-11S218.49,240,224.7,228.23s22.38-23.9,24.59-26.71,2.51-1.07,2.34,3.61,2.21,6.9,2.94-.89-.81-7,.34-13.4.76-11.7,3.36-7.87,3.44,8.21,3.19,2.76-1.19-7.87-5.45-12.2-1.7-4.64-4.68-8-1.83-3.11,1.49-1.62,1.41-1-2.25-2.76.17-2,4.55.68,5,.08-2.17-2.9-4.55-.17-7.7-5.31-2.34-4.68-.3-7.32,0-.51-2.38-.51-2.76-1.87-4.72-5.62-6.34-6.63-1.79-6.63,5.53-1.79,6.68-3.11-2.17.47-5.79.47-5.36-1.36-6.59-3,1.83.21,6.13.21,6.85-1.45,7.7-2.34-1.92-.3-7.24-.3-10.46-3.4-14.71-6.85-16.68-13-31.15-13S171,112.69,171,118,172.8,130.13,173,141s3.41,16.94,8.6,22.89,6.63,12.93,10.12,12.93,9.27-1.53,25.27-1.53a51.72,51.72,0,0,1,27.57,8.26s-14.13-6.13-28.17-6.13-24,1-24.73,1.79-.38,1.23.29,1.9,11.6-.59,20.62,1,16.89,8.46,16.89,8.46-12.21-6.8-22.34-7.35-13.8-.83-14.51-.13,0,1,.51,1.44,9.11.94,15.74,4.13,12.34,9.7,12.34,9.7-9.36-7.57-16.93-9.53-11.34-2.53-12.08-1.79a3.09,3.09,0,0,0,0,3.7,30.51,30.51,0,0,1,4,5.15,18.3,18.3,0,0,1,2,5s-2.68-4.59-4.59-6.34-2.85-2.34-3.49-2.34-.76.77-.13,1.41,4.85,6.46,4.85,6.46-5.1-5.23-6.21-5.23-1,1.26.06,1.86,5.39,6.86,5.39,6.86-6.75-6.18-7.43-6.27-2.38,1-2.24,1.82,3.37,2.55,6,5.36a15.62,15.62,0,0,1,3.37,4.93,48.81,48.81,0,0,0-7.62-6.89c-3.46-2.24-3.63-2.24-4.2-2.15s-1.82,1.36-1.56,2,3.34,1.9,4.59,3.12a31.85,31.85,0,0,1,3.26,4.62,15.64,15.64,0,0,0-4.59-4.31c-2.67-1.47-4.11-2.38-5.25-2.38s-9,4.81-28.5,4.81v-6.34c6.72,0,18.72.17,23-9s2-18.42-3.32-22.67S157,166.42,150,166.42Z"
                fill="#212121" />
            <path
                d="M150,199.69c7.1,0,14.72.51,18.55-5s4.29-7.62,4.29-10.21-.8-2.09-3.48-2.09-3.19.34-5.62,3.32-4.25,3.75-5.7.6.68-4.3,3.38-4.3,6.49-.25,8.11-1.87,1.91-5.62-1-8.55S162,168.42,150,168.42Z"
                fill="#212121" />
            <path d="M150,211.44c14.44,0,23.14-1.54,26.67-2.9s4-.09-2.63,4.89-10.43,6.68-24,6.68Z"
                fill="#212121" />
            <path
                d="M178.93,136.26s15.06,3.62,20-1.36,2.12-15.74,2.12-15.74.28,9.63-4,13.87S178.93,136.26,178.93,136.26Z"
                fill="#212121" />
            <path
                d="M184.76,34.88c0,1,7.82,4.43,17.74,12.47s12.21,11.1,13.35,11.1,6-4.38,15.49-4.38,5.66,4.38,1.91,8.12-5.48,5.19-5.48,7S240,83.29,242.53,83.29s5.74-6.89,5.74-6.89l1.15,2.39a30.78,30.78,0,0,1,.38-4.05,3.18,3.18,0,0,1,1.45-2.46L253,74.45a23.23,23.23,0,0,1,.55-6.13,16.29,16.29,0,0,1,2.47-4.76s.85.21,1.49,1.57a17,17,0,0,1,1,2.76A18.73,18.73,0,0,0,257.33,60a11,11,0,0,1,0-7.61L260.44,55s-.47-3.53-2.55-5.4a9.58,9.58,0,0,1-2.64-4.81l3.44,1.15a7.18,7.18,0,0,0-2.51-4A12.06,12.06,0,0,1,253,38a12.72,12.72,0,0,1,2.85-.85,20.35,20.35,0,0,1,3.36-.21,19,19,0,0,0-6.34-1.58c-2.8,0-2.85-1.57-5.23-5.1a15.12,15.12,0,0,0-8-5.75,6.65,6.65,0,0,0-3,.47s-.77-2.12.13-3.32,3.61-2.46,0-2.46-4.51,2.59-7.66,3.23-7.4.43-4.85-1.28,4.25-2.34.81-2.34-7.61,4.56-13.23,6.47-7.78,2.43-9,2.55-1.23-1-.34-1.87.39-1.32-3.53,1.41-7,4.55-10.12,5.23S184.76,34.33,184.76,34.88Z"
                fill="#212121" />
            <path
                d="M177.74,133.66c1.17,1.17,13.06,2.09,17.48-2.34s4.21-10.72,1.79-13.18-5-2.09-7.79-2.09-9,2.6-10.8,8S176.93,132.86,177.74,133.66Zm4.21-8.78a6.69,6.69,0,0,1,4.23-6.23,4.62,4.62,0,1,0,4.94,0,6.7,6.7,0,1,1-9.17,6.23Z"
                fill="#212121" />
        </g>
        <g id="left">
            <path
                d="M150,32.67c-2.68,0-5.27-5.06-8.08-5s.38,1,1.36,3.15-4.6,3-5.83.43-2.81-5.41-6-5.7.13.55,1.45,2.89,1.1,4.39-1.45,4.39-3.49-3.88-7.83-4.52-1.15.26.34,2,2.13,4.21.64,3.15-1.4-1.83-4.42-2.13,1.31,1.45,1.36,2.59-2.21,1.88-7.53,4.94S98.65,49.43,94.23,53.26,84,63,82.78,63s-3.19-3.7-6.5-4.29.42.59,2.21,3.19,2.25,3.48.47,3.48-3.54-1.82-4.9-1.91,2.6,2.38,3.24,3.87-6.51,8.25-13.15,13.79S53.26,93.38,48.67,95.5s-10.38,4.17-5.49,4.3,3.91,1,.38,5.28-6.72,13.57-19.14,17.23-19.57,4.42-13.28,5.95,5.88,1.87.77,3.15-10.21,3.49-10.21,5,.68,1.62,8.17,1.28,10.46,2.72,2.64,5.78S-3.66,147.23,1.7,148.6s15.14,1.1,18.12.59.17,3.75-3.49,5.19S8.76,157.61,4.51,158s1.36,3.23,8.93,3.23,15.23-4.68,8.17,1.79-8.93,9.57-9.32,12.5,1.24,2.94,5,0S31.52,163,28.5,172.72,24,185.1,24,187.52s1.83,3.92,6,2.89,3.65-.55,3.1,5.07S32,210.62,32,214.54s1.53,2.59,5.15,0,3.87-.6,4.34,4.85,1.49,11.78,3.53,16,2,1,3.74-4.29,2.43-6.21,4.13,2.55,4,13.78,6.85,17.65,6.38,10,6.38,1.24,5.19-5.45,8-1.83,16.63,10.93,27.52,15.1,23.49,9.7,31.82,12,13.87,3.32,16.51,3.32v-9.59c-4.25,0-33.69-3.35-45.86-11S81.51,240,75.3,228.23s-22.38-23.9-24.59-26.71-2.51-1.07-2.34,3.61-2.21,6.9-2.94-.89.81-7-.34-13.4-.76-11.7-3.36-7.87-3.44,8.21-3.19,2.76,1.19-7.87,5.45-12.2,1.7-4.64,4.68-8,1.83-3.11-1.49-1.62-1.41-1,2.25-2.76-.17-2-4.55.68-5,.08,2.17-2.9,4.55-.17,7.7-5.31,2.34-4.68.3-7.32,0-.51,2.38-.51,2.76-1.87,4.72-5.62,6.34-6.63,1.79-6.63-5.53-1.79-6.68-3.11,2.17.47,5.79.47,5.36-1.36,6.59-3-1.83.21-6.13.21-6.85-1.45-7.7-2.34,1.92-.3,7.24-.3,10.46-3.4,14.71-6.85,16.68-13,31.15-13S129,112.69,129,118,127.2,130.13,127,141s-3.41,16.94-8.6,22.89-6.63,12.93-10.12,12.93S99,175.31,83,175.31a51.72,51.72,0,0,0-27.57,8.26s14.13-6.13,28.17-6.13,24,1,24.73,1.79.38,1.23-.29,1.9-11.6-.59-20.62,1-16.89,8.46-16.89,8.46,12.21-6.8,22.34-7.35,13.8-.83,14.51-.13,0,1-.51,1.44-9.11.94-15.74,4.13-12.34,9.7-12.34,9.7,9.36-7.57,16.93-9.53,11.34-2.53,12.08-1.79a3.09,3.09,0,0,1,0,3.7,30.51,30.51,0,0,0-4,5.15,18.3,18.3,0,0,0-2,5s2.68-4.59,4.59-6.34,2.85-2.34,3.49-2.34.76.77.13,1.41-4.85,6.46-4.85,6.46,5.1-5.23,6.21-5.23,1,1.26-.06,1.86-5.39,6.86-5.39,6.86,6.75-6.18,7.43-6.27,2.38,1,2.24,1.82-3.37,2.55-6,5.36a15.62,15.62,0,0,0-3.37,4.93,48.81,48.81,0,0,1,7.62-6.89c3.46-2.24,3.63-2.24,4.2-2.15s1.82,1.36,1.56,2-3.34,1.9-4.59,3.12a31.85,31.85,0,0,0-3.26,4.62,15.64,15.64,0,0,1,4.59-4.31c2.67-1.47,4.11-2.38,5.25-2.38s9,4.81,28.5,4.81v-6.34c-6.72,0-18.72.17-23-9s-2-18.42,3.32-22.67S143,166.42,150,166.42Z"
                fill="#212121" />
            <path
                d="M150,199.69c-7.1,0-14.72.51-18.55-5s-4.29-7.62-4.29-10.21.8-2.09,3.48-2.09,3.19.34,5.62,3.32,4.25,3.75,5.7.6-.68-4.3-3.38-4.3-6.49-.25-8.11-1.87-1.91-5.62,1-8.55,6.51-3.15,18.51-3.15Z"
                fill="#212121" />
            <path d="M150,211.44c-14.44,0-23.14-1.54-26.67-2.9s-4-.09,2.63,4.89,10.43,6.68,24,6.68Z"
                fill="#212121" />
            <path
                d="M121.07,136.26s-15.06,3.62-20-1.36-2.12-15.74-2.12-15.74-.28,9.63,4,13.87S121.07,136.26,121.07,136.26Z"
                fill="#212121" />
            <path
                d="M115.24,34.88c0,1-7.82,4.43-17.74,12.47s-12.21,11.1-13.35,11.1-6-4.38-15.49-4.38S63,58.45,66.75,62.19s5.48,5.19,5.48,7S60,83.29,57.47,83.29s-5.74-6.89-5.74-6.89l-1.15,2.39a30.78,30.78,0,0,0-.38-4.05,3.18,3.18,0,0,0-1.45-2.46L47,74.45a23.23,23.23,0,0,0-.55-6.13,16.29,16.29,0,0,0-2.47-4.76s-.85.21-1.49,1.57a17,17,0,0,0-1,2.76A18.73,18.73,0,0,1,42.67,60a11,11,0,0,0,0-7.61L39.56,55s.47-3.53,2.55-5.4a9.58,9.58,0,0,0,2.64-4.81L41.31,45.9a7.18,7.18,0,0,1,2.51-4A12.06,12.06,0,0,0,47.05,38a12.72,12.72,0,0,0-2.85-.85A20.35,20.35,0,0,0,40.84,37a19,19,0,0,1,6.34-1.58c2.8,0,2.85-1.57,5.23-5.1a15.12,15.12,0,0,1,8-5.75,6.65,6.65,0,0,1,3,.47s.77-2.12-.13-3.32-3.61-2.46,0-2.46,4.51,2.59,7.66,3.23,7.4.43,4.85-1.28-4.25-2.34-.81-2.34,7.61,4.56,13.23,6.47,7.78,2.43,9,2.55,1.23-1,.34-1.87-.39-1.32,3.53,1.41,7,4.55,10.12,5.23S115.24,34.33,115.24,34.88Z"
                fill="#212121" />
            <path
                d="M121.58,124.05c-1.78-5.4-8-8-10.8-8s-5.36-.38-7.79,2.09-2.64,8.76,1.79,13.18,16.31,3.51,17.48,2.34C123.07,132.86,123.37,129.45,121.58,124.05Zm-10.23,7.53a6.7,6.7,0,0,1-2.47-12.93,4.63,4.63,0,1,0,4.94,0,6.7,6.7,0,0,1-2.47,12.93Z"
                fill="#212121" />
        </g>
    </g>
    <g id="frame">
        <rect width="300" height="300" fill="none" />
    </g>
</svg>