<svg xmlns="http://www.w3.org/2000/svg" viewBox="0 0 30 30"><path d="M15,3.27c.27,0,.53-.51.81-.5s0,.1-.14.31.46.3.58,0,.29-.54.61-.57,0,0-.15.29-.11.44.15.44.35-.39.78-.46.12,0,0,.2-.21.42-.07.31.14-.18.45-.21-.14.15-.14.26.22.19.75.49a17.08,17.08,0,0,1,2,1.45,8.57,8.57,0,0,0,1.14,1c.12,0,.32-.37.65-.43s0,.06-.22.32-.22.35,0,.35.36-.18.49-.19-.26.24-.32.38.65.83,1.31,1.38,1.09,1.23,1.55,1.44,1,.42.55.43-.39.1,0,.53a3.52,3.52,0,0,0,1.92,1.72c1.24.37,2,.44,1.33.6s-.59.18-.08.31,1,.35,1,.5-.07.16-.82.13-1,.27-.26.58,1.62.37,1.08.51a6,6,0,0,1-1.81.06c-.3-.05,0,.37.35.52a4.39,4.39,0,0,0,1.18.36c.42,0-.14.32-.89.32s-1.53-.47-.82.18.89.95.93,1.25-.12.29-.5,0-1.42-1.25-1.12-.28a9.48,9.48,0,0,1,.45,1.48c0,.24-.19.39-.61.29s-.36-.05-.31.51.12,1.51.12,1.9-.16.26-.52,0-.39-.06-.43.49a4.94,4.94,0,0,1-.36,1.6c-.2.43-.19.1-.37-.43s-.24-.62-.41.26A4.18,4.18,0,0,1,24,25.13c-.28.39-.64,1-.64.13s-.51-.55-.79-.19a9.25,9.25,0,0,1-2.76,1.51c-1.09.42-2.35,1-3.18,1.2a8,8,0,0,1-1.65.34v-1a13.19,13.19,0,0,0,4.59-1.1,8.91,8.91,0,0,0,2.88-3.24,13.77,13.77,0,0,1,2.46-2.67c.22-.28.25-.1.23.36s.22.69.3-.09-.08-.69,0-1.34.08-1.17.34-.78.34.82.32.27a1.55,1.55,0,0,0-.55-1.22c-.42-.43-.17-.46-.47-.8s-.18-.31.15-.16.14-.1-.22-.28,0-.2.45.07.5,0-.21-.29-.46,0-.77-.53-.24-.47,0-.73,0-.05-.24-.05-.28-.19-.48-.56-.63-.67-.17-.67a.69.69,0,0,0,.66-.31c.12-.13-.21.05-.57.05a.73.73,0,0,1-.66-.3c-.13-.17.18,0,.61,0a1.18,1.18,0,0,0,.77-.23c.08-.09-.19,0-.72,0a2.51,2.51,0,0,1-1.48-.69,5.29,5.29,0,0,0-3.11-1.3c-1.45,0-2,.71-2,1.24s.18,1.21.2,2.3a3.15,3.15,0,0,0,.86,2.29c.52.6.66,1.29,1,1.29a25,25,0,0,1,2.53-.15,5.12,5.12,0,0,1,2.75.83,8.06,8.06,0,0,0-2.81-.62,10.48,10.48,0,0,0-2.48.18c-.07.08,0,.13,0,.19s1.16-.06,2.06.1a4,4,0,0,1,1.69.85,6.42,6.42,0,0,0-2.23-.74,4.75,4.75,0,0,0-1.45,0c-.07.07,0,.1,0,.14a7.77,7.77,0,0,1,1.57.42,4.56,4.56,0,0,1,1.24,1,5.87,5.87,0,0,0-1.7-1c-.75-.19-1.13-.25-1.2-.17a.3.3,0,0,0,0,.37,2.56,2.56,0,0,1,.4.51,1.73,1.73,0,0,1,.21.5,4,4,0,0,0-.46-.64c-.19-.17-.29-.23-.35-.23s-.08.08,0,.14.48.65.48.65-.51-.53-.62-.53-.1.13,0,.19a6.08,6.08,0,0,1,.54.69,8.55,8.55,0,0,0-.75-.63c-.07,0-.24.1-.22.18s.34.26.6.54a1.72,1.72,0,0,1,.34.49,5.22,5.22,0,0,0-.77-.69c-.34-.22-.36-.22-.42-.21s-.18.13-.15.19.33.19.46.32a3.32,3.32,0,0,1,.32.46,1.43,1.43,0,0,0-.46-.43,1.41,1.41,0,0,0-.52-.24,7.18,7.18,0,0,1-2.85.48v-.63c.67,0,1.87,0,2.3-.9A1.91,1.91,0,0,0,17,17a3.11,3.11,0,0,0-2-.38Z" fill="#212121"/><path d="M15,20c.71,0,1.47.05,1.85-.5s.43-.76.43-1-.08-.21-.34-.21-.32,0-.57.33-.42.37-.57.06.07-.43.34-.43A1.3,1.3,0,0,0,17,18a.64.64,0,0,0-.1-.85c-.29-.3-.65-.32-1.85-.32Z" fill="#212121"/><path d="M15,21.14a8.64,8.64,0,0,0,2.67-.29c.35-.13.4,0-.27.49A3.14,3.14,0,0,1,15,22Z" fill="#212121"/><path d="M17.89,13.63s1.51.36,2-.14.21-1.57.21-1.57a2.22,2.22,0,0,1-.4,1.38C19.29,13.73,17.89,13.63,17.89,13.63Z" fill="#212121"/><path d="M18.48,3.49c0,.1.78.44,1.77,1.24s1.22,1.12,1.34,1.12a3.23,3.23,0,0,1,1.54-.44c1,0,.57.44.2.81s-.55.52-.55.7a4.62,4.62,0,0,0,1.47,1.41c.25,0,.58-.69.58-.69l.11.24s0-.21,0-.41a.3.3,0,0,1,.14-.24l.18.21a2.51,2.51,0,0,1,.06-.61,1.5,1.5,0,0,1,.25-.47s.08,0,.14.15a1.33,1.33,0,0,1,.1.28A1.85,1.85,0,0,0,25.73,6a1.13,1.13,0,0,1,0-.76L26,5.5A1,1,0,0,0,25.79,5a1,1,0,0,1-.27-.48l.35.11a.77.77,0,0,0-.25-.4,1.06,1.06,0,0,1-.32-.39,1.1,1.1,0,0,1,.28-.08,1.63,1.63,0,0,1,.34,0,2,2,0,0,0-.64-.16c-.28,0-.28-.16-.52-.51A1.57,1.57,0,0,0,24,2.45a.65.65,0,0,0-.3,0,.42.42,0,0,1,0-.33c.09-.12.36-.25,0-.25s-.45.26-.77.33-.74,0-.48-.13.42-.24.08-.24-.76.46-1.32.65a6.11,6.11,0,0,1-.9.26c-.12,0-.12-.1,0-.19s0-.13-.36.14a3,3,0,0,1-1,.52C18.57,3.33,18.48,3.43,18.48,3.49Z" fill="#212121"/><path d="M17.77,13.37a2.12,2.12,0,0,0,1.75-.24,1,1,0,0,0,.18-1.32.94.94,0,0,0-.78-.2,1.28,1.28,0,0,0-1.08.79C17.66,13,17.69,13.29,17.77,13.37Zm.42-.88a.65.65,0,0,1,.43-.62.45.45,0,0,0-.22.39.47.47,0,0,0,.93,0,.45.45,0,0,0-.22-.39.65.65,0,0,1,.42.62.67.67,0,1,1-1.34,0Z" fill="#212121"/><path d="M15,3.27c-.27,0-.53-.51-.81-.5s0,.1.14.31-.46.3-.58,0-.29-.54-.61-.57,0,0,.15.29.11.44-.15.44-.35-.39-.78-.46-.12,0,0,.2.21.42.07.31-.14-.18-.45-.21.14.15.14.26-.22.19-.75.49a17.08,17.08,0,0,0-2,1.45,8.57,8.57,0,0,1-1.14,1c-.12,0-.32-.37-.65-.43s0,.06.22.32.22.35.05.35-.36-.18-.49-.19.26.24.32.38-.65.83-1.31,1.38S5.33,9.34,4.87,9.55s-1,.42-.55.43.39.1,0,.53a3.52,3.52,0,0,1-1.92,1.72c-1.24.37-2,.44-1.33.6s.59.18.08.31-1,.35-1,.5.07.16.82.13,1,.27.26.58-1.62.37-1.08.51A6,6,0,0,0,2,14.92c.3-.05,0,.37-.35.52a4.39,4.39,0,0,1-1.18.36c-.42,0,.14.32.89.32s1.53-.47.82.18-.89.95-.93,1.25.12.29.5,0,1.42-1.25,1.12-.28a9.48,9.48,0,0,0-.45,1.48c0,.24.19.39.61.29s.36-.05.31.51-.12,1.51-.12,1.9.16.26.52,0,.39-.06.43.49a4.94,4.94,0,0,0,.36,1.6c.2.43.19.1.37-.43s.24-.62.41.26A4.18,4.18,0,0,0,6,25.13c.28.39.64,1,.64.13s.51-.55.79-.19a9.25,9.25,0,0,0,2.76,1.51c1.09.42,2.35,1,3.18,1.2a8,8,0,0,0,1.65.34v-1a13.19,13.19,0,0,1-4.59-1.1,8.91,8.91,0,0,1-2.88-3.24,13.77,13.77,0,0,0-2.46-2.67c-.22-.28-.25-.1-.23.36s-.22.69-.3-.09.08-.69,0-1.34-.08-1.17-.34-.78-.34.82-.32.27a1.55,1.55,0,0,1,.55-1.22c.42-.43.17-.46.47-.8s.18-.31-.15-.16-.14-.1.22-.28,0-.2-.45.07-.5,0,.21-.29.46,0,.77-.53.24-.47,0-.73,0-.05.24-.05.28-.19.48-.56.63-.67.17-.67A.69.69,0,0,1,5.73,13c-.12-.13.21.05.57.05a.73.73,0,0,0,.66-.3c.13-.17-.18,0-.61,0a1.18,1.18,0,0,1-.77-.23c-.08-.09.19,0,.72,0a2.51,2.51,0,0,0,1.48-.69,5.29,5.29,0,0,1,3.11-1.3c1.45,0,2,.71,2,1.24s-.18,1.21-.2,2.3a3.15,3.15,0,0,1-.86,2.29c-.52.6-.66,1.29-1,1.29a25,25,0,0,0-2.53-.15,5.12,5.12,0,0,0-2.75.83,8.06,8.06,0,0,1,2.81-.62,10.48,10.48,0,0,1,2.48.18c.07.08,0,.13,0,.19s-1.16-.06-2.06.1a4,4,0,0,0-1.69.85,6.42,6.42,0,0,1,2.23-.74,4.75,4.75,0,0,1,1.45,0c.07.07,0,.1-.05.14a7.77,7.77,0,0,0-1.57.42,4.56,4.56,0,0,0-1.24,1,5.87,5.87,0,0,1,1.7-1c.75-.19,1.13-.25,1.2-.17a.3.3,0,0,1,0,.37,2.56,2.56,0,0,0-.4.51,1.73,1.73,0,0,0-.21.5,4,4,0,0,1,.46-.64c.19-.17.29-.23.35-.23s.08.08,0,.14-.48.65-.48.65.51-.53.62-.53.1.13,0,.19a6.08,6.08,0,0,0-.54.69,8.55,8.55,0,0,1,.75-.63c.07,0,.24.1.22.18s-.34.26-.6.54a1.72,1.72,0,0,0-.34.49,5.22,5.22,0,0,1,.77-.69c.34-.22.36-.22.42-.21s.18.13.15.19-.33.19-.46.32a3.32,3.32,0,0,0-.32.46,1.43,1.43,0,0,1,.46-.43,1.41,1.41,0,0,1,.52-.24,7.18,7.18,0,0,0,2.85.48v-.63c-.67,0-1.87,0-2.3-.9A1.91,1.91,0,0,1,13,17a3.11,3.11,0,0,1,2-.38Z" fill="#212121"/><path d="M15,20c-.71,0-1.47.05-1.85-.5s-.43-.76-.43-1,.08-.21.34-.21.32,0,.57.33.42.37.57.06-.07-.43-.34-.43a1.3,1.3,0,0,1-.81-.19.64.64,0,0,1,.1-.85c.29-.3.65-.32,1.85-.32Z" fill="#212121"/><path d="M15,21.14a8.64,8.64,0,0,1-2.67-.29c-.35-.13-.4,0,.27.49A3.14,3.14,0,0,0,15,22Z" fill="#212121"/><path d="M12.11,13.63s-1.51.36-2-.14-.21-1.57-.21-1.57a2.22,2.22,0,0,0,.4,1.38C10.71,13.73,12.11,13.63,12.11,13.63Z" fill="#212121"/><path d="M11.52,3.49c0,.1-.78.44-1.77,1.24S8.53,5.85,8.41,5.85a3.23,3.23,0,0,0-1.54-.44c-1,0-.57.44-.2.81s.55.52.55.7A4.62,4.62,0,0,1,5.75,8.33c-.25,0-.58-.69-.58-.69l-.11.24s0-.21,0-.41a.3.3,0,0,0-.14-.24l-.18.21a2.51,2.51,0,0,0-.06-.61,1.5,1.5,0,0,0-.25-.47s-.08,0-.14.15a1.33,1.33,0,0,0-.1.28A1.85,1.85,0,0,1,4.27,6a1.13,1.13,0,0,0,0-.76L4,5.5A1,1,0,0,1,4.21,5a1,1,0,0,0,.27-.48l-.35.11a.77.77,0,0,1,.25-.4A1.06,1.06,0,0,0,4.7,3.8a1.1,1.1,0,0,0-.28-.08,1.63,1.63,0,0,0-.34,0,2,2,0,0,1,.64-.16C5,3.54,5,3.38,5.24,3a1.57,1.57,0,0,1,.81-.58.65.65,0,0,1,.3,0,.42.42,0,0,0,0-.33c-.09-.12-.36-.25,0-.25s.45.26.77.33.74,0,.48-.13-.42-.24-.08-.24.76.46,1.32.65a6.11,6.11,0,0,0,.9.26c.12,0,.12-.1,0-.19s0-.13.36.14a3,3,0,0,0,1,.52C11.43,3.33,11.52,3.43,11.52,3.49Z" fill="#212121"/><path d="M12.16,12.4a1.28,1.28,0,0,0-1.08-.79.94.94,0,0,0-.78.2,1,1,0,0,0,.18,1.32,2.12,2.12,0,0,0,1.75.24C12.31,13.29,12.34,13,12.16,12.4Zm-1,.76a.67.67,0,0,1-.67-.67.65.65,0,0,1,.42-.62.45.45,0,0,0-.22.39.47.47,0,0,0,.93,0,.45.45,0,0,0-.22-.39.65.65,0,0,1,.43.62A.67.67,0,0,1,11.14,13.16Z" fill="#212121"/><rect width="30" height="30" fill="none"/></svg>