<!-- Copyright (c) 2023 Jan Stehno -->
<svg xmlns="http://www.w3.org/2000/svg" viewBox="0 0 300 300">
    <title>reddeer</title>
    <g id="reddeer">
        <g id="right">
            <path
                d="M150,254.37c2.63,0,8.79.72,8.79,3.41s-3.69,6.07-3.69,6.07v-1.37a14.86,14.86,0,0,0-2,.59A8.44,8.44,0,0,0,151,265s-.28-1-1-1Z"
                transform="translate(0)" fill="#212121" />
            <path
                d="M151.11,241.18c0,1.09.83,1.71.83,2.51s-.18,2.49-.18,2.49,2.87-5.19,4.54-5.19,1.11,1.59,2.75,1.59,1.54-.87,1.54-1.4-2.28-3.91-4.38-3.91S151.11,239.88,151.11,241.18Z"
                transform="translate(0)" fill="#212121" />
            <path
                d="M159.09,169.88c0,1.29,1.18,2.05,2.86,2.05s4.9-3.67,5.8-3.67-.35,3.19,1.17,3.19,2.13-1.52,3.91-1.52,2.3,4,3.8,4,8.87-5.14,14.2-9.16,7-7.5,10.15-7.5,3.58,1.35,14.76,1.35,12.87-6.82,25.65-8.3,16.34-2.44,20.87-9.27,2.63-4-3.37-.83-6.93,2.3-8.45,2.3-3.78-2.53-3.78-4.2S268.88,107.59,274.42,98s5.33-14.26,5.33-21.74,1-6.5-4.15,3.53-13.78,17.66-14.82,17.66,1.94-9.49,1.94-34.27-1.87-27.21-8.31-39.33S243.82,5.39,240.08,2.49s-6.93-6.31,1.73,9.2,8.13,39.3,6.65,40.78-7.27,3.26-16.76-4.84S216.81,32.74,212.94,25.4,204.49,7,211.34,33,243,69.65,241.26,71.38s-12.81-5-7.76,2,7.82,31,6.86,35.39-4.23-.42-10.18-3.47,6,8.66,6,18.63S232,144.15,223.71,148s-19.29,7.13-20.33,6.1,1.32-12.05,2.7-18.08-.34-6.16-6.16,7.9-5.75,14.81-9,14.81-6.72.07-6.72-1.52,4.71-5.19,7.48-22.29,1.6-27.23.49-34.08-.45,3.66-3.84,23.88-12.2,29.7-17.65,35.05S159.09,168.52,159.09,169.88Z"
                transform="translate(0)" fill="#212121" />
            <path
                d="M167.47,216.75c0,1.53-.07,1.6,1.5,1.6,4.1,0,9.69-4.46,9.69-7.85,0-2.15-1-2.15-3.46-2.15C171.22,208.35,167.47,214.17,167.47,216.75Z"
                transform="translate(0)" fill="#212121" />
            <path
                d="M182.38,209.78c1.13,0,2.05,1.78,2.56,4.37a17.56,17.56,0,0,1,.23,4.91l-1-1.13a13.91,13.91,0,0,1,.14,3.35,11.13,11.13,0,0,1-.53,2.67l-1.55-.62a7.48,7.48,0,0,0,.26,2.49,12.5,12.5,0,0,0,1.23,2.54l-1.5.16a14.31,14.31,0,0,1,3.27,4.37c1.41,2.83,1.24,4.27,1.24,4.27l-1.91-.44a19.63,19.63,0,0,0,2.3,5,26.22,26.22,0,0,0,3.28,4h-2a6.28,6.28,0,0,0-.63,2.88,26.58,26.58,0,0,0,.18,3.14l-1.34-.34s.06,3.32-.93,4.77-1.88,1.87-1.88,3a14.55,14.55,0,0,0,.67,3.24l-1.76-.31s-.09.71-.14,1.66a17.6,17.6,0,0,0,.19,2.51l-1.34-.69a13.86,13.86,0,0,0-.13,1.9,11.87,11.87,0,0,0,.36,1.82l-2.06-.42s-.05,2-.21,4.55a22.13,22.13,0,0,0,.14,4.38L177,275.71s.38,5-1.56,7.12-5.4,1.43-6.56,2.51-2.19,5.2-2.19,5.2l-.76-2.22s-.63,2.19-4.1,3.89-6.44,6.27-6.44,6.27a23.11,23.11,0,0,1,.12-3.12,15,15,0,0,1,.89-2.57,8.44,8.44,0,0,0-3.44,1.44c-1.5,1.15-3,5.77-3,5.77V268.5c2.56,0,5.79-1.57,6.67-2.68a6.09,6.09,0,0,0,1-2.79s2.14,1,2.95.25.42-2.72.42-2.72a1.77,1.77,0,0,0,2-.67c.69-1.09-.76-3.56-.76-3.56a3.66,3.66,0,0,0,2.61.4c1.36-.37,5.42-4,6.25-6.21s.72-8.22,2.17-11.73,2.54-3.23,2.54-6.67-4.2-7.13-5-8.79a2.85,2.85,0,0,1,.58-3.62c.82-.82,3.53.57,6.41-3.1S180.58,209.78,182.38,209.78Z"
                transform="translate(0)" fill="#212121" />
            <path
                d="M215.29,162.84c-5.5,0-14.57-.87-21,4.12s-18.78,11.29-20.41,11.29-1.86-2-4.91-2-4.23-2.95-5.81-2.95-2.42,2.5-4,2.5-2.49-4.83-4.87-4.83-2.63,1.45-4.29,1.45v65.45c1.57,0,3.72-3,6.8-3s6.74,5.14,6.74,7-3.85,5.54-7.38,5.54-4.36,3-6.16,3v2.68c2,0,2.63-1.37,4.14-1.37a2.07,2.07,0,0,1,2,1.33s.38-1.23,2.5-1.23,5,3.11,5,3.11,1-4,3.14-4,3,.16,3-5.74,4.15-10.74,4.15-12.49-.9-3.23-4-6.62-4.29-6.93-4.29-9.72,1.94-5.82,3.92-7.82a7.62,7.62,0,0,1,8.11-1.8c3.18,1.07,3.6,2.56,3.6-.73s3.8-11.55,10.5-15.48,15.32-2.49,16.61-3.78,7.53-10.62,9.14-17S220.8,162.84,215.29,162.84Zm-7.2,4.47s2.61,2.75-.09,2.75a5.66,5.66,0,0,1-4.25-2.07s3.9,5.47,1.64,5.47-5.15-2.91-5.08-2.89.39,2.77-1.45,3.72-2.17,5.05-2.17,5.05a11.87,11.87,0,0,0,2.72.35,10.08,10.08,0,0,0,3.72-.63,9.53,9.53,0,0,1-4.34,2.31,16.6,16.6,0,0,1-3.76.12,9.24,9.24,0,0,0,1.84,1.73,15.5,15.5,0,0,0,1.73.95s-.94,1.8-4.24,2.44-4.59.26-4.59.26a9.71,9.71,0,0,0,1,1.24,3.57,3.57,0,0,0,1.08.57s-.26,1.23-2.56,1.23-7.39-3.09-7.39-4.43-.74-6.65,0-7.38c1.09-1.1,5.8.73,9-1.59s6.09-6.88,8.52-7.3,3.46-3.6,6.37-4,7.47-.35,7.47.48S208.09,167.31,208.09,167.31Z"
                transform="translate(0)" fill="#212121" />
        </g>
        <g id="left">
            <path
                d="M150,254.37c-2.63,0-8.79.72-8.79,3.41s3.69,6.07,3.69,6.07v-1.37a14.86,14.86,0,0,1,2,.59A8.44,8.44,0,0,1,149,265s.28-1,1-1Z"
                transform="translate(0)" fill="#212121" />
            <path
                d="M148.89,241.18c0,1.09-.83,1.71-.83,2.51s.18,2.49.18,2.49S145.37,241,143.7,241s-1.11,1.59-2.75,1.59-1.54-.87-1.54-1.4,2.28-3.91,4.38-3.91S148.89,239.88,148.89,241.18Z"
                transform="translate(0)" fill="#212121" />
            <path
                d="M140.91,169.88c0,1.29-1.18,2.05-2.86,2.05s-4.9-3.67-5.8-3.67.35,3.19-1.17,3.19-2.13-1.52-3.91-1.52-2.3,4-3.8,4-8.87-5.14-14.2-9.16-7-7.5-10.15-7.5-3.58,1.35-14.76,1.35-12.87-6.82-25.65-8.3S42.27,147.84,37.74,141s-2.63-4,3.37-.83,6.93,2.3,8.45,2.3,3.78-2.53,3.78-4.2S31.12,107.59,25.58,98,20.25,83.7,20.25,76.22s-1-6.5,4.15,3.53S38.18,97.41,39.22,97.41s-1.94-9.49-1.94-34.27,1.87-27.21,8.31-39.33S56.18,5.39,59.92,2.49s6.93-6.31-1.73,9.2S50.06,51,51.54,52.47s7.27,3.26,16.76-4.84S83.19,32.74,87.06,25.4,95.51,7,88.66,33,57,69.65,58.74,71.38s12.81-5,7.76,2-7.82,31-6.86,35.39,4.23-.42,10.18-3.47-6,8.66-6,18.63S68,144.15,76.29,148s19.29,7.13,20.33,6.1S95.3,142.07,93.92,136s.34-6.16,6.16,7.9,5.75,14.81,9,14.81,6.72.07,6.72-1.52-4.71-5.19-7.48-22.29-1.6-27.23-.49-34.08.45,3.66,3.84,23.88,12.2,29.7,17.65,35.05S140.91,168.52,140.91,169.88Z"
                transform="translate(0)" fill="#212121" />
            <path
                d="M132.53,216.75c0,1.53.07,1.6-1.5,1.6-4.1,0-9.69-4.46-9.69-7.85,0-2.15,1-2.15,3.46-2.15C128.78,208.35,132.53,214.17,132.53,216.75Z"
                transform="translate(0)" fill="#212121" />
            <path
                d="M117.62,209.78c-1.13,0-2.05,1.78-2.56,4.37a17.56,17.56,0,0,0-.23,4.91l1-1.13a13.91,13.91,0,0,0-.14,3.35,11.13,11.13,0,0,0,.53,2.67l1.55-.62a7.48,7.48,0,0,1-.26,2.49,12.5,12.5,0,0,1-1.23,2.54l1.5.16a14.31,14.31,0,0,0-3.27,4.37c-1.41,2.83-1.24,4.27-1.24,4.27l1.91-.44a19.63,19.63,0,0,1-2.3,5,26.22,26.22,0,0,1-3.28,4h2a6.28,6.28,0,0,1,.63,2.88,26.58,26.58,0,0,1-.18,3.14l1.34-.34s-.06,3.32.93,4.77,1.88,1.87,1.88,3a14.55,14.55,0,0,1-.67,3.24l1.76-.31s.09.71.14,1.66a17.6,17.6,0,0,1-.19,2.51l1.34-.69a13.86,13.86,0,0,1,.13,1.9,11.87,11.87,0,0,1-.36,1.82l2.06-.42s.05,2,.21,4.55a22.13,22.13,0,0,1-.14,4.38l2.54-2.13s-.38,5,1.56,7.12,5.4,1.43,6.56,2.51,2.19,5.2,2.19,5.2l.76-2.22s.63,2.19,4.1,3.89,6.44,6.27,6.44,6.27a23.11,23.11,0,0,0-.12-3.12,15,15,0,0,0-.89-2.57,8.44,8.44,0,0,1,3.44,1.44c1.5,1.15,3,5.77,3,5.77V268.5c-2.56,0-5.79-1.57-6.67-2.68a6.09,6.09,0,0,1-1-2.79s-2.14,1-2.95.25-.42-2.72-.42-2.72a1.77,1.77,0,0,1-2-.67c-.69-1.09.76-3.56.76-3.56a3.66,3.66,0,0,1-2.61.4c-1.36-.37-5.42-4-6.25-6.21s-.72-8.22-2.17-11.73-2.54-3.23-2.54-6.67,4.2-7.13,5-8.79a2.85,2.85,0,0,0-.58-3.62c-.82-.82-3.53.57-6.41-3.1S119.42,209.78,117.62,209.78Z"
                transform="translate(0)" fill="#212121" />
            <path
                d="M82.52,169.9c1.61,6.37,7.84,15.7,9.14,17s9.92-.14,16.61,3.78,10.5,12.19,10.5,15.48.42,1.8,3.6.73a7.62,7.62,0,0,1,8.11,1.8c2,2,3.92,5,3.92,7.82s-1.22,6.32-4.29,9.72-4,4.87-4,6.62,4.15,6.58,4.15,12.49.9,5.74,3,5.74,3.14,4,3.14,4,2.87-3.11,5-3.11,2.5,1.23,2.5,1.23a2.07,2.07,0,0,1,2-1.33c1.51,0,2.13,1.37,4.14,1.37v-2.68c-1.8,0-2.63-3-6.16-3s-7.38-3.65-7.38-5.54,3.66-7,6.74-7,5.23,3,6.8,3V172.46c-1.66,0-1.9-1.45-4.29-1.45s-3.35,4.83-4.87,4.83-2.37-2.5-4-2.5-2.76,2.95-5.81,2.95-3.29,2-4.91,2-13.94-6.31-20.41-11.29-15.55-4.12-21.05-4.12S80.9,163.53,82.52,169.9Zm4.2-4.19c0-.83,4.57-.86,7.47-.48s4,3.56,6.37,4,5.3,5,8.52,7.3,7.93.49,9,1.59c.74.73,0,6,0,7.38s-5.09,4.43-7.39,4.43-2.56-1.23-2.56-1.23a3.57,3.57,0,0,0,1.08-.57,9.71,9.71,0,0,0,1-1.24s-1.29.39-4.59-.26-4.24-2.44-4.24-2.44a15.5,15.5,0,0,0,1.73-.95,9.24,9.24,0,0,0,1.84-1.73,16.6,16.6,0,0,1-3.76-.12,9.53,9.53,0,0,1-4.34-2.31,10.08,10.08,0,0,0,3.72.63,11.87,11.87,0,0,0,2.72-.35s-.32-4.11-2.17-5.05-1.52-3.7-1.45-3.72-2.82,2.89-5.08,2.89S96.25,168,96.25,168A5.66,5.66,0,0,1,92,170.06c-2.7,0-.09-2.75-.09-2.75S86.72,166.54,86.72,165.71Z"
                transform="translate(0)" fill="#212121" />
        </g>
    </g>
    <g id="frame">
        <rect width="300" height="300" fill="none" />
    </g>
</svg>