<svg xmlns="http://www.w3.org/2000/svg" viewBox="0 0 30 30"><path d="M15,25.44c.26,0,.88.07.88.34s-.37.61-.37.61v-.14a1,1,0,0,0-.2.06.82.82,0,0,0-.21.19s0-.1-.1-.1Z" transform="translate(0)" fill="#212121"/><path d="M15.11,24.12c0,.11.08.17.08.25s0,.25,0,.25.28-.52.45-.52.11.16.27.16.16-.09.16-.14-.23-.39-.44-.39S15.11,24,15.11,24.12Z" transform="translate(0)" fill="#212121"/><path d="M15.91,17c0,.13.12.2.29.2s.48-.36.57-.36,0,.31.12.31.21-.15.39-.15.23.4.38.4a7,7,0,0,0,1.42-.92c.54-.4.71-.75,1-.75a8,8,0,0,0,1.47.14c1.12,0,1.29-.68,2.57-.83s1.63-.25,2.09-.93.26-.4-.34-.08-.69.23-.85.23-.37-.26-.37-.42,2.22-3.07,2.77-4A3.47,3.47,0,0,0,28,7.62c0-.75.09-.65-.42.36a4.82,4.82,0,0,1-1.48,1.76c-.11,0,.19-1,.19-3.43s-.19-2.72-.83-3.93A7.12,7.12,0,0,0,24,.25c-.38-.29-.69-.63.17.92a7,7,0,0,1,.67,4.08c-.15.15-.73.32-1.68-.49a7.49,7.49,0,0,1-1.88-2.22c-.38-.73-.84-1.84-.16.76s3.17,3.66,3,3.84-1.29-.5-.78.2A8.1,8.1,0,0,1,24,10.88c-.1.43-.43-.05-1-.35s.6.87.6,1.86a2.6,2.6,0,0,1-1.25,2.41,5.14,5.14,0,0,1-2,.61,6.21,6.21,0,0,1,.27-1.81c.14-.6,0-.61-.62.79s-.57,1.49-.9,1.49-.67,0-.67-.16a6.15,6.15,0,0,0,.75-2.23,9.82,9.82,0,0,0,0-3.4c-.11-.69,0,.36-.39,2.38A5.91,5.91,0,0,1,17.07,16C16.52,16.51,15.91,16.85,15.91,17Z" transform="translate(0)" fill="#212121"/><path d="M16.75,21.68c0,.15,0,.15.15.15.41,0,1-.44,1-.78s-.11-.21-.35-.21C17.12,20.84,16.75,21.42,16.75,21.68Z" transform="translate(0)" fill="#212121"/><path d="M18.24,21c.11,0,.2.18.25.43a2.07,2.07,0,0,1,0,.5l-.1-.12a1.33,1.33,0,0,1,0,.34.94.94,0,0,1-.05.27l-.15-.07a.61.61,0,0,0,0,.25,1.75,1.75,0,0,0,.12.26h-.15a1.34,1.34,0,0,1,.33.44,1,1,0,0,1,.13.43l-.2,0a2.18,2.18,0,0,0,.23.5,2.54,2.54,0,0,0,.33.4h-.19a.58.58,0,0,0-.07.29,2.26,2.26,0,0,0,0,.31l-.13,0a1.13,1.13,0,0,1-.1.48c-.09.14-.18.18-.18.3a1.48,1.48,0,0,0,.06.32l-.17,0s0,.07,0,.17,0,.25,0,.25l-.13-.07a1.83,1.83,0,0,0,0,.19c0,.06,0,.18,0,.18l-.2,0s0,.2,0,.46a2.23,2.23,0,0,0,0,.43l-.26-.21a1.18,1.18,0,0,1-.15.71c-.2.22-.54.15-.66.25a1.76,1.76,0,0,0-.22.52l-.07-.22a.77.77,0,0,1-.41.39,2.06,2.06,0,0,0-.65.63,2.16,2.16,0,0,1,0-.31,1.16,1.16,0,0,1,.08-.26.88.88,0,0,0-.34.14A1.76,1.76,0,0,0,15,30V26.85a1.07,1.07,0,0,0,.67-.27.69.69,0,0,0,.1-.28s.22.1.3,0,0-.27,0-.27a.18.18,0,0,0,.2-.07c.07-.11-.08-.36-.08-.36a.34.34,0,0,0,.26,0,1.49,1.49,0,0,0,.63-.62c.08-.22.07-.82.21-1.17s.26-.32.26-.67-.42-.71-.51-.88a.29.29,0,0,1,.06-.36c.08-.08.35.06.64-.31S18.06,21,18.24,21Z" transform="translate(0)" fill="#212121"/><path d="M21.53,16.28a3.35,3.35,0,0,0-2.11.42,8.53,8.53,0,0,1-2,1.12c-.16,0-.18-.19-.49-.19s-.42-.3-.58-.3-.24.25-.39.25-.25-.48-.49-.48-.26.15-.43.15v6.54c.16,0,.37-.29.68-.29s.67.51.67.7a.82.82,0,0,1-.73.55c-.36,0-.44.3-.62.3v.27c.2,0,.26-.14.41-.14a.22.22,0,0,1,.2.14s0-.13.25-.13.5.31.5.31.1-.39.31-.39.3,0,.3-.58.42-1.07.42-1.25-.09-.32-.4-.66a1.47,1.47,0,0,1-.43-1,1.22,1.22,0,0,1,.39-.78.76.76,0,0,1,.81-.18c.32.1.36.25.36-.08a2.29,2.29,0,0,1,1.05-1.54c.67-.39,1.54-.25,1.66-.38a5.61,5.61,0,0,0,.92-1.7C21.91,16.35,22.08,16.28,21.53,16.28Zm-.72.45s.26.28,0,.28a.55.55,0,0,1-.42-.21s.39.55.16.55-.52-.3-.51-.29a.36.36,0,0,1-.14.37c-.19.09-.22.5-.22.5a1.06,1.06,0,0,0,.64,0,.94.94,0,0,1-.43.23,1.62,1.62,0,0,1-.38,0,.88.88,0,0,0,.19.17l.17.1a.56.56,0,0,1-.42.24,1,1,0,0,1-.46,0,.67.67,0,0,0,.1.12.41.41,0,0,0,.1.06s0,.12-.25.12-.74-.31-.74-.44-.07-.67,0-.74.58.07.9-.16.61-.69.85-.73.35-.36.64-.4.75,0,.75.05S20.81,16.73,20.81,16.73Z" transform="translate(0)" fill="#212121"/><path d="M15,25.44c-.26,0-.88.07-.88.34s.37.61.37.61v-.14a1,1,0,0,1,.2.06.82.82,0,0,1,.21.19s0-.1.1-.1Z" transform="translate(0)" fill="#212121"/><path d="M14.89,24.12c0,.11-.08.17-.08.25s0,.25,0,.25-.28-.52-.45-.52-.11.16-.27.16-.16-.09-.16-.14.23-.39.44-.39S14.89,24,14.89,24.12Z" transform="translate(0)" fill="#212121"/><path d="M14.09,17c0,.13-.12.2-.29.2s-.48-.36-.57-.36,0,.31-.12.31S12.9,17,12.72,17s-.23.4-.38.4a7,7,0,0,1-1.42-.92c-.54-.4-.71-.75-1-.75a8,8,0,0,1-1.47.14c-1.12,0-1.29-.68-2.57-.83s-1.63-.25-2.09-.93-.26-.4.34-.08.69.23.85.23.37-.26.37-.42-2.22-3.07-2.77-4A3.47,3.47,0,0,1,2,7.62c0-.75-.09-.65.42.36A4.82,4.82,0,0,0,3.92,9.74c.11,0-.19-1-.19-3.43s.19-2.72.83-3.93A7.12,7.12,0,0,1,6,.25c.38-.29.69-.63-.17.92a7,7,0,0,0-.67,4.08c.15.15.73.32,1.68-.49A7.49,7.49,0,0,0,8.71,2.54c.38-.73.84-1.84.16.76S5.7,7,5.87,7.14s1.29-.5.78.2A8.1,8.1,0,0,0,6,10.88c.1.43.43-.05,1-.35s-.6.87-.6,1.86A2.6,2.6,0,0,0,7.63,14.8a5.14,5.14,0,0,0,2,.61,6.21,6.21,0,0,0-.27-1.81c-.14-.6,0-.61.62.79s.57,1.49.9,1.49.67,0,.67-.16a6.15,6.15,0,0,1-.75-2.23,9.82,9.82,0,0,1-.05-3.4c.11-.69.05.36.39,2.38A5.91,5.91,0,0,0,12.93,16C13.48,16.51,14.09,16.85,14.09,17Z" transform="translate(0)" fill="#212121"/><path d="M13.25,21.68c0,.15,0,.15-.15.15-.41,0-1-.44-1-.78s.11-.21.35-.21C12.88,20.84,13.25,21.42,13.25,21.68Z" transform="translate(0)" fill="#212121"/><path d="M11.76,21c-.11,0-.2.18-.25.43a2.07,2.07,0,0,0,0,.5l.1-.12a1.33,1.33,0,0,0,0,.34.94.94,0,0,0,0,.27l.15-.07a.61.61,0,0,1,0,.25,1.75,1.75,0,0,1-.12.26h.15a1.34,1.34,0,0,0-.33.44,1,1,0,0,0-.13.43l.2,0a2.18,2.18,0,0,1-.23.5,2.54,2.54,0,0,1-.33.4h.19a.58.58,0,0,1,.07.29,2.26,2.26,0,0,1,0,.31l.13,0a1.13,1.13,0,0,0,.1.48c.09.14.18.18.18.3a1.48,1.48,0,0,1-.06.32l.17,0s0,.07,0,.17,0,.25,0,.25l.13-.07a1.83,1.83,0,0,1,0,.19c0,.06,0,.18,0,.18l.2,0s0,.2,0,.46a2.23,2.23,0,0,1,0,.43l.26-.21a1.18,1.18,0,0,0,.15.71c.2.22.54.15.66.25a1.76,1.76,0,0,1,.22.52l.07-.22a.77.77,0,0,0,.41.39,2.06,2.06,0,0,1,.65.63,2.16,2.16,0,0,0,0-.31,1.16,1.16,0,0,0-.08-.26.88.88,0,0,1,.34.14A1.76,1.76,0,0,1,15,30V26.85a1.07,1.07,0,0,1-.67-.27.69.69,0,0,1-.1-.28s-.22.1-.3,0,0-.27,0-.27a.18.18,0,0,1-.2-.07c-.07-.11.08-.36.08-.36a.34.34,0,0,1-.26,0,1.49,1.49,0,0,1-.63-.62c-.08-.22-.07-.82-.21-1.17s-.26-.32-.26-.67.42-.71.51-.88a.29.29,0,0,0-.06-.36c-.08-.08-.35.06-.64-.31S11.94,21,11.76,21Z" transform="translate(0)" fill="#212121"/><path d="M8.25,17a5.61,5.61,0,0,0,.92,1.7c.12.13,1,0,1.66.38a2.29,2.29,0,0,1,1.05,1.54c0,.33,0,.18.36.08a.76.76,0,0,1,.81.18,1.22,1.22,0,0,1,.39.78,1.47,1.47,0,0,1-.43,1c-.31.34-.4.49-.4.66s.42.66.42,1.25.09.58.3.58.31.39.31.39.29-.31.5-.31.25.13.25.13a.22.22,0,0,1,.2-.14c.15,0,.21.14.41.14v-.27c-.18,0-.26-.3-.62-.3a.82.82,0,0,1-.73-.55c0-.19.36-.7.67-.7s.52.29.68.29V17.25c-.17,0-.19-.15-.43-.15s-.33.48-.49.48-.23-.25-.39-.25-.28.3-.58.3-.33.19-.49.19a8.53,8.53,0,0,1-2-1.12,3.35,3.35,0,0,0-2.11-.42C7.92,16.28,8.09,16.35,8.25,17Zm.42-.42c0-.08.46-.09.75-.05s.39.36.64.4.53.5.85.73.79.05.9.16,0,.6,0,.74-.51.44-.74.44-.25-.12-.25-.12a.41.41,0,0,0,.1-.06.67.67,0,0,0,.1-.12,1,1,0,0,1-.46,0,.56.56,0,0,1-.42-.24l.17-.1a.88.88,0,0,0,.19-.17,1.62,1.62,0,0,1-.38,0,.94.94,0,0,1-.43-.23,1.06,1.06,0,0,0,.64,0s0-.41-.22-.5a.36.36,0,0,1-.14-.37s-.28.29-.51.29.16-.55.16-.55A.55.55,0,0,1,9.2,17c-.27,0,0-.28,0-.28S8.67,16.65,8.67,16.57Z" transform="translate(0)" fill="#212121"/><rect width="30" height="30" fill="none"/></svg>