<svg xmlns="http://www.w3.org/2000/svg" viewBox="0 0 30 30"><path d="M26.83,16.63l-1.19-1L26.51,14l-.9-1.49-1-.57V10l-.93,1.24,1.44-3.75-.32-.32a20.38,20.38,0,0,0,.26-3.54A14.82,14.82,0,0,0,23.8,0a12.63,12.63,0,0,0-3.31,1.62A14.51,14.51,0,0,0,18,4.11a16.07,16.07,0,0,1-.14,1.63,3,3,0,0,1-.49,1,6.69,6.69,0,0,0,.26-1.61c0-.59-.06-1-.06-1l1-1.32L15,3.61v7.52l.7-.65V12l.51-.5a15.52,15.52,0,0,0-.14,1.91,2.07,2.07,0,0,0,.49.67l.71-.31.39.31a1.72,1.72,0,0,1,.47-.66,3.84,3.84,0,0,1,1.06-.31s-.75.33-.89.59a1,1,0,0,0-.14.41l1-.22.69.5a1.4,1.4,0,0,1,1,.16c.47.29,2.24,1.71,2.24,1.71l-.41-.9.73-.59L22.94,14l.59.09a2.85,2.85,0,0,0-.42-.84,6.23,6.23,0,0,0-.61-.68,3.07,3.07,0,0,1,1,.64,8.45,8.45,0,0,1,.76,1.22,4.5,4.5,0,0,0,.35.42l-.49-.07a2,2,0,0,0,.49.87,2.11,2.11,0,0,1,.52.84,1.84,1.84,0,0,0-.72-.35,1.4,1.4,0,0,0-1.54,1.45c-.13,1.43,2.2,3.65,2.2,3.65l.23-1.45,1.07-.57-.61-1.25ZM23.49,8.19v.55l-.58-1.11-.2,1.94.48.06.06,1.12-.46.79-.62-.24.3-.49-1.31-.2.73-.5L21,10.05l.19-.74H20.15l1.74-.75-1.67-.07-.85-1.06,1.24-.06-.85-.81,2-.44-1.61-.34.93-.52,1.45,1.28-.64-1.32.4-1.59L22,3.5l.8-.22.07-.85.63.41,0-1.12,1,1.05L24,3.91l.4.43-.51.8.51.31L24,5.89,24.42,7l-.54.26v.67Z" transform="translate(0)" fill="#212121"/><path d="M15,25.31v3.32c.22,0,.71,1.37.71,1.37a5.69,5.69,0,0,1,.54-1.7,6,6,0,0,1,.87-.91l.47.51a3.78,3.78,0,0,1,.87-1,5,5,0,0,1,.88-.41l.31-.78.5.45.63-1.4.82.53.72-1.84.7,1.08-.33-2.34.74.79.17-1.22L24.23,23l.12-.82.61.23a6.11,6.11,0,0,0-.82-1.66,14,14,0,0,0-1.54-1.57L23,20.38l-1.23-.73.44,1.08-.64-.39.45.76-1.13-.79.36.85-.73-.36.17.41L20,20.84l.16.51-.45-.28a2.86,2.86,0,0,1,.68,1.21,4.23,4.23,0,0,1,0,1.28A2.89,2.89,0,0,0,20,22.21a2.92,2.92,0,0,0-.75-.72l0,.64-.54-.3a2.61,2.61,0,0,1-.24,1.64A5,5,0,0,1,15,25.31Z" transform="translate(0)" fill="#212121"/><path d="M15,24.45a4,4,0,0,0,1.15-.15c.26-.1.61-.22.53-.1A2,2,0,0,1,15,25Z" transform="translate(0)" fill="#212121"/><path d="M15.49,23.19c.08.2.61-.11.83-.81,0-.07-.2.13-.29.12s-.37-.16-.47-.07S15.42,23,15.49,23.19Z" transform="translate(0)" fill="#212121"/><path d="M15,21.3c.65,0,1.07.9,1.25.93s.39-.24.4-.82A4.73,4.73,0,0,1,17.1,20l.13-.6.1.75.16-.55.11.26.27-1,.25.58a5.09,5.09,0,0,1,0-1.41,3.74,3.74,0,0,1,.34-.93,4.14,4.14,0,0,0-.07.66,1.43,1.43,0,0,0,.09.35l.28-.89.12.44.28-.52.11.35a3.51,3.51,0,0,1,.79-.82c.39-.23.87-1.42.87-1.42s-.78-.63-1-.54-.12.5-.79.91-1,.21-1.15.32-.12.57-.12.57l-.39-.57a.24.24,0,0,0-.14.16l-.07.3a3.25,3.25,0,0,1,.08-1.11c.16-.56.29-.89.29-.89a.91.91,0,0,0-.52-.11,3.23,3.23,0,0,0-.48.07,2.56,2.56,0,0,0-.5,1.09,7.56,7.56,0,0,0,.19,2.38c.2.61.48,1.55.48,1.55a17.64,17.64,0,0,1-.9-2.63,3.56,3.56,0,0,1,.12-2c.21-.44.29-.58.29-.58A5.47,5.47,0,0,0,15,13.51v6.07a.52.52,0,0,1,.44.32,1.1,1.1,0,0,1,.12.43s-.38-.52-.56-.52Z" transform="translate(0)" fill="#212121"/><path d="M19.32,14.43c-.08-.15-.33-.17-.59-.12l-.21.06v.32a.23.23,0,0,1,0,.46.23.23,0,0,1-.24-.23.24.24,0,0,1,.09-.18h0l0-.34s-.54.14-.66.4-.2.79,0,.88a1.55,1.55,0,0,0,1.22-.22A1.09,1.09,0,0,0,19.32,14.43Z" transform="translate(0)" fill="#212121"/><path d="M4.21,17.94,3.6,19.19l1.07.57.23,1.45S7.23,19,7.1,17.56a1.4,1.4,0,0,0-1.54-1.45,1.84,1.84,0,0,0-.72.35,2.11,2.11,0,0,1,.52-.84,2,2,0,0,0,.49-.87l-.49.07a4.5,4.5,0,0,0,.35-.42,8.45,8.45,0,0,1,.76-1.22,3.07,3.07,0,0,1,1-.64,6.23,6.23,0,0,0-.61.68,2.85,2.85,0,0,0-.42.84L7.06,14l-.51.81.73.59-.41.9s1.77-1.42,2.24-1.71a1.4,1.4,0,0,1,1-.16l.69-.5,1,.22a1,1,0,0,0-.14-.41c-.14-.26-.89-.59-.89-.59a3.84,3.84,0,0,1,1.06.31,1.72,1.72,0,0,1,.47.66l.39-.31.71.31a2.07,2.07,0,0,0,.49-.67,15.52,15.52,0,0,0-.14-1.91l.51.5V10.48l.7.65V3.61l-3.59-.85,1,1.32s0,.41-.06,1a6.69,6.69,0,0,0,.26,1.61,3,3,0,0,1-.49-1A16.07,16.07,0,0,1,12,4.11,14.51,14.51,0,0,0,9.51,1.63,12.63,12.63,0,0,0,6.2,0,14.82,14.82,0,0,0,5,3.65a20.38,20.38,0,0,0,.26,3.54l-.32.32,1.44,3.75L5.4,10v1.92l-1,.57L3.49,14l.87,1.66-1.19,1Zm1.91-10V7.22L5.58,7l.47-1.07-.47-.44.51-.31-.51-.8L6,3.91l-.4-1.14,1-1,0,1.12.63-.41.07.85L8,3.5l-.3.12.4,1.59L7.49,6.53,8.94,5.25l.93.52-1.61.34,2,.44-.85.81,1.24.06L9.78,8.48l-1.67.07,1.74.75H8.77l.19.74-.85.06.73.5-1.31.2.3.49-.62.24-.46-.79.06-1.12.48-.06-.2-1.94L6.51,8.74V8.19Z" transform="translate(0)" fill="#212121"/><path d="M15,25.31v3.32c-.22,0-.71,1.37-.71,1.37a5.69,5.69,0,0,0-.54-1.7,6,6,0,0,0-.87-.91l-.47.51a3.78,3.78,0,0,0-.87-1,5,5,0,0,0-.88-.41l-.31-.78-.5.45-.63-1.4-.82.53-.72-1.84L7,24.57l.33-2.34L6.57,23,6.4,21.8,5.77,23l-.12-.82L5,22.36a6.11,6.11,0,0,1,.82-1.66A14,14,0,0,1,7.4,19.13L7,20.38l1.23-.73-.44,1.08.64-.39L8,21.1l1.13-.79-.36.85.73-.36-.17.41.69-.37-.16.51.45-.28a2.86,2.86,0,0,0-.68,1.21,4.23,4.23,0,0,0,0,1.28A2.89,2.89,0,0,1,10,22.21a2.92,2.92,0,0,1,.75-.72l0,.64.54-.3a2.61,2.61,0,0,0,.24,1.64A5,5,0,0,0,15,25.31Z" transform="translate(0)" fill="#212121"/><path d="M15,24.45a4,4,0,0,1-1.15-.15c-.26-.1-.61-.22-.53-.1A2,2,0,0,0,15,25Z" transform="translate(0)" fill="#212121"/><path d="M14.51,23.19c-.08.2-.61-.11-.83-.81,0-.07.2.13.29.12s.37-.16.47-.07S14.58,23,14.51,23.19Z" transform="translate(0)" fill="#212121"/><path d="M15,21.3c-.65,0-1.07.9-1.25.93s-.39-.24-.4-.82A4.73,4.73,0,0,0,12.9,20l-.13-.6-.1.75-.16-.55-.11.26-.27-1-.25.58a5.09,5.09,0,0,0,0-1.41,3.74,3.74,0,0,0-.34-.93,4.14,4.14,0,0,1,.07.66,1.43,1.43,0,0,1-.09.35l-.28-.89-.12.44-.28-.52-.11.35a3.51,3.51,0,0,0-.79-.82c-.39-.23-.87-1.42-.87-1.42s.78-.63,1-.54.12.5.79.91,1,.21,1.15.32.12.57.12.57l.39-.57a.24.24,0,0,1,.14.16l.07.3a3.25,3.25,0,0,0-.08-1.11c-.16-.56-.29-.89-.29-.89a.91.91,0,0,1,.52-.11,3.23,3.23,0,0,1,.48.07,2.56,2.56,0,0,1,.5,1.09,7.56,7.56,0,0,1-.19,2.38c-.2.61-.48,1.55-.48,1.55a17.64,17.64,0,0,0,.9-2.63,3.56,3.56,0,0,0-.12-2c-.21-.44-.29-.58-.29-.58A5.47,5.47,0,0,1,15,13.51v6.07a.52.52,0,0,0-.44.32,1.1,1.1,0,0,0-.12.43s.38-.52.56-.52Z" transform="translate(0)" fill="#212121"/><path d="M10.68,14.43c.08-.15.33-.17.59-.12l.21.06v.32a.23.23,0,0,0,0,.46.23.23,0,0,0,.24-.23.24.24,0,0,0-.09-.18h0l0-.34s.54.14.66.4.2.79,0,.88a1.55,1.55,0,0,1-1.22-.22A1.09,1.09,0,0,1,10.68,14.43Z" transform="translate(0)" fill="#212121"/><rect width="30" height="30" fill="none"/></svg>