<!-- Copyright (c) 2023 Jan Stehno -->
<svg xmlns="http://www.w3.org/2000/svg" viewBox="0 0 300 300">
    <title>redfox</title>
    <g id="redfox">
        <g id="right">
            <path
                d="M268.26,166.32l-11.86-9.68L265.07,140l-8.94-15-10.22-5.66.09-19.25-9.31,12.41,14.42-37.51-3.24-3.15s4-26,2.6-35.45S239.93,1,238,.05s-27,11.23-33.12,16.29-24,20.94-24.91,24.78.27,10.81-1.37,16.29a29.86,29.86,0,0,1-4.93,9.44s2.87-10.13,2.6-16-.55-10-.55-10l10.13-13.27L150,36.05l0,75.2,7-6.43V120.1l5-5s-1.94,16.67-1.39,19.13,4.92,6.71,4.92,6.71l7.12-3.15,3.83,3.15s1.92-4.65,4.8-6.57,10.53-3.15,10.53-3.15-7.52,3.29-8.89,5.89a10,10,0,0,0-1.37,4.15L191.88,139l6.89,5a14.26,14.26,0,0,1,10.13,1.51c4.7,2.92,22.41,17.11,22.41,17.11l-4.11-9,7.25-5.89-5.06-8.14,6,.89a29.6,29.6,0,0,0-4.24-8.35,66.76,66.76,0,0,0-6.09-6.84s6.57,2.46,10.33,6.43,5.41,9.44,7.6,12.25a49,49,0,0,0,3.49,4.11l-4.93-.69a19.91,19.91,0,0,0,4.93,8.69,22.42,22.42,0,0,1,5.2,8.42s-4.17-3.15-7.25-3.49-14,.3-15.36,14.53,22,36.5,22,36.5l2.28-14.51L264,191.87l-6.11-12.51Zm-33.4-84.41v5.47l-5.74-11.09-2,19.44,4.72.55.69,11.22-4.66,7.94L221.72,113l3-4.93-13.14-2,7.32-5-8.56-.55,1.92-7.39L201.47,93l17.45-7.52-16.77-.69-8.49-10.54,12.46-.68-8.49-8.08,19.78-4.38-16.08-3.42,9.31-5.2L225.06,65.3l-6.35-13.23,4-15.88-3-1.23,8.08-2.19.68-8.49,6.3,4.11-.55-11.23,10,10.54-4,11.36,4,4.38-5.06,7.94,5.06,3.15-4.65,4.38,4.65,10.68-5.34,2.6V78.9Z"
                transform="translate(0)" fill="#212121" />
            <path
                d="M150,253.1v33.21c2.24.14,7.07,13.69,7.07,13.69s2.1-12.5,5.39-17a61.66,61.66,0,0,1,8.76-9.1l4.65,5.13s4.38-6.91,8.69-9.58a47.25,47.25,0,0,1,8.83-4.17l3.15-7.74,4.93,4.52L207.76,248l8.22,5.29,7.2-18.34,7,10.73-3.28-23.4,7.39,7.94L236,218l6.36,11.43,1.17-8.14,6.09,2.32S246.7,214,241.37,207,226,191.34,226,191.34l4.38,12.46L218,196.54l4.38,10.75-6.37-3.9,4.45,7.59-11.29-7.87,3.56,8.49L205.5,208l1.75,4.08-6.91-3.74,1.61,5.13-4.52-2.8s5.82,6.09,6.77,12.11a43,43,0,0,1-.34,12.8s-.14-8.9-3.52-13.55a29.91,29.91,0,0,0-7.5-7.19l-.27,6.44-5.34-3s1.78,10.47-2.46,16.35S167.25,252.41,150,253.1Z"
                transform="translate(0)" fill="#212121" />
            <path
                d="M150,244.51c4.31,0,9-.57,11.53-1.54s6.09-2.17,5.31-.94c-1.17,2.21-7.26,8.17-16.84,8.17Z"
                transform="translate(0)" fill="#212121" />
            <path
                d="M154.89,231.86c.81,2,6.08-1.05,8.27-8.08.2-.64-1.95,1.29-2.86,1.2-1.78-.19-3.72-1.56-4.73-.7C154.13,225.52,154.17,230,154.89,231.86Z"
                transform="translate(0)" fill="#212121" />
            <path
                d="M150,213c6.55,0,10.72,9.05,12.55,9.28s3.81-2.37,3.94-8.19,3.95-11.79,4.5-14.16,1.28-6,1.28-6l1,7.49,1.64-5.48,1.1,2.65,2.73-10.13,2.47,5.84s-1.19-8.76,0-14.15a37.55,37.55,0,0,1,3.37-9.3,47.48,47.48,0,0,0-.7,6.66,17.32,17.32,0,0,0,1,3.44l2.73-8.92,1.27,4.42,2.77-5.17,1.13,3.49s4.07-5.89,7.91-8.21,8.62-14.24,8.62-14.24-7.74-6.29-10.34-5.34-1.23,5-7.93,9-10.29,2.19-11.53,3.19-1.14,5.71-1.14,5.71l-4-5.71a2.46,2.46,0,0,0-1.36,1.64c-.32,1.24-.69,3-.69,3a31.3,31.3,0,0,1,.82-11.09c1.55-5.61,2.88-8.94,2.88-8.94a8.59,8.59,0,0,0-5.25-1.05,28.41,28.41,0,0,0-4.75.68s-4.42,5.52-5.06,10.86,0,17.7,2,23.82,4.75,15.46,4.75,15.46-7.67-18.16-8.95-26.28-.86-15.14,1.19-19.57a58.17,58.17,0,0,1,2.92-5.79s-10.12-6.79-12.82-6.79v60.7a5.24,5.24,0,0,1,4.41,3.19,10.07,10.07,0,0,1,1.2,4.31s-3.8-5.23-5.61-5.23Z"
                transform="translate(0)" fill="#212121" />
            <path
                d="M193.15,144.25c-.79-1.47-3.29-1.64-5.8-1.12-1.15.24-2.19.58-2.19.58v3.15a2.34,2.34,0,1,1-2.34,2.34,2.29,2.29,0,0,1,.9-1.83h0l.38-3.38s-5.41,1.36-6.54,4c-1.53,3.6-2.06,7.87-.41,8.83s8.24.51,12.14-2.23S193.94,145.73,193.15,144.25Z"
                transform="translate(0)" fill="#212121" />
        </g>
        <g id="left">
            <path
                d="M42.14,179.36,36,191.87l10.67,5.74L49,212.12s23.36-22.26,22-36.5S58.7,160.75,55.62,161.09s-7.25,3.49-7.25,3.49a22.42,22.42,0,0,1,5.2-8.42,19.91,19.91,0,0,0,4.93-8.69l-4.93.69a49,49,0,0,0,3.49-4.11c2.19-2.81,3.83-8.28,7.6-12.25S75,125.37,75,125.37a66.76,66.76,0,0,0-6.09,6.84,29.6,29.6,0,0,0-4.24,8.35l6-.89-5.06,8.14,7.25,5.89-4.11,9S86.4,148.48,91.1,145.56a14.26,14.26,0,0,1,10.13-1.51l6.89-5,10.26,2.19a10,10,0,0,0-1.37-4.15c-1.37-2.6-8.89-5.89-8.89-5.89s7.66,1.24,10.53,3.15,4.8,6.57,4.8,6.57l3.83-3.15,7.12,3.15s4.38-4.24,4.92-6.71-1.39-19.13-1.39-19.13l5,5V104.82l7,6.43,0-75.2-35.86-8.48,10.13,13.27s-.28,4.11-.55,10,2.6,16,2.6,16a29.86,29.86,0,0,1-4.93-9.44C119.75,51.93,121,45,120,41.12S101.27,21.41,95.11,16.34,63.9-.9,62,.05,50.9,27,49.53,36.46s2.6,35.45,2.6,35.45l-3.24,3.15,14.42,37.51L54,100.16l.09,19.25-10.22,5.66-8.94,15,8.67,16.61-11.86,9.68Zm19-100.46V72.19l-5.34-2.6,4.65-10.68-4.65-4.38,5.06-3.15-5.06-7.94,4-4.38-4-11.36,10-10.54-.55,11.23,6.3-4.11.68,8.49L80.33,35l-3,1.23,4,15.88L74.94,65.3,89.36,52.48l9.31,5.2L82.59,61.1l19.78,4.38-8.49,8.08,12.46.68L97.85,84.78l-16.77.69L98.53,93l-10.81.14,1.92,7.39-8.56.55,7.32,5-13.14,2,3,4.93-6.16,2.46-4.66-7.94.69-11.22,4.72-.55-2-19.44L65.14,87.38V81.91Z"
                transform="translate(0)" fill="#212121" />
            <path
                d="M150,253.1v33.21c-2.24.14-7.07,13.69-7.07,13.69s-2.1-12.5-5.39-17a61.66,61.66,0,0,0-8.76-9.1L124.13,279s-4.38-6.91-8.69-9.58a47.25,47.25,0,0,0-8.83-4.17l-3.15-7.74L98.53,262,92.24,248,84,253.28l-7.2-18.34-7,10.73,3.28-23.4-7.39,7.94L64,218l-6.36,11.43-1.17-8.14-6.09,2.32S53.3,214,58.63,207,74,191.34,74,191.34L69.65,203.8,82,196.54l-4.38,10.75,6.37-3.9L79.51,211l11.29-7.87-3.56,8.49L94.5,208l-1.75,4.08,6.91-3.74-1.61,5.13,4.52-2.8s-5.82,6.09-6.77,12.11a43,43,0,0,0,.34,12.8s.14-8.9,3.52-13.55a29.91,29.91,0,0,1,7.5-7.19l.27,6.44,5.34-3s-1.78,10.47,2.46,16.35S132.75,252.41,150,253.1Z"
                transform="translate(0)" fill="#212121" />
            <path
                d="M150,244.51c-4.31,0-9-.57-11.53-1.54s-6.09-2.17-5.31-.94c1.17,2.21,7.26,8.17,16.84,8.17Z"
                transform="translate(0)" fill="#212121" />
            <path
                d="M145.11,231.86c-.81,2-6.08-1.05-8.27-8.08-.2-.64,1.95,1.29,2.86,1.2,1.78-.19,3.72-1.56,4.73-.7C145.87,225.52,145.83,230,145.11,231.86Z"
                transform="translate(0)" fill="#212121" />
            <path
                d="M150,213c-6.55,0-10.72,9.05-12.55,9.28s-3.81-2.37-3.94-8.19-3.95-11.79-4.5-14.16-1.28-6-1.28-6l-1,7.49-1.64-5.48-1.1,2.65-2.73-10.13-2.47,5.84s1.19-8.76,0-14.15a37.55,37.55,0,0,0-3.37-9.3,47.48,47.48,0,0,1,.7,6.66,17.32,17.32,0,0,1-1,3.44L112.43,172l-1.27,4.42-2.77-5.17-1.13,3.49s-4.07-5.89-7.91-8.21-8.62-14.24-8.62-14.24,7.74-6.29,10.34-5.34,1.23,5,7.93,9,10.29,2.19,11.53,3.19,1.14,5.71,1.14,5.71l4-5.71a2.46,2.46,0,0,1,1.36,1.64c.32,1.24.69,3,.69,3a31.3,31.3,0,0,0-.82-11.09c-1.55-5.61-2.88-8.94-2.88-8.94a8.59,8.59,0,0,1,5.25-1.05,28.41,28.41,0,0,1,4.75.68s4.42,5.52,5.06,10.86,0,17.7-2,23.82-4.75,15.46-4.75,15.46,7.67-18.16,8.95-26.28.86-15.14-1.19-19.57a58.17,58.17,0,0,0-2.92-5.79s10.12-6.79,12.82-6.79v60.7a5.24,5.24,0,0,0-4.41,3.19,10.07,10.07,0,0,0-1.2,4.31s3.8-5.23,5.61-5.23Z"
                transform="translate(0)" fill="#212121" />
            <path
                d="M106.85,144.25c.79-1.47,3.29-1.64,5.8-1.12,1.15.24,2.19.58,2.19.58v3.15a2.34,2.34,0,1,0,2.34,2.34,2.29,2.29,0,0,0-.9-1.83h0l-.38-3.38s5.41,1.36,6.54,4c1.53,3.6,2.06,7.87.41,8.83s-8.24.51-12.14-2.23S106.06,145.73,106.85,144.25Z"
                transform="translate(0)" fill="#212121" />
        </g>
    </g>
    <g id="frame">
        <rect width="300" height="300" fill="none" />
    </g>
</svg>