<!-- Copyright (c) 2022 Jan Stehno -->
<svg xmlns="http://www.w3.org/2000/svg" viewBox="0 0 300 300"><title>reindeer</title><g id="reindeer"><g id="right"><path d="M150,268.93c1.25,0,.9-2.15,2.36-2.15s2.34,1.75,2.34,3.12-2.24,1.42-2.24,3,3.75,3.19,8.13,3.69-3.86,1.61-7.16,2,1.67,3.45-.31,3.45-2-1.45-3.12-1.45Z" transform="translate(0)" fill="#212121"/><path d="M189.55,196.93c1.9,0,3.09.41,3.09,2.8s-4.33,7.68-6.52,7.68-3.21-1.07-3.21-2.82S186.7,196.93,189.55,196.93Z" transform="translate(0)" fill="#212121"/><path d="M166.11,156c0,1.51.29,2,1.56,2s.62-1.37,2-1.37,5.1,9.88,6.75,9.88,6.71-5.63,9.31-12.86,7.71-9.16,12.9-9.87,13.8-6.71,16.4-6.71,2.88.52,4.73.52,2.55-2.32,2.55-6.24-3.38-23.91-6.5-31.85-5-10.42-10-10.42-6.38,2.69-6.38,6.09,6.09,5.53,9.35,14.75,4.29,16.21,2.63,17.87-7.85,7.65-14.68,8.33-8.08.45-.42-1.39,13.54-7.2,13.54-8.69-.07-3.47-1.92-3.47-32,15.13-35.3,18.47-1.91,6.94-3.54,10.42S166.11,154.73,166.11,156Z" transform="translate(0)" fill="#212121"/><path d="M224.81,124.49c1.56,0,14.69-9,22.11-22.87s12.38-24.69,13.87-32.35,2.27-11.34,9.71-17.58,8.23-8.65,8.23-15.24-3.62-13.82-4.82-19.85S272.49,9.94,272.42,7s-2.27-3.33-2.48,7.73,2.34,10.63,2.34,19.21-6.45,11.48-6.95,11-1.28-3.76-.43-14.68.78-12.26,1.63-15-1.41-1.21-5.6,8.57-4.32,8.15-8.71,3.33-6.81-7.51-12-11.48a27.69,27.69,0,0,1-9.79-12.55c-2.33-5.38-3.19-4.18-.85,6.38s7,12.48,14.75,18.86,9.43,17.93,8.43,18.93-3-.43-7-3.76-5.53-2.41-1.14,5.67,6.74,12.47,6.74,19.85-8.51,21-10.14,22.68-1.84.92-4-4-7.59-8.65-10.49-8.65-5.32,1.56.42,7.45,6.24,10.49,5.53,15.24-8.89,11.87-9.85,12.83S223.84,124.49,224.81,124.49Z" transform="translate(0)" fill="#212121"/><path d="M194.3,202.71c.81,0,3.57,5.35,3.57,7s-2.72,4-2.72,6.28,1.24,8.25,3.55,11.59,3.65,5,3.65,5A13.34,13.34,0,0,1,199,232c-1.63-.57-3.26-1.32-3.26-1.32l2.23,3.48a3,3,0,0,0-1.35,2.59c0,1.8,7,8.47,7,8.47s-6.29-.64-8.22,3.66.94,10.39.94,10.39h-3.67a19.88,19.88,0,0,0,1.49,4,39,39,0,0,0,2.16,3.86s-2.53-.61-6.17,2.79-3.64,5.81-3.64,5.81H180a31.85,31.85,0,0,1-1.83,9.44c-1.92,5.92-3.44,7.12-3.44,7.12v-2.8a19.83,19.83,0,0,0-5.46,4.82,19,19,0,0,0-3.08,5.07,15.74,15.74,0,0,0-1.92-3.68,10.89,10.89,0,0,0-2.44-2.34,11.22,11.22,0,0,1-3,2.53,8.37,8.37,0,0,1-3.05,1.06v-1.58S150,296.57,150,300V288.14a5.24,5.24,0,0,0,3.52,1.82c2,0,3.43-4,5.16-4s2.91-2.72,2.91-2.72l3,3.22a15.49,15.49,0,0,0-.46-3.19,8.08,8.08,0,0,0-2.27-3.12l5.49,1.85a4.65,4.65,0,0,0-.28-1.67,9.85,9.85,0,0,0-1.49-2.16l6,2.73a11.38,11.38,0,0,1,2.73-6.31c2.62-3.12,4.71-3.76,4.71-8.51s3.1-8.37,6.5-13.53,2.6-11.9,1.09-16.25,0-16.16,2.93-19.76,4-4.56,4.51-7.37S193.17,202.71,194.3,202.71Z" transform="translate(0)" fill="#212121"/><path d="M215.78,140c-4.46,0-15.57,6.48-25.73,15.52-5.82,5.18-8.47,14.57-13.29,14.57s-7.67-9.41-8.47-9.41-.23,1.24-1.84,1.24-3.53-3.41-3.53-5.18,2.44-5.15,2.44-6.93.66-2.29-1.92-2.29a5,5,0,0,0-5.31,4c-.73,2.88-4.51,3.72-8.13,3.72v1.54c5,0,11.91,1.34,10.77,5.1s-1.09,4,2.31,2.55,3.29.32,3.29,1.92-3.5,2.58,2.59,3.43-2.09,1.1,2.41,2.52,8,4.47,3.72,3.58-4.14.67-2.73,1.91,2.63,2.38-.46,1.74-1.59.5.18,2.73-1.52,3.79-3.65,4.93,2.76,2.62.07,2.58-7-7.51-10.6-7.51-3.68,4.5-7.9,4.5v63c7.94,0,11.81,3.81,11.81.14,0-1.56,5.63-1.28,5.63,4s-7.64,5.64-10.12,7.07c-1.55.9-.85,7,3.79,7s6.42-8.22,7.79-11.53,1.18,3.64-.42,10-2.22,8.41,0,6.43,4.82-6.15,4.82-10.12-.47-5,3.31-9.92,7.44-26.86,8.1-31.68,6.43-9.5,6.43-13.12-2.91,1.54-5.55,1.54-5.82-.74-5.82-3.95,7.07-10.51,9.48-10.51c1.56,0,5.45,1.73,8,3a.39.39,0,0,0,.45-.63c-1.6-1.62-3.61-4-3.61-5.73,0-2.85,5.08-6.92,13-15.57s8.72-10.06,8.72-17.75,4.32-12.59,4.32-15S220.25,140,215.78,140Zm-27.29,52c-4.08.39-8,6.24-9.43,9.78-1.59,4-.46-5.49,3.55-10.91s.53-1.74,5.16-.53S192.57,191.58,188.49,192Zm20.27-31.76c-2.76,4.33-6.73,6-6.73,9.79s-3,4.49-3,7.84-6.48,9.88-9.08,9.88a2.94,2.94,0,0,1-2.82-3.12c0-1.81-3.09-2.69-3.09-5s0-3.44,2.56-1.56,3.15,2.41,3.22-.1,3-.78.89-2.63-3.26-3.4.42-2.12,4,1.24.89-1.67-7.55-7.12-.78-4.93-1.84-4.71,3.3-3.61-1.42-3.76,3.47-7.16.92-2.73.92-4.18,3.54-4.65,7.41-4.65,6.31,2.7-.57,6.67-5.95,4.39-.81,3.54S211.53,155.89,208.76,160.21Z" transform="translate(0)" fill="#212121"/></g><g id="left"><path d="M150,268.93c-1.25,0-.9-2.15-2.36-2.15s-2.34,1.75-2.34,3.12,2.24,1.42,2.24,3-3.75,3.19-8.13,3.69,3.86,1.61,7.16,2-1.67,3.45.31,3.45,2-1.45,3.12-1.45Z" transform="translate(0)" fill="#212121"/><path d="M110.45,196.93c-1.9,0-3.09.41-3.09,2.8s4.33,7.68,6.52,7.68,3.21-1.07,3.21-2.82S113.3,196.93,110.45,196.93Z" transform="translate(0)" fill="#212121"/><path d="M133.89,156c0,1.51-.29,2-1.56,2s-.62-1.37-2-1.37-5.1,9.88-6.75,9.88-6.71-5.63-9.31-12.86-7.71-9.16-12.9-9.87-13.8-6.71-16.4-6.71-2.88.52-4.73.52-2.55-2.32-2.55-6.24,3.38-23.91,6.5-31.85,5-10.42,10-10.42,6.38,2.69,6.38,6.09-6.09,5.53-9.35,14.75-4.29,16.21-2.63,17.87,7.85,7.65,14.68,8.33,8.08.45.42-1.39-13.54-7.2-13.54-8.69.07-3.47,1.92-3.47,32,15.13,35.3,18.47,1.91,6.94,3.54,10.42S133.89,154.73,133.89,156Z" transform="translate(0)" fill="#212121"/><path d="M75.19,124.49c-1.56,0-14.69-9-22.11-22.87S40.7,76.93,39.21,69.27,36.94,57.93,29.5,51.69,21.27,43,21.27,36.45s3.62-13.82,4.82-19.85S27.51,9.94,27.58,7s2.27-3.33,2.48,7.73S27.72,25.39,27.72,34s6.45,11.48,7,11S36,41.2,35.1,30.28s-.78-12.26-1.63-15,1.41-1.21,5.6,8.57,4.32,8.15,8.71,3.33,6.81-7.51,12-11.48A27.69,27.69,0,0,0,69.55,3.13c2.33-5.38,3.19-4.18.85,6.38S63.45,22,55.65,28.37,46.22,46.3,47.22,47.3s3-.43,7-3.76,5.53-2.41,1.14,5.67-6.74,12.47-6.74,19.85,8.51,21,10.14,22.68,1.84.92,4-4,7.59-8.65,10.49-8.65,5.32,1.56-.42,7.45-6.24,10.49-5.53,15.24,8.89,11.87,9.85,12.83S76.16,124.49,75.19,124.49Z" transform="translate(0)" fill="#212121"/><path d="M105.7,202.71c-.81,0-3.57,5.35-3.57,7s2.72,4,2.72,6.28-1.24,8.25-3.55,11.59-3.65,5-3.65,5A13.34,13.34,0,0,0,101,232c1.63-.57,3.26-1.32,3.26-1.32L102,234.15a3,3,0,0,1,1.35,2.59c0,1.8-7,8.47-7,8.47s6.29-.64,8.22,3.66-.94,10.39-.94,10.39h3.67a19.88,19.88,0,0,1-1.49,4,39,39,0,0,1-2.16,3.86s2.53-.61,6.17,2.79,3.64,5.81,3.64,5.81H120a31.85,31.85,0,0,0,1.83,9.44c1.92,5.92,3.44,7.12,3.44,7.12v-2.8a19.83,19.83,0,0,1,5.46,4.82,19,19,0,0,1,3.08,5.07,15.74,15.74,0,0,1,1.92-3.68,10.89,10.89,0,0,1,2.44-2.34,11.22,11.22,0,0,0,3,2.53,8.37,8.37,0,0,0,3.05,1.06v-1.58S150,296.57,150,300V288.14a5.24,5.24,0,0,1-3.52,1.82c-2,0-3.43-4-5.16-4s-2.91-2.72-2.91-2.72l-3,3.22a15.49,15.49,0,0,1,.46-3.19,8.08,8.08,0,0,1,2.27-3.12L132.67,282a4.65,4.65,0,0,1,.28-1.67,9.85,9.85,0,0,1,1.49-2.16l-6,2.73a11.38,11.38,0,0,0-2.73-6.31c-2.62-3.12-4.71-3.76-4.71-8.51s-3.1-8.37-6.5-13.53-2.6-11.9-1.09-16.25,0-16.16-2.93-19.76-4-4.56-4.51-7.37S106.83,202.71,105.7,202.71Z" transform="translate(0)" fill="#212121"/><path d="M80,143.38c0,2.37,4.32,7.27,4.32,15s.85,9.11,8.72,17.75S106,188.81,106,191.66c0,1.73-2,4.11-3.61,5.73a.39.39,0,0,0,.45.63c2.55-1.22,6.44-3,8-3,2.41,0,9.48,7.3,9.48,10.51s-3.17,3.95-5.82,3.95-5.55-5.15-5.55-1.54,5.77,8.29,6.43,13.12,4.32,26.81,8.1,31.68,3.31,6,3.31,9.92,2.65,8.13,4.82,10.12,1.56-.05,0-6.43-1.79-13.33-.42-10,3.16,11.53,7.79,11.53,5.34-6.11,3.79-7c-2.48-1.43-10.12-1.82-10.12-7.07s5.63-5.53,5.63-4c0,3.67,3.87-.14,11.81-.14v-63c-4.22,0-4.29-4.5-7.9-4.5s-7.91,7.48-10.6,7.51,2.2-1.45.07-2.58-5.42-2.7-3.65-4.93,3.26-3.37.18-2.73-1.88-.5-.46-1.74,1.59-2.8-2.73-1.91-.78-2.16,3.72-3.58-3.69-1.66,2.41-2.52,2.59-1.84,2.59-3.43-.11-3.41,3.29-1.92,3.44,1.21,2.31-2.55,5.77-5.1,10.77-5.1v-1.54c-3.62,0-7.4-.84-8.13-3.72a5,5,0,0,0-5.31-4c-2.58,0-1.92.52-1.92,2.29s2.44,5.16,2.44,6.93-1.91,5.18-3.53,5.18-1-1.24-1.84-1.24-3.65,9.41-8.47,9.41-7.47-9.39-13.29-14.57C99.79,146.46,88.68,140,84.22,140S80,141,80,143.38Zm32.26,46.93c4.63-1.21,1.16-4.9,5.16.53s5.14,14.92,3.55,10.91c-1.41-3.54-5.35-9.39-9.43-9.78S107.59,191.51,112.23,190.31ZM95.06,157.2c5.14.85,6.06.43-.81-3.54S89.82,147,93.68,147s7.41,3.19,7.41,4.65-4,.78.92,4.18-1.66,8.26,3.47,7.16-3.47,5.81,3.3,3.61,2.3,2-.78,4.93-2.8,2.94.89,1.67,2.58.28.42,2.12.82.11.89,2.63.67,2,3.22.1,2.56-.74,2.56,1.56-3.09,3.19-3.09,5a2.94,2.94,0,0,1-2.82,3.12c-2.6,0-9.08-6.52-9.08-9.88s-3-4.11-3-7.84-4-5.46-6.73-9.79S89.93,156.35,95.06,157.2Z" transform="translate(0)" fill="#212121"/></g></g><g id="frame"><rect width="300" height="300" fill="none"/></g></svg>