<svg xmlns="http://www.w3.org/2000/svg" viewBox="0 0 30 30"><path d="M15,26.89c.13,0,.09-.21.24-.21s.23.17.23.31-.22.14-.22.3.37.32.81.37-.39.16-.72.19.17.35,0,.35-.2-.14-.31-.14Z" transform="translate(0 0)" fill="#212121"/><path d="M19,19.69c.18,0,.3,0,.3.28s-.43.77-.65.77-.32-.11-.32-.28S18.67,19.69,19,19.69Z" transform="translate(0 0)" fill="#212121"/><path d="M16.61,15.6c0,.15,0,.2.16.2s.06-.13.2-.13.51,1,.68,1a2.29,2.29,0,0,0,.93-1.28,1.43,1.43,0,0,1,1.29-1c.52-.07,1.38-.67,1.64-.67s.29,0,.47,0,.25-.23.25-.62A15.67,15.67,0,0,0,21.59,10c-.32-.79-.5-1-1-1s-.64.27-.64.61.61.55.93,1.48.43,1.62.27,1.78a2.79,2.79,0,0,1-1.47.84c-.68.06-.81,0,0-.14A2.14,2.14,0,0,0,21,12.61c0-.15,0-.35-.19-.35a22.4,22.4,0,0,0-3.53,1.85c-.33.33-.19.69-.36,1S16.61,15.47,16.61,15.6Z" transform="translate(0 0)" fill="#212121"/><path d="M22.48,12.45a5.62,5.62,0,0,0,2.21-2.29,13.71,13.71,0,0,0,1.39-3.23,2.39,2.39,0,0,1,1-1.76c.74-.62.82-.87.82-1.53a10.8,10.8,0,0,0-.48-2,4.86,4.86,0,0,1-.15-1c0-.29-.23-.33-.25.78s.24,1.06.24,1.92-.65,1.15-.7,1.1-.12-.38,0-1.47a8.24,8.24,0,0,1,.16-1.5c.09-.28-.14-.12-.56.85s-.43.82-.87.34A7.68,7.68,0,0,0,24,1.57a2.8,2.8,0,0,1-1-1.26C22.81-.23,22.73-.1,23,1s.7,1.25,1.47,1.89a2.35,2.35,0,0,1,.85,1.89c-.1.1-.31,0-.7-.38s-.56-.24-.12.57a3.8,3.8,0,0,1,.68,2,5.24,5.24,0,0,1-1,2.26c-.16.17-.18.1-.4-.39a1.52,1.52,0,0,0-1-.87c-.29,0-.53.16,0,.75a1.61,1.61,0,0,1,.56,1.52c-.08.48-.89,1.19-1,1.28A1.61,1.61,0,0,0,22.48,12.45Z" transform="translate(0 0)" fill="#212121"/><path d="M19.43,20.27a1.44,1.44,0,0,1,.36.71c0,.17-.27.39-.27.62a2.57,2.57,0,0,0,.35,1.16c.23.34.36.5.36.5a1.07,1.07,0,0,1-.33-.06l-.32-.13.22.34a.31.31,0,0,0-.14.26c0,.18.7.85.7.85s-.63-.06-.82.37a1.46,1.46,0,0,0,.09,1h-.37a2,2,0,0,0,.15.39,3.19,3.19,0,0,0,.22.39s-.25-.06-.62.28-.36.58-.36.58H18a3.12,3.12,0,0,1-.18.94c-.19.6-.35.72-.35.72V29a2,2,0,0,0-.54.48,1.88,1.88,0,0,0-.31.51,1.76,1.76,0,0,0-.19-.37,1.33,1.33,0,0,0-.25-.24,1.13,1.13,0,0,1-.29.26.93.93,0,0,1-.31.1v-.16S15,29.66,15,30V28.81a.52.52,0,0,0,.35.19c.2,0,.34-.4.52-.4s.29-.28.29-.28l.3.33a1.87,1.87,0,0,0-.05-.32.73.73,0,0,0-.23-.31l.55.18a.35.35,0,0,0,0-.17,1,1,0,0,0-.14-.21l.59.27a1.19,1.19,0,0,1,.28-.63c.26-.31.47-.38.47-.85a2.59,2.59,0,0,1,.65-1.35,1.93,1.93,0,0,0,.11-1.63,3.08,3.08,0,0,1,.29-2c.29-.35.4-.45.45-.73S19.32,20.27,19.43,20.27Z" transform="translate(0 0)" fill="#212121"/><path d="M21.58,14A6.06,6.06,0,0,0,19,15.55c-.58.52-.84,1.46-1.32,1.46s-.77-.94-.85-.94,0,.12-.19.12-.35-.34-.35-.52.25-.51.25-.69.06-.23-.2-.23a.5.5,0,0,0-.53.4c-.07.29-.45.37-.81.37v.16c.5,0,1.19.13,1.08.51s-.11.4.23.25.33,0,.33.19-.35.26.26.35-.21.11.24.25.8.45.37.36-.42.07-.27.19.26.24,0,.17-.16.05,0,.28-.15.38-.37.49.28.26,0,.26-.7-.75-1.06-.75-.37.45-.79.45V25c.79,0,1.18.38,1.18,0,0-.16.56-.13.56.39s-.76.57-1,.71-.08.7.38.7.64-.82.78-1.15.12.36,0,1-.22.84,0,.64a1.52,1.52,0,0,0,.49-1,1.13,1.13,0,0,1,.33-1,12.43,12.43,0,0,0,.81-3.17c.06-.48.64-.95.64-1.31s-.29.15-.56.15-.58-.07-.58-.39a1.77,1.77,0,0,1,1-1,2.92,2.92,0,0,1,.8.29,0,0,0,0,0,0-.06c-.15-.16-.36-.4-.36-.57s.51-.7,1.3-1.56.87-1,.87-1.78A5.16,5.16,0,0,1,22,14.34C22,14.1,22,14,21.58,14Zm-2.73,5.2c-.41,0-.8.62-.94,1s-.05-.55.35-1.1,0-.17.52,0S19.26,19.16,18.85,19.2Zm2-3.18c-.28.43-.68.61-.68,1s-.3.45-.3.78a1.51,1.51,0,0,1-.91,1,.29.29,0,0,1-.28-.31c0-.18-.31-.27-.31-.5s0-.34.26-.16.31.25.32,0,.3-.07.09-.26-.33-.34,0-.21.4.12.09-.17-.75-.71-.08-.49-.18-.47.33-.36-.14-.38.35-.72.09-.27.09-.42.36-.46.74-.46.63.27-.05.67-.6.44-.09.35S21.15,15.59,20.88,16Z" transform="translate(0 0)" fill="#212121"/><path d="M15,26.89c-.13,0-.09-.21-.24-.21s-.23.17-.23.31.22.14.22.3-.37.32-.81.37.39.16.72.19-.17.35,0,.35.2-.14.31-.14Z" transform="translate(0 0)" fill="#212121"/><path d="M11,19.69c-.18,0-.3,0-.3.28s.43.77.65.77.32-.11.32-.28S11.33,19.69,11,19.69Z" transform="translate(0 0)" fill="#212121"/><path d="M13.39,15.6c0,.15,0,.2-.16.2s-.06-.13-.2-.13-.51,1-.68,1a2.29,2.29,0,0,1-.93-1.28,1.43,1.43,0,0,0-1.29-1c-.52-.07-1.38-.67-1.64-.67s-.29,0-.47,0-.25-.23-.25-.62A15.67,15.67,0,0,1,8.41,10c.32-.79.5-1,1-1s.64.27.64.61-.61.55-.93,1.48-.43,1.62-.27,1.78a2.79,2.79,0,0,0,1.47.84c.68.06.81,0,0-.14A2.14,2.14,0,0,1,9,12.61c0-.15,0-.35.19-.35a22.4,22.4,0,0,1,3.53,1.85c.33.33.19.69.36,1S13.39,15.47,13.39,15.6Z" transform="translate(0 0)" fill="#212121"/><path d="M7.52,12.45a5.62,5.62,0,0,1-2.21-2.29A13.71,13.71,0,0,1,3.92,6.93,2.39,2.39,0,0,0,3,5.17c-.74-.62-.82-.87-.82-1.53a10.8,10.8,0,0,1,.48-2,4.86,4.86,0,0,0,.15-1c0-.29.23-.33.25.78S2.77,2.54,2.77,3.4s.65,1.15.7,1.1.12-.38,0-1.47a8.24,8.24,0,0,0-.16-1.5c-.09-.28.14-.12.56.85s.43.82.87.34A7.68,7.68,0,0,1,6,1.57,2.8,2.8,0,0,0,7,.31C7.19-.23,7.27-.1,7,1S6.34,2.2,5.57,2.84a2.35,2.35,0,0,0-.85,1.89c.1.1.31,0,.7-.38s.56-.24.12.57a3.8,3.8,0,0,0-.68,2,5.24,5.24,0,0,0,1,2.26c.16.17.18.1.4-.39a1.52,1.52,0,0,1,1-.87c.29,0,.53.16,0,.75a1.61,1.61,0,0,0-.56,1.52c.08.48.89,1.19,1,1.28A1.61,1.61,0,0,1,7.52,12.45Z" transform="translate(0 0)" fill="#212121"/><path d="M10.57,20.27a1.44,1.44,0,0,0-.36.71c0,.17.27.39.27.62a2.57,2.57,0,0,1-.35,1.16c-.23.34-.36.5-.36.5a1.07,1.07,0,0,0,.33-.06l.32-.13-.22.34a.31.31,0,0,1,.14.26c0,.18-.7.85-.7.85s.63-.06.82.37a1.46,1.46,0,0,1-.09,1h.37a2,2,0,0,1-.15.39,3.19,3.19,0,0,1-.22.39s.25-.06.62.28.36.58.36.58H12a3.12,3.12,0,0,0,.18.94c.19.6.35.72.35.72V29a2,2,0,0,1,.54.48,1.88,1.88,0,0,1,.31.51,1.76,1.76,0,0,1,.19-.37,1.33,1.33,0,0,1,.25-.24,1.13,1.13,0,0,0,.29.26.93.93,0,0,0,.31.1v-.16s.58.13.58.47V28.81a.52.52,0,0,1-.35.19c-.2,0-.34-.4-.52-.4s-.29-.28-.29-.28l-.3.33a1.87,1.87,0,0,1,.05-.32.73.73,0,0,1,.23-.31l-.55.18a.35.35,0,0,1,0-.17,1,1,0,0,1,.14-.21l-.59.27a1.19,1.19,0,0,0-.28-.63c-.26-.31-.47-.38-.47-.85a2.59,2.59,0,0,0-.65-1.35,1.93,1.93,0,0,1-.11-1.63,3.08,3.08,0,0,0-.29-2c-.29-.35-.4-.45-.45-.73S10.68,20.27,10.57,20.27Z" transform="translate(0 0)" fill="#212121"/><path d="M8,14.34a5.16,5.16,0,0,1,.43,1.49c0,.77.08.91.87,1.78s1.3,1.27,1.3,1.56-.21.41-.36.57a0,0,0,0,0,0,.06,2.92,2.92,0,0,1,.8-.29,1.77,1.77,0,0,1,.95,1c0,.32-.32.39-.58.39s-.56-.51-.56-.15.58.83.64,1.31a12.43,12.43,0,0,0,.81,3.17,1.13,1.13,0,0,1,.33,1,1.52,1.52,0,0,0,.49,1c.21.2.15,0,0-.64s-.18-1.33,0-1,.32,1.15.78,1.15.53-.61.38-.7-1-.18-1-.71.56-.55.56-.39c0,.36.39,0,1.18,0V18.68c-.42,0-.43-.45-.79-.45s-.79.74-1.06.75.22-.15,0-.26-.55-.27-.37-.49.33-.34,0-.28-.19-.05-.05-.17.16-.28-.27-.19-.08-.22.37-.36-.37-.17.24-.25.26-.19.26-.35,0-.34.33-.19.35.12.23-.25.58-.51,1.08-.51v-.16c-.36,0-.74-.08-.81-.37a.5.5,0,0,0-.53-.4c-.26,0-.2.05-.2.23s.25.51.25.69-.19.52-.35.52-.11-.12-.19-.12-.36.94-.85.94-.74-.94-1.32-1.46A6.06,6.06,0,0,0,8.42,14C8,14,8,14.1,8,14.34ZM11.22,19c.47-.12.12-.49.52,0s.51,1.5.35,1.1-.53-.94-.94-1S10.76,19.15,11.22,19ZM9.51,15.72c.51.09.6,0-.09-.35S9,14.7,9.37,14.7s.74.32.74.46-.4.08.09.42-.17.83.35.72-.35.58.33.36.23.2-.08.49-.28.3.09.17.26,0,0,.21.08,0,.09.26.07.2.32,0,.26-.07.26.16-.31.32-.31.5a.29.29,0,0,1-.28.31,1.51,1.51,0,0,1-.91-1c0-.33-.3-.41-.3-.78s-.4-.55-.68-1S9,15.64,9.51,15.72Z" transform="translate(0 0)" fill="#212121"/><rect width="30" height="30" fill="none"/></svg>