<!-- Copyright (c) 2023 Jan Stehno -->
<svg xmlns="http://www.w3.org/2000/svg" viewBox="0 0 300 300">
    <title>ringneckedpheasant</title>
    <g id="ringneckedpheasant">
        <g id="right">
            <path
                d="M150,58.93c5.05,0,7.81-4.13,17.76-4.13s31.07.05,34.23,1.37,26.73,16.23,29.34,19.24,8.84,21,9.72,26.44-1.41-1.49-7.68-7-18-4.8-25.92,1.73S188.16,111.28,186.07,121s-1.55,14.63-1.55,20.1-.91,1.77-6-4.08-8.43-4.9-16-4.9A25.71,25.71,0,0,0,150,135.22V110.05l12-6.87-12,2.11V90.87l19-7L150,86V79.51l32-9.19L150,74.4Z"
                fill="#212121" />
            <path
                d="M150,143.18a18,18,0,0,1,11.36-4.25c6.8,0,12.72,6.36,17.62,14.32s7.62,7.75,9.46,18.91.34,16.19,6.87,19.05,16,7.36,16,11.19-2.91,6.58-3.78,6.58-2.12-6.25-3.93-8.06-11-1-17.91,3.52S150,241.28,150,241.28V177.5s6.39-.24,9.9,2.93a25.65,25.65,0,0,1,4.66,5.13s-2.69-7.75-6.53-11a13.28,13.28,0,0,0-8-3.2Z"
                fill="#212121" />
            <path
                d="M150,257.87c22.55,0,35-1,44.69-7.62S210.2,237,211.33,237s2,7.45,5.71,18.06,5.61,11.26,1.94,14.86-6.89,8.66-16.33,10.29a266.51,266.51,0,0,1-36.22,3.22c-9.69,0-11.63-.51-16.43-.51Z"
                fill="#212121" />
            <path
                d="M171.79,223.42c-1.82,1.81.4,1,7.5,1s14.94-1,19.43-5.21,4-12.09,2.61-13.47-10.36-1.17-15.87,3.37S172.88,222.32,171.79,223.42Z"
                fill="#212121" />
            <path
                d="M249.15,115.29c3.11-3.67,3.71-4.05,8.3-1.63s13.88,6.6,17.24,6.6,19.14-10,19.14-11.18-22.34-7-22.34-7,18.71-.66,18.71-2.29-8.82-15.67-10.61-15.67-33.72,6.28-33.72,6.28,38-16.89,39.54-18.42.79-4.77,0-5.56-5,0-5,0S300,50.36,300,48.83s-22.76,9.74-22.76,9.74,11-13.77,11-16-1.48-5.25-3.68-5.25-12.35,3.06-21.53,8.26a156.09,156.09,0,0,0-16.33,10.72S266,40.46,266,38.83s-5-5-6.84-5-21,13-21,13S260.77,26,260.77,24.24s-6.28-7.66-8.52-7.66-43.47,34.49-43.47,36.53,13.19,9.73,23.4,17.42,13.33,28.23,13.67,36.66S245.24,119.92,249.15,115.29Z"
                fill="#212121" />
            <path
                d="M247.76,201.89c-9-9.32-12.93-13.2-12.93-14.7a2.67,2.67,0,0,1,2.38-2.85c1.36,0,20.07,10.95,21.77,10.95s-4.83-19.66-4.83-31,2.38-13-3.33-27.28-7.62-21.56-10.55-26.67-8.77-12.65-18.09-12.65S198,110.8,195.31,116s-6.43,15.82-6.43,25.61,6.27,26.38,6.73,33,11.74,18.22,15.41,18.22,19.44-6.69,19.44-4.29-14.69,8.83-16.43,15.36-2.4,13.87.92,24.79,10.25,38.52,12,41.79S232,278,236.07,278c2.76,0,12.64-7.28,15.7-19.32s9.79-28.23,9.79-37.75S256.8,211.21,247.76,201.89Zm-26.47-58.42c1.31-1.94,5.75-15.87,8.66-15.87,2.14,0,3.88,1.63,5.15,2.91s.82,16.68-.56,19.54-5.2,8.78-7.29,8.78-5.62-3.42-6.18-5.16S220,145.41,221.29,143.47Zm0,15.56s9.53,4.49,13.34.88,4.21-21.42,4.21-21.42,4.15,3.6,4.15,13.94-1.26,14.3-1.26,14.3a18.75,18.75,0,0,0-.07-4.26,8.16,8.16,0,0,0-1.12-3.64s-5.85,6.46-9,6.46S221.29,159,221.29,159Z"
                fill="#212121" />
            <path
                d="M230,152a4.13,4.13,0,1,1,0-8.26,4.06,4.06,0,0,1,2.2.65,18.8,18.8,0,0,0,.34-2.72c0-2-1.89-5.2-3.78-5.2-2.65,0-5.66,9.69-5.66,11.79s2.76,5.66,5.1,5.66c.64,0,1.25-.77,1.8-1.92Z"
                fill="#212121" />
        </g>
        <g id="left">
            <path
                d="M150,58.93c-5.05,0-7.81-4.13-17.76-4.13s-31.07.05-34.23,1.37S71.28,72.4,68.67,75.41s-8.84,21-9.72,26.44,1.41-1.49,7.68-7,18-4.8,25.92,1.73,19.29,14.75,21.38,24.44,1.55,14.63,1.55,20.1.91,1.77,6-4.08,8.43-4.9,16-4.9A25.71,25.71,0,0,1,150,135.22V110.05l-12-6.87,12,2.11V90.87l-19-7L150,86V79.51l-32-9.19,32,4.08Z"
                fill="#212121" />
            <path
                d="M150,143.18a18,18,0,0,0-11.36-4.25c-6.8,0-12.72,6.36-17.62,14.32s-7.62,7.75-9.46,18.91-.34,16.19-6.87,19.05-16,7.36-16,11.19S91.58,209,92.45,209s2.12-6.25,3.93-8.06,11-1,17.91,3.52S150,241.28,150,241.28V177.5s-6.39-.24-9.9,2.93a25.65,25.65,0,0,0-4.66,5.13s2.69-7.75,6.53-11a13.28,13.28,0,0,1,8-3.2Z"
                fill="#212121" />
            <path
                d="M150,257.87c-22.55,0-35-1-44.69-7.62S89.8,237,88.67,237s-2,7.45-5.71,18.06S77.35,266.31,81,269.91s6.89,8.66,16.33,10.29a266.51,266.51,0,0,0,36.22,3.22c9.69,0,11.63-.51,16.43-.51Z"
                fill="#212121" />
            <path
                d="M128.21,223.42c1.82,1.81-.4,1-7.5,1s-14.94-1-19.43-5.21-4-12.09-2.61-13.47,10.36-1.17,15.87,3.37S127.12,222.32,128.21,223.42Z"
                fill="#212121" />
            <path
                d="M50.85,115.29c-3.11-3.67-3.71-4.05-8.3-1.63s-13.88,6.6-17.24,6.6-19.14-10-19.14-11.18,22.34-7,22.34-7S9.8,101.43,9.8,99.8s8.82-15.67,10.61-15.67,33.72,6.28,33.72,6.28S16.12,73.52,14.59,72s-.79-4.77,0-5.56,4.95,0,4.95,0S0,50.36,0,48.83s22.76,9.74,22.76,9.74-11-13.77-11-16,1.48-5.25,3.68-5.25,12.35,3.06,21.53,8.26A156.09,156.09,0,0,1,53.27,56.33S34,40.46,34,38.83s5-5,6.84-5,21,13,21,13S39.23,26,39.23,24.24s6.28-7.66,8.52-7.66S91.22,51.07,91.22,53.11,78,62.84,67.82,70.53,54.49,98.76,54.15,107.19,54.76,119.92,50.85,115.29Z"
                fill="#212121" />
            <path
                d="M38.44,220.94c0,9.52,6.73,25.71,9.79,37.75S61.17,278,63.93,278c4,0,7.4-4.29,9.13-7.55s8.67-30.87,12-41.79,2.65-18.26.92-24.79-16.43-13-16.43-15.36,15.77,4.29,19.44,4.29,15-11.59,15.41-18.22,6.73-23.21,6.73-33-3.71-20.44-6.43-25.61-17.55-18.3-26.87-18.3-15.17,7.55-18.09,12.65S54.9,122.7,49.18,137s-3.33,15.92-3.33,27.28-6.53,31-4.83,31,20.41-10.95,21.77-10.95a2.67,2.67,0,0,1,2.38,2.85c0,1.5-3.88,5.38-12.93,14.7S38.44,211.41,38.44,220.94Zm40.49-67.27c-.56,1.74-4.08,5.16-6.18,5.16s-5.91-5.92-7.29-8.78-1.84-18.26-.56-19.54,3-2.91,5.15-2.91c2.91,0,7.35,13.93,8.66,15.87S79.49,151.94,78.93,153.67ZM68.44,165.29c-3.13,0-9-6.46-9-6.46a8.16,8.16,0,0,0-1.12,3.64,18.75,18.75,0,0,0-.07,4.26s-1.26-4-1.26-14.3,4.15-13.94,4.15-13.94.4,17.82,4.21,21.42S78.71,159,78.71,159,71.56,165.29,68.44,165.29Z"
                fill="#212121" />
            <path
                d="M70,152a4.13,4.13,0,1,0,0-8.26,4.06,4.06,0,0,0-2.2.65,18.8,18.8,0,0,1-.34-2.72c0-2,1.89-5.2,3.78-5.2,2.65,0,5.66,9.69,5.66,11.79s-2.76,5.66-5.1,5.66c-.64,0-1.25-.77-1.8-1.92Z"
                fill="#212121" />
        </g>
    </g>
    <g id="frame">
        <rect width="300" height="300" fill="none" />
    </g>
</svg>