<svg xmlns="http://www.w3.org/2000/svg" viewBox="0 0 30 30"><path d="M15,24.61c.31,0,1,.09,1,.41s-.44.71-.44.71v-.16l-.23.07a1,1,0,0,0-.25.23s0-.12-.12-.12Z" transform="translate(0)" fill="#212121"/><path d="M15.13,23.06c0,.13.1.2.1.29s0,.3,0,.3.34-.61.53-.61.13.18.33.18.18-.1.18-.16-.27-.46-.52-.46S15.13,22.9,15.13,23.06Z" transform="translate(0)" fill="#212121"/><path d="M17.06,20.17c0,.18,0,.19.18.19.48,0,1.14-.52,1.14-.92s-.12-.26-.41-.26C17.5,19.18,17.06,19.87,17.06,20.17Z" transform="translate(0)" fill="#212121"/><path d="M18.82,19.35c.14,0,.24.21.3.52a2.16,2.16,0,0,1,0,.58L19,20.31a1.84,1.84,0,0,1,0,.4A1.41,1.41,0,0,1,19,21L18.81,21a.7.7,0,0,0,0,.29,1.19,1.19,0,0,0,.14.3l-.17,0a1.6,1.6,0,0,1,.38.52,1,1,0,0,1,.15.5l-.23,0a2.37,2.37,0,0,0,.27.59,3.17,3.17,0,0,0,.39.47h-.23a.7.7,0,0,0-.08.34,2.23,2.23,0,0,0,0,.37l-.16,0a1.25,1.25,0,0,1-.11.57c-.12.17-.22.22-.22.35a1.76,1.76,0,0,0,.08.39l-.21,0s0,.08,0,.2,0,.29,0,.29l-.15-.08s0,.15,0,.23a1.1,1.1,0,0,0,0,.21l-.24-.05s0,.23,0,.54a2.71,2.71,0,0,0,0,.51l-.3-.25A1.37,1.37,0,0,1,18,28c-.23.25-.64.17-.78.3a2.07,2.07,0,0,0-.26.61l-.08-.26a.89.89,0,0,1-.49.46,2.41,2.41,0,0,0-.76.74,3.1,3.1,0,0,1,0-.37,2,2,0,0,1,.1-.3,1,1,0,0,0-.41.17A2.17,2.17,0,0,0,15,30V26.28a1.28,1.28,0,0,0,.79-.31.79.79,0,0,0,.12-.33s.25.11.35,0,0-.33,0-.33a.21.21,0,0,0,.23-.07c.08-.13-.09-.42-.09-.42a.42.42,0,0,0,.31,0,1.84,1.84,0,0,0,.74-.73c.1-.26.08-1,.25-1.38s.3-.39.3-.79-.49-.84-.59-1a.33.33,0,0,1,.07-.43c.09-.09.41.07.76-.36S18.61,19.35,18.82,19.35Z" transform="translate(0)" fill="#212121"/><path d="M25.07,8.68a8.7,8.7,0,0,0,1-2,6.13,6.13,0,0,0,.05-1.89c-.08-.45-.2-.19-.33.68A4.71,4.71,0,0,1,25,7.32C24.9,7.39,25,9,25.07,8.68Z" transform="translate(0)" fill="#212121"/><path d="M21.28,8.47c.24.22.35.29-.28-.81s-.71-1-1.58-1.13c-1.43-.17-1,.31.32.72A4.72,4.72,0,0,1,21.28,8.47Z" transform="translate(0)" fill="#212121"/><path d="M23.22,9.78a14.47,14.47,0,0,0-1.75-3.34,3.47,3.47,0,0,0-1.79-1.05c-.78-.2-.61.12.32.82a9.23,9.23,0,0,1,2.25,3.89c.22,1.19.12,2.48.44,1.31C22.94,10.48,23.22,10,23.22,9.78Z" transform="translate(0)" fill="#212121"/><path d="M17.27,15.18c.27,0,.38.22.57.22a12,12,0,0,0,2.24-1.33,2.79,2.79,0,0,1,2.1-.59c1.07,0,1.54.11,2-.84a12.45,12.45,0,0,0,.65-4.58A41,41,0,0,0,24.5,3.4a15,15,0,0,0-2-2.84c-.74-.8-1.37-1,0,1.24s1.09,1.47,1.21,4.86.06,2.47-.45,4.06-.88,2.07-1.69,2.33-3.24.56-3.82.89-.9.54-.9.72A.5.5,0,0,0,17.27,15.18Z" transform="translate(0)" fill="#212121"/><path d="M22.71,13.81a4,4,0,0,0-2.49.49,9.86,9.86,0,0,1-2.41,1.33c-.19,0-.22-.23-.58-.23s-.5-.35-.68-.35-.29.3-.47.3-.29-.58-.57-.58S15.2,15,15,15v7.72c.19,0,.44-.35.8-.35s.8.61.8.83a1,1,0,0,1-.87.66c-.42,0-.52.35-.73.35v.32c.24,0,.31-.17.49-.17a.24.24,0,0,1,.23.16s0-.14.29-.14.59.36.59.36.12-.47.37-.47.36,0,.36-.67.49-1.27.49-1.48-.11-.38-.47-.78a1.78,1.78,0,0,1-.51-1.15,1.48,1.48,0,0,1,.46-.92.89.89,0,0,1,1-.21c.38.13.43.3.43-.09a2.68,2.68,0,0,1,1.24-1.82c.79-.47,1.8-.3,2-.45a6.9,6.9,0,0,0,1.08-2C23.16,13.89,23.36,13.81,22.71,13.81Zm-.85.53s.3.32,0,.32a.7.7,0,0,1-.51-.24s.46.64.2.64a1.1,1.1,0,0,1-.6-.34s0,.33-.17.44-.26.6-.26.6a1.48,1.48,0,0,0,.32,0,1.24,1.24,0,0,0,.44-.07,1.17,1.17,0,0,1-.51.27,2.27,2.27,0,0,1-.45,0,1.1,1.1,0,0,0,.22.21,1.42,1.42,0,0,0,.21.11.71.71,0,0,1-.5.29,1.5,1.5,0,0,1-.55,0l.12.14a.57.57,0,0,0,.13.07s0,.15-.3.15-.88-.37-.88-.53a3.16,3.16,0,0,1,0-.87c.13-.13.69.09,1.07-.19s.72-.81,1-.86.41-.42.76-.47.88,0,.88.06S21.86,14.34,21.86,14.34Z" transform="translate(0)" fill="#212121"/><path d="M15,24.61c-.31,0-1,.09-1,.41s.44.71.44.71v-.16l.23.07a1,1,0,0,1,.25.23s0-.12.12-.12Z" transform="translate(0)" fill="#212121"/><path d="M14.87,23.06c0,.13-.1.2-.1.29s0,.3,0,.3-.34-.61-.53-.61-.13.18-.33.18-.18-.1-.18-.16.27-.46.52-.46S14.87,22.9,14.87,23.06Z" transform="translate(0)" fill="#212121"/><path d="M12.94,20.17c0,.18,0,.19-.18.19-.48,0-1.14-.52-1.14-.92s.12-.26.41-.26C12.5,19.18,12.94,19.87,12.94,20.17Z" transform="translate(0)" fill="#212121"/><path d="M11.18,19.35c-.14,0-.24.21-.3.52a2.16,2.16,0,0,0,0,.58l.11-.14a1.84,1.84,0,0,0,0,.4A1.41,1.41,0,0,0,11,21l.18-.07a.7.7,0,0,1,0,.29,1.19,1.19,0,0,1-.14.3l.17,0a1.6,1.6,0,0,0-.38.52,1,1,0,0,0-.15.5l.23,0a2.37,2.37,0,0,1-.27.59,3.17,3.17,0,0,1-.39.47h.23a.7.7,0,0,1,.08.34,2.23,2.23,0,0,1,0,.37l.16,0a1.25,1.25,0,0,0,.11.57c.12.17.22.22.22.35a1.76,1.76,0,0,1-.08.39l.21,0s0,.08,0,.2,0,.29,0,.29l.15-.08s0,.15,0,.23a1.1,1.1,0,0,1,0,.21l.24-.05s0,.23,0,.54a2.71,2.71,0,0,1,0,.51l.3-.25A1.37,1.37,0,0,0,12,28c.23.25.64.17.78.3a2.07,2.07,0,0,1,.26.61l.08-.26a.89.89,0,0,0,.49.46,2.41,2.41,0,0,1,.76.74,3.1,3.1,0,0,0,0-.37,2,2,0,0,0-.1-.3,1,1,0,0,1,.41.17A2.17,2.17,0,0,1,15,30V26.28a1.28,1.28,0,0,1-.79-.31.79.79,0,0,1-.12-.33s-.25.11-.35,0-.05-.33-.05-.33a.21.21,0,0,1-.23-.07c-.08-.13.09-.42.09-.42a.42.42,0,0,1-.31,0,1.84,1.84,0,0,1-.74-.73c-.1-.26-.08-1-.25-1.38S12,22.39,12,22s.49-.84.59-1a.33.33,0,0,0-.07-.43c-.09-.09-.41.07-.76-.36S11.39,19.35,11.18,19.35Z" transform="translate(0)" fill="#212121"/><path d="M4.93,8.68a8.7,8.7,0,0,1-1-2A6.13,6.13,0,0,1,3.9,4.82c.08-.45.2-.19.33.68A4.71,4.71,0,0,0,5,7.32C5.1,7.39,5.05,9,4.93,8.68Z" transform="translate(0)" fill="#212121"/><path d="M8.72,8.47c-.24.22-.35.29.28-.81s.71-1,1.58-1.13c1.43-.17,1,.31-.32.72A4.72,4.72,0,0,0,8.72,8.47Z" transform="translate(0)" fill="#212121"/><path d="M6.78,9.78A14.47,14.47,0,0,1,8.53,6.44a3.47,3.47,0,0,1,1.79-1.05c.78-.2.61.12-.32.82A9.23,9.23,0,0,0,7.75,10.1c-.22,1.19-.12,2.48-.44,1.31C7.06,10.48,6.78,10,6.78,9.78Z" transform="translate(0)" fill="#212121"/><path d="M12.73,15.18c-.27,0-.38.22-.57.22a12,12,0,0,1-2.24-1.33,2.79,2.79,0,0,0-2.1-.59c-1.07,0-1.54.11-2-.84a12.45,12.45,0,0,1-.65-4.58A41,41,0,0,1,5.5,3.4a15,15,0,0,1,2-2.84c.74-.8,1.37-1,0,1.24S6.45,3.27,6.33,6.66s-.06,2.47.45,4.06.88,2.07,1.69,2.33,3.24.56,3.82.89.9.54.9.72A.5.5,0,0,1,12.73,15.18Z" transform="translate(0)" fill="#212121"/><path d="M7,14.64a6.9,6.9,0,0,0,1.08,2c.16.15,1.17,0,2,.45a2.68,2.68,0,0,1,1.24,1.82c0,.39,0,.22.43.09a.89.89,0,0,1,1,.21,1.48,1.48,0,0,1,.46.92,1.78,1.78,0,0,1-.51,1.15c-.36.4-.47.58-.47.78s.49.78.49,1.48.11.67.36.67.37.47.37.47.34-.36.59-.36.29.14.29.14a.24.24,0,0,1,.23-.16c.18,0,.25.17.49.17v-.32c-.21,0-.31-.35-.73-.35a1,1,0,0,1-.87-.66c0-.22.43-.83.8-.83s.61.35.8.35V15c-.2,0-.22-.18-.51-.18s-.39.58-.57.58-.28-.3-.47-.3-.32.35-.68.35-.39.23-.58.23A9.86,9.86,0,0,1,9.78,14.3a4,4,0,0,0-2.49-.49C6.64,13.81,6.84,13.89,7,14.64Zm.5-.49c0-.1.54-.1.88-.06s.47.42.76.47.62.59,1,.86.94.06,1.07.19a3.16,3.16,0,0,1,0,.87c0,.16-.61.53-.88.53s-.3-.15-.3-.15a.57.57,0,0,0,.13-.07l.12-.14a1.5,1.5,0,0,1-.55,0,.71.71,0,0,1-.5-.29,1.42,1.42,0,0,0,.21-.11A1.1,1.1,0,0,0,9.69,16a2.27,2.27,0,0,1-.45,0,1.17,1.17,0,0,1-.51-.27,1.24,1.24,0,0,0,.44.07,1.48,1.48,0,0,0,.32,0s0-.49-.26-.6-.18-.43-.17-.44a1.1,1.1,0,0,1-.6.34c-.26,0,.2-.64.2-.64a.7.7,0,0,1-.51.24c-.31,0,0-.32,0-.32S7.53,14.25,7.53,14.15Z" transform="translate(0)" fill="#212121"/><rect width="30" height="30" fill="none"/></svg>