<svg xmlns="http://www.w3.org/2000/svg" viewBox="0 0 30 30"><path d="M15,5a13.38,13.38,0,0,1,5,1.07c.73.35.89.64,0,1s-1.59,2-1.79,2.63A5.69,5.69,0,0,0,18,11.54,9.63,9.63,0,0,0,18.47,14a.79.79,0,0,1-.25,1c-.31.3-.48.35-.68.15s-.4-.16-.25.26,0,.61-.36,1-.5.49-1-.06-.7-.9-.91-.9Z" transform="translate(0)" fill="#212121"/><path d="M18.61,12.92c.1-.17.18-.68.33-.83s-.31,1.5-.08,1.28a7.34,7.34,0,0,0,.7-1.69c.22-.61.84-1.82,1.68-2.07s1.1-.14,1.1-.64-.43-.33-.43-.43.47.05.71.05S23,8.4,23,8.12A1.3,1.3,0,0,0,22,7c-.74-.25-.87.24-1.4.32s-.92.22-1.55,1.31A9.54,9.54,0,0,0,18.61,12.92Z" transform="translate(0)" fill="#212121"/><path d="M19.45,13.24c.13.12.2-1.15,1.1-2s1.17-.6,1.45-.79.22-.55-.2-.55-.94.12-1.55,1A4.53,4.53,0,0,0,19.45,13.24Z" transform="translate(0)" fill="#212121"/><path d="M20.09,12.9A1,1,0,0,0,21.25,14c.78,0,1.31-.75,1.31-1.9s-.59-1.29-.9-1.29A2.34,2.34,0,0,0,20.09,12.9Z" transform="translate(0)" fill="#212121"/><path d="M15,16.63c.81,0,1.23.53,2,1.46s1,1.06,1.41,1.06.68-.28.68-.12-.3.52-1,1.4A38.14,38.14,0,0,0,16,23.78c-.56,1-.74,1.22-1,1.22Z" transform="translate(0)" fill="#212121"/><path d="M17,23.18c0,.26,2.24,0,2.93-.61s1.57-.43,2.55-1.62a10,10,0,0,0,1.81-5,6.24,6.24,0,0,0-.6-3.46c-.11-.11,0,.42-.68,1.2A8.49,8.49,0,0,1,21.21,15a1.11,1.11,0,0,0-.48,1c0,.36.17.45.49.55s.54.21.54.32-.26.15-.53.06a1,1,0,0,0-1.12.36c-.4.47-.54.76-.54,1s.05.2.19.2.41-.36.41-.13-.49.46-.89,1.05-.79,1.45-1.26,2.17A6.67,6.67,0,0,0,17,23.18Z" transform="translate(0)" fill="#212121"/><path d="M15,5a13.38,13.38,0,0,0-5,1.07c-.73.35-.89.64,0,1s1.59,2,1.79,2.63A5.69,5.69,0,0,1,12,11.54,9.63,9.63,0,0,1,11.53,14a.79.79,0,0,0,.25,1c.31.3.48.35.68.15s.4-.16.25.26,0,.61.36,1,.5.49,1-.06.7-.9.91-.9Z" transform="translate(0)" fill="#212121"/><path d="M11.39,12.92c-.1-.17-.18-.68-.33-.83s.31,1.5.08,1.28a7.34,7.34,0,0,1-.7-1.69c-.22-.61-.84-1.82-1.68-2.07S7.66,9.47,7.66,9s.43-.33.43-.43-.47.05-.71.05S7,8.4,7,8.12A1.3,1.3,0,0,1,8,7c.74-.25.87.24,1.4.32s.92.22,1.55,1.31A9.54,9.54,0,0,1,11.39,12.92Z" transform="translate(0)" fill="#212121"/><path d="M10.55,13.24c-.13.12-.2-1.15-1.1-2S8.28,10.6,8,10.41s-.22-.55.2-.55.94.12,1.55,1A4.53,4.53,0,0,1,10.55,13.24Z" transform="translate(0)" fill="#212121"/><path d="M9.91,12.9A1,1,0,0,1,8.75,14c-.78,0-1.31-.75-1.31-1.9s.59-1.29.9-1.29A2.34,2.34,0,0,1,9.91,12.9Z" transform="translate(0)" fill="#212121"/><path d="M15,16.63c-.81,0-1.23.53-2,1.46s-1,1.06-1.41,1.06-.68-.28-.68-.12.3.52,1,1.4A38.14,38.14,0,0,1,14,23.78c.56,1,.74,1.22,1,1.22Z" transform="translate(0)" fill="#212121"/><path d="M13,23.18c0,.26-2.24,0-2.93-.61S8.46,22.14,7.48,21a10,10,0,0,1-1.81-5,6.24,6.24,0,0,1,.6-3.46c.11-.11,0,.42.68,1.2A8.49,8.49,0,0,0,8.79,15a1.11,1.11,0,0,1,.48,1c0,.36-.17.45-.49.55s-.54.21-.54.32.26.15.53.06a1,1,0,0,1,1.12.36c.4.47.54.76.54,1s0,.2-.19.2-.41-.36-.41-.13.49.46.89,1.05.79,1.45,1.26,2.17A6.67,6.67,0,0,1,13,23.18Z" transform="translate(0)" fill="#212121"/><rect width="30" height="30" fill="none"/></svg>