<!-- Copyright (c) 2022 - 2023 Jan Stehno -->
<svg xmlns="http://www.w3.org/2000/svg" viewBox="0 0 300 300"><title>rockptarmigan</title><g id="rockptarmigan"><g id="right"><path d="M150,50c21.13,0,42.87,7.13,50.18,10.65s8.93,6.43,0,10-15.85,19.41-17.87,26.28-2.12,11.09-2.12,18.48,2.73,19.64,4.49,24.65.53,7-2.51,10-4.79,3.52-6.82,1.49-4-1.58-2.46,2.6.39,6.12-3.61,9.64-5,4.84-10.17-.62-7-9-9.11-9Z" transform="translate(0)" fill="#212121"/><path d="M186.09,129.18c1-1.64,1.83-6.8,3.35-8.32s-3.11,15.08-.88,12.85,4.84-10.82,7-16.94S204,98.59,212.41,96.13s11-1.46,11-6.47-4.27-3.22-4.27-4.27,4.67.53,7.09.53,3.74-1.94,3.74-4.76-2.11-9-9.6-11.49-8.78,2.47-14.05,3.22S197.1,75.13,190.85,86,184.46,132,186.09,129.18Z" transform="translate(0)" fill="#212121"/><path d="M194.54,132.35c1.23,1.23,1.94-11.44,11-20.33s11.71-6,14.48-7.88,2.2-5.5-2-5.5-9.33,1.12-15.5,9.8S193.49,131.29,194.54,132.35Z" transform="translate(0)" fill="#212121"/><path d="M200.88,129c0,6.47,3.7,11.26,11.58,11.26s13.11-7.48,13.11-19-5.85-12.82-8.93-12.82S200.88,116.59,200.88,129Z" transform="translate(0)" fill="#212121"/><path d="M150,166.33c8.1,0,12.32,5.24,19.81,14.57s10.27,10.56,14.12,10.56,6.78-2.75,6.78-1.14-3,5.19-9.72,14-15.06,23.86-20.69,33.45S152.93,250,150,250Z" transform="translate(0)" fill="#212121"/><path d="M170.36,231.82c0,2.55,22.42-.13,29.38-6.12s15.66-4.31,25.44-16.19,16.28-31.78,18.13-49.91-4.84-33.41-6-34.56-.13,4.19-6.82,11.93S216,147.23,212.06,150.35a11.34,11.34,0,0,0-4.75,9.91c0,3.65,1.71,4.53,4.93,5.54s5.37,2.11,5.37,3.21-2.6,1.5-5.29.62-7.17-1.19-11.22,3.57-5.41,7.57-5.41,9.72.48,2,1.89,2,4.14-3.66,4.14-1.37-4.89,4.67-8.89,10.52-8,14.48-12.64,21.66S170.36,229.18,170.36,231.82Z" transform="translate(0)" fill="#212121"/></g><g id="left"><path d="M150,50c-21.13,0-42.87,7.13-50.18,10.65s-8.93,6.43,0,10,15.85,19.41,17.87,26.28,2.12,11.09,2.12,18.48-2.73,19.64-4.49,24.65-.53,7,2.51,10,4.79,3.52,6.82,1.49,4-1.58,2.46,2.6-.39,6.12,3.61,9.64,5,4.84,10.17-.62,7-9,9.11-9Z" transform="translate(0)" fill="#212121"/><path d="M113.91,129.18c-1-1.64-1.83-6.8-3.35-8.32s3.11,15.08.88,12.85-4.84-10.82-7-16.94S96,98.59,87.59,96.13s-11-1.46-11-6.47,4.27-3.22,4.27-4.27-4.67.53-7.09.53S70.07,84,70.07,81.16s2.11-9,9.6-11.49,8.78,2.47,14,3.22S102.9,75.13,109.15,86,115.54,132,113.91,129.18Z" transform="translate(0)" fill="#212121"/><path d="M105.46,132.35c-1.23,1.23-1.94-11.44-11-20.33S82.79,106,80,104.14s-2.2-5.5,2-5.5,9.33,1.12,15.5,9.8S106.51,131.29,105.46,132.35Z" transform="translate(0)" fill="#212121"/><path d="M99.12,129c0,6.47-3.7,11.26-11.58,11.26s-13.11-7.48-13.11-19,5.85-12.82,8.93-12.82S99.12,116.59,99.12,129Z" transform="translate(0)" fill="#212121"/><path d="M150,166.33c-8.1,0-12.32,5.24-19.81,14.57s-10.27,10.56-14.12,10.56-6.78-2.75-6.78-1.14,3,5.19,9.72,14,15.06,23.86,20.69,33.45S147.07,250,150,250Z" transform="translate(0)" fill="#212121"/><path d="M129.64,231.82c0,2.55-22.42-.13-29.38-6.12s-15.66-4.31-25.44-16.19S58.54,177.73,56.69,159.6s4.84-33.41,6-34.56.13,4.19,6.82,11.93S84,147.23,87.94,150.35a11.34,11.34,0,0,1,4.75,9.91c0,3.65-1.71,4.53-4.93,5.54s-5.37,2.11-5.37,3.21,2.6,1.5,5.29.62,7.17-1.19,11.22,3.57,5.41,7.57,5.41,9.72-.48,2-1.89,2-4.14-3.66-4.14-1.37,4.89,4.67,8.89,10.52,8,14.48,12.64,21.66S129.64,229.18,129.64,231.82Z" transform="translate(0)" fill="#212121"/></g></g><g id="frame"><rect width="300" height="300" fill="none"/></g></svg>