<!-- Copyright (c) 2022 Jan Stehno -->
<svg xmlns="http://www.w3.org/2000/svg" viewBox="0 0 300 300"><title>rockymountainelk</title><g id="elk"><g id="right"><path d="M150,246.15c3.1,0,10.38.84,10.38,4s-4.36,7.17-4.36,7.17v-1.63a18.45,18.45,0,0,0-2.33.7,10.11,10.11,0,0,0-2.51,2.29s-.33-1.18-1.18-1.18Z" transform="translate(0)" fill="#212121"/><path d="M151.31,230.57c0,1.29,1,2,1,3s-.22,2.93-.22,2.93,3.39-6.11,5.36-6.11,1.32,1.86,3.25,1.86,1.82-1,1.82-1.65-2.7-4.61-5.18-4.61S151.31,229,151.31,230.57Z" transform="translate(0)" fill="#212121"/><path d="M170.62,201.74c0,1.8-.08,1.88,1.77,1.88,4.84,0,11.44-5.26,11.44-9.26,0-2.53-1.22-2.53-4.08-2.53C175.05,191.83,170.62,198.69,170.62,201.74Z" transform="translate(0)" fill="#212121"/><path d="M188.22,193.52c1.33,0,2.42,2.09,3,5.14a20.88,20.88,0,0,1,.27,5.81l-1.14-1.34a16.51,16.51,0,0,1,.16,4,13.36,13.36,0,0,1-.62,3.16l-1.83-.73a8.93,8.93,0,0,0,.3,2.94,15,15,0,0,0,1.45,3l-1.77.2a16.61,16.61,0,0,1,3.86,5.14c1.67,3.35,1.47,5,1.47,5l-2.26-.51a23.68,23.68,0,0,0,2.71,5.91,31.39,31.39,0,0,0,3.89,4.71H195.4a7.37,7.37,0,0,0-.75,3.4,30.44,30.44,0,0,0,.22,3.71l-1.58-.41s.06,3.92-1.1,5.64-2.23,2.21-2.23,3.58a17.08,17.08,0,0,0,.8,3.82l-2.08-.37s-.11.84-.16,2a19.14,19.14,0,0,0,.22,3l-1.58-.82a17.24,17.24,0,0,0-.16,2.24,14.2,14.2,0,0,0,.43,2.15l-2.43-.49s-.06,2.31-.25,5.37a25.65,25.65,0,0,0,.17,5.17l-3-2.51s.45,5.89-1.84,8.39-6.37,1.69-7.73,3-2.59,6.13-2.59,6.13l-.9-2.61s-.75,2.58-4.83,4.59-7.6,7.39-7.6,7.39a26.74,26.74,0,0,1,.13-3.68,18,18,0,0,1,1-3,9.92,9.92,0,0,0-4.06,1.7C151.77,294.55,150,300,150,300V262.82c3,0,6.84-1.86,7.87-3.16a7.2,7.2,0,0,0,1.23-3.3s2.53,1.17,3.49.3.49-3.21.49-3.21a2.09,2.09,0,0,0,2.34-.79c.82-1.28-.9-4.2-.9-4.2a4.32,4.32,0,0,0,3.08.46c1.6-.43,6.4-4.68,7.38-7.32s.84-9.7,2.56-13.84,3-3.82,3-7.87-5-8.42-5.94-10.38a3.37,3.37,0,0,1,.68-4.28c1-1,4.17.68,7.57-3.65S186.09,193.52,188.22,193.52Z" transform="translate(0)" fill="#212121"/><path d="M250.73,86.76c1-2.29,8.56-12.9,9.73-19.67s1.44-14.29.58-18.84S259,46.31,257.71,55s-7.53,17.62-8.12,18.26S249.48,89.61,250.73,86.76Z" transform="translate(0)" fill="#212121"/><path d="M212.76,84.67c2.45,2.21,3.58,2.94-2.81-8s-7.08-10.27-15.72-11.3c-14.29-1.7-9.77,3.07,3.14,7.17C204,74.59,209.58,81.79,212.76,84.67Z" transform="translate(0)" fill="#212121"/><path d="M232.17,97.79c0-1.93-12-28-17.47-33.4s-10-8.57-17.86-10.51-6.16,1.24,3.21,8.23S221,92.87,222.45,101c2.21,12,1.2,24.87,4.41,13.17C229.4,104.83,232.17,100.25,232.17,97.79Z" transform="translate(0)" fill="#212121"/><path d="M172.68,151.76c2.75,0,3.83,2.21,5.68,2.21s18.23-9.71,22.43-13.32,10.21-6.24,21-5.84,15.42,1.08,20.16-8.45,6.92-31.18,6.46-45.79-1.89-42.1-3.33-46.52-13-20.38-20.29-28.41S211.13-4.64,224.57,18s10.91,14.69,12.13,48.57.58,24.69-4.53,40.65-8.79,20.69-16.84,23.26-32.46,5.62-38.28,8.93-8.93,5.41-8.93,7.24S169.39,151.76,172.68,151.76Z" transform="translate(0)" fill="#212121"/><path d="M227.06,138.11c-6.49,0-17.2-1-24.84,4.86s-22.17,13.32-24.09,13.32-2.2-2.31-5.8-2.31-5-3.48-6.85-3.48-2.87,3-4.67,3-2.93-5.71-5.75-5.71-3.1,1.72-5.06,1.72v77.25c1.86,0,4.39-3.5,8-3.5s7.95,6.07,7.95,8.3-4.54,6.53-8.71,6.53-5.15,3.55-7.27,3.55v3.16c2.37,0,3.11-1.62,4.88-1.62a2.45,2.45,0,0,1,2.31,1.58s.45-1.46,2.94-1.46,5.89,3.68,5.89,3.68,1.22-4.69,3.7-4.69,3.54.19,3.54-6.78,4.91-12.67,4.91-14.74-1.07-3.81-4.69-7.82-5.07-8.17-5.07-11.47,2.29-6.86,4.64-9.23a9,9,0,0,1,9.56-2.13c3.76,1.27,4.25,3,4.25-.85s4.49-13.64,12.39-18.27,18.09-2.94,19.61-4.47,8.88-12.53,10.79-20.05S233.56,138.11,227.06,138.11Zm-8.5,5.27s3.08,3.25-.1,3.25a6.68,6.68,0,0,1-5-2.45s4.61,6.46,1.94,6.46-6.08-3.43-6-3.41.47,3.27-1.71,4.39-2.56,6-2.56,6a14.12,14.12,0,0,0,3.21.4,12,12,0,0,0,4.39-.73s-2.51,2.37-5.12,2.72a19.12,19.12,0,0,1-4.44.14,10.8,10.8,0,0,0,2.18,2,16.82,16.82,0,0,0,2,1.12s-1.12,2.12-5,2.89-5.42.3-5.42.3a11.27,11.27,0,0,0,1.18,1.46,4.38,4.38,0,0,0,1.27.68s-.3,1.45-3,1.45-8.73-3.65-8.73-5.23-.88-7.84,0-8.72c1.29-1.29,6.85.88,10.65-1.86s7.19-8.13,10-8.62,4.09-4.25,7.52-4.7,8.82-.41,8.82.57S218.56,143.38,218.56,143.38Z" transform="translate(0)" fill="#212121"/></g><g id="left"><path d="M150,246.15c-3.1,0-10.38.84-10.38,4s4.36,7.17,4.36,7.17v-1.63a18.45,18.45,0,0,1,2.33.7,10.11,10.11,0,0,1,2.51,2.29s.33-1.18,1.18-1.18Z" transform="translate(0)" fill="#212121"/><path d="M148.69,230.57c0,1.29-1,2-1,3s.22,2.93.22,2.93-3.39-6.11-5.36-6.11-1.32,1.86-3.25,1.86-1.82-1-1.82-1.65,2.7-4.61,5.18-4.61S148.69,229,148.69,230.57Z" transform="translate(0)" fill="#212121"/><path d="M129.38,201.74c0,1.8.08,1.88-1.77,1.88-4.84,0-11.44-5.26-11.44-9.26,0-2.53,1.22-2.53,4.08-2.53C125,191.83,129.38,198.69,129.38,201.74Z" transform="translate(0)" fill="#212121"/><path d="M111.78,193.52c-1.33,0-2.42,2.09-3,5.14a20.88,20.88,0,0,0-.27,5.81l1.14-1.34a16.51,16.51,0,0,0-.16,4,13.36,13.36,0,0,0,.62,3.16l1.83-.73a8.93,8.93,0,0,1-.3,2.94,15,15,0,0,1-1.45,3l1.77.2a16.61,16.61,0,0,0-3.86,5.14c-1.67,3.35-1.47,5-1.47,5l2.26-.51a23.68,23.68,0,0,1-2.71,5.91,31.39,31.39,0,0,1-3.89,4.71h2.33a7.37,7.37,0,0,1,.75,3.4,30.44,30.44,0,0,1-.22,3.71l1.58-.41s-.06,3.92,1.1,5.64,2.23,2.21,2.23,3.58a17.08,17.08,0,0,1-.8,3.82l2.08-.37s.11.84.16,2a19.14,19.14,0,0,1-.22,3l1.58-.82a17.24,17.24,0,0,1,.16,2.24,14.2,14.2,0,0,1-.43,2.15l2.43-.49s.06,2.31.25,5.37a25.65,25.65,0,0,1-.17,5.17l3-2.51s-.45,5.89,1.84,8.39,6.37,1.69,7.73,3,2.59,6.13,2.59,6.13l.9-2.61s.75,2.58,4.83,4.59,7.6,7.39,7.6,7.39a26.74,26.74,0,0,0-.13-3.68,18,18,0,0,0-1-3,9.92,9.92,0,0,1,4.06,1.7C148.23,294.55,150,300,150,300V262.82c-3,0-6.84-1.86-7.87-3.16a7.2,7.2,0,0,1-1.23-3.3s-2.53,1.17-3.49.3-.49-3.21-.49-3.21a2.09,2.09,0,0,1-2.34-.79c-.82-1.28.9-4.2.9-4.2a4.32,4.32,0,0,1-3.08.46c-1.6-.43-6.4-4.68-7.38-7.32s-.84-9.7-2.56-13.84-3-3.82-3-7.87,5-8.42,5.94-10.38a3.37,3.37,0,0,0-.68-4.28c-1-1-4.17.68-7.57-3.65S113.91,193.52,111.78,193.52Z" transform="translate(0)" fill="#212121"/><path d="M49.27,86.76c-1-2.29-8.56-12.9-9.73-19.67S38.1,52.8,39,48.25,41,46.31,42.29,55s7.53,17.62,8.12,18.26S50.52,89.61,49.27,86.76Z" transform="translate(0)" fill="#212121"/><path d="M87.24,84.67c-2.45,2.21-3.58,2.94,2.81-8s7.08-10.27,15.72-11.3c14.29-1.7,9.77,3.07-3.14,7.17C96,74.59,90.42,81.79,87.24,84.67Z" transform="translate(0)" fill="#212121"/><path d="M67.83,97.79c0-1.93,12-28,17.47-33.4s10-8.57,17.86-10.51,6.16,1.24-3.21,8.23S79,92.87,77.55,101c-2.21,12-1.2,24.87-4.41,13.17C70.6,104.83,67.83,100.25,67.83,97.79Z" transform="translate(0)" fill="#212121"/><path d="M127.32,151.76c-2.75,0-3.83,2.21-5.68,2.21s-18.23-9.71-22.43-13.32-10.21-6.24-21-5.84-15.42,1.08-20.16-8.45-6.92-31.18-6.46-45.79S53.52,38.47,55,34.05,68,13.67,75.25,5.64,88.87-4.64,75.43,18,64.52,32.69,63.3,66.57s-.58,24.69,4.53,40.65,8.79,20.69,16.84,23.26,32.46,5.62,38.28,8.93,8.93,5.41,8.93,7.24S130.61,151.76,127.32,151.76Z" transform="translate(0)" fill="#212121"/><path d="M70.35,146.44C72.26,154,79.61,165,81.14,166.49s11.71-.16,19.61,4.47,12.39,14.38,12.39,18.27.49,2.12,4.25.85a9,9,0,0,1,9.56,2.13c2.35,2.37,4.64,5.94,4.64,9.23s-1.45,7.47-5.07,11.47-4.69,5.75-4.69,7.82,4.91,7.76,4.91,14.74,1.06,6.78,3.54,6.78,3.7,4.69,3.7,4.69,3.39-3.68,5.89-3.68,2.94,1.46,2.94,1.46a2.45,2.45,0,0,1,2.31-1.58c1.77,0,2.51,1.62,4.88,1.62V241.6c-2.12,0-3.11-3.55-7.27-3.55s-8.71-4.31-8.71-6.53,4.31-8.3,7.95-8.3,6.17,3.5,8,3.5V149.47c-2,0-2.25-1.72-5.06-1.72s-3.95,5.71-5.75,5.71-2.8-3-4.67-3-3.25,3.48-6.85,3.48-3.88,2.31-5.8,2.31S105.42,148.86,97.78,143s-18.35-4.86-24.84-4.86S68.44,138.93,70.35,146.44Zm5-4.94c0-1,5.39-1,8.82-.57s4.66,4.21,7.52,4.7,6.25,5.88,10,8.62,9.36.57,10.65,1.86c.88.88,0,7.14,0,8.72s-6,5.23-8.73,5.23-3-1.45-3-1.45a4.38,4.38,0,0,0,1.27-.68,11.27,11.27,0,0,0,1.18-1.46s-1.52.46-5.42-.3-5-2.89-5-2.89a16.82,16.82,0,0,0,2-1.12,10.8,10.8,0,0,0,2.18-2,19.12,19.12,0,0,1-4.44-.14c-2.61-.35-5.12-2.72-5.12-2.72a12,12,0,0,0,4.39.73,14.12,14.12,0,0,0,3.21-.4s-.38-4.85-2.56-6-1.8-4.36-1.71-4.39-3.33,3.41-6,3.41,1.94-6.46,1.94-6.46a6.68,6.68,0,0,1-5,2.45c-3.18,0-.1-3.25-.1-3.25S75.31,142.48,75.31,141.5Z" transform="translate(0)" fill="#212121"/></g></g><g id="frame"><rect width="300" height="300" fill="none"/></g></svg>