<!-- Copyright (c) 2022 - 2023 Jan Stehno -->
<svg xmlns="http://www.w3.org/2000/svg" viewBox="0 0 300 300"><title>roedeer</title><g id="roedeer"><g id="right"><path d="M150,231.64c3.6,0,12,1,12,4.67s-5.05,8.3-5.05,8.3v-1.88a20.2,20.2,0,0,0-2.7.81,11.39,11.39,0,0,0-2.91,2.66s-.39-1.37-1.37-1.37Z" transform="translate(0 0)" fill="#212121"/><path d="M153.48,220.25c0,1.37,1.05,2.16,1.05,3.18s-.23,3.14-.23,3.14S157.93,220,160,220s1.41,2,3.48,2,2-1.1,2-1.76-2.89-4.95-5.55-4.95S153.48,218.6,153.48,220.25Z" transform="translate(0 0)" fill="#212121"/><path d="M173.56,187.88c0,1.91-.08,2,1.88,2,5.12,0,12.12-5.58,12.12-9.82,0-2.68-1.3-2.68-4.33-2.68C178.25,177.38,173.56,184.65,173.56,187.88Z" transform="translate(0 0)" fill="#212121"/><path d="M231,118.12c-11.15,0-15.19.43-21.59,4.83S187.76,137.52,183,137.52s-4.26-2.09-8.07-2.09-7.87-4.15-7.87-4.15-3.61,2.88-4.94,2.88-1.5-1.59-3.43-3.36a24.5,24.5,0,0,0-4.73-3.18s-2.65,2.63-4,2.63v74c2.92,0,3.64-2,5.88-2s1.14,1.1,3.6,1.1,6.13,0,6.13,1.9,1.57,1.54,3.6,3.54.91,4.19,2.49,5.75a2.73,2.73,0,0,1,1,3l-2.19-.66a11,11,0,0,1,1.43,4c0,1.55,0,2.82,0,2.82A17,17,0,0,0,170,222.2c-.89-.59-2.67-1.83-2.67-1.83s3.77,5.26,3.77,6.93-.93,2.46-2.73,4.34-2.57,6.18-2.57,6.18,4.48-5.75,7.32-5.75,3.06.86,3.06-7.67,4.76-12.89,4.76-15.09-.16-3.54-4.26-7.62-5.63-8.59-5.63-14.22,5.57-12.83,11.69-12.83,8,2.41,8,2.41.63-12.93,10.91-21,23.12-4.4,25.2-6.44,9.46-12.83,12.52-23.08S242.17,118.12,231,118.12Zm-.94,4.35a11,11,0,0,0-3.48,1s1.6.89,1.6,2.22-1.64,2.61-1.64,2.61a11.43,11.43,0,0,0-2.18-2.21,15.61,15.61,0,0,0-4.1-1.29,11.79,11.79,0,0,1,2.87,3.82,13.05,13.05,0,0,1,.49,5,12.07,12.07,0,0,0-3.6-3.3,33.54,33.54,0,0,0-5.13-1.94s1.56,1.25,1.56,2-.49,1.65-2.91,2.41-3,4.35-1.4,6,7.26,2.29,7.26,2.29-8.67-.26-9.51.57-.76,2,.25,3,4.1,0,4.1,0-3.78,4.3-6.85,4.3-4.18,1.53-4.18,1.53l1.84,1.86a9.33,9.33,0,0,1-3.48,1c-1.56,0-4.35-2.94-7.59-2.94s-4.12-12.92-2.09-12.92c12.14,0,12-2.13,16.2-7.08s5.82-1.7,9-4.92,3-4.55,12.09-4.55S232.33,122.14,230.07,122.47Z" transform="translate(0 0)" fill="#212121"/><path d="M175,195.71c0-2.34,5.23-5.21,8.29-6.22s5.31-4.63,5.31-4.63.2,3.12.2,5.43-2.46,17.44-2.46,22.79S198,230.52,198,230.52l-3.36-.33a22.82,22.82,0,0,1,4.94,9.08c1.5,5.52.39,7.87,3.25,10.49a9.75,9.75,0,0,1,2.81,6.64l-4-2.53s2.58,4.61,2.58,9.12a19.17,19.17,0,0,1-1.13,7.09s-.38-1.08-2.68-1.08-4.08,6.93-4.08,6.93a8.25,8.25,0,0,0-4.67-1.29c-2.95,0-4.13,7.94-9.6,11.59s-20.27,7.95-20.27,7.95a3.34,3.34,0,0,0-.7-2.43,13.3,13.3,0,0,1-1.45,4.14A9.4,9.4,0,0,1,156.8,299s-.4-1.27-1.05-1.28a5.85,5.85,0,0,1-.48,2.33s-.93-.16-2.45-1.85-2-2.7-2.7-2.7L150,274.76c1.29,0,2.41-3.58,2.41-3.58a3.13,3.13,0,0,0,2.82,1.2,3.88,3.88,0,0,0,3.18-2s-.65,2.58.8,2.58,7.12-9.42,7.12-9.42,0,2.57,1.25,2.57,3.26-5.63,3.26-5.63,0,2.86,1.36,2.86,4.19-6.87,4.19-6.87-.13,2.14,1.09,2.14,5.18-10.84,5.18-10.84a4,4,0,0,0,3.17,1.74c2.06,0-.75-9.26-.75-9.26s2.14,1.86,2.14,0S182,232.13,182,224.76s1.41-7.73,1.41-12.76S175,198.82,175,195.71Z" transform="translate(0 0)" fill="#212121"/><path d="M168.84,127.39c0,3.06,6.2,6.38,12,6.38s10.92-1.28,12.84-3.19-1.81-4.64,9.64-29.12,11.44-22.88,8.06-39.1S206,35.29,198.56,19.87,183-11.48,188.21,11.61s10.45,41,9.06,55.27-18.21,40.75-20.1,47.42S168.84,124.06,168.84,127.39Z" transform="translate(0 0)" fill="#212121"/><path d="M181.94,99.25c1.27,0,4.18-8.21,7.69-15.9S195.82,71,195.9,63.2s-4.41-16.56-6.42-19.47-8-8.66-15.15-13.06-9.78-6.5.75,7.76,9.62,22,7.31,34.48S179.4,99.25,181.94,99.25Z" transform="translate(0 0)" fill="#212121"/></g><g id="left"><path d="M150,231.64c-3.6,0-12,1-12,4.67s5.05,8.3,5.05,8.3v-1.88a20.2,20.2,0,0,1,2.7.81,11.39,11.39,0,0,1,2.91,2.66s.39-1.37,1.37-1.37Z" transform="translate(0 0)" fill="#212121"/><path d="M146.52,220.25c0,1.37-1.05,2.16-1.05,3.18s.23,3.14.23,3.14S142.07,220,140,220s-1.41,2-3.48,2-2-1.1-2-1.76,2.89-4.95,5.55-4.95S146.52,218.6,146.52,220.25Z" transform="translate(0 0)" fill="#212121"/><path d="M126.44,187.88c0,1.91.08,2-1.88,2-5.12,0-12.12-5.58-12.12-9.82,0-2.68,1.3-2.68,4.33-2.68C121.75,177.38,126.44,184.65,126.44,187.88Z" transform="translate(0 0)" fill="#212121"/><path d="M60.62,126.49c3.06,10.25,10.44,21,12.52,23.08s14.92-1.66,25.2,6.44,10.91,21,10.91,21,1.88-2.41,8-2.41S129,181.83,129,187.47s-1.53,10.14-5.63,14.22-4.26,5.42-4.26,7.62,4.76,6.55,4.76,15.09.21,7.67,3.06,7.67,7.32,5.75,7.32,5.75-.76-4.3-2.57-6.18-2.73-2.68-2.73-4.34,3.77-6.93,3.77-6.93-1.78,1.24-2.67,1.83a17,17,0,0,0-1.87,1.49s0-1.27,0-2.82a11,11,0,0,1,1.43-4l-2.19.66a2.73,2.73,0,0,1,1-3c1.58-1.56.45-3.75,2.49-5.75s3.6-1.66,3.6-3.54,3.67-1.9,6.13-1.9,1.36-1.1,3.6-1.1,3,2,5.88,2v-74c-1.31,0-4-2.63-4-2.63a24.5,24.5,0,0,0-4.73,3.18c-1.93,1.77-2.09,3.36-3.43,3.36s-4.94-2.88-4.94-2.88-4.05,4.15-7.87,4.15-3.32,2.09-8.07,2.09S97,127.35,90.58,123,80.14,118.12,69,118.12,57.56,116.24,60.62,126.49Zm10.17-5.64c9.1,0,8.9,1.33,12.09,4.55s4.88,0,9,4.92,4.06,7.08,16.2,7.08c2,0,1.15,12.92-2.09,12.92s-6,2.94-7.59,2.94a9.33,9.33,0,0,1-3.48-1l1.84-1.86s-1.1-1.53-4.18-1.53-6.85-4.3-6.85-4.3,3.1,1,4.1,0,1.09-2.16.25-3-9.51-.57-9.51-.57,5.66-.68,7.26-2.29,1-5.19-1.4-6-2.91-1.65-2.91-2.41,1.56-2,1.56-2A33.54,33.54,0,0,0,80,130.28a12.07,12.07,0,0,0-3.6,3.3,13.05,13.05,0,0,1,.49-5,11.79,11.79,0,0,1,2.87-3.82,15.61,15.61,0,0,0-4.1,1.29,11.43,11.43,0,0,0-2.18,2.21s-1.64-1.29-1.64-2.61,1.6-2.22,1.6-2.22a11,11,0,0,0-3.48-1C67.67,122.14,61.69,120.85,70.79,120.85Z" transform="translate(0 0)" fill="#212121"/><path d="M125,195.71c0-2.34-5.23-5.21-8.29-6.22s-5.31-4.63-5.31-4.63-.2,3.12-.2,5.43,2.46,17.44,2.46,22.79S102,230.52,102,230.52l3.36-.33a22.82,22.82,0,0,0-4.94,9.08c-1.5,5.52-.39,7.87-3.25,10.49a9.75,9.75,0,0,0-2.81,6.64l4-2.53s-2.58,4.61-2.58,9.12a19.17,19.17,0,0,0,1.13,7.09s.38-1.08,2.68-1.08,4.08,6.93,4.08,6.93a8.25,8.25,0,0,1,4.67-1.29c3,0,4.13,7.94,9.6,11.59s20.27,7.95,20.27,7.95a3.34,3.34,0,0,1,.7-2.43,13.3,13.3,0,0,0,1.45,4.14A9.4,9.4,0,0,0,143.2,299s.4-1.27,1.05-1.28a5.85,5.85,0,0,0,.48,2.33s.93-.16,2.45-1.85,2-2.7,2.7-2.7l.12-20.69c-1.29,0-2.41-3.58-2.41-3.58a3.13,3.13,0,0,1-2.82,1.2,3.88,3.88,0,0,1-3.18-2s.65,2.58-.8,2.58-7.12-9.42-7.12-9.42,0,2.57-1.25,2.57-3.26-5.63-3.26-5.63,0,2.86-1.36,2.86-4.19-6.87-4.19-6.87.13,2.14-1.09,2.14-5.18-10.84-5.18-10.84a4,4,0,0,1-3.17,1.74c-2.06,0,.75-9.26.75-9.26s-2.14,1.86-2.14,0,5.24-8.15,5.24-15.52S116.61,217,116.61,212,125,198.82,125,195.71Z" transform="translate(0 0)" fill="#212121"/><path d="M131.16,127.39c0,3.06-6.2,6.38-12,6.38s-10.92-1.28-12.84-3.19,1.81-4.64-9.64-29.12S85.22,78.58,88.6,62.36,94,35.29,101.44,19.87,117-11.48,111.79,11.61s-10.45,41-9.06,55.27,18.21,40.75,20.1,47.42S131.16,124.06,131.16,127.39Z" transform="translate(0 0)" fill="#212121"/><path d="M118.06,99.25c-1.27,0-4.18-8.21-7.69-15.9S104.18,71,104.1,63.2s4.41-16.56,6.42-19.47,8-8.66,15.15-13.06,9.78-6.5-.75,7.76-9.62,22-7.31,34.48S120.6,99.25,118.06,99.25Z" transform="translate(0 0)" fill="#212121"/></g></g><g id="frame"><rect width="300" height="300" fill="none"/></g></svg>