<svg xmlns="http://www.w3.org/2000/svg" viewBox="0 0 30 30"><path d="M15,23.16c.36,0,1.2.1,1.2.47s-.5.83-.5.83v-.19l-.27.08a1.11,1.11,0,0,0-.29.27s0-.14-.14-.14Z" transform="translate(0)" fill="#212121"/><path d="M15.35,22c0,.14.1.22.1.32s0,.32,0,.32S15.79,22,16,22s.15.2.35.2.2-.11.2-.18-.29-.49-.56-.49S15.35,21.86,15.35,22Z" transform="translate(0)" fill="#212121"/><path d="M17.36,18.79c0,.19,0,.2.18.2.52,0,1.22-.56,1.22-1s-.13-.27-.44-.27C17.83,17.74,17.36,18.47,17.36,18.79Z" transform="translate(0)" fill="#212121"/><path d="M23.1,11.81a3.13,3.13,0,0,0-2.16.48,9.84,9.84,0,0,1-2.64,1.46c-.48,0-.43-.21-.81-.21a1.38,1.38,0,0,1-.78-.41s-.37.29-.5.29-.15-.16-.34-.34a2.29,2.29,0,0,0-.47-.32s-.27.27-.4.27v7.4c.29,0,.36-.2.59-.2s.11.11.36.11.61,0,.61.19.16.15.36.35.09.42.25.57a.28.28,0,0,1,.1.3l-.22-.07a1.14,1.14,0,0,1,.14.41v.28a2,2,0,0,0-.19-.15L16.73,22a2.49,2.49,0,0,1,.38.69c0,.17-.09.25-.27.43a1.53,1.53,0,0,0-.26.62s.45-.57.73-.57.31.08.31-.77a4.13,4.13,0,0,1,.47-1.51c0-.22,0-.35-.42-.76a1.87,1.87,0,0,1-.57-1.42,1.37,1.37,0,0,1,1.17-1.29c.62,0,.81.25.81.25a3.1,3.1,0,0,1,1.09-2.11c1-.81,2.31-.44,2.52-.64a7.64,7.64,0,0,0,1.25-2.31C24.24,11.62,24.22,11.81,23.1,11.81Zm-.09.44a1,1,0,0,0-.35.1s.16.09.16.22-.17.26-.17.26a1.18,1.18,0,0,0-.21-.22,1.76,1.76,0,0,0-.41-.13,1.08,1.08,0,0,1,.28.38,1.29,1.29,0,0,1,.05.5A1.17,1.17,0,0,0,22,13a3.08,3.08,0,0,0-.51-.2s.16.13.16.21,0,.16-.3.24a.37.37,0,0,0-.13.59,1.78,1.78,0,0,0,.72.23,4,4,0,0,0-1,.06.2.2,0,0,0,0,.3c.11.1.41,0,.41,0s-.37.43-.68.43a.51.51,0,0,0-.42.15l.19.19a1,1,0,0,1-.35.1c-.16,0-.44-.3-.76-.3s-.41-1.29-.21-1.29c1.21,0,1.21-.21,1.62-.71s.58-.17.9-.49.3-.45,1.21-.45S23.23,12.21,23,12.25Z" transform="translate(0)" fill="#212121"/><path d="M17.5,19.57c0-.23.52-.52.83-.62a1.18,1.18,0,0,0,.53-.46s0,.31,0,.54-.24,1.74-.24,2.28,1.16,1.74,1.16,1.74l-.33,0a2.26,2.26,0,0,1,.49.91c.15.55,0,.78.33,1.05a1,1,0,0,1,.28.66l-.4-.25a2.22,2.22,0,0,1,.25.91,2,2,0,0,1-.11.71s0-.11-.27-.11-.41.69-.41.69a.8.8,0,0,0-.46-.13c-.3,0-.42.8-1,1.16a10.61,10.61,0,0,1-2,.8.38.38,0,0,0-.07-.25,1.37,1.37,0,0,1-.14.42,1,1,0,0,1-.29.31s0-.13-.1-.13a.6.6,0,0,1-.05.23.54.54,0,0,1-.25-.19c-.15-.16-.2-.26-.27-.26V27.48c.13,0,.24-.36.24-.36a.31.31,0,0,0,.28.12.38.38,0,0,0,.32-.2s-.06.26.08.26.71-.94.71-.94,0,.25.13.25.32-.56.32-.56,0,.29.14.29.42-.69.42-.69,0,.21.11.21.52-1.08.52-1.08a.4.4,0,0,0,.31.17c.21,0-.07-.92-.07-.92s.21.18.21,0-.52-.82-.52-1.55.14-.78.14-1.28S17.5,19.88,17.5,19.57Z" transform="translate(0)" fill="#212121"/><path d="M16.88,12.74c0,.3.62.64,1.21.64a2.06,2.06,0,0,0,1.28-.32,10.31,10.31,0,0,1,1-2.91c1.15-2.45,1.15-2.29.81-3.91A16.13,16.13,0,0,0,19.86,2c-.75-1.55-1.56-3.14-1-.83s1.05,4.1.91,5.53-1.82,4.07-2,4.74S16.88,12.41,16.88,12.74Z" transform="translate(0)" fill="#212121"/><path d="M18.19,9.93A7,7,0,0,0,19,8.34a4.61,4.61,0,0,0,.63-2A4,4,0,0,0,19,4.37a5.8,5.8,0,0,0-1.52-1.3c-.71-.44-1-.65.08.77a3.61,3.61,0,0,1,.73,3.45C18,8.54,17.94,9.93,18.19,9.93Z" transform="translate(0)" fill="#212121"/><path d="M15,23.16c-.36,0-1.2.1-1.2.47s.5.83.5.83v-.19l.27.08a1.11,1.11,0,0,1,.29.27s0-.14.14-.14Z" transform="translate(0)" fill="#212121"/><path d="M14.65,22c0,.14-.1.22-.1.32s0,.32,0,.32S14.21,22,14,22s-.15.2-.35.2-.2-.11-.2-.18.29-.49.56-.49S14.65,21.86,14.65,22Z" transform="translate(0)" fill="#212121"/><path d="M12.64,18.79c0,.19,0,.2-.18.2-.52,0-1.22-.56-1.22-1s.13-.27.44-.27C12.17,17.74,12.64,18.47,12.64,18.79Z" transform="translate(0)" fill="#212121"/><path d="M6.06,12.65A7.64,7.64,0,0,0,7.31,15c.21.2,1.5-.17,2.52.64a3.1,3.1,0,0,1,1.09,2.11s.19-.25.81-.25a1.37,1.37,0,0,1,1.17,1.29,1.87,1.87,0,0,1-.57,1.42c-.41.41-.42.54-.42.76a4.13,4.13,0,0,1,.47,1.51c0,.85,0,.77.31.77s.73.57.73.57a1.53,1.53,0,0,0-.26-.62c-.18-.18-.27-.26-.27-.43a2.49,2.49,0,0,1,.38-.69l-.27.18a2,2,0,0,0-.19.15v-.28a1.14,1.14,0,0,1,.14-.41l-.22.07a.28.28,0,0,1,.1-.3c.16-.15,0-.37.25-.57s.36-.17.36-.35.37-.19.61-.19.14-.11.36-.11.3.2.59.2V13c-.13,0-.4-.27-.4-.27a2.29,2.29,0,0,0-.47.32c-.19.18-.21.34-.34.34s-.5-.29-.5-.29a1.38,1.38,0,0,1-.78.41c-.38,0-.33.21-.81.21a9.84,9.84,0,0,1-2.64-1.46,3.13,3.13,0,0,0-2.16-.48C5.78,11.81,5.76,11.62,6.06,12.65Zm1-.56c.91,0,.89.13,1.21.45s.49,0,.9.49.41.71,1.62.71c.2,0,.11,1.29-.21,1.29s-.6.3-.76.3a1,1,0,0,1-.35-.1L9.68,15a.51.51,0,0,0-.42-.15c-.31,0-.68-.43-.68-.43s.3.1.41,0a.2.2,0,0,0,0-.3,4,4,0,0,0-.95-.06,1.78,1.78,0,0,0,.72-.23.37.37,0,0,0-.13-.59c-.25-.08-.3-.17-.3-.24s.16-.21.16-.21A3.08,3.08,0,0,0,8,13a1.17,1.17,0,0,0-.36.33,1.29,1.29,0,0,1,.05-.5A1.08,1.08,0,0,1,8,12.48a1.76,1.76,0,0,0-.41.13,1.18,1.18,0,0,0-.21.22s-.17-.13-.17-.26.16-.22.16-.22a1,1,0,0,0-.35-.1C6.77,12.21,6.17,12.09,7.08,12.09Z" transform="translate(0)" fill="#212121"/><path d="M12.5,19.57c0-.23-.52-.52-.83-.62a1.18,1.18,0,0,1-.53-.46s0,.31,0,.54.24,1.74.24,2.28-1.16,1.74-1.16,1.74l.33,0a2.26,2.26,0,0,0-.49.91c-.15.55,0,.78-.33,1.05a1,1,0,0,0-.28.66l.4-.25a2.22,2.22,0,0,0-.25.91,2,2,0,0,0,.11.71s0-.11.27-.11.41.69.41.69a.8.8,0,0,1,.46-.13c.3,0,.42.8,1,1.16a10.61,10.61,0,0,0,2,.8.38.38,0,0,1,.07-.25,1.37,1.37,0,0,0,.14.42,1,1,0,0,0,.29.31s0-.13.1-.13a.6.6,0,0,0,.05.23.54.54,0,0,0,.25-.19c.15-.16.2-.26.27-.26V27.48c-.13,0-.24-.36-.24-.36a.31.31,0,0,1-.28.12.38.38,0,0,1-.32-.2s.06.26-.08.26-.71-.94-.71-.94,0,.25-.13.25-.32-.56-.32-.56,0,.29-.14.29-.42-.69-.42-.69,0,.21-.11.21-.52-1.08-.52-1.08a.4.4,0,0,1-.31.17c-.21,0,.07-.92.07-.92s-.21.18-.21,0,.52-.82.52-1.55-.14-.78-.14-1.28S12.5,19.88,12.5,19.57Z" transform="translate(0)" fill="#212121"/><path d="M13.12,12.74c0,.3-.62.64-1.21.64a2.06,2.06,0,0,1-1.28-.32,10.31,10.31,0,0,0-1-2.91C8.52,7.7,8.52,7.86,8.86,6.24A16.13,16.13,0,0,1,10.14,2c.75-1.55,1.56-3.14,1-.83s-1,4.1-.91,5.53,1.82,4.07,2,4.74S13.12,12.41,13.12,12.74Z" transform="translate(0)" fill="#212121"/><path d="M11.81,9.93A7,7,0,0,1,11,8.34a4.61,4.61,0,0,1-.63-2,4,4,0,0,1,.64-1.95,5.8,5.8,0,0,1,1.52-1.3c.71-.44,1-.65-.08.77a3.61,3.61,0,0,0-.73,3.45C12,8.54,12.06,9.93,11.81,9.93Z" transform="translate(0)" fill="#212121"/><rect width="30" height="30" fill="none"/></svg>