<svg xmlns="http://www.w3.org/2000/svg" viewBox="0 0 30 30"><path d="M19.56,20a6.6,6.6,0,0,0-.66.19.65.65,0,0,1,.29-.34,2.71,2.71,0,0,0,.75-.36c.19-.19.1-1.4.1-1.4a1.75,1.75,0,0,1-.46.66,5.14,5.14,0,0,0-1.26,1.53,4.2,4.2,0,0,0-.39,1.53,2.57,2.57,0,0,1-.39,1,7.39,7.39,0,0,0,.21-1.69,7.2,7.2,0,0,0-.19-1.63.71.71,0,0,1,.25.33,4,4,0,0,1,.09.55,8.57,8.57,0,0,1,.5-1.08c.27-.5.64-.63,1.07-.95A1.44,1.44,0,0,0,19.91,17c0-.5-.11-.5-1.82-1.21a6.32,6.32,0,0,0-3.09-.6V26.82c.2,0,.34-.16.5-.32s.34-.19.55-.41a2.55,2.55,0,0,0,.33-1,3,3,0,0,0,.11.57c.05.13.17.22.17.38s-.06.34-.51.79a1.53,1.53,0,0,1-1.15.57v1.3c.2.21,1,.07,1.69-.44a2.5,2.5,0,0,0,.82-2.14,5.94,5.94,0,0,1,.71-2.6A4,4,0,0,0,19.05,22c0-.31-.27-.25-.46-.45a1.19,1.19,0,0,1-.2-.69,1.3,1.3,0,0,0,.29.45.87.87,0,0,0,1.08,0C20,21,20,20,19.92,20S19.78,20,19.56,20Zm-.1,1.19c-.27.11-.66-.15-.66-.15a1.06,1.06,0,0,0,.63-.08,1,1,0,0,0,.34-.41S19.73,21.07,19.46,21.19Z" transform="translate(0)" fill="#212121"/><path d="M15,29c.36,0,.31,0,.61,0s1-.48,1.19-.48.11.53-.51.89S15.52,30,15,30Z" transform="translate(0)" fill="#212121"/><path d="M20.38,19.51c.14.14.7-.58,1.79-.58s1.54,0,1.54-.15-.26-.18-.26-.36,1.83-.23,1.58,0a4,4,0,0,1-1.14.92c-.45.2-1,1-1.77,1s-1.4-.19-1.46-.13.36.58,1.26.58a3,3,0,0,0,2-1.06c.37-.36.94-.41,1.42-.9s.63-.68.24-.86a11,11,0,0,0-2.91-.8,7.26,7.26,0,0,0-2,.17c-.12.12.05,1.16-.06,1.49S20.3,19.43,20.38,19.51Z" transform="translate(0)" fill="#212121"/><path d="M15.8,14.54a2.09,2.09,0,0,0,1.26.12c.1-.09,0-.58.17-1.2s.34-1,.25-1.09A4.86,4.86,0,0,0,16.1,13,4.65,4.65,0,0,0,15.8,14.54Z" transform="translate(0)" fill="#212121"/><path d="M16.29,12.41c.11.11.26-.19.65-.3s.54,0,.62-.1a3.68,3.68,0,0,0,.26-.73c.12-.37.2-.61.12-.7a4.34,4.34,0,0,0-1.35.58A3.3,3.3,0,0,0,16.29,12.41Z" transform="translate(0)" fill="#212121"/><path d="M16.84,10.43c.09.09.32-.18.66-.18s.43.18.52.1.17-.58.31-.85.19-.35.13-.41a3.77,3.77,0,0,0-1.29.44A1.29,1.29,0,0,0,16.84,10.43Z" transform="translate(0)" fill="#212121"/><path d="M17.34,8.94c.12.12.41-.12.79-.13s.53-.1.59-.17.58-.77.55-.89A3.71,3.71,0,0,0,17.81,8C17.67,8.1,17.26,8.86,17.34,8.94Z" transform="translate(0)" fill="#212121"/><path d="M18.24,7.44c.1.1.61-.07,1-.07a1.11,1.11,0,0,0,.8-.26c.2-.17.6-.54.6-.64a3,3,0,0,0-1.38.06C19.12,6.64,18.09,7.29,18.24,7.44Z" transform="translate(0)" fill="#212121"/><path d="M20,6.13c0,.13.46,0,.64,0s.47-.07.74-.23.6-.32.58-.44-1-.09-1.19,0S20,6,20,6.13Z" transform="translate(0)" fill="#212121"/><path d="M21.36,5.22c0,.1.45,0,.67,0A.68.68,0,0,0,22.59,5c.14-.16.3-.25.3-.37s-.76,0-.83.08S21.36,5.07,21.36,5.22Z" transform="translate(0)" fill="#212121"/><path d="M22.45,4.35c0,.13.77,0,.87-.13s.48-.51.48-.61S22.45,4.11,22.45,4.35Z" transform="translate(0)" fill="#212121"/><path d="M23.13,3.55c0,.12.81-.23.81-.39s0-.87,0-1A6.89,6.89,0,0,0,23.13,3.55Z" transform="translate(0)" fill="#212121"/><path d="M23,3.11a3.91,3.91,0,0,0,.79-1,.3.3,0,0,0-.24-.32c-.15,0-.63.86-.63,1S23,3.11,23,3.11Z" transform="translate(0)" fill="#212121"/><path d="M22.82,2.3a1.52,1.52,0,0,0,.55-.7.29.29,0,0,0-.32-.26C22.88,1.34,22.63,2.3,22.82,2.3Z" transform="translate(0)" fill="#212121"/><path d="M22.57,1.67c.1,0,.23-.41.23-.54A5.8,5.8,0,0,0,21.62,0C21.42-.12,22.37,1.67,22.57,1.67Z" transform="translate(0)" fill="#212121"/><path d="M17.31,14.76a4.57,4.57,0,0,0,1.27.75,4.46,4.46,0,0,0,1.2.48,4.57,4.57,0,0,0,0-1.77,20.79,20.79,0,0,0-2-1.69A7.61,7.61,0,0,0,17.31,14.76Z" transform="translate(0)" fill="#212121"/><path d="M17.76,12.13a9.79,9.79,0,0,0,2,1.81c.16,0,.18-1,.18-1.16a11.31,11.31,0,0,0-1.78-2A4.52,4.52,0,0,0,17.76,12.13Z" transform="translate(0)" fill="#212121"/><path d="M20.05,12.41c.12,0,.3-1,.3-1.13s-.54-.6-.92-1.18-.57-1-.69-1a3.9,3.9,0,0,0-.56,1.32A12,12,0,0,0,20.05,12.41Z" transform="translate(0)" fill="#212121"/><path d="M18.87,8.81A9.93,9.93,0,0,0,20.5,11c.2,0,.41-.78.41-.89a13.81,13.81,0,0,0-1.38-2.22A3,3,0,0,0,18.87,8.81Z" transform="translate(0)" fill="#212121"/><path d="M19.8,7.55a9.94,9.94,0,0,0,1.28,2.21c.19,0,.82-1.25.82-1.41s-.44-.55-.7-.92-.28-.81-.38-.81A3.93,3.93,0,0,0,19.8,7.55Z" transform="translate(0)" fill="#212121"/><path d="M21.05,6.41c0,.16.81,1.72,1,1.72s.85-.87.85-1a3.75,3.75,0,0,0-.43-.83c-.24-.45-.2-.65-.31-.65A3.7,3.7,0,0,0,21.05,6.41Z" transform="translate(0)" fill="#212121"/><path d="M22.39,5.49c0,.2.54,1.47.74,1.47s.69-.66.69-.82-.21-.4-.35-.74-.15-.75-.26-.75A2.74,2.74,0,0,0,22.39,5.49Z" transform="translate(0)" fill="#212121"/><path d="M23.46,4.42c0,.23.29,1.48.52,1.48s.49-.92.52-1.22a1.42,1.42,0,0,0-.49-1C23.9,3.71,23.46,4.3,23.46,4.42Z" transform="translate(0)" fill="#212121"/><path d="M24.31,2.57a2.05,2.05,0,0,1,.31,1c0,.41.05.73-.23.33A1,1,0,0,1,24.12,3C24.11,2.71,24.1,2.08,24.31,2.57Z" transform="translate(0)" fill="#212121"/><path d="M10.08,20c0,.06-.1,1.06.16,1.32a.87.87,0,0,0,1.08,0,1.3,1.3,0,0,0,.29-.45,1.19,1.19,0,0,1-.2.69c-.19.2-.46.14-.46.45a4,4,0,0,0,.83,1.54,5.94,5.94,0,0,1,.71,2.6,2.5,2.5,0,0,0,.82,2.14c.66.51,1.49.65,1.69.44v-1.3a1.53,1.53,0,0,1-1.15-.57c-.45-.45-.51-.62-.51-.79s.12-.25.17-.38a3,3,0,0,0,.11-.57,2.55,2.55,0,0,0,.33,1c.21.22.4.26.55.41s.3.32.5.32V15.17a6.32,6.32,0,0,0-3.09.6c-1.71.71-1.82.71-1.82,1.21a1.44,1.44,0,0,0,.44,1.31c.43.32.8.45,1.07.95a8.57,8.57,0,0,1,.5,1.08,4,4,0,0,1,.09-.55.71.71,0,0,1,.25-.33,7.2,7.2,0,0,0-.19,1.63,7.39,7.39,0,0,0,.21,1.69,2.57,2.57,0,0,1-.39-1,4.2,4.2,0,0,0-.39-1.53,5.14,5.14,0,0,0-1.26-1.53,1.75,1.75,0,0,1-.46-.66s-.09,1.21.1,1.4a2.71,2.71,0,0,0,.75.36.65.65,0,0,1,.29.34,6.6,6.6,0,0,0-.66-.19C10.22,20,10.11,19.91,10.08,20Zm.15.59a1,1,0,0,0,.34.41,1.06,1.06,0,0,0,.63.08s-.39.26-.66.15S10.23,20.55,10.23,20.55Z" transform="translate(0)" fill="#212121"/><path d="M15,29c-.36,0-.31,0-.61,0s-1-.48-1.19-.48-.11.53.51.89S14.48,30,15,30Z" transform="translate(0)" fill="#212121"/><path d="M9.62,19.51c-.14.14-.7-.58-1.79-.58s-1.54,0-1.54-.15.26-.18.26-.36-1.83-.23-1.58,0a4,4,0,0,0,1.14.92c.45.2,1,1,1.77,1s1.4-.19,1.46-.13-.36.58-1.26.58a3,3,0,0,1-2-1.06c-.37-.36-.94-.41-1.42-.9s-.63-.68-.24-.86a11,11,0,0,1,2.91-.8,7.26,7.26,0,0,1,2,.17c.12.12-.05,1.16.06,1.49S9.7,19.43,9.62,19.51Z" transform="translate(0)" fill="#212121"/><path d="M14.2,14.54a2.09,2.09,0,0,1-1.26.12c-.1-.09,0-.58-.17-1.2s-.34-1-.25-1.09A4.86,4.86,0,0,1,13.9,13,4.65,4.65,0,0,1,14.2,14.54Z" transform="translate(0)" fill="#212121"/><path d="M13.71,12.41c-.11.11-.26-.19-.65-.3s-.54,0-.62-.1a3.68,3.68,0,0,1-.26-.73c-.12-.37-.2-.61-.12-.7a4.34,4.34,0,0,1,1.35.58A3.3,3.3,0,0,1,13.71,12.41Z" transform="translate(0)" fill="#212121"/><path d="M13.16,10.43c-.09.09-.32-.18-.66-.18s-.43.18-.52.1-.17-.58-.31-.85-.19-.35-.13-.41a3.77,3.77,0,0,1,1.29.44A1.29,1.29,0,0,1,13.16,10.43Z" transform="translate(0)" fill="#212121"/><path d="M12.66,8.94c-.12.12-.41-.12-.79-.13s-.53-.1-.59-.17-.58-.77-.55-.89A3.71,3.71,0,0,1,12.19,8C12.33,8.1,12.74,8.86,12.66,8.94Z" transform="translate(0)" fill="#212121"/><path d="M11.76,7.44c-.1.1-.61-.07-1-.07a1.11,1.11,0,0,1-.8-.26c-.2-.17-.6-.54-.6-.64a3,3,0,0,1,1.38.06C10.88,6.64,11.91,7.29,11.76,7.44Z" transform="translate(0)" fill="#212121"/><path d="M10,6.13c0,.13-.46,0-.64,0S8.85,6.11,8.58,6,8,5.63,8,5.51s1-.09,1.19,0S10,6,10,6.13Z" transform="translate(0)" fill="#212121"/><path d="M8.64,5.22c0,.1-.45,0-.67,0A.68.68,0,0,1,7.41,5c-.14-.16-.3-.25-.3-.37s.76,0,.83.08S8.64,5.07,8.64,5.22Z" transform="translate(0)" fill="#212121"/><path d="M7.55,4.35c0,.13-.77,0-.87-.13s-.48-.51-.48-.61S7.55,4.11,7.55,4.35Z" transform="translate(0)" fill="#212121"/><path d="M6.87,3.55c0,.12-.81-.23-.81-.39s0-.87,0-1A6.89,6.89,0,0,1,6.87,3.55Z" transform="translate(0)" fill="#212121"/><path d="M7,3.11a3.91,3.91,0,0,1-.79-1,.3.3,0,0,1,.24-.32c.15,0,.63.86.63,1S7,3.11,7,3.11Z" transform="translate(0)" fill="#212121"/><path d="M7.18,2.3a1.52,1.52,0,0,1-.55-.7A.29.29,0,0,1,7,1.34C7.12,1.34,7.37,2.3,7.18,2.3Z" transform="translate(0)" fill="#212121"/><path d="M7.43,1.67c-.1,0-.23-.41-.23-.54A5.8,5.8,0,0,1,8.38,0C8.58-.12,7.63,1.67,7.43,1.67Z" transform="translate(0)" fill="#212121"/><path d="M12.69,14.76a4.57,4.57,0,0,1-1.27.75,4.46,4.46,0,0,1-1.2.48,4.57,4.57,0,0,1,0-1.77,20.79,20.79,0,0,1,2-1.69A7.61,7.61,0,0,1,12.69,14.76Z" transform="translate(0)" fill="#212121"/><path d="M12.24,12.13a9.79,9.79,0,0,1-2.05,1.81c-.16,0-.18-1-.18-1.16a11.31,11.31,0,0,1,1.78-2A4.52,4.52,0,0,1,12.24,12.13Z" transform="translate(0)" fill="#212121"/><path d="M10,12.41c-.12,0-.3-1-.3-1.13s.54-.6.92-1.18.57-1,.69-1a3.9,3.9,0,0,1,.56,1.32A12,12,0,0,1,10,12.41Z" transform="translate(0)" fill="#212121"/><path d="M11.13,8.81A9.93,9.93,0,0,1,9.5,11c-.2,0-.41-.78-.41-.89a13.81,13.81,0,0,1,1.38-2.22A3,3,0,0,1,11.13,8.81Z" transform="translate(0)" fill="#212121"/><path d="M10.2,7.55A9.94,9.94,0,0,1,8.92,9.76c-.19,0-.82-1.25-.82-1.41s.44-.55.7-.92.28-.81.38-.81A3.93,3.93,0,0,1,10.2,7.55Z" transform="translate(0)" fill="#212121"/><path d="M9,6.41c0,.16-.81,1.72-1,1.72s-.85-.87-.85-1a3.75,3.75,0,0,1,.43-.83c.24-.45.2-.65.31-.65A3.7,3.7,0,0,1,9,6.41Z" transform="translate(0)" fill="#212121"/><path d="M7.61,5.49c0,.2-.54,1.47-.74,1.47s-.69-.66-.69-.82.21-.4.35-.74.15-.75.26-.75A2.74,2.74,0,0,1,7.61,5.49Z" transform="translate(0)" fill="#212121"/><path d="M6.54,4.42c0,.23-.29,1.48-.52,1.48S5.53,5,5.5,4.68a1.42,1.42,0,0,1,.49-1C6.1,3.71,6.54,4.3,6.54,4.42Z" transform="translate(0)" fill="#212121"/><path d="M5.69,2.57a2.05,2.05,0,0,0-.31,1c0,.41,0,.73.23.33A1,1,0,0,0,5.88,3C5.89,2.71,5.9,2.08,5.69,2.57Z" transform="translate(0)" fill="#212121"/><rect width="30" height="30" fill="none"/></svg>