<!-- Copyright (c) 2023 Jan Stehno -->
<svg xmlns="http://www.w3.org/2000/svg" viewBox="0 0 300 300">
    <title>rondaibex</title>
    <g id="rondaibex">
        <g id="right">
            <path
                d="M195.58,200a65.33,65.33,0,0,0-6.63,2,7.11,7.11,0,0,1,2.93-3.46c2-1,5.65-1.71,7.53-3.6s1-13.93,1-13.93-1.72,4.37-4.59,6.61-9.12,8.16-12.63,15.28-2.8,9.56-3.88,15.28a25.45,25.45,0,0,1-3.89,9.5,73.85,73.85,0,0,0,2.1-16.88,69.55,69.55,0,0,0-2-16.31,6.44,6.44,0,0,1,2.49,3.34,36.8,36.8,0,0,1,1,5.46,95.83,95.83,0,0,1,5-10.85c2.74-4.94,6.44-6.29,10.71-9.44s4.4-8,4.4-13.09-1.09-5-18.23-12.13-24.62-6-30.86-6V268.23c2,0,3.44-1.67,5-3.21s3.41-2,5.55-4.11,3.25-10.08,3.25-10.08a41.87,41.87,0,0,0,1.08,5.72c.51,1.28,1.74,2.13,1.74,3.77s-.6,3.39-5.07,7.89-7.89,5.73-11.52,5.73v13c2,2,10.33.67,16.93-4.43s8.22-12.81,8.22-21.38,4.21-22.72,7.08-26,8.28-12.23,8.28-15.41-2.71-2.56-4.65-4.52-1.91-6.87-1.91-6.87a11.69,11.69,0,0,0,2.9,4.43c2.28,2.29,8.09,2.73,10.74.06s2-12.64,1.66-13.19S197.81,199.55,195.58,200Zm-1,11.91c-2.71,1.12-6.59-1.48-6.59-1.48s3.92.74,6.27-.77a10,10,0,0,0,3.45-4.17S197.3,210.75,194.59,211.87Z"
                transform="translate(0 0)" fill="#212121" />
            <path
                d="M150,290.12c3.57,0,3.12.44,6.12.44s10.14-4.81,11.92-4.81,1.09,5.33-5.1,8.92S155.23,300,150,300Z"
                transform="translate(0 0)" fill="#212121" />
            <path
                d="M203.81,195.12c1.37,1.38,6.94-5.78,17.91-5.78s15.43.07,15.43-1.54-2.62-1.8-2.62-3.59,18.24-2.31,15.81.38-7,7.19-11.47,9.18-9.88,10.4-17.66,10.4-14-1.86-14.6-1.29,3.57,5.85,12.56,5.85,16.13-6.94,19.83-10.6,9.43-4.17,14.21-9,6.31-6.87,2.36-8.6-20.85-8.09-29.07-8.09-19.16.55-20.34,1.73.58,11.62-.57,15S203,194.35,203.81,195.12Z"
                transform="translate(0 0)" fill="#212121" />
            <path
                d="M158,145.43c1.75,1.75,11.73,2.07,12.65,1.15s-.13-5.78,1.64-11.93,3.44-10.06,2.56-10.94-12.79,5.67-13.84,6.72S157.25,144.69,158,145.43Z"
                transform="translate(0 0)" fill="#212121" />
            <path
                d="M162.9,124.15c1.07,1.07,2.57-1.92,6.54-3s5.36-.2,6.15-1,1.29-3.59,2.57-7.3,2.05-6.16,1.19-7-12.34,4.7-13.41,5.77S162.09,123.34,162.9,124.15Z"
                transform="translate(0 0)" fill="#212121" />
            <path
                d="M168.42,104.28c.87.88,3.2-1.79,6.53-1.79s4.34,1.86,5.22,1,1.75-5.81,3.12-8.5,1.92-3.51,1.32-4.11-10.64,2.78-12.86,4.4S167.69,103.55,168.42,104.28Z"
                transform="translate(0 0)" fill="#212121" />
            <path
                d="M173.44,89.44c1.13,1.12,4-1.25,7.87-1.37s5.32-1,5.89-1.71,5.84-7.63,5.53-8.83-13.1,1.37-14.59,2.4S172.56,88.56,173.44,89.44Z"
                transform="translate(0 0)" fill="#212121" />
            <path
                d="M182.39,74.41c1,1,6.11-.68,10.08-.72s5.94-.81,8-2.57,6-5.38,6-6.45-12.24-.43-13.75.64S180.87,72.9,182.39,74.41Z"
                transform="translate(0 0)" fill="#212121" />
            <path
                d="M200.36,61.27c0,1.31,4.65-.23,6.44.48s4.7-.65,7.44-2.22,6-3.28,5.81-4.39-10.26-.94-12-.14S200.36,60.24,200.36,61.27Z"
                transform="translate(0 0)" fill="#212121" />
            <path
                d="M213.61,52.15c0,1.08,4.53.29,6.72.51s4.07-1,5.53-2.62,3.07-2.59,3.07-3.7-7.63.23-8.29.8S213.61,50.73,213.61,52.15Z"
                transform="translate(0 0)" fill="#212121" />
            <path
                d="M224.55,43.46c0,1.31,7.62-.27,8.66-1.31s4.78-5,4.78-6.06S224.55,41.13,224.55,43.46Z"
                transform="translate(0 0)" fill="#212121" />
            <path
                d="M231.27,35.47c0,1.28,8.09-2.26,8.09-3.86s.46-8.68.46-9.57S231.27,34,231.27,35.47Z"
                transform="translate(0 0)" fill="#212121" />
            <path
                d="M230.42,31.09c1.06,0,7.56-8.86,7.89-10.22.28-1.19-1-3.21-2.43-3.21s-6.26,8.68-6.26,9.68S229.65,31.09,230.42,31.09Z"
                transform="translate(0 0)" fill="#212121" />
            <path d="M228.22,23c1,0,5.5-5.44,5.5-7s-1.54-2.65-3.22-2.65S226.34,23,228.22,23Z"
                transform="translate(0 0)" fill="#212121" />
            <path
                d="M225.67,16.69c1.07,0,2.35-4.1,2.35-5.43S218.24,1.35,216.23.07,223.75,16.69,225.67,16.69Z"
                transform="translate(0 0)" fill="#212121" />
            <path
                d="M173.07,147.56c.61,1.55,6.24,4.23,12.69,7.52s10.9,4.83,12,4.83,1.22-16.47,0-17.69-18.71-16.87-20.12-16.87S172.48,146,173.07,147.56Z"
                transform="translate(0 0)" fill="#212121" />
            <path
                d="M177.63,121.26c0,2,18.86,18.17,20.45,18.17s1.77-9.85,1.77-11.62S183.27,108,182.13,108,177.63,120,177.63,121.26Z"
                transform="translate(0 0)" fill="#212121" />
            <path
                d="M200.51,124.11c1.23,0,3-10.09,3-11.33s-5.42-6-9.23-11.8-5.64-9.63-6.84-9.63-5.58,11.46-5.58,13.11S199.22,124.11,200.51,124.11Z"
                transform="translate(0 0)" fill="#212121" />
            <path
                d="M188.74,88.1c0,1.44,14.24,21.37,16.24,21.37s4.1-7.75,4.1-8.89-12.59-22.16-13.73-22.16S188.74,87,188.74,88.1Z"
                transform="translate(0 0)" fill="#212121" />
            <path
                d="M198,75.45c0,1.2,10.94,22.18,12.82,22.18s8.26-12.5,8.26-14.15-4.44-5.46-7-9.17-2.85-8.14-3.87-8.14S198,74.33,198,75.45Z"
                transform="translate(0 0)" fill="#212121" />
            <path
                d="M210.46,64.12c0,1.53,8.12,17.22,10.34,17.22s8.5-8.74,8.5-10-1.88-3.82-4.27-8.26-2-6.54-3.12-6.54S210.46,62.8,210.46,64.12Z"
                transform="translate(0 0)" fill="#212121" />
            <path
                d="M223.92,54.93c0,1.92,5.43,14.66,7.35,14.66s6.92-6.59,6.92-8.21-2.05-4-3.5-7.39-1.45-7.48-2.57-7.48S223.92,53.56,223.92,54.93Z"
                transform="translate(0 0)" fill="#212121" />
            <path
                d="M234.56,44.2c0,2.31,2.91,14.83,5.21,14.83s4.92-9.27,5.26-12.23-3.76-9.57-4.9-9.63S234.56,43,234.56,44.2Z"
                transform="translate(0 0)" fill="#212121" />
            <path
                d="M243.15,25.72c1.19,2.8,3.19,5.41,3.07,9.51s.52,7.24-2.33,3.31-2.65-4.78-2.71-8.09S241,20.79,243.15,25.72Z"
                transform="translate(0 0)" fill="#212121" />
        </g>
        <g id="left">
            <path
                d="M100.75,199.64c-.32.55-1,10.53,1.66,13.19s8.46,2.23,10.74-.06a11.69,11.69,0,0,0,2.9-4.43s0,4.91-1.91,6.87-4.65,1.35-4.65,4.52,5.42,12.14,8.28,15.41,7.08,17.43,7.08,26,1.63,16.28,8.22,21.38S148,289,150,286.94v-13c-3.63,0-7.05-1.23-11.52-5.73s-5.07-6.26-5.07-7.89,1.23-2.49,1.74-3.77a41.87,41.87,0,0,0,1.08-5.72s1.12,7.93,3.25,10.08,4,2.57,5.55,4.11,2.93,3.21,5,3.21V151.69c-6.24,0-13.71-1.12-30.86,6s-18.23,7.06-18.23,12.13.13,9.95,4.4,13.09,8,4.5,10.71,9.44a95.83,95.83,0,0,1,5,10.85,36.8,36.8,0,0,1,1-5.46,6.44,6.44,0,0,1,2.49-3.34,69.55,69.55,0,0,0-2,16.31,73.85,73.85,0,0,0,2.1,16.88,25.45,25.45,0,0,1-3.89-9.5c-1.08-5.72-.38-8.15-3.88-15.28s-9.76-13-12.63-15.28-4.59-6.61-4.59-6.61-.86,12,1,13.93,5.55,2.63,7.53,3.6a7.11,7.11,0,0,1,2.93,3.46,65.33,65.33,0,0,0-6.63-2C102.19,199.55,101.07,199.1,100.75,199.64Zm1.53,5.81a10,10,0,0,0,3.45,4.17c2.35,1.51,6.27.77,6.27.77s-3.88,2.6-6.59,1.48S102.28,205.45,102.28,205.45Z"
                transform="translate(0 0)" fill="#212121" />
            <path
                d="M150,290.12c-3.57,0-3.12.44-6.12.44s-10.14-4.81-11.92-4.81-1.09,5.33,5.1,8.92S144.77,300,150,300Z"
                transform="translate(0 0)" fill="#212121" />
            <path
                d="M96.19,195.12c-1.37,1.38-6.94-5.78-17.91-5.78s-15.43.07-15.43-1.54,2.62-1.8,2.62-3.59-18.24-2.31-15.81.38,7,7.19,11.47,9.18,9.88,10.4,17.66,10.4,14-1.86,14.6-1.29-3.57,5.85-12.56,5.85S64.7,201.79,61,198.13s-9.43-4.17-14.21-9-6.31-6.87-2.36-8.6,20.85-8.09,29.07-8.09,19.16.55,20.34,1.73-.58,11.62.57,15S97,194.35,96.19,195.12Z"
                transform="translate(0 0)" fill="#212121" />
            <path
                d="M142,145.43c-1.75,1.75-11.73,2.07-12.65,1.15s.13-5.78-1.64-11.93-3.44-10.06-2.56-10.94S138,129.38,139,130.43,142.75,144.69,142,145.43Z"
                transform="translate(0 0)" fill="#212121" />
            <path
                d="M137.1,124.15c-1.07,1.07-2.57-1.92-6.54-3s-5.36-.2-6.15-1-1.29-3.59-2.57-7.3-2-6.16-1.19-7,12.34,4.7,13.41,5.77S137.91,123.34,137.1,124.15Z"
                transform="translate(0 0)" fill="#212121" />
            <path
                d="M131.58,104.28c-.87.88-3.2-1.79-6.53-1.79s-4.34,1.86-5.22,1-1.75-5.81-3.12-8.5-1.92-3.51-1.32-4.11,10.64,2.78,12.86,4.4S132.31,103.55,131.58,104.28Z"
                transform="translate(0 0)" fill="#212121" />
            <path
                d="M126.56,89.44c-1.13,1.12-4-1.25-7.87-1.37s-5.32-1-5.89-1.71-5.84-7.63-5.53-8.83,13.1,1.37,14.59,2.4S127.44,88.56,126.56,89.44Z"
                transform="translate(0 0)" fill="#212121" />
            <path
                d="M117.61,74.41c-1,1-6.11-.68-10.08-.72s-5.94-.81-8-2.57-6-5.38-6-6.45,12.24-.43,13.75.64S119.13,72.9,117.61,74.41Z"
                transform="translate(0 0)" fill="#212121" />
            <path
                d="M99.64,61.27c0,1.31-4.65-.23-6.44.48s-4.7-.65-7.44-2.22-6-3.28-5.81-4.39S90.21,54.2,92,55,99.64,60.24,99.64,61.27Z"
                transform="translate(0 0)" fill="#212121" />
            <path
                d="M86.39,52.15c0,1.08-4.53.29-6.72.51s-4.07-1-5.53-2.62-3.07-2.59-3.07-3.7,7.63.23,8.29.8S86.39,50.73,86.39,52.15Z"
                transform="translate(0 0)" fill="#212121" />
            <path
                d="M75.45,43.46c0,1.31-7.62-.27-8.66-1.31S62,37.14,62,36.09,75.45,41.13,75.45,43.46Z"
                transform="translate(0 0)" fill="#212121" />
            <path
                d="M68.73,35.47c0,1.28-8.09-2.26-8.09-3.86s-.46-8.68-.46-9.57S68.73,34,68.73,35.47Z"
                transform="translate(0 0)" fill="#212121" />
            <path
                d="M69.58,31.09c-1.06,0-7.56-8.86-7.89-10.22-.28-1.19,1-3.21,2.43-3.21s6.26,8.68,6.26,9.68S70.35,31.09,69.58,31.09Z"
                transform="translate(0 0)" fill="#212121" />
            <path d="M71.78,23c-1,0-5.5-5.44-5.5-7s1.54-2.65,3.22-2.65S73.66,23,71.78,23Z"
                transform="translate(0 0)" fill="#212121" />
            <path
                d="M74.33,16.69c-1.07,0-2.35-4.1-2.35-5.43S81.76,1.35,83.77.07,76.25,16.69,74.33,16.69Z"
                transform="translate(0 0)" fill="#212121" />
            <path
                d="M126.93,147.56c-.61,1.55-6.24,4.23-12.69,7.52s-10.9,4.83-12,4.83-1.22-16.47,0-17.69,18.71-16.87,20.12-16.87S127.52,146,126.93,147.56Z"
                transform="translate(0 0)" fill="#212121" />
            <path
                d="M122.37,121.26c0,2-18.86,18.17-20.45,18.17s-1.77-9.85-1.77-11.62S116.73,108,117.87,108,122.37,120,122.37,121.26Z"
                transform="translate(0 0)" fill="#212121" />
            <path
                d="M99.49,124.11c-1.23,0-3-10.09-3-11.33s5.42-6,9.23-11.8,5.64-9.63,6.84-9.63,5.58,11.46,5.58,13.11S100.78,124.11,99.49,124.11Z"
                transform="translate(0 0)" fill="#212121" />
            <path
                d="M111.26,88.1c0,1.44-14.24,21.37-16.24,21.37s-4.1-7.75-4.1-8.89,12.59-22.16,13.73-22.16S111.26,87,111.26,88.1Z"
                transform="translate(0 0)" fill="#212121" />
            <path
                d="M102,75.45c0,1.2-10.94,22.18-12.82,22.18S81,85.13,81,83.48s4.44-5.46,7-9.17,2.85-8.14,3.87-8.14S102,74.33,102,75.45Z"
                transform="translate(0 0)" fill="#212121" />
            <path
                d="M89.54,64.12c0,1.53-8.12,17.22-10.34,17.22s-8.5-8.74-8.5-10,1.88-3.82,4.27-8.26,2-6.54,3.12-6.54S89.54,62.8,89.54,64.12Z"
                transform="translate(0 0)" fill="#212121" />
            <path
                d="M76.08,54.93c0,1.92-5.43,14.66-7.35,14.66S61.81,63,61.81,61.38s2-4,3.5-7.39,1.45-7.48,2.57-7.48S76.08,53.56,76.08,54.93Z"
                transform="translate(0 0)" fill="#212121" />
            <path
                d="M65.44,44.2c0,2.31-2.91,14.83-5.21,14.83S55.31,49.76,55,46.8s3.76-9.57,4.9-9.63S65.44,43,65.44,44.2Z"
                transform="translate(0 0)" fill="#212121" />
            <path
                d="M56.85,25.72c-1.19,2.8-3.19,5.41-3.07,9.51s-.52,7.24,2.33,3.31,2.65-4.78,2.71-8.09S59,20.79,56.85,25.72Z"
                transform="translate(0 0)" fill="#212121" />
        </g>
    </g>
    <g id="frame">
        <rect width="300" height="300" fill="none" />
    </g>
</svg>