<svg xmlns="http://www.w3.org/2000/svg" viewBox="0 0 30 30"><path d="M28.27,8.52A11.9,11.9,0,0,0,26.8,4.74a7.28,7.28,0,0,0-3.25-1.82c-.14,0-.21.43-.64,1.17A2.05,2.05,0,0,1,21,5c-.82,0-1-.28-.51.15s1.59.19,1.26.3a4.24,4.24,0,0,1-1.33.13c-.71,0-.9-.17-1.32-.17s-1.33.33-1.71,1.77-.24,3.63-.37,2.57A8.35,8.35,0,0,1,17.06,7a2.72,2.72,0,0,1,1.3-1.91c.68-.41.83-.27.58-.77a16,16,0,0,1-1.35-2.73A1,1,0,0,1,18,.84c.15-.1-.53-.18-1.47-.18A9.77,9.77,0,0,0,15,.84V19.92c.17,0,.25,0,.81,0s.44-.13,1.69-.45,1.66-1.19,2.11-2.25.22-1.46.37-1.46.15.21.15,1.07a2.48,2.48,0,0,1-.14,1c0,.18.12.57.89.57s1.15-.51,1.51-1.55.35-1.63.35-.68-.27,1.33,0,1.07a12.57,12.57,0,0,0,1.47-1.56A5.64,5.64,0,0,0,25,12.82a4.78,4.78,0,0,1,.43-2.43A2.9,2.9,0,0,1,27.56,8.8C28.33,8.64,28.34,9,28.27,8.52ZM17.9,14.79c-.35,0-.63-.2-.63-.33s.06-.27.48-.27a.62.62,0,0,1,.64.48C18.39,14.81,18.24,14.79,17.9,14.79Z" transform="translate(0 0)" fill="#212121"/><path d="M20.12,3.8a1.09,1.09,0,0,0,.81.74A1.58,1.58,0,0,0,22,4a1.64,1.64,0,0,0,0-1.07c-.12-.24-.63-.2-.92-.11A2.76,2.76,0,0,0,20.12,3.8Z" transform="translate(0 0)" fill="#212121"/><path d="M19.9,2.9c.13-.08.56-.81,1.13-.81a4.87,4.87,0,0,1,1.48.35c.29.1.19-.1-.11-.67a2.69,2.69,0,0,0-1.15-1c-.28-.16-.19-.08-.4.24S20.16,2.22,20,2.56,19.8,3,19.9,2.9Z" transform="translate(0 0)" fill="#212121"/><path d="M19.22,3.24c.32,0,.42-.37.58-.9A4.33,4.33,0,0,1,20.69.67c.32-.25.34-.41,0-.59a1.63,1.63,0,0,0-1.42.24,2.08,2.08,0,0,0-.56,1.54C18.71,2.49,18.86,3.24,19.22,3.24Z" transform="translate(0 0)" fill="#212121"/><path d="M18.55,2.51c.15.41.07.38-.33-.3s-.47-.77-.17-1.1.6-.64.56-.42a3.75,3.75,0,0,0-.19.86A2.09,2.09,0,0,0,18.55,2.51Z" transform="translate(0 0)" fill="#212121"/><path d="M15,28c1.38,0,2.73-.21,3.35-.85s.59-.65.59-1.83,0-1,.32-.55.38.45.38.75.11.21.27,0,.25-.23,0-.49-.23-.18-.23-.91.06-.45.35-.09.35.39.35.67.15,0,.53-.55S21.72,23,22,22.53s.21-.35.05-.67a2.25,2.25,0,0,1,0-1.39c.12-.6.15.07.3.34s.32.37.32.65.21-.17.36-.4-.21-.16-.21-1,.07-.6.31-.29.28.4.28.57.37-.41.53-1.29a12.36,12.36,0,0,0,.16-2,20.34,20.34,0,0,1,1.06-2.55,13.25,13.25,0,0,0,.31-2.75c.15-.75.91-2.21,2.13-2.21s1.77.76,1.77,4a8.05,8.05,0,0,1-2.55,6.31,62.06,62.06,0,0,0-4.54,4.7c-1,1.27-1,2.35-2.16,3.48A7.83,7.83,0,0,1,15,30Z" transform="translate(0 0)" fill="#212121"/><path d="M16.4,27.17c0,.21,1.09.21,1.26-.13s.08-1-.54-1.74-.55-.52-.55.38A9.3,9.3,0,0,1,16.4,27.17Z" transform="translate(0 0)" fill="#212121"/><path d="M20.23,23.43a.63.63,0,0,0,1,0,1.26,1.26,0,0,0,.1-1.26,3.32,3.32,0,0,0-.54-1.08c-.36-.46-.25-.16-.38.63S20,23.22,20.23,23.43Z" transform="translate(0 0)" fill="#212121"/><path d="M17.3,20c-.17.07.21.69.5,1.15s.25.26.39-.46,0-.89-.15-1S17.65,19.81,17.3,20Z" transform="translate(0 0)" fill="#212121"/><path d="M19.68,18.5c.19-.17.16.22.77.22s.45.1.45.72-.28.91-.8,1.51-.34.15-.34-1S19.49,18.66,19.68,18.5Z" transform="translate(0 0)" fill="#212121"/><path d="M2.44,8.8a2.9,2.9,0,0,1,2.11,1.59A4.78,4.78,0,0,1,5,12.82a5.64,5.64,0,0,0,.85,2.88A12.57,12.57,0,0,0,7.3,17.26c.23.26,0-.13,0-1.07s0-.36.35.68.74,1.55,1.51,1.55S10,18,10,17.85a2.48,2.48,0,0,1-.14-1c0-.86,0-1.07.15-1.07s-.09.4.37,1.46.87,1.93,2.11,2.25,1.13.45,1.69.45.64,0,.81,0V.84A9.77,9.77,0,0,0,13.47.66c-.94,0-1.62.08-1.47.18a1,1,0,0,1,.41.77,16,16,0,0,1-1.35,2.73c-.25.5-.1.36.58.77A2.72,2.72,0,0,1,12.94,7,8.35,8.35,0,0,1,13,9.78c-.13,1.06,0-1.13-.37-2.57s-1.28-1.77-1.71-1.77-.61.17-1.32.17a4.24,4.24,0,0,1-1.33-.13c-.33-.11.74.13,1.26-.3S9.86,5,9,5a2.05,2.05,0,0,1-1.95-.94c-.43-.74-.5-1.17-.64-1.17A7.28,7.28,0,0,0,3.2,4.74,11.9,11.9,0,0,0,1.73,8.52C1.66,9,1.67,8.64,2.44,8.8Zm9.17,5.87a.62.62,0,0,1,.64-.48c.42,0,.48.16.48.27s-.28.33-.63.33S11.61,14.81,11.61,14.67Z" transform="translate(0 0)" fill="#212121"/><path d="M9.88,3.8a1.09,1.09,0,0,1-.81.74A1.58,1.58,0,0,1,8,4,1.64,1.64,0,0,1,8,2.91c.12-.24.63-.2.92-.11A2.76,2.76,0,0,1,9.88,3.8Z" transform="translate(0 0)" fill="#212121"/><path d="M10.1,2.9C10,2.82,9.54,2.09,9,2.09a4.87,4.87,0,0,0-1.48.35c-.29.1-.19-.1.11-.67a2.69,2.69,0,0,1,1.15-1c.28-.16.19-.08.4.24s.69,1.23.85,1.57S10.2,3,10.1,2.9Z" transform="translate(0 0)" fill="#212121"/><path d="M10.78,3.24c-.32,0-.42-.37-.58-.9A4.33,4.33,0,0,0,9.31.67C9,.42,9,.26,9.31.08a1.63,1.63,0,0,1,1.42.24,2.08,2.08,0,0,1,.56,1.54C11.29,2.49,11.14,3.24,10.78,3.24Z" transform="translate(0 0)" fill="#212121"/><path d="M11.45,2.51c-.15.41-.07.38.33-.3s.47-.77.17-1.1-.6-.64-.56-.42a3.75,3.75,0,0,1,.19.86A2.09,2.09,0,0,1,11.45,2.51Z" transform="translate(0 0)" fill="#212121"/><path d="M15,28c-1.38,0-2.73-.21-3.35-.85s-.59-.65-.59-1.83,0-1-.32-.55-.38.45-.38.75-.11.21-.27,0-.25-.23,0-.49.23-.18.23-.91-.06-.45-.35-.09-.35.39-.35.67-.15,0-.53-.55S8.28,23,8,22.53s-.21-.35-.05-.67a2.25,2.25,0,0,0,0-1.39c-.12-.6-.15.07-.3.34s-.32.37-.32.65-.21-.17-.36-.4.21-.16.21-1-.07-.6-.31-.29-.28.4-.28.57S6.18,19.91,6,19a12.36,12.36,0,0,1-.16-2A20.34,20.34,0,0,0,4.8,14.49a13.25,13.25,0,0,1-.31-2.75C4.34,11,3.58,9.53,2.36,9.53s-1.77.76-1.77,4a8.05,8.05,0,0,0,2.55,6.31,62.06,62.06,0,0,1,4.54,4.7c1,1.27,1,2.35,2.16,3.48A7.83,7.83,0,0,0,15,30Z" transform="translate(0 0)" fill="#212121"/><path d="M13.6,27.17c0,.21-1.09.21-1.26-.13s-.08-1,.54-1.74.55-.52.55.38A9.3,9.3,0,0,0,13.6,27.17Z" transform="translate(0 0)" fill="#212121"/><path d="M9.77,23.43a.63.63,0,0,1-1,0,1.26,1.26,0,0,1-.1-1.26,3.32,3.32,0,0,1,.54-1.08c.36-.46.25-.16.38.63S10,23.22,9.77,23.43Z" transform="translate(0 0)" fill="#212121"/><path d="M12.7,20c.17.07-.21.69-.5,1.15s-.25.26-.39-.46,0-.89.15-1S12.35,19.81,12.7,20Z" transform="translate(0 0)" fill="#212121"/><path d="M10.32,18.5c-.19-.17-.16.22-.77.22s-.45.1-.45.72.28.91.8,1.51.34.15.34-1S10.51,18.66,10.32,18.5Z" transform="translate(0 0)" fill="#212121"/><rect width="30" height="30" fill="none"/></svg>