<!-- Copyright (c) 2022 - 2023 Jan Stehno -->
<svg xmlns="http://www.w3.org/2000/svg" viewBox="0 0 300 300"><title>saltwatercrocodile</title><g id="saltwatercrocodile"><g id="right"><path d="M282.72,85.23c-.64-4.61-7-27.21-14.68-37.81s-31.17-18.27-32.56-18.27-2.09,4.4-6.37,11.73-11.41,9.38-19.55,9.38-10.29-2.79-5.09,1.55,15.91,1.87,12.64,2.95-6.27,1.39-13.34,1.39-8.94-1.77-13.21-1.77-13.25,3.32-17.1,17.73-2.36,36.26-3.7,25.71a84.75,84.75,0,0,1,.81-27.59,27.46,27.46,0,0,1,13-19.12c6.86-4.12,8.36-2.67,5.84-7.71s-13.55-23-13.55-27.26a9.4,9.4,0,0,1,4.18-7.71c1.44-1.07-5.36-1.88-14.73-1.88S153.11,8.43,150,8.43V199.2c1.71,0,2.46.38,8.09.38s4.44-1.29,16.87-4.5,16.6-11.84,21.15-22.44,2.15-14.68,3.7-14.68,1.5,2.09,1.5,10.71-1.39,8.09-1.39,9.86,1.17,5.62,8.89,5.62,11.51-5.09,15.05-15.48,3.59-16.22,3.59-6.8-2.74,13.29-.43,10.77c2.14-2.35,9.32-8.25,14.67-15.64s8.46-20.25,8.46-28.82-.21-14.35,4.4-24.31S268,89.62,275.65,88,283.36,89.84,282.72,85.23ZM179,147.89c-3.43,0-6.27-2-6.27-3.32,0-1.07.59-2.62,4.82-2.62s6.37,3.32,6.37,4.71S182.4,147.89,179,147.89Z" transform="translate(0 0)" fill="#212121"/><path d="M201.2,38c0,2.25,4.66,7.39,8.09,7.39s9.43-3.1,10.71-5.62,1.39-8.25.27-10.66-6.24-2-9.15-1.12S201.2,36.65,201.2,38Z" transform="translate(0 0)" fill="#212121"/><path d="M199,29c1.32-.81,5.57-8.08,11.24-8.08s11.89,2.51,14.84,3.48,1.93-1-1.07-6.64S215.29,9,212.5,7.46s-1.93-.75-4,2.41S201.58,22.25,200,25.62,198,29.59,199,29Z" transform="translate(0 0)" fill="#212121"/><path d="M192.15,32.42c3.27,0,4.29-3.69,5.89-9S203.67,9.2,206.88,6.7s3.43-4.11,0-5.93S196,.61,192.69,3.18s-5.63,9-5.63,15.37S188.62,32.42,192.15,32.42Z" transform="translate(0 0)" fill="#212121"/><path d="M185.51,25.08c1.44,4.09.64,3.81-3.27-3s-4.76-7.65-1.71-11,6-6.43,5.6-4.18-1.58,2.85-1.93,8.52A22.09,22.09,0,0,0,185.51,25.08Z" transform="translate(0 0)" fill="#212121"/><path d="M150,279.81c13.76,0,27.26-2.09,33.47-8.52s5.9-6.48,5.9-18.26-.11-9.64,3.21-5.52,3.8,4.5,3.8,7.45,1.07,2.14,2.68-.38,2.57-2.25,0-4.87-2.3-1.82-2.3-9.16.64-4.45,3.53-.86,3.54,3.91,3.54,6.7,1.44.37,5.3-5.52,8-11,11-15.58,2.14-3.54.54-6.65-1.07-7.87.16-13.92,1.55.7,3,3.37,3.21,3.7,3.21,6.54,2-1.72,3.59-4-2.09-1.61-2.09-10.18.65-6.05,3.11-2.89,2.73,4,2.73,5.63,3.73-4.11,5.3-12.89,1.45-14,1.66-19.84S248,156.74,252,144.92s1.6-20.06,3.1-27.55S264.19,95.3,276.4,95.3s17.67,7.6,17.67,40.38-12.42,50.67-25.49,63.09-35.14,34.28-45.42,47-10,23.46-21.53,34.81S169.07,300,150,300Z" transform="translate(0 0)" fill="#212121"/><path d="M164,271.72c0,2,10.87,2.09,12.54-1.34s.8-9.53-5.41-17.4-5.47-5.2-5.47,3.8S164,269.1,164,271.72Z" transform="translate(0 0)" fill="#212121"/><path d="M202.27,234.28c2.45,2.45,7.34,3.49,9.64,0a12.6,12.6,0,0,0,1-12.58c-2.09-4.93-1.87-6.22-5.46-10.82s-2.47-1.55-3.75,6.32S200.16,232.17,202.27,234.28Z" transform="translate(0 0)" fill="#212121"/><path d="M173,199.58c-1.68.72,2.14,7,5,11.51s2.57,2.63,4-4.55.05-8.94-1.5-9.75S176.46,198.08,173,199.58Z" transform="translate(0 0)" fill="#212121"/><path d="M196.76,185c1.93-1.71,1.66,2.19,7.76,2.19s4.5,1.07,4.5,7.23-2.78,9.11-8,15.16-3.43,1.45-3.43-10S194.94,186.56,196.76,185Z" transform="translate(0 0)" fill="#212121"/></g><g id="left"><path d="M24.35,88c7.61,1.6,16.5,5.89,21.1,15.85s4.4,15.75,4.4,24.31S53,149.61,58.31,157,70.84,170.29,73,172.64c2.31,2.52-.43-1.34-.43-10.77s.06-3.59,3.59,6.8,7.34,15.48,15,15.48,8.89-3.85,8.89-5.62-1.39-1.23-1.39-9.86,0-10.71,1.5-10.71-.86,4.07,3.7,14.68,8.73,19.23,21.15,22.44,11.25,4.5,16.87,4.5,6.38-.38,8.09-.38V8.43c-3.11,0-5.94-1.88-15.32-1.88S118.51,7.36,120,8.43a9.4,9.4,0,0,1,4.18,7.71c0,4.28-11,22.23-13.55,27.26s-1,3.59,5.84,7.71a27.46,27.46,0,0,1,13,19.12,84.75,84.75,0,0,1,.81,27.59c-1.34,10.55.16-11.3-3.7-25.71s-12.84-17.73-17.1-17.73-6.14,1.77-13.21,1.77-10.07-.32-13.34-1.39,7.45,1.39,12.64-2.95,3-1.55-5.09-1.55-15.26-2-19.55-9.38-5-11.73-6.37-11.73S39.67,36.81,32,47.42s-14,33.2-14.68,37.81S16.75,86.41,24.35,88Zm91.75,58.64c0-1.39,2.14-4.71,6.37-4.71s4.82,1.55,4.82,2.62c0,1.29-2.84,3.32-6.27,3.32S116.1,148.05,116.1,146.66Z" transform="translate(0 0)" fill="#212121"/><path d="M98.8,38c0,2.25-4.66,7.39-8.09,7.39S81.28,42.28,80,39.76s-1.39-8.25-.27-10.66,6.24-2,9.15-1.12S98.8,36.65,98.8,38Z" transform="translate(0 0)" fill="#212121"/><path d="M101,29c-1.32-.81-5.57-8.08-11.24-8.08s-11.89,2.51-14.84,3.48S73,23.37,76,17.75,84.71,9,87.5,7.46s1.93-.75,4,2.41S98.42,22.25,100,25.62,102,29.59,101,29Z" transform="translate(0 0)" fill="#212121"/><path d="M107.85,32.42c-3.27,0-4.29-3.69-5.89-9S96.33,9.2,93.12,6.7s-3.43-4.11,0-5.93,10.93-.16,14.19,2.41,5.63,9,5.63,15.37S111.38,32.42,107.85,32.42Z" transform="translate(0 0)" fill="#212121"/><path d="M114.49,25.08c-1.44,4.09-.64,3.81,3.27-3s4.76-7.65,1.71-11-6-6.43-5.6-4.18,1.58,2.85,1.93,8.52A22.09,22.09,0,0,1,114.49,25.08Z" transform="translate(0 0)" fill="#212121"/><path d="M150,279.81c-13.76,0-27.26-2.09-33.47-8.52s-5.9-6.48-5.9-18.26.11-9.64-3.21-5.52-3.8,4.5-3.8,7.45-1.07,2.14-2.68-.38-2.57-2.25,0-4.87,2.3-1.82,2.3-9.16-.64-4.45-3.53-.86-3.54,3.91-3.54,6.7-1.44.37-5.3-5.52-8-11-11-15.58-2.14-3.54-.54-6.65,1.07-7.87-.16-13.92-1.55.7-3,3.37-3.21,3.7-3.21,6.54-2-1.72-3.59-4,2.09-1.61,2.09-10.18-.65-6.05-3.11-2.89-2.73,4-2.73,5.63-3.73-4.11-5.3-12.89-1.45-14-1.66-19.84S52,156.74,48,144.92s-1.6-20.06-3.1-27.55S35.81,95.3,23.6,95.3,5.93,102.9,5.93,135.68s12.42,50.67,25.49,63.09,35.14,34.28,45.42,47,10,23.46,21.53,34.81S130.93,300,150,300Z" transform="translate(0 0)" fill="#212121"/><path d="M136,271.72c0,2-10.87,2.09-12.54-1.34s-.8-9.53,5.41-17.4,5.47-5.2,5.47,3.8S136,269.1,136,271.72Z" transform="translate(0 0)" fill="#212121"/><path d="M97.73,234.28c-2.45,2.45-7.34,3.49-9.64,0a12.6,12.6,0,0,1-1-12.58c2.09-4.93,1.87-6.22,5.46-10.82s2.47-1.55,3.75,6.32S99.84,232.17,97.73,234.28Z" transform="translate(0 0)" fill="#212121"/><path d="M127,199.58c1.68.72-2.14,7-5,11.51s-2.57,2.63-4-4.55,0-8.94,1.5-9.75S123.54,198.08,127,199.58Z" transform="translate(0 0)" fill="#212121"/><path d="M103.24,185c-1.93-1.71-1.66,2.19-7.76,2.19s-4.5,1.07-4.5,7.23,2.78,9.11,8,15.16,3.43,1.45,3.43-10S105.06,186.56,103.24,185Z" transform="translate(0 0)" fill="#212121"/></g></g><g id="frame"><rect width="300" height="300" fill="none"/></g></svg>