<!-- Copyright (c) 2023 Jan Stehno -->
<svg xmlns="http://www.w3.org/2000/svg" viewBox="0 0 300 300">
    <title>sambar</title>
    <g id="sambar">
        <g id="right">
            <path
                d="M162.27,245.93c1.31,0,3.86-3.55,4.46-6.77s.81-8.79,0-9.6-3.75,4.5-4.46,8.64S161,245.93,162.27,245.93Z"
                transform="translate(0)" fill="#212121" />
            <path d="M150,264.76c4.06,0,10.24,0,13.06-.79s2.91-.8,2.91,1.51-6.25,7.45-16,7.45Z"
                transform="translate(0)" fill="#212121" />
            <path
                d="M150,275.42c8,0,14.62-1.18,17.28-4.88s1.28-5.5,2.2-6.81,4.7-2.15,6.45-6.05,1.79-6.26,2.55-7.77,5.61-1.4,10.11-6.89,4.94-7.45,5.58-10,1.51,1,3.22,3.31,3.55,3.06.48,3.78-4.34,1.75-.2,1.75,2.83,1.44-.24,2,0,5.6-2.57,8.15,1.54,5.35,1.54,8-1.55,3.75-4.74,8.49S184.77,276,180,279.14s-7.69,4.94-9.4,7.05-4.66,1.32-8,3.07-3.75,3.42-3.35,4.26-1.08-.76-3,1.11-3.77,3.84-4.56,4.16c-.63.24-1,1.21-1.65,1.21Z"
                transform="translate(0)" fill="#212121" />
            <path
                d="M182,183c0,1.07,3.59,4.46,6.93,4.46s5.5-3.86,6-5.38.65-5.51,0-6.17-5-.6-7.37,1.31S182,181.61,182,183Z"
                transform="translate(0)" fill="#212121" />
            <path
                d="M247,121.19c-5.5-3.59-9.16-3.63-15.49-3.63s-9.32,0-20.28,6.18S194.57,143,193.57,143s-1.43-3.06-5.1-5.49-14.33-7.77-16.09-7.77-2.07.36-4,1.55S160.81,133,150,133v97.13c2.66,0,8.6-7.28,13.38-7.28s9.4,8.16,9.4,17.76-5.42,14.54-10.31,17.56-11.2,2.91-12.47,2.91v2.35a64.54,64.54,0,0,0,13.9-1.59c6.69-1.56,9.28-4.62,11.19-8s.6-8.2,1.79-14.73,1.92-6.46,1.92-.28-1.08,6.09,0,7.13,3.34-1.88,7.56-5.5,5.14-7.89,6.41-13.14,2.2-12.55,0-9.68-5.93,5.53-8.8,8.4-3.74,4.26-1.27-.48,10.87-12.26,13-15.93,3.07-12.78,3.07-18.52-.92-9.55-1.55-7.64a8.61,8.61,0,0,1-3.07,4.74c-2.07,1.79-7.41,1.59-10.2,0s-4.14-.76-6.25,2.63-4.06,11.27-1.55,15.17,4.9,4.78,1.35,3.19-4.66-5.14-4.66-9.24-1.23-8.41,5.58-18.6,12.18-10.72,13.94-10.72,2.78-.4,5.53,3.67,1.36,8.32,2.19,8.32,4-7.9,4.86-8.76,1.91-.56,12.63-.56,17.6-.64,25.21-6,8.84-20.51,10.15-31.43S252.52,124.77,247,121.19ZM237.54,131a11.92,11.92,0,0,0-5.46,7.84,8.29,8.29,0,0,1,2.39-.52,5.36,5.36,0,0,1,2,.44,16.85,16.85,0,0,0-4.85,2.31,24.32,24.32,0,0,0-3.19,3.75s1.23-.6,5.26-.6,5.45,1.43,5.45,1.43a26.29,26.29,0,0,0-9.64,2.71,15.62,15.62,0,0,1,3.23,0,4.5,4.5,0,0,1,2.31,1.11s-2.15.39-4.5.88a8.92,8.92,0,0,0-3.46,1.28,20.06,20.06,0,0,1,5.25,2.49,11.21,11.21,0,0,1,3.87,3.6,41.41,41.41,0,0,0-7.17-.6,21.18,21.18,0,0,0-6.22.72,13.07,13.07,0,0,1,3.39,1c1.75.8,1.79,1.76,1.79,1.76a59.87,59.87,0,0,0-11.63-.32c-5.33.52-4.22,3-8.8,3s-5.88-2.91-5.88-2.91a9.9,9.9,0,0,0,3.42.58c2,0,4.65-2.57,7.76-7.07S218,139.15,221,134.17s7-11.75,15.73-11.75,12,4.46,12,4.46A33.06,33.06,0,0,0,237.54,131Z"
                transform="translate(0)" fill="#212121" />
            <path
                d="M178.08,127.64c0,1.23,2.83,2,6.57,4.22s5.26,3.82,6.33,3.82,4.58-7.4,11.15-16.84S213.88,103,220,96.89s10.71-9.52,12.34-16.57.64-21.18,0-22.82-3.7,2.83-5.61,8.33-5.26,14-10.36,18.68-14.54,12.1-22.42,20S178.08,126.15,178.08,127.64Z"
                transform="translate(0)" fill="#212121" />
            <path
                d="M205.24,118.52c0,1.11,11.39-4.46,25.17-10.83s27.92-13.27,33.1-23.54,5.73-15.53,5.73-27.4,2.63-23.58,2.63-33S269,6,263.35,1.39s1.15,2.71,1.15,15.89-1.75,17.2-6.81,21.47-8.48,4.89-11.27,4.89S242,43.29,240,40.9s-1.39,3.78,2.75,7.48S255,52,256.26,53.28s1.51,10.72-.8,16.25-8.64,13.82-14.3,18S226.55,98.05,223.88,98.8s-4.71,4.89-9.56,10S205.24,117.28,205.24,118.52Z"
                transform="translate(0)" fill="#212121" />
        </g>
        <g id="left">
            <path
                d="M137.73,245.93c-1.31,0-3.86-3.55-4.46-6.77s-.81-8.79,0-9.6,3.75,4.5,4.46,8.64S139,245.93,137.73,245.93Z"
                transform="translate(0)" fill="#212121" />
            <path d="M150,264.76c-4.06,0-10.24,0-13.06-.79s-2.91-.8-2.91,1.51,6.25,7.45,16,7.45Z"
                transform="translate(0)" fill="#212121" />
            <path
                d="M150,275.42c-8,0-14.62-1.18-17.28-4.88s-1.28-5.5-2.2-6.81-4.7-2.15-6.45-6.05-1.79-6.26-2.55-7.77-5.61-1.4-10.11-6.89-4.94-7.45-5.58-10-1.51,1-3.22,3.31-3.55,3.06-.48,3.78,4.34,1.75.2,1.75-2.83,1.44.24,2,0,5.6,2.57,8.15-1.54,5.35-1.54,8,1.55,3.75,4.74,8.49S115.23,276,120,279.14s7.69,4.94,9.4,7.05,4.66,1.32,8,3.07,3.75,3.42,3.35,4.26,1.08-.76,3,1.11,3.77,3.84,4.56,4.16c.63.24,1,1.21,1.65,1.21Z"
                transform="translate(0)" fill="#212121" />
            <path
                d="M118,183c0,1.07-3.59,4.46-6.93,4.46s-5.5-3.86-6-5.38-.65-5.51,0-6.17,5-.6,7.37,1.31S118,181.61,118,183Z"
                transform="translate(0)" fill="#212121" />
            <path
                d="M47.09,135.84c1.31,10.92,2.55,26,10.15,31.43s14.5,6,25.21,6,11.77-.3,12.63.56,4,8.76,4.86,8.76-.56-4.26,2.19-8.32,3.78-3.67,5.53-3.67,7.13.52,13.94,10.72,5.58,14.49,5.58,18.6-1.12,7.64-4.66,9.24-1.16.71,1.35-3.19.56-11.79-1.55-15.17-3.46-4.23-6.25-2.63-8.13,1.79-10.2,0a8.61,8.61,0,0,1-3.07-4.74c-.63-1.91-1.55,1.91-1.55,7.64s1,14.86,3.07,18.52,10.51,11.2,13,15.93,1.6,3.35-1.27.48-6.65-5.53-8.8-8.4-1.24,4.42,0,9.68,2.19,9.52,6.41,13.14,6.53,6.53,7.56,5.5,0-1,0-7.13.72-6.26,1.92.28-.12,11.35,1.79,14.73,4.5,6.45,11.19,8a64.54,64.54,0,0,0,13.9,1.59v-2.35c-1.27,0-7.57.12-12.47-2.91s-10.31-8-10.31-17.56,4.62-17.76,9.4-17.76,10.72,7.28,13.38,7.28V133c-10.81,0-16.41-.52-18.36-1.72s-2.27-1.55-4-1.55-12.43,5.34-16.09,7.77-4.11,5.49-5.1,5.49-6.73-13-17.68-19.23-13.94-6.18-20.28-6.18-10,0-15.49,3.63S45.77,124.93,47.09,135.84Zm4.18-9s3.26-4.46,12-4.46S76,129.19,79,134.17s5,15.14,8.12,19.64,5.77,7.07,7.76,7.07a9.9,9.9,0,0,0,3.42-.58s-1.3,2.91-5.88,2.91-3.47-2.47-8.8-3a59.87,59.87,0,0,0-11.63.32s0-1,1.79-1.76a13.07,13.07,0,0,1,3.39-1,21.18,21.18,0,0,0-6.22-.72,41.41,41.41,0,0,0-7.17.6,11.21,11.21,0,0,1,3.87-3.6,20.06,20.06,0,0,1,5.25-2.49,8.92,8.92,0,0,0-3.46-1.28c-2.35-.49-4.5-.88-4.5-.88a4.5,4.5,0,0,1,2.31-1.11,15.62,15.62,0,0,1,3.23,0,21.59,21.59,0,0,0-4.59-1.79,21.5,21.5,0,0,0-5.05-.92s1.43-1.43,5.45-1.43,5.26.6,5.26.6A24.32,24.32,0,0,0,68.39,141a16.85,16.85,0,0,0-4.85-2.31,5.36,5.36,0,0,1,2-.44,8.29,8.29,0,0,1,2.39.52A11.92,11.92,0,0,0,62.46,131,33.06,33.06,0,0,0,51.27,126.88Z"
                transform="translate(0)" fill="#212121" />
            <path
                d="M121.92,127.64c0,1.23-2.83,2-6.57,4.22s-5.26,3.82-6.33,3.82-4.58-7.4-11.15-16.84S86.12,103,80,96.89,69.27,87.37,67.64,80.32s-.64-21.18,0-22.82,3.7,2.83,5.61,8.33,5.26,14,10.36,18.68,14.54,12.1,22.42,20S121.92,126.15,121.92,127.64Z"
                transform="translate(0)" fill="#212121" />
            <path
                d="M94.76,118.52c0,1.11-11.39-4.46-25.17-10.83S41.67,94.42,36.49,84.15s-5.73-15.53-5.73-27.4-2.63-23.58-2.63-33S31,6,36.65,1.39,35.5,4.1,35.5,17.28s1.75,17.2,6.81,21.47,8.48,4.89,11.27,4.89S58,43.29,60,40.9s1.39,3.78-2.75,7.48S45,52,43.74,53.28s-1.51,10.72.8,16.25,8.64,13.82,14.3,18S73.45,98.05,76.12,98.8s4.71,4.89,9.56,10S94.76,117.28,94.76,118.52Z"
                transform="translate(0)" fill="#212121" />
        </g>
    </g>
    <g id="frame">
        <rect width="300" height="300" fill="none" />
    </g>
</svg>