<svg xmlns="http://www.w3.org/2000/svg" viewBox="0 0 30 30"><path d="M19.16,19.8a.29.29,0,0,0-.23.15.66.66,0,0,1,.31.53c.05.33,0,.61-.21.64s-.25-.1-.33-.3c0,.34,0,.62.26.63s.54-.23.56-.62S19.34,19.81,19.16,19.8Z" transform="translate(0 0)" fill="#212121"/><path d="M21,23.36c.39.49.4,1.25.72,1.62s.59.6.2.7-.07.41-.06,1,0,.22-.23-.05-.5.22-.63.69-.13-.13-.37.34-.54.61-.66,1.12-.14-.4-.51.06a1,1,0,0,1-1.2.4c-.35-.19-.29.21-.79.58s-.32.19-.48-.3-.37.27-.9.36-.59-.4-1.12.13V28.92c.12-.12.39-.22.51,0s.41-.23.65,0,.33-.29.67-.14-.26-.54.45-.14.75.07.51-.17.06-.27.33-.19-.65-.46.16-.15-.21-.35.34-.35-.29-.52.44-.21-.14-.2.36-.34.91-.21.68-.32,0-.23.42-.38,0-.29.17-.48-.48-.26-.13-.5.12-.53,0-.67.37,0,.21-.34.11-.35.11-.59S20.36,22.52,21,23.36Z" transform="translate(0 0)" fill="#212121"/><path d="M20.14,23.26c-.27-.26.38,0,.21-.16s-.65-.64-.2-.48.06-.3-.47-.71-1.18-.06-1.43-.26-.61-.09-1,.17-.64.15-.92-.19-.41-.69-.7-.69-.39-.2-.59-.2v5.64c.35,0,1.35-.67,1.35-.91s-.27-.49-.06-.36a.51.51,0,0,1,.3.48c0,.24-.33.46-.82.95a1.33,1.33,0,0,0-.48,1.28c0,.62.06.67.81.67s1-.53,1.51-.51,0-.38.45-.38.61-.57,1-.57.47-.41.74-.51.27-.14.42-.42-.33-1.05.06-.75-.28-1.13,0-.85-.15-.74.19-.58S20.41,23.52,20.14,23.26Zm-1,2.38c-.33.23.22.12-.16.48s-.54.75-.71.45-.23-.35,0-.71,0-.63-.36-.63-.18-.31-.76-.31-.25-.06.1-.19.64.28.64-.14a1.13,1.13,0,0,0-.56-1c-.42-.28-.32-.36.43.17s.87,1.1.73,1.28.08.53.28.53.17-.16.45-.16S19.45,25.42,19.11,25.64Z" transform="translate(0 0)" fill="#212121"/><path d="M23.2.51a18,18,0,0,0-4.13,4.82,26.81,26.81,0,0,0-2.79,6.33C16,13,16.15,14.94,16,14.94s-.6.41-1,.41v1.21c.18,0,.15.06.26.17a1.75,1.75,0,0,1,.45.45c.23.34.52.51.21.43a1.26,1.26,0,0,0-.92.06v2.7a.43.43,0,0,1,.37.15c.11.11.48,0,.59.21s.54.84.88.84,1-.41,1.3-.3.34.2.34-.48.4-1.27.58-1.27.22,0,.22-.46a1.86,1.86,0,0,0-.8-1.62c-.62-.33-.8-.47-.4-.41a2.31,2.31,0,0,1,1.1.51c.49.35.49.22.34.11s-.21-.2,0-.4.51-.33,0-.2.48-.5,0-.43.21-.19.21-.46A7.78,7.78,0,0,1,22.13,14c.73-.35.82-1.37.82-2.26A14.61,14.61,0,0,1,24,8a5.87,5.87,0,0,0,.21-3.46,9.25,9.25,0,0,1,.18-4C24.66-.23,24.24-.11,23.2.51ZM18,19.37c.37-.54.8-.63.52-.35a3.17,3.17,0,0,0-.64,1.47C17.74,21.32,17.58,19.91,18,19.37Zm4.81-9.63c-.43,1.33-.09,1.93-.37,2.95a3.41,3.41,0,0,1-1.58,2,3.1,3.1,0,0,0-1.08,1c-.28.33-.38.49-.24.06s.16-.63-.06-.51-.33.15-.05-.18,0-.57.31-.84.24-.65.24-1.78.15-1.43-.1-1.18-.39.38-.18,0a2.53,2.53,0,0,0,.27-1.32c0-.59.08-.93-.09-.68a4.19,4.19,0,0,1-.65.93c-.38.36.28-.47.28-1s.48-1,.83-1.56.55-.5.17-.54-.52.18-.28-.23A22.46,22.46,0,0,1,21.6,4.63c.61-.78.8-.93.4-.79s.09-.21.62-1,1-.92.22-.86-.48-.06.12-.39.86-.65.82-.43a7.07,7.07,0,0,0-.08,1.61c0,1.18.26,2.56.26,3.42S23.19,8.42,22.76,9.74Z" transform="translate(0 0)" fill="#212121"/><path d="M10.84,19.8a.29.29,0,0,1,.23.15.66.66,0,0,0-.31.53c0,.33,0,.61.21.64s.25-.1.33-.3c0,.34,0,.62-.26.63s-.54-.23-.56-.62S10.66,19.81,10.84,19.8Z" transform="translate(0 0)" fill="#212121"/><path d="M9,23.36c-.39.49-.4,1.25-.72,1.62s-.59.6-.2.7.07.41.06,1,0,.22.23-.05.5.22.63.69.13-.13.37.34.54.61.66,1.12.14-.4.51.06a1,1,0,0,0,1.2.4c.35-.19.29.21.79.58s.32.19.48-.3.37.27.9.36.59-.4,1.12.13V28.92c-.12-.12-.39-.22-.51,0s-.41-.23-.65,0-.33-.29-.67-.14.26-.54-.45-.14-.75.07-.51-.17-.06-.27-.33-.19.65-.46-.16-.15.21-.35-.34-.35.29-.52-.44-.21.14-.2-.36-.34-.91-.21-.68-.32-.05-.23-.42-.38,0-.29-.17-.48.48-.26.13-.5-.12-.53,0-.67-.37,0-.21-.34-.11-.35-.11-.59S9.64,22.52,9,23.36Z" transform="translate(0 0)" fill="#212121"/><path d="M9.47,23.92c.34-.16-.13.85.19.58s-.34,1.15,0,.85-.09.47.06.75.14.32.42.42.32.51.74.51.53.57,1,.57,0,.39.45.38.76.51,1.51.51.81,0,.81-.67a1.33,1.33,0,0,0-.48-1.28c-.49-.49-.82-.71-.82-.95a.51.51,0,0,1,.3-.48c.21-.13-.06.13-.06.36s1,.91,1.35.91V20.74c-.2,0-.29.2-.59.2s-.41.35-.7.69-.49.45-.92.19-.79-.37-1-.17-.9-.16-1.43.26-.92.88-.47.71,0,.35-.2.48.48-.1.21.16S9.12,24.07,9.47,23.92Zm1.39,1.46c.28,0,.26.16.45.16s.42-.35.28-.53,0-.75.73-1.28.85-.45.43-.17a1.13,1.13,0,0,0-.56,1c0,.42.3,0,.64.14s.68.19.1.19-.38.31-.76.31-.54.27-.36.63.12.41-.05.71-.33-.1-.71-.45.17-.25-.16-.48S10.46,25.38,10.86,25.38Z" transform="translate(0 0)" fill="#212121"/><path d="M5.63.51a9.25,9.25,0,0,1,.18,4A5.87,5.87,0,0,0,6,8a14.61,14.61,0,0,1,1,3.76c0,.89.09,1.91.82,2.26a7.78,7.78,0,0,1,2.34,2.13c0,.27.68.52.21.46s.48.55,0,.43-.18,0,0,.2.16.3,0,.4-.15.24.34-.11a2.31,2.31,0,0,1,1.1-.51c.4-.06.22.08-.4.41a1.86,1.86,0,0,0-.8,1.62c0,.47,0,.46.22.46s.58.6.58,1.27,0,.59.34.48,1,.3,1.3.3.76-.62.88-.84.48-.1.59-.21a.43.43,0,0,1,.37-.15v-2.7a1.26,1.26,0,0,0-.92-.06c-.31.08,0-.09.21-.43a1.75,1.75,0,0,1,.45-.45c.11-.11.08-.17.26-.17V15.35c-.4,0-.86-.41-1-.41s0-2-.28-3.28a26.81,26.81,0,0,0-2.79-6.33A18,18,0,0,0,6.8.51C5.76-.11,5.34-.23,5.63.51Zm6.54,20A3.17,3.17,0,0,0,11.53,19c-.28-.28.15-.19.52.35S12.26,21.32,12.17,20.49ZM6,6.16c0-.86.26-2.24.26-3.42a7.07,7.07,0,0,0-.08-1.61c0-.22.21.11.82.43S7.9,2,7.16,2s-.3.05.22.86,1,1.18.62,1-.21,0,.4.79A22.46,22.46,0,0,1,9.82,6.78c.24.41.1.19-.28.23s-.17,0,.17.54.83,1,.83,1.56.66,1.34.28,1a4.19,4.19,0,0,1-.65-.93c-.17-.25-.09.09-.09.68a2.53,2.53,0,0,0,.27,1.32c.21.41.07.27-.18,0s-.1.05-.1,1.18,0,1.52.24,1.78,0,.51.31.84.18.3,0,.18-.19.09-.06.51,0,.27-.24-.06a3.1,3.1,0,0,0-1.08-1,3.41,3.41,0,0,1-1.58-2c-.28-1,.06-1.62-.37-2.95S6,7,6,6.16Z" transform="translate(0 0)" fill="#212121"/><rect width="30" height="30" fill="none"/></svg>