<!-- Copyright (c) 2023 Jan Stehno -->
<svg xmlns="http://www.w3.org/2000/svg" viewBox="0 0 300 300">
    <title>scrubhare</title>
    <g id="scrubhare">
        <g id="right">
            <path
                d="M191.6,198a2.72,2.72,0,0,0-2.29,1.46c1.39.52,2.69,2.63,3.11,5.32.52,3.26-.44,6.13-2.15,6.4-1.23.19-2.51-1-3.32-3-.26,3.34.31,6.14,2.62,6.26,3.61.2,5.43-2.27,5.65-6.25S193.41,198.13,191.6,198Z"
                transform="translate(0 0)" fill="#212121" />
            <path
                d="M210.33,233.59c3.9,4.91,4,12.49,7.19,16.23s5.9,6,2,7-.69,4-.65,9.84-.2,2.17-2.33-.48-5,2.19-6.22,6.91-1.3-1.34-3.77,3.37-5.39,6.15-6.55,11.17-1.41-3.94-5.1.6-8.44,5.94-12,4.06-2.9,2.12-7.92,5.74-3.25,1.93-4.78-3-3.73,2.73-9,3.61-6-4-11.25,1.3V289.16c1.16-1.16,3.86-2.13,5.1-.3s4.14-2.27,6.49-.2,3.35-2.83,6.69-1.39-2.53-5.38,4.47-1.34,7.59.66,5.18-1.73.53-2.68,3.32-1.9-6.53-4.58,1.53-1.47-2.07-3.56,3.45-3.56-2.92-5.17,4.39-2.09-1.42-2,3.6-3.35,9.09-2.14,6.76-3.21.47-2.33,4.25-3.82.16-2.85,1.64-4.78-4.73-2.65-1.24-5,1.2-5.34.24-6.75,3.74.28,2.17-3.41,1-3.49,1.08-5.9S203.62,225.16,210.33,233.59Z"
                transform="translate(0 0)" fill="#212121" />
            <path
                d="M201.41,232.6c-2.73-2.6,3.78-.21,2.06-1.55s-6.52-6.49-2-4.81.56-3.05-4.7-7.19-11.81-.6-14.3-2.57-6.06-.92-10.36,1.69-6.43,1.53-9.28-1.89-4.07-6.89-7-6.89-3.91-1.95-5.86-1.95V263.8c3.53,0,13.55-6.7,13.55-9.05s-2.73-4.93-.7-3.7,3,2.52,3,4.88-3.24,4.52-8.14,9.42-4.82,6.64-4.82,12.85.64,6.7,8.14,6.7,10.34-5.3,15.1-5.14-.42-3.71,4.48-3.71,6.1-5.75,10.24-5.75,4.66-4.13,7.39-5.1,2.69-1.4,4.18-4.21-3.3-10.49.56-7.47-2.81-11.29.4-8.56-1.45-7.31,2-5.78S204.14,235.2,201.41,232.6Zm-10.28,23.83c-3.35,2.27,2.19,1.16-1.63,4.74s-5.44,7.55-7.11,4.54-2.31-3.56-.48-7.11.17-6.29-3.63-6.29-1.74-3.16-7.55-3.16-2.49-.56.93-1.82,6.46,2.81,6.46-1.42-1.45-7.55-5.65-10.31-3.19-3.64,4.36,1.69,8.68,11,7.27,12.8.8,5.31,2.77,5.31,1.69-1.56,4.52-1.56C195.45,253.84,194.48,254.16,191.13,256.43Z"
                transform="translate(0 0)" fill="#212121" />
            <path
                d="M232,5.13c-10.36,6.27-28.14,27.21-41.32,48.2s-24.69,50.39-27.9,63.3-1.27,32.78-2.76,32.78-6.06,4.13-10,4.13v12c1.81,0,1.51.62,2.61,1.73s2.09,1.08,4.46,4.5,5.19,5.07,2.14,4.3-7.86-.77-9.21.58v27a4.44,4.44,0,0,1,3.7,1.5c1.15,1.15,4.76-.06,5.94,2.14s5.41,8.41,8.73,8.41,10-4.13,13.07-3,3.37,2,3.37-4.77,4-12.69,5.84-12.69,2.19.05,2.19-4.66c0-4.93-1.87-12.83-8.06-16.16s-8-4.7-4-4.1,6.1,1.65,11,5.1,4.94,2.13,3.42,1.09-2.09-2,.12-4,5.14-3.37.4-2.09,4.82-5,.12-4.3,2-1.8,2-4.53,16.17-17.78,23.45-21.32,8.14-13.71,8.14-22.6,6.16-26.54,10.34-37.62,4.66-20.57,2.09-34.54-1.21-33,1.77-40.41S242.38-1.14,232,5.13ZM179.48,193.71c3.7-5.42,8-6.29,5.22-3.5s-5.88,10.32-6.38,14.66C177.35,213.19,175.79,199.13,179.48,193.71ZM227.6,97.43c-4.34,13.26-.91,19.31-3.69,29.43s-12.75,18.9-15.8,19.65-6.78,5-10.81,9.72c-2.77,3.27-3.76,4.9-2.42.62s1.66-6.32-.59-5.14-3.27,1.44-.48-1.82.43-5.68,3.05-8.36,2.46-6.5,2.46-17.83,1.45-14.3-1-11.84-3.91,3.86-1.82-.26,2.73-7.34,2.73-13.23.75-9.27-1-6.75-2.68,5.68-6.48,9.27,2.79-4.66,2.79-9.81,4.82-10,8.3-15.58,5.51-5,1.71-5.41-5.14,1.77-2.73-2.25S209.93,54,216,46.26,224,37,220,38.44s.87-2.18,6.13-10.3,10-9.22,2.21-8.59c-7.39.6-4.79-.68,1.27-3.94s8.57-6.46,8.13-4.33-.76,4.29-.76,16.1S239.57,53,239.57,61.6,231.94,84.18,227.6,97.43Z"
                transform="translate(0 0)" fill="#212121" />
        </g>
        <g id="left">
            <path
                d="M108.4,198a2.72,2.72,0,0,1,2.29,1.46c-1.39.52-2.69,2.63-3.11,5.32-.52,3.26.44,6.13,2.15,6.4,1.23.19,2.51-1,3.32-3,.26,3.34-.31,6.14-2.62,6.26-3.61.2-5.43-2.27-5.65-6.25S106.59,198.13,108.4,198Z"
                transform="translate(0 0)" fill="#212121" />
            <path
                d="M89.67,233.59c-3.9,4.91-4,12.49-7.19,16.23s-5.9,6-2,7,.69,4,.65,9.84.2,2.17,2.33-.48,5,2.19,6.22,6.91,1.3-1.34,3.77,3.37,5.39,6.15,6.55,11.17,1.41-3.94,5.1.6,8.44,5.94,12,4.06,2.9,2.12,7.92,5.74,3.25,1.93,4.78-3,3.73,2.73,9,3.61,6-4,11.25,1.3V289.16c-1.16-1.16-3.86-2.13-5.1-.3s-4.14-2.27-6.49-.2-3.35-2.83-6.69-1.39,2.53-5.38-4.47-1.34-7.59.66-5.18-1.73-.53-2.68-3.32-1.9,6.53-4.58-1.53-1.47,2.07-3.56-3.45-3.56,2.92-5.17-4.39-2.09,1.42-2-3.6-3.35-9.09-2.14-6.76-3.21-.47-2.33-4.25-3.82S94.61,262,93.13,260s4.73-2.65,1.24-5-1.2-5.34-.24-6.75-3.74.28-2.17-3.41-1-3.49-1.08-5.9S96.38,225.16,89.67,233.59Z"
                transform="translate(0 0)" fill="#212121" />
            <path
                d="M94.65,239.18c3.42-1.53-1.24,8.51,2,5.78s-3.45,11.57.4,8.56-.92,4.65.56,7.47,1.45,3.25,4.18,4.21,3.25,5.1,7.39,5.1,5.34,5.75,10.24,5.75-.29,3.87,4.48,3.71,7.6,5.14,15.1,5.14,8.14-.48,8.14-6.7.08-7.95-4.82-12.85-8.14-7.07-8.14-9.42,1-3.65,3-4.88-.7,1.34-.7,3.7,10,9.05,13.55,9.05V207.44c-1.95,0-2.95,1.95-5.86,1.95s-4.14,3.48-7,6.89-5,4.5-9.28,1.89-7.87-3.66-10.36-1.69-9-1.56-14.3,2.57-9.24,8.88-4.7,7.19-.27,3.47-2,4.81,4.79-1.05,2.06,1.55S91.24,240.7,94.65,239.18Zm14,14.66c2.83,0,2.55,1.56,4.52,1.56s4.17-3.53,2.77-5.31-.28-7.47,7.27-12.8,8.57-4.45,4.36-1.69-5.65,6.08-5.65,10.31,3,.16,6.46,1.42,6.75,1.82.93,1.82-3.74,3.16-7.55,3.16-5.46,2.73-3.63,6.29,1.18,4.09-.48,7.11-3.3-1-7.11-4.54,1.72-2.47-1.63-4.74S104.55,253.84,108.61,253.84Z"
                transform="translate(0 0)" fill="#212121" />
            <path
                d="M56.33,5.13c3,7.39,4.34,26.43,1.77,40.41S56,69,60.19,80.08s10.34,28.73,10.34,37.62.85,19.07,8.14,22.6,23.45,18.58,23.45,21.32,6.75,5.22,2,4.53,4.86,5.59.12,4.3-1.81.08.4,2.09,1.65,2.93.12,4-1.48,2.37,3.42-1.09,7-4.5,11-5.1,2.17.76-4,4.1-8.06,11.23-8.06,16.16c0,4.71.32,4.66,2.19,4.66s5.84,5.94,5.84,12.69.32,5.89,3.37,4.77,9.75,3,13.07,3,7.55-6.22,8.73-8.41,4.79-1,5.94-2.14a4.44,4.44,0,0,1,3.7-1.5v-27c-1.35-1.35-6.16-1.36-9.21-.58s-.23-.89,2.14-4.3,3.35-3.4,4.46-4.5.8-1.73,2.61-1.73v-12c-4,0-8.56-4.13-10-4.13s.45-19.87-2.76-32.78-14.73-42.31-27.9-63.3S78.34,11.4,68,5.13,53.36-2.26,56.33,5.13Zm65.35,199.74c-.5-4.34-3.59-11.86-6.38-14.66s1.52-1.92,5.22,3.5S122.65,213.19,121.68,204.87ZM60.43,61.6C60.43,53,63,39.19,63,27.38s-.32-14-.76-16.1,2.06,1.08,8.13,4.33,8.66,4.54,1.27,3.94c-7.76-.63-3.06.48,2.21,8.59S83.91,39.91,80,38.44s-2.12.07,4,7.82S95.75,63.83,98.16,67.84s1.07,1.88-2.73,2.25-1.77-.21,1.71,5.41,8.3,10.44,8.3,15.58,6.59,13.39,2.79,9.81-4.77-6.75-6.48-9.27-1,.86-1,6.75.65,9.1,2.73,13.23.65,2.73-1.82.26-1,.51-1,11.84-.16,15.16,2.46,17.83.27,5.09,3,8.36,1.77,3-.48,1.82-1.93.86-.59,5.14.35,2.65-2.42-.62c-4-4.75-7.75-9-10.81-9.72s-13-9.53-15.8-19.65.65-16.17-3.69-29.43S60.43,70.2,60.43,61.6Z"
                transform="translate(0 0)" fill="#212121" />
        </g>
    </g>
    <g id="frame">
        <rect width="300" height="300" fill="none" />
    </g>
</svg>