<svg xmlns="http://www.w3.org/2000/svg" viewBox="0 0 30 30"><path d="M17.64,14.86c0,.18.44.38.95.38s.77-.17,1-.8.36-1.18-.21-1.18a1.24,1.24,0,0,0-1.17.88C18.06,14.57,17.64,14.67,17.64,14.86Z" transform="translate(0)" fill="#212121"/><path d="M15,22.77c.58,0,1.14-.16,1.36.45s.33.74-.11,1-.61.34-.81.34-.25-.25-.44-.25Z" transform="translate(0)" fill="#212121"/><path d="M16.69,22.82c.11-.11.79.12.91.25a7.07,7.07,0,0,1,.29,2.1,2.32,2.32,0,0,1-.48,1.63c-.37.51-.22-.09-.17-1.33A11,11,0,0,0,16.69,22.82Z" transform="translate(0)" fill="#212121"/><path d="M15,27.55a1.38,1.38,0,0,0,.79.41,1.35,1.35,0,0,0,.61-.26s0,.26.15.26.43-.44.43-.44v.69a3.4,3.4,0,0,0,1.38-1.84,4,4,0,0,1,.77-1.71,1.4,1.4,0,0,0,.05.43,1.5,1.5,0,0,0,.17.31s.13-.26.26-.46a2.41,2.41,0,0,1,.35-.38.8.8,0,0,0,.16.15.55.55,0,0,0,.25.07,11.48,11.48,0,0,1,.17-1.8c.13-.53.39-.59.47-.59s.35.48.48.48a4.3,4.3,0,0,0,0-2.16,2.68,2.68,0,0,0-.38-.93,1.5,1.5,0,0,1-.27,1.08c-.37.36,0,1.24,0,1.24s-.25-.18-.37-.29a2.39,2.39,0,0,1-.24-.31,1.23,1.23,0,0,1,0,.31.87.87,0,0,1-.13.24.93.93,0,0,0,0-.22.3.3,0,0,0-.09-.18,1.77,1.77,0,0,0-.33.62,5.35,5.35,0,0,0-.08.62.86.86,0,0,1-.2-.25,1.57,1.57,0,0,1-.09-.28,3.44,3.44,0,0,0-.45.92c-.14.48-.25,1.09-.25,1.09a11.49,11.49,0,0,1,.18-1.83A2.84,2.84,0,0,1,19.87,21c.34-.22.05-.48.38-1.16s.56-.76.56-1.46a5.26,5.26,0,0,0-.64-1.95,1.84,1.84,0,0,1,.12-1.15,1.48,1.48,0,0,0,.1,1,3.2,3.2,0,0,0,.81.83s-.33-.09-.46-.14a.92.92,0,0,1-.25-.19,11.57,11.57,0,0,1,1.34,1.69,6.42,6.42,0,0,1,.23,1.08,4.34,4.34,0,0,0,.23.53l-.35-.32a4.25,4.25,0,0,0,.25,1.48,4.24,4.24,0,0,1,.28,1.3l-.27-.25a5.22,5.22,0,0,1,.46,1.89A6,6,0,0,1,22,26.24v-.61a2.34,2.34,0,0,0-.68.9c-.19.54-.42,1.22-.42,1.22l-.21-.5a3.8,3.8,0,0,0-1.12.33,2.32,2.32,0,0,0-1,.8L18.3,28a2.6,2.6,0,0,0-.63.5l-.65.76-.24-.6a3.51,3.51,0,0,0-.5.57c-.2.29-.43.66-.43.66l-.11-.5S15,29.64,15,30Z" transform="translate(0)" fill="#212121"/><path d="M24.27,0a11.74,11.74,0,0,0-2.65.29,3.48,3.48,0,0,0-2.76,1.65,9.58,9.58,0,0,0-1.23,2l-.45-.19-.59,1.58-.17-.12-.25.59L16,5.68l-.33.42-.12-.57L15,6.08V18.87a1.11,1.11,0,0,1,.7.29c.23.21.57.64.41,1s-.49.13-.65.29a.5.5,0,0,0,0,.68c.21.21.37.22.61,0s.19-.73.3-1,.34.05.34.69-.35.8-.86,1.12,0,.45.7.45,1.2.4,1.48.4.5-.4.39-.87-.17-.7.08-.45-.15-.71,0-.53.19.08,0-.31-.17-.93-.32-1.55-.85-.7-1-1.1A13.67,13.67,0,0,1,17,15.13c0-.41.63-.61.78-1.23a1.42,1.42,0,0,1,1.32-1c.69-.11.87-.3.87-.8s0-1.37-.37-1.37A1.62,1.62,0,0,1,18.4,9.9c-.33-.49-.41-.77-.41-.17s-.3-.05-.65-.55-.18-.42.24-.14.13-.18-.14-.74-1.18-1-.85-.89.63.43.44,0-.16-.44,0-.3a3.94,3.94,0,0,1,.95,1c.39.56.25,1,.53,1.31s.47.26.91-.08.16,0,.05.37.22.46.51.86a2.82,2.82,0,0,1,.37,1.4c0,.33-.33.68-.33,1.32a3.3,3.3,0,0,1-.58,1.91,1.78,1.78,0,0,1-1.81.15c-.47-.24-.44-.33-.44.22s.08,2.21.46,2.55S19,18.85,19,19.84s0,1.25.06.82.34-.6.4-1.1.49-.84.49-1.26.21-.43.21-.55-.4-.46-.4-.91.22-.38.22-.49-.17-.19-.09-.54-.08-.91.25-.91.1-.16.1-.37.48-2,.48-2.68a9.28,9.28,0,0,0-.53-1.95c0-.13.35-.17.35-.26s-.31-.23-.31-.38.43-.44.43-.56-.18-.16-.18-.23.25-.16.25-.25-.19-.12-.19-.22,1.18-.87,1.89-1.65a9.74,9.74,0,0,0,1.49-2.79c0-.18-.18-.31-.18-.51s.19-.51.66-1.26.51-.78.51-1.28S24.9,0,24.27,0Zm-1,2.62a3.63,3.63,0,0,0-.36.81c-.13.34-.27.39-.13.52s.31.12.08.3-.61.37-.61.68,0,.5-.17.5-.24,0-.44.44a1.29,1.29,0,0,1-.91.9c-.48.12-.49,0-.49.33s-.76,0-.76-.22.07-.26.43-.6.42-.4.2-.4-.36-.12.08-.52,1.1-.81-.23-.3-.12-.17.27-.38.32-.25.2-.36-.24-.13-.11-.26.2-.14-.36-.47-.26-.28.53-.28.81,0,.64-.13-.28-.2-.14-.3.09-.12-.3-.26-.41-.19-.22-.38.37-.16.21-.32.22-.33.68-.53.49-.36.74-.11a1.49,1.49,0,0,1,.34,1.19c0,.63,0,.55.43.26S23.42,2.38,23.24,2.62Z" transform="translate(0)" fill="#212121"/><path d="M12.36,14.86c0,.18-.44.38-.95.38s-.77-.17-1-.8-.36-1.18.21-1.18a1.24,1.24,0,0,1,1.17.88C11.94,14.57,12.36,14.67,12.36,14.86Z" transform="translate(0)" fill="#212121"/><path d="M15,22.77c-.58,0-1.14-.16-1.36.45s-.33.74.11,1,.61.34.81.34.25-.25.44-.25Z" transform="translate(0)" fill="#212121"/><path d="M13.31,22.82c-.11-.11-.79.12-.91.25a7.07,7.07,0,0,0-.29,2.1,2.32,2.32,0,0,0,.48,1.63c.37.51.22-.09.17-1.33A11,11,0,0,1,13.31,22.82Z" transform="translate(0)" fill="#212121"/><path d="M15,27.55a1.38,1.38,0,0,1-.79.41,1.35,1.35,0,0,1-.61-.26s0,.26-.15.26-.43-.44-.43-.44v.69a3.4,3.4,0,0,1-1.38-1.84,4,4,0,0,0-.77-1.71,1.4,1.4,0,0,1,0,.43,1.5,1.5,0,0,1-.17.31s-.13-.26-.26-.46a2.41,2.41,0,0,0-.35-.38.8.8,0,0,1-.16.15.55.55,0,0,1-.25.07A11.48,11.48,0,0,0,9.46,23c-.13-.53-.39-.59-.47-.59s-.35.48-.48.48a4.3,4.3,0,0,1,.05-2.16,2.68,2.68,0,0,1,.38-.93,1.5,1.5,0,0,0,.27,1.08c.37.36,0,1.24,0,1.24s.25-.18.37-.29a2.39,2.39,0,0,0,.24-.31,1.23,1.23,0,0,0,0,.31.87.87,0,0,0,.13.24.93.93,0,0,1,0-.22.3.3,0,0,1,.09-.18,1.77,1.77,0,0,1,.33.62,5.35,5.35,0,0,1,.08.62.86.86,0,0,0,.2-.25,1.57,1.57,0,0,0,.09-.28,3.44,3.44,0,0,1,.45.92c.14.48.25,1.09.25,1.09a11.49,11.49,0,0,0-.18-1.83A2.84,2.84,0,0,0,10.13,21c-.34-.22-.05-.48-.38-1.16s-.56-.76-.56-1.46a5.26,5.26,0,0,1,.64-1.95,1.84,1.84,0,0,0-.12-1.15,1.48,1.48,0,0,1-.1,1,3.2,3.2,0,0,1-.81.83s.33-.09.46-.14a.92.92,0,0,0,.25-.19,11.57,11.57,0,0,0-1.34,1.69,6.42,6.42,0,0,0-.23,1.08,4.34,4.34,0,0,1-.23.53l.35-.32a4.25,4.25,0,0,1-.25,1.48,4.24,4.24,0,0,0-.28,1.3l.27-.25a5.22,5.22,0,0,0-.46,1.89A6,6,0,0,0,8,26.24v-.61a2.34,2.34,0,0,1,.68.9c.19.54.42,1.22.42,1.22l.21-.5a3.8,3.8,0,0,1,1.12.33,2.32,2.32,0,0,1,1,.8l.3-.37a2.6,2.6,0,0,1,.63.5l.65.76.24-.6a3.51,3.51,0,0,1,.5.57c.2.29.43.66.43.66l.11-.5s.74.24.74.57Z" transform="translate(0)" fill="#212121"/><path d="M5.14.51c0,.5,0,.54.51,1.28s.66,1.06.66,1.26-.18.33-.18.51A9.74,9.74,0,0,0,7.62,6.35C8.33,7.13,9.51,7.91,9.51,8s-.19.12-.19.22.25.18.25.25-.18.1-.18.23.43.41.43.56-.31.3-.31.38.35.13.35.26a9.28,9.28,0,0,0-.53,1.95c0,.66.48,2.47.48,2.68s-.23.37.1.37.18.56.25.91-.09.42-.09.54.22,0,.22.49-.4.8-.4.91.21.14.21.55.42.75.49,1.26.33.68.4,1.1.06.17.06-.82.91-1.4,1.29-1.75.46-2,.46-2.55,0-.46-.44-.22a1.78,1.78,0,0,1-1.81-.15A3.3,3.3,0,0,1,10,13.26c0-.64-.33-1-.33-1.32a2.82,2.82,0,0,1,.37-1.4c.29-.4.62-.49.51-.86s-.39-.71.05-.37.64.39.91.08.14-.75.53-1.31a3.94,3.94,0,0,1,1-1c.17-.14.2-.12,0,.3s.11.07.44,0-.59.34-.85.89-.57,1-.14.74.6-.37.24.14S12,10.32,12,9.73s-.08-.32-.41.17a1.62,1.62,0,0,1-1.18.79c-.36,0-.37.87-.37,1.37s.18.69.87.8a1.42,1.42,0,0,1,1.32,1c.15.62.75.82.78,1.23A13.67,13.67,0,0,1,12.77,18c-.18.4-.89.49-1,1.1s-.17,1.15-.32,1.55-.13.48,0,.31-.21.78,0,.53.18,0,.08.45.11.87.39.87.83-.4,1.48-.4,1.21-.12.7-.45-.86-.47-.86-1.12.24-1,.34-.69.06.78.3,1,.4.23.61,0a.5.5,0,0,0,0-.68c-.16-.16-.5.09-.65-.29s.18-.82.41-1a1.11,1.11,0,0,1,.7-.29V6.08l-.52-.55-.12.57L14,5.68l-.2.14-.25-.59-.17.12-.59-1.58L12.37,4a9.58,9.58,0,0,0-1.23-2A3.48,3.48,0,0,0,8.38.29,11.74,11.74,0,0,0,5.73,0C5.1,0,5.14,0,5.14.51Zm2,2.22c.43.29.43.37.43-.26a1.49,1.49,0,0,1,.34-1.19c.25-.25.29-.09.74.11s.85.37.68.53,0,.13.21.32.17.23-.22.38-.45.16-.3.26,0,.18-.14.3-.15.13.64.13,1.09-.05.53.28-.5.33-.36.47,0,.14-.11.26-.18.15.2.36,1.6.9.27.38-.67-.11-.23.3.31.52.08.52-.16.06.2.4.43.42.43.6-.76.69-.76.22,0-.21-.49-.33a1.29,1.29,0,0,1-.91-.9c-.2-.47-.31-.44-.44-.44s-.17-.18-.17-.5-.38-.5-.61-.68-.06-.18.08-.3,0-.18-.13-.52a3.63,3.63,0,0,0-.36-.81C6.58,2.38,6.73,2.44,7.16,2.73Z" transform="translate(0)" fill="#212121"/><rect width="30" height="30" fill="none"/></svg>