<!-- Copyright (c) 2023 Jan Stehno -->
<svg xmlns="http://www.w3.org/2000/svg" viewBox="0 0 300 300">
    <title>siberianmuskdeer</title>
    <g id="siberianmuskdeer">
        <g id="right">
            <path
                d="M176.41,148.59c0,1.79,4.43,3.79,9.52,3.79s7.67-1.65,9.56-8,3.64-11.76-2.09-11.76-10.66,4.39-11.71,8.77S176.41,146.7,176.41,148.59Z"
                transform="translate(0)" fill="#212121" />
            <path
                d="M150,227.7c5.79,0,11.36-1.6,13.64,4.49s3.21,7.44-1.12,9.6-6.09,3.44-8.07,3.44-2.54-2.5-4.45-2.5Z"
                transform="translate(0)" fill="#212121" />
            <path
                d="M166.94,228.17c1.1-1.1,7.85,1.27,9.07,2.49s2.84,13.6,2.84,21-1,11.29-4.71,16.37-2.22-.91-1.72-13.31C172.94,242,166,229.1,166.94,228.17Z"
                transform="translate(0)" fill="#212121" />
            <path
                d="M150,275.45c2,2,5.33,4.19,7.92,4.19s6.08-2.59,6.08-2.59.3,2.59,1.55,2.59,4.28-4.49,4.28-4.49v6.93s11.64-7.55,13.8-18.39a39.86,39.86,0,0,1,7.63-17.11,15.79,15.79,0,0,0,.52,4.36,12.2,12.2,0,0,0,1.7,3,51.65,51.65,0,0,1,2.64-4.57,19.51,19.51,0,0,1,3.47-3.74,9.09,9.09,0,0,0,1.57,1.5,7,7,0,0,0,2.58.63s.27-12.78,1.62-18,3.94-5.88,4.73-5.88,3.49,4.83,4.84,4.83,1.64-14.15-.5-21.57-3.79-9.37-3.79-9.37.82,7.25-2.79,10.86S207.7,221,207.7,221s-2.54-1.87-3.66-3a24,24,0,0,1-2.42-3,16.07,16.07,0,0,1-.37,3,8.54,8.54,0,0,1-1.4,2.46,11.94,11.94,0,0,0,0-2.27,3.57,3.57,0,0,0-.89-1.79,16.91,16.91,0,0,0-3.27,6.18,59.63,59.63,0,0,0-.87,6.25,9.16,9.16,0,0,1-2-2.46,25,25,0,0,1-.82-2.84,34.69,34.69,0,0,0-4.56,9.21c-1.34,4.75-2.46,10.88-2.46,10.88s.18-11.17,1.83-18.35,8.48-13.25,11.92-15.4.57-4.71,3.81-11.58,5.63-7.53,5.63-14.55-4.53-15.35-6.43-19.53,1.2-11.47,1.2-11.47-1.35,5.59,1,9.72,8.12,8.22,8.12,8.22-3.29-.87-4.56-1.37a9.1,9.1,0,0,1-2.57-1.84s11.51,12.36,13.42,16.84,1.53,8.48,2.28,10.76a45.62,45.62,0,0,0,2.31,5.31l-3.51-3.18a41.92,41.92,0,0,0,2.54,14.79c2.94,8.57,2.84,13.06,2.84,13.06L222,222.58s4.74,10.07,4.64,18.94-6.28,20.93-6.28,20.93v-6.16a23.09,23.09,0,0,0-6.73,9c-1.94,5.33-4.23,12.21-4.23,12.21l-2.1-5s-4.33.25-11.21,3.24a24.22,24.22,0,0,0-10.11,8l-3-3.63a25,25,0,0,0-6.28,5c-2.91,3.24-6.52,7.6-6.52,7.6l-2.32-6a36.17,36.17,0,0,0-5.08,5.69c-2,2.93-4.24,6.57-4.24,6.57L157.37,294s-7.37,2.34-7.37,5.68Z"
                transform="translate(0)" fill="#212121" />
            <path
                d="M242.68,0c-6.28,0-11,0-26.46,2.91s-19.13,5.46-27.65,16.52a98,98,0,0,0-12.26,20.18l-4.53-1.94L165.9,53.54l-1.67-1.22-2.5,5.85-2-1.33L156.39,61l-1.21-5.72L150,60.78V188.65a11.43,11.43,0,0,1,7,2.95c2.32,2.06,5.68,6.43,4.15,10.28s-4.9,1.31-6.51,2.92a5,5,0,0,0,.12,6.84c2.05,2.05,3.7,2.13,6.05-.23s1.87-7.32,2.95-10.13,3.4.53,3.4,6.95-3.43,8-8.55,11.22.44,4.41,7,4.41,12.07,4,14.84,4,4.95-3.95,3.91-8.66-1.68-7,.74-4.52-1.42-7.06.34-5.31,1.87.83.41-3.14-1.72-9.28-3.16-15.41-8.57-7.05-10.29-11.08-2.82-24.29-2.52-28.43,6.28-6.18,7.73-12.31,6.32-9.32,13.25-10.41,8.72-3,8.72-8-.16-13.67-3.75-13.67-8.56-3.06-11.81-8-4-7.62-4.11-1.68-2.91-.45-6.47-5.5-1.83-4.14,2.43-1.34,1.31-1.83-1.38-7.4-11.85-9.75-8.56-8.93,6.28,4.33,4.41.11-1.57-4.41.15-3a40.73,40.73,0,0,1,9.49,9.64c3.89,5.61,2.51,9.91,5.24,13s4.71,2.58,9.12-.79,1.6-.11.52,3.66,2.2,4.64,5,8.64,3.7,10.76,3.7,14-3.28,6.77-3.28,13.19-2.14,15-5.8,19.14-13.33,3.93-18.06,1.49-4.44-3.29-4.44,2.17.85,22.1,4.64,25.54,12.85,7.57,12.85,17.49-.11,12.43.6,8.21,3.4-6,4.08-11,4.85-8.42,4.85-12.53,2.1-4.38,2.1-5.54-4-4.63-4-9.15,2.17-3.74,2.17-4.9-1.65-1.83-.94-5.34-.71-9.12,2.58-9.12.93-1.61.93-3.7,4.79-20.18,4.79-26.83-5.27-18.2-5.27-19.47,3.47-1.72,3.47-2.58-3.06-2.36-3.06-3.85,4.29-4.37,4.29-5.61-1.79-1.53-1.79-2.24,2.54-1.61,2.54-2.54-2-1.16-2-2.13,11.89-8.75,18.91-16.59,14.95-26.09,14.95-27.88-1.87-3.07-1.87-5.07,2-5.1,6.65-12.57,5.09-7.85,5.09-12.86S249,0,242.68,0ZM232.42,26.16c-1.75,2.34-2.25,4.73-3.59,8.12s-2.74,3.94-1.35,5.18,3.09,1.25.8,3-6.13,3.69-6.13,6.83-.3,4.93-1.64,4.93-2.39-.3-4.39,4.49-4.38,7.82-9.17,9-4.83-.55-4.83,3.24c0,4.73-7.57-.25-7.57-2.12s.62-2.59,4.23-6,4.25-4,2-4-3.55-1.19.86-5.27,11-8.07-2.31-2.91-1.17-1.72,2.68-3.85,3.24-2.45,2.06-3.63-2.47-1.23-1.12-2.57,2-1.39-3.62-4.71-2.56-2.79,5.31-2.79,8.07-.05,6.43-1.25-2.89-2-1.39-3,.84-1.19-3-2.64-4.12-1.82-2.2-3.74,3.67-1.62,2.05-3.24,2.29-3.23,6.82-5.28,5-3.61,7.43-1.14,3.44,5.68,3.44,12-.05,5.48,4.23,2.59S234.16,23.82,232.42,26.16Z"
                transform="translate(0)" fill="#212121" />
        </g>
        <g id="left">
            <path
                d="M123.59,148.59c0,1.79-4.43,3.79-9.52,3.79s-7.67-1.65-9.56-8-3.64-11.76,2.09-11.76,10.66,4.39,11.71,8.77S123.59,146.7,123.59,148.59Z"
                transform="translate(0)" fill="#212121" />
            <path
                d="M150,227.7c-5.79,0-11.36-1.6-13.64,4.49s-3.21,7.44,1.12,9.6,6.09,3.44,8.07,3.44,2.54-2.5,4.45-2.5Z"
                transform="translate(0)" fill="#212121" />
            <path
                d="M133.06,228.17c-1.1-1.1-7.85,1.27-9.07,2.49s-2.84,13.6-2.84,21,1,11.29,4.71,16.37,2.22-.91,1.72-13.31C127.06,242,134,229.1,133.06,228.17Z"
                transform="translate(0)" fill="#212121" />
            <path
                d="M150,275.45c-2,2-5.33,4.19-7.92,4.19s-6.08-2.59-6.08-2.59-.3,2.59-1.55,2.59-4.28-4.49-4.28-4.49v6.93s-11.64-7.55-13.8-18.39a39.86,39.86,0,0,0-7.63-17.11,15.79,15.79,0,0,1-.52,4.36,12.2,12.2,0,0,1-1.7,3,51.65,51.65,0,0,0-2.64-4.57,19.51,19.51,0,0,0-3.47-3.74,9.09,9.09,0,0,1-1.57,1.5,7,7,0,0,1-2.58.63s-.27-12.78-1.62-18-3.94-5.88-4.73-5.88-3.49,4.83-4.84,4.83-1.64-14.15.5-21.57,3.79-9.37,3.79-9.37-.82,7.25,2.79,10.86S92.3,221,92.3,221s2.54-1.87,3.66-3a24,24,0,0,0,2.42-3,16.07,16.07,0,0,0,.37,3,8.54,8.54,0,0,0,1.4,2.46,11.94,11.94,0,0,1,0-2.27,3.57,3.57,0,0,1,.89-1.79,16.91,16.91,0,0,1,3.27,6.18,59.63,59.63,0,0,1,.87,6.25,9.16,9.16,0,0,0,2-2.46,25,25,0,0,0,.82-2.84,34.69,34.69,0,0,1,4.56,9.21c1.34,4.75,2.46,10.88,2.46,10.88s-.18-11.17-1.83-18.35-8.48-13.25-11.92-15.4-.57-4.71-3.81-11.58-5.63-7.53-5.63-14.55,4.53-15.35,6.43-19.53-1.2-11.47-1.2-11.47,1.35,5.59-1,9.72S88,170.76,88,170.76s3.29-.87,4.56-1.37a9.1,9.1,0,0,0,2.57-1.84s-11.51,12.36-13.42,16.84-1.53,8.48-2.28,10.76a45.62,45.62,0,0,1-2.31,5.31l3.51-3.18a41.92,41.92,0,0,1-2.54,14.79c-2.94,8.57-2.84,13.06-2.84,13.06L78,222.58s-4.74,10.07-4.64,18.94,6.28,20.93,6.28,20.93v-6.16a23.09,23.09,0,0,1,6.73,9c1.94,5.33,4.23,12.21,4.23,12.21l2.1-5s4.33.25,11.21,3.24a24.22,24.22,0,0,1,10.11,8l3-3.63a25,25,0,0,1,6.28,5c2.91,3.24,6.52,7.6,6.52,7.6l2.32-6a36.17,36.17,0,0,1,5.08,5.69c2,2.93,4.24,6.57,4.24,6.57l1.15-4.93s7.37,2.34,7.37,5.68Z"
                transform="translate(0)" fill="#212121" />
            <path
                d="M51.41,5.08c0,5,.38,5.38,5.09,12.86s6.65,10.57,6.65,12.57-1.87,3.27-1.87,5.07,7.92,20,15,27.88S95.14,79.08,95.14,80.05s-2,1.2-2,2.13S95.7,84,95.7,84.72s-1.79,1-1.79,2.24,4.29,4.11,4.29,5.61-3.06,3-3.06,3.85,3.47,1.31,3.47,2.58-5.27,12.82-5.27,19.47,4.79,24.74,4.79,26.83-2.36,3.7.93,3.7,1.87,5.61,2.58,9.12-.94,4.18-.94,5.34,2.17.38,2.17,4.9-4,8-4,9.15,2.1,1.43,2.1,5.54,4.18,7.46,4.85,12.53,3.37,6.82,4.08,11,.6,1.7.6-8.21,9.06-14,12.85-17.49S128,160.85,128,155.39s.29-4.61-4.44-2.17-14.4,2.62-18.06-1.49-5.8-12.71-5.8-19.14-3.28-9.94-3.28-13.19.86-10,3.7-14,6.12-4.86,5-8.64-3.89-7,.52-3.66,6.39,3.93,9.12.79,1.35-7.44,5.24-13a40.73,40.73,0,0,1,9.49-9.64c1.72-1.38,2-1.19.15,3s1.12.71,4.41-.11-5.87,3.36-8.56,8.93-5.64,10.2-1.38,7.4,6-3.7,2.43,1.34-6.4,11.44-6.47,5.5S119.28,94.06,116,99s-8.22,8-11.81,8-3.75,8.63-3.75,13.67,1.79,6.92,8.72,8S121,132.89,122.44,139s7.43,8.17,7.73,12.31-.8,24.39-2.52,28.43-8.84,5-10.29,11.08-1.7,11.45-3.16,15.41-1.35,4.9.41,3.14-2.09,7.81.34,5.31,1.79-.19.74,4.52,1.15,8.66,3.91,8.66,8.32-4,14.84-4,12.08-1.2,7-4.41-8.55-4.79-8.55-11.22,2.31-9.75,3.4-6.95.59,7.78,2.95,10.13,4,2.28,6.05.23a5,5,0,0,0,.12-6.84c-1.61-1.61-5,.93-6.51-2.92s1.83-8.22,4.15-10.28a11.43,11.43,0,0,1,7-2.95V60.78l-5.18-5.47L143.61,61l-3.33-4.19-2,1.33-2.5-5.85-1.67,1.22-5.88-15.87-4.53,1.94a98,98,0,0,0-12.26-20.18C102.91,8.37,99.25,5.83,83.78,2.91S63.6,0,57.32,0,51.41.07,51.41,5.08ZM71.62,27.31c4.28,2.89,4.23,3.69,4.23-2.59s1-9.5,3.44-12,2.89-.9,7.43,1.14,8.44,3.66,6.82,5.28.13,1.32,2,3.24,1.69,2.3-2.2,3.74-4.53,1.64-3,2.64.25,1.84-1.39,3-1.45,1.25,6.43,1.25,10.92-.54,5.31,2.79-5,3.36-3.62,4.71S97.14,42,96,43.16s-1.79,1.5,2.06,3.63,16,9,2.68,3.85S94,49.48,98.39,53.55s3.14,5.27.86,5.27-1.65.6,2,4,4.23,4.14,4.23,6S97.88,75.69,97.88,71c0-3.79,0-2.1-4.83-3.24s-7.18-4.19-9.17-9-3-4.49-4.39-4.49-1.64-1.79-1.64-4.93-3.84-5-6.13-6.83-.6-1.79.8-3,0-1.79-1.35-5.18-1.84-5.78-3.59-8.12S67.33,24.42,71.62,27.31Z"
                transform="translate(0)" fill="#212121" />
        </g>
    </g>
    <g id="frame">
        <rect width="300" height="300" fill="none" />
    </g>
</svg>