<!-- Copyright (c) 2023 Jan Stehno -->
<svg xmlns="http://www.w3.org/2000/svg" viewBox="0 0 300 300">
    <title>sidestripedjackal</title>
    <g id="sidestripedjackal">
        <g id="right">
            <path d="M150,291.93c2.89,0,7,2.61,11.81,3.29s-1,4.78-5.23,4.78-3.69-.54-6.58-.54Z"
                transform="translate(0 0)" fill="#212121" />
            <path
                d="M197.79,289.74s.78-8.24,12.08-14.13,14.91-15.21,14.91-15.21a14,14,0,0,1,0,6.25c-.78,3.49-3.73,7.16-3.73,7.16a34.57,34.57,0,0,0,10.28-11.91A118.66,118.66,0,0,0,237,250.18a22.09,22.09,0,0,1,.72,6.19c0,4-4.63,11.91-4.63,11.91a28.6,28.6,0,0,0,11.3-9.92c4.69-7.1,7.88-12.87,7.88-12.87a23.43,23.43,0,0,0,0,7.28c.6,4.45,4.69,8.83,4.69,8.83s-2.35-6,0-9.79a17.11,17.11,0,0,0,2.28-8.18,9,9,0,0,0,3.67,4.39,9.39,9.39,0,0,0,5.83.48,11.12,11.12,0,0,1-6.49-7.33,33,33,0,0,1-.84-10.76,22.68,22.68,0,0,1-10.34,8.83,38.85,38.85,0,0,1-12.45,3.43,8.1,8.1,0,0,0,2.53-4.21,20.1,20.1,0,0,0,.36-5s.3,3.73-13.16,8.72-21.7,18.75-26.09,26.57-13.89,14.54-13.89,14.54a41.9,41.9,0,0,0,5.71-1.26,21.62,21.62,0,0,0,4.87-2.88,22.09,22.09,0,0,0-1.38,4.44A21,21,0,0,0,197.79,289.74Z"
                transform="translate(0 0)" fill="#212121" />
            <path
                d="M195.62,200.74c5.87,0,9.83-6.25,9.83-9.17s-.93-4.32-2.25-4.32-18.06,7-18.06,8.7S189.76,200.74,195.62,200.74Z"
                transform="translate(0 0)" fill="#212121" />
            <path
                d="M287.41,205.64a28,28,0,0,1-4.1-4.78l5.85.87s-8.84-6-12.87-14-2.85-14.55-10.43-30.15S245,131.49,245,130.08s1.53-1.89,5.68-6,9.64-12.35,9.64-27.86-7.12-37.51-9.91-47.7-3.7-24-7.94-33.27S237.73-3.55,229.35,1.32,199.5,25.4,195,38.92s-7.42,18.31-12.17,22.81-8.47,12.4-8.47,12.4a28.15,28.15,0,0,1,.09-4.24A38.41,38.41,0,0,1,176.33,64a33.53,33.53,0,0,0-6,10.15c-1.71,5.32-5.23,7.21-5.23,7.21V78.23s-6.32,7.55-15.1,7.55v168c6.67,0,12.94,1.81,16.5,5.37s-.62,8.67,1.74,11,1.94,8-.06,10-3.45,2.4-3.45,0-.54-6.16-4.66-4.84-6.49,1.83-3,2.52,3.85,2.08,3.85,3.85-.6,3.61-2.73,3.61S155,284,150,284v4.08c2.86,0,9.5,2.62,14.61,3.85s6.37,1.05,11.3-1.59,8.17-2,8.17-4.87-.63-37.63-.63-51.79S174,208.17,174,208.17s6.81,5.36,9.56,12.3,1.8,10.37,3.6,10.37,5.37,2.48,25.66-12.94,12.44-25.15,12.44-25.15a14.61,14.61,0,0,1,3.61,2.64c.81,1.14,1.65,4.78,1.65,4.78a20.11,20.11,0,0,0-1-10.34c-2.05-4.93-4.51-7.27-7.94-7.27s-3.72.36-4.27-3.37-6.61-13.16-6.61-15.27,1.57-3.36,6.37-7.33,9.32-16.53,9.32-16.53-1,9.2-4.81,14.31-5.35,9.43-5.35,12.2,2.44,10.79,7,10.79,8.29,9.5,8.29,9.5a15.4,15.4,0,0,0-1-6.74c-1.35-3.06-5-6-5-6s5.71,1.81,9.2,5.35,6.68,10.55,6.68,15.74-3.65,6.17-3.65,6.17l-.81-4.6s0,6.45-4.24,14.61-11.54,15.37-11.54,15.37a24.38,24.38,0,0,0,1.4-5.45,21.52,21.52,0,0,0-.41-4.42,17.23,17.23,0,0,1-7,9.51c-5.68,3.75-8.9,11.38-8.9,11.38a21.55,21.55,0,0,1,2.17-7.57,49.75,49.75,0,0,1,6.13-8.36s-4.48,2.34-9.14,8.54-9.58,14.3-9.58,14.3l2.79-8.77a38.46,38.46,0,0,0-7.93,15.57c-2.11,9.13-1.09,27.29-1.09,27.29s6.38-31.5,25.07-41.36,26-21,26-21,.78,3.79-3.55,9.86-4.51,9.44-4.51,9.44a12.82,12.82,0,0,1,4.75-5.35c3.19-1.81,11.12-.06,17.31-5.41a15.78,15.78,0,0,0,5.68-12.24,40.17,40.17,0,0,1-2.61,3.43,11.93,11.93,0,0,1-3,2.07s3.61-10.82,1.54-32.19S248,159.54,248,159.54l-.66,5a186.75,186.75,0,0,0-13.1-21,31.83,31.83,0,0,1-6.05-21.34s-2.16,3.2-2.43,4.82-.36,5.05-.36,5.05l-2.21-6.67L222,129.67s-3-4.46-6.31-8.79-14-11.76-14-11.76a30.26,30.26,0,0,1,3.83,5.54,15.37,15.37,0,0,1,1.08,4.92,78.85,78.85,0,0,0-8.21-9.34c-4.32-4-11.63-7.16-11.63-7.16l.41,6.35a42.26,42.26,0,0,0-8.75-10.5c-6.13-5.5-16.36-7.49-16.36-7.49a138.41,138.41,0,0,1,17.41.59c6.86.9,25.67,6.37,41.6,15.75s17.18,17.66,17.18,17.66a27.14,27.14,0,0,0,3.74-13.3c0-7.49-3.61-14.65-3.61-14.65a13,13,0,0,1,3.7,3.38c1.22,1.89,3.2,6.08,3.2,6.08s-2-10.35-5.42-16.33S231,85.81,231,85.81a34.42,34.42,0,0,1,.31-4.33c.32-2.12,3.34-5.77,3.34-5.77l-5,1.35A15.79,15.79,0,0,1,232,72.64a15,15,0,0,1,4.87-3.29,8.81,8.81,0,0,0-3.06-.18,23.33,23.33,0,0,0-3.39.86,19.23,19.23,0,0,0,3.16-3.61,38.14,38.14,0,0,0,1.58-3.56s-3.92,2.48-7.08,2.71a19.4,19.4,0,0,1-5.14-.23,12.39,12.39,0,0,1,1.71-3.88c1.31-1.93,4.2-2.52,4.2-2.52a8,8,0,0,0-3.3-1.08,19.85,19.85,0,0,0-3.86.45,14.88,14.88,0,0,0,3.19-3.83A18.57,18.57,0,0,0,226.37,50a16.84,16.84,0,0,1-3,2.7,20.46,20.46,0,0,1-3.52,1.67,38,38,0,0,0,2.66-5.77,23.5,23.5,0,0,0,.68-5.91s-4,6.63-7.71,9.92-12.71,6.54-12.71,6.54S210.82,47.4,220.1,40s18.26-19,18.26-19a43.69,43.69,0,0,1-6.08,11.18,23.15,23.15,0,0,0-4.65,10.51,31.57,31.57,0,0,1,2.84-5.05c1.49-2,2.48-1.58,2.48-1.58s1.72,6,1.54,10a10.61,10.61,0,0,1-3.16,6.76,13.43,13.43,0,0,0,4-3.33A12.54,12.54,0,0,0,237,45.14s3,1.36,3.6,3.75.41,5,1.13,11.54,3.92,8.11,3.92,8.11a14,14,0,0,1-1-4.82A9.09,9.09,0,0,1,246,59.21a16.9,16.9,0,0,1,3.2,9.2,33,33,0,0,1-2.12,10.41,12.89,12.89,0,0,1,2.44-2.52,14,14,0,0,1,3.2-.86S251.12,77,251.12,84s-2.21,10-2.21,10,2.71-1.67,3.52-3.34a11.87,11.87,0,0,0,1-3.56s2.48,3.29,2.48,6.63a54.73,54.73,0,0,1-1.67,14c-1.53,6.22-4.28,12.49-8.07,17s-4.67,5.71-4.67,7.94,4.75,7,13,23.5a110.74,110.74,0,0,1,10.34,30.17,30.37,30.37,0,0,0,1.2-8,70.49,70.49,0,0,0-1.32-9.2s4.93,11.6,4.93,19.12-4.27,12.8-3.48,21a23.91,23.91,0,0,1-2.89,14,12.09,12.09,0,0,0,3.34-2.64,32.67,32.67,0,0,0,2.79-4.54l-.72,5.56,5.11-4.78a21.8,21.8,0,0,1-.63,5c-.6,1.89-3.55,5.44-3.55,5.44a25.62,25.62,0,0,0,7.28-7.39,15.58,15.58,0,0,0,2.34-8.12,9.78,9.78,0,0,1,2.67,4.06c1,2.67.2,6.51.2,6.51s3.07-3.81,3.07-7.33a14.74,14.74,0,0,0-1.7-6.51,12.6,12.6,0,0,0,4.27.87c2.4.06,5.53-.18,5.53-.18A26.49,26.49,0,0,1,287.41,205.64Zm-98-36.34c11.13-4.82,22.22,3.43,22.22,9s-1.8,6.43-1.8,6.43a14.55,14.55,0,0,1,7.53,5.47c3.38,4.51,1,11.45,1,11.45s1.17-4.36-1.53-7.68-3.16-3.5-3.16.33-6.4,8.84-6.4,8.84l5-1.71s-2.39,5.36-8.25,5.36a30.4,30.4,0,0,1-8.8-1l3.07,2.75s-3.69.5-5.86-.68a36.08,36.08,0,0,1-4-2.52l1.12,4.82a8.88,8.88,0,0,1-5.27-5,38.76,38.76,0,0,1-2.35-8.43,15,15,0,0,0-2.52,4.19,27.27,27.27,0,0,0-1.67,6.13,68.5,68.5,0,0,1,.9-14.65c1.36-7.17,3.84-10.82,3.84-10.82s-3.88,2.93-6.63,9.47C176,191.08,178.31,174.13,189.45,169.3Zm-22.09-17.71c4.42-10.91,1.21-17.54,1.21-17.54s2.89,4.69,2.89,9.6-.41,12.4-2.8,16-2.29,4.05,1.94,9.42S175,179,175,179s-.81-2-5.59-6.18-8.61-4.24-8.61-5.77S162.94,162.5,167.36,151.59Z"
                transform="translate(0 0)" fill="#212121" />
        </g>
        <g id="left">
            <path d="M150,291.93c-2.89,0-7,2.61-11.81,3.29s1,4.78,5.23,4.78,3.69-.54,6.58-.54Z"
                transform="translate(0 0)" fill="#212121" />
            <path
                d="M102.21,289.74s-.78-8.24-12.08-14.13S75.22,260.4,75.22,260.4a14,14,0,0,0,0,6.25c.78,3.49,3.73,7.16,3.73,7.16A34.57,34.57,0,0,1,68.67,261.9,118.66,118.66,0,0,1,63,250.18a22.09,22.09,0,0,0-.72,6.19c0,4,4.63,11.91,4.63,11.91a28.6,28.6,0,0,1-11.3-9.92c-4.69-7.1-7.88-12.87-7.88-12.87a23.43,23.43,0,0,1,0,7.28c-.6,4.45-4.69,8.83-4.69,8.83s2.35-6,0-9.79a17.11,17.11,0,0,1-2.28-8.18A9,9,0,0,1,37.11,248a9.39,9.39,0,0,1-5.83.48,11.12,11.12,0,0,0,6.49-7.33,33,33,0,0,0,.84-10.76A22.68,22.68,0,0,0,49,239.24a38.85,38.85,0,0,0,12.45,3.43,8.1,8.1,0,0,1-2.53-4.21,20.1,20.1,0,0,1-.36-5s-.3,3.73,13.16,8.72,21.7,18.75,26.09,26.57,13.89,14.54,13.89,14.54a41.9,41.9,0,0,1-5.71-1.26,21.62,21.62,0,0,1-4.87-2.88,22.09,22.09,0,0,1,1.38,4.44A21,21,0,0,1,102.21,289.74Z"
                transform="translate(0 0)" fill="#212121" />
            <path
                d="M104.38,200.74c-5.87,0-9.83-6.25-9.83-9.17s.93-4.32,2.25-4.32,18.06,7,18.06,8.7S110.24,200.74,104.38,200.74Z"
                transform="translate(0 0)" fill="#212121" />
            <path
                d="M6.69,209.31s3.13.24,5.53.18a12.6,12.6,0,0,0,4.27-.87,14.74,14.74,0,0,0-1.7,6.51c0,3.52,3.07,7.33,3.07,7.33s-.77-3.84.2-6.51a9.78,9.78,0,0,1,2.67-4.06A15.58,15.58,0,0,0,23.07,220a25.62,25.62,0,0,0,7.28,7.39s-3-3.55-3.55-5.44a21.8,21.8,0,0,1-.63-5l5.11,4.78-.72-5.56a32.67,32.67,0,0,0,2.79,4.54,12.09,12.09,0,0,0,3.34,2.64,23.91,23.91,0,0,1-2.89-14c.79-8.18-3.48-13.47-3.48-21s4.93-19.12,4.93-19.12a70.49,70.49,0,0,0-1.32,9.2,30.37,30.37,0,0,0,1.2,8,110.74,110.74,0,0,1,10.34-30.17c8.29-16.47,13-21.28,13-23.5s-.89-3.39-4.67-7.94-6.54-10.82-8.07-17a54.73,54.73,0,0,1-1.67-14c0-3.34,2.48-6.63,2.48-6.63a11.87,11.87,0,0,0,1,3.56c.81,1.67,3.52,3.34,3.52,3.34S48.88,91,48.88,84s-1.58-8.57-1.58-8.57a14,14,0,0,1,3.2.86,12.89,12.89,0,0,1,2.44,2.52,33,33,0,0,1-2.12-10.41,16.9,16.9,0,0,1,3.2-9.2,9.09,9.09,0,0,1,1.39,4.51,14,14,0,0,1-1,4.82s3.2-1.62,3.92-8.11.54-9.16,1.13-11.54S63,45.14,63,45.14a12.54,12.54,0,0,0,1.67,4.38,13.43,13.43,0,0,0,4,3.33,10.61,10.61,0,0,1-3.16-6.76c-.18-4.06,1.54-10,1.54-10s1-.4,2.48,1.58a31.57,31.57,0,0,1,2.84,5.05A23.15,23.15,0,0,0,67.72,32.2,43.69,43.69,0,0,1,61.64,21s9,11.59,18.26,19S97.25,59.12,97.25,59.12s-9-3.25-12.71-6.54-7.71-9.92-7.71-9.92a23.5,23.5,0,0,0,.68,5.91,38,38,0,0,0,2.66,5.77,20.46,20.46,0,0,1-3.52-1.67,16.84,16.84,0,0,1-3-2.7,18.57,18.57,0,0,0,1.53,4.51,14.88,14.88,0,0,0,3.19,3.83,19.85,19.85,0,0,0-3.86-.45,8,8,0,0,0-3.3,1.08s2.89.59,4.2,2.52a12.39,12.39,0,0,1,1.71,3.88,19.4,19.4,0,0,1-5.14.23c-3.16-.23-7.08-2.71-7.08-2.71a38.14,38.14,0,0,0,1.58,3.56A19.23,19.23,0,0,0,69.62,70a23.33,23.33,0,0,0-3.39-.86,8.81,8.81,0,0,0-3.06.18A15,15,0,0,1,68,72.64a15.79,15.79,0,0,1,2.34,4.42l-5-1.35s3,3.65,3.34,5.77A34.42,34.42,0,0,1,69,85.81s-5.42-1.17-8.82,4.81S54.74,107,54.74,107s2-4.19,3.2-6.08a13,13,0,0,1,3.7-3.38S58,104.65,58,112.14a27.14,27.14,0,0,0,3.74,13.3S63,117.16,79,107.78,113.69,92.93,120.55,92A138.41,138.41,0,0,1,138,91.44s-10.23,2-16.36,7.49a42.26,42.26,0,0,0-8.75,10.5l.41-6.35s-7.31,3.11-11.63,7.16a78.85,78.85,0,0,0-8.21,9.34,15.37,15.37,0,0,1,1.08-4.92,30.26,30.26,0,0,1,3.83-5.54s-10.68,7.44-14,11.76-6.31,8.79-6.31,8.79l-1.22-4.32L74.62,132s-.09-3.43-.36-5.05-2.43-4.82-2.43-4.82a31.83,31.83,0,0,1-6,21.34,186.75,186.75,0,0,0-13.1,21l-.66-5s-6.34,5.16-8.42,26.53,1.54,32.19,1.54,32.19a11.93,11.93,0,0,1-3-2.07,40.17,40.17,0,0,1-2.61-3.43A15.78,15.78,0,0,0,45.23,225c6.19,5.35,14.12,3.6,17.31,5.41a12.82,12.82,0,0,1,4.75,5.35s-.18-3.37-4.51-9.44-3.55-9.86-3.55-9.86,7.28,11.12,26,21,25.07,41.36,25.07,41.36,1-18.16-1.09-27.29a38.46,38.46,0,0,0-7.93-15.57l2.79,8.77s-4.92-8.11-9.58-14.3-9.14-8.54-9.14-8.54a49.75,49.75,0,0,1,6.13,8.36,21.55,21.55,0,0,1,2.17,7.57s-3.22-7.63-8.9-11.38a17.23,17.23,0,0,1-7-9.51,21.52,21.52,0,0,0-.41,4.42,24.38,24.38,0,0,0,1.4,5.45s-7.35-7.21-11.54-15.37S62.9,196.8,62.9,196.8l-.81,4.6s-3.65-1-3.65-6.17,3.2-12.19,6.68-15.74,9.2-5.35,9.2-5.35-3.61,2.92-5,6a15.4,15.4,0,0,0-1,6.74s3.7-9.5,8.29-9.5,7-8,7-10.79-1.57-7.09-5.35-12.2-4.81-14.31-4.81-14.31,4.51,12.56,9.32,16.53,6.37,5.23,6.37,7.33-6.07,11.54-6.61,15.27-.85,3.37-4.27,3.37-5.89,2.34-7.94,7.27a20.11,20.11,0,0,0-1,10.34s.84-3.64,1.65-4.78a14.61,14.61,0,0,1,3.61-2.64s-7.84,9.73,12.44,25.15,23.85,12.94,25.66,12.94.85-3.42,3.6-10.37,9.56-12.3,9.56-12.3-9.42,11.36-9.42,25.51-.63,49-.63,51.79,3.24,2.22,8.17,4.87,6.19,2.82,11.3,1.59,11.75-3.85,14.61-3.85V284c-5,0-6,1.26-8.18,1.26s-2.73-1.84-2.73-3.61.36-3.15,3.85-3.85,1.11-1.2-3-2.52-4.66,2.4-4.66,4.84-1.46,2-3.45,0-2.42-7.65-.06-10-1.82-7.47,1.74-11,9.83-5.37,16.5-5.37v-168c-8.78,0-15.1-7.55-15.1-7.55v3.16s-3.52-1.89-5.23-7.21a33.53,33.53,0,0,0-6-10.15,38.41,38.41,0,0,1,1.89,5.86,28.15,28.15,0,0,1,.09,4.24s-3.72-7.89-8.47-12.4S109.51,52.45,105,38.92,79,6.19,70.65,1.32s-8.92,4.6-13.16,13.89-5.14,23.08-7.94,33.27-9.91,32.19-9.91,47.7,5.5,23.71,9.64,27.86,5.68,4.63,5.68,6S41.71,142,34.14,157.58s-6.41,22.15-10.43,30.15-12.87,14-12.87,14l5.85-.87a28,28,0,0,1-4.1,4.78A26.49,26.49,0,0,1,6.69,209.31ZM124,191.08c-2.75-6.54-6.63-9.47-6.63-9.47s2.48,3.65,3.84,10.82a68.5,68.5,0,0,1,.9,14.65,27.27,27.27,0,0,0-1.67-6.13,15,15,0,0,0-2.52-4.19,38.76,38.76,0,0,1-2.35,8.43,8.88,8.88,0,0,1-5.27,5l1.12-4.82a36.08,36.08,0,0,1-4,2.52c-2.17,1.18-5.86.68-5.86.68l3.07-2.75a30.4,30.4,0,0,1-8.8,1c-5.86,0-8.25-5.36-8.25-5.36l5,1.71s-6.4-5-6.4-8.84-.45-3.65-3.16-.33-1.53,7.68-1.53,7.68-2.39-6.94,1-11.45a14.55,14.55,0,0,1,7.53-5.47s-1.8-.84-1.8-6.43,11.09-13.84,22.22-9S124,191.08,124,191.08Zm15.15-24c0,1.53-3.83,1.58-8.61,5.77S125,179,125,179s.18-4.56,4.42-9.92,4.32-5.82,1.94-9.42-2.8-11.1-2.8-16,2.89-9.6,2.89-9.6-3.21,6.63,1.21,17.54S139.18,165.52,139.18,167.05Z"
                transform="translate(0 0)" fill="#212121" />
        </g>
    </g>
    <g id="frame">
        <rect width="300" height="300" fill="none" />
    </g>
</svg>