<svg xmlns="http://www.w3.org/2000/svg" viewBox="0 0 30 30"><path d="M15,29.19c.29,0,.7.26,1.18.33s-.1.48-.52.48S15.29,30,15,30Z" transform="translate(0 0)" fill="#212121"/><path d="M19.78,29A2,2,0,0,1,21,27.56,3.24,3.24,0,0,0,22.48,26a1.39,1.39,0,0,1,0,.63,2.25,2.25,0,0,1-.37.71,3.51,3.51,0,0,0,1-1.19c.42-.79.57-1.17.57-1.17a2.24,2.24,0,0,1,.07.62,3.71,3.71,0,0,1-.46,1.19,2.85,2.85,0,0,0,1.13-1c.47-.71.78-1.29.78-1.29a2.35,2.35,0,0,0,0,.73,2.08,2.08,0,0,0,.47.88,1.32,1.32,0,0,1,0-1,1.64,1.64,0,0,0,.23-.82.93.93,0,0,0,.37.44,1,1,0,0,0,.58.05,1.13,1.13,0,0,1-.65-.73A3.39,3.39,0,0,1,26.14,23a2.24,2.24,0,0,1-1,.88,3.94,3.94,0,0,1-1.24.35.83.83,0,0,0,.25-.42,1.82,1.82,0,0,0,0-.5s0,.37-1.32.87a5.6,5.6,0,0,0-2.61,2.66,5.5,5.5,0,0,1-1.38,1.45,3.35,3.35,0,0,0,.57-.13,2.09,2.09,0,0,0,.48-.28,2.39,2.39,0,0,0-.14.44A2.21,2.21,0,0,0,19.78,29Z" transform="translate(0 0)" fill="#212121"/><path d="M19.56,20.07a1.08,1.08,0,0,0,1-.91c0-.29-.1-.44-.23-.44a6.45,6.45,0,0,0-1.81.87C18.51,19.77,19,20.07,19.56,20.07Z" transform="translate(0 0)" fill="#212121"/><path d="M28.74,20.56a3.18,3.18,0,0,1-.41-.47l.59.08a4.37,4.37,0,0,1-1.29-1.4c-.4-.8-.29-1.45-1-3A13.84,13.84,0,0,0,24.5,13c0-.14.16-.19.57-.61a3.69,3.69,0,0,0,1-2.78,20.65,20.65,0,0,0-1-4.77,23.45,23.45,0,0,0-.79-3.33C23.83.59,23.77-.35,22.93.13S20,2.54,19.5,3.89a4.78,4.78,0,0,1-1.22,2.28,5.11,5.11,0,0,0-.85,1.24,3.35,3.35,0,0,1,0-.42,5.21,5.21,0,0,1,.19-.59,3.4,3.4,0,0,0-.6,1,1.27,1.27,0,0,1-.52.72V7.82A2.21,2.21,0,0,1,15,8.58V25.37a2.36,2.36,0,0,1,1.65.54c.36.36-.06.87.17,1.1a.84.84,0,0,1,0,1c-.2.2-.35.25-.35,0s0-.61-.46-.48-.65.18-.3.25.38.21.38.39-.06.36-.27.36A4.92,4.92,0,0,0,15,28.4v.41a12.32,12.32,0,0,1,1.46.38A1.16,1.16,0,0,0,17.59,29c.49-.26.82-.2.82-.48s-.06-3.77-.06-5.18a4.43,4.43,0,0,0-1-2.55,3.45,3.45,0,0,1,1,1.23c.27.69.18,1,.36,1s.54.25,2.56-1.29,1.25-2.52,1.25-2.52a1.34,1.34,0,0,1,.36.27,2,2,0,0,1,.16.48A2,2,0,0,0,23,19c-.21-.49-.45-.72-.79-.72s-.38,0-.43-.34-.66-1.32-.66-1.53.15-.33.63-.73A5,5,0,0,0,22.65,14a3.71,3.71,0,0,1-.48,1.43,2.29,2.29,0,0,0-.54,1.22c0,.27.24,1.08.7,1.08s.83,1,.83,1a1.49,1.49,0,0,0-.1-.68,2.06,2.06,0,0,0-.49-.6,2.22,2.22,0,0,1,1.59,2.11.59.59,0,0,1-.37.62l-.08-.46a3.5,3.5,0,0,1-.42,1.46,6.91,6.91,0,0,1-1.16,1.54,2.53,2.53,0,0,0,.14-.55,2.06,2.06,0,0,0,0-.44,1.68,1.68,0,0,1-.7.95,2.92,2.92,0,0,0-.89,1.14,2.15,2.15,0,0,1,.21-.76,5.33,5.33,0,0,1,.62-.83,3.07,3.07,0,0,0-.92.85c-.46.62-.95,1.43-.95,1.43l.28-.88a3.87,3.87,0,0,0-.8,1.56A13.49,13.49,0,0,0,19,27.88s.64-3.15,2.51-4.14a7.24,7.24,0,0,0,2.6-2.09,1.44,1.44,0,0,1-.36,1,2.14,2.14,0,0,0-.45.95,1.3,1.3,0,0,1,.48-.54c.31-.18,1.11,0,1.73-.54a1.58,1.58,0,0,0,.57-1.22,3.29,3.29,0,0,1-.27.34,1.28,1.28,0,0,1-.29.21,8.59,8.59,0,0,0,.15-3.22C25.43,16.47,24.8,16,24.8,16l-.07.5a18.38,18.38,0,0,0-1.31-2.1,3.16,3.16,0,0,1-.6-2.14,1.91,1.91,0,0,0-.25.49c0,.16,0,.5,0,.5l-.22-.67L22.2,13s-.31-.45-.64-.88a8.78,8.78,0,0,0-1.39-1.18,3.05,3.05,0,0,1,.38.56,1.5,1.5,0,0,1,.11.49,8.32,8.32,0,0,0-.82-.94,5,5,0,0,0-1.17-.71l0,.63a4.21,4.21,0,0,0-.87-1,4,4,0,0,0-1.64-.75A14.07,14.07,0,0,1,18,9.2a13.66,13.66,0,0,1,4.16,1.58c1.59.94,1.71,1.76,1.71,1.76a2.67,2.67,0,0,0,.38-1.33,3.75,3.75,0,0,0-.36-1.46,1.45,1.45,0,0,1,.37.34c.12.19.32.61.32.61A7,7,0,0,0,24,9.06a.84.84,0,0,0-.88-.48,3.5,3.5,0,0,1,0-.43,1.8,1.8,0,0,1,.34-.58L23,7.71a1.47,1.47,0,0,1,.24-.45,1.54,1.54,0,0,1,.48-.32.66.66,0,0,0-.3,0A2.09,2.09,0,0,0,23,7a1.58,1.58,0,0,0,.31-.36,3.06,3.06,0,0,0,.16-.35,2.05,2.05,0,0,1-.71.27,1.82,1.82,0,0,1-.51,0,1.18,1.18,0,0,1,.17-.38.74.74,0,0,1,.42-.26.77.77,0,0,0-.33-.1,1.65,1.65,0,0,0-.38,0,1.47,1.47,0,0,0,.31-.38A2,2,0,0,0,22.64,5a2.53,2.53,0,0,1-.3.27,2.17,2.17,0,0,1-.36.16,3.47,3.47,0,0,0,.27-.57,2.59,2.59,0,0,0,.07-.59,5.38,5.38,0,0,1-.77,1,5.28,5.28,0,0,1-1.28.65A10.44,10.44,0,0,1,22,4a13.2,13.2,0,0,0,1.83-1.9,4.54,4.54,0,0,1-.61,1.12,2.29,2.29,0,0,0-.47,1,2.93,2.93,0,0,1,.29-.5c.15-.2.25-.16.25-.16a3.87,3.87,0,0,1,.15,1,1.11,1.11,0,0,1-.32.68,1.38,1.38,0,0,0,.4-.34,1.18,1.18,0,0,0,.17-.44.71.71,0,0,1,.36.38c.06.24,0,.5.11,1.15s.39.81.39.81a1.36,1.36,0,0,1-.1-.48.92.92,0,0,1,.14-.45,1.71,1.71,0,0,1,.32.92,3.28,3.28,0,0,1-.21,1A1.27,1.27,0,0,1,25,7.63a1.48,1.48,0,0,1,.32-.09s-.16.16-.16.86a1.85,1.85,0,0,1-.22,1,1.13,1.13,0,0,0,.35-.34,1.17,1.17,0,0,0,.1-.35,1.29,1.29,0,0,1,.25.66,5.23,5.23,0,0,1-.17,1.4,4.35,4.35,0,0,1-.8,1.71c-.38.45-.47.57-.47.79s.47.7,1.3,2.35a11.27,11.27,0,0,1,1,3,3.18,3.18,0,0,0,.12-.8,6.79,6.79,0,0,0-.13-.92A6.46,6.46,0,0,1,27,18.84c0,.75-.43,1.28-.35,2.1a2.36,2.36,0,0,1-.29,1.39,1,1,0,0,0,.33-.26,3.32,3.32,0,0,0,.28-.45l-.07.55.51-.48a2.17,2.17,0,0,1-.06.51,2.49,2.49,0,0,1-.35.54,2.59,2.59,0,0,0,.72-.74,1.58,1.58,0,0,0,.24-.81,1,1,0,0,1,.26.4,1.45,1.45,0,0,1,0,.66,1.47,1.47,0,0,0,.31-.74,1.48,1.48,0,0,0-.17-.65,1.38,1.38,0,0,0,.43.09l.55,0A2.85,2.85,0,0,1,28.74,20.56Zm-9.8-3.63c1.12-.48,2.23.34,2.23.9s-.18.65-.18.65a1.43,1.43,0,0,1,.75.54,1.41,1.41,0,0,1,.1,1.15.93.93,0,0,0-.15-.77c-.27-.33-.32-.35-.32,0s-.64.89-.64.89l.51-.18a1,1,0,0,1-.83.54,3,3,0,0,1-.88-.1l.31.28a1.17,1.17,0,0,1-.59-.07,4.21,4.21,0,0,1-.4-.25L19,21a.89.89,0,0,1-.53-.5,3.75,3.75,0,0,1-.23-.84,1.27,1.27,0,0,0-.26.42,2.58,2.58,0,0,0-.16.61,6.54,6.54,0,0,1,.09-1.47,3.06,3.06,0,0,1,.38-1.08,2.34,2.34,0,0,0-.66.95S17.83,17.41,18.94,16.93Zm-2.2-1.77a2.31,2.31,0,0,0,.12-1.76,2.12,2.12,0,0,1,.29,1,3.46,3.46,0,0,1-.28,1.6c-.24.36-.23.4.19.94a1.89,1.89,0,0,1,.44,1,2.14,2.14,0,0,0-.56-.62c-.47-.42-.86-.42-.86-.58S16.29,16.25,16.74,15.16Z" transform="translate(0 0)" fill="#212121"/><path d="M15,29.19c-.29,0-.7.26-1.18.33s.1.48.52.48S14.71,30,15,30Z" transform="translate(0 0)" fill="#212121"/><path d="M10.22,29A2,2,0,0,0,9,27.56,3.24,3.24,0,0,1,7.52,26a1.39,1.39,0,0,0,0,.63,2.25,2.25,0,0,0,.37.71,3.51,3.51,0,0,1-1-1.19C6.45,25.4,6.3,25,6.3,25a2.24,2.24,0,0,0-.07.62,3.71,3.71,0,0,0,.46,1.19,2.85,2.85,0,0,1-1.13-1c-.47-.71-.78-1.29-.78-1.29a2.35,2.35,0,0,1,0,.73,2.08,2.08,0,0,1-.47.88,1.32,1.32,0,0,0,0-1,1.64,1.64,0,0,1-.23-.82.93.93,0,0,1-.37.44,1,1,0,0,1-.58.05,1.13,1.13,0,0,0,.65-.73A3.39,3.39,0,0,0,3.86,23a2.24,2.24,0,0,0,1,.88,3.94,3.94,0,0,0,1.24.35.83.83,0,0,1-.25-.42,1.82,1.82,0,0,1,0-.5s0,.37,1.32.87a5.6,5.6,0,0,1,2.61,2.66,5.5,5.5,0,0,0,1.38,1.45,3.35,3.35,0,0,1-.57-.13,2.09,2.09,0,0,1-.48-.28,2.39,2.39,0,0,1,.14.44A2.21,2.21,0,0,1,10.22,29Z" transform="translate(0 0)" fill="#212121"/><path d="M10.44,20.07a1.08,1.08,0,0,1-1-.91c0-.29.1-.44.23-.44a6.45,6.45,0,0,1,1.81.87C11.49,19.77,11,20.07,10.44,20.07Z" transform="translate(0 0)" fill="#212121"/><path d="M.67,20.93l.55,0a1.38,1.38,0,0,0,.43-.09,1.48,1.48,0,0,0-.17.65,1.47,1.47,0,0,0,.31.74,1.45,1.45,0,0,1,0-.66,1,1,0,0,1,.26-.4,1.58,1.58,0,0,0,.24.81,2.59,2.59,0,0,0,.72.74,2.49,2.49,0,0,1-.35-.54,2.17,2.17,0,0,1-.06-.51l.51.48-.07-.55a3.32,3.32,0,0,0,.28.45,1,1,0,0,0,.33.26,2.36,2.36,0,0,1-.29-1.39c.08-.82-.35-1.35-.35-2.1a6.46,6.46,0,0,1,.49-1.91,6.79,6.79,0,0,0-.13.92,3.18,3.18,0,0,0,.12.8,11.27,11.27,0,0,1,1-3c.83-1.65,1.3-2.13,1.3-2.35s-.09-.34-.47-.79a4.35,4.35,0,0,1-.8-1.71,5.23,5.23,0,0,1-.17-1.4,1.29,1.29,0,0,1,.25-.66,1.17,1.17,0,0,0,.1.35,1.13,1.13,0,0,0,.35.34,1.85,1.85,0,0,1-.22-1c0-.7-.16-.86-.16-.86a1.48,1.48,0,0,1,.32.09,1.27,1.27,0,0,1,.24.25,3.28,3.28,0,0,1-.21-1,1.71,1.71,0,0,1,.32-.92.92.92,0,0,1,.14.45,1.36,1.36,0,0,1-.1.48s.32-.16.39-.81,0-.91.11-1.15a.71.71,0,0,1,.36-.38A1.18,1.18,0,0,0,6.47,5a1.38,1.38,0,0,0,.4.34,1.11,1.11,0,0,1-.32-.68,3.87,3.87,0,0,1,.15-1s.1,0,.25.16a2.93,2.93,0,0,1,.29.5,2.29,2.29,0,0,0-.47-1A4.54,4.54,0,0,1,6.16,2.1,13.2,13.2,0,0,0,8,4,10.44,10.44,0,0,1,9.73,5.91a5.28,5.28,0,0,1-1.28-.65,5.38,5.38,0,0,1-.77-1,2.59,2.59,0,0,0,.07.59A3.47,3.47,0,0,0,8,5.43a2.17,2.17,0,0,1-.36-.16A2.53,2.53,0,0,1,7.36,5a2,2,0,0,0,.16.45,1.47,1.47,0,0,0,.31.38,1.65,1.65,0,0,0-.38,0,.77.77,0,0,0-.33.1.74.74,0,0,1,.42.26,1.18,1.18,0,0,1,.17.38,1.82,1.82,0,0,1-.51,0,2.05,2.05,0,0,1-.71-.27,3.06,3.06,0,0,0,.16.35A1.58,1.58,0,0,0,7,7a2.09,2.09,0,0,0-.34-.08.66.66,0,0,0-.3,0,1.54,1.54,0,0,1,.48.32A1.47,1.47,0,0,1,7,7.71l-.51-.14a1.8,1.8,0,0,1,.34.58,3.5,3.5,0,0,1,0,.43A.84.84,0,0,0,6,9.06a7,7,0,0,0-.55,1.64s.2-.42.32-.61a1.45,1.45,0,0,1,.37-.34,3.75,3.75,0,0,0-.36,1.46,2.67,2.67,0,0,0,.38,1.33s.12-.82,1.71-1.76A13.66,13.66,0,0,1,12.05,9.2a14.07,14.07,0,0,1,1.75-.06,4,4,0,0,0-1.64.75,4.21,4.21,0,0,0-.87,1l0-.63a5,5,0,0,0-1.17.71,8.32,8.32,0,0,0-.82.94,1.5,1.5,0,0,1,.11-.49,3.05,3.05,0,0,1,.38-.56,8.78,8.78,0,0,0-1.39,1.18c-.33.43-.64.88-.64.88l-.12-.44-.22.67s0-.34,0-.5a1.91,1.91,0,0,0-.25-.49,3.16,3.16,0,0,1-.6,2.14,18.38,18.38,0,0,0-1.31,2.1L5.2,16s-.63.52-.84,2.66a8.59,8.59,0,0,0,.15,3.22,1.28,1.28,0,0,1-.29-.21A3.29,3.29,0,0,1,4,21.28a1.58,1.58,0,0,0,.57,1.22c.62.53,1.42.36,1.73.54a1.3,1.3,0,0,1,.48.54,2.14,2.14,0,0,0-.45-.95,1.44,1.44,0,0,1-.36-1,7.24,7.24,0,0,0,2.6,2.09c1.87,1,2.51,4.14,2.51,4.14a13.49,13.49,0,0,0-.11-2.73,3.87,3.87,0,0,0-.8-1.56l.28.88s-.49-.81-1-1.43a3.07,3.07,0,0,0-.92-.85,5.33,5.33,0,0,1,.62.83,2.15,2.15,0,0,1,.21.76,2.92,2.92,0,0,0-.89-1.14,1.68,1.68,0,0,1-.7-.95,2.06,2.06,0,0,0,0,.44,2.53,2.53,0,0,0,.14.55,6.91,6.91,0,0,1-1.16-1.54,3.5,3.5,0,0,1-.42-1.46l-.08.46a.59.59,0,0,1-.37-.62A2.57,2.57,0,0,1,6.51,18a2.55,2.55,0,0,1,.92-.54,2.06,2.06,0,0,0-.49.6,1.49,1.49,0,0,0-.1.68s.37-1,.83-1,.7-.81.7-1.08a2.29,2.29,0,0,0-.54-1.22A3.71,3.71,0,0,1,7.35,14a5,5,0,0,0,.94,1.65c.48.4.63.52.63.73s-.6,1.16-.66,1.53-.08.34-.43.34-.58.23-.79.72A2,2,0,0,0,7,20a2,2,0,0,1,.16-.48,1.34,1.34,0,0,1,.36-.27s-.78,1,1.25,2.52,2.38,1.29,2.56,1.29.09-.34.36-1a3.45,3.45,0,0,1,1-1.23,4.43,4.43,0,0,0-.95,2.55c0,1.41-.06,4.89-.06,5.18s.33.22.82.48a1.16,1.16,0,0,0,1.13.16A12.32,12.32,0,0,1,15,28.81V28.4a4.92,4.92,0,0,0-.82.13c-.21,0-.27-.19-.27-.36s0-.32.38-.39.11-.12-.3-.25-.46.24-.46.48-.15.2-.35,0a.84.84,0,0,1,0-1c.23-.23-.19-.74.17-1.1A2.36,2.36,0,0,1,15,25.37V8.58a2.21,2.21,0,0,1-1.51-.76v.32A1.27,1.27,0,0,1,13,7.42a3.4,3.4,0,0,0-.6-1,5.21,5.21,0,0,1,.19.59,3.35,3.35,0,0,1,0,.42,5.11,5.11,0,0,0-.85-1.24A4.78,4.78,0,0,1,10.5,3.89C10.05,2.54,7.9.62,7.07.13s-.9.46-1.32,1.39A23.45,23.45,0,0,0,5,4.85,20.65,20.65,0,0,0,4,9.62a3.69,3.69,0,0,0,1,2.78c.41.42.57.47.57.61a13.84,13.84,0,0,0-2.09,2.75c-.75,1.56-.64,2.21-1,3a4.37,4.37,0,0,1-1.29,1.4l.59-.08a3.18,3.18,0,0,1-.41.47A2.85,2.85,0,0,1,.67,20.93ZM12.4,19.11a2.34,2.34,0,0,0-.66-.95,3.06,3.06,0,0,1,.38,1.08,6.54,6.54,0,0,1,.09,1.47,2.58,2.58,0,0,0-.16-.61,1.27,1.27,0,0,0-.26-.42,3.75,3.75,0,0,1-.23.84A.89.89,0,0,1,11,21l.12-.48a4.21,4.21,0,0,1-.4.25,1.17,1.17,0,0,1-.59.07l.31-.28a3,3,0,0,1-.88.1,1,1,0,0,1-.83-.54l.51.18s-.64-.5-.64-.89-.05-.36-.32,0a.93.93,0,0,0-.15.77A1.41,1.41,0,0,1,8.26,19,1.43,1.43,0,0,1,9,18.48s-.18-.09-.18-.65,1.11-1.38,2.23-.9S12.4,19.11,12.4,19.11Zm1.52-2.41c0,.16-.39.16-.86.58a2.14,2.14,0,0,0-.56.62,1.89,1.89,0,0,1,.44-1c.42-.54.43-.58.19-.94a3.46,3.46,0,0,1-.28-1.6,2.12,2.12,0,0,1,.29-1,2.31,2.31,0,0,0,.12,1.76C13.71,16.25,13.92,16.55,13.92,16.7Z" transform="translate(0 0)" fill="#212121"/><rect width="30" height="30" fill="none"/></svg>