<svg xmlns="http://www.w3.org/2000/svg" viewBox="0 0 30 30"><path d="M17.14,21.61c.11.12.84-.15,1-.31a.89.89,0,0,0,.33-.54c0-.15-.47-.22-.93,0S17.05,21.51,17.14,21.61Z" transform="translate(0)" fill="#212121"/><path d="M15,25.13c.56,0,1,0,1,.26s-.72.16-.4.37-.56,0-.3.26-.31.09-.31.33Z" transform="translate(0)" fill="#212121"/><path d="M17.18,21.92c0-.17.24,0,.78-.28s.69-.59.69-.29a5.4,5.4,0,0,0-.22,1.21,3.11,3.11,0,0,1-.18,1c0,.22,1,1,1,1l-.32,0a1.13,1.13,0,0,1,.43.77,1.15,1.15,0,0,0,.32.75l-.31-.1a2.7,2.7,0,0,1,.31,1.13c0,.56-.41.42-.57.64a.48.48,0,0,0-.11.41.73.73,0,0,0-.44-.18l-.38-.06s-.07.79-.5.79a.67.67,0,0,0-.59.38L17,28.92a.53.53,0,0,1-.52.31.92.92,0,0,0-.67.34l-.07-.22s-.7.23-.7.65V27.57s.1.22.23.22.35-.32.35-.32l.1.27a.46.46,0,0,0,.19-.17,1.38,1.38,0,0,0,.12-.34l.13.24a1,1,0,0,0,.18-.18l.1-.2.16.2a.93.93,0,0,0,.14-.19c.05-.11.11-.27.11-.27L17,27a.46.46,0,0,1,.23-.41c.24-.11.27-.56.27-.56l.18.21.14-.39L18,26a.77.77,0,0,0,0-.39.65.65,0,0,0-.19-.31l.25-.08s-.5-.64-.5-.94c0-.53.13-.71.13-1.2S17.18,22.07,17.18,21.92Z" transform="translate(0)" fill="#212121"/><path d="M18.44,18.16c.27,0,.76-1.06,1.22-1.48s1-.62,1.53-1.16a18.29,18.29,0,0,0,2.37-2.78A4.12,4.12,0,0,0,24.28,11c.08-.55-.3.37-1.3,1.58s-3.06,2.11-4,2.78a6.07,6.07,0,0,0-1.73,1.73A2.51,2.51,0,0,0,18.44,18.16Z" transform="translate(0)" fill="#212121"/><path d="M24,12.6c-.21.1-.52.77-1.31,1.65s-1.73,1.63-1.6,1.63a15.21,15.21,0,0,0,4.48-2.53c1.66-1.48,2-3.34,2.79-5a6.79,6.79,0,0,0,.88-3C29.2,5,29,6,28.51,6.8s-1.35,2.06-1,1.55a10,10,0,0,0,1.76-4.5A8,8,0,0,0,28.37.2c-.31-.61-.16.17.05,2.23a9,9,0,0,1-1.11,4.76c-.23.22-.9.06-1.59-.78a6,6,0,0,1-1.23-2c-.14-.54-.26-.43,0,1.13s1.58,2,1.58,3.52A4.18,4.18,0,0,1,24,12.6Z" transform="translate(0)" fill="#212121"/><path d="M18.08,18.89c0-.23.21-.28.21-.43s-1.09-1.25-1.39-1.25-.23.11-.5.11a.49.49,0,0,1-.36-.17.14.14,0,0,0-.19,0,1.51,1.51,0,0,1-.85.18v5a1.39,1.39,0,0,1,.56.14l.2-.13s.59.1.73.47a4.66,4.66,0,0,0,.43.77h-.27v.17a.75.75,0,0,0-.34-.39.58.58,0,0,0-.36-.09.34.34,0,0,0-.08-.26,1,1,0,0,0-.87,0v.31c.19,0,.19-.17.46-.17a.89.89,0,0,1,.73.67c0,.29-.21.6-1.19.6v.41c1.15,0,1.4.37,1.4.37a.85.85,0,0,1,.21-.5c.18-.18.54-.08.54-.08s-.1-1.09.12-1.3a.62.62,0,0,0,.13-.78c-.18-.25-.6-.64-.6-1.12a1.17,1.17,0,0,1,.78-1c.37-.11,1.13.09,1.22,0S18.08,19.13,18.08,18.89ZM17.93,20a1.93,1.93,0,0,0-.29-.12A1.19,1.19,0,0,1,17,20c-.34,0-.37.69-.67.69s-.39.2-.39.3.06.1.3.26.42.84.42.84a1.73,1.73,0,0,0-.45-.46,1,1,0,0,0-.38-.22s-.31.42-.5.42-.13-.19-.13-.8a1.77,1.77,0,0,1,.27-1,1.25,1.25,0,0,0,.5.14c.25,0,.48-.34.48-.34l-.32-.05a1.24,1.24,0,0,1,1.08-.37,1.39,1.39,0,0,1,1,.7A1.36,1.36,0,0,0,17.93,20Z" transform="translate(0)" fill="#212121"/><path d="M22,15.88a6,6,0,0,0-1.79.58,6.44,6.44,0,0,0-1.32,1.6c-.29.39-.6.67-.6.88s.77,1.68.9,1.54.6-.17.93-.51a5.41,5.41,0,0,1,1.34-1,1.49,1.49,0,0,0,.88-1.57C22.38,16.52,22.29,15.88,22,15.88Zm-.84,1c-.15.28.42.44.05.41a1.05,1.05,0,0,0-.69.15c-.11.07.14,0,.43,0s0,0-.35.29-.56.53-.05.57.4.11.26.23-.3.13-.55.11.13.11.25.26-.17.27-.41.25-.05.12,0,.22,0,.26-.59.22a1,1,0,0,1-.85-.8c0-.13.12-.13.26-.13.33,0,.49-.35.66-.74a2.48,2.48,0,0,1,1.43-1.3C21.79,16.41,21.35,16.58,21.2,16.85Z" transform="translate(0)" fill="#212121"/><path d="M12.86,21.61c-.11.12-.84-.15-1-.31a.89.89,0,0,1-.33-.54c0-.15.47-.22.93,0S13,21.51,12.86,21.61Z" transform="translate(0)" fill="#212121"/><path d="M15,25.13c-.56,0-1,0-1,.26s.72.16.4.37.56,0,.3.26.31.09.31.33Z" transform="translate(0)" fill="#212121"/><path d="M12.82,21.92c0-.17-.24,0-.78-.28s-.69-.59-.69-.29a5.4,5.4,0,0,1,.22,1.21,3.11,3.11,0,0,0,.18,1c0,.22-1,1-1,1l.32,0a1.13,1.13,0,0,0-.43.77,1.15,1.15,0,0,1-.32.75l.31-.1a2.7,2.7,0,0,0-.31,1.13c0,.56.41.42.57.64a.48.48,0,0,1,.11.41.73.73,0,0,1,.44-.18l.38-.06s.07.79.5.79a.67.67,0,0,1,.59.38l.09-.17a.53.53,0,0,0,.52.31.92.92,0,0,1,.67.34l.07-.22s.7.23.7.65V27.57s-.1.22-.23.22-.35-.32-.35-.32l-.1.27a.46.46,0,0,1-.19-.17,1.38,1.38,0,0,1-.12-.34l-.13.24a1,1,0,0,1-.18-.18l-.1-.2-.16.2a.93.93,0,0,1-.14-.19c-.05-.11-.11-.27-.11-.27L13,27a.46.46,0,0,0-.23-.41c-.24-.11-.27-.56-.27-.56l-.18.21-.14-.39L12,26a.77.77,0,0,1,0-.39.65.65,0,0,1,.19-.31l-.25-.08s.5-.64.5-.94c0-.53-.13-.71-.13-1.2S12.82,22.07,12.82,21.92Z" transform="translate(0)" fill="#212121"/><path d="M11.56,18.16c-.27,0-.76-1.06-1.22-1.48s-1-.62-1.53-1.16a18.29,18.29,0,0,1-2.37-2.78A4.12,4.12,0,0,1,5.72,11c-.08-.55.3.37,1.3,1.58s3.06,2.11,4,2.78a6.07,6.07,0,0,1,1.73,1.73A2.51,2.51,0,0,1,11.56,18.16Z" transform="translate(0)" fill="#212121"/><path d="M6,12.6c.21.1.52.77,1.31,1.65s1.73,1.63,1.6,1.63a15.21,15.21,0,0,1-4.48-2.53c-1.66-1.48-2-3.34-2.79-5a6.79,6.79,0,0,1-.88-3C.8,5,1,6,1.49,6.8s1.35,2.06,1,1.55A10,10,0,0,1,.74,3.85,8,8,0,0,1,1.63.2c.31-.61.16.17,0,2.23A9,9,0,0,0,2.69,7.19c.23.22.9.06,1.59-.78a6,6,0,0,0,1.23-2c.14-.54.26-.43,0,1.13s-1.58,2-1.58,3.52A4.18,4.18,0,0,0,6,12.6Z" transform="translate(0)" fill="#212121"/><path d="M11.2,20.43c.09.09.85-.11,1.22,0a1.17,1.17,0,0,1,.78,1c0,.48-.42.87-.6,1.12a.62.62,0,0,0,.13.78c.22.21.12,1.3.12,1.3s.36-.1.54.08a.85.85,0,0,1,.21.5s.25-.37,1.4-.37v-.41c-1,0-1.19-.31-1.19-.6a.89.89,0,0,1,.73-.67c.27,0,.27.17.46.17v-.31a1,1,0,0,0-.87,0,.34.34,0,0,0-.08.26.58.58,0,0,0-.36.09.75.75,0,0,0-.34.39v-.17h-.27a4.66,4.66,0,0,0,.43-.77c.14-.37.73-.47.73-.47l.2.13a1.39,1.39,0,0,1,.56-.14v-5a1.51,1.51,0,0,1-.85-.18.14.14,0,0,0-.19,0,.49.49,0,0,1-.36.17c-.27,0-.2-.11-.5-.11s-1.39,1.1-1.39,1.25.21.2.21.43S11.11,20.34,11.2,20.43Zm.6-.27a1.39,1.39,0,0,1,1-.7,1.24,1.24,0,0,1,1.08.37l-.32.05s.23.34.48.34a1.25,1.25,0,0,0,.5-.14,1.77,1.77,0,0,1,.27,1c0,.61,0,.8-.13.8s-.5-.42-.5-.42a1,1,0,0,0-.38.22,1.73,1.73,0,0,0-.45.46s.18-.68.42-.84.3-.17.3-.26-.09-.3-.39-.3S13.32,20,13,20a1.19,1.19,0,0,1-.62-.2,1.93,1.93,0,0,0-.29.12A1.36,1.36,0,0,0,11.8,20.16Z" transform="translate(0)" fill="#212121"/><path d="M7.62,17.35a1.49,1.49,0,0,0,.88,1.57,5.41,5.41,0,0,1,1.34,1c.33.34.79.38.93.51s.9-1.28.9-1.54-.31-.49-.6-.88a6.44,6.44,0,0,0-1.32-1.6A6,6,0,0,0,8,15.88C7.71,15.88,7.62,16.52,7.62,17.35Zm1.29-.74a2.48,2.48,0,0,1,1.43,1.3c.17.39.33.77.66.74.14,0,.25,0,.26.13a1,1,0,0,1-.85.8c-.61,0-.67-.13-.59-.22s.29-.23,0-.22-.54-.1-.41-.25.49-.27.25-.26-.41,0-.55-.11-.26-.2.26-.23.32-.24-.05-.57-.64-.27-.35-.29.54.05.43,0a1.05,1.05,0,0,0-.69-.15c-.37,0,.2-.13.05-.41S8.21,16.41,8.91,16.61Z" transform="translate(0)" fill="#212121"/><rect width="30" height="30" fill="none"/></svg>