<!-- Copyright (c) 2022 Jan Stehno -->
<svg xmlns="http://www.w3.org/2000/svg" viewBox="0 0 300 300"><title>sikadeer</title><g id="sikadeer"><g id="right"><path d="M171.41,216.12c1.13,1.18,8.35-1.53,10.13-3.14s3.27-3.82,3.27-5.35-4.69-2.25-9.33.5S170.49,215.14,171.41,216.12Z" transform="translate(0)" fill="#212121"/><path d="M150,251.26c5.63,0,10.13.31,10.13,2.66s-7.21,1.54-4.06,3.64-5.6.23-3,2.65-3.05.86-3.05,3.33Z" transform="translate(0)" fill="#212121"/><path d="M171.82,219.2c0-1.71,2.35-.17,7.79-2.79s6.91-5.93,6.91-2.94-2.21,4.34-2.21,12.1-1.78,8.11-1.78,10.25,9.57,10,9.57,10l-3.23-.21s4.3,3.35,4.3,7.72a11.45,11.45,0,0,0,3.21,7.48l-3.1-1s3.1,5.62,3.1,11.27-4,4.17-5.71,6.4a4.84,4.84,0,0,0-1,4.13s-1.13-1.28-4.46-1.85a37,37,0,0,0-3.73-.56s-.71,7.94-5,7.94a6.71,6.71,0,0,0-5.94,3.74l-.92-1.68s-1,3.06-5.17,3.06a9.37,9.37,0,0,0-6.76,3.42l-.6-2.21S150,295.82,150,300V275.68s1,2.21,2.35,2.21,3.45-3.17,3.45-3.17l1,2.67a5.09,5.09,0,0,0,1.92-1.67,15.78,15.78,0,0,0,1.17-3.42l1.36,2.42a10.59,10.59,0,0,0,1.71-1.78l1-2,1.67,2A10.73,10.73,0,0,0,167,271a20.54,20.54,0,0,0,1.1-2.71l1.78,1.78s0-3,2.35-4.12,2.73-5.59,2.73-5.59l1.73,2.13,1.45-3.89,2.13,1.42a7.52,7.52,0,0,0,.48-3.9,6.7,6.7,0,0,0-1.92-3.14l2.53-.76s-5-6.48-5-9.41c0-5.28,1.23-7.11,1.23-12S171.82,220.66,171.82,219.2Z" transform="translate(0)" fill="#212121"/><path d="M184.38,181.58c2.71,0,7.62-10.59,12.22-14.76s9.56-6.17,15.26-11.58,18.91-19.79,23.75-27.86,6.45-11.67,7.21-17.18-3,3.71-13,15.76-30.66,21.16-39.58,27.81-17.37,15.35-17.37,17.31S181.56,181.58,184.38,181.58Z" transform="translate(0)" fill="#212121"/><path d="M239.83,126c-2.15,1-5.19,7.69-13.17,16.52s-17.22,16.35-15.94,16.35,28.12-10.59,44.77-25.39,19.79-33.32,27.91-50.4,8.89-25.6,8.75-29.54-2.06,6.41-7,14.52S271.58,88.57,275,83.54s17.61-27.72,17.61-45A80.52,80.52,0,0,0,283.73,2c-3.13-6.08-1.62,1.71.47,22.3s-8.82,45.27-11.1,47.55-9,.67-15.85-7.78-10.92-14.33-12.34-19.74S242.25,40,245,55.63s15.76,19.74,15.76,35.21C260.76,113.53,241.84,125.05,239.83,126Z" transform="translate(0)" fill="#212121"/><path d="M180.75,188.93c0-2.37,2.14-2.85,2.14-4.32S172,172.13,169,172.13s-2.32,1.09-5.07,1.09a5.18,5.18,0,0,1-3.59-1.71,1.45,1.45,0,0,0-1.88-.16c-1.15.83-3.58,1.87-8.48,1.87v50.14a14,14,0,0,1,5.62,1.42l2-1.28s5.86,1.05,7.3,4.7a45.46,45.46,0,0,0,4.28,7.71h-2.69v1.72a7.84,7.84,0,0,0-3.38-3.95,6.6,6.6,0,0,0-3.59-.92,3.44,3.44,0,0,0-.82-2.53c-1-1-7-1.46-8.72.25v3.1c1.89,0,1.85-1.68,4.63-1.68s7.29,3.78,7.29,6.69-2.1,6-11.92,6v4.09c11.46,0,14,3.67,14,3.67s.22-3.19,2.07-5,5.46-.83,5.46-.83-1-10.86,1.15-13,3.06-5.31,1.32-7.8-6-6.41-6-11.21,4-9.18,7.73-10.29,11.32.89,12.21,0S180.75,191.3,180.75,188.93Zm-1.49,10.55a18.18,18.18,0,0,0-2.88-1.15,11.92,11.92,0,0,1-6.16,2c-3.37,0-3.71,6.93-6.7,6.93s-3.87,1.95-3.87,2.91.53,1.06,2.95,2.63,4.18,8.44,4.18,8.44a18,18,0,0,0-4.44-4.66c-2.85-2-3.8-2.2-3.8-2.2s-3.15,4.2-5.08,4.2c-.94,0-1.29-1.86-1.29-8a17.38,17.38,0,0,1,2.78-9.82,11.86,11.86,0,0,0,5,1.42c2.46,0,4.76-3.35,4.76-3.35l-3.23-.55a12.52,12.52,0,0,1,10.8-3.65c6.73,1,9.75,7,9.75,7A16.56,16.56,0,0,0,179.26,199.48Z" transform="translate(0)" fill="#212121"/><path d="M220.42,158.85c-2.51,0-13.09,2.94-17.89,5.74s-10.46,12.11-13.27,16-5.95,6.69-5.95,8.78c0,2.66,7.69,16.8,9,15.47s6-1.76,9.25-5.13A56.27,56.27,0,0,1,215,189.17c6.79-3.94,8.83-7.36,8.83-15.66S222.94,158.85,220.42,158.85ZM212,168.53c-1.53,2.76,4.25,4.34.49,4.1s-5.68.7-6.83,1.45,1.35,0,4.23.2.25-.32-3.47,2.95-5.66,5.31-.47,5.64,4,1.1,2.59,2.34-3.08,1.27-5.53,1.11,1.25,1.11,2.55,2.59-1.72,2.67-4.18,2.51-.45,1.22.38,2.17.26,2.58-5.81,2.19-8.64-6.55-8.55-7.93,1.22-1.4,2.59-1.31c3.34.22,4.93-3.52,6.57-7.48s7.31-11,14.32-13S213.53,165.78,212,168.53Z" transform="translate(0)" fill="#212121"/></g><g id="left"><path d="M128.59,216.12c-1.13,1.18-8.35-1.53-10.13-3.14s-3.27-3.82-3.27-5.35,4.69-2.25,9.33.5S129.51,215.14,128.59,216.12Z" transform="translate(0)" fill="#212121"/><path d="M150,251.26c-5.63,0-10.13.31-10.13,2.66s7.21,1.54,4.06,3.64,5.6.23,3,2.65,3.05.86,3.05,3.33Z" transform="translate(0)" fill="#212121"/><path d="M128.18,219.2c0-1.71-2.35-.17-7.79-2.79s-6.91-5.93-6.91-2.94,2.21,4.34,2.21,12.1,1.78,8.11,1.78,10.25-9.57,10-9.57,10l3.23-.21s-4.3,3.35-4.3,7.72a11.45,11.45,0,0,1-3.21,7.48l3.1-1s-3.1,5.62-3.1,11.27,4,4.17,5.71,6.4a4.84,4.84,0,0,1,1,4.13s1.13-1.28,4.46-1.85a37,37,0,0,1,3.73-.56s.71,7.94,5,7.94a6.71,6.71,0,0,1,5.94,3.74l.92-1.68s1,3.06,5.17,3.06a9.37,9.37,0,0,1,6.76,3.42l.6-2.21S150,295.82,150,300V275.68s-1,2.21-2.35,2.21-3.45-3.17-3.45-3.17l-1,2.67a5.09,5.09,0,0,1-1.92-1.67,15.78,15.78,0,0,1-1.17-3.42l-1.36,2.42a10.59,10.59,0,0,1-1.71-1.78l-1-2-1.67,2A10.73,10.73,0,0,1,133,271a20.54,20.54,0,0,1-1.1-2.71l-1.78,1.78s0-3-2.35-4.12-2.73-5.59-2.73-5.59l-1.73,2.13-1.45-3.89L119.75,260a7.52,7.52,0,0,1-.48-3.9,6.7,6.7,0,0,1,1.92-3.14l-2.53-.76s5-6.48,5-9.41c0-5.28-1.23-7.11-1.23-12S128.18,220.66,128.18,219.2Z" transform="translate(0)" fill="#212121"/><path d="M115.62,181.58c-2.71,0-7.62-10.59-12.22-14.76s-9.56-6.17-15.26-11.58-18.91-19.79-23.75-27.86-6.45-11.67-7.21-17.18,3,3.71,13,15.76,30.66,21.16,39.58,27.81,17.37,15.35,17.37,17.31S118.44,181.58,115.62,181.58Z" transform="translate(0)" fill="#212121"/><path d="M60.17,126c2.15,1,5.19,7.69,13.17,16.52s17.22,16.35,15.94,16.35-28.12-10.59-44.77-25.39S24.72,100.14,16.6,83.06,7.71,57.46,7.85,53.52,9.91,59.93,14.9,68,28.42,88.57,25,83.54,7.35,55.82,7.35,38.55A80.52,80.52,0,0,1,16.27,2c3.13-6.08,1.62,1.71-.47,22.3s8.82,45.27,11.1,47.55,9,.67,15.85-7.78S53.67,49.75,55.09,44.34,57.75,40,55,55.63,39.24,75.37,39.24,90.84C39.24,113.53,58.16,125.05,60.17,126Z" transform="translate(0)" fill="#212121"/><path d="M112,204.28c.89.89,8.51-1.1,12.21,0s7.73,5.48,7.73,10.29-4.2,8.72-6,11.21-.82,5.66,1.32,7.8,1.15,13,1.15,13,3.61-.95,5.46.83,2.07,5,2.07,5,2.53-3.67,14-3.67v-4.09c-9.82,0-11.92-3.1-11.92-6s4.52-6.69,7.29-6.69,2.74,1.68,4.63,1.68v-3.1c-1.71-1.71-7.74-1.23-8.72-.25a3.44,3.44,0,0,0-.82,2.53,6.6,6.6,0,0,0-3.59.92,7.84,7.84,0,0,0-3.38,3.95v-1.72H130.8a45.46,45.46,0,0,0,4.28-7.71c1.44-3.65,7.3-4.7,7.3-4.7l2,1.28a14,14,0,0,1,5.62-1.42V173.22c-4.9,0-7.33-1-8.48-1.87a1.45,1.45,0,0,0-1.88.16,5.18,5.18,0,0,1-3.59,1.71c-2.75,0-2.09-1.09-5.07-1.09s-13.87,11-13.87,12.48,2.14,1.95,2.14,4.32S111.13,203.39,112,204.28Zm6-2.68s3-6,9.75-7a12.52,12.52,0,0,1,10.8,3.65l-3.23.55s2.3,3.35,4.76,3.35a11.86,11.86,0,0,0,5-1.42,17.38,17.38,0,0,1,2.78,9.82c0,6.13-.35,8-1.29,8-1.93,0-5.08-4.2-5.08-4.2s-1,.16-3.8,2.2a18,18,0,0,0-4.44,4.66s1.76-6.87,4.18-8.44,2.95-1.67,2.95-2.63-.88-2.91-3.87-2.91-3.33-6.93-6.7-6.93a11.92,11.92,0,0,1-6.16-2,18.18,18.18,0,0,0-2.88,1.15A16.56,16.56,0,0,0,118,201.6Z" transform="translate(0)" fill="#212121"/><path d="M76.16,173.51c0,8.3,2,11.72,8.83,15.66A56.27,56.27,0,0,1,98.42,199.7c3.27,3.37,7.92,3.8,9.25,5.13s9-12.81,9-15.47c0-2.09-3.14-4.9-6-8.78s-8.48-13.19-13.27-16-15.38-5.74-17.89-5.74S76.16,165.2,76.16,173.51Zm13-7.44c7,2,12.67,9,14.32,13s3.23,7.7,6.57,7.48c1.37-.09,2.5-.08,2.59,1.31s-2.48,7.54-8.55,7.93-6.65-1.24-5.81-2.19,2.84-2.33.38-2.17-5.47-1-4.18-2.51,5-2.75,2.55-2.59-4.11.14-5.53-1.11-2.59-2,2.59-2.34,3.26-2.37-.47-5.64-6.34-2.77-3.47-2.95,5.39.54,4.23-.2-3.07-1.69-6.83-1.45,2-1.34.49-4.1S82.12,164.09,89.13,166.07Z" transform="translate(0)" fill="#212121"/></g></g><g id="frame"><rect width="300" height="300" fill="none"/></g></svg>