<svg xmlns="http://www.w3.org/2000/svg" viewBox="0 0 30 30"><path d="M15,21.83c.29,0,.5-.51,1-.51a17.41,17.41,0,0,0,2.71.68,3,3,0,0,0,1.94-1.12,4.75,4.75,0,0,1-1.21,1.92c-.74.54-3.17.83-4.39.83Z" transform="translate(0)" fill="#212121"/><path d="M15.92,28.83A3.32,3.32,0,0,0,16.39,30l1.35-1.15.35.88a18.86,18.86,0,0,0,1.86-1c.6-.39,1-.75,1-.75l.16.73a12,12,0,0,0,2.38-2.15,9.16,9.16,0,0,0,1.32-1.89l.6.92a5.83,5.83,0,0,0,.83-1.53,7.28,7.28,0,0,0,.23-1.49l.53.55a4.34,4.34,0,0,0,.31-1.7c0-1-.31-1.89-.53-1.89s-.64,1-2.34,2.63a22.78,22.78,0,0,1-4.23,3.27,13.33,13.33,0,0,1-1.76.81C18.1,26.49,15.92,28.44,15.92,28.83Z" transform="translate(0)" fill="#212121"/><path d="M26.68,6.48c.36,0,1.39-1.43,1.88-2.42A2.92,2.92,0,0,0,29,1.76,2.62,2.62,0,0,0,27.19.49,8,8,0,0,0,25,.73l.69-.46a6.21,6.21,0,0,0-.95.18c-.4.13-.67.24-.67.24l.57-.45a3.63,3.63,0,0,0-1.44.68c-.66.53-1.09.89-1.09,1.19s.14.13.51.52.43.37.84.37a3.47,3.47,0,0,1,1.05.27A2.63,2.63,0,0,0,24,2.79l-.56-.32L25.09,3a6.61,6.61,0,0,0-.66-.51,4.89,4.89,0,0,0-.75-.36l1.45.28-1-.56a.4.4,0,0,1,.33-.13c.24,0,.14,0,.38,0a6.32,6.32,0,0,1,1.49-.36c.75,0,1.94.44,1.94,1.19S27.45,4,26.9,4.4A3.31,3.31,0,0,1,25.63,5c-.36,0-.36.07,0,.33S26.46,6.48,26.68,6.48Z" transform="translate(0)" fill="#212121"/><path d="M20.09,11A1.49,1.49,0,0,0,21.58,9.5a1.58,1.58,0,0,0-.12-.58l-.39,0-.39,0a.81.81,0,0,1,.24.58.84.84,0,0,1-.83.84.85.85,0,0,1-.84-.84v0a2.82,2.82,0,0,0-.56.53A1.49,1.49,0,0,0,20.09,11Z" transform="translate(0)" fill="#212121"/><path d="M28,11a14,14,0,0,0-1.36-2.09C26.31,8.27,25.33,7,24.8,6.25a36.84,36.84,0,0,0-2.48-3.09C21.49,2.27,21.18,2,20.81,2s-.55.22-.8.22-.38,0-.38-.15.31-.25.31-.5S19.25.68,18.77.68s-.59.09-.59.25.22.2.22.34.05.24-.55.24S17,1.12,16.66.85s-.27-.26.17-.54S17,0,16.29,0,15.68.27,15,.27V8.72c.23.39.39.72.58.72S16.3,9,16.3,9s.07,1.38-.12,1.38-.38-.19-.55-.19-.27-.13-.63.74v5.86c.37,0,.42.28.66.28a13.74,13.74,0,0,1,1.68-.45c.51,0,.45.57.62.57s.34-.19.34-1.42a3.72,3.72,0,0,0-.88-2.43C17,12.8,17,12.7,17,11.57a8.11,8.11,0,0,1,.06-1.38,2.82,2.82,0,0,0,.57.36c.1,0,.18-.08.43-.43a4.4,4.4,0,0,1,1.57-1.36,7.51,7.51,0,0,1,2.54-.19c1,0,1.6-.31,1.6-.54s-.16-.36-.61-.67-1.14-.21-1.6-.63-.22-1.83-.22-1.83a4.88,4.88,0,0,0,.35,1.52c.25.36,1,.31,1.6.6a2.22,2.22,0,0,1,1,1.25c0,.23-1.51.61-1.62.83A5.1,5.1,0,0,1,22,10.5a3.64,3.64,0,0,1-2.23,1.18c-.53,0-.86-.27-1.14-.27s-.7.73-.7,1.39.7,1.9.7,3.54-.77,2-.77,2a1.5,1.5,0,0,0,.07-.41c0-.21-.25-.38-.54-.38a.85.85,0,0,0-.7.4c-.24.3-.61.88-.42,1.07s1.17-.31,1.17-.31a4.84,4.84,0,0,1-.74.59c-.48.31-1,.23-1.13.36s-.1.43.22.8a4.64,4.64,0,0,0,2.67.67,2.67,2.67,0,0,0,2.37-1.88,39.84,39.84,0,0,0-1.29-4.6l1.51,2.47a5.2,5.2,0,0,1,1-1.37,4,4,0,0,1,1.55-.86,2.27,2.27,0,0,1,0,.63,1.6,1.6,0,0,1-.24.68l-.25-.2-.37,1.24-.33-.34A7.88,7.88,0,0,0,22,18a15.8,15.8,0,0,0-.44,3.17,10.58,10.58,0,0,0,.1,1.55,5.19,5.19,0,0,1,.51-.53,5.66,5.66,0,0,1,.64-.47l.18.52a4.52,4.52,0,0,0,.81-.84,5.39,5.39,0,0,0,.64-1.06l.2.48a4.5,4.5,0,0,0,.94-1.29A7.25,7.25,0,0,0,26.21,18l.21.88a6.29,6.29,0,0,0,1.27-2.05,6.76,6.76,0,0,0,.24-2.1l.26.51A5.92,5.92,0,0,0,28.11,14a8.29,8.29,0,0,0-.32-1.18l.51.58A8.23,8.23,0,0,0,28,11ZM15.54,2.41c0-.61.1-.8.28-.8s.65.55.65,1.18-.22.69-.35.69A1.22,1.22,0,0,1,15.54,2.41Zm.32,5.92c-.21,0-.26-.08-.26-.25s.18-.44.27-.44c.26,0,.45.13.45.31S16.07,8.33,15.86,8.33Zm.75-.87c-.23,0-.89-.45-.89-.68S16,6,16,5.69a2.7,2.7,0,0,0-.25-.92c-.12-.34-.09-.76.1-.76a.48.48,0,0,1,.52.33c.07.27.12.57.33.57S17,5,17,5.27s-.4,1.13-.26,1.27.46,0,.46.22S16.84,7.46,16.61,7.46ZM17,9a.63.63,0,0,1,0-.62c.13-.13.38,0,.54.2s.12.36,0,.44A.58.58,0,0,1,17,9Zm.46.87c-.16,0-.31-.07-.31-.27s.31-.3.4-.3.19.05.19.31S17.63,9.91,17.47,9.91Zm.45-6.07c-.15-.15-.41,0-.71-.11s-.37-.29-.37-.81a.93.93,0,0,1,.92-1,2.18,2.18,0,0,1,1.09.25c.22.13.19.55.19.78s.68.36.68.64-.28.46-.28.67.22.22.61.22.51,0,.51.36-.07.95-.53.95a1.88,1.88,0,0,1-1.4-.62C18.3,4.75,18.07,4,17.92,3.84Zm2.06,4c-.19.13-.1.3-.25.46s-.54.1-1,.1a.52.52,0,0,1-.59-.56c0-.19.32-.41.44-.53a.28.28,0,0,1,.38,0c.11.09.35.09.48-.19s.48-.4.91-.4.7.27.7.5a.69.69,0,0,1-.52.52A1,1,0,0,0,20,7.81Zm1.7-.26c.3,0,.59,0,.59.35s-.47.45-.93.45-.73.05-.73-.15S21.37,7.55,21.68,7.55Zm-.33-3.18c-.27,0-1-.66-1-1A.55.55,0,0,1,20.91,3c.29,0,.82.37.82.69S21.61,4.37,21.35,4.37Zm2.13,2c-.19,0-1.36-.58-1.36-.9s.62-1,.94-1,1,1,1,1.31A.66.66,0,0,1,23.48,6.38ZM18.53,20.27c-.23,0-.56-.42-.31-.68s.62.09.62.37S18.75,20.27,18.53,20.27Zm1.26-1.22c0,.17-.4.42-.57.42a.46.46,0,0,1-.37-.39.51.51,0,0,1,.45-.3C19.53,18.78,19.79,18.87,19.79,19.05ZM22,13.21c-.22,0-.84-.25-.84-.45s.56-.59.86-.59a.52.52,0,0,1,0,1ZM25.23,7.8a.43.43,0,0,1,.48.48c0,.32-.13.3-.3.3A.48.48,0,0,1,25,8.12C25,7.83,25.1,7.8,25.23,7.8Zm-1.59,5.33c-.32,0-.41-.12-.41-.35a.48.48,0,0,1,.43-.43c.33,0,.4.11.4.36A.37.37,0,0,1,23.64,13.13Zm.53-1.33c-.21,0-.39,0-.39-.27a.53.53,0,0,1,.41-.45c.24,0,.27.15.27.34S24.39,11.8,24.17,11.8Zm.54-1.52c0,.22-.36.39-.63.39a.44.44,0,0,1-.48-.41c0-.23.16-.29.29-.66a.88.88,0,0,1,.54-.55,1,1,0,0,1,.51-.18c.32,0,.26.22.49.45s.55.08.69.22a.56.56,0,0,1,0,.68.52.52,0,0,1-.44.2c-.18,0-.28-.07-.28-.26s-.18-.28-.4-.28S24.71,10.06,24.71,10.28Zm1.06,2.49c-.2,0-.78-.38-.78-.76s.18-.6.35-.6.23.06.38.06.21,0,.21-.21a.41.41,0,0,1,.45-.4.4.4,0,0,1,.4.43c0,.16-.19.31-.42.53s-.34.33-.34.58S26,12.77,25.77,12.77Zm1.22.84a1,1,0,0,1-.65.37c-.23,0-.26,0-.26-.29a2.69,2.69,0,0,1,.85-1.42c.18,0,.26.25.26.54A1.07,1.07,0,0,1,27,13.61Z" transform="translate(0)" fill="#212121"/><path d="M15,21.83c-.29,0-.5-.51-1-.51a17.41,17.41,0,0,1-2.71.68A3,3,0,0,1,9.4,20.88a4.75,4.75,0,0,0,1.21,1.92c.74.54,3.17.83,4.39.83Z" transform="translate(0)" fill="#212121"/><path d="M14.08,28.83A3.32,3.32,0,0,1,13.61,30l-1.35-1.15-.35.88a18.86,18.86,0,0,1-1.86-1c-.6-.39-1-.75-1-.75l-.16.73a12,12,0,0,1-2.38-2.15A9.16,9.16,0,0,1,5.15,24.7l-.6.92a5.83,5.83,0,0,1-.83-1.53,7.28,7.28,0,0,1-.23-1.49L3,23.15a4.34,4.34,0,0,1-.31-1.7c0-1,.31-1.89.53-1.89s.64,1,2.34,2.63a22.78,22.78,0,0,0,4.23,3.27,13.33,13.33,0,0,0,1.76.81C11.9,26.49,14.08,28.44,14.08,28.83Z" transform="translate(0)" fill="#212121"/><path d="M3.32,6.48C3,6.48,1.93,5.05,1.44,4.06A2.92,2.92,0,0,1,1,1.76,2.62,2.62,0,0,1,2.81.49,8,8,0,0,1,5,.73L4.29.27a6.21,6.21,0,0,1,1,.18c.4.13.67.24.67.24L5.34.24A3.63,3.63,0,0,1,6.78.92c.66.53,1.09.89,1.09,1.19s-.14.13-.51.52S6.93,3,6.52,3a3.47,3.47,0,0,0-1,.27A2.63,2.63,0,0,1,6,2.79l.56-.32L4.91,3a6.61,6.61,0,0,1,.66-.51,4.89,4.89,0,0,1,.75-.36l-1.45.28,1-.56a.4.4,0,0,0-.33-.13c-.24,0-.14,0-.38,0a6.32,6.32,0,0,0-1.49-.36c-.75,0-1.94.44-1.94,1.19S2.55,4,3.1,4.4A3.31,3.31,0,0,0,4.37,5c.36,0,.36.07,0,.33S3.54,6.48,3.32,6.48Z" transform="translate(0)" fill="#212121"/><path d="M9.91,11A1.49,1.49,0,0,1,8.42,9.5a1.58,1.58,0,0,1,.12-.58l.39,0,.39,0a.81.81,0,0,0-.24.58.84.84,0,0,0,.83.84.85.85,0,0,0,.84-.84v0a2.82,2.82,0,0,1,.56.53A1.49,1.49,0,0,1,9.91,11Z" transform="translate(0)" fill="#212121"/><path d="M1.7,13.43l.51-.58A8.29,8.29,0,0,0,1.89,14a5.92,5.92,0,0,0-.08,1.21l.26-.51a6.76,6.76,0,0,0,.24,2.1,6.29,6.29,0,0,0,1.27,2.05L3.79,18a7.25,7.25,0,0,0,.63,1.55,4.5,4.5,0,0,0,.94,1.29l.2-.48a5.39,5.39,0,0,0,.64,1.06,4.52,4.52,0,0,0,.81.84l.18-.52a5.66,5.66,0,0,1,.64.47,5.19,5.19,0,0,1,.51.53,10.58,10.58,0,0,0,.1-1.55A15.8,15.8,0,0,0,8,18a7.88,7.88,0,0,0-.47-1.11l-.33.34L6.83,16l-.25.2a1.6,1.6,0,0,1-.24-.68,2.27,2.27,0,0,1,0-.63,4,4,0,0,1,1.55.86,5.2,5.2,0,0,1,1,1.37l1.51-2.47a39.84,39.84,0,0,0-1.29,4.6,2.67,2.67,0,0,0,2.37,1.88,4.64,4.64,0,0,0,2.67-.67c.32-.37.35-.67.22-.8s-.65-.05-1.13-.36a4.84,4.84,0,0,1-.74-.59s1,.5,1.17.31-.18-.77-.42-1.07a.85.85,0,0,0-.7-.4c-.29,0-.54.17-.54.38a1.5,1.5,0,0,0,.07.41s-.77-.38-.77-2,.7-2.89.7-3.54-.42-1.39-.7-1.39-.61.27-1.14.27A3.64,3.64,0,0,1,8,10.5a5.1,5.1,0,0,1-.73-1.4c-.11-.22-1.62-.6-1.62-.83A2.22,2.22,0,0,1,6.68,7c.56-.29,1.35-.24,1.6-.6A4.88,4.88,0,0,0,8.63,4.9s.24,1.4-.22,1.83-1.14.32-1.6.63S6.2,7.8,6.2,8s.58.54,1.6.54a7.51,7.51,0,0,1,2.54.19,4.4,4.4,0,0,1,1.57,1.36c.25.35.33.43.43.43a2.82,2.82,0,0,0,.57-.36A8.11,8.11,0,0,1,13,11.57c0,1.13,0,1.23-.39,1.75a3.72,3.72,0,0,0-.88,2.43c0,1.23.17,1.42.34,1.42s.11-.57.62-.57a13.74,13.74,0,0,1,1.68.45c.24,0,.29-.28.66-.28V10.91c-.36-.87-.46-.74-.63-.74s-.35.19-.55.19S13.7,9,13.7,9s.53.46.72.46.35-.33.58-.72V.27c-.68,0-.54-.27-1.29-.27s-1,0-.54.31.55.28.17.54-.58.66-1.19.66-.55-.1-.55-.24.22-.18.22-.34-.11-.25-.59-.25-1.17.59-1.17.84.31.34.31.5-.13.15-.38.15S9.56,2,9.19,2s-.68.32-1.51,1.21A36.84,36.84,0,0,0,5.2,6.25c-.53.72-1.51,2-1.86,2.64A14,14,0,0,0,2,11,8.23,8.23,0,0,0,1.7,13.43ZM13.88,3.48c-.13,0-.35,0-.35-.69s.37-1.18.65-1.18.28.19.28.8A1.22,1.22,0,0,1,13.88,3.48ZM13.68,8c0-.18.19-.31.45-.31.09,0,.27.28.27.44s-.05.25-.26.25S13.68,8.14,13.68,8Zm-.87-1.19c0-.18.32-.08.46-.22S13,5.54,13,5.27s.1-.36.31-.36.26-.3.33-.57A.48.48,0,0,1,14.17,4c.19,0,.22.42.1.76a2.7,2.7,0,0,0-.25.92c0,.34.26.85.26,1.09s-.66.68-.89.68S12.81,6.94,12.81,6.76Zm-.36,2.3c-.08-.08-.13-.22,0-.44s.41-.33.54-.2A.63.63,0,0,1,13,9,.58.58,0,0,1,12.45,9.06Zm-.2.59c0-.26.11-.31.19-.31s.4.15.4.3-.15.27-.31.27S12.25,9.9,12.25,9.65Zm-.88-4.5a1.88,1.88,0,0,1-1.4.62c-.46,0-.53-.55-.53-.95s.12-.36.51-.36.61,0,.61-.22-.28-.4-.28-.67.68-.41.68-.64,0-.65.19-.78a2.18,2.18,0,0,1,1.09-.25.93.93,0,0,1,.92,1c0,.52-.06.68-.37.81s-.56,0-.71.11S11.7,4.75,11.37,5.15ZM9.48,7.68A.69.69,0,0,1,9,7.16c0-.23.26-.5.7-.5s.78.12.91.4.37.28.48.19a.28.28,0,0,1,.38,0c.12.12.44.34.44.53a.52.52,0,0,1-.59.56c-.47,0-.85.06-1-.1s-.06-.33-.25-.46A1,1,0,0,0,9.48,7.68Zm-.09.52c0,.2-.28.15-.73.15s-.93-.15-.93-.45.29-.35.59-.35S9.39,8,9.39,8.2ZM8.27,3.71c0-.32.53-.69.82-.69a.55.55,0,0,1,.53.37c0,.32-.7,1-1,1S8.27,4,8.27,3.71ZM6,5.81c0-.28.63-1.31,1-1.31s.94.77.94,1-1.17.9-1.36.9A.66.66,0,0,1,6,5.81ZM11.16,20c0-.28.45-.53.62-.37s-.08.68-.31.68S11.16,20.24,11.16,20Zm-.46-1.18a.51.51,0,0,1,.45.3.46.46,0,0,1-.37.39c-.17,0-.57-.25-.57-.42S10.47,18.78,10.7,18.78ZM7.57,12.7A.56.56,0,0,1,8,12.17c.3,0,.86.39.86.59s-.62.45-.84.45A.55.55,0,0,1,7.57,12.7ZM5,8.12a.48.48,0,0,1-.44.46c-.17,0-.3,0-.3-.3a.43.43,0,0,1,.48-.48C4.9,7.8,5,7.83,5,8.12Zm.91,4.59c0-.25.07-.36.4-.36a.48.48,0,0,1,.43.43c0,.23-.09.35-.41.35A.37.37,0,0,1,5.94,12.71Zm-.4-1.29c0-.19,0-.34.27-.34a.53.53,0,0,1,.41.45c0,.26-.18.27-.39.27S5.54,11.6,5.54,11.42ZM5,9.88c-.22,0-.4.08-.4.28s-.1.26-.28.26a.52.52,0,0,1-.44-.2.56.56,0,0,1,0-.68c.14-.14.47,0,.69-.22s.17-.45.49-.45a1,1,0,0,1,.51.18.88.88,0,0,1,.54.55c.13.37.29.43.29.66a.44.44,0,0,1-.48.41c-.27,0-.63-.17-.63-.39S5.25,9.88,5,9.88ZM4,12.4c0-.25-.12-.35-.34-.58s-.42-.37-.42-.53a.4.4,0,0,1,.4-.43.41.41,0,0,1,.45.4c0,.19.06.21.21.21s.21-.06.38-.06.35.22.35.6-.58.76-.78.76S4,12.66,4,12.4Zm-1.17.41c0-.29.08-.54.26-.54a2.69,2.69,0,0,1,.85,1.42c0,.31,0,.29-.26.29A1,1,0,0,1,3,13.61,1.07,1.07,0,0,1,2.81,12.81Z" transform="translate(0)" fill="#212121"/><rect width="30" height="30" fill="none"/></svg>