<svg xmlns="http://www.w3.org/2000/svg" viewBox="0 0 30 30"><g id="snowgoose"><g id="right"><path d="M19.92,11.39a.35.35,0,0,0,0,.7.35.35,0,0,0,0-.7Z" transform="translate(0)" fill="#212121"/><path d="M22.54,7.76c-.26-.66-1-1.8-1.24-2.28a11.17,11.17,0,0,1-.67-2,7.18,7.18,0,0,0-.7-1.78A3.28,3.28,0,0,0,18.61.63,8.19,8.19,0,0,0,15,0V16.93c.12,0,.2,0,.29.08s.19.1.33-.06.14-.12.23.07.13.22.2.13,0-.18.31.09.31.21.2,0-.16-.32.1-.08.35.18.23,0,0-.22.19-.08.17,0,.13-.2.08-.28.21-.05.15-.27.18-.08.17.1.18-.05,0-.26.23-.3.18-.17.1-.4-.05-.26.15-.18.35.08.25,0a.75.75,0,0,1-.29-.42.18.18,0,0,1,.18-.2c.12,0,.21,0,.54.28s.82.74.82,1a8.61,8.61,0,0,1-.69,2.11,6.45,6.45,0,0,0-.62,1.54.61.61,0,0,0,.19.51.41.41,0,0,0,.46-.16c.15-.19.52-1.11.83-1.76a14.66,14.66,0,0,1,1.29-1.95,12.63,12.63,0,0,0,1.24-2.38,8.93,8.93,0,0,0,.67-3.59A7.61,7.61,0,0,0,22.54,7.76Zm-4.32,4.87c-.15.93-.1,1.52-.21,1.52s-.11-.45-.1-1.09a4.2,4.2,0,0,1,.37-1.79c.28-.6.86-1.36.93-1.29A25.62,25.62,0,0,0,18.22,12.63Zm1.29.88a.83.83,0,0,1-.72-.9,1.72,1.72,0,0,1,.64-1.36.82.82,0,0,1,1.34.8,1.47,1.47,0,0,1-.41,1.08A1.05,1.05,0,0,1,19.51,13.51Zm1.6.21c-.27.28-.72.54-.82.45s.42-.18.71-.71a2.58,2.58,0,0,0,.38-1.27c0-.3-.11-.5,0-.5s.22.42.22.89A1.66,1.66,0,0,1,21.11,13.72Z" transform="translate(0)" fill="#212121"/><path d="M19.41,16.63a1.45,1.45,0,0,0-.56-.92c-.25-.24-.52-.37-.26-.07s.23.43.05.45-.21.11-.2.25a.22.22,0,0,1-.24.25c-.16,0-.2.11-.21.21a.31.31,0,0,1-.28.25c-.14,0-.27,0-.26.17s-.1.16-.19.15-.18.05-.18.12-.3,0-.3,0-.16.16-.32,0-.27-.23-.39-.14-.27.12-.35-.05-.13-.18-.23-.06-.3,0-.49,0V30a3.06,3.06,0,0,0,2.07-1,2.57,2.57,0,0,0,.55-1.87A13.38,13.38,0,0,1,18.16,24a18.17,18.17,0,0,0,.41-2.33c.05-.49.06-.62-.16-.84a.85.85,0,0,1-.28-.61,10.6,10.6,0,0,1,.7-1.72A5.86,5.86,0,0,0,19.41,16.63Zm-3.07,2.63a3,3,0,0,1,.5-.91c.05,0,0,.17-.17.53a4.53,4.53,0,0,0-.37,1.59c0,.7,0,1-.09,1a3.78,3.78,0,0,1-.06-1A3.38,3.38,0,0,1,16.34,19.26Zm1.05,7.6s-.2-.15-.46-.33a2.6,2.6,0,0,0-.9-.44c-.32-.08-.58-.05-.58-.16s.32-.06.63,0a1.35,1.35,0,0,1,.81.36C17.23,26.52,17.45,26.79,17.39,26.86Zm-.11-6.79c-.2.33-.32.94-.44.94s-.13-.08-.12-.68S16.9,19,17,19s.06.18.26.32.26.17.26.29S17.48,19.74,17.28,20.07Z" transform="translate(0)" fill="#212121"/></g><g id="left"><path d="M10.08,11.39a.35.35,0,0,1,0,.7.35.35,0,0,1,0-.7Z" transform="translate(0)" fill="#212121"/><path d="M6.87,10.88a8.93,8.93,0,0,0,.67,3.59,12.63,12.63,0,0,0,1.24,2.38,14.66,14.66,0,0,1,1.29,1.95c.31.65.68,1.57.83,1.76a.41.41,0,0,0,.46.16.61.61,0,0,0,.19-.51,6.45,6.45,0,0,0-.62-1.54,8.61,8.61,0,0,1-.69-2.11c0-.31.49-.76.82-1s.42-.28.54-.28a.18.18,0,0,1,.18.2.75.75,0,0,1-.29.42c-.1.06.06.07.25,0s.23-.05.15.18-.14.36.1.4.22.15.23.3.14.23.18.05,0,.31.18.08.26-.15.21.05-.07.34.13.2.32-.11.19.08,0,.25.23,0,.22-.12.1.08-.1.25.2,0,.25-.17.31-.09.1.06.2-.13.09-.23.23-.07.24.17.33.06.17-.08.29-.08V0a8.19,8.19,0,0,0-3.61.63,3.28,3.28,0,0,0-1.32,1.12,7.18,7.18,0,0,0-.7,1.78,11.17,11.17,0,0,1-.67,2c-.24.48-1,1.62-1.24,2.28A7.61,7.61,0,0,0,6.87,10.88Zm3.92-.9c.07-.07.65.69.93,1.29a4.2,4.2,0,0,1,.37,1.79c0,.64,0,1.09-.1,1.09s-.06-.59-.21-1.52A25.62,25.62,0,0,0,10.79,10ZM9.64,13.13a1.47,1.47,0,0,1-.41-1.08.91.91,0,0,1,.39-.89.91.91,0,0,1,1,.09,1.72,1.72,0,0,1,.64,1.36.83.83,0,0,1-.72.9A1.05,1.05,0,0,1,9.64,13.13Zm-1.23-.55c0-.47.11-.89.22-.89s0,.2,0,.5A2.58,2.58,0,0,0,9,13.46c.29.53.8.61.71.71s-.55-.17-.82-.45A1.66,1.66,0,0,1,8.41,12.58Z" transform="translate(0)" fill="#212121"/><path d="M11.17,18.48a10.6,10.6,0,0,1,.7,1.72.85.85,0,0,1-.28.61c-.22.22-.21.35-.16.84A18.17,18.17,0,0,0,11.84,24a13.38,13.38,0,0,1,.54,3.11A2.57,2.57,0,0,0,12.93,29,3.06,3.06,0,0,0,15,30V17.28c-.19,0-.4.16-.49,0s-.16-.11-.23.06-.23.14-.35.05-.23,0-.39.14-.32.05-.32,0-.3,0-.3,0-.08-.13-.18-.12-.21,0-.19-.15-.12-.16-.26-.17A.31.31,0,0,1,12,16.8c0-.1,0-.21-.21-.21a.22.22,0,0,1-.24-.25c0-.14,0-.23-.2-.25s-.22-.15.05-.45,0-.17-.26.07a1.45,1.45,0,0,0-.56.92A5.86,5.86,0,0,0,11.17,18.48Zm2.68,2a3.78,3.78,0,0,1-.06,1s0-.32-.09-1a4.53,4.53,0,0,0-.37-1.59c-.16-.36-.22-.49-.17-.53a3,3,0,0,1,.5.91A3.38,3.38,0,0,1,13.85,20.49Zm-.74,5.77a1.35,1.35,0,0,1,.81-.36c.31,0,.63,0,.63,0s-.26.08-.58.16a2.6,2.6,0,0,0-.9.44c-.26.18-.42.36-.46.33S12.77,26.52,13.11,26.26Zm-.67-6.61c0-.12.05-.16.26-.29S12.83,19,13,19s.31.7.32,1.29,0,.68-.12.68-.24-.61-.44-.94S12.44,19.77,12.44,19.65Z" transform="translate(0)" fill="#212121"/></g></g><g id="frame"><rect width="30" height="30" fill="none"/></g></svg>