<!-- Copyright (c) 2023 Jan Stehno -->
<svg xmlns="http://www.w3.org/2000/svg" viewBox="0 0 300 300">
    <title>southeasternspanishibex</title>
    <g id="southeasternspanishibex">
        <g id="right">
            <path
                d="M194.8,167.4a63.47,63.47,0,0,0-6.52,1.92,7,7,0,0,1,2.88-3.4c2-.95,5.55-1.68,7.4-3.54s1-13.69,1-13.69-1.69,4.29-4.51,6.5-9,8-12.41,15-2.75,9.39-3.82,15a24.87,24.87,0,0,1-3.82,9.34,72.37,72.37,0,0,0,2.07-16.6,68.15,68.15,0,0,0-1.95-16,6.34,6.34,0,0,1,2.45,3.28,37.43,37.43,0,0,1,.94,5.36,94.83,94.83,0,0,1,4.88-10.66c2.7-4.85,6.33-6.18,10.53-9.27s4.32-7.89,4.32-12.87-1.06-4.92-17.92-11.92S156.13,120,150,120V234.49c2,0,3.38-1.64,4.89-3.16s3.35-1.92,5.45-4,3.19-9.91,3.19-9.91A41.73,41.73,0,0,0,164.6,223c.5,1.26,1.71,2.09,1.71,3.7s-.59,3.34-5,7.76-7.75,5.63-11.32,5.63v12.78c2,2,10.15.66,16.63-4.36s8.09-12.58,8.09-21,4.13-22.33,6.95-25.55,8.15-12,8.15-15.14-2.67-2.53-4.58-4.45-1.88-6.75-1.88-6.75a11.42,11.42,0,0,0,2.85,4.35c2.24,2.26,8,2.68,10.56.07s1.94-12.43,1.63-13S197,167,194.8,167.4Zm-1,11.7c-2.67,1.1-6.49-1.45-6.49-1.45s3.86.72,6.17-.76a9.85,9.85,0,0,0,3.39-4.1S196.49,178,193.83,179.1Z"
                transform="translate(0)" fill="#212121" />
            <path
                d="M150,256c3.51,0,3.07.44,6,.44s10-4.73,11.72-4.73,1.07,5.23-5,8.77-7.58,5.23-12.72,5.23Z"
                transform="translate(0)" fill="#212121" />
            <path
                d="M202.88,162.64c1.35,1.35,6.83-5.68,17.61-5.68s15.16.06,15.16-1.52-2.57-1.76-2.57-3.53,17.92-2.27,15.54.38-6.89,7.07-11.28,9-9.71,10.22-17.36,10.22-13.78-1.83-14.34-1.26S209.15,176,218,176s15.85-6.81,19.49-10.41,9.27-4.1,14-8.83,6.2-6.75,2.32-8.45-20.49-7.95-28.58-7.95-18.82.53-20,1.7.56,11.42-.57,14.7S202.13,161.88,202.88,162.64Z"
                transform="translate(0)" fill="#212121" />
            <path
                d="M171.7,117.2c1.81,1.81,20.76,10.73,22.76,10.73s1.66-3.54,3.19-7.37,3-5.25,3-6.66-5.43-2.54-11.39-10.09S181.2,90,179.84,90s-3.77,7.73-5.6,14.81S171.2,116.7,171.7,117.2Z"
                transform="translate(0)" fill="#212121" />
            <path
                d="M181.49,86c0,2,5.18,9.73,9.95,15.39s8.27,8.76,10,8.76,7.74-11.15,7.74-13S205,92.05,199,84s-6.28-11.36-8.09-11.36S181.49,84.53,181.49,86Z"
                transform="translate(0)" fill="#212121" />
            <path
                d="M193.43,70.24c0,1.64,3,5.84,7.83,12s7.25,9.18,8.8,9.18,7.12-6.88,7.12-8.6-2.52-4.07-5.53-12-4.2-13.89-5.88-13.89S193.43,67.9,193.43,70.24Z"
                transform="translate(0)" fill="#212121" />
            <path
                d="M208.82,55.12c0,1.63,8.58,23.62,10,23.62s6-3.32,6.5-4.78-.27-3.58-.45-14.46-.11-12.06-1.06-13S208.82,53,208.82,55.12Z"
                transform="translate(0)" fill="#212121" />
            <path
                d="M227.13,45.74c.76-1.61,5.53-2.25,9.2-3s5.93-2,5.31,2.12-3.47,20.32-4.38,21.23-1.63-.09-5,1.59-4.51,4.82-4.77.62S226.78,46.49,227.13,45.74Z"
                transform="translate(0)" fill="#212121" />
            <path
                d="M244.6,42.78c.71-.75,4.38-.09,7.88,1.5s5.22,2.61,5.22,3.89-1.32,6.46-4.56,11.12a56.93,56.93,0,0,1-4.69,6.31c-.48.49-7.76.77-8.53,0S243.81,43.62,244.6,42.78Z"
                transform="translate(0)" fill="#212121" />
            <path
                d="M260.31,52c1.75,0,4.2,12.12,4.2,15.61s-.18,3.63-6.19,11.15-7.3,8-9,8-5.14-6-7.55-9.11-2.84-4.47-2.84-5.84-.49-2.45,7.47-2.45,10.26.55,10.26.55a9.13,9.13,0,0,0-3.58-2.39c-1.9-.53-3.67-.4-1.86-2a31.71,31.71,0,0,0,5.93-7.12C258.85,55.38,259,52,260.31,52Z"
                transform="translate(0)" fill="#212121" />
            <path
                d="M251.7,89.75c0,1.37,5,9.33,8.12,9.33s9-2,9-7.38S266.14,77.28,266,74.36s-1.15-.49-3.32,3.67-4.33,7.25-6.54,9.11S251.7,88.51,251.7,89.75Z"
                transform="translate(0)" fill="#212121" />
            <path
                d="M261,102.22c0,1.68,11.41,10.31,13.75,10.31s3.37-3.14,3.37-4.82-3-5.18-4.34-7.3-1.24-7.48-3.8-3.89-5,4.64-6.5,5.08S261,101.56,261,102.22Z"
                transform="translate(0)" fill="#212121" />
            <path
                d="M281.23,108.86c1.32,0,2.65,2.78,7.65,2.78s11.05-3.4,6.72.89-11.68,3.89-14.37,2.92-2.75-1.64-1.68-4S280.7,108.86,281.23,108.86Z"
                transform="translate(0)" fill="#212121" />
            <path
                d="M298.64,106.64c.87-2,3-5.86-.95-2.72A17.35,17.35,0,0,1,287,108.06c-3.3.12-2,1.68,3.48,1.68C293.15,109.74,298.14,107.82,298.64,106.64Z"
                transform="translate(0)" fill="#212121" />
            <path
                d="M166.54,115.53c1.31-1.3,1.11-6.94,3.5-13.88s5.66-11.15,5.66-13.23-8.85,2.74-13,3.63-4.2,4.78-5.31,12.07-1.5,9.73,2,10.8S165.7,116.37,166.54,115.53Z"
                transform="translate(0)" fill="#212121" />
            <path
                d="M161.68,87.91c.9.9,4.91-1,9.24-2.32s6.63-.93,7.83-1.94,3.18-5.71,5.39-8.14,6.73-5.31,0-3.76a70.49,70.49,0,0,1-15.43,2.12c-3.27,0-3.27,1.42-4.87,4.87S161,87.25,161.68,87.91Z"
                transform="translate(0)" fill="#212121" />
            <path
                d="M170,70c0,1.52,3.36,1.37,9.33,0s10.3.18,12.69-3.18a66.84,66.84,0,0,1,9.51-10c2.3-1.9,1.2-2.08-4.11-1.29s-11.24-.08-12.87-.79-4.29,1.24-7.87,6.06S170,68.39,170,70Z"
                transform="translate(0)" fill="#212121" />
            <path
                d="M188,51.89c0,1.77,3.05,1.5,9.06,1s8.41,1.1,11.81-1.6A42.19,42.19,0,0,1,220,44.86c3.14-1,.31-1.37-6.54-1.15s-8.85-.67-10.26-2.08-4.43.26-8.94,4.2S188,50.74,188,51.89Z"
                transform="translate(0)" fill="#212121" />
            <path
                d="M207.72,40.21c0,1.73,3.54.69,9.73.92s6.41,1.34,8.4,1.34,3.41-1.58,8.77-2.26,7.95-.91,4.27-2.68a30.38,30.38,0,0,0-13.45-3.24C220.06,34.29,207.72,38,207.72,40.21Z"
                transform="translate(0)" fill="#212121" />
            <path
                d="M244.3,39.92c1,.48,4.8.77,7.22,1.8s5.34,1.44.77-1.06-7.94-3.6-8.53-3A1.51,1.51,0,0,0,244.3,39.92Z"
                transform="translate(0)" fill="#212121" />
        </g>
        <g id="left">
            <path
                d="M101.6,167.08c-.31.54-1,10.35,1.63,13s8.32,2.19,10.56-.07a11.42,11.42,0,0,0,2.85-4.35s0,4.83-1.88,6.75-4.58,1.33-4.58,4.45,5.33,11.92,8.15,15.14,7,17.12,7,25.55,1.6,16,8.09,21S148,254.89,150,252.88V240.1c-3.57,0-6.93-1.2-11.32-5.63s-5-6.15-5-7.76,1.21-2.44,1.71-3.7a41.73,41.73,0,0,0,1.07-5.62s1.09,7.79,3.19,9.91,4,2.52,5.45,4,2.89,3.16,4.89,3.16V120c-6.13,0-13.47-1.09-30.32,5.91s-17.92,6.94-17.92,11.92.12,9.78,4.32,12.87,7.83,4.42,10.53,9.27a94.83,94.83,0,0,1,4.88,10.66,37.43,37.43,0,0,1,.94-5.36,6.34,6.34,0,0,1,2.45-3.28,68.15,68.15,0,0,0-1.95,16,72.37,72.37,0,0,0,2.07,16.6,24.87,24.87,0,0,1-3.82-9.34c-1.07-5.62-.38-8-3.82-15s-9.59-12.81-12.41-15-4.51-6.5-4.51-6.5-.85,11.83,1,13.69,5.45,2.59,7.4,3.54a7,7,0,0,1,2.88,3.4,63.47,63.47,0,0,0-6.52-1.92C103,167,101.91,166.55,101.6,167.08Zm1.5,5.71a9.85,9.85,0,0,0,3.39,4.1c2.31,1.48,6.17.76,6.17.76s-3.82,2.55-6.49,1.45S103.1,172.79,103.1,172.79Z"
                transform="translate(0)" fill="#212121" />
            <path
                d="M150,256c-3.51,0-3.07.44-6,.44s-10-4.73-11.72-4.73-1.07,5.23,5,8.77,7.58,5.23,12.72,5.23Z"
                transform="translate(0)" fill="#212121" />
            <path
                d="M97.12,162.64C95.77,164,90.29,157,79.51,157s-15.16.06-15.16-1.52,2.57-1.76,2.57-3.53-17.92-2.27-15.54.38,6.89,7.07,11.28,9S72.37,171.53,80,171.53s13.78-1.83,14.34-1.26S90.85,176,82,176,66.17,169.2,62.53,165.6s-9.27-4.1-14-8.83-6.2-6.75-2.32-8.45,20.49-7.95,28.58-7.95,18.82.53,20,1.7-.56,11.42.57,14.7S97.87,161.88,97.12,162.64Z"
                transform="translate(0)" fill="#212121" />
            <path
                d="M128.3,117.2c-1.81,1.81-20.76,10.73-22.76,10.73s-1.66-3.54-3.19-7.37-3-5.25-3-6.66,5.43-2.54,11.39-10.09S118.8,90,120.16,90s3.77,7.73,5.6,14.81S128.8,116.7,128.3,117.2Z"
                transform="translate(0)" fill="#212121" />
            <path
                d="M118.51,86c0,2-5.18,9.73-10,15.39s-8.27,8.76-10,8.76-7.74-11.15-7.74-13S95,92.05,101,84s6.28-11.36,8.09-11.36S118.51,84.53,118.51,86Z"
                transform="translate(0)" fill="#212121" />
            <path
                d="M106.57,70.24c0,1.64-3,5.84-7.83,12s-7.25,9.18-8.8,9.18-7.12-6.88-7.12-8.6,2.52-4.07,5.53-12,4.2-13.89,5.88-13.89S106.57,67.9,106.57,70.24Z"
                transform="translate(0)" fill="#212121" />
            <path
                d="M91.18,55.12c0,1.63-8.58,23.62-10,23.62s-6-3.32-6.5-4.78.27-3.58.45-14.46.11-12.06,1.06-13S91.18,53,91.18,55.12Z"
                transform="translate(0)" fill="#212121" />
            <path
                d="M72.87,45.74c-.76-1.61-5.53-2.25-9.2-3s-5.93-2-5.31,2.12,3.47,20.32,4.38,21.23,1.63-.09,5,1.59,4.51,4.82,4.77.62S73.22,46.49,72.87,45.74Z"
                transform="translate(0)" fill="#212121" />
            <path
                d="M55.4,42.78c-.71-.75-4.38-.09-7.88,1.5s-5.22,2.61-5.22,3.89,1.32,6.46,4.56,11.12a56.93,56.93,0,0,0,4.69,6.31c.48.49,7.76.77,8.53,0S56.19,43.62,55.4,42.78Z"
                transform="translate(0)" fill="#212121" />
            <path
                d="M39.69,52c-1.75,0-4.2,12.12-4.2,15.61s.18,3.63,6.19,11.15,7.3,8,9,8,5.14-6,7.55-9.11,2.84-4.47,2.84-5.84.49-2.45-7.47-2.45-10.26.55-10.26.55A9.13,9.13,0,0,1,47,67.46c1.9-.53,3.67-.4,1.86-2a31.71,31.71,0,0,1-5.93-7.12C41.15,55.38,41,52,39.69,52Z"
                transform="translate(0)" fill="#212121" />
            <path
                d="M48.3,89.75c0,1.37-5,9.33-8.12,9.33s-9-2-9-7.38S33.86,77.28,34,74.36s1.15-.49,3.32,3.67,4.33,7.25,6.54,9.11S48.3,88.51,48.3,89.75Z"
                transform="translate(0)" fill="#212121" />
            <path
                d="M39,102.22c0,1.68-11.41,10.31-13.75,10.31s-3.37-3.14-3.37-4.82,3-5.18,4.34-7.3,1.24-7.48,3.8-3.89,5,4.64,6.5,5.08S39,101.56,39,102.22Z"
                transform="translate(0)" fill="#212121" />
            <path
                d="M18.77,108.86c-1.32,0-2.65,2.78-7.65,2.78s-11-3.4-6.72.89,11.68,3.89,14.37,2.92,2.75-1.64,1.68-4S19.3,108.86,18.77,108.86Z"
                transform="translate(0)" fill="#212121" />
            <path
                d="M1.36,106.64c-.87-2-3-5.86,1-2.72A17.35,17.35,0,0,0,13,108.06c3.3.12,2,1.68-3.48,1.68C6.85,109.74,1.86,107.82,1.36,106.64Z"
                transform="translate(0)" fill="#212121" />
            <path
                d="M133.46,115.53c-1.31-1.3-1.11-6.94-3.5-13.88S124.3,90.5,124.3,88.42s8.85,2.74,13,3.63,4.2,4.78,5.31,12.07,1.5,9.73-2,10.8S134.3,116.37,133.46,115.53Z"
                transform="translate(0)" fill="#212121" />
            <path
                d="M138.32,87.91c-.9.9-4.91-1-9.24-2.32s-6.63-.93-7.83-1.94-3.18-5.71-5.39-8.14-6.73-5.31,0-3.76a70.49,70.49,0,0,0,15.43,2.12c3.27,0,3.27,1.42,4.87,4.87S139,87.25,138.32,87.91Z"
                transform="translate(0)" fill="#212121" />
            <path
                d="M130.05,70c0,1.52-3.36,1.37-9.33,0s-10.3.18-12.69-3.18a66.84,66.84,0,0,0-9.51-10c-2.3-1.9-1.2-2.08,4.11-1.29s11.24-.08,12.87-.79,4.29,1.24,7.87,6.06S130.05,68.39,130.05,70Z"
                transform="translate(0)" fill="#212121" />
            <path
                d="M112.05,51.89c0,1.77-3,1.5-9.06,1s-8.41,1.1-11.81-1.6A42.19,42.19,0,0,0,80,44.86c-3.14-1-.31-1.37,6.54-1.15s8.85-.67,10.26-2.08,4.43.26,8.94,4.2S112.05,50.74,112.05,51.89Z"
                transform="translate(0)" fill="#212121" />
            <path
                d="M92.28,40.21c0,1.73-3.54.69-9.73.92s-6.41,1.34-8.4,1.34-3.41-1.58-8.77-2.26-7.95-.91-4.27-2.68a30.38,30.38,0,0,1,13.45-3.24C79.94,34.29,92.28,38,92.28,40.21Z"
                transform="translate(0)" fill="#212121" />
            <path
                d="M55.7,39.92c-1,.48-4.8.77-7.22,1.8s-5.34,1.44-.77-1.06,7.94-3.6,8.53-3A1.51,1.51,0,0,1,55.7,39.92Z"
                transform="translate(0)" fill="#212121" />
        </g>
    </g>
    <g id="frame">
        <rect width="300" height="300" fill="none" />
    </g>
</svg>