<svg xmlns="http://www.w3.org/2000/svg" viewBox="0 0 30 30"><path d="M19.48,16.74a6.16,6.16,0,0,0-.65.19.69.69,0,0,1,.29-.34,2.76,2.76,0,0,0,.74-.35c.18-.19.1-1.37.1-1.37a1.75,1.75,0,0,1-.46.65A4.93,4.93,0,0,0,18.26,17a4.23,4.23,0,0,0-.38,1.5,2.46,2.46,0,0,1-.38.94,7.18,7.18,0,0,0,.21-1.66,6.69,6.69,0,0,0-.2-1.61.71.71,0,0,1,.25.33,3.93,3.93,0,0,1,.09.54A9.74,9.74,0,0,1,18.34,16c.27-.48.63-.62,1.05-.93s.43-.78.43-1.28-.1-.49-1.79-1.19A6.14,6.14,0,0,0,15,12V23.45c.2,0,.34-.17.49-.32s.33-.19.54-.4a2.6,2.6,0,0,0,.32-1,4.38,4.38,0,0,0,.11.56c.05.13.17.21.17.37s-.06.33-.5.78A1.51,1.51,0,0,1,15,24v1.28c.2.2,1,.06,1.66-.44a2.45,2.45,0,0,0,.81-2.1,5.71,5.71,0,0,1,.7-2.55A4,4,0,0,0,19,18.68c0-.31-.26-.25-.46-.44a1.17,1.17,0,0,1-.18-.68,1.18,1.18,0,0,0,.28.44.86.86,0,0,0,1.06,0c.26-.26.19-1.24.16-1.29S19.7,16.7,19.48,16.74Zm-.1,1.17c-.26.11-.65-.15-.65-.15a1,1,0,0,0,.62-.07,1,1,0,0,0,.34-.41S19.65,17.8,19.38,17.91Z" fill="#212121"/><path d="M15,25.6c.35,0,.31,0,.6,0s1-.47,1.17-.47.11.52-.5.88-.76.52-1.27.52Z" fill="#212121"/><path d="M20.29,16.26c.13.14.68-.56,1.76-.56s1.51,0,1.51-.16-.25-.17-.25-.35,1.79-.23,1.55,0a3.9,3.9,0,0,1-1.13.9c-.43.2-1,1-1.73,1S20.62,17,20.56,17s.35.57,1.24.57a3,3,0,0,0,1.95-1c.36-.36.92-.41,1.39-.88s.62-.68.24-.85A10.61,10.61,0,0,0,22.52,14a7.1,7.1,0,0,0-2,.17c-.12.11.06,1.14-.06,1.47S20.21,16.19,20.29,16.26Z" fill="#212121"/><path d="M17.17,11.72a12.36,12.36,0,0,0,2.28,1.07c.2,0,.16-.35.31-.73s.31-.53.31-.67-.55-.25-1.14-1S18.12,9,18,9s-.37.77-.56,1.48A4.69,4.69,0,0,0,17.17,11.72Z" fill="#212121"/><path d="M18.15,8.6a5.6,5.6,0,0,0,1,1.54c.48.56.83.87,1,.87s.78-1.11.78-1.3-.42-.51-1-1.31-.63-1.13-.81-1.13S18.15,8.45,18.15,8.6Z" fill="#212121"/><path d="M19.34,7a3.7,3.7,0,0,0,.79,1.2c.48.62.72.92.88.92a1.89,1.89,0,0,0,.71-.86c0-.17-.25-.41-.55-1.2s-.42-1.39-.59-1.39A4,4,0,0,0,19.34,7Z" fill="#212121"/><path d="M20.88,5.51a11.24,11.24,0,0,0,1,2.36,1.37,1.37,0,0,0,.65-.47A14.26,14.26,0,0,0,22.48,6c0-1.09,0-1.21-.1-1.3A3.18,3.18,0,0,0,20.88,5.51Z" fill="#212121"/><path d="M22.71,4.57c.08-.16.56-.22.92-.29s.6-.2.53.21a16.6,16.6,0,0,1-.43,2.12c-.09.09-.17,0-.5.16s-.45.48-.48.06S22.68,4.65,22.71,4.57Z" fill="#212121"/><path d="M24.46,4.28c.07-.08.44,0,.79.15s.52.26.52.39a2.58,2.58,0,0,1-.46,1.11c-.32.46-.42.58-.46.63a1.92,1.92,0,0,1-.86,0A11.56,11.56,0,0,1,24.46,4.28Z" fill="#212121"/><path d="M26,5.2c.18,0,.42,1.21.42,1.56s0,.36-.62,1.11-.73.8-.9.8-.52-.6-.76-.91-.28-.45-.28-.59-.05-.24.75-.24a6,6,0,0,1,1,.05.85.85,0,0,0-.35-.23c-.19-.06-.37,0-.19-.21a3.13,3.13,0,0,0,.59-.71C25.88,5.54,25.9,5.2,26,5.2Z" fill="#212121"/><path d="M25.17,9c0,.14.5.94.81.94s.9-.21.9-.74-.27-1.44-.28-1.73-.11-.05-.33.36a2.81,2.81,0,0,1-.66.91C25.39,8.9,25.17,8.85,25.17,9Z" fill="#212121"/><path d="M26.1,10.22a3.62,3.62,0,0,0,1.37,1c.24,0,.34-.31.34-.48s-.3-.52-.43-.73-.13-.75-.39-.39a1.16,1.16,0,0,1-.65.51C26.2,10.2,26.1,10.16,26.1,10.22Z" fill="#212121"/><path d="M28.12,10.89c.14,0,.27.27.77.27s1.1-.34.67.09a1.54,1.54,0,0,1-1.44.29c-.27-.09-.27-.16-.17-.39S28.07,10.89,28.12,10.89Z" fill="#212121"/><path d="M29.86,10.66c.09-.2.3-.58-.09-.27a1.76,1.76,0,0,1-1.07.42c-.33,0-.2.16.34.16A1.33,1.33,0,0,0,29.86,10.66Z" fill="#212121"/><path d="M16.65,11.55c.13-.13.11-.69.35-1.39s.57-1.11.57-1.32-.88.28-1.31.36-.42.48-.53,1.21-.15,1,.2,1.08S16.57,11.64,16.65,11.55Z" fill="#212121"/><path d="M16.17,8.79c.09.09.49-.09.92-.23s.67-.09.78-.2.32-.57.54-.81.68-.53,0-.38a7.12,7.12,0,0,1-1.54.22c-.33,0-.33.14-.49.48S16.1,8.73,16.17,8.79Z" fill="#212121"/><path d="M17,7c0,.15.34.14.94,0s1,0,1.27-.32a7,7,0,0,1,.95-1c.23-.19.12-.21-.41-.13a3.12,3.12,0,0,1-1.29-.08c-.16-.07-.43.12-.79.61S17,6.84,17,7Z" fill="#212121"/><path d="M18.79,5.19c0,.18.31.15.91.1s.84.11,1.18-.16A4.19,4.19,0,0,1,22,4.49c.32-.11,0-.14-.65-.12s-.89-.07-1-.21-.44,0-.89.42S18.79,5.07,18.79,5.19Z" fill="#212121"/><path d="M20.77,4c0,.17.36.07,1,.09a5.56,5.56,0,0,1,.85.14c.19,0,.34-.16.87-.23s.8-.09.43-.27a3.16,3.16,0,0,0-1.35-.32C22,3.43,20.77,3.8,20.77,4Z" fill="#212121"/><path d="M24.43,4c.1,0,.48.08.72.18s.54.15.08-.1-.79-.36-.85-.31A.15.15,0,0,0,24.43,4Z" fill="#212121"/><path d="M10.16,16.71c0,.05-.1,1,.16,1.29a.86.86,0,0,0,1.06,0,1.18,1.18,0,0,0,.28-.44,1.17,1.17,0,0,1-.18.68c-.2.19-.46.13-.46.44a4,4,0,0,0,.81,1.52,5.71,5.71,0,0,1,.7,2.55,2.45,2.45,0,0,0,.81,2.1c.64.5,1.46.64,1.66.44V24a1.51,1.51,0,0,1-1.13-.56c-.44-.45-.5-.62-.5-.78s.12-.24.17-.37a4.38,4.38,0,0,0,.11-.56,2.6,2.6,0,0,0,.32,1c.21.21.39.25.54.4s.29.32.49.32V12a6.14,6.14,0,0,0-3,.59c-1.69.7-1.79.69-1.79,1.19s0,1,.43,1.28.78.45,1.05.93a9.74,9.74,0,0,1,.49,1.07,3.93,3.93,0,0,1,.09-.54.71.71,0,0,1,.25-.33,6.69,6.69,0,0,0-.2,1.61,7.18,7.18,0,0,0,.21,1.66,2.46,2.46,0,0,1-.38-.94,4.23,4.23,0,0,0-.38-1.5,4.93,4.93,0,0,0-1.24-1.5,1.75,1.75,0,0,1-.46-.65s-.08,1.18.1,1.37a2.76,2.76,0,0,0,.74.35.69.69,0,0,1,.29.34,6.16,6.16,0,0,0-.65-.19C10.3,16.7,10.19,16.65,10.16,16.71Zm.15.57a1,1,0,0,0,.34.41,1,1,0,0,0,.62.07s-.39.26-.65.15S10.31,17.28,10.31,17.28Z" fill="#212121"/><path d="M15,25.6c-.35,0-.31,0-.6,0s-1-.47-1.17-.47-.11.52.5.88.76.52,1.27.52Z" fill="#212121"/><path d="M9.71,16.26C9.58,16.4,9,15.7,8,15.7s-1.51,0-1.51-.16.25-.17.25-.35-1.79-.23-1.55,0a3.9,3.9,0,0,0,1.13.9c.43.2,1,1,1.73,1S9.38,17,9.44,17s-.35.57-1.24.57a3,3,0,0,1-1.95-1c-.36-.36-.92-.41-1.39-.88s-.62-.68-.24-.85A10.61,10.61,0,0,1,7.48,14a7.1,7.1,0,0,1,2,.17c.12.11-.06,1.14.06,1.47S9.79,16.19,9.71,16.26Z" fill="#212121"/><path d="M12.83,11.72a12.36,12.36,0,0,1-2.28,1.07c-.2,0-.16-.35-.31-.73s-.31-.53-.31-.67.55-.25,1.14-1S11.88,9,12,9s.37.77.56,1.48A4.69,4.69,0,0,1,12.83,11.72Z" fill="#212121"/><path d="M11.85,8.6a5.6,5.6,0,0,1-1,1.54c-.48.56-.83.87-1,.87s-.78-1.11-.78-1.3.42-.51,1-1.31.63-1.13.81-1.13S11.85,8.45,11.85,8.6Z" fill="#212121"/><path d="M10.66,7a3.7,3.7,0,0,1-.79,1.2c-.48.62-.72.92-.88.92a1.89,1.89,0,0,1-.71-.86c0-.17.25-.41.55-1.2s.42-1.39.59-1.39A4,4,0,0,1,10.66,7Z" fill="#212121"/><path d="M9.12,5.51a11.24,11.24,0,0,1-1,2.36,1.37,1.37,0,0,1-.65-.47A14.26,14.26,0,0,1,7.52,6c0-1.09,0-1.21.1-1.3A3.18,3.18,0,0,1,9.12,5.51Z" fill="#212121"/><path d="M7.29,4.57c-.08-.16-.56-.22-.92-.29s-.6-.2-.53.21a16.6,16.6,0,0,0,.43,2.12c.09.09.17,0,.5.16s.45.48.48.06S7.32,4.65,7.29,4.57Z" fill="#212121"/><path d="M5.54,4.28c-.07-.08-.44,0-.79.15s-.52.26-.52.39a2.58,2.58,0,0,0,.46,1.11c.32.46.42.58.46.63a1.92,1.92,0,0,0,.86,0A11.56,11.56,0,0,0,5.54,4.28Z" fill="#212121"/><path d="M4,5.2c-.18,0-.42,1.21-.42,1.56s0,.36.62,1.11.73.8.9.8.52-.6.76-.91.28-.45.28-.59,0-.24-.75-.24a6,6,0,0,0-1,.05.85.85,0,0,1,.35-.23c.19-.06.37,0,.19-.21a3.13,3.13,0,0,1-.59-.71C4.12,5.54,4.1,5.2,4,5.2Z" fill="#212121"/><path d="M4.83,9c0,.14-.5.94-.81.94s-.9-.21-.9-.74.27-1.44.28-1.73.11-.05.33.36a2.81,2.81,0,0,0,.66.91C4.61,8.9,4.83,8.85,4.83,9Z" fill="#212121"/><path d="M3.9,10.22a3.62,3.62,0,0,1-1.37,1c-.24,0-.34-.31-.34-.48s.3-.52.43-.73.13-.75.39-.39a1.16,1.16,0,0,0,.65.51C3.8,10.2,3.9,10.16,3.9,10.22Z" fill="#212121"/><path d="M1.88,10.89c-.14,0-.27.27-.77.27s-1.1-.34-.67.09a1.54,1.54,0,0,0,1.44.29c.27-.09.27-.16.17-.39S1.93,10.89,1.88,10.89Z" fill="#212121"/><path d="M.14,10.66c-.09-.2-.3-.58.09-.27a1.76,1.76,0,0,0,1.07.42c.33,0,.2.16-.34.16A1.33,1.33,0,0,1,.14,10.66Z" fill="#212121"/><path d="M13.35,11.55c-.13-.13-.11-.69-.35-1.39s-.57-1.11-.57-1.32.88.28,1.31.36.42.48.53,1.21.15,1-.2,1.08S13.43,11.64,13.35,11.55Z" fill="#212121"/><path d="M13.83,8.79c-.09.09-.49-.09-.92-.23s-.67-.09-.78-.2-.32-.57-.54-.81-.68-.53,0-.38a7.12,7.12,0,0,0,1.54.22c.33,0,.33.14.49.48S13.9,8.73,13.83,8.79Z" fill="#212121"/><path d="M13,7c0,.15-.34.14-.94,0s-1,0-1.27-.32a7,7,0,0,0-1-1c-.23-.19-.12-.21.41-.13a3.12,3.12,0,0,0,1.29-.08c.16-.07.43.12.79.61S13,6.84,13,7Z" fill="#212121"/><path d="M11.21,5.19c0,.18-.31.15-.91.1s-.84.11-1.18-.16A4.19,4.19,0,0,0,8,4.49c-.32-.11,0-.14.65-.12s.89-.07,1-.21.44,0,.89.42S11.21,5.07,11.21,5.19Z" fill="#212121"/><path d="M9.23,4c0,.17-.36.07-1,.09a5.56,5.56,0,0,0-.85.14c-.19,0-.34-.16-.87-.23s-.8-.09-.43-.27a3.16,3.16,0,0,1,1.35-.32C8,3.43,9.23,3.8,9.23,4Z" fill="#212121"/><path d="M5.57,4c-.1,0-.48.08-.72.18s-.54.15-.08-.1.79-.36.85-.31A.15.15,0,0,1,5.57,4Z" fill="#212121"/><rect width="30" height="30" fill="none"/></svg>