<svg xmlns="http://www.w3.org/2000/svg" viewBox="0 0 30 30"><path d="M15,19.41a3.89,3.89,0,0,0,1.42-1.75c0-.42-.35-1.4-.35-1.63s.35,0,1.26-.43a4.72,4.72,0,0,0,2-2c.47-.8.56-1.37,1.39-2.89a10.1,10.1,0,0,1,1.71-2.65c.56-.54.93-1.06.79-.41a23.52,23.52,0,0,0-.49,2.74c-.08,1-.68,2.16-.72,2.74s0,.56-.44.79a12.48,12.48,0,0,0-2,1.67c-.6.6-1.06,1.43-.92,1a3.31,3.31,0,0,1,.9-1.34,5.69,5.69,0,0,0,1.76-1.72,10.4,10.4,0,0,0,1.1-3.16c0-.64,0-.52-.36.16s-1.69,2.11-1.72,2.71S19.3,14.49,18.92,15s0,.75-.3,1.24-.14,2.22-.1,3.47S18.57,21,18,21.61s-.85,1-1.11,3.08-.12.39-.15-.62-.48-1.53-.54-2.23-.1-.66.2-.54a1.77,1.77,0,0,0,.65.15c.14,0,.45-.06.66-.55s0,0-.36.1-.41.12-.06-.32a3.51,3.51,0,0,0,.37-2c0-.75-.05-.66-.21-.22s-.2.51-.19.19,0-.26-.4.33a7.4,7.4,0,0,0-1,1.75c-.12.47-.24-.57-.25.08a12.09,12.09,0,0,0,.43,2.28,10.41,10.41,0,0,1,.39,2.18,1.25,1.25,0,0,1-1,1.17c-.28,0-.28-.6-.18-.7s.8-.51.8-.72-.32-.61-.46-.89-.12,0-.07.25.21.33.21.5a.79.79,0,0,1-.76.61Z" transform="translate(0 0)" fill="#212121"/><path d="M16.38,20.71c.09.09.43-.07.66-.44s.31-.85.18-1-.35.19-.58.61S16.31,20.64,16.38,20.71Z" transform="translate(0 0)" fill="#212121"/><path d="M15,26.75a2.06,2.06,0,0,0,1.4-.59c.23-.22.08.16-.2.54a1.62,1.62,0,0,1-1.2.72Z" transform="translate(0 0)" fill="#212121"/><path d="M15,28a2,2,0,0,0,1.75-1.58,6.91,6.91,0,0,0,.4-2,4.06,4.06,0,0,1,.51-2c.33-.52.24-.31,0,.41a8.17,8.17,0,0,0,0,3.74,2,2,0,0,1-.35,2.4A3.41,3.41,0,0,1,15,30Z" transform="translate(0 0)" fill="#212121"/><path d="M20.2,4.34a3.76,3.76,0,0,1-.89.17.06.06,0,0,0-.06.08l0,.34a.07.07,0,0,0,.07.07,5.92,5.92,0,0,0,.79-.06,5.72,5.72,0,0,0,.79-.18A.07.07,0,0,0,21,4.68l-.09-.54a.07.07,0,0,0-.1,0C20.65,4.16,20.44,4.25,20.2,4.34Z" transform="translate(0 0)" fill="#212121"/><path d="M19.81,3.09a3.85,3.85,0,0,0-.69.39.06.06,0,0,0,0,.07,7,7,0,0,1,.12.73s0,.07.08.06a4.69,4.69,0,0,0,.82-.14,4.48,4.48,0,0,0,.69-.29.06.06,0,0,0,0-.07c-.06-.3-.12-.6-.2-.9a.08.08,0,0,0-.08,0A3.61,3.61,0,0,0,19.81,3.09Z" transform="translate(0 0)" fill="#212121"/><path d="M19.29,1.06a2.93,2.93,0,0,0-.68.94.08.08,0,0,0,0,.07,2.58,2.58,0,0,1,.16.33.07.07,0,0,0,.11,0,1.94,1.94,0,0,1,.57-.37,2.83,2.83,0,0,1,.79-.2.07.07,0,0,0,.06-.09Q20.17,1.35,20,1A.07.07,0,0,0,20,1,.86.86,0,0,0,19.29,1.06Z" transform="translate(0 0)" fill="#212121"/><path d="M19.69,8.44a3,3,0,0,0-.88-.51.07.07,0,0,0-.09,0,3,3,0,0,1-.21.4.08.08,0,0,0,0,.1,5,5,0,0,1,.67.43,5.3,5.3,0,0,1,.86.84.08.08,0,0,0,.12,0l.21-.4a.06.06,0,0,0,0-.07A5.66,5.66,0,0,0,19.69,8.44Z" transform="translate(0 0)" fill="#212121"/><path d="M20.1,5.7A2.74,2.74,0,0,0,21,5.5a.07.07,0,0,0,0-.08c0-.13,0-.27,0-.41A.08.08,0,0,0,20.94,5a5.24,5.24,0,0,1-.75.16,5.45,5.45,0,0,1-.83.06.07.07,0,0,0-.07.07c0,.11,0,.22,0,.33v0A3.41,3.41,0,0,0,20.1,5.7Z" transform="translate(0 0)" fill="#212121"/><path d="M19.89,7.64a5.43,5.43,0,0,1-.74-.5.07.07,0,0,0-.11,0c-.06.17-.12.34-.19.51a.06.06,0,0,0,0,.09A3.4,3.4,0,0,1,20.43,9a.08.08,0,0,0,.13,0,8.11,8.11,0,0,0,.32-.91A.07.07,0,0,0,20.83,8,4.21,4.21,0,0,1,19.89,7.64Z" transform="translate(0 0)" fill="#212121"/><path d="M17.14,2.68a.07.07,0,0,0,0-.11l-.08,0A.27.27,0,0,1,17,2.46a.08.08,0,0,0-.12,0c0,.19-.06.35-.09.48C16.69,3.3,16.81,3,17.14,2.68Z" transform="translate(0 0)" fill="#212121"/><path d="M17.41,1.88a1.32,1.32,0,0,1-.15-.29.07.07,0,0,0-.13,0,5.61,5.61,0,0,0-.22.59s0,.06,0,.07a1,1,0,0,0,.17.14.7.7,0,0,0,.2.08s0,0,.06,0l.25-.2a.07.07,0,0,0,0-.1A1.94,1.94,0,0,1,17.41,1.88Z" transform="translate(0 0)" fill="#212121"/><path d="M19.77,10.41,20,10A.11.11,0,0,0,20,10a5.16,5.16,0,0,0-.66-.74,3.52,3.52,0,0,0-.9-.62.07.07,0,0,0-.09,0,6,6,0,0,1-.55.75.07.07,0,0,0,0,.11,8.21,8.21,0,0,1,.8.32,6.14,6.14,0,0,1,1,.64A.08.08,0,0,0,19.77,10.41Z" transform="translate(0 0)" fill="#212121"/><path d="M18.88,2.73c.05.15.09.32.14.5a.06.06,0,0,0,.1,0,5.78,5.78,0,0,1,.66-.34,5.67,5.67,0,0,1,.72-.22.07.07,0,0,0,.05-.09L20.4,2.1s0-.06-.07-.05a2.31,2.31,0,0,0-.84.18,2.91,2.91,0,0,0-.59.43A.07.07,0,0,0,18.88,2.73Z" transform="translate(0 0)" fill="#212121"/><path d="M17.06,12.08A4.41,4.41,0,0,1,15.88,12a.07.07,0,0,0-.09.06,5,5,0,0,0,0,.58.09.09,0,0,0,.06.08,5,5,0,0,0,1.1.13,6,6,0,0,0,1.64-.33s0,0,.05,0a3.54,3.54,0,0,1,.21-.52.07.07,0,0,0-.08-.1A6.23,6.23,0,0,1,17.06,12.08Z" transform="translate(0 0)" fill="#212121"/><path d="M17.28,13.59a5.14,5.14,0,0,1-1.44.29.06.06,0,0,0-.06.07c0,.19,0,.36,0,.51a.08.08,0,0,0,.09.06A9.4,9.4,0,0,0,17.47,14c.38-.19.72-.39.91-.5a.07.07,0,0,0,0-.06c0-.08,0-.16,0-.24s-.05-.1-.1-.07C18.08,13.24,17.71,13.42,17.28,13.59Z" transform="translate(0 0)" fill="#212121"/><path d="M15.83,12.85a.08.08,0,0,0-.09.07c0,.06,0,.12,0,.18s0,.37,0,.53a.08.08,0,0,0,.08.07,7.46,7.46,0,0,0,1.37-.26,9.64,9.64,0,0,0,1.24-.56.09.09,0,0,0,0-.05l0-.07a.07.07,0,0,0-.1-.08A5.25,5.25,0,0,1,17,13,6,6,0,0,1,15.83,12.85Z" transform="translate(0 0)" fill="#212121"/><path d="M17.71,10.85a9.49,9.49,0,0,0-1.53.15.1.1,0,0,0-.05,0,2.15,2.15,0,0,0-.28.64.07.07,0,0,0,.05.09,4.06,4.06,0,0,0,1.1.11,7,7,0,0,0,2-.33.05.05,0,0,0,0,0c.05-.09.12-.19.19-.29l0-.11A4.68,4.68,0,0,0,17.71,10.85Z" transform="translate(0 0)" fill="#212121"/><path d="M17.19,14.31c-.5.18-1,.33-1.31.42a.08.08,0,0,0-.05.07,1.63,1.63,0,0,0,.13.65,3.75,3.75,0,0,0,1.92-.5c.45-.3.56-.33.56-.82,0-.09,0-.19,0-.31a.07.07,0,0,0-.1-.06A6.64,6.64,0,0,1,17.19,14.31Z" transform="translate(0 0)" fill="#212121"/><path d="M20.34,6.56a2.87,2.87,0,0,1-1-.22.07.07,0,0,0-.09,0c0,.16-.06.31-.1.46s0,.05,0,.06a2.7,2.7,0,0,0,.78.58,3.46,3.46,0,0,0,.95.33A.08.08,0,0,0,21,7.76a7.61,7.61,0,0,0,.16-1.24.07.07,0,0,0-.1-.07A2.23,2.23,0,0,1,20.34,6.56Z" transform="translate(0 0)" fill="#212121"/><path d="M17.66,10.69a4.08,4.08,0,0,1,1.65.29.1.1,0,0,0,.09,0l.18-.27a.08.08,0,0,0,0-.1c-.2-.14-.54-.39-.89-.59a3.62,3.62,0,0,0-1-.4,0,0,0,0,0-.06,0,7.31,7.31,0,0,1-.6.54,4,4,0,0,0-.56.5.07.07,0,0,0,.06.12A6.67,6.67,0,0,1,17.66,10.69Z" transform="translate(0 0)" fill="#212121"/><path d="M21.1,5.75A.07.07,0,0,0,21,5.69a2.73,2.73,0,0,1-.93.18,3,3,0,0,1-.71-.08.07.07,0,0,0-.08.07c0,.07,0,.14,0,.21a.07.07,0,0,0,0,.07,2.07,2.07,0,0,0,1,.22,2.92,2.92,0,0,0,.81-.1.07.07,0,0,0,.05-.07C21.12,6.05,21.11,5.91,21.1,5.75Z" transform="translate(0 0)" fill="#212121"/><path d="M18.14.84a3.1,3.1,0,0,0-.06,1.08.08.08,0,0,0,.09.06.74.74,0,0,1,.23,0s.05,0,.07,0a4.11,4.11,0,0,1,.72-1A.79.79,0,0,1,19.8.77a.08.08,0,0,0,.07-.11c-.19-.36-.36-.6-.52-.63a1.31,1.31,0,0,0-.65,0s0,0,0,0A2.58,2.58,0,0,0,18.14.84Z" transform="translate(0 0)" fill="#212121"/><path d="M17.49,1.65a3.06,3.06,0,0,0,.34.47l.11-.06a4.25,4.25,0,0,1-.05-.8,1.85,1.85,0,0,1,.26-.81.07.07,0,0,0-.1-.1,2.32,2.32,0,0,0-.73.82v.05A1.59,1.59,0,0,0,17.49,1.65Z" transform="translate(0 0)" fill="#212121"/><path d="M15,19.41a3.89,3.89,0,0,1-1.42-1.75c0-.42.35-1.4.35-1.63s-.35,0-1.26-.43a4.72,4.72,0,0,1-2-2c-.47-.8-.56-1.37-1.39-2.89A10.1,10.1,0,0,0,7.54,8.06C7,7.52,6.61,7,6.75,7.65a23.52,23.52,0,0,1,.49,2.74c.08,1,.68,2.16.72,2.74s0,.56.44.79a12.48,12.48,0,0,1,2,1.67c.6.6,1.06,1.43.92,1a3.31,3.31,0,0,0-.9-1.34,5.69,5.69,0,0,1-1.76-1.72,10.4,10.4,0,0,1-1.1-3.16c0-.64,0-.52.36.16s1.69,2.11,1.72,2.71,1,1.22,1.43,1.72,0,.75.3,1.24.14,2.22.1,3.47S11.43,21,12,21.61s.85,1,1.11,3.08.12.39.15-.62.48-1.53.54-2.23.1-.66-.2-.54a1.77,1.77,0,0,1-.65.15c-.14,0-.45-.06-.66-.55s0,0,.36.1.41.12.06-.32a3.51,3.51,0,0,1-.37-2c0-.75.05-.66.21-.22s.2.51.19.19,0-.26.4.33a7.4,7.4,0,0,1,1,1.75c.12.47.24-.57.25.08a12.09,12.09,0,0,1-.43,2.28,10.41,10.41,0,0,0-.39,2.18,1.25,1.25,0,0,0,1,1.17c.28,0,.28-.6.18-.7s-.8-.51-.8-.72.32-.61.46-.89.12,0,.07.25-.21.33-.21.5a.79.79,0,0,0,.76.61Z" transform="translate(0 0)" fill="#212121"/><path d="M13.62,20.71c-.09.09-.43-.07-.66-.44s-.31-.85-.18-1,.35.19.58.61S13.69,20.64,13.62,20.71Z" transform="translate(0 0)" fill="#212121"/><path d="M15,26.75a2.06,2.06,0,0,1-1.4-.59c-.23-.22-.08.16.2.54a1.62,1.62,0,0,0,1.2.72Z" transform="translate(0 0)" fill="#212121"/><path d="M15,28a2,2,0,0,1-1.75-1.58,6.91,6.91,0,0,1-.4-2,4.06,4.06,0,0,0-.51-2c-.33-.52-.24-.31,0,.41a8.17,8.17,0,0,1,0,3.74,2,2,0,0,0,.35,2.4A3.41,3.41,0,0,0,15,30Z" transform="translate(0 0)" fill="#212121"/><path d="M9.8,4.34a3.76,3.76,0,0,0,.89.17.06.06,0,0,1,.06.08l0,.34a.07.07,0,0,1-.07.07,5.92,5.92,0,0,1-.79-.06,5.72,5.72,0,0,1-.79-.18A.07.07,0,0,1,9,4.68l.09-.54a.07.07,0,0,1,.1,0C9.35,4.16,9.56,4.25,9.8,4.34Z" transform="translate(0 0)" fill="#212121"/><path d="M10.19,3.09a3.85,3.85,0,0,1,.69.39.06.06,0,0,1,0,.07,7,7,0,0,0-.12.73s0,.07-.08.06a4.69,4.69,0,0,1-.82-.14,4.48,4.48,0,0,1-.69-.29.06.06,0,0,1,0-.07c.06-.3.12-.6.2-.9a.08.08,0,0,1,.08,0A3.61,3.61,0,0,1,10.19,3.09Z" transform="translate(0 0)" fill="#212121"/><path d="M10.71,1.06a2.93,2.93,0,0,1,.68.94.08.08,0,0,1,0,.07,2.58,2.58,0,0,0-.16.33.07.07,0,0,1-.11,0,1.94,1.94,0,0,0-.57-.37,2.83,2.83,0,0,0-.79-.2.07.07,0,0,1-.06-.09Q9.83,1.35,10,1A.07.07,0,0,1,10,1,.86.86,0,0,1,10.71,1.06Z" transform="translate(0 0)" fill="#212121"/><path d="M10.31,8.44a3,3,0,0,1,.88-.51.07.07,0,0,1,.09,0,3,3,0,0,0,.21.4.08.08,0,0,1,0,.1,5,5,0,0,0-.67.43,5.3,5.3,0,0,0-.86.84.08.08,0,0,1-.12,0l-.21-.4a.06.06,0,0,1,0-.07A5.66,5.66,0,0,1,10.31,8.44Z" transform="translate(0 0)" fill="#212121"/><path d="M9.9,5.7A2.74,2.74,0,0,1,9,5.5a.07.07,0,0,1,0-.08c0-.13,0-.27,0-.41A.08.08,0,0,1,9.06,5a5.24,5.24,0,0,0,.75.16,5.45,5.45,0,0,0,.83.06.07.07,0,0,1,.07.07c0,.11,0,.22,0,.33v0A3.41,3.41,0,0,1,9.9,5.7Z" transform="translate(0 0)" fill="#212121"/><path d="M10.11,7.64a5.43,5.43,0,0,0,.74-.5.07.07,0,0,1,.11,0c.06.17.12.34.19.51a.06.06,0,0,1,0,.09A3.4,3.4,0,0,0,9.57,9a.08.08,0,0,1-.13,0,8.11,8.11,0,0,1-.32-.91A.07.07,0,0,1,9.17,8,4.21,4.21,0,0,0,10.11,7.64Z" transform="translate(0 0)" fill="#212121"/><path d="M12.86,2.68a.07.07,0,0,1,0-.11l.08,0a.27.27,0,0,0,.08-.07.08.08,0,0,1,.12,0c0,.19.06.35.09.48C13.31,3.3,13.19,3,12.86,2.68Z" transform="translate(0 0)" fill="#212121"/><path d="M12.59,1.88a1.32,1.32,0,0,0,.15-.29.07.07,0,0,1,.13,0,5.61,5.61,0,0,1,.22.59s0,.06,0,.07a1,1,0,0,1-.17.14.7.7,0,0,1-.2.08s0,0-.06,0l-.25-.2a.07.07,0,0,1,0-.1A1.94,1.94,0,0,0,12.59,1.88Z" transform="translate(0 0)" fill="#212121"/><path d="M10.23,10.41,10,10A.11.11,0,0,1,10,10a5.16,5.16,0,0,1,.66-.74,3.52,3.52,0,0,1,.9-.62.07.07,0,0,1,.09,0,6,6,0,0,0,.55.75.07.07,0,0,1,0,.11,8.21,8.21,0,0,0-.8.32,6.14,6.14,0,0,0-1,.64A.08.08,0,0,1,10.23,10.41Z" transform="translate(0 0)" fill="#212121"/><path d="M11.12,2.73c0,.15-.09.32-.14.5a.06.06,0,0,1-.1,0,5.78,5.78,0,0,0-.66-.34,5.67,5.67,0,0,0-.72-.22.07.07,0,0,1-.05-.09L9.6,2.1s0-.06.07-.05a2.31,2.31,0,0,1,.84.18,2.91,2.91,0,0,1,.59.43A.07.07,0,0,1,11.12,2.73Z" transform="translate(0 0)" fill="#212121"/><path d="M12.94,12.08A4.41,4.41,0,0,0,14.12,12a.07.07,0,0,1,.09.06,5,5,0,0,1,0,.58.09.09,0,0,1-.06.08,5,5,0,0,1-1.1.13,6,6,0,0,1-1.64-.33s0,0-.05,0a3.54,3.54,0,0,0-.21-.52.07.07,0,0,1,.08-.1A6.23,6.23,0,0,0,12.94,12.08Z" transform="translate(0 0)" fill="#212121"/><path d="M12.72,13.59a5.14,5.14,0,0,0,1.44.29.06.06,0,0,1,.06.07c0,.19,0,.36,0,.51a.08.08,0,0,1-.09.06A9.4,9.4,0,0,1,12.53,14c-.38-.19-.72-.39-.91-.5a.07.07,0,0,1,0-.06c0-.08,0-.16,0-.24s0-.1.1-.07C11.92,13.24,12.29,13.42,12.72,13.59Z" transform="translate(0 0)" fill="#212121"/><path d="M14.17,12.85a.08.08,0,0,1,.09.07c0,.06,0,.12,0,.18s0,.37,0,.53a.08.08,0,0,1-.08.07,7.46,7.46,0,0,1-1.37-.26,9.64,9.64,0,0,1-1.24-.56.09.09,0,0,1,0-.05l0-.07a.07.07,0,0,1,.1-.08A5.25,5.25,0,0,0,13,13,6,6,0,0,0,14.17,12.85Z" transform="translate(0 0)" fill="#212121"/><path d="M12.29,10.85a9.49,9.49,0,0,1,1.53.15.1.1,0,0,1,0,0,2.15,2.15,0,0,1,.28.64.07.07,0,0,1-.05.09,4.06,4.06,0,0,1-1.1.11,7,7,0,0,1-2-.33.05.05,0,0,1,0,0c-.05-.09-.12-.19-.19-.29l0-.11A4.68,4.68,0,0,1,12.29,10.85Z" transform="translate(0 0)" fill="#212121"/><path d="M12.81,14.31c.5.18,1,.33,1.31.42a.08.08,0,0,1,.05.07,1.63,1.63,0,0,1-.13.65,3.75,3.75,0,0,1-1.92-.5c-.45-.3-.56-.33-.56-.82,0-.09,0-.19,0-.31a.07.07,0,0,1,.1-.06A6.64,6.64,0,0,0,12.81,14.31Z" transform="translate(0 0)" fill="#212121"/><path d="M9.66,6.56a2.87,2.87,0,0,0,1-.22.07.07,0,0,1,.09,0c0,.16.06.31.1.46s0,.05,0,.06a2.7,2.7,0,0,1-.78.58,3.46,3.46,0,0,1-1,.33A.08.08,0,0,1,9,7.76a7.61,7.61,0,0,1-.16-1.24A.07.07,0,0,1,9,6.45,2.23,2.23,0,0,0,9.66,6.56Z" transform="translate(0 0)" fill="#212121"/><path d="M12.34,10.69a4.08,4.08,0,0,0-1.65.29.1.1,0,0,1-.09,0l-.18-.27a.08.08,0,0,1,0-.1c.2-.14.54-.39.89-.59a3.62,3.62,0,0,1,1-.4,0,0,0,0,1,.06,0,7.31,7.31,0,0,0,.6.54,4,4,0,0,1,.56.5.07.07,0,0,1-.06.12A6.67,6.67,0,0,0,12.34,10.69Z" transform="translate(0 0)" fill="#212121"/><path d="M8.9,5.75A.07.07,0,0,1,9,5.69a2.73,2.73,0,0,0,.93.18,3,3,0,0,0,.71-.08.07.07,0,0,1,.08.07c0,.07,0,.14,0,.21a.07.07,0,0,1,0,.07,2.07,2.07,0,0,1-.95.22,2.92,2.92,0,0,1-.81-.1.07.07,0,0,1,0-.07C8.88,6.05,8.89,5.91,8.9,5.75Z" transform="translate(0 0)" fill="#212121"/><path d="M11.86.84a3.1,3.1,0,0,1,.06,1.08.08.08,0,0,1-.09.06.74.74,0,0,0-.23,0s0,0-.07,0a4.11,4.11,0,0,0-.72-1A.79.79,0,0,0,10.2.77a.08.08,0,0,1-.07-.11c.19-.36.36-.6.52-.63a1.31,1.31,0,0,1,.65,0s0,0,0,0A2.58,2.58,0,0,1,11.86.84Z" transform="translate(0 0)" fill="#212121"/><path d="M12.51,1.65a3.06,3.06,0,0,1-.34.47l-.11-.06a4.25,4.25,0,0,0,0-.8,1.85,1.85,0,0,0-.26-.81.07.07,0,0,1,.1-.1,2.32,2.32,0,0,1,.73.82v.05A1.59,1.59,0,0,1,12.51,1.65Z" transform="translate(0 0)" fill="#212121"/><rect width="30" height="30" fill="none"/></svg>