<!-- Copyright (c) 2022 Jan Stehno -->
<svg xmlns="http://www.w3.org/2000/svg" viewBox="0 0 300 300"><title>springbok</title><g id="springbok"><g id="right"><path d="M150,194.14c2.29,0,14.15-13.3,14.15-17.54s-3.41-14-3.41-16.33,3.51-.1,12.55-4.23,15.71-12,20.34-20,5.57-13.76,13.89-29,11.33-21.09,17-26.46,9.3-10.62,8-4.07-4.12,17.36-4.91,27.32-6.88,21.69-7.27,27.45,0,5.64-4.39,7.93-14.15,10.74-20.11,16.7-10.55,14.22-9.17,10.29,5.83-11.66,9-13.43,12.51-8.65,17.62-17.23,10.55-25.22,11-31.58-.13-5.24-3.6,1.64-16.84,21-17.17,27.06S193,144.87,189.24,149.92s.28,7.51-3,12.4-1.49,22.23-1.05,34.63.52,12.62-5.15,19.13-8.56,10.29-11.18,30.79-1.18,3.93-1.44-6.16-4.85-15.33-5.44-22.34-1-6.55,2-5.37a18,18,0,0,0,6.48,1.51c1.45,0,4.46-.59,6.62-5.5s-.36-.53-3.63,1-4.1,1.21-.59-3.18,3.7-12.64,3.7-20.15-.53-6.64-2.14-2.14-2,5-1.88,1.83-.13-2.57-4,3.28-8.41,13-9.59,17.58-2.35-5.7-2.48.72,2.68,15.46,4.29,22.86,3.89,14.35,3.89,21.77-7.29,11.75-10.08,11.75-2.76-6.07-1.8-7,8-5.15,8-7.25-3.19-6.07-4.59-8.87-1.22-.39-.65,2.49,2,3.32,2,5.07-2.93,6-7.6,6Z" transform="translate(0 0)" fill="#212121"/><path d="M163.82,207.07c.89.89,4.33-.68,6.59-4.39s3.06-8.46,1.8-9.72-3.54,2-5.83,6.12S163.1,206.35,163.82,207.07Z" transform="translate(0 0)" fill="#212121"/><path d="M150,267.53a20.4,20.4,0,0,0,14-5.92c2.29-2.23.85,1.54-2,5.37s-7.21,7.24-12,7.24Z" transform="translate(0 0)" fill="#212121"/><path d="M150,279.71c9.83,0,15.33-8.95,17.51-15.81s3.67-12.31,4-20.39,1.83-15.2,5.11-20.35,2.36-3,0,4.15-3,28.12.43,37.38,4,17-3.51,24S158.65,300,150,300Z" transform="translate(0 0)" fill="#212121"/><path d="M202,43.36a37.55,37.55,0,0,1-8.87,1.72.7.7,0,0,0-.63.77c.11,1.14.21,2.31.29,3.49a.7.7,0,0,0,.68.67,48.14,48.14,0,0,0,7.94-.62,49,49,0,0,0,7.94-1.81.71.71,0,0,0,.48-.78q-.41-2.65-.89-5.36a.71.71,0,0,0-1-.52C206.48,41.58,204.39,42.48,202,43.36Z" transform="translate(0 0)" fill="#212121"/><path d="M198.12,30.88a36.71,36.71,0,0,0-6.93,3.88.7.7,0,0,0-.29.71c.47,2.27.89,4.72,1.23,7.34a.72.72,0,0,0,.76.62A43.92,43.92,0,0,0,201.13,42,40.61,40.61,0,0,0,208,39.15a.72.72,0,0,0,.37-.77c-.6-3-1.28-6-2-8.93a.71.71,0,0,0-.8-.53A34.82,34.82,0,0,0,198.12,30.88Z" transform="translate(0 0)" fill="#212121"/><path d="M192.94,10.58c-2.72,1.9-5.5,6.82-6.85,9.45a.7.7,0,0,0,0,.7A23.06,23.06,0,0,1,187.66,24a.71.71,0,0,0,1.13.27,19.39,19.39,0,0,1,5.76-3.74,28.89,28.89,0,0,1,7.84-2,.7.7,0,0,0,.59-.92c-.88-2.73-1.8-5.26-2.72-7.49a.68.68,0,0,0-.51-.42C197.62,9.32,194.92,9.19,192.94,10.58Z" transform="translate(0 0)" fill="#212121"/><path d="M196.91,84.41a30.25,30.25,0,0,0-8.8-5.13.7.7,0,0,0-.89.36c-.65,1.36-1.35,2.69-2.08,4a.69.69,0,0,0,.28,1,43,43,0,0,1,6.64,4.31,49,49,0,0,1,8.63,8.45.72.72,0,0,0,1.18-.09c.74-1.31,1.44-2.62,2.11-4a.69.69,0,0,0-.06-.73A61.72,61.72,0,0,0,196.91,84.41Z" transform="translate(0 0)" fill="#212121"/><path d="M201,57a26.69,26.69,0,0,0,9.34-2,.7.7,0,0,0,.43-.72c-.13-1.35-.28-2.73-.47-4.13a.7.7,0,0,0-.89-.6A59.46,59.46,0,0,1,202,51.13a52.08,52.08,0,0,1-8.33.54.68.68,0,0,0-.7.72c0,1.09.05,2.2.05,3.32V56A34.59,34.59,0,0,0,201,57Z" transform="translate(0 0)" fill="#212121"/><path d="M198.87,76.38a53.2,53.2,0,0,1-7.39-4.95.7.7,0,0,0-1.11.34q-.84,2.61-1.9,5.1a.7.7,0,0,0,.39.92,32.29,32.29,0,0,1,7.61,4.26,34.65,34.65,0,0,1,7.87,8,.71.71,0,0,0,1.23-.12,66.25,66.25,0,0,0,3.21-9,.71.71,0,0,0-.5-.88A41.07,41.07,0,0,1,198.87,76.38Z" transform="translate(0 0)" fill="#212121"/><path d="M171.36,26.8a.71.71,0,0,0-.24-1.11,6,6,0,0,1-.84-.44,6.73,6.73,0,0,1-.81-.6.71.71,0,0,0-1.14.4c-.42,1.92-.67,3.55-.9,4.85C166.87,33,168.11,30.38,171.36,26.8Z" transform="translate(0 0)" fill="#212121"/><path d="M174.06,18.81a17.39,17.39,0,0,1-1.49-2.92.7.7,0,0,0-1.3,0,51.69,51.69,0,0,0-2.13,6,.7.7,0,0,0,.18.69,9.41,9.41,0,0,0,1.71,1.4,7.88,7.88,0,0,0,1.94.75.68.68,0,0,0,.64-.17,24.2,24.2,0,0,1,2.47-2,.7.7,0,0,0,.13-1.06A23.52,23.52,0,0,1,174.06,18.81Z" transform="translate(0 0)" fill="#212121"/><path d="M197.68,104.09c.82-1.27,1.63-2.53,2.4-3.8a.71.71,0,0,0,0-.78,48.8,48.8,0,0,0-6.55-7.37,36.61,36.61,0,0,0-9-6.27.7.7,0,0,0-.9.27,65.25,65.25,0,0,1-5.48,7.48.7.7,0,0,0,.32,1.13,62.23,62.23,0,0,1,8.05,3.18,57.93,57.93,0,0,1,10.13,6.34A.72.72,0,0,0,197.68,104.09Z" transform="translate(0 0)" fill="#212121"/><path d="M188.81,27.33c.46,1.47.93,3.14,1.38,5a.7.7,0,0,0,1.05.45,47.53,47.53,0,0,1,6.52-3.43A51.38,51.38,0,0,1,205,27.12a.7.7,0,0,0,.52-.87c-.49-1.81-1-3.59-1.5-5.3a.7.7,0,0,0-.72-.5,22.38,22.38,0,0,0-8.35,1.88A30.49,30.49,0,0,0,189,26.6.69.69,0,0,0,188.81,27.33Z" transform="translate(0 0)" fill="#212121"/><path d="M170.64,120.76a46.54,46.54,0,0,1-11.88-1.28.7.7,0,0,0-.88.57,46,46,0,0,0-.44,5.89.71.71,0,0,0,.54.71A45.89,45.89,0,0,0,169,128c5.7,0,13.13-2.19,16.44-3.26a.66.66,0,0,0,.44-.45,42,42,0,0,1,2.13-5.16.7.7,0,0,0-.82-1A62.56,62.56,0,0,1,170.64,120.76Z" transform="translate(0 0)" fill="#212121"/><path d="M172.75,135.9a49,49,0,0,1-14.33,2.88.72.72,0,0,0-.66.74c.09,1.86.17,3.55.27,5.07a.71.71,0,0,0,.88.64c4-1,11.56-3.08,15.77-5.18,3.86-1.93,7.24-3.92,9.13-5.07a.69.69,0,0,0,.33-.58c0-.78.06-1.59.13-2.45a.71.71,0,0,0-1-.7C180.82,132.43,177.06,134.18,172.75,135.9Z" transform="translate(0 0)" fill="#212121"/><path d="M158.26,128.53a.7.7,0,0,0-.83.7c0,.6,0,1.2,0,1.82.05,1.86.11,3.6.17,5.25a.7.7,0,0,0,.77.68,76.35,76.35,0,0,0,13.64-2.61,77.16,77.16,0,0,0,12.41-5.57.68.68,0,0,0,.34-.47l.15-.7a.7.7,0,0,0-.9-.82c-3.4,1.1-9.52,2.83-14.5,2.83A63.5,63.5,0,0,1,158.26,128.53Z" transform="translate(0 0)" fill="#212121"/><path d="M177.12,108.51a92.84,92.84,0,0,0-15.31,1.54.7.7,0,0,0-.48.32,22.5,22.5,0,0,0-2.82,6.48.71.71,0,0,0,.47.85c1.74.54,5,1.13,11,1.13a69.92,69.92,0,0,0,19.77-3.3.73.73,0,0,0,.37-.3c.58-1,1.21-1.93,1.91-2.93l-.34-1.08A46.56,46.56,0,0,0,177.12,108.51Z" transform="translate(0 0)" fill="#212121"/><path d="M171.88,143.1c-5,1.8-10.22,3.35-13.08,4.17a.72.72,0,0,0-.51.75c.34,3.71.76,5.92,1.32,6.48,1.4,1.4,14.67-2,19.17-5s5.59-3.28,5.59-8.17c0-.87-.08-1.9-.14-3.09a.71.71,0,0,0-1.07-.57A63.89,63.89,0,0,1,171.88,143.1Z" transform="translate(0 0)" fill="#212121"/><path d="M203.36,65.57a27.92,27.92,0,0,1-10.12-2.21.7.7,0,0,0-1,.55c-.26,1.54-.59,3.07-1,4.58a.68.68,0,0,0,.17.64,29.83,29.83,0,0,0,7.85,5.74,32.85,32.85,0,0,0,9.44,3.31.7.7,0,0,0,.82-.54,69.52,69.52,0,0,0,1.56-12.45.71.71,0,0,0-.94-.7A21.05,21.05,0,0,1,203.36,65.57Z" transform="translate(0 0)" fill="#212121"/><path d="M176.64,106.9c8.64,0,14,1.79,16.47,2.9a.71.71,0,0,0,.87-.25c.61-.88,1.22-1.76,1.81-2.63a.7.7,0,0,0-.16-1c-2-1.5-5.48-3.93-8.91-6a40.58,40.58,0,0,0-10.17-4,.72.72,0,0,0-.68.2,50.73,50.73,0,0,1-6,5.41,45.7,45.7,0,0,0-5.62,5,.71.71,0,0,0,.64,1.17A71.88,71.88,0,0,1,176.64,106.9Z" transform="translate(0 0)" fill="#212121"/><path d="M211,57.55a.71.71,0,0,0-1-.62,28.51,28.51,0,0,1-9.3,1.73,32.49,32.49,0,0,1-7-.73.69.69,0,0,0-.84.65c0,.72-.1,1.44-.18,2.16a.68.68,0,0,0,.37.69,21,21,0,0,0,9.56,2.21,28.61,28.61,0,0,0,8.06-1,.71.71,0,0,0,.5-.68C211.18,60.55,211.12,59.08,211,57.55Z" transform="translate(0 0)" fill="#212121"/><path d="M181.44,8.37c-1.18,3.31-.89,8.16-.6,10.8a.7.7,0,0,0,.88.6,7.93,7.93,0,0,1,2.29-.33.73.73,0,0,0,.67-.34c1.54-2.68,4.54-7.53,7.21-9.83A8.23,8.23,0,0,1,198,7.66a.71.71,0,0,0,.69-1c-1.8-3.65-3.58-6-5.15-6.34a14,14,0,0,0-6.49.2.67.67,0,0,0-.36.21C184.78,2.74,182.41,5.67,181.44,8.37Z" transform="translate(0 0)" fill="#212121"/><path d="M174.89,16.49a27.64,27.64,0,0,0,3.44,4.67c.37-.2.74-.38,1.11-.55a42,42,0,0,1-.53-8,18.3,18.3,0,0,1,2.58-8.09.7.7,0,0,0-1-.93,23.38,23.38,0,0,0-7.24,8.18l-.06.52A17.29,17.29,0,0,0,174.89,16.49Z" transform="translate(0 0)" fill="#212121"/></g><g id="left"><path d="M150,194.14c-2.29,0-14.15-13.3-14.15-17.54s3.41-14,3.41-16.33-3.51-.1-12.55-4.23S111,144,106.37,136s-5.57-13.76-13.89-29S81.15,86,75.45,80.61s-9.3-10.62-8-4.07,4.12,17.36,4.91,27.32,6.88,21.69,7.27,27.45,0,5.64,4.39,7.93,14.15,10.74,20.11,16.7,10.55,14.22,9.17,10.29-5.83-11.66-9-13.43-12.51-8.65-17.62-17.23-10.55-25.22-11-31.58.13-5.24,3.6,1.64,16.84,21,17.17,27.06,10.55,12.18,14.28,17.23-.28,7.51,3,12.4,1.49,22.23,1,34.63-.52,12.62,5.15,19.13,8.56,10.29,11.18,30.79,1.18,3.93,1.44-6.16,4.85-15.33,5.44-22.34,1-6.55-2-5.37a18,18,0,0,1-6.48,1.51c-1.45,0-4.46-.59-6.62-5.5s.36-.53,3.63,1,4.1,1.21.59-3.18-3.7-12.64-3.7-20.15.53-6.64,2.14-2.14,2,5,1.88,1.83.13-2.57,4,3.28,8.41,13,9.59,17.58,2.35-5.7,2.48.72-2.68,15.46-4.29,22.86-3.89,14.35-3.89,21.77,7.29,11.75,10.08,11.75,2.76-6.07,1.8-7-8-5.15-8-7.25,3.19-6.07,4.59-8.87,1.22-.39.65,2.49-2,3.32-2,5.07,2.93,6,7.6,6Z" transform="translate(0 0)" fill="#212121"/><path d="M136.18,207.07c-.89.89-4.33-.68-6.59-4.39s-3.06-8.46-1.8-9.72,3.54,2,5.83,6.12S136.9,206.35,136.18,207.07Z" transform="translate(0 0)" fill="#212121"/><path d="M150,267.53a20.4,20.4,0,0,1-14-5.92c-2.29-2.23-.85,1.54,2,5.37s7.21,7.24,12,7.24Z" transform="translate(0 0)" fill="#212121"/><path d="M150,279.71c-9.83,0-15.33-8.95-17.51-15.81s-3.67-12.31-4-20.39-1.83-15.2-5.11-20.35-2.36-3,0,4.15,3,28.12-.43,37.38-4,17,3.51,24S141.35,300,150,300Z" transform="translate(0 0)" fill="#212121"/><path d="M98,43.36a37.55,37.55,0,0,0,8.87,1.72.7.7,0,0,1,.63.77c-.11,1.14-.21,2.31-.29,3.49a.7.7,0,0,1-.68.67,48.14,48.14,0,0,1-7.94-.62,49,49,0,0,1-7.94-1.81.71.71,0,0,1-.48-.78q.41-2.65.89-5.36a.71.71,0,0,1,1-.52C93.52,41.58,95.61,42.48,98,43.36Z" transform="translate(0 0)" fill="#212121"/><path d="M101.88,30.88a36.71,36.71,0,0,1,6.93,3.88.7.7,0,0,1,.29.71c-.47,2.27-.89,4.72-1.23,7.34a.72.72,0,0,1-.76.62A43.92,43.92,0,0,1,98.87,42,40.61,40.61,0,0,1,92,39.15a.72.72,0,0,1-.37-.77c.6-3,1.28-6,2-8.93a.71.71,0,0,1,.8-.53A34.82,34.82,0,0,1,101.88,30.88Z" transform="translate(0 0)" fill="#212121"/><path d="M107.06,10.58c2.72,1.9,5.5,6.82,6.85,9.45a.7.7,0,0,1,0,.7A23.06,23.06,0,0,0,112.34,24a.71.71,0,0,1-1.13.27,19.39,19.39,0,0,0-5.76-3.74,28.89,28.89,0,0,0-7.84-2,.7.7,0,0,1-.59-.92c.88-2.73,1.8-5.26,2.72-7.49a.68.68,0,0,1,.51-.42C102.38,9.32,105.08,9.19,107.06,10.58Z" transform="translate(0 0)" fill="#212121"/><path d="M103.09,84.41a30.25,30.25,0,0,1,8.8-5.13.7.7,0,0,1,.89.36c.65,1.36,1.35,2.69,2.08,4a.69.69,0,0,1-.28,1,43,43,0,0,0-6.64,4.31,49,49,0,0,0-8.63,8.45.72.72,0,0,1-1.18-.09c-.74-1.31-1.44-2.62-2.11-4a.69.69,0,0,1,.06-.73A61.72,61.72,0,0,1,103.09,84.41Z" transform="translate(0 0)" fill="#212121"/><path d="M99,57a26.69,26.69,0,0,1-9.34-2,.7.7,0,0,1-.43-.72c.13-1.35.28-2.73.47-4.13a.7.7,0,0,1,.89-.6,59.46,59.46,0,0,0,7.43,1.62,52.08,52.08,0,0,0,8.33.54.68.68,0,0,1,.7.72c0,1.09,0,2.2,0,3.32V56A34.59,34.59,0,0,1,99,57Z" transform="translate(0 0)" fill="#212121"/><path d="M101.13,76.38a53.2,53.2,0,0,0,7.39-4.95.7.7,0,0,1,1.11.34q.84,2.61,1.9,5.1a.7.7,0,0,1-.39.92,32.29,32.29,0,0,0-7.61,4.26,34.65,34.65,0,0,0-7.87,8,.71.71,0,0,1-1.23-.12,66.25,66.25,0,0,1-3.21-9,.71.71,0,0,1,.5-.88A41.07,41.07,0,0,0,101.13,76.38Z" transform="translate(0 0)" fill="#212121"/><path d="M128.64,26.8a.71.71,0,0,1,.24-1.11,6,6,0,0,0,.84-.44,6.73,6.73,0,0,0,.81-.6.71.71,0,0,1,1.14.4c.42,1.92.67,3.55.9,4.85C133.13,33,131.89,30.38,128.64,26.8Z" transform="translate(0 0)" fill="#212121"/><path d="M125.94,18.81a17.39,17.39,0,0,0,1.49-2.92.7.7,0,0,1,1.3,0,51.69,51.69,0,0,1,2.13,6,.7.7,0,0,1-.18.69,9.41,9.41,0,0,1-1.71,1.4,7.88,7.88,0,0,1-1.94.75.68.68,0,0,1-.64-.17,24.2,24.2,0,0,0-2.47-2,.7.7,0,0,1-.13-1.06A23.52,23.52,0,0,0,125.94,18.81Z" transform="translate(0 0)" fill="#212121"/><path d="M102.32,104.09c-.82-1.27-1.63-2.53-2.4-3.8a.71.71,0,0,1,0-.78,48.8,48.8,0,0,1,6.55-7.37,36.61,36.61,0,0,1,9-6.27.7.7,0,0,1,.9.27,65.25,65.25,0,0,0,5.48,7.48.7.7,0,0,1-.32,1.13,62.23,62.23,0,0,0-8,3.18,57.93,57.93,0,0,0-10.13,6.34A.72.72,0,0,1,102.32,104.09Z" transform="translate(0 0)" fill="#212121"/><path d="M111.19,27.33c-.46,1.47-.93,3.14-1.38,5a.7.7,0,0,1-1,.45,47.53,47.53,0,0,0-6.52-3.43A51.38,51.38,0,0,0,95,27.12a.7.7,0,0,1-.52-.87c.49-1.81,1-3.59,1.5-5.3a.7.7,0,0,1,.72-.5,22.38,22.38,0,0,1,8.35,1.88A30.49,30.49,0,0,1,111,26.6.69.69,0,0,1,111.19,27.33Z" transform="translate(0 0)" fill="#212121"/><path d="M129.36,120.76a46.54,46.54,0,0,0,11.88-1.28.7.7,0,0,1,.88.57,46,46,0,0,1,.44,5.89.71.71,0,0,1-.54.71A45.89,45.89,0,0,1,131,128c-5.7,0-13.13-2.19-16.44-3.26a.66.66,0,0,1-.44-.45,42,42,0,0,0-2.13-5.16.7.7,0,0,1,.82-1A62.56,62.56,0,0,0,129.36,120.76Z" transform="translate(0 0)" fill="#212121"/><path d="M127.25,135.9a49,49,0,0,0,14.33,2.88.72.72,0,0,1,.66.74c-.09,1.86-.17,3.55-.27,5.07a.71.71,0,0,1-.88.64c-4-1-11.56-3.08-15.77-5.18-3.86-1.93-7.24-3.92-9.13-5.07a.69.69,0,0,1-.33-.58c0-.78-.06-1.59-.13-2.45a.71.71,0,0,1,1-.7C119.18,132.43,122.94,134.18,127.25,135.9Z" transform="translate(0 0)" fill="#212121"/><path d="M141.74,128.53a.7.7,0,0,1,.83.7c0,.6,0,1.2,0,1.82-.05,1.86-.11,3.6-.17,5.25a.7.7,0,0,1-.77.68A76.35,76.35,0,0,1,128,134.37a77.16,77.16,0,0,1-12.41-5.57.68.68,0,0,1-.34-.47l-.15-.7a.7.7,0,0,1,.9-.82c3.4,1.1,9.52,2.83,14.5,2.83A63.5,63.5,0,0,0,141.74,128.53Z" transform="translate(0 0)" fill="#212121"/><path d="M122.88,108.51a92.84,92.84,0,0,1,15.31,1.54.7.7,0,0,1,.48.32,22.5,22.5,0,0,1,2.82,6.48.71.71,0,0,1-.47.85c-1.74.54-5,1.13-11,1.13a69.92,69.92,0,0,1-19.77-3.3.73.73,0,0,1-.37-.3c-.58-1-1.21-1.93-1.91-2.93l.34-1.08A46.56,46.56,0,0,1,122.88,108.51Z" transform="translate(0 0)" fill="#212121"/><path d="M128.12,143.1c5,1.8,10.22,3.35,13.08,4.17a.72.72,0,0,1,.51.75c-.34,3.71-.76,5.92-1.32,6.48-1.4,1.4-14.67-2-19.17-5s-5.59-3.28-5.59-8.17c0-.87.08-1.9.14-3.09a.71.71,0,0,1,1.07-.57A63.89,63.89,0,0,0,128.12,143.1Z" transform="translate(0 0)" fill="#212121"/><path d="M96.64,65.57a27.92,27.92,0,0,0,10.12-2.21.7.7,0,0,1,.95.55c.26,1.54.59,3.07,1,4.58a.68.68,0,0,1-.17.64,29.83,29.83,0,0,1-7.85,5.74,32.85,32.85,0,0,1-9.44,3.31.7.7,0,0,1-.82-.54,69.52,69.52,0,0,1-1.56-12.45.71.71,0,0,1,.94-.7A21.05,21.05,0,0,0,96.64,65.57Z" transform="translate(0 0)" fill="#212121"/><path d="M123.36,106.9c-8.64,0-14,1.79-16.47,2.9a.71.71,0,0,1-.87-.25c-.61-.88-1.22-1.76-1.81-2.63a.7.7,0,0,1,.16-1c2-1.5,5.48-3.93,8.91-6a40.58,40.58,0,0,1,10.17-4,.72.72,0,0,1,.68.2,50.73,50.73,0,0,0,6,5.41,45.7,45.7,0,0,1,5.62,5,.71.71,0,0,1-.64,1.17A71.88,71.88,0,0,0,123.36,106.9Z" transform="translate(0 0)" fill="#212121"/><path d="M89,57.55a.71.71,0,0,1,1-.62,28.51,28.51,0,0,0,9.3,1.73,32.49,32.49,0,0,0,7-.73.69.69,0,0,1,.84.65c0,.72.1,1.44.18,2.16a.68.68,0,0,1-.37.69,21,21,0,0,1-9.56,2.21,28.61,28.61,0,0,1-8.06-1,.71.71,0,0,1-.5-.68C88.82,60.55,88.88,59.08,89,57.55Z" transform="translate(0 0)" fill="#212121"/><path d="M118.56,8.37c1.18,3.31.89,8.16.6,10.8a.7.7,0,0,1-.88.6,7.93,7.93,0,0,0-2.29-.33.73.73,0,0,1-.67-.34c-1.54-2.68-4.54-7.53-7.21-9.83A8.23,8.23,0,0,0,102,7.66a.71.71,0,0,1-.69-1c1.8-3.65,3.58-6,5.15-6.34a14,14,0,0,1,6.49.2.67.67,0,0,1,.36.21C115.22,2.74,117.59,5.67,118.56,8.37Z" transform="translate(0 0)" fill="#212121"/><path d="M125.11,16.49a27.64,27.64,0,0,1-3.44,4.67c-.37-.2-.74-.38-1.11-.55a42,42,0,0,0,.53-8,18.3,18.3,0,0,0-2.58-8.09.7.7,0,0,1,1-.93,23.38,23.38,0,0,1,7.24,8.18l.06.52A17.29,17.29,0,0,1,125.11,16.49Z" transform="translate(0 0)" fill="#212121"/></g></g><g id="frame"><rect width="300" height="300" fill="none"/></g></svg>