<!-- Copyright (c) 2023 Jan Stehno -->
<svg xmlns="http://www.w3.org/2000/svg" viewBox="0 0 300 300">
    <title>stubblequail</title>
    <g id="stubblequail">
        <g id="right">
            <path
                d="M150,144c9.73,0,16.25,2.93,19.07,10.58s3.61,16.13,7.88,21.57,8.81,5.57,14,5.57,13.39-5.49,17.55-5.49,4.91,1,4.91,3.08-7.57,8.23-17,18.88-16.89,20-24.79,30.6S152.66,250,150,250Z"
                transform="translate(0)" fill="#212121" />
            <path
                d="M221.78,108.94c5.32,0,9.14,4.08,9.14,10.4s-2.08,15-7.32,19.13-8.48,6-13,6-5.07-4.16-5.07-8.82S212.46,108.94,221.78,108.94Z"
                transform="translate(0)" fill="#212121" />
            <path
                d="M174.53,233.41c-5.31,6.76-3.61,5.15,5.91,1.29s35.26-14.23,46.33-21.88,20.79-13.47,20.79-33-10.81-38.68-12.81-45.25-.62-3.66-3.45,1-11.65,12.89-20.63,12.89-9.94-8.32-9.94-15.14,7.57-24,16.55-30.27S227,96.39,227,92.73s-1.82-7.28-3.24-10.27,0,3.24-4.32,5.11-8.11.21-8.82.92.36,8.26-2.8,11-7.32,3.94-9,6.44S196,114.05,193,117.26s-8.38,5.6-16.8,8.26-3.39,1,4-4.49,10.37-11.48,11.59-17.3,4.6-11,6.93-15.85,2.85-8,3.77-8.88,8.59-3.6,9.48-4.49.75-8.23-.11-9.09a71.79,71.79,0,0,0-8.6-5.77c-2.93-1.66-2.16.17-2.16,2.22s-1.33,3.49-4.1,5.66-3.49,4-5.05,10.48-1.72,9.09-5.15,12.19-5,9.82-6,12.09-2.27,2.39-5.87,4.83-.61.72,3.77-8a63.76,63.76,0,0,0,6.76-23.85c.44-6.65,2.83-9.15,4-12.08s-.17-8.27-.78-8.88-25.34-5.21-26.45-4.1-3.6,8.15-4.71,10.37-.66,3.05-.66,7.32S152,82.37,151.33,87.53s-.66,6.24-1.33,6.26V135c8.34,0,18,8.1,20.79,12.95s6.93,20.6,10.26,25.15,7.37,6.59,14.86,3.66,11.42-4.11,14.53-4.11,6.59,3.44,6.59,6.49-1.24,4.6-8.06,11.06a163.62,163.62,0,0,0-20.71,23.45C181.35,223.22,176.83,230.49,174.53,233.41Z"
                transform="translate(0)" fill="#212121" />
        </g>
        <g id="left">
            <path
                d="M150,144c-9.73,0-16.25,2.93-19.07,10.58s-3.61,16.13-7.88,21.57-8.81,5.57-14,5.57-13.39-5.49-17.55-5.49-4.91,1-4.91,3.08,7.57,8.23,17,18.88,16.89,20,24.79,30.6S147.34,250,150,250Z"
                transform="translate(0)" fill="#212121" />
            <path
                d="M78.22,108.94c-5.32,0-9.14,4.08-9.14,10.4s2.08,15,7.32,19.13,8.48,6,13,6,5.07-4.16,5.07-8.82S87.54,108.94,78.22,108.94Z"
                transform="translate(0)" fill="#212121" />
            <path
                d="M125.47,233.41c5.31,6.76,3.61,5.15-5.91,1.29S84.3,220.47,73.23,212.82s-20.79-13.47-20.79-33,10.81-38.68,12.81-45.25.62-3.66,3.45,1,11.65,12.89,20.63,12.89,9.94-8.32,9.94-15.14-7.57-24-16.55-30.27S73,96.39,73,92.73s1.82-7.28,3.24-10.27,0,3.24,4.32,5.11,8.11.21,8.82.92-.36,8.26,2.8,11,7.32,3.94,9,6.44,2.83,8.15,5.76,11.36,8.38,5.6,16.8,8.26,3.39,1-4-4.49-10.37-11.48-11.59-17.3-4.6-11-6.93-15.85-2.85-8-3.77-8.88S88.9,75.4,88,74.51s-.75-8.23.11-9.09a71.79,71.79,0,0,1,8.6-5.77c2.93-1.66,2.16.17,2.16,2.22s1.33,3.49,4.1,5.66,3.49,4,5,10.48,1.72,9.09,5.15,12.19,5,9.82,6,12.09,2.27,2.39,5.87,4.83.61.72-3.77-8a63.76,63.76,0,0,1-6.76-23.85c-.44-6.65-2.83-9.15-4-12.08s.17-8.27.78-8.88,25.34-5.21,26.45-4.1,3.6,8.15,4.71,10.37.66,3.05.66,7.32,4.88,14.51,5.55,19.67.66,6.24,1.33,6.26V135c-8.34,0-18,8.1-20.79,12.95s-6.93,20.6-10.26,25.15-7.37,6.59-14.86,3.66-11.42-4.11-14.53-4.11S83,176.09,83,179.14s1.24,4.6,8.06,11.06a163.62,163.62,0,0,1,20.71,23.45C118.65,223.22,123.17,230.49,125.47,233.41Z"
                transform="translate(0)" fill="#212121" />
        </g>
    </g>
    <g id="frame">
        <rect width="300" height="300" fill="none" />
    </g>
</svg>