<svg xmlns="http://www.w3.org/2000/svg" viewBox="0 0 30 30"><path d="M15,14.4c1,0,1.62.29,1.91,1.06a8.45,8.45,0,0,0,.78,2.15,1.5,1.5,0,0,0,1.4.56c.52,0,1.34-.55,1.76-.55s.49.1.49.31-.76.82-1.71,1.89-1.69,2-2.48,3.06A7.29,7.29,0,0,1,15,25Z" transform="translate(0)" fill="#212121"/><path d="M22.18,10.89a.93.93,0,0,1,.91,1,2.6,2.6,0,0,1-.73,1.92,2,2,0,0,1-1.3.6c-.45,0-.5-.42-.5-.89S21.25,10.89,22.18,10.89Z" transform="translate(0)" fill="#212121"/><path d="M17.45,23.34c-.53.68-.36.52.59.13a31.38,31.38,0,0,0,4.64-2.19c1.1-.76,2.08-1.35,2.08-3.3a13,13,0,0,0-1.29-4.52c-.19-.66-.06-.37-.34.1a2.86,2.86,0,0,1-2.06,1.29c-.9,0-1-.84-1-1.52a5,5,0,0,1,1.66-3c.9-.62,1-.66,1-1a2.49,2.49,0,0,0-.32-1c-.14-.3,0,.32-.44.51s-.81,0-.88.09,0,.82-.28,1.1-.73.39-.9.64a6.83,6.83,0,0,1-.58,1.14,3.81,3.81,0,0,1-1.68.82c-.84.27-.34.1.4-.45a2.74,2.74,0,0,0,1.16-1.73,7.27,7.27,0,0,1,.69-1.58c.24-.49.29-.8.38-.89s.86-.36.95-.45a1.66,1.66,0,0,0,0-.91A7.92,7.92,0,0,0,20.33,6c-.3-.17-.22,0-.22.22s-.13.35-.41.56-.35.4-.5,1S19,8.71,18.68,9a3.39,3.39,0,0,0-.6,1.21c-.11.23-.23.24-.59.48s-.06.07.38-.8a6.45,6.45,0,0,0,.67-2.39A2.92,2.92,0,0,1,19,6.31a1.3,1.3,0,0,0-.08-.88A13.58,13.58,0,0,0,16.23,5a7.73,7.73,0,0,0-.48,1c-.11.23-.06.31-.06.74s-.49,1.45-.56,2-.06.63-.13.63V13.5a3,3,0,0,1,2.08,1.3c.28.48.69,2.05,1,2.51a1.11,1.11,0,0,0,1.49.37A4.23,4.23,0,0,1,21,17.27a.73.73,0,0,1,.66.64c0,.31-.12.46-.8,1.11a15.94,15.94,0,0,0-2.07,2.35C18.14,22.32,17.68,23.05,17.45,23.34Z" transform="translate(0)" fill="#212121"/><path d="M15,14.4c-1,0-1.62.29-1.91,1.06a8.45,8.45,0,0,1-.78,2.15,1.5,1.5,0,0,1-1.4.56c-.52,0-1.34-.55-1.76-.55s-.49.1-.49.31.76.82,1.71,1.89,1.69,2,2.48,3.06A7.29,7.29,0,0,0,15,25Z" transform="translate(0)" fill="#212121"/><path d="M7.82,10.89a.93.93,0,0,0-.91,1,2.6,2.6,0,0,0,.73,1.92,2,2,0,0,0,1.3.6c.45,0,.5-.42.5-.89S8.75,10.89,7.82,10.89Z" transform="translate(0)" fill="#212121"/><path d="M12.55,23.34c.53.68.36.52-.59.13a31.38,31.38,0,0,1-4.64-2.19c-1.1-.76-2.08-1.35-2.08-3.3a13,13,0,0,1,1.29-4.52c.19-.66.06-.37.34.1a2.86,2.86,0,0,0,2.06,1.29c.9,0,1-.84,1-1.52a5,5,0,0,0-1.66-3c-.9-.62-1-.66-1-1a2.49,2.49,0,0,1,.32-1c.14-.3,0,.32.44.51s.81,0,.88.09,0,.82.28,1.1.73.39.9.64a6.83,6.83,0,0,0,.58,1.14,3.81,3.81,0,0,0,1.68.82c.84.27.34.1-.4-.45a2.74,2.74,0,0,1-1.16-1.73,7.27,7.27,0,0,0-.69-1.58c-.24-.49-.29-.8-.38-.89s-.86-.36-.95-.45a1.66,1.66,0,0,1,0-.91A7.92,7.92,0,0,1,9.67,6c.3-.17.22,0,.22.22s.13.35.41.56.35.4.5,1,.17.91.52,1.22a3.39,3.39,0,0,1,.6,1.21c.11.23.23.24.59.48s.06.07-.38-.8a6.45,6.45,0,0,1-.67-2.39,2.92,2.92,0,0,0-.41-1.21,1.3,1.3,0,0,1,.08-.88A13.58,13.58,0,0,1,13.77,5a7.73,7.73,0,0,1,.48,1c.11.23.06.31.06.74s.49,1.45.56,2,.06.63.13.63V13.5a3,3,0,0,0-2.08,1.3c-.28.48-.69,2.05-1,2.51a1.11,1.11,0,0,1-1.49.37A4.23,4.23,0,0,0,9,17.27a.73.73,0,0,0-.66.64c0,.31.12.46.8,1.11a15.94,15.94,0,0,1,2.07,2.35C11.86,22.32,12.32,23.05,12.55,23.34Z" transform="translate(0)" fill="#212121"/><rect width="30" height="30" fill="none"/></svg>