<svg xmlns="http://www.w3.org/2000/svg" viewBox="0 0 30 30"><path d="M15,5.93l.43-.3.05.22.17-.11a1.67,1.67,0,0,0,0,.68.29.29,0,0,0,.31.21,1.06,1.06,0,0,0,.4-.16l.06.29.33-.18L16.69,7A2.49,2.49,0,0,1,17,6.87a1.31,1.31,0,0,1,.31-.09l.07.47a1.83,1.83,0,0,1,.33-.17A.91.91,0,0,1,18.07,7l0,.63.35,0,0,.32.38.07V8.4h.29l0,.21.27,0,.05.33.63.06.46.88a7.12,7.12,0,0,1,1.3-1.71,8.27,8.27,0,0,1,3-1.27c.52-.09,1-.15,1,.69a7,7,0,0,1-1.42,3.28,11.51,11.51,0,0,1-1.84,1.58c-.31.16-.4.16-.4.54s0,.42.46.54A6.06,6.06,0,0,1,23.9,14H22.8a2.72,2.72,0,0,0,.83.32,5.12,5.12,0,0,0,1.05.14,4.34,4.34,0,0,1-.61.32,4.3,4.3,0,0,1-.66.18s.31.16.59.27.83.26.83.26a1.9,1.9,0,0,1-.71.14,3.21,3.21,0,0,1-.59,0l1,1.09-.8-.25a4,4,0,0,0,.34.93c.22.4.52.86.52.86l-.88-.62a6,6,0,0,1,.41.58,1.54,1.54,0,0,1,.2.49s-.53-.55-1.06-1a8.35,8.35,0,0,0-.91-.68,2.36,2.36,0,0,1,.52-.05,1.3,1.3,0,0,1,.55.12,2.88,2.88,0,0,0-.16-.5,4.69,4.69,0,0,0-.25-.46l.38-.08a2.94,2.94,0,0,0-.22-.57c-.15-.26-.39-.59-.39-.59l.16-.18-.61-.62.11-.19a1.33,1.33,0,0,1-.34-.44c-.07-.22-.05-.72-.11-.89a2.22,2.22,0,0,0-.15-.34l.64-.42-.16-.1.39-.46s-.22,0-.3-.06,0-.29.1-.39.76-.06,1.14-.32a3.37,3.37,0,0,0,.77-1,8.25,8.25,0,0,1-1.15.49A.25.25,0,0,1,23,9.72c0-.16.21-.17.79-.52A6.11,6.11,0,0,0,25,8H24.8L25,7.81a3,3,0,0,0-1.4.24,5.42,5.42,0,0,0-1.54,1.24l.25.24L22,9.6l.13.26-.44.48.2.25s.08.81,0,.94-.53,0-.82-.27A1.14,1.14,0,0,0,20.2,11c-.29,0-.86.49-1.56,1.54a5.94,5.94,0,0,0-1.07,2.18,3.71,3.71,0,0,0,.32,1.41c.15.16.34-.18.34-.37s-.27-.38-.27-.63.52-1,.84-1,.42.14.42.62a3.72,3.72,0,0,0,.1.85l-.25-.11a1.92,1.92,0,0,0,.08.42,1.84,1.84,0,0,0,.16.34l-.48-.08a.88.88,0,0,0,.11.47c.13.21.26.39.26.39L18.74,17a1.23,1.23,0,0,0,.09.53,2.4,2.4,0,0,0,.25.4l-.43-.05a2,2,0,0,0,.15.61,4.86,4.86,0,0,0,.28.45l-.65-.14a.92.92,0,0,0,.09.49,3.88,3.88,0,0,1,.21.41l-.79-.42s0,.35.1.6a2.31,2.31,0,0,0,.18.46l-.46-.14a2.62,2.62,0,0,0,.25.7,7,7,0,0,0,.39.67l-.63-.29a3,3,0,0,0,0,.45c0,.19.05.35.05.35l-.27-.15a1.13,1.13,0,0,0,.05.33l.14.33a1.22,1.22,0,0,1-.51-.66,2.66,2.66,0,0,1-.15-.91l.39,0-.41-1.31.34.12-.55-2.05.46.25-.16-1.06.2.09s-.36-1.11-.7-1.11-.54.9-.55,2a12.31,12.31,0,0,0,0,1.55l-.25-.13a5.17,5.17,0,0,0,.15,1.06c.15.55.24.86.24.86l-.23-.1a5.78,5.78,0,0,0,.36,1c.26.52.45.82.45.82l-.31,0,.35.44h-.23a1.53,1.53,0,0,1,.37.84c0,.43-.16.42-.52.53s-.77.73-1,.76-.31.15,0,.3.27.1.52,0,.47,0,.82-.27.44-.32.44-.63,0-.37.24-.37.67.74.67,2.16S16.47,28.32,16,28.32s-.66-.21-1-.21V13.62a3.75,3.75,0,0,0,.36-1.7,3.65,3.65,0,0,0-.36-1.6Z" transform="translate(0)" fill="#212121"/><path d="M15,29a14.8,14.8,0,0,0,2.2-.43c.29,0-.25.65-.84.87a4.18,4.18,0,0,0-.94.51l-.24-.17L15,30Z" transform="translate(0)" fill="#212121"/><path d="M20.19,14.81a.77.77,0,0,0,.45.16.94.94,0,0,0,.46-.12,3.63,3.63,0,0,0,.4,1.72c.47,1,1,1.16,1.38,1.56a7.29,7.29,0,0,1,.82,1.41,4.28,4.28,0,0,0-.61-.59,2.38,2.38,0,0,0-.47-.28,3.49,3.49,0,0,0,.86,2,4.21,4.21,0,0,1-.73-.45,5.85,5.85,0,0,1-.52-.45,7.93,7.93,0,0,0,.5,1,9.65,9.65,0,0,0,.68.92s-.32-.2-.68-.48a5.54,5.54,0,0,1-.64-.57,7.69,7.69,0,0,0,.43,1.25,8.42,8.42,0,0,0,.68,1.13l-.67-.3a5.45,5.45,0,0,0,.23,1.6,6.44,6.44,0,0,0,.62,1.37s-.33-.21-.56-.38a3.61,3.61,0,0,1-.52-.5,6.87,6.87,0,0,0,.09,1.57,16.21,16.21,0,0,0,.34,1.7l-1-1.19s.18.77.31,1.53a6.86,6.86,0,0,1,.08,1.46,9.73,9.73,0,0,0-.59-1.79,2.1,2.1,0,0,0-.69-.9,1.25,1.25,0,0,0-.11.56,6.42,6.42,0,0,0,0,.68l-.65-.75a4.38,4.38,0,0,0-.07.71,4,4,0,0,0,.09.8,4.48,4.48,0,0,1-1.05-1.37,3.72,3.72,0,0,1-.21-1.54l.58.6a2.38,2.38,0,0,0,.11-.65,7.21,7.21,0,0,0,0-1,1.84,1.84,0,0,1,.49.2,1.71,1.71,0,0,1,.32.36,6.39,6.39,0,0,0,0-1.17A4,4,0,0,0,20,23.52l1.06,1.18a2.15,2.15,0,0,0,.06-.64c0-.43-.08-.89-.08-.89l.52.31A10,10,0,0,0,20.88,22a3,3,0,0,1-.34-1.39l.76.75a8.61,8.61,0,0,1-.31-1,8.77,8.77,0,0,1-.17-1.14l.65.58,0-1,.74.57a12,12,0,0,1-.9-1.79,9.69,9.69,0,0,1-.4-2.07,1.49,1.49,0,0,1-.5-.27A.43.43,0,0,1,20.19,14.81Z" transform="translate(0)" fill="#212121"/><path d="M19.06,13.83c.28,0,.71-1.25,1.41-1.25a1,1,0,0,1,.92.36,2,2,0,0,1-.2-.64.87.87,0,0,1,.21-.47,1.8,1.8,0,0,0-.91-.18,1.57,1.57,0,0,0-1.38,1c-.05.39-.11.49-.21.56S18.77,13.83,19.06,13.83Z" transform="translate(0)" fill="#212121"/><path d="M20.38,13.58a.33.33,0,0,1,.28-.18.32.32,0,0,1,.3.22,1.18,1.18,0,0,1,.25.1v-.11c0-.55-.27-.65-.7-.63s-.58.16-.58.69A2.75,2.75,0,0,1,20.38,13.58Z" transform="translate(0)" fill="#212121"/><path d="M20.86,13.94a.28.28,0,0,1-.2.08.29.29,0,0,1-.27-.18A.82.82,0,0,0,20,14a.73.73,0,0,0,.71.56.52.52,0,0,0,.48-.43A2,2,0,0,0,20.86,13.94Z" transform="translate(0)" fill="#212121"/><path d="M16,6.21a1.46,1.46,0,0,0,1-1c0-.4-.31-.37-.31-.37a1.31,1.31,0,0,0,.92-.71c.33-.63.12-.63.12-.63a1.28,1.28,0,0,0,.71-.76A2.88,2.88,0,0,1,19.8,1.3,3.91,3.91,0,0,1,21.48.52a3.46,3.46,0,0,1,2.13.15,3.78,3.78,0,0,1,.79.46S24,0,21.79,0,17.9,2.2,17.56,2.67a9.61,9.61,0,0,0-1.13,1.66c-.09.34-.3.45-.45,1S15.75,6.21,16,6.21Z" transform="translate(0)" fill="#212121"/><path d="M25.05,2.1A3.15,3.15,0,0,0,22.26.66,3.92,3.92,0,0,0,20,1.43l.14.19s-.36-.15-.93.39-.61.79-.61.79l.28.12s-.3-.07-.62.41-.3.64-.55,1a1.26,1.26,0,0,1-.45.48,1,1,0,0,1-.19.79c-.28.34-.5.37-.5.64l.5,0v.2l.65-.16,0,.46.7-.17-.07.78.38,0,0,.35.3,0,0,.33.35,0V8.3l.28,0,.07.25h.28A1.25,1.25,0,0,1,20.28,8a4.06,4.06,0,0,1,.23-.4A6.75,6.75,0,0,1,19.59,6a9.12,9.12,0,0,1-.35-2.53,15.39,15.39,0,0,0,.7,2.73,5.48,5.48,0,0,0,.73,1.26l.56-.57s.14-.11-.13-1a14.12,14.12,0,0,1-.61-1.79,11.21,11.21,0,0,1-.14-1.4,12.67,12.67,0,0,0,.47,1.84c.27.75.51,1.08.61,1.45a1.82,1.82,0,0,1,.06.66l.56-.54v-.9c0-.5-.31-1-.31-1.81a7.85,7.85,0,0,1,.17-1.52,10,10,0,0,0,.1,2,4.73,4.73,0,0,1,.3,1.37V6l.5-.28a2.11,2.11,0,0,0,.37-1,7.25,7.25,0,0,1,0-1.3,4.1,4.1,0,0,1,.45-1.2,9.76,9.76,0,0,0-.34,1.84c0,.62.07.84-.09,1.18L23,5.7l.4.2L23.11,6a5.36,5.36,0,0,0,.23,1.11,2.34,2.34,0,0,0,1.39-.55,3.4,3.4,0,0,0,.58-2A4.54,4.54,0,0,0,25.05,2.1ZM24.1,4a5.54,5.54,0,0,0,.18-.66,1.31,1.31,0,0,1,0,.75,1.07,1.07,0,0,1-.42.55S24,4.34,24.1,4Zm.4,1.15c-.38.7-.76.68-.76.68l.5-.57a10.41,10.41,0,0,0,.85-2.18A7.75,7.75,0,0,1,24.5,5.18Z" transform="translate(0)" fill="#212121"/><path d="M15,5.93l-.43-.3-.05.22-.17-.11a1.67,1.67,0,0,1,0,.68.29.29,0,0,1-.31.21,1.06,1.06,0,0,1-.4-.16l-.06.29-.33-.18.06.45A2.49,2.49,0,0,0,13,6.87a1.31,1.31,0,0,0-.31-.09l-.07.47a1.83,1.83,0,0,0-.33-.17A.91.91,0,0,0,11.93,7l0,.63-.35,0,0,.32-.38.07V8.4h-.29l0,.21-.27,0,0,.33L9.85,9l-.46.88A7.12,7.12,0,0,0,8.09,8.2a8.27,8.27,0,0,0-3-1.27c-.52-.09-1-.15-1,.69A7,7,0,0,0,5.47,10.9a11.51,11.51,0,0,0,1.84,1.58c.31.16.4.16.4.54s0,.42-.46.54A6.06,6.06,0,0,0,6.1,14H7.2a2.72,2.72,0,0,1-.83.32,5.12,5.12,0,0,1-1,.14,4.34,4.34,0,0,0,.61.32,4.3,4.3,0,0,0,.66.18s-.31.16-.59.27-.83.26-.83.26a1.9,1.9,0,0,0,.71.14,3.21,3.21,0,0,0,.59,0l-1,1.09.8-.25a4,4,0,0,1-.34.93c-.22.4-.52.86-.52.86l.88-.62a6,6,0,0,0-.41.58,1.54,1.54,0,0,0-.2.49s.53-.55,1.06-1a8.35,8.35,0,0,1,.91-.68A2.36,2.36,0,0,0,7.14,17a1.3,1.3,0,0,0-.55.12,2.88,2.88,0,0,1,.16-.5A4.69,4.69,0,0,1,7,16.16l-.38-.08a2.94,2.94,0,0,1,.22-.57c.15-.26.39-.59.39-.59l-.16-.18.61-.62-.11-.19a1.33,1.33,0,0,0,.34-.44c.07-.22,0-.72.11-.89a2.22,2.22,0,0,1,.15-.34l-.64-.42.16-.1-.39-.46s.22,0,.3-.06,0-.29-.1-.39-.76-.06-1.14-.32a3.37,3.37,0,0,1-.77-1A8.25,8.25,0,0,0,6.74,10,.25.25,0,0,0,7,9.72c0-.16-.21-.17-.79-.52A6.11,6.11,0,0,1,5,8H5.2L5,7.81a3,3,0,0,1,1.4.24A5.42,5.42,0,0,1,8,9.29l-.25.24L8,9.6l-.13.26.44.48-.2.25s-.08.81.05.94.53,0,.82-.27A1.14,1.14,0,0,1,9.8,11c.29,0,.86.49,1.56,1.54a5.94,5.94,0,0,1,1.07,2.18,3.71,3.71,0,0,1-.32,1.41c-.15.16-.34-.18-.34-.37s.27-.38.27-.63-.52-1-.84-1-.42.14-.42.62a3.72,3.72,0,0,1-.1.85l.25-.11a1.92,1.92,0,0,1-.08.42,1.84,1.84,0,0,1-.16.34l.48-.08a.88.88,0,0,1-.11.47c-.13.21-.26.39-.26.39l.46-.12a1.23,1.23,0,0,1-.09.53,2.4,2.4,0,0,1-.25.4l.43-.05a2,2,0,0,1-.15.61,4.86,4.86,0,0,1-.28.45l.65-.14a.92.92,0,0,1-.09.49,3.88,3.88,0,0,0-.21.41l.79-.42s0,.35-.1.6a2.31,2.31,0,0,1-.18.46l.46-.14a2.62,2.62,0,0,1-.25.7,7,7,0,0,1-.39.67l.63-.29a3,3,0,0,1,0,.45c0,.19-.05.35-.05.35l.27-.15a1.13,1.13,0,0,1,0,.33l-.14.33a1.22,1.22,0,0,0,.51-.66,2.66,2.66,0,0,0,.15-.91l-.39,0,.41-1.31-.34.12.55-2.05-.46.25.16-1.06-.2.09s.36-1.11.7-1.11.54.9.55,2a12.31,12.31,0,0,1-.05,1.55l.25-.13A5.17,5.17,0,0,1,14,20.39c-.15.55-.24.86-.24.86l.23-.1a5.78,5.78,0,0,1-.36,1c-.26.52-.45.82-.45.82l.31,0-.35.44h.23a1.53,1.53,0,0,0-.37.84c0,.43.16.42.52.53s.77.73,1,.76.31.15,0,.3-.27.1-.52,0-.47,0-.82-.27-.44-.32-.44-.63,0-.37-.24-.37-.67.74-.67,2.16,1.77,1.66,2.25,1.66.66-.21,1-.21V13.62a3.75,3.75,0,0,1-.36-1.7,3.65,3.65,0,0,1,.36-1.6Z" transform="translate(0)" fill="#212121"/><path d="M15,29a14.8,14.8,0,0,1-2.2-.43c-.29,0,.25.65.84.87a4.18,4.18,0,0,1,.94.51l.24-.17L15,30Z" transform="translate(0)" fill="#212121"/><path d="M9.81,14.81a.77.77,0,0,1-.45.16.94.94,0,0,1-.46-.12,3.63,3.63,0,0,1-.4,1.72c-.47,1-1,1.16-1.38,1.56a7.29,7.29,0,0,0-.82,1.41A4.28,4.28,0,0,1,6.91,19a2.38,2.38,0,0,1,.47-.28,3.71,3.71,0,0,1-.25,1,3.69,3.69,0,0,1-.61,1,4.21,4.21,0,0,0,.73-.45,5.85,5.85,0,0,0,.52-.45,7.93,7.93,0,0,1-.5,1,9.65,9.65,0,0,1-.68.92s.32-.2.68-.48a5.54,5.54,0,0,0,.64-.57,7.69,7.69,0,0,1-.43,1.25,8.42,8.42,0,0,1-.68,1.13l.67-.3a5.45,5.45,0,0,1-.23,1.6,6.44,6.44,0,0,1-.62,1.37s.33-.21.56-.38a3.61,3.61,0,0,0,.52-.5,6.87,6.87,0,0,1-.09,1.57,16.21,16.21,0,0,1-.34,1.7l1-1.19s-.18.77-.31,1.53a6.86,6.86,0,0,0-.08,1.46,9.73,9.73,0,0,1,.59-1.79,2.1,2.1,0,0,1,.69-.9,1.25,1.25,0,0,1,.11.56,6.42,6.42,0,0,1,0,.68l.65-.75a4.38,4.38,0,0,1,.07.71,4,4,0,0,1-.09.8,4.48,4.48,0,0,0,1.05-1.37,3.72,3.72,0,0,0,.21-1.54l-.58.6a2.38,2.38,0,0,1-.11-.65,7.21,7.21,0,0,1,0-1,1.84,1.84,0,0,0-.49.2,1.71,1.71,0,0,0-.32.36,6.39,6.39,0,0,1,0-1.17A4,4,0,0,1,10,23.52L8.94,24.7a2.15,2.15,0,0,1-.06-.64c0-.43.08-.89.08-.89l-.52.31A10,10,0,0,1,9.12,22a3,3,0,0,0,.34-1.39l-.76.75a8.61,8.61,0,0,0,.31-1,8.77,8.77,0,0,0,.17-1.14l-.65.58,0-1-.74.57a12,12,0,0,0,.9-1.79,9.69,9.69,0,0,0,.4-2.07,1.49,1.49,0,0,0,.5-.27A.43.43,0,0,0,9.81,14.81Z" transform="translate(0)" fill="#212121"/><path d="M10.94,13.83c-.28,0-.71-1.25-1.41-1.25a1,1,0,0,0-.92.36,2,2,0,0,0,.2-.64.87.87,0,0,0-.21-.47,1.8,1.8,0,0,1,.91-.18,1.57,1.57,0,0,1,1.38,1c0,.39.11.49.21.56S11.23,13.83,10.94,13.83Z" transform="translate(0)" fill="#212121"/><path d="M9.62,13.58a.33.33,0,0,0-.28-.18.32.32,0,0,0-.3.22,1.18,1.18,0,0,0-.25.1v-.11c0-.55.27-.65.7-.63s.58.16.58.69A2.75,2.75,0,0,0,9.62,13.58Z" transform="translate(0)" fill="#212121"/><path d="M9.14,13.94a.28.28,0,0,0,.2.08.29.29,0,0,0,.27-.18A.82.82,0,0,1,10,14a.73.73,0,0,1-.71.56.52.52,0,0,1-.48-.43A2,2,0,0,1,9.14,13.94Z" transform="translate(0)" fill="#212121"/><path d="M14,6.21a1.46,1.46,0,0,1-1-1c0-.4.31-.37.31-.37a1.31,1.31,0,0,1-.92-.71c-.33-.63-.12-.63-.12-.63a1.28,1.28,0,0,1-.71-.76A2.88,2.88,0,0,0,10.2,1.3,3.91,3.91,0,0,0,8.52.52,3.46,3.46,0,0,0,6.39.67a3.78,3.78,0,0,0-.79.46S6,0,8.21,0s3.89,2.2,4.23,2.67a9.61,9.61,0,0,1,1.13,1.66c.09.34.3.45.45,1S14.25,6.21,14,6.21Z" transform="translate(0)" fill="#212121"/><path d="M4.69,4.54a3.4,3.4,0,0,0,.58,2,2.34,2.34,0,0,0,1.39.55A5.36,5.36,0,0,0,6.89,6L6.57,5.9,7,5.7l-.21-.45c-.16-.34-.09-.56-.09-1.18a9.76,9.76,0,0,0-.34-1.84,4.1,4.1,0,0,1,.45,1.2,7.25,7.25,0,0,1,0,1.3,2.11,2.11,0,0,0,.37,1l.5.28V5.21A4.73,4.73,0,0,1,8,3.84a10,10,0,0,0,.1-2,7.85,7.85,0,0,1,.17,1.52C8.26,4.11,8,4.66,8,5.16v.9l.56.54a1.82,1.82,0,0,1,.06-.66c.1-.37.34-.7.61-1.45a12.67,12.67,0,0,0,.47-1.84,11.21,11.21,0,0,1-.14,1.4A14.12,14.12,0,0,1,8.9,5.84c-.27.9-.13,1-.13,1l.56.57a5.48,5.48,0,0,0,.73-1.26,15.39,15.39,0,0,0,.7-2.73A9.12,9.12,0,0,1,10.41,6a6.75,6.75,0,0,1-.92,1.65,4.06,4.06,0,0,1,.23.4,1.25,1.25,0,0,1,.14.52h.28l.07-.25.28,0V8l.35,0,0-.33.3,0,0-.35.38,0-.07-.78.7.17,0-.46.65.16v-.2l.5,0c0-.27-.22-.3-.5-.64a1,1,0,0,1-.19-.79,1.26,1.26,0,0,1-.45-.48C12,4,12,3.8,11.7,3.33s-.62-.41-.62-.41l.28-.12s0-.25-.61-.79-.93-.39-.93-.39L10,1.43A3.92,3.92,0,0,0,7.74.66,3.15,3.15,0,0,0,5,2.1,4.54,4.54,0,0,0,4.69,4.54Zm1.48.13a1.07,1.07,0,0,1-.42-.55,1.31,1.31,0,0,1,0-.75A5.54,5.54,0,0,0,5.9,4C6,4.34,6.17,4.67,6.17,4.67ZM4.91,3.11a10.41,10.41,0,0,0,.85,2.18l.5.57s-.38,0-.76-.68A7.75,7.75,0,0,1,4.91,3.11Z" transform="translate(0)" fill="#212121"/><rect width="30" height="30" fill="none"/></svg>