<svg xmlns="http://www.w3.org/2000/svg" viewBox="0 0 30 30"><path d="M15,23.39c.77,0,1.22.5,1.9.5a1.8,1.8,0,0,0,1.21-.69s-.85,1.47-1.56,1.47-.94-.32-1.55-.32Z" transform="translate(0 0)" fill="#212121"/><path d="M15,26l.42-.32.39.56.34-.61.52.66,2.12-3.5a5.93,5.93,0,0,0,.51,1.35,12,12,0,0,0,.75,1.06s5.75-7,6-7,.59.55.64,1.52a5.13,5.13,0,0,1-.05,1.36l-.19-.2a3.93,3.93,0,0,1-.16,1.1,3.86,3.86,0,0,1-.37.84l-.35-.36a2.09,2.09,0,0,1-.24.86,3.22,3.22,0,0,1-.53.77l-.32-.33a2.58,2.58,0,0,1-.47.6c-.3.29-.53.49-.53.49l-.34-.42L19.7,27.63,19.53,27l-.44.65-.56-.88L15,30Z" transform="translate(0 0)" fill="#212121"/><path d="M19.77,11.46a.42.42,0,0,1-.84,0l-.51.25a1,1,0,0,0,1.9-.25Z" transform="translate(0 0)" fill="#212121"/><path d="M26.65,12.13c-.32-1.92-.58-2.88-.58-2.88s.36.06.43,0,0-.28-.28-.64-.69-.7-.87-.7-.18.11-.43.3a2.74,2.74,0,0,1-.59.3s.38-.54.93-1.36a5.07,5.07,0,0,0,1.22-3.41A5.3,5.3,0,0,0,25.23.33c-.32-.39-.63-.39-.86-.22s-2,1.56-3.24,2.41A15.87,15.87,0,0,1,18.35,4l1.17-.88A20.36,20.36,0,0,0,15,2.54v7.84c.21.21.44.4.44.74s0,.4-.44.83v7.53c.6,0,.51-.24,1.05-.24s.7.5.7,1.07A1.42,1.42,0,0,1,16,21.57c-.46.28-.71.18-.71.76s1.26.85,1.8.85A2.27,2.27,0,0,0,18.56,22a7.1,7.1,0,0,1,.32-3.08,3.2,3.2,0,0,1,2.89-2.27,2.35,2.35,0,0,1,2,.95,1.93,1.93,0,0,0-.83-.28c-.38,0-1.1.11-2.18,1.29a4.47,4.47,0,0,0-1.24,3.34A6.63,6.63,0,0,0,20,24.12,5.71,5.71,0,0,1,20.59,23a4.47,4.47,0,0,1,.77-.79l.16.25,2.28-2.92,0,.42A7.17,7.17,0,0,0,24.71,19a3.1,3.1,0,0,0,.63-1.51l.12.57a1.86,1.86,0,0,0,.53-.72,3,3,0,0,0,.13-1l.33.25a6.4,6.4,0,0,0,.05-.79,5.84,5.84,0,0,0-.08-1l.47.3A13.08,13.08,0,0,0,26.65,12.13Zm-5.16-.27c-.56.36-1,1.18-2.06,1.18s-1.28-.35-1.28-.35a.43.43,0,0,0-.18.41c0,.33.84,1.66,1,2.27a3,3,0,0,1,.09,1.22,5.45,5.45,0,0,0-.69-2,11.9,11.9,0,0,1-1.35-2.05c0-.3,1-1.12,1.68-1.3a22.18,22.18,0,0,1,3.06-.13c.44-.05-1-2-1-2l1.79,2.15S22,11.49,21.49,11.86ZM22.71,7a2.23,2.23,0,0,0-.66.09,5.59,5.59,0,0,0,.19-.89,5,5,0,0,0,0-.69,6.52,6.52,0,0,1-.92-.24,2,2,0,0,1-.77-.46s.58-.08,1-.16a7,7,0,0,0,.83-.24L21.23,4a4.46,4.46,0,0,0,2-1.36c.58-.88,1.11-2,1.36-2s1.16,1.55,1.16,3.14a5.2,5.2,0,0,1-1.49,3.37C24,7.35,23,7,22.71,7Z" transform="translate(0 0)" fill="#212121"/><path d="M15,23.39c-.77,0-1.22.5-1.9.5a1.8,1.8,0,0,1-1.21-.69s.85,1.47,1.56,1.47.94-.32,1.55-.32Z" transform="translate(0 0)" fill="#212121"/><path d="M15,26l-.42-.32-.39.56-.34-.61-.52.66-2.12-3.5a5.93,5.93,0,0,1-.51,1.35A12,12,0,0,1,10,25.23s-5.75-7-6-7-.59.55-.64,1.52a5.13,5.13,0,0,0,.05,1.36l.19-.2A3.93,3.93,0,0,0,3.72,22a3.86,3.86,0,0,0,.37.84l.35-.36a2.09,2.09,0,0,0,.24.86,3.22,3.22,0,0,0,.53.77l.32-.33a2.58,2.58,0,0,0,.47.6c.3.29.53.49.53.49l.34-.42,3.43,3.15.17-.64.44.65.56-.88L15,30Z" transform="translate(0 0)" fill="#212121"/><path d="M10.23,11.46a.42.42,0,0,0,.84,0l.51.25a1,1,0,0,1-1.9-.25Z" transform="translate(0 0)" fill="#212121"/><path d="M3.11,15l.47-.3a5.84,5.84,0,0,0-.08,1,6.4,6.4,0,0,0,0,.79l.33-.25a3,3,0,0,0,.13,1,1.86,1.86,0,0,0,.53.72l.12-.57A3.1,3.1,0,0,0,5.29,19,7.17,7.17,0,0,0,6.17,20l0-.42L8.48,22.5l.16-.25a4.47,4.47,0,0,1,.77.79A5.71,5.71,0,0,1,10,24.12a6.63,6.63,0,0,0,.45-2.21A4.47,4.47,0,0,0,9.2,18.57C8.12,17.39,7.4,17.28,7,17.28a1.93,1.93,0,0,0-.83.28,2.35,2.35,0,0,1,2-.95,3.2,3.2,0,0,1,2.89,2.27A7.1,7.1,0,0,1,11.44,22a2.27,2.27,0,0,0,1.49,1.22c.54,0,1.8-.27,1.8-.85s-.25-.48-.71-.76a1.42,1.42,0,0,1-.77-1.26c0-.57.17-1.07.7-1.07s.45.24,1.05.24V12c-.39-.43-.44-.5-.44-.83s.23-.53.44-.74V2.54a20.36,20.36,0,0,0-4.52.55L11.65,4A15.87,15.87,0,0,1,8.87,2.52C7.6,1.67,5.87.28,5.63.11s-.54-.17-.86.22a5.3,5.3,0,0,0-1.25,3.4A5.07,5.07,0,0,0,4.74,7.14c.55.82.93,1.36.93,1.36a2.74,2.74,0,0,1-.59-.3c-.25-.19-.25-.3-.43-.3s-.6.34-.87.7-.35.57-.28.64.43,0,.43,0-.26,1-.58,2.88A13.08,13.08,0,0,0,3.11,15Zm4.35-3.82L9.25,9s-1.48,2-1,2a22.18,22.18,0,0,1,3.06.13c.66.18,1.68,1,1.68,1.3a11.9,11.9,0,0,1-1.35,2.05,5.45,5.45,0,0,0-.69,2A3,3,0,0,1,11,15.37c.19-.61,1-1.94,1-2.27a.43.43,0,0,0-.18-.41s-.23.35-1.28.35-1.5-.82-2.06-1.18S7.46,11.19,7.46,11.19Zm-1.73-4A5.2,5.2,0,0,1,4.24,3.81c0-1.59.9-3.14,1.16-3.14s.78,1.12,1.36,2A4.46,4.46,0,0,0,8.77,4L7.6,4.41a7,7,0,0,0,.83.24c.4.08,1,.16,1,.16a2,2,0,0,1-.77.46,6.52,6.52,0,0,1-.92.24,5,5,0,0,0,0,.69A5.59,5.59,0,0,0,8,7.09,2.23,2.23,0,0,0,7.29,7C7.05,7,6,7.35,5.73,7.18Z" transform="translate(0 0)" fill="#212121"/><rect width="30" height="30" fill="none"/></svg>