<!-- Copyright (c) 2023 Jan Stehno -->
<svg xmlns="http://www.w3.org/2000/svg" viewBox="0 0 300 300">
    <title>tuftedduck</title>
    <g id="tuftedduck">
        <g id="right">
            <path
                d="M224.53,122.93C218.44,103.75,213.89,96.6,209,85.55S205.59,67,204.54,53.44s-6-19.67-10.89-22.43-4-3.29-4.31-9.88S184,11.05,181.41,11.05s-3.21,2.44-4.14,2.44,1.79-2.6.61-5.28S170.36,0,163.41,0,154.75,2,150,7.36V33.24c5.49,0,5,6.63,5,6.63S155,35,150,35v89.57c1.3,0,8.7-15.2,15.44-15.2s25.44,40.31,28.78,48.28S197.63,162,201,162s5.94,8,4.64,16.09-5.29,12.6.16,8.62a56.1,56.1,0,0,0,18.69-22C230.06,152.93,230.63,142.12,224.53,122.93ZM152.6,13.49s.29-5,4.76-5,5.32,7.16,5.32,7.16-2.24-4.84-5.73-4.84A4.32,4.32,0,0,0,152.6,13.49Zm11.3,13.37c5.89,0,5.93,5.77,5.93,5.77s-2-4.34-5.52-4.34-7.24,7.31-7.24,7.31S158,26.86,163.9,26.86ZM166.5,41c-3.54,0-8.13,6-8.13,6s2.85-8,8.5-8,6.58,10.37,6.58,10.37S170,41,166.5,41Zm15.81-5.64s-1.51-7.12-3.37-7.12a11.2,11.2,0,0,0-3.5.61s.12-1.13.24-3.21-.08-6.05-5.08-6.05a7.26,7.26,0,0,0-6.7,4.1s1.83-6.83,7.23-6.83S176.78,26,176.78,26A3.38,3.38,0,0,1,180.84,27C182.8,29.18,182.31,35.32,182.31,35.32Zm15.2,65.83c-1.91,6.22-8.9,9.47-8.9,11.22s1.7,5.93,8.08,8.29c0,0-8.16,1-11.21-9s-1.83-22.92,1.05-29,9.35-13.41,9.35-13.41a56.87,56.87,0,0,0,.81,14.14C198.12,90.59,199.42,94.93,197.51,101.15Z"
                transform="translate(0)" fill="#212121" />
            <path
                d="M189.45,84.94c-2,0-3.61,3.11-3.61,10s1.67,7.92,2.85,7.92c2.84,0,5.53-4.54,5.53-9.26S191.42,84.94,189.45,84.94Zm1.12,10.6c-.78,0-.78-.88-.78-2.34s.38-2.53.94-2.53,1.41.2,1.41,2.29S191.58,95.54,190.57,95.54Z"
                transform="translate(0)" fill="#212121" />
            <path
                d="M202.2,170.62c0-7.68-1.62-2.8-4-2.8s-4.55-3.27-11.38-17.25-18.29-36.33-21.26-36.33S151,130.05,150,130.05V244.32c8.13,0,17.76,9.72,22.11,14.63s3.17,8,.32,9.39-3.9,3.17.12,3.17,11.75-7.23,13.58-14.55-.12-12.68.93-26,2.69-26.37,9.35-38.36S202.2,178.31,202.2,170.62Zm-35.13-.38c-1.1,0-1.38-4.8-1.38-8.86s1.87-8.29,3.69-8.29,2.48,1.58,2.48,5.24S168.17,170.24,167.07,170.24Z"
                transform="translate(0)" fill="#212121" />
            <path
                d="M150,247.74c6.75,0,17.92,9.22,21.05,13.45s1.79,4.92-1.3,6.62-3.13,2.65-.53,4.47a7.22,7.22,0,0,0,9.15-1c2.48-2.6,5.69-8,5.69-4.11s-1.75,3.34-6.75,8.5S157.32,300,150,300Z"
                transform="translate(0)" fill="#212121" />
        </g>
        <g id="left">
            <path
                d="M75.47,164.63a56.1,56.1,0,0,0,18.69,22c5.45,4,1.46-.57.16-8.62S95.54,162,99,162s3.49,3.66,6.82-4.31,22-48.28,28.78-48.28,14.14,15.2,15.44,15.2V35c-5,0-5,4.88-5,4.88s-.53-6.63,5-6.63V7.36C145.25,2,143.54,0,136.59,0S123.3,5.53,122.12,8.21s1.55,5.28.61,5.28-1.54-2.44-4.14-2.44-7.6,3.5-7.93,10.08.61,7.11-4.31,9.88-9.83,8.86-10.89,22.43.41,21-4.47,32.11-9.43,18.2-15.52,37.38S69.94,152.93,75.47,164.63ZM143.05,10.85c-3.49,0-5.73,4.84-5.73,4.84s.85-7.16,5.32-7.16,4.76,5,4.76,5A4.32,4.32,0,0,0,143.05,10.85Zm-.12,24.75s-3.66-7.31-7.24-7.31-5.52,4.34-5.52,4.34,0-5.77,5.93-5.77S142.93,35.6,142.93,35.6ZM126.55,49.3s.94-10.37,6.58-10.37,8.5,8,8.5,8-4.59-6-8.13-6S126.55,49.3,126.55,49.3ZM119.16,27A3.38,3.38,0,0,1,123.22,26s.24-9.15,5.65-9.15,7.23,6.83,7.23,6.83a7.26,7.26,0,0,0-6.7-4.1c-5,0-5.21,4-5.08,6.05s.24,3.21.24,3.21a11.2,11.2,0,0,0-3.5-.61c-1.86,0-3.37,7.12-3.37,7.12S117.2,29.18,119.16,27ZM103.31,83.39a56.87,56.87,0,0,0,.81-14.14s6.46,7.31,9.35,13.41,4.1,19.06,1,29-11.21,9-11.21,9c6.38-2.36,8.08-6.54,8.08-8.29s-7-5-8.9-11.22S101.88,90.59,103.31,83.39Z"
                transform="translate(0)" fill="#212121" />
            <path
                d="M105.78,93.63c0,4.72,2.69,9.26,5.53,9.26,1.18,0,2.85-1,2.85-7.92s-1.63-10-3.61-10S105.78,88.92,105.78,93.63Zm2.08-.67c0-2.09.85-2.29,1.41-2.29s.94,1.07.94,2.53,0,2.34-.78,2.34C108.42,95.54,107.86,95.05,107.86,93Z"
                transform="translate(0)" fill="#212121" />
            <path
                d="M103.59,192.63c6.66,12,8.29,25.08,9.35,38.36s-.9,18.66.93,26,9.55,14.55,13.58,14.55,3-1.75.12-3.17-4-4.47.32-9.39,14-14.63,22.11-14.63V130.05c-1,0-12.6-15.81-15.56-15.81S120,136.59,113.18,150.57s-9,17.25-11.38,17.25-4-4.88-4,2.8S96.92,180.64,103.59,192.63Zm24.55-34.3c0-3.66.56-5.24,2.48-5.24s3.69,4.23,3.69,8.29-.28,8.86-1.38,8.86S128.14,162,128.14,158.33Z"
                transform="translate(0)" fill="#212121" />
            <path
                d="M150,247.74c-6.75,0-17.92,9.22-21.05,13.45s-1.79,4.92,1.3,6.62,3.13,2.65.53,4.47a7.22,7.22,0,0,1-9.15-1c-2.48-2.6-5.69-8-5.69-4.11s1.75,3.34,6.75,8.5S142.68,300,150,300Z"
                transform="translate(0)" fill="#212121" />
        </g>
    </g>
    <g id="frame">
        <rect width="300" height="300" fill="none" />
    </g>
</svg>