<svg xmlns="http://www.w3.org/2000/svg" viewBox="0 0 30 30"><path d="M22.45,12.29A27.4,27.4,0,0,0,20.9,8.55a8.55,8.55,0,0,1-.45-3.21A2.53,2.53,0,0,0,19.36,3.1c-.49-.28-.39-.33-.43-1a1,1,0,0,0-.79-1c-.26,0-.32.24-.41.24s.18-.26.06-.53A1.83,1.83,0,0,0,16.34,0c-.69,0-.86.2-1.34.74V3.32c.55,0,.5.67.5.67A.48.48,0,0,0,15,3.5v9c.13,0,.87-1.52,1.54-1.52s2.55,4,2.88,4.82.34.43.68.43.6.81.47,1.61-.53,1.26,0,.87a5.58,5.58,0,0,0,1.87-2.21C23,15.29,23.06,14.21,22.45,12.29ZM15.26,1.35s0-.5.48-.5.53.72.53.72-.23-.48-.58-.48A.44.44,0,0,0,15.26,1.35Zm1.13,1.34a.56.56,0,0,1,.59.57s-.19-.43-.55-.43-.72.73-.72.73S15.8,2.69,16.39,2.69Zm.26,1.41c-.35,0-.81.6-.81.6s.28-.81.85-.81.65,1,.65,1S17,4.1,16.65,4.1Zm1.58-.57s-.15-.71-.34-.71a1.2,1.2,0,0,0-.35.06,2.72,2.72,0,0,0,0-.32c0-.21,0-.61-.51-.61a.73.73,0,0,0-.67.42s.18-.69.72-.69.57.92.57.92a.33.33,0,0,1,.4.1C18.28,2.92,18.23,3.53,18.23,3.53Zm1.52,6.59c-.19.62-.89.94-.89,1.12s.17.59.81.83a1.1,1.1,0,0,1-1.12-.9,4.65,4.65,0,0,1,.1-2.9,7.43,7.43,0,0,1,.94-1.35,5.82,5.82,0,0,0,.08,1.42A3.3,3.3,0,0,1,19.75,10.12Z" transform="translate(0)" fill="#212121"/><path d="M18.94,8.49c-.19,0-.36.32-.36,1s.17.79.29.79c.28,0,.55-.46.55-.93S19.14,8.49,18.94,8.49Zm.12,1.06c-.08,0-.08-.08-.08-.23s0-.25.09-.25.14,0,.14.23S19.16,9.55,19.06,9.55Z" transform="translate(0)" fill="#212121"/><path d="M20.22,17.06c0-.77-.16-.28-.4-.28s-.46-.33-1.14-1.72-1.83-3.64-2.12-3.64S15.1,13,15,13V24.43c.81,0,1.78,1,2.21,1.47s.32.79,0,.93-.39.32,0,.32,1.17-.72,1.35-1.45a21.38,21.38,0,0,0,.1-2.6,9,9,0,0,1,.93-3.84A3.19,3.19,0,0,0,20.22,17.06Zm-3.51,0c-.11,0-.14-.48-.14-.88s.19-.83.37-.83.25.16.25.52A2.26,2.26,0,0,1,16.71,17Z" transform="translate(0)" fill="#212121"/><path d="M15,24.77a4,4,0,0,1,2.11,1.35c.31.42.17.49-.13.66s-.32.27-.06.45a.73.73,0,0,0,.92-.1c.24-.26.57-.8.57-.41s-.18.33-.68.85S15.73,30,15,30Z" transform="translate(0)" fill="#212121"/><path d="M7.55,16.46a5.58,5.58,0,0,0,1.87,2.21c.54.39.14-.06,0-.87s.12-1.61.47-1.61.35.37.68-.43,2.2-4.82,2.88-4.82,1.41,1.52,1.54,1.52v-9a.48.48,0,0,0-.5.49s-.05-.67.5-.67V.74C14.52.2,14.35,0,13.66,0a1.83,1.83,0,0,0-1.45.82c-.12.27.16.53.06.53s-.15-.24-.41-.24a1,1,0,0,0-.79,1c0,.66.06.71-.43,1A2.53,2.53,0,0,0,9.55,5.34,8.55,8.55,0,0,1,9.1,8.55a27.4,27.4,0,0,0-1.55,3.74C6.94,14.21,7,15.29,7.55,16.46ZM14.31,1.09c-.35,0-.58.48-.58.48s.09-.72.53-.72.48.5.48.5A.44.44,0,0,0,14.31,1.09Zm0,2.47s-.36-.73-.72-.73-.55.43-.55.43a.56.56,0,0,1,.59-.57C14.2,2.69,14.29,3.56,14.29,3.56ZM12.66,4.93s.09-1,.65-1,.85.81.85.81-.46-.6-.81-.6S12.66,4.93,12.66,4.93ZM11.92,2.7a.33.33,0,0,1,.4-.1s0-.92.57-.92.72.69.72.69A.73.73,0,0,0,12.94,2c-.5,0-.52.4-.51.61a2.72,2.72,0,0,0,0,.32,1.2,1.2,0,0,0-.35-.06c-.19,0-.34.71-.34.71S11.72,2.92,11.92,2.7ZM10.33,8.34a5.82,5.82,0,0,0,.08-1.42,7.43,7.43,0,0,1,.94,1.35,4.65,4.65,0,0,1,.1,2.9,1.1,1.1,0,0,1-1.12.9c.64-.24.81-.66.81-.83s-.7-.5-.89-1.12A3.3,3.3,0,0,1,10.33,8.34Z" transform="translate(0)" fill="#212121"/><path d="M10.58,9.36c0,.47.27.93.55.93.12,0,.29-.1.29-.79s-.17-1-.36-1S10.58,8.89,10.58,9.36Zm.21-.06c0-.21.08-.23.14-.23s.09.1.09.25,0,.23-.08.23S10.79,9.5,10.79,9.3Z" transform="translate(0)" fill="#212121"/><path d="M10.36,19.26a9,9,0,0,1,.93,3.84,21.38,21.38,0,0,0,.1,2.6c.18.73.95,1.45,1.35,1.45s.3-.17,0-.32-.41-.44,0-.93,1.4-1.47,2.21-1.47V13c-.1,0-1.26-1.58-1.56-1.58S12,13.66,11.32,15.06s-.9,1.72-1.14,1.72-.4-.49-.4.28A3.19,3.19,0,0,0,10.36,19.26Zm2.45-3.43c0-.36.06-.52.25-.52s.37.42.37.83,0,.88-.14.88A2.26,2.26,0,0,1,12.81,15.83Z" transform="translate(0)" fill="#212121"/><path d="M15,24.77a4,4,0,0,0-2.11,1.35c-.31.42-.17.49.13.66s.32.27.06.45a.73.73,0,0,1-.92-.1c-.24-.26-.57-.8-.57-.41s.18.33.68.85S14.27,30,15,30Z" transform="translate(0)" fill="#212121"/><rect width="30" height="30" fill="none"/></svg>