<svg xmlns="http://www.w3.org/2000/svg" viewBox="0 0 30 30"><path d="M22.31,9.69a6.17,6.17,0,0,1-.78-3.23A5.42,5.42,0,0,0,21.29,4,5.62,5.62,0,0,0,19.1,1,7.39,7.39,0,0,0,15,0V8.52c.32,0,.69-.09,1.95-.28s1.25-.43,1.74,0,.17,1,.48,2.2a10.51,10.51,0,0,0,1.88,3.08c.5.72.21,1-.26,1.57A4.31,4.31,0,0,0,19.7,17.8c-.27,1.68-.26,1.76-.05,1.76a4.72,4.72,0,0,0,2.17-1.44,6.36,6.36,0,0,0,1.53-4.28A9.35,9.35,0,0,0,22.31,9.69ZM20.86,6a2,2,0,0,1-.68,1.58c-.52.5-1.5.45-1.5-1a1.84,1.84,0,0,1,.84-1.8c.52-.26,1.07-.31,1.22,0A2.59,2.59,0,0,1,20.86,6Z" transform="translate(0)" fill="#212121"/><path d="M19,6.33c0,.6.13,1.1.44,1.1a1.75,1.75,0,0,0,1-1.55c0-.79-.3-.76-.51-.76A1.12,1.12,0,0,0,19,6.33Z" transform="translate(0)" fill="#212121"/><path d="M15,26.32c1.53,0,3.44-1.16,3.72-2a26.49,26.49,0,0,0,.77-3.51c.05-.68.12-.69.82-1a4.59,4.59,0,0,0,1.74-1.38c.43-.52.76-1.23.73.09a40.89,40.89,0,0,0,0,5.08c.18,1,.53,1.37.55,1.69s-.3-.14-.34.12a10.16,10.16,0,0,0,0,1.07c0,.34-.19.22-.61.67A2.63,2.63,0,0,1,21,28a26.4,26.4,0,0,0-2.82,1.14A7.68,7.68,0,0,1,15,30Z" transform="translate(0)" fill="#212121"/><path d="M15,21.61a12.94,12.94,0,0,1,2.26.27c.38.08.93.29,1.08.33s.16.15.05.59-.11.69-.22.74-1.9-.39-3.17-.39Z" transform="translate(0)" fill="#212121"/><path d="M15,23.31a15.68,15.68,0,0,1,2.49.27c.42.07.7.05.53.37a3.42,3.42,0,0,1-3,1.76Z" transform="translate(0)" fill="#212121"/><path d="M19.3,12.43a10.69,10.69,0,0,1-1.05-2.94c-.15-.69-.23-.73-.43-.62A11.57,11.57,0,0,1,15,9.09V21.45a11.05,11.05,0,0,1,2.94.46c.71.28.58.24.64-.64s.34-3.8.39-4.59,0-1.18.28-.88.28.07.59-.37.66-.72.66-1.28S19.83,13.29,19.3,12.43Zm-1.68,5.63c0,.39-.15.5-.43.5a.5.5,0,0,1-.43-.72,13.78,13.78,0,0,0,.56-1.71c.11-.25.33-.17.33-.05a5.48,5.48,0,0,0-.15.91C17.5,17.41,17.62,17.67,17.62,18.06Z" transform="translate(0)" fill="#212121"/><path d="M6.65,13.84a6.36,6.36,0,0,0,1.53,4.28,4.72,4.72,0,0,0,2.17,1.44c.21,0,.22-.08,0-1.76a4.31,4.31,0,0,0-1.09-2.67c-.47-.53-.76-.85-.26-1.57a10.51,10.51,0,0,0,1.88-3.08c.31-1.22,0-1.74.48-2.2s.49-.22,1.74,0,1.63.28,1.95.28V0a7.39,7.39,0,0,0-4.1,1A5.62,5.62,0,0,0,8.71,4a5.42,5.42,0,0,0-.24,2.43,6.17,6.17,0,0,1-.78,3.23A9.35,9.35,0,0,0,6.65,13.84Zm2.61-9c.15-.31.7-.26,1.22,0a1.84,1.84,0,0,1,.84,1.8c0,1.42-1,1.47-1.5,1A2,2,0,0,1,9.14,6,2.59,2.59,0,0,1,9.26,4.79Z" transform="translate(0)" fill="#212121"/><path d="M11,6.33c0,.6-.13,1.1-.44,1.1a1.75,1.75,0,0,1-1-1.55c0-.79.3-.76.51-.76A1.12,1.12,0,0,1,11,6.33Z" transform="translate(0)" fill="#212121"/><path d="M15,26.32c-1.53,0-3.44-1.16-3.72-2a26.49,26.49,0,0,1-.77-3.51c0-.68-.12-.69-.82-1A4.59,4.59,0,0,1,8,18.43c-.43-.52-.76-1.23-.73.09a40.89,40.89,0,0,1,0,5.08c-.18,1-.53,1.37-.55,1.69s.3-.14.34.12a10.16,10.16,0,0,1,0,1.07c0,.34.19.22.61.67A2.63,2.63,0,0,0,9,28a26.4,26.4,0,0,1,2.82,1.14A7.68,7.68,0,0,0,15,30Z" transform="translate(0)" fill="#212121"/><path d="M15,21.61a12.94,12.94,0,0,0-2.26.27c-.38.08-.93.29-1.08.33s-.16.15-.05.59.11.69.22.74,1.9-.39,3.17-.39Z" transform="translate(0)" fill="#212121"/><path d="M15,23.31a15.68,15.68,0,0,0-2.49.27c-.42.07-.7.05-.53.37a3.42,3.42,0,0,0,3,1.76Z" transform="translate(0)" fill="#212121"/><path d="M9.5,14.15c0,.56.34.84.66,1.28s.35.66.59.37.24.09.28.88.32,3.71.39,4.59-.07.92.64.64A11.05,11.05,0,0,1,15,21.45V9.09a11.57,11.57,0,0,1-2.82-.22c-.2-.11-.28-.07-.43.62a10.69,10.69,0,0,1-1.05,2.94C10.17,13.29,9.5,13.59,9.5,14.15Zm3,2.84a5.48,5.48,0,0,0-.15-.91c0-.12.22-.2.33.05a13.78,13.78,0,0,0,.56,1.71.5.5,0,0,1-.43.72c-.28,0-.43-.11-.43-.5S12.5,17.41,12.5,17Z" transform="translate(0)" fill="#212121"/><rect width="30" height="30" fill="none"/></svg>