<!-- Copyright (c) 2022 - 2023 Jan Stehno -->
<svg xmlns="http://www.w3.org/2000/svg" viewBox="0 0 300 300"><title>tundrabeangoose</title><g id="tundrabeangoose"><g id="right"><path d="M223.1,96.94c-7.09-15.52-7.8-20.72-7.8-32.38s1.42-11.81-2.36-24.26S201.2,16.51,191,9.82,167.2,0,150,0V85.2c3.23,0,6.93-.91,19.46-2.76s12.52-4.33,17.4.32,1.74,9.84,4.89,22,13.78,23.63,18.74,30.8,2.13,10.4-2.6,15.68S199.7,161.21,197,178s-2.6,17.64-.55,17.64,11.27-3.78,21.74-14.41,15.28-28.28,15.28-42.77S230.19,112.45,223.1,96.94Zm-14.5-37.1c0,6.14-1.65,10.63-6.85,15.71s-15,4.53-15-9.69c0-9.29,3.19-15.44,8.39-18s10.72-3.07,12.21,0S208.6,53.69,208.6,59.84Z" transform="translate(0)" fill="#212121"/><path d="M190.29,63.3c0,6,1.34,11,4.37,11s10.28-7.6,10.28-15.52-3-7.6-5.12-7.6S190.29,53.81,190.29,63.3Z" transform="translate(0)" fill="#212121"/><path d="M150,263.22c15.32,0,34.45-11.64,37.18-20.41s7.17-28.35,7.72-35.13,1.18-6.85,8.19-9.61,13.15-8.5,17.45-13.74,7.56-12.29,7.28.91-1.78,41,0,50.8,5.3,13.63,5.5,16.86-3-1.38-3.43,1.22.31,7.21.31,10.63-1.92,2.29-6.1,6.74-6.26,5.63-14.26,8.23a261.9,261.9,0,0,0-28.12,11.34c-12,5.47-21.46,8.94-31.74,8.94Z" transform="translate(0)" fill="#212121"/><path d="M150,216.11c11.74.58,18.89,1.77,22.65,2.64s9.21,3,10.79,3.39,1.57,1.49.43,5.83-1.06,6.89-2.21,7.4-18.95-3.9-31.66-3.9Z" transform="translate(0)" fill="#212121"/><path d="M150,233.13c9.87,0,20.56,2,24.85,2.67s7.09.52,5.36,3.75A34.48,34.48,0,0,1,150,257.07Z" transform="translate(0)" fill="#212121"/><path d="M193,124.27c-5.28-8.59-9-22.34-10.51-29.33s-2.33-7.34-4.26-6.27-13,2.2-28.24,2.2V214.51c7.22,0,22.29,1.92,29.42,4.63s5.79,2.41,6.42-6.41,3.39-38,3.82-45.93.47-11.77,2.84-8.82,2.75.71,5.94-3.66,6.54-7.21,6.54-12.8S198.28,132.85,193,124.27Zm-16.82,56.36c0,3.9-1.5,4.92-4.33,4.92s-6.35-3.54-4.29-7.13c2.75-4.8,4.48-14.69,5.63-17.13s3.34-1.73,3.34-.47-1.53,4.8-1.53,9.06S176.19,176.73,176.19,180.63Z" transform="translate(0)" fill="#212121"/></g><g id="left"><path d="M66.51,138.45c0,14.49,4.8,32.13,15.28,42.77s19.69,14.41,21.74,14.41,2.12-.86-.55-17.64-6.15-21.43-10.87-26.7-7.57-8.51-2.6-15.68,15.59-18.59,18.74-30.8,0-17.4,4.89-22,4.88-2.17,17.4-.32S146.77,85.2,150,85.2V0c-17.2,0-30.72,3.12-41,9.82s-18.19,18-22,30.48S84.7,52.91,84.7,64.56,84,81.42,76.9,96.94,66.51,124,66.51,138.45ZM92.62,47.86c1.49-3.07,7-2.56,12.21,0s8.39,8.71,8.39,18c0,14.22-9.77,14.77-15,9.69S91.4,66,91.4,59.84,91.12,50.94,92.62,47.86Z" transform="translate(0)" fill="#212121"/><path d="M109.71,63.3c0,6-1.34,11-4.37,11s-10.28-7.6-10.28-15.52,3-7.6,5.12-7.6S109.71,53.81,109.71,63.3Z" transform="translate(0)" fill="#212121"/><path d="M150,263.22c-15.32,0-34.45-11.64-37.18-20.41s-7.17-28.35-7.72-35.13-1.18-6.85-8.19-9.61-13.15-8.5-17.45-13.74-7.56-12.29-7.28.91,1.78,41,0,50.8-5.3,13.63-5.5,16.86,3-1.38,3.43,1.22-.31,7.21-.31,10.63,1.92,2.29,6.1,6.74,6.26,5.63,14.26,8.23a261.9,261.9,0,0,1,28.12,11.34c12,5.47,21.46,8.94,31.74,8.94Z" transform="translate(0)" fill="#212121"/><path d="M150,216.11c-11.74.58-18.89,1.77-22.65,2.64s-9.21,3-10.79,3.39-1.57,1.49-.43,5.83,1.06,6.89,2.21,7.4,18.95-3.9,31.66-3.9Z" transform="translate(0)" fill="#212121"/><path d="M150,233.13c-9.87,0-20.56,2-24.85,2.67s-7.09.52-5.36,3.75A34.48,34.48,0,0,0,150,257.07Z" transform="translate(0)" fill="#212121"/><path d="M95,141.52c0,5.59,3.35,8.43,6.54,12.8s3.58,6.62,5.94,3.66,2.41.91,2.84,8.82,3.19,37.1,3.82,45.93-.71,9.13,6.42,6.41,22.2-4.63,29.42-4.63V90.87c-15.24,0-26.31-1.14-28.24-2.2S119,88,117.5,94.94s-5.23,20.74-10.51,29.33S95,135.93,95,141.52Zm30,28.36c0-4.26-1.53-7.8-1.53-9.06s2.2-2,3.34.47,2.88,12.33,5.63,17.13c2.06,3.59-1.45,7.13-4.29,7.13s-4.33-1-4.33-4.92S125,174.13,125,169.88Z" transform="translate(0)" fill="#212121"/></g></g><g id="frame"><rect width="300" height="300" fill="none"/></g></svg>