<!-- Copyright (c) 2022 Jan Stehno -->
<svg xmlns="http://www.w3.org/2000/svg" viewBox="0 0 300 300"><title>turkey</title><g id="turkey"><g id="right"><path d="M150,102.35c3.8,0,10.66,4.27,10.66,9.9s-7.65,0-7.65,5.32,2.56.9,2.56,5.52S151.75,153.6,150,153.6Z" transform="translate(0)" fill="#212121"/><path d="M157.66,116.46a1.87,1.87,0,0,0-.59.1,17.56,17.56,0,0,0-2.48,1c.93.94.94,2.75,2.58,3.06a2,2,0,0,0,.49.07,2.11,2.11,0,0,0,0-4.21Z" transform="translate(0)" fill="#212121"/><path d="M162.59,151.11a5.26,5.26,0,0,1-1.93,1.44,17.25,17.25,0,0,1-2.69.83s2.69-2.15,3.35-3.48c-.8-2.94-3.6-9-5-9s-1.26,1-2.44,5.65a28.13,28.13,0,0,0-1.26,8,11.89,11.89,0,0,0,3.63-1s-2.78,3.11-6.27,3.11v22c4.13,0,3.49-5.92,6.29-5.92s7.26-3.68,7.26-11.16S162.59,151.11,162.59,151.11ZM155.74,170c-2.93.2-3.33-1.65-3.33-1.65a4.94,4.94,0,0,0,3.21.52c2.67-.24,4.84-3.76,4.73-3.69C160.53,165.23,159.16,169.78,155.74,170Zm.64-7.79c-3.75.39-4.18-1.83-4.18-1.83a6.7,6.7,0,0,0,4.08.59,8.9,8.9,0,0,0,4.38-2.43A4.65,4.65,0,0,1,156.38,162.23Z" transform="translate(0)" fill="#212121"/><path d="M162.72,105.26c4.45,1.83,22.05,9.09,25.54,17s4.3,12.51,3,25.68-5.45,23.21-6.62,24.37-14,1.84-16.9-1-.43-13.84-2.82-20.21-3.64-8.27-3.64-10.15v-2.53s7.62-.23,13.32,1.33,10.1,6.71,10.1,6.71-4-7.26-11.07-8.86a64.39,64.39,0,0,0-12.35-1.66s-.69-6.34.78-10.38,1.47-10.1,1.47-10.1,7.26,1.88,11.07,5.26a43.55,43.55,0,0,1,6.84,8.2,27.28,27.28,0,0,0-7.67-11.17c-5.69-4.91-10.24-5.19-10.24-5.19a17.32,17.32,0,0,0-.32-3.72C162.86,107.37,158.39,103.47,162.72,105.26Z" transform="translate(0)" fill="#212121"/><path d="M188.92,172.39c0,2.54,10.72,10.5,13.1,12.83s3.89,4.41,5.24,4.41,13.41-19.66,13.41-22.47-1.28-15.87-5.69-22.72-16.75-14.43-20.52-18.1-1.84.35-.78,2.8a24.68,24.68,0,0,1,1.15,3.63s5.56,1,12,7a34.06,34.06,0,0,1,8.63,14.33s-5.92-10.29-10.1-13.6a40.7,40.7,0,0,0-10.48-5.42s.33,4.69.19,8-.51,6.53-.51,6.53a33.93,33.93,0,0,1,12.13,7.85c4.91,5.33,4.77,14.56,4.77,14.56s-2.2-9.92-6.43-14.1-10.86-6.06-10.86-6.06a88.65,88.65,0,0,1-2.12,11C190.61,168.14,188.92,170.31,188.92,172.39Z" transform="translate(0)" fill="#212121"/><path d="M221.9,172c2.08,0,14.2,13.54,16.65,23.21s3.07,15.07,3.07,17.15-7.17,14.39-9.07,14.39-.3-1.9-1.9-8.82-5.75-15.25-11.26-19.65-9.56-5.76-9.56-7.23C209.83,190.18,220.92,172,221.9,172Z" transform="translate(0)" fill="#212121"/><path d="M228.13,219.81c0-6.11-4.64-11-7.08-15.67s-7.85-7.76-11-9.09-10.2-8.73-10.2-8.73-.13,4.28-1.19,6.16-7,5.05-7,5.05a29.52,29.52,0,0,0,4.83-4.82C198,190.5,198,185,198,185s-9-8.5-10.43-9.47-5.24-.64-5.24-.64a34.9,34.9,0,0,1-.32,8c-.69,4.5-4.87,9.23-4.87,9.23s2.85-5.88,3.2-9.05a57,57,0,0,0,0-8.19h-10c-5.6,0-6.49-4.38-6.49-4.38a11.25,11.25,0,0,1-3.21,3.62,4.76,4.76,0,0,1-4.08.49,9.84,9.84,0,0,1-.67,3.61c-.74,1.78-3.22,2.35-5.88,2.35v61.12c4.16,0,5.94-.49,17.39-7.28s18.68-23.27,18.68-23.27-4,10.65-8.76,16.71-19,16.48-27.31,16.48v5.94c30.17,0,39.16-8.14,39.77-8.72-.38.37-6.48,6.27-13,8.17-6.67,2-20.21,2.94-26.82,2.94v19.72s9.61,11.2,24,11.2,27.19-1.83,37.84-10.35,18.07-31.35,18.07-38.88S228.13,225.92,228.13,219.81Zm-62.42,2.52c-4.82,4.46-9.23,4.7-9.23,4.7a44.36,44.36,0,0,0,8-6,49.5,49.5,0,0,0,6.57-9.14A17.86,17.86,0,0,1,165.71,222.33Zm12.49,10.15s4.13-3.17,8.64-7.12a66,66,0,0,0,8.63-9.78,29.73,29.73,0,0,1-7,10.79A24.67,24.67,0,0,1,178.2,232.48Zm.78,29.77c11.35,0,24.67-7.35,24.67-7.35s-11,9.69-24.62,9.69-18.79-6.66-18.79-6.66A40.1,40.1,0,0,0,179,262.25Zm28.71,2.94c-2.44,2.2-10.57,7.67-26.14,7.67S159.46,266,159.46,266a49.9,49.9,0,0,0,21.86,4.54c8.64,0,13.92-.36,21.18-4a27.25,27.25,0,0,0,10.47-9S210.12,263,207.69,265.19Zm9.06-34.59a27.27,27.27,0,0,1-14.08,13.23s9.06-7.84,12.55-15.74,2.27-18.25,2.27-18.25S221.65,220.56,216.75,230.6Z" transform="translate(0)" fill="#212121"/><path d="M299.69,151.33c-.74-6.25-1.08-8.48-2.07-9.47s-54.84,14-54.84,14,51.23-17.49,52.79-19,.61-10.65-1.1-16.29-3-9.18-5.09-9.18-49.54,25-49.54,25S285.4,110,286.93,108.49s-7.28-16.23-9.8-16.23-48.19,30.07-48.19,30.07,46.3-31.91,46.3-33.38-1.17-6.61-4.84-11.39-7.47-7.65-9.49-7.65-40.3,39.25-40.3,39.25,36.68-40.11,36.68-42.44-1.83-5.94-6.06-9.73-7.66-4.6-9.55-4.6-33.62,46-33.62,46,30.13-45.83,30.13-47.95-1.66-5.05-7.44-8.63S220,37.69,218.44,37.69,192.9,90.15,192.9,90.15,215,39.26,215,37.14s-3.13-5.23-8.45-7.53-10.71-2.43-12.41-.73-15.89,54.19-15.89,54.19,13.14-53,13.14-55.34-2.66-3.91-8.08-5.65-10.89-2.07-12.13-.83-6.83,55.39-6.83,55.39,3.22-52.61,3.22-55-15.24-6.14-16.44-4.94-1.17,60-1.17,60V98.28c8.36,0,24.62,5,32.06,12.08s8.36,11.66,20.3,18,16.14,13.27,18.31,24.57,3.46,16.58,8.1,21.54a86.52,86.52,0,0,0,8.41,7.95l-.71-13.3,3,13.62s22.6-1.84,34.82-5,22.07-6.25,23.82-8S300.42,157.57,299.69,151.33ZM161.53,87.8l-9.74,3.36,10.34-5.51,7.11,10.28Zm27.25,10.54-10.29.54,11.45-2.45,4,11.85Zm25.27,17.87-10.11-2,11.71.44,1,12.47Zm17.15,35.2.45-11.2-9.19-4.65,11.15,3.57Z" transform="translate(0)" fill="#212121"/></g><g id="left"><path d="M150,102.35c-3.8,0-10.66,4.27-10.66,9.9s7.65,0,7.65,5.32-2.56.9-2.56,5.52,3.82,30.51,5.57,30.51Z" transform="translate(0)" fill="#212121"/><path d="M142.34,116.46a1.87,1.87,0,0,1,.59.1,17.56,17.56,0,0,1,2.48,1c-.93.94-.94,2.75-2.58,3.06a2,2,0,0,1-.49.07,2.11,2.11,0,0,1,0-4.21Z" transform="translate(0)" fill="#212121"/><path d="M136.45,161.57c0,7.48,4.46,11.16,7.26,11.16s2.16,5.92,6.29,5.92v-22c-3.49,0-6.27-3.11-6.27-3.11a11.89,11.89,0,0,0,3.63,1,28.13,28.13,0,0,0-1.26-8c-1.18-4.66-1.06-5.65-2.44-5.65s-4.18,6.06-5,9c.66,1.33,3.35,3.48,3.35,3.48a17.25,17.25,0,0,1-2.69-.83,5.26,5.26,0,0,1-1.93-1.44S136.45,154.08,136.45,161.57Zm3.2,3.63c-.11-.07,2.06,3.45,4.73,3.69a4.94,4.94,0,0,0,3.21-.52s-.4,1.85-3.33,1.65C140.84,169.78,139.47,165.23,139.65,165.2Zm-.31-6.64a8.9,8.9,0,0,0,4.38,2.43,6.7,6.7,0,0,0,4.08-.59s-.43,2.22-4.18,1.83A4.65,4.65,0,0,1,139.34,158.56Z" transform="translate(0)" fill="#212121"/><path d="M137.28,105.26c-4.45,1.83-22,9.09-25.54,17s-4.3,12.51-3,25.68,5.45,23.21,6.62,24.37,14,1.84,16.9-1,.43-13.84,2.82-20.21,3.64-8.27,3.64-10.15v-2.53s-7.62-.23-13.32,1.33-10.1,6.71-10.1,6.71,4-7.26,11.07-8.86a64.39,64.39,0,0,1,12.35-1.66s.69-6.34-.78-10.38-1.47-10.1-1.47-10.1-7.26,1.88-11.07,5.26a43.55,43.55,0,0,0-6.84,8.2,27.28,27.28,0,0,1,7.67-11.17c5.69-4.91,10.24-5.19,10.24-5.19a17.32,17.32,0,0,1,.32-3.72C137.14,107.37,141.61,103.47,137.28,105.26Z" transform="translate(0)" fill="#212121"/><path d="M111.08,172.39c0,2.54-10.72,10.5-13.1,12.83s-3.89,4.41-5.24,4.41S79.33,170,79.33,167.16s1.28-15.87,5.69-22.72,16.75-14.43,20.52-18.1,1.84.35.78,2.8a24.68,24.68,0,0,0-1.15,3.63s-5.56,1-12,7a34.06,34.06,0,0,0-8.63,14.33s5.92-10.29,10.1-13.6a40.7,40.7,0,0,1,10.48-5.42s-.33,4.69-.19,8,.51,6.53.51,6.53a33.93,33.93,0,0,0-12.13,7.85C88.41,162.81,88.55,172,88.55,172s2.2-9.92,6.43-14.1,10.86-6.06,10.86-6.06a88.65,88.65,0,0,0,2.12,11C109.39,168.14,111.08,170.31,111.08,172.39Z" transform="translate(0)" fill="#212121"/><path d="M78.1,172C76,172,63.9,185.53,61.45,195.2s-3.07,15.07-3.07,17.15,7.17,14.39,9.07,14.39.3-1.9,1.9-8.82,5.75-15.25,11.26-19.65,9.56-5.76,9.56-7.23C90.17,190.18,79.08,172,78.1,172Z" transform="translate(0)" fill="#212121"/><path d="M70.08,234.34c0,7.53,7.41,30.37,18.07,38.88S111.6,283.57,126,283.57s24-11.2,24-11.2V252.65c-6.61,0-20.15-1-26.82-2.94-6.47-1.9-12.57-7.8-13-8.17.61.58,9.6,8.72,39.77,8.72v-5.94c-8.27,0-22.6-10.41-27.31-16.48s-8.76-16.71-8.76-16.71,7.23,16.47,18.68,23.27,13.23,7.28,17.39,7.28V180.56c-2.66,0-5.14-.57-5.88-2.35a9.84,9.84,0,0,1-.67-3.61,4.76,4.76,0,0,1-4.08-.49,11.25,11.25,0,0,1-3.21-3.62s-.89,4.38-6.49,4.38h-10a57,57,0,0,0,0,8.19c.35,3.17,3.2,9.05,3.2,9.05s-4.18-4.73-4.87-9.23a34.9,34.9,0,0,1-.32-8s-3.77-.32-5.24.64S102,185,102,185s0,5.55,1.56,7.76a29.52,29.52,0,0,0,4.83,4.82s-6-3.17-7-5.05-1.19-6.16-1.19-6.16-7,7.4-10.2,8.73-8.59,4.41-11,9.09-7.08,9.56-7.08,15.67S70.08,226.8,70.08,234.34Zm58.84-22.48a49.5,49.5,0,0,0,6.57,9.14,44.36,44.36,0,0,0,8,6s-4.41-.24-9.23-4.7A17.86,17.86,0,0,1,128.92,211.86Zm-17.36,14.51a29.73,29.73,0,0,1-7-10.79,66,66,0,0,0,8.63,9.78c4.51,3.95,8.64,7.12,8.64,7.12A24.67,24.67,0,0,1,111.56,226.37Zm28.2,31.56s-5.19,6.66-18.79,6.66-24.62-9.69-24.62-9.69,13.32,7.35,24.67,7.35A40.1,40.1,0,0,0,139.76,257.93ZM87,257.52a27.25,27.25,0,0,0,10.47,9c7.26,3.68,12.54,4,21.18,4A49.9,49.9,0,0,0,140.54,266s-6.52,6.89-22.09,6.89-23.7-5.47-26.14-7.67S87,257.52,87,257.52Zm-4.52-47.68s-1.22,10.35,2.27,18.25,12.55,15.74,12.55,15.74A27.27,27.27,0,0,1,83.25,230.6C78.35,220.56,82.51,209.84,82.51,209.84Z" transform="translate(0)" fill="#212121"/><path d="M1.89,169.79c1.75,1.74,11.61,4.87,23.82,8s34.82,5,34.82,5l3-13.62-.71,13.3a86.52,86.52,0,0,0,8.41-7.95c4.64-5,5.92-10.24,8.1-21.54s6.37-18.23,18.31-24.57,12.86-10.93,20.3-18S141.64,98.28,150,98.28V76.64s0-58.79-1.17-60-16.44,2.5-16.44,4.94,3.22,55,3.22,55S130,22.49,128.78,21.25s-6.71-.92-12.13.83-8.08,3.31-8.08,5.65,13.14,55.34,13.14,55.34-14.2-52.49-15.89-54.19-7.08-1.57-12.41.73S85,35,85,37.14s22.14,53,22.14,53-24-52.46-25.54-52.46-6.52.56-12.31,4.14-7.44,6.52-7.44,8.63S91.94,98.41,91.94,98.41s-31.72-46-33.62-46-5.32.8-9.55,4.6-6.06,7.41-6.06,9.73,36.68,42.44,36.68,42.44S41.12,69.91,39.09,69.91s-5.81,2.87-9.49,7.65S24.76,87.48,24.76,89s46.3,33.38,46.3,33.38S25.38,92.26,22.87,92.26s-11.33,14.7-9.8,16.23,47.09,27.86,47.09,27.86-47.46-25-49.54-25-3.37,3.55-5.09,9.18-2.66,14.73-1.1,16.29,52.79,19,52.79,19-53.85-15-54.84-14-1.33,3.22-2.07,9.47S.15,168,1.89,169.79ZM130.76,95.93l7.11-10.28,10.34,5.51-9.74-3.36Zm-24.71,12.35,4-11.85,11.45,2.45-10.29-.54ZM83.38,127.12l1-12.47,11.71-.44-10.11,2Zm-17,12,11.15-3.57-9.19,4.65.45,11.2Z" transform="translate(0)" fill="#212121"/></g></g><g id="frame"><rect width="300" height="300" fill="none"/></g></svg>