<svg xmlns="http://www.w3.org/2000/svg" viewBox="0 0 30 30"><path d="M15,10.24c.38,0,1.07.42,1.07,1s-.77,0-.77.53.26.09.26.55a12.72,12.72,0,0,1-.56,3Z" transform="translate(0)" fill="#212121"/><path d="M15.77,11.65h-.06a2.3,2.3,0,0,0-.25.09c.09.1.09.28.26.31h0a.22.22,0,0,0,.21-.21A.21.21,0,0,0,15.77,11.65Z" transform="translate(0)" fill="#212121"/><path d="M16.26,15.11a.51.51,0,0,1-.19.14,1.47,1.47,0,0,1-.27.09,1.63,1.63,0,0,0,.33-.35c-.08-.29-.36-.9-.5-.9s-.12.1-.24.56a3.11,3.11,0,0,0-.13.81,1.36,1.36,0,0,0,.37-.1,1,1,0,0,1-.63.31v2.2c.41,0,.35-.6.63-.6s.72-.36.72-1.11A4.17,4.17,0,0,0,16.26,15.11ZM15.57,17c-.29,0-.33-.16-.33-.16a.51.51,0,0,0,.32.05.73.73,0,0,0,.47-.37S15.92,17,15.57,17Zm.07-.78c-.38,0-.42-.18-.42-.18a.65.65,0,0,0,.41.06.94.94,0,0,0,.44-.24A.47.47,0,0,1,15.64,16.22Z" transform="translate(0)" fill="#212121"/><path d="M16.27,10.53c.45.18,2.21.91,2.56,1.7a4.15,4.15,0,0,1,.3,2.56,6.45,6.45,0,0,1-.66,2.44,2.51,2.51,0,0,1-1.69-.1c-.29-.29-.05-1.39-.29-2a4.92,4.92,0,0,1-.36-1v-.25a5.15,5.15,0,0,1,1.33.13,2.41,2.41,0,0,1,1,.67,2,2,0,0,0-1.1-.89,6.25,6.25,0,0,0-1.24-.16,2.82,2.82,0,0,1,.08-1,3.77,3.77,0,0,0,.14-1,3.24,3.24,0,0,1,1.11.53,4.32,4.32,0,0,1,.69.82,2.74,2.74,0,0,0-.77-1.12,2,2,0,0,0-1-.52,1.48,1.48,0,0,0,0-.37C16.29,10.74,15.84,10.35,16.27,10.53Z" transform="translate(0)" fill="#212121"/><path d="M18.89,17.24c0,.25,1.07,1.05,1.31,1.28s.39.44.53.44a8.92,8.92,0,0,0,1.34-2.24,5.51,5.51,0,0,0-.57-2.28,13.37,13.37,0,0,0-2.05-1.81c-.38-.36-.19,0-.08.28a2.05,2.05,0,0,1,.11.37,2.53,2.53,0,0,1,1.2.7,3.53,3.53,0,0,1,.87,1.43,6.65,6.65,0,0,0-1-1.36,4,4,0,0,0-1-.54s0,.47,0,.8-.05.65-.05.65a3.48,3.48,0,0,1,1.21.79,2.4,2.4,0,0,1,.48,1.45,3.67,3.67,0,0,0-.65-1.41,2.94,2.94,0,0,0-1.08-.6,8.44,8.44,0,0,1-.22,1.09A9.08,9.08,0,0,0,18.89,17.24Z" transform="translate(0)" fill="#212121"/><path d="M22.19,17.2a5,5,0,0,1,1.67,2.32,8.52,8.52,0,0,1,.3,1.72c0,.2-.71,1.43-.9,1.43s0-.19-.19-.88a3.77,3.77,0,0,0-1.13-2c-.55-.44-1-.58-1-.73A13.31,13.31,0,0,1,22.19,17.2Z" transform="translate(0)" fill="#212121"/><path d="M22.81,22a3.62,3.62,0,0,0-.7-1.57,2.31,2.31,0,0,0-1.11-.9,6.08,6.08,0,0,1-1-.88,1.75,1.75,0,0,1-.12.62c-.1.19-.7.5-.7.5a2.85,2.85,0,0,0,.48-.48,1.8,1.8,0,0,0,.16-.78s-.9-.85-1-.94a1.15,1.15,0,0,0-.53-.07,3.4,3.4,0,0,1,0,.81,2.22,2.22,0,0,1-.49.92,3.81,3.81,0,0,0,.32-.9,5.13,5.13,0,0,0,0-.82H17a.61.61,0,0,1-.65-.44,1.08,1.08,0,0,1-.32.36.46.46,0,0,1-.4.05,1.12,1.12,0,0,1-.07.36c-.08.18-.32.24-.59.24v6.11c.42,0,.59-.05,1.74-.73a5.9,5.9,0,0,0,1.87-2.33,8,8,0,0,1-.88,1.67A4.92,4.92,0,0,1,15,24.43V25c3,0,3.92-.82,4-.88a3.67,3.67,0,0,1-1.3.82,12.28,12.28,0,0,1-2.68.29v2a3.46,3.46,0,0,0,2.4,1.12,5.78,5.78,0,0,0,3.79-1A6.75,6.75,0,0,0,23,23.43C23,22.68,22.81,22.59,22.81,22Zm-6.24.25a1.59,1.59,0,0,1-.92.47,4,4,0,0,0,.8-.6,5,5,0,0,0,.66-.91A1.79,1.79,0,0,1,16.57,22.23Zm1.25,1s.41-.32.86-.71a7.14,7.14,0,0,0,.87-1,3,3,0,0,1-.71,1.08A2.52,2.52,0,0,1,17.82,23.25Zm.08,3a6.22,6.22,0,0,0,2.46-.73,4.19,4.19,0,0,1-2.46,1A2.37,2.37,0,0,1,16,25.79,4,4,0,0,0,17.9,26.22Zm2.87.3a3.92,3.92,0,0,1-2.61.77A3.09,3.09,0,0,1,16,26.6a5.06,5.06,0,0,0,2.18.45,4.15,4.15,0,0,0,2.12-.4,2.73,2.73,0,0,0,1.05-.9A3.75,3.75,0,0,1,20.77,26.52Zm.91-3.46a2.73,2.73,0,0,1-1.41,1.32,5.6,5.6,0,0,0,1.25-1.57A4.1,4.1,0,0,0,21.75,21,2.85,2.85,0,0,1,21.68,23.06Z" transform="translate(0)" fill="#212121"/><path d="M30,15.13c-.07-.62-.11-.84-.21-.94s-5.48,1.4-5.48,1.4,5.12-1.75,5.28-1.91a3,3,0,0,0-.11-1.62c-.17-.57-.3-.92-.51-.92s-5,2.5-5,2.5,4.56-2.64,4.71-2.79-.73-1.62-1-1.62-4.82,3-4.82,3S27.52,9,27.52,8.9A2.23,2.23,0,0,0,27,7.76c-.37-.48-.75-.77-.95-.77s-4,3.93-4,3.93,3.67-4,3.67-4.25a1.52,1.52,0,0,0-.61-1,1.48,1.48,0,0,0-.95-.46c-.19,0-3.36,4.6-3.36,4.6s3-4.58,3-4.79-.17-.51-.75-.87a2.47,2.47,0,0,0-1.23-.41C21.69,3.77,19.29,9,19.29,9s2.21-5.08,2.21-5.3-.31-.52-.84-.75-1.07-.24-1.24-.07-1.59,5.42-1.59,5.42S19.14,3,19.14,2.77s-.26-.39-.81-.56S17.25,2,17.12,2.13s-.68,5.53-.68,5.53.32-5.26.32-5.5-1.52-.61-1.64-.49-.12,6-.12,6V9.83A5.76,5.76,0,0,1,18.21,11c.74.7.83,1.16,2,1.8a3.09,3.09,0,0,1,1.83,2.45,3.81,3.81,0,0,0,.81,2.16,8.6,8.6,0,0,0,.84.79l-.07-1.33.3,1.36a28,28,0,0,0,3.48-.49,9.45,9.45,0,0,0,2.38-.8A3.93,3.93,0,0,0,30,15.13ZM16.15,8.78l-1,.34,1-.56.71,1Zm2.73,1.05-1,.06L19,9.64l.41,1.19Zm2.52,1.79-1-.2,1.17.05.1,1.24Zm1.72,3.52,0-1.12-.91-.46,1.11.35Z" transform="translate(0)" fill="#212121"/><path d="M15,10.24c-.38,0-1.07.42-1.07,1s.77,0,.77.53-.26.09-.26.55a12.72,12.72,0,0,0,.56,3Z" transform="translate(0)" fill="#212121"/><path d="M14.23,11.65h.06a2.3,2.3,0,0,1,.25.09c-.09.1-.09.28-.26.31h0a.22.22,0,0,1-.21-.21A.21.21,0,0,1,14.23,11.65Z" transform="translate(0)" fill="#212121"/><path d="M13.65,16.16c0,.75.44,1.11.72,1.11s.22.6.63.6v-2.2a1,1,0,0,1-.63-.31,1.36,1.36,0,0,0,.37.1,3.11,3.11,0,0,0-.13-.81c-.12-.46-.11-.56-.24-.56s-.42.61-.5.9a1.63,1.63,0,0,0,.33.35,1.47,1.47,0,0,1-.27-.09.51.51,0,0,1-.19-.14A4.17,4.17,0,0,0,13.65,16.16Zm.32.36a.73.73,0,0,0,.47.37.51.51,0,0,0,.32-.05s0,.18-.33.16S14,16.52,14,16.52Zm0-.66a.94.94,0,0,0,.44.24.65.65,0,0,0,.41-.06s0,.22-.42.18A.47.47,0,0,1,13.93,15.86Z" transform="translate(0)" fill="#212121"/><path d="M13.73,10.53c-.45.18-2.21.91-2.56,1.7a4.15,4.15,0,0,0-.3,2.56,6.45,6.45,0,0,0,.66,2.44,2.51,2.51,0,0,0,1.69-.1c.29-.29,0-1.39.29-2a4.92,4.92,0,0,0,.36-1v-.25a5.15,5.15,0,0,0-1.33.13,2.41,2.41,0,0,0-1,.67,2,2,0,0,1,1.1-.89,6.25,6.25,0,0,1,1.24-.16,2.82,2.82,0,0,0-.08-1,3.77,3.77,0,0,1-.14-1,3.24,3.24,0,0,0-1.11.53,4.32,4.32,0,0,0-.69.82,2.74,2.74,0,0,1,.77-1.12,2,2,0,0,1,1-.52,1.48,1.48,0,0,1,0-.37C13.71,10.74,14.16,10.35,13.73,10.53Z" transform="translate(0)" fill="#212121"/><path d="M11.11,17.24c0,.25-1.07,1.05-1.31,1.28s-.39.44-.53.44a8.92,8.92,0,0,1-1.34-2.24,5.51,5.51,0,0,1,.57-2.28,13.37,13.37,0,0,1,2.05-1.81c.38-.36.19,0,.08.28a2.05,2.05,0,0,0-.11.37,2.53,2.53,0,0,0-1.2.7,3.53,3.53,0,0,0-.87,1.43,6.65,6.65,0,0,1,1-1.36,4,4,0,0,1,1-.54s0,.47,0,.8,0,.65,0,.65a3.48,3.48,0,0,0-1.21.79,2.4,2.4,0,0,0-.48,1.45,3.67,3.67,0,0,1,.65-1.41,2.94,2.94,0,0,1,1.08-.6,8.44,8.44,0,0,0,.22,1.09A9.08,9.08,0,0,1,11.11,17.24Z" transform="translate(0)" fill="#212121"/><path d="M7.81,17.2a5,5,0,0,0-1.67,2.32,8.52,8.52,0,0,0-.3,1.72c0,.2.71,1.43.9,1.43s0-.19.19-.88a3.77,3.77,0,0,1,1.13-2c.55-.44,1-.58,1-.73A13.31,13.31,0,0,0,7.81,17.2Z" transform="translate(0)" fill="#212121"/><path d="M7,23.43a6.75,6.75,0,0,0,1.8,3.89,5.78,5.78,0,0,0,3.79,1A3.46,3.46,0,0,0,15,27.24v-2A12.28,12.28,0,0,1,12.32,25a3.67,3.67,0,0,1-1.3-.82c.06.06,1,.88,4,.88v-.6a4.92,4.92,0,0,1-2.73-1.65,8,8,0,0,1-.88-1.67,5.9,5.9,0,0,0,1.87,2.33c1.15.68,1.32.73,1.74.73V18.06c-.27,0-.51-.06-.59-.24a1.12,1.12,0,0,1-.07-.36.46.46,0,0,1-.4-.05,1.08,1.08,0,0,1-.32-.36.61.61,0,0,1-.65.44H12a5.13,5.13,0,0,0,0,.82,3.81,3.81,0,0,0,.32.9,2.22,2.22,0,0,1-.49-.92,3.4,3.4,0,0,1,0-.81,1.15,1.15,0,0,0-.53.07c-.14.09-1,.94-1,.94a1.8,1.8,0,0,0,.16.78,2.85,2.85,0,0,0,.48.48s-.6-.31-.7-.5a1.75,1.75,0,0,1-.12-.62,6.08,6.08,0,0,1-1,.88,2.31,2.31,0,0,0-1.11.9A3.62,3.62,0,0,0,7.19,22C7.19,22.59,7,22.68,7,23.43Zm5.88-2.24a5,5,0,0,0,.66.91,4,4,0,0,0,.8.6,1.59,1.59,0,0,1-.92-.47A1.79,1.79,0,0,1,12.89,21.19Zm-1.73,1.45a3,3,0,0,1-.71-1.08,7.14,7.14,0,0,0,.87,1c.45.39.86.71.86.71A2.52,2.52,0,0,1,11.16,22.64ZM14,25.79a2.37,2.37,0,0,1-1.88.67,4.19,4.19,0,0,1-2.46-1,6.22,6.22,0,0,0,2.46.73A4,4,0,0,0,14,25.79Zm-5.28,0a2.73,2.73,0,0,0,1.05.9,4.15,4.15,0,0,0,2.12.4,5.06,5.06,0,0,0,2.18-.45,3.09,3.09,0,0,1-2.21.69,3.92,3.92,0,0,1-2.61-.77A3.75,3.75,0,0,1,8.7,25.75ZM8.25,21a4.1,4.1,0,0,0,.23,1.83,5.6,5.6,0,0,0,1.25,1.57,2.73,2.73,0,0,1-1.41-1.32A2.85,2.85,0,0,1,8.25,21Z" transform="translate(0)" fill="#212121"/><path d="M.19,17a9.45,9.45,0,0,0,2.38.8,28,28,0,0,0,3.48.49l.3-1.36-.07,1.33a8.6,8.6,0,0,0,.84-.79,3.81,3.81,0,0,0,.81-2.16,3.09,3.09,0,0,1,1.83-2.45c1.2-.64,1.29-1.1,2-1.8A5.76,5.76,0,0,1,15,9.83V7.66s0-5.87-.12-6-1.64.25-1.64.49.32,5.5.32,5.5S13,2.25,12.88,2.13s-.67-.1-1.21.08-.81.33-.81.56,1.31,5.54,1.31,5.54-1.42-5.25-1.59-5.42S9.87,2.73,9.34,3s-.84.54-.84.75S10.71,9,10.71,9,8.31,3.77,8.16,3.77a2.47,2.47,0,0,0-1.23.41c-.58.36-.75.66-.75.87s3,4.79,3,4.79S6,5.24,5.83,5.24a1.48,1.48,0,0,0-1,.46,1.52,1.52,0,0,0-.61,1c0,.23,3.67,4.25,3.67,4.25S4.11,7,3.91,7s-.58.29-1,.77A2.23,2.23,0,0,0,2.48,8.9c0,.14,4.63,3.33,4.63,3.33s-4.57-3-4.82-3-1.14,1.47-1,1.62S6,13.64,6,13.64s-4.75-2.5-5-2.5-.34.35-.51.92a3,3,0,0,0-.11,1.62c.16.16,5.28,1.91,5.28,1.91S.34,14.09.24,14.19s-.14.32-.21.94A3.93,3.93,0,0,0,.19,17ZM13.08,9.59l.71-1,1,.56-1-.34ZM10.6,10.83,11,9.64l1.14.25-1-.06ZM8.34,12.71l.1-1.24,1.17-.05-1,.2Zm-1.7,1.2,1.11-.35L6.84,14l0,1.12Z" transform="translate(0)" fill="#212121"/><rect width="30" height="30" fill="none"/></svg>