<svg xmlns="http://www.w3.org/2000/svg" viewBox="0 0 30 30"><path d="M15,24.27a6.91,6.91,0,0,1,2.57.93c.57.31.86.52.88.75s0,0-.51-.12a3.53,3.53,0,0,0-1.52,0c-.55.09-.9-.61-.9.27s1,.61,1.2.41.09-.24.6-.24.5.31-.28.68a4.89,4.89,0,0,1-2,.5Z" transform="translate(0)" fill="#212121"/><path d="M21.51,24.52c.65-.32,2.39-1.27,2.56-1.27a8.14,8.14,0,0,0,2.09.41,8.4,8.4,0,0,0,2.15-.15c.27-.13.44,0-.61.62a5.42,5.42,0,0,1-3.13.94c-1.13,0-2.49-.36-3.16-.3S21.2,24.67,21.51,24.52Z" transform="translate(0)" fill="#212121"/><path d="M20.44,20.34c.07-.14.36.19.73.19s.76-.33,1.36-.35S27.13,19,27.89,17a7.94,7.94,0,0,0-.18-5.83A5.76,5.76,0,0,0,24.4,8.67c-.84,0-.23-.25.87-.21A5.85,5.85,0,0,1,29,11c.77,1.25,1.1,2,1,4.65a7.54,7.54,0,0,1-2,5.21c-1.09,1.22-2.75,1.48-4.5,2.32a24.8,24.8,0,0,1-2.7,1.27A5.79,5.79,0,0,1,20.44,20.34Z" transform="translate(0)" fill="#212121"/><path d="M24.33,10.74a8.59,8.59,0,0,1-2.55-.4c-.25-.12.16-.14,0-.44a5.14,5.14,0,0,1-.14-1.64c0-.58.07-.64-.17-.44s-.48,0-.74.11-.58.35-.22-.13A3.32,3.32,0,0,1,22.21,7,2.8,2.8,0,0,0,23.5,5.63c.09-.37.1-.57,0-.28s-.21.1-.12-.27a8.63,8.63,0,0,0,.27-1.62c0-.57,0-.53-.11-.22s-.21.07-.2-.26.06-.54-.17-.28a1.84,1.84,0,0,1-1,.48c-.52.13-.63.09-.61-.09s.08-.37-.2,0-1.19.68-1.53,1.18-.18.56-.93.74a11.94,11.94,0,0,1-2.28.62c-.73,0-.7-.41-1.54-.41V21.86a2.25,2.25,0,0,1,1.24.41,5.73,5.73,0,0,0-.74-.17l-.5,0v.55a3.65,3.65,0,0,1,2.85,1.27,3.11,3.11,0,0,0-1.34-.71A5.67,5.67,0,0,0,15,23.05v.89a7.46,7.46,0,0,1,3.45,1.33c.29.37.34.44.51.23a3.19,3.19,0,0,1,1-.68c.4-.2.05-.43-.17-1.37a7.42,7.42,0,0,1,0-2.83c.12-.48-.48-.5-1.33-.82s-1-.79-.7-1.51.35-.47.35.32.56.74,1.22,1,.85.4.76.15-.21-.44,0-1.53a15.06,15.06,0,0,1,1.74-3.92c.61-1,1.41-2.11,2.71-2.14s1.53-.15,1.78-.46S25.78,10.83,24.33,10.74ZM21.4,5.82a1.11,1.11,0,0,1-.3.18,2.13,2.13,0,0,1,.21-.57,1.83,1.83,0,0,1,.41-.37s0-.06,0-.06a.78.78,0,0,1-.4,0,2.78,2.78,0,0,1-.41-.19,0,0,0,0,1,0-.07A2.83,2.83,0,0,0,22,4.17c.52-.43.4-.61.55-.32a2,2,0,0,1,0,1.48c-.23.6-.51.42-1,1.17a1.49,1.49,0,0,1-1.08.74,2.49,2.49,0,0,0,.81-.79,4.56,4.56,0,0,0,.44-1A3.21,3.21,0,0,1,21.4,5.82ZM17,14.67a2.49,2.49,0,0,0-.55-.8c-.48-.48-.37-1,.08-2.06a3.5,3.5,0,0,0,.29-1.58s.05-.05.06,0A2.61,2.61,0,0,1,17,11.51a5.91,5.91,0,0,0-.09,2.35c.08.34.12.61.15.8C17.08,14.7,17,14.71,17,14.67Zm.14-5.89s0,0-.06,0a1.89,1.89,0,0,0-.27-.44,3.4,3.4,0,0,0-.4-.42s-.06,0-.06,0c0,.2,0,.79-.06,1.46a3.64,3.64,0,0,1-.51,1.54,9.65,9.65,0,0,0,.25-2,11.75,11.75,0,0,0-.2-2.11,1.79,1.79,0,0,0,.36.51,2.41,2.41,0,0,0,.71.51,2.36,2.36,0,0,1-.31-.34c-.1-.14-.07-.2-.07-.2a1.4,1.4,0,0,1,.44.27,1.71,1.71,0,0,1,.28.37,1.64,1.64,0,0,0,.09-.6,2.25,2.25,0,0,0-.23-.78,1.5,1.5,0,0,0,.36.14,2.91,2.91,0,0,0,.44.05,1.7,1.7,0,0,1-.31-.2c-.11-.1-.22-.22-.22-.22a2.06,2.06,0,0,1,.39,0,1.74,1.74,0,0,1,.46.09s-.14-.09-.16-.15a.36.36,0,0,1,0-.14,3.66,3.66,0,0,1,.59-.26c.39-.15,1.24-.39,1.24-.39a3.3,3.3,0,0,0-.68.45,2,2,0,0,0-.3.38s0,0,0,0a1,1,0,0,1,.14.2,1.33,1.33,0,0,1,.09.32,2,2,0,0,0-.42-.21,1.44,1.44,0,0,0-.36-.05,0,0,0,0,0,0,.05A1,1,0,0,1,18.5,7a2,2,0,0,1,0,.33,0,0,0,0,1-.06,0,1.4,1.4,0,0,0-.29-.2L17.85,7s-.05,0-.05,0a2.59,2.59,0,0,1-.11.81A4.54,4.54,0,0,1,17.15,8.78ZM20.38,13c1.1.2,1.34,0,1.34,0s-.27.35-1.26.35-1.52-1.42-1.58-1.76.21-.62-.26-.67-.95-.52-.95-1.36A1.85,1.85,0,0,1,18.55,8a2.42,2.42,0,0,1,.77-.2,1.7,1.7,0,0,0-1.19,1.1c-.25.89-.13,1.29.23,1.41s.38.22.61-.53a6,6,0,0,1,.94-1.64,1.63,1.63,0,0,0-.08.41.7.7,0,0,0,.09.32A.93.93,0,0,1,20,8.49a.37.37,0,0,1,.32-.13,0,0,0,0,1,0,0,1.32,1.32,0,0,0,.08.61c.11.24,0,1.08-.46,1.08a.88.88,0,0,1-.66-.22.4.4,0,0,0,.12.22,2.33,2.33,0,0,0,.23.23v0c0,.14,0,1.37.85,1.37a1.81,1.81,0,0,0,1.24-.31,1.53,1.53,0,0,1-1.44.51,1.6,1.6,0,0,1-1.07-1.14s-.07,0-.07,0C19.28,11.44,19.53,12.85,20.38,13Z" transform="translate(0)" fill="#212121"/><path d="M15,24.27a6.91,6.91,0,0,0-2.57.93c-.57.31-.86.52-.88.75s0,0,.51-.12a3.53,3.53,0,0,1,1.52,0c.55.09.9-.61.9.27s-1,.61-1.2.41-.09-.24-.6-.24-.5.31.28.68a4.89,4.89,0,0,0,2,.5Z" transform="translate(0)" fill="#212121"/><path d="M8.49,24.52c-.65-.32-2.39-1.27-2.56-1.27a8.14,8.14,0,0,1-2.09.41,8.4,8.4,0,0,1-2.15-.15c-.27-.13-.44,0,.61.62a5.42,5.42,0,0,0,3.13.94c1.13,0,2.49-.36,3.16-.3S8.8,24.67,8.49,24.52Z" transform="translate(0)" fill="#212121"/><path d="M9.56,20.34c-.07-.14-.36.19-.73.19s-.76-.33-1.36-.35S2.87,19,2.11,17a7.94,7.94,0,0,1,.18-5.83A5.76,5.76,0,0,1,5.6,8.67c.84,0,.23-.25-.87-.21A5.85,5.85,0,0,0,1,11c-.77,1.25-1.1,2-1,4.65a7.54,7.54,0,0,0,2,5.21C3.1,22,4.76,22.3,6.51,23.14a24.8,24.8,0,0,0,2.7,1.27A5.79,5.79,0,0,0,9.56,20.34Z" transform="translate(0)" fill="#212121"/><path d="M3.66,11.72c.25.31.49.43,1.78.46s2.1,1.17,2.71,2.14a15.06,15.06,0,0,1,1.74,3.92c.21,1.09.1,1.29,0,1.53s.09.12.76-.15,1.22-.21,1.22-1,0-1,.35-.32.14,1.18-.7,1.51-1.45.34-1.33.82a7.42,7.42,0,0,1,.05,2.83c-.22.94-.57,1.17-.17,1.37a3.19,3.19,0,0,1,1,.68c.17.21.22.14.51-.23A7.46,7.46,0,0,1,15,23.94v-.89a5.67,5.67,0,0,0-1.51.13,3.11,3.11,0,0,0-1.34.71A3.65,3.65,0,0,1,15,22.62v-.55l-.5,0a5.73,5.73,0,0,0-.74.17A2.25,2.25,0,0,1,15,21.86V5.22c-.84,0-.81.41-1.54.41A11.94,11.94,0,0,1,11.18,5c-.75-.18-.6-.24-.93-.74S9,3.46,8.72,3.09s-.21-.18-.2,0-.09.22-.61.09a1.84,1.84,0,0,1-1-.48c-.23-.26-.18,0-.17.28s-.11.57-.2.26-.14-.35-.11.22a8.63,8.63,0,0,0,.27,1.62c.09.37,0,.56-.12.27s-.13-.09,0,.28A2.8,2.8,0,0,0,7.79,7a3.32,3.32,0,0,1,1.68.8c.36.48,0,.22-.22.13s-.5.09-.74-.11-.17-.14-.17.44A5.14,5.14,0,0,1,8.2,9.9c-.14.3.27.32,0,.44a8.59,8.59,0,0,1-2.55.4C4.22,10.83,3.41,11.42,3.66,11.72ZM8.28,5.47a4.56,4.56,0,0,0,.44,1,2.49,2.49,0,0,0,.81.79A1.49,1.49,0,0,1,8.45,6.5c-.52-.75-.8-.57-1-1.17a2,2,0,0,1,0-1.48c.15-.29,0-.11.55.32a2.83,2.83,0,0,0,1.14.55,0,0,0,0,1,0,.07A2.78,2.78,0,0,1,8.71,5a.78.78,0,0,1-.4,0s-.06,0,0,.06a1.83,1.83,0,0,1,.41.37A2.13,2.13,0,0,1,8.9,6a1.11,1.11,0,0,1-.3-.18A3.21,3.21,0,0,1,8.28,5.47Zm4.64,9.19c0-.19.07-.46.15-.8A5.91,5.91,0,0,0,13,11.51a2.61,2.61,0,0,1,.13-1.29s.06,0,.06,0a3.5,3.5,0,0,0,.29,1.58c.45,1,.56,1.58.08,2.06a2.49,2.49,0,0,0-.55.8S12.92,14.7,12.92,14.66Zm-.61-6.79a2.59,2.59,0,0,1-.11-.81s0,0,0,0l-.31.14a1.4,1.4,0,0,0-.29.2,0,0,0,0,1-.06,0,2,2,0,0,1,0-.33,1,1,0,0,1,.18-.41,0,0,0,0,0,0-.05,1.44,1.44,0,0,0-.36.05,2,2,0,0,0-.42.21A1.33,1.33,0,0,1,11,6.5a1,1,0,0,1,.14-.2s0,0,0,0a2,2,0,0,0-.3-.38,3.3,3.3,0,0,0-.68-.45s.85.24,1.24.39a3.66,3.66,0,0,1,.59.26.36.36,0,0,1,0,.14c0,.06-.16.15-.16.15a1.74,1.74,0,0,1,.46-.09,2.06,2.06,0,0,1,.39,0l-.22.22a1.7,1.7,0,0,1-.31.2,2.91,2.91,0,0,0,.44-.05,1.5,1.5,0,0,0,.36-.14,2.25,2.25,0,0,0-.23.78,1.64,1.64,0,0,0,.09.6A1.71,1.71,0,0,1,13,7.55a1.4,1.4,0,0,1,.44-.27s0,.06-.07.2a2.36,2.36,0,0,1-.31.34,2.41,2.41,0,0,0,.71-.51,1.79,1.79,0,0,0,.36-.51A11.75,11.75,0,0,0,14,8.91a9.65,9.65,0,0,0,.25,2,3.64,3.64,0,0,1-.51-1.54c0-.67-.06-1.26-.06-1.46,0,0,0,0-.06,0a3.4,3.4,0,0,0-.4.42,1.89,1.89,0,0,0-.27.44s-.05,0-.06,0A4.54,4.54,0,0,1,12.31,7.87Zm-1.52,2.91s0,0-.07,0a1.6,1.6,0,0,1-1.07,1.14,1.53,1.53,0,0,1-1.44-.51,1.81,1.81,0,0,0,1.24.31c.87,0,.86-1.23.85-1.37v0l.23-.23a.4.4,0,0,0,.12-.22.88.88,0,0,1-.66.22c-.46,0-.57-.84-.46-1.08a1.32,1.32,0,0,0,.08-.61,0,0,0,0,1,0,0,.37.37,0,0,1,.32.13.93.93,0,0,1,.11.33.7.7,0,0,0,.09-.32,1.63,1.63,0,0,0-.08-.41A6,6,0,0,1,11,9.73c.23.75.25.65.61.53s.48-.52.23-1.41a1.7,1.7,0,0,0-1.19-1.1,2.42,2.42,0,0,1,.77.2,1.85,1.85,0,0,1,.88,1.59c0,.84-.47,1.32-.95,1.36s-.19.34-.26.67-.58,1.76-1.58,1.76S8.28,13,8.28,13s.24.22,1.34,0C10.47,12.85,10.72,11.44,10.79,10.78Z" transform="translate(0)" fill="#212121"/><rect width="30" height="30" fill="none"/></svg>