<!-- Copyright (c) 2023 Jan Stehno -->
<svg xmlns="http://www.w3.org/2000/svg" viewBox="0 0 300 300">
    <title>warthog</title>
    <g id="warthog">
        <g id="right">
            <path
                d="M150,242.68c8.07,0,20,6.28,25.7,9.33s8.62,5.22,8.75,7.53,0,.13-5.08-1.22-9.63-1.29-15.13-.41-9-6.11-9,2.64,10.22,6.18,12,4.18.83-2.44,6-2.44,5,3.1-2.8,6.81a48.72,48.72,0,0,1-20.4,5Z"
                transform="translate(0)" fill="#212121" />
            <path
                d="M215.06,245.24c6.55-3.22,23.91-12.76,25.63-12.76s10.43,4.13,20.88,4.13,18.72-.27,21.5-1.56,4.4-.2-6.11,6.24-19.94,9.77-31.26,9.43-24.89-3.59-31.61-3S212,246.74,215.06,245.24Z"
                transform="translate(0)" fill="#212121" />
            <path
                d="M204.43,203.38c.63-1.39,3.56,1.93,7.22,1.93s7.63-3.35,13.63-3.56,46-11.86,53.58-32.21,5-46.53-1.76-58.33S252.33,87.07,244,86.66s-2.26-2.44,8.72-2,29.57,12.48,37.3,25,11,20.49,9.77,46.53S290.93,196,280,208.2s-27.54,14.78-45,23.19-25.09,12.75-27,12.75S198.09,217.29,204.43,203.38Z"
                transform="translate(0)" fill="#212121" />
            <path
                d="M243.25,107.41c-14.58-.88-23.05-2.71-25.5-4S219.43,102,218,99s-1.38-10.47-1.38-16.32.77-6.45-1.64-4.45-4.82.21-7.46,1.09-5.8,3.53-2.14-1.29,12-6.58,16.75-8,12-10,12.89-13.65,1-5.75-.41-2.83-2,1-1.15-2.72a94.49,94.49,0,0,0,2.71-16.14c.27-5.76-.27-5.36-1.15-2.24s-2,.68-2-2.57.55-5.43-1.76-2.78S226,30.5,220.87,31.79s-6.24,1-6.1-.88.81-3.66-2,0-11.87,6.78-15.26,11.8-1.86,5.63-9.34,7.36-15.56,6.26-22.84,6.26-7-4.17-15.36-4.17v166.4c7.94.49,12.36,4.1,12.36,4.1A53,53,0,0,0,155,221a47.68,47.68,0,0,0-4.95-.26v5.51c20.11.64,28.54,12.71,28.54,12.71a31.63,31.63,0,0,0-13.48-7.17A55.8,55.8,0,0,0,150,230.53v8.92c10.07,0,31.59,9.46,34.48,13.22s3.47,4.48,5.09,2.34,5.74-4.83,9.74-6.8.54-4.34-1.7-13.7-.81-23.6.46-28.33-4.78-4.93-13.23-8.19-10.47-7.88-7-15.06,3.46-4.78,3.46,3.21,5.65,7.37,12.26,10.07,8.5,4,7.53,1.53-2.1-4.4.07-15.38,11.26-29.44,17.36-39.14,14.11-21.09,27.06-21.43,15.33-1.49,17.84-4.54S257.84,108.3,243.25,107.41ZM214,58.21A13,13,0,0,1,211,60a20.24,20.24,0,0,1,2.14-5.7,16.12,16.12,0,0,1,4-3.7.33.33,0,0,0-.26-.59,7.91,7.91,0,0,1-4-.23,23.41,23.41,0,0,1-4-2,.33.33,0,0,1,.1-.6,30.81,30.81,0,0,0,11.35-5.52c5.24-4.32,4-6.1,5.49-3.26s2.34,8.8,0,14.81S220.7,57.55,215.47,65s-10.74,7.37-10.74,7.37a24.33,24.33,0,0,0,8.09-7.88,45.53,45.53,0,0,0,4.43-9.75A40.4,40.4,0,0,1,214,58.21Zm-43.91,88.54a26.77,26.77,0,0,0-5.48-8c-4.83-4.78-3.76-10.48.76-20.65a33.87,33.87,0,0,0,2.86-15.77.33.33,0,0,1,.65-.1c1.07,3.61,2.4,9.39,1.27,12.87-1.73,5.34-2.28,16.94-.86,23.5.74,3.41,1.18,6.15,1.43,8A.33.33,0,0,1,170.13,146.75Zm1.37-59a.33.33,0,0,1-.56-.06,22,22,0,0,0-2.7-4.41,30.89,30.89,0,0,0-4.08-4.21.33.33,0,0,0-.55.24c-.06,2-.26,7.92-.59,14.52-.4,8.07-5.15,15.5-5.15,15.5a95.28,95.28,0,0,0,2.56-20.21,118.29,118.29,0,0,0-2-21.14A18.82,18.82,0,0,0,162,73.11a25.5,25.5,0,0,0,7.12,5.09A25.86,25.86,0,0,1,166,74.82c-1-1.43-.68-2-.68-2a15.41,15.41,0,0,1,4.45,2.64,18.28,18.28,0,0,1,2.74,3.74,16.35,16.35,0,0,0,.92-6c-.1-3.51-2.32-7.75-2.32-7.75a18.63,18.63,0,0,0,3.64,1.42,27.37,27.37,0,0,0,4.38.43,19.06,19.06,0,0,1-3.08-2c-1.12-1-2.27-2.22-2.27-2.22a19.72,19.72,0,0,1,3.92-.25,15.26,15.26,0,0,1,4.58.87s-1.31-.87-1.58-1.5a4.43,4.43,0,0,1-.29-1.42,43.09,43.09,0,0,1,5.9-2.61c3.9-1.46,12.38-3.84,12.38-3.84s-4.58,2.24-6.71,4.41a23.41,23.41,0,0,0-3.1,3.89.32.32,0,0,0,.05.39,8.87,8.87,0,0,1,1.39,2,15.16,15.16,0,0,1,.91,3.19,16.46,16.46,0,0,0-4.17-2,12.16,12.16,0,0,0-3.59-.54.32.32,0,0,0-.26.52A9.62,9.62,0,0,1,185,70.18a16.23,16.23,0,0,1,.08,3.33.33.33,0,0,1-.55.21,13.46,13.46,0,0,0-2.92-2,26.66,26.66,0,0,0-3.16-1.35.33.33,0,0,0-.43.32,26.17,26.17,0,0,1-1.13,8C175.79,81.84,172.56,86.34,171.5,87.77ZM203.77,130c11,2,13.42-.25,13.42-.25s-2.64,3.56-12.61,3.56-15.16-14.24-15.82-17.6,2.14-6.26-2.59-6.71-9.45-5.28-9.45-13.62,5.36-14.24,8.82-15.94a23.5,23.5,0,0,1,7.66-2s-9.29,2.1-11.87,11-1.28,13,2.31,14.11,3.8,2.24,6-5.29,9.46-16.41,9.46-16.41a15.87,15.87,0,0,0-.82,4.09,7.35,7.35,0,0,0,.87,3.23,9.63,9.63,0,0,1,1.14-3.33c.71-1.16,2.42-1.3,3.16-1.31a.32.32,0,0,1,.32.35,13.77,13.77,0,0,0,.75,6c1.16,2.48.07,10.89-4.58,10.89s-6.61-2.24-6.61-2.24a4.43,4.43,0,0,0,1.26,2.2c1,1.12,1.93,2.06,2.23,2.35a.25.25,0,0,1,.09.23c0,1.43-.17,13.73,8.55,13.73,9.25,0,12.36-3.1,12.36-3.1a15.13,15.13,0,0,1-14.35,5.09c-6.21-1.18-9.37-7.51-10.76-11.41a.33.33,0,0,0-.63.15C192.83,114.37,195.35,128.51,203.77,130Z"
                transform="translate(0)" fill="#212121" />
        </g>
        <g id="left">
            <path
                d="M150,242.68c-8.07,0-20,6.28-25.7,9.33s-8.62,5.22-8.75,7.53,0,.13,5.08-1.22,9.63-1.29,15.13-.41,9-6.11,9,2.64-10.22,6.18-12,4.18-.83-2.44-6-2.44-5,3.1,2.8,6.81a48.72,48.72,0,0,0,20.4,5Z"
                transform="translate(0)" fill="#212121" />
            <path
                d="M84.94,245.24C78.39,242,61,232.48,59.31,232.48s-10.43,4.13-20.88,4.13-18.72-.27-21.5-1.56-4.4-.2,6.11,6.24S43,251.06,54.3,250.72s24.89-3.59,31.61-3S88,246.74,84.94,245.24Z"
                transform="translate(0)" fill="#212121" />
            <path
                d="M95.57,203.38c-.63-1.39-3.56,1.93-7.22,1.93s-7.63-3.35-13.63-3.56-46-11.86-53.58-32.21-5-46.53,1.76-58.33S47.67,87.07,56,86.66s2.26-2.44-8.72-2-29.57,12.48-37.3,25S-1,130.07.25,156.11,9.07,196,20.05,208.2s27.54,14.78,45,23.19,25.09,12.75,27,12.75S101.91,217.29,95.57,203.38Z"
                transform="translate(0)" fill="#212121" />
            <path
                d="M36.6,117.25c2.51,3,4.89,4.2,17.84,4.54s21,11.74,27.06,21.43,15.19,28.15,17.36,39.14,1,12.93.07,15.38.92,1.17,7.53-1.53,12.26-2.09,12.26-10.07,0-10.38,3.46-3.21,1.42,11.8-7,15.06-14.5,3.46-13.23,8.19,2.7,19,.46,28.33-5.7,11.74-1.7,13.7,8.11,4.66,9.74,6.8,2.19,1.43,5.09-2.34,24.41-13.22,34.48-13.22v-8.92a55.8,55.8,0,0,0-15.06,1.24,31.63,31.63,0,0,0-13.48,7.17s8.43-12.07,28.54-12.71v-5.51a47.68,47.68,0,0,0-4.95.26,53,53,0,0,0-7.41,1.68s4.42-3.61,12.36-4.1V52.16c-8.37,0-8.09,4.17-15.36,4.17s-15.36-4.53-22.84-6.26-6-2.34-9.34-7.36S90,34.57,87.2,30.91s-2.11-1.83-2,0-1,2.17-6.1.88-8.07-2.1-10.38-4.74-1.83-.48-1.76,2.78-1.09,5.69-2,2.57-1.42-3.52-1.15,2.24a94.49,94.49,0,0,0,2.71,16.14c.88,3.73.27,5.63-1.15,2.72s-1.29-.85-.41,2.83S73.16,68.55,77.91,70,91,73.16,94.66,78s.51,2.17-2.14,1.29-5,.91-7.46-1.09-1.64-1.4-1.64,4.45S83.52,96,82,99s2.65,3.21.21,4.48-10.92,3.1-25.5,4S34.09,114.2,36.6,117.25ZM82.75,54.72a45.53,45.53,0,0,0,4.43,9.75,24.33,24.33,0,0,0,8.09,7.88s-5.5.05-10.74-7.37-8-5.7-10.32-11.7-1.53-12,0-14.81.25-1.06,5.49,3.26a30.81,30.81,0,0,0,11.35,5.52.33.33,0,0,1,.1.6,23.41,23.41,0,0,1-4,2,7.91,7.91,0,0,1-4,.23.33.33,0,0,0-.26.59,16.12,16.12,0,0,1,4,3.7A20.24,20.24,0,0,1,89,60,13,13,0,0,1,86,58.21,40.4,40.4,0,0,1,82.75,54.72Zm46.49,91.85c.25-1.84.69-4.58,1.43-8,1.42-6.56.87-18.16-.86-23.5-1.13-3.48.2-9.26,1.27-12.87a.33.33,0,0,1,.65.1,33.87,33.87,0,0,0,2.86,15.77c4.52,10.17,5.59,15.87.76,20.65a26.77,26.77,0,0,0-5.48,8A.33.33,0,0,1,129.24,146.57Zm-6.13-67.91a26.17,26.17,0,0,1-1.13-8,.33.33,0,0,0-.43-.32,26.66,26.66,0,0,0-3.16,1.35,13.46,13.46,0,0,0-2.92,2,.33.33,0,0,1-.55-.21,16.23,16.23,0,0,1,.08-3.33,9.62,9.62,0,0,1,1.82-4.05.32.32,0,0,0-.26-.52,12.16,12.16,0,0,0-3.59.54,16.46,16.46,0,0,0-4.17,2,15.16,15.16,0,0,1,.91-3.19,8.87,8.87,0,0,1,1.39-2,.32.32,0,0,0,.05-.39,23.41,23.41,0,0,0-3.1-3.89c-2.13-2.17-6.71-4.41-6.71-4.41s8.48,2.38,12.38,3.84a43.09,43.09,0,0,1,5.9,2.61,4.43,4.43,0,0,1-.29,1.42c-.27.63-1.58,1.5-1.58,1.5a15.26,15.26,0,0,1,4.58-.87,19.72,19.72,0,0,1,3.92.25s-1.15,1.25-2.27,2.22a19.06,19.06,0,0,1-3.08,2,27.37,27.37,0,0,0,4.38-.43,18.63,18.63,0,0,0,3.64-1.42s-2.22,4.24-2.32,7.75a16.35,16.35,0,0,0,.92,6,18.28,18.28,0,0,1,2.74-3.74,15.41,15.41,0,0,1,4.45-2.64s.28.58-.68,2a25.86,25.86,0,0,1-3.13,3.38A25.5,25.5,0,0,0,138,73.11,18.82,18.82,0,0,0,141.56,68a118.29,118.29,0,0,0-2,21.14,95.28,95.28,0,0,0,2.56,20.21s-4.75-7.43-5.15-15.5c-.33-6.6-.53-12.57-.59-14.52a.33.33,0,0,0-.55-.24,30.89,30.89,0,0,0-4.08,4.21,22,22,0,0,0-2.7,4.41.33.33,0,0,1-.56.06C127.44,86.34,124.21,81.84,123.11,78.66Zm-15.23,29.18a.33.33,0,0,0-.63-.15c-1.39,3.9-4.55,10.23-10.76,11.41A15.13,15.13,0,0,1,82.14,114s3.11,3.1,12.36,3.1c8.72,0,8.59-12.3,8.55-13.73a.25.25,0,0,1,.09-.23c.3-.29,1.25-1.23,2.23-2.35a4.43,4.43,0,0,0,1.26-2.2s-2,2.24-6.61,2.24S94.28,92.43,95.44,90a13.77,13.77,0,0,0,.75-6,.32.32,0,0,1,.32-.35c.74,0,2.45.15,3.16,1.31a9.63,9.63,0,0,1,1.14,3.33,7.35,7.35,0,0,0,.87-3.23,15.87,15.87,0,0,0-.82-4.09s7.23,8.88,9.46,16.41,2.45,6.44,6,5.29,4.88-5.22,2.31-14.11-11.87-11-11.87-11a23.5,23.5,0,0,1,7.66,2c3.46,1.7,8.82,7.6,8.82,15.94s-4.72,13.16-9.45,13.62-1.93,3.35-2.59,6.71-5.85,17.6-15.82,17.6-12.61-3.56-12.61-3.56,2.44,2.24,13.42.25C104.65,128.51,107.17,114.37,107.88,107.84Z"
                transform="translate(0)" fill="#212121" />
        </g>
    </g>
    <g id="frame">
        <rect width="300" height="300" fill="none" />
    </g>
</svg>