<!-- Copyright (c) 2022 Jan Stehno -->
<svg xmlns="http://www.w3.org/2000/svg" viewBox="0 0 300 300"><title>waterbuffalo</title><g id="waterbuffalo"><g id="right"><path d="M150,237.35c14.43,0,16.84,1.29,18.51,2.65a3.88,3.88,0,0,1-.54,6.05c-2.18,1.24-11.3,3.54-18,3.54Z" fill="#212121"/><path d="M266.4,188.82c-2.72-5.25-2.63-9-8.94-13.12s-17.2-4.95-17.2-4.95l7.87-.68S243.86,167,233,164s-14.67-5-17.87-5a9.93,9.93,0,0,1-5.64-2,18,18,0,0,1,2.62,5.74,8.33,8.33,0,0,1-.38,5.44s-.39-3.4-3.79-8.26a50.59,50.59,0,0,0-6.29-7.53,24.1,24.1,0,0,1-1.12,8.14,15.45,15.45,0,0,1-3.72,6.63s1,2-.48,5.83a23.54,23.54,0,0,1-2.87,5.58s10.06,2.8,16.18,9.72,10,14.79,19.31,18.29,28-2.65,32.91-5.56S269.12,194.07,266.4,188.82Zm-19-5.61c-6.64-3.28-24.39-3.62-26.84-2.91s.54,1.56,3.35,4.83a25.06,25.06,0,0,1,4.9,9.45,35.91,35.91,0,0,0-6.55-8.24c-4.59-4.44-12.68-6.52-12.68-10.2,0-2.69,4.19-1.78,11.33-1.56s16.87-.33,26,4S260.4,192,260.4,192A72.79,72.79,0,0,0,247.43,183.21Z" fill="#212121"/><path d="M173.5,212.36c-1.06-1.28-3.32-1.17-5.9.8s-3.32,4.23-1.39,6.41,3,3.6,10.24-1.2c4.3-2.86,4.25-8.14,4.25-8.14-.15.76-.9,1.65-2.65,2.75A3.34,3.34,0,0,1,173.5,212.36Z" fill="none"/><path d="M167.74,123.68c-4.84,7.28-2.15,13.51-.62,20.11a12.07,12.07,0,0,1,1.13-6.34,25.76,25.76,0,0,1,3.72-4.88,3.42,3.42,0,0,0-2-.7,4,4,0,0,0-2.23.88,28,28,0,0,1,5.94-11.44c4.63-5.21,8.53-9.29,8.53-9.29S172.59,116.39,167.74,123.68Z" fill="none"/><path d="M293,66.77c-5.75-10.35-19.89-17.08-20.52-16.3s1.55,2.62,3.4,4.32,10.93,12.34,11.95,23.42-7.73,20.4-24.34,27.83-29.73.73-43.14-3.79a72.24,72.24,0,0,0-24.49-3.7,18.23,18.23,0,0,0-4.22-4.39c-9.25-6.77-24.12-9.91-41.68-9.91V185.61c6.34,0,10.78,1.46,13.41,3.07a15.12,15.12,0,0,1,4.44,4.91S162.9,189,150,189v44.61c8,0,15.23.79,19.67,4.65s7.26,4.79,13.12-4c7.54-11.33,3.13-18.22,1-26.89a77.83,77.83,0,0,0-6.41-16.32,28.66,28.66,0,0,1,4.88,5.22c1.82,2.72,3.13,4.84,3.13,4.84s-1.53-15.82,2.07-21.74,8.28-9.68,9-15.45c.59-5,3.11-4.84,3.77-7.9,1.39-6.69-2-7.48-2-7.48s0,5.1-3.36,7.57c-3.11,2.29-5.47,2.57-6.12,2.44s-1.56-.75-2.71,0a9.93,9.93,0,0,0-2.7,2.05,10.15,10.15,0,0,0-1,2.55s-3.61-1.52-5.19-8.21c-1.1-4.66-.43-7.48.6-10a15.16,15.16,0,0,1,3.43-4.39,14.84,14.84,0,0,0-1.63,6.55c0,3.65.07,5.9.87,8.07A4.11,4.11,0,0,0,183.4,158c.87.12,1.58-1.05,1.58-1.05a11.84,11.84,0,0,1,4.71-8.06c4.32-3.06,6.92-3.19,8.51-2.26,1.25.73,7.67-3.28,7.67-6.58s-.05-5.64-2.34-8.84a48,48,0,0,1-4.17-7.68l3.83,2.33s-2.38-3.5-2.72-5.88a26.74,26.74,0,0,1-.2-3.47,6.74,6.74,0,0,1,1.83,3.33c1,4.73,3.87,8.08,8.62,10.2,6.59,2.94,22.2,3.69,38.38.92s30.17-9,43.14-23.31C305.65,92.8,298.8,77.11,293,66.77ZM178.05,213c1.75-1.1,2.5-2,2.65-2.75,0,0,.05,5.28-4.25,8.14-7.22,4.8-8.31,3.39-10.24,1.2s-1.2-4.44,1.39-6.41,4.84-2.08,5.9-.8A3.34,3.34,0,0,0,178.05,213Zm-4.37-91.67a28,28,0,0,0-5.94,11.44,4,4,0,0,1,2.23-.88,3.42,3.42,0,0,1,2,.7,25.76,25.76,0,0,0-3.72,4.88,12.07,12.07,0,0,0-1.13,6.34c-1.53-6.6-4.22-12.83.62-20.11S182.21,112,182.21,112,178.31,116.1,173.68,121.31Z" fill="#212121"/></g><g id="left"><path d="M150,237.35c-14.43,0-16.84,1.29-18.51,2.65a3.88,3.88,0,0,0,.54,6.05c2.18,1.24,11.3,3.54,18,3.54Z" fill="#212121"/><path d="M38.17,201c5,2.91,23.59,9.06,32.91,5.56s13.19-11.37,19.31-18.29,16.18-9.72,16.18-9.72a23.54,23.54,0,0,1-2.87-5.58c-1.45-3.79-.48-5.83-.48-5.83a15.45,15.45,0,0,1-3.72-6.63,24.1,24.1,0,0,1-1.12-8.14,50.59,50.59,0,0,0-6.29,7.53c-3.4,4.86-3.79,8.26-3.79,8.26a8.33,8.33,0,0,1-.38-5.44A18,18,0,0,1,90.54,157a9.93,9.93,0,0,1-5.64,2c-3.2,0-7,2-17.87,5s-15.16,6.12-15.16,6.12l7.87.68s-10.88.87-17.2,4.95-6.22,7.87-8.94,13.12S33.22,198.05,38.17,201Zm1.43-9s4.38-9,13.48-13.33,18.84-3.83,26-4,11.33-1.13,11.33,1.56c0,3.68-8.09,5.76-12.68,10.2a35.91,35.91,0,0,0-6.55,8.24,25.06,25.06,0,0,1,4.9-9.45c2.81-3.27,5.88-4.11,3.35-4.83s-20.2-.37-26.84,2.91A72.79,72.79,0,0,0,39.6,192Z" fill="#212121"/><path d="M126.5,212.36c1.06-1.28,3.32-1.17,5.9.8s3.32,4.23,1.39,6.41-3,3.6-10.24-1.2c-4.3-2.86-4.25-8.14-4.25-8.14.15.76.9,1.65,2.65,2.75A3.34,3.34,0,0,0,126.5,212.36Z" fill="none"/><path d="M132.26,123.68c4.84,7.28,2.15,13.51.62,20.11a12.07,12.07,0,0,0-1.13-6.34,25.76,25.76,0,0,0-3.72-4.88,3.42,3.42,0,0,1,2-.7,4,4,0,0,1,2.23.88,28,28,0,0,0-5.94-11.44c-4.63-5.21-8.53-9.29-8.53-9.29S127.41,116.39,132.26,123.68Z" fill="none"/><path d="M7.76,107.65c13,14.35,27,20.54,43.14,23.31s31.79,2,38.38-.92c4.75-2.12,7.63-5.47,8.62-10.2a6.74,6.74,0,0,1,1.83-3.33,26.74,26.74,0,0,1-.2,3.47c-.34,2.38-2.72,5.88-2.72,5.88l3.83-2.33a48,48,0,0,1-4.17,7.68c-2.29,3.2-2.34,5.53-2.34,8.84s6.42,7.31,7.67,6.58c1.59-.93,4.19-.8,8.51,2.26A11.84,11.84,0,0,1,115,157s.71,1.17,1.58,1.05a4.11,4.11,0,0,0,3.09-2.77c.8-2.17.87-4.42.87-8.07a14.84,14.84,0,0,0-1.63-6.55,15.16,15.16,0,0,1,3.43,4.39c1,2.48,1.7,5.3.6,10-1.58,6.69-5.19,8.21-5.19,8.21a10.15,10.15,0,0,0-1-2.55,9.93,9.93,0,0,0-2.7-2.05c-1.15-.74-2-.13-2.71,0s-3-.15-6.12-2.44c-3.38-2.47-3.36-7.57-3.36-7.57s-3.41.79-2,7.48c.66,3.06,3.18,2.91,3.77,7.9.7,5.77,5.39,9.52,9,15.45s2.07,21.74,2.07,21.74,1.31-2.12,3.13-4.84a28.66,28.66,0,0,1,4.88-5.22,77.83,77.83,0,0,0-6.41,16.32c-2.18,8.67-6.59,15.56.95,26.89,5.86,8.8,8.67,7.87,13.12,4S142,233.65,150,233.65V189c-12.9,0-17.85,4.55-17.85,4.55a15.12,15.12,0,0,1,4.44-4.91c2.63-1.61,7.07-3.07,13.41-3.07V84.25c-17.56,0-32.43,3.14-41.68,9.91a18.23,18.23,0,0,0-4.22,4.39,72.24,72.24,0,0,0-24.49,3.7C66.2,106.77,53.08,113.47,36.47,106S11.11,89.28,12.13,78.21,22.24,56.49,24.08,54.79s4-3.55,3.4-4.32S12.71,56.42,7,66.77-5.65,92.8,7.76,107.65ZM126.5,212.36c1.06-1.28,3.32-1.17,5.9.8s3.32,4.23,1.39,6.41-3,3.6-10.24-1.2c-4.3-2.86-4.25-8.14-4.25-8.14.15.76.9,1.65,2.65,2.75A3.34,3.34,0,0,0,126.5,212.36ZM117.79,112s9.62,4.37,14.47,11.66,2.15,13.51.62,20.11a12.07,12.07,0,0,0-1.13-6.34,25.76,25.76,0,0,0-3.72-4.88,3.42,3.42,0,0,1,2-.7,4,4,0,0,1,2.23.88,28,28,0,0,0-5.94-11.44C121.69,116.1,117.79,112,117.79,112Z" fill="#212121"/></g></g><g id="frame"><rect width="300" height="300" fill="none"/></g></svg>