<svg xmlns="http://www.w3.org/2000/svg" viewBox="0 0 30 30"><path d="M15,23.74c1.44,0,1.68.12,1.85.26a.38.38,0,0,1-.05.6A5.1,5.1,0,0,1,15,25Z" fill="#212121"/><path d="M26.64,18.88c-.27-.52-.26-.9-.89-1.31a4.56,4.56,0,0,0-1.72-.5l.78-.06a5.15,5.15,0,0,0-1.51-.62,12.55,12.55,0,0,0-1.79-.5A1,1,0,0,1,21,15.7a1.87,1.87,0,0,1,.26.57.8.8,0,0,1,0,.54,2,2,0,0,0-.38-.82,5.09,5.09,0,0,0-.63-.76,2.44,2.44,0,0,1-.11.82,1.57,1.57,0,0,1-.37.66.76.76,0,0,1-.05.58,2.46,2.46,0,0,1-.29.56,3.81,3.81,0,0,1,1.62,1c.61.7,1,1.48,1.93,1.83a5.37,5.37,0,0,0,3.29-.55C26.68,19.81,26.91,19.41,26.64,18.88Zm-1.9-.56A6.83,6.83,0,0,0,22.06,18c-.25.07.05.16.33.48a2.49,2.49,0,0,1,.49.95,3.5,3.5,0,0,0-.65-.83c-.46-.44-1.27-.65-1.27-1s.42-.17,1.13-.15a6,6,0,0,1,2.6.4A3.23,3.23,0,0,1,26,19.2,7.05,7.05,0,0,0,24.74,18.32Z" fill="#212121"/><path d="M17.35,21.24c-.11-.13-.33-.12-.59.08s-.33.42-.14.64.3.36,1-.12a1,1,0,0,0,.42-.82c0,.08-.09.17-.26.28A.35.35,0,0,1,17.35,21.24Z" fill="none"/><path d="M16.77,12.37a2.26,2.26,0,0,0-.06,2,1.19,1.19,0,0,1,.12-.64,2.66,2.66,0,0,1,.37-.48.37.37,0,0,0-.2-.07.45.45,0,0,0-.23.08,2.88,2.88,0,0,1,.6-1.14c.46-.52.85-.93.85-.93A4,4,0,0,0,16.77,12.37Z" fill="none"/><path d="M29.3,6.68a3.81,3.81,0,0,0-2.05-1.63c-.06.07.16.26.34.43a4.47,4.47,0,0,1,1.2,2.34c.1,1.11-.78,2-2.44,2.78s-3,.08-4.31-.37a7,7,0,0,0-2.45-.37,1.6,1.6,0,0,0-.42-.44,7.25,7.25,0,0,0-4.17-1V18.56a2.6,2.6,0,0,1,1.34.31,1.6,1.6,0,0,1,.45.49A2.74,2.74,0,0,0,15,18.9v4.46a3,3,0,0,1,2,.47c.44.39.72.48,1.31-.4.75-1.13.31-1.82.09-2.69a7.17,7.17,0,0,0-.64-1.63,2.8,2.8,0,0,1,.49.52l.31.48a5.08,5.08,0,0,1,.21-2.17c.36-.59.83-1,.9-1.55s.31-.48.38-.78c.14-.67-.21-.75-.21-.75a1,1,0,0,1-.33.75,1,1,0,0,1-.61.25.28.28,0,0,0-.28,0,1.18,1.18,0,0,0-.27.2,1.15,1.15,0,0,0-.1.26s-.36-.15-.52-.82a1.51,1.51,0,0,1,.06-1,1.63,1.63,0,0,1,.35-.44,1.44,1.44,0,0,0-.17.66,2.22,2.22,0,0,0,.09.8.42.42,0,0,0,.31.28c.09,0,.16-.1.16-.1a1.18,1.18,0,0,1,.47-.81c.43-.31.69-.32.85-.23s.77-.32.77-.66a1.28,1.28,0,0,0-.24-.88,5.17,5.17,0,0,1-.41-.77l.38.24a1.81,1.81,0,0,1-.27-.59,2.18,2.18,0,0,1,0-.35.76.76,0,0,1,.18.33,1.38,1.38,0,0,0,.86,1,8.11,8.11,0,0,0,3.84.1,7,7,0,0,0,4.31-2.34C30.57,9.28,29.88,7.71,29.3,6.68ZM17.81,21.3c.17-.11.25-.2.26-.28a1,1,0,0,1-.42.82c-.73.48-.84.34-1,.12s-.12-.45.14-.64.48-.21.59-.08A.35.35,0,0,0,17.81,21.3Zm-.44-9.17a2.88,2.88,0,0,0-.6,1.14.45.45,0,0,1,.23-.08.37.37,0,0,1,.2.07,2.66,2.66,0,0,0-.37.48,1.19,1.19,0,0,0-.12.64,2.26,2.26,0,0,1,.06-2,4,4,0,0,1,1.45-1.17S17.83,11.61,17.37,12.13Z" fill="#212121"/><path d="M15,23.74c-1.44,0-1.68.12-1.85.26a.38.38,0,0,0,0,.6A5.1,5.1,0,0,0,15,25Z" fill="#212121"/><path d="M3.82,20.1a5.37,5.37,0,0,0,3.29.55C8,20.3,8.43,19.52,9,18.82a3.81,3.81,0,0,1,1.62-1,2.46,2.46,0,0,1-.29-.56.76.76,0,0,1,0-.58,1.57,1.57,0,0,1-.37-.66,2.44,2.44,0,0,1-.11-.82,5.09,5.09,0,0,0-.63.76,2,2,0,0,0-.38.82.8.8,0,0,1,0-.54,1.87,1.87,0,0,1,.26-.57,1,1,0,0,1-.56.19,12.55,12.55,0,0,0-1.79.5A5.15,5.15,0,0,0,5.19,17l.78.06a4.56,4.56,0,0,0-1.72.5c-.63.41-.62.79-.89,1.31S3.32,19.81,3.82,20.1ZM4,19.2a3.23,3.23,0,0,1,1.35-1.34,6,6,0,0,1,2.6-.4c.71,0,1.13-.12,1.13.15s-.81.58-1.27,1a3.5,3.5,0,0,0-.65.83,2.49,2.49,0,0,1,.49-.95c.28-.32.58-.41.33-.48a6.83,6.83,0,0,0-2.68.29A7.05,7.05,0,0,0,4,19.2Z" fill="#212121"/><path d="M12.65,21.24c.11-.13.33-.12.59.08s.33.42.14.64-.3.36-1-.12a1,1,0,0,1-.42-.82c0,.08.09.17.26.28A.35.35,0,0,0,12.65,21.24Z" fill="none"/><path d="M13.23,12.37a2.26,2.26,0,0,1,.06,2,1.19,1.19,0,0,0-.12-.64,2.66,2.66,0,0,0-.37-.48.37.37,0,0,1,.2-.07.45.45,0,0,1,.23.08,2.88,2.88,0,0,0-.6-1.14c-.46-.52-.85-.93-.85-.93A4,4,0,0,1,13.23,12.37Z" fill="none"/><path d="M.78,10.76A7,7,0,0,0,5.09,13.1,8.11,8.11,0,0,0,8.93,13a1.38,1.38,0,0,0,.86-1,.76.76,0,0,1,.18-.33A2.18,2.18,0,0,1,10,12a1.81,1.81,0,0,1-.27.59l.38-.24a5.17,5.17,0,0,1-.41.77,1.28,1.28,0,0,0-.24.88c0,.34.64.74.77.66s.42-.08.85.23a1.18,1.18,0,0,1,.47.81s.07.11.16.1a.42.42,0,0,0,.31-.28,2.22,2.22,0,0,0,.09-.8,1.44,1.44,0,0,0-.17-.66,1.63,1.63,0,0,1,.35.44,1.51,1.51,0,0,1,.06,1c-.16.67-.52.82-.52.82a1.15,1.15,0,0,0-.1-.26,1.18,1.18,0,0,0-.27-.2.28.28,0,0,0-.28,0,1,1,0,0,1-.61-.25,1,1,0,0,1-.33-.75s-.35.08-.21.75c.07.3.32.29.38.78s.54,1,.9,1.55a5.08,5.08,0,0,1,.21,2.17l.31-.48a2.8,2.8,0,0,1,.49-.52,7.17,7.17,0,0,0-.64,1.63c-.22.87-.66,1.56.09,2.69.59.88.87.79,1.31.4a3,3,0,0,1,2-.47V18.9a2.74,2.74,0,0,0-1.79.46,1.6,1.6,0,0,1,.45-.49A2.6,2.6,0,0,1,15,18.56V8.43a7.25,7.25,0,0,0-4.17,1,1.6,1.6,0,0,0-.42.44A7,7,0,0,0,8,10.23c-1.34.45-2.65,1.12-4.31.37S1.11,8.93,1.21,7.82a4.47,4.47,0,0,1,1.2-2.34c.18-.17.4-.36.34-.43a3.81,3.81,0,0,0-2,1.63C.12,7.71-.57,9.28.78,10.76ZM12.65,21.24c.11-.13.33-.12.59.08s.33.42.14.64-.3.36-1-.12a1,1,0,0,1-.42-.82c0,.08.09.17.26.28A.35.35,0,0,0,12.65,21.24Zm-.87-10a4,4,0,0,1,1.45,1.17,2.26,2.26,0,0,1,.06,2,1.19,1.19,0,0,0-.12-.64,2.66,2.66,0,0,0-.37-.48.37.37,0,0,1,.2-.07.45.45,0,0,1,.23.08,2.88,2.88,0,0,0-.6-1.14C12.17,11.61,11.78,11.2,11.78,11.2Z" fill="#212121"/><rect width="30" height="30" fill="none"/></svg>