<svg xmlns="http://www.w3.org/2000/svg" viewBox="0 0 30 30"><path d="M15.11,2.94a.11.11,0,0,1,.1-.09,11.74,11.74,0,0,1,2.9.23c1.69.33,2,.67,2,.78s-.42,1.31-.42,1.31A8.91,8.91,0,0,1,20.44,4a6.63,6.63,0,0,1,2.17.91A5,5,0,0,1,24.19,6.3a3.06,3.06,0,0,1-.27.61,3,3,0,0,1,.6-.36,6.6,6.6,0,0,1,1.9,1.77c.61.89,1.45,2.31,1.92,3a7.23,7.23,0,0,1,.9,2.78,18.82,18.82,0,0,1-2.51.79s2.49-.27,2.66-.22a4.31,4.31,0,0,1,.55,2.11c.06.92.14,1.48-.12,1.66s-1.33.13-4.21.13a38.15,38.15,0,0,1-4.68-.06,20.92,20.92,0,0,1-1.07-3.44c-.24-1.07-1.08-3.27-1.36-4.15s-.07-1.55-.36-2a2.56,2.56,0,0,0-1.95-1.22c-1,0-1.19.17-1.19.17V4.48Z" transform="translate(0)" fill="#212121"/><path d="M15,21.26c2.29,0,3.37-1.07,3.81-1.94a18.43,18.43,0,0,0,1-2.58c.12-.43.14-.33.41.69a29.86,29.86,0,0,1,.89,4.26c0,.78-.46.74-.48,1.53s-.08,1.14-.37,1-.35,1.12-.77,1.17-.85,1.42-1.3,1-.74.86-1.26.37-.61.46-1.21.46-.37-.49-.72-.49Z" transform="translate(0)" fill="#212121"/><path d="M15,16.51c.34,0,.78-.52,1-1s.3-.57.45-.43a.63.63,0,0,1,.17.26s-.21-.08-.14.08.26.48.26.48-.2-.14-.21,0a1.41,1.41,0,0,0,.14.44s-.19-.18-.22-.09a1.53,1.53,0,0,0,0,.46s-.13-.28-.18-.19,0,.3-.12.57a4.26,4.26,0,0,0-.28.81,2.62,2.62,0,0,0-.14-.76c-.1-.08-.32.87-.32.87s-.12-.43-.2-.44-.26.69-.26.69Z" transform="translate(0)" fill="#212121"/><path d="M15,16.27c.26,0,.53-.34.8-.92s.55-.57.84-1.22.61-.77.61-1.16-.31-.3-.55,0-.46.64-.71.64-.8-1.76-1-1.76Z" transform="translate(0)" fill="#212121"/><path d="M16.63,11.62c0,.2.09.23.3.23s.47-.18.47-.61-.09-.62-.15-.62-.1.34-.29.59S16.63,11.43,16.63,11.62Z" transform="translate(0)" fill="#212121"/><path d="M16.79,11a2.34,2.34,0,0,0,.43-.63c.1-.21.09-.06.12,0s.31,0,.33-.59-.08-.66-.22-.66-.18.65-.34,1S16.55,11.13,16.79,11Z" transform="translate(0)" fill="#212121"/><path d="M14.89,2.94a.11.11,0,0,0-.1-.09,11.74,11.74,0,0,0-2.9.23c-1.69.33-2,.67-2,.78s.42,1.31.42,1.31A8.91,8.91,0,0,0,9.56,4a6.63,6.63,0,0,0-2.17.91A5,5,0,0,0,5.81,6.3a3.06,3.06,0,0,0,.27.61,3,3,0,0,0-.6-.36,6.6,6.6,0,0,0-1.9,1.77c-.61.89-1.45,2.31-1.92,3a7.23,7.23,0,0,0-.9,2.78,18.82,18.82,0,0,0,2.51.79S.78,14.61.61,14.66a4.31,4.31,0,0,0-.55,2.11c-.06.92-.14,1.48.12,1.66s1.33.13,4.21.13a38.15,38.15,0,0,0,4.68-.06,20.92,20.92,0,0,0,1.07-3.44c.24-1.07,1.08-3.27,1.36-4.15s.07-1.55.36-2a2.56,2.56,0,0,1,2-1.22c1,0,1.19.17,1.19.17V4.48Z" transform="translate(0)" fill="#212121"/><path d="M15,21.26c-2.29,0-3.37-1.07-3.81-1.94a18.43,18.43,0,0,1-1-2.58c-.12-.43-.14-.33-.41.69a29.86,29.86,0,0,0-.89,4.26c0,.78.46.74.48,1.53s.08,1.14.37,1,.35,1.12.77,1.17.85,1.42,1.3,1,.74.86,1.26.37.61.46,1.21.46.37-.49.72-.49Z" transform="translate(0)" fill="#212121"/><path d="M15,16.51c-.34,0-.78-.52-1-1s-.3-.57-.45-.43a.63.63,0,0,0-.17.26s.21-.08.14.08-.26.48-.26.48.2-.14.21,0a1.41,1.41,0,0,1-.14.44s.19-.18.22-.09a1.53,1.53,0,0,1,0,.46s.13-.28.18-.19,0,.3.12.57a4.26,4.26,0,0,1,.28.81,2.62,2.62,0,0,1,.14-.76c.1-.08.32.87.32.87s.12-.43.2-.44.26.69.26.69Z" transform="translate(0)" fill="#212121"/><path d="M15,16.27c-.26,0-.53-.34-.8-.92s-.55-.57-.84-1.22-.61-.77-.61-1.16.31-.3.55,0,.46.64.71.64.8-1.76,1-1.76Z" transform="translate(0)" fill="#212121"/><path d="M13.37,11.62c0,.2-.09.23-.3.23s-.47-.18-.47-.61.09-.62.15-.62.1.34.29.59S13.37,11.43,13.37,11.62Z" transform="translate(0)" fill="#212121"/><path d="M13.21,11a2.34,2.34,0,0,1-.43-.63c-.1-.21-.09-.06-.12,0s-.31,0-.33-.59.08-.66.22-.66.18.65.34,1S13.45,11.13,13.21,11Z" transform="translate(0)" fill="#212121"/><rect width="30" height="30" fill="none"/></svg>