<!-- Copyright (c) 2022 - 2023 Jan Stehno -->
<svg xmlns="http://www.w3.org/2000/svg" viewBox="0 0 300 300"><title>westerncapercaillie</title><g id="westerncapercaillie"><g id="right"><path d="M151.14,29.36a1,1,0,0,1,.92-.9,120,120,0,0,1,29.08,2.3c16.85,3.39,20.31,6.7,20.31,7.82s-4.22,13.09-4.22,13.09,6.06-11.69,7.15-12,12.94,3.38,21.74,9.1S242,61.6,241.87,63s-2.63,6.13-2.63,6.13,4.78-3.53,5.94-3.57,13,8.76,19.07,17.64,14.44,23.09,19.18,29.93,9.93,26.25,8.95,27.83-25.05,7.82-25.05,7.82,24.82-2.71,26.58-2.15,5,11.78,5.54,21,1.35,14.82-1.28,16.62-13.24,1.36-42,1.36-45.28.52-46.79-.61-8.35-23.76-10.75-34.44-10.76-32.65-13.54-41.45-.75-15.49-3.61-19.63-9.7-12.22-19.56-12.22S150,79,150,79V44.83Z" transform="translate(0)" fill="#212121"/><path d="M150,212.59c22.9,0,33.7-10.67,38.11-19.39a181.31,181.31,0,0,0,10-25.83c1.2-4.26,1.38-3.25,4.09,7s9,34.83,9,42.58-4.63,7.37-4.85,15.3-.83,11.36-3.73,9.7-3.46,11.21-7.63,11.66-8.5,14.22-13,9.82-7.45,8.57-12.6,3.72-6.17,4.55-12.15,4.55-3.64-4.89-7.18-4.89Z" transform="translate(0)" fill="#212121"/><path d="M150,165.13c3.38,0,7.78-5.26,10.15-9.7s3-5.76,4.52-4.33a5.68,5.68,0,0,1,1.69,2.56s-2.11-.71-1.35.87,2.59,4.73,2.59,4.73-2-1.39-2.11-.07,1.4,4.36,1.4,4.36-1.88-1.77-2.22-.86.3,4.58.3,4.58-1.24-2.78-1.77-1.84.36,2.93-1.18,5.66a40.84,40.84,0,0,0-2.84,8.12s-.46-6.92-1.4-7.65-3.21,8.71-3.21,8.71-1.19-4.23-2-4.33-2.58,6.83-2.58,6.83Z" transform="translate(0)" fill="#212121"/><path d="M150,162.72c2.63,0,5.34-3.46,8-9.21s5.53-5.72,8.46-12.18,6.06-7.75,6.06-11.66-3.08-3-5.53,0-4.51,6.47-7,6.47-8-17.68-9.93-17.68Z" transform="translate(0)" fill="#212121"/><path d="M166.28,116.2c0,2,.91,2.26,3,2.26s4.74-1.77,4.74-6-.92-6.17-1.52-6.17-1,3.35-2.86,5.85S166.28,114.31,166.28,116.2Z" transform="translate(0)" fill="#212121"/><path d="M167.88,110.07c.85-.44,3.42-4.17,4.36-6.28s.87-.62,1.21.44,3-.13,3.23-5.89-.77-6.64-2.14-6.64-1.88,6.47-3.46,10.18S165.46,111.33,167.88,110.07Z" transform="translate(0)" fill="#212121"/></g><g id="left"><path d="M148.86,29.36a1,1,0,0,0-.92-.9,120,120,0,0,0-29.08,2.3c-16.85,3.39-20.31,6.7-20.31,7.82s4.22,13.09,4.22,13.09-6.06-11.69-7.15-12S82.68,43,73.88,48.74,58,61.6,58.13,63s2.63,6.13,2.63,6.13S56,65.59,54.82,65.55s-13,8.76-19.07,17.64-14.44,23.09-19.18,29.93S6.64,139.37,7.62,141s25.05,7.82,25.05,7.82-24.82-2.71-26.58-2.15-5,11.78-5.54,21S-.8,182.47,1.83,184.27s13.24,1.36,42,1.36,45.28.52,46.79-.61,8.35-23.76,10.75-34.44,10.76-32.65,13.54-41.45.75-15.49,3.61-19.63,9.7-12.22,19.56-12.22S150,79,150,79V44.83Z" transform="translate(0)" fill="#212121"/><path d="M150,212.59c-22.9,0-33.7-10.67-38.11-19.39a181.31,181.31,0,0,1-10-25.83c-1.2-4.26-1.38-3.25-4.09,7s-9,34.83-9,42.58,4.63,7.37,4.85,15.3.83,11.36,3.73,9.7,3.46,11.21,7.63,11.66,8.5,14.22,13,9.82,7.45,8.57,12.6,3.72,6.17,4.55,12.15,4.55,3.64-4.89,7.18-4.89Z" transform="translate(0)" fill="#212121"/><path d="M150,165.13c-3.38,0-7.78-5.26-10.15-9.7s-3-5.76-4.52-4.33a5.68,5.68,0,0,0-1.69,2.56s2.11-.71,1.35.87-2.59,4.73-2.59,4.73,2-1.39,2.11-.07-1.4,4.36-1.4,4.36,1.88-1.77,2.22-.86-.3,4.58-.3,4.58,1.24-2.78,1.77-1.84-.36,2.93,1.18,5.66a40.84,40.84,0,0,1,2.84,8.12s.46-6.92,1.4-7.65,3.21,8.71,3.21,8.71,1.19-4.23,2-4.33,2.58,6.83,2.58,6.83Z" transform="translate(0)" fill="#212121"/><path d="M150,162.72c-2.63,0-5.34-3.46-8-9.21s-5.53-5.72-8.46-12.18-6.06-7.75-6.06-11.66,3.08-3,5.53,0,4.51,6.47,7,6.47,8-17.68,9.93-17.68Z" transform="translate(0)" fill="#212121"/><path d="M133.72,116.2c0,2-.91,2.26-3,2.26s-4.74-1.77-4.74-6,.92-6.17,1.52-6.17,1,3.35,2.86,5.85S133.72,114.31,133.72,116.2Z" transform="translate(0)" fill="#212121"/><path d="M132.12,110.07c-.85-.44-3.42-4.17-4.36-6.28s-.87-.62-1.21.44-3-.13-3.23-5.89.77-6.64,2.14-6.64,1.88,6.47,3.46,10.18S134.54,111.33,132.12,110.07Z" transform="translate(0)" fill="#212121"/></g></g><g id="frame"><rect width="300" height="300" fill="none"/></g></svg>