<svg xmlns="http://www.w3.org/2000/svg" viewBox="0 0 30 30"><path d="M19.55,17.87c-.11,0-.19.08-.26.19a.77.77,0,0,1,.4.59c.08.37,0,.7-.21.75s-.3-.11-.4-.32c0,.38.07.7.34.7s.61-.3.61-.75S19.76,17.87,19.55,17.87Z" transform="translate(0)" fill="#212121"/><path d="M21.24,21.94c.35.2.07.32.49,1a2,2,0,0,0,1.12,1c.55.28.59.59.59.69s-.36,0-.36.3A8.93,8.93,0,0,1,23.27,26c0,.45,0,.4-.21.1s-.29-.54-.44-.16-.35.81-.43,1-.24-.29-.4.11-.28.38-.42.63a3.47,3.47,0,0,0-.3.91c-.06.33-.09.19-.23,0s-.2-.44-.38,0a1.52,1.52,0,0,1-1,.67.83.83,0,0,1-.47-.25c-.1-.1-.2.07-.46.41S18,30,17.78,30s-.33-.45-.38-.7-.18-.09-.51.16-.33.3-.71.3-.3-.31-.6-.31-.51.35-.58.35V28.53a1.5,1.5,0,0,1,.48-.18c.2,0,.3.24.41.24s.19-.23.35-.23.21.2.39.2,0-.2.36-.2.72.18.47-.07.06-.16.42,0,.66.32.66.13-.14-.27-.21-.47,0-.11.18-.06.26-.05.07-.15-.06-.14.35,0,.46.09.27-.15-.11-.29.2-.36-.31-.42.31-.3.59,0,.41-.14,0-.3.48-.39.66-.11.39-.28.55-.39.73-.51-.24-.19,0-.37-.62-.12-.21-.45-.21-.5-.36-.59,0-.13.17-.3-.2-.25-.2-.47.21-.17.21-.44S20.81,21.69,21.24,21.94Z" transform="translate(0)" fill="#212121"/><path d="M25.56,1.37c.19-.11.23-.12-.33-.37s-.58-.17-.58-.49-.31-.26-.4-.18-.14,0-.05-.22S23.46,0,22.69.6a28.35,28.35,0,0,0-4.48,5.45,12,12,0,0,0-2,4.66,12.94,12.94,0,0,0,0,1.92c-.11.18-.42-.07-1.18-.07v2a2.74,2.74,0,0,0,.7.35c.34.08-.13.2.06.33s.26.28-.14.28-.52.06-.62.25v2.65a1.85,1.85,0,0,0,.71.34c.25,0,.23-.13.34,0a6.87,6.87,0,0,0,.9,1.14c.12,0,.08-.12.21-.12s.24.19.24.34-.2.19-.41.19-.78-.73-1-1.08-.24-.18-.51-.18a.92.92,0,0,1-.52-.22v2.8l1.36.79L15,22s-.34,3.67,0,3.67a4.17,4.17,0,0,0,1.71-1c.32-.34.2.11.17.42s-.19.5-.89.86-.68.47-.68,1.18.11.91.41.91.82-.16,1.32-.16.56-.16.88-.45.64-.16.64-.33-.06-.41.21-.41.32,0,.61-.35.15-.44.36-.44.36,0,.68-.39.49-.3.49-.52.29,0,.18-.17a1.84,1.84,0,0,0-.46-.36c-.15-.1-.16-.18-.07-.22s.17-.07-.12-.23-.33-.54-.11-.38.24.13.23,0,0-.6.09-.49.23.11.21,0a1.74,1.74,0,0,0-.32-.45c-.23-.28-.33-.51-.09-.33s.2.07,0-.19-.21-.46-.07-.3.18.15.2-.44-.3-.93-1-1.14-.73-.2-.73-1.38.57-1.7.76-1.7.26.07.26-.17A2.89,2.89,0,0,0,19.54,16a2.18,2.18,0,0,0-.94-.66c-.42-.14-.48-.13-.88.18s-.34.14-.2,0,.17-.27-.25-.22-.37,0-.17-.24.85-.16,1.47.08.87.77,1.14.77.32-.18.13-.31-.15-.18.16-.24.42,0,.24-.16-.25-.12,0-.29.2-.33-.05-.26-.25-.67.45-1.08,2.53-.47,3.26-1.22.83-1.32.83-2.78a18.55,18.55,0,0,1,.49-3.65c.19-1.06-.2-1.14,0-1.63a5.74,5.74,0,0,0,.43-1.87C25.64,1.84,25.38,1.48,25.56,1.37ZM17.51,22c.18.26.34.34.43.6s.26.34.26.63.27.43.27.59-.22.12.1.41.43.31.55.18a.26.26,0,0,1,.33-.09c.35.11.15.06,0,.22s-.21.29,0,.26.23,0-.06.3-.33.34-.38.55-.08.12-.16-.13-.33-.1-.33-.54,0-.44-.17-.69-.25-.17-.52-.3-.25-.3-.7-.3-.25-.07.12-.19a.48.48,0,0,1,.57.09c.13.06.13,0,.06-.21s.08-.35-.21-.68a1,1,0,0,1-.35-.72C17.31,21.64,17.33,21.7,17.51,22ZM25.05,2.87c-.15.87-.48,1.46-.48,1.7s.28.4.28.89a32.12,32.12,0,0,0-.75,3.45c0,1.08.26,1.79-.15,2.41s-.61.84-1.32.94-.64.53-1.15.53a1.79,1.79,0,0,0-1.36.66c-.31.34-.24.07-.12-.36s-.32,0-.14-.22.31-.2.31-.51.55-.69.9-1-.19-.06-.32-.2.17-.66-.11-.66,0-.18.38-.36.47-.44.06-.56-.5,0-.23-.4.69-.95.55-1-.49-.11-.12-.65.44-.64.2-.59-.08-.19.34-.47.47-.47,0-.42-.55,0-.32-.28.4-.45,0-.38-.14-.13.28-.48-.41-.29-.19-.51.26-.39.52-.93-.35-.09-.13-.31a4.18,4.18,0,0,0,.76-1.09c.29-.56.33-.64-.17-.27s-.46.24-.24-.05.33-.58.79-.61.53-.49.66-.49.49.25.26.51-.3.29.09.18.66-.21.81-.07S25.19,2,25.05,2.87Z" transform="translate(0)" fill="#212121"/><path d="M10.45,17.87c.11,0,.19.08.26.19a.77.77,0,0,0-.4.59c-.08.37,0,.7.21.75s.3-.11.4-.32c0,.38-.07.7-.34.7-.42,0-.61-.3-.61-.75S10.24,17.87,10.45,17.87Z" transform="translate(0)" fill="#212121"/><path d="M8.76,21.94c-.35.2-.07.32-.49,1a2,2,0,0,1-1.12,1c-.55.28-.59.59-.59.69s.36,0,.36.3A8.93,8.93,0,0,0,6.73,26c0,.45,0,.4.21.1s.29-.54.44-.16.35.81.43,1,.24-.29.4.11.28.38.42.63a3.47,3.47,0,0,1,.3.91c.06.33.09.19.23,0s.2-.44.38,0a1.52,1.52,0,0,0,1,.67.83.83,0,0,0,.47-.25c.1-.1.2.07.46.41s.52.65.71.65.33-.45.38-.7.18-.09.51.16.33.3.71.3.3-.31.6-.31.51.35.58.35V28.53a1.5,1.5,0,0,0-.48-.18c-.2,0-.3.24-.41.24s-.19-.23-.35-.23-.21.2-.39.2,0-.2-.36-.2-.72.18-.47-.07-.06-.16-.42,0-.66.32-.66.13.14-.27.21-.47,0-.11-.18-.06-.26-.05-.07-.15.06-.14-.35,0-.46.09-.27-.15.11-.29-.2-.36.31-.42-.31-.3-.59,0-.41-.14,0-.3-.48-.39-.66-.11-.39-.28-.55-.39-.73-.51.24-.19,0-.37.62-.12.21-.45.21-.5.36-.59,0-.13-.17-.3.2-.25.2-.47-.21-.17-.21-.44S9.19,21.69,8.76,21.94Z" transform="translate(0)" fill="#212121"/><path d="M4.36,2.41a5.74,5.74,0,0,0,.43,1.87c.2.49-.19.57,0,1.63a18.55,18.55,0,0,1,.49,3.65c0,1.46.09,2,.83,2.78s2.55.82,3.26,1.22.7,1.16.45,1.08-.3.09-.05.26.16.19,0,.29-.07.1.24.16.35.12.16.24-.15.31.13.31.51-.53,1.14-.77,1.27-.28,1.47-.08.25.28-.17.24-.4,0-.25.22.2.34-.2,0-.46-.32-.88-.18a2.18,2.18,0,0,0-.94.66,2.89,2.89,0,0,0-.34,1.08c0,.24.08.17.26.17s.76.53.76,1.7,0,1.16-.73,1.38-1,.55-1,1.14.07.59.2.44.13,0-.07.3-.22.37,0,.19.14.05-.09.33a1.74,1.74,0,0,0-.32.45c0,.07.09.08.21,0s.11.35.09.49,0,.19.23,0,.18.22-.11.38-.22.19-.12.23.08.12-.07.22a1.84,1.84,0,0,0-.46.36c-.11.15.18-.05.18.17s.17.13.49.52.46.39.68.39.07.11.36.44.33.35.61.35.21.25.21.41.32,0,.64.33.38.45.88.45,1,.16,1.32.16.41-.2.41-.91,0-.81-.68-1.18-.86-.56-.89-.86-.15-.76.17-.42a4.17,4.17,0,0,0,1.71,1c.34,0,0-3.67,0-3.67l-1.36.43L15,21.65v-2.8a.92.92,0,0,1-.52.22c-.27,0-.33-.16-.51.18s-.75,1.08-1,1.08-.41,0-.41-.19.1-.34.24-.34.09.12.21.12a6.87,6.87,0,0,0,.9-1.14c.11-.13.09,0,.34,0a1.85,1.85,0,0,0,.71-.34V15.79c-.1-.19-.23-.25-.62-.25s-.32-.15-.14-.28-.28-.25.06-.33a2.74,2.74,0,0,0,.7-.35v-2c-.76,0-1.07.25-1.18.07a12.94,12.94,0,0,0,0-1.92,12,12,0,0,0-2-4.66A28.35,28.35,0,0,0,7.31.6C6.54,0,5.71-.1,5.8.11s.07.33,0,.22-.4-.14-.4.18,0,.24-.58.49-.52.26-.33.37S4.36,1.84,4.36,2.41Zm8.3,19.53a1,1,0,0,1-.35.72c-.29.33-.14.45-.21.68s-.07.27.06.21a.48.48,0,0,1,.57-.09c.37.12.57.19.12.19s-.43.18-.7.3-.35.05-.52.3-.17.26-.17.69-.26.29-.33.54-.11.34-.16.13-.09-.29-.38-.55-.29-.32-.06-.3.17-.1,0-.26-.35-.11,0-.22a.26.26,0,0,1,.33.09c.12.13.22.11.55-.18s.1-.25.1-.41.27-.3.27-.59.17-.37.26-.63.25-.34.43-.6S12.69,21.64,12.66,21.94ZM5,1.25c.15-.14.41,0,.81.07s.31.07.09-.18S6,.63,6.16.63s.2.46.66.49.57.32.79.61.26.42-.24.05-.46-.29-.17.27A4.18,4.18,0,0,0,8,3.14c.22.22-.38-.23-.13.31s.29.71.52.93-.61.16-.19.51.67.55.28.48-.2.06,0,.38.11.33-.32.28-.37.15,0,.42.57.52.34.47-.17,0,.2.59,0,.59-.12.65.27.64.55,1,.17.27-.23.4-.35.38.06.56.66.35.38.36,0,.53-.11.66-.67-.12-.32.2.9.71.9,1,.13.28.31.51-.26-.2-.14.22.19.7-.12.36a1.79,1.79,0,0,0-1.36-.66c-.51,0-.43-.44-1.15-.53s-.91-.32-1.32-.94S5.9,10,5.9,8.91a32.12,32.12,0,0,0-.75-3.45c0-.49.28-.65.28-.89S5.1,3.74,5,2.87,4.85,1.4,5,1.25Z" transform="translate(0)" fill="#212121"/><rect width="30" height="30" fill="none"/></svg>