<!-- Copyright (c) 2022 - 2023 Jan Stehno -->
<svg xmlns="http://www.w3.org/2000/svg" viewBox="0 0 300 300"><title>whitetailedjackrabbit</title><g id="whitetailedjackrabbit"><g id="right"><path d="M195.48,178.73a3.12,3.12,0,0,0-2.54,1.83c1.63.5,3.25,2.85,3.91,5.91.8,3.72-.12,7.08-2.06,7.49-1.4.3-2.95-1-4-3.19-.08,3.85.74,7,3.41,7,4.16,0,6.1-3,6.1-7.55S197.56,178.73,195.48,178.73Z" transform="translate(0)" fill="#212121"/><path d="M212.41,219.36c3.47,2,.69,3.26,4.89,10.08s5.72,7.05,11.22,9.93,5.87,5.91,5.87,6.89-3.63.27-3.63,3,2,6,1.93,10.53-.34,4-2.12,1-2.88-5.39-4.4-1.63-3.49,8.14-4.28,10.19-2.43-2.88-4,1.14-2.84,3.82-4.17,6.33a33.73,33.73,0,0,0-3,9.09c-.61,3.22-.87,1.9-2.31-.42s-2-4.47-3.79-.34-8.6,6.75-10.42,6.75-3.68-1.67-4.66-2.58-2.05.8-4.63,4.17-5.19,6.48-7.12,6.48-3.26-4.55-3.83-7-1.78-.87-5,1.59-3.37,3-7.16,3-3-3-6-3-5,3.41-5.76,3.41V285.33c.42,0,2.84-1.85,4.81-1.85s3,2.46,4.1,2.46,1.93-2.35,3.44-2.35,2.16,2.05,3.91,2.05-.08-2.05,3.64-2.05,7.23,1.78,4.69-.64.57-1.67,4.17,0,6.63,3.18,6.63,1.33-1.36-2.73-2.12-4.7-.11-1.18,1.86-.69,2.61-.45.68-1.47-.57-1.33,3.45-.46,4.61.87,2.72-1.55-1-2.84,2.05-3.56-3.18-4.21,3-3,5.91,0,4.09-1.4.23-3,4.85-3.9,6.63-1.1,3.9-2.77,5.54-3.94,7.24-5.08-2.39-1.89-.3-3.75-6.29-1.13-2.12-4.51-2.16-5-3.6-5.83.19-1.33,1.7-3-2.05-2.57-2.05-4.73,2.13-1.71,2.13-4.36S208.09,216.86,212.41,219.36Z" transform="translate(0)" fill="#212121"/><path d="M255.63,13.68c1.84-1.1,2.28-1.14-3.35-3.64s-5.74-1.78-5.74-4.94-3.11-2.62-4-1.78c-1.19,1.09-1.46,0-.53-2.18S234.58-.47,226.85,6s-30.16,30.62-44.71,54.42S163.72,95,161.82,107.07s1.12,17.38,0,19.2-4.2-.7-11.82-.7v20.18a25.44,25.44,0,0,0,7,3.54c3.34.86-1.31,2,.56,3.28s2.58,2.83-1.37,2.83S151,156,150,157.88v26.48s4.65,3.48,7.12,3.48,2.33-1.36,3.34,0,7.88,11.32,9,11.32.76-1.11,2.13-1.11,2.32,1.87,2.32,3.38-1.92,1.87-4,1.87-7.78-7.27-9.6-10.76-2.43-1.82-5.11-1.82-5.2-2.22-5.2-2.22v28l13.59,7.83L150,220.08s-3.36,36.71,0,36.71,14-6.21,17.13-9.62,2,1.14,1.67,4.21-1.92,5-9,8.67-6.72,4.69-6.72,11.77,1.08,9.12,4.07,9.12,8.19-1.69,13.17-1.69,5.63-1.59,8.85-4.49,6.38-1.59,6.38-3.22-.64-4.11,2.11-4.11,3.16-.25,6.08-3.53,1.5-4.39,3.66-4.39,3.5-.08,6.72-3.92,4.91-3,4.91-5.2,3-.22,1.86-1.66a18.46,18.46,0,0,0-4.63-3.64c-1.55-1-1.65-1.84-.7-2.22s1.69-.66-1.23-2.29-3.24-5.42-1.08-3.73,2.39,1.25,2.26-.21-.19-6.08,1-4.89,2.26,1,2,.4-.78-1.82-3.15-4.59-3.31-5.09-.94-3.29,2,.77.07-1.86-2.05-4.57-.68-3,1.84,1.55,2.06-4.36-3-9.32-10.08-11.44-7.27-2-7.27-13.72,5.76-17.06,7.58-17.06,2.65.69,2.65-1.66-1.93-8.76-3.37-10.8a21.11,21.11,0,0,0-9.4-6.6c-4.21-1.44-4.81-1.32-8.83,1.75s-3.45,1.47-2-.38,1.63-2.66-2.58-2.24-3.66-.4-1.67-2.39,8.49-1.55,14.75.84,8.64,7.65,11.4,7.65,3.19-1.78,1.29-3-1.52-1.86,1.59-2.42,4.17-.5,2.43-1.56-2.54-1.29-.12-2.95,2-3.32-.55-2.54-2.52-6.79,4.53-10.8,25.24-4.7,32.59-12.21,8.34-13.26,8.34-27.89,3-25.84,4.85-36.45-2-11.45,0-16.3,4.32-13,4.32-18.72S253.8,14.78,255.63,13.68ZM175.12,219.62c1.82,2.62,3.38,3.38,4.29,6S182,229,182,231.9s2.73,4.28,2.73,5.91-2.2,1.18,1,4.1,4.28,3.1,5.49,1.82,1.9-1.35,3.26-.91c3.51,1.11,1.52.6,0,2.19s-2.08,2.88.23,2.62,2.27.34-.61,3-3.33,3.41-3.83,5.54-.79,1.21-1.55-1.29-3.34-1.06-3.34-5.38-.07-4.47-1.74-7-2.5-1.7-5.19-2.95-2.5-3-7-3-2.5-.72,1.25-1.94,4.43.23,5.68.91,1.29.16.61-2.08.79-3.49-2.12-6.78-3.23-4.1-3.53-7.17S173.31,217,175.12,219.62ZM250.46,28.67c-1.48,8.75-4.74,14.59-4.74,17s2.81,4,2.81,8.87S241,78.27,241,89.11s2.61,17.93-1.52,24.1-6.06,8.42-13.23,9.36-6.4,5.35-11.48,5.35-9.44,2.08-13.57,6.55c-3.14,3.41-2.46.72-1.25-3.52s-3.18.07-1.36-2.24,3-2,3-5.11,5.57-6.9,9.06-10.16-1.9-.68-3.22-2,1.7-6.59-1.1-6.67-.38-1.78,3.79-3.56,4.7-4.43.64-5.65-5-.3-2.27-3.94,6.86-9.51,5.46-10-4.89-1-1.22-6.52,4.4-6.36,2.05-5.87-.8-1.9,3.33-4.66,4.74-4.74.42-4.25-5.49.53-3.22-2.73,4-4.51.19-3.82-1.33-1.29,2.84-4.82-4.09-2.88-1.86-5.11,2.54-3.87,5.12-9.29-3.49-.87-1.25-3.1A41.86,41.86,0,0,0,228,20.48c2.88-5.57,3.33-6.36-1.69-2.69s-4.64,2.39-2.44-.49,3.3-5.84,7.92-6.14,5.34-4.81,6.67-4.81,4.85,2.5,2.58,5-3.07,2.91.9,1.82,6.62-2.15,8.08-.69S251.94,19.91,250.46,28.67Z" transform="translate(0)" fill="#212121"/></g><g id="left"><path d="M104.52,178.73a3.12,3.12,0,0,1,2.54,1.83c-1.63.5-3.25,2.85-3.91,5.91-.8,3.72.12,7.08,2.06,7.49,1.4.3,3-1,4-3.19.08,3.85-.74,7-3.41,7-4.16,0-6.1-3-6.1-7.55S102.44,178.73,104.52,178.73Z" transform="translate(0)" fill="#212121"/><path d="M87.59,219.36c-3.47,2-.69,3.26-4.89,10.08s-5.72,7.05-11.22,9.93-5.87,5.91-5.87,6.89,3.63.27,3.63,3-2,6-1.93,10.53.34,4,2.12,1,2.88-5.39,4.4-1.63,3.49,8.14,4.28,10.19,2.43-2.88,4,1.14,2.84,3.82,4.17,6.33a33.73,33.73,0,0,1,3,9.09c.61,3.22.87,1.9,2.31-.42s2-4.47,3.79-.34,8.6,6.75,10.42,6.75,3.68-1.67,4.66-2.58,2,.8,4.63,4.17,5.19,6.48,7.12,6.48,3.26-4.55,3.83-7,1.78-.87,5,1.59,3.37,3,7.16,3,3-3,6-3,5,3.41,5.76,3.41V285.33c-.42,0-2.84-1.85-4.81-1.85s-3,2.46-4.1,2.46-1.93-2.35-3.44-2.35-2.16,2.05-3.91,2.05.08-2.05-3.64-2.05-7.23,1.78-4.69-.64-.57-1.67-4.17,0-6.63,3.18-6.63,1.33,1.36-2.73,2.12-4.7.11-1.18-1.86-.69-2.61-.45-.68-1.47.57-1.33-3.45-.46-4.61.87-2.72-1.55,1-2.84-2-3.56,3.18-4.21-3-3-5.91,0-4.09-1.4-.23-3-4.85-3.9-6.63-1.1-3.9-2.77-5.54-3.94-7.24-5.08,2.39-1.89.3-3.75,6.29-1.13,2.12-4.51,2.16-5,3.6-5.83-.19-1.33-1.7-3,2-2.57,2-4.73-2.13-1.71-2.13-4.36S91.91,216.86,87.59,219.36Z" transform="translate(0)" fill="#212121"/><path d="M43.59,24.08c0,5.69,2.35,13.87,4.32,18.72s-1.9,5.69,0,16.3,4.85,21.83,4.85,36.45,1,20.39,8.34,27.89,25.54,8.19,32.59,12.21,7,11.57,4.53,10.8-3,.87-.55,2.54,1.63,1.89-.12,2.95-.68,1,2.43,1.56,3.48,1.17,1.59,2.42-1.48,3,1.29,3,5.15-5.26,11.4-7.65,12.76-2.83,14.75-.84,2.53,2.81-1.67,2.39-4.06.38-2.58,2.24,2,3.45-2,.38-4.62-3.19-8.83-1.75a21.11,21.11,0,0,0-9.4,6.6c-1.44,2-3.37,8.45-3.37,10.8s.83,1.66,2.65,1.66,7.58,5.31,7.58,17.06-.23,11.59-7.27,13.72S93.84,209.09,94.07,215s.7,5.87,2.06,4.36,1.27.41-.68,3-2.29,3.66.07,1.86,1.43.53-.94,3.29-2.92,3.94-3.15,4.59.85.79,2-.4,1.12,3.43,1,4.89.1,1.89,2.26.21,1.84,2.1-1.08,3.73-2.18,1.91-1.23,2.29.85,1.22-.7,2.22a18.46,18.46,0,0,0-4.63,3.64c-1.1,1.44,1.86-.57,1.86,1.66s1.69,1.35,4.91,5.2,4.56,3.92,6.72,3.92.74,1.12,3.66,4.39,3.34,3.53,6.08,3.53,2.11,2.48,2.11,4.11,3.16.32,6.38,3.22,3.87,4.49,8.85,4.49,10.18,1.69,13.17,1.69,4.07-2.05,4.07-9.12.3-8.09-6.72-11.77-8.61-5.6-9-8.67-1.47-7.62,1.67-4.21,13.77,9.62,17.13,9.62,0-36.71,0-36.71l-13.59,4.29L150,216.54v-28s-2.53,2.22-5.2,2.22-3.29-1.67-5.11,1.82-7.48,10.76-9.6,10.76-4-.35-4-1.87,1-3.38,2.32-3.38,1,1.11,2.13,1.11,8-9.95,9-11.32.86,0,3.34,0,7.12-3.48,7.12-3.48V157.88c-1-1.87-2.27-2.48-6.21-2.48s-3.24-1.51-1.37-2.83-2.78-2.42.56-3.28a25.44,25.44,0,0,0,7-3.54V125.57c-7.62,0-10.71,2.52-11.82.7s1.89-7.15,0-19.2-5.76-22.81-20.32-46.61S80.88,12.56,73.15,6,57.08-1,58,1.14s.66,3.27-.53,2.18c-.91-.84-4-1.39-4,1.78S53.35,7.54,47.72,10s-5.19,2.54-3.35,3.64S43.59,18.4,43.59,24.08Zm83,195.35c-.3,3.07-.61,3.87-3.53,7.17s-1.44,4.54-2.12,6.78-.64,2.77.61,2.08,1.93-2.12,5.68-.91,5.72,1.94,1.25,1.94-4.28,1.78-7,3-3.52.45-5.19,2.95-1.74,2.66-1.74,7-2.58,2.88-3.34,5.38-1.06,3.41-1.55,1.29-1-2.92-3.83-5.54-2.92-3.22-.61-3,1.75-1,.23-2.62-3.51-1.08,0-2.19c1.36-.44,2-.38,3.26.91s2.27,1.09,5.49-1.82,1-2.47,1-4.1,2.73-3,2.73-5.91,1.66-3.67,2.57-6.29,2.47-3.37,4.29-6S126.92,216.36,126.62,219.43ZM50,12.52c1.46-1.46,4.1-.41,8.08.69s3.18.72.9-1.82,1.26-5,2.58-5,2.05,4.51,6.67,4.81,5.72,3.26,7.92,6.14,2.59,4.17-2.44.49S69.13,14.91,72,20.48A41.86,41.86,0,0,0,79.59,31.4c2.24,2.23-3.83-2.32-1.25,3.1s2.88,7,5.12,9.29-6,1.59-1.86,5.11,6.71,5.5,2.84,4.82-2.08.56.19,3.82,1.1,3.22-3.22,2.73-3.71,1.48.42,4.25,5.68,5.15,3.33,4.66-1.63.38,2,5.87.19,6-1.22,6.52,2.69,6.4,5.46,10,1.78,2.73-2.27,3.94-3.53,3.87.64,5.65,6.6,3.49,3.79,3.56.23,5.35-1.1,6.67-6.71-1.25-3.22,2,9.06,7,9.06,10.16,1.21,2.8,3,5.11-2.58-2-1.36,2.24,1.89,6.93-1.25,3.52c-4.13-4.47-8.49-6.55-13.57-6.55s-4.32-4.4-11.48-5.35-9.1-3.18-13.23-9.36S59,100,59,89.11s-7.5-29.71-7.5-34.56,2.81-6.44,2.81-8.87-3.26-8.26-4.74-17S48.53,14,50,12.52Z" transform="translate(0)" fill="#212121"/></g></g><g id="frame"><rect width="300" height="300" fill="none"/></g></svg>