<svg xmlns="http://www.w3.org/2000/svg" viewBox="0 0 30 30"><path d="M6.52,12.84A5.5,5.5,0,0,0,7,14.5a4.51,4.51,0,0,0,.94,1.29,5.3,5.3,0,0,1,1.6.31,1.94,1.94,0,0,1,1.27,1,4.77,4.77,0,0,1,.44,1.22,3.83,3.83,0,0,1,.89-.21A1.39,1.39,0,0,1,13,19.38a1.91,1.91,0,0,1-.5,1.31c-.27.31-.39.49-.39.68s.41.61.41,1a4.62,4.62,0,0,0,0,1.14c.09.09.42,0,.56.13s.06.55.21.55.55-.42.68-.42.08.07.18.07.11-.1.34-.1.34.15.51.15v-.39c-.14,0-.35-.26-.48-.26s-.6,0-.71-.1-.46-.44-.46-.62.61-.87.83-.87.61.29.82.29V13.74a1.44,1.44,0,0,0-.8.27,1.56,1.56,0,0,0-.32.43s-.3-.37-.48-.37-.36.39-.75.39-.31.21-.57.21a5.63,5.63,0,0,1-2-1c-.92-.61-1.15-.85-1.46-.85A18.62,18.62,0,0,0,6.52,12.84Zm4.92,5.28a1,1,0,0,1,.2-.51,1,1,0,0,1,.62-.35.27.27,0,0,0,.25-.18l.35.17v-.2a.57.57,0,0,1,.28.32,1.27,1.27,0,0,1,.08.51.45.45,0,0,0,.08.3c0,.06.9,0,1.08.23a1,1,0,0,1,.2.66c0,.11-.11.17-.11.38s.21.4.21.61a3.55,3.55,0,0,1,0,.37.79.79,0,0,1-.4-.27,4.36,4.36,0,0,1-.22-.38l-.26.29,0-.34a1,1,0,0,0-.28.24c-.06.11-.22.29-.33.31a.62.62,0,0,1-.18,0,1.65,1.65,0,0,0,.29-.52c0-.2,0-.29.13-.37s.25,0,.32-.09,0-.29-.07-.36-.45-.32-.54-.53-.22-.29-.33-.3-.09-.22-.31-.25a1.88,1.88,0,0,0-.75,0A.9.9,0,0,0,11.44,18.12Zm-4.28-5a4,4,0,0,1,1.31.09c.31.17.18.39.49.41s.79.78,1.11.9a4.13,4.13,0,0,0,1,.16,5,5,0,0,1,0,1.09,4.19,4.19,0,0,1-1,.41c-.14,0,0-.34,0-.34a1.9,1.9,0,0,1-.63-.1,1.15,1.15,0,0,1-.36-.34.74.74,0,0,0,.3-.12.16.16,0,0,0,0-.17A4.09,4.09,0,0,1,8.84,15a2.09,2.09,0,0,1-.29-.15s.63,0,.72-.08.05-.43-.06-.48-.39-.14-.39-.22a1.65,1.65,0,0,1,.09-.32,2,2,0,0,0-.5.22l-.26.27a2.38,2.38,0,0,1,.06-.49,2.4,2.4,0,0,1,.18-.3,3.35,3.35,0,0,1-.32.17c-.12.06-.33.06-.32-.11a.26.26,0,0,0-.25-.29A.74.74,0,0,1,7.16,13.09Z" transform="translate(0)" fill="#212121"/><path d="M11.41,18.46a1,1,0,0,1,1,.25,1.06,1.06,0,0,1,.38.95c-.15.09-.72-.18-1-.37S11.32,18.53,11.41,18.46Z" transform="translate(0)" fill="#212121"/><path d="M14.7,25.26c-.16,0-.19,0-.19,0v.11s-.47-.41-.47-.64,0-.37.3-.44a3.36,3.36,0,0,1,.65-.08v1.2A1.63,1.63,0,0,0,14.7,25.26Z" transform="translate(0)" fill="#212121"/><path d="M14.62,23c-.1,0-.4-.59-.51-.59s-.3.21-.39.21-.17-.13-.06-.25S14,22,14.1,22s.68.31.68.43-.11.16-.11.28S14.71,23,14.62,23Z" transform="translate(0)" fill="#212121"/><path d="M6.67,5.44c.2.08.13.88,0,1.46A21,21,0,0,0,5.79,11c0,1.19.7.79.7.79S6,10.44,6,10.23a8.15,8.15,0,0,1,.27-1.46c.14-.58.19-.86.25-.38A15.66,15.66,0,0,0,6.77,10a.82.82,0,0,0,.33.48A7,7,0,0,1,7.24,9a3.63,3.63,0,0,0,.11-1.69,5.09,5.09,0,0,1-.19-1.76,3,3,0,0,1,.91-2.11c.33-.27.44-.3.09.49a3.92,3.92,0,0,0-.4,2c0,.81.37,1.08.37,1.49A11.29,11.29,0,0,0,8,9.07a3.65,3.65,0,0,0,.57,2.4c.4.41,2.09.88,2.54,1.23s1,.38,1,.08.24-.7.24-1.15-.12-.64-.12-1a3.07,3.07,0,0,1,.51-1.24,3.19,3.19,0,0,0,.44-.85c0-.16.31.09.31.33s-.66,1.29-.66,1.62.11.57.11,1.07-.19.87-.19,1.32.24.46.24.57-.6.7-.81.7-1.94-1.08-2.7-1.45-.91-.36-1.16-.36a12.89,12.89,0,0,1-1.9.17C5.2,12.55,5,12.27,5,11.36A26.93,26.93,0,0,1,6,6.49C6.32,5.74,6.47,5.36,6.67,5.44Z" transform="translate(0)" fill="#212121"/><path d="M6.08,2.33c.33-.55.49-1,.63-.52s-.37.74-.37,1.5-.27,1.74-.29,2.17,0,.57,0,.71-.25.75-.35,1.16a3.2,3.2,0,0,1-.27.93A2.57,2.57,0,0,1,5,7c0-.39.34-1.37.52-2.52A6,6,0,0,1,6.08,2.33Z" transform="translate(0)" fill="#212121"/><path d="M3.93,3.85c0-.31.24-.49.31-.41s0,.46.13,1A2.92,2.92,0,0,0,5.2,5.64c-.07.24-.22.9-.22.9a.81.81,0,0,1-.25-.19,10.46,10.46,0,0,1-.64-1.14A2.58,2.58,0,0,1,3.93,3.85Z" transform="translate(0)" fill="#212121"/><path d="M6.36,1.6l-.49.82A14.73,14.73,0,0,1,6.1.76C6.22.35,6.39,0,6.57,0s.18.23.18.44a2.6,2.6,0,0,1-.23.83C6.43,1.44,6.36,1.6,6.36,1.6Z" transform="translate(0)" fill="#212121"/><path d="M12.69,20.2c0-.16-.33-.6-.59-.6s-.65-.46-.65-.46a1.28,1.28,0,0,0-.09.4,3.88,3.88,0,0,1,.2,1.1,9.65,9.65,0,0,0,.1,1.22,2,2,0,0,1-.55.93l-.65.64.36-.09a4.53,4.53,0,0,0-.48.9,4,4,0,0,1-.19.81,3,3,0,0,0-.23.61l.24-.1a2.28,2.28,0,0,0-.23.83,4.17,4.17,0,0,1-.07.72s.45-.07.62.08a1,1,0,0,1,.18.53,1.74,1.74,0,0,1,.45-.06c.26,0,.21.31.54.66s.68.76,1.1.76.62.54.62.54C13.76,29.41,15,30,15,30V27.61a1.26,1.26,0,0,1-.43-.09,1.35,1.35,0,0,1-.29-.26v.28s-.36-.39-.5-.58a3.45,3.45,0,0,1-.27-.46l-.07.28a1.35,1.35,0,0,1-.21-.26,1.59,1.59,0,0,0-.2-.23l-.12.24a3.24,3.24,0,0,1-.2-.34,1.86,1.86,0,0,1-.12-.38l-.13.28a1.78,1.78,0,0,1-.37-.47,2,2,0,0,1-.07-.54l-.4.15a1.73,1.73,0,0,1-.06-.41,1.68,1.68,0,0,1,.17-.54l-.23,0A4.49,4.49,0,0,0,12,22.8c0-.57-.13-.79-.13-1.15a1.44,1.44,0,0,1,.35-.95C12.44,20.52,12.69,20.36,12.69,20.2Z" transform="translate(0)" fill="#212121"/><path d="M21.36,12.84c-.31,0-.54.24-1.46.85a5.63,5.63,0,0,1-2,1c-.26,0-.19-.21-.57-.21s-.56-.39-.75-.39-.48.37-.48.37A1.56,1.56,0,0,0,15.8,14a1.44,1.44,0,0,0-.8-.27V22c.21,0,.59-.29.82-.29s.83.7.83.87-.35.51-.46.62-.57.1-.71.1-.34.26-.48.26v.39c.17,0,.28-.15.51-.15s.23.1.34.1.05-.07.18-.07.53.42.68.42.07-.42.21-.55.47,0,.56-.13a4.62,4.62,0,0,0,0-1.14c0-.41.41-.83.41-1s-.12-.37-.39-.68a1.91,1.91,0,0,1-.5-1.31,1.39,1.39,0,0,1,.91-1.22,3.83,3.83,0,0,1,.89.21,4.77,4.77,0,0,1,.44-1.22,1.94,1.94,0,0,1,1.27-1,5.3,5.3,0,0,1,1.6-.31,4.51,4.51,0,0,0,.94-1.29,5.5,5.5,0,0,0,.43-1.66A18.62,18.62,0,0,0,21.36,12.84Zm-3.05,5a1.88,1.88,0,0,0-.75,0c-.22,0-.2.23-.31.25s-.24.09-.33.3-.47.46-.54.53-.13.29-.07.36.24,0,.32.09.09.17.13.37a1.65,1.65,0,0,0,.29.52.62.62,0,0,1-.18,0c-.11,0-.27-.2-.33-.31a1,1,0,0,0-.28-.24l-.05.34L16,19.78a4.36,4.36,0,0,1-.22.38.79.79,0,0,1-.4.27,3.55,3.55,0,0,1,0-.37c0-.21.21-.41.21-.61s-.11-.27-.11-.38a1,1,0,0,1,.2-.66c.18-.21,1-.17,1.08-.23a.45.45,0,0,0,.08-.3,1.27,1.27,0,0,1,.08-.51.57.57,0,0,1,.28-.32v.2l.35-.17a.27.27,0,0,0,.25.18,1,1,0,0,1,.62.35,1,1,0,0,1,.2.51A.9.9,0,0,0,18.31,17.87Zm4.19-4.64a.26.26,0,0,0-.25.29c0,.17-.2.17-.32.11a3.35,3.35,0,0,1-.32-.17,2.4,2.4,0,0,1,.18.3,2.38,2.38,0,0,1,.06.49L21.59,14a2,2,0,0,0-.5-.22,1.65,1.65,0,0,1,.09.32c0,.08-.29.16-.39.22s-.15.4-.06.48.72.08.72.08a2.09,2.09,0,0,1-.29.15,4.09,4.09,0,0,1-.57.07.16.16,0,0,0,0,.17.74.74,0,0,0,.3.12,1.15,1.15,0,0,1-.36.34,1.9,1.9,0,0,1-.63.1s.14.34,0,.34a4.19,4.19,0,0,1-1-.41,5,5,0,0,1,0-1.09,4.13,4.13,0,0,0,1-.16c.32-.12.8-.88,1.11-.9s.18-.24.49-.41a4,4,0,0,1,1.31-.09A.74.74,0,0,1,22.5,13.23Z" transform="translate(0)" fill="#212121"/><path d="M18.59,18.46a1,1,0,0,0-1,.25,1.06,1.06,0,0,0-.38.95c.15.09.72-.18,1-.37S18.68,18.53,18.59,18.46Z" transform="translate(0)" fill="#212121"/><path d="M15.3,25.26c.16,0,.19,0,.19,0v.11s.47-.41.47-.64,0-.37-.3-.44a3.36,3.36,0,0,0-.65-.08v1.2A1.63,1.63,0,0,1,15.3,25.26Z" transform="translate(0)" fill="#212121"/><path d="M15.38,23c.1,0,.4-.59.51-.59s.3.21.39.21.17-.13.06-.25S16.05,22,15.9,22s-.68.31-.68.43.11.16.11.28S15.29,23,15.38,23Z" transform="translate(0)" fill="#212121"/><path d="M23.33,5.44c-.2.08-.13.88,0,1.46A21,21,0,0,1,24.21,11c0,1.19-.7.79-.7.79s.45-1.33.49-1.54a8.15,8.15,0,0,0-.27-1.46c-.14-.58-.19-.86-.25-.38A15.66,15.66,0,0,1,23.23,10a.82.82,0,0,1-.33.48A7,7,0,0,0,22.76,9a3.63,3.63,0,0,1-.11-1.69,5.09,5.09,0,0,0,.19-1.76,3,3,0,0,0-.91-2.11c-.33-.27-.44-.3-.09.49a3.92,3.92,0,0,1,.4,2c0,.81-.37,1.08-.37,1.49a11.29,11.29,0,0,1,.18,1.64,3.65,3.65,0,0,1-.57,2.4c-.4.41-2.09.88-2.54,1.23s-1,.38-1,.08-.24-.7-.24-1.15.12-.64.12-1a3.07,3.07,0,0,0-.51-1.24,3.19,3.19,0,0,1-.44-.85c0-.16-.31.09-.31.33s.66,1.29.66,1.62-.11.57-.11,1.07.19.87.19,1.32-.24.46-.24.57.6.7.81.7,1.94-1.08,2.7-1.45.91-.36,1.16-.36a12.89,12.89,0,0,0,1.9.17c1.15,0,1.31-.28,1.31-1.19a26.93,26.93,0,0,0-1-4.87C23.68,5.74,23.53,5.36,23.33,5.44Z" transform="translate(0)" fill="#212121"/><path d="M23.92,2.33c-.33-.55-.49-1-.63-.52s.37.74.37,1.5.27,1.74.29,2.17,0,.57.05.71.25.75.35,1.16a3.2,3.2,0,0,0,.27.93A2.57,2.57,0,0,0,25,7c0-.39-.34-1.37-.52-2.52A6,6,0,0,0,23.92,2.33Z" transform="translate(0)" fill="#212121"/><path d="M26.07,3.85c0-.31-.24-.49-.31-.41s0,.46-.13,1a2.92,2.92,0,0,1-.83,1.16c.07.24.22.9.22.9a.81.81,0,0,0,.25-.19,10.46,10.46,0,0,0,.64-1.14A2.58,2.58,0,0,0,26.07,3.85Z" transform="translate(0)" fill="#212121"/><path d="M23.64,1.6l.49.82A14.73,14.73,0,0,0,23.9.76C23.78.35,23.61,0,23.43,0s-.18.23-.18.44a2.6,2.6,0,0,0,.23.83C23.57,1.44,23.64,1.6,23.64,1.6Z" transform="translate(0)" fill="#212121"/><path d="M17.31,20.2c0-.16.33-.6.59-.6s.65-.46.65-.46a1.28,1.28,0,0,1,.09.4,3.88,3.88,0,0,0-.2,1.1,9.65,9.65,0,0,1-.1,1.22,2,2,0,0,0,.55.93l.65.64-.36-.09a4.53,4.53,0,0,1,.48.9,4,4,0,0,0,.19.81,3,3,0,0,1,.23.61l-.24-.1a2.28,2.28,0,0,1,.23.83,4.17,4.17,0,0,0,.07.72s-.45-.07-.62.08a1,1,0,0,0-.18.53,1.74,1.74,0,0,0-.45-.06c-.26,0-.21.31-.54.66s-.68.76-1.1.76-.62.54-.62.54C16.24,29.41,15,30,15,30V27.61a1.26,1.26,0,0,0,.43-.09,1.35,1.35,0,0,0,.29-.26v.28s.36-.39.5-.58a3.45,3.45,0,0,0,.27-.46l.07.28a1.35,1.35,0,0,0,.21-.26,1.59,1.59,0,0,1,.2-.23l.12.24a3.24,3.24,0,0,0,.2-.34,1.86,1.86,0,0,0,.12-.38l.13.28a1.78,1.78,0,0,0,.37-.47,2,2,0,0,0,.07-.54l.4.15a1.73,1.73,0,0,0,.06-.41,1.68,1.68,0,0,0-.17-.54l.23,0A4.49,4.49,0,0,1,18,22.8c0-.57.13-.79.13-1.15a1.44,1.44,0,0,0-.35-.95C17.56,20.52,17.31,20.36,17.31,20.2Z" transform="translate(0)" fill="#212121"/><rect width="30" height="30" fill="none"/></svg>