<!-- Copyright (c) 2022 Jan Stehno -->
<svg xmlns="http://www.w3.org/2000/svg" viewBox="0 0 300 300"><title>whitetaildeer</title><g id="whitetaildeer"><g id="left"><path d="M65.16,128.39c-.79.79,2.44,12.34,4.35,16.6s7.91,12.44,9.36,12.86,8.13-.09,16,3.18,9.54,4.63,12.72,10.48a48.76,48.76,0,0,1,4.44,12.2s5.9-2.1,8.89-2.1,9.12,6.27,9.12,12.21a19,19,0,0,1-5,13c-2.71,3.14-3.88,5-3.88,6.83s4.11,6.13,4.11,10.2-.91,10.5,0,11.41,4.24-.12,5.61,1.26.57,5.57,2.06,5.57,5.47-4.26,6.78-4.26.8.71,1.85.71,1.12-.94,3.39-.94,3.42,1.42,5.1,1.42V235.2c-1.38,0-3.46-2.57-4.84-2.57s-5.92.14-7.06-1-4.59-4.47-4.59-6.22,6.06-8.75,8.33-8.75,6,2.92,8.16,2.92V137.36a14.59,14.59,0,0,0-8,2.77,15.68,15.68,0,0,0-3.19,4.24s-3-3.72-4.82-3.72-3.58,3.94-7.41,3.94-3.1,2.08-5.79,2.08-10.61-3.57-19.77-9.74-11.51-8.54-14.59-8.54S66,127.59,65.16,128.39Zm49.25,52.77s.28-3.27,2-5.09,4.24-3.51,6.13-3.51a2.79,2.79,0,0,0,2.53-1.78l3.53,1.76,0-2a5.53,5.53,0,0,1,2.84,3.17,12.66,12.66,0,0,1,.81,5.16,5,5,0,0,0,.77,3c.55.54,9,.21,10.84,2.25s1.93,5.61,1.93,6.66-1,1.68-1,3.72,2,4.07,2,6.1-.15,3.78-.15,3.78-2.86-.8-4.07-2.76-2.13-3.79-2.13-3.79l-2.67,2.9-.49-3.39a9.72,9.72,0,0,0-2.73,2.38c-.61,1.1-2.27,2.95-3.3,3.11a8.46,8.46,0,0,1-1.87.1s2.5-3.14,2.92-5.17.54-2.92,1.31-3.69,2.47-.27,3.16-1,0-2.9-.7-3.6-4.44-3.15-5.35-5.25-2.21-2.92-3.29-3.06-.88-2.17-3.09-2.49-6.3-.71-7.57,0A9.5,9.5,0,0,0,114.41,181.16ZM71.62,130.87s10-.66,13.09,1,1.78,3.88,4.87,4.07,8,7.81,11.08,9,10.15,1.55,10.15,1.55.77,10.17,0,10.94-8.79,4.12-10.2,4.12,0-3.47,0-3.47-4.35,0-6.31-1a12,12,0,0,1-3.55-3.36,7.91,7.91,0,0,0,3-1.27,1.47,1.47,0,0,0,.33-1.68,41.59,41.59,0,0,1-5.63-.7,19.32,19.32,0,0,1-3-1.5s6.31.14,7.2-.75.56-4.3-.51-4.86-3.93-1.36-3.93-2.15a17.14,17.14,0,0,1,.84-3.18s-3.88,1.17-5,2.2-2.57,2.66-2.57,2.66a19.76,19.76,0,0,1,.61-4.86,21.55,21.55,0,0,1,1.73-3.09s-2,1.22-3.18,1.78-3.27.51-3.23-1.17A2.48,2.48,0,0,0,75,132.32,7.32,7.32,0,0,1,71.62,130.87Z" transform="translate(0)" fill="#212121"/><path d="M114.08,184.6c.84-.73,6-1,9.93,2.49s4.41,9.1,3.79,9.51c-1.48.94-7.23-1.83-10.35-3.69S113.24,185.34,114.08,184.6Z" transform="translate(0)" fill="#212121"/><path d="M147,252.6c-1.57-.39-1.86-.19-1.86-.19l.08,1.12s-4.77-4.11-4.77-6.42.56-3.69,3-4.42a29.57,29.57,0,0,1,6.49-.77v12A16.55,16.55,0,0,0,147,252.6Z" transform="translate(0)" fill="#212121"/><path d="M146.16,229.66c-.95,0-3.92-5.82-5-5.82s-3,2.06-4,2.06-1.67-1.35-.56-2.46,2.92-3.69,4.4-3.69,6.85,3.06,6.85,4.28-1.1,1.59-1.1,2.8S147.15,229.66,146.16,229.66Z" transform="translate(0)" fill="#212121"/><path d="M66.73,54.38c2,.77,1.24,8.81-.3,14.61s-8.54,28.84-8.54,40.76,7,7.93,7,7.93S60.36,104.45,60,102.32c-.29-1.94,1.35-8.77,2.7-14.57s1.92-8.61,2.48-3.88S66.73,96.4,67.72,100A8.28,8.28,0,0,0,71,104.82a70.19,70.19,0,0,1,1.4-14.45c1.49-6.18,2.43-13.15,1.16-16.84S71.62,66.28,71.62,56s5.89-18.52,9.12-21.19,4.39-2.95.89,5-4,11.46-4,19.64,3.72,10.83,3.72,14.89S79.5,80,79.5,90.74s1.61,19.92,5.68,24,20.9,8.75,25.44,12.3,9.78,3.79,9.78.8,2.43-7.07,2.43-11.56-1.27-6.36-1.27-9.54,2.53-8.13,5.1-12.44,4.3-6.87,4.4-8.46,3.13.89,3.13,3.32S127.6,102,127.6,105.33s1.12,5.66,1.12,10.66-1.92,8.7-1.92,13.24,2.36,4.56,2.36,5.67-6,7-8.1,7-19.32-10.73-27-14.52-9.1-3.58-11.56-3.58-7.43,1.75-19,1.75-13.15-2.8-13.15-11.92,7.15-41.18,10-48.69S64.72,53.61,66.73,54.38Z" transform="translate(0)" fill="#212121"/><path d="M60.84,23.33c3.29-5.55,4.84-9.55,6.24-5.2s-3.72,7.36-3.72,14.94-2.64,17.4-2.87,21.75-.42,5.66-.53,7.1c-.42,1.52-2.47,7.45-3.45,11.61s-2,9.25-2.76,9.25c-1.09,0-3.36-8.5-3.36-12.37s3.43-13.69,5.26-25.2S57.54,28.87,60.84,23.33Z" transform="translate(0)" fill="#212121"/><path d="M39.34,38.55c0-3.12,2.31-5,3.08-4.18s-.31,4.6,1.23,10.42S52,56.44,52,56.44c-.66,2.31-2.21,9-2.21,9a7.21,7.21,0,0,1-2.42-2c-1.22-1.47-3.61-6-6.38-11.36S39.34,41.67,39.34,38.55Z" transform="translate(0)" fill="#212121"/><path d="M63.64,16s-3.89,6.26-4.91,8.25c0,0,1.06-12.49,2.25-16.59S63.92,0,65.75,0s1.79,2.28,1.79,4.42S66,11.25,65.19,12.73C64.31,14.38,63.64,16,63.64,16Z" transform="translate(0)" fill="#212121"/><path d="M126.92,202c0-1.54-3.31-6-5.93-6s-6.51-4.59-6.51-4.59a13.36,13.36,0,0,0-.89,4c0,1.73,2.06,4.07,2.06,11s.93,10.8.93,12.25-2.29,6-5.47,9.26-6.54,6.41-6.54,6.41l3.64-.89s-3.83,5.56-4.81,9-.37,5.12-1.91,8.1a29.92,29.92,0,0,0-2.31,6.07l2.44-1s-2.34,4.56-2.34,8.28a42,42,0,0,1-.7,7.23s4.56-.7,6.17.84,1.83,5.26,1.83,5.26a17.09,17.09,0,0,1,4.56-.63c2.52,0,2,3.09,5.4,6.66s6.77,7.62,10.94,7.62c4.91,0,6.17,5.33,6.17,5.33,3.93-2.06,16.42,3.82,16.42,3.82V276.08a13,13,0,0,1-4.3-.87,13.21,13.21,0,0,1-2.88-2.59v2.78s-3.58-3.86-5-5.78A35.19,35.19,0,0,1,135.2,265l-.66,2.86a18.81,18.81,0,0,1-2.15-2.61,11.08,11.08,0,0,0-2-2.31l-1.2,2.42a37.46,37.46,0,0,1-1.92-3.44,18.79,18.79,0,0,1-1.27-3.79l-1.29,2.74s-3.06-2.88-3.72-4.67a21.6,21.6,0,0,1-.7-5.44l-4,1.55a20,20,0,0,1-.53-4.14c0-2,1.72-5.4,1.72-5.4l-2.39.56s5.27-9.58,5.27-15.29S119,220.14,119,216.5s1.59-7.67,3.5-9.5S126.92,203.64,126.92,202Z" transform="translate(0)" fill="#212121"/></g><g id="right"><path d="M213.6,128.39c-3.08,0-5.42,2.38-14.59,8.54s-17.09,9.74-19.77,9.74-2-2.08-5.79-2.08-5.58-3.94-7.41-3.94-4.82,3.72-4.82,3.72a15.68,15.68,0,0,0-3.19-4.24,14.59,14.59,0,0,0-8-2.77v82.22c2.11,0,5.89-2.92,8.16-2.92s8.33,7,8.33,8.75-3.44,5.07-4.59,6.22-5.68,1-7.06,1-3.46,2.57-4.84,2.57v3.86c1.68,0,2.83-1.42,5.1-1.42s2.34.94,3.39.94.54-.71,1.85-.71,5.28,4.26,6.78,4.26.68-4.19,2.06-5.57,4.7-.35,5.61-1.26,0-7.34,0-11.41,4.11-8.33,4.11-10.2-1.17-3.69-3.88-6.83a19,19,0,0,1-5.05-13c0-5.94,6.13-12.21,9.12-12.21s8.89,2.1,8.89,2.1a48.76,48.76,0,0,1,4.44-12.2c3.18-5.85,4.86-7.21,12.72-10.48s14.54-2.76,16-3.18,7.44-8.6,9.36-12.86,5.14-15.81,4.35-16.6S216.69,128.39,213.6,128.39Zm-30.46,50.28c-1.27-.71-5.36-.31-7.57,0s-2,2.35-3.09,2.49-2.38,1-3.29,3.06-4.64,4.54-5.35,5.25-1.39,2.91-.7,3.6,2.39.18,3.16,1,.89,1.66,1.31,3.69,2.92,5.17,2.92,5.17a8.46,8.46,0,0,1-1.87-.1c-1-.16-2.69-2-3.3-3.11a9.72,9.72,0,0,0-2.73-2.38l-.49,3.39-2.67-2.9s-.91,1.82-2.13,3.79-4.07,2.76-4.07,2.76-.15-1.74-.15-3.78,2-4.07,2-6.1-1-2.67-1-3.72.07-4.63,1.93-6.66,10.29-1.71,10.84-2.25a5,5,0,0,0,.77-3,12.66,12.66,0,0,1,.81-5.16,5.53,5.53,0,0,1,2.84-3.17l0,2,3.53-1.76a2.79,2.79,0,0,0,2.53,1.78c1.89,0,4.37,1.68,6.13,3.51s2,5.09,2,5.09A9.5,9.5,0,0,0,183.14,178.67ZM225,132.32a2.48,2.48,0,0,0-2.43,2.85c0,1.68-2,1.73-3.23,1.17s-3.18-1.78-3.18-1.78a21.55,21.55,0,0,1,1.73,3.09,19.76,19.76,0,0,1,.61,4.86s-1.5-1.64-2.57-2.66-5-2.2-5-2.2a17.14,17.14,0,0,1,.84,3.18c0,.79-2.85,1.59-3.93,2.15s-1.4,4-.51,4.86,7.2.75,7.2.75a19.32,19.32,0,0,1-3,1.5,41.59,41.59,0,0,1-5.63.7,1.47,1.47,0,0,0,.33,1.68,7.91,7.91,0,0,0,3,1.27,12,12,0,0,1-3.55,3.36c-2,1-6.31,1-6.31,1s1.4,3.47,0,3.47-9.43-3.35-10.2-4.12,0-10.94,0-10.94,7-.33,10.15-1.55,8-8.84,11.08-9,1.83-2.43,4.87-4.07,13.09-1,13.09-1A7.32,7.32,0,0,1,225,132.32Z" transform="translate(0)" fill="#212121"/><path d="M185.92,184.6c-.84-.73-6-1-9.93,2.49s-4.41,9.1-3.79,9.51c1.48.94,7.23-1.83,10.35-3.69S186.76,185.34,185.92,184.6Z" transform="translate(0)" fill="#212121"/><path d="M153,252.6c1.57-.39,1.86-.19,1.86-.19l-.08,1.12s4.77-4.11,4.77-6.42-.56-3.69-3-4.42a29.57,29.57,0,0,0-6.49-.77v12A16.55,16.55,0,0,1,153,252.6Z" transform="translate(0)" fill="#212121"/><path d="M153.84,229.66c.95,0,3.92-5.82,5-5.82s3,2.06,4,2.06,1.67-1.35.56-2.46-2.92-3.69-4.4-3.69-6.85,3.06-6.85,4.28,1.1,1.59,1.1,2.8S152.85,229.66,153.84,229.66Z" transform="translate(0)" fill="#212121"/><path d="M233.27,54.38c-2,.77-1.24,8.81.3,14.61s8.54,28.84,8.54,40.76-7,7.93-7,7.93,4.55-13.23,4.88-15.36c.29-1.94-1.35-8.77-2.7-14.57s-1.92-8.61-2.48-3.88S233.27,96.4,232.28,100a8.28,8.28,0,0,1-3.25,4.87,70.19,70.19,0,0,0-1.4-14.45c-1.49-6.18-2.43-13.15-1.16-16.84s1.91-7.25,1.91-17.58-5.89-18.52-9.12-21.19-4.39-2.95-.89,5,4,11.46,4,19.64-3.72,10.83-3.72,14.89S220.5,80,220.5,90.74s-1.61,19.92-5.68,24-20.9,8.75-25.44,12.3-9.78,3.79-9.78.8-2.43-7.07-2.43-11.56,1.27-6.36,1.27-9.54-2.53-8.13-5.1-12.44-4.3-6.87-4.4-8.46-3.13.89-3.13,3.32,6.59,12.81,6.59,16.18S171.28,111,171.28,116s1.92,8.7,1.92,13.24-2.36,4.56-2.36,5.67,6,7,8.1,7,19.32-10.73,27-14.52,9.1-3.58,11.56-3.58,7.43,1.75,19,1.75,13.15-2.8,13.15-11.92-7.15-41.18-10-48.69S235.28,53.61,233.27,54.38Z" transform="translate(0)" fill="#212121"/><path d="M239.16,23.33c-3.29-5.55-4.84-9.55-6.24-5.2s3.72,7.36,3.72,14.94,2.64,17.4,2.87,21.75.42,5.66.53,7.1c.42,1.52,2.47,7.45,3.45,11.61s2,9.25,2.76,9.25c1.09,0,3.36-8.5,3.36-12.37s-3.43-13.69-5.26-25.2S242.46,28.87,239.16,23.33Z" transform="translate(0)" fill="#212121"/><path d="M260.66,38.55c0-3.12-2.31-5-3.08-4.18s.31,4.6-1.23,10.42S248,56.44,248,56.44c.66,2.31,2.21,9,2.21,9a7.21,7.21,0,0,0,2.42-2c1.22-1.47,3.61-6,6.38-11.36S260.66,41.67,260.66,38.55Z" transform="translate(0)" fill="#212121"/><path d="M236.36,16s3.89,6.26,4.91,8.25c0,0-1.06-12.49-2.25-16.59S236.08,0,234.25,0s-1.79,2.28-1.79,4.42,1.56,6.83,2.35,8.31C235.69,14.38,236.36,16,236.36,16Z" transform="translate(0)" fill="#212121"/><path d="M173.08,202c0-1.54,3.31-6,5.93-6s6.51-4.59,6.51-4.59a13.36,13.36,0,0,1,.89,4c0,1.73-2.06,4.07-2.06,11s-.93,10.8-.93,12.25,2.29,6,5.47,9.26,6.54,6.41,6.54,6.41l-3.64-.89s3.83,5.56,4.81,9,.37,5.12,1.91,8.1a29.92,29.92,0,0,1,2.31,6.07l-2.44-1s2.34,4.56,2.34,8.28a42,42,0,0,0,.7,7.23s-4.56-.7-6.17.84-1.83,5.26-1.83,5.26a17.09,17.09,0,0,0-4.56-.63c-2.52,0-2,3.09-5.4,6.66s-6.77,7.62-10.94,7.62c-4.91,0-6.17,5.33-6.17,5.33-3.93-2.06-16.42,3.82-16.42,3.82V276.08a13,13,0,0,0,4.3-.87,13.21,13.21,0,0,0,2.88-2.59v2.78s3.58-3.86,5-5.78A35.19,35.19,0,0,0,164.8,265l.66,2.86a18.81,18.81,0,0,0,2.15-2.61,11.08,11.08,0,0,1,2-2.31l1.2,2.42a37.46,37.46,0,0,0,1.92-3.44,18.79,18.79,0,0,0,1.27-3.79l1.29,2.74s3.06-2.88,3.72-4.67a21.6,21.6,0,0,0,.7-5.44l4,1.55a20,20,0,0,0,.53-4.14c0-2-1.72-5.4-1.72-5.4l2.39.56s-5.27-9.58-5.27-15.29S181,220.14,181,216.5s-1.59-7.67-3.5-9.5S173.08,203.64,173.08,202Z" transform="translate(0)" fill="#212121"/></g></g><g id="frame"><rect width="300" height="300" fill="none"/></g></svg>