<svg xmlns="http://www.w3.org/2000/svg" viewBox="0 0 30 30"><path d="M29.1,2.66a.82.82,0,0,0-.48-.25,2.55,2.55,0,0,0-.82,0,1.27,1.27,0,0,1,.6-.35,1,1,0,0,1,.7,0,2.25,2.25,0,0,0-.67-.74A3.31,3.31,0,0,0,27,.89L27.58.8a2.53,2.53,0,0,0-1.2-.23,3.23,3.23,0,0,0-1,.19L25.55,0A6.87,6.87,0,0,1,25,.57a5.07,5.07,0,0,1-1,.66L23.9.57s-.22.44-.5,1a2.27,2.27,0,0,1-.94.83l0-1.1a11.3,11.3,0,0,1-.92,2.26.8.8,0,0,1-1.32,0c-.28-.35.15-1.08.15-1.08s-1,.28-1.2.15S19,2,19,2s-.49.38-.88.25a.61.61,0,0,1-.39-.57,1.84,1.84,0,0,1-.39.14,1,1,0,0,1-.49-.66c-.07-.33-.16-1-.16-1s-.12.61-.21.89A1.8,1.8,0,0,1,15,1.92V8.2c.42,0,.82.42,1.56.31s1-.62,1.93-1a2.59,2.59,0,0,1,2.14.24,1,1,0,0,0,1.13-.11c.28-.27,0-1,0-1a1.67,1.67,0,0,1,.28.71,1,1,0,0,1-.31.64,6.82,6.82,0,0,1,.8-.33,1,1,0,0,1,.67.09,2.51,2.51,0,0,1,.62-.37,2.17,2.17,0,0,1,.72-.12L24.27,7h.65l-.59-.47.33-.13-.79-.14a3,3,0,0,0,.68-.38c.31-.24.72-.52.72-.52s-.49.08-1,.14a1.9,1.9,0,0,1-.77,0l.33-.5-.39-.09.95-1.12-.28-.12.6-.49-.35,0a3.53,3.53,0,0,1,.73-.71A1.07,1.07,0,0,1,26,2.11l-.09.67.57-.27a4.83,4.83,0,0,0-.52,1.06,1.74,1.74,0,0,0,0,.94,2.81,2.81,0,0,1,.4-.68,2.57,2.57,0,0,1,1-.42l-.58,1.36a.5.5,0,0,0,.33-.09,1.82,1.82,0,0,0,.46-.41,2.16,2.16,0,0,1-.27.42A2.2,2.2,0,0,1,26.8,5a2.27,2.27,0,0,1,.05.6.7.7,0,0,1-.33.5l.33.31-.69.74.64.18-1,.78.35.13-1.23.41.45.27a4,4,0,0,1-.94.11,4.55,4.55,0,0,1-1-.12l.3.37a.67.67,0,0,1,.11.34,6.67,6.67,0,0,1-1.19-.75,1,1,0,0,0-.86-.26l.43.45-.31.39.23.25-.34.18.45.36-.39.18.44.31-.32.2.31.47-.27,0a4.47,4.47,0,0,0,.32.54,1.57,1.57,0,0,0,.49.47,1.72,1.72,0,0,0,.21.94,1.27,1.27,0,0,1,.25.87,1.46,1.46,0,0,0,.34.66s-.52-.21-.64-.47a1.32,1.32,0,0,1,0-.71,2.08,2.08,0,0,1-.54-.27.82.82,0,0,1-.29-.57h.35a2,2,0,0,1-.43-.81A3.09,3.09,0,0,0,21.37,11l.31.14a.92.92,0,0,0-.25-.42.77.77,0,0,0-.53-.11l-.1.18-.27,0-.08.27h-.4a1.39,1.39,0,0,1-.2.42c-.11.14-.47,0-.61,0s-.38.31-.15.95a2,2,0,0,0,1.08,1.32,3.1,3.1,0,0,1,.52.53,3.06,3.06,0,0,0-.88-.59,2.18,2.18,0,0,1-1-1.79c0-.36.26-.56.33-.71s0-.55.41-.61a.7.7,0,0,1,.6.25l0-.23.31,0,.05-.28.45.14-.05-.41.72.15-.37-.34.27-.25-.34-.12.57-.28a3.31,3.31,0,0,1-.47-.41.42.42,0,0,1-.07-.48,2.06,2.06,0,0,1-.48.08.54.54,0,0,1-.32-.08L20.74,8a1.17,1.17,0,0,1-.8-.07,2.18,2.18,0,0,0-1.45-.1c-.49.12-.94.77-1.06.84s-.07-.19-.07-.19a5,5,0,0,1-.87.43c-.21,0-.21-.2-.21-.2A1.29,1.29,0,0,1,16,9.1c-.51.5-.76,0-1,0v9.21a2.12,2.12,0,0,1,.56-.61l.21.26a2.37,2.37,0,0,0,.37-.42,2.21,2.21,0,0,0,.28-.79,1.06,1.06,0,0,1,.1.42,2.38,2.38,0,0,1-.09.53l.17-.23a.85.85,0,0,1,.28-.12,4,4,0,0,0-.14.9,1.61,1.61,0,0,0,.74.07A1.63,1.63,0,0,0,18,18l-.83,1.17a2.12,2.12,0,0,1,.37-.18c.1,0,.22.19.26.47a.8.8,0,0,1-.08.47l.34.24-.27.38a1.88,1.88,0,0,1,.8.21c.29.18.41.83.41.83a8.06,8.06,0,0,0-1.09-.78,8.16,8.16,0,0,0-2.93-1v4.79a10.17,10.17,0,0,0,1.44-.09c1-.13,1.2-.37,1.2-.37a2.06,2.06,0,0,1-.32.33.67.67,0,0,0-.3.7c0,.16.35-.09.35-.09s.07.29-.6.47-.69.49-1.77.49v1a2.87,2.87,0,0,0,1-.14c.4-.14.65-.3.69-.26s-.24.42-.48.57a2.19,2.19,0,0,1-1.17.3V30a4.31,4.31,0,0,0,2.5-.53A6.43,6.43,0,0,1,20,28.52s-.31-.17-.18-.37,1.1-.09,1.1-.09-.27-.25-.14-.42S22,27.42,22,27.42s-.26-.21-.14-.37,1.68-.18,1.68-.18-.55-.15-.5-.29.53-.17.91-.25A5,5,0,0,0,25,26c.35-.15.47-.44.56-1a14.35,14.35,0,0,0-.73-2.63c0-.31.39.16.39.16a10.42,10.42,0,0,1-.29-1.73c.05-.29.34,0,.34,0a5.07,5.07,0,0,1-.38-1.59c.11-.3.3.08.3.08A6.75,6.75,0,0,1,25,18.1c0-.2.24.13.24.13a1.89,1.89,0,0,0-.06-.67,2.46,2.46,0,0,0-.62-.91,2.63,2.63,0,0,1,.76.65,2.62,2.62,0,0,1,.37,1.23c0,.22-.29-.15-.29-.15a10.63,10.63,0,0,1,.26,1.25c0,.2-.23-.18-.23-.18a7.64,7.64,0,0,1,.25.93c0,.19-.21-.08-.21-.08s.19,1.14.19,1.39-.31-.07-.31-.07l.18.9a1,1,0,0,0-.09.87,13.31,13.31,0,0,1,1.9-.05c-.2-.54-.78-.74-1-1.18a2.22,2.22,0,0,1-.19-.81l.53.28a5.72,5.72,0,0,1-.52-1.34,3.38,3.38,0,0,1-.09-1.56l.41.27-.18-2.1.6.12L25.7,14.74l.37-.17-1-1.43.51-.11L24.3,11.69l.47,0-.91-1.09,2.25,1-1-1.91,2,.79-.7-1.37,1,.38-.84-1.12.64-.07s-.2-.35-.09-.55,1-.2,1-.2l-.88-.45.52-.28s-.33-.24-.22-.47.62-.4.62-.4-.57-.11-.5-.49.85-.39.85-.39a.59.59,0,0,1,0-.51A1,1,0,0,1,29,4.18a1.39,1.39,0,0,1-.66-.78C28.23,2.89,29.1,2.66,29.1,2.66ZM17.57,22.54a.51.51,0,0,0-.09.25,1.36,1.36,0,0,0-.3,0,1.51,1.51,0,0,0-.66.14c-.21.11.15.37.15.37s-.5-.25-.5-.63A.76.76,0,0,1,17,22a1.36,1.36,0,0,1,.78.35Zm3-1.14a7.62,7.62,0,0,1-1.41,1.44l.55-1.29c.33-.79.11-.89.15-1.53a1.22,1.22,0,0,1,.28-.83,1.05,1.05,0,0,1-.29-.5c-.13-.36.45-.72.73-.54a1.27,1.27,0,0,1,.6.9c0,.34-.34.37-.59.6a1.86,1.86,0,0,0-.4.7,4.66,4.66,0,0,1,.69-.52,2.52,2.52,0,0,1,.87-.33A19.56,19.56,0,0,1,20.58,21.4Z" transform="translate(0)" fill="#212121"/><path d="M1.65,3.4A1.39,1.39,0,0,1,1,4.18a1,1,0,0,1,.49.34.59.59,0,0,1,0,.51s.77,0,.85.39-.5.49-.5.49.51.16.62.4-.22.47-.22.47l.52.28-.88.45s.92,0,1,.2-.09.55-.09.55l.64.07L2.62,9.45l1-.38-.7,1.37,2-.79-1,1.91,2.25-1-.91,1.09.47,0L4.39,13l.51.11-1,1.43.37.17L3.11,17l.6-.12L3.53,19l.41-.27a3.38,3.38,0,0,1-.09,1.56,5.72,5.72,0,0,1-.52,1.34l.53-.28a2.22,2.22,0,0,1-.19.81c-.18.44-.76.64-1,1.18a13.31,13.31,0,0,1,1.9.05,1,1,0,0,0-.09-.87l.18-.9s-.31.32-.31.07.19-1.39.19-1.39-.22.27-.21.08a7.64,7.64,0,0,1,.25-.93s-.21.38-.23.18a10.63,10.63,0,0,1,.26-1.25s-.32.37-.29.15a2.62,2.62,0,0,1,.37-1.23,2.63,2.63,0,0,1,.76-.65,2.46,2.46,0,0,0-.62.91,1.89,1.89,0,0,0-.06.67s.2-.33.24-.13a6.75,6.75,0,0,1-.21,1.21s.19-.38.3-.08a5.07,5.07,0,0,1-.38,1.59s.29-.29.34,0a10.42,10.42,0,0,1-.29,1.73s.42-.47.39-.16A14.35,14.35,0,0,0,4.47,25c.09.54.21.83.56,1a5,5,0,0,0,1.06.33c.38.08.83.05.91.25s-.5.29-.5.29,1.5-.07,1.68.18-.14.37-.14.37,1,0,1.19.22-.14.42-.14.42,1-.11,1.1.09-.18.37-.18.37a6.43,6.43,0,0,1,2.49.95A4.31,4.31,0,0,0,15,30V27.53a2.19,2.19,0,0,1-1.17-.3c-.24-.15-.53-.53-.48-.57s.29.12.69.26a2.87,2.87,0,0,0,1,.14v-1c-1.08,0-1.19-.33-1.77-.49s-.6-.47-.6-.47.31.25.35.09a.67.67,0,0,0-.3-.7,2.06,2.06,0,0,1-.32-.33s.22.24,1.2.37a10.17,10.17,0,0,0,1.44.09V19.85a8.16,8.16,0,0,0-2.93,1,8.06,8.06,0,0,0-1.09.78s.12-.65.41-.83a1.88,1.88,0,0,1,.8-.21l-.27-.38.34-.24a.8.8,0,0,1-.08-.47c0-.28.16-.49.26-.47a2.12,2.12,0,0,1,.37.18L12,18a1.63,1.63,0,0,0,.54.29,1.61,1.61,0,0,0,.74-.07,4,4,0,0,0-.14-.9.85.85,0,0,1,.28.12l.17.23a2.38,2.38,0,0,1-.09-.53,1.06,1.06,0,0,1,.1-.42,2.21,2.21,0,0,0,.28.79,2.37,2.37,0,0,0,.37.42l.21-.26a2.12,2.12,0,0,1,.56.61V9.11c-.23,0-.48.49-1,0a1.29,1.29,0,0,1-.29-.35s0,.22-.21.2a5,5,0,0,1-.87-.43s0,.26-.07.19S12,8,11.51,7.87a2.18,2.18,0,0,0-1.45.1,1.17,1.17,0,0,1-.8.07l.32.28a.54.54,0,0,1-.32.08,2.06,2.06,0,0,1-.48-.08.42.42,0,0,1-.07.48,3.31,3.31,0,0,1-.47.41l.57.28-.34.12.27.25-.37.34.72-.15L9,10.46l.45-.14,0,.28.31,0,0,.23a.7.7,0,0,1,.6-.25c.36.06.34.46.41.61s.35.35.33.71a2.18,2.18,0,0,1-1,1.79,3.06,3.06,0,0,0-.88.59,3.1,3.1,0,0,1,.52-.53,2,2,0,0,0,1.08-1.32c.23-.64,0-.94-.15-.95s-.5.11-.61,0A1.39,1.39,0,0,1,10,11h-.4l-.08-.27-.27,0-.1-.18a.77.77,0,0,0-.53.11.92.92,0,0,0-.25.42L8.63,11A3.09,3.09,0,0,0,8,12.06a2,2,0,0,1-.43.81h.35a.82.82,0,0,1-.29.57,2.08,2.08,0,0,1-.54.27,1.32,1.32,0,0,1,0,.71c-.12.26-.64.47-.64.47a1.46,1.46,0,0,0,.34-.66A1.27,1.27,0,0,1,7,13.35a1.72,1.72,0,0,0,.21-.94,1.57,1.57,0,0,0,.49-.47,4.47,4.47,0,0,0,.32-.54l-.27,0L8.1,11l-.32-.2.44-.31-.39-.18.45-.36-.34-.18.23-.25-.31-.39.43-.45a1,1,0,0,0-.86.26,6.67,6.67,0,0,1-1.19.75.67.67,0,0,1,.11-.34l.3-.37a4.55,4.55,0,0,1-1,.12A4,4,0,0,1,4.67,9l.45-.27L3.89,8.27l.35-.13-1-.78.64-.18-.69-.74.33-.31a.7.7,0,0,1-.33-.5A2.27,2.27,0,0,1,3.2,5a2.2,2.2,0,0,1-.44-.34,2.16,2.16,0,0,1-.27-.42A1.82,1.82,0,0,0,3,4.68a.5.5,0,0,0,.33.09L2.7,3.41a2.57,2.57,0,0,1,1,.42,2.81,2.81,0,0,1,.4.68,1.74,1.74,0,0,0,0-.94,4.83,4.83,0,0,0-.52-1.06l.57.27L4,2.11a1.07,1.07,0,0,1,.89.29,3.53,3.53,0,0,1,.73.71l-.35,0,.6.49-.28.12,1,1.12L6.18,5l.33.5a1.9,1.9,0,0,1-.77,0c-.52-.06-1-.14-1-.14s.41.28.72.52a3,3,0,0,0,.68.38l-.79.14.33.13L5.08,7h.65l-.29.3a2.17,2.17,0,0,1,.72.12,2.51,2.51,0,0,1,.62.37,1,1,0,0,1,.67-.09,6.82,6.82,0,0,1,.8.33,1,1,0,0,1-.31-.64,1.67,1.67,0,0,1,.28-.71s-.26.7,0,1a1,1,0,0,0,1.13.11,2.59,2.59,0,0,1,2.14-.24c1,.38,1.19.9,1.93,1S14.58,8.2,15,8.2V1.92a1.8,1.8,0,0,1-1.48-.79c-.09-.28-.21-.89-.21-.89s-.09.63-.16,1a1,1,0,0,1-.49.66,1.84,1.84,0,0,1-.39-.14.61.61,0,0,1-.39.57C11.49,2.42,11,2,11,2s.07.47-.15.6-1.2-.15-1.2-.15.43.73.15,1.08a.8.8,0,0,1-1.32,0,11.3,11.3,0,0,1-.92-2.26l0,1.1a2.27,2.27,0,0,1-.94-.83c-.28-.52-.5-1-.5-1l0,.66A5.07,5.07,0,0,1,5,.57,6.87,6.87,0,0,1,4.45,0l.19.76a3.23,3.23,0,0,0-1-.19A2.53,2.53,0,0,0,2.42.8L3,.89a3.31,3.31,0,0,0-1.42.47A2.25,2.25,0,0,0,.9,2.1a1,1,0,0,1,.7,0,1.27,1.27,0,0,1,.6.35,2.55,2.55,0,0,0-.82,0,.82.82,0,0,0-.48.25S1.77,2.89,1.65,3.4ZM12.26,22.3A1.36,1.36,0,0,1,13,22a.76.76,0,0,1,.79.69c0,.38-.5.63-.5.63s.36-.26.15-.37a1.51,1.51,0,0,0-.66-.14,1.36,1.36,0,0,0-.3,0,.51.51,0,0,0-.09-.25Zm-4-2.8a2.52,2.52,0,0,1,.87.33,4.66,4.66,0,0,1,.69.52,1.86,1.86,0,0,0-.4-.7c-.25-.23-.59-.26-.59-.6a1.27,1.27,0,0,1,.6-.9c.28-.18.86.18.73.54a1.05,1.05,0,0,1-.29.5,1.22,1.22,0,0,1,.28.83c0,.64-.18.74.15,1.53l.55,1.29A7.62,7.62,0,0,1,9.42,21.4,19.56,19.56,0,0,1,8.24,19.5Z" transform="translate(0)" fill="#212121"/><rect width="30" height="30" fill="none"/></svg>