<svg xmlns="http://www.w3.org/2000/svg" viewBox="0 0 30 30"><path d="M22.62,11.77l.68.06a6.94,6.94,0,0,1-.65-.88,9.35,9.35,0,0,1-.77-2.17c-.1-.52-.17-.62.13-.76a2.71,2.71,0,0,1,.68-.19,2,2,0,0,0-1-.72,5.89,5.89,0,0,0-1.06,0L21,6.35a6,6,0,0,1-.67.29,2,2,0,0,1-.55.1l.34-.43s-.83.15-1.75.39a7.15,7.15,0,0,0-1.67.68,1.84,1.84,0,0,1,0-.31,1.91,1.91,0,0,1,.19-.48,1.76,1.76,0,0,0-.9.23,2.76,2.76,0,0,0-.95,1v7.48l2-.39s.05,0,0,.06l-2,1.1v5.4a1.82,1.82,0,0,1,.23.74c.08.5,0,1,.08,1.09s.07.06.61.06a1.56,1.56,0,0,1,1,.18c.24.18.39.31.39.31a1.9,1.9,0,0,1-.37,0,6.11,6.11,0,0,0-1-.21,3,3,0,0,0-1,.11v2c.24,0,.42-.13.87-.37A3.41,3.41,0,0,1,17.31,25c.42,0,.59,0,.59.47a.9.9,0,0,1-.65.87,6.92,6.92,0,0,0-.92-.15c-.49,0-.58,0-.58.22s.37.33.73.33a1.11,1.11,0,0,0,.57-.13,1.21,1.21,0,0,1-.84.46c-.48,0-.73,0-.81,0a.33.33,0,0,0,0,.38c.1.09.42,0,1.19,0S17.6,28,18,28a2.06,2.06,0,0,0,1-.26c.11-.11,0-.32-.14-1.27s-1-2.73-1-3.41.22-1.61.22-2.86-.24-4.17-.24-4.17.65,3.56.65,4.33a7,7,0,0,1-.17,1.77,3.63,3.63,0,0,0,.14,2A16.93,16.93,0,0,0,19.16,26s.42-.92.77-1.75A4.83,4.83,0,0,0,20.47,22c0-1-.14-.7-.14-1.88s.89-2.69,1-3.21a5.89,5.89,0,0,0-.17-2.34,2.12,2.12,0,0,0-1-1.35,1.53,1.53,0,0,1,1.14.62,2.59,2.59,0,0,1,.44,1.31,6,6,0,0,0,.78-1.26,4,4,0,0,0,.05-1.2,2,2,0,0,1,.21.21,2.18,2.18,0,0,1,.14.29,4,4,0,0,0,0-1A2.47,2.47,0,0,0,22.62,11.77Zm-4.81,2.9s-.07-.05,0-.07a3.08,3.08,0,0,1,.94-.49,4,4,0,0,1,1.3.09,9.3,9.3,0,0,0-1.22.25C18.41,14.56,18,14.63,17.81,14.67Zm2.33.61a3.78,3.78,0,0,1-.74.32c-.39.1-.35.43-.35.82a1.23,1.23,0,0,0,.16.64s0-.47.14-.61a1.18,1.18,0,0,1,.75-.25,2.48,2.48,0,0,1,.57.08.47.47,0,0,1-.19.12c-.13.05-.29,0-.33.06s0,.07,0,.3-.31.42-.49.42h-.28a1.52,1.52,0,0,0,.27.31.9.9,0,0,1,.21.58s-.3-.28-.61-.54a.79.79,0,0,1-.4-.84c0-.52,0-1,.25-1.19A2.37,2.37,0,0,1,20.14,15.28Z" fill="#212121"/><path d="M15,28.42a9.93,9.93,0,0,1,2.57.22c.53.19.58.18.58.29a5.53,5.53,0,0,1-2.17.54c-.75,0-.52-.11-1-.11Z" fill="#212121"/><path d="M20.4,29.46s-1-2.41-1-2.66a20,20,0,0,0,1.52-3.54,6.74,6.74,0,0,0,0-2.71,2.41,2.41,0,0,1,.26-1.82,2.07,2.07,0,0,1,1.09-.49c.18,0,.44.55.69,1.33a12.44,12.44,0,0,1,.36,1.57L22.87,21s-.09,1.13-.25,2.46-.21,2.19-.21,2.19l-.4-.25s-.45,1-.89,2S20.4,29.46,20.4,29.46Z" fill="#212121"/><path d="M21.26,18A5,5,0,0,0,23.43,17a12.64,12.64,0,0,0,2.45-2.38c.2-.3.11-.43-.26-.58a3.21,3.21,0,0,0-1.45-.22c-.82,0-1,.09-1.34.48a7.47,7.47,0,0,0-1,1.24c-.06.17-.13.76,0,.86s.5-.53,1.42-1.33,1.11-.73,1.49-.76a1.87,1.87,0,0,1,.67.07,3.07,3.07,0,0,0-1.25.27c-.47.27-1.2,1.21-1.8,1.67s-.67.5-.81.8S21.12,17.91,21.26,18Z" fill="#212121"/><path d="M29.81,5.4c-.24-.85-1-1.37-2.36-2a4.93,4.93,0,0,1-2.39-2.28c-.55-.91-.59-.65-.58-.15a4.17,4.17,0,0,0,.71,2.43c.67,1,1.65,1.53,2.16,2.31a2.49,2.49,0,0,1,.11,1.92,6,6,0,0,0-.07-1.11c-.08-.42-.14-.47-.22-.48a10.87,10.87,0,0,1-2.26,1.29c-1.42.56-2.45.75-2.57.88A4.79,4.79,0,0,0,23,10.58c.43.76.37.66.53.69a3.8,3.8,0,0,0,.47-.09c-.69-1-.59-1.53-.59-1.53a6.57,6.57,0,0,0,.55,1.16c.06.11.13.22.2.33l.66-.18-.46-.67c-.73-1.07-.63-1.58-.63-1.58a8.3,8.3,0,0,0,.55,1.17c.24.35.51.71.73,1l.5-.16-.67-1c-.73-1.06-.63-1.58-.63-1.58a5.28,5.28,0,0,0,.55,1.17,16,16,0,0,0,.94,1.34,10.6,10.6,0,0,0,1.19-.46A6.45,6.45,0,0,0,29.58,8,3,3,0,0,0,29.81,5.4Z" fill="#212121"/><path d="M7.12,12.17a4,4,0,0,0,0,1,2.18,2.18,0,0,1,.14-.29,2,2,0,0,1,.21-.21,4,4,0,0,0,0,1.2,6,6,0,0,0,.78,1.26,2.59,2.59,0,0,1,.44-1.31,1.53,1.53,0,0,1,1.14-.62,2.12,2.12,0,0,0-1,1.35,5.89,5.89,0,0,0-.17,2.34c.11.52,1,2,1,3.21S9.53,21,9.53,22a4.83,4.83,0,0,0,.54,2.28c.35.83.77,1.75.77,1.75a16.93,16.93,0,0,0,.68-1.81,3.63,3.63,0,0,0,.14-2,7,7,0,0,1-.17-1.77c0-.77.65-4.33.65-4.33S11.9,19,11.9,20.24s.22,2.18.22,2.86-.81,2.46-1,3.41-.25,1.16-.14,1.27A2.06,2.06,0,0,0,12,28c.37,0,.62-.55,1.39-.55s1.09,0,1.19,0a.33.33,0,0,0,0-.38c-.08-.07-.33,0-.81,0a1.21,1.21,0,0,1-.84-.46,1.11,1.11,0,0,0,.57.13c.36,0,.73-.16.73-.33s-.09-.22-.58-.22a6.92,6.92,0,0,0-.92.15.9.9,0,0,1-.65-.87c0-.45.17-.47.59-.47a3.41,3.41,0,0,1,1.44.42c.45.24.63.37.87.37v-2a3,3,0,0,0-1-.11,6.11,6.11,0,0,0-1,.21,1.9,1.9,0,0,1-.37,0s.15-.13.39-.31a1.56,1.56,0,0,1,1-.18c.54,0,.53,0,.61-.06s0-.59.08-1.09a1.82,1.82,0,0,1,.23-.74v-5.4L13,15s0-.07,0-.06l2,.39V7.81a2.76,2.76,0,0,0-.95-1,1.76,1.76,0,0,0-.9-.23,1.91,1.91,0,0,1,.19.48,1.84,1.84,0,0,1,0,.31,7.15,7.15,0,0,0-1.67-.68c-.92-.24-1.75-.39-1.75-.39l.34.43a2,2,0,0,1-.55-.1,6,6,0,0,1-.67-.29l.28.73a5.89,5.89,0,0,0-1.06,0,2,2,0,0,0-1,.72A2.71,2.71,0,0,1,8,8c.3.14.23.24.13.76A9.35,9.35,0,0,1,7.35,11a6.94,6.94,0,0,1-.65.88l.68-.06A2.47,2.47,0,0,0,7.12,12.17Zm4.08,2.28A9.3,9.3,0,0,0,10,14.2a4,4,0,0,1,1.3-.09,3.08,3.08,0,0,1,.94.49s0,.07,0,.07C12,14.63,11.59,14.56,11.2,14.45ZM11,15.5c.28.24.25.67.25,1.19a.79.79,0,0,1-.4.84c-.31.26-.61.54-.61.54a.9.9,0,0,1,.21-.58,1.52,1.52,0,0,0,.27-.31h-.28c-.18,0-.49-.19-.49-.42s0-.25-.05-.3-.2,0-.33-.06a.47.47,0,0,1-.19-.12,2.48,2.48,0,0,1,.57-.08,1.18,1.18,0,0,1,.75.25c.14.14.14.61.14.61a1.23,1.23,0,0,0,.16-.64c0-.39,0-.72-.35-.82a3.78,3.78,0,0,1-.74-.32A2.37,2.37,0,0,1,11,15.5Z" fill="#212121"/><path d="M15,28.42a9.93,9.93,0,0,0-2.57.22c-.53.19-.58.18-.58.29a5.53,5.53,0,0,0,2.17.54c.75,0,.52-.11,1-.11Z" fill="#212121"/><path d="M9.6,29.46s1-2.41,1-2.66a20,20,0,0,1-1.52-3.54,6.74,6.74,0,0,1,0-2.71,2.41,2.41,0,0,0-.26-1.82,2.07,2.07,0,0,0-1.09-.49c-.18,0-.44.55-.69,1.33a12.44,12.44,0,0,0-.36,1.57L7.13,21s.09,1.13.25,2.46.21,2.19.21,2.19l.4-.25s.45,1,.89,2S9.6,29.46,9.6,29.46Z" fill="#212121"/><path d="M8.74,18A5,5,0,0,1,6.57,17a12.64,12.64,0,0,1-2.45-2.38c-.2-.3-.11-.43.26-.58a3.21,3.21,0,0,1,1.45-.22c.82,0,1,.09,1.34.48a7.47,7.47,0,0,1,1,1.24c.06.17.13.76,0,.86s-.5-.53-1.42-1.33-1.11-.73-1.49-.76a1.87,1.87,0,0,0-.67.07,3.07,3.07,0,0,1,1.25.27c.47.27,1.2,1.21,1.8,1.67s.67.5.81.8S8.88,17.91,8.74,18Z" fill="#212121"/><path d="M.19,5.4c.24-.85,1-1.37,2.36-2A4.93,4.93,0,0,0,4.94,1.13c.55-.91.59-.65.58-.15a4.17,4.17,0,0,1-.71,2.43c-.67,1-1.65,1.53-2.16,2.31a2.49,2.49,0,0,0-.11,1.92,6,6,0,0,1,.07-1.11c.08-.42.14-.47.22-.48A10.87,10.87,0,0,0,5.09,7.34c1.42.56,2.45.75,2.57.88a4.79,4.79,0,0,1-.61,2.36c-.43.76-.37.66-.53.69a3.8,3.8,0,0,1-.47-.09c.69-1,.59-1.53.59-1.53a6.57,6.57,0,0,1-.55,1.16c-.06.11-.13.22-.2.33L5.23,11l.46-.67c.73-1.07.63-1.58.63-1.58a8.3,8.3,0,0,1-.55,1.17c-.24.35-.51.71-.73,1l-.5-.16.67-1c.73-1.06.63-1.58.63-1.58a5.28,5.28,0,0,1-.55,1.17,16,16,0,0,1-.94,1.34,10.6,10.6,0,0,1-1.19-.46A6.45,6.45,0,0,1,.42,8,3,3,0,0,1,.19,5.4Z" fill="#212121"/><rect width="30" height="30" fill="none"/></svg>