<!-- Copyright (c) 2023 Jan Stehno -->
<svg xmlns="http://www.w3.org/2000/svg" viewBox="0 0 300 300">
    <title>wildboar</title>
    <g id="wildboar">
        <g id="right">
            <path
                d="M291,26.58a8.56,8.56,0,0,0-4.86-2.46c-3.35-.64-8.16.44-8.16.44s1.52-2,6-3.42,7-.19,7-.19-1.58-3.41-6.76-7.33-14.13-4.71-14.13-4.71l5.69-1a25.91,25.91,0,0,0-12-2.27c-6.83.38-10.15,1.9-10.15,1.9L255.53,0a66.06,66.06,0,0,1-5.88,5.69,51.58,51.58,0,0,1-10.14,6.64L239,5.69s-2.27,4.36-5,9.58-9.39,8.34-9.39,8.34l-.19-11s-5.15,17-9.2,22.63-10.55,3.92-13.27.44,1.52-10.74,1.52-10.74-9.86,2.71-12,1.45-1.46-6-1.46-6-4.93,3.79-8.82,2.56-3.88-5.79-3.88-5.79a19.26,19.26,0,0,1-3.89,1.42c-.85,0-4.27-3.22-4.93-6.54s-1.61-9.67-1.61-9.67a88.81,88.81,0,0,1-2.09,8.91c-.95,2.75-7.49,7.87-14.79,7.87V82c4.19,0,8.15,4.22,15.6,3.13s9.72-6.26,19.29-10,16.78.48,21.38,2.33,8.58,1.7,11.33-1,.19-9.76.19-9.76,2.66,3.69,2.85,7.11-3.13,6.44-3.13,6.44a72.62,72.62,0,0,1,8-3.31c3.32-1.05,6.74.94,6.74.94a22,22,0,0,1,6.16-3.69,21.55,21.55,0,0,1,7.21-1.24l-2.85-3h6.45l-5.88-4.65,3.32-1.32-7.87-1.43a32.35,32.35,0,0,0,6.73-3.79c3.13-2.37,7.21-5.21,7.21-5.21s-4.93.85-10.05,1.42-7.78-.29-7.78-.29l3.32-5-3.89-.85,9.48-11.19L241,36.31l6-4.93-3.51-.28a34.25,34.25,0,0,1,7.3-7.11c5.21-4,8.91-2.85,8.91-2.85l-.85,6.64,5.69-2.65a49.54,49.54,0,0,0-5.22,10.52,17.51,17.51,0,0,0-.28,9.48,24.77,24.77,0,0,1,4-6.82c2.37-2.56,10-4.18,10-4.18l-5.79,13.56s1.14.29,3.32-.85a18.54,18.54,0,0,0,4.55-4.17,19,19,0,0,1-2.65,4.26,20.72,20.72,0,0,1-4.36,3.32,24.57,24.57,0,0,1,.47,6.07c-.19,3.13-3.32,5-3.32,5l3.32,3-6.89,7.4L268,73.61l-10.37,7.84,3.43,1.23L248.8,86.8l4.46,2.66a39.59,39.59,0,0,1-9.34,1.18,47.47,47.47,0,0,1-10.42-1.23s1.83,2.15,3,3.73a6.32,6.32,0,0,1,1.14,3.35s-7.9-3.85-12-7.46a10.27,10.27,0,0,0-8.53-2.59l4.24,4.43-3.1,4,2.34,2.46-3.42,1.84,4.55,3.54-4,1.83,4.43,3.1-3.23,2,3.16,4.68-2.71-.32a53.38,53.38,0,0,0,3.16,5.44,16.55,16.55,0,0,0,4.93,4.68s-.32,6.51,2.08,9.41,2.4,5.82,2.53,8.66,3.41,6.58,3.41,6.58-5.18-2.09-6.38-4.68,0-7.08,0-7.08a20.48,20.48,0,0,1-5.44-2.72c-2.65-1.89-2.9-5.69-2.9-5.69l3.54.13a20.16,20.16,0,0,1-4.3-8.15c-1.58-5.44-6.37-10.69-6.37-10.69l3.18,1.42a9.36,9.36,0,0,0-2.52-4.17C212.48,105.53,209,106,209,106l-1,1.8-2.75-.29-.81,2.7-3.93-.09a14.47,14.47,0,0,1-2,4.17c-1.19,1.42-4.73.27-6.2.32s-3.76,3-1.48,9.5c3.88,11,8.75,11.31,10.87,13.17,4.18,3.68,5.15,5.31,5.15,5.31s-2.47-2.84-8.82-5.87-10.13-11.76-10.38-18c-.14-3.51,2.58-5.52,3.27-7s.57-5.5,4.11-6.14,6,2.47,6,2.47l.45-2.28,3,.19.54-2.81,4.55,1.42-.57-4.07,7.21,1.51-3.7-3.41,2.75-2.47-3.41-1.23,5.68-2.84A39.35,39.35,0,0,1,212.86,88a4.13,4.13,0,0,1-.66-4.74,21.17,21.17,0,0,1-4.84.76,5.19,5.19,0,0,1-3.12-.76l3.12-2.85s-4.64,1.33-8-.66-9.58-2.27-14.51-1-9.35,7.74-10.55,8.44-.7-2-.7-2-6.76,4-8.79,4.3-2-2-2-2-.34.85-3,3.48c-5,5-7.51.09-9.86.09v92.1c1.5-3.09,5.59-6.07,5.59-6.07l2.09,2.62a26.91,26.91,0,0,0,3.7-4.23c2-2.75,2.84-7.87,2.84-7.87a11,11,0,0,1,.95,4.17,25.53,25.53,0,0,1-.85,5.31s1.23-1.61,1.7-2.28,2.75-1.23,2.75-1.23-2,8.34-1.42,9,5.41.95,7.49.66,5.41-2.84,5.41-2.84L171.9,192.1a19.24,19.24,0,0,1,3.7-1.8c1-.19,2.18,1.89,2.56,4.74a7.24,7.24,0,0,1-.76,4.61l3.42,2.4-2.75,3.89s5.21.19,8.06,2,4.07,8.32,4.07,8.32a77.55,77.55,0,0,0-10.9-7.78c-6.54-3.89-22-10.05-29.3-10.05v47.93a113,113,0,0,0,14.44-.85c9.76-1.36,11.92-3.75,11.92-3.75a19.46,19.46,0,0,1-3.18,3.32c-2.32,2-3.62,3.79-2.94,7,.34,1.58,3.46-1,3.46-1s.66,3-6,4.74c-5.88,1.56-6.92,4.93-17.73,4.93v9.77a30.75,30.75,0,0,0,9.64-1.37c3.92-1.43,6.48-3,6.91-2.62s-2.46,4.19-4.89,5.69A21.62,21.62,0,0,1,150,275.25V300c9.55,0,18.11-.65,25-5.31,11.52-7.82,25-9.45,25-9.45s-3.15-1.7-1.79-3.79,10.95-.89,10.95-.89-2.67-2.47-1.36-4.17c1.9-2.46,11.91-2.15,11.91-2.15s-2.65-2.13-1.48-3.73c1.8-2.46,16.79-1.77,16.79-1.77s-5.49-1.52-4.93-3c.75-2,5.23-1.67,9-2.43A51.74,51.74,0,0,0,249.7,260c3.46-1.47,4.72-4.4,5.61-9.83s-7.08-23.26-7.33-26.3,3.92,1.65,3.92,1.65-3.42-14.42-2.91-17.32,3.41,0,3.41,0-4.93-13-3.79-15.93,3,.88,3,.88S249.11,183,249.49,181s2.41,1.26,2.41,1.26a19.11,19.11,0,0,0-.64-6.7c-1-4.17-6.19-9.1-6.19-9.1a25,25,0,0,1,7.58,6.57c3,4.17,3.54,10.11,3.8,12.26s-2.91-1.51-2.91-1.51,2.65,10.49,2.53,12.51-2.28-1.77-2.28-1.77,2.4,7.33,2.53,9.23-2.15-.76-2.15-.76,1.9,11.38,1.9,13.91-3-.76-3-.76l1.76,9c.12.65-2.58,2.76-.87,8.73,8,.1,15.78-1.6,19-.52-1.94-5.4-7.82-7.39-9.54-11.77a21.92,21.92,0,0,1-2-8.12l5.31,2.78s-2.66-4.43-5.19-13.4a33.39,33.39,0,0,1-.88-15.62l4,2.78-1.77-21,6,1.21L257,147.44l3.7-1.71L251,131.42l5.12-1.14L243,116.91l4.64-.48-9-11,22.51,10.11L251.07,96.49l19.73,7.9-7-13.71,10.05,3.85-8.41-11.19,6.37-.71s-2-3.55-.9-5.5,10.34-2,10.34-2l-8.87-4.55,5.26-2.75s-3.36-2.42-2.23-4.79,6.22-3.93,6.22-3.93-5.74-1.09-5-4.88,8.44-4,8.44-4a5.89,5.89,0,0,1,.14-5c1.37-2.37,4.87-3.48,4.87-3.48S284.7,39,283.5,34,291,26.58,291,26.58ZM175.7,225.38a5.32,5.32,0,0,0-.91,2.56,11.27,11.27,0,0,0-3-.38,15.08,15.08,0,0,0-6.59,1.42c-2.09,1.11,1.52,3.7,1.52,3.7s-5-2.51-5-6.31,3.79-6.92,8-6.82,7.82,3.46,7.82,3.46S176.5,224.34,175.7,225.38Zm30.05-11.33a73.94,73.94,0,0,1-14,14.32s2.21-5.08,5.5-12.91,1.07-8.85,1.52-15.24,2.71-8.28,2.71-8.28a11.7,11.7,0,0,1-2.88-5c-1.26-3.66,4.53-7.23,7.37-5.4s5.94,5.53,5.94,9-3.35,3.69-5.88,6-4,7-4,7a47.08,47.08,0,0,1,6.95-5.19,24.42,24.42,0,0,1,8.73-3.28A208.73,208.73,0,0,1,205.75,214.05Z"
                transform="translate(0)" fill="#212121" />
        </g>
        <g id="left">
            <path
                d="M16.5,34C15.3,39,9.92,41.75,9.92,41.75s3.5,1.11,4.87,3.48a5.89,5.89,0,0,1,.14,5s7.68.19,8.44,4-5,4.88-5,4.88,5.08,1.56,6.22,3.93-2.23,4.79-2.23,4.79l5.26,2.75-8.87,4.55s9.25,0,10.34,2-.9,5.5-.9,5.5l6.37.71L26.17,94.53l10-3.85-7,13.71,19.73-7.9L38.87,115.58l22.51-10.11-9,11,4.64.48L43.9,130.28,49,131.42l-9.67,14.31,3.7,1.71L31.1,170.2l6-1.21-1.77,21,4-2.78a33.39,33.39,0,0,1-.88,15.62c-2.53,9-5.19,13.4-5.19,13.4l5.31-2.78a21.92,21.92,0,0,1-2,8.12c-1.72,4.38-7.6,6.37-9.54,11.77,3.18-1.08,11,.62,19,.52,1.71-6-1-8.08-.87-8.73l1.76-9s-3,3.29-3,.76S45.83,203,45.83,203s-2.28,2.66-2.15.76,2.53-9.23,2.53-9.23-2.15,3.79-2.28,1.77,2.53-12.51,2.53-12.51-3.16,3.66-2.91,1.51.76-8.09,3.8-12.26a25,25,0,0,1,7.58-6.57s-5.18,4.93-6.19,9.1a19.11,19.11,0,0,0-.64,6.7s2-3.29,2.41-1.26-2.15,12.13-2.15,12.13,1.89-3.79,3-.88-3.79,15.93-3.79,15.93,2.91-2.91,3.41,0-2.91,17.32-2.91,17.32,4.18-4.68,3.92-1.65-8.21,20.86-7.33,26.3,2.15,8.36,5.61,9.83a51.74,51.74,0,0,0,10.64,3.35c3.8.76,8.28.44,9,2.43.56,1.45-4.93,3-4.93,3s15-.69,16.79,1.77c1.17,1.6-1.48,3.73-1.48,3.73s10-.31,11.91,2.15c1.31,1.7-1.36,4.17-1.36,4.17s9.66-1.1,10.95.89-1.79,3.79-1.79,3.79,13.44,1.63,25,9.45c6.87,4.66,15.43,5.31,25,5.31V275.25a21.62,21.62,0,0,1-11.66-2.94c-2.43-1.5-5.31-5.31-4.89-5.69s3,1.19,6.91,2.62a30.75,30.75,0,0,0,9.64,1.37v-9.77c-10.81,0-11.85-3.37-17.73-4.93-6.63-1.77-6-4.74-6-4.74s3.12,2.53,3.46,1c.68-3.23-.62-5-2.94-7a19.46,19.46,0,0,1-3.18-3.32s2.16,2.39,11.92,3.75a113,113,0,0,0,14.44.85V198.45c-7.33,0-22.76,6.16-29.3,10.05a77.55,77.55,0,0,0-10.9,7.78s1.23-6.48,4.07-8.32,8.06-2,8.06-2l-2.75-3.89,3.42-2.4a7.24,7.24,0,0,1-.76-4.61c.38-2.85,1.52-4.93,2.56-4.74a19.24,19.24,0,0,1,3.7,1.8l-8.35-11.66s3.32,2.56,5.41,2.84,6.92,0,7.49-.66-1.42-9-1.42-9,2.27.57,2.75,1.23,1.7,2.28,1.7,2.28a25.53,25.53,0,0,1-.85-5.31,11,11,0,0,1,.95-4.17s.85,5.12,2.84,7.87a26.91,26.91,0,0,0,3.7,4.23l2.09-2.62s4.09,3,5.59,6.07V91.09c-2.35,0-4.82,5-9.86-.09-2.63-2.63-3-3.48-3-3.48s0,2.21-2,2-8.79-4.3-8.79-4.3.5,2.65-.7,2S120,79.93,115.11,78.7s-11.19-1-14.51,1-8,.66-8,.66l3.12,2.85a5.19,5.19,0,0,1-3.12.76,21.17,21.17,0,0,1-4.84-.76A4.13,4.13,0,0,1,87.14,88a39.35,39.35,0,0,1-4.74,4.08l5.68,2.84-3.41,1.23,2.75,2.47L83.72,102l7.21-1.51-.57,4.07,4.55-1.42.54,2.81,3-.19.45,2.28s2.46-3.1,6-2.47,3.41,4.62,4.11,6.14,3.41,3.52,3.27,7c-.25,6.21-4,14.93-10.38,18s-8.82,5.87-8.82,5.87,1-1.63,5.15-5.31c2.12-1.86,7-2.14,10.87-13.17,2.28-6.45,0-9.46-1.48-9.5s-5,1.1-6.2-.32a14.47,14.47,0,0,1-2-4.17l-3.93.09-.81-2.7-2.75.29L91,106s-3.46-.48-5.31,1.13a9.36,9.36,0,0,0-2.52,4.17l3.18-1.42s-4.79,5.25-6.37,10.69a20.16,20.16,0,0,1-4.3,8.15l3.54-.13s-.25,3.8-2.9,5.69A20.48,20.48,0,0,1,70.86,137s1.2,4.49,0,7.08-6.38,4.68-6.38,4.68,3.28-3.73,3.41-6.58.13-5.75,2.53-8.66,2.08-9.41,2.08-9.41a16.55,16.55,0,0,0,4.93-4.68A53.38,53.38,0,0,0,80.59,114l-2.71.32L81,109.64l-3.23-2,4.43-3.1-4-1.83,4.55-3.54-3.42-1.84,2.34-2.46-3.1-4,4.24-4.43A10.27,10.27,0,0,0,74.34,89c-4,3.61-12,7.46-12,7.46a6.32,6.32,0,0,1,1.14-3.35c1.14-1.58,3-3.73,3-3.73a47.47,47.47,0,0,1-10.42,1.23,39.59,39.59,0,0,1-9.34-1.18L51.2,86.8,38.92,82.68l3.43-1.23L32,73.61l6.39-1.83-6.89-7.4,3.32-3s-3.13-1.9-3.32-5A24.57,24.57,0,0,1,32,50.25a20.72,20.72,0,0,1-4.36-3.32,19,19,0,0,1-2.65-4.26,18.54,18.54,0,0,0,4.55,4.17c2.18,1.14,3.32.85,3.32.85L27,34.13s7.59,1.62,10,4.18a24.77,24.77,0,0,1,4,6.82,17.51,17.51,0,0,0-.28-9.48,49.54,49.54,0,0,0-5.22-10.52l5.69,2.65-.85-6.64S44,20,49.21,24a34.25,34.25,0,0,1,7.3,7.11L53,31.38l6,4.93-2.75,1.24,9.48,11.19-3.89.85,3.32,5s-2.66.86-7.78.29-10-1.42-10-1.42,4.08,2.84,7.21,5.21a32.35,32.35,0,0,0,6.73,3.79l-7.87,1.43,3.32,1.32-5.88,4.65h6.45l-2.85,3a21.55,21.55,0,0,1,7.21,1.24,22,22,0,0,1,6.16,3.69s3.42-2,6.74-.94a72.62,72.62,0,0,1,8,3.31s-3.32-3-3.13-6.44,2.85-7.11,2.85-7.11-2.56,7,.19,9.76,6.73,2.89,11.33,1,11.8-6.07,21.38-2.33,11.85,8.91,19.29,10S145.81,82,150,82V19.15c-7.3,0-13.84-5.12-14.79-7.87a88.81,88.81,0,0,1-2.09-8.91s-1,6.35-1.61,9.67-4.08,6.54-4.93,6.54a19.26,19.26,0,0,1-3.89-1.42s0,4.55-3.88,5.79S110,20.39,110,20.39s.69,4.74-1.46,6-12-1.45-12-1.45,4.24,7.27,1.52,10.74-9.23,5.19-13.27-.44-9.2-22.63-9.2-22.63l-.19,11S68.74,20.48,66,15.27s-5-9.58-5-9.58l-.48,6.64A51.58,51.58,0,0,1,50.35,5.69,66.06,66.06,0,0,1,44.47,0l1.9,7.59s-3.32-1.52-10.15-1.9A25.91,25.91,0,0,0,24.18,8l5.69,1s-8.95.79-14.13,4.71S9,21,9,21s2.52-1.26,7,.19,6,3.42,6,3.42-4.81-1.08-8.16-.44A8.56,8.56,0,0,0,9,26.58S17.7,28.92,16.5,34ZM122.55,223s3.65-3.37,7.82-3.46,8,3,8,6.82-5,6.31-5,6.31,3.61-2.59,1.52-3.7a15.08,15.08,0,0,0-6.59-1.42,11.27,11.27,0,0,0-3,.38,5.32,5.32,0,0,0-.91-2.56C123.5,224.34,122.55,223,122.55,223ZM82.36,195a24.42,24.42,0,0,1,8.73,3.28,47.08,47.08,0,0,1,7,5.19s-1.52-4.77-4-7-5.88-2.56-5.88-6,3.17-7.16,5.94-9,8.63,1.74,7.37,5.4a11.7,11.7,0,0,1-2.88,5s2.27,1.9,2.71,8.28-1.77,7.4,1.52,15.24,5.5,12.91,5.5,12.91a73.94,73.94,0,0,1-14-14.32A208.73,208.73,0,0,1,82.36,195Z"
                transform="translate(0)" fill="#212121" />
        </g>
    </g>
    <g id="frame">
        <rect width="300" height="300" fill="none" />
    </g>
</svg>