<!-- Copyright (c) 2022 - 2023 Jan Stehno -->
<svg xmlns="http://www.w3.org/2000/svg" viewBox="0 0 300 300"><title>wildhog</title><g id="feralpig"><g id="border"><g id="right"><path d="M212.43,75.67c1.1-.73,5.82-3.86,7.83-5L150,15V26.25Z" transform="translate(0)" fill="#212121"/><path d="M236.75,83.68a10.82,10.82,0,0,1,.06,3.16,24.91,24.91,0,0,1-.81,3.47l1.59.07-1,2.68.71-.28a21,21,0,0,1,.43,3L260,113.33v73.34l-56.8,45-.23.5,6.5.68a57,57,0,0,0-6,2.34c-1.46.81-1.42.8-1.31,1.32a7.5,7.5,0,0,0,1.08,1.69l-2.78,0,3.94,1.59-8.47-.57a11.15,11.15,0,0,1,1.47,2.59c.49,1.33.66,1.85.66,1.85a48.73,48.73,0,0,0-5.46-2.56,6.25,6.25,0,0,0-.9-.27l-1,.81h0a4.66,4.66,0,0,1,.13,2.91,30.76,30.76,0,0,1-2.67,4.78l-.43-4.05a6.88,6.88,0,0,1-1.79,2.13c-1.41,1.22-2.44,2-2.44,2l.95-2.88-2.28,1.81,1.86,3.42-3.32-2.27L150,273.75V285l120-95V110Z" transform="translate(0)" fill="#212121"/></g><g id="left"><path d="M87.57,75.67c-1.1-.73-5.82-3.86-7.83-5L150,15V26.25Z" transform="translate(0)" fill="#212121"/><path d="M63.25,83.68a10.82,10.82,0,0,0-.06,3.16A24.91,24.91,0,0,0,64,90.31l-1.59.06,1,2.69-.72-.28a21,21,0,0,0-.43,3L40,113.33v73.34l56.8,45,.23.5-6.5.68a57,57,0,0,1,6,2.34c1.46.81,1.42.8,1.31,1.32a7.5,7.5,0,0,1-1.08,1.69l2.78,0-3.94,1.59,8.47-.57a11.15,11.15,0,0,0-1.47,2.59c-.49,1.33-.66,1.85-.66,1.85a48.73,48.73,0,0,1,5.46-2.56,6.25,6.25,0,0,1,.9-.27l1,.81h0a4.66,4.66,0,0,0-.13,2.91,30.76,30.76,0,0,0,2.67,4.78l.43-4.05a6.88,6.88,0,0,0,1.79,2.13c1.41,1.22,2.44,2,2.44,2l-1-2.88,2.28,1.81L116,251.73l3.32-2.27L150,273.75V285L30,190V110Z" transform="translate(0)" fill="#212121"/></g></g><g id="feralpig-2" data-name="feralpig"><g id="right-2" data-name="right"><path d="M237.25,105.13a36,36,0,0,0,.42-4.34l-2.5,3.92a27.28,27.28,0,0,0,1.5-5.92,17.7,17.7,0,0,0,0-4.58l-1.71.83,1.25-3.71-1.63-.08a15.57,15.57,0,0,0,1.13-3.62,11.74,11.74,0,0,0,.16-2.92l-2.5,2.71s.67-2.29,1.17-3.88a20.6,20.6,0,0,1,1.88-3.75l-3.09,1.84L235,75.5l-2.37.21.66-3.58-1.75-.38a8.81,8.81,0,0,1,.88-2.75,28.13,28.13,0,0,1,2-3c.46-.67-.67-2.38-15.25,6.54s-16,13.33-16,13.33l.12-2.37a123.59,123.59,0,0,0-12.58,12c-5.29,6-5.75,8.75-8.21,10.58s-4.79,3.29-.79-5.08,6.12-10.33,6.12-10.33a5.15,5.15,0,0,1-2.45-1.38c-1-1.08.12-3.54.12-3.54a11.39,11.39,0,0,0-4.46,0,28.52,28.52,0,0,0-3.75.92,3.11,3.11,0,0,1,0-1.79,10,10,0,0,1,1.13-2.5,7.78,7.78,0,0,1-4,1.7,20.94,20.94,0,0,1-4-.08l1-1.67-5,.84-.5-1.38-1.42,1.63-1.33-1.92-4.29,1.42,1.54-2.54a7.7,7.7,0,0,0-5.67,3.2A35.7,35.7,0,0,0,151,91.67V131.5a22.87,22.87,0,0,1,2.58,10.33A26.47,26.47,0,0,1,151,152.67V210s9.33.83,11.33,2.42,6.67,5.58,7.84,7.5a82.9,82.9,0,0,1,3.58,8.66S164.83,218,161.08,216.5A25.47,25.47,0,0,0,151,214.75v30.63a13.1,13.1,0,0,0,7.19,1.78c4.69,0,11.22-2,12.75-3.19s2.4-1.94,2.4-1.94a12.59,12.59,0,0,1-6.53,6,30.66,30.66,0,0,1-11.53,2.88,8.94,8.94,0,0,1-4.28-1.32v3.35l3.69.65-3.69.79v4.34a47.06,47.06,0,0,1,4.88,1.62c2.37,1,3.71,1.69,3.71,1.69a5.54,5.54,0,0,0-.68-1.69,10.9,10.9,0,0,0-1.44-1.53,6.53,6.53,0,0,1,2.53,0,8.61,8.61,0,0,1,2.19,1.16,5.82,5.82,0,0,0,.4-1.62,16.82,16.82,0,0,0-.21-1.91l1.68,1.34a3.51,3.51,0,0,0,.28-1.68,14.31,14.31,0,0,0-.59-2.35l2,1.19a7.35,7.35,0,0,0,.19-1.31,12.76,12.76,0,0,0-.07-1.6,11.84,11.84,0,0,1,2,2.16c.59,1,1.15,2.09,1.15,2.09a16.28,16.28,0,0,0,.35-3c0-1.25,0-2.53,0-2.53l4.59.88s-.44-3.16,1.25-4.57,5.87,1.47,5.87,1.47l-2.71-5a4.5,4.5,0,0,0,3.5.78c2.34-.28,3.62-.5,3.81.22a3.89,3.89,0,0,1-.16,1.78,5,5,0,0,0,1.5-2.15,14.66,14.66,0,0,0,0-2.91,6.33,6.33,0,0,1,1.28,1.91,21.61,21.61,0,0,1,.5,3.15,6.58,6.58,0,0,0,1.1-3.5,8.26,8.26,0,0,0-1.47-3.22,12.13,12.13,0,0,1,3.91.29c1.45.5,3.79,1.62,3.79,1.62a6.52,6.52,0,0,0-1.5-2.21,12.8,12.8,0,0,0-2.88-1.46l6.46.46-3-1.25,6.17.09a1.58,1.58,0,0,1,.2-2,15.94,15.94,0,0,1,3.59-1.8l-6.67-.75a8.14,8.14,0,0,0,4.88-2.08c2.25-2,2.33-4.12,3.5-5.12a12,12,0,0,1,2.75-1.67l-2.55-1a11,11,0,0,1,3-1.67,13.4,13.4,0,0,1,3.67-.66s-.94-3.82,1.63-9.57a42.69,42.69,0,0,1,5.56-9.31l-2.94-.19a8.52,8.52,0,0,1,.38-2.31,5.83,5.83,0,0,1,2.12-2.31l-3.08-2.15,4.93-2.66a13.39,13.39,0,0,1-3.43-.46,7.6,7.6,0,0,1-2.79-1.59l3.45-.93a15.75,15.75,0,0,1-3.2-1.52,7,7,0,0,1-2.36-2.67l5.63.1s-2.9-.81-4.65-5.18a26.2,26.2,0,0,1-1.94-6.94,4.51,4.51,0,0,0,2.25-.69,5.93,5.93,0,0,0,1.25-1.56s-2.2.51-3.4-.49a4.57,4.57,0,0,1-1.5-2.23,3.31,3.31,0,0,0,4.31-1.34s-2,.35-3.72-2.07a28,28,0,0,1-2.62-4.5L211,158s-2,.63-2.94-.47a6.79,6.79,0,0,1-1.31-2.22l2.1-1.37s-2.22.16-3.25-.88-2.16-2.37-2.16-2.37a10.34,10.34,0,0,0,.37,6.19,32.26,32.26,0,0,0,2.94,5.28L203,159.53a32,32,0,0,0,2.12,4.75,33.64,33.64,0,0,0,2.22,3.35l-2.87-1.47a6.72,6.72,0,0,0,.4,2.28c.44,1.12,1,2.56,1,2.56s-1.82-.75-4.94-9.28-2.35-11.75,0-12.88a51.48,51.48,0,0,1,5.06-2s-2.28-3.75-4.53-3.75-2.41,3.25-6.31,3.25-1.66-1.68-1.66-1.68a7.31,7.31,0,0,1-2.79.16c-1.83-.16-2.25-1-2.25-1a12.48,12.48,0,0,0,3.21-.29,9.89,9.89,0,0,0,2.58-1l-3.25-.79s1.13,0,1.92-.08a3.92,3.92,0,0,0,1.58-.67,6.69,6.69,0,0,1-2.42-1,2.37,2.37,0,0,1-1-1.54,12.56,12.56,0,0,0,3,1,9.53,9.53,0,0,0,3.33-.2,7,7,0,0,1-2.63-.92,3.08,3.08,0,0,1-1.08-1.58,2.8,2.8,0,0,0,1.83-.46,3,3,0,0,0,.92-1.38s-2.83.75-4.71-.16a5.29,5.29,0,0,1-2.37-1.88,9.44,9.44,0,0,1,3-.54,11.08,11.08,0,0,1,3.08.5,7.55,7.55,0,0,0-3.33-2.46c-2.13-.75-5.34-6.25-5.34-6.25l2.5.79-.41-2.83a4.47,4.47,0,0,0,2.41,1.12,4.83,4.83,0,0,0,2.59-.58,11,11,0,0,1-2.88-1.87,6.57,6.57,0,0,1-1.62-2.5,4.37,4.37,0,0,0,2,.66,6.62,6.62,0,0,0,2-.12,6.69,6.69,0,0,1-3.92-3.25c-1.54-2.71-1.33-4.09,2.5-5.54s9.79-4,11.21-5.63a8.66,8.66,0,0,1,2.92-2.17l-4-.37A11.12,11.12,0,0,1,207,97.17a59,59,0,0,1,8.21-3.42l-1.63-1.12s1.75,0,4.59-4.84a105.23,105.23,0,0,0,5-9.71,29.66,29.66,0,0,0-.25,7.09A16.62,16.62,0,0,0,224.33,91s-2.25.29-3,1.63-.59,2.41-2.13,3.12a10.94,10.94,0,0,1-2.87.88,6.3,6.3,0,0,0,3.62.16,16.23,16.23,0,0,1,4.46-.58,3.45,3.45,0,0,1-.38,1.58,6.45,6.45,0,0,1-1.5,1.71,5.34,5.34,0,0,1,2.09-.25,3.39,3.39,0,0,1,1.87,1.17,2.7,2.7,0,0,1-1.87,1.42,8.14,8.14,0,0,1-2.17.33s1.5,1.33,1.54,2.42a2.8,2.8,0,0,1-1.12,2,8.7,8.7,0,0,1,2.87-.08,4.3,4.3,0,0,1,2.21,1.67,32.57,32.57,0,0,0-3.94,2.46,7.86,7.86,0,0,0-2.31,3.06,9.18,9.18,0,0,1,3.25-1.88,5.9,5.9,0,0,1,3.5.07l-3.5,2.37,2.81,2.69-2.31,1.94,1.63,1.5s-.38.93-2.44,1.93a11.36,11.36,0,0,1-3.63,1.13l5.07.81s-2,.13-2.38,1.56a12.46,12.46,0,0,0,.13,4.07l-2.5-.88.43,2.81-1.81.25V135l-1.94.25v3.38l-2.5-.44-.75,2.12-1.81-.87-.62,3.25-2.5-.38a9.3,9.3,0,0,0-1.13,5.88c.44,3.5,3.94,4.94,3.94,4.94a4.68,4.68,0,0,1,1.56-3.25,4.2,4.2,0,0,1,3.63-1.3l-2.21-2.16a6.37,6.37,0,0,0,3.75-.88c1.91-1.12,3.5-2,3.5-2l-3.63-.87,4-.71a3.87,3.87,0,0,1,1.42-4.17,15.47,15.47,0,0,1,4.79-2.58s-2.16-1-1.12-2.83,5.5-3.92,5.5-3.92-3.75-.5-2.13-2.21a19.8,19.8,0,0,1,4-3s-3.29-1-2-3.12a31.26,31.26,0,0,1,3.13-4s-2.38.42-1.83-2S236.88,107.54,237.25,105.13Zm-75.42,133.2s2.13-1.87-1.29-4.41-4.25.54-4.25.54a7.15,7.15,0,0,1-.66-2.33c-.21-1.5,1.2-4.42,3.37-4.34s7,4.42,7.13,7.09S161.83,238.33,161.83,238.33Zm32.92-33.77a5.59,5.59,0,0,0-2.31,1.38,5,5,0,0,0-.88,2,1.87,1.87,0,0,1,1.94.56,3.6,3.6,0,0,1,.81,2.13,5.9,5.9,0,0,0-2.93.37,3.8,3.8,0,0,0-2.25,1.81,4.86,4.86,0,0,1,3.06.5,4.45,4.45,0,0,1,1.5,2.07,7.77,7.77,0,0,1-2.81,1.81c-2.13.94-3.69,1.5-3.69,1.5a8.51,8.51,0,0,0,2.56.75,17,17,0,0,0,2.31.06A7.07,7.07,0,0,1,190,222c-1.37,1-3.12,2-3.12,2a3.34,3.34,0,0,0,1.25.66,12.34,12.34,0,0,0,1.9.37,16.17,16.17,0,0,0-2.28,1.78,6.09,6.09,0,0,0-1.16,1.85,8.53,8.53,0,0,1-3.71-3.13c-1.16-2.06-.44-3.59-1.5-6s-6.1-6.9-6.1-6.9a7.63,7.63,0,0,0-.28-4.72c-1-2.35-2.34-3.57-1.78-4.91s3.12-1.22,3.12-1.22a21.46,21.46,0,0,0-3.59-4.07,27.69,27.69,0,0,1-4.25-5.21,7.77,7.77,0,0,0,2.13.63,3.4,3.4,0,0,0,1.75-.21s-2.09-1.17-3.42-5-4.63-11-4.63-11a3.54,3.54,0,0,1,2,.67,8.44,8.44,0,0,1,1.63,1.5,25.07,25.07,0,0,1-.54-4.09,24.72,24.72,0,0,1,.71-4.41l.75,2.75a8.58,8.58,0,0,0,1.41-2.46,11.27,11.27,0,0,0,.4-3.73,7.75,7.75,0,0,1,.75,3.75c-.25,1.69-.94,3.56-.44,6.31s-1.81,4.75.63,8.94,7.87,11.31,8.25,13.5,2.43,4.37,6.93,4A20.49,20.49,0,0,1,194.75,204.56Zm-8.91-48.87a2.84,2.84,0,0,1-2.09,0c-1-.46-6.12-2.69-6,1.5.07,2.51,6.44.94,6.44.94s-.66,2.57-2.88,2.87c-2,.27-4.86.16-6.68-1.12-1-.71-2-3.42-.75-5.75.75-1.44,3.49-3.24,9-2.09C187.38,153,185.84,155.69,185.84,155.69Z" transform="translate(0)" fill="#212121"/></g><g id="left-2" data-name="left"><path d="M64.88,114.08c.54,2.42-1.84,2-1.84,2a31.58,31.58,0,0,1,3.13,4c1.33,2.13-2,3.13-2,3.13a19.8,19.8,0,0,1,4,3c1.62,1.71-2.13,2.21-2.13,2.21s4.46,2,5.5,3.92-1.12,2.83-1.12,2.83a15.47,15.47,0,0,1,4.79,2.58A3.87,3.87,0,0,1,76.67,142l4,.71-3.63.87s1.59.84,3.5,2a6.37,6.37,0,0,0,3.75.88l-2.2,2.16a4.2,4.2,0,0,1,3.62,1.29,4.7,4.7,0,0,1,1.56,3.25s3.5-1.43,3.94-4.93a9.33,9.33,0,0,0-1.12-5.88l-2.5.38L87,139.44l-1.81.87-.75-2.12-2.5.43v-3.37L80,135v-2.94l-1.81-.25.44-2.81-2.5.87a12.21,12.21,0,0,0,.12-4.06c-.37-1.44-2.37-1.56-2.37-1.56l5.06-.81a11.43,11.43,0,0,1-3.63-1.13c-2.06-1-2.43-1.94-2.43-1.94l1.62-1.5-2.31-1.93L75,114.25l-3.5-2.38a6,6,0,0,1,3.5-.06,8.91,8.91,0,0,1,3.25,1.88,7.86,7.86,0,0,0-2.31-3.07A31.88,31.88,0,0,0,72,108.17a4.3,4.3,0,0,1,2.21-1.67,8.7,8.7,0,0,1,2.87.08,2.8,2.8,0,0,1-1.12-2c0-1.08,1.54-2.41,1.54-2.41a8,8,0,0,1-2.17-.34,2.71,2.71,0,0,1-1.87-1.41,3.39,3.39,0,0,1,1.87-1.17,5.3,5.3,0,0,1,2.09.25,6.45,6.45,0,0,1-1.5-1.71,3.45,3.45,0,0,1-.38-1.58,16.23,16.23,0,0,1,4.46.58,6.34,6.34,0,0,0,3.63-.16,11,11,0,0,1-2.88-.88c-1.54-.71-1.42-1.79-2.12-3.12s-3-1.63-3-1.63a16.62,16.62,0,0,0,1.41-5.87,29.66,29.66,0,0,0-.25-7.09,105.23,105.23,0,0,0,5,9.71c2.84,4.79,4.59,4.83,4.59,4.83l-1.63,1.13A59,59,0,0,1,93,97.17a11.12,11.12,0,0,1,4.79,4.54l-4,.37a8.66,8.66,0,0,1,2.92,2.17c1.42,1.58,7.38,4.17,11.21,5.63s4,2.83,2.5,5.54a6.69,6.69,0,0,1-3.92,3.25,6.62,6.62,0,0,0,2,.12,4.37,4.37,0,0,0,2-.66,6.57,6.57,0,0,1-1.62,2.5,11,11,0,0,1-2.88,1.87,4.83,4.83,0,0,0,2.59.58,4.47,4.47,0,0,0,2.41-1.12l-.41,2.83,2.5-.79s-3.21,5.5-5.34,6.25a7.55,7.55,0,0,0-3.33,2.46,11.08,11.08,0,0,1,3.08-.5,9.44,9.44,0,0,1,3,.54,5.29,5.29,0,0,1-2.37,1.88c-1.88.91-4.71.16-4.71.16a3,3,0,0,0,.92,1.38,2.81,2.81,0,0,0,1.83.46,3.08,3.08,0,0,1-1.08,1.58,7.15,7.15,0,0,1-2.63.91,9.45,9.45,0,0,0,3.34.21,12.57,12.57,0,0,0,3-1,2.32,2.32,0,0,1-1,1.54,6.69,6.69,0,0,1-2.42,1,3.92,3.92,0,0,0,1.58.67c.8.08,1.92.08,1.92.08l-3.25.79a9.89,9.89,0,0,0,2.58,1,12.48,12.48,0,0,0,3.21.29s-.41.8-2.25,1a7.31,7.31,0,0,1-2.79-.16s2.25,1.68-1.66,1.68-4.06-3.25-6.31-3.25S94,146.81,94,146.81a51.48,51.48,0,0,1,5.06,2c2.35,1.13,3.13,4.35,0,12.88S94.13,171,94.13,171s.59-1.44,1-2.56a6.72,6.72,0,0,0,.4-2.28l-2.87,1.46a32.65,32.65,0,0,0,2.22-3.34A32,32,0,0,0,97,159.53l-3.81,2.66a31.93,31.93,0,0,0,2.94-5.28,10.34,10.34,0,0,0,.37-6.19s-1.12,1.34-2.15,2.37-3.25.88-3.25.88l2.09,1.37a6.58,6.58,0,0,1-1.31,2.22c-1,1.1-2.94.47-2.94.47l1.41,1.78a28.62,28.62,0,0,1-2.63,4.5C86,166.73,84,166.37,84,166.37a5.4,5.4,0,0,0,1.72,1.47,5.33,5.33,0,0,0,2.59-.12,4.57,4.57,0,0,1-1.5,2.23c-1.2,1-3.4.49-3.4.49A6.1,6.1,0,0,0,84.69,172a4.63,4.63,0,0,0,2.25.69A26.1,26.1,0,0,1,85,179.62c-1.75,4.38-4.65,5.19-4.65,5.19l5.63-.1a7,7,0,0,1-2.35,2.66,16.35,16.35,0,0,1-3.21,1.53l3.46.93a7.69,7.69,0,0,1-2.8,1.59,13.14,13.14,0,0,1-3.43.45l4.93,2.67-3.08,2.15A5.9,5.9,0,0,1,81.63,199a8.73,8.73,0,0,1,.37,2.31l-2.94.19a42.93,42.93,0,0,1,5.57,9.31c2.56,5.75,1.62,9.56,1.62,9.56a13.63,13.63,0,0,1,3.67.67,11,11,0,0,1,3,1.67l-2.54,1a12,12,0,0,1,2.75,1.66c1.16,1,1.25,3.09,3.5,5.13a8.12,8.12,0,0,0,4.87,2.08l-6.67.75a16.22,16.22,0,0,1,3.59,1.79,1.57,1.57,0,0,1,.21,2l6.16-.08-3,1.25,6.46-.46a12.8,12.8,0,0,0-2.88,1.46,6.52,6.52,0,0,0-1.5,2.21s2.34-1.12,3.8-1.62a12.07,12.07,0,0,1,3.9-.29,8.26,8.26,0,0,0-1.47,3.22,6.67,6.67,0,0,0,1.1,3.5,23.13,23.13,0,0,1,.5-3.15,6.33,6.33,0,0,1,1.28-1.91,14.66,14.66,0,0,0,0,2.91,5,5,0,0,0,1.5,2.15,4,4,0,0,1-.16-1.78c.19-.72,1.47-.5,3.82-.22a4.52,4.52,0,0,0,3.5-.78l-2.72,5s4.18-2.87,5.87-1.47,1.25,4.57,1.25,4.57l4.6-.88s0,1.28,0,2.53a15.74,15.74,0,0,0,.34,3s.56-1.12,1.16-2.09a11.56,11.56,0,0,1,2-2.16,12.76,12.76,0,0,0-.07,1.6,8.59,8.59,0,0,0,.19,1.31l2-1.19a14.31,14.31,0,0,0-.59,2.35,3.51,3.51,0,0,0,.28,1.68l1.69-1.34a16.09,16.09,0,0,0-.22,1.91,5.82,5.82,0,0,0,.4,1.62,8.61,8.61,0,0,1,2.19-1.16,6.53,6.53,0,0,1,2.53,0,10.9,10.9,0,0,0-1.44,1.53,5.85,5.85,0,0,0-.68,1.69s1.34-.72,3.72-1.69a46.46,46.46,0,0,1,4.87-1.62v-4.34l-3.69-.79,3.69-.65v-3.35a8.94,8.94,0,0,1-4.28,1.32A30.66,30.66,0,0,1,133.19,248a12.59,12.59,0,0,1-6.53-6s.87.78,2.4,1.94,8.07,3.19,12.75,3.19a13.1,13.1,0,0,0,7.19-1.78V214.75a25.47,25.47,0,0,0-10.08,1.75c-3.75,1.5-12.67,12.08-12.67,12.08a82.9,82.9,0,0,1,3.58-8.66c1.17-1.92,5.84-5.92,7.84-7.5S149,210,149,210V152.67a26.47,26.47,0,0,1-2.58-10.84A22.87,22.87,0,0,1,149,131.5V91.67a35.7,35.7,0,0,0-3.79-8.09,7.7,7.7,0,0,0-5.67-3.2l1.54,2.54-4.29-1.42-1.33,1.92L134,81.79l-.5,1.38-5-.84,1,1.67a20.94,20.94,0,0,1-4,.08,7.78,7.78,0,0,1-4-1.7,9.58,9.58,0,0,1,1.13,2.5,3.11,3.11,0,0,1,0,1.79,28.52,28.52,0,0,0-3.75-.92,11.41,11.41,0,0,0-4.46,0s1.13,2.46.13,3.54a5.16,5.16,0,0,1-2.46,1.38s2.12,2,6.12,10.33,1.67,6.92-.79,5.08-2.92-4.54-8.21-10.58a123.59,123.59,0,0,0-12.58-12l.12,2.37s-1.41-4.41-16-13.33S65.13,65.29,65.58,66a25.81,25.81,0,0,1,2,3,8.81,8.81,0,0,1,.88,2.75l-1.75.37.67,3.59L65,75.5l1.71,6.12-3.08-1.83a20.83,20.83,0,0,1,1.87,3.75c.5,1.58,1.17,3.88,1.17,3.88l-2.5-2.71a11.66,11.66,0,0,0,.16,2.91,16.11,16.11,0,0,0,1.13,3.63l-1.63.08L65.08,95l-1.7-.83a17.37,17.37,0,0,0-.05,4.58,27.94,27.94,0,0,0,1.5,5.92l-2.5-3.92a38.36,38.36,0,0,0,.42,4.33C63.13,107.54,64.33,111.67,64.88,114.08Zm69,120.8c.16-2.67,5-7,7.12-7.09s3.58,2.84,3.38,4.34a7.29,7.29,0,0,1-.67,2.33s-.83-3.08-4.25-.54-1.29,4.41-1.29,4.41S133.71,237.54,133.88,234.88Zm-20.69-31.19c4.5.37,6.56-1.81,6.94-4s5.81-9.31,8.25-13.5.12-6.19.62-8.94-.19-4.62-.44-6.31a7.75,7.75,0,0,1,.75-3.75,11.27,11.27,0,0,0,.4,3.73,8.46,8.46,0,0,0,1.42,2.46l.75-2.75a25,25,0,0,1,.7,4.41,25.07,25.07,0,0,1-.54,4.09,8.44,8.44,0,0,1,1.63-1.5,3.54,3.54,0,0,1,2-.67s-3.29,7.12-4.63,11-3.41,5-3.41,5a3.37,3.37,0,0,0,1.75.21,7.77,7.77,0,0,0,2.12-.63,27.69,27.69,0,0,1-4.25,5.21,21.46,21.46,0,0,0-3.59,4.07s2.56-.12,3.12,1.22-.78,2.56-1.78,4.91a7.63,7.63,0,0,0-.28,4.72s-5,4.5-6.09,6.9-.35,3.94-1.5,6a8.59,8.59,0,0,1-3.72,3.13,6.09,6.09,0,0,0-1.16-1.85A16.17,16.17,0,0,0,110,225a12.6,12.6,0,0,0,1.91-.37,3.45,3.45,0,0,0,1.25-.66s-1.75-1-3.13-2a7.21,7.21,0,0,1-2.06-2.5,17,17,0,0,0,2.31-.06,8.51,8.51,0,0,0,2.56-.75s-1.56-.56-3.68-1.5a7.77,7.77,0,0,1-2.82-1.81,4.45,4.45,0,0,1,1.5-2.07,4.89,4.89,0,0,1,3.07-.5,3.8,3.8,0,0,0-2.25-1.81,5.94,5.94,0,0,0-2.94-.37,3.6,3.6,0,0,1,.81-2.13,1.87,1.87,0,0,1,1.94-.56,5,5,0,0,0-.88-2,5.53,5.53,0,0,0-2.31-1.38A20.49,20.49,0,0,1,113.19,203.69Zm4-51.65c5.46-1.15,8.21.65,9,2.09,1.21,2.33.25,5-.75,5.75-1.82,1.28-4.67,1.39-6.69,1.12-2.22-.3-2.88-2.87-2.88-2.87s6.37,1.57,6.44-.94c.13-4.19-5-2-6-1.5a2.84,2.84,0,0,1-2.09,0S112.63,153,117.17,152Z" transform="translate(0)" fill="#212121"/></g></g></g><g id="frame"><rect width="300" height="300" fill="none"/></g></svg>