<svg xmlns="http://www.w3.org/2000/svg" viewBox="0 0 30 30"><path d="M18.81,13.37c.11-.18.2-.72.36-.88s-.33,1.59-.1,1.36a7.54,7.54,0,0,0,.75-1.79c.23-.65.88-1.92,1.78-2.19s1.15-.15,1.15-.68-.45-.34-.45-.45.5.06.75.06.4-.21.4-.51a1.4,1.4,0,0,0-1-1.21c-.79-.27-.93.26-1.48.34s-1,.24-1.63,1.38A10.08,10.08,0,0,0,18.81,13.37Z" transform="translate(0)" fill="#212121"/><path d="M19.71,13.7c.13.13.2-1.21,1.16-2.15s1.23-.63,1.53-.83.23-.58-.22-.58-1,.12-1.64,1A4.68,4.68,0,0,0,19.71,13.7Z" transform="translate(0)" fill="#212121"/><path d="M20.38,13.35a1.11,1.11,0,0,0,1.22,1.19c.83,0,1.39-.79,1.39-2s-.62-1.35-.95-1.35A2.46,2.46,0,0,0,20.38,13.35Z" transform="translate(0)" fill="#212121"/><path d="M15,16.17a4.14,4.14,0,0,1,2.62,1.29,5,5,0,0,0,2.2,1.38c.7,0,1.05-.35,1.05-.19a11,11,0,0,1-1.77,2,11.39,11.39,0,0,0-2.26,2.91c-.6,1-1.31,1.47-1.84,1.47Z" transform="translate(0)" fill="#212121"/><path d="M24.23,12.93c-.12-.12,0,.44-.72,1.26a4.55,4.55,0,0,1-1.17.94,2.27,2.27,0,0,1-2,.19,3,3,0,0,1-1.86-1.61,9.36,9.36,0,0,1-.25-1.8A6,6,0,0,1,18.41,10c.22-.73.95-2.4,1.89-2.78s.77-.68,0-1A14.11,14.11,0,0,0,15,5V15.17c.22,0,.54.63,1.28,1h0a21.8,21.8,0,0,1,2.6,1.73c.88.69,1.34.61,1.68.45s.88-.22.88.11-1.17,1.19-2,2.28a16.41,16.41,0,0,0-1.18,1.57c-.5.76-1.28,1.59-1.28,1.87s2.56,0,3.3-.62,1.65-.46,2.68-1.71a10.44,10.44,0,0,0,1.92-5.28A6.64,6.64,0,0,0,24.23,12.93Z" transform="translate(0)" fill="#212121"/><path d="M11.19,13.37c-.11-.18-.2-.72-.36-.88s.33,1.59.1,1.36a7.54,7.54,0,0,1-.75-1.79C10,11.41,9.3,10.14,8.4,9.87s-1.15-.15-1.15-.68.45-.34.45-.45S7.2,8.8,7,8.8s-.4-.21-.4-.51a1.4,1.4,0,0,1,1-1.21c.79-.27.93.26,1.48.34s1,.24,1.63,1.38A10.08,10.08,0,0,1,11.19,13.37Z" transform="translate(0)" fill="#212121"/><path d="M10.29,13.7c-.13.13-.2-1.21-1.16-2.15s-1.23-.63-1.53-.83-.23-.58.22-.58,1,.12,1.64,1A4.68,4.68,0,0,1,10.29,13.7Z" transform="translate(0)" fill="#212121"/><path d="M9.62,13.35A1.11,1.11,0,0,1,8.4,14.54c-.83,0-1.39-.79-1.39-2s.62-1.35,1-1.35A2.46,2.46,0,0,1,9.62,13.35Z" transform="translate(0)" fill="#212121"/><path d="M15,16.17a4.14,4.14,0,0,0-2.62,1.29,5,5,0,0,1-2.2,1.38c-.7,0-1-.35-1-.19a11,11,0,0,0,1.77,2,11.39,11.39,0,0,1,2.26,2.91c.6,1,1.31,1.47,1.84,1.47Z" transform="translate(0)" fill="#212121"/><path d="M5.77,12.93c.12-.12,0,.44.72,1.26a4.55,4.55,0,0,0,1.17.94,2.27,2.27,0,0,0,2,.19,3,3,0,0,0,1.86-1.61,9.36,9.36,0,0,0,.25-1.8A6,6,0,0,0,11.59,10c-.22-.73-.95-2.4-1.89-2.78s-.77-.68,0-1A14.11,14.11,0,0,1,15,5V15.17c-.22,0-.54.63-1.28,1h0a21.8,21.8,0,0,0-2.6,1.73c-.88.69-1.34.61-1.68.45s-.88-.22-.88.11,1.17,1.19,2,2.28a16.41,16.41,0,0,1,1.18,1.57c.5.76,1.28,1.59,1.28,1.87s-2.56,0-3.3-.62-1.65-.46-2.68-1.71a10.44,10.44,0,0,1-1.92-5.28A6.64,6.64,0,0,1,5.77,12.93Z" transform="translate(0)" fill="#212121"/><rect width="30" height="30" fill="none"/></svg>