<!-- Copyright (c) 2023 Jan Stehno -->
<svg xmlns="http://www.w3.org/2000/svg" viewBox="0 0 300 300">
    <title>willowptarmigan</title>
    <g id="willowptarmigan">
        <g id="right">
            <path
                d="M188.14,133.68c1-1.73,1.93-7.19,3.54-8.79s-3.28,15.93-.93,13.58,5.11-11.44,7.44-17.91S207,101.35,216,98.75s11.58-1.54,11.58-6.84S223,88.51,223,87.4s4.93.56,7.49.56,3.95-2,3.95-5-2.23-9.49-10.14-12.14-9.28,2.61-14.85,3.4S199.77,76.56,193.17,88,186.42,136.61,188.14,133.68Z"
                transform="translate(0)" fill="#212121" />
            <path
                d="M197.07,137c1.3,1.3,2.05-12.1,11.58-21.49S221,109.17,224,107.21s2.32-5.81-2.14-5.81-9.86,1.19-16.38,10.36S196,135.91,197.07,137Z"
                transform="translate(0)" fill="#212121" />
            <path
                d="M203.77,133.49c0,6.84,3.91,11.91,12.23,11.91s13.86-7.91,13.86-20.09-6.18-13.55-9.44-13.55S203.77,120.38,203.77,133.49Z"
                transform="translate(0)" fill="#212121" />
            <path
                d="M150,161.69c8.56,0,16.63,4.64,26.16,12.95,9.79,8.53,17.92,13.8,22,13.8,7,0,10.5-3.59,10.5-1.89s-8.87,11-17.68,19.61c-11.93,11.63-16.62,19-22.58,29.1S155.28,250,150,250Z"
                transform="translate(0)" fill="#212121" />
            <path
                d="M242.28,129.31c-1.21-1.21-.14,4.42-7.21,12.6a44.57,44.57,0,0,1-11.63,9.37c-7.69,4.33-12.37,4.13-20.4,2s-16-9.57-18.6-16.11c-1.34-5.87-2.53-13-2.53-18,0-7.81.09-12.28,2.23-19.54s9.44-24,18.89-27.76,7.72-6.84,0-10.56S172.33,50,150,50V151.66c2.2,0,5.37,6.31,12.83,10.16h0c3.72,1.78,17.18,10.27,26,17.23s13.41,6.17,16.84,4.56,8.81-2.22,8.81,1.12-11.78,11.85-20.32,22.72c-4.63,5.9-6.92,8.14-11.85,15.72s-12.74,15.9-12.74,18.7,25.59.13,32.94-6.2,16.56-4.55,26.89-17.11,17.21-33.59,19.16-52.75S243.49,130.52,242.28,129.31Z"
                transform="translate(0)" fill="#212121" />
        </g>
        <g id="left">
            <path
                d="M111.86,133.68c-1-1.73-1.93-7.19-3.54-8.79s3.28,15.93.93,13.58-5.11-11.44-7.44-17.91S93,101.35,84,98.75s-11.58-1.54-11.58-6.84S77,88.51,77,87.4,72,88,69.48,88s-4-2-4-5,2.23-9.49,10.14-12.14S85,73.4,90.52,74.19s9.71,2.37,16.31,13.81S113.58,136.61,111.86,133.68Z"
                transform="translate(0)" fill="#212121" />
            <path
                d="M102.93,137c-1.3,1.3-2.05-12.1-11.58-21.49S79,109.17,76,107.21s-2.32-5.81,2.14-5.81,9.86,1.19,16.38,10.36S104,135.91,102.93,137Z"
                transform="translate(0)" fill="#212121" />
            <path
                d="M96.23,133.49c0,6.84-3.91,11.91-12.23,11.91s-13.86-7.91-13.86-20.09,6.18-13.55,9.44-13.55S96.23,120.38,96.23,133.49Z"
                transform="translate(0)" fill="#212121" />
            <path
                d="M150,161.69c-8.56,0-16.63,4.64-26.16,12.95-9.79,8.53-17.92,13.8-22,13.8-7,0-10.5-3.59-10.5-1.89s8.87,11,17.68,19.61c11.93,11.63,16.62,19,22.58,29.1S144.72,250,150,250Z"
                transform="translate(0)" fill="#212121" />
            <path
                d="M57.72,129.31c1.21-1.21.14,4.42,7.21,12.6a44.57,44.57,0,0,0,11.63,9.37c7.69,4.33,12.37,4.13,20.4,2s16-9.57,18.6-16.11c1.34-5.87,2.53-13,2.53-18,0-7.81-.09-12.28-2.23-19.54s-9.44-24-18.89-27.76S89.25,65,97,61.26,127.67,50,150,50V151.66c-2.2,0-5.37,6.31-12.83,10.16h0c-3.72,1.78-17.18,10.27-26,17.23s-13.41,6.17-16.84,4.56-8.81-2.22-8.81,1.12,11.78,11.85,20.32,22.72c4.63,5.9,6.92,8.14,11.85,15.72s12.74,15.9,12.74,18.7-25.59.13-32.94-6.2-16.56-4.55-26.89-17.11S53.34,185,51.39,165.82,56.51,130.52,57.72,129.31Z"
                transform="translate(0)" fill="#212121" />
        </g>
    </g>
    <g id="frame">
        <rect width="300" height="300" fill="none" />
    </g>
</svg>