<svg xmlns="http://www.w3.org/2000/svg" viewBox="0 0 30 30"><g id="woodbison"><g id="right"><path d="M15,.29A2.47,2.47,0,0,0,16,0l-.09.3a2.92,2.92,0,0,0,.83-.08,4.56,4.56,0,0,1,.95-.11L17.34.5h.82l-.09.27s.2,0,.49,0,.7-.13.7-.13L19,.89s.06.21.53.32a1.51,1.51,0,0,0,1,0,2.8,2.8,0,0,0,.38-.16l-.58.79a.6.6,0,0,0,.5-.1,4.67,4.67,0,0,0,.59-.57s.08.41.12.69.1.64.1.64l.21-.36a6.45,6.45,0,0,0,.68,1.15c.23.23.41.24.6,0s.38-.58.38-.58l.27.81a5.36,5.36,0,0,1,.15.58L24.27,4,24,5l.37-.12-.23.42.71.16a1.85,1.85,0,0,1-.68,1.13,4.46,4.46,0,0,1-1.64.54l.43-.55-1.31.78a1.18,1.18,0,0,1,.54.67A1.83,1.83,0,0,1,22,9.32c-.22.34-.4.43-.4.6s.44.72.44.72l-.49-.18-.08.17-.64-.14.28,1-.74-.6s.15.44.23.78a2.5,2.5,0,0,1,0,.69l-.27-.42-.06,1.79L20,12.66l-.22.95-.14-.47a2.33,2.33,0,0,0-.28.73,2.62,2.62,0,0,0,0,.73,1,1,0,0,0-.45-.51,1.47,1.47,0,0,0-.76-.09l.45.29-.85-.16.65.66-1.55-.64.1.36L16.24,14l.28.45-.31.07v.31l-.22,0-.05.31a1.17,1.17,0,0,0-.49.49c-.21.37-.44.89-.44.89Z" transform="translate(0)" fill="#212121"/><path d="M22.14,9.8a1.19,1.19,0,0,0,.49,1,1.73,1.73,0,0,0,1.58-.2,7.29,7.29,0,0,0,2.57-2,4.39,4.39,0,0,0,.7-2.26A5.88,5.88,0,0,0,27,4a7,7,0,0,0-1.27-1.76c-.26-.21-.23-.06,0,.41A3.05,3.05,0,0,1,26,4.34a4.19,4.19,0,0,1-.5,2.19,2.69,2.69,0,0,1-1.15,1.06A2.87,2.87,0,0,1,23.09,8c-.26,0-.28.09-.28.46a6.85,6.85,0,0,0,.07.83.59.59,0,0,0-.32.09C22.39,9.43,22.14,9.57,22.14,9.8Z" transform="translate(0)" fill="#212121"/><path d="M20.62,13.37c.12.12.56,0,.78-.22a.71.71,0,0,0,.06-.78c-.1-.1-.57.1-.69.28S20.55,13.3,20.62,13.37Z" transform="translate(0)" fill="#212121"/><path d="M21.9,13.16c-.09.37-.07.5.37-.12a8.32,8.32,0,0,0,.86-1.2c0-.14-.11-.15-.35-.15a.82.82,0,0,0-.62.56A6,6,0,0,0,21.9,13.16Z" transform="translate(0)" fill="#212121"/><path d="M22.14,15.3a2.1,2.1,0,0,1,.66.25l.63.35a.76.76,0,0,1,.09-.5.78.78,0,0,1,.8-.25,1.22,1.22,0,0,1,.62.46l0-.62.33.27s-.08-.64,0-.74.7.32.7.32a1.16,1.16,0,0,1,0-.66c.09-.24.44-.32.44-.32a2.87,2.87,0,0,1,0-1.12c.14-.4.78-.59.78-.59a3.08,3.08,0,0,1-1.41-.4,1.42,1.42,0,0,1-.54-1,3.54,3.54,0,0,1-.84.81,3.08,3.08,0,0,0-1.2,1.1c-.22.45-.18.92-.41,1.6A2.57,2.57,0,0,1,22.14,15.3Z" transform="translate(0)" fill="#212121"/><path d="M19.59,22.61a41.57,41.57,0,0,0,2.1-4.56,12.12,12.12,0,0,0-.17-2.23,18.76,18.76,0,0,1-.6,2,4,4,0,0,1-.67,1.06,7.91,7.91,0,0,0-.34,1.47c-.19.7-.37,1.1-.42,1.45S19.44,22.61,19.59,22.61Z" transform="translate(0)" fill="#212121"/><path d="M15,23.25c1,0,2.1,0,2.1.26s-.15.5-.81.72A3.06,3.06,0,0,1,15,24.4Z" transform="translate(0)" fill="#212121"/><path d="M15,25a.87.87,0,0,0,.32.37,1,1,0,0,0,.38.19l-.1-.47.4.47s.6-.45,1-.7a1.76,1.76,0,0,0,.67-.62c.08-.18.09-.25.17-.25s.61.59.91.76.24.55.39,1,.23.74.23.74l-.28-.08a3.08,3.08,0,0,1,0,.56,1.44,1.44,0,0,1-.17.53A1.14,1.14,0,0,0,18.8,27a.41.41,0,0,0-.28-.2l-.11.7a2.69,2.69,0,0,0-.18-.62.6.6,0,0,0-.21-.2l-.23.55-.24-.63a8.49,8.49,0,0,0-.27.93c-.06.32-.09.9-.09.9l-.46-.65-.19.75-.16-.33-.27.75L16,28.69l-.39,1,0-.54-.23.3-.06-.23a2.65,2.65,0,0,0-.17.32c-.07.18-.14.44-.14.44Z" transform="translate(0)" fill="#212121"/><path d="M17.08,23.08c0,.08.28,0,.36-.13a.67.67,0,0,0,0-.53.79.79,0,0,1,.27-.66c.19-.18.4-.35.42-.52s-.07-.3-.13-.19a.68.68,0,0,1-.47.38,1.05,1.05,0,0,1-1-.06.9.9,0,0,0-.59-.29c-.17,0-.26.27-.19.52a1.67,1.67,0,0,0,.54.93c.27.16.73,0,.84.12s.12.18.06.24S17.08,23,17.08,23.08Z" transform="translate(0)" fill="#212121"/><path d="M18.47,24.12c.22,0,.26-.29.38-.6a2,2,0,0,0,.27-1c0-.46-.1-.56-.1-.89a13.54,13.54,0,0,1,.69-2.36,11.91,11.91,0,0,0,.43-1.54l.27.32a10.2,10.2,0,0,1,.22-1.35,16.5,16.5,0,0,1,.9-2c.14-.24.43-.8.43-.8a2.21,2.21,0,0,1-.93.46,1.48,1.48,0,0,1-.88-.12l.33-.06a2,2,0,0,1-.33-.18,1.55,1.55,0,0,1-.18-.21.47.47,0,0,1-.18.21.64.64,0,0,1-.2.06,4.14,4.14,0,0,1,.05.53c0,.22-.09.27-.32.27s-.44-.38-.44-.38a.69.69,0,0,0-.22.32,4.39,4.39,0,0,0-.32.8,5.15,5.15,0,0,1-.73,1.62c-.28.37-.72.76-.72,1s.46.54.65.91,1,1,1.06,1.48a2.55,2.55,0,0,1-.17,1.46,3.27,3.27,0,0,0-.32,1.3C18.11,23.81,18.33,24.12,18.47,24.12Z" transform="translate(0)" fill="#212121"/><path d="M17.89,20.88c.1,0,.13-.07.13-.15s-.56-.52-.68-.84a2.73,2.73,0,0,0-.59-.93.91.91,0,0,1-.2-.95,8.71,8.71,0,0,0,.63-1.26c.09-.36.4-.57.58-.93s.2-.49.11-.63a.61.61,0,0,0-.58-.27,1.21,1.21,0,0,0-.85.33,4.32,4.32,0,0,0-1,1,3.7,3.7,0,0,0-.23,1.07A3.83,3.83,0,0,0,15.33,19a1.31,1.31,0,0,0,.92.6,2.23,2.23,0,0,1,1,.75C17.51,20.61,17.78,20.88,17.89,20.88Z" transform="translate(0)" fill="#212121"/></g><g id="left"><path d="M15,.29A2.47,2.47,0,0,1,14,0l.09.3a2.92,2.92,0,0,1-.83-.08,4.56,4.56,0,0,0-1-.11l.38.39h-.82l.09.27s-.2,0-.49,0-.7-.13-.7-.13L11,.89s-.06.21-.53.32a1.51,1.51,0,0,1-1,0,2.8,2.8,0,0,1-.38-.16l.58.79a.6.6,0,0,1-.5-.1,4.67,4.67,0,0,1-.59-.57s-.08.41-.12.69-.1.64-.1.64l-.21-.36a6.45,6.45,0,0,1-.68,1.15c-.23.23-.41.24-.6,0s-.38-.58-.38-.58-.18.53-.27.81a5.36,5.36,0,0,0-.15.58L5.73,4,6,5l-.37-.12.23.42-.71.16a1.85,1.85,0,0,0,.68,1.13,4.46,4.46,0,0,0,1.64.54l-.43-.55,1.31.78A1.18,1.18,0,0,0,7.83,8,1.83,1.83,0,0,0,8,9.32c.22.34.4.43.4.6s-.44.72-.44.72l.49-.18.08.17.64-.14-.28,1,.74-.6s-.15.44-.23.78a2.5,2.5,0,0,0,0,.69l.27-.42.06,1.79L10,12.66l.22.95.14-.47a2.33,2.33,0,0,1,.28.73,2.62,2.62,0,0,1,0,.73,1,1,0,0,1,.45-.51,1.47,1.47,0,0,1,.76-.09l-.45.29.85-.16-.65.66,1.55-.64-.1.36.71-.48-.28.45.31.07v.31l.22,0,.05.31a1.17,1.17,0,0,1,.49.49c.21.37.44.89.44.89Z" transform="translate(0)" fill="#212121"/><path d="M7.86,9.8a1.19,1.19,0,0,1-.49,1,1.73,1.73,0,0,1-1.58-.2,7.29,7.29,0,0,1-2.57-2,4.39,4.39,0,0,1-.7-2.26A5.88,5.88,0,0,1,3.05,4,7,7,0,0,1,4.32,2.19c.26-.21.23-.06,0,.41A3.05,3.05,0,0,0,4,4.34a4.19,4.19,0,0,0,.5,2.19A2.69,2.69,0,0,0,5.64,7.59,2.87,2.87,0,0,0,6.91,8c.26,0,.28.09.28.46a6.85,6.85,0,0,1-.07.83.59.59,0,0,1,.32.09C7.61,9.43,7.86,9.57,7.86,9.8Z" transform="translate(0)" fill="#212121"/><path d="M9.38,13.37c-.12.12-.56,0-.78-.22a.71.71,0,0,1-.06-.78c.1-.1.57.1.69.28S9.45,13.3,9.38,13.37Z" transform="translate(0)" fill="#212121"/><path d="M8.1,13.16c.09.37.07.5-.37-.12a8.32,8.32,0,0,1-.86-1.2c0-.14.11-.15.35-.15a.82.82,0,0,1,.62.56A6,6,0,0,1,8.1,13.16Z" transform="translate(0)" fill="#212121"/><path d="M7.86,15.3a2.1,2.1,0,0,0-.66.25l-.63.35a.76.76,0,0,0-.09-.5.78.78,0,0,0-.8-.25,1.22,1.22,0,0,0-.62.46l0-.62-.33.27s.08-.64,0-.74-.7.32-.7.32a1.16,1.16,0,0,0,0-.66c-.09-.24-.44-.32-.44-.32a2.87,2.87,0,0,0,0-1.12c-.14-.4-.78-.59-.78-.59a3.08,3.08,0,0,0,1.41-.4,1.42,1.42,0,0,0,.54-1,3.54,3.54,0,0,0,.84.81,3.08,3.08,0,0,1,1.2,1.1c.22.45.18.92.41,1.6A2.57,2.57,0,0,0,7.86,15.3Z" transform="translate(0)" fill="#212121"/><path d="M10.41,22.61a41.57,41.57,0,0,1-2.1-4.56,12.12,12.12,0,0,1,.17-2.23,18.76,18.76,0,0,0,.6,2,4,4,0,0,0,.67,1.06,7.91,7.91,0,0,1,.34,1.47c.19.7.37,1.1.42,1.45S10.56,22.61,10.41,22.61Z" transform="translate(0)" fill="#212121"/><path d="M15,23.25c-1,0-2.1,0-2.1.26s.15.5.81.72A3.06,3.06,0,0,0,15,24.4Z" transform="translate(0)" fill="#212121"/><path d="M15,25a.87.87,0,0,1-.32.37,1,1,0,0,1-.38.19l.1-.47-.4.47s-.6-.45-1-.7a1.76,1.76,0,0,1-.67-.62c-.08-.18-.09-.25-.17-.25s-.61.59-.91.76-.24.55-.39,1-.23.74-.23.74l.28-.08a3.08,3.08,0,0,0,0,.56,1.44,1.44,0,0,0,.17.53A1.14,1.14,0,0,1,11.2,27a.41.41,0,0,1,.28-.2l.11.7a2.69,2.69,0,0,1,.18-.62.6.6,0,0,1,.21-.2l.23.55.24-.63a8.49,8.49,0,0,1,.27.93c.06.32.09.9.09.9l.46-.65.19.75.16-.33.27.75.14-.25.39,1,0-.54.23.3.06-.23a2.65,2.65,0,0,1,.17.32c.07.18.14.44.14.44Z" transform="translate(0)" fill="#212121"/><path d="M12.92,23.08c0,.08-.28,0-.36-.13a.67.67,0,0,1-.05-.53.79.79,0,0,0-.27-.66c-.19-.18-.4-.35-.42-.52s.07-.3.13-.19a.68.68,0,0,0,.47.38,1.05,1.05,0,0,0,1-.06.9.9,0,0,1,.59-.29c.17,0,.26.27.19.52a1.67,1.67,0,0,1-.54.93c-.27.16-.73,0-.84.12s-.12.18-.06.24S12.92,23,12.92,23.08Z" transform="translate(0)" fill="#212121"/><path d="M11.53,24.12c-.22,0-.26-.29-.38-.6a2,2,0,0,1-.27-1c0-.46.1-.56.1-.89a13.54,13.54,0,0,0-.69-2.36,11.91,11.91,0,0,1-.43-1.54l-.27.32a10.2,10.2,0,0,0-.22-1.35,16.5,16.5,0,0,0-.9-2c-.14-.24-.43-.8-.43-.8a2.21,2.21,0,0,0,.93.46,1.48,1.48,0,0,0,.88-.12l-.33-.06A2,2,0,0,0,9.85,14a1.55,1.55,0,0,0,.18-.21.47.47,0,0,0,.18.21.64.64,0,0,0,.2.06,4.14,4.14,0,0,0-.05.53c0,.22.09.27.32.27s.44-.38.44-.38a.69.69,0,0,1,.22.32,4.39,4.39,0,0,1,.32.8,5.15,5.15,0,0,0,.73,1.62c.28.37.72.76.72,1s-.46.54-.65.91-1,1-1.06,1.48a2.55,2.55,0,0,0,.17,1.46,3.27,3.27,0,0,1,.32,1.3C11.89,23.81,11.67,24.12,11.53,24.12Z" transform="translate(0)" fill="#212121"/><path d="M12.11,20.88c-.1,0-.13-.07-.13-.15s.56-.52.68-.84a2.73,2.73,0,0,1,.59-.93.91.91,0,0,0,.2-.95,8.71,8.71,0,0,1-.63-1.26c-.09-.36-.4-.57-.58-.93s-.2-.49-.11-.63a.61.61,0,0,1,.58-.27,1.21,1.21,0,0,1,.85.33,4.32,4.32,0,0,1,1,1,3.7,3.7,0,0,1,.23,1.07A3.83,3.83,0,0,1,14.67,19a1.31,1.31,0,0,1-.92.6,2.23,2.23,0,0,0-1,.75C12.49,20.61,12.22,20.88,12.11,20.88Z" transform="translate(0)" fill="#212121"/></g></g><g id="frame"><rect width="30" height="30" fill="none"/></g></svg>