<svg xmlns="http://www.w3.org/2000/svg" viewBox="0 0 30 30"><path d="M15,16.76c1.23,0,1.57.13,1.89.47a9.94,9.94,0,0,1,.91,1.37,4.59,4.59,0,0,0-.15-.77c-.1-.3-.22-.3-.22-.44s.25-.2.59-.47a2.59,2.59,0,0,0,.53-.57l-.49.13a2.39,2.39,0,0,1,.33-.42l.38-.36a1.76,1.76,0,0,0-.54.24,3.63,3.63,0,0,0-.43.34,20.6,20.6,0,0,1,1.73-4.21,14.73,14.73,0,0,1,2.3-2.94l-.13,1.1.52-.49L22,11.07a5.83,5.83,0,0,0,.91-1.39c.43-.88.74-1.67.74-1.67a5.73,5.73,0,0,1-.74,2.73,40.32,40.32,0,0,1-2.51,3.82,8.56,8.56,0,0,0-1.53,4.1c0,1.32.25,1.05.25,1.88s-.16.89-.16.89A3.15,3.15,0,0,0,18.7,20c-.35-.75-.44-.7-.66-.7s-.48.38-.6.75a1.7,1.7,0,0,0-.05,1,.57.57,0,0,1,0,.54c-.09.14,0,.21.22.31a2.18,2.18,0,0,0,.59.12s-.56-.18-.56-.31.71-.34.87-.34a12.82,12.82,0,0,1,1.32,1.79L19.45,23a1.59,1.59,0,0,0,.06.43c.07.16.14.36.14.36l-.34-.07A2,2,0,0,1,19,24.82a4.88,4.88,0,0,1-.83,1.11l.38-.14s-.19.23-.43.47a3.78,3.78,0,0,1-.41.36,4,4,0,0,0,.05-.77,1.44,1.44,0,0,0-.45-1.14,2,2,0,0,0-.56-.44A2.39,2.39,0,0,1,17.63,26c0,1.11-.69,1.35-1.42,1.35s-1.13-.09-1.13-.71.19-.64.65-.93a1,1,0,0,0,.6-.94c0-.36-.24-.42-.24,0s0,.81-1.09.81v-3l1,1a4.08,4.08,0,0,0-.5-.77,4.71,4.71,0,0,0-.54-.56Z" transform="translate(0)" fill="#212121"/><path d="M15,27.61a17,17,0,0,0,1.87-.16A3.71,3.71,0,0,1,15,28Z" transform="translate(0)" fill="#212121"/><path d="M15,28.48a7.48,7.48,0,0,0,1.84-.64l0,.21a5,5,0,0,0,.64-.62l.64-.77v.23a2.87,2.87,0,0,0,.77-1.08c.29-.69.39-1.22.49-1.33s.61.24.61.37v.7l-.13-.16a2.78,2.78,0,0,1-.33,1.26,5.79,5.79,0,0,1-.59,1l-.09-.18a1.93,1.93,0,0,1-.59,1,3.33,3.33,0,0,1-1.15.85l0-.26-.85.6-.06-.25A1.77,1.77,0,0,1,15,30Z" transform="translate(0)" fill="#212121"/><path d="M17.54,20.74a.52.52,0,0,0,.49.55c.35,0,.57-.18.57-.78s-.38-1-.56-1-.19.32,0,.32.28.28.28.64S18.17,21,18,21a.42.42,0,0,1-.32-.37C17.72,20.42,17.54,20.24,17.54,20.74Z" transform="translate(0)" fill="#212121"/><path d="M17.21,17.08c.13,0,0-1,0-1.21s.57-.62.57-.62l-.43,0,.32-.39L17,15s.41-1.76,1.34-4.65a23.43,23.43,0,0,1,1.91-4.49l-.62.44.15-.58L19,6.51a23.34,23.34,0,0,1,1.37-3.35c.8-1.55,1.5-1.78,2-2a1.73,1.73,0,0,1,.88-.13s-1,.58-1,.81S23,2.3,23.34,3a4.46,4.46,0,0,1,.58,2.28c0,1.15,0,2.3,0,2.3a7.5,7.5,0,0,0,.43-3.09A7.18,7.18,0,0,0,23.43.5,1.35,1.35,0,0,0,21.48.33,11.05,11.05,0,0,0,18.19,5a26.89,26.89,0,0,0-1.47,6.78,25.41,25.41,0,0,1-.44,3.57c-.17.62-.32.68-.32.88s.35,0,.69.3S17.1,17.08,17.21,17.08Z" transform="translate(0)" fill="#212121"/><path d="M15,16.76c-1.23,0-1.57.13-1.89.47a9.94,9.94,0,0,0-.91,1.37,4.59,4.59,0,0,1,.15-.77c.1-.3.22-.3.22-.44s-.25-.2-.59-.47a2.59,2.59,0,0,1-.53-.57l.49.13a2.39,2.39,0,0,0-.33-.42l-.38-.36a1.76,1.76,0,0,1,.54.24,3.63,3.63,0,0,1,.43.34,20.6,20.6,0,0,0-1.73-4.21,14.73,14.73,0,0,0-2.3-2.94l.13,1.1-.52-.49L8,11.07a5.83,5.83,0,0,1-.91-1.39C6.64,8.8,6.33,8,6.33,8a5.73,5.73,0,0,0,.74,2.73,40.32,40.32,0,0,0,2.51,3.82,8.56,8.56,0,0,1,1.53,4.1c0,1.32-.25,1.05-.25,1.88s.16.89.16.89A3.15,3.15,0,0,1,11.3,20c.35-.75.44-.7.66-.7s.48.38.6.75a1.7,1.7,0,0,1,0,1,.57.57,0,0,0,0,.54c.09.14,0,.21-.22.31a2.18,2.18,0,0,1-.59.12s.56-.18.56-.31-.71-.34-.87-.34a12.82,12.82,0,0,0-1.32,1.79l.39-.11a1.59,1.59,0,0,1-.06.43c-.07.16-.14.36-.14.36l.34-.07A2,2,0,0,0,11,24.82a4.88,4.88,0,0,0,.83,1.11l-.38-.14s.19.23.43.47a3.78,3.78,0,0,0,.41.36,4,4,0,0,1,0-.77,1.44,1.44,0,0,1,.45-1.14,2,2,0,0,1,.56-.44A2.39,2.39,0,0,0,12.37,26c0,1.11.69,1.35,1.42,1.35s1.13-.09,1.13-.71-.19-.64-.65-.93a1,1,0,0,1-.6-.94c0-.36.24-.42.24,0s0,.81,1.09.81v-3l-1,1a4.08,4.08,0,0,1,.5-.77,4.71,4.71,0,0,1,.54-.56Z" transform="translate(0)" fill="#212121"/><path d="M15,27.61a17,17,0,0,1-1.87-.16A3.71,3.71,0,0,0,15,28Z" transform="translate(0)" fill="#212121"/><path d="M15,28.48a7.48,7.48,0,0,1-1.84-.64l0,.21a5,5,0,0,1-.64-.62l-.64-.77v.23a2.87,2.87,0,0,1-.77-1.08c-.29-.69-.39-1.22-.49-1.33s-.61.24-.61.37v.7l.13-.16a2.78,2.78,0,0,0,.33,1.26,5.79,5.79,0,0,0,.59,1l.09-.18a1.93,1.93,0,0,0,.59,1,3.33,3.33,0,0,0,1.15.85l0-.26.85.6.06-.25A1.77,1.77,0,0,0,15,30Z" transform="translate(0)" fill="#212121"/><path d="M12.46,20.74a.52.52,0,0,1-.49.55c-.35,0-.57-.18-.57-.78s.38-1,.56-1,.19.32,0,.32-.28.28-.28.64.11.46.24.46a.42.42,0,0,0,.32-.37C12.28,20.42,12.46,20.24,12.46,20.74Z" transform="translate(0)" fill="#212121"/><path d="M12.79,17.08c-.13,0,0-1,0-1.21s-.57-.62-.57-.62l.43,0-.32-.39L13,15s-.41-1.76-1.34-4.65A23.43,23.43,0,0,0,9.71,5.89l.62.44-.15-.58.82.76A23.34,23.34,0,0,0,9.63,3.16c-.8-1.55-1.5-1.78-2-2a1.73,1.73,0,0,0-.88-.13s1,.58,1,.81S7,2.3,6.66,3a4.46,4.46,0,0,0-.58,2.28c0,1.15,0,2.3,0,2.3a7.5,7.5,0,0,1-.43-3.09A7.18,7.18,0,0,1,6.57.5,1.35,1.35,0,0,1,8.52.33,11.05,11.05,0,0,1,11.81,5a26.89,26.89,0,0,1,1.47,6.78,25.41,25.41,0,0,0,.44,3.57c.17.62.32.68.32.88s-.35,0-.69.3S12.9,17.08,12.79,17.08Z" transform="translate(0)" fill="#212121"/><rect width="30" height="30" fill="none"/></svg>