<!-- Copyright (c) 2022 Jan Stehno -->
<svg xmlns="http://www.w3.org/2000/svg" viewBox="0 0 1000 1000"><title>americanalligator</title><g id="americanalligator"><path d="M723.27,939.66C701,951,676.64,954.87,652.37,959.17c-18.86,3.34-37,9.48-55.51,14.4-20.9,5.56-41.81,11.08-63,15.39-17.44,3.53-34.84,7.53-52.64,8.57-14.78.88-29.47,3.5-44.39,2-7.63-.75-14.93-2-21.18-6.78-1.9-1.55-4.65-2.88-2.71-6,1.48-2.37,4-2,6.2-1.21,4.71,1.68,8.51,1.34,12.36-2.55A15.43,15.43,0,0,1,442.21,979c8.29,0,15.57-3.05,22.76-6.6,4-2,9.06-1.11,12.43-4.88.68-.76,2.29-.2,3.16.57,2.67,2.37,5.5,1.59,8.4.68,1.31-.42,3.23-1.13,4-.32,6,6.54,12.11.64,18.1.29,4.06-.24,8-2,12.2-1.51,2.57.28,4.38-1.16,5.47-3.37,2-4,5.32-6.1,9.41-7.38,1.52-.49,3.78-.88,4.14-2.18,3-10.8,14.84-8,21.19-13.67,3.52-3.15,7.88,1.8,11.87-.05,6.1-7.39,15.66-10.44,23.58-10.89,8.87-.5,18.74-4,27.77,1.43,3.2,1.94,6.48,2.74,7.64-3.41,1-5.4,7.15-5.73,11.42-5.15,3.17.43,7.08.2,9.57,1.68,6.47,3.86,10.39-.12,14.53-3.51,2-1.62,6-3.61.94-6.74-1.36-.85-1.24-2.89,0-4.3,1.86-2.11,3.43-4.14,2.19-7.31-.67-1.71,1.2-2.23,2.47-2.56,8-2.07,13.42-7.53,18.16-13.78a8.94,8.94,0,0,1,6-3.93c3.82-.65,7.41-2.34,11.23-3.13,5.24-1.61,9.9-4.56,15.16-6.18,4.11-1.26,5.19.76,3.44,3.49-1.89,2.94.32,4.61.85,7.08,5.29-10.14,8.69-21.46,19.45-28.78-3.65,1.23-6.14,1.3-6.25-2.84-.11-3.9.89-7,4.47-9.29,4.25-2.66,8.95-4.58,8.19-11.6-.48-4.48,11.7-12.16,16.38-11.53,3.3.44,8.7,6.68,7.66,10.13-1.5,5-.8,11-6,14.77-2.66,1.92-3.23,4.66-1,8.4,3.44-5.11,6-10,12-12.07,6.27-2.15,6.58-2.41,7.24,4.54a47.55,47.55,0,0,1-4.15,10.81,54.79,54.79,0,0,1-2.86,5.93c-.65,1.06-1.31,2.12-2.05,3.13-2.45,3.71-7.67,3.94-9.91,7.81.71-.47,2.88-1.77,3.6-1.21,4.12,3.23.56,4.6-.12,6.66a7.5,7.5,0,0,1-3.36,3.41c-6.77,2.5-11.71,6.13-13,14.18-.66,4.22-5,7.39-7.24,11.37a28.26,28.26,0,0,0-13.61,13.63,27.39,27.39,0,0,1-3,4.54c-1.82,2.27-1.94,4,.28,6.47,3.09,3.39,1.62,7.05-3,7.32C730.49,939.34,726.9,940.19,723.27,939.66Z" fill="#0f1818"/><path d="M935.3,683.55c3.29,5.65,3.71,12.25,6.06,18.21.69,1.76.62,4.66,3.07,4.63,3,0,1.92-3.13,2.21-4.82.78-4.57,1.07-9.22,1.71-15.27,1.11,4.09,1.86,6.84,2.6,9.58-.5,6.67,3.45,12.07,5.22,18.1,1.52,7.58,4.31,14.82,6.8,22.08,3.6,10.48-.57,20.12-1.75,30.09-.18,1.53-1.09,3.52-2.75,3.53-2.33,0-2.25-2.39-2.63-4.08a13.52,13.52,0,0,1-.17-2.7c2.11-15.12-7.83-23.15-10.32-37.08-.9-1.62-2-2.43-2.55-2.25a5.1,5.1,0,0,0-1.55,4.9c2.08,10.07.64,12.75-8.92,16.71-1.88.79-4.19.9-3.37,3.89,2.53,7,9.14,7.8,15,9.14,8.11,1.87,8.19,1.54,8.56,10.06a11.32,11.32,0,0,1-1,5.2c-.37.56-.1.24-.72.51-3.82,1.74-3.39-.88-5.84-.94-.53,0-.44,0-1.1,0a4.34,4.34,0,0,1-2.58.77c-2.84-.12-5.58-.74-6.45-3.85-1-3.45,2.41-3.7,4.7-5.25-4,.79-8.33-1.29-10.59,3.32-.25.57-.51,1.13-.75,1.71-.8,3.06-.94,6.26-2.24,9.34,1.79,1.28,3.53.72,5.21.16,2.83-1,5.85-2.4,7.75,1.19,1.31,2.48-2.81,9.82-5.85,10-3.67.21-5.72,2.47-7.24,3.85,2.61-3.66,8-3.66,12.7-5,2.38-.66,4.38.29,4,3.72-.84,7.12,1.25,9.66,8.28,10.64,2.23.32,4.65,0,6.25,2.12,1.13,3.32,2.34,6.62,1.21,10.19-3.56,3.25-6.7.63-9.13-1.33-4.91-4-10.59-5-16.5-5.72-2.82-.35-5.25-.14-7.69,1.77-4.13,3.24-4.27,3.06-7.11-2.36.44,4.07,3.1,8.81-3.69,9.88-2.59-2.67-3.24-5.8-2.6-9.41a29.83,29.83,0,0,0,0-8.8c-.4-3.36-2-4.55-5.6-4-9.15,1.38-13.09,4.27-16.23,13.33,3.17-3.19,5-6.3,7.63-8.66,2.07-1.86,4.19-3.54,7.16-3.5,1.9,0,3.69.42,4.7,2.21,1.17,2.06-.27,3.39-1.54,4.7-.79.82-1.91,1.37-2.45,2.35-1.52,2.7-4.69,5.29-3.44,8.45s4.9.74,7.42,1.2c1.58.28,3.19.31,4.34,1.64-.38,4.1-3.75,3.93-6.51,4.3-6,.8-12-1.65-18.24.19-3.23,1-3.74-3.11-5-6.3-4.29,8.1-10.26,13.31-19.15,14.77-2.95.48-6,1.83-8.4-.44-2.17-2,0-4.67,0-7,0-2.78,3.68-5.39.42-8.3-1.31-1.92-1.39-4.13-1.63-6.3-.36-4.15,6.28-3.92,5.31-8.45.22-1.76-.68-3.35-.82-5.06.84-2,2.94-1.91,4.51-2.69,1.9-.95,2.3-2.1.4-3.51-2.05-2.43-4-2.08-6.5-.37s-5,5.74-8.44,1.8c-2-2.31,1.54-9.94,4.92-11.4,1-.43,2.22-.4,3.21-1,6.51-.28,11.86-2.15,13.15-9.54,1.1-3.93-.07-5.66-4.31-4.41-3.32.91-5.9,3.63-9.51,3.83-3.36-1.61-3.44-5.68-6.12-7.94-1.69-1.42-.43-2.8,1.41-3.43,4.68-1.59,6.05-5.8,8.22-10.08-3,.06-6,4.29-7.79-.11-1.39-3.36,1.87-4.7,4.11-6.14,2.59-1.66,4.84-3.47,5.16-6.8.09-.91.19-2,.92-2.52,7.16-4.88,12.53-11.84,19.11-17,4.43-3.49,7.47-7,9.37-11.69a13.91,13.91,0,0,1,4.82-6.35c-2.51,1.5-5.46,4.5-7.18-.22-1.2-3.29-6.39-1.49-6.11-5.44.22-3,5-1.84,5.94-6.48-4.59,2.65-6,5.43-6.41,9.51-.65,5.89-.17,12.59-7.14,15.77-6.2-1.6-5.35-5.41-3.22-9.8,2.52-5.2,1.48-9-2.87-11.22-1.44-1.58-1.52-3.75-2.54-5.55-3.87-6.81-3.36-8.19,3.26-11.36-5.74-.32-10.52,5.28-17,4.22-.7-.11-1.23.54-1.48,1.2-.86,2.21-1.83,4.57-4.79,3.54-2.49-.87-2.87-3.37-3-5.69-.08-2-1.29-4-.35-6,3.53-4.66,6.86-9.62,13.78-9.31,11,.39,21.72-3.18,32.79-2.16,6.3.58,11.81-3,17.81-4.2,4.25-.83,9.28-3,9.28,5.93,1.73-4.73,2.7-9.05,7.76-5,1.43,4.31,4.83,7.84,5,12.64-1.28,6.85,5.39,11.15,5.67,17.5-1.35,4.68.18,9.49-.68,14.19C935.9,693.1,934.13,688.26,935.3,683.55Z" fill="#3b3e35"/><path d="M888.61,996.71c-27.69.18-53.94-6.63-79.59-16.29-1.27-5.94-7.28-11.24-2.48-18,1-1.44.27-3.07.4-4.6.26-2.93,2-5.28,4.81-3.18,3.33,2.46,3.68-.25,5-1.79,1.74-2,2.34-6,6.56-3.71,1.39,1.78.83,5.4,4.63,4.91,3.22-.41,5.61-1.85,6.43-5.22a10.1,10.1,0,0,1,1.23-3.18c1.21-1.84,2.87-3,5.16-2.61s2.48,2.41,2.8,4.21c.45,2.48-.3,5,.37,8.49-.13-5.53,2.06-8.42,6.66-8.81,8.44-.72,16.77-1.58,24.69-5.08,3.75-1.66,6.24-.19,5.75,4.44a17.25,17.25,0,0,0,.12,4.76c.47,2.59,1.54,4.06,4,1.6,4.4-4.46,10.17-6.26,15.94-7.37,8.27-1.6,15.83-6.16,24.57-5.69.85,0,1.69-.6,1.82-2.23-5-1.82-10.15-.22-15.13.3-7.51.77-14.88,2.52-22.28,4a15.68,15.68,0,0,1-9.43-.67c-1.46-.62-3.26-.83-3.31-2.89s1.56-2.74,3-3.32c8.91-3.6,17.78-7.39,27.75-6.6,6,1.19,10.68-3,16.2-4,4.1-.73,7.58-1.29,10.69,1.87,2.54,2.58,5.93,3.17,9.19,4.14,4.84,3.52.39,8.92,2.68,13,.78,2.85,1.78,5.68.77,8.69-1.07,3.24-4.46,1.63-6.42,3-.51,2.41-1,4.83-1.85,8.69l-5.81-14.08c-1.64,9,2.84,16.56,1.86,24.73-2.14-.27-1.49-2.53-2.63-3.33-.82.05-.73-3.06-2.43-.53-1.16,1.73-2.2.12-3-1A33.8,33.8,0,0,0,922.19,957c2.74,12.64,3.5,25.62,8,37.88l-1.82.74-8.5-20.77c-2.06,6.31-2.93,12-2,17.86-1.61,4.72-4,5.08-9.93,1.47v0a4.65,4.65,0,0,1-1.45-2.24c-.62.41-.11,1-.26,1.53-.94,3.19-3.52,3.72-6.33,4.1C896.1,998.07,892.42,996.57,888.61,996.71Z" fill="#161c1c"/><path d="M415.62,507.26c1.74-1.7,3.34-.9,4.86.32,6.14,4.95,13.12,8.87,17.12,16.27,4.92,9.09,15.31,9.95,23.61,13.44,3.69,1.55,7.85,1.93,10.33,5.4,1.94,2.71,5.07,1.59,7.37,2.91,3.93,0,6.18,3.32,9.31,4.89,6.49,3.26,13.28,5.88,19.64,9.37,2,1.08,4.3,1.8,4.52,4.58-5.44,9.12-5.36,9.06,1.09,17,3.12,3.84-.4,5.3-3,7-2.28.12-3.82-1.38-5.46-2.56-2.41-1.74-4.43-2.66-5.43,1.34-.33,1.33-1.17,2.61-2.8,2.56-2-.06-2.53-1.73-2.94-3.28-1-3.67-.94-7.72-4.78-11.1-.76,6.36-3.41,7-7.42,2.78a9,9,0,0,0-2.24-1.57c-8.25-2.06-8-4.27-7.35-13.05-4,2-4,2-3,6.56,1.44,6.84-.1,9-5.7,8-1-2.1-6.13-1.22-4.08-5.73.33-.73-1.28-1.32-2.12-.06-2.51,3.75-5.61,4.08-9.25,1.48-.74,2.29-.58,5-3.2,6.35-3.76.23-5.41-2.89-7.71-4.91-5.94-5.18-7.29-4.87-9.17,2.46-.44,1.71-.26,3.72-2.64,4.19-4.77-.68-7.53-3.91-9.71-7.75a3,3,0,0,1,.21-3.8c1.36-1.34,2.7-.46,4,.58-.17-1.93-1.11-2.9-2.69-2.75-4.06.39-6.74-.43-9.6-4.25-1.91-2.56-7.26-4.95-11.52-1.34-1.37,1.15-2.93,1.08-4.46,1.42-4.25.93-7.55-.37-8.22-4.8-.64-4.17,2.73-5.21,6.1-5.74a32.84,32.84,0,0,1,4.09-.33c-7.85-.5-9.75.44-14.67,7.21-2.38,3.29-7.89,3.18-13.05-.23-1.15-.76-1.23-3-4-.91s-3.77-1.63-4.45-4c3.27-6.35,6.45-6.81,14.28-2,2.27-3.38,3.66-7.25,5.92-10.66,2.4-3.61,4.87-4.14,7.54-.84s5.68,3.24,9.44,3.84c6,1,12.55,1.89,17.57,6.23l1.84.32c8.09,2.55,8.43,3.78,2.66,10,4.44,2.08,7.88-.72,11.93-2.14C425.11,551.6,416.62,548,412.11,541c-1.28-1.49-2.69-2.92-2.61-5.1,0-1.27,2.18-1.78,1.74-2.11-1.9-1.44-4.19-3.21-3.18-5.41C411.22,521.55,408.24,512.55,415.62,507.26Z" fill="#444237"/><path d="M822.72,949.06c-4.33.9-4.21,5.51-6.67,8-1.78,1.83-2.89,4.09-4.3,0-.38-1.1-.58-2.41-2.15-1.83s-1.9,1.81-1.15,3.29c.5,1,1.46,2.82,1.43,2.84-9,4.95,2.64,11.89-1.65,17.27-.19.25.51,1.19.79,1.81-31.31-7.92-61.23-18.73-85.75-40.76,3-1.47,5.78-3.33,9.55-1.8,2,.82,4.21-.58,4.95-2.63.82-2.28-1.46-2.31-2.86-2.78-3.11-1.05-3-3.11-1.5-5.29,1.65-2.4,3.59-4.6,5.4-6.89,4.57-1.61,8.58-5.47,14.06-3.51a5.29,5.29,0,0,1,1.82.57c5,3.73,8.85,2.07,12.19-2.55,1.15-1.58,2.75-3.82,4.94-2.29s.76,3.7-.18,5.55c-3.22,6.3-7.26,8.41-14.53,7.66-2-.2-4-1.14-5.88-.08,5.31,1,11.19-.94,16.3,3.32,2.73,2.27,6.75-.61,10.54.93,4.25,1.73,4.85-3.49,6.87-6,1.52-1.87,3.09-7.74,5.95-.81.81,1.95,2.09,1.24,3.35.92,4.11-1,6.51-4,8.47-7.47,1.31-2.34,1.63-5.21,3.71-7.22,4.39,5.14,2.55,11.48-4,17.91-5.09,5-13,4.45-17.73,9.82-.61.73.88.83.09.38-.16-.09-.11-.36.28-.58,6.11-3.46,11.65-6.7,19.74-6.23,5.05.3,11.36,2.5,16.6-1,2.9,7.67,1,11.49-7.83,15.4,3.92-.36,6.32-4.57,10.49-3.44C827.57,944.76,825.36,947,822.72,949.06Z" fill="#282c28"/><path d="M411.65,553.54c-6.51-3.52-12.86-7.38-20.91-5.79a5.94,5.94,0,0,1-4.81-2c-1.58-2.14-2.69-5.54-5.61-4.57-1.55.52-3.15,4.11-3.71,5.83-1.14,3.53-4.11,6.17-3.87,10.42-8.13-7.28-10.24-7.54-14.85-2.28-1.34,3-4.46,1.25-6.47,2.45-1,.61-2.24.9-3.08,1.81-1.92,2.22-3.82,4.46-5.81,6.61-.4.44-1.17.55-1.76.8-1.53-1.6-.4-3,.09-4.4,1.79-5.13,2.62-10,1.3-15.74-5.71-24.92,9.16-38.18,29.36-44.31,6.79-2.07,14.7-.49,22.1-.57,1.31,2.65,3.06,4.33,6.31,3,2.2-.92,4.32-1,6,1.05.9.89-1.28,2.72,1,3.19.33.07.59,0,.63-.09.61-1.69-1.24-2.11-1.71-3.25a3.35,3.35,0,0,1,1.7-4.12c2.34,2.39,4.44,5.13,8.06,5.74.72,2.68-1.88,3.94-2.57,6-1.19,3.59-3.07,7.12-1.26,11.12.77,1.72,3.53,5-2.07,3.2-1.22-.39-.75,1.7-.27,2.6,1.42,2.64,4.21,3.14,7.09,3.53-1.47,4.15-4.76.52-6.42,2.3-3.28.71-5.69-.67-5.5-3.89.4-6.84-3.24-11.56-7.39-16.18-.62-.67,0-2-1.28-2.25a12.77,12.77,0,0,0-.19,1.79c-.24,2.91,6.11,2.76,3.21,6.9-3.82,5.46-9.75,7.23-16.62,4.84-.55-.19-1-1-1.09.19-.29,5.5-6.34,3.3-8.4,6.39,2-1.65,4.42-2.26,6.55-.61,5,3.87,12,2.54,17.11,7.27,2,1.89,7.69,1.74,11.45,3.18C413.36,545.68,414.08,548.1,411.65,553.54Z" fill="#635240"/><path d="M605.38,694.69c-.76-2.82-4-2.14-5.53-3.88-1-1.37-4.57-1.55-3.35-3.45,3.7-5.78-1-11.36.27-17,.26-3.12,1.25-5.65,4.91-6,5.92,1.33,12.1,1.22,18,3,1.32.4,2.92,1,4,.23,6.37-4.51,12.93-2.36,19.49-.86a11.73,11.73,0,0,0,4.5-1.1c3.63-1.9,6.7-2.45,8.93,2.22.75,1.57,3.27,3.53,4.13-.37.5-2.22,1.11-4,3.73-3.93,2.46.08,4.68,1.19,5.33,3.54,1.34,4.8,3.08,3.27,6.61,1.81,4.17-1.72,9.23.07,13.91-.28a6.07,6.07,0,0,1,1.59,1.25,4.46,4.46,0,0,1,.75,4.78c-2.44,3.25-4.89,6.23-4.75,10.89.12,4,.54,7.15,4.7,8.76,1.76.67,3.37,1.71,3.15,3.94-.26,2.6-2.42,3-4.43,3.53-5.64,1.47-11.35.85-17.06.67-6.14-.18-12.25-1.64-18.43-.11-1.57.39-3.31.12-3.93-1.8a3,3,0,0,1,1.49-3.52c4.07-2.77,7.66-6,13.53-5.23,6.72.91,10.63-4.25,9.39-10.89-.39-2.1-1.64-2.49-3.4-2.46-5.94.08-11.88.29-17.81.57-3.28.15-5.17,2.36-6.64,5.2-4.2,8.14-11.08,12.91-19.89,15.09-1,.25-2,.42-2.3.19,3.12.94,5.54,3.22,4.9,7.58a2.6,2.6,0,0,1-1.17,1.51,61.38,61.38,0,0,1-6.46-4.75c-4.46-4.2-8.87-5.92-13.79-.8C605.45,701.68,607.15,697.3,605.38,694.69Z" fill="#272c27"/><path d="M598.48,671.28c0,3-1,6,1.93,8.51a2.92,2.92,0,0,1-.76,5c-5,2.29-.48,4,.2,6l-.61-.1-.61.1c-1.09.41-2.73.83-3.25.15-3.58-4.65-9.8-7.44-10.37-14.24l-1.76-1.19c-3.17-1.91-3.61-6.11-6.79-8-1-.21-2.87,0-2.27-1.55,1.66-4.33-1.26-6.68-3.54-9.38-5.41-8.17-11.49-15.47-20.95-19.54-3.63-1.56-7.68-3.67-8.76-8.35,3.49-5.75,8-9.3,15.39-8.46,2.34.27,4.76-1.31,7.13-2.09,1.88-.61,4.18-1.86,5.33.77,1.25,2.87-.84,4-3.26,4.72-.86.24-1.83.29-2.43,1.34,1.69,2,4.48,2.85,6.12,5,4.5,6.57,11,4.52,17.21,4,.75.55,1.09,1.49,1.77,2,1.64,1.34,6.06.2,4.63,4.15-1.1,3.06-4.53,3.49-7.59,3.5-1.85,0-3.47-1.16-5.3-1.3a4.77,4.77,0,0,0-4.26,1.71c-1,1.19-.19,2.16.66,2.93a6.51,6.51,0,0,0,4,1.51c7.83.94,14.74-4.22,22.63-2.73,2.8.53,3.28-3.32,5.19-4.86,5.22-4.24,6.44-4,8.44,2.26,1.76,5.48,6.51,4.21,10.22,3.69,4.53-.64,8.22-1.1,9.45,4.56.45,2.06,2.25,2,3.89,1.67,2.23-.44,4.42-1.17,6.73-1.11,2,.07,4.45-.19,5.47,2,1.24,2.63-1.38,3.34-2.88,4.59-3.14,2.6-6.24,5.28-5.49,10a18.74,18.74,0,0,1-5.91-.93c-3.84-1.27-8-3.15-11.57,1.06a4.38,4.38,0,0,1-5.06,1.1c-6-2.89-12.83-1.15-18.75-3.93-2.14-4,2.43-3.56,3.8-5.54-3.81,1.38-8.51-3.34-10.15-.75-2.24,3.53-6.29,7.84-2.73,13.5C595.39,674,596.31,670.43,598.48,671.28Z" fill="#37352d"/><path d="M476.3,906.34c4.72.86,8.49-1.35,12.75-3,8.81-3.42,17.53-7.41,27-8.8,6.48,0,11.76-2.88,15.88-7.4,4.43-4.86,9.11-7.16,15.6-4.65,4.61,1.8,8.78-.43,13-1.84,2.23-.75,4.21-3,6.88-1.17.78,4.74,3,6.33,7.41,3.47.75-.49-.27,0,.61-.3,2.88-.88,6.42-1.94,8,1.16,1.68,3.29-2.32,4.18-4.22,5.84-6.33.23-8.22,4.31-8.55,9.75-1.43,2.69-3.51,3.82-6.66,3.17-4.63-1-8.89.45-13,2.49-1.71.33-3.85,1.57-4.93-.49-1.54-2.93,2.28-4,2.87-6.3-4.16-.34-17.43,6.85-19.39,10.36a3,3,0,0,0,.06,3.14c1.94,4,.23,6-3.83,6.51-2.86-2.43-5.13-2.7-7.49,1-2.23,3.48-6.08,5.47-9.29,8-1.68,1.34-3.59,2.42-5.41.26-1.56-1.86-1.12-3.8.25-5.62.55-.73-.1.21.45-.51,1.62-2.08,6.26-3,5-5.67-1.47-3.21-5.79-1.12-8.72-1.09-9.27.1-18.28,1.52-24.91,9.05-3.16,4.08-9.54,3-12.32,7.71a14.31,14.31,0,0,1-1.9,2.07c-2.69,2.11-5.83,3.53-8.6,5.49-1.74,1.22-1.15,2,.51,2.54,2,.6,4-.64,5.89-.08s5.21.29,4.12,4.09c-6.41,2.88-13.23,3.05-20.09,3.17-2.39,0-4.72.12-6-2.25-1.41-2.66.16-4.74,1.7-6.81,5.9-7.93,13.33-14.23,21.39-19.81,2.47-1.71,4.6-3.71,6.86-5.6a101.82,101.82,0,0,0,12.33-4.91c1.18.26.35-1.45.49-.55,0,.25-.16.26-.61.23C477.81,908.86,475.7,909.26,476.3,906.34Z" fill="#9b755a"/><path d="M708.46,611.13c10.12-3,20.27-5.84,31-4.78,4.74.47,8.35,3.24,11.65,6.53,2.72,2.71,5.7,5.15,8.57,7.72l-.69.67c-1.85.47-5.48-.37-2.49,3.54a11.28,11.28,0,0,1,2.67,7.56c-.17,2.78-1.67,4.82-4.46,5.32s-3.61-1.77-4-3.75a7.43,7.43,0,0,0-5-5.89c-3.29-1.28-5.63-3.66-7.95-6.26-7.13-7.95-13.48-9.15-23.13-4.3-3.43,1.72-7.17,2.82-11.25,5.38,4.06-.51,6.32-2.54,8.86-4,4.84-2.83,10-4.56,15.69-3.47,1.58.29,3.31.51,2.89,2.84-3.49,2.39-8.24,1.75-11.48,4.73-1.45,1.09-3.14,2-3.8,3.82-.72,2,.22,3.59,1.57,4.91,1.71,1.68,2.8.26,3.93-.93,2-2.12,4.77-3.62,5.7-6.67,1.32-2,2.6-4.06,5.53-3.6,4.68,3.08,3.6,6.08,0,9.23-2.94,2.56-4.21,5,.95,6.62,1.41.43,3.34,1.26,2.77,3.25-.5,1.79-2.46,1.77-4,1.91a17.13,17.13,0,0,1-6.71-1.07c-.87-.29-.37,1.46-.21.56,0,0,.1,0,.29,0,2.12.07,4.11.28,4.24,3.07-3.61,2.67-3.16,5.38-.47,8.56,1.87,2.21,6,4.52,2.67,7.89-2.75,2.8-6.86,1.86-10.42.72a5.22,5.22,0,0,1-3.5-3.11c-2.18-7.48-6.8-11.53-14.76-12.84-3.31-.55-6.37-2-9.89-1.13-2.37.61-4.74.51-5.54-2.42-2.34-8.58-8.35-10.75-16.71-12.77a90.42,90.42,0,0,0-24-2.52c-4.44.12-5.81-3.36-6.72-6.6-1-3.53,2.45-3.44,4.38-3.66,7-.8,14.1-.24,21.1-1.41a6.34,6.34,0,0,1,3.43,3.43c-1.7,5-5.77,1.52-7.84,2.52,3.71.43,8.28.61,12.51,2.65,2.71,1.3,5.27,1.08,7.35-1.51,2.93-3.64,7.54-4,11.51-5.62a3.86,3.86,0,0,1,2.68-.07A11.18,11.18,0,0,0,708.46,611.13Z" fill="#49493e"/><path d="M576.57,942.15c-.9,1.32-2.55,1.91-3.6,1.2-5.37-3.62-9.7-1.6-13.93,2a4,4,0,0,1-2.44,1.15c-6.45-.59-10.57,1.66-11.74,8.47-.24,1.41-2.34,1.93-3.93,2.38-5.13,1.45-10.12,3-11.48,9.27a3.84,3.84,0,0,1-4.38,2.63c-5.65-1.55-10.69,1.37-16,1.58-2.31.09-4.21.25-6,2.29-3.07,3.41-7.09,1.53-8.24-1.38-1.34-3.39-2.88-1.93-4.62-1.63-3.8.65-8,4.89-11-1.44-.11-.25-1.76-.16-1.79,0-2,8.6-13.1.51-15.39,8.37-6.77-.31-12.36,4.45-19.55,3.79a14.33,14.33,0,0,0-12.9,6.24c-2.84,4-6.69.9-10.13.33-1.86-.31-3.91-2.33-5.6.07s1.55,3.42,1.84,5.31c-2.34-.23-3.52-1.78-4.34-3.75-.8-2.34-.87-4.45,1.6-5.95,1.37-.82,3-1.62,3.61-3.06,2.66-6.29,5.7-6.07,8.89-.7,2.65-.35,2.11-2.36,2.62-3.7,2.1-5.55,3.87-6.28,8.74-3.1,1.74,1.14,3.28,1.54,5.08.67,4-1.92,8.39-2.08,12.51-3.44,2.7-.88,5.19-1.34,6.33-4.38a4.07,4.07,0,0,1,3.87-2.43c7.57-.28,13.9-3.91,20.31-7.31a4.82,4.82,0,0,1,1.85-.58c5.59,7,12.66,3.58,19.21,2.37a23.92,23.92,0,0,1,6-.51c2.59.17,4.69-.69,7.06-1.82,7.92-3.75,15-8.85,21.84-14.05,4.7-3.56,10.23-1.13,14.92-4,3.75-2.29,7.19-4.27,9.33-8.37,1.31-2.5,3.63-5.5,6.6-1.08.61,1-1.69,3.78,1.88,3a4.4,4.4,0,0,1,1.48,1.19C576.82,935,578.49,938.33,576.57,942.15Z" fill="#31322d"/><path d="M467.93,914.9a38.78,38.78,0,0,1-12.68,10.9c-7,3.89-9.82,11.56-16,16.12a3,3,0,0,0-.66,4.3c1.17,1.44,2.72.89,4.34.92,7,.11,13.77-1.69,20.68-2.19,2.44-3.67-.85-3.21-2.75-3.82-2.75-.87-6.5.84-8.09-3.06,1.69-3.37,5.47-3.65,8.2-5.49,4.83-.52,9.55.65,14.28,1.16,5.22.56,6,3.11,4.21,10.46-5.17,7.71-5.17,7.71-14.44,5.34-3.86-1-12.94,3.11-13.42,6.82-.44,3.36-2.33,3.77-4.53,3.71-4.21-.12-7.44,1-9.87,4.67-1.16,1.75-3.54,1.75-5.65,1.91-3.87.29-7.79.81-11.23,2.64-5.11,2.72-9.09,1-12.87-2.46-3.94-5.41-3.93-5.4,1.87-7.54.39-.15,1.06-.57,1-.69-2.11-6.83,3.45-5.48,7-6.89,6.7-2.7.88-7.22,1.12-10.9,1.44-1.8,3-3.07,5.29-1.23,1.4,2.38,3.68,2,5,.66,1.86-1.79,3.67-4.09,3.24-7a23.75,23.75,0,0,0-1.52-4.41c-.35-3.54,3.13-1.89,4.42-3.22,2.86.22,3.63,6.52,7.89,2.69,3-1.95,7-3.14,5.94-8-1.08-2-2.47-4.23-.46-6.2,1.71-1.68,3.83-.14,4.81,1,5.15,6.24,8.59,2.13,12.17-1.7C466.74,912.9,467.48,913.64,467.93,914.9Z" fill="#8a6d55"/><path d="M857.09,658.88c-4.87,1.44-8.74,4-10.54,9-.19.54-2.06.49-3.15.71-9.14-.35-17.53-2.84-24.59-8.81a41.21,41.21,0,0,0-7.86-5.3c-11.84-6.65-24.5-7.58-37.72-5.89-8,1-11.67-4.49-8.46-11.86.73-1.67,1.41-3.35,2.09-5,.95-2.36.62-3.8-2.27-4.34-3.31-.61-6.22-1.9-5.52-6.2l.59-.6c9.68,1.84,18.79,5.34,27.76,9.32,3.66,1.62,7.48,3.6,11.34,3.89,9.79.74,14.78,8.24,21.31,13.63,1,.86,1.88,2.56,2.93,2.67C834.84,651.26,844.91,659.18,857.09,658.88Z" fill="#49493e"/><path d="M407.48,966.83c6.85,5,13.06-.31,19.5-1.31,4.63-.72,10.48.4,12.16-6.4.13-.52,2.95-.47,4.52-.54,3.76-.17,3.4-.27,4.71-3.81,1.12-3,5-2.66,7.35-4.44,4.08-3.08,8.28-4.71,13.4-.83s5.55-3.1,8.43-4.62c.42-.17.84-.33,1.28-.46,3.95-1.19,8.62-1.52,9.82,2.84,1.09,3.93-3.58,5.08-6.79,6-2.6.77-5,2.1-7.66,2.46,3.81.52,7.77-2.11,11.65.17a28.31,28.31,0,0,1-20,8.47c-1.41,0-3.43-.33-3.64.92-1.63,9.45-10.12,5.2-15.21,7.59a35.84,35.84,0,0,0-4.84,2.25c-2.66,1.76-5.4,2-6.94-1.22-2.5-5.17-4.32-1.49-5.3.55C425.88,983,426,983,420.28,976c-.46,4-2.39,7.08-6,8.3-2.69.9-2.52,2.83-2.94,4.75C405.53,982.39,404.68,974.92,407.48,966.83Z" fill="#594a3a"/><path d="M351.05,556.43c1.8-2.92,4.87.75,6.84-1.31,1.6,2.5,3.11,5.7,5.37.43.48-1.12,1.51-2,2.72-1.41,1.57.75-.08,1.87,0,2.63.51,4.27,5.17,2.67,7.33,4.77,1.3-1.43,5.18.68,4.31-4.23-.66-3.78,5-2.95,7.47-5,4.08-3.4,10.36-1.43,13.47,3.36-3.9-.58-7.37-1.16-10.85-.54-2.41.44-3.94,1.69-3.39,4.15.47,2.07,3,4.59,4.11,3.66,2.12-1.8,6.56,1.4,6.89-3.44.1-1.38,2-2,2.62-1.24,3.36,3.89,11.75-.62,12.52,7.52.14,1.49,1.61,1.23,2.75.83,7.61-2.72,8.17,3,10,7.77-3.89,1.18-3.8-3.1-7.35-3.78,1.2,5.84,5.5,8,9.41,10.54,2.79,1.07,4.41,3,3.84,6-.33,1.82-1.15,3.48-3.57,2.05-4.89-3.62-9.45-9.06-16-2.36-1.33-3.08,2-5.65-.33-8.17-2.94-.59-1.78,3.26-4.16,3.65-1.82-6.52-5.08-9.38-11-3.58-2.74.32-2.48-1.74-2.56-3.35s-.21-3.09-2.48-2.53c-1.33.55-2.42,1.61-3.9,1.83-2.26-.35-3.71-2.65-6.16-2.53-2.05.16-3.1,2.4-5.19,2.48-2.39-1.27-1.45-3.44-1.62-5.41-.28-3.24-1.37-5.89-5.55-4.13-1.78,2.13-2.13,5.18-4.52,6.91a2.94,2.94,0,0,1-2.75-.51c-.49-9.83-4.39-2-6.9-1.31-3.37-.33-2.67-2.8-1.9-4.48C351.88,562.62,351.54,559.57,351.05,556.43Z" fill="#2d2e29"/><path d="M425.53,589.22c5.64-2.89.81-5.43-.27-8.1l2.52-11.58c8.11-.89,11.14,6.64,16.61,10.24a7.82,7.82,0,0,1,2-.08c3.72.9,8.92,1.25,8.83,5.84-.06,3.66-5.07,3.59-8.28,4.34-1.31.31-2.79.12-3.9,2.18,5.45.87,11.09,1.85,9.79,9.36-.08.49.35,1.1.71,1,6.17-1.65,5.39,4.83,8.32,7,2.14,2.33,5.38,2.09,8,3.32a8.82,8.82,0,0,1,1.63.88c1.71,1.77,4.34,3,3.32,6.25a7.49,7.49,0,0,1-3.32,2,19.31,19.31,0,0,1-7.79.4l-4.41,2.22c-2.58.56-2.09-1.72-2.6-2.92-.78-1.82-1.55-3.29-3.9-2.15l-3.93,2.93c-3.32-.34-1.78-2.55-1.17-3.78,2.88-5.85.79-9.84-4.4-12.87-4.2-3-8.16-7.63-13.56-1.72a1.68,1.68,0,0,1-2.46-.18c-.88-1.08-.21-2.28.34-3.14C430.51,596.16,429,592.54,425.53,589.22Z" fill="#3e362c"/><path d="M472.08,620.68a2.89,2.89,0,0,1,2.71-1.28,3.46,3.46,0,0,1,4.33-1c6.9,4.19,15,4.44,22.32,6.93a30.18,30.18,0,0,0,13.08,1.14c8.89-1.22,17.08.91,25.54,1.92l.71.64c10.19,7.67,23.16,12,29.54,24.26.56,1.08,2.19,2,.34,3.29l-1.91-.06c-5.06,1.83-4.15-3.86-6.68-5.22-2-1.52-3.87-3.18-6-4.5-3-1.74-6.24-1.6-9.52-1.16-2.82-.14-3.53-4.58-7-3.4a6.25,6.25,0,0,1-1.65-.73c-5.07-1.47-10.14-2.71-15.32-.44-4.17-4.68-10-2.45-15-3.61-1.38.1-3.07-1-3.93,1-2.13.46-2.65-1.37-3.44-2.58-2-3-4.39-4-8.06-3.12-5.2,1.25-10.77-.82-15.95,1.4-.89.59-1.79,1.17-2.69,1.75-1.15-1-1.62-2.65-.78-3.57C476.54,628.18,474.41,624.47,472.08,620.68Z" fill="#1e211f"/><path d="M646.68,830c-6.67-1.37-10.2,4.34-15.22,6.7-1.85-2.31-3.68-1.2-6-.54-5.26,1.49-10.64,4.77-16.2.7a2.46,2.46,0,0,1,.28-1.85c5.75-5.84,13.73-6.63,21-9.17,6.73-2.37,12.24-6.31,16-12.45,8.36-15.07,4.32-30.78,2.12-46.27-1.61-11.39-4.07-22.65-6.15-34a1.75,1.75,0,0,1,2.78.82c2.09,7.18,5.07,14.2,4.74,21.91.73-5.5-2.73-11.26.55-16.66,5.17-2.51,4.66,1.82,4.79,4.34.44,8.19.23,16.4.2,24.6,0,4.42-.36,8.9.36,13.42,3.11-.77,2.56-3.09,3.44-4.54,1.06-1.74,1.9-4.1,4.46-3.37,2.28.64,1.73,2.85,1.52,4.65-.12,1.13-.14,2.28-.25,3.41-1.11,6.43-2.29,12.85-2.94,19.35-.29,2.86-1.13,5.26-3.42,7.06-.94,1.32-4.12-1.6-4,3.14.17,5.42,3.4,12.06-2.77,16.67C650.55,829.58,649.07,831,646.68,830Z" fill="#a37558"/><path d="M511.94,564.67c-4.17-5.13-10.88-5.78-16.26-8.76-5.77-3.2-12.26-5.08-16.77-10.31,9.18,1.91,18.36,3.83,27.54,5.7,1.53.31,2.28,1.43,3.1,2.5,9,11.59,22.23,13.89,35.5,16,2.64.42,5.6,1.07,6.62,3,3.62,6.86,10.79,7.91,16.66,11.11,7.7,1.74,15.88,2.09,22.31,7.53-2.58,3.41-6.72,3.38-10.31,4.51a4.34,4.34,0,0,1-3.89-.91c-6.08-4.79-29.14-15.61-36-17.07-2.81-.6-4.22.42-5.33,2.86-1.75,3.85-5.62,4.18-8,2.1-3.1-2.68-11.86-2.43-7-10.61.54-.9-1.16-1.62-2.36-1.78C514.35,570.05,512.78,567.71,511.94,564.67Z" fill="#48514b"/><path d="M650.77,739.7v17.69c-1.6-7.73-6.18-14.59-6.37-22.64,0-.54-1.28-1.06-1.95-1.58q-6.27-12.28-12.53-24.57a3.42,3.42,0,0,1,.54-.61c2.76.31,5.19.55,6.67-2.88,1-2.26,3.7-2.77,6-1.56,2.68,1.43,2.11,3.83.89,5.91a7.58,7.58,0,0,0,0,8.37c1.76,2.86,3.88,4.86,6.88,1.32,1.31-1.55,3.19-2.93,4.65-1.6,3.61,3.27,8.13,2.43,12.2,3.5-1.12,8.85-4.28,17-8.51,24.81-.78,1.44-1.57,3-3.54,2.38-1.65-.51-1.44-2.16-1.35-3.47.25-3.4-.52-6.72-.73-9.81C653.41,736.75,651.91,738.12,650.77,739.7Z" fill="#352d2a"/><path d="M708.46,611.13c.9.12,2-.06,2.65.42,1.5,1.17-.07,2.18-.78,2.49a40.4,40.4,0,0,0-11.43,7.09c-1.93,1.72-4.77,1.79-3.45-2.5.36-1.15-.47-2-1.35-1.38-3.71,2.71-9.74,1.22-12,6.58a3.43,3.43,0,0,1-3.8,2.32c-7.57-1.41-14.44-5.43-22.55-4.9,4.12-4,9.38,1.32,12.94-3.2a34,34,0,0,0,8.25-8.24c1.5-1.55,3.14-2.59,5.4-1.51.61.29,1.27.82,1.87.77C692.45,608.34,700.14,613.45,708.46,611.13Z" fill="#343a34"/><path d="M590.34,592a30.71,30.71,0,0,0-16.11-5.46,7.58,7.58,0,0,1-5.9-2.66c5.13-2.67,9.3.78,13.67,2.31,19.43,6.77,39.82,9.71,59.6,15.08.44.12,1,0,1.32.29,7.43,6.54,16.89,6.63,25.92,8.1l-.73.83c-12,1.46-23.76,2.81-35.49-2.19a120.87,120.87,0,0,0-18.15-6C605.92,600.21,598.18,595.94,590.34,592Z" fill="#535d53"/><path d="M646.48,813.41c.8.53,1.69,1.7,1.07,2.14-5.38,3.81-8.66,10.33-15.88,11.81-7.75,1.58-14.92,4.85-22.08,8.1-6.45,3.91-13.31,6.17-21,5.19-1.69-.79-1.5-2.86-2.71-4,13.86-5.3,28.18-9.15,42.28-13.64C634.4,821.05,641.46,818.6,646.48,813.41Z" fill="#856753"/><path d="M978,757.27c-1.77,1.51-.73,3.88-1.74,6-2.31-2.2-.27-5.28-2.42-7.83a37.65,37.65,0,0,0-4,18.51c.06,2.48-.51,3.67-2.46.9-3.54-6.74-3.27-14-3-21.28,3.8-3.12,3.37-9,7.73-11.79,1.07-.77,2.13-1.58,3.53-.71C978.8,746.12,978.33,751.71,978,757.27Z" fill="#695f4f"/><path d="M975.74,741l-3,1.46c-3.08-1.84-2.7-5.54-4.41-8.11-1.58-3.42-2.1-7.11-2.84-10.74.22-4.74-1.63-9.7,1.53-14.11l2.43-7.76C972.91,715.17,975.38,727.93,975.74,741Z" fill="#42433a"/><path d="M476.13,634.21c3.22-2.21,6.1-6.07,10.59-2,.39.36,1.78-.12,2.58-.47,7.37-3.18,11.53.27,14.28,6.72-.73,5.2-4.2,8.44-8.2,11.29-1.54-1.49-1.26-3.3-.65-5,2.14-6,.18-9.37-6.17-10.2-.68,0-1.82-.15-1.95.13C482.62,643.42,479.33,640,476.13,634.21Z" fill="#715847"/><path d="M946.64,951.57c4.21,7,3.29,14.51,2.5,22l-1.29,13.54c-3.94-.08-2.67-3.67-3.83-5.63-.23-6.44-.37-12.9-.75-19.34-.15-2.51.65-5.43-2.07-7.28C941.94,952,945.64,954,946.64,951.57Z" fill="#292f2e"/><path d="M978.18,936.66c-7.7-15.43-10.13-31.35-4.31-48.72.1,15,3,29.1,4.6,43.29C978.37,933,978.27,934.85,978.18,936.66Z" fill="#3f413e"/><path d="M982.27,854.64c-.36,12.35-.55,24.71-2.48,37a8.54,8.54,0,0,0-1.78,5c-2.77-7.16-2.61-14.93-1.55-22,1-6.56,2.85-13.11,3.29-19.85C980.53,853.8,981.39,854,982.27,854.64Z" fill="#363937"/><path d="M956.28,692c2.53-2.73,1.4-6.35,2.27-9.5.58-2.06,1.11-2.82,3-1.42.26,9.13.61,18.25,2.88,27.18,1.3,2.53,1.29,4.44-2.24,4.69-7.06-2.75-4.56-9.34-5.85-14.42Z" fill="#3d4239"/><path d="M467.93,914.9l-2.65-1.49L463.72,908c-.23-6.41,1.41-7.5,8.52-5.64l4.06,4c1,2.62,3.53,1.31,5.83,2.15C478,912.44,473.53,914.86,467.93,914.9Z" fill="#5a4637"/><path d="M942,687.71c-4.12-8.35-7.58-16.1-7.24-25,6.66-1.62,8,1.8,8,7.51C942.77,675.81,945.2,681.37,942,687.71Z" fill="#384442"/><path d="M470.62,638.56c-.1,1.78-.51,3.39-2.38,4.17-2,.16-2.82,2-4.23,3-1.16.83-2.32,2.59-3.69.21,3.11-6.76,3.27-14,3.24-21.19a3.55,3.55,0,0,1,.36-1.28c2.22-1.92,4.71-2.91,7.37-1.16S474,627,473,629.56C471.78,632.5,472.69,635.9,470.62,638.56Z" fill="#ae8464"/><path d="M982.11,760c0-11.72,2.65-23.45-.09-35.17-.27-1.36.28-1.82,1.6-1.42a64.85,64.85,0,0,1-.11,39.49C980.89,763,981.77,761.35,982.11,760Z" fill="#655e50"/><path d="M991.91,887.42c3.76-7.8,2.68-16.48,4.79-25,3.81,5,4.1,10.14,2,15.73s-5,11.24-5.36,17.5C989.72,893.45,990.52,890.49,991.91,887.42Z" fill="#4a4d4a"/><path d="M488.56,634.62c9.11-1,10.88,1.54,7.66,10.6a28.69,28.69,0,0,0-.84,4.58c-3.49,2.06-3.18-1.59-3.6-2.81C490.42,643,489.59,638.76,488.56,634.62Z" fill="#ae8464"/><path d="M463.56,624.77c3.93,7.87,1.14,15-2.5,22a1.86,1.86,0,0,1,.21,2.54,2.72,2.72,0,0,1-2.8-3.17C460.16,639,458.52,631.09,463.56,624.77Z" fill="#ae8464"/><path d="M981.14,720.34c-4.76-9.9.27-18.33,4.68-26.23,1.82,2.17,1.82,2.17-.8,14.14a18.19,18.19,0,0,0-2.09,9.58C983,718.93,983.45,720.73,981.14,720.34Z" fill="#454841"/><path d="M365.06,563.59c4.79-2.13,9.43.73,8.92,5.64-.18,1.69-1.59,3.3.06,4.95.43.19.61.43.53.71s-.18.47-.3.47l-9.59,13.81c-.71.72-1.51,1.05-2.34.27-1-1-.42-2.06-.09-3.11,1.46-2.82,3.35-5.38,4.92-8.15C370.27,572.7,370.11,567.83,365.06,563.59Z" fill="#654d3b"/><path d="M406,505.92c-2.52-1-4.59.47-6.9,1-3.39.74-8.11,1.24-5.44-5.12,4.6-2.86,9.26-1.73,13.94-.25l-1.5,4.32Z" fill="#444237"/><path d="M470.62,638.56a69.43,69.43,0,0,1,.47-8.8c1.35-7.59.68-8.27-7.17-6.27a2,2,0,0,1-.19-1.21c2.35-2.78,5.55-1.15,8.35-1.6,4.64,3.1,8.48,6.26,2.08,11.46-.77.63-.51,2.52-.72,3.82A3.52,3.52,0,0,1,470.62,638.56Z" fill="#765441"/><path d="M441.9,624.88c-.17-6-2.95-12.2,1.37-17.85,1.45-.91,2.53-.35,3.43.85C451,613.62,448.49,622.33,441.9,624.88Z" fill="#92735d"/><path d="M994.93,713c-2.25-6.53-.63-13,.9-19.5a1.51,1.51,0,0,1,2-1.26,2.89,2.89,0,0,1,1.61,3.41c-.9,5.71-1.87,11.41-2.81,17.12Z" fill="#5d594d"/><path d="M363.24,586.54c-1.09,1.73-1.3,3,1.44,2.63-4.17,3.42-5.14.32-5.1-2.87a27,27,0,0,1,1.76-9.14c1.07-2.84-.62-4.06-2.1-5.64l2.58-.32c7.2,2.23,7.84,3.44,4.27,9.46C365,582.57,364.47,584.72,363.24,586.54Z" fill="#92735d"/><path d="M441.9,624.88c6.61-5.79,7.14-12.66,1.37-17.85a2.37,2.37,0,0,1,.05-1.32c7.68,1.65,8.26,2.92,7.06,10.1-.37,2.24-3,4-1.49,6.55C444.57,626.88,444.57,626.88,441.9,624.88Z" fill="#826248"/><path d="M585,676.72c3.7,5.5,7.79,10.63,13.62,14.09-1.1,1.46-3,.78-4.28,1.54-6.51,4-7.72,1.89-5.61-4.55.41-1.25.66-3.32-.66-3.62C583.16,683.09,585.32,679.47,585,676.72Z" fill="#836653"/><path d="M677,609.81c.55,6-3.17,7.8-8.25,8.24a2.63,2.63,0,0,1-2.82-2.79c-.66-2.41,1.83-3.26,2.51-5l.42-.58A15.4,15.4,0,0,0,677,609.81Z" fill="#5f5a47"/><path d="M351.05,556.43c3.05,2.05,3,4.66,1.67,7.74-.82,1.88-3,3.87-.38,6-.89,1.58-2,3.27-4,2.16-1.67-.93-.46-2.69-.37-4.18.17-2.93,4-5.75.38-8.81A2.56,2.56,0,0,1,351.05,556.43Z" fill="#92735d"/><path d="M556.05,646.8l6.8,2.68c2.13,3.22,1.25,6.49.14,9.75-5.62,3.48-6-.7-5-4.06A7.66,7.66,0,0,0,556.05,646.8Z" fill="#836653"/><path d="M378.55,570.15c3.09,0,4.83,2.16,6.74,4.07,2.41,2.75,1.43,5-1.08,7-1.32,1.15-2.24,2.94-4.41,2.72C379.51,579.3,377.32,574.88,378.55,570.15Z" fill="#5d4436"/><path d="M976.25,662.46c4,7.63.7,13.28-.07,20.73C972,675.61,975.34,670,976.25,662.46Z" fill="#676a65"/><path d="M580.92,838.11c-3-.51-5,2-7.69,2.62a17.35,17.35,0,0,1-.46-2c-.34-2.88-1.47-6.63,2.15-7.64s3.39,3.34,4.9,5.29A20.13,20.13,0,0,1,580.92,838.11Z" fill="#856753"/><path d="M378.55,570.15c1.92,4.45,2.85,9,1.25,13.75-3.2-2-2.53-6.44-5.53-8.54-.08-.39-.15-.79-.23-1.18C375.7,573,375.47,569.75,378.55,570.15Z" fill="#92735d"/><path d="M472.24,902.38c-4,.19-8.27-.11-8.52,5.64-.22-.4-.61-.77-.64-1.18-.23-3.27-2.74-7.75.56-9.46C467.28,895.5,470,899.48,472.24,902.38Z" fill="#957b5f"/><path d="M507.51,637.46c2.41-.29,5-.07,7.19-1,5-2,6.84.34,7.86,4.57a7.56,7.56,0,0,1-3.75,4.4c-3.88-.59-1.76-6.2-5.7-6.74C511.37,637.76,509.1,639.09,507.51,637.46Z" fill="#6a594c"/><path d="M987.63,853q-1,4.11-1.93,8.22l-.5,0V837.58c3.24,4.43,2.7,8.79,2.88,13Z" fill="#3b3f3a"/><path d="M576.46,667.51c5.65-.16,5.39,4.63,6.79,8L580.43,678c-6.54-.13-3.82-4.64-3.77-7.89Z" fill="#a98366"/><path d="M388.08,571.47c3.84-2.28,5.62-1,5.2,3.23-.15,1.52-1.42,3,.69,4.06-2.25,1.25-3.14,6.63-7.21,2.34C387,577.86,389.06,574.87,388.08,571.47Z" fill="#9a7052"/><path d="M988.13,813.55c-.16,1.75-.33,3.49-.57,6.09-1.5-2.27-2.65-3.83-2.32-6,.53-1.49-.36-3.26.93-4.59V794.28l2,0Z" fill="#4b4e46"/><path d="M452.82,619.43c8.84-6.75,3.84,4,6.5,5.07-1.74,2.92-3.44,2.46-4.69-.27C453.93,622.7,454.37,620.69,452.82,619.43Z" fill="#ae8464"/><path d="M388.08,571.47c5.17,4,.41,6.6-1.32,9.63l-2.55.08a9.39,9.39,0,0,0,1.08-6.95Z" fill="#9a7052"/><path d="M513.11,638.73c6.92-2,4.17,4.18,5.7,6.74C510.57,648.53,514.28,641.59,513.11,638.73Z" fill="#ae8464"/><path d="M539.37,641.32c5.12-3,6.06.77,7.16,4.32l-2.7,2.76C539.43,647.85,538.83,644.94,539.37,641.32Z" fill="#6e5741"/><path d="M986.17,809c.41,1.67.57,3.3-.93,4.59l-5.36-12c-1.23-1.63-1.28-2.82,1.16-3.08l2.67,2.74C985,803.73,982.58,807.31,986.17,809Z" fill="#6f6e66"/><path d="M563,659.23c-2.42-3.21,1-6.51-.14-9.75,3.87.76,1.26,6.9,5.89,7Z" fill="#37352d"/><path d="M539.37,641.32c.93,2.7,2,5.31,4.46,7.08-1.32,1.58-2.92,3.13-5,2-1.6-.87-.56-2.78-.58-4.26s-.22-3.07-.35-4.61Z" fill="#ae8464"/><path d="M952.34,678.11l-1.54,1.28c-.71-4.57-3-9-1.28-13.83A29.12,29.12,0,0,1,952.34,678.11Z" fill="#7e827f"/><path d="M605.38,694.69c4.48,1.24,1.79,6.12,4.29,8.36C605.83,703.59,604.28,700.57,605.38,694.69Z" fill="#6e5741"/><path d="M964.31,674c-1,.08-1.84,3.54-2.38,1-.88-4.16-1.61-8.81,1-12.92Q963.63,668,964.31,674Z" fill="#5d605a"/><path d="M996.38,825.86l-.51,3c-1.1-4.71-4.27-9-2.53-13.93C995.48,818.3,995.75,822.13,996.38,825.86Z" fill="#43483d"/><path d="M986.33,902.38l1.6.12c.77,4-1,7.43-2.1,11.53C983.08,909.66,985.68,906.07,986.33,902.38Z" fill="#4c4e4b"/><path d="M423.75,939.58l-5.29,1.23c-2.09-1.55-.92-2.77.6-3.48C421.34,936.27,422.93,937.31,423.75,939.58Z" fill="#9d8977"/><path d="M461.27,649.31l-.21-2.54c2.81-.61,3.13-5.6,7.18-4A15.89,15.89,0,0,1,461.27,649.31Z" fill="#604a32"/><path d="M434.93,925.59c.45,3.68-3.48,1.42-4.42,3.22C429.65,924.57,430.33,924.07,434.93,925.59Z" fill="#9d8977"/><path d="M448.76,920.27c2.19,5.72-1.67,7-5.94,8C444.81,925.62,449.05,924.6,448.76,920.27Z" fill="#9d8977"/><path d="M971.19,691.4c.49,3.29,1,6.58,1.58,10.69C969.55,697.12,969.55,697.12,971.19,691.4Z" fill="#363e3a"/><path d="M822.72,949.06c-.44-2.49,3.49-4.09,1.42-6.91a5.85,5.85,0,0,1-1.07-6.1c3.52-6.77,10.69-10.48,14.49-17.11,1.41-2.47,3.4-1.89,4.33.88s-.07,5.85.94,8.85c3.3-8.44,6.41-16.75,14.69-22-5.52.19-10.45,1.75-15.59,1.45-1.43-.09-3.18.66-3.15,2.07.2,9.2-8.43,5.58-12.52,8.48-2.18,1.54-3.11-.76-2.37-2.93a8.7,8.7,0,0,1,3.38-4.21,23.2,23.2,0,0,0,10.06-14.89c.35-1.71.78-3.84,3-4.16,2.69-.4,3.11,2.16,4.26,3.74.63.9,1.47,2.85,2.11,2.32,4.63-3.86,10.35.33,15-2.26,1.13-.63,1-2.46,1.2-3.8a80.89,80.89,0,0,0,1.08-16.15c-1.79-4.55-3.32-9.63-9.75-4.75,3.63.85,7.92.77,9.9,5-1.37,6.88-1.87,6.89-9,5.05-3.33-.86-7.35.48-8.91-4.2-1.16,2-1,4.16-2.09,5.9-2.34,2.49-4,1.86-4.71-1.24-.76-3.5-.41-6.82,2-8.48-3.95,3.92-9.73,7.5-12.36,14.18-1.37,3.48-2,3.43-5.77,1.5-1.44-.73-.93.57-1.33.82-3.66,2.26-7.36,4.32-9.45,8.52-1.4,2.82-7.2,3.16-9.44.81-3-3.1.16-5,1.93-6.72A72.83,72.83,0,0,0,817.75,877c-3.29,2.48-5.75,5.72-10.74,5.54-1.88-.07-2.23,4.55-2.94,7.15-1.91,7-2.65,7.52-8.46,3.88-3.32-2.07-5.77-1.68-8.61.68a33.34,33.34,0,0,0-9.23,11.67c-1.2,2.6-2.84,5-5.79,5.31-6.53.72-12.6,2.47-18,6.29h-1.36c-1.22-3.67,3.64-7.43-.13-11.08,1.52-3.25,2.57-6.85,5.8-9,3.67-2.43-1.3-2.42-1.07-3.89.48-3,12.4-12.68,16-12.94.76,3.48-2,5.2-3.23,7.43a8.33,8.33,0,0,1,7.11,1.22,6.46,6.46,0,0,0,9.79-4.47c.49-2.78.71-6.06-4-4.37-3.12,1.12-5.28,0-6.95-2.61-.11-2,1.82-3.68,1-5.81-3.26.26-3.08,3.9-6.1,5.17.6-7.94,7.44-9.46,12-13,1.38.25,3.15,1.91,4.05.07,1-2.13-2.2-1.42-2.63-2.84l2.83-5.41c3.25-2.49,6.33-5.09,8.2-8.9.74-1.5,1.54-3.84,3.75-3.24s1.43,3,1.77,5c3.29-2.55,4.71-5.81,5.59-9.64.75-3.27,2.46-6.06,5.56-1.41,1.07,1.6,2.33,1.58,3.19.25,1.73-2.68,5.1-4.84,3.41-8.84a5.06,5.06,0,0,1-.84-1.59c-.29-1.64.11-3,2.05-4.22-2.14,1-2.9,3.32-5.19,3.06a4.56,4.56,0,0,1-3.17-2c1-6.24,2.71-12.27,6.46-17.42,1.31-1.8,3.14-4.81,5.94-3s.92,4.35-.3,6.5c-.44.76-1.2,1.34-1.26,2.24,3.36-2.49,2.83-7.11,5.45-10.05a3.72,3.72,0,0,1,1.78-.69c2.61.33,4.28-1.09,5.72-3a10.37,10.37,0,0,1,3.46-3.23c2.21-1.08,5.11-3.2,6.9-1.32,2.27,2.4-.95,4.37-2.53,6s-3.75,3.23-3.69,6.13c0,1.36-.62,3.07-2,3.29-8.72,1.41-8.24,9.08-11,15.19,4.33-2.45,4.41-2.42,5.87-6.78,1.24-3.7,1.92-7.68,7.54-6.59,2,.38,3.23-1.46,4.09-3.1,1-2-.71-2.06-1.89-2.61-2.36-1.12-1.27-2.58-.1-3.72,1.85-1.79,4.25-3.33,6.74-2.53,4.32,1.39,8.49.16,12.72.16,3.82,6.56-4.35,4.93-5.55,8.05-.68,1.84-2.36,2.7-3.76,3.84-1.22,1-3.43,1.45-.52,3.59,1.65,1.21,0,3.79-.83,5.63a62.09,62.09,0,0,0-4.38,10.78c4.24-5.21,6.07-12,10.94-16.81l3.19-4.46c1.17,5.58-2.09,9.37-2.4,13.64-.14,1.87-2.36,4.05-.32,5.48,1.53,1.07,3.9.3,6-.17,9.42-2.12,16-7.47,19.65-16.38.22-.52,1-.79,1.71-1.28,1.76,1.14.86,2.87,1,4.27.42,3.19-.13,7.31,5.31,3.6,2.09-1.43,4.82-.33,7.33.08,5.1.84,10.44,2.27,14.87-2.08h0c3.8-.87,4.29-3.42,3.52-6.7a25.26,25.26,0,0,1-.7-4.64c-.06-1.28-.2-3.09,1.73-3,1.5.07,2.22,1.46,2.13,3-.1,1.83-2.09,4.28.94,5.15,2.62.76,1.81-2.55,3.17-3.59,1.84-1.41,3.88-1.21,5.88-1.08,7.63.5,15,1.9,21,7.08,1.74,1.48,3.62,2.77,6.12,2.47,2.09,1.32,2.51,3.54,3.08,5.67,1.14,6.09,1.62,12.17-.56,18.17-2.33,2.65-4.47.35-6.68-.25-1.21-.54-2.42-1.11-3.64-1.63a134.75,134.75,0,0,0-16.33-8.43c-1.67-.7-3.59-3-5.4-.68-1.32,1.69-.67,3.8.16,5.81,1.7,4.13,3.52,8.3,2.38,13-4.82,2.49-8,1.37-8.85-4.21a14,14,0,0,0-6.84-10.17c-1.39,5.08,8.15,11.84-2.67,14.34-1.24-3.35-1.77-7.18-5.34-9.1-4.64-2.5-6.29-5.6-1.83-10.22-9.09-3.21-17-2.89-24.27,2.64,4.4-3.15,8.2-3.45,11.23,1.94,1.23,2.19,3.68,3.37,5.34,5.23,1.23,1.37,2.66,2.94,1.42,4.8-1.57,2.33-3.56,1.06-5.88-.24,2.89,4.1.05,12.56,9.41,10.17a10.13,10.13,0,0,0,9.75.83c7-3,14.65-2.22,22-3.42a5.92,5.92,0,0,1,4.53.86c1.76,4.83-2,7.11-5.06,6.6-7.17-1.17-12.9-.24-17.87,5.43-1.63,1.85-4.78,1-7.28.57-10-1.56-19.4,2.71-29.26,2.56a4.37,4.37,0,0,0-4.36,4.54c.14,7.46-1.06,15,.46,22.39a5.12,5.12,0,0,0,3,3.52c2.25,1.14,2.11,3.6,3,5.49,0,1.71-1.16,3.44.07,5.15a4.6,4.6,0,0,1,.27,1.84c-.6,3.25-5.49,4.48-3.76,10.19,4.75-6.85,11.18-9.49,18.07-12,7.24-2.63,14-3.54,21.29-1.58-2-1.2-5.3-.81-5.73-4.25,0-2.69,1.76-4.07,4-5a9.57,9.57,0,0,0,5.14-5.15c2.6-5.58,7-7.35,12.87-5.59a28,28,0,0,1-.71,12.5c-1.32,1.85-3.78,2.91-4.49,5.9,2.86-1,1.7-4,3.71-4.92,4.05,1.26,2.45,5.76,4.71,8.06a7,7,0,0,1,.36,3.07,5.72,5.72,0,0,1-.68,1.92c-2.58,3.78-6.21,3.26-9.85,2.22-3.24-.93-6-.89-9.05,1.17a15.77,15.77,0,0,1-13.16,2c-1.73-.46-3.48-1.11-5.91.56,3.89,2,7.38,1.21,10.75.64,3.19-.53,6.36-1.11,9.47.11,2,.78,3.79,2.12,3.55,4.49s-2.34,2.23-4.17,2.63c-3.33.72-6.71,1.43-9.64,3.34-10.77-.69-20.09,3.83-30.27,7.76,5.64,4.3,11.06,2.79,16.14,1.53,10-2.46,20.17-3.41,30.3-4.78,2.65-.35,6.42,0,6.76,2.94.41,3.61-3.44,4.65-6.36,4.69-12.42.17-23.41,5.68-35,8.9-1.17.32-2.13,1.66-3,2.67-1.37,1.59-1.87,4.92-4.71,3.73-2-.85-2.63-3.59-2.68-5.95-.06-2.7,0-5.4,0-8.22-5-2-8.52,3-13.2,3.84-4.09.77-8.3.78-12.33,1.3-5.2.68-9.12.82-7.81,7.58a3.12,3.12,0,0,1-2.34,3.2c-2.75-3.15-.94-7-1.52-10.42-.27-1.61.95-4.18-1.73-4.42-2.26-.2-3.86,1.56-4,3.89-.12,3.13-1,5.54-4.07,7C825.21,958.49,822.84,957,822.72,949.06Z" fill="#2a2f29"/><path d="M811.75,824.54a2.92,2.92,0,0,1,2.72,1.21,8.79,8.79,0,0,1-4.87,7.52c-1.2.66-2.58,1.41-3,2.6-2.68,7.27-9.79,7-15.45,9.2-.15-3.26,1-6.82-4.91-3.19-4.38,2.7-8.38,4.54-9.9,9.93-.45,1.62-3.27,5.08-4.84,3-1.7-2.21-3.8-7.43-.86-9.24,6-3.69,5.63-10,8-15,1.58-3.37-2.14-5.51-3.3-8.25A3.59,3.59,0,0,0,770,821c-3.81,2.43-8.28,4-11.2,7.71-.84,1.08-2.5,2.4-1.77,3.45,4.82,6.91-2.48,7.27-5.31,9.94-2.53,2.39-7.72,2.7-6.14,8.2.37,1.29-2.11,3.18.47,4,2.33.73,2.12-1.75,2.92-2.94a2.34,2.34,0,0,1,2.06-.83c-1.36,8-8.34,12.82-12.25,19.34-3.46,5.77-2.66,14.52-11.29,17.2-1.7-2.15,3.38-4.79-.91-7.41-3.29-2,4.15-2.73,2.07-6.08l-17.26,7.09c-2.76-8.38,3.64-12.25,8.4-16.94a16.15,16.15,0,0,1,4-3c1-.48,2.93-.41,2.77-1.44-.69-4.49,1-8,3.78-11.22.15-.17-.8-.95-1.25-1.45.23-4.66,4-5.51,7.39-6.74,3.64-1.32,7.24-2.35,9.62-6,3.44-5.18,3.17-8.3-2.08-11.42-3-1.77-5.79-1.72-6.77,2.45-1.89,8-7.1,12.88-14.13,17-7.2,4.27-13.67,9.8-21.14,13.77-2.12.94-4.23,2-6.63.91-2.06-3.14.88-4,2.61-4.9,2.94-1.55,3.52-3.84,3.07-6.76.44-2.12,2.26-3,3.8-4.07,1.44-.93,2.93-2.26,4.73-1,3,2,4.29,0,5.63-2.1,2.32-1.71,5.23-3.12,3.26-6.88-.57-1.1-.37-2.61.81-2.84,6.87-1.35,9.63-7.59,14.26-11.59,3.87-1,7.6-2.84,11.78-2.16,1-.15.87,3,2.78.72a5.56,5.56,0,0,1,5.93-2c5.28,2.92.22,7.19,1.24,11.76,3.75-4.06,5.77-8.3,9.15-11.72-6,1.73-6.28,1.34-5.21-5.91C764.86,801,772.62,797.76,780,795c6.09-2.27,11.25-7,18.19-7.24,1.83-.08,3.06-1.87,3.19-3.92a2.51,2.51,0,0,0-1.47-2.79c-1.88-.7-3,.69-4.08,1.8-3.82,3.93-9.74,1.72-13.89,4.75a1.5,1.5,0,0,1-2.19-.94c-.47-1.42.28-2.62,1.07-3.77,7.63-11,19.55-12.58,29.54-3.89a17.89,17.89,0,0,1,1.5,1.39c1.11,2.86-.31,5.19-1.61,7.53-3,2.66-4.87,5.69-3,9.86a4.08,4.08,0,0,1-1,1.62c-3.81,2.44-5.87-4.38-10.08-1.51,1.72,2.67,5.93.32,7.31,3.57,1.72,4,1.88,7.65-.45,11.59-3.95,6.67-5,12-4.16,18.82,3.06-2.23,4.09-7.25,9-6.27C809.21,825.4,810.14,823.73,811.75,824.54Z" fill="#212521"/><path d="M721,864.2c-4.48,4.74-9.26,9.3-9.63,16.42-4.73.11-8.55,3.8-13.52,3.29-1.92-.19-2,2.22-2.93,3.37-5.56,6.54-11,13.26-20.56,14.33,3.27,2.1,1.8,4.32.13,6.81-1,1.51-4.29,1.63-3.06,4.55,1.36,3.23,4.29-.71,6.21,1.52-3.1,5.71-9,8.76-13.57,13.09-1.31,1.23-3,1-4.52.37-3.25-1.3-6.31-5.41-9.92-.6-1.91-4.14-5.45-4-8.86-2.81-2.38.84-6.92,0-4.67,5.79,1.14,3-2.61,4.61-5.94,3.71a57.48,57.48,0,0,1-9.75-3.14c-3.43-1.65-6.33-2.13-9.34.67a4.17,4.17,0,0,1-5.15.43c-5.16-3.27-9.22-.82-13.86,1.57-5.27,2.7-12.26,2.2-15.48,8.58.18-3.91-2.28-7.17-2.76-10.92,5.62.77,11.29,1.8,16.48-3.46-5.73,2.16-10.86,4.26-16.49,3.46l-5.9,2.33c-1.25-3.41,2.47-3.21,3.17-5a44.32,44.32,0,0,1,4.38-8.28c5.17-6.55,8.6-7.46,16.15-3.89,2,.93,3.58.92,5-.46,4.9-4.77,11.88-4.3,17.58-7,.81-.39,2-.78,2.64-.29,6.45,5.16,11.06.37,16-2.8,5.94.08,11.81-1,17.74-1.2,3.06-.11,4.78-.32,4.31-4.66-.68-6.28,4.58-8.71,9.77-9.25,4-.42,3.65-2.42,3.51-5a2.12,2.12,0,0,1,1-1.53c3.72.41,6.63-.52,8.13-4.37A14.6,14.6,0,0,1,681,875c6.27-6.11,11.65-5,14.58,2.85,3.1,2,4.42-1.29,6.52-2.21,1.42-1.1,2.3-2.74,3.81-3.74.94-.52,2.89-.82,2.62-1.56-.49-1.37-2.37-.26-3.55-.78a2.7,2.7,0,0,1-2.22-2c4.16-5.6,10.39-5.37,16.38-5.66A1.79,1.79,0,0,1,721,864.2Z" fill="#252b25"/><path d="M791.14,845.07c3.24-1,4.39-7.09,9.46-3.83.22.14,1.77-1,1.92-1.66,1.52-6.76,8.74-8.57,12-13.82l7.55-6.07c1,4-4.53,5.28-3.36,9a12.2,12.2,0,0,0-3.19,4,19,19,0,0,1,3.15-4.09c1.26-.36,3.1-1.16,2.71,1.2a17.79,17.79,0,0,1-8,12.09c-.93.63-2.15.13-2.75-1.16s.59-3.21-1.82-4.55c-1.15,5-1.74,10.24-6.19,13.58-1.16.87-1.5,3.51-3.32,2.75-2.53-1.07-.27-3.06-.14-4.65.07-.88.1-1.76.21-3.68-4.33,4.58-4.89,12-12.32,11.79Z" fill="#534e40"/><path d="M776,877.84c2.81.66,5.56,3.2,8.48,0a1.88,1.88,0,0,1,3,.11c2.15,3.53,2.65,7.55-.11,10.64-2.44,2.73-7.45,6.76-9.72,3.64-4.2-5.77-7.66-2.06-12.71-.15,3.41-4.69,5.88-8.07,8.35-11.45Z" fill="#564939"/><path d="M752.51,906.46c4,.85,5.4,2.77,2.75,6.49a51.81,51.81,0,0,0-2.62,4.59c-4.72.35-8.75,4.14-13.83,2.73C741.22,913.56,745.49,908.66,752.51,906.46Z" fill="#423c34"/><path d="M784.22,861.4c1.63,1.25,4.68-2.6,5.4,1.34a4.36,4.36,0,0,1-3.08,4.79c-2.91,1.07-3.29-1.34-3.74-3.36C783.27,863.24,783.75,862.32,784.22,861.4Z" fill="#6c5d43"/><path d="M811.78,653.54c1.05.4,2.41.5,3.08,1.23,7.69,8.39,18.55,10.23,28.54,13.86,1.25,2.06,3.1,3.78,1.88,6.75a2.84,2.84,0,0,0,2.26,3.6c2,.19,2.63-1.34,2.15-3.24-.83-3.32,0-4.57,3.3-2.51,2.9,1.82,6,.26,7.58-1.22,3.51-3.29,7.86-1.52,11.52-3.07a1.83,1.83,0,0,1,2.66,1.33c.29,1.7-1.12,1.18-2.15,1.5-7.86,2.41-8,2.83-3.76,10,1.13,1.91.49,4,.69,6,1.31,1.63,1.26,3.09-.51,4.35-1.94-.64-2.33-2.59-3.36-4a9.69,9.69,0,0,0-4.07-3.65c2.23,3.42,4.95,5.31,7,7.74a11.93,11.93,0,0,1-2.44,9.63c-6.8,8.89-10,19.95-17.84,28.15-1.23,1.29-2.47,2.73-1.88,5.7,3.8-1,5.15-3.59,6.22-6.89,2.3-7.09,7-12.76,12.27-17.74,4.49-4.23,8.3-3.06,9.65,2.24-11.27,15.76-25.19,29.13-39,42.58-1.27,1.23-2.69,2.56-4.81,1.74-2.88-5.09-2-9.44,2.3-13.43,2.26-2.12,5-4,5.91-7.46-2.58-.45-4.33,4.37-7.12,1-2.55-3.08-.67-8.81,4.06-14-6.89,7.35-9.9-3-14.35-4.79-5.84,7.45-8.89,16.2-14.25,23.59-1.58,2.19-2.55,4.19-2.36,6.82.45,6.13-3.09,11.86-1.74,18.17.45,2.12-1.42,3.54-3.61,4.35-12.57,4.64-22.86,13-33.36,20.89-3.22,2.42-4.37,6.89-7.13,10-2.18,2.42-4.28,5-8.1,3-2.23-6.25,3.23-9.61,5.38-14.21a11.89,11.89,0,0,1,2-2.07,27.72,27.72,0,0,0,7-7.07c2.42-2.92,5.67-4.86,8.61-7.17,7-2.37,11.8-8.25,18.16-11.63,2.5-1.33,3-3.15,2.48-5.6a10.89,10.89,0,0,1,1.74-8.82c-4.36,2.29-6.43,8.55-12.09,6.06-4-1.74-5.62-5.63-5.74-10a3.16,3.16,0,0,1,1.76-.72c2.12-.53,4.07,4,5.8.8,1.35-2.48,1.29-6.42-1.66-8-4.8-2.51-6.54-6.94-8.33-11.25-2-4.87-1.12-9,.78-13.31.37-.84,1.56-1,1.53-1-4-1.75-7.7-4-12.81-6.69,2.52,1.69,4.12,2.23,5.12,3.56s1.9,4.37.72,6-2.75-.43-4.18-1.29a74.59,74.59,0,0,0-12.46-5.62c-3.06-1.16-6.88-2.71-1.46-6.12.4-.25.89-.51.93-.95.19-2.68-2.08-7.48,1.78-7.29s8.07,2.18,11.64,4.44c1.89,1.19,3.28,3.16,5.68,4,.95-1.66-1.5-3.33,0-4.86,6.66-1,10.33,2.55,12.65,8.18-2.59,2.15-2.8,4.13.17,6.26a14.51,14.51,0,0,1,6.06,8.79c-.23-5.28-6-7.08-4.16-11.87,2.88-1,3.9,1.62,5.71,2.78,2.49,1.61,5.08,3.35,8.09,1,2-1.5,3.6-3,.65-5.25-3.38-2.56-4.53-6.77-7.13-10-1.83-2.23-3-5.35,1.63-6.47,7.14,7.27,15.22,12.87,25.21,15.82,7.8,2.31,14.82,2.65,21-3.53a5.88,5.88,0,0,1,4.91-2c1.67.47,3.38,1.55,5,0,.48-.47,1.82-1,.89-1.81-.47-.43-1.57.55-2.46.68-9.06-3.23-17.94,3.69-26.63,1-7.88-2.47-16.36-4.34-22-11.72-4-5.17-10.74-7.72-14-13.78a37.48,37.48,0,0,1-2.07-3.53c-1-3.55-2-7.12,3.65-7.44,2,5.17,5.5,8.41,11.43,8.47,2.55,0,2.34,2.4,3,4,1,2.61,2.82,3.43,5.43,2.45,2.32-.87,4.12-2.06,3.19-5a11.21,11.21,0,0,1,.29-7.26c-5.47-1.48-10.82-1.84-16.29.37-2.51,1-4.87-.54-6.57-2.65,3-7.3,9.94-5.94,15.56-6.16C810.44,658,811.74,657,811.78,653.54Z" fill="#2e332c"/><path d="M831,757.48c13.49-11.53,25.42-24.56,36.93-38,1.78-2.07,3.24-4.36,5.69-5.74,1.73-1.5-.27-4,1.42-5.47,4.38-3.12,4.76-7.91,5.54-12.62s1.63-9.38,5.16-13c1-1,2.42-2.38,3.31-1a43.51,43.51,0,0,0,3,4.61c1.07,1.28-1.65,1.33-2.61,2-1.62,1.17-4.17.08-5.86,2.86,3.59-.29,6.93-1.15,7,4.18,0,3,2.8,1.16,3.73-.17,1.8-2.57,3.59-3,6.32-.75-3.16,3-6.7,5.12-8.21,10.14-1.23,4.1-3,10.73-11,10.8-1.75,0-4.49,7-8.28,9.8a41.8,41.8,0,0,1-6,4.25c-2,1-3.73,1.57-3.41,4.88.44,4.57-4,6.09-7.31,8-1.56.9-4,1.83-2.53,3.93,1.75,2.57,2.94-.34,4.24-1.2,1.07-.7,1.84-2.34,3.43-1.3a2.35,2.35,0,0,1,.91,3c-2.71,4.83-4.17,10.91-11.56,12,5.27.77,4.43,5.6,6.41,8.5,3.46,3.75-.78,8.3,1.28,12.19-6.18,1.2-7.87,5.49-8.11,11.12,3.62.45,4.94-2.3,7-3.81,3.55-2.58,6.66-3.27,7.94,2.25-2.73,2.48-7.14,2.93-8.6,7,1.07-.08,2.07-.8,3.14-.19,3.55.36,2.2,2.32,1.37,4.12-2.91,3.54-7.72,3.5-10.52,2.22-4.19-1.89-6.18.34-9.48,1.86,1.78,2.14,7.14-2.1,5.69,2.52-1,3-2.59,9.22-7.63,7.26-4.18-1.62-4.34.37-4.82,2.67a21.13,21.13,0,0,1-5,10.18c-1.08,1.18-2.39,2.49-4.12,1.53s-1.52-2.91-.73-4.22c2.56-4.27,1.76-11.38,6.28-13.11,7.74-3,8-11.71,14.5-15.12-4.58-.12-7.66,1.75-10,5.62-.95,1.58-2.68,6.13-5.79,1.36-1.44-6.37-.22-12.12,4.45-16.82,1.81-1.82,4.21-4.85,6.77-1.77,2.22,2.67-.64,4.35-2.85,5.69a7.58,7.58,0,0,0-1.61,1.37c4.37-1.5,6.62-6,9.82-9.45,1.19-1.3,2.93-2.7,1.37-4.69-1.93-2.47-3.22.06-4.47,1-5.15,3.7-10.82,6.9-13.25,13.34a9,9,0,0,1-2.65,3.1c-1.83,1.65-3.63,4.25-6.35,3.13s-3-4-2.86-6.55c-1.16,2.76,3,5.79.62,8.2-3.41,3.4-7.62,6-11.62,8.75-1.87,1.28-2.88-.08-2.58-2.25.35-2.44.06-5,1.86-7.11h0c.9-3.65,1.15-7.46,2.61-11,1-2.24,2-4.49,3-6.73,3.27-6.77,6.8-13.4,11.94-19C825.73,759.82,827.31,756.85,831,757.48Z" fill="#5a5142"/><path d="M909.44,747.94c3.74.75,8.82.57,4.53,6.73a1.5,1.5,0,0,0,.73,2.26,3.54,3.54,0,0,0,3.94-2c1-2,1.46-5,4.17-4.54,3.22.51,3.37,4,4,6.54.74,2.85,1.58,6.07-4,4.45C918.47,760.07,915,764,911,765.4c-1.94.69-1.53,2.68.84,3.05,4.87.74,7.9,3.32,7.73,8.34-.23,7-4.3,11-11.14,12a18.82,18.82,0,0,1-7.44-.48c-5.91-1.5-11.59-1.68-15,4.75-.49,1.24-1.18,2.08-2.68,1.4-2.72.24-5.24-1.44-8.28.77-2.72,2-5.46.74-5.59-3.64-.21-7.34,9.63-17.16,16.71-16.22,2.47.33,5,.82,5.45,4-4.84.91-7.17,5.36-10.46,7.23,2.52-3,8.8-1.83,10.46-7.24,2,4.58,4.19,3.73,7,.48,5.38-6.2,5.81-13,3.48-20.46-3.05-9.8-1.42-12.21,7.36-11.47-.6,1.87-2.64,2.48-3.57,4s-.37,3.06.72,4.36a1.43,1.43,0,0,0,1.83.41c1.4-.74,1.58-2.08,1.56-3.49C910,751.45,908.55,749.81,909.44,747.94Z" fill="#73644e"/><path d="M950.81,774l5.43,20.54c-2.7.09-1,1.65-.82,2.6.39,2.77,2.41,5.46.37,8.34a50.7,50.7,0,0,0-6.86,0c-4.6.56-5.92-3.78-8.8-5.69-4.86-3.21,2.59-5.39.88-9a19.75,19.75,0,0,0-16.39,7c-.91,1-2.18,3.06-3.77,1-.92-1.21,0-2.81,1.22-3.47,3.76-2,5.53-6.83,11.51-6.05,2.68.35,1.6-6.07,4.28-8.43-2.1-2.33-4-.92-6,.21-2.46,1.36-5.8,1.7-7.68.36-2.58-1.84.87-3.83,1.48-5.81.72-2.32-.77-5.12,1.58-7.06,1.63,1.32,1.57,3.22,1.7,5.16,1-2.33-.14-3.82-1.68-5.19,1.37-3.83,3.14-7.19,8.12-5,1.68.75,2.39,0,3.47-1s2.57-1.29,2.79.85c.12,1.17,1.1,2.68-.76,3.52s-5.71-.69-4.72,2.86c.9,3.2,4.71,2.79,7.64,2.84a4.58,4.58,0,0,1,2.72.49c1.58.89,1.75,1.3,2.35,1.19Z" fill="#625a4a"/><path d="M875,708.28c-.21,1.89.67,4.07-1.42,5.47-.66-7.77-6.16-3.2-7.36-1.78-4.79,5.69-11.14,10.61-12,18.86a4,4,0,0,1-1.12,2.4c-2.55,2.22-4.8,7.37-8.63,4.19-3.1-2.57,0-6.49,2.54-8.62,7.15-5.92,8.1-15.55,14-22.18,3.73-4.17,5.16-9.62,7.08-14.76l0,0c1.64-1,1.32-2.62,1.4-4.13,1.6-.58.9-3.1,3.51-3.48.11,5.9,5.58,11.45-.55,17.57C869.78,704.57,873,706.57,875,708.28Z" fill="#554f41"/><path d="M954.9,757.92l-2.42.13c-6.25,2.65-11.87,1.46-16.5-3.28-2.56-2.62-5.81-4.14-8.58-6.37-2.27-2.87.23-4,2.09-3.87,4,.21,6.13-2.53,8.9-4.31,3.54-2.28,4.62-4.77,2.23-9-1.11-2-5.57-7.19,2.18-7.67,3.81.48,3.88,4.17,4.74,6.64,2.5,7.21,5.37,14.15,7.91,21.47C956.21,753.88,956.84,756,954.9,757.92Z" fill="#5f5542"/><path d="M913.52,817.68c-3.18.22-6.43.07-9.51.75-5.5,1.22-5.87-4-4.7-5.37,2.61-3,1.86-8.16,6.65-9.57,1.33-.39,3.18-1.53,2.32-3.5-.76-1.75-2.69-1.57-4.25-1.38-4.61.58-6.76,4.42-9.24,7.53-2,2.48-3.81,4.92-6.67,6.82-.93-8.49,4.14-15.65,11.79-17.17.45-.09.91-.12,1.35-.21,11.5-2.56,12.94-1.48,12.19,10.52-.24,3.9,0,7.72.08,11.58Z" fill="#5c5643"/><path d="M869.13,753.4c-4.78,1.34-4.35-.17-3.91-4.33.75-7,4.22-11.11,9.86-14.32,2.84-1.61,4.66-1.62,4.78,2.23,0,.65-.23,1.78,0,1.9,3,1.43,6.49,3.16,4.18,6.92-2.5,4.08-6.82,6.52-11.66,7.57A15.59,15.59,0,0,1,869.13,753.4Z" fill="#564f42"/><path d="M876.45,760.3c1.56-6.18,7.68-8,11.82-11.59,2.54-2.16,4.33,1.4,4,4-.21,1.89-1.64,3.64-2.68,5.75,1.77.26,3.44.17,4.81.76,3.24,1.4,3.45,4.73,3.61,7.52.14,2.52-2.36,2.71-4.49,3.15a29.2,29.2,0,0,1-13.3-.23c-4.13-1-3.87-2.65-3.78-5.37,4-.32,7.29,4.06,12,1.41-1.07-2.74-4.73-4.56-3-8.22C881.78,757.23,879.92,761.25,876.45,760.3Z" fill="#5c5243"/><path d="M905.4,726.7c-.07-2.4.68-4.15,3.2-4.55s3.64.18,5.17,2.76c2.91,5,3.32,12.63,11.71,12.89,1,0,1.76,1.55,1.21,2.74-.78,1.69-2.81,2.55-3.93,1.43-2.77-2.76-6.11-1.91-9.29-2.54C906.55,738.07,907,731.56,905.4,726.7Z" fill="#796952"/><path d="M888.65,738.41c.75-2.36-2.26-5.48,1.48-6.67s4.48,1.87,5.53,4.45c1.43,3.55,3.43,1.63,5.37.44,2.15-1.32,4.31-3.09,5.7,1,1.12,3.31.91,5.07-2.94,6.64-4.42,1.81-8.88.54-13.26,1.22C887.31,746,889.85,740.68,888.65,738.41Z" fill="#6c604d"/><path d="M858.51,779.39c-3.4-.49-3-2.84-2.2-5,.92-2.37.78-4.78.92-7.2,2.89-2.05,5.57-4.55,9.52-4.25,2.19,2.66,2.19,2.66-1.74,4.38,2.78,1.17,4.12-3.74,7.07-1.74,1.09.74,1,1.87.25,2.91C871.1,776.37,866.52,780,858.51,779.39Z" fill="#736452"/><path d="M857.16,815c-1.11,6.21-7.86,17-13.4,21.07-.68-8,5.71-13.45,7.26-21L846.47,817c.88-5.6,4.95-7.41,9.24-9C858.11,809.9,856.83,812.6,857.16,815Z" fill="#5a5345"/><path d="M876.45,760.3c3.15-2.6,6.37-5,11.47-5.38-1.59,3.39-3.21,6.92,1.93,8.37,1.63.46,1.79,1.91,1.49,3.33-.37,1.7-1.78,1.88-3.18,1.9-4.43.08-8.64-.49-11.69-4.21C876.46,763,876.46,761.64,876.45,760.3Z" fill="#88735a"/><path d="M927.22,748c2.8-.22,5.63-.11,7.34,2.47,4.29,6.49,10.59,7.82,17.74,7.17q-.24,5.24-.47,10.45l-.92.76c.49-6.08-1.36-8.55-8.45-9.08C931.64,759,927.8,754.86,927.22,748Z" fill="#625a4a"/><path d="M859.89,795.78c-2.18.82-3.18,3.7-6.72,3.68,2.21-6.3,5.16-10.67,12.18-10.51,1.2-.25,2.7-1.17,2.74,1.21a3.76,3.76,0,0,1-2.68,4.05C863.59,794.8,861.32,793.83,859.89,795.78Z" fill="#2a2f29"/><path d="M883.29,794.45l2.68-1.4c.9.09,2.19-.16,2.63.34,1.46,1.64-.46,2.33-1.34,3-4.13,3.19-9.09,1.69-13.77,2.21C876.24,796,880.53,797,883.29,794.45Z" fill="#2a2f29"/><path d="M872.33,768.5c-.29-1.92-1.1-3.22-3.11-1.72-2.6,2-5.28,2.08-8.33,1.13.82-2.75,2.65-1.77,4.42-1.72,2.5.07,3.34-1.1,1.44-3.24.32-2,1.32-3.23,3.09-1.47S875.52,764.78,872.33,768.5Z" fill="#5a5142"/><path d="M867.92,806.25c3.88-3.18,7.75-7.6,13.38-1.23C876.33,805.59,872,804.81,867.92,806.25Z" fill="#85745b"/><path d="M908,929.85c1.72-3.7,4.86-4.35,8.55-4.15,1.72.09,4.2.34,4.16-2.19,0-1.93-2-2.82-4-3.16-3.73-.67-7.18.85-10.78,1.24a45.52,45.52,0,0,1-5.48,0c-2,0-4.26.34-5.5-1.82a2.09,2.09,0,0,1,.94-2.92c1.9-1.19,3.93-2.85,6.28-1.43,3.19,1.94,6.59,2.54,9.67.68,6.34-3.82,12.61-5,19.6-1.85.83.38,2.66-1.42,4-2.21,2.53,1.65,2.2,4.13,2.18,6.67,0,4,1.51,7,5.79,8.07a2.86,2.86,0,0,1,.38,4.36c-2.29.09-4.93.47-6.54-1.23-7.89-8.26-15.62-3.88-23.37,0C911.91,931,910,929.34,908,929.85Z" fill="#222523"/><path d="M872.79,967.67c-6.46.38-13.32-.45-19.27,1.48-6.2,2-9.49,8.25-11.58,14.8-1.64-6.14,1.41-11.55,2.71-16.91.79-3.24,6.11-1.65,9.39-1.6,6.23.1,12.53-.68,18.71.54C872.76,966.54,872.78,967.11,872.79,967.67Z" fill="#313430"/><path d="M961.76,817.5l.09-2.53c1.68-1.71,3.41-3.17,5.87-1.23a4.46,4.46,0,0,1-.3,5.32c2.57,4.72,3.08,9.82,2.76,15.07-2.64,8.47-2,17-.69,25.58,1.75,11.42-.15,22.61-2.5,33.78-1,4.65-.15,10-1.46,14.11-4,12.74,3,24.44,2,36.75-.31,3.85-.23,7.66-2.59,12.39-2.83-24.59-4.76-48-3.09-71.68,1.67-12.89,2.15-25.71-.13-38.65-1.49-8.48-.91-17.12.56-25.64A4.21,4.21,0,0,0,961.76,817.5Z" fill="#343734"/><path d="M958.57,884.72c-.94.32-.11,3.75-2.32,1.47-.67-.7.11-2.59-1.22-3.7-2.31,4.15-2.77,8.67-3.53,13.11-1.08,1.61-.33,3.45-.65,5.15-.58,3.06-2.18,2-3.76.83a7.59,7.59,0,0,1-1.33-2.9c-.3-1.74-1-3.39-1.23-5.15-.27-5.8-.88-11.62.41-17.4a9.61,9.61,0,0,1,.77-1.62c-1.37-.29-.41,1.42-1.34,1.54-1.43.85-3.06.68-3.25-.89-.89-7.4-5.08-14.5-2.17-22.26a6.53,6.53,0,0,1,6.72-.5c3.29,3.12,3.17,7.34,3.6,11.35.3,2.87-.08,5.87,1.86,8.89.43-3.84-.9-7.58,2-10.42a4,4,0,0,1,4.44.6C959.32,870.06,962.37,877.25,958.57,884.72Z" fill="#2a2f29"/><path d="M981,798.55a2.4,2.4,0,0,0-1.16,3.08c-.08,6.09-.45,12.2-.15,18.28a27.34,27.34,0,0,1-2.89,14.4c-2.52-5.42.74-10.6.68-15.92,0-1.77.05-1.77-2.12-.77-.9-.41-1.79,3.14-2.52.21-2.88-11.52-3.08-23,1.24-34.29.42-.64.85-.64,1.28,0l.09-.07c0,1.09-.52,2.8,0,3.18C979.57,789.64,979.19,794.6,981,798.55Z" fill="#3c3d32"/><path d="M950.91,937.6c.29-5.11-3.82-9.29-3.1-14.49.49-3,2.42-1.91,4.14-1.4,3.39,13,4.17,26.51,8.5,39.39-2.46.21-1-2.74-3.05-2.74-1.92,1.68.5,4.77-1.9,6.66C951.68,956.18,954.39,946.35,950.91,937.6Z" fill="#2f312f"/><path d="M973.94,970.91c0,3.09,0,6.17,0,9.26l-3.4,4.39c-1.36-8-4-15.95-1.75-24.24,4.89-.68,2.83,3.33,3.68,5.39C972.93,967.45,972.12,969.55,973.94,970.91Z" fill="#1e2625"/><path d="M953.61,917.37c-3.38-1-3.64-2.28-1.67-8Q952.78,913.4,953.61,917.37Z" fill="#272c2a"/><path d="M796.62,690.51c-2.3,2.35-1.69,4.6.61,6.33,4,3,4,9,9.18,11.3,1.43.64,2.3,2.56-1.31,3.94-8.14,3.1-7.93,3.65-16.7-3.79-1.61-.2-3.21-.4-2.79-2.68-3.11-4.31-6.65-8-12.49-8.11-5.3,1.37-9.42-1.61-13.56-3.93-3.14-1.76-5.74-4.61-9.85-2.82a2,2,0,0,1-2-.27c-7.26-5.78-17.56-4.51-24.71-10.56-1.39-1.18-3.17-2.59-4.93-1.61-8.55,4.76-16.1-2.78-24.32-1.82a1.76,1.76,0,0,1-1.7-2.36L690.73,670c6.85-2.62,13.82-1.52,20.58-.06,4.2.91,8.2,2.66,13.11,2.2-1.62-5.25,0-7.93,3.48-7.36-5.61.49-13.45.39-20.88-2.61a13.29,13.29,0,0,1-1.68.86c-3.47,1.62-4.94-.92-6.57-3.12-1.48-2-2.9-4.56-5.94-3.47-7.78,2.78-11.87-2.89-16.05-7.26-2.52-2.65-4.83-4.63-8.47-4.92-2.87-.22-4.84-2.35-7.23-3.42-6.45-2.89-12.43-8.37-20.48-5.15a2.91,2.91,0,0,1-2,.27c-2.65-.9-5.33-5.77-7.89.1-4.61-1.89-10.15-1.94-13.88-5.32-4.19-3.79-9.66-2-14.07-4.36-1.45-.77-1.66.62-1.49,1.93.49,3.7-2.23,3.17-4.48,3.24-4.36-.79-7.71-2.84-9.06-7.32-1.69-5.43-5.31-8.3-11.11-8.07-2.89.12-5.28-1.27-7.84-2.14-4.39-1.48-8.66-5.88-12.77,1-1.42,2.4-4.55.83-6.48-1.15a11.91,11.91,0,0,1-1.8-2.27c-2.77-2.91-2.35-8-6.37-9.44,1.63,1.89,6.27,4.33-.74,6a7.24,7.24,0,0,1-1.89-.45c-4.74-4.7-12.67-5.4-15.38-13-.88-2.5-4.88-4.42-8.87-3.34-2.35.63-5.36.79-3.92-3.43,1.22-2.32,4.8-3.5-.57-6.8-6.59-4-4.95-11.75,1.94-16.45,2.89,1,3.78,5.77,8.8,3.52,2.11-1,1.31,4,2.18,6.1,1.11,2.67-3.27-1.89-3.43,1.75,2.39,1.74,4.9,4.08,7.85,5.57,2.6,1.31,5.95,2.27,6.56-2.52.68-5.24,4.93-4.09,7.26-2.9,8.66,4.45,18.42,6.31,26.75,11.48,1.29.8,3.2,1.7,4.42,1.31,4.19-1.33,6.08-1.77,4.12,3.88-.73,2.09,3,2.2,4.75,1.49,3-1.17,5.78-2.74,9.14-2.34,12.64,3.11,24.37,8.73,36.59,13,11.2,3.93,22.7,6,34.66,4.83a43.75,43.75,0,0,1,6.83.39c3,3.55-2,3.16-2.51,5-7.72,4.5-16.48.72-24.31,3.07,1.78,9.21,8.54,6.79,14.56,5.85,1.58-.24,3.11-.89,4.68-.34,5.74,2,11.74,3.22,17.5,4.74,4,1,12.3,3.85,10.6,12.53-.66,3.39,2.32,2.11,3.66,1.49,4.54-2.1,8.23-.94,12,1.95,2.9,2.23,6.13,3.12,8.11-2.17,2.07,4.89,3.74,8.94,5.49,12.94.54,1.22,1,2.67,2,3.43,3.38,2.65,8,3,10.75.64,3.09-2.64-2.16-3.33-3.28-5.12-4.72-7.51-4.86-8.26,1.56-10.27,4.79,1.91,10.12,2.59,14.42,6.77-1.89-6.26.55-8.89,6.25-7.68a9.23,9.23,0,0,1,5,3.25c11.31,7.62,19.41,18.22,27.37,29,2.76,3.73,7.28,5.4,10.82,8.22C795.3,685.28,798.52,686.68,796.62,690.51Z" fill="#343a34"/><path d="M510.57,587.92c.18,1.11.85,3,1.66,2.41,5-3.74,8.3.58,12.16,2.27a7.17,7.17,0,0,0,1.88.28c-1.48,10.06,10.64,7.77,13.09,14.26-7.07,4.28-14.24,4.17-20-.66a9.71,9.71,0,0,0-5.39-2.39c-4.75-.6-9.58.75-13.83-4-2.53-2.81-7.19.33-10.45,2.5-6.77,3.27-13.54,2.37-20.32.06-4-1.55-8.13-2.85-11.86-5.08-1.6-1-3.24-1.94-2.26-4.25.47-1.09,1.64-2.44,2.41-2.14,4.7,1.81,6-6.3,10.17-3.69,4,2.51,9,2.7,12.16,7.07,2.76,3.84,6.84,1.83,11.78.26-8.07-2.84-12-10.19-20.59-10.31-3.08,0-7.94-2.24-8.63-7.21,0-.1.28-.29.46-.34a2.21,2.21,0,0,1,.68,0c4.66,2.33,3.95-1,4.24-3.77.33-3.14-1.39-5-3.61-6.82.8-2.49,4.14-1.84,4.93-4.28.48-1.49,1.62-3,3.56-2.22s2.2,2.81,1.74,4.67-1.29,3.86-1.89,5.81.34,3.71,2.09,3.33c5.89-1.31,7.89,4.2,11.9,6.09,1.73-2-3.37-5.58,1.28-6.7,4.2-1,4.61,2.82,5.5,5.46,1.11,3.31,1.87,6.74,2.78,10.14.76-.3,1.42-.37,1.5-.62,2.51-8.16,2.54-8.17,9.62-2.65C508.41,586.28,509.49,587.1,510.57,587.92Z" fill="#554b3d"/><path d="M463.7,577c2.74,4.38,7.3,6.94,11.7,6.14a5.38,5.38,0,0,1,5.41,2.09c3.52,4.64,8.81,6.64,14.71,10-5.76,1.81-11.12,6.2-15.13,2-3.42-3.58-8-4.1-11.26-7.29-1.86-1.84-1.92-1.53-4,1.23-1.4,1.83-3.72.64-5.61.91-1.41.21-3,.47-3.29,2-.54,2.47,1.72,1.19,2.68,1.7,3.51,1.89,7,3.84,10.47,5.77,3.37,1.72,3.37,5.18,2.72,7.79s-4,2.52-6.46,2.49c-1.53,0-3.2.54-4.56-.7-1.15-1.63-3.1-3.19-3.26-4.91-.25-2.63,0-3.25-2.75-1.55-3.54,2.15-5.69-.28-4.47-3.44,2.44-6.29-1.29-6.72-5.56-6.68-2.22,0-3.68.63-3.73-2.7-.05-2.81.94-4.29,3.24-3.62,4,1.16,6.52-2.16,10.19-2.17-2.14-4.86-7.48-3.45-10.34-6.26,2-2.52.89-6.32,3.89-9,1.05,2.65,2.48,4.43,5.74,3,2.67-1.15,1.59-2.64.71-5l7.84,3.15C456.4,575.19,465.73,574.81,463.7,577Z" fill="#765d46"/><path d="M411.65,553.54c.44-6.87-6.28-12.06-14-10.4-2.78.6-4.44.81-3.85-2.58.31-1.82-.64-1.91-1.81-1.81-5.28.47-9.58-2.08-13.82-4.57s-6.23,2.78-10,2.48c1.88-6.45,14.37-3.79,11.51-14.65,4.57,9.36,10.81,3.25,16.48,2.78-.6-2.21-3.94-.31-4.22-3,1.88-2.53,4.5,1,6.58-.39,0-3.43-2.58-1.72-3.9-2.37-2.64-1.32-3.22-2.8.38-3.67a1.88,1.88,0,0,1,2.7,0c6.43,3.89,10,9,8.05,17-.58,2.43,2.83,2.42,4.33,3.62q1.38,2.06,2.78,4.09c.57,1.18-3.95,3,.55,3.79.9.16,1.49,1.59,2.19,2.46,4.43,5.48,4.17,6.16-2.8,7.24A11.89,11.89,0,0,1,411.65,553.54Z" fill="#786753"/><path d="M412.84,553.57l4.78-2c-2-2.56-3.42-5.58-5.81-7.34-4-2.94.81-2.77,1.09-4.11q9.14,9.15,18.28,18.31a1.83,1.83,0,0,1,0,2.92c-2.81,2.67-13.54,4-16.71,2.12-1-.57-2.25-1.06-1.92-2.37a3.06,3.06,0,0,1,1.91-1.63c1.84-.57,4.94-.11,4.54-2.83C418.54,553.66,415.23,554,412.84,553.57Z" fill="#635240"/><path d="M754,917.54c3.25-4.77,7.1-7.94,13.59-7,4.07.59,7.28-1.07,8.83-5.7,2.09-6.24,7.26-10.31,12.32-14.15,3.25-2.47,6-.32,8.31,2,3.52,3.58,4.65,2.34,5.2-2,.36-2.88,1.62-5.64,2.42-8.47.65-2.33.9-4.79,4.19-1.89,2.14,1.89,3.63.72,4.34-1.89.63-2.27,1.74-4.19,4.73-3.92,1.15.1,2.66-.18,2.61,1.28-.08,2.31-1.44,4.23-3,5.93-4.87,5.31-9.37,11-15.25,15.71,7.15,2.3,7.36,2.43,10.85-3.28,2.68-4.37,9.49-3,10.42-9.08,2.8,2-.53,3.82,1.54,5.57,4.16-3.29,3.82-9.72,8.41-12.74,4.13-2.73,7.72-6.36,13-7.6-3.78,3.11-6.93,6.27-5.91,11.69.43,2.24,1.42,1.82,2.79,1.32,3,4.57,3,9.15,0,13.73-1.6-.59-.87-3.11-3.83-3.59.17,11.11-8,17.16-15.23,24.15,3.61-1.09,6.54-3.33,10.33-2.93,1.72.17,3,0,1.87-2.71a4.26,4.26,0,0,1,4.65-6c6.93,1.55,12.87-1.74,19.17-2.51,1.88,2.13-4.27,2.81-.59,5.85,1.6,1.33-1.9,1.2-3,1.66-3.09,1.27-7.77,1.07-5.18,6.69a2.94,2.94,0,0,1-.09,1.94c-7.81,1.34-4.57,10.26-9.88,14.23-1.85-5.22-.33-10.25-1.49-16.22-4,7.91-10.09,12.7-15.93,17.7-3.15-.69-1.07-4-2.81-5.46-1.56,2.74-2.27,7.8-6.78,2.38-.38-.46-1.5-1-1.77-.79-4.87,3.49-10.45-.93-15.37,1.44-5.12,2.47-11.93,2-15.11,8.23,1.51-5,4-8.58,9.55-10.07,10.59-2.85,15.88-10.08,15.32-22.33-2.4,11.53-8.07,17.48-18.09,18.79-1.9-1.93,1.79-4.15-.13-6.24-2.26.82-2.75,3-3.22,4.82-.74,2.92-3.49,6.35-4.82,6.07-5-1.06-11.32,1.19-14.36-1.06-6.16-4.55-11.63-4.33-18-2.37-.31.1-.75-.21-1.44-.42,1.31-4.2,4-5.4,8.23-4.62,9.56,1.79,13.23-.67,16.36-11.61-4.65,4.15-6.65,10.84-13.56,9.33C756.2,921,754.16,920.15,754,917.54Z" fill="#423c34"/><path d="M821.36,929.83c2.67.95,1.15,4,2.81,5.47l0,6.85c-5.47.42-9.32,6.23-16,4.31C816.89,944,822.51,939.43,821.36,929.83Z" fill="#161c1c"/><path d="M406.06,505.84c1.74.19,3.93-.22,4.54,2,.21.75-.74,2.22-1.56,2.78-2.58,1.77-3.67-2.1-6.05-1.17-.24-2.86,2.7-1.85,3-3.49Z" fill="#444237"/><path d="M397.74,515.4H395c-.59-1.58-2.31-3.23-.28-4.76a3.34,3.34,0,0,1,3.1-.11C399.89,512,397.37,513.73,397.74,515.4Z" fill="#444237"/><path d="M692.08,674.13c6.08,2.92,13.77-.36,19.26,5,.24.23,1.44-.11,1.86-.52,4.71-4.6,8.73-2.47,12.78,1.06,6.27,5.46,16.23,2.58,21.89,9.5,10.51-3.45,15.92,8.3,25.25,8.38,1,2.51,6.11,4.14,3.19,6.94-1.6,1.53-6.09-1.28-7.81-3.56-2.1-2.77-4.28-3.76-7.49-3.55-1.31.08-2.78.29-3.7-1.11-.46-.69.69-2.82-1.34-2a2.18,2.18,0,0,0-.7,3.49c6.06,6-.79,5-4.24,6.73,6.9,2.78,13.68,4.42,20.39,10.11-1.2-6.12-4.16-7.34-7.82-7.93a2.21,2.21,0,0,1-2.08-2.3c.16-1.66,1.65-1.6,2.58-1.14,6.6,3.19,14.34,4.66,18.71,11.92-2.41,1-2.93-2.19-5-1.66,0,2.81,3.18,6-1.32,8.53-1.57.9,5.55,12.89,8.34,13.09,2.43.17,3.34.61,3.09,3.06-.35,3.5,2.32,7.78-.69,10.37-3.4,2.91-4.51-2.46-7.05-3.34-4.09-2.14-4.7-6.6-6.37-10.15-4.63-9.83-14.31-11.37-22.74-11.74-5.5-.24-12.21-.8-17.86,2.16a11.16,11.16,0,0,1-10.51-1c-11.13-7.1-23.15-4.74-35.08-3.74-6.74.3-13.5,1.77-20.24-.05-4.09,2.42-7.91,4.1-11.27-1.34-.81-1.32-3.1-1.89-4,1.08-1.37,4.83-5.19,3.65-7.23,1.46-3.21-3.44-7-7.53-2.44-12.81,1.24-1.42,2.41-3.29,0-4.48a3.42,3.42,0,0,0-5,2c-2.12,5.26-2.1,5.27-7.06,1.48.27-7-5.53-7.63-10.36-9.58,4.11-1,8.06-.25,12.1-2,7.23-3.21,12.31-7.67,15.31-15,1.24-3,4.57-4.58,8-4.44a129.8,129.8,0,0,0,19.72-.62c1.18-.13,2.45-.55,2.82.87,1.19,4.43-.07,9.08-1.4,12.91-.69,2-5.19,5.78-9.89,3.65-6-2.73-8.72,4-13.46,5a2.1,2.1,0,0,0-.18,1.74,2,2,0,0,0,1.74.64c10-3.48,20,1.12,30-.31,1.32-.19,2.78,0,4-.46,1.92-.79,5.39,1,5.63-2.34.21-2.89-3.17-1.75-4.8-2.72C683,691.41,684.29,680.28,692.08,674.13Z" fill="#131919"/><path d="M597.19,630.36c8.23-.44-1.76-4,2.09-5.78,11.46-1.31,21.08,7.39,32.39,10.23,1.6-2.61-2.46-3.08-1.75-5.22.2-.09.43-.29.6-.25,4.59,1,8,7.88,13.83,2.72.16-.14.84.24,1.24.45,5.95,3,13.78,1.93,18.15,8.44,1.26,1.88,3.6,1.56,5.66,1.74,3.7.31,6.07,1.89,8.62,5.2,3.23,4.2,7.43,9.89,14.63,6.67,3-1.35,4.29-.23,6.05,2.16s2.48,6.68,7.17,5.06a13.54,13.54,0,0,0,4.12,4.4,18.53,18.53,0,0,1-4.14-4.38c.4-2.92,3.08-3.7,4.34-2.12,4.53,5.68,10.53,2.83,15.9,3.43,2.71.29,5.53-.19,7.46,2.39.73,1,1.18,2,.26,3-.74.87-1.73.9-2.27,0-1.66-2.73-4.16-3.53-6.09-1.2-2.31,2.8,3,3.32,2.47,6.81-12.47.19-24.55-5.1-37.19-4.17h0c-2.34-3.74-5.32-5.59-9.61-3-2.76,1.67-4.93.93-7.45-.83a59.21,59.21,0,0,0-13.47-6.45c-5.41-2-11.82,2.07-12.17,7.52l-4,1.36c-2.7-2.22-3.89-4.22-.22-6.92,2.66-2,4.09-5.45,9-6.11-5-3.26-8.72-1.56-12.46-.57-4.58,1.21-5.29.69-5.89-4.29-.45-3.66-3.64-3.68-5.3-2.53-4.68,3.23-8.79-.53-13.17-.38-3.08.1-1-2.68-1.05-4.22s.83-3.43-1-4.24c-1.62-.71-2.15,1.15-3.13,2-1.82,1.55-4.14,2.36-4.31,5.5-.1,2-2,3-4.08,1.49-.73-.54-1.54-1.76-2.09-1.64-6.25,1.39-12.11,5.43-18.95,2.52-.88,5.25-3.6,1.51-4.74.57-1.64-1.36-2.84-3.29-5.87-3.9,4.52-3.71,7.24-8.4,13.42-4,2.48,1.77,5.84-.36,9.21-3.07-3.47-.76-7.13-.06-7.28-4.13.27-3.54,2.47-4.28,5.55-3.88C593.49,631.05,595.48,632.27,597.19,630.36Z" fill="#504a41"/><path d="M648,667.24c.21-1.42-3.06-1.84-.6-4.25,4.38-4.28,8-8.3,14.89-4.13,4.4,2.67,10,3.13,13.73,7.28,1.4,1.57,2.69.8,4.13-.2,5.56-3.86,9-2.49,10.55,4.06-4-.41-8.07,2-12.15-.39-1.73-1-3,.84-3.74,2.15-3.5,6.17-4.62,1.34-5.68-1.33-.83-2.08-.77-4.47-3.49-5.3-2.12-.65-3.69-.59-3.54,2.21.09,1.61,2.3,4-.21,4.61s-7-.65-7.21-2.55C654,662.48,650.7,666.4,648,667.24Z" fill="#37352d"/><path d="M598.48,671.28c-1.14,1.39-2.19,2.86-3.43,4.16s-3.95,1.19-3.78-.25c.42-3.63-2.52-7.64,1-10.92.33-.31,1-.59,1-.86-.54-11,6.17-5,10.47-4.38,2.56.35,5.37-.85,8,1.22-2.36,3.15-8.05.83-9,5.65C598.43,665.47,598.57,668.46,598.48,671.28Z" fill="#5c4b39"/><path d="M550.38,612.62c2.39,2.28,5.66,3.93,6.26-.61.78-5.86,4.79-3.09,6.32-2.45,5.68,2.35,10.87,5,17.54,5,3.2,0,8.69,3,8.47,8.89-3,2.5-5.4.17-7.92-1-5.56-2.61-7-2.14-8.23,3.54-.61,2.74-2.31,4.18-4.4,5.51-2-1.27-2.86-4.15-6-4-1.64.06-3.32-.76-3.15-2.8s1.87-2.36,3.53-2.51c1.14-.11,2.29-.08,3.42-.23,1.38-.18,2.11-1.2,1.67-2.39-.54-1.48-1.65-.87-2.76-.34-4.73,2.24-9.56,3.95-15,2.95-2-.37-3.47.45-4,2.69-.68,2.65-2.23,4.47-5.35,4.17l0-.06c-2.62-.66-4.93-.9-4.07-5.07s-3.29-6.53-7.68-5c-9.17,3.18-22.78-2.87-26.91-12,2.24-1.73,4.35-.72,6.32.46,5.72,3.41,11.58,3.69,18.27,3.06,6.45-.62,13.62-2.12,19.83,2.11A3.18,3.18,0,0,0,550.38,612.62Z" fill="#554b3d"/><path d="M568.42,631.51c1.16-3.78,4-7,3.51-11.5-.08-.76,5.58-1.9,8.43,0,2.65,1.81,5.18,3.67,8.61,3.44,1,4.33,4.66,5.56,8.22,6.88,1.65,3.85-.38,3.83-3.06,2.75-3.1-1.25-5.94-1.81-8.07,1.58C579.35,638.21,573.41,637.43,568.42,631.51Z" fill="#685847"/><path d="M646.68,830l4.17-2.76c5-3.58,5.53-3.32,8.19,4.28,1,4.4.33,8.87.63,13.29,2.06,4.26,1.18,8.32-.84,12.31a10.48,10.48,0,0,1-2,3.37c-3.85,2.17-8,3.88-7.92,9.55,0,2.45-2.76,3.9-4.39,5.73-8.08,4.8-17.24,5.89-26.22,7.6a7.75,7.75,0,0,1-2.54,1c-11.74.49-22.12,6.22-33.39,8.49-1.87-.68-3.45-1.58-3.1-4-.42-2.64,3.08-2.31,3.56-4.81-2.67-1-5.05-1.29-7.55.54s-5,3.58-8,1.44.61-4.57-.26-6.83c10.85-6.09,21.56-12.46,32.6-18.21,14.43-7.51,27.95-16.2,40-27.13C641.54,832.15,644.3,831.29,646.68,830Z" fill="#b67559"/><path d="M485.85,955.92c-4.69.69-9.38,1.37-14.07,2.09-1.29.19-3,1-3.14-1.08-.13-1.57,1.43-2.37,2.82-2.3,4.26.23,7.33-3.35,11.64-3.32,1.64,0,3.29-2,5.06-3.26-3-4-7.26-1.94-10.61-3.17,2.89-8.48,2.39-9.23-6.33-9.61A20.26,20.26,0,0,1,461,932.58l1.41-1.41a5.71,5.71,0,0,1,4.34-1.59c4.58.07,7-2.34,8-6.55,7.15-9.79,18-9.72,28.47-10.33,1.24-.07,2.57.94,3.93.24s3.58-2.93,4.08.1c.26,1.62,2.81,4.15-.87,6.23-2.62,1.47-8.93,2.94-5.74,7.16,2.68,3.55,4.82-2.74,7.68-3.91,2.51-1,4.38-3.83,6.26-6.07,1.3-1.55,2.1-4,4.38-3.79,2.61.27,1.32,3.47,2.69,4.88,5.46,3.32,6.11,7.8,2.28,15.8-5.66,2.31-6.07,2.08-7-4.37-1.29,2.4-.63,7.32-5.89,4.19a18,18,0,0,1-7.19,19.92c-4.93,3.37-12.73,9.78-20.29,2.19-.4-.39-1.29,0-1.75.63Z" fill="#7d6149"/><path d="M582.09,891.54c4.91-.07,9.42-1,12.75-5.13,1.11-1.35,2.29-2.58,4.61-2,6.45,1.49,12.59.14,18.48-2.65,3.5-.57,9.05-1.08,9.48,1.61.64,3.94-4.94,4.56-8.17,5.45-7,2-14.33,2.52-21.45,4.12A22,22,0,0,0,587.26,898c9-4.94,17.37-1.33,25.81,1.27,2.76,3.6-.05,4.33-2.64,4.38-3,.05-4.62.51-5.75,4-1.5,4.61-6.75,5.45-10.71,5.31a37.77,37.77,0,0,0-9.84,1.36c-2.76-1.54-5.17-.61-7.34,1.19-5.55,4.6-11.79,3.22-18,2.19-.12-6.2-4.68-9.76-8.35-13.85,4.72-2.57,9.41-5.21,15-2.34,1.93,1,2.62-1.41,4.1-1.75C573.88,897.24,578.44,895.08,582.09,891.54Z" fill="#745c46"/><path d="M550.43,903.85c8.05,3.51,10.21,7.08,8.25,13.67-.25.18-.5.36-.74.55-3.63,1.92-6.4.93-8.48-2.45-4-4.18-2.88,1-3.94,2.18-1,1.61-2.71,2.5-4.1,3.7-2.84,2.7-6.6,4.3-7.82,8.8-.51,1.87-2.84,5.81-6.54,2.35,1.89-5.25,2.53-10.39-1.4-15.11,1.56-1.19,5.48-1.59,3-4.52-3.51-4.11-.58-6.24,2.07-7.76,5.41-3.11,9.32-8.84,16.08-9.5,1.84-.18,4.63-1.18,5.5,1.09s-1.77,3.2-3.36,4.36c-.86.63-1.62,1.4-2.44,2.13C547.92,905.1,549.24,903.45,550.43,903.85Z" fill="#916348"/><path d="M582.09,891.54c-2,6-6.54,8.22-12.54,8.22.32-11,.32-11,9.71-10.86Z" fill="#4f4031"/><path d="M452.8,938.07c3.42,1.49,7.12,1,10.66,1.59,1.4.23,3.53.56,3.75,2.29.31,2.31-1.59,2.9-3.57,3-2.37-2-4.54-3-7.89-1.35-3,1.44-6.6-.83-7.51-3.09S450.89,938.39,452.8,938.07Z" fill="#8a6d55"/><path d="M474.78,923c2.46,5.74-.85,7.57-5.72,8.11a61.43,61.43,0,0,1-6.65,0c.21-3.69,3.16-4.74,5.9-5.15C470.9,925.63,472.69,924.16,474.78,923Z" fill="#8a6d55"/><path d="M754,646.71c-1.88-.53-2.89-3.07-5.4-2.19-1.58.55-3.92-1.21-4.83,1.17-1.29,3.33,3.12,1.78,3.54,3.9-1.8,3.34-3.83,4.43-6.85.89-2.35-2.75-5.83-3.39-9.24-3.65-2.16-.16-3-.73-2-2.83-1.16-2.13-3.89-1.91-6.1-4.11h11.65c-.17-.77-.15-1.12-.28-1.18C726.1,634.63,726,634.5,733,627c2.94-3.1-1.58-4.14-1.13-6.37a2.92,2.92,0,0,1-1.31-2.61c-7.07-3.31-13.29-.95-18.92,3.26-3.5,2.62-7.18,3.5-12.33,3.55a48.92,48.92,0,0,1,21.48-11.6c7.08-1.9,13.82,2,18.59,7.72,1.9,2.28,3.54,4,6.52,5.21s7.87,1.87,6.36,7.48c-.24.88.17,3.14,2.05,2.89a4,4,0,0,0,3.48-3.69c.1-2.49-.55-5.23-2.41-6.84-2.35-2-4.21-4.48-2.09-6.83s3.52,2,5.75,2c1.53,2.89,3,5.32,7.24,4.69,3.5-.52,4.37,1.11,3.15,5-1.36,4.4-6.85,7.9-3.25,13.76,1.46,2.38,2.37,3,5.2,2.57,12.66-2,25.21-2,37,4.06a34.78,34.78,0,0,1,3.35,2.23c.58,2,3.88,3.46,2,5.92-1.38,1.79-3.74.65-5.76.49-6.13-.49-12.18-.31-16.87,4.59h0c-5.58.41-3.14,4-2.76,6.83-2.92.82-4.12-1.41-5.28-3.23-5.44-8.56-13.6-14.42-20.88-21.17C759.34,644.29,756.78,646,754,646.71Z" fill="#222925"/><path d="M727.66,624.74c-.28,5.29-6.57,6.21-8.07,10.86-.35,1.08-2.55-.86-3.49-2.12-1.68-2.26-4.51-4-2.47-7.6,1.09-1.91,2.81-2.84,4.56-3.85C720.45,626,724.63,623.41,727.66,624.74Z" fill="#a27d53"/><path d="M727.66,624.74c-3.57.53-8.57,6-9.47-2.71,3.23-4.11,7.87-3.88,12.41-4l1.31,2.61Z" fill="#b69a84"/><path d="M527.06,932.65c3.45,1.83,3.46-2.62,5.67-3.06-1.8-7,6.07-5.63,8.08-9.32.19-.13.41-.4.54-.36,7.76,2,9.23,1.82,17.32-2.38h0c7-1.33,14.8.16,20.62-5.83,1.76-1.81,3.21.06,4.15,1.74-2.06,4-7.53,2.75-9.4,6.18,1.11-.19,2.84-.72,2.5,2-1.91,2.24-2.24,5.72-5.48,6.91-1.46-2.9-2.93-2.54-4.18.09-4.11,8.65-10.77,11.4-20.4,11.92-3.63.2-11.89,1.93-13,9.39-.06.42-.36,1.17-.47,1.16-8.33-1.11-12.71,8.57-21.1,7.62a11.14,11.14,0,0,0-6,1.39c-4.7,2.28-11.06,1.63-16.68,1.32-1.65-.09.58-5.25-3.39-5.53,1.14-1.79,2.65-1.39,4.16-.65,4.31,2.12,8.48,4,10.79-2.56.41-1.15,2.06-2.45,3.24-.9,3,4,5.33-.37,5.21-1.24-.58-4.24,2.64-6.7,4.39-9.42,2.61-4-3.8-8.13,1.31-11.63,2.55-.3.81,3.47,2.86,3.9,2.52-2.62,1.09-8.52,7.41-8.37-.77,2.8-5.55,4-2.79,7.45C523.76,934.15,525.46,934.42,527.06,932.65Z" fill="#594a3a"/><path d="M627.3,839.46c-4.3.81-8.67,1.14-12.87,2.68a6.08,6.08,0,0,1-6.76-1.86c-1.31-1.64.57-2.67,1.92-3.48,6.06.77,12.09.26,17.15-3.19s5-.72,4.72,3.11Z" fill="#c79375"/><path d="M363.24,586.54c.22-1.55-.14-3.62.73-4.55,4.45-4.78,2.25-7.93-2.15-10.79l3.24-7.61a7.78,7.78,0,0,1,5.53,11C368.76,578.87,367.07,583.39,363.24,586.54Z" fill="#654d3b"/><path d="M502.31,607.07c4.46,6.39,12.53,7.18,18.29,11.6,1.8,1.39,5,1.61,6.28-.31,4-6.22,7.65-.73,10.86.37s1.74,4.32.37,6.77c-1.68,3,2.65,1.65,2.69,3.47-6.91,1.83-13.62-2.8-20.48-.74-5.05,1.52-10.12-2.3-15.14.39-1.26.68-2.64-.2-3.7-1.18-.67-.61-1.5-1.78-2.07-1.67-9.24,1.7-16.08-5.59-24.62-6.37q-2.06-2.73-4.09-5.48c2.32-2.49,6.95-.3,8.69-4.73-2.4,3.11-6.27,2.45-8.71,4.7-3.38-.33-6.74-.71-9.61-2.78,3.66.44,6.88-1.07,12.36-2.45-7.25-1-2.64-4.86-4.06-7.13,6.83,1.67,13.66,2.17,20.51.11,3.25.67,6.29,1.75,9.89.94S504,604.11,502.31,607.07Z" fill="#4a4032"/><path d="M657.9,846.09l-.23-14.68c-1.86-4.46-.42-7.73,4-9.72-7.47-7.09-7.71-8-3.93-13.52,3.53-5.54,2.16-12.17,4.1-18.08a57.2,57.2,0,0,0,1.48-7.87,3.17,3.17,0,0,1,1.8-1,2.73,2.73,0,0,1,2.64,1.22c1,5.28-1.83,10.25-1.17,15.11.11-3.4-.62-7.94,4.85-8.55,2.84-.32,2.16,2.1,2.1,4,1.8-12.3,4.4-24.13,17.84-29.33,5.67-4.09,11.65-5.9,18.55-3,3.49,1.46,7-.78,10.72-.52a13.09,13.09,0,0,1,10.71,6c1.85,2.56,3.35,6.1,7.66,5.43,1-2.59-1.27-2.75-2.3-3.67-2-1.81-2.32-3.85-.92-6.05,1.09-1.71,4.61-2.55,2.39-5.37s-4.94-5.35-8.8-5.83c-1.55-.19-3.18.23-4.75-.24-3.81-7-11.78-12.67-7.3-22.36,1.07-2.32-.77-2.49-2.23-3.21-5.63-2.76-11.43-4.43-17.8-3.86a26.59,26.59,0,0,1-6.84-.21,4.05,4.05,0,0,1-2.62-1.58c11.83-1.56,23.64-3.91,34.78,3.3,3,1.93,6.88,4.06,10.75.92,1.78-1.42,3.56-.21,5.15.27,1.79.55,4.5-.46,5.21,2.27s-.91,4.3-3.11,5.38c-2.64,1.3-2.69,2.71-.5,4.53,6,5,11,11.79,20.2,10.81,1.63-.17,3,.73,4.14,2,6,6.48,6.89,6.27,10.21-2.38.89-2.31,1.89-4,4.08-1a30.88,30.88,0,0,1,1.91,2.81c4.6,8.6,5.78,8.86,12.1,1.47,2.05-2.4,3.85-3.67,7.43-2.21-3.94,3.69-6,7.83-3.13,12.91,1.49,2.67-1.11,3.38-2.41,3.94-7.33,3.19-12.1,10.38-20.06,12.52a8.55,8.55,0,0,1-3.93-4.29c-4.91,2.29-4.16,8.76-8.94,11.23,1.68-.4,3.1-1.61,4.58-.13a18.29,18.29,0,0,1-6.85,6.87c-2.76-.93-4.54,1.65-7,1.91-1.14.13-2.4.24-2.68-1.26-.23-1.26.58-2.08,1.61-2.72-3.5,2.11-7.5,3.07-11.18,4.77-4.49,2.08-5.61,4.56-1.13,7.87,3.71,3.64,4.77,7.07-.84,9.92-2.84,1.44-3.64,4.33-4.94,6.85-3.26,5.38-6.13,11.21-14.48,11.24,4.85,5.58,3,8.42-3.38,9.3-4.13-.07-4.68-2.82-3-5.39,3.76-5.8,8.07-11.26,12.07-16.77-1.8-.69-1.66-.65-2.11.88-1.84,6.24-5.88,11.38-10.53,15.4-3.41,2.95-4.78,6.21-6.06,10q-2,1.38-4.1,2.74c-5.73,2.92-11.44,5.86-11,13.7-6.91,2.53-8.45,1.45-10.67-7.48-5.37-4.4-.31-7.5,1.39-11,.68-2.38.34-5.27,3.27-6.53,8,1,10.4-6.39,13.6-10.58a165.5,165.5,0,0,0,14-20.86c2.64-4.85,5.15-8.89.37-13.6.1-.89,3.51-1.17.7-2.46s-6.19-1.7-8.95-3.37c-2.47-1.49-4.7-3.63-3.2-6.66s4.31-1.86,6.5-.51c6.94,4.31,14.26-.17,21.41.88-9.4-8-20.8-5.62-31.28-4.78-9.6.76-12.81,10.05-16.79,17.49a53.48,53.48,0,0,1-2.84,7.77c-.35,11.42-3.65,22.46-4.42,33.81.31,2.19-.79,3.8-2,5.49-7.6,10.25-7,15.39,2.48,23.5-.38,4.89-4.95,2.38-7.17,4a17.17,17.17,0,0,1-2,.73c-7,.89-7.34.59-6.89-6.47,2.93-5.16,4.37-10.68,3.34-16.18C660.45,842.8,661.38,846.45,657.9,846.09Z" fill="#514439"/><path d="M664.61,782.15c-.43,0-.86,0-1.28.07-.41-2.45.24-4.84,1.33-8.18-3.71,1.57-3.86,4-4.34,6.2-.56,2.58-1.7,5.1-4.76,4.85-3.83-.32-1.76-3.57-1.79-5.31-.23-12-.06-24-.25-36,0-1.5,2-5.35-2.75-4,1.59-3.43.67-7.62,4.21-12.4V747c4-6.51,9.17-12.12,9.46-19.69.11-2.77,1.63-4.61,2.94-6.69,6.69-2.32,13.67-.83,20.48-1.49l2.89.2c.33,1.71-3.68,3.58.91,5.37,4.08,1.59,2.84,6.14,2.45,9.73a5.87,5.87,0,0,0,.37,1.32c1.21,2.64,5.95,4.11,3.36,8-2.24,3.33-5.62,5.31-10,4.46-5.17-5.76-5.42-11.5.61-17-6.45-2.51-15.16,1.86-18.63,9-1.49,3.05-2.47,6.45-6.51,7.17-4.36.44-3.86,4.08-4.06,6.75-.25,3.36.79,6.83-.31,10.14s-1.11,6.71-1.79,9.09c.36-5.76,3.78-12,2.21-19.06-.36-1.63-.39-4.17,2-5.27,3.15,2.3,6,2.73,8.61-.91,1.23-1.68,2.69-4.24,5.45-2.12,2.35,1.81,3.66,4.7,2.15,7.22C672.07,762.33,670.21,773.06,664.61,782.15Z" fill="#73513c"/><path d="M657.75,808.17c-2.72,5.22-.18,9.05,4.15,11.13,4.15,2,2.91,4.15.26,4.63-5.08.91-4.44,4.16-4.49,7.48-1.78-2.19-1.31-8-6.82-4.15,5.34-4.88,1-11.24,2.37-16.88C654.24,806,655.44,807.27,657.75,808.17Z" fill="#895b43"/><path d="M964.43,791.74q.6,5.46,1.22,10.93c-2.21,2.23-4.62.74-7,.4-1.06-2.83-2.61-5.53-2.54-8.69,3,3.33,5.66,5.31,6.39-1.44C962.63,791.91,963.43,791.58,964.43,791.74Z" fill="#625a4a"/><path d="M975.4,783.53l-.64,0-.64,0c-.29-5.66-.23-11.29,2.26-17.78C976,772.43,975.7,778,975.4,783.53Z" fill="#6f6e66"/><path d="M879.16,898.41c-5.47-.2-9.53-5.23-7.45-12.3,1.45-4.92.28-9.28.39-13.82.13-5.24,2.55-8.35,7.17-7.9,11,1.07,21.39-5.41,32.44-1.68,1.93.65,3.26-.55,4.78-2.53,3.15-4.11,8-6.58,13.27-4.3,4.86,2.09,7.12.37,8.55-4a1.29,1.29,0,0,1,1.92.64c-.41,4.63,1.83,9.22.19,13.86a41.38,41.38,0,0,1-13.61,3.5c-4.83.4-6.64,1.84-5.23,6.69,1.46,5-.41,9.28-3.72,13.14C909.51,899.46,889.41,904,879.16,898.41Z" fill="#474239"/><path d="M806.27,798.56a29.66,29.66,0,0,1-.66,8.7c1.45-2.12,6.1-1.6,4.45-6-.48-1.28.87-1.08,1.73-1.16,7.07-.66,7.79-1.82,5-8.55-.62-1.51-3-2.69-.61-4.46a2.89,2.89,0,0,1,2.5-.35c2,1.07,1,2.7.41,4.16a4.43,4.43,0,0,0,1.71,5.44c2,1.29,3.08-1.17,4.41-2.23a6.82,6.82,0,0,0,2.35-2.44c3-8.15,10.52-11.88,16.67-16.95,1.41-1.16,3.25-3.37,3.85-.82.5,2.1,5.79,3,1.88,6.12-4.2,3.33-5.92,9.19-11.64,11-2.6.81-2.58,4-5.41,6.53-.78-5.29,3-6.79,5.12-9.07,1.16-1.24,3.83-2.06,1.84-4.07-1.5-1.51-2.65.83-3.84,1.66-5.89,4.12-4.54,11-6.41,16.63l-1.18.06c-1.68.76.48-3.45-3.08-1.84-6.35,2.87-10.65,6.44-10.88,13.65-.17,5-5.21,7.9-5.41,12.84-3.51-.26-6.05.67-7.3,4.45-.57,1.71-2.08,4-4.64,2.9-2.35-1-1-3-.75-4.72.91-6.72,1.64-13.3,6-19.11,3.3-4.4.59-8.9-5.29-9.57-2.5-.29-4-1.41-3.7-3.82s2-2.48,4.44-2.67C801.71,794.53,802.55,799.59,806.27,798.56Z" fill="#3a3a30"/><path d="M879.16,898.41a50.43,50.43,0,0,0,27.21-2.81c11-4.39,15-10.85,12.5-22.31-.91-4.13,0-5.23,4-5.07,3.29.14,6.61.72,9.65-2,1.91-1.71,4.79-.55,7.07.73a3.76,3.76,0,0,1,1.42,2.48c-3.69,5,2.9,7.54,2.9,11.68a6.07,6.07,0,0,1-1.09,3.83c-2,1.6-4.33,1.57-6.68,1.13-1.14-.48-2.29-1.27-3.44,0-10.72.75-12.78,12.16-20.57,16.52-9,3.46-18.44,5.21-27.94,6.68a4.64,4.64,0,0,1-3.7-1.34l0,0c-.7-3.8,2.54-3.39,4.15-4.29-1.19.08-2.88.34-4.11-1.14C877.07,902.22,878.29,900.25,879.16,898.41Z" fill="#222523"/><path d="M901.19,853.31c-2.67,1.82-7.71,4.05-8,1a41.72,41.72,0,0,0-3.56-13.37c-.59-1.37,2.81-1.63,4.12-.22,1.14,1.21,1.67,4.2,3.69,2,1.52-1.63-1.34-2.79-2.38-4.12-1.87-2.43-6.09-2.53-6.11-7.05,0-2-2.91-1.68-4.56-.63-2.46,1.56-4.79,3.33-7.21,5.05.9-7.16,9.24-12.28,18.5-11.33,2.7.28,5.35,1,8,1.26a4,4,0,0,1,3.52,2.76c1,2.45-1.17,2.33-2.41,3.1-2.57,1.59-2.26,2.37.43,4.06,4.15,2.62,9.55,5.19,6.88,12C909.61,851.81,905.7,853.14,901.19,853.31Z" fill="#494439"/><path d="M843.38,897l0-13.73c0-2.64-.14-5.35,2.36-7.55,2.8,1.75,4.45,7.42,9.09,2.91.26-.25,1.29,0,1.75.3,4.45,3,4.44,3,7.49-2.48l0,0c3.52,6.69.55,13.55.2,20.26-.16,2.89-3.77,3.44-6.72,2.41-2.75-1-5.47-2.34-8.12.3C845.44,903.41,844.49,900,843.38,897Z" fill="#52493d"/><path d="M901.19,853.31c3.13-2.87,7.5-3.3,11-5.52,5.4-2.39,3.67-5.94,1.42-9.39-1.57-2.4-3.32-5-.26-7,2.71-1.78,3.62,1.79,5.23,3,2.4,1.84,4.6,4.38,4.42,7.39-.34,5.6,2.51,6.6,7.09,6,5.7-3.81,11.7-4.48,18-1.75,1.4,2,1.51,4-.2,5.86l-7.11.12-.83,0-1.65-.16c-9.7,1.49-19.71,1-29.06,4.77C905.78,858.08,902.57,857.51,901.19,853.31Z" fill="#1d2321"/><path d="M948.12,846.45c-6.11-.72-12,.83-18.06,1.33-.58-6.55-5.8-12-4.32-19.14.69-3.35.89-4.31,4.45-2.24,6.74,3.92,13.88,7.16,20.86,10.68C952,840.8,952.52,844.39,948.12,846.45Z" fill="#404037"/><path d="M841.8,819.51c-.7,8.15-3.24,14.69-5.84,21.19-1.85,4.59-2.45,4.67-6.64,1.81-1.52-1-3.78.72-3.68,4,.13,4.55-2.31,7.19-5.36,9.69-1.43,1.16-3.41.23-2.62-1,3.49-5.56-1.68-14.17,5.5-17.77,7.34-3.68,9.66-11.22,15-16.27C839,820.43,840.18,820.21,841.8,819.51Z" fill="#5c5545"/><path d="M880.52,907.94c8.07-.55,15.83-2.78,23.67-4.49a32.12,32.12,0,0,1,8-.85c2.62,2.35,7.39.86,9.34,5.61-4.65-.55-8.94-1-13.21-1.58s-8.12.88-11.75,2.75c-2.54,1.31-4.28,4.3-8,1.9-1.1-.71-3.07,1-4,2.94-1.64,3.48-3.74,6.79-8.17,7.14a2.19,2.19,0,0,1-2.27-2.14,10.54,10.54,0,0,1,5.3-8.93C880.05,909.93,880.17,908.74,880.52,907.94Z" fill="#50473b"/><path d="M839.31,862.45c-.45-2.61.73-4.91,1.34-7.32.37-1.45,1.94-3.18.41-4.43-6.25-5.13.52-6.69,2.69-9,1.64-1.72,4.35-1.22,5.88,1.1a3.08,3.08,0,0,1,.47,2.56c-3.74,6.12,2.42,14.29-4.18,19.75-1.52,1.25-2.7,3.64-5.07,2.75C838.32,866.92,839.67,864.31,839.31,862.45Z" fill="#534b3f"/><path d="M820.49,859.3c5.17-.75,5.73-5.65,8.79-7.76,1.46-1,2.62-2.93,4.71-1.74,1.69,1,1.29,2.91,1.07,4.36-1.15,7.37-2,14.86-4.76,21.84-.75,1.86-2.54,4.64-5,3.69-2.17-.83-1-3.54-.63-5.5.3-1.55.24-3.29,1-4.62C828.61,864,828.1,860.33,820.49,859.3Z" fill="#514a3e"/><path d="M809.07,827.38c-2.7-2.27-.87-4.07.77-5.64a12.85,12.85,0,0,0,3.89-9.89c-.4-6.69,3.08-9.17,8.6-10.78,1.86-.55,3.46-2,5.6-3.24.19,1.85.35,3.38.51,4.9-1.25,5.74-3.35,11-8.5,14.89-2.34-5.63,4.25-7.92,3.85-13.28-3.71,2.19-6.31,4.43-7.35,8.21a49.23,49.23,0,0,1-4.69,12Z" fill="#5a5142"/><path d="M859.88,834.08c2.46-1.69,7.4-3.56,7.74-2.22,1.06,4.22,6.22,7.54,3.13,12.9-1.87,3.24-1.71,7.39-4,10.61-.7,1-1.18,2-2.56,1.59a1.93,1.93,0,0,1-1.35-2.68c2.69-3.68-.56-7.65,1.09-11.77s-3.43-2.27-5.53-3.09C858,837.39,861.55,836.46,859.88,834.08Z" fill="#4d4739"/><path d="M939,905.4c.4,1.87.81,3.74,1.21,5.61l-.57,3.59-3.6-2.51a7.76,7.76,0,0,1-4-3.72c-.13-1.11-.26-2.22-.38-3.33-1.5-5.31-2.45-10.66-.88-16.14,2.48-8.51,11.46-4.22,11.38,1.11A58.51,58.51,0,0,0,939,905.4Z" fill="#222523"/><path d="M802.36,863.89c3.11-4.69,5.73-8.53,8.22-12.45.77-1.21,2.06-2.36-1.14-3-2.17-.41.4-1.91,1.07-2.49,1.36-1.17,3.79-1.24,4,.4.79,5-.4,9.8-2.49,14.42C810.15,865,806.67,864.06,802.36,863.89Z" fill="#534d43"/><path d="M799.45,861.51c-.18,6.35-4.7,9.67-9,13.06a2.73,2.73,0,0,1-2.5-.05c-1.15-.72-.93-2-.28-3,2.6-4,5.51-7.8,7-12.42a2.41,2.41,0,0,1,2.87-1.37C799.75,858.21,799.21,860.11,799.45,861.51Z" fill="#5c4d3b"/><path d="M764.52,907.31c1.06-5.46,4.74-8.58,8.25-11.79,1.54-1.4,3.28-1.62,4.84,0s.36,2.89-.76,4.07C773.46,903.14,772.67,910.62,764.52,907.31Z" fill="#554a3b"/><path d="M953.18,862.22c2-4.85.51-16.14-.18-23.85l5.93,2.58c-.95,6.84-3.48,15-1.31,21.87C956.42,862.82,954.38,862.22,953.18,862.22Z" fill="#343734"/><path d="M864,876.49c-4.3-3.08-9.54-2.53-15.31-3.38,3.86-4.05,8.42-6.1,12.43-5.45,3.82.62,2.76,5.54,2.84,8.87Z" fill="#564d3d"/><path d="M935.7,910.84c1.68.85,3.8,1.26,4,3.72-1.6,4.68,3.26,7.74,3.05,12.06-4.13,1.12-7.41-2-6.77-7.45a24.2,24.2,0,0,0-.38-7.09A8.56,8.56,0,0,1,935.7,910.84Z" fill="#161c1c"/><path d="M859.88,834.08c1.24.16,3.19-.31,3.4,1.15.5,3.52-3.75,2.17-4.9,4.19-1.35.67-1.78,3.85-4.08,1.84-2-1.78-.38-3.13,1.14-4.21S858.4,835.07,859.88,834.08Z" fill="#86725a"/><path d="M796.79,872.46c1.73-3.36,4.47-6,7.93-4.88,3.27,1.08,1.1,4.06-.33,7.19C803.12,865.71,799.76,874.78,796.79,872.46Z" fill="#54554a"/><path d="M931.55,899.54l-.4,7.42c-2.47-.27-5.49-.64-5.33-3,.18-2.53,2.45-4.7,5.75-4.36Z" fill="#222523"/><path d="M880.6,902.55c2.33.25,4.77-.63,7.18.67-1.38,3.28-6.4.95-7.22,4.76C874.69,906.12,879.4,904.35,880.6,902.55Z" fill="#50473b"/><path d="M831,757.48c-6,4.94-11.22,10.5-14,18-.88,2.37-3,3.95-5.11,5.36-2.69.36-3.93-1.47-5.53-3.19-4.19-4.48-9.34-5.34-14-1.2-3.81,3.4-9.8,4.22-12.07,10.32,4-1.06,6.73-5.34,11.26-2.82,1.43.79,2.71-1.38,3.44-2.73,1.23-2.27,2.84-3.55,5.51-3,2.14.48,2.89,2.05,3,4,.1,2.52.37,6.16-2.51,6.32-7.32.41-12.52,5.47-19.11,7.51-8,2.48-15.38,7.08-22.34,12-1.28,2.39-2.5,4.83-5.53,5.47-2.2-.13-3.42,1.69-5.13,2.55-1.45.73-2.92,1.46-3.1-1.17-1.19-3.63,2-5.72,3-8.55a2.14,2.14,0,0,1,2.4-1.11c6.4.68,8.05-5,10.24-8.67,4.94-8.15,12.69-12.87,20.47-16.76,6.36-3.19,11.16-9.49,19-9.93.46,0,1.46-2.28,1.12-2.86-2.42-4.06,1.15-7.83.66-11.2-1.72-11.76,8.14-18.74,10.93-28.59,1-3.47,6.63-5.36,4.15-10.73-.41-.88,1.62-1.1,2.69-.49a24.12,24.12,0,0,1,3.42,2.22c8.2,6.88,8.19,6.9,16.39-.06-1.37,7.25-11.4,10.8-7,19.19.42,0,.95.16,1.25,0,2.19-1.42,3.55-6.45,6.7-3.34,2.28,2.25-.91,5.45-3,7.38C833.33,745.8,828.72,750.08,831,757.48Z" fill="#121b1a"/><path d="M721,864.2c-6.59-1.31-12.47.38-17.89,4.11-.31,3.68-3,2.76-4.92,2.14a7.24,7.24,0,0,1-5.23-5.63c-.41-2.14,1.33-3.08,2.79-4.16,2.29-1.71,6.62-1.46,6-6,8.43-4.73,15.56-11.33,24.15-16,4.53-2.47,9.93-7,9.1-14.1-.29-2.44,1.22-4,3.11-4.81,2.61-1.17,5,.53,7.53,1.16.12,0,.19.41.2.63.28,4,8,4.18,5.81,8-3,5.31-7.1,10.92-14.08,12a12.29,12.29,0,0,0-8.3,5c-4.66,4-3.68,10-5.49,15.06Z" fill="#2e332c"/><path d="M701.72,854.61c3.61,1.38,4.46,3,.49,5.11-1,.51-2.33.48-3.18,1.13-1.74,1.32-6.07,1.16-4.53,4.45,1.41,3,4.2,6.42,8.6,3h2.75a2.91,2.91,0,0,1,0,4.11,4.16,4.16,0,0,1-2.76,4.09c-1.77-1.43-3.62-3.7-4.7.58-.46,1.81-.92,3.8-3.57,2.18-.77-.77-2-1.41-2.25-2.32-1-3.7-5-5.52-8.05-3-2.5,2.12-5.18,4.18-6.35,7.65-1.65,4.91-4.87,6.41-9.46,3.12.64-4.15,1.45-8.3.25-12.5.93-4.48,5.58-5.48,8.11-8.47a1.73,1.73,0,0,1,1.91-.39c8.17,5.86,9.72-4.43,14.81-6a4.21,4.21,0,0,1,1.05-1.42Z" fill="#3e3d33"/><path d="M705.83,842.31c-.3-4.49-1.49-8.58,5.2-10.7,3.55-1.13,5.68-6.59,8.51-10.05,3.07-3.74.61-6-3.72-7.75,5.94-2.88,8.7,1.56,14.51,1.73-10.18,3.52-11.55,12.37-17,17.86-1.74,1.77.09,3.75,2.1,4.82-.45,4-1.05,8-6,3.11C707.33,839.19,707.1,842.21,705.83,842.31Z" fill="#2e332c"/><path d="M749.86,806.75c-.24,3.3-3.27,5.22-4.12,8.22l-12.4,2.71a5.41,5.41,0,0,1,3.13-7.59c5.33-2.09,4.41-5.1,2.42-8.78l.74-.57C744.12,800.92,746.75,804.25,749.86,806.75Z" fill="#2e332c"/><path d="M754,813.59a15,15,0,0,1,5.53-5.47c1.61,1.3-.74,3,.91,4.81,2.66.07,4.31-4.58,8.23-2.55-3.67,5.06-8.69,9-10.72,15-1,3-3,.8-4.39.14-1.95-.92-2.72-2.61-.91-4.31C755.08,819,756.1,816.6,754,813.59Z" fill="#2e332c"/><path d="M694.86,856c0,.46,0,.91,0,1.36a2.84,2.84,0,0,1-4.09.08c-.79-.2-2.38-.59-1.7-1.25,3.34-3.23,1-4.37-2.29-6.07,6.62,1.86,8.77-6.79,15-5,3.08,3.17,1.47,5.47-1.47,7.41C698.47,853.64,695.73,853.38,694.86,856Z" fill="#2e332c"/><path d="M723.75,861.48c-1.23-6.12-2.24-12.16,5.49-15.06,1.63.35,4-.93,4.73,1.34.6,2-1.57,2.23-3,2.89-6,2.81-2,7-1.24,10.75C727.63,862.86,725.68,860.87,723.75,861.48Z" fill="#252b25"/><path d="M808.88,787.57c1.42,4.21-1.12,7.48-2.61,11,0-.22.07-.51,0-.65C802.62,793.31,803.38,789.85,808.88,787.57Z" fill="#3a3a30"/><path d="M731.91,870.52c2-3.66.46-6.59,3.37-8.37C736.51,866.12,736.51,866.12,731.91,870.52Z" fill="#0f1818"/><path d="M670.06,872.34c2.21,4.41,2,8.57-1.33,12.39h0c-6.17,1.48-10.48,4.68-14,10.43-4.65,7.68-12.26,11.93-21.81,11.47-1.8,1.69-3.57,3.42-5.4,5.07-2.31,2.09-4.55,4-7.24.27-1.4-2-3.44-3-6-1.58-6,3.34-14,2.35-18.73,8.64-1.22,1.63-2.51,1-4-.15-6.54-4.75-10.68-3.92-15.05,2.75-2.91-1.47-4.34-2.84-.55-5.25,2.36-1.5,5.48-.74,7.45-3,5.15-4.32,12.22-.42,17.6-4.06,1-.7,2.86-.4,2.38-2.39-1.4-5.88,1.35-6.24,6-4.81,1.34.42,4.61,1.52,2.89-2.41-.27-2,1.14-2.14,2.53-2.31,4.48.8,7.17,5,11,6.25s5.44-5.43,10.13-5.19c2.19.11,4.4-1,6.65-1.4,1-.17,2.55.21,2-1.68-1.14-3.92,2.4-4.67,4.25-6.77,4.73-5.33,10-9.73,16.9-11.79C668.24,876.14,666.89,872.19,670.06,872.34Z" fill="#463f35"/><path d="M633,906.63c.82-1.4,2.29-1.22,3.61-1.51,8.68-1.92,14.82-6.41,19-14.77,2-4,6.8-8.4,13.18-5.62,1.44,2.46,1.64,5.1,1,8.62-4.28-3-7.87-.73-11.4,1.42a4.77,4.77,0,0,0-2.08,5.82c1.71,4.79,1.42,5.88-3.32,5.6C646.27,905.79,639.67,908.78,633,906.63Z" fill="#3e3d33"/><path d="M573.8,931.23l19.58-6c-4.24,8.72-11.83,10.76-19.57,6Z" fill="#0f1818"/><path d="M694.84,879.27c2.69,0,1.39-2,1.83-3.26.66-1.82,1.16-4.36,3.46-4.4,3.13-.06,2.87,2.7,3,4.9C700.12,876.73,699.54,884.08,694.84,879.27Z" fill="#2e332c"/><path d="M705.87,872.42c0-1.37,0-2.74,0-4.11l6.74-.88C710.83,870.51,711,874.69,705.87,872.42Z" fill="#2e332c"/><path d="M818.62,828.62c-.46,3.17-1.77,5.77-5.57,8,.79-4.22,1.39-7.3,5.61-7.9Z" fill="#2a2f29"/><path d="M754,646.71c2.76-5,5.4-4.4,9.56-.91,9.2,7.69,17.17,16.44,24.79,25.57,3.94,5.58,7.83,11.14,14.59,13.84,3.06,1.23,1.41,6.38,5.48,7,6.66,1.11,12.23,5.13,18.59,7.24,6,2,8.53-3.91,14-2.81,3.29.68,7,1.38,10.56,1.8a2.94,2.94,0,0,1-2.78,2.91,7.55,7.55,0,0,0-2.54.88c-4.47,3.86-8.51,8.27-15.41,7.41-8.72-1.09-17.1-3.48-24-8.74-3.76-2.86-9.28-4.62-10.19-10.44a4.24,4.24,0,0,0-2.12-4.06c-12.84-6.68-20-18.71-28.69-29.4-2.06-2.55-5.18-4.45-8.15-6C755.64,650,754.11,649.11,754,646.71Z" fill="#141d1c"/><path d="M778.77,745.22c-4.06-1.43-2.4,1.84-2.81,3.39-.63,2.38,0,6.53-3.17,6.15-2.88-.35-8.4,3.23-8.91-3.65-.16-2-1.48-3.55-3.7-3.08-11.82,2.52-16.16-8.44-23.9-13.18-2.4-1.47-1.1-3.73,1.39-4.43,2.18-.6,5.14-.44,5-3.48-.15-3.66-3.92-.45-5.51-2.27-.77-.87-2.5-.89-3.79-1.3,8.4.4,16.27-2.47,25.29-.78,14,2.61,17,12.64,21.5,22.6Z" fill="#2e2d27"/><path d="M791.14,664.54c3.48.93,6.52,1.6,10.34-.47,2.17-1.18,6.42-2.89,9.71.81,2.1,2.37,2.72-3.12,5.83-2-1.73,4.35-3.44,8.49-1.16,13.44,1.06,2.31-3,3.86-5.3,4.5-1.81.52-5.35,3.1-5.82-1.34-.54-5.13-5.94-6.83-7.92-6.57-8.75,1.13-4.81-5-5.68-8.33Z" fill="#4e493f"/><path d="M738.89,801.31c-2.26-.1-5.21.13-4.92-3.06.23-2.44.59-5.28,3.92-6.46,5.75-2,12-3,17.39-8.37-.66,4-3.46,5-4.66,7.61,3.16.35,5.88-4.55,8.85-.69l-1.39,1.33c-5.64,4.71-11.69,8.61-19.2,9.64Z" fill="#705f4c"/><path d="M738.88,801.31l19.2-9.64c-2.28,4.56-6.37,8.21-6.91,13.64l-1.31,1.44C745.22,806.89,743.19,801.82,738.88,801.31Z" fill="#514439"/><path d="M766.32,783.47c-2.77.14-5.48,2.89-9-.43,4.51-.33,6.2-3,7.56-6.55,1-2.55,2.48-6.32,5.65-6.16,2.74.13,3,4,4.08,6.33Z" fill="#755f46"/><path d="M785.61,705.61l2.79,2.68c.79,4,3.71,6.62,6,9.68,1,1.34,1.5,3.23.1,4.34-1.78,1.41-3.46-.55-3.65-1.7-.78-4.77-4.78-6.85-7.6-9.94-1-1.06-3-1.86-2-3.8C782.17,705.24,784,705.6,785.61,705.61Z" fill="#131919"/><path d="M868.18,691.86c-4.4-1.71-9-3.3-8-10.11,4.57,2.29,8.46,4.44,7.92,10.15Z" fill="#554f41"/><path d="M848.77,701.4l2.78-2.91c2-.24,2.28-5.2,5-2.47,1.8,1.8,0,4.31-1.88,5.84C852.65,703.55,850.34,706.51,848.77,701.4Z" fill="#69574e"/><path d="M909.44,747.94c.5.75,1,1.48,1.49,2.24,2.39,3.82,1.08,7.32-2.19,9.27-2.35,1.39-3.72-1.52-4.74-3.54-2-4-.94-6.38,3.61-7.09a6.85,6.85,0,0,0,1.82-.9Z" fill="#a18967"/><path d="M891.58,779.37c0,3.35.6,6.51-4.94,6.27-3-.13-6.14,2.2-7.94,5.44,1.38-7.18,8.14-12.91,12.88-11.7Z" fill="#9a856a"/><path d="M927.25,768.4c5.23,1.75,5.3,2.27,1,11-1.43-4-.72-7.51-1-10.92Z" fill="#967a5f"/><path d="M958.67,803.07c2.22-1.89,4.69.32,7-.4a20.81,20.81,0,0,1,1.46,10.94L961.85,815Z" fill="#595542"/><path d="M502.31,607.07c-.44-1.68.37-5.09-3.24-2.82-4.23,2.66-6.75.42-9.19-2.61,2.24-4.48,6.38-4.2,10.41-4,3.67.14,4.57,2.78,4.43,6.23,4.29-3.61,12.39-2.17,15.89,1.75,3.2,3.59,7.84,3,12.1,2.79a47.92,47.92,0,0,0,6.65-1.22l0,0c3,1.86,7,1.28,9.59,4.09l1.39,1.37c-1,4.56-4,2.37-5.56,1.13-5.67-4.37-12.57-2.52-17.93-1.67-7,1.1-12.64.4-18.39-2.72C506.5,608.28,504.76,606.82,502.31,607.07Z" fill="#6f5d4a"/><path d="M549,611.25c-3.53-.6-7.28-.67-9.59-4.09,1.08-.26,2.57-.16,3.15-.84,1.08-1.27-.44-1.82-1.35-2.38s-2-1-2.94-1.72c-1.14-.88-2-2.22-1.07-3.5,1.23-1.67,2.38-.19,3.35.63A29.15,29.15,0,0,1,549,611.25Z" fill="#554b3d"/><path d="M705.85,661.8c2.73,2.1,6.34,3.25,8.8,8-5.11-1.84-8-3.75-8.78-8Z" fill="#343a34"/><path d="M670.06,872.34c-.48,4.47-.9,6.13-6.2,7.39-7.9,1.89-10.5,10.23-17.75,12.8-2.3.81,1.16,3.4.8,5.25-4.48,1.1-8.89,2.2-13.3,3.25-1.28.31-2.88.13-2.86,2.12,0,6.55-4.79,3.67-6.27,2.25-2.89-2.78-6.58-4.31-9.41-7-.17-6.83,4.67-6.09,8.9-5.48,2.15.31,2.47,1.08,3.39-1.93a7.51,7.51,0,0,1,10.38-4.87c4,1.56,6.7,1.54,8.81-2.84,1.42-3,5-3.7,7.74-5.3,4.06-3.2,4.65-7.37,2.41-11.59-1.22-2.3-1.64-4.12-.43-6.32a3,3,0,0,1,1.43-2.7.91.91,0,0,1,1.45.08c-1,5.88,1.16,7.84,6.83,5.44a8.83,8.83,0,0,1,.58.9c0-.23-.17-.54-.55-.91,2-2.9,6.1.16,8.08-2.81.65-4.71,3.4-8.08,7-10.88,1.28.91,1.33,2.26,1.33,3.63,0,6.44,3.24,7.14,8.29,4.61l4.09-.08c.88,3.22-1.69,3.51-3.68,4.19a6.58,6.58,0,0,0-4.08,3.35c-2.22,4.68-3.41,5.1-6.55,1-1.18-1.54-2.56-1.84-2.91-1C676.16,868.56,671.65,869,670.06,872.34Z" fill="#745c46"/><path d="M655,879.2c-3.31,2.87-8.61,3.35-9.16,9.65-.18,2-6,.77-8-.81-4-3.17-5.69.46-8.09,1.83-4.16,2.37.16,2.6,1,3.77a1.77,1.77,0,0,1-.31,1.68c-1.61,1.51-3.34,1-5,0-4.61-2.78-8.13-2-10.36,3.09-1.12,0-2.2.18-2.74,1.38-3.18,1.35-6.18.26-8.73-1.34-4-2.52-7.1-1.67-10.79.83-2,1.34-5.86,1.14-7.24-.66-1.94-2.52,1.77-3.17,3.19-4.1,6.45-4.28,14.2-4.33,21.48-5.55a53.31,53.31,0,0,0,17.39-5.56l-9.7-1.65a193,193,0,0,0,21.14-5.1c2-.65,3.94-.77,4.94-2.87,3.15-1.72,7.59,1.62,10.29-3,.76-1.29,2.66.67,3,2.37C657.73,875.63,656.5,877.49,655,879.2Z" fill="#9b7a60"/><path d="M655,879.2l1.17-7c-3.69,4.6-8.14,1.44-12.11,1.6,2.44-2,4.25-3.83,3.87-7.84-.51-5.37,5.23-4.31,8.39-5.87,1.06,2.29-.19,6,4.06,6.4.37,0,.65,1,1,1.61-4.14,2.32-1,7.06-3.37,9.91C657.33,878.7,656,878.81,655,879.2Z" fill="#92664e"/><path d="M659.15,857.43l-1.45-.08c-.17-3.75,2.94-7.45.2-11.25,2.58-2.86,1.87-7.37,6.64-11.36C662.5,843.41,665.44,851.24,659.15,857.43Z" fill="#92664e"/><path d="M558.67,917.53c-1.24,1.28-2.58,2.49-3.71,3.86-4.86,5.9-7,5.91-11.83.08-.5-.62-1.53-.81-2.32-1.2l4.08-2.76c3,1.32,2.38-4.45,5.54-2.7C551.93,919.44,556.27,915.6,558.67,917.53Z" fill="#745c46"/><path d="M550.43,914.81a3.6,3.6,0,0,0-2.41,2.85c-.14,1.26,2,3.31-.79,3.63s-2.07-2.18-2.34-3.78c.76-2-2.18-4.78.6-6.07S549.25,913,550.43,914.81Z" fill="#594a3a"/><path d="M470.68,613.89c3.34-2.91,6.57-6,11.7-5.71-2.35,5.79-7,5.78-11.68,5.74Z" fill="#765d46"/><path d="M681.13,849.17a39.3,39.3,0,0,1-7,10.88c-5.65-.74-10.6-6.75-9.32-12.35,1.12-4.88,1.39-10.48,6.83-13.41.73-.39.82-2,1.21-3a23.68,23.68,0,0,1,2.42-11.11c4.16-8.7,7.49-17.8,12.57-26.07a8.38,8.38,0,0,1,1.1-1.78c7.45-4.66,14.73-10.52,23.82-3.23,6.17,1.53,7.33,4.3,3.49,9.83-2.06,3-7,6.07-1.36,11.67-6.21-1.41-9.53-.65-7.72,5.46.27.91.28,2.63-1.65,1.77-3.54-1.59-3.09,1.67-3.65,3.13-2.28,6-7.94,9.24-11.78,13.95-.94,1.16-4,3.67-4.85-.81-.36-.32-.8-.84-.63-1.13,6.3-10,8.78-22.27,18.27-30.33-7.94,7.6-16.79,14.53-17.73,26.85-.29,3.88-4.53,7-2.63,11.46.62,1.74,2.48,3.76-.92,4.67C678.65,846.4,678.64,846.34,681.13,849.17Z" fill="#47382e"/><path d="M664.61,782.15a87.63,87.63,0,0,1,9.8-26.38c2.13-3.87,2.85-6.27-.48-9.89-2.91,2.8-4.45,7.52-8.82,8-1.81.22-3.11-2.36-3.27-4.61-1-1.55-1-2.7,1.26-2.83,1.07-.82,3-1.54,3.09-2.48,1-8.48,9.06-11.09,13.9-16.24,2.62-2.79,7.09.32,10.31,1,2.51.5-1.77,3.33-1.89,4.86-.24,3.16-9,6.62,0,9.88,1.37.49-.93,2.77-.63,4.36.77,4.6-2.59,6.73-5.51,9.12a12.21,12.21,0,0,0-2.82,4.58,179.69,179.69,0,0,1-10.29,20.59,1.69,1.69,0,0,1-1.83.08Z" fill="#4e3c2e"/><path d="M712.72,789.1c-8.65-3.57-16-.07-23.25,4.17-2.48-4.41,1.67-6.94,3-10.26.72-1.81,3.48-2.32,3.22-5.43a13.48,13.48,0,0,0-8.65,6.3c-1.64,2.56-3.27,5.58-7.21,5.12-1-6.26,5.28-8.8,7.57-13.43,2-4,7.94-7.25,14.66-6,5.66,1.06,11.7.13,17.57.22,1.8,0,3.86,0,5.32.85,3,1.71,8.44,2.65,7.49,6.55s-5.74,1.51-9,1.56c-6.45.09-13.13,2.5-18.66-3-.31-.31-1.94.07-2.35.59-1,1.26-.35,2.61.65,3.64,2.87,3,7.11,2.87,10.54,4.58,1.71.85,5.18-.6,5.14,1.92C718.65,790,715,788.64,712.72,789.1Z" fill="#936a45"/><path d="M692.1,734.27c1-4.43,3.15-9.33-4.84-9.19-1.69,0-2.27-1.5-.94-2.74a32.41,32.41,0,0,1,4.43-3,56.27,56.27,0,0,1,27.73,4c3.08,1.3,3.46,3.4,1.29,5-4.7,3.57-3.94,6.53.16,9.65,3.77,2.85.45,8.89,5.19,11.28,1,.79,2.42,1.45,1.15,3.09A15.25,15.25,0,0,0,713,753.56c-4,2.17-5.84-.29-5.25-5.28.38-3.28,4.7-6.06,2-9.39-2.5-3.1-7.24-2.57-10.51-4.49C696.64,732.83,694.45,735,692.1,734.27Z" fill="#856145"/><path d="M726.49,752.07c-.46-.91-.92-1.82-1.37-2.73,6.21-2.36,10.2,1.61,14.06,5.23,2.7,2.52,4.79,5.28-1,7.43-3.16,1.17-3,3.86.45,5,2.88.91,5,2.66,3.38,5.22-1.82,2.93-5.23,2.44-7.77.4a16.8,16.8,0,0,1-3.69-4.82c-3.84-6.61-9.48-7.19-16.1-5.11-1.25.4-3,.78-4,.2-6.59-4-12.44-1.58-18.26,1.69l-.48-.83c4.69-8.89,8-10.13,17.2-8.17,7.43,1.59,15.14-.09,23,.94C730.72,753.74,727.67,754.11,726.49,752.07Z" fill="#846244"/><path d="M682.48,841c-2.63.18-4.36-.56-2.35-3.31,3.13-4.29,3.92-9,3.73-14.14s4.47-8.09,6.78-11.52c3-4.38,7.19-9.25,12.75-11.77,1.16-.53,2.29-2.09,3.4-.37.82,1.28,0,2.65-1.17,3.52-7.36,5.45-12.24,12.41-14,21.54-.73,3.91-5.95,5-6.47,9.2C683,835.89,684.2,839,682.48,841Z" fill="#6c523e"/><path d="M679.81,789c5.37-2.93,7.45-8.91,11.92-12.87,2.79-2.47,3.93-1.14,5.46-.12,2.37,1.59,2.45,4-.08,5.44-4.73,2.67-6.35,7.08-7.64,11.82a11.2,11.2,0,0,1-.21,1.13c-3.33,3.74-7.08,6.86-12.14,8.56-1.07-2.47-1.32-4.76-.11-7.1C677.94,793.57,678.88,791.29,679.81,789Z" fill="#ad7c54"/><path d="M678.58,760.49c.4-1.7.88-3.36,2.55-4.32,4.53.64,2,4.57,3.38,7.1,2.76-2.14,5.55-2.89,7.52,1l.2.29c-1,2-3.16,2.5-4.86,3.62-4.79,3.17-8.8,6.39-9.37,13.16-.5,6-3.27,11.85-5.22,18.34-2.47-3.64-.17-6.39,0-9.31-5.06,2-5.06,2-6.46,9.29.3-5.81-1.8-11.73,1.14-17.43l1.3,0C674.61,779.39,679.55,768.47,678.58,760.49Z" fill="#846140"/><path d="M677,795.86v5.47l12.25-6.93c-5.87,12.12-12,24.15-16.45,36.89-2-1.5-1.82-3.89-1.19-5.56,3.43-9.15,3.85-18.69,4.28-28.26C675.93,796.91,676.62,796.39,677,795.86Z" fill="#866344"/><path d="M752.33,771.28c-2.62-1.31-6.61-.48-6.49-4.82.09-3.25.54-5.42,5.4-5.55,5.37-.14,9.62,3.12,9.88,5.91C761.43,770,755.23,769.3,752.33,771.28Z" fill="#302f29"/><path d="M759.29,758.72c.78-1.43-.64-5.4,2-4.4s4.49,4.6,5.81,7.48c.74,1.6-1.65,2.66-3.23,2.21C761.38,763.31,758.06,763,759.29,758.72Z" fill="#8c6f4d"/><path d="M692,764.25c-3.57-2.94-6-.35-8.46,2.2-2.58-3.27.49-7.51-2.44-10.28a18.23,18.23,0,0,0,6.77-8.33c1.51-.51,3.46-.59,4.43-1.61,2-2.09,11-3.73,1-7.62-1.62-.64-1.21-2.77-1.25-4.34,2.61-2,4.49-6.19,8.64-1.11,1.61,2,5.91,1.62,8.83,2.72,3.6,1.36,4.95,4.26,2.57,7.39s-4.82,7.86-2.16,9.06c3.6,1.62,8.21-1.15,9.14-7.57,2.54,3.31,3.29,7.27,7.37,7.31a9.48,9.48,0,0,1,2.69.22c2.48,1,6.34,1.81,5.82,4.66-.68,3.7-5,1.36-6.91,1.22-8.54-.6-17.14.47-25.75-2.38C698.85,754.64,695.06,760.73,692,764.25Z" fill="#b07e56"/><path d="M663.1,746.49a3,3,0,0,0-1.26,2.83c-.43.76-1.4,1.7-1.21,2.25,3.13,9.32-2.81,17.4-3.73,26.17.15-10.34.22-20.68,2.82-30.78C660.29,744.78,660.75,744.84,663.1,746.49Z" fill="#a5744e"/><path d="M942.21,890a3.51,3.51,0,0,1-1.11.2c-2,.14-4.24-.5-5.73,1.54l-1.32-7,8.24-.08C942.27,886.45,942.24,888.23,942.21,890Z" fill="#51453d"/><path d="M939.79,869.38q2,4.25,4.06,8.51l-1.35,2.9c-.32-4.76-4.33-4.16-8.08-4.67C936.12,873.22,940.83,873.36,939.79,869.38Z" fill="#2a2f29"/><path d="M766.3,730.9c-.75,4.23-5.27,3.36-7.9,5.18-1.91,1.33-4.3,1.25-5.15-1.13-1-2.83-2.5-4.57-5.45-5.36a2.53,2.53,0,0,1-1.69-3.28c.5-1.71,2.06-1.7,3.37-1.53,5.21.68,9.59,5.21,15.5,3.16C765.9,727.62,766.28,729.5,766.3,730.9Z" fill="#514439"/><path d="M666,862.86c1.23.4,3.78-.84,3.12,1.89-.23.92-1.48,3.29-3.34,2.25s-.25-2.75.19-4.13Z" fill="#92664e"/><path d="M678.58,760.49c3.21,1.59,3.15,4.57,2.09,7-2.52,5.78-5.53,11.34-8.46,16.92a2.61,2.61,0,0,1-2.15,1.17c-1.72-.47-1.1-2.17-1.31-3.41C670.69,774.35,675.82,768,678.58,760.49Z" fill="#b07e56"/><path d="M567,879.63a81.54,81.54,0,0,1-15.81,6.54c-2.83.9-5.52-1.37-6.49-2a6.19,6.19,0,0,0-9,1.91c-3.27,5.77-9.3,7-14,10.32-2.17,1.55-4.66,2.63-5.85-1.27,5-3.88,7.08-5.59,11.92-9.65,3.27-2.75,5.47-4.66,8.69-11,.78-1.53,3.06-2.67,4-3,3.74-1.47,6.77-3.38,8-6.49a12.39,12.39,0,0,1,7.15-7.46,9.67,9.67,0,0,0,4.14-3.07,3.08,3.08,0,0,1,2.19,2.85c0,2.05.7,2.23,2.38,1.15,5.38-3.44,10.72-7.9,17.3-7.57,7.64.38,13.38-2.83,19.27-6.76a10.67,10.67,0,0,1,7.36-1.22c6.74,1.08,12.5-1.37,18.11-4.57a41,41,0,0,1,4.82-3.34c3.33-2.49,6.65-5,10.58-6.43,2-.75,4.39-2.26,5.77,1.06-8.68,7.65-17.49,15.14-27.25,21.42-15.42,9.91-31.58,18.51-47.66,27.25C571,879.23,569.26,880.68,567,879.63Z" fill="#895b43"/><path d="M586,836.51c1.86.24,2.77,1,1.61,2.91.2,3.43-2,5.57-4.45,7.2-6,4-12.63,7-18.57,11.21a2.49,2.49,0,0,1-3.14-.38l-1.59-3c.48-2.41-.89-4.43-1.37-6.63,2.37-2.06,4.72-1,7.08,0,5.32.56,6.31-3.53,7.7-7.2,2-2.65,4.15-4.69,7.73-2.66Z" fill="#654f3d"/><path d="M565.56,847.83c-1.93,3.17-4.62,6.53-7.27-.13-.94-2-.81-2.33.86-2.69A5.74,5.74,0,0,1,565.56,847.83Z" fill="#856753"/><path d="M561.44,857.45c8.7-6,19.78-8.61,26.16-18,7.86,1.15,14.58-3.84,22.17-4.13,0,.45,0,.91,0,1.36.63,4.51,3.68,3.71,6.67,3.07,3.68-.8,7.34-2.48,11.12-.37-6,3.28-11.54,6.74-19.2,5-6.76-1.5-11.16,5.25-17.06,7.18-1.22.4-4.34,6.94-4.94-.6a3.27,3.27,0,0,0-1.87,0c-6.81,3.66-15.22,4.08-20.73,10.36-1.4,1.59-3.13,1.12-4.15-.27C558.13,859,560.2,858.33,561.44,857.45Z" fill="#ab795b"/><path d="M550.93,863.17c.67-1.31-3.11-5.09-4.78-3.09s-.38,8.81,1.32,8.2S550.93,863.17,550.93,863.17Z" fill="#654f3d"/><path d="M514.6,895.6c.15,1.63,5.61,3.51,5.93.71s-4.69-8.9-5.82-7.46S514.6,895.6,514.6,895.6Z" fill="#654f3d"/></g><g id="frame"><rect width="1000" height="1000" fill="none"/></g></svg>