<!-- Copyright (c) 2023 Jan Stehno -->
<svg xmlns="http://www.w3.org/2000/svg" viewBox="0 0 1000 1000">
    <title>axisdeer</title>
    <g id="axisdeer">
        <path
            d="M873.56,952.76l-1.18.3c-5.2-2.2-9.71-4.95-10.3-11.4A7.65,7.65,0,0,0,859.8,937c-4.52-4.31-8.76-8.75-11.91-14.24a5.3,5.3,0,0,0-6.63-2.48c-2.83,1.06-4.87.59-6.41-2.12s-3-5.1-.8-8.08c.88-1.19,2.46-2.67.78-4s-2.71.71-3.89,1.55-2.35,1.77-3.71,1.55c-8.21-1.38-16.66-1.26-24.65-3.9-2.19-.72-3.85-2.66-3.31-5,1.43-6.12-2.21-10.55-4.9-15.12s-5.31-9.06-5.68-14.53c-.16-2.43-1.19-5-3.32-5.92-5.1-2.15-8.54-6.71-13.7-8.71-2.81-1.08-5-2.87-5.63-6.18-1.41-7.82-6-12.6-13.59-14.19-4.26-4.49-3.92-10.39-4.88-15.88-1.56-8.9-1.73-18-3.12-26.93-1.06-6.83,2.2-14,3.7-21.06.37-1.74,2.35-3,4.35-3.6,9.15,6.2,16,14.9,8.12,26,1.29,1.42,3,1.12,4.35.57,5.79-2.26,11.64-.46,17.45-.46,1.77,0,3.78.35,4.93,1.62a12,12,0,0,0,9.69,4.22,4.56,4.56,0,0,1,4.51,5.69c-.75,3.7,1,5.36,3.77,7,3.36,2,6.56,4.24,10.37,5.4s6.18,3.8,8.12,7.07c-.5-2.52-2.45-3.86-4.34-5.19s-4.2-2.84-2.68-5.62c1.33-2.44,4.16-3.89,6.49-2.78,4.79,2.28,9.86,3.68,14.74,5.62a4.1,4.1,0,0,1,2.19,1.9c4.19,9,13.36,13.08,20.3,18.92,5.38,4.53,10.52,10.83,18.21,12.62a2.36,2.36,0,0,1,1.88,3.15c-2.64,7,1.84,12.3,4.15,18.08,1.16,2.91,2.28,5.83,3.23,8.8,1.64,5.16-.27,8.61-5.61,9.28-3.27.41-5.38.85-5.74,4.75-.16,1.85-2.74,2.61-4.15,4-5.51,5.21-5.56,9.83.94,13.75a99.13,99.13,0,0,1,17.38,13.68l1.77,8.1a2.61,2.61,0,0,1,.27,3.22c-1,1.2-2.22.4-3.11-.24-3.47-2.5-7.41-4.6-9.5-8.52-2.71-5.08-7-7.63-12.69-8.74a17.08,17.08,0,0,0,2.85,15.85c3.53,4.64,6.41,9.83,11,13.59,2.14,1.75,2.29,3.9,2.1,6.3-1.86,2.08-3.39.33-5.08-.36S875.84,952.37,873.56,952.76Z"
            fill="#e2ba84" />
        <path
            d="M493.63,717.42c10.6-6.93,21.17-13.93,33.28-18.09,6.93,1.27,14,1.65,21,2.35a5,5,0,0,0,3.83-1.25c5.14-5.78,13.06-4.9,19.28-8.18,3.93-2.07,8.44-.82,12,2.17a36.38,36.38,0,0,1,4.66,5.25c2.42,2.63,3.34.71,4.54-1.32,1.67-2.83,2.43-6.71,6.87-6.77,7.15,9.55,16.59,8.61,26.44,5.75,3.54-1.61,7-3.32,10.68-4.69a14.83,14.83,0,0,1,12.42.41c3.38,1.63,6.76,1.79,10.08-.27,6.54-4,12.17-.62,17.41,2.7,4,2.55,3.62,7.22-.24,10.16-1.18.91-3.18,1.27-2.6,3.33.5,1.8,2.31,1.91,3.82,2.22a29.65,29.65,0,0,1,4.52,1.24c6.08,2.34,6.55,3.41,4.09,9.41-2.55,6.25-1.55,10,3.66,13.71,2.32,1.67,4.13.15,4.73-1.57,2.16-6.2,7.2-11.05,5.93-18.94-1.23-7.64,2-15.35,6.34-21.91,2-3,4.32-1.72,5.66,1.27-1.39,8.54-4.49,16.74-5.16,25.44a4.41,4.41,0,0,1-.48,2.27c-4.9,6.52-3.61,14.94-6.93,22-2.51,5.36-7.68,8.18-13.19,5.81a23.84,23.84,0,0,1-8.74-6.7c-3.29-3.85-6.47-8-11.46-10.75-.39,3.2,1.72,3.59,2.93,4.64,2.88,2.49,2.72,5.14-.71,6.25C663.83,744.8,660,748,655,747.85a6.59,6.59,0,0,0-5.12,2.43c-3.7,3.93-16.55,7-21,4.58-4.94-2.64-.78-5,.72-7.28.78-1.13,1.72-2.15,2.39-3.34,2.31-4.14,1-7.58-3.72-8.19-6.8-.88-13.52-.1-18.46,5.26-3,3.25-6,4.05-9.91,2.39s-7.27-1.12-11.19.59c-5.67,2.48-11.8,3.71-16.65,8.13a5.87,5.87,0,0,1-8.15-.07c-3.42-3.63-7.95-5.62-11.61-8.84-4.54-4-4.57-4,1-6.65a2.77,2.77,0,0,0,1.75-2.15c-2.86-1.7-5.72-.74-8.65.09-7.73,2.2-13.65,7.52-20.31,11.58-4.48,2.73-9.09,5-12.56,9.37-4,5-7.08,10-6.21,16.65-5.58,1.38-8.42-1-7.27-6.36a26.64,26.64,0,0,1,7.49-13c5.18-5.3,4.86-11.94.07-17.63S498.22,723.47,493.63,717.42Z"
            fill="#ddb682" />
        <path
            d="M964.48,346.41q-7.71,8.4-15.43,16.81c-1.29,1.41-2.48,2.69-2.55,5a108.41,108.41,0,0,1-12.17,47.49,142.42,142.42,0,0,1-27.41,36.92c-4.2,4-7.33,9.14-11.36,13.37-12.56,13.2-25.08,26.44-38.1,39.18-5.93,5.81-13,10.47-19.55,15.65-8.54,8.28-18.51,14.86-27.77,22.24-5,4-11.51,7.09-17.82,9.65a204.15,204.15,0,0,0-40,21.92c-8.79,4.68-16,10.91-20.31,20.14-.65,1.39-1.24,2.91-2.83,3.59-3.49,5.89-9.45,7.48-15.52,8.16-4.06.46-1.25-3-2-4.7-1.74.19-3.61,1.75-5.7.52-2.52-2.21-2.06-4.74-.82-7.36,3.78-5.44,9.29-8.75,14.84-12,1.31-.77,2.86-2.14,4.22-.87s-.15,2.82-.85,4.12a11.18,11.18,0,0,0-1.59,3.29c5.57-7.69,11.85-14.46,19.78-19.53,12.28-9.08,25.42-16.32,39.36-18.32-4.14,1.48-10.52.39-15.56,4.21a2.23,2.23,0,0,1-3.14-.58c-.75-1.14.08-2.21.66-3.21,1.85-3.2,6.39-4,7.27-8,4.92-5.83,11.47-9.56,17.87-13.49-11.11,6.25-20.53,15-31.63,21.16,1.53,1.53-.16,3.9,2,5.7,1.33,1.09-1.42,2.67-2.88,3.41a92.61,92.61,0,0,0-14.57,9.4c-13.61,2.11-23.77,10.7-34.49,18.26-2.55,1.81-2,4.43-2.36,6.89a7.53,7.53,0,0,1-.37,1.77c-.6,1.77-.55,4.41-3.2,4.13-2.42-.26-2.38-2.78-2.67-4.65-.33-2.12-.88-4.2-1-6.35,2.43-10.9,7.57-19,18.73-23.77,5.67-2.42,11.87-1.41,17-4.72,10.31-4.84,18.26-13,27.59-19.31,6.46-4.33,12.55-9.21,19-13.51,8.76-3.45,17.41-7.24,23.59-14.62,5.19-6.19,11.72-10.73,17.81-15.83,4.12-3.45,9.25-4.93,14.13-6.87,1.24-.49,2.78-1.35,3.77,0,1.29,1.69-.63,2.71-1.46,4,4.54-4.6,9.79-8.23,14.46-12.54,1.47-1,2.72-2.64,4.88-1.78,2.21.62,3.37-1.11,4.81-2.17.4-.3.78-.83-.23-.75a3,3,0,0,0-1.06.41c-1.78.72-3.74,1.75-5.28,0s0-3.48,1-5c4.26-3.57,5.74-8.76,7.89-13.56,5-5.59,6.14-13,8.91-19.58,2.41-5.77,5.61-7.74,11.33-6.79,3.09.52,3.94,2.39,1.88,4.35-7,6.64-8.94,16.76-15.59,22.41.88-1.05,2.55-2.7,3.93-4.61a2.46,2.46,0,0,1,3.57-.85c1.31.83.72,2.11.29,3.16-1.51,3.6-3.25,7.08-4.63,8.65a109.87,109.87,0,0,0,15.54-33.64c1.76-6.57,4.36-12.63,9.17-17.44,8.17-8.18,11.77-18.69,15.5-29.17.33-.94-.18-1.92-.21-2.9a8.54,8.54,0,0,1,2.11-6.47c4.57-5.68,5-12.9,7.33-19.44,1.26-4,2.47-7.95,4.9-11.42,1.74-2.39,2.6-5.22,3.82-7.87a4,4,0,0,1,1.15-1.18c5.55.33,3,4.07,2.19,6.22-3.05,8.45-6.38,16.81-9.89,24.64,2.41-4.49,3.93-9.88,8.33-13.83,2.74-2.46,3.57-6.41,4.62-10,2.54-8.59,5.55-17,7.86-25.69a12.75,12.75,0,0,1,3-5.61c2.48-1.06,2.93-6.57,7.36-3.36,1.38,4-.91,7.22-2.15,10.63-3.38,9.34-7,18.58-10,28.17,6.19-5.21,10-12.18,14.14-18.8,1.46-2.31,2.34-5,4.94-6.38,4.64-.4,3.46,2.74,2.74,5a36.61,36.61,0,0,1-7.5,13.71,55.68,55.68,0,0,0-3.66,5.28c3.05-3.89,6.36-7.56,9.16-11.66a34.86,34.86,0,0,1,4.57-5.28c1.2-1.17,2.55-3.21,4.3-2.1,2,1.24.35,3.18-.42,4.61-1.63,3.06-3,6.31-5.56,8.81A7.28,7.28,0,0,0,964.48,346.41Z"
            fill="#362519" />
        <path
            d="M630.77,748c0,1.31-.88,1.89-1.89,2.65-2.42,1.83-1.32,3.17,1.1,3.15,5.08,0,10.15-.47,15.22-.74,1.78-.09,1.85-1.64,2.53-2.78,1.78-3,4-4.7,8.08-4.18,4.89.62,8.4-4.14,13.34-4.57,1.43-.13,1.06-2.29-.37-3.15-.81-.48-1.89-.51-2.74-.95a4.78,4.78,0,0,1-3-4,2.6,2.6,0,0,1,1.74-2.75c1.93-.84,3.53.18,4.72,1.43,3.34,3.5,6.7,7,9.7,10.81,3.77,4.79,9.38,6.9,14.5,5.51,2.7-.73,3-2.58,4.21-4.55,4-6.31.49-14.72,6.4-20.4,1.19-1.14.65-4.24,1.19-6,2.37-7.62,1.42-16.11,6.07-23.08,6.22-1.41,10.57,1.68,14.45,5.94,1.49,3,4.51,5.55,5.28,8.21,1.9,6.52,6.44,9.9,11.38,13.49,1.65,1.2,2,3.71,2.88,5.7,2.23,5.36,3.18,11.29,7.45,15.76a6.32,6.32,0,0,1,1.55,6.08c-2.18,6.29-.87,12.74-1.41,19.09-3.56,2.87-7.16,5.62-4.34,11.12.95,1.86,0,4.19-1.38,5.42-3.54,3.22-2.23,6.59-1.09,10.16,2.45,7.68,1.49,15.75,2.64,23.59.84,5.74,1.65,11.42,4.14,16.72,1.31,1.18.93,2.87,1.33,4.33,1.95,7.05,3.08,14.41,8.75,19.91,2.38,2.3,3.62,5.48,4.53,8.69.77,2.85,0,5.77.28,8.61a20.36,20.36,0,0,0,6.85,13.6,10.48,10.48,0,0,1,1.07,1.34c1.41,3.6,5.89,5.72,5.07,10.41-2.19,4-5.68.07-8.31,1.39a7.26,7.26,0,0,1-6.45-1.84c-2.34-1.92-3.65-.49-4.06,1.78-.58,3.28-.89,6.83,1.31,9.55,5.52,6.86,8.71,15.52,16.25,20.82,1.28.89,2.23,2.48,1.22,4.06s-2.43.33-3.64,0c-4.6-1.44-9.51-2.13-13.36-5.41a11,11,0,0,1-3.88-5.66c1-5-.76-9.44-2.53-14.07-4.38-11.51-8-23.24-5.54-35.86.65-3.37-.63-6.62-1.41-9.81-2-8.17-4.7-16.14-6.28-24.43a13.26,13.26,0,0,0-3.75-7.21c-5.57-5.24-8-12-9.44-19.12-1.28-6.5-4.87-11.41-9.62-15.71-2.76-2.5-5.74-4.8-8-7.75a7.31,7.31,0,0,0-8.23-2.92c-2.08-1.24-.95-3-.79-4.65.4-4-1-5.15-5-4.21a11.36,11.36,0,0,0-4.1,2.11,11.29,11.29,0,0,1-2.94,1.82c-.8.28-13.36-2.56-14-3.23a1.86,1.86,0,0,1-.3-1.65c5.2-3.21,7.45-9.18,12.24-12.9,3.35-2.61,2.55-6.95-1.24-9.18-5.21-3.07-10.69-5.76-14.16-11.05-.74-1.13-2.14-1.66-3-.6-2.52,3.12-7.53,3-9.06,7.62-.75,2.26-3.69,2.55-6.09,2.82-10.23,1.14-20.37,2.07-30.16,6.25-5.29,2.26-11.83.34-17.75-.44a3.25,3.25,0,0,1-2.66-2.84c-.22-1.4.77-2,1.82-2.67,5.12-3.15,10-6.64,15.6-9C626,747.57,628.25,746,630.77,748Z"
            fill="#d9b78a" />
        <path
            d="M753.16,768.71c-2-5.4-2.79-10.84-.49-16.35,1.13-2.72,1.31-5.8-.67-7.73-5.15-5-5.76-12-8.47-18-1.51-3.38-2.37-8.18-8.43-6.6-2.24.58-3.82-2.3-3.21-3.88,1.71-4.39-1-6.19-3.57-8.68a12,12,0,0,1-3.43-6.66c4.76.27,6.33,4.78,9.17,7.36,11.51,10.47,19.57,23.69,27.86,36.69,1.4,2.2,1,4.41.62,6.78-.65,4.59-.74,9.07,4.49,11.49,1.57.73,2,2.22,2,3.93.05,4.89,3.28,7.45,7.4,8.6,3.1.88,4.76,2.76,6.77,5,5.33,6,10.53,12.46,19.26,14,2.94.52,5.29,2.49,7.86,3.88,5.05,2.71,10.06,5.34,16.1,4.22.38-.07.91-.16,1.15.05,6.11,5.52,15,5.34,21.34,10.31a21.87,21.87,0,0,1,7.73,11.42c1.66,5.54,5.08,8.68,11.48,10.05,7,1.51,13.73,3.78,21.08,3.66,3.91-.07,7.78.31,11.64-.65,2.29-.57,4.67-.89,6.61,1.08,3.09,7.3,3.86,15,4,22.82a4.11,4.11,0,0,1-1.6,3.58c-.75.57-1.64-1.23-1.19-.21,1.49,3.39.52,6.52-.1,9.75-.83,4,1.39,7.66,1.44,11.57-2.27,1-1.28-1.73-2.35-2.1h0c-4.17-4.34-4.55-9.57-3.75-14.78-.61,1.43-.31,3.31-.33,5.17,0,1.49.48,3.6-1.46,3.9-1.78.27-2.27-1.79-2.86-3.19a26.76,26.76,0,0,1-.7-2.84c2.06,6.94,2.5,14.16,3.79,21.24.39,2.18,1.53,5.13-2.11,6.16-1.23-4-2.36-8.13-5.7-13,1.77,10.46,3.81,19.32,4.66,28.29,1,10.69,2.55,21.11,7,31,2.52,5.68-1.47,11.27-1,17.08-1.12-15.3-11.36-28.18-11.33-43.86a14.16,14.16,0,0,1-3,6.91c-2.14.34-4.18-.28-5.09-2.13-2.33-4.81-7.07-6.57-11.18-8.9-9.48-5.35-10.29-12-1.85-18.83,1-.83,3.27-1.86,3.16-2.18-3-8.68,3.88-4.37,6.8-5.28,3.52-1.1,6.09-2.79,4.2-7.21-2.94-6.84-4.92-14.1-9-20.41-1.41-2.18.17-3.73.88-5.4,1.16-2.7,1.48-4.66-2.47-4.12-2.7.36-4.2-.29-5.06-3.3a7.45,7.45,0,0,0-4.3-4.5c-10.37-2.87-14.38-14.25-24.22-17.72-1.28-.45-1.61-2-1.94-3.44a6.74,6.74,0,0,0-5.62-5.28c-3.86-.73-7.55-1.56-10.78-4.13-2.48-2-5.17-.28-6.6,1.58-1.68,2.2,1.15,3.3,2.47,4.47,1.75,1.53,3.77,2.74,5.66,4.11,1.51,1.11,2,2.29.36,3.8s-3.82,1-4.05-.13c-2-9.75-12.55-7.71-17.73-13.06-2.46-2.55-7.38-2.94-4.1-8.72,1.24-2.19-2-5.11-5.25-4.08s-5.35.54-6.7-2.53a5.24,5.24,0,0,0-5.31-3c-6,.32-12-2.35-17.88.46-1.51.72-3.32,1.22-5.06.15-1.18-.72-2.6-1.42-2.78-2.83-.2-1.61,1.64-1.23,2.46-1.87,2.34-1.83,2.6-3.91,2.71-7.2C762.79,776.62,755.07,774.56,753.16,768.71Z"
            fill="#dcb17f" />
        <path
            d="M933.89,257.06c2.56-1.42,2.66-4,3.2-6.46,2.49-11.3,5-22.59,7.56-33.89,1.84-2.09,2.44-4.67,3-7.29l0,0c2-4.33,2.48-9.34,5.71-13.4,2.83,1.57,2.86,4.27,2,6.54-5.11,13.12-6.24,27.15-9.76,40.61-1.14,4.35-3,8.38-1.61,13,.63,2.36-.34,4.63-.62,7.22-.23.42.4.23.39,0a2.81,2.81,0,0,1,2-3.18c2.67-.53,3.26,1.43,3.49,3.55-1.94,8-6.09,15.18-8.07,23.14-1.08,4.46-4.48,7.59-6.61,11.45-4.89,8.89-4.62,18.56-4.52,28.22-2.6,4.75-3.38,10.51-7.88,14.22-3.42-1.54-3.85,2.08-5.31,3.43-1.81,1.69,1.33,1.79,1.81,2.95a6.59,6.59,0,0,1,.79,2.68,4.5,4.5,0,0,1-1.65,2.87c-6.91,1.6-10.17,6.6-12.19,12.88a28.36,28.36,0,0,1-2.8,5.79c-.82,1.37-1.93,2.78-3.75,1.89-2-1-1.16-2.94-.5-4.12,3-5.29,5.81-10.64,7.3-16.54,2.33-9.32,8.22-17.21,10.65-26.47-2.34,5.32-2.6,11.7-8.86,15-1.48.77-1.4,4-1.19,6.09.28,2.94,0,5.48-2.92,7-.34.18-1,.49-1,.5,4.22,8.1-6.06,11.51-6,18.51,0,3.33-1.44,3.44-5.26,3.13-.92-.08-.46,1.1-.77,1.65-1,1.8-.59,5.1-4.3,4,6.55-16,13.06-32.12,20-48,2-4.54,3.33-9.3,6.21-13.46,1.4-2,.83-4.43.32-6.81-3.68-17.36-8.82-34.36-12.71-51.66-3.4-15.13-7-30.23-6.47-46.1.4-10.63-1.32-21.36-.88-32.08.23-5.42.8-10.83,1.22-16.25.31-7.11.45-14.23,2.18-21.21.85-3.4,1.43-6.74,4.44-9.18,3.29-2.67.11-5.74.06-8.64.38-2.87,1.37-5.35,4.27-6.59,3,.63,3.36,2.82,3,5.26a22.58,22.58,0,0,0,.41,6.82c-3.48,6.21-1.45,11.85,1.79,17.38,1.1,1.89,1.27,4.1,2.07,6.1,1.38,5.75.57,11.66,1.26,17.47a6.91,6.91,0,0,1-1.09,3.9c-.43.82-.82,1.89-2,1.8s-1.52-1.13-1.92-2c-2-4.31-.61-9-1.57-12.67.83,5.46-.75,12.19,3.79,17.69a2.53,2.53,0,0,1,.17,2.27c-6,18.2,1.26,34.85,6.07,51.78a5,5,0,0,0,1.47,2.5c3.17,2.71,4.52,5.81,2.28,9.78-.91,1.63.77,1.86,1.47,2.62a8.55,8.55,0,0,1,2.19,4.75c-.05,1.4-.11,2.81-2.07,2.83-1.39,0-1.67.87-1.24,1.91,2.41,5.79,3.08,12.09,4.42,16.25-.92-1.81-1-5.8-2.2-9.48-.68-2,0-4,3-3.41,2.46,2.37,2.64,5.53,3,8.62C933.64,269.33,931.77,262.63,933.89,257.06Z"
            fill="#8e7157" />
        <path
            d="M766.65,869.12c-1.92-4.73-5.5-8.44-8-12.67-3.68-6.12-6.28-13.14-5.48-20.73,3-2,5.4-1.87,7.09,1.75,1.37,2.92,6.26,3.06,6.42,6.42.34,6.94,3.37,10.59,10,13,2.47.88,4.58,4.24,7.9,5.26,3,.92,5.42,3.82,5.34,6.41-.29,9.68,6.94,15.91,10.2,23.91.93,2.28,2.11,3.92.73,6.3s.12,5.41,1.83,5.15c5.22-.81,9.12,3.71,14.28,2.67a11.51,11.51,0,0,1,8.5,1c2.77,1.64,4.67-.58,6.08-2.89,1.3-2.13,2.68-2.54,4.6-.57,1.67,1.72,3.21,3.84.63,5.32-5.72,3.28-.88,6.2,0,9.19.38,1.34,1.43,1.49,2.77.69,6.14-3.69,9.31.86,11.54,5.07a25.46,25.46,0,0,0,6.89,8.38c3.74,3,6.44,6.66,6.13,11.82-.12,1.89,1.3,2.81,2.66,3.52a14.06,14.06,0,0,1,5.7,4.91c.11,3.93,2.3,7.55,1.72,11.58a4.32,4.32,0,0,1-5.4.88c-8.28-4.34-17.16-7-26-9.84-3.18-1-4.81-3.87-6.3-6.65s-3.17-4.3-6.53-2.76c-3,1.38-5.52,0-7-2.59a10.69,10.69,0,0,0-7.63-5.78,3.19,3.19,0,0,1-2.06-1c-3.38-6-10.66-7.65-14.35-13.2-2.92-4.41-7.86-6.34-11.63-9.7-1.79-1.59-3.23.7-4.9.61-4-3.14-7.82-6.47-9.19-11.69,2.19-3,4.85,2.65,7-.37,2.19-4,7.07-2.44,9.14-4.82-4.62-.64-9-4.52-14.39-5.48h0c-1.89-2.11-1.17-4.79-1.54-7.22C772.5,879.1,769.15,874.3,766.65,869.12Z"
            fill="#dab07a" />
        <path
            d="M727,877l-20.52-33c1.87-2,1.18-3.55-.17-5.64-4.54-7-8.89-14.19-12.92-21.57-4.43-8.08-4-14.77,2.36-21.25a13,13,0,0,1,5.77-4.14c1.77-.43,3.75-.56,5.11.51,6.33,5,13.13,9.22,17.64,16.55,5.79,9.42,8,20.29,13.45,29.71,4.36,7.52,2.57,16,4,23.94.81,4.6,1.25,9.24,2.59,13.75.92,3.07,1.44,6.54-2.35,8-3.44,1.36-6-.78-7.93-3.46-2.62-3.62-3.52-8.32-7-10.93C728.31,871.74,730.21,874.34,727,877Z"
            fill="#ded2ba" />
        <path
            d="M886.14,382c3.73-1.74,2.54-6.78,6.07-8.67,1.63,1.08-1.2,2.81.75,4.38.59-3.48,5.38-5.53,2.23-9.86-.23-.32.39-1.87.73-1.91,5.55-.7,5-6.14,7.76-9.29-2.38-1.13-2.12,2.15-3.75,1.68a1.13,1.13,0,0,1-.09-1.93c6.17-3.56,5.21-9.63,5.43-15.25.05-1.24.16-3.09,1.19-2.89,6.88,1.32,5.75-4.69,7.13-7.91,1.32-3.05,2-6.27,6.26-8.78L899,372.33c3.51-2.2,4.84-5.71,6-9.18,2-6.19,5.35-10.61,12.41-11a3.41,3.41,0,0,1,.39,3.34c-2.83,10.09-4.79,20.46-9.4,30-1.27,2.62-2.44,5.26-5.4,6.68-2.55,1.21-2.92,4-3.51,6.48a43.74,43.74,0,0,1-6.39,15c-1.33,1.91-3.12,4.23-5.7,2.11-2.42-2-.14-3.82,1.07-5.48,4.09-5.58,6-11.54,5.32-17.44-2.93,7.18-4,14.35-7.81,20.47-1,1.53.18,2.45,1.38,3.33,4.18,3.11,4.57,6.3,0,8.35-10.84,4.81-14.1,14.89-18.44,24.28-1.39,3-2.65,6.09-4,9.14a7.36,7.36,0,0,1-2,2.1c-1.37,1-2.81,2.71-4.59,1.27-1.38-1.11-.53-2.85-.21-4.39.72-3.45,3.63-6.83.57-10.47-.72-.85,0-3.09-2.38-2.43-1.86.52-3.32,1.26-3.21,3.49a9.91,9.91,0,0,1-1.59,6.7c-1.41,1.9-3,4.07-5.67,1.84-1.92-1.59-2.65.18-3.9.95-5.28,3.24-7.67,9.31-12.69,12.8a2.41,2.41,0,0,1-2.37-.59c4.85-7.13,9.47-14.43,16-20.28,1.87-1.68,4-3.22,5.37-5.29,8.6-13.35,20.28-24.75,26.44-39.55C877.91,396.7,883.66,390.22,886.14,382Z"
            fill="#896a4d" />
        <path
            d="M782,914.17c2.51-2.33,4-3.63,7.74-.22,4.24,3.87,9.47,6.58,12.43,11.91.85,1.53,2.89,1.92,4.61,2.28s3.6,1.34,4,3.06c.95,4.17,3.79,5.47,7.55,5.94,2.56.32,4.1,2,5,4.33,1.4,3.57,3.2,5.92,7.33,2.74,2.85-2.19,4.61-.38,5.91,2.21,2.5,5,5.81,7.6,11.83,9.44,6.51,2,14,3,19.61,7.78,2,1.69,4,.88,6.11,1-.25,3.06-2.47,5.21-3.52,7.89-2.91-.18-1.52-4-3.67-4.39-4.36,6-2.8,13.36-5.44,19.84l-.9-6.25c-1.75,0-1,2.48-2.81,2.61-1.16-3.87.1-7.81,0-13.18-1.8,3.91-3,6.51-4.18,9.09-1.67-.55-.89-2.16-2.06-3.24-1.55,3.17-4.48,5.45-4.44,10.56L838.23,975c-3.17-3.14-6.72-5.89-9.49-9.44-2-2.58-4.55-4.11-8-3.82-5.22.42-7.91-3.44-10.71-7.19-2.13,1.5-2.3,4-4,5.25-2.22,2.17-4.52,3.38-7.16.61-1.88-2.36-1.54-5-1.12-7.74,1.24-8.13-.93-12.42-8.17-16-3.24-1.61-5.51-3.9-5.82-7.41C783.29,924.18,779,919.59,782,914.17Z"
            fill="#d4a76f" />
        <path
            d="M894.81,796.89c3.64-.67,7-.32,9.51,2.78,3.4,2.79,3.5,6.8,4,10.67a16.79,16.79,0,0,1-.44,2.63,9.64,9.64,0,0,1-1,3.36c-4.39,3.52-8.83,5.13-15,4.09-5.14-.88-10.26-.5-14.59-4.23-2.23-1.91-4.76-3.38-5.33-6.59a4.45,4.45,0,0,0-2.87-3.45c-9.82-3.7-17.44-10.91-26.23-16.26-.71-.34-1.55-.94-2.2-.67-8.09,3.46-15.63-.79-23.41-1.57-4.95-.5-8.56-3-11.83-6.73-5.09-5.85-10.7-11.21-12.85-19a6.84,6.84,0,0,0-3.32-3.94c-6.21-3.72-11.39-8.8-17.16-13.1-3.82-2.85-4.55-7.41-4.72-12,5.88-1,10.17,2.21,13.5,6.13,5.09,6,10.25,10.82,18.8,11.34,4.51.27,7.72,3.09,9,8.45,2,8.22,13.46,13.49,22,11.06,6.47,3,10.94,8.61,16.84,12.43a81.61,81.61,0,0,0,27.22,11.49c4.87,1.07,9,4.59,14.29,4.74C891.34,798.61,893.27,798.8,894.81,796.89Z"
            fill="#c29162" />
        <path
            d="M831.73,670.47c-2,10.62-9.81,17.25-17.11,23.93-4.36,4-10.93,3.66-16.57,5.05-6.06,5.74-7.71,5.22-12.81-2.05-4.16-5.91-4.92-13.4-9.59-19-1.29-1.57,1.09-2.52,2-3.64,9.4-5.9,16.46-13.71,20.17-24.32.57-1.64,1.28-3.37,3.5-3.45,1.77.49,2.11,1.94,2.34,3.46a8.2,8.2,0,0,1-.22,2.61c-.89,3.15-2.48,6.05-3.63,9.5,6.21-1.89,11.36-4.56,14.87-9.85,1.27-1.9,2.78-4,5.71-3.12a7.22,7.22,0,0,1,2.8,2.07c2.8,3.41,5.05,2.94,7.14-.76.82-1.45,1.72-3.44,3.94-2.53,1.83.74,2,2.7,2.33,4.43C838,659.5,836.52,665.44,831.73,670.47Z"
            fill="#55301e" />
        <path
            d="M627.38,502.47q.79,2.83,1.61,5.69c2.74,5.9,8.32,9.33,12.35,14.11a33,33,0,0,0,4.33,5.48c3.25,3.43,2.79,6.3-1.6,8-3.16,1.19-6.67,1.15-9.65,3.3-1.64,1.19-3.15-1.31-4.91-1.56,1.85,1.56,1.91,3.28.41,5.08-2.19,2.6.35,4.2,1.23,6.19.75,1.7,2.55,3.82.8,5.3-2,1.67-4-.17-5.59-1.64a22.73,22.73,0,0,0-3.7-2.82c-5.16-3.06-5.24-3.59-1.55-9-5.25,1.16-9,.16-10.49-5.47-.77-2.86-2.88-.19-4.37-.28-4.35-.53-4.45-4.2-5.34-7.26-1-3.48-1-6.39,3.4-7.69,2.22-.66,1.1-3,1.23-4.58a24.88,24.88,0,0,0-.41-6.89,3.91,3.91,0,0,1,0-1.74c4.08-9.77,8.21-19.54,12.88-29.05,2.47-1.37,4.29-1.37,3.76,2.18-.46,3.11-2.06,5.84-3.43,8.64,3.52-8.21,8.56-15.84,9.55-25a5.59,5.59,0,0,1,1.46-2.2c1.39-1,2.79-2.45,4.58-1a5.13,5.13,0,0,1,1.08,6.37c-2.21,4.4-2.7,9.19-4.08,13.77C628.61,487.58,626,494.7,627.38,502.47Z"
            fill="#2d1d15" />
        <path
            d="M606.6,534.17c1.52-.58.57-3.47,2.78-3.18,1.47.2,2.21,1.75,2.53,3,1.06,4.15,2.15,7.62,7.76,5,1-.46,3.88-.27,4.21,2,.25,1.78-1,2.4-3,2.6-2.36.23-2.08,2.9-.59,3.16,4.7.84,6.76,5.41,12.25,8.15-2.1-3.74-2.08-6.49-4.91-7.88s-.77-3.39.12-4.27c2.1-2.07,2.9-3.43-.3-5.1-1.12-.58-2.46-1.83-1.14-3.3,1.5-1.68,2.48.19,3.29,1,2.67,2.64,5.15,4.6,7.6-.17,1-1.89,2.13-.88,3.37-.22,2.92,1.57,4.43-1.23,5.78-2.59,2-2-1-2.83-2-3.87-1.66-1.69-2.3-4.26-3.22-6.46,2.77,2.59,5,3.49,7.9,4.89,2.31,1.13,4.54,2.73,6.84,4.09a33.14,33.14,0,0,0,7.47,5.12c-.38-1.41-1.4-2.77,0-3.85,1.14-.9,2.25-.32,3.14.47,1.89,1.67,3.94,3.15,5.3,5.38,2.42,4,6.52,5.53,10.74,6.31,2,.37,5.11,1.42,5.47-3,.21-2.54,2.66-1.78,4.13-.78,2.34,1.59,4.51,2.29,6.79,0a3.77,3.77,0,0,1,4,2.59c-.49,3.73-3.41,5.09-6.39,6s-6.1,2.25-9.12,1.86c-5.48-.71-8.69,3.32-12.95,5.12-1.74.73-.08,1,0,1.39s.53.64.54,1c.07,2.55-8.67,8.82-11.1,8a5.85,5.85,0,0,1-3.46-3c-3.77-7.49-4.45-8.2-11.9-12.59.13,4.21-2,6.55-6.72,7.35,4.87,5.1,9,9.93,13.79,14a79.33,79.33,0,0,1,8.08,8.43c.9,1,1.85,2.23,1.19,3.67-.89,1.93-2.53,1.34-4,.89a8.77,8.77,0,0,1-3.29-2.62c-6.44-7.27-14.07-13.27-21.16-19.86-4.15,2.29-6.54-1.08-9.42-2.91a.62.62,0,0,1-.45-.7c.39-2.65-.44-3.94-3.35-4.76C615.48,552.47,606.69,541.23,606.6,534.17Z"
            fill="#422e21" />
        <path
            d="M677.9,817.62c-9.6-3.41-19.32-5.88-29.69-5.12a34.37,34.37,0,0,1-14.28-2.4c-12.17-4.48-25.16-1.26-37.51-4.13a84.58,84.58,0,0,1-11-3.27c-5.87-2.22-12.45-2.49-18.46-4.44-14-4.54-27.68-1.49-41.37,1.28-3.32.68-6.6.3-9.89.47-2-1.45-4.49-.9-6.71-1.5-1-.27-1.94-.44-2-1.65s.69-1.76,1.6-2.2a5.82,5.82,0,0,1,3.4-.7c6.91,1.15,12.9-2.18,19.3-4-7.29.42-14.69,2-21.4-2.26a3.2,3.2,0,0,1-.05-1.79c2.61-4,6.59-5.69,11.05-6.61,6.59-.73,13.31.19,19.83-1.62,2.5-.7,4.53.54,6.48,2a38.49,38.49,0,0,0,27.35,7.76c6-.54,11.71,2.22,17.83,2.54,9.57.5,19.14-.94,28.67.52,2.52.39,5.08.36,7.19,2a1.56,1.56,0,0,1,.3,1.73c-2.6,2.16-5.56,1.34-8.43.93-5.8-.83-11.57-1.46-17.44.31,6,1.13,11.77,3.58,18,3.81,6.62.23,13.42-.58,17.08,7.2,1.21,2.57,4.8,2.3,7.51,2.49,6.83.48,13.7.72,20.49,1.6,4.81.62,9.62,1.68,12.59,6.21C678.13,817.06,678,817.34,677.9,817.62Z"
            fill="#967c5e" />
        <path
            d="M727,877c2.48-4.95-3.94-7.67-3.07-13,3.37,4,7.64,6.51,9,11.46a14.42,14.42,0,0,0,1.28,2.62c1.63,3.1,3.91,6.31,7.61,4.58,3.45-1.61,1.16-5,.54-7.8-1.82-8.08-3.67-16.14-2.8-24.59.46-4.56-2-8.73-4-12.63-1.75-3.5-3-7.11-4.44-10.65-4.2-10-7.29-20.75-17.29-27.36-4.05-2.68-6.37-8.1-12.5-7.11-.3-2.66,1.33-2.87,3.32-2.61,3.56-3.64,6.42-2.31,9.11,1.17a21.85,21.85,0,0,0,4.33,4.7c9.9,6.95,14.67,16.83,16.6,28.35.3,1.81.62,3.8,1.94,4.79,9.26,6.9,9.62,17.81,12.6,27.5,1.66,5.37,2.83,10.88,4.19,16.34.23.94.68,2,.39,2.86-2.78,7.8-.12,15.18,1,22.84.89,6.13,3,11.49,5.33,17,1.63,3.84,4.15,7.88-.17,11.72a9.69,9.69,0,0,1-4-4.22c-6.38-14.21-17.8-25.32-24.38-39.42C730.63,881.2,727.92,879.73,727,877Z"
            fill="#d7c5a8" />
        <path
            d="M598.4,692.08c-2.95,2.07-4.4,5.11-5.59,8.37-1.51,4.15-3.51,4-5.74.48-3-5.6,1.38-10.39,1.78-15.62.09-1.27,1.19-2.46,1.27-3.84.16-2.66-.72-4.67-3.65-2.88-9.09,5.53-19.8,6.85-29.2,11.54a17.12,17.12,0,0,1-6.74,1.8c-2.06.11-4.16-.16-3.06-3.23,2.83-1.9,5.43-4.7,8.55-5.5,5-1.3,5.6-7.67,10.75-8.31,1.05,1.16-.61,2.1-.28,3.21,10.52-1.22,18.71-8.46,19.57-17.27,3.79-4.32,7.66-8.58,11.34-13,2.2-2.64,6-1.64,8.25-4,6.15-6.51,14.24-9.51,22.4-12.38,10.94-3.86,19-11.11,24.79-21,1.42-2.45,4.1-4.38,6.37-6.58,3.13-3.44,2.63-6.38,3.46-10.06a1.08,1.08,0,0,1,1.59-.26,5.14,5.14,0,0,1,1.17,2.48c.49,4.13-.37,7.82-3.51,10.76-4.4.74-5.71,4.64-7.22,7.82a49.19,49.19,0,0,1-7.49,11.08c-4.43,5.13-10.07,9-13.8,15-2.77,4.44-8.43,5-13.71,5.22-7.82.32-15.22,1.85-19.65,9.43-2.5,4.26-1.87,6.2,3,5.53,10-1.36,20.12,2.54,30.08-.71,3.4-1.11,6.66.39,9.51,2.07,5.28,3.12,5.24,9.82-.28,12.58-4.08,2-6.89,3.84-4.65,9a5.91,5.91,0,0,1-.94,5.6c-2.39,2.56-4.77,5.13-8.51,5.65-6.42-1.91-2-5.56-1.39-8.6,1.35-3.67,4-6.91,3.7-11.12,1.8-6.62,1-7.68-5.46-7.18a7.8,7.8,0,0,1-1.67-.14c-6-1.24-12-3.4-18.13-.9a28.43,28.43,0,0,1-4.41,2.3c-5.35,2.9-6.75,5.65-5.15,11.2.62,2.15,1.28,4.27,0,6.13-2.51,3.64.65,3.3,2.53,3.92A1.16,1.16,0,0,1,598.4,692.08Z"
            fill="#bf9062" />
        <path
            d="M921.75,253.18c-1.62-.17-3.73.92-4.57-1.41-.74-2.07,1.06-2.16,2.29-3.09,1.64-1.24,1.25-4-.12-5.19-7.71-6.49-6.62-16.4-9.87-24.59-3.34-8.42-3.24-17.67-2.25-26.35a43.26,43.26,0,0,0-1-15.42c-1.19-5.16-.76-10.69-.5-16.13,4.08,5.68,1.24,12.91,4.74,19.31,1.68-8,.66-15.49.38-23-1.07-4.3-1.56-8.76-3.94-12.68-2.15-3.56,1.66-7,.33-10.61-2-2.14-1.59-4.64-.84-7s.11-3.74-2.06-4.62c-3.78-.5-2.42-3.43-2.68-5.6a6.46,6.46,0,0,1,.47-1.72c3.25-3.24,3.45-3.16,5.61,2.4l0-.06c3.6,13.29,9.3,26,11.23,39.78.37,2.64-1.32,5.44.71,7.86,2.49,4.33,1.12,9.11,1.55,13.67.5,5.19.64,10.41.94,15.61-3.37.44-2.8,2.79-2.88,5.23-.39,11.33,4.43,21.68,5.92,32.65,1.4,10.27,4.15,20.28,5.93,30.48a12.4,12.4,0,0,1,.39,4.65c-.5,2.39-2,2.41-3.24.85-1.78-2.32-2.48-5.14-3.1-8.07-1.87-8.91-3-18-5-26.16C920.39,240,924.71,246.21,921.75,253.18Z"
            fill="#6d5645" />
        <path
            d="M782,914.17c0,5.92,3,11.15,3.75,16.93.31,2.45,2.57,3.4,5,4.24,7.24,2.52,11.22,10.11,8.75,17.16a11,11,0,0,0,.23,7.78c1.64,3.93-1.65,4.52-3.82,4.52-3.2,0-4.39,1.57-5.17,4.12-11.26-10.27-18.88-23.22-26.72-36,5.49,1.41,11,2.67,16.46,5.17-.15-.66-.11-1.45-.41-1.62-9-4.83-11.53-14.94-17.83-22-3.3-3.71-2.7-9.15-.59-13.77,1.15-2.52,3.49-2.79,5-.42,1.68,2.62,3.85,3,6.51,2.62C776.24,906.51,779.82,909.78,782,914.17Z"
            fill="#d1aa7e" />
        <path
            d="M778.77,675.41c.58,1.33-5.6,2.23-.27,3.84a2.45,2.45,0,0,1,1.89,2.55c.22,5.26,3.15,9.44,5.62,13.77,4.27,7.53,4.32,7.5,12,3.88-1.46,1.79-1.51,4.42-3.52,5.89-.33,6.45,4.25,11.19,6.06,16.91a38.84,38.84,0,0,1,1.69,4.87c2.63,5.71,9.3,8,11.76,13.88,1.39,3.36,2,7.08,4.75,9.85a7.8,7.8,0,0,0,3.22,2.36l-.07,0c.77,1.19,3.25,1.66,2.23,3.49s-3.12,1.27-4.67.49c-4.56-2.28-8-6-11.43-9.6-2.53-5.74-7.76-9.25-12.11-13.23-4.85-4.45-9.77-8.85-14.54-13.41a6.65,6.65,0,0,1-1.69-3c-1-5-4.27-8.73-7.21-12.54-3.3-4.3-5.77-8.76-6.09-14.25-.23-4.07-2.06-5.75-6.12-4-3.54,1.18-7.22,1.84-10.77,3-3.3.86-6.72.56-10.07,1-4.79-.17-9.55-.79-14.37-.52-2.33.13-4.63-.25-6.14-2.41-1.12-3.13.46-4.59,3.3-5.17a18.59,18.59,0,0,1,5.62-.21c8.68,2.52,17.18,1,25.65-1.16A20.72,20.72,0,0,1,758,680a144.83,144.83,0,0,0,14.23-4.33C774.35,674.9,776.53,673.88,778.77,675.41Z"
            fill="#62402d" />
        <path
            d="M826.85,469.7l2.53-.07c3.22.74.87,2.43.26,3.1a47.61,47.61,0,0,1-6.92,6.31c-3.59,2.64-7.73,4.61-9,9.54-.45,1.72-2.65,2.18-4.13,3.1-1.85,1.15-3.49,2.5-4.15,4.86,1.47,1,3.94-1.72,4.86,1.2.16,2.55-1.24,4.31-3,5.91-1.23,1-2.55,2-3,3.55-1.75,6.13-7.78,3.82-11.63,5.79-1.3.67-2-1.48-1.43-2.92a10,10,0,0,1,4.37-5c-7.19,3.74-14.92,6.48-21.15,11.58.53.25,1-.56,1.56-.9,1.48-.87,3-1.34,4.12.31,1,1.44-.14,2.54-1.1,3.54a10.89,10.89,0,0,1-2.3,1.8c-6.91,3.45-15,4.69-20.44,10.93-.94,1.08-2.82,1.57-3.77.7-3.7-3.39-5.06-.61-7.55,1.83a57.79,57.79,0,0,1-14.9,10.23,69.28,69.28,0,0,0-8,4.84,36.23,36.23,0,0,0-9.58,5.31,7,7,0,0,1-3.49.63c-1.22-.19-2.35-.52-2.71-1.92,1.87-3.57,5.6-4.74,8.69-6.74,2.68-1.37,5.9-2,6.38-5.94.19-1.53,2.1-2.2,3.44-2.94,8.66-4.77,16.25-11.21,25-15.9a3.66,3.66,0,0,0,1.87-2.12c.06-3.81,1-7.22,4.52-9.32,9.34-3.7,19.25-6.42,27.86-11.38,8.44-4.86,17.08-9.77,24.53-16.35C814.27,478.26,822,475.93,826.85,469.7Z"
            fill="#8b6a4c" />
        <path
            d="M943.1,256.75a7.24,7.24,0,0,1-1.25-7.71c5.49-13.81,5.4-28.94,10.47-42.81,1-2.88,3-5.54,1.45-8.9-3.73,3.2-2.73,8.81-6.16,12.13,3.06-10.77,5.39-21.81,9.89-32.08,5-11.39,8.88-23.15,13-34.85,1.84-5.28,3.84-10.5,5.77-15.74l.66.44a7.6,7.6,0,0,1,.41,7.22c-1.1,2.39,1,2.78,1.71,4.07.68,5.56-2.51,10.11-3.92,15.12-.51,1.8-2.16,3.48-.05,5.26,1.29,2.72.06,5.16-.94,7.57-.81,1.93-1.87,3.75-.57,5.85a69.75,69.75,0,0,1-8,23.48c-2.2,3.84-3,7-.67,10.7-1,6.67-2.62,13.23-3.62,19.9a10.75,10.75,0,0,1-4,6.88,8.41,8.41,0,0,0-3.25,4c-.57,1.43-1.43,3.27-3.3,2.46-1.65-.72-1.28-2.67-.92-4.21A21,21,0,0,1,951,231c1.64-3.36,6.37-5.71,2.48-10.72-1.26-1.63,4.87-3.4,1.55-6.7-2.9,10-5.78,20-6.66,30.47C946.25,248.16,946.63,253.27,943.1,256.75Z"
            fill="#998266" />
        <path
            d="M721.76,620c.67,1.67,1.45,2.95,3,.63,1.74-2.69,3.25-5.58,6.15-7.3,4-.68,8-2,12.19-1.21,0,2.06,0,2.06-2.66,2.26a5.55,5.55,0,0,0,4.51-.44c5.12-2.57,10.72-1.43,16.09-2.07,1.79-.21,3.93.47,4,2.53.1,2.29-2.3,2.21-3.92,2.53-2.29.45-4.66.36-7,.73a6.84,6.84,0,0,0-5.46,3.89c-5.24,3.16-10.51,6.28-15.44,9.93-7.47,1-8.65,2.5-8.41,10.49-1.94,4.46-7.37,5.34-9.69,9.4-.59,4.08-1.37,7.8-5.75,10-3.67,1.83-1.46,6.53-3.4,9.42-2.87,3-4.9,2.55-6.41-1.35a23.72,23.72,0,0,1,9.13-27.91,19.92,19.92,0,0,0,2.39-1.7,16,16,0,0,0,2.81-3.08c-3.41,2.74-7.69,2.81-11.62,4-2.32,1-4.12,2.9-6.55,3.71-3.61.38-4.69-1.51-2.36-3.9,2.87-3,3.37-6.27,3.78-10a11.32,11.32,0,0,1,7.82-9.95,15.82,15.82,0,0,0,5.72-3.84c1.93-.7,3.62-.18,4.31,1.68.8,2.15-1.14,3-2.58,3.93-1.72,1.12-4.11,1.37-5,4.22,3.91,1.05,7.6-2.74,11.44-.46.61.37.87-1.36,1-2.31C719.94,622.3,718.92,620.1,721.76,620Z"
            fill="#8d5c3f" />
        <path
            d="M721.76,620a2.72,2.72,0,0,0-.66,3.69c1,1.89.7,3.3-.87,4.63-2.06,1.75-2.52-.69-3.7-1.32-2.53-1.34-4.55.43-6.35,1.61s-3.06,1.16-4.32-.69-.46-3.35,1.16-4.38c1.3-.83,2.83-1.29,4.21-2,1.16-.6,3-.82,2.95-2.41s-1.94-1.6-3-2.29a12.42,12.42,0,0,1-12.09,3.38c-3.43-.79-6.87.38-10.31.54-3.43.41-6.43-1.59-9.77-1.72-1.55-.08-3.11-.1-4.44-1.06-1.51-3.05.35-4.28,2.83-5a11,11,0,0,1,4.64.1c6.51.84,8.14-.76,6.2-7.23-2.61-8.75-2.29-18-5.19-26.69-1.51-4.54-.43-9.23,1.22-13.69a61.94,61.94,0,0,1,24.87-10.68l3.39-.29c1.17-.39,1.5.27,1.57,1.26a3.85,3.85,0,0,1-1.55,2c-6,2.61-12.35,4.61-17.9,8.31-1.88,1.26-3.6,2.28-2.12,5,1.19,2.21.33,4.6-.34,6.8-.83,2.71-.34,5.3-.09,8,.39,4.16,2.31,4.88,5.79,3.49,1.86,3.39,1.06,7.45,2.33,11.09,2.61-.76,1-3.48,2.7-4.3,1.36.86,1.29,2.28,1.38,3.61.37,5-.77,5.9-5.5,4.29-1-.34-2.19-1.64-2.84.06a7.84,7.84,0,0,0,.36,6.2c.69,1.47,1.8.8,2.91.26,3.78-1.85,7.26-3.91,7.58-8.73,3.21.63,4.42-2.83,7.3-3.64,1,2.85-1.67,4.72-1.54,7.12,6.39-.09,11.41-3.75,16.63-6.93C728.32,606.12,724.45,612.84,721.76,620Z"
            fill="#48301f" />
        <path
            d="M743.89,612.88l-13,.42c3.16-2.22,6.92-2.28,10.52-2.79,17.57-2.52,35.13-3,52.75-.22,8.56,1.34,11.68,5.52,11.53,17-1.59,3.89-.15,8.15-1.5,12.08-.93,2.73-.9,5.84-3.29,8-1.85,4-3.49,8.11-5.62,12-3.85,7-9.73,12-16.48,16.1L758,681.5c-1-3.65,1.63-4.58,4.16-5.52,3.09-1.14,6.17-2.23,7.17-5.87a7.15,7.15,0,0,1,2.86-2.83c5.15-3.44,6.56-8.5,3.64-13-3.54-5.53-10.43-7.37-15.69-4-3.2,2.08-6.17,4.44-9.86,1,2.33-6.27,7.25-9.57,13.32-11.56,4.61-2.07,9-.44,12.85,1.68,5.4,3,11.63,3.15,17,5.91,1.42.73,2.26.21,2.66-1.13,1.26-4.22,4-8.19,2.75-12.89-1-3.64-1.35-6.85,2.67-9,1.84-1,1-2.68.33-4.12-2-4.47-5.56-6.26-10.22-5.86-3.88.33-7.63-.89-11.48-.58-1.83.14-3.67.2-5.5.23-2.52.11-4.93-.77-7.44-.74-1.61,0-3.08-.66-4.63-.93-4.73,0-9.48-.46-14.12.94A4.22,4.22,0,0,1,743.89,612.88Z"
            fill="#b6754e" />
        <path
            d="M955.46,310.35c-3.88-1.83-3.15,3.62-5.83,3.68-1.88-1.78-2.26-4.14-2.55-6.53,1-5.16,3.61-10.15,1.72-15.63a5.2,5.2,0,0,1,.29-1.61c2.52-4.48,5.76-8.74,4.64-14.4a7.16,7.16,0,0,1,.49-1.55c1.39-2.4,2-5.12,3-7.66,5.82-13.94,7.4-28.93,10.8-43.46a246.88,246.88,0,0,1,15.64-50c1.29-2.58,2.28-5.32,3.66-7.85.73-1.34,1.61-3.18,3.3-2.7,2.46.69.57,2.48.35,3.79-.18,1.13.18,2.33-.44,3.39-4,12.95-7.76,25.95-11.92,38.83-5.16,16-9.77,31.92-10.88,48.88-.62,9.62-3.78,19.08-5.82,28.61-.53,2.46-1.14,4.91-1.71,7.36-1.26,2.05,1.47,3.39,1,5.32C959.4,302.75,961.11,308.37,955.46,310.35Z"
            fill="#463a32" />
        <path
            d="M990.53,169.84c-.9-2.08.08-4.11-.37-6.46l-5.4,10.16c-2.77-5.14.8-9.19,2.08-13.66-3.39,8.78-5.25,18.11-9.05,26.77-1,2.25-1.55,5.1-5.15,4.22-2.14-3,1.16-6,0-9,.83-5.89,4.31-11.38,2.62-17.64,4.38-9.87,6-20.61,9.83-30.66,3.29-3.8,2.6-8.75,3.93-13,2.45-8-.09-15.34-.54-23a18.75,18.75,0,0,0-2.45-7.72c-1.6-3-1.61-6.39-2.1-9.67a121.92,121.92,0,0,0-6-23.83c-1-2.87-2.64-5.76-1.47-9,4.09-1.34,3.3,2.71,4.74,4.29C988,65.3,989.75,80.43,994,94.86a62.19,62.19,0,0,1,2,13.2c.17,2.51.49,5,2.29,7h0c-.67,7.88,1.77,15.77,0,23.65C996.88,149.41,994.74,159.88,990.53,169.84Z"
            fill="#69594e" />
        <path
            d="M750.11,688.88A27.37,27.37,0,0,1,760.62,686c4.8.06,3.75,4.07,4.63,6.79-.21,1.72-1.65,3.39-.84,5.11,3.46,7.29,4.74,15.91,12.22,20.82a20.57,20.57,0,0,1,5.85,6.43c2,3.05,3.66,6.58,7.59,7.82,2.68,1.53,4.73,3.83,7.08,5.75,13.83,11.93,27.78,23.69,43.17,33.64,4.53,2.93,8,7.51,13.65,8.69a7.45,7.45,0,0,1,2.22.65c11.25,7.76,24.67,9.8,37.21,14.13a5.52,5.52,0,0,1,1.4,1c.45,3.28-.29,4.47-4.1,3.52-12.79-3.19-25.41-6.91-37.21-12.75-8.52-4.21-15.74-10.45-22.51-17.11a52.3,52.3,0,0,0-16.46-7.25,8.18,8.18,0,0,1-5.95-5.21c-2.2-6.44-7-10-12.94-12.52a59.46,59.46,0,0,1-28.48-25.11c-3.91-6.58-7.67-12.9-9-20.62A15.71,15.71,0,0,0,750.11,688.88Z"
            fill="#986d4e" />
        <path
            d="M597.53,451.15l4.77,22c2.85,1.51,4-.88,4.91-2.55,1.84-3.4,4.29-6.42,5.91-9.93l19.6-35a61.63,61.63,0,0,0,3.5-5.36,2.1,2.1,0,0,1,3-1,1.91,1.91,0,0,1,.79,2.55c-4,7.66-4.35,16.51-7.79,24.35a3.47,3.47,0,0,1-1.67,1.56c-1.06.51-2.22,1-2.64,2.18-3.16,9-10.15,16.15-12.8,25.44-.48,1.7-1.4,4.13-3.29,3.4-5-1.93-4.53,2-5.94,4.5-2.48,4.46-1.34,10.76-8,13.34-2.46.95-.29,6.19-1,9.42-1,2.87.55,6.32-2,8.81-4.5-9.52-3.33-19.85-3.89-29.85-.64-11.6-3-23.21-.64-34.87,4.47-3,3.85,1.32,4,3.18.47,4.82-.78,9.71.46,14.54a62.14,62.14,0,0,1,1.5,16.12c3.37-8.72-2.93-17.16-1.82-26.18C594.81,455.41,593.89,452.19,597.53,451.15Z"
            fill="#907354" />
        <path
            d="M547.47,688.7c3.09,4.94,6.88.92,9.35-.15,4.28-1.85,8.36-3.92,13-4.41,5.56-.58,9.36-5.17,14.76-6.31,2-.43,3.9-3.69,6.06-1.29s1.39,5.23.4,8.2c-1.76,5.27-4.38,10.38-4,16.19-3.59-3.59-6.17-8.49-12.6-8.06-1.89.13-3.27.18-4.53,1.58-2,2.21-4.35,3.13-7.29,1.88-1.84-.79-3.16-.15-4.58,1.31-5.23,5.36-11.19,8.12-18.63,4.33-2.47-1.25-4.82-.6-7.31.29s-5.18,1-5.22-2.93l4.48-2.66a48.87,48.87,0,0,0,5.81-3.6A21.15,21.15,0,0,1,547.47,688.7Z"
            fill="#cda271" />
        <path
            d="M960.37,298.05c-.65-1.49-2-2.95-.17-4.53,1.09,4.4,2.61,1.47,3.17,0,1.41-3.78,2.49-7.69,3.52-11.6,2-7.62,4.13-15.2,8-22.13a23.08,23.08,0,0,0,3.65-7.07c1.7-5,1.84-5,6.23-1.37a13.31,13.31,0,0,1,1.06,9.07c-2.37,8.18-1.74,16.78-4.06,24.92-.85,3-.48,6.14-.72,9.21-2.14,6.12-6.26,11.48-6.92,18.18a3.68,3.68,0,0,1-2.92,3.22,3.14,3.14,0,0,1-1.67-.34c-2.28-4.54,1-9.62-1.82-14.31-2.49,3.66-1.32,8.43-3.18,12.29a6.9,6.9,0,0,1-2.41,3.15c-1.15.78-2.43,1.41-3.75.62s-1.22-2.33-.82-3.63C959.16,308.59,959.45,303.26,960.37,298.05Z"
            fill="#947b61" />
        <path
            d="M485.76,722.59c.66-2.28,2.74-2.78,4.55-3.62,9.57,3.85,10.8,12.15,10.42,20.75-.29,6.35,1.07,12.68-.42,19.1-.78,3.39-.79,6.84-3,9.85s-.58,3.89,2.53,4.21c5.35.54,10.34-1.81,15.62-1.56a9.76,9.76,0,0,1,3.75.58c4,2.31,2,3.78-.74,5.08-3.38,1.62-7.5.34-10.68,2.76A39.14,39.14,0,0,1,480,780.85c-.67-.21-.72-.83-.86-1.38,2.42-2.56,5.67-1.69,8.6-2.09a44,44,0,0,0,8.47,0,51.09,51.09,0,0,1-8.34-.17c-7.42-1-10.26-6.29-6.34-12.86a125.47,125.47,0,0,0,6.38-12.49c3.69-8.1,5.95-16.23-1.12-23.94C485.46,726.5,484.43,724.66,485.76,722.59Z"
            fill="#b68d64" />
        <path
            d="M485.76,722.59a8.28,8.28,0,0,0,2.2,4.68c5.53,7.15,6.52,17,1.83,24.73-2.81,4.63-4.4,9.83-7.76,14.25-2.87,3.78.31,8.31,5.11,9.34,5.3,1.14,10.68.09,16,1.16-4.61,2.39-9.62,1.6-14.41,2.19-3.14-1.93-6.87-.6-10.22-2-5.93-2.56-7-4.4-4.69-10.26a48.21,48.21,0,0,1,2.57-5.26c2.52-4.55.32-8.12-4.84-7.93-.78,0-1.54.32-2.32.36-1.39.08-2.95.17-3.4-1.51-.53-1.92,1-2.78,2.4-3.51,2-1,4.18-.9,6.28-1.27,4.62-.81,9.38-1.32,13-4.71,1.88-1.74,3-4.1,1.34-6.26-2.11-2.71-3.61.17-5.27,1.22-4.56,2.88-8.73,6.44-14.5,7-4.78.47-5.74,4-5.57,8.11.1,2.6,1.77,5.38-.72,7.75-5.35-12.93-3.17-19.39,7.44-27.17C475.35,729.72,480.77,726.46,485.76,722.59Z"
            fill="#7d614f" />
        <path
            d="M805.49,958.82c1-2,2.91-3.7,1.82-6.68,1.34.5,2,.55,2.35.9,4.47,4.33,8.7,7.75,16,7.94,4.34.11,6.34,7.84,11.16,10.23,1.89.94,1.89,2.15,1.46,3.75.19,4.09.19,8.2.63,12.26.42,3.91-1.5,7.5-.12,12.78-6.79-7.32-2.49-14.76-4.12-21.28-4.83,4.47-4.13,10.69-5,16.37-3.64-.23,0-11.06-7.91-4.54a85.42,85.42,0,0,0-8.82-22.35C809.91,965.49,804.21,964.91,805.49,958.82Z"
            fill="#c39160" />
        <path
            d="M883,956c-.17-1.69.27-3.51-1.6-4.72-5.43-3.5-7.9-9.55-12.06-14.15-5.22-5.77-3.69-12.88-4.34-19.84,7.16,2.37,14.16,4,17.31,11.8,1.53,3.75,5.76,5.14,8.79,7.46,1.93,1.49,1-1.39,1.46-2.28,5.09,11.12,4.71,23,5.27,35.58-2.1-2.63-.9-5.23-1.87-7.56-.43,1-.78,1.76-1.35,3.06-3.6-8.15-4.94-16.88-10.09-24.56-3.7,6.28.91,11.92-.3,17.5C882.54,958.18,882.33,957.31,883,956Z"
            fill="#e1c9a6" />
        <path
            d="M462.81,760.63c1.13-3.68-1.38-7-.84-10.89.51-3.64,2.06-5.42,4.95-6,4-.88,7.7-1.83,11.22-4.42,1.38-1,3.59-1.68,5-3.18,1.93-2.07,4.35-4.69,6.75-1.89,2.25,2.62,2.78,6.38-.55,9.35-4.47,4-10,4.93-15.64,5.58-2.61.3-5.49-.12-7.14,2.77,1.88,2,3.44.19,4.83-.29,4.74-1.64,5.86,2.86,8.19,4.86s-.71,3.59-1.67,5.3a73.81,73.81,0,0,0-3.63,7.22c-1.17,2.77-.34,4.47,2.66,5.89,3.81,1.8,8.63.5,11.76,4.05l-9.3.54c-1.8.57-3.24-.57-4.84-1l-1.36-1.07c-3.24-2.65-7.08-4.72-8.56-9Z"
            fill="#614b3d" />
        <path
            d="M980.4,294.77c-1.07-3.91-2.08-7.81.74-11.49.44-.59,1-1.48.82-2.08-2.44-10.27,5-19.85,2.06-30.13-2.42-7.49,1.13-13.5,4.85-19.46,4.33-.45,3.39,2.6,3.33,5-.2,8.73-2,17.25-3.7,26.86,0-.3,1.41-1.19.67-.94-.19.06-.29-.12-.23-.54,1.34-8.45,3-16.85,3.49-25.43.1-1.81,0-4.67,3.5-3.72-.55,18.81-5.55,37-7.67,55.61a66.15,66.15,0,0,1-4.79,19.06,4.92,4.92,0,0,0-2.26,1.72c-1.18,1.19-2.27,3.44-4.17,2.28-2.36-1.44-1-3.86-.24-5.76C978.24,302.2,982.39,299.5,980.4,294.77Z"
            fill="#796551" />
        <path
            d="M515.52,772.79c-5.2.72-10.52,0-15.65,1.79a5.21,5.21,0,0,1-6.17-2.28c-1.16-1.94,1.11-3,2.12-4.33,1.18-1.53,2.46-2.82,2.72-5,1.28-10.91.57-21.84.21-32.75a7.13,7.13,0,0,0-4.26-6.57c-2.23-.9-3.11-2.83-4.18-4.68a4.63,4.63,0,0,1,3.32-1.55c4.93.88,6.55,5.56,8.73,8.8,4.3,6.38,12.3,11,10.69,20.69-.41,2.47-.72,4.58-2.89,6-4.39,2.78-6.41,7.26-8.24,11.76-2.2,5.42-.77,7.26,5.26,7.45a5.41,5.41,0,0,1,3.33-1.58,7.61,7.61,0,0,1,4.6.66A1.22,1.22,0,0,1,515.52,772.79Z"
            fill="#cea87a" />
        <path
            d="M976.92,46.91a260.92,260.92,0,0,1,10.53,42.93c.07,5.26,2.58,10.71-1.33,15.63a1.9,1.9,0,0,1-1.76-.18c-2.36-5.24-1.68-11.29-4.52-16.43-1-1.82-1.38-4-2.64-5.69a15.44,15.44,0,0,0-4.64-5.45c-2.9-11.85-6.5-23.54-7.94-35.71-.32-2.12.87-1.92,1.84-1,1.43,1.4,1.91,3.41,2.34,5.3,1.59,7,6.45,12.69,7.43,18.57,1.18,1.74,1.72.32,1.18.89-.27.28-.5.33-.57.09-3-10.37-7.79-20.24-9.22-31.08,2.77-1.72,3.81.83,4.93,2.28C974.75,40,977.18,42.89,976.92,46.91Z"
            fill="#947f67" />
        <path
            d="M901.09,128.46c2.74,4.13,5.42,8.2-1.38,11.25-1.65.74-1.28,2.67-1.56,4.17-1.44,7.92-2.91,15.84-4.36,23.75-.54-24.7-.45-49.41-4.53-73.93-.77-4.6-1.18-9.13-3.19-13.4-.54-1.16-1.46-2.75,0-3.65s2.5.74,3.23,1.75a116.39,116.39,0,0,1,15.14,28.77c-.17,1.09-3.72-1.22-2,2.13a6.56,6.56,0,0,1,.21,6.11h0c-1.22,2.15.31,4.61-.75,7.14a4.18,4.18,0,0,1-3.74-4.93c.59-5.81-.48-11.2-2.67-14.72,4.5,6.41,2,14.94,1.2,23.34a35.61,35.61,0,0,0,0,8.19c-.35,3.68-2.08,7.27-1.08,11-.9-3.94.52-7.57,1.76-11.22C898.53,132.22,898.59,129.58,901.09,128.46Z"
            fill="#9f8d78" />
        <path
            d="M921.75,253.18c.46-7-2.11-13.79-1.25-21l8.4,36.33,1.6-.37c-1.49-7.36-3-14.71-4.46-22.08-1.63-8.36-2.14-17.12-5.07-25s-2-16.06-3.87-23.88c-.59-2.43,0-4.56,2-5.54s1.46,2.34,3,2.69c-1,21.84,6.59,42,11.78,62.72,1.51,7.75-.6,14.54-5.4,21.44-1-4.72-1.82-8.61-2.64-12.5-2.83-2.1-1.66-5.5-2.67-8.19A6.69,6.69,0,0,1,921.75,253.18Z"
            fill="#504135" />
        <path
            d="M699,541.24c-.7,3.93-2.66,4.36-5.72,2.14-1.3-.94-2.07-3-4.23-2.34-1.24,2,2.92,3.48.95,4.35a12.13,12.13,0,0,1-8.26.49c-4.54-1.62-9.83-2.41-12-8.18-.76-2.05-3.56-3.34-5.6-5.13-1.45,3,3,3.51,1.89,6.47-4-2.26-9-4.95-11.78-9,1.58,1,1.16-2.94,3.43-4.14,4.39.61,8.81-.89,13.21.2,8,5.24,17,8.31,25.57,12.49C697.09,539.71,698.86,539.72,699,541.24Z"
            fill="#8d6847" />
        <path
            d="M980.4,294.77c1.59-.74,2.75-.57,2.38,1.52-.5,2.84-1.07,5.65-3.36,7.8-1.9,1.79-2.43,4.14-2.18,8.37a70.12,70.12,0,0,1,4.53-5.92c1.2-1.22,1.46.11,1.7,1-5.3,13.45-9.5,27.44-19,38.85-1.76-2.14-1.24-4,.86-5.46,4.11-2.85,5.4-7.35,8-12.56-9.69,6-11.92,17.58-23,22.69,4.77-8.13,11-13.49,13.29-21.12.54-1.77,3.88-4.29-.42-5.9-1.05-2.43.78-3.54,2.32-4.55a28.36,28.36,0,0,0,5.41-4.21c3.41-4.74,2.73-11.08,6.28-15.82C978.32,298,978.45,295.76,980.4,294.77Z"
            fill="#695442" />
        <path
            d="M831.73,670.47c2.73-5.7,5.54-11.38,3.81-18.05-.33-1.3-.16-3.08-1.69-3.37-1.87-.36-1.65,1.61-2.21,2.75-2.82,5.65-4.82,5.9-9,1.25-.9-1-1.82-2-2.73-3-.86-.85-2.2-.84-3.06-1.65-3.55-3.35-6-4.14-7.56,1.92-.66,2.55-2.47,7-6.9,2.95l0-2.32a52,52,0,0,1,1.66-13.31c.39-1.53.71-3,2.34-3.65,5.23,4.46,12,3.83,18.12,5.23,7.15,1.64,11.65,5.7,12.88,12.44C838.67,658.57,839.87,666.11,831.73,670.47Z"
            fill="#986243" />
        <path
            d="M805.49,958.82c1.16,3,2.35,5.86,6.2,6.45,1.19.18,1.31,1.72,1.22,2.92-.77,7.62,3.39,14.48,3.21,22.39-7.73-8.25-17.84-13.44-25.43-21.66-1.24-3.67-2.65-7.25,4-5.25,2.38.71,4.57-.45,5-3.39C802.2,962.12,803.71,960,805.49,958.82Z"
            fill="#c19d75" />
        <path
            d="M696.82,796.23c-2.68,4.15-7.32,8-4.91,13.48,2.63,5.95,4.8,12.3,9,17.44,3.42,4.21,5.3,9.3,8.82,13.52,3.15,3.78-1.39,2.83-3.19,3.34-4-5.59-6.51-12.13-11.55-17-2-1.51-2.64-3.67-3-6-.59-4.05-2.49-6.54-7.06-5.19-2.31.68-3.66-.5-4.89-2.13a10.89,10.89,0,0,1-1.26-9c2.05-3.3,4.72-6.16,6.39-9.74a7.81,7.81,0,0,1,7.42-4.89C696.32,790.19,695.78,793.9,696.82,796.23Z"
            fill="#cfc2a9" />
        <path
            d="M968.07,34.42c3.39,11.19,8.24,22,9.12,34-3-6.87-7.49-13-9.56-20.36-.61-2.18-1.36-4.32-2.07-6.46a.87.87,0,0,0-.52.06,2,2,0,0,0-.42.4c-6.39-12.16-10.14-25.32-14.53-38.23-.42-1.22-.75-2.92.92-3.52,2.56-.93,3.91.81,5,2.78,1.68,6.81,5.64,12.65,8.2,19.08C965.8,26.11,969.26,29.55,968.07,34.42Z"
            fill="#a3917b" />
        <path
            d="M594.85,514.93c.42-3.19-.93-6.56.91-9.62,1.75-2.45,5.38.3,7.22-2.69.48-.78,1.73,1,2,2.11.6,2.11-.67,4.1-.58,6.5.24-1.54-.16-3.16,2-3,2.1,3.42-.54,7.28,1,10.82.46,1-.89,2-1.79,2.79-1.22,1.08-5.07-1.57-4,2s-.48,8.7,4.91,10.26c3.75,9.24,6.16,10.88,23.17,22.24l-3.23,3c-6.13-5.3-13.32-9.2-18.4-15.9C601.58,534.86,596.82,525.6,594.85,514.93Z"
            fill="#593f2b" />
        <path
            d="M474.56,778.51c1.77-.47,3.3.27,4.83,1,9.57,2.95,18.94,2.2,28.17-1.43.15-.12.29-.33.46-.35,2.76-.32,6.45-2.1,8,.57,2.28,3.93-2.71,4-4.51,5.85a6.74,6.74,0,0,0-1.17,2,6.68,6.68,0,0,1-.09,1.09c-9,6.68-8.27,9.45-19.61,2.5a15.5,15.5,0,0,0-4.1-2.22C484.8,781.48,478,782.24,474.56,778.51Z"
            fill="#d6c2a2" />
        <path
            d="M486.54,787.48c3.68-1,5.64,2.41,8.54,3.47,3.59,1.32,7,3.09,9.49-1.61,1.22-2.27,4.18-.36,5.68-2.14,7.1,2,14.18,2.62,21.37.28a2.5,2.5,0,0,1,3.3,2.39c.15,2-1.53,1.89-2.84,2.12-8,1.42-15.48,5.51-24.14,3.86,2.06,2.94,6.05,1.26,7.72,4.16C504.1,800.13,494.46,795.8,486.54,787.48Z"
            fill="#bba78a" />
        <path
            d="M631,480.23c.67-4.71-.15-9.45,3.13-13.44,1.35-1.64.79-3.76-.5-5.37-1.65-2.06-2.44,1.07-3.86.8-1.44-2.67.75-4.9.88-7.38a8.83,8.83,0,0,1,1.45-3.16c8-10.72,10.7-23.21,12.13-36.13.84-2.08-.29-5.21,3.13-5.92,1.87,12.19.14,23.89-4.32,35.38C639.35,454.39,632,475.79,631,480.23Z"
            fill="#403025" />
        <path
            d="M647.32,409.63c-2.28,1.5-.16,4.47-2.05,6.11-2.63,12.81-7.55,24.85-12.36,36.94-.34.82-.69,1.65-1,2.47-3.17,2-4.23.18-4.81-2.59a7.77,7.77,0,0,1,2.17-5.42c3.35-3.05,3.11-7.49,4.51-11.31,1.87-5.13,1.16-11.1,5.61-15.44-3.88.28-3.65,4.58-6.63,5.35,1.95-6.05,5.48-11.35,8.26-17,.66-1.35,1.54-3.34,3.79-2.83C646.69,406.33,647.83,407.46,647.32,409.63Z"
            fill="#a48a6b" />
        <path
            d="M854,781.06c-2.45,2.12-4.25.13-6.1-1a104.71,104.71,0,0,1-13.12-9.54c-8.38-7.26-19-11.63-26-20.5-3.41-4.29-9.22-5.89-12.34-10.58,6.39-1.2,8.91,3.83,12.23,7.57,3.76,3,7.46,6,11.31,8.89.93.69,2.49,1.8,3.44.22.31-.51-.9-1.93-1.42-2.93,4-.37,4,3.71,6,5.56a234.31,234.31,0,0,0,21.82,18.35A14.25,14.25,0,0,1,854,781.06Z"
            fill="#7a5640" />
        <path
            d="M998.27,115.1c-2.8-1-3.84-3.49-3.82-6,.06-9.72-4.67-18.47-5.59-27.83-1.05-10.54-5.75-19.81-8.27-29.79a1.93,1.93,0,0,1,.09-2.61C990.21,70,998,91.54,998.27,115.1Z"
            fill="#8e7f72" />
        <path
            d="M699,541.24c-1.2-.54-2.27-1.21-2.51-2.65,6.91-.85,13.69-1.72,20.17-4.94,5.46-2.72,11.48-4.08,17-7,7.08-3.77,12.44-9.53,19-13.81,1.12-.74,1.93-1.94,3.48-1.79a12.15,12.15,0,0,0-3,9.59c-8.3,4.25-15.5,10.44-24.5,13.48-3.51,1.19-7.58-.25-10.69,2.49-4.76,3.06-10.5,3.76-15.42,6.45Z"
            fill="#9e836a" />
        <path
            d="M597.53,451.15c-1.9,5.65-2.92,10.69,0,17,2.66,5.77,1.49,13-.82,19.53-2.83-11-3.68-22.19-3.77-33.49,0-1.36,1.85-5.06-2.6-4,.73-3.62,1.43-7.25,2.21-10.87.26-1.24,1-2.13,2.44-1.93a1.46,1.46,0,0,1,1.34,1.64C595.61,443.21,598.75,447,597.53,451.15Z"
            fill="#a9916e" />
        <path
            d="M980.68,48.86l-.09,2.61c-1.62-1.2-1.18-4-3.67-4.56-2.88-4.21-4.39-9.4-8.85-12.49-3.76-8-7.64-16-11.18-24.06-1-2.19-3.7-4.54-.87-7.32,5,3.7,6,9.87,8.67,14.89C970.21,28.13,976.58,37.92,980.68,48.86Z"
            fill="#7c6f60" />
        <path
            d="M627,560.1c2.35-.1,3.69,2.1,5.77,2.56,7.52,1.65,7.59,1.57,14.11,8.23,3.77,3.85,9.13,6,11.7,11.12-1,2-2.2,3.75-4.91,2.77C645.66,575.59,636.05,568.14,627,560.1Z"
            fill="#614530" />
        <path
            d="M586.06,660.83c1.42.29,2.8.66,1.9,2.6-3.52,7.63-13,18.49-24.66,15.7.33-2.1,3.32-2,3.48-4.24Z"
            fill="#8b6750" />
        <path
            d="M901.74,905.51c0-1-.14-2.73-.08-2.74,7.25-.71,2.41-7.39,5.13-10.27,3.24,15.92,3.05,32.08,2.89,49.7-1.62-9-6.07-16-4.39-24.36a31.4,31.4,0,0,0,.17-5.83C905.49,909.13,905.76,906.09,901.74,905.51Z"
            fill="#d8b284" />
        <path
            d="M913,874.54c1.8-7.91,2.22-15.77-.08-23.73-.61-2.11-3.07-4.48-.41-6.91.73,3.07,1.48,5.5,4.43,8,4,3.35,2.83,9.39,1.84,14.39-.9,4.59-1.93,9.14-2,13.84-.66.68-1,2-2.38,1.37C913,879.39,913.25,876.92,913,874.54Z"
            fill="#dcb382" />
        <path
            d="M989,232.1c-1.73,6.31-5,12.2-5,19-2.37-.78-4.68-2.34-4.88,2.37a7.8,7.8,0,0,1-4.22,6.31c3.94-10.64,7.69-21.37,12-31.89,1.33-3.3,2.55-8.39,8.41-5.48C993.53,225.83,992.59,229.81,989,232.1Z"
            fill="#ad9b82" />
        <path
            d="M989,232.1c2.12-3.22,2.24-7.74,6.28-9.72.51,3.48,1.32,7,.64,10.51-2.13.35-1.87,2-2.08,3.54-1.21,8.79-2.08,17.64-4.34,26.26-.35,1.35-.62,2.62-2.6,3.44a180.86,180.86,0,0,0,4.24-31.37C991.21,233,990.77,232.15,989,232.1Z"
            fill="#947f67" />
        <path
            d="M928,871.17c-.26,5.1-8.53,6.41-5.89,13.14a18.43,18.43,0,0,1-.45-16c2.38-5.29,1.71-10,1.85-15a19.47,19.47,0,0,1,.36-2.34c2.83,2.63,2.7,2.59,1.34,6.83a3.45,3.45,0,0,0,1.23,4.18Z"
            fill="#ddb688" />
        <path
            d="M883,956l1.22,2.29c.72,4.92-.32,9.61-1.91,14.71-4.51-6.34-5.53-13.77-8.76-20.21C877.87,950.41,879.37,956.33,883,956Z"
            fill="#dab07a" />
        <path
            d="M681.33,813.56c1.07.31,1.36,1.81,3.33.91,4.64-2.1,8.07.12,8.6,5.32A50.9,50.9,0,0,0,695,827l-17.06-9.39A1.84,1.84,0,0,1,678,817,25.55,25.55,0,0,1,681.33,813.56Z"
            fill="#a18e6f" />
        <path
            d="M972.56,77.72c2.78.22,5.13.93,5,4.42,3.64,10,1.66,20.27,1.65,30.45-.89,3-.29,6.13-.37,9.2-.06,2,.56,4.43-2.39,5.14l-.21-.14C975.11,110.43,976.67,93.86,972.56,77.72Z"
            fill="#998266" />
        <path
            d="M670.94,526.1a5.91,5.91,0,0,0-2.06.77c-2,4.23-4.44,3.72-7.15.91a5.8,5.8,0,0,0-4-1.88c1.18-2.25.66-3,1.28-4.86.25-2-.38-4.65,2.58-5,2.11-.27,3.42,1.32,4.51,3C667.62,521.46,669.32,523.76,670.94,526.1Z"
            fill="#9e8061" />
        <path
            d="M919.62,165.06a2.78,2.78,0,0,1-1.44-2.94c.54-8.74-2.91-16.68-4.9-24.92-.14-.56-.13-1.3-.49-1.64-5.25-5.07-2.44-12.38-5.11-18.14C914.36,132.62,920.26,148,919.62,165.06Z"
            fill="#796756" />
        <path
            d="M822,753.21c-3.88.36-5.12-3.07-6.13-5.35-2.73-6.22-5.66-12-11.33-16.22-1.7-1.27-2.16-2.52-2.73-6.18a3.76,3.76,0,0,0,1.1,1.75C812,733.92,815.92,744.35,822,753.21Z"
            fill="#7a5640" />
        <path d="M653.66,584.78l4.91-2.77,2.48,2.24c2.92,2.55,5.77,5.13,2.76,9.41h-.58l-.57.13Z"
            fill="#76553d" />
        <path d="M913.77,922.51c3.42,7.76,1.92,15,3,23.27C912.69,937.91,912.4,930.83,913.77,922.51Z"
            fill="#dbb993" />
        <path
            d="M998.26,138.74c-.83-6.11.18-12.41-1.85-18.4-.76-2.26,1.88-3.28,1.84-5.25C999.48,123,1001.47,130.86,998.26,138.74Z"
            fill="#8e7f72" />
        <path
            d="M806.4,634q-2,8.47-4,17c-.18-1.34,0-2.83-1.52-3.6,2-6.57,1.58-13.75,4.78-20.05Q806,630.65,806.4,634Z"
            fill="#75432b" />
        <path
            d="M918.2,816.57c3.69-1.66,4.4,1.09,4.75,3.53.49,3.41.49,6.88.71,10.33-3-.79-1.89-4.3-3.84-5.78C918.53,822.11,918.55,819.3,918.2,816.57Z"
            fill="#ddb688" />
        <path
            d="M902.73,115.41c-.91-3.85-1.82-7.71-2.76-11.71,2.81-.23,1.8,4,4.5,3.47a28,28,0,0,1,3.25,10.31C905.74,117.55,906.52,111,902.73,115.41Z"
            fill="#796756" />
        <path d="M923.59,830.34l3.58,1-.63,10.5C924,838.44,923.84,834.37,923.59,830.34Z"
            fill="#ddb688" />
        <path d="M912.83,806.08c-.82.22-.87,3-2.15,1s-1.77-4.6-2.74-7.31c3.36-.08,5.22.8,5,4.14Z"
            fill="#c29162" />
        <path d="M932.57,821.7c3,3.92,1.15,8.38,1.41,12.6-1.34-4.12-1.41-8.38-1.36-12.64Z"
            fill="#ddb688" />
        <path d="M947.63,209.42c.51,3,.72,6-3,7.29C945.17,214.09,945.74,211.48,947.63,209.42Z"
            fill="#998266" />
        <path d="M537.2,693.07c-.62,3.32-3.2,3.48-5.81,3.6C532.7,694.45,534.41,692.9,537.2,693.07Z"
            fill="#ddb682" />
        <path
            d="M877.8,881c-5.6.36-13.75-5.56-13.74-10.07a6.79,6.79,0,0,1,5.31-6.87c3.7-.91,12.65,9.09,12.73,13.86C882.15,881.17,879.53,880.69,877.8,881Z"
            fill="#e3c8a4" />
        <path
            d="M907.09,830.06l-.66,8.28a79.35,79.35,0,0,1-22,1.29c-4.67-.42-9.33.24-13.29-3.13a6,6,0,0,0-3.29-.83c-6.86-.47-11.18-4.11-12.86-10.91-1.92-7.72-6.9-12.4-14.62-14-4.1-.85-7.88-2.13-10.71-5.36-.8-.91-1.53-1.91-2.89-1.46-8.16,2.76-13.91-2.85-20.42-5.83-1.05-.48-2-1.48-3-1.71-10.44-2.17-17.53-8.63-22.88-17.45-.45-.74-1.75-1.68-2.34-1.49-5.69,1.76-9-3.59-9.59-6.12-1.12-5-4.26-7.52-7-11-1.48-1.91-1.55-6-.6-8.46,1.49-3.86,0-6.12-2.09-8.83-5.7-7.36-9.24-16.19-15.83-23-6.14-6.32-12.1-12.82-18.14-19.24-3.51-4.05-8.5-5-13.31-6.38-2.69-2.22-4.38-3.19-4.84,1.85-.32,3.49-4.38,5.42-4.35,10.09,0,4.84.46,10.35-.6,14.54-1.51,6-3.83,12.8-9.2,17.31a2.69,2.69,0,0,1-3.27.2c-5.88-3.31-9-12-5-17.45,3.79-5.18.4-5.49-2.81-7.06-2.4-1.18-5-.9-7.39-1.53-2-.51-3.66-1.82-3.75-4-.08-2,1.47-3.2,3.27-3.61,2.28-.51,4.42-1.14,4-4s-2-4.3-4.83-5.77c-6-3.12-11.06-3.43-16.57.78-1.91,1.45-4.89.45-6.75-.72-7.85-4.92-14.33-.75-21,2.65-.85.43-1.76.75-2.64,1.13-1-2.34.26-3.7,2.11-4.79,3.26-.78,5.24-3.55,8-5.15,3.47-2.82,8.08-2.8,11.92-4.72,2.91-1.45,6.16-2.11,7.17-6.14.67-2.69,3.83-2.09,6.05-2.63,2.38-.58,5.71-.2,6.39-3.12.64-2.71-2.14-4.35-3.89-6.13a12.39,12.39,0,0,0-7.77-3.81c-6.17-.51-10.85-4.13-16-6.89-1.59-.86-3.38-1.93-3.18-3.86.74-7-.44-14.86,6.86-19.44,5.08-3.19,8-7.81,10.32-13.09,1.4-3.17,2.81-6.5,6.09-8.39,5.77.23,11,1.78,14.85,6.41l4.59.09c-1.3,4.46-5.05,3.81-8.37,3.93-1.71.06-3.71-.79-4.81,1.11-1.19,2.08.44,3.7,1.48,5.28,1.49,2.28,3.31,4.36,4.41,6.89s2.94,3.35,5.45,3.82c6.39,1.18,6.13,1.27,5.34,7.48-.53,4.14.5,8.58-3.94,11.37-.82.52-.66,1.84-.11,2.71,2.46,3.93.71,7-2.44,10.35,3.11-1.22,3.41-3.74,4.52-5.66s1.76-5.19,4.68-4.18c3.12,1.08,1.13,3.93,1,6,1.27-.82,1.73-4,4.16-2.55,1.74,1,.87,3.22.6,4.89-.43,2.59-.5,4.57,3,4.86,2.81.24,4.19,2.65,5.51,4.83,1.62,2.69,3.21,5.39,6.23,6.79a16,16,0,0,1,1.46.81c6.18,6.93,15.26,8.31,23.24,11.42,6.41,2.49,10.31,7,13.73,12,3.92,5.77,8.51,11.29,11,17.86,2.17,5.79,8.07,8.26,10.65,13.5,1,2.81,2.15,5.49,4.55,7.37,2.18,1.71,4.92,3.24,3.18,6.55s-4.4-.09-6.77.16c1.16,2,3.11,1.94,4.71,2.55,2.69,1,5.39,2.65,5.4,5.58,0,5.33,3.56,7.94,6.94,10.88,1.92,1.66,4.77,2.64,5.71,4.95,5.48,13.45,19.14,14,29.86,19.11,3.22,1.53,7-.84,10.38.76,7.89,3.75,16.19,6.6,23.68,11.18,2.2,1.35,2.79,3.61,3.55,5.85,4.76,14.06,21.69,21.87,35.5,16.12,4.31-1.8,9.53-.64,13.17-4.31C907.55,827.85,908,828.68,907.09,830.06Z"
            fill="#d7ac78" />
        <path
            d="M510.71,771.9l-3.53.18c-2.28-7.07,1.56-17.53,10.21-22.34,9.64-5.37,17.89-13.12,28.64-16.59a24.94,24.94,0,0,1,6.9-1c2-.07,4.44.14,4.88,2.29.52,2.55-2.25,3.36-4,4.34-1,.57-2.53.23-4.06.31,3.89,5.57,10.82,6.81,14.83,12.13,2.51,3.34,6.22.44,9.31-1.51,8.58-5.4,17.14-11.4,28.19-6.75,2.19.92,4.13.79,5.66-1.41,5.36-7.72,13.55-7.92,21.51-7,6.3.7,8.71,7.46,1.5,13.53-6.54,1.55-12.84,3.63-17.38,9a4.09,4.09,0,0,1-2.36,1.43c-1.37.33-3.89-.51-3.7,1.67.2,2.41,3.14,2.51,4.78,2.43,7.83-.37,15.52-.35,23.26-3.44,6.08-2.43,13.21-3.11,20.1-3.36,2.92-.11,7.82,1.2,6.29-5-.11-.44.52-1.5.55-1.49,5.22,1.72,6.87-3.23,10.07-5.27a2.45,2.45,0,0,1,3.83,1.41c2.23,6.68,8.42,8.73,13.69,11.65,5.11,2.83,6,9,1.1,12.33-2.48,1.69-4.39,3.09-5.07,6.5s-5.21,2.88-7.49,5c-6.37,3.67-12.68,7.51-20.4,7.54-1.83-3,.54-4.39,2.48-5.25,4-1.75,7.72-3.5,10.27-7.25,1.05-1.54,3-1.54,4.8-1.63a11.46,11.46,0,0,0,6-2.11,5,5,0,0,0,1.3-1.17c1.71-2.49,6.28-3.56,4.14-8-1.77-3.66-8-5.43-12.46-5.37-6.35.09-11.18,3.24-16.51,5.76A20.89,20.89,0,0,1,644.35,765a22,22,0,0,0-13.17,1.09c-12.17,4.71-23.36,1-34-4.89-4-2.19-3.92-5.22-.78-9.16,1.19-1.48,2.33-2.84.79-4.58s-3.52-1.52-5.26-.22c-8.12,6.07-16.62,11.44-26.37,14.56-1.85.59-2.63,2.22-3.56,3.71-1.57,2.53-3.31,4.88-6.61,5.28a23.5,23.5,0,0,1-10-3.28c-3.81-4.58-3.7-5.47.78-8.6,2.17-1.52,4.92-2.32,6.86-5.47-5.77-1.62-11.24-3.31-16.72-4.59-4.2-1-7.82,1.66-10.82,4.65-1.78,1.79-3.26,4.14-5.71,4.89C512.94,760.45,509.56,764.61,510.71,771.9Z"
            fill="#e0c08f" />
        <path
            d="M628,694.12c-.7,1.6-1.41,3.19-2.11,4.79-6.2,2.77-12.85,1.82-19.19,1.47-4-.22-5.55-5.4-8.26-8.3,0-.42-.09-.84-.13-1.26-.51-2.67.87-5,3.24-3.9,8.78,4.06,17.33,2.59,26,.07C629.29,689.26,622.39,692.1,628,694.12Z"
            fill="#cfa06c" />
        <path
            d="M864.14,458.39c2.14-9.39,7-17.56,12-25.56,2.18-3.44,3-8.56,9.31-8,1.68.16,4.08-2.82,4.31-5.06s-2.64-1.87-4.12-2.22c-2.69-.65-1.8-2.47-1.24-3.55,4-7.76,5.58-16.46,9.07-24.73,3.19,6.46,1.35,16.34-3.69,21.59-1,1.07-2.7,1.84-2.4,3.7a1.71,1.71,0,0,0,1.27,1c1.87.08,2.66-1.42,3.41-2.76A58.13,58.13,0,0,0,897.87,399c.92-3.57.49-8.63,6.39-9,1.15-.07.82-1.61,1.28-2.41,6.43-11,7.91-23.61,11.84-35.42l1.18-2.37c.71-3.28-.19-7.08,3.09-9.52,3.26-4,3.68-9.66,7.53-13.35,2.9-3,3.3-.74,2.72,1.53A52.24,52.24,0,0,1,928.43,339a123.65,123.65,0,0,0-11.49,32.33c-1,5.09-3.78,9.76-5.64,14.54.69-1.05,1.34-2.4,3.15-1.8.94,5.72-2.23,10.34-4.21,15.24a61.24,61.24,0,0,1-13.18,19.75c-6.41,6.62-6.59,16.07-10,24.1-4.51,10.77-9.17,21.36-18.18,29.42,2.08-5.91,6.83-10.49,8.69-17.85-5,3.22-6.85,8.49-11.73,10.62,8.16-8.8,10.71-21.21,20.27-29.21-7.8-2.4-9.74-1.17-12.59,5.59-2.75,6.5-3.19,14.18-9.26,19.08A1.64,1.64,0,0,1,864.14,458.39Z"
            fill="#6c4f37" />
        <path
            d="M864.14,458.39c.05.81.1,1.61.16,2.42-1.25,5.16-3,10.06-7.55,13.35-1.51.34-1.52-.61-1.27-1.58a11.34,11.34,0,0,1,2.37-3.82,3.81,3.81,0,0,0,1-1.95,2,2,0,0,1-1.79.38c-3.85-2.56-6.49-2.17-9.73,1.82-4.76,5.86-9.34,12.41-17.63,14.2-1.61.35-3.19,2.21-4.62.23s-.3-3.65,1.35-5a14.16,14.16,0,0,0-5,6.79c2.2,1.34,5.74,0,6.87,3.21.18,1.69-1.07,2.58-2,3.64-2.88,3.15-6.18,5.51-10.65,5.67-2,0-4,1.35-6,0-2.82-1.64-3.69,2.25-6.39,2.14-.41-5.2,2.42-8.2,6.66-10.13,1.85-.85,3.52-1.15,3-4-.33-1.85,1.7-2.81,3.1-3.87,4-3,8-6.07,11.9-9.25.83-.67,2.81-1.23,1.36-3.07,3.23-6.28,8.68-10.64,13.54-15.51.78-.78,1.48-1.84,2.89-.79,3.36,2.49,6.19,1.74,5.51-1.8-1.48-7.72,3.67-8.45,8.55-9.92,1.24,6.47,3.33,13.13-2.53,19.35l1.58.47Z"
            fill="#76563c" />
        <path
            d="M712.57,556.76l1.11-1.23c2.34-2.5,5.85-3.5,8-6.25,4.62-5.58,12.2-6.65,17.39-11.48,2.51-2.32,5.78-3.55,7.21-7.25.88-2.3,3.28-4.45,5.11-.12,1.12,2.64,3,2.5,4.48.61,5.37-6.71,13.44-7.89,20.84-10.47,1.79-.18,3.25-1.26,4.89-1.85,1.48-.52,3.22-1.24,4.26.32s-.34,3.14-1.58,3.87c-2.75,1.64-3.82,4.2-4.68,7-9.47,6.73-18.86,13.62-28.19,20.49-6,4.42-11.8,9-18.36,12.49-2.82-.57-3.27-1.26-1.44-2.76,3.13-2.56,5.86-5.76,9.72-7.3a11.91,11.91,0,0,0,4.47-3.57c4.51-3,4.74-9.38,7.63-10.92-7.36.42-15.87,3.42-21.46,11.67-11.46,6.49-21.71,14.93-33.61,20.69-1.58.76-3.71,1.73-4.78,0-1.29-2.16.92-3.39,2.44-4.53C701.12,562.28,707,559.8,712.57,556.76Z"
            fill="#7a5b41" />
        <path
            d="M779.59,529.9c-1.48-3.07-1.27-5.47,2.34-6.93,1.49-.6,3.21-1.38,3.21-3.54-3.11-1.38-5.18,4.21-8.44,1.14.23-1.81,2.93-2,2.74-4.25-3.65-1.14-5.64,3-9.56,2.82,8.18-8.35,18.6-11.9,28.8-17.15-.8,4.59-6.32,5.56-6.67,10.47,2.8-1.16,4.85-5.11,8.25-1.91.4.38,1.53-1.46,2-2.53,1-2.14,1.85-4.33,4.16-5.42.91.93.56,4.09,3.39,1.47,2.46-2.28,3.56-5.36,5.62-7.82,4.59.46,7.3-2.77,10.38-5.27a26.69,26.69,0,0,0,14.59-7.82,46.71,46.71,0,0,1,8-6.74,4,4,0,0,1,4.44-.23c1.78,1.12,1.17,2.61.33,4-2.71,1.85-5.72,3.27-7.58,5.46,1.66-1,3-3.3,5.69-3.68.88.23,1.55.61,1.22,1.7-5.89,5.36-11.35,11.34-20,14.65,1.07-3.92,5.13-3,5.57-6.37a73.72,73.72,0,0,0-23.33,12.8c-7.41,6.08-12.79,14.28-21.22,19.22C789.07,526.59,784.22,527.94,779.59,529.9Z"
            fill="#705037" />
        <path
            d="M746.34,549.26a4.49,4.49,0,0,1-3.65,4.67c-4.7,1-6.75,5.65-10.87,7.53-1.33.61.36,1.24,1.22,1.42a11.8,11.8,0,0,1-7.52,2.51c-6-.06-10.22,3.93-15.33,5.78-8.7,3.16-8.08,12.23-12.34,18.16l-4.91,4.83c-1.34-6.1-4.6-11.47-1.93-17.9.55-1.34,2.39-3.84-1.14-5.83-2.53-1.43.74-3.85,2.15-4.67,6.47-3.8,13-7.6,20.55-9-3.83,4.68-10.1,5.79-14.43,9.85-1.26,1.18-3.49,1.34-4.44,5,7.91-4.49,15.31-7.68,21.41-12.49,5.07-4,10.77-6.64,16-10.23,3.08-2.53,6.27-4.87,10.37-5.48,1.53,0,3,0,3.84,1.7-4.31,6-11.17,8-17.51,10.74a58.34,58.34,0,0,0-8.07,4.35c7.14-4.63,15.53-6.79,22.8-11.15A3.06,3.06,0,0,1,746.34,549.26Z"
            fill="#614530" />
        <path
            d="M914.45,384.07c-2.78,1-3,4.77-6.66,6.52,2.35-5.65,4.64-10.08,6-14.78,2.9-9.78,5.06-19.79,9.24-29.14,2.69-6,5.63-11.9,7.68-18.18.63-1.95.63-2.71-1.57-1.58a49.8,49.8,0,0,1,1.54-23.67c2-6.3,7-10.84,9.16-16.94,3.45-.26,2.32-3.43,3.09-5.22,1.25-2.89,1.15-6.41,4.41-8.24,4-1.48,5.06.39,4,3.85-1.07,3.64-1.77,7.42-3.63,10.8-6.33,10.19-7.29,22-10,33.3-1.46,6.07-3,12-5.74,17.67h0c-1.69,2.53-2.41,5.43-3.14,8.33q-2.56,5.49-5.12,11c-3.91,6.23-3.66,14-7.33,20.28A7.53,7.53,0,0,0,914.45,384.07Z"
            fill="#81644b" />
        <path
            d="M932.07,338.46c-.18-7.3,3.66-13.66,4.89-20.69,1.64-9.46,3.35-19,7.63-27.82.6-1.22.68-2.67,2.45-2.76,2.06,3.27-.43,6.14-.8,9.19-3.45,4-.44,8.93-1.83,13.26-1.81,5.62-2.36,11.59-4.12,15.19,1.15-3.9,4-9.3,5.21-15.26.24-1.2.66-2.79,2.6-2.52.54,2.32,1.82,4.48,1.53,7-5.27,9.16-6.17,19.8-10,29.45-2.13,5.29-3.28,10.56-8.05,14.86-3.67,3.31-5,9.17-7.8,13.74.47-7.42,3.95-13.88,6.34-20.67,1.23-3.46,2.95-6.76,4.13-10.23C934.66,339.83,935.55,337.16,932.07,338.46Z"
            fill="#634a35" />
        <path
            d="M934.16,386.29c-5.7,21.2-15.68,39.61-33.59,53.55-1-2.51.29-4,1.07-5.37,6.12-11,9.74-23.92,19-32.43C925.94,397.17,929.05,391,934.16,386.29Z"
            fill="#7f6145" />
        <path
            d="M970.92,315.3c-.12,2.59-1.59,4.11-3.95,4.9a5.71,5.71,0,0,0-3.78,3.86c-4.66,7.29-9.21,14.65-14,21.82-1.7,2.51-3.67,5.09-7.71,6,.46-6.91,4.27-12.41,6.07-18.51,2.29-7.78,6.62-14.86,7.94-23,3.77-3.25,2.59-8.48,4.92-12.3.59,6.12.5,12.17-2.27,18.07,3.29,1.24,4-1.52,5.51-2.91,2.63,2.77.29,4.74-.88,6.82,1.87-2,3-5.55,7-4.66Z"
            fill="#81634a" />
        <path
            d="M702.91,595c-.78-4.64,1-6.72,5.43-9.21,5.4-3,9.87-8,15.46-11.18,4.17-2.38,9.58-2.22,13-6.28.31-.37,1.39,3.46,3.56,1.16.46.33,1.14.41,1.25,1.12-7.64,7.06-15.75,13.68-21,23.74-.68-6-.68-6,3.9-12.44-7.14,4-13.11,7.69-18,12.9C705.28,594.78,704.14,595.78,702.91,595Z"
            fill="#4e3626" />
        <path
            d="M741.65,570.61l-1.25-1.12a52.78,52.78,0,0,1,18.25-11.23c-2.28-1.81-4.33,1.24-5.34-1-.71-1.59,1.49-1.84,2.18-2.77,1.27-1.72-.79-.8-1.22-1-1.5-.5-1.95-1.1-.67-2.32a22.61,22.61,0,0,0,12.3-5.28c1.38-1.2,2.76-2.9,5-1.51-.43,2.46-.85,4.58-3.93,5.56-1.76.56-3,2.87-4.14,5.09,7.18-5.49,16.15-2.58,23.9-5.65C770.91,555,755.45,561,741.65,570.61Z"
            fill="#533b27" />
        <path
            d="M852.33,480.08c.17-1,1.48-2.21,0-3a3.2,3.2,0,0,0-3.75.69c-2.57,2.33-5.4,4.45-7.54,7.13-3,3.81-7.77,4.52-11.53,7a2.86,2.86,0,0,1-3.67-.86l2.33-2.35c2-4.7,6.67-6.46,10.41-9.07,6.22-4.34,11.1-10.73,18.93-12.64,3.27-1.21,2.55.48,1.78,2.37-.69,1.7-3.63,2.25-2.51,4.87-.33,1.4-2.69,2.48-1.5,3.87,1.6,1.87,3.34-.79,5.13-.67.46,3.33-1.52,4.55-4.37,5-1.85-1.34-2.17,1.32-3.51,1.33l-1.22-1.1C850.45,481.27,851.8,480.84,852.33,480.08Z"
            fill="#553a24" />
        <path
            d="M702.91,595c1.16-.53,2.27-2,3.56-.19-1.14,2.38-1.9,4.75.3,7,.19,1.73.27,3.48.63,5.17.28,1.33-.32,3.1-1.13,2.66-5.07-2.79-6.08,6.4-10.84,3.49-1.79-1.1-2.14-10.78-.58-12.15,1.13-1,2.51-1.44,3.37.24s2.2,3.22,4,2.5c2-.82.7-3.08.86-4.7a16.74,16.74,0,0,0-.18-2.9C702.9,595.75,702.91,595.37,702.91,595Z"
            fill="#72513f" />
        <path
            d="M887.08,459.75c5-5.17,6.91-13.5,16.14-14.6a8.29,8.29,0,0,0,5.92-5c.78-2.06,2.19-1.81,4.88-1.55C905.71,447.37,898.8,456.41,887.08,459.75Z"
            fill="#624933" />
        <path
            d="M770.89,544.39c-4.52,2.84-8.62,6.46-14.15,7.44-1.22.21-2.28.53-3.14-.65,10.9-5.17,20-12.95,29.65-20,2.54-1.86,5.48-1.43,7.74-3.45l.76,1.38Z"
            fill="#6c523d" />
        <path
            d="M826,509.52c-4.26,2.69-6.8,5.59-9.47,8.41-1.29,1.35-2.48,5.18-5.49,1.47-.59-.72-1.38.22-1.85.81-.92,1.13-1.77,3.41-3.41,1.62-1.31-1.42.81-2.76,1.8-3.73,4.9-4.79,9.92-9.45,16.15-15.33C822.86,506.31,819.4,509.93,826,509.52Z"
            fill="#5c4430" />
        <path
            d="M909.78,411.3q-5.91,11.11-11.85,22.23c-.45.85-1,1.88-2.17,1.51a1.45,1.45,0,0,1-.63-2.38C901.17,426.3,901.35,416.32,909.78,411.3Z"
            fill="#5f4735" />
        <path d="M704.36,582.51c4.35-6.8,12-8.91,18.39-12.92C717.8,575.56,711,579,704.36,582.51Z"
            fill="#614530" />
        <path
            d="M916.47,378.06c2.56-6.72,1.38-14.78,7.33-20.28C922.16,364.83,921.38,372.19,916.47,378.06Z"
            fill="#6c4f37" />
        <path
            d="M856,482.37a11.85,11.85,0,0,0,4.37-5c1.15-1.36,2.8-2,3.92-.59s-.5,2.56-1.64,3C860.39,480.49,859.65,485.15,856,482.37Z"
            fill="#644c38" />
        <path
            d="M928.92,346.79c.22-3.09-.68-6.6,3.14-8.33C932.48,341.79,930.31,344.14,928.92,346.79Z"
            fill="#634a35" />
        <path
            d="M657.62,787.78c7.33-1.14,13.46-5.87,20.82-6.94.6,1,1.58,2.46,2.61,1.79,3.34-2.18,5.64-1,8.08,1.47,1.33,1.31,2.85.63,4.16-.54a18.4,18.4,0,0,1,3.65-2.86c2.69-1.38,5.84-2.07,8.36-.36,3,2.07.83,4.88,0,7.38a20.62,20.62,0,0,0-.51,2.26l-3.32,2.61-4.63,3.64c-.18-.08-.42-.1-.52-.23-5.09-6.34-6.89-6-11.06,2-1.34,2.55-2.64,5.17-5.58,6.33-2.08-2.39-.4-4.31.79-6.31,2.95-5,2.53-5.35-3.36-6.16-8.51-1.17-16.71-.1-25,2-7.82,1.94-15.75.82-23.64.22a7.58,7.58,0,0,0-.19-1l.58-.84c2.76-2.26,6.12-2.42,9.44-2.64C644.78,789,651.25,789,657.62,787.78Z"
            fill="#c2ac8b" />
        <path
            d="M766.65,869.12c7.05,6.16,8.94,14.17,8.27,23.08-6.37-4.28-8.83-10.31-8.12-17.83A42,42,0,0,0,766.65,869.12Z"
            fill="#e2ba84" />
        <path
            d="M774.92,892.21c6.32-2.59,10.13,3.88,15.71,4.58-1.18,5.79-7.29,3.22-10.46,5.72C780.49,898,775,896.5,774.92,892.21Z"
            fill="#e2ba84" />
        <path
            d="M947.51,274.18c-3.6,3.5-3,8.61-4.93,12.75-.4.87,0,2.77-1.85,2-.56-.24-.58-1.71-.85-2.61,2.06-7.83,5.35-15.21,8.39-22.68,2-6.95,1.56-14.28,3.43-21.25,1.82-3.08,1.4-7.17,4.36-9.74,4.5-3.6,4.2-9,4.9-13.89a61.6,61.6,0,0,1,3.14-12.4c-1.76-3.54-1.07-6.51,1.41-9.61,1.79-2.23,2.09-5.36,3-8.12.85-2.58,1.11-5.82,4.79-6.38,3.31,3.05-1.37,5.53-.61,8.41-1.87,9.89-5.17,19.45-7.17,29.31-1.39,6.85-2.88,13.56-6.33,19.86-3,5.47-3.37,11.93-4.5,18.05S951.73,269.54,947.51,274.18Z"
            fill="#664f39" />
        <path
            d="M924.23,289.32c.06,1.29-.06,2.84-1.6,3.24s-1.88-1-2.41-2c-3.66-7.32-6.67-14.9-7.86-23a20.31,20.31,0,0,0-2-6.6c-.71-1.36-1-2.65.8-3.34,1.53-.59,3.17,0,3.34,1.44C915.8,269.75,922.9,278.59,924.23,289.32Z"
            fill="#6d523a" />
        <path
            d="M895.6,134.6c-1.85-5.3-.4-10.66.43-15.79.71-4.38,1.24-8.43-.84-12.39-1.9-3.62-1.49-7.25-.86-11,3.25,8.44,6.76,16.75,6.15,26.17,2.19-1.89.27-4.62,2.26-6.2.61,2.31-.69,5,1.58,7l-3.23,6.06-2.07,6A2.41,2.41,0,0,1,895.6,134.6Z"
            fill="#796756" />
        <path
            d="M912.36,288.44c-4.43-5-3.18-10.23-4.83-14.59-1.44-3.83-.67-8.68-5.57-10.84-1.33-.59-.78-2.48-1.1-3.77-1.22-4.94,1.22-10-.57-15a1.93,1.93,0,0,1,1.35-2.32c1.32-.46,1.84.48,1.82,1.51-.24,14.51,8.17,27.08,9.27,41.28A29.07,29.07,0,0,1,912.36,288.44Z"
            fill="#715843" />
        <path
            d="M952.93,242.15c-2,7.06.56,15.11-4.66,21.47-.26-1.13-.35-2.58-1.81-2.65s-1.65,1.34-1.75,2.5c-.16,1.84.5,4.06-3,4.73.46-4,.9-7.71,1.34-11.45,1-4.47,2-8.94,4.09-13.07,2.07,1.9,2.09,1.95,1.58,4.77C950.56,246.71,948.31,242.2,952.93,242.15Z"
            fill="#81644b" />
        <path
            d="M923.18,257.81a16.82,16.82,0,0,1,2.67,8.19c-2.86.49-1.88,2.13-1.32,3.89,1.41,4.47,2.75,9,2.75,14.84-3.54-4.77-4.36-9.31-5.21-13.87a29.21,29.21,0,0,0-3.12-8.61c-.64-1.15-.67-3.55.1-4.38,1.46-1.57,1.82,1.32,3,1.47S923.07,258.51,923.18,257.81Z"
            fill="#6d5645" />
        <path
            d="M907.22,134.06c.37.42,1.14.93,1.06,1.24-1.85,7.67,3.59,14.49,2.55,22-2.07-4.45-4.06-8.93-6.21-13.35C902.62,139.89,905.57,137.17,907.22,134.06Z"
            fill="#796756" />
        <path
            d="M921.65,340.26c-.95,3.2-1.2,6.63-3.09,9.52-.55-3.16-4.2-3.11-5.9-5.82,2-1,6.77.07,4-5.09C916.17,338,919.81,340.05,921.65,340.26Z"
            fill="#896a4d" />
        <path
            d="M814.79,928.11c-2.48.6-5.22-2.37-7.42-5.6s.66-6.67,1.17-10c.26-1.71,3.39-1.12,5.3-1,3.65.31,7.39,1.42,10.9.89,3-.44,5.06-.36,6.33,2.3a5.51,5.51,0,0,1-1.82,6.85C825.52,924.19,821.88,927.29,814.79,928.11Z"
            fill="#e2ba84" />
        <path
            d="M905.81,827.81c.41,3-1.24,3.8-3.8,3.69a20.68,20.68,0,0,0-11.68,3.25c-2.87,1.74-5.63.66-8.5.24-12.92-1.86-23.58-6.19-26.52-21-.93-4.65-6.62-5.44-10.15-7.3-2.84-1.5-6.28-2.34-9.35-4.09a20.41,20.41,0,0,0-13.22-2.76c-5.17.64-10-3.65-15.19-5.13-8.58-2.45-15.19-6.55-18.76-15.25-1-2.51-4.77-3.82-7-5.94-2.92-2.77-7.19-4.54-5.62-10.34.62-2.3-2.65-4.54-5.68-4.75-1.8-.13-3.61,0-4.61-1.85-.71-1.29-2.27-2.68-1-4.2s2.71-.11,4,.66,2.34,3.64,4.12,1.35c1.64-2.11-.28-3.41-2.13-4.45-3.48-2-5-5.32-6.08-8.93,1.65-1.38,3-.45,4,.76,5.7,6.46,11.82,12.26,19.94,15.75,3.75,1.61,4.72,5.65,5.6,9.22a12.23,12.23,0,0,0,6.09,8.18c.34.19.82.3,1,.6,5.53,9.38,14.6,11.95,24.58,13.71,4.7.83,8.9,2.77,13.35-.41a4,4,0,0,1,4.44-.18c9,5.3,16.56,13,26.83,16.34,1.05.34,2.47,1.2,2.7,2.09,2.5,9.33,8.84,10.77,17.75,11.62,6,.57,10.29-.83,15.14-2.77A22,22,0,0,1,905.81,827.81Z"
            fill="#d4a773" />
        <path
            d="M843.72,788.69c-7.38,5.12-14.66,3.36-22.36.41-2.53-1-6-2.07-9.09-.68-1.77.8-2.22-.13-3-1.51-3-5.27-6.91-9.81-12.35-12.78-2.25-1.23-3.22-3.09-3.76-5.54-1.23-5.61-3.16-9.72-9.91-12-5.51-1.86-10.18-7.3-14.21-12.23-1.23-1.52-1.94-3.45-4.35-3.31-.1-1.47-.77-3.06-2-3.31-5.87-1.18-6.27-6.82-8.72-10.6-4.82-7.41-9.09-15.11-14.66-22.1-4.32-5.44-10.25-7.39-16-8.8-6.84-1.67-11.82-5.43-16.74-9.8,4.66-1.8,8.81.37,13.08,1.65,6.56,2.09,13.43-.11,20,1.49,3.39,0,5.1,1.51,6.72,4.71,2.61,5.14,5.13,10.55,10,14.25,3.23,2.44,2.14,6.82,3.95,10.14,2.52,4.63,3.64,10,7.46,14,1.73,10.1,9.84,14.82,17.2,20.06,5.61,4,9,9.1,12.31,15.25,4.05,7.49,9.19,15.88,19.09,17.87,4.18.85,8.39,1.19,12.41,3a9.45,9.45,0,0,0,8.5-.78A5.21,5.21,0,0,1,843.72,788.69Z"
            fill="#c39c71" />
        <path
            d="M767.77,732.68c-3.69-1.4-5.71-3.86-6.58-7.9-2.37-10.88-9.77-19.15-15.6-28.2-1.64-2.55-1.6-6.73-6-7l10.51-.71c7.6-.22,8.55,6.47,9.76,11,5.78,21.76,18.31,37.24,39.48,45.49a15.6,15.6,0,0,1,9,9.47c2.06,6.26,7,8,11.83,8.72,5.09.8,7.9,3.59,10.81,7-5.78,6.2-11.09.81-15.44-1.65-4.15-2.33-8.68-5.74-9-12-.24-5.26-6-5.24-8.83-5.41-6.51-.39-11.25-2.92-14.65-7.94C779.28,737.91,773.62,735.26,767.77,732.68Z"
            fill="#ad835e" />
        <path
            d="M907.25,811.28l6.15,6.81c-.38,8.81,3.93,16.86,4.66,26.09-2.79-.62-1.64-3.43-3.32-4-4.48-7-8.78-14.08-7.76-23a6.5,6.5,0,0,0-.65-4.51Z"
            fill="#d4a773" />
        <path
            d="M880.57,808.63c2.66-4.55,6.57-3.58,9.81-3.24s6.36,1.84,9.52,2.83c1.18.37,2.29.89,2.18,2.33a2.43,2.43,0,0,1-2.4,2.16c-1.73.23-3.51.59-5.17-.34C890.35,810.05,885.75,809.28,880.57,808.63Z"
            fill="#d4a773" />
        <path
            d="M802.42,653.27c5.92,2.05,6.48-3.54,6.48-6.07,0-6.86,3-4,5.67-2.31a14.83,14.83,0,0,1,5.37,5.16c-1.76.1-2.71,1.17-3.47,2.65-3.42,6.59-10.2,8.71-16.12,12a2,2,0,0,1-2.64-.24,1.86,1.86,0,0,1,.12-2.63C800.61,659.58,799.89,655.56,802.42,653.27Z"
            fill="#75432b" />
        <path
            d="M629.23,447.14l-1,4.73c-.61,3.2-.91,6.45-3.22,9.09a5.21,5.21,0,0,0-1,5.49c.66,2.69-.85,4.79-1.92,7-.76,1.77-2.21,3.09-3.16,4.73q-6.29,15-12.56,30.07c-2.58,1.34.85,7-3.1,6-2.86-.73,1-4.19.72-6.59-.15-1.33-.15-2.67-.23-4.23-2.87,2.54-4.73,2.94-8.07,1.92a42.41,42.41,0,0,1-.24-7c.2-1.59-.89-4.87,3.35-3.47,2.2.72,2.35-2.17,2.87-3.66,1.4-4,2.34-8.18,3.86-12.14.88-2.26,1.62-5.75,5.44-1.86,2.25,2.29,2.55-1.2,2.86-2.33,2.88-10.34,10.48-18.26,14.31-28.1Z"
            fill="#6f5036" />
        <path
            d="M619,478.19a6.88,6.88,0,0,1,2.08-4.84c3.22-2.23,3.23-5.57,3.06-9,1.31-1.47,2.77-2.15,4.62-.94.71,8-4,14.23-7,21-.77,1.76-1.91,3.35-2.1,5.34-.15,1.56-.43,3.74-2.39,3.1s-.58-2.72-.13-4c1.12-3.26,2.65-6.4,3.71-9.68C621.61,476.83,619.92,478,619,478.19Z"
            fill="#403025" />
        <path
            d="M628.76,463.44a7.27,7.27,0,0,0-4.53,1.76,2,2,0,0,1-1.14,1c-2.31-1.66-1-3.7,0-5,2.29-2.86,3.39-6.27,5.12-9.38,0,2.46,1,3.79,3.61,3.28.31,2.66-2,4.55-2.13,7.07C629.41,462.62,629.08,463,628.76,463.44Z"
            fill="#83694c" />
        <path
            d="M663.81,593.66c-.34-3.3-.68-6.61-2.76-9.41.93.15,2.34.76,2.7.37,1.15-1.22-.24-2-1-2.8q-10.59-10.7-21.2-21.35c-.8-.79-1.57-1.61-2.37-2.42,1.49-1.64,3.2-.79,4.6-1.25,1.79-.57,3.37-1.52,3.34-3.54,0-1.4-3-2.8-.23-4.21,1.91-1,3.17,1.14,4.63,1.89,3.12,1.59,5.13,4.84,8.61,6,1.73.56,1.64,1.77,1.23,3.29-1,3.58,1.3,5.39,4.25,5.62s3-1.74,2.94-4.64c-.12-4.34,3.66-.23,5.66-1.83-.45-2.26-4.29-1.72-4.2-4.79,3.32.51,6.67,1.32,8.29-3.55.58-1.73,4.74-.57,7.21-1,6.15-1.16,13.06-.53,17-7,3.28-5.78,10.4-4.18,14.86-7.68,1.05-.69,2.29-1,3.22-.17,1.13,1,.21,2.15-.32,3.14a6.3,6.3,0,0,1-2.31,2.61c-5.33,3-11,5.44-14.69,9.51,1.94-.12,3.68-2.74,6.31-3.27,2.13-.43,4.81-2.73,6.08,1.26l-9,5.26c-7.67,4.77-15.66,8.81-24.53,10.9-.95.22-2.54-.52-2.38,1.49.94,3.63,2.66,7,3.68,10.52.57,2,1.08,4.52-2,5.19-2.62.57-4.37,0-5-3.24-.92-4.46-3-8.09-8.68-7.39-1.17.15-2.11-.85-3.05-1.52,3.14,2.38,7.3,3.08,9.56,7.06,1.31,2.33,1.82,4.33-.09,5.6-4.7,3.14-2.95,6.59-1,10.09,1.47,2.69,2.28,5.42,1.56,8.43-.36,1.48-2.57,2.72-2.77,1.74-.89-4.51-6.51-3.08-7.72-6.75Z"
            fill="#614530" />
        <path
            d="M628.5,794c9-2.41,18.72.95,27.55-2.61,7.74-3.12,15.5-1,23.25-1.15,2.17,0,4.48,0,5.44,2.43.85,2.14-.65,3.65-2,5.12-1.69,1.85-3.78,3.53-3.1,6.51,0,3.2,0,6.39,1.67,9.28.23,2.47-.45,4.05-3.37,3.44-6.39-4.74-13.84-5.34-21.43-5.7-5.61-.27-11.22-.9-16.82-1.47-2.16-.22-4.41-.67-4.67-3.48-.46-4.85-4-5.42-7.64-5.18-8.36.52-16.25-2.09-24.31-3.44-1.75-.29-4.66-1-4.5-3.06.21-2.65,3.14-1.32,4.87-1.68C611.88,791.26,620.11,794.64,628.5,794Z"
            fill="#90724f" />
        <path
            d="M628.31,792.94c-13.11-2.31-26.37-.91-39.55-1.46-2.62-.11-4.74-1.13-7.11-1.62-4.27-.9-9.71,1.12-12.4.27-5.59-1.77-12.24-1.27-17-5.12-5.91-4.84-11.75-7-19.48-4.51-3.7,1.2-8.13.2-12.22.19a1.08,1.08,0,0,1,.18-1.57c4.35-1.93,9.4-1.07,13.64-3.43a6.56,6.56,0,0,1,1.77,0c6.19-.2,11.88,1.52,17.39,4.26,3.51,1.74,7.36,2.21,11.33,2.5,5.58.4,11.14,1,16.51,3.21,7,2.88,14.41,3.22,21.89,2.41,6.64-.93,13.25-1.39,19.84.56,2.4.72,5.16.54,5.39,4Z"
            fill="#c2ac8b" />
        <path
            d="M520.53,779.61c0,.36,0,.72.07,1.08-4.05.63-7,3.26-10.26,5.42-.32-2,0-3.47,2.38-3.8,1.71-.23,3.14-1.19,2.78-3.07-.4-2.17-2.39-1.47-3.85-1.46s-2.73.17-4.09.27c3.33-2.93,7.83-.82,11.53-2.74,2.89-1.49,0-1.71-.16-2.5,3.11-2.78,6.48-2.44,10-.86,2.62,3.57-.13,4.24-2.73,4.79C524,777.2,521.4,776.66,520.53,779.61Z"
            fill="#bba78a" />
        <path
            d="M660.19,611.11a73.67,73.67,0,0,0-6.9,12.76c-1.35,3.43-3.91,5.94-7.09,8.23-4.39,3.17-6.33,7.31-7.58,13.56-1.67,8.38,3.17,8.54,7,11.45a13.75,13.75,0,0,0,7.31,3,21,21,0,0,1,16.23,10.15c1.75,2.72,1.24,4.36-1.77,5.24a48.2,48.2,0,0,1-6.22,1.52c-2.66.4-5.06-.59-5.39,4.29-.23,3.45-6.35,3.56-9.75,5.27-3,1.53-6.74,1.64-10.15,2.38,2-4.55-.73-8.56-1.92-13.45,3.32,1.08,5.51-.62,7.81-2,1.79-1.06,4.39-1.81,3.47-4.61-.8-2.43-1.24-4.87-4.42-6.3-6.9-3.1-13.44,1.75-19.87.27-7.27-1.68-14.45.41-21.61-.75-3.59-.58-3.83-2.1-2.27-5.14,4.85-9.53,12.93-12.68,23.06-12.74,6.19,0,12.3-1.33,14.66-8.15,1.74-5,6.76-6.26,10-9.51,5.89-5.91,8-14,13.31-20.2,1.14-1.35,1.87-3,2.87,0A4.86,4.86,0,0,1,660.19,611.11Z"
            fill="#cfa06c" />
        <path
            d="M660.19,611.11c.07-1.61-.66-3.36.83-4.72,2-3.24,3.66-6.6,3.15-10.59,1.19.61,2.87,2.06,3.49,1.7,6.16-3.54,4.13,1.74,4.43,5.53,2.22-3.87,1.89-6.61.3-8.95-1.45-2.15-1.79-4.62-2.8-6.74-1.47-3.11-.94-3.87,2-5,2.45-.94,3.13-1.37.84-5-3.21-5.14-10.29-4.74-12-11.26,4.11,1.54,7.38,4.2,12.07,4.08,3.17-.07,5.48,4.4,5.38,7.93-.07,2.88,1,2.92,3,2.69,2.58-.3,2.49-2.07,1.91-3.9-1.19-3.75-4.77-6.68-3.88-11.16a4.39,4.39,0,0,1,6.1-.28c-1.54,8.84,1.23,17.09,2.46,25.64,1.06,7.4,4.27,15,2.76,22.92-.51,2.68-1.23,3.21-3.14,1.86-2.45-1.74-5.29-.82-7.88-1.66-2.24-.74-4.32,0-4.42,3Z"
            fill="#76553d" />
        <path
            d="M627.49,687c-7.92,5.65-16.38,5.69-24.72,1.53-3.48-1.73-3.41.79-4.5,2.3-1.13.3-2.27.53-3.37.91s-2.28,1.1-3-.26c-.56-1,.41-1.79,1-2.53,2.14-2.73,3.17-5,1-8.79-2.6-4.63,1.07-10,6.78-11.76a1.47,1.47,0,0,1,0,1.63c-3.82,6-3.83,6,1.88,9.83a5.39,5.39,0,0,1,2,2.06c1.31,2.88,2.87,5,6.65,3.88s6.09-3.24,6.06-7.37c.86-1.4,2.33-2.69.87-4.54-.84-1.28-2.3-2.78-.66-4.07,2.82-2.25,5,.31,7.15,1.37-.72-1.24-3.73-1.36-2.49-3.95.33-.7,1.35-.51,2.06,0a11.25,11.25,0,0,1,1.16,0c5.55-.14,5.74,4,6.29,7.86C633,680,629.69,683.31,627.49,687Z"
            fill="#8a6145" />
        <path
            d="M617.67,678.48c3.06,4.15-.24,6.53-3.06,7.67-3.39,1.36-8.1,4.37-10.4-1.55-1.06-2.71-2.43-4.31-5.12-4.76-3.94-.66-5.24-3.45-2.86-6.87a38.92,38.92,0,0,1,4.42-4.58c1.18-.78,2.35-1.57,3.52-2.36,2.67-1.37,5.38-1,8.72-.57-2,3.41-5.58,3.64-7.72,6.11,3.52,2.88,9.8-1.53,12,4.48A5,5,0,0,1,617.67,678.48Z"
            fill="#674632" />
        <path
            d="M616.36,677.05c-1.39-2.09-2.5-3.93-5.88-2.92-2.91.87-6.08-.3-9.5-2,3.62-2.19,6.38-5,10.14-6.45l-7,.36c6.9-3.38,13.49-1.39,20,1.19-.71,1.56-.52,2,1.64,4.21-1.9.93-3.29-.55-4.87-1-1.09-.3-2.4-1-3,.37s1.46,1.51,1.8,2.57C618.77,674.72,618,676.26,616.36,677.05Z"
            fill="#9e7554" />
        <path
            d="M631.66,675.09c-3.08-1.84-1.81-7.15-6.29-7.86,2.43-1.92,4.48-1.33,6.54.76C634.44,670.54,633,672.77,631.66,675.09Z"
            fill="#9e7554" />
        <path
            d="M719.58,688.1c-4.58,1.21-8.76-.8-13.08-1.65h0c-4.63-4.87-6-12.25-12.38-15.83-.65-.37-.43-1.83-.67-2.76-1.71-6.86,2-13.21,1.93-20,0-2.88,3.51-4.44,6-5.93,1.29-.77,1.83-1.28.3-2.26,5.05-2,10.78-2.37,15.14-6.35-1,4.45-3.63,7.3-7.17,9.49-2.42,1.51-6.54,1.95-7,4.69-.91,6-5.24,11.57-2.64,18.06a8.45,8.45,0,0,1,.69,2.82c.15,4.79,2.68,2.6,4.79,1.69,1.4,3,2.39,6.3,6.11,7.38,7.75,4.46,15.6,5.25,23.61.71a12.71,12.71,0,0,1,4.1-.58,14,14,0,0,1,1.59.11c2.89.38,5.43-1.42,8.26-1.38,2.81.25,4.84-1.38,6.91-2.9a20.1,20.1,0,0,1,2.85-1.93c3.73-1.19,7.29-3.9,11.45-1.3.62,4.14-2.43,5.07-5.35,6.31-2.67,1.13-6.36,1-7,5l-3.36,1.34c-8.8-2.14-17.24,2.92-26,1.35-2,.08-4.1.25-6.15.24C719.86,684.41,719.4,686,719.58,688.1Z"
            fill="#b28157" />
        <path
            d="M790.19,733.88c-6.06.12-6.69-5.72-9.61-9-1-1.06-1.24-2.95-2.69-3.65-9.35-4.45-10.66-14.17-14.71-22.1-1.27-2.51-.4-4.48,1.29-6.34,2.75,10.21,11.67,16.33,16.65,25.06a2.52,2.52,0,0,0,1.3,2.29c2.05,3,3.57,6.42,6.27,9C789.91,730.39,791,731.91,790.19,733.88Z"
            fill="#7a5640" />
        <path
            d="M781.12,717.87c-6.33-7.83-16.49-13.14-16.65-25.06-1.17-2.33-1-5.41-3.85-6.8,3.09-2.1,6.92-2.32,6.87,1.87-.13,9.3,5.53,15.34,10.23,22.11C779.36,712.34,781.19,714.73,781.12,717.87Z"
            fill="#79523b" />
        <path
            d="M790.19,733.88c-2.19-4.8-8-7.57-7.77-13.72Q794.69,731.49,807,742.8a5.64,5.64,0,0,1,1.64,4.19c-4.22-2.3-7.06-6.81-12.23-7.57A18,18,0,0,1,790.19,733.88Z"
            fill="#79523b" />
        <path
            d="M728.64,684.19c4.49-.9,9-1.56,13.43-2.78s8.74-2.17,12.59,1.43C746.11,685.48,737.52,687.62,728.64,684.19Z"
            fill="#b6754e" />
        <path
            d="M715.69,548.42c-3.31-2.53-5.86.43-8.56,1.39-3,1.06-5.7,2.92-9.17,2.41,6.54-2.5,9.66-10.14,17.26-11,2-.22,3.21-2.25,4.25-3.84,2.21-3.37-1.25-1.47-2.07-2.06,2.91-3.65,7.2-1.32,10.77-2.43,7.12-2.2,12.74-6.93,19.06-10.44a11.73,11.73,0,0,1,5.92-1.87c-.22,3.73-3.81,3.44-5.94,4.72-7.21,4.35-13.53,10-21.08,13.92-1.44.74-4.57.91-3.45,5C723.27,546.42,718.08,546.87,715.69,548.42Z"
            fill="#7a5b41" />
        <path
            d="M685,565.41l-6.1.28c-1-.11-2-.09-2.5-1.15a.77.77,0,0,1,.79-1.13c11.2.88,19.61-6.65,29.49-9.73a2.62,2.62,0,0,0,2.43,1.05Z"
            fill="#7a5b41" />
        <path
            d="M815.43,496.25c-.24,6.76-5,9.47-10.29,12.13-1-2.67,1.75-3.79,1.28-5.78,1.93-1.05,2.28-3.18,3.32-4.83Z"
            fill="#513421" />
        <path
            d="M721.67,549.28c-.78,4.48-4.28,5.5-8,6.25l-1.19-1.09C714.32,550.54,718,550,721.67,549.28Z"
            fill="#614530" />
        <path d="M794.54,498.6c-1.68,3.72-4.16,6-8.57,5.11Z" fill="#705037" />
        <path
            d="M978,112.7c-1.39-9.28,2.06-18.8-1.34-28-.24-.65.6-1.69.93-2.55,4.4,4.74,5.72,10.73,6.74,16.8a62.36,62.36,0,0,1,.46,6.42,4.73,4.73,0,0,1,1.45,3.13c.64,16.68-3.31,32.48-9.22,47.9a3.87,3.87,0,0,1-2.5,2.33c-.89.27-2.1,1.05-2.6.72-1.29-.85-.25-2.08.22-3a62.15,62.15,0,0,0,6.07-17.86C980,129.93,977.35,121.33,978,112.7Z"
            fill="#816d59" />
        <path
            d="M974.51,158.72c6.71-17.15,11.11-34.76,10.27-53.36a9.46,9.46,0,0,1,1.07-.12c3.66,9.75,4,19.52.29,29.33s-4.51,20.68-10,29.93c.82,3.28-.39,5.64-3.29,7.23-3.42-.91-1.21-3.2-.66-4.35A18.78,18.78,0,0,0,974.51,158.72Z"
            fill="#a69579" />
        <path
            d="M952.93,242.15c-2.12,1-1.78,3.08-2.36,4.86-.63,2,0,4.82-3.13,5.59-2-3,2.87-6.08-.25-8.92-.1-11.18,4.86-21.33,6.56-32.14.16-1,.38-2.41,1.57-1.79,2.82,1.49,1,5.15,3.15,7.38,1,1-.54,1.9-2.33,2-2.91.07-2.66,2.53-.8,3.15,5.52,1.85,1.37,5.32.39,5.73-5.44,2.31-3.59,7.21-5.7,11.75,3.79-2,2-6.76,6-7.08Q954.5,237.39,952.93,242.15Z"
            fill="#8e7157" />
        <path
            d="M972.82,171.73l3.29-7.23c3.28,6.58-1,12-2.81,17.73a19.17,19.17,0,0,0-4.39,9c-.74,3.37-.91,7.34-4.55,9.6-1.54,1-.81,1,.61,1.68,2.35,1.2-.32,2.57-.87,3.87-3.16-2.37-3.91-5.61-1.64-8.59C968.38,190,969.44,180.42,972.82,171.73Z"
            fill="#8e7157" />
        <path
            d="M978,112.7a42.72,42.72,0,0,0,2.35,11c1.71,4.64.38,10.17-2.14,14.9-1.83,0-4.38,1-2.58-2.71,1.36-2.78,1-5.91.85-8.93,1.94-2.62.43-5.52.67-8.27C977.31,116.65,976.21,114.48,978,112.7Z"
            fill="#947f67" />
        <path
            d="M701.66,639.7c1.27.2,2.67-.62,3.93.56-1.07,2.33-3.73,2.61-5.41,4.14-2.32,2.12-6,3.4-2.89,7.7.87,1.21-.44,3.06-1.35,4.25-2.46,3.22-.92,6.77-1.13,10.16-.23,3.81,1.28,5.52,5.11,7.06,1.85.75,6,4.07,4.51,8.38-.74,2.22,1.47,3,2.05,4.51-3.4-.21-4.92-2.75-6.6-5.17-2.14-3.09-2.74-8.13-8.82-6.15-1.88.62-1.86-2.1-1.74-3.55.19-2.37,1.44-4.65.52-7.92l-4.06,7.44c-2.54-2.87-.55-5,.11-7.2.28-.95.7-2.11-.32-2.63-1.43-.74-2,.58-2.53,1.6-1.8,3.19-1.38,7.85-6.19,9.07-1.16.3-2.36,1-3.14-.18-.92-1.42.59-1.9,1.45-2.61,3.08-2.52,5.55-5.11,1.84-9.12-2.1-2.26-.73-3.71,1.53-4.89,2.67-1.4,4.53-3.2,2.33-6.47a2.47,2.47,0,0,1-.25-2.15c4.52-6.61.36-6.9-4.79-6.91-1.66,0-4-.73-4.36-2.51-1-4.63-4.83-7.48-6.81-11.45-.78-1.55-1.95-3-.3-4.75,1.33-1.43,2.91-2.18,4.72-1.56a9.89,9.89,0,0,0,10.29-2.1c3.37-.4,5.94,3,9.45,2a21.07,21.07,0,0,0,4.67,17.57,2.76,2.76,0,0,1,.21,3.31c-3.25,4.6-4.11,10.47-7.21,13.86,2-3.45,4.82-7.8,9.44-10.53C697.65,641.91,699.16,640,701.66,639.7Z"
            fill="#cea06a" />
        <path
            d="M741.4,678.79c-.38,0-.77,0-1.15,0a5.45,5.45,0,0,0-3.83-1.17c-5.37-.15-8.22-3.41-10.81-7.66-1.57-2.6-2.09-7.27-7.66-5.5-1.05.34-6.08-1.81-4.6-6.24.8-2.4.62-4.93.6-7.42,2-4.47,7.26-5.35,10.1-8.92,2.38-4.08,5.7-7.42,8.8-10.92,2.27-4.89,8.92-4.58,11.34-9.43.16-.33,2.36.35,3.61.57a2.81,2.81,0,0,1,2.91,1.16c.18.56.18,1.61,0,1.61-5.9-.14-6.9,6.16-11.07,8.35-3.19,1.67-3.65,7-1.48,11.12a5.65,5.65,0,0,1,1.05,2.31c0,2.63-2.07,3.19-4,3.86-2.78,0-3.2,1.54-2.67,3.85.71,3.09,2.66,5.48,4,8.28,9.24-7.24,9.56-7.12,11.81,4.24.19.95.51,1.88.74,2.82,1.35,5.56.83,6.49-4.58,7.75A7.16,7.16,0,0,0,741.4,678.79Z"
            fill="#c5bca6" />
        <path
            d="M750.26,623.08l-2.46-1c-1.19-2.95-.26-4.31,2.86-5.43,4.4-1.57,8-.07,13.86-2.38-9.86-1.85-16.76.94-25.23,1.14,1.12-2.08,3-.56,3.77-2.48,1.55-.11,3.93-.24,5.48-.35a35.13,35.13,0,0,1,14.07-.67l4.58-.12c4.25,3.46,9.94,3.8,14.51,6.59a10.89,10.89,0,0,1,1.5.91c2.45,1.88,5.65,3.65,4.15,7.38-1.41,3.5-4.59,3.14-7.93,2.92-7-.47-13.52,3-20.58,2.79-3.29-.11-6.65.68-9.21-2.2-1.16-1.65-.33-2.71,1.12-3.49,1.27-.68,1.45-1.49.56-2.59A12.29,12.29,0,0,0,750.26,623.08Z"
            fill="#603320" />
        <path
            d="M714,650.75c.41.42,1.26,1,1.17,1.22-1.47,4.57-1.24,8.7,3.22,11.8l3.93-3.64c1.44,5.72,5.39,9.53,8.11,14.07,1,1.67,2.67,1.17,4.13,1.53,2.1.52,4.92,0,5.74,3l-4.71.39c-8.17-2.46-16.61,1.12-24.8-1.1-4.61-.76-6.42-3.36-5.22-7.93-.79-5.14-.18-9.58,5.53-11.73C714.79,657,711.59,652.77,714,650.75Z"
            fill="#b6a98f" />
        <path
            d="M695.92,643.43l-11.76,15.35c-1.62-1.15-1.63-2.29-.62-3.2,4.53-4.06,5-10.45,8.77-15,2.07-2.5-.53-4.25-1.85-6-3.66-4.84-5.18-9.83-1.65-15.4,4.82-.55,9.67-1.13,14.46,0,2.12.51,3.29-.53,4.55-1.85.91-1,1.89-2.28,3.32-.57,0,2.92-2.2,4.25-4.46,4.74-5.78,1.24-8.45,5.32-8.26,10.42.15,4.12-.91,6.6-4,9.09C691.67,643.33,693.75,643.64,695.92,643.43Z"
            fill="#bb8756" />
        <path
            d="M732.85,630.91c-.87,5.29-5.23,7.79-8.8,10.92C721.68,634.16,725.61,629.29,732.85,630.91Z"
            fill="#a1775a" />
        <path
            d="M803.17,620.3c1.26,2.12,3.37,4.2-1.23,5.25-2.2.51-3.42,2.38-2.17,5,3.29,6.95-1.71,12.6-3.17,18.79-.31,1.29-1.11,1.66-2.58.67-7.54-5.09-17-5.43-24.85-9.95-1.66-1-3.24,1.08-5,1.07-1.27-1-3.4-1.32-2.62-3.72,2.31-2.44,5-3.66,8.4-2.6a3.55,3.55,0,0,0,2.86,0c6.45-4.13,12.79-.42,20.14.17-3-5.76-3.46-12.47-10.15-15.44-2.42-1.85-5.46-2.44-8.08-3.92-2-1.11-1.93-2-.27-3.25l5.94-.26C788.68,612.92,795.87,616.76,803.17,620.3Z"
            fill="#ad623f" />
        <path
            d="M735.12,649.67c.8-1.49,3.67-1,3.38-3.57,4.78-.07,8.4,2.62,12.12,5.09,2.73.87,5.34.78,7.67-1.1,6-4.84,12.32-4,17.45,1.53,2.92,3.12,2.14,6.44,2.9,9.84,1.37,6.12-4,4.85-5.87,7.22a8.32,8.32,0,0,1-2.38,1.53c-4.14,0-7.94,1.33-11.67,2.93-1.83-4-1.83-8.56-3.59-12.7-1-2.27-1.77-3.5-4.18-4-2.81-.61-5.93-.6-8.13-2.94-.45-.48-.48-.51-1.14,0C736.87,656.9,735.82,653.52,735.12,649.67Z"
            fill="#bf8e69" />
        <path
            d="M750.62,651.19c-4.71-.12-8.17-3.18-12.12-5.09l-1.34-1.18c-1.1-2.27-1.47-4.58.58-6.45,4.56-4.12,6.58-10.67,12.79-13.24.65-.27.34-1.47.85-2.1,1.31.55,3.36.54,3.23,2.5-.21,3.09-4.17,1.1-5.13,3.41.67,1.77-.3,3.42-.4,5.13-.06,1.17-.27,2.49,1.1,3s2.18-.42,2.74-1.55c.75-1.53,1.16-3.67,3.35-3.48s2.27,2.17,2.27,4c0,2.29,2.19.86,3.09,1.67.85,1.13,1.69,2.26,2.54,3.38C757.94,642.2,754.67,647.23,750.62,651.19Z"
            fill="#9e6b4d" />
        <path
            d="M803.17,620.3c-3.47,1.37-6.58-.77-8.71-2.38-3.69-2.78-7.3-4.11-11.77-3.71-1.37.13-2.15-.7-2.3-2.07,4.64.14,9.25.68,13.93.61C798.84,612.68,802.59,615,803.17,620.3Z"
            fill="#80462a" />
        <path
            d="M774.45,612.4c-1.26,2.68,1.21,2.65,2.52,3.38,2,1.11,4,2.12,6.08,3.17a1.55,1.55,0,0,1-2.35.16c-3.51-.75-6.46-3.09-10.17-3.4-2.14-.18-3.26-1.76-3.34-4Z"
            fill="#8d5c3f" />
        <path d="M762.61,611.88l-14.07.67A18.27,18.27,0,0,1,762.61,611.88Z" fill="#8d5c3f" />
        <path
            d="M947.51,274.18c5-10,5-21.57,9.25-31.61,6.13-14.42,8.3-29.75,12.49-44.59a30.24,30.24,0,0,1,3.44-7.34c2.37-.29,2.89-2,3.54-4,2.75-8.46,5.71-16.85,8.65-25.26a25.35,25.35,0,0,1,2-4.23c.62-1.08,1.79-1.85,2.94-1.16,1.5.9.41,2-.3,2.86-3.5,4.29-4.4,9.39-4.72,14.69-6,16.42-12.23,32.73-15.13,50.07-3.16,2.35-3.06,6.1-3.58,9.36-1.67,10.34-5.49,20-8.35,30-1.66,3.83-2,8-3,12h0c-1.46,5.26-2.77,10.58-5.07,15.57v0c-1.78,1.82.06,6.28-4.46,6.1.61-3.15,1.23-6.31,1.85-9.46,1.05-3.73,2-7.5,3.19-11.17C951.67,271.71,949.35,273.41,947.51,274.18Z"
            fill="#8e7157" />
        <path
            d="M945.19,296.65c2.95-1,1.47-5.16,4.45-6.1,2.66,5.8,1.05,11.2-1.54,16.5-2.09,6-4.13,12.06-6.27,18.05-.83,2.33-1.46,4.93-5,5.76,1.5-6.59,5.05-12.3,5.16-18.85,0-2.7,4.8-5.4-.12-8.38C941.39,303.36,943.26,298.71,945.19,296.65Z"
            fill="#81644b" />
        <path
            d="M956.4,263.14c2.91-12.1,7.66-23.69,9.72-36,.38-2.29,1.07-3.61,3.51-3.53-2.19,10.23-4.32,20.48-6.62,30.69a44.62,44.62,0,0,1-5.15,13.48C955.77,266.74,955.51,265.12,956.4,263.14Z"
            fill="#67503f" />
        <path
            d="M949.64,290.57A26.32,26.32,0,0,1,954.71,275C956.24,281.23,954.18,286.3,949.64,290.57Z"
            fill="#81644b" />
        <path
            d="M956.4,263.14a8.1,8.1,0,0,0,1.46,4.64c-.72,2.55-.45,5.54-3.16,7.23C952.91,270.71,954.86,267,956.4,263.14Z"
            fill="#81644b" />
        <path
            d="M986.14,134.57c1.85-9.79-.19-19.55-.29-29.33.8-1.58,1.42-3.32.88-5-1.14-3.6-.12-7,.72-10.38,3.17,9.06,6.19,18.15,3.29,27.89-1.13,3.78.47,7.77-1.24,11.5A16.77,16.77,0,0,1,986.14,134.57Z"
            fill="#816d59" />
        <path
            d="M969.71,315.37c-4,1.57-6.09,5.51-9.62,7.83,1.11-3.46,4.46-6,3.52-10,1.38-5-.18-11,5.06-15.16C971.11,303.84,970.69,309.58,969.71,315.37Z"
            fill="#695442" />
        <path
            d="M529.52,773.35c-3.45-1.83-7-.8-10.59-.54l-3.41,0a9.85,9.85,0,0,1-.18-1c-2.7-4.09-.34-6.84,2.89-8.58,6.77-3.63,13.84-3.17,20.68,0,1.89.88,3.42,2.56,5.57,3.05,4,2.54,3.32,5-.06,7.52-2.6,1.9-5.06,4.29-8.75,2.78h0C533.46,775.76,530.52,776.43,529.52,773.35Z"
            fill="#ead7b4" />
        <path
            d="M544.57,766.63c-1.62,1.1-3.19,1.41-4.61-.31-5.31-6.44-12.3-3.8-18.65-3-4.18.54-6.73,3.66-6,8.41l-4.63.16c-3.39-7.15-2.32-10.22,5.18-13.26a22.41,22.41,0,0,0,8.39-6c5.6-6.16,10.57-6.71,18.13-3.35,2.91,1.29,6.43,1.17,9.63,1.9,1.43.33,3.29.62,3.39,2.63.09,1.7-1.6,2-2.68,2.77-1.93,1.31-3.75,3-5.9,3.72-4.86,1.54-3.17,3.76-1.08,6.26C545.41,767.07,545,767.1,544.57,766.63Z"
            fill="#e5c795" />
        <path
            d="M895.6,134.6l3.42-.18a39.63,39.63,0,0,0-3.42,12C894.26,142.4,894.63,138.49,895.6,134.6Z"
            fill="#8e7157" />
        <path
            d="M632.91,452.68c.12-5.14,2.45-9.71,4-14.44,2.44-7.62,5.56-15,8.4-22.5C644.71,429.24,641.41,441.82,632.91,452.68Z"
            fill="#83694c" />
        <path
            d="M628.54,792.63a9,9,0,0,0-4.74-2.47c-6.81-1.88-13.53-1.13-20.31-.74-7-1.49-13.69-4.27-21-4.73-9.23-.57-12.07-6.56-7.69-14.89,7.93-5.71,16.57-7.19,26.13-5,11.55,2.63,23.17,5.14,34.94.53,4.84-1.9,10-.21,15.09-.41A49.64,49.64,0,0,0,671.2,760c4.71-2.31,9.06-2.17,13,1.5,2.64,2.45,3.9,5,.61,7.9-1.28,1.11-1.45,2.71-2.08,4.11-2.81,1.09-5.33,3.39-8.74,2.06-.31-.12-1,0-1.09.12-2.68,7.11-11.59,6.32-15.32,12.07-1.15,2.77-3.66,2.41-6,2.62C644,791.1,636.12,790.56,628.54,792.63Z"
            fill="#e0cfb0" />
        <path
            d="M682.77,773.53a11.2,11.2,0,0,1,.51-3.39c1-2.08,4.25-3.81,1.26-6.43s-6.28-5.63-10.9-3.08c-7.8,4.31-16,6.44-25,5.33-7.79-1-15.09,2.84-22.75,2.87-9.21,0-18.33-.6-27.42-3-8.12-2.15-16,.59-23,5.1-5.06,3.16-10.67,2.42-16.16,2.05-1.83-.12-3.84-.84-3.91-3.37a4.51,4.51,0,0,0,4.13-2.89c2.54-7.42,10-6.89,15.18-10.13s11.11-5.34,15.3-9.93c2.83-3.1,5.77-3.52,8.55-.66s2.2,5.36-1.55,7.41c-4.06,2.23-1.43,5.3.6,6.41,9.2,5,19.42,10,29.53,5.77,8.52-3.53,16.56-1.19,24.74-2.13,5.41-.62,10.09-2.28,13.23-7a2.05,2.05,0,0,1,.86-.67c4.07-1.79,18.59,1.51,21.83,5.09,2.56,2.82,2.36,5.85-.58,8.13A35.76,35.76,0,0,0,682.77,773.53Z"
            fill="#e5c795" />
        <path
            d="M555.35,769.59c3.78,3.65,8.36,1.51,12.61,1.66,2.48.08,5-.22,7.46-.34.07,3.09-5.45,6.23.24,9.32,3.05,1.66,5.74,3.16,9.6,3.32,6.41.27,12.89,1.65,18.23,5.87-8.39,1.15-16.63.59-24.31-3.18A25,25,0,0,0,567.5,784a35.42,35.42,0,0,1-19.62-5.21c-3.89-2.24-8.41-.09-12.21-2.22,4.5.19,6.89-3.46,10-5.69,2.23-1.61-.68-2.78-1.09-4.2l1.2-.08Z"
            fill="#d6c2a2" />
        <path
            d="M857.48,466.92l-29.34,21.71c-1.54-.55-2.63-2.26-4.77-1.32-1.3.57-3.31,1.16-4.19-.51s1-2.75,1.7-4.07c1.86-3.77,5.7-5.5,8.72-8.37.86,1.89-.68,2.3-1.21,3.15-1.07,1.72-4.16,3.31-2.49,5.25,1.91,2.21,2.8-1.84,4.47-2,9.36-1,12.45-9.32,17.64-15.06C852.19,461.06,854.69,463.77,857.48,466.92Z"
            fill="#8b6a4c" />
        <path
            d="M741.46,544.74l-10.38,4.19c3.56-5,8.44-9.82,13.81-10.91,4.63-.94,9.6-1.42,14.45-3-4.77,3.11-7.44,7.49-9.72,12.17-.68,1.39-1.13,3-3.28,2.06C736,553.35,726,558,716.07,563.05c7.79-8.92,19.85-10.68,29-17.32.21-.45,1.12-1,.59-1.28A3.7,3.7,0,0,0,741.46,544.74Z"
            fill="#8d7058" />
        <path d="M852.33,480.08l-1.05,2.52L842.52,489l-1-1.22C845,485,847.64,481.36,852.33,480.08Z"
            fill="#362519" />
        <path
            d="M741.46,544.74c2.08-1.94,4.91-1.2,7.56-2.7-.77,2.59-2.08,3.5-4,3.69C744.13,544.37,742.74,544.75,741.46,544.74Z"
            fill="#7a5b41" />
        <path
            d="M623.09,466.23l1.14-1c2.83,3.91-.85,6.52-2.05,9.58-.16.39-.92-.75-1.1-1.43C621.06,470.79,624.07,469.07,623.09,466.23Z"
            fill="#2d1d15" />
        <path
            d="M682.58,561.91c-1.69,0-4,.47-4.37-1.62-.41-2.39,2.08-1.76,3.32-1.71,1.62.07,4.29-1.63,4.64,1.32C686.36,561.61,684.11,561.76,682.58,561.91Z"
            fill="#422e21" />
        <path
            d="M671.71,807.9c-2.14-.43-4.47-2.16-4.21-3.42a8.86,8.86,0,0,1,5.25-6.62,2,2,0,0,1,2.68,2.1C674.79,802.81,674.87,806.17,671.71,807.9Z"
            fill="#b39b7b" />
        <path
            d="M529.52,773.35l6.14,3.17c-4.56,3.38-9.94,2.77-15.13,3.09-.64-2.89.6-4.71,3.7-4.39C526.53,775.45,528.46,776.06,529.52,773.35Z"
            fill="#d6c2a2" />
        <path
            d="M620.5,659.18c-2.8-1.61-7.28-1.7-12.09-.41-1,.27-4.5-1-4.42-3.73.07-2.18,1.31-4.4,3.6-4.83,6.73-1.25,13.25-4.28,20.28-3,3.64.66,4.65,3.61,3.07,6.61C629.19,657.13,626.45,659.72,620.5,659.18Z"
            fill="#d7ac78" />
        <path d="M616.36,677.05c-.07-2.35,1.14-3.51,3.43-3.68,2.41,3,1.67,4.69-2.12,5.11Z"
            fill="#dac7b1" />
        <path
            d="M735.12,649.67c1.39,1.52,2,4.08,4.4,4.24s1.1-2.49,2.25-3.65c2.49,4.74,7.45,4.1,11.56,5.14,1.26.32,3.4-.1,3.08,1.42-1.23,5.81,5.28,10.4,2.32,16.32l-2.24,1.36c-2.56.28-4.34,2.54-6.94,2.74s-5.16,2.49-8.15,1.55c.1-1,.34-2.22,1.46-2.22,7.18,0,6.17-3.77,4.23-8.41-.71-1.72-.43-3.83-.66-5.76-.16-1.29.21-2.91-1.52-3.42-1.48-.44-2.69.48-3.63,1.42s-1.82,2.52-2.86,3.65c-1.5,1.63-3.27,3.1-3.66-.68s-4-6.31-4.19-10.45S731.21,647.44,735.12,649.67Z"
            fill="#baab92" />
        <path
            d="M710.74,678c7,.22,13.91-4.2,21-.19a21.13,21.13,0,0,0,3.84,1.29C727,685.09,718.77,683.78,710.74,678Z"
            fill="#bb9570" />
        <path
            d="M749.55,677.24c2.08-1.5,3.71-4.15,6.94-2.74C754.39,676,752.82,678.73,749.55,677.24Z"
            fill="#bb9570" />
        <path
            d="M751.38,623.13c-1.17,4.49-5.55,6.65-7.63,10.46s-7.45,5.79-6.58,11.33c-4.09-6-2.94-10.67,3.3-13.19.84-.34.94-.76,1.2-1.55,1.2-3.54,1.85-8,7.61-5.44.91.4.9-.94,1-1.66A1.26,1.26,0,0,1,751.38,623.13Z"
            fill="#afa48f" />
        <path
            d="M780.7,619.11l2.35-.16c8.38,1.91,8.06,10.12,11.31,15.72a2.35,2.35,0,0,1-.7,3.12c-1,.6-1.7-.63-2.55-.86-5.66-1.53-11.27-4.68-17.2-.75-.76.5-2.21,1.13-2.64.8-3.54-2.77-6.5-.16-9.64.79-1.59.4-2.38,3.13-4.5,1.8s-.72-2.62.13-4a1.57,1.57,0,0,0-.57-2.48c-1.6-.61-2.09.73-2.15,1.88-.18,3.54-1.5,5.11-5.24,3.73-5.32-2-.13-5.23-1-7.76-.16-.46.76-1.29,1.18-1.94,7,3.9,14.14,1.22,21.12,0,3.76-.63,7.29-2.73,11.17-.59,2.2,1.21,3.26-.86,4.35-1.88,1.51-1.4.32-2.86-.9-3.92C783.77,621.43,782.21,620.3,780.7,619.11Z"
            fill="#8a4c2f" />
    </g>
    <g id="frame">
        <rect width="1000" height="1000" fill="none" />
    </g>
</svg>