<!-- Copyright (c) 2022 - 2023 Jan Stehno -->
<svg xmlns="http://www.w3.org/2000/svg" viewBox="0 0 1000 1000"><title>beceiteibex</title><g id="beceiteibex"><path d="M701.38,608.89l5-56.28a61.78,61.78,0,0,1,.7-7.35c5.53-25.88,9.77-52.21,19.63-76.84,4.11-10.27,7.62-20.68,11.26-31.07a55.37,55.37,0,0,1,6.18-12.74h0c2.32-3.77,9.48-24,10.63-28-3.25-2.36-10.69,16.67-11.4,18.17-5.91,12.42-9.92,25.5-13.8,38.64-2,6.68-5.41,12.9-8.36,19.08-2.59,5.41-10.16,6.49-16.41,8.1,4.12-3.94,6.39-7.94,3-13.21a1.24,1.24,0,0,1-.11-1.2c5.12-8.82,2.19-19.68,8.06-28.73,3.16-4.86,4.56-11.81,3.86-18.36-1.09-2.21-3-3.81-5.33-3.1-3.15.94-1.36,3.79-1.34,5.78,0,2.75-.25,5.27-2.25,7.33-3.39,6.44-7.28,12.69-8.09,20.14a20.35,20.35,0,0,1-4.84,11c-5.15,12.72-6.89,26.47-11.93,39.23-2.89,14.7-10.49,28.34-9.88,43.82.12,3-3.1,4.9-2.6,8-.17,4.09,3.77,4.59,5.88,6.69,2.42,3.44,3.81,7.63,8.7,9,2.8.77.42,5.08,4.2,6.18-4.21,1.78-7.81,2.34-10.06,5.38s-3.06,5.56,1.68,6.81c1.39.37,3,.57,2.94,2.49,0,1.38-1.13,2-2.27,2.62-1.88,1-6.08,0-5.07,3.62s4.73,2,7.38,1.73c.82-.42.5,1,.36.22,0-.21-.21-.07-.61,0-1.81.41-3.05,1.36-3,3.32.08,2.17,1.85,2.36,3.49,2.72,1.07.23,2.76.15,2.26,2-.19.71-1.36.77-2.14,1a52.83,52.83,0,0,1-11.51,2.39c-2.81.2-4.69,1.37-5.28,4.24s.49,4.2,3,5.91c3.9,2.71,7.66,6.09,5.32,12-1.71,4.36,1.39,5.72,5.15,6.42-2.79.87-5.51.71-8.14,1.13-2.21.35-4.87.43-5,3.51s1.87,4.35,4.7,4.64a2.72,2.72,0,0,1,1.88.81c-1.41,1.71-3.81,1.2-5.42,2.33-1,.74-2,1.59-1.75,3a2.32,2.32,0,0,0,2.84,1.81c4.69-.94,8.82,2,13.39,1.75,6.16-1.57,9-6.59,12.12-11.39,1.3-2.5.82-5.74,3.31-7.74,2.64-2.23,5.9-4.44,0-6.71-2.87-1.11-3-3.37-2.6-6C699.79,618.4,702.12,613.88,701.38,608.89Z" fill="#2b1c08"/><path d="M767.53,310.94c-7,8.38-17.1,13.51-24.07,21.85-6.32,7.55-14.77,12.79-20.94,20.49-5.89,7.38-15.43,9.87-22.72,15.47-10.39,8-20.94,15.76-28.39,26.8a3.22,3.22,0,0,0-.8,2.49c1.85,2.87,5.1,2.77,7.92,3.48-.34,1.73-1.49,2.57-2.63,3.46-4.35,3.42-5.5,7.37-2.85,12.12,1.81,3.24,2.14,5.09-2.09,6.11-2,.48-2.81,2.24-2.43,4.36,1.23,1.92,3.79,2.23,5.05,4.13,3.64-.15,4.14-3.56,5.91-5.64,1.34-1.87,2-4.4,4.67-5,2.84-1.83,1-5.38,2.82-7.56,2.1-4.61,4.86-8.84,7.24-13.29a3.81,3.81,0,0,0,.07-2.58,2.72,2.72,0,0,0-3.77-.63c-4.25,2.27-4.09-.71-4.22-3.41-.44-1.64-3.57-1.63-2.75-3.8.54-1.42,2.53-.3,3.73-.93,3.06-5.68,7.27-10.54,11.6-15.23,5.49-5.95,12.93-7.49,20.69-7.87,3.08-2.25,6.9-3.75,8.07-7.92-.44-4.66,3.39.78,3.91-1.62,3.56-2.16,6.81-4.64,8.53-8.61.26-2.06.28-4.4,3.52-2.89a49.37,49.37,0,0,0,13.46-7.58,60.93,60.93,0,0,1,15.79-9.3c6.36-2.6,11.66-7.48,18.33-9.93a191.69,191.69,0,0,0,26.46-11.76,4.87,4.87,0,0,1,3.57-.54c6.75,1.56,12.83-1.25,18.31-4.09a21,21,0,0,1,12.23-2.44,8.52,8.52,0,0,0,2.52-.7c3.84-1.52,7.88-1.5,11.91-1.6a9.6,9.6,0,0,0,2.58-.71c4.65-1.66,9.44-.79,14.18-.78a16.6,16.6,0,0,0,4.65-.62c6.6-.31,13.15-1.09,19.68-2,2.2-.32,4.65-.13,5.83-2.66-.14-.81-.94-2.12-.77-2.22,4.73-2.67,5.68-10.25,12.81-9.8a12.19,12.19,0,0,0,4.27-.62c1.87-.57,4.78-.5,4.53-3.18s-3.19-1.75-5.05-2.17c-14.36.54-28.74,1.92-42.95-1.5-18-4.32-35.24-1.26-51.3,7-8.34,4.28-17.44,5.82-25.81,9.61a90.24,90.24,0,0,1-15.8,8.77c-.78.34-1.55.69-2.36,1C782.39,300.6,775.61,306.83,767.53,310.94Z" fill="#8c6b50"/><path d="M526.12,843.85a3.58,3.58,0,0,1,1.3-.67c7.71-2,10.61.79,18.42-.63,5.28-1,12.07,2.43,16.48,5.23s9.81,2.62,14.22,4.91c2,1,6.56,2.14,8.47,3.33,2.55,1.12,5.19,2.78,6.92-1.1,2.43-4.11,5.56-7.66,7.07-12.52,1.23-4,3.67-8.26,7.69-9.83,6.77-2.62,15.64-2.92,22.44-5.45,2.18-2.41,4.79-.8,7.24-.77,2.29-.81,3.4-2.35,2.54-4.73-1-2.83-3.37-4-6.21-4.27-5.73-.5-11.46,0-17.18.25a3.65,3.65,0,0,0-1.84.09c-7.54,4.2-15.44,2.94-23.43,1.87a74,74,0,0,0-30,2.52c-4.39.3-8.46,1.76-12.52,3.33-6.35,2.43-12.6,4.91-19.7,4.89-5.77,0-9.29,5-13.4,8.22-2.08,1.64.26,3.53,1.81,4.2C519.49,844,522.75,844.8,526.12,843.85Z" fill="#341d06"/><path d="M691.47,982.37c2.2,5.07,1,10.65,2.54,15.91,2.16,1,2.1-2.15,3.77-2.15.06.15.23.34.21.5s-.31.3-.35.48c-.17.69-.29,1.4-.57,2.89,4.06-2.7,3.14-6.51,4-9.59-1.14-3,2.06-5.17,1.56-8,.65-5.16-2.12-9.42-3.74-14-.35-1-1-2.19-2.08-1.94-6,1.4-6.4-3.6-7.08-6.8-1.47-6.9-6.7-11.89-8.57-18.73A17.73,17.73,0,0,0,674,932a6,6,0,0,1-3-5.68c.59-8.29-6.69-5.43-11.46-7.05,2.61-2.72,7.36-2.61,6.49-7.11-1.56-2.26-3.73-1.49-5.59-.83-3.47,1.23-6.38,1.83-7.71-2.8-.38-1.3-2.24-.72-3.25-1.4,1.47-4,10.92-.77,7.5-9.06,2.62,1.59,4.25,5.19,7.6,2.18.46-.72.94-1.74.43-2.29-4.89-5.34-2.21-9.59,1.85-13.69a4.92,4.92,0,0,0,.49-2.56c-2.27-4.76-6.53-8.88-4-15.07.62-1.57-1.24-3.31-2.33-4.8-2.74-3.76-3.19-7.31,1.14-10.32,1.41-3.55,1.3-6.94-1.07-10.09-1.23-1.08-2.51-2.16-2.1-4.06,1.26-5.87-2.74-10.44-4-15.68-.93-3.79-4.5-3-9.6.47,2.52,4.2,2.47,8.14,2.27,12.64,7.25,9.61,6.15,20,2.54,30.43-.84,2.43-1.52,4.68-.58,7.13.58,1.49,1.48,2.39,3.33,1.72.66-.24,1.09-1.94,1.51-.94.48,1.17,2.49,2.87.15,4.21a15.9,15.9,0,0,1-3.88,1.86c-6.93,1.71-8.17,3-8.85,9.71a56.52,56.52,0,0,0-.74,6.73c.89,7.27,1.58,14.39,6.66,20.57,2.39,2.91,1.74,7.76,2.61,11.66.59,2.7.75,4.6,3.48,5.32,7.19,1.91,7.43,8.06,8.37,13.65,1,6.14,2.13,7.24,8.66,7-3.29,7.26,3.07,10.16,6.72,13.83C682.35,972.45,686.66,977.64,691.47,982.37Z" fill="#996b44"/><path d="M615.83,600.35c-1.84,10.76.5,21.61-.67,32.4-.34,3.14-1.09,5.14-4.36,6.54A35.41,35.41,0,0,0,593.9,654c1.45,1,2.83.38,4-.44a81,81,0,0,1,25.23-12.13c4-1.1,1.34-3.76.06-5.7-.55-2.18,1-1.15,1.67-.94,3,.86,5.68,2.53,8.76,3,4.62.75,6.49-.85,6.39-5.59-.07-3.34.89-6.31,1.87-9.49,1.76-5.7-.4-11.39-3.29-16.3-1.79-3-4.15-1.7-5.45,1.22-1.14,2.58-.64,5.73-3.24,8.65a7.46,7.46,0,0,1,1.09-8.11c1-1.27,2.4-2.34,2-4.27-.12-.63-2.45-2.64.89-1.05,9,4.23,18.68,4.86,28.42,5.11,3.77.1,5.59-2.13,6.39-5.51a32.73,32.73,0,0,0,0-10.36c-4-4.45-5.57-1.18-6.5,2.3-1.12,4.21-2.36,5.85-5.56,1.42-1.34-1.85-3.17-1.85-4.78-.34-1.31,1.23-2.17,3.2-4.46,1.52-2-1.49-4-3-3.57-5.91.41-2.62.13-5.34,1.09-7.87,2.12-5.61.66-8.78-5-11.2-6-2.6-12.45-3.9-18.8-5.46-2.67.31-2.93,2-2.35,4.12h0a7.81,7.81,0,0,1,1.25,7,24.29,24.29,0,0,0-.71,9.78C619.93,592.27,621.43,597.25,615.83,600.35Z" fill="#8a6748"/><path d="M669.27,926.35c-.08,3.56.75,6.33,4.81,7.48,1.26.36,3.65,1.68,1.56,4.09-1.35,1.55-.2,2.39,1.19,2.18,4.75-.73,4.53,2,4,5.21-.14,1-.18,2.5.36,2.87,7.81,5.28,5.73,15.86,12,21.81,1.4,1.34,1.68-2.32,3.85-2.75.78,5,4.71,9,4.35,14.38.45,1.52.7,2.29,1.79,5.23v0c.13,2.61.11,5.33,3.6,5.88s2.59,6.34,7,5.57c1.66-5.93.07-11.84-.28-17.9,3.68,3.59,3.24,8.76,6.42,12.7,1.77.2.71-2.29,2.09-2.92,1.25.93,1,2.58,1.27,4.06,3.19-.13,1.86-2.72,2.37-4.3l-.31-7.48a56.15,56.15,0,0,0-.07-13.71c-1.23-3.44-3.2-6.45-6.9-7.3-8.16-1.87-10.63.95-8.79,9.56-2-.64-3.66-1.13-2.53-4.06,2.48-6.49,5-7.78,12.69-5.52,1.57.46,3.19,1.68,4.6.32,1.68-1.61.22-2.95-1-4.12-.33-.31,1.61-1.42,1.65-1.86.49-5.77-1.68-4.94-7.75-5.33.33-2.51,5.58-4.16,1.47-7.43-3.41-2.72-6.74-4.27-10.34-.63-2,2-3.83.48-5.7.07-2.59-.57-5.42-2-7.38.79s.75,5,1.83,7.23c1,2,3.49,2.86,4.47,5-5.1.76-6.44-.85-10.26-12.48a22.46,22.46,0,0,0,6.9-2.11c2.74-1.18,4.48-2.88,4.61-5.9.15-3.36-2.44-4.49-4.91-5.59a10.23,10.23,0,0,0-6-.88c-2,.44-2.87,2.36-4.46,3.32-3.28.38-4.49-1.7-5.27-4.32a4.82,4.82,0,0,0-1.84-1.66,13.78,13.78,0,0,0-2.3-1.08C674.93,924.18,671.8,923.57,669.27,926.35Z" fill="#ca8e5a"/><path d="M791.09,931.65l.61-5.86c-.11-.9-.26-1.76-1.32-2.06-5.28-1.33-10.5-.12-15.75.34-1.89.16-3.87.23-4.67,2.22-.72,1.79.74,3,1.78,4.25s3.11,2.21,2.27,4c-1.06,2.18-2.83.1-4.29,0-2.9-.22-3.37,1.71-3.64,3.86-.41,3.18-1.29,6-4.87,7-1.36.48-2.69,1.07-4.09,1.42-7.92,1.16-9.69,5.09-10.06,12.24-.13,2.62-1.75,3-3.68,3.14-2.18.18-5.06-.73-5.89,2-.9,3,2.51,3.22,4,4.67a7.64,7.64,0,0,1,1.9,1.94c-2.53.63-4.78,2.06-4.11,4.82.86,3.59-1.5,5.21-3.4,7.26a3.37,3.37,0,0,0,0,2.66c1.83,1.52,3.5.48,5.18-.32,3.42-2.67,4-7.56,8.63-10.52-2.38,8.27-6,15.67-4.51,25,2.11-3.66,3.58-6.32,4-9.51s-.38-6.19.85-9.27c2.12.28.94,3.19,3.66,3.81,3-7.53-.13-15.53,1.33-23.57,7.93,8.91,4.28,19.37,5.05,29.75,4.42-4.25,6.86-9,6.6-14.64-.26-5.92-1.06-11.81-1.66-17.71-.12-1.19-1.45-2.58.87-3.18,2.08-.54,3.33.36,3.67,2.19.66,3.61,1,7.29,1.59,10.92.33,2-.86,4.47,1.84,5.69,1.75.19,2.64-.92,3.41-2.22q-.2-5.13-.38-10.26c1.5-3-.14-6,.09-8.45.44,1.61.3,4,1.53,6,.67,1.07,1.15,3,3.05,1.22.12-.11,0-.35.25-.42-2.23,3.29-.24,6.73-.34,10.09l-.38,3.68c1.21.52,1.85-.18,2.37-1.12.55.94-.52-4.42.92-.23a1.22,1.22,0,0,0,1.9.75c1.11-.81,1.06-2,.67-3.27.86-10,5.79-19.26,5.38-29.49-.05-1.2-.14-2.4-.21-3.6-2.26-2.44-5.5-2.63-8.4-3.61-1-.33-2.32-.48-1.92-1.82.5-1.7,1.89-1.24,3-.56,1.89,1.14,3.39,3.2,6,2.58A1.42,1.42,0,0,0,791.09,931.65Z" fill="#cd9869"/><path d="M673.43,431.35c1.5-4.94-2.26-3.05-4.36-3.32-2.1,4.18-4.9,7.37-9.71,7.16,2.11-.95,5.86-1.22,5.6-4.66s-4-1.36-6.48-2c1.74-4.75,1.64-9.81,6-13.22,1.8-1.41,1.75-4,2.26-6.23.22-2.71,1.73-4.76,3.49-6.67.85-1.29,1.72-2.57.82-4.18l.36-2.64c-5.85,5.2-8.73,12.43-11.61,19.18-4.8,11.26-9.44,22.7-12.26,34.7-1.33,5.63-3.77,10.63-6.35,15.8-2.94,5.9-4.26,12.55-4.87,19.46a146.58,146.58,0,0,1-11,43.11c-1.59,3.86-3.42,7.92-2,12.38a1.5,1.5,0,0,0,1.46.58,7,7,0,0,0,1.48-.84c1.63-1.75,5.13-1.85,4.78-5.35-1.14-6.78-1.87-13.31,5.33-17.76,3-1.88,2.72-3.38-.78-7.12,4.29-2.27,6.43-4.3,3.16-10-2.37-4.14,1.16-10.37,3.56-15.05,1.57-3.05,5.69-2.79,9-3.11a19.87,19.87,0,0,0,4.27-.59,7.62,7.62,0,0,0,3.53-2.45c1-1.41,2.17-1.49,3.5-.38,1.66,1.38,3.12,3.07,5.4,3.52,4.32,0,2.49-3.41,2.92-5.46s-.65-3.58-2.92-3.82c-4-.42-3.4-2-2.59-5.36,1.15-4.78,1.7-9.67,3.93-14.15,1.3-2.59,2.68-4.4,5.27-1.06,1.12,1.45,2.59,3.27,4.61,2.06,2.25-1.34,1.65-3.47.39-5.38-3.49-3.46-7-6.84-4.72-12.56C675.45,434.31,674,432.85,673.43,431.35Z" fill="#a58363"/><path d="M701.38,608.89c-1,5.18-2.09,10.34-3.06,15.53-.8,4.25,1.25,6.54,5.57,6.57-.46,2.91-3.27,2.44-3.92,4.22a2.28,2.28,0,0,0-.77,2.34c6.89-.09,13.59.3,17.58,7.21,2,.7,5.85-3.39,6,2.24,2.76,10.23,7.66,19.74,9.92,30.17.8,3.74,2.72,7.13,1.88,11.22-.34,1.64-.12,3.79,2.26,4.44,3.38-5.16,7.19-9.84,13.34-11.92,3.6-2.67,5.7-.85,7,2.51,2.63,6.92,7.88,11.8,12.88,16.9a6.2,6.2,0,0,0,2,1.42c1.83.78,4,2.61,5.63,1s-.75-3.18-1.53-4.68c-.57-1.08-1.17-2.15-1.7-3.25-7.92-14.88-16.14-29.62-28.32-41.54-11.48-11.24-24-21.22-40.45-24.17-5.93-1.07-6.91-3.81-4.91-8.94C702.18,616.53,703.22,612.74,701.38,608.89Z" fill="#6e5037"/><path d="M691.47,982.37c.29-3.24.61-6.48-4.26-6.23-.38,0-1.05-.13-1.13-.36-1.81-5.16-5.05-8.94-10.34-10.79,2.22-3.58-.78-3-2.72-4-1.74-.92-3.44-3.32-.66-5.51,1.31-1,2-2.09.35-3.47-1.23-1-2.5-1.68-3.81-.39-2.9,2.87-4.49.64-4.35-1.71.28-4.68-3.73-8.41-2.46-13.17.17-.64-.31-1.45-.49-2.18-4.42,1.15-5.35-5.11-10.35-4,1.94-2.48,4.08-4-.27-5.9a2.38,2.38,0,0,1-1-2.11c1.78-6-2.13-9.38-5.33-13.53-2.75-3.57.34-9-2.46-13-.82-1.65.16-3.19.28-4.79.26-3.24-2.59-7.06-5.42-6.8-4,.36-2.11,3.63-2.52,5.74a13.08,13.08,0,0,0-.67,3c.08,1.13.49,3.28,2.32,8.56,3.16,9.79,6.92,20.49,10.79,30,3.94,9.71,5.54,16.82,11.33,26.89,1.47,2.91,3.47,5.61,4.51,7.6a285.93,285.93,0,0,0,19.08,31.16C685,992,690.67,988.77,691.47,982.37Z" fill="#734a25"/><path d="M520.61,745.79c-2,2.27-3.2,5.22-6.15,6.57-1.74,2-.29,3,1.3,3.59,6.58,2.56,12.93.89,19.12-1.49,2.1-.81,1.92-2.88,1.5-4.8-1.06-4.79-3.45-9.83,3-13,1.22-.6,1.1-2.55,1.2-4s.33-3.19,1.63-3.83c6.29-3.13,10.43-9.24,16.84-12.09,4.67-2.08,9.76-3.17,12.29-8.48,1.09-2.3,3.43-1.79,5.35-.48,1.67,1.13,3,2.83,5.36,2.73a3.14,3.14,0,0,0,2.22-1.38c4.6-7.64,8.66-15.65,15.92-21.34,3.84-3,3.66-5.16-.4-10.25a24.16,24.16,0,0,1-9.25-4.46c-2-1.41-4.1-2.9-6.61-.87-1.47,4-3.28,7.89-4.33,12A20.57,20.57,0,0,1,573,695c-7.14,6.06-14.54,11.81-21.83,17.68-5.87,7.13-14.06,11.81-20,19C527.41,736.23,525.66,742.24,520.61,745.79Z" fill="#664f37"/><path d="M498.14,770.34,491,775.12c.44,2.24,1.41,4.2,0,6.77s-.6,5.48,2.86,6.64a6.32,6.32,0,0,0,4.26-.41c1.61-.51,3.42-2.49,4.82-.81s0,3.72-.89,5.48c-.35.45-.67.9-1,1.34-1.43,2.51-7.29,3-3.64,7.89.28.37-.71.82-1.22,1.1-2.7,1.44-4.41,3.58-2.41,6.41,2.16,3.05,5.52,3.52,8.77,1.8a76.12,76.12,0,0,0,7.86-4.73c3.36-2.35,6.71-2.52,10.4-2.08a11.27,11.27,0,0,0,4.81-2.31c1.73-3.89,2.16-8,6.35-11.2,2.9-2.22,2.33-8.34,1.51-12.41a7.23,7.23,0,0,0-7.47-6.05c-3,1.57-5.89,3.39-7.21-1.85a3.71,3.71,0,0,0-4.17-2.83C509,768.24,503.23,767,498.14,770.34Z" fill="#f6d8b7"/><path d="M583.52,708.74l-1.48.92c-7.79-2.85-12.58.4-15.92,7.38-1.37,2.87-4.27,4.15-7.41,5-3.46,1-8,1.33-8.52,5.92-.52,4.36,2.59,7.06,6.37,8.93-1.08,2.4-3.35,3.8-3.44,6.56s-2.93,2.28-4.65,3.2c-2.78,1.48-7.35,2.11-4,7.27,1.34,2-1.46,3.47-2.08,5.32-.69,2.06-2.54.18-3.59-.27-4.86-2.11-9.36-3.44-12.88,2.26-1,1.63-2.83,1.43-4.47.69-3.75-1.69-7.73-3-10.2-6.65l-6.09,5.16c-2.23,6.71-2.23,6.75,4.63,6.22,4.24-.32,8.56-1.37,12.25,1.83,3.6,1.57,7.52,2.11,11.25,3.36,5.15,1.72,14.9-4.35,16.75-10,.38-1.16.1-3.13,1-3.44,14.17-4,7.76-12.37,14.35-16.27,1.87-1.11,3.22-1.51,5-.48,2.71,1.55,4.23.86,5.86-2,3.37-5.85,5.8-6,11.39-1.62,2.93,2.29,5.22,2.34,6.13-1.91-.86-1.9-3.73-1.72-4.26-4.12,1.66-1.22,4.85-.2,5.25-3.09.31-2.19-1.5-3.1-3.26-3.82-2-.53-3.86-1.52-6-1.27-1.82.73-1.75,4.31-4.49,3.35-2.31-.8-2.11-3.45-2.33-5.32-.65-5.27,3.73-1.61,5.46-2.79,1.16-.77,2-2,3.49-2.33,3.53-.69,3.5-2.78,2.1-5.38-1.08-1.89-4.76,1.1-4.89-2.6A1,1,0,0,0,583.52,708.74Z" fill="#a17b57"/><path d="M511.29,755.29c-.91,5.18,3.76,4.83,6.43,6.55,4.61,3,7.91,3.28,11.9-1.89,3.63-4.72,7.69,1.65,11.81,1.83,1,.05,1.33,2.15,3.45,1.43-2.11-4-.49-6.77,3.08-8.43.32-3.26-4.8-.65-3.62-3.59.89-2.21,3.33-3.49,6-3.55,3.06-.07,6.31,0,4.28-4.73-.16-.35-.22-1.07,0-1.17,6.36-3.92,5.4-5.54-1.15-8.85-4.86-2.46-2.85-7,3.14-8.59,7-1.83,13-4.82,14.62-12.95.6-3.05,3.16-2.17,4.9-1.13,2.27,1.36,4.14,1.76,5.92-.56-2.28-.35-3.16-2.53-4.83-3.69-3.2-2.21-6.31-2.09-7.47,1.66-1.44,4.63-5.23,5.47-8.76,6.7-4.38,1.52-8.45,3.09-10.83,7.48-1,1.92-3.48,2-5.23,3.07-3.32,2-7.31,3.57-5.83,8.82.21.77-.41,2.5-1,2.66-9.47,2.69-3.82,8.68-3,13.54.27,1.61,1.28,3.75-1.21,3.85-5.44.21-10.54,3.71-16.27,1.45-1.6-.64-3.29-.56-3.17-2.84C512.77,752.66,512.14,754.1,511.29,755.29Z" fill="#755a3f"/><path d="M774.46,694.78c-.61,3,2.34,4.61,3.17,8.15-9.12-4.78-15.38-11.09-18.63-19.94-1.18-3.22-3.35-4.31-6.07-5.34-2.31-.88-2.87.6-3.4,2.26a8.51,8.51,0,0,0,2.09,2.74c2.76,3.91,5.48,7.34,5.88,12.85.36,4.9,3.8,9.75,6.15,14.46a4.68,4.68,0,0,0,7.51.95c3-3.34,4.25-1.18,6.18.76,3.5,3.52,5.2,8.83,10.68,10.43,1.09.32,1.71,1.88,1.7,3.12-.11,9.78,6.87,13.09,14.48,15.76,3.1,1.09,5.76,2.62,6.31,6,.89,5.61,5.14,7.3,9.71,8.78,3.68-1.36,4.85-3.46,2-6.72-8.57-9.89-17.08-19.83-25.73-29.65C789.18,711.18,781.15,703.57,774.46,694.78Z" fill="#8e6444"/><path d="M635.2,893.33c.17-2.59.35-5.17.52-7.83,6.58,1.15,5.84,6.26,6.51,10.54,1.87-4.44-.5-10,3.59-13.85.69-.65,1-2.62,1.89-2,5.52,4.07,7.22-3.79,12.07-3.25-6.42-1.94-2.76-7-4-10.92-2.8,2.05-1.64,5.39-3.85,7.6-1.72-2.16-2.54-4.69-1.12-6.58,4-5.31,3.24-11.63,3.75-17.43s-1.42-11.63-6.7-15.49a4.41,4.41,0,0,0-1.59.72c-5.39,4.32.24,9.53-1.09,14.2-.1.35.79.86,1.29,1.22-6.36.33-2.58,8-7.12,9.77-3.45,1.38-6.43,3.29-7.5,7.47-.57,2.23-1.69-1.4-2.87-.42-.58,4.66,1.55,9,2.49,13.3s2.19,8.43,2.43,12.83A.8.8,0,0,0,635.2,893.33Z" fill="#865c38"/><path d="M929,272.35l3.9,1.16c.14,1.39-.49,1.93-1.37,1.79-9.5-1.43-14.46,6.36-21.27,10.37-.6.35-1.35,1.35-1.23,1.87.5,2.15,2.7,1.26,4.06,1.95l.86,0a15.14,15.14,0,0,0,9.9-8.84c.29,4.39,2.94,5.57,6.45,5.74,9.51-1.72,18.38-5.58,27.21-9.17,6.19-2.52,12.88-4.23,18.43-8.27,1.23-1.42,3.52-1.55,4.45-3.12,1.67-2.83,1,1,1.82.52l8.9-7.17c1.46-3,.81-4.7-2.89-4.35-13.77,4.77-27.52,9.58-41.3,14.31-5.74,2-11.72,2-17.69,1.95-.37.22-.52.48-.47.77S928.89,272.33,929,272.35Z" fill="#ad8e74"/><path d="M483.15,815.64c8.08,11.23,15.83,22.83,30.29,27,1.44-3.29-4.57-5.16-2.1-7.82,1.87-2,5.77-1.44,8.51-2.93,5.06-2.75,11.33-1.68,16.22-5.09,1.75-1.22,4.43-1.49,4.11-4.53-4-2.23-7,1.4-10.79,1.78,4.71-1.47,8.84-3.66,13.43-4.65,2.92-.63,4.39-3.09,5.57-5.44,1.45-2.87-.95-6.1-3.74-4.82-3.16,1.45-5.32.18-8.06-.46s-6.25-.08-4.09,4.11c1.45,2.79-.59,2.63-1.8,3.32-12.06,6.79-24.32,8.95-36.94,1.4-3-1-5.53-2.32-6.3-5.83-.39-1.77-1.54-4-3.52-3.5-2.53.64-1.69,3.21-1.4,5.15C482.66,814.08,483,814.84,483.15,815.64Z" fill="#906840"/><path d="M629,867.09a42.79,42.79,0,0,0,2.41,4.23c.38.54,1.33.68,2,1,.28-.71,1-1.63.78-2.11-2.89-6.3,2.43-7,6-8.72,2.68-1.3,5.38-2,3.16-6.16-1.53-2.89,1.22-3.29,3.42-2.93,1.14.18,2.56,1.37,3.22-.06.77-1.67-.79-2.49-2.19-3-1.15-.44-2.79-.93-1.81-2.43,1.82-2.79.79-4.7-.87-7.13-1.43-2.12,1.75-2.78,2.45-4.34-1.93-3.71-2.08-9.57-7.29-10.89-2.29,3-.31,7.84-2.56,11.3-1.8-3.41,1.57-7.68-2.09-10.31-2.42-.44-5-1.53-6.51,1.62,3.35-1,5.41-1,4.7,3.71C632,842.89,629.52,854.86,629,867.09Z" fill="#724a24"/><path d="M754.78,396.57c1.19-5.49,4.84-9.85,7.17-14.81,10.28-21.81,10.38-21.89,29.64-37.08,9.67-7.63,19.63-15,30.78-20.53,21.19-10.58,43.14-18.7,66.77-21.79,12.15-1.59,24.33-3.09,35.75-8-.16-.27-.32-.54-.47-.81-1.84-1.46-3.89-1.32-5.88-.55-12.07,4.67-25,4.8-37.55,7-25.13,4.46-48.52,13-70.1,26.53a61.26,61.26,0,0,1-7.5,4.32c-11.94,9.31-24.94,17.38-34.66,29.32-1.31,1.6-2.75,3.09-3.18,5.16-1.67,8.19-6.69,14.81-10.37,22.05-1.4,2.75-3.23,5.31-2.06,8.63A1.25,1.25,0,0,0,754.78,396.57Z" fill="#4d3a28"/><path d="M583.93,672.18c3.71-.62,6.1,2.07,8.4,4s4.44,2.51,7.16,1.63c.15-.25.29-.5.43-.75a3.74,3.74,0,0,0-.6-1.72c-4.72-6.83-4.69-7.69.87-13.64,2.91-3.11,6.35-5.66,8-9.94,1-2.66,3.83-2.76,6.41-2,2,.61,3.61,1.93,5.52,2.71a4.15,4.15,0,0,0,3.62-.18c2-3.28,2.66-7.13,4.65-10.44,1.28-2.12,0-4-1.8-5.14-1.58-1-3.41-3.35-5.21-.13,1,.95,2.95,1.47,2.39,3.12-.49,1.46-2.27.17-3.27.55-7.46,2.84-14.91,5.74-21.33,10.63-1.63,1.24-3.11,2.72-5.25,3.1Z" fill="#7c5c40"/><path d="M929,272.35c.08-.41.15-.82.23-1.24-15.36.09-30.71,1.43-45.94-2.51S853.17,268,839.61,274s-28.09,9-40.82,16.59c-3.68,2.2-7.44,4.28-11.16,6.41a3.5,3.5,0,0,0,3.92.91l1.39-.77a151.46,151.46,0,0,1,15.64-8.51c3.48-1.49,6.69-3.2,10.82-3.27,3.21,0,6.48-1.63,9.54-3.65,9-5.92,19.06-9.09,29.77-11s21,.2,31.42,1.75C903.05,274.39,916,274.84,929,272.35Z" fill="#ad8e74"/><path d="M540.16,822.54c-2.1,3.17-6.22,4.34-8.92,4.72-6.56.9-12.26,4.47-18.72,5-5.41.46-5.34,2.47-2.45,6,1.16,1.41,2.24,2.89,3.37,4.33,4,2.18,8,4.9,12.68,1.24-3.68-1.42-8.29-.47-11.49-4.35,13.78-9.89,30.67-9.9,45.48-15.8,1.18-.51,2.43-1,1.57-2.7-3.51-4-8-2.57-12.29-2.12C546.07,819.47,542.4,819.24,540.16,822.54Z" fill="#5c3e1f"/><path d="M822.19,749.09c.81,2.61,1,5-2.43,5.85.32,3.87,3.91,6.13,4.83,9.71a7.5,7.5,0,0,0,4.1,3.55c2.95.64,3.71,2.74,3.71,5.41,0,3.53,1.89,5.59,5.23,6.48,3,.39,5.94,3.15,9.06.33.52-3-2.1-3-3.77-3.83-1-.52-2.64-.56-2.2-2.3a3.19,3.19,0,0,1,2.72-2.19c2.27-.44,4.41.34,6.6.85,7.57,1.79,6.89,1.73,8,.54-14.66-8.6-22.75-12.72-30.92-20C825.46,752,824.7,749.59,822.19,749.09Z" fill="#a97c59"/><path d="M975.61,267.6c-5.82,4.23-13,5.64-19.36,8.71-8.17,3.92-17.21,6.07-25.87,9-.84.31-1.65.64-2,1.59a2,2,0,0,0,.8,1.46c4.84,2,8-2,11.87-3.09-3.46,1.7-6.93,3.55-11,4.28-2.35.43-4.8,1.42-5.5,4.29.1.19.19.38.29.58,11.62-1.73,21.3-8.26,31.71-12.92,7.42-3.31,14.95-6.71,21.16-12.22C978.23,267.19,977.46,266.7,975.61,267.6Z" fill="#4d3a28"/><path d="M522.82,767.74c-5.3-6.8-12-1.46-18.23-2.3.18-1.47.39-3.23.61-5-2.92,2.9-3,7.78-7.06,9.89,5.31-.34,10.67-.35,15.9-1.18,2.84-.44,3,1,3.71,2.74,2.7,7,2.84,7,7.92,1.38,0-.26-.06-.53-.08-.8C525.08,770.66,524.48,768.89,522.82,767.74Z" fill="#dcb692"/><path d="M615.83,600.35c6.59-1.64,8.09-4.9,5.31-11.5-1.41-3.35-.91-8.07.36-12.06.91-2.87-.17-4.74-2.65-6.07C619.56,580.77,615.34,590.32,615.83,600.35Z" fill="#ad8f71"/><path d="M493.93,787.38c-2.78-1.34-3.47-4.24-1.55-5.74,4.73-3.7.13-4.62-1.4-6.52-6.84,5.9-12.32,12.44-10.69,22.35a3,3,0,0,0,1.38-1.05c1.46-2.49,1.31-5.46,2.62-8.41C487.63,790.4,491.23,793.37,493.93,787.38Z" fill="#c4a984"/><path d="M480.91,796c-.21.5-.41,1-.62,1.48-.3,6.25-.48,12.48,2.86,18.17.84-2.1-1.24-4.46,1.29-7.29,1.93,4.88,2.33,11.31,9.61,10.45a2.79,2.79,0,0,0,1-1.43c.39-3.37-1.62-5.59-3.77-7.73-3.77-2.43-5.29-6.14-6-10.34-2.05-.47-2.43.52-2,2.16C481.66,800.07,484.14,796.78,480.91,796Z" fill="#af8f62"/><path d="M520.61,745.79c2.87-.65,4.72-3,5.86-5.12,4.51-8.47,11-15,18.73-20.46,2.63-1.86,4.4-4.71,5.94-7.58-9.14,6.74-18,13.75-24.3,23.46Z" fill="#755a3f"/><path d="M776.4,972,773,974.23c-2.59,6.57-.79,13.77-4.12,21.27,3.59-1.32,4.12-3.81,5.78-5.07,2.48-3.71,1.6-8.07,2.33-12.11C776.79,976.22,776.59,974.12,776.4,972Z" fill="#ad8560"/><path d="M624.77,540.32l-1.47-.14c-.28,5.66-3.26,10.59-4.4,16-1,4.86-1.89,9.67,0,14.51.58-1.52.54-3.64,3.13-3.23a2.4,2.4,0,0,0,2.22-1.26c1.24-4.21-2.54-7.67-1.75-11.82.69-4.6,4-8.1,5.21-12.5C627.22,540.44,626.4,539.64,624.77,540.32Z" fill="#ad8f71"/><path d="M791.55,297.89l-3.92-.91c-7.9,2.95-13.4,9.32-20.1,14a62.76,62.76,0,0,0,18.13-10.05A26.19,26.19,0,0,1,791.55,297.89Z" fill="#ad8e74"/><path d="M988.21,254.85c2.44.48,3,2.21,2.89,4.35,2.76-1.75,5.67-3.31,7.78-5.9.8-1,1.71-2.1.62-3.1-.54-.49-1.3,0-2,.42C994.63,252.15,991.75,253,988.21,254.85Z" fill="#ad8e74"/><path d="M975.61,267.6a2.37,2.37,0,0,1,2.15,1.66l4.44-2.89C980.84,264.09,980.84,264.09,975.61,267.6Z" fill="#6f6452"/><path d="M736.38,985.64c.14,1.83,1.87,3.32,1.19,5.34,3.25-.65,1.64-4.26,3.52-5.74Z" fill="#dc9d63"/><path d="M761.46,946.41c5.59.57,5.66-4.06,6.14-7.3s.19-5.46,3.75-2.21c1.5,1.37,2.88,2,4,.11,1.07-1.69,2.12-3.77-.14-5.45-1.78-1.34-4.72-2.79-4.07-4.77.91-2.74,4.74,0,5.62-.69,4.51-3.62,9.59.3,14-1.68.94-.32,1.44-2,2.51-1.41,6.43,3.68,5.76-1,5.51-4.71s1.35-5.88,4.55-7.16c6-2.37,6-2.34,1.88-7.12a3.11,3.11,0,0,1-.93-1.77c2.83-2.25,9.25,2.78,9.89,2.07,3.23-3.54,6.36-2,8.38-4.67A58.77,58.77,0,0,0,829,890c1.88-4.2,2.42-1.79,2.42-1.79s0-.38.73,2.09c1.41,2.23,3.45,2,5.58,1.42,2.55-7.63,4.28-15.65,10.56-21.47,2.71-.68,1.28,5,4.22,4,2.6-.9,2.19-4.19,2.69-6.33a23,23,0,0,0,.89-6.65,5.68,5.68,0,0,0-.46-1.67c-.33-1-1.89-1.84-.16-2.94,2.27-1.45,2.57-3.89,3.11-6.21a220.37,220.37,0,0,0,.81-25,9.68,9.68,0,0,0-.87-3.41c3.74.66,5.58,6.41,10.61,4,1.37-7.3,4.06-14.42,3-22-3.82-3-8.54-4.76-12.8-6.55-5.22-2.2-11.23-2.79-16.81-4.77-5.28-1.88-7.88-5.1-6-10.48a2,2,0,0,0-.62-2.21,9.32,9.32,0,0,0-6.24-1.47c-3.5,1.52-6.66,1.52-9.49-1.58-1.58-1.73-3.67-2.78-6.1-1.53-3.4,1.76-4.26.09-4.7-3-1.38-9.54-3.5-11.13-13.38-10.42-4.37.31-6.57-2.91-8.8-5.66-4.13-5.11-6.83-11.11-9.88-16.87-1.89-3.57-3.41-7.5-8.57-7.76-6.79-.35-7.34,0-10.46,10.4-1.93,2.78-6.13,4.61-2.65,9.36,1.42,1.94-1.55,1.92-3,2.12-5,.68-5.07,1.13-2.45,5.57,2.7,4.59,6.71,7.62,11.51,10.31-4.25,2.73-7.39,6-12.87,5.31-3.09-.37-4.05,2.38-1.52,5,1.33,1.39,4.36,1.83,3.6,4.38-.68,2.27-3.17,1.23-4.93,1.32-2.19.13-2.53,1.46-2.68,3.34-.43,5.45,2.74,8.74,6.61,11.78,1.27,1,3.82,1.65,2.33,4.19a4.24,4.24,0,0,1-4.13,2.27c-2.49-.25-2.7-2-2.49-4.08.55-5.58-4.73-6.75-7.76-9.32-1.8-1.53-3.33.53-3,2.84s.73,4.86-.57,7.19c-3.95-3.63-4-3.69-1.25-7.52,2.11-2.88.16-4.21-1.95-5.19-2.65-1.24-3.45-2.51-1.48-5.1s.95-5.5-.5-8.11c-1.37-2.46-1-3.83,2.1-4,2.2-.14,4.21-.82,4.23-3.52,0-2.46-1.71-3.51-3.83-4.2a56.17,56.17,0,0,0-8.91-2.46c-7.4-1.14-8.16-.71-8.2,6.79,0,2.5-.71,4.63-3,5.66s-3.86-.48-5.53-2.59c2.57-1.1,6.07-.2,6.79-4.45.51-3.06,1.32-5.38-1.58-7.58-1.71-1.3-.55-3,.16-4.46,1.07-2.22.64-4-3.23-5.77,10.76.77,10.7-6.4,12-12.53-.59-4.51-3.49-3.86-6.36-2.63-3.22,1.37-5.87,3.78-9.11,5.15-4.66,3-9.26,6.12-14.42,8.27-1,.4-2.33.66-2.67,1.44-3.16,7.31-10.88,9.59-16.07,14.65-1.38,1.78-2.74,3.59-4.15,5.35-1,1.24-2.51,2.44-1.61,4.31,1.07,2.24,3.06,1.53,4.87,1.2A7.41,7.41,0,0,1,673,776c2.9,2,6.57,3,8,6.9a2.56,2.56,0,0,0,4.18,1c2.68-2.57,3.24.11,4.51,1.41,1.76,1.8.86,2.7-.89,3.7-2.73,1.55-3,4.38-2.9,7.05s1.94,5.12-2,6.81c-1.39.61-.15,3,.75,4.42,1.9,2.94,5.13,4.06,8,5.56,2.45,1.27,4,.65,3.79-2.45-.23-2.87.63-4.51,3.92-5,5.44-.86,5.74-2.09,2.33-6.56-.86-1.12-2.31-1.81-2.56-3.38-.1-2.46,1.55-3.6,3.46-4.52,2.17-1,3.37-2.81,3.86-5.53a21.43,21.43,0,0,1-1.82,8c-1.82,3.23-4.53,6.42,1.65,8.34,2.79.87,1.36,2.87,0,4.3-3.24,3.3-2.16,6.37.68,9.12a33.31,33.31,0,0,1,4.15,5.33c3.13,4.57,6,4.17,9-1.35,1.07,3.09-.13,5.3-1.82,7.43-1.41,1.8-2.68,3.72-2.77,6.09-.14,3.28,3.14,6.46,5.37,4.8,3.24-2.4,8.24-.94,10.42-5.43,1.11-2.29,3.22-.66,4.89,0,4.19,1.72,7.75,4.76,12.31,5.75,2.44.53,4.73,1,4.61-2.64-.07-2.11,1.5-2.14,2.88-2.5,4.25-1.12,4.24-3.31,1.54-6.15-1.09-1.15-3.06-2.21-1.46-4,1.79-2,3.69-1,5.34.59,4.64,4.47,10.57,7.07,15.76,10.74,1.88,1.33,3.8,1.3,5.89,1.09,2.59-.24,5.27-.64,7.58,2-3,2-6.52.15-9,2.34-1.26,1.09-1.12,4.27-5,2.07-1.86-1.05-7.44-3.47-9.64-.3-2.56,3.67,4.68,5.2,3.53,9.41-1.52.23-3.22-.93-5.6-.64,3-2.43,3.68-4.83-.36-5.79-3.69-.88-7.11-1.8-9.75-4.77-1.21-1.37-3.13-.94-4.73-.71-3.55.53-6.83,1.83-10.67,1.74-4.08-.09-3.51,5.52-6.13,7.84.49-3.33-4.09-10.59-7.41-11.59a2.49,2.49,0,0,0-3.48,2.41c-.15,2.67-1,5.44-.52,7.95.76,3.65.71,6.69-1.61,9.83-1.54,2.1-1,4.33,1.58,5.66,4.24,5.74,10.38,7.73,17.23,8.61-2.75-1-5.63-.93-8.2-1.66-5.09-1.47-7.42.1-8.09,5.15-.22,1.64-2.58,3.17-.38,4.88,1.86,1.44,3.86,1,5.73-.25.8-.55,1.36-1.58,2.54-1.43,1.73,2.56.88,3.81-1.71,5.24-4.43,2.45-4.55,4.12-.79,7.26a8.82,8.82,0,0,1,3.6,7.4c0,4.26,2.21,4.81,5.68,3.35,1.79-.75,3.63-2,5.46-.42a1.83,1.83,0,0,1-1.53,2c-2.34.6-4.71,1.55-4.36,4.31.38,3,2,5.75,3.62,8.29.69,1.07,2.31.22,3.37-.45a21.08,21.08,0,0,1,5.59-2.6c3-.85,3.17-2.28,1.65-5-2.2-3.87-.82-5.86,3.46-5.37a37.64,37.64,0,0,1,7.83,1.78,1.69,1.69,0,0,1,.64,3c-1.1.75-.53-1.06-1.11-1.57a4.22,4.22,0,0,0-5.09-.85c-1.84.91-1.93,2.58-1.51,4.25a30.31,30.31,0,0,1-.64,18.14c-1.5,4.15,1.36,5.91,6.44,6-4.78,2.94-11.72,3.23-10,10.19C753.37,947.38,757.77,946.62,761.46,946.41Z" fill="#eaad72"/><path d="M829,890c-1.76,3.1-6.11,3.93-6.76,8.23-.36,2.33-2.45,1-3.29,0-4.11-4.65-4.73-.66-4.75,6.08-3.72-10.33-8.76-2.13-12.6-4.86-.3-.22-.36,1.7.15,2.55,1.49,2.44,3,4.87,6,6-2,2.73-4.94-.11-6.5,1.76-2.19,2.62-5.91,4.55-3.84,9.25.87,2,1.85,6-3.14,2.68-2.66-1.76-2.79,1.13-3.42,2.71l.87,1.37c.5-.23.5-2.52,1.5-.49a29.51,29.51,0,0,1,1.44,4.88c1.9,1.35,3.6.27,5-.71,1.63-1.1,2.92-3.1,4.56-.12a5.11,5.11,0,0,0,1.34-5.18c-.25,5.75.56,12.5.33,19.29-.08,2.61-.51,5.34,1.91,7.32,4.38.49,4-3.12,5-5.64-1.92-2-1.67-4.3-1.31-6.8a64.79,64.79,0,0,1,6.16-19.84,136.13,136.13,0,0,0-4.41,16.43c.52,2.87,3.18,1.46,4.71,2.32,5.61-7.68,4.59-16.62,4.87-25.31.11-3.43-.88-6.93.87-11,1.59,4.83,1.79,9.22,2.13,13.58a1.7,1.7,0,0,0,2.38-1.23C829,905.56,831.73,897.88,829,890Z" fill="#e1b58b"/><path d="M836.28,780.74c-.49,3-3.42,1.36-5.53,2.8,2.83,2.06,5.3,4.07,5.24,7.72,0,1.36,1.35,3.5,2.39,3.15,7-2.36,12,5.47,18.77,3.51a2.71,2.71,0,0,1,2.26.49c3.53,3.59,7.54,5.91,12.78,5.47.16-.79.32-1.58.49-2.37,1.27-4.58,1.94-9.17.39-13.83-.93-2.86-1.22-3.66-2.77-5.56a5.15,5.15,0,0,0-3.72-2c-6.68-.36-13.36-1.24-20.05,0-3.22,1.54-5.54-1.81-8.52-1.56C837.17,779.08,835.79,779.17,836.28,780.74Z" fill="#c78e5d"/><path d="M839.27,914.74c4.42-9.66,9.86-19.13,8.19-32.31C841.58,893.55,839.15,903.76,839.27,914.74Z" fill="#d8a87c"/><path d="M807.54,950.1q-2.87,10.81-5.74,21.63c.74,3.16,1.86,2.22,2.6.11,1.13-3.26,2.06-6.61,2.93-10,2.27-8.76,8.3-15.9,10.58-24.64-.31-4.35-2.48-.88-3.82-.9-2.87,2.23-3.3,5-2,8.26C811.23,947,811.24,950.06,807.54,950.1Z" fill="#ac8562"/><path d="M801.77,960.38V940.25c-1.55-1.88-3.16-3.62-6-2.37l-.34,16.28c.33.55.27,1.32,1,1.65,1.39,1.66,4,2.55,3.22,5.64C799.54,961.85,801.1,961,801.77,960.38Z" fill="#bf8f65"/><path d="M795.8,937.88l6,2.37q1-5.49,1.94-11c-.89-1.27-.44-5.15-3.73-1.61-1.25,1.33-3.53,1.7-5.33,2.51C794.63,932.81,794.55,935.45,795.8,937.88Z" fill="#eaad72"/><path d="M825.13,944.89c-.13-2.72,1-6.24-3.85-5.91-.62,2.37-1.23,4.73-1.85,7.09-.94,5-2.64,9.93-.2,14.95C821.69,955.82,824.71,950.82,825.13,944.89Z" fill="#ac815d"/><path d="M791.09,931.65c-3.09,2.64-4.13-.73-5.91-2-1.46-1-3.1-3-4.77-1.44-1.28,1.2-1.64,3.46-2.14,5.32-.12.43,1.12,1.72,1.3,1.64,4.29-1.89,7.66,2.17,11.68,1.69C791.43,935.14,792.15,933.37,791.09,931.65Z" fill="#eaad72"/><path d="M796.42,955.81l-1-1.65c-.41,1.61-2,2.71-2.46,3.94-2,4.79-5,9.92.84,15C794.43,967.08,794.78,961.33,796.42,955.81Z" fill="#bc906a"/><path d="M746.88,411.36c2.18-5,3.2-10.44,6.82-14.73.81-8.21,7-14,9.78-21.3.41-1.1,1.78-1.95,1.91-3,1.61-13.05,12.61-18.68,20.85-26.54,5.48-5.23,13-7.92,17.66-14.07,7.4-4.22,8-6.8,3.1-12.52-7.51,1.19-13.82,5.13-20.14,9-4.58,2.78-8.75,6.18-13.64,8.5-4.57,2.16-10.09,3.61-9.26,10.57a2.46,2.46,0,0,1-1.22,2.07c-5.21,3.36-8.52,9-14.21,11.77-3.53,3.23-6,7.45-11,9.35-2.66,1-4.32,4.89-4,8.35.21,2.29,2.56,2.38,4.31,2.77,2.32.53,4.57-.51,5.06-2.53,2-8.18,10-9.39,15.47-13.6-4.52,7.66-13.27,11-18.5,18a29,29,0,0,0-3.94,6.85c-.59,1.81-.22,4.09-3.08,4.61-3.58.65-5,3.92-7,6.42-2.33,5.76-6.17,10.93-6.91,17.31-.26,5.93-2.79,11.4-3.78,17.23-.64,3.73-4.64,6.78-5.31,11.54-.45,3.24.38,6.52-.75,9.69-.82,2.27-.58,4.89-2.79,6.66s-1.69,3.79,0,5.37c3.72,3.6,2.16,6-1.43,8.27a13.83,13.83,0,0,0-2.73,2.46c-.65.73-1.57,1.57-1,2.67s1.77.93,2.77.63c3.73-1.11,7.57-1.78,11-4.06,6-4,6.65-6,10.41-12.49,6.82-11.72,8.79-24.94,13.5-37.24C741,423.3,744,417.28,746.88,411.36Z" fill="#251506"/><path d="M667.77,480.69c-1.95-1.73-3.85-3.5-5.84-5.16-2.9-2.44-3.24-.11-3.64,2,.62,3.3,3.67,4.22,5.9,5.94,4.72,3.65,4.89,5.3,0,8.75-3.25,2.32-3.15,4.09-.66,6.93,2.65,3,6.81,5.21,5.57,10.71-.61,2.7,3,2.79,4.86,3.85-7.61-2.58-15.85-3.73-22-9.73-3.72-2-5.35-1.05-4.69,3.23,2.69,3.84,6.81,6.41,9.09,10.74,1.68,3.18,5.8,2.67,8.82,3.81,2.07.79,4.83.66,5.61,3.21,1.29,4.2,4,4,7.2,2.78.74-2.12,1.34-4.26.75-6.54-.18-.68-1-1.78.19-1.94,4-.54,4.1-4,4.19-6.47.18-4.88,1-9.39,3.77-13.47,4.37-10.57,7.79-21.39,9.29-32.77.27-2,4.25-2.58,2.11-5.49l-.86,0c-4.67.5-8.11-2.42-11.88-4.32-2.75-1.39-5.92-4-8.47-2.07s-2.19,6-1.86,9.15c.34,3.35,2.34,6.71-2.18,9-1.55.79-.23,2.5-.08,3.86C673.49,480.73,671.89,482.48,667.77,480.69Z" fill="#6c4d31"/><path d="M668,591.38l-.78,11.1c.65,2.74,2.87,1.61,5,1.87-2,1.19-4,1.37-5.8,2.23-2.66,1.3-3.88,2.56-2.57,5.54,1,2.16.21,4.44-.15,6.66-.93,5.61-3,11.15-.88,17,.87,2.4-2,4-1.72,6.32.61,5.41,2,10.68,2.63,16.09.37,3.43,1.63,6.33,5.86,6.38a22.56,22.56,0,0,0,6.41-1.63,6.23,6.23,0,0,0,2.13-1.68c.45-5,6.84-3.18,8.26-7.08-5.05-1.12-9.74-4.3-15.91-1.29,1.32-4.7,4.55-3.13,6.41-4.24,1.26-.74,3.72,0,3.54-2.5-.15-2.08-1.89-2.69-3.64-2.42-2.47.37-5,.53-4.91-2.69.12-3.39,3.43-2.16,5.29-2.35,3.84-.4,7.73-.22,11-3.16-1.57-2-3.53-.5-5.18-.89-3.54-.85-4.87-2.49-2.52-5.51,2.53-3.24,1.72-5-1.37-7.45-2.32-1.86-1.27-7.26-6.91-6.19-1.16.22-.56-2.43-.39-3.79.25-2,1.41-2.65,3.42-2.64,4.37,0,8.52-1.3,12.67-2.54,2.14-3.27.18-4.51-2.67-4.82-3.2-.36-6.27-.31-5.14-5.07.26-1.08-.92-2.39-2.09-2.79-2.72-.91-2.28-2.73-2.67-5.08-1.05-6.22-.27-10.16,6.93-11.32,3.37-.54,2.36-3.54.84-5.28-3.92-4.47-3.75-9.67-3.36-15,.42-4-5.62-1-5.29-4.88l-.77.39c-3.46,3.51-3.2,8.1-3.63,12.49-.91,3.63,2.56,7.45-.5,11C665.28,580.84,668.26,586.26,668,591.38Z" fill="#5a3d24"/><path d="M693.92,397.51c-.16.81-.32,1.62-.49,2.43-2.74,3.53-.1,5.09,2.46,6.68.79,1.08.59,2.27.37,3.47-.36,1.8-.77,3.59-1,5.41-.58,4.2-.56,4.2-4,5-1.9,4-3,7.78,1.89,10.14-5.37-1.08-5.58-7.56-10-10-.75-.23-2.89,1.7-4.54,4.11,3.1,6.33,3.1,6.33,2.9,18.64.58,2.76,2.18,5.28,1.5,8.34-.63,2.83,1.07,4.74,3.46,5.86,3.68,1.72,7.82,2.08,11.55,3.69l.37-.18c4.13-2.79,5.1-7,5.74-11.61,1-7.1,4.9-13.13,7.63-19.6.8-3.16-1.83-4.22-3.68-5.53s-3.82-3-3.59-5.35c.48-4.87-1.37-9.05-3.09-13.33C700,401.94,699.66,397.27,693.92,397.51Z" fill="#6c4d31"/><path d="M675.73,661.86a6.75,6.75,0,0,0-5.22,1.69c-.94.68-2,.32-2.93.13-2.85-.56-5.66-.19-6.79,2.64-1.07,2.67,1,4.51,3.22,5.8,2.45.37,5,.55,3.36,4.28-.53,1.22,0,2.77.23,4.15a7.91,7.91,0,0,0,1.85,3.7c1.74,1.28,2.47,3.68,4.81,4.3a2.74,2.74,0,0,0,1.41-.87c.93-1.33,1.31-3,2.21-4.28,1.3-1.88-.56-6,2.6-5.8s7,.19,9.2,3.6a5.6,5.6,0,0,0,1.61,1.78,2.44,2.44,0,0,0,1.68-.13c2.27-1.53,2.43-3.78,1.7-6-1-3.13-.18-5.71.84-8.77,1.34-4,3.26-6.2,6.9-8.55,3.79-2.45,5.31-8,10-10.13.53-2.49,2.68-3.44,4.49-4.72.73-3.8.29-6.68-4.73-6.12a4.26,4.26,0,0,1-3.89-1.46c-3.27-3.85-6-2-8.72.76-.38,2.08.71,4.79-2.45,5.68-3.73,3.41-5.57,8.73-10.81,10.62-2.87,2.55-9.75-.25-9.21,6.85,2.6,1.55,3.75-3.35,7-1-3.14,2.22-3.83,5.86-4.58,9.59C675.57,667.61,678,663.77,675.73,661.86Z" fill="#a8744b"/><path d="M699.8,406.19c2.76,4.63,3.16,9.8,3.4,15,.11,2.53,1.71,3.33,3.77,4.13s3.46,2.74,4.76,4.56C717,426.38,714,421.43,714,417c2-.71,3.08,1.65,4.88,1.61,4-5.16,5.54-11.5,8.38-17.22-1.57-2.2-3.54-1.11-5.49-.73-2.75.54-4.56-1.45-3.1-3.27,2.62-3.27,1-6.51,1.34-9.73-2.79-3.25-5.56-3-8,.29-2.08,2.76-4.12,5.54-6.46,8.1-1.28,1.4-2.57,3.41-1.6,4.94C707.81,407,702.17,405.25,699.8,406.19Z" fill="#573c25"/><path d="M679.64,557.11c-4.39,4.23-1.49,8.67,0,12.81.68,1.93,3,3.24,3.51,5.84-1.83.48-3.56.9-5.28,1.38-4.22,1.17-6.14,3.59-4.6,8.09.49,1.43,2.21,2.95.68,4.52-3.24,3.3-.24,4.36,2,4.87,2.46.56,3.76.74,2.64,3.82-1.3,3.57.28,5.73,4.21,4.51,3.63-1.14,5.12-.16,5,3.52,1.66-.66,4.37-.27,4.63-2.36.24-1.93-2.21-2.62-3.75-3.61-1.32-.85-4.47,1.75-4.07-1.72.23-2.06,2.83-1.92,4.68-2,.77-.05,1.54-.16,3.08-.32-3.88-4.5-9.16,1-13.24-3.2,2.55-.48,4.4-.88,6.26-1.17,3-.45,3.47-2.69,3.47-5,0-2.6-1.57-3.65-4.12-3.19-1.25.22-2.64.49-3.25-.9s.47-2.24,1.34-3.18a11.75,11.75,0,0,1,6.71-3.9c1.92-.37,4.58-.74,5.84-3.73-5.21-.1-7.33-1.87-1.75-7.11-6.69,1.09-10.52-.47-11.58-6.23C681.93,558.09,680.47,557.65,679.64,557.11Z" fill="#3f2812"/><path d="M687,499.34a4,4,0,0,1-2.16,2.84c-3.06,1.43-6,2.36-2,6.56,2.4,2.55-2,8.87-6.28,9.57,1.11,3.09,2.4,6.17,1.08,9.51-3.24.93-2.41,3.8-3,6.06-1,3.81,0,8.3-3.85,11.11-6.42,0-12.06-3.85-18.51-3.7-2.82,1.78-2.43,4.44.11,5.05,7.31,1.76,14.09,5.38,21.68,6.08l.3-.19c5.49-9.17,1.3-20.61,6.39-29.48,4-7,2.67-15.19,6.91-21.83C687.83,500.65,687.21,499.88,687,499.34Z" fill="#5a3d24"/><path d="M697.15,643.51c1.8.25,3.88.85,4.84-1.23s-1.73-2.87-2.39-4.45c.12-.87.25-1.75.37-2.62C697.22,637.37,698,640.7,697.15,643.51Z" fill="#724d2f"/><path d="M748.91,361.46c2.38.78,3.8-.49,5.18-2.21a38.56,38.56,0,0,1,8.52-7.84c2.27-1.53,4.86-3.11,3.08-6.9-1.27-2.69,1.5-3.39,3.25-4.19,13-6,24-15.43,37.36-20.73,8.54-1.49,16.29-5.46,24.46-8.11,9.22-3,18.58-5.23,27.92-7.67,2.4-.63,6.45-.61,5.74-4.1s-4.41-1.55-6.91-1.82c-1.88-.19-3.62,3.16-5.46.15-8.09-3.53-13.5,4-20.58,5-3.55.5-6.83,2.31-10.6.84-1.86-.73-3.16.33-5,1.43A122,122,0,0,1,796,314.61a101.32,101.32,0,0,0-22.08,11.1c-3.61,2.47-8.55,4-12.77,6.32a15.58,15.58,0,0,0-5,4.37c-1,.85-1.79,2.45-1.43,3.18,4,8-3.71,10.2-7.32,13.93-6,6.14-13.69,10.29-19.9,16.22-.78.93-1.43,1.95-2.15,2.93-3.92,5.28-8.88,10.3-4.73,17.73a12.18,12.18,0,0,0,8.6,5.15c4,.43,7-.44,7.61-5l3.89-6.8c-.1-3.25-2-2-3.41-1.21-2,1.15-3,3.29-4.61,4.88-.94.94-2.15,1.39-3.29.46a2.09,2.09,0,0,1-.06-3.26c3.61-3.48,5-7.78,5.3-12.63.06-1,.56-2.44,1.73-2.14C743.89,371.81,744.74,364.22,748.91,361.46Z" fill="#573c25"/><path d="M720.84,388.8c2.23-1.35.4-2.21-.38-3.22-1.11-1.43-1.46-2.74.25-4.13,3.69-3,5.28-7.42,7.53-11.38,1.94-4-.81-3.46-3-2.94-2.6.61-4.26,2.74-6,4.55,2-2.36,2-4.7,0-7.06-18-.54-24.83,10.16-32.48,24-3,1.11-2.09,3-1,4.86.41,2-2.93,4-.09,6,2.52,1.72,4-.6,5.86-1.63a6.42,6.42,0,0,1,2.36-.26,9.91,9.91,0,0,1,5.88,8.68,21.45,21.45,0,0,0,4.53,1.79c1.75.28,3.18-.9,4-2.37,1-1.68-.08-2.49-1.61-3.21-3.2-1.5-2.17-3.83-.27-5.27a22.12,22.12,0,0,0,6.21-7.48c2.19-4.25,4.2-3.7,7-1.13A.73.73,0,0,0,720.84,388.8Z" fill="#7b5c43"/><path d="M852.05,298c-.79,1.42-3.43.59-3.6,3.45,5.16-.19,10-3.65,15.34-1.41-19.44,5.88-39.39,10-57.49,19.51,5,5.17,1.74,8.72-2.4,12.11,6.93-1.75,12.11-6.71,18.22-10,18.36-9.78,37.78-16.05,58.21-20,13.13-2.51,26.81-2.31,39.42-7.6,1.42-.59,3.23-.25,4.85-.34,4.28-3.55,9.92-3.82,14.72-6.09a18.46,18.46,0,0,0,5.49-4.1c-3.31-.83-6,.77-8.52,2.43a8.77,8.77,0,0,1-7.58,1.5c-5.51-.16-10.36,2.2-15.41,3.91-8.53,2.88-17.16,5.25-26.17,1.94l-4,.48c-2.87,2.51-5.65,4.28-9.5,1.31-1.44-1.1-3.8-1.08-5.8-.43l-1.49.92c-4.28.47-8.55.93-12.82,1.42Z" fill="#302112"/><path d="M719.22,364.62c1.39,4.22-1.69,7.2-3.81,11.54,4.89-1.09,5.27-6,8.77-7.08,1.65-.49,3.69-3.4,4.06,1,8.4-6.52,18.17-11.4,24.48-20.38.74-1.05,1.74-.81,2.65-1.15,3-1.16,5.74-2.57,1.81-5.87-2.19-1.85-1.35-4.07-1-6.27L743.35,344c-2,.18-3.12,1.64-4.34,3-1.59,3.84-5.33,5.68-8,8.54-.91,1.63-2.82.94-4.08,1.75C725.6,361,721.5,361.86,719.22,364.62Z" fill="#6b4c32"/><path d="M665.32,408.42c-.57,6.3-7.46,9.72-7.45,16.45,0,1.78-2.49,3.82-1,5.66,1.94,2.42,3.41-1.28,5.34-1a22.18,22.18,0,0,1,2.23.57c-2.47,4.18-7.55,3.53-10.86,6.22,9.86,2.24,15.59-.95,15.5-8.27.36-1.83.65-3.68,3-4.09q7.06-1.23,3.25-6.84c-3.3-4.88-2.67-7.3,2.4-10.89,2.74-1.94,3.23-4.87,2.69-9.27-3.27,5-6.32,1.31-9.36,1.25l-1.89,3.45A20.11,20.11,0,0,1,665.32,408.42Z" fill="#8a6b50"/><path d="M682.57,443.16c.15-1.62-.34-4,.55-4.73,6.67-5.84,1.17-8.74-2.65-12.11-.62-.54-1.26-1.06-1.89-1.59-2,2-2.26,5.32-5.15,6.62,0,5.2-2.85,10.7,2,15.4a7.18,7.18,0,0,0,3.48,2C682.41,448.34,681.5,445.12,682.57,443.16Z" fill="#8a6b50"/><path d="M697.4,405.68c-1.8-1.58-5.92-1.59-4-5.74a35,35,0,0,0-7.69,13.63c.19,4,2.2,6.53,6.16,7.46,3.64-2.3,3.19,3.86,6.8,2.73-4-4.54-1.5-9.39-.87-14.21-.32-1.5-2.5,1.83-2.14-.74C695.84,407.77,697,406.86,697.4,405.68Z" fill="#7b5c43"/><path d="M887.13,293.41c6.74,5.41,13.92,3.32,21,1.07,6.89-2.18,13.71-4.6,20.56-6.92l-.18-.35c-5.69-2.85-10.43.63-15.45,2.28h0c-7.3,2.55-15,2.73-22.55,3.27C889.35,292.84,888.11,292.36,887.13,293.41Z" fill="#4d3a28"/><path d="M691.9,421l-6.16-7.46c-3.54,1.36.93,5.68-2.62,7.05,2,6.4,6.32,10.73,13.16,13.31C695.22,429.35,688,426.78,691.9,421Z" fill="#8a6b50"/><path d="M867.88,294.77c2,.54,4,.54,5.83,1.77,5.8,3.91,7.06,3.5,9.47-2.65C878,293.6,872.86,292.52,867.88,294.77Z" fill="#573c25"/><path d="M685.79,393.44c.29-1.62-.52-3.46,1-4.86-2.46-2.28-5.18-1.53-5.87,1.07C679.92,393.2,683.65,392.74,685.79,393.44Z" fill="#8a6b50"/><path d="M808.58,288.61a32.49,32.49,0,0,0-15.64,8.51A49.19,49.19,0,0,0,808.58,288.61Z" fill="#ad8e74"/><path d="M853.57,297.11a24.61,24.61,0,0,0,12.82-1.42A23.41,23.41,0,0,0,853.57,297.11Z" fill="#573c25"/><path d="M727,357.25c1.76.36,3.52.69,4.08-1.75-3.71,1.32-1.12-3.08-3.13-3.43C726.05,353.55,725.41,355.19,727,357.25Z" fill="#7b5c43"/><path d="M739,347a8,8,0,0,0,4.34-3c-1.15-.61-.91-3.14-3-2.37C737.44,342.71,739.59,345.21,739,347Z" fill="#7b5c43"/><path d="M561.78,821.51l-1.67,2.19c14.12-3.89,28.32-3.77,42.55-.65,2.57.56,4.31-.93,6.21-2.13a10.51,10.51,0,0,1,6.45-1.74c1.48-.66,2.38-1.48.88-3-2.13-1.3-4.45-.88-6.61-.37a18.71,18.71,0,0,1-9.77,0c-6.48-1.91-13.05-1.32-19.63-1C573.41,815.22,567.07,817,561.78,821.51Z" fill="#5c3413"/><path d="M617,817l-1.69,2.19c5.69-.14,11.38-.33,17.08-.41a5.44,5.44,0,0,1,5.45,3.29c1,2.17-.48,2.93-2.21,3.45,1,2.87,0,5.67-.36,8.49-.3,2.24.23,4.72,2.37,5.06,2.63.42,2.12-2.54,2.36-4.11.5-3.19.55-6.46.79-9.69,3.47-3.36,3.22-7.87,3.47-12.08.17-2.95-1.78-3.94-4.59-2.78-6.37,5.38-14.67,3.82-21.94,6Z" fill="#502e10"/><path d="M761.46,946.41c-1.32-.55-2.69-1.66-3.94-1.54-2.95.3-4.76-.89-4.32-3.57.4-2.45,1.38-5.84,4.94-5.13,5.75,1.15,4.62-3.44,6.21-5.84-1.43-1.14-2.31-.56-3.2-.05-1.22.71-2.41,1.85-3.7.06a3.32,3.32,0,0,1-.28-4c2.83-5.31,2.41-10.88,1.31-16.59-.28-1.47-2.69-3.37,0-4.79a3.68,3.68,0,0,1,2.92.13c3,1.52-.69,3.56.43,5.66,3.67-.66,4.77-3.95,4.88-6.53.17-3.6-3.36-2.43-5.63-2.77a41,41,0,0,1-4.11-1.22c-3.13-.8-5.7-1.15-7.78,2.6-2.41,4.36,1.77,4.57,4.07,7.06-4.35.85-8.08,1.65-11,5.48-.86-2.67.74-5-2.17-6.67-2.61-1.54-1.48-4.87,2-4.49,2.51.28,3.48-.62,4.28-2.32s-.75-2.64-1.51-3.78c-1.44-2.14-2.9-.22-4.32.17a10.49,10.49,0,0,0-2.8,1.25c-2.84,1.78-4.4,1.48-3.54-2.23s-.87-6-3.33-8c-1.12-1-3.64-.55-3.17-3,.39-2,2.17-2.15,3.87-2.36s4.22-1.66,3.7-2.49c-1.36-2.2-.86-4.82-2-6.61-.88-1.43-3-.1-3.84,1.57-1.36,2.88-3.34,3.22-5.79,2.08-1-2.81,3.76-1,2.53-3.93-2.17-5.17.26-5.22,4.35-3.94,3.14,1,6.94-.17,9.05,3.78,1,1.92,2.7.88,2.78-.95.15-3.49-1.62-6.6-5.23-6-5.07.91-8.78.86-10.48-4.9-.21-.72-2.12-1-3.25-1.41-3.15.54-6.15.72-7.44-3.14,5-2.3,5.12-3.11,2.2-7.37-2.74-4-6.81-6.51-10.38-9.56a4.56,4.56,0,0,0-5.77-.38c-1.82,1.3-1.39,3.25-1,5.09a21.45,21.45,0,0,0,2.72,6.18c1.83,3,2.08,6.68.27,9.41-2,3-5.39,1.35-8.49.88-4.2-.63-8.87-2-12.46,2-.37,1.26.4,2.42.33,3.64-.08,1.51-.79,3.13,1.12,4.08-2.62-.67-1.1-2.57-1.25-4-.12-1.18-1-1.69-2.14-1.82-2.92-.34-2.77,2.59-4.11,3.9-1.43-.21-2-1.42-2.8-2.31-2.52-2.83-5.31-2.9-8.27-.88s-2.33,4.92-1.49,7.77c.69,2.36,4.17,4,1.95,7.11l-.64,2.37c-4.23,5.82,1.79,6.54,4.46,8.92.42.42,1,.89.65,1.54-4.21,9-3.23,16.29,3.32,23,1.45,1.48,1.48,3.32,2.09,5a8,8,0,0,0,1.83,2.86l1.08,1.39c4.91-.63,7.55-3.09,7.72-8.35.23-7.3,6.43-11.44,9.81-17.09-.83-1.79-1.26-4.19-3.94-3.85-4.21.54-5.72,4-7.57,7.27.74-1.85,1.9-3.63.74-5.64-1.67-.53-2.35-1.4-1.18-3.06,3.17-4.48,4.18-10.21,8.39-14.1,1.58-1.46,1.79-3.58,2.59-7-.34,6.31-5.81,9.8-3.93,15.2a89.76,89.76,0,0,1,4.87,11.1,11.31,11.31,0,0,0,4,3.82c1.7,1.13,3.49,2.62,5.65,1.37,2.42-1.4.11-3.29.29-4.91.37-3.45,1-6.86-.76-10.43,2.13,2.87,5.72,2.14,8.14,3.59a2.64,2.64,0,0,1-1.47,2.26c-1.31.89-3.45,1.22-3.32,3.24.16,2.38,2.39,2.5,4.17,2.89s3.23,1,3.15,3.12-1.56,2.71-3.35,2.94-3.85.48-4.11,2.9c-.22,2,1.28,2.87,2.88,3.5s2.64,1.33,1.63,3.18c-.86,1.6-1.05,3.8-3,4.44s-3.08-.92-3.82-2.41a56.76,56.76,0,0,0-4.12-6.87c-.36-.52-1.68-1.28-.47-1.9,4.3-2.2,2.22-3.66-.55-4.82-3.48-1.46-10,.95-9.23,3.5,1.82,6.49-2.68,12.29-1,18.5a21.89,21.89,0,0,1,3.64.7c2.89,1.07,7.23,1.15,6.29,5.81-.87,4.27-5,4.82-8.56,5.42-1.35.22-3.21-1.92-4.31,0-.92,1.64,1.84,3,1.67,4.26-.52,4,5.78,4.87,3.86,10.24-.94,2.63,5.27,1,7.78,2.73a1.82,1.82,0,0,0,2.58-1c1-2.4-1.41-3-2.49-4.38a5.27,5.27,0,0,0-1.26-1.35c-3-1.72-5.39-5.62-4.52-7.55,1.78-3.93,5.35,0,8.11.33,2.49.33,3.68,3,5.94-1.78,1.86-3.92,6.36.48,9.23,2.91-1.24,2.1-6.57.41-4.33,5,.76,1.56,1.17,3.86,3.77,1.77,2.2-1.78,4.53-.68,5,1.32.79,3.49-3,.89-4.25,2,.79,2.5,4.42,2.15,4.21,5.66-4.54-2.78-9.91-1.51-14.85-4.86.88,6.21-5.88,9.54-3.72,15.52,1.27,0,5.15-4.2,2.55,2.89,2.47-1.78,3.76-3.07,3.15-5-1.2-3.81-1.83-5.58,3.87-6.95,6.27-1.52,6.57,3.49,9.67,5.26l.88.42c1.24-.34,2.26-1.33,3.49.58,2.79,4.36,5.84,8.52,6.67,13.79l.5.08.46.21c2.7-1.77,6.63-1.86,4.29-7.62-2.11-5.21,2.7-2.17,4.87-2.06.28-5.17-3.52-6.86-7.78-8.4,1.55-2.35,3-1.77,4.9-1.43,4.65.82,7-2.3,5.16-6.5-.08-.19-.32-.32-.35-.5-.57-4.21,6-1.35,4.89-4.07s-3.28-4.37,1.58-4C757,949.05,759.17,947.76,761.46,946.41Z" fill="#dc9d63"/><path d="M646.25,822.52c3.83-2.3,7.09-4.85,8.18,2.84.67,4.73,4.43,8.85,2.58,14.35-1,2.82,2.16,1.23,3.29,1.88,1.42-.58,2-1.85,2.86-3.13-1.6,2.55-1.12,4.8,1.06,6.57,2,1.64,3.74.47,5.47-.8,3.51-2.57,5-.78,4.76,2.7-.38,5.05,2.14,5.48,6,4.4,2.51-1.33,2.08-3.36,1-5.22-1.77-3-2.46-6.49-4.48-9.35a5.43,5.43,0,0,0-6.06-1.34c.28-2.32,1.6-3.47,2.26-4.94.94-2.09,1.18-4.23-1.17-5.29-4.58-2.05-4.34-5.06-2.77-9,2.28-5.76,1.65-7.77-4.55-9.18-2.23-.51-4.24-3.55-3.86-4.41,1-2.36,2.95-5.52,6.52-3.78,2.53,1.23,4.19,1.59,5.17-1.51.47-2.5-.68-4.67-1.38-6.93-.78-1.43-1.93-2.35-3.44-1.27s-2.28,1.64-2.82-.75c-1.08-4.86-4.16-3.69-6.91-1.81a28.42,28.42,0,0,0-7.3,7.37c-2.12,3.07-4.66,4.31-8.36,3.41-6.49-1.57-12.54.73-18.65,2.38-3.16,1.68-7.59.5-9.82,4.29,1.13,6,5.78,4.29,9.31,3.7,2.86-.47,5.54-1.51,8.41-.33a10,10,0,0,0,1.81.1c10.26-.6,10.26-.6,9.51,9.87C642.7,819.88,642.86,822.23,646.25,822.52Z" fill="#b68357"/><path d="M666.54,881.8c2.53-.73,5.39-1.38,1.72-4.45a8.86,8.86,0,0,1-3.12-7c-.06-2.59,2.39-2.52,3.87-3.35,2.73-1.53,3.41,1.41,4.89,2.52s1.14,4,3.56,3.75c2.76-.31,1.77-2.67,1.83-4.41a1.57,1.57,0,0,1,2.05-1.64c1.41.31,1.37,1.32.79,2.35-.68,1.19-1,2.66.49,3.05a14.48,14.48,0,0,0,6,.24c1.21-.22.55-2.43,0-2.23-6.68,2.29-3.21-4-5-5.73a3.66,3.66,0,0,0-1.27-1.17c-3.62-.38-5.31-2.58-5.62-6a13.27,13.27,0,0,0-4-8c-3.8-4-5.06-4-7.33,1.17-1.39,3.18-3.18-.27-4.46.86-5,1.75-5.81,6.45-1.47,11,2.27,2.38,3.2,3.66,1.45,7.51C658.89,874.62,663.61,878.36,666.54,881.8Z" fill="#bc8556"/><path d="M646.25,822.52c-4.43-3.16-2.67-7.42-1.51-11.12,1.84-5.86-.4-7.17-5.69-6.27-2.4.41-4.85.57-7.28.84-4.74,2.5-10,1.7-15,2.08-1.9.15-4-.2-5,1.54-3.51,6.22-9.11,5.25-14.6,4.4-4.26-.66-8.49-1.52-12.83-1.11-2.17.2-4.74,0-5.07,3.16,12.61-.81,25.1,3.34,37.75,1h0c7.42-1.69,15.21-1.56,22.35-4.55,2.21-2,4.09-3,3.45,1.44-.55,3.81-1.33,7.59-2,11.38,1.9,3.61,3.72,7.29,6.78,10.14l.27-1.26c1.59-2.11,1.92-4.78,2.92-7.12C652.21,823.65,646.54,825.38,646.25,822.52Z" fill="#895c36"/><path d="M660.9,851.75c1.24,1,2.33,2.43,3.75,3,1.66.71,3.59.61,2.55-2.17-.59-1.57-1.59-3.33.21-4.39,2.26-1.33,3,1.53,4.18,2.46,2.5,2,3.58,5,3.82,8.56.25,3.73,1.86,7.22,7,5.39,2.86-5.33-.16-9.71-2.31-14.23-2.66-.08-6.42,1.17-3.55-4.13,1.12-2.08-1.18-4.28-3-5.45-1.44-.91-3.21-.06-4.27,1.37s-1.86,3.67-4.15,2c-1.81-1.29-2.45-3.12-.84-5.29.74-1,.79-2.31-.89-3.54l-3.06,6.17A15.88,15.88,0,0,1,660.9,851.75Z" fill="#dc9d63"/><path d="M664.15,900.15c-2.45.89-3.82-.58-5.1-2.29-.85-1.14-.46-4.1-2.81-3-2.52,1.19-1.26,3.42-.11,5.23a17.12,17.12,0,0,1,.79,1.61c-1,2.76-3.93-.77-5.19,1.83-1.1,2.25-5.79.86-5.71,3.58s3.06,2.62,5.39,1.71c2.4,12.07,9.79.8,14.3,3l.73-.47c2.62-4-1.52-7-1.73-10.57Z" fill="#ab7d54"/><path d="M678.25,925.52a2.45,2.45,0,0,0-.71-2.67c-3.27-1.66-5.95-3.78-7.48-7.35-.71-1.66-1.69-3.81-4.27-3.69l-.08,0c-.68,2-1.49,4-3.89,4.07s-4.73.9-4.33,3c.44,2.35,3,3.27,5.76,2.88,3.44-.5,7.53-1.55,6,4.56Z" fill="#ab7d54"/><path d="M670.76,892.62c.06-1.24,0-3.35-1.12-3.11-6.08,1.34-3.74-2.74-3.74-5.34-6.83,6.13-6.81,6.12-1.8,14.18.27.44,0,1.19,0,1.8l.05.07C668.38,899.38,669.66,896.08,670.76,892.62Z" fill="#ab7d54"/><path d="M667.22,946.44c-.46,1-.31,1.79.66,2,2.13.55,2.8-1.18,3.54-2.57a1.4,1.4,0,0,0-.77-2C668.48,943.32,668.25,945.55,667.22,946.44Z" fill="#734a25"/><path d="M662.08,641.84c2.58-2.92,3.41-5.89,1.45-9.68-1.25-2.42.45-5.18.55-7.8.18-4.82,4.25-9.46.37-14.54-1-1.37,1.25-1.61,2.13-2.17,2.84-1.77,6.33-.68,9.35-1.88-1.33-5.59-6-1.85-8.74-3.29-.52,3.13-2,4.46-5.53,4.15-10.88-1-21.83-1.38-31.56-7.24-.45-.27-1.18,0-1.79-.06-.4,1.84.74,2.87,2,3.53,2.76,1.49,2,2.61-.16,3.77a2.77,2.77,0,0,0-.54.29c-3,3-2.34,6.73-1.82,10.38.17,1.18,1,2,2.12,1.7,4.18-1,2.85-4.91,3.92-7.57.71-1.79-.19-5,2.2-5.17,2.73-.15,2.83,2.85,3.14,5.12a23,23,0,0,0,1.8,7.12c.7,1.43,1,2.61-1.17,4.38s-2.47,6.32-1.39,9.6c1.5,4.56-1.12,4.78-4,4a81.17,81.17,0,0,1-10.28-4c-1.51-.64-2.94-.74-3.92.6-1.15,1.56,0,2.63,1.22,3.57,5.79.65,6.5,2,4.18,6.73a16.61,16.61,0,0,0-2.13,8.79c-2.52,5.71.94,8.61,5.24,11.12a6.72,6.72,0,0,0,1.84.28c4.19-2.23,4.19-2.23,3.61-9.13.09,8.81,4.28,13,12.91,12.15a3.85,3.85,0,0,0,2.31-1.22,6.68,6.68,0,0,1,4.85-4.17,3.87,3.87,0,0,0,3.2-4.55c-.32-2.14-1.39-4-3.93-3.89-1.93.07-3.24-.39-3.46-2.46-.26-2.38,1.1-3.77,3.09-4.75C656,644.07,659.53,644.17,662.08,641.84Z" fill="#7b5738"/><path d="M668,591.38c.1-3.85,3.38-7.46.44-11.63-1.19-1.68,1.74-1.77,2.36-2.94-1.61-2.13-4-1.6-6.22-1.93-10.78-1.61-21.47-3.44-30.63-10.09-3.82-2.78-7.37-1.12-10.5,1.72l-1.44,1c4.77,3.76,11.17,2.47,16.41,5.39a27,27,0,0,1,6.53,5.18c.62.65,1.2,1.79.55,2.08-4.56,2-1.77,6.24-3,9.17-1.82,4.4,0,6.63,3.71,8.75,2.74,1.58,5.13,6.05,6.11-1.22a1.82,1.82,0,0,1,3.58,0c.76,2.71.49,5.65,4.62,3.17.25-.15,1.19.84,1.77,1.28C665.27,598.36,660.05,591.19,668,591.38Z" fill="#7c5838"/><path d="M691.48,929.34c2.12-3.68.74-8.55,4.06-11.84a1.37,1.37,0,0,0,0-2.16c-2-1.45-3.93-2.93-1.26-5.27,3-2.6,6.11-2.59,9.6,0-2,1.5-4.58-1-6,2a16.45,16.45,0,0,1,7.09,9.37,6.59,6.59,0,0,0,6,4.64c2.19.14,2.81-2.73,3.4-4.55a8.26,8.26,0,0,1,3.48-4.92c-1-.72-1.47-1.1-2-1.37-1.82-1-5.56.17-5.37-2.81.2-3.15,3.27-1,5.07-1.2,3.35-.39,2.63-3.22,3.11-5.21.6-2.54-1-4-3.26-4.33-1.7-.28-3.67.87-5.09-1.1.63-2.12,2.86-1,4.1-2,1.55-1.23,3-2.48,2.42-4.56s-2.49-1.76-4.14-1.55c-2.31.3-4.74,1-3.89-3a1.37,1.37,0,0,0-2.08-1.38c-2.05,1-3.84,2.91-2.63,4.85,1.8,2.88,3.12,4.75,0,7.87-2.19,2.22,3.23,2,2.42,4.94-4.31,1.39-5.83-4.5-9.69-4.27h0c-4.68,2.21-9.59,8.9-10.75,14.63-1.33,6.53-1.33,6.53-6.74,10.89l2.35.56a10.23,10.23,0,0,0,6.39,6.24Z" fill="#e8aa6e"/><path d="M688.07,933.71l-6.39-6.24C680.16,933.26,684.46,933.13,688.07,933.71Z" fill="#dc9d63"/><path d="M623.42,566.51c4.85-1.18,8.67-.81,13.6,2.21,10,6.17,21.83,8.12,33.75,8.09,1-.29,2.49-.84,2.14-1.66-1.36-3.13-.41-6.81-2.48-9.72.58-4.51-2.86-7.73-3.92-11.75-.42-1.61-3.07-3.45-5.13-2.29-2.75,1.55-6.39,3.43-6.06,7s-4.21,4.37-3.08,7.85c.14.42-1.87.34-2.7-.2-1.36-.9-.32-1.51.35-2.35,6.41-8.12,3.76-17.74-5-23.26-6.82-4.31-13.08-3.74-19.9-1.31-.09.4-.17.81-.26,1.21,1,.29,1.86.62,2.16,1.71.12,1.2,4.71,2.09,0,3.71-4,1.36-2.41,7.11-6.12,9.06C619.77,559.13,623.83,562.32,623.42,566.51Z" fill="#906f4e"/><path d="M652.26,541.87c6.26,2.28,12.49,4.7,19.29,4.93,2.08-2.45,1.25-4.09-1.53-5s-5.53-1.57-8.25-2.5c-2.95-1-5.51-2.39-7.22-5.32-3.44-5.88-3.85-5.87-10.8-1.66,1.38-7.12,0-14,5.1-19.48,1.91-2,.66-3.75-.14-5.58-.86-1-1.23-2.16-.05-3s2,.59,3,1c2.77.26,2.44-1.79,1.94-3.15-1.88-5.14-.13-9.61,2-14.18,1.24-2.7,3.09-5.63-.14-8.35a19.81,19.81,0,0,1-3,.48c-6.44,0-12.44-.09-13.53,8.8a55.22,55.22,0,0,1-2.4,10.08c-1.14,3.47.24,4.83,3.64,4.54-.31,2.48-2,2.9-3.45,3.65-4,2.11-4,2.1-.18,4.6a2.05,2.05,0,0,1,.86,1.42c0,1.68-1,2.17-2.54,2.86-6.32,2.88-8.65,14.62-4,19.21C638.68,535.05,644.5,541.55,652.26,541.87Z" fill="#947253"/><path d="M655.43,479.59c1.26,3-.34,5.4-1.52,8-2.33,5.1-5.25,10.22-1.15,15.86.49.67-.31,1.47-1.1,1.84,7,7.68,17.18,7.61,26.27,11.59,0-1.45.22-2.18,0-2.51-2.64-3.14-10.47-2.66-6.92-10.46.42-.92-4.38-4.36-6.94-6.42-1.78-1.43-1.89-2.3.16-3.53,7.9-4.71,7.94-7.37.28-12.37l-6.17-4Z" fill="#836043"/><path d="M682.57,443.16c-2.23,1.22-1.72,4.19-3.62,5.63.21,1.5,1.67,3.46-.46,4.3-1.57.63-2.38-1.31-3-2.51-3-5.87-5.19-4-7.15.68a118.48,118.48,0,0,0-4.28,13.61c-1.74,6-3.81,9.7,5,8.84-.63,2.29,1.53,5.08-1.28,7,1.77,2,5,3.14,6,1.28s6.61-5.7-3.19-7.44c7.48-1.6,9-4.66,6.53-8.76-2.35-3.85,2-7-.32-11,6.33,1.38,10.51,5.38,15.69,7.19,2,.72,4,2.81,5.48-.67-2.09-.51-2.77-2.16-3.48-3.94-.57-1.44-1.2-2.1-3.16-.8-3.16,2.08-8.28-1.09-7-4.22C686,448.39,683.59,446.09,682.57,443.16Z" fill="#836043"/><path d="M652.26,541.87c-6.92-3-12.86-9.12-21.49-6.64L625,539.11c1.22.17,2.75.9,3.62.43,7.7-4.18,13.36,1.38,19.14,4.35,6.31,3.24,5.58,14.56-.7,18.61-1.46.94-1,2-.87,3.18s.1,2.51,1.94,2.5c2.24,0,4.48.12,7.22.2-1.36-3-3.68-6.54,2.51-5.92.73.07,1.63-1.42,1-1.76-6-3.23.89-4.22,1.09-6.33.12-1.2,1-2.73,2.36-2.17,1.63.67,2.94,2.12,4.39,3.23-3.89,4.19,2.12,4.66,2.73,7.18a29.35,29.35,0,0,0,1,2.82c.82-1.68,4.63-2.26,1.16-5.55-1.32-1.25,3-4.4,2.46-7.46-6.23-3.28-12.54-6.22-19.79-6.57C651.88,545.74,650.28,544.52,652.26,541.87Z" fill="#7e5b3c"/><path d="M665.32,408.42c3.89-.8,3.9-3.77,3.84-6.78C667,403.38,665.39,405.47,665.32,408.42Z" fill="#8c6b50"/><path d="M737.08,692.53c-.5-7.26-2.83-14.15-4.29-21.2-1.83-8.81-7.09-16.31-8.46-25.15-5.17-.95-8.32,1.46-8.31,6.38,0,1.42,1.16,2.86.31,4.2-4.58,7.33.32,11.26,5.38,15.11a6,6,0,0,1,2.63,3.94c.41.77-.94.76-.18.45,0,0-.09-.12-.13-.35-.39-2.47-1.65-4-4.19-2.72s-4.62,4-3.22,6.56c3.63,6.68-1.47,12.74-.69,19.15.2,1.69-1.44,2.91-3,3.6-4.53,2-4.19,5.43-2.06,8.62s1.95,6.09,1.1,9.74-2.6,8.27,2.37,11a4.8,4.8,0,0,0,1.85-.06c10.22-5.22,18.68-12.06,22.05-23.63a63.79,63.79,0,0,0,1.67-9.48C740.05,696.18,739.6,693.87,737.08,692.53Z" fill="#3f210a"/><path d="M720.72,640.68c-7.5-.35-7.37.68-16.12,8s-10.89,8.64-15.89,15.61-8.7,6.57-11.39,11.34-4.5,4.19-6.84,8.19S677,695.63,677,695.63l27.55-7.43,17.63-33.92Z" fill="#3f210a"/><path d="M715.56,731.25c-5.78-3.46-2.36-8.32-1.31-12.28.7-2.63,2.36-3.85-.7-6.51-1.95-1.69-7-6.63,1.09-8.69,3-.77,3.71-3.69,3.36-6.56a20.55,20.55,0,0,1,1.91-11.37c.77-1.65,1.51-3.18-.36-4.28-3.19-1.88-1.91-4-.58-6.15.67-1.1,1.67-2.25,2.94-1.39,2.53,1.74-.48,4.16.59,6.69,3.69-1.57,4.23-4.13,2.46-7.14a19.07,19.07,0,0,0-4.25-4.41c-3.63-3.12-7.3-6.09-2.7-11.21a3.19,3.19,0,0,0,.33-3.51c-3-6.34,1.52-7.29,6-8.26-.68-2-.38-4.67-3-5.39-3.18-.87-1.9,3.69-4.39,3.87-3.74-1.28-5.48.22-5.56,4,2.79,2.92,1.56,6.24,1.16,9.59-.44,3.73-2.89,7.76,1.39,11.1.87.67-.29,2.22-.95,3.23-1,4-.87,8-4.28,11.48-2.74,2.8-.4,5.88,5.31,7.8A62,62,0,0,0,705,713.6c-1.48-5.06-.26-10-2.07-14.41a12.44,12.44,0,0,1-1.42-5.32c0-1.24,0-3-.93-3.47a15.81,15.81,0,0,1-7.32-7.92c-.08-.17-.75.07-1.1.34v0c-1.87.48-1.57-1.4-2.32-2.14a3.81,3.81,0,0,0-3.93-1c-1.65.48-2.08,1.81-2.1,3.33a16.59,16.59,0,0,1,0,2.44c-.57,3.48-1.5,6.26-5.72,3a2.76,2.76,0,0,0-3.43-.16h0c-2.49,2.18-3.69,5.33-5.9,7.76a3.65,3.65,0,0,0-.15,5.06c1.47,1.63,3.34,1.17,5.12.41s3.14-2,4.87-2.63a3.91,3.91,0,0,1,4.09.45c1.85,1.54-.25,2.34-.78,3.47-2.43,5.08,1.86,4.6,4.57,5.43a10.21,10.21,0,0,0,1.66,0c4.72,1.63.88,5.62,2.25,8.17a13.38,13.38,0,0,0,.25,2.44c1.81,9.17,2.64,9.72,12.12,7.78-.1,2.8-.75,5.91,3.52,6.38C709.6,733.38,713.28,736.25,715.56,731.25Z" fill="#613516"/><path d="M737.08,692.53c3.09,5.57-1,10.85-.65,16.31.62,4.82-1.21,10.43,4.42,13.64,2.95.8,6.33,2.64,6-3.14-.1-2,2.07-1,3.15-1.28,7.15-1.95,9.24-5.34,7.45-12.59a12.14,12.14,0,0,1-.3-4.28c.82-7.27-2.57-13.39-5.42-19.66-.33-1.09-1.25-1.4-2.23-1.62C743.29,682.07,737.82,685,737.08,692.53Z" fill="#c49061"/><path d="M668.49,680.82c1-2.08.35-4.32,1.39-6.72,1.84-4.25-2.2-3.12-4.66-2.68a37,37,0,0,0-4.19,2.07c-2.7,1.1-4.38,3.6-6.95,4.86-4.52,2.17-6.18-1.55-8.42-4.06-3.62-3.57-7.47-6-12.5-2.45-1.35,1-3.11,2-2.83,3.74.36,2.15,2.56,2.34,4.42,2.61,1,.15,1.93-.37,3-.33-.21,2.54-.48,5.11-3.58,5.59A7.89,7.89,0,0,1,627,681c-4.15-4.05-8.59-7.93-15.35-5.09a9.22,9.22,0,0,1-7.26.14c-2.14-.92-3.52.33-4.83,1.73l-.08.08c2.28,4.29,3.52,7.32-2.69,10.51-4.1,2.1-6.58,7.84-9.07,12.34-1.46,2.63-5.64,4-4.22,8.08l1.17.16c4.33-1.23,5.53-5.83,8.88-8.13a19.06,19.06,0,0,0,2.15-2.16c7.88-10.51,18.26-8.52,28.7-5.64,6.21,1.71,12.65,3,18,7,2.56,1.42,4.74,3.64,7.94,3.68a6.88,6.88,0,0,0,1.75-.22c2.67-.73,3.43-2.51,3.12-5.16-.41-3.41.71-6.09,4.39-7.09,2.85-2.21,7.53-.92,9.46-4.9C667.4,684.62,667.84,682.73,668.49,680.82Z" fill="#7c5c40"/><path d="M525,801.89a4.05,4.05,0,0,0-4,1.84c-4.25,3.15-6,7.51-6.13,12.64,7.64,2.58,11.51-3.06,15-7.77,2-2.77,3.94-3,6.59-3,4.4,0,8.48,1.68,12.7,2.58,5.64,1.22,11,1.09,16.35-1.2a5.89,5.89,0,0,0,1.43-1,11.9,11.9,0,0,1,11.29-4.71c6,.63,11.66,1.19,15.28-5.09.48-.84,1.83-.75,2.79-1.06,1.79-.55,2.84-2.06,4.2-3.17,4.45-3.08,3.38-7.7,2.9-11.83-.36-3.1-3-4.3-6.12-3.51a20.16,20.16,0,0,0-9.3,4.75c-9.7,9.58-22.91,11.91-34.85,16.76-4.21,1.71-8.34-1.42-12.21-3.26-1.2-.57-1.41-1.95-1-3.27.33-1,.89-2,2-2.1,1.5-.19,2,1.1,2.69,2.12,4.61,6.6,8.89,7.45,15.53,2.74,8.72-6.2,17.28-12.58,25.07-20A25.7,25.7,0,0,1,599.83,767c6.7-.84,9.45-4.36,8-9.08-4.12-3.83-7.67-8.2-11.59-12.21-.4-.13-1-.31-1.17-.11-3.77,6.23-10,5.87-16,6-2.68,0-4.74,1-4.79,4.29s-2.19,6.11-2.82,9.31c.75,4.43-.39,8-4.5,10.41-1.41.83-2.16,2.42-2.91,3.92-1.7,3.41-4.6,4.57-8.25,3.92-4-.71-3.65-3.76-3.46-6.7a2.52,2.52,0,0,0-.72-1.67c-3-1.93-4.95.34-7.12,1.86-7,4.89-10,12.84-14.95,19.29C528.08,798.14,527.32,800.63,525,801.89Z" fill="#d8aa7f"/><path d="M514.76,816.4,521,803.73c-7.37-3.68-12.07,2.14-17.42,5.13-2,1.14-3.58,2.53-6.09,1.75-1.67-.53-3.24-1.06-3.42-3s1.08-3,2.95-3.23c1.63-.22,3.51-.13,3.63-2.43s-3-.9-3.51-2.77c1.62-1.94,5.16-2,5.5-5.24-4.63-.23-9,1.31-13.6,1.69a4.08,4.08,0,0,0-3.78,4.06c-2.67,5.8,1.56,8.25,5.35,10.91.68.79,2,.77,2.53,1.6C498.55,820.42,506,820,514,817Z" fill="#e5c3a2"/><path d="M525,801.89c3.5.69,4.49-2,5.89-4.24,4.42-7,7.92-14.71,15-19.75,1.77-1.27,3.13-3.4,5.82-2.28,1.2,1.32,2.38.82,3.56,0A4.87,4.87,0,0,0,557,772.4c.2-3.37,1.59-7.48-2.48-9.29s-6,1.81-7.78,4.44c-3.62,5.18-8.65,4.77-13.8,3.74-2.83-.57-5.62-1.82-7.34,1.78l.11.21c3.65,2.62,10.26,3.85,4.8,10.64-.91,1.13.4,2.29,1,3.31.8,1.38,1.3,3.4-.48,3.56C523.05,791.51,526.48,798,525,801.89Z" fill="#dcb692"/><path d="M485.23,799.66a8.55,8.55,0,0,1,7.62-2.93c3.67.37,6.8-.88,9.76-2.82l-.12-.09c.43-.4.95-.72,1-1.4.2-1.94,1.78-4.22.35-5.72-1.66-1.74-4-.55-6,.42-1.25,1-2.63.27-3.95.26-4.1,3.58-7.22,2.61-9.33-2.44-3.07,3.4-3,7.34-3.69,11a19.55,19.55,0,0,1,.78,2.18c.27,1.22-.75,3,1,3.45C483.35,801.78,484.38,800.36,485.23,799.66Z" fill="#5b4223"/><path d="M497.88,787.12c7.52-1.84,5.3,3,4.61,6.7,3.05-1.48,3.27-5.14,2.58-6.87C503.15,782.14,500.32,785.74,497.88,787.12Z" fill="#c4a984"/><path d="M525.56,773.07c4-2,8-.78,12.07-.21,4.23.59,8.34,1,10.37-4.51.74-2,2.48-5.39,5.84-4.4s1.16,4.21,1.69,6.38a4.69,4.69,0,0,1-1.2,4.52c5.54,4.36,8.19-.8,11.07-3.71,2.18-2.2,3.82-4.81,7.14-5.42,1.14-3.55,4.06-6.59,3.3-10.67-.36-2,.94-1.91,2.11-2a14,14,0,0,1,4.27-.19c6.41,1.4,10.8-1.39,14.21-6.43,1.23-7.87,5.2-2.15,8.13-1.62a4.1,4.1,0,0,0,1.74-.11c3-1.84,8-1.48,7.74-6.94-4.72-1.91-10.16-1.12-14.47-5.14-2.29-2.14-5.36-.19-6,3.41-1.4,3-2.89,3.77-5.33.74-4.63-5.74-10.9-4.56-13.32,2.71-1.15,3.44-2.38,1.87-3.82.79-2.92-2.2-5.07-3-7.06,1.39-1,2.13-3.58,3.87-5.85,5-4.18,2.1-5.15,3.89,1.07,6.39-6.61,1.08-11.14,2.07-10.72,9.38.24,4-12.06,9.34-16.12,7.57-3.09-1.35-6.37-1.56-9.58-2.23C524,769.4,522.47,772.4,525.56,773.07Z" fill="#c99d75"/><path d="M592.66,700.3c-3.9,1.73-5.33,5.72-8,8.6-.52,1.22-1,2.44-1.57,3.72,2.61.94,4.18-1.26,6.25-1.53l.88,0c4.62-3.79,8.71-2,12.65,1.22,1.11.9,1.91,2.16,3.22,2.85,1.72.91,4.88,1.45,5.1.31,1-5,6.48-4.05,8.34-6.68,2.53-3.62,4.15-2.25,6.78-.92s6.19,4.21,8.3,1.06-.12-6.67-2.67-9.73c-5.47-6.53-11.59-9.24-19.72-5.12-.9.46-2.17,1-3,.57C601.71,690.8,597.62,696.77,592.66,700.3Z" fill="#ba9777"/><path d="M593.55,736c2.7-3.38,5-4.17,8.11,0,3.26,4.41,8.5,1.29,12.74,2.25,3,.94,5.41-.61,7-2.6,3.47-4.37,8.07-6.59,13.16-8.22,3.28-2.68,2.37-4.85-1.31-5.19a36.57,36.57,0,0,1-17.14-5.75c-3.58-2.31-8.71-1.09-13.07-2a1.56,1.56,0,0,0-.85,1.6c2,2.59,5.88,1.9,7.84,4.53,1.82,1.45,4.35,1.46,6.13,3,2.25,3.36,1.72,6.17-1.62,8.45-6.17,2.56-11,.54-14.85-4.44-2.48-1.21-4.42-4-7.77-2.73a1,1,0,0,0-.52.9c0,.35.08.53.18.55,1.08.53,2.83,1.21,2.26,2.37-1.66,3.34-4.78-.16-7.32,1.45C588,733,588.39,737.12,593.55,736Z" fill="#784a23"/><path d="M591.57,726.39a10.73,10.73,0,0,1,.19-1.11c-.48-4.34,1.14-6.66,5.86-6.7,1.78,0,4.22.24,4.85-2.47l-.34-.18c-4-6.33-5.79-7-12.74-4.86l0,0c-1.07,1.12,2.66,5.64-3,3.78-2.31-.76-1.65,2.59-2.41,4-1.56,2.4-1.48,4.29,1.61,5.28A9.16,9.16,0,0,0,591.57,726.39Z" fill="#84603d"/><path d="M585.59,724.17a7.48,7.48,0,0,1-1.61-5.28c-1.73-1.91-3.85-2-6.13-1.32-.57.17-1.66.41-1.65.47a93.91,93.91,0,0,0,2,9.57c.51,1.75,2.4,2.19,4,2.09C585.91,729.49,584.7,726.16,585.59,724.17Z" fill="#c69870"/><path d="M751.76,681.53c.82,3.61.08,7.4,3.11,10.73,1.89,2.09,1.41,5.79.71,8.87-.35,1.57-.81,3.14-.2,4.81,2.55,7.06-2,12.09-9.6,10.64-1.08-.21-2.13-1.63-3,.13-.41.82,0,1.51.75,2.07,1,.73,3.55.47,2.41,2.59s-2.83-.25-4.3-.2c-1,3.85,3.17,7,.77,11.5-2,3.7-4.35,4.48-6.44,2.13-6.05-6.84-13.26-3.94-20.27-3.41l-.11-.14c-3.68,3.57-7.44.45-11-.22-2.33-.44.29-2.21.36-3.44.12-2,.81-4.58-2.66-3.62-9,2.48-9,2.57-10.34-6.61a7.74,7.74,0,0,1,.17-1.84c-1.59-1.28-2.83-2.54-1.89-4.94.52-1.33.86-3.24-1.6-3.54-.4,0-.79,0-1.19.07-4.87.37-9.78-.06-14.63,1.23-4.68,1.25-8.39-.63-11-4.72-3.28-1.89-6.74-1.63-10.24-.84h0a1,1,0,0,0-.14,1.5c1,1.48,3,1.69,4.47,3-4.16,1.44-4.13-1.74-5-3.85a32.39,32.39,0,0,0-5.06-1.11c-1.85.73-1.64,2.16-1,3.53.77,1.79,1,3.5-.08,5.23-1.6,2.48-1,4.38,1.2,6.3,2,1.71,4.75,2.35,6.19,4.71a6.85,6.85,0,0,0,1.62,2.81c2.53,1.25,5.71-2.82,7.93,1a4,4,0,0,0,2,1.5c3.9.47,4.78-2,5.38-5.13.87-4.5,4.94-7.07,9.47-6.51,1.9.24,2.47,1.18,2.19,2.89-.19,1.21-.7,2.35-.93,3.56-1.41,7.47-.72,8.3,7.09,8.49,1.24,0,2.62-.13,3.61.57,4.67,3.32,9.79,4.63,16.71,2.69-2.81,2.81-5.74,1.65-7,3.9.14,2.7,3.5,1.61,4.24,3.6l.39.56c3.73-.07,5.89-3.14,8.92-4.55,2-.92,4.34-3.08,5.71.82,1.26,8.19,10.4,13.61,18.11,10.64a8.3,8.3,0,0,1,5.31-.67c5,1.24,7.8-1.07,9-5.77a7.74,7.74,0,0,1,1.64-3.29c5.14-5.84,5.14-5.84,3.92-12.26a20.86,20.86,0,0,0,18.62-.83c2.8-1.5,5.12-2.59,7.82-.11,2.49,2.27,2.89,4.41,1.07,7.57-1.94,3.36.11,5.84,3.64,5.78,5.08-.08,6.14,4.88,9.27,8,3.42,3.41,6.92,5.78,10.83,8.76,1.61,1.22,4,.38,5.94,1.46-4.47,4.15-4.49,9.09,1.42,12,5.11,2.55,8.78,6.29,12.94,9.72l7.3,1.4,1.73-2.18c-3.22-.47-4.92-2.11-4-5.49,1.21-4.51-1.27-6-5.12-6.34-1.32,1.64-2.64,1.45-4.06.09-1.76-1.66-.15-2.34.86-3.23a21.16,21.16,0,0,0-5.92-8.65c-3-2.85-8-3.52-7.85-9.69.07-2.85-3.86-5.5-7.76-5.91-3.59-.37-7-1.08-7.91-5.45-.17-.79-1.4-2-2.08-1.92-3.58.23-3-1.08-2.64-4,.63-4.57-1.11-7.7-6.51-9.71-3.65-1.36-5.73-6.79-8.59-10.33-1.9-2.35-3.88-3.68-5,.59-.52,2-1.51,2.79-3.53,2.05-1.59-.58-3.83,0-4.12-2.71-.46-4.15-1.77-7.94-5-10.88a2.65,2.65,0,0,1-.4-2.9C760.65,687.6,755.17,685.11,751.76,681.53Z" fill="#b68053"/><path d="M913.08,289.49l15.45-2.28,1.85-1.92c-2.63-.72-2.62-.72-2.39-4.17.06-1-.64-1.39-1.48-1.6-1.62-.39-4.16-.89-4.46.64C921,285.37,915.82,286.19,913.08,289.49Z" fill="#8c6b50"/><path d="M566,806c-8.83,2.49-17.33,1.48-25.81-1.82-2.94-1.14-6.41.83-9.59-.61-1.31-.6-2.15.42-1.53,1.51,1.6,2.82-1,3.25-2.16,4.76-3.08,4.16-7.53,5.45-12.17,6.57h0c-6.7,2.39-13.56,1.8-20.44,1.15-.08.42-.17.83-.26,1.25,11.81,8.19,23.65,5.74,35.26-.3a60,60,0,0,1,7.44-2.88c-.12-2.69-3.13-2.46-4-4.26a2.13,2.13,0,0,1,2.77-1.73c3.34,1.08,6.33,5.48,10.15.4.39-.52,3.23,1.47,1.52,3.23-2,2-3,4.75-6.83,5.39-5.4.89-10.51,3.49-15.5,6.08,5.63,1.89,10.09-2.31,15.27-2.19l9.16-2.19a7.92,7.92,0,0,1,5.72-1.76c5.76.72,9-1.65,9.58-7.42C564.81,809.38,566.52,808,566,806Z" fill="#be8c5d"/><path d="M599.58,677.73c3.42-2.25,6.63,2.54,10.52.19,1.09-.66,3.57-1.15,5.41-1.7,1.53-.47,3.6-1.36,3.9,1.14.39,3.18,1.67,3.11,4,1.94,1.1-.54,1.56.35,2,1.47,1.54,3.63,7.34,5.79,10.77,4.25,2.49-1.12,2.84-2.22,2.9-9.3-2.67,1.43-5.3,1.76-7.86,0,4.53-7.38,9.41-3.36,14.24-.53,2.35-.06,3.05-2.29,4.49-3.45,2.27,2.21-.81,7.61,4.81,7.76,3-.77,4-4.5,7.23-5,.68-8.67-4.36-12.49-13.15-10l-1.5,1c-5.84-.32-11.65-.82-17.08-3.27l-1.21-.23c-3.24,1.3-4.88.57-5.28-3.24a10.4,10.4,0,0,0-4-7.36c-3.48-3.42-9.1-6.3-11.58-2.07-4.31,7.34-11.73,12-15.22,19.75-.73,1.62.34,2,1.25,2.81C596.17,673.7,597.82,675.77,599.58,677.73Z" fill="#a57752"/><path d="M619.81,651.41c1,3.33,2.89,6,2.94,10.1,0,4.74,4,2.31,6.37.5-4.27-1.94-5.57-5.58-5.71-9.88Z" fill="#8a6748"/><path d="M566,806c-1.06,1.68-3.53,2.51-3.35,4.88.49,6.61-3.66,7.23-8.62,6.7-2.37-.25-4,.41-4.73,2.78,4.24-.5,8.5-1.27,12.46,1.16,6-1.18,11.21-5,17.48-5.47,4.3-3,9-1.5,13.57-1.14s8.91,2.47,13.95.76c2.84-1,5.37-.53,5.39-4.57,0-1.52,2-2.34,3.42-1.79,3.73,1.49,7.39-1.68,11.34.36,2,1,4.09-1.26,4.84-3.69-4.19-3.05-8,1.06-12.13.74-2.48-.18-4.42,0-5.19-2.77-2.65-2.42-5.77.31-8.54-.8a11.55,11.55,0,0,0-1.83-.27c-2.13,0-5.16-1.53-5.94,1.29s2.57,3.16,4.35,4.31c.08.49-.25.82-.72.57-7.33-3.95-14.52-4.52-22.18-.43-3.14,1.68-6.3-.77-9-2.75A4.72,4.72,0,0,0,566,806Z" fill="#9f6e43"/><path d="M846.53,780.12c7.75,2.67,15.92.5,23.77,2-3.32-3.57-7.74-5.82-12.29-8.63-5.27-1.51-8.06-3-13.09-3.34-4-.31-5.85,2-6.46,4.64-.83,3.72,3.07,2.73,5.06,3.49C844.67,778.72,845.93,778.85,846.53,780.12Z" fill="#956e4f"/><path d="M825.68,763.59c-1.64,0-4.37-1.24-4.23,1.35.11,2.14,2.59,4,4.79,4.81s3.28-.67,2.64-3A3.8,3.8,0,0,1,825.68,763.59Z" fill="#ca8c59"/><path d="M494.31,817.55c6.93,1.6,13.86,3.27,20.44-1.15-9.23,2.88-16.82-1-24.17-5.83C492.34,812.62,494,814.74,494.31,817.55Z" fill="#d8aa7f"/><path d="M735.53,983.15c1.69-4.22.23-7.64-2.68-10.75a30.2,30.2,0,0,1-3-3.78c-.81-1.21,1-3.83-1.54-3.92-2.27-.09-2.37,2.4-3,4.08,2.22,7.92,5.42,15.64,4.68,24.12Z" fill="#c68752"/><path d="M620.8,554.8c2.33-.9,5.33-.92,4.78-4.91-.23-1.73-.22-4.52,3.25-1.9,2,1.5,1.73-1,2-2.26,1-3.75-1.18-4-4-3.7A25.26,25.26,0,0,0,620.8,554.8Z" fill="#a58363"/><path d="M680.09,850.42c-1,5,3.29,9.21,2.31,14.23l.61.13.61.1c3.43-3.37,8.11-1.91,11.22-1,4.19,1.27,8.83,1.79,10.78-.8a10.58,10.58,0,0,0,.07-11.44,19.63,19.63,0,0,1-2.92-5.93c-.4-1.53-1.85-3.18.29-4.26a4.12,4.12,0,0,1,4.61.92c3.43,3.17,6.75,6.45,10.05,9.75.84.84,2,2,1.21,3.21-.87,1.44-2.13.47-3.2-.06s-2.07-.48-2.42.82c-.19.74-.29,2,.09,2.28a12.31,12.31,0,0,1,4.43,5.69c.47,1,2.11,1.16,2.15-.24.08-2.69,2.81-1.23,3.53-2.66-3.24-1.22-1.86-3-.55-4.74,2-2.71,4.62-4.82,1.33-8.94-1.53-1.91,2.15-5.88.19-9.09-.06-.1.45-.65.78-.86.89-.58,2.11,0,1.89.62-2.1,5.25,8.69,2.52,5,7.64-2.12,3-.38,4.52.93,5.39,2.08,1.37,2.48-1.11,3.08-2.55.71-1.7,1.34-3.43,2.15-5.07a9.11,9.11,0,0,1,1.75-2.25c4.88,3.15,8.44-1.54,12.66-2,.57-.06,1.58.08,1.73.41,2.46,5.68,8.07,5.17,12.68,5.93.13,1.64-.46,2-1.4,2.05-1.58.07-3.89-.4-3.86,1.85s2.68,2.16,3.9,1.74c3.21-1.1,5.67,3,9.36.6-3.2-2.64-2.08-7.95-8.64-9.7,5.53-1.68,9.22,3.59,12.59-.45,1.83,2.7-1.51,4-.84,6.19,2.08.21,3.05-.69,3-2.68,0-5,2.75-6.44,7.26-5.68,2.23.37,4.65,1.22,5.22-2.27s-2.21-3.31-4.3-3.83a6.55,6.55,0,0,0-2.43-.42c-10.72,1.52-17-6.17-23.9-11.95-3.87-3.26-5.87-1.37-8.33.64s-.78,3.56,1.07,4.85c1.3.91,3.69,1.25,3.36,3.15-.43,2.4-3.08,1.28-4.7,1.83a10.25,10.25,0,0,1-2.92.13c-1.33,2.26,2.35,3,1,5.41-2.54-.78-5.59-1-7.71-2.54-2.38-1.72-5.16-2.49-7.44-4.07-3.59-2.47-6.11-3.71-7.3,2-.48,2.26-2.35,1.94-4,1.29-1.41-.57-2.89-1.41-3.13,1-.22,2.24-1.56,2.15-3.06,1.66a3.07,3.07,0,0,1-2.23-3.86,13.36,13.36,0,0,1,3.33-5.77c3.8-4.4,3.2-7-2.7-9.91,1.13,2.39,2,4.68-1.09,5.46a3.29,3.29,0,0,1-4.14-2.73c-.46-2.82-2.29-4-4.23-5.57s-3.87-3.48-1-6.58c4.61-5,3.63-7.14-3.33-8.48-.37-2.41,2.86-2.88,2.8-5.1-3.51-1.33-6.53-.4-9.22,2a6.15,6.15,0,0,0,.76,1.66c1.61,1.73,5.33,2.31,4.72,5.09-.72,3.3-3.78.44-5.74.95-3,.79-3.77,3-2.57,9.41-3.88-3.44-9.67-3.6-10.86-9.44,1.78-2.27,3.7,2.08,5.47-.39.44-1.74-1.17-2.78-1.87-4.19-2.13-4.28-.64-7.8,4.07-9.3.79-.25,2-.3,1.8-1.2-.72-3.75-5.39-5.18-5.76-9.29,0-.21-1.47,0-1.94.9-.73,1.31-.65,3.81-2.88,3.24a4.54,4.54,0,0,1-3-4.31c0-3.23-.36-3.87-3.58-2.28-2,1-.74-3.59-3.37-3.17-4.56,5.61-4.81,8.47-1.22,13.91,3.62.65,3.36-2.71,4.8-4.79,1.47,5.65-1.2,11.69,2.52,16.69,1.77,1.88.5,2.87-1.12,3.7-2.59,1.33-3.8,3.61-4.7,6.23-1.25,3.66,1.23,12.39,4.29,14.57a2.79,2.79,0,0,0,3.45.25c2.21-1.7,1.68-3.95,1-6.16a11.29,11.29,0,0,1,.5,7.29c-1,4,1.15,6.39,4.92,7.08,2.42.44,4.41.94,5,3.65-.85,1.17-1.9.4-2.82.3-2.37-.24-4.13.51-4.75,2.9s1.24,3.24,2.82,4.21c3.25,2,7.76,2.1,9.6,6.47-1.5-1.3-2.91-3.76-4.94-1.64s-4.63,4.93-3.91,8c.88,3.78,5-.22,6.55,2.07-.6.08-1.62-.66-2.69-.4-4.59,1.09-5.43-.72-4.39-4.93,2.18-8.78-3.58-14-9.83-16.88-1-.44-2-.71-2.13.94,1.09,3.61,1.86,7.35,4.36,10.4C681.5,848.56,681.56,849.68,680.09,850.42Z" fill="#e4a569"/><path d="M750.29,741.71C749.53,747,747,749,742,746c-.74-.43-1.4-.91-2.21-.29-3.53,2.71-6.58,4.65-11.39,1.31-3.61-2.51-7.05-4.68-8.93-8.73a2.25,2.25,0,0,1-.37.49c-3.33,2.52-.48,9.18-3.2,9.26-4.27.11-6.2,3.34-10.43,4.23,5.7.49,7.28,2,3,6-1.65,1.56-.61,3.51,1.38,4.45,1.7.8,4.41,2,2.13,3.54-2,1.3.4,7.78-5.17,4.42-1.31-.79-2.47.26-3.14,1.24-.79,1.16-.26,3,.71,3.21,2.81.54,4.54,5.16,7.19,3.26s6.44-4.5,4.31-9.63c-1.19-2.87-.37-5.8,4.26-4.28a70,70,0,0,0,10.74,2.7c2.19.36,3.72,1,3.49,3.29s-2.49,1.66-4,1.87-3.42-1.82-4.23.57a5.26,5.26,0,0,0,1.27,5.08c2.45,3,3.08,5.77-.72,8.88s.67,3.72,2.37,4.75c1.32.79,3.7.37,3.82,2.45s-2.24,1.23-3.26,2c-2.12,1.56-2.6,3.52-.51,5.56a1.76,1.76,0,0,0,1.12.49c3.08-.1-.21,7.12,4.32,4.22,3.39-2.16,3-6.45,1.46-10.16a13.47,13.47,0,0,1-.41-2.08c3.69-.13,3.56,4.1,5.9,4.68,4.27,1.05,2.42,3.41,1.87,5.9s1.65,3.74,3.64,4.18c3.52.78,6-1.23,7.41-4.17.8-1.61.62-2.62-1.67-4-4.85-2.94-9.39-6.9-7.81-14.06.75-.58,1.52.59,2.43.68,2.58.25,5.55-.25,6.3-2.7.63-2.09-1.49-4-3.62-5.12-1.33-.68-3.81-.54-3-2.91.59-1.62,2.5-.74,3.89-.84,2.8-.2,5.41.17,7.54,2.14,1.69-2.53-1.49-3.56-.79-5.44,1.45-2.85,4.66,4.66,5.77-1,.8-4.1-1.88-4.66-4.79-5.66-5.07-1.74-6-7.23-9.76-10.8,3.41-1,7.32,2.66,9.12-2,.33-.88,1.42-1.66.73-2.78-2.63-4.33-2.64-4.32,1.18-6.65C757.18,740.79,754.51,737.17,750.29,741.71Z" fill="#dda067"/><path d="M663.51,726.44l-1-1.49c-3.43,1.38-6.18,4-9.91,5-1.21.32-1.8,2.91-1.26,4.43,1.81,5.13-1.44,6.4-5.27,7.36-4.35,1.47-9.08-.7-13.35,1.39-2.52,1.23-.63-.79-.62-1,.09-2.47-1.35-4.86-3.41-3.66-4.47,2.59-10.31,2.87-13.46,7.66.13.65,1.59,1.3.56,1.86-3.42,1.88-8.43,0-11.23-4a13.29,13.29,0,0,0-2.37-1.77c-1.72-.76-2.85-3.41-5.32-1.9-2.88,1.77-.46,4-.42,6,1.86,5.35,6.35,8.49,10.29,12.09l.85-.11c10.6.17,20.8-1.31,30-7a10.8,10.8,0,0,1,10.59-.8,1.08,1.08,0,0,1,.52,1.54,13.53,13.53,0,0,1-9.15,5.67c-2.17.4-4.65,0-5.73,2.68,3.36,3.65-2.88,4-2.34,6.64a11,11,0,0,0,3.76,3.51c9-1.25,18,.3,27,.42,4.47.06,7.25-2.49,10.14-5.16,1.84-2,5-2.39,6.57-4.21,7.2-8.51,17.38-13,25.87-19.67l-.09-.32c-4.22-3.12-8.4-.78-12.31.52-6.12,2-12.52,2.17-19.12,4.33,4.37-8.5,4.35-8.45,12.81-6.1,1.86.51,4,1.58,5.55-.81-.46-3.83-2.91-5.4-6.48-6.18-6.54-1.44-13.4-1.65-19.44-5.05A5.87,5.87,0,0,1,663.51,726.44Z" fill="#b7865a"/><path d="M777.08,766.5c-2.5,2.37-2,5.31-2.78,7.78a4.48,4.48,0,0,1-3.38,3.3c-3,.45-.92-1.78-1.25-2.79-.15-.48-1-1.22-1.12-1.15a4,4,0,0,0-1.75,1.54c-.76,1.79.73,3,1.34,4.51,1,2.45,1.91,4.73-.81,7.12-3.65,3.21-1.88,5.31,2.12,6.35a22,22,0,0,1,3.57.94c1.17.52,2.1,1.49,1.5,2.93-.47,1.15-1.48.82-2.55.87-4.36.19-8.18,1.55-9.61,6.24a4.1,4.1,0,0,0,1.85,4.86c2.48,1.45,2.43-1.41,3.27-2.46,2.06-2.59,7.72-3,9.23.05,1.31,2.69,6.57,5.16,1.64,9.6-1.32,1.2,1.42,5.18,3.14,5.09,8.42-.45,16.53,2.47,24.91,1.81,2.3-.18,5.5-.57,5-3.14s-3.58-2-5.73-1.07c-1.61.66-3.15,1.15-4.65,0-.85-.66-.48-1.56.17-2.09,1.57-1.29,3.09-3,5.4-2.51,1.92.4,3.38,2.56,6.52,1.08-5.55-2.24-3.31-7.85-6-11.53,2-1.38,4,.34,6.27-.28-.83-3.7-4.39-5.11-6.66-9.13-.45,3.16.85,7.51-3.78,4.27-2.37-1.66-3.49.19-4.29,2.48-.48,1.38-1.42,3.28-3.63,2.3-1.07-.48-2.53-.75-2.79-2.17-.31-1.7,1.32-2.36,2.12-3.5,2.41-3.42,7-1.7,9.88-4-.73-2.88-4.72-1.26-5-4.25-.14-1.73-.62-3.38-2.7-3.56-3-.26-.13,3.58-2.69,3.82-2.74-1.45-1.43-3.84-1.19-5.94.26-2.29-.48-4.32-2.55-5.11-1.84-.71-3.53.24-4.57,2.15-1.46,2.69-5.76,1.88-6.77,5.51-.26.94-2-.16-2.15-1.12-.44-2-.67-4.11,1.79-5.22,7.68-3.48,7.78-4,.68-9.09C777.45,769.76,778.81,767.8,777.08,766.5Z" fill="#f6bc81"/><path d="M750.29,741.71c4-3.27,6.35,1.94,9.73,1.82a9.39,9.39,0,0,1,.52-2.41c1.35-2.73-.9-7.15,4.54-8,6-1,9.1,2,10.76,6.82,2.46,7.18,8.45,12.44,10.37,19.83,4.6-1.81,5.43,8.64,12,3.15,3.36-2.78,9.55,2.72,9.67,7.8.17,7.36.16,7.33,7.42,5.32,2.62-.73,3.48,1.83,5,3,2.92,2.36,5.62,4.56,8.68.31-2.28-4.89-4.65-9.62-11.16-9.81a2.49,2.49,0,0,1-2.46-2.4c.25-3,0-4.42-3.21-5.1a19.13,19.13,0,0,0,4.06-2.22,3.55,3.55,0,0,0,1.47-2.47,2,2,0,0,0-2.59-2c-8.51,1.72-9.07-4.64-10.42-10.09-1.47-1.25-7.53,7.48-5.32-2.54.32-1.45-4.72-7-10-4.77-1.7.72-2.68.19-3.66-1.13-1.23-1.68-.27-2.55,1-3.48,4.65-3.36.52-5.6-1.21-7.92-2.14-2.84-5.52-5.11-8.32-2-4.29,4.75-9.79,2.54-14.62,3.72-3,.72-4.46-1.78-4.16-5.29-2.9,1.58-2.63,3.67-2.33,5.6.62,4,2,8-3.51,10C751.47,737.93,751.05,740.26,750.29,741.71Z" fill="#ca8c59"/><path d="M672.37,765.89c-6.72,5-14.6,3.55-21.9,3.06-5.4-.36-10.49-.84-15.59,1.11-1-.6-1.61-.09-2.22.58-1.4,4.1-3.52,7.47-8.39,8a6.07,6.07,0,0,0-3.39,2.74,1.91,1.91,0,0,0,.38,1.64c3.28,1.4,6.47-.18,9.64-.5,5.57-.57,10.15.23,13.08,5.56.78,1.42,2.26,2.32,4.19,4.26-9-.57-16.66,4.23-25.2,2.37-1.63-.35-2.67.75-2.77,2.5a4.34,4.34,0,0,0,3.73,3.52c7.21-1,14.24-4,21.77-1.1,2.48,1,4.17-1.78,5.25-3.53,1.89-3,4.72-5.12,6.93-7.8,1.29-1.55,3-2.63,4.84-2,2.25.78.12,2.39.08,3.63,0,1.65,1.27,1.9,2.31,2.49,1.81,1,2-.39,2.49-1.52.68-1.57,1.56-1.77,2.55-.21,1.15,1.19,2.61,1.63,3.79.41s.63-2.64-.7-3.66c-3.94-4.63-1.41-9.21.14-13.79-2.23.45-4.07,2.56-7.08,1.59C667.52,771.4,671.43,769.54,672.37,765.89Z" fill="#cc986b"/><path d="M831,800.57c1.8-.05,1.75-1.68,2.49-2.56,1.18-1.4,1.61-3.15.13-4.42s-3.27-2.91-5.44-2.44c-12.59,2.74-16.75-8.47-24.11-14.34-.44-.34-.47-1.14-.82-1.63-.93-1.32-1.89-3.24-3.81-2-1.54,1-.56,3.05.22,3.84,4,4,8.08,8,12.4,11.63,4.13,3.51,8.58,6.49,14.39,6.76C829.4,795.53,828.55,799.74,831,800.57Z" fill="#c78e5d"/><path d="M698.15,795.94l9.22-2c1.43-4.06,2.19-8.07-1-12.09.46,4.81-.74,7.95-6,8.79C698.06,791,698.79,794.09,698.15,795.94Z" fill="#dda067"/><path d="M731.79,857.72l-4.48,1.85c3.94.31,6.43,4,9.38,1.14,1.88-1.86-.47-3.07-2.26-3.75C733.2,856,732.5,856.89,731.79,857.72Z" fill="#dc9d63"/><path d="M745.09,890.64c-3.11,1-5.93.25-7.36,3-.49.93.26,2.53,1.2,2.31A7.68,7.68,0,0,0,745.09,890.64Z" fill="#dc9d63"/><path d="M751.23,826.46c-3.21-.83-4.73.28-5.78,2.18-.14.25.41,1.25.76,1.32C748.79,830.49,749.42,828.15,751.23,826.46Z" fill="#e4a569"/><path d="M731.79,857.72l2.64-.76c-1-2.12-1.6-4.71-5-4.13C729.11,855.18,731.81,855.79,731.79,857.72Z" fill="#e4a569"/><path d="M748.91,361.46c-3.07,1.13-4.83,3.62-6.48,6.23-1,1.58-2.51,2.64-4.08,1.34-5.41-4.45-6,1.8-5.47,3.31,1.89,5.22-1.44,7.68-4.26,10.54-2.1,2.14-3.68,4.48-.78,6.72s5.2,1.08,7.1-2c1.23-2,1.84-5.71,5.83-3.82,5.82-5.49,12.79-9.64,18.22-15.59,1.35-1.48,3.48-2.73,1.06-5s-3.43-.91-4.43,1.46c-.88,2.06-3.27,2.44-5,3.36-4,2.07-7.71,3.78-8.34,9.13-.48,4.07-3.81,3.8-6.51,2.17s.22-2.87.6-4.4c1.32-5.32,8.08-4.11,9.84-8.9C746.74,364.59,748.62,363.39,748.91,361.46Z" fill="#462e19"/><path d="M720.84,388.8c-.38-.11-.76-.2-1.14-.28-2.74-.16-1.93,1.18-1.05,2.51,1,1.51,1.66,3.21-.47,4.06-4.63,1.87-1.1,4.44-.48,6.38,1,3.1,3.14,1.57,4.86.42a5.61,5.61,0,0,1,4.7-.55c2.54-1.85,3.49-5.46,7.85-5.42,3.33,0,1.32-3.45,1.77-5.34-3.34,4.63-7.25,5.22-12,1.71C723.5,391.22,722.2,390,720.84,388.8Z" fill="#462e19"/><path d="M648.71,507.23c-.56,1.62,1.65,4-1.83,4.93-3.26.91-2.19,4.48-2.83,6.88-.9,3.32-1.23,6.79-2,10.17-.55,2.56.25,4.72,2.45,5.74,3.33,1.54,2-2,2.88-3.11,1.39-1.88,3.75-2.59,4.29-.35,2.38,9.86,11.08,9.54,18.15,11.62,2.72.8,1.6,2.27,1.69,3.69,5.53-3.47,3.76-9.49,4.86-14.44.34-1.53.11-3.18,1.18-4.54-2.11-1.33-4.9-.67-5.74-5-.59-3-7.18-2.53-11-3.81-1.63-.54-3.47-.65-3.83-2.31C656,511.93,651.72,510.15,648.71,507.23Z" fill="#7e5b3c"/><path d="M648.91,664.56a52.17,52.17,0,0,0,6.1.46c2.15-.06,3.59-.38,2.71,2.83s5.89,2.45,4.34,6.68l3.16-3.11c-2.17-.77-3.75-2.77-3.29-4.52s3.09-2.39,5.16-2.56c1.2-.1,2.48.35,3.42-.79-3.89-.06-5.1-2.3-5.38-5.87-.42-5.37-1-10.77-3-15.84-3.37-.18-6.37,1.3-9.5,2.15-3.45.94-5.26,3.51-4.42,6.92.58,2.34,1.35,5.9,5.58,2.9,1.17-.83,2.24,1.47,2.5,2.78.45,2.28-1,3.73-3.08,3.47C649.38,659.6,648.4,661.25,648.91,664.56Z" fill="#926846"/><path d="M675.73,661.86c-.13,2-.81,4.21-.24,6,.49,1.53.36,4.75,3.45,4,2-.49,3.66-2.06,3-4.59-.55-2.06.46-3.44,1.49-5,.78-1.21,4,.23,2.86-2.64-.66-1.63-2.19-2.27-3.92-2.59-2.06-.39-3,.49-3.59,2.34-.21.65-1.06,1.09-1.63,1.63Z" fill="#c79064"/><path d="M697.4,405.68c-.71.37-1.62.56-2.08,1.12-1.45,1.77-4.3,4-1.65,6,3.14,2.37,1.87-3.17,4.16-3.23C698.09,408.22,698.63,406.85,697.4,405.68Z" fill="#8a6b50"/><path d="M692.11,682.82c.53.27,1.55.69,1.51.81-1.16,4.29-2.3,8.27,4.93,6.12,1-.31,1.45,2.24,1.42,3.61-.05,2.28-.07,4.48,1.51,6.35,3.41-4.43,6.52-8.8,4.33-15-1-2.88-.43-6.14.61-9.09,1.73-4.94,3.33-5.4,7.79-2.41,2-1.1,2.6-3.93,1.63-4.69-6-4.67-1.49-9.78-.43-14.2s-1.78-4.47-4-5.66c-4,2.39-7.51,5.2-9.37,9.63-.16.37-.48,1-.59,1-10.37-2.41-3.66,9.19-9.14,11.16-1.43.51-.32,3.3.5,5C694,678,694.34,680.56,692.11,682.82Z" fill="#8f5b36"/><path d="M662.54,704.83c-.39,8.65,7,5.57,10.06,5.13,4.89-.71,10.13-.82,14.85-2.85-1.74-.81-4.83.15-5.13-2.28s3.29-2.48,4.65-4.07c-4.15-5.13-8.3-5.39-12.92-1.12-1.26,1.16-3.24,2.71-4.78.63-1.32-1.78-.09-3.65,1.61-4.63,2.92-1.68,3.28-4.49,3.75-7.32-2-1-1.48-4.18-4.15-4.52-1,.32-2.12.59-1.76,2.07-2.59,2.86-7.26,1.29-9.7,4.49-1.54,1.3-1.89,3.28-.19,4,4.2,1.83,4.84,4.17,2.45,7.9C660.7,703.19,661.87,704.09,662.54,704.83Z" fill="#88522a"/><path d="M668.72,685.87l1.76-2.07c-.66-1-1.33-2-2-3-.83,1.45-3.67.06-3.67,2.23S667,685.53,668.72,685.87Z" fill="#926846"/><path d="M639.36,812.44c-7.48,1.34-15.21,1.48-22.35,4.55C624.8,817.11,632.52,816.91,639.36,812.44Z" fill="#5c3413"/><path d="M670.76,892.62l-6.56,7.6c-2.45,4.27,3.63,7.38,1.59,11.59,1.78,2.84,4.19,5.17,5,8.75s4.65,1,6.77,2.29c.53-4-.43-6.41-5-8-3.12-1.08-3.43-15.9-.64-19C674.15,893.38,673.12,893,670.76,892.62Z" fill="#ca8e5a"/><path d="M692.53,890.43c1-3.48,1.15-7,4-10.08,2.3-2.45,1.6-5.67-1.8-8C694,883.72,682.36,890.13,682,901.5c2.63,1,2.24-2.13,3.83-2.28C692.48,899.66,691.38,894.19,692.53,890.43Z" fill="#bf8651"/><path d="M692.53,890.43c-1.32,0-2.72.24-2.23,2,1.15,4.09-1.6,5.44-4.5,6.78-.5,1.64,0,3.81-2.32,4.5-.92.27-2.39.35-1.65,1.73a5.86,5.86,0,0,0,2.78,2.13c1.07.47,1.91-.23,2.33-1.3a22,22,0,0,1,1.55-3.91c2.32-3.6,5-5.46,8.33-1h0C696.5,897.3,697.16,892.84,692.53,890.43Z" fill="#e8aa6e"/><path d="M699.35,892.26c-1.42,1.74-1.8,3.35-.21,4.9.2.2,1.44-.17,1.46-.35C700.76,895.2,701.5,893.34,699.35,892.26Z" fill="#e8aa6e"/><path d="M676.28,837.1c11.34,5.27,11.5,5.53,9.74,17.51-.36,2.46.76,4.28,2.89,4.7,3.18.64,6.51.57,9.77.82.92.08,1.77-.18,1.88-1.09.14-1.13-.67-2.38-1.69-2.08-3,.86-5.91-2.4-8.78.6-.91-3.26,1.54-4.26,2.25-6,.42-1,.3-2.81,1.89-2.8,2,0,1.88,1.76,2.07,3.18.18,1.24.49,2.76,2.15,2.13a2.28,2.28,0,0,0,1-3.62c-2.24-2.84-3.07-7.43-8.26-6.95-.87.08-1.85-.77-2.75-1.24-1.24-.66-2.93-1.17-2.15-3.09s2.16-2.29,4-1.16,3.42,1.55,5.16.17c.75-.61.81-1.9.09-2-3.23-.64-.74-6.53-5.16-5.62-5.92,1.22-7.17-.58-5.62-6.34.71-2.63-.91-6-1.74-8.89-.3-1-1.22-2.51-2.71-1.7s-.82,2.12-.24,3.25c.75,1.44,2.06,2.7,1.69,4.5a3.77,3.77,0,0,1-1.1,2.06c-.66.54-2,.39-2.07-.41-.28-4.6-7.59-7.07-3.55-13.26,1.59-2.44,2.13-5.27,5.52-5.71a2.51,2.51,0,0,0,2.48-2.89c-.07-2-1.79-1.94-3.13-2.32-3.24,1.53-5.39-2.63-8.54-1.63-.28.74-1,2-1.42,1.58-4.78-5.3-7.32-1.45-10,2.22-.82,1.12-2.4,1.7-2.36,3.63,1.69.6,6.25-.84,3.22,3.84a2.31,2.31,0,0,0,.42,2.16c.94.94,1.81-.12,2.73-.47,1.21-.45,2-3.67,3.7-1,1,1.56,2.5,3.3.82,5.6a13.91,13.91,0,0,0-1.93,5c-.71,3-.12,5.1,2.74,5.72,4.7,1,4,3.09,1.67,5.87a5.41,5.41,0,0,0-1.32,2c-.31,1.46-2.77,2.64-1,4.27,1.28,1.2,2.72.19,3.76-.92C673.85,835.19,675,837.11,676.28,837.1Z" fill="#cc986b"/><path d="M671.38,797.13c2.88.39,4.37,7.92,8.54,1.63a24.15,24.15,0,0,1-.64-12.57c.67-3.13-.77-5.69-2.63-5.92-3.48-.42-1,3-1.81,4.56-.46.9-1.06,1.73-1.6,2.59,1.13,3.12-.14,4-3.09,3.24C669.33,793.05,672.07,794.76,671.38,797.13Z" fill="#eaad72"/><path d="M623.93,800.69l-3.21-3.15c-2.53-2.32-5.46-1.26-8.1-.59s-4.36.27-6.1-1.46c-5.55,1.54-5.78,3.55-1.06,9.22,3.17,1.72,5.95-1,9-.77C617.38,802.18,621.21,803,623.93,800.69Z" fill="#be8c5d"/><path d="M644.21,636.42c5,2.88,10,.63,14.48,2,.84.27,2.55-.36,1.84-1.56-1.64-2.77-1.38-6.52-4.48-8.53-4.13-2.69-6-1.89-6.73,3C649,633.63,649,633.63,644.21,636.42Z" fill="#957152"/><path d="M630.33,662.24c4.55,7,11.42,2,17.08,3.27a23,23,0,0,0-4.21-.77c-5.36,0-7-2.92-6.66-7.75.12-1.82,1.39-4.23-1.62-5.11-1.17-.35-2.57-.77-3.41.36-1.49,2-.51,3.65.81,5.46C634,660,633.77,661.93,630.33,662.24Z" fill="#926846"/><path d="M662.88,508.34a1.38,1.38,0,0,0,1.37,1.61,2.39,2.39,0,0,0,2.86-1.67c.28-1.06-.15-2.12-1.45-2A3.53,3.53,0,0,0,662.88,508.34Z" fill="#6c4d31"/><path d="M715.67,731.39c1.76.1,2.82,1.85,5.09,1.32,4.4-1,8.41-2.58,12.73,2.53,4.54,5.37,6.54,2.78,10.27-2.76,3.91-5.82-1.74-7.59-2.15-11.31-5.36-2.59-2.17-8.76-5.18-12.33-2.89,7.78-7.56,14.07-15,18.19A49.8,49.8,0,0,0,715.67,731.39Z" fill="#84532e"/><path d="M714.21,673.21c-1.07-1.81-1.13-5.3-3.5-5-3.85.47-4.72,4.67-6.35,7.58a7,7,0,0,0-.35,4.76c1.76,6.77-.25,13-2.53,19.16,1.62,3.9.85,8.06,1.23,12.08.17,1.74.09,3.65,2.11,3.86s1.74-2.11,2-3.22c2-7.28,3.93-14.58,9.37-20.29a2,2,0,0,0,.3-2.78c-.76-.94-1.82-.79-2.81-.35-1.54.69-3.13,1.56-4.22-.57-.83-1.63-.65-3.8.49-4.63,3.33-2.45,7.38-4.26,3.13-9.18C713.05,674.53,713.83,673.7,714.21,673.21Z" fill="#a36b3f"/><path d="M688.64,707a2.53,2.53,0,0,1,.4,3.32c-2.35,3.75.25,4.51,3.09,5.16-1-2.29-.06-4.68-.33-7C691.57,706.62,691.05,704.66,688.64,707Z" fill="#88522a"/><path d="M646.1,711.76c4.22-3.39-.93-5.93-.82-8.94-.47-1.42-1.26-2.69-1.79-4.08-2.71-.53-3.8-4.59-7.5-3.23-1.22.44-.88-.84-.67-1.62.87-3.25-.5-3.65-2.66-1.73-2,1.75-3.67,1.62-5.53.27-6.87-5-15.08-3.06-22.39-3-4.88.06-8.76,6.31-12.08,10.85a44.73,44.73,0,0,1,5.94-3.18c2.81-1,5.52-4.92,8.86-.52.71.95,2.35.07,3.43-.55,4.06-2.32,8.65-1.75,13-2.44,1.05-.17,1.42.25,1.79,1.09,2,4.41,8.51,5.9,7.88,12.09,0,.36,1.46,1,.45,1.72a2.67,2.67,0,0,1-2.3.3c-2.92-1.46-5.67-3.28-8.64-4.64-1.65-.76-4.62-3.19-3.78,2,.54,3.27-1.43,3.61-4.15,2.46-2.22-.94-4.44.43-5.52,1.82-1.45,1.87,2.16,1.79,2.39,3.7-3.09,1.24-4.94.53-7.16-2.29-4.6-5.85-10.3-5.84-15.47-.75,5.31-1.15,9,2,12.74,4.86,6.13-.42,11.73-.14,16.82,4.55,3.57,3.28,8.95,3.37,13.9,3.08,1,0,2.29-.36,2.53,1,.29,1.63-1.75,1.36-2.36,2.33.44.74,1.17,1.53,1.92,1.29,4.82-1.55,9.69.18,14.51-.33,1.83-.6,3.55-1.33,4.28-3.32a2.45,2.45,0,0,0-.76-2.59c-2.22-2.48-5.49-2.2-8.29-3.18-1.58-.55-4.14.19-4.4-2.23-.17-1.72,1.92-2.41,3.07-3.49C644.1,712.28,645.23,712.27,646.1,711.76Z" fill="#a97a52"/><path d="M662.54,704.83c-.17-1.32-1-2.75.54-3.82,6-4.1.41-6.28-1.94-6.9-2.93-.77-2.3-2-2.12-3.75-5.78-.2-6,4.48-5.37,7.75.52,2.75-.37,3.54-2,4.67Z" fill="#926846"/><path d="M654.83,679.5c-3.77-2.94-2-7.47-3.38-11.65-2.91,1.86-3.71,5.22-5.92,7.34C646.85,680.42,649.78,682.23,654.83,679.5Z" fill="#926846"/><path d="M643.49,698.74c-.31,1.76-.62,3.51,1.79,4.08l6.09,1.16h0l.24-1.2C648.31,702.62,646,700.59,643.49,698.74Z" fill="#926846"/><path d="M621.14,782.6l.21-1.21c-2.47-3-2.63-5.63.82-8,1.41-1,3.24-1.87,2.85-4.15-2.76-3-6.23.83-9.5-1,1.9-3.41,5.28-2.56,8-3.36,1.55-.46,5.42.49,3.15-3.56-6.57-1-13-2.63-19.69-3l-.27.24c.93,3-2.48,7.09-6.66,7.22-7.79.25-12.76,5-18.16,9.73-8,7.07-16.31,13.89-25.44,19.52-4.33,2.67-8.51.73-10.19-4.55a4.65,4.65,0,0,0-4.47-3.49c-3.55,0-3,3.88-4.47,5.92s.84,2.63,2.2,3.54c8.87,6,17.21,2.71,25.89-.86,8.87-3.65,17.87-6.74,24.81-13.89,1.74-1.8,4.75-2.35,7.1-3.62s4.62.15,4.5,1.51c-.34,3.85,2.73,8.69-2.6,11.41,2.86,2.41,7.79,1.74,9.28,6.2,2.29,1.2,4.74.69,4.49-1.85-.39-4.18,2.27-5,4.94-6.6C620.1,787.42,621.63,785.43,621.14,782.6Z" fill="#be8c5d"/><path d="M608.31,796.42c.22-7.15-5.34-4.83-9.08-5.49q-1.54,1.65-3.1,3.28c-5.39,6.35-12.11,10-20.6,10.29a5.84,5.84,0,0,0-4.68,2.48c2.8,4.61,6.82,4.52,11.12,2.67,5.4-2.32,10.43-5.28,15.95.53,1.16,1.21,6.51,2.77,8.72-1.69-2-2.69-6.28-.76-7.89-4.17,2.51-1.11,4.57.32,6.71.39a41.35,41.35,0,0,0-1.5-4.44c-1.63-3.53.24-4.15,3.18-4A.76.76,0,0,0,608.31,796.42Z" fill="#b68357"/><path d="M572.54,765.72c-3.65-2.83-5.06-.3-6.9,2.48-2.6,3.93-5.21,8.38-11.31,6.65l-2.65.77c-1.4,4-2.67,8.1,3.3,9.31,4.87,1,9.32.52,10.59-5.58.43-2.05,2.37-2.87,3.75-3.8C573.12,773,573.89,769.78,572.54,765.72Z" fill="#bf8e60"/><path d="M570.85,807c6.81-.75,13.56-1.72,19.47-5.6,2.71-1.78,5.68-3.33,5.81-7.17-1.63-.35-3.85-.91-4.5.76-2.71,6.92-8,4.86-13.31,4.79-4.8-.06-10.61-.48-12.31,6.23Z" fill="#be8c5d"/><path d="M649.6,726.33c-5.55-.54-11.09-.77-16.58.51-4.85.62-8.92,2.28-11.53,6.89-1.43,2.53-4.5,3.35-7.09,4.52-2.15,3.06-6.34,3.21-8.66,6,2.75,3.08,6,3.73,9.64,1.78,3.24-2.49,7.88-1.85,11-5,.88-.9,2.42-2.87,4.13-1.11s-.15,2.82-1.23,4c-.7.77-1.19,1.67,0,3.52,4.51-6.36,11.39-2.37,17.1-4.28,4.61-3.75,3.51-9.69,5.51-14.44C652.41,727.32,650.39,727.12,649.6,726.33Z" fill="#ddaf85"/><path d="M615.38,746.06l-9.64-1.78a2.27,2.27,0,0,1-1.2-.24c-3.92.54-2.8,2.61-.6,3.5,4.88,2,10,5.36,15.37.2C618.54,746.14,616.67,746.64,615.38,746.06Z" fill="#8a5b33"/><path d="M602.47,716.11c-2.05,1.08-4.31,1-6.53,1.17-6.54.56-7.67,2.73-4.18,8,2.83-.4,4.39,2.8,7.18,2.49a3.07,3.07,0,0,0,.77-1.44c1.25-3.51,4.08-4.81,7.48-5.31a4.16,4.16,0,0,0,3.16-1.08C609.49,715.07,605.06,717.47,602.47,716.11Z" fill="#5b3515"/><path d="M599,726.72a2.85,2.85,0,0,1,0,1c3.84,7.17,7.64,8.5,16.38,5.72,2-2.71-.34-3.42-2.05-4.2-2-.89-4.27-1-6-2.46-1.48-1.07-2.87-2.39-4.68-2.82C600.48,723.51,598.26,723.27,599,726.72Z" fill="#daa155"/><path d="M606.26,728.17c1.19,2.15,3.47,1.8,5.38,2.27s3.82.39,3.68,3c4.62-2.8,5.2-6.47,2.34-10.87-1.88.37-3.87.29-5.6,1.31C612.64,728.75,607.92,726.39,606.26,728.17Z" fill="#a97a52"/><path d="M612,724.34c2-.08,4.58,1.5,5.64-1.72-1.81-2.58-4.92-1.65-7.31-2.68l-3.53-.46C605.48,724.36,608.56,724.55,612,724.34Z" fill="#e9bd84"/><path d="M663.51,726.44c.28,5.49,5.48,5.13,8.6,6.27,4.49,1.64,9.59,1.63,14.44,2.29,2.63.35,2.86,3.29,4.83,4.33,3.27,2.74,6.16,1.28,9-.84,3.22-1.06,6.9-.78,9.74-3.36-.62-2.08-3-1.94-3.94-1.66-8.6,2.6-15-7.18-23.7-4a1.58,1.58,0,0,1-1.86-2.27c.7-1.62.31-3.21.51-4.78.4-3.16,4.93-7.55-1.25-8.79-7.05-1.4-12.18,2.86-12.26,8.84C667.56,725.54,666.31,726.61,663.51,726.44Z" fill="#ce9d6f"/><path d="M700.36,738.49c-3.07-.48-5.87,1.83-9,.84-2.94.92-5.24-.56-7.84-1.62-3.38-1.38-7.62-3.31-8.89,2.83a4.41,4.41,0,0,1-.66,1.7c-1.17,1.63-5.27,1.93-3.47,4.67,1.63,2.49,4.86.33,7.39.15,9.16-.67,17.42-5.85,26.81-5.37C705.81,737.18,701.6,739.85,700.36,738.49Z" fill="#98663b"/><path d="M649.6,726.33c1,6-2,11.3-3.31,16.87,4.65.89,5.64-4.5,9.7-5.4-.8-2.08-4.85-2.06-3-6,1.77-3.62,3.66-1.24,5.41-1.31,2-.07,3.5-.07,2.29-2.59-1-2,.27-2.52,1.75-3-2.58-6.48-5.85-.16-8.76-.47Z" fill="#ce9d6f"/><path d="M646.1,711.76c-1.87-.42-3.75-.47-5.18,1s-4.25,2.85-4,5c.31,2.35,3.35,1.6,5.2,2,3.57.86,7.2,1.44,10.81,2.14,1.76-2.52-.77-2.06-1.82-3C649,717,643.24,717.25,646.1,711.76Z" fill="#ce9d6f"/><path d="M660.26,712.93c-3.16-.21-6.23-.83-8.88,1.32a1.48,1.48,0,0,0-.33,2.16c2.49,2.71,5.85,2.59,9,2.22,1.7-.2,4.86,1.2,4.79-2C664.84,714.55,662.59,713.16,660.26,712.93Z" fill="#6a3b18"/><path d="M651.37,704c-1.08,1.64-3.21,4.31-1.33,5.08a19.23,19.23,0,0,0,7.27.83c1.21-.06,1.08-3.36-.76-4.41-1.52-.87-3.44-1-5.18-1.5Z" fill="#ce9d6f"/><path d="M607,758.25c6.34,3.84,13.46,3.78,20.51,4.1,2.5,1.22,4.93,2,6.69-1.13,2.7-4,7.8-.27,11.14-3.73,2.28-2.38,5.82-3.77,6.31-7.41.19-1.45-9.64-2.75-12.13-1.59a5,5,0,0,0-.53.32c-9.14,5.72-19,8.79-29.88,7.64C607.86,756.32,607.3,757.18,607,758.25Z" fill="#95643c"/><path d="M634.19,761.22l-6.69,1.13c-3,1.9-6.38.89-9.54,1.54s-5.17,2.93-4.63,5.49c.67,3.17,3.85,1.14,5.75.83s3.8-1.55,5.91-.62c3.2,1.64,5.56,1.06,6.78-2.54a34.11,34.11,0,0,0,3.51-2.08c1-.73,3.31-.51,2.64-2.44C637.45,761.17,635.53,761.48,634.19,761.22Z" fill="#d2a57a"/><path d="M631.77,767.05a9.6,9.6,0,0,1-6.78,2.54c-1.51,1-3.07,1.86-4.51,2.91-4.57,3.35-4.23,6.66.87,8.89l2.94-2c4.07-1.64,6.62-5,9.15-8.29l1.44-1C635.26,767.6,633.57,767.27,631.77,767.05Z" fill="#926138"/><path d="M661.63,753.85c4.07.64,6.94-.65,7.81-3.44.3-.95-1.56-6.08-1.89-5.59-2.32,3.35-7.46-4.22-8.16,2.25C659.09,749.83,657.13,753.59,661.63,753.85Z" fill="#d8a577"/><path d="M608.31,796.42a7.8,7.8,0,0,1-1.17-.15c-1.77,4.72,2.68,3,3.54,2.65,3.31-1.31,6.7-1,10-1.38.69-2.11,2-2.51,3.73-1.2,3.56,2.62,6.57,1,9.5-1.19.32-.24.67-1,.72-.93,5,2.61,10-.72,14.74-.57-3-10.32-12.69-15.24-24.73-11.9-1.16.33-2.36.57-3.54.84-2.19,2.69-3.23,6.46-8.09,6.24-2.88-.13-2.55,2.32-1.58,4.46C613.1,796.9,610.93,796.93,608.31,796.42Z" fill="#ddae81"/><path d="M633.44,771.09a28.61,28.61,0,0,0-9.15,8.29C630.53,780.11,632.76,776.45,633.44,771.09Z" fill="#be8c5d"/><path d="M612,724.34c-1.73-1.61-5.67-.9-5.2-4.86-3.6,1.35-8.5,1.31-7.86,7.24,3.44-4.55,4.93.62,7.3,1.45a34.69,34.69,0,0,0,3.6.71c1.54.15,3.51,1.51,4.53-.2C615.73,726.46,612.67,725.91,612,724.34Z" fill="#784a23"/><path d="M852.54,874.21l2.78-14.44a4,4,0,0,1,1.39,2.58c-.24,1.8-1.62,3.72-1.46,7.48.12,3.17.83,5.92.2,9.77a75,75,0,0,0-3.94,6.78c-1.42-6.24-3-11-3.19-16.12C850.38,869,850.38,869,852.54,874.21Z" fill="#eabe92"/><path d="M860.18,882.43c.27-4.77-.22-12.9-.45-21.91a113.23,113.23,0,0,0-1.59,12.42c.78,7.89-4.32,15.21-1.57,24.43a13.6,13.6,0,0,0,3.24-8.89c.07-2,.2-4,.37-6Z" fill="#eabe92"/><path d="M860.32,837.42s0,.12,0,.33c0,.7.08,1.41.11,2.12s.08,1.42.13,2.26.15,1.77.21,3.21c.49,6.79,1.38,15.61,2.74,16.57h0c1.2-5.12,2.64-10.21,4.27-15.27,2.13-6.65,1.34-13.77,1.36-20.71-3.29.17-5-2.46-7.28-4-2.57-1.74-3.59-1.08-3.75,2a97.65,97.65,0,0,1,2.19,13.54Z" fill="#eabe92"/></g><g id="frame"><rect width="1000" height="1000" fill="none"/></g></svg>