<!-- Copyright (c) 2023 Jan Stehno -->
<svg xmlns="http://www.w3.org/2000/svg" viewBox="0 0 1000 1000">
    <title>blackbear</title>
    <g id="blackbear">
        <path
            d="M534.53,562.72c1.41-1.1,2.66-2.54,4.24-3.26,33.68-15.18,64.67-35.83,99.53-48.67,13.51-5,23.81-13.16,29.52-27.8,6.53-16.71,21.95-24.54,36.77-21.79,3.78,8.85-2.28,17-1.87,25.54-6,10.83-14.9,18-27.23,19.37-8.15.88-13,7.47-20.39,9.68-4.51,1.36-2,7.09-2.07,10.87-.17,6.45-.74,11.65-9.68,10.08-7-1.23-8.9,3.1-7.73,9.39.7,3.79,2.55,5.19,6,2.89,10.09-6.7,22.81-.58,33.28-7.14,3.45-2.16,9,1,9.61,6.23,1.31,11.59,9.25,17.16,18.32,22.06A38.39,38.39,0,0,1,719,585.86c2.56,4.79,5.65,8.24,11.62,8.38a10.83,10.83,0,0,1,9.53,6.45c6,12.78,17.1,13.84,28.61,12.42,14.14-1.75,25.65,4.68,37.69,9.95a16.54,16.54,0,0,0,4.6,11.72c7.38,8.14,12.09,18.7,22.76,23.26-3.61-6-8.62-11.86-13.29-17.93-1.3-1.68-3-3.38-1.52-5.81s3.92-3,6.61-2.56c3.28.57,7.28,1.37,8.51,4.26,4.34,10.27,15.24,15.62,19,27-.29-3.37-3.72-6-.65-8.48,2.32-1.9,4.8,0,7,1.14,4.24,2.16,7.5,5.7,11.5,8.21,1,1.07,1.69-.92.77.22-.14.18-.34-.16-.92-.58-3.8-2.75-5.78-7-2.17-10,4.23-3.59,10.64-4.24,15.05-.25,8.11,7.33,13.13,17.28,19.62,26,1.17,1.56,1.14,3.63-.81,4.69-3.21,1.75-6.07.37-8.76-1.53,3.91,2.8,6.31,7,9.5,10.42,1.26,1.3,2.51,2.62,3.67,4,7.49,9,5.28,15-6.21,17.13-1.37.26-2.82-.21-4.16.37,5.65,15.2,5.65,15.2,22,28.29-1-3.13-4.66-6-1.27-9.12,2.57-2.41,5.62-.88,8,.63,12.46,7.79,18.61,19.76,21.81,33.64C946,775.8,945,783.9,940.44,791c-9,.8-11.07-6.44-14.43-12.27-1.35-2.34-1.29-6.72-5-6.1s-2.85,4.49-2.67,7.3c.23,3.63,1.21,7.6-2.53,9.91-4.48,2.76-7.25-1.47-10.56-3.29-13.14-7.26-23.54-18-34.72-27.71a100.39,100.39,0,0,0-20.53-14c-8.93-4.55-14.56-12.84-19.71-21.24-3.75-6.14-8.3-10.82-18.86-10.18,7.55,3.68,16.34,3.36,15.15,12.94-2.31,5.4-1,10.18,3.35,16-3.47-5.18-5.63-9-2.78-13.62,10.82,1.76,15,11.36,21.49,18.25.48.52.9,1.74.59,2-9.49,7.93-2.5,22.59-12.36,30.33-7,1.8-10.18-3.94-10.24-8.17-.13-10.86-8-15.51-14.34-21.61-1.83-1.76-4-3.21-5.74-5-2.56-2.54-8.3-5-4.34-9.09,3.46-3.55,7,.74,9.74,3.64-6-6.54-17.34-8.27-18.13-19.61-.1-1.29-.91-2.16-1.9-1-6.87,7.66-10.51-1.87-15.74-2.84a183.73,183.73,0,0,1-26.45-30.67c1.39-3.85,2.75-7.17-3.69-8a27.58,27.58,0,0,1-15.55-7.5c-9.91-9.53-23.33-13-34.32-20.69a29.67,29.67,0,0,0-17.63-5.16c-11,.34-21.35-.52-32-4.55-5.94-2.26-13.25,2.22-19.79,4-10.87,3-19.61-3.57-29.34-5.55-2.07-.42-3-3.07-3.1-5.38-.13-3.38-.65-5.76-5.08-4.17-6.11,2.19-8-1.11-7.63-6.61.3-4.36-.61-8.63-.2-13.06,1-10.6-3.52-14.82-14.26-12.64-4.76,1-7.68.49-10.08-3.51-3.17-5-7.75-8.47-12.58-11.72C538.32,576.23,534.12,570.76,534.53,562.72Z"
            fill="#23292c" />
        <path
            d="M938.75,932.73c-5-2.19-3.09,1.53-3,3.56q1.32,20,2.71,40.07c-3.56,3-7.11,2.73-10.66,0q-5.57-17.45-11.12-34.9c.72-4.79,5.4-7.88,5.63-12.85.2-4.36-.73-8.21-5.94-4.24-4.63,3.52-8.53,3.16-12.81-.08a16.74,16.74,0,0,0-7.06-2.66c-16.2-3.27-23.68-12.92-23.16-29.15.18-5.62,3-7.6,8.19-7.91,6.84-.41,7.55-4.54,5.33-9.94a32.16,32.16,0,0,0-7.06-10.94c-2.93-2.87-6.35-4.31-9.47-.78-4.4,5-10.41,7.84-15.07,12.51s-7.33,9-6.7,16.13c.55,6.22.13,14.32-8.15,15.83-8.07,1.47-15.05-3-16.83-10.77-3.4-14.79-18.66-18.42-25.9-29.62-2.84-4.4-10.91-2.8-16.53-3.79-13.12-2.33-26.49-3.76-39.48,1.38-4.56,1.81-8.32,2.56-4.74,9.76,5.94,11.92-.39,20.34-13.72,20.33-2.06,0-4.63-1.18-5.63,1.6-.83,2.28.87,4.14,2.13,5.89a19.77,19.77,0,0,0,12.56,8.06c31.84,6.35,62.31,17.79,92.18,29.58,22.92,9.05,47,14.51,69.36,24.83,9.64,4.45,18.75,9.68,25.41,18.3-.9,6.74-2.94,7.2-11.39,2.58a10.46,10.46,0,0,0-9.32-4c-10.95.84-19.78-3.88-28.06-10.24a13.74,13.74,0,0,0-2.06-1.9c-7-.15-14.14,2.38-20.74-1.76-5,.1-10.2-1.86-12.67-5.33-7.19-10.11-17.74-9.62-27.89-10.49-4.44-.38-8.38-.73-11.75-4.18-8.25-8.44-18.16-12.25-30.2-11-12.86,1.31-23.11-7.24-34.85-10.38-3.31-.88-6.05-4-10-2.16-6.71-.74-12.91,3.56-19.71,2-2.55-1.4-6.2-2-7.81-1.54-6.79,1.74-14.15,2.84-16.44,1.83-9.17-4-16.93-1.28-26.09-2.86-7.15-.84-14.51.62-21.5-2-4.64-5-10.39-2.76-16-3.39-18.27-2-37.77,1.54-54.42-9.71-17.11-4.72-35.27-.52-52.27-6.14-10.68-3-21.58-.62-32.33-1.35-6-1.18-2.55-4.19-.71-5.84,3.89-3.51,9.06-4.84,14-5.65,12.82-2.09,25.22-6.84,38.48-6.17,3.63.18,6-2.11,8.46-4.37,7-6.49,15-7.24,23.26-3.29,6.42,3.06,12.16,4.78,17.46-1.88,1.61-2,4.51-2.23,6.83-3.25,9.82-4.31,10.09-5.66,1.91-12.64-7-6-10.07-12.42-3.89-20.77,3.29-4.44,2-9.85,3-14.79,1.84-9.51,5.86-10.39,15.27-10.28,18.4.24,26.71,12.1,34.45,25.7,3.79,6.66,8.29,12.86,12.59,19.18,3.44,5.05,3.06,8.84-3.7,10.36-3.07.68-7.51.68-6.23,5.51s4.18,10.7,8.93,11.63c5.43,1.05,6.84-5,6.16-9.23-1.25-7.79-.32-16.09-4.87-23.26-1.51-2.38-3-5.27-.56-8,2.9-3.25,5.92-1.71,8.8.09,4.2,2.63,8.73,3.37,14.76,2.56-5.5-6.43-10.53-12.28-15.89-17.91-6.26-6.57-10.62-13.89-7.5-23.64,2.08-6.49-.72-10.68-7.1-12.32-7.8-2-15.79,1.48-17.4,7.38-.88,3.22,1.94,7.69-3,9.51a18,18,0,0,1-13.89-.1C593.84,804.88,585,799,576.36,793c-4.25-3-6.5-7.71.95-8.32,2.48-.2,4.7-3.09,6.47-3.42,10.7-2,20.71-8,32.06-6.13,2.06.35,4.58,2.46,5.83.1,4.14-7.79,11.51-9.87,18.46-13.92,6-3.52,10.2-5.88,15.88-2.95,7.2,3.72,13.65,8.67,13.63,18.14,0,1.09,0,2.19-.14,3.28-1.43,14.6,3.09,26.33,16.47,33.53.6-2.6-1.25-6.73,2.8-8.19,3.56-1.28,6.15,1.36,8.6,3.56a17.19,17.19,0,0,1,4.24,5c7.32,14.94,21.26,24.22,31.59,38.2,2.14-9.42-15.86-18.94,1.4-26,4.57.08,6,3.89,8.33,7.24-1.52-3-3.16-5.48-2-8.66,9.66-6.15,18.62-11.83,31.79-9.08a64.59,64.59,0,0,0,26.77-.1c13.15-3,23.4,3.92,19.66,17-1.75,6.13-.86,13.51,5.39,12.2s10.36,1.4,14.31,4.71a2,2,0,0,0,1.26-2.1c-.14-4.47-4.22-10.36,1.12-13,6.1-3,8.38,4,11.45,7.59,4.18,4.89,6.89,5.15,8.43-1.65,2.15-9.54,6.06-18.72,5.23-28.86-.26-3.19.16-6.83,3.73-8.45s6.16.68,8.41,3.23c1.21,1.37,2.54,3.51,4.16,3.32,13.38-1.55,18.68,8.64,25.76,16.77,2.8,3.22,6,6.68,12,5.79,10.54-1.55,18.11,9.16,12.41,18.34-4.47,7.2-4.31,12.24.48,18.47,1.87,2.43,4.13,6.37.85,8.78s-5.91-1.26-8.24-3.33c-9.34-8.31-9.3-8.36-18.76-10.11.32,10.65,6,19.27,9.93,28.44,1.5,3.48,4.16,3.27,7.29,2,4.22-1.7,7.78-7.35,12.49-4.87,5.15,2.72,7.36-.69,8.21,5.95.56,4.39,7.42,4.77,8.55,7l4.34,12.7c-2.48,4.71-3.83,9.91-11.68,8.51C941.27,922.79,940.37,928.87,938.75,932.73Z"
            fill="#151a1c" />
        <path
            d="M901.63,694.12l-14-15.83c6.21.47,9.19,5.35,15.09,4.25-6.63-9.25-12.88-18.1-19.28-26.84-4.13-5.63-10.95-2.17-13.4-.41-3.74,2.67,1.51,5.62,4,8,2,1.93,4.76,3.49,5.08,9.06-9.59-5.45-16.44-13.18-26.86-17.48l6.9,12.51c-5.55.55-8.42-2.25-9.5-6.15-1.39-5-5-7.93-8.47-11.06-3.06-2.77-6.14-4.2-6.86-9.78-.78-6-7.82-7-14.94-6.16,5.83,7.57,10.93,14.35,16.22,21,1.94,2.42,3.38,4.87,2.2,7.92-.73,1.87-2.48.83-3.79.55-2.84-.62-4.85-1.15-5.52-5.22-1.07-6.56-1.82-6.44-8.82-.31,1.66-12.18-7-18.38-13.77-24.54-4.92-4.48-2.19-6.32-.39-9.54A4.8,4.8,0,0,1,808,622.6c12.81-1.26,13-11.46,14.62-20.67,1.66-.89,4.36.47,5.1-.84,1.41-2.53-1.11-3.72-3-4.6-2.26-1-4.91-1.26-6.79-3.14-4.23-4.22-2.91-7.64,4.46-10-11.18-4.69-14.81-15.25-20.72-24,.3-11.44-1.88-22.9,3.31-34.15,2.32-5,.49-11.46-1.44-17.1-6.75-19.75-9.3-40.32-11.95-60.9-1.59-12.38-5.34-24-14.53-33.4-3.93-4-7.24-7.91-13.14-8.73-2.86-.4-5.6-1.66-7-4.57,19.81-3.42,36.65,8.18,44.23,29.25,4.81,13.39,7.54,27.23,11,40.91,1.78,2,1.08,7.8,6.83,3.79,1.94-1.37,6-1.39,8.44-.3,19.06,8.49,38.94.77,58.23,3.41,2.68.36,3.05-.52,3.63-2.36,1.15-3.6,4.18-4.71,7.43-5.52a9.25,9.25,0,0,1,3.06.08c3.78,2.71,10.38-.15,12.34,6.61.56,1.9,3.22.44,4.73-.33a60.8,60.8,0,0,1,11.08-4c12.19-3.5,15.85-1.91,22,9.89a133.67,133.67,0,0,1,2.9,34.65c.32,3.67-1.41,7.91,3,10.69,5.65-2.28,1.78-11.43,8.89-12.59q.33,5.28.64,10.55c1.41,3.83-.38,7.28-1.27,10.83-4.73,3.05-7,10.15-7.2,13-.69,10.55-5.87,7.37-11.34,5.87-3.5-.55-7-.27-10.56-.68-6-.95-9.38-6.35-14.79-8.7-.39,2.62,1.94,2.71,3.19,3.41,2.5,1.39,5.91,2,4.48,6.07-1.12,3.2-3,6-6.8,6.19a41.5,41.5,0,0,0-11.7,2.09c-5.62,1.89-10.44,3.3-9.64-6.59.67-8.16-10.32-15-18.45-13.07-6.51,1.52-6.51,1.52-13.55-1.26.7,6,3.77,10.84,6.53,15.9,3.91,7.15,1.3,13.22-6.57,15.59-4.53,1.36-4.41,3.77-3,7.42,1.58,4.11,6.23,5.8,7.56,10.26-.07-3.06-3.74-6.79,1.47-8.49,4.11-1.34,8.27-1.08,10.24,3.41,1.13,2.59,1.35,5.61,3,8.07a5.24,5.24,0,0,1,.15,2.86c-1.54,2.42-4.55,3.26-6.07,5.69-.74,6.63,2.08,11.33,8.08,13.67,4.49,1.75,8.14,4.62,12,7.25,6,6.43,15.59,8,21,15.21.63,7.89,3.48,17.3-10.55,15-3.45-.58-3.45,2.27-2.77,4.25,2.56,7.43,3.95,15.49,10.32,21,2.17,1.9,5.35,3.79,4.15,7-1.38,3.69-5,2.18-7.56,1.27-4.37-1.58-6.94-.1-8.61,3.89A6.3,6.3,0,0,1,901.63,694.12Z"
            fill="#2e2f32" />
        <path
            d="M756.88,400.59c26.3,3.26,33.75,23.33,37.3,44.7,3.72,22.47,6.51,45,13.36,66.85,2.15,6.88,3.92,15.24-2.49,22-2.23,2.32-2.76,6.12-1.49,8.22,3.89,6.41.17,12.25-.23,18.31,1.49,2.49,3.47,4.68,4.64,7.38,2.93,6.82,3.46,13.7-1.81,19.44a16.85,16.85,0,0,1-19,4.55,198.33,198.33,0,0,0-21.89-6.64c-2.83-.69-6-1.5-6.53-4.94-1.24-7.56-7.8-10.55-13.17-11.36-10.52-1.6-16.78-7.83-22.68-15.37-4.83-7.4-5-16.25-4.34-24.11.94-10.26-1.41-19.93-2.52-29.88-.6,17.34,2.35,34.63,1.08,52-5.43,9.89-11.62,12.12-19.67,5.27-14.13-12-21.2-25-10.26-42.59a187.4,187.4,0,0,0,13.45-25.93c-1.38-9.46,1.88-18.25,4-27.22,7.15-15.88,17-29.93,28.24-43.2C739.5,410.1,746.59,403.26,756.88,400.59Z"
            fill="#131619" />
        <path
            d="M735.59,827.55c-6.65,1-7.76,4.7-4.69,10.05,1.61,2.81,4.18,5.1,5.64,8,1.64,3.24,2.89,7.47-1.13,9.63-4.42,2.38-6.89-1.28-7.92-4.91-3.11-11-15.79-13.38-20.46-23.35a56.2,56.2,0,0,0-8.12-12.75c-2.7-3.11-4.89-7.37-9.91-7.64-3.76,5,3.58,8.51,1.66,13.2a40,40,0,0,1-24.1-42c1-9-16.67-23.47-18.66-19-4.63,10.53-14.63,4.45-17.72,8.71-3.27,4.53-7.46,9.11-9.48,14.94-5.64-4.47-10.59-13-17.19-1.68-.55.93-2.84,1.87-3.6,1.46-10-5.38-15.74,6.1-26.52,4.27C592.8,803,604,808.14,617,807.49c-.93-14.32,9-22.2,23.07-17.51,5.93,2,12.06,6.94,8.27,13.79-5.46,9.88-.55,16.78,5.32,22.22,6.39,5.92,10.24,14.18,18,18.74,1.25.73,1.56,3,3.26,6.63-9.27-3.58-18.62,1.75-24.9-7.06-.87-1.22-2.61-1-3.89.11a2.36,2.36,0,0,0-.18,3.78c6.9,7.25,4.73,16.92,6.9,25.43.36,1.4,1.48,3,1.09,4.12-1.58,4.45-3.64,9.52-7.81,11.31-4.53,1.94-6.21-3.6-8.69-6.41a59,59,0,0,1-3.9-5.22c-5.38-7.67-3.78-11.91,5.32-12.54,6.58-.46,7.76-1.52,3.42-7.38-8.2-11-15.89-22.52-23.08-34.26-3.41-5.56-7.58-7.22-13.5-6.66a17.66,17.66,0,0,1-5.43-.28c-14.25-3.19-15-2.57-15.49,12.74-.09,2.86,1,6.37-1.39,8.37-10.66,8.91-2.63,13.78,3.44,19.89,2.65,2.66,9.84,2,7.93,7-1.41,3.72-6.4,7.31-10.5,8.46-5.12,1.44-8.72,2.59-11.76,7.76-2.41,4.1-8,1.52-11.89-.56-10.26-5.52-19.84-7.63-27.45,4.23-1.52,2.39-4.28,2.51-6.9,2.38-17.38-.89-33.66,4.48-50.11,8.88a7.28,7.28,0,0,0-4.86,4c-4.73,3.42-10.64-.63-15.42,2.45-10.14,1.88-20,5.68-30.59,4.46-2.44-9.77,6.27-9.69,11.31-12.86a35.64,35.64,0,0,1,13.76-.69c11.13,2.14,24-3.9,29.54-14,.88-1.62,1.57-4.08,3.23-4.09,8.18,0,13.55-7.49,20.68-8.36,16.44-2,33.11-4.4,49.59.17-.08-8-8.14-13.66-17.57-11.78-4,.79-7.88,2.24-11.6-.09a11.68,11.68,0,0,1-5.59-11.14c.51-7.42,17.19-21.67,24.56-21,4.7.41,9.4,1.07,14.12.83,3.64-.18,8.53,3.9,10.66-1.4,2-5,2.7-11.14-1.27-15.62-11.65-13.15-21.81-28-40.83-32.35-10.12-2.34-15.76-11.85-15.84-22.06-.07-8.58,13.5-14.71,22-9.78,3.45,2,6.34,4.86,9.39,7.44,3,2.92,4.39,7.14,8,9.64-5.41-3.83-2.63-12.48-9.52-15.44a6.7,6.7,0,0,1-2.47-3.79c.36-7.62,5.53-6.66,10.13-5.14a37.89,37.89,0,0,1,21.66,17.26c2,3.49,4,6.91,7.57,9.11a20.14,20.14,0,0,0,3.88,2c2-8.37,11.39-3,15-8.14,2-2.84,5.17-4.51,7.36-2.58,9.65,8.53,16.81-.34,24.5-3.27s14.68-8.23,23.33-9A8.37,8.37,0,0,0,655,739c3.79-2.62,4.11-11.17,11-8,10.05,4.54,21.45,6.64,28.72,16.63,10.09,13.84,14.33,31,25.39,44.2,1.91,2.27,1.79,5.43.87,8.38-2.81,9,1.23,14.63,9,18.43C733.75,820.38,737.24,822.38,735.59,827.55Z"
            fill="#1d2225" />
        <path
            d="M919.27,982.92c-11.23-5.62-20.5-14.62-32.73-18.58-9.57-3.1-18.53-8.23-29.09-7.78a11.83,11.83,0,0,1-6.18-1.54c-15.4-9-32.4-13.64-49-19.64-18-6.52-36.06-12.93-54.54-18.07-5.58-1.55-11.15-3.18-16.82-4.36a20.76,20.76,0,0,1-12.71-7.84c-2.79-3.68-7.16-8.37-5-12.38,2.1-3.83,7.85-1.78,12-.38s8.65,0,9.25-3.26c.91-5,5.06-11-1.28-15.73-5.37-4-5.7-5.76,1.57-9.14,16.94-7.87,33.51-5.46,51.06-3.4,11.48,1.34,16,8.81,23.62,14.17,9.09,6.35,14.28,13.17,17.54,23,2,6.11,8.18,7.77,13.3,7.31,6.91-.62,6.76-9.91,5.81-12.14-4.87-11.44,3.76-16.29,9.45-22.21,4.6-4.78,11.2-7.29,15.31-13.09,2.32-3.28,5.7-1.34,8.52,1,6.18,5.07,9.89,11.92,12.12,19.13,2,6.6-2.48,10.91-8.92,9.72-8.53-1.58-6.86,2.37-6.19,7.79,1.17,9.41,3.27,18.16,13,22,6.56,2.6,14.52.41,20.08,7.36,2.06,2.57,4.47-2.08,6.05-4.36s3.74-3.61,6.52-2.52,3.5,3.42,3.66,6.17c.43,7.56-2.11,13.54-8.92,17.34-3.71,4.87-.67,9.64.19,14.45A124.32,124.32,0,0,1,919.27,982.92Z"
            fill="#131516" />
        <path
            d="M353.28,865.15c-22.11-1.6-36.28-13.77-40.85-35.38-1.68-7.95-6.39-14.4-9.85-21.47a87.68,87.68,0,0,0-5.95-7.12c-7.84-10.52-19.2-19.16-16.11-35,1.28-6.61,4.21-11.66,9.25-15.3,13.51-9.74,27.31-19.08,41-28.58,7.62-1.81,9.56,2.35,7.47,8.35-4,11.36-2.68,21.2,5.45,30.32,4.8,5.38,4.11,12.23,3,18.75-.7,3.92-1.41,7.86-2.17,11.77-5.25,13.53-1.7,26.27,3.69,38.75,5,11.6,15.57,15.38,26.7,17.88,3,.67,7.29-1.06,7.44,3.78.12,4.21-3.79,5.81-7.13,7.19-4.2,1.75-9.59-1-13.14,3.43C359.47,864.52,356.92,866.65,353.28,865.15Z"
            fill="#191e21" />
        <path
            d="M429.39,649.6q18.62-20.65,37.24-41.32c5.29,2.15,5.81,6.87,6.28,11.63.55,5.57,3.64,6.88,8.23,4.41,4.15-2.23,8.9-3,12.81-5.8,6.06-4.37,10.51-2.85,14,3.77,4.56,8.71,10.34,16.55,18.51,22.32,13.11,13.49,27.08,26.17,39.62,40.15,4.63,5.18,12.07,11.39,5.09,20.73-1.79,2.4,2.28,5.83,2.6,9.12.35,3.63,1.19,7.85-2.53,9.86-2.88,1.56-5.59-1.1-7.3-3.41-5.56-7.5-5.18,4.45-8.91,2.62-4.82.76-7.43-4.79-12.18-4.25-10.71-1.14-15.72-7.49-15.83-20.15,0-4.36,1.48-8.69.88-13-.56-4-2-7.84-7-8.51a72.25,72.25,0,0,0-15.19,5.05c-5.22,2.21-9.63,1.84-13.81-1.91-4.93-5.31-8.21-10.75-1.36-17-2.75-.77-5.89-1.25-9-1.87-10.81-3.36-21.36-1.68-31.8,1.57a35.66,35.66,0,0,1-12.71,2C425.33,664.91,422.82,659.73,429.39,649.6Z"
            fill="#1d2225" />
        <path
            d="M429.39,649.6c-3.24,12.47,1.69,17.6,14.7,12.73a71,71,0,0,1,40.25-3.22c.32,4.44-3.23,4.07-5.79,4.31-3.28.3-6.55.12-8.39,3.6-3.19,6.92-8,11.24-16.17,9.91-6.55-1-8.67,3.18-10.82,8.31-2,4.83-4.18,11.24-8.16,13.22-5.66,2.82-6.92-6-11.29-8.08-6.48-3.1-11-8.09-14.18-15-1.53,7.24-2.05,13.23.63,20.17,3.92,10.19-2.11,17.51-14.58,20.74-4.15.2-7.72-1.56-11.43-3.11-13.71-5.72-17.67-3.46-18.21,10.12-10.43,2.57-12.66-8.42-19.48-11.8C374.51,691.43,403.12,672.09,429.39,649.6Z"
            fill="#303132" />
        <path
            d="M534.53,562.72a43,43,0,0,0,17.86,20.38c2.92,1.78,6.36,3.74,6.26,8.12L558,592.6c-13.14,11.25-26.43,6.23-40.05-.08,1.81,5.82,6.81,7,10.93,9.18,3.52,1.89,7.14,5.46,2.48,8-10.07,5.43-8.54,14.85-10.17,23.35-9.22.54-10.9-6.7-12.85-13.08-2.89-9.49-3.85-10.09-11.6-3.69-3.41,2.82-6.77,5.1-11.13,6.34-7.52,2.12-10.77.27-10.92-7.62-.13-6.58,2-12.88,3.18-19.3C495.15,582,513.82,570.59,534.53,562.72Z"
            fill="#2e3a43" />
        <path
            d="M346.47,711.54c4.69-.39,8.38,1.48,10.46,5.61s4.87,5.82,9.25,5.39c4.36,5.41-.54,9.17-2.38,13.48-9.71,12.53-17.21,25.73-12.71,42.55-2.79,7,.05,16.56-9.12,20.77-1-2.32-1.23-4.62.28-6.83a62,62,0,0,1,1.56-12.75c1.57-7.44,1.35-14.38-5.12-20.74-7.74-7.6-8.46-18.08-3.67-27.38,3.37-6.56,1.7-8.3-4.26-9.38C334.92,717.11,340.34,713.8,346.47,711.54Z"
            fill="#332e2d" />
        <path
            d="M384,906.25c-10.39-5.49-15.26-16.25-22.93-24.34-2.16-2.27-2-6.08.57-8.91,2.86-2.17,6.33-3.12,9.44-4.79,4.15-3,7.7-6.67,12-9.4,7.25-4.61,15.45-3.49,19.11,3,4.45,7.81-2,11.38-6.89,14.65-14.34,9.56-14.46,9.38-5.54,23.44C391.67,905.43,391.63,909.28,384,906.25Z"
            fill="#151a1c" />
        <path
            d="M897.42,471.43c-.22.29-.47.85-.66.83-9.29-1-2.72,12.93-7.6,10.52-5.55-2.75-10.57-1.63-15.12-2.91-13-3.67-27,11.58-38.67-2.76-6.69,4.27-15.66-8.89-20.68,3.52-3.59-3.33-2.76-6.66-2.53-9.88,7.15,5.66,14.44-.82,21.64.27a203.5,203.5,0,0,0,50.58-5.64C889.26,464.18,894.12,467.11,897.42,471.43Z"
            fill="#1c2124" />
        <path
            d="M477.83,595.67c5.32,6-1.07,11.62-.67,17.6.47,6.88-.27,11.64,9.3,7.06,5.59-2.68,8.84-7.4,13.63-10.53,6.16-4,10.61-3.58,10.34,5s3.61,14.29,11,18l1.1,1a44.66,44.66,0,0,1,3.85,10.85l-.58,1.33c-10.34-2.64-14.22-12.33-18.82-19.82-4.3-7-5.59-11.26-13.53-4.17-3.8,3.4-9.7,4.23-14.55,6.54-5.81,2.77-9.7-2.34-8.88-7,1-5.51-1.88-8.94-3.4-13.2C470,603.78,472,598,477.83,595.67Z"
            fill="#23292c" />
        <path
            d="M947.21,479.78c-7.65-11.57-17.26-5.56-26.3-2.7-4,1.27-7.63,3.69-13.2,6.48,5.72-11.59-6.64-7.28-8.3-12.46,4.16-4.77,9.7-5,15.39-4.68l4.31,0c4.83-2.92,10.46-2.67,15.72-3.9,2.71.53,5.27-4.06,8.08-.25C946.94,467.44,952.3,472.33,947.21,479.78Z"
            fill="#1c2124" />
        <path
            d="M384,906.25c5.9.81,5-2.71,4-6.3l1.26-.85c10.61-.72,22,4.3,31.53-4.41,5.21-1.27,10.47-3.55,15.43.68-2.85,4.47-11,3.67-10.92,11C411.54,907.7,397.75,913.28,384,906.25Z"
            fill="#282a2b" />
        <path
            d="M927.85,976.35h10.66c.29,5.95.62,11.9.86,17.85.13,3.19.59,6.8-4.65,5.53C928.85,993,926.8,985.13,927.85,976.35Z"
            fill="#131516" />
        <path
            d="M372.06,871c-3.44.8-6.58,3.24-10.41,2-.35-5.23-5.31-5.52-8.37-7.85,2.68-.71,5.8-.75,6.63-4.31C370.73,859,374.54,862.15,372.06,871Z"
            fill="#312c2a" />
        <path
            d="M455.9,902c4.58-4.34,10.36-1.14,15.42-2.45,11.55,1.42,23.53-2.8,34.77,2.7C489.37,899.91,472.63,902.19,455.9,902Z"
            fill="#282a2b" />
        <path
            d="M947.34,552.05c2.3,1,4.82,5.16,7,1.23,3.07-5.53-6.49-1.47-5.27-7.07,9.84,4.19,6.73-8.72,13.11-9.94a2.14,2.14,0,0,1,1,3.1c-1,10.09-1.92,20.17-2.94,30.81-5.73-1.24-4.49-8.44-9.9-10.1,2.17,8.32,4.23,16.27,6.3,24.21-.4,14.59,4.27,28.56,5.31,43,.26,3.53,2.33,7.91-1.92,9.53-3.61,1.38-5.12-3-6.89-5.55-1.12-1.59-2.06-2.93-4.24-1.74-8.31-1.27-15.74-5.09-23.14-8.62-2.56-1.22-10.67-2.7-3.89-9.27,1.49-1.43-.69-.41-.76-.38-6.14,3.69-9.92-1.84-15.29-5.18,1.62,5.12,7.7,7.16,4.16,12.31a7.2,7.2,0,0,1-6.3.41c-5.12-3.38-10.1-6.79-16.44-7.94-4.32-.79-8.3-3-7.57-8.75.31-4.43,3.46-4.41,6.69-4.28,1.29.73,1.9,2.3,3.6,2.93-1.93-1.32-2-3.75-3.84-4.86-2-1.76-5.7-2.92-4.55-6.35,2-6.06-2.63-4.31-5.1-4.67-5.09-.73-3.74,2.77-3.27,5.54a25,25,0,0,1,.44,8.89c-3.87-7.56-11.66-13-13.45-20.79-1.08-4.73,2.87-12.87,11.76-5.86,5.47-13.72-12.33-23.51-5.64-38.54,4.26,9,8.64,10.35,17.15,5.79,8.29-4.45,11.38,6.09,16.8,10.23s6.57,7.16.45,12.58c8.36-5.5,19.54-.48,26.71-9.62-3.42-1.31-5.77-2.23-8.13-3.11-2.19-.83-5.79-.46-5.06-4.16.54-2.73,3.74-3.24,6-4.16,2.74-1.12,4-.57,5.08,3.06,1.09,3.8,5,6.39,9.32,7.31C939.82,552.67,943,550.05,947.34,552.05Z"
            fill="#574e49" />
        <path
            d="M949.5,628.51c-.37-1.7-1.61-4.28-1-4.94,2.2-2.22,4.17-.05,4.79,1.83,1.25,3.81,3,7.14,8.21,12.35-2.49-10.35,2.67-19.2-6.79-25.25-2.27-1.45-1.88-3.54,0-5.45,1.46-1.52,4.12-4.32,2.72-5.27-8.43-5.74-1.73-11.67-.79-17.49,1.65,12,7.84,23.23,5.91,35.87-.35,2.32-1,6.65,1.5,6.79,6,.32,9.7,2.75,9.83,8.55.22,10.07,6.37,20.72-2.4,30.07l-1.36-.7c-9.72-9-18.27-19.25-29.45-26.54-3.37-2.2-4.48-4.89-2.82-8.14,1.88-3.67,4.84-1.85,7.4-.49C947.11,630.69,949.05,632.36,949.5,628.51Z"
            fill="#8f7869" />
        <path
            d="M966.94,689.27c-4.31,14.72-.71,30.14-4,45-1.09,4.88.69,10.2-2,14.9-2.83-7.21-10.83-11.2-12-19.42a4,4,0,0,1,2.42-1.79c1.85-.2,3.43.61,5.63,1.72-1.66-6.91-10.34-13.8-9.8-16.82-10-7.46-13.4-16.82,5.24-36.87-.36-4-2.71-1.6-7.55-3.41-3.9-1.46-6.8-5.26-4.68-9.52,2.43-4.87,7.35-3.85,11.42-2.16,6.92,2.87,11,9,15.52,14.59.15.48.3,1,.44,1.45Z"
            fill="#6a5b54" />
        <path
            d="M938.75,932.73c-.11-9.72,1.66-11,10.88-11,3.25,0,4.29-5.86,8.34-6.6,2.07,7.53,7.53,15.05,3.68,22.89-6.68,13.56-1.88,28.47-7.31,42.06-6.52-5.62-3.4-13.76-3.56-21.1-.18-7.94,0-15.89,0-26.09-5.57,6-3.86,11.84-6.46,17.09A47.79,47.79,0,0,1,938.75,932.73Z"
            fill="#131516" />
        <path
            d="M975.13,863.11v19.78c-12-8.48-6.76-22.17-12.5-32.44l-2.8,13.12c-3-2.23-3.23-5.67-2.69-8.65,1.08-6-1.74-9.92-5.7-13.6,1.39-9.48-1.62-19.56,3.91-28.45h0c2-1.81,4-1.88,6,0,1.28,7.41,4.09,14.61,1.88,22.46-.6,2.11.31,6.44,1.69,7C974.57,846.43,972.53,855.85,975.13,863.11Z"
            fill="#1e2223" />
        <path
            d="M971.64,753.21c-4.08-1.7-3.34-5.26-4-8.75-3.25-16.8,3.75-32,6.68-47.82,4.92,6.29,6.85,13.26,4.4,21.06-3.87,12.29-.58,25.5-4.93,37.71C972.46,755.26,972.43,753.87,971.64,753.21Z"
            fill="#524945" />
        <path d="M991,830.53c-3,20.19,1.48,39.19,1.89,60.87C981.42,874.13,981.08,848.66,991,830.53Z"
            fill="#191c1d" />
        <path
            d="M963.18,539.37l-1-3.1q1.56-5.46,3.13-10.94c2.94,14.18,6.06,28.33,8.7,42.56.76,4.08.12,8.41.12,13.1-4.5-1.47-1.52-5.18-4.32-7v16.9c-6.22-4.25-6.19-8.62-5-14.43C967.4,564.07,969.07,551.48,963.18,539.37Z"
            fill="#7b706a" />
        <path
            d="M971.64,753.21c.71.73,1.43,1.46,2.14,2.2.12,19.25-1.66,38.26-7.14,56.8-.07.24-.46.57-.64.54a2.88,2.88,0,0,1-.92-.56c-3.86-2.09-4.87-4.92-2.24-8.69Q967.23,778.35,971.64,753.21Z"
            fill="#2f2f30" />
        <path
            d="M988.36,788.67c-4.32-18.15-5.31-36.33.32-54.5C992.8,752.28,991.37,770.45,988.36,788.67Z"
            fill="#4f4c4c" />
        <path
            d="M961,499.29c-6.4-13.56-8.94-27.16-8.94-37,1.83-1,3.88-2.72,5,.69,2.94,9.09,7.49,18,4.15,27.95C960.26,493.84,960.7,496.49,961,499.29Z"
            fill="#414144" />
        <path
            d="M990.13,578.67c-4.51-13.89-3.73-25.75-1.73-37.66C994.19,552.59,995.46,564.42,990.13,578.67Z"
            fill="#695f59" />
        <path
            d="M969.1,918.81c-4.86-11.57-1.88-23.23-.38-34.87l2.89.51q1.21,8.35,2.44,16.71c1.13,3.82,1.58,7.49-2.21,10.25Q970.47,915.12,969.1,918.81Z"
            fill="#222729" />
        <path
            d="M981.39,800.19c3.36,11.61,4.23,21.82-7.11,30.08C972.48,819.05,977.34,810.13,981.39,800.19Z"
            fill="#323435" />
        <path
            d="M956.26,486.71c.65,3.61,3.73,4.26,4.38,7.87,1.24,9.21-.49,9.92-2,11.73-2.54,3.07-2.58,5.57-5.87,9.72C948.08,488,952.1,487.33,956.26,486.71Z"
            fill="#574e49" />
        <path
            d="M979.21,672.39c-.59,8.09,4.82,15.6,2.78,24.5C973.35,689,975.24,680.81,979.21,672.39Z"
            fill="#736964" />
        <path
            d="M989,646c1.1,6.14,2.62,12.28.35,20.9-4.17-8.69-4.85-15.79-4.86-23.05C987,642.52,987.83,644.58,989,646Z"
            fill="#755f51" />
        <path
            d="M971.84,911.41q1.11-5.13,2.21-10.25c2.24,8.36,6.49,16.67,1,25.69C971.39,921.84,976.47,915.7,971.84,911.41Z"
            fill="#333535" />
        <path
            d="M971.48,665.57l-4,11.34q-.39-.42-.78-.87c-.93-2-3-3.12-4.08-4.93-1.72-3-8.21-5.46-3.84-9.35,3.52-3.13,8.83-1.53,11.76,3.29Z"
            fill="#6a5b54" />
        <path
            d="M988.25,911.73c-3.88-7.57-7.46-15.35-5.27-25.46C987.58,894.84,988,903.2,988.25,911.73Z"
            fill="#303537" />
        <path
            d="M995.21,698.56c-1.66-1.45-6,2.46-5.71,6.81-.91,3.16-.25,6,1,9.08,3.25,8.29,5.29,3.67,7.52-.51C1002,707.94,999.47,702.27,995.21,698.56Z"
            fill="#4f4c4c" />
        <path
            d="M976.94,600.34c2.23,5.18,1.4,8.94.45,14.77C973.89,609.6,972.53,605.93,976.94,600.34Z"
            fill="#7b706a" />
        <path
            d="M989,646l-4.51-2.15c-2-1.43-2.78-3.48-1.55-5.53.4-.68,2.71-.84,3.8-.39C990.74,639.51,990.28,642.68,989,646Z"
            fill="#715f51" />
        <path
            d="M955.66,897.07c-3.21-6.86-10.25-12.06-8.91-21-2.85,9.36-1.28,18.75-1.64,28-3.09-4.42-6.18-8.85-9.32-13.33a9,9,0,0,0-1.67.68c-15.29,10.25-15.07,10.14-23.35-5.9-3.56-6.89-5.08-14.32-7.42-21.53-.53-1.64-1.88-3.48.09-4.91,1.68-1.23,3.31.16,5,.51,10.55,2.16,17.57,9.46,24.59,18.19,1.12-4.91-1.14-7-2.65-9.3-4-5.93-10.49-11-.33-18,4-2.78,3.42-9.33-.74-13.73-3.13-3.32-5-4.63-10.55-1.44-5.24,3-11.25-5.07-14.63-9.35-5.84-7.4-9.06-16.8-21.49-12.68-1.16.39-3.5-2.15-5-3.61-2.1-2-2.25-7.29-6.76-5.11-3.55,1.72-2.18,6-1.87,9,1.16,11.29-4.69,21-6.46,31.66-.42,2.52-1.14,5.25-4.27,5.59s-3.61-3-5.4-4.57c-3.93-3.38-4.88-9.74-11.14-11.56-2.51,7,5.11,13.55-.24,20.41-6-4.1-9.92-12.82-20-6.3-4,2.58-11.63-11.46-8.87-16.93,1.27-2.52,8.39-2.45,3.49-7.71-4-4.36-8.66-8.79-15-7-11.74,3.31-23.2,2.06-34.84,0-4.17-.75-8.91-1.87-11.72,3s-9.34,1.13-12.45,5.31c-4.54.5-5.52-3.11-6.11-6.1-1.2-6.07-2.18-12.13-4.83-17.84a7.12,7.12,0,0,1,2-8.92c3-2.49,6.4-1.76,8.89.76,4.78,4.83,11.46,6.28,16.76,10.09s10.22,7,12.66-2.69c.47-1.89,2.69-3.3,4.29-2.59,8.61,3.83,15.65-5,23.81-1.2,1.26-7.25-8.13-10-4.47-15.94,2.86-4.62,7.93-1.78,12.1-1.49,2.43.76,4.73,1.71,5.1,2.39-1.65-2.44-6.31-4.75-8.74-9.05-1.09-1.93-2.08-4-.45-6,2.11-2.57,4.58-1.4,6.76,0,5.61,3.6,8.64,9.61,13.06,14.33,7.2,7.7,7.7,7.65,13.07-1.66,2.15-8.69,7.18-16.62,4.71-26.47-1.35-5.38,5.77.29,6.91-4a95.86,95.86,0,0,0-20.37-19.87c-1.93.5-3,.07-2.18-2.16-1.06-4.64-1.39-9.53-8.68-8.13-4.2.8-8.84-1.44-8.1-6.3.78-5.07,5.7-3.12,9-2.41a21.09,21.09,0,0,1,15,11.45c5.87,11.13,13.82,19.69,26.15,24.76,7.39,3,14,9.23,19.51,15.31,9.17,10.1,20.66,16.85,31.47,24.64,1.64,1.18,2.9,3.84,5.43,2.17,2.08-1.37,2.17-3.74,1.26-5.89-1.17-2.78-2.09-5.59-.78-8.44s1.82-6.89,6-6.92c3.57,0,4.59,3.48,5.41,6.09,2.25,7.15,13.14,16.08,16.46,11.34,5.22-3.27,8.49,6.24,10.39,10.1L954,810c.5,8.21-1.09,16.29-1.54,24.44-.18,3.05-1.82,6.5,2.17,8.5,3.6-2,7-3.54,6.72,3-.21,5.69-.34,11.39-.51,17.08-2.57,8.76-2.1,17.74-2.19,26.71,0,2.39,1.42,5.32.11,7.58A1.77,1.77,0,0,1,955.66,897.07Z"
            fill="#1e2223" />
        <path
            d="M558.65,591.22c2.18.44,2.89,5.8,5.86,2.57,6.31-6.86,11.89.13,17.16,1.22s4.38,8.91,2.63,12.41c-2.88,5.78,2.85,10.63-.38,16.57-1.77,3.27,2.56,3.77,5.3,1.19,1.83-1.73,3.8-4,6.57-2.54,3.39,1.85,2.12,5,1.14,7.72-1.07,3-.26,5.66,2.54,6.12,13.9,2.3,28,9,41.56-1.48,1-.79,3.19-1.69,3.77-1.23,10.44,8.46,22.69,6.94,34.88,7.3,9.81.29,17.86,7.43,26.55,10.38,16.37,5.56,26.16,22,44,24,3.07.33,6.06,2.45,8,5.9-1.57,2.68-7.78-2.27-7.23,3.91-2.4,1.43-4-.28-5.83-1.39a12.81,12.81,0,0,0,2.07,1.74c2.79,2.08,7.36,3.79,5.49,8-1.73,3.91-6.4,2.4-9.84,2.13-14.81-1.16-14.86-1.25-15.53,14.71-.1,2.5-.71,4.17-3.2,4.87a13,13,0,0,1-13.25-7.75c-2.62-5.67-6.86-7.86-12.32-9.43a75.76,75.76,0,0,1-20.77-9.25,20.56,20.56,0,0,0-15.52-3.27c-9.68,1.79-16.49-2.48-20.07-11.65-3-7.64-17.76-16.89-26-16.21-1.8.15-3.81,1.52-5.28.92-13.76-5.58-27.38-5.75-42-2.47-5.67,1.28-10.56-6.5-14.46-11.77-2.1-7.23-8.35-14.33.26-21.75,2.5-2.15-1.08-5.26-1.25-8.06-.18-3.11-2.14-6.9,2-8.56,3.64-1.45,4.74,2.38,6.55,4.43,1.18,1.34,2.06,3,4.21,3.4,3-1.21,1.34-6.86,6.13-6.76-4-.89-10.22,3.2-11.26-.89-1.2-4.67-6.22-9.25-2.71-14.86Z"
            fill="#34393c" />
        <path
            d="M700.63,488.42c.91,8.48-2.51,15.37-7.56,21.86C681.2,525.5,682.4,540.07,696.34,553c7.82,7.26,12.32,7,19.59-1.15a2.46,2.46,0,0,1,2.9.12c2,1.93,4.4,2,5.82-.11,6.64,13.35,22.11,12.1,32.38,19.48,1.57,1.12,5.7,1.07,5.32,2.77-3.17,14.34,9.28,8.48,14.31,10.29,5.78,2.08,10.51,7.6,17.9,5.89,11.6-2.7,15.09-7.88,11.79-19.31q-1.51-5.19-3-10.39c9.08,8.18,14.34,19.85,26.06,25.81-5.55,5.14-7.79-2.53-12-.35-.18,5.41,2.66,7.42,7.86,7.44,2.26,0,6.27-.72,5.4,3.11-.83,3.64,4.74,6.15,1.66,8.76-3.84,3.27-6.08-2.31-9.32-3.18-6,1.15-3.87,7.7-7.1,10.74-3.4,3.19-3.26,9-8.2,11.13h-2.18c-15.9-7-32.68-8.76-49.84-8.76-7.93,0-13.5-3.31-16.51-11.51-1.58-4.31-4.75-9.08-11.68-6.64-5.84,2.05-7.45-3.76-9.3-7.2-4.94-9.21-12.26-14.38-21.34-19.67-5.85-3.42-17.8-8-14.54-21.42,1.19-4.9-5.67-7.23-10.4-3.94-6.18,4.3-12.11,6-19.35,3-4.44-1.8-7.48,1.47-10.33,4.39-4.86,5-7.83,4.33-9.33-2.8-3.75-17.9,3.68-17.79,16.4-14.8,2.07-2.92,1.28-6.34,1-9.38-.83-7.65-1.14-10.43,9-15.08C673,504,691.29,503.62,700.63,488.42Z"
            fill="#1c2124" />
        <path
            d="M724.75,713.79c.67-4.81-2.75-9.63-.17-14.39,2.42-4.46,3-11.8,11.41-7.66,5,2.44,10.32,1.35,16.24,2.25-3.08-7.07-11.21-7.54-13.22-14.5,6-1.9,7.74,4.66,12,5.75,10.33,8,17,19.45,26.06,28.61,2.75,1.81,4.65,4.53,7.15,6.63,2,1.66,4,4.63,2.59,6.66-3.53,5.08-7.78,8.82-3.45,16.33,1.37,2.37-5.44,3.32-8.7,1.63-4.12-2.14-7.43-5.89-13.35-6,4.44,6.15,9.82,12.85,5.13,19.82-3.68,5.46-9.13-.57-13.82-1.29-4.64-3.31-14.36-3.62-8-13.48-7.41-3.63-9-11.55-12.7-17.81C729.44,722.23,724.41,719.47,724.75,713.79Z"
            fill="#4a4a4b" />
        <path
            d="M753,755.52,764.31,759c5.08-9.78-5.5-15.17-6.71-23,10.4-3.8,15,8.88,24.54,8.47-.89-6.31-7.31-7.81-8.56-12.91,1.41-3.48,3.58-.87,5.37-.64,2.36.3,4.4-.18,5.65-2.29a4.85,4.85,0,0,0-1.8-6.67c-4-1.63-4.68-4.83-5.76-8.1,5-.5,6.83,5.09,10.35,5.87,4.73-1.34-2.07-7.87,4-7,2.91.4,7.72,1.11,5.8,7.7-1.76,6,5,8.75,8.83,11.83,4.5,3.64,9.3,6.73,12.71,12.94-6.94-1.14-8.61-9.73-17.74-9,8.08,7.09,14.62,13.35,21.73,18.88,4,3.1,6.75,5.2,5.32,11.35-1.3,5.62,3,10.1,8,13-.45,4.14,1.93,9.76-3,11.79s-6.94-4-10.14-6.5c-6.56-5.18-9.28-14.43-19.41-18.77,2.84,10.2,13.5,13.17,14.38,23.57l-10.19-7.93c-8.05-5.17-12-14.66-20.55-19.36-3.44-1.9-6.37-4.77-9.85-5.67-1.35.45-1.69,1-1.81,1.83-.78,5.12,1.19,11.73-4.58,14.46C766.48,775,754.53,762.75,753,755.52Z"
            fill="#323537" />
        <path
            d="M953.67,794.74c-2.63-1.38-5-1.7-7.81-4.31-4.19-3.42-2.28-7.55-1.35-11.58s2.94-8,1.32-12.3c-5-6.61-6.39-15.12-12-21.64-4.36-5.08-8.76-9.06-15.11-10.92-2.26,3.81.91,5,2.23,6.78,1.43,2,4.09,3.16,3.87,6.19-18.45-4.17-9.71-1.86-34.65-36.34,1.87-1.28,3.33.49,5,.68,5.11.58,10.63,1.32,13.59-4,3.07-5.55-3.49-7-5.42-10.4-.53-.94-1.16-1.83-1.74-2.74.92-1.75,2.52-2.17,4.31-2.22,14-2.39,16.12-1.51,23.17,11,2.3,4.08,4.16,8.36,8.27,11,5.44,4,11,7.79,12.36,15.12,3,7.1,13.46,10,11.18,20Q957.29,771.94,953.67,794.74Z"
            fill="#353231" />
        <path
            d="M650.29,562.15c16.51,6.78,33.84,9.77,46.17,23,1.48,1.59,2.87,3.26,4.3,4.89,1.74,2,8,2.38,3.61,6.53-2.76,2.6-5.1,10.28-11.74,3.93-9.52-9.12-23.07-11.23-33.58-18.73-2.9-2.06-7.68-2.7-9.17-.57-6.33,9-12.85,0-19.16.74-2.28.27-6.16-2.25-4.81-5.74,1.28-3.32,4-1.65,6.25,0,3.08,2.28,7.16,1.13,6-2.11C632.78,558.56,648.16,568.09,650.29,562.15Z"
            fill="#33383c" />
        <path
            d="M798.32,663.62l20.31,16.73-2.25,2.3c-7.13-5.19-16-9.14-20.83-16-3.81-5.43-6.56-12.64-9.18-19.07-2.33-5.72-4.53-11.38-9-16.53,5.13-2.12,5,2.68,7.14,3.71,1.59.75,2.72,2.24,4.75.75,5.87-4.33,5.93-4.28,8.56,2.47a17.77,17.77,0,0,0,8.72,9.35c7.68,3.82,2.22,9.93,2,14C808.29,666,803.91,658.06,798.32,663.62Z"
            fill="#2e2f32" />
        <path
            d="M825.15,727l2.18,2.16c-2,7.78,5.69,11.73,6.6,18.41C826.77,742.63,822,736.63,825.15,727Z"
            fill="#323537" />
        <path
            d="M753,755.52c3.78,8,11.4,11.47,18.83,15.85-3.75-5.26,3.63-9.62-.08-16-2.21-3.8,3.88-3,6.62-1.53,12.32,6.51,23,14.83,29.3,27.75L796,781c.1,5.36,4.39,7,6.83,9.81,2.28,2.65,2.54,4.91.68,7.79-1.76,2.72-4.21,3.31-6.4,1.39-3.83-3.38-6.25-2.15-8.66,1.53-.52.78-2,1.7-2.72,1.47-7.3-2.42-14.19-5.46-14.22,7.41,0,3.08-5.5,1.27-7.3-.48-7-6.78-18.36-6.62-23.93-15.52a3.72,3.72,0,0,0-4.88-1.22c-2.05,1-3.93,4-2.72,5.26,7.45,7.59,1.85,19.6,9.5,26.92,1.24,3.62,2.47,7.24,4,11.63-6.15-.82-5.83-8.06-10.52-9.46-1.52-4-4.25-5.8-8.58-7.16-7.58-2.37-12-13.07-8.6-20.21,1.86-3.86,1-6.91-1.21-8.89-11.72-10.63-13.36-27-22.69-39.11-5.39-7-10.81-12.18-19.2-14.35-2.06-.53-4.64-.75-6-2.11-5.62-5.77-8.59-3.81-10,3-.65,3.07-.87,4.59-5.25,4.71-3.78.1-12.69-5.57-11.65,5.75,0,.26-.4.55-.61.82-8.46-7.65-11.72,5.08-17.62,4.56-5.19-.47-6.3-.49-5.45,5,.41,2.68-3.29,2.63-5.14,1.9-2.27-.9-4.11-2.84-6.22-4.19-2.68-1.72-5.38-4.82-8.74-3-4.62,2.51,2.35,5.46-.19,9-4.28-.14-7.46-5.37-12.58-4.05-2.68,3.12,2.17,5.91.67,9-.82,1.25-1.68.64-2.68.15-8.12-4-14.5-9-18.77-17.86-3.56-7.4-11.77-11.51-20-14.07-3.55-1.1-5.69-.48-6.12,3.5-4.53.72-5.81-2.2-5.66-5.73.15-3.69,3.16-4.69,6.22-4.34,6.64.76,10.67-3.28,14.73-7.43,6.89-.84-1.42-10.86,5.65-10.26,4.63.4,4.07,8.14,8.74,10.15a16,16,0,0,0,2.24.57,15.79,15.79,0,0,0-1-12.37c-1.32-2.77-10.44-8.06,1.53-9.41,2.13-.24,1-2.73-.15-4.34a147.18,147.18,0,0,0-29.49-32.31c-6.26-5-10.69-12.32-15.94-18.59l0,0c8-8.23,17.9-4.72,27.29-4.33a14.57,14.57,0,0,1,3.27,2c7.1,6,12.1,15.27,24.82,7.6a18.72,18.72,0,0,1,22.24,3.33c3.27,3.41,7.06,2.16,11.06.67,6.1-2.27,30.15,8.59,29.91,14-.34,7.53,3.72,10.2,8.93,13.4,2.43,1.5,4.23,2.7,6.73,1,7.56-5.11,13.57-.12,19.57,3.25a107.67,107.67,0,0,0,15.61,7.31c7.3,2.66,17.17,1.56,18.61,13.55.44,3.66,6.34,5.47,10.87,6,6.21,6.25,12.33,12.54,13.57,21.91.67,5,8.64,2,8.81,7.87,0,1.58,3.47,2.48,1.48,4.31-.75.68-3.12-.42-5.26-.8C745,752.45,749.66,753.23,753,755.52Z"
            fill="#23292c" />
        <path
            d="M936.21,716.05c-8-2.24-7.56-10.89-12-15.95-3.83-4.41-6.31-9.88-13.67-6.19-1.6.8-3.49-.4-4.64-2-.92-19.21,11.25-1.89,16.41-6.27-14.38-8-15.34-22.26-17.7-35.91,2.76-1.3,3.88.61,5.45,1.15,5.48,1.85,12,5.08,9.4-6-.34-1.47,1-3.35,1.64-5,2.91-2.92,7.38-2.7,11.22-5.84-4.33-6-8.42-11.91-16.92-12.47-2.37-.16-5.39.11-5.17-3.8-1.27-2.54-1.85-5.55-5.08-6.66-2.26-.78-5.66-1-3.85-4.85,1.61-3.36,4.53-3.15,7.44-1.83,4,1.81,6.82,12.23,12.44,1.63l7.84,7.32c-2.95,3.07-5-1.78-7.88,1.16,7.37,8.44,19.66,7.87,28.33,14.06l4.34,6.68c-4.63,1-6.62-2.85-9.7-4-1.59-.58-4-3.37-5,.56-.57,2.26,1.19,2.93,2.87,4.44,10.06,9,23,15.31,28.56,28.84l-11.28-2.64c.23,6.39,8.27,7.53,7.44,13.63-4.89-.77-6.44-5.41-9.59-8.22a55.24,55.24,0,0,0-6.82-5.16c-3.1-2-7.38-1.13-8.62,1-1.9,3.31,2.21,7.45,4.41,7.21,9.79-1.07,5.43,5.39,5.69,9.43-.3,4.76.26,9.62-1.78,14.16-2.52,1.67-7-1.93-8.26,3.81-1.66,7.31,5.81,6.14,7.91,9.77a3.67,3.67,0,0,1,.45,2.9c-1.36,5.06,1.18,8.37,5,11,4.33,2.95,6.23,6.78,4.71,12.65l-8.12-5.52C946.18,725.23,945.88,715,936.21,716.05Z"
            fill="#4a413d" />
        <path
            d="M910.27,617.68c6.45,1.64,13.41.89,18.45,7.47,3,3.93,7.39,6.62,7.28,12.3-5.11-.25-9.37,4.95-14.86,2.34-7.24-4.49-15.56-7.26-21.72-13.5a14.61,14.61,0,0,1-1.15-1.82c-1.57-3.71-8.87-6-5.42-10.24,3.31-4.05,7.17,2.18,11,3.28Z"
            fill="#574e49" />
        <path
            d="M903.83,617.51c-3.75.89-6.54-1.55-10.49-3.39.49,5.41,6.72,7.22,6.08,12.17C895.1,624,892,620.15,886.51,619c-6.89-1.39-10-10.76-6.84-16.94,2.24,4,5.14,6.69,10.18,6.78C896.05,609,900.8,612,903.83,617.51Z"
            fill="#4a413d" />
        <path
            d="M807.69,624.08c.41-8,8-12.83,9.06-20.77.5-3.88,4.15-.46,6.24-1.1a68.62,68.62,0,0,0,.65,7.47C825.48,619.42,817.33,626.83,807.69,624.08Z"
            fill="#23292c" />
        <path
            d="M885.34,646.6c-8.14-3.34-14.35-1.82-18.92-6C874.31,636.19,874.66,636.27,885.34,646.6Z"
            fill="#23292c" />
        <path d="M856.4,651.34l-10.78-12.79C851.24,641.43,856.39,643.4,856.4,651.34Z"
            fill="#23292c" />
        <path
            d="M906.31,676c-5.24-2.49-7.71-5.34-10.68-10.15C902.44,666.09,904.87,669.08,906.31,676Z"
            fill="#23292c" />
        <path
            d="M886.12,595.89c4.43,1.9,7.28,5.43,11.1,11-6-2.23-10.38-3.22-10.86-9.08A10.5,10.5,0,0,0,886.12,595.89Z"
            fill="#4a413d" />
        <path
            d="M876.8,632.79c-4.56-1.81-8.59-1.75-9.62-6.54-.11-.48.62-1.66.93-1.65C872.52,624.79,874.51,627.83,876.8,632.79Z"
            fill="#23292c" />
        <path
            d="M724.65,551.89c-3.75,3.47-2.63,1.55-8.72,0-3.14-5-2.62-10.61-2-15.9.94-8.64,1.22-16.35-3.19-24.86-3.24-6.26,3.94-12.93,7.41-19.57,1.34,11.22,4.85,21.92,3.58,33.19A62.08,62.08,0,0,0,724.65,551.89Z"
            fill="#23292c" />
        <path
            d="M554.23,722.54c.12,9.06-5.92,10.62-13.06,10.59-2.2,0-5.09-3-6.16,1.12-.75,2.87,1.51,4.6,3.93,5.79l2.18,2.18c5.07,5.24,5.07,5.63,0,8.78-3.72.06-6-2.46-8.11-4.91-6-6.94-11.68-2.48-17.57.24-6.83,3.17-1.21,7.1-1,10.84.71,16.41,15.69,15,25.13,19.38,7.6,3.54,13.74,7.6,17.32,14.79,2.12,4.24,6.13,6.08,8.78,9.43s7.24,5.06,6.71,11.4c-1.38,16.54-1.37,18.67-21.91,13.72-15.77-3.8-19.11,8.67-27.6,14.42-4.56,3.08-1.28,7.09.6,10.55,2,3.72,6.44,4.19,8.46,2.45,7.73-6.66,12.75,1,19.12,2.19,13.13,2.44,3.49,11.53,6.57,16.89-17.77-11.17-36.44-3.68-54.36-3.15-6,.18-10.58,10.51-19.5,7.52a21.05,21.05,0,0,0-1.48,3.74c-.47,1.73-.31,3.75-1.13,5.25-2.7,4.9-23.81,11.55-29.68,9.56,7.33-10.38,15.1-20.39,21.88-31.23s20.35-14.16,29.62-22.63c2.16-2,5.12-2.46,3.28-6.32-3.44-7.21.7-11.56,6.05-15.37,7.89-3,9.4-8.25,3.53-13.93-14.5-14-21.1-30.57-18.45-50.7.29-2.18-1.12-4.15-1.76-6.21C494.9,740.53,494,732.45,486,727c-3.2-2.19-2.9-6.37-2.12-10.09.72-3.49,2.28-7.19-2-9.63-2.84-1.94-2.61-5.13-3.22-8,1.52-6.34,5.39-7,10.63-4.44a25.81,25.81,0,0,1,5,5.28c.43.54.63,2.13,1.64,1.22.56-.51.2-2,.55-3,3.44-5,9.7-3.17,14.13-5.81,5.88,1.45,10.16-4.07,15.8-3.65,3.57,7.65,1.86,13.46-5.63,15.61s-13,6.74-19,10.52c1.61,3.53,3.69,3.43,5.26,2.83,9.27-3.56,17.6-4.52,26,3.29,4.93,4.61,8.24-.48,10.28-5.14C548.39,715.75,550.21,721,554.23,722.54Z"
            fill="#282a2b" />
        <path
            d="M512.74,821.05c-7.18,6.16-7,12.68-.42,19.2-13.93,7.5-27.25,14.87-37.73,26.13-5.69,6.12-7.43,14.76-13.57,21.12-3,3.15-6.67,4.93-9.62,7.81l-15.17.06-15,.35-.69-1.37c3.26-5,10.29-4,13.76-8.7a15.29,15.29,0,0,1,8.45-1.68c7.11.35,11.14-2.68,13.89-9.5,4.92-12.21,16.44-18.11,26.74-24.73,9.42-6,18-12.14,18.37-24.7,2.6-4.57,3.56-9.64-1.81-12.18-9.11-4.3-14-10.71-14.35-20.82-.07-2-2.19-3.7-2.45-5.94a5.87,5.87,0,0,1,.86-2.91c3.67-3.2,7-2.59,10.38.65A133.58,133.58,0,0,1,514.83,808C517.84,812.7,518.29,817.49,512.74,821.05Z"
            fill="#604a3e" />
        <path
            d="M541.1,751c4-2.92,1.11-5.85,0-8.78,4.31.3,6.49,2.65,6.51,6.93,0,3.4.68,6.32,4,8.19,2,1.16,5.51,2.76,3.16,5.4-2.51,2.82-6.28,1.54-8.17-1.52C544.56,758,541.14,755.34,541.1,751Z"
            fill="#23292c" />
        <path
            d="M695.34,786.45c-5.82-5.11-14.51-8.13-14.07-19.05C690.51,771.23,693.2,778.64,695.34,786.45Z"
            fill="#23292c" />
        <path
            d="M575.82,857.6c-.28,1.9-1.26,4-3.12,3.53-3.9-.88-5.55-4.37-6.21-7.89-.37-2,1.37-3.12,3.53-2.27C573.06,852.17,576,853.57,575.82,857.6Z"
            fill="#151a1c" />
        <path
            d="M717.92,820.73c-7.13-1.72-8.63-6.12-10.5-11.39C714.3,809.93,716.28,814,717.92,820.73Z"
            fill="#151a1c" />
        <path
            d="M372.06,871c1.4-9.91-7-8.12-12.15-10.19,2-3.51,5.42-5.67,9-4.24,6,2.37,8.37-1.7,13-5.48-14.69-.19-27.55-3.92-34-15.73-7.08-13-13.68-27.32-5.65-42.88l.06,6.68c6.7,8.51,10.68,18.38,14.22,28.47,1.37,3.92,1.33,8.69,6.14,10.61,3.83,2.41,7.83,4.3,12.48,4.3,5.59,1.74,10.86.34,16.07-1.65,8-1.11,16.18-1,23.87-3.95a19.56,19.56,0,0,1,3.27-.82c6.76-.94,13.63-.09,20.37-1.31,6.31.4,12.63.83,19,.81,4.23.43,8.32,1.12,9.82,6a5.77,5.77,0,0,1-2.28,4.32c-14.68,6.11-26.92,16.36-40.52,24.31-5.79,3.38-12.44,3.9-18,7.37a95.08,95.08,0,0,0-11.67,6.82c-7,3-1.8,11.44-6.87,15.25L388,900a12.62,12.62,0,0,1-2.53-2c-10.87-14.4-10.78-14.9,6-22.18,4.87-2.12,8.95-5.25,10.44-10.16.42-1.4-3.11-4.77-5.47-6.11-5.09-2.88-9.56-1.09-13.66,2.89C379.49,865.56,375.65,868.16,372.06,871Z"
            fill="#312c2a" />
        <path
            d="M488.62,696.38c-4.59-2.06-7.68-1.07-8.63,4.27-.7,6-3.22,10.49-9.89,10.93-7.67.5-14.62-1.22-18.78-8.42-3.05-5.28-3.31-11.2-1.77-17,1.47-5.49,4.94-8.09,10.61-5,3.14,1.72,6.14,4.78,9.65,1.08,3.13-3.29,1.11-6.83-.16-10.2a15.59,15.59,0,0,1-.69-6.46c.26-3.22-.4-7.14,5.23-5.24,3.44,1.16,7.12,1.85,10.15-1.3,4.5,2.32,10.8,2.28,12.27,8.67-2.76,3.33-5.62-4.13-7.35.36-1.56,4.05.84,7.69,3.75,10.69,2,3.1,4.33,5.11,8.39,5.75,4.91.78,9.8,2.74,9.05,9.48-2.69,6.44-9.34.93-13,4.35C494.16,699.16,491.32,698.08,488.62,696.38Z"
            fill="#5e4e47" />
        <path
            d="M543.31,716c-.92,2.79,4.18,6-.63,8.53-4.66,2.42-9.35,2.32-12.89-1.6-5.18-5.73-10.07-9-17.4-3-1.93,1.57-5.62.79-8.38,1.57-3.51,1-4.46-1.39-5.56-3.66s-1.29-5.18,1-5.64c7.46-1.49,11.35-9.3,19.5-9.84,7.57-.51,10.19-5.3,6.88-12.58-6-3.77-7.71-8.8-4.47-15.28,7.79,2.72,11.12,7.52,9.13,16.19-1.59,6.94-1.92,14.22,1.85,20.87C534.82,715.82,537.57,719.61,543.31,716Z"
            fill="#23292c" />
        <path
            d="M521.39,674.44c.15,5.49,2.33,10.38,4.47,15.28-4.7,3-9.25,6.54-15.41,4.34-2.1-4.62-6.18-6.94-10.65-8.27-3.8-1.13-6.62-2.58-6.79-7,5.08,6.21,10.17,1.38,15.19-.07C512.64,677.47,517,675.89,521.39,674.44Z"
            fill="#3b3e43" />
        <path
            d="M469,665.65c2.11,3.72,4.6,7.28,6.22,11.2,2.46,5.94-2.69,7.93-6.19,10.87-3.88,3.28-5.53.75-7.7-2.06-1.67-2.17-3.48-5.26-7-3.4-3.06,1.61-2.76,4.83-2.77,7.74,0,7.81.1,15,9.89,18.1,8.92,2.83,14.55.43,18.6-7.45q1.08,2.21,2.15,4.39c5.42,3.16,4.6,7.75,2.16,12-2.84,5-1.6,9.36,2,12.56,6,5.25,8.2,12.31,11.07,19.16,1.29,2.25,4.08,3.08,3.27,7.16-3.8,19,2.31,34.78,17,47.27,3.89,3.3,5.72,7.95,4.67,12.51-1,4.21-5.24,5.64-9.64,5.31,2.71-4.88,2.28-8.84-1.3-13.72-6.12-8.36-15.25-14-20.09-23.48-1.37-2.66-4.61.29-7-.09-4.09-6.74-6.51-12.76-.1-20.35,4.58-5.41.31-14.93-6.88-19.44s-13.52-4.76-18,3.79a5,5,0,0,1-3.48,2.34,9.48,9.48,0,0,1-3.05-.25c-9.4-2.6-18.15-5.65-16.81-18.33.25-2.41-1.59-4.88-3.3-6.73-7.46-8.1-10.07-18.11-11.46-30.33C417.87,699.84,418,704.61,417,709c-1.37,6-5.77,8.29-11,8.87-4.1.45-9.63,3.21-11.26-4,13.79-3,16-8.72,10.08-21.18-3.36-7,2.22-13.75,3.84-23.55,5.7,14.29,19.35,17.61,25.73,30.51,1.2-10.37,7.92-16,10.08-23.74.64-2.3,2.51-3.44,5.11-2.45C458.38,676.77,464.57,673.46,469,665.65Z"
            fill="#4c3d37" />
        <path
            d="M394.7,713.82c13.95,4.95,20.48.92,21.29-14.59.26-5.13.79-7.34,6.07-7.34,8.34,0,1.43,5,2.23,7.46,2.41,7.25,2.73,14.94,8.48,21.19,4.07,4.42,8.17,9.31,6.68,17.05-.53,2.75,3.71,8.47,9.34,8.09,2.79-.19,3.93,1.07,4.87,3.18-.58,4.6-1.88,8.95-7.58,8.56-7-.47-13.59-2.77-17-9.54-2.79-5.49-4.31-11.47-3.15-17.77-.33-1.44-1.15-3.65-2.08-3.53-13.39,1.77-26.45-5.88-40-1-6.59,2.38-11.61,7.11-17.77,10a4.41,4.41,0,0,1-4.12.07c.06-4.82,5.88-7.75,4.28-13.1-2-4-7.33-8.52-2.7-12.37,3.65-3,9.79-3.21,15.21-2.19C384.38,709.05,388.47,714.37,394.7,713.82Z"
            fill="#644d42" />
        <path
            d="M430.07,667c3.21.19,3.73,2.33,3.83,4.45.22,4.43-1.92,7.51-6.17,8.68a3.08,3.08,0,0,1-3.78-2.83C424.31,673,427.44,670,430.07,667Z"
            fill="#1d2225" />
        <path
            d="M556.4,643.65l-1,0H554.3c-8-1.94-16.32-1.54-24.12-5a26.61,26.61,0,0,1-8.73-5.84h0c-4.73-14.24-3.43-17.75,10-26.42-3.43-4-9.55-2.78-12.85-7-1.79-2.29-6.85-2.11-5.64-6.66,1-3.95,5.71-3,8.49-4.94,3.64-2.48,3.19,3.64,4.83,4.58a28.2,28.2,0,0,0,26.34,1.46c1.94-.84,3.89-1.65,5.83-2.47.23,2.11-.21,5.32,2.16,5.66,9.28,1.34,4.18,4.7.4,8.19,6.38.57,12.16-3.2,18.38,1.69-4.8,2-11.43,2.28-8.51,10.35.89,2.45-3.54,2.67-5.81,1a18,18,0,0,1-7.68-12.2c-4,4.51-.46,7.31-.67,10.24-.24,3.39,7.43,8.23-2.6,9.58-2.94.39-.06,4.52-.57,6.65C552.52,637,557.78,639.42,556.4,643.65Z"
            fill="#4d5355" />
        <path
            d="M361.9,735.64c5.7-3.7,11.37-7.42,17.09-11.08,10-6.39,20.6-3.08,30.93-1.52,4,.61,7,1.09,11.06-.91,5.77-2.83,5.7,4.6,8.61,7-1.8,1.72-4,1.45-6.13,1.13-10.15-1.52-20-3.11-26.72,8.05-2.39,3.94-8.05,5-12.69,5.37-10.46.77-14.37,7.89-17.84,16.26-7,16.82-4.53,33.7-1.07,50.67a37.1,37.1,0,0,0,5,22.48c1,4.27,6.53,6.67,4.9,12-5.32,1.34-9.2-1.57-13.07-4.47-7-3.52-6.66-11-7-16.67-1-15.78-2.45-31.41-6-46.82C343.11,760.15,350.93,747.4,361.9,735.64Z"
            fill="#885c43" />
        <path
            d="M348.94,777.17c9.61,13,7.32,28.48,8.24,43.11.46,7.26.93,14.11,4.79,20.38-2.27-.07-5.09-.73-5.36-2.81-1.83-14-11.42-25.09-14.3-38.66C346.31,792.39,346.36,784.4,348.94,777.17Z"
            fill="#5c4133" />
        <path
            d="M521.45,632.85c4.56-.47,8.34,7.43,13.49,1.26.35-.42,1.34-.3,2-.43.75,12.07,13.07,4,17.33,10-9.51.52-19.18-1.12-28.46,2.26C522.94,642.06,520.48,638,521.45,632.85Z"
            fill="#2e3a43" />
        <path
            d="M388.18,899.74c2.6-5.68-6.19-15.58,6.49-17.52,1.59,2.35.17,4.95.62,7.44,1.07,6,4,8.09,9.94,6,5-1.75,10.11-4.66,15.44-.68l.52.72C415,903.71,403.48,905.12,388.18,899.74Z"
            fill="#604a3e" />
        <path
            d="M877.71,576.36c8.45,4.3,17.2,6.86,26.72,6.11C893.11,592.5,885.69,582.71,877.71,576.36Z"
            fill="#2e2f32" />
        <path d="M886.75,590.33c12.09-3.48,20.13-.4,26.53,9.07Z" fill="#2e2f32" />
        <path d="M936.21,716.05c12.94-4.93,12.14,6.58,15.55,13l-1,0-1,0Z" fill="#6a5b54" />
        <path
            d="M748.51,815.77c-3.56-2.83-8.89-4-7.2-9.66.23-.76,2-1.88,2.43-1.65C748.07,807,748.05,811.64,748.51,815.77Z"
            fill="#23292c" />
        <path
            d="M650.14,661.59c-1.55.84-2.35,1.6-2.72,1.43-4.35-2-11.41-3.41-12.32-6.54-1.46-5,2.92-3.59,5.81-1.39C643.63,657.15,646.5,659,650.14,661.59Z"
            fill="#23292c" />
        <path d="M577.88,640.47l-12.67-7.06C573.06,630.64,573.06,630.64,577.88,640.47Z"
            fill="#23292c" />
        <path
            d="M930.3,732.38c-5.12-3.26-12.29-3-15.22-9.36-.73-1.55-2.21-3.24-.64-4.91,2.06-2.18,5.36-.25,5.56.72C921.31,725.23,928.87,726.2,930.3,732.38Z"
            fill="#23292c" />
        <path
            d="M731.89,775.11c12.07.79,20.29,8.89,29.72,14.55.93.56,1.22,2.42,1.42,3.73,0,.25-2.21,1.4-2.64,1.09C751.15,787.68,741.93,780.87,731.89,775.11Z"
            fill="#1e2223" />
        <path
            d="M569,688.7c9.14-1,10.84,6.76,16.31,8.51,1.61.52,1,2.45-.08,3.63-1.45,1.63-3.33,1.8-4.76.35C576.78,697.46,573.36,693.51,569,688.7Z"
            fill="#1d2225" />
        <path
            d="M904.29,621c8.16,2.84,15.26,1.82,20.92,6.14,1.55,1.18,4.28,2.46,3.17,4.89-.89,1.94-3.68,3.16-5.61,2.19C916.62,631.11,908.38,631.14,904.29,621Z"
            fill="#3c3733" />
        <path
            d="M497.4,748.8c-6.38-5.16-8.47-13.54-14.62-19.09-3.4-3.06-4.34-8.27-.61-12.69,3.37-4,2.05-8,0-12,4.85.56,7.88,3.19,5.59,7.94-3.68,7.65-1.5,12.06,5.24,16.72C499.39,734.14,497.28,742.07,497.4,748.8Z"
            fill="#3b3e43" />
        <path
            d="M488.62,696.38c3,.23,6.44-1.16,8.79,2,1.13,2.4,2.25,4.81,3.59,7.69C493.37,706.76,492,700.23,488.62,696.38Z"
            fill="#3b3e43" />
        <path
            d="M364,810.16c-1.56.39-4.05,1.93-4-1,.17-10.83-1-21.5-2-32.26-.75-8.14,5-15.5,7.32-23.35,1.89-6.37,8.47-12.5,18.13-12.59,6.9-.06,14.12-2.42,16.41-11.42,1-4.07,6.45-3.64,9.5-3.3,6.76.76,13.8.17,20.27,3-2.93,12.2.34,18.19,9.71,24.21,7.76,5,10.35-.72,14.37-4.53v0c9.85-.11,9.76,5.63,13.52,6.93,15.87,5.48,13.08,19.41,17,30.31,1.61,2.75,7,2.89,5,8.26-3.11,8.18,4.36,12.13,8.87,14.49,8.2,4.27,11.58,8.34,6.12,16.73-3.4-5.6-6.3-10.72-15-7.48-5.19,1.93-8.63-4-12.19-7.46-1.42-6.15-5.31-11.55-3.88-18.63,1-5-5-6.13-8-8.62-3.23-2.69-5,.57-6.48,3.19-.88,1.59-1.76,3.19-3.77,3.73-3.58-1.21-3.23-5.48-5.65-7.51-4.19-3.52-7.23-8.75-14.74-4.73-6.63,3.55-9.23-2.36-9.42-7.79-.32-8.84-3.46-17-4.79-25.89-6.26,7-15.29,6.07-22.71,7.75-11.8,2.66-18.6,10.53-25.71,18.34-4.69,5.15,2.19,11.74-.12,17.69C365.85,794.37,371.13,804.46,364,810.16Z"
            fill="#a7704e" />
        <path
            d="M477.8,810c5.95,1.61,9.49,9.09,18.63,3.42,5.28-3.27,7.58,6.21,7.71,12.17,1.38,21-18.73,23.45-29.61,33.61-6.8,6.35-15,10.68-16.95,21-.89,4.73-5.4,6.43-10.22,6.48-4.35,0-8.7.3-13.05.46l-.77-1.3c2.06-6,6.28-10,12.66-12.28-5.79-5.58-12,1.15-17.05-2.46-1.64-4.3,1.44-6.44,4.41-7.29,12.14-3.46,20-13.69,30.95-19l2-2.43c7.42-2.69,12.16-11.5,21.74-9.42-2-1.59-4.91-1-6.48-3.21,1.09-6,5.68-4.3,9.1-4.44-5.1-2.32-11.12-3.22-16.73-5.38C471.75,815.39,470.45,811.12,477.8,810Z"
            fill="#b68664" />
        <path
            d="M484.19,786.15c-3-4-6-12.71-5-16.84,1.51-6.17-3.79-5.1-6.49-6.4-4.07-1.95-10.32-.13-9.63-8.6.4-4.93-7.14-1.87-9.45-5.4,1.23-.66,3-1,3.6-2,6-10.81,11.79-12,22.26-5,3.76,2.5,5.8,9,13.21,5.46-4.1,4.92-10,8.88-2.4,14.43.39.28-.06,2.83-.43,2.91-13.49,3.05-3.93,12.72-5.55,19.12C484.3,784.56,484.25,785.35,484.19,786.15Z"
            fill="#705344" />
        <path
            d="M420.67,895c-4.63.5-9.29.47-13.58,3s-11.33,3.64-12.75.27c-1.83-4.31-5.57-10.93.33-16,2.33-4.33,7.27-4.39,10.87-6.64,1.9-1.32,4-.91,6.1-.75,3.21,6.73-4.43,7.24-6.79,11.33,10,1.53,19.77-10.55,29.18.15l.27.91C433.08,895.66,424.44,891.05,420.67,895Z"
            fill="#a57c5e" />
        <path
            d="M457.94,838.46c-6.25-.72-12.8,1.89-18.78-1.75-7.57.19-15.3-1.94-22.61,1.7l.06.1a2.07,2.07,0,0,1-2.76.22c-2.11-4.63-6-5.85-10.7-5.66-6,.25-11.19-1.93-16.29-5-12.59-7.61-16.26-23-8.11-35.36a10.11,10.11,0,0,1,1.3-1.74c5.47-5.34,6.91-18.75,15.16-16,9.71,3.2,20.23,10,24,21.72,1.87,5.83,6,7.93,11,10.73,11.05,6.17,24.17,8.72,33.08,18.84,3.31,3.76,3.94,6.66.37,10.21C461.94,837.61,459.55,836.94,457.94,838.46Z"
            fill="#e1c5ab" />
        <path
            d="M412.39,876.05l-6.85-.47c15.57-7.58,31.81-13.79,45-25.85a19.36,19.36,0,0,1,14-4.8c-7,7.75-14,15.25-24.67,18.2-4.13,1.14-8.49,3.29-10.59,7.83C424.51,875.58,419.45,879.11,412.39,876.05Z"
            fill="#795a45" />
        <path
            d="M457.94,838.46l4.48-2.07c5.37-5.81,11.66-8.84,19.71-6.57a74.07,74.07,0,0,1,9.57,1.23c.89.23,1.5,2.33,1.8,3.67.08.36-1.69,1.72-2.25,1.54-8.05-2.67-13.61,1.82-19.42,6.21-1.13.86-3.51.06-5.32,0C464.89,838.51,461.25,838.85,457.94,838.46Z"
            fill="#6a4834" />
        <path
            d="M414.69,838.13a6.3,6.3,0,0,1,1.92.38c-8.13,5.29-17.45,3.36-26.3,4.34-3.9.31-8.83,4.83-10.81-2.67C390.85,833.08,402.65,833.57,414.69,838.13Z"
            fill="#cb9b71" />
        <path
            d="M379.38,840.74c3.08,3.61,7.31,1.29,10.93,2.11-4.57,4.24-9.85,3.73-15.27,2.28-1.42-4.08-6.63-5.8-6.7-10.72,2.45-1.95,4.61-.39,6.82.57C377.24,836.4,379,838.05,379.38,840.74Z"
            fill="#a7704e" />
        <path
            d="M416.55,838.41c7.08-6.62,14.78-5.06,22.61-1.7C431.78,839.41,424.1,838,416.55,838.41Z"
            fill="#d5ad8a" />
        <path
            d="M374.94,836.55l-6.6-2.15c-5-7.45-8.22-15.2-4.36-24.24,1.55-4.13.62-8.56,1.36-12.62.59-3.22-.68-8.78,5.34-9.36a5.27,5.27,0,0,1,5.92-1.12c2.85,2.14,2.5,4.66,1.33,7.65-4,10.36-7.35,20.73-1.23,31.64C378.63,829.78,375.58,833.13,374.94,836.55Z"
            fill="#cb9b71" />
        <path
            d="M377.2,788.14l-6.52,0c-1-4.22-1.93-8.47-3.13-12.63-.61-2.14-1.88-4.62.15-6.06,9.84-7,15.36-21.08,30.77-19,1.83.25,4.28.49,4.13-2-.77-12.11,3.31-5.56,6.8-1.9,2,2.1,3.59,1.42,5.29-.69,2-2.45,4.3-4.6,7.42-7.87,2.29,12.58,4.82,23.63,6.11,34.82.54,4.74,2.78,5.05,5.49,3.78,10.12-4.76,18.13-.51,20.7,11.58,3.68-2.62,1.79-9.1,6.24-10.29,5.1-1.36,7.29,3.95,10.27,6.82,2.79,2.67,6.1,3.55,12.92,4.15-16.43,5.73-2.7,14.51-6,21.09-4.92,1.28-2.38,6.22-4.37,8.93-6.07,5.94-11.33,5.66-12.82-1.7-1.74-8.61-6.34-11-14.16-11.38-15.43-.79-25.13-11.41-34.07-22.14a65.93,65.93,0,0,0-12.78-11.37c-1.71-7.72-4.33-11.07-11.85-4.15-5.28,4.86-16.37,5.56-9.91,17.06A3.61,3.61,0,0,1,377.2,788.14Z"
            fill="#bd845a" />
        <path
            d="M377.2,788.14c0-.71,0-1.43-.05-2.14,2.24-6.41,8.11-10.06,11.79-15.43,2.8-4.07,6.8-3.52,10.18.08,6.85,1.71,11,6.07,15.8,11.47,9.84,11,20.23,23.46,38,21.39,7-.81,9.81,2.8,9.53,9.69-.37,9.2,4.44,9.26,10.94,5.76,8.29-1.86,14.76,3.81,22.54,5.12-3,6.59-10.61.75-13.84,5.74l-19.71,6.57c4.46-9.42-5.09-14.19-9-14.91-8.6-1.59-13.67-8.73-21.46-10.48-9.23-2.08-13.88-6.91-16.41-16.63-2.24-8.65-14.3-10-19.14-18-1.23-2-4.5-.37-5.21,1.78-3.67,11.08-16.54,17.52-13.41,32.84,1.36,6.64,3.39,11.05,7.91,13.3,7.37,3.68,14.45,8.85,24.38,5.26,5.86-2.12,3.23,5.43,4.59,8.53-11.75,1-23.71-.69-35.3,2.61l-4.44-4.2c-3.64-14.14-7.82-28.25,1-42.16C377,792.71,376.82,790.24,377.2,788.14Z"
            fill="#d5ad8a" />
        <path
            d="M412.39,876.05,429.25,871c4.44-1.2,8.83-2.71,13.35-3.52,4.68-.84,6.15,3.47,7.17,6.46,1.15,3.34-2.47,4.23-4.75,3.85-7-1.18-5.46,8.2-11,8.56a21.35,21.35,0,0,0-18.88.84c-3.15,1.61-6.57,3.32-10.34,2.23-2.32-.67-5.83-.29-6.25-3.39-.49-3.67,3-3.33,5.34-3.65C407.92,881.8,410.1,878.87,412.39,876.05Z"
            fill="#cda381" />
        <path
            d="M399.12,770.65c-4.91-1.42-8.87-1-10.89,4.69-1.86,5.3-7.06,7.43-11.08,10.66-7.43-5.5-7.58-9.9.7-15.41,3.88-2.57,11.42-1.63,11.29-9.27,4.05,0,9-1.44,11.95.37C406,764.71,398,767.13,399.12,770.65Z"
            fill="#cb9b71" />
        <path
            d="M422.91,690.75c-10.94-10.34-11.19-10.78-4-23.49,2-3.5-1-7.37,1.84-10.39l8.49-7.14.39,2.9c1,1.3-.64,6.08,3.73,2.76,2.43-1.84,3.65,0,4.95,1.63h0c1.4,2.31-3.44,13.74,6.13,4.15,3.19-3.19,7.51-1.62,11.35-2,.2.46.39.91.59,1.36-.41,5.64-4.26,8.46-9.07,9.12"
            fill="#2b2b2c" />
        <path d="M405.21,671.44c3.44-6.74,10.27-9.83,15.56-14.57,1.73,5.52,4.74,10.46-3,15.15"
            fill="#413f41" />
        <path
            d="M471.54,641,482,652.64h0c.24,5.13-4.34,4.84-7.21,6.48-6.33.74-12.66,5.29-19,.11v0c5-5.71,15.64-5.57,15.73-18.23"
            fill="#272a2d" />
        <path
            d="M440.51,678.89c-3.87-7.13-4.64-12,6.36-11.42,4.53.25,7.29-4,8.95-8.24l19.63-2.18a2.49,2.49,0,0,1,.33,2.52c-.61.67.17.21-.61.67-.1,1.38-2.25,4.81-4,5.32-5.7,3.74-4.63,6.4-2.06,12.16"
            fill="#383331" />
        <path
            d="M503.43,670.32c3.82-1.79,1.85-4.6,1-7.75-.55-2-4.91-9,3.82-7.68a7.87,7.87,0,0,0,2.08,8.41c1.42,5.63,5.86,7.85,10.84,8.9"
            fill="#202528" />
        <path
            d="M495.46,640.51c8.43-2.11,9.5,3.47,11.91,7.08.21.32-.91,2.24-1.52,2.3-6.55.68-6.17-5.76-10.39-9.38"
            fill="#22282d" />
        <path d="M510.32,663.3c-7.5-1.11-5.4-4.61-2.08-8.41C509.34,657.6,511.52,660,510.32,663.3Z"
            fill="#bdb4b4" />
    </g>
    <g id="frame">
        <rect width="1000" height="1000" fill="none" />
    </g>
</svg>