<!-- Copyright (c) 2022 - 2023 Jan Stehno -->
<svg xmlns="http://www.w3.org/2000/svg" viewBox="0 0 1000 1000"><title>blackgrouse</title><g id="blackgrouse"><path d="M452.6,374.73c7.27-3.27,12.41-4.27,20.38-5l1.69-.28c4.88-2.58,2.35,2.21.93,3.18l-.11.08c-6.25,4.91-10,11.7-1.56,19.4,3,2.72,7.94,5.44,5.69,11.27-.48.36-1.09.88-1.57.71-10.57-3.59-20.38-8.16-26.38-18.88-1.17-2.65-1.81-4.54-1.64-6.48C450.09,378.11,450.93,375.48,452.6,374.73Z" fill="#29231c"/><path d="M479.52,442c-10.89-1.61-18.4-7.51-27.2-13.65-1.82-1.31-2.19-6.27.55-10.74,5.63-6.68,10.93-9.76,19.34-11.09,1.39,1.35,1.49,3.16.17,4.19-3.1,2.41-4.35,5.41-5.41,9.2-1.66,5.92.62,9.84,7.11,9.94,2.17-1.26,4.06-3.1,6.73-3.32,1.19.1,2.29.33,2.4,1.85a7.74,7.74,0,0,1-2.68,3.1c-1.88,1.55-3.1,2.94-.56,5.13C482,438.37,481.83,440.39,479.52,442Z" fill="#312921"/><path d="M718.91,772c-2.47-.6-3.87,1.4-5.69,2.36-3.33,1.17-6.84,1.7-10.09,3.25-4.66,2.22-8.09.5-9.67-4.37a12.69,12.69,0,0,0-.45-1.74c-1.39-3,.23-6.65-1.85-9.25-2.55-3.18-5.42.87-8.44.18-4.79-1.1-9.48-5.85-9.65-11.45A66.06,66.06,0,0,0,671,737l0,.16c-2.65-3.45-6.54-.55-9.72-1.9-1.68-.72-3.89-.14-5.85-.14-5.89-4.07-10.88-8.82-10.92-16.67,0-8.24-6.22-12.72-10.83-18-3.15-3.63-5.12-7-3.56-11.84.62-1.93.64-4.28-.8-5.75-5.23-5.33-4.14-11.88-3.3-18.09.82-6-.12-11.82-.49-17.53a2.71,2.71,0,0,0-2.62.28c-1.51.83-2.91,2.52-4.85,1.32-2.1-1.29-1.78-3.34-1.21-5.37.27-.94.77-2.14-.14-2.8-4.88-3.58-1.08-5.79,1.34-7.86,3.19-2.73,7-4.57,10.64-6.67,1.6-.92,3.43-1.49,5.09-.28s1.66,3.2,1.08,4.94c-2.56,7.61,3.2,11.87,6.82,16.83,1.69,2.32,4.33,1,6.6.05,8.42-3.52,8.83-3.33,14.77,3.34,2.19,2.48,4.11,5.59,8.1,5.41a9.58,9.58,0,0,0,2-1.25,30.07,30.07,0,0,0,3.67-3.73c1.07-1.37,2.57-2.91,1.49-4.65-1.3-2.09-3.12,0-4.72,0a10.82,10.82,0,0,1-7.54-.8c-5-5.12-4.88-5.93-1.26-11.66,2.79-4.42,6.32-8.57,4.88-14.81-.5-2.15,1.31-4.79-.36-7.49-.78-1.27.69-3.43,2.14-3.87,5.23-1.58,8.35-5.66,11.74-9.43-.91-.47-2.15-.19-3.17-.82-1.26-.78-2.35-1.69-2-3.33s1.78-2,3.22-2.06c1.19-.09,2.38.23,3.58.16,2.5-.14,4.4-.86,3.59-4-1.15-4.55,1.42-7.36,4.2-10.51,4.38-5,8.61-9.18,16.06-8.3a30,30,0,0,1,7.59,2.05c.94-3.74,2.8-7.1,2.55-11-.12-1.93-.58-4.27-3-3-7.84,4-17.49,5.5-23.75,11-8.9,7.76-20.48,13.09-25.87,24.68a12,12,0,0,1-4,4.37c-1.16.84-2.51,1.64-3.83.62s-.94-2.66-.13-3.81c3.21-4.56,4.9-10.21,9.29-13.87,4-3.32,6.89-7.79,11.46-10.5a8.46,8.46,0,0,0,4-6.45c.39-3.66,1.75-6.94,2.86-10.36,1.89-5.8-.76-8.76-6.62-7.16-7,1.9-13.31,5.35-19.34,9.33a74.56,74.56,0,0,1-10.94,6.18c-1.59.7-3.73,2.09-4.89.31-1.35-2.08,1-3.47,2.29-4.87,1.59-1.68,4.28-2.15,5.21-4.64a3.33,3.33,0,0,0-4.47-.16c-4.25,3.47-9,2.16-13.72,2.19-4.33,0-6.24-2.25-7.31-5.68-1.14-3.64-.17-6.66,3.4-8.65,6-3.35,11.28-7.45,14.12-14.13,1.23-2.87,4.29-4.08,6.71-5.83,2.23-1.61,4.93-2.52,6.65-5-7.74,1.28-12.86,7.3-19.22,11.06a2.44,2.44,0,0,1-1.63-.27c-1.63-1.48-1-2.79.3-4.07a30.61,30.61,0,0,0,4.92-5.88c-3.75,5.39-8,9.74-15.54,9.26-4.59-.29-8.79,2.23-12.49,5.1-2.89,1.78-5.88,3.39-8.61,5.42A198.79,198.79,0,0,0,587,549.66c-4.25,3.54-9.21,5.59-14.35,7.23-2.19.7-4.74,1.55-6-1.63,2-4.53,6.79-4.31,10.29-6.28,3.18-.73,5.29-3.09,7.6-5.13,9.07-6.85,17.73-14.31,28-19.35,3.28-1.6,5-3.34,3.24-7.47-1.86-4.32.93-6.38,4.81-7.93A52.27,52.27,0,0,1,644,505.74c9.6.69,18.37-2.81,27-5.48-6.05,1.4-12,4.48-18.61,5.08-6.74.62-13.52.39-20.29.38-3.13,0-5.69,1.72-8.52,2.61-.75.24-1.6.57-2.23-.15a1.7,1.7,0,0,1,.37-2.61c5.18-3.27,7.56-8.52,10.21-13.68,1.25-2.43,4.15-2.89,6.64-4.29-5.84,2.48-10.82.83-16-1.87a11.13,11.13,0,0,0-10.92.32c-8.76,4.91-18.51,5.84-28.25,6.79-8,.77-15.92,1.8-22.32,7.44a4.28,4.28,0,0,1-1.54.9,210.72,210.72,0,0,0-36,14.24c-3.89,2-5,.59-4.08-4a9.26,9.26,0,0,1,2.93-2.26c10.42-5,20.82-10,32-13.24,6.57-1.9,12-6.86,19.29-7.62,5.34-.56,10.68-1.73,16-2,9.74-.51,18.32-3.24,25.32-10.33a9.94,9.94,0,0,1,7.73-2.77c11.9.87,23.3-2.39,34.92-3.8-7.46.92-14.82,2.4-22.24,3.55-2.75.43-7.37,1.72-8-1.31-.73-3.48,4-3.63,6.69-4.16,4.48-.88,9-1.48,13-2.61-2.57-.08-5.9-.67-6.23-4.24-.45-4.9,4.56-5.28,8-7.84-4.93-1.39-8.85.45-12.11,2.61-6.54,4.32-13.11,4.06-20,1.71-5.91-2.76-11.67.47-17.51.49-4.07,0-8.29,1.74-12-1.41,1.1-3.8,4.48-3.27,7.21-3.61,3.15-.38,6.33-.34,9.47-1,2.55-.52,2.74-1.85,1.75-3.86a4.34,4.34,0,0,1,.4-3.42c2.44-2,5.29-1.88,7.94-1a26.33,26.33,0,0,0,8.84,1c.22,0,0,.09-.57,0-2.68-.53-7.53,1.41-7.4-2.41.12-4,5-2.51,8-2.59,10.67-.28,21.6,1.44,31.53-4.3.83-.48,2-.61,2.25-2.69-8.78-1.13-13-10.14-21.46-12.63-4.44-1.31-4.72-4.22-1.68-7.8A10.15,10.15,0,0,1,638,409c1.06-.39,2.48-.73,2.17-2.33-.21-1.1-1.31-1.43-2.27-1.7a22,22,0,0,1-6.61-2.73c-1.75-1.16-3.13-2.6-2.75-4.91a4.18,4.18,0,0,1,3.63-3.53c5.19-.9,5.54-2.77,1.7-6.26-2.37-2.16-4.18-4.88-4-8.41-.13-5.45,3.41-6.32,7.7-6.26,16.39-1.92,30.33,4.46,43.63,13,1,.65,2.06,1.22,3.11,1.79,10,5.41,10,5.42,6.42,16.47-.48,1.49-.62,2.7.63,3.78,2.92,2.43,3.91,4.94.56,7.9a6.17,6.17,0,0,0-1.9,4.9c0,1.41.11,3.32-1.42,3.63-5.14,1.05-6.33,5.37-8.55,10a30.77,30.77,0,0,1,15.63-4.79c1.95,0,3.6-1,3.86-3.11.88-7,5.8-6.61,10.75-6.09,3.18.34,6.36,1.73,8.42-2.5.79-1.6,3.94-2.55,5.63-1.8a25.61,25.61,0,0,1,7.63,5.59c10.82,10.93,21.74,21.76,32.5,32.76a6.74,6.74,0,0,1,1.28,2l3.59,4.9c3.26,3.45,5.12,7.79,7.41,11.85,4.74,6.71,5.24,14.2,5,22.2-.32,10.22,12,26.21,21.86,29.86,1.83.68,4,.63,5.44,2.23,1.56,1.43,1.86,3.51,2.68,5.31,2.8,6.2-.74,11.72-7.66,11.43-3.55-.16-6.6.08-9.48,2.39-2.38,1.91-5.24,1.64-8,.62a21,21,0,0,0-13.47-.86c-2.91.85-5.41-.35-8-1.44-.47,2,.51,3.57,1,5.21,2.11,6.44,1.62,6.93-4.12,11-3.1,2.17-7.93,3.61-7.06,10.68,1.25-3.29,2.37-5.21,4.85-5.29a8,8,0,0,1,6.26,3.07,104.92,104.92,0,0,0,16,14.41c5.79,4.43,7.58,3.67,8.81-3.52a18.45,18.45,0,0,0-.6-8.29A15,15,0,0,1,791.82,560c1.74-2.92,4.19-4.18,7.53-3.51s5.1,2.95,5.08,6.4c0,4.16.34,7.45,5.14,9.59a9.6,9.6,0,0,1,5.24,9.3c-3.1,2.07-5.21.36-7.17-1.9-1-1.18-1.91-3-3.74-2.43-2.17.7-1.6,3-1.73,4.67-.32,4.11,0,7.87,3.57,10.87,2.51,2.12,2.76,5.27,1.64,8.32s-3.67,3.49-6.36,3.49c-4.27,0-8.51,1.68-12.82-.95-3.2-2-4.7.55-5,3.6-.25,2.62.89,5.14.74,7.76-.25,4.29-2.56,5.71-6.43,3.88a11,11,0,0,1-6.26-8.29c-1.32-6.85-7.74-9.94-11.21-15.21-.89-1.36-2.87-1.31-4.47-.76a63.14,63.14,0,0,0-10,4c-2.7,1.49-3.4,3.49-2.39,6.51,2.17,6.52-2.14,16-8.6,18.32-5.9,2.12-9.84,5.78-11.76,11.76-1.2,3.73-4,5.74-7.55,7.14-7.3,2.89-10.73,10.45-8.33,18,.42,1.34,1.41,2.68,1.22,4-1,6.66,2.12,10.14,8.3,11.46,1.46,4-2.65,4.65-4.2,6.8-2,2.73-3.95,4.83.5,7.42,5.15,3,7.61,2,8.46-4.2.4-2.86-1.8-5.85.52-8.55,1.2-.52,2.72-.49,3.34.39,3.54,5,8.92,3.94,13.83,4.59,3,.4,6.47,0,8,3.68-6.46,3.47-9.9,5.68-16.86,8.63-.26,1.91-1.74,1.71-1.66,3.83.1,2.62,3,2.94,4.94,3.53s2.57-1.42,3.37-2.74a22.1,22.1,0,0,1,1.88-3c.77-.9,1.65-1.94,3-1.44,1.09.42.9,1.62,1,2.61.48,7.5,5.62,11.17,11.55,14.2,1.75.9,3,.39,4-1.18s1.53-3.84,4-3.93c3.77,5.6,5.72,6.21,11.17,3.51,3,3,2.81,5.6-1.24,8.13a22.53,22.53,0,0,1-19.05,2.22A123.77,123.77,0,0,1,725.3,708.1c-12.9-8-25.89-16.3-36.42-27.65-5.35-5.76-12.78-7.77-19.69-10.69a5.93,5.93,0,0,0-4.66.26c-8.41,3.44-14.59,18.08-11,26.4a14.68,14.68,0,0,1,1.22,6.43c-.19,5,4.14,7.53,6.36,11.16,1.19,2,3.15-.3,4.49-1.33,3.18-2.41,6.54-3.82,10.58-2.45,3.65,1.23,5.62,3.47,3.48,7.22-1.81,3.17-1.58,5.54,1.2,7.88,2.46,2.08,2.52,4.7,1.61,7.67-.84,2.76,2.94,9.91,5.42,11,1.47.65,2.2-.35,3.06-1.14,3.19-3,4.92-1.47,5.91,2,1.32,4.62,2.3,9.34,3.56,14,1.84,6.74,4.4,8.92,11.12,8.14,6.53-.76,11,1,14.26,7.07,3.58,6.63,9.4,8,16.26,3.88,4.9-3,7.84-2.14,10.93,2.38s4.24,4.54,8.33.59a62.54,62.54,0,0,0,7.24-8c2.72-3.74,4.74-3.66,7.35-.06,6.1,8.45,13.15,8.74,19.93,1.08,2.71-3.06,2.52-6,1-9.42-.56-1.28-.93-2.78.69-3.69a2,2,0,0,1,2.69.56c3.41,7.29,10.5,8.43,17,10.52-3,4.59-6.95,5.2-11.14,1.93-3.19-2.49-5.2-1.43-7.41,1.2-2.83,3.38-5.94,6.51-8.77,9.88-4.57,5.45-10.72,4.49-13.69-2.27-.85-2-.88-4.79-3.62-4.92-2.34-.12-2.85,2.53-4,4.07-2.8,3.9-5.41,7.93-8.09,11.91-1.35,2-2.58,4.3-5.56,3.63-2.76-.62-4.42-2.6-5.47-5.12a10.26,10.26,0,0,1-.34-1.77c-1.79-8.32-1.79-8.32-8.69-4.07-3.86,1.47-6.17,5-9.44,7.24-3.57,1.66-5.47-.71-7.36-3.09C719.46,785,722.46,777.64,718.91,772Z" fill="#1b1613"/><path d="M830.6,828.49c-4.71-.42-6.46-2.83-4.72-7a3.63,3.63,0,0,0,0-2.76c-2.58-9.48-4.2-19-2.55-28.9.11-.64.36-1.57-.71-2-2.66.57-.57,4.36-3.57,5-1.68-6.76,2.94-12.92,1.86-19.52-.73-5.44,3.56-12.33,9.53-14.79,2.66-1.1,5-2.37,6.56-5-1.5,1-2.79,2.51-4.78,2.37a5.08,5.08,0,0,1-4.69-3.26c-2.06-6.5-7.31-11.52-8.06-16.83,1.76,4.28,1,10.66,4.67,16.52,3.85,6.18-.77,11.55-8.06,10.55-1-.14-2.17-.07-2.9-.63-7.68-5.79-16.73-10.4-18.84-21.15a14.45,14.45,0,0,0-2.82-6.55c-2.82-3.44-3.1-6.38,1.27-8.76a11.18,11.18,0,0,0,2.72-2.33c2.22-2.37,3.84-4.66.6-7.59a10.39,10.39,0,0,1-2.68-5.32c-.69-2.8-2.37-4.33-5-5.42a16.78,16.78,0,0,1-10.51-13.64c-1.07-7.25.73-14.65-.9-22-.55-2.5.92-5.36-1.5-7.74-1.42-1.39-1.14-3.36-.24-5.07,2.27-4.28,5.65-7.75,8.66-11.46,1.75-2.17,4.39-1.46,6.68-.54,3.47,1.38,6.89,1.82,10.45.26,3.25-1.42,6.23-.17,9.19,1.18,1.66.75,3.63,1.47,5-.19,1.77-2.15-.72-3-1.74-4.33-1.32-1.66-3.69-3.33-1.3-5.54,2.2-2,4.16-.18,5.57,1.49,3,3.58,5.83,3.83,8.79,0,1.58-2,3.83-2.51,6.28-3,5.85-1.15,6.56-3.77,3.42-8.62-4.56-7-10-13.46-13.56-21.15-.75-1.62-1.89-3.31-.51-5s3.18-1.44,5-1.32a5.23,5.23,0,0,1,2.87.77c11,8.48,24.18,14.13,32.57,25.94,2.23,3.14,3.54,6.24,2.07,10.05-.8,2.08-.79,4,1.51,5.14,3.42,1.63,4,4.09,2.58,7.42a9.22,9.22,0,0,0-.23,5.92,212,212,0,0,1,6,40,6.2,6.2,0,0,0,1.85,4.29c2.3,2.28,3.48,4.77,2.22,8.1-1,2.6.62,4.17,2.64,5.37a11.35,11.35,0,0,1,6,10.33c.06,4.17,2.67,6.5,6.47,7.65,3.56,1.08,5.91,2.69,3.36,6.88-1.32,2.18,0,3.6,2,3.94,5.71,1,8.15,6.92,13.36,8.67,1.29.43,1.64,2.13,1.87,3.58s-.73,3.55,1.47,4.08c2,.47,3.56-.78,4.58-2.28,2.59-3.79,6.57-5.78,10.16-8.25,1.55-1.07,3.54-2.64,4.68.62-.48,4.71-2.16,9.26-1.72,13.1-.48-3.42,1.16-7.55,1.68-11.83,2-2.28,3-6.16,7.33-4.57,2.14,4.31.29,8.46-.51,12.65-1.08,2.74-.77,5.62-.85,8.45-.07,3.35-2,6.63-.33,10,1.63,4.35,1.74,9,2.44,13.5a125.37,125.37,0,0,0,10.52,34.68c.58,9.58-.59,18.85-4.82,27.58-.79,1.08-1.43,2.65-3.11,2.13-1.32-.4-1.55-1.85-1.4-3,.55-4.36-1.05-8.67,1.73-13.2,2.12-3.44.5-8.43-.14-13.49.3,5.42.84,9.74-1,14.65a23.07,23.07,0,0,0,.61,16.88c1.34,3.12,2.6,6.39-.42,9.39-2,.16-2.44-1.61-3.31-2.83-1.61-2.66-1.56-5.78-2.09-8.72a15.84,15.84,0,0,1-.39,9,28.63,28.63,0,0,0-.69,2.91c-.39,2.46.72,5.75-2.3,6.92-2.62,1-4.13-1.86-6.09-3.08-4.26-2.64-6.4-7.08-9-11.08-2.33-3.59-4.7-5.93-9.22-3.3-2.68,1.56-3.63-.41-3.84-2.66a82.06,82.06,0,0,1,0-13.21c.17-2.55,1.79-3.82,4-4.73s3.53-2.83,3-5.28-2.66-2-4.42-1.87c-2.44.14-4.12-1.08-5.5-2.91-1.48,3.11-1.65,6.57-2.85,9.74a7.73,7.73,0,0,0-.3,4.71c1.92,7.79,1.87,8.45-4.72,13-4.13,2.84-8.14,5.47-11.08,9.79-2.38,3.5-6.73,4.08-10.73,4.49-3,.3-4.29-1.57-4.57-4.36-.24-2.39,0-4.81-.34-7.2-.36-2.93-1.13-5.55-4.55-6.25a7.11,7.11,0,0,1-4.35-3,3.68,3.68,0,0,0-4.09-1.67c-7.54,1.48-7.56,1.41-10-6.43-2.06-.82-3,1.43-4.65,1.82-1.86.43-3.83.83-4.72-1.19s-1.38-2.42-3.79-2C830.05,835.18,832.13,830.36,830.6,828.49Z" fill="#0c0b0a"/><path d="M848.46,352.66c1.51-5.2,6.89-8,8.18-13.35,3-1.39,4.42.87,6.07,2.61a10.55,10.55,0,0,0,8.61,4.57c1,0,2.24-.21,2.91.36,4.3,3.62,8.39,1.66,13.09.66,4.93-1.06,6.36-5,9.45-7.58a23.07,23.07,0,0,0,7.13-4.21c4-3.46,7.23-2.88,9.76,1.63,4.3,7.66,10,14.94,12.34,23.2,2.93,10.51,7,20.95,5.7,32.61-1,9-2.72,18.2-1.66,27.44a4,4,0,0,1,0,1.79c-2.41,6.32-3.3,12.39.48,18.77,1.46,2.47-1,5.76-1.18,8.75-.3,4.85-1.18,10,6,10.74,1.42.16,2.21,1.59,3,2.81,3,7.18,3.93,14.89,5.4,22.45,2.41,6.11,5.12,12.18,2.65,19-.06.16-.37.54.11.68.07-1.31,1-1.46,2-1.47,1.46.59,1.91,1.86,2.19,3.25-.41,5.54,1.88,11.37-1.69,16.58-2,.26-2.83-1-3.6-2.55a29.63,29.63,0,0,1,2.13,19.6,20.16,20.16,0,0,0-.09,7.78c2.35,14.44,2.09,29.19,5.22,43.53a12.57,12.57,0,0,1-.38,7.69c-.63,1.51-1.47,3-3.19,3.3-2.3.35-3-1.44-3.57-3.23-.13-5.87,2.15-11.88-1.05-17.56-2-3.48-2.18-7.55-3.21-11.28.09,14,4.22,27.58,4.67,41.58-.3,1.75-.3,4.11-2.63,4.05-2.72-.07-2.73-2.72-2.67-4.59.16-4.5-2.11-7.1-5.9-8.8a4.63,4.63,0,0,1-1.53-.92c-6.49-7.08-13.74-8.74-22.37-3.79-2.55,1.46-5.78,1.37-8.81.9-4.79-.76-8.6,1-11.58,4.72a19.32,19.32,0,0,1-3.41,3.35c-5.33,4.13-6.55,9.78-2.75,15.57,2.63,4,3,8,2.52,12.57-.92,8.14.34,16.38-.71,24.56-.26,2,1.45,3.26,3,4.14,3.12,1.75,4.58,3.91,3.79,7.82-.58,2.87-.29,6-.31,9,0,3.8.62,7.25,4.22,10,4.94,3.73,3.66,9.26-2.26,11.48-2.12.8-5.09.41-4.51,4.84,2.33-2.39,4.75-3.86,7.85-2.68a13,13,0,0,1,6.89,5.54c2.37,4.15,4.93,4.86,8.46,1.48,1.19-1.14,2.8-1.44,4.36-1.84,5.53-1.38,9.45-4.13,11.28-10.19,1.08-3.57,2.09-8.44,7.5-8.86,4.65,5.22,4.36,12,5.61,18.23.26,2.5-2.09,5.25.72,7.52a4.2,4.2,0,0,1,.06,2.53,15.49,15.49,0,0,1-12.44,7.24c-7,.56-14.14,2.8-20.6-2.11-1.82-1.38-2.76.25-4,1.32-3.48,3.15-10.45,1.67-12.55-2.57-1-2-.53-2.88,3.66-6-3.78.84-7.31,1.26-10.63-1.09-3.63-2.56-4-6-3.5-10.09.89-7.62-1.44-14.62-3.18-22-1.68-7.06-4.39-13.72-6.1-20.7-1.21-4.91-.87-9.72-.28-14.81.64-5.51-1.29-11.27-2.48-16.86-.24-1.13-1.48-2.21-1.33-3.3,1.36-10-6.35-14.27-12.06-19.84-2.67-2.6-3.84-5.9-5.39-9.21-2.42-5.19-7.79-10-15.06-10.11-2.14,0-4.44.17-6.3-1.38,2.24-3.2,6.07-4.48,11.74-2.59,5,1.67,10.21.32,15.43,2.19-4.14-7.76-3.92-16.63-9.23-23.88-5.57-7.58-6.67-17.14-7.75-26.4,1.83-1.2,2.32-3.2,3-5.09,9-12.5,13.56-27.23,20.2-40.89,5-10.24,9.89-20.69,14.35-31.27,4.59-10.89,9.29-21.88,14.19-32.71,2.8-6.2,3.78-13,5.91-19.47,2.77-8.41-7.12-17.79-16-16.85-9.68,1-18.11-1-22.64-10.93-1.52-3.33-4.65-2.46-7.26-3-1.45.74-3.13.27-4.62,1s-3.31,1.45-4.19-.45c-1-2.16,1-3.32,2.5-4.1a57.16,57.16,0,0,0,11.81-8.35,13.77,13.77,0,0,1-6.44.85c-4.56-.76-6.43-3.82-4.52-8.25C847.67,356.05,847.56,354.22,848.46,352.66Z" fill="#161314"/><path d="M830.55,587.63c5.45-.34,10.74.16,15.59,3,1.37.81,3,1.31,3.42,3.11.85,3.66,3.06,5.23,7.89,4.16-6.89,2.44-4.56,5-1.5,7.4,3.44,2.7,6.06,6.23,9.67,8.81,3.35,2.39,6.66,5.42,4.55,10.54a2.72,2.72,0,0,0,.09,2.33c4.74,5.28,1.32,12.82,5.07,18.37a3.45,3.45,0,0,1,.36,2.84c-4,9-1.85,16.95,3.9,24.36.48.61,1.24,1.56,1.06,2.05-3.07,8.09,3.65,14,4.5,21,.44,3.69-.69,7.7-.88,11.62-.34,7.28,4.53,11.27,11.55,8.77,1.53-.54,3.31-3,4.48-.56,1.35,2.86-1.86,2.78-3.48,3.43-1.36.55-2.8,1.18-3.09,2.57-.45,2.23,1.89,2.18,3.07,3,3.45,2.4,6.87,5,8.78-1.7.48-1.66,3.63-2.09,4-1.06,2.65,6.85,8.69,3.6,12.81,4,7.27.7,14.68-.69,19.74-7.25,2.17.59,2.42,2.46,2.51,4.2.2,3.95,1.07,7.78,1.6,11.68s-.15,7.09-4.26,8.62l-6,4.82a1.42,1.42,0,0,1-1.22-1.18c-5.16.08-8.39,3.7-11.68,6.88-1.38,1.34-2.33,3.25-4,4.37a6,6,0,0,1-5.76.39c-2.08-.9-.64-2.68-.43-4.17.17-1.13,0-3.28-.3-3.35-5.66-1.18-7.75-8.19-13.94-8.48-2.43-.11-3.77-2.29-4.83-4.07s1.26-2,2.14-2.91c2.64-2.68.87-3.88-1.73-4.26-5.87-.87-8.91-4.11-8.54-10.09.28-4.66-2.51-6.93-6.08-8.65-3.28-1.59-4.79-3.73-2.42-7.08,1.78-2.51.58-4.26-1.34-5.55-3.16-2.13-3.33-4.52-2.69-8.22a26,26,0,0,0-1.26-11.72c-1.77-5.56-3-11-1.94-16.83.39-2.12-.89-3.86-1.82-5.61-1.15-2.18-2.21-4.47-1.6-6.88,1.09-4.25,3.14-8.4-3.53-10.07-1.37-.35-1.73-3-.38-4.79,2.54-3.36,1.3-6-1-9.09a63.33,63.33,0,0,0-19.06-16.76c-3.41-2-7-3.73-9.65-7a7.89,7.89,0,0,0-5.71-3c-1.48-.1-3.43-.84-4.35.9-.74,1.38.55,2.62,1.24,3.79,4.72,8,9.51,16,15.62,23.09.93,1.08,2.32,2.69,1.15,3.59-2.42,1.87-4,5.93-7.44,5.22-3.31-.68-4.7.62-6.39,2.83-3.6,4.67-6,4.59-9.79,0a26.29,26.29,0,0,0-1.92-2.28,1.8,1.8,0,0,0-2.65-.26c-1.12.94-.44,1.79.27,2.51a15.87,15.87,0,0,0,2.69,2.37c1.78,1.11,3.84,2.29,2.35,4.61s-4,3.83-6.66,2.2c-4.45-2.7-8.57-3.19-13.43-.75-2.73,1.38-5.81-.64-8.53-1.82s-4.22-1.1-5.74,1.88c-1.42,2.77-3.93,4.95-5.78,7.53s-4.49,5.48.87,7.3c.9.31,1.36,1.06,1,1.84-3.44,7.45.68,15-.37,22.64-1.27,9.24,2.27,13,11.14,16.86a7.35,7.35,0,0,1,4.21,5.5c.62,3.08,1.28,6.33,5,7.5,1.35.43,1.89,1.45.83,2.75-1.88,2.31-3.35,5.62-5.78,6.7-5.84,2.59-4.22,5.21-1.19,8.66a8.84,8.84,0,0,1,2.34,5.36c.57,7.52,12.41,19.52,20,21,2.75.55,5.58.9,7-1.43a7.31,7.31,0,0,0-.42-8.49c-2.85-3.4-4.88-6.67-3.18-11.41.74-2.05-1.78-3.39-2.45-5.26s-.83-3.86,1.4-4.39c2-.48,2.78,1.41,2.68,3.1-.43,7.56,6.4,11.92,8,18.76.9,3.81,4.6,4,6.89-.27.59-1.1,1.53-2.87,3.17-1.83s1.34,2.83.07,4.14c-1.93,2-3.46,4.67-6.24,5.45-7,2-10.48,6.93-11.95,13.71-1-.92-1.26-3.7-3.57-1.48-8.8,1.08-15-2.8-19.27-10.78-.15,4.07,4,7.11,1.28,10.89s-5.74,7.09-10.47,8.49c-5.94,1.77-11.06-.41-13.58-6.21-.58-1.33-1.37-2.61-2.75-3-1.91-.53-2.15,1.4-2.78,2.5-2.34,4.08-6.26,6.69-9.24,10.16s-5.65,2.85-7.51-.79c-2.82-5.52-5.23-7.45-11.57-3.18-6.76,4.55-13.68,1.91-17.24-5.63-2.74-5.78-6.72-6.67-12.09-5.91-7.68,1.08-11.2-1.19-13.1-8.48-1.26-4.82-2.38-9.68-3.62-14.5-.27-1.08.19-2.67-1.33-3s-2.06,1-2.52,2c-1.81,4.27-3.83,3.31-5.65.13a14.9,14.9,0,0,0-4.09-5c-2.45-1.8-2.87-4.17-1-6.79,2.05-2.88,1.48-5.08-1.6-6.93-2.9-1.74-4.42-4.18-2-7.45,1.29-1.71,3.74-3.47,1.34-5.52a7.75,7.75,0,0,0-7.74-1.49c-2.2.83-4.38,1.8-5.8,4-.84,1.31-3.33,2.81-3.89,1.66-2.16-4.44-7.28-7-7.79-12.29-.34-3.55.35-7.16-2.82-10-1.65-1.47-.07-3.36.2-5.07a32.87,32.87,0,0,1,6-15.26c6-7.93,12.09-6.84,21-2.84,12.9,5.77,20.28,17.56,31.58,24.64,14.11,8.84,28.43,17.48,44.24,22.86a21,21,0,0,0,17.58-1.89c2.05-1.24,6-3.17,2-6.76-3.68-1.51-2.21-5.74-4.26-8.1-10.77-.81-17.51-6.64-21.53-16.55-1.28-3.14-5.22-3.36-8.39-3.79-4.47-.6-8.62-1.46-10.86-6.2-1.26-2.67-3.84-2.33-6.32-1.79-5.82,1.26-10.79-2-12.25-7.94-.38-1.56-.42-3.18-.67-4.77-2-12.72,1.93-18.93,14.42-22.45,2.59-.73,5.12-1,2.44-4.44-2-2.62-.8-4.23,1.9-4.69,6.55-1.13,11.14-5.13,15.12-10,1.83-2.26,4.22-3.55,6.75-4.82,5-2.55,5.55-4,3.09-9-1.27-2.57-.21-4.26,1.57-5.76s3.6-4.08,6.65-3.11c1.6.51,1.86,1.93,1.48,3.47s-.43,3.8,1.2,4.25c7.61,2.1,8.37,11,14.63,14.44,1.68.91,1.45,3.17,1.79,4.93.62,3.23,2.31,5.62,5.71,6.14s5.29-1.64,6.7-4.14c2.73-4.9,4.27-10.34,6.6-15.44,3.07-6.75,5.74-7.69,11.6-3.09,2.24,1.76,4.12,2,6.81-.14-6.67-5.19-9-13.23-14.24-19.23a6.06,6.06,0,0,1-1.11-5.13c.63-4.22,2.79-4.66,6.53-2.84,6.47,3.16,12.71,7.43,20.48,6.75A2.48,2.48,0,0,1,830.55,587.63Z" fill="#14100f"/><path d="M830.6,828.49c.92,1.71,1.83,3.42,2.79,5.22,2.48-.3,3.21-3.6,5.84-3.57,1.36,2.11-2.21,5.27,1.12,6.35,2.39.77,4.48-1,5.81-3.24.49-.83,1-1.91,2.23-1.39,1.05.43,1.18,1.5,1.3,2.51a20.73,20.73,0,0,0,.61,4.71c1,2.62,2.1,4.91,5.54,2.2,3.16-2.5,6.19-3,7.52,2.17a2.94,2.94,0,0,0,2.22,1.69c7.61-.4,6.1,5.49,6.92,9.84.52,2.76-1.79,7,1.75,8s8.64.09,10.31-3.1c3.82-7.25,11.86-9.11,16.66-14.87,1-1.17,3.06-1.83,1.26-3.69-5.26-5.42-1.46-11.48.72-15.67,1.45-2.8-4-4.49,0-5.23,2.48-.46,3.49,3,5.71,3.91a4,4,0,0,0,2.27-.17c2.69-.7,5.86-1,6.12,2.43.22,3.05.09,7.23-4.41,7.89-2.59.38-3.33,1.53-3.29,3.91.08,4.77,0,9.54,0,14.51,7.84-4.06,8.49-3.93,13,3,3,4.65,5.7,9.54,10.83,12.36.92.51,1.29,2.28,2.75,1.64s.78-2.08.91-3.2c.23-1.93-.6-4.05,1.07-5.71,2.43,2.37,1,5.32,1.28,7.92,1.5-2.35-2.51-6.83,2.84-7.9a52.15,52.15,0,0,1,4.11,11.83c1.51,6.16,2.5,12.4,6,18.12,3.33,5.43,2.12,12.07,1.78,18.27-.07,1.33-.24,3.14-1.92,3.35-2.1.25-1.61-2.27-2.48-3,1.31,7,4.7,14.22.11,21.51a1.62,1.62,0,0,1-1.51-.88c-2.18-5.83-1.77-12.07-2.92-18.64.89,7.65,1,14.85,3.62,21.66.85,3,1.92,5.94,1.47,9.14-.6,1.93-1.72,4.9-3.56,1.65-4-7.15-10.28-6.18-16.25-5-6.22,1.18-10.52,5.45-12.88,11.44-.61,1.55-.06,4.06-2.81,3.69-2.18-.28-2.32-2.3-2.83-4.08-1.5-5.25-4.14-6.59-9.36-5-2.22.67-4.13,2-6-1.22-2.3-3.93-6.9-2.51-8.75,3-1.58,4.76-4.61,6.1-9.05,6-3.65-.08-6-1.54-6.86-5.33-.41-1.9-.58-4.4-2.94-4.78s-3.09,2.18-4.41,3.56c-1.8,1.89-2.78,4.4-4.44,6.4-2.44,3-5,4.17-8.74,1.67-4.48-3-9-5.46-12.42-10-4.24-5.69-8.93-4.86-12.28,1.43-.37.71-.58,1.86-1.24,2-5,.78-8.47-3.74-13.27-4.13-1.87-.14-1.87-2.29-1.49-4,.46-2,1-4.08-1.19-5.36s-3.78.29-5.4,1.43-2.92,2.09-4.47,3c-2.78,1.65-5.21,1.83-7.12-1.35a11,11,0,0,0-6.5-4.94c-5.21-1.6-5.68-3.31-2.85-8.29.83-1.45,3.13-2.81,1.55-4.63-1.74-2-3.61-.07-5.33.78-5.2,2.58-9.59,6.45-14.59,9.38a25.36,25.36,0,0,1-8.92,3.28c-3,.48-6.51-.2-7.16-3-1.43-6.1-6.55-7.05-10.8-9.17-3.71-1.86-7.26-3.3-3.68-8.26.35-.48.69-1.42.38-1.66-3.85-3-2.52-8.61-5.76-11.62-3-2.81-2.55-4.7.53-6.5s3.43-3.51.23-5.62c-2.7-1.79-4.24-4.33-3.33-7.7.87-3.21,3.81-3.83,6.45-4.7s5.42-.7,8.21-1.23c-2.2-.64-5.57.3-5.66-3-.09-3.06,2.84-3.73,5.27-3.6,16.12.81,30.18-5.67,44.49-11.86,3.85-1.66,8-2.69,11.6-5.09,8.68-6.22,19.34-8.21,28.5-13.56C828.91,834.31,831.42,832.86,830.6,828.49Z" fill="#1f1b19"/><path d="M796.91,849.92c-3.25,6.45-10.39,6.3-15.75,8.63-12.84,5.57-25.93,11.27-40.59,9.73-1.59-.16-3.88,0-3.91,1.82-.06,2.87,2.63,1.44,4.14,1.72s2.79.11,4.18.23c.31,0,.59.43,1.41,1.07a16.14,16.14,0,0,1-8.29,2.33,14.92,14.92,0,0,0-5.83,1.06c-2,.77-4.4,1-4.71,3.84s1.16,4.43,3.32,5.86c5.92,3.93,5.87,4,0,7.46-1.11.66-3.08.83-2.79,2.64.32,2,2.2,2,3.8,2.06,2.06.12,3.45,1,1.56,2.86-3.29,3.24-.63,5.46,1.48,6.61,3.85,2.12,3.24,3.77.49,6.08-2.1,1.77-2.06,3.62.71,4.31,3.37.85,5.91,3.29,9.13,4.29,2.5.78,4.31,1.3,4.11,5s3.21,4.49,6.53,4.09c5.35-.66,9.86-3.53,13.75-6.76,3.59-3,7.9-4.53,11.46-7.4,2.26-1.82,4.48-1.24,6.31.88,2.07,2.38-.27,3.52-1.46,4.95-4.38,5.25-4.24,5.62,2.4,7.74a8.91,8.91,0,0,1,5.59,5.13c1.36,3.73,3.14,2.79,5.28,1.3s4.14-3.11,6.19-4.7a4.38,4.38,0,0,1,6,.07c1.88,1.52,3,3.25,1.53,5.68-2.05,3.39-1,4.65,2.8,4.47a6.16,6.16,0,0,1,3.39.92c3.31,2.11,6.31,6.32,7.3-2.2.5-4.22,10.88-4.11,13.55.93,3.23,6.11,9.49,7.46,13.89,11.53,2.11,2,3.62-.42,4.92-1.77,2.49-2.59,3.23-6.49,6.29-8.67,1.63-1.17,1.52-4.86,4.57-3.75,2.39.87,3.29,3.38,3.9,5.75,1.31,5.1,5,7.21,9.81,5.33,1.69-.66,3.25-1.67,3.07-3.9-.47-5.75,4.37-6.6,7.91-7.63,3.74-1.09,5,1.85,4.08,5.45,4.32-.46,6.88-4.84,12-1.27,4,2.76,2.41,7.11,5.47,11.36-.51-9.57,9.56-17.92,16.16-18.12s13.9-1.89,16.38,7.28c.16-.09.41-.16.46-.3a7.31,7.31,0,0,0,.3-1.16c4.84,3.2,3.72,8.45,3.55,12.78-.22,5.71-.52,11.44-.71,17.16a9,9,0,0,1-.91,3.41c-.71,1.26-1.67,2.26-3.23,2.11s-2.1-1.58-2.48-2.92c-.42-1.53-.26-3.15-.7-4.66-.83-3-.57-6.17-.7-9.27,0-.81-.2-1.36-.16-.56,0,.08-.18.17-.27.32-.09,1.46-.05,2.87-.1,4.27-.19,6.23-.2,6.26-6.42,5.64a4.86,4.86,0,0,0-3.86,1.29c-7.21,6.52-15.72,5-23.67,2.91-7-1.82-13.39.53-20.07.47-2.22,0-3.52,2.45-4.93,4.12-2.62,3.13-5.59,3.57-9,1.36-2.34-1.53-4.78-2.89-7.1-4.46-5.77-3.89-9-3.7-14.56.54-3.07,2-6,1.62-8.85-.49-5.61-4.16-12.24-6.72-17.58-11.28-1.61-1.37-3.05-1.19-4.91-.62-11.54,3.52-19.12,1-25.38-9.22-2.33-3.8-4-4.12-7.89-2.23-8.52,4.15-14.52,1.55-19.62-6.8-2.19-3.59-4.85-7.63-10.36-6.16a19.16,19.16,0,0,1-3.25,1.26c-10.13,5.72-18-2.83-27-4.37-2.41-.41-2.6-3.25-2.51-5.56.18-4.11-1.64-6.45-5.85-6.75-2.87-.19-5.23-1.87-7.83-2.85-1.88-.71-4-1.58-5.83-.86-10.64,4.31-15-4.55-18.5-10.62-5.61-9.8-8.75-21-12-32-.86-2.93-2-6.63,3.25-7.68-2.9-.66-5.3-1.64-6.85-4.21-1.76-2.93-1.35-5.29,1.21-7.4,1.69-1.39,3.47-2.62,4.71-4.55,3.67-5.75,3.72-5.71-2.26-8.75-1.88-.95-3.5-2.21-3.16-4.58s2-3.33,4.25-3.42c1.55-.06,3.24.49,4.5-.93,1.5-1.68,2.1-5,5.21-4,3.42,1,6.61,2.77,8.59,6a9.27,9.27,0,0,0,1.73,2.43c4.93,6.29,8.25,14,16.4,17.35a55.53,55.53,0,0,0,16.08,3.89c22.07,2.2,42.56-4,62.79-11.69C794.26,850.76,795.59,850.36,796.91,849.92Z" fill="#242021"/><path d="M690.32,409.4c-4.15-2.36-1.53-5.09-.32-7.62,3.3-6.92,3-7.8-3.82-11.39-7.35-3.85-14.46-8.12-21.91-11.86-8.69-4.36-17.59-4.08-26.67-4.12-1.11-1.58-2.82-1.32-4.28-1.11-2.16.32-5.44-.78-6.11,2-.62,2.61,2.86,2.58,4.4,3.88-.73,4.48,2.51,6.73,5.23,9.21,1.12,1,3.28,1.4,2.7,3.43a4.4,4.4,0,0,1-4,3.08c-2.26.24-5.45-.72-5.87,2.6-.49,3.79,3.5,3.69,5.62,5.21a1.8,1.8,0,0,0,.55.24c2.74.72,7-.08,7.25,3.76.28,4.08-4.14,3.13-6.61,4.39-1.74.88-3.7,3.2-3.8,5-.11,2,2.74,2.57,4.68,2.86,2.48.37,4.85,1.16,6.27,3.13,3.22,4.47,7.54,6.89,12.72,8.26,1.58.42,3.83,1,3.61,3.36-.2,2-2.38,1.61-3.67,2.33-11,6.2-23,4.93-34.82,4.68a41.79,41.79,0,0,0-4.19.1,9.19,9.19,0,0,0-2.15.9c4.3,3,9.28-.11,14,2.95-8.18,2.43-15.4-1.24-22.6-.35a3.36,3.36,0,0,1-.84-3.33c.82-2.72,2.82-3.28,5.43-3.56,7.48-.8,14.59-3.23,21.67-5.62,1.41-.48,4.59-.29,3-3.61-3.74-2.94-8-4.92-12.22-7-5.63-1.66-11.47-2-17.24-2.8-.79-.13.16,1.34,0,.56,0-.18.1-.31.4-.24,3,.76,6.88-.91,8.77,3.08.41,2.58-1.69,3.61-3.1,5.07-2.79,2.19-5.06,4.21-5.7,8.45-.5,3.27-5.18,5.4-5.21,9.67a4.71,4.71,0,0,1-1,1.49c-8,8.62-17.05,8.14-26.65,3.23-7,.35-13.31-3-20.25-3.23-5-.15-9.68.18-14,2.79-8.23-1.13-16.56-1-24.82-1.87-4.72-.15-8.31-5.1-13.51-3.18-4.71-2.43-9.83,1.32-14.56-.95l.12,0c-5-7-2.9-12.77,6.16-17,2.63-.57,5.63-.6,6.17-4.26a6.37,6.37,0,0,1,.44-1.59c4.13-5.66,10.82-1.91,16-4.26,1.57-.72,2.23,1.75,1.22,3.43s-2.67,2.36-4.26,3.18a46.24,46.24,0,0,0-7.72,4.54c-1.34,1.05-3.67,2.09-2.59,4.1s3.17.63,4.82.1c.75-.24-.21,0,.54-.23,2.12-.81,5-3.61,6.34-1.3,1.83,3.05-2,4.5-4.08,6.11-2.61,2,.64,1,.77,1.53,2.32,1.63,4-.87,6-1,7.29-2.34,13.43-6.8,20.44-10.84-1.68-.35-2.68-.08-3.61-.45a2.6,2.6,0,0,1-1.35-2.07c4.34-5.46,10.64-7.67,15.61-5.39,1.81.82,3.87,1.71,4,4s-1.76,3.43-3.57,4.34c-2,1-4,1.81-6,2.78s-3.87,2.07-5.83,3.25c5-1.63,9.22-2.46,15,.25,4.79,2.25,12.51,3.21,18.37-.78,7.93-5.41,16.28-9.15,26.16-8.39a5.07,5.07,0,0,0,3.9-1c-1.25-1-2.69-.72-4-.6-13.1,1.2-25.7-2.62-38.55-3.82-2.18-.2-5-.72-4.34-3.65s3.5-3.94,6.25-2.91a70.88,70.88,0,0,0,14,3.2,28.29,28.29,0,0,0,12.45-.35c.58-.17,1.26-.65,1.71-.46,8.78,3.56,17.32-2.3,25.07-.75a38.72,38.72,0,0,1-12-1.45c-2.92-.95-4.63-2.65-2.7-5.8,1.21-2,2-3.87,1.31-6.2-.25-.79-.2-2,.41-2.25,7-3.21,5.27-10.68,7.78-16.05,1.37-2.93,3.66-3.48,6.33-3.49,2.39,0,3-.29,3.72-3.31.92-4.06-.84-9,3-12.36,1.65-1.45,0-2.39-1-3.35A56.77,56.77,0,0,0,604,347.19c-17.76-8.92-35.31-18.38-55-22.41-5.26-1.08-10.77-1.5-15.93.54-3.05,1.19-5.92.1-8.86.29-7.08.46-13.57,3-20.06,5.58-.75.3-1.86.65-2,1.26-1.46,8.09-9.26,10.91-13.54,16.65-2.41,3.24-2.4,5,2.23,4.88,1.4,0,3.25.37,3.23,2,0,2-.53,3.26,2.06,1.6,1.16-.74,2.81-1.17,3.78.31,1.12,1.71-.13,3-1.3,4.15a66.17,66.17,0,0,1-10.24,8.28c-3.85,2.4-5.62,5.91-7.49,9.68-1.63,3.28-.24,3.94,2.62,3.86.6,0,1.19-.12,1.79-.16,1.45-.09,3,0,3.57,1.53.82,2.31-1.83,2.06-2.67,3.18,2.63-.43,5.5-4.67,7.57-1.38s-2.63,4.07-4.49,5.83c-2.88,2.73-2.83,5.73.26,8.81,1.65,1.64,4.57,2.43,4.65,5.15.08,3.06-3.13,3.12-4.93,4.51-.76.59.85.82,1.17,1.41a2.74,2.74,0,0,1,.38,2.4c-1.4,2.11-3.25,3.26-5.11,3.26a4.43,4.43,0,0,1,3.72,3c-1.29,4.39-5.48,4.56-8.74,6.07l-6,3.61c-2.28-3.06-7.49-5.15-6.11-9.4,1.31-4.05,1.56-9.29,6.38-11.7,2.33-1.15,3.93-3.29,5.78-5,2.06-1.94-.57-1.93-1.43-2.61h0c.93-4.87-3.34-7.12-5.7-9.78-9-10.16-7.88-19.54,4.36-24.57,1-2.31-.37-2.54-2.18-4-.2-2.61-.09-6-.7-8.53-2-8.25.52-12.81,8.5-15.73,1.84-.67,3.92-.79,5.26-2.48a6.41,6.41,0,0,0-2.51-5.81l-1-1.17c-1.23-3.48-.69-7.14-.95-10.69-.28-4,3.4-7,9.08-7.81a52.36,52.36,0,0,1,14.31-.09c10.34,1.38,20.28,1.6,30.51-2,11.89-4.22,23.19,1.58,34.15,5.29,23.48,8,44.8,20.48,65.73,33.61a19.61,19.61,0,0,1,6.36,6.26,20.17,20.17,0,0,0,12.61,9.28c6.64,1.8,11.88,6.35,17.58,9.93a97.75,97.75,0,0,0,8.7,5.18c5.56,3,11,6,15.37,10.8,6.51,6.15,5.5,11.76-2.89,15.11C693.58,406,692.3,408.09,690.32,409.4Z" fill="#27211b"/><path d="M758.66,939.31c4.57-1.48,10.21,1.44,12.75,6.62,4,8.17,10.78,10.54,18.53,5.54,4.35-2.8,5.74-1.73,7.82,2.35,5.18,10.18,14.34,13.59,24.63,9.37,2.73-1.11,4.19-.28,6.34,1.24,6.14,4.34,12.62,8.19,18.87,12.38,2.09,1.39,3.81-.13,5.71-.16.87,5.16-1.54,7.9-6.19,6.59-3.8-1.07-7.14-3-11.42-.83-2.51,1.29-2.47-1.67-2.5-3.37-.15-9.46-6.71-13.63-14.85-9.38-1.07.56-2.24,1.61-3.28,1.3-5-1.51-8.77,1.46-13,3-4.67,1.67-6.38,0-5.23-5,.55-2.36,1.18-4.65.73-7.1-1.21-6.56-4.29-8.08-10-4.68-2.83,1.68-5.56,3-9,2.34s-6.57.85-7.76,3.43c-2.89,6.25-7.11,6.37-12.43,4.13l-8.13-1.27c-2-.91-4.45-.82-5.9-2.85-5.09-5.17-12.25-7.73-16.87-13.5-2.26-2.83-4-6.45-8.34-6.56-10.92-5-22.9-6-34.21-9.3-22.66-6.67-37-23-46.8-44-2.79-6-5.42-12.69-1.63-18.21s3.6-10.84,3.82-16.68c.19-5.18,1.77-10.38,7.06-12.24,5.12-1.81,9.73.62,13.39,4.52,1.78,1.88,3.48,3.85,5.14,5.84.86,1,1.4,2.89,3.1,2s.55-2.57.19-3.79c-2.37-8-1.37-15.79.9-23.57a15,15,0,0,1,6.82-8.76c6.45-4.05,11.21-2.84,15.54,3.49,4.07,5.95,3.13,13.1,5.25,19.48-2.35-1.71-4.79-3.32-7.05-5.15-3-2.44-5.59-4.79-6.59,1.61-.39,2.54-2.61,2.55-4.77,1.69s-4.25-.84-4.76,1.79,1.62,3.3,3.68,3.69c1.16.22,2.36.29,3.51.55,3.37.75,4.47,1.87,1.54,5-3.14,3.36-4.28,8.28-9.11,10.51-2.35,1.08,0,7,3.05,7.71a1.19,1.19,0,0,0,.59,0c3.4-1.08,5.55.88,5,3.71-.75,3.6-3.46-.56-5.42.25A23,23,0,0,0,680,885.25c3.38,6.83,5.63,14.11,7.78,21.25,1.92,6.39,8.26,8.43,10.62,14,.62,1.47,3.36,1,5,.14,4.61-2.36,8.73-1.07,12.78,1.41a11.06,11.06,0,0,0,5.06,1.61c5.48.42,7.85,3,6.84,8.34-.71,3.74.82,4.45,3.91,5,4.27.71,8.66,1.26,11.94,4.77,1.57,1.68,3.64,1.4,5.53.36a11.6,11.6,0,0,1,6.87-1.61c1.19,2.48-.48,4.67-.72,7-.32,3.24,0,6.19,3.53,7.41,2.94,1,5.07-.66,6.53-3,1.94-3.07.77-5.68-1.6-8.05C762.34,942.22,759.54,941.89,758.66,939.31Z" fill="#2d2929"/><path d="M486.52,443.24c4.86-.35,9.68-3.46,14.57-.14,2.46.3,4.87.2,7.14,1.88,1.57,1.16,3.89,2,6,.53,4.59,2.08,9.45.19,14.22,1,3.58.59,7.27,1.12,10.94,1.44,1.55,1,2.5,2.2,1.11,4a6.19,6.19,0,0,1-4.62.73c-9.48-1.43-18.95-.39-26.72.21,9.45-2.35,20.61,0,31.76-.24,1.21,0,2.51-.21,3.49.48,2.64,1.85,4.47,2.8,6.07-1.46.87-2.32,4.22-1.95,6.54-1.56,4.7.78,9.51,1,14,2.79,3.66,2.76,2.84,5.31.24,8.56-4.11,5.13-11.26,6-15,11.55-1.33,1.95-3.32,3.45-4.71,4.84,3.85-3.12,7.06-7.5,11.6-10.64,7.52-5.22,15.54-3.67,23.49-2.73a46.52,46.52,0,0,0,22.13-2.39c-3.09-2.68-3-4.57,1.13-6,2.6-.89,5-1.41,7.39.23,9,3,16.51-1.08,24.11-4.89a9.62,9.62,0,0,1,9.17,0c.89.45,2,.93,1.82,2.07a2,2,0,0,1-2.25,1.56,8.71,8.71,0,0,0-6,2.21c-1.22,1-3.17,1.48-2.22,3.56a4.18,4.18,0,0,0,4.3,2.66,21.52,21.52,0,0,0,2.85-.77c1.47-.36,3.1-.36,3.29,1.45.14,1.41-1.42,1.58-2.62,1.81-6,1.18-12,2.41-18,3.6-1.36.26-2.75.38-3.9,2.17,12.07,1.41,23.28-4.55,35.17-3.1-.62,2.87-2.74,2.09-4.29,2.13-12.3.29-24.17,4.43-36.61,4-2.94-.09-5.52,2-8.14,4.67-4.6,4.73-11.5,7.45-18.2,8-9.11.75-18,2.15-27.06,3.54-6.22,1-9.74,6.51-15.92,7.43-10.91,1.63-20.06,8.15-30.15,12.1-3.12-.26-6.36,1-9.34-.67-1.78-1-4.36-1.4-4-4.42,1.18-1.53,3-1.77,4.65-2.4,3.87-2.7,2.39-4.35-1.08-5.61-2.82-.63-5.83-.54-8.33-2.3-3.16-4.68-3.67-9.86-3.63-14.9-1.79,1.07-4,3-6.75,4.22-1.34.59-2.85.8-3.85-.47-1.31-1.65-.26-3.11,1-4.15,2.62-2.14,5.36-4.15,7.86-6.48-3.06,2.36-5.76,5.26-9.59,6.4-1.37.41-2.9.72-3.88-.53s-.19-2.72.74-3.78c1.43-1.64,2.74-3.39,4-4.61-2.44,1.07-2.92,6.51-7.18,4.67-2.25-1-1.18-3.85-.14-5.95-1.47,1.27-2.86,3.51-4.8,2.09s-2-4.31-1.85-6.68c.15-2,1.66-3.47-1.52-5-2.49-1.22-.88-4.09,1.31-5.12,4-1.88,6.36-5.32,9.1-8.45Z" fill="#2a231d"/><path d="M758.37,967.11a11.18,11.18,0,0,1,5.28.55c1.83.78,2.63.12,3.47-1.83,2.76-6.46,6.16-8.27,13.25-7.37,2.29.3,3.66-1.08,5.39-2,3-1.56,5.93-5.45,9.43-2.42,3.75,3.27,5,8.05,3.92,13.14-.25,1.15-1,2.17-1.4,3.31-.78,2.42-.08,3.64,2.56,2.62,2-.78,4.25-1.44,5.83-2.81,2.1-1.8,3.91-2.49,6.37-1s4-.14,5.85-1.45c5-3.67,16.61.94,17.76,7,.45,2.37-3.21,3.83-1.22,7,3.2-4.48,6.78-2.84,10.63-.86,5.11,2.64,6.51,1.72,7.82-4.44,4.23-5.3,10-6.08,15.29-2,.79.61,1.38,1.47,2.18,2,8.2,6,8.22,6,15.15-.91,1.75-1.75,3.34-3.31,6.19-2,4.38,2,8.18-3.25,13-.89,5.66,2.77,12.23,1.29,18.28,2.52,4.08.83,6.07-2.57,8.78-4.3,4.7-3,4.56-3.23,8.95.12,2.1-4.05-.85-8.82,1.87-12.64,2.59,3.26.78,7.08,1.31,10.6a11.23,11.23,0,0,1,0,1.74c.62-.37.68-1.28,1.44-1.51.93.89.86,2.07,1,3.22.23,1.58-.89,4.23,1.23,4.47,2.73.3,2-2.68,2.47-4.37a4.42,4.42,0,0,1,4.38,3.32,37.38,37.38,0,0,1,1.27,20.64c-5.06.93-3-3.21-4.3-6.88-.14,9.83-6.91,8.65-12.19,9.8-10.91,1.48-21.15-1.41-31.31-4.85-8.88-1.46-17.83,1.25-26.62-.12-4.87-.76-8.62-.31-11.63,3.7a3.64,3.64,0,0,1-3.91.8c-6.89-2.49-14.47-2.5-21.13-5.73-3.07-1.49-5.78-2.22-8.94-.22-2.46,1.56-5.28,1.44-8,.35-6.64-1.73-13.12-3.93-18.64-8.11-3.62-2.74-7-3.32-10.91-.83-3.21,2.07-6.21,1.63-9.31-.63-5.9-4.31-13-6.72-18.26-12.11C767.63,968.4,762.26,969.59,758.37,967.11Z" fill="#2e292d"/><path d="M843.67,532.1c0,2.07.78,4.48-2.31,5.12-4.82.52-5.86,6.71-11.11,7.2-2,.19-.35,3,1,3.34,8.93,2.25,11.52,9.45,13.79,17.06.81,2.73,2.85,4.76,4.56,7,2.35,3,3.38,6.33,2,10.07-1.53,4.12-4.6,5.56-8.44,3.38-3-1.7-5.76-2.43-9-1.05-.92.39-2.2.65-2.9.07-4.8-4-10.2-3-15.61-2.07l-.63-.57c-3.49-2.85-3.5-9.07-10.1-9.32-2.26-.09-1.93-4.79-1.87-7.58.07-3.07.32-6.11-3.73-7s-5.68,1.54-7.12,4.69a11.39,11.39,0,0,0-.55,9.31c1.92,4.61.61,8.86-.27,13.35-1,5-3.86,4.75-6.78,2.55-5.66-4.27-11.83-7.92-16.33-13.67a22.77,22.77,0,0,0-6.2-5.5c-2-1.17-5.23-2.76-4.18,2.44.4,1.95-1.17,3-2.79,3.08s-1.85-1.36-2-3a11.53,11.53,0,0,1,9.18-12c5.39-1.22,4.14-4.61,2.86-7.06-1.74-3.33-1.55-6.81-2.5-10.75,5.11,7.37,11.84,2.1,17.68,3,2.15.34,4.31.35,6.31,1.43,3.16,1.69,6.11,1.6,8.59-1.32,1.89-2.21,4.06-3,6.9-1.76,3.82,1.67,6.25-.6,8.82-3.11,3.06-3-.27-4.61-1.1-6.7a13.7,13.7,0,0,1-.83-5.27,67.44,67.44,0,0,0,16.63,5.33c4.78.75,10-1.62,14.54,2.5C841.59,536.63,842.34,533.11,843.67,532.1Z" fill="#27211b"/><path d="M937,463.59c-.41-.44-.73-1.12-1.22-1.28-2.62-.86-6.46.42-7.57-3a19.48,19.48,0,0,1,.06-12.42c1.39-4,1.5-7.21-1.45-10.47-1.17-1.29-2.39-3.45-1.4-5,6-9.35,2.35-20.06,3.93-30,1.41-8.92,4.22-19.31-2.7-28,1.62-14.35-9.57-23.5-14.21-35.31-1.69-4.29-4.83-4.82-7.73-1.21-2.27,2.82-4.77,4.05-8.2,3.85-2-5-2.29-9.16,3-12.89,4-2.82,3.87-7.91,3.29-12.56a9.38,9.38,0,0,0-2.42-4.12,76.42,76.42,0,0,0-6.41-6.06c-2.1-1.89-1.66-3.32,1.1-4,13.32-2.1,26.38-1.84,38.85,4.17,1.41.69,3,1.12,4.43,1.67a5,5,0,0,1,2.86,3.61c1.78,10.52,5.2,20.91,2.48,31.78-.41,2,.26,5.12-2.5,5.37-2.46.23-3.19-2.68-4-4.67-3.91-9.8-10.58-17.28-19-23.36-2.4-1.73-4.82-3.25-8.21-3.21.91,2.95,3,4.27,4.69,5.91a28.1,28.1,0,0,1,7.23,10.88c2.83,8.33,7.16,16.12,9.77,24.39,5.26,16.64,9.17,33.72,6.07,51.48A117.43,117.43,0,0,0,942,428.86c1.11,3.87,2,7.69,1.15,11.73-.53,6.9-2.88,14,1.82,20.38,1.19,3,1.21,5.81-1.89,7.8-3.5.74-3.24-2.52-4.47-4.22C938.25,464,938.88,461.52,937,463.59Z" fill="#291f1c"/><path d="M654.45,734.61c4.14,0,8.28,0,12.41.1,1.81,0,4.28-.69,4.15,2.59-5.2-.62-10.45-1.83-15.65-.93-9.51,1.64-15.11-2.55-15.31-12.55-.08-3.89-1-5.35-5-5-11.25,1-17.95-5.5-17.61-16.82.11-3.6.47-7.19.88-10.77.25-2.17-.12-3.45-2.67-3.5-8.79-.16-16.13-4.51-22.78-9.46-6-4.46-7.58-11.77-6.15-18.87,3.49-17.35,3.76-17.33-12.71-25.69-4.46-2.26-10.53-4.45-11.65-8.68-2.63-10-8.44-15.11-18-16.91-3.43-.88-6-3.51-8.24-6.19-7-7.09-5.92-15.25-2.63-23.38,1.93-4.76,4.72-9.17,7.13-13.74l.76.17c3.44,2.31,6.93-2.43,10.37.06-.78,6.54-7.29,9.16-9.86,14.73,4-3,6.87-6.82,9.95-10.47,1.37-1.61,3.25-3.84,5.49-1.93s.58,4.09-.86,5.8c-3.1,3.66-6.09,7.41-9.18,11.08-2.47,2.94-2.75,5.43.14,8.9,3.39,4.08,6.94,7.56,11.84,9.77,1.48-.9,1.82-3,3.38-4,1.78-1.14,3.65-1.92,5.55-.58,1.57,1.11,2.57,2.94,1.44,4.71-2.28,3.58,3.87,2.81,2.76,6-.84,2.38-3.86,4.93-2.2,7.09a81.4,81.4,0,0,0,7.09,7.92c5.28,5.21,9.56,11.29,14.9,16.43,3.13,3,4.33,6.35,3.87,11.22-1,11,0,21.62,12.16,27.12,3.57,1.62,6.32,4.83,10,6.5,3.26,1.47,3.71,4.73,3.63,7.67-.12,4.56,1.3,8.71,2.56,12.9,1.82,6.05,5.52,10.21,12.31,10.38,3.82.1,5.68,1.67,6.08,5.72C643.61,730.28,646.45,733.09,654.45,734.61Z" fill="#393026"/><path d="M683.47,379.16c-6.23-.67-10.36-5.58-15.72-8.07-3-1.37-5.63-3.64-8.88-4.65-6.67-2.08-12-5.34-16.42-11.41-6-8.18-15.61-12.59-24.42-17.1-7.59-3.88-14.63-8.75-22.63-12-14.9-6-29.54-12.54-45.43-15.71a22.66,22.66,0,0,0-13.28,1.41c-8.76,3.64-17.5,2.64-26.43,1.91-7.25-.59-14.64-2.09-21.68,1.52-2.56,1.32-3.8,3.18-2.62,5.8,1.51,3.33.1,6.27-.57,9.35A33.11,33.11,0,0,1,475,318.07c-2.8-5.23-1.15-9.27,4.59-10.16,8.47-1.32,17-1.7,25.52.1,6.39,1.35,13.16.64,19.29,3.57,1.79.85,3.06.33,3-2.05-.08-5,3.31-5.47,7.24-5.83,11.61-1.07,22.84,1.42,33.23,5.7a388.15,388.15,0,0,1,82.43,46.5C661.14,363.88,672.69,371,683.47,379.16Z" fill="#332a20"/><path d="M690.32,409.4c.67-3,1.46-5.62,5.26-6.13,5.65-.74,7.8-6,4.62-10.79-.53-.79-.91-1.68-1.36-2.52,5.36,2.83,9.53,7.39,13.31,11.71,15.82,16.22,29.63,29.8,19.14,19.4-2.55-2.53-2.14-.83-5.71-2.08-6.13-2.15-7.17-1.61-7.91,5.32-3-.73-5.44-2.46-8.71-2.71-5.54-.43-8.52.13-8.08,6.5.15,2.25-1.71,2.71-3.71,2.95-5.19.6-10.64,0-15,4.26-1.72,1.69-4,.11-6.12-2.16,3.33-.49,5.32-2,4.94-5.34-.06-.53.33-1.54.63-1.6,6.89-1.14,5.93-8.66,9.69-12S692,410.69,690.32,409.4Z" fill="#696055"/><path d="M509.34,505.45c3.25,4.82,9.11,2.73,13.3,5.09l-2.38,1.22a36.49,36.49,0,0,0-16.45,9.43c2.84.19,4.42-1.64,6.46-2.18,2.52-.67,5.41-1.89,6.66,1.47,1.15,3.07-1.65,4.07-3.85,5-3.28,1.41-6.93,2.51-5,7.53,2.48-1.18,4.89-7.13,7.9-4.9,3.77,2.79-3.21,6.83-2.29,10.22a93.92,93.92,0,0,1,9.58-12.7c1-1.16,2.46-2.74,4-1.54s.42,3-.46,4.3c-3.4,4.89-6.73,9.8-8.69,15.68,3-.68,3.66-6.39,7.05-4,2.55,1.83.27,5.13-1.1,7.75,2.17-1.81,4.26-2.94,5.72.55.86,2,1.13,4.25,1.87,6.32,1,2.91,2.54,5.11,6.17,3.7a4.4,4.4,0,0,1,1.74-.38c2.47.13,5.3.51,5.72,3.25s-2,3.49-4.39,3.67l-.34-.29c-.29-3.09-2.5-2.59-4.45-2.32-10.23,1.42-17.38-3.78-24.82-10.07-5.11-4.32-9.67-8.76-13.2-14.3-6.53-10.26-6.13-15.07,2.07-24.08C503,510.86,506.27,508.26,509.34,505.45Z" fill="#3e342a"/><path d="M485.38,446.37c-1.22,3.66-2.63,7.08-6.65,8.66-1.53.6-4,1-3.69,3.28.4,3.26,3.58,0,5.13,2.12-3.4,2.92-2.41,6.71-1.44,10.61,3-.34,3.78-4,6.79-4.69.72,1.76-.5,2.84-1.32,4-1,1.4-1.81,3.2-.42,4.32,1.78,1.44,3-.67,3.59-1.88,1.52-2.89,4.24-3.79,6.88-5.08-1.36,4.64-7.49,5.63-7.9,11.28,5-.27,8.19-3.43,11.44-6.59,1.15-1.12,2.5-3.74,4.24-2,2.26,2.3-1,3.36-2.2,4.46a81.22,81.22,0,0,1-7.56,5.79c-.8.59-1.89,1.27-1.35,2.35.72,1.43,2,.9,3,.21,3.58-2.43,7.14-4.91,10.71-7.38.35.53.76,1.07.73,1.09-6.88,5.78-.51,12.13-.81,18.18-11.74-2.23-19.54-10.34-27.36-18.45a37.26,37.26,0,0,1-8.84-14.58c-1-3-.77-5.64,2.12-7.26C475.47,452.05,479.76,448,485.38,446.37Z" fill="#41382e"/><path d="M901.22,310.72a3.57,3.57,0,0,1,2.47,3.52c.94,7.09-.31,8.55-7.1,6.76-7.33-1.92-14.19-3.27-20.93,1.93-3.33,2.57-5.4,5.15-4.44,9.5a18.39,18.39,0,0,1,.39,3.56c.22,7.46-2.75,9.6-9.93,7.18-1.09-2.07-2.58-3.61-5-3.86,1.41-5.15-3.35-10.36.18-15.48.8-5,4-7.51,8.72-8.23,7.85-1.19,15.31-5.09,23.58-3.53,1.17.22,2.46.14,3.45.8C896.29,315.37,898.84,313.47,901.22,310.72Z" fill="#761e19"/><path d="M901.22,310.72c-1.37,6.11-2.73,6.51-7.9,4.46-4.41-1.73-8.87-3.95-14.13-.53-4,2.58-9.35.68-14.25,2.56a15.13,15.13,0,0,0-8.12,6.62A25.89,25.89,0,0,1,881,301.93c4.7-.29,9.41-.5,14.11-.74-.72,1.12-2.62,2.09,0,3.39A15.2,15.2,0,0,1,901.22,310.72Z" fill="#8d2e27"/><path d="M969.57,989.89c-1.72-9-3.47-17.92-5.13-26.89-.25-1.35-.66-3.12-.06-4.1,5.08-8.26,3.6-17.32,3.64-26.51-2,1.63-1.92,4-2.61,6.45-2.17-7.19-1.27-13.61.48-20,3.39-2.9,3.1-6.81,3.1-10.73,0-1.71-1.07-4.74,2.8-3.7,2.71,8.06-.62,15.84-1.08,23.75-.32,5.42-.87,10.81,1.48,16a10.89,10.89,0,0,1,.57,7.68c-4.23,13-1.61,25.55,1.37,38.2.78,3.32,1.8,7.83-4.43,4.33C969.66,992.85,969.62,991.37,969.57,989.89Z" fill="#242021"/><path d="M848.46,352.66a22.7,22.7,0,0,1-.23,4.14c-1.64,7,.41,9,7.64,7.34,1.7-.4,3.42-.69,6.34-1.26a54,54,0,0,1-19,13.69c3.71,2.3,6.54-1.08,9.17.44-3.81,1.83-8.19,2.46-11,6.29-1.91,2.58-3.36,1.34-3.47-1.43-.27-6.35-.52-12.62,3.81-18.16C844.35,360.34,846.24,356.37,848.46,352.66Z" fill="#3d3332"/><path d="M473.34,361.75a35.77,35.77,0,0,1-12.53-11.64c-3.29-5.2-2.19-8,3.58-9.74a85.09,85.09,0,0,1,19.92-3.18c-.88,3.6-4.45,4-6.87,5.69-5.27,3.71-5.8,5-3.79,11.22C474.48,356.63,475.94,359.3,473.34,361.75Z" fill="#302921"/><path d="M952.55,320.58q0,3.23,0,6.46c-2.83,8.87-1.87,17.76-.11,26.66,0,1.43-.26,3-1.92,3-2.67.06-3.2-2.31-4-4.28-.45-2.95-2.37-5.5-2.34-8.59,3.51-7.47.92-14.81-.47-22.19-.67-3.57-2.8-8.57,1.57-9.92,3.7-1.15,4.82,4.3,6.75,7.12A9.25,9.25,0,0,1,952.55,320.58Z" fill="#291f1c"/><path d="M671,737A22.71,22.71,0,0,1,673.6,749c-.17,4.7,2.75,7.85,5.71,10.56,3.34,3.05,7.64,1.83,12.77-3,.87,5.25.23,10.36,1.82,15.2,1.82,5.51,4.38,6.85,9.54,4.69,3.09-1.29,6.31-2.36,9.78-2.07-3.63,1.6-7.2,3.35-10.9,4.76-4.56,1.73-8.18-.29-9.55-5.05-.34-1.15-1-2.31-1-3.46.25-7.45-2.89-8.63-9.45-6.16-4.33,1.63-8.85-1.65-9.55-6.6C671.85,751,671.6,744,671,737Z" fill="#231d17"/><path d="M473.34,361.75a11.1,11.1,0,0,0-1.65-8.58c-3.5-5.08-.08-7.85,3.12-10.38,2.85-2.26,6.31-3.76,9.5-5.6a1.52,1.52,0,0,0,.94-.31c2-.88,4.07-1.3,6.11,0-.84,2.75-3.25,3.21-5.55,3.85-9.57,2.63-11.65,6.59-8.7,16.31.64,2.14,2.48,4.4,0,6.6a.82.82,0,0,1-1.45.21Z" fill="#29231c"/><path d="M493.9,427.45c-8.8,3.74-9.86,6.05-7.26,15.82L479.51,442c2.8-4.87-2.32-5.19-4.7-7.64,3.26-1.53,4.53-5.26,8.29-5.73l.8-.18c3.66-1.11,6.39-3.82,9.64-5.62,1.95-1.08,3.75-3.2,6.35-1.42v1.22C498.9,425.5,496,425.94,493.9,427.45Z" fill="#29231c"/><path d="M976.47,379.4c.83,5.46,1.64,10.92,2.49,16.38.29,1.88-1,1.1-1.81,1.13-1.92-2.52-4.56-4.5-5.77-7.57,1.43-.85-3.57-5.47,2.45-4.06,1.06.25,1.13-3.39.23-5.19-1.68-3.38-3.52-6.68-5.29-10a1.11,1.11,0,0,1,1.62-.5C974,371.87,974.51,376.08,976.47,379.4Z" fill="#332c27"/><path d="M719.13,942.93c5.14-1.33,6.88,3.22,9.37,5.9,5,5.4,12.44,7.76,16.8,13.88a2.91,2.91,0,0,1-3.37-.58c-6.8-3.73-13.46-7.66-17.41-14.73C723.25,945.12,720.88,944.47,719.13,942.93Z" fill="#2e292d"/><path d="M957.12,353.37c.34-4-1.24-7.69-2.25-11.47-.67-2.51-2-5.27.79-7.48L959,348.84a2.32,2.32,0,0,1,0,1.17,7.26,7.26,0,0,0-.35,2.89,1.14,1.14,0,0,1-1,.91Z" fill="#291f1c"/><path d="M962.43,985.27c.32-.22.85-.68.92-.61,2.1,1.89,2.77,9,1.1,11.1-3.3,0-2.13-2.51-2.2-4.17C962.16,989.49,962.36,987.38,962.43,985.27Z" fill="#2e292d"/><path d="M718.91,772a3.09,3.09,0,0,1,2.06,2.67c.15,5.43,1.62,10.61,2.78,15.85C718.31,785.34,721.15,778,718.91,772Z" fill="#231d17"/><path d="M731.11,793.59c2.63-3.09,4.5-7.2,9.44-7.24C737.71,789.17,735.42,792.71,731.11,793.59Z" fill="#231d17"/><path d="M478.19,403c1.35-1.39,5-1.24,7.65.33-5.72,1.94-7.34,7.81-12.51,9.43-.64.2-2.17,1.56-1,2.19,3.93,2.07,1,3-.58,3.65-3,1.16-2.18,3.28-1.79,5.41.64,3.49,2.95,1.42,4.95,1.41.3,1.87-3,3.8-.2,5.61-4,3-6.67-.19-8-2.8-1.16-2.27-7.84-5-.91-8.46,1.71-.86.07-1.84-.08-2.83-.35-2.4,1-4.14,3.09-5.18s3.79-2.49,3.37-5.27C476.22,405.73,477.68,407.36,478.19,403Z" fill="#29231c"/><path d="M480.73,427.45l8.38-6a4.18,4.18,0,0,1,4-2,2,2,0,0,1,1.92,1.13,1.59,1.59,0,0,1-.73,2c-3.72,2.06-6.75,5.39-11.19,6.11h0A2.42,2.42,0,0,0,480.73,427.45Z" fill="#29231c"/><path d="M654.45,734.5c-5.94,2-13-3.15-13-10.32,0-5.37-1.58-6.93-6.81-6.72-5.41.21-9-3.7-10.63-8.33-1.81-5.1-4.17-10.16-3.51-16.08.33-2.95-.71-5.83-5-7.48-5.19-2-9.52-6.33-14.14-9.77-5.85-4.35-7.24-10.09-6.86-17.38.41-7.81.4-15.59-7.48-21.7a60.29,60.29,0,0,1-14.14-16c-.11-.17-.12-.49-.25-.53-9.06-3-3.63-7.59-1.15-11.73-1.44-2.55-4.86-1-6-3.43,3.59-2.92,4.07-6.12,1-6.31-2.41-.15-4,1.47-5,3.65-.55,1.23-.32,2.88-1.82,3.62-5.5-4-10.79-8.09-15.16-13.41-2.13-2.59-1.8-4.72-.07-6.93,3.55-4.54,7.26-9,10.92-13.43,1-1.2,2.94-2.65,1.53-4-1.92-1.83-3.27.74-4.06,1.93-2.92,4.39-6.84,7.8-10.5,11.47-.86.86-2.09,1.63-3.16.61-1.27-1.21.22-2,.81-3,3.32-5.24,8.56-8.95,11.46-14.52,3.56-5.88,9.17-8.42,15.58-9.63,7.81,1.91,13.54-2.59,19.12-6.74,6.06-4.5,11.65-9.64,18-13.73,3.11,3.29,5.84,2.84,8.74-.48,4.34-5,10.65-4.68,16.42-5.63,2.56-.42,5.07-.67,7.18-2.34,4.25-3.24,8.44-6.57,12.77-9.71,2.41-1.75,5-3.39,8.11-3.49,1.2,0,2.51,0,2.83,1.55a2.45,2.45,0,0,1-1.18,2.57c-1,.66-2.1,1.15-3.13,1.76-5.24,3.08-10.8,5.48-13.18,12.14-1.89,5.27-7.31,7.88-11.91,10.29-3.44,1.8-4.75,3.94-3.62,6.94.93,2.47,1.7,5.33,6.43,4.91,4.53-.4,9.07,1.71,13.07-2.53,1-1,3.83-.28,5.82-.26,1,0,2.24.48,2.29,1.48a3.62,3.62,0,0,1-1.46,2.4c-3,2.39-6.9,3.65-9.4,8.13a67.3,67.3,0,0,0,15.41-8.08,80,80,0,0,1,19.2-9.43c2.91-1,5.74-1.15,8.36,1.24,2.78,2.55,1.36,5.33.41,7.69a56.91,56.91,0,0,0-3,11.6c-1.19,6.88-8.15,8.91-12.35,13-5.82,5.69-9,12.68-14.08,19.19,4.49-1,8.47-4.47,12.19-11.44,3.5-6.55,9.34-9.69,15.62-12.5.51-.23,1.47-.36,1.5-.62,1-8.11,8.47-7.42,13.49-9.62s9.93-5,15-7.29c3.24-1.48,5-.83,4.7,3.07-.23,3.12.76,6.39-1.61,9.22-1.59,1.9-.33,4.17-.19,7-4.11-3.46-8.36-4.1-13.44-3.77-7.89.52-16.3,10.68-14.45,18.31,1.26,5.24-3.77,3.79-6.24,4.56-1.58.49-4.62-2.17-5.12.26-.64,3.15,2.93,2.09,4.81,2.65,1.3.38,2.75.63,3.57,2.76-3.56-.55-6,.46-7,4.08-.81,2.94-3.57,3.44-6.17,3.89a4.66,4.66,0,0,0-4.18,3.73c-.46,2.45,2.24,2.41,3.65,4.09-2.67,1-5.36,2.41-2,5.49,1.35,1.24,1,2.21-.06,3.55-3,3.91-3.87,9-7.63,12.71-3,2.92,1.11,5.16,2.22,7.66-1.43,2.8,2.41,1.92,2.53,3.65a3.59,3.59,0,0,1,.36,1.58c-.87,3.17,1.75,4.78,3.1,6.95-5.87,2.38-8.65-2.59-10.74-5.87-3.86-6.07-7.79-5.68-12.9-2.45-4.58,2.89-8,2.11-10.39-3.15a31.07,31.07,0,0,0-4.29-6.45c-2.24-2.8-2.85-5.52-.71-8.67a3.2,3.2,0,0,0,.06-3.94c-.94-1.17-2.12-.52-3.25-.09-3.63,1.39-12.12,7.5-15.19,11.16,4.14.37,6.44,1.84,3.22,5.89-1,1.2-1.33,2.64-.1,3.79,1.64,1.53,2.44-.36,3.36-1.18,1.51-1.35,3-3.1,5.18-2,2.53,1.3.27,3.6.64,5.24C629.41,659,626.4,668,627,677c.08,1.08.28,2.19,1.2,2.58,5.31,2.28,4.26,6.7,3.1,10.56-1.06,3.46-.16,5.68,2.17,8a105.22,105.22,0,0,1,9.23,9.9c1.53,2,3.06,4.78,2.9,7.09-.55,7.45,3,12.56,8.08,17.13C654.22,732.72,654.22,733.74,654.45,734.5Z" fill="#231d17"/><path d="M567,555.12c-5.24,3.14-10.84,5.69-15.58,9.63a38.54,38.54,0,0,1-5.47,2c-1.86.4-4.35,1.71-5-1.74l4.14-3.75c-2.34-1.37-4.39-2.87-6.74-1.35-4,2.57-5.8.17-7.46-2.86a12.63,12.63,0,0,1-1-2.81c-2-7.67-2-7.67-7.94-2.09-1-4.54,4.32-7.42,2.6-12.15-3,2.42-4.23,6.52-9.15,7.87,2.05-9.16,7.29-15.8,11.51-23-6,4.87-10.06,11.44-14.76,18.67-1.55-5.87,1.14-9.69,3.7-14.59-5,1.26-4.92,5.56-7.93,6.4-3.7-7.73-3.71-7.76,5.2-11.35,1.5-.6,3.56-.9,3-2.93-.66-2.6-2.68-1.37-4.42-1-2.63.58-4.58,2.37-6.91,3.47a2.44,2.44,0,0,1-3.24-.66,2.19,2.19,0,0,1,.86-3.14c5.73-3.11,10-9.59,17.82-8-.36,1.45-2.58,4.15,1.57,2.76,3.17-1.06,6.56-2.12,9.18-4.09,7.6-5.7,16.75-6.84,25.38-9.49,5.53-1.7,8.92-7.08,15.14-7.91,7.64-1,15.21-2.72,23-2.92,6.44-.17,11.88-3.39,17.34-6s10.24-1.12,14.6,1.54c3.14,1.92,5.58,2.77,8.63.51a4.57,4.57,0,0,1,5.08-.25c1.08.54,2.27,1.07,2,2.58a1.9,1.9,0,0,1-2.25,1.51c-6.14-.4-8.45,3.42-9.44,8.65-.92,4.89-6.15,5.25-8.88,8.58,17.82-5.22,37-.09,54-10.65.3,4.79-2,4.91-3.8,5.4-13.21,3.6-26.57,5.67-40.35,5.07-4.58-.2-8.74,2.54-12.88,4.36-2.88,1.27-3,3.8-.81,6.42s2.18,4.85-1.49,6.51c-11.61,5.25-21.21,13.59-31.34,21.1-2.4,1.51-5,.69-7.6.65-.46,1.49,2.14,2.64.42,4.18C574.24,552.05,570.19,552.63,567,555.12Z" fill="#2a231d"/><path d="M829.35,587.63c-4,3-7.8.25-11.17-1.09s-6.4-3.67-9.85-5.09c-1.3-.53-2.25-3-3.9-1.08s-2.63,5-.63,6.58c5.47,4.2,5.75,11.78,11,16a9.17,9.17,0,0,1,1.37,1.93c1.09,1.51,5.47.35,3.76,3.83-1.47,3-8.51,2.82-10.54,0-1.25-1.75-2.35-3.35-4.71-2.83s-3.29,2.3-4.15,4.55c-2.33,6.07-4.89,12.08-7.77,17.91a6.78,6.78,0,0,1-8.62,3.65c-3.63-1.22-6.27-4.22-6-8.09.24-3-1-4.27-2.91-5.88-4.73-3.92-6.85-10.61-13.79-12.36-2.45-.62-2.12-3.56-.71-5.58.72-1,.91-2.18-.34-2.23-3.4-.13-4.82,3.18-7,5-1.85,1.56.54,2.22,1.81,3.17,5.35,4-.41,7.75-1.93,8.24-7.36,2.39-10.61,9.41-16.46,13.35-3.4,2.28-6.77,4.11-10.72,3.43-.71,1.92.31,2.32,1.13,2.83,1.35.82,3.14,1.5,2.25,3.57-.73,1.68-2,3.34-4,3-7.17-1.17-9.88,6-15.25,8.1-.36.14-.63,1.06-.6,1.6.38,7.58-1,15.56,5.29,21.74,1.82,1.77,2.93,2.11,5.54,1,3.63-1.5,8.28-3.19,9.65,3.49.71,3.48,4.32,3.86,6.75,3.78,8.49-.27,13.13,5.23,15.74,11.64s7,7.32,12.49,7.85c1.88.18,4.08-.8,5.44,1.42-2.24,2.19-5.12,3.25-7.92,4.47-14.21,4-18.75-8.06-15.93-19.17-4.82-3.17-10.24-3.2-15.53-2.27-2.39.42-3.2-.24-4-2a6,6,0,0,0-5.91-4,4,4,0,0,1-4.35-1.2,11.39,11.39,0,0,0-2.31-.55c-6.13-.09-10.2-1.73-7.54-9.19a4.5,4.5,0,0,0-.57-3.46c-4.66-7.13-.81-13.25,2-19.56,1.05-2.33,3.17-2,5-2.57,4.19-1.23,7-3.23,8.4-8.12,1.52-5.36,5.35-9.76,11.49-10.84,3.1-.55,4.44-2.74,6-5.17,3.17-4.86,4.75-9.55,1-14.78a1.8,1.8,0,0,1-.08-1.68c4.17-5.13,10.55-6.13,16.23-8.18,3.58-1.3,5,2.46,7.22,4.81,4.52,4.81,9,9.26,10,16.31.23,1.73,2.45,3,4.27,4,3.54,1.89,4.84.51,4.5-3.09-.26-2.76-1.13-5.51-1.06-8.25.13-5.22,3.77-7,8-4.06,5.11,3.59,10.28.4,15.3,0,2.77-.2,2.41-6.46-.5-9.17-3.07-2.86-5.38-12.79-3.43-16.29s4.54-2.65,6.52.09,3.68,5.3,7.56,4.49h0c1.68,1.57,3.74.8,5.66.94C824.32,582.84,827.61,583.9,829.35,587.63Z" fill="#161314"/><path d="M617.31,456.34A17.47,17.47,0,0,0,607,458.83l4.95,2.92c-7,5.74-17.08,2.24-23.73,9.45,1.54-5.22-.4-5.33-4.26-5.43-6.53-.16-12.7-1.93-19.14,2.13-4.37,2.76-7.44,6.52-11.12,9.78-1.86,1.65-3.2,3.9-5.59,5,3.74-7.15,8.39-13.42,15.7-16.94,5.85-2.81,9-7.11,8-11.82,1.84-1.37,3.35-.47,4.81.7.43,3.71,2.76,5.5,6.14,6.17.71.47.53-.86.29-.09-.06.2-.22.06-.59-.08a4,4,0,0,1-2.79-4.16,4.2,4.2,0,0,1,1.84-2.92c2.2-.35,4.24-.13,5.89,1.58,7.64,3.21,15.11-.48,22.66-.7C612.81,454.37,615.52,453.1,617.31,456.34Z" fill="#29231c"/><path d="M746.69,686.37c.17,1.55.27,3.11.5,4.66,2.12,13.91,2.15,13.93,16.26,13.35.58,1.24-.06,1.89-1.12,2.33-6.17,9.33-7.25,10-15.76,2.24-3-2.75-9.39-6.53-4.51-13.54-2.79,1-2.83,3.07-3.85,4.43-1.36,1.79-2.71,6.11-4.14,4.74-2.28-2.19-8-1-7.12-6.76a11.4,11.4,0,0,1,4.66-7.07C736.23,687.4,741.39,686.84,746.69,686.37Z" fill="#5b544d"/><path d="M702.54,641.91c1,8.38-6.74,12.81-9.47,20.07,3.13.06,7.75-1.28,7.92.91.35,4.44,2.86,9,.85,13.42-1.68,3.71-4.52,3-6.5.35-2.87-3.77-5.62-7.62-9.37-10.55-1.6-1.25-1.09-2.26-.23-3.53,1.18-1.73.43-2.82-1.42-2.63-5,.54-4.46-2.47-3.53-5.48,1.84-5.93,4.73-11.16,10.57-14.11,2.3,2.24.58,3.81-.85,5.5s-3.72,3-3,6.29c4.18-.72,5.88-4.29,8.36-6.81C697.72,643.44,699.09,640.65,702.54,641.91Z" fill="#5b544b"/><path d="M702.54,641.91c-5.42,1.62-7,7.45-11.2,10.39-1.66,1.16-2.74,3.79-5.38,1.35s0-3.76.69-5.65c1-3,5.92-3.39,4.71-7.64,3.76-5.14,8.94-8.44,15.07-11.68C708.33,634.32,701.8,637.17,702.54,641.91Z" fill="#766d63"/><path d="M716.92,676.85a4.71,4.71,0,0,1,4.35,1.2,22.8,22.8,0,0,1,1.55,9.34c-.06,3.36-2.81,5.34-4.75,7.28s-3.07-1.44-4.51-2.44c-2-1.38-5.8-2.08-5.66-4.16.23-3.49,2.71-6.51,5.83-8.62C714.86,678.68,715.86,677.72,716.92,676.85Z" fill="#5b544d"/><path d="M587.36,455.15a10,10,0,0,1-6-1.2c-2.35,2-4.39.75-6.43-.6-1.66-1.61-2.27-3.37-.75-5.43,3.1.25,4.9,3.57,8.06,3.53,5-.06,10.48,1.45,14.08-4a5.18,5.18,0,0,1,4.22-1.91c2,.56,4.19.86,5.84,2.37,1.54.86,3.58,1.76,3.06,3.76s-2.7.93-4.15,1.13C599.31,453.61,593.33,454.37,587.36,455.15Z" fill="#2a231d"/><path d="M636.47,526.2c-.2,2.82-2,3.57-4.47,3.63-8,.22-15.55,1.61-21.48,8-1.36,1.46-6.45,7-5.25-1.88.05-.38-.74-.87-1.14-1.3l8.38-4.83c6-1.17,11.38-4.77,17.8-4.56C632.44,525.34,634.58,524.76,636.47,526.2Z" fill="#2a231d"/><path d="M762.33,706.71c.37-.78.75-1.55,1.12-2.33,1.5-3,4.51-2.69,7.09-3.32l2.58,9.41c-.5,2.86-2.27,4.53-4.92,3.25C765.4,712.37,760.15,712.48,762.33,706.71Z" fill="#58514b"/><path d="M636.47,526.2c-7.36.72-15,.46-21.35,5.19-2.49,1.86-1.55-1.39-2.61-1.57A18.56,18.56,0,0,1,627,524c5.74.18,9.47-1.89,12.19-6.7a8.63,8.63,0,0,1,4.74-4.14c-.82,3.71-3.32,5.82-5.52,8.14C637.11,522.63,634.93,523.7,636.47,526.2Z" fill="#231d17"/><path d="M673.68,645.51c2.2.15,4.58-3.55,6.58.12,1.56,2.87-.58,4.9-2.21,6.79a38.28,38.28,0,0,1-4.44,3.86c-4.4.26-6-1.75-4.73-6h0C669.55,647.75,671.8,646.82,673.68,645.51Z" fill="#675e54"/><path d="M673.41,451.67c5-2.72,8.83-5.45,7.18-12.11,5.35,3.06,4.5,7.92,5.37,11.54C686.48,453.24,678.53,454.22,673.41,451.67Z" fill="#564f47"/><path d="M631.61,379.17a7,7,0,0,1-5.18-.84c-3-1.92-1.92-4.91,0-5.63a16.19,16.19,0,0,1,11.45.08,8.15,8.15,0,0,1-.31,1.63C634.59,374.71,630.18,373.23,631.61,379.17Z" fill="#554e45"/><path d="M606.37,447.88c-2-.55-5.13,1.51-5.84-2.37a3.71,3.71,0,0,0,.06-1.05c1.14-1.83,1.51-4.2,3.4-5.48s3.47-1.54,2.56,1.7l-.06,3.62Z" fill="#61584e"/><path d="M577.76,550.29c.7-3.13-5.43-2-3.55-4.85s5.1-.59,7.75-.07a19.62,19.62,0,0,0,3,.1C582.59,547.14,581,549.92,577.76,550.29Z" fill="#231d17"/><path d="M673.68,645.51a14.13,14.13,0,0,1-4.78,4.79c-1.46-2.32-4.62-1.74-6.57-3.89,1.16-1.5,2.79-.77,4.11-1C668.85,645.46,671.25,646.34,673.68,645.51Z" fill="#38322b"/><path d="M668.88,650.3c-.26,3.46,1.34,5.43,4.73,6-.39.43-.79.85-1.18,1.27C668.87,656.31,665.85,654.8,668.88,650.3Z" fill="#38322b"/><path d="M934.77,746.63l1.22,1.18q-.93,8.49-1.85,17C931.76,758.51,932.53,752.52,934.77,746.63Z" fill="#0c0b0a"/><path d="M949.23,736.75c-.74-7.31-1.29-14.62-1.67-22-.52-9.79-5.9-18.25-11.06-27.39-.18,1.87-.28,2.83-.37,3.79a15.8,15.8,0,0,0-6.19,9.87c-1.53,7.56-6.59,9.82-13.14,10.68-.58.07-1.4.06-1.69.43-5.34,6.57-8.58,4.62-12.65-1.88-3.71-5.92-6.71-5.4-11.41-.14-.7.78-1.79,1.63-2.41.53-1.22-2.17-.72-4.72-.39-7s1.82-2.65,4-2c3.21,1,4.83-1.61,6-3.8a3.87,3.87,0,0,0-2.27-5.45c-6.69-2.52-4.61-8.26-4.92-13a17.33,17.33,0,0,1,.25-4.63c1.3-5.64-1.33-8.68-5.93-11a3,3,0,0,1-1.46-4.08c2.21-5.81.64-11.91.91-17.88.11-2.34-.1-4.62.48-7,.72-2.92,1.29-6.71-1.09-8.59-4.69-3.71-2.68-8.81-3.8-13.22-.21-.84.12-2.47.69-2.75,7.6-3.83,11-15.47,22.72-11.94,3.52,1.07,7.74-.38,10.82-2.48,6.4-4.36,11.13-1.5,15.88,2.65,1.35,1.17,2.56,2.85,4.13,3.36,5.54,1.79,8.25,5.13,7.35,11.13-.16,1.05-.39,2.89,1.23,2.81,1.41-.07,1-1.89,1.18-3,2.79.52,2.68,2.87,2.28,4.64a20.13,20.13,0,0,0,2.37,14.81,9.74,9.74,0,0,1,1,7.48,2.86,2.86,0,0,1-1.15,1.41,3.42,3.42,0,0,1-1.71.12c-2-.71-1.67-4-4.33-4-3.72-3.55-4.8-8.12-4.27-12.93.35-3.12.28-6.3,1-9.38.19-.78.05.23.12-.57-.43,0-.37.55-.68.72a6.2,6.2,0,0,1-3.53,1.89,2.68,2.68,0,0,1-1.84-1.67c-.73-3.28-2.83-4.55-6.08-4.4-8.27.37-16.53.7-24.33,4-7.43,3.13-9.79,8.68-6.75,16.24.38.93,1.13,2,.86,2.82-2.73,8.76,4.61,14.07,7.62,20.52,4.33,9.32,22.1,11.09,29.62,4.24.87-.79,1.58-1.91,3-1,1.93,3.84,4.42,6.8,2.59,12.34-1.25,3.82,1.78,9.55,3,14.4,1.22,5,1.07,10.52,6.5,14.08,2.52,1.66,2.83,6.07,3.14,9.46.91,9.77,2,19.5,3.83,29.16a23.08,23.08,0,0,1-.54,6.88,11.39,11.39,0,0,1-1.87,3.65c-2,2.33-3.33,1.6-4-1C949.51,743.39,950.41,740,949.23,736.75Z" fill="#161314"/><path d="M861.68,343.17c8.33-.09,9.61-1.55,8.24-9.42-1.56-9,8.9-18.59,18.06-16.52a61,61,0,0,1,8.67,2.13c5.22,2,7.61.64,7-5.12,2.3,6.81.52,12.19-5.42,16.09-1.57,1-2.25,2.57-1.6,4.08,1,2.27.06,4.27-.18,6.38-1.67,3.89-2.68,8.42-8.64,7.62-1.13-.15-2.41,1.28-3.71,1.68-2.7.84-5.63,3.86-7.86-.94-.74-1.58-2.82-1.27-4.39-1.16A11.1,11.1,0,0,1,861.68,343.17Z" fill="#421d17"/><path d="M951.62,533.28a1,1,0,0,0-.17-1c-2.72-8.13.26-16.76-2.13-24.93-.18-1.11-.35-2.24-1.5-2.84-1.44-4.1-2.05-8.17.44-12.13,4,1.54,1.59,6.26,4.18,8.5,1.07,4.7.67,9.69,2.62,14.23,2,7.87,4.54,15.62,5.83,23.67a15.9,15.9,0,0,0,3.43,7c1.63,4.93-.18,10.35,2.16,15.18a10.15,10.15,0,0,1,.56,1.8,18.66,18.66,0,0,1,.39,3.81c.11,3-1.18,5.77-1,8.75-.11,4.82.08,9.64-.1,14.46-.3,1.5-.4,4-2.13,3.61-2.63-.57-.68,1-.67,1.16.36,8.05,1.72,16,1.59,24.13a10.37,10.37,0,0,1-.69,3c-2.78,4.78-1.17,10-1.54,15.06-.18,2.35,0,4.73-.1,7.08-.63,2.69.92,4.18,3,5.4l.25,11.9c.52,1.64,1.62,3.66-.46,4.64-1.71.8-2.59-1.32-3.63-2.38-1.86-1.87-2.2-4.61-3.66-6.73-1.69-3.54-1.13-7.33-1.21-11-.12-5.78-1.8-11.23-3.18-16.76a59.6,59.6,0,0,1,2.29-15.93c.3-.94,1-1.91.77-2.85-2.64-9.5,0-19,0-28.46-.09-2.67,5.18-1.13,3.75-4.86.63-12.3-2-24.16-4.7-36-.06-.24.11-.66-.23-.7C952.94,539.67,952.94,539.68,951.62,533.28Z" fill="#161314"/><path d="M829.35,587.63c-3.56-1.86-6.82-4.47-11.3-3.74-1.44.24-2.45-1-3.08-2.28,2.43.43,4-1.61,6-2.13,1.65-.41,4.21-.67,5.17.25,3.65,3.52,7.35,4.14,11.71,1.73,1.83-1,3,.19,4.09,1.39,1.74,1.88,3.8,3.39,6.23,1.66,2.25-1.59,2.95-4.19,2.64-7a3.88,3.88,0,0,0-.73-2.23c-5.76-5.3-6.8-13.18-10.64-19.54-2-3.27-3.64-5.73-8-5.9-2.76-.11-4.61-2.64-4.39-5.55.28-3.65,2.83-2.35,4.9-1.76,1.06.3,2.58,0,2.4-1-1.56-7.81,4-3.93,6.94-4.42,3.49,10.06,3.08,21.63,11.63,29.72,2.25,2.13.78,5.53,2,8,1.67,3.39,1.78,7.38,4.3,10.42.84,1,1.73,2.57.64,3.85-1.24,1.45-2.85.54-4.41.18-7.35-1.73-14.69-3.55-22.35-2.92a3.21,3.21,0,0,0-2.59,1.2Z" fill="#1b1613"/><path d="M940.86,710.22c1.54,1.9,1.21,4.1,1,6.28C935.44,715.41,941.22,712.31,940.86,710.22Z" fill="#17161b"/><path d="M787.8,712.91c-1.28-.25-3.38.47-3.33-1.4.07-2.56,2.82-2.25,4.5-2.87,1.84-.67,2.57,1.06,2.61,2.29C791.66,713.87,789.17,712.47,787.8,712.91Z" fill="#1b1613"/><path d="M916,742.79c-1.19,1.4-2.53,2.42-4.5,1.68-1.08-.41-2.67-1-2.27-2.24.67-2.15,2.81-1.67,4.51-1.55C914.92,740.77,916.1,741.12,916,742.79Z" fill="#161314"/><path d="M949.1,929.7c-1.59.84-.8,2.48-1.23,3.71-2.64-8.76-4-17.63-1.49-26.87Q947.74,918.12,949.1,929.7Z" fill="#1f1b19"/><path d="M758.66,939.31c2.71,1.18,5.48,2.07,7.57,4.5,2.6,3,3,6.19.73,9.22-1.88,2.51-4.3,5-8,3.8-4-1.29-5.54-4.18-5.08-8.35a28.62,28.62,0,0,1,2.42-8Z" fill="#2e292d"/><path d="M945.78,969.4l-.48,6.35c-3.53-5.44-2.18-11.4-2.27-17.18.57-1.35,1.53-3.22,2.08-.25C945.76,961.94,945.59,965.7,945.78,969.4Z" fill="#242021"/><path d="M483.12,428.65l11.42-7.58c-2.12-1.67-3.72.76-5.43.35L484,418.27l6.35-2.87c8.24-3.26,17-3.09,24.06-3.66-5.61-.24-12.59,1.06-19.59,2.17-1.64.26-3.17.32-4.47-.91l-5.4-.32c2-3.65,7.47-2.47,8-5.21.6-3.37-4.52-3.64-6.31-6.18a7,7,0,0,1,2.28-10,10.79,10.79,0,0,0,4.9-4.09c-4.79-.23-7.82,4.12-12.51,3.95,1.5-3.5,4.66-4,8-5.55-3.08-1.14-5.1-.31-7,.25-3.64,1-4.77-3.55-4.54-3.69,4.08-2.47,2.11-8.33,6.53-10.77,5.81-3.21,10.67-7.86,15.3-12.82-3.33.22-6.1,2.44-9.75,2-.09-2.53,3.16-2.11,3.64-4.31-1.51-1.74-3.39-.9-5.28-.53-3.83.73-4.35-1.52-3-4.16s3.07-6.13,5.56-7.59c4.63-2.7,9-4.81,8.73-11.29-.06-1.31,2-2.29,3.59-2.8,8.77-2.72,17-7.33,26.91-5.25,2.43.52,5.19-1.88,8.29-2.07,11.73-.72,22.1,4.1,32.84,7.43,7.13,2.21,14.32,4.26,19.84,9.86a9.53,9.53,0,0,0,4.25,2.08c11.68,3.17,20.56,10.49,28.65,19.53-2.18,2-7.4,2.86-3.41,7.63a2.25,2.25,0,0,1-.54,2.08c-3.57,2.57-1.65,5,.49,7.42-2.51,1.26-4.7.57-6.8.7-3.06.19-5.5-.32-5.23,4.8.18,3.32-4.4,6.51-1.3,11,.62.9-2.22.74-3.42,1.18-2.09.78-5.39.89-2.71,4.58,1.48,2,.22,3.05-1.26,4.42-3.26,3-1.79,4.45,1.93,5.39,5.29,1.34,11,.3,16.11,2.91-.53,1.8-1.78,2-2.92,1.59-5.84-2.27-11.35.26-17,1.11-2.93.44-6,3.2-8.38-1a1.71,1.71,0,0,0-1.58-.37c-10.16,4-19.77,1.19-29.3-2.36-1.87-.69-3,.38-4.37,1.15-.4.23-.84,1.16-.68,1.49.88,1.78,2.64,1.38,4.2,1.53,13.79,1.33,27.37,5,41.41,3.67a4.19,4.19,0,0,1,4.51,2.47c-3.85,2.68-8.47,2.94-12.47,2.48-7.33-.83-12.57,2.91-18.09,6.33-4.87,3-9.71,5.54-15.55,3-1.69-.74-3.1-.19-4.55.55-1.1.56-2.75,1.22-3.32.21-4.55-8.15-9.73-1.47-14.64-.78a15.83,15.83,0,0,0-1.7.53c-.13,0-.32-.16-.85-.43.8-3.56,4.16-4.24,6.65-5.76,1.87-1.14,4-1.89,5.87-3,2.05-1.19,6.46-1,5.32-4.17-.88-2.45-4.4-3.92-8.15-3.08a20.76,20.76,0,0,0-9.85,5.2,100.21,100.21,0,0,1-21.56,14.44c-.95.27-1.91.51-2.85.81s-2.08.54-2.54-.6.5-1.87,1.37-2.33c2.62-1.39,5.36-2.61,7.06-5.63-3.36-.67-4.93,2.36-7.46,3.12s-5.34,1-6.57-.87c-1.53-2.3.81-4.51,2.72-5.77,3.64-2.4,7.54-4.39,11.34-6.54,1.17-.67,2.64-1.1,2.14-4.22-4.6,5.1-11.51,0-16,5.17-4.71.77-7.77,4.52-11.74,6.63C486.49,428.92,485.12,431,483.12,428.65Z" fill="#1b1613"/><path d="M606.55,440.68c-.22-1.7-1-2.28-2-.64a12.08,12.08,0,0,1-3.94,4.42c-.38-2.77.22-5.14,2.52-7,1.76-1.41,3.25-2.25,2.14-5.63-.94-2.85,4-3.61,6-5.63,3.89,2,.77,4.35.22,6.76,8.34-1.79,15.78-7.15,24.72-5.64,1.42.14,3,.41,3.28,2,.33,1.83-1.48,2.21-2.68,2.6-9,2.87-17.73,7-27.5,6.73C607.85,438.65,607.62,440.22,606.55,440.68Z" fill="#29231c"/><path d="M636.21,427.36c-9.42,1.89-18.45,5.19-27.67,8.46-1-4.19,6.07-5.29,2.73-9.58l3.76-3.41c2.36-3.46,5.76-3.47,9.35-2.86C628.47,422.2,633.07,423.59,636.21,427.36Z" fill="#61584e"/><path d="M574.17,447.92a8.05,8.05,0,0,0,1.2,4.81c-5,1.1-9.74-.86-14.54-1.53-5.21-.73-10.17-1.28-15.18.79-1.64.68-3.48,1-5-.48l-1.2-3.59c6.65-5.58,14-3.42,21.31-1.94C565.19,446.88,569.55,448.26,574.17,447.92Z" fill="#29231c"/><path d="M627,396.27c-5.07-1.66-8-2.73-11-3.57a3.52,3.52,0,0,1-2.92-3.33c0-2.07,2-2.54,3.4-2.64,3.51-.24,7-.08,11.4-.08C625.66,389.43,623.6,391.8,627,396.27Z" fill="#5c5449"/><path d="M533.44,425c2-1,4-1.76,6.56-.62-2.8,3.94-7.23,5.41-10.88,7.75-3.45,2.21-7.4,3.62-10.75,6.13-1.33,1-1.58-.18-1.71-1.22-.58-1.41.27-2.27,1.27-2.91C523,430.91,527.38,426.55,533.44,425Z" fill="#1b1613"/><path d="M490.31,413l31.52-3.49.3,2c-10.45,2.26-21.26,2.26-31.82,3.86Z" fill="#29231c"/><path d="M533.44,425c-5.41,4.27-12,6.93-16.78,12-2.17-.47-2.78,7-6,1.19a91.7,91.7,0,0,1,21.56-14.44Z" fill="#29231c"/><path d="M571.44,443.67a125,125,0,0,1,26.06-14C589.41,435.47,581.15,441,571.44,443.67Z" fill="#1b1613"/><path d="M624.38,420c-3.54-.45-6.21,2-9.35,2.86-1.86-4.36-7.18-1.37-9.83-4.85C611.87,417.59,618.24,417.46,624.38,420Z" fill="#29231c"/><path d="M622.13,403.59c-4.91,1.06-8.77,1.9-12.2,4-.87.53-2.13.8-2.69-.21-.8-1.44.45-2.27,1.57-2.6C612.78,403.59,616.58,400.36,622.13,403.59Z" fill="#504943"/><path d="M514.27,445.51c-5.17,3.47-8.86-1.16-13.18-2.41,2.45-1.39,4.74-1.69,7.12.36A8.13,8.13,0,0,0,514.27,445.51Z" fill="#29231c"/><path d="M571.93,439.66c2.08-3.84,4.69-4,8.11-4.87C577.65,437.59,575.29,438.33,571.93,439.66Z" fill="#1b1613"/><path d="M493.9,427.45c1.32-2.47,4-3.18,6-4.82C500.19,427.11,496.81,427,493.9,427.45Z" fill="#1b1613"/><path d="M986.25,756.23c-2.91-3.93-1.65-8.57-2.14-12.91,0-.38-.07-.93.15-1.15,3.63-3.54,3.64-3.53,2-8.81-1.09-8.47,1-16.52,3.72-24.35a20,20,0,0,0,1.26-9.21c-1.32-11.87-5.08-23.26-6.74-35.06,0-12.6.11-25.19-.23-37.78,1.35-1.92,2.23-.68,2.92.55s1,2.91,1.61,4.32c1.81,4.63,1.76,9.42,1.13,14.25-1,2.75-.87,5.62-.84,8.47-.63,3.15,1.8,5,3,7.43,2,12.19,3.79,24.4,6.25,36.5a35.47,35.47,0,0,1,0,12.5c-1.75,7.69-5.31,15.1-3.56,23.34-.37,1.92-1,3.79-.87,5.79-2.49,12.33,2.42,24.16,2.4,36.33,0,3.37-.09,6.72-1.39,9.9-.76,1.6-1.55,4.07-3.47,3.38-2.34-.84-2.25-3.76-1.81-5.82,2-9.27-1.48-18.14-1.7-27.23a.88.88,0,0,0-.69-.83A.93.93,0,0,0,986.25,756.23Z" fill="#0c0b0a"/><path d="M964.86,722.54a6.32,6.32,0,0,0-.25,1.75,69.94,69.94,0,0,1-3.53,33.08,1.28,1.28,0,0,1-1.61,0c-1.72-2.55-5.25-4.36-3.48-8.38,2.78-1.26,2.59-3.8,2.29-6.11-.71-5.47-.83-11-2-16.43.39-8.79-2.51-17.13-3.5-25.74,1.64-3.72,1.25-7.55,1.3-11.55.16-12.85-3.26-25.08-5.29-37.55a7.25,7.25,0,0,1,.91-3.45c1.18-1.89,2.65-4.16,4.92-3.78s2,3.11,2.26,5c.33,2.78.73,5.54,1.08,8.3-1,5.49,4.54,8.86,4.51,14,.67,6.93.09,13.9.67,20.83-2.22,6.15-.15,12.16.77,18.17C964.49,714.71,966,718.49,964.86,722.54Z" fill="#161314"/><path d="M970.72,739.37c1.31-4.18,2.65-8.34,3.94-12.53,1.65-5.37.49-10.79.18-16.19-.88-15.31-2.37-30.6,0-45.93.44-2.87-.5-5.94-.84-8.92-.46-4.11.23-7.82,3.88-11.43,1.59,5.73,1,10.78.57,15.82-.76,9.74-2.06,19.44-1.74,29.24a6.07,6.07,0,0,1,1.09,4.27c-.73,3.18,3,4,3.43,6.63.45,7.32,1.33,14.6.7,22-.6,7.09-4.2,12.59-8.38,17.87C972.19,741.84,971.2,741.2,970.72,739.37Z" fill="#161314"/><path d="M967.32,850.17c.08,4.23-1.33,8.18-2.11,12.25-.69,3.61-2,7.39.61,10.86a46.3,46.3,0,0,1,1.44,14.21c-.2,4.16,1,8.37-1.07,12.6.49-15.89-9.61-29.93-7.32-46.14,1.94-1.62,6-.85,5.63-5.06l.44-4.32C966.76,846.27,966.71,848.37,967.32,850.17Z" fill="#1f1b19"/><path d="M969.49,799.55c-5.06-5.47-3.66-12.59-4.45-19-.65-5.26-.84-10.62-1.68-15.88.69-1.78.56-3.9,2.4-5.59C968,772.65,972.78,785.7,969.49,799.55Z" fill="#0c0b0a"/><path d="M970.86,561.32c.59-8.41-.91-17,2.2-26.43,1.43,6.14,2.58,11.09,3.74,16-1.22,5.32-.29,10.49,1.06,15.63a1.71,1.71,0,0,1-1.13,2.32c-1.22.5-1.8-.42-2.12-1.36-.61-1.84-.22-3.84-.68-5.16-.12-1.36-1.39-.35-.63-.61.07,0,.05.11.15.32.75,1.53,1,3-.46,4.25a.94.94,0,0,1-1.45-.4C970.94,564.45,971.61,562.77,970.86,561.32Z" fill="#161314"/><path d="M990.53,934.71c-4.37,1.7-1.29,5.55-2.36,8.18-.9,2.22,1.52,6.41-3.54,6.24,3-5.68,2.12-12,2.88-18,1-8.31,1.57-16.61,0-24.84a28.68,28.68,0,0,1-.23-11.26c3.83-3.51,3,1,3.08,2.12.34,6.55.43,13.11.45,19.68C990.83,922.79,990.63,928.75,990.53,934.71Z" fill="#242021"/><path d="M978.35,515c-.77,5-1.54,10.08-2.34,15.29-2.73-1.82-.88-5.62-3.54-7.21-4.44-2.9-2.55-7-2-10.78a1.86,1.86,0,0,1,1.38-1c2.18,1.42,3,.33,3.53-1.79,1.12-4.6,2.17-9.22,3.51-13.75.71-2.4,1-5.1,3.29-6.75l2.3-4.76v9.39a42.58,42.58,0,0,0-4.73,14.45C978.5,510.2,978.55,512.63,978.35,515Z" fill="#161314"/><path d="M956.19,839.34c2-8,.11-16.06,0-24.09-.36-.7-.63-1.41,0-2.06.81-.8,1.39-.13,1.87.42.89,1,1.06,2.45,1.61,3.67.52,3,2.85,5.6,1.49,8.86a2.36,2.36,0,0,0,0,1.12c.75,8.37,1.53,16.75-3.53,24.27l-.13-.1c-1.19.26-1.76-.12-1.44-1.42Z" fill="#0c0b0a"/><path d="M987.74,842.13c1.71,7.3,2.45,14.67.93,22.08-.59,2.9-1.52,5.72-1.37,8.73-1.37,1.31,1.08,4.26-2,4.81-2.11-8.86-3.33-17.77.72-26.4C987.38,848.33,987.54,845.28,987.74,842.13Z" fill="#1f1b19"/><path d="M984,783c2.3-2.27,1.6-5.58,3.41-8.23-1.06,10.1,2.06,20.23-.49,30.38-2.2-3.77-5.93-6.76-4.51-11.61Z" fill="#0c0b0a"/><path d="M994.6,862.25c-1.18-7.86-1.59-15.92-6-22.92q.76-4.58,1.51-9.15a3.07,3.07,0,0,0,1-2.76c3,.2,2.52,2.63,2.71,4.44a59.59,59.59,0,0,0,3.78,15.67,20.31,20.31,0,0,1,.39,13C997.26,861.84,996.3,862.78,994.6,862.25Z" fill="#0c0b0a"/><path d="M979.1,545.48c1.85-3.05,6.72-4.18,6-9l-1.89,34.87c-3-6.18.16-13.33-3.63-19.29C979.39,549.84,979.25,547.66,979.1,545.48Z" fill="#161314"/><path d="M968.43,809.25c.94-2-1.88-6.23,3.34-5.71-.18,4.8-1.11,11.24,1.86,13.78,4.19,3.57,2.06,6.81,2.88,11.09-4.12-2.57-5-6.49-7.18-9.41C969.15,815.74,965.72,812.78,968.43,809.25Z" fill="#0c0b0a"/><path d="M974.64,621.16c2.09-1.79,3-1.08,3,1.46l-8.39,22.16c-.08,1.28-.63,1.35-1.51.61q.63-3.52,1.25-7c-1.43-2.41-1-5-.79-7.59C968.91,626.61,970.67,623.13,974.64,621.16Z" fill="#201b1a"/><path d="M973.83,615.76c-2-1.48.17-4.69-2.45-5.91-.51.74-.17,2-1.29,2.34s-1.56-.68-1.91-1.56c-.31-5.53-4.08-10.78-1.25-16.54,1.48-2.37,3-2.47,4.48,0,1.5,3.88-.72,8.53,2.47,12.07C975.33,609.35,976.78,612.57,973.83,615.76Z" fill="#161314"/><path d="M967.82,715.32c.43-2.49-.49-4.75-1.27-7-1.58-4.55-2-9,.16-13.51.39-.54.77-.53,1.13,0,1.56,8.88,3.12,17.76,4.8,27.35C969,720.41,969.11,717.42,967.82,715.32Z" fill="#161314"/><path d="M977.63,977.62c-1.48-12.58-2-19.22,3.72-24.69-2.37,8.39,1.23,15.26-1.16,22.23C979.09,975.73,980.06,978.46,977.63,977.62Z" fill="#242021"/><path d="M975.69,772.29c3.49,2.24,3.26,6.16,3.62,9.45.47,4.29-.16,8.7-.26,13.07,0,2.3-1.15,1.31-2.15.77C973.89,788,976.88,780,975.69,772.29Z" fill="#0c0b0a"/><path d="M981,770.41c-2.56.41-2.19-1.52-2.38-3-.47-3.89-.66-7.84-2.08-11.56.36-2.15-1.34-4.83,2-6.65C978.27,756.6,985.69,762.67,981,770.41Z" fill="#0c0b0a"/><path d="M974.22,846.46c-4.37-5.29-6.35-11.18-4.56-18.05C972.65,834,974.54,839.93,974.22,846.46Z" fill="#0c0b0a"/><path d="M976.24,583.65c-.87,2.39.73,5.22-1.32,7.41-2-5.39-4.27-10.72-3.56-16.69l3.34-2.62C975.2,575.58,975.72,579.61,976.24,583.65Z" fill="#161314"/><path d="M972.31,899.41a7,7,0,0,1-.36-1.2c.26-3.82-.27-10.67,2.93-10.17,4.74.73,1.41,6.75,2.07,11.11C974.78,896.37,974.78,896.37,972.31,899.41Z" fill="#1f1b19"/><path d="M969.45,690.33h-.57l-.57,0c-.36-1.24-.72-2.48-1.09-3.72a2.39,2.39,0,0,1-.27-3.45c0-4,.08-8,.21-12,0-.49-.76-2.23,1.07-1.29.47.24.74.88,1.11,1.34C970.8,677.58,968.85,684,969.45,690.33Z" fill="#161314"/><path d="M977.18,850.39c1.89,4.33.06,7.74-2.09,11.37C972.32,857.34,970.74,853.36,977.18,850.39Z" fill="#1f1b19"/><path d="M979,832.75c1.13,4.45,4.65,8.35,2.76,15.08C979.75,841.85,977.31,837.74,979,832.75Z" fill="#0c0b0a"/><path d="M974.3,878.84c0-2.19-2-4-1.36-6.28.28-1.07-.16-2.69,1.37-2.91,1.32-.18,1.94,1.13,2.49,2.2a14.47,14.47,0,0,1,.24,5.82C976.86,879.41,975.92,880.11,974.3,878.84Z" fill="#1f1b19"/><path d="M970,749.94a16.67,16.67,0,0,1,2,11.55C969.16,757.83,967.86,754.81,970,749.94Z" fill="#0c0b0a"/><path d="M982,593.91c.36-4.66-2.34-9.69,1.76-14.78,1.49,4.76-1.72,8.42-.54,12.28C982.85,592.24,982.45,593.07,982,593.91Z" fill="#161314"/><path d="M977.59,937.84a15.46,15.46,0,0,1-.28-8.86C981.53,931.85,980.31,934.35,977.59,937.84Z" fill="#242021"/><path d="M983.37,893.68c-2.49-2-.64-4.82-1.41-7.14.13-1.35.25-2.69.39-4.2,2.91,1.68,1.81,4.37,2.28,6.56Z" fill="#1f1b19"/><path d="M980.24,820.08c.43-1.27,1.5-3,.51-3.81-3.52-3,.3-3.91,1.26-5.63,2.34,3.34,3.36,6.75.53,10.35l-2.21.22A1.19,1.19,0,0,0,980.24,820.08Z" fill="#0c0b0a"/><path d="M540.63,451.51c11.76-4.73,23.21-.66,34.74,1.22a9.75,9.75,0,0,0,6,1.22,2.46,2.46,0,0,1-1.19,2.4c-1.61.84-2.61-.14-3.59-1.2l-4.8-1.2c-5.86-.81-11.72-1.69-17.61-2.36-1.5-.17-4-.88-2.3,2.62,1.19,2.47-1.79,2.52-3.09,3.39-1.5,1-2.66.37-3.22-1.28-.41-1.2-.89-2.26-2.36-2.3-8.08-.22-16.19-.87-24.25-.49-6.05.27-12,.46-17.93-.85C514.22,451.62,527.37,449.71,540.63,451.51Z" fill="#1b1613"/><path d="M994.65,577.82c.11-.78.22-1.57.32-2.35a1.59,1.59,0,0,1,2.42.1c.94,11.69,2.26,23.31,0,35.08-.89,4.68,2.83,9.08,2.38,14.33-.53,6.22,1.48,12.61-1.2,18.79-.28.65.55,1.78.87,2.69a1.68,1.68,0,0,1-2.43.19,2.05,2.05,0,0,0-2.49,1,.93.93,0,0,1-1.49-.37,4.38,4.38,0,0,1-.36-1.82,7.85,7.85,0,0,1,.3-1.87c-.32-7.89,1.72-15.92-1.45-23.63-.73-4.27-2.09-8.45-2-12.86,0-3,.11-6,1.6-8.77,1.6-3,1.23-6.21.69-9.4C991.88,585,991,580.82,994.65,577.82Z" fill="#161314"/><path d="M942.15,342.65a3.51,3.51,0,0,1,.91.67c2.82,4.78,2.45,10.79,5.86,15.34a99.72,99.72,0,0,0,5.18,13.13c1.71,3.35,2,6.82-1.52,9.5a3.87,3.87,0,0,1-3.62.53c-1.32-1.43-1.42-3.37-2.13-5.06-1.76-6.09-4.25-11.93-5.49-16.21,2.08,5.69,3.16,13.52,4.45,21.32.28,2.95-.81,5.64-1.45,8.42a16.13,16.13,0,0,0,1.17,12.78c2.16,4,2.2,8.47,2.86,12.81-.21,3.24,1.2,5.9,3,8.4,3.07,5.82.45,11.68.15,17.53-.82,2.31-.69,4.73-.82,7.12-.12,2.15.09,4.53-2.55,5.54-.29.85-1.56-1.91-1.43.37.14,2.49-.06,4.8-2.4,6.33-1.72-.12-3.36-.88-3.35-2.64,0-5.95-1.57-12,.87-17.84,2.59,2.52.44,5.76,1.32,7.84-.34-3.87.83-8.28,1.33-12.76.52-4.72-1.39-9.4-3.14-13.87s-3.56-8.83-5.2-13.3c1.79-5.9,1.34-12,.69-17.9a112.66,112.66,0,0,1-.89-11.3c0-1,.33-2.26-.14-3-5.56-8.54-3.14-20-10.31-28a7.06,7.06,0,0,1-1.39-3.28c-2-10.4-6.71-19.16-14.9-26-1.07-.9-3.23-1.87-2.16-3.73s3.15-1.35,4.85-.63A48,48,0,0,1,935.37,336c2,3.56,3.62,7.38,5.48,11.22C942.67,345.82,941.57,344,942.15,342.65Z" fill="#332c27"/><path d="M944.34,461.17c.51-2.43,1-4.86,1.56-7.28,0-.05.36-.09.52,0a1.52,1.52,0,0,1,.47.34c.27.3.69.59.71.93.81,12.52,5.51,24.33,6.72,36.75.31,3.2,1,6.91-2.75,9.05-3.92-2-1.76-5.79-2.55-8.71.63-3.8-3.26-6-3.39-9.51-.1-5.06-3-9.39-3.72-14.29C945.28,466.87,944.14,463.79,944.34,461.17Z" fill="#291f1c"/><path d="M980.69,909.2c1.23-.93.09-3.17,2-3.7,1.76,4.2.29,8.06-1.18,11.93l-1.36-2.54C978.83,912.85,978.68,910.93,980.69,909.2Z" fill="#242021"/><path d="M954.35,944c.18-5.74.33-11.49.55-17.23.09-2.2,1.33-3.22,3.54-3-.42,4.66.61,9.19,1.6,13.65,2.28,10.34.75,20.52-.53,30.78-.33,2.63-1.5,5.54,2.5,7.64,2.74,1.44-1.42,4.31-1,6.78-.86.54-1.81,2.08-2.34-.3-1.83-8.27-4.41-16.33-2.85-25.15C956.61,952.94,956.92,948.12,954.35,944Z" fill="#242021"/><path d="M948.12,871.81c1.2-2.26,2.51-4.49,2.06-7.23-1.46-2,.81-3.65.36-5.54,3.87,6.06,3,13.25,4.6,19.85.4,1.67,0,3.53,1.32,5,.6,3.36,4.21,5.12,4.52,8.64.54,4.71,1.08,9.43,1.65,14.47-2.42-.91-1.11-3.52-3.11-4.45-1.33,6.16.58,12.25.23,18.34-3.37-2.72-2.51-6.57-2.32-10C958.2,896.86,954.1,884.12,948.12,871.81Z" fill="#1f1b19"/><path d="M958.62,371.05l1-3.72c.86,1.26.22,3.62,2.24,3.88,1.46.19,1.92-1.57,1.67-2.6-3.14-12.77,1-26-2.41-38.72,1.24,0-1.55-4.81,2.1-1.84a4.56,4.56,0,0,1,1.57,3.1c-.14,9.71,5.15,18.69,3.71,28.55-.87,1.48-2.68,2.27-2.64,4.44.11,7.95.06,15.9.11,23.85a3.8,3.8,0,0,0,2.17,3.32l.11,4.75c-1.86,11.68-4,23.33-4.34,35.21-.16,5.68-2.54,10.82-4.18,16.15a3.39,3.39,0,0,1-3.17,2,4.14,4.14,0,0,1-1.79-2.22c-1.51-3.28-.54-6.49,0-9.84a22.59,22.59,0,0,0-.71-10c-1.26-6.71-2.38-13.46-6.19-19.35a4.66,4.66,0,0,1-.69-4,2.65,2.65,0,0,1,1.18-1.27c2.14.13,4.36-2.12,6.45.18,1,3.47,1.08,7.11,1.84,10.62.29,1.47-.28,3.08,1.24,5.33-2.14-9.43,1.78-17.31,2.34-25.59.2-3,2-6.05-.37-8.94a4,4,0,0,1-1-1.39C958.23,379,955.78,375.07,958.62,371.05Z" fill="#332c27"/><path d="M968.34,504.53a10.29,10.29,0,0,0-1.11,0c-2,.66-1,2.42-1.34,3.71-.56,3.57-.74,7.18-1.3,10.75-.81,2.12-.45,4.66-2.31,6.4a2.9,2.9,0,0,1-2,0c-3.51-4.49-1.9-9.5-1.5-14.39,5.31-14.52,8-29.31,4.67-44.75a29.42,29.42,0,0,1-.35-5.94,21.78,21.78,0,0,0-1.23-8.22,11.2,11.2,0,0,1,1.44-10.91c2.46-3,2.59-5.9,2.4-9.41-.42-8,1.1-16,1.5-24a9.39,9.39,0,0,1,3.48-6.79c2.13,1.59,1.41,4,1,5.79-1.61,7.59-.68,15.14-.25,22.7.25,4.43.71,8.88-.74,13.11-2.56,7.47-.34,14.84,0,22.25a6.06,6.06,0,0,1,1.63,3.78c.16,9.17.83,18.37-.27,27.5C971.69,499.09,971.41,502.53,968.34,504.53Z" fill="#161314"/><path d="M987,441c-1,1.17-2,1.31-3.08.12-.55-2.73-2.54-4.68-3.7-7.05-1-2.14-1.67-4.68-.08-7-.74-3.72.08-7.75-2.23-11.16q1.86-7.14,3.71-14.27c3.69,1.25,1,3.88,1.24,5.88-.45,8.47-3.89,17.17,3.09,24.91C987.76,434.45,987.86,438,987,441Z" fill="#161314"/><path d="M985.37,477.36c-1.83,2.68-2.29,2.12-2.48-.85a127.17,127.17,0,0,1,1.21-25.72,1.35,1.35,0,0,1,1.81.65c2.76,6.93,2,14.18,1.89,21.36A5,5,0,0,1,985.37,477.36Z" fill="#161314"/><path d="M973.43,459.78l-.41,0-.42,0c-.68-6.09,1.58-11.75,2.32-17.84,2.7,1.8,1.8,5,3.44,7,.57,2.83,1.85,5.65.17,8.53.75,2,0,3.56-1.4,4.94-4-.81-1.14-4.86-3.1-6.61-.13-.82-.78.28,0-.05.22-.1.24.09.37.45A2.82,2.82,0,0,1,973.43,459.78Z" fill="#161314"/><path d="M951.63,384.44c2.92,2.32.13,5.44,1.11,8a.65.65,0,0,1-.17,1.08c-.75,1.56-1.49,3.11-2.24,4.66C947.19,393.29,950.46,389,951.63,384.44Z" fill="#332c27"/><path d="M631.51,582.74c-9.3-5.11-9.3-6.65-1.27-13.11,3.67-3,6.62-5.07,9.63.67,1.54,2.94,5,3.68,7.77,3.74,4,.08,4.81,1.7,4.06,5.07-2.08,9.39-3.78,18.82-5,28.39-.57,4.63-5.94,3.66-9.45,4.17-3,.44-5.1-1.38-5.45-4.33a97.24,97.24,0,0,0-4.33-19.23C626.24,584.27,629.58,584.54,631.51,582.74Z" fill="#766b5e"/><path d="M664.08,612.6c1,.3,1.91.63,1.41,2-2.56,7.2-2.53,14.88-4.16,22.25-.37,1.65.31,4.57-3.33,4.57-2.94,0-5.13-.52-5.91-3.55-.93-3.61-3.24-6.38-5.38-9.23-1.19-1.59-2.23-2.89-.15-4.49,2.9-2.23.26-2.86-1.16-3.54-2.13-1-5.06-1.31-3-4.85,1.43-2.5,2.76-4.92,6.46-3.27,4.17,1.87,8.54.67,12.83.25A2.06,2.06,0,0,1,664.08,612.6Z" fill="#685f54"/><path d="M664.08,612.6l-2.44.15c-4.22-6.19-1.67-11,3-15.52,3.26-3.12,5.09-7.59,9.79-10.29C672.11,596.33,668,604.41,664.08,612.6Z" fill="#1b1613"/><path d="M667.68,552.18c-3.48,8.13-10.15,11.36-14.27,16.84-.94,1.26-2.93.54-3.93-1.14-1.16-2-1.32-3.68.74-5.19A98.34,98.34,0,0,1,667.68,552.18Z" fill="#1b1613"/><path d="M666.35,582.1a10.43,10.43,0,0,1-9.27-.93C661.17,580.45,663.51,579.5,666.35,582.1Z" fill="#1b1613"/><path d="M552.06,553h10.11C559.32,553.08,556.72,556.23,552.06,553Z" fill="#231d17"/><path d="M576.57,455.15l3.59,1.2c.17,4.24,5.93,2.58,6.82,6.34C575.06,461,575,460.88,576.57,455.15Z" fill="#2a231d"/><path d="M946.84,745.62c3.46,4.14,3.8,8.6,2.17,13.71-2.41,7.56,1,14.88,1.83,22.27.87,7.72-.08,15.81,4.18,23.14,1.05,1.8-.75,5.28-1.24,8-1,.44-1.82.62-2.22-.79-1.62-5.71-3.28-11.42-4.93-17.13-.06-8.83-2.81-17.41-2.43-26.28,0-1.34,0-2.68,0-4l0-2.32Q945.52,753.91,946.84,745.62Z" fill="#0c0b0a"/><path d="M944.34,637c3.21-.86,2.34,1.51,2.43,3.11,1.68,16,3.36,32,6.35,47.78.9,4.77.7,4.81-2.75,5.25a18.58,18.58,0,0,1-4.53-9.54c-1.37-10.32-5-19.94-8.07-28.74a2.19,2.19,0,0,1-.71,2.6c-5,9.43-14.5,9.19-23.9,4.47a27.42,27.42,0,0,1-14-15.27c-1.55-3.84-6.77-6.53-2.9-11.79.36-.49-.28-1.9-.69-2.77-4.2-9-1.33-15.53,7.68-19.07,8.35-3.28,17-3.63,25.72-3.83,4.51-.11,6.26,1.73,5.77,6.07,1.92,9.48,4.38,18.84,6.29,28.48C942.32,641.52,941.22,638.22,944.34,637Z" fill="#2a2521"/><path d="M944.34,637c-2,1.87-.67,4.12-.59,6.18.06,1.56-.13,2.88-1.58,3.46-2.1.84-2.27-1.12-2.53-2.29q-3.06-13.89-5.89-27.85c-.07-.32.67-.81,1-1.23l1.08,1.45c2.39.71,1.3-2.23,2.68-2.58l1.5-3.74,1,0c-.22,3.8-.34,7.61-.67,11.4C939.82,627.44,940.3,632.7,944.34,637Z" fill="#17161b"/><path d="M938.54,614.18l-.42,5.74c-2.36-.06-2-1.85-2.26-3.16A4,4,0,0,1,938.54,614.18Z" fill="#161314"/><path d="M950.2,547.9c.76-.86-.86-3,1.76-2.94,2,.08,2.26,1.43,2.11,2.81-1,9.54,4.35,18,4.48,27.35,0,2.21.14,5,3.62,2.47.65,4.8-1.86,4.2-4.81,2.86-.28-.15-.57-.28-.85-.4.27-9-5.56-16.66-5.64-25.6A65.76,65.76,0,0,0,950.2,547.9Z" fill="#161314"/><path d="M953.74,608.16c1.49,5.49-.27,10.62-1.41,16-2.5-1.4-1.54-4.14-2.9-5.75.82-4.51,1.65-9,2.5-13.65C953.79,605.38,952.62,607.37,953.74,608.16Z" fill="#161314"/><path d="M995.9,545.6c1.6,7-3.25,12.62-3.81,19.15-1.81,3,1.16,7.6-3.37,9.59-1.66-8.37,2.22-16.39,1.49-24.71-.47-5.37-2-10.81.73-16,1.12-1.12.6-3.21,2.33-4a2.22,2.22,0,0,1,1.56.22,1.42,1.42,0,0,1-.11,1.51l-.25,2.24C993.58,537.76,993.69,541.81,995.9,545.6Z" fill="#161314"/><path d="M991.89,500.23c.19,3.06.39,6.11.59,9.17-.74,1.78-.09,3.26,1,4.65,0,.85-.05,1.71-.07,2.56-.52,1.16-1.18,2-2.63,1.34-1.3-5.61-2.68-11.2-3.84-16.83-.43-2.09.47-4.39,2.5-4.76C992.2,495.86,990.53,499.23,991.89,500.23Z" fill="#161314"/><path d="M981.49,517.35l2.63-1.34c1,.66,2.94-1.69,3.38,1-1.88,1.37-.34,3.5-1.13,5.1-1.49,4.28-.49,9.08-2.67,13.22l-.81,0c-1.72-3.48.31-7.35-1.11-10.86C981.68,522.11,981.59,519.73,981.49,517.35Z" fill="#161314"/><path d="M955.09,744.1c1.59,1.12,1.61,2.77,1.48,4.47-1.76,4.22,4.37,5.39,3.55,9.25-1.59,9.58-.11,19,1.67,28.36,1.14,6,.19,12,.33,18L959.81,806c-.75-7.19-3.93-13.88-3.45-21.43a102.28,102.28,0,0,0-1.12-19.67A80.84,80.84,0,0,1,955.09,744.1Z" fill="#0c0b0a"/><path d="M992.4,823.55a13.6,13.6,0,0,0-.59-1.37c-1.83.62-2,2.22-2.14,3.82-3.42-4-3.36-8.35-.95-12.72,1.14-2.06,2.41-4,2.27-6.47.49-5.1,1.14-10.16,3.77-14.71,2.42,2.52,4.16,5.32,3.79,9l-.3,2.06c-1.11,1.15-.17,2.85-1.06,4.06-3.24,1.65-1.8,4.68-2.21,7.22C994.48,817.57,996.75,821.54,992.4,823.55Z" fill="#0c0b0a"/><path d="M997,861l-1.53,5.86c0,7-.5,14-3.28,20.6-1.94,1.33-2.39.4-2.27-1.48s1.49-3.78.89-5.87c1-6-.78-12.62,3.77-17.88Z" fill="#1f1b19"/><path d="M983.6,622.56c-.69-.78-1.38-1.55-2.06-2.33a25,25,0,0,1-.22-16.84c2,2,3.06,5.68,2.92,10.8C984.16,617,983.82,619.77,983.6,622.56Z" fill="#161314"/><path d="M966.16,538.2q-.54-4.16-1.06-8.31c2.76-4.95,3.08.86,4.67,1.07-.41,2.06-.88,4.12-1.24,6.19C968.25,538.81,967.41,538.92,966.16,538.2Z" fill="#161314"/><path d="M962.15,475.74c.11,4.79.56,9.62.18,14.37-.17,2.22,0,5.43-3.4,6.23-1.2.17-1.81-.25-1.54-1.55L959,483c-1.34-6.86-.46-13.85-1.25-20.74l0-2.15c3.4-.64,3.3,1.61,3.36,3.94C961.19,468,960.61,472,962.15,475.74Z" fill="#291f1c"/><path d="M891.9,341.1c-2.6,4.54-7.76,6.45-11.51,4.27s-4.69-7.62-2.09-12.16,7.13-5.72,14.54-5C893.89,331.94,894.51,336.56,891.9,341.1Z" fill="#291f1c"/><path d="M891.08,342.34c-1.51,2.54-3.81,4.48-6.8,4.3-4.48-.28-6.7-3.5-7.38-7.43-.5-2.93,2.1-2.94,4.4-3.39C886.69,334.77,888.06,340.3,891.08,342.34Z" fill="#161314"/><path d="M892.14,331.68c-.71,1.6-1.11,3.16-2.77,3.08-2.29-.11-1.73-2.3-2-3.62-.4-1.79.91-1.91,2.1-1.23C890.39,330.44,892.42,329.83,892.14,331.68Z" fill="#8d7f70"/></g><g id="frame"><rect width="1000" height="1000" fill="none"/></g></svg>