<!-- Copyright (c) 2022 - 2023 Jan Stehno -->
<svg xmlns="http://www.w3.org/2000/svg" viewBox="0 0 1000 1000"><title>blackbuck</title><g id="blackbuck"><path d="M679,782.71c6.25,4.39,5.22,11.48,6,17.55,3.18,24.43,11.32,47,23.21,68.61,8.13,14.79,17.08,29,26.59,42.86,6.48,9.44,15,17.53,22.71,26.09,11.06,12.23,22.24,24.34,33.37,36.5.72.78,1.5,1.52,2.81,2.84.8-4.8-.84-8.66-1.13-12.72,4.17,6.31,5.82,13.68,8.24,21.16,2.49-1.65.64-4.34,3-5.7.93,3.68-.86,8.32,4.29,10.72,0-7.17-1.09-13.91,2.36-21.41,1.52,9.49,2.87,17.92,4.23,26.35l1.51-.2-2-28.8c-.41-.94,0-2-.62-3,.81.38,1.19,1.19,1.93,1.56,4.12,5.78,6.82,12.28,9.41,18.73,3.54-10.44-1.14-19.86-3.18-29.78,1.1,4.95,8.61,5.87,7.31,12.19,1.07,1.27,0,3.2,1.63,4.6,2.71-1.56,1.74-4.18,1.86-6.44-.35-6.08-2.16-11.78-4.78-18.43,2.54,5.85,3.82,11,5.38,16,1.68,2.65-.25,6.72,3.43,8.58,1.6.19.51-4.16,3.91-1.94,1.6,1,2-2.14,1.68-3.54-1.75-7-1.18-14.14-2.46-20.53,1.12,3.15,2.21,6.9,3.22,10.69.52,1.93,1.66,4.4,3.73,4.3,2.36-.11,2.43-2.88,2.68-4.81.54-4.27.75-8.58,2.16-13.72-.5,5.88-1.35,10.84.84,15.56.5,1.08.78,2.73,2.48,2.42,1.18-.21,1.65-1.51,1.8-2.55.76-5.44,3.64-10.35,4-15.88-.15-.76-.27-1.54-.45-2.29a26.62,26.62,0,0,1-2-5.45,26.36,26.36,0,0,1,1.16,3.59c1.57,3.28,2.41,6.83,3.85,10.15.59,1.35,1.3,3,2.91,2.89s1.91-2,2.37-3.34c1.89-5.6,1.2-11.09-1.08-17.33,2.32,2.72,4.33,1.19,6.36.76,1.23-3.46.34-6.88-.13-10.31.5-6.33-1.59-12.76,1.16-19,1.51-3.45-.79-5.45-3.81-6.73-3.35-1.42-5.11,0-6.31,3.13-1,2.61-.86,5.33-1.1,8.5-3.93-1-6.13-3.06-6.69-6.65-1.14-7.39-3.83-12.31-12.89-12.51-7.12-.15-10.64-6.48-9.71-13.94.41-3.22,1.39-6.47.17-9.74-2.44-3.14-5.73-5.54-7.15-9.58-1.15-3.29-5-3.68-7.8-4.69-4.4-1.57-7-3.88-6.3-8.85.31-2.12-.87-3.82-1.72-5.67a18.38,18.38,0,0,1-1.69-9.63,7.63,7.63,0,0,0-3.28-7.65c-2.33-1.65-3.07-4-3-6.72a18.5,18.5,0,0,0-3.18-11.27c-2.35-3.66-2-8.8-2.3-13.3-.24-3.87-1.39-6.81-4.75-8.68-4.23-2.35-6.33-6-7.06-10.59-.5-3.06-2.27-4.89-4.63-7-3.73-3.31-6.54-7.66-9.85-11.49-1.06-1.23-1.74-2.81-3.06-3.87-1.9-1.53-4-2.93-6.55-2.24-2.84.77-3.09,3.36-3.46,5.72-.28,1.81-.53,3.63-.66,5.46-.52,7.14.52,8.58,7.83,9.6,2.6.36,3.41,1.89,3.91,3.92a50.11,50.11,0,0,1,.8,7.65c.2,2.2.09,4.76,1.73,6.25,6.26,5.7,6.56,13.11,6.48,20.32-.08-.28,0-.94-.06-1.58-.32-1.86.47-4.73-2.4-4.74s-3.83,2.68-3.77,5.18c.13,6-1.41,12.06.57,18a5,5,0,0,1-.73,5.2c-2,.24-1.85-3.78-4.26-2.18-2.2,1.46-2.08,3.95-1.36,6,1.66,4.71.47,8.2-3.75,10.81-1,.62-1.7,2.46-3.12,1.34-1.22-1-.51-2.5.26-3.49,3.32-4.2,3.46-9.15,3.64-14.11a9.57,9.57,0,0,0-.29-3.81c-.69-1.87-1.29-4.47-3.73-4-2.13.39-1,2.73-.83,4.22a8,8,0,0,1-2,6.09,9.48,9.48,0,0,0-2.44,6c0,2.2-.5,4.08-3.24,4.2-1.56.07-3.43,1.3-4.6-.52a5.39,5.39,0,0,1,.17-5.79,29.1,29.1,0,0,0,3.76-9.66c.68-3.24,1-6.15-2.4-8.18-1.72-1-1.87-2.59-1-4.3,1.6-3.09.29-5.76-1.47-8.18-2.72-3.75-7.25-3.25-9.31.9-2.6,5.25-2.6,5.25-6,8,0-2,2.17-2.53,2.65-4.15s.46-3.74-1.12-3.59c-3.82.37-3.69-2-4-4.35a4.65,4.65,0,0,0-2.74-3.87c-3.47-1.52-3.41-4.45-3-7.47.27-1.82.64-4,2.56-4.57s1.8,1.85,2.64,2.88c1.15,1.42,2.53,2.3,4.32,1.68a8.8,8.8,0,0,0,5.76-5.54c.65-1.91.44-4,.94-6,1.24-4.9,4.7-7,9.39-5.29,2.21.83,3,.25,3.74-1.55,2.2-5.07,3.14-10.52,4.95-15.71,1-2.75-.73-5.08-3.46-6.09-2.89-1.07-5,.14-6.33,2.85-.71,1.46-.88,3.19-2.4,4.66-1.44-3.18-1.34-6.35-1.24-9.54.12-3.9-1.73-6.76-5.69-6.67-6.89.15-12.73-5.21-19.9-3.3-1.86.5-2.2-1.5-2.76-2.83-1.11-2.62-3-3.89-5.71-2.46s-5.91,1-8.41,2c-7.74,3.18-14.69-.93-22-1.33a9,9,0,0,0-1.48-.61c-2.91-.22-5.43-2.28-8.5-1.82-1,.19-2,.54-3,.83-2.63.74-5.27,1.39-7.94.06-2.58-.44-4.83.67-7.14,1.47-3.15,1.51-6.38.89-9.61.37-2.56,0-4.89-1.18-7.38-1.53a83,83,0,0,1-16.08,2.32,35.28,35.28,0,0,0-15.2,6c-6.45,4.45-13.44,5.34-20.77,1.42-3.07-1.65-6.3.66-6.76,4.81a32.58,32.58,0,0,0,.41,10.37c3.35,1.48,4.5-1.09,5-3.27,1.11-4.39,3.87-4.82,7.57-4a13.34,13.34,0,0,1,3.23.75c7.22,3.7,13.08.59,17.95-4.24A17.07,17.07,0,0,1,621.7,733c10.53-.12,20.91,1.86,31.42,2a12,12,0,0,0,3.83-.2c7.16-2.28,14.15-2.63,20.74,1.78.6.4-.12.37.47.21,6.44-1.8,9.9,4.16,15.08,5.64,2.27.65,4.13.88,6.33-.2,7-3.44,14.16-5.41,21.4-.33,1.73,1.21,3.82,1,5.89,1,3.74,0,5.43,2.35,3.22,5.27-6.94,9.15-13.6,18.68-26.32,21.12-5.9,1.12-10.62,5-14.31,9.72-1.25,1.61-2.33,3.29-4.16,4.29C683.06,784.59,681.3,780.32,679,782.71Z" fill="#49382d"/><path d="M833.83,862.45c-.66,3.74-.28,7.59-1.45,11.3-1.52,4.79,3.8,7.64,2.92,13.67,2.81-3,4.85-5,5.84-.67.28,1.26.75,2.22,2.69,1.65,6-1.77,10.9,1.57,11.18,8.18.21,4.91,2.54,7.74,6.54,9.88,1,.51,1.76,1.48,3,.67a2.66,2.66,0,0,0,1-3.41,6.44,6.44,0,0,1,.38-6.24c.69-1.29-.09-3.86,2.46-3.52,1.94.25,4.08.87,5.26,2.7,1,1.61.61,3.13-1,4.31-.42.31-1,.85-1,1.27.17,5.33.43,10.66.67,16,2.51,2,.56,5.22,2.1,7.48.9,1.33.6,4.41,3.76,2.6,4-8.06,3-16.68,2.93-25.2.08-.72,1,0,.27-.2-.67,7.83.59,15.58,1,23.37.3,1.87.34,3.9,2.59,4.72,1.57,0,2.15-1.08,2.55-2.34,1.45-6.85,1.34-13.89,2.49-20.77.24-5.15-3.32-8.93-4.9-13.3a8,8,0,0,0,2.24,1.86c1.94.83,3.85,1.06,5.7-.21,1.5-2.43,1.47-5.06,1.08-7.79,1,1.88,1.66,4,3.25,5.57.79.77,1.62,1.67,2.84,1.29s1.42-1.64,1.47-2.7c.24-5.08,1.26-10.19-1.3-15.1-1.86-3.58-1.88-7.82-3.78-11.43-2.11-2.37-2.37-5.79-4.46-8.17,1.88,2,2.23,4.77,3.75,6.93,5,9.23,10.09,18.39,7.73,29.56-.43,2.06.19,4.32.35,6.48a7.44,7.44,0,0,1-1,5.42,6.21,6.21,0,0,0,0,3.34c1.1,1.75.15,4.88,3.49,5.14,2.93-9.44,1.86-19.51,4.67-29,1.31-1.79.29-3.54-.2-5.23-2.18-7.57-4.11-15.21-6.89-22.59,2.75,1.59,1,7.68,6.57,6.44-.19,3.71,1.44,7.14,1.67,10.81.3,4.9,0,10,2.74,14.42,1.87,2.07,1.95,6.86,5.22,6.11,3-.7,1.74-5,2.11-7.77.81-6-2.11-11.38-3.08-17.1-1.15-6.84-2.76-13.56-1-20.52a5,5,0,0,0-.79-4.17c-.57-.73-1.28-1.55-2.18-1.55-4.88,0-6.25-3.49-7.72-7.15-1.67-4.15-2.39-4.36-6.26-2.48-1.11.54-.55-.49-.56-.56-.4-2.15-2.33-2.64-3.85-3.61-5-3.2-5-3.22-6.54,2.38,0-.73-.2.19-.16-.07.69-4.43-.56-7.25-5.65-7.09-2.86.1-4.52-1-4.67-4-.1-2.13-1.44-3.69-3-5-2.4-2-4.57-2.3-6.33.77-.37.64-.7,1.29-1.08,1.91-3.93,6.3-4.33,6.4-10.66,2.87-3-.44-6.09.45-8.94-1.88-1.94-1.57-8.4,2.7-10,6.06-3.43-2.57-3.59-6.52-4.22-10.3-.31-1.83-.6-4-3-3.94-2.6,0-2.94,2.21-3.34,4.29-.94,4.94,2.78,8.43,4,12.71-1.38-5.62-7-8.92-8.07-14.79-.6-3.22-1.55-5.49,3-6.45,4-.85,3.08-4.1,1.61-6.52-1.35-2.22-2.52-4.14-2.51-7,0-3.27-3.25-4.18-5.82-5.09s-4.79-2.44-4.55-5.43c.42-5.14-3.05-7.55-6.58-10-2.88-2-6.15-3.37-8.62-5.95-2.71-2.84-3.94-5.93-4.65-10a34.94,34.94,0,0,0-8.59-17.82,34.26,34.26,0,0,0-4.1-3.68c-2.25-1.77-2.81-3.34-.87-5.94,4.06-5.41,3.61-11.07-.65-16.13-2.16-2.57-1.84-4.47.05-6.74,1.21-1.46,2.35-3.14.41-4.8-1.7-1.45-3.13-.06-4.39.94-2.32,1.84-4.53,3-7.46,1-2.09-1.44-2.84.58-3.76,1.9-.77,1.1-1.71,1.41-2.7.29s-1.21-2.44.36-3.16a55.09,55.09,0,0,0,7-4.41,5.48,5.48,0,0,0,1.29-8.45c-.61-.77-1.33-1.58-2.22-.8-3.43,3-4.92.35-6.28-2.13s-2.82-2.87-5.45-2.19C753,688,750.83,687,747,680.92c-2-3.12-4.71-5.61-7.19-8.25-3.94-4.19-8-3.35-11.26,1.62-.63,1-1.78,1.27-2.58,2a4.91,4.91,0,0,0-1.44,1.91c.34,4.87-1.83,8.92-3.53,13.36-2.08,5.41-2,11.43-10.38,10-1.09-.18-2.54,1.27-2.68,2.48-.74,6.42-6.1,11.07-6.69,17.5,2.86,2,5,.69,6.38-1.8,1.78-3.17,4.17-6.14,4.65-9.87s2.4-3.86,5.45-3.16c5.62,1.29,5.79,1.18,6.1-4.72a16,16,0,0,1,4.38-10.85c.91-1,1.53-2.19,3-1.81,3.87,1,5.26-1.18,5.49-4.66,2.51,1.16,2.37,3.16,2.59,4.88.57,4.34,3.31,5.27,7.13,4.75,7.06-1,7-1,7.54,6.07.1,1.46.77,2.82.88,4.29a4.22,4.22,0,0,0,.86,2.12c6.9,3.14,7.38,4.87,3.58,12.77a4.15,4.15,0,0,0-.37,2.38c1,2.58,1.45,5.29,2.18,7.93,1.43,5.17,6.8,9.3,11.94,9.29,1,0,2-.23,2.46.69,1.73,3.3,6.41,4,7.62,6.86,2.81,6.52,8.74,11.2,10.26,18.42,1.14,5.39,2.76,10.67,8.87,13,2.61,1,3.06,3.53,2.72,6-1.14,8.55,2.19,16.17,5,23.91a7.49,7.49,0,0,0,3.26,4.32c6.16,3.33,7.07,9.27,7,15.12,0,6.46.18,12.47,5.87,16.84a3.22,3.22,0,0,1,1.12,3C826.79,853.5,829.9,858.14,833.83,862.45Z" fill="#584739"/><path d="M858.92,823.23c7,6.75,6.79,3.92,11.94-2.78,1.06-1.38.56-4.85,3.42-3.75,2.19.83,5,2.72,4.49,5.65-.87,4.69,2,5,5.23,5.3,5.75.47,6.26,1.25,4.29,6.72a3.75,3.75,0,0,0-.23,1.55c0,.3.39.58.93,1.31,1.42-2.62,4.37-4.14,3.52-8,3.1,3.47,9.09,4.12,7.87,10.54,3.59-1.2,2.08-3.65,2.21-5.55,2.71.09,3.57,2,4,3.92,1.16,5.09,3.57,8.46,9.51,7.6,1.72-2.74.36-4.76-1.58-6.63-6,.66-2.67-2.76-2.2-4.9-.47-.52.15.17.06-.51-.07-.45.12-.32.36.21,2.76,6.15,6.66,11.77,8.8,18.23a7.85,7.85,0,0,0,2.79,2.82c2.78,4.76,2.5,10.33,4.07,15.41.81,2.61,1.17,5.36,2,8,.44,1.39,1,3,2.8,2.88s2.15-1.81,2.6-3.21a11,11,0,0,0,.49-4.33,151,151,0,0,1,.14-29.53c.38-3.46-1.52-7,1.23-10.44,1-1.2.12-3.54-.63-5.26-1.81-2-3.63-4.06-3.28-7.08A96,96,0,0,0,930,801.2a.62.62,0,0,1,.39-.17c.16,0,.29.19.47.32,3.26,1.33,3.21-1.41,4-3.13a10.56,10.56,0,0,0,.31-2.5c0-1.42-.11-2.82-.18-4.23-.11-1.63-.24-3.27-.37-4.9-.32-3.86-1.33-6.44-6.22-4.47-2.72,1.1-5.62-.33-7.9-1.69-3.41-2-6.22-4.81-10.41-5.78-2.59-.59-2.77-3.56-2.46-6.07.22-1.74,0-3.35-1.91-4.11a3.76,3.76,0,0,0-4.55,1.06c-2.27,3.22-4.45,2.14-7,.51-2-1.29-4.27-2.17-6.35-3.35-1.51-.85-3.08-2.15-2.25-3.91,2.35-5-.91-8.31-3.13-12-10.08-8.52-19.21-18.12-30.08-25.73-1.65-1.16-3.08-2.63-5.07-3.25-1.21,2.57-1.21,2.57-.11,5.88-3.17-.79-4.41-3.72-6.7-5.34a2.43,2.43,0,0,0-1.52.2c-3.08,4-2.29,8.14.59,11.53,2.73,3.22,5.78,6.14,7.84,9.88a4,4,0,0,0,1.5,1.6c11.89,6.17,19.67,17.58,31.32,24.07a39.22,39.22,0,0,1,10.07,8.49c.85,1,1.43,2.48,2.59,2.8,8.75,2.46,15.27,8.51,21.85,13.72-4.33,2.19-6.28,1.91-9.42-1.79-2.87-3.38-6-4-8.86-.65-2.68,3.06-5,2.42-7.72.83-2.86-1.7-5.69-3.34-9.11-3.74-2.48-.29-3.9-1.88-4.56-4.22-1.06-3.71-3.22-6.12-7.42-6.19a5.57,5.57,0,0,1-4.23-2.23c-3.8-4.27-4.26-4.24-9-.55-1.34-.85-1.58-2.41-1.91-3.69-1.11-4.45-3.61-6.68-8.39-5.8-2.93.54-4.11-.77-4.06-3.6.08-4.79-2.17-8.43-6-11.15-2-1.41-4.35-3-6.54-1-2,1.8-.48,4.14.47,6,1.24,2.45,3.12,4.52,4.62,7.13-1.3,0-1.85-1-2.66-1.49-1-.57-2-1.3-3-.44a2.56,2.56,0,0,0-.43,3.51c4.1,4.74,2.49,10.31,2.68,15.63.1,2.58.56,5,5,4.14-4.79,4.54-4.09,8.54-.72,12.68a7.79,7.79,0,0,1,1.41,7.29c-1.16,4.12,1.07,6.7,4.34,8.54,3.66,2.06,5.92,1,6.51-3.2.38-2.76,1.2-5,3.94-6.07,6-2.43,8-1,7.31,5.26-.35,3.15-1,6-3.14,8.63-3.48,4.23-3.37,4.29,1.72,7A32.88,32.88,0,0,1,858.92,823.23Z" fill="#675346"/><path d="M547.25,759.88c15.38-3.87,30,1,44.79,3.87a42.13,42.13,0,0,0,4.35.42c4-1.39,3.38-3.37.33-4.93a26,26,0,0,0-9.89-2.48c-5.4.49-10.08-1.87-14.77-3.91-3.36-1.46-3.69-4-.7-6.2,3.74-2.72,4.34-5.65,1.85-9.38-1.79-3.21-1.09-6.8-1.56-10.2-.25-1.77-.39-3.8,1.71-4.79,1.8-.85,3.15.35,4.52,1.28,5.72,3.93,12.43,5.73,18.92,4.53,4.78-.88,9.68-1.61,14.43-2.75a103.39,103.39,0,0,1,23.43-3.26c5-.05,9.87-2.45,15.08-2.67,2.5-.1,4.21-2.25,4-5.08-.25-3-4.22-6.79-7.32-6.36-6.68.91-12.7-1.43-18.7-3.46-3.28-1.11-6.68.78-9.7-1.12-7.32-2.48-14.94-1.95-22.46-2-3.6,0-6.63-.86-8.86-3.58-2-2.49-4.55-3.38-7.7-3.58a22.86,22.86,0,0,1-12.91-4.45c-3.52-2.72-8.5-1.39-11.93-5.08-3.62-3.9-4.36-4.93-.83-8.85a44.38,44.38,0,0,0,8.87-14.39c1.49-4.07.37-5.58-4-4.77a113.37,113.37,0,0,0-11.36,2.5c-7.32,2.16-7.33,2.11-11.48-3.65-7.9,6.36-17.32,10.71-24.38,18.17-2.06,4-.18,7.4,2.66,9.79a51,51,0,0,1,13.86,18.74c3.14,7.17,6.39,14.5,7.23,22.47.24,2.25.46,4.53,3,5.33s4.23-.82,5.71-2.49c2.78-3.14,6-5.78,8.29-9.47,2.53-4.09,7.33-4.52,11.83-4.75,1.94-.1,2.92,1.13,2.48,2.76-1.71,6.38,2.41,12.6.33,19-.82,2.49,1.68,4.34,1.8,7-2.61.93-5.21,1.68-8,1.15-3.82-1-7.41-1.24-9.67,2.87-.07,1.58.43,3.22-1,4.62s-1.91,2.9-.58,4.41,3.46,1.43,5.1.53c3.23-1.77,6.24-1.21,9.83.28-4.46.73-8.51.54-12.46,1.16C549.71,757.28,547.16,756.82,547.25,759.88Z" fill="#685648"/><path d="M535.34,655.51c1.16,7.32,2.52,8,9.24,5.89,4.87-1.56,9.89-2.69,14.89-3.79,2.37-.53,3,.41,1.78,2.71-3.42,6.18-5.6,13.23-12.46,16.93-.9.49-1.32,1.17-.68,2.22,3.23,5.21,6.36,10.51,13.85,9.83a2.52,2.52,0,0,1,2.48.89c2.49,3.51,6.59,4,10.23,4.75,4.91,1,9.94,1,13.15,5.82,2.5,3.78,6.67,1.84,10,1.92a161.93,161.93,0,0,1,20,1.49c4.5,1,9.12,0,13.62.83,2.21-1.46.6-2.51-.57-3.23a10.66,10.66,0,0,0-6.42-1.37A31.53,31.53,0,0,1,604.11,695c-4-2.64-8.06-5.17-12.82-6.38-2.18-.56-3.79-2.16-5.23-3.91-4.85-5.93-10.95-8.44-18.63-6.49-1.4.35-3,1-4.21-.17s-.1-2.82.51-4c3-5.9,6.07-11.71,11.85-15.52a12.1,12.1,0,0,1,6.18-2.15c7.8-.39,9.61,1.6,8.32,9.23-1.54,9.19,4.44,16.43,14,16.78,4,.15,7.5,1.66,11.18,2.93,3.41,1.18,7.27,3.79,10.43-.72.66-.94,1.74-1,2.3-.18,4.45,6.94,12.66,10.11,17.18,16.94.08.13,0,.36.05.87-2.15,1.55-6.07-.38-7.48,3.08,1.21,3.06,3.88,3,6.46,2.8,1.65-.1,3.26-.64,4.84.28,1.15.66,2.39,1.21,3.54.14s.81-2.65.38-4.07c-1.26-4.12-4.63-7-6.51-10.71a13,13,0,0,0-4.94-5c-6.28-3.86-7.54-10.25-10.22-16.51-3-6.94-2.7-17.23-13.31-19.58a7.43,7.43,0,0,1-5.11-4.69,11.7,11.7,0,0,0-4.06-4.81c-5.88-5.27-11.22-2.29-17.47,2.15,3.6-7.2,7.63-12.8,9.94-18.8,2.14-5.56,6.29-8.78,9.38-13.14,1.4-2,2-4.3,3.26-6.33,1.32-2.89,2.92-5,6.68-3.38,2.61,1.1,4.48-.75,6.31-2.22,1.55-1.25,2.79-2.83,4.42-4,2.89-3.11,6.65-5.45,8.61-9.41,0-5-2.91-4-5.93-2.84a21.56,21.56,0,0,0-3.8,2.12c-11.44,9.72-23.58,18.54-34.94,28.43a237.49,237.49,0,0,1-43.92,30.24C545.86,648.79,540.67,652.28,535.34,655.51Z" fill="#59493c"/><path d="M586.08,758.13c3.38-.13,6.45,1.27,9.65,2,3.41.76,2.22,2.42.66,4.06h0c7.78-.07,15.25,1.66,22.62,3.94,5.27,1,10.33,3.07,15.8,3.13-.72-3.09-3.87-3.13-5.93-4.32-9.11-5.28-18.52-9.9-29.43-10.16-1.22,0-2.64,0-3.42-1.86,13.35,3.55,27,4.07,40,8.17a5.37,5.37,0,0,0,2.18.38c11.89-1.32,24,.32,35.79-2.17a14.4,14.4,0,0,0,5.54-2.38c7.74-5.56,17-6.67,26-8.21,5.12-.88,5.25.23,5.68,5.28.51,5.88-1.73,8.07-7.36,9.45-5.84,1.43-11,5-16.6,7.46-5.4,2.38-6,6.73-2.51,11.61a4.94,4.94,0,0,0,4.63-2.48c4-6.65,9.61-10,17.59-11.76s14.28-8,19.11-14.74c2.15-3,5.82-4.73,6.37-9.26.59-4.9-2.23-5.84-5.27-5a7.07,7.07,0,0,1-6.6-1.15c-7.19-5.17-14.24-2.8-21.13.47-3.29,1.56-11-.34-12.45-3.65-.52-1.16-.95-3.22-2.25-2.35-4.78,3.2-8.1-.8-11.93-2-2.16-.66-4.25-1.27-6.49-.86-13,2.41-25.84,1-38.84-.22-7.32-.66-15.41-1.15-20.74,6.9-3,4.46-9.7,4.74-14.84,2.83a33.58,33.58,0,0,0-8.57-1.53c-2.34-.22-3.72.95-4,3.51s-.69,5.21-4,5.77c-2.36-.3-3.35,1.16-3.57,3.08-.25,2.14,1.84,1.69,3,2.29C578.4,756.18,582.55,756.24,586.08,758.13Z" fill="#372b23"/><path d="M751.62,558.45c0-4.64,2.38-7,7-7.27,5.75-6,13.12-8.33,21.16-8.59a28.19,28.19,0,0,0,22.89-12,8.17,8.17,0,0,1,3.34-2.79c2.8-1.21,4.11-3,2.45-6a2.57,2.57,0,0,1,0-2.65c5.46-7.87,1.87-17.19,4.24-25.58,1.48-5.23,1.71-10.87,6.63-14.54,2.2-1.64,1.49-3.8.72-6.17,1.44,3.65,3.46,5.42,7.17,3.29l5-3.65c.47-1.16.21-2.55-.71-3-4.76-2.08-2.71-4.9-1.06-7.74,1-2.49-.27-4.76-.71-7.12-1.13-3.47-3.78-5.14-7.17-5.94-1.49-.34-2.51,0-2.77,1.67-.11,3.65-1.75,5-4.85,3.92-1-.36-1.84-1.08-3-1-3.27,2.81.48,4.49,1.22,7.13-3-1.32-2.75-4.76-5-6.13a2.08,2.08,0,0,0-1.5-.41c-2.38,1-2.56,3.29-3.17,5.33-1.5,5.95,1.78,10.37,4.86,14.84-.79,2.58-2.34,3.68-5,2.55-1.93-.82-4.21-1.72-5.47.47-1.36,2.37.85,4.08,2.36,5.59,1.71,1.73,3.81,2.72,6.18,2.15-.87,1-3.13,1.74-2.45,4,.46,1.53,1.66,1.47,2.78,1-.9.73-3.18.54-3.27,2-.31,5-4,4.46-7.19,4.57s-3.73,1.81-3.27,4.4c1.05,5.91,6.08,4.48,9.86,5.28.07,1.91-1.47,1.2-2.31,1.32-8,1.06-10.88,3.79-12.38,11.77-.3.51,1.19,1.35.3,1.16-5.89-1.23-11.41-3.68-15.36-8.21-3.45-4-6.89-6-12-3.51-6.29-2.58-11.58,1.25-17.14,2.85-1.95.57-2.3,3.05-1.76,5.23.44,1.72,1.57,3.3,1.19,5.15a.72.72,0,0,1-1,.1c-1.6-.94-3.13-3.76-5-1.85-2.09,2.12-.65,4.75,1.17,6.78a26,26,0,0,0,3.78,3.16c2.32,2.15,3.68,6,2.29,7.61-2.44,2.73-5.67.15-8.23-1.65a15.11,15.11,0,0,0-2.74-1.81c-1.07-.47-2.22-.67-3,.33s-.34,2.08.33,3a13.91,13.91,0,0,0,3.76,3.15,7.21,7.21,0,0,1,.9,10.72c-3.68,3.73-3.19,6.46,1.59,8.71a13,13,0,0,0,6.33,1.66C746.28,560.66,750.3,562.79,751.62,558.45Z" fill="#281d19"/><path d="M743.67,529.07c-3.07-2.14-6.79-3.87-5.86-8.76,2,.15,2.57,1.64,3.51,2.72s1.83,2.85,3.48,1.9c1.49-.86.57-2.68.43-4.06a10.53,10.53,0,0,0-.93-2.56c-2-5.41-1.22-6.69,4.73-7.26,1.86-.17,3.77-.13,5.28-1.37,2.56-2.11,4.76-1,7,.57,2-.83,4-2.4,3-4.43-1.42-2.74-6-2.45-7.12-1.69-4.1,2.85-7.5,2.68-11.41.15-.88-.57-2.14.1-3.18.48-7.57.86-14.61,4.27-22.31,4.54-1.45.06-1.65,1.29-2,2.29-.57,1.69-1.64,3.17-3.34,3.34-5.29.56-7,5.14-10.35,8-6.66,5.61-12.44,10.68-12.64,20.41-.06,3.29-6.73,4.15-8,8.46a8.56,8.56,0,0,1-1.69,2.64c-2.81,6.06,1.41,10.19,5,13.28,4.16,3.54,8.92,8.4,15.68,4.18,1-.65,2.56.16,3.81-.34,2-2,4.29-1.51,6.71-1,3.26.69,6.23.14,8.53-2.54,3.39-4,2.57-7.2-2.36-9-1.56-.56-3.56-.87-3.66-2.81-.12-2.45,2.32-2.44,3.94-3.06,5.6-2.15,6.38-4.59,2.81-9.4-1.2-1.61-2.31-3.31-3.63-4.83-2.24-2.59-3-5.36-1.65-8.61,1-2.4.47-4.93.25-7.43,3.15,6.47,10.35,7.17,15.31,10.89,3.19,2.39,8.22,1.3,10.58-1.73A2.06,2.06,0,0,0,743.67,529.07Z" fill="#49372d"/><path d="M839.36,718.74c.37,0,.73,0,1.1-.06,2.78-.32,1.81-2.22,1.44-3.66a18.71,18.71,0,0,0-3.17-6.32q-4.89-5.61-9.79-11.23c-2.12,3.16,1.79,5.34,1.26,8.83-11.19-1.95-21.11-5.55-29.32-14.12-8-8.37-8.09-19.39-12.06-29.07-2.65-6.42-1.86-12.84-.3-19.37.94-3.91,2.18-3.85,5.08-1.53,5,4,7.09,9.72,10.1,14.94,1.76,3.05,3.12,6.74,7.86,6-2.5-7.82-5-15.64-7.5-23.45-1.5-4.65,0-7.46,4.18-10.43,14.45-10.35,27.71-22.09,39-35.88,1.38-3.32-.64-5.44-3.18-6.47-2-.82-4.1-.69-5-3.3-.54-1.49-2.19-.82-3.35-.15a9.74,9.74,0,0,0-4.42,6,74,74,0,0,1-11,22.54c-5.36,4.62-9,11.18-15.9,14.09-4.26,1.66-8.19,4-12.51,5.55-4.09,1.49-8.41,1.09-12.63,1.5-3.47.33-4.56,1.56-5.08,5.41-1,7.67,3.84,13.47,5.06,20.36a61.82,61.82,0,0,1,1.24,10.78c0,6.09-.34,12.67,7.07,15.73a4.22,4.22,0,0,1,2.26,4.18c-.26,7,5.56,9.81,9.66,13.7,1.18,1.11,2.78,1.82,3.34,3.46,1.58,4.64,5.25,7.37,9,10.1,7,5.1,9.26,5.2,16-.4,2.3-1.9,4.13-1.88,6.44-.36C835.8,717.23,836.86,719.46,839.36,718.74Z" fill="#4a3a30"/><path d="M684.78,784.49c-1.8-7.59-.74-8.91,6.72-11.73,7-2.64,13-7.58,20.83-8.08.51,0,1.45-1.3,1.37-1.42-2.7-3.73-.35-7.79-.87-11.6-.3-2.21-2.16-3.38-4.57-2.95-5,.88-10.18,2.91-14.67,3.09-9.6.38-15.3,9.05-24.42,9.13-4.4,0-8.7.66-13.24-.2-3.93-.73-8.29.67-12.44,1.24-3.76.5-7.17-.66-10.79-1.4-8.47-1.74-16.88-4.06-25.67-4.31-3-.08-6.06-1.36-8.78-2.71-1.87-.93-3.3-2-4.59.26-1.46,2.52,1.32,2.9,2.47,4a2.64,2.64,0,0,0,2.06.53c9.56-2.06,16.82,4.33,25.12,6.78,4.13,1.22,7.15,5,11.53,6.1l3,1.17a68.26,68.26,0,0,1,10.57,1.38c10.1,3.28,20.73,4.82,30.59,8.92C681.42,781.68,682.29,785.68,684.78,784.49Z" fill="#271f18"/><path d="M887.24,448.58c5.52-5.91,12.26-10.83,15.45-18.64,1.38-3.76,3.73-7,6-10.2,2-3.5,1.83-7.31,1.55-11.13-1.42-.53-2.87-1.21-2.85-2.92,0-2.93-1.62-4.67-3.79-6.22a4.23,4.23,0,0,1-2.17-3c-.09-1.86.23-3.92,2.27-4.47,1.81-.49,2.37,1.33,2.84,2.71.52,1.56,1,3.17,2.4,4.19,2.12,1.51,2.17,3.12.5,5s-1.84,3.56.79,4.75a11.87,11.87,0,0,0,3.52-7.71,16,16,0,0,1,7.56-12.1c5.68-3.74,9.5-9.48,14.46-14.05,6.28-5.78,12.71-11.47,18.94-17.34,3.32-3.13,8.27-4.18,11.57-7.57.06-3-2-2-3.38-1.58a54.55,54.55,0,0,0-22.31,11.87A204.05,204.05,0,0,0,924,375.78a5.56,5.56,0,0,1-4.46,1.81c-3.79-.08-4.39-1.18-2.51-4.58,1.08-1.94,2.18-3.89,4.39-4.75,3.86-1.49,6.11-4.58,8.26-7.82a13.6,13.6,0,0,0,3.16-5.48c0-5.18-3.94-5.75-7.62-5.91-3-.12-7.21-1-6.7,4.47-7,1.69-3.81,6.56-5.76,9.69-1.86,3-4.7,5.78-7.31,8.64-1.38-1.83.08-3.05.25-4.4.37-2.87-.67-4.7-3.67-5s-4.52,1.52-4.66,4.23c-.12,2.38.81,4.65,1.58,6.9,8.18,9.76,7.85,11-4.79,17.78-1.48.11-3.06-.45-4.39.64-.94,2,.49,3.09,1.72,4.1,4.55,3.71,8.72,7.52,6.11,14.23,2.93,1.66,6.19,2.88,8.43,5.76-1.53.87-1.88-.22-2.36-.86-2.35-3.11-3.65-2-4.85,1-2.78,7-4.65,7.47-10.49,3-1.89-1.45-3.86-3-6.49-1.49.21,4.26,3.9,6.28,6.13,9.23.37.5.7.65.13,1.4-1.26,2.81-2.27,5.78-4.5,8-4,4-8.78,5.64-14.44,4a2.86,2.86,0,0,0-1.59,1.63c-.17,1.49,1.08,2.22,1.79,3.24,1.38,3.18,3.25,4.59,7.23,3.79C880,448.42,883.72,449.72,887.24,448.58Z" fill="#45342d"/><path d="M899.89,373.78a26.44,26.44,0,0,0-1.06-5.31,3.55,3.55,0,0,1,1.34-4.76c1.17-.82,2.72-.24,3.63.45,1.59,1.19,1.11,2.88.17,4.39-.29.47-.58.93-.85,1.41-1,1.8-.52,3.17,1.28,4a2.41,2.41,0,0,0,3.44-1.76c.89-3.19,2.93-5.26,5.49-7.1,2.07-1.49,4.23-2.84,1.63-6-1.55-1.89.14-3,2.19-2.87,3.33.22,5.26-.29,2.45-3.82-.66-.84-.17-1.23.45-1.66,3.58-2.5,11.44.19,12.73,4.48a5.55,5.55,0,0,1,2.47-1.29l1.07-1.27c-2.16-3-6.4-4.29-7.27-9,4.3,1.42,6.47,5.35,10.33,6.52l1-1.17a23.15,23.15,0,0,1,6.23-7c.82-1.38,3.42-1.13,3.24-3.44-1-3-3.75-4.84-4.9-7.38,2.64,3.57,6.33,2.7,10.07,1.58,14.43-11.14,30-20.76,45-31.16L999,300c-5.71,2.61-11.4,5.28-17.15,7.8-12.24,5.38-24.52,10.65-36.75,16a9.94,9.94,0,0,0-3.58,2.47,37.91,37.91,0,0,1-16.44,11.61c-3.82,2.79-5.52,7.89-10.47,9.45a11.58,11.58,0,0,0-7.7,4.85c-2,2.62-3.95,5.41-6.45,7.5-4.23,3.54-6.22,8-7.06,13.19-.15.9,0,2.1-.55,2.64-7.67,7.88-8.36,19.93-16.75,27.38a19.77,19.77,0,0,0-3.56,4.8c-1.23,2.09-2.82,3.41-5.31,3.22-6.35-.48-10.21,3.21-13.57,7.79-1.29,6.75-2.21,13.44,3.65,18.83,1.18,1.1,2.22,2.85,4.11,2.13s1.41-2.71,1.41-4.31a7,7,0,0,0-.35-1.56c-3.9-4.09-5.37-8.71-3.05-14.12.52-3.7,3.22-4.53,6.38-4.75,1.92-.48,3.83-1,5.78-.12a6.06,6.06,0,0,0,4.24-1.41c1.85-4.45,4.63-7.77,10-7.95,1.05-3.05-.9-5.87-.67-8.92.25-3.28,1.57-4.71,4.84-4.36l4.52.73c.12-.14.36-.33.32-.42-2.27-6.75,1-11.81,5.1-16.65A1.84,1.84,0,0,0,899.89,373.78Z" fill="#6b544b"/><path d="M706.59,571.26c-1.54-.22-2.77-2.78-4.4-1.21-6.34,6.1-10.36-.73-13.9-3.31s-7.42-6.81-5.13-12.57c-3.8-.33-5.7,2.88-8.34,4.59-1.86,1.2-1,3.29-.06,4.93a12.78,12.78,0,0,0,7.6,6c6.33,1.92,11.95,5.16,17.78,8.7-.06,2.16-3.92,2.09-3.37,4.75,3.59,4.07,6.91,8.39,11.06,11.95,2.82,2.43,5,5.09,5.75,9,1,5.12,4.56,5.87,8.3,2.14.78-.78,1.84-1.56,2-2.55,1.25-6.07,6.52-7.21,11.14-9.15,6-2.53,15.57,1,18.22,6.75,1.87.94,3.57.56,3.53-1.6-.08-3.64,1.81-7,1-10.72a4.08,4.08,0,0,0-.83-1.33c-1.22-.63-2.54-.08-3.78-.32-3.91-.76-5.67-4-7.13-7-1.23-2.54,1.84-3.6,3.19-5.08a28.6,28.6,0,0,1,9-7c1.16-.55,3-.86,2.42-3-5.2.55-8.33-1.62-9.12-6.85-1.68,1-3,3.23-5.48,1.23-1.32-1-1.41,1.16-2.36,1.4-2.41.79-3,3-4,4.93A17.93,17.93,0,0,1,716,573.47C713.09,572,710,570.75,706.59,571.26Z" fill="#665243"/><path d="M861.81,434.9c-.17,1.34-.34,2.67-.58,4.5-5.13-4.71-9.11-9.29-6.66-16.46.55-1.59,1.09-3.18-.92-4.21a21.73,21.73,0,0,1-8.23-.3c-5-1.05-9.85-.88-14.24,2.36a7.71,7.71,0,0,1-4.57,1.7c-9.41-.61-16.21,3.73-21.79,10.66a12.3,12.3,0,0,0-.84,1.66c-.12,6.65-1.89,13.61,3.5,19.28h0c1.65,1.77,2.87-1.19,4.44-.39,1.18.86,2.33,1.77,3.57,2.55.9.56,1.49,2.07,3,.29,3.14-3.65,3.39-3.75,2.14-5.59-2.68-5.91-2.24-6.65,3.9-6.54a9.43,9.43,0,0,0,2.71-.36c3.18-1.08,4.53,1.76,6.61,3,3.32,2,6.65,4.61,9.52-.63.74-1.35,2.28-.92,3.52-1.06,1.59-.17,3-.47,2.4-2.64,0-.08-.13-.42-.06-.3,1,1.65,2.46,1.65,3.86,1.1,4.5-1.79,9-1.17,13.54-.34a3.65,3.65,0,0,0,1.24-.93L869,441C867.15,438.33,866.22,434.61,861.81,434.9Z" fill="#644839"/><path d="M742.56,504.76c1.46.05,3.08-.33,4.22.86,3.17,3.35,6,4.57,9.36-.05,2-2.69,4.83,2.85,7.25-.71.72,2.92-1.87,3.6-2.11,5.38a3.12,3.12,0,0,0,.36.39c7.21-5.49,9.54,2.47,13.49,5.11,5,3.31,9.83,6,16.07,5.74-.18-1.76-1.6-1.61-2.39-2.21-.58-.5-.82-1.29-1.47-1.73-5.23-3.06-10.38-6.22-14.35-10.91-1.85-1.69-3.32-3.54-2.52-6.28.08-.54-.1-1.2.13-1.6.78-1.36.86.22,1,.4,1.93,2,3.71,4.21,7,2.47,1.29-1.39.22-3.06.49-4.63,5.8,6.49,6,6.53,12.87,2.93.53-.28,1.2.68,1.95.35-.61-3.65,2.16-2.13,3.82-2.57,2.78-.74,7.92,1.65,6.52-5.1-.42-2,3.77-1.4,5.37-3.28-1.66-.72-3.43.89-4.79-.66-.34-2.67,2.83-2.43,3.82-4.46-3.33-.45-7-.27-8.73-3.93-.48-1-2.43-1.74-.89-3.13a2.36,2.36,0,0,1,3.06.22c5.13,4.19,6.61.55,7.87-3.58-10.26-7.4-12.47-6.69-14.89,5.14-.64,3.1-.93,5.56-5.19,4.06a3.23,3.23,0,0,0-4.13,1.9c-.69,1.8.34,3.11,1.56,4.34,1,1,2.49,1.44,3.3,2.92-1.64-1.14-2.82-2.55-4.45-3.4-4.08-2.14-7.78-4.06-4.45-9.93,1.34-2.37.54-6-4.14-5.08a21.76,21.76,0,0,1-5.7,9.22c-2.46,2.48-3.55,7.25-3.71,11.43-.19,5.27-4.1,9.51-9,8.3C753.15,501.17,748,503.26,742.56,504.76Z" fill="#4f3a2e"/><path d="M560.59,744.38c3.1,1.33,6-.37,8.89-.89,2.55-.46,1.31-2.52,0-3.7-2-1.83-2.74-3.65-1.31-6.26a5.43,5.43,0,0,0,.2-3.74c-1.49-5.17-1.31-10.39-.83-15.63.11-1.14.37-2.19-1-2.73-2.26-.9-15.83,2.63-16.12,4.81-.7,5.16-5.46,6.68-7.91,10.17-1.08,1.53-2.32,3.74-4.85,2.58-2.1-1-.88-3.54-1.59-4.67-2.85-4.54.33-10.68-4.44-14.69-1-.87-3.29-2.85-1.2-5.18a1.79,1.79,0,0,0-.14-2.51c-6.06-6-8.8-14.73-16.18-19.78-2.85-1.95-2.86-5.38-3.2-8.48l-3,2.67c-1.83,3.38-.85,6.42,1.45,9.07,6.07,7,10.87,14.53,12.58,23.75.27,1.46,1.47,2.51,2.53,3.51a6.25,6.25,0,0,1,2.16,6.36,4,4,0,0,0,.82,3.64c4,4,2.18,7.94.39,12.06-2.09,4.83-1.75,5.17,4.16,5.08,7.66-1.24,15.17-3.61,23.09-2.66,2.18-.39,3.56-1.28,2.37-3.76-1.24-1.89-3.16-2.54-5.28-2.8a28.45,28.45,0,0,0-7.67.73c9.28-8.51,11.94-9.1,18.56-4.09,2.54,2.42.32,5.56,1.26,8.19,1.31,3.66-1.14,5.09-3.68,6.65A1.39,1.39,0,0,0,560.59,744.38Z" fill="#7d6958"/><path d="M811.56,663.19c-6.13-2-7.34-8-9.67-12.64s-6-8.15-9.7-11.56c-3.16-2.92-4,.21-4.69,2.46-2.53,8.35-2.64,16.76.68,24.88A88.35,88.35,0,0,1,792,679.41c2.23,9.26,8.35,15.85,15.91,20.53,5.23,3.23,10.84,7.16,17.8,6.59a4.14,4.14,0,0,1,1.07.21c1.82.36,3.2,3.87,5.09,1.62s-.19-4.79-1.39-6.89a8.06,8.06,0,0,1-1.54-4,35.12,35.12,0,0,0-5.94-8.85c-3.48,2.11,0,5-.88,7.44-13-.27-22.52-8.66-25.43-23-.9-4.44-1.74-8.94-2.25-13.47-.2-1.76-.32-4,1.85-4.68,2-.65,2.86,1.25,3.8,2.54,4.23,5.76,7,12.45,11.46,18,1.69,2.11,2.74,5.3,6.46,4.91Z" fill="#3e342e"/><path d="M777.58,473.73c3.37.95,4.89,3.12,2.57,6-4.06,5,0,7,3.22,9.08,2,1.28,4.34,1.94,5.79,4,.62.9,1.88,1.8,2.74.93s.35-2.4-.62-3.4c-1.67-1.71-6.47-2.25-4-5.53,1.9-2.51,5.41-.07,8.37,1.45-.39-5.38,1.38-10.14,3.06-14.93.68-1.93,1.58-2.2,3.2-.93a16.29,16.29,0,0,0,8,3.35c.68-.48,1-1.46.37-1.75-6.23-2.63-5.58-8.17-5.88-13.31.87-1.64.29-2.2-1.49-2.35-5.52-.46-7.47-3.25-6.15-8.57.66-2.67,1.61-5.19,3.78-7.1a18,18,0,0,0,4.37-6.2l-.15-1.35c-5.53,3.33-10.47,7.23-13,13.44-.27.67-.43,1.67-1,1.93C780.48,453.84,782,465.34,777.58,473.73Z" fill="#674d3d"/><path d="M934,796.47c2.61,5,2,10.49,2.84,15.75S938,823,941.58,827.43l.64-.74c1.42-7.48,0-14.89-.91-22.27-.48-3.92-.88-8-2.43-11.74-.84-2,.44-.41.83-.5,1.33-.29,1.58-1.51,1.61-2.52.15-5,.51-10.09-1.46-14.91-12.78-.4-23.16-7.29-34.2-12.4-2.16-1-4.39-1.83-6.58-2.74-.36.35-.69,1.21-.85,1.13-1-.49-.11-1.33-.25-2l-15.52-11.93c-.07,1.57-.64,3.09,1,4.43,2.11,1.68,2.5,3.91.91,6.28-2.24,3.33-.07,5,2.54,6.4,3.36,1.8,7.12,2.89,9.9,5.7,1.7,1.71,3.08,1,3.67-1,.73-2.5,2.33-4,4.75-3.31,2.71.78.86,3,.72,4.65-.32,3.68,2.62,7.64,6.14,7.07,2.56-.41,3,1.06,4.36,2.21,4,3.52,8.17,6.16,14,3.62,3.69-1.6,1.79,2.33,2.77,3.49,2.89-1.44.28-3.68,1.16-4.89,1.17,2.75-.9,6.39.52,9.78.19.43-.87-.13-1.31.11Z" fill="#726458"/><path d="M818,680.43c-5.62-4.15-8.58-10.35-11.94-16.08-1.75-3-3.78-5.8-5.52-8.78-1-1.75-2.31-3.71-4.68-3s-3.2,3.24-3,5.35c.72,5.93,1.79,11.83,2.92,17.7.48,2.48,1.56,4.84,2.17,7.3,1.67,6.72,7.1,9.31,12.78,11.61,3.24,1.31,6.54,2.45,9.8,3.69,1,.39,2.18,1,3.13.19,1.13-1,.69-2.33.2-3.56-.78-2-2.19-3.9-.92-6.2C822,685.49,820,683,818,680.43Z" fill="#2f2623"/><path d="M560.59,744.38a2,2,0,0,1,1.94-2.16c4.1-.42,4.83-2.77,3.13-6s3-7.24-1.74-9.74l-.59.5c-.7,3.74-4.39,4.49-6.71,6.62.51,1.23.79,2.36-1.13,2.53.09,1.45,2.06,3-1,4.12-3.65,1.33-7.05,3.32-11.12,2.44C538,741.57,535,746.07,531,748c-7.71,3.69-14.16,1.84-21.47-1.79,3.57-2.74,7.35-2.35,10.81-3.18,3.76-.91,8.56.43,10.87-4.22l-3.82.26c1.27-2.8,2.23-5.19,3.42-7.47a5.08,5.08,0,0,0,.73-3.65c-1.1-4.35-5.13-7.93-3.44-13-6.43-5.13-5.93-13.63-9.84-20-1.83-3-4.2-5.49-6.33-8.17-2.48-3.12-4.29-6.28-4.06-10.34-2,.62-2.63,2.58-4,3.79-1,3.58,1.68,5.36,3.7,7.46a77.24,77.24,0,0,0,5.48,8.18c4.49,5.3,5.63,11.73,5.7,18.32,0,3,.74,5.08,3.32,6.9s5.35,4.83,3.54,8.33c-2,3.84-2.45,9.46-9.18,9.18-3.41-.14-7-.22-10.29,1.37-.33,2.79-3.82,2.24-4.76,4.39,2.94,2.47,0,7.55,4.24,9.44,1.84-1.71,3.89-1.79,6.14-.87a50.12,50.12,0,0,1,6,2.67c6.68,3.83,12.71,4,18.23-2.26,3.8-4.32,9.93-4.34,14.68-7C553.6,743.55,557,743.36,560.59,744.38Z" fill="#9d8971"/><path d="M866.74,442.39c-3.91.21-7.45-4.58-12,.08-1.63,1.66-6.28-.75-8.49-3.94-1.38,3.08,1.6,3.54,2.51,5-2.33,1.8-8.28-2.58-7,4.38-2.56-.21-5.06.33-7.45-1.81-1.91-1.72-3.31-6.16-7.47-3.17.6,4,4.43,7.44,1.86,11.89-.71,2.26,2.13,4.28.45,6.6-.31.89.25,1.6.93,1.54,2.75-.21,5.26-.57,5.94,3.24.2,1.16,1.88.5,2.91.21a3.05,3.05,0,0,0,2.8-.26c5.47-3.77,11.11-7,18.2-6.35,2.17.21,3.33-.91,2.1-3-2.2-3.67-.28-6.09,2-8.73C865.4,446.54,868.47,445.49,866.74,442.39Z" fill="#30221c"/><path d="M827.19,476.06c-2.74.14-5.3.1-5.12-3.76,0-1.11-.33-2.42-1.77-2.25a4.75,4.75,0,0,0-2.84,1.42c-1.09,1.29.62,1.74,1.18,2.54,1.48,2.12,1.51,2.84-1.3,4.69-4.46,2.92-5.32,8.71-6,13.81-.79,6.27-2.18,12.53-1.13,19,.35,2.21-1.78,3.9-2.69,5.87s-3.19,3.8.21,5.87c1.72,1-.17,2.91-.89,2.84-4.34-.47-4.79,3.29-6.61,5.54-4.63,5.76-10.52,9.76-18,10.06-6.34.26-12.21,1.93-18.1,3.75-2.76.86-4.23,3.36-5.58,5.77,4.37-2,7.76-5.78,12.91-6.44,1.94-.25,3.84-1.14,5.89-1.23,17-.72,28.12-9.19,36.29-23.86,4.62-8.29,4.49-17.23,7.61-25.45C823.59,488.22,821.88,481,827.19,476.06Z" fill="#3b2d26"/><path d="M505.68,740.64c2.58-.21,5.26-1,7.71-.52,8.09,1.45,10.78-4.07,13.79-9.61,2.37-4.37-.89-9.3-2.76-9.82-7-1.91-4.95-8-4.68-11,.53-5.89-2.54-9.69-5-13.89-1.89-3.22-4.4-6.12-6.09-9.51-1.63,3.34,0,8.27-5,10a2.18,2.18,0,0,0,0,1.49c1.87,1.44,2.41,3.79,3.89,5.51,7.69,2.11,9.81,4.8,9.31,12.86-.19,3.21.55,5.67,2.89,7.84,2.73,2.54,2.25,5.22.75,8.44s-3.08,5.57-7.22,4.94c-2.17-.33-4.42-.21-6.55-.93-5.52-1.85-4.86-3.44-4.64-9,.27-6.94,5.55-12.37,4.51-19.33a2.67,2.67,0,0,0-1.07-1.09c-2.34-.43-3.25,1.4-4.28,2.82-4.17,5.76-9.51,8.89-16.88,7.74,4.4,6.53,4.59,14.2,5.95,21.55,2.84-1.57,5.52-.77,8.34.26C500.84,740.26,503,742.31,505.68,740.64Z" fill="#b2a188"/><path d="M697.36,583c.45-1,1-1.93,2.26-2.11,1-.13,2.84,1.63,2.68-1-.11-1.75-.41-3.36-2.62-4.25a219.42,219.42,0,0,1-20.28-8.92c-5.5-2.9-5.36-6.09-.33-9.77,1.32-1,2.73-1.83,4.09-2.74a2.08,2.08,0,0,0,.82-2.41c-6.08,2.77-10.87,7.2-15.9,11.48-7.65,6.5-16.88,10.81-25.44,16-2.95,1.8-5.76,3.84-8.63,5.78,1.9.57,5.78-1.85,4.77,3.1,4.14,1,7-1.7,9.82-3.76,3.41-2.46,6.71-5.1,10.09-7.62,6.07-2.48,12.11-5.18,18.73-1.69A33.71,33.71,0,0,1,688,579.93C691.07,581,693.23,585,697.36,583Z" fill="#6f5e4e"/><path d="M928.94,359.78c-2.7,3.43-5.55,6.44-9.85,8.26-3,1.29-3.48,5.37-5.42,8-.59.8.1,1.43,1.22,1.83,4.16,1.48,7.58,2.4,11.1-2.06,5.42-6.88,12.94-11.73,19.41-17.57,5.55-5,12.46-6.06,18.59-9.19,1-.54,1.73,0,2.3.82l21-12.53-1-2c-16.33,8.73-35.14,11.38-50.71,22A29,29,0,0,1,928.94,359.78Z" fill="#5a473c"/><path d="M941.72,828.46c1.85,1.47,1.85,4.38,4.53,5.54a55.91,55.91,0,0,0,.59-14.4c1.29,3.78,2.12,6.19,3.25,9.51,2.55-12.68-1.6-25.08,3.92-36.69,3.72,8.68-2.35,18.68,4.39,28,.25-7.66.47-14,.68-20.38,2.21.25,1.47,2.21,2.58,2.91,2.48-5.73,1.4-12.18,3.69-18-.37-1.69.42-3.21.64-4.82s1.89-3.74-1.4-4.21c-2.76-.39-3.5,1.38-3.82,3.51-.63,4.13-1.21,8.26-1.78,12.4-.12.9,0,2-1.28,2a1.76,1.76,0,0,1-1.53-2c.19-3.45.61-6.9.64-10.35,0-4.92-1.51-5.88-6.37-4.26a4.69,4.69,0,0,0-1.26,4.06c.27,4.63.24,9.11-3.17,12.93A6.08,6.08,0,0,0,945,799c1,7.56-1.34,14.93-1.2,22.44a8.47,8.47,0,0,1-2.19,6.06l0-.11A1.25,1.25,0,0,1,941.72,828.46Z" fill="#726458"/><path d="M550.72,746.27c-7.2-.44-12.92,2.81-17.58,7.7-3.58,3.76-7.23,3.68-11.4,1.83-3.68-1.63-7.24-3.56-11-5-2.5-1-5.39-1.48-5.12,2.89,12.86,8.73,26.27,13.85,41.62,6.17,5-3.08,10.72-1.32,16-2.43,1.48-.31,4,.68,4.14-1.48s-2.37-1.66-3.91-1.94c-3.43-.64-6.85-3-10.22.54a2.49,2.49,0,0,1-3.85-.56c-.86-1.6.74-2.33,1.72-3C554.24,749.1,554,747.6,550.72,746.27Z" fill="#5b4a38"/><path d="M821,613.11c5.62-6.46,8.91-14.21,11.32-22.15a11.32,11.32,0,0,1,6.13-7.48c-.48,3.42-.75,6,4.24,4.61,2.54-.73,4.18,2.54,4.57,5.34,2-3.41,3-7.21,3.91-11,.26-3.39,1-6.71,1.44-10.07v0c.14-2.17,1.09-4.21,1.09-6.39,0-1.49-.11-3.15-2-3.44s-1.85,1.47-2.34,2.55c-2.14,4.75-3.54,9.9-7.26,13.92-1.92-1.37-1.07-3.77-2.69-4.92-2.44-.94-3,1.17-4.08,2.56-.15.62-.72-.42-.12,0a3.86,3.86,0,0,0-.92-5.6c-3.28-2.56-6.73-4-10.76-1.56-.69,1.6.33,1.8,1.54,1.94a7.07,7.07,0,0,0,.74,0c-5.3,2.06-.56,2.83.61,3.25,2.65,1,3.31,2.83,2.88,5.16-1.36,7.27-1.87,14.82-6.3,21.2-1,4.11-4.47,6.73-6.54,10.2-.64,1-1.58,2-1.58,3.31C817.72,617.56,818.9,613.47,821,613.11Z" fill="#665548"/><path d="M823.22,570.11a13.22,13.22,0,0,1,10.36,1.22c1.16-1.36.92-2.85.44-4.38a13.2,13.2,0,0,0-1.32-2.49C829,557.13,822.22,556,815.22,557c-5.59.82-11.34,1.49-16.68,3.6-3,1.18-6.27.3-9.2,1.58l-4.28,1.4c-3.2,1.64-6.74.82-10.1,1.32-1.79.27-3.62.21-5.32,1-1.44.65-2.53,1.62-2.39,3.25.15,1.8,1.68,2.17,3.17,2.34a29.09,29.09,0,0,0,5.44-.15c3.59,0,6.68-1.87,9.89-3,9.42-3.33,18.45.35,27.63.71C816.65,569.41,819.72,571.74,823.22,570.11Z" fill="#413228"/><path d="M484.32,717.63c5.33,2.71,10,1.73,14.5-3.13,2.34-2.53,4.54-5.18,6.8-7.78,1.43-5.23.37-7-4.47-7.1a23.91,23.91,0,0,1-6-.94c-5.25-1.43-13.78,4.27-14.42,9.62a4.06,4.06,0,0,0,.65,3.13Z" fill="#42362a"/><path d="M913.56,937.27c0-3.52.2-6.92,1.54-10.19,1.58-3.86,1.21-7.4-1.65-10.58-.56-1.71-1-3.57-3.55-2.9.08,5.33-.16,10.6-2.63,15.51-1.56,3.1-.27,6,.5,9a71,71,0,0,1,1.13,8.13" fill="#584739"/><path d="M776.62,569.75c-1.45.08-2.91.24-4.37.21s-3.44,1.11-3.84-.66c-.51-2.22,1.94-2.83,3.54-3.34,4.24-1.36,9.13.64,13.11-2.36l-24.32,1.7a52,52,0,0,0-15.08,11.48c-2,2.1-3.49,2.94-.26,5.13,1.53,1,1.83,3.38,3.44,4.79,2.53,2.22,4.91,3.16,7.84.94,1.73-.71,3-1.67,1.94-3.77-4.77-3.58-4.56-5,.86-7.67,3.7-1.81,7.77-2,11.64-3,1.92-.5,4-.7,5.61-2.06A1.11,1.11,0,0,0,776.62,569.75Z" fill="#816d5d"/><path d="M832.18,566l.86,1.11c1,3.3,5.62,3.65,6.16,7.34.86,2.36-.9,6.55,2.28,6.81,2.1.18,4.14-3.43,5.11-6.25,1.38-4,4.15-7.4,4.64-12.19,3.61,3.21-.34,6.7,1.35,9.55,2.76-5.18,2-10.37,0-15.56-3.85-1-7.58-2.52-9.89,2.86-1,2.44-3.7,3-6.64,1.62-2.22-1-3.71-3.64-6.64-3.16C828.29,561.41,832,563.1,832.18,566Z" fill="#a4927d"/><path d="M829.25,558.46c2,1.21,4.41,2.06,6,3.7,3.16,3.34,6.63,1.71,7.73-.71,2.16-4.77,6-4.08,9.69-4.68-3.63-5-9.1-5.79-14.6-5.55a68.5,68.5,0,0,0-18,3.37C822.7,556.76,825.28,559.25,829.25,558.46Z" fill="#beb09b"/><path d="M503.81,696.57c7.45-.71,5-6,4.84-10.25-3-1-3.53-3.86-4.77-6.18-8.38,3.71-15.08,9.2-19,17.64,2.72.65,3.54-1.79,5.1-3,2.69-2.25,5.22-2.06,7.75.34C499.45,696.67,501.12,698.77,503.81,696.57Z" fill="#c6b89e"/><path d="M866.74,442.39c-.19,2.75-2.78,3.74-4.34,5.32-3.43,3.45-5.12,6.66.08,11.29-8.28.48-15.89.43-20.76,7.17a9.23,9.23,0,0,0,5.5-2.29,12.52,12.52,0,0,1,10.63-3.67c6.92,1,10.22-5.15,15.57-7.16-4.93-1.56-3.72-5.29-3.17-8.79l-2.37-2Z" fill="#3b2d26"/><path d="M489.06,694.14l-4.15,3.64c-3,4.1-7.13,7.9-3.49,13.65.14-7.58,7.91-13.21,14.79-10.75a5.45,5.45,0,0,0,3.13.51c5.41-1.71,6.29,1.38,6.28,5.54a4,4,0,0,1,.05.92c2.73-.66,2.58-2.61,2.15-4.69-.42-2.41-.09-5.37-3.93-5.3-2.28-.49-4.49-.88-6.35-2.65C495.09,692.67,492.13,692.1,489.06,694.14Z" fill="#645647"/><path d="M829.25,558.46c-3.64,0-5.48-4.22-9.27-3.87-10.48,1.49-20.48,4.85-30.64,7.61,7.66.27,15-1.82,22.37-3.3,4.52-.91,8.83-.48,13.15.13,3.83.55,5.07,4.4,7.32,6.93C833.14,562.71,829.87,561.1,829.25,558.46Z" fill="#91806e"/><path d="M870.25,444.26c-3.29,1.86-2.25,5.34-2,7.76s3.43.36,5.19,1a16.25,16.25,0,0,0,13.82-4.47l-.77-1.32c-3.84,2.72-8-1.9-12.28.86C871.42,449.92,872.13,445.1,870.25,444.26Z" fill="#30221c"/><path d="M838.73,708.7c-.62,3.53,3.7,6.22,1.73,10,.27,3.89,4.39,4.54,6.16,7.17.42.63,1.3,1,1.78.16a5.48,5.48,0,0,0,.6-2.49c.1-2.08-3.18-3.2-1.69-5.71C845.26,714,841.87,711.48,838.73,708.7Z" fill="#5d4b3e"/><path d="M838.92,466.43c-.81-.31-2.35-.75-2.32-.93,1.22-7.29-2.57-5-6.16-3.27-.25.12-.86-.51-1.3-.79-1.5,1.76-1.19,4.47-4.72,6.13,4.18.82,6.7,2,7.81,4.84C834.75,470.74,835.14,466.72,838.92,466.43Z" fill="#3b2d26"/><path d="M939.38,350.22c-2.12-3.53-6.06-5.1-8.8-8-1-1-2-.64-2.93.1a1.87,1.87,0,0,0-.32,2.88c2.5,3.06,4.49,6.76,9,7.48A2.91,2.91,0,0,0,939.38,350.22Z" fill="#46342f"/><path d="M505.68,740.64c-3.56-1.25-7.19-2.35-10.66-3.81-2.77-1.16-4-.05-4.75,2.35,3,3.32,7.68,2.81,11.12,5.09C503.17,743.47,506.55,744.52,505.68,740.64Z" fill="#6e5e47"/><path d="M899.53,943.14c2-2,1-5.18,2.74-7.29l-.57-9.69q-.57-.74-1.05.06a17.53,17.53,0,0,0-3.58,13.06A4.36,4.36,0,0,0,899.53,943.14Z" fill="#584739"/><path d="M955,332.82c-1-1.46-2.2-.32-3.37-.29-2.65.08-5.69.35-6-3.61-.11-1.2-.63-2.24-2.08-1.41a1.49,1.49,0,0,0-.53,2.33c2.42,2.82,2.64,7.33,6.84,8.78C952.63,337.61,953.52,334.94,955,332.82Z" fill="#3f3534"/><path d="M921.63,898.7c-3.17,2.59.44,6.31-1.55,9.1a29.87,29.87,0,0,0,2,13.93c2.35.41,1.14-1.72,1.82-2.5C924.45,912.24,921.75,905.61,921.63,898.7Z" fill="#584739"/><path d="M834.77,989.34c-2.13-.8-3.18-2.57-3.95-4.58-1.51,1-.38,2.77-1.33,3.86-.19,3.42,1.54,6.24,2.89,9.19,4.67-.29,2.09-3.55,2.35-5.64C834.74,991.23,834.76,990.28,834.77,989.34Z" fill="#49382d"/><path d="M619,768.11c-7.2-3.23-14.52-5.78-22.62-3.94Z" fill="#685648"/><path d="M841.75,988.73c.41-4.51-2.1-8.47-2.42-14-.72,2.61-1.15,4.14-1.57,5.66.21,2.71.16,5.45,1.49,8C840,989.71,840.73,989.75,841.75,988.73Z" fill="#49382d"/><path d="M954,832.13c-1.19,3.07,3,2.87,3.26,6.4a17.05,17.05,0,0,0-1.34-12C952.61,827.52,954.58,830.27,954,832.13Z" fill="#726458"/><path d="M849.88,961.71c-.21,3.72-.41,7.43-.62,11.14.5,1.22-.17,3,2.52,3.87C851.11,971.48,852.8,966.43,849.88,961.71Z" fill="#49382d"/><path d="M827.07,1000c.69-4-1.14-6.3-3.37-10C823.39,994.66,822.47,998,827.07,1000Z" fill="#49382d"/><path d="M846.92,987.22c.79.55,2.57,2.58,2.2.13-.59-4-.35-8.39-2.85-12Q846.6,981.28,846.92,987.22Z" fill="#49382d"/><path d="M832.56,982.94a6,6,0,0,0,1-.14c.33-2.53.65-5.07,1-7.61-.37-1.24-.94-2.25-2.51-2.05C832.17,976.4,832.37,979.67,832.56,982.94Z" fill="#49382d"/><path d="M898,758.72c-1.49.95-2.86,2-1.12,3.81.58.61,1.3,1.58,2.3.91,1.84-1.23.15-2.55-.08-3.83Z" fill="#675346"/><path d="M820.71,990.7c.73-3.17,1.32-6.3-1.15-9.63C818.49,984.89,820.06,987.76,820.71,990.7Z" fill="#49382d"/><path d="M852.57,572.35c-.62,3.34-3.44,6.37-1.44,10.07C853.35,579.31,852.73,575.8,852.57,572.35Z" fill="#665548"/><path d="M648.39,773.79a15,15,0,0,0-10.57-1.38C641.27,773.41,644.73,774.39,648.39,773.79Z" fill="#372b23"/><path d="M833.83,862.45c-2.15-5.42-6.92-10.11-4.65-16.77.35-1-.28-2-1.51-2.57-6.27-2.85-6.52-8.62-5.84-14s-1.45-9.91-3.31-14.59c-.14-.33-.3-.83-.57-.92-7-2.25-6.8-8.92-9.34-14.11-2.43-5-2.43-9.94-2-14.86.38-4.54-.27-7.23-5.05-8.64-5.57-1.64-5.7-7.13-6.69-11.5-.74-3.31-2.77-5.61-4.1-8.31-3.42-6.94-8.79-12-13.59-17.7-.91-1.08-1.38-2.82-3.24-2.28-1.38.4-2.24,4-3.57,2-2.55-3.66-8.82-4.46-8.28-10.42a8.7,8.7,0,0,0-2.7-6.91,1.9,1.9,0,0,0-2,.51c-4,3.48-6.23,2.78-7.7-2.26-1.91-6.61.46-11.3,6.31-14.56,1.15-2.55-.53-5,.06-7.85.7-3.33-4.11-5.6-7.74-4.28-5.14,1.89-6.69,1-7.49-4.22a14,14,0,0,0-1.28-4.16,3.26,3.26,0,0,0-3.28-1.66c-1.69.19-1.88,1.72-1.56,3,1,4-1.19,3.63-3.43,2.34-2.08-1.18-2.52-.24-3.77,1.25a20.38,20.38,0,0,0-5,15.61c.2,2.38-1.18,1.81-2.88,1.28-6.84-2.13-6.25-1.79-8.88,4.53-1.81,4.34-2,10.88-9.24,11.15a85.26,85.26,0,0,0-21,1.31,3.6,3.6,0,0,0-3.23,2.55c1.3,1.91,2.53,2.85,5.41,2.35s6.58-.73,9.27,1.87c.46.45,1.6,1,1.82.78,4.24-3.7,10.37-.89,14.74-4.32,2.58-2,4.52-2,4.86,2.19.25,3,1.62,5.61,5.36,2.79,1.13-.86,2.68-1.44,3.61-.7,4.67,3.76,10.44,3.07,15.77,4.05,2.94.54,4,2.41,3.43,4.6-1.1,3.93,1.37,7.49.59,11.27-.21,1,.07,1.86,1.14,2.13a1.86,1.86,0,0,0,2.18-1.27,24.57,24.57,0,0,0,2-5.08c.61-3,2.21-4.39,5.05-3.24s4,3.37,2.23,6.22c-2.9,4.79-2.28,10.64-5.21,15.27-4.63-3.53-11-.92-12.64,5-.89,3.31.68,7.26-3.23,9.94-3.72,2.55-4.94,2.55-6-1.67-.29-1.14.39-2.92-1.36-3.18-1.53-.24-2.81.88-3.74,2-2,2.39-2.28,5.28-2.21,8.26.07,3.14.46,5.6,4.56,6.19,2.57.38,1.39,3.36,1.79,5.19.35,1.55-.28,3.62,1.62,4.36,1.69.65,1.7-2.2,3.42-2.25,1.7,2.75-.89,3.37-2.09,4.74s-3.15,3.75-1.4,5.22c2.34,2,2.36-1.87,3.65-2.38,3.95-1.53,5.47-4.06,5.8-8.24.17-2.2,3.17-3.66,5.28-2.09,2.61,1.93,5.08,5.32,2.89,8.29-2.63,3.6-1.77,5.16,1.68,6.58,2,.84,3,1.95,2,4.21-1.49,3.61-.87,7.75-4.16,11-2.05,2-1.46,5.83-.26,8.83.44,1.08,1.65,2.25,2.49,1.49,1.92-1.74,4-1.14,6.12-1.36s2.17-2.18,2.07-3.91c-.12-2-.66-4.15,1.11-5.7,3.75-3.28,4.59-7.18,2.53-11.81,3.72,4.65,3.75,14.5.16,19.25-1.38,1.83-2.64,3.5-2.14,5.93.22,1.08.23,2.26,1.62,2.55,1.15.25,2.43.13,3-.88,1.2-2.19,3.29-3.23,5.09-4.71,2.24-1.85,2.53-4.79,1.4-7.61-1-2.39-1.63-4.77-.28-7.29.54.21,1,.26,1.09.45.62,1.62,0,4.4,2.3,4.47,2.49.07,2.33-2.88,3.07-4.61.67-1.56.17-3.21-.43-4.8-2.36-6.26.12-12.67-.47-19a2.3,2.3,0,0,1,2.44-2.44c1.65.25,1.63,1.75,1.32,3.08-.58,2.51-1.41,5.2,1,7.08,1.31,1,2.42-1.7,1.68-5.13a6.86,6.86,0,0,0-.79-2c-1.62-2.73,2.39-5.06.13-8.29-2.14-3.07-2.33-7.1-6-9.76-2.9-2.12-1.61-6.52-2-9.93-.31-2.72,0-5.6-2-7.82-1.09-1.23-1.82-3-4.43-1.43-2.3,1.41-6.18-1.63-6-4.36s.64-5.41.83-8.13c.15-2.18-.33-5,2.2-5.66,2.93-.75,6.21,1.29,6.83,3.61,1.48,5.58,9.07,6.7,9.06,13.08,0,.47,1.38,1.3,2.15,1.35,3.45.21,4.13,2.53,4.46,5.25.65,5.34,2.66,9.68,8,12.11,2.53,1.15,3.25,3.51,3.9,6.52,1.27,5.94-1.66,12.94,4.54,17.94,1.41,1.14,1.17,4.93.83,7.38-.51,3.73.3,6.37,3.79,8.14a4.68,4.68,0,0,1,2.67,5.45c-.72,4.59-.63,9,2.86,12.83,1.24,1.34.15,3.13.16,4.71,0,3.66.21,7.35,5.4,7.91,6.83.75,9.66,6.49,13.09,11.23A8.35,8.35,0,0,0,833.83,862.45Z" fill="#4f4033"/><path d="M677.3,725.43c5.76-1.51,11.51-3.4,17.56-1.79,2.76.73,4.21-2.09,6.65-2.07,2.26-5.21,6.53-9.4,7-15.59.29-3.83,3.75-4.89,7.1-3.41,4.56,2,5.89.18,5.4-3.94a11.09,11.09,0,0,1,2.61-9,10.76,10.76,0,0,0,1.58-11.57c-3.67-1.77-4.3.81-4.3,3.31,0,4.44-.88,8-6,9.09-1.42.31-2.29,1.78-3,3.06-.56,1-1,2.37-1.92,2.62-7.43,1.87-7.66,8.12-9.14,13.88s-8.92,9.36-15.62,8.5c-5.07-.65-10.18-.25-15.33-1-6.4-.93-9.77-2.27-11.74-8.71a28.74,28.74,0,0,0-8-12.88c-1.42-1.33-2.58-3.28-5.08-2.46,1,4.54,5.63,7,6.84,11.49.3,1.13.76,3.5-.35,2.83-4.29-2.56-9.68,1-13.48-2.8a4.86,4.86,0,0,0-5.61-.73c-4.82-1.33-9.66-.31-14.49-.1.67.59,1.46,1.77,2,1.67,7.36-1.32,13.68,2.52,20.48,3.88,1.51.3,2.91.63,4.29-.11,3.46-1.86,5.11.79,6.87,2.79.9,1,1.94,2.31.86,3.94-1.72,2.59-4.33,2.44-6.94,2.24-1.09-.08-2.62-.83-3.17-.37-5.42,4.53-12,1.76-18,3-4.31.87-8.62,2.41-12.91,2.6-8.78.37-17.17,5.57-26.36,1.73-2.94-1.23-5.8-2.28-8-4.54-2-2-3.74-.58-5.54.11s-1.88,1.95-1.4,3.91c1.07,4.32-1.22,9.25,2.33,13.19,2.37-.67,2.91-2.65,3.31-4.65.76-3.76,3.22-4.75,6.59-3.85,3.75,1,7.7,1.28,11.33,2.65,3.43,1.3,7,1.13,9.57-.86,4.43-3.48,9.67-3.87,14.69-5.22,2.08-.37,4.26.9,6.3-.32,2.41-2.72,5.44-1.94,8.42-1.46a6.29,6.29,0,0,0,1.5.06c3.65-.77,6.9.59,10.17,1.85a8.24,8.24,0,0,0,3.88-.35c4.26-4.69,9.27-4.55,14.61-2.23,1.12.43,2.39.52,3.37,1.31l2.13-1.24c3.4-1.72,6.14.34,9,1.57Z" fill="#5d4b3e"/><path d="M618.26,725.09c-4.69,1.69-9.87.58-14.36,4.58-5.52,4.91-12.27.42-18.27-.69-9.07-1.68-9-2.14-11.61,6.33a15.39,15.39,0,0,1-1.62,2.86c2.27,3.26,1.56,5.63-2,7.56-1.16.63-3.69.64-2.91,3,.72,2.21.59,4.88,4,5.62,4.88,1.05,9.2,4.33,14.55,3.74-2.47-3.27-6.41-3.13-9.84-4-4.78-1.18-4.28-2.85-.84-5.17,1.48-2.81.74-5.77.45-8.65a6.15,6.15,0,0,1,2.45-5.78c2.31-1.81,3.22.84,4.49,1.77,4.8,3.51,10.68,1.87,14.56.32,6.71-2.71,12.5-7.77,20-9.27C617.87,726.71,619,726.3,618.26,725.09Z" fill="#503f32"/><path d="M663.76,723.07c-10.63-3.66-11.12-3.59-15.45,2.15.51.94,1.1,1.68,2.31,1l7.67-1.63C660.61,725.84,662.27,724.78,663.76,723.07Z" fill="#503f32"/><path d="M618.26,725.09c-.32.76-.64,1.52-1,2.28a45.52,45.52,0,0,0,16.54-2.25q.46-.4.27-.75c-.12-.24-.24-.35-.35-.35l-1.1.07c-3-.74-6-1-8.87.62C622.12,727.2,620.09,724.69,618.26,725.09Z" fill="#4f4033"/><path d="M633.77,724l.08,1.1c2.21.8,4.26,2.2,6.8,1.74.78-1.17,2.5-.09,3.26-1.33C640.78,723.39,637.62,721.4,633.77,724Z" fill="#503f32"/><path d="M677.29,725.43c-2.3-4.48-5.57-3.53-9-1.57C671.49,723.2,674,726.7,677.29,725.43Z" fill="#4f4033"/><path d="M643.91,725.53c-1.22.13-2.55,0-3.26,1.33,3.36.37,6.81,1.95,10-.68l-2.31-1Z" fill="#4f4033"/><path d="M663.76,723.07l-5.47,1.48c2.35,3.93,5.29-.43,7.85.55A3.82,3.82,0,0,0,663.76,723.07Z" fill="#4f4033"/><path d="M839.36,718.74a43.4,43.4,0,0,0-4.47-3.92c-2.85-1.9-5.32-3.4-8.22.83-3.24,4.71-7.8,5-12.38,1.45-4.38-3.4-9-6.26-11-12.42-1-3.26-5.88-5.38-9.09-7.92a6.58,6.58,0,0,1-2.87-5.81c-.06-3,.67-7.65-5.69-7.81-2.86-.07-3.49-5.61-3.6-8.32-.27-6.84-.34-13.6-2.23-20.27-.27-.95.11-2.36-.73-3-4.16-3.18-2.91-7.54-3.38-11.79s.75-5.08,4.67-5.29,8.16.69,11.81-1.7c-3.68-2.61-7.69-1-11.57-.84-2,.07-4,.23-6,.47-2.22.45-4.88,1.18-3.81,4,2,5.14-1.06,8.54-3.42,12.28-2.17,2.9-4.08,5.75-.72,9.19a3.15,3.15,0,0,1-.53,4.88c-2.26,1.69-1.22,5.12-4.46,6.42-7.22,2.89-14.13,3.88-21-.74-1.74-1-3.55-1.93-4.6-3.82-.87-1.58-1.73-3.49-4-3.14-2.68.4-4,2.54-5,4.71s0,5.22-2.33,7.12a2.34,2.34,0,0,0,.67,3.41l.75.22c1.5-.11,3-.19,3.79-1.77s0-4.73,3.18-4c2.91.67,5.61,1.43,7.64,4.59a72.48,72.48,0,0,0,7.82,9.86c3.22,3.49,7.29,4.47,11.68,1.81,2-1.2,3.12-.65,3.47,1.58a5.6,5.6,0,0,0,2.13,3.11c3.34,3.18,3.55,3.17,6.35-.74,2.42,6.31,1.19,8.34-6.81,11.46-1.28.5-3.9-.54-3.3,2.31.55,2.57,1.86,5.29,4.59,5.63,2.17.27,2-2.57,2.7-4.15.14-.33.3-.65.67-1.41,3.67,6.08,6.84,2.23,10.09-.31.8-.63,1.42-2.07,2.67-1,1.43,1.28.26,2.23-.74,3.12-3.44,3.08-4.42,5.52.23,9,4.27,3.18,3.63,11.17-.91,15.23-2.87,2.57-2.07,4,.52,5.32,8.2,4,9,13.15,14.1,19.32a2,2,0,0,1,.22,1.6c-2.56,8.47,4.16,11.53,9.23,15.48,2,1.57,4.4,2.68,6.45,4.22,2.33,1.76,4.25,3.38,3.46,7.22-.54,2.64.78,5.75,5.06,6.52,2.45.45,8,.68,4.86,6.47-1,1.81,1.44,2.71,2.57,3.76a4.8,4.8,0,0,1,1.73,4.92c-.62,2.41-2.43.57-3.68.76a3.84,3.84,0,0,0-3,5.79c2.41,4.08,1.34,10.17,7.13,12.38,1.37.52,1.05,2.1.93,3.43a3.64,3.64,0,0,0,2.46,3.87,2.13,2.13,0,0,0,1.94-.4c1.22-1.8-.2-3.3-1.24-4.34-3-3-3.54-6.7-3.58-10.62,0-1.51-.06-3.3,1.78-3.53,2.47-.31,1.51,1.69,1.7,3,.67,4.73,1.4,9.48,6.09,12.53,1.81-.82-.1-7.22,5.32-4.14.6.34,1-.83,1.2-1.53,1.06-3.17,1.91-2.48,3.85-.29,2.29,2.6,5.51.53,8.33.24-1.08-3-3.81-3.71-7.7-5,7.6-3.8,6.29-10.86,8.06-16.7a3.13,3.13,0,0,0-2.75-4.06c-6.6-1-11.33,2.88-12.06,9.82-.24,2.28-1.2,3.13-3.18,2.17-3.44-1.67-7-3-4.8-8.45,1.08-2.74-.07-6.25-2.53-8.94-2.16-2.36-3.8-5.25-.36-8.09,1.43-1.18,3.33-2.47,1.75-4.44s-2.47,1.84-4.74.56c.07-3.36-1-7.64.48-10.77,2.46-5.25-6.4-6-3.38-10.74,2.53,1.12,4.91,5.7,6.83,3.84,2.33-2.27-2.6-4.37-3.36-7.06a2.76,2.76,0,0,0-.56-.94c-1.64-2.13-4.37-5.39-2.14-6.89,2.84-1.92,5.57,1.66,7.49,3.93,2.12,2.52,3.51,5.45,2.54,9.08-.76,2.89,1.33,4.1,3.77,4.06,7.35-.12,9.59,1.72,10.45,9.19.08.68-.34,1.42.47,1.94,1.69,0,1.72-1.47,2.34-2.56,2.08-3.7,4.74-3.72,6.49.17a4.59,4.59,0,0,0,5.28,2.91c4.1-.48,5.92,1.71,6.4,5.16s2.31,5.16,5.83,5.24c4.53.11,7.79,3.28,11.47,5.19,2.85,1.48,3.85.68,5.32-1.35,3.39-4.7,5.53-4.51,8.36.6,1.42,2.56,12.06,3,13.49.46,1.08-1.89-.25-2.89-1.86-3-4.89-.28-7.81-2.8-9.32-7.26-.56-1.64-2-1.85-3.59-2a18,18,0,0,1-13.3-7.45,26.89,26.89,0,0,0-11.5-8.78c-7.3-2.76-10.9-9.94-16.7-14.57-2.68-2.15-5.92-2.82-8.62-4.79-5.75-4.18-8.21-11.06-13.64-15.6C837.41,726.25,838,722,839.36,718.74Z" fill="#5d4b3e"/><path d="M645,693.48c5.22,3.87,9.55,8.21,11.37,14.84,2.25,8.18,6,10.58,14.63,10.26a4,4,0,0,1,3.77,1.44,4.86,4.86,0,0,0,2.19,1.36c4.66-4.92,10.53.21,15.94-2.15,7.19-3.14,10.31-7.84,10.7-15,.13-2.46-.27-4.38,3.51-4.79,2.23-.24,5.66-1.41,5.85-5.37a3.88,3.88,0,0,1,3.53-3.09c5.63-.09,5.62-4,5.68-7.86,0-2.33-.89-5.06,3-5,.35-.39.7-.79,1-1.19h-.05c-1.46-.73-2.68-2.08-4.56-1.7-7.56,3.26-14.74,6.88-17,15.81-.68,2.68-2.39,2.62-3.94.71-5.39-6.62-13.49-4.6-20.39-6.16-3.35-.76-6.19,1.92-7.91,5-.8,1.45-1.24,3-1.93,4.55-2.79,6-8.1,7.24-12,2.07-3.62-4.78-7.27-9.11-12.76-11.74a2.94,2.94,0,0,1-1.72-2.67c.14-3.86-2.53-5.73-5.11-7.91-4.49-3.8-4.06-11.28.64-15.23a10.32,10.32,0,0,0,2-1.87c4.36-4.91,4.46-5,9.79-1.57a22.62,22.62,0,0,0,10.89,3.28c9.08.7,16.17-3.31,22.72-9a12.13,12.13,0,0,0,4.24-7.94,22.43,22.43,0,0,1,1.57-6.33c2.31-5.07,1.65-9.53-2.45-13.42a8.94,8.94,0,0,0-5-3.5c-2.13-.23-4.09,0-5.45,1.92-.33,3.51,3,4.21,4.88,5.87,3.41,3,4.19,6.16,1.79,10.07-1.51,2.48-3.1,4.93-4.45,7.48a7.42,7.42,0,0,1-7,4.23c-7.71,3.55-15.35,3.69-22.85-.56-2.39-1.36-4.82-1.46-6.54.65-2.91,3.55-5.21,2.16-7.63-.38a2,2,0,0,0-2.6,1.38c-1.7,5-5.49,4.1-8.78,2.62s-7-1.88-9.88-4.37a2,2,0,0,0-3,.17c.89,3.74,4.1,4.84,7.14,6.12,3.75,1.59,7.11,3,7.11,8.3,0,2.39.11,5.92,4,7.36,2.69,1-.91,3.47.3,5.81,2.92,5.68,5,11.7,11.61,14.5C643.15,691,644,692.45,645,693.48Z" fill="#685648"/><path d="M756,704.61a8.38,8.38,0,0,0-8.22,6.6c-1.51,5.6,1.25,12.67,4.83,14.67,2.18,1.23,3.59.18,4.47-1.49.66-1.26.79-2.78,2.31-3.47l1-1.18c1.7-5.31-3.79-8.32-4.24-13Z" fill="#49382d"/><path d="M887.22,895.2l10.3,20.95a55.67,55.67,0,0,1,.1-7c.25-1.9.38-3.3-1.57-4.52-3.27-2-2-5.87-3-8.8A10.63,10.63,0,0,1,887.22,895.2Z" fill="#5a4a3e"/><path d="M756.15,706.79c-.51,2.43-1.13,4.64,1.43,6.71a7.94,7.94,0,0,1,2.81,6.24c3.77-3.93,4-7.81.37-12.12C759.19,705.78,758,705.53,756.15,706.79Z" fill="#4f4033"/><path d="M913.59,839.12c.15-2-1.12-3.45-1.87-5.11-2.12,1.33-2.66,3-1.62,5.38.42.93.3,2.47,1.51,2.48C913.09,841.88,913,840.09,913.59,839.12Z" fill="#584739"/><path d="M931.07,800.65c.59,1.86,1.17,3.71,1.84,5.81,1.75-2.8.88-5.57,1-8.22C932.45,798.42,933.85,802,931.07,800.65Z" fill="#726458"/><path d="M593.88,725c4.31-4.27,10.38-1.83,15.56-3.94,2.78-1.13,6.06-1.52,7.86-4,3.24-4.4,7-2.48,10.76-1.52.49.13.84.74,1.32,1,2.14,1,5.34,2.4,6.37.32,1.41-2.84-2.22-3.54-4.24-4.4-3-1.25-5.85-3.37-9.37-1.24a3,3,0,0,1-2.59-.22c-4.84-3.22-9.38-2.84-15-1.19-6.59,1.91-8.31,6.39-10.06,11.54C594.1,722.43,592.4,723.29,593.88,725Z" fill="#776556"/><path d="M632.39,704.27A9.34,9.34,0,0,0,638,705a10.67,10.67,0,0,1,6.43-.57c1.11.29,2.7.23,3.17-1.43a3.12,3.12,0,0,0-1.15-3.42c-4.2-3.55-8.14-7.47-12.67-10.54-2.54-1.72-3.08-4.41-4.92-6.39-2.1-2.24-3.78-3-4.4.54-.49,2.79-1.63,2.43-3.71,2.23a18.31,18.31,0,0,1-7.29-2.4,18.84,18.84,0,0,0-9.54-2.11c-8.45,0-14.36-6.85-12.45-14.86.83-3.47,2.23-7.77-.91-9.66a14.17,14.17,0,0,0-13.29-.73c-8.81,4.46-13.62,12.71-16.4,21.52-1.57,5,4.06,3.36,6,2.59,4.66-1.83,8.6-.8,12.74,1.12,2.08,1,4,2,4.94,4.15a8.81,8.81,0,0,0,6.23,5c6.48,1.49,11.39,5.68,17,8.73a26.69,26.69,0,0,0,15,3C626.12,701.55,629.74,701.3,632.39,704.27Z" fill="#514236"/><path d="M657.81,575.66c-6.24,4.31-11.73,9.75-19,12.5l-8.24,8.25c-.94,2.13-2.78,3.75-3.6,6,.23,2.7-.6,5.43.32,8.1,2.23,3.71,5.12,4,8.18,1.19,6.14-5.55,13.51-5.16,20.06-2.49,11.58,4.72,23.2,4.22,35.07,2.86a6.36,6.36,0,0,0,4.42-3,20.77,20.77,0,0,1,3-3.9c4.21-3.45,4.74-7.5,2.47-12.18-3.64-4-5.6-10-12.24-10.53-1.34,2.51.28,4.12,1.82,5.72,1.27,1.32,2.8,2.39,4,3.82s2.21,2.79,1.38,4.45c-1,2-2.88.9-4.44.65-11-1.77-21.93-2.91-33-1-2,.34-4-.24-6-.41-2.36-.2-5.28-.13-5.89-3-.55-2.54,1.48-4.52,3.48-5.79,3.54-2.25,6.63-5.23,10.75-6.62,1.82-.61,4.07-1.27,3.32-4.1C661.72,575.15,659.76,575.43,657.81,575.66Z" fill="#cec0a6"/><path d="M613.28,606.35c-2.74,1.65-2.27,5.19-4.48,7.31-1.27,1.23-1.92,2.83-4,3.32-2.53.59-4.38,2-3,5.17.27.59.37,1.71,0,2.06-6.11,6-7.61,14.85-13.35,21.63a6.94,6.94,0,0,0,7.07-1.5c4.42-4.5,8.36-3.43,12.6-.16,1.79-2.21,1.15-4.66.7-7.09a5.6,5.6,0,0,0-1.32-2.21c-4-4.48-3.25-12.28,2.26-16.58C614.08,615,615,611.16,613.28,606.35Z" fill="#685648"/><path d="M613.28,606.35c-.24,5.09-1.28,9.56-6.22,12.65-2.93,1.83-4.57,4.75-2.68,8.89,1,2.26-3.42,6.32,2.27,7.48a12.36,12.36,0,0,0,2.78-9.18c-.15-2.38.45-5,2.65-5.53,9.87-2.47,11.3-11.56,15.45-18.53,1.91-1.44,3.28-3.16,3-5.72-2,1.73-4.16,3.41-6.13,5.23-1.2,1.1-2.39,1.71-3.85.75C615.54,599.1,614.43,602.73,613.28,606.35Z" fill="#705d50"/><path d="M599,673.89a11.3,11.3,0,0,1,2.1.05c1.56.31,3.29,3.24,4.51.82s3.15-5.16,1.4-8.26a12.59,12.59,0,0,1-1.74-3.4c-.75-3.66-3.32-4.91-6.44-4.11-3.4.88-5.74,3.23-5.11,7.26.2,1.25.74,2.55.54,3.74C593.55,674.07,595.8,674.54,599,673.89Z" fill="#6d5a49"/><path d="M607.62,636.46c.18,2.57.35,5.15.53,7.72,2,.69,2.57,2.65,3.61,4.18,3.7,1.59,7.25,3.49,11,5.07,6.33,2.69,9.19,2.18,12.16-3.9.18-.36,1-.42,1.46-.63l.22-.73a1.81,1.81,0,0,0-1.09-1c-2.43-.4-3.73,1-4.51,3-1.08,2.75-2.63,1.64-4.23.65-7.14-2.21-12.88-6.15-16.53-12.8C609.69,637.07,609,636.05,607.62,636.46Z" fill="#705d50"/><path d="M706.59,571.26c4.26,2.41,9.46,2.76,13.4,6a3.26,3.26,0,0,0,2.61.43c8.39-2.59,17.65-4.06,20.06-14.7a7.14,7.14,0,0,1,1.12-1.87c-1.56-.52-3.35-.72-4.62-1.64-1.72-1.23-5-.77-4.77-4.34.28-3.76,3.5-2.86,6-3.7-.51-2-3.82-3.33-1.05-6,1.86-1.77.5-3.46-1.6-4.69-2.43-1.43-5.47-2.29-6.69-5.71,2.6-.85,3.65,1.27,5,2.38,2.72,2.31,5.78,3.46,9.16,2.36,1.73-.56,4.9-1.55,1.39-4.36-1.94-1.55.24-5.15-2.85-6.34-2.21,4.72-6.85,5.89-10.95,3.59-3.36-1.89-5.17-6.29-10.11-5.82-1.67.16-2.31-2.09-2.67-3.73-.42-1.88-1.27-4-3.36-3.39s-.74,2.68-.3,4.23c.39,1.38,1,3.3.42,4.26-4.5,7,1.38,11,4.47,15.85.48.75,1.46,1.21,1.89,2,1.42,2.54,1.16,4.59-2.06,5.46a18.55,18.55,0,0,0-3.21.76c-1.71.82-4.47.84-4.28,3.55.17,2.44,2.34,3.62,4.38,4.51s6-1.43,4.9,3.45c-.94,4.22-3.74,6.16-8.07,5.71a17.36,17.36,0,0,1-3.68-1.14C708.24,567.36,706.77,568.33,706.59,571.26Z" fill="#392a22"/><path d="M805,434.5c-3.51,3.59-7.75,6.48-9.18,11.82-2.07,7.74.67,11.72,8.35,11.4.09,0,.21.65.32,1,1.49-1.23.76-3.89,3-4.63C804.7,447.81,805.59,441.06,805,434.5Z" fill="#4d372e"/><path d="M793.92,500.27l-1.8-2.7c-7.38,10.71-9.66-2.71-14.79-3.07-1.07,2.51,1.39,4.39,1.22,6.71.64,2.44,2.54,3.44,4.74,4.1,3.68.68,7.4.69,11.11,1.82s8,1.62,11-2.23c-1.29-1.55-3.08-1-4.54-.71C797.24,505,795,503.72,793.92,500.27Z" fill="#715341"/><path d="M828.69,454.84c5.83-4.95.32-8.16-1.86-11.89-.71.17-1.65.7-2.07.44a4.87,4.87,0,0,0-7.16,1.53c-1.55,2.59.66,4.67,3,6C823.4,449.43,825.93,450.65,828.69,454.84Z" fill="#3b2d26"/><path d="M805.41,504.9c-4.82,1.25-9.65,3.8-14.27-1-.27-.29-5.26-.13-8,.46-.19.54-.27,1.23.12,1.55,3.62,2.95,4.88,6.54,3.38,11-.14.43.4,1,.82,1.36l1.35,1c2.28-6.3,5.22-11.63,13.54-10.44C805,509.21,805.82,507.32,805.41,504.9Z" fill="#49372d"/><path d="M764.47,516.46c2.85,8.46,10.42,12,17.22,16.32a1.93,1.93,0,0,0,2.82-.81c.46-1.32-.82-1.81-1.8-2.31-2.42-1.22-4.9-2.36-7.23-3.72C771.22,523.46,767.28,520.6,764.47,516.46Z" fill="#4d3c33"/><path d="M811.92,453.71c-1.65-1.77-2.92.66-4.44.39,3.68,7.39,3.68,7.39,9,7.8C815.15,458.91,811,457.57,811.92,453.71Z" fill="#4d372e"/><path d="M941.79,840.39c-4.06,15.41-4.27,30.64,2.91,45.52C942.3,870.78,945.28,855.46,941.79,840.39Z" fill="#675346"/><path d="M956.69,858.19c-1-2.33-.84-5.4-4.52-5.92-2.31-.33-1.56-2.56-1.63-4-.17-3.73,0-7.48-1.74-12.62-2.6,8.9.92,15.85,1.27,23,.63,1.49,1.26,3,1.93,4.53,2.41,0,1.38-2.56,2.5-3.51A3,3,0,0,0,956.69,858.19Z" fill="#675346"/><path d="M928.75,899.26c3.43-5.62,1.13-11.22-.09-16.82-.58-1.48-1.17-3-1.91-4.83C923.93,885.46,926.1,892.38,928.75,899.26Z" fill="#584739"/><path d="M923.66,859.76l-3.26-2.14c.34,5.92.28,11.9,2.76,17.75C925.83,870.06,924.42,864.9,923.66,859.76Z" fill="#584739"/><path d="M892.16,958.78c1.94-7.4,1.94-13.88-1.84-20.68C887.16,948.45,887.37,951,892.16,958.78Z" fill="#49382d"/><path d="M870.73,948.54c-2.28,4.18-2.34,8.34-2.91,12.4,1.91.1,1.29-1.9,2.65-2.68.24,6.54.92,12.8,4.2,18.74,1.46-1.28,2.27-3.32,1.25-4.56-5.28-6.41-1.76-14.53-4.61-21.35A17.93,17.93,0,0,1,870.73,948.54Z" fill="#49382d"/><path d="M876.67,933.38a3.48,3.48,0,0,0-3.64-3.12c-1,6.19,0,12.24,1.19,18.31.72,3.53,1.57.82,2.43.25C876.85,943.67,875.62,938.52,876.67,933.38Z" fill="#49382d"/><path d="M885.19,962.61c1.39-5.37-1.5-9.51-3.83-15C879.62,954.2,883.4,958.09,885.19,962.61Z" fill="#49382d"/><path d="M856.86,971.17c-3.48,4.43-2.94,8.79.25,13.1,1.09-.06,1.45-.82,1.66-1.71,0-1.75.22-3.54-1.35-4.85Z" fill="#49382d"/><path d="M865.91,970.51c-1.32-.63,2.14-4.58-2.2-3.12-.24,3-.41,6-1.65,8.8C865.63,975.82,864.87,972.57,865.91,970.51Z" fill="#49382d"/><path d="M859.24,956.91c-1.12,3.73-2.8,7.4-1.2,11.6,2.08-1.2.58-3.27,1.63-4.52C859.53,961.63,859.38,959.27,859.24,956.91Z" fill="#49382d"/><path d="M773.32,633.94l18.86-1.18c4.65-1,8.47-4,12.88-5.54,1.13-3.8-2-4-4.26-4.81-2.08-.73-4.42.15-7.16-.93,3.68-2.59,4.82-5.73,1.87-9.47,2.86-.57,4.13.73,4.67,2.6.88,3.07,2.07,5.46,5.93,5.18s7.92-.47,9.24-5.26l2-2.41c-4.89-2.24-8.28-5.23-6.87-11.36.67-3-1.07-5-4-5.59-4.17-.89-8.37-1.6-12.38.7-1.22,1.76,2.49,1.79,1.29,3.19a6,6,0,0,1-4.51,1.77c-9.6.25-12,3.4-9.41,12.39.36,1.24,1,2.61-.51,3.39-1.26.66-1.92-.59-2.66-1.37-.92-1-1.25-3.06-3.22-2.25-1.77.74-1.84,2.58-2,4.23a13.55,13.55,0,0,0,.79,6.47c0,.18,0,.36,0,.54-.11,2-3.79,2.13-2.79,4.09,1.09,2.14,3.89,1.43,5.95,1.73-3.06,1-7-.8-9.54,2.45C768.69,635.71,771.56,632.56,773.32,633.94Z" fill="#9f907a"/><path d="M815.35,614.53a12.66,12.66,0,0,1-8.63,4.06c-3.46.16-5.14-1.16-5-4.05.2-3.76-3-3.5-4.82-4.82a1.84,1.84,0,0,0-2.82.72c-.58,1.08-1.51,2.29.16,3.3,4.37,2.62,1.31,4.28-.85,5.94-.83.65-3.08-.14-2.35,2a3.33,3.33,0,0,0,3.14,1.93c1.66,0,3.33-.3,5-.16,2.58.22,5.26.52,5.9,3.79,7.1-2.71,10.43-9.59,15.9-14.11C818.59,611.65,817.8,616.3,815.35,614.53Z" fill="#867966"/><path d="M885.38,405.64c-1.35-.65-2.71-3.05-4.16-1.19-2,2.63-6.66,3.84-5.31,8.54,1.48,2.24,3,4.49,5.88,5.13,1.73-.3,3.1.39,4.61,1.23,12.65,7,11.35,5.5,14.58-5,2.12.17,1.49,2.11,2.13,3.22s1.83,2,3.16,1.31a3.12,3.12,0,0,0,1.8-3.63c-.37-1.52-8.13-5.22-10.09-4.86-4,2.05-7.09,1-9.58-2.62A4.81,4.81,0,0,0,885.38,405.64Z" fill="#2c201e"/><path d="M861.81,434.9c3,1.39,3.75,5.26,7.19,6.1,9.19,3.37,16.46-1.12,20.19-12.47-3.23-1.21-6.21.43-9.3.79-3.22,1.77-6.21,1.74-9-.9a19.77,19.77,0,0,0-3.72-2.37c-2-1.17-4.21-1.72-6.2-.1-2.37,1.92-1,3.87.24,5.77.4.61.16,1.44.46,2.12A6.37,6.37,0,0,1,861.81,434.9Z" fill="#30221c"/><path d="M885.38,405.64c.86,3.29,3.94,5.11,5.86,7.56,1.66,2.12,4.65-1.15,6.74-2.78.23-.85.2-2,.75-2.52,3.17-3,1.78-5.2-.89-7.68s-6.05-4.59-7.88-8c-3.6-3-5.33-2.9-6,2.44C883.41,398.62,884.76,402,885.38,405.64Z" fill="#715546"/><path d="M879.4,430.49a27.59,27.59,0,0,0,9.79-1.95l1.94-2.57c-5-.21-5.73-5.88-9.35-7.85-1.84-1.84-2.94-4.52-5.87-5.13a7.74,7.74,0,0,0-4.39,1.43c-2.61,3.35-2.45,6.22,1.45,8.49,1.75,1,2.9,1.68,1.88,4.54C873.53,431.17,876.68,431.15,879.4,430.49Z" fill="#715546"/><path d="M899.89,373.78c-2.43,2.55-2.9,6.52-6.77,8.23-1.13.5-2.26,3.85-.28,5.86,1.44,1.46,1.54,3.23,1.64,5.05,4.59-2.26,8.15-5.84,12-9.1,1.12-.95.88-1.43.3-2.61A16.46,16.46,0,0,0,899.89,373.78Z" fill="#715546"/><path d="M910.24,408.64c-1.14-1.46-1.38-2.55.33-4.09,2.3-2.07,4.21-4.66-.61-6.38-1.62-.58-2-2.1-1.94-3.59.19-2.75-1.79-3.74-3.69-4.83-1.18-.68-2.59-.22-2.69.84-.22,2.51-3.81,4.78-1.81,6.92,3.11,3.31,6.31,6.29,7.5,10.89.35,1.36,1.91.3,2.92.21Z" fill="#2b2020"/><path d="M879.4,430.49a6.28,6.28,0,0,1-4.67-2.26c6.52-1.62,3.63-4.46.63-5.47-4.84-1.63-4.53-4.68-3.85-8.34-1.35-4.32-3.75-.36-5.61-.7-1.24,3.48-5.19,3.69-7.39,6-3.13,5.61-2.26,10.35,3.11,14.12.45-1.15,1.26-2.28.12-3.49s-1.93-2.4-.26-3.63a3.64,3.64,0,0,1,4.55.11c1.78,1.22,3.87,2.13,5.37,3.62C874.2,433.24,876.72,432.78,879.4,430.49Z" fill="#644839"/><path d="M858.51,419.72c2.92-.65,5.64-3.22,9.13-.28-.69-2.36-4.68-3-1.74-5.72C861.84,413.8,858.09,414.25,858.51,419.72Z" fill="#715546"/><path d="M697.36,583c-3.7.3-5.62-3.5-9-3.86,1.43,4.88,6.52,6.58,9.26,10.4,1.33,1.85,3,3.46,3.94,5.63.67,1.38,1.17,2.84,1.94,4.18,2.36,2.18,2.65,5.3,2.8,8,.38,6.75,4.27,10.4,10,12.89.34.16.68.28,1,.43,1.91.81,3.54,3.43,5.89,1.63s1.45-4.38.78-6.64a4.92,4.92,0,0,1,2.1-6.14,15.5,15.5,0,0,0,5.85-7.11c.33-.87.71-2.14,1.61-2,3.88.51,6.93-1.24,9.54-3.75,1.85,2.28-1.75,4.31.84,5.9a11.79,11.79,0,0,0,8.71-.71l.58-.71c1-4.55-2.41-8.08-8.42-8-2.59,0-5,.81-7.21-1.25a1.62,1.62,0,0,0-2.43.36c-.36.41-.62,1.29-.93,1.3-8.14.11-9.82,7.19-13.54,12.1-.82,1.09-1.71,2.72-3.55,1.79-1.54-.77-3.07-2.06-2.34-3.87,1-2.55-.69-4-2-5.25C707.63,593.16,703.12,587.44,697.36,583Z" fill="#856e5a"/><path d="M756.81,588.82c.44,3.76-1.68,7.24-1.16,11.07.22,1.63-1.58,1-2.5,1.21h0c-3,2.4-6.57.61-9.81,1.28-2.55.2-3.69,2.21-5.12,3.86a5.82,5.82,0,0,0-.61,5.67c1.88,2.9,5,4.11,7.83,5.82,3.44.72,6.13.72,7.83-3.46a10.61,10.61,0,0,1,6.37-6.28,8.32,8.32,0,0,0,7.36-2.91c3.25-3.67,3.36-6.36,0-10-2.14-2.32-3.73-4.58-1.39-7.6.82-1.07,1.63-2.06.46-3.34a3.46,3.46,0,0,0-4-.77C759.4,584.35,758.19,586.67,756.81,588.82Z" fill="#413127"/><path d="M756.81,588.82c2.11-1.43,3.49-3.8,6.05-4.62,1.11-.36,2.3-.33,2.85.86s-.55,1.47-1.31,2c-1.76,1.09-1.82,6.85.1,8,2.46,1.49,5.14,2.91,3.51,6.22-1.71,3.47-4,6.63-8.88,5-.43,1.19-2,2.17-.72,3.69,2.78,1.14,5.27-.08,7.1-1.72,3.56-3.17,7.82-4.42,12.26-5.47,3.23-.72,6.38-1.78,9.64-2.33,2.54-.43,4.91-1.29,5-4.17,0-3.2-2.39-4.21-5.22-4.43a31.76,31.76,0,0,1-4.35-.27c-2.59-.26-5.75,2.46-7.66-1.6-1.15-2.44-5-2.75-4.83-6.63.11-2.22-2.31-3-4.56-2.63a21.78,21.78,0,0,0-4.71,1.4,3.84,3.84,0,0,0-2.16,2.29l-2.19,3.23C756.72,588,756.77,588.42,756.81,588.82Z" fill="#5e4d3f"/><path d="M891.8,913.94c-1.74,3.47.11,7.06-.34,10.57-.12,2.4-1.23,5.06,1.71,6.7a16.88,16.88,0,0,0,3.42-12.37C891.66,920.41,893.34,915.63,891.8,913.94Z" fill="#584739"/><path d="M883.86,939.55c-1.82-2.55,3.1-7.28-2.8-8.51l-1.14,3.21c.65,2.09,1.86,3.91,2.41,6.13C882.83,942.39,883.5,940.3,883.86,939.55Z" fill="#49382d"/><path d="M787.46,518.26c0-.55-.24-1.23,0-1.62,2.86-4.61,2-8.13-2.92-10.67-.6-.31-.94-1.09-1.41-1.65l-4.59-3.11c-5,1.11-5.68-4.09-9.4-6.34l.41,5.93a26.44,26.44,0,0,0,2.66,6.44A31.31,31.31,0,0,0,787.46,518.26Z" fill="#2c1e18"/><path d="M772.22,507.24c-.37-2.36.46-5.2-2.66-6.44C767.49,504.14,770.07,505.6,772.22,507.24Z" fill="#49372d"/><path d="M531.25,738.76a27.15,27.15,0,0,1-11.46,3,28,28,0,0,0-13.52,4c6.37,4.19,12.86,7.25,20.31,5.35,4.12-1.06,8.47-2.43,11.61-5.68.8-.82,1.43-1.93,2.61-1.6,5.75,1.64,10.75-.15,15.59-3,1.07-.64,3.37.79,3.35-1.61,0-1.53-1.9-1.42-2.94-2a15.74,15.74,0,0,1-1.31-1C547.09,734.16,539.23,737.05,531.25,738.76Z" fill="#c2b295"/><path d="M563.92,726.5c-4.25-4.59-9.67-5.32-14.49-1.57-2.49,1.93-4.55,4.42-7.66,7.52l10.26-.71c1.92-6.16,7.27-4.49,11.67-5Z" fill="#9d8971"/><path d="M563.7,726.75a21.12,21.12,0,0,1-2.12-.51c-6.73-2.35-8.11-1.56-9.56,5.51a9.39,9.39,0,0,1,4.6,1.87C560.46,732.83,565,732.71,563.7,726.75Z" fill="#c1b196"/><path d="M794.6,473.21c-.13-2,.14-4.2-1.91-5.48-.2-.12-1.15.41-1.26.78C790.59,471.27,793.05,471.92,794.6,473.21Z" fill="#4f3a2e"/><path d="M507.82,703c-.72,1.56-1.43,3.13-2.15,4.69.72,3.32-.78,6.14-2.34,8.8s-2.84,5.16-1.72,8.24a2.94,2.94,0,0,1-.3,2.56c-3.17,6.17-1.68,9.17,5.4,10.79,1.59.37,3.29.22,4.92.46,2.77.41,7.3,1,7.87-.38,1.25-3.12,3.43-6,3.94-9.33.2-1.3-.1-3.52-1-4-4.9-2.86-4.13-7.27-4.28-11.81C518,705.27,514.8,702.54,507.82,703Z" fill="#c6b89e"/><path d="M489.06,694.14c2.92-.13,5.68-.17,8.1,2.12,1.77,1.67,4.3,1.8,6.73,1.4,0-.36-.05-.73-.08-1.09-2.52.39-3.82-1.07-5.33-2.85C495.77,690.52,492.07,690.86,489.06,694.14Z" fill="#91816c"/><path d="M702.59,594.73c-1.74-5-6.62-7.29-9.76-11.08-1.36-1.64-3.56-2.49-4.51-4.55-2.7-3.23-6.53-4.13-10.41-4.91a1.41,1.41,0,0,0-.25,1.34c1.84,2,4.5,2.72,6.51,4.43,1.37.92,2.46,2.34,4.31,2.43,4.45,2.55,7.11,6.91,10.71,10.32C700.19,593.61,700.53,595.59,702.59,594.73Z" fill="#b3a082"/><path d="M677.94,575.41l0-1.22c-7.1-4.93-13.54-.89-20.1,1.47,1.8,1.05,3.77,1,5.74.83,4.31.69,8.55-.7,12.85-.34A2.42,2.42,0,0,0,677.94,575.41Z" fill="#b9ab93"/><path d="M794.09,596c3.86.13,7.68-.53,11.58.3,3.36.71,4.91,2.24,3.19,5.19-2.51,4.28,3.1,6.42,2.2,10.1l6.25.52c1.75-3.57,5.62-5.87,6.21-10.14,1.67-3.58.3-7.34.58-11,.18-2.29-1.68-3-3.63-3.21a10.33,10.33,0,0,0-5.73,1.48c-6,2.85-4.11-2-4.59-4.56-3.87-2.72-8.08-4.37-12.36-1.37-2.68,1.88-5.37,2-8.31,1.8a10.33,10.33,0,0,0-4.26.85,3.24,3.24,0,0,0-2.15,2.89,2.35,2.35,0,0,0,2.44,2.44C789.36,591.25,791.55,593.89,794.09,596Z" fill="#beb8a5"/><path d="M814.81,590.33l2.09-.65c4.34-1.43,2.94-.57,4.42,2.17,1.9,3.48.72,7,2.2,10.13,6.26-7.71,6.75-17.09,7.23-26.29.15-2.93-4-1.56-6.06-3.1.27-1.1,2.08,0,2.18-1.33l-3.65-1.15-8.84-1.91c-2.62.09-6.56-1.56-7.49,1-1.1,3,3.21,3.63,5.24,5.24,2.28,1.8,5.43,2.27,7.54,5.12-3.2,1.58-4.71,4.71-7.27,7C809.6,589.08,812.91,589.7,814.81,590.33Z" fill="#a09787"/><path d="M839.2,574.41c1.57-5.43-4.44-4.62-6.16-7.34.18,1.42.35,2.84.54,4.26,2.18,1.33.63,4,2,5.66C837.32,576.82,837.17,574.08,839.2,574.41Z" fill="#91806e"/><path d="M814.81,590.33l-2.7-2.76c5.29.25,4.94-5.67,8.91-7.44,1.28-.58-1.59-3.28-3.3-4.28-3.45-2-7-3.77-10.82-5.77,2.48-2.86,5.44-.19,7.48-1.88-11.76-2.4-23.53-5.19-35.07,1a9.67,9.67,0,0,1-2.69.55c0,.37,0,.75.07,1.12a3.84,3.84,0,0,0,2.62,3.65c3.36-1.37,6.38-3.2,10.28-.28,1.39,1,4.65-1.35,7-2.3,6.23-2.53,7.25-1.86,6.69,5.08a3.52,3.52,0,0,0,.5,2.07,9.91,9.91,0,0,1,6.21,6c1.9,2.41-5.15,2.29-1.48,5.26C810.68,592.19,812.72,592,814.81,590.33Z" fill="#6f5f50"/><path d="M779.1,574l-2.41-3.12c-6.61,1.15-13.4,1.71-19.49,4.81-2,1-4.7,2-4.17,5s3,3.81,5.84,3.73l2.06-1.37c5.22-2.53,10.34-5.27,16-6.74A3.12,3.12,0,0,0,779.1,574Z" fill="#95836c"/><path d="M623.8,724.71l8.87-.62C629.57,722.22,626.53,721.29,623.8,724.71Z" fill="#503f32"/><path d="M721.71,676.09l4.47.79-1.29-3.2a4.27,4.27,0,0,0,1.87-5.24c-.69-2.33-.54-4.73-.61-7.08-.17-5.4,1-6.24,6.48-5.33a2.59,2.59,0,0,0,2.51-.78,3.53,3.53,0,0,0-.58-4.11c-5.4-5.36-6.18-12.61-8.42-19.29-1.81-5.41-7.08-6.51-10.6-2.43-1.37,1.58-.81,3.47-1.17,5.21-.82,4,1.9,7.86.31,11.84a5,5,0,0,0,0,1.63,106.47,106.47,0,0,1,7.3,22.17C722.44,672.38,721,674.13,721.71,676.09Z" fill="#755f4d"/><path d="M740.15,669.31c3.42,3.6,8.47,2.79,12.6,4.53,1.29.54,2.86-.21,3.85-1.56.52-.7,1.4-1.86,1.89-1.76,5,1.08,6.09-1.63,8-5.63,1.77-3.71,5.09-5.68,0-9.47-2.46-1.83,1-4,2.36-5.74a4.06,4.06,0,0,0-2.28-.91,5.83,5.83,0,0,0-1.67.19,4.07,4.07,0,0,0-1.47.77c-1.89,5.17-.84,11.19-4.66,15.8-3.47,4.64-8,5-13.11,3.27-.39-.31-.8-.6-1.19-.91-1.95-1.52-2.76-3.88-4.29-5.69-.83-1-1.64-2.8-3.4-1C735.45,664.92,738.52,666.82,740.15,669.31Z" fill="#755f4d"/><path d="M740.15,669.31c.22-3.25-3.64-5.21-2.8-8.66.35-2.35.7-4.7-2.58-5.33-.71-.11-1.43-.26-2.15-.33-2-.2-3.46-4.07-5.6-1.63-1.79,2.06-2.47,5-2.56,8-.12,4.13,3,8.13.43,12.31,3.58.87,2.85-2,3-3.68s.18-3.39,1.43-5c2.09-2.74,3.68-4.53,5.47.07C735.72,667.51,737.84,668.53,740.15,669.31Z" fill="#685648"/><path d="M766.59,649.82l2.22-.14c2.28-4.62,6.76-8.84,2.75-14.62l1.76-1.12c-1.52-1.89-4.23.1-5.76-1.73-.53-1.5-1.69-1.88-3.14-1.8a3.4,3.4,0,0,0-1.38.66c-.45,1.5-.64,2.95.69,4.16,4.76.94,5.34,4,4.3,8C767.48,645.43,765.42,647.3,766.59,649.82Z" fill="#816d5b"/><path d="M636.34,648.9c-.06,2.23.8,4.07,3,4.75s2.84-1.38,3.78-2.57c2.16-2.71,3.83-3.11,7.31-1.18,7.33,4,15.2,4.76,22.72-.23.83-4.62-.13-5.53-4.45-4.77-2.29.41-4.51,3.1-7,.47-1.18-1.7-.25-2.74,1.18-3.52a11.36,11.36,0,0,0,4-3.7c3.39-5,1.75-9.31-4.11-10.76-1.6-.4-3.33-.1-5.18-1,2.34-2.36,6-1.44,8.21-3.65-.34-3.36-4.61-1.85-5.59-4.41-8.83-2.22-19.36,3.35-24.16,11-4.43,7.1-3.18,8.24,1.33,12.47,2.16,2-.17,4.73-1,7Z" fill="#433328"/><path d="M721.71,676.09c3.93-3.06.71-6.38.57-9.69-.24-5.87-3.32-10.68-5-16-.3-1-1.28-1.71-1.94-2.55-2.55-.24-2.83,1.39-2.78,3.29a81.66,81.66,0,0,1,5.57,16.35c1.17,5-.44,7.1-4.32,8.93a44.31,44.31,0,0,0-4.46,2.12c-4.72,6-10.17,8.08-18,5.49-3.65-1.21-7.74-1.88-11.62-2.88a10.18,10.18,0,0,0-6,.6,9.91,9.91,0,0,0-4.29,4.75c-4.39,8.33-8.21,8.13-13.31,3.42-2-1.88-4-3.66-5.15-6.2a9.63,9.63,0,0,0-.78-1.31c-2.48-4.93-7.34-8-10.19-12.61-1.61-2.63-3.53-5.27-.74-8.3.56-1,.94-1.91,0-2.86-5.41.29-4.18,4.84-4.74,7.83-.67,3.62-.34,7.42,3.43,9.67,2.73,1.63,5.5,2.93,4.26,7.07-.69,2.28,1.75,3,3.25,3.84,4.37,2.38,8.37,4.7,10.58,9.77a8.77,8.77,0,0,0,8.56,5.1c3.82-.28,5.8-2.66,7.28-6.26,4-9.88,5.07-9.34,15.59-7.67,5.92.93,10.65,1.79,14.26,6.81,1.19,1.66,3.63.43,3.81-1.3C706.53,683.59,714.58,680.3,721.71,676.09Z" fill="#927c63"/><path d="M639.26,658.65a2.22,2.22,0,0,1-.93,2.24c-1.36,2-1.26,4.13.53,5.39,6,4.23,9.08,10.18,11,16.94h0a25.14,25.14,0,0,0,9.41,8.19c5.8,2.7,8.81.53,8.6-6.2a15.76,15.76,0,0,0-1.15-1.77c-.3-.46-1.27-.67-.72-1.43.07-.11.93.36,1.45.53a48.15,48.15,0,0,0,5.76.11c9-.48,17.44,3,26.18,4.39,3,.46,3.82.15,5.24-2a50.59,50.59,0,0,1,5.09-5.71l-.51-.59a4.05,4.05,0,0,0-4.21.43c-7.6,5.86-14.88,2.52-22.5-.15-4.91-1.72-9.67-4.39-15.35-3.67-3.67.47-6.49-2.22-9.54-3.87-4.82-2.62-10-4.63-13.78-8.88-1.9-2.05-.71-3.55.85-5.06s2.91-.4,4.35.37c3.61,1.91,7,5,11.59,2.68a4.38,4.38,0,0,0,1.13-1.06,1.13,1.13,0,0,0-.31-1.35c-2.76-.74-5.65-.64-8.29-2.34C645.15,650.69,644.7,650.89,639.26,658.65Z" fill="#b19e82"/><path d="M683.33,620.21l3.57,3c8.51,3.64,10.67,14.83,4,20.9C686.1,648.5,682.5,654,676,656.63c-4.76,1.88-9.67,1.42-14.39,2.6l-.1.14c1.15,4.49,5.11,3.75,8.07,3.67a42.39,42.39,0,0,0,24.75-8.32c6-4.67,8.77-12.35,7.5-20.18-2.06-12.67-10.81-19.72-24.68-20.6a147.69,147.69,0,0,1-21.19-3.36c-9.43-2-17.14-.17-23.1,7.58-.06,1.84,1.15,2.6,2.66,3.11,2.07.39,4.21.3,5.73-1.12,7.16-6.74,15.52-5.16,23.74-3.27,2.83.64,5.69,1.2,8.51,1.91C676.65,619.91,680.13,619,683.33,620.21Z" fill="#b19e82"/><path d="M659.72,618.66c-.28,4.6,4.46,1.91,5.92,4-.24,2.26,1.42,2.65,3.05,3.07,1.46.19,3,0,4.28.95,2.06,7.48-.18,13-6.62,16.45-1.9,1-4.3,1.13-5.75,3,1.42,2.76,2.95,2.38,5.62,1.12,2.17-1,6.95-4.67,6.9,2.43,3.36.56,6.49.71,7.39-3.67.09-.47.71-.81,1-1.26,8.61-12.86,8.43-14-3.64-23.12-.46-2.92-3.39-2.48-5.12-3.67-2.19-1.2-4.71-.05-6.93-1C663.59,616.83,661.36,616.69,659.72,618.66Z" fill="#614a3b"/><path d="M661.56,659.23c10.51.16,20.48-.92,26.54-11.16a4,4,0,0,1,1.27-1c11.48-7.68,7.73-13.27,2.24-22.95-1.06-1.86-2.85-2.16-4.71-.83,3.56,3.72,5.16,7.48,2.31,12.67-1,1.79-2.41,4.2-1.58,7.18.46,1.63-1.15,4.17-3.1,5.88-6.63,5.84-13.88,9.86-23.1,9.21A9,9,0,0,0,661.56,659.23Z" fill="#907b62"/><path d="M673.1,618.83l4.78,2.8a11.92,11.92,0,0,1,5.45-1.42c-2.61-2.39-6.11-1.69-9.14-2.62C673.79,618,673.14,618.14,673.1,618.83Z" fill="#907b62"/><path d="M633.05,618.24c4.3-.37,5.45-5.29,10-6.19,4.71-.93,8.91,0,13.38.1,7,.18,13.27,3.29,20.26,3.19,12.2-.17,23.06,9.31,24.29,20.93.45,4.3-2.19,8-3.55,12-1.49,4.33-5,5.56-8.68,7.73-5.67,3.34-11.65,4-17.58,5.51-3.41.84-6.89.52-9.68-2.13-4.9,2.19-8.75-.26-12.26-3.06-2.84-2.27-4.56-1.17-6.36,1.09-1.44,1.81-3.85,3.57-.06,5.42,2-3,4.56-2.41,7.74-1.9,9.87,1.58,18.14,7.66,28.16,9,4.82.65,7.84-.22,10.4-3.88,2.78-4,5.42-8.06,11.44-6.7.85.19,1.68-.6,2.47-1.1,4-2.5,7.52-1.92,8.54,2.67,1.16,5.18,5,11.22-1.31,16.07a1.7,1.7,0,0,0-.52,2v.37c2.06-.75,4.34-1.17,6.13-2.32,3.34-2.14,6.13-3.83,3.72-9.41-2.27-5.26-1.88-11.67-6.19-16.35,0-5.77-2.45-11.1-2.9-16.85-.24-3-.06-4.31,2.59-5.43s5.61-2.25,4.21-5.83c-1.32-3.37-4-6.38-7.89-5.48-4.47,1-4.32-1.08-5.11-4.26-1.23-4.94,2.11-9.72-.11-14.51a6.07,6.07,0,0,0-1.57-4.17l-3.4-2c4.61,8.4-4.17,11.75-6.81,17.4-.25.54-1.62.68-2.49.8-8.19,1-16.42.43-24.63.45-2.67,0-5.41-1.83-7.31-3.07-6-3.91-12.08-1.18-18.07-1.54-2-.13-3.23,1-4.33,2.73-2.23,3.48-4.9,4.38-7.56.26-4.13.81-7,4-6.8,7.51a3.21,3.21,0,0,0,2.94,3.35C627.36,621,630.76,621.54,633.05,618.24Z" fill="#c6b699"/><path d="M676.81,575.53c-4.57-1.72-8.95-.88-13.26,1-4.26,3.33-9.76,4.68-13.78,8.43-.77.72-2.41.94-2.66,1.7-.82,2.51-4.72,4-3,7.12,1.51,2.8,4.54,3.22,7.67,3.46,3.88.28,7.57.46,11.39-.74,2.15-.68,4.72-1,7,.54.72.48,1.93,1,2.55.72,7.18-3.25,13.73.83,20.56,1.58,3.31.36,4.69-.77,4.08-4.37-.49-2.92-2.51-4.32-4.37-6.06s-4.79-3.1-4.45-6.48a7.78,7.78,0,0,0-3.57-3C682.26,578,679.5,576.84,676.81,575.53Z" fill="#dfd6bf"/><path d="M633.05,618.24c-1,.37-2.08,1.1-3.08,1-2.55-.16-6.24,1.9-7.38-1-1-2.47.84-5.57,3.52-7.34.61-.4,1.25-.76,1.88-1.14-.44-2.52,1.77-5.2-.46-7.62-3.41,2.21-5.27,5.8-6.4,9.25a9.71,9.71,0,0,1-7.54,7c-4.32,1.06-6.42,3.8-5.54,8,.7,3.33-2.12,5.83-1.4,9,.33.36.65.73,1,1.09,4.25,7.55,9.76,13.58,18.8,15.38,2.82,1,3.61-.79,3.81-2.89.26-2.58.92-5.53-2.87-6.41-3.61,3.35-7,2.17-10.25-.56-3-2.54-7.2-4.58-4.75-9.71.78-1.64.26-3.2.09-4.82-.15-1.32.06-2.74,1.6-3.1s2.39.84,2.94,2a80.33,80.33,0,0,1,3.75,10.88c.78,2.51,1.62,5,5,5,2.88-2.92,4.22-6.14.75-9.38-3.18-3-1.31-4.41,1.41-5.43,2-.76,4.2-1.21,6.1-2.35s3.32-2.43,1.54-4.75A3.85,3.85,0,0,1,633.05,618.24Z" fill="#af9e84"/><path d="M635.5,620.3c.21,4.37-4.08,5.33-6.22,5.24-3.42-.16-4.21,2.13-6,3.56-1.47,1.15-1,2.35.25,3,4.79,2.4,3.87,6,2.3,9.77-.21,1,.18,1.37,1.17,1,3.23,3.19,3,6.6-.55,8.93,2.65,2.56,4.86,3.51,5.68-1.39.38-2.24,2.22-2.54,4.07-2.76,2.67-1.53,1.38-3.19.29-5-4.74-7.87-3.7-12.3,3.24-18.58,7.88-7.13,17.21-6.7,26.73-6,2.25,0,4.55-.48,6.67.69l1.09-1.24c-6.38-1.33-12.75-2.74-19.15-4-5.12-1-9.38,1.48-13.12,4.31A10.6,10.6,0,0,1,635.5,620.3Z" fill="#99836a"/><path d="M666.43,618.14c-11.91-3.12-22.51-1.27-31.2,8-3.53,3.76-3.75,13.35-.08,17,1.52,1.5,2.35,2.71,1,4.62.05.4.11.81.16,1.21,4.55-4.25,4.38-7-.71-11.07-1.17-.94-2.71-3.05-1.3-3.31,4.66-.86,4.55-4,5.13-7.36a4.44,4.44,0,0,1,2.65-2.65c5.83-2.07,10.63-7.25,17.62-5.85Z" fill="#685648"/><path d="M794.09,596c-1.17-3-2.88-5.27-6.47-5.73-1.23-.16-3.52.64-3.58-1.42s2.14-2,3.73-2.19c.73-.09,1.45-.21,2.17-.31,1.16-1.05,4,.23,3.76-2.73-1.88-2-4.61-.68-6.72-1.75a2.51,2.51,0,0,0-1.34.61c-1.09,1.58-3,2-4.33,3.38s-2.12,2.58-1.76,4.39c.41,2,2.08,1.64,3.52,1.77a6.84,6.84,0,0,1,3,1.36c2.33-.31,4.78-.33,5.3,2.49s-2.45,2.77-4.08,3.57c-3.32,1.63-7.47-.2-10.64,2.32-3.43,2.82-8.82,2.7-11.18,7-2.13,3.89-5.5,7.43-5.61,12.13a58.57,58.57,0,0,1,7.87,3.27c2.31,1.27,4.83,2,7.08-.31-.8-4.65-.76-5.74.54-10.69a21.9,21.9,0,0,0,2.14,3.68c1.22,1.37,2.82,2.65,4.64,1,1.48-1.31,3.17-2.94.86-5-3.39-3-1.2-6.21,0-9,1.3-3.07,4.33-2.6,7.17-1.93,4,.94,6.22-2.06,9-4.11C797.61,596.15,795.12,598.08,794.09,596Z" fill="#8a7f6d"/><path d="M774.8,623.88c-2.79.5-5.54.42-7.66-1.67s-4.53-1.92-7.07-1.83c-1.37-.65-2.22,0-2.88,1.12-1.48,6.83-.24,8.54,7,9.7l3.32,1c3.83-.3,7.67-.55,11.5-.94,1.05-.1,2.36-.49,2-2-.26-1-1.28-1.2-2.24-.8-2.37,1-4.63-.51-7.14-.58,1.5-.74,3.31-1.17,4.43-2.28C777.6,624.13,775.68,624.19,774.8,623.88Z" fill="#b9ab93"/><path d="M734.77,655.32l2.58,5.33c3.24,2.07,2.72,7.36,7.26,8.32,1.77-4.61-2.58-7.36-3.45-11.17-.76-4.6-4.29-7.7-6.38-11.57-5.92-6.89-7.6-15.28-8.43-23.9-.6-6.17,1.85-11,7.41-14,.53-4.78,3.81-.68,5.51-1.67l4-3.77c.41-.21.56-.42.43-.65s-.27-.35-.4-.34c.25-.49.54-1,.74-1.46.61-1.6,4.15-2.68,1.75-4.66-1.94-1.59-4.57-.62-6.28,1.55-.54.69-1.48,2-1.73,1.87-5.2-2.33-7.22-.24-8.38,4.83a7.17,7.17,0,0,1-4.35,4.6c-3.49,1.1-3.61,3.63-2.65,6.57a15.33,15.33,0,0,1,.83,3.14c.12,1.2.62,2.69-.95,3.38-1.33.59-2-.55-2.66-1.37a3.63,3.63,0,0,0-3-1.23c1.1,4.38,1.45,8.46-4.08,10.28a3.14,3.14,0,0,0-1.5,1.53c-1.73,2.84,1,13.44,4.12,15.86,1.71-.91,2.55-2.34,1.58-4.07-2-3.45-.62-7.12-.93-10.67-.25-2.75,2.56-3.15,4.54-3.74,1.7-.52,3.23-.17,3.8,2,.64,2.45,2.14,4.85,2.15,7.27C726.33,644.88,732.89,649,734.77,655.32Z" fill="#927c63"/><path d="M715.16,646.76c-2-3.63-2.11-7.87-3.87-11.66-1.21-2.6,1.27-4.78,3.51-6.14,4.46-2.68,4.9-5.91,1.82-9.87-7.4-2.93-9.63-8.89-9.39-16.12.07-2.39-1.6-3.05-3.07-4.07a51.56,51.56,0,0,0-1,18.69c.26,2.65,1,4,3.65,2.11s5.1-1.37,7.39.9c3.55,3.5,3.47,5.33-1.27,6.86-5.53,1.78-4,4.48-3.31,8.86a78.87,78.87,0,0,0,3.8,14.94,3.21,3.21,0,0,1,2-3.4C715.27,647.49,715.21,647.13,715.16,646.76Z" fill="#b3a082"/><path d="M743.25,601.87c0,.33,0,.66,0,1,3.29-.7,7.27,2.47,9.93-1.75Z" fill="#665243"/><path d="M758.24,609.61c.29-1.11.59-2.22.89-3.33-3.28,2.56-6.92,4.56-7.87,9.39-.43,2.23-3.79,1-5.8,1.39l-.57.63c0,5,1.52,6.35,7.93,7.44a3.3,3.3,0,0,0,1.35-.88C756.9,619.75,756.54,614.4,758.24,609.61Z" fill="#58483b"/><path d="M739.27,606.63a6.18,6.18,0,0,1-1-.21c-1.74-.68.88-4.67-2.69-3.75-2.84.73-1.89,3.36-1.93,5.38-1.64,2.16-.61,4.11.51,6a6.17,6.17,0,0,0,1.09,1.19c1.33.88,2.33,2.16,3.66,3s3,1.44,3.77-.84c-.13-2.77-3.34-3.18-4.2-5.39A7,7,0,0,1,739.27,606.63Z" fill="#856e5a"/><path d="M738.44,612.08c0,2.57,2.71,3.28,3.66,5.2a2.06,2.06,0,0,0,2,.71,3.28,3.28,0,0,0,1.25-.82l.08-.11C743.79,614.46,740.77,613.75,738.44,612.08Z" fill="#58483b"/><path d="M786.06,593.39a12.27,12.27,0,0,0-2-1.72c-1.23-.69-3.81.48-3.58-2.09.18-1.94,1.59-4.26,3.53-4.11,3.05.22,1.4-2.27,2.44-3-3.57-1.82-5.14-6.22-9.42-7.12A28.48,28.48,0,0,0,760.93,583c1.77-.44,3.52-1,5.31-1.27,2.23-.37,4.22.86,3.17,2.9-1.53,3,.12,3.4,2.09,4.14.16.06.48,0,.52.11C774.91,595.93,781.18,592.52,786.06,593.39Z" fill="#6f5f50"/><path d="M758.24,609.61c-4,4.13-2.85,9.82-4.58,14.63,2.19.42,3.07-1.3,4.25-2.53l2.16-1.33a9.47,9.47,0,0,1,3.84-3.79c.7-.43,1.66-.66,1.69-1.84.2-6.85,4-10.23,10.46-9.39,1.88.25,1.88.25.58-3.59C769.27,601.54,765.31,609.15,758.24,609.61Z" fill="#736556"/><path d="M676.81,575.53c2.06,2.61,5,3.35,8.1,3.82a11.7,11.7,0,0,0-7-3.93Z" fill="#cec0a6"/><path d="M793.16,583c.22,2.32-2.39,2-3.22,3.34,3.17.31,5.84.55,8.79-2.11,3.26-2.94,7.56-.83,11.23.88.14-4-.53-7.22-5.85-6a8.38,8.38,0,0,0-4.75.43C797.24,580.6,794.68,580.9,793.16,583Z" fill="#a59c8b"/><path d="M799.68,580.38c1.52-.27,3.26.22,4.43-1.27-.39-2.76,2.79-5.05-.07-8.55-2-2.4-3.8-2.62-5.08-1.54-2.18,1.83-4.81,1.9-7.08,3.06-1.73.89-2.85,2.32-4.43-.66-1.17-2.22-3.85-1.37-5.55.33-.87.86-1.21,2.29-2.8,2.24l-2.05,1.32c3.22,2.27,4.18,7.47,9.42,7.12h0c3.67-2.56,6.48-6.79,12-5.89.17,1.4-2.39,2.47-.81,4.07C798.22,581.16,799.06,580.9,799.68,580.38Z" fill="#4f4135"/><path d="M734.08,646.59c1,4.5,5.23,7.28,6.38,11.71,3.17,4.85,9.84,6.9,14.62,4.51,5.58-2.8,6.81-7.07,3.88-13.8,1.92,0,3.8-.15,5.54.76a2.59,2.59,0,0,0,.92,0c2.36-2.42,0-5.57,1.29-8.15-3-1.79-7-2-9.07-5.43a12.48,12.48,0,0,0-6.53-4.1c-2.38-.82-5.06-.6-7.39-1.82,2.73-4.39,2.28-7-1.94-7.66s-5.75-2.35-5.47-6.3c.05-.73-.56-1.31-1.11-1.8l0,0c-5.33-2.59-7.5-1.86-8.34,3.83C725.33,628.66,729,637.84,734.08,646.59Z" fill="#c2b39a"/><path d="M764.5,649.77c-.3-1.13-.23-3.26-2-2.41-2.48,1.22-4.18-.39-6.57-.94-.1,2.46,2.51,2.87,3.07,4.79,1.34,4.59-.06,8-3.91,10.14-4.08,2.27-8.34,1.15-12.17-1.06-.85-.49-1.36-1.67-2.49-2,.16,4,3.89,6.69,4.15,10.67h0c5.09-.88,10.46.15,15.35-2.18C763.56,661.66,763.42,655.56,764.5,649.77Z" fill="#9f907a"/><path d="M765.93,641.31l-.51,8.48,1.17,0c.83-2.73,2.82-4.91,3.11-8,.52-5.48-.65-7.11-6.27-7.06C762.91,637.44,765.29,639.05,765.93,641.31Z" fill="#9f907a"/><path d="M760,666.79c-5.12.73-10.67-1.5-15.36,2.18,2.51,4.09,6.66.78,9.77,2.14C755.26,668.41,759.34,669.81,760,666.79Z" fill="#927c63"/><path d="M765.93,641.31c1.22-3-1.33-4.5-2.5-6.56a3.32,3.32,0,0,0-.33-3.38c-1.64-.94-3.24-2.06-5.31-1.32-2.56,2.13.23,5-1,7.27C759.18,640.14,761.57,642.93,765.93,641.31Z" fill="#736556"/><path d="M757.61,630.5l5.49.87,1.14-.17c-4-2-8.11-3.78-6.32-9.49-2.15-.36-3,1.37-4.26,2.53h0a3,3,0,0,0-.44,3A6.91,6.91,0,0,0,757.61,630.5Z" fill="#9f907a"/><path d="M660.6,646.12c10.67-1.47,16.42-8.67,14.95-18.91-.1-.68-1.21-1.21-1.85-1.81-1.63,1.1-3.07,1-4.29-.65a4.33,4.33,0,0,1-3.77-2.1c-2.82-.25-5.34,1-8,1.52-1.39.25-3.38.11-3.21,2.05.14,1.65,2.2,1.62,3.52,2.1a6,6,0,0,0,2.17.15c3.35-.12,6.51.64,7.13,4.29s-1.71,6.09-4.77,7.69C659.86,641.81,656.11,642.57,660.6,646.12Z" fill="#8e654c"/><path d="M666.69,685.38c.16,5.77-1.85,7.09-6.77,5-4-1.65-6-5.81-10.07-7.21.78,6.62,6.7,9.09,11.29,11.54,2.89,1.54,7.29-2.23,8.73-5.46,1-2.27,2.37-4.36,3.33-6.65-1.64-2.1-3.67-1.07-5.63-.68C666.73,683,667.61,684.4,666.69,685.38Z" fill="#947f69"/><path d="M649.85,683.22c.1-7.48-2.88-13.25-9.54-17.06-2-1.15-2-3.25-2-5.27-3.4,2.21-2.15,4.92-.73,7.55C640.69,674.16,645.9,678.18,649.85,683.22Z" fill="#947f69"/><path d="M709.71,679c7-6,6.67-14.31,1.16-21.58-4-5.21-5.75-3.69-8.67,0-.33.42-1,1.08-1.25,1-8.11-3.19-10.26,3.82-13.84,8.07-2.14,2.55-3.87,3.2-7.41,2.23-5.93-1.64-11.7-2.78-17.38-5.85-4.43-2.38-10.43-2.8-15.71-4.22-3.58-1-3.88,1.64-3.81,4.25,1.29,4.57,5.83,5.43,9.19,7.13,5.93,3,11,8.34,19,6.68,2.85-.6,7.28,1.37,9.54,3.14,5.61,4.4,12.46,2,18.1,4.74,1.68.82,2.37-.18,3.13-1.18C703.75,680.67,706.55,679.51,709.71,679Z" fill="#d3c5a9"/><path d="M666.69,685.38c2.92-.47,1.53-2,.88-3.41-1.09-1.91-2.71-2.19-4.81-1.63C663.12,682.9,665.88,683.41,666.69,685.38Z" fill="#927c63"/><path d="M669.41,624.75c-.43,1.86.11,3.18,2.17,3.4s2.21-1.23,2.12-2.76C672.47,623.89,670.94,624.34,669.41,624.75Z" fill="#e1d0c0"/><path d="M627,642.91l-1.17-1c-2.22-.92-3.26-2.52-3.82-4.91a82.12,82.12,0,0,0-3.71-11.41c-.81-2-2.28-4.15-4.95-3.48s-2,3.57-2.79,5.5c-.55,1.36,1.78,1.77,1,3.32-1.18,2.24-2.87,4.94-.92,7.12,3.14,3.51,6.77,6.81,11.38,8.29C624.34,647.07,626.84,646.27,627,642.91Z" fill="#d5cbb4"/><path d="M799.68,580.38c-3.54-2.68,2-2.82,1.33-4.71-8-1.21-11.22.3-14.53,6.76,2.11,1.51,4.27,2.47,6.68.59C795.5,582.54,797.91,582.25,799.68,580.38Z" fill="#6f5f50"/><path d="M734.08,646.59c-2.52-7.85-5.79-15.52-6.59-23.82-.7-7.18.94-8.79,7.69-8.22-.52-2.17-1-4.34-1.57-6.5-6-2.06-7.12,4.7-7.78,6.53C723.22,621.8,726.32,641.1,734.08,646.59Z" fill="#a49079"/><path d="M754.08,627.43c-.15-1.06-.29-2.13-.44-3.19-4-.93-8.34-1.47-8.26-7.08-.37,0-.74,0-1.1.07-2.72,4.95,1,6.79,4.32,8.86C750.36,626.81,751.85,628.63,754.08,627.43Z" fill="#736556"/><path d="M749.38,625.7c-2.07-2.61-6.23-4-5.1-8.47l-2.18,0c-1.15,1.71-2.19.85-3-.25-1-1.37-1.94-2.69-3.91-2.5-.06,1.44-.25,2.88-.17,4.31.16,2.75.19,5.73,4.48,4.64a4.61,4.61,0,0,1,4.81,1.83c.71.84,1,2.17-.6,2.49-1.25.25-3.34-.92-2.76,1.75a4,4,0,0,0,3.59,2.93c2.16.31,4.33.51,6.49.76C751.81,630.44,749.44,628.32,749.38,625.7Z" fill="#a08c74"/><path d="M749.38,625.7c-3.45,3.38,1.43,5,1.66,7.54,2.39.71,4.5,1.82,5.77,4.08,3.78-1.87,0-4.61.79-6.82-.31-2-2.24-2.16-3.52-3.07C752.39,627.18,751.28,625.39,749.38,625.7Z" fill="#58483b"/></g><g id="frame"><rect width="1000" height="1000" fill="none"/></g></svg>