<!-- Copyright (c) 2022 Jan Stehno -->
<svg xmlns="http://www.w3.org/2000/svg" viewBox="0 0 1000 1000"><title>blacktaildeer</title><g id="blacktaildeer"><path d="M861.52,624.18c-5.1-4.19-.81-9.58-1.88-14.28-3.34-.19-3.74,2.42-4.21,4.61a28.08,28.08,0,0,1-2.36,6.64c-1.34,5.25-2.84,10.46-5.75,15.14-.92,3.51-2.9,6.58-4.35,9.87a4.62,4.62,0,0,0,2.23,5.51c5,3.54,10,7.07,12.89,12.65,1.69,3.25,3.73,5.94,7.46,7.35,5.79,2.19,6.75,8.15,8.91,12.83,2,4.35,3.54,8.55-1.42,13.7-3.81,4-3.95,11.33-1.85,17.53.68,2,2.26,3.78,1.92,6a.91.91,0,0,1-1.09.41c-5.31-1-6.74-4.15-8-9.45-1.48-6.26-4.18-12.17-4.13-18.88,0-2.92-1.89-6.62-5-6.46-3.44.19-4.56,4-5.1,7.21-.23,1.39.82,2.64.31,4.09-1.07-3.7-6.42-6.58-.68-11.61,1.64-1.43,5.35-6.53,1.27-9.2-3.29-2.16-6,1.8-8.3,4.12-1.65,1.67-2.53,4.09-5.06,4.87-3.53,1.48-4.64-4.5-8.29-2.62-2.15,2,.64,4.9-1.5,7.18a10.14,10.14,0,0,1-13.4.61c-1.2-1-1.86-2.6-3.46-3.2a2.12,2.12,0,0,0-1.62.51,10.78,10.78,0,0,0-1.58,5.87c5.88,6,5.37,6.39,1.17,14.62-3,5.94-2.3,12.73.62,18.86,1.18,2.49,1.94,4.44.43,7.15s-.6,6.18,2.22,7.14c4.31,1.47,4.53,4.47,4.78,7.87.42,4.1.66,8.21,1,12.31-.64,4.18,3,8.73-1.15,12.6-2.53,5.65-.16,10.9,1.49,16.15.66,2.09,2.51,3.05,4.77,2.92a4.75,4.75,0,0,0,4.38-3.51c.94-2.59.18-5.59,2.3-8.39a7.32,7.32,0,0,1,1.12,6.06,33.21,33.21,0,0,0-.2,13.54c.46,2.12-.69,3.81-2.17,5.29-3.52,3.51-2.4,7.42-.43,11,2.26,4.11,6.35,3.82,8.51-.38a8,8,0,0,1,2.41-3.32c2.32-1.57,3.91-1.14,4,1.74.22,4.75.88,9.71-.72,14.19-2.35,6.61-3.09,13.45-4.26,20.25-.63,3.63-.67,7,1.65,10.24a18.59,18.59,0,0,1,3,7.71c.32,1.71.39,3.77,2.89,3.89a4.53,4.53,0,0,0,4.93-3.54c1.34-4.77,2.9-9.49,3.15-14.51a8.39,8.39,0,0,1,1.48-4.54c.62,5.65,1.51,11-1.5,16.54-1.68,3.06,3.51,14.67,6.36,16.54,2.32.76,3.42,2.59,4.21,4.69,2,4,.68,8.23.64,12.37a7.47,7.47,0,0,0,.92,4.65c3.3,2,6.57,1.44,6.3-2.51-.35-5.15,2.14-8.89,4.09-13-.17-8-6.16-13.26-9.64-19.69-1.58-2.93-2.87-5.25.47-7.66,2-1.46,2.38-3.59,2.09-5.86a21.57,21.57,0,0,1,.43-8.24c.46-1.8.63-3.93-.83-5.06-4.38-3.37-3-7.81-2.56-12,.65-5.4-1.12-9.78-6-11.82-5.48-2.28-7.88-6.26-9.3-11.42a36.08,36.08,0,0,0-1.52-4.5c-1.06-2.51-1.59-5.78-4.93-6.15s-5.41,2-6.66,4.63c-1.08-11.89,2.1-24.09-1.09-36.12a9.91,9.91,0,0,1,2.49-9.84c3.32-5.2,6.71-10,13.25-12.16,5.87-1.95,2.68-7,1.95-10.67-.44-2.23-2.4-4.19-.52-6.56a1.16,1.16,0,0,1,1.57-.37c2.3,1.91,2.29,4.46,1.7,7a11.13,11.13,0,0,0,1,8c.88,1.63,2.13,3.06,4.16,2.92,2.37-.16,3-2.09,3.82-4,1-2.42-1.36-6.17,2.88-7.31a10.82,10.82,0,0,0,1.61,0c5.92,1.17,7.16-4.06,10-7.08,2.82-1.83,5.62-2.56,9-1.24,3,1.15,5.31.11,5.1-3.53-.14-2.39.35-3.75,3.12-3.84s3.63-2,3.73-4.49c.51-12.45-4-22.71-14-30.38-2.41-1.84-5.12-3.43-6.25-6.25-3-7.36-8.77-12.74-13.38-18.89-3.76-5-7.17-10.56-12.4-14.46a3.32,3.32,0,0,1-1.19-4.24,21.19,21.19,0,0,0,1.87-9.26C855.77,625.23,859.61,625.81,861.52,624.18Z" fill="#776458"/><path d="M614.61,859.75c6-.32,10.73-4,16.16-5.76,8.91-3,18.13-2.69,27.35-2.55,2.14,0,4.39.75,6.47-.43,1.57-1.55,3.46-.6,5.12-.44,3,.3,5.44-.25,7.64-2.48,4.83-4.88,10.73-5.84,17.28-4.1a30.29,30.29,0,0,0,18.74-.69c5.94-2.08,13.16-3.67,19.75.24,3.15,1.87,7,1.94,10.53,2.47,5.74.85,6-5.07,8.85-7.72a5.59,5.59,0,0,0,.9-7.19c-2-3.35-5.3-4.14-8.16-1.58-6,5.4-12.73,3.7-19.24,2.09-4.09-1-7.9-2.91-12.3-2.35-2.91.37-4.12-1.55-5.45-3.77-2.62-4.4-5.62-4.89-9.31-1.83-1.46,1.21-2.44,3.64-4.89,1.94s-5.17-3-5.06-6.77c.18-6.41-.94-7-7.27-4.53-.75.29-1.79,1.16-2.18.81-6-5.26-12.38,1.82-18.41-.64A17,17,0,0,0,648,818.68a11.74,11.74,0,0,1-6.94,3,13.41,13.41,0,0,0-1.77.32c-8.57,3.63-17.07,4.25-26.6,3-12.37-1.65-24.05,3.47-35.2,8.75a33.55,33.55,0,0,1-6.75,2.61c-2.88.66-5.83,1.62-5.08-3.39a4.53,4.53,0,0,0-3.6-4.94c-7.27-2-12.42-6.14-14.87-13.33a3.11,3.11,0,0,0-2.31-1.76c-3.39.39-2.74,2.82-2.49,4.94a20.75,20.75,0,0,0,6,12.65c3.1,3.11,2.58,5.48-1.94,6.66-1.55.4-3,1.24-4.55,1.57-3.28.68-6.77,2.22-9.24-1.58s-6-7.33-2.51-12.31c1.65-2.36,1.64-5.3-1.23-5.82-5.45-1-7.72-5.19-10.95-8.53-2.88,6.23-.56,12.07,1.92,17.62,2.42,5.4,5.63,10.47,8.63,15.62,2.2,3.78,5.07,5.75,9.94,4.16,3.16-1,6.94-2.21,9.39,1.77,3.24,2.76,6.6,2.45,8.8-.85,3.14-4.7,7.77-5.14,12.57-5.29,2-.07,4.07.23,6-.55,8.86-3.65,18.06-1.72,27.12-1.68,2.22,3,3,6.91,6.39,9.13a2.49,2.49,0,0,1,.88,3.12C607.51,860.12,607.56,860.14,614.61,859.75Z" fill="#443222"/><path d="M759,535.56c-2.25,13.85-7.4,26.87-11.76,40.13a58.79,58.79,0,0,0-3.14,18.53c-.63,2.45-1.74,4.81-1.79,7.36-.08,4,3.17,7.56,6.46,6.95,4.39-.82,3-4.17,3-6.67.77,1.2-.27,4.48,2.8,4.16s1-3.48,2.09-5.23c-.38,3,.22,4.9,3.71,4.42,1.87-2.32.76-5.08.65-7.47-.36-7.3,5.13-12.65,6-19.55,1.65-13.89,8.25-26.24,13.31-39.06-14.7,35.87-18.76,51.41-14.76,58.21,4.77-7.94,4.61-16.86,7-24.49-.34,4-2.61,8.21-2.33,12.87-.29,2.06-.33,4,2,5.08,3.3.51,3.9-1.75,4.4-4.12-.32-8.1,3.83-13.21,11.57-16.14,1.92,2.76-.47,7.7,4.11,9.43,2.29-.16,2.12-1.84,2.34-3.43a11.37,11.37,0,0,1,17.27-8.11c1.35.85,2.66,2,4.21,2.22,8.18,1.13,13.24,7,18.73,12,3.38,3.12,6.64,4.18,10.73,1.7,2-3.07-.86-4.89-1.88-7.18-6.55-8.88-15.3-15.46-23.91-22.2-2.44-.62-4.12-2.25-5.81-4-2.46-2.49-5.31-4.23-9.06-3.45-3.38.7-6.82-1.15-7.63-3.22a5.87,5.87,0,0,1,3.74-7.44c2.42-.87,2.19-3.84,3.41-5.3.06,1.9-3.8,4,.61,5.91,2.71-1.31,4-3.73,5.31-6.24,4.43-7.78,6.37-15.94,3.87-24.76-2.9-7.7-10.9-9.51-16.69-13.85-1.31-1-3.35,0-3.24,1.42.28,3.8-2.29,6.7-3,10-.15,3.64-2.65,5.78-5.23,8.32-.9,1.26-2.42,1.63-3.61,2.65-1.74,1.6-3.55,3.12-5.4,4.59-4.83,3.8-11,6.33-12.64,13.09-.32.25-.86,1.09-.87-.05s1-1.88,1.46-2.88a7.47,7.47,0,0,0,.51-1.79c-1.17-4.08-.26-8.21-.36-12.31,0-1.63-.65-3.49-2.47-3.64-2.64-.21-1.63,2.19-1.8,3.49C760,522.19,760.58,529,759,535.56Z" fill="#433021"/><path d="M791.23,504.07c.73-3.73,7.07-5.33,3.92-11,6,4.52,13.11,6.78,17.75,12.52,1.59.38,1.85,1.87,2.58,3s.82,3.52,2.84,3.08c1.82-.4,1.59-2.4,1.57-4-.83-4.67-3.54-8.8-3.94-13.61-.12-1.44-1.4-2.27-2.46-3.21-7.76-6.93-16-13-26.4-15.64-6.83-1.74-12.89-5.48-19.73-7.18-4.38,1.38-8.53.43-12.87-.65a112,112,0,0,0-33.43-3.48c-2.25.13-4.3-1-6.54-.79-.8-.11.1-1.36-.07-.58,0,0,0,.08.17.1,9.45,1.62,19,1.25,28.57,1.73,1.47.07,3.93.05,3.25-2.84-7-4.17-15.05-4.58-22.68-4.62-9,0-18-.47-27-.89-17.24,1-33.29-3.32-49.07-9.77-10.06-4.12-21-5.5-31.69-7.19-4.5.56-8.42-1.79-12.66-2.54-.8.11-.36-.45-.17-.38,2.27.77,3.9.48,3.28-2.52-4.39-2.52-9.36-3.24-14.17-4.39-8.52-2.05-16.91-4.36-23.85-10a8.22,8.22,0,0,0-1.69-.69c-4-1.09-9.13.43-11.28-4.85-1.5-1.58-3-3.24-5.54-2.68-3.81,2.65-1.7,4.58.82,6.45l2.67,2.58c1,.95,2.47,1.19,3.39,2.34,6.49,8,14.67,14.32,22.51,20.94,12.37,7.72,24.87,15,38.58,20.48C646.6,475.23,677,479.86,707,486.22c16.54,3.5,33.33,5.29,50,8.2,4.5.78,5.53,2.8,5.13,6.81C761,512.66,760,524.11,759,535.56c2.82-4.91,1.35-10.41,2.2-15.6.38-2.29.34-4.65,1.2-7,1.8,5.55,0,11.47,1.76,17,3.94-1.69,3.38-5.3,3.28-8.37-.15-4.87-.41-9.73-.21-14.61a15.69,15.69,0,0,0-.19-3.06c-1.23-4.43.21-8.89-.12-13.32-.44-3-.86-6.06-1-9.13-.12-1.95.51-3,2.7-2.32,3.71,1.35,7.38,2.79,11.14,4a17,17,0,0,1,6.21,3.39,11,11,0,0,0-6.17,6.75c-.25,4.43,1.36,6.32,6.87,8.19C787.44,501.43,788.33,501.57,791.23,504.07Z" fill="#604229"/><path d="M660.73,816c3.61.66,7.26,2.41,10.3-1.54,1.41-1.82,2.49-.42,3.72.91,2.26,2.45,4.92,3.3,7.68.35,1.28-1.37,3-2.37,4.86-1.35,2.48,1.4.23,3-.09,4.56-1.21,5.84,4.6,6.73,7.49,9.33,2.68,2.39,3.73-.76,4.68-3.08a3.7,3.7,0,0,1,4.5-2.12c1.81.47,3.34,1.59,3.35,3.71,0,4.43,3.32,4.91,6.28,4.25,4.54-1,8.07,1.53,12.06,2.16,6.68,1,14.05,5.11,20-2.32a3.86,3.86,0,0,1,5.89-.42c2.24,1.91,2,4.41.63,6.46-1.62,2.4-4.51,3.85-5.1,7.14-.24,1.34-2,1.27-3.11.78-4.3-2-9.82-.54-13.36-4.69a2.47,2.47,0,0,0-2.2-.68c-6,2.71-13-.76-18.86,3.56-4.41,3.27-9.38.71-13.8-.44-7.74-2-14.42-1.06-19.82,4.85a7.08,7.08,0,0,1-6.85,2.5c-1.52-.2-3.28-.63-4.34,1.14A223.4,223.4,0,0,0,723,846.87a37,37,0,0,1,22.4,2.75c3.42,1.5,7.11,2.38,10.68,3.54,4,3.16,6.73.9,8.62-2.48,2.61-4.64,5.89-8.82,8.73-13.29,9-6.76,8.86-8.53-.53-14.83a15.91,15.91,0,0,0-11.22-3c-5.25.53-10.16-1.9-15.24-2.93-2.72-.55-4-3.15-4.93-5.62-1.36-3.52-3.28-6.42-7.68-6.39-3.06,0-2.71-1.74-1.8-3.55,1.31-2.61.65-4.65-1.69-6.14s-4.53-.57-6.51,1.17c-1.5,1.31-2.15,4.7-4.92,3.21-2.41-1.3-3.08-4.05-2.21-6.82.65-2.09.77-4.06-1.73-4.91s-4.44.52-5.23,2.76c-4,11.27-14.11,13.47-24.06,16-8.39-.75-16.23.39-22.6,6.49C662,813.63,660.29,814,660.73,816Z" fill="#513d2e"/><path d="M690.46,411.92c-5-18.35-12-36-22.85-51.65-7.71-11.09-13.45-23.35-21.37-34.18-6.8-9.3-13-18.9-19.1-28.63-.9-1.44-2-3.58-4.15-2.32-2.6,1.52-.67,3.5.24,5.09,2.15,3.78,4.47,7.46,6.72,11.18,3.28,4.66,5.51,9.89,8.36,14.78,3.27,2.54,5,6.21,6.61,9.73,4.33,9.67,10.56,18.47,13.34,28.84,1.08,4,.19,8.26,1.89,12.21.82,1.92-2.6,1.49-2.59,3.3.7,9-.74,18.15,2.91,26.79.64,1.65,1.6,3.16,2.21,4.82s3,2.9-.1,5.57c-2.32,2-.24,6.56,1.56,9.2,3,4.33.14,6.19-2.83,7.77-1.76.93-2.49,1.7-2,3.53,4.52,5,10.9,6.61,16.83,9.05a30,30,0,0,1,15.34,1.71,7.26,7.26,0,0,0,2.92.65c7.57-.16,15,0,22.34,2.64a11.23,11.23,0,0,0,8.81-.84c7.22-3.76,14.83-2.24,22.29-1.32,3.6.44,7,1.65,10.43-.61.49-.33,1.26-.83,1.65-.56,4.28,3,8.07-.08,12.1-.67,2.43-.36,4.94-2.61,7.77.79,1.64,2,4-.42,4-3.05a5.73,5.73,0,0,0-4.35-5.73c-8.85,2.91-18,1.54-26.72.39-15.59-2.07-31.23-2.47-46.85-3.48-6.24-.4-9.2-3.08-10.6-9-1.27-5.38-.63-11.43-4.82-16-2,2.73-.15,5.22.23,7.62a31.14,31.14,0,0,0-2.49-2c-1.27-.86-2.47-2.47-4.15-1.07-1.42,1.18-1.06,2.83-.37,4.36a10.92,10.92,0,0,1,1.32,2.62,1.92,1.92,0,0,1-.68,2.12c-1.2.71-1.8-.28-2.26-1.13a17.87,17.87,0,0,1-2.43-7.24c-2.31-12.26-3.55-24.69-6.45-36.84-1.53-4.7-5.06-8.58-5.56-13.72.55,5,3.37,8.87,6.25,12.61,4.86,6.32,6.06,13.67,6.88,21.19a21,21,0,0,0,3.24,9.5C685.59,412.35,687.48,413.86,690.46,411.92Z" fill="#cdb597"/><path d="M772.18,836.05c-2.3,5.34-7,9.22-9.07,14.77-1.11,3-4.19,2.89-7,2.34,5.53,7.61,11.8,14.73,14.12,24.24,1.11,4.55.58,9.44,3,13.68a1.86,1.86,0,0,1,.7,2.06c-.64,4.17,1,7.31,3,11.14,3.86,7.63,8.69,15.56,6.47,24.94,2.34,9.24,8.7,16.29,13.56,24.16,1.54,3.28,3.46,6.12,7.62,6.37,2.36-5,7.27-8.43,8.38-14.14.23-1.18,1.35-1.82,2.44-2.43,5.74-3.22,6.45-7,1.87-12-2.84-3.08-5.7-6-7.22-10-1.42-3.74-1.73-7.29,1.24-10.49,1.11-3.18-.59-6.22-.56-9.38,0-1.7-1.71-3.44-3.27-2.34-5.64,4-5-1-6-3.76a8.92,8.92,0,0,1-.28-1.16,9.52,9.52,0,0,0-2.74-4.35,12.66,12.66,0,0,0-1.34-1.08c-8.68-3.86-7.09-12.12-7.56-18.92-.32-4.59-1.45-6.5-5.9-6.79a4.58,4.58,0,0,1-3.86-2.54c-2.31-4.77-4.1-9.69-8.21-13.58-2.15-2,1.07-4.11,2.26-6a4.72,4.72,0,0,0,0-4.47A1.07,1.07,0,0,0,772.18,836.05Z" fill="#6a594f"/><path d="M823.62,527.64c5.67-9.35,9-18.46,4.44-29.91-3.79-9.43-3.55-20-1-30.16,5.65-23,16.06-44.12,25.39-65.7a58.4,58.4,0,0,0,4.88-18.78c.8-1.66,1.45-3.54,0-4.94s-3-2.29-2.42-4.34c1.28-4.39.32-9.45,2.57-13.3,3.22-5.5,3.75-5.2,3.31-12.27-3.53,1.22-7.8.91-7.77,5.05a41.27,41.27,0,0,0,4.37-19.22c0-2.66,1-6.35-3.68-6.74-2.81,1.32-2.54,3.79-2.21,6.13A17.86,17.86,0,0,1,850,343.83c-3,10.23-2.54,20.8-3.18,31.25,2.43,4.29,4.41,8.73,4.76,13.75.3,4.21-1,7.19-5.53,8.16-1.42-1.75,0-3.78-1.2-5.27-5.27-1.06-8.6,1.34-7.32,6.21,2.3,8.71-1.09,14.66-7.84,19.57a5.09,5.09,0,0,0-1.08,1.42c-1,1.74-2,3.49-1.3,5.59.31.93,1,2.07-.35,2.45-2.81.81-3.45,2.56-2.5,5,1.12,2.87,3.73,1.51,5.78,1.7a4.47,4.47,0,0,1,1.75.47c-9.12.77-15.14,4.81-17.25,13.31-.76,3.06-4.65,3.95-4.84,7.29-.2,3.6-1.53,6.93-2.46,10.36-1.9,7.08,1.21,13,7.68,16.31,4.18,2.14,7.57,5.18,6.77,10.72-.7,4.88-.15,9.89-1.56,14.71a25.92,25.92,0,0,0-.45,3.51c-.12,2.69-2.58,4.44-3,7-.35,1.49-.55,3-.8,4.52-.32,1.9-.19,3.86,2.54,2.91C821.73,523.72,822.16,526.39,823.62,527.64Z" fill="#c9ae8b"/><path d="M861.52,624.18c-5.71-2.21-7.45.94-7.29,5.67a15.5,15.5,0,0,1-2.23,9,3.36,3.36,0,0,0,1,4.77c7.7,5.33,11.55,13.95,17.79,20.32,6.72,6.87,8.57,17.37,18.48,21.88,5.61,2.55,12.92,20.89,10.71,28.48A2.39,2.39,0,0,1,896.7,716c-4.65-1.3-4.57,1.21-3.79,4.35.47,1.88.41,4.68-2,3.26-4.67-2.8-8.23-.65-12.16.9-.66,2.54,1.37,4.53,2.89,3.8,5.28-2.51,8,1.41,11.4,3.55,4.84-1.93,10.28-2.82,13.93-6.86,1.8-2,3.14-1.86,5-.43,2,1.56,4.27,2.89,6.32,4.45,7.46,5.68,10.73,4.41,12.62-4.84a11.17,11.17,0,0,0-.2-1.74c-.55-7.56-7.13-10.05-12.14-13.79-1.38-1-3.1-.58-4.4.68-.87.84-1.46,1.91-2.32,2.74-1.49,1.42-2.37,4.52-4.94,3.46-2.39-1-1.57-3.88-1.32-5.94.94-7.65-1.06-14.53-5-21-3-4.82-5.11-9.91-4.89-15.71a8.71,8.71,0,0,0-2.67-6.44c-2.73-2.92-5-6.21-7.81-9.09a23,23,0,0,1-6.78-13.64,12.84,12.84,0,0,0-3.52-8Q868.23,629.92,861.52,624.18Z" fill="#826b5d"/><path d="M929.81,723l-.06,1.18c.55,3.23,1.67,7-1.94,8.86-3.33,1.71-6.52-.27-9.21-2.52-.61-.52.18.11-.44-.4-9.62-7.84-10.77-7.63-17.29,3.12,5,6.58,16.26,10.53,23.66,8.29,8.31-2.52,10.57-1.09,11.73,7.5.34,2.54,1,5.09.72,7.67-.42,4.22.65,7.79,4,10.66,1.89,1.62,2.54,4,3.34,6.23,1.15,3.24.49,5.72-2.72,7.52-2.67,1.51-4.21,3.84-3,7,1,2.65,3.34,2.6,5.93,2.86a16.56,16.56,0,0,1,13.78,10.87c2.05,6,5.89,9,10.51,12.07L975,834.61c1.69,0,.69-1.89,2.56-2.81l-.79,12.25c.65,2.16,1,4.65,4.35,3.82-.09-13.61-1.72-27.09-3.62-40.54-.52-5.05.73-10.13-.27-15.17-3.3-3.51-8.51-5.23-10-10.42a1.64,1.64,0,0,0-1.41-1c-8.59.44-9.52-8.05-14.36-12-1.73-1.39-1.12-3.6-1.16-5.58-.14-6.41-1.1-12.51-5.89-17.56-3.91-4.11-5.57-9-2.82-14.56a5.91,5.91,0,0,0-1-3.25c-3.12-4.27-6.3-8.52-2.62-14a55.92,55.92,0,0,0-7.75-11.42c-3.87,1.7-3.25,5-2.76,8C928,714.63,929.63,718.65,929.81,723Z" fill="#91796a"/><path d="M853.52,327.81c4,1.89,2,5.35,2.11,8.18.26,6.63-2.55,12.62-4.35,18.82-.47,1.58-2,3.85.45,4.35,2.29.47,2.68-2.3,2.35-3.89-1.13-5.41,4.71-2.95,6.55-6.41-.2,3.05-.28,5.13-.49,7.2a6.51,6.51,0,0,1-.68,2c-7.74-2-3.78,4.23-4.5,6.63a54.66,54.66,0,0,0-1.68,8c-.3,2.24-2.84,6.2,3,6.38,2,.06.65,2.61,1,4,4-11,4.34-22.56,4.14-33.95a439.84,439.84,0,0,0-3-47.88c-2-15.61-5.43-31.07-9-46.43-4.6-19.83-10-39.5-15-59.23-.35-1.33-.89-2.62-1.35-3.92-1.1-2-1.8-4.29-3.33-6.05-1-1.19-2.21-3.11-4.06-.78,3.74,21,6.43,42.12,11.51,62.86,2.26,9.23,2.65,18.79,3.95,28.19,4.55,3.86.82,7.82.09,11.74a11.79,11.79,0,0,0,0,1.68c.29,3.64,2.12,4.64,5.49,2.65-1.3,10.52,2.91,20.34,1.53,30.52C847.84,325.38,850.25,327.48,853.52,327.81Z" fill="#cdb496"/><path d="M760.42,604.89c-4.42-.25-2.86-4.24-3.74-6.76-3.53,2,1,5.31-2.29,7-2.38-2-1.71-5.16-3.15-7.85-.13,2-.15,4-.42,6-.22,1.6.49,4.23-2.18,4.07-2.36-.14-4.85-1.3-4.93-4.27s.22-5.93.35-8.89c-2.9,7.08-10.64,7.09-16.1,10.33-3.48,2.06-7.72,3.05-11.22,5.42-13.15,8.94-26.55,17.38-36.72,30.09-8.67,10.84-18.71,20.62-28.14,30.87,3.24,2.51,5.55,0,8-1.51a17.82,17.82,0,0,0,4.44-3.95c2.92-3.73,6.28-5.94,11.35-4,2,.8,4.34-.25,7.16.14-4.16,4.7-9.93,7.8-10.72,14.31,4.28,1.61,6.27-1.82,8.38-4.12a45.09,45.09,0,0,1,7.43-6.79c3.45-5.89,3.12-6.93-3-9.79-1.58-.74-3.5-1-4.7-3.1,4-3.44,9.06-5.45,13.44-8.41,1.51-1,3.56-.5,5.27.1,7.68,2.68,14.95,1.63,22-2.15,2.23-1.23,3.14-3.36,3.93-5.57,1.41-5.06,7.45-4.28,10.13-7.74,3-3.63,5.23-7.47,3.46-12.38-2.54-1.92-4,.49-5.53,1.59a68.79,68.79,0,0,0-14.52,15c-3.75,5.13-7.65,5.73-12.84,3.81-2.51-.93-6.5-.17-7.1-3.41s3.09-4.29,5.37-5.69c6.66-4.13,13.1-8.29,18-14.71,3.36-4.42,13.17-2.32,16.27,2.93,1.93,1.43,3.36.07,4.83-.89,4.76-3.07,11.27-3.14,15.59.52,3.27,2.77,7.32,4.7,9.72,8.43,2.45-.54,4.3-2.46,4.06-4.44-.57-4.62,1.39-9.32-.63-13.83C768,603.22,764.21,603.32,760.42,604.89Z" fill="#5e514d"/><path d="M929.81,723c.47-4.5.69-9-1-13.33-1-2.6-.24-5,1.28-7.23a7.61,7.61,0,0,0-.89-2.16c-16.5-19.14-28.93-41.4-47.15-59.19-2.11-2.06-4.75-3.59-7.15-5.36,1.23,13.28,8.17,23.52,17.69,32.43.81.76,1.7,2.11,1.57,3-1.17,8.07,2.72,14.58,6.6,21,3.71,6.15,3.85,12.69,3.09,19.45-.29,2.64-.5,5.57,2.36,6.75s3.9-1.86,5.35-3.57c1.15-1.35,2.74-2.31,3.34-4.14s2.21-2.09,3.29-.93C922.22,714,929.09,715.89,929.81,723Z" fill="#8b7362"/><path d="M939.18,728.3a2.45,2.45,0,0,1,1.05,2.45c2.3,5.51,2.13,12.11,7.45,16.27-.51,8.46,7.48,14.2,7.35,22.68a8.84,8.84,0,0,0,6.18,8.72c6.12,1.94,10.84,5.74,15.48,9.76,2.17,3.32.17,6.8.32,10.2.13,2.74-.49,5.53,1.92,7.66,4,8.78,9.41,17,10.48,26.87,1.08.41-.32,3,2,2.29,2.27-9.6.85-19-1.68-28.32-1.67-.7,2.89-7.81-3.81-3.54-1,.66-1.65-1.35-1.86-2.39a17.91,17.91,0,0,1,.55-9.15c3.35-9.67-1.73-16-7.55-23.36-10.88-13.82-22.16-27.52-30.54-43.12a21.26,21.26,0,0,0-5-6.63c-4.06-1.27-5.1.65-4.36,4.15C937.58,724.73,938.61,726.44,939.18,728.3Z" fill="#7f695d"/><path d="M518,810.46c1.49,4.57,2.89,9,9.19,9.2,3.24.12,4.25,2.12,1.52,4.67-4.39,4.09-1,7.77,1,11.1s3.49,7.43,9.53,5.55c3.76-1.18,7.45-2.73,11.34-3.66,3-.73,3.46-2.56,1.15-5.14-3.89-4.37-7.57-8.92-8-15.15-.11-1.43-.62-2.7.94-3.59,3.42-4.06,2-9.05,2.58-13.62a42.77,42.77,0,0,0,.23-8.84,26.66,26.66,0,0,1-.8-9.38c.22-1.62.56-3.75-2.18-4C530.43,784.56,523.29,796.81,518,810.46Z" fill="#362b1e"/><path d="M779.45,440c.67,1,1.3,2,2,2.93,1.3,1.72,2.37,4,.2,5.14-2.34,1.26-2.73-1.49-3.38-3-.46-1.05-.36-2.57-2-2.46-1.94.14-1.1,1.58-1.15,2.68-.08,1.81-1.47,1.71-2.59,1.21-2.72-1.21-5-1.82-5.91,2.06-.07.33-1.29.77-1.34.7-3.67-5-7-1.28-11-.25-4.65,1.21-9.52-1.47-14.64-1.55s-9.87.08-14.54,2.23c-4.42,2.05-8.91,1.32-13.15-.39-.76-.31-1.5-1.86-2.72-1.58-11.25,2.5-21.89-4-33.08-2.09-.23,2.77,2.3,2.83,3.87,3.85,10.34,4.7,21.69,4.37,32.63,6.13.72.45-.49.89,0,.26.15-.2,0-.33-.39-.43-4.69-1.19-9.56-.64-14.3-1.41-1.92.52-4.9.47-2,3.57,13,1.78,26.32-.07,39.32,2.37,3.71.69,7.41,1.42,11.12,2.14,1.7,2.32,4.2,2.79,6.86,2.92,4.65-.35,9.42-2.42,13.81,1.15a2.54,2.54,0,0,0,3.35-.26c2-2.26.12-4.42-.44-7,5,3.61,10,1.4,14.52-.45a8.34,8.34,0,0,0,5.14-9.19c-.38-2.94-.69-5.89.63-8.71a7.79,7.79,0,0,0,1.27-4c-.4-2.95-3-1.36-4.46-2.07Z" fill="#b59a7a"/><path d="M549.94,411.26c2.11.09,2.95,2.1,4.58,2.93,3.44,2.78,7.6,4.09,11.7,5.52.38.05.77.08,1.16.1,6.1,5.08,13.76.35,20.23,3-1.9-.54-4.19-1.37-4.85,1.27-.55,2.23,1.83,2.74,3.49,3.36a12.21,12.21,0,0,0,4.06,1.1c6.65.09,12.16,3.17,17.64,6.36,2.27,1.35,4.84,1.09,7.31,1.38,3-.68,7.68,3.9,9-2.69,0-.25,1.28.64,2,.9,7.39,2.54,14.19,6.37,21.3,9.55,13.75,4,27.12,9.24,41.2,12.17,1.6-.24,3.44,0,4.1-2.07-4.32-3.46-10.21-3-14.8-5.8-12.42-5.69-25.45-10.16-36.21-18.9,1.44-3.15,3.36-7.25,2.22-12-9.82,10.72-21.73,10.67-34.87,7.44-21.74-5.33-42.71-12.42-62.33-23.17-4.55-3.5-9.77-6-14.54-9.13-1.5-1-3.16-1.74-5.06-1-1.4,1.08-.55,2.11.21,3C533.77,401.69,540.4,408.38,549.94,411.26Z" fill="#b59a7a"/><path d="M790.93,436.27l-1.74,3.31c1.08,2.81,2.63,1,3.58.11,2.26-2.07,4.34-4.34,6.47-6.56,5.28-8.46,8.75-17.79,13-26.75,4.91-7.51,8.32-15.44,9.41-24.51.88-7.36,2.93-14.67,8.83-20.11,2.21-6.34.48-13.26,3-19.53,1-4.38-1.55-9.07,1.26-13.34a2.33,2.33,0,0,0-.62-2.76c-2.67-2.52-2.35-5.7-2.15-8.87-1.47-5-4.16-9.5-6.44-14.16-4.07-4-6.33-9.25-9.35-14-.76-.62-1.65-1.3-2.56-.59-1.07.84-.89,2-.13,3,1.47,1,.69,2.62,1,3.93a14.9,14.9,0,0,0,1.5,9,202.52,202.52,0,0,1,8.44,20.61c1.07,4.75.48,9.65,1.44,14.4-1.91,22.9-8.8,44.44-18.51,65.17-2.77,5.91-4.59,12.27-8.52,17.64C797,427.36,792.18,430.84,790.93,436.27Z" fill="#554135"/><path d="M672.18,675.74c4-4.29,6.28-10.2,12.42-12.38.84-.3,1.52-.76,1.26-1.64a2.53,2.53,0,0,0-2.75-1.87c-7.41,1.11-16.28-3.49-21.57,6.24a9.59,9.59,0,0,1-9.66,4.84c-7.74,6.31-13.58,14.13-18.42,22.73-1.75,3.34-2.39,6.63,0,10,1.32,1.86,1,4.19,1.38,6.31a57,57,0,0,1,1.52,8.14c.4,5.8,2,6.2,7.19,3.89,9.49-4.22,15.24-10.79,17.55-21a47.48,47.48,0,0,1,9.07-19.24A7.69,7.69,0,0,0,672.18,675.74Z" fill="#50433f"/><path d="M603.43,839.79c-2.44-2.8-5.41-.5-7.83-.29-7.29.65-14.66-1.41-22,2-3.72,1.71-8.93.38-13.41,1.82-1.64.53-3.47.91-3.69,2.37-.88,5.9-5,4.21-8.64,4l.24,2.21c4.63,5.85,7.9,5.74,11.46-.51.86-1.52,1.68-2.61,3.62-2.49,5.83.36,10.87-2.33,16.13-4.15.54-.18,1.06-.39,1.58-.6a36.93,36.93,0,0,1,10.65-1.54c5-.2,4.57,1.88,1.93,4.75L592,848c-4.69,2.48-10,3.13-15,4.52a23.57,23.57,0,0,1-9.77,2.83c-1.11.43-2.08,1.15-3.36,1.19-1.94.07-4.36-.28-4.75,2.42-.43,3,2.38,3,4.06,3.27,6.43,1.08,12.84,2.49,19.41,2.63s13-1.1,19.41-2.43c-1.64-1.59-4.64-1.85-4-5.48.4-2.45.07-3.85,3.5-3.71,4.47.17,5.23-1.42,2.3-5.1C601.32,845.12,605.25,842.47,603.43,839.79Z" fill="#635141"/><path d="M644.05,417.46c-3.63,3.61.72,10.72-5.36,12.42a181.71,181.71,0,0,0,38.44,19.4c.72-.65,2-.1,2.53-1.09l-3.5-2.55c-5.48-2.72-11.41-4.56-16.4-8.23-2.38-2.46-5.67-4.14-7.14-7.44,1.51-1.13,2.63-.49,3.73-.12,4,1.31,4.83-.64,3.91-3.86-1.47-5.13,1-10.54-1.48-15.65-1.22-2.46,2-1.65,2.89-2.61-2.71-9-1.38-18.5-3.18-27.62-.79-5.52-.73-11.29-4.92-15.78-2.52,2.42-2.13,5.49-1.42,8.32,2.59,10.29,1.17,20.8,1.91,31.18.44,6.25-3.45,9.91-8.92,12.21Z" fill="#9e846a"/><path d="M636,710.5c-.3-3.24,1.64-6.69-2.32-9.52-2-1.42.06-4.82-.25-7.32-6.59,8.64-13,17.42-22,24,2.38,1.43,2.49,1.58,4.42.23a13.25,13.25,0,0,1,6.56-2.63c4.32-.4,6.24,1,5.6,5-.43,2.65-1,5.78-3.5,7.27-5.48,3.3-8.19,8.53-11,13.77-1.36,6.48-2.31,13.08-6.53,18.63-.74,1-.39,2.93.92,2.92,4.28,0,8.84,1.22,12.63-2.15,2.95-2.64,5-5.32,2.21-9.2-1.23-1-2.68.25-3.59-.09-.67-9.4,5.43-15.16,10.74-21.44C634.66,724.37,636,717.57,636,710.5Z" fill="#928278"/><path d="M614.62,741.43c3.9-4.46,5.41-10.78,12.1-13.17,3-1.07,4.14-12.66,1.46-14.39-3.32-2.14-7.37-.43-10.94,1.13-1.93.85-2.58,4.4-5.73,2.64-3.36,6-10.13,8.23-14.71,12.88-.11,2.9-2.46,4.36-4.19,6.17-2.63,2.74-5.06,5.55-5.63,9.46,3.69,4.33,5.81,3.88,8.41-1.33,5.05-10.1,11.57-18.9,22.63-23.45,1.1-.45,2.08-1.23,3.33-1.28a3.32,3.32,0,0,1,3.18,1.29c.83,1.38-.3,2.46-1.29,2.89-5.46,2.36-8.15,6.65-9.48,12.15-.38,1.53-2,2.41-3.33,3.33s-3,1.72-3.49,3.19c-1.84,5.48-4.25,10.57-8.34,14.81a2.61,2.61,0,0,0-.11,2.84c6.73.87,12.09-3.71,12.9-11.91A11.68,11.68,0,0,1,614.62,741.43Z" fill="#b0a39a"/><path d="M842.39,577.7c.43,2.39,3.39,3.51,3.17,6.22-.27,1.85.49,3.48,1.21,5.08a49.19,49.19,0,0,1,4.57,21c3.1,3,1.36,6.72,1.68,10.14a3,3,0,0,0,.94,1.37c4.36-2.72,1.12-9,5.68-11.64,1.86-15.41-5.27-27.67-14.18-39.3-3.74-1.33-6.17-4.16-8.45-7.16l-4.4-4.2c-3.18.53-3.45.86-1.62,3.37,3,4.15,6.81,7.67,10.15,11.57C842,575.22,843.31,576.07,842.39,577.7Z" fill="#6a5c4f"/><path d="M842.34,276.94a195.2,195.2,0,0,0-5.17-36.82,290.82,290.82,0,0,1-6-33.6c-.9-7.59-4.1-14.77-4.61-22.46a.9.9,0,0,0-.44-1.45c-2.09.77-1.53,2.3-1.13,3.79,2,12,1.91,24.3,5,36.17,2.37.93,2.14,3.16,2.28,5,1.15,14.54,5,28.82,4.84,43.47,0,3.75,2.09,8.38-2.66,11.18l-1.2,1.26a12.26,12.26,0,0,1-1.27,1.23c-2.2,1.92-3,4.22-1.63,6.89.94,1.83,3,3.11,4.14,1,2-3.58,5.58-2.37,8.28-3.65q0-.57.06-1.14C841,284.21,845.12,280.45,842.34,276.94Z" fill="#a38b73"/><path d="M781.93,233.83c2.19,4,3.68,8.47,6.63,12.12,3.77.9,4,4.48,5.44,7.08,5.52,9.82,10.11,20.18,17.44,28.94a33.79,33.79,0,0,0,4.38,4.88c5.32,1.86,4.91-2.55,6-5.32,0-2.33-1.38-4.13-2.74-5.77-11.11-13.37-20.28-28.19-32-41.14-1-1.17-1.89-2.67-3.52-3.08C781.4,231,781.22,232.15,781.93,233.83Z" fill="#bfa78d"/><path d="M645.14,416c1.05,1.19,2.16,5.5,3.09-.06.06-.36,0-.88.28-1.06,7.68-5.94,6.49-6,7-15.89.58-11.76-2.33-23.15-2-34.78l.18-.84c.24-5-1.65-9.46-3.19-14-.88-1.57-1.49-3.39-3.65-3.75-1.86,1-1.45,2.46-1,4,3.5,13.26,5.68,26.72,5.44,40.45C651.18,399.11,650.47,408.13,645.14,416Z" fill="#625246"/><path d="M562.17,760.61a60.9,60.9,0,0,0-9.82,9.23c.83,2.84-2.75,3.54-3,5.88-1.22,4.65-2.71,9.27-2.28,14.18.1.54.23,1.08.37,1.61,2.3,4.67,3.48,9.66,6.48,14.27,2.83,4.36,3.88,10.51,4.24,16.16.11,1.68.11,3.11,1.7,4.07a12.61,12.61,0,0,0,4.49,1c2.16,0,4.45.46,6.15-1.44-3-8-7.43-15.53-9-24.09-.39-2.08-2.58-2.88-4.14-4.09-5-3.91-5.9-7.09-3.74-12.95,1.54-4.19,1.18-9,4.56-12.58,2.21-2.42,4.71-4.68,5.43-8C563.86,762.61,564.9,760.71,562.17,760.61Z" fill="#928375"/><path d="M825.68,324.84c-2.47-10.24-8.2-19.28-11.15-29.35-3,.64-3.82-2.06-5.24-3.6-5.07-5.53-10-11.2-15.64-16.39a20,20,0,0,0,5.6,12.77c4.9,4.2,6.4,10.64,10.49,15.38,4.93,5.7,6,13.31,9.93,19.48C821.16,325.45,822.44,328.48,825.68,324.84Z" fill="#b99f87"/><path d="M842.39,577.7c4.05-1.3,1-2.79,0-3.93-3.43-4.07-7-8-10.53-12-1.15-1.3-1.72-2.32.76-2.5-5.81-4-10.87-9-17.17-12.35-1.69-.9-2.78-2.21-2-4.29-1.52-2.15,4.34-4.39.12-6.27-3.44-1.52-5.81.43-7,3.6-1,2.79-2.36.81-3.63.39-3.28,2.71-3.41,5.95-.11,6.17,7.46.48,11.28,6,16.56,9.55C827.11,563.2,835.94,569.23,842.39,577.7Z" fill="#89725d"/><path d="M562.17,760.61c1.53,5.13-3,7.31-5.3,10.6a3.08,3.08,0,0,0,3.31,1c8.07-9.9,20.2-15.73,27.48-26.44,2.51-3.66,4.76-7.47,8.35-10.38,1.17-.94,3.29-2.8.79-4.83Z" fill="#9e9692"/><path d="M781.93,233.83c1.28-3.47,2.46-.54,3,.25,8.77,12,19.85,22.3,27,35.47,2.46,4.53,7.48,7.14,9.33,12.11.07.27.15.53.21.8,2.08,1.94,3,4.49,3.83,7.08,1.85,1.45,4.23,3,4.28-.91,0-2.94,2.17-2.83,3.59-3.89l-.06-1.3c-3.51.51-5.9-1-8.37-3.46-10.34-10.35-17.66-22.91-26.58-34.3-3.66-4.68-7.68-9.1-11.57-13.62-1.27-1.48-2.94-2.31-4.76-1.24C780.54,231.6,781.06,232.83,781.93,233.83Z" fill="#dacbbb"/><path d="M803.3,540.7c1.61,4.77,4,2.2,4.57-.07,1-3.88,3.14-3.71,6.09-3,.15,2.15-2.59,2.48-2.84,4-.36,2.26,1.51.62,2.32.92a59,59,0,0,0,10.18-15c-.71-6.49-.85-6.57-6.39-3.66.3-2.1.59-4.19.88-6.29-4.09.75-3.33,4.95-5.26,7.25-1.66,2-2.5,4.51-4,6.63l-4.16,5.56C803.56,538.07,802.72,539.12,803.3,540.7Z" fill="#b39470"/><path d="M526.83,392.18c5.42.48,8.68,5.1,13.5,6.83,2.19.79,4.14,2.28,6.52,2.72-4-5.67-10.7-8.1-15.49-12.85-5.76-5.73-11.69-11.31-17.56-16.93-.79-.76-1.45-2.19-2.88-1.11a2.2,2.2,0,0,0-.43,3.18c3,4.4,4.89,9.51,9.24,12.94C522.86,387.7,523.13,392.2,526.83,392.18Z" fill="#d6c4b0"/><path d="M603.43,839.79c-.74,1.61-1.52,3.2-2.2,4.82-.81,1.93-1.47,3.88,1.47,4.66,1.26.34,2.46.78,1.54,2.34a1.77,1.77,0,0,1-2.6.59c-5.73-3.34-6.25-.12-5,4.2.58,2-.39,3.32-1,5,2,1.4,4.31.46,6.34,1.06,4.41,0,8.48-1.48,12.62-2.69-3.59-.84-11.25,0-2.47-5.92,1.46-1,.31-2.36-.58-2.9C607.23,848.32,605.57,843.91,603.43,839.79Z" fill="#57412d"/><path d="M582.58,864.87c-6.36-2.74-13.57-1-20-3.69-1.25-.52-3.2-.5-2.51-2.45.59-1.67,2-.4,3-.16,2.68.59,4-1.23,5.34-3-.66-1.54-2.7-1.64-3.57-3.53,4.19-1.24,8-3.31,12.18-4.43,2.14-.57,4.32-1.46,3.08-4.46-6.27.84-11.66,5.53-18.56,3.93-1.45-.34-2.74,1.38-3.47,2.85-3,6-4.16,6.21-10.07,1.9,1.11,6.52,6.39,8.77,11.74,10.28C567.19,864.19,574.67,866.53,582.58,864.87Z" fill="#8a745f"/><path d="M834.36,282.18c.4,1,.32,2.7,2.18,1.34s2-3.34,2-5.32c.12-9,.34-17.91-1.93-26.83-1.86-7.37-2.47-15.07-3.35-22.65a29,29,0,0,0-2.46-9.65c-.45,1.68-.69,2.59-.94,3.5C832.79,242.34,836.35,262.06,834.36,282.18Z" fill="#63534a"/><path d="M825.68,324.84c-3.35,2.06-4.26-.51-5.06-2.75-4.08-11.44-11.09-21.27-17.64-31.36a45.68,45.68,0,0,0-2.86-3.7.61.61,0,0,0-.51.11,7.43,7.43,0,0,0-.36,1.13c7,13,14.16,25.9,21.1,38.92,2.11,4,3.72,8.2,5.56,12.31C826.91,334.6,827.59,329.7,825.68,324.84Z" fill="#755f4f"/><path d="M784.35,929.78c2.87-11.56-2-20.86-9.06-29.41-1.07-1.29-.9-2.48-1-3.81-.11-1.87,1-4-1.08-5.48a23.56,23.56,0,0,0,2.56,17.47c1.66,2.8,2,5.86,2,9C779.05,922.11,779.29,927.19,784.35,929.78Z" fill="#847065"/><path d="M816.19,286.08c-10-11.74-16.37-25.71-24.28-38.74-1.36-2.24-1.36-2.24-3.35-1.39q10.91,20,21.8,40c1,1.88,2.09,3.74,3.14,5.6.28-1.21-.41-3.65,2.31-1.78l.69-.52A2.75,2.75,0,0,0,816.19,286.08Z" fill="#786150"/><path d="M804.17,959.79a22.77,22.77,0,0,1-6.69-6.46c-.42-.56-.85-.57-1.3,0,4.23,6.64,8.19,13.5,14.31,18.72a16.34,16.34,0,0,1,4.64,5.33l2.25-2.88,2.81,5.91,2.31-2.78c1.62-2.5.55-5.44-1.28-6.16-2.37-.93-2.59-2.31-3.14-4.1-.45-1.43-1-3.5-2.92-3.1s-1.66,2.4-1.58,4a5.78,5.78,0,0,0,.92,2.93c-2.54-2.19-4.06-4.9-5.68-7.57C807.77,961.84,807.07,959.42,804.17,959.79Z" fill="#6a594f"/><path d="M526.83,392.18c-3-.9-3-5.8-7.1-5.22,8.81,11.64,18.8,22.11,31,30.45-1.11-2-3-3.8-.75-6.15-5.49-4.82-12.6-7.48-17.66-12.89C530.4,396.35,528,394.81,526.83,392.18Z" fill="#6a5545"/><path d="M645.9,349.59c.46-1.25-.08-2.91,1.57-3.67,1.41-4.73-1.63-8.22-3.5-12a82.5,82.5,0,0,0-4.87-8.77c-2.77-4.75-4.55-10.14-9.15-13.72,3.44,7.77,6.78,15.58,10.37,23.28A91.9,91.9,0,0,1,645.9,349.59Z" fill="#87776c"/><path d="M796.18,953.3l1.3,0c-.18-1,0-2.2-.59-2.83-5.46-6.17-10-12.84-12.54-20.72-3.54-3.38-4.41-8.13-6.52-12.25a10.09,10.09,0,0,0,1.35,7.82C784.63,934.79,788.5,945.16,796.18,953.3Z" fill="#847065"/><path d="M988.26,798.2l3,3.1,3.54-13.43-4.9-4.11A51.51,51.51,0,0,0,988.26,798.2Z" fill="#7f695d"/><path d="M579.26,443.27a82.32,82.32,0,0,0-12.71-12c-2.82-2.09-5-5-7.45-7.56-1.61-1.69-2.89-3.87-5.74-3.69C561.41,428.38,568.8,437.48,579.26,443.27Z" fill="#6a5545"/><path d="M826.42,183c0,.37.05.73.09,1.1,3.26,1.64,3.82,5.56,6.6,7.62l-5.76-18.35c-1.79-1-3.23-.66-3.11,1.5C824.39,177.64,823.92,180.72,826.42,183Z" fill="#dccec1"/><path d="M550.56,775.62c-.07-2.13,5.71-2.51,1.79-5.78-2.68,2.57-6.06,4.44-8,7.76,2.75,3.77-1.74,8.44,1.53,12.15l.67-.6C547.8,784.61,548.08,779.8,550.56,775.62Z" fill="#635141"/><path d="M790.93,436.27a28.6,28.6,0,0,0,8-14l-11.75,12.21C786.79,438.49,790.44,434.05,790.93,436.27Z" fill="#a1815d"/><path d="M939.18,728.3a46.4,46.4,0,0,0-.94-5.68c-.91-3.09.77-3.8,3.3-3.93l-3.68-4.88C931.19,719.27,936.15,723.7,939.18,728.3Z" fill="#8b7362"/><path d="M826.42,183c-.39-2.42-.68-4.87-1.22-7.26-.45-2,.57-2.34,2.15-2.37-.37-1.74-.77-3.8-3.15-3.23-2,.48-1.33,2.26-1.19,3.85.37,4.2-.11,8.51,1.93,12.45C825.38,185.23,824.92,183.68,826.42,183Z" fill="#cdb496"/><path d="M837,563.44c1.52,3.87,3.41,7.31,8.45,7.16C843.17,567.6,840,565.68,837,563.44Z" fill="#89725d"/><path d="M925.6,895.71c3.17,1.81,5.71,5.17,6.24,7.89,1.86,9.42,4.13,18.94,1.94,28.76-.75,3.36-.11,7-.1,11.7,7.78-8.6,6-18,6.47-27-2.78-4.54-5.11-9.15-2.66-14.62,1-4.71-.25-9.43,0-15.14,4.11,6.52,4.83,13.15,6.72,20.45,2.3-8.87,3.05-17.19,7.68-24.42,1.86-2.89-.2-6.57-.27-9.9-.05-2-1.29-4.08.31-7.29,1.61,4.77,2.91,8.62,4.2,12.46a1.21,1.21,0,0,0,1.74-.17c1.72-2.65.66-5.35,0-8-1.43-5.46-1.58-11.28-4.59-16.31-1.87-1.44-4.06-2.34-5.64-4.3-4.07-5.05-6.87-5.78-13-3-3.81,1.75-5.25.8-6.42-2.95-2.34-7.54-1.31-15.26-1.77-22.89-.22-3.56-.75-6.65-4-8.7-2.61-1.32-5-1.72-6.68,1.4a9,9,0,0,0-.41,4.52c.13,1.68,1.31,3.72-.51,4.9-2,1.31-3.11-.9-4.4-1.93-2.65-2.11-5.27-2.62-8-.11-1.1,1.32-.9,3.39-2.77,4.76a7.89,7.89,0,0,1-2.14-7.47c.56-2.89-.24-4.93-3.06-6.1-8,6.75-10,12.37-5.8,21.13,2.52,5.33,1.76,11.36,4.78,16.43.72,1.22-.08,2.28-1,3.15-3.16,3.11-1.68,5.66,1,8,.74.65,2.2,1.07,2.18,1.92-.23,9.43,7.48,16.59,7.49,26,0,3.17.24,6.31-.87,9.37a10.94,10.94,0,0,0,.31,8.13c1.18,2.85,1.41,6.94,4.93,7.63,4.1.81,6.13-3.06,8.44-5.71a11.26,11.26,0,0,0,2.66-7.12C918.77,896.67,921,894.82,925.6,895.71Z" fill="#aa8f7c"/><path d="M921.56,813.15c6,5.42,2.83,12.68,3.23,18.93A128.15,128.15,0,0,0,927.05,847c.6,3.29,3,4.73,6.75,2.25,6.37-4.25,8.28-3.74,12.82,2.67,1.62,2.3,3.9,2.51,6.33,2.65,2.28,3.76,2.5,8.3,4.75,12.07.9,1.51,1.78,3.33,4.06,2.68,1.77-.5,3-2.5,2.32-3.62-1.72-2.78,3.47-2,1.89-4.32q-.94-6.06-1.88-12.12c3.39,2.69,3.8,6.78,5.7,10.2,3.15-4.48,3.08-7.06-.37-18.24-.53-.59-1-1.21-1.59-1.78-4.23-4.3-4.19-4.42,1.91-6.56L969,828c-3.57-1.27-6-3.66-8.53-6.53-4.59-5.21-11.4-7.8-17-11.87-4-1.68-6.92.54-10.14,3.9-.49-4.52,1.17-8.11-.33-11.7s-4.53-6-6.47-9.26a12,12,0,0,1-1.23-9.19c2-8.69.5-16.87-3.5-24.73-2.24-4.4-3.9-4.93-7.56-1.78a6.38,6.38,0,0,1-4.89,1.62c-6.35-.24-12,1.09-15.36,7.13-.2.35-.39.78-.73.93-9.67,4.33-7.84,11.45-4.94,19,1.37,3.56-.16,8.45,4.12,10.62,4.48,2.27,7.27-2.18,10.83-3.58,3.12-1.22,6.26-2.25,8.91.64,2.94,3.22,8.16,5.7,5.42,11.32C915.21,809.36,919.17,810.78,921.56,813.15Z" fill="#b29a87"/><path d="M925.6,895.71c-1.17-1.74-2.53-3.21-4.9-2.23a5.29,5.29,0,0,0-3.46,5.7c.45,5.82-2.87,9.6-7,13-1.32,1.09-2.67,2.11-3.77-.23-1.59-3.41-4.54-7.29-3.32-10.54,4.21-11.13.3-20.68-4.32-30.35-.93-2-2-4-.84-6.24,1.21-2.46,0-3.34-2.2-4.37-4.85-2.23-5.18-4.35-1.08-7.06,2.28-1.51,1.29-2.23.62-4.1-2.87-8-6.11-16.08-7.46-24.4-.74-4.53,4.78-8,7-12.22a2.84,2.84,0,0,0,1-2.36c-1.63-6.41-7.74-11.11-14-10.52-2.8.26-3.23,2.58-3.26,4.85s-.05,4.27-1.37,6.2c-3.27,4.77-5.69,5.2-10.43,1.7a2.21,2.21,0,0,0-2.2-.44c-1.85,2-1.35,4,0,5.87a18.11,18.11,0,0,1,3.07,5c1.31,6.35,1.64,12.94,5.25,18.68.74,1.19.18,2.71-.13,4.07s-.87,2.9.1,4c7.45,8.63,8,19.86,11.69,29.9,1.38,3.75,4,6.88,4.92,10.75.1,4.24-1,8.84,4.22,11.32,1.48.71,1.21,2.42.68,3.74-1.26,3.08-.37,6.26-.57,9.38-.09,1.39-.29,3,1.28,3.65,6.25,2.41,3.88,6.72,2.62,10.82-.63,2-2.54,3.7-1.56,6.1,2.6,1.56,5.54.11,8.31.91,1.22.35,1.44-1.36.84-2.54l-1.22-10.65c2.09,1.65,2.31,3.38,2.9,4.91,2.69,2.75,5.52,3.17,8.55.52-.4-3.23.75-6.53-.5-9.75-.27-.67,0-1.74,1-1.52.48.11.73,1.21,1.08,1.86.85.66.36,3,1.9,2.31,1.85-.87,1.23-2.94.72-4.63l.53-8.23c2.54,1,1.82,3.17,2.19,4.86,2.91.67,4.93.05,5-3.35C928.11,905.13,926.25,900.5,925.6,895.71Z" fill="#9c816f"/><path d="M943.53,810.94c3.51,4,8.89,5.3,12.75,8.73,2.09,1.86,4.79,2.86,5.44,6.54.67,3.86,4.83.93,7.25,1.82.44-2.95-.76-5.69-1.14-8.54-.26-2-1.49-4.13.95-5.67-6.78-5-7.73-14.14-14.33-19.26a32.73,32.73,0,0,1-4.48-3.89c-1.68-1.87-3.4-2.69-5.78-1.39-1.93,1.05-3.45.61-4.5-1.32a3.52,3.52,0,0,1,1.55-5.1c3.93-1.66,7-3.33,5-8.25-1.28-3.13-1.32-6.76-4.76-8.94a6.81,6.81,0,0,1-3-7.24c.85-5.55-1.3-10.9-1.42-16.4,0-1.53-1.47-3.49-2.23-2.94-3.6,2.62-8.16-3.15-11.35,1.57-1,1.49-2.58.71-3.63-.35-1.41-1.42-2.88-1.17-4.37-.35-2.66,1.45-4.8,1-5.68-1.91-1.34-4.35-6.75-1.5-8.46-4.94-1.22-1.71-3.59-2.68-4.38-.89-1.22,2.74-1.57,2.2-2.79.27-.29-.44-1-.55-1.62-.73-3.1-1.57-6.3-.49-9.4-.14-4.42.49-8.77,1.8-13.27.7h0c-3.1.3-4.51,2.41-3.61,4.92,2,5.62-1.07,9.52-4,13.46-2.2,2.94-2.71,8.33-8.77,6.37-.89-.28-1.62,1-2,1.94-1,2.89,3,9.23,7.09,10.7s5.9-.8,7-4.23c-2.53-2.11-3.16-4.19.42-5.74,4.55-2,6.17-5.41,7.07-10.13,1.46-7.74,10.12-12.26,17.79-9.81,2.17.69,4.16,1.4,6.44.81s3.39.55,3.45,2.78a18.37,18.37,0,0,0,.08,3.56c1.69,7.28,3.51,10.46,10.65,8.53,5.71-1.55,9.85-.15,12,6.28a21.84,21.84,0,0,0,7.6,10.49c4,3,2.83,7.76-1.94,9.36-5.29,1.77-6.26,4.33-2.9,8.74,2.91,3.8,5.84,7.4,12,6,4.46-1,4.56,2.71,4.2,5.87S939.91,808.46,943.53,810.94Z" fill="#a18877"/><path d="M905.34,933.75c-.19.71-.62,2.06-1.19,1.53-2.79-2.62-5.1-1-7.51.45-1.35,1.79-2.07,3.5.62,4.78.64-1.67,1-2,1.7.07a92.65,92.65,0,0,1,5.15,28.35c0,2.36-.17,4.75,1.6,7.19l1.27-5.75c2.12,6.75,1.8,13.2,2.13,19.58.28.19.54.39.81.59,1.38-.62,1.74-2,2.36-3.16.31-1.22,1.16-2.44.15-3.71l-.69-1.33c-.61-5.28.42-10.71-1.48-15.87-1.32-9.81-2.65-19.63-3.92-29.45C906.19,935.85,906.24,934.68,905.34,933.75Z" fill="#a38571"/><path d="M927.52,910.08c-1,2.09-3.18,2.49-5,3.35,1,9.75,2.74,19.36.43,29.32-1.2,5.17,1,10.72,3.61,15.55,1.69,3.09.45,6.19.72,9.27.22,2.47-1,5,.84,8.69,1-11.14,3.07-21,2-31-1.14-10.77.71-21.68-1.69-32.38C928.19,911.9,927.82,911,927.52,910.08Z" fill="#aa8f7c"/><path d="M915.57,928.53c-2.85-.13-5.79,1.16-8.55-.52,9.47,14.45,4.3,32.09,11,48.06C921,959.49,918.64,944,915.57,928.53Z" fill="#aa8f7c"/><path d="M952.75,893.85c-1.83,8.53-4.85,16.51-7.4,24.7s-1.55,17.21-1.54,26C948,927.78,954.76,911.51,952.75,893.85Z" fill="#ac917e"/><path d="M963.94,887.65c-1.76.78-3.54,1.9-4.26-1.2-.61-2.63-1.44-5.21-2.16-7.81l-1.42,0c1.53,5.41,1.56,11,3.33,16.56,1.71,5.34-1,11.5-2.45,17.24-1.31,5.2-2.43,10.7,2,15.3a6.59,6.59,0,0,0,1.81-7.1c.37-6.33-.27-12.94,1.44-18.89A42.3,42.3,0,0,0,963.94,887.65Z" fill="#ae937f"/><path d="M991.42,835.2l-2-2.29c-6.34,7.91-.89,16.51-1.45,24.5,4,0,5.94-2.35,6.52-6.08.94-2.31,6.22-.1,5-4.66.3-3.79,1.36-7.69-2.08-12-1.57,5.8-2.26,11.28-6.66,16C988.61,845,990.93,840.13,991.42,835.2Z" fill="#91796a"/><path d="M981.07,847.87a10.39,10.39,0,0,1-4.35-3.82c-2,7.31,1.12,14.36,1.37,21.82.08-3.94,7.14-1.74,5.77-6.76C982.84,855.38,983.78,851.18,981.07,847.87Z" fill="#b29a87"/><path d="M998.21,790.47c-2.38,6.49-2.64,13.37-3.76,20.09l5.55,14.89C997.29,813.86,1001.34,802,998.21,790.47Z" fill="#7f695d"/><path d="M983.18,890c1-7,.59-12.47,2.58-17.48,1.64-4.14-3.27-2.3-3.65-4.4-1.87.85-1.21,2.63-1,3.78C982.19,877.26,980.7,882.89,983.18,890Z" fill="#b29a87"/><path d="M936.38,962c4.66-6,5.19-11.39,2.9-17.61C935.68,949.81,935.24,955.16,936.38,962Z" fill="#a98f7b"/><path d="M970.83,885.57c3-6.59,2-12.84-1.85-19.16-1.61,5.36.43,10.5-.08,15.59C970.25,882.82,967.72,885.67,970.83,885.57Z" fill="#b29a87"/><path d="M969.74,832.87c-2.51-.86-6-1.35-6.59,1.24-.85,4,2.37,6.24,6.27,7.1C969.53,838.43,969.63,835.65,969.74,832.87Z" fill="#b29a87"/><path d="M978.93,806c-1.08-6.25.14-12.5,0-18.74,0-.48.42-1.42-.49-1.28-.38.06-.58,1.24-.86,1.91-1.5.8-2.35,1.84-1.34,3.56.61,5.27-2.31,10.79,1.22,15.84Z" fill="#7f695d"/><path d="M937.49,902.43c-2.35,5.45-3.12,10.61,2.66,14.62C941.07,911.86,935.84,907.75,937.49,902.43Z" fill="#aa8f7c"/><path d="M975.36,901.5c-.29-4,.11-8.09.26-12.93C972.47,893.32,972.19,897.36,975.36,901.5Z" fill="#aa8f7c"/><path d="M969.15,914.82c.81-4.74,1.13-8.37-1.12-12A13.3,13.3,0,0,0,969.15,914.82Z" fill="#a98f7c"/><path d="M953,931.07c-3.07,2.71-.77,5.58-.58,8.42C954.21,936.81,953.25,933.9,953,931.07Z" fill="#ac917e"/><path d="M919.76,916.8c-.5,1.2.46,2.78-.9,3.65-.2.13-1.13-.86-1.72-1.33-.39,2.55,1.06,4.42,3,7.64C920.38,922.58,921.36,919.72,919.76,916.8Z" fill="#aa8f7c"/><path d="M804.17,959.79c3.63,4.24,5.12,10.18,10.66,12.94,1.84-2.38-1.08-4.88.71-8.26.4,6,7.06,7.53,7,13.13h0c2.14,5.54,3,11.43,5.13,17,1.35.93.8,2.32.88,3.55,2.43,3.13,3.33.79,3.42-1.21a71.88,71.88,0,0,0-.78-14.12c1.2,5.68,1.17,11.69,3.59,17.2,1.84-1.88,1.79-3.9,1.37-6l-.06-4.57c-.78-2.25.92-4.77-.54-6.25A8.89,8.89,0,0,0,837.6,987c3.06-4.06-.92-8.73,1.68-13.52l3.37,10.26c.36.59.77.63,1.24.13l2-7.27c7.39,6.39,3.6,15,6.28,22.18,3-1.57,1.36-4.8,2.28-7.1,1.25-1.54,1.33-3-.14-4.51-3.27-6.36,2.5-10,4.6-14.71,2.21-1,1.31-3.68,2.92-5,2-.75,1.54-2.4,1.53-3.9,1.72-6.12,5.9-11.47,4.21-18.64-1.48-6.25-2-7-7.47-3.81-.83.49-1.49,1.37-2.65,1.12-2.2-5.31.47-12.8,5.55-15.6,7.13-3.93,7.23-4,6-12-.51-3.31-1.13-6.64-3.16-9.48.09-1.57.19-3.14.28-4.71-.51-.71-1.37-.59-2.06-.87s-2.79,1.73-2-.84c.59-1.93,1.07.48,1.88.46,1.88,0,1.82-1.27,1.77-2.32-.17-3.25.08-6.57-1.13-9.71,0-2.37-1.42-3.8-3.32-4.91-2.88,1.31-4.52-.34-5.88-2.46-2.32-3.6-5.06-4.73-9-2.11-3.58,2.4-6.69,1.7-9.36-1.74-1.71-2.19-4.51-3.25-5.58,0-1.88,5.68-4.67,11-6.8,16.47-.63-2.11-1.38-4.76-4.58-4.74s-5.55,1.9-6.79,4.92c-1.63,5.72-1.47,11.66-2.33,17.48-3.82.9-4.55,3.69-3.85,6.85,1.19,5.44,3.19,10.42,7.94,14.13,5.5,4.31,4.87,8.24-1.21,10.46-.55.2-1.5.53-1.51.82C812.23,949.35,804.51,952.89,804.17,959.79Z" fill="#5e4b40"/><path d="M819.23,763.71c-.46-4.4.18-8.91-1.52-13.17-1.07-3.33-1.88-6.45-7-4.6-3.34,1.22-3.61-2.1-3.14-4,1.37-5.75-1-9.87-4.78-13.87-2.46-2.6-4.29-5.69-3.12-9.72.83-2.88-.3-5.43-2.45-7.53-5.58,2.17-7.31,5.33-5.67,10.33a11.79,11.79,0,0,0,2.14,4.24c8.76,9.71,3.84,18.2-2.3,26.61-2.08,2.83-2.12,2.8.14,10.7-1.4-4.11-3.91-6.59-8.54-7.11-3.51-.4-6.16-2.77-8.11-5.71a20.8,20.8,0,0,0-5.66-6.09c-3.1-2.07-4.63-4.57-3.27-8.58.94-2.77-6.82-10.75-9.68-10.46-2.08.22-2.35,1.87-2.68,3.44-.24,1.11.17,3.1-1.08,3.08-3.6-.06-4.87-3.25-5.93-5.86-.72-1.79-2.13-5.12,1.62-5.52,2.88-.3,4.69-.8,4.71-3.92,0-1.65.73-2.16,2.26-1.5a6.32,6.32,0,0,0,5.26-.41c4-1.76,7.65-3.11,12.22-.45,4,2.29,8.94-.33,10.72-3.22,2.73-4.42,6.47-5.38,10.68-6.47a3.14,3.14,0,0,0,1.41-1.08c.38-2.44-1.46-2.95-3.2-3.45-1.14-.33-2.38,0-3.53-.54-1.79-.85-2.18-4.54-5.11-2.81-2.07,1.23-1.56,3.91-2.29,5.91-1.11,3.07-2.59,5.15-6,2.32-3.06-2.55-6.38-1.77-9.68-.74-1.9.58-3.66,1.71-5.78,1.12-3.3-.9-7.86.79-9-4.63-.26-1.29-2.23-1.45-3.69-.81-.27,3.71-.66,7-6,6.61-2.2-.17-3.44,3.19-6.17,2.75-4.74,1.46-6,5.69-5.32,9.33.7,3.81-.65,4.15-3.53,5-4.07,1.18-5.56,6.88-3,10.19a3.21,3.21,0,0,0,1.86,1.34c4.39,1,4.39,1,3.16,5.82,2.42,3.9,4,3.88,6.3-.11,3-5.2,7.11-5.52,11.15-.81-1.91,1.18-2.92-.57-4.13-1.28-1.86-1.07-3.44-1.27-4.58.8-1.06,1.91-1.46,4.05,1.13,4.93a5.6,5.6,0,0,1,3.9,4.07c.3,1,1,2,2,2.11a20.84,20.84,0,0,1,11.49,4.28c.8.61,1.8-.46,2.28-1.42a4.73,4.73,0,0,0,.09-2.53c-.71-2.23-1.89-4.4-1.09-7.07,3.26,0,5.38,1.06,5.64,4.6a9,9,0,0,0,4.07,7c9,5.84,11.46,14.91,12.4,24.52.45,4.55.48,9.08,2,13.48,1,3.15.39,5.22-3.46,6-2.91.6-5.6,2.07-8.65,2.5s-4.6,2.55-4.08,5.55,2.53,5,5.9,4.78c8.64-.47,15-2.71,18.73-12.26a209.3,209.3,0,0,1,10.55-23.21c2.75-5,1.09-10.46.68-15.72-.22-2.76-1-5.56,3.27-7.93-1.11,5.87,1.66,10.78.65,16-.39,2-1.44,3.91.76,5.3s3.81,0,5.41-1.28a6.47,6.47,0,0,1,.91-.75C815.72,769.46,817.71,767.39,819.23,763.71Z" fill="#a38675"/><path d="M814.58,892.43c1.53-2.21,3.41-4.24,6.35-3.54s2,3.43,2.1,5.51c.06,1.08.52,2.07,1.76,1.93a3,3,0,0,0,2.68-3.37c-.53-6.34,4.78-10.76,5.46-16.81.27-2.38,2.42-.66,3.17.75,3,5.73,7.27,4.88,11.52,1.87,2.45-1.73,3.69-2.06,5.78.66,1.71,2.23,4,5.53,7.92,2.83-1.14-.32-2.49-.38-3.38-1-1.35-1-2.57-14.08-2.13-15.78.89-3.42,4-6.68.66-10.51-1.35-1.53.5-2.82,1.32-4.13a2.78,2.78,0,0,0-1.18-4.08c-1.57-.76-2.41.92-3.07,2.14-2.88,5.32-1.54,11.57-3.86,17-.6,1.44-.7,3.08-1.19,4.58s-1.92,1.35-3.06,1.44c-2,.15-1.36-1.43-1.46-2.49s.19-2.63-.41-3.47c-7.82-10.92-3.75-21.85-.22-32.8,1.79-5.57.93-11.35,1.14-17,0-1.62-.76-5.49-2.28-4.74-2.65,1.31-6.86,1.64-7.43,5.65-.22,1.51.72,3.37-1.77,3.58a4.06,4.06,0,0,1-4.53-3.2c-.66-3.35-3.23-7.43,2.33-9.47a2.56,2.56,0,0,0,1.49-3c-2.73-8.33,2.15-17-1.47-25.55-4.4,1.7-4.5,5.42-4.68,9.13-.12,2.41-.13,5.08-3.55,5.19s-3.13-2.4-3.93-4.77a28.75,28.75,0,0,1-1.35-13.33c-2.81-3.14-5.85-2.75-7.12.93-.6,1.75-.14,3.54-.09,5.31.26,9-.68,17.7-4.66,26-4.51,9.43.54,18,3.14,26.81a2.37,2.37,0,0,0,2.78,1.79c2-.47,2.35-2.26,2.07-3.8-1.65-9,2.46-17.59,1.62-26.51-.07-.73,0-1.6,1.79-2.44.94,6.82,2.39,13.25-1.59,19.39-.88,1.35-2.17,2.58-1.93,4.19,1.17,7.81-1.65,15.26-2,23-.26,6.56-2.6,12.74-5.87,18.5a14.38,14.38,0,0,0-2.28,7.15C805.23,882.57,808.76,888.27,814.58,892.43Z" fill="#665247"/><path d="M897.26,940.51c-1.37-1.45-.61-3.16-.62-4.78,1.44-3.77,3.18-7.47,4.23-11.34.8-2.9.49-5.11-3.48-6.79-4.27-1.8-2.33-7-1.72-10.36.71-3.84,2.81-6.43-3.09-8.21-4.33-1.3,0-6.06-1.45-9-1.9-3.36-5.25-5.65-6.5-9.61-1-3.32-3.42-2.51-5.38-.37-1.62.52-1.85-.85-2.41-1.77-.93-2.58-.76-4.6,2.38-5.59,4.59-1.44,3.35-4.51,1.32-6.88-4.39-5.13-6.23-11.77-7.74-17.57-2.1-8.1-4.48-16.58-4-25.27.18-1.78.18-3.61-1.65-4.56-2.83-1.48-2.79-3.87-2.49-6.44,0-.27-.11-.53-.15-.8-1.4-2.27-1-5.42-3.51-7.15-4.34-.27-3,4.66-6.06,6.21-2.28-6.11-4.68-12.07-5.46-18.65,1.28.36.86,1.3.92,1.94.22,2.5,1.26,4.41,4,4.13s3.26-2.87,3.12-5c-.42-6.65-4.12-11.63-9.75-14.78-3-1.69-4.3-3.43-4.73-6.76-.72-5.48-2.83-10.66-5.08-15.74-5.08,3.07-4.11,7.93-3,12.18,2,7.89,1.61,15.78.56,23.6-.59,4.39,2.58,9-1,13.17-.6.7.19,1.47.93,1.85,1,.52,2.13.42,2.58-.62.53-1.25.46-2.77,1.05-4a5.67,5.67,0,0,1,4.79-3.22c2.18-.14,2.16,2,2.8,3.35s1,3,1.54,4.49c2.29,6,3.25,12.36,11.29,14.93,6,1.89,7.16,9.39,3.82,16.9-1.06,2.38-1,2.43,1.39,3.43,2.76,1.13,4.67,3.62,2.83,7.27a10.47,10.47,0,0,0-.45,7c.63,2.8,1.31,4.77-2.88,6.19-3.27,1.11-2.41,5.42-.3,7.63,2.47,2.59,2.88,7.08,5.08,8.37,4.72,2.78,2.83,8.35,6.43,11.12,3.38,6.17,3.06,12.92,3.14,19.59a200.06,200.06,0,0,0,2.16,27.55c.44,3,.2,5.95.5,8.89.48,4.75.42,9.89,5.55,12.75l1.8,5c.36-2.35.59-3.82.82-5.29,1.92,7.06,7.57,13.11,5.64,21.08-.12,2.12.89,2.11,2.36,1.21a1.41,1.41,0,0,1,.34-.91c2.1-.34,1.39,1.21,1.42,2.15.05,1.42-1.17,3.07.83,4.1,1.57-.41,1.52-1.49,1.16-2.69Q899.2,961.5,897.26,940.51Z" fill="#917665"/><path d="M886.78,957.83c-2.76-5.29-3.53-10.83-4.17-16.8-.82-7.64-.64-15.36-2.06-23-1.55-8.4.24-17.23-1.67-25.76-.42-1.85.41-5-3.45-3.19-3.64,3.88-6.8,7.57-4.84,13.75,1,3.11-2.69,2.27-4.69,2.37-.81,4.64,1.79,8.77,2.08,13.35.25,4-.56,5.2-4.16,6.14-7.09,1.86-11.52,11.43-8.62,18.13.85,2,1.76,4.52,4.09.78.77-1.24,2.5-1.92,3.84-2.79,1.65-1.07,2.92-.64,2.68,1.34-.64,5.37,3.27,11.45-2.79,16.11-1.36,1-1.55,3.65.38,5.31a90.64,90.64,0,0,1,8.1,29.57c1.46-4.53,5.18-7.68,5.51-12.64.31-4.57-1.06-9-.34-13.69,2.39,1,1.47,3.63,3,6Z" fill="#775e51"/><path d="M808,695c2.08-1.55,1.14-3.87,1.56-5.85-1.82-4-.24-6,3.92-6.48a12.26,12.26,0,0,0,2.94-.58c2.05-.79,3.55-2.11,3-4.46s-2.56-2.39-4.37-2c-3.53.72-7.16,1-10.61,2a9.51,9.51,0,0,1-5.84-.35c-3.77,1-8.12,1.06-8.94,6.37-.32,2.12-2.42,1.72-4,1.15-5.11-1.89-10.55-2.37-15.82-3.54-1.19-.27-2.51-.34-3.33-1.25a45.11,45.11,0,0,0-15.42-11.12c-3.19-1.42-2.66-4.66-2-7.38,1.37-5.17,2.5-10.4,3.67-15.61.56-2.52,1.15-5,.08-7.58-3.28-1.48-6.4-.69-9.49.67a31.73,31.73,0,0,0-5.32,6.19,16.2,16.2,0,0,0-1,1.34,6.26,6.26,0,0,0-1.06,2.28,5.55,5.55,0,0,0,3.51,6.12c6.08,2.8,6.43,4.83,1.94,10.69-2.22,3.76,1.08,8.05-1.28,12-1,1.73-1.44,3.43-4,3.54-4.39.18-5.53,3.09-5.38,6.86a10.43,10.43,0,0,0,.3,1.67c3,7.56,4.47,8.19,11.78,4.47,3.06-1.55,4.86-.17,6.79,1.79,2.33,2.37,4.68,4.61,7.84.83,1.52-1.81,2.84.23,4.1.76,6.87,2.92,13.54,3.65,20.17-.78,4.58-3.06,10.28-2.26,14.85,1.71,5.74,5,5.73,5,9.75-1.61A8.57,8.57,0,0,1,808,695Z" fill="#6f5b52"/><path d="M838,755.37c-1.24,4.22,1.49,7.59,2.58,11.29.62,2.1,1.48,4.08,1.15,6.33-.47,3.24.53,5,4.23,5.73,5.24,1.06,11,10.2,10.17,15.1-.22,1.34-.12,3.07-2.15,2.88s-2.85-1.43-2-3.35c.93-2.18.74-4-1.77-4.73-2-.59-3.85-.15-3.08,2.58,1.79,6.4,3.79,12.75,5.55,19.16.43,1.58,1.29,2.59,2.76,2.65s1.52-1.55,2.24-2.41c1.56-1.85.07-5.58,3.84-6a12.1,12.1,0,0,0,3.87-4.53c2.4-4.7,4.22-9.41.41-14.31a2.13,2.13,0,0,1-.28-2.74c.93-1.09,2.23-.71,3.28-.18,4.7,2.37,5-.36,4.81-3.87-.17-4-.44-7.86-2.61-11.34-1.32-2.12-2.82-4-5.72-2.19-2.12.78-2.58,4.72-5.57,3.4-3.37-1.48-5.56-4.47-7.21-7.68a2.33,2.33,0,0,1,.9-3.14,1.62,1.62,0,0,1,2.39,1c1.36,3.7,2.69,1,3.48-.2,3.2-4.9,6.21-9.92,9.28-14.9,1.13-1.83.17-3.49-.59-5.06-1.36-2.81-.66-4.92,1.88-6.58-2.37-1.9-4.57-3.22-4.93,1.45a12.13,12.13,0,0,1-.19,2.36c-.76,2.52,1.18,7.48-3.16,6.83-3.73-.56-4.28-5.22-3.32-8.89.57-2.15,1.55-4.41-.05-6.17-1.35-1.5-.5-6.08-4.17-4.23-3.11,1.56-4.68,4.92-2.36,8.49.72,1.11,2.16,1.8,2,3.41-.3,3.94.29,7.82-5.84,8.73C842.12,745.14,840.61,751.07,838,755.37Z" fill="#937a69"/><path d="M806.43,869.26c4.7-5.49,5.91-12.32,6.85-19,1.08-7.72,1.18-15.58,1.62-23.38.14-2.62,3-3.23,3.62-6a33.85,33.85,0,0,0-1.5-20.92c-7.15,4.54-2.22,11.37-4,16.64-2,6.12-1.52,12.38-.75,18.63-3.22.35-2.78-2.1-3.13-3.15-3.44-10.2-5.7-20.08.39-30.63,3.64-6.3,2.52-14.25,1.9-21.54-.45-5.33.64-6.25,5.86-4.3,3.39-.66,4.14-2.69,2.82-5.58a12.09,12.09,0,0,1-.89-6.3c-2,3.76-5.72,5.52-9,7.86-1.42,6.08-5.86,9.39-11.06,12.26-3.53,1.95-5.6,5-7.06,9-1.86,5.12-3.76,10.33-6.92,15-2.84,4.2-5.74,6.33-10.9,4-2.83-1.3-5.94-.29-8.86.12-2.08.29-2.89,1.93-2.29,4,1.95,2.11,4.73,2.94,7.16,4.23,6.91,3.69,11.8,2.35,16.56-4.07.58-.79,1-1.74,2.43-2.1,1.42,1.81.9,3.43-.43,5.14a6.06,6.06,0,0,0-.61,7.21,2,2,0,0,0,1.63.18c7.24-7.43,7.24-7.43,8.69-14.16,3.25,4.08,3.47,4.11,3.27,7.94-.3,5.62,1.46,10.83,2.73,16.15.11.48,1.39.6.71,1.25-7,6.6,0,14.74-2.49,22C801.8,862.8,806.17,865.67,806.43,869.26Z" fill="#816a5c"/><path d="M798.18,677.72c4.74,3.58,9.44-.15,14.15,0,2,0,5.26-3.11,5.95.58.62,3.31-3,2.71-5.32,2.76s-4.2.39-5.53,2.68c-1.7,2.92,1.8,3.5,2.12,5.44l.6,0,.6.06c5-1,10-2.72,15.25-1.93,2.18.32,2.33-1.76,3.25-2.9a3.74,3.74,0,0,1,3.5,2.64c1,2.43,2.64,2.54,4.7,1.41,1.88-2.06,3.77-4.12,4.45-6.94.23-1,.6-2.36,1.47-2.46,6.12-.73,7.42-7.29,12.26-9.6,3.37-1.61,3.38-5.24,1.1-6.92-4.45-3.28-6.37-8.56-10.76-11.7-2.11-1.07-2.38-2.87-2.05-4.92l-.63-.44a3.05,3.05,0,0,0-1.52.22,32.79,32.79,0,0,0-4.15,2.28c-1.44,1.06-2.27,2.78-3.85,3.65-4,2.2-8,4.92-11.92-.41a6.16,6.16,0,0,0-5.36-2.13,3,3,0,0,0-2.94,2.71c-.11,3,3.38,3.07,4.51,5.45-1.63,2.46-5.13,1.81-7,3.82-1,1-2,2.12-1.43,3.61s2.21,1.41,3.61,1.16c2.32-.42,4.63-1.51,7.73.5-4.24,4-9.2,6.39-14.53,6.46-3.59,0-6.2.39-8.23,3.27A2,2,0,0,0,798.18,677.72Z" fill="#5a4e44"/><path d="M846,650.86c3.18,3.86,3.67,9.51,9.42,11.86,2.17.88,2.92,5.07-1.43,6.07-3,.68-4.65,1.93-4.75,5.05,0,.63-.78,1.78-1.21,1.78-8.92,0-7.47,8.25-10.55,12.86,5.22-1.1,5.44-7.66,10.36-9.19,1-.31,1.64-2,2.86-.52a1.93,1.93,0,0,1-.43,3.06c-2.62,1.9-.76,7.58-6.19,7.07a13.34,13.34,0,0,0,.47,2.21c1,2.37,1.91,4.75,3,7,.91,1.87,1.75,4.79,4.47,3.62,3.06-1.31.45-3.36-.4-4.84-2.34-4,2.18-5.77,2.44-8.95,7.52,3.45,3.28,10.31,5.11,15.28.92,2.51,1.3,5.12,3,7.47,2.67,3.75,1.25,7.91.15,12.59,3.66-1.37,6.82-3.15,9.52,1.1,1.27,2,3.11.6,3.47-1.76.3-2-.7-3.42-1.69-4.92-3.92-6-.59-12.18-.54-18.28a1.23,1.23,0,0,1,.6-1c7.35-2.39,5.09-7.26,3-11.84-3-6.7-3.53-15.28-13.1-17.31-1.53-.32-2.57-2-2.92-3.59-1.47-6.47-8.53-8.5-11.35-13.94C848.93,651.11,847.11,651.15,846,650.86Z" fill="#68584d"/><path d="M808,695c-2.83,0-5.6,0-4.27,4.16a1.65,1.65,0,0,1-1.12,2.36c-1.19.3-1.65-.65-2.39-1.33-11.08-10.14-9-8.64-22-2.37-3.68,1.78-15.45-.5-19.91-4.5a8.25,8.25,0,0,0-1.25-.82c-2.59,1.08.49,4.3-2.1,4.94-2.84.71-3.38-2.08-4.83-3.61-1.94-2.05-4.39-3.79-7.44-2-7.39,4.3-7.37,4.35-10.79-2.73-2.66,3.31-1.08,6.44,1.76,7.8,4,1.94,8.32,4.66,13.34,2.69.79.12,2.26.18,2.27.36.54,6.45,5.34,6,10,6.42,1.11.09,2.39.72,3.35.13,5.22-3.23,9.67-3.06,15,.69,3.79,2.65,3.79-3,5.37-4.87,1.14-1.34-.06-3.86,1.93-6.56.16,8.27,8,2.54,10.44,6.77.51,2.88,1.06,5.74,1.85,8.56,3.07,4-1.38,8.68,1.3,12.89a43.44,43.44,0,0,0,5.07,7.07c2.3,2.44,4.43,5.63,2.49,9.87a6.49,6.49,0,0,0,1.53,7.11c1.81,1.71,3.14-.33,4.65-1.12,4-2.11,3.4,2.74,5.44,3.63.09-3.66,1.27-7.44-4.72-8.37a3.78,3.78,0,0,1-1.63-6.61c2.66-2.54,1.13-3.61,0-6.13-3-6.65-5.28-13.6.08-20.64C815.8,703.05,814,697.07,808,695Z" fill="#957a69"/><path d="M829.25,684.43c-3,3.46-6.88.59-10.35,1.27a18.93,18.93,0,0,0-8.15,3.55c1.94,4,11,9.19,13.61,7.25C828.22,693.66,832.49,690.33,829.25,684.43Z" fill="#6f5b52"/><path d="M869.8,732.32c5.32,4.56,11,.32,16.46.46,2.12.05,4.37-.3,6.57-.23.38-.24.52-.49.42-.77s-.2-.43-.31-.43c-2.78-3.09-4.32-8.7-10.5-4.11-1.89,1.41-2.74-1.33-3.65-2.71-.31.23-.83.41-.89.69C877.05,729.65,874.25,731.88,869.8,732.32Z" fill="#937a69"/><path d="M864.64,887.18c.06,3.65.13,7.29.19,10.94-2.35.07-1.35-2.38-2.77-2.92-.32.73-.58,1.48-.94,2.17-.87,1.65-1.75,3.66-.18,5,1.93,1.56,1.52-2.46,3.44-1.94a7.67,7.67,0,0,0,1.8.08C866,896,868.43,891.24,864.64,887.18Z" fill="#775e51"/><path d="M854,621.54l0-1.26c-.2,0-.53-.15-.57-.09-3,4.95-6.66,9.67-6,15.95l.71.57C852.21,632.44,853.51,627.15,854,621.54Z" fill="#68584d"/><path d="M843.92,645.94a12.73,12.73,0,0,0,4.23-9.23l-.08-.08c-4.41,1.76-6.1,4.73-4.29,9.27Z" fill="#68584d"/><path d="M860.69,982.43c-.17,4.52-.75,9.07,1.35,13.55,2.67-3.21,2.16-7.11,2.22-10.71s-1-7-.51-10.59c.23-1.58-.79-2-2.23-1.76C859.39,975.94,859.57,979.14,860.69,982.43Z" fill="#5e4b40"/><path d="M881.43,992.91c3.24-9.67,5.39-18.63,4.47-28.07C884.06,973.79,880.15,982.4,881.43,992.91Z" fill="#775e51"/><path d="M893.39,989.3c-.76-1.58-.26-3.72-2.21-4.76l-.54,8.31.88.25C892.14,991.84,892.77,990.57,893.39,989.3Z" fill="#775e51"/><path d="M663.28,813.7c3.63,1,3.51-3.36,5.8-4,5.33-1.39,10.69-2.94,16.34-1.87a2.07,2.07,0,0,0,.5-2.53c-5.54-4-11.77-2.17-17.8-2-3.58.57-6.72,3.16-10.92,1.27-1.83-.83-4.79,0-7.05.62-3.59,1-7.69,5.41-10.53,1.43a72.77,72.77,0,0,1-5.54-9.13c-2.5-5-6.28-9.8-9.54-14.69a2.56,2.56,0,0,0-3.23-.84c-1.51.62-1.11,1.93-.94,3.06.51,3.29-1.11,5-4.26,5-3.35,0-5.12,3-8,3.74a3,3,0,0,0-1.14,1.21c.61,4,1.38,8-.15,12.09-1.27,3.38,1.43,6.36,1.93,10.85-6.39-3.38-11.14,1.38-16.74,1.91-2.47.68-4.91,1.4-4.46,4.75,6.28,5.21,12.78,1.8,18.58-.48,3.7-1.46,8.53-2.45,10.79-6.13,2.61-4.27-2-7.69-2.62-11.66a4.42,4.42,0,0,1,1-4.32c2.25,5.36,2.75,10.67,4.07,15.75,1.95,7.49,5.87,9.47,13.28,6.31,2.34-1,4.79-.2,7-1.12l1.13-.07a117.63,117.63,0,0,0,9.88-6.65C654.44,813.29,658.57,812.18,663.28,813.7Z" fill="#856e61"/><path d="M639.67,823c-3-.18-5.73-.5-8.73,1-3.93,1.91-8.6-.94-9.63-5.26-1.22-5.16-2.32-10.35-3.48-15.52-.38-1.71-.53-4.07-2.67-4.09-2.54,0-2.79,2.77-3,4.43-.47,3.22,1.26,6.1,3,8.75,2.83,4.34.74,6.51-3.42,7.54-1.76.44-3.27.73-4.73,2.09-5.84,5.43-12.65,4.67-19.58,2.5l-.78-.11c-2.86.29-5.7.77-8.56,1.19a5.77,5.77,0,0,0-1.41.8c-4.27,2-8.25-.45-12.36-.79l-4.75-.42c-1.7-.83-1.84-2.33-1.94-4s-.19-3.91-1.38-5c-7.45-7-4.66-16.91-7.84-25.08,0-.37,0-.74,0-1.11a1.45,1.45,0,0,0-2.18-.36l-.26.22q-.67,11.85-1.36,23.69c3,4.06,3.36,9.87,9.06,12.36,2,.89,3.57,2.77,6.21,3,3.8.37,6.29,2.09,3.75,6.3-1.73,2.89-.15,3.47,2.33,3.52,4.36.08,8.27-1.53,12.07-3.36,10.08-4.86,20.42-8.81,31.79-9.32,1.8-.08,3.91-.42,5.38.32C624.17,830.86,631.77,826.05,639.67,823Z" fill="#635141"/><path d="M663.28,813.7c-4.6-3.5-9.7-2.93-13.59,1.44-2.63,3-7.68,3.27-8.89,7.81,3.27.58,5.89-.8,8-2.94,3.34-3.35,7.32-4.45,11.9-4.06Z" fill="#624f43"/><path d="M814.33,652.45a2.2,2.2,0,0,1,2.59-2.23c1.21-1,2.82-3.11,3.88-2.21,6.15,5.19,12.09.13,18.08.08a3.88,3.88,0,0,0,3.77-2.23c-1.08-10.94,9.55-18,9.8-28.53,0-2.26,1.54-4.52-.19-6.74,1.42-9.78-1.43-18.52-6.7-26.67-8.58,2.87-11.54-5-16.61-8.64-2.9-2.08-5.14-4.73-9.15-5-2.09-.15-4.16-1.32-6.11-2.29-2.44-1.21-4.3-5-7-3.91a55.63,55.63,0,0,0-11.81,5.77c-3.88,2.68-.44,6.75-2.53,9.6a3.57,3.57,0,0,0-.92,4.2,1.48,1.48,0,0,0,1.42.82c2.35-1.12,3-3.58,4.46-5.46,2.85-3.8,6.45-3.84,7.42.6,2.33,10.77,11.11,9,18.4,10.29,1.78.31,4,0,4.91-1.67,3-5.69,5.3-1.52,6.32.81,3.32,7.6,4.5,15.58,2,23.74a3.21,3.21,0,0,1-1.24,2c-5.95,2.83-6,8.15-6.32,13.57-.28,4.75-9.39,11.55-16,12.25-1.79.19-3.95-.41-5.25.87-5.57,5.48-10.94,2.94-16.39,0a3.42,3.42,0,0,0-2.91-.31c-1.7,3.2.64,5.19,2.77,6.3,5.41,2.84,7,7.06,6.09,12.68.94,2.32,3.43,4.16,4.87,2.3C805.39,658,810.75,656.37,814.33,652.45Z" fill="#2a2421"/><path d="M760.42,604.89l10.8.7a4,4,0,0,0,1.63-2.37,24,24,0,0,0,.31-8.36c-1.42-3-4.19-5.83-1.77-9.56,0-5.74,2.53-11,2.77-16.79-5.42,8.23-4.91,18.37-9.63,28.48.9-12.22,3.93-22.43,7-32.66s8.6-19.45,11.23-29.92c-2.09.13-2.4,1.75-2.86,2.85-4.71,11.25-9.75,22.4-13.2,34.11-.92,3.11-.39,6.63-1.26,9.76-.48,1.7.71,5.69-3.79,4.57-.23-.06-1,.86-1,1.29C761,593,757.8,598.9,760.42,604.89Z" fill="#67503d"/><path d="M792,584.19l.39-4.74c-2.58-2.35-2-5.39-1.92-8.35.07-2.57-1.16-4.12-3.67-2.5-6.2,4-12.49,8.15-11.75,16.92,2.32,2.76-.42,5.14-.61,7.72,0,2.15.43,4.06,2.93,4.7,2-2,3.08-5.42,7-4.37A56.11,56.11,0,0,0,792,584.19Z" fill="#504237"/><path d="M786.59,501.44c-4.19-1.39-5.35-4.72-5.71-8.57a10.77,10.77,0,0,1,.6-7.37c.59-1.44.61-2.66-1.16-3.27-3.59-2.28-7.76-3.09-11.67-4.56a6,6,0,0,0-1.19,7.17c3.09,6.38,3.31,13.4,5.09,20.05a7.51,7.51,0,0,0,.66,1.64c4.49,1.87,7,5.91,10.09,9.25a4.72,4.72,0,0,0,2.7-3.39C784.4,511.14,779.2,505.73,786.59,501.44Z" fill="#b79a7a"/><path d="M774.1,506.66c0-.39,0-.77,0-1.15a17.29,17.29,0,0,1-4.4-9.84c-.31-2.42-.69-5.53-4.14-6.26.2,4.76-1.91,9.57.28,14.3a2.21,2.21,0,0,0,.62-1.87c-.26,1.28,1.15,3-.67,4.26-1.1,5.71-.08,11.43-.12,17.15,0,2.24.67,4.84-1.52,6.69l0,0c-1,1.54-1.71,3,.95,3.64,1.82-6.89,8.61-9.06,13.13-13.4C775.63,516.05,773.14,511.85,774.1,506.66Z" fill="#7c5f48"/><path d="M803.3,540.7l1.39-3.57c-2.89-3.68,3.75-6,1.33-9.69-2.46.62-1.85,3.23-3.06,4.66-1,1.15-.13,5.23-3.7,2.16a4.71,4.71,0,0,0-1.46,1.51c-1.15,2.71-2.11,5.5-3.24,8.22-.39,1-.47,2.7,0,2.52,4.17-1.58,5.91,5.61,10.85,2.46,2.6-1.66,5.55.92,7.6,3.23,1.71,1.92,3.24,4.15,6.34,3.84-3.89-4.79-7.35-9.84-14.81-10C802,546,798.74,543.65,803.3,540.7Z" fill="#634832"/><path d="M808.85,531.57c4.78-3.53,6-9.34,9.26-13.87.14-2.61,3.67-3.94,2.73-7-.71-.78.35-2.92-2-2.46a4.85,4.85,0,0,1-.29,1.74c-.91,1.52-.93.15-1.11-.41-.62-1.88-1.17-3.84-2.78-5.15-1.35-1.11-1.53.17-1.8,1.08C814.66,514.69,813,523.32,808.85,531.57Z" fill="#7d5e3f"/><path d="M774.1,506.66c-1.34,1.86-5.25,3.1-.68,6.05,2.29,1.48-.82,3.81-1,6.2,1.67,1.13,4.67-2,5.75,1.31a16.07,16.07,0,0,0,5.12-4.44C782,511,780.35,506.58,774.1,506.66Z" fill="#95775c"/><path d="M783.71,552.65c3.73-5.32,8.62-10.07,7.63-18.32C788.69,541.15,784.63,546.26,783.71,552.65Z" fill="#7a5d45"/><path d="M775.74,592.74c.4-2.47,3.18-5.16-.7-7.22-.37,1.84.53,4.42-2.73,4.62a1.89,1.89,0,0,0-.24,2.62A2.91,2.91,0,0,0,775.74,592.74Z" fill="#3e332e"/><path d="M765.05,533.62c-1.29-1-1-2.34-.95-3.64-2.21.81-3.09,2.29-2.13,4.51.35.81.54,2.15,1.77,1.94C765.28,536.17,764.82,534.66,765.05,533.62Z" fill="#604229"/><path d="M772.18,592.5c0-.78.09-1.57.13-2.36-1.69-1.36-.85-3.18-.92-4.84-1.45,2.93-4.52,6,.63,8.43a.74.74,0,0,0,.41-.78C772.36,592.66,772.28,592.51,772.18,592.5Z" fill="#504237"/><path d="M832.06,340.79c-2,6.94-1.9,14.15-2.67,21.25a129.87,129.87,0,0,0-8,26c-1.26,6-3.49,11.74-5,17.67-.35,1.31-1.43,1.82-2.26,2.61-5.43,11.55-9.76,23.46-11.76,35.26-.37-2,1.42-4.9-.16-7.71-1.31-1.23-2.06-.15-2.88.68-2,4.29-3.35,8.78-3.32,12.25a26.11,26.11,0,0,1,3.67-12.69c.46-1.5,1.08-3.06-1.46-3.22-3.9,1.05-4.22,6.74-9,6.7-2.27,2.52-1.59,5.61-1.32,8.43.58,6.26-2.06,8.56-7.78,10.39-5,1.61-8.47-.34-13.6-3.49,1.6,3.74,2.51,5.79,3.35,7.85.36.87,1,1.95-.19,2.56a2.35,2.35,0,0,1-2.17-.23c-4.05-5.41-9.05-1.68-13.67-1.48,1.93,4.6,6.38,4.32,10.25,5,1.3.24,2.77-.46,3.92.69,6.15,2.78,12.24,5.73,18.91,7.16,7.41-.12,13.65,3.39,20.07,6.3,2-3.42-.67-6-1.73-8.79-2.68-7-2.53-8.9,3.43-13.66,2.28-1.81,1.22-4.45,2.79-6.21a18.55,18.55,0,0,0,5.67-8.58c1.89-6.86,7.16-9.14,13.76-9.69,1.64-.14,3.61-.46,4.31-3.12-2.57-.1-4.93-1.1-7.34-.16-2.14.84-2.47-.46-2.68-1.92-.25-1.79.21-1.92,2.19-1.63,1.17.17,4.44-1.68,1.51-4.34-2.19-2,1-3.45.58-5.26,2.59-9.94,7.22-19.21,9.62-29.24,1-4.08,2-8.05,1.72-12.25-.09-1.15-.21-2.65-1.54-2.95-1.79-.42-2.28,1.27-2.76,2.46a52.24,52.24,0,0,0-3.46,13.8,52.85,52.85,0,0,1-6.12,18.87c2.88-6.05,4.33-12.38,5.72-19,3-14.11,3.82-28.52,7.1-42.57a17.15,17.15,0,0,0-3.23-14.89c-4.37,3.8-.91,9-2.42,12.83C833.45,344.88,836,341.79,832.06,340.79Z" fill="#a1815d"/><path d="M759.18,474.65c-20.39-5.48-41.59-5.91-62.24-9.73-15.53-2.87-31.32-4.34-46.6-8.65-5.5-1.55-11.4-1.76-17.12-2.59-1.86-.88-4-1.71-5.32.37-1.44,2.3.31,4.1,2,5.6s3.75,3.3,6.14,3.61c7.67,1,14.67,5.41,22.87,4,3.59-.63,7.14.72,10.27,2.72,2.13,1.07,4.12,2.52,6.68,2.47,5.54-2.59,10,1.18,14.77,2.68,2.85.9,5.21,2.61,8.48,1.09,2.35-1.09,4.6.82,6.91,1.32s5,2.1,6.7-1.4c.63-1.32,2.14-1,3.21-.54,8.23,3.75,17.6,2.15,26,5.37a5.33,5.33,0,0,0,4.13-.35,11.48,11.48,0,0,1,10.9-.29c1.53.74,3.75.74,4.76-1.25C762.89,476.61,761,475.56,759.18,474.65Z" fill="#c5a986"/><path d="M759.18,474.65c.55,1.34,3.05,2.13,1.62,3.94a3.16,3.16,0,0,1-4.8,0c-2.08-2.12-4.49-2.37-6.52-1-5.69,3.8-11.11,1.13-16.61-.12-3.84-.87-7.56-2.59-11.62-.88-1.46.62-2,.43-2.7-1.57-1.37-4-5.16-.25-7.91-1.32-1.39-.54,1.65,2-.28,3.5-2.13-.69-4.69-1.68-7.33-2.31-2-.47-4.32-3.28-6,.59-.37.86-1.51.55-2.11.1-3.89-2.92-9.24-2.73-13-5.42s-4.69-.22-6.36,1.83q-.54.36-.39.78c.09.27.2.42.31.42,4.58,2,9.14,4,13.74,5.93,2.24.94,4.51,1.74,6.77-.19,1.29-1.1,2.53-.42,3.81.39,5.34,3.36,11.55,4.08,17.46,5.79.57-2.63-3-1.89-2.91-4.66,12.85,4.21,26.4,3.06,38.89,7.61,1.9.69,3.47,1.66,2.43-1.92a3.85,3.85,0,0,1,3.83-4.18c2.53.05,2.77-1.64,3-3.56C762.82,475.79,761.72,474.64,759.18,474.65Z" fill="#a1805d"/><path d="M669.71,469.17c-4.13-4-9.1-4.36-14.42-3.22-.37.08-.81.58-1,.47-7.44-3.52-16.57-2.12-23.28-7.77-1.22-1-3-1.79-2.42-3.62.76-2.37,3-1.09,4.65-1.35-7.67-3.33-16.28-2.48-24.08-5.22l-11.71-4.15c-1.23-.83-2.62-1.37-3.53.15-.72,1.21.44,2.15,1.26,3,1.17,1.19,2.93,1.1,4.29,1.89,5.56,5.82,13.57,7.09,20.44,10.43a166,166,0,0,0,26.79,10.31c6.29-1.31,12.08,1.34,18.09,2.23l1.18.29A21.45,21.45,0,0,0,669.71,469.17Z" fill="#a88763"/><path d="M647.34,442.48a197.94,197.94,0,0,0-25.47-11.39c-1.91,2.54,2.11,3,.87,4.24-2.11,2.13-4.27-1.39-6.59-.48a2.22,2.22,0,0,1-1,.66c-2.28.68-6.27-.65-6.29,2.75,0,2.93,4.14.59,5.83,2.23,13.12,2.4,26.34,4.27,38.74,9.65A93.68,93.68,0,0,0,696,457.61c-.63-1.4-.64-2.45,1.38-2.33-.83-3.13-2.74-2.59-4.85-1.38-1,1.28-2.45.78-3.73.93-7.87.4-15.24-2.34-22.69-4-6.35-1.44-12.32-4.53-18.51-6.74C646.05,443.5,646.32,443.19,647.34,442.48Z" fill="#9a7d61"/><path d="M768,469.32c-4.43-2.6-9.87-2.78-14.17-5.71l-7.36-1.49c-1.75,1.66-3.82.65-5.75.63-9.71-.12-19.42-.29-29.21.62,8,.89,16,2.12,24,2.55a96.46,96.46,0,0,1,17.79,2.82C758.28,470,763,471.49,768,469.32Z" fill="#87684b"/><path d="M607.9,434c-6.65-6.64-16.09-6.47-25.36-9.09,3.08-2.55,5.67-.82,8.4-2-5.65-1.36-10.24-4.48-16.09-1.8-1.88.87-4.94-.78-7.46-1.28,5.15,6.37,13,7.56,20.16,9.77,6.21,1.91,12.65,3.09,19,4.59A.91.91,0,0,0,607.9,434Z" fill="#9f8468"/><path d="M807.1,482.55c-5.58-5.76-12.4-7.5-20.21-6.07,9.67,3.2,17.85,8.64,25.37,15.41,4.13,3.72,2.12,9.31,5.39,13.09.73.84.84,2.19,1.23,3.31l2,2.46c.18-1.16.36-2.32.53-3.48,0-5-3-9.62-2.14-14.8a1.9,1.9,0,0,0-1.18-1.94C813.41,489.16,811.63,484,807.1,482.55Z" fill="#876545"/><path d="M765.53,489.41c1.62,3.23,3.44,6.31,3,10.23-.37,3.66,2.95,4.55,5.5,5.87-1.58-7-1.26-14.41-5.26-20.87-1.27-2.05-.21-4.63-.16-7-3.62-2-5.54-1.31-4.47,3C764.88,483.59,763.74,486.72,765.53,489.41Z" fill="#95775c"/><path d="M599.45,449.33c-.65-1.59-2.35-1.9-3.52-2.86a8.35,8.35,0,0,1-1.28-1.73l2.78-.43c-5.28-3.43-11.44-4.33-17.43-6C586.28,442.48,590.13,450.63,599.45,449.33Z" fill="#816146"/><path d="M607.9,434l-1.37.17c-2.36,3.84-6.52-1.61-9.78,2.72,6.8-.53,11.64,4.24,18,3.6-1.19-1.85-3.83-.45-5-2,.51-4.2,6.65,1.89,6.42-3.61Z" fill="#765d48"/><path d="M780.32,482.23c.6,3.52-3.32,7.28.56,10.64,1.56-1.58,1.82-4.35,5.39-4,1.71.15,2.59-2.38.41-3.79C784.74,483.8,782.92,482.1,780.32,482.23Z" fill="#85684c"/><path d="M664.77,472.3c-3.24-1.32-6.42-2.82-9.74-3.91a7.84,7.84,0,0,0-8.35,1.68A33.43,33.43,0,0,0,664.77,472.3Z" fill="#8b684b"/><path d="M669.71,469.17c-2.79-.51-3.86.83-3.76,3.42,3.07,2.3,6.07,5.82,9.6.56,0-.4.05-.8.08-1.21A13.81,13.81,0,0,0,669.71,469.17Z" fill="#8b684b"/><path d="M566.22,419.71c-3.59-2.48-7.06-5.21-11.7-5.52C556,420.91,561.75,419,566.22,419.71Z" fill="#6a5545"/><path d="M765.76,506.1c1.27.7,2.37.9,2.12-1.08s-.69-3.82-1.08-5.89c-1.51,1.32-.54,3.12-1,4.58C765.79,504.51,765.78,505.3,765.76,506.1Z" fill="#95775c"/><path d="M685.65,805.56c-.08.77-.15,1.54-.23,2.31,4.72.42,8.21-3.08,12.46-3.86,7.69-1.42,10.74-6.88,13.08-13.22.73-2,2-3.07,4.13-2.06s.68,2.12,0,3.33c-2.34,4.1.78,7,3.09,9.3,2.13,2.11,4.29.15,5.44-2.29s2.63-4.89,5.85-3.32c2.92,1.42,1.83,3.22.54,5.7-1.08,2.08-2.82,7,3.83,4.68,3.2-1.12,5.24,1.58,5.92,4.41,1.42,5.94,5.18,8.09,11.15,8.83,5.21.66,10.28,1.47,15.6,1.68,4.26.18,9.67,3.62,11.7,8s-3.74,4.78-6,7l1.33.16a3.84,3.84,0,0,0,3.38,1.07c4.39-3.11,10.64-4.31,11.7-10.9-1.6-4.42,4.19-6.8,3.16-11.12-.34-1.43.75-3.44-1.39-4-1.9-.54-2.73,1.09-3.68,2.41-6.42,9-8.79,9.41-18.48,3.53-1.43-.86-2.77-1.62-4.45-.72a26.28,26.28,0,0,0-3-1.11c-4.61-.48-3.23-5.6-6-7.52-5-6.62-5.16-13.77-2.44-21.24.2-.55.85-1.41,1.1-1.28,5,2.57,9.52-4,14.66-.64,2.75,1.78,4.67.4,5.09-2.63a7.4,7.4,0,0,0-3.4-7.74c-2.95-1.85-6.21-3-9.74-1.71-1.86.65-1.86,2.39-2,4-.08,1-.07,2.06-1.35,2.33a1.57,1.57,0,0,1-1.55-.72,1.66,1.66,0,0,1,.55-2.55c2.89-1.87,3.4-4.23,1.73-7.13s-4.93-4.05-8-4.75c-2.32-.53-3.07,1.63-3.23,3.43-.33,3.67-1.83,6.27-5.39,7.88s-4.17,4.57-2.68,8.44c-7.24.15-12.93,2.33-15.17,9.48-1.67-1-.9-2.29-1.08-3.36-.51-2.89-.32-6.58-4-7.24-3.4-.61-7.32.49-9,3.56s-3.51,3.57-6.54,2.3c-3.21-1.33-6.47-2.61-8.8,1.64-.75,1.38-2.13.3-3.23-.07-2.17-.75-4-.67-4.68,2,0,.39-.15.88.07,1.15C689.24,797.16,688.71,801.36,685.65,805.56Z" fill="#675042"/><path d="M690.46,411.92c-5.74.6-6.83-4.43-7.46-7.64-.83-4.3-2.15-8.67-1.75-13.33.38-4.29-3.24-7.51-5.37-11-3.28-5.36-6.81-10.56-9.53-16.3a32.76,32.76,0,0,0,5.46,16.08c3.7,8.57,4.18,17.82,5.59,26.85.59,3.77,2.72,7.56.65,11.5-.3,2.75,1.74,4.74,2.56,7.12.55,1.6,2,4.73,4.46,3,.86-.6,4.29-4,.54-6.71-1.33-1-2.25-2.83-.3-5.18,1,3.61,5.42,3.11,7,6.37q-.93-5.4-1.87-10.81Z" fill="#bda484"/><path d="M661.67,407.73c-1.78.28-2.36-2.62-4-1.75-1.32.69-1.32,2.76-.69,3.75,3.91,6.16-1,13.26,2.77,19.12-2,1.34-2.54-.15-3.32-.87-2.43-2.24-4.93,0-6.17.94-1.79,1.41,1.11,2.33,2,3.32,2.1,2.23,3.58,5.46,7.5,5.17.27-1.29.71-2.28,2.4-1.64,1.42.55,3.17,1.72,4.14-.18.32-.62-1.12-2.11-1.92-3.48l4.58-.35c-.22-.71-.23-1.38-.57-1.7a14.12,14.12,0,0,1-4.7-9.25c-.12-1.25-1.79-2.58-.14-3.7,1.45-1,2.07,1.77,4.1,1C665.73,414.55,664.35,410.81,661.67,407.73Z" fill="#b59b7d"/><path d="M639.1,325.13c1.67,7.37,7,13.32,8.37,20.79l2.08,3.78c3.38,4.31,3.06,9.59,4,14.55h0c1.41,5.36,2.06,10.95,5,15.86,1.9-1,4-.6,3.11-4.7-2-8.6-3.08-17.29-7.54-25.19-3.75-6.64-7-13.53-10.57-20.28A11.75,11.75,0,0,0,639.1,325.13Z" fill="#b9a184"/><path d="M678.05,418.1c2.84-3.65,1.41-7.4.72-11.37-1.33-7.62-2.13-15.32-4.39-22.76-.49-1.62,0-3.81-2.57-4.22Z" fill="#987c5e"/><path d="M806.43,869.26c.47-2.72,3.56-6.18-2.11-7.17-.25,0-.66-.76-.56-1,3.38-6.55-1.39-13.41.78-20,.37-1.12.49-1.72,2-2.27,2.52-.93,2.37-1.42-.37-2.84-.52-.26-1.25-.3-1.1-1,.83-3.69-2-7.06-1.57-10.27.75-6.06-1.27-11.06-3.78-16.16a1.86,1.86,0,0,0-2.14,1.64c-1,5.38-1.88,10.81-7.54,13.78-.4.21-.22,1.5-.3,2.29,5.88,3.64,5.49-3.82,9.71-5.29-2.25,10-5.68,19-7.85,28.19-1.52-4-3.8-4.25-6.56-1.27-1.48,1.59-2.39,3.63-3.62,5.42-.87,1.27-.76-.73-1.36-.39a1.74,1.74,0,0,0-1.29.9,4.38,4.38,0,0,0-.34,2.31c1.06,7.67,3.8,9,11.26,4.84-.34,2.31-.63,4.35-.73,6.39a3.42,3.42,0,0,0,1.69,3.49c5.57,3.26,6.71,5.78,5.31,11.76-.6,2.56-.93,5.05.64,7.41.38.07.76.13,1.15.17,2.89-3.32,5.89-.77,8.86-.17,3.12-1.89,2.11-3.89-.16-5.43-3.45-2.34-4-5-1.74-8.4Z" fill="#978578"/><path d="M796.58,890.08a54,54,0,0,1,1.74-9.82c1.23-4.23-2.77-7.94-3.41-12.19,0-.09-.33-.15-.52-.19-4.76-.84-4.75-.84-3.08-6.75.25-.9,1.13-1.71.36-2.92a6.06,6.06,0,0,0-1.5.46c-8.87,5.61-9.32,5.38-10.71-5.39A29.44,29.44,0,0,1,773,840.83c-4.44,2.11-5.7,5-1.44,8.32,2.88,2.25,4.11,5.15,5.17,8.37,1.37,4.18,3.49,7.65,8.82,7.1,1.73-.18,3.34.63,2.59,2.11-1.7,3.34,1.48,6.26.65,8.93C786.39,883.37,791.8,886.44,796.58,890.08Z" fill="#7c6a5e"/><path d="M804.69,876.25c-5,4.66-5,5.43.82,9.43,1.9,1.31,2.85,2.06.82,3.85-2,1.63-4.9,1.8-6.29,4.23-.48,2.07.41,3.86,1.1,5.72,1.23,3.34,2.28,7.06,5.65,1.34.44-.74.85-1.41,1.77-1.09,1.18.4,1.21,1.32.93,2.4-.77,2.88.8,5.35,1.54,8,1.35-.06,2.76-.7,2.39-2-1.54-5.4,1.59-10.39,1.16-15.65C811.74,886.77,806.56,882.48,804.69,876.25Z" fill="#7c6a5e"/><path d="M773,840.83c-.94,5.7.6,10.16,6.45,12.45l.23-.16c2.07-3.49,3-6.88-1.42-9.32-3.66-2,.14-5-1.23-7.32l-3.53-.27C773.35,837.75,773.18,839.29,773,840.83Z" fill="#978578"/><path d="M800,893.76c2.28-1.14,6-.29,6.29-4.23-3.06-1.94-6.35-6.63-8.6.72Z" fill="#978679"/><path d="M836.2,333.86c0,6,5,11.9.2,18.23-1.23,1.59-.75,4.64-.62,7,.52,10.06-3.9,19.36-4.63,29.11-.62,8.2-1.75,16.12-5,23.76,7.72-10.92,8.47-24.12,12.78-36.12.54,9.94-3,19-6,28.1-1.67,5-5.45,9.64-3.52,15.48,6.17-2.9,9.19-8.1,10.18-14.42.3-1.92,3.36-4.12-.71-6.63-1.35-.83.43-6.88,5.6-6.69,2.41-4.82,6.24-9.33,3.42-15.28,1.72-11,1-22.26,3.4-33.21,1-3.05-.17-3.3-2.26-1.54-3.44,2.88-4,.45-4.26-2.16-.32-3.31.28-6.62.44-9.93.44-3.76-1.51-6.71-3.13-9.88-1.29-2.52-3.19-5.06-2.33-8.24,1.19-2.46,3-5.07.34-7.47-1.83-1.68-4-1.14-5.84.54-2.31,4.82-3.82,9.75-2,15.11C833.93,324.27,833.93,329.37,836.2,333.86Z" fill="#b39574"/><path d="M834.37,305.13c1.85-.62,4-2,5.44.06,1.76,2.58-1.12,4.17-2.18,6.13,6,5.87,8.37,13,7.88,21.08-.56,1-1.45,0-.68.22.35.11.45,0,.52-.3.37-1.45.58-2.78-1.62-2.75-.2,2.93-.22,5.87-.64,8.77s.47,6,2.77,7.26c2.68,1.43,2.92-2.31,4.39-3.61a2.09,2.09,0,0,1,.44-.25c.21.49.43,1,.65,1.45,2.43-2.29,2.09-5.05,1.88-8.06-.16-2.38-1.79-5,.3-7.32-6.54-3.23-2.73-9.3-3.82-14-1-4.36,1.37-9.08-2.21-13.46-1.16-1.42.65-5.15,1-7.83.18-1.37.33-3.08-1.25-3.62s-1.58,1.45-2.4,2c-3.37,2.33-1.65-1.08-2.16-2-6.7-2.15-6.7-2.15-9.95,3.59-3.69-2.86-1.35-5.29.5-7.75-2.31.48-6.71-1.78-4.53,4.18.72,1.95-1.81.32-2.87.09a2,2,0,0,0-1.77-.52c-1.59.66-1.82,2-1.52,3.4,1.07,5.14,4,9.27,7.53,13A3,3,0,0,0,834.37,305.13Z" fill="#bda486"/><path d="M807.1,482.55c3.32,2.83,4.19,8.33,10,8.57,1.39.06,1.07,1.61.87,2.88-.77,4.86.93,9.18,3.43,13.27,2.89-6.52,2.56-13.63,1.82-20.22-.27-2.42-3.22-8.41-9.36-7.51-2.12.31-3.23-1.51-3.89-3.7-1.51-5-2-9.79.35-14.78,1-2,.81-4.61,1.16-6.94a16.93,16.93,0,0,1-6.22,6.37c-4.78,2.7-3.75,7.65-2.37,12C804,475.92,805.67,479.19,807.1,482.55Z" fill="#b1926c"/><path d="M847.94,376.4c.9,5.53-4.29,9.75-3.42,15.28,0,.4-.09.79-.08,1.18.06,2.25-3.46,5.62.46,6.36,2.21.42,6.17-1.25,7.7-4.48C854.75,390.16,852.2,380.2,847.94,376.4Z" fill="#cdb496"/><path d="M892.94,731.35c0,.4-.07.8-.11,1.2,1.39.13,1.68,6.1,4.19.67.92-2,2.8,0,4.24-.11,1.09-.83,2.79-1.46,3.17-2.54,2.44-6.81,5.77-5.15,10.15-1.72,2.67,2.09,4.39,5.24,8.63,5.84,7.46,1,9.72-.81,7.75-8a16.53,16.53,0,0,0-1.21-2.6,8.7,8.7,0,0,1-2.44,5.88c-1.42,1.63-2.78,2.52-5,.59-3.41-3-7.23-5.5-10.76-8.36-1.35-1.1-3-2.39-3.94-.49C904.55,727.85,897.4,727.55,892.94,731.35Z" fill="#8b7362"/><path d="M976.23,791.49c.45-1.18.89-2.37,1.34-3.56-3.09-5.27-8.13-8.39-13.67-9.95s-7.43-5.29-7.69-10c-.25-4.35-.87-8.13-4.36-11.18a6.29,6.29,0,0,1-2-5.43c.42-3.83,0-7-4.27-8.72-1.88-.72-.69-2.87-1.18-4.28-1-2.75-1.39-5.84-4.18-7.65-4.39,7.63.2,12.55,4.85,18.1,3.43,4.08,4.08,9.73,3.49,15.12-.15,1.36-1,2.86,0,3.9,4,3.92,5.9,11.06,10.08,12.54,5.51,2,9,4,11.47,9C970.82,790.79,974.13,790.85,976.23,791.49Z" fill="#8b7362"/><path d="M842.34,276.94c.11,3.61-1.7,7.29.4,10.82.29-1.31.14-3.36,1-3.83C850.1,280.18,844.87,278.86,842.34,276.94Z" fill="#bda486"/><path d="M636,710.5c-2.38,10.41-6.31,20.07-14.71,27.25-2,1.73-3.6,3-2.4,5.79a3.7,3.7,0,0,1-.58,3.93c-1.66,1.93-3.21,4.58-1.36,6.3s3.36-2.07,5.53-2.24c3.81.32,4.47-3.32,6.62-5.09,3.69-3.51,6.46-7.5,7-12.72.32-3.12,2.44-5,5.24-5.92,4.1-1.32,7.66-3.2,10.46-6.57,1.85-2.24,3.4-2,3.62,1.23.14,2,.06,4,1.22,5.72,1.31,2,3.11,3.17,5.55,2.81,1.84-.27,3.59-.94,3-3.44-4.79-3.43-5.47-7.74-1.94-12.52A145.6,145.6,0,0,0,673,699.51c.95-3,.88-6.2,1.13-9.32.78-10.08,8.08-13.79,17.54-8.89,2.79.68,6.1,2.81,6.84-2.32a8.39,8.39,0,0,0-5.69-4c-4.74-.68-6-3-4.78-7.31a4.62,4.62,0,0,0-.21-2.34c-.17-.22-.35-.43-.53-.64-3.28.74-5.14,2.89-7.12,5.52s-4.14,5.36-8,5.56a88.37,88.37,0,0,0-14.54,31,15.06,15.06,0,0,1-11.59,11.61,6.36,6.36,0,0,0-2.2.79c-1.65,1.11-2.25,4.51-5.07,2.91-2-1.16-.49-3.65-.8-5.51C637.64,714.45,637.6,712.23,636,710.5Z" fill="#7d6c66"/><path d="M792,584.19c-4.08,1.8-6,5.37-7.79,9.09-2,6.26-.13,12.42.06,18.27-3.58-3-3.58-3-4-7.54-.16-1.92.3-4-1.7-5.4-3,.57-4.83,2.91-7.1,4.59l-.27,2.39c.67,4.18-2.3,8.2-.1,12.64.87,1.75-1.84,3.57-3.37,5.07a3.57,3.57,0,0,0-3.63,2c-2,4.51,2,7.86,2.36,11.91,1.13,1,2.29.5,3.3-.12,2.49-1.52,3.65-.32,4.48,1.9,1.51,4.09,4.71,7.32,5.94,11.63a5.51,5.51,0,0,0,4.78,4c6.39-3.7,8.31,2.19,11.55,5.24a1.49,1.49,0,0,0,1.56-.1c2.87-6.43-.11-10.32-5.75-13.19-2.14-1.09-4-2.58-3.93-5.34,2.94-3.36,2.11-7.4,1.94-11.26-.31-7.24-1.65-14.49.53-21.67a1.65,1.65,0,0,0,.08-.58c-1.61-8-2.38-15.87,1.19-23.57Z" fill="#3e332e"/><path d="M765.18,625.51l2.57-2.21c.35-2.64-.5-5-3-5.83-4.33-1.42-7-5.23-11.93-6.37-4.16-1-6.81-1.83-9.79,1.54-1.27,1.44-2.73,3-5,2.81h0c0,4.77-1.06,9.18-4.55,12.75-.46,3.85,1.52,6.35,4.79,8a36.2,36.2,0,0,1,5.46,3.5c2.65-1.57,6.26,1.16,8.58-1.87a3.62,3.62,0,0,0,3.27-2.33C757.06,630.53,760.85,627.8,765.18,625.51Z" fill="#7b685c"/><path d="M737.94,615.45c2-3,.55-5.6-2.28-5.76-6.65-.38-13.85-3.36-18.42,5.76-3,5.91-10.67,8-16.19,11.89a18.75,18.75,0,0,0-3.71,2.92c-2.2,2.62-2.52,5,1.67,6,4.45,1.09,8.9,2.14,13.32,3.33,2,.54,3.19-.52,4.06-1.8A94.53,94.53,0,0,1,738,615.45Z" fill="#4a3f40"/><path d="M747,699.59c-3-.87-5.95-2.24-9-2.48-5.47-.43-6.53-3.53-6.1-8v0c-2.16-3.89-3-6.83,2.66-9.11,4.51-1.81,4-10-.73-13-3.51-2.24-5.62-5.19-4.26-8.77,1.73-4.52,1.17-11.21,8.71-11.7l0,0c2.21-4.71-.5-7.7-4.12-9.75-3.24-1.84-6.87-3.37-10.87-1.9a7,7,0,0,1-2.84,5.75c-3.4,2.44-4.07,6.18-4.85,9.86,3.18,2.41,7.78,4,5.75,9.48-.09,1.08-.16,2.17-.25,3.25-.15,2.48-1.35,5.52,2,6.71,4.16,1.5,3.37,4,2.35,7.07-3,9.16.49,17,5.48,24.43,2.13,1,4.25.14,7.06-.09-3.49,2.31-3.76,5.13-2.56,8.29,4.33-1.39,9-2.21,12.88-4.38C750.75,703.86,747.69,701.49,747,699.59Z" fill="#a18e87"/><path d="M716.17,651.05l4.35-10.47c-4.55,2-9.19,3.44-14.32,3.27-1.58-.05-2.9.18-4.49-.63-4.28-2.19-8.47-2.78-12.32,1.31-2.45,2.6-6.14,3.42-9.3,5a4,4,0,0,0-2.52,3.11c-.15,2,1.6,1.84,2.85,2.32s2.45,1.53,3.77,1.76c5.73,1,5.43,4,3.07,7.94l.26.18c2.81,1,5.76,1.18,7.63-1.3,1.72-2.3-.31-4.43-1.6-6.4-1-1.53-2-3.24-1-5,1.3-2.22,2.72.59,4.17.21C703.14,650.7,709.89,654.18,716.17,651.05Z" fill="#84726c"/><path d="M723.36,634.83c5,2.12,11.69,1.14,14.3,7.71a9.54,9.54,0,0,1,.69,3.94q2.65-3.39,5.3-6.8c0-1.53.31-3.3-1.88-3.62-4.7-.69-6.68-4.1-8.37-7.86C729.86,630.12,725.36,630.64,723.36,634.83Z" fill="#857674"/><path d="M692.54,453.9c1.72.12,3.61-.36,4.85,1.38l16.81,1.05c.1-.58.21-1.16.32-1.74-11.7-1.79-23.62-2.62-34.86-6.4-1,0-2,.09-2.53,1.09C681.88,452.07,687.35,452.53,692.54,453.9Z" fill="#7d5f41"/><path d="M647.34,442.48l-3.56,0c8.72,4.46,17.12,10,27,10.85,6,.52,11.8,4.54,18.07,1.47Z" fill="#604229"/><path d="M814.31,408.9c1.35,0,3,.39,3.51-1.41q5.83-21.83,11.55-43.68a7.45,7.45,0,0,0,0-1.77,8.33,8.33,0,0,0-5.44,5.63c-2.08,6.18-4.06,12.29-4.73,18.83-.75,7.37-5.25,13.34-8.37,19.81a2,2,0,0,0,1.17,1.61A3.66,3.66,0,0,1,814.31,408.9Z" fill="#7e644e"/><path d="M836.2,333.86c-.54-4.88-.81-9.81-2.79-14.41-.85-.8,0-2.56-1.72-2.87l-.63.36c-1,3.55-2.43,7.13,1.8,9.78a3.31,3.31,0,0,1,.94,1.84c-5.11,3.48-.13,8.32-1.74,12.23,2.54,3.89-.68,8.45,1.92,14.14C835.93,346.94,835.48,340.32,836.2,333.86Z" fill="#786150"/><path d="M812,407.65l-1.17-1.34q-6.35,13.29-12.7,26.57c1.41,1,1.1,2.39,1.06,3.75h0l2.45-1a3.73,3.73,0,0,0,3.07-2.55c2-7.62,5.89-14.55,8-22.09A3.43,3.43,0,0,0,812,407.65Z" fill="#82674f"/><path d="M824.66,303.44a58.39,58.39,0,0,0,6.4,13.5l.3-.18c1-4.76,2.67-9.63-2.53-13.29a3.74,3.74,0,0,0-3.35-.66Z" fill="#786150"/><path d="M815.81,289.78a26.94,26.94,0,0,0,8.85,13.66l.3-.25c1.68-5.58-2.62-12.17-8.88-13.61Z" fill="#786150"/><path d="M672.64,661.5c-2.68-.54-4.43.62-6.34,2.45-3.64,3.48-6.17,7.78-9.51,11.45-1.33,1.47-2.47,3.51-4.16,4.18-7.32,2.9-8.53,10-11.17,15.84-1.43,3.15.33,7.3-1.31,11-.79,1.78,1.18,3.75,3.29,4.3,4.22,1.12,12.62-4.07,13.65-8.41,1.8-7.54,3.24-15.13,7.19-22.05a25.13,25.13,0,0,1,6.56-7.49,33,33,0,0,0,4.92-4.35c1.26-1.47,2.63-3.27,1.68-5.39S674.28,661.88,672.64,661.5Z" fill="#3d2d28"/><path d="M580.17,843.16c-.29,2-1.39,3.38-3.49,3.23-5-.35-8.28,4.76-13.59,3.78-1.55-.28-1.74,1.83-.5,3a8.56,8.56,0,0,0,5.89,2.39c3.67,3,5.8-.84,8.56-1.9,4.88-3.17,10.76-3.19,16.07-5h0c3.2-2.53.4-3.68-1.33-4.58-3.67-1.9-7.63-1.88-11.61-1Z" fill="#ac9984"/><path d="M580.17,843.15c3.68-.18,7.14.94,10.57,2,1.54.46,3.88.92,2.37,3.57,4.22-.14,4.21-3.3,3.83-6-.49-3.4-3.13-1.89-5.22-1.6C587.84,841.66,583.74,840.9,580.17,843.15Z" fill="#8a745f"/><path d="M593.11,848.69c-5.57,1-12-.64-16.07,5C582.62,852.71,588.29,852,593.11,848.69Z" fill="#8a745f"/><path d="M627.69,745.89c-1.92,1.7-2.75,4.39-5.18,5.64,1.3,11.5-8,9-16.2,11,6.51-6.59,7.62-13.76,8.31-21.06-2.8,1.61-4.31,3.19-4.65,7.18-.5,5.93-3.94,11.24-11.21,12.09-2.27-.68-4.08.79-4.07,2.39.06,5.91-4.42,9.6-6.66,14.33s-3.52,8.83,1.61,12.59c2.39,1.75,2.85,4.7,3.26,7.48.18,1.24.25,2.31-1.51,2.57-5.3.8-5.21,4.64-4.83,8.58a10.66,10.66,0,0,1-8,11.58c-5.31,1.35-8.44-.68-7.38-5.82,1.59-7.69-2.71-12.9-7.34-17.2-9.07-8.42-7.34-10.39-3.64-22.47.34-1.12,1.22-2.07.33-3.27l-3.66-.25c-4.12,4.77-3.89,11-5.79,16.56a8.39,8.39,0,0,0,4.35,10.08c6.7,3.17,5.63,9.25,7.36,14.33a29.9,29.9,0,0,0,7.63,12.4c1.94,2.46,3.82,5.12,7.17,1.65h0c2.93-2.37,6.68-.43,9.8-1.79l0,0a6.22,6.22,0,0,1,5.09-3.22c2.34-3.69,5.21-5.94,10.1-4.74a3.72,3.72,0,0,0,4.58-3c.44-2.35.19-4.71-1.79-6.58-4.66-4.38-4.64-4.42.09-9.29.85-.87,1.17-2.09,2.13-2.86h0c1.21-.87,3.41-.61,3.59-2.66.34-3.85,3.19-6.22,5.16-9.16,2.09-3.12,3.35-7.19,8.3-3.18,1,.85,2.65-.29,3.75-1.24,1.31-1.13,2.09-3,4.8-2.83-.26,3.34,4.19,7.51-2.83,9.42-2.14.58-2,3.26-1.1,5.2,1.87,3.88,5.77,3,9,3.4,3,.32,3.46-2.14,4-4.31.26-1.15,0-2.6.95-3.38,3.94-3.38,2.18-6.15-1.44-9,3-1.83,6.38-3.2,4.7-7.9,2.22,1.46,3.46,3.16,5.75,2.47,3.59-1.09,4.32.54,3.39,3.69-.45,1.54-.75,3.34,1.43,3.87a3.38,3.38,0,0,0,4-2c2.59-8,10.38-15.2,4.46-24.72a3.73,3.73,0,0,0-2.83-2,5,5,0,0,0-4.23,1.07c-2.65,4.55-5.19,3.83-7.66-.15-.4-.69-.06.26-.36-.47C645.07,737.93,641.14,739,627.69,745.89Z" fill="#b09e8f"/><path d="M847,992.69c-.43-2-.85-4-1.28-6-1.27.9-.94,2.38-1.36,3.59.35,2.39.7,4.78,1.1,7.54C847.15,996.07,846.5,994.25,847,992.69Z" fill="#5e4b40"/><path d="M560.53,771.46c-4.87,3.76-3.8,9.85-5.33,14.76-1.06,3.4,2.23,7.44,5.36,10.28,5.12,4.65,10.75,8.83,8.76,17.35-.49,2.14-1,6,3.2,8a9.39,9.39,0,0,0,9.76-1.33c3.8-2.93,8.34-6.45,5.51-13.09-.91-2.15-.72-7.4,5.21-5.42,1.23.42,3.51.3,2.44-1.84-2.18-4.33-.65-10.56-6.88-12.92-1.59-.61-1.49-2.38-1.25-4.14.36-2.73,2.68-4.48,3.19-6.92,1-4.6,7.79-6.87,5.2-12.93-.15-.36,2-1.67,3.06-2.53.4-5.16,7.35-6,7.57-11.5.17-4.16,2-7.58,6.44-9.08a2.19,2.19,0,0,0,1.34-1.15c1.62-7,6.12-11.68,12.13-15.34,1.06-.65,1.48-2.15-.15-3.46-2.17-1.76-4.3-3-7.07-1.59-11.58,6.11-21,14.15-25.46,26.91-1.36,3.88-3.78,3.63-5.9.25-5.12.57-6.89,5.27-9.49,8.39-1.82,2.19-3.53,4.34-6,5.32C566.33,761.75,563,766.11,560.53,771.46Z" fill="#c6bab0"/><path d="M852.26,610.59c-2.35,8.3-1.75,17.66-9.6,23.95-1.88,1.52-3.1,4.23-.67,6.79,1.24,1.3.63,3,.66,4.53.38,0,.75,0,1.13,0-.11-3.78,2.41-6.38,4.29-9.27,0-6.12,4.7-10.63,5.93-16.35C853.21,617.09,858.15,612.9,852.26,610.59Z" fill="#453931"/><path d="M816.08,289.58c4.61,3.49,8.74,7.29,8.87,13.61,8.56,1.59,6.26,8.14,6.4,13.57l2.06,2.68c-2.49-4.95,2.11-9.44,1-14.31-5.48-1.6-10.86-10.39-9.9-16.16,2.74-4-2.36-4.77-3.15-7.31h0c-2.3.81-.71,6-5.12,4.42C816.15,287.25,816.12,288.41,816.08,289.58Z" fill="#aa8c6d"/><path d="M653.53,364.25c.1-5.23,1.37-10.76-4-14.55Q651.54,357,653.53,364.25Z" fill="#9e846a"/><path d="M548.35,791c.37,5.48.8,11,1.07,16.46.14,2.72.86,5,3.42,6.44s2.71,4.27,3.1,6.68.64,4.31,3.57,4.5c1.91-7-1-14.09-3.57-19.34C553.64,801,551.52,795.57,548.35,791Z" fill="#7c6b5f"/><path d="M577.59,826.23c-3.23,3-4.44-2.56-7.17-1.65-1.79,2-4.1.62-6.16.92,2.73,2.24,6.59,1.4,9.54,3.67C575.58,830.54,577.25,828.45,577.59,826.23Z" fill="#7c6b5f"/><path d="M546.16,789.53l2.19.36c-.59-5,1.86-9.46,2.21-14.27C547,779.6,546.15,784.44,546.16,789.53Z" fill="#7c6b5f"/><path d="M821.32,281.66c-.5,3.08,4.39,3.92,3.15,7.31l1.36,0C826.54,285.24,824.76,283,821.32,281.66Z" fill="#bfa78d"/><path d="M865.24,765.46c6,.29,5.54,5.44,6.48,9,.64,2.47.06,5.38,1,7.93-2.22.86-2.06-1.35-3-1.49-2-.32-4.35-.84-6.14-.19-1.31.49-1.39,3.34-.36,4.26,5.43,4.83,2.53,9.92.92,15,.65,1,0,2.15.34,3.19a28.6,28.6,0,0,0,3.63,8.09c2,3.32,4.79,3.47,6.51.33,3.66-6.68,5.89-14.22,13.45-18.36-.72.3-.47-.89-.49-.65-.35,5.83,2.83,9.48,8,11,3.72,1.12,7.64-2.29,9.34-7,5,4.44,5.17,9,.48,13.22-1.31,1.19-3.06,1.94-3.86,3.66-.24,2.77-.72,5.56,1.22,8,2.74-1.19,5.24-1.66,7.19,1.44,1.19,1.88,3.12,3.56,5.38,2.29,2.63-1.49,2.72-4,1-6.47-1,.56-2.08,1.63-2.62-.41a12.36,12.36,0,0,1,.11-6.46c1.09.66,1.22,2.72,2.8,2.12,1.17-2.81,3.2-1,4.91-.89-2.94-3.39-3.25-6.51-1.41-11.06,2.05-5.06-9.42-13.51-14.91-11.8a27.37,27.37,0,0,0-8.4,4.43c-2.29,1.71-5,1.43-5.21-1.13-.51-6.28-4.76-11.73-4-18.15.41-3.21.51-7,5.64-6.57,1.16.1,1.55-.94,2-1.84,3-5.62,7.81-8,14.45-7,2.55.4,4.57,1,5.73-2.23,1.28-3.6,3.39-2.22,4.41.08,3.61,8.14,6.34,16.42,3.65,25.55a12.26,12.26,0,0,0,3.75,13.05c4.84,4.29,5.87,9.09,3.87,14.85-.51,1.47-1.69,3,.28,4.17s3.18-.49,3.93-1.73c2-3.26,4.58-4.17,8.11-2.82-1.47-2.52-.48-4.83.24-7.38,2-7.18-.52-9.63-7.88-8.1-2.9.61-11.11-6.88-10.58-9.86.34-1.93,1.76-3.17,3.94-2.5,3.62,1.11,5.27-1.17,5.22-3.82-.06-2.91,3.2-6.89-2.8-8.73-3.69-1.13-5.7-5.66-6.74-9-2.27-7.41-8.2-7.22-13.84-7.89-2.16-.26-4.93,2.84-6.48-.1-1.4-2.66-3-5.54-2.57-8.93.76-5.83-.13-6.52-5.86-5-.57.15-1.34.38-1.76.14-3.44-1.89-6.66-3.63-10.72-.93-1.11.73-3.67-3.11-5.14-.69-2.18,3.58-6.94,6-7,10.15-.07,6-3.3,8.66-7.75,11.24-1.32.77-4.15.82-3.48,3.28C860.92,764.9,863.07,765.47,865.24,765.46Z" fill="#aa907f"/><path d="M902.83,821.53c.1-2.82.84-5.7-.67-8.4,1.51-2.69-.61-3.6-2.44-4.25s-4-1.74-4.67,1.43l-.15,2.35c2.9,2.88-.62,6.49,1.12,9.51,1.19,2.06.23,6.07,3.66,5.94C903.71,828,902.29,824,902.83,821.53Z" fill="#b29a87"/><path d="M916.65,814c-1.85-1.27-.42-3.41-1.33-4.94-3.82,2.38-4.93,9.87-2,13.06.6.64,1.32,1.13,2,.54,1.23-1,.72-2.58,1-3.91C916.46,817.21,916.56,815.62,916.65,814Z" fill="#b29a87"/><path d="M895.05,810.31c3.45-1.68,5.73-.52,7.11,2.82,9.06-3.38,11.24-9.73,5.75-17-.88-1.17-1.68-2.9-3.8-2.17s-2.18,2-1.55,3.8c.51,1.4.59,3.37-1.27,3.13-2.72-.36-4.83,3.92-7.65.8-2.5-2.77-5.72-5.17-4.71-9.67a3.3,3.3,0,0,0-1.6-4.11c-.77,5.38-3.63,8.82-8.25,11.73-2.47,1.56-3,6.12-4.32,9.38-.68,1.73-1.37,3.7-3.33,3.79s-1.93-2.21-2.66-3.52c-1.24-2.22-2.34-4.51-3.51-6.77-2.25,3-3.49,6.15-.61,9.51h0c2.56,2.15,3.86,7.75,8.45,4.74,3.78-2.49,8.74-5.33,6.91-11.57-.45-1.54-.58-3.33,1.08-4.23s2.22,1.14,3.31,1.79c.51.3,1.16.94,1.52.81C892.56,801.15,893.2,806.51,895.05,810.31Z" fill="#aa8f7c"/><path d="M879.52,882.15c1.47-.41,1-3,2.67-2.75s1.87,2,2,3.31c.33,4.36,5.1,4.48,7,7.33-5.91-9-5.93-20.34-11.83-29.36a3.87,3.87,0,0,1-.25-4c1.72-3.35.89-5.27-2.93-5.89-1.27-.21-2.9-1.31-2.39-2.16,3.25-5.38-.12-9.79-2.26-14-1.92-3.81.14-8.24-2.68-11.65a46.9,46.9,0,0,0,1,17.53c1.28,4.86,2.63,9.66,4.17,14.45,1.34,4.2,2.38,8.32,5.73,11.54,1.51,1.45,3.42,4.33-.36,4.64-7.92.66-5.05,4.55-3.28,8.4C878.06,879.3,878.31,881.35,879.52,882.15Z" fill="#937a69"/><path d="M735.47,709.58c1.62-2.56-.35-7.49,5.14-7.56.22,0,.68-1,.6-1.4a1.49,1.49,0,0,0-1.81-1.14c-2.74.45-5.46,1-8.19,1.46l-.5.68c-.84,5.26-6.26,8.68-5.93,14.49-1.82.82-2.55-1.33-4.11-1.38-2.84-.09-7,3.09-7.84-2.78-.45-3-3.19-5.57-1.58-9a2.32,2.32,0,0,0-.51-2.21c-2.63-.71-3.79,1-4.89,2.85-1.11,2.31,0,4.63,0,7-7.27-.76-7.74.09-6.66,7.15a28.3,28.3,0,0,0,5,11.78c2.13,3.17,3.49,6.24-.84,8.9a6.26,6.26,0,0,0-1.74,2.37,4.6,4.6,0,0,0-.36,1.59c-.34,2,1.83,6.54-3.63,3.54a3.75,3.75,0,0,0-2.47.18c-1.74,1-2.73,2.8-4.08,4.2-2.62,2.74-6.56,3.78-8.81.82-3.33-4.36-6.1-.72-8.46,0-2.87.91-1.35,3.91-.49,6.09,5,6.08,10.07,12.09,12.11,19.89,3.93,3.74,6.66,3.74,8.3,0,.49-1.13,1-2.89-.07-3.26-6.52-2.4-.82-6.8-1.75-10.12-.51-1.86,1.77-2.24,2.76-.92,4.55,6.09,9.07,3.45,13.68.26,4.82-.55,10.15-2.07,13.11-4.86A32.73,32.73,0,0,0,728.71,747c1.22-3.09-.37-5.31-3.35-6.41-.94-.13.39-1.15.13-.4-.09.24.06.33.38.44a2.52,2.52,0,0,0,2.77-.4c2.29-1.86,2.14-9.46-.32-10.14-2.82-.78-2,2.17-2.89,3.38-3.64-5.7-2.79-7.91,3.41-9.56,2.91-.77,5.65-1,2.62-5.54C729.71,715.75,731.54,711.42,735.47,709.58Z" fill="#af9b92"/><path d="M797.23,711.09c1.86-3.37.87-6.15-1.85-8.56-3.75,1.16-9.3-.33-11,3.36-1.35,2.94-3.52,3.73-5.31,5.56a5.77,5.77,0,0,1-8,.2c-3-3.41-4.67-2-7.69-.42-2.81,1.5-6.15,4-9.8.69-1.27-1.16-3-.4-2.47,1.57,1.94,7.42-1.75,5.45-5.6,3.39-2.56,6.25-.5,11.31,4.3,15.54,1.12,1,2.48,2.33,4.26,1.58,2.1-.88,1.16-2.55.91-4.1-.22-1.34-.55-3.2.72-3.88,1.9-1,2.76,1.07,3.72,2.16,2.61,3,8.53,4.84,3.7,10.41-.21.25.08,1.35.45,1.59,7.93,5,10.35,16.85,22.11,17.14,2,0,2.69,2.1,3.59,3.66,1,1.78,1,4.27,3.21,5.33,1.27-.87.54-1.82.37-2.7-1-5.4-2.41-10.09,3.28-15,3.14-2.7,2.35-9.55,5.34-14,.88-1.29-1.1-2.79-2.13-4a70.14,70.14,0,0,1-5-7.27C790.63,717.89,792.46,714.33,797.23,711.09Z" fill="#b99b86"/><path d="M761.3,816.29c.75,1.23,1.56,1.31,2.45.14,1.75-4.2,6.5-5.46,11-2.93a8.24,8.24,0,0,0,11.11-3.36c3-5.92,6.13-11.68,7.61-18.33,1-4.63,5.83-7.24,9.88-8.81,5.84-2.27,7.27-6.06,6.9-11.43-1.65.28-2.8,2.93-4.78,1.28s.4-2.61.94-3.9c.71-1.67,1.18-3.75,0-5.13-2.08-2.54-1.07-5.26-1.32-7.94-.19-2,1.93-5.77-1.71-5.61-2.33.1-5.71,3.09-5.13,6.29a96.57,96.57,0,0,1,1.31,13.86c0,.89.92,1.84.23,2.76-5.31,7-5.53,16.48-11.33,23.26-2.9,3.38-1.74,8.67-6.49,11.43-4.5,2.61-9.29.72-13.8,2.16-1.21.39-2.9-2.47-2.47-4.73s2-3.24,3.94-2.74c4.37,1.12,7.16-3.93,11.8-2.69.76.2,2.51-4.6,1.15-7.31-1.94-3.85-2.25-7.86-2.08-12,.34-9-3.76-16.48-8.27-23.82a4.63,4.63,0,0,0-2.9-1.88c-3.17-.48-5.34-3.89-5.11-5.15,1.42-8-5.38-7.31-10.34-10.57,1.39,4.52-.51,8.48,3.09,11.27.78.18,2,.46,2.05,1,.85,5.56,6,7.33,9.36,10.73.51.62,1,1.24,1.48,1.9.85,6.26,5.57,11.4,5.27,18-.41,1.48-.3,3-.8,4.51-1.88,3.68-3.71-.6-5.56,0a3.73,3.73,0,0,0-1.63,0c-2,1-1.14,3.1-1.75,4.74-2.16.08-2.24-2.45-3.86-3-2.61-.56-5.23-1.13-7.9-.32-2.4,2.17-1.79,5.07-2,7.78,1.9,3.36.16,7.36,1.93,10.75C757,809.12,756.75,814.51,761.3,816.29Z" fill="#967964"/><path d="M728.64,740.23c-2.64.53-3.42-2.13-5.25-3.14-1.22,2,.23,2.91,1.39,4,4.56,4.15,4.21,6.36-1.38,8.74-2.37,1-1.35,3.37-1.21,4.52.55,4.31-3.07,4.77-4.93,4.23-3-.86-4.1-1.1-4.85,2.28-.62,2.79-2.93.63-4.49.69-2.9-.11-2,2-1.49,3.12.78,2,1.89,3.92,4.26,4.59,4.09-2.32,7.58-2.64,9.42,2.7a6.58,6.58,0,0,0,1.28,2c1.78,2.08,3.56,5.24,6.71,3.45s.5-4.51-.18-6.82c-1.19-4-.46-8.23-1.87-12.17.6-.44.43-1.3,1-1.77.51,1.12-1.18,1.16-1.07,2.1.29,1.75,1.12,3.33,1.43,5.11.43,2.53,2.72,3.22,4.89,3.7,2.37.53,3.8-.66,4.57-2.8.62-1.73,1.59-3.75,3.63-3.31,4,.88,6.31-.83,8.54-3.79,1.8-2.38,3.52-.07,5.13.83,2.31,1.29,4.9,2,6.05-.92.87-2.24.14-4.73-3.25-4.83-1.28,1.33-2,.54-2.66-.65-.8-1.37-1.76-3.22-3.39-3-4.73.49-8.72.62-8.52-5.85,0-.95-1.58-.89-2.58-.62-1.29.35-2.57.46-2.48-1.32a4.51,4.51,0,0,1,1.19-2.62c1-1.08,1.69,0,2.4.66,1.78,1.53,3.46,3.62,6.17,2.69,1.19-.41,1.12-2.05.95-3.19-.47-3.3-3.65-3.24-5.85-4.31-2.57-1.25-5.16,2-8.17-.05-.85-.59-.93,1.78-.45,3.18.76,2.17-1.15,3.6-2.49,4.59C730,742.94,729.18,741.28,728.64,740.23Z" fill="#957869"/><path d="M757,752.71c1.77,1.37,3.87,3.12,1.87,5.22s-3.57-.19-5-1.6c-2.85-2.89-5.06-3.53-6.8,1.16-.76,2.08-2,4.07-5.46,2.43-1.93-.9-5.88-1-6,3.39,0,1.53-.09,3.66-2.47,3.09-1.77-.42-4.42-.53-4.61-3-.16-2.15-1.5-3.62-2.22-5.43h0c-1.58,4.44-.8,8.81.34,13.17,1.2-.61,2.19-2.19,3.68-1.56,6.68,2.83,11-1.74,15.5-5,2.59-1.84,4.55-3.15,7.16-.46.89.92,2.35,1.55,3.23.79,4-3.44,9-2.18,13.48-3a8.38,8.38,0,0,0-5.08-4.62c-2.14-.82-3.07-2-2.91-4.33.25-3.72-1.47-4.59-4.66-2.54C757,751.14,757,751.92,757,752.71Z" fill="#896a57"/><path d="M829,861.5c-2.57-.71-3.17-2.24-3-3.07,1.36-6.18-4.81-9-6.22-13.86-.24-.82-.95-1.49-1.74-1.17a2.47,2.47,0,0,0-1.42,1.71c.3,10.53-5.12,19.61-7.61,29.42-.65,2.56.77,4.34,3,5.14a19.76,19.76,0,0,0,11.82.42c2.21-.57,1.82-1.66,1.87-3.42.16-5.32,2.79-6.61,7.59-4,1.29-2.58-2.67-3.34-1.85-6.07,5.61,2.22,2.76-2.36,4-4.32,5.39-8.74-2.09-17.75,2.91-27.33-4.11,1.51-5.7,3.78-9,3.44-2.28-.24-2.2,3.56-1.38,5.45C830.44,849.57,827.45,855.33,829,861.5Z" fill="#5e4b40"/><path d="M864.65,812c-1.65-3.29,1.23-6.29.61-9.51a2.47,2.47,0,0,0-1-2.46c-1.4,1.26-3.08,2.35-2.75,4.61C861.75,807.4,861.07,810.58,864.65,812Z" fill="#9c816f"/><path d="M842.66,786.21a2.17,2.17,0,0,0-1.75,2.7c.4,1.66.56,3.84,2.61,4.21,1.24.22,2-1.29,1.68-2.56C844.82,788.89,844.53,787.06,842.66,786.21Z" fill="#776458"/><path d="M879.52,882.15c.05-1.53.48-3.32-1.29-4.11-1-.44-1.7.63-2.19,1.5C877.13,880.51,876.31,883.93,879.52,882.15Z" fill="#9c816f"/><path d="M765.18,625.51c-5.32.24-8.8,2.63-10.22,7.9-.42,1.59-1.79,2.94-2.73,4.4-.39,7.73-2.47,15.14-4.55,22.54-1.81,6.44-.8,8.36,5.52,11.11,2.53,1.1,5.59,2.35,7,4.45,5,7.62,12.88,7.81,20.65,8.65,1.1.12,2.06,1.23,3.17,1.46,3.47.72,8.53,4.15,7.42-3.87-.27-1.94,1.31-2.24,2.78-2.25a4.2,4.2,0,0,0,4-2.18c0-.39,0-.78.07-1.17l-.74-.39c-10.15-1.15-19.54-4.69-28.74-8.82-4-1.75-5.12-4.89-5.38-9a49.22,49.22,0,0,1,3-20.14c.15-.21.3-.44.44-.66C769.16,633.13,763.45,629.81,765.18,625.51Z" fill="#4f433f"/><path d="M738.33,646.5c-4.41-1.81-7.31-1.22-7.76,4.26-.35,4.29-5.4,7.61-2.13,13,1.14,1.86,1.15,3.67,3.92,4,4.39.53,3,4.61,3.78,7.15.63,2-.65,3.77-2.84,4.58-7,2.6-7.19,4-1.35,9.63.25-4.12.1-8.58,6.67-6.18,2.14.78,1.9-1.12,2.41-2.35,2-4.83,1.5-9.77.94-14.73,1.23-2.58.5-5.38.92-8.06a2.56,2.56,0,0,0-2.63-3.2c-7.38.41-4.24-3.64-3.15-6.86Z" fill="#857674"/><path d="M737.11,647.7c-.3.23-.9.5-.87.7.33,2.72-5,1.87-3.43,5,1.35,2.73,3.84,2.71,6.69,2,2.19-.52,2.53,1,2,3a9.52,9.52,0,0,0,.5,7.41c5.36-.53,3.62-4.78,4-7.74s-1.66-4.12-4.43-4.22C737.36,653.71,737,650.89,737.11,647.7Z" fill="#7b685c"/><path d="M777,836.48c-.84,1.78-1.74,3.54-2.49,5.35-.49,1.19-.19,3.09.81,3.09,7.06,0,3.72,5.07,4.33,8.2,3.64,3.53,3.81-.58,5-2.25,1.13-1.51,1.44-4.14,4-3.71,2.29.38,1.48,2.91,2.42,4.81,4.82-9.34,6.25-19.43,9.57-28.88.54-1.53,1-4.15-1.15-4.67s-3.85,1.6-4.35,3.37c-.84,3-1.79,5.26-5.55,4.53a5.36,5.36,0,0,1-1.13.06C785.71,830.83,780.57,832.76,777,836.48Z" fill="#b8a899"/><path d="M798.09,659.8l-1.22-.08c-2.56,3.12-4.74,3-7-.45-1.2-1.8-1.63-5.45-5.46-3.31-.73,3.65.69,7,1.37,10.51a6.15,6.15,0,0,0,5.46,4.92c3.37.47,5.31,2.5,7,5.07l0,.09c3-1.74,6.15-1.66,9.65-1.84,5.29-.27,10.9-3.55,15.1-7.34,2-1.78-1.08-3.17-2.92-3.74-3.21-1-6.18.59-9.74,1.91.51-4.13,3.23-4.25,5.5-5.11,1.74-.66,4.64-.11,4.88-2.63.26-2.73-2.66-3-4.49-4a22.35,22.35,0,0,1-1.9-1.33c-1.41.68-2.83,1.95-4.23,1.91-3.52-.08-5.27,1-6.27,4.58C803.12,661.5,800.71,664.15,798.09,659.8Z" fill="#4c3d32"/><path d="M838.88,648.09c-1.17-2.34-3.57-.93-4.72-.73-4.63.76-8.77,3.13-13.35-1.33-1.75-1.71-3.81,1.53-3.89,4.19,1.42.64,3.12,1,4.23,2,5.88,5.22,11.38,4.51,16.26-2.28C837.87,649.29,838.39,648.7,838.88,648.09Z" fill="#453931"/><path d="M686.3,776.92c-.93-8.44-6-14.41-12.07-19.85-.84-1.3-1.53-2.69-2.37-4-2.17-3.3-4.61-4.16-7.07-.19-.93,1.33-.57,2.43.27,3.77,2.11,3.34,2.54,6.69-1.11,9.43-2.56,1.92-1.89,5-2.78,7.52s-1.6,4.26-4.43,4.64c-.84-2,.42-3.35,1-4.69,1.62-4-1.19-5.54-3.61-4.24-4.86,2.62-5.77-.07-6.26-3.83-2.22,1.1-3.56,2.92-3.06,4,1.93,4.25,0,4.8-3.73,5.33-2.88.4-1.95,2.75-.35,3.83,3.12,2.13,6.44,3.85.26,6.24a1.62,1.62,0,0,0-.74,1.39c3.12,8.33-3.38,5.29-6.88,5.59-2.3.2-3.14-1.55-3.43-3.37-.39-2.37,1-2.94,3.24-3.08,4.22-.26,5.79-2,2.41-5.54-.74-.78-1.36-1.38-.75-2.5s3-2.58,0-3.51c-1.81-.56-4-1-5.52,1-2,2.58-3.21,7.73-6.85.58-.87-1.71-4.76,2.63-6.77,5.06-3.56,4.29-5.15,9.61-8.13,14.17,4.67-.1,8.3-3.23,12.76-4.27,3.39-.8,2.56-4.67.13-8.06,4.84.84,4.59,4.6,6.22,6.68,1.83,2.35,1.67,6.15,5.62,7a1.59,1.59,0,0,1,1.08,2.35c-1.21,2.56-1.34,4.45,2.36,4.66.59,0,1.19,1,1.66,1.62,1.27,1.71-2.3,7.36,3.8,4.95,2.6-1,5.51.74,8.22-2.19,1.37-1.49,6.18-3,10.06.16,2.49,2,5-2.75,8-3.2.87-1.09-2.81-3.16.89-3.74.91-.15,1.51-1.42,1.4-2.42a30.7,30.7,0,0,0-4.33-12.67c-1-1.65-4.89-2-3.34-4.69s2.85-6.84,7.6-6.51c2.84.2,4.32-1.63,5.45-3.88.55-1.09.61-3.23,2.73-1.54,1.34,1.06,2,2.26,1,4.09-3.24,6-2.46,7.36,4.43,7.92A5.58,5.58,0,0,0,686.3,776.92Z" fill="#9d8675"/><path d="M683.62,780.31a6.56,6.56,0,0,1-5-1.76c-.81-.76-2-2.31-.71-2.87,2.53-1.06,4.26-2.2,3.63-5.15-.33-1.5-1.89-2.58-6.43-4.79-1.78,3.2-.25,10.36-8.12,6.29-1.26-.65-2.27,2.12-3.69,3.1-5,3.47-3.56,6.79.63,11.41,2.74,3,5.13,7.85,4.47,12.41-.51,3.51-4.27-.71-6.13,1.27.4,3,4,2.15,5.21,4.2,6,.52,12.18-.55,18.14,1.14,6.16-5.48,6.16-5.48.82-13.08.54-3.77,7.25-7.55,11.46-6.34,1.32.37,2.6,1,3.94,1.33,1.83.49,5,2.46,5.25,1.25.77-3.62,6.78-4.49,4.7-9.22-6.08-.59-12.1.64-18.18.62-2.63,0-5.13,1.59-7.57-.84C685.26,778.47,684.29,779.57,683.62,780.31Z" fill="#886e5e"/><path d="M607.57,794.74a44.62,44.62,0,0,0-5.89,4c-3.86,3.56-3.45,5.92,1.22,8.16,2.66,1.28,4.27,3.1,3.28,6.06s-3.35,3-5.82,1.91c-7.07-3.19-6.81,2.37-7.9,6.35,1.95.1,3.64.29,5.43-1.4,1.62-1.54,4.25-2.77,6.71-1,1.89,1.33,3.83.35,5-.46,1.54-1.09.8-3-.24-4.64-1.55-2.43-2.16-5.13-.8-7.85C610.5,801.88,609.38,798.3,607.57,794.74Z" fill="#9d8675"/><path d="M587.39,824.44c-3.34.18-7.35-3.12-9.8,1.79C581,826.6,584.43,826.67,587.39,824.44Z" fill="#7c6b5f"/><path d="M792.15,584.19c-1.43,1.88-1.73,4.32-3.61,6-2.68,2.47-2.68,5.59-1,8.64,1.19,2.11,2.54,4.29,1.85,6.68-3.43,11.84.48,23.84-1,35.71,1.34.86,2.57,2,4,2.53,4.42,1.49,8.75,5.94,13.48.14,2-2.48,5.42-1.18,8.22-1.58,5.8-.83,9.83-5.62,14.87-8.32,2.72-1.46,1.16-5.9,1.62-9s-.22-5.84,4.2-7.72,4.65-7.6,4.31-12.16c-.66-8.83,0-18.42-10.41-23.25-1.31,6.77-3.32,8-10.38,6-1.74-.48-3.42-1.52-5.22-1.11-3.47.77-4.72-1-5.36-3.89a18.51,18.51,0,0,0-1.61-5.05c-2.77-5-7-5-10-.17C794.87,579.91,793.5,582,792.15,584.19Z" fill="#1a1510"/><path d="M771.49,603.2c2.86-.44,5.74-.86,6.35-4.43a.74.74,0,0,0,.29-.75c-.07-.26-.14-.39-.22-.39-2.17-1-2.36-2.87-2.17-4.89l-3.56-.24c-.06.41-.11.82-.16,1.23C771.84,596.89,771.67,600,771.49,603.2Z" fill="#433021"/><path d="M777.91,597.63a8.74,8.74,0,0,1-.08,1.14c.28.51.84,1.06.79,1.54-.73,6.18.58,11.43,7.45,14.86-.63-7.41-1.25-14.65-1.87-21.89l-5.89-2Z" fill="#6b5a50"/><path d="M812,407.65c-2.07,9.82-6.41,18.82-10.38,28,.05,4.81-1.15,9.65.53,14.56,1.53-14.55,8.72-27.37,12.14-41.27-.15-.86-.29-1.72-.44-2.59Z" fill="#554135"/><path d="M799.21,436.63c-4.21,4.54-4.46,10.19-4.51,15.87,0,1.19.53,2.56,2,2.41,1.75-.19,1.23-1.69.94-2.74-1.48-5.39,1-10.37,1.57-15.55Z" fill="#82674f"/><path d="M711.55,779.72c.46,3.89-5.39,4.31-4.09,9.07-7.28-4.86-13.92-6.16-20.5-.64-1.48,1.24-3.71,2.51-.49,4.33.87-3.22,2.65-2.44,4.34-.81,2.1,2,3.85,3.65,4.3-1,.26-2.7,1.65-3.42,4.1-2,2.91,1.69,6.64,1.22,9.77,4.47.15-3.32-1.15-6.36,1.91-7.62,2.36-1,5.41-2.66,7.25-1.9,2.55,1,2.36,4.64,2.36,7.4,0,1.72-2,4.2,1.41,4.64,2.69.33,3-1.88,3.48-3.91,1.08-4.19,6.3-7.38,10.61-6.49,1.56.32,3.14,1.54,4.41,0s-.66-2.4-1.32-3.48c-1.81-2.94,0-5,2.34-5.55,4.64-1.12,6.19-3.82,6.08-8.15,0-1.25.15-3.89,1.46-3.19,2.78,1.46,6.88,1.35,7.95,5.44.45,1.74.84,3.14-1.42,3.67-1.82.42-3.79.7-3.19,3.27a5.3,5.3,0,0,0,4.16,3.9c2.17.58,3.49-.16,3.56-2.6.05-1.82-2.5-4.7,1.46-5.1,3.44-.34,6.91.54,9.16,3.42.9,1.15,1.11,2.93,1.32,4.46.16,1.11.09,2.48-1.41,2.91-1.19.34-1.83-.45-2.38-1.34-1.5-2.43-3-2.42-5.33-.65-2.19,1.64-4.37,3-8,.8-2.84-1.7-4.57,2-4.4,5,.08,1.37.91,3.47-.3,3.86-6.4,2-2.56,4.49-.47,6.85,1.17,1.33,1.2,2.52.89,4.29-.47,2.72.7,5,3.93,5.62a1.63,1.63,0,0,0,.19-2.4c-2.19-2.94,1.21-6.88-1.81-9.66-.87-3-1.49-6,1.73-8.27a10.8,10.8,0,0,0,7.22.51c2.7,1.22,3.13-4.33,6.21-2h0c2.59,1.19,5.1,1.51,7.35-.72,2-1.07.47-2.36.22-3.57a3.1,3.1,0,0,0,.12-4.26,25.65,25.65,0,0,1-4.94-15.16l-1.11-1.28c-4.56-1.06-9.2-3.18-13.07,1.64-.89,1.1-2.14.82-2.87-.53-2.69-5-5.18-1.85-8.06,0-4.81,3-8.65,9-16.06,4.65-2.79-1.63-2.6,1.79-3,3.53.38.91.8,1.8,1.13,2.73s1.3,2.33-.32,3a2.53,2.53,0,0,1-3.05-1.31c-1.29-2.13-3.73-3.62-3.68-6.5.1-4.93-4.21-1.81-6.24-3.1-2.29-1.45-3.42.72-3.47,3-1.43,2-.11,2.8,1.58,3.34,1.47.48,3.28-.21,4.53,1.28C716.86,777,711.54,776.05,711.55,779.72Z" fill="#7c6150"/><path d="M754.72,806.28c-.07.8-.13,1.6-.19,2.4a25.24,25.24,0,0,1,1.28,4.37c.41,3.6,2.39,4.26,5.49,3.24C758.67,813.23,757.79,809.05,754.72,806.28Z" fill="#896a57"/><path d="M843.73,329.57c1.53.94.56,3,1.74,4.21,4.16-7.28.24-18.29-7.84-22.46,0,4,1.89,7.52,4,10.65A10.86,10.86,0,0,1,843.73,329.57Z" fill="#cdb496"/><path d="M627.69,745.89c3.66-2.28,8.12-1.76,12.1-3.53s6.81,2.2,7.41,5.65c.41,2.37.67,3.66,3.07,4a10.1,10.1,0,0,0,8.46.49c1-1.32,2.38-1,3.7-1,3.62-4.91,2.1-9.87-4.68-15.5,3.93,1.82,7.59,1.24,11.51-.18,5.22-1.9,10-.15,14.36,3,.56-.18,1.1-.42,1.68-.55,2.26-.51,4,3.36,5.79,1.43,2-2.13,3.93-4.74,4.12-8-3.48-1.54-7.68-2.26-7.22-7.65.16-1.83-2-2.64-3.45-3.71-4.11-3.1-4-6.38.22-9.58-.91-3-3.66-3.15-6.06-3.86-2.77-.37-5.51,0-6.74,2.7-2.68,5.89-6.28,11.47-6.8,18.15a3.7,3.7,0,0,1-5.09,1.8,4.76,4.76,0,0,1-3.13-4.65c0-1.58.3-3.17.19-4.74-.22-3.13-2.13-5.1-4.39-2.12-3.82,5.06-9.2,7.12-14.61,9.48-1.88.82-3.56,2.2-3.46,4.45C634.92,738,631.52,742,627.69,745.89Z" fill="#8d807f"/><path d="M716.17,651.05c-6.32.39-12.65-1.78-19,.09-.42.12-1.33-.15-1.42-.43-.73-2.27-2.7-3.11-4-1.54a6.3,6.3,0,0,0-1,7.08,12.64,12.64,0,0,0,1.56,1.82c3.8,4.68,3.71,4.87-2.51,6a14,14,0,0,0-2.27.81c-2.12,1.77,0,4.66-2.18,6.89-1.28,1.34,1.39,3.73,3.33,3.72,3.46,0,5.86,2.18,8.81,3.14a18.47,18.47,0,0,0,8.31,4.4c-2,1.26-6,1.35-3.15,4.8,6.78,1.62,7.47,7.37,8.85,12.66.82.92,2.22,2,3,1.46,4.58-3,8.9-2.49,13.42.08.92.53,2.32-.12,3.24-1l.05-.06c-4.33-5.2-2.83-12.37-6.29-18.09-1-1.73,1.94-5.85,3.14-8.85.84-2.1,1.18-4.07-1.87-4.32-4.51-.38-4.27-3.13-3.53-6.26-4.41.74-6.6,4.19-8.66,7.43-1.84,2.9-4,3.72-7,2.65-2.86-1-5.63-2-8.81-1.31a3.43,3.43,0,0,1-4.18-3.33c-.17-2.88,2.44-1.78,4-1.84a17.53,17.53,0,0,1,4.17.62c2,.4,4.23,1.08,5.18-1.43s.06-4.66-2.17-6.24c-1.73-1.23-3.85-1.59-5.81-2.48,4.74.64,9.25.48,13.38-2.23,2.16-1.42,4.09-1,5.79,1.11,1.17,1.44,1.8,3.71,4.38,3.49C723.5,651.62,723.5,651.62,716.17,651.05Z" fill="#af9b92"/><path d="M711.86,699.74c-.14-.37-.5-.82-.39-1.1,2.94-8-2.51-9.87-8.48-11.41-3.84-4.14-9.83-2.69-14.33-5.29.8-.61,1.91-.62,2.44-1.53.41-.66,1-1.65.15-2-9.58-4-18.13,1.13-18.74,11.23-.21,3.33-.47,6.65-.7,10-1.39,5.85-1.39,5.85,6.76,8.84l6.15,2.6c7,3.88,16.2,1.09,22.06-6.7,1.06-1.37,2-2.92,3.81-3.42C711.62,701.16,712.2,700.93,711.86,699.74Z" fill="#513f39"/><path d="M678.57,708.44c-2-3.17-9.31-2.33-6.76-8.84-4.54,4.22-6.07,10.46-10.59,14.85-3,2.87-2,7.54-1.59,11.34.29,2.91,3.56,1.58,5.53,2.07,3.48-4.55,4.81-10.08,6.84-15.25C673.29,709.34,675,707.7,678.57,708.44Z" fill="#5d504d"/><path d="M691.1,680.41c-2.13.22-4.37-.84-7.25,1,6,4.28,13.1,3.59,19.14,5.83-1-3.7,1.94-1.79,3.19-2.16,1-.29,2.14-.47,2.26-1.59s-.89-1.59-1.89-1.91c-3-1-6-2-9.08-3C696.58,683.39,693.16,679.6,691.1,680.41Z" fill="#8b7770"/><path d="M798.2,676.46c.63-3.67-.18-6.27-4.69-6.22-4.71.06-6.75-2.19-6.75-6.91,0-2.66-1-5.33-1.63-8a.72.72,0,0,0-.07-1.12c-5.25-3.24-5.51-9.5-8.59-14.12-4.19-6.27-3.46-6.74-9.68-2.58h0a13,13,0,0,0,0,11.16c.94,2.2,1.5,4.4-.19,6.66-4.7,6.27-4.47,7.59,1.9,13.33,7.31,2.06,13.31,7.67,21.75,7.08C792.57,675.57,795.05,679.83,798.2,676.46Z" fill="#332721"/><path d="M785.06,654.21a8.53,8.53,0,0,1,.07,1.12c2,1.24,2.85,3,3.55,5.23.8,2.46,3.15,3.62,5.66,3.62,3.1,0,2.13-2.71,2.53-4.46-.8-1.7-1.24-3.73-2.48-5C791.61,651.76,788.41,649.42,785.06,654.21Z" fill="#765f51"/><path d="M722.9,659.86a30,30,0,0,1-2.39-3.38c-2.41-4.53-5.54-5.22-9.6-2-3.77,3-8,1.79-12.16,1.22-1.07-.15-2.36-1.43-3,.27s.95,2.5,2.17,3c2,.8,4.19,1.25,6.28,1.9,2.61.81,2.61,3.15,2.11,4.9-.72,2.5-2.53.63-3.92.34a13.76,13.76,0,0,0-3.56-.53c-2.48.14-5.7-1.77-7.26.83-1.35,2.25,1.44,4.25,2.55,6.24,1.48,2.67,3.43,2.44,5.94.69,1.8-1.24,3.74.82,5.61,1.37,4.2,1.24,7.83,2.8,9.84-3.49,1-3,4.71-5.21,7.2-7.77Z" fill="#b9aaa5"/><path d="M683.88,738.61a13.07,13.07,0,0,0-16.21-3.7c-3.08,1.41-6,1.94-8.86-.6-1.5-1.33-3.28-.54-4.17.74-1.15,1.64.49,2.27,1.77,2.91,5.89,2.95,7.82,7.35,6,13.59a2.62,2.62,0,0,1,2.36,1.37c5.83-4.53,6.11,3.17,9.44,4.15-2.55-4.62,2.37-5.06,4.24-7.19.12-.14,1.08.22,1.48.55,6.68,5.48,8.88,5.26,14-1.52.58-.76,1-1.62,1.51-2.43-2.37-1-5-2.43-6.63.75-1,1.85-2.28,1.32-3.49,1-1.74-.51-1.51-2-1.39-3.43C684.17,742.71,685.64,740.63,683.88,738.61Z" fill="#9e8c84"/><path d="M658.73,752.52l-8.46-.49c1.13,1.9,1.15,5,4.34,4.77C657,756.63,658.41,754.93,658.73,752.52Z" fill="#9e8c84"/><path d="M706.78,704.34c-6.52,4.9-13.4,8.63-22.06,6.7-1.91.64-6.22-.48-5.5,1.05,1.5,3.16-.87,8,3.94,9.61,1.75.57,4.23,1,3.76,3-1.8,7.69,3.45,7.25,8.29,7.46,3.76,1,6,2.82,4.76,7.16-.33,1.16-.37,2.94,1.89,2.79,2.23-1.45,2.94-4.56,6.13-5.1,1.18-.2,1.61-1.62.82-2.9-1.74-2.84-3.09-6-5.3-8.44-3.31-3.62-2.34-8.25-3.6-12.3-.88-2.81,2.13-2.27,4.1-1.46,1.19.49,2.31,2,3.74.65s.06-2.49-.6-3.61C706.27,707.45,706.7,705.89,706.78,704.34Z" fill="#9e8c84"/><path d="M711.55,779.72c1.34-2.12,4.52-1.25,5.91-3.73.6-1.07,2.85-1.15,1.61-3.28-.88-1.52-2-2.46-3.79-2-2,.54-4,1.42-4.25-1.81-.59-2.65-5.44-3.57-3.11-7.41-.53-.71-1.57-1.2-1.92-.42-2.89,6.44-6.15,5.71-9.93.76-1-1.36-2.34-3.2-4.41-1.79-1.49,1-2.64,2.81-1.65,4.65,1.18,2.19,1.52,2.65-1.57,3.76-3.39,1.21-.41,3.46,1.2,4.64,1.44,1.06,5,.24,2.81,4-2.34,4-4.15,1-6.15-.19a3.66,3.66,0,0,0-2.68,3.39c3.76,2.13,7.34,1.91,11.72,1.12C700.58,780.49,706.3,782.21,711.55,779.72Z" fill="#a08170"/><path d="M711.86,699.74l-1.27,1.18c-4.33,5.71,1.55,10.3,1.93,15.52.16,2,2.93,1.6,4.53.57,3.79-2.46,5.7-1,7.11,3.53.61-7.54,8.1-11.9,7-19.54-2.94-.46-6.12.46-7.95-3.53-1.09-2.38-4-2.49-5.21.92C716.69,702,714.36,701.29,711.86,699.74Z" fill="#c0b2ae"/><path d="M701.86,742.1c-1.7-1.37-.52-2.72-.14-4.22,1.27-5-1-7-6.51-5.73-2.7,1.58-4.57,3.67-4.18,6.46-2.77,2.81-4.22-7.92-7.15,0-.52,2.06-1.36,4.09-1.48,6.17-.11,1.87-1.61,5.2,1.41,5.15,1.4,0,5.79,3.11,6.21-2.43.16-2.07,3.85.8,5.48-1l2.42.08c2.18-.74,5-1,3.94-4.45Z" fill="#8d7c74"/><path d="M701.86,742.11c.21,2.79-4,1.75-3.94,4.45,1,1.54,2.09,4.51,3.9,2.92S703.69,744.6,701.86,742.11Z" fill="#9e8c84"/><path d="M772.67,715.75a2,2,0,0,0-.56,2.59c.36,1.47.32,3-1.42,3.35-1.45.27-1.56-1.45-2.25-2.32-1-1.26-.46-4.85-3.71-3-3,1.69-1,3.4.29,5.3,3.8,5.73,8.56,11,5.6,19.06-1.08,2.95,1.51,5.68,5.7,6,3.76.32,7-1,10.32-2,2.29-.65,4.85-3.4,3.62-4.55-4.17-4-1.81-10-5.84-14.12C780.76,722.34,777.93,717.93,772.67,715.75Z" fill="#c6a996"/><path d="M770.82,763.13c-2.65,5.42.07,9.81,3,14,1.18,1.71,2.2,3.27,1.85,5.39,1.31-.6,3-1.57,2-3C774.19,774.54,773.47,768.46,770.82,763.13Z" fill="#896a57"/><path d="M768.07,786.85c-1.08-2-1.79-6-4.11-.63a12.37,12.37,0,0,1-2.1,2.64,4,4,0,0,0,1.27,3.23c1,.85,1.47,2.79,3.23,2,1.57-.68,1.45-2.21.92-3.62S766.5,787.79,768.07,786.85Z" fill="#896a57"/><path d="M775.42,786.12l-7.35.72,7,4Z" fill="#896a57"/><path d="M754.64,788.35c-3,.51-3.83,4.58-1.73,8.27C753.53,793.87,752.16,790.72,754.64,788.35Z" fill="#896a57"/><path d="M726.32,757.93c.95.17,2.08.74,2.81.42.94-.42.18-1.39-.31-1.92-1-1.12-1.73-2.68-3.64-2.92-1.84,2,1.06,2.9,1.14,4.42Z" fill="#af9b92"/><path d="M768.44,668.66c-1.31-2.17-2.81-4.27-3.89-6.55-.78-1.65-.91-4.08,1.13-4.6,5.9-1.51,4.39-5.72,2.8-8.64-2.08-3.8-2-7.46-1.7-11.36-4,.69-4.16.75-2.46,3.72.86,1.49-.05,2-.81,2.88-4.34,5.24-1.93,20.57,3.78,24.31A3.23,3.23,0,0,0,768.44,668.66Z" fill="#3e332e"/><path d="M655,781.58c-2,.57-3.88.87-3.92,2.77,0,2.39,1.52,4,3.8,4.55A2.59,2.59,0,0,0,658,787C658.31,784.48,655,784,655,781.58Z" fill="#886e5e"/><path d="M683.86,684.94c-6.67-.59-9.67,3.7-7.36,9.6.72,1.83,4.5,7.66,5.7,10.19a9.07,9.07,0,0,0,7.66,4.85c2.8.2,3.8-3.52,5-6.06,1.43-3.06,1.87-6.39,3.19-9.52,1.22-2.9,0-6.26-3.95-7.25-1.73-.43-3.58-1.19-5.23-.92C686.86,686.15,685.4,684.83,683.86,684.94Z" fill="#31231d"/></g><g id="frame"><rect width="1000" height="1000" fill="none"/></g></svg>