<!-- Copyright (c) 2022 Jan Stehno -->
<svg xmlns="http://www.w3.org/2000/svg" viewBox="0 0 1000 1000"><title>canadagoose</title><g id="canadagoose"><path d="M771,620.59c3-.07,6.07-.57,8.76,1.36,5,1.38,9.84,3.37,15.24,3.33,4.86,0,8.08,2.61,9.81,7.25,1.29,3.47,3.64,4,5.81.79,3.94-5.71,9.43-6.23,15.54-5.2,9.43,8.81,21.42,4.11,32.16,5.94,3.65.62,7.09-1,10.42-2.81,4.64-2.57,9.09-5.82,14.75-5.93,1.94.07,3.62,1.18,5.53,1.5-1.83-3.68-.61-6,3.17-7,5.25-1.32,10.55-2.4,15.31-5.2,1.77-1,4-1.47,5.32.53,1.56,2.41-.19,4.3-2.09,5.5-2.48,1.57-4.47,4.12-7.42,4.68-2.27.43-2.79,1.45-2.72,3.45s.26,3.84,2.93,4.27c5.23.84,5.2,3,1.25,5.85-.79.57-2.18,1.25-1.62,2.11,3,4.58-.79,7.5-2.89,10.93,3.8-1.45,4.33-4.64,4.53-7.61.3-4.57,3.06-6.47,7-7.31s7.84-.76,11.66-1.89c2-.6,4.11-.84,4.89,1.69s-.52,4.23-2.53,5.59c-1.59,1.07-3.36.42-5,.57s-2.7,1-2.67,2.79.77,2.45,2.74,2.36c6.39-.27,5.13,3,2.46,6.17-3,3.64-6.68,6.44-11.59,7.36-3.06.57-4.33,5.75-1.84,7.71,1.72,1.36,3.71,2.38,5.09,4.17,1.59,3,2,5.77-.42,8.71a46.81,46.81,0,0,0-9.05,17.06c-.53,1.91-1.19,3.71-3.4,4.31-.49-.1-1.22-.34-1.2-.64.44-7.09-2.91-13.17-5.11-19.56,2.68-2.84,5.45-5.48,9.93-4.35-4-1.2-8.33-1-12.34-2.21-2.23-.08-2.13,1.16-1.86,2.85.84,5.22,3.66,12.23-.55,15.15-3.79,2.63-7.26-4.82-11.61-6.61a4.86,4.86,0,0,0-2.59-.71c1.72,2.43,3.8,4.39,4.79,7,1.51,3.93,3,7.56,8.38,4.37,1.46-.87,2.93,0,3.79,1.31,1.07,1.71.28,3.31-.65,4.81-1.36,2.18-3,4.14-5.92,3.25-4.92-1.5-10.12-2.13-14.74-4.65-1.43-.79-3.13-2.06-4.74-.64s-1,3.26-.52,4.86c1.26,4.29,2.17,8.56.85,13-1.11,3.73,1.79,4.51,4.23,5.69,1.75.85,4.13,1.85,3.4,4.1-.87,2.67-3.59,2-5.74,1.6-8.22-1.46-11.5-6-10.42-14.27.26-2-.16-4,.39-5.85,2.12-7.09-.75-11.07-7.42-13.45-5-1.77-8.26-6-11.75-9.69-2.6,1.57-2.26,3.63-1.48,5.37,3.87,8.58,6.14,17.45,5.56,26.91-.15,2.36,1.09,3.41,3,4.43,11.37,6,12.72,9.27,9.4,21.68-2.24,8.4-1.32,9.86,7.44,11.46,2.64.48,5.51.42,6.86,3.41.51,1.11-.11,1.83-1,2.43a9.52,9.52,0,0,1-7.22.59c-8.53-3.18-16.8-2.12-25.18.56-8.8,2.81-16.95-.31-25.06-3.28-19.45-10.08-19.22-22.12-17.24-40.58-6,1.48-10.07-2.51-14.16-5.41-3.51-2.49-5.86-4.28-8.71.33a6.29,6.29,0,0,1-3.56,2.5c-6.66,2.11-8.12,7.15-7.67,13.3.34,4.68.55,9.1-3.8,12.64-3.13,2.55-1.41,4.69,1.89,5.68,2.37.71,4.9.28,7.3.74,2.76.53,6.16.69,5,5.13-12.8,4.11-23.3-1.62-33.62-8.49-1.72,2.6,2.16,5.07-.71,6.92a8.19,8.19,0,0,1-6.36,1.14c-6.7-1.49-13.51-3-17.2-9.76-.44-4,2.41-6.31,4.78-8.65,3-2.95,5.55-6.23,8.21-9.43,1.12-1.34,2.5-3.14,1.09-4.59-5-5.22-.79-8.68,3.44-13.13-13.83,2.65-22.59,9.57-28.19,20.6-1.36,2.68-2.75,5.2-5.48,6.71-4.11,2.29-5.51,4.36.2,6.49,2.21.83,4.77,2.08,2.27,5.22-10.66,1.81-15.9-1.41-18.66-11.46a20.39,20.39,0,0,1,2.84-12.68,33.82,33.82,0,0,0,2-3.09c1.9-4.21,10.32,2,9.56-5.85-.53-5.39,4-7.49,6.94-11.59-7.88-1.93-14.49-.63-20.22,4.24A51.09,51.09,0,0,0,672.59,721c-2.39,3.78-5.12,7.17-9.41,9-1.58.69-2.95,1.49-1.34,3.84,3.85,5.63,3.7,5.75-4.12,6.32-5-1.32-7.81-4.48-8.46-9.56-.59-6.53,2.78-10.65,8.36-13.28,3.13-1.48,5.91-3.48,8.89-5.18,3.32-1.9,5.13-3.59,3.25-8.07-2.18-5.16,4-6.37,6.72-10.51-7.83,1-14.46,3.39-19.4,8.41-5.13,5.2-10.75,9.85-15.81,15.09-1.7,1.76-3.39,3.46-4,6-.93,3.83-3.51,4.28-6.78,2.84a2.83,2.83,0,0,1-.81-1.88c0-.72.43-1.54.21-2.15-3.67-10.12.65-17.42,8.14-23.78,2.42-2.05,5.08-3.83,7.2-6.22,6.63-4.45,12.24-10.27,20-13.23A14.77,14.77,0,0,0,674.6,669c1.25-4.47,7.61-4.52,8.2-9.65-1.91-1-4.57-1.29-5.77-3.72-3.29-4.26-2.9-8.3.17-12.63a28,28,0,0,0,4.29-8.47c1.12-4,3.09-6.65,7.86-5.46a5.66,5.66,0,0,0,4.21-.91c1.48-.85,3.36-1.56,3.44-3.49.1-2.17-1.93-2.55-3.55-3.06-2.1-.66-4.2-1.34-6.23-2.19-1.8-.76-4-1.54-3.57-4,.32-2,2.54-2.67,4.05-2.48,5.34.68,10.66-2,16,0,7,.39,15,0,20.65,2.89,8.22,4.24,16.06,3.43,24.32,3.59a31.83,31.83,0,0,1,14.71,4.16c4.92,2.72-1.06-2.28,1-1.23C765.67,618.48,768.5,620.2,771,620.59Z" fill="#605957"/><path d="M650.89,729.82c.18,4.88,2.85,7.68,7.48,8.84a3.8,3.8,0,0,0,2,.72c2,.41,4.81-1.35,5.81,1.59.87,2.58-1.75,3.77-3.07,5.42-3.66,4.58-7.77,8.85-9.67,14.75a4.69,4.69,0,0,0,5.69-2.2c4-7.54,12.33-11.48,15.77-19.57,1.32-3.09,4.37-6.52,8.48-2.16,1.83,9.53,5.16,11.7,17.87,11.7,4.12-2.48,8.46-3.92,13.35-2.95,6.25,6.4,13.56,9.73,22.78,8.54.09-3.71-4.07-3.15-4.49-5.89,3.91-2.65,7-3.21,10.94.55,7.92,7.62,18.22,7.41,28.36,7.08a7,7,0,0,1,5-2.21c6.62,1.72,12.89,4.74,19.82,5.37,4.93,2,10,1.92,15.2,1.33,11.49,3.49,22.85,6.53,34.63.34,2.7-1.41,6.75-.92,10.06.52a29.41,29.41,0,0,0,14.4,2c7-3.1,9.21-8.62,8.46-15.91-.3-2.85-.33-5.84,1.14-8.54,4.88-2.07,6.74,1.72,7.68,4.86,1.25,4.19,3.69,7.75,5.07,11.81-3.52,2.19-8.47,3.6-5.44,9.52,1.77,3.47-.1,8.39,5.2,10.59,3.22,1.34,3,12.5,0,14.4-2.27,1.43-4.42,1.2-4.47-2.2,0-2.45.33-4.93-2.54-6.25-4.29,10.17-4.43,11.26-2.7,22.73,2.72-1.7,1.58-4.45,2.25-6.5.81-2.47,2.11-4.63,4.79-5.11s3.72,1.88,4.73,3.83c3.25,6.28,8.89,10.31,14,14.9,1.29,3.32,1,6.79.89,10.21-.08,3.87.6,8.62-4,10.14-5.22,1.71-10.74,1.89-15.09-2.72-1.69-1.79-3.29-3.65-4.88-5.52-2-5.4-5.33-5.88-9.47-2.42-5.49,4.58-11,6.47-18.23,3.33-6.48-2.83-12.41.82-18.2,3.54-7,3.31-19,2.26-23.74-3.33-3-3.53-5.6-2.82-8.23-1.34-6.43,3.61-12.78,5.77-20.29,3.54-2.77-.82-5.76.82-8.57,1.69q-.59-.14-1.17-.24c-5.72-5.6-5.79-5.73-14.15-1.19A13.81,13.81,0,0,1,753,828.61c-7.1-2-14-3.11-20.91,2.07-5.56,4.15-24.64-1.8-28.28-8-1.24-2.12-2.56-1.94-4.22-1.54a46.89,46.89,0,0,0-7.74,2.4c-10.91,4.74-19.13-1-27.36-6.81a1.16,1.16,0,0,1-.25-1.28c-.74-1.09-.61-2.33-.63-3.55,0-4.16-1.67-5.91-6-4.21-6.1,2.39-12.57,1.74-18.92,2.24-8.86.71-14.93-3.77-20.64-9.44-4-4-3.6-7.63.63-11.21,2.75-2.33,6-4.15,8.06-7.37-8.77,9.6-20.76,8.91-32.05,9.82-6.25.5-13.27-6.64-14.92-13.73a1.27,1.27,0,0,1,.24-1,63.23,63.23,0,0,1,2.86-6.31c-4.12-3.31-8.28-5-13.24-1.5-2.89,2-6.09,1.71-9.11.07-4.77-2.6-9.28-2.3-14,.45-5,2.94-10.7,3.66-16.45,3.06-1.89-.2-4.72.44-4.7-3q9.51-10.38,19-20.74c1-3.2,3-4.93,6.48-4.71,10.82.66,20-3.23,28.56-9.58A130.84,130.84,0,0,0,605,710.34c2.18-2.8,4.69-5.38,8.63-2.43,3.13,4.32,9.27,2.83,12.75,6.49,1.47,3.11,3.27,6.09,3.92,9.53,0,.47,0,.93.08,1.4,2.06,3.39-1.52,4.61-2.67,6.74-1.26,2.34-3,4.41-4.3,8.18a21.78,21.78,0,0,0,10.47-6.63,34.44,34.44,0,0,1,9.76-7.62C647.94,723.73,650.34,725,650.89,729.82Z" fill="#454141"/><path d="M477.76,732.31l3.17-5.46c.5-3.15,2.6-5.24,4.81-7.26,1.24-1.11,2.39-2.3,3.65-3.4,4.75-4.83,9.18-10,14.27-14.73-4.73,1.23-9.09,1.5-13.71-.21-3.8-1.4-7.11,1-10.09,3.26-8.64,6.65-18.06,4.61-27.47,2.39-.69-.16-1-1-.88-1.8,2.8-4.14,8.25-5.75,10.23-10.67,1.29-3.28,4.84-4.38,6.8-7a16.55,16.55,0,0,1,5.07-3.44c4.67-2.88,9.19-5.82,8.43-12.41-.35-3,1.55-4.38,4.15-5.16,1.81-.54,4-.43,5.39-3-6.07-1.74-11.56-4.74-18.19-3.23-4.42,1-8.73-.33-12.92-1.79a4.53,4.53,0,0,1-1.36-1.62,10,10,0,0,1-.64-2c-1.53-5.93-2.42-12.22-10.74-12.66-2.55-.13-4.29-2.34-4.71-5s1.25-4.08,3.18-5.33c5-3.18,9.71-6.76,16.3-4.24,1.94.74,4.35.38,6.59-.39a47,47,0,0,1-12.15-.8c-1.87-.36-3.28-1-3.49-3.08a8.32,8.32,0,0,1,1.28-3.93,25.91,25.91,0,0,1,1.71-2.56c2.19-3.65,8.92-6.52,2-11.7-1.35-1.43-3.1-1.19-4.82-1.28-2.78-.15-5.94-.5-5.71-4.17.21-3.39,2.95-5,6.14-5.34,4-.48,7.79,1.08,11.73,1.17,1.2,0,2.45.37,3.95-1-3.89-3.68-5.63-7.57-2.65-13.18,2.28-4.27-1-8.9-5.95-9.77-3.6-.63-7.38-1.48-11-.41-11,3.24-20.26-1.11-29.38-6.29-1.59-.91-3-2-2.27-4.07a4,4,0,0,1,4-2.77,12.88,12.88,0,0,1,5.09.78c6.05,2.29,11.9,2.19,17.59-1.06,6.06,1.46,11.43,5,17.63,6.05,1.05-.12.19-1.52.32-.55.06.41-.14.62-.54.49-9.56-3.27-19.12-6.53-28-11.35.77-6.1-2.1-10.18-7.25-13.06-3.43-1.91-5.68-5.31-9.19-7.21-2-1.12-4.89-2.82-3.13-5.56,1.5-2.31,4.49-1.4,6.76-.4,5.36,2.36,10.92,4.26,17.19,8.09-2.8-7.44,0-11.82,5.21-15.11l66.41,29.63c1.49,2.29,3.71,3.82,5.78,5.51,3.17,2.59,1.66,3.77-1.4,4.76s-8-1.8-9,2.24c-.79,3.21,4.28,4.78,6.1,7.61a3.2,3.2,0,0,1,.51,2.07c-1.73,4.93-5.2,6.14-9.79,4.2-3.8-1.61-8-1.79-11.75-3.36,6.6,2.67,14.32,2.62,19.65,8.29,1.16,1.58,2.59,2.93,3.88,4.4s4.34,2.8,3.12,5.2c-1.34,2.63-4.33,1.46-6.71,1.14-6.05-.82-12.05-2-18.22-1.85,5.54,1,11.22.52,16.78,1.86,3.49.85,4.94,2.1,5.41,5.57,1.3,9.7,3.86,11.83,13.82,12.24,1,.05,2,0,2.94.1,2.11.3,4.83-.12,5.52,2.56.55,2.15-1.41,3.48-2.88,4.76a33.9,33.9,0,0,0-4.39,3.9c-3.09,3.83-4.55,7.62.31,11.32,2,1.51,4,3.22,1.86,6.07-6.89,5.5-15.38,7.13-23.51,9.62-2.75.85-6,.76-7.32,4-.39.94-.41,2.16.49,2.67,3.11,1.76,6.11-.11,8.08-1.72,8.32-6.82,19.65-7.18,28.09-13.56,2.58-.79,5.12-3.37,7.82-.24,1.56,3,5.32,5,4.48,9.15-1.38,5.43,1.9,7.33,6.36,8.32,2.9.65,6.49-.38,8.09,3.37.08,6-1.56,12.12,1.71,17.79a18.41,18.41,0,0,0,5,5.32c3.11,2.18,6.8,2.49,10.36,3.11,3.14.54,5.6,1.65,6,5.22a17.52,17.52,0,0,0,1.44,6c1.29,2.9,4.37,4.57,5.33,7.7.31,5.89-3.31,9.55-7.68,12.44-3.75,2.48-7.07,5.2-9.33,9.13a12.35,12.35,0,0,1-5.46,4.77c-.65.33-1.3.68-2,1-18.49,9.21-18.49,9.21-37.32,1.08-1.15-.5-2.6-1-2.91-2.08-1.89-6.8-6.22-3.77-10.84-3.83-9.77-.12-17.61,4-25.84,7.94-4.07,2-8.67,1.32-13.05.64C478.61,734.91,477,734.42,477.76,732.31Z" fill="#443f3d"/><path d="M544.71,638.51c-2.56-2.06-4.07,1.31-6.25,1.2-2.47-.86-5.42-.47-7.31-2.82.83-1.49.51-2.3-1-3.51-7.61-6.19-7.29-11.21.8-17.43,1.72-1.32,4-1.94,5.26-4.74-3.17-1.55-6.55-.66-9.74-.77-9.2-.32-13.8-4.93-13.35-14.13.17-3.31-.92-3.59-4-4.21-5.41-1.07-10.74-.36-16.07-.83-1.92-.18-5.28,1.36-5.37-1.82-.08-2.89,2.62-3.1,5.48-2.94,5.43.29,10.63,1.54,15.87,2.65a20.8,20.8,0,0,0,7.56.4c-2-3.48-6.21-4.88-7.37-8.75,2.75-8.94,4-9.89,13.5-9.45,2.92.14,5.75-1.15,8.74-.19,1.85.59,3.83.81,5.65,1.56,1,.26.65-1.45.51-.48,0,.23-.23.34-.56.22-8.21-3.14-16.87-.55-25.21-1.93-2.55-2.27-5.14-4.48-7.62-6.81-1.22-1.14-2.77-2.42-1.84-4.37.83-1.72,2.59-2.09,4.4-2.09h9.76c-1.45-3.6-8.37-2.94-6.1-8.6,15.33,1.45,29.36,7.15,42.81,14.06,4.91,2.53,10.19.83,14.77,3.35,20.07,11,43.08,14.22,63.7,23.78,1.13,1.79-1.19,3-.73,5.13,3.78-1.65,7-1.45,10.83.85a27.37,27.37,0,0,0,15.46,4c6.19-.35,12.17-.13,17.82,2.69,2.79,1.39,5.79-1.4,8.56.43,8.08-.71,12.65,6,19.06,8.9,1,.76.79,1.68.37,2.63-2.61-1.11-5.28-3-7.32.9-.52,1-2,2.67-2.6,1.29-2.39-5.49-5.7-.84-8.83-.3,3.45,1.2,6.91,2.39,10.36,3.6,2.19.76,5,.56,5.1,4.14.1,2.9-1.64,3.62-3.78,4.56-2.71,1.19-4.68,4.58-8.43,1.73-1.8-1.37-3.68.34-3.74,2.06-.14,4.51-2.83,7.93-5,11.22-2.52,3.78-3.13,7-1.25,11-1.51.81-2.85.17-4.17-.52-8.07-4.23-17.11.87-17.65,10.39-.28,4.94-.67,9.18-5.73,11.71-3.08,1.53-.48,3.18.43,4.67s1.93,3.09.32,4.62-3.3.77-4.81,0c-6.09-3.33-9.88-8.78-13-14.69-1.36-2.58.77-4.08,2.79-5.16,3.43-1.84,7-3.41,10.34-5.58-3.53-1.24-8.46,6-10.68-2-.16-.58-6.37,6-6,7.31,2.18,7.61-2.81,10.7-8.32,13.44a16,16,0,0,0-5.95,5.4c-5.7,8.22-13.65,11.26-23.34,10.69-3.62-2.18-3-5.26-1.66-8.38,2.1-5,4.86-9.65,9.35-13,2-1.47,4.1-2.77,4.94-5.28,1.24-2.66,3.72-3.7,6.2-4.84,6-2.75,6.5-4.63,1.68-8.59-4.22-3.47-4.92-5.46.78-8.17,6.58-3.12,9.77-10.54,8.44-17.65-5.35,12.32-13.14,22.11-25.55,27.6a16.18,16.18,0,0,0-7.68,7.64c-4.28,8.17-11.16,11.13-20,10.67-4.71-1.94-4.72-5.64-3.83-9.81,2.23-10.4,8.92-17.08,17.82-22-5.64,3.21-10.72,7.12-14.44,12.65-1,1.51-1.44,3.87-4.16,3.33-2.38-2.59-5.51-1.12-8.29-1.49-6-.8-8.39-4.41-6.71-10.46,3.1-2.13,2.15-7,6.55-8.86C551.3,638.14,548,639.82,544.71,638.51Z" fill="#6a5f5e"/><path d="M914.21,533.81c4.73-12.9,6.13-26.55,8.22-39.94,2.62-16.8,3.33-33.89,5.17-50.82.95-8.73,2.24-17.45,3.93-26.06,2.13-10.79-1.76-21.27-1.09-31.94.27-2.24,1.86-3.93,2.51-6,1.88-6,.44-9.92-5.24-13.19a8.14,8.14,0,0,1-3.06-3c-2.32-10.34,4-18.74,6.83-27.78s3.89-18.47,6-27.67c.74-3.26,1.45-6.24,5.27-7.08,1.7-.37,3.82-.92,3.92,1.64.4,10.9,6.65,20.39,7.44,31.16a22.21,22.21,0,0,1-.15,2.93c-5-.57-3.23-6-5.86-7.79,2.53,4.14,3.32,9.21,4.33,14.21,1.09,5.38.62,10.65-1.89,17.34,2.26-3.22,3.85-3.52,5.74-2.43a3.63,3.63,0,0,1,1.56,2.77c2.75,6.42.47,12.87,0,19.3-.07,1.05-1.14,1.46-2.18,1.52-3.61-1.88-2.68-6-4.61-8.27a65.7,65.7,0,0,1,5.15,35.93c-.48,3.49-.75,7.28,2.28,10.3,2,2,.56,4.65.72,7-2,9.38,3.7,18.32,1.55,27.71-.48,2.1-.32,4.36-1.86,6.12-4.32.21-3.16-3.53-3.64-5.58-1.33-5.69-1.34-11.64-3.18-17.25-1.36-3-.8-6.23-1.16-9.4,4,12.42.05,24.79.21,37.43.4-3.14-.63-6.2,1-9,5.25-.8,3.43,5,6.16,6.55,1.19,7.1,1.09,14.36,2.59,21.42a7.34,7.34,0,0,1,.12,2.14,13.22,13.22,0,0,1-1.49,3.89c-.84,1.37-1.71,2.72-3.46,3,.38,8.58,3.78,16.56,5,25,.47,3.37,1.63,6.75-.62,10a2.4,2.4,0,0,1-2.09.15c-1.88-2-2.32-4.61-3.16-7a66.55,66.55,0,0,1-5.55-15.51c2.77,11.35,4.4,22.43,6.24,33.5-2,6.22-.13,12.83-2,19.06-1.53,2.63-3.46,3.42-6,1.25-1-1.28-1-2.81-1.08-4.33,0-2.35-.79-4.6-.83-6.31-.31-1.59-1.47-.13-.62-.63.32-.2.6-.06.59.4,0,2.64,1.4,5.21.41,7.9a3.19,3.19,0,0,1-1.44,1.44c-5.5-.6-8.34-4.85-11.22-8.67-2.36-3.13-4.57-5.24-8.92-5.23-5.35,0-9.28-2.8-10.88-8.21A1.79,1.79,0,0,1,914.21,533.81Z" fill="#242626"/><path d="M949.9,994.45c-3.54-5.71-6-11.94-8.62-19.4a64.55,64.55,0,0,1-11.41,19.79c-6.32,7.5-15.38,6.72-20.78-1.63-4-6.16-4-13-4.07-20.16-4-.23-6.15,2.88-8.89,4.49-9.69,5.69-18.2,1.75-19.47-9.53-.65-5.78-1.42-11.65,1.57-18.52-8.16,2-16.08,6.38-21.11-1.39-6.73-10.38-1.26-20,4.69-29.36a15.43,15.43,0,0,0-2.81,0c-5.16,1.2-11,2.63-14-2.83-3.33-6.09-4.27-13-.38-19.67,7.09-12.1,17.22-21.17,28.79-28.84,1.21-.8,2.4-1.63,3.6-2.45,4.1.36,2.76,3.49,2.55,5.58-1,10,1.12,20,.05,30.11-.68,6.5,2.44,12.41,7,17.26a38.25,38.25,0,0,1,13.13,13.44c4,6.76,9.87,10.86,18.41,8.71,3.29-.83,5.73.76,7.86,2.93,4.31,4.39,9.22,7.12,15.67,6.59,3.84-.32,5,2,5.06,5.54,0,4.87-.38,9.77.48,14.52.18-1.34-.51-2.68-.44-4.12.36-5.38-1-10.84.86-16.14a4.45,4.45,0,0,1,4.78-.95c1.13.57,2.3,1.43,2.4,2.59,1.24,14.26,2.6,28.54-2.64,42.39A1.61,1.61,0,0,1,949.9,994.45Z" fill="#1f2122"/><path d="M591.86,694.41c3.26-1.56,6.16-3.59,10.34-1.89,3,1.21,4.56-2.14,6.44-4,4.59-4.42,7.63-10.22,14.4-12.73,2.52-.93,9.15-4.23,3.75-10-1-1-1-2.83.09-3.18,5-1.53,6.35-7,10.3-9.62,2.4,2.64-2.29,5.07.18,6.82s4.46-1,6.68-1.77,4.75-3.36,6.17.24c1.18,3-2,3.29-4,3.95a6.5,6.5,0,0,0-.68.28c-12.35,5.6-12.86,9.16-2.71,18.61,2.65,2.46,2.65,2.46,7.41,3.38,0-.45.25-1.17,0-1.33-5.07-4.05-7.68-7.54,1.32-9.91,2.43-.64,2.94-3.6,2.25-5.66-2.6-7.84,3.94-11.32,7.71-15.74,2.83-3.31,7.1-5.65,11.13-.36,1.1,1.45,3.24,2.11,4.9,3.13,2,2.46,4.94,2.87,8.6,3.28-5.26,7.61-9.81,15.17-16.8,20-7.47,5.14-15.74,9.17-22.83,15a48.41,48.41,0,0,0-20.76,22.15c-4.06-2.71-10.61-.13-13.14-6.12-.26-4.45-3-2.91-4.89-1.69-4.5,2.93-9.37,5.34-13,9.52-17,19.4-38.76,28.73-64.32,29.08-12,.16-23.85-2.75-35.95-2.45-6.58.16-12.94,3.57-19.64,1.24-6.21-5.8-.44-8.78,2.92-12.33,8.54,2.71,16.49,2.26,23.38-4.21,1.06-1,2.36-2.46,3.53-2.45,7.69.1,15.23-.26,22.56-3a2.36,2.36,0,0,1,3,3c-1,4.62,1.63,5.65,5.37,5.6,3.45-.06,5.87,1.37,8.23,4,3.26,3.57,7.28,5.14,11.46.86,2.33-2.39,5.59-2.94,8.54-4.12,5.61-2.23,11.44-4,14-10.57,1.16-2.93,4.38-4.45,7.26-6a14.76,14.76,0,0,0,8.24-12.13,21,21,0,0,0-2-7.07A2.31,2.31,0,0,1,591.86,694.41Z" fill="#57514f"/><path d="M444.06,519c-2.14,1.75-.27,5.49-4.11,6.87-3,1.09-1,3.57.57,5.24,1.17,1.27,2.66,2.74,1.31,4.44s-3.32.12-4.67-.45c-4.94-2.07-9.7-4.56-14.56-6.81-2.16-1-4.24-2.66-8.3-.7,6.36,2.84,10.32,7.45,15.29,10.94,4.31,3,9.52,6.22,5.49,13-7.46-2.28-14.08-6.4-20.8-10.12-8.29-4.58-17.25-8-24.78-13.94-3.73-7.77-9.41-12.42-18.36-14-6.78-1.19-12.66-5.26-17-11a19.08,19.08,0,0,0-8.05-6.29c-12.84-5.2-22.62-14.6-32.59-23.72-2.84-2.6-2.65-2.8-.7-5.27a650.28,650.28,0,0,1,93.28,34.45C418.7,507.57,432.09,511.77,444.06,519Z" fill="#504845"/><path d="M445.44,558.87c-6.23,6.79-13.21,2.73-20,1.4-2-.37-4.71-2.47-5.65.7s2.78,1.58,4,2.73c5.49,5.35,12.75,6.31,19.65,6.65,4.94.25,9.83-2,15.24-1.37,10.13,1.12,13.94,7.18,8.75,16-1.8,3-.65,4.4,1.92,5.69,2.16,1.1,5.09,2.18,3.73,5.26-1.25,2.82-4.13,1.48-6.53,1.4a50.17,50.17,0,0,1-10.13-1.43c-3.16-.76-6.87.42-7.06,3.52-.25,4.27,3.58,2.43,6,2.28,2.24-.14,4.61-.35,4.9,2.87-6.22,3.19-12.35,1.78-18.39-.49-7.68-2.88-8.16-6.14-1.85-11.35-3.1-3.68-10.85-1.6-11.05-8.86,3.6-2.35,7.59.7,12-1.06-8.49-2.89-17.22-3.26-24.56-7.75-7.29-5.21-11.8-13.76-21-16.82-3.19-1.07-6.15-3-9.51-3.79-1.9-.47-4.28-.7-5.41-2.13-8-10.28-21-10.76-31.58-16-6.51-3.21-11.92-7.64-17.15-12.44-1-.94-2.62-2.15-1.13-3.56,1-1,2.78-.68,4.15.14,1.32.5,2.71,1.55,4,1.4,11.66-1.41,22.8,2.23,34.19,3.32,12.19-1.51,21.14,5.5,30.61,11.37a250.94,250.94,0,0,0,38.72,19.3C443.75,556.48,445.83,556.31,445.44,558.87Z" fill="#4b4543"/><path d="M454.39,622.59c3.35,2.88,7.2,3.43,11.41,2.49,4.42-1,4.42-1,8.81,4.4-4,0-7.62.95-10.4-.18-7.15-2.9-12.21.71-17.59,4.13-1.54,1-3,1.88-2.23,4,.63,1.65,2,3.59,3.54,3.37,11.47-1.65,9.91,7.8,12.27,13.91-8.82,1.64-17-.92-25.1-3.87-.92-.34-.31.39-.6-.32-3.41-8.38-12.17-5.67-17.88-8.87-9.83-5.52-20.45-9.46-29.94-15.49-6-3.81-11.41-8.51-18.74-9.85-1.82-.34-4-1.34-2.26-4.07l18.85-6.42c1.33-2,3.25-1.94,5.25-1.46,20.46,4.92,41.55,7.41,61.11,15.8C452.24,620.71,453.67,621.14,454.39,622.59Z" fill="#514947"/><path d="M429.2,584c1.55,2.76,3.68,4.42,7.08,4.38,4.2,0,5.76,3.71,8.63,5.52-2.1,3.56-7.91-.47-7.82,4.26.08,4.41,5.24,3.4,8,5,4.85,2.78,10.17.06,15.13,1.36,5,3.38,6.27,6.64-.1,10-1.18.62-1.86,2.17-2.77,3.29-6.83-1-13.33-3.27-19.85-5.44-1.17-.39-2.73-.71-3.21-1.68-4.37-8.71-11.9-7.94-20-7.73-5.91.15-11-4-16-7.06-1.45-.9-2.6-2.68-4.25-2.83-15.78-1.48-27-12.25-39.91-19.5-4.05-2.27-9.68-2-12.11-7.05,1.67-1.23,3.5-.78,5.32-.51,5.5-1.44,11.22.45,16.71-1.1l14.79-.19c2.28-2.18,5-1.92,7.62-1.06,14.46,4.79,27.45,12.92,41.58,18.48C428.76,582.42,429,583.32,429.2,584Z" fill="#534c49"/><path d="M779.54,828.85c2.45-5.77,8.89-4.76,11.6-3.45,5.14,2.49,8.65.84,12.2-1.54,3.18-2.13,6.71-2.8,10.16-3.89,1.61-.51,3.27-.61,4.36,1.44,3.26,6.1,13.19,9.47,19.17,6.46,8.93-4.5,17.68-9.15,27.83-2.88,2.33,1.44,4.83-.51,6.62-2.07a38.34,38.34,0,0,1,8-5.16c5.27-2.71,6.61-1.75,6.69,4.85.75,1.54-.11,2.65-1,3.76a40,40,0,0,0-3.33,2.71c1-.38,1.64-1.41,2.78-1.31,2.51.55,2.41,2.82,3,4.59,1.94,6.23,5.07,11.51,11.21,14.51.73,4.54-1.43,7.8-4.72,10.56-6.71.48-10.65-2.14-13.66-8.17-2.17-4.34-2.26-9.65-6.21-13.13-6,.19-11.8-.43-16.08-5.43-2.33-2.73-4.68-3.12-7.49-.44-2.64,2.54-5.66,4.68-8.38,7.14-7.17,6.49-13.61,5.62-18.85-2.64-6.1-9.59-7.24-9.75-15.88-2.24C798.59,840.28,787.56,838.83,779.54,828.85Z" fill="#6a5f5b"/><path d="M460.56,657.52c9.88,1.67,20.19-1.06,29.85,3,1.58.65,4.6-.94,4.52,2-.06,2-1.83,4.79-3.79,4.91-5.7.34-8.59.8-6.86,8.3.61,2.63-4.53,9.3-10.81,9.8-15.41-3.78-30-10-45.14-14.71-6.58-2.06-13.74-.67-19.79-4.41-.38-7.26,6.8-6.94,10.37-10.24,4-4,8.62-3.63,13.52-2.2,6.75,2,13,5.26,20.06,6.49C456,661.05,458.71,660.82,460.56,657.52Z" fill="#524b48"/><path d="M664.47,816.68c5.2,2.65,11.26,3.1,16.23,6.54,2.27,1.57,5,.86,7.71-.31a82.47,82.47,0,0,1,13.13-4.44c2.83-.69,6.19-1.34,4.37,4.15-1.61,4.89,3.65,3.91,5.6,4.11,4.42.45,8.67.49,12.47,3.37,2.84,2.15,6.63.65,8.08-1.19,6.09-7.69,13.79-4,20.24-2.47,4.75,1.12,8.22,1.7,12.05-1.31a21.05,21.05,0,0,1,3.92-2c8.94-4.33,9.56-4,10.1,5.51a24.86,24.86,0,0,1-22.22,7.4c-8-1.37-15.31.52-22.69,1.78-9.88,1.67-17.9-1.07-24.36-7.92-3.08-3.27-4.66-2.43-7.73-.51-12.8,8-27.68,5-35.52-6.59A7.51,7.51,0,0,1,664.47,816.68Z" fill="#6a5f5b"/><path d="M579.76,778c8.63,17.39,32.06,14.76,50.61-.83.06,6.56-4.73,9-8.72,12.17-7,5.52-6.77,5.7-.32,11.92,10.63,10.26,23.51,8.29,35,4.5,8.61-2.83,8.4,0,8.08,6-.07,1.22-.15,2.44-.22,3.66l-1.9-6c-4.11,1.83-8.18,3.76-12.33,5.49-10.2,4.24-25.63,1.13-33.3-6.57a7.88,7.88,0,0,1-2.45-5.17c-.46-8.29-4.37-7.62-10.32-4.63-7.35,3.69-15.09,1.36-22-1.39C574.57,794.23,574.14,786.76,579.76,778Z" fill="#675b57"/><path d="M474.84,744.64a112.35,112.35,0,0,1,30.57-3.24c5.54.16,11,1.3,16.46,1.87A85,85,0,0,0,570.71,734c8.95-4.64,16.53-11.4,23.06-19,4.64-5.43,10.75-8,17-10.69,2-.87,3.43-.48,4.25,1.38,1,2.14-.05,3.23-2.31,3.3-2.35-2.4-3.6-.84-5.12,1.17a124.67,124.67,0,0,1-29.1,27.42c-8.24,5.66-17,11-28,8-2.87-.77-3.69,2.85-6,3.43q-28,0-55.93,0C483.46,748.94,478.76,748.08,474.84,744.64Z" fill="#92807a"/><path d="M884.61,626.49c-5.61.27-10.14,3.62-14.43,6.35-4.73,3-9.15,3.41-14.29,3.12-7.34-.4-14.72-.12-22.06-.55-2.15-.13-8.15,2.61-4.82-4.46.63-1.32-2.18-1.13-3.51-1.38-3.66-1.6-7.76,0-11.4-1.49-2.45-1-6.1-.46-6.41-4.52,3.2-1.8,6.34.11,9.14.79,15.53,3.77,31,5.29,46.83,2,10.31-4.64,12.59-15,17.08-23.79,2.25-4.41,2.69-9.74,6.76-13.23,2.68,1.5,4.25.71,5.73-2,2.06-3.79,5.76-3.13,8.17-1s.5,6-1.29,6.9c-8.16,4.17-7.33,11.35-6.81,18.32.16,2.19-.37,3.63-2,4-2.8.6-1.92,1.7-1.95,3.85,0,3.66-3.92,2.51-6.45,3C884.91,623.2,888.83,623.24,884.61,626.49Z" fill="#a0887e"/><path d="M334.75,520.47l-2.93.37c12.09,11.92,17.35,14.86,32.76,19.28,5.53,1.59,11.54,2.7,14.34,9,.82,1.84,3.07,2.19,5,2.77,11,3.39,21.65,7.34,28.56,17.48,1.19,1.74,3.2,2.93,4.83,4.37-2.56,2.1-5.3,1-7.6-.12-17.22-8.72-35.88-14.39-52.43-24.53-10.6-6.49-20.17-14.65-31.79-19.51-4.5-1.36-4.89-5.27-4.13-8.59.89-3.92,4.69-1.94,7.29-1.94C330.72,519,333,518.72,334.75,520.47Z" fill="#645853"/><path d="M445.44,558.87c-20.65-7.41-39.72-18-57.93-30-4.87-3.21-10.26-.7-14.61-3.71l7.05-.35c-11.24-6.2-21.45-11.87-31.7-17.47-16.95-9.25-32.7-20.11-46.24-33.95,5-3.39,9.1-.14,12.59,2.54,16.85,12.91,33.48,26.09,52.41,36,8.21,4.31,16.47,8.62,23.69,14.57,12.26,6.55,24.48,13.15,36.79,19.61,2.81,1.48,5.64,2.79,7.59,5.41,10.09,2.72,18.86,8.43,28.38,12.58C456.92,564.2,451.51,560.37,445.44,558.87Z" fill="#a08c83"/><path d="M454.39,622.59c-1.91-.32-4-.24-5.7-1-19.44-9.16-41.17-9.65-61.3-16.19-.82-.27-1.9.26-2.86.42-7.31-7.57-17.77-10.52-25.59-17.32-4.64-4-11.41-5.56-14-11.93,6.48-1.35,12,1.11,17.32,4.33,16.82,10.25,34.1,19.72,53.61,23.57,12.37,2.43,23.23,9.06,35.57,11.29,1.9.34,4.58.54,4.63,3.61Z" fill="#9b877f"/><path d="M456,619.34c-2.62-3-6.44-3.35-9.9-4.36-15.47-4.47-31.05-8.58-46.43-13.3-13.6-4.17-25.89-11.26-37.73-18.94-5.34-3.47-11.55-3.71-17.07-6.2-1.49-3.17-5.93-5.53-2.81-10,13.52,4.13,24.38,13.19,36.62,19.69,4.32,2.29,8.12,5.41,13.54,3.87,2.57-.74,3.77,1.79,5.55,3,7.73,5.19,15.26,11,25.67,7.32,3-1.08,6.76-.3,7.6,2.76,2.19,8,9.16,8,14.95,10,3.9,1.32,8.24,1.47,11.35,4.67Z" fill="#6b5d57"/><path d="M460.56,657.52c2.12,4.6.62,6.4-4.35,5.72-7.85-1.08-15.15-4-22.41-6.91-5-2-9.9-2.5-14.89-.17,2.38-4.72-2.52-4.1-4.15-4.78-8.75-3.64-18.29-5.25-26.48-10.42-7.79-4.93-15.95-9.37-21.56-17,3.86-3.52,7.59-1.89,11.41.18,13.33,7.24,26.45,15.09,40.7,20.31,12.28,4.5,24.32,10.46,37.94,10.36a4.21,4.21,0,0,1,3.23,1.52A3.61,3.61,0,0,0,460.56,657.52Z" fill="#9e8a81"/><path d="M874.2,836.13c4.78-3,3.77,1.94,4.37,3.53,2,5.36,2.93,11.06,8.27,14.78a10.45,10.45,0,0,0,6.64,2c.6,5.24-2.76,9.14-4.66,13.5-3,6.95-5.31,13.73.32,20.54a6.36,6.36,0,0,1,1.32,5.55c-1.3,5.13.07,10.16.31,15.23-1.06,3.13.1,7.48-4.69,8.57-6.71-4.74-9.17-11.89-8.4-19.3,1.17-11.34-3-22.71.6-33.95.12-.37-.84-1.08-1.29-1.64,7.18-5.68,3.29-12.35.79-18.12A70.24,70.24,0,0,1,874.2,836.13Z" fill="#867873"/><path d="M325.47,529.56c5.1-.84,9.13,1.62,12.84,4.48,23.16,17.87,50.13,28.36,76.78,39.46a7.51,7.51,0,0,0,2.2.22c7.78,3.67,16.28,4.92,24.5,7.08,1.63.43,3.75.36,3.28,2.88-.36,1.93-2.18,1.6-3.58,1.67A38.06,38.06,0,0,1,429.2,584c-14.66-4.22-27.29-13.09-41.64-18.06a24.17,24.17,0,0,0-8.65-1.21c-7.85-5.87-17.53-8.42-25.61-13.77C343.53,544.51,333.46,538.35,325.47,529.56Z" fill="#9e8a81"/><path d="M451.51,705.1c10.48,2.08,21,4.92,30-4.17,1.89-1.91,5.16-3.13,7.51-1.94,6.21,3.16,12,1,18.33-.24-4.53,7.79-11.59,13-17.69,19.13-12.51-1.53-25-2.72-37.64-1.43-2.11.21-4.17,1.72-6.26,0C440.54,709.07,448.65,708.4,451.51,705.1Z" fill="#58504d"/><path d="M460,656.31c-22.11-1.75-42.54-8.6-61.72-19.64-7.49-4.32-16-6.6-22.95-12.2-2.25-1.82-5.69-.73-8.61-.53-2.3-3.74-4.85-7.45-1-11.73.16.46.26,1.3.48,1.33,14.48,2.09,23.18,16,37.6,18.29,1.95.31,3.7,2.25,5.4,3.61,5.52,4.45,11.55,7.26,18.82,5.56,2.67-.62,5.95-1,4.9,2.51-1.51,5,1.76,5.1,4.56,6.33,7.25,3.21,15.33,2.48,22.76,4.84C460.13,655.23,460.07,655.77,460,656.31Z" fill="#6f615c"/><path d="M390.7,526.54C381.83,523,373.78,518,366,512.67c-4.64-3.18-9.92-5.17-14.82-7.86-13.14-7.21-23.78-17.61-35.79-26.23-4-2.91-8-5.63-13.34-5.16-2.6-2.63-2.54-6.92-.61-8.26,3.66-2.55,7.68.59,11.39,2.09,1.67,6.69,8,9.12,12.46,13.18,7,6.42,14.7,12,23.92,15.15a11.52,11.52,0,0,1,5,4.15c6,8.17,14.15,12.24,24.05,13.64C385.7,514.42,387.51,521.23,390.7,526.54Z" fill="#6d5f59"/><path d="M469.11,688.52a16,16,0,0,1-7.37,5.91c-9.64-4.13-20.41-4.53-29.94-9-4.6-2.16-9.23-4.26-13.83-6.43a7,7,0,0,1-3.74-5.1c3.39-3.1,7.48-2.52,11.16-1.35q19.61,6.21,39.35,11.9C466.74,685,469.24,685.48,469.11,688.52Z" fill="#99857d"/><path d="M525.39,769.69c7.35,3,14.61,1.82,21-2,5.15-3.12,9.48-3,14.39-.37,1.48.8,4,2.22,4.61,1.69,6-5.1,12.27-4,18.85-1.61.92.33,2.64-.69,2.61,1.07,0,.9-1.45,1.76-2.23,2.63-4.86,3.32-10.41,3.87-16.1,4.44-12.39,1.23-24.86.14-37.24,1.49-2.88,2.7-6,2.55-8.4-.22C520,773.48,523.42,771.68,525.39,769.69Z" fill="#5b524e"/><path d="M469.11,688.52c-11.58-3.38-22.76-8-34.64-10.52-6.73-1.45-12.87-5.64-20.24-4.12-2.39-2.12-5.66-3.57-5.69-7.48,14.49-2.13,26.75,6,40.16,8.86,8.73,1.85,16.84,6,24.77,10.27Q471.28,687,469.11,688.52Z" fill="#6c605b"/><path d="M683.69,603c-4.27.75-8.2,1.48-12.74-.57-3.38-1.52-8-.11-12-.47-7.27-.65-14.64-1.17-20.49-6.49-1.17-1.05-2.57-.94-3.91.34-2.25,2.13-4.93,1.48-8.3.63l5.54-6.56c13.41,1.93,26,7.13,39.26,9.69C675.3,600.38,679.47,601.82,683.69,603Z" fill="#8e7a73"/><path d="M703.12,614.51c-.13-.87-.25-1.75-.37-2.63,7.9-2.47,15.33.94,22.66,2.55A180.49,180.49,0,0,0,766.27,619a6.07,6.07,0,0,1,4.71,1.61c-7.66-.68-3.92,4.1-2.27,8-8.44-4.93-15.54-8.67-24.61-6.66-5.41,1.2-13.82.62-16.16-1.74C720.26,612.45,710.67,618.71,703.12,614.51Z" fill="#9d867c"/><path d="M486.64,720.68c-2.87,1.17-2.48,5.33-5.71,6.17-10.67-.57-21.62.32-31.26-5.8,3.21-3.58,7.4-4.77,12-4.36a111.51,111.51,0,0,0,20.59.21C484.45,716.69,488.26,715.89,486.64,720.68Z" fill="#99857e"/><path d="M914.21,533.81a1,1,0,0,1,.4,1.07c3.13,6.1,2.2,14-.83,17.67-3.72,4.47-4.27,9.92-7.69,14a7.92,7.92,0,0,0-3.47,4.4c-1.82,2.22-3.83,3.25-6.38,1.06C898,557.33,908.33,546.6,914.21,533.81Z" fill="#b29a8e"/><path d="M807.69,623.56c5.4,3.61,12,3.69,17.81,6-5.31-.08-10.27-.57-13.85,5.34-3.27,5.41-7.48,4.58-9.13-1.87-1.34-5.22-4.2-6.32-8.66-6.34-5.22,0-9.63-2.52-14.12-4.75,5.48-.94,10.21,2.6,15.74,2.41C799.57,624.23,803.63,624.07,807.69,623.56Z" fill="#7d6e6b"/><path d="M486.64,720.68c-.26-3-2.12-2.4-4.2-2a50.63,50.63,0,0,1-20.91-.12c-4.53-1.09-7.61,3.17-11.86,2.51q-1.94-2.31-3.89-4.61c8.15-3.55,16.46-3.74,25.08-1.76a20.61,20.61,0,0,0,9.43-.29c4.25-1.11,7.11.06,9.39,3.49Z" fill="#736560"/><path d="M531.25,777c5.4-3.61,11.84-2,17.56-2.52,11.94-1,24-.76,35.77-3.41-1.36,2.08-1.9,4.8-4.58,5.86-4,0-8.21-.57-12.1.21A90.48,90.48,0,0,1,531.25,777Z" fill="#81726d"/><path d="M887.61,589.8c-5.23,12.15-7.79,25.7-18.73,34.87-1.69,1.41-3.11,2.24-5.22,1.71,10.16-8.84,11.44-22.49,18.15-33.21,1.36-2.16,1.29-5.27,4.31-6.31,1.44-1.23,2.51-.81,3.33.73A2.2,2.2,0,0,1,887.61,589.8Z" fill="#c5aea3"/><path d="M924.65,362.85c12.4,4.27,14.9,13.84,5.79,22.2C927.67,377.87,923,371.19,924.65,362.85Z" fill="#806f6a"/><path d="M978.78,952.83c-.85,2.12-.39,4.83-2.84,6.22-.76,2.94-4.32,4.76-3.38,8.38l-.76-.07c-4.46-3.08-.47-6.62-.38-9.87a48.88,48.88,0,0,1,2.93-16.78c2.3,1.56,1.53,3.19,1.88,4.52C977.65,947.57,977.68,950.38,978.78,952.83Z" fill="#1f2122"/><path d="M979.68,545.47c1.61,7.37.77,14.86,1,22.29-2.33,1.74-3.74,4.38-6.08,6.1-1-3.48-3.47-6.94,2.1-9.39,2.19-1,1.06-4.47.92-6.85-.27-4.59-.7-9.16-1.06-13.74,1.37-1.11-.84-4.3,2.5-4.28Z" fill="#857775"/><path d="M896.24,572c2.66.25,5-.09,6.17-3,2.27-1.33,3.74-.31,4.49,1.81.64,1.83-4.77,12.65-6.59,13.31a3.1,3.1,0,0,1-4.4-2.47c-.62-2.92-1.51-1.05-2.45-.38a1.79,1.79,0,0,1-1.73-.58C892.35,577.4,891.1,573.08,896.24,572Z" fill="#ad968b"/><path d="M961.4,384.73c-2.14-1.42-.72-4.05-2-5.78-1.53-.34-.19,6.26-3.57,1.47-.06-6.84,3.16-13.49,1.25-20.44.52-.73.95-.64,1.3.14C961,368.14,963.49,376.16,961.4,384.73Z" fill="#806f6a"/><path d="M959.32,339.87c1.55,5.15,5.16,10.19.71,17.16-1.26-6.95-5.77-12.23-.89-18.14A.82.82,0,0,0,959.32,339.87Z" fill="#242626"/><path d="M963.87,415.07c-3.74-6.52-2.64-13.77-3.18-20.78a3.08,3.08,0,0,0,.23-1.31c4.12.48.84,4.45,2.82,5.94C963.58,404.31,968,409.66,963.87,415.07Z" fill="#242626"/><path d="M977.62,934.93c1.51-1.42,1.85-2.8-.11-4.13-1.07-2.83.56-4.07,2.9-4.89a2.63,2.63,0,0,0,1.15.62c-.34,4.5-.67,9-1,13.73C976.26,939.75,977.67,937,977.62,934.93Z" fill="#756a66"/><path d="M891.73,580.76l1.78.21c.67,3.76.66,7.12-4.5,7.33a2.63,2.63,0,0,0-2.89-1.44C887.54,584.41,886.12,579.38,891.73,580.76Z" fill="#a0887e"/><path d="M979.07,539.6l-2.5,4.28c0-3.38-.13-6.76-.1-10.13,0-2.23,1.12-2.35,2.69-1.15Z" fill="#242626"/><path d="M967,360.88c1.35,4.2.56,7.38.48,11.23C964,368.36,963.61,365.15,967,360.88Z" fill="#806f6a"/><path d="M364.12,564.94c-5.43,2.5-11.12,1-16.71,1.1C352.85,563.84,358.52,564.84,364.12,564.94Z" fill="#6b5d57"/><path d="M889,588.3c3.62-1.15,2.65-5.1,4.5-7.33.26-2.1,0-5.32,2.74-5,3.08.31.91,2.9.64,4.57a2.33,2.33,0,0,0,1.73,2.8c2.15.6,1.28-1.49,1.74-2.33,1.49-2.69,3.19-5.24,4.58-8,1.93-3.84-.64-3.31-2.53-3.89-1.94-3.88,1.73-2.13,2.91-2.87,6.7,1.44,13.55-1.88,20.2.63.31.12.48.81.88,1.1-.06-.73-.63-1.17-1-1.73-2.25-3.31.07-4.2,2.48-3.61,4.1,1,10.92-1.58,10.33,6.71-.06.87.38,1.62,1.12,1.43,5.18-1.34,5.92,3.63,8.59,5.85,2.37,9.48,1.5,19.66,5.57,28.79,2.85-.67,1-3.52,3.31-4.23,1.57,9.8,4,19.43,3.09,29.43.52,7.71-2.16,15.41,0,23.14a12.42,12.42,0,0,1-.71,8.63c-4,8,0,14.94,2.2,22.23,3.58,11.67,5,23.71,5.58,35.86a3.71,3.71,0,0,1-3.63,2.36c-3.81-2.13-6.81-4.75-6.6-9.66.5-11.76-3.11-22.68-6.93-33.56-.21-3.92.17-7.85-.55-11.75,1.51,4.89-.67,10,1.33,14.9,2.1,5.82,5.21,11.45,3.24,18-3.58,3.93-9.32-1.37-13.11,3.6,6.5-.46,8.82,3.33,8.83,8.88,0,4.52-2.91,6.22-6.73,3.67a31,31,0,0,0-12.18-4.68c-9.3-1.67-10.72-6.26-4.51-13.64,1.24-1.47,2.86-2.66,3.47-4.46-.94-1.54-2.23-1.3-3.38-1.06-8.37,1.76-9,1.22-7.43-7.62.49-2.89,1.1-5.72.52-8.7s-2-4.34-5.07-2.94c-3.14-1.06-5.51-4.09-8.85-3.2-2.68-2.55,7.33-5.11-.57-7.39a11.47,11.47,0,0,1,4.4-2.62c6.58-1.2,11.31-4.84,15.41-10.57-3.22-1.33-5.55,1-8.05.65-.13-.51-.25-.94-.35-1.38-1.38-6.31-.61-10.42,7.49-7.59,1.68.59,2.55-1.18,3.19-2.39a2.93,2.93,0,0,0,0-2.66c-1.47-1.58-2.48.35-3.74.77a10.77,10.77,0,0,1-3.5.4c-8.54-.18-14.94,2-14.34,12.37a5.22,5.22,0,0,1-3.5,5.17c-2.16.91-2.89-1.42-4-2.45-1.59-1.41-1.59-3.1.67-4,7.67-2.91,4.62-6.09-.54-9.24,3.17-1.73,6.66-1.06,8.81-4.63-7.48,1-9.82-2.26-7.79-8.9.51-1.7-1.18-4.08,3.28-2.7,2.83.87,6.89-3.32,9.78-6.14a2.09,2.09,0,0,0-.39-1.79c-.86-.23-2.18-.44-2.7,0-4.81,4.35-10.84,4.88-16.83,5.61a3.21,3.21,0,0,0-2.82,2.92c-.55,2.67,3.16,1,3.18,3.71-2.69.25-5.39,1.25-7.8-1.29,1.67-5-3.33-1.59-4.33-3.53,2.3-1.86,5.46-1.91,8.17-2.87-.59-3.14-5.12-.3-4.59-3.54.44-2.71,3.16-1.47,4.92-1.67,1.49-.18,2.92-.24,3.82-1.66-5.86-2.4,3.25-7.49-1.81-10a3.4,3.4,0,0,1-2.35-3.11c4.48-.66,5.77-5.78,10.07-7.4,1.59-.6.14-4.11,2.59-5.09-.82-.28-1.64-.54-2.46-.83-2.69-1-4.2.25-4.84,2.74-1.76,6.75-3.95,3.63-6.19.31Z" fill="#766d6a"/><path d="M881.77,738.54c0,4.84,0,9.67-.09,14.5-.12,7.71-2.44,10-10.4,10.56-1.39-3.18-4.22-3-6.94-2.87-4,.16-7-1.67-9.85-4.24-4.23-3.8.7-6.38.75-9.21.08-4.45,2.45-8.85,1.11-13-1.48-4.62-6-6.28-10.43-7.19-2.84-.58-4.09-1.15-3.55-4.72,1.4-9.34-.08-18.29-5.39-26.46-2.32-3.58.16-7.14,1.6-10.24.81-1.72,2.37.16,3.15,1.4a29.68,29.68,0,0,0,16.1,12.27c4.19,1.42,5.1,3.93,4.62,7.74a79.12,79.12,0,0,0-1,10c0,3-3.1,5.9-.3,9,2.41,2.64,7.93,4.55,13.33,4.56.09-1.59-1.08-2-2.26-2.26-5.32-1.32-10-2.38-5.66-9.87,2.69-4.61-2.18-9.4-2-14.61.16-4.55,1-5.83,4.85-3.62,5.18,3,11,3.89,16.47,6,3.23,1.26,4.26.38,5.44-2.27.53-1.21,2.56-2,1-3.6s-2.57.15-3.63,1c-4.06,3.12-6.23,2.63-7.53-2.81-1.19-5-4.16-9.3-10.2-12,10.15-3.39,13.58,4.55,19.87,8.08-1-5.15,1.08-10.61-1.89-15.71-.75-1.29-1.87-2.61-.76-4,1.75-2.19,3.53-.2,5.28.33,2.13,2,7.4,2.74,3,7.36,4.09,6.28,7,12.87,5.91,20.63,3.62,1.09,3.87,3.6,3.48,6.91-.59,4.93-.15,9.6,4.44,13.08,3.67,2.78.44,4.43-1.62,6.07-3.88,4.1-1.22,7.7,1.27,10.84,1.79,2.25,3.81,4.4,1.54,6.84-2.69,2.88-4.7-.37-6.72-1.76-2.18-1.49-3.52-4-6.13-5-3-1.44-7.11-.79-9.33-3.59C885,731.19,883.25,733.84,881.77,738.54Z" fill="#55504f"/><path d="M908.29,728.31c-.45-1.29,4.88-1.36.38-4-5.4-3.13-6.16-9.29-4.31-14.73,1.13-3.32-1.42-4.26-2-6.36,2.4-8.26,4.66-16.57,11.5-22.63,2.32-2-.34-4.59.32-6.86.19-2.14.95-4,3.38-4.08,3-.09,2.07,2.7,2.86,4.29,3.24,6.48-1.5,12.78-.64,19.12,1.91.7,2.13-1.31,3.25-1.49,3.18-.51,7.24-2.69,9.3.25,2.19,3.12-2.33,4.69-4,6.79-2.09,2.63-5.82,4.9-4.26,8.56,1.29,3,5.06,3.29,8.39,3.48,4,.23,7.71,1.29,10.62,4.35.93,1,1.86,2.69,3.59,1.77a3.32,3.32,0,0,0,1.23-4.55c-1.39-2.65-.17-9.45-6.94-4.93-1.09.73-3.38.79-3.8-.87A4.63,4.63,0,0,1,940,701c4-1.41,8.33-2.23,12.21.8,5.5,10.36,7.18,21.39,6.08,33-.28,2.87-2.9,6.1.83,8.63a5.28,5.28,0,0,1,1.72,1.39,6.78,6.78,0,0,1,.84,2.07c1,4.2-1,8.22-.72,12.39.06,1.17-.13,2.57-1.71,2.8-1.38.2-2.25-.78-3-1.75a20.33,20.33,0,0,1-2.32-4.58c-3.09-7.08-2.82-15-5.5-21.11a48.28,48.28,0,0,0,2,16.89c1.1,3.81,1.91,7.64.24,11.51-1.9,1.32-4.64,1.42-5.77,3.88-5.28-3.34-1.69-8.72-3.25-12.58-.6,1.16.43,2.92-.25,4.5-6.53-5.75-13.73-3-20.88-1.75-3.13.57-6.27-.18-7-3.71-.81-4.11,2.84-4.81,5.62-5.24,7.19-1.13,14.65-.25,22.31-2.95-1.2-2.51-4-3.5-4.73-6.05s0-4.87-.51-7.95c-5.18,2-9,.77-11.68-4.42-1.83-3.51-4.46-3.88-5.84.75-1.09,3.65-3.24,6.05-7.34,5.89C907.86,733.27,906.17,731.89,908.29,728.31Z" fill="#68605d"/><path d="M776.7,754.83c-1.1,1.73-2.85,1.42-4.5,1.41-2.27-4.42-6.43-2.63-9.89-2.86s-7.38-.58-8.75-4.17,2.11-5,4.56-6.56,2.19-3.87,1.85-6.5c-1.49-11.7,1.34-11.5,9.09-19,7.51-7.3,10.66-4.49,16.67-.1,2.62,1.92,6.56,6,10.91,1.56.41-.42,2-.22,2.65.23,1,.68.06,1.63-.15,2.53-3.68,15.42-4.95,26.78,9.61,36.72,1.2.82,2.29,1.79,3.44,2.69-4.94,3.95-9.87,2.77-14.8,0,.16-.18.29-.47.49-.53.78-.22.83-.87.17-.84A28.39,28.39,0,0,1,786,757c-8.18-3.37-13.92-8.81-15.22-18.11C770.17,745.32,776.15,749,776.7,754.83Z" fill="#534e4d"/><path d="M683.39,737.21c-4.7-1.2-7.76.06-7.49,5.42.12,2.33-.52,4.18-2.68,4.51-4.93.77-6.76,4.55-8.69,8.2-3,5.65-7.61,8.59-14.71,9.26,3-9.36,8.74-16.31,15.3-22.83-1.23-3.2-5.32-.4-6.75-3.11,1.66-.2,3.46.37,5-.86.38-2.44-1.64-1.85-2.84-2.26-4.66-1.61-3.83-5.18-.61-6,9.35-2.32,11.77-11.2,17-17,8.5-9.4,17.72-11.85,29.61-8.61-2.47,2.71-4.72,5.11-6.87,7.59-1,1.2-2.49,2-2.07,4.27,1.15,6.35-1.31,8.57-7,6.53-2.1-.74-2.84.84-3.27,1.88C685.58,728.38,682.46,732.21,683.39,737.21Z" fill="#544e4d"/><path d="M650.89,729.82c-1.2-3.51-3.66-4.2-6.58-2.43-3.54,2.15-7,4.37-9.54,7.9-2.32,3.25-6,4.9-9.56,6.56-1.32.61-2.79,1.7-4.07.53-1.78-1.64,0-3.24.78-4.51,2.67-4.27,5.59-8.37,8.41-12.54,2.76-.11,6.07,1.06,5-4.28-.61-3.19,3.65-4.36,5.61-6.13,9.68-8.7,17.41-20,31.66-22.95,3.33-.68,4.79,0,7,1.67-1,2.77-4,3.34-5.83,5.08-2.57,2.38-5.27,3.84-.74,7,2.76,1.93.67,4.3-1.23,5.2-4.64,2.21-8.16,6.1-13.16,7.83S650.26,723.9,650.89,729.82Z" fill="#544e4d"/><path d="M714.61,746c-4.23,2-8.57,3.44-13.35,2.95-1.17-3.27-4.39-2.55-6.78-3.49-4.38-1.7-4.7-5.36-.91-6.76,8.21-3,9.46-11.11,13.79-16.8,5.53-7.27,17.65-13.42,26.77-11.91-.59,2.61-2.9,3.84-4.55,5.52-2.33,2.36-4,4.13,0,6.7,3.8,2.41,1.18,5.06-.71,7.27C724.18,735,719.38,740.46,714.61,746Z" fill="#514c4b"/><path d="M625.81,715.06c1.79-12.16,10.85-17.55,20.76-22.15-3.67,3.42-7.37,6.81-11,10.27-5.24,5-7.4,10.63-3.46,17.41,1.34,2.31.19,3-1.83,3.34C627,721.84,626,718.66,625.81,715.06Z" fill="#7d7270"/><path d="M896.48,682.62c2.32-3.77-2.35-4.76-3-7.36,4.76.87,9.53,1.71,14.29,2.65.84.16,2.28,0,2.21,1.29a4.46,4.46,0,0,1-1.47,2.17C904.21,679.06,900.54,682.81,896.48,682.62Z" fill="#68605d"/><path d="M898,846.15c-2.47,1.58-4.2,1.39-6-1.35a51.53,51.53,0,0,1-7.25-16.41,2,2,0,0,1-.11-2.91c.53-1,1-1.91,1.57-2.87a4.59,4.59,0,0,1,4.51,3.16c2.82,7,9.25,4.73,14.37,5.27,2.59.27,3.26-2.48,3.26-4.85q0-7.7,0-15.39c-3-4.58-3.08-9,.67-13.26,3.9-1.57,8.39.4,12.32-2.79,2.6-2.12,4.79,2.37,7.79,2.79-3.76-1.92-6.66-4.35-6.81-8.82,1-3,3.12-2.52,5.12-1.33s3.81,1.92,6.06,1.22c4.84-.77,9.83-5.07,14.39.62,1.48,6,4.1,11.67,4.18,18a6.25,6.25,0,0,1-3,3c-1.21.7-2.43,1.38-3.6,2.15-3.27,2.72-6.83,1.73-10.13.45-1.53,1.93-.55,3.68-.68,5.33s-.38,3-2.08,3.52-2.75-.5-3.92-1.45c-1.68-1.36-2.23-5.51-5.41-3.31s-7.87,3.54-8.43,8.57c-.27,2.44,0,4.91-.43,7.34-.54,3.23-2.11,6.05-5.76,5.17C901.23,836.19,899.16,840.45,898,846.15Z" fill="#292b2c"/><path d="M909.8,797.57c-2.73,4.16-1.28,8.79-1.5,13.23-1.76.7-3,1.81-4.7-.95-3.08-5.08-9.36-7.83-10.64-14.44-.36-1.83-2.14-1.86-3.42-.44-1.62,1.81-2.54,3.33-1.67,6.39.64,2.25-1.42,6.92-4.4,7-2.57.09-2.23-3.87-2.62-6.48-1-6.74,1.33-13.17,1.28-19.83,0-2.85,3-4.52,6-2.26,3.26,2.54,4.52,5.92.86,11.54,6.27-5.63,6-12.29,1-14.53-2-.91-2.27-2.3-2.33-4.06a20.41,20.41,0,0,0-.91-6.49c-3.28-9-2.57-9.95,6.82-10l1,.37c2.47,2,2,4.66,1.55,7.28,2.67-3.31,5.74-3.37,8.78-.85,3.68,3,7.39,6.08,10.28,10a6.21,6.21,0,0,1-.42,2c-2.84,4.7-1.15,9.44.08,14.06S915.31,797,909.8,797.57Z" fill="#534f4e"/><path d="M881.77,738.54c-.32-1.65-.67-3.3-1-5-.32-1.91,1.23-2.46,2.47-3.12s3.32-1,3.83.59c2,6.12,8,5.45,12.26,7.6,1.78,1.55,1.8,3.9,2.7,5.85,3.14,6.83-.06,11.2-8.54,11.77h0c-3.28-2.56-6-5.36-6-10C887.57,742.37,884.39,740.61,881.77,738.54Z" fill="#2a2c2c"/><path d="M776.7,754.83c-4.93-6.29-10.49-12.4-5.86-23.18,2.45,8.87,3,16.84,10.94,21.42,7,4,14.44,4.94,23.56,5-3.19,3.39-5.77,2.24-8,2.63C789.87,760.93,783.15,758.33,776.7,754.83Z" fill="#726968"/><path d="M568,673.78c10.22-.25,17.16-5.18,21.15-14.5a5.34,5.34,0,0,1,2.64-2.35c13.52-6,23.31-15.56,28.3-29.68a7.52,7.52,0,0,1,1.74-2.35c.28-.3.85-.33,1.11-.43,3.86,8.28.18,14.84-4.66,21.32-1.31,1.75-2.48,2.84-4.63,3-1.38.08-3.35-.25-3.32,1.85,0,1.68,1.63,2.33,3.17,2.46,4.84.39,3.65,4.73,4.43,7.33,1.11,3.65-2.93,3.23-4.85,4.07-2.91,1.27-6.2,1.72-8,4.79-.93,2.6-3.7,2.94-5.5,4.48-4.62,3.95-9.14,8-10.55,14.35-.35,1.58-.58,3.48-2.9,3.57.12-3.33-1.5-4.32-4.81-4.77-4.09-.54-8.88,0-11.72-4.23.64-2.69-1.14-4.72-2-7A2.32,2.32,0,0,1,568,673.78Z" fill="#5a5352"/><path d="M531.15,636.89c2.71.23,5.84-.61,7.31,2.82C528,646.58,515.64,649.49,505,656c-2.07,1.27-4.91,2.54-5.83-1.18-.64-2.59-1.77-5.55,2-7.59,5.38-2.93,11.6-2.65,17.18-5.32A102.54,102.54,0,0,1,531.15,636.89Z" fill="#80736c"/><path d="M511.87,570.54c9.92-3.12,22.18-1.63,30.53,4-11.87-.59-24.65-7.6-33.16,6.32-3.76-3.78-8.87-4.61-13.69-5.64a22.33,22.33,0,0,1-10.27-4.53c6.61-3.55,11.5,1.41,16.66,2.63C506.33,574.31,509.23,573.93,511.87,570.54Z" fill="#8d7e79"/><path d="M568,673.78l.22,1.47c.37,2.41-.65,3.41-3.06,3-4-6.15-3.94-12.59-1.41-19.21,5.58-9.19,13.25-15.72,23.91-18.47-5.19,4-11.1,7-15.47,12.17C566.84,659.1,564.75,668.33,568,673.78Z" fill="#8c7d7a"/><path d="M586.17,691.65c1.84-11.23,9.18-17.83,19-22.4,1.37,3.54-2,3.67-3.66,4.92-7.48,5.58-11.49,14-9.6,20.24a11.8,11.8,0,0,0,.08,1.46c-.59,3.25-2.39,2.64-4.4,1.38A7,7,0,0,1,586.17,691.65Z" fill="#897b78"/><path d="M544.71,638.51c3.83-2.9,9.5-.06,13.17-4.26-1,5.53-6.31,8.74-6.81,14.57-.15,1.86-1.73-.64-2.29-1.7C550.6,642.76,542.84,642.9,544.71,638.51Z" fill="#957e75"/><path d="M587.54,697.25c1.65.12,3.31.27,4.4-1.38,3.12,2,4.09,4.33,1.39,7.38C590.84,701.78,588.6,700.08,587.54,697.25Z" fill="#6a5f5e"/><path d="M565.19,678.28l3.06-3c2.19,2.14,5.75,4,1.39,7.4A9.71,9.71,0,0,1,565.19,678.28Z" fill="#6a5f5e"/><path d="M545.34,627.16c-3.34-3.75-.93-6-1.06-8.2-.17-2.75,7.54-7.9-2.2-8.27-.55,0-1.64-2.65-1.39-3.82,1.39-6.27,5.26-10.37,12.51-13.39-2.3,5-5.64,6.83-8,9.58-1.1,1.31-2.65,2.57-1.72,4.46,1.1,2.23,2.87.72,4.47.56,7.19-.75,14.39-1.33,23.08-2.1-6.45,4.1-13.1,2.13-18,5.71C548.29,615.17,545.65,619.91,545.34,627.16Z" fill="#92817f"/><path d="M947.92,576.58l-4.3-.5c1.36-5.86-2.54-3.19-5.09-3.44-1-.1-8.2.77-1.93-4.17,2.18-1.71-.62-3.23-2.55-3.56-2.61-.45-5.27-.58-8.45-.91,1.24,2.67,5.19,6.17-1.35,7.81.79-3.16,1.18-7.72-3.51-4.76-5.94,3.74-10.38.66-15.42-.85-.78-3.84,5.65-7,1.1-11.31-.39-.37,1.12-1.78,2.05-1.43,6.53,2.45,4.85-2.8,4.81-5.49-.06-4.45,2.47-8.58,1.33-13.09,2.74,5.39,6.21,8.94,13.16,7.07,3.81-1,5.19,3,6.82,5.37a34.21,34.21,0,0,0,10.68,10.07c2.34,2,1,5.15,2.39,7.26-.21-2-1.85-4.32.92-6,1.28,1.32,2.65.8,4,.2l1.35,4.61c3.07,3.33,3.77,7.54,4.41,11.78,0,7,2.88,13.89,1.38,21.32-4-2.91-2.17-7.13-2.93-11-1.42.24-3.2,5.62-4.41-.09a95.5,95.5,0,0,0-3.29-10.3c0-.05-.55-.05-.61,0A12.31,12.31,0,0,0,947.92,576.58Z" fill="#857775"/><path d="M961.54,464.59c1.52-1.1,1-3.74,4.53-4.94-.6,10.54-1.16,20.4-1.73,30.36-2.13-.48-2-3.52-4.29-3.52l.08-1.5c-.06-5.84-2.22-11.65-.33-17.54A4.82,4.82,0,0,1,961.54,464.59Z" fill="#242626"/><path d="M964.74,526.29c-.37-6-.59-12.08-1.83-18.1a36.23,36.23,0,0,0-7-15.72l2.46-2.84c7.38,11.28,7.72,24,7.79,36.84A.86.86,0,0,1,964.74,526.29Z" fill="#242626"/><path d="M948.58,558.63c-1.23,3.56,1.61,6.92.28,11.8-3.13-4.55-2.76-9-3.59-13h0c1.35-.51,0-3.72,2.77-2.78Z" fill="#857775"/><path d="M948,554.61l-2.77,2.78V545.5C947,549.55,948.36,551.79,948,554.61Z" fill="#242626"/><path d="M949.56,934.49q1.52,7.44,3,14.87l-4.47,0a48.49,48.49,0,0,0,0,17.53c0,.95.33,2.25-.16,2.78-1.12,1.2-1.53-.27-1.82-1-1.81-4.47-.84-9.17-1-13.77-.09-2.38,0-4.41-3.54-3.64-7,1.51-12.2-1.73-16.79-6.63-1.48-1.57-2.28-4.44-5.76-3.1-9.67,3.73-16.19-1.33-20.77-8.84-3.22-5.29-6.59-10-12.17-12.81,2.26-2.65,1.92-6.19,3.2-9.18,5.24,1.68,10.4,4.27,15.82.21,1.31-1,3.06.19,3.71,1.49,2.42,4.8,6.34,7.2,11.53,7.89a2.14,2.14,0,0,1,1.73,1.25c2.91,11,13.58,9.2,21,12.72C945.22,935.26,947.43,933.69,949.56,934.49Z" fill="#756a66"/><path d="M414.84,516.06c4.6.75,8,1.77,11.07,3.79,1,.69,1.82,1.76,1.09,3.1s-1.79,1.42-3.09.82C420.59,522.24,417.22,520.8,414.84,516.06Z" fill="#443f3d"/><path d="M452.4,582.47c4.13-.16,7.87,0,8.64,4.32.43,2.43-2.14,3.28-4.13,2.85-3.54-.77-8.07-1.63-9-5.22C447.15,581.33,451.26,583.35,452.4,582.47Z" fill="#443f3d"/><path d="M974.61,573.86c.25-3.79,1.53-6.57,6.08-6.1.79,2.62-.58,4.94-1,7.39q-.12,14.67-.25,29.35c.66,2.33,6.57-.46,4.48,4.55,0,8.91-4.73,17.27-3.15,26.38-.94.3-1.84,2.74-2.56,1.08-1.61-3.73-4-8.18-3.24-11.68,2.22-9.74-1.1-19.18-.17-28.75C975.48,588.69,976.94,581.24,974.61,573.86Z" fill="#766d6a"/><path d="M967.05,636.44c-1.75-14.41-4.8-28.85.11-43.37C967.05,607.52,972.41,621.84,967.05,636.44Z" fill="#766d6a"/><path d="M979.07,670.4c-1.62,2.37-.87,5.16-1.36,7.74-4.53-.36-.9-4.28-2.58-5.88-1-3,.42-6.33-1.62-9.1.23-4.71-1.23-9.13-2.42-13.58-1-3.86-.18-7.05,2.57-10.13,3.54,6.8,2.1,14.88,6.9,20.91.06.34.13.69.2,1C981,664.55,981.89,667.82,979.07,670.4Z" fill="#766d6a"/><path d="M971.47,589.78c-3.72-4-3.54-7.2-2.85-10.68.53-2.68-.32-1.92-2.85-3.91s-4.18-6.41-.94-9.31c2-1.81,2.34-4,3.34-6.13C969.13,569.47,972.88,578.7,971.47,589.78Z" fill="#857775"/><path d="M969.22,660.52c-.52,1.09-.39,3.55-2.58,1.44-7-6.7-7.58-12.54-2.37-21.52Z" fill="#766d6a"/><path d="M987,683c-.14.71,0,1.73-.47,2.08-2.23,1.77-1.61-.88-1.61-1.35-.11-8.22-.09-16.44-.1-24.66l3.15-9.87q.09,16,.19,32C988.16,682,987.28,682.28,987,683Z" fill="#766d6a"/><path d="M984.08,638.53c.54-.7,1.22-2.08,1.6-2,1.9.38.68,2.29,1.34,3.36a25.52,25.52,0,0,1-4.71,13.36C978.39,647.24,984.83,643.32,984.08,638.53Z" fill="#766d6a"/><path d="M967.26,542.45c-.37,2.55-2.56,5.13.16,7.61v7.21c-3.21-6-2.49-11.84-5.57-16.32C964.73,537.61,965.85,540.55,967.26,542.45Z" fill="#242626"/><path d="M967.26,542.45c-1.94,0-3-3.1-5.41-1.5l-.47-2.57c1.46-2,3.59-2.61,5.88-3l.45,5.69A3.23,3.23,0,0,0,967.26,542.45Z" fill="#242626"/><path d="M957.88,548.77l1.57-1.38c-1.12,4.84,4.6,8.2,2.59,14.1C958.88,557.36,958.38,553.06,957.88,548.77Z" fill="#242626"/><path d="M999.74,748.6c-2,4.38-1.34,9-1.17,13.54,1.44,3.48,2.22,7,.06,10.45l-.39,6.81c-.73.76-1.39.71-2-.15-2.59-5.87-.23-12.31-2.16-18.25-.9-5-5.45-9.52-1.68-15,2.17-6.08,2.73-12.78,7.33-18.81Z" fill="#68605d"/><path d="M984.13,734.31a10.28,10.28,0,0,0,4.26-10c-.66-4.78,1.89-9,2.38-13.56a37.93,37.93,0,0,1,.79-14.8c2.43,7.27,6.88,14.22,2.73,22.21l-3.18,19c-1.33.3-2.81-.72-4,.47C985.22,737.26,984.73,735.73,984.13,734.31Z" fill="#766d6a"/><path d="M970.9,492.07c.58-2.17-1-4.92,3.44-7.62-1.74,14.88,2.45,28.42,1.09,42.32-.16-4.21-4.85-6.67-4.22-10.93C971.07,507.91,970.26,500,970.9,492.07Z" fill="#242626"/><path d="M965.27,672.45a2.64,2.64,0,0,1,2.91-1.34c-.13,2.89,1.77,6.28-2,8.37C964.64,677.2,965.55,674.76,965.27,672.45Z" fill="#766d6a"/><path d="M949.56,934.49c-3,3.09-6.1,4-9.43.43-1.67-1.79-3.68-2.47-6-1.28-1.74.9-3.22.21-4.9-.29-6.14-1.8-5.29-11.13-10.48-11.61-7.1-.66-9.78-4.33-12.07-10.56-6.23,6.18-12.06,5.86-17.43-.5-1.19-4.75-2.52-9.45-.38-14.34a3.72,3.72,0,0,0-.89-4.69c-7-5.76-4.77-12.79-2.21-19.47,2.08-5.42,5.09-10.48,7.68-15.71,1.9-3.26,4.84-6.08,4.48-10.32-1.49-10.06-.15-11.28,10.81-9.51,2.74.45,4-1.18,3.77-3.15-.91-8.13,1.37-14,8.87-18.57,3.61-2.22,4.55-2.48,6.45.91,1,1.78,1.46,5.21,4,4.42,3.11-1,.28-3.61.24-5.52,0-1.67-.66-3.6,1-4.73s3.35,0,4.47,1.3c2.91,3.38,5.26.27,7.81-.51a3.91,3.91,0,0,1,1.25,2.77c-1,3.45,1.39,6,1.29,9.79a35.09,35.09,0,0,1,2.26,15.14,7.79,7.79,0,0,0,1.59,5.77,8.23,8.23,0,0,1,.79,2c.24,2.44,4.6,4.82,1.71,6.1-.17-.1-.75,3.13-.83,3-.34-.69-.36,5.94-.21,6.42,2.92,9.12,1.9,8.41.31,18.23-.64,1.29-1.65,2.4-1.9,3.89-2.49,11.73-2.42,23.24,2.94,34.31-.38,2.68,1.14,6.16-3,7.27-1.25-3-2.51-6-4.38-10.53C946.26,922.75,950.43,928.31,949.56,934.49Z" fill="#191b1d"/><path d="M884.58,825.48c0,1,.08,1.94.11,2.91-2.09,1.22-2.36,5.06-6.72,4A19,19,0,0,1,884.58,825.48Z" fill="#454141"/><path d="M980.73,825.46c-.66,5.79-5.11,11.65.64,17.38.75.75-.17,3.18-.32,4.83-2.94,11.09,1,21.81,1.82,32.69.36,4.9.64,9.71-1.33,15.93-4.49-12.21-2-24.46-6.76-35.18-1.67-1.62-2-3.84-2.61-5.9-.73-4.21-1.19-8.42.25-12.6-.55.19,2.42-3.26-.61-.53a2.65,2.65,0,0,1-2.48-1.68c-1.08-6,1.35-11.91.31-17.89-.07-.37.31-.77-.08-1.12a1.7,1.7,0,0,1-1.28,1.51c-3.12-1.47-2.52-4.44-2.86-7-.18-4.09-1.48-8-1.6-12.12-.34-1.47-1.43-2.57-1.94-4a14.17,14.17,0,0,1-.5-6.93c1.31-3.83,3.58-6.24,8-5.4,2.24,5.53,2.49,11.42,3.06,17.24,1.63,5,3.41,10,2.79,15.45,0,.29,0,.62.07.71.4.36.64.15.64-.62,1.68-5.22,0-11.24,4-15.8,2.16-1.19,4.37-2.82,6.13.54A52.39,52.39,0,0,1,980.73,825.46Z" fill="#191b1d"/><path d="M974,855.07c1.25,1.89.69,4,.76,6-2.64,2.29-.27,5.59-1.45,7.86s5.31,7.57-2.62,7.31c0,.72-.3,1.57,0,2.13,2.89,5.55-.09,10.92-.43,16.36a1.52,1.52,0,0,1-2.13-.57c-2.3-4.64-.26-9.93-2.23-14.62-.53-10.9-5.41-21.42-2.82-32.59,2.13-4.55,4.47-6,7.25-.47.78,3.19-.2,6.3-.67,9.47C971.4,856.57,972.12,853.06,974,855.07Z" fill="#191b1d"/><path d="M985.22,847.67c2.41-3.74,1.22-8.62,3.5-11.71,6.94,5.93,2,12.76,1.6,19.72-.58,9.07,1.2,18.29,2,27.44.12,1.44.21,2.88.32,4.31-6.49-10.68-7.06-22.67-7.63-34.65C984.89,851.09,985.13,849.38,985.22,847.67Z" fill="#191b1d"/><path d="M974.62,919.71a6.84,6.84,0,0,0-7.11,1.55c-3.89-6.19-1.59-13.43-3.4-20,.31-3.08.31-6.41,4.74-6.51h1.42c0,1,0,1.9,0,2.85-1.2,3.24-.66,6.58-.37,9.85.14,1.52.75,3.66,3.2,1.8.7-4.36,1.41-8.72,2.15-13.28,3.19,1.86,2.48,5.33,4.12,7.58,2.86,5.51-3.13,7.9-4.25,12Z" fill="#191b1d"/><path d="M987.34,904.88c-3.11-4-1-7.58-.26-12C989.08,897.38,991.09,901,987.34,904.88Z" fill="#191b1d"/><path d="M959.66,943.16l-2.66,1.3c.06-1.77.13-3.54.19-5.32,2-1.37,2.92-4.1,5.59-4.74Z" fill="#756a66"/><path d="M982,921.17l-2.59.06c0-2.43,0-4.87,0-7.3,5.51-1.49,1.65,3.37,3.14,4.59C982.33,919.41,982.17,920.29,982,921.17Z" fill="#191b1d"/><path d="M983.49,834.34c2.76-12.43,7.44-24.44,8.33-37.43,2.72,7.52,7.48,14.61,2.91,23.09-1.13,2.09-1.47,4.6-2.17,6.92-3.51-1.47.38-4.27-1.07-6.2C987.87,824.78,987.71,830.74,983.49,834.34Z" fill="#191b1d"/><path d="M964.55,980.16l-3.74,6c-1.31-3.67.4-7.5-1.93-10.63-.68-8.89-.92-17.77.85-26.58a2.05,2.05,0,0,1,2.3.32c1.55,2.1,1.85,4.65,2.6,7,.44,5.29,1.26,10.54,1.86,15.81.33,2.88.24,5.86-2.07,8.17Z" fill="#1f2122"/><path d="M972,933.86l-2.91,4.89a2,2,0,0,1-.1.71,7.86,7.86,0,0,1-.77.87c-2.36-5.34.59-9.44,3.78-15.68Z" fill="#756a66"/><path d="M999.8,797.07c.52,2.63.16,4.92-2.45,6.35-.32-4.87-3.33-8.74-4.93-13.13-3.11-2.69-.61-7,.49-7.12,5.15-.59,4.36,4.24,5.37,7.36C998.37,792.8,997.41,795.32,999.8,797.07Z" fill="#68605d"/><path d="M925.7,658.13c-2.12,8.19-8.78,8.94-15,10.25C915.24,664.67,917.53,657.71,925.7,658.13Z" fill="#605957"/><path d="M951.45,646.31c-2.93-6.26-1.69-12.34.7-20.22A48.79,48.79,0,0,1,951.45,646.31Z" fill="#766d6a"/><path d="M950.93,679.87c-.44,1-.89,1.92-1.34,2.87-2.94-5.29-.93-10.85-1.24-17.55C952.27,670.46,951,675.26,950.93,679.87Z" fill="#766d6a"/><path d="M893.53,756.27c1.5-.08,3.51-.4,3.49-1.91-.1-5.16,3.55-3,6.65-3.26-2.11-4.15-5.4-7.67-4.3-12.45,3.91.39,4.37,5.11,7.77,6.15,1.26.39,2.14,3.69,3.77.65.7-1.33-.23-2-1.71-3.05-4.51-3.15-4.27-8.42-4.2-13.32,0-.27,2.15-.52,3.29-.77-.83,4,2.26,3.41,4.42,3.49,3.1.11,4-2.17,4.45-4.74.39-2.14-1.35-5.73,2.41-5.79,2.95,0,6,1,7.13,4.94,1,3.37,2.81,7.94,7.38,2.5,1-1.24,2.28-2,3.78-.83a3.36,3.36,0,0,1,1.1,4c-1.63,5.1-2.16,9.14,4.9,11,2.37.63-.27,4-2.11,4.38-5.07,1.17-10.26,1.79-15.43,2.49-.89.12-1.92-.8-2.8-.66-3,.48-6.33.55-8.76,2.78-.77.7-.14,1.84.6,2.56,2.71,2.64,5.48.6,8.25.12s5.33-.6,7.91-1.24c5.35-1.31,8.5.29,8.92,6.05,3.21,5.23,3,11.4,4.71,17,.21,4.14,4.37,7.88,1.29,12.36-4.69-2.7-8.61,1.69-13,1.38-7-2.51-8.75-5.06-6.37-11.74,2.24-6.25-.6-5.94-5.06-5-2.52.53-5.07,1.88-7.75.58-3.65-3.37-7.32-6.72-10.94-10.13-3.22-3.05-5.19.48-7.8,1.49C894.49,762.33,895.52,759,893.53,756.27Z" fill="#474443"/><path d="M949.61,763.69c1.16,6.87,5.58,12.6,6.5,19.7.57,4.4,1.12,8.51-.29,12.74a2.24,2.24,0,0,1-.07,2.2c-2.79,4.53-4.28,1.46-4.93-1.16-1.88-7.53-4.4-14.85-6.88-22.19.07-2.74-.87-5.61,1.06-8.11C944.81,763.33,946.52,762.52,949.61,763.69Z" fill="#474443"/><path d="M963,793.15c-.91-7.71-1.44-15.43.36-23.07s-.39-15-.45-22.52c0-.61-1.88-1.21-2.89-1.81a5.33,5.33,0,0,0,.24-1.24h3.84c5.41,7.9,4.47,17.21,5.35,26,.54,5.5,4,11.43-.75,16.79C967.74,790.15,963.29,789.63,963,793.15Z" fill="#68605d"/><path d="M945,766.87l0,8.69a2.07,2.07,0,0,1-1.15,1.32c-2.07-5.67-2.71-11.61-3.38-17.54.59-2.51-.44-5.24,1.22-8Z" fill="#68605d"/><path d="M681.58,731.18c-1.69,3.25-3.76,3.51-5.68,4.11-1.36-2.13-.08-3,1.23-3.58C678.15,731.29,679.39,731.41,681.58,731.18Z" fill="#454141"/><path d="M948.06,809.67a4,4,0,0,1,3.44-2,2.38,2.38,0,0,1,3.33.47c1.53,9.1,3.71,18.13,3.86,27.43a43,43,0,0,0,1.42,10.88c1.73,11.7,4.28,23.27,5.74,35,.33,2.67.84,5.25-.25,7.83-.54.82-2,1.65-2.15,1.06-.82-3.95-4.2-.43-5.67-2.11-2.79-9.35-3.29-19.13-5.61-28.57-1-5,2.4-10.26-1-15.08l.09.1c-3.06-4.19-.42-9.26-2.13-13.66C949.14,823.92,944.39,817,948.06,809.67Z" fill="#1a1d1e"/><path d="M914.22,774c3.49-1,7-2,10.47-3,1.6-.5,3.17-1.79,4.66,0s1.89,4.6.53,6.18c-5.46,6.32-.8,9.53,3.52,13-2,1.41-3.82,1.57-5.72-.43-1.15-1.21-2.45-3.51-4.58-1-9.56-3.37-12.27-7.87-8.88-14.74Z" fill="#534f4e"/><path d="M914.22,774c-2.09,4.18-.31,7.1,3,9.65,2,1.57,3.92,3.39,5.86,5.09,1.71,3.87,3.62,7.52,9.08,7.92-2,2-4.34,2.52-5.12,1.79-3.6-3.35-6.22-3.13-9.48.65-2.83,3.27-4.9-2.23-7.78-1.5.12-1.11,0-3.38.77-3.05,4.7,1.91,3.5-.59,2.82-3.21a75.74,75.74,0,0,1-2.06-9.86C911,778.61,910.79,775.51,914.22,774Z" fill="#474443"/><path d="M948.06,809.67,950,831.24c-.27,3,2.6,6.62-1.64,8.92l-1.71-17.56c-3-2.74.32-6.29-1.19-9.23,0-.86,0-1.72-.07-2.58A2.17,2.17,0,0,1,948.06,809.67Z" fill="#191b1d"/><path d="M971.74,754.61c-1.83,2-2.33,1.18-3.14-1-2.55-7,1.85-13.14,2.16-19.81.24-5.14.15-9.93-1.55-14.73,0-10.21.59-20.46-2-30.51-.67-2.63-.49-4.65,3.08-4.17-.32,2.13.91,3.8,1.72,5.59a19.72,19.72,0,0,1,6.47,15.52c-.21,7.25.27,14.51-.52,21.75-.7,2.4-1.15,4.87-1.73,7.31C973.67,741,975.57,748.43,971.74,754.61Z" fill="#766d6a"/><path d="M970.68,805.92c4.18-.55,3.33-3.8,3-6.24-1.4-9,.15-18.07-1.26-27.09-.72-4.64,5.53-8,3.64-13.34a5.64,5.64,0,0,1-.88-5.1c1.17-2.84,3.16-5.26,4.25-8.15a9.28,9.28,0,0,1,1.37-1.5c2.3-3,1.87-6.92,3.38-10.19.91,1,1.81,2.05,2.71,3.07,0,3-2.42,5.48-1.58,8.59a2.08,2.08,0,0,1,.22,2.22c-1.08,7.49-1.27,15.12-3.87,22.35a21.84,21.84,0,0,1-2.06,4.62c-.53.82-3.61-2.19-1.93,1.7,2.56,5.91,2.38,12.31,1.18,18.75-1.63,8.79-3.37,17.66-1.2,26.66.11,1.6,1,3.81-1.56,4-2.12.15-2.74-1.91-2.71-3.63C973.4,816.89,973.48,811.19,970.68,805.92Z" fill="#68605d"/><path d="M974.46,682.86a4,4,0,0,1,.51-1.35c.63-.7,1.36-.45,1.29.41-.37,4.45,2.37,5.24,5.91,5.18,3.39,13.22,2.08,26.44,0,39.66-4.69-3.79-1.47-8.67-1.66-13-.06-1.53,1.45-3.1.47-4.86-.13-5.53,1.29-12.58-2.22-16S975.69,686.22,974.46,682.86Z" fill="#766d6a"/><path d="M988.4,771.06l-.33,25.33a14.63,14.63,0,0,1-2.63,8.8c-1.41-2.06-3-.05-4.51-.22-1.49-7-1.61-13.93,1.62-20.54,1.1-2.26,1.89-4.51,1.32-7-1.34-5.89,0-11.59,1.15-17.32A5.84,5.84,0,0,1,986.2,758c1.54-.74,2.23-.22,2.15,1.44l.08,5.74A4.86,4.86,0,0,1,988.4,771.06Z" fill="#68605d"/><path d="M952.75,880c2.64,3.45.34,8.21,3.08,11.64,3.26,5.73,2.13,11.77,1.27,17.79-4.06-5.44-4.05-11.79-4.57-18.17-.25-3,2.23-7.27-2.63-9.08C950.1,880.51,951.3,880.11,952.75,880Z" fill="#1c1f21"/><path d="M958.94,915.22l1.64-1.57,2.82,16.11c-1.38.59-3.73,3.93-3.11-1.1.21-1.71.44-3.42-1-4.77C959.15,921,959,918.11,958.94,915.22Z" fill="#191b1d"/><path d="M963,834.18c-3.31-5.09-.64-10.7-1.36-16-.29-2.13.34-6.1-.18-6.23-5.66-1.37-1.42-6-3.07-8.46l1.13-1.89.81,1.74c-.24,3.41,3.68,5.49,2.93,9.07q.06,3.54.13,7.09c-1,3.67,1.64,6.91,1.21,10.51C964,831.39,963.48,832.78,963,834.18Z" fill="#2e3032"/></g><g id="frame"><rect width="1000" height="1000" fill="none"/></g></svg>