<!-- Copyright (c) 2023 Jan Stehno -->
<svg xmlns="http://www.w3.org/2000/svg" viewBox="0 0 1000 1000">
    <title>chamois</title>
    <g id="chamois">
        <path
            d="M657.24,452.13c-1.72,5.45-.81,10.82.77,16.07,2.91,9.68,4.81,19.37,4.56,29.65-.17,7.26,5.39,13.4,6.59,20.49,2.36,13.86,9.86,26.74,7.87,41.42-3.42,6.87-8.21,13-11.2,20.06-.39,5.37,1.37,10.62-.25,16.23-1.27,4.36,2,6.1,6.34,4.17,5.67-2.51,11.37-4.51,17.47-1.22,3,1.59,3.5,3.2.44,5.21-5.28,4.3-10.79,8.14-17.21,10.63-7.26,2.82-11.8,8.84-16.35,14.78a17.71,17.71,0,0,1-8.26,7.27,142.22,142.22,0,0,0-23,13.62c-10.48,7.85-21.61,14.78-31.78,23a6.72,6.72,0,0,1-1.54,1.22c-13.26,5.12-22.81,14.72-32.42,24.91-4.44,4.71-12.51,6.88-20,6.75-4.24-.08-8.21,1.18-12.24,2.15-1.52.37-3.78.56-2.88,3.29.76.45-.09-.12.41.52,2.29,2.86,8.08.22,8.55,4.51.35,3.22-2,6.63-2.84,10.08a50.88,50.88,0,0,1-2.52,6.83c-1.13,3-1,5.95,1.57,7.85C535,745.82,538.23,752,542.8,757c3.68,4.06,7.51,5.75,12.57,5.6,3.24-.1,6.11-.34,3.37,4.44-2.39,4.18.22,6.17,4,6.87,4.62.85,9.21,0,13.74-.87,8.33-1.6,16.75-2.36,25.07-4.47,7-1.77,14.92-1.58,21.85,3.36,4.4,3.12,9.77,4,14.44-.46-1.53-3.94-5.62-5.74-7.66-9.26a23.78,23.78,0,0,0-17.38-.71c-4.05,1.35-8.17,1.27-12.38.91-5.28-.44-10.48.44-15.67,1.53-7.64,1.6-11.82-1-10-8,1.92-7.55.79-15.27,3.18-22.61,1.18-3.61,2.94-6.26,6.37-7.93s5.77-4,5.49-8.23c-.21-3.26,2-4.76,4.63-5.63a58.91,58.91,0,0,0,26.67-17.43c1.76-2,4.26-3.07,6.74-4a40.1,40.1,0,0,0,13.89-8.7c4.63-4.61,10.65-7,16.44-9.49,5.47-2.34,10.77.4,15.65,3S683.54,679,689,678.5c8.08-.7,11.32-6.51,7.17-13.43-2.25-3.75-5-7,0-10.54a1.92,1.92,0,0,0,.44-2.91c-1-1-2.48-.82-3.76-.53-5,1.16-10,2.24-14.45-1.72,4.77-2,12.53,1,13.28-7.8a5.37,5.37,0,0,0-.66-1.76c-2.94-2.24-7.21-1.67-10.14-4.82,2.48-2.36,5.35-1.45,8-1.45a68.77,68.77,0,0,1,11,3.23,12.58,12.58,0,0,1,4.3,4.28c1.83,7.82,4.77,3.88,7.13.06.78-1.26.94-2.87,2.06-4,7.41-1,13.45-4.3,19-9.38s11.49-4.77,17.24-.52c3.52,2.59,6.69,1.91,8.24-1.53,2.23-5,6-6.57,10.78-7.24-1.58-12.44,2.26-24.66,1.42-37.06-2.87-2.5-5.29-.32-7.77.81-9.57,4.36-19,.46-22.25-9.47-1.77-5.44-4.61-9.35-10.58-10.32-1.13-.18-3.12-.26-2.83-2,1.26-7.78-4.45-12.35-7.89-18-5-2.32-7.78-6.1-9.44-11.6-3.29-10.91-9.66-20.46-14.83-30.55a2.79,2.79,0,0,0-2.6-1.64c-2.66,2.27-4.88,4.91-6.11-1.46-.89-4.62-4.41-8.43-6.36-12.84-1.08-2.43-3.88-3.67-6.61-3.7-5.32-.06-7.79-3.27-9.27-7.79a56.21,56.21,0,0,1-3.18-14.1C660.22,456.18,660.38,453.33,657.24,452.13Z"
            fill="#23201b" />
        <path
            d="M735.14,779.21c7.62,7.59,10.31,15.81,6.67,26.86-2.91,8.84-2.74,18.49,3.72,26.76,1.23,1.57,1.66,4.18,1.62,6.29-.2,9.5,5.21,17.18,8.72,25.21,3,6.82,5.12,14.56,11,19.93,2.52-2.9.69-5.5-.87-7.78-5.64-8.21-7.11-18.46-13-26.53-1.33-1.79-.54-4.13-.25-7.25,3.77,5.12,5.77,10,8.64,14.44,1.89,2.89,4.14,4.07,7.4,4.7a73.32,73.32,0,0,0,27.7.27c5.23-1,7.39,2,5.16,7-2.83,6.32-.59,11.28,3.7,15.51,2.22,2.18,3,4.46,3.75,7.34,2,7.66,4.25,15.2,12.44,19a73.72,73.72,0,0,1,13.82,9,10.8,10.8,0,0,0,6,2.52c4.75.34,8.06,3,10.76,6.75,3,4.16,5.42,4.06,8.55-.07a16.1,16.1,0,0,0,1.86-3.5c3.89-9.17,6.39-11,15.58-8.49a71.6,71.6,0,0,0,13.29,2.5,14,14,0,0,1,10.66,5.9,9,9,0,0,0,2.39,1.95c2.65,1.07,5.29,2.37,8.12.51a39.54,39.54,0,0,0,3.17-14.18c-1.07-2.88-3.07-5.32-3.91-8.34a4.92,4.92,0,0,0-2.18-3.22c-10.73-5.09-21.08-11.72-33.88-8.82a11.7,11.7,0,0,0-4.07,2,13.07,13.07,0,0,1-19.79-5.56c-.36-.8-.51,0-.23-.55,3.34-6.94-2.72-11.73-3.8-17.63A15.57,15.57,0,0,0,841,860.94a39,39,0,0,1-12.46-13.32c-2.64-4.48-5-9.23-9.63-12.39-3.38-2.33-1.06-6-1.81-10,2.2,2.5,2.45,6.8,6.09,4.13,3.13-2.3,4.53-6,2-9.26a39.78,39.78,0,0,1-5.6-9.6,7,7,0,0,0-2-2.16c-1-.54-1.77-1.68-2.67-1.86-12.11-2.42-12.49-13.64-16.26-22.13a29.28,29.28,0,0,0-8.12-11c-3.69-3.08-7.51-2.36-10.79.45s-2.07,5.88.29,8.74c1,1.2,2.1,2.63,1.63,4.18-2.58,8.45,1.76,15.46,4.45,22.84,3.62,9.9,1.6,18.55-5.48,26.3-3.43,3.75-6.07,3-8.28-.86-2.81-4.89-5.77-9.49-7.2-15.34-1.59-6.44-5.12-12.63-9.1-18.22-1.31-1.84-2.8-3.58-2.13-6,2.2-7.83,3.24-16,8-23,3.67-5.33,3.19-7.24-2.13-10.72-.74-.48-1.46-1.23-2.27-1.32-17.64-1.85-34-14.86-52.88-6.14-3.73,1.73-7.32-.56-11-.87-7.55-.64-10.44,2.47-9.32,10.47,2.53,1.46,5,.57,7.66.18,10.36-1.52,20.64-4.07,31.25-1.67,4.35,1,8.2,3.13,12.4,4.38,3.46,1.37,8-.61,10.64,2.16,2.9,3.06-1.25,7-.27,10.69a3.44,3.44,0,0,1-1,3.9C741.34,783.12,740.52,775.37,735.14,779.21Z"
            fill="#2c2520" />
        <path
            d="M903.13,925.66c-2.28-5.36-9.41-9.39-15.23-8-2.71.67-4.6.57-6.47-1.45-3.66-3.92-8.16.11-12.47-1.33-6-2-5.7,4.29-7.21,7.86-.85,2-1.49,4.19-2.75,5.9-1.91,2.57-3.42,4.19-5.76-.49-2.26-4.51-6.3-8.33-12.47-7.21-2.06.38-3.07-1.32-4.46-2.34-3.7-2.7-7.18-6-11.31-7.74-10-4.16-13.78-12-14.45-22.06-.17-2.48-1.12-3.78-3.43-5-4.43-2.27-6.6-9.44-4.29-13.42,1.56-2.7,3.85-5.16,1-8.25-3-3.3-6.86-2-10.5-1.72-6.15.46-12.26,2.6-18.46.37-.61-.22-1.28-.66-1.86-.57-10.26,1.64-12-6.83-15.32-13.22-1.55-3-2.77-6-6.65-6.36a29.57,29.57,0,0,0,3,14.81c4.28,9.49,10.37,18.37,12.74,28.75,1.44,6.17,5.94,10.64,9.19,15.7,1.61,2.52,3.5,4.28,3.62,7.64.1,2.56,2,4.71,3.93,6.67,5.91,6,11,12.59,16.33,19.08,9,11,16.65,23.12,29.06,31.21,4.79,3.12,9.6,7.19,14.38,10.29,4.11,2.67,7.82,5.32,11,10.1a1,1,0,0,0,1.77-.62c-.53-4.33-2.28-7.63-1.63-12.54a66.21,66.21,0,0,0,8.27,17.07,2.53,2.53,0,0,0,4.57-1.86c-.89-5.31-2.27-10.23-2.81-15.27-.86-3.08,1-6.61-1.69-9.39,1.8,1.87,1.14,4.85,3.22,6.54,2.67-1.7.71-4.2,1.08-6.3-1.6-2.52.94-5.48-.37-7.83,1.08.6.28,2.88,1.91,3.58L878,997.84c2.89-.19,1.73-2.49,1.68-3.8a55.91,55.91,0,0,1,1.87-16.84c-.37-5.93-.4-11.88-1-17.79-1.72-5.22-.56-10.77-1.9-14.74-.39,4.27,3.33,8.09,5.72,12.47,1.58,2.61,2.61,5.56,4.33,8,1.36,1.94,1.13,6.55,6.1,4.2.84-.4,1.6,4.33,3.13,6.31,1.71,2.21,3.46,5.11,4.85-.21-1.73-9.32-4.16-18.48-6.75-27.68,2.57,3.21,3.67,7,5.11,10.58,1.56,3.91,3.36,3.68,4.64-.33,1.3-2.81,3.54-5.51,1.13-8.81-2.66-3.41-2.1-7.45-2.27-11.36C904.49,933.77,905.42,929.5,903.13,925.66Z"
            fill="#1b1919" />
        <path
            d="M858.31,610.2c-.18-.78-.35-1.57-.52-2.35-3.73.16-5.94,2.86-7.8,5.44-7.69,10.7-18.49,14.28-31,14-6.08-.13-11.77.73-16.86,4.27-5.84,3.54-12.27,2.5-18.54,2.25-4.33-.17-7.07-1.66-3-6.23a2.55,2.55,0,0,0,.24-1.91c-2.26-5.5-6.73-.18-9.73-2-1.92-.6-4.4-1.37-4.74,1.41-.52,4.14-7.39,7-2.4,12.19,2.82.71,3.86-1.34,5.1-3.44,2.39,4.55,6,6.78,11.11,5.56a13.47,13.47,0,0,1,8.94,1.25,8.11,8.11,0,0,0,1.82.34c10.15-4.72,19.21.49,28,4,3.82,1.5,6.47,6.28,9.67,9.55s5.82,4.73,9.62,1c.54,9-3.19,13.74-12,15.7-1.33,4.74,1.17,9.24.88,14-.1,1.64,3.06,3.58.33,5s-6,1.8-8.43-1c-1.94-2.23-2.39-5-2.9-7.89-.71-4-2.61-6.77-7.16-3.6a4.4,4.4,0,0,0-.65,1.71c-.1,4.15-3.37,7-4.49,10.66-1.31,3.13-1.15,6.89-4.8,9-1.91,1.09-2,3.28-.44,5.16,5.67,1.71,5.3,7,6.37,11.25,1.82,7.21,2.17,14.23-3.1,20.57-4,4.77-1.63,9.76,1.09,14,2.42,3.83,2.91,6.68-.09,10.6-3.47,4.54-2.28,7.6,3,11.18a3.94,3.94,0,0,0,1.9-.11c3-2.35,3.22-7.7,9-7.25,2.43.19,2.09-3.21.54-4.61-4.9-4.42-6-10.55-7.91-16.36-.59-1.79-2.33-4,.23-5.16,2.34-1.1,3.34-4.51,7.23-3.27,5.31,1.69,11,6.09,16.58,7.13,4.51.84,4.56-3.06,4.43-6.18a74.24,74.24,0,0,0-1.38-9.78c-.5-1.7-.8-3.45-1.41-5.1-1.12-3-3.6-6.09.26-8.83,3.59-2.56,7-4.66,12.06-2.76,6.24,2.34,10.07,5.89,10.77,12.67.52,5.09,2.6,9.33,7.24,11.91a8.27,8.27,0,0,1,3.83,5.13c.53,1.64,1.22,3.6,3.64,2.69,1.79-.68,3.24-2.27,2.8-4-1.68-6.85,0-13.57.13-20.35.16-8.16-4.7-.78-7.61-1.88,1.82-3.67,3.84-7.33,2.1-11.55-.49-1.18.36-2.15,1.57-2.43,5.51-1.25,4.47-5.26,3.5-8.9-1.36-5.14-2.14-10.22-1-16.07,3.73,1.53,4.56,4.55,5.4,7.35a129.59,129.59,0,0,1,4.69,18.53c.43,2.88,1.74,5.27,4.74,5.55s4.72-2,5.24-4.86a10.5,10.5,0,0,1,3-5.68c4-4.18,5.87-8.86,3.69-14.89-1.41-3.89-1.5-8.22-2.58-12.28-3.65-5.9-9.54-10.26-11.65-17.22l.16-.24a10.57,10.57,0,0,1-3.1-5.66c-1.14-4.82-4.47-8.24-7.35-12.12-5.14-6.9-12-12.56-15.26-20.83C860.83,612.46,859.2,611.68,858.31,610.2Z"
            fill="#5a433b" />
        <path
            d="M735.14,779.21c3.61-.73,5.07,1.63,6.39,4.37.83,1.71,1.62,4.1,4.26,2.63,1.76-1,3.17-2.66,2.33-4.93a9.59,9.59,0,0,1-.23-6.39c2.43-8.29,1.86-8.95-6.66-9-1.53,0-3.07,0-4.6,0-11.18-.74-21.78-6.1-33.34-4.05-2.54.46-5.19.22-7.76,1-9.33,2.86-18.93,2.65-28.52,2.2-6.68-.31-13.35,0-18.72,4.45-3.45,2.88-7.1,1.13-10.62,1.71-6,1.73-12.07,3.62-16-3.69-.48-.88-1.25-1.68-2-1.35-7.7,3.4-15.57-1.07-24.21,2A84.27,84.27,0,0,1,563,772.49c-1.61-.1-3.22-.31-3.86-2s.94-2.74,1.89-3.89c1.21-1.46,3.46-2.67,2.17-5-1-1.84-3.29-1.4-4.82-1-10.21,2.65-14.49-5.18-19.78-11.16-1.29-1.46-1.79-4-3.3-4.82-7.59-4.12-7.42-9.29-3.51-16.09,2-3.45,1.39-8,4.29-11.52,2.56-3.09-1.14-3.59-2.88-4.09a81.37,81.37,0,0,0-9-1.58c-.43-.62-.84-.61-1.24,0,.42,3.94-2.53,7.42-1.58,11.43-1.66,7.19,1.12,14.58-1,21.74,0,.89,0,1.78,0,2.68,1.86,6.87,7.71,10.76,11.77,16,5.7,16.5,15.38,20.83,35.58,20.34,19.61-.48,39.26-1.36,58.84.56a49.68,49.68,0,0,0,16.27-.83c14.8-3.42,30-3.11,45-4.23,14.13,1.14,28.06-4.16,42.23-1.27Z"
            fill="#171513" />
        <path
            d="M874.9,521.54c.08-5.26.41-10.54.12-15.77-.15-2.6-1.31-5.82-5-3.16-13.47,9.75-28.81,15.87-43.69,22.86a24.55,24.55,0,0,1-6.27,3.57c-4.14,1.85-7.31,4-5.15,9.45.94,2.39-.52,4.28-2.95,5.08-3.12,1-6.14,2.35-9.34,3.13-8,1.94-15.32,5.14-21.48,10.74-3.31,2.77-6.26,5.82-7.87,10a6.46,6.46,0,0,0-.26,4c5.19,5.47,11.5,10.14,12.66,18.45a3.17,3.17,0,0,0,4.37,2.75c8.05-2.47,16-5.09,24.26-6.95a4.06,4.06,0,0,0,3.11-3.83c-2-2.86-5.09-1.91-7.8-2.1-3.06-.22-6.36.05-7.61-3.66-1.39-4.16,1.9-5.82,4.45-7.8a15.88,15.88,0,0,1,2.72-1.81c2.15-1.07,4.57-2.52,6.74-.93s-.41,3.46-.63,5.24c-.49,3.79,1,7.25,1.94,10.79,6,.72,8.48-3.54,9-8,.74-6.6,4.58-8.85,10-10.23,6.79-1.71,14.48-1,19-7.9,1.89,1.9.43,3.58,1.24,4.92,4.5,1.62,5.58,4.11,2.39,8.15-2.88,3.66-4.6,8-6.43,12.26-8.31,19.42-21.86,33.28-42.2,39.87-1.65.54-4.25.48-3.76,3.52,6.62,2.67,13.2,2.17,18.67-2.21,10.11-8.11,21-15.85,28.09-26.77,6.43-10,13-19.84,19.37-29.87,3-4.72.66-17.43-3.27-21-3.14-2.84-13.46-3.29-18.12-.18-7.47,5-16.48,4.3-24.5,7.28-6.1,2.26-12.62,3.34-19,5,12.26-5.26,24.78-9.86,36.76-15.77,4.91-2.42,10-4.64,15-6.74a19.72,19.72,0,0,0,10.53-9.57C871.12,522.21,872,520.16,874.9,521.54Z"
            fill="#26231d" />
        <path
            d="M874.9,521.54c-1.55-1-.67-2.92-1.61-4.18-.38.06-1,0-1.09.2-3.76,9.9-11.8,14.34-21,18.28-14.69,6.29-29.21,13-44.19,18.61-1.56.59-4.21.64-3.58,2.9s3.64,1.78,5.11,1.15c14.8-6.4,31.83-5.7,45.83-14.53,3.57-2.26,6.75.71,10.2.22,5.25-.75,4.15,4,5.85,6.7,5.12,8.15,1.61,14-3.65,19.79-7.4,8.18-10.08,19.57-17.84,27.37-8,8.05-16.56,15.59-25.19,23-4.94,4.22-11.31,2.57-17.16,2.76a4.88,4.88,0,0,0-2.89-1.55c-2.8-.3-5.61-.51-8.41-.68s-5.31.92-6.24,3.73c-1.08,3.25,1.4,4.8,3.8,5.91,3.09,1.42,6.2,3.14,9.84,1.93,4.22-2.42,8.4-4.44,13.6-4.09,14.57,1,27.23-2.79,36-15.72,1.43-2.11,3.7-3.66,5.58-5.46,12.24-18.9,19.68-40.45,32.65-59,6.17-8.84,6.78-19.81,6.85-30.49,0-3.31-2.06-2.86-4-2-4.36,2-9.3,2.42-13.25,5.46C878.39,523.07,876.48,523.8,874.9,521.54Z"
            fill="#191612" />
        <path
            d="M657.24,452.13c2.56,6.77,1.68,14.29,4.6,21,2.18,5,3.57,10.59,11.17,8.92,1.32-.29,4.19,1.11,4.44,2.18,1.25,5.42,6.42,8.89,7,14.24.3,2.59-.05,5.12,2.83,5.58,3.58.56,3.92-2.65,4.56-5.2,1.11-4.81-1.43-8.88-2.62-13.22-1.34-4.87-2.63-9.76-4.25-14.54a161.34,161.34,0,0,1-6.29-29.51c.89-5.38,1.35-10.89,2.8-16.12a18.23,18.23,0,0,1,11.55-12.6c7.08-2.45,13.3,1.21,18.66,5.64,3,2.46,5.2,5.9,10.21,6.06.05-10-6.12-15.32-13.79-19.63-17.37-9.76-37.42-4.47-46.56,10.92a18.52,18.52,0,0,0-2.91,8C658,433.24,657.68,442.69,657.24,452.13Z"
            fill="#121311" />
        <path
            d="M982.21,804.31a118.33,118.33,0,0,0-8-22.55c-2.05-1.68-3.63.06-5.4.7-5.26,1.91-7.94-.44-7.92-6a10.71,10.71,0,0,0-6.35-10c-5.92-2.32-9-7.15-11.79-11.87-3.84-6.44-7.17-13-14.73-15.73-4.44-1.34-7.26-.91-4.84,4.75.67,1.56-.48,2.43-.87,3.6-.17,2.94,2.42,4.14,3.76,6.13,6.2,6.42,11.43,13.75,19.85,17.93,2.88,1.43.74,5.88-.7,8.19-1.58,2.55-2.67,4.82-2.51,7.87.11,2.13-.9,4.14-3.45,3.81-2.82-.37-2.56-2.47-1.83-4.55.85-2.44.45-4.6-2.26-5.21s-4,1.44-4.52,3.72c-1.37,5.84-.52,11.83-.86,17.74-.18,3.1,2.81,4.33,5.76,3.79a13.19,13.19,0,0,1,10,1.87c2.88,1.83,5.61.75,7.61-1.65,2.47-3,4.36-4.33,6.38.41,1,2.26,3.46,3.29,5.38,4.73,1.29,1,2.75,1.44,4.25.4,2.14-1.49,1.72-3.27.32-5.29,3.05.69,5.82,3.86,8.84.53.92-.41-.61-5,2.58-1.54C982,805.91,982.64,805.51,982.21,804.31Z"
            fill="#6e4d47" />
        <path
            d="M922.68,747.26c2.31-.46,5.17-1.42,2.72-4.08-5.46-5.91.85-3.19,2.54-3.86.08-.28.17-.57.26-.85-.93-1.85-.46-3.15,1.4-4.14,1.17-.63,3-.89,2.44-3l-.07-.06c-3.12-6.41-8.22-5.17-13.49-3.64-1.93.55-4.44,3.12-5.77.58-1.12-2.14,1-4.93,1.69-7.43.72-2.78,2.86-2,4.81-1.48,3.81,1.09,5-.26,3.57-4-.26-2.23.24-4.62-1.33-6.58-2.32-1.74-3.63-4.34-5.48-6.48-6.52-18.24-17.05-34.09-28.9-49.15.41,7.68,7,11.5,10.6,17.21,2,5.48,2.34,11.71,7.31,15.78.51.41,1.24,1.15,1.09,1.58-1.9,5.41,1.62,8.51,5.17,11.62.28.76-1.27,1.2-.51.77.23-.12,0-.27-.18-.64-1.86-3.07-5.41-3.12-6.54-.93-2.23,4.36-7.38,5.74-9.06,10.4-1.31,3.66-3.46,4.13-6.37,1.23-2.4-2.37-4.94-6.66-8.61-4.25-3.86,2.54.17,6.38.73,9.57.88,5,5.06,9,5.11,14.41,0,.79.85,2,1.49,2,8,.16,8.74,10.7,16.82,11.57,2.8.3,5.73,2.55,9.11,1.69S919.56,746.44,922.68,747.26Z"
            fill="#7d544a" />
        <path
            d="M649.32,599.61c-8.77,13.08-20,24.07-31.25,34.76-10.06,9.55-22,16.91-33.21,25.19a289.86,289.86,0,0,1-38.92,24.12c-5.51,2.87-11.32,6.19-14.92,11.88,3.39,1.82,5.57-.83,8.29-2,12.18-5.49,23.62-12.39,35.49-18.46a4.55,4.55,0,0,0,1.65-.7c2.45-3.93,6.45-4.57,10.55-5,10.74-1.76,19.42-7.69,28-13.89,3-1.84,2.39-6.91,6.7-7.62a12.89,12.89,0,0,0,1.51-1c5-5.72,11.77-10.24,15.07-16.81,2.43-4.86,5-5.57,9.2-5.5a2,2,0,0,0,1.2-1.27c.19-1.46-1-3.23.3-4.37C656.08,612.53,650.9,606.05,649.32,599.61Z"
            fill="#8e7e68" />
        <path
            d="M615.28,654.36c-6.23,2.37-11.25,6.9-17.34,9.66-3.84,1.74-7.49,3.38-11.69,3.62a105.1,105.1,0,0,0-10.61,6.56h0c-3.77,1.09-7.23,2.61-9,6.47-2.59,3.5-4.63,7.38-7.53,10.69-7.15,8.15-16.84,9.88-26.79,10.89-1.92.2-3.94-.4-5.57,1.13-2.81,2-3,5.15-3.75,8,.41,0,.83,0,1.24,0,5.28-1.65,10.72-2.31,16.16-3.21,8.93-1.46,18.24-3,24.59-11.6,6.1-8.27,13.72-15.27,24.09-18.27,4.51-1.31,8.26-4.7,11.21-7.65,7.69-7.66,18.16-11.23,25.57-19,1.17-1.25,2.24-2.53,1.32-4.42-1.5-1.87-3.22-2.22-5.19-.73l.07,0C620.84,650,617.82,652,615.28,654.36Z"
            fill="#3f3b33" />
        <path
            d="M683.61,471.06l8.25,27.79c6.44,11.93,14.37,23.13,17.53,36.67,1.06,4.54,5.38,5.41,8.77,7.28.78.4-.3.2.53.36,8,1.56,14.47,5.18,18.39,12.74a3.14,3.14,0,0,0,4.56,1.32c4.26-2.57,5.44.6,7.51,3.39,5.35,7.22,11.81,12.93,21.65,12.46a3.67,3.67,0,0,0,2.73-2.48l1.13-2.73c-4-2.88-7.77-5.91-10.56-10,.87-1.89,4.48,0,4.13-3-.23-2.07-2.46-2.16-4-2.76a32.67,32.67,0,0,1-6.39-2.86,57.23,57.23,0,0,1-23.64-8c-3-1.76-6.71-1.39-10.25-.67-6.28,1.28-10.63-.87-12.39-7.5-2.1-8-6.09-15.15-10.12-22.19-7.19-12.56-11.51-26.11-15.2-40-.48-1.81-.28-4.07-2.32-5.24C682.74,467.43,683.15,469.24,683.61,471.06Z"
            fill="#594c49" />
        <path
            d="M927.94,739.32c.14.64.15,1.76.44,1.84,10,2.73,10.85,13.34,16.73,19.6,2.52,2.68,4.14,5.74,8.35,6.69,3.77.86,4.74,5.4,6.51,8.45.86,1.49-2.74,1.43-3.74,3,5.15,6.4,11,8,18,2.88-.51-5.48-.9-11-1.58-16.43a6.21,6.21,0,0,0-4.9-5.53c-3.59-1-7.11-2.18-10.66-3.29-7.09-3-11.08-9.65-16.62-14.48-2-1.74-3.8-3.65-6.53-4.19-2.16-.25-4.27-.27-6,1.44Z"
            fill="#7d544a" />
        <path
            d="M781.53,558.75c9.49-7.92,21.31-10.31,32.63-13.9,3.72-1.18,3.91-4.86,2.62-7.07-2.78-4.78.08-6.07,3.36-7.78,2.27-1.18,5.13-1.65,6.2-4.53-15.78,7.23-32.46,12.67-46.23,23.82C774,553.45,780.78,555.64,781.53,558.75Z"
            fill="#3c3631" />
        <path
            d="M649.32,599.61c.42,3.47-2.07,7.27,2.06,10.43,1.2.91-.06,4.61-2.36,6-3.91,2.32-3.4,4.91-.78,7.8,3.89-.14,4.47-3.6,5.87-6.11,1.14-2.05,1.34-4.62,3.25-6.3a7.48,7.48,0,0,0,1.58-3.58c.45-5.5.29-11.22,5.19-15.19,3.44-3.61,2-8,1.93-12.16.6-2.41,2.16-4.32,3.31-6.44s1.89-4-.08-6c-5.4,6.44-9.22,14.07-15,20.21C651.27,591.37,650.55,595.64,649.32,599.61Z"
            fill="#7a6b56" />
        <path
            d="M989.84,807.09Q988,799,986.1,790.84l.81-.3,3.56,6.79c2-2.47-.78-4.2-.41-6.26q-2.58-12.27-5.17-24.54c-.3-1.41,0-3.49-2.24-3.29-2.67.23-.66,2.43-1.18,3.54-5.24,11.42-.07,21.68,3.4,32.14,1.93,5.14.14,10.09-.78,15.09a2.76,2.76,0,0,0,2.31,1.84C992.17,814.76,989,810.15,989.84,807.09Z"
            fill="#6e4d47" />
        <path
            d="M781.53,558.75c.66-1.56,2-3.41-.65-4.22-4.16-1.3-1.64-3.33-.77-5.24-7.43,3.58-14.86,2.31-22.28,0,2.24,3.3,6.37,3.29,9.46,5.36-1.34,2.23-2.85-.42-4.24.32-1.24.66-2.81,2.19-2,2.66,5,2.88,6.2,10.8,13.61,10.28C775.83,564,779.29,561.83,781.53,558.75Z"
            fill="#765e57" />
        <path
            d="M567.75,680.92c1.39-3.71,6.32-3.2,7.87-6.72-5.93-2.31-9.11,3.19-13,5.39-6.11,3.43-11.65,7.43-18.78,9-4.65,1-7.42,6.58-12.77,7a2.56,2.56,0,0,0-.4,1.13c8,3.75,26.75-1.41,31.35-8.72C563.61,685.36,566.13,683.52,567.75,680.92Z"
            fill="#7a6b56" />
        <path
            d="M567.75,680.92c-1.49,1.26-3.38,2.27-4.4,3.85-4.14,6.34-8.51,10.24-17.36,9-4.45-.61-9.72,4.07-15.37,2.89a9.08,9.08,0,0,0-3.93,6.69c5.59,1.93,11.78,1,16.58-.53,7-2.22,15-5.15,18.92-12.51C563.93,687.11,567.2,684.81,567.75,680.92Z"
            fill="#635441" />
        <path
            d="M922.78,715.29c.16,4.48-2.25,3.31-4.41,1.87-3.57-2.39-5-.69-5.75,2.72-.37,1.71-.32,3.62-1.1,5.1-1,1.9-3.35,3.75-.89,5.63,1.92,1.46,4.39.92,6.72-.49,5-3,10.06-3.39,14.62,1.11C929.85,725.37,926.39,720.28,922.78,715.29Z"
            fill="#91695e" />
        <path
            d="M858.31,610.2c4.7,10.55,12,19.29,19.72,27.61a17.79,17.79,0,0,1,4.92,9c.52,2.85,1.66,4.87,4.28,6-2-11.36-10.65-18.68-16.78-27.5-3-4.26-7.58-7.38-8.67-12.9C861.37,610.4,859.85,610.34,858.31,610.2Z"
            fill="#5a433b" />
        <path
            d="M934.53,739.28c4.77,2,7.25,6.5,10.65,10s6.3,7.55,11.9,7.23c-5.33-5.15-9.44-11.52-15.94-15.51-3.34-2-5.44-5.49-7.83-8.55C931.18,735.19,931.68,737.45,934.53,739.28Z"
            fill="#91695e" />
        <path
            d="M669.29,568c1.37,4.83-3.3,7.8-3.7,12.09.41.49.8.48,1.17,0,3.77-6.6,9.31-12.29,10.27-20.33C675.1,563.14,670.6,564.08,669.29,568Z"
            fill="#60564a" />
        <path
            d="M683.61,471.06l.3-5.36a117.77,117.77,0,0,0-5.2-24.12,13.54,13.54,0,0,0-.32,7.61C680.36,456.41,681.9,463.76,683.61,471.06Z"
            fill="#23201b" />
        <path
            d="M904.87,975.53l-.39,7.54c-1.55,3.46-4.16,6.81-1.18,10.78a.83.83,0,0,1,.27.95c3.21-.59,4.37-2.3,4-5.74C907.12,984.44,906.84,979.83,904.87,975.53Z"
            fill="#1b1919" />
        <path
            d="M934.53,739.28a10.35,10.35,0,0,1-1.22-6.83L932,731.29c-1.07,1.8-3.35.88-4.65,2-2.48,2.19-3.33,4.33.58,5.95Z"
            fill="#91695e" />
        <path
            d="M898.94,994.85c-.14-6.47-3.05-12-6.25-17.35-.2.86-.43,1.88-.66,2.91q2.7,8.6,5.39,17.2C899.87,997.76,899.49,996.35,898.94,994.85Z"
            fill="#1b1919" />
        <path
            d="M887.47,982.51c-3.09-.75-3.06,1.37-2.88,3.35.41,4.72.95,9.43,1.43,14.14C888.91,994.37,887.2,988.36,887.47,982.51Z"
            fill="#1b1919" />
        <path d="M532.08,763.26l-11.77-16C520.94,755.06,527.08,758.74,532.08,763.26Z"
            fill="#23201b" />
        <path d="M520.32,744.6c4-7.07,0-14.52,1-21.74C518.71,730,520.84,737.36,520.32,744.6Z"
            fill="#23201b" />
        <path d="M916,702.23c.88,3,1.56,6.12,5.48,6.48C921,705.38,918.24,704,916,702.23Z"
            fill="#7d544a" />
        <path
            d="M764.32,637c-2.52-5.56,4-8.11,4.2-12.77l2.43.87a2.46,2.46,0,0,0,.54-1.88,4.12,4.12,0,0,0-1.88-2.26c-3.73-1.85-6.54-.71-7.87,3.08-1.42,4-4,5.72-8.14,6.56-5.73,1.17-11.32,2.64-15.54,7.71-3.16,3.78-17.65,3.27-21.61.09-1.48-1.18-2.43-3.3-4.88-2.62a18.53,18.53,0,0,0-1.27,3.64c-.23,1.69-2.25,3.85-3.39,5.89a4.63,4.63,0,0,0-1.64-3.73c-4.8.49-10.06-3.76-14.65-.68-1.52,6-7.73,8.12-15.48,5.39,2.12,7.63,5.65,8.66,20.92,6.13-.13,1.68-1.74,1.78-2.71,2.55-3,2.35-5.41,4.23-.76,7.89,2.67,2.09,5.47,5.78,3.64,9.82-1.91,4.23-6.05,4.43-10.21,4.28-3.63-.12-7.23-.78-10-2.81-10.63-7.72-20.61-4.77-30,1.88-7.31,5.2-13.77,11.61-22.71,14.19a8.61,8.61,0,0,0-3.59,2.81,56.93,56.93,0,0,1-26.9,17.27c-3.68,1.12-6.33,3-4.75,7.71,1.28,3.89-2.27,4.75-4.63,6.07a17,17,0,0,0-8.31,18.39c.32,1.68.89,4.11.05,5.1-4.37,5.23-1.54,11-1.74,16.53-.07,2.15,1.16,2.25,3,2.15a98.5,98.5,0,0,0,13.19-1.44c9.53-1.8,19.53.76,29.06-2.81,3.57-1.33,7.29,1,11,1.19,3.1-.63,4.55-2.56,4.46-5.72a2.4,2.4,0,0,0-.6-1.15c-1.72-1.41-23.84-9.28-26-9.39-4.59-.24-8.52,1.28-12.32,3.81-5,3.3-11.7,3.39-14,.61-1.65-2,.21-10.94,2.72-14.27,4.88-6.46,10.85-12.14,13.87-19.94.92-2.41,3.2-3.51,5.4-4.59,6.74-3.29,13.18-7,18.3-12.69,2.43-2.72,5.77-3.92,9.36-4.35,4.07-1.57,6.84-5,10.29-7.39,6.69-10.31,15.71-13.63,27.72-10.55,5,1.29,10.4,1.62,15.59,2.48,10.48,1.75,19.69-1.72,27.69-7.83,6.17-4.71,12.77-9.2,15.79-17.32,1.55-4.19,6.65-5.74,10.76-7,6.45-2,12.32-4.53,16.87-9.75,1.25-1.44,2.91-2.89,5.17-1.56C761.9,637.06,763,637.71,764.32,637Z"
            fill="#3f362c" />
        <path
            d="M773.53,570.59l-2.43,1.55c-2.38,2.77-2.6,5.88-1.46,9.21-1.06,12.35-5.94,24.56-1.33,37.11a3.27,3.27,0,0,0,1.4,2.35c3.16,1.79,4.83-.76,6.73-2.42,2.63-2.3,4.67-5.31,8.08-6.62a31.11,31.11,0,0,0,4.63-3c7.9-4.85,16.23-8.89,24.53-13,8.36-4.71,16.66-9.52,23.88-16,5.82-4.44,10.92-9.75,17-13.89a6.15,6.15,0,0,0,2.89-4.13,2.68,2.68,0,0,0-.7-1.71,24.51,24.51,0,0,0,2.34-3.91,2.74,2.74,0,0,0-1.38-3.36,2,2,0,0,0-2.89.67c-4.45,7.23-12.22,6.35-19,8.1-6.09,1.59-11.58,3.39-11.09,11.94.22,3.91-3.48,6.76-7.66,7.76h0c-.7.81-1.27,2.1-2.13,2.35-8.51,2.45-17.17,4.36-25.55,7.41-3.66,1.34-2.79-2.54-2.34-4.21.84-3.16,1.59-5.69-3.09-5.59a2.52,2.52,0,0,1-2.57-2.47C780.74,574.08,777.56,571.93,773.53,570.59Z"
            fill="#191612" />
        <path
            d="M769.64,581.35c1.75-2.87,1.12-6.12,1.45-9.21-10.12-1.12-17.77-5.88-22.23-15.32-1.49-3.14-3.54-4.7-6.49-1.77-2.29,2.28-3.51,1.68-4.82-.93-.66-1.33-2.31-2.21-2.82-3.57-2.19-5.73-6.07-8-12.12-7-1.41.23-3-.47-4.45-.74a28.21,28.21,0,0,0,5.47,9.64c2.51,3.19.48,7.54,1.73,9.92s6.92,2.09,9.78,4.17c2,1.45,2.82,4.85,3.68,7.54a16.89,16.89,0,0,0,24.27,9.81C765.18,582.76,766.94,580.85,769.64,581.35Z"
            fill="#433a36" />
        <path
            d="M633.75,757.85l-4,5.32a10.23,10.23,0,0,0,7.93,8c4.17,3.46,7.83,3.55,12-.59s10.42-4.06,16-3.84c10,.41,19.6,0,29.47-2.27,9.42-2.19,19.4-3.52,28.85,2,3.82,2.22,8.41-.54,12.68-.59-14.61-9.61-30.21-6.22-45.71-3.39-2.37.43-4.39,0-6.77.07-2.5-3.33-6.76-.32-9.74-1.78a94.12,94.12,0,0,0-34-1.56c-1.94.26-3.26-1.06-4.87-1.67A2,2,0,0,0,633.75,757.85Z"
            fill="#2a2621" />
        <path
            d="M769.63,619.8l-1.32-1.34c-5.24-1.81-9.11-1.39-10.86,5.1-1.31,4.85-4.27,5-7.69,1-3.68-4.23-8.41-1.76-12.71-1.51a6.91,6.91,0,0,0-4.09,2c-5.94,6-12.87,9.94-21.39,10.7,4.82,6.11,10,8,18.43,6.2,5.29-1.1,8.89-1.7,12.84-5.81,2.76-2.88,8.28-3.74,12.7-4.17s6.58-2.65,7.26-6.18c.92-4.71,3-5.39,6.85-3.4A1.77,1.77,0,0,0,769.63,619.8Z"
            fill="#2f2923" />
        <path
            d="M656.19,610.59c-4.24,3.43-3.16,10.11-8,13.21h0a4.14,4.14,0,0,0-.72,4.81c3,2.14,6,4.43,9.92,1.78,6.09-7.82,13-14.49,22.9-17.24,4.39-1.22,6.47-5.66,10.15-7.94,1.85-1.35,2.8-2.8.61-4.72-5.82-5.1-15.58-3.19-19.47,3.83,2.28,3.4,4.5.32,6.73-.1,1.43-.27,3.08-1.38,4,.55.76,1.61-.34,3.05-1.54,4-3.5,2.66-7.87,3.44-12,5.7.07-3.81,4.27-5.57,3.23-9.16-3.35-2.14-5,1.16-7.22,2.37C662.08,609.13,660,612.33,656.19,610.59Z"
            fill="#674f3a" />
        <path
            d="M656.19,610.59c1.56,4.57,3.92,2.36,6.33.83,3.19-2,5.46-5.44,9.44-6.24h0c5.27-6.58,10.88-7.72,18.13-3.83,2.24,1.2.65,2.55.4,3.87,5.85-1.59,4.68-4.73,1-7.19-6.47-4.36-13.25-3-19.82.25-1.26.62-1.92,2.93-3.75,1.76a3.65,3.65,0,0,1-1-4.79c3.43-5.22.32-10.14-.16-15.16a4.59,4.59,0,0,0-1.17,0c-.36,4.08.14,8.37-2.82,11.82-1.75,5.31-3.46,10.64-5.28,15.93Z"
            fill="#3c3024" />
        <path
            d="M657.44,630.4c-3.3,1.44-5.81-2.89-9.14-1.26-4.84,3-9.94,5.66-14.07,9.72-1.43,3.35-4.11,5.63-6.76,7.93l-.45.76-1.22,4.1c9.06-7.39,20.71-10.5,29.63-18.14C656.48,632.61,657.42,631.86,657.44,630.4Z"
            fill="#413528" />
        <path
            d="M689.34,632.07c-4.11,0-10.74-2.07-10.86,3.06-.08,3.55,7,5.19,12,4.58A2.89,2.89,0,0,0,691,638C690.72,636,690.81,633.8,689.34,632.07Z"
            fill="#896134" />
        <path
            d="M690.53,638.56l0,1.15a4.22,4.22,0,0,0,.11,1.17c4,.65,8-.64,12,.84,1.7.64,2.15-.73,2.47-2l-4-4C697.41,636,693.12,634.14,690.53,638.56Z"
            fill="#76654d" />
        <path
            d="M690.53,638.56l10.56-2.88c-3.61-2.2-7.71-2.81-11.75-3.61C689.26,634.32,687.9,636.81,690.53,638.56Z"
            fill="#b69f7f" />
        <path
            d="M945.06,922.44c-.48,2.19-1,4.37-1.45,6.56a2.72,2.72,0,0,0,.23,3.22c2.7,2.44.72,5.08.32,7.64,1.13,4.87-2.89,10.55,2.28,14.78,3.84-1.21,3.15-4.44,2.64-7a40.14,40.14,0,0,1,2.44-23.26c3.59-8.85,1.46-17.79.53-26.7-.59-5.57-2.69-11.23,2.47-16,1.31-1.22,1.25-3.68,1-5.69-3.72-6.4-6-7.48-12.74-5.73-1.48.38-2.86,1.52-3.92-.53a4.09,4.09,0,0,1,.28-4.91c7.67-9.72,4.55-20.5,2.79-31.07-.38-2.28-2.26-3.78-4.53-4.41-3.42-.94-8,1.42-10-3.62-.22-.55-1.73-.15-2.4.39-3.69,3-4.79,7.35-5.59,11.66-.67,3.58,2,5.6,4.71,7.26,5.72,3.47,8,8.63,6,14.88-1,3.11-1.24,6.38-2.15,9.68-5.32-1.69-7.85-5-8.19-10.25-.28-4.26-7.14-10.62-11.39-10.88s-6.78,3.36-4.8,7.46c1.7,3.56,3.83,6.92,3.68,11.24-.32-5.12-6.61-5.49-7.62-10.48-.39-1.91-3.68-2.23-5.11.59-.74,1.45-.42,4.07-3,3.51-2.1-.47-3.13-2.78-3.31-4.61-.58-6-3.86-11.26-4.82-17.13-.5-3-1.11-5.73-4.75-6.21-2.4-.31-2.64-2-2.44-3.93.25-2.47-.51-4.8-.75-7.19-.69-6.88-4.23-12.18-8.12-17.57-2.27-3.15-3.52-7.11-4.82-10.88a9.46,9.46,0,0,0-2-4.25c-2.07-2.67-4.25-1.82-6.91-.73-2.85,1.18-8.78-7-7.68,8,.09,1.31-.74,2.53-1.33,3.7-.95,1.85-2.35,3.42-4.45,3.43-2.29,0-2.11-2.44-2.88-3.88-1.5-2.83-1.84-6.47-5.51-7.72a3.82,3.82,0,0,0-3.73.28c-.91.83-1.14,2.25-2.6,2.93,1.29-.87,1.79-2.11,2.67-3,.32-3.16-1.64-3.11-3.73-2.52s-4.09,1.4-6.76,2c3-3.83,1.61-6.38-1.82-8.45-5.06-3.06-9.6-6.7-12.33-12.17-3.85-8.36-10.52-15-13.86-23.76-1.27-3.3-2.23-6.13.58-9,.9-.93,1.56-2.32.5-3.55s-2.61-.77-3.59-.06c-3.39,2.42-9.74,1.27-9.66,7.95,5.66,3.22,7.81,8.05,6.62,14.48-.86,4.61,1.18,8,4.41,11.12,8.07,7.88,13.66,17.54,18.47,27.64,1.34,2.8,1.54,6.15,5.93,5.51,2.15-.31,2.41,1.43,2.52,3.06.14,2,.12,4,1.7,5.55l1.32,1.34a2.19,2.19,0,0,0,2.6.39c1.79-1.43,0-3.78,1.28-5.4,2.46,3.08,2.87,6.27.87,9.67,3.08,8.1,9.2,15.5,8.17,24.57-1.1,9.77,3.23,15.71,10.51,20.76,4.06,2.81,6,6.61,7.29,11.77s4.32,9.51,3,15.32c-.5,2.15,2,4.23,3.6,6,2.46,2.75,5.35,5.4,9,3.74,4.09-1.83,3.09-6.09,2.16-9.35-1.38-4.85-1.58-8.72,4.15-10.48,2.65-3.94-.4-5.24-3-7-6.16-4.08-7.12-7.2-4.36-12.41,1.34-2.53,2.57-4.24,5.2-1.28,1.34,1.52,3,2.82,5.14,1.57,2.33-1.36,2.05-3.62,1.73-5.86a19.44,19.44,0,0,1-.44-4.45c7.08,9,5.46,18.6,3.73,28.24-.34,1.9-1.26,2-2.73,1.35a4.35,4.35,0,0,0-4.38.15c-2.94,5.83-.69,11.17,5.54,12.29,4.77.86,9.61.91,14.15-1.51,4.21-2.24,7.45-.82,10.33,2.76,6.55,8.14,15.92,11.2,25.51,13.5,3.48.83,5.4-1.94,5.56-5.06a21.52,21.52,0,0,1,3.32-9.89c-.09-1.29-.18-2.59-.34-5,3.9,4.86,4.59,10,6.45,14.49,3.7-.39,2.11-3.32,2.64-5.24C944.89,903.89,946.88,913.16,945.06,922.44Z"
            fill="#3d302b" />
        <path
            d="M817.12,809.66c0-2.86,0-5.72,0-8.59,0-1.61-.38-3.71-2.48-2.54-4.56,2.54-4.64.28-5.94-3.56-1.52-4.47-3-9.5-7.38-12.68a9.58,9.58,0,0,1-3.3-4.78,16.94,16.94,0,0,0-7.59-10.24c-4.22-2.65-5.8-6.53-4.47-11.9,1.8-7.32-1.43-11.93-8.4-13.42-3-.68-4.21,1.82-5.85,3.51-6.56,5.93-14.39,8.1-23,7.87-1.31,0-2.95.36-3.85-.48-9.81-9.15-21.4-5.43-32.43-4.35-8.22.8-16.25,3.41-24.68,2.36-4.64-.57-7.18,2.49-9.13,6.21-1,1.87-4.15,1.93-3.94,4.8,2.72,2.91,6.34-.4,9.23,1.33l.57-1.2c4.21-8.75,4.6-9,14.13-5.9,1.93.62,3.49,1.07,5.6.31A57.2,57.2,0,0,1,732.37,754c1.24.19,3.08.57,3.48,1.42,3.11,6.61,9,5.63,14.25,5s8.1,2.86,11.83,4.77c2,1,1.28,3.59-.3,5.15-7.4,7.32-6.68,17.81-10.28,26.61-.35.84,0,2.72.56,3.06,6.44,3.62,6,11.54,10.31,16.48,1.08,1.24,2.18,3.31,1.93,4.76-1.35,7.91,5.7,11.49,8.55,17.17,1.81,3.6,4.39,3.93,8,0,9.54-10.3,11.29-20.83,5.25-33.57-2.56-5.39-5.9-11.44-2.11-18.1,1.05-1.85-.39-3.89-2.1-5.11-2.41-1.71-4.45-4-1.78-6.36,2.25-2,5.53-4.13,8.78-1.24,2.3,2,5.65,4.1,6.21,6.67,1.6,7.36,7.51,13,7.65,20.8,0,1.94.89,4.16,2.73,3.87C810.26,804.56,813.31,808,817.12,809.66Z"
            fill="#373029" />
        <path
            d="M871.26,877.36c-7.71.64-8.67,2.06-6.41,9.46,1,3.34,2.92,8-.29,9.63-3.66,1.84-7.28-1.34-9.24-5.21-.79-1.56-2.64-3.62-2.19-4.6,2.44-5.3-2-9.37-2.17-13.25-.33-10.95-8.83-14-14.82-19.44-1.95-1.79-3.56-3.21-3.12-5.94,1.78-11-1.51-20.58-7.49-29.53a31.63,31.63,0,0,1-1.8-3.53c.56-2.31-1.16-3.06-2.68-4h-2.61c.76,3,1,6.25,3.71,8.2,5.34,3.88,2.11,6.82-.37,10-1.6-.32-1.58-1.06-1.52-2,.14-2.37-.6-5-3.11-4.89-3.67.19-1.09,3.29-1.61,5-3.14,10.55,8.64,12.57,11.11,20.14,2.33,7.11,8.21,12.1,14.87,16A9.06,9.06,0,0,1,846,871c0,3.76.48,6.77,4.14,8.9,1.87,1.09,1.76,3.71.38,5.34-3.17,3.72-1,6.12,1.82,8.2,4.36,3.26,8,8.39,14.65,6.52.83-.24,2.31.12,2.53-.3,3.29-6.33,9.35-3.66,14.29-4.7a16.15,16.15,0,0,1,13.09,2.77c3.11,2.18,5.3,5.56,10.13,4.65,2.12-.4,3.39,2.62,3.6,4.87a7.09,7.09,0,0,0,4.35,6.1c.9,1.59-.26,3.3.26,4.91.59,4.12.31,8.25.25,12.38.06,2.81-.15,5.63.54,8.39,3.61,3,1.09,8.16,3.87,11.48,0,9.41-.58,18.84,1.25,28.2.33,1.72.43,3.42,1.52,4.86,3.6-1.1,1.41-3.78,1.58-5.82q-.16-11.65-.32-23.32c-1-1.13-.45-2.56-.66-3.84a103.35,103.35,0,0,1,0-12.32c1.2-6.94,1.05-14,2-20.93,0,2.67-.53,5.28-.5,7.94,0,5.48-.41,11,.29,16.4.16,1.28.49,2.93,1.88,3.15,2.15.33,2-1.79,2.47-3.13,2.53-7.07.77-14.63,2.49-21.79a25.26,25.26,0,0,1,3.48-14.38c2.76-4.93,3.7-9.85,1-15.08-3.55,1.21-5.34,3.43-4.87,7.44.58,4.87.25,6.87-6.36,5.34-6.78-1.57-11.51-6.85-18.32-7.82-1.46-.21-2.49-3.37-3.74-5.16-3.34-4.76-7.61-5.49-12.67-2.44-4.67,2.82-10,2.34-14.58.71-3.75-1.35-5.88-5.31-3.29-9.85C872.84,877.53,872.4,877.1,871.26,877.36Z"
            fill="#373029" />
        <path
            d="M908,940.88c.08-4.71,5.41-7.84,3.92-13l-7.75-1.35c-1.69,4.56.25,9.07.32,13.6C904.54,942.29,906.06,944.17,908,940.88Z"
            fill="#1b1919" />
        <path
            d="M922.68,747.26c-2.14-4.64-6.26-4.53-10.15-3.73-3.22.67-5.31-1.58-7.32-2-7.65-1.74-10.92-6.18-12.7-13-.09-.33-1.25-.74-1.66-.55-2,.9.89,2.91-1.32,4.34-.6-2.37-6.52-3.38-.8-6.86a.87.87,0,0,0-.22-1.54c-7.92-2.4-4.64-11.1-8.7-15.68-.22-.24.17-1.55.45-1.62a3.27,3.27,0,0,1,2.43.16,45.25,45.25,0,0,1,4.83,4.46c4.31,4.52,9.36,3.64,9.38-2.46,0-7.22,5.35.74,5.79-3,.32-2.68-.54-6,3.25-7.14,1.78-.55,3.14-.32,3.44,1.71.37,2.54,1.68,3.31,4.78,2.62-2.85-3-.51-9-6.91-9-.78,0-.91-1-.4-1.45,5.84-4.62,0-6.78-2.22-9-3.77-3.78-3.89-9.25-7-13.23.47,3.92.12,8.2,1.61,11.68,2.87,6.71.74,11.31-4.27,15.52-1.49,1.26-2.73,2.55-2,5.08a3.24,3.24,0,0,1-3.58,4.26c-2.25-.2-3.26-2.22-3.56-4.8-1-9.1-3.31-17.89-7.84-25.95-.71-1.27-1.25-3.3-3.28-1.89-1.43,1-3.27,1.48-2.88,4.44.75,5.54,1,11.17,2.55,16.58.94,3.17,1.08,5.36-3.4,4.45-3.36-.68-3.68,1.06-2.62,3.83,1.44,3.79,2.77,7.34-2.2,10.18-2.4,1.37.33,3.1,1.61,3.83s3.33,3.22,4.64-.26c.34-.93,0-2.33,2.1-2.43.34,4.69-1.29,9.23-1.2,13.89,0,2.61-.54,5.06.89,7.48s.12,4.31-1.87,4.65-1.91-1.86-1.59-3.39a3.15,3.15,0,0,0-2.1-3.73c-7.23-2.2-8.6-8.22-9.23-14.4-.92-9.15-8.59-10.81-14.81-12.63-4.74-1.39-9.27,2.68-12.76,6.5-.94,1-1.85,2.33-.72,3.47,2.61,2.65,2.44,6.51,4.39,9.41l.86-.29c7.4-3.06,13.77.06,19.78,3.77,4.8,3,5.29,8.69,1.38,12.69-3.14,3.21-3.33,7,0,9.13,6,3.93,8.47,10.57,13.34,15.27,1.27,1.21,2,3,4.13,2.64s2.52-2.16,2.39-4.07c-.12-1.73.11-3.15,2.35-3,4,.22,9.89,8.16,8.59,12.11a6.94,6.94,0,0,0,.46,6.3c5,7.9,4.43,16.94,5.22,25.67.24,2.66.69,6.78-2.78,7.12-2.55.25-4.94-1.73-5.76-5.85s.16-11.26-7.8-10.8c-5.35,3.86-6,5.56-2.64,10.68,4.92,7.6,7.21,16.34,10.91,24.46a28,28,0,0,0,6.17,9.23c3,2.81,6.61,5.41,5.18,10.52a1.82,1.82,0,0,0,1,2.21c1.4.53,2.52-.14,3.5-1.16,3.73-3.88,3-8.56,2.06-13.11a31.3,31.3,0,0,0-3.85-9.11c-.64-1.11-1.53-2.39-.4-3.61,1-1.06,1.94,0,2.92.4,5.79,2.16,8.53-.05,8-6.41-.65-8-3.93-16.3.62-24,5.55-9.33,5-17.73-2.08-25.81a2.44,2.44,0,0,1-.24-3.06c2.86-4.53,1.4-6.39-3.58-7.71-5.53-1.48-6.7-4.84-5.69-12.87,2,1.53,3.45,3.35,5.17,4.79,2.63,2.2,3.47,7.36,7.29,6.9,5.27-.64,11-1.62,14.57-6.55C926.75,749.71,923.24,749.6,922.68,747.26Z"
            fill="#684941" />
        <path
            d="M835.56,726.06c-.94,4.46,2.14,8.88.22,15-1.76-3.75-3.42-4.11-6.41-3.72-4.21.54-7.59-3.68-12.17-4.27-2.46-.32-4.57-3.42-5.43,1.41-.33,1.87-1.72,1.3-2.94,1.64-2.61.74-4.23,2.17-2.22,5.28,4.41,6.81,2.8,16.71,12.1,21.73-9.68-3.76-9.07,3.55-10.83,8-.21,3,1.68,3.38,3.79,2.64,4.05-1.4,6.85.5,9.27,3.28s5.54,4.27,8.1,6.74c2.82,2.72,10.11,1.23,11.88-3,2.19-5.22,4.76-5.39,9-3,1.53.87,3.31,1.4,4.84-.27a5.9,5.9,0,0,0,0-5.73c-6.18-11.87-7.87-25.51-14.48-37.18-1.61-2.83-.13-7.35-4.61-8.59Z"
            fill="#684a3f" />
        <path
            d="M773.57,745.92a8.47,8.47,0,0,1,4-4c2.6-5.24,8.58-4.07,12.89-7-10.41,7.62-1.35,14.47,1.42,19.95s6.24,11.48,10.77,16.27a2.77,2.77,0,0,0,4,0c-4.85-3.64-6-7.43-.62-11.67,3.19-2.53,2.17-5.21.18-8-5.85-8.31-5.75-9.39-.27-17.7,3.58-5.43,2.16-11.58,1.53-17.4-.32-2.89-1.89-5.49-1.85-8.78.05-4-3.58-4.39-6.89-4.14-1.3.91-1.66,2.41-2.35,3.7-1.78,3.44-4.81,5.94-6.86,9.17-1.12,1.38-2.32,2.8-2.61,4.56-1.58,9.38-9.4,13.5-15.75,18.68-4.09,3.34-7.31,1.55-9.6-4.53C758.07,726,741,722.15,735,729.11a3.07,3.07,0,0,0,2.11,2.25c4.69,1.73,5.24,5.12,4,9.45-.81,2.93-1.3,5.94,0,8.92a6.7,6.7,0,0,0,7.42,3.19C757.05,751.17,766.12,751.39,773.57,745.92Z"
            fill="#4d403a" />
        <path
            d="M735.33,728.7c8.73-6.33,15.63,1.07,23.2,3.22,1.36.39,1.19,1.93,1.42,3.28,1.42,8.34,6.86,9.91,13.57,5a47.72,47.72,0,0,0,17.22-23.48c.84-4.07,4-6.44,6.59-9.28,1.55-1,1.27-2.53,1.32-4,.19-1,.19-2.87.61-3,5.66-1.36,5.33-6.11,6-10.31-10.27.48-11.62,1.46-14.49,9.9-1.39,4.08-3.82,5.88-8,3.13a32.49,32.49,0,0,0-4.64-2.52c-4.51-2-8.52-1.83-11.69,2.51-2.31,3.15-6.21,5.11-6.94,9.44.09,4.32-1.7,6.41-6.31,6.31-6.78-.15-13.07,3.86-20,2.65A44.77,44.77,0,0,1,722,720.53c-5.69.06-11.62-.78-16,4.24-.31,1.63.76,2.89,2,2.75C717.18,726.49,726.15,730,735.33,728.7Z"
            fill="#604c45" />
        <path
            d="M790.71,639.74l-1.29,0c-2.76-1.43-4.12.16-4.71,2.51a15.3,15.3,0,0,1-2.22,5.35c-.11,2.74,3,5.27.51,8.17-.06,6.28,3.62,11.61,4.49,17.7.26,1.82-.37,1.48-1.34,1.57a3.19,3.19,0,0,0-1.93,2.47c-.73,6.16-3.39,10.74-9.69,12.49-.77,5,3.33,6.36,6.39,8,2.63,1.43,3.79-1.13,4.63-3.27s1.29-4.82,3.9-5.83c5.88-2.27,2.68-4.63-.09-7,2.78,1.21,5.32,4.87,8.1,2.37,2.63-2.37.4-5.24-1.83-7.37,2.45,1.59,4,4.19,6.51,5.63,3.73,2.16,6.19,1.11,7.09-2.92l0-1.29c1.28-2.87-.49-6.88,4.36-8.54,2.52-.86,2.12-4.43,0-6.88,2.28.45,4.26,2.67,6.71.91,3.58-7.09,2.17-12.77-4.24-16.91-1.66-1.07-3.31-2.16-5-3.1-9-4.9-11.93-4.08-17,4.76a12.14,12.14,0,0,1-2.16,3C791.76,647.36,799.63,642.51,790.71,639.74Z"
            fill="#956551" />
        <path
            d="M809.23,679.54c-2.18,4.74-5,3.05-7.63.61-2.87-2.65-5.48-5.61-9.62-7.09-.5,4.74,6.73,5.4,4.83,11-2.21-1.11-4.64-1.89-6.41-3.43-1-.83-.9-3.35-2.87-1.6-1.44,1.27-.44,2.88.88,3.89,2.48,1.89,6.77,3.66-.63,4.49-1.4.15-3.47,3.06-3.6,5.65-.33,6.54-2.9,4.44-5.62,1.47-1.27-1.39-3.69-1.78-3.71-4.27-.82-.91-2.24-1.46-2.89-.66-2.42,2.94-4.83,1.72-7.53.64-1.71-.69-5.46-1.25-5.06.32,1.29,5-4.72,6.15-4.37,10.66.39,5.24-3.65,6.49-8,5.9-3.46-.46-5.25-.73-5.89,4.14-.48,3.68-5.41,4.83-9.49,4.89-3.86.06-7.07-2.29-10.79-2.73a5.11,5.11,0,0,0-4.26,2.06c-1.36,5,2.85,5.14,5.58,6.58,3.76,2.23,7.9,1,11.87,1.33,7.67-1.21,14.82-4,21.87-7.12,1.84-.83,3.54-1.63,4.52-3.49,3-3.64,5.71-7.72,9.24-10.79,3.71-3.22,7.52-.17,10.85,1.71,8.61,4.88,11,3.7,12-6.41.27-2.6,2.31-4.78,4.16-4.13,4,1.42,5.73-2.16,8.61-3C805.74,686.31,811.56,684.48,809.23,679.54Z"
            fill="#765449" />
        <path
            d="M806.57,771.16h-4c1.23,6.91,7.15,9.6,12,13,2.79,2,6.25,2.8,1.12,5.92a2.44,2.44,0,0,0-.88,3.45c1.14,1.8,2-.15,3.11-.52,2.63-.9,5.44-1,7.93-2.64,1.18-.78,1.54,1,1.77,2h0c7-.82,6.42,5.81,9,9.31,1,1.39-.63,5.28,2,4.42,2.48-.8,6.31-1.06,7.32-4.72,1.15-4.16,4.05-8.1,1.23-13.22,3.38,3.25,6.11,4.48,9.09.19,1.09-1.56,1.86,1.16,3,1.32,2.05-4.9-1.12-8.32-3.36-12a1.67,1.67,0,0,0-1.92,0c-2.17-.91-4.41-1.7-6.51-2.76-4-2-6.81-2.86-7,3.51-.11,3.75-4.18,3.83-6.92,5s-3.37-.69-5-2.41a72.47,72.47,0,0,0-11.24-9.29c-1.85-1.32-4.21-1-6.11.56s-2.72.34-3.5-1.2Z"
            fill="#513c37" />
        <path
            d="M788.11,607.87l-4,2.65C779.7,614.88,777,621,771,623.77c0,.44,0,.87,0,1.31,1.42,1.92,3,1.56,4.46.15,1.64-1.63,3.15-1,4.74-.09,8,.49,15.55-6.31,23.78-1.36h2.63c7.54-2.22,14.53-5.83,21.29-9.64C838,608.41,844.58,599,850.18,589c4.17-7.46,7-15.58,11.83-22.77,3.08-4.59,1.66-6-5.28-6.18,0,.45,0,.9,0,1.35,2.06,2.62,1.08,4.9-.8,7.07-3.58,4.16-6.49,8.84-10.09,13a13.34,13.34,0,0,0-1.09,1.5c-4.13,7.66-10,14-15.79,20.34-6.59,7.23-15.89,10.05-24.79,13.08-3.92,1.34-7.72-.69-10.82-3.55C791.59,611.2,790.35,609,788.11,607.87Z"
            fill="#2f2923" />
        <path
            d="M790.71,639.74c5.27,2.87,1.53,5.84.21,8.9-.72,1.67-4.72,3-1.55,5.1,2.18,1.48,3.74.71,5.17-2.91,4.06-10.25,8.59-10.89,18.25-4.16,8.16,5.7,9.22,8.28,7,16.94a16.54,16.54,0,0,0,6.61,8c8.23,1.08,16.19-7.93,14.45-16.29-.29-1.35-.62-2.69-2.1-3s-1.58,1.12-2,2.08c-1.25,3-3.9,2.94-5.09.92-1.76-3-6-4.35-6.63-6.35-2.71-8.67-11.42-6.34-16.66-10.22S796.58,638.26,790.71,639.74Z"
            fill="#76523f" />
        <path
            d="M826.36,671.59c-1.43-3.3-3.35-6.2-6.61-8-2.89.25-4.46-3.83-8.09-2.14-.61,1.57,1.18,2.24,1.89,3.32a3.14,3.14,0,0,1-1,4.56c-4.71,3.27-4.79,3.16-3.26,8.9,3.46-1.93,5.34-.88,5.63,3.06.73,10.11,5,13.25,14.2,10.8,2.4-.64,3.22-2.59,2-3.7C826,683.67,830.65,676.37,826.36,671.59Z"
            fill="#765449" />
        <path
            d="M803.93,623.78c-4.43-3.08-9-5.29-14-1.21-1.73,1.42-3.23.24-4.86,0-2.12-.24-4.52-.73-4.94,2.52a14.12,14.12,0,0,1-1.22,2.93c-1,1.44-4.34.66-3.68,3.72.59,2.76,3.23,3.05,5.19,3.25,7.49.8,15.14,2.48,22.22-1.92-3.06-1.11-6.18-2.1-9.17-3.39-1.68-.72-4.33-1.34-3.39-4a4.43,4.43,0,0,1,5.39-2.72C798.33,623.9,801.11,623.66,803.93,623.78Z"
            fill="#23201b" />
        <path
            d="M782.81,647.72c2.33-.3,4.21-1,3.32-4s1-3.69,3.29-4c-1.7-2-4.13-3.27-6.43-2.48-6.82,2.34-11.42.48-14.18-6.81-.71,3.1-1.65,5.58-4.49,6.57l-2.58-1.33c-3.56-.06-3.64.13-1.79,4.22,4.66.86,9.28,2,13.95,2.86a14.92,14.92,0,0,1,3.49.71C779.93,643.92,780.46,647,782.81,647.72Z"
            fill="#76523f" />
        <path
            d="M826.2,720.76c-.45-2.2-.83-4.31-1.32-6.38a3.23,3.23,0,0,0-.92-1.69c-1.29-1-3.35-.18-3.44.5-.71,5-8.46,1.52-8.13,6.63.15,2.26,1.82,7.24,5.76,2.6C820.58,719.56,823.42,721.62,826.2,720.76Z"
            fill="#4d403a" />
        <path
            d="M811.86,702c2.22-.07,3.4-.91,3.66-2.64s-.72-2.53-2.28-2.22-3.17.64-3.42,2.46C809.6,701.22,811.17,701.48,811.86,702Z"
            fill="#4d403a" />
        <path
            d="M817.09,581.27c.72-1.58,1.93-3.15.8-4.93-1.83-2.93-2.17-5.37.7-8.09,2.3-2.18.66-3.92-1.7-4.93-4.31-1.86-17.44,5.26-17.37,9.79.06,4.3,1.29,8.44,7.09,8.22,3.49-.13,7-.05,10.48-.07Z"
            fill="#494439" />
        <path
            d="M911,955.69l-.41,6.68c.43,8.84.89,17.69.21,26.54,2.64,2.51,2.76.06,2.85-1.62.44-7.39,2-14.74.88-22.19-1-3-.29-5.94.22-8.91.38-2.23,1.64-5.51-1.79-5.67C910.24,950.4,910.74,953.55,911,955.69Z"
            fill="#1b1919" />
        <path
            d="M932.06,945.22c-.45,9.18-3.33,18.25-.66,28.91,2.23-7.72,4.13-14.32,6-20.92C937,949.65,936.32,946.21,932.06,945.22Z"
            fill="#373029" />
        <path
            d="M886.24,965.15c-.87,1.84.48,4.3-1.57,5.82.12,2.72,1.54,4.85,4,8.75C888.9,973.47,886.89,969.39,886.24,965.15Z"
            fill="#1b1919" />
        <path
            d="M938.72,915.88a13.45,13.45,0,0,0,1.74-10.43C937.38,909,938.28,912.46,938.72,915.88Z"
            fill="#373029" />
        <path
            d="M962.34,940.39c-3.35-1.65-2.28-4.32-1.83-7,1.34-8.16,6-15.77,4-24.47-.35-1.55.74-4-1.9-4.21-2.21-.13-1.69,2.23-2.07,3.55-2.94,10.33-4.85,20.94-8.62,31.07-1.65,4.4.2,9.18-.12,13.79.32.57.63.61,1,0,.51-.45-.2-3,1.28-1.36,1.8,2,2.71,4.78,4.74,8.62C960.16,952.62,961.25,946.5,962.34,940.39Z"
            fill="#3d302b" />
        <path
            d="M972.59,909.14a5.65,5.65,0,0,0,1.29.13c2.56-2.08,2.21-5.07,2.22-7.82,0-7.59.6-15.23-1.37-22.68a216.06,216.06,0,0,0-12.11-41c-.32-.78-.11-.67.19-.5,1.07.59,1.3-.69,1.67-1.15,1.19,12.52,8.82,23.44,9.81,36.16,1,2.11.31,6,2.9,6.06,3.27.09,3.75-3.82,4.5-6.43,2.09-7.36-1-13.91-3.83-20.35-4.32-9.92-5.92-20-3-30.65,0,10-.53,20.2,6.07,28.83,2.42-.45,2.52-2.46,2.88-4.3.37-5.43.56-10.86,1.13-16.31.86-8.14-.86-15.94-6.92-22.13-3.43,2.72-5.45-1.61-8.36-1.73-1.39,0-3-1.74-4,.15-.74,1.43.76,2.32,2.06,2.74s2.71,1,1.57,2.67-2.75,1.27-3.76-.28c-1.6-2.47-5.94-2.56-5.49-7.14.11-1.07-3.37-5.18-6-.23-2.29,4.37-5.25,7.2-10.15,2.26-2.15-2.17-5.37-1.32-8.14-.38-2.54.85-5.37,0-4.72-2.5,1.52-5.91-.24-11.85,1-17.65.35-1.61,1.15-3.21,3.07-2.52,2.31.83,2.07,2.53.58,4.14-1.22,1.32-2.62,2.51-.65,4.37,1.63,1.54,3.12,3.17,5.67,2.66a4.69,4.69,0,0,0,3.89-4.75c-.87-6.32,4-10.61,4.94-16.22.23-1.47,1.6-3.53-.79-3.53-8.82,0-12.16-7.35-17.15-12.41-1.55-1.58-2.9-3.24-5-4.12l-15.32,5.71a41.86,41.86,0,0,0-14.07-14.59c-.11,3.75,2.73,6.85-1.23,9-1.7.91-.34,3.21,1,3.73,3.86,1.51,4.91,7.44,10.8,6.17,2.34-.5,1.67,2.58.29,3.69-3.86,3.11-3.15,4.84,1,7,3.5,1.85,2.14,6.49,3.71,9.46,1.9,3.58.75,5.62-1.27,8.71-5.63,8.62-4.63,18.37-2.93,27.93.48,2.7,1.62,5.33-1,7.22-3.09,2.23-3.82-.61-5.24-2.62s-3.11-.61-4.44.67c-1.94,1.87-1.8,3.66-.13,5.79A23.53,23.53,0,0,1,902.92,847c-.19,2.86-.91,5.11-4.95,6.26,5-7.83-1.85-10.41-5.44-14.11-1.74-1.79-3.9-3.57-4.06-5.75-.51-7.13-7.59-11.57-7.11-19.25.15-2.39-2.67-5.33-4.72-7.43-3.73-3.81-2.45-6.48,1.22-9,2.88-4.84-.53-8-2.93-11.51-8.15-4.64-10.28-3.52-14.23,7.49,3.63,5.93,5.08,12.76,10.26,18.33,3.19,3.41,4,10.67,3.54,16.77-.15,2.18-2.64,8.07,4.57,5.52,2.34-.84,2.27,2.37,2.74,4.27,1.8,7.29,3.49,14.64,6.59,21.52.75,1.65,1.21,4.29,3.9,3.67a4.63,4.63,0,0,0,3.82-4.74c0-1.18-1-3,1.35-2.62,1.67.24,3,1.42,1.76,3.25-1.08,1.53-2.47,3.23-.89,4.62,2.3,2,2.67-2.24,4.89-2,1.91,1.68.44,4.59,2,6.55.9,1.13,1.72,2.13,3.2,1.58,1.66-.62,2.57-1.92,1.61-3.65-1.94-3.44-1.87-7.69-4.56-10.86-1.14-1.34-3.12-3-.61-5,2.22-1.74,4-1.74,6.28.41,4,3.68,4.48,3.34,8.54,14.33,1.59,4.31,5.93,4,8.31,6.75.86,1,2.62-.78,2.4-2.11-1.22-7.25,4.62-14.11.84-21.66-.93-1.86-1.5-3.43-3.36-4.23-8.55-3.65-8.81-4.06-5.06-12.31.92-2,.78-5.06,4.13-5.6.35,3.69.12,7.71,6.07,4.35,3.49-2,7.23,0,7.82,4.16,1.11,7.93,2.32,15.93.32,24-.4,1.59-.84,3.42-2.23,3.84-4.85,1.44-3.06,3.84-2,7.22,1.46,4.85,2.21,5.27,6.26,1.8,4.3-3.68,8,.75,11.55,3l3.25-5.72a291.64,291.64,0,0,1-.36,34.48c13.48-17.29,1.17-33.89-.71-51.13,12.28,17.2,11,36.7,11,55.8,3.28-.23,2.83-3,4.72-3.6Z"
            fill="#513c37" />
        <path
            d="M635.05,639.86c3.92-4.2,10.66-4.86,13.25-10.72l-.06-5.33a11.18,11.18,0,0,0-8.86-.06c-.76.34-2.24.64-2.23.91.43,11.2-11.95,13.32-15.22,21.84l5.09,1v.07A39.85,39.85,0,0,0,635.05,639.86Z"
            fill="#7a6b56" />
        <path d="M615.28,654.36c3-2,8.8-1.56,6.72-7.91C617.07,646.77,615.86,650.29,615.28,654.36Z"
            fill="#7a6b56" />
        <path d="M575.64,674.2c4.82-.08,7.52-3.64,10.61-6.56C582.23,669,576.62,667.82,575.64,674.2Z"
            fill="#7a6b56" />
        <path
            d="M995.49,845.39c1,2.22,1.93,4.44,2.89,6.67,2-.24,1.83-1.39,1.09-2.75.58-13.4,1-26.79-4.19-39.57-2.77,1.91,1.26,7.35-4.07,7.93q1.57,5.91,3.14,11.83c.55,2.14,1.08,4.36-.46,6.25C990.75,839.64,992.6,842.57,995.49,845.39Z"
            fill="#513c37" />
        <path
            d="M969.23,937.15l2.5-1.55q4.18-9,8.38-18c.64-2.44,1.28-4.87,2.34-8.87-6.9,7.49-10.42,15-13.7,22.8C967.83,933.67,968.89,935.29,969.23,937.15Z"
            fill="#3d302b" />
        <path
            d="M938.67,933.48l1.83-4.67q.27-3.63.52-7.26v.08c-3.33-.74-3.74,2.49-5.38,4-.12,1.58-1,3.16,0,4.74v.05c.11,1.07-.5,2.09-.34,3.15s-.51,3,1.18,3.14C938.34,936.85,938.41,934.91,938.67,933.48Z"
            fill="#373029" />
        <path
            d="M657.49,607.88c3.13-4.85,7.08-9.43,5.28-15.93C656.92,595.89,657.64,602,657.49,607.88Z"
            fill="#60564a" />
        <path
            d="M722.12,722c-1.8-2.18-5.36-3-5.25-6.66l-.7-.61c-1.3-.53-2.92-.61-3.62.47-4.06,6.3-11.3,6.14-17.12,8.85-3.65,1.7-6.69,1-9.5-1.61-5-4.65-11.68-5.08-17.78-7-3.3-.46-6.42-.86-9,2.3-3,3.72-6.62,3.94-10.28.73-4.16-3.66-7.74-3.1-11.24,1.13-1.68,2-3.56,3.87-4.85,6.22-1,1.74-2.12,4.15-3.95,4.2-7.29.18-7.89,8-12.86,10.86-1.73,1-.87,2.78,1.24,3,1.89.23,3.87,0,6.06,2.08-4.61-1.11-8.46-1.73-12-3.51-3.31-1.66-6.51-3.82-10.53-1.81a2.7,2.7,0,0,1-3.5-1c-1-1.51-.73-3.49.62-4.15,7.74-3.81,10.84-12,14.09-18.47,4.7-9.34,11.47-15.6,19.1-21.7.3-.24.19-.79,0-1.23-4.59-.59-8.41,1.53-11.09,4.69-5.14,6.08-11.83,9.5-18.81,12.58-2.13,1-4.29,2.25-4.86,4.18-2.64,9-9.72,14.62-15,21.66-3.06,4.07-2.33,9.61-2.72,14.54-.17,2,9.77,4.43,12.53,3.19,5.81-2.61,10.55-8.2,17.93-6.44,1.05.25,2.64-.31,3.21.27,5.93,6.07,14.94,4.56,21.48,9h.64l.64,0c8,1.54,15.57-1,23.21-2.72,7-.23,11-5.87,16.25-9.13,1.62-1,3.13-3.1,5.2-1.61,5.91,4.26,9.23-.63,10.73-4.31,3.11-7.67,8.32-12,15.86-14.1C710.84,721.77,716.54,722.17,722.12,722Z"
            fill="#695647" />
        <path
            d="M631.07,694.16c-5.89,3.71-13,7.15-15.71,13.23-2.79,6.29-7.77,10.91-10.14,16.82-1.66,4.12-3.49,6.57-7.1,8.54-2.84,1.57-4.94,4.29-3.17,7.62,1.68,3.17,4.64,4,7.75,1.55,1.49-1.16,2.7-1,4.1.12,4.43,3.61,10.42,3.19,15.22,5.9,1.45.82,3.21.95,4-.75.9-1.9-1.1-2.55-2.18-3.5-2.24-2-5-1.33-7.85-1.39,2.82-2,7.89-1.45,6.3-7.23-.39-1.41,1.8-2.5,3.42-2.32,5.33.58,7.49-3.36,9-7.06,1.48-3.51,4.72-5,6.89-7.68s4.73.38,6.56,2.1c4,3.79,8.23,4.43,11.43-.38,2.35-3.51,5.32-2.87,8.4-3.05,1-4.06,6.18-7.22,2.64-12.28-.23-.33,6.68,0,7-.24,4.05-3.71-2.63-6.16-7.65-6.81s-6-3.83-7.89-7.31c-1.75-3.32-.25-4.16,2.41-4,5.26.35,9.8-1.51,14.27-3.86.08-1-.2-2-1.07-2.2-5.47-1.25-11-3.51-16.38-3.52a22.32,22.32,0,0,0-16,6.83,17,17,0,0,1-5.08,4.16C636.58,688.8,634.31,692.16,631.07,694.16Z"
            fill="#766355" />
        <path
            d="M640.3,687.47c2.68.4,4.33-1.26,6.23-2.81,6.47-5.26,13.27-9.5,21.83-4.31,3.2,1.94,7.43-2.08,10.28,1.81,8.11,3.43,15.89,1,23.46-1.74C706,679,710,678,714,676.91c9.81-2.78,17.76-8.67,21.46-18.69,2.59-7,5.48-8.93,12.68-6.25,3.83,1.42,6.87,4.19,7.87-3.24.29-2.2,3.64-5.51,4.41-9,.39-1.39-2.11-3.74,1.35-4.1-1.15-2-2.93-3.48-4.58-1.14-6,8.55-16,10-24.37,14.42-3.69,2-6.66,3.67-8.42,8.59-2.77,7.77-10.65,11.87-17.36,16.13-9,5.77-19,5.73-29.45,3.6-6.46-1.31-12.93-3-20.12-2.14C648.74,676.17,644.06,680.62,640.3,687.47Z"
            fill="#5a433b" />
        <path
            d="M771,623.77c8.38-.4,10.09-7.5,13.15-13.25-4.41.61-6.06,4.78-9.09,7.17-1.62,1.28-2.68,3.83-5.42,2.11,0,.87,0,1.74,0,2.6C770.09,622.86,770.54,623.31,771,623.77Z"
            fill="#23201b" />
        <path
            d="M788.11,607.87c4.44,9.91,11.85,12.12,21.76,8.45,16.9-6.26,28.36-17.91,36.3-33.67-2.66-.9-4.94.54-6.53,2.08-2.71,2.63-5.28,4.83-9.25,5.43a4.05,4.05,0,0,0-3.23,5c1,3.62-.8,5.87-3,8.12-1.54,1.55-3,3.74-5.41,3.09-2.83-.77-.93-3.33-1.13-5.09a9,9,0,0,0-4.53-6.84C804.44,598.35,795.86,602.32,788.11,607.87Z"
            fill="#443f37" />
        <path
            d="M813.07,594.47c1.1,3.68,4.74,6.72,2,11.36-1.1,1.9,1,3.09,2.94,3.14,5.16.15,11.46-8.31,10.52-13.64-.59-3.4,1.84-5.07,4.65-4.32,3.2.85,4.27-.12,5.22-2.93,1.19-3.54,5.55-3,7.72-5.43h0c-.93-5.16-2.25-5.73-9.24-4C829.53,584.76,821.21,589.48,813.07,594.47Z"
            fill="#5e574b" />
        <path
            d="M836.94,578.67c3.58.16,7.47-.43,9.24,4,5.45-4.39,8.57-10.73,13-15.95,2.25-2.64,1.23-4.88-2.47-5.28Z"
            fill="#443f37" />
        <path
            d="M658.78,753.9l-23.75,4c1.9,3.17,4,5.38,7.83,2.36.92-.73,2.75-1.31,3.65-.88,7.82,3.7,16.43-1.65,24.2,2.28,1.07.54,2.6.17,3.91.23,3-1.75,7-2,7.2-7.09.13-2.48,3.4-2.44,5.54-2.16,12,1.56,23.31-3.29,35-3.59,6.81-.18,14.63-2.2,20.24,4.7,2.21,2.71,5.79,1.53,8.74,1.44,8.52-.26,16.24-2.71,22.23-9.25-7,3.71-15.17,2.1-22.46,5.05-2.65,1.07-7,1.75-9.2-2.38-4.89-6.83-8.65-8.15-16.82-6.16-6.12,1.49-12.2,3.71-18.64,1.22a6.68,6.68,0,0,0-4.56-.09c-6.65,2.54-13.51,3.19-20.57,3a8.22,8.22,0,0,0-6.84,3.52C670.25,755.91,664.92,756.35,658.78,753.9Z"
            fill="#3f362c" />
        <path
            d="M672,605.18c-1.48,2.16-2.92,4.35-4.45,6.47-1,1.37-2.93,2.62-1.47,4.47,1.22,1.56,2.89,0,4.18-.46,3.06-1,6-2.57,9-3.8,3.87-1.56,6.85-4.66,5.3-8.45-1.85-4.52-5.61-.82-8.42,0-1.37.41-2.43,1.84-4.1,1.77Z"
            fill="#8e6846" />
        <path d="M635.05,639.86c-3,2.19-6.4,4.07-8,7.76C631.33,646.74,633.75,643.88,635.05,639.86Z"
            fill="#3f3b33" />
        <path
            d="M871.26,877.36l1.29,1.32c5.84,3.6,7.54,3.75,8.74-4.83,1.44-10.27.53-18.87-4.7-27.4-.59-1-.83-2.15-2.28-1.52a2.25,2.25,0,0,0-1.29,2.72c.46,2.35.86,4.73,1.48,7,.39,1.46.3,2.65-1.07,3.38s-2.37-.3-3.22-1.37c-1.48-1.87-3.58-6.16-5.39-3.19-2.13,3.5-7.38,7.25-4,12.55,1.93,3,3.83,6.55,8,7.26C871.2,873.72,871.21,875.57,871.26,877.36Z"
            fill="#554239" />
        <path
            d="M860.7,793.7a2.57,2.57,0,0,0,2.44-1.76c2.68-7.91,3.55-8.29,10.76-4.88,2.43-3.92,0-7.14-1.67-10.34-1.09-2.12-2.56-4-3.4-6.31-1.75-4.89-4.39-5.56-8.14-2-2.71,2.54-5.12,5.42-5.32,9.47l4,11.87C860.93,790.67,860.63,792.24,860.7,793.7Z"
            fill="#684a3f" />
        <path
            d="M835.58,828.93c1.38-6.3,1.54-12.44-.92-18.37-.58-1.38-1.17-3.1-3-3-2.28.14-2.07,2.21-2.69,3.83C826,819.19,833.85,822.82,835.58,828.93Z"
            fill="#513c37" />
        <path
            d="M821.05,811c-.18,2.06,1.84,2.6,2.68,4,2.49-.22,3.95-2.1,2.83-3.93-1.69-2.74-1.28-6.82-4.62-8.31-1.46-.65-2.16,1.3-2.06,2.56A47.72,47.72,0,0,0,821.05,811Z"
            fill="#513c37" />
        <path
            d="M827.68,792.41a5.74,5.74,0,0,0-1.17.56c-1.44,1.13-4.22.23-4.54,2.89-.05.42,1.21,1.48,1.78,1.42,2.77-.32,4.24-1.93,3.92-4.88Z"
            fill="#513c37" />
        <path
            d="M924.05,914.71c3,2.68.24,6.83,2.44,9.72,0-3.51.15-7,.12-10.54,0-.86.5-2.58-1.39-2C924,912.24,924.11,913.61,924.05,914.71Z"
            fill="#3d302b" />
        <path
            d="M855.37,777.83c2.25-2.93,4.39-6,6.8-8.75,1.28-1.47,4.36-3,4.56-.41.52,7,7.88,11.11,7.17,18.39,1.8,3.37,4.46,6.42,4,10.66,4.94,1.92,7.55,9.44,5.42,16.09,1.84.46,3.91-2.46,5.8,1.16,1.36,2.6,5.28,2.56,5.83-1.83,1.37-11.1,1.1-22.07-4.16-32.33-1.17-2.28-3.48-4.43.2-6.55a2.41,2.41,0,0,0,.92-1.64c.39-3.88-10.12-13-13.93-12.33-2.89.5-5,1-2.26,4.32.89,1.11,1.09,2.7-.37,3.42s-1.87-.9-2.79-1.74c-5-4.55-6.43-12.1-13.2-15.24-3.3-1.52-4.06-4.79-1-7.41,5.09-4.38,4.38-14.22-1.72-16.62-5.7-2.24-11.27-4.76-17.86-4.36-3.21.2-3,1.35-3.14,3.36,3.07,9.13,8.12,17.87,10.32,26.81,2.13,8.65,7.32,16.07,8.19,24.92C854.53,777.79,855,777.81,855.37,777.83Z"
            fill="#84594b" />
        <path
            d="M658.78,753.9a9.38,9.38,0,0,0,14.92-.54c3.14-4.62,7.31-6.91,12.92-5.35a12.18,12.18,0,0,0,9.55-.93,16.39,16.39,0,0,1,15-.63c5.39,2.36,10.07-1.2,14.41-2.5,5.9-1.75,9.42-.08,13.45,3a23.59,23.59,0,0,0,2.87,1.62,41.39,41.39,0,0,1,.4-5.81c2.12-10.22,2.17-10.21-7-14.08-9-1.87-17.92-4.07-27.2-2.11-.55.11-1.23-.38-1.85-.58-8.53.06-12.78,2.77-15.58,10.72-1.11,3.16-3.53,4.92-5.52,7.18-1.19,1.34-2.6,2-3.61-.06-2.33-4.73-4.19-2-6.91-.15C669.41,747.16,665.41,752.64,658.78,753.9Z"
            fill="#4e4035" />
        <path
            d="M797.33,707.44c-4.12,1.71-7.72,3.8-6.59,9.28C792.65,713.43,796.69,711.65,797.33,707.44Z"
            fill="#5a433b" />
        <path
            d="M760.38,712.75,734,723.36c8.06,1.08,15.32-3.55,23.47-3.07C761.88,720.55,761.38,716.1,760.38,712.75Z"
            fill="#695647" />
        <path
            d="M777.53,642.39c-.53-1.11-1.55-1.22-2.6-1.25a33.5,33.5,0,0,1-6.11,2.18c-4.16,1.1-9.39.27-5.88,7.9,1.54,3.34-7.12,8.23-12.13,7.1-6.26-1.4-6.34-1.4-6,4.89a11,11,0,0,1-.66,4.46c3,5.74,6.73,11.18,6.17,18.21-.13,1.7,1.39,2.6,3.24,2.26,1.82-.71,2.4-4.18,5.66-1.93,1.66,1.13,3.64-.78,4.95-2.35,3.15-3.74,6.79-4.41,11.25-2.35,2.69,1.24,6.19,3,5.78-2.81,2.64.3,3.11-3.26,5.61-3.2.71-.62,2.88,3.74,2.52-.87-.54-6.69-4.48-12.39-5.18-19C782.87,650.75,779.91,646.72,777.53,642.39Z"
            fill="#b39271" />
        <path
            d="M786.8,675.5c-.68-1.12-2.72-2.36-2.72-2.13-.12,6.63-5.21.36-6.84,2.76-.1,2.43,3.37,1.86,3.48,4.2a1.48,1.48,0,0,1-2.5.81c-3.52-4.17-7.75-1.89-11.75-1.57-1.79.15-2.69-.49-3.53,2.87-1.42,5.67-5.38,1.63-8.32-1.25-.54,2.42.84,4.66-.82,6.32-5.09,3.36-8.49,8.24-11.6,13.33C740,704.47,737.82,705,733,705c-8.55.07-12.14-6.23-18-9.43-2.8-1.53-3.86-4.76-6.22-6.74-6,.82-9.1,5.57-12.66,9.55-2.41,2.69-.57,4.66,1.93,6.33,7,4.66,15.5,5.4,22.7,9.42,3.88,3,8.65,3.38,13.19,4.38,3.53.77,4-3.84,7.84-4,6.54-.22-1-4.26,1-6.2,11.76,1.72,13.65.14,15.64-13.6l5,4,.7-.57c-1.38-2.34-2.76-4.68-4.31-7.28,4.49-.13,7.8,2.29,11.44,4.78.7-2.63-.9-6.46,3.61-5.44,7.78.29,10.45-4.29,10.61-11.26C785.49,677.64,785.54,676.34,786.8,675.5Z"
            fill="#a07f64" />
        <path
            d="M777.53,642.39c.42,5.32,3.33,9.37,6.61,13.24,4.11-3.41-.13-5.4-1.33-7.91C781.41,645.58,781.76,641.69,777.53,642.39Z"
            fill="#917258" />
        <path
            d="M720.78,714.12c-3.94-4.45-9.12-6.42-14.79-7.15-3.55-.45-5.33-3.87-8.82-4.7-2-.49-.23-2.39.68-3.58,3.06-4,7.42-6.53,11.1-9.81l.88-.25c5.28-6.94,14.1-8.38,20.65-13.37,3.4-2.61,6.86-4.93,9-9.08,2.3-4.4,3.18,1.41,5.06,1.38s2.91-1.13,2.28-3c-.7-2.11-1.39-4.14-.38-7,4.09,5.12,9.23,1.93,13.85,1.72,1.31-.06,2.07-4.37,4.11-6.15,3.9-3.42-2.83-4.31-.94-7.3,4.49,1.67,7.83-1.87,11.45-4.71-4.94.55-9.37-4.42-14.54-1.39-.82,1.54-4.69-.76-3.64,2.09,1.38,3.74.71,3.2-2.72,3.87-3.69.71.83,4.25-.23,7.11-4.44-2.39-8.68-4.27-14.46-3.3-4,.67-4.16,2.25-4.41,4.51-1.27,11.38-10.27,18.33-18.5,20.52-12.25,3.24-24.3,10-37.79,7.61-5.56-.66-10.44,4-16.4,2.05-.86-.28-5.67.88-2.3,6.6,3.25,5.53,6.4,7.65,11.8,8.62,1.14.2,2.86,1.22,1.71,2.76-1.92,2.58-3.86-1-6.59-.11,8,4.45-.76,9.71,1.19,14.6,5.32,3.24,12.28,2.23,17.13,6.69.68.62,1.87,1.22,2.35.75,5.09-5,11.53-3.8,17.63-4.08,1.79-.08,2.91-.58,3.36-2.37,1.43-5.69,4.72-4.63,8.34-2.3h0Z"
            fill="#917258" />
        <path
            d="M825.26,661.14c-.07,1.46.55,2.26,1.82,2.23,1.59,0,2.14-1.33,2.38-2.6a1.63,1.63,0,0,0-1.83-2C826.12,658.79,825.49,659.93,825.26,661.14Z"
            fill="#765449" />
        <path
            d="M987.23,890.65c.45-.47.91-.94,1.36-1.42,1-.71.65-2,1.27-2.87,2.6-14.5-.49-28.87-1-43.3-3,.74-.8,4-2.51,5.36.39,3-1.42,4.83-3.32,6.64,1.68,8.44,4,16.77,4.51,25.42.13,2.4.69,4.94-2.63,5.7C983,889.06,983.26,890.83,987.23,890.65Z"
            fill="#513c37" />
        <path
            d="M647.81,746.7c8.46-2.1,17.59-2,25.25-6.56,2.92-1.73,4.22-6.12,3.2-9.23-.92-2.84-4.23-3.6-7.74-2.35-5.36,1.9-10.91,3.18-16.65.87-1.58-.63-8.83,7.66-8.87,9.83C643,741.71,646.28,747,647.81,746.7Z"
            fill="#866d59" />
        <path
            d="M716.86,715.37c-1.06-2.22-2.27-5-5.16-3.61-1.79.88-6.45.39-4.33,5.1.37.82-.55,2.29-1.07,1.92-5.57-4.07-12.18,5.23-17-1.79-2.85,1.64,1.89,7.35-4.16,6.38,5.08,4.9,8.85,5.09,17.26.24,1.92-1.11,3.31-2.46,5.8-1.75,2.07.59,3.15-.72,3.38-2.88C712,715.82,714.26,715.33,716.86,715.37Z"
            fill="#765449" />
        <path
            d="M744.56,667.56a26.49,26.49,0,0,0-2-4.81c-1.18-1.84-3.5-2.25-3.83.15-.79,5.67-5.53,7.81-8.75,11.33-1.79,1.13-2.58,3.29-4.88,4.06-5.71,1.92-7.49,6.65-7.81,12.28-2.69-.71-4.9-4.52-8.38-1.69h0c-.5,4,2.23,6.45,4.92,7.91,3.79,2.05,5.88,6.3,8.77,7.92,4.68,2.64,11.12,2.61,16.81,2.62,1.56,0,3.6-3.67,4.56-6,1.09-2.66,1.11-5.8,5.3-5,.38.08.92-.64,1.38-1-3.16-4.3,3.12-4.82,3.11-7.85-1.81-.16-2.76-1-2.37-3C752.82,677.38,749.29,672.22,744.56,667.56Z"
            fill="#b89d81" />
        <path
            d="M709,688.88c4.14-.58,6.3,3.47,10.16,4.39-.51-6.41.56-12,7.31-14.6,2-.78,2.77-2.65,3.6-4.44-4.2,1.59-7.72,4.33-12.51,5.24C713.76,680.18,711.46,685.32,709,688.88Z"
            fill="#a07f64" />
        <path
            d="M987.23,890.65c-2.93-.36-2.54-2.45-2.3-4.47.08-2-.79-3.64-2.22-5.95-1.43,8.15-3.38,15.4,2.5,21.7.08.08.41,0,.56-.07a2.17,2.17,0,0,0,.4-.53C985.76,897.7,988.26,894.35,987.23,890.65Z"
            fill="#513c37" />
        <path
            d="M686.58,629.09c-8-2.88-13.84.44-19.06,6.22-4.32,4.78-4.42,4.68-10.68,1.46-2,1.69-.42,5.51-4.43,6.39-1.78.39,1.62,10,4.45,10.54,1.65.31,3.49.63,3.79,1.91,1.84,7.75,8.78,10.35,14.05,14.65a4.75,4.75,0,0,0,6.17,2,4.9,4.9,0,0,0,3-5.85c-1-4.11,1.74-8.06.1-12.08-2.64-2.48-6.85-1-9.39-3.72-3.09-5.56.83-15.69,7.07-18.16,1.76-.69,4-.39,5.08-2.42Z"
            fill="#1c1815" />
        <path
            d="M683.89,654.37c-1.08,4.07-2.15,7.88-1.56,12.45.85,6.66-4.23,4-7.63,3.44h-1.32c-.45.29-.6.59-.45.88s.3.44.45.44l0,0a5.29,5.29,0,0,0,4.08,3.71c3.49.26,6.94-.42,10.49,0,4.58.51,6.83-3.08,5-7.33a23.75,23.75,0,0,0-3-5.16c-3-3.79-.48-4.89,2.55-5.89,2.22-1.23,5.12-1.84,4.86-5.34-1.83-1.44-3.8-.46-5.72-.38-2.58.33-5.39-.1-7.37,2.22C684.12,653.75,684,654.06,683.89,654.37Z"
            fill="#221f18" />
        <path
            d="M677.31,674.25l0,1.35c0,2.65,3.05,1.24,5.42,2a23.22,23.22,0,0,0,9.48.22c7-1,7.92-2.52,5.7-9.07-.77-2.29-1.46-4.6-2.31-6.85-1.82-1.72-5-2.62-3.71-6.23-7.42,2.5-7.63,2.65-1.86,11,1.48,2.16,3.11,3.65,1.51,6.13s-3.83.55-5.85.5C682.89,673.25,680.1,673.91,677.31,674.25Z"
            fill="#29231d" />
        <path
            d="M674.72,649c2.6,1.42,4.22,4.77,7.91,4,3-3.29,6.06-2.68,9.13-.09l5.38-1.23a4.29,4.29,0,0,0,1.24-1.37c1-2.58,2.69-5,2.4-7.94a4.13,4.13,0,0,0-.81-1.62c-3.25-1.37-6.32,1.64-9.56.39-.49,4.93-6.44,8.1-12.53,5.85C674.91,645.86,674.52,646.24,674.72,649Z"
            fill="#513a22" />
        <path
            d="M697.14,650.34c0,.43,0,.87,0,1.31-.95,2.41-3.35,2.89-5.28,4-.33,2.07-4,2.3-3.16,4.39,1.06,2.67,3.75,1.06,5.79.92,1.76-1.63,3.86.35,5.7-.53a3.63,3.63,0,0,0,1.9-1.84c1.75-4.38,2.58-9.09,4.82-13.31a5.09,5.09,0,0,0-1.22-3.63c-1.54-1.33-3.31-2.26-5-.13C700.89,645,699.29,647.8,697.14,650.34Z"
            fill="#362f2a" />
        <path
            d="M691.76,652.88c-.41-4.66-3.9-3.86-6.83-3.76-2.51.08-3.6,1.32-2.3,3.85l1.4,1.18C686.46,652.79,689.16,653.15,691.76,652.88Z"
            fill="#78512a" />
        <path
            d="M693.25,632.93c-4.78-1.6-10.8-2.89-13.41,1.38-1.48,2.41,5.93,2.39,8,5.42a1.22,1.22,0,0,0,1.64.16,8.05,8.05,0,0,0,1.42-3.37C691.18,635,692.69,634.27,693.25,632.93Z"
            fill="#ad8553" />
        <path
            d="M704.94,642.11c2.06-2.7-1.85-4-1.49-6.24l-2.51-1.07c-1.77,1.39-3.7.88-5.62.45a2.52,2.52,0,0,0-1.7,2,4.34,4.34,0,0,0,.23,1.86c1.36,2.6,4.28.32,6,1.94a1,1,0,0,1,.13.76l.38,1.24c.16-.4.32-.81.47-1.21C702.28,640.42,703.58,641.75,704.94,642.11Z"
            fill="#866949" />
        <path
            d="M699.81,641c-1.24-2-4.3-.44-5.37-2.78-1.91-.77-3.46,0-4.9,1.19l-1.67.31,2.54,1.38C693.22,643.14,694.45,643.13,699.81,641Z"
            fill="#5f4426" />
        <path
            d="M694.37,637.23c.42-.46.84-.91,1.27-1.36,1.49.53,3,1.08,2.83-1.52l-5.21-1.42c-1.85.19-4,0-4,2.78C690.67,637.19,692.12,638.56,694.37,637.23Z"
            fill="#ad9776" />
        <path d="M698.47,634.35c-.58,1.19-1.7,1.37-2.83,1.52,2.12,1.4,4.19,2.57,5.3-1.07Z"
            fill="#9e8f77" />
        <path
            d="M700.79,641.8a1,1,0,0,1-.85,0c-.93,2.86-1.87,5.71-2.8,8.57C700.55,648.44,702.79,646,700.79,641.8Z"
            fill="#3e3529" />
        <path
            d="M694.37,637.23c-1.74-.4-3.11-2-5.11-1.52.09,1.24.18,2.47.28,3.71a5,5,0,0,0,4.9-1.19C694.43,637.9,694.41,637.56,694.37,637.23Z"
            fill="#fbf7e8" />
    </g>
    <g id="frame">
        <rect width="1000" height="1000" fill="none" />
    </g>
</svg>