<!-- Copyright (c) 2023 Jan Stehno -->
<svg xmlns="http://www.w3.org/2000/svg" viewBox="0 0 1000 1000">
    <title>cinnamonteal</title>
    <g id="cinnamonteal">
        <path
            d="M608.08,555.27c2.51.13,5.39,2.09,7-1.9.23-.57,2.9-.48,4.31-.15,12.51,2.95,25.69,1.23,38,5.17,6.65,2.13,13.79,1.53,20.17,4.53,2.73,1,5.36,2.23,8,3.43v.12c.24,3.32,2.4,5.1,5.27,4.33,4.33-1.16,6.75.89,9.08,3.84-3.68,5.25-2.86,9.1,2.44,13.21,3.1,2.4,5.26,6.27,8.83,8.47a3.78,3.78,0,0,1,2,3.23c-.64,4.78-5.28,4.71-8.11,6.84a15.51,15.51,0,0,0-3.64,3.59c-3.42,4.84-2.85,7.63,2.65,9.49,4.17,1.41,4.52,3.49,2.37,6.71-2,3-1,7.34-4.35,9.75-2.41,1.36-5.41.13-7.75,1.79-6,5.82-12.16,11.5-14,20.21-.79,4.58,2.12,5.45,5.65,5.82,6.84.72,6.83.75,6.94,7.79.09,6.5,2.93,9.29,9.33,9.38,2.42,0,4.87-.79,7.27.16a6.45,6.45,0,0,1,1.29,4.06c-.06,4.87,2.15,7.43,7.18,7.13,5-1.22,8.08.34,8.39,5.88a4.9,4.9,0,0,1-.45,3.46c-3.77,1.23-7.48,2.61-11.21,4-4.65,1.7-5.77.68-5.45-4.23a18,18,0,0,0,0-3.44c-.56-4.49-1.93-5-6.07-3.2-8,3.54-14.07,9.68-20.73,15-4.62,3.7-8.87,7.83-13.22,11.85-5.57,5.17-5.59,16.23,0,22.23,5.08,5.45,14,5,19.82-1.29a45.54,45.54,0,0,0,9.21-14.42c1.47-3.69,3.43-8.56,8.27-6.86s2.2,6.47,1.59,10.06a20.24,20.24,0,0,1-1,3.89c-2.86,5-6.17,9.67-8.7,14.82-1.26,2.55-3,5.32-.6,8s5.6,1.28,8.56.77c1.78-.31,3.22-3.29,5.39-.75.51,4.41-.79,7.18-5.85,6.66a8.13,8.13,0,0,0-3.35.49c-5.43,1.77-10.13,1.07-13.25-4.37-.34-4.39-2.14-5.14-5.72-2.57-2.6,1.87-4.89,4.08-8,5.32-8.31,3.3-15.54-.06-18-8.81-2.11-7.4-2.2-7.46-9.25-4.85s-14.37,4.83-22.09,5.06a10.46,10.46,0,0,1-5.48-1.1c-5.64-3-6.21-4.55-3.33-10.21,2.52-4.93,5.21-9.77,7.82-14.65,2-11.18,9.59-19,16.29-27.34,2.74-3.4,5.91-6.47,8.45-10.06,1.5-2.11,3-4.21.57-6.6-2.16-2.16-4.37-4.72-7.86-3-8.2,4-15.9,9-23.82,13.53-2.54,1.46-2.13,3.87-1.56,6.12a169,169,0,0,0,7.7,24.07c-11.2,1.72-22,5.65-33.54,5.45-1.52,0-3.2.31-4.53-.23-6.27-2.54-10.51-5.8-5.36-12.54a76.38,76.38,0,0,0,10.3-16.82c-10-1.62-20-.85-29.58-3.11-2.59-.61-5.54-.61-7.22-3-2.63-3.65-4.31-7.44.61-10.87,1.13-.79,2.92-1.74,2.45-3.5s-2.57-1.17-3.93-1.6c-8.28-2.6-17-4.13-22.79-11.82-2.19-2.91-2.44-4.82.61-7.11,1.44-1.09,4.82-2.43,1-4.86-7.53-3.55-10.61-13.61-7.18-22.72.93-2.5,4.07-5.37-.23-7.83a3.72,3.72,0,0,1-3.19-1c-3.63-3.87-6.74-8.27-11.34-11.16-1.33-.83-2.55-2.28-2.24-3.79,1.43-6.95-3.21-12-5.42-17.71-4.34-11.26-3.18-14.41,8.16-18.89,1-.4,2.23-.57,2.74-1.93-1.25-1.95-3.62-1.76-5.4-2.7-1.94-1-3.72-2.16-3.58-4.66s1.88-3.64,3.89-4.51a12.69,12.69,0,0,1,5-.9,19.65,19.65,0,0,0,9.38-2,6.32,6.32,0,0,1,3.28-.91c11.76.79,23.48.29,35.24-.42,7.37-.45,14.79-.82,22.2-.72C592.24,554,600.17,554.48,608.08,555.27Z"
            fill="#302a23" />
        <path
            d="M843,843.58c-4.51,4.34-9,8.69-14.57,11.74-2.82,1.54-6,3.31-8.43,1.49-2.29-1.71-1.14-5.34-.44-8.08,2.73-10.63,5.56-21.22,8.69-33.08-3.72,3.85-6.75,6.65-9.36,9.78a19.09,19.09,0,0,1-9.53,5.91c-5.15,1.59-8.16-1.07-7-6.46.66-3.17,1.95-6.19,2.77-9.32.66-2.49,0-3.68-2.84-2.54-5.32,2.1-10,1.67-13.41-3.7-1.11-1.76-3-2-5-2-6.82,0-10.72-2.51-12.58-9.07-1-3.62-2.68-4.44-6-4a32,32,0,0,1-6.27.07c-3.16-.19-6.08-1.91-6.3-4.86-.42-5.65-2.87-5.13-7-4-8.89,2.5-11.83.85-15.53-7.89-.94-2.19-2.36-2.8-4.5-2.35-3,.63-6,1.07-8.86,1.94s-4.8.2-5.71-2.8c-1.21-3.75.92-6.29,3.52-8.13,5.34-3.76,9-8.44,9.66-15.11,3.52-2,7.1-2.74,10.73-.3,2.86,1.91,4.48-.2,6.41-1.79,4.22-3.5,5.73-3.07,7.89,2,2,4.62,3.22,4.84,6.72,1.14.52-.56.92-1.23,1.46-1.77.93-1,2-2.22,3.38-1.63s1,2.26.81,3.57c-.18,1.49-1.12,2.88-.48,5,4.41-2.46,7.46-.93,9.65,3.38,1.41,2.76,4,2.64,6.51,1.67,3.46-1.37,6-.51,7.52,2.88a4.81,4.81,0,0,0,5.49,3.07c2.89-.35,4.43,1.27,4.22,4.05-.42,5.82,4.1,8.69,7.45,11.75,3.74,3.41,6.08,2.17,9.25-1.89,4.14-5.32,7.18-11.26,10.66-17,2.42-4,3.84-7.81,1.67-12.43a8.47,8.47,0,0,1,.93-8.75,7.07,7.07,0,0,0,1.38-4.86c0-3.61-.2-7.22.89-10.74,2-6.35,4.43-7.67,10.93-5.75a2.31,2.31,0,0,1,.89,1.34c1.72-5.08,4-2.24,6.83-.87,9,4.36,13,14.37,21.65,19,4.07,3,4.07,3,2.54,12.93,3-4.49,6.46-7.29,8.91-11s4.72-3.81,7.52-.3a9.92,9.92,0,0,1,1.91,8.65c-.45,2.21-1.53,4.37-.74,7.38,3-2,3.8-4.8,4-7.79a30,30,0,0,1,1.71-9.7c-4.7,1.38-7.11-.8-8.1-4.81s.18-7.17,4.26-8.85c2-.83,3.21-2.6,4.5-4.29,1-1.26,1.84-3.18,4.06-1.8-.22,6.68,4.59,11.45,6.52,17.33.92,2.8,1.41,5.12-1.65,6.9s-3,5.1-2.32,7.71c2.66,10.56-3.49,19.12-6,28.48-.68,2.57-2.24,5-1.65,7.73,2.47,11.4-3.35,20.72-7.31,30.53-5,7.28-9.68,14.87-16,21.73-2.35-2.87.53-5.92-1.55-9-5.3,11.77-12.58,21.73-18.77,32.36-.87,1.49-1,4.16-3.83,3s-1.94-3.26-1.07-5.26c3.57-8.2,4.08-17.25,7.07-25.61.42-1.17.66-4.14-2.3-1.7A25.64,25.64,0,0,1,843,843.58Z"
            fill="#25211b" />
        <path
            d="M701.91,635c2.05-4,1.38-9.19,5.29-12.16-.42-.7-.53-1.16-.77-1.23-3.29-1-8.15-.33-8.72-4.9-.61-4.88,2.55-8.57,6.54-11.29,5.83-1.09,6.8-.4,9.4,6.88,2.3-1.22,3.86-3.52,6.34-4.3a5.64,5.64,0,0,1,1.57-.28c4.37,1.05,5,4.65,5.48,8.29.24,1.8-.73,4.28,1.56,5s3.5-1.7,4.79-3.27c1-1.16,1.45-2.67,2.65-3.67,4.22-1.11,7.91-2.61,8.53-7.88.24-2,2.29-2.83,4.17-3.24-2.2.58-5.85-1.94-5.83,3.46,0,1.68-8.3,3.32-9.87,2.14a2,2,0,0,1-.25-3.06c3.68-4.45.36-8.51-1.75-11.36-2.38-3.22-4.1-7.37-8.12-9.37-1.2-.6-2.53-1.88-1.57-3.74a.58.58,0,0,1,.44-.18,2.25,2.25,0,0,1,.54.17l8,3.46c2.57,3,5.45,5.75,7.49,9.28,2.53,4.39,5.71,4.43,9,.41a2.36,2.36,0,0,1,2.94-.94c1.5,2.22,2.89,4.27,6.24,3.83,5.81-.76,10,3.57,13.11,6.92,4.36,4.67,9.05,3.1,13.65,3.27,3.06.12,6-.4,8.69,1.6a24.8,24.8,0,0,1,4.28,5.34c3.37,5.16,2.93,7.58-2,10.72-4.12,2.61-7.94,1.66-10.69-2.65a20.66,20.66,0,0,1-1-2.05c-.51-1-.92-2.3-2.25-2.32s-1.86,1.23-2.1,2.34c-.43,2-2.08,3.68-1.69,6,2.47.9,4.88-.48,7.32,0,4.25.88,5.78,3.47,3.22,6.86-2,2.6-1.4,4.61-.83,7.36,1.44,6.91-.19,13.73-3.2,19.84-2.23,4.52-8.1,4.26-10.59-.22-1.81-3.26-4.59-4.87-7.42-6.79-2-1.34-3.52-2.1-5.5-.22s-4,.27-6,0c.09,4.44.4,4.78,4.05,4.06,1.3-.26,2.54-.85,3.86-1,4-.44,5.7,1.65,3.77,5-2.75,4.79-6,9.3-9,13.93-1.77,2.7-4.37,2.72-7,1.18a4.54,4.54,0,0,1-1.12-1.11c-.79-2-1.85-3.57-4.44-3.59a6.7,6.7,0,0,1-6.1-3.49c-.37-3.93-1-7.29-6.48-5.65-1.83.55-3.36-1.23-4.26-3-.89-2.17-1.6-4.37-1.06-6.76.87-2.66,3.18-4.18,4.9-6.17,1.85-2.15,3.81-4.24,3.41-7.43-7.54-.91-7.86-1.08-9.76-8.52-.48-1.87-1.18-2.66-3-2.43s-4-.52-4.54,2.22a10.06,10.06,0,0,0-.26,2.83c.46,5.37-2,8.23-7.27,8.81C703.91,642,702.38,639,701.91,635Z"
            fill="#3b788b" />
        <path
            d="M954.29,995.94c-4.27,5.17-8.37,5.31-12.62.4s-5.46-10.72-6.6-16.76c-.27-1.42.25-3.9-2-4.18-2-.25-3.6,1.15-4.74,2.74-1.55,2.16-3,4.4-4.37,6.7-2,3.49-4.17,3.28-6.72.54-5.31-5.71-6.74-12.58-6.14-20.1.29-3.63,0-6-4.84-4.11-3.54,1.35-5.28-2-6.66-4.72-1.69-3.39-2-7.38-4.26-10.54-3.42-1.21-3.69-3.76-3-6.84.94-4,1.94-8.08,1.88-12.84-2.12,1.09-2.1,2.88-2.5,4.35-.78,2.94-1.26,6-2.75,8.67-2.59,4.7-4.88,4.92-8.21.66a8.05,8.05,0,0,0-5.17-3.14l-.51.05-.39-.33c-2.55-1.55-5.36-1.6-8.23-1.59-1.58,0-3.65,1-4.64-1-.87-1.73.37-3.28,1.26-4.74a20.39,20.39,0,0,1,2.4-3.16c4.31-3.69,6.69-8.73,9.22-13.62A18.12,18.12,0,0,1,885.34,903c5.13-1.87,8-7.23,10.45-12.19,1.1-2.22,1.82-4.63,3.2-6.7,1.07-1.62,2.26-3.32,4.52-1.49,5.74,9.33,5.88,20.49,9.89,30.38,4.47,8.47,8.58,16.94,7.71,27.09-.37,4.28,2.39,7.7,6.54,9.16,3.43,1.2,4.49,3.46,4.84,6.86.71,7,2.2,7.89,9.13,6.32,1.64-.37,3.32-.54,4,1.15,1.92,5.19,5.86,8.8,9.29,12.83a4.2,4.2,0,0,1,.59,2.2C956.12,984.43,954.91,990.17,954.29,995.94Z"
            fill="#2a1f19" />
        <path
            d="M608.08,555.27c-6.35,1-12.73.25-19.1.35-18,.29-36.1,1.73-54.09,1.14-8.45-.29-15.84,4.15-24.16,3.1a4.1,4.1,0,0,0-4.51,3.6c-.21,2.58,2,2.83,3.85,3.38a10.62,10.62,0,0,1,2.68.93c1.68,1.11,5,0,5.19,2.39.18,2.64-2.93,3-5,3.8-.18.06-.35.15-.53.22-11.33,4-12.05,6-7.17,17.1,1.49,3.41,1.66,7.39,4.94,9.93a2.32,2.32,0,0,1,.62,2.09c-2.78,6.67,1.79,9.43,6.24,12.45a13.16,13.16,0,0,1,5.34,8.5,98.56,98.56,0,0,1-25.23-9c-4.77-3.65-5.09-6.81-1.28-12.43,3.12-1.68,7-1.09,10.61-3.9a121.8,121.8,0,0,1-20.67-18,24.79,24.79,0,0,1-5.44-9.23c-1.51-4.56-.45-6.55,4.46-6.11a8.66,8.66,0,0,0,4-.76c-5.31-4.47-9.72-9.7-14.21-14.85-2.28-2.63-4.31-5.2-4.55-9s.94-5.77,5.08-5.39c9.26.84,18.57,1.27,27.8,2.36,18.45,2.17,36.85,4.8,55.31,7C575.14,547,591.85,549.91,608.08,555.27Z"
            fill="#453b2d" />
        <path
            d="M902.89,882.36c-2.46.15-3,2.27-3.53,4-1.89,5.93-5.57,10.69-9.38,15.39-.72.89-1.52,2.39-2.32,2.41-10.55.32-11.33,10.17-15.76,16.34-1.56,2.18-2.85,4.46-5.2,5.88-1.69-1.82-.58-3.43.26-5.17,3-6.09,7.75-11.27,8.76-18.34.38-2.66,2.57-3,4.83-2.57,2.63.55,4.41,0,5-3,1.3-6.94,4.14-13.42,6-20.19.71-2.46,3-4.74,4.67-6.67,4.79-3,6.5-6.59,4.75-11.61-.48-1.39-2.09-4.74-2.89-1.75-3.19-.08-5.34-1.51-5.71-4-.66-4.55-2.38-8.77-3.5-13.17-1-5.21.43-10.55-.93-15.79-.44-1.69-.62-2.9-2.64-2.68-.12-6.72,4.24-12.08,5.51-18.38.22-1.12,1.22-2.38.93-3.25-3-8.85,2.16-16.74,2.77-25.14,0-.37,0-.9.17-1.08,7.43-6.43,3.27-14.86,3.86-22.46.12-1.5-.53-3.76.83-4.29,9-3.49,2.73-9.51.68-12-3.45-4.14-3.48-7.91-2.86-12.39-.27-.27-.69-.57-.69-.88.1-10.75-2.69-21.37-1.33-32.17,4.86-3.42,8.72.15,12.85,1.86.61.42,1.35.86,1.59,1.54.85,2.4,5.62,4.82.06,7.5-.26.12-2.77,3.06-1.25,5.31-2.24,8.44-2.25,8.46,6.17,12.31,2,.92,3.77,2.18,4.07,4.44.87,6.5,3.28,13.17-1.37,19.3a5.23,5.23,0,0,0-.56,1.63c-1.12,2.42.29,4.44,1,6.58,1.62,4.71,3.33,9.41,2.8,14.54-.21,2-.91,3.9-3.1,4.33-2,.4-3-1.15-3.87-2.76-.57-1.1-.91-3.11-2.56-2.37-2,.88-.81,2.65-.14,4,1.1,2.16,2.16,4.5-.24,6.2-5.57,3.94-6.19,10.25-7.79,16-.88,3.15-1.37,6.47-3.23,9.14-4.43,6.34-5.45,13.66-6.57,21a6.49,6.49,0,0,0,1.17,4.89,11,11,0,0,1,1.83,6.54c0,4.25.86,8,5,10.19a6,6,0,0,1,3,4.66c.27,1.71.29,3.65,1.43,4.92,4.46,4.91,3.74,9.87.84,15.2-2,3.63-2,7.74-1.86,11.8C904.32,879.65,904.24,881.24,902.89,882.36Z"
            fill="#3b251c" />
        <path
            d="M923.06,528.42c.21-13.34,1.65-26.5,5.78-39.23a36.68,36.68,0,0,0,1.84-11.75c-.11-14.69,0-29.37-.06-44.06a1.12,1.12,0,0,1,1.65.39c2.18,7.22.72,14.64,1.18,22,.2,3.2.06,6.43.12,9.64,0,2.18.46,4.15,2.6,5.26.62.47,1.32,1.1,1.25,1.82-1,11.46,3.75,23-2.34,34.6-3.35,6.37-1.73,14.66-2.84,22,1.44.26,2.08,0,2.21-.52,2.06-7.61,8.73-11.23,13.77-16.26,2.66-2.65,5.56-4,9.22-2.27,3.92,1.84,7.36-.17,10.93-1.3,4,1.64,3.06,5.23,3.13,8.28.15,5.63-.57,11.41,3.92,15.93,1.55,9.16-.77,18.26-.46,27.4,0,1.1-.49,2.49-1.76,2.64s-2-1-2.57-2a7.51,7.51,0,0,1-1.21-4.37c.4-9.5-1.69-18.59-4.43-27.58a33.54,33.54,0,0,1-1.33-9.64c-.65,7.24,3.51,14.14,4.1,21.74.19,2.48.8,4.91,0,7.36-1.65,2.54-5.2,2.14-7,4.58a1.27,1.27,0,0,1-2-.35c-3.15-8.33-11.13-7.21-17.54-9.06a8.59,8.59,0,0,1-4.4-2.4c-3.16-3.57-4.81-1.35-6.24,1.63-1,2.12-.8,4.51-1.35,6.74-1.51,6.09-4.53,7.41-9.53,4-1.23-.85-3.14-.44-3.8-2.2C917.26,543.35,921.41,536.27,923.06,528.42Z"
            fill="#c9462a" />
        <path
            d="M791.1,609.29a64.29,64.29,0,0,0-19-.12c-1,.11-2.69-.06-2.56-.42,1.9-5.36-4.71-3.57-5.76-7.14s-5.91-3.91-8.94-3.24c-5,1.1-5.14-1.29-5-4.79,2.87-1.78,5.28.9,8,.83A32.08,32.08,0,0,1,774,596.29c5.5,2.24,11.65.88,17.5,1,10.29.27,19.22,4.46,28.19,8.81,6.09,3,12.68,4.9,17.84,9.66.74.68,2.53.23,3.83.3a45.43,45.43,0,0,0,17.35,4.37c4.78,2.18,10.09-.06,14.9,1.82-3.3,3.2-8.06.83-11.61,3.06-3.24,4.5-8,4.2-12.1,2.63-6.15-2.32-12.59-3-18.87-4.32-4.78-1-8.58-2.85-11.5-6.67-1.66-2.17-4.14-3.35-6.09-5.17-2.23-2.09-2.79.19-3.76,1.44-4.15,3.18-8.38,2.53-12.56.14A54.24,54.24,0,0,1,791.1,609.29Z"
            fill="#3b5e69" />
        <path
            d="M625,725.72c-1.29-1.49-3.74-1.85-3.91-4.44-.49-7.49-4.59-14-5.7-21.44-.49-3.33.67-4.58,2.82-5.83,7.7-4.44,15.51-8.68,23.18-13.19,5.42-3.18,7.8,1.36,11.1,3.95,3.46,2.72.71,4.92-.7,6.72-7.94,10.17-16.9,19.51-23.55,30.78-1.32,2.24-.28,5.37-3,6.74C625.11,727.91,625,726.82,625,725.72Z"
            fill="#404541" />
        <path
            d="M722.33,581c-1.26,1.45.19,2.28,1,2.62,7.31,3.23,8.84,11.16,13.23,16.72,1.66,2.1-2.27,4.34-3.6,7.1,2.22.65,4.2-.74,6.32-.24s4.61-.34,1.93-3.44c-2-2.35.35-2.87,1.56-2.54,2.71.72,5.81-.52,8.69,2.12-3.87.74-6,2.2-6.46,6.66-.38,3.66-4.4,5.52-8.63,4.31-4.76-1.61-9-3.93-11.19-8.79-2.18-5.14-5.91-.4-8.74-1.38-2.85-.19-3.48-2.44-4.21-4.6-2.37-2.51-5.74-3.7-7.86-6.7a51.45,51.45,0,0,0-8.5-9.16c-1.68-1.44-2.48-4.52,1-5.84a3.29,3.29,0,0,0,2.33-3.44c1.91-3.05,4.57-1.81,7.11-1.28,4.48,1.6,8.35,4.36,12.45,6.69-4.74,3.61.7,6.26.36,9.45,1.87-2.11.35-3.55-.62-5.08s-1.78-3.08.51-4.24C720.26,579.79,721.47,579.82,722.33,581Z"
            fill="#448294" />
        <path
            d="M931.65,433.28a7,7,0,0,0-1,.1c-2.31-13.08-4.73-26.14-6.87-39.25-.79-4.88-1.13-9.9.38-14.74,1.36-4.38,2.94-8.66,2.57-13.39a5,5,0,0,1,1-3.19c4.41-5.44,8.25-11.38,13.56-16.06a7.43,7.43,0,0,1,5.16,4.19c3.27,7,5.33,14.21,3.7,22a1.78,1.78,0,0,1-1.55.77c-4.85-2.45-2.81-7.86-4.85-11.56-1-1.82-.19-5.22-3.54-4.79-2.87.37-2.91,3.22-2.86,5.49a28.2,28.2,0,0,1-3.2,13.75c-2.4,4.64-.93,9.31.18,13.95,4.58,9.57,6.28,19.49,3.18,29.83C936.09,424.92,933,428.74,931.65,433.28Z"
            fill="#993320" />
        <path
            d="M946.7,312.39c.43-1.46.87-2.93,1.31-4.39.66-1.86,2.1-3.11,3.43-4.44,5.36-5.33,8.75-4.72,11.44,2.14,1.86,4.74,3.88,9.46,4.25,14.65-.26,2.27-1.57,4.22-2,6.45a15.37,15.37,0,0,1-.47,1.64c-.68,2.82.31,5.94-1.45,8.59-4.29,3.33-9.81,2.39-14.54,4.25-1.8.24-2.3-.79-2.26-2.34C946.64,330.09,945.64,321.23,946.7,312.39Z"
            fill="#3e3126" />
        <path
            d="M923.06,528.42c.71,6.29-3,11.41-4.55,17.1-.59,2.17-1.3,4.3-2,6.44,3.73,3.59-.89,6.65-.62,10-2.32,5.25-6.4,9.23-10,13.46-5.75,6.7-8.06,14.41-8.24,23-.44,6.73-4.88,12.19-5.88,18.75a12.75,12.75,0,0,1-1.22,2.31,26.85,26.85,0,0,1-3.46,4c-2.26,1.38-4.51,2.12-6.64-.22,2.07-12.34,7.12-23.72,11.25-35.39,1.25-4.43,5.22-7.33,6.54-11.72h0c1.7-2.58,3.71-5,4.59-8,9.1-9.23,13.59-20.81,16.84-33.08C920.33,532.69,921.92,530.61,923.06,528.42Z"
            fill="#ad503d" />
        <path
            d="M946.7,312.39c.09,8.22.12,16.45.32,24.68,0,1.24-1.23,4.09,2.23,2.87,2.77-1,5.62-.12,3.36,2.74-6,7.63.16,14,1.12,20.82.2,1.44,1.65,2.65,1.8,4.17.7,6.86,2.17,13.11,10,15.15.45.11.65.9.81,1.46-3.41,4.71.16,10.59-2.55,15.42-6.42,1.46-14.19-4-14.4-10.43-.12-3.76.43-7.44-1.68-11-1.07-1.79.24-3.61,1.74-5-.57-9.55-.71-19.24-8.27-26.59,3.58-2.61,4.84-6.09,4.95-10.57C946.35,328.25,944.8,320.27,946.7,312.39Z"
            fill="#7d3424" />
        <path
            d="M892.61,876.67c-.07,5.64-3.51,10.33-4.33,15.76-.23,1.47-1.11,2.87-1.19,4.33-.26,4.7-1.48,7.63-6.88,4.8-1.55-.81-3.22-.78-3.33,1.43-.39,7.86-5.84,13.24-9.34,19.56a6.66,6.66,0,0,0-.84,3.79c-.2.33-.38.66-.58,1-1.25,2-4.1,4-3.14,6.18s4.11.63,6.29.85,4.27-.29,5.41,2.14c-6.28-2.06-12.22-.16-18.19,1.53-2.23,1-3-.13-2.23-2,1.06-2.83,2-5.8,4.2-8,4.09-4.05,6.27-8.85,8.31-14.38a51.83,51.83,0,0,1,9-14.57c5.36-6.37,9.76-13.29,12.05-21.54.71-2.56-.39-4.41-.48-6.58A46.82,46.82,0,0,1,888.87,858a65.91,65.91,0,0,1,0-13.47c2.64,0,2.36,2.26,2.49,3.72C892.25,857.67,894.18,867.1,892.61,876.67Z"
            fill="#702c1a" />
        <path
            d="M525.54,625.21c4,.6,4.54,3.23,2.87,6.15-5.44,9.53-2.08,17.23,4.54,24.4-10.06-1.89-19.43-5-25.93-13.78-1.83-2.47-1.51-3.8,1.15-5.3,5.3-3,11.35-4.35,16.37-7.93C526,627.71,527.86,627.17,525.54,625.21Z"
            fill="#493d2e" />
        <path
            d="M724.72,751.33c1.3,6.84-2.55,11.12-7.49,14.65-3.05,2.19-5.46,4.63-6.13,8.46-.9-1.72-11.54-7.85-13.68-7.83-4.12.06-7.47-.93-8.11-5.8,5.24,7.12,12.24,3.94,18.64,2.92,3.14-.51,2.72-4,3-6.56,0-6.07,4.37-10.5,6-16a18.53,18.53,0,0,1,5-7.51c2-1.68,4.08-1,4,1.42C726,740.51,727.54,746.13,724.72,751.33Z"
            fill="#4b4d4d" />
        <path
            d="M888.87,858c.93,2.94-1.07,5.57-.87,8.44.08,1.15-.4,2.55.1,3.4,2.86,4.82,1.23,9-1.19,13.38-2.63,4.73-4.19,10.06-8.18,14.05s-6.73,8.51-7.29,14.22c0,.18,0,.51,0,.51-6.9.27-3.24,7.14-6.12,10.48-3,3.52-7.95,6.09-9,11.27-.29,1.4-3.39,3.08.2,4.32-2.1,1.51-4,1.59-3.08-1.6,1.81-6.37,3.18-12.89,7.31-18.47,7.45-10.06,14.35-20.53,21.78-30.61a22.47,22.47,0,0,0,4.58-15.46C886.8,867.21,886,862.29,888.87,858Z"
            fill="#903c22" />
        <path
            d="M875.58,936.77c2.91-.71,4.65.87,6,3.15,2.23,3.77,4,2.33,5.71-.46,2.11-3.49,2.8-7.45,3.25-11.35.32-2.87,2.22-4.78,4.1-4.48,2.76.45,1.52,3.18,1.08,5.19-.83,3.86-1.27,7.84-2.38,11.62-.75,2.6,1,3.78,2,5.47-3.14-.07-4.67,2-6,4.44-.84,1.57-1.11,4.32-3.53,3.84-2.13-.42-2.11-3-2.45-4.81C882.33,944.15,880.54,939.5,875.58,936.77Z"
            fill="#642e19" />
        <path
            d="M880.48,623.28c2.39.4,4.73.49,6.86-1a2.35,2.35,0,0,1,3.12,0c4.29,3.44,8.94,3.25,13.78,1.59,4.27,3.78,4.46,6.94.54,9.14a20.82,20.82,0,0,0-20-2.89c-9.8,3.78-16.73.34-23.76-5.37,3.67-3.69,8.44-1.63,12.66-2.47Z"
            fill="#455259" />
        <path
            d="M982.17,500l3.39-22.57c.64,10-.82,20,.47,30.76,3.41-2.7,2.93-6,4.06-10.2.3,3.2.46,4.88.62,6.55.2,8.86,1.51,17.71,0,26.57v0c-1.43,1.18.28,3.44-2,4.81-2.53-2.56-2.8-5.88-3.1-9.2-.52-4.86.91-9.49,2-14.14-.33,2.3-.5,4.55-3.57,4.9C981.22,511.93,980.08,506.16,982.17,500Z"
            fill="#b45846" />
        <path
            d="M989.92,465.21c-.33,2.58.12,5.35-2.28,8.38-1.8-11.83-8.25-21.43-10.54-32.5a7.81,7.81,0,0,1,1.23-1.93c2.36-1.37,1.4-4.3,2.82-6.11a1.11,1.11,0,0,1,1.41,0c.71,5.78-2.52,11.92,1.3,18.14,2.75-4.29,1.47-8.73,3.1-12.58C987.67,447.54,988,456.47,989.92,465.21Z"
            fill="#a04c3e" />
        <path
            d="M973.6,355.55c.89-1.72-1-5.13,1.84-5.26,3.4-.17,3.17,3.28,3.06,5.65-.38,7.59,4.91,14,4.41,21.54a7.92,7.92,0,0,1-1.12.86c-4.13,5-4.13,5-6.47-.61-1.49-5.32-3.26-10.58-3.07-16.21C972.32,359.45,972,357.29,973.6,355.55Z"
            fill="#533225" />
        <path
            d="M986.28,421.41c-2.14-5.4-1.52-10.88-.53-16.38,2.1-11.59-.09-23.11-.8-35.52,4.38,5.81,6.51,11.44,5.57,18-.4,2.83-.78,5.67-1.17,8.5-1,7.81-.08,15.65-.34,23.47C989,421.31,989.51,424.19,986.28,421.41Z"
            fill="#a2331f" />
        <path
            d="M757.87,594.41c-2.78,1-5.25-1.2-8-.83-.65.31-1.59.43-1.9.95-1,1.66.32,5.44-3.45,4.5-3.08-.76-7.37-.26-8.27-4.7-.82-4.11-6.2-5.28-5.93-9.92,5.46,2.65,11.91,2.62,16.92,6.71C750.21,593.53,754.77,591.82,757.87,594.41Z"
            fill="#448294" />
        <path
            d="M892.61,876.67c-1.92-8.48-1.21-17.23-2.49-25.77-.33-2.16.8-4.6-1.23-6.42l0-4.64c2.58,4,4.8,8.06,4.86,13.09,0,2.43,1.38,3.68,4.35,4.12.5,4.82-2.16,7.82-1.86,13.36Z"
            fill="#571d0f" />
        <path
            d="M960.86,974c.13,5.88.24,11.77.43,17.65.05,1.7.23,3.76,1.77,4.51s1.58-2.42,3.38-2.22c-.89,1.93,3.26,4.44-.1,5.67s-6.11-.17-7.17-4.2c-.51-1.91-.64-4.21-2.61-5.51-2.5-3.45-1.13-7.6-2-11.34a3.5,3.5,0,0,1,.53-2.36c1.54-.73,3.23-1.19,4.46-2.51A1.18,1.18,0,0,1,960.86,974Z"
            fill="#392a24" />
        <path
            d="M971.42,348.81l-.35,4.56c-2.44-1.29-2.48-3.75-3.59-5.51-.62-8.14-2.14-16.35,2-24.08.63,4,3.84,7.08,3.9,11.28C974.6,339.91,970.09,343.93,971.42,348.81Z"
            fill="#583c31" />
        <path
            d="M706.31,573.07c-2.44,0-4.92-.17-7.11,1.28-3.11-.11-4.92-4.39-9.35-1.78-2.61,1.53-5.58-3-4.28-6.11C692.81,567.62,699.48,570.6,706.31,573.07Z"
            fill="#587d88" />
        <path
            d="M977.69,411.67c2.69,1,2.17-1,2.16-2.4,0-5.86-.12-11.73-.1-17.59,0-1.82-.62-3.83,1-5.37.56,12-.08,24,.38,36.12C979.53,418.88,979.25,415.07,977.69,411.67Z"
            fill="#a2331f" />
        <path
            d="M858.72,620.46c-5.84,1.83-15.08-.5-17.35-4.37C847.85,614.73,853.37,617.26,858.72,620.46Z"
            fill="#4b4942" />
        <path
            d="M967,991a21.31,21.31,0,0,1-1.76-9,2.44,2.44,0,0,1,.28-3.43c1.33-.78,1.77-2.17,2.33-3.48a1.45,1.45,0,0,1,2.2,0c-.23,6-.35,12.07-2,17.93Z"
            fill="#281e17" />
        <path
            d="M495.84,602.87c-1.11,4.31-2.16,8.6,1.28,12.43-4.8-.59-6.51-4.78-9-8-.93-1.18-.71-2.59,1.11-3C491.42,603.77,493.63,603.34,495.84,602.87Z"
            fill="#463c2d" />
        <path
            d="M998.31,529.61c-.21,3.57-.76,7.17,1.11,10.54s-1.61,5.29-2.39,7.94c-3-1.07-.62-4-1.92-5.64-.71-3.94.85-7.67,1-11.53C996.21,530,996.71,528.56,998.31,529.61Z"
            fill="#b45846" />
        <path
            d="M996.76,550.35c1.5,1.58,0,4.21,1.92,5.64,1,4.17-1,7.65-2.54,11.37-3.91-3.76.09-7.63-.49-11.33C996.8,554.29,996.35,552.24,996.76,550.35Z"
            fill="#91422f" />
        <path d="M898.27,576.17c-.09,5.09-4,8-6.54,11.72C892,582.91,895.58,579.78,898.27,576.17Z"
            fill="#ad503d" />
        <path d="M902.87,568.11c-.08,3.52-1.27,6.4-4.59,8C898.1,572.49,901.3,570.77,902.87,568.11Z"
            fill="#ad503d" />
        <path d="M685.56,566.35a11.44,11.44,0,0,1-8-3.43A9.55,9.55,0,0,1,685.56,566.35Z"
            fill="#908780" />
        <path
            d="M724.72,751.33l-.14-18.23c-3.51,2.55-4.82,6.1-6.8,9.11-2.58-1-4.95-2.46-7.84-2.86-1.84-.26-4.17-1.09-3.67-4-.32-3.14.93-6,1.6-9,.46-2,0-3.57-1.58-4.43s-2.77.64-3.86,1.69c-1.72,1.64-2.3,3.87-3.27,6-3.48,7.4-7.29,14.28-15.37,18.18-9.49,4.57-17.88-3-20-11.19-2.82-10.8,4-16,10.45-21.74,5.82-5.14,11.86-10,17.6-15.25,3.88-3.53,9.27-4.22,13.2-7.69,1.05-.93,3.81-.8,4.59,1a14.86,14.86,0,0,1,1.18,9.28c-.19.85-1.2,1.5-.51,2.93,3.18.2,6-1.34,8.75-2.87,2.11-1.17,4.15-2,6.38-.38a5.49,5.49,0,0,1,3,1.53c6.68,5.28,7.64,5.28,13.66-.44,2-1.87,3.29-1.76,4,1,.49,1.84.41,3.8,1.16,5.59,3.31,6.08,5.07,7,11.61,6.13,1.87-.25,3.71-.58,5.5.33,2.48,2.08,3.06,5.14,4.12,8,2.21,5.85,5.53,7.45,11.44,5.51,1.29-.43,2.57-1.1,3.8-.28,5.12,3.4,9.34,1,13.5-2,2.14-1,4.11-3.4,6.67-.79a14.73,14.73,0,0,1,1.59,3.77c.39,1.27.33,2.62.63,3.89,1.08,4.61,4,5.48,7.77,2.59,2.43-1.88,3.86-6.13,8.24-3.89,2.87,1.68,1.47,6.49,5.37,7.42a4.9,4.9,0,0,1-1.18,4.25c-2.84,2.88-2.85,6-.79,9.33a7.66,7.66,0,0,1,.22,7.66c-4.19,9-9.87,17-15.3,25.22-2,3-9.37.89-12-3.08-1.29-1.91-1-5.1-5.06-4.7-1.67.16-.51-2.8-.21-4.4.6-3.19,1-6.13-4-4.26-2.23.83-4.19.06-4.81-2.57-1.12-4.84-3.54-5.48-7.82-3.21-2,1.06-5.3,1.47-6.33-1.69-2-6.17-5.55-6.23-10.24-2.85-2.16-3.81,1-6.72.9-10.31-2.77.83-3.11,3.68-4.76,5.24-3.65,3.45-6.2,3-7.62-1.7-2-6.7-2.32-6.88-7.12-1.73-2.59,2.78-4.7,3.46-7.47.55S727.71,752.32,724.72,751.33Z"
            fill="#263317" />
        <path
            d="M726.21,652.39c.38,2.28.75,4.55,1.12,6.83a15.65,15.65,0,0,0-4.38,3.64c-4.84,4.78-9.33,9.77-11.34,16.53-.33,1.12-.71,2.75-2.63,2-12.31,3.86-18.74,0-17.22-12.6.66-5.41-3.71-3.12-5.94-3.2-6.5-.25-7.91-1.87-6.51-8.4,3.85.42,7.5-.77,11.21-1.42,4.16-.73,10.31-5.8,9.86-9-.61-4.35-2-8.86-7.18-10.28,2.53-2.65,5.86-.75,8.71-1.57,2.47,1.86,2.4,6.84,7.16,5.87a4.56,4.56,0,0,1,3.55-.16c2.79,1.71,2.27,4.62,2.6,7.21.28,4.57,3.59,4.62,6.85,4.51C723.46,652.33,724.82,651,726.21,652.39Z"
            fill="#89806a" />
        <path
            d="M746.07,709.75c-2-2-.63-4.79-1.86-7.65-1.93,3.77-3.61,7.06-8.58,6.87-5.29-.2-7.46-3.87-10.21-7.16,0-1.09,0-2.18-.08-3.26-1.7-5.37-.26-9.06,5.13-11.48,4.88-2.19,8.59-6.26,12.77-9.56,1.43-1.13,2.58-3,4.87-2.28l.23-.1c.84,1,2.26,1.46,2.76,2.81.69,3.28-2,5.91-1.89,9.32,4.72-2.59,7.24-9.53,14.2-6.57a5.06,5.06,0,0,1,.9,3.08c-.79,2.6-.57,4.61,2.77,4.85a3.63,3.63,0,0,1,1.41,2.17c.29,2.11-.31,4.15-.48,6.22C767.16,707.65,756.35,713.92,746.07,709.75Z"
            fill="#8c8570" />
        <path
            d="M706.27,735.34c1,2.09,3.1,3.48,4.9,3.14,3.59-.68,5.09,1.3,6.61,3.73-1.58,5.3-4.36,10-6.78,15-2.36,3.71-6.44,3.7-10,4.19-3.85.54-7.24-4-5.68-7.75C698,747,701.18,740.56,706.27,735.34Z"
            fill="#25211a" />
        <path
            d="M722.88,661.57c1-1.64,1.83-3.76,4.45-2.35,1.27,2.07,3.3,3.15,5.27,1.8,5.93-4.06,5,.5,5.16,3.89,0,1.14,0,2.28,0,3.42,1.52,4.72-1.35,8.79-3.36,12-3.88,6.25-9.45,11.36-17,13.31-5.66.5-8.11-2.38-8.11-7.82,6.92-1.82,12.87-5.16,17.32-11,1.1-1.42,3-2.1,0-4.11S725.2,664.26,722.88,661.57Z"
            fill="#8c8570" />
        <path
            d="M693.2,636.52c3.82-.35,5.51.25,7.34,4.94s1.48,6.53-1.06,10.19c-2.73,3.93-5.79,5.57-10.3,5.73a27.51,27.51,0,0,0-7.16,1.53c-1.84.58-2.42-.19-2.7-1.74.73-6.4,4.87-10.81,8.88-15.28C689.83,640.07,691.53,638.31,693.2,636.52Z"
            fill="#989179" />
        <path
            d="M722.88,661.57c2.67.17,3.44,1.85,3.48,4.26s-.85,5.37,3.57,4.14a1.31,1.31,0,0,1,1,2.32c-6.28,6-10.9,14.75-21.64,13.55l-.33-4.47C712.1,673.69,715.8,666.43,722.88,661.57Z"
            fill="#99927b" />
        <path
            d="M717.42,693.66c9.93-5.89,17.93-13.35,20.39-25.33,2.32,1,4.28,2.34,7.31,1.78,3.81-.7,2.72,2.92,3,5.12-6.59,5.35-12.56,11.5-20.43,15.13-3.72,1.72-1.73,5.4-2.34,8.19C724.92,693.28,721.68,692.63,717.42,693.66Z"
            fill="#7d7662" />
        <path
            d="M712.2,599.49c1.44,1.27,2.11,3.55,4.56,3.47a24.91,24.91,0,0,1,3.45,5.7l-8.13,7.07c-.14-8.08-1.67-10-7.83-10.36C706.41,602.73,711.23,603.74,712.2,599.49Z"
            fill="#325c6e" />
        <path
            d="M866.48,743.44a35.38,35.38,0,0,1-12.18-11.63c-3.13-4.64-9.22-5.54-13-9.63-1.31-1.42-.57,2.46-2.35,1.68-1.9-3.41-4.4-5.43-8.65-4.41-1.67.4-3.33-.45-4.72-1.55a15,15,0,0,1-5.28-9.13c-.55-9.17,1.33-12.9,7.59-15.09,2.45.7,3.31,3,4.74,4.75.84,1,1.62,2.34,3.12,2.21,1.84-.18,2.45-1.82,2.71-3.3,1.38-8,.68-15.76-4.51-22.3-3.28-4.14-3.87-8.12-1.46-12.71.72-1.36,1.31-3,3.14-2.84,2.05.23,2.56,2,2.86,3.81.35,2.08.1,4.22.49,6.3.54,2.87,1.84,4.82,5.1,5.28,5.78.8,9,6.25,7.28,12.06A52.73,52.73,0,0,0,849,695.8c-.66,5.26,2.09,8.05,7.28,7.41,3-.38,5.86-1,8.87.68,4.53,2.45,6.09,1.61,8-3.39.61-1.59.65-3.43,2.13-4.61,3.9,2.82,4.45,7.41,1.86,10.22-5.18,5.61-2.82,10.91-1.07,16.42.87,2.74,2.17,5.3,1,8.25a85.64,85.64,0,0,1-4.34,10.66C871.16,743.6,869.15,744.59,866.48,743.44Z"
            fill="#356c7b" />
        <path
            d="M866.48,743.44c2.44.44,4-1.2,5.62-2.54,4.29,1.79,6.49.38,6-4a11.4,11.4,0,0,0-2.36-6.24,6,6,0,0,0-.5-6.46c-2.51-3.61-2-8-3.23-12-.47-1.47-.21-3.35,1.24-4.12,6-3.16,3.4-7.65,2-12-2.51-4.31-2.77-9,.12-12.84s11.07-4,15.45-1.28c1.77,1.09,3.85,1.7,5.26,3.35a3.16,3.16,0,0,1-.3,3.72c1.87,7.06-.08,14.43,2.14,21.61,1.08,3.5-.43,7.81-.76,11.75-3.22,3.26-5.43,7.23-10.14,9.39-2.88,1.32-1.48,6,.56,8.73,2.72,3.62,4.34-.48,8-2.23-3.28,7.65-1.41,15-5.21,21.38-.93,1.53-2.4,2.94-4.17,2.12s-1.29-2.89-.84-4.6c1.22-4.55,3.27-9.15-.89-13.4-1.92-2-3.24-2.55-4.46.68-1.84,4.88-7.31,7.11-9.08,12.15a1.72,1.72,0,0,1-2.36,1c-1-.53-.95-1.65-.8-2.54a17,17,0,0,1,1.28-5C870.79,746.78,869.49,744.84,866.48,743.44Z"
            fill="#2c311c" />
        <path
            d="M826.22,717.2c1.71.95,3.6,1.69,5.45.95,5.8-2.31,7.09.94,7.31,5.71-9.16-1-11.46,1.19-11.65,11.09,0,1.71.09,3.42.14,5.14-.86.72-1.52,3.32-2.77.3-1-2.36-2-4.73-2.92-7.09-2.37-3.09.06-5.77.7-8.61C823.9,722.28,822.3,718.34,826.22,717.2Z"
            fill="#8d846e" />
        <path
            d="M767.67,690l-1.25-1.13a1.44,1.44,0,0,1,0-1.52c4.37-2.52,7.43-6.35,10.26-10.41,1.23-1.77,2.29-3.6,1.66-5.81-.8-2.79-1.83-4.4-5.15-2-3.83,2.73-6,7.52-10.95,8.81-4,1-7.93,2.12-11.75-.44a3.36,3.36,0,0,1-2.11-2.37c3.48,1.57,5.78,1.1,7.68-2.83s5-7.6,7.56-11.4c.61-.92,1.42-2,.64-3.16s-2-.68-3.08-.27c-.88.31-2,.16-2.76.59-2.17,1.19-3.92,2.62-6.38,0s-1.1-4.84-.08-7.55c2.68,1.24,5.55,4.4,7.86-.38.4-.83,2.05-1.59,2.35-1,2.23,4.62,9.38,3.59,10.5,9.51.4,2.08,1.82,4,4.45,3.56,2.27-.4,4.94-1.17,5.12-3.82.44-6.55,5-12.75,1.35-19.71-.89-1.68-2.43-4.74,1.62-5.81,1.39-.36,1.64-2,1.36-3.43-.35-1.8-2-1.4-3.15-1.83-2.15-.78-4.12.21-6.15.48-1.24.16-2.76,1.52-3.55,0-.48-.91.34-2.5.58-3.79,0-.18.08-.43.21-.52,2.85-2.15.28-8.28,5.41-8.31,4,0,2.86,4.78,4.74,7,2.73,3.17,5.68,3.61,8.94,1,2.73-2.19,5.41-4.29,1.42-8-1.72-1.59-2.61-4.08-3.87-6.17a17.17,17.17,0,0,1,7.17,3c3.51,2.69,7.38,1.93,11.15.34,4.67,2.17,9.05,4.5,10.47,10.21.69,2.72,3.49,3.85,5.65,5.35,2.58,4.62,5.61,5.38,9.79,2.43,1.36-1,2.18-2.6,3.87-3.15,3.22-.56,6.47-1.4,9.32,1.09.08,3.43-3.8,1.4-4.76,3.52,2.31,2.1,5.77,1.09,8.15,3-1,5-4.8,4.2-7.89,3.3-4.16-1.23-6.57-1.31-6.33,4.17.1,2.4-1.84,4.26-4.25,4.84-2.67.64-3-1.8-3.69-3.47-1.33-3-4-4.54-6.34-6.49-.87-.73-2-1.34-3.13-.52s-.78,2-.51,3.15c.62,2.59,3.91,5.43.68,7.74s-5.24-1.78-7.89-2.81c-6.53-2.52-9.74-9-15.38-12.48-1.37-.85-2.92-2.53-4.58-1-1.5,1.4-.46,3.23.15,4.82a9.62,9.62,0,0,0,1.68,3c3.12,3.58,2.39,6.93-.37,10.3a30.72,30.72,0,0,0-3.61,5.17c-3.45,6.66-5,13.33.51,19.78a4,4,0,0,1,.15,2.53c-3.06,5.09-7.77,8.39-12.52,11.64C775.06,690.05,771.72,693,767.67,690Z"
            fill="#366a78" />
        <path
            d="M726.21,652.39C719,655.28,716,654.46,713.89,649c6.32,1.25,9-.15,9.56-4.91.32-2.75-.49-4-3.49-3.15-2.5.74-5.08,1.83-7.62,0l-3.27-.14c5.91-.81,5.35-5.38,5.62-9.58.11-1.73-.85-5.08,1.4-4.75,3.1.45,6-.93,8.84-.2,1.07.27.42,1.58.38,2.5-.34,6.61,1.19,8.43,7.29,8.4,5.55,0,2.74,3.84,2.06,5.43C732.93,646.65,729.32,649.37,726.21,652.39Z"
            fill="#36606c" />
        <path
            d="M726,605.11c2,4.73,7.76,5.12,10.36,9.15-.33,3-2.16,5.16-4.23,7.15-1.23,1.17-2.46,2.78-4.33,1.68a4.54,4.54,0,0,1-2.35-5.25c1-4.17-.18-7.35-4.14-9.28C721.67,605.79,724,605.64,726,605.11Z"
            fill="#325c6e" />
        <path
            d="M748.82,618.73c-1.36,1.79-1.76,4.16-3.6,5.7-1.08.9-1.44,2.77-3.54,1.72-1.86-.93-3.23-2-3.06-4.31.13-1.77-.75-4.44,2-4.59,7-.38,9.65-4.09,9.57-10.75,0-1.72,1.91-1.44,3.18-1.58,4.34,1.07,3.47,3.27,1.23,5.75l-.1,2.29C753.61,615.9,750.93,617,748.82,618.73Z"
            fill="#325c6e" />
        <path
            d="M748.82,618.73c.28-3.51,3.76-3.86,5.66-5.77,1.28.3,3.44-.56,2.95,2.12-.54,3-1.93,5.33-4.93,6.46C749.76,622.56,749.2,620.79,748.82,618.73Z"
            fill="#448294" />
        <path
            d="M726,605.11c-.62,2.44-3.47,1.83-4.69,3.45l-1.08.1c-3.19-.65-3.37-3.15-3.45-5.7,1.09-.22,2.4-.14,3.23-.72C723.82,599.53,725.39,601.19,726,605.11Z"
            fill="#2c3c42" />
        <path
            d="M754.58,610.67c.37-2.08,1.44-4.32-1.23-5.75.09-1.87-.18-4.24,2.56-4.07,1.79.12,2.18,2,1.89,3.56-1,5.22,4.26,1.21,5.24,4C760.78,610.85,757.66,610.71,754.58,610.67Z"
            fill="#448294" />
        <path
            d="M902.89,882.36l.08-4.58c3.59.5,5.26,3.21,7,6,2.32,3.66,4,3.76,6-.09,1.64-3.14,3.21-3.67,6.28-2.06,4.87,2.56,6.51,1.95,8.87-2.88,1.43-2.92,2.88-6,1.61-9.35-1.57-4.2-.58-6,4.05-4.59,2.61.78,4.49,0,5.45-2.65.14-.37-8.14-10.21-8.49-10.08a9.41,9.41,0,0,0-5.47,4.82c-1.72,3.69-5.08,5-8.22,6.73-3.73,2-5.82-.19-7.16-3.23-1.68-3.79,1.15-4.62,3.92-5.24a17.92,17.92,0,0,0,4.83-1.7c1.55-.84,2.34-1.71,1.07-3.6-3.11-4.62.64-5.36,3.83-6.67-1.59-4-13.27-3.68-5.58-11.74,0-.81-.22-1.19-.63-1.29-2.66-.68-6.14-.2-7-3.77s1.7-6,4.09-8.28c1.09-1,2.9-1.87,2.37-3.59-.69-2.2-2.56-.69-3.92-.65a5.56,5.56,0,0,1-5.93-4.41c-.82-3.21,1.06-5,4.32-5.14-.15-1.3-1.61-1.56-1.63-2.38-.07-4.12-1.45-6.89-5.92-7.84-1.69-.36-2.19-2.54-1.81-4.4a14.2,14.2,0,0,0,.09-5.12c-.62-4-.35-7.42,5.35-6.39,2.21.41,3.56-1.17,4-3.29.63-3.3,2.62-4.91,5.85-5.31a5.51,5.51,0,0,0,5.06-4.8c.89-6.61,5-8.5,10.87-8.4a6.05,6.05,0,0,0,1.69-.24,1.74,1.74,0,0,0,1-.76c0-2.56-3.06-2.49-3.92-4.34,3.67-5,6.85-10.14,8.58-16.29.95-3.4,4-2.38,5.75-.12a11.35,11.35,0,0,1,2.08,10.29c-.87,3.2,0,4.66,4.61,4-7.25-5.46-1.35-9.44.34-14-8.22,1.16-4.61-9-11.4-9.29.62-.67.81.21.63,1-.47,1.93-1.19,3.77-3.43,4.06-1.75.23-2.83-1-3.48-2.44-.87-1.95-1.74-4.07.49-5.68,3.09-2.23,3.81-5.45,4.32-9,.87-6,5.26-7.74,10.61-4.24a40.63,40.63,0,0,1,5.44,13.06c2,9.31,6.82,17.67,9,26.93.66,3.82,3.08,7.24,2.53,11.33a13.66,13.66,0,0,1-.41,2.7c-.56,1.75-.75,3.58-1.19,5.36-1.71,7.66-2.16,15.14.29,22.9,1.73,5.47-.91,11.16-1.4,16.76-.08.91-1.09,1.48-2.19.9-2.5-2.81-2.39-6.3-2.49-9.72-.26-8.18.1-16.37-.28-24.54a6.84,6.84,0,0,1-.24-2c.47-4.95.27-9.93.25-14.9,0-4.53-2.49-9.18.09-13.5-1.38.32-.88,2-1.14,3.14-4.26,18.92-5.14,37.8.87,56.58,1,3.26,1.69,6.66,2.47,10,0,2.44,1.43,4.82.35,7.31a1.61,1.61,0,0,1-1.44.77c-3.26-1.31-2.36-4.88-4.12-7.14,6.15,9.75.15,18.93-1.08,28.34-2.55,1.55-1.23,6.49-5.58,6.47-3.57-2.05-1.13-6.39-3.39-8.93a4.25,4.25,0,0,1-.23-2.66c-.9,3.28-2,6.32-5.16,8.15-1.22.72-2.07,2-1.38,3.36,1,2,2.15.59,3.18-.12,1.55-1.06,3.06-1.49,4.58,0,1.62,2.71.33,6.09,2.07,9.11.11.42,1.19-.5.46-.26-.09,0-.12,0-.18-.12-1.43-1.78-.75-3.54,0-5.3,1.92-.67,3.71-2.13,5.93-.94,2.18,3.7,3,7.42.18,11.2-1.56,0-2.39-2.64-5,0-2.35,2.41-6.8,2.27-9.92,5.47-3.46,3.55-6,7-7.35,11.74a19.51,19.51,0,0,1-4.46,7.91,7.81,7.81,0,0,1-7.18,2.56c-7.16-.9-9,.51-10,7.68a12.44,12.44,0,0,1-.62,2.78c-2.35,3.51-.22,8.17-2.93,11.58a22.74,22.74,0,0,1-3.62-11.69,18,18,0,0,0-3-10.2A15.24,15.24,0,0,1,902.89,882.36Z"
            fill="#662512" />
        <path
            d="M912.29,913.35c.32-3.93-1-8.19,2.22-11.54,3.26-.14,4.51,3.19,7.12,4.19.91.35,1.87.81,2.64,0s.14-1.74-.39-2.54c-1.5-2.27-4.87-4.71-2.26-7.34a8.85,8.85,0,0,1,9.09-1.71c3.82,1.6,6,.83,7.92-2.63.81-1.47,2.29-3,4.18-1.62,1.54,1.11.72,2.83.14,4.22-1.61,3.88-4.23,6.83-8.28,8.18-2.46.82-4.12,2-3.38,4.94.66,2.67,2.18,4.5,4.93,4.93,3,.47,3.81-2,4.71-4.06,1-2.28,1.16-4.85,2.35-7.07.56-1,1.3-2.07,2.56-2s1.73,1.41,1.85,2.52a23,23,0,0,1-3.87,15.81c-2.35,3.46-7,3.89-10.53.41s-6.7-.45-10-.56c-1.38,0-1,1.8-.73,2.86,1,3.54,2.59,6.77,5.51,9.2,4.93,4.11,6.2,3.89,9.29-1.73.9-1.65,1.58-3.8,3.91-3.64s2.91,2.22,3.59,4c1,2.54,2.73,4.58,4.14,6.85,1,1.55,1.36,3.19.12,4.81s-2.6.88-4.11.45c-4.57-1.32-7.33,2.23-9.2,5s.5,6.22,2.27,9c.94,1.44,2.24,1.12,3.26-.23s.72-3.46,3.49-4.29c2,7.61,2.65,16.58,13,17.85a10.66,10.66,0,0,1-1.46,8.58l-1.52,1.29-.41-.1-.42,0c-3.9-3.71-8.1-7.16-9.41-12.87-.62-2.72-2-1.08-3.35-.37-5.08,2.75-10.21.3-10.22-5.52,0-4.89-1.17-7.48-6.17-8.8-3.12-.83-5.64-4.63-5.33-7.54C920.77,931.55,916.63,922.48,912.29,913.35Z"
            fill="#712d0c" />
        <path
            d="M987.87,941.56a30.61,30.61,0,0,0-3.23-13.16,27.56,27.56,0,0,1-2.46-15.53c.64-5.33,1.38-10.51-.17-15.83-.5-1.72-.79-3.72,2-4.92,1.91-.8,1.14-3.75,1.17-5.81,1.81-5.52,1.23-11.66,4.49-17.53,3.36,6.22,2.63,11.52-.08,17.18-1.71,3.61-1.28,8.08-.44,11.77,1.84,8-1.55,15.48-1.57,23.25,0,2.54-.08,4.46,1.35,6.82,2.57,4.22,2.61,9,.78,13.73C989.18,943,988.51,942.61,987.87,941.56Z"
            fill="#62240f" />
        <path
            d="M983,879.43c-2,3.1-.35,6.71-1.78,10.66-1.86-7-6.24-12.76-3-20,1.94-4.32-.71-10.25,5.12-13.46,1.12-.62.38-4.65.5-7.11-1.66-3.27-.73-6.16,1.3-8.89,2-5.54-.65-11.91,3-17.18a99.33,99.33,0,0,0,2.82,17.87c1.1,4-.83,8.57-2.16,12.78C986.14,862.36,982.91,870.53,983,879.43Z"
            fill="#612410" />
        <path
            d="M980.89,930.11c1.25,8.51,5.8,16.36,5.06,25.28q-2.18,5.77-4.34,11.57c-1.82.88-1.86,4.25-4.85,3.5q.12-3.4.23-6.8c1.83-1.59,2-4,3-6,.24-8.75-1-17.36-2.6-25.92C977.47,928.77,979.19,929.46,980.89,930.11Z"
            fill="#5f2311" />
        <path
            d="M976.76,970.46c2-.58,2.16-3.84,4.85-3.5-.76,6.6-3.8,12.78-3.57,19.55-4.06-1.38-4.35-4.83-3.87-8.18C974.56,975.64,975.86,973.08,976.76,970.46Z"
            fill="#2f241c" />
        <path d="M994.82,868.43c-5.93-8.3-.38-14.7,1-22.62C997.89,854,997.15,860.79,994.82,868.43Z"
            fill="#652d1d" />
        <path d="M992.77,788l-.08-10.39,3.62,3.41c.17,6.81,1,13.72-3.45,20.22Z" fill="#6d2c15" />
        <path
            d="M992.26,806.87l1.77,1.07.12,15.49c-1.57-.24-1.22-2.1-2.18-2.79C988.38,816,990.89,811.43,992.26,806.87Z"
            fill="#6c2d15" />
        <path
            d="M935.13,750.91a20,20,0,0,1,3.72,1.33c1.44.83,3.3,1.8,2.58,3.9-.58,1.68-2.39,1.73-3.94,1.63-5.89-.39-10.36.54-11.06,8-.25,2.71-2.26,6.14-6.76,5.23a3.06,3.06,0,0,0-3.77,3.26c-.07,5-2.82,6.37-7.16,5.27-4.54-1.16-3.39,2.25-2.72,3.91.89,2.19,1.5,3.56.33,6.16-1.57,3.46,1.35,4.6,4.42,4.32s4.76.56,3.11,3.81c-1.23,2.42-.91,3.85,1.64,4.86,1.19.47,2.84,1.06,2.19,2.76-.47,1.24-2,1.05-3,.63-1.73-.72-2.84-.52-3.66,1.3-.71,1.58,0,2.56,1,3.52,1.21,1.15,2.17,2.6,4.37,1.68,1.61-.68,3.81-3.34,5.15,0,1.12,2.77.16,5.27-3,6.39-1.8.63-2.27,2.48-3.31,3.81s-1.83,2.63-.64,4.12c1,1.2,2.43,2.47,3.89,1.55,2.55-1.62,3.39.17,4.43,1.75,1.72,2.62-1.24,2.36-2.09,3.45-1.42,1.85-2.1,4.43,1,4.65,3.31.24,4.59,2.26,6.1,4.41.68,1,2.61,1.72,1.29,3.23-1,1.14-1.95,0-2.85-.74-1.52-1.25-2.42.08-3.28,1-1.34,1.53-.33,2.35,1,3.05,4.26,2.24,1.61,4.09-.66,5s-3.92,2.94-6.8,2.34c-1-.2-4.06-.21-2.94,2.74.74,1.94,2.18,4.92,4.09,3.91,2.64-1.4,6.19-2.07,7.74-4.93a21.9,21.9,0,0,1,5.92-6.82c1.07-.85,1.75-3,3.67-1.6,1.44,1,3.65,1.67,2.58,4.35-.88,2.22-.17,2.9,2.35,3,2.19.08,5.59.53,4.21,4.29-1.13,3.11-2.21,7.06-7.14,5-1.2-.49-2.41-.95-5.44-2.15,5,6,2.75,10.76.74,15.39-2.38,5.49-5.61,6.6-10.45,3.27-3-2.08-3.61-1.57-4.69,1.84-1.39,4.38-6.6,5.07-7.87,1.18s-4.62-5.33-6.48-8.28c-.08-3.24-.37-6.47.93-9.62,2.44-5.92,5-11.12-.32-17.86-2.35-3-2.61-8-7.17-10.12-1-.46-1.48-2.66-1.64-4.12-.5-4.4.68-9.2-3.5-12.62a2.54,2.54,0,0,1-.18-2.21c2.39-6.18.26-13.59,4.94-19.07,5.47-6.42,4.5-15.2,8.35-22.19.34-.61-.14-1.81.27-2.22,3.9-3.93,7.92-7.45,3.36-13.83-1.35-1.89,2.07-2.71,3.74-3.14,1.92-.5,2.64,1.05,2.83,2.72.22,1.84-.09,4.51,2.54,4.19,2.84-.34,2.09-3.22,2-5.2-.11-4.84-1.64-9.36-3.5-13.76-.82-1.92-2.13-3.8,0-5.73,3.28,1.59,5.39,4,5.75,7.82.14,1.45.6,3.31,2.29,3.6,1.5.27,2-1.55,2.8-2.52,1.14-1.31,2.26-2.59,4.16-2.69C932.29,749.34,933.92,749.57,935.13,750.91Z"
            fill="#571d0f" />
        <path
            d="M935.13,750.91c-1.6-.11-3.37.56-4.61-1.1-2.45-.95-3.66-2.71-3.15-5.36s2.79-2.83,4.79-3.36a20.53,20.53,0,0,1,2.82-.37c1.54-.18,3.18-.37,3.5-2.27.26-1.53-.83-2.58-2-3.19-4.3-2.24-5.89-7.55-10.65-9.28a2.18,2.18,0,0,1-1.21-2.88,4.6,4.6,0,0,1,3.26-2.93c1.66-.48,3.15.63,5.09.64-1.19-.49-2.3-.24-3-.86-4.59-4.09-9.09-7.63-16-5.08-2.1.78-4.67-1.48-5-4.41-.23-1.91-.26-3.81-1.55-5.39,0-1.21-2.65-2.78-1-3.07,5.6-1-.08-3.06.84-4.66l4.25,1.33-3.09-6.25c-1.58-2.67,0-5.59-.64-8.37-.27-1.18.38-2.15,1.86-2.28,5.25-.45,3.91-4.86,2.52-6.57-3.83-4.7-1.23-5.72,2.73-6.66,1.46-.53,2.93.31,4.74-.1-.47-2.13-2.86-2.31-3.71-3.85-.07-2.56.78-4.43,3.59-4.81,1.46.64,2.25,2,3.32,3.09,2,2,5.36,3.61,4.76,6.64-.45,2.27-2.86,4.08-3,7-.07,1.49-1.78.94-2.83.61-4.75-1.5-4,1.74-3.73,4.43.19,1.84,1.5,3,2.89,4.09s3.41,2,4.46,3.55c2.49,3.59,5.41,5.46,9.65,3.59-2.44-1.13-7.94,2.21-7.51-4.28.25-3.67,2.66-3.49,5.16-2.45.81-2.15-.69-2.54-1.65-3.39-2.92-2.58-3-8.62-.27-11.29,1.36-1.32,2.56-1.53,3.67.31.39.65-.07-.15.24.52,1,2.33,2.69,3.76,5.25,3.71,3.44-.06.88-3.73,2.74-4.81,1.85-.8,3.35,0,4.78,1.07a12.18,12.18,0,0,0,6.25,5.27,8.23,8.23,0,0,1,4.72,3.73c1.55,3.84.07,7.46-.67,11.18a22.33,22.33,0,0,0,0,6.27c.09.76,1.17-.61.52-.2-.15.09-.25,0-.31-.44-1.05-6.74,2-13.05,2-19.68,1.69-2.56,3-1,4.21.46a8.89,8.89,0,0,1,1.7,5.11c.26,4.65-.81,9.17-1.47,13.72.12,1.27-4.15,1.12-1.06,3.37,3.56,11.14,6.29,22.52,9.27,33.82a8.41,8.41,0,0,0,3.21,5.53c2,3,2,6.54,2.92,9.85,0,2.77,2,4.66,3,7-.49,6-1.76,11.88-1.92,17.91-1.32,6.44-.24,13-.53,19.42-.14,3.21.47,7.92-2.8,8.57s-3-4.34-4.35-6.83a16.09,16.09,0,0,1-1.8-7.17c0-2.44.26-4.93-.6-7.29-1.65-4.51,1-8.44,1.63-12.63,1.34-5.5-.32-11-.08-16.49.58-3.35-1.88-5.7-2.82-8.55-3.64-9.78-7.5-19.48-11.67-29-.9-2-1.62-4.29-3.62-5.67-5.74-1.75-7.55-.05-8.43,5.75-.44,2.86-.44,7-4.49,8.2-2.53.76-1.12,2.33-.84,3.64s.71,2.77,2.39,2.73,2-1.45,2.23-2.83a9.74,9.74,0,0,1,5-6.89c-2,3.75-2.26,6.51,2.28,8.27,1,.39.92,3.72,1.33,5.69,2.27.42,2.87-4.12,5.28-1.71,2.21,2.2.13,3.53-1.39,5.09s-2.25,4-3,5.84c-1.67,4.19,3.64,2,5,3.74-.39,2-2.19,2.29-3.09,3.46-1.59,2.08-3.35,1.12-5,.07s-2.36-3.11-1.28-4.46c2-2.57,1.11-5,.5-7.52-.48-2-1.07-4.54-3.62-4.52-3,0-1.43,3-2.13,4.48C941.81,743.11,940.5,748.46,935.13,750.91Z"
            fill="#752e19" />
        <path
            d="M907.37,705.07c1.54,1.06,3.17,1.83,3,4.33-.28,4.83,3.17,5.43,6.22,3.84,4.6-2.4,7.31-.66,10.35,2.53,1.5,1.57,2.6,5.38,6.22,2.58,1.06-.82,1.74.39,2,1.25a4,4,0,0,1,.35,2.66c-.51,1.1-1.59.46-2.47.12a16.37,16.37,0,0,0-3.75-1.25,3.3,3.3,0,0,0-3.89,2.6c-.28,1.8,1.95,1.29,2.79,2A134.49,134.49,0,0,1,940.38,737c1.28,1.4.1,3.63-1.93,4.67a6.84,6.84,0,0,1-3.78.6c-2.15-.11-4.81-.15-6.08,2s1.13,3.76,1.93,5.59c-3.32,1.41-3.66,5.69-7.24,7.38-3.92-3.9-3.31-10.48-7.66-14.19a7,7,0,0,1,1.55-4.71c2-3,2.83-6.27.68-9.55a4.19,4.19,0,0,1-.43-3.7c.89-3.78-.93-5.67-4.6-6.2-4.55-.66-7.17-3.28-8.28-7.85C903.81,708,908.86,708.18,907.37,705.07Z"
            fill="#662512" />
        <path
            d="M915.05,669.37c-.84,1.6-2.9.69-4.28,2.35,6.38,1.76,3.56,6.77,3.24,10.42-.25,3-3.4.44-5.68,1,2.09,3.18.85,6.24,0,9.33-4.25-.91-8-3.89-12.57-3.37l-.07-3.52c-.8-7.62-1.19-15.06,4.11-21.63,3-3.71,1-8,.07-12-.43-1.77-2.17-3.2-1.37-5.31,5.47-1.14,11.67,2.43,13.58,8,1,2.85,1.44,5.88,2.42,8.74C914.77,665.33,914.78,667.36,915.05,669.37Z"
            fill="#3f3229" />
        <path
            d="M967.73,508.83c-2.48,4.91-6.82,4.35-10.47,2.63-3.24-1.53-5.29-1.24-7.45,1.25-4.83,5.6-12.77,8.58-14.1,17.17a2.6,2.6,0,0,1-3.49,2.08c-2-.64-2.46-2.39-2-4.18a60.4,60.4,0,0,0,2-18.06,7.72,7.72,0,0,1,1.3-4.28,21,21,0,0,0,2.71-18.94c-1.69-5.33,1.35-10.16.19-15.22,6.14-3.62,4.62-7.24,1.15-12.38-6.07-9,2.42-16.57,10.1-17.74,4.39-.67,9.35-3,13.73.66,1.48,1.62,1.86,3.72,2.41,5.73.61,2.21.85,4.64,2,6.54,7.51,12.25,8.05,25.91,8.37,39.67a40.37,40.37,0,0,1-1.13,9.58,2.56,2.56,0,0,1-1.24,1.25c-2.89-1-2.9-3.75-3.49-6.07-1.28-4.93-1.74-10-2.91-14.4,1.41,6.73,1.89,14.16,3,21.5A3.56,3.56,0,0,1,967.73,508.83Z"
            fill="#d63e25" />
        <path
            d="M960.43,442.29c-6.8.26-14.07-3-19.47,4.89-4,5.86-4.73,8.69,0,14.67,4.32,5.42,4.32,5.41-2,8.12-.87.38-1.69.87-2.53,1.31-3.56,2-4.64.6-4.63-3.11,0-11.63-.13-23.26-.21-34.89,0-3.72,1.46-6.77,2.88-10.2,2.11-5.1,4.91-11,2.37-17.67-1.81-4.69-1.12-10.31-4.4-14.7,1.19-.61,2.22,0,3.22.51,2.76,1.4,4.53.87,4.44-2.49-.18-6.75,4.88-10.58,8.21-15.37l1.12,0c-.67,2.51-1.57,5,1.12,7.08,1,.76,1.12,2.23,1,3.68-1,9.77,1.85,13.5,11.76,15.58,2.7,1.94-.16,4.84,1.2,7,1.16,8.65.72,17.48,2.8,26,.78,1.82,1.5,3.67,3.06,5,1.66,6.46,3.65,12.86,4.85,19.4.7,3.82,3.83,5.84,5,9.39,3.18,9.29-.62,18.2-.25,27.26-3.34-.42-2.69-3.46-3.39-5.48s-.3-4.42-1-6.55c-.55-16.94-10.88-30.44-15.73-45.87C960.22,438,961.93,440,960.43,442.29Z"
            fill="#ae311b" />
        <path
            d="M966.64,549.29q.14,3.44.29,6.87c.77,1.34.54,2.79.44,4.22-4.59,2.24-8-.45-11.08-3.1-5-4.22-11-.94-16.31-2.54-1.18-.36-1.63,1.83-2.17,3-1.38,3-3.61,4.37-6.86,3.53a33.46,33.46,0,0,0-15.51-.11c-1.6-3.31,3.19-5.83,1.12-9.2,1.37-.8,2.55-1.18,4.09.06,4.22,3.39,6.52,2.32,7.33-3.45.45-3.18.62-6.38,2.64-9.06s4.21-4,6.52-.14c1.36,2.27,4.48,1.94,5.75,2.82,3.71,2.6,9.83-1.9,11.75,4.37.09.3.65.75.8.69,6.45-2.77,3.52,2.57,4.27,5.85C961.23,549.32,963.53,548.27,966.64,549.29Z"
            fill="#b04028" />
        <path
            d="M899,646.45c-.21,3.12,3.62,4.27,3.45,7.52-.24,4.54,2.21,9.19-3,13.16-2.76,2.1-2.85,6.8-2.7,10.71.1,2.59.83,5.34-1,7.69-2.84-.5-5.59-1.19-7.59-3.51-1.44-1.67-2.82-1-4.86-.79-10,1.27-7.81,8.61-8,14.87a13.31,13.31,0,0,1-1.7,7.73c-1.75,3.06-4.55,5.39-7.83,2.32s-6.47-2-10-1.24c-4.73,1.07-9.51-3.37-8.69-8.17.45-2.61.61-5.58,2-7.68,2.48-3.82,1-7-.26-10.49-.69-1.88-1.37-3-3.66-2.31-5.26,1.62-6.59-2.16-7.74-6a22.37,22.37,0,0,1-.14-2.86c-.38-2.34,1-5.06-1.39-6.93-.21-.17-1.36.32-1.35.49.08,3-3.35,5.13-2.13,8.47a11.49,11.49,0,0,0,2.09,4c6.32,7.11,6.85,15.54,5.46,24.44-.38,2.48-1.11,4.67-3.69,5.15s-3.55-1.71-4.64-3.52-2.19-3.57-3.29-5.35A4.78,4.78,0,0,1,827,692a69.88,69.88,0,0,0-2-8.06c-.42-1.27-1.39-2.81-1-3.81,3.67-8.54-2.32-14.57-5.2-21.41-.29-.69-.29-1.87-1-1.94-6.31-.63-9.77-6-14.8-8.73-2.23,2.84,1.81,5.12.69,7.85a7.66,7.66,0,0,1-.54,1.57c-1.89,4.87-2.21,10.37-5.82,14.51-1.83,2.1-3.51,4.64-6.94,2.92-5.83-4.94-6.25-14.13-1-21.59a24,24,0,0,1,2.33-3.23c3.5-3.5,5.24-6.92.7-11a8.11,8.11,0,0,1-2-4.09c-.45-2-1.37-4.39.87-5.72,1.71-1,3.54-.28,5.28.93,6.71,4.69,11.62,11.6,19,15.46,1.45.76,2.77,2.77,4.43,1.45,1.88-1.49.06-3.2-.81-4.49-1.72-2.57-3-5.61-.46-7.67s5,.21,6.84,2.33c2.25,2.57,6.56,3.6,6,8.32-.08.68,1,1.27,1.74.71,1.5-1.11,3.22-2.11,3.34-4.33.4-7,.4-7.05,7.41-4.81,3,1,5.62.58,7.79-1.85-.13-2.54-1-4.62-3.44-5.77-3.27-2.19-6.91-.56-10.34-1-4.22-3-8.38.42-12.57.11-2.6.35-5.12-1-5.63-3-1.57-6.13-6.84-8.88-10.53-13,.17-1.65-.68-3.89,1.11-4.71,2.05-.94,2.51,1.52,3.63,2.63,7.5,7.46,15.59,13.61,27,13.47,5.07-.07,9.34,3.89,14.78,3.4a7,7,0,0,0,5.06-2.62c5.77.8,9.78,6.55,16.12,5.77,1.48-.18,3.18.31,4.37-.79,3.74-3.47,7.91-2.9,12.21-1.55,2,.62,3.77,1.13,6,.24,3.84-1.56,5.1.7,5,4.25a1.59,1.59,0,0,1-.17,1.58c-2.88,3-7.52,5.19-4.05,10.66C900.7,645.36,899.5,645.94,899,646.45Z"
            fill="#3a7789" />
        <path
            d="M993.56,573.24c-.15,3.92.4,7.94-2,12.33-.06-6.78-5.54-11.15-4.68-18,.24-1.86-4.29-4.62-1.72-8.27,5.15-.06,3.78-4.1,4.28-7,.35-2,.55-4.9,2.78-.85C990.33,558.87,991.47,566.08,993.56,573.24Z"
            fill="#813a26" />
        <path
            d="M999.34,604.32c-.82,4-1,8.17-1.47,12.22-.73,6.07-3.16,11.92-4.87,17.87l-1.58-1.3a2.37,2.37,0,0,1-1-2.3c-.54-6,2.46-11.45,3-17.29,2-5.19,2.84-10.66,3.55-16.15l.86-.43C1001.61,598.68,999.32,601.75,999.34,604.32Z"
            fill="#904129" />
        <path
            d="M996.9,597.37c-.47.57-1,1.65-1.39,1.6-1.23-.16-1.06-1.4-.86-2.2,1.22-4.8,1.18-9.88,3.1-14.52,1.14-.22,1.73.13,1.43,1.4,0,3-.07,6.07-.11,9.1.24,2-.86,3.41-2.21,4.67Z"
            fill="#96462a" />
        <path
            d="M957,967.1c-1.09,1.28-1.67,2.39-4,1-6.68-3.81-8.39-9.82-8.45-16.86-1.3-.08-1,.82-1.07,1.36a8.82,8.82,0,0,1-.36,2.24c-1.58,3.14-4.66,3.39-6.35.3a39.7,39.7,0,0,1-3.31-8.48,3.47,3.47,0,0,1,2.43-4.54,6.39,6.39,0,0,0,4.44-3.14c1.21-2.09,2.93-2.09,4.79-.58.9.73,1.74,2.59,3.22.95,1.31-1.45.45-2.8-.6-4.06-2.07-2.48-4.3-4.86-4.67-8.33a2,2,0,0,0-1.86-1.87c-1.23-.08-1.41,1.09-1.93,1.83-.21.32-.35.68-.53,1-4,7.9-5.7,8.18-12.4,2.13-3-2.68-4.36-6.27-5.37-10-.86-3.12-1.72-7,3.84-4.18,2.82,1.43,2.86-5.41,6.26-1.78,1.65,1.76,3.09,4,5.7,4.58,3.21.73,5.62-.59,7.2-3.31,1.46-2.51,2.57-11.09,2.14-15.51-2.94,2.14-2.18,5.56-3.46,8s-1.22,7.12-5.79,6.5-7.28-3.64-7.47-8.55c-.08-2.29.07-3.95,3.11-4.3,6.16-.73,8.63-5.24,10.17-10.68-2.22-.78-2.72.71-3.19,1.85-1.8,4.31-4.21,6.13-8.62,2.9-2.77-2-5.3,2.15-8.39.75-.72-.32-.87,1.43-.31,2.26,1,1.4,2.13,2.67,3,4.1.79,1.24,3.69,2,1.67,4-1.56,1.57-3.76,2.83-6.07.71-2.08-1.91-4.21-3.77-6.31-5.65.2-3.5-.89-7.13,2.39-10.13,2.55-2.32,4.42-4.3,8.18-2,2.78,1.68,5.62.37,7.42-2.27,1.39-2,3.3-4.25,3.44-6.48.48-7.74,7.18-10.89,10.92-16.19,1.16-1.63,2.64-1.71,4.51-1.3,1.36.3,3,.56,3.89-1.36.51-1.12-.85-3.67,1.71-3.2s1.55,3.08,1.94,4.81c2,3.5,1,7.17.62,10.8-.07,5.08-.45,10.16.07,15.27-.49-4.84-.06-9.65-.08-14.47a134.52,134.52,0,0,1,3.07-20.94c.71-3,0-6.1-.53-9.13a29.51,29.51,0,0,1-.25-8c.14-1.33.22-3,1.61-3.43,1.68-.48,2,1.36,2.53,2.48.64,1.42,1.26,2.78,2.71,3.56a2.27,2.27,0,0,1,.83,1.58c.55,4.38-1,8.53-1.36,12.81-2,8.53-2,17.33-4.4,25.89-1.2,4.22,1.37,9.55,2.24,14.37-.12,4.3,1.84,9-2.29,12.55-2.66-1.12-2.32.56-2,2.2-1.21,4.43.39,9.66-3.75,13.25-2,.35-2.8-1.23-3.87-2.72,4.18,7.18,5.8,15.09,8.53,22.58,1.23,3.39,6,4.32,5.93,8.64-.66,4.6-.67,9.36-3.41,13.41-2.89,2.55-2.19,6.69-4.22,9.62l-1.14,0c-2.77-4.16-.57-8.51-1.15-12.35C957.64,962.84,959.4,965.76,957,967.1Z"
            fill="#571d0f" />
        <path
            d="M980.89,930.11c-.9,1.08-2.87-.16-3.46,1.61-6.06-9.87-1.64-20.48-2.09-30.74-.05-1.32.09-2.64.15-4.21-2,.06-1.4,2.58-2.92,2.74-4.73-12.06-4.78-15.31-1.19-37,1-6.18,1.66-12.43,2.47-18.65a6.16,6.16,0,0,0,1.59-4.71c.08-3.44-1.27-6.71-1.16-10.14.58-4.3,5.25-7.74,2.61-12.7-.92-4.88-2.82-9.77,1.72-14.11,1.29-1.24,1.06-3.54,1-5.45A477.65,477.65,0,0,0,985,749.15a8.47,8.47,0,0,1,.93-3.85c2.87-1.86,3,1,3.64,2.37,1.3,3.14,1.26,6.58,1.56,9.93a30.69,30.69,0,0,1-.65,11.33c-2.54,9.16-.78,19.18-4.51,28s-1.09,17.37-1.13,26c-2.26-.43-1.34-3.27-3.53-4.55,1,10.8-.85,21-1.76,31.2-.6,6.73-4.12,12.66-5.27,19.31s-1.17,13.53-1.82,20.29c-.07.71.22,2.09.47,2.12,6.54.82,4,6.48,5,10,1.19,3.93,2.16,8,1,12.38C977.31,919.32,976.93,925,980.89,930.11Z"
            fill="#662713" />
        <path
            d="M970,975.1l-2.2,0c.35-2.68,1.29-5.31.71-8.07a2.87,2.87,0,0,1-.75-2.66c3.9-11.69-.38-22.55-3.28-33.56-.56-1.93-1-3.86.31-5.68,0-1.29-.52-2.67.94-3.84,2,6.6,4.46,13,5.86,19.61.78,3.7,4.36,5.5,4.52,9.59C976.46,959.38,973.07,967.16,970,975.1Z"
            fill="#5f2519" />
        <path
            d="M964.8,925.11l1.2,5.45c-1.18,2.2.86,4.46-.13,6.66-3,2.72-2.87-.84-4-2-1.14-4.51-5.69-7.79-4.71-13.08,3.67-3.57.42-9.56,4.47-13,1.91,2.63,1.38,5.66,1.47,8.62C963.2,920.32,962.22,923.15,964.8,925.11Z"
            fill="#783c20" />
        <path
            d="M976.73,839.89c.48,2.37,0,4.08-2.88,3.93-2.49-1.77-1-4.93-2.39-7.11-1.92.52-1.5,2-1.49,3.33-.13.86-.49,1-1.08.32l.12.1c-3.45-5.66-5.5-11.67-4.58-18.43l1.08,0c5.27-1.22,7.13,1.26,7.71,6.33C973.68,832.27,973.47,836.69,976.73,839.89Z"
            fill="#672712" />
        <path
            d="M963.68,907q1.14-6.27,2.29-12.55c1.44,7.2,6,13.89,3.52,21.74-1.54-1.06-.86-4.12-3.62-4.1C964.2,910.79,965.46,908.23,963.68,907Z"
            fill="#783c20" />
        <path d="M965.87,912.08c5.7-2.66,2.58,2.59,3.62,4.1C966.28,916.61,967,913.52,965.87,912.08Z"
            fill="#571d0f" />
        <path
            d="M719,579.89c-.35.84-1.31,1.92-.34,2.57,3.55,2.37,3.26,5.88,3.09,9.66-6.78-.59-5-7-6.81-10.67-1.06-2.07,2.47-1.05,3.81-1.69Z"
            fill="#395968" />
        <path
            d="M948.37,373.36c-1.76,2.81,0,7.71-5.4,8.63-.81.14-1.15,4.48-1.32,6.91-.39,5.75-1.75,6.49-6.83,3.42-.8-.49-1.55-1.07-2.33-1.61-1.6-6.39-2-12.52,1.91-18.5,2-3,1.4-7,1.27-10.62-.12-3.39.68-6.32,4.63-6.47,3.64-.15,4.26,2.33,4.68,5.64C945.52,365,947.19,369.17,948.37,373.36Z"
            fill="#c63e25" />
        <path
            d="M964,348c2.22,9.25,4.32,18.52,6.77,27.7a10.64,10.64,0,0,1,.34,5.55c-.54,1.3-.51,3.16-2.72,2.89a18.28,18.28,0,0,0-2.76-.58l-.52-.23c-9-3.4-9.26-3.35-10.75-12.36-1.14-6.86-4-13.21-5.76-19.84-1-3.82-.63-5.24,1.93-7.36,2.36-1.95,3-3.84-1.26-3.83,4.06-2.68,9.18-1.3,13.34-3.56C966.3,339.87,963.28,344.17,964,348Z"
            fill="#533225" />
        <path
            d="M915.44,561.16c4.4-4.46,9.58-2.64,14.4-1.41,4.26,1.09,6.67.12,7.23-4.29.47-3.74,2.22-2.86,5.09-2.53,7.43.85,14.78,1.22,20.74,6.64.88.79,2.43.82,3.67,1.2,2.21,1.42,1.45,3.65,1.54,5.64-1.81,5.72-.68,11.66-1.18,15.61.15-3.8-.08-9.48.82-15.11,1.28-1-.37-4,2.57-3.82,4,9.15,2.95,18.91,3.51,28.48-2.62.18-2.67-1.93-3.14-3.22-.31,7.08,2.83,14.35,1.24,21.91l-2.16,17.25a2.93,2.93,0,0,1-2.75.61c-2.24-1.2-2.39-3.28-2-5.41,1.26-7.43,1-14.93,1.28-22.41-.14,7.77,0,15.56-1.59,23.23-.11,3.38-3.21,6.41-1,10.17.6,1-.84,3.35-1.75,3.07-4.69-1.42-4.25,9.37-10.27,4.19-1.62-1.39-3.86-1.36-5.85-1.85-1.42-.82-3-.09-4.43-.36a5.05,5.05,0,0,1-1.42-.69c-4.27-4.93-4.09-6.34,1.61-8.11,2.14-.67,3-2,3.89-3.66,2.36-1.28,3.86.79,6.61,1.82-6.58-7,3.65-9.65,2.61-15.57-2.18.92-3.34,3.44-5.84,3.83-2.88.45-4.9,0-5.28-3.26-3.67,3.06-7.14,6.27-12.31,5.95,1.11.2,1.8,1.35,3.08,1.27,5.16-.29,5.86,1.76,2.85,5.66-1,1.31.21,2.08.71,3-1.58,4.8-4.33,8.09-9.44,9.8s-6.64,1.46-9-3.82c-.07-1,.27-2.09-.26-2.82-3.31-4.6-4-8.92.77-13a2.33,2.33,0,0,0,.59-2.67c-2.52-4.83-.44-10.53-3.37-15.45-3.22-5.4.47-10,3.57-14,2.36-3,3.52-5.8,1.65-9.36-1.18-2.24-.58-4.39,0-6.65.45-1.62,2.17-4.12-.72-4.74-2.18-.46-5.6-1-6.61,1.83-2.26,6.23-7.21,10.17-11.26,14.9-2.64,3.09-1.7,7.38-3.26,10.83-.85,1.91-.3,5.59-4.36,4.28-1-10.95,4.46-19.78,11-27.14C910.17,567.84,911.54,563.36,915.44,561.16Z"
            fill="#8a3a24" />
        <path
            d="M896.31,598.14c2.88-.39,3.06-3.15,3.07-4.84.06-8.19,5.1-13.4,10.22-18.65,1.87-1.9,3.66-3.64,3.75-6.75.09-3.55,2.73-3,5.43-3,7.33.11,7.43,0,4.91,7.3-.31.9-1.17,2.2-.86,2.62,6,8.12-1.34,13-4.57,18.7-2,3.47-.32,6.38,1.09,9s2.44,4.63,1.13,7.38a1.39,1.39,0,0,0-.07,1.12c3.91,5.41,1.55,9.37-2.59,13.31-1.48,1.41.06,3.29,1.3,4.46,1.84,1.74,3,3.48,1.41,6-.93,1.78-2.7,2.88-3.66,4.63-1.33,2.31,1.32,5.28-1.2,7.4-5.31-.95-6.13-6.18-5.36-9.15,1.37-5.25-.69-9.76-.8-14.6,0-1.7-.92-3.54-.16-5.08,3.95-8,1.66-16.54,2.42-24.8.16-1.77.81-4.33-1.35-5-1.95-.65-2.73,1.74-3.46,3.16-3.62,7-9.14,13-10.83,21.13-.55,2.63-1.58,5.72-5.48,5.28C890.44,610.56,896.11,605.15,896.31,598.14Z"
            fill="#6d3325" />
        <path
            d="M890.65,617.68c1-.86,2.66-1.58,2.86-2.6,1.34-7,5.5-12.56,8.34-18.8,1.58-3.46,4.61-5.83,5.82-9.49.38-1.16,2.5-1.71,4.1-1.19,2,.62,1.7,2.44,1.53,3.86-1.12,9.48,2.4,19.38-2.67,28.52-1.23,2.21.24,4.65.86,6.61,1.86,5.9-1.1,12,1.14,17.74.7,1.78,1,3.77,3.42,4a1.07,1.07,0,0,1,1.47.09c.74,3.18.6,6.54,3.31,9.19,1.47,1.43,1,3.49-1.25,4.51-2.06.85-2.44,2.92-3.35,4.61a1.6,1.6,0,0,1-2.31,0c-.72-1.53-2.07-3.06-2.06-4.58,0-8.83-6.18-11.46-12.87-13.74.23-.71.86-1.85.63-2.07-7.12-6.73,1.66-7.34,3.93-10.42.33-.45.72-.86,1.08-1.29,2.1-2.75,1.6-5.6-1.4-8.06a1.44,1.44,0,0,1-1.52.16c-1.27-.58-2.66-1.09-1.77-3,.86-1.19,2.46-1.33,4.14-3.07-5.36,2.55-10,3.73-14.35.12C890,618.46,890.34,618.07,890.65,617.68Z"
            fill="#543429" />
        <path
            d="M889.73,618.84c5.81,2.32,11.32-1,17.59-1.74-1.31,4.6-4.87,4.06-7.28,5.29-1.46,1.32-3.08,1.09-5,.54,2.5.86,5,.41,7.21,1.56.34,0,.67.07,1,.12-3.84,3.9-7.82,2.2-11.66.11-1.42-.77-2.34-2.45-4.23-2.42C887,620.35,888.89,620,889.73,618.84Z"
            fill="#54747a" />
        <path
            d="M967.79,383.6c1.75.15,2.24-1.51,3.3-2.34.06,1.52.12,3.05.19,4.57a5.19,5.19,0,0,1,1.66,4.11c-.13,12.23,2.85,24.14,3.71,36.26.18,2.61.57,5.36-1.38,7.63l-1.15,1.39c-.13-2.65-.27-5.3-.41-8-1.59.31-.38,2.59-2.63,3-1.43-6.68-2.88-13.41-4.32-20.14C965.06,401.16,964.11,392.29,967.79,383.6Z"
            fill="#a2331f" />
        <path d="M970.78,310.7c1.41,3.66,3.6,7.19,2,11.56L965,305.59c3.87-.21,4.14,3.22,5.79,5.11Z"
            fill="#3e3126" />
        <path
            d="M797.79,728c-4.17,3.52-8.34,7.16-13.9,2.37-1.09-.94-1.84-.52-3,0-6.69,3-11.93.69-14.13-6.15-.81-2.52-1.6-5.05-2.4-7.57,3.07-5.92,7.54-10.68,12.54-14.92,2.06-1.76,3.88-.54,5.26,1.39,2.43,3.39,5.31,6.41,8.24,10,2-2.44,1.64-5.3,2.58-7.64,1.07-2.64,2.66-3.2,4.7-1.08C803.34,710.31,803.36,721.63,797.79,728Z"
            fill="#8d846e" />
        <path
            d="M797.79,728c5.35-7.53,2.23-14.88-.5-22.22-.33-.89-.88-1.75-2.06-1.54-1,.16-.84,1.07-1.08,1.76-1.12,3.25.49,8.61-3.19,9.4-2.86.61-3.7-5.14-6.54-7.09-.31-.21-.51-.59-.83-.79-2.15-1.35-2.16-5.59-4.48-5.37-3.18.31-5.23,3.7-7,6.28-2.19,3.23-5,5.65-7.78,8.23a48.35,48.35,0,0,0-5.53.5c-6.86,1.4-10.07-.4-12.76-7.38,3.47.41,6.77-.68,10.12-1.28,8.2-1.46,9.46-3,10.19-11.13.22-2.45.85-4.87,1.29-7.3,4.2,1.19,7.36-2.71,11.39-2.37a5.26,5.26,0,0,1,1.83,3.37c.92,3.52,3,5.47,6.73,5.51a9.83,9.83,0,0,1,5.61,2.24c2.25,1.57,5.1,1.51,7.46,2.78,1.8,1,2.45,2.8,3.14,4.57a11.33,11.33,0,0,1,.47,1.5c-.12,3.38,2.41,5.39,4,7.87a31.17,31.17,0,0,1-5,11.24C801,724.74,799.74,728.08,797.79,728Z"
            fill="#7d7662" />
        <path
            d="M803.31,726.75c-.06-4.54,2.75-7.94,4.61-11.72a3.47,3.47,0,0,1,1.48-2.43,4,4,0,0,1,4.28-.3c6.2,3.36,7.84,17.91,2.53,22.48a11,11,0,0,1-5,2.37c-6.17,1.31-5.57-3.72-6.8-7.08C803.35,729.18,803.5,727.91,803.31,726.75Z"
            fill="#8d846e" />
        <path
            d="M804.37,730.07c2.82,5.78,5.22,7,9.74,4.83s5.85-7.2,3.3-12.46a29.2,29.2,0,0,1-2.55-6.3c-.88-4-3-3.82-5.82-2.27-1-4.49,2.79-3.14,4.74-4a5,5,0,0,1,1.68,0c4.68,4.09,5.72,10.24,8.54,15.38-.3,2.8-3.24,4.87-2.22,8-3.27-1.29-4,2-5.74,3.34-2.14,1.69-3.72,4.78-7.07,3.41s-4.71-4.11-4.49-7.72A19.1,19.1,0,0,0,804.37,730.07Z"
            fill="#7d7662" />
        <path
            d="M712.34,641a17.65,17.65,0,0,0,8.82-1.88c3.12-1.58,3.71-.47,3.84,2.22a11.48,11.48,0,0,1-.92,6.15c-2.51,4.83-5.59,5.34-10.19,1.56C713.27,646.35,714.17,643.39,712.34,641Z"
            fill="#3b788b" />
        <path
            d="M763.18,676.23c3.5-3.09,7.29-5.91,10.39-9.36,2.22-2.46,3-1.85,4.53.42s3.1,4.51,1.68,6.8c-3.4,5.48-5.82,12.12-13.3,13.63-4,1.68-2.09-2.48-3.4-3.45,0-1.14,0-2.29-.05-3.44C761.86,679.26,761.75,677.72,763.18,676.23Z"
            fill="#417d8e" />
        <path
            d="M763.18,676.23l-.15,4.6c-5.42-.25-8.51,3.5-11.8,6.94-.92,1-.94,3.6-3,2.47-1.77-1-1.17-3-.57-4.65,1-2.69,1.86-5.39,2.79-8.09C754.71,677.34,759.05,677.81,763.18,676.23Z"
            fill="#7d7662" />
        <path
            d="M763.08,684.27c1.5.79.93,3.63,3.4,3.45l-.06,1.18c-1.48-.24-2.92,1.75-4.27.42C760.19,687.38,763.77,686.17,763.08,684.27Z"
            fill="#7d7662" />
        <path
            d="M828.31,691.85c0,.77,0,1.54,0,2.31-6.76,2.92-7,8.83-6.73,15-2.31.23-4.69.07-6.81,1.29h0c-4.39.77-9,2.46-11.45-3.43l.16-.24c1.38-1.79,1.38-1.79,4.85.08,4.9-.05,4.18-4.14,5-7.08a14.64,14.64,0,0,1,.44-2.36c2.27-9.43,6-18.75,1.94-28.42-.57.56-.78,1.79-1.61,2.6a6.09,6.09,0,0,1-2.66,1.74c-3,1.57-6.17-3-9.19.15-2.29,1.67-3.54,5.46-7.49,3.71-1.17-2.35.88-3.41,2-4.73,2.91-3.49,5.79-6.88,4.53-12-.38-1.56.85-2.79,1.6-4.07h0c2-3.73-1.46-6.81-1.22-10.34a5.15,5.15,0,0,1,5,2.1c3,3.88,6.46,6.91,11.71,6.67,1.38-.07,1.72.61,1.64,1.62-.37,4.53,2.27,7.45,5.28,10.17a5.19,5.19,0,0,1,1.35,6.25,16.29,16.29,0,0,0-.66,11C827,686.43,825.5,689.76,828.31,691.85Z"
            fill="#366a78" />
        <path
            d="M814.79,710.41c1.83-2.75,3.84-4.61,6.81-1.29.8,3.12,2.68,5.62,4.62,8.08-1.81,2.39-1,5.5-2.22,8.06C819,721.5,819,714.64,814.79,710.41Z"
            fill="#7a7460" />
        <path
            d="M875.71,730.65c4.68,2.87,5.56,9.5,1.53,12.56-2.8,2.13-5,1.94-5.14-2.31Q873.9,735.79,875.71,730.65Z"
            fill="#25211b" />
        <path
            d="M795.05,677.14c3.26-.08,4.22-3.59,6.83-4.65,3.89-1.15,4.11,2.31,3.25,3.79-3.51,6-.63,13-3.73,19.11-2,4-3.7,6.54-8.42,4.76-1.58-.59-2.66-2-4.51-2.26-8.27-1.25-8.62-1.72-9.41-10.22l11.41-10.5C792,676.24,793.52,676.91,795.05,677.14Z"
            fill="#3a7789" />
        <path
            d="M809.15,634.46c-4.56.88-6.39-2.39-7.24-6.41A10.35,10.35,0,0,1,806,617c2.27-1.67,3.52.59,4.36,2.14,1.59,2.92,2.46,6,5.14,8.53S814.39,634.36,809.15,634.46Z"
            fill="#3a7789" />
        <path
            d="M825.58,628.61c.71-.22,1.63-.22,2.08-.69,3.76-3.87,7.2-3.38,10.49.58-1.14,5.67-5.86,5.29-9.76,5.23C826,633.7,823.51,632,825.58,628.61Z"
            fill="#365f6b" />
        <path
            d="M848.49,629.52c5.51-.71,6.24,1.46,3.44,5.77-2.7.32-5.25-.46-7.84-1-1.82-.4-3.61-.86-3.32-3s2.3-1.5,3.73-1.61S847.16,629.54,848.49,629.52Z"
            fill="#365f6b" />
        <path
            d="M795.05,677.14c-1.51,2.11-3,.6-4.58,0v-2.29c7.24-1.68,8.54-7.89,10.06-13.74.49-1.85.25-3.83,2.37-4.77C804.64,665,799.56,670.94,795.05,677.14Z"
            fill="#356c7b" />
        <path
            d="M950.55,849.74c-1.35,0-2.55.13-3.42,1.51-1.12,1.79-2.54,4-4.6,1-1.52-2.2-2-5.42.73-6.45,5-1.89,4.74-6.52,6.58-10.41,1.48,1.72.44,3.73,1,5.42C952.18,843.85,952.62,846.83,950.55,849.74Z"
            fill="#571d0f" />
        <path
            d="M950.55,849.74q.12-4.46.25-8.89c4.5,1.7.73,6.52,3.32,8.94a2.47,2.47,0,0,1,.27,3.37c-.6,2.36.69,4.89-.7,7.56C949.49,857.8,951.6,853.29,950.55,849.74Z"
            fill="#662512" />
        <path
            d="M949.51,772.29c1.13,6.35,3.34,12.5,2.23,19.06C947.45,785.46,947.89,778.92,949.51,772.29Z"
            fill="#662512" />
        <path
            d="M952.27,756.24A37.59,37.59,0,0,1,954,772.62C951.17,767.45,951.41,761.89,952.27,756.24Z"
            fill="#662512" />
        <path d="M955.37,805.35c-2.16-6.19-.52-12.51.37-18.82q.62,9.32,1.22,18.62Z"
            fill="#662512" />
        <path
            d="M954.39,853.16l-.27-3.37c1.25-1.36,2.61-2.56,2.34-4.77-.23-1.9,1.1-1.43,2.18-1.08l.21,8A3.64,3.64,0,0,1,954.39,853.16Z"
            fill="#571d0f" />
        <path
            d="M994.54,750.33c-3.4-4.48-3-9.75-2.74-14.86.2-3.59.76-7.12-.63-10.58,3.54-11.34-1.25-23.83,5.23-35.06,2.76,5.45.36,11.2,1.19,16.63-1.24,9.37-2.63,18.78-1.68,28.21A38.93,38.93,0,0,1,994.54,750.33Z"
            fill="#712d19" />
        <path
            d="M919.58,660.11c.49-1.5,2.14-3.15-.14-4.41-4.17-2.32-3.05-5.84-2.33-9.33,5.91-2,14.16,2,15.63,7.91.58,2.33,2,2.53,3.79,2.37,2.64-.25,5.28-.57,7.92-.83,3-.3,4.64,1.65,5.22,4.21.65,2.86-1.62,2.41-3.49,3-4.16,1.24-3.45,5.15-3.63,8.44-.31,2.14,3.18,4.88-.38,6.32s-7.75-1.77-10-7.93c-1.14,5.12-6,8.94,1.44,12.13,1.5.64,2.19,3.78.82,5.53-2.12,2.71-3.23-1-5.42-1.45-1.3,10.21,7.15,2.86,9.83,6.1-.59,1.66-1.17,3.83-3.91,2.44-1.18-.6-2.11-1.09-2.94-.05-2.33,3-3.51.67-4.48-1-1.89-3.32-5.2-4.89-8-7-1.76-1.33-3.28-2.67-3.11-5.08.15-2.21-1-4.89,1.07-6.5,2.39-1.86,4,1.17,6.13,1.65,1.2-2-3.33-6.24,2.69-6.71,1.42-.11-.5-2.09-1.09-2.86C923.38,664.62,919.89,663.69,919.58,660.11Z"
            fill="#80371f" />
        <path
            d="M942.55,671.44c-5.54-4,1.5-7.14,1.17-11-.14,0,.21-.21.47-.13,1.47.46,2.53,2.77,4.45,1.14.66-.57.14-1.4-.34-2-1.14-1.41-1.79-3.23-4.46-2.24a22,22,0,0,1-7.25,1c-3.05,0-6.59.09-5.14-4.83.39-1.34.22-2.55-1.09-2.74-4.68-.65-8.11-5.15-13.25-4.29l-1.06,0c-.19-2.69-2.69-5.37,0-8.08,3,1.16,5.9,2.79,9.33,2.94,2.4.11,3.81.83,5.57-2.43,1.91-3.52,6.68-1.41,10.25-.68h0c4.07,5,4,4.89-2,6.32a29.28,29.28,0,0,0-6.52,1.93c3.58,1.41,2.51,5.42,4.32,7.84,2-1.71.14-2.79-.44-4-.94-2-1-3.69,1.08-4.95s4.32-1.3,5.44.94c2.37,4.73,6.48,5.07,10.59,4.22,3.94-.81,5.7.83,6.93,4,.69,2.88-.22,5.53-1.12,8.18-2.45,2.36-6.28,3.28-7.34,7.1a10.72,10.72,0,0,1-.81,1.35c-1.12,1.18-2.25,2.34-4.11,1.5Z"
            fill="#8a3a24" />
        <path
            d="M950.59,669.12c1.93-3,3.12-7,8-5.88,1.09,0,1.83.19,1.92-1.57.29-5.74-.27-11.59,1.66-17.19,3.72-2.72,5.58-.92,6.66,2.76-2.94,12.17-3.22,24.65-4.32,37-.79-5.13-1-5.44-3.8-5.7-2.25-.44-1.88-2.36-2.15-3.77-.21,1.84.79,4-1,5.73-3.49-2.64-10.06-1.19-10.42-8l3.46-2.35c2.23-.67,1.57,2.14,3,2.51C953.34,670.85,952,670,950.59,669.12Z"
            fill="#80371f" />
        <path
            d="M913.92,664.77l2.31,0a5,5,0,0,1,4.15,1.34c1.11,1.17,2,2.42,1,4-1.28,2-2.37.66-3.65-.21-.69-.47-1.78-.34-2.7-.49C912.65,668.34,912.67,666.71,913.92,664.77Z"
            fill="#80371f" />
        <path
            d="M969.65,811.82c6,.82,5.06,5.13,4.61,9.29-3.81-1.38-1.36-7.1-5.59-8.1-.92-.49-1.65-1.53-1-2.21C968.67,809.79,968.83,811.72,969.65,811.82Z"
            fill="#7c3623" />
        <path
            d="M984.75,644.61l-2.34-7c.41-3.13-2.45-5.79-1.28-9,2.68-.71,3.66,1.56,5.15,2.95,1.47,2,3.46,3.69,4,6.32,1.48,5.9.39,11.41-1.68,17.06-3.11,8.45-3.12,17.48-3.72,26.37-1.18,3.76-2.37,7.52-3.87,12.28-3.1-10.41-4.11-19.83-1.42-29.47a39,39,0,0,0,1.87-11.25C987.51,652.14,985.11,648,984.75,644.61Z"
            fill="#80361f" />
        <path
            d="M985.56,632l-4.43-3.47c3.78-14.79-.55-30.69,5.67-45.19,1.65,3.14.81,6.3.82,9.42-1.32,3.64.94,6.36,2.38,9.3l-2,20.73C986.34,625.68,988.56,629.56,985.56,632Z"
            fill="#9d4828" />
        <path
            d="M975.8,503.13c-.26,3.62-.53,7.17,3.3,9.44,1.65,1,.54,2.71.49,4.14-.12,3.58-.15,7.16-.2,10.73,0,2.27.64,4.11,3.1,4.74-1.81,7.21,1.25,14.67-1.68,22-.09-16.94-6.69-32.89-6.53-49.82.12-1.6.24-3.21.38-5C976,500.51,975.41,502,975.8,503.13Z"
            fill="#c7492f" />
        <path
            d="M980.31,643.52a13,13,0,0,1-1.17,7.11c-3.68,2.81-3.27-.28-3.5-2.45-2.35-3.74-.94-7.67-.47-10.67-5.8-1.22-5.58-6.68-7.88-10l2.48,0c.55,1.75.36,3.84,2.67,5.39.68-2.17,1.3-4.17,2.26-7.29C976.8,632.3,978.56,637.91,980.31,643.52Z"
            fill="#904329" />
        <path
            d="M977.47,587.08c2.16,12.4,4.1,23.92.71,35.9C975.8,620.37,975.34,594.94,977.47,587.08Z"
            fill="#9d5035" />
        <path d="M979.71,563c2.9,4.37,1.43,8-1.23,11.58C978.88,570.8,979.27,567.07,979.71,563Z"
            fill="#8e5849" />
        <path d="M801.68,646c3.2,3.12,4,6.52,1.22,10.34C803.62,652.78,798,650,801.68,646Z"
            fill="#356c7b" />
        <path d="M828.31,691.85c-6-1.15-2.24-5.16-2.33-8A17.38,17.38,0,0,1,828.31,691.85Z"
            fill="#356c7b" />
        <path
            d="M984.87,695.27l.09-1.14a122.49,122.49,0,0,0,6.45-29.74c.72-7.39,4-14.53,6.87-21.64,2.37,23-7.31,44.27-9.87,66.64-1.77-.27-1.21-2.57-3.2-3.22a133.08,133.08,0,0,0,2.59,21.28c-.47,2.17.32,4.65-1.94,6.78a10.09,10.09,0,0,1-2-4.79C981.31,718,982.16,706.59,984.87,695.27Z"
            fill="#76311c" />
        <path d="M959.07,875c.35,0,.69,0,1,0l.12,16.35C957.4,886,958.4,880.51,959.07,875Z"
            fill="#571d0f" />
        <path
            d="M937.65,629c-4.13-.05-5.08-1.11-1.36-4,.89-.69,2.59-1.56,1.38-3.18-.9-1.2-1.93-.36-3,.2-4.73,2.55-2-5.27-4.41-4.13,1.81.86,4.49-.31,7.1-1.73,2.83-1.54,5.16-3.72,7.9-7.21-.24,4-1.46,8,4,6.06,2.94-1,3.25-5.29,7.13-5.3,1,4.51-.7,8.26-3.71,11-2.52,2.32-2.87,3.84,0,5.6,1.25.76,2.61,1.32,1.34,2.89-1,1.19-2.45.83-3.66.11-1.59-1-2.62-2.86-4.81-2.77C942.8,626.77,940.77,629.69,937.65,629Z"
            fill="#a84d25" />
        <path
            d="M968.82,647.24c-1.85-1.11-2.9-4.38-6-2.24-.91,1.33-.05,3.65-2.31,4.25-6.26,0-14.82-6-15.9-11.16,3,0,6.12-.75,8.48,2.07.75.89,2,1.55,3,.85,1.53-1,.81-2.27,0-3.43-.52-.75-1.43-1.58-.48-2.47s2.11-.26,3.05.44c2.26,1.67,4.7,0,3.78-1.51-2.36-3.83.79-6.82.37-10.17.14,6,4.89,10.21,6.2,15.83C969.71,642.38,970.23,644.76,968.82,647.24Z"
            fill="#a74d23" />
        <path
            d="M944.65,638.09c4.28,5.07,9.31,9,16,10.23,1.58,2.3.33,4-1.13,5.72-1.66-2.12-2.87-4-6.28-1.71-2.66,1.82-8.83-1.82-10.7-5.27-.52-1-1.46-2-2.72-1.67a4.92,4.92,0,0,0-2.76,1.76c-.82,1.34.1,2.77,1.26,3.41,3.42,1.87,1.76,3.38-.14,5a2.69,2.69,0,0,1-3.14.6c-1.69-.85.08-2-.11-2.62-.87-2.83-.36-7-6.14-6.23,4.62-3.79,9.27-3.91,14.08-4.16-.06-1.88-2.37-3-1.7-5C942.32,638.43,943.49,636.71,944.65,638.09Z"
            fill="#80371f" />
        <path
            d="M937.65,629c2.5-1.37,4.63-3.94,8-2.4.24,1.92,1.41,4-2,4.61-6.7,1.31-6.66,1.49-2.48,6.9-2.15.25-4.09,1.6-6.52.42-1.6-.78-4.25-1-2.68,2.39,1,2.15-1,2.76-1.66,2.51-4.76-1.73-11,.69-14.29-5.15.81-2.08,2.89-2.48,4.52-3.48,1.38,4,3.46,5.89,7.28,2.47a5.52,5.52,0,0,1,3.56-1.4c2.19-.13,4.13-.07,2.66-3.6C933,629.65,937,630.71,937.65,629Z"
            fill="#80371f" />
        <path d="M902.23,624.49c-7.44,0-8.11-.16-11.19-4,3.39,1,6.08,2.3,9,1.87Z" fill="#455259" />
        <path
            d="M905.76,611.9c1.35.15,2.63.51,2.63,2.23,0,.94-.87,1.13-1.63,1.16-1.43.06-2.77-.37-3-1.92C903.59,612.16,904.78,612,905.76,611.9Z"
            fill="#566f75" />
        <path
            d="M807.86,708.13c-1.58-.1-2.22-3.27-4.41-1.38-1.83-.88-1.38-3-2.42-4.38-.88-3.31.24-6.45,1.34-9.38,1.92-5.12,4.24-10,4-15.73-.14-3,2.36-4,4.69-4.83l2.26-1.18c2.94-1.37,3.24.85,3.38,2.73.39,5.32,3.86,10.82-2,15.71-2,1.64,1.73,5.27-.06,8V700a48.28,48.28,0,0,0-2.65,5.7C811.2,707.44,810.46,709.43,807.86,708.13Z"
            fill="#3a7789" />
        <path
            d="M811,672.43c-1.21,1.55-3.71,2.21-3.39,4.83,1.14,9.27-5,16.59-6.62,25.11-2.81-.25-5.61-.58-8-2.22,3.92.25,6.24-1,6.92-5.46.64-4.18,4.5-8.06.52-12.52-.15-.17,1.52-1.91,2.24-3,1.62-2.44,3.38-4.93-.78-6.7.27-2.42,1.67-2.54,3.48-1.69S808.92,672.66,811,672.43Z"
            fill="#356c7b" />
        <path
            d="M803.29,707c3.12,3.5,7.18,3.8,11.45,3.43-1.22,2.28-5.41-.4-5.7,3.45L807.92,715C803,714.31,803.2,710.62,803.29,707Z"
            fill="#7a7460" />
        <path
            d="M814.64,697.71a9.61,9.61,0,0,0-1.29-4.9c-1.09-2.33-2.28-4.78,1.72-5.61a2.39,2.39,0,0,0,1.34-.94c1.43-2.06-.85-12.9-3.11-15,2-1.66-.19-6.57,3.49-6,2.22.36.69,4.36,1.09,6.68s.86,4.84,1.18,7.27C820,686,815.75,691.47,814.64,697.71Z"
            fill="#356c7b" />
        <path
            d="M807.86,708.13c5-.41,2.86-6.83,6.8-8.13.3,2.79-1.24,5-2.45,7.23C811.24,709,809.79,710.15,807.86,708.13Z"
            fill="#356c7b" />
        <path
            d="M974.54,697.62c.62-3.34,1.23-6.68,1.82-9.89,2.46,12.53,1,25.57,3.3,38.28.36,2,.8,4.08,1.21,6.12.17,1.12,0,2.76.6,3.27,3.89,3,2.08,6.74,1.51,10.32l-2,1.22c-.69-14.18-9.78-26.58-8.65-41.15C971.62,702.67,973,700.12,974.54,697.62Z"
            fill="#83371d" />
        <path
            d="M975.72,659.68c-1,10.72-1.11,21.55-3.4,32.14-.88,1.49,1.27,4.36-2.12,4.71-3.26-5.33-.09-10.75-.15-16.12-.07-7-.95-14.1,2.27-20.74A2.45,2.45,0,0,1,975.72,659.68Z"
            fill="#8a4126" />
        <path d="M972.38,655.26c2-1.65,3.5-1.47,4.52,1-.4,1.13-.79,2.25-1.18,3.38h-3.4Z"
            fill="#7f3623" />
        <path
            d="M950.59,669.12c1.36,0,2.72-.11,3.47,1.36s2.71,2.42,1.81,4.47a1.55,1.55,0,0,1-1.41.47c-1.69-.67-3.91-1-3.09-3.83.1-.35-.5-.91-.78-1.37C950.58,669.85,950.58,669.48,950.59,669.12Z"
            fill="#752e19" />
    </g>
    <g id="frame">
        <rect width="1000" height="1000" fill="none" />
    </g>
</svg>