<!-- Copyright (c) 2023 Jan Stehno -->
<svg xmlns="http://www.w3.org/2000/svg" viewBox="0 0 1000 1000">
    <title>coyote</title>
    <g id="coyote">
        <path
            d="M678.8,831.72c-9-2.25-17.8-4.93-25.46-10.38,4-2.82,7.7-1.38,12,.88-.77-7.83,1.75-15.3-.23-22.85,3-6.83,10.19-5.06,15.31-6.21,3.94-.89,6-1.3,6.77-5.24.48-2.4,3.68-3.93,2.39-7-1.28-2.79-1.54-6.16,1.53-7.14,5.59-1.8,3.08-4.15,1.23-6.79-1.38-1.72-2.64-3.5-2.43-5.87,1.5-3.76,3.35-1.39,5.14-.3a11,11,0,0,1,1.3,1.35c.72.72,1.73,2.73,1.83,2.27,1.24-5.57,4.71-2.61,7.22,1.37,1.14,1.82,1.73,3.91,2.89,5.72-1.68-7-8.43-11.64-9-19.14,3.9-8-.92-14.9-4.53-20.72-6.48-10.44-11.23-22.13-20.59-30.78-2.72-2.51-6.08-5.57-2.95-10.09,1-.8,2.68.35,3.35-1.25,0-2.9-1.08-5.53-1.74-8.26a13.25,13.25,0,0,1-.46-1.75c0-3.58-1.62-7.28.59-10.71,1.76-2.73,3.48-5.48,7.46-5.35,1.68,0,3.87-.17,4.12-2.32s-2.06-2.43-3.49-3.26c-2.62-1.51-6.72-2-4.74-6.71,2.27-1.44,4.92-1.46,7.43-2,1.87-.3,3.72.52,5.59.13a3.16,3.16,0,0,0,1-.76c5.17-7.23,5.9-7.37,14-2.68-1.2,7.69,3.25,17.38-8,21.55-2.09.77-2.92,3.17-3.61,5.29-.47,1.44-.58,3.6-2,3.92-6.59,1.46-3.05,4-.68,6.06,2.59,2.25,4,5.07,5.48,8,2.48,5,5.63,9.59,11.82,10.34,3.92.48,7.75.15,7.87-5.3a2.15,2.15,0,0,1,1.85-2.33c3.15.72,5.51,2.92,7.48,5.06a164.08,164.08,0,0,0,18.93,17.87c3.68,2.92,5.28,7.4,6.32,11.89,1.45,6.28,4,11.87,9.05,16.14,1,2.38-.07,4.91.5,7.33a8,8,0,0,1-.11,1.83c-.59,2-1.64,3.86-1.81,6.08-.68,8.32.13,9.47,8.49,11,3.48,1.88,3.79,4.66,1.69,7.57a7.94,7.94,0,0,0-1.3,7.9c.34,3,1.55,6.91-1.45,8.37-3.41,1.67-6.34-1.66-9.1-3.63a5.58,5.58,0,0,1-2.46-3.74A80.49,80.49,0,0,0,746.53,763c2.65-3.49,2.65-6.52-.56-10s-1.67-8.89-4.66-12.75c.88,4.09,1.76,8-4.08,9-1.41.25-1.8,1.77-1.82,3.16a5.53,5.53,0,0,0,.22,2c2.24,6.14-6.3,8.06-5.52,12.9.81,5.11-.23,8.36-3,12.92-3.07,5-7.61,8-11.23,12-5.19,5.81-6,14-11.59,19.4-4.18,4-6.67,10-14.59,8.6-3.38-.61-6.95,2.3-10.23,3.9,2.18,2.32,4.9,4.16,6.73,6.89C684.22,836.41,681.35,832.45,678.8,831.72Z"
            fill="#362e24" />
        <path
            d="M803.62,599.39C811,605.5,820,609.48,827.1,616c2.76,2.53,6.48-.33,9.31,1.72,1.21.55,2.05,1.32,1.76,2.8a20.74,20.74,0,0,0,8.44,10.57c1.46.95,3,1.46,3.38,3.57,1.64,9.94,8.91,14.85,17.41,18.26,2.8,1.13,6,1,7.42,4.45.74,1.78,2.55,2.16,4.42,2.23,6.82.22,13.31,2.19,19.88,3.7,4.91,3.23,10.85,4.52,15.11,9.21,3.1,3.41,8.09,2.3,12.36,1.59,5.68-1,9.77.73,11.86,6.28.94,3.09-2.41,4.19-3.09,6.58,1.82-.75,3.44-2,5.46-2,1.58,0,3.67.35,2.65,2.48-2,4.07.46,3.44,2.83,2.94,7.86-1.64,9.13-.4,7.05,7,3.09.37,6.12.62,9-1,1.79-1,3.71-1.44,5.52.16a313.46,313.46,0,0,1,5.42,38.66c.41,5.36,2.4,10.8.35,16.17-.79,2.07-1,6.05-5.06,2.89A52,52,0,0,1,962,740.63c-2.14-9.45-3.33-19.17-7.83-28-.52-1-.37-3.72-2.67-1.27-5.83,1.27-11.78,3.21-15.54-3.85-.77-1.45-2.55-1.59-4-2-3.56-1.13-5.13-3.6-5.63-7.26A16.8,16.8,0,0,0,907.14,684a17.7,17.7,0,0,1-8.43-.65c-3.77-1.26-7.71-2.39-11.66-1.31-8.38,2.3-13.66-2.2-19.78-6.94-5.52-4.28-11.52-8-16.81-12.66-1.93-1.72-5.08-1-7.7-1.21-5.61-.55-6-1.23-4.35-7.53-3.9.25-5.6,3.2-7.88,5.36-3.76,3.56-7.78,6.63-13.48,4.78-2.09-.67-4.47-1.39-4.87-3.89-.46-2.85,1.72-4.3,3.92-5.43,2.93-1.5,6.35-2,9-4,2-1.47,3.67-3.3-.42-4.26-5-1.15-4.15-4.07-1.69-6.61,3.36-3.47,3.6-5.41-1.75-6.12-2.42-.32-3.45-1.73-4.55-4-2.85-5.82-6.74-10.73-14.44-10.06-3.5.31-6.37-1.38-9.06-3.39-5.9-4.41-11.91-4-17.79-.13-3.3,2.18-6.83,3.94-10.09,6.21-6,4.21-10.84,2.27-13-4.83a14.46,14.46,0,0,1-.57-6.48c1.3-7.9-2-13.52-8.59-17.58-5.22-7.1-5.38-10.29-.79-15.67,3-.69,3.6,1.56,4.45,3.6,3.56,8.55,9.24,13.48,19.31,13.89,8.94.36,17.46,3.82,25.86,7,3.72,1.4,7.16,2.35,9.91-1.59A12.82,12.82,0,0,1,803.62,599.39Z"
            fill="#2e2821" />
        <path
            d="M464.47,756.69c9.11-9.35,19.22-17.27,31.16-22.91,6.81-3.22,11.3-9.52,17-14.28,7.95-6.68,15.66-13.64,23.47-20.48,3-1.83,4.14-4.86,5.27-7.91v0a22,22,0,0,0,2.47-3.06c1.53-2,3.18-3.71,6.05-2.68,2.61.93,5.26,2.5,5.26,5.28a24.92,24.92,0,0,0,5,14.84c-1.69,2.88-4.9.93-7.14,2.06,2.38,8.53,2.35,8.69-5.38,12.4a4.88,4.88,0,0,0-3,3.24c-1.21,5.17-4.86,7.59-9.72,8.59-3.86.79-6.19,2.73-6.84,6.84s-3.19,6-7.57,5.16c-3.32-.65-6.55.24-9.78.94-4,.84-6.29,2.91-6.12,7.2.16,3.89,1.27,6.9,5.9,7.15.86.05.18-.53.61,0,4,5.43,9.88,4.19,15.68,3.8-.78-3.24-1.43-6.66,2-9.71,6.3-5.53,13-5.13,19,2,1.18,1.41,1.32,3,3.68,1.45,2.07-1.37,3.39.31,4.93,1.78,3.66,3.48,6.9,2.56,8.59-2.08,2.08-5.71,4.2-6.68,10-4.5,1.23.46,2.33,1.31,3.69,1.35,3.51.1,4.4-2.41,4.81-5.12.47-3.07-1.31-3.56-4-3.48-5.36.16-10.19-1.12-13.12-6.21,3.18-3.71,9.48-1.91,12.12-6.79.44-.82,2.41-.55,2.79.57,1.39,4.22,6.83,1.85,8.82,5.68.93,1.8,3.71.15,5.12-1.2,3.56-3.38,7.9-5.36,12.14-7.67,4.81-2.6,9.15-5.93,8.06-12.73-.38-2.41.44-5.31,4-5.69,5.2,8.56.11,15.77-3.88,23.78a109.67,109.67,0,0,0,16.12-1.43c6.35-1,10.63.46,14.17,5.53,1.84,2.63,3.23,6.62,7.61,1.72,2-2.23,3.59.7,3.87,3.12-.5,4.08.69,8.87-6,9.68a7.83,7.83,0,0,1-7.9-3.3c-4.58-5.88-11.93-5.85-18-8.41-1.53-.65-2.87.49-4.06,1.58-8.77,8-19.41,12.62-30.82,15-4.94,1-6.31,4.9-9.39,7.37-7.06.14-12.79,3.84-18.76,6.9a21.1,21.1,0,0,0-14.06,3.69c-5.34,3.48-12.66,5.15-19.08,7.71-2.67,1.06-4.52-1-6.23-2.73-2.27-2.27-4.71-4.17-8.12-2.74-3.6,1.5-6.32.27-8.94-2.14-3.78-3.48-8.51-5.35-13.21-7.16-6.43-2.47-7.39-1.94-10.08,4.79a5.84,5.84,0,0,1-1.72,2.1c-3.27,1.61-4.92,4.91-7.56,7.19a3.13,3.13,0,0,1-1.67.71,3.23,3.23,0,0,1-1.62-.83c-3.74-4-2.28-6.5,2.06-9.09,6.78-4,9.51-13.91,6.13-20.58-1.33-2.61-2.91-.69-4.28.12C471.06,754.89,468.94,758.9,464.47,756.69Z"
            fill="#6a482d" />
        <path
            d="M665.72,798.78c4.67,8.89-.29,17.73.44,26.91-3.35-5.59-8.52-3.69-12.82-4.35-20.53-6-41.85-5.51-62.85-7-19.4-1.39-39-1.23-58.25,2.93-7.23.78-14.47,1.56-21.47-1.31l0,0a5.43,5.43,0,0,1-.95-.9c-5.68-8.74-5.51-9,4.31-11,11.57-2.27,23.56-1.51,35-4.88a6,6,0,0,1,1.86.4c6,1.7,11.76-.73,17.63-1.32,10-1,20.2-5.08,29.91,1.31,3.29,2.16,6.28.77,9.24-.83,4.53-4.44,9.37-3.58,14.32-.81,5.61.5,11.11,3,16.87-.07,2-1,4.08.73,5.48,2.54,1.93,3,3.89,5.8,8.28,5.23,2.15-.29,3.77,1,4.33,3.22-.21-.85.41.29.3,0-2.8-6.64.85-9.76,6.4-11.91A2.2,2.2,0,0,1,665.72,798.78Z"
            fill="#30291d" />
        <path
            d="M833.75,941.69c-3.53,8.51-5,17.6-7.32,27.51-1.16-10.34-2.19-19.59-3.25-29.05-2.31.94-1.49,3.19-2.56,4.42-9.11,3.5-9.14,3.53-15.5-3.48a16.38,16.38,0,0,0-5.44-3.54c-3.59-1.75-7-3.76-8.28-7.91-.33-1-.73-2.48-2-2.27-5.55.93-4.33-2.71-3.93-5.63.49-3.49-.74-4-4-3.33-6.37,1.39-15.71-4.76-17.09-11.29-1.07-5-2.61-10.14-.3-15.39,1.05-2.37.42-5.19,1.26-7.86-1.79.67-3.1,3.12-5.13,1.75-2.3-1.55-1.09-4-.66-6,.51-2.39,1.5-4.57,3.81-5.85,7.32-2.07,13.53,2.71,13.89,10.66.12,2.61-.82,5.3.09,7.82s2.06,5.25,3.25,7.9c2.93-.35,3.62-3,5.19-4.65s3.08-3,5.5-3.24c8.06-.85,10.27-2.69,11.52-11,.78-5.22,3.44-9.38,6.05-13.65,1-1.69,2.67-3.33,4.88-1.87,1.76,1.16,1.48,3.24.52,4.74-4.19,6.58-3.5,14.82-7.84,21.44-3,4.51,1.37,9.87-.93,15,3-.13,4.88-4.51,7.79-1.08,1.6,3.83-2,7.48-.6,11.19.58.38,1.05.51,1.44.25,8.52-5.58,9.44-5.15,10.23,5.14.2,2.58.84,3.86,3.55,2.2,1.67-1,3.43-1.89,5-3,2.43-1.68,3.54-.24,4.18,2-.61,3.8.2,7.56.27,11.35C836.62,937.41,835.84,939.9,833.75,941.69Z"
            fill="#5b4c36" />
        <path
            d="M742.48,578.19c-3.36,5.14-1.27,9.78,1.33,14.37-.15.17-.26.4-.44.49-13.18,6.52-13.19,6.52-19.51-7a8,8,0,0,0-3.15-4c-.33,2.37.95,4.71-.4,6.69-6.48,2.88-6.83,8.1-6.1,14.22.8,6.67-.72,7.88-7.68,7.65-1-.54-2-1.39-1.6-2.53,3-8.46,1.41-16.62-1.24-24.8-.8-2.45-.54-5.2-1.71-7.6-.63-1-1.32-2-2-3a5.3,5.3,0,0,1-.57-1.68,21.68,21.68,0,0,0-1.59-9.24c-.27-.53-.51-1.07-.75-1.6-5.37-5-5.9-11.5-4.7-17.82,2.63-13.86-.27-27.27-2.32-40.76-.66-4.32-.71-8.68-1.45-13-.26-1.49-.69-3.66,2.14-3.62,4.72,4.79,6.58,10.57,7.88,17.16,1.34,6.83,1,14.81,8.18,19.61,2.67,1.78,2,5,1.39,7.8.3,6.45,3.87,12.06,7.11,16.83,5.49,8.07,10.43,17,20,22C738.74,570,741.12,574.14,742.48,578.19Z"
            fill="#34271c" />
        <path
            d="M763.64,875c-3,2.72-2.78,6.33-3.32,9.82,3.8.58,3.54-6,6.89-3.61,1.85,1.31-1.9,4.23-1,6.91,1.4,4-2,7.15-1.93,11.24,0,8.29,5.73,12.71,10.36,17.86,2.3,2.57,5.91.32,7.85-.79,6-3.45,5,.64,4.88,3.84a52.28,52.28,0,0,1-1.28,6.73c4-3.46,6.53-4,6.76,1.88.19,4.74,4.91,5.61,8.1,7.65,1,.66,3.29.47,3.55,1.18,3,8,9.3,7.89,16.07,6.91-.49,3.5-1,7-1.46,10.49-1.53,2.45-3.25,4.41-6.51,2.62v0c-1.11-3.38-4.78-.62-6.45-2.64l-.59-1.83c-.65.68-1.3,1.35-1.94,2-3.22,1.5-4.16-.74-4.17-3,0-5.56-3.15-6.59-7.9-6.22-3.86.31-7-.65-9.41-4.45-2.94-4.56-8.67-5.93-13.46-7.2-7.65-2-13.27-5.33-15.56-13.15-.46-1.59-.4-3.89-2.65-4-2-.12-1.77,2.11-2.41,3.39-.88,1.75-2.64,3.24-4.14,1.94-3-2.6-5.64-2.78-9.07-1.15-1.31.62-2.26-.89-2.39-2.37-.33-3.77-2.66-6.77-4-10.17-.72-2.74-.06-5.07,3-5.39,2.61-.27,2.82,2.25,3.27,4.14,1.34,5.61,3.41,4,5.66.57.65-1.79,1.27-3.59,3-4.71,2.22-1.88,6.33,3.37,7.12-1.14.73-4.2,3.62-8.64-.51-13.28-4.63-5.21-3.09-12.31,2.48-16.44,1.76-1.31,3.2-.93,4.69.27,1.94,2.64,4.43-1.09,6.46.53A1.14,1.14,0,0,1,763.64,875Z"
            fill="#6e5e47" />
        <path
            d="M690.78,484.92c-2.12,4.22-.11,8.54.41,12.54,1.5,11.51,3.76,22.89,4.39,34.54.18,3.39-2,6-1.42,9.47,1,5.53-2.1,11.89,3.75,16.42.69.54.66,2,1,3-1.66,3.8-4.58,7-5.25,11.3-.57,3.73-1.43,7,4.23,6.75.93,0,1.32,1,1.36,1.89-2.44,5-5.5,9.3-10.64,12-3.22,1.7-6.45,3.85-9.65,1s-2.56-6.77-1.8-10.45c.41-1.94,1.92-3.39,3.14-4.94,4.49-5.72,4.58-15.09.25-20.48a5,5,0,0,0-3.43-1.62c-7-1.25-8.18-3.17-6.94-10,1.8-9.8,1.4-19.68.53-29.55,1.19-10.39,1.52-21,7.31-30.26,6.09.54,8.86,2.93,9.73,8.51,1.06-2.33-.48-3.92-1.16-5.85-1.09-3.07-3.87-6.48.19-9.56Z"
            fill="#5e523d" />
        <path
            d="M729.24,909.09c3.8,2.81,4.79,6.85,5,11.3,3.26.08,3.95-4,7-4.28,1.91.9-.1,2.94,1.27,4,1,.82,1.79,2.1,3.32,1.55,1.25-.44,1.39-1.48,1.07-2.68-.72-2.71.48-4.32,3.18-4.54,3.07-.26,3.77,1.72,4.52,4.39,1,3.36-.2,8.74,6.33,8.37.76,0,1.71,2.29,2.5,3.57.67,1.08,1.24,3,2.64,2.36,7.36-3.45,10.9,5.41,17.25,5.08.85,0,1.24,1,1,2-.83,4.22,2.85,3.22,4.9,4.37,2.91,1.65,7.48-4.71,9.22,2,.15.56,1.83-1.89,3.29-.74.85,3.08-4.16,7.35,2,9.29.1,3.76-2.23,6.84-3,10.36-6.55,1.06-1.55-4.8-4.42-6.48-4.44,4.54-6.76-1.2-10.24-2.66q-1.24-2.72-2.51-5.42a8.24,8.24,0,0,1-3.49-6.09c-3.45,2.62-7.06,5.48-11.2,1.17-1.89-2-2.84-1.16-3.94.66a38,38,0,0,0-3.21,7.85c-1.24,3.67-3,6.83-7.62,7-2.83-.49-4.41-2.52-5.87-4.69-2.47-9,6.87-8.43,11.06-12.56a5.43,5.43,0,0,0-5.7,1.83c-6.2,7.8-14,5.45-21.74,3.72h0c-5.36-5.15-12.19-9.34-11.36-18.35.17-1.92-1-3.73-2.26-5.31,1.58-6.65,5.51-11.88,10.25-16.62Z"
            fill="#897653" />
        <path
            d="M757,873.64c-5.6-2.29-4.7,5-8.36,5.57.61,3.46-.27,8.32,3.65,9.47,4.14,1.22,3.07,2.31,1.65,4.75a10.07,10.07,0,0,0-.88,4.38c-.55,9.57-1.3,10.08-9.27,6a2.19,2.19,0,0,1-.77-2.34c4.49-9.65-1.69-14.21-8.88-18-2.6-1.39-1.87-4.27-4.25-6.51a71.53,71.53,0,0,0-10.32,17.63c-.89,2.3.81,3.61,2.08,5.08-.62,6.14-1.79,6.73-7.39,3.79-3.59,1.49-7.14,2.85-8.35-2.75a7.21,7.21,0,0,1-.49-1.72c-1.22-4.66-.72-9.87-5.31-13.39-1.92-1.47.37-4.66-1.44-6.64.49-7.78-2.76-14.39-5.81-21.34s-4.2-14.47-6.2-21.76c1.21-4.5,3.4-1.76,4.8-.39,2.36,2.3,3.13,5.58,4.39,8.54,1.16,3.56,1.57,7.6,7.24,6.93,1.91-.23,3.21,2,3.65,4.06.41,1.91.6,3.86,1.11,5.75.62,2.3,1.06,5.11,4.16,5,2.7-.1,2.26-2.81,2.55-4.6.66-4,4.56-5.65,6.35-8.81,6.11.3,8.44,2.88,7.42,8.34-.46,2.49-1.46,4.86-1.8,7.85,1.59-5.49,6-9.16,10.13-7.72,6.44,2.23-.84,7.83,1.07,11.72,1.23-.88,1.42-2.5,2.13-3.81.52-1,1.4-2.52,2.22-2.05,9,5.21,9.19-4.8,13.48-7.65,1-.7,1.8-2,3.31-.88,1.56,4.16,2.75,8.35,1.14,12.8A4.75,4.75,0,0,1,757,873.64Z"
            fill="#66563c" />
        <path
            d="M559.85,705.51c-3.68-3.86-8-7.31-5.85-13.79.79-2.43-1.86-3.55-3.71-4.72-2.09-1.32-3.66-.74-5.12,1-1.06,1.27-1.57,3.26-3.83,3.09,4.44-9.39,12.66-16.41,16.41-26.32a60.73,60.73,0,0,1,12.68-19.64c3.59-1.59,6.79-5.26,11.3-2.18a7.49,7.49,0,0,0,1.9.4c2.65.08,6-1.26,6.6,3,.56,3.91-.63,6.81-5,7.51a5.11,5.11,0,0,1-1.81-.39c-2.17-1.61-4-4.9-7.25-1.65-4.93,6.57-7.42,14.6-13.3,20.71-2.44,2.54-2,6.94.49,11,3-3.06,3-7.18,5-10.32,1-1.58,1.37-4.16,4-3.41,2.28.66,1.63,2.84,1.19,4.45-.59,2.23.68,2.61,2.27,3.72,3.92,2.71,9.71,1.58,12.54,6.26a3.54,3.54,0,0,1-.36,1.89,7.7,7.7,0,0,1-4.35,2.31,8.1,8.1,0,0,1-1.3.16c-3.53.16-7.24-2.28-10.37-.77-3.82,1.84-.75,6.39-2.29,9.51C567.52,701.55,566.36,706.59,559.85,705.51Z"
            fill="#86603b" />
        <path
            d="M650.87,471.72c3.94,3.11,7.44,6.42,8.17,11.81.32,2.36,2,4.19,4,5.59,3.7,1.84,3.08,5.76,4.32,8.79.16.41.45.88.33,1.24-2.36,6.62-4.93,13.18-6.84,20-1.37,1.08-2.8-1.15-4.39.25,1.32,1.93,2.89.94,4.39.48a2.12,2.12,0,0,1,1.62.91c1.07,2.88.63,5.2-2.47,6.53-.87.16.2,0-.65,0-3.79-.26-7.49,5.22-11.27.43s-6.6-10.2-5.9-16.61c.49-4.5.55-9,1.06-13.54a16,16,0,0,1,.41-1.92c.41-6,1.85-11.78,2.81-17.67C647,475.27,644.06,470.05,650.87,471.72Z"
            fill="#3b2b1b" />
        <path
            d="M464.47,756.69c4.47,0,6.66-3.72,9.81-5.9,1.38-1,3-2.25,4.8-1.42,2.08.93,1.76,3.28,1.21,4.58-2,4.63,3,9.19-.56,14.1-1.78,2.45-2.89,5.34-5.86,6.48-4.63,1.77-5.32,4.52-2.73,8.45.8,3.12-.79,5.82-1.83,8.49-.86,2.22-2.69,3.52-4.76.75-2.92-3.12-5.24-6.7-8.59-9.54-9.45-8-7.38-19.58,4.17-24.58C461.52,757.5,463,757.15,464.47,756.69Z"
            fill="#312719" />
        <path
            d="M581,643.77c-2.63-.53-5.26-1.75-7.13,1.69-.76,1.41-2.28,0-3.43-.33.47-.87.94-1.73,1.4-2.6,3.89-8,11-13.1,17.45-18.64,2.26-1.94,4-5.29,7.73-5.33,2.36,1.93,3,4.73,3.82,7.35,1.34-3,2.88-6.38,7.09-4.56,3.92,1.69,4.82,4.75,2.24,8.55-1.55,2.29-.56,3.57,2.05,4.07,2.38.45,4.74,1,7.16,1.26.64.15,1.53.24,1.8.71,4.48,7.85,10.28,4.17,15.93,1.86a9.25,9.25,0,0,1,1.81-.38c5.35,1.77,6.78,4.38,3.32,6.48-4.42,2.68-5,6.32-5.29,10.54-7.76.94-15.34,1.23-20.64-6.06-1-1.42-2.4-2-4-1.26-4.43,2.15-7.1-.09-9.32-3.52-1.42-2.22-3.85-3.66-4.9-6.14-.51-1.21-1.2-1.91-2.4-1.14C591,639.29,584.3,638.23,581,643.77Z"
            fill="#70543b" />
        <path
            d="M742.48,578.19c-7.71-10.07-19.15-16.43-26.08-27.73-3.13-5.1-2.77-12.5-9.25-15.83-1-.53-1-3.73,1.08-5.14,4.91,9.35,9.48,18.86,16.23,27.18,2.79,3.45,5.46,6.78,9.47,8.8a13.74,13.74,0,0,1,6.21,5.66c.51.93,1.69,2.51,2,2.39,7-2.9,9.9,4.06,14.83,6,2.33,4.32,6.46,4.84,10.76,5l3.87.15c1.62-.57,2.53.36,3.08,1.62,2.47,5.68,7.7,7.25,12.8,9.81s11,1.74,15.9,4.33c-1.12,5.52-4.26,6-9.17,4.3-11.16-3.92-22.24-7.85-34.37-8.65-7.95-.52-11.68-7.58-14.59-14.25C744.55,580.28,745,578.28,742.48,578.19Z"
            fill="#413a33" />
        <path
            d="M855.12,953.62c.26-16.21,2.12-32.41-.4-49-1.21,3-2.28,6.12-3.73,9-.44.88-2.22,4.32-2.75-.22-3.37-2.32-3.42-5.08-1.58-8.51,2.15-4,4.57-8-.94-11.91-2.43-1.74,0-4.28,1.8-6,3.91-3.58,9.86-3.33,13.67-7.37,1.24-1.32,3.51,0,3.87,2.07.47,2.79,3.51,2.31,5.11,4.36,1.06,2.37-.2,7.06-.7,9.52-1.11,2-.36,5.31-3.93,5.6-1.88-2.25-2.36-5.47-5.34-7.55.78,6.65,3.74,12.18,5.57,18-.21,10.33-1.38,20.48-5.81,30q-1.2,5.32-2.42,10.64C856.9,953.12,856.59,954.5,855.12,953.62Z"
            fill="#392c1e" />
        <path
            d="M624.48,574.39c-.89-11.67-2.46-23.29,2.39-34.67,3.49-8.17,2.12-17.42,5.45-25.92,2.22-5.69,4.33-11.47,6.79-17.1,5.6,1.93,3.75,6.32,2.37,9.44-3.1,7-3.05,14.28-3.17,21.64-.08,4.84,1.39,9.67,4.37,12.7,4.22,4.31,3,8.08,1.51,12.45-.91,1.73-2.43,3.06-3.32,4.83-1.74,3.49-4.75,4.26-7.6,2.13-5.17-3.87-6.14-1-6.62,3.42C626.44,567.11,629,571.43,624.48,574.39Z"
            fill="#af7d4b" />
        <path
            d="M754.24,960.43c4.86-.49,5.7-4.48,6.46-8,1-4.42,3.57-7.71,6-11.36,6.35,7.37,8.64,7.4,14.84.37-1.68,3.79,1.77,6.27,2,9.57-2.76,4.05.57,7.82.66,11.76.08,3.51,2.62,7.22-2.86,9.08-5.21,1.78-5.78-2.19-7.28-5.2-.87-1.73-1.83-3.42-3.2-6-.94,4.12,1,6.91,1.36,9.89.14,1.28.93,2.68-.45,3.51s-2.45-.31-3-1.54c-1.12-2.41-3.86.14-5.11-1.74C760.19,967.65,755.73,965.36,754.24,960.43Z"
            fill="#897653" />
        <path
            d="M464.55,792.22c2.44,1.15,3.95.32,3.76-2.28-.21-2.9,1.56-4.77,2.83-7l1.35,0c3.25,2.81,2,6.18.21,11.13,4.37-3.5,7.45-4.51,9.88-.1,1.14,2.08,3.84,1.65,5.85,2.3,6.95,4.52,10.32,4.28,15.71-1.55,1.68-1.81,3.37-2.8,5.71-2,4.38,1.51,8.63.48,12.91-.37a18.21,18.21,0,0,1,3.66-.5,34.52,34.52,0,0,1,7.08.73c5,1,9.77,3.24,15.21,2a5.63,5.63,0,0,1,6.3,2.31c.23,3.4-.77,5.12-4.42,3.16h0c-8.09.71-16.17,1.5-24.22-.67-2.23-.6-4,1.27-6,2.28-3.62,1.9-7.07,4.19-11.71,2.59s-3.06,4.52-6,5.34c-5.3-5.84-12.66-3.59-19.14-4.73C475.29,803.43,467.21,801.91,464.55,792.22Z"
            fill="#796b50" />
        <path
            d="M899.12,663.29c-4.28,2.15-8.32-.53-12.38-1-2.89-.34-5.55-1.81-8.66-.58-1.67.66-3.53-.88-3.84-1.89-1.65-5.24-6.13-4.85-10.14-5.78a12.25,12.25,0,0,1-7.58-5.93c-1.4-2.28-2.93-4.57-5.52-5.36-3.54-1.09-4.79-2.75-3-6.22.54-1,1.5-3.32-.16-3.18-7.19.65-5.82-9.15-12.19-9.42-1.16,0-1.13-.85,2.18-3.76,3.28,1.9,5.4,5.48,9.34,6.44,3.78,2.86,7.12,5.58,8.87,10.64s7,8.5,12.09,10.3c7,2.46,14.73,2.21,20,9.24C890.46,659.79,896.56,659.12,899.12,663.29Z"
            fill="#413a33" />
        <path
            d="M643.2,553.18c.43-5.32,1.19-5.92-3.4-14-3.81-6.7-2.72-13.37-3.29-20.17-.44-5.21,2.19-9.4,3.72-14,1-3,1.72-5.89-1.12-8.34.06-1.33.13-2.67.19-4,4-2.93,4-2.93,5.89-1.39-.21,1.8.51,3.71-.63,5.4h0c-1,5-1.07,10.2-2.53,15.15a4.49,4.49,0,0,0,0,3.21c3.56,6,2.58,13.09,4.78,19.35,1.39,4,.65,9.84,7.45,10.3.89.06,1.09,2.2,1.14,3.53a34.42,34.42,0,0,1-2.52,10.9c-2.43,4.67-.61,10.16-3,14.94-1,2.07-1.57,3.94-4.28,3.85-1.35-.28-2.66-.75-2.39-2.44A66.89,66.89,0,0,0,643.2,553.18Z"
            fill="#82532e" />
        <path
            d="M694.82,844.76c-1.31-2.61-2.55-5.26-4-7.82-.93-1.68-2-3.71-4.16-1.08-2.2-2.2-6.66-.14-7.9-4.14,2.08-1.2,5.52,4.2,6.7-1.35-2-3.63-.06-5.07,3.18-6.06C699.48,821,706.56,814.42,709,803c.86-4.08,4.07-7.2,9.26-6.08,1.54,1.34,1,3,.09,4.13-3.58,4.51-3.2,9.79-3.31,15a20.31,20.31,0,0,1-.5,3.88c-.66,5.56-3,10.86-2.6,16.6.09,1.5-.42,3.14-2.38,3.37-1.61.18-2.36-1.07-2.78-2.29-1.12-3.2-3.91-5.16-5.65-8.27C696.94,833.87,697.71,840.06,694.82,844.76Z"
            fill="#78674a" />
        <path
            d="M665.76,498q-1.37-4.41-2.75-8.83c4.1,2.63,4.72-1.42,6.17-3.36,1.28-1.7,1.89-3.87,3-5.75,3.88-6.89,9.43-7,14.61-.29a12.61,12.61,0,0,0,1.45,9.64,9.23,9.23,0,0,1,1.27,5.55c-.19,1.75,1.13,4.81-1.41,4.91-2.88.11-2.83-2.87-2.09-5,1-2.73.21-4.53-2.57-4.53-3,0-2.67-3.15-4.61-4-3.74,1-3.86,5-6,7.34C670.51,495.28,670.22,500,665.76,498Z"
            fill="#856644" />
        <path
            d="M955,848a38.67,38.67,0,0,1,.57-13.18c2-5,4.06-10.09,6.14-15.11.64-1.54.57-3.89,3.05-.57,1,1.41,2.7-2.25,2.95-4.4,3.45,1.08,1.26,3.34,1.1,5.17q-2.16,20.67-4.33,41.34c-3.37-.3-2.33-3-2.44-4.8-.22-3.67.69-7.34.29-11.15-2.17.27-2,2.74-3.57,3.41A3.34,3.34,0,0,1,955,848Z"
            fill="#4c3520" />
        <path
            d="M966.38,692.38c0,1.3-.07,2.6-.11,3.9-4.8,4.17-10.82,2.5-16.43,3.38-1.13-2.54,1.42-3.23,2.43-4.62.79-1.08,1.84-2,.55-3.31-1.09-1.15-2.64-2.6-3.85-1.05-3.42,4.37-6.4,1.3-9.56-.14-.26-2.39,3.45-1.79,3.22-4.48-3.71-.42-6.16,3-9.7,3.2.28-4,3.53-6,5.52-8.88,3.16,1.77,6.23,3.6,10,4.19C955,685.62,960.18,690.24,966.38,692.38Z"
            fill="#2e2821" />
        <path
            d="M624.48,574.39c2.48-3.84,0-7.88.49-11.8,7-.7,9.26,1.71,7.65,8.08-.68,2.7-1.94,6,.8,7.91,3.94,2.79,4.18,6.83,5,10.82a3.19,3.19,0,0,1-.32,1.94c-2.59,2.82-6.19,3.87-9.58,5.19-1.78.69-3.89,1.23-4.84-1.43.8-5.26-.11-10.6.8-15.85C624.47,577.63,624.47,576,624.48,574.39Z"
            fill="#755130" />
        <path
            d="M502.72,809.62c.68-5.3,1.11-10.25,9-6.26,2.7,1.37,5.77-2,8.39-3.6,1.25-.77,2.14-2.34,3.8-2.2,8.91.78,17.81,1.67,26.7,2.52-8,2.34-15.94,4.55-24.39,3.95-6.39-.46-12.22,3.35-19.5,2.06,2,3.54,4.43,6.23,4.12,9.88C506.61,815.74,504.59,812.78,502.72,809.62Z"
            fill="#504736" />
        <path
            d="M706.71,900l2.75,4.47c1.91-.82,1.6-5.65,5.24-3.21,4,7.88,4.39,16.32,4,24.89,2.9-1.21,2.83.93,2.79,2.62-.22,8.86,4.7,15.18,10.41,21.15-5.26-3.55-10.54-7.07-13.24-13.15a74,74,0,0,0-9.56-20.89A17.55,17.55,0,0,1,706.71,900Z"
            fill="#9b845a" />
        <path
            d="M941.77,865.45l1.23-1.38c1.14-.82,1.89-2.37,3.68-1.91.67.38,1.38,1.55,1.63-.45s-.06-4.46,3.17-4.3c1.27,1.15,1.22,2.71,1.31,4.22.41,2.11-.67,3.74-1.68,5.45A65.19,65.19,0,0,0,943.37,885c-1.67,7-8.1,12.11-8,19.83a.86.86,0,0,1-1.38.07C935.34,891.48,939.37,878.62,941.77,865.45Z"
            fill="#5e442b" />
        <path
            d="M855.14,967.87q-1.78,9.81-3.56,19.61c-1.14,2-1.73,4-4.27,6.21.42-8.51-.37-16.53,1.07-24.58.42-2.3,4.18-2,4.39-3.63a51.72,51.72,0,0,0,.07-6.47c4.07.81,2.64,2.94,2.85,4.63C855.87,965.05,854.09,966.4,855.14,967.87Z"
            fill="#5b4c36" />
        <path
            d="M812.65,957.68l6.51-2.62c2,9.09,1.13,18.5,4.73,27.6,2,5-.12,11.66-2.24,17.34C818.26,985.86,820.55,970.73,812.65,957.68Z"
            fill="#897653" />
        <path
            d="M837.61,978.61c-2.79-4.45.78-9.91-2.31-14.31-1.54-7.47.45-15.17-1.55-22.61a7.94,7.94,0,0,1,2.48-6.37c3,2.21,3.12,5.51,3.31,8.75.23,3.88,0,7.79,1.16,11.57-.31,4.21,2.15,8.25.84,12.52l0-.09Q839.58,973.35,837.61,978.61Z"
            fill="#5b4c36" />
        <path
            d="M644.47,490c-2.18,0-1.87,4.79-5.17,2.65a43.26,43.26,0,0,1,1.62-17.27c1.67-6.07,3.38-6.64,10-3.7-6.56.07-.72,4.67-2.42,6.51C645.82,481.73,646.33,486.28,644.47,490Z"
            fill="#af7d4b" />
        <path
            d="M955.06,782.17c3,10,7.9,20.07,0,30.1-.78-3.33.87-6.45.9-9.72-2.06-.68-1.53,2-3.12,2.11-2.41-5.06,1.16-10.37-.43-15.47C951.32,786.11,953,784.06,955.06,782.17Z"
            fill="#4c3520" />
        <path
            d="M806.2,955c2.35.39,6.59-3.76,6.45,2.64-2.82,2.93-1.45,6.49-1.28,9.77.23,4.74.76,9.46-.58,16.2C806,973.34,805.92,964.21,806.2,955Z"
            fill="#897653" />
        <path
            d="M596.71,618.57a201.22,201.22,0,0,0-24.88,24c-.05-2,9.21-11.66,10.79-13.12,10.51-9.75,11.52-11.28,22.83-20.74a28,28,0,0,1,4.69-2.95,2.14,2.14,0,0,1,.71,1.59c-1.56,4.4-6.14,5.4-9.22,8.1C599.88,616.28,598.59,617.88,596.71,618.57Z"
            fill="#70543b" />
        <path
            d="M786.05,956.44l4.75-1.68c1.65,1.53-1.2,3.3.3,4.83a4,4,0,0,0,1.22-.27c1.92-1.18,3.5-4.3,5.87-2.88,2.18,1.31,1.42,4.27.6,6.61-.63,1.77.43,2.32,1.92,2.53,0,.44,0,.87,0,1.31a2.69,2.69,0,0,1-3.77.06c-3.93,2.56-6.74,2.34-8-2.83A73.18,73.18,0,0,0,786.05,956.44Z"
            fill="#897653" />
        <path
            d="M731.83,949.87c3.72.11,7.57-.33,11.12.49,2.93.68,4.37.07,6-2.16a14.39,14.39,0,0,1,7.8-5.67c1.54-.43,2.64-2.61,4.63-1.28.91.61.51,1.59,0,2.33-1.15,1.89-1.68,4.44-4.34,4.89-4.74.8-8.63,2.32-8.18,8.18-2.66-.11-1.28-3.93-3.84-4.12C740.69,951.47,735.69,953.46,731.83,949.87Z"
            fill="#897653" />
        <path
            d="M803.35,600.43c-9.42.39-17.35-3.44-25.56-7.54-4.2-2.1-2.12-7.16-6.22-8.22,1.33-1.27,2.71-1.56,3.79.17,5.74,9.24,14.14,13,24.83,11.63,2.63-.33,1.55,2.84,3.43,2.92A1.59,1.59,0,0,1,803.35,600.43Z"
            fill="#413a33" />
        <path
            d="M981.6,804.2c.71-1,1.43-1.92,2.48-3.35.84,10,.81,19.22-2.63,28.18-.68,2.45-1.37,4.9-2.05,7.35-3.38-2.59-.95-5.81-1-8.77,1.34-6.49,4.26-12.77,2.81-19.66Z"
            fill="#4c3520" />
        <path
            d="M706.71,900c-.37,6.65.86,12.35,5.11,18.22,3.72,5.13,7.41,11.35,6.8,18.55-5.7-12.38-14.54-23.59-14.52-38.12,1.52-.84,1.9.55,2.6,1.31Z"
            fill="#9b845a" />
        <path
            d="M975.45,709.47c-.88-1.48-2.21-3.74-.69-4.58,4.29-2.38,2.18-6.51,3.41-9.65l1.18-.1c1.6,4.21,3,8.45,2.5,13.07C980.21,711.12,978,711.29,975.45,709.47Z"
            fill="#2e2821" />
        <path
            d="M745.07,952.53c3.29-.48,2.21,3.06,3.84,4.11,1.46,1.71,2.61,3.84,5.33,3.79,3.52,3.12,7.08,6.21,9.41,10.39C755.34,966.84,748.68,961.21,745.07,952.53Z"
            fill="#897653" />
        <path
            d="M796.93,967l3.77-.06c0,2.82.2,5.65.09,8.47-.1,2.28-2.13,2.7-3.79,2.7s-1.63-1.69-1.72-3A15.61,15.61,0,0,1,796.93,967Z"
            fill="#897653" />
        <path
            d="M706.7,899.92l-2.6-1.31a18.44,18.44,0,0,0-3.49-9c-2.27-3.07-2.58-6.89-1.9-10.69C702.18,885.65,706.74,891.92,706.7,899.92Z"
            fill="#9b845a" />
        <path
            d="M610.48,607.13l-.34-1.41c4-2.16,9-3,11-7.88a1.15,1.15,0,0,1,1.65.7C622.05,605.49,618.35,608.08,610.48,607.13Z"
            fill="#70543b" />
        <path
            d="M622.26,598.14a5.91,5.91,0,0,1-1.15-.3c3.25-5.82,2.13-12.42,3.35-18.6.94,5.69.18,11.39.08,17.08A1.91,1.91,0,0,1,622.26,598.14Z"
            fill="#af7d4b" />
        <path
            d="M510.77,815.94c7.08,1.74,14.31,1,21.47,1.32C524.91,819.68,517.7,820.05,510.77,815.94Z"
            fill="#504736" />
        <path d="M767.7,584.52c-4.4.05-10.24,3.16-10.76-5C761.43,579.26,763,585.14,767.7,584.52Z"
            fill="#413a33" />
        <path
            d="M847.21,626.6c-4.8.26-7.25-2.83-9.34-6.44l-1.46-2.45C841.27,619.16,843,624.37,847.21,626.6Z"
            fill="#413a33" />
        <path d="M541.33,691.11c.25,4-.71,7.12-5.27,7.91A22.78,22.78,0,0,1,541.33,691.11Z"
            fill="#86603b" />
        <path
            d="M763.64,875v-1.3a2.42,2.42,0,0,1-.32-2.8c5.82-3.76,7.48-8.87,6.39-15.71-1.51-9.38-2.2-18.82-4.37-28.19-1.39-6-.38-13.14,1.5-19.34,1.72-5.66.25-11.26,1.28-16.82a4.41,4.41,0,0,0-3.16-5.13c-1.85-2.68-2.5-5.53.42-7.69,3.64-2.69,2.53-4.68-.38-6.78-2.4-1.18-2.72-3-.87-4.67s4-.42,5.12,1.13c5,6.74,9.67,13.71,10.37,22.33a20.76,20.76,0,0,1-2.75,12.77,16.36,16.36,0,0,0,1.35,18c1.82,2.43,3.44,5,5.6,7.77,2.46-2.36,1.35-4.92.92-7.25-1.48-7.95-3.76-15.74-4.21-23.88-.13-2.51-2.14-5.72,1.31-6.82,3.11-1,4.33,2.2,5.49,4.56.77,2.05,1.36,4.16,2.29,7a15.07,15.07,0,0,1,2.44-4.5c1.51-1.61,5.51-2.22,5.11-3-2.06-3.75-.52-8.47-3.56-11.8a10.41,10.41,0,0,1-2.22-3.23c-.82-2.13,0-3.88,1.49-5.34a3.61,3.61,0,0,1,5.34,0c3.25,2.94,6.72,5.71,8.86,9.65.85,1.58,1.81,3.82-.25,4.61-4.83,1.84-3.21,5-2.17,8,1.64,4.78,2.66,9.71,4.09,14.53.5,1.7,1.45,3.35,3.53,3.46s3-1.48,3.74-3.16c.81-2,1.68-5.52,3.73-4.53,3.15,1.52,8.35-.3,9.45,5.08.34,1.68,1.46,3.17,2,5.29.08-2.34-.92-4.24-.37-6.17a5.36,5.36,0,0,1,4.29-3.68c2.58-.62,4.94.75,5.35,2.79,1.53,7.75,8.12,9.57,13.84,12.5a6.46,6.46,0,0,1,.88,3.74c-.54,6.6-1.38,13.14-4.24,19.23-.41,1.45-.75,2.92-1.07,4.4-.38,1.73-1,3.49-3,3.91-2.15.47-3.07-1.26-3.78-2.83-1.46-3.19-2.67-2.35-4.59-.21-4.29,4.77-5.35,10.48-5.62,16.54-1.17,1.57-3.15,2.87-3.25,4.85-.6,12.28-10.6,20.44-13.87,31.54-.4,1.34-1,3-3.15,2.63-3.9-2.48-4,1.69-5.61,3.19-.78.73-1.35,1.94-2.66,1.29a2.14,2.14,0,0,1-.79-2.88c1.58-3.88,1.24-7.65-.07-11.51-.32-1-.42-2.53.13-3.19,5.63-6.64,4-16,8.89-22.89.9-1.26,2.23-2.9.49-3.92s-2.32,1.16-3.28,2.29c-4.83,5.73-4.4,13.41-7.57,19.78-2.18,4.39-4.24,7.33-10,5.25-4.77-1.72-4.94,4-7.59,5.86-1.63,1.16-1.86,4.5-4.73,3.72-2.59-.71-.73-3.78-1.77-5-4.08-4.92-2.16-10.55-2.56-15.94C775.14,877.49,768.85,873.66,763.64,875Z"
            fill="#573c26" />
        <path
            d="M656.46,743.6c-.09-1.34-.28-2.9-1.8-3.1s-1.31,1.07-1.38,2.25c-.2,3.63-2,4-4.5,1.7a19.92,19.92,0,0,1-3.93-4.35c-3.09-5.36-6.48-7-13.28-5.22-4.59,1.2-10.07.74-15.16,1.79-2.36.48-4.38-2.48-2.51-4.36,6.24-6.25,6.54-13.64,5.48-21.53-1.68-3.33-1.16-7.23-3-10.59-1.2-2.28-.26-4.18,2.29-5.2,4.87-2,9.46-4.75,15-4.34,4,.3,5.61-1.35,6-5.67.88-9.17,7.44-11.71,14.72-5.83,3,2.47,6.11,5,9.12,7.49,1.28,1.62,2.62,2.71,5,1.87,2.1-.75,4-.42,3.72,2.56-2.83,3.45.07,5.78,2,7.76,12.26,12.69,20.1,28,27.34,43.79,1.84,4,1,7.1-1.57,10.19-2.74.43-3.54-2.17-5.27-3.33-1.81-2.34-2.16-5.19-2.77-8-.07-8.67-7.49-9.58-13.2-12.26a14.78,14.78,0,0,0-7.76,8.25c-1.47,3.67-3.89,5.66-7.34,4.7s-3.65,1.93-5.32,3A2,2,0,0,1,656.46,743.6Z"
            fill="#4a3928" />
        <path
            d="M663.09,688.43c-4.8-2.39-7.54-7.49-12.59-9.56s-10.4,1.29-9.18,6.59c1.52,6.6-1.88,7.63-6.64,6.82-6.23-1.06-10.7,3.21-16.16,4.39-2.82.6-.81,3.06,0,4.21a9.88,9.88,0,0,1,.91,9.9c-1.81,1.49-3.21,3.71-2.49,5.7,2.3,6.28-1.95,9.65-5.91,12.2-5.81,3.73-12.06,6.73-17.47,11.18-2,1.63-5.07,2.47-5.91-1.78-.22-1.15-1-2.55-2-2-4.08,2-5.81.75-5.28-5.21-2.68,8.69-9.22,6-13.85,7.52l-.87-.33c-2.24-1.93-1.58-4.22-.73-6.46.94-2.46,1.72-4.87-.1-7.27-.88-1.85-1.52-4.07.31-5.3,2.3-1.56,4.43.53,6.55,1.39,1.45,1,2.88,2.08,4.75,2,3.33-.09,5.17,1.42,6.1,4.66s3.06,3.49,6.85,3.48c7.56,0,13.42-2.81,19.13-6.9,4.95-3.54,5.19-5.07,1.07-9.41a5.7,5.7,0,0,1-1.56-4.06c-.27-4.75-.85-9.22-4-13.4-3.32-4.49-2.08-6.63,4.89-11.86,2.89-1.92,5.66-2.08,9.17-.95,4.45,1.42,9.13.37,13.38-1.81a8,8,0,0,1,1.24-1.29c2.62-1.41,4.7-3.09,1.45-5.77-5-4.08-3.4-8.38-.54-12.59,1.73-2.56,3.46-5,3-8.24-2.79-5-2.07-8.7,3.94-10.54,1.26-.38,2.53-1.34,2.16-2.85-.61-2.49-2.82-2.29-4.79-2.35,8.13-6.92.43-13.13-.9-19.62.6-4.9.45-10.33,7.55-10.71.41,0,1.27.58.42-.59-4-5.47,2.48-10.76-.28-16.46-1.77-.3-4.56,1.18-6.68-1.08l-.19-.26c6.15-2.35,2-9.92,6.7-13,5.6-1.13,4.07-6.18,5.2-9.65.9-2.78-1-6.08,1.28-8.76,2.78,2.67,2.06,6.19,1.78,9.29-1.06,11.62,2.31,22.45,5.72,33.25,1.74,5.52,5.57,9.83,9.76,13.76a46.51,46.51,0,0,1,3.64,2.92c2.65,3.06,5.41,6,9.93,6,2.26,4.26,6.07,4.65,10.28,4.06,1.17,2.5-.79,4-2.06,5.47-1.89,2.21-2.33,4.39-1,6.94-.6,3.88,2.38,7.61.47,11.53l-5.25-1.32c-2.82-1.15-2.9-3.69-2.91-6.08-.05-10.19-4.21-17.27-14.92-19.5a3.3,3.3,0,0,0,.47,3.36c5.7,4.08,2.18,10.4,3.89,15.46,1.21,3.59-2.25,3.52-4.68,2.64-4.53-1.65-8.93-1.07-13.46-.19.41,2.15,2.11,2.63,3.17,3.65,2.52,2.43,3.59,4.89,1.1,8-2.3,2.89-1.78,5.22,1.71,6.75a6.41,6.41,0,0,1,4.16,6.09c.26,4.57,4.64,6.72,6.67,10.29,1.16,2,2.92,4,.53,6.45C667.91,689.41,665.81,690.47,663.09,688.43Z"
            fill="#6c5235" />
        <path
            d="M765,785.66c5.58-2.52,5.33,2.29,5.15,4.82-.78,10.76-2,21.5-3.34,32.22-.3,2.45-.56,4.67.55,7,3.23,6.76,3.17,14,3.31,21.3.1,4.92,2.75,9.38,0,14.89-1.81,3.68-3.46,5-7,5.15-1.77,1.3-3.55,1.62-5.32,0,2.59-4.38-1.18-8.75,0-13.13-.69-2.12-.32-4.33-.49-6.49-.14-1.8-.44-3.66-2.58-4.07-6-1.14-3.84-4.61-2.46-7.82-1.15,1.21-1.55,2.94-2.33,4.47-1.58,3.11-2.9,6.65-7.76,4.74-4.3-1.69-6.78-3.24-6.78-9.2,0-5.16.09-10.29.35-15.49.37-7.27,1.31-14.43,4.08-21,3.89-9.33-.35-18.45.3-27.64.25-3.55.45-7,2.9-9.82,1.32-1.24,1.49-3.86,4.16-3.53A70.29,70.29,0,0,1,755,787.15c.37,4.24,6.11,4.28,10,8.09Z"
            fill="#69482b" />
        <path
            d="M786.15,796.15C785,794.43,784.75,792,781,791c1.15,7,2.1,13.46,3.28,19.84.9,4.9,2.25,9.73,3.08,14.65.4,2.32.45,5.09-2.72,5.86-3.78.92-3.7-1.88-3.91-4.32-.12-1.42-1.21-2.19-2.13-3.15-4.74-5-6.9-17.55-4.14-23.33,5-10.35,4.64-14.52-1.72-24.46-1.51-2.36-2.68-5-4.32-7.21-.75-1-1.72-3-3.62-1.74s-.26,2.72.19,4.07c-3.29,1.36-7.22.78-8.39-1.88-1.86-4.24-1.56-9.22,0-13.82a11.84,11.84,0,0,1,1.77-2.68c2.88,3.19,6.24,4.27,10.43,2.59a7,7,0,0,1,3.89.05c8.57,1.89,16.1,1.44,19.56-8.39a34.48,34.48,0,0,1,6.76-4c3.24-1.48,6.79-1.44,9.15,1.19,2.52,2.81,5.55,4.82,8.42,7.11a6.4,6.4,0,0,1,2.83,4.92c0,2.24-3.81,4.17-1.11,6.38,3.81,3.12,6.29,8,11.62,9.2,4.41,4.6,7.31,9.43,2.4,15.48a5.6,5.6,0,0,0-.65,1.84c-.86,2.57.32,6.89-4.81,5.94-4.29-.8-8-5.28-6.91-9.12.86-3.12-1.2-3.91-2.8-5.14-7.77-5.95-12.73-13.69-15.74-23.42-1,4.54-3.74,7.35-7.46,9.75s-3.82,9.82-1.05,15.62c3.17,6.64,2,10.91-3.72,13.64A2.51,2.51,0,0,1,786.15,796.15Z"
            fill="#352416" />
        <path
            d="M717.33,693.71c-1.51,3,1.33,7.95-4.51,9.14a15.84,15.84,0,0,1-17.11-8.05c-2.81-4.86-4.79-10-9.58-13.54-1.56-1.16-2.72-3.81-1.43-6s2.57.16,3.81.62c1,.37,2.12,0,2.07-.82-.51-7.78,7-9.37,10.74-13.83.62-.74,2.81-1.32,2.17-1.88-5.43-4.69.47-8.7.54-13a2.71,2.71,0,0,1-.44-2.77c3.56-3.35,2.08-9.46,6.75-12.21,6.18,3.57,3.08,9.11,1.7,13.1-1.7,4.94-2.69,8.53,2.63,11.4.55.29.88,1,1.29,1.46,10,12.36,8.46,18.37-6.56,24.23,1.44,4.7,7.2,6.33,8.24,11.23Z"
            fill="#211c16" />
        <path
            d="M792.78,747.56c-3.49,9.71-8,12.1-18.83,9.7-2.4-.53-5-1.18-7.05,0-5.65,3.35-8,1.26-8.53-4.49l0-1.32c1.33-1.69,3.47-1,5.51-1.4-2-2-4.05-3.28-5.5-5.16-5.41-2.18-7.93-6.85-9-11.94-1.82-9-6.1-15.49-13.77-21-6.93-5-12.26-12.11-18.3-18.29l0,0c3.43-4.68,8.91-4.92,13.69-4.93a35.86,35.86,0,0,0,13.44-2.23,8.09,8.09,0,0,1,9.63,2.23c2.68,3.13,2.3,7,1.16,10.58-.68,2.16-2.49,2.94-6.64,1.94,5.62,4.09,5.09,8.13,3.82,12.76-3.49,12.77.48,21,12.46,26.43,5.26,2.38,9.78,5.86,14.69,8.75,2.78,1.63,5.28,3.47,7.32-1,.94-2.07,3.13-2.13,5.19-1.28Z"
            fill="#211c16" />
        <path
            d="M663.09,688.43c2.56.3,5-.06,6.28-2.48,1.4-2.67-1.17-4.32-2.46-6-2.68-3.5-7.09-5.81-5.75-11.56.4-1.74-2.62-2.34-4.5-3-3.63-1.35-4.78-5-2.33-7.17,5.56-4.82,1.55-6.67-1.86-9.13-1.3-.94-3.92-1-3.22-3.38.58-2,2.73-1.86,4.51-1.84,5.46,0,11-1.34,16.08,2.47.67-3.22-1-3.9-2.1-4.75-2.49-1.85-2.84-3.28.52-4.43,1.71-.59,3-2.64,1.15-3.15-6.61-1.8-2.77-8.91-8.16-12,14.23,1.48,21.06,8.4,21.65,20.74.13,2.61-.18,5.25,1.37,7.59-2.44,1.67-5.23,1.35-8,1.35-11,4.43-13.55,14.7-5.86,24,1.26,1.53,2,3.29,3.2,4.84h0c.87,3.5.52,7.31,2.63,10.51-1.33,5-2.63.2-3.94,0-.78-1.47-1.6-2.69-3.47-1.2C666.36,691.87,664.47,691.1,663.09,688.43Z"
            fill="#574029" />
        <path
            d="M747.75,762l-2.61,4c-1.22-.62-1.23-2.35-2.6-2.85-1.5,9.81-3,11.54-9.29,10.37.46,6.56-.56,12.38-7.09,16-1.81,1-3.18,3-4.68,4.57-1,1.11-1.53,2.57-2.84,3.4-5.79.91-9.32,3.59-9.33,10.09S697,826,689.89,826c-4.06,0-4.3,1.58-4.38,4.4-2-.07-4.51-.06-4.87-2.41-.53-3.49-3.32-1.65-6.91-3.38,7.9-1.17,11.93-9.18,20.79-5.34.48-1.39.51-5.14,4.93-4,.67.17,2-1.49,2.76-2.54,4.53-6.69,6.67-14.74,12.25-20.89,2-2.21,2-6.29,6.75-5.45,1.78.31,1.67-2.33,2.08-3.63.8-2.5,1.45-4.44,4.34-5.81,4.21-2,1.65-5.82.62-8.59s-1.58-4.3,2-5.83c3.3-1.42,5.32-4.45,3.56-8.66-1.43-3.41,0-7.25,3.36-6.91,5.89.6,2.55-2.58,2.68-4.47s-2.12-3.94-.13-6.57c8.41,5.42,3,18.17,13.41,22.13Z"
            fill="#5c4f3a" />
        <path
            d="M665.72,798.78l-1.33-1.32c-4.4-2.51-8.29-2-12.7.71-2.39,1.46-4.62,4.94-8.45,3.2-1.59-3.23-4.07-2.76-6.58-1.41-3.82,2-7.43,3.16-11-.52-1.06-1.09-2.41.29-3.62.62-1.53-2-1-3.62,1.15-4.79,9.59-5.26,19.51-9.91,30.75-8.84,5.49.53,8.06-2.56,11.11-5.7a5.29,5.29,0,0,1,1.89.24,7.86,7.86,0,0,1,2.81,2.53c.65.87,1.39,2.43,2.1,2.32,1.26-.2-.1-1.25,0-2,.33-3.68,2.36-3,4.53-1.77s2.87,3.69,5.54,5.36c-.09-4.4-5.62-8.74.87-11.71a4.71,4.71,0,0,1,1.79.17c2.58.86,3.93,3.43,6.38,4.49,1.75,1.65,1.64,3.27.14,5.07-3.4,4.09-3.07,13.23-12.52,9C675.14,798.52,669.07,794.71,665.72,798.78Z"
            fill="#434137" />
        <path
            d="M673.65,680.58c-10.35-5.87-9.92-15.65-6.87-25,1.78-5.46,5.92-3.67,9.53-3.89.34,4.91,5.28,3.74,7.8,5.79,1.43,1.16,4.18,1.37,3.52,4-.51,2-2.37,2.9-4.42,3.47-9.59,2.67-9.61,2.75-9.55,13.05C673.66,678.84,673.66,679.71,673.65,680.58Z"
            fill="#4a3928" />
        <path
            d="M668.37,784.31,667,781.77c-1.08-1.88-.85-3.91-.64-5.93,3.74-2.47,4.61-7.92,9.58-9.1-2.22-3.61,5-5.82,1.44-9.8-.77-.86-.17-3.46,1.17-2.72,4.21,2.33,5.94-.81,8.59-2.68,2-1.39,4.67-.68,7.08-.47,2.3,1.29,2.22,3.89,3.28,5.87.24,2.28,2.9,5.85-2.7,5h0c-1.09-1.14-1.51-3.25-3.72-2.78-.63.13-.69.9-.34,1.52a8.39,8.39,0,0,0,2.64,5.27c.63,2.09,3.29,4.59,1.2,6.18s-4-1.44-5.78-2.78c-.51-.38-1-.8-.24-1-5.23,1.83.42,6.84-4.36,8h0c-2.63-1.58-4.6-3-7,1.13C675.52,780.6,672.56,783.66,668.37,784.31Z"
            fill="#6d624a" />
        <path
            d="M704.18,643.8l-.15,2.6c-1.68-.46-3.41-.78-5-1.39-3-1.13-5.63-2-5.56,2.83,0,2.46-2.24,2.93-3.93,3.82-.67-3.91-3.35-7.61-1.31-11.82,1.12-1.9,3-2.53,5-2.77a10.41,10.41,0,0,0,8.06-5.06,4.66,4.66,0,0,1,6.24-2.09C709.52,635.28,704.16,638.91,704.18,643.8Z"
            fill="#574029" />
        <path
            d="M694.84,762c4.6-.76.65-3.55,1.27-5.25-.71-2.62-1.43-5.24,0-7.85,2.13.5,2.35,2.92,4,3.92,3.29,7.84,9.69,14.23,11.61,23.88-6.31-3.64-6.35-10.71-11.37-14.67-1.29,2.24.63,4.27.14,6.26C696.91,767.33,696.16,764.42,694.84,762Z"
            fill="#4f4534" />
        <path
            d="M684.25,776.44c1.31-3.56-2.4-8.16,2.9-10.72l7.18,6.55c-.37-2.56-.63-4.42-.9-6.27,2,1.3,2.22,3.53,3,5.51,1.07,2.62.68,3.25-2.36,3-4.55-.31-5,2.31-3.21,5.82C687.73,780.63,685.9,778.69,684.25,776.44Z"
            fill="#4a4637" />
        <path
            d="M671.49,799.88c2.26,2.49,4.6,4.92,6.76,7.5,1.26,1.51.3,2.91-.84,4-.93.89-2,2.22-3.06,2.26-1.78.06-2.67-2-2.6-3.28a17.94,17.94,0,0,0-1.85-9.21Z"
            fill="#30291d" />
        <path
            d="M758.36,744.93a1.68,1.68,0,0,1,.65.08c3.07,1.76,8.33,2.73,7.52,6.63-.53,2.56-5.27-1.19-8.18-.15C755.51,749.3,758.68,747.12,758.36,744.93Z"
            fill="#352416" />
        <path d="M676.28,691.09c-3.82-2.78-3.47-6.58-2.63-10.51A19.39,19.39,0,0,1,676.28,691.09Z"
            fill="#4a3928" />
        <path
            d="M690.79,760.73c-1.08-.7-2.67-1.45-2-2.86.84-1.74,2.19-.28,3.25.16a4.11,4.11,0,0,1,2.8,4C693.31,762.15,692.83,759,690.79,760.73Z"
            fill="#4f4534" />
        <path
            d="M829.86,772.54c-3.6.33-6.44-.71-8.09-4.17-1.1-2.29-3.23-3.44-5.4-4.55-2-1-3.7-2.62-1-4.29,5.92-3.66,1.64-6.08-1.07-8-2.46-1.79-5.34-2.32-6.85-5.9-1.11-2.64-5.23-2.81-8.2-1-2,1.27-4,2.74-6.47,2.95h0c.29-4.69,2.46-8.89,2.8-13.78.38-5.46,7.23-5.49,11.69-6.76,4.17-1.19,8.7-1.91,12.66,1.07a2.13,2.13,0,0,1,.62,2.95c-2.84,3.4-1.51,7.56-2.34,11.32-1.16,5.22.67,7.61,6,7.2,6.11-.47,12-2.81,18.25-2.66a3.32,3.32,0,0,0,2.92-2.38c2.46-6,7.46-6.71,13.11-6.27,7.6.6,9-.48,10.84-7.29.54-2,.48-3-1.42-4.27-9.54-6.58-9.11-12.92,1-18.42,1.13-.62,2.55-.86,3.34-2.65-2.85-1.8-8.51-2-5.43-8a19.23,19.23,0,0,0-11.47,3.52,19.06,19.06,0,0,1-4.62,2.53c-2.16.68-4.66,1.22-6.05-.92s.76-3.6,2-5a37.68,37.68,0,0,1,8.05-6.78,20.12,20.12,0,0,0,5.93-5.16c2.51-3.65,1.7-5.88-2.61-6.32-11.89-1.22-23.74-2.15-35.39,2.13-6.51,2.39-8,1.32-10.31-5.07-.69-1.87-.77-3.85-1.33-6.06-3.1-.19-4.65,2.28-6.72,3.61-6.46,4.15-11.63,3.94-17.47-.93-3.55-3-3.43-5.71.56-8.22,3.41-2.15,7.35-2.85,11.24-3.72,9-2,10.59-4.06,12.23-13,.82-4.47-.11-6.27-4.82-5.55-5.25.79-10.58-.79-15.82.52-3.2.79-5.68,1.57-2.27,5.44,3.68,4.17,2.18,8.4-1.73,11.36-2.71,2-3.82,3.93-2.76,7.14.92,2.8-.13,5.12-3,5.43-6.63.69-9.95,5.6-13,10.21-2.51,3.79-5,4.59-8.7,2.85-4.82-2.22-9.6-3.94-15.15-3.89-4.56,0-8.73-5.45-8.71-10.09,0-3.54,1.74-5.15,5.42-4.83,9.23.81,15.47-3.48,19.44-11.48a24.14,24.14,0,0,0,2.15-6.2c.53-2.77,3.32-5.42,2-8-1.39-2.78-4.83-.56-7.32-1.15-4.62-1.09-6.47-4.47-7.18-8.48-1.16-6.44-3-12.83-2.6-19.47.17-2.91-.43-4.32-3.64-2.79a6.54,6.54,0,0,1-4.54.39c-3.76-1-5.42.19-6.51,4.06-1.63,5.79-5,7-11.08,5.25,1.59-8.47-2.69-16.41-2.24-24.78.11-1.93-.41-3.92,1.21-5.49-.22-1.27-.83-2.63-.59-3.81.46-2.23-4.35-4.68-.67-5.84,2.25-.71,5.58,2.39,6.39,5.41s2.37,5.61,3.6,8.39c1.53,3.45,3.59,4.88,7.06,2a10.84,10.84,0,0,1,8-2.25c8.62,3.91,10.81,8.22,9.62,19.15-.45,4.13.44,8,3.66,10.58,1.55,1.23,4.88,1.34,6.17-.38,2.43-3.26,6.25-3.86,9.23-6,9.43-6.62,14.12-6.69,23.13-.14,1.29.93,2.66,2.2,4.08,1.85,7.48-1.89,12.12,2.43,16.81,7,1.06,1,3.08,1.48,2.43,3.38-1.59,4.61,1.65,3.89,4.2,3.93,2.31,0,4.56.18,5.15,3,.53,2.53-.52,4.19-3.07,5-1.91.58-3.19,2.16-2.66,3.92.66,2.18,2.51.79,3.88.42s2.74-.36,3.14,1.3c.53,2.23.5,4.55-1.86,5.76-2.72,1.39-5.62,2.45-8.44,3.64-2.51,1.06-7,1.58-5.71,4.81,1.15,2.85,5.39,4.14,9.17,2.63,3.33-1.33,6.38-3.15,8.14-6.36a8.23,8.23,0,0,1,5.66-4.11c1.52-.36,3.42-2.26,4.74-.21,1.1,1.7-.14,3.12-1.61,4.43-2.55,2.26-1.2,3.52,1.5,3.35,7.81-.48,14.51.65,17.48,9.26.51,1.48,2.62,1.34,4.18,1.32,1.8,0,4.4,0,4.71,1.58,1.11,6,7.77,5.26,10.44,9.2.9,1.32,2.3.76,3.6.36,6.72-2.05,13.32-1.93,19.69,1.3,1.51.77,2.91.25,4.44-.06,8.46-1.71,17.75,2.83,21.93,10.4.66,1.2,1.21,2.15.76,3.61-1.57,5.09.8,7.39,5.78,7.78,1.07.09,3,.23,3.05.63,1.92,9.37,9.32,5,14.59,5.85,4.11,1.89,3.15,6.14,4.22,9.36a39.24,39.24,0,0,1,1.73,13.3c-2.47,4.34-7.24,5.28-11.2,7.43-1.46.8-3.86,1.54-2.5,3.68s3.11.68,4.45-.56c2.39-2.2,4.44-4.94,8.25-4.7a4.69,4.69,0,0,1,2.56,2.8,28.84,28.84,0,0,1,1.36,5.79,5.26,5.26,0,0,1-.73,2.87c-4.41,3.22-9.18,5.92-13.65,9.08a10.79,10.79,0,0,1-10.69,1.36c-5.22-2.12-9.85-.93-14.24,2.33-3.68,2.72-8,4.35-11.43,7.66-2.28,2.23-5.4,1.71-7.87-.31s-1.7-4.63.21-6.27c5-4.24,1.83-5.86-2.09-7.43.13-4.13,2.41-8.17.17-12.45-.7-1.33.29-3.15,1.54-4.07,5.4-4,9.6-9.57,16.82-11.05,5.09-1,10.16-2.7,13.92-6.46-17.84-2.33-33.14,4.16-47.76,13.07.56,2.18,2.43,2,3.69,2.64,1.69.91,4.09,1.3,3.82,3.84-.24,2.27-2.38,3-4.21,3.7a86.72,86.72,0,0,1-13.93,4c-2.33.48-6.22-.34-5.7,3.65.49,3.76,1.28,8,6.42,8.75,3.72.52,6.75-1.06,9.84-3,4.62-2.81,9.35-5.94,15.2-3-2.45,6.87-8.69,9.45-14.67,11.54a96.05,96.05,0,0,0-13.75,6,11.57,11.57,0,0,1-10,.86,4.77,4.77,0,0,1-1.63-1.09c-1.28-2.78,1.27-3.76,2.52-5.39,2.23-2.92,1.15-4.8-2.06-5.88-6.18-2.06-13-.07-16,5.7-2.28,4.39-5.24,6.13-9.91,5.72A6.93,6.93,0,0,1,829.86,772.54Z"
            fill="#211c16" />
        <path
            d="M958.39,742.28l-1.76-2.58c-1.44-1.77-1.13-3.52,0-5.27-1.24-8-2.09-16-4.84-23.72.14-1.39.28-2.77.41-4.15,4.69,8.74,9.14,17.33,10,27.18.18,2.11-.56,4.38,1.16,6.2C963.06,743.56,961.9,745.37,958.39,742.28Z"
            fill="#2e2821" />
        <path
            d="M958.39,742.28c2.85,1.72,3.76-.64,5-2.34q2.79,6.39,5.59,12.77l-1.6,1.56c-.92,0-1.57-.24-1.57-1.3-1,.38,0,.88,0,1.24.76,7.66,2,15.32-.19,23-3.28,1.92-3.85-1.19-4.93-2.83-1.52-2.28-2.67-4.82-2.34-7.72,1.24-4.4.47-9.08,1.81-13.47,1.27-2,2.26-4-.59-5.63A7.33,7.33,0,0,1,958.39,742.28Z"
            fill="#34271a" />
        <path
            d="M571.69,721.23l-3.09-.32c-1.11-.13-2-2.29-3.1-.79a2.69,2.69,0,0,0,.9,3.82c1.53,2.91-.89,4.84-2,6.95-1.71,3.31-1.37,5.71,2,7.47h0c4.71,2.17,8.7,6.61,14.81,4.17a3,3,0,0,1,4.15,2.19c.82,3.08-.17,6-1.79,8.6-1.31,2.08-3.6,2.41-5.89,1.91-.79-.17-1.44-.9-2.18-1.31-6.23-3.43-8.2-2.52-9.09,4.31-.26,2-2.1,4.95-2.29,4.53-2-4.53-8.33,3.84-9.21-3.26-.45-3.59-2.42-2.85-4.15-.57-.73,1-1,2.75-2.77,2.05-1.43-.58-1.29-2-1.22-3.38s-9.67-8.07-10.84-7.78c-4.62,1.1-9,7.59-7.62,11.41.62,1.68,1.6,3.32-.06,4.8-2.3,2.06-2.8-.79-4-1.64-2.48-1.71-4.19.24-5.86,1.4-2.61,1.82-4.32,1.15-4.72-1.7-.49-3.48-1.29-4-5-3-2.15.56-5.43-2.79-5.6-6-.21-3.92-1.86-9.21,3.37-10.88,4.79-1.53,9.82-3.81,15.23-1.88,3.83,1.38,5-1.44,4.92-4.07-.23-5.52,2.82-7.2,7.52-7.94,4.9-.77,8.55-2.85,9.15-8.59.22-2.09,1.38-4.12,5-3.86,4.53.34,6.14-3.53,3.78-7.56-.79-1.36-3.41-2.24-1.77-4.27a3.3,3.3,0,0,1,5.19-.43c1.43,1.26,2.93-.31,4.41-.12,6.86-3,10.16-7.68,8.54-14.1-1.47-5.81.72-6.54,5.52-5.66,3.22.6,6.48,1,9.73,1.46,3.92.37,7.82.82,11.42,2.59a9.15,9.15,0,0,1,1.59,1c2.09,2,4.44,3.85,3.78,7.25a2.78,2.78,0,0,1-1.19,1.41c-2.21.6-3.43-1-4.88-2.13-3.3-2.68-7.09-2.61-11-1.88-2.36.21-4-4.31-6.17-1.78-3.06,3.5-7.38,6.6-7.34,11.87,0,1.21,1.66-.47,2.62-.4,4.45,2.29,2.42,6.88,3.72,10.29a3.3,3.3,0,0,1-.78,1.49C573.85,718.09,573.29,720.11,571.69,721.23Z"
            fill="#543721" />
        <path
            d="M693.51,751.48c-2.46,2.07-9-.93-7.54,6-2.89.31-5.53-.21-7.64-2.8.06,3.64,4.62,5,3.58,8.67-2.17,1.47-2-3.28-4-1.43-1.34,1.21-1,2.7.26,4,.29.32.07,1.11.09,1.69-6.11-.07-5.72,8-11.17,8.77-5.43-1.57-5.28-5.41-3.94-9.65,1.88-5.91-1.66-10.82-8.05-10.57a122.21,122.21,0,0,1-17-.49c-1.09-.11-2.5.26-3.22-.36-6.4-5.49-11.78-2.43-17.82,1.14s-13.84,2.54-20.72,4.92c-4.46,1.54-8.63,4-13.32,5a2.28,2.28,0,0,1-2-1.82c1.73-4.89,4.8-7.21,10.29-8.66,11.2-2.94,22.59-6.39,30.32-16.16.45-.57,1.75-1.15,2.25-.91,6.6,3.21,15.34,2.17,20,8.9,2.79,4,5.62,4,9.72,3,4.77-1.14-.16-4.66,2-6.24a7.25,7.25,0,0,0,.89-.94l1.33,1.3c3.49,1.23,6.52,3.42,10.45,4.83,1-1.85,1.07-4,1.46-6,.2-1,0-2.92.62-3,5.91-1.23,6-6.72,8.21-10.62,2.12.4,3,2.22,4.11,3.68,2,3.4,5,6,7.46,9.05C692.13,745.29,694.43,747.81,693.51,751.48Z"
            fill="#866f4d" />
        <path
            d="M488.3,797.35c-4.74.91-8.13-.45-8.89-5.37-1.88-.48-2.51.52-2.78,1.53-.55,2.06-1.73,3.08-3.79,2.32a2.9,2.9,0,0,1-1.31-4.37c2.48-2.78,1.06-5.61,1-8.45h0c3.36-1.93,5.38-5.16,7.83-8l1.3-1.37c6-4.82,10.37-4.68,15.77.46.85,3,3.86,3.25,6,4.65,5,3.32,5.48,5.58,1.59,10.26-2,2.37-1.62,6-4.69,7.67C496.37,798.78,492.35,798.26,488.3,797.35Z"
            fill="#a19171" />
        <path
            d="M496.38,775.1c-4.37-6.12-9.71-2.27-14.75-1.42,1-8.41,3.31-10,10.85-6.9,5.58,2.33,11.64,4,15.76,9,1.34,1.62,3.14,2.68,5.19,1.21,4.59-3.29,7.71-1,10.54,2.55,2.18,2.69,3.91,3.13,7.64,1.46,4.69-2.1,8.83-6.87,15-5a1.9,1.9,0,0,0,1.65-.81c3-7.7,8.82-5.06,14.24-4,1.85,4.37-2.32,5.72-4.17,8.23a7.4,7.4,0,0,1-2.32,1.46,14.45,14.45,0,0,1-3.6,0c-4,.11-8.15-1.74-12,.67-4.59,3.92-10.63,6.2-13.6,11.93h-3.91c-.38-3.08-1.94-4.48-5.12-5.61-4.58-1.64-9.54-3.2-12.46-7.88C503.3,776.92,498.51,778.24,496.38,775.1Z"
            fill="#826a4c" />
        <path
            d="M557.18,779.05c1.23-3,5.23-4.12,5.3-7.87,5.45-4.19,10.94-8.26,18.51-6.58l1.36,1.33c-.66,9.55-9.52,9-15.35,11.76C564.21,779,560.85,781.69,557.18,779.05Z"
            fill="#937853" />
        <path d="M480.32,775.05c-1.38,3.84-2.35,8.08-7.83,8C474.05,779.34,476,776,480.32,775.05Z"
            fill="#826a4c" />
        <path
            d="M665.87,781.52c-1.59.18-1.89.91-1.9,2.58,0,3.19-2.13,4.13-5.29,4.24-5.49.18-11.34-2.35-16.4,2.13-1.76,1.55-3.51-1.93-5.35-1-4.93,2.52-8.5,7.42-14.52,8.12-.23,0-.27,1.6-.41,2.45-4.4-2-8.81-5.45-13.24-.06-.88.41-2,.39-2.42-.29-2.77-4.65-7.78-5.69-12.2-7.68a1.54,1.54,0,0,1,.39-1.67c4.83-1.63,9.58-2.09,13.09,2.42,2.32,3,1-.57,1.32-.76a14.46,14.46,0,0,0,6.71-9.19,4,4,0,0,1,3.8-3.11c2.15-.07,4.35.87,4.64,2.89.92,6.53,5.65,5.24,9.26,4.14,6.41-1.94,12.86-4.1,18.42-8.09,2.84.44,5.6-.14,8.41-.5C662.81,777.83,665.58,777.73,665.87,781.52Z"
            fill="#6d624a" />
        <path
            d="M594.29,791.13c6.24,1.83,6.24,1.83,14.47,8.87-4.07,1.8-7.25,5.1-12.47.26-3.81-3.54-10.39-4.45-15.95-.93-.36.23-1,.64-1.14.52-5.62-3.78-10.52,2.64-15.84,1.09a6.91,6.91,0,0,0-6.09.7c-2.35,1.37-5.4,2.85-6.68-1.56,2.21.46,3.34-.7,4-2.62,5.94-2.56,12.45-3.32,18.41-6.07,4.32-2,9.23,2.06,14.06.42,1.17-.39,2.6-.11,3.82-.66C592,790.8,593.14,790.13,594.29,791.13Z"
            fill="#504736" />
        <path
            d="M643.24,801.37c3.38-2,6.78-4.07,10.16-6.13,4.37-2.66,8.19-2.71,11,2.22-7.67,3.67-8.37,9.39-3.31,16.76-4.1-.81-4.13-3-4.75-4.75s-1.85-3.19-3.28-2.54C646.94,809.69,645.61,804.74,643.24,801.37Z"
            fill="#362e24" />
        <path
            d="M525.4,809.1c0,1.2-.32,2.45-1.65,2.27a3.77,3.77,0,0,1-3.11-3c-.2-.92.55-1.54,1.59-1.63C524,806.56,525.24,807.14,525.4,809.1Z"
            fill="#504736" />
        <path
            d="M812.63,906.47c2.91-8.94,8.59-16.48,12.79-24.77a18.85,18.85,0,0,0,1.83-7.43c.28-3.33,1-6.62,5.23-7.21a4.28,4.28,0,0,0,.89-2.39c.45-1.85.25-4.35,2.85-4.54s2.87,2.35,3.36,4.14c1.49,5.45,6.4,9.53,6.23,15.65a1.47,1.47,0,0,0,2.31,1.37c2.82-1.55,6-2.41,7.77-5.68,4.19-7.84,6.51-8.05,12.1-1.62,1,1.16,2.19,2.16,2.7,3.67a11.78,11.78,0,0,1,.5,4c-.31,2.52-.55,5.07-3.23,6.41a5.2,5.2,0,0,1-4.66-4c-.33-1.22,1.86-3.15-.9-3.64-1.78-.31-1.92,1.38-2.41,2.54-.94,2.22-2.9,2.62-4.93,2.37-3.93-.48-5.77,2.74-8.42,4.47a1.64,1.64,0,0,0,0,2.78c5,4.16,6.08,7.18,2.19,12-2.73,3.41-1.6,5.77-.57,8.75-2.27,5.48,0,11-.11,16.49.29,7.76-3.27,14.8-4.18,22.46-4.89-8.7-1.51-18-2.34-26.88-.06-.87-1.21,0-.35-.27.15,0,.21.15.27.56a10.3,10.3,0,0,1-.15,5.15c-1.27,3.26-2.76,1.67-4.16,0-.68-2.38-1.7-4.72-.83-7.27l-1.57-1.86c-1.19,3.3-5.25,2.42-7.06,4.76-1,1.34-2,2.44-3.69,1-1.19-1-2.27-2.16-2-3.9.28-1.49.84-2.93,1-4.43s0-3.13-1.51-4.06c-1.8-1.11-2.81.4-3.91,1.38-.82.72-1.54,1.56-2.36,2.29-1.11,1-2.16,2.44-3.93,1.22a3.61,3.61,0,0,1-1.27-4.12C810.92,912.76,811.8,909.62,812.63,906.47Z"
            fill="#493c2d" />
        <path
            d="M698.67,580.92c-1.34-3.63-6.35,4.47-7-2.26A20.34,20.34,0,0,1,696,563.47a21.26,21.26,0,0,1,2.87-2.54l0,.1c1.15,3.4-.87,7.19,1.28,10.47l0,.06c-2,3.9,1.08,2.38,2.67,2.44,4.32,9.7,4.6,20.21,6.33,30.43.46,2.66-5.3,1.88-2.62,5.33a17.48,17.48,0,0,1,4.59,6.64c-.7,3.06-2.5,3.31-4.84,1.77-1.94-1.27-2.75-3.22-3.39-5.41-2.15-7.28-3.81-8.14-11.41-6.36-5.91-4.06-6.45-11.23-.47-12.93C698.34,591.4,701.73,588.47,698.67,580.92Z"
            fill="#7b6b51" />
        <path
            d="M710.66,616.25c-2.53-1.44-4.13-3.45-4.07-6.49,5.34.33,6.95-1.32,6-7.21-1.68-10.93-.21-12.69,7.33-13.91,1.49,5.82-.46,12,2.58,17.78,2.11,4,.14,8.35-1.13,12.44,1.21,2,1.17,3.64-1.35,4.54-1.52.06-2-1.12-2.55-2.15C715.18,619.66,711.65,619.67,710.66,616.25Z"
            fill="#4e3825" />
        <path
            d="M700.17,571.5c-5.71-2.85-1.18-6.94-1.28-10.47C700.3,564.4,702.44,567.68,700.17,571.5Z"
            fill="#5e523d" />
        <path d="M702.88,574c-1.94,3-4.36,2.57-7,.9,1.48-1.1,3.68-1.28,4.35-3.34Z" fill="#5e523d" />
        <path
            d="M721.3,899.9c-9.56-1.45-2.89-7.81-1.75-9.72,2.64-4.43,4.77-9.27,8.05-13.36.92-1.16,1.35-3,3.29-2.61,2.17.46,2.23,2.37,2.32,4.14.13,2.39-.36,5.48,3.81,3,1-.6,1.46.53,1.46,1.42,0,3.44.48,5.66,4.85,3.39,1.61-.83,1.38,1.56,1.92,2.6,2.78,5.36-.44,10.11-1.42,15.09a8.76,8.76,0,0,0-1.39,5.22c-6.43,3.78-7.7,3.14-8-4-.11-2.35-1.44-4.65-.07-7.59-1.62,2.14-2.43,4.1-4,5.61-2.5,2.41-4.22,1.5-5.84-.9C724.08,900.55,723.49,899.13,721.3,899.9Z"
            fill="#544837" />
        <path
            d="M725.26,901.22c1.44,2.66,2.91,3.11,4.66.2,1.84-3.07,3.82-6,6.56-10.37.56,5.59-.64,9.63-1.13,13.23-1.13,8.32,3.08,5.7,7.09,4.79-1.41,2.83-3.56,4.46-6.88,3.84s-2.06-3.31-2.34-5.29c-.17-1.24.19-3.21-1.5-3.1-2.67.18-2.39,2.63-2.48,4.57h0c-3.12,2.13-6.71,3.56-8.62-.77C719.05,904.74,720.9,901.79,725.26,901.22Z"
            fill="#66563c" />
        <path
            d="M758.36,871h5.32c0,.88,0,1.75,0,2.63a4,4,0,0,0-3.27,1.48c-3.34,4.38-3.09.92-3.33-1.49Z"
            fill="#5b4c36" />
        <path
            d="M668.28,616.34c-5.8-2.94-9.3-8.3-11.1-13.82-3.39-10.43-7.19-21-6.11-32.36.36-3.88,0-7.82-.05-11.74,2.38-3.11,2-7,2.81-10.48,1.82-2.62-.61-5-.35-7.58.51-5.05,1.31-10,5.68-13.43,3-1.36,2.6-4,2.61-6.56-1.58-2.84.81-4.93,1.7-7.09,2.86-6.9,4.53-14.3,8.73-20.63,2.65-1.62-.46-9.18,6.58-6.29-3.22,10.23-5.85,20.59-6.47,31.34-3.4,17.39-2.66,34.88-1.16,52.37a12.9,12.9,0,0,0,2.41,6.72c2.93,3.79,2.49,8.1,1.16,11.85a26.39,26.39,0,0,0-.37,16.13C675.61,609.59,672.05,615.83,668.28,616.34Z"
            fill="#2b231a" />
        <path
            d="M668.28,616.34c1-.41,2.86-1.15,2.85-1.19-1.63-4.36,5.5-9-.39-13.23-1.3-.94-.55-2.32.27-3.48,1.33-1.88,2.32-3.83-.14-5.65-.5-.38-1.82-.32-.47-1.49,4.64-4,4.93-8.34,1.38-13.45-3.07-4.4-2.66-9.85-3-14.94a236.3,236.3,0,0,1,.82-39.45c.23-2.22.84-4.28,2.69-5.76.24,6.64,2.72,13.35-.58,19.89-.57,1.13-.47,2.5.66,2.76,2.72.63,2.75,1.85.88,3.26-3.32,2.5-1.35,6.08-1.76,9-.37,2.63,2.68,2.47,5,2,3.84-.68,6.47.39,6.49,5a10,10,0,0,0,1.37,4.29c2.92,5.73,2.37,10.9-2.52,15.24a10.22,10.22,0,0,0-3.61,9.71c.68,5.38,3,6.18,8,3.77,5.54-2.67,8-8.11,12.4-11.74.42,1,.84,2,1.24,3,.59,1.44,4.58,1.72,2.75,3-2.86,2-1.17,8.17-7,7.13-3.29-.58-6.26.49-7.22,4.15-.91,3.46.73,5.9,3.74,7.56,8.42,1.4,9.58,2.88,7.79,11.73-.57,2.8,1.36,5,.74,7.66a4.26,4.26,0,0,1-1.25,1.45,9.61,9.61,0,0,1-7.55,1.29c-.21,0-.47,0-.63.13-5.27,3.73-8.18,1.64-9.7-3.87-4.81-3.9.81-4.35,2.07-6.25.48-2-.34-3.71-1.06-5.46-.66-1.39-.84-2.92-1.53-5-1.72,3.2.06,6.75-2,9.27s-4.71,3.82-8,2Z"
            fill="#3b372d" />
        <path
            d="M725.26,901.22c-2.66,1.49-5,3.57-3.58,6.72,1.63,3.66,5.1.13,7.56,1.16-.14,1,.07,2.77-.47,3-5.8,3-5.49,10.24-10.11,14-2.44-8.12-2.57-16.6-4-24.89,3.17,4.36,5.42,4.16,6.6-1.32.78-1.29,1.58-3.29,3.17-2.77S725,899.81,725.26,901.22Z"
            fill="#6e5e47" />
        <path
            d="M991.34,723.85c-1.47-7.69-6.05-15.16-1.64-23.25a7.73,7.73,0,0,1,.89-1.12c3.11,1.62,3,5.75,5.91,7.5a84.43,84.43,0,0,0,3,24c1.08,3.71.29,7.41-.48,11-1.53,7.23-3.25,14.41-4.87,21.62-.4,1.77-.12,3.49-3.27,3.42a4.18,4.18,0,0,0-3.54,5.32c.67,3.14-.23,6.55,1.16,9.66-1.23,4.28-1.55,8.85-4,12.75-2.55,1.42-2.93-.17-3.1-2.15s.45-3.87-.55-5.68c-.51-3-2.27-5.79-1.65-9-.35-3,5.37-1.39,3.92-5.18,2.41-6.81.35-14.36,3.59-21a3.68,3.68,0,0,1,1.62-1.12c5.11-1.74,4.72-6.35,4.86-10.21A66.14,66.14,0,0,0,991.34,723.85Z"
            fill="#2e2821" />
        <path
            d="M999.25,789.58c-.16,4.67.54,9.38-.64,14.29-.49-1.06-.87-1.9-1.35-2.93a31.85,31.85,0,0,0-3.49,10.44c-5-2.19-2-5.64-1.4-8.71,2.93-8.95.69-18.21,1.68-27.28,2.75-1.06,4-.18,3.92,2.8A35.39,35.39,0,0,0,999.25,789.58Z"
            fill="#2e2821" />
        <path
            d="M720,793.51c2.81-2.86,5.75-5.55,8.78-8.17,4.53-3.91,3.56-10.16,1.9-15.61,3.45-.81,3.15,5.07,6.59,3.1,2.71-1.56,3.3-4.61,3.38-7.44.06-2.11-2.44-5.38,1.46-5.56,3.7-.17,2.84,3.62,3,6.12-4.49,5.24-4.31,12.57-2.49,17.29,3.87,10-.59,18.27-2.82,27-2.05,8-.56,16.5-3.8,24.26,4.29,2.28,1.35,5.55,1.37,8.53,0,4.58,6.23,1.15,7.48,5.1.23.74,2.63-1.06,3-2.52,1.1-3.83,3.88-6.65,5.88-10.2,1.87,3.61-1.46,6.54-1,9.81,7.31-.48,9,3.39,5.57,12.69-3,5.62-8.21,9.53-12.14,15.1-1.83-1.32-1.28-4.22-3.77-5.4-2.14,2.65-2.05,7.31-7,8.88.29-3.25.52-6,.77-8.64.2-2.1,3.86-4.89.61-5.85a7.62,7.62,0,0,0-7.91,4.25c-.91,2.17-1,4.78-3.46,6.85-1.88-4-.27-7.59.94-10.87,2-5.41.16-8.28-5.13-9.58-1.14-2.2.09-4.8-1.27-7-1.57-2.55-.39-4.64,1.53-6.38,6.75-6.14,9.51-13.41,9.37-22.75-.1-7.26,5.4-13.71,6.15-21.24.29-3,1.42-5.89.65-9.2C732.94,791.77,727.61,795.37,720,793.51Z"
            fill="#785b3c" />
        <path
            d="M720,793.51c5,.79,8.25-4.54,13.37-3.87,1,.14,1-2.17,1.3-3.42.43-1.61.66-4,2.82-3.79,2.63.23,2.5,2.78,2.31,4.67-.75,7.29-1.69,14.55-4.74,21.36-1.76,3.92-3,7.59-2.45,12.4.87,7.21-3.34,13.32-8.48,18.36-2.1,2-5.67,3.06-1.48,6.8,1.72,1.55-.54,4.42-1.34,6.61-1.59,4.82-7,8-5.72,14.16.28,1.34-1.87,1.8-3.1,1.37-2.11-.74-5-.4-5.65-3.53-.39-1.9-1.15-3.81-1.12-5.71.09-6.66-2.67-8.79-8.89-5.68-.71-3-1.36-5.76-2-8.48-1.16-5.42,1.66-10.06,3.14-14.92.62-2,2.08-4.14,4.45-.77,2.24,3.2,6.88,4.74,6.9,9.95a80.36,80.36,0,0,1,4-19.24c3.62,6.38.76,13.27,1.84,20,2.69-2.14,3.73-5.2,4.67-8.49,1.37-4.77,2.28-9.68,6.49-13.32,2.83-2.44,1.93-11.42-.75-14.12-2.23-2.23-4.08-.94-5.55.85-1.67,2.06-2.38,4.66-3.41,7.07-.69,1.63-.34,4.18-3.24,4.13a24.77,24.77,0,0,1,5.25-18.43C718.75,796,718.42,794.44,720,793.51Z"
            fill="#907955" />
        <path
            d="M869.49,877.48c-1.47-1.28-2.93-2.58-4.43-3.82-1.08-.91-.26-4.14-3.25-2.69-1.72.83-4.13,1.3-4.07,3.74.17,7.44-7.8,5.76-11,9.63-1.22,1.49-3.24-2.25-2.93-3,2-5.06-2.1-8.06-3.8-11.7a33.4,33.4,0,0,1-3-9.53l-4.59,7c-3.1-8.08,1.94-13.44,6.38-19.09,2.44-3.1,4.07-2.59,5.32.77.57,1.54-.09,4.27,2.11,4.2,2.7-.08,1.73-2.93,2.17-4.69a9.68,9.68,0,0,1,1.2-2.2c2.34,1.17,3.06,3.56,4.36,5.55,1.56,2.4,1.23,6.83,6.81,4.81,2.24-.82,4,3.47,5.91,5.51.88,1,1.69,2.26,3.22,1.72s1.41-2,1.75-3.25c.61-2.24-1.84-7.24,4.32-4.85.82.32.6-6.63-1-7.45-3.4-1.79-3.93-4.77-4.67-8.07-.91-4.08-2.29-8.07-8.26-5.38-2.56,1.15-4.51-.77-5.74-3.09-.91-1.72-1.06-3.82-2.72-5.14,0-1.33,0-2.65,0-4,.12-2.78-1.55-4.95-2.51-7.36-1.15-2.88-1.17-5.91,1.78-7.55s4.93.6,6.64,2.73a7.3,7.3,0,0,1,1.68,2.81c1.51,6.62,6.15,9.47,12.4,10.3a4.87,4.87,0,0,0-2.27-1.09c-9.23-3.12-9.31-3.17-4.41-11.26,1.73-2.85-.85-6.16,1.37-8.81,3.16-4.89,9.42-7.13,14.61-5.13,2.57,1,5.2,2.24,3.32,5.67-1.54,2.81.81,3.83,2,5.48,2.77,3.77,2.22,5-2.33,5.67-2.78.39-4.67,4.29-2.66,6.16s3.72,4.38,7.61,4.24c5-.18,6.26,2.48,5,7.64-1.14,3.29.25,6.22,1.37,9.15,5.22,13.55,7.23,27.79,7.74,42.09.22,6.33-3.21,12.7-2.19,19.4-1.7.92.24,3.92-2.48,4.25-6.69-1-8-3.48-6.39-12.22,2.57-2.8,4-5.83,1.88-9.54a137.16,137.16,0,0,0-7.95-29.25c2.85,13.3,7.92,27.45,2.39,42.27a2.5,2.5,0,0,1-1.65,1.18,2.4,2.4,0,0,1-1.93-.67c-4.3-9.87-.38-20.28-1.91-32-3.22,7-6.14,12.38-6.14,18.8-1.32,1.2-2.71,1-4.15.24-.33-.47-.66-.95-1-1.42C870.3,883.05,871,879.65,869.49,877.48Z"
            fill="#5e442b" />
        <path
            d="M895.87,831.93c-.17-5-1.48-8.48-7.49-5.32-1.54.81-2.51.62-2.86-1.1a4.29,4.29,0,0,0-1.86-3.26c-2-1.27-6.26-1.77-1.86-5.55,1.11-1-2.26-2.6-1.27-4.82,2.64-1,5.21,1,8.31.7-.3-4.23-4.39-5-6.52-7.31.52-2.26,4.66-2.6,3.27-5-1.28-2.23-4.48-2.93-7-2.39-3.37.7-7.61.36-9,4.85l-.65-.61c-.95-2.28-.8-4.8,1.68-5.39,5.87-1.41,1.95-4.12,1.22-6.45a1.71,1.71,0,0,1,1-1.37c5.56,1.05,8.1-4.62,12.73-5.66.41-.09.53-.66.57-1.1.16-1.79-2.7-5,1.22-5s7.65,2.51,9.81,5.71c1.75,2.6-.83,4.71-3,6.41-5.11,4.07-5.23,8.69-.36,14.37a18.05,18.05,0,0,0,7.2,5.48c1.64-4.69,7.53-2.63,10-6.21a49.92,49.92,0,0,0,2.43-4.37c3.21-5.92,2.71-15.09,12.77-15.47a1.64,1.64,0,0,0,1.59-1c2.4-9.94,11.29-5.09,17-7.38a3.13,3.13,0,0,1,.95,1.61,13.28,13.28,0,0,1-2.72,7.94c-2.17,4.51-5,7.56-10.85,6.87-2.74-.32-4.74,1.89-4.37,5.16a13.73,13.73,0,0,1,0,2.72c-1.57,6.91-8.17,8.29-13.17,10.63-6.53,3.06-6.32,9.66-9.56,14.35-1.06,1.54,2.24,1.26,3.18,2.32a5.11,5.11,0,0,1,1.07,2.52c.22,1.7.63,3.82-.41,5-4,4.47-1.24,8.1,1,11.9a4.42,4.42,0,0,1-.09,2.83c-1.48,2.11-3,2.44-4.63.14C902.09,843.12,899.9,837,895.87,831.93Z"
            fill="#4c3520" />
        <path
            d="M920.09,884.17c-1.42,5-2.85,10-4.25,15-2.06,7.33,1.85,14.06,2.16,21.17.43,9.8,2.44,19.49,2.07,29.34,1.45,1.68,2.64,3.46,2.3,5.83-3,6.21-5.37,2.32-7.86-.41-1.63-9.35-4.83-18.42-2.55-28.31,1-4.24.16-9.27-1.14-13.57-3.64-12.09.94-23.63,1.58-35.42a56.72,56.72,0,0,1,1.07-6.43c.69-1.93.18-3.9.3-5.84.2-3.09,1.82-3,3.9-1.39a7,7,0,0,1,1,1.91C920.1,872,921.19,878,920.09,884.17Z"
            fill="#5e442b" />
        <path
            d="M903.6,955.26c-1.36.73-1,3.45-2.78,3.09-.94-.2-1.78-2.2-2.18-3.53-2.35-7.94-8.25-15.27-4.13-24.36.63-1.4.48-3.06,2.66-2.86a4.11,4.11,0,0,1,1.7,2.91c.11,2.35,2.19,2.68,3.73,3.56A130.86,130.86,0,0,1,908,957.68C904.92,959.73,905.13,955.94,903.6,955.26Z"
            fill="#392c1e" />
        <path
            d="M909.24,848.69c.67,5.61,4.75,10.75,2.31,16.78-.68.24-1.86,1.2-1.94-.09-.35-5.87-3.25-11-4.36-16.7A3.58,3.58,0,0,0,909.24,848.69Z"
            fill="#5e442b" />
        <path
            d="M988.57,751.5h-1.05a4,4,0,0,1-.72-5.61c-2.58,6.82-2.31,15.3-5.9,22.74-1.32.26-2.08-.1-1.78-1.61-5.35-11.14,1.86-22.68-1.1-33.9,1.8-8.17-1.21-15.82-2.57-23.65,2.23.1,4.44,0,6.4-1.26q1.46,5.88,2.92,11.75c2.33,8.61,3,17.46,3.89,26.27A3.53,3.53,0,0,1,988.57,751.5Z"
            fill="#2e2821" />
        <path d="M972.93,779.07c-.78,4.38-1.56,8.77-2.55,14.3l-5.73-15.55v-28.7l2.7,5.15Z"
            fill="#34271a" />
        <path
            d="M974,808.23c-.49,1.2,0,2.76-1.3,3.67-3.56-4.27-4.77-8.76-1.38-13.71l2.3,2.53Q973.79,804.49,974,808.23Z"
            fill="#4c3520" />
        <path
            d="M907.71,826.38c-1.36.65-2.86,1.92-4.22.64s-.3-3.09,0-4.8c.75-4.4,8.45-6.43,3.91-12.16,7.78-2.19,15.48-3.74,19.28-11.66,5.33,7.65,7.28,16.18,6.65,25.37l-.45,3.83c-3.12,1.13-5.78.11-8.25-1.75a8.18,8.18,0,0,1-2.33-5.9c-.06,1.44-.82,2.55-1.27,3.75-.64,1.4-1.11,2.86-1.81,4.23-1.5,2.08-3,4.12-6,4.14-3.34-1.15-3.66-4.28-4.63-7-.05-.12-.24-.86-.42-.37S908.21,825.9,907.71,826.38Z"
            fill="#4c3520" />
        <path
            d="M931.7,885.46c-1.87-1.59-2.62-4.26-5.14-5.21-.55-2.26.4-4.29,1-6.36,1-3.34.41-5.26-3.67-4.18-2.61-4-5.36-7.86-3.31-13a7,7,0,0,0,4.12-7.3c-.31-4.49.4-9-1.07-13.46-.32-3.74-1.35-7.58,1.42-10.92l7.79,2.55c-.45,4.76-.91,9.52-1.38,14.42-2.29.71-1.49-2.84-3.3-2.68C928.27,854.8,933.19,869.88,931.7,885.46Z"
            fill="#5e442b" />
        <path
            d="M869.5,877.48c2.31,1.69,3,4.33,4,6.77-1.38,6.79,1.46,13,3.63,19,3,8.2.78,15.6-1.6,24.71-1.88-8.32-4.43-12.24-7.39-17.76a6.69,6.69,0,0,1-.07-6.24,4,4,0,0,1,1.36-1.84,1.76,1.76,0,0,0,1.23-2.61c-3.27-6.74,1.47-14.27-2.07-21.21C869.69,877.32,868.35,878.4,869.5,877.48Z"
            fill="#392c1e" />
        <path
            d="M868.12,960.36c-2.8-13.07-1.1-26.3-1.31-39.46,0-.7.77-1.42,1.18-2.13,6.14,13.38,4.9,27.46,4.08,41.51Z"
            fill="#392c1e" />
        <path
            d="M887.83,935.74l.07,2c-.92,4.71-2.17,9.35-3,14.07-1.07,2.33-3.54-1.57-4.57,1-.36.73-.56,1.91-1.12,2.11-1.4.51-1.06-.76-1.11-1.51-.38-5.52,1.79-10.67,2.33-16.05.33-3.23.78-6.45,1.18-9.67C886.6,928.16,886.65,932.38,887.83,935.74Z"
            fill="#392c1e" />
        <path
            d="M886.66,898.59l1.54,0c1.78,2,1.44,4.45,1.5,6.78.08,2.93,1.64,3.72,4.25,3.32l.81.33c.17,6-3.76,11-4.23,16.8-1.22,2.47-3.09,2.24-3.33-.1-.66-6.43-3.78-12.64-2-19.3C885.8,903.85,884.82,901,886.66,898.59Z"
            fill="#392c1e" />
        <path
            d="M874.46,885.67l4.15-.24a8.84,8.84,0,0,1-.66,5.85C875.62,890,875.23,887.71,874.46,885.67Z"
            fill="#726050" />
        <path
            d="M636.61,654.28c2.27,2.26,3.12,3.94.07,6.85-5.7,5.43-5.37,8.12.3,13.92,1.24,1.27.51,2.29.5,3.63,0,4.15-3.51,1.87-4.81,3.24-7.4-3-13.18-10-22.54-8.2-2.76.54-6.27.7-8.21-2.64-.48-.83-1.15-1.36-2-.46-4.69,4.7-5.24.23-5.77-2.81-.59-3.34-1.84-5.16-5.32-6.42-3.3-1.19-4.39-5-5.14-8.38,2.36-.47,5.06-.86,5.17-3.86.07-2.11,1.68-6.88-3.83-3.54-2.14,1.3-3.12-.26-4-1.84,1.18-4.55,3.1-7.29,8.9-6.73,2.78.27,5.88-2.77,9.38-4.58-1.25,6.92,5.49,8.82,7.57,13.54.19.43,1.48.91,1.73.71,5.82-4.61,8.51-.13,11.85,3.63C624.76,655.23,631.47,651.86,636.61,654.28Z"
            fill="#91704a" />
        <path
            d="M583.65,653c3.87,1.9,3.81,7.58,9.7,8.38,3.54.48,1.11,7.16,3.75,10.86,2-4.32,3.31-10.31,6.89-1.12.82,2.11,6.59,1.59,10.13.78,1-.23,2.22-1.75,2.66-1.49,5.33,3.05,10.55,6.3,15.74,9.6.32.21.11,1.25.15,1.9h0c-6.86,3.77-11.39,3.38-16.9-1.32-1.47-1.25-3.14-3.11-5.17-2.22-3.71,1.63-.33,5.22-1.66,7.63a30.61,30.61,0,0,1-4.44,1.81c-5.63-1.06-11.2-2.47-16.89-3.28-5.22-1.6-9.83-5.12-15.79-4.59-1.7.15-1.2-1.84-.87-3.12.5-2,2-3.83,1-6.73-3.11,4.55-4.32,9.34-6,13.93-1.05,2.88-2.52,3.4-4.34.41-3.1-5.08-3.14-10.91.68-14.63,5.5-5.36,7.85-12.06,11.25-18.38.32-.59,1.46-.75,2.22-1.1,2.62.92,5.61.78,7.9,2.67Z"
            fill="#af8755" />
        <path
            d="M587.61,684.55c6.17-2.09,11.67.3,17.2,2.52-.79,3.37-3.86,3.84-6.42,4.95a4.58,4.58,0,0,1-2.81-.93h0c-1.2-4-7.15-.69-8-5.18Z"
            fill="#91704a" />
        <path d="M587.57,685.9c2.12,2.55,7.9-.45,8,5.18-4-1.33-8.39-1.26-11.93-3.87Z"
            fill="#6c5235" />
        <path d="M583.65,653c-2.85-.25-6.21,1-7.9-2.67C580.54,644.94,581.87,649.64,583.65,653Z"
            fill="#91704a" />
        <path
            d="M659.16,526.93c-3.71,6.52-3.3,14.07-5.33,21-.53-.82.35-3.64-1.23-2.41-4.87,3.79-4.22-1-5.19-2.92-4.23-8.33-3.22-17.9-6.4-26.64-2.32-6.37,2.6-12.74,3.54-19.26.06,5.15-.5,10.25-.89,15.37-.43,5.75,2.45,10.69,5.9,15.22,1.58,2.08,3.15-.2,4.11,0C655.72,527.82,657.23,522.44,659.16,526.93Z"
            fill="#604027" />
        <path
            d="M672.2,492.65a159.67,159.67,0,0,1-10.43,27.72l-1.33,0a.87.87,0,0,1-.31-.91c.09-.31.19-.46.29-.46,0-2.44,2.49-4.83,0-7.35-1.45-1.46-.55-2.11.93-3.38,3-2.58,4.94-6.06,4.44-10.35C669.9,498.57,668.74,492.85,672.2,492.65Z"
            fill="#574734" />
        <path
            d="M660.42,519c0,.46,0,.92,0,1.37-.92,3.72-3.3,3-5.38,1.43s-1.24-3.86.16-5.18C658.51,513.56,658.54,518.49,660.42,519Z"
            fill="#604027" />
        <path d="M644.47,490c.64-4.17.06-8.73,4-11.81q-2,9.24-3.89,18.47Z" fill="#604027" />
        <path
            d="M637.89,618.81c3.34,3.63,3.1,9.27,7.35,12.52,1.33,1,.26,2.52-1.47,3.36a51.27,51.27,0,0,0-5.85,3.85h0c-6.8,3.44-12.39-1.49-18.53-2.64-3.9,2-7.55-.36-11-1.2-3-.73-.62-3.58.06-5.39.59-1.58,3.69-2.44,1.42-4.79-1.16-1.2-2.22-3.2-4.21-2.53a5.17,5.17,0,0,0-3.48,5.06c0,1.34-.57,2.45-2.82,3.22,1-4.62-1.73-7.89-2.6-11.7.32-2.32,1.5-3.77,4-3.9,5.61.85,9.39-3,13.7-5.37,2-1.1,3.74-2.59,5.88-.65,1.94,1.76,1.46,3.82.66,6-2.43,6.66-2.36,6.38,4.87,6.92,3.67.27,7,1.32,9.17-2.83C635.46,617.85,636.93,617.93,637.89,618.81Z"
            fill="#58442f" />
        <path
            d="M619.39,635.9c.34-.26.7-.79,1-.76,5.93.7,11.4,3.72,17.53,3.4-2.55,2.56-6.86,1.92-9.17,5.38-1.36,2.05-4.4.47-4.31-1.22C624.68,638.65,621,638.15,619.39,635.9Z"
            fill="#6c5235" />
        <path
            d="M644.54,576.83c-.43,1.88-1.56,3.92-1.15,5.6,1.19,5-1.55,6.53-5.54,7.39-2.52-4.07-3-9.33-7.61-12.19-1.69-1-.63-2.8,0-4.13,3-6,1.77-9.82-5.31-10.91.36-1.68.85-3.36,1-5.06.37-3.32,2.34-3.89,4.3-1.8,4.4,4.67,7.87,6,10.66-1.28.24-.62,1.47-.86,2.23-1.27C649.11,560.76,644.71,568.91,644.54,576.83Z"
            fill="#9e6b3f" />
        <path
            d="M591.76,792.34c-4.77.85-9.4,3.12-14.4.38-1.85-1-3.88-.19-6,1-5.12,2.86-10.65,5-16.8,3.74l-27.81-3.94c.65-4,1.44-7.71,6.64-8.51,2.69-.42,3.5-4.3,6.61-4.62,2.61-1.24,4.61-.8,5.74,2-3.66,7.17-3.56,6.83,4.37,9.2,4.65,1.39,9.11,1,12.66-1.28,5.11-3.21,9.9-3.62,15.51-2.22a28.24,28.24,0,0,0,7.84.59A5.48,5.48,0,0,1,591.76,792.34Z"
            fill="#8c7b5d" />
        <path
            d="M496.38,775.1c4.11,1.56,9.14.21,11.78,6.25,1.27,2.92,7.18,5,11.18,5.32,6.22.53,6,2.75,3.49,6.86-4.23,1.59-8.49,3.07-13,.84-2.16-1.08-3.15-.57-4.55,1.66-4.41,7-11.66,7.4-17,1.32,2-3.41,4.84.48,7.66-.81s5.81-1.31,5.73-5.43a4.89,4.89,0,0,1,1.05-3c4-4.78,3.67-6.71-2.23-8.93C498.25,778.39,496.44,777.8,496.38,775.1Z"
            fill="#8c7b5d" />
        <path
            d="M713.39,815.87c2.19-2.53,2-6,3.28-8.92,1.82-4.08,4-7.57,8.21-6.4s4.72,6.33,4.77,10.09,1.43,8.62-4.65,10.89c-2,.74-3.15,5.67-3.31,8.76-.3,5.84-3.71,9.47-8.35,13.91V819.78C713.36,818.47,713.38,817.17,713.39,815.87Z"
            fill="#ad9566" />
        <path
            d="M637.89,618.81c-5,.16-3.13,4.9-5.12,7.76-3.09-3.14-6.27-4.45-10.88-2.9-4,1.36-5.29-2.06-4.6-5.52.33-1.61,1.66-3,2.57-4.49s1.07-2.87-.24-4.13c-1.57-1.51-2.52-.25-3.85.68-3.16,2.2-6.58,4-9.85,6.11-2.45,1.54-4.08.81-5.21-1.65q4.89-3.76,9.77-7.54c4.93-1.7,11.21-1.66,11.78-9l2.28-1.81A57.24,57.24,0,0,0,638,590.08c3.33-.27,6.88.64,10-2.17-2.46,4.94-.06,10.33-2.92,15-1.28,2.09.3,4.56,3,5.53.89.31,1.59.94,1.06,1.94-.26.48-1.23,1.13-1.41,1-9.26-6.17-7.54,3-9.62,6.77A6.46,6.46,0,0,0,637.89,618.81Z"
            fill="#403124" />
        <path
            d="M869.55,802.73c-.66,1.37-1.55,2.72-.48,4.29,1.86,2.71,1.45,4.41-1.78,5.94-1.34.63-3.69,2.16-2.62,4.66.84,2,2.21,3.26,4.65,2.53a1.73,1.73,0,0,1,1.27.21c2.1,1.32,5.69-.12,6.53,3.38a2.46,2.46,0,0,1-.88,2.17c-2.76,1.21-4.35-1.81-6.35-2.12-6.79-1-8-6.62-10.66-11.2-1.28-2.25-2.78-5.63-5.69-4-2.69,1.51-2,4.71-.34,7.53,1.06,1.79,5.49,3.9.46,6.31-5.74.57-11.33-3.19-12.78-8-.79-2.64-1.4-6.44-5.57-5.75-4.63.77-3.14,4.33-2.61,7.2.34,1.83,1.87,3.54.28,5.8-4.64-3-4-8.95-7.42-12.95-3.13,6-4.66,2.51-5.86-1.68-.82,1.17-1.46,1.66-1.5,2.19-.29,4-1.51,7.76-6.16,7.65-4.46-.1-5.3-4.5-5.69-7.75-.67-5.51-3.17-10.39-4.37-15.69-1-4.28-1.93-8,5.16-5.38-1.72-6.23-6.68-8.85-9.83-12.87a2.07,2.07,0,0,0-3.41-.23c-1.11,1.29-2.89,3.3-1.1,4.49,6.84,4.52,2.76,13,9.38,19.17-10.09-3.7-10.53,2.27-11.58,8.55-2.78-4.09-3.5-7.61-4.45-11,8.13-3.65,8.89-5.3,5.17-12.59-1.89-3.69-.85-7.66-1.61-11.37-1.17-5.68,3.08-6.2,6.35-8.12a5.92,5.92,0,0,0,2.94-6.72c-.48-2.05.49-3,2.3-3.05a2.27,2.27,0,0,1,2.63,2.24c1.16,10.69,7.5,18,15.73,24.24,1.57,1.18,8.12,2.89,1.23,6.31-1.15.57-.68,1.35-.07,2a17.45,17.45,0,0,0,7.52,5.09c1.1.36,1.49-1.3,1.46-2.43-.09-3.1,0-5.92,3.05-8.08,1.87-1.33.67-3.55-.1-5.42s-3-3.3-2.89-5.75h5.25a9.86,9.86,0,0,0,7.56-.08c6.05-2.14,11.89-1.08,17.6,1.37h1.32c1.07,1,3.91.58,3.15,3.19-.92,3.15-3.41,2.52-5.4,2.06,3.87,3.67,11.1,3.72,12.84,10.51h0c-9.82,2.44-19.72,5.67-28.51-3.58,3.84,2.8,6.5,5.34,7.24,10.18.79,5.16,7.57,8.05,13,6.59,1.85-.5,3.7-1.64,5.58-.08Z"
            fill="#473220" />
        <path
            d="M853.68,826.41c2,.07,3.06,1.05,3.85,2.92,1.89,4.44,2.08,4.47,5.45,1.29,1.29-1.23,1.89-.31,2.59.36,3.21,3,7.62,4.88,6.79,10.84-.62,4.48,3.11,5.45,7.23,4.95-2.08,4.14-1.52,8.26-1,12.78-2.72-.09-2.4-3.75-4.85-3.7-1.43.76-.27,1.86-.22,2.76.18,3.16.3,6.67-3.25,7.76-3.27,1-4-2.6-5.52-4.56-2.56-3.33-2.72-3.37-6.13-1.37-1.76,1-2.44-.62-2.9-1.54-2.14-4.22-4.05-8.55-6-12.85Z"
            fill="#7c5e3e" />
        <path
            d="M678.94,730.5c-1.92,1.42-.77,3-.41,4.68.77,3.59.09,6.26-4.54,5.27-1.48-.32-3.22-.3-2.65,1.37,1.23,3.6-2.78,6.42-.19,10.67-5.55-2.09-10.54-2.86-13.36-7.59.89-3.23,2.16-5.19,6.35-4.06,2.88.78,4.35-.77,5.67-4.32,1.26-3.39,3.71-8.28,9.11-8.63A1.76,1.76,0,0,1,678.94,730.5Z"
            fill="#6c5a3f" />
        <path
            d="M693.51,751.48c-2-7.07-9.14-10.53-11.93-17,.37-3.31,2.31-3,4.74-2.19,4.26,1.46,5.79,5,7.18,8.74.92,2.61.7,5.6,2.62,7.89q0,3.92,0,7.85C694,755.58,695.65,752.61,693.51,751.48Z"
            fill="#6c5a3f" />
        <path
            d="M693.5,741c-2.61-2.72-4.26-6.21-8.22-7.82-2.3-.94-2.5.88-3.7,1.27l-2.64-4c0-.87,0-1.74,0-2.61C688.39,729.73,693,733.88,693.5,741Z"
            fill="#4f4534" />
        <path
            d="M598.21,691.09l6.6-4c.92-1.5,2.47-1.21,3.87-1.33a.86.86,0,0,1,1.43.08c-7.1,5.6-7.13,5.62-2.21,13.17,1.05,1.61.27,3.64,1.07,5,2,3.33-1.9,8.74,4.91,10.84,2.41.74,1,6.69-2.47,9-4.1,2.82-8.47,5.24-12.59,8a3.67,3.67,0,0,1-4.24.1c-1.54-.79-3.37-2-4.85-.42-5.16,5.38-7,.65-8.48-2.95s-2.64-5.79-7.11-4.24c-1.78.62-2.23-1.58-2.45-3.13,0-2.17.12-4.33,2.86-5,4.08,1.73,8.63,2,12.19,5.48,2.4,2.34,5.9.94,8.12-1.55,2.89-3.23,5.43-6.73,8.55-9.78,1.6-1.55,2.49-4,1.37-6-1.43-2.55-3.41,1-5.2.09-2-1.84-2.7-3.7-.08-5.6h0C603,695.68,597.29,693.92,598.21,691.09Z"
            fill="#87643c" />
        <path
            d="M691.89,627.9c1.85-2.14,4.94-.76,7-2.43,2.68,2,6.09,2,9,3.4a1.12,1.12,0,0,1,.37,1c-.07.37-.15.55-.25.55-1.46.35-4,.35-4.22,1.1-2.61,7.76-9.67,6.87-15.54,8.29-2.66-1.68-3.53-3.31-.68-5.88C689.34,632.33,690.46,629.94,691.89,627.9Z"
            fill="#aa8355" />
        <path
            d="M610.11,685.82l-1.43-.08a30.1,30.1,0,0,1-1.88-4.14c-.69-2.41.63-4.27,2.41-5.59s3.41-.34,4.62,1.06c5.16,6,11.45,7.47,18.84,4.86-.08,1.26-.17,3.56-1.13,3.32-4.85-1.2-9.64,2.78-14.13.4C614.58,684.14,612.52,684.6,610.11,685.82Z"
            fill="#91704a" />
        <path
            d="M685.41,618.56c0,1.66-.21,2.68-2.48,2.31-4.43-.73-1.33,2-1.37,3.29-5.83,2.71-7.52-2.58-10.5-5.36,4.45-.56,9.15-.8,7.05-7.54-.33-1.06.55-2.46.77-3.71.29-1.68.28-3.89,2.56-3.75s1.17,2.33,1.48,3.66c.39,1.65.83,3.29,1.24,4.94C682,615,684.3,616.64,685.41,618.56Z"
            fill="#574029" />
        <path
            d="M566.46,738.36c-5.19-.38-6.15-3-3.91-7.29,1.25-2.39,2.56-4.75,3.85-7.13,2.6,2.55,1.4,5.24.06,7.72S565,736.12,566.46,738.36Z"
            fill="#6a482d" />
        <path
            d="M651.79,624.12c3,1.37,2.2,5,3.7,7.41.45.73-1.19,1.62-2.37,1.26-3.62-1.09-2.26-4.62-3.35-7C648.94,624,650.41,624.29,651.79,624.12Z"
            fill="#58442f" />
        <path
            d="M718.71,622.81c2.6-.18,2.63-2.08,2.71-3.95,5.8,0,10.09-1.6,9.52-8.53-.41-4.94,3.18-3.37,5.32-2.88,3.34.77,5.81,1.15,9-1.36,3.43-2.65,4,2,3.55,3.51-1.81,6.91,1.16,13.28,1.72,19.88.66,7.76,3.45,9.63,11.36,8.47,2-.29,3.56-.19,4.76,1.19s-.12,3-.86,4.13c-1.93,3.06-2.49,6.56-3.29,9.9-2.22,9.19-9.9,12.59-17.1,16.52-1.73.95-3.35-.57-4.93-1.24-3.34-1.4-4.62,0-4.35,3.21.47,5.66,5.17,9.58,10.82,8.45,4.8-1,7.65,2.66,11.51,3.79,2.91.84,4.65,2.27,7.41-2.18s5.82-11.23,13.71-10.45c2.17.21,3.8-.66,2.3-3.67-1.94-3.9-2.25-7.11,3.53-8.79,3.68-1.08,3.56-7.1.22-10-1.42-1.21-2.79-2.53-2.59-4.31.27-2.31,2.69-1.62,4.21-2.25,7.42-3.09,15.23,0,22.78-1.46a3.12,3.12,0,0,1,3.83,3.41c-.24,11.55-4.65,16.82-16.19,19.11-.64.13-1.35,0-2,.19-3.7,1.1-7.8,1.54-10.11,5.2-.66,1-.14,1.8,1,2.55,4.49,2.88,8.83,6.36,14.48,2.82a50.64,50.64,0,0,0,6.24-4.79c1.61-1.39,3.33-2.49,5.34-1.41,1.81,1,.51,2.61.38,4.07-.65,7.67,3.25,10.68,10.37,7.7,6.33-2.65,13.31-2.07,19.78-4.52,2.12-.81,6,3.76,10.07,2.81a16.26,16.26,0,0,1,6.49-.13c4.71.84,6,2.78,3.57,7.18a19.57,19.57,0,0,1-7.48,7.17,40.92,40.92,0,0,0-11.61,10.91c9.93-.72,16.23-9.77,26-7.3-4.67,4.53-5,7.55,2.74,7.34a3.36,3.36,0,0,1,2.45,1.81c.64,1.45-.56,2.43-1.77,3s-2.5.89-3.63,1.53c-3,1.71-8.76,4.43-7.59,5.93,2.53,3.27.44,10.7,7.92,10,1.32-.13,3.15,1.3,2.49,2.36-1.9,3.08-2.2,6.93-3.92,9.62s-5.64,3.79-10,2.73c-5.27-1.27-11.39-1.61-12.15,6.67-.22,2.35-2.52,2.1-4.23,2A45.52,45.52,0,0,0,827.69,751c-9,2.6-11.89-1.21-10.86-10.28.43-3.85-.57-7.36,2.69-10.55,1-1-1-2-2.36-2.22-6.82-.91-13,1.28-19.12,3.9-1,.41-2.29,1.1-1.66,2.38,2.72,5.55-.61,9.37-3.61,13.33-2.72,0-5.29-.25-5.41,3.78-.1,3.66-2.64,2.84-4.67,1.66-9.22-5.36-18.39-10.82-27.56-16.27-1.74-1-3.22-2.45-3.43-4.57-.69-6.67-2.87-13.28-.25-20.07,1.1-2.84,1.34-5.78-1.79-8.13-1.56-1.17-3.8-2.33-3.68-4.92.47-.25.89-.67,1.21-.61,2.17.39,4,4.06,6.24,1.57s1.29-6,.62-8.83-4.16-4.76-6.15-3.74c-9.69,4.94-21.09,1-30.55,6.27-3.14-3.32-6.29-6.64-9.41-10-.86-.92-2.26-1.73-1.86-3.19.46-1.67,2.16-.95,3.34-1.28,11.66-3.27,16.85-10.9,8.14-17-11-7.73-6.82-16.49-5.75-24.79.24-1.91.81-3.93-1.08-5.44a2.81,2.81,0,0,1-.9-2.59C711.78,625.84,715.61,624.81,718.71,622.81Z"
            fill="#1e160f" />
        <path
            d="M710.59,629.13c0,1,.09,1.9.14,2.84-3.83,3-.65,9.92-6.56,11.83-3.09-5.67,2.7-8.85,3.8-13.35,0-.35.12-.7.19-1.05A1.77,1.77,0,0,1,710.59,629.13Z"
            fill="#362e24" />
        <path
            d="M591.76,792.34c-3.38-2.82-7.69-1.72-11.52-2.47-2.55-.51-5.2.47-7.87-1.28-1.76-1.15-3.79.59-5.8,1.65-5.09,2.68-10.35,6.39-16.65,2.71a5,5,0,0,0-2.48-.4c-3,0-7.2.68-8-2.47s3.23-5.11,5.81-7a7.88,7.88,0,0,1,2.49.5c3.52,1,5.22-2.53,8.06-3.21l1.35-1.3c8.86-3.49,19.42-3.75,25.17-13.12,6.29-6.55,16-5,23.38-9.57,1.55-1,6,.59,9.28-.73,2.91-1.15,5.65-1.87,7.5-4.74s4.74-2.82,6.77-.57c5.4,6,12.61,3.72,19.05,4.33,5,.48,10.44-1.9,14.6,2.8,2.67,3,4.83,5.84,1.52,10.12-2.67,3.47.27,6.31,2.59,8.87a4.3,4.3,0,0,1,0,5.33c-.39-.1-.78-.18-1.17-.25-2.3-3.93-5.7-1.94-8.62-1.34-1.94.39-3.66,1.67-4.78-1a64.33,64.33,0,0,1-14.52,5c-2.25.41-3.82.47-4.41-2.09.41-1.7,1.75-2.39,3.24-2.91,1.24-.42,3.19-.49,3.53-1.49,2.89-8.53,11.71-8.1,17.8-11.68,1.56-.92,1.1-1.5.76-2.29-1.36-3.21-4.13-4.19-7.38-4.53-3.93-.42-7,1.87-10.34,3.15-.55.21-.1,1.59.16,2.44.46,1.51,3.88,2.91.58,4.6a6.07,6.07,0,0,1-7.3-1.1c-1.87-1.83-2.81-4.43-5.58-6.44,1.75,5.71-5.83,6.14-5.41,11-3.62,3.11-6.57,7.48-12.37,6.44-2.82-3.18-3.64-7.39-5.66-11-1.35-2.42-3.34-3.82-5.92-2.88-3.41,1.24-7.26,2.33-9.17,5.72-.85,1.5,1.71,2.27,2.36,3.52,2,3.87,8.49,3.47,8.63,9-.27.67-.89,1.17-1.49,1-4.38-1.46-6.25-.38-4.87,4.42.17.56-.41,1.2-.94,1.62l.12.42Z"
            fill="#ab976c" />
        <path
            d="M668.37,784.31c2.88-3.62,8.44-5.21,8.21-11.23-.08-1.91,1.58-1.5,2.9-.93a9,9,0,0,1,4.78,4.29c-3.1.86-5.22,3.21-2.53,5.48,3.47,2.92,1.74,5.19.69,8-4.51-.9-4.52-6.89-9-8-1.65,3.07,3,4.3,1.61,7.39C671.57,789.38,670,786.75,668.37,784.31Z"
            fill="#4a4637" />
        <path
            d="M872.18,789.59c-4-4-9.07-6.48-14-9.11-1.28-.69-4.36.81-3.71-2.05s3.14-1,4.92-.75c1.38.18,3,1.62,4.12-.27,1.23-2-1.53-2.24-1.91-3.58,4.83,3,8.14-1.23,11.84-2.74,9.34-3.82,19.54-6.21,26.55-14.34h0c2.57.62,6.27-1.67,7.56,1.86,1.09,3-.93,5.09-3.85,6.58-1.51.77-3.33,2.87-.78,4.65s5.07,2.07,7.46-.81c4.33-5.23,10.76-7.39,16.56-10.39a7.69,7.69,0,0,1,7.61.28c5.1,3.29,9.58,1.24,13.16-2a36.8,36.8,0,0,1,11.75-6.78c1.35.46,2.18,1.25,1.77,2.81-.8,4.42.69,9.15-1.76,13.36l-5.12-8.21c-.05,6.07,3.41,10.54,3.91,15.68-4.45.87-8.82,2.51-13.47,1.24-3.93,1.28-7.62,3.4-12,2.77-1.85-.25-3.64.11-2.83,2.89,1.07,3.7.41,5.56-4.15,4.08-3.28-1.06-5.55,1.45-6.89,3.81-1.45,2.58,1.52,7.52-4.34,7.79,4.57,5.57-2.29,6.24-4,9.12-1.14,1.93-2.71,2.81-5,1.94-1.07-.41-2-.67-2.47.93-1.1,3.92-1.14,3.89-4.19,1.77a29.82,29.82,0,0,1-8.78-8.66c-3.44-5.52-2.54-10.38,3-13.24,2-1,3.35-2.37,3.36-4.41s-2-2.11-3.48-2.19c-2.69-.12-2.88-4.82-6.9-3.22,4,4.17,4.73,7.29-2.54,7.25-.77,0-2.14.61-2.23,1.11C880.08,793.8,875.56,789.82,872.18,789.59Z"
            fill="#34271a" />
        <path
            d="M900,756.75c-5.77.37-11.16,1.4-15.77,5.5a11.5,11.5,0,0,1-13,1.47c-4.26-2.14-4.08-7.5-5.12-11.5-.67-2.59,3-3.07,5.42-3.33A62,62,0,0,0,892,742.82c-3.29-3.5-8.1-2.78-11.58-5.83,6.26-4.9,13.53-7.84,20.4-11.26,10.37-5.15,22.08-4.06,33.23-5.6a2.59,2.59,0,0,1,2.18.88c.73,1.51-.64,2.38-1.61,3.18a35.17,35.17,0,0,1-16.69,7.36c-7,1.16-9.84,7.63-15.43,10.47-1.44.73-1.52,2.76-.41,4.1,3.73,4.47,1.09,7.58-2.11,10.63Z"
            fill="#1e160f" />
        <path
            d="M868.17,717.41c4.79-6.53,12.12-9,18.51-12.19A62,62,0,0,1,913.89,699c1.52,0,3.36-.05,3.68,1.87.24,1.43-1.17,2.3-2.3,2.91-2.78,1.53-4.36,4.2-6.53,6.26-7.17,6.82-15.49,10.92-26,8.92C878.18,718.07,873.32,719.07,868.17,717.41Z"
            fill="#1e160f" />
        <path
            d="M860.27,773.82c-8.37-.66-16.85.7-25.16-1.29,3.29.07,5.75.22,7.24-4.26,2.27-6.79,14.22-10.1,20.79-6.74,3.79,1.94,4.16,6.23.62,9C862.5,771.57,860.23,771.43,860.27,773.82Z"
            fill="#34271a" />
        <path
            d="M841.6,762c-.2,3.54-6.4,9-8.9,8.81-.89-.07-9-8.75-8.6-9.32,2.47-3.44,6.3-3.31,9.95-3.34C837.53,758.07,840.39,759.28,841.6,762Z"
            fill="#1e160f" />
        <path
            d="M956.66,734.43l0,5.27a17.12,17.12,0,0,0-7.47,6.06c-1.51,2.33-3.68,2-5.8,1.42a3.23,3.23,0,0,1-2.25-2.91c-.36-2.49,1.4-3.43,3.21-4.27C948.41,738.11,952.54,736.28,956.66,734.43Z"
            fill="#1e160f" />
        <path
            d="M961.21,753l-1.77-2.81.12-2.64c1.19.19,3-1.31,3.44.23C963.55,749.56,964.48,752.17,961.21,753Z"
            fill="#34271a" />
        <path
            d="M599.47,704.06c2.44.08,3.91-5.74,6.85-1.41,2.23,3.3.6,7-1.82,9.25a39.88,39.88,0,0,0-7.77,9.11c-1.79,3-6,4.45-7.79,3.51-4.87-2.52-10.27-4.41-14.39-8.28l1-.44c1.64-4.11,6.08-3.82,9.17-5.61C589.31,707.5,594.47,705.93,599.47,704.06Z"
            fill="#ae8a58" />
        <path
            d="M599.47,704.06c-5.37,5.38-12.58,7-19.4,9.43a37.27,37.27,0,0,0-4.54,2.31c-3-2.9-.61-7.07-2.45-10.24-1.64-2.09-.56-3.75,1.1-4.95s2.8.42,4,1.24c1.76,1.21,3.33,3,5.81,1.54,4.85-.76,8.87-2.84,11.57-7.06,1.46.65,1.88,2.84,4,2.58C598.33,700.62,599.45,702.34,599.47,704.06Z"
            fill="#6c5235" />
        <path
            d="M583.53,704.37c-2.38,2.93-4,.87-5.72-.85-3.43-3.53-4.26-1.17-4.73,2-1.82.77-1.16,5.08-4.48,3.42-3-1.47-.63-3.82-.27-5.73,1-5.15,5.68-8,8.34-12.09,1.52-2.35,5,1.69,7,3.84C586.3,698.17,585.17,701.27,583.53,704.37Z"
            fill="#302719" />
        <path
            d="M583.53,704.37c.05-3.13.11-6.25.16-9.37,2.34-2.61,7.57-2,11.87,1.33C595.06,704.18,589.09,704,583.53,704.37Z"
            fill="#a07f45" />
        <path d="M598.21,691.09c.2,2.65,7.32,4.17,1.29,7.83.77-3.63-2.66-5.2-3.92-7.83Z"
            fill="#6c5235" />
        <path
            d="M546.61,784.33l-1.33-1.27c-1-2.44-3-2.79-5.29-2.67,4.06-3.95,8.89-.22,13.24-1.31C553,783.27,549.87,783.9,546.61,784.33Z"
            fill="#937853" />
        <path
            d="M546.61,784.33c1.49-2.64,5.37-2.31,6.62-5.25l2.6,1.27C553.38,783.1,551.78,787.79,546.61,784.33Z"
            fill="#8c7b5d" />
        <path
            d="M633.94,781.74c5.58,1.89,10.48-.82,15.48-2.44,1.15-.37,1.9-1.73,3.05-.15-1,3.71-4.85,3.47-7.34,5-5.88,3.5-12.74,4.49-19.38,5.77-2.52.48-2.35-2.11-2.31-3.73.06-2.74-.69-5-3.66-5.25-3.16-.28-2.86,2.75-3.56,4.63-1,2.74-1.47,5.92-5,6.66-3.24.68.22,3.68-2.34,4.91-2.16-8.1-9-5.88-14.71-6.38a18.31,18.31,0,0,1,0-2c.22-2.16-4.44-3.9-1-6.06,2.58-1.61,5.42-.27,7.73,1.62,3.09-2.61,8.86.13,10.58-5.23,4.82-.62,7.28-5.45,11.84-6.54C630.79,771.56,631.73,772.37,633.94,781.74Z"
            fill="#9a8a68" />
        <path
            d="M700,624.93c-2.36-2.88-2.82-5.66-1.09-9.34,2-4.36-.19-7-4.84-6.69-2.72.18-1.54-1.94-1.94-3.13,5.35-4.26,11.24-1.36,12.52,6.16.93,5.41,2.28,6.38,6,4.32,2.29,3,6.75,1.33,9.07,4.22C714,625.44,708,629.32,700,624.93Z"
            fill="#62513b" />
        <path
            d="M700,624.93c.34-.24.82-.76,1-.68,7.23,3.52,12.49-2.44,18.7-3.78l-1,2.34c-1,4.28-5.61,4-8.12,6.32l-2.43.27c-3.62-.11-7.88,1.28-9.31-3.93A8.39,8.39,0,0,0,700,624.93Z"
            fill="#c2a57c" />
        <path
            d="M685.41,618.56c-2-.82-4.63-1.06-4.63-3.86,0-1.86,1.72-2.29,3.38-2.3A7.92,7.92,0,0,1,685.41,618.56Z"
            fill="#7c6f59" />
        <path
            d="M942.28,784.32a81.61,81.61,0,0,0,4.19,36.73c1.21,9.29-.15,18.65.76,28a1.66,1.66,0,0,1-2,1.93c-1.73-13.65-6.86-26.53-9.15-40.06-1.05-6.16-1.11-12.55-3.83-19-.24,3.28-.44,5.93-.64,8.65-2.81-.36-2-4.31-5-4-3.28-5.71,2.14-7,5-7.09,4.54-.14,8.46.52,8.83-5.52Z"
            fill="#4c3520" />
        <path
            d="M869.48,802.69c-6,2.68-12,4.55-17.37-1.4-.57-.64-1.74-1.06-1.87-1.73-1.12-5.81-3.07-10.61-9.74-12.41-1.87-.51-.8-2.56,1.26-2.76a8.94,8.94,0,0,1,6.69,1.87c4.38,3.3,8.48,8.33,14.9,2.4,2.2-2,5.75,1.27,8.84.92a23.86,23.86,0,0,0,2.75,2.67c3.46,2.47,2.78,4.67-1,5C869.93,797.56,869.25,799.47,869.48,802.69Z"
            fill="#34271a" />
        <path
            d="M908.08,828.77c2.63,3.76-.06,8.08,1.28,12-.08,1.78-.17,3.56-.26,5.34-1.07-1.36-2.15-2.72-3.22-4.09-1.85-2.38-3.55-4.69.47-6.74C909.22,833.79,907.27,830.88,908.08,828.77Z"
            fill="#5e442b" />
        <path d="M918.27,827.63c-.41,5.22,2,10.62-1,15.67,0-4.35-3.35-7.58-4-11.72Z"
            fill="#5e442b" />
        <path
            d="M585.75,681.22a1.33,1.33,0,0,1-1.08-.09c-4-2.85-2.87-13.12,1.66-15.69,1.52-.86,3-1.72,4.91-.68,2.17,1.2,1.51,2.79.88,4.49-.94,2.56-.11,4.62,1.79,6.49,1,1,3,2,2.33,3.62-.93,2.41-3.06.19-4.62.64S588.2,680.73,585.75,681.22Z"
            fill="#d6b982" />
        <path
            d="M857.46,846.23a18.27,18.27,0,0,0,3-11.27c2.16,4.19,4.68,6.54,3.42,9.78C862.9,847.16,860.4,846.9,857.46,846.23Z"
            fill="#5e442b" />
        <path
            d="M776.89,688.45c7.28,3.68,13.83,9.15,23,8,3.23-.4,6.4,1.17,10,3.45-5,3.09-8.71,6.87-8.77,12.81,0,1.29-.79,3-.23,3.82,4,5.94-1.67,8-4.52,10.87-3.37,3.4-7.31,3.09-11.35.58-3.64-2.28-8.73-1-12-4.82a2.3,2.3,0,0,0-3.78,1.06c-2.42,7.22-6.74,2.16-9.95,1.27-3.81-1-4.46-3.1-3.16-7.79,1.48-5.38-.13-11.66.66-17.64.62-4.69,1.61-7.09,6.95-8.29,4.33-1,8.3-3.74,13.11-3.33Z"
            fill="#15100b" />
        <path
            d="M776.89,688.45c.15-1.69-.49-3.62,1.12-4.9,1.2-.95,2.63-2,4.22-1.26a3.5,3.5,0,0,1,2.09,3.75c-.26,1.83-1.83,2.3-3.46,2.37-1.32.06-2.65,0-4,0Z"
            fill="#15100b" />
        <path
            d="M633.94,781.74c-.52-.38-1.46-.71-1.51-1.14-.65-5.39-3.83-7.87-9.11-8.06-.57-1.75-2.15-3.35.1-5.25,3.37-2.85,3.7-4.13,2.9-7.95,7.65-1.11,6.75,12,16,8.73-5.54-1.69-1.66-6.35-4-9.65,3.86,3.05,6.15-.48,9-1.11,9-1.92,13.2,2.15,13.38,12.55-2.12-1.78-4.73-5.94-5.67.35,0,.39-1.92.52-2.94.77-3.45.85-7.6-.41-8.37,5.67C643.26,781.14,637.23,779.85,633.94,781.74Z"
            fill="#beac7f" />
        <path
            d="M611.48,779.08c.78,10.32-6.86,3.88-10.58,5.23-1.52-5.37-7.65-5.36-10.82-9.17-2.94-3.54-3.54-5.41.72-7.34a37.39,37.39,0,0,0,5.66-3.17c4.58-3.08,8.82-1.52,11,3.62C609,771.8,611,775.15,611.48,779.08Z"
            fill="#c2b185" />
    </g>
    <g id="frame">
        <rect width="1000" height="1000" fill="none" />
    </g>
</svg>