<!-- Copyright (c) 2023 Jan Stehno -->
<svg xmlns="http://www.w3.org/2000/svg" viewBox="0 0 1000 1000">
    <title>easterncottontailrabbit</title>
    <g id="easterncottontailrabbit">
        <path
            d="M770.87,571.83l12.93,7.71c5.45,2.54,9.43,7.69,16.13,8.27,3.45.3,6.11,3.68,8.14,6.85,3.17,3.85,7.56,6.69,6.92,13.08-.32,3.22,0,6-4.28,7.21,10.83,7.51,21.14,12.85,33.53,14.08,7.83.78,14.86,4.56,18.09,12.84,1.83,4.7,4,8.51,9.81,8.55,2.89,0,3.43,1.88,2.35,4.5-1,2.37-3.27,4-3.44,6.76a7.22,7.22,0,0,0,1.1,1.11c4.06,3.53,9.65,5.34,11.74,11,4.24.38,7.59,1.42,6.25,7.1-.66,2.8,1.21,4.89,3,6.82,2.45,5.24,7.38,8.19,11.12,12.22,2.29,2.46,3.31,3.79,0,5.78-2,1.17-3.69,2.65-2,5.18,1.44,2.2,3.39,4.19,6.18,4s2.74-2.86,2.77-5c0-3,1.55-3.8,4.14-3.29a18.16,18.16,0,0,0,3.76.56c5.71-.09,8.94,3.07,8,8.78-.65,3.89-.66,7.11,1.92,10.24.94,1.15.7,2.9.46,4.42C928,739.7,918.76,746,910,743.93a3.73,3.73,0,0,0-2.84.18c3.39,7.46,11.63,17.13-6.91,18.7,3.33,1.61,5.47.38,6.7,1.93a3.9,3.9,0,0,1,.22,3.65c-3.87,3.16-8,4.4-12.69,1.87a17.59,17.59,0,0,0-4.68-6c-3.24-2.48-5.36-5.57-3.24-10,1.62-3.42-.61-3.56-3-3.45-2-1-2.58-2.64-2.28-4.75a4.59,4.59,0,0,1,.85-1.64c.6-.79,1.94-1,1.79-2.4-.74-7-.73-7,6.75-5.61-1.65-1.82-1.19-4-1.61-6-3.14.64-5,5.84-8.9,2.61-4.48-3.72-5.52-8.47-3.16-13.91.89-3-1.38-6.47,1.47-9.11,1.71-2.8.5-4.74-1.58-6.76-6.69-6.52-6.93-9-1.85-17.28-5.76.55-6.48-2.77-5-7.3-3.68-.34-6.11.51-8.41,3-2.81,3.08-5.46,1.85-7.73-1.38-2.39-3.41-4.54-6.6-3.68-11.26.23-1.25,1.15-4.82-2.55-4.85-.28,0-.68-.68-.64-1.06.78-6.54-4-10.16-6.93-15-1.93-3.24-3.72-4.94-7.16-5.07-5.07-.19-10.26.26-14.55-3.47a1.65,1.65,0,0,0-2.69.54,9.17,9.17,0,0,0-1,3.74c-.22,2.23,1.5.84,2.15.79,3.26-.28,4.73,2.2,6.87,3.95,3.68,3,5.84,7.44,9.83,10.08a3.06,3.06,0,0,1,1.29,4c-.65,1.37-2.11,1.4-3.36,1.22a15,15,0,0,0-8.69,1.42c-2.68,1.25-4.87.14-7.17-1.23-8.49-5.08-12.35-4.89-19.81,1.82-4.88,4.39-9.43,6.88-15.92,3-3-1.8-6.68-.55-9.4,2s-6,4-9.85,2.84c-1.7-2.58-1.5-5,1.29-6.39,2.35-1.2,3.54-3.57,5.59-5,2-2.22.59-4.29-.87-5.61-4.15-3.77-2.91-7.08.53-10.35-1.59-1.42-5-.57-4.27-3.88.69-2.89,2.88-4.15,5.78-4,4.78.23,8.44,4.61,6.4,8.87-2.45,5.12-.28,8.16,4,12.88-1.83-9,2.6-13.89,7.32-18.75,2-2-.4-4-.65-6,1.21-8.19,7.4-4.88,12.29-5.2a44.6,44.6,0,0,0-12.48-13.76c-3.21-2.22-4.84-4.91-2.75-8.76,3.79-7-.75-13.48-1-20.23-.06-1.94-1.93-1.94-3.47-2-8.16-.38-12.56-6.71-17.28-12-2.84-3.19.77-4.76,3.13-6.17C767.44,567.35,768.54,570.54,770.87,571.83Z"
            fill="#724c3e" />
        <path
            d="M745.36,797.37a44.66,44.66,0,0,1-.59-6.39c.24-4.81,0-9.12-5.56-10.91-.9-.29-1.74-1.94-1.93-3.08-.83-4.81-3.91-7.86-7.46-10.62a2.29,2.29,0,0,1,1.31-1.19c3.35-.53,5.08,1.72,6.62,4.13,1.36,2.12,2.72,4.2,4.85,7.09a17.34,17.34,0,0,1-.7-10c.78-3.85,2.65-7.2,7.32-6.39,3.61.63,5.55-.75,7-4,1.21-2.78,3.57-4.82,6.63-3.73,3.92,1.4,6.9.42,10.09-1.86a11,11,0,0,1,7.21-2.21c6.75.49,10.94-3.57,10.82-10.38,0-.87-.05.22-.05-.65,0-2.41-1.89-6,1.7-6.6s5.43,2.72,6.43,6a6.73,6.73,0,0,1,.11,3.87c-1.75,5.41.45,9.2,5.27,12.76-2-6.49,2.33-8.66,6.17-11.18,1.15-.63,2.56-.49,3.64-1.17,3.94-2.49,7.83-2.55,11,1,2.49,2.83,1.08,10.65-2,13.57-3.87,3.72-5.16,9-7,13.69-2,5.33-6.8,6.88-10.57,9.75-2.3,1.75-3.77-.62-4.89-2.57-.86-1.49-1.59-3.32-3.85-2.13a4.15,4.15,0,0,0-2.2,4.34c.06.86-.23-.1.11.63,5.33,11.25-.91,20.44-5.08,30a11.7,11.7,0,0,0-.65,1.83c-.11.43-.12.85.32,2.32a12.9,12.9,0,0,0,5.58-8.72c.94-4.71,3-7.35,7.91-3.9,1.24.88,2.4,1,3.31-.37a36.42,36.42,0,0,1,6.89-7.62c1.8-1.49-.17-3.12-.52-4.7-.92-4.21,1.27-6.51,5.22-5.05,3.21,1.18,6.59,1.65,8.95,5.44,2.25,3.59,6.61,5.54,10.91,1.68a3,3,0,0,1,3.5-.79c.93,1.2.45,2.39,0,3.59a29.45,29.45,0,0,1-10.45,11.92c-1.5,1-2.93,1.93-4.68,1.59-3.3-.64-5.81.5-7.93,3-.7.82-1.71,1.8-2.65,1.69-9.37-1-14,6.3-19.78,11.53-1.82,1.64-3.79,3.05-6.16,3.19-6.92.41-11.12,4.82-14.8,10-1.4,2-2.67,4-5.36,4.1-5.51.25-4.81,2.9-2.44,6.32,3.8,5.47,2.61,8.74-3.59,10-3.93.81-6.45-.74-6.43-4.9a15.36,15.36,0,0,0-2.63-8.51c-3.61-5.76-2.27-12.57-3.78-18.78.62-3.85-1.09-7.09-2.38-10.51C746.22,808.35,745.76,802.85,745.36,797.37Z"
            fill="#4a3933" />
        <path
            d="M577.83,662.94c2-11.9,11.13-19.58,17-29.2A90.47,90.47,0,0,1,611.14,614c2.81-2.58,3.46-6.34,5.37-9.31,6.28-9.81,15.2-17.26,24-24.54,4.17-3.48,7.9-8.6,14.14-9.07-.78,4.2,2.38,9.94-4.9,11.6-2,.45.17,5.58-3.89,5.54,4.14.56,7.32-.5,8.63-5.09.72-2.55,3-3.46,5-4.73,3.38-2.23,7.32-4.18,9.29-7.7,2.23-4,3.93-6.43,7.88-1.8,1.94-8.5,6.52-14.64,11.26-20.7h0a1.16,1.16,0,0,1,1.6-.07c2.14,3.52.36,6.53-1,9.74-2.28,5.38-1.47,6.72,4.27,7.52a10.42,10.42,0,0,1,6.93,4.22,63.22,63.22,0,0,1,9.69,17.23c2.88,7.93,4.44,17.06,11.07,23.34,1.23,1.76,1.63,3.44-.48,4.85-2.88.2-4.06-2.85-7.14-3.88,1.41,6.09-6.7,5.73-6.48,11.16,1.48-1.12,3.16-4,4.52-2.63,2,2,4.88,3,6.43,5.48a1,1,0,0,1,0,1.22c-5.66,5.74-1.13,13.35-3.5,19.69a8.54,8.54,0,0,1-2.66,2.49c-6.39,2-6.26,1.87-6.31-4.34-.06-6.67-.06-13.34-8.12-16.58-4.75-1.91-5.14-5.92-3-10.93,1.13-2.6,3.31-4.5,4.3-7.12-.79-1.55-2.42-1.78-3.61-2.62-2.29-1.61-3.74-4.91-6.3-5.28-3.41-.5-1.19,5.17-4.51,5.73a7.06,7.06,0,0,0-1.16.54,57.57,57.57,0,0,0-9.22,2.79c-5.59-.85-11.07-2.38-16.8-2.31a4.78,4.78,0,0,1-5.1-4c.63-4.4,4.61-5.25,7.39-7.37-4-.57-7.31,1.28-10.69,3.15s-6.47,4.07-11.22,2.35c-3.57-1.28-5.15,3.4-7.11,6.17-4.27,6.05-5.42,13.59-9.4,19.75-1.14,1.77-.54,3.79-.68,5.71-.47,6.89-5.26,9.58-10.91,5.92-3.45-2.23-4.93-2.65-6.18,2.36-1.35,5.34-4.49,10.39-7.46,14.83-1.68,2.52-4.93,5.06-7.35,7.71-1.54,1.68-2.69,4.75-5.43,3.3-3-1.57-1-4.38-.1-7.34a3.7,3.7,0,0,1-3.56,2.33Z"
            fill="#956754" />
        <path
            d="M696.68,517.86a195.24,195.24,0,0,1,6.54-28.08,130,130,0,0,1,19.36-39.59c3.79-5.14,6.76-10.78,11.4-15.45,16.11-16.19,34.77-27.22,57.13-31.19,4.41-.78,8.07-5.51,13.15-2.63a8,8,0,0,1,4.39,6.73,10.83,10.83,0,0,0,1.13,4.35c2.82,5.54,1.92,10-2.64,13.88-2.75,2.33-4.26.67-5.48-1.64-1.4-2.68-2-5.72-3.52-8.36-1-1.7-2-3.69-4.12-3.69-4.34,0-6.69,4.57-10.72,5.32-4.71.87-6.33,3.81-6,8.34.07,1.09.24,2.62-.48,3.13-8,5.65-10.66,18.34-24.14,16.89-9.64-1-12.88,2.5-16.4,12-2,5.48-4.5,10.75-7,16a15.63,15.63,0,0,1-.82,2.76,83.5,83.5,0,0,1-7,12.72c-1.64,2.27-1.48,5.52-3.82,7.38-4,3.23-6.29,6.41-.94,10.68,1.42,1.14,1,3.67,1,5.61.11,6.28-.21,12.56.46,18.82.39,3.67-1,6.84-3.08,9.66-2.53,3.43-6.36,3.86-9.37.89C698.94,535.74,693.75,528.32,696.68,517.86Z"
            fill="#493530" />
        <path
            d="M705.78,752.93c-1.08.16-2.1.16-2.61-1.11-6.95-4.48-14.92-2-22.34-3.34-18.78-3.52-37.29-.36-55.81,2.7-8.5,1.4-17,1.42-24.21-4.61l0,0c-1.17-5.64-.65-6.55,4.23-5.63s8.9.23,12.89-3.07a29.44,29.44,0,0,1,12.61-5.62,8.21,8.21,0,0,1,4.78.31c6.8,1.21,13.68,1.78,20.56,2.31,1.66.13,3.56-.62,5,.16,8.88,4.74,18.65,2.07,27.9,3.62,2.77.46,5.39-.95,8.08-1.57,4.71-1.09,9.62-2.5,13.46,2.34,1.71,2.16,2.61,1,3.6-.93,4.46-8.56,8.35-10.4,18.41-8.63,2,.36,3.16-.43,4.35-1.84,6.42-7.62,6.44-7.6,14.58-2.72,1.34-.58.93-1.77.84-2.78-.25-2.67.41-4.86,3.23-5.5s3.45,1.62,4.5,3.59c2.69,5.06,3.75,5,7.27.13,2.58-3.6,5.65-3.88,8.2-.35,1.66,2.28,2.94,4.59,5.85,5.62s2.76,3.58,2.12,6c-1.31,5-3.78,9-8.62,11.45a125.43,125.43,0,0,1-37.38,11.86,9.36,9.36,0,0,0-4.17,1.5c-4.41,3.18-9.06,3.36-13.93,1.31C715,755.76,711.05,752.62,705.78,752.93Z"
            fill="#221f1e" />
        <path
            d="M764.54,568c-3.37,2.63-2.85,4.16.28,7.36,4.8,4.93,9.17,9.32,16.59,8.25a1.82,1.82,0,0,1,2.16,1.86c-.38,8.08,5,16.09.47,24.15-1.24,2.21-1.21,2.81,1.11,4.25,6.07,3.78,9.42,10.55,14.89,15.08.91.75,1.59,1.52.75,2.66-1,1.42-2.45,1.47-4,.83-4.3-1.8-8.26-2.33-10.52,3.1-1.48,1.29-2.83.61-3.63-.68-1.34-2.17-3.48-1.84-5.41-2.27-4-1-5.84-3.56-4.67-7.69.78-2.78.07-4.66-2.26-6-2.61-1.55-3.85.83-5.42,2.08s-2.61,2.89-4.18,4c-1.93,1.4-4.71,2-5.65-.15-2-4.69-5.61-2.73-8.7-3.11-5.13-2.82-8.26-6.63-6.76-13.11.79-3.42-1.21-5.76-3.79-7.62-5.09-3.65-6.9-8.43-5.33-14.71,1.24-4.94-1.39-10.07,1.33-15.26,2.26-4.3,4.43-4.46,8-2.56,3.27,1.71,5,5.29,8.43,6.91-.23-4.67-2.78-7.27-6.2-10.22-5-4.3-4.48-10.84-3.09-17a9.59,9.59,0,0,1,.61-1.83c1.25-1.65,1.83-4.42,4.89-3.08,1,1.85.09,3.79.25,5.68.21,2.37.31,5,3.37,5.33,3.21.3,4.2-1.92,4.65-4.81s-.5-7.15,4.36-7.66c-3.59,7.43-.16,13.51,3.61,19.52C761.71,563.71,764.12,565.28,764.54,568Z"
            fill="#513730" />
        <path
            d="M740.31,546.94c.44,4-1.66,8.06,0,12.08,1.42,3.38,1.61,8.13,7.35,6.58,1.19-.32,2.51.94,2,1.74-2.17,3.64-.67,5.88,2.21,7.94a1.42,1.42,0,0,1,.25,2.23,2.77,2.77,0,0,1-2.32.55,13.71,13.71,0,0,1-7.06-5.14c-1.9-2.85-6.24-5.65-7.61-4.11-2,2.18-4.72,5.8-3.48,9.72a16.28,16.28,0,0,1-.07,10.12c-1.63,5.32,1.6,8.61,5.41,11.28,2.35,1.65,5.36,3.28,4.39,6.4-2.06,6.62.73,11,5.26,14.94,1.78,2.63.84,4.38-1.73,5.6-5.21-3-7.59-8.19-10-13.33-.61-1.31-.46-3-2.2-3.56-1.32-.45-2.59-2-4-.75s-.41,2.73.49,3.92c1.63,2.12,2.38,4.12-.45,5.87-5.88-3.45-8.09-7.31-6.72-11.75.43-.39.65-1,1.13-1.32-.74.23-.73,1.16-1.4,1.49-1.64.62-2.9-.15-4.11-1.1-3.22-5.09-3.34-11.27-5.76-16.8-2.53-5.77,3-11.13,10.56-12.29,5.43-.83,6.87-3,4.66-8.07-2-4.56-2.66-10-8-12.64-2.4-1.2-4-1.85-6.26.06-3.26,2.78-6.71,5.33-10,8-4.33,3.55-6.34,2.6-6.93-2.92-.21-2-.17-4-.93-5.77-2.53-5.92-2.79-11.73.24-17.56.5-1,.24-2.14.21-3.22.72-5.75-1.2-11.69,1.2-17.31-2.53,10.44,5,16.59,10,23.63,1.8,2.5,5.11,2.71,6.92-.47s3.45-5.89,2.76-10.21c-1-6.36-.33-13-.39-19.52,0-2.15.35-4.7-2.86-4.72-4.29,0-3.28-2.94-2.08-4.75,3.09-4.71,6.67-9.09,10.05-13.59,2.15,2.15,1.86,4.89,1.07,7.3-1.72,5.25-1.67,10.62-2.11,16-.62,7.53.27,13.71,6.69,19,5.46,4.52,4.92,11.51,3.12,18.1-.44,1.61-3,3.55-.17,4.9,2.3,1.11,4.5.11,5.95-2.3C736.77,549.39,737,546.38,740.31,546.94Z"
            fill="#5c3d36" />
        <path
            d="M727.55,473.91c4.88-8,6.12-17.57,11.91-25.3,3.75-5,8.35-4,12.81-4.61,3.74-.51,7.61.21,11.11-2,1.85-1.19,3.41-2.15,3.88-4.7.6-3.25,2.15-6,6-6.62,2.26-.37,2.8-2,2.56-4.38-.53-5.21-.45-10,6.86-10.11,3.05,0,5-3.07,7.4-4.83,3.83-2.81,6.76-1.94,8.75,2.08,1.62,3.27,2.8,6.77,4.14,10.18.45,1.16.54,2.7,2.34,2.4,1.19-.21,6.44-9.94,5.66-10.7-4-4-2.3-10.64-6.67-14.36.42.05.92-.05,1.23.16,5.65,3.73,11.25,19.28,8.64,25.51-7,16.57-9.66,34.32-14.09,51.58a94.88,94.88,0,0,1-16.17,33.74c-2.36-3.14.37-5.67,1.66-7.54,3.48-5,5.17-10.84,8.12-16.51-2.91,2.28-3.77,5.15-4.71,8.26-3,9.7-8.8,17.58-16.23,24.25a3.67,3.67,0,0,1-4.12.91c-3.28-6.87-.4-11.83,4.8-16.07a14,14,0,0,1,1.42-1.12c4.23-2.57,7.14-6.1,7.84-11.24a36.8,36.8,0,0,1,1.78-5.44c3.68-9.27,6.42-18.75,6.73-28.83.62-4,2.45-7.5,4-11.13,1.71-6.72,5.78-13.37.52-20.28a2.93,2.93,0,0,0-2.25-1.24c-.38,7.22-8.49,9-10.63,15.53-.81,2.51-3.94,3.42-6.3,4-5.92,1.53-11.8,3.68-18,3.46-8.13-.29-13.87,3.45-17.4,10.67A46.9,46.9,0,0,1,731.88,472C730.71,473.15,729.59,474.67,727.55,473.91Z"
            fill="#5a3d36" />
        <path
            d="M814.37,968.39c-2.54,1-.44,3.57-1.93,5.38-3.63-3.22-7.76-5.62-8.65-11.48-.52-3.42-3-6.53-4.6-9.77a38.18,38.18,0,0,0-3.15-7c-1.84-2.83-3.55-6.51-8.45-4.46-3.15,1.33-4.88-1.26-5-4.11-.28-5.13-1.55-9.29-6.92-11a2.65,2.65,0,0,1-1.8-2.5c.3-5.75-3.55-9.57-6.13-14a15.34,15.34,0,0,1-2.57-7.27c-.1-4.94-3-8.38-5.5-12.08-1.4-3.24-3.8-6.27-2.08-10.18A39.58,39.58,0,0,0,775.41,884c2.09,0,3.51,2.94,4.74,4.93,4,6.4,9.16,11.12,16.37,13.34,1.48,1.52,3.25,1.57,5.24,1.33,6.56-.8,7.37,0,8.12,7.29-2.82,3.53-2.1,8.76-5.62,12-1,.94.2,2,1,2.65,3.63,3.2,2.64,6.47.9,10.37-1.26,2.8-2.29,6.12-1.17,9.47a9.09,9.09,0,0,1,1.32,3.24,4.79,4.79,0,0,1-.15,1.81c-3.67,4.08-.08,7.15,1.58,10.31,1,1.83-.56,7.68,5.11,3.66C814,963.62,815.94,966.08,814.37,968.39Z"
            fill="#634a43" />
        <path
            d="M939.73,677.46c.51,1.66,1,3.32,1.54,5,8.57,5.42,17.25,10.68,25.45,16.68a10.79,10.79,0,0,0,3.93,1.9c3.92.93,6,3.51,6.19,7.65-1.79,4.16,2.24,7.71,1.18,11.79-1.71,3.5-5.18,3.48-7.57,2.35-4.31-2-10-1.06-13-6.11-.38-.66-1.52-.58-2.35-.65-1.77.18-3.56.62-5.18-.56a6.42,6.42,0,0,1-.54-1.16c-1.28-3,1.6-6.68-1.36-9.18-2.71-2.3-5.67-.22-8.52.15-1.15.15-2.81-.53-2.51-1.24,2.73-6.4-4-4.9-5.94-6.68-2.64-2.37-5.69-5.21-9.61-5.91-1-.18-2.3-.37-3.09.31-5,4.28-10.48,1.7-15.81,1.14-1.62-1.24-6.1-1.14-2.26-5a7.54,7.54,0,0,1,3.57-.84c1.26.06,2.92.26,3.46-.94,2.24-4.94,7.09-4.65,11.33-6.34-2.35-.71-4-2.11-3.64-4.67.57-3.69,3.71-4.8,6.54-6.14,3.61.42,7.08,1.29,8.9,4.88C932.56,678.06,936.78,675.92,939.73,677.46Z"
            fill="#d09a81" />
        <path
            d="M577.94,734.64c-2.51-2.42-3.53-5.57-4.15-8.91a75.13,75.13,0,0,0,2.83-15.61c-.56-1.71.57-4.34-1.78-5-2-.55-3.31,1.45-4.65,2.76-1.82,1.78-3,4.13-4.73,6-1.11,1.15-2.41,2.95-3.8.18,0-7-2.3-14.28,2.48-20.66,1.82-4.17-.15-10,5.24-12.61,5,1.38,3.74,6.65,5.64,9.92,4.25,7.34,5,8.05,11.88,3.9,1.79-1.07,3.55-1.83,5.31-.45,2.2,1.71-.15,4.45,0,5,2.29,6.3-.72,7.27-5.87,8.25-2.21.42-3.85,4.47-1.68,7.16s4.58.74,5.82-1.25c2.76-4.42,6.78-5.26,11.42-5.71,3.72-.36,7.66-.45,10.83-3.25,2.88-2.52,5.43-2.11,7.12,1.59s3.05,2.32,4-.34c.9-2.47,1.75-4.89,3.89-6.57a11,11,0,0,1,5.47-1.5c1.77,0,3.19.93,2.58,2.74-1.35,4,.84,7.71.52,11.54-.35,4,.38,9.18-4.37,10.57a12.58,12.58,0,0,1-13.34-3.79c-1.25-1.45-1.34-2-2.82-.64-1.84,1.75-4.53,2.53-5.77,5-2.3,4.54-6.42,4.65-9.87,2.88-6.62-3.4-11.69-2.87-15.69,3.8-.3.5-1.07.68-1.64.95C580.62,731.14,579.54,733.21,577.94,734.64Z"
            fill="#624b43" />
        <path
            d="M695.48,535.17c.29.3.89.75.83.89-4,9.13.91,17.87,1,26.81,0,1.15-.16,2.32,1.06,2.64.61.16,1.55-.41,2.15-.89,4.12-3.31,8.52-6.36,12.16-10.16,2.2-2.31,3.41-2.36,5.77-.67s3.9,5.35,7.69,5.23c.3,0,.94.61.89.77-1.95,6.2,4.7,10.84,2.9,17.13-.55,1.92-1.29,3.05-2.83,2.2-2.91-1.61-5.43.14-8,.51-5,.73-7.35,8-4.24,12.07,1.85,2.46,2.1,5.52,2.43,8.49.2,1.88-.52,4,1.28,5.45.81,1.65,3,2.93,1.28,5.23-3.5-2.43-6-5.43-6.9-9.91-.71-3.62-3.87-7.31-4.32-9.84-1-6-4.53-10.22-6.37-15.42-1.15-3.25-7.13-9.51-10.55-8.86-2.39.46-6.08,1.23-6.14-.69-.07-2.71-1.17-6.3,1.08-8.68,2.52-2.66,2.51-5.8,2.68-9,1.32-3.32,3.59-6.17,4.63-9.64C694.11,537.43,694.22,536,695.48,535.17Z"
            fill="#734d40" />
        <path
            d="M577.94,734.64c0-2.69.42-5,3.81-5.1,1.62.85,2.92-.07,4-1,6.14-5.59,8.34-5.76,14.2-.85,6.1,5.11,6.91,5,12.8-.41,2.34-2.14,5.32-3.45,7.77-5.52,1.61-1.36,3.63-1,5.35.14,1.18.77,1.86,2.28,1.07,3.36-2.74,3.73-.79,5.12,2.53,6.15a1.48,1.48,0,0,1,.89,2.07c-5.41,2.95-11.44,4.57-16,9.39-1.82,1.91-6.15,1.15-8.71-.07-4.94-2.34-4.74.58-4.77,3.84a25.21,25.21,0,0,0-8.27-2.9C586.49,743,581.19,740.39,577.94,734.64Z"
            fill="#3b3431" />
        <path
            d="M768.44,520.86c9.81-5.39,15.91-14.32,18.73-24.64,1.49-5.45,4.2-8.39,8.18-11.34a49.92,49.92,0,0,1-7.25,17.81c-2,2.85-3.9,5.62-4.23,9.22-5.15,13.46-17.21,20.48-26.73,29.86-2.77,1.75-3.09,4.62-2.76,7.41.68,5.64-2.21,7.47-7,7.17s-3.87-4.73-4.36-7.71c-.28-1.77.71-3.74,1.12-5.62-2-5,4-5.31,4.77-8.64,2.52-4.6,7.36-6.43,11-9.66,1.06-.71,2.6.16,3.51-1.1C765,522.45,766.23,520.74,768.44,520.86Z"
            fill="#372d29" />
        <path
            d="M804.27,946c-1.73-1.81-2.69,2.07-5.1,0,6.77-2,2.72-9.12,6.73-13,2.18-2.14.11-4.84-2.38-6.73-1.57-1.19-5.5-3.5.28-5,.61-.17,2.18-2.61,2.2-4.86,0-2,0-4.94,3.18-5.44,1.34,6.38,4.7-.77,6.73,1,1.4,2.18,1.1,5.05,4.14,6.76,1.84,1,3.27,4.38,3.57,7.35.62,6.2,3.12,12.1,2.83,18.45-4.08,1-3.57,5.42-5.56,8l-1.32-.23c-5.34-2.58-6.4-9.47-12.28-11.47C806.26,941.83,808,945.64,804.27,946Z"
            fill="#694c44" />
        <path
            d="M804.27,946c2.36-2,.44-5,1.76-7.25.64-1.07,1.36-2.44,2.78-2.26s1.82,1.64,1.65,3c-.13,1-.87,2.82.11,2.85,6.46.18,5.26,7.35,9,9.89-.85,7.12,3.51,13.11,4.11,19.95a79.94,79.94,0,0,0,1.9,9.38c-6.93.17-8.4-1.59-11.21-13.15.12-1.37-.14-3.25-1.48-3-2.24.36-.37,3-2,4.82-5-4.76-6-11.64-8.67-17.48-1-2.29,2.43-1.52,3.35-2.78.16-.12.32-.26.49-.37,1.71-1,2.12,1,3.23,1.44-.21-2.48-2.32-1.81-3.71-2.34A2.68,2.68,0,0,1,804.27,946Z"
            fill="#694c44" />
        <path
            d="M687.86,548.21c-.63,4.66-3.56,8.18-6.08,11.74a19.08,19.08,0,0,0-3.28,7.4c-.26,1.27,2.61,2.57.61,3.83s-3.35-1-4.76-2.18l-2.3-1.94c-1.21,8.15-8.81,9.46-13.32,14-.91.91-2.77.35-2.92,2.65-.47,7.19-6.47,5.46-10.7,6.58-1,.26-1.65.12-1.55-1.09s.26-2.46.4-3.68c5.81,2.42,2.42-2.69,3.06-4.18,1.6-3.65,4.32.31,6.55-1.71-5.12-3.44.53-5.54,1-8.53,7.83-4.43,14.2-11.07,22.75-14.59C681.2,554.93,683,549.26,687.86,548.21Z"
            fill="#b07a65" />
        <path
            d="M806.8,595.19c-3.64-7.5-12.79-5.9-17.75-11.18-1.6-1.69-4.47-1.8-5.25-4.47,1.2.35,2.79.31,3.54,1.11,4.68,5,11.46,5.51,17.19,7.63,4.82,1.77,6.94,5.37,10,8.32,8.36,8.2,19.52,11.9,28.41,19,6.54,5.26,15.05,7.69,20.19,14.85,5.41.84,9.73,3.34,12.58,8.29.68,1.19,1.21,2.24.47,3.55-3.5,1.29-7.28,3.53-8.37-2.81-.1-.54-.91-.95-1.5-1.11-11.51-3.09-18.33-14.82-30.31-17a3.81,3.81,0,0,1-2.72-1.56c-5.22-9.28-16-12.57-21.82-21.22C810.3,597,808.42,596.21,806.8,595.19Z"
            fill="#875744" />
        <path
            d="M820.89,952.44c1.39-2.78-3.56-9.89,5.07-7.7a14.1,14.1,0,0,1,5,4.6c3.52,8.62,4.23,17.89,5.8,26.93.66,3.81,4.49,7.12,1.94,11.47-7.15,3.33-8.32,2.93-8.52-4C829.88,972.43,825.52,962.41,820.89,952.44Z"
            fill="#694c44" />
        <path
            d="M980.55,736.06q4,18.24,8,36.46c1.93,7.79-.14,15.6.15,23.4a4.19,4.19,0,0,1-2.2,4.26c-2.74-1.24-2.62-3.95-2.4-6.15,1-10.31-2.36-19.63-5.9-28.94-2.3-8.54-2.58-17.41-4.1-26.1C975,735.25,976.18,732,980.55,736.06Z"
            fill="#593e36" />
        <path
            d="M846.31,938.32c2.45,10.16,4.54,20.42,7.46,30.44,2.4,8.22,1.35,16-.81,23.91a107,107,0,0,0-2.74-20.56c-.76-4.81-4.4-8.69-4.29-13.79-7.71-.3-5.38-8.24-8.64-12-.94-1.06-1.1-2.75-1.12-4.28,1.75-8.72,3.24-9.8,8.94-6.52A8.78,8.78,0,0,1,846.31,938.32Z"
            fill="#694c44" />
        <path
            d="M955,714c1.9.87,4.54-.09,5.43,3.27.6,2.29,2.67,4,5.25,1.43.84-.85,2.08-1.2,2.62,0,2.45,5.58,6.22,2.59,9.68,1.72a8.37,8.37,0,0,1,1.16,5.22c-2,1.85-4.57,1.61-7,1.89-3.89-2.93-1.29,2.66-3.09,2.47-1.51.65-3.43.77-3.69-1-.39-2.58-1.12.1-1.51-.31-6.63,7.21-14.06,1.57-21,1-2.67-.2-3.2-3.73-2.08-6.46s3.47-5.18,5.8-3.36c6.51,5.1,6.6,0,7.59-4.26A5.81,5.81,0,0,1,955,714Z"
            fill="#b07c63" />
        <path
            d="M760.56,890.17c7,4.4,5.09,13,8.68,19.14,2.51,4.28,6.16,8.38,5.75,14-.1,1.4,1.12,1.47,2.1,1.91,4.51,2,6.7,5.34,6.59,10.68-.07,3.44,1.07,7.56,5.35,2.35,1-1.2,2.14-1.62,3.14-.25,3.21,4.37,7.65,8.16,7,14.48-1.59-2.25-3-4.62-4.81-6.71-1.28-1.51-2.29-3.2-5.14-2.82-6.3.85-8.74-1.23-8.89-8-.1-4.27-.49-7.1-5.53-6.83-2.43.13-2.6-2-2.46-3.66.49-5.93-2.66-10.1-6.16-14.19-1-1.12-2.65-2.5-2.51-3.55,1-7.76-4-13.21-6.72-19.5C759.39,886.67,759.74,888.72,760.56,890.17Z"
            fill="#634a43" />
        <path
            d="M963.78,901c-.39-16.32-2.19-32.65.45-48.94,1-2.91-1.59-5.9.17-8.8a1.65,1.65,0,0,1,1.58-1c3.12,2.3,1.83,6.16,3.13,9.1.2,2.35,1.43,4.36,2.14,6.55.07,8.16-1.29,16.18-2.11,24.25-2.29,3.8,1.33,7.57.07,11.37a17.34,17.34,0,0,1-3.86,10.38C962.81,904,963.33,902.47,963.78,901Z"
            fill="#593e36" />
        <path
            d="M600.81,746.57c14.14,7.6,28.38,1.17,42.64.67,11.63-.41,23.19-3.92,35.1-.14,6.05,1.92,13,.84,19.5,1.35,2.11.17,5-.18,5.12,3.37a283,283,0,0,0-34-3.72c-14.29-.54-28.76,1.14-43,3.8C617.25,753.55,607.8,755.39,600.81,746.57Z"
            fill="#3b3431" />
        <path
            d="M842.9,999.33c-.8-16.27-4.53-32-8.16-47.81-.51-2.32,1-2.15,2.45-2.11,3.92,3,3.54,8,5.1,12,2.05,5.32,3,11,5.21,16.32-.26,6.47-.7,12.93-.73,19.39C846.75,1000.82,845.05,1000.21,842.9,999.33Z"
            fill="#694c44" />
        <path
            d="M760.56,890.17,757,887.3c-1.58-1.81-1.34-4-1.26-6.16a240.26,240.26,0,0,0-.86-27.1c-.07-.83-.06-2.16-.52-2.39-10-5.13-3.82-14.55-5-21.71-1-6.65-1-13.73-3.29-20.05-1.6-4.4-1.18-8.31-.73-12.52,1.13,9.35,6.17,17.73,6.4,27.3.09,7.86.94,15.41,3.8,23,3.81,10.14,6.63,20.82,2.71,31.85C757.11,883.49,760,886.57,760.56,890.17Z"
            fill="#634a43" />
        <path
            d="M562.55,715.09c2.22-2.86,4.3-5.84,6.68-8.55,1.95-2.22,4.33-5.15,7.42-3.72,2.64,1.22.84,4.69,1.24,7.13-.38,1.89-1.1,3.68-1.62,5.51-2.66,9.43-2.58,9.45-11.13,4.93-2.52-.78-3.12-3.06-3.9-5.2A.84.84,0,0,1,562.55,715.09Z"
            fill="#282422" />
        <path
            d="M976.84,708.67c-1.51-3.71-4.48-5.17-7.82-7.2-5.41-3.28-11.28-6-16.34-10.31-1.84-1.56-5-4.08-8.13-5.08a4.84,4.84,0,0,1-3.28-3.64c6.91.3,11.58,3.54,16.86,8.56,5.81,5.51,12.81,11.42,21.78,12.53,3.67.45,7.11,1.59,7.17,6.44-4,2.51-6.39-.68-9.15-2.63C977.57,707.79,977.2,708.23,976.84,708.67Z"
            fill="#d09a81" />
        <path
            d="M991.16,747.59c3.57.34,3.55-2.05,3.45-4.62-.37-9.31-.72-18.62-2.44-27.8,1.73-1.49,3.38-1.4,5,.2L1000,732.1c0,3.85-.28,7.7-.06,11.55.13,1.76-.09,3.36-1.72,4.36-.35.47-1.71-1.71-1.57.81.13,2.25-1.9,3.45-3.95,3S989.48,749.83,991.16,747.59Z"
            fill="#d09a81" />
        <path
            d="M939.73,677.46c-5.32,3.21-9,.67-11.23-4.07-1.54-3.28-5.49-.73-6.7-3.76-1.7-1-3.73-1.08-5.41-2.12-3.14-2.6-6.92-4.5-8.85-8.43a6.38,6.38,0,0,1-.54-1.74,2.14,2.14,0,0,1,1.14-2.26c4.7,1.08,6.59,5.8,10.3,8.27C925.53,668.07,933.47,671.45,939.73,677.46Z"
            fill="#bf886e" />
        <path
            d="M908.14,655.08l-.09,2.49c-5.56,2.51-10.2-1.25-13.2-4.21a33.82,33.82,0,0,0-17.78-9.76,4.17,4.17,0,0,1-1.22-1.45c-1.81-4.8-4.26-8.82-10-9.29a3.51,3.51,0,0,1-2.78-2.38c5.2-.38,9.69-.48,12.18,6.08,2,5.37,9.1,3.62,13.17,6.76,1.24,1,3.06,1,4,2.76,2.37,4.27,6,6.52,10.93,6.34A4.89,4.89,0,0,1,908.14,655.08Z"
            fill="#a87a67" />
        <path
            d="M991.16,747.59c-.23,2,.27,3.64,2.58,3.2,3.2-.62,2-3.8,3-6.25.35,1.37.61,2.36.87,3.36,2.42,6.29,2.87,12.41-1.54,18.1L994,772.17c-3-5-1.63-10.76-4.13-15.46-.14-3.37-.3-6.74-.41-10.11,0-.75,0-1.91,1.13-1.35C991,745.48,991,746.78,991.16,747.59Z"
            fill="#593e36" />
        <path
            d="M977.93,707.34c3.55-.93,5.67,3.33,9.15,2.63,1.22,2.52,2,5.08.9,7.89-1.66-.25-.68-2.7-2.64-2.58,0,5.8,3.14,11.34,2.22,17.52C987,723.19,979,716.69,977.93,707.34Z"
            fill="#d09a81" />
        <path
            d="M971.69,727c2.16-2.43,5-1,7.49-1.32.46,3.46.91,6.92,1.37,10.38-3.28-2.16-4.47-.27-5.1,2.73C971.33,735.81,970.66,731.69,971.69,727Z"
            fill="#87604e" />
        <path
            d="M570.15,681.15c-5.36,2.32-2.71,8.17-5,11.83-.53.63-1,.59-1.47-.1,1.43-11.6,7.64-20.85,14.18-29.94l.42.33C576.9,669.87,574.86,676.14,570.15,681.15Z"
            fill="#956754" />
        <path
            d="M563.65,692.88l1.47.1c-4.35,6.95-1.88,14.72-2.57,22.11l-1.31.1C560.55,707.58,557.83,699.75,563.65,692.88Z"
            fill="#734e42" />
        <path
            d="M565.14,720.39a8.88,8.88,0,0,1,2.4.58c5.34,3,7.49.62,7.78-4.79.13-2.43.69-4.59,2.57-6.23,1.2,5.61-1.92,10.6-2.22,16l-1.88-.22C571.17,723.51,567.12,723.7,565.14,720.39Z"
            fill="#3b3431" />
        <path
            d="M705.78,752.93c5.24-1.93,8.89,1.52,12.83,4,2.47,1.62,5.54,1.47,8.09,2.69a6.32,6.32,0,0,1,3.6,6.13l-.48.65C722.63,760.34,714.39,756.3,705.78,752.93Z"
            fill="#4a3933" />
        <path
            d="M764.54,568c-2.07-1.77-4-3.62-3.79-6.72,4.1,2.79,7.12,6.66,10.12,10.54C768.14,571.63,767,568.71,764.54,568Z"
            fill="#724c3e" />
        <path
            d="M693.94,538.79c.26,4.12-.76,7.59-4.63,9.64l-1.44-.22A18.37,18.37,0,0,1,693.94,538.79Z"
            fill="#b07a65" />
        <path
            d="M841.31,789.5c-4,4.6-8.65,5.52-14,2.57-.72-.4-2.14-.86-2.1-1.08,1.12-6.38-5.1-3.94-7.25-6.33-1.06-1.18-2.39-2-3.79-.43a2.81,2.81,0,0,0,.46,4.51c4.11,2.88,1.85,4.47-1.06,5.78s-4,3.8-5.5,6.11c-2,3-3.71,6.94-6.56.64a2,2,0,0,0-2.73-.93,3.17,3.17,0,0,0-2.13,3.6c.77,4.34-2.59,6.63-4.34,9.7a3.36,3.36,0,0,1-4.39,1.65c-2.43-1-1.23-2.82-.62-4.35a58.78,58.78,0,0,1,2.89-6.42c4.55-8.26,6.81-16.58,2.78-25.93-1.67-3.9,1.66-5.34,4.74-6.91,4.38-2.23,3.6,2.47,4.15,3.51,2.26,4.27,2.62,2.21,5.8.38,6.36-3.66,7.48-9.84,10.66-15.15,1.48-2.49-.37-7.73,5.71-7.49,1.07.05,1.55-7.11,0-10.18a5,5,0,0,0-7.65-1.26c-2,1.82-3.73,1.46-5.78,1.07-.07-4.7,4.55-7.29,5.07-11.72,0-.16.43-.38.52-.32,5.71,4.07,8.73-3.67,13.51-3.21,3.07.3,3.65-1.27,3.75-3.75.09-2.18,1.18-4.22,1.21-6.37,0-3.73.75-6.84,5.21-7.19-1-2.29-2.75-2.83-4.16-3.73-2.29-1.46-4.17-1.95-5.32,1.53-.73,2.21-2.72,3.83-3.37,6.2-.42,1.52-1.54,3.24-3,3-5-.7-7.17,2.16-9,6.16-.79,1.69-2.46,3.28-4.69,2.24-2-.94-2.28-3-2.11-5s.85-3.86.42-5.8c-.55-2.45.26-6-4.15-5.64a2.05,2.05,0,0,1-1.89-1.56c-.73-6.09-5.85-11.34-3.62-17.93,1-3,0-4.59-2.43-5.7-4.35-2-14.26,2.57-16.07,7.13-.87,2.19,0,3.76,1.06,5.41a44.6,44.6,0,0,1,3.18,4.86c1.21,2.53.82,4.68-1.57,6.18s-4-.08-5.21-2c-2.17-3.49-4.18-7.1-8.53-8.24a6,6,0,0,1-1.25-2.46,20.08,20.08,0,0,1-.51-9.66c.94-4.35,2.73-7.71,8-8.76s10.14-4.07,15.54-5.45c4.22-1.08,6.94-.28,9.33,3.18a27.79,27.79,0,0,0,6.18,6.53c1,.77,2.27,1.55,3.46.49,1-.92.28-2-.29-2.89-1.5-2.35-2.37-4.73-.12-7.08A4.18,4.18,0,0,1,814.5,670c3.19,1.23,3.53,4,3.36,7-.12,2.22-.12,4.44,1.8,5.94,3.27,2.57,4.61,6.12,5.23,10.09.32,2.12,1,4.11,3.64,2.87,3.43-1.59,6.66-4.45,10.52-1.11,2.9,2.52,6,4.9,7.72,9.37a83.89,83.89,0,0,0,6-6.75c4-4.5,6.79-4.44,10.9.19a2.37,2.37,0,0,0,2.13,1c9.3-1.1,11.62,5.71,13.84,12.65-3.93,2,.56,5.46-1.23,7.85a6.74,6.74,0,0,1-3,2.22c-7.16,1.6-7.14,8.58-9.72,13.5-1.53,2.93,1.44,3.33,3.29,4.1a5.85,5.85,0,0,1,1.49,1c3.19,7.31,2.1,10.86-4.53,14.88-.36.22-.73.45-1.08.69-10.25,7-10.25,7-17.87-4.76.29,3.5,1.27,5.81,1,8.18-.29,3,.29,6.64-4,6.83s-3-3.7-3.53-6.23c-3.58,5.17-3.58,5.17-1.3,15.74,4-2,8.18-3.62,10.49,2.24a4.06,4.06,0,0,1,0,2.73C846.47,783,844.15,786.48,841.31,789.5Z"
            fill="#412f2c" />
        <path
            d="M879.63,711.23c-1-2.35-3.17-3.64-4.34-6.11-1.53-3.24-4.1-7.24-9.46-4.7-2,1-5.68,1.27-3.67-3.45.45-1.06-.19-2-1-1.84-2,.32-4.55-.1-6,1.62-2,2.34-4.6,4.33-5.26,7.55-.34,1.64-1.45,2-2.59,2.43-1.82.63-2.23-.91-2.36-2.15-.46-4.44-4.59-5.86-6.89-8.77s-4.71-.67-7.14.8c-6.32,3.81-6.43,3.59-7.62-3.53-.64-3.78-1.35-7.44-5.65-9.42-2.83-1.3-1.88-4.78-1.34-7.35s0-4.32-2.34-5.23a3.14,3.14,0,0,0-3.93,1.34c-1.39,2.16,0,3.6,1.36,5.08s3.78,2.83,1,5.15c-2.15,1.77-4.29,1.63-6.31-.23-1.25-1.16-2.22-2.87-3.67-3.57-3.55-1.71-3.11-9.56-9.1-6.8-3.89,1.79-8.62.24-11.93,3.81-1,1-2.78,1.2-3.89,2.14-1.91,1.62-5-1.65-6.55,2.21a24.53,24.53,0,0,0-1.78,11.55,17.2,17.2,0,0,0,.55,2.52c-5.11,5-7,5.11-12.6.44-1.52-1.28-3-2-4.37-.37-2.18,2.57-4.81,1.78-8.14.82,6.55,6.77,6.55,8.24.74,10.26-2.09-.22-3.77-1.58-5.73-2.15-2.77-1-4.43.61-5.91,2.57s-2.76,4.25-5.39,1.41c-.3-.32-.66-.83-.92-.78s-.21.56,0,1c1.28,2.57.5,4.12-2.28,4.64-2.23.42-4.93.27-5.66-1.83-2-5.93-8.88-9-9-16.34-2.38,5-7.58,6.45-10.69,10.38-2.13,2.7-4.73,1.22-6.54-.85-3.23-3.71-6.1-7.71-10.46-10.29-2.47-1.46-1.77-3.57-.21-5.49,1.83-2.24.94-4.36-1.06-5.41s-4.18-.93-4.32,2.49c-.07,1.78-1.32,2.62-3.14,2.23-1.5-.43-2.12-3-3.85-2.23-1.31.62.09,2.17.15,3.31-3,6.14-9.57,5.79-14.64,8.19-6.31.17-7.08-5-8.69-9.37-.29-9.72.63-10.18,10.11-11.53,7.89-1.13,15.58-3.59,23.72-2.71,2.53.28,5.12-.16,7.1,2,1,3.54-.16,7.35,1.35,10.84.6,1.38.95,3.19,2.79,3.06s1.15-2,1.27-3.1c.42-3.83,3.88-3.37,6.7-4.78-4.15-3.87-3.92-8-1.46-12.6,1.11-2.06.75-4.67,1.14-7,1.08-6.46,6.27-8.68,11.16-4.42A79.36,79.36,0,0,1,725.65,674a2.54,2.54,0,0,1,1.18,1.28c.33,1.78-.63,2.78-2,3.68-5.57,3.76-5.76,5.45-1.37,10.78,5.14-8.07,5.18-8.25,15.38-5.85,3.44.81,6.62,1.1,9.94,0,2.08-.7,4.12-1.1,6,.6s3.85,3.89,5.81,1c1.77-2.59,4.18-5.74,1.08-9.19-.74-.83-1.37-1.64-.91-2.85,6,.71,8.59-6.12,14.38-6.71,2.47-.24,4.94-.58,6.41.81,4.57,4.32,8.11,1.41,11.39-1.4,1.8-1.55,3.71-2.82,5.54-4.25,6-4.69,12-4.72,17.55.39,2.74,2.54,4.73,2.54,7.72.86a10.09,10.09,0,0,1,10.18-.31c-2.47-4-5.92-6.56-8.28-10.12-1.16-1.75-3.38-2.94-4.78-5-3-4.26-6.32-.14-10.19.69,1.31-3.56,3.24-5.94,3.08-9.35-.08-1.81,3.34-4.34,5.2-1.59,3,4.53,7.27,3.35,11.26,3.78,2.91.31,5.82.6,8.74.89.91.1,1.91.49,1.82,1.42-.58,5.47,1.31,8.23,7.12,8.07,1.78,0,2.65,1.9,1.14,3.91-3.15,4.18-3,7.19,2.69,8.9,1.51.45-1.69,3.08,1.09,4.93,3.57,2.38-1.53,3.68-2.07,6.12l5.84.87c2.43,2.16-4.26,3-.11,4.88,2.12,1,4.66,2.28,4.59-2.27,0-1.27,9.73-3.5,10.9-2.64,1.88,1.4.12,2.67-.2,4-.28,1.15-2.27,2-1,3.29,1,1,2.45,1.85,3.87.21,1.17-1.36,2.31-.87,3.09.41s-.06,2.55-.79,3.56c-5.47,7.58-5.63,9.48,1.32,14.46C882.42,705.27,881.93,707.81,879.63,711.23Z"
            fill="#564038" />
        <path
            d="M883.44,750.34c1.54-.6,2.48-4,4.53-1.57,1.16,1.4,2.74,3.85.74,5.83-3.88,3.85-.87,6.26,1.74,8.26s4.92,3.45,4.6,7.08c-2.15.73-3.22-1.83-5.14-1.74-3.44,5.39-.37,10.86-.26,16.27-1.3,5.62-7.62,8.32-8,14.54-.09,1.37-1.87,1.48-3,2-5,2.06-5.7,4.89-1.29,8.31,4.17,3.22,3.89,6.2,1.3,9.92a13,13,0,0,0-1.16,8.79c.95,5.7-3.29,6.51-6.79,7.45s-7.41,1.25-8.22-4.1c1.45-8,1-16.48,5.16-23.84,1.79-3.17,1.51-6.12.18-9.3-1.25-3-1.33-6.29-2.64-9.3-1.52.32-1.59,1.88-2.4,2.77-.18.2-.87.58-.2,1.05,5,3.46,5.56,6.78.74,8.93-5.47,2.43-4.83,5.75-3.42,9.91,1.26,3.71.34,6.39-2.45,9.27a32.14,32.14,0,0,0-7.53,11.84c-.72,2.13-1.51,3.55-3.93,3.22s-5.71-2.4-4.89-4.08c3.08-6.3-2.38-6.1-5-8.07-1.4-2.09,1.34-5.12-2.08-7.14-1.83-1.07-.48-4.05.84-5.8,2.19-2.9,4.31-6,7.37-7.95A31.81,31.81,0,0,0,854.88,787c.87-2.22-.37-5.32-.72-8-.24-1.84-.42-3.42,1.28-4.59,3.84-.66,6.81-4.1,11-3.64,2,2.09,2.78,6.07,7.27,4.36,1.53-.58,2.42,1.26,2.61,2.92.12,1,0,2.35,1.5,2.28,1,0,2.76-.61,2.59-1.38-.68-3,1.21-6,.21-8.87-.47-1.36-1.72-.47-2.72-.25-3.77.8-7.46,3-11.46.91-1.52-3-.36-4.92,2.42-6.1,2-.85,4.31-1.83,4.52-4.08C874,754.18,879.2,752.83,883.44,750.34Z"
            fill="#885b4c" />
        <path
            d="M955,714c0,2.16.06,4.33.05,6.49,0,2.68-2,3.65-4,4.45-2.25.9-3.05-.7-3.61-2.44s-1.89-2.58-3.37-1.45c-1.87,1.44-3.39,3.34-2.24,6.08.65,1.56,1.51,2.56,3.4,1.56,1.07-.57,2.67-1.79,3.48-.72,5,6.58,9.72,2.23,14-.58,3.55-2.32,3.8,3.19,6.44,2.1a1.62,1.62,0,0,1-.1,1.73c-5.4.83-7.22,7.33-12.56,8.24-1.38,0-2.68-2-3.29-1.51-7.53,5.44-8.42-2-11.2-5.82-.11-.16-.35-.22-.72-.44,1,8.77-4.63,14.6-9.11,20.64a44.68,44.68,0,0,0-5,7.91c-1.9,4-4.15,7.64-9.73,4.74-3.42-1.78-7.32,2.58-11-.25-2.4-.11-4.69,2.76-7.13.32-.31-.32-.32-1.59-.08-1.73,2.22-1.31,3.25-4.22,7.08-3.36,4.78,1.07,4.61-3.17,4.08-6.38-.39-2.4-2.31-4-4.06-5.63a4.43,4.43,0,0,1-.41-6c1.5-2,3,0,4.61.37,4.35,1,10.24,4,11.84-4.3.22-1.14,2.27-1.82,3.22-2.94,2.35-2.78,4.49-7.48,1.49-9.12-4.93-2.69-3.29-6.38-2-8.55,2.47-4.06-3.24-5.9-.72-9.88-4.23.82-7.89,4.1-11.41-2.16-.67,5.76,1.39,11.51-4.22,11.72-4.22.15-8.38-3.3-9.48-7.5-1-3.87,3.34-5.08,6.1-6.2-4.26-5.39-11.54-7.9-13.05-15.6,2-1.52,3.69-.4,4.84,1.1,1.51,2,3.53,2.83,5.6,3.77,2.8,3.67,5.69,4.33,10.78,4.55,5.46.24,14.19-.32,17.62,7.88a6.35,6.35,0,0,0,5.38,4c4.4.57,10.49-1.48,10.9,6.34a7.94,7.94,0,0,1,2.47-.31A8.12,8.12,0,0,0,955,714Z"
            fill="#92614e" />
        <path
            d="M726.16,674.81l-1.19,0a3.51,3.51,0,0,1-.72-4.17c1.86-4.53.46-7-4.27-7.64-1.23-.18-3.16-1-2.57-2.21,3-6.32-1.85-8.35-5.37-11.22a3.37,3.37,0,0,1-1.14-2.24,2.58,2.58,0,0,1,2.5-1.3c2.77-.84,6.69,2.25,8.29-1,2.17-4.43,5.12-8.78,3.78-14.61-1.25-5.4-4.39-10.23-4.46-15.94,2.2-1.33,3.35.33,4.49,1.75,1,1.24,1.5,3,3.4,3.22a4.26,4.26,0,0,1,2,1.92c2.67,5.23,2.59,11.22,4.42,16.72.7,2.13,1,2.06,2.93,1.93,3.81-.26,7.6-.91,11.43-.91,3.38,0,4.67-1.47,3.32-4.95-.77-2-1.9-4.71.15-6,2.48-1.56,3.28,1.67,4.75,3,4.18,3.8,9,2.5,13.57,1.19,2-.57,3.76-2,5.94-.74,4.84-3.13,5.51,3.59,8.89,3.9,6.82,4.44,1,7.84-1.52,10.18-4,3.73-4.89,7.92-4.26,12.79.23,1.8.25,3-1.56,3.53-2.1.64-2.15-1.17-3-2.42-2.65-4.12-7.15-7.61-1.84-13.19,1-1.09-.17-4.42-2.77-5.68-3.5-1.7-6-1.2-7.69,2.34,1.14,2.14,2.35.65,3.44.54,1.41-.14,2.64.24,3.18,1.59.71,1.75-.88,2.19-1.92,2.77-4.58,2.54-5.15,5.07-.13,7.75,3,1.57.66,5.77,3.52,7.41-1.19,1.57-2.23.06-3.34-.16-4.68-.62-7.1,2.18-8.22,6.19-1.41,5-5.46,5.39-9.12,5a6.22,6.22,0,0,1-5.58-7.36c.42-2.8-1.53-3.79-2.36-5.61-1.48-3.27-4-7.31-7.19-6.1s-4.05,6.06-3.75,10.11c.11,1.51.36,3,.48,4.51C733.05,674.4,731.36,675.66,726.16,674.81Z"
            fill="#8a5b49" />
        <path
            d="M883.44,750.34c-2.44,1.07-1.15,7.64-6.44,4.55-.1-.06-.54.2-.53.27,1,7.55-5,9.92-9.47,13.48-.44.35-.16,1.65-.21,2.51h0c-3.91,1-6.78,5.1-11.4,4-2.13.84-3.53,3.54-6.35,2.6-3.63-4.52-7.23-2.35-11.15.06-.8-7.45-6.12-15.57,3.7-21.59,1.57,1.92,1,3.77.52,5.55-.43,1.5-.28,2.61,1.47,2.76,1.41.12,2.7-.44,2.68-2,0-3.15,1.26-6.55-1.07-9.38-1.39-1.68-1.53-2.95.43-4.23,2.75-1.78,3.13.39,3.89,2.22.57,1.38,1.41,2.64,2.08,4,2.58,5.19,4.82,5.5,9.1,1.77a45.22,45.22,0,0,1,7-5.07c4.48-2.6,3.51-7.49,1.71-11.84,1.5-2.18,3.82-3.19,6.41-4.41-4.51-1.52-4.43,2.92-6.41,4.4-7.48-.54-7.59-.75-5-7.42,1.16-3,3.39-5.09,3.32-9.14,0-2.23,6.68-3.44,10.64-4.32-.39,1.46-.79,2.91-1.16,4.36-1.08,4.15,1.82,6.79,4.22,8.83s3.62-1.75,5.37-2.9c1.35-.88,2.27-3,4.27-1.56,1.64,1.18.95,2.55-.05,3.9-2.61,3.49,4.13,3.66,2.19,7.11-1.53.93-2.55-2.14-4.29-1s-3.45-3-4.94-.54c-1.34,2.23,1.78,3,2.42,4.54,2.33,5.59-3.62,1.08-4.2,3.34-1.92-2.21-4.16-3.56-7.11-2.68,2.15,3.71,2.15,3.71,7.1,2.7A9.26,9.26,0,0,0,883.44,750.34Z"
            fill="#543a33" />
        <path
            d="M875.85,642.15l1.06.14c3,2.23,4.41,5.93,7.33,8.26a2,2,0,0,1,.83,1.67c-1,4-2.71,8.08,2.3,10.72-3.87,3.56,0,9.47-3.8,13.06-.41-.08-1.15-.09-1.18-.24-1.26-6.77-8.31-8-11.64-12.79.49-.79,1.42-.85,2.1-1.32a6.35,6.35,0,0,0-3.26,1.27c-1.75,0-2.6-.77-1.06-2.15,2.63-2.34,3.69-5.6,6.12-9.3-8.81,2.53-12.1-2.75-13.82-9.12-2.21-8.16-9.63-9-15.33-11.63-3.5-1.61-8.22-2-12.1-2.31-8.87-.73-14.28-7.43-21.64-10.5-3.32-1.39-6-3.72.42-5,1.75-.34,1.8-9.45.12-11.48s-3.66-4.19-5.5-6.28c4.44-.19,6.68,3.33,9.31,6,4.36,4.38,8.94,8.4,14.48,11.15.37.19,1,.37,1,.62,1,8.3,8.66,7.78,13.7,10.06,5.3,2.4,8,7.76,13.19,10,3.49,1.53,9.09,1.47,10,5.26C869.74,643.77,873,641.77,875.85,642.15Z"
            fill="#875744" />
        <path
            d="M726.16,674.81c9.51.35,4.74-7.69,4.26-10.24-.86-4.67,3.34-6.94,2.93-11-.13-1.2,2.41-1,3.89-.56,6,1.61,6.75,8.33,11.08,11.66,1.35,1-3.94,2.37-.93,5,2,1.75,2.85,4,6.65,3,4.15-1,5.7-3.16,6.31-6.77s4.34-5.15,8.09-3c-2.56,1.46-1.84,6.33-6.53,6-1.82-.13-.85,2.89-1.13,4.48.22.37.35.88.67,1.09,1.55,1,3.15,1.94,4.73,2.91-2.81,2.53-1.46,7-3.68,9.27-1.4,1.41-4.68,5.71-7.39.26-1.13-2.27-2.51-2.89-5.53-1.33-5.45,2.81-11.67.72-16.63-1.53s-5.05,0-6.09,3.43c-.57,1.82.26,4.77-2.73,5.27-3.46.57-3.35-2.91-4.34-4.67-2.77-5-.91-8.75,4.58-10.3C725.9,677.42,726.12,676.16,726.16,674.81Z"
            fill="#72534a" />
        <path
            d="M906.53,764.72c4.6.95,9.07-5.3,14.07,0,.84.9,4.22-1.81,5.08-4.46,2.28-7,7.71-11.67,11.89-17.29,2-2.74,4-8.53,2.3-13.53,6,.7,4.36,7.77,9.37,9.56,1.88-3,4.39-6.4,7.16-.33,6,1.74,8.06,5.11,5,8.62-2.32,2.7-5.6,4.22-8,.52-2.15-3.32-4.27-2.95-6.93-1.54-5.09,2.7-9.36,6.63-14,10-2.09,1.52-2.33,4-2,6.5.59,4.62-.12,8.49-4.66,11-2,1.11-2.84,3-.89,5.37,2.51,3.06,1.23,7,1.72,10.55.36,2.61-2.79,4.63-4.09,2.87-5.28-7.16-14.29-5.22-20.53-9.64a4.86,4.86,0,0,1-1.31-1.4c-.7-1.66-1-4,.46-4.64,3.72-1.65,3.27-5.69,5.33-8.19Z"
            fill="#724b3d" />
        <path
            d="M883.57,676c.15-3.17,1.41-5.87-1.34-9.37-2.44-3.1,3.26-1.08,4.09-3.29-.13-1.47-1.62-1.83-2.69-2.16-3.94-1.23-4.28-3.67-1.19-5.62,2.76-1.74,2.08-3.46.41-4.26-3.92-1.89-4.37-5.75-5.94-9,7.67.63,13.59,4,18.93,9.94,2.67,3,7.53,5,12.21,5.35l0,.1c.14.43.2,1.16,0,1.2-9.15,1.76-6.14,11.19-9.72,16.52-2.93,4.36,3.43,3.84,5.21,5.9a3.63,3.63,0,0,1,.85,1.55c-.36,2.39-1.94,4.18-3,6.23l-1.58.67,2.84,2c.34.26.45.53.36.81s-.21.42-.32.42c-4.33.17-6.19-4.8-10.27-5.17-4.72-.66-4.59-5-4.16-7.71C889.06,675.11,887.62,674.44,883.57,676Z"
            fill="#a87a67" />
        <path
            d="M906.53,768.67c-.43,3.49,1.87,8.38-4.51,8.88-.31,0-.43,2.67-.64,4.1-2.71,3.67-4.27.42-6.15-1-1.86-3-2.82-6.55-5.16-9.35-1.27-1.5-1.75-3.39-.26-5.2,2.25.59,3.63,2.4,5.24,3.88C899,770.72,902.69,769,906.53,768.67Z"
            fill="#92614e" />
        <path
            d="M899.56,760.05c-6.58-4-7.34-7.64-3-12.87.74-.88,1.37-1.63,2.61-1.08s1.39,1.27,1.25,2.56C900,752.25,899.87,755.87,899.56,760.05Z"
            fill="#92614e" />
        <path
            d="M869.59,662.92a2.06,2.06,0,0,1,.27-.58c2-2.09,4.3-3.33,7.22-2.24.26.09.48,1.31.24,1.6-1.81,2.2-4.36.91-6.57,1.27C870.36,662.94,870,662.92,869.59,662.92Z"
            fill="#a87a67" />
        <path
            d="M740.34,702.17c2.23-.23,3.32,1.86,5.08,2.58,7.14,3.18,13.27-1.21,19.75-2.84,2.4-.6,1.91-4.36,4.55-5,6.41-2.72,6.1,4.15,8.9,6.55,1.17,1,.94,3.88,3.27,3.22,2-.57,3.28-2.23,1.85-4.52-1.26-2-2.74-3.83-4-5.8-1.13-1.72-3.62-4.72-1.51-5.42,4.09-1.35,1-10.27,8.29-7.43,1.21.47,3.18-.78,4.7-1.47,3.65-1.64,6.28-.4,9.13,2.22s1.16,4.28-.48,6.35c-1.29,1.63-.24,3.27.5,4.84,1.28,2.71,2.95,5.29,2.66,8.54-.14,1.54.08,3.17,1.66,3.93,2.37,1.13,1.73-2.68,4.16-2.47.17,5,3.14,9.63.81,14.89a3.15,3.15,0,0,0,.93,4.1c1.85,1.08,3-.78,3.36-2,1.61-5,3.35-9,10.07-7,.66.2,3.87-6.29,4.86-10,.77-2.88,2.08-4.19,4.2-2.76,3.44,2.32,8,3.3,10.41,8.51-8.27-1.3-6.24,5.67-8,9.68a11.78,11.78,0,0,0-.49,4.47c0,3.28.67,6.06-4.64,3.5-4.26-2-5.83,3.77-9.1,6.29-2.28-2.46-5.87-7.79-5.55,1.43.12,3.6-5,2.45-5,5.91-.09,1.34-.29,3-1.71,3.16-4,.44-4.77,1.94-2.6,5.45a3,3,0,0,1-1.16,4.48c-2.3,1.26-2.43-1-3.62-2-4.74-4.18-5.42-8.86-3.86-14.82,1-3.83-1.79-6.2-6.81-8.37,3.25,7.83,1.67,13.61-3.18,18.67-1.43,1.49-2.73,3.47-4.63,2-4.53-3.6-8.07-.67-11.09,1.85-2.73,2.27-4.8,3-7.9,1.19-3.89-2.3-6.23-.13-7,3.59-.63,3.18-2,4.51-5.11,4.42q-12.51-.4-8.57,12.75a47.32,47.32,0,0,0,2.27,5,18.09,18.09,0,0,1-8.68-9c-1.39-3-3.31-5-6.71-5.2-1.95-5.63-7.89-5.75-11.69-8.83,5.56,1.74,10.49,1.32,15.52-2.46,3.6-2.71,8.82.15,13.16-2.53,7.57-4.65,17.09-3.76,24.84-8.87,4.07-2.68,7.83-4.75,9.19-9.76.81-3,3.66-6.67-3-5.92-2.26.25-2.65-2.57-3.24-4.29-.68-2-1.32-3.7-3.66-3.88-2.81-.21-2.71,2-3.22,3.86-.59,2.15-1.58,4.32-4.36,3.69-2.49-.57-5-1.37-5.55-4.56-.33-1.93.37-5.19-3.2-3.8-2.64,1-2.21,3.34-.65,5.35,1.14,1.47,1.16,2.89-.47,3.83-2.13,1.23-4,.55-5.77-1.12-5.54-5.32-5.4-5.2-9.45,1.91-1.69,3-3.38,7-8.13,2.65-3.12-2.86-13.18,1.74-14.57,6.14a36.87,36.87,0,0,0-1,3.74c-.89,4.62-3.24,4.43-5.15,1.08-3.48-6.07-8.1-4.05-13-3-3.88.84-7.83,3.91-12,.34a3.25,3.25,0,0,0-3-.45c-6.22,3.91-11.64-.29-17.51-1.14-8.31-1.19-16.7-3.21-25.24-1.87-1.92.3-3.43,0-3.71-2.35,2.35-6.07,8-3.75,12.23-5a17.23,17.23,0,0,1,5.62,1.24c8,3.76,14.31,1.22,19.11-5.53-4.58-3.81-4.59-11.2-9.13-15.86-1.11-1.13.29-2.82,1.92-3.35,1.89-.61,4.26-1,5.54.3,5.81,5.82,14.22,2.8,20.07,6,8.28,4.52,17.54,1,25.64,5.67,3,1.75,8.1-.74,12.25,1.14,1.73.79,2.24-1.46,2.69-2.88.67-2.08,1.4-5,3.46-5.08C740.49,709.87,740.15,706,740.34,702.17Z"
            fill="#2e2423" />
        <path
            d="M849,777.78c2-1.2,3.67-3.15,6.35-2.6,1.92,3.34-1.55,7.91,2.37,10.86.29.22.07,1.78,0,1.8-6.35.83-2.78,7.29-4.86,9.22-2.61,2.43-6.11,4.46-9.26,6.63s-5.44,5.38-7.94,8.22c-2.21,2.49-1.81,3.28,1.87,4.57,1.69.59,1.17,1.57.81,2.36-.69,1.54-2.28,2.63-2.13,4.59-.22.21-.44.41-.65.63-5.4.64-10.22,2.51-12.86,7.69-1,2-3.91,1.39-4.27,3.85a12.47,12.47,0,0,1-5.4,1.87c-5.19,1-9.3,2.82-9.5,9.27-.06,1.87-1.65,3.48-2.79,5-1.72,2.36-2.86,4.35-.89,7.54,1.68,2.71-1.23,6.22-4,4.82-5.33-2.73-7.45,1.65-10.57,3.24,8.79,7,8.7,16.16,6.75,26.05,5.91-4.39,9.5-4.33,14.23-.09a1.7,1.7,0,0,1,.12.61c-1.23,9.26-1.34,9.35-9.85,9-7.63,0-11.9-5.33-16.09-10.7-3.45-4.43-5.24-11-13.57-6.19-3.35,1.92-5.9-4-8.62-6.57-.45-8.4-.87-16.81-1.39-25.2-.07-1.25-.18-2.91-1-3.65-7-6.75-3.39-15.85-5.17-23.73-.14-.64.65-1.5,1-2.26,2.72,7,.19,15.81,7,21.51.43.36-.16,2-.28,3-.22,1.9-.84,3.91,1,5.37,2.24,1.72,4-.17,5.9-.85,3.87-1.38,4.34-3.74.86-5.78s-3.44-4.77-2.62-7.75c1-3.51,3.21-3.09,5.9-1.61,1.11.62,2.7-.86,2.94-2,1.08-5,5.64-6.76,8.7-9.89a6.77,6.77,0,0,1,6.2-2.37c3.87.49,6.16-2.66,9.08-4.81,5.21-3.86,8.29-12.3,17.18-9.39,1.57.51,2.86-.94,3.67-2.15,2.3-3.42,4.8-3.91,9-3.47,3,.31,7.12-3.23,9.45-6.13a27.93,27.93,0,0,0,4.21-6.3c2.63-.65,2.2,2,3.58,3.49-4.06-7.6,1.61-11,5.35-15.25C849,779.5,849,778.64,849,777.78Z"
            fill="#634a43" />
        <path
            d="M849,780.36a7.19,7.19,0,0,1-1.15,2.3c-5.13,4.71-4.54,10.62-2.83,17.25-4.54-1.5-1.43-6.69-5-7.79.42-.88.85-1.75,1.27-2.62C842.28,785.07,844.31,781.57,849,780.36Z"
            fill="#543a33" />
        <path
            d="M570.15,681.15c2.44-6.08,4.43-12.38,8.1-17.88l6.62-5.63c-.28,4.06-5.26,7.35-1.83,9.63,2.37,1.58,2.88-3.84,5.06-5.5,7.57-5.78,10.39-14.61,14-23,1.29-3,4.26-3.86,6.62-.87,1.82,2.29,3.51,3.85,6.34,2.14s4.08-4.23,2.58-7.5a2.64,2.64,0,0,1,0-2.94c2.62-4,6.39-7.67,4.21-13.28,7.15-2.78,6-12.3,12.3-15.82.73-.41,1.5-1.41,2.13-.78,5.59,5.55,9.76-.12,13.58-2.44s7.31-1.15,10.87-2c1-.24,2.32.08,2.26,1.49,0,.64-1.08,1.85-1.48,1.77-4.25-.81-5.94,3.82-9.44,4.46-.88,2.09-.76,4.46-2.78,7.2,8.89-.22,16.71,1.45,24.53-.68,2.24-3.41,5.69-2.56,8.88-2.65a8,8,0,0,1,3.64-1c4.77-.56,11.69,2.52,10.75,4.61-1.72,3.82-3.37,8.49-8.78,8.78-2.69-4.86-5.74-6.24-11.16-3.13-4.63,2.65-10.3,1.84-15.5.6-7.84-1.86-14.9-1.27-21.36,4.49-6.31,5.63-8.29,19.63-3.11,26.4,1.19,1.55,2.47,3,4.45,3.48,3.37,1.6,6.14,4.21,9.44,6a5.88,5.88,0,0,1,1.76,2.16,5.89,5.89,0,0,0,5,5.79c1.83.43,3.89,1.27,3.75,3.73a6.1,6.1,0,0,1-3.45,5.15c-4.19,2.15-10.52-.62-12-5.15-.71-2.2-.75-2.2-2.8.08-2.8.83-4.7.51-4-3.22a20.06,20.06,0,0,0,.39-8.23c-2.24,4.83-5.66,7.06-9.09,9.41-1.09.74-6.51,2.85,0,5.31,2.52,1,4.9,5.94,1,9.64-2.82,0-5.23-1.36-7.72-2.43-.67-.51-1.41-1.74-2-1.45-6.63,3.46-11.18-.13-15.54-4.55-1.09-1.1-2.29-1.85-3.93-1.39,1.35,8.23,7.36,14.36,14.83,15.26,6.9.83,8.36,2.41,10.61,11.46,0,.3,0,.61,0,.91.23,2.64-2.75,4.07-2.22,7.18.33,1.9-2.11,3.88-4.2,4.25-3,.53-2.28-2.24-2.65-4-.52-2.51-2.08-4.64-4.21-2.09-4,4.84-9.83,4.42-14.57,4.61-4.34.17-5.88,1.9-7.86,4.78s-4.75,5-8.09,2.9a5,5,0,0,1-1.29-7.42c1.73-2.14,1.37-8.74,7.12-4.52a1.46,1.46,0,0,0,2.23-.22c.91-1.22-.09-1.79-.85-2.58-2.51-2.6-2.51-2.73.48-4.36,1.36-.75,1.34-1.65.51-2.51-1.74-1.78-3.23-1-4.9.5-3.88,3.57-10.39,3.92-11.66.12-1.5-4.5-5.27-8.13-4.95-13.29A5.25,5.25,0,0,0,570.15,681.15Z"
            fill="#734e42" />
        <path
            d="M687.86,618.65c4.32-.23,4.72-5,7.76-7,1.94-1.25-.67-2.55-1.8-2.85-3.64-1-7.25-2.31-11.12-1.91.71-.78,1.92-1.49,2-2.35.29-2.07-1.94-5,1.73-5.77,2.8-.61,3.6,2.53,5.42,3.81.52.36.83,1.16,1.37,1.33,10.48,3.23,5.21,9,1.85,13.85s-.37,7.3,2.92,9.19c7.66,4.39,10.75,12.42,7.55,21.12,2,1.35,3.6,0,5.31-.69,3.51,3,9.23,3.66,9.61,10.11.12,2-.74,2.57-2.5,3.92,3.63.53,7.55-.29,9,3.57,1.35,3.61-2.88,6.24-2,9.88-1.15,1.42-2.79,1-2.91-.3-.76-8.51-8.24-11.79-12.74-17.35-1-1.26-3.14-2.7-5.06-.93-1.49,1.37-3.73,2.45-3.06,5.18.72,2.9-.25,5.68-1.34,8.08-1.63,3.59-2.35,6.51,1.09,9.39,1,.8,2.7,1.89,1.24,3.72a2.85,2.85,0,0,1-3.45.83c-3.13-1.16-4.87.14-3.87,3.24.62,1.94,2.31,2.93-.88,4-2.55.88-4.64.39-5.26-1.83-1.16-4.13-4-8.35-.84-12.84-1.16-7.14-7.29-11-13.13-8.32-2.12,1-4.7,2.78-6.19,0s1.38-4.17,3.39-5.24c5.46-2.91,5.82-8.09,6-13.41a72.51,72.51,0,0,0,4.09-25.69C682,619.92,684.06,617.86,687.86,618.65Z"
            fill="#72534a" />
        <path
            d="M721.07,614.81c3.93,5.33,5.08,11.76,6.42,18,1.13,5.3-2.59,9.8-4.51,14.18-1.28,2.92-6.46,1.45-9.57-.93-3.54-3.66,1.13-7.48-.2-11.26-.46-1.33.53-3.66-.21-4.34-3.63-3.33-3.3-4.35,1.56-3.5,1,.17,1.9,0,1.86-1.07-.06-1.7-1.47-1.75-2.78-1.83-3.4-.22-3.4-.24-2.41-3.59a3.38,3.38,0,0,0-3.48,2.89c-.28,1.29-.06,2.92-2,2.11-1.13-.46-2.49-1.69-2-3,.73-2,1.68-4.65,3.31-5.52,2.73-1.45,5.28-1.81,3.59-6.13-.56-1.42,1.52-3.69,3.87-1.5,1.85,1.72,3.65,3.51,5.48,5.27C720.4,614.17,720.77,614.22,721.07,614.81Z"
            fill="#956754" />
        <path
            d="M673.82,609.53c-.23.6-.38,1.68-.7,1.73a74.05,74.05,0,0,1-27.77-.54c2.53-3.35,5.56-4.76,6.72-7.71.2,2.58,1.63,4.07,4.09,3.86A41.52,41.52,0,0,1,673.82,609.53Z"
            fill="#72534a" />
        <path
            d="M721.07,614.81a4.59,4.59,0,0,1-1.11-.17,3.52,3.52,0,0,0-.13-3.77q-.63-2.62-1.28-5.23l3.85,1.29h0c-1.13,5.77,4.27,7.82,6.41,11.72a1.1,1.1,0,0,1-.06,1.37C724.85,620.33,725.12,614.25,721.07,614.81Z"
            fill="#6b463a" />
        <path
            d="M763.33,524.73c-.69,1.4-1.61.29-2.44.22a39.9,39.9,0,0,0-20.41,8.43c-2.43,2-4,5-6.28,7.26a3,3,0,0,0-.55,4.12c1.21,1.48,2.19-.13,3.19-.74,1.22-.74,2.32-2.08,3.92-.73a4.15,4.15,0,0,1-.44,3.64h0c-2.09.87-2.38,2.74-2.73,4.74a4.63,4.63,0,0,1-4.27,4.17c-2.45.15-5.94.7-7.16-.64-1.82-2,.85-4.41,2-6.63,3-5.57,1.25-15.28-4.1-18.51-6.48-3.91-5.55-9.6-5.89-15.58-.52-9,2.84-17.42,2.91-26.26a52.07,52.07,0,0,1,6.42-11.74c6.92-7.8,15.81-13.81,20.59-23.59A5.46,5.46,0,0,1,751.4,450a66.05,66.05,0,0,1,20.61-1c2.12.19,3.58,2.22,3.83,4.65.48,4.63-8.71,18.47-13.57,20.47-2.4-3.2,0-5.67,1.29-8.25,1.22-2.42,3.61-4.31,3.36-7.25-8.93-3.38-12.35,3.43-17.51,8.54-6.45,6.39-10.38,15.06-19,19.61-8,4.2-9.51,25.11-3.09,31.24,2.39,2.28,4.62.81,6.79-.88,4.57-3.58,9.59-6.19,14.8-6.3.56-12.31.28-24.41,8.78-34.32,1.16-1.36,2.12-3.48,4.59-2.42,1.39,2.31-.06,4.17-1,6.05-2.74,5.58-1.22,12-3.59,17.69a2.39,2.39,0,0,0,1.09,2.83c2.36,1.46,11.89-3.68,11.64-6.55-.29-3.39.56-7-1.49-10.17s-1.54-6.14.65-9c4.05-5.26,6.51-11.61,11.08-16.53,2.41-2.6,1.87-6.07,2-9.31.2-6.87,5.7-5.21,9.51-5.8,3-.47,5.74.26,4.47,4.58l-3.84,10.43a1.3,1.3,0,0,1-1.62.11c-1.06-.56-2-3.14-3.33-.47-2.61,5.16-6.07,9.83-8.35,15.18s-1.13,10.41-.21,15.64c4.45-.3,1.86-8.2,7.56-6.79.68,2.46-.39,4.44-1.7,6.34a8.87,8.87,0,0,1-1.31,5.2c-2.78,4.07-5.14,8.47-8.93,11.74h0c-4.94,3.64-9,7.74-8.73,14.71A5.5,5.5,0,0,1,763.33,524.73Z"
            fill="#794b3d" />
        <path
            d="M796.56,447.8c-2-7.35-7.06-1.43-10.55-2.21-2.84-.63-1.56,2.85-1.72,4.89-.32,4.16.06,8-4.67,11.49-2.52,1.86-5,7.49-7.32,11.46s-4.94,6.59-1,11.78c1.47,1.93,3.47,8.36.36,12.06-3.33,4-8.72,5.24-13.39,5.83-3.68.46-3.16-4.46-2.3-6.67,2.85-7.32,1.36-15.81,6.07-22.55h0c6.51-4.5,8.64-12.09,12-18.6,2.2-4.23-2-6-5.19-5.49a50.83,50.83,0,0,1-12.62.27c-4.68-.47-6.83,2.93-8.6,6.38-4.59,9-12.22,14.64-20.14,20.05l0-2.59c5-4.57,9.51-9.43,12.41-15.9a17.85,17.85,0,0,1,17.32-10.9c7.92.16,15.05-2.24,22.31-4.64a3.85,3.85,0,0,0,2.89-3.78,4.81,4.81,0,0,1,2.52-4.27c3.65-1.67,6.18-3.7,5.92-8.38-.06-1.1,1.26-3.42,3.15-3.56,1.46-.11,1.52,1.82,2.33,2.73C803.06,432.7,798.92,440.25,796.56,447.8Z"
            fill="#6a4235" />
        <path
            d="M623.94,678.67c3-.53,5.4.82,7.64,2.63,5.07.92,8.79,3,7.92,9.25-1.13,1.35-3.16,1.33-4.67,3.44,6.21.11,8.68,2.66,7.11,9.11-.9,3.71.56,7,5.72,7.31a57.94,57.94,0,0,1,11.24,2.23c7.73,2.07,9.17,4.4,7.51,13.3-5.33,5-12.17,2.06-18.17,3.57-3.89,2.6-9.41-.24-12.8,4l-5.1-.07c-1-1.55-2.69-1-4-1.58-2.51-1.12-8-1.49-1.63-5.47,1.46-.91,2-2.3.51-3.73-1.3-1.23-3.32-1.29-3.92.09-1.94,4.43-9,3.23-9.4,9.42-.09,1.55-9.84,1.48-10.83,0-5.06-7.61-7.89-8.11-15-2.6-1.51,1.18-2.93,1.85-4.38,0,1.19-.85,2.7-1.46,3.53-2.59,4.32-5.9,6.86-6.26,13.11-3.65,3.52,1.47,8,5.18,10.88-2.52,1.34-3.54,7-5.38,10.63-7.95,3,2.1-2.9,4.5.35,5.95,3.44,1.54,7.42,3.56,10.92,2.51,4.85-1.47,2.86-6.68,3.5-10.4.69-4-4.37-7.84,1.06-12l-7.91.61h0c.54-6.07.07-11.54-5.51-15.63C619.75,682,621.26,679.73,623.94,678.67Z"
            fill="#473e3a" />
        <path
            d="M986.42,810.67c.41,0,.81.07,1.22.08.06,5.62,3.84,11.25,0,16.86l-.22,1.45c-4.52-.92-1.43-4.66-2.43-6.88C984.79,818.26,984.46,814.31,986.42,810.67Z"
            fill="#593e36" />
        <path
            d="M947.31,823.75c0-1.71,0-3.41,0-5.12,4.73-5.15,2.51,3,4.78,2.59.85,3.56-.59,6.82-1.22,10.19-5.58-.42-1.61-5.5-3.61-7.67Z"
            fill="#593e36" />
        <path
            d="M777.4,631.65c-4.56.35-8.19,3.25-13.26,3.65-6.15.49-6.95-2.18-9-5.66-.26-.44-.93-.63-1.48-1-1.15,2.27.16,4.27,1,5.61,3.32,5.27.55,6.28-3.85,6.58-3.76.25-7.64,1.23-11.23.57-2.09-.38-5.85,1-5.49.1,1.62-3.86-4-5.4-2-9.37,1.81-3.63-3.68-6.71-2.08-10.85,2.26-1.84,4.23-.88,4.89,1.39,1.59,5.49,5.22,4.84,9.19,3.78,2.35-1,2.68-3,2.57-5.2,3.12,0,7.88-6.62,8.79,2.51.18,1.86,2.78,1.66,4.24.34s2.73-3.42,4.46-4.5c1.95-1.22,3.3-5.59,5.76-3.3,2.12,2,8.26,3.16,3.93,9.07C771.75,628.3,775,630.21,777.4,631.65Z"
            fill="#6b463a" />
        <path
            d="M764.18,603c-4.66-.23-8.59-4-13-.66-.39.29-3.56-1.7-3.76-2.92C746.31,593,741,590,737,586.12c-3-2.84-3-5.51-1.26-8.53,1.83-3.29,4-.23,6-.05,6.21.53,10.57,5.08,16,7.3,3,1.23,2.09,3.62,1.9,6C759.22,595.41,756.92,600.79,764.18,603Z"
            fill="#3c2c27" />
        <path d="M740.32,546.93l0-3.92c2.18-6.42,4.56-8.27,10.16-7.9-.75,3.76-6.29,3.55-6.32,7.91Z"
            fill="#5c3d36" />
        <path
            d="M744.13,626.47c-5.42,4.67-7.67,4.34-10-2.25-.87-2.41-1.9-3.08-4-2.92l-1.3-1.28.06-1.37c1.77-2.49,0-3.67-1.61-5.18-2.1-1.93-1.6-4,.11-6.17,1.93-2.49,3.32-.69,4.76.31,2,1.42,3.76,2.28,4.47,5.79C737.49,618.09,741.46,622.14,744.13,626.47Z"
            fill="#513730" />
        <path
            d="M722.4,606.93c-1-2-.73-3.85,1.31-4.89a1.54,1.54,0,0,1,2.28,1.39c.15,2.5-1.5,3.28-3.59,3.5Z"
            fill="#513730" />
        <path
            d="M791.46,458.25l1.26,0c-.4,10.57-2.06,20.81-7.65,30q.63-3.27,1.25-6.53c-2-2.28-1.29-4.88-.58-7.3C787.36,468.92,788.14,463.11,791.46,458.25Z"
            fill="#6a4235" />
        <path
            d="M763.33,524.73c2.65-4.23-.61-10.25,4.26-13.94,2.42-1.84,3.68-5.24,7.23-5.6-4.8,4.08-6.62,9.44-6.38,15.67C766.77,522.19,765.8,524.49,763.33,524.73Z"
            fill="#6a4235" />
        <path
            d="M774.83,505.18c2.21-4.52,4.2-9.21,8.93-11.74C783.37,499.4,780.29,503.24,774.83,505.18Z"
            fill="#6a4235" />
        <path
            d="M896.31,780.38c1.62.69,2.86,3,5.07,1.27,4.11.35,7.25,4.6,12.45,1.84,2.5-1.33,3.49,4.84,6.62,6.07,1.46.57,2.23,3.36,4.16,2s.69-3.27.06-5.17c-1-2.89.61-6.4-3-8.81-.92-.61,1.38-5.25,3.67-5.8,5.08-1.21,4.15-4.93,3.62-8-.75-4.24-.2-7.81,3.58-9.83,5.94-3.18,10.11-9.26,17.12-10.6,1.54-.3,3.09-1.89,3.66,1.29.34,2,1,4.65,4,3.83,2-.56,3.93-1.59,4.18-4.28.34-3.64-2.42-3.15-4.44-3.82-.36-.12-.43-1.13-.63-1.72a8.75,8.75,0,0,0,4.88-4.54c1.72-3.4,5-3.16,8.08-3.37,3.06.65,2.73,3.56,3.38,5.64,1,3.1.13,6.69,1.13,9.61,5.08,14.9,1.47,29.89,1,44.85-.13,4.12-.12,8.39-4.52,10.65-3.39-.58-2.65-3.5-2.72-5.61-.11-3-1-6-.76-9,0-.21.22-.52.14-.61-.51-.58-.38.3-.68.35-1.12.73-2.18,1-3.1-.26-1.44-2.92-1.7-6.21-2.37-7.85,2.43,15.42,4.59,32.28,3.41,49.38-.21,3-.58,6-2.35,8.63-1.53,1-2.75.62-3.69-.9a7.49,7.49,0,0,1-.86-3c-.55-4.61,1.35-9.69-2.55-13.65a13,13,0,0,1,.34-3c1.42-5.9,2.51-11.79-1.18-17.35-1.41-5.94-3-11.85-4.21-17.85,1.93,7.55,3.51,15.16,3.47,23a3.69,3.69,0,0,1-.6,1.86c-1.31,1-2.62,2-4.29.69-.94-2.17-.19-4.25.4-6.69-2.26,3.28-3,6.75-3.83,10.26-.5,2.21-.55,5.41-3.38,5.56-2.31.13-2.9-2.82-3.95-4.65a12.6,12.6,0,0,1-1-2.32c-1.52,3.44-1.1,7.19-2,10.65-.6,2.35,0,6.15-4.42,5.53-1.51-1.21-1.79-3.13-2.71-4.73,3.21,6.44,3.68,12.81,1.91,20-1.68,6.79-1,14.11.37,21.15a49.68,49.68,0,0,0,.06-14.61,16.7,16.7,0,0,1-.32-5.81c.19-1.08.47-2.33,1.53-2.65,1.64-.5,2.22,1.06,2.59,2.19,1.65,5.08,6,9.77,1.73,15.75-1.14,1.58-.31,4.24-.23,6.4.4,10.58-1,21.21.87,31.76,2.61,7.75.85,15.31-1.17,22.79-.68,2.52-1.51,5.52-5.16,5.35.32-12,1.55-23.91-.3-35.84-.23-1.45-.61-2.88-.92-4.31-1.1-8.1-5-15.36-6.59-23.32a29.92,29.92,0,0,1-2.61-8.28c-.4-1.87-.19-4-2-5.22,1.24,9,4.36,17.53,5.81,26.42.79,3,2,6,1.22,9.18-1.36,3.83-2.71,7.66-4.35,12.3-2.11-6.21-.92-12.29-3.09-17.69-2.69-2.74-.36-5.38.14-8.06-4.1.9-4.82-2.71-4.94-5-.19-3.55-3.3-3.63-4.71-5.57-1.62-2.23-2.28-4.93-3.58-7.34,4.66,8.66,5.56,18.56,8.86,27.66a6.8,6.8,0,0,1,.45,2.55c-.21,4,.46,10.15-3.17,10.89s-3.25-5.47-4.42-8.7c-2-5.58-2.12-11.93-6.67-16.39-2.23-.12-4.44,1.52-6.68.13-2.44-4.79-6.4-9-4.61-15.26.71-2.5-1.58-3.81-3.33-5a14.85,14.85,0,0,1-6.53-9.21,3.37,3.37,0,0,1,.86-3.58c1.26-1,2.3-.29,3.28.72s1.61,3.42,3.15,1c1-1.53-.26-2.95-1.82-3.47-6.34-2.09-7.9-6.47-6-12.6,2.85-3.06,3.73-5.4-1.22-7.54a5.75,5.75,0,0,1-3.15-7c.83-3,2.1-5.23,5.71-4.34,1.17.29,2.51.07,2.31-1.24-1-6.85,6.14-8.68,7.85-13.79C890.7,782,892.05,778.21,896.31,780.38Z"
            fill="#593e36" />
        <path
            d="M905,936.61c1.43-11.8,4.64-23.22,7.43-34.71.76-3.13-1.25-7.37,3-9.35,1.82,6.05,3.46,12,1.42,18.5-.9,2.87-3,4.79-3.25,8.6-.54,7.52,4.19,13.86,2.84,21.13-4.17-.93-.33-4.75-2.26-6.49-.09-.19-.25-.38-.25-.57,0-.63-.61-.94-.77-.51-1.91,5.1-4.56,9.94-5.52,15.4-1.8,1.76,1.5,5.34-2.21,6.41-.14-.79-.29-1.57-.44-2.36-1.76-1.79-1.19-4-1-6.1C905.76,943.39,904.21,939.88,905,936.61Z"
            fill="#53403a" />
        <path
            d="M924.3,910.86c-.79,9.14,3.06,18.45-1,27.47-.26.57-.6,1.1-.94,1.7-3.13-5.53-3.16-10.26-.29-33C925.31,906.78,922.78,910.05,924.3,910.86Z"
            fill="#53403a" />
        <path
            d="M891.9,948.16l-2.37-1.22A39,39,0,0,1,891,926.52C895.91,933.55,895.61,940.78,891.9,948.16Z"
            fill="#53403a" />
        <path
            d="M869.77,978.63c.17-1.72.35-3.43.52-5.15.65-2.58.45-6.76,4.7-2.6,1.28,6.19-2.9,10.72-5.22,16Z"
            fill="#423732" />
        <path
            d="M796.55,903c2.27-2.55,2.4-2.72,4.57-1,1.78,1.41,2.67-.42,2.53-1-.68-2.83,1.82-4.64,1.85-7.15.89-1.7-1.37-3.66.5-5.34,1-.87,1.85-1.78,3.23-1.71a2.51,2.51,0,0,1,2.41,2.53c.55,5.5,2,9.94,8.52,10.76,2.19.28,2.63,2.46,1.41,4.6-1.58,2.78-2.93,5.73-5.82,7.43-2.69.8-4.08,2.73-4.28,5.77-3.28-1.82-1.6-4.79-2.29-7-.74-6-4.08-8-9.23-5.27C796.12,907.61,796.78,905,796.55,903Z"
            fill="#966b59" />
        <path
            d="M805.56,948.64c8.32-3.19,3.93,2.9,4.42,6-2.9-.66-1.13-5.07-4.43-4.71A10.78,10.78,0,0,1,805.56,948.64Z"
            fill="#694c44" />
        <path
            d="M902.7,693c0-.41,0-.82,0-1.23a18.89,18.89,0,0,1,6.91.73,5.61,5.61,0,0,0,6.32-1.28c3.35-3,6.59-2.13,10.43.68,4.44,3.26,8.81,7.29,14.75,7.91,0,2.18-3.58,1.53-3.1,4.29,3.55-.09,6.73-3.72,10.57-1.16,5.28,3.53,1.67,8.05,1.48,12.19-2.6,1-2.43.93-3.66-1.8-1.58-3.5-5.88-3.15-7.77-2.63-6.45,1.77-8.11-2.79-9.73-6.78-1-2.42-2.56-3.07-4.17-2.89a10.17,10.17,0,0,1-8.52-2.74c-1-.95-1.91-.89-3.31-.11C907.31,701.25,904.74,699.83,902.7,693Z"
            fill="#bf886e" />
        <path
            d="M916.87,666.82c2.16,0,4.08.42,4.93,2.81-.57.62-1.1,1.29-1.72,1.86-1.56,1.44-4.75,1.53-3.94,4.93,1,4.18,4.4.37,6.23,1.8a3.39,3.39,0,0,1-2.24,2.95c-4.15,1.49-9.38,1-11.54,6.46-.14.34-3,4.13-4.7.13-.94-1.72,2-3.42,0-5.15v0a3,3,0,0,1-.65-1.77c-.13-2.79,4-4.38,1.85-8.08-.65-1.11,2.47-1.62,3.9-2.38C911.58,669,915.39,670.56,916.87,666.82Z"
            fill="#d09a81" />
        <path
            d="M903.93,682.61c5.69,1.76.82,3.44,0,5.15l-2.49,1.31C901.13,686.46,901.67,684.19,903.93,682.61Z"
            fill="#bf886e" />
        <path
            d="M837.26,942.59c-.78.11-2.35-3.58-2.24.29.07,2.39,1.34,4.76,2.07,7.13a2.54,2.54,0,0,0-2.35,1.51c-2.48-3.52-3.4-7.74-5.06-11.64-5-4.14-5-4.15,0-8.1.49-.39,1.59-.89,1.36-1.14-3-3.51,1.12-8.61-2.65-12-1.55-1.38-3.23-3-2.51-5.56.09-.32.61-.59-.23-1-4.84-2.09-5.11-2.22-3.81-6.66.85-2.91.72-4.88-1.85-6.65a11.89,11.89,0,0,1-2.84-3.49c-2.94-4.57-2.41-6,2.85-7.14,1.09-.24,2.3-.2,2.15-1.69s-1.26-1.55-2.4-1.4a17.56,17.56,0,0,1-3.14.5,2.44,2.44,0,0,1-2.51-1.62c-.34-1.22.48-2,1.41-2.62,4.27-2.86,8.41-6.49,13.86-2.5,1.26.92,2.4.46,3.53-.27a5.41,5.41,0,0,1,3.39-1c1.68.58,1.49,1.83,1,3.11-.68,1.79-1.67,3.48-2,5.41-.31,2.08-1.3,4.81,1,5.84,2.69,1.23,3.12-2,4.31-3.55,3.77-5,6.28-10.41,6.35-16.83,3.11-4.6,5.12-2.52,6.88,1.17,2.6,2.27,6.27-.65,8.81,1.89a3.39,3.39,0,0,1,1,1.46c.41,2.38-1.14,4-2,6-1.79.86-4.74,6.5-8,9.09-4.23,3.34-3.43,6.17-2.1,10a6.21,6.21,0,0,1-.65,4.42c-.71,1.6-1.58,3.37-3.27,3.76-2.28.53-2.37-1.94-3.25-3.26-1.27-1.93-1.95-4.21-3.35-6.18-2,1.69-1.55,3.67-.62,5.35a15.39,15.39,0,0,1,2,9.92c-.47,3.37,1.74,5,4.47,6.25,1.91.89,4.85,1.4,3.38,4.88-.55,5.59,2.75,10.32,3.38,15.67.26,2.26.9,4.44.14,7.42l-6-12.61c-1.7-1-1.69-3.12-2.68-4.59.4,1.6,1.88,3.24-.2,4.73C836.78,930.92,839.39,940.09,837.26,942.59Z"
            fill="#694c44" />
        <path
            d="M850.29,926.31c-.16-1.13-.54-2.28-1.67-2.54-6.73-1.57-9.51-5.18-7.55-12.52.5-1.86-1.93-4.49-2.87-6.83-1.05-2.62-1.34-5.26,1.93-6.41,1.19-.43,3.87-2.62,3,1.9-.59,3.2,4.54,4.6,3,9.38,5.64-6.74,5.48-9.07,0-13.81.39-1.5,1.88-1.62,2.86-2.38,2-1.57,4.58-2,3.06-6.3-1.61-4.58,2.06-6.71,6.55-4.48,1.43.7,1.83-.25,2-1.47,1.57-.92,3-3,5-1.42a8.19,8.19,0,0,1,3,7.43c-.21,2.18-1.55,4-1.89,6.14-.9,5.67,0,10.7,5.4,13.89,2.21,6.31,1,12.87,1.38,19.32,1.18,4.29-.12,5.52-4.09,3.47-4.05-5.86-3.22-13.3-6-19.59a49,49,0,0,1,2.16,9.33c.19,1.66.35,3.91-1.81,4.18-1.93.25-1.71-2-2.25-3.34-.2-.48-.26-1-.45-1.16,1.56,7.77,4,15.55,5.37,23.67.64,3.86-1.85,6.35-1.78,9.61.07,2.8,0,5.64,1,8.35-.12,3.66,2.87,7.38-.18,11-3.51,5.26-2.35,11.57-3.75,17.31-3.53-2.68-2.58-6-1.34-9.41l-.87-17.74c1-2.59,2.15-5.15,1-8A65.18,65.18,0,0,0,850.29,926.31Z"
            fill="#423732" />
        <path
            d="M872.93,964.82c-.3-2.18-2.09-4-1.54-6.37-2.63-4.34-.2-9.22-1.39-13.72-.17-2.86-.13-5.69,3-7.06,2.23-1,3.52.42,4.52,2.23,2.1,7.88,3.33,15.75-.9,23.39C875.64,964.49,874.61,965.46,872.93,964.82Z"
            fill="#423732" />
        <path d="M860.5,953.85c1.7,2.95,2.83,5.82-1,8C858.63,959,860,956.5,860.5,953.85Z"
            fill="#423732" />
        <path
            d="M750.46,535.11c-4.91.59-7.11,4.82-10.16,7.9a20.61,20.61,0,0,0-2.46,2c-1.65,1.76-3.3,5.25-5.75,2-1.6-2.09-1-5.17.86-8.18,6.06-10.06,17.62-11.1,25.92-17.37a1.67,1.67,0,0,1,2.3-.05c1.2,1.23-.21,2.35-.28,3.54C758.85,529.87,752.22,529.89,750.46,535.11Z"
            fill="#905c4b" />
        <path
            d="M833.65,879.52c-.86,1.63-2.7,3.55-3.89,2.09-6.22-7.64-10,.5-15.26,1.6,2,2.37,3.41,1,4.71,0,1.79-1.42,3.34-.52,4.54.68,1.65,1.66.87,3.59-.08,5.37s-2.27,2.54-4,.79c-.82-.85-1.68-1.4-2.7-.35s-.41,2.07.14,2.94a17.3,17.3,0,0,0,2.76,3.53c3.6,3.32,4.76,7.19,3,11.88-.54,1.42-1.23,3,.84,3.76s1.8-1.84,3.28-2.42c.6,2.6-1.14,5.51,1.78,7.7,2.49,1.86,6.82,4,2,8.11-.21.17-.12.8,0,1.2,1.18,6,1.18,6-5.27,9.37,4.07-.28,4.85,1.45,4.24,4.11-3,2.89.88,5.85-.11,8.76a3.63,3.63,0,0,1-3.62-3.9c-1.64-6.31-3.47-12.57-3.89-19.15-.15-2.32-3.12-4.58-5.93-5.23-1.19-.27-1.44-1.34-1.23-2.55.33-1.89.57-3.79.84-5.69-.11-3.38,3-5,4.27-7.68,1.39-2.89.1-4.06-1.57-3.68-7.21,1.6-6.15-5-8.17-8.32-.73-1.19,1.66-4.35-1.41-4.4-2.5,0-2.84,2.59-2.55,4.91,0,.26-.54.6-.82.9-6.08-3.84-8.23-3.33-14.16,3.73-2.67-4.81,1.14-9.23.3-13.66-.33-1.7,2.2-4-2.11-4-2.58-.06-.83-3-.38-4.22,1-2.82,1.86-4.81-2.53-4.85-1.46,0-4.35-.38-4.47-2.23-.13-2.09,1.81-3.84,4.15-4,1.78-.14,2.67-1.29,3.43-2.52,1.58-2.55,3.34-2.65,5-.36,1.29,1.81,2.36,2.27,4,.58,2-2-.2-2.49-1.17-3.3-2.13-1.77-1.7-3-.17-5.29,2.34-3.48,6.78-6.28,4.81-11.84-.59-1.64,1.45-2.36,2.74-3.08a29.22,29.22,0,0,1,13.35-3.6c1.94,3.88.93,6.88-2.59,7.35-2.15.28-5.79-2.21-5.69,2.1a6.19,6.19,0,0,0,6.47,6.39,3.36,3.36,0,0,1,1.74.69c5,2.87,4.89,7.74,4.49,12.55-.38,4.56,1,5.93,5.73,5.62a34.19,34.19,0,0,0,9.2-1.51c3.09-.05,5.22-1.39,7.51-3.74,4.81-4.94,9.47-7.82,14.24-1.3,3.27,3.46,6.82,6.83,3.64,12.26-3.17-2.32-7.11,1.79-10.19-1.27.23-2.21,4.41-4.53.67-6.43-2.6-1.33-5.53-.08-5.78,3.84,2.72,8.85-5,13.92-7.34,20.92a3.09,3.09,0,0,1-4.25,1.72c-2-.82-2.81-2.54-3-5-.26-4.17,2.8-7.25,3-11.19-.47-.54-.8-1.62-1.59-1.25C833.65,877.36,833.77,878.57,833.65,879.52Z"
            fill="#7d5446" />
        <path
            d="M992.85,796.27l-.17-1.35c2.59-1.32,2.41-3.64,2.34-6.1a68.09,68.09,0,0,1,.73-13.74c3.68,5.65,1,11.46.81,17.18l-1.29,10.41C990.94,801.92,993.52,798.46,992.85,796.27Z"
            fill="#593e36" />
        <path
            d="M916.87,666.82c-.51.95,3.47,1.89-.07,2.95s-7,2.53-10.69,2.74c0,2,8.5,2.86.35,5.3-1.84.55-2.41,2.77-2.53,4.78-9-3.21-9-3.21-4.39-12.27a4.12,4.12,0,0,0,.53-2.46c-1-5.17-.15-8.75,6.06-8.68.64,0,1.29-1,1.94-1.51C909.75,662,914.84,662.86,916.87,666.82Z"
            fill="#bf886e" />
        <path
            d="M980,871.79c-1.57-11.8-4.29-23.69,2.42-34.89,1.68,7.21-.88,14.5.33,21.72-.11,3-.24,5.9-.31,8.86C982.38,869.39,982.68,871.45,980,871.79Z"
            fill="#593e36" />
        <path
            d="M769.72,696.92c-1.6,3.37-.88,9.46-7.68,6.81-.39-.15-1.22.4-1.63.84-5,5.25-10,3.44-15,.18.58-1.45,3.52.23,3.09-2.28-.33-2-1.31-3.65-3.52-4.15-1.5-.33-4.07,0-2.36-2.91,1-1.65,1.93-4.34,4.54-1.35,1.73,2,3.62,1.52,4.39-.9,1.51-4.68,5.62-1.49,5.86-.89,3.15,7.87,7.9,3.5,12.29,2C769.71,695.16,769.71,696,769.72,696.92Z"
            fill="#3a3430" />
        <path
            d="M848.58,729c2.34,4.22,3.74,8.48,7,12.15,3.55,4.06-2.74,5.28-3.38,8.53C847.34,743.32,849.52,735.92,848.58,729Z"
            fill="#543a33" />
        <path d="M817.27,780.78c.33-4.18,1.35-7.81,5.55-10.13C822,774.77,826,781.07,817.27,780.78Z"
            fill="#4a3933" />
        <path
            d="M666.14,725.59c-1.74-11.05-2-11.37-12.92-12.41-3.28-.31-6.16-2.42-9.87-1.24-2.21.7-4.82-8-2.93-12.09s-.35-4.06-2.89-3.85c-2.09.18-5,2.52-5.49-1.24-.33-2.83,2.39-4.3,5.29-4.35.63,0,1.27,0,1.91,0a3.82,3.82,0,0,1,2.3,1c2.29,2,4.16,4.54,7,5.83,1.28.6,2.63,1,3.91,1.6a19.26,19.26,0,0,0,6.27,2.73c.52-2.23-1.08-3.2-2-4.5a4.33,4.33,0,0,1-.82-1.56c2.06-3,5.72-3.36,8.53-4.13,2.56-.7,3.77-2.3,5.53-3.59,1-1.34,2.1-2.19,3.81-1.32,4.7-1.12,1.52-3.68.61-6a17.94,17.94,0,0,0,4,.26c2-.35,4.8-3.31,5.36.86.29,2.18,6.1,5.6-.67,7.48-1.09.31-1.82,2.58.58,3.29,4.84,1.45,7,5.75,10,9.34,1.8,2.21,4,5.72,6-.17,1.06-3.17,5.06-2.23,7.16-4.66,1.57-1.82-.17-6.51,3.62-5.52,2.8.72,2.71,4.2,2.89,7.15.1,1.78,1.88,3.82,4,4.69,1.18.5,2.61.7,2.45,2.45-.68,7.44,3.67,5.23,7.54,4.5-.38-2.92-5.21-4.84-2.82-6.74,3-2.42,4,3,6.13,3.93,2.94-2.66,3.55-9.2,9.83-5.19,1.38,4.41,5.72,10.14-4.5,8.78-2.22-.3-3,3.32-3.16,5.7-.38,4.32-2,5.47-5.75,2.88-1.75-1.23-4-2.66-5.92-1.39-3.58,2.44-5.53,1.41-8.58-1.38-2.68-2.47-7.11-.06-10.81-.52-1.88-.23-4.41-.06-5.35-1.2-3.71-4.47-10.24.45-13.53-4.6-6,5.62-8.07-1.52-11.76-3.64-2.06-1.18-5.05-1.76-6.44.18s1.43,3.06,2.75,4.31c.46.44,1.2.85,1.29,1.37a22.81,22.81,0,0,0,9.13,14.9c-5.3-3.34-7.17-.79-9.16,3.25s-9.36,3.68-15.21,0c.36-1.07,1.16-2.2,2.14-1.86C659.93,730.53,662.87,727.63,666.14,725.59Z"
            fill="#3a3430" />
        <path
            d="M679,650c1.31,6.82-1,11.74-7.4,14.42-1.2.51-2.79,1.14-2.2,2.59.86,2.08,2.35.77,3.65.09,8.59-4.5,8.79-4.51,14.31,4.89.88,1.5,4.14,1,3,3.8-.16.37-1.58.21-2.41.29a39,39,0,0,0-23-.33c-1.74.5-3.32,1.56-5.3,1.66-10.09.5-10.08.54-11.31,10.42-2.31.55-3-1.08-3.36-2.81-1.25-5.5-3.87-10.85-1.81-16.73,1.83-1.2-.39-4.95,2.35-4.95,3.05,0,2.18,2.64,2,4.85a3.54,3.54,0,0,0,3.3,4c2.67.17,5.5,2,8-.63,3.08-3.18,1.56-5-1.88-5.32-4.7-.47-6-2.74-4.81-7.11,3.17-2.72,6.07-.74,8.69.86s3.66.77,5.83-1C670.56,655.87,673.13,650.53,679,650Z"
            fill="#593f37" />
        <path
            d="M643.06,668.27c-.23,1.6,6.26,1.71.94,4.48a1.9,1.9,0,0,0-.73,1.62c1.59,4.51,3.29,9,5,13.44,2.54,2.61,2.62,7.77,7.72,7.72a7.4,7.4,0,0,0,1.15.16c1.21,1.5,1.33,3-.07,4.43-1.79,1.77-3.37.31-5-.51-1.35-.24-2.89,0-3.83-1.39a27.41,27.41,0,0,0-7.67-6.48l-1.33-1.32c-.36-5-4.78-6.37-7.66-9.12.59-4.66-.88-7-4.45-7.11-2.53-.06-2.09-2-1.63-3.21.94-2.36,2-5.08,4.31-6.14,3.57-1.66,6.81-3.11,7.52-7.7.24-1.57,2-2.24,3.61-1.57s2.59,2,1.29,3.52c-2,2.33.35,5.33-1.74,7.89C639.42,668.29,642.11,667.84,643.06,668.27Z"
            fill="#795b50" />
        <path
            d="M673.82,686.48,670,687.8c-2.75-.35-2.85-2.18-2.21-4.28.33-1.09,1.23-2.07,2.35-1.76A4.81,4.81,0,0,1,673.82,686.48Z"
            fill="#593f37" />
        <path
            d="M837.57,869.12c-.58,4.6-4.91.06-6.3,2.69a6.28,6.28,0,0,0-.93-.86c-2.84-1.78-5.53,3.57-8.35.23-1.43-1.69-1.46-9.92-.21-15.33-4.27,1.64-6.09.88-3.47-3.73-.52-2.13,1.24-2.55,2.46-3.12,5.7-2.67,7.24-7.54,6.5-13.3-.35-2.65-.1-4.68,2-6.25s4.42-1,4,1.45c-.94,5.7,3.8,11.05-.75,17.77,4.68-2.14,7.16-3.88,5.66-7.92-1.74-4.66,1.41-10.33-3-14.49-.63-.58.21-2,1-2.83h0c1.61,1.16,3.38-.25,4.9.21,2.75.84,5.78,2,2.48,5.68-.8.89-2.4,1.34-1.13,3a5.18,5.18,0,0,0,4.27,2.35c3.16,0,.23-2.35,1.13-3.22,3.78-3.65,4.42-9.77,9.45-12.44a2.88,2.88,0,0,0,1.78-3.17c-1.18-4.06-.7-8.7-3.87-12.1,10.42-3.83,10.75-4.2,9.51-10.89-2.86.3-.65,4.29-3.42,4.7-1.51-1.34-.88-3.12-.41-4.59.86-2.72,1.62-6.93,4.36-6.87,3.59.06,1.27,4.15,2,6.37a27.49,27.49,0,0,0,2.56,5.88c1.34,2.26,1.81,5.38.72,6.84-5.82,7.81-3.75,17.77-7.43,26.07l-.74.52c-4.06-.42-8.72,4-8.23,8.9s-1.46,7.76-4.69,10.59c-2.07,1.82-4.59,3.92-3.95,7C846.89,865.16,842.76,867.44,837.57,869.12Z"
            fill="#9e6958" />
        <path
            d="M863,875.56c.62-4.95-1.88-8.49-5.1-11.71a7.92,7.92,0,0,1,.79-9.08c2.51-3.26,3.75-7.3,6.48-10.79-2.67.77-5.12,1.14-6.8-1.42-1.5-2.27.72-2.82,1.75-4,1.72-2-.62-5.88,2.9-7.26h0c2,4,5.42,3.67,8.56,2.27,2.26-1,6.66-.78,4.12-6.28-.88-1.88-1.17-6.34,1.38-9-.58,4.9.14,9.81,5.53,10.67,3.66.59,4.88,1.6,4.67,5-.12,2.18-1.22,4.07-3.12,4.48-4,.85-2.45-3.68-5-4.79.25,3.86,1.12,7.31,4.91,9.75s7.84,4.18,4.44,10.62c-.86,1.65,2.67,7.28,4,11.17-.75,3.11-5.41,4.51-3.59,8.91.33.8-1.45,2-2.9,1.6-3.74-1-7.07.92-10.37,1.92-4,1.2-7.17,2.49-9.44-2.55-.79-1.76-1.79,1.82-3.12.56Z"
            fill="#694c44" />
        <path
            d="M866.79,771.15c3.85-2.41,8.77-.92,12.68-4.39,2.65-2.36,3,2,3.4,3.6.73,3-3.32,6.3.47,9.26-1.85,1-3.6,2.41-5.57,2.85-1.26.28-3.61.1-3.18-2.69.18-1.17,1.24-2.38,0-3.74-1.85,0-2.69,4-5.1,1.61-1.73-1.74-4.09-3.35-2.69-6.5Z"
            fill="#ac7966" />
        <path
            d="M896.31,780.38c-3.35-.3-4.71,3.46-7.69,3.91-2.57-5.46-1.7-11.17-1.28-16.87.15-2.12,1.15-1.85,2.47-1.36C890.38,771.59,896.05,774.71,896.31,780.38Z"
            fill="#724c3e" />
        <path
            d="M934,732.33c-1,2.54-2.21,3.83-4.4,3.34a1.67,1.67,0,0,1-.79-1.4C929.64,732,931.47,732.11,934,732.33Z"
            fill="#724c3e" />
        <path
            d="M882.22,745.17c-2,1.16-3.2,5.71-6.32,2.2-1.36-1.54-3.71-3.78-2.78-6,1.15-2.77,4.07-.18,6.3-.78,2.71-.72,2.73,2.42,2.81,4.57Z"
            fill="#412f2c" />
        <path
            d="M869.44,740c-.83-4.67,1.78-6.65,5.75-7.32,2.14-.36,3,1.13,3.11,3.06s-.51,3-2.58,2.22c-2.65-1-3.84,2.49-6.28,2.05Z"
            fill="#724c3e" />
        <path
            d="M735.45,657.26c3.63-1.37,5.15,1,6.19,2.8,2.42,4.13,1.89,9.44,4.79,13.53.6.84-.15,2.11-1,2.82-1.26,1-2.4.43-3.32-.58a16.89,16.89,0,0,1-4.62-11.77C737.55,661.46,736.8,659.65,735.45,657.26Z"
            fill="#4e3930" />
        <path
            d="M694.22,735.51c-5.38-2.59-6.62-7.82-10.55-10.53-1.71-1.19-1.15-3.67.53-5.07,3.11-2.59,7.06-2.5,10.75-2.73,1.1-.07,3.89,2.34,1.71,3.49-5.65,3-4.31,6.77-2.49,11.12C694.54,732.68,694.22,733.86,694.22,735.51Z"
            fill="#221f1e" />
        <path
            d="M666.14,725.59c-2.35,6.63-8.37,3.9-12.8,5.25a8.3,8.3,0,0,1-5.1-1.33c.8-1.73,2.35-3.16,4-2.47C657.22,729.19,661.51,726.1,666.14,725.59Z"
            fill="#3b3431" />
        <path
            d="M836.21,823.43c.52,1.75-1.25,4.42,2.43,4.9,2.41.31,1.75,3.16,1.09,4.16-3.36,5.14,6.13,13.41-4.16,16.85-3.16,1.06-4.91-1.59-4.13-2.46,5.09-5.7-3.62-11.58,1.17-17.08-2.74.75-4.84,1.49-4.22,4.52,1.8,8.88-.41,13.14-8.61,16.63a7.27,7.27,0,0,0-1.47,1.17c-2.19-1.06-4.41,1.45-7.16-1.56-4.55-5-3.39-8.28.61-12.24,1.91.28,1.66,4.64,4.6,2.84,2.19-1.33,3.21-3.36,1.93-6C821.27,827.41,829,822.37,836.21,823.43Z"
            fill="#885b4c" />
        <path
            d="M650.76,657.82c-3.76-.35-6-3.38-8.92-5.24a28.81,28.81,0,0,1-4.21-5.66c-6.24-11.12-3.86-20.34,6.91-26.82,7.09-4.28,12.7-1.18,13.15,7.25-3.92,2.28-3.92,2.28-12.16,1.72,1.87,1.15,3.73,1.54,5.06,2.81s2.69,1.78,4.37.74a10.56,10.56,0,0,1,2.71-1.07c5.9-.64,11.84-.14,17.74-.71,3.55-.34,4.94,1.72,5,5.07.16,6.45-9.52,20.75-15.37,22.64C660.21,660.11,655.52,658.33,650.76,657.82Z"
            fill="#24211f" />
        <path
            d="M657.18,627.7c-3.13-9.24-7.07-10.27-15-3.91-7.75,6.19-8.73,14.14-2.61,23,1.25,1.82,2.55,3.4,2.27,5.75-3.89.71-5-2.63-6.72-4.93-2.47-3.26-3.32-19.12-1.3-22.57,3.65-6.23,14.55-11.75,21-10.93,6.07.76,12.18,1.16,18.26,1.8,2.17.23,3.6-.92,5-2.29,2.33-2.23,5.28-1.94,7.85-1.2,3.12.91,1.43,4,1.85,6.19-3.46,1.4-4.23,3.12-4.15,7.59.13,8-.34,16.44-4.76,23.74-4.3,4-8.79,7.79-12.82,12-1.67,1.75-2.46,1.37-4.11.34-3-1.89-6.13-3.83-10-3.24l-1.29-1.3c5.91-.1,11.91.59,17.47-2.32.93-.48,2.74-.68,2.81-1.19.9-7,6.65-11.83,7.82-18.61.33-1.92.21-3.58-3-3.27-6.52.65-13.11.52-19.67.72-.09-4.29,3.37-2.87,5.24-2.93a11.77,11.77,0,0,0,8.36-3.45c1.2-1.15,3-2.33,1.2-4.11a8.71,8.71,0,0,0-8.11-2.16c-1.74.32-3.16,1.17-3.08,3.3,0,1.05.66,2,.58,3.1-.37,1.36-1.18,2.34-2.61,2.28C657.12,629.16,657,628.37,657.18,627.7Z"
            fill="#40342e" />
        <path
            d="M623.94,678.67c-.22,1.59-3.57,3-.7,4.71,6.5,4,8.75,9.06,4.57,16.12-1.5-1-2-2.69-2.49-4.35-1.61-5.4-5.77-7.73-11-5.94-1.24.42-3,1.4-3.25,0-1.26-6.16-9.25-7.16-9.74-13.68-.14-1.9-4-3.4-1.1-5.36a5,5,0,0,1,7.26,1.69,9.85,9.85,0,0,0,6.9,5.05c2.24.44,5.09,3.3,6.16-1.9C620.93,673.13,622,673.41,623.94,678.67Z"
            fill="#624b43" />
        <path
            d="M762,473.88c-9.64,7.8-12.82,22.94-9.67,40.06-7.4-3.45-12.64.68-17.64,5.13-3.73,3.31-7.26,1.5-10-2.41-7.09-10-2-18.67,1.49-27.74.84-2.17,2-3.85,4.2-4.48,4-1.11,5.78-4,8.15-7.33,5.44-7.61,12.19-14.24,18.35-21.32.87-1,1.84-1.44,2.66-.5,2.15,2.46,4.05,2.65,6.2,0a1.81,1.81,0,0,1,2.83.05c1.52,1.49.9,3.06.22,4.76-1.91,4.77-6.36,8.22-6.77,13.74Z"
            fill="#8d5741" />
        <path
            d="M791.46,458.25c.15,6.34-3.58,11.71-4.33,17.83-.23,1.88-.53,3.75-.81,5.63-2.75,1.15-2,3.93-2.84,6-1,2.37-3.14,4.59-5.81,3.95s.07-2.9-.35-4.37c-3.21-11.08,2.16-19.52,8.16-27.78a5.9,5.9,0,0,0,.73-1.77c.52-1.64-.68-4.51,2.35-4.39C791.42,453.48,791.41,456,791.46,458.25Z"
            fill="#895342" />
        <path
            d="M956.42,847.56c-1.74,19.59-2.19,39.15,2.8,58.55-1.7,1.19-2.09-1.22-4.29-1.61l5.55,20c-.09.85-.41.91-.93.27-1.9-4.55-2.07-9.83-5.36-13.8L952,904.22c-1.28-1.26-2.47-2.77-4.5-2.1-1.1-4.39-5.36-6.19-7.22-10-1.41-1.66-1.7-3.52.84-3.31,4.35.36,5.83-2.89,7.75-5.8.18-.92-.88-2.93.82-2.42,1,.31,1.6,2.61,3.42,3.93-7.63-15.88-2.35-31.72-2.22-47.55,2.61,1.19,1.42,5.39,4.42,6.26Z"
            fill="#593e36" />
        <path
            d="M863.07,875.6c1.7-1.14,1.23-4.43,4.15-4.32.28,6.49,1.53,6.61,7.38,5.18,3.73-.91,7.11-5.3,11.8-2.13,1.67,1.14,1.83-.84,1.78-2.12,0-.82,3-5.78,3.63-6,.31-.11.45-.69.68-1.06,2.79.66,4.47-1.88,6.83-2.48.94,5.65,3.45,11,3.33,16.83-1.19,2,0,4.37-.77,6.45-.72,4.81-2.36,9.38-3.42,14.09a31.11,31.11,0,0,1-3.31,4.57c-2.58,5.68-3.23,11.81-4,17.92-.56.94-1.06,2-2.45,1.27-2.58-9-.84-18.37-1.46-27.67-1.92.42-1.22,2.92-3.47,3-.2-3.89-.41-7.82-.7-13.56-3.84,24.27,1.06,46.25,3.25,68.41-4.91-6-6.51-12.9-6.89-20.48-.59-11.79-2.08-23.5-7.38-36.2v9.56c-5.92-.48-9.76-9.41-6.69-15.84,1.08-2.28,2.59-4.22,1.5-7.06-1.23-3.19-2.82-5-6.31-3.14C861.16,879,863.25,877.86,863.07,875.6Z"
            fill="#53403a" />
        <path
            d="M894.56,850.41c-.22-2.59-3.33-3.6-2.74-6.39,1.16-5.61,4.8-10.27,5.33-16.21.19-2.09,2.21-.46,2.87,1,2.32,5.12,1.57,10.1-1,14.85A80.64,80.64,0,0,1,894.56,850.41Z"
            fill="#694c44" />
        <path
            d="M895.62,854.34a4.08,4.08,0,0,1,2.61,4.53,1.22,1.22,0,0,1-2,.62C894.43,858.08,894.86,856.28,895.62,854.34Z"
            fill="#694c44" />
        <path
            d="M900.27,885c.73-1.86.76-4,2.38-5.5,7.3,20.59,2,40.2-4.79,61a235.58,235.58,0,0,0-1.49-33c-.12-1.1-.22-2.14-1.22-2.81-.2-2-.35-3.9,2.3-4.26,1.77,1.21,1.42,3.26,2.06,5C898.88,898.53,901.11,891.84,900.27,885Z"
            fill="#53403a" />
        <path
            d="M886.17,959c1.44,5,2.94,9.9,4.29,14.88.7,2.6-.12,5.06-.91,7.58-.84,2.7-3.3.1-4.81,2-.85,1.06-1.62-2-1.53-3.19.41-5.35,1.08-10.69,1.66-16.09-2-.72-1.22,2.29-3,2.22-1-2.44.23-3.82,2.32-4.82C885,960.89,884.09,958.74,886.17,959Z"
            fill="#423732" />
        <path
            d="M895.24,973.46a88.93,88.93,0,0,1-2.3-21.63c.55-.94,1-2.1,2.41-1.26C898.78,958.22,896.57,965.84,895.24,973.46Z"
            fill="#53403a" />
        <path
            d="M935.35,836.71q1.3-8.41,2.6-16.84c3.32,7.72,4.46,16.07,6.23,24.19.85,3.89-1.94,8.29.12,12.48.2,6.85-.39,13.75,1.34,20.49a8,8,0,0,1-1.09-.08c-3.39-6-3.35-12.83-4.07-19.45C942.19,849.7,938.19,843.35,935.35,836.71Z"
            fill="#593e36" />
        <path
            d="M847.73,871.7c-2.26-2.4-.46-5.81.93-5.35,2.77.91,6-3.54,7.87.67,1.63,3.68-.33,6-3.69,7.27C851.23,873.24,852,867.38,847.73,871.7Z"
            fill="#885b4c" />
        <path
            d="M833.65,879.52c-1.66-1.62-1.82-3.34-.09-4.95.75-.7,1.78-1.28,2.82-.4,1.67,1.4.24,2.69-.2,4Z"
            fill="#9e6958" />
        <path
            d="M863.05,831.25c-.37,1.22-1.39,2.73-1,3.6,1.6,3.67.72,5.63-3.62,5.44,3.62,7.28,6.92-1.29,10.22.56-3.08,8.07-10.81,13.64-10.72,23-4.13-3.9-9.28-3.43-12.27,2.37-2.25,4.35-4.79,3.74-8.09,2.9,3.16-3.35,8.77-4.88,6.4-11.92-1.34-4,3.4-6,5.79-8.52,1.32-1.4,3.32-2.25,3-4.53-.53-3.89.1-6.83,2.19-10.65C857.66,828.56,859.24,828.05,863.05,831.25Z"
            fill="#885b4c" />
        <path
            d="M977.9,783c.53-1.59-.63-3.46,2-6.23.74,13.81,3.42,26.32-1.83,38.69-2.8,0-2.35-2.34-2.77-4.05a32.58,32.58,0,0,1,1.69-7.56C975.63,796.84,979.54,790.06,977.9,783Z"
            fill="#593e36" />
        <path
            d="M979.82,825.92c-2.14,6.37-4.77,12.6-5.27,19.44-3.3.33-.75-3.07-2.35-3.83-.94-7.95,1.59-15.5,2.59-23.22,2.38-.57,2,1.53,2.6,2.74A6.62,6.62,0,0,0,979.82,825.92Z"
            fill="#593e36" />
        <path
            d="M652.07,699.61c3.36.93,5.64.44,5-3.92,3.39,1.52,3.38,5.15,6,8.82C658.15,703.33,654.55,702.89,652.07,699.61Z"
            fill="#593f37" />
        <path
            d="M640.57,691.74c3.77.66,7.37,1.54,7.67,6.48C644.42,697.62,642.66,694.47,640.57,691.74Z"
            fill="#473e3a" />
        <path d="M872.6,851.58c4.21,7.26,6.84,14.54.51,21.49C865,865.29,864.91,855.21,872.6,851.58Z"
            fill="#53403a" />
        <path
            d="M657.18,627.7c1.68,1.71,1.82-.29,2.47-1.07,4-1.31,7.86-1.33,11.52,1.07-3.36,6.5-10.5,2.18-15,5.45l-1.28,1.24c-1.41-.56-2.58-2-4.34-1.3-2.21-1.83-7.52-1.29-6.94-4.19.91-4.54,5.14.24,7.92-.94C653.17,627.27,655.28,627.75,657.18,627.7Z"
            fill="#5c5045" />
        <path
            d="M650.56,633.09c.42-1.39.89-2.91,2.71-2.62,2.43.39,1.39,2.47,1.63,3.92C652.73,636.46,651.41,635.58,650.56,633.09Z"
            fill="#d9c9a1" />
        <path
            d="M671.17,627.7c-3.87-.07-7.81.73-11.52-1.07-3-5-2-7.44,3.42-7.86a13.87,13.87,0,0,1,7.34,1.43C674.9,622.37,675.78,624.69,671.17,627.7Z"
            fill="#846e66" />
        <path
            d="M723.45,506a39.79,39.79,0,0,1,7.12-18.32c1.3-1.91,4.15-4.17,6.85-.63.55.72,1.85,1,2.86,1.17,9.07,1.63,8.21,1.28,4.89,10.06-2.93,7.75-9.76,11.39-14.12,17.48-1.31,1.82-2.86.32-3-1.34a10.12,10.12,0,0,1,.87-4.4C730.87,504.57,730.1,502.19,723.45,506Z"
            fill="#9d654e" />
        <path d="M900.27,885c3.17,8.35,1,16.52-.26,25.62-3.87-3.45-1.75-7.18-2.56-10.27Z"
            fill="#53403a" />
    </g>
    <g id="frame">
        <rect width="1000" height="1000" fill="none" />
    </g>
</svg>