<!-- Copyright (c) 2023 Jan Stehno -->
<svg xmlns="http://www.w3.org/2000/svg" viewBox="0 0 1000 1000">
    <title>eurasianlynx</title>
    <g id="eurasianlynx">
        <path
            d="M969.25,708.48c-7,.27-13.5-1.17-20.32-3.41-16.48-5.39-31.45-14.31-48.12-19.22a60.13,60.13,0,0,1-19.37-10c-22.2-17.17-48.46-24.28-74.8-31.39a2.7,2.7,0,0,0,1.63,4.23c7.43,1.74,14.06,6.29,21,6.43-5.46,1.07-5.69,5.54-3.9,10.29s.61,6.47-3.79,9.27c-11.86,7.56-12.68,16.37-3.26,26.64,1.51,1.64,3.63,2.74,5,4.56,2.06,2.79,2.37,6.92,6.23,8.3,2.81,1,6,2.81,8.47,0s-1.77-4.24-2.08-7.09c1.21-2.77,9.25-.78,5.7-7.53,5.32.67,8.37,5.23,13.22,6.22,3.74.76,7.4,1.78,11.26,1.56,2.83-.15,5.33-.86,4.51-4.41-1.28-5.62,2.68-5.56,5.8-4.85,8,1.82,16.64,2,23.46,7.87,3.93,3.39,10,3.42,13.17,8.51,4.4,7,4.59,7.1-3.58,9.84,1.11-1.87,5.84-1.75,3.59-5-3.45-5-8.6-5.74-14.23-3.42,2.81-1,3.19-2.55.8-4-4.55-2.83-9.61-2.88-14.72-1.83-.75.15-1.85.78-1.76,1.27,1.28,6.91-5.27,8.19-8.43,11.9-4.65,5.45.2,20.58,7.2,22.61,2.38.68,4.73.78,5.26-2.43.84-5.15,4.71-5.38,8.61-5.31,2.79.05,5.55.55,8.35.17,4.21-.56,6.33,1.23,5.87,5.58-.33,3,.89,5.39,2.67,7.66,2.52,3.21,6.7,5.9.39,10.15-3.14,2.12.9,9.11,5.26,9.27a11.17,11.17,0,0,0,5.9-1.15c5.82-3.71,11.65-7.81,15-13.91,1.07-1.95.35-4.51,3.57-5.49,3.5-1.06,5.78-.23,7.88,2.58,3.23,4.32,7.77,6.27,13.12,6.51,7.62-4.77,7.69-12.26,7.36-20-.12-2.83-2-6.3,3.38-7.24,2.07-.36,2.36-4.16,3.08-6.56,1-3.36,2.05-6.73,2.8-10.16,1.64-7.56,0-9.2-7.56-7.87C971.68,707.8,970.48,708.21,969.25,708.48Z"
            fill="#a19d93" />
        <path
            d="M572,843.51c6.39,4.1,5.91,11.78,8.75,17.65,5,10.39,13.29,15.23,23.56,18.12,2.51.71,5,.78,7.28-.86,13.12-9.33,25.77-7.51,38.6,1,5.59,3.73,11.58,7.36,18.89,7,1,0,2.38.12,2.87.75,6.91,8.89,18,8.26,27.17,12.06,1.74-4.33-.7-6.39-4.4-6.77-6.92-.7-8.19-5.07-7.61-10.71.72-7.14,3.5-13.87,1.81-21.53-1.21-5.45,4.56-9.22,7.39-13.64,3.78-7.13,2-14.58,1.71-22.58-4.63.75-5.63,4.24-7.14,7.55-2.46-11.7-8.11-15.38-18.39-12.34-3.63,1.08-7.2,2.34-10.89,3.21a3.43,3.43,0,0,0-2.26,2.16c.87,4.35,5.35,3.06,8.45,5.52-11.83,10.65-24.12,19.4-41.11,17-3.54-.5-6.23.38-9.27,2-6.35,3.4-13,5.62-19.22-.49-1.89-1.84-4.33-1.56-6.43-.66-3.25,1.39-5.25.07-7-2.47-3.63-2.13-7.43-3.53-11.74-2.78Z"
            fill="#a49f94" />
        <path
            d="M694.62,540.6l.88,2a95.68,95.68,0,0,0,3.13,11.91c3.69,7.75,4.7,15.46.34,23.41-2.84,5.17-3.25,11-3.7,16.79,2.07,3.57,0,7.25.26,10.87.86,1,.52,1.58-.54,2-1.91,1.08-1.34,3-1.73,4.7-1.12,4.76,1.16,5.38,5,4.2,2.92-.9,5.06-3.28,8.88-4.6-4.7,11-7.64,21.86-15.41,30.46a15.85,15.85,0,0,0-2.17,4.88c1.81,5.95-2.48,8.83-6.32,11.47-3.58,2.45-5.87,5.44-6.6,9.61-.87,4.94.83,6.38,5.72,4.66,1.95-.69,3.76-1.38,5.82-.77,8.83.81,9.16.51,7.93-7.7-.23-1.57-.64-3.27,1.49-3.46,2.47-.21,4.55.85,4.89,3.6.66,5.25,1.25,10.55-3,14.85a4.11,4.11,0,0,0,2.6,3.23c6.22-1.85,10.7-6.33,15.39-10.42,1.67-1.45,2.38-4.09-1-4.2-6.76-.21-.57-3.14-1.14-4.58a9.41,9.41,0,0,0,.79-2c1.51-14.81.41-29.95,5.62-44.29,1-2.81.13-5.5-.53-8.21-.58-2.36-.4-4.59,1.56-6.27,2.37-2,4.24-.21,6.08,1.06,5.82,4,11.25,7.61,11.42,16.45.11,5.88,5.56,11.15,6.37,17.55A83.22,83.22,0,0,1,749,660.86c.87,3.08,2.29,5.59,6,5.71,4-1.46,5.31-5.14,7-8.48,8.06-5,5.63-13.32,6.47-20.61a4,4,0,0,0-.64-2c-7.1-12.18-15.34-23.66-21.93-36.19-3.23-6.13-7.33-12.1-14.19-15.17-2.51-1.1-4.1-2.33-4.61-5.69-1.26-8.46-4.45-16.49-7.86-24.31-1.24-2.83-2.11-9.93-6.81-7.77-3.94,1.81-3.53,8.27-2.23,12,1,2.8,5.16,5.8,5.11,9.06-.2,1.07,2,5.14-1.89,5-4.31-.18-4.84-3.44-5.47-5.78a51.8,51.8,0,0,0-8.67-26.08C697.07,537.22,696.59,537.43,694.62,540.6Z"
            fill="#525a64" />
        <path
            d="M622.57,674.06c-19.6,9.79-31.8,26-41.36,45.23-7.67,15.39-18.37,28.71-33.11,38.35-6.36,4.17-11.11,10.18-16.12,15.78-1.63,1.82-3,4.8-.87,7.6,4.5.3,7.18,3.5,10,6.35,2,2,3.52,4.41,6.63,4.76,2,.11,3.53-.76,4-2.64,1.55-6,5.39-11.11,7.08-17.07.58-4.43,3.4-5.34,7.16-4.28,4.4,1.25,7.87-.36,9.63-4.07,3.17-6.64,8.43-7.23,14.61-6.23a3.11,3.11,0,0,0,1.8-1.15,2.39,2.39,0,0,0-.41-2c-3.24-2.19-4.2-4.78-1.56-8.14a25.09,25.09,0,0,0,2.3-3.88c5-9.41,5.05-9.41,13.35-5.75,2.07-2,2.62-4.5,2.63-7.22-2.67-6.84-3.23-13.46,1.16-20,2.35-3.5,4.77-5.86,9.26-4.28a4.66,4.66,0,0,0,2.1,0c2.85-1.16,3.9-3.61,5-6.26,2.67-6.49,6-12.33,14.56-11.78,2,.13,15-16.84,14.7-18.81-.69-4.35-4-5.37-7.73-5.89-3.11-.09-6.27.58-8,3.08C635.21,671.69,629.59,674.15,622.57,674.06Z"
            fill="#81807a" />
        <path
            d="M695,845.84c-5.81,6.32-11.65,12.13-7,22.38,1.25,2.75-2.26,8.14-2.9,12.6-1.24,8.69,1.12,12.24,9.75,13.07,3.27.32,3.61,3,4.21,5.41l18.8,11.47c3.73,2.17,8.24-3.42,11.72,1.2,5.27-4.08,13.53-4.57,15.14-13.09.75-4,3.83-4.29,7.12-2.91a15.44,15.44,0,0,0,11.11.43c12-3.86,19.07-.74,24.3,10.69a5.43,5.43,0,0,1,.55,1.41c1.37,9.76,4.89,16.6,16.86,15.54,6.18-.55,9,3.4,9.08,10.16,0,4.53-.38,11.3,7.93,10.56.13,0-.51,1.76.26,2.6v0c3.61,4,5.07,10.13,11.44,11.34l4.06-5.46c-.23-4.07-7.42-4.38-5.27-9.73a6.11,6.11,0,0,0,.55-4c-3.55-3.5-6.5-7.34-7.18-12.48a2.83,2.83,0,0,0-1.29-1.48c-1.2-1.14-4.25,4.29-4.23-1.21a9.83,9.83,0,0,0-.88-2.9c-1.38-2.7-2.6-5.17-6.31-5.75-16.19-2.56-21.14-7.81-23-23.75-.9-5.76-2-11.46,0-17.29a12.44,12.44,0,0,0-.5-8.23c-.73-1.94-1.78-3.86-4.12-4-2.72-.17-3.39,2-3.47,4.08-.16,4-2.69,6.16-5.89,5-8.24-2.86-7.92,1.88-7.41,7.29-1.35,2.94-5.11,3.95-5.74,7.68-.28,1.64-2.5.92-3.94.28-4-1.78-8.5-1.36-12.61-2.77-2.79-1-6.31-.9-7.79,1.49-5.61,9-12.1,2.82-17.71.89-4-1.38-7.11-4.72-11.74-1.56-2.39,1.63-3.07-.74-3.46-2.43-1.09-4.77-3.59-8.3-8.19-10.26-3.39-1.44-4.33-3.75-3-7.35,1.9-5,1-10.55,2.68-15.67C697.42,847.78,697.25,846,695,845.84Z"
            fill="#98938b" />
        <path
            d="M767.86,635.46c-.11.46-.22.91-.32,1.36a5.7,5.7,0,0,0,1.19,1.65c2.92,6.94,7.82,13,9.14,20.63a37.23,37.23,0,0,1,3.21,7.68c1.44,3.16,4.16,4.75,7.09,6.42,7.26,4.13,13.53,9.51,17.55,17,2.56,4.75,6.49,8.28,10.12,12.11,2.6,2,5.11,4.29,8.77,2.48-1.73-4.68-9.33-4.79-8.74-11.44.21-2.4-5.15-3.55-2.1-7,3.38-3.79,3.78-10.61,10.28-11.17,7.07-.61,5.59-3.77,3.71-8.42-3.44-8.48-2.26-10.13,6.63-12-8.39.9-14-6.35-22-6.45a5.61,5.61,0,0,1-5.71-4v0c-7.24-2.59-14.18-6.05-21.78-7.59C779.23,635.91,773.83,632.24,767.86,635.46Z"
            fill="#8f8f8a" />
        <path
            d="M822,947.36c-.62-1.11,3.91-4.17-2.18-3.65-4.2.36-4.19-6.23-4.54-10.09-.78-8.68-8.62-15.19-16.74-12.33-4.51,1.58-5.35.27-6-3.34-1.56-8.63-5-16.2-11.59-22.34-2.84-2.66-11.63-4.6-15-2.59-4.6,2.71-9,3.61-14.13.64-4.86-2.8-8.84-.22-9.27,5.65-.27,3.73-.14,7.09-5.4,4.75-2.68-1.19-3,.88-3.51,2.5-.72,2.15-1,4.66-4.32,4.08a2.16,2.16,0,0,0-.83,2c2.18,8.43,9,2.37,13.49,4,3.25,1.19,5-2.15,5.12-5.78.31-9.45.41-9.46,10.09-8.17,2.78.38,5.63,0,8.35.58,7.56,1.59,14.69,3.45,17,12.67,1.82,7.23-.35,10.56-7.86,9.64-4.42-.54-6.08,2-6.44,5.62a28.83,28.83,0,0,0,.41,9.07q1.66,2.93,3.31,5.86c1.8,3.21,5.91,1.59,8.14,3.89l1.22,1.83c7.7,1.9,9.52.38,9.2-7.49-.11-2.7-1.31-7.77,0-7.71,5.75.24,7.68-5.89,12.5-6.41,3.55-.38,3.52,2.21,3,4.56-1.54,7,.3,14.4-2.34,21.29,2.44,2,2.16,4.48,1.31,7.08.71,2.19-.34,4.37.09,6.65.52,2.73-.82,6.65,4.55,3.86.71-.37,1.05,3,2.62,4,5.4-7,3-16.2,6.67-23.69C819.91,951.8,819.33,948.83,822,947.36Z"
            fill="#a19a91" />
        <path
            d="M543.56,810.06c0,15.29,8.73,24.14,21.87,29.85,2.27,1,4.36,2.39,6.54,3.6l.57-.44c3.74-3.55,8-5.18,13.22-3.92,2.65.64,5.52.35,6.27-2.68.83-3.36-2.32-4-4.64-4.89-4.83-1.8-10.06-.31-15-1.73,5.29.45,10.53.66,15.47-1.79-.77-4.88-4.79-5.64-8.53-6.77-3.9-.66-8,.62-11.53-1.66,4.83-2,9.72.9,14.73,1,5.66.79,11.27,2.18,16.95-.07,3.05-1.21,5.78-2.27,3.92-6.33-1.84-2.14-4.56-2.27-7-2.38-11.73-.52-23-4-34.74-5.06,12.35-.57,24.59,1.2,36.86,2.28,4.45-2.6,8.18-.52,11.87,1.84.53.43,1.07.83,1.62,1.24,4.61,5.6,10.37,1.46,15.62,1.84a6,6,0,0,0,2-.93c2.85-3.31,1.28-5-2.23-5.77-6.19-1.28-12.06-3.77-18.36-4.57-7.95-4.21-15.94-8.28-25.41-5.87-5.92,2.49-12,.84-17.88.07a31.17,31.17,0,0,0-12.54.81,14.26,14.26,0,0,0-4.86,2.2C544.83,802.32,545.65,806.88,543.56,810.06Z"
            fill="#a19e96" />
        <path
            d="M768.56,940.28a5,5,0,0,0,1.58-5.44c-.72-3-1.43-6.42,2.21-7.93s3.32,3.9,6.74,4.4c1-2.92,1.43-6.76,5.95-6.72.44,0,1.37-1.07,1.28-1.46-1.44-6.06-1.81-13.29-6.93-17-8.63-6.29-19.68-5.2-29.76-6.37-3.3-.38-6.5,3.31-5,8.28,1.65,5.48,1.42,9.51-6.32,6.4-3-1.22-8.89,4.45-9.06-3.79-3.85-6-7.58-1.95-11.34.13,1.06,2.38,1.19,5.93,5.49,4,.8-.37,2.36-.44,2.84.06,7.24,7.35,18.67,9,24.65,18a19.54,19.54,0,0,0,2.21,2.85C760.1,931.15,763.35,939,768.56,940.28Z"
            fill="#a9a49b" />
        <path
            d="M832.11,939.18c-.4,1.47-.81,2.94-1.21,4.41,2,2.75,4.36,4.8,7.85,5.28.32-.71.65-1.42,1-2.13,9.21,3.56,9.18,3.55,11.94-7.46,1.28-5.11,2.4-10.1,8-12.86,3-1.48,2.89-5.58,3.81-8.65.17-1,.33-2,.49-3,7.14-7.55,2.69-18.14,7-26.44.78-2.76.07-5.54,0-8.31,0-1.8-.42-3.9-2.66-4-2.64-.08-3.08,2.21-3.37,4.26a21.9,21.9,0,0,0,.27,6c-4-2.58-3.59-8.55-8.27-10.57-3.87.45-4.21,3.26-3.76,6.13,1.7,10.89-3.23,20.48-7.54,29.45-3.56,7.39-8.47,14-9.55,22.48a5,5,0,0,1-2.33,3.72A5.13,5.13,0,0,0,832.11,939.18Z"
            fill="#8a8075" />
        <path
            d="M863.5,917.77c-3.22,8-13.67,11.12-13.94,21.12-.08,3.19-.94,6.36-1.47,9.73-3.17,1.21-4.63-6-8.36-1.88,2.48,1.27,1.74,3.4,1.32,5.33-2,9.38-3.91,18.81-6.34,28.1-1.6,6.15-2.88,12.12,0,19.83,5.54-12,7-24.19,13.16-34.76s5.16-23.56,9.28-35c1.09,11,.08,22-1.51,32.88,1.26,4.24-4.06,8.25-.43,12.57,1.74,1.58-.87,4.67,2.78,6.17C866.22,960.92,864.17,939.28,863.5,917.77Z"
            fill="#978f85" />
        <path
            d="M803.58,956.1c7.62-7.39,1.09-17.53,4.95-25.72.56-1.17-1.16-3-2.81-2.91-3.24.24-6.54.87-8.93,3.37-1.14,1.19-1.2,4.15-3.35,3.51-10.72-3.21-5.2,5.2-4.91,7.74.71,6.17.45,10.41-7.3,9.77.87,2.37,1.75,4.75,2.63,7.12,1.16,4.44,4.72,7.14,7.8,10,3.53,3.32,8,1.48,9.7-3.6Z"
            fill="#a9a49b" />
        <path
            d="M715.34,567.38c1.45-3.45-.87-5.83-2.59-8.2-2.85-3.92-1.65-7.24,1-12.16,6.13,12.77,11.15,24.26,11.88,37.75l6.06-.67c-2.3-2.3-3-5-2.68-8.26.59-6.88-1.52-13.43-2.86-20.06-2-10-10.18-13.92-18.52-17-2.44-.91-4.38-1.38-5.91-3.72-2.28-3.5-6.16-6.95-9.83-3.83s-.06,6.7,2.68,9.38c1.91-3.72,2.62-.36,3.22.71,4.5,8,9.45,15.77,10.14,25.26C709.63,554.7,712.93,562.23,715.34,567.38Z"
            fill="#6e7a8a" />
        <path
            d="M870.23,888c-.71.67-1.82,1.22-2.07,2-2.46,8.06-.76,16.84-4.17,24.76,1.38-2.29,2.13-1.32,2.47.55.94,5.12,1.79,10.26,2.68,15.39,6-.22,2.78-6.31,5.51-8.72.27-.88.14.16.1.21-1.94,2.13-1.18,4.49-.42,6.85l-.39,2.59c3.19.71,2.59-2.09,3.18-3.59,1.52-3.83,1.62-8.15,4-11.72,2.95-3.77-.13-9.21,3.54-12.78,2.64-3.31,1.21-6.55-1.25-8.6-3.19-2.65-3.83-5.23-3-9.11,1-4.72-.72-7.94-6.3-7.58C868.86,880,872.36,885.1,870.23,888Z"
            fill="#978f85" />
        <path
            d="M692.83,643c3.84-3.73,7.46-6.9,8.29-13.28.69-5.32,6.27-9.63,7.25-15.75.32-2,1.89-3.91-.13-5.38-2.4-1.74-2.57,1.45-3.85,2.27-3.09,2-6.19,4-10.77,6.9.66-4.92,1-7.57,1.37-10.22-6.71,7.64-6.75,17.72-9.62,26.75-.55,1.73-.92,3.26-2.3,4.44-2.85,3.39,0,4.29,2.39,5.09S690.43,643.81,692.83,643Z"
            fill="#747a7c" />
        <path
            d="M543.56,810.06c5-1.38,2.5-7.14,5.67-9.57,4.37-4.27.59-6.92-2-9.82-3.13-3-6.44-5.83-9.33-9-2.29-2.56-4.32-3-6.83-.61-1.83,8.65,4.23,14.27,8.29,20.46A36.34,36.34,0,0,1,543.56,810.06Z"
            fill="#535e6b" />
        <path
            d="M692.83,643c-1.56-1.95-3.31-.9-5.21-.59-2.53.41-5,0-4.55-3.68-7.72,3.07-15.24,6.5-22.11,11.22l.58.87c3.05,1.85,4,4.38,2.46,7.69-1.28,2.8-2,5.41,2.12,6.47,8.18-5.82,15.44-12.89,24.2-17.94C692.35,646.47,692.4,644.62,692.83,643Z"
            fill="#92938e" />
        <path
            d="M986.16,726.09q2.18-9.76,4.34-19.54l-6.41-.16c-1.09,10.81-5.72,20.64-8.6,31-1.82,6.52-.46,12.87.83,19.25,2.75-.45,5.41,1,8.18.4.59-3.42,1.47-6.9-1.16-9.93-1.88-2.15-.64-4,.2-6.12,1.33-3.41,3.16-6.82,2.16-10.73-3.69,1.16-2.92,5.66-6.47,8.21C980.14,732.84,982.33,729,986.16,726.09Z"
            fill="#a19d93" />
        <path
            d="M622.57,674.06c7.81,4.52,12.73,0,16.84-5.75,2.14-3,5.21-3.59,8.17-4.74a22.28,22.28,0,0,0,13.59-8.77,5.39,5.39,0,0,0,0-4.43L661,650A228,228,0,0,0,622.57,674.06Z"
            fill="#92938e" />
        <path
            d="M872.2,983.53c3.73-6.67,7.85-13.27,6.41-21.42-1.08-6.06,2.4-11.7,1.35-17.71a1,1,0,0,0-1.69-.32l-9,27.64C871.32,975.38,866.16,980.86,872.2,983.53Z"
            fill="#978f85" />
        <path
            d="M822.27,952.25c2.7,2.48,3.46,5.71,3.54,9.19,1,3.76.41,7.9,3.18,13.17,1.77-6.34,3.09-11.11,4.42-15.87-3.8-3.79-6.1-9.09-11.44-11.34Z"
            fill="#a19a91" />
        <path
            d="M812.15,977.67a18.09,18.09,0,0,0-2.47-9.25c-2.55,1.32,0,4.29-2.59,5.36-2.25-3.22-.27-7.35-2.2-10.6-1.78,3.27-.34,7-1.36,10.34-.87,2.89.6,4.76,2.66,6.47C809.65,982.89,809.82,977.55,812.15,977.67Z"
            fill="#a19a91" />
        <path
            d="M801.36,965.41c-2.55,4.91-6.12,4.81-9.81,1.6-2.79-2.42-5.14-5.34-7.69-8-.79,6.76,5,9.55,8.88,12.69C797.15,975.29,801.42,971.81,801.36,965.41Z"
            fill="#a9a49b" />
        <path d="M784.86,636.85c6.88,3.62,13.58,7.73,21.78,7.59A30.4,30.4,0,0,0,784.86,636.85Z"
            fill="#a19d93" />
        <path
            d="M838.75,948.87c-1.94-2.76-4.29-4.91-7.85-5.28-2.6,2.25-4.71,4.37.78,5.56,2.46.53,2.75,4.29,5.79,4.13C837.9,951.81,838.32,950.34,838.75,948.87Z"
            fill="#8c867d" />
        <path d="M780,950c-.64-5.61-5.57-2.3-8.14-3.89C772.51,951.76,775.46,952.57,780,950Z"
            fill="#a9a49b" />
        <path d="M695.53,605.55c1.25-3.66,4-7.35-.26-10.87C695.1,598.31,694.09,602,695.53,605.55Z"
            fill="#747a7c" />
        <path
            d="M698.63,554.48c.58-4.39-1.15-8.18-3.13-11.91C694.41,547.1,696.29,550.85,698.63,554.48Z"
            fill="#6e7a8a" />
        <path
            d="M824.61,704.8c-3.27-.32-5.62-2.6-8.43-3.91-1.5,2-.8,4.15.3,5.67,4.64,6.42,4.23,14.26,6.41,21.36a5.89,5.89,0,0,0,3.11,4.27c5.14,2.78,10.32,5.28,16.42,5.36,7.43.1,7.73-.07,6.56-7.59-1.05-6.76,3.59-12,9.7-11,1.84.31,3.59.89,3.59,3.16,0,1.88-1.6,2.29-3.06,2.85-7.69,3-8.59,5.16-2.75,11.16s5.19,14.63,9,21.43c.81,1.46-.3,2.92-1.29,4.11-1.39,1.67-2.36,3.65-1.14,5.57,3.7,5.81.42,11.24-.54,16.83-1.07,6.24-3.55,3.89-6.17,1.11-6.52-6.29-15.39-9.44-21.5-16.4-3.14-3.57-6.74-2.17-9.66,1.06a4.75,4.75,0,0,0-2.87,2.36c-2.14,5.46-5.61,4-9.08,1.68-5.54-3.69-8.66-9.07-10.45-15.38-.8-2.81-1.18-6.8-5.33-6.06a5.59,5.59,0,0,0-4.18,7.75c5.43,12.5,4.11,26.83,11,38.84,3.71-4.58,10.23-5.3,13.81-10.43,1.86-2.67,5.61-3.35,8.74-.44s2.42,5-.72,7.31c-1.42,1-.88,2.66-.32,4.17,1.41,3.85-.33-.08-.4.15-3.2-2.61-5.6-.21-5.18,2.2,1.11,6.39-.39,13.69,5.3,18.82,3.8-2.61,6.32-2.63,8.13,2.55,1.48,4.24,3.81,8.26,5.84,12.34,1.06,2.12,2.82,4,5.42,3.23,3.13-1,1.88-3.73,1.48-5.81-.8-4.22-3.17-8-4-13.4,1.69,5,4.52,6.84,8.4,5.11,4.21-1.87,3.44-5.65,2.29-9.77,1.81,4,1.88,7.95,3.07,11.56,1.27,3.85,2.92,6.43,8,6.34,5.76-.11,7.1,6.32,10.72,9.51,2,1.77,2.45,5.06,5.36,6.17,2.35-.3,2.89-2,3.09-4a14.83,14.83,0,0,1,2-14.86c3.23,9,6.71,17.57,8.78,26.68.77,3.4,1.31,7.17,5.8,2.85.32-.31.34-.92.76-1.09a3,3,0,0,0,.1.74c.68,1.89,2,3.41,3.9,2,2.4-1.72.26-4.15.19-6.27.56-2.91,1.12-5.82,1.71-8.87,3.07,1.74.81,6.29,4.26,8,2.93-4,1.72-9.89,6.56-13.7,0,1.75-.06,2.92-.08,4.09,2.42,1.69,3.48-.52,4.89-1.71-4.7-11.19,1.09-20.28,6.13-29.57-1,10.71-8.39,20.88-2.42,32.83l15-36.1c-4.67-3-7.71-9.28-15-7.08-2.08.63-2.3-1.38-2.68-2.85-1.22-4.65-.15-8.48,3.91-11.36,3.58-2.55,7-4.09,10.88-.36,1.42,1.37,3.26,2.71,5.32.67,4.61-7.36,3.52-16.39,6.14-21-3.62,5.64-.73,16.59-7.46,24.63-5.13,5.23-3.22,10.68-.53,16.16,9.38-5.92,8.45-15.85,9.56-24.89.38-3.14.11-6.33,1.91-9.15,2.45.72.75,3.32,2.68,4.56,2.94-6.57,3.59-13.93,7.4-20.05-4.36-3.52-10.11-4.67-13.33-10.45-3-5.38-7.35,1.33-11.49,1.15-3.82-.17-.45,2.91-.42,4.47,0,2.25,1,5.3-2.63,4.72-3.84-.61-4.86,1.41-5.76,4.18-1.71,5.23-7.05,4.61-10.79,6.2-3.11,1.33-3.79-2.57-4.82-4.65-1.28-2.58.72-2.62,2.64-3,5.33-1.13,4.14-3.87,1.5-6.91-3.57-4.12-8.14-7.77-5.5-14.43.67-1.68-1.22-4.06-2.87-3.76-7.8,1.43-16.41-4.14-23.53,2.71-.67.64-1.84,1-2.12,1.76-.46,1.25,4.09,2.25.62,3.68-2.28.93-4.27-1.29-5.75-3-6.86-7.89-5.42-16.8,3.93-21.91,4.47-2.44,5.56-4.44-.21-8.14,6.73-.63,11.9-.68,17.15,1.62-2.06,2.19-5.35-1.64-7.05,1.93,5.72,4.77,14.92-3,19.66,5.63l-8.44,3.12c2.14,2.69,4.09,4,7.15,2.08,1.64-1,3.19-2.23,5.59-1.6,4,1.06,3.81-.16,2.3-3.68-5.75-13.39-17.9-17.64-30.12-21.75-5.45-1.83-11.09-4.41-17-2.8-1.44.39-8.52,0-3.24,5.68,2.1,2.26,1.37,3.92-2.4,3.63-6.59-.5-13-.69-18.18-5.88-3.2-3.23-7.29-2.4-11.29-1.42,0,3.55,4.07,1.91,4.76,4.87-6.15,1-16.08,1.11-3.45,9.8C829.22,716.18,827.88,709,824.61,704.8Z"
            fill="#93897c" />
        <path
            d="M904.82,854.8c-1.09,1.67.88,4.05-1.35,5.58-2.38-1.21-1.31-4.2-3-5.89-2.32,1.15-.26,4.58-3.57,5.56-2.38-12.27-7.4-23.66-12.09-35.35.14,6.73-10,12-2.46,19.39,4.19,2.66,4.21,7.71,6.48,11.49,1.41,2.36-.59,4.38-2.89,5.19-4.26,1.49-4.11,4.44-3.1,7.87-.12,6.59,2.62,13,1.69,18.1,1.47-4.55-2.67-9.73-2.93-15.53-6.77-.38-8,1-7.57,8.41,5.3-.25,5.76,2.62,4.53,6.79-1.1,3.73-3.86,7.74,3.32,9.17,2.47.49,3,4.87,2.78,8,.25,1,.51,2,.76,3,2,2.1,3.92,1.42,5.86-.07,4.59-5.44,2.55-13.54,6.85-18.16-1.2,4-5.52,8.15-2,13.82a4.64,4.64,0,0,0,4.93.92c3.68-3.84,4.92-9,5.2-13.74C906.92,877.87,908.68,866.18,904.82,854.8Z"
            fill="#858076" />
        <path
            d="M912,947l5.7-20.46c2.76,1.28.82,4.37,2.76,5.81,2,.2,2.41-1.59,2.55-2.87,1.33-11.39,5.9-21.8,10.24-32.15,2.78-6.63,4.89-13.09,4.73-20.25-3.12-6.2-.25-12.05,2-17.39,4-9.62,2.19-20.73,8.5-29.78,2.38-3.41,5.67-6.45,6.65-10.79-.21-1.81-1-3-3-3.07-.72,1.36-2.21,3.58-3,2.94-6.11-4.85-6,2.79-6.48,4.07-7,19-15.14,37.89-14.75,58.45.23,11.91-7.37,20.36-10.28,30.79-2.55,9.16-7.46,17.68-9.68,27.09C905,944.21,906.73,946.58,912,947Z"
            fill="#93897c" />
        <path
            d="M952.12,816.05c.67.69,1.33,1.39,2,2.09,3.27,1.81.4,3.33-.28,4.88-3.49,8-7.48,15.85-6.07,25-.19.91-.38,1.82-.56,2.73-.22,7.31-4.35,13.78-4.59,21.09.87,2.85,1.13,7,5,1.8,2.58-3.45,5-6.88,5.47-11.32,3.09-8.39,5.7-16.93,8.08-25.54,2.14-4.65.42-8.81-1.66-12.92,2.69-21.52,8.41-42.63,9.12-64.44C964.25,778.69,954.23,796.25,952.12,816.05Z"
            fill="#93897c" />
        <path
            d="M959.55,823.88c-3.44,4.54,3.64,7.93,1.36,12.35l.66.38.58-.48c1.08-2.38,2.17-4.75,3.26-7.13,3.54-9.74,6.22-19.81,11.32-28.94,1.4-2.53,2.79-5.06,2.6-8.09,6.83-10.91,5.92-23,5.16-35-2.65-1.58-5.19-5.36-8.17-.41.06,20.42-5.75,39.87-9.91,59.59C965.62,820,964.45,823.63,959.55,823.88Z"
            fill="#93897c" />
        <path
            d="M942.14,789.43c-7.88-7.12-13-6.95-19.1-.17-4.71,5.27-1,10.47-.72,15.69,0,.52,2.11,1.51,2.3,1.32,6.26-6,9,.09,12.66,3.41.68.61,2.39.07,3.62.06a1.81,1.81,0,0,0,.62-1.19c1.18-5.21-3-10.84,1.26-15.8C944,791.36,944.15,790.19,942.14,789.43Z"
            fill="#6d645a" />
        <path
            d="M908,906.4c-2.75,11.16-12.23,19.31-13.85,31-2.15,2.67-2.79,6.6-6.64,7.83q-.52,7.08-1.06,14.14c13.12-3.65,11.29-15.68,15.13-24.52,4.09-9.42,10.28-17.93,12.42-28.23C912.18,901.83,910.07,905.4,908,906.4Z"
            fill="#696460" />
        <path
            d="M912,947c-2.33-2-5.88-3.38-4.13-7.61-4.26,4.18-3.29,9.79-4.21,14.93-1,5.82-2,11.32-6.43,16.35-4,4.62-4.64,11.61-5,18.5l11-14.42c3.24-3,5.75-6.38,6.18-10.94.37-1.48.74-3,1.1-4.45Q911.3,953.18,912,947Z"
            fill="#696460" />
        <path
            d="M922.16,842.58l-4.89,1.71c-1.56,9.46-4.9,18.62-4.65,28.35,0,1.24-.33,5.19,2.72,1.39,4.56-1.06,5.75-4.34,5.65-8.48C922.46,858,921.77,850.24,922.16,842.58Z"
            fill="#93897c" />
        <path
            d="M890.36,906.35l-5,.27q1,11.11,2.08,22.23l2.08.43c4.1-8.58,4.31-19.07,11.47-26.15l-4.53-1.43c-4,2.71-3.93,7-4.62,10.87C891.56,910.65,892.11,908.2,890.36,906.35Z"
            fill="#858076" />
        <path
            d="M908,906.4c2,1,4.07-2.27,6,.18,1.64-8.07,10.83-13.94,6.92-23.63-4.34.89-7.44,2.95-7.46,7.9C913.42,896.65,909.78,901.19,908,906.4Z"
            fill="#696460" />
        <path
            d="M913.5,890.85c1.77-3.31,6.55-3.78,7.46-7.9a51.34,51.34,0,0,0,0-17.4c-.25,3.91-4.06,5.46-5.65,8.48C917.56,880,911.68,885,913.5,890.85Z"
            fill="#93897c" />
        <path
            d="M609.83,804.83c6.39-.13,11.66,4.18,18.14,4.33,3.95.1.83,2.51.16,3.91,8.6,6.68,17,5.74,21.92-2.79,2.54-4.39,5.91-5.64,10-3.23,3.85,2.26,7.74,3.26,12,2.4.57,2.32-.94,3.07-2,2.75-7.26-2.31-8.9.76-7.58,7.31.28,1.36-1.31,2.69-1,4.3,4.74.6,8.69-2.14,13-3.19,8.58-2.09,15.54,4.15,14.33,13.21-.12.9-.11,1.81-.19,3.52,4.83-3,3.52-9.05,8.27-11.66-1.83,6.82,1.58,13.72-1.93,20.15-.85,6.29-.47,13.13-2.91,18.73-2.25,5.16-.74,7.55,3.11,8.79,6,1.94,8.21,6,8.84,11.67.51,4.57,3,5.59,5.67,2,3.78-5,7.16-1.51,9,.69s3.59,1.46,5.12,2.2c7,3.37,11.17,2.78,16.93-3.6,3.3-3.65,11.7.5,17.3,2.58,2.44.91,3.76,1.29,6,.16,2.49-1.28-.68-10.73,6.76-4.69,1.69-2.2.27-3.71-1.16-5.22-2-1-3.69-2.93-6.28-1.74a5.09,5.09,0,0,0-1,1.79c-.55,2.28-1.59,4.34-4,1.89-4-4.15-9.43-6.89-12-12.49a19.83,19.83,0,0,0-7.68-9.14c-4.62-2.83-2.87-8.26-4.25-12.43a3.72,3.72,0,0,0-1.86-1c-5.18,1.48-5,5.84-4.75,9.73.43,7.73,1.23,15.44,4.25,23.51-2.73-1.84-4.62-3-7.35-1.8-5.56,2.5-5.9-.85-5.32-5.1.44-3.2,1.12-6.5-1.25-9.35-1.59-.23-3-1.5-4.79-.67-2.68,2.59-2.76,6.33-4.2,9.48s-3,2.67-4.81.29c-4.48-4.68-.83-9,.77-13.21a101.14,101.14,0,0,0,6.31-42,5.29,5.29,0,0,0-1.45-3.4c-4-.61-3.8,2.74-4.16,4.89a57.69,57.69,0,0,1-3.26,10.48c4-7.52-.7-13-6.69-17.78-4.07-3.23-6.34-7.59-9.31-11.63,1.65-1,3.37.11,4.6-1.09,2.29-6.64-1.31-11.61-5.38-15.81-3.58-3.69-7.87-1.31-11.69.71a5.88,5.88,0,0,0-2.8,3.28c.18,1.06.71,2.64-1.3,1.91a15.32,15.32,0,0,0-14.35,1.75c-5.93,4-12.21,2.93-20.46,2,8.8-.8,18.27,4,20.36-7.9-.65-2.5-1.31-5.21,2.16-6,4.33-1,7.75-4.61,12.54-4.15,3.45-.33,5.84-1.77,5.94-5.61-1-3.36-3.49-5.14-6.75-4.9-3.77.28-7.38.77-11.2-.17-3.47-.84-4.33,2.73-6.24,5.24-3.79-6.92-8.52-5.38-13.45-1.87.59-3.62,3.84-4.87,6.24-6.9,4.84-4.09,5.09-7.19,1.08-11.67a55.36,55.36,0,0,0-6.11-2c-2.3-.29-5.67-2.93-6.64.51-2.5,8.83-6.26,2.82-9.72,1.29-6.1,2.13-11.69,5.5-18.21,6.69-2.87.53-5.14,3.05-6.52,5.91-.55,6,3.11,3.52,5.87,2.89,3.93-1.9,8.25-2.31,14.62-3.77-5.68,4.61-7.52,8.1-1.64,12.07,5.6,3.78,6.89-.68,9.1-4-2.93,6.32-2.31,6.85,8.09,7a19.57,19.57,0,0,1-5.91.42c-3.8,0-7.72-1.42-11.34-.52-5,1.24-.34,7.29-4,9.62-2.1,1.38-4,3-6.31,4.07-6.05,2.73-6.73,7.17-1.51,11.45C607.55,801.4,609.62,802.26,609.83,804.83Z"
            fill="#8e877a" />
        <path
            d="M585.41,847.11c-.67,2.74-1.38,5.62,3.22,3.7s7.86-2.33,11.91,2.87c2.11,2.7,11,1.88,14.73-1.07,7.39-5.88,15.27-2.78,22.88-3.45,3-.27,6,.08,8.64-1.85,8.13-6,18.05-9.58,24.48-18.16-3.14-2.61-8.06-1.77-11.66-4.24-2.91-3-6.27-.39-9.39-.77-7.27,4.22-15.61,5.29-23.45,7.82-10.86,4.56-21.26,10.35-33.5,11C590.45,843.08,587.55,844.8,585.41,847.11Z"
            fill="#b5b1a7" />
        <path
            d="M585.41,847.11c14.29-3.43,29.07-5.39,41.66-13.89-1.52-2.85-1.69-6.05-2.37-9.12-4.48.94-8.56-2-13-1.4-6.23,1.61-12.88.14-19,2.58-2,.83-4,1.55-5.45,3.23-5-2.9-10.94,2.11-16-2.32-1.43-1.25-2.66,1.48-2.37,3.43.32,2.2.83,3.8,3.89,3,4.72-1.3,9.5-.08,14.18.72,1.55.26,4.3.34,3.78,2.71s-3.19,2.52-5,1.5c-5-2.76-8.66.42-12.62,2.35-1.47.73-1.21,2-.55,3.23Z"
            fill="#787670" />
        <path
            d="M650,825.4c3.32,2.12,6.35-1.39,9.61-.49l1.91-1.1c5-2.58,4.8-6.2,1.47-10.11,3.13-2,4.31,1.38,6.51,1.34a7.21,7.21,0,0,0,6-2.75,3.14,3.14,0,0,0-.29-4.2c-1.75-1.82-3.86-2.58-6-.62-2.53,2.3-4,.07-5.84-1.11-8.28-5.23-11.83-4.24-15.56,4.84-1.46,3.52-3.43,4.11-7,4.09-4.43,0-8.5-1.12-12.65-2.22h0a4.78,4.78,0,0,1-2.15.31c-1.86.17-4.44-.58-4.89,2.11-.39,2.26,1.35,3.74,3.4,4.26,2.65.67,4.59,1.79,4.86,4.76,2.48,1.83,5.17.82,6.81-.69C641.61,818.78,645.86,820.8,650,825.4Z"
            fill="#787169" />
        <path
            d="M659.72,654.34l-12.14,9.23c2,1.9,6.19,1.36,6.19,5.36s-3.51,4.28-6.25,5.4c-2.09.86-3.7,1.92-3.6,4.95.2,6.1-.16,4.77-6,5.14-4.07.25-8.26,4.16-11.18,8.27-2.74,3.86-2.19,9.35-6.48,12.31,3.13,3.19,4,8.14,8.32,10.44A4.26,4.26,0,0,0,630,713.9l.24-.71c1.28-3.89-3.75-8-.08-11.53,4.08-3.9,9.67-5.42,14.88-7.34,2.92-1.07,6-1.36,4.25,3.61-.63,1.85-1.7,4.16.37,5.56s3.61-.9,5.24-1.9c.87-.52,1.79-1,2.61-1.56,3.59-2.52,7.16-7,9.79.49-5.54-2.46-11-1.25-15.25,4-2,2.51-1.93,5.13.95,7.19,6-4.48,13.08-2.63,20.31-2.71-.22,2-1.7,6.2,3.88,4.7.77-.2,2.62-.81,2.2.74-2.14,8,3.35,5.1,6.9,5a4.29,4.29,0,0,1,2.93.5c5.92,4.62,8.92,2.57,10.61-4.16.94-3.69,3.79-1.77,6.22-1-6.88.09-7.21.61-5.77,9.08-7.53-.79-8.85,0-8.54,7.12.28,6.35-2.55,10-8,12.33-.48,5.12,2.39,9.06,6.26,7.46,5.37-2.22,7.69,1.25,10.82,3.75,1.87,2.2,3.27,7.21,6.59,1.23.71-1.28.35-2,1.14.07,2.45,6.52,5.19,3.54,7.75-.1,2-4,2.26-7.8-1.45-11.45,4.45,1.45,8.47,3,11.21,6.64,2.13,2.81,4.28,3.15,7,.87,2-1.7,2.31-6.9,5.23-5.39,4.1,2.11,9.1,2,12.58,6s7.26,8.84,14,7.36c-.64-6.72-8.86-17.72-14.59-19.25a11.43,11.43,0,0,1-4.63-2.28c-4.9-4.13-4.78-5.45,1-8.91.5-8.94-3.35-15.08-12.11-17.59-5.45-1.56-7.64-4.9-7.24-9.87.44-5.6-.77-9.5-6.84-9.59-.51-4.11,5.41-6.81,1.41-10.06-2.49-2-5.14.42-7,2.58a23.86,23.86,0,0,1-6.62,7.21c4.67-7.95-1-8.54-5.57-9.94l-2.47-2.36c-.77-3.13-3.21-4.34-6-5.09-2.54-.68-4.75-1.69-5.68-4.4-3.91-1.83-6.63.75-10.23,3.15-.07-5.21-.3-10,4.73-12.21,3.86-1.65,5.25-5.19,8-7.6,3.29-2.91.92-4.49-.65-6.5-6.17-1.21-9,4.78-13.8,6.72-4.08,1.65-6.76,6.75-10,10.32-5.57.56-6.54-1.33-3-5.62,1.18-1.43,2.2-3.11.82-4.74C662.73,651.93,661.12,653.15,659.72,654.34Z"
            fill="#7b766f" />
        <path
            d="M715.86,685.7c1.67-1.54,3.29-3.2,6.09-2.65.92,3.06-2.92,3.54-3.29,6.21-.44,3.15-5.11,7.44,3.19,5.23,3.76-1,4.37,2.28,4,4.74-1.26,8-.18,14,9.83,14.29,1.4,0,3.16.38,2.26,2.78-.3.8.15,1.88.26,2.83,8.26-1.36,5.65,6.55,8.44,9.85,3,4.67,5.5,9.68,10.61,12.54,5.39,1.21,11.08-.64,16.43,1.79,1.51.68,4,.15,4.39-1.87.6-3.48,3.59-6.66.64-10.7-4.56-6.26-4.32-6.43,2.89-9.5,2.33-1,4.61-2.09,6.9-3.16a7.27,7.27,0,0,0,3.91-5.29c1.18-4.8-9.48-20.23-14.41-20.33-5.3-.11-6.74,4.61-8.78,8.25-1.2,2.16-1.24,5.47-4,6-3.32.65-6.79-.17-10.3.22-2.27.25-2.7-5-1.35-6.29,6.8-6.56,3.4-17.2,10-23.64,1.29-5.34-2.41-10.75.58-16.26.93-1.7-.32-4.64-3.75-3.83-1.05,3.71-3.53,6.54-5.84,9.49l-.42.93a52.83,52.83,0,0,0-2.11,7.92c-1.65,5.94-3.57,11.66-10.43,13.62-3.4,1.33-3.81,4.81-5.33,8.17-2.59-2.18-1.11-4.93-2.12-6.87-1-2.29-2.27-4.44-2.53-7.06-.8-8.12-.88-8.11-9.12-5.9-2.66.71-5.26,1.8-8.12.68-1.63-.64-3.51-1.27-4.81.58s-.26,3.46.71,4.9C711.55,685.31,712.52,688.51,715.86,685.7Z"
            fill="#5b5a5a" />
        <path
            d="M748.21,637.83c1.69-4.52-2.38-7.39-3.36-11.19-2.6-10.14-4.75-20.82-16.39-25.41-1.8-.72-3.1-4.55-5.29-2-1.76,2.06-5.84,3.2-4.63,7.1,3.13,10.12-.49,19.27-3.81,28.49a2.23,2.23,0,0,0-.09,1.48c3.37,8.48-1.92,17,.09,25.47,6.15.09,14.55-7.75,16.07-15C733.3,635,737.93,632.58,748.21,637.83Z"
            fill="#64676a" />
        <path
            d="M748.21,637.83c-2.35-4.09-5.31-6.48-10.37-4.27-4.67,2-8.65,3.61-9,10.31-.4,8.66-6,14.65-14.15,17.93-.19.46-.39.9-.59,1.35,3.07,2,6.63,3.31,7.45,7.78.54,2.93,3.11,4.19,6.25,4.61,9.86,1.33,19.15-4.9,22.07-15.1C752.26,652.69,750.2,645.26,748.21,637.83Z"
            fill="#838885" />
        <path
            d="M749.91,660.44c-2.81,5-7.2,8.55-11.76,11.86-6.42,4.66-13.76,2.36-15.58-5.1-1.25-5.08-5.39-3.2-8.43-4.05-3.24,1.59-2,5.38-4.54,7.43,3.42,1.41,5.06-2.1,8-1.24-3.52,6.11-11.16,7.25-15,12.74,5.12,3.19,9,6.61,1.83,12.62,5.75-1.11,9.47-3.85,11.39-9-4.53,0-3.56-4.34-5.54-6.83,5.58,3.85,10.61,1.46,15.46-.67,4.47-2,5-.23,3.9,3.52-1.13,4,.61,6.77,3.86,8.88,3.37-1.66,2.66-5.83,5.37-8.47,2.37,2-.3,6.11,2.84,7.62,9.38-.14,9.79-7.73,11.72-14.06-2.21-2.12-4.7,1-6.94-.13-.26-5.81,8.79-3.09,8-9.15h0Z"
            fill="#64676a" />
        <path
            d="M760.36,656.92c2,.64,3.45,3,2.48,3.87-6.19,5.41.22,10.61-.15,15.84,2.39-.57,4.74-1.84,7,.62,1.86,2,3.11,5.82,7.15,3.4,3.3-2,4-5,3.28-8.53a15.7,15.7,0,0,0-.54-2c-1.44-6.06-4.11-10-11.88-5.44,1.7-6.21,3.78-11.18,3.36-16.57-1.24-3.47,1.47-7.72-2.11-10.73-.47-.16-.94-.34-1.4-.52a10.65,10.65,0,0,0-1.47,2.61C765.61,641.37,761,656,760.36,656.92Z"
            fill="#64676a" />
        <path
            d="M688.51,670.23c-1,2.2-2.62,4.4,1.63,5.23,3.58.7,7.31,1.4,10,4.26.47-1.64,2-2.08,3.16-3,1.92-1.55,6.24-2.87,1.23-6.11-1.44-.92-.61-2.62-.11-4.14,1.61-4.93-1.11-6.92-5.54-7.56-1.67-.25-3.47-1.57-5,.05s-.95,4.12,0,5.71C698.64,673,693.68,671.63,688.51,670.23Z"
            fill="#64676a" />
        <path
            d="M615.15,785.77c4.8-2.4,1.14-6.23,1.49-9.38,7.58-1,15.6,3.89,23-1.8-2.16-2.15-4.35-2.1-6.65-2s-5.93,2.43-6.69-.76c-.82-3.47,4.1-1.49,5.59-3.43-5.19-3.79-5.65-3.83-7.91,1-.67,1.42-1,3.53-2.62,2.76a21.82,21.82,0,0,1-6.18-5.07c-.24-.26,1.3-3.22,2.34-3.45,3-.64,5-1.67,3.2-4.86-1.65-2.89-4-.93-5.9,0-3.36,1.7-7.77,0-10.57,3.38-.56.46-1.1,1-1.66,1.41-1.54,1.26-3.57,1.2-5.31,1.91a6.56,6.56,0,0,0,1.46-5c-4.52-2.8-8.41-1.38-11.94,2.13,1.65-2,4.47-2.6,4.63-5.62-7.42-2.95-13.59-2.64-17.2,5.88-1.52,3.6-3.78,5-8.34,3.28-3.35-1.24-9-2-8.53,5.13.59.56,1.77.36,2,.71,3.57,5.31,9.36,6.27,14.89,7.78,3.17,1.1,5.86-.64,8.75-1.39,4.69-1.22,10-3.9,12.47,3.32.17.49.83,1.09,1.08.92C603.82,777.56,608.35,788.48,615.15,785.77Z"
            fill="#686561" />
        <path
            d="M574.22,779.13c.37-4.08-2-3.89-4.69-2.87-3.2,1.2-6,.49-5.86-3.08.28-9.57-4-2.08-6.29-1.86-1.85,6.49-6.31,11.95-7.46,18.75-.06.34-1.73.41-2.65.6.6,3.29,3.92,6,2,9.82a5.24,5.24,0,0,0,3.82-1.89c6.61-6.4,14.67-11,21.35-17.35A2.62,2.62,0,0,0,574.22,779.13Z"
            fill="#656162" />
        <path
            d="M600.26,748.62c3.64-3,3.6-8.18,4.86-12.12-1-2.68-1.34-5.31-5.51-5.55-3.78-.23-4.41,2.5-5.69,4.91-1.87,3.52-3.54,7.23-6,10.34-4.44,5.72-3.68,9.06,2.92,10C595.18,755.69,597.6,751.11,600.26,748.62Z"
            fill="#9d9992" />
        <path
            d="M619.75,689.49c-2.24-.12-4-1.27-5.6-1.36-3.68-.2-7.67-.75-8.38,5.64-.46,4.09-4.57,7.8-7.11,11.64-1.15,1.74-2.16,3.51-1.29,5.59.64,1.54,2.51,2.87,3.09.69C603.29,701.18,611.75,695.79,619.75,689.49Z"
            fill="#9f9b90" />
        <path
            d="M628.39,715.21c-2.12-3.88-2.41-9.21-8.16-10.21-.45-.07-.9-.14-1.35-.23-4.12,1.86-7.82,4.17-9.34,8.78-.85,4-1.28,7.83,4.8,7.39,3.07-.84,5.91-2.41,9.28-2.35C625.81,718.63,628.22,718.32,628.39,715.21Z"
            fill="#5b5d61" />
        <path
            d="M611.47,713.62c.25-4.79,7.32-3.91,7.41-8.85-1.2-7-5.83-1.32-6.89-.88-6.38,2.67-9,18.07-4.68,24.33a3.22,3.22,0,0,0,.62-1.15,6.79,6.79,0,0,0,1.74-6.73A6.8,6.8,0,0,1,611.47,713.62Z"
            fill="#9d9992" />
        <path
            d="M600.26,748.62c-2.82,2.29-4.84,5.64-8.46,6.87l-.36,1.54C596.81,756.76,599,753.18,600.26,748.62Z"
            fill="#686561" />
        <path
            d="M757.78,740c-5.08-2.29-5.38-9.41-11.15-11-3.24-1-5.89-.83-7.22,3-1.12,3.24.74,4.19,3.09,5.68,3,1.9,3.86,7.42,9.48,4.5,1.48-.77,3.18,1.92,3.55,3.32,1.53,5.83,6.71,9,9.49,13.89-1.7,6.46,1.94,10.31,6.52,13.93,9.46,7.49,17.72,15.89,21.08,28,1.18,4.27,1.2,6.77-4.26,4.66-1.22-.47-2.67-.83-3.7-.13-7.69,5.24-8.93-.73-10.38-5.95-4-14.53-15.81-23.08-26-32.61-2.13-2-6.47-2.14-8.91-5.35-1.49-2-3.12.25-4.22,1.54-2.8,3.33-4.07,1.79-4.91-1.42-.2-.73-.45-1.45-.72-2.17-3.76-10-5.17-10.52-14-4.8-7.19,7.6-4.5-3.39-7.47-4-2.29,1.19-1.38,4-3,5.92l-3.21-4.16c-5.94,1.39-6.3,5.85-5.72,10.64.53,4.47,2.55,7.71,7.69,7.71,3.67,0,5.84,2.78,8.57,4.53,2.19,1.41,3.49,4.69,7,3.32.74-.29,1.9-.07,1.9.62-.06,7.52,5.8,6.38,10.35,7.19,2.94,2.42,5,0,7.21-1.48,1.87,3.54,1.25,7.39,1.92,11a5.5,5.5,0,0,0,.92,1.92c.75.68,2,1.71,2.59.92,4.83-6.49,6.8-1.08,8.7,2.23,5.84,10.22,6,21.83,6.69,33,.25,4-5.21,7.38-3.86,12.94.78,3.2,1,6.45,3.14,9.09,3.59,4.4,5.23,9,3.16,14.74-.71,2-2.25,5,1.6,6.22,2.12,0,3.21,3.74,5.92,1.62a37.89,37.89,0,0,1,.35-5.95,1.76,1.76,0,0,1,2.79-1.29c6.41,3.26,9.16,1.61,10.43-6a8.09,8.09,0,0,1,1.4-2.42,8.9,8.9,0,0,1,2.34,1.61,9.24,9.24,0,0,1,1.2,8.67c-2.89,6.35-1.12,12.29,0,18.41,3.72,12.87,11.46,20.42,25.71,19.38,3.08-.22,3.77,1.68,4.13,4.22.32,2.28-1,4.44-.26,6.7l1.05,1.89c1.46,2.3,4.32-.35,5.86,1.65h0a4.79,4.79,0,0,0,5,2.28c4.76-4.6.36-8.89-1.54-12.06a84.63,84.63,0,0,1-8.61-19.23c-1.55-5.12-7.1-6.56-9.57-5.27-8.57,4.46-8.53-3.3-13.46-7.67,8.7.82,13.89-1.48,15.68-8.74.23-.91-.48-.26.37-.61,12.35-5,5-13.08,2.94-20-1.83-6.26-.94-8.47,5.17-8,3.23.28,5.57,0,6.65-3.23,1.32-4,6-7.81.68-12.16-5.16-1.2-5.68-6-7.57-9.73s-2.87-8.16-5.69-11.55c-1.15-1.38-2.46-2.75-4.51-1.89-1.64.69-1.77,2.33-1.91,3.85-.48,5.15,1.76,9.29,4.73,13.25,1.33,1.77,3.45,3.94,2.25,6.1-1.55,2.8-4.27-.46-6,.06-7.86,2.41-8.35-4.23-10-8.3-2.28-5.61.55-10.81,3.8-15.42,2-2.83,5.5-5.18,1.52-8.94-4.41-11.2-2.68-24-8.91-34.74-.93-1.61-.72-3.88-1-5.84a3.83,3.83,0,0,1,3-4.62c3-.45,2.34,2.31,2.79,4.19,1.74,7.26,5.1,13.51,11.57,17.8,7,4.62,7.89,4.39,11.79-3.29.27-.53,1.77-.45,2.71-.65.53-.66.47-2,.09-1.94-10.09.67-9.5-9.29-14-14.37q14,7.64,27.42,16.06c2,1.28,4,4.44,6.49,2.23,2.86-2.5,0-5.05-1.41-7.3s-2.9-4.57-5.31-7.93c7.15,3.48,10.56,9.09,16,12.43-6.36,4.55-6.35,4.86-.09,15.23.64,3,2.59,5.63,5.4,5.51,4.32-.17,2.34-4.3,2.78-6.67,1.16-6.29,6.51-12.67,0-19a2.19,2.19,0,0,1,.33-2c7.77-3.42,2.1-7.6,1-11.8-1.87-6.93-2.91-13.85-9-19.13-3.83-3.35-3.24-6.67,3.18-5.95,3.82.43,5.91-1.94,5.64-5.36s-2.31-5-6.26-5c-9.92.16-14.22,6.07-10.92,15.65a16.37,16.37,0,0,1,.42,3.19c-8,1.15-14.91-1.15-21.54-4.84-1.65,2.34-1,6.71-7,3.25-4.49-2.62-8.49,3.83-12.16,7-1,.83-.49,3.28-2.51,3.13-1.66-.12-2.28-1.85-2.86-3.23a51.18,51.18,0,0,1-2.16-8c-.35-1.52-.35-3.61,1.16-4,5.76-1.58,10.77-8.19,17.69-2.72a5,5,0,0,0,5.67.82c-1.81-9-4.06-17.94-8.52-26.12-7-8-11.55-17.91-19.8-25-4.57-3.92-11-4.83-14.77-9.86-3.28.54-3.74,2.69-3.15,5.45h0c3.4,4.21,1.62,9.21,2,13.84.25,3.23.44,6.18,3.85,7.48,4.25,1.63,3.2-3.6,6.63-5.07-4.56,9.07,2.5,14.48,5.35,21,1.71,3.88,1.83,6.57-.83,9.57a8.41,8.41,0,0,1-1.06,1.09c-6.75,5.21-9.45,11.65-9.07,20.53.42,9.74-1.48,10.38-9.84,5.63-4.41-2.51-9.41-1.7-14-3A6.07,6.07,0,0,1,757.78,740Z"
            fill="#858076" />
        <path
            d="M817.78,922.54c2.1-3,3.06-6.4,2-10-.7-2.37-1.5-4.67-5.28-3.68a18.92,18.92,0,0,1-21.39-9c-1.52-2.61-3.26-5.09-4.91-7.63-.66,6.92,3.61,12.48,5.27,18.76.12.45.69,1.22.84,1.17,6.72-2.09,10.18,6.32,15.91,5.32C815.28,916.61,816.32,919.32,817.78,922.54Z"
            fill="#8c867d" />
        <path
            d="M830.56,927.7l-5.87-1.63c-.65,6.13.38,11.31,7.42,13.11l1.47.41c3.59-2.81,2.56-6.65,2-10.16C835.05,926.52,832.93,926.27,830.56,927.7Z"
            fill="#8c867d" />
        <path
            d="M824.69,926.08c-1.19-3.24-3.7-1.83-5.86-1.65-.4,1.84-1.65,4.25.49,5.26C822.46,931.19,822.19,926.32,824.69,926.08Z"
            fill="#8c867d" />
        <path
            d="M778.46,671.46A9.9,9.9,0,0,1,781.6,666c1.47-3.32-.57-5.26-2.81-7.13-2.74-1.6-6.32-2.24-6.12-6.79a3.37,3.37,0,0,0-3.58-3.76c-.12,4.52,0,9-3.15,12.89-1.72,2.12-.52,4.55,1.25,6.07,2.33,2,2.48-1.14,3.72-1.88C778.59,660.82,775.79,669.58,778.46,671.46Z"
            fill="#72706d" />
        <path
            d="M769.09,648.33a5.66,5.66,0,0,1,2.27,5.32c-1.36,7.44,2.78,6.58,7.43,5.23.11-4.82-.61-9.33-4.66-12.6-1.8-1.46-1.85-3.3-1.49-5.38.5-2.89-.59-4.32-3.7-3.56Z"
            fill="#858076" />
        <path
            d="M574.22,779.13c-.14.46-.29.92-.43,1.38,1.51,3.36,5.76,3,7.76,5.73,1.51,2,3.83,4.23-.7,5.49-2.37.67-4.62,1.76-4,4.56.68,3.26,3.63,2.8,6.13,2.77,10.08-3.31,18.25,2.31,26.88,5.77-.05-1.6,3.47-3.82-.27-4.7-4.86-1.15-5.13-4.89-6.17-9.12,5.22.89,8.12-2.89,11.76-5.24-4.43-2.71-8.74-5.61-13.31-8s-2.12,3.31-4.62,4.09c.32-9.8-6.58-6.75-11.5-6.16C581.8,776.11,578.05,777.92,574.22,779.13Z"
            fill="#79746e" />
        <path
            d="M583,799.06c-1.87-.94-5-.31-5-3.59,0-1.49,1.48-1.61,2.76-2,2.26-.61,6.69.93,6.38-1.81a12.34,12.34,0,0,0-6.06-8.92c-2.17-1.19-4.81-1.55-7.24-2.28-4.15,4.94-11.59,5.29-15.25,11-1.63,2.52-4.66,4-5.49,7.14C563,796.88,572.94,801.55,583,799.06Z"
            fill="#958f84" />
        <path
            d="M629.65,824.52c1.13-2.75,5.33-6.71-2.43-5.85a4.9,4.9,0,0,1-5.16-2.43c1.1-2.86,4.55-1.27,6.07-3.17-2.11-.55-4.44-1.88-6.38-.52-3.92,2.74-6.24.28-8.75-2.08-3.47,1.15-7.41.89-10.44,3.41-1.06,8.41-8.14,4.56-12.53,5.82-2.39.68-5.18-2.11-8-.58a3.27,3.27,0,0,0,1.32,1.74c-.47.66-1,0-1.43,0-1.68,0-3.63-.7-4,1.95,3.58,1.16,7.6,1.58,9.35,5.72l5.36-1.53c5.69-6.71,12.89-2.65,19.51-2.7,4.24.61,8.47,1.21,12.77.57C626.58,826.2,628.15,825.76,629.65,824.52Z"
            fill="#8e877a" />
        <path
            d="M602.56,813.88c4,.57,7.68-.08,10.44-3.41l-1.41-.46c-3.88-2-7.74-4.19-12.29-1.92-9.14-3.93-19-1.94-28.41-3.47-4.22-.69-8.41-2.07-12.2,1.3-1.17,1.05-2.51,2-1.59,3.71s2.16.3,3.33.22c7.64-.55,14.92,1,22.36,2.84C589.08,814.28,596,813.57,602.56,813.88Z"
            fill="#7b7770" />
        <path
            d="M577.9,822.8c3.94-2.23,7.52,2.08,11.91.5-1.46-3.79-5.4-2.71-7.83-4.18-6.83-2.16-13.63-3.82-21.82,1.56C567.21,821.14,572.23,824,577.9,822.8Z"
            fill="#787670" />
        <path d="M599.3,808.09c4.15.25,8.33.41,12.29,1.92C607.67,808.26,604.54,801.42,599.3,808.09Z"
            fill="#8e877a" />
        <path
            d="M996.34,760.13l-.86-.07c-2.52,9-5.19,17.9-6.83,27.06a17.17,17.17,0,0,0-.1,2.27,2.51,2.51,0,0,0,1.92,2.51c1.49.4,2.19-.64,2.86-1.5a16.72,16.72,0,0,0,1.81-3.25C999.5,778.37,999.15,769.32,996.34,760.13Z"
            fill="#93897c" />
        <path
            d="M999.42,737.62c1.07-4,1.14-7.63-4-9-3.75,7.09-2.76,14.81-2.94,22.37,2.9.86,2.47-1.54,3-3,.92-2.56.69-5.55,2.86-7.64C998.72,739.45,999.07,738.54,999.42,737.62Z"
            fill="#93897c" />
        <path
            d="M986.16,726.09c-5,.46-12,11.43-9.32,14.89,1.8,2.35,4.1.37,4.91-1.07,1.7-3,2.68-6.44,4-9.69C985.85,728.84,986,727.47,986.16,726.09Z"
            fill="#93897c" />
        <path
            d="M982.31,797.47c-.81,4.5-2.1,7.8-6.78,2.72-2.09,1.77-2.32,3.84-.65,5.93,1.54,1.94,3.42,1.84,5.28.34,2.2-1.12,2.12-3.56,3.16-5.36-.1-1.64,1.12-3.4-.44-4.91A5.06,5.06,0,0,1,982.31,797.47Z"
            fill="#6d645a" />
        <path
            d="M830.56,927.7c1.62.63,4.34-.23,3.84,3.15-.43,2.89-.56,5.83-.82,8.74,6.83-2,4.71-8.39,6.26-12.9.6-1.75,0-3.75,1.47-5.56,9.91-11.84,14.91-25.37,13.37-40.94-.24-2.39.81-3.19,2.81-3.52,2.47-3.12,5.91-5.35,8.06-8.77a6.83,6.83,0,0,0-.53-3.72c-1.37-2.45.19-8.18-5-6.44-4.06,1.36-10,3.19-7.76,10,1.62,4.95-1.55-1.42-1.82.75-.09.78-1.77,2.1-1.6,3.66.44,3.94-.23,8,1.92,12.09-1.71-2.68-1.74-5.42-1.82-8.06a27.4,27.4,0,0,0-5.09-15.62c-6.52-9-8.56-19.27-8.68-30.09-.08-7.08-2.16-8.6-9.41-6.86-1.89,3.19-.76,5.86,1.43,8.35,4.19,3.56-.35,6.18-.88,9.28-.84,4.82-3.26,3.76-6.77,3.13-5.88-1.05-9.36,4.24-6.48,9.56A32.87,32.87,0,0,1,817,865.27c.46,3.45,3,8.44-4.58,5.55-2.07-.79-1.95,1.25-2.22,2.82-1,6-2.17,12.05-10.57,6.7-1.2-.78-2.56,0-3.22,1.16a6.14,6.14,0,0,0,.7,7.11c2.31,2.61,5.11,4.73,6.73,8,.74,1.45,1.88,2.09,3.51.39,4.26-4.42,9.24-3.34,10.73,2.6C820.61,909.72,828.73,917.31,830.56,927.7Z"
            fill="#7d746b" />
        <path
            d="M864.74,867.65c-5.19.79-6.6,4.6-7.25,9,.37,5.94,7.23,9,6.25,16.35,5.63-5,.92-11.39,4.69-16.95l1.8,11.93c4.4-1.39.34-6.56,3.77-8.39,1.06-3.72,1.56-8,7-7.75,1,1.24,2.12.87,3,0,1.33-1.31.57-2.57-.41-3.73.6-2.09-1.17-4.68,3.37-5.58,3.84-.77,7.23-4.85,2.91-9.57-2-2.2-2.52-4.86-3-7.58-.65-3.29-2.16-3.78-4.51-1.31-.42,1.64-.54,3.47-2.64,4-2.79-2.73-5.16-2.43-5.8,1.52-.53,3.3-2.22,6.12-2.91,9.35s-.47,7.83-6.21,6.68C864.51,865.59,864.38,866.94,864.74,867.65Z"
            fill="#69625d" />
        <path
            d="M659.72,654.34c1.8,0,5.52-1.92,2.92,2.75a3.47,3.47,0,0,1-1,1.13c-2.43,1.73-4.53,4-2.34,6.78s4.8-.11,7.16-.89c-3.1-1.36-2.22-2.8-.74-5.19,2.87-4.67.62-8.47-4.55-8.55C660.7,651.69,660.21,653,659.72,654.34Z"
            fill="#81807a" />
        <path
            d="M864.74,867.65c6.54-1.43,9.66-5.53,10.49-16.4.32-4.16,1.61-4,4.45-3.16-.95-7.8-9.53-10.71-11.54-17.88-.32-1.15-1.79-1.07-2.6-.44-6.69,5.26-6.82-1.1-8-4.7-1.46-4.31-2.35-8.81-3.6-13.62-5,3.55,2,9.85-3.89,12.19-6.74,2.69-4.48-6-8.67-7.19-2.49,7.87,3.93,13.93,4,21.1-2.89,1.06-4-1-4.59-2.79-1.44-4.65-4-8.7-6.17-13-1.22-2.41-.84-6.44-3.8-6.94-3.18-.53-2.74,4.27-5.15,5.62-1.38,1.42-1.79,2.65.65,3.31,4.84.24,7.78,0,6.92,7.61-.84,7.37.14,16.35,5,23,7.35,10,10,21.22,11.41,33.06.11.93-.17,2.12,2.2,2.46,2.92-6.8-5.61-13.1-.08-20,1,.15,1,2.82,2.6,3.61a2.11,2.11,0,0,0,1.95-.2c.4-.41.63-1.76.37-2-7.69-5.76-1.94-8.55,2.52-11.65.6-.41,1.12-.94,2-1.66C862.41,861.43,863.57,864.54,864.74,867.65Z"
            fill="#858076" />
        <path
            d="M826.25,823.78a3.13,3.13,0,0,1-.65-3.31c-2.38-6.53-3.1-13.32-4.29-20.82,4.47,1.11,4.07,7.54,9,5.37.17-2.36-1.66-3.52-2.91-5.06s-2.32-3.49.52-4c6.58-1.27,3.42-4.84,1.66-7.38-2.35-3.4-5.47-7.26-10-3.24-2.2,1.94-8,.88-6.23,6.7.28.92-1,1-1.63.71-7.09-3.32-5.25,3.49-7.06,6.15.29,1.73,1.27,3.8-.22,5.08-9.95,8.57-9.66,18-3,28.33.93,1.41,1.32,3.18,2.51,6.2,1.46-5,2.89-8.28,7.48-4.06,1.19,1.1,5,1,6.35-.09,2.5-2.09-.06-4.58-1.16-6.71-3-5.77-9.08-10.52-5.74-18.9,5.8,5.09,6.58,12.42,9.75,18.42,1.42,2.69,1.5,7.09,6.55,4.81C826.88,829.22,826.57,826.5,826.25,823.78Z"
            fill="#a59a8f" />
        <path
            d="M855.78,786.12c.61-4.27-2-7.54-3.95-10.87,2.48-1.72,5.82,1.83,7-1.58s-1.77-5.58-4.13-6.32c-4.37-1.38-5.34-5.94-8.91-8-2.87-1.63-5.41-3.65-9.37-2.54L848,774.14l-38.65-23.76c.35,4.79,1,7.82,3.67,10.23,1.29,1.18,3.25,2.85,3.12,4.13-.74,7.72,1.48,9.81,8.3,5.15.19-.13,1.36,1.18,2.08,1.82,4.26-5.4,7.07-2.31,10.27,1.43C841.92,779.12,849.5,781.72,855.78,786.12Z"
            fill="#756d64" />
        <path
            d="M824.7,727c-5.12-1-8.45-7.27-15-4.57-3.31,1.36-5.91,3.95-9.84,4.53-1.94.28-3.1,3.75-1.63,7.1,2.16,4.92,1.81,11.1,7.73,13.88.41.2,1.83-.64,1.8-.81-1.34-6.82,6.92-6.37,8.47-11.18.85-2.62,2.85-2.36,4.37.08,1,1.65,1.52,3.83,4.57,4.72-.9-3.76,5.3-5.65,1.69-10A2.84,2.84,0,0,1,824.7,727Z"
            fill="#6e665f" />
        <path
            d="M942.14,789.43c.21,1.11.42,2.21.64,3.32,3.41,2.49,3.18-.94,3.53-2.42,2.21-9.32,4.23-18.69,6.74-30C946.19,770.31,945,780.16,942.14,789.43Z"
            fill="#93897c" />
        <path
            d="M921.43,971.57c4.27-3.63,3.23-9.29,5.32-13.76,1.78-3.79,1-8.65,4.84-11.57-.42-4.39-.84-8.78-1.26-13.27C919.77,944.43,923.49,958.62,921.43,971.57Z"
            fill="#696460" />
        <path
            d="M938.67,921.23c2.6-5.54,5.32-11,7.75-16.64,1.48-3.4,2.74-7,1.16-10.78-3.8-.48-3.78,2.48-4.41,4.86,1.59,8.53-4.2,14.65-7.8,21.1-3.85,6.89-3.19,12.67.24,19.65a13.8,13.8,0,0,0,4.59-6.5C942.08,928.71,935.93,925.55,938.67,921.23Z"
            fill="#93897c" />
        <path
            d="M980.16,806.46c-4.67.22-6.36-1.77-4.63-6.27a5,5,0,0,0,.19-1.28c-6.68,8.92-9.28,19.24-10.31,30.09C969.38,820.87,976.61,814.87,980.16,806.46Z"
            fill="#6d645a" />
        <path
            d="M943.17,898.67l4.41-4.86c3-6.57,1.61-13.95,3.7-20.75-6.37,8.41-7.36,19-11.15,28.66Z"
            fill="#93897c" />
        <path
            d="M890.36,906.35c-.61,3.41-.92,6.77,1.8,10.88,1.6-5.75,3-10.64,4.33-15.53-.51-5.2,1.77-10.06,2.22-15.94C893.75,892.36,892.57,899.56,890.36,906.35Z"
            fill="#858076" />
        <path
            d="M883.6,868.13c.42,2.14.25,3.87-2.6,3.74-1.31,7.91,3.81,14.73,3.57,22.5C885.54,885.51,887.05,876.71,883.6,868.13Z"
            fill="#978f85" />
        <path
            d="M642.29,728.6c2,.62,4.16,1.07,3.4,3.95-.63,2.4-1,4.62-4,5.81-5.66,2.22-11.15,1.52-16.64-.09-1,3.44,4.41,3.37,2.72,6.63,1.42,1.71,3.21,1.07,4.58.27,3.51-2.06,4.72.3,6,2.75l7.39,2.07c4.37-2,8.47,1.74,12.8.61,2.53-2.51-.75-5.14.24-7.88,1.43-4,2.5-6.44,7.29-3.08,3.45,2.42,6.86,6.12,12,4.45,1.24-2.05,2.47-4.18,5-1.35l.86.54c7.09,2.12,8.17-3.81,9.87-7.95,1.25-3-2.48-7.09.67-10,2.85-2.65,5.83,3.21,9.24.34-.74-3-5.13-6.1-1.91-9.24,2.71-2.66,4.58,1.25,7.17,3.71.54-5.48-2.26-6.88-5.77-7.91-4.42-1.3-3.93,2.34-5,4.61-1.49,3.21-3,7.55-6.72,1.66-1.62-2.55-3.33-2.41-5.7-1-1.68,1-3.7,1.67-5.88.58-.85-2.92,5.61-2.59,2.93-6.28-3.27-4.49-5.51,2.15-8.57.7-.73-1.91.78-2.48,2.08-3.29s1.38-2,.45-3.19a2.19,2.19,0,0,0-3.33-.41c-1.84,1.6-4.34,2.93-6.19,1.89-6-3.41-10.2-1.17-13.91,3.59-4.27-.21-4.7,5.37-8.64,5.66-3.93.63-6.66-1.63-7.1,3C637.4,722.32,639.2,726.67,642.29,728.6Z"
            fill="#8c887f" />
        <path
            d="M741.84,797.19c1.62-5.73-.39-10.84-2.72-17.43-2.1,3.6-2.13,8.34-7,6.83-3,1.77-2,4.75-2.33,7.38-.61,4.66-.75,9.47-3.47,13.61-2.84,8-.72,16.32-1.26,24.47-.2,2.31-.38,4.62,1,6.7,4.86.5,5.55,4.46,6.7,8l1.41.46c3.47,1.62,7.45,2.54,7.34,7.79-.06,2.6,2,4.22,4.66,3.55,5.5-1.37,5.69,1.87,5.74,5.84.06,5.21-.41,10.56,4,14.74,2.76,2.59,5,3.23,7.4-.15.13-.49.26-1,.38-1.47-.18-1.21-.9-2.67-.45-3.57,3.72-7.58.88-13.46-3.25-20.12-2.42-3.91-6.88-10.5,1.2-14.82.78-.42,1.3-2.37,1.07-3.43-2.89-13.28-.71-27.93-10.5-39.39-1.27-1.48-1.46-4.35-3.75-4.36-2.72,0-2.25,2.93-2.87,4.67-.86,2.4-2,1.57-3.37.66-2.1,2.44-1.39,5.16-.6,7.78.35,1.16,1.53,2.87,2.64,1.81,4.82-4.62,5,.7,5.85,2.84,4.68,11.07,2.92,21.8-2.09,32.36-3.07-.9-3-3.52-3.74-5.51-1.1-2.88-1.71-5.91-6.17-4.6-3.46,1-2.73-1.82-2.7-3.73C735.2,817.37,735.47,806.61,741.84,797.19Z"
            fill="#73726e" />
        <path
            d="M727.09,838.9a10.39,10.39,0,0,1,0-6.22c-1.16-1.36-4.5-1-3.52-4,1.9-5.9-.92-10.84-3-15.92-3.1-7.44-4.67-8-12.64-4.44-1.12,1.93-.93,3.62.9,5a144.29,144.29,0,0,1-.89,25.55c-1.4,10.15-5.56,18.92-7.83,28.45-.94,3.92,1,5.66,4.5,6.43,1.5-11.33,7.34-21,11.68-29.5.93-2.41,1.6-1.09.77-1.67-.17-.12-.39.06-.49.56-1.34,6.28-4.08,12.38-2.27,19,.89.49,1.39,2.22,2.84.86a6.43,6.43,0,0,0,2.69-2.55c1.79-2.88,7.07,1,7.43-3.16C727.79,851.24,729.9,845,727.09,838.9Z"
            fill="#98938b" />
        <path
            d="M658.52,750.26c-4.24-1.46-8.44-5-12.81-.27,2.92,4.07,1.5,6.89-2.58,8.94-3.53,1.79-6,4.12-6.06,8.56,0,1.64.26,2.29,1.66,2.62,1.72.41,1.66-.42,1.95-1.93.72-3.7,4.49-.92,6.66-2.48,1.07-.77,1.59,2,2,3.37s-.57,3.43,1.61,3.68,3.11-1.53,3.5-3.3c1-4.74,3.07-6.09,7.25-2.75a3.73,3.73,0,0,0,3.52-.1c3.93-3,7.09-1,10.3,1.18,4.84-.73,8.53.23,10.8,5.33,1.61,3.6,4.83,5.64,9.18,3.82a5.26,5.26,0,0,0,1.37-1.6c1.67-5.25-.62-8.87-5.1-11.19s-8.12-5.51-12-8.69C674.06,750.73,666.33,749.15,658.52,750.26Z"
            fill="#9b9182" />
        <path
            d="M727.09,838.9c-.48,6.37-1,12.74-1.47,19.66-7.84-7-7,.57-8.47,4.48,1.75,4,.74,7.82,0,11.81-.87,4.61,2.69,7.55,6.65,5.89,5.22-2.18,5.22-2.18,8.23,3.54,3.51-3.08,2.25-6.52.92-9.5-3-6.67-2.21-13.88-3.32-20.81-.4-2.46.14-5.66,3.18-7.17C733.52,842.28,735,837.2,727.09,838.9Z"
            fill="#858076" />
        <path
            d="M695.31,776.44c-4.55.14-7.37-2-8.79-6.31-2.3-6.93-6.49-5.39-11-2.35-.68,3.24-2.15,5.46-6,4.65-4.09,1-3.68,4-3.14,7.08.76,4.31,3.68,5.52,7.62,5.26,11.89-3.55,16-.12,16.64,14.05l1.26.36C699,792.47,697.66,784.53,695.31,776.44Z"
            fill="#aaa092" />
        <path
            d="M763.38,879c-5.94,2.31-8.16-1.43-9.18-6.09a36.63,36.63,0,0,1-.48-9.71c.31-5.5.58-10.38-7.35-6.29-3,1.57-3.41-.68-3.24-2.92.5-6.89-2.66-8.84-8.93-6.76-1.31,6.16-2.18,12.08,5.74,14.76a4.86,4.86,0,0,1,2.32,2.83c2.75,7.69,9.29,12.18,14.68,17.67,1.43,1.46,2.52,3.38,5,2.14S764.81,881.41,763.38,879Z"
            fill="#858076" />
        <path
            d="M708.84,813.33c-.1-1.6-.2-3.21-.29-4.81-1.13-2.61-3.41-4.34-5.09-6.53-2.54-3.32-5.19-6.62-9.61-2-1,1-2.32-.17-3.17-1.18h0c-2.14-2-4.61-4.07-7.08-1-2.77,3.46,2.48,2.48,2.95,4.51,1.73,7.53,12.71,9.1,11.5,18.2,3.12.9,2.23-2.75,4.18-2.8.81,5.86-3.48,11.44-.8,18.59A69.11,69.11,0,0,0,708.84,813.33Z"
            fill="#726e68" />
        <path
            d="M714.31,862.18c1.92-7.12,4.06-14.21,2.14-21.77-3.65,11.27-15.67,19.51-11.83,33.35.46,1.6.11,4,2,4.43,2.06.45,2.78-2.08,3.35-3.42C711.69,870.69,712.9,866.39,714.31,862.18Z"
            fill="#858076" />
        <path
            d="M655.2,784.26c-3.25,9.77-11.52,5-17.75,6-1.54.25-3.59-1.39-4,1.55-.46,3.43,2.27,2.44,4,2.75,8.44,1.56,16.36-.39,23.49-4.68,3.35-2,5.55.09,8.23.56,2.52.45,3.15-.24,2.61-3.26a8.68,8.68,0,0,0-2.18-2.93C662.66,776.91,662.69,776.88,655.2,784.26Z"
            fill="#6b665d" />
        <path
            d="M655.2,784.26c1.46.25,3.61,1.17,4.18-.32,3.14-8.14,5.51-4.39,8.22.22a6,6,0,0,0,4.16,3l2.28-2.41c-4.83-2.91-9.45-5.89-4.48-12.34-6.14-.52-10.61,4.1-16.21,5.52C651,778.56,652.22,782.71,655.2,784.26Z"
            fill="#9b9182" />
        <path
            d="M638.32,747.92c-.61-11.17-7-2.15-10.59-3l-3.87,3.59c-.66,4.83,6.39,3,6.82,7.6,1.2-2.3,3.31-4.56,3.41-6.91C634.36,743.53,637,748.46,638.32,747.92Z"
            fill="#9b9182" />
        <path
            d="M599.27,760a3.15,3.15,0,0,1-1.91-.23c-.37,2.87-1.71,5.48-2.54,8.59,2.48-3.29,7.92-1.19,9.45-6.14C602.93,761.23,599.21,765.47,599.27,760Z"
            fill="#79746e" />
        <path
            d="M629.65,824.52l-4.76.34c-3.95,4-1.4,6.32,2.18,8.36,8-1.68,16.3-2.25,22.93-7.82-2.5-7.34-6.94-8.83-12.79-4.15C635,823.06,632.27,823.66,629.65,824.52Z"
            fill="#5d5b5c" />
        <path d="M612.12,824.29c-5.9-3.8-12.15-3.5-18.48-1.45-2.27.74-2.26,2.37-1,4.15Z"
            fill="#a19e96" />
        <path
            d="M715.55,755.13c.65.37,1.74,1.19,1.88,1,8.52-8.41,8.37,1.11,10.79,5.18,1.42,2.39-.77,7,3.64,7.33,3.57.28,4.38-3.57,5.69-6.17,2.68.87,2.93,2.87,3.05,4.88.08,1.36.36,2.51,1.9,2.81,7.15,1.35,11.78,5.81,16.89,10.38,8.55,7.65,12.84,17.14,15.86,27.61,1.18,4.11,3.79,4.06,6.12,1.68,3.06-3.11,5.72-3.39,9.17-.88a3.48,3.48,0,0,0,4.29.09c1.43-1.27,1.46-3,1-4.9-3.33-12.94-10.94-23.19-21.42-30.92A22.89,22.89,0,0,1,765,759.4c-4.14-.72-8.18-2.29-10.28-5.85-3.54-6-10.45-6.43-15.35-10.19-3.38-2.6-5.06,1.38-6,4.42-.52,1.71-1,3.58-2.94,4.1-2.76.74-2.08-2.32-3.28-3.17-3.89-2.77-8-5.33-12.05-7.78a2.35,2.35,0,0,0-3.35.75c-.92,1.54-.6,3.48.76,4C717.65,747.71,715.72,751.64,715.55,755.13Z"
            fill="#6c6965" />
        <path
            d="M658.52,750.26c2.75,3,6.72,1.58,10.05,2.58,4.67,1.41,9.28,1.91,12,6.69,1.71,3,5.06,3.93,8.1,5,4.95,1.76,8,4.68,7.1,10.38,5.67,5.57,10.45,11.8,12.57,19.54,1.49,5.47,5.78,4,8.26,2.8,3.62-1.76,2.87,1.52,4.13,2.36,2.19-1.88,7.37-.25,6.65-5.59.66,4-2.29,7.73-.74,11.76a4.57,4.57,0,0,0,1.23,1.74c4.74-3.85,2.22-9.64,3.77-14.37.67-2,.37-4.37.51-6.57a7.13,7.13,0,0,0-1.31-6c-2.12.23-2.09,1.71-2.6,2.78s-.63,2.68-2.36,2.4c-1.47-.25-1.7-1.6-2-2.84-1.18-4.65-1.57-3.53-6-5-2.95-1-5.52-4.66-8.63-6.71-1-.68-2-2.48-2.74-2.36-3.82.65-7.37,1.63-8.52-3.81-1-4.86-.15-8.92,3.87-12.08-3.88-1.35-5.8-9-12.11-3.54-.7.6-6.93-1-5.81-6.1h0c-2-3.41-4-4-6.23-.2-4.24-.06-7.72-2.3-10.67-4.8-2.57-2.18-4.88-5.31-7.72-1.77-2.33,2.9-4.25,6.83-1.55,11A9.22,9.22,0,0,1,658.52,750.26Z"
            fill="#62605e" />
        <path
            d="M645,718.18c5.8,1.15,4.78-5.72,8.41-7.12-2.14-2.77-1.49-5.28,1.12-7.14,2.78-2,6.24-4.6,9.36-2.3s5.56.07,8.76,1.57c-.67-5.35-8.3-4.49-6.38-10.2.16-.48-3.46-1.81-4.31.26-2.14,5.25-8,5.82-10.78,9.69-1.89-.68-1.31-1.74-1.07-2.6.77-2.72,4.33-5.52,2-8-2.78-3-6.91-.25-9.91.73-3.17,1-6.24,2.77-9.49,4-5.74,2.22-8,6.47-4.46,12.51.69,1.18.49,2.88.7,4.34,8.1,4.47,9-3.61,12.68-8.07C643.4,710.35,639.13,715.81,645,718.18Z"
            fill="#81807a" />
        <path
            d="M645,718.18c0-3-3.52-5.43-.38-9.25,1.72-2.09-2-4.36-4.54-6.75-2.09,5.82-3,12.57-11.1,11.74a7.44,7.44,0,0,1-.57,1.29c-3.78,4-10.35-1.38-13.7,4.07-1.15,2.47,1,3,2.38,3.78,1.26.7,2.36.84,2.52,3,.57,7.68,8.32,11.32,13.76,5.69,3.15-3.26,6.15-1.74,8.94-3.09v0c.42-1.54-3.11-3.69.41-4.56,1.82-.45,4.56.62,4-2.51-.45-2.31-3-.52-4.55-1.06l-3.3-1.1Z"
            fill="#a3a098" />
        <path
            d="M757.78,740c.5,3.5,3.25,4.41,6.05,4.79,5.48.74,10.67,1.35,15.23,5.42,2.78,2.47,7.54.66,7.81-2.86.41-5.18,2.51-10.55.36-15.77-.83-2-.83-3.79,1.33-4.25,4.85-1,5.86-6,9.19-8.64s4.77-7.19-.32-11.15c-3.64-2.83-1.47-9.5-6.79-11.87-.78-.35-.68-1.81.26-2.62,1.54-1.33,6.08-1.16,2.72-5-1.43-1.63-2.87-3.68-5.67-3.08-4.86,1,.58,5-2.1,6.86-3.61-1-3.41-3.5-3.54-6.84-.17-4.62,2-10.36-3.85-13.53.42,2.23,1.07,4.7-.68,6.45-1.31,1.31-2.73,4.83-5.09-.21-1.31-2.78-5.8-9.14-10-1.08-2,2.25-4.11,4.48-6.1,6.77a11.1,11.1,0,0,0-1.61,2.4c7.34,6.05-1.39,8.42-3.05,12.1-2,4.49-.47,8.2.81,12.15.19.6,1.54,1.41,1.56,1.39,3.08-3.37,6.07-2.86,10.5-1.93,4.2.87,4.93-4.86,6.21-8.74.92-2.79,3-6.48,6.27-6.89s4.91,3,6.5,5.63a38.32,38.32,0,0,0,2.77,4.53c6.64,8.08,6.37,9.62-2.85,14.29-.9.45-1.84.82-2.77,1.2-10,4.06-10.12,4.15-3.57,12.36,2.94,3.67-3.08,6.25-.68,9.61-1.8,1-3.43.51-4.93-.6C767.27,737.6,762.35,741.55,757.78,740Z"
            fill="#72706d" />
        <path
            d="M741.75,689.75l-.27-1.48c-.57-3.07,2.49-8.13-.79-8.9-5.61-1.32-5,4.83-6.37,8.31a29.2,29.2,0,0,0-.78,2.92c-.11.49-.24,1-.33,1.47-.57,2.93-1.75,7,1.75,7.78s3.81-3.44,4.46-6.34C739.72,692.15,740.94,691,741.75,689.75Z"
            fill="#868c8d" />
        <path
            d="M754.52,666.41c-1.38,3.93-6.66,1.29-8.37,5.05-.93,2.06-4.13,3.35-1.85,6.25s3.85-.21,5.72-.75c1.18-.34,2.3-.84,3.45-1.27C753.89,672.6,756.45,669.76,754.52,666.41Z"
            fill="#525a64" />
        <path
            d="M642.29,728.65c-3.5-.31-8.15-5.82-10,2.46-.17.74-6.09,2.92-9.73,1.21-4-1.86-1.34-4.6-1-7,.7-5.39-6.42-1.9-6.86-6-6.6,1.24-3.45-3-3.22-5.66-5.05,3.47-2.19,9-3.54,13.45,4.48-.54,7.34,3.11,10.26,5.11,7.33,5,14.2,1.36,21.23.64C641.32,732.62,641.79,730.38,642.29,728.65Z"
            fill="#807e7b" />
        <path
            d="M800.22,876c2.24.1,2.76-1.54,2.1-3-3.75-8-3.64-16.49-3.71-25,0-1.5-1.13-2.23-2.26-2.78-4.58-2.22-7.49-5.62-8.42-10.75-.34-1.87-1.58-3.35-3.85-2.14s-1,2.84-.56,4.57c1.94,7.44,9.7,11.71,10.48,19.9.45,4.73,2.15,9.34,3.25,14C797.73,872.91,798.38,874.78,800.22,876Z"
            fill="#7d746b" />
        <path
            d="M677.72,743.07c2.13-1.65,4.2-1.15,6.23.2.44-3.16-1-4.82-4.13-4.64S677.44,741.12,677.72,743.07Z"
            fill="#7b766f" />
        <path
            d="M741.84,797.19c-11.26,9.5-8.34,22.93-8.74,34.93-.23,6.93,5.1-.5,7.85,1.12.86,2.81,1.84,5.92,2.75,9,.65,2.23,1.74,3.54,4.36,2.91,2-.49,3.15-1.47,3.07-3.62-.19-5.45,2.54-10.07,4-15.06,1.72-6-2.52-11.9-3.6-18-.48-2.71-2.71-6-3.72-9.24-3.42,1.37-2.16,4.81-4.49,6.66a15.56,15.56,0,0,1-1.46-8.75Z"
            fill="#5c5c5c" />
        <path
            d="M727.89,807.53c.11-.48.23-.95.35-1.43-2.5-2.31-6.8-2.66-7.52-6.91,1.59-9.11-6.22-.37-7.71-4-.23-.54-1.54,2.84-2.29.74-2-5.55-5.7-10.64-7.37-15.6-1.81-5.37-5.59-3.2-7.56-5.44l-.48,1.52c-2.82,5.14,1.8,10.82-1.21,16-1.2,2.07-.66,5.09-3.42,6.37-.59,2.45.72,4.23,2.79,4.48,2.88.36,2.53-3.29,4.26-4.49,4.7,2.08,5.15,8.77,10.82,9.7,2.89-.26,7.67-1.82,8.31.34,1.86,6.24,7.73,11.56,5.16,18.9-.62,1.76-2.94,3.19-1.08,5.31,2.13,2.42,4.11-.5,6.2-.39C728.13,824.32,725.46,815.85,727.89,807.53Z"
            fill="#8e877a" />
        <path
            d="M720.72,799.19c-1.78,7,2.35,7.49,7.52,6.91q.07-6.32.14-12.62C727.29,797.46,722.93,796.93,720.72,799.19Z"
            fill="#73726e" />
        <path
            d="M588.43,755.62c-2.12,3.32-8.37,2.27-8.35,7.75,0,1.42.37,1.78,2.5,2.6,7.12,2.74,8.88-4.93,13.85-5a3,3,0,0,0,1.05-1.82c.39-4,3.29-6.55,5.41-9.54,2.93-4.13,5.18-8.43,4.39-13.73a1.62,1.62,0,0,0-1.77-.92c-1.52,5.1-2.86,10.3-7.24,13.92C596.1,752.78,593.66,756.23,588.43,755.62Z"
            fill="#545456" />
        <path
            d="M607.22,727.59c-.46,1.49-.91,3-1.37,4.48-.11,1-.23,2-.34,2.93l1.2.46c1.19,5.63.35,12.25,7.34,15.09,3.91-.55,3.85-3.57,3.55-6.31-.4-3.73-.7-7.54-2.32-11-.86-1.6-1.9-3.1-2.77-4.69-1.14-1.55-2.43-2.72-4.53-1.69Z"
            fill="#373940" />
        <path
            d="M596.88,759.58c.47.11.88.4,1.35.5,2.58.33,4.47-1.43,6.46-2.63a14.39,14.39,0,0,1,6.22-2.38c1.61-.46,3.28-.84,4.18-2.49.19-1.18-.6-1.85-1.34-2.54-3.85-4.14-3.23-10.43-7-14.58-1,7.55-5.15,13.46-9.9,19.07C595.39,756.19,593.05,758,596.88,759.58Z"
            fill="#4a4f55" />
        <path
            d="M613.75,750l1,1.84c.31,1.5,1,2.64,2.75,2.56a6.55,6.55,0,0,0,1.7-1.25c2.11-2.75,5.33-4.59,6.68-8a12.25,12.25,0,0,0-.51-8.29,18.77,18.77,0,0,0-3.07-4c-1.06-1.71-3.07-2.34-4.35-3.81h0c-1.15-1.2-2.27-.58-3.4.06-1,1-.71,2.31-.75,3.53C613.31,738.45,618.94,744.28,613.75,750Z"
            fill="#4d4949" />
        <path
            d="M614.67,729.71l3.33-.63c-.84-1.23-2.42-2.46-2.41-3.68.08-9.5-4.14-3.31-7-2-.4,1.46-.81,2.92-1.21,4.37a3.64,3.64,0,0,1,4.34,1.17A2,2,0,0,0,614.67,729.71Z"
            fill="#666567" />
        <path
            d="M614.67,729.71l-3-.79a2.78,2.78,0,0,0,2.14,3.75C615.74,732.12,614.51,730.72,614.67,729.71Z"
            fill="#464e55" />
        <path
            d="M626.81,731.56l-1.43-.46c-2.93,1-4.78-1.85-7.38-2l3.6,4.18c1.53,1.71,3.18,2.44,5.13.6A2.62,2.62,0,0,0,626.81,731.56Z"
            fill="#666567" />
        <path
            d="M624.72,745.22c-.11,1.85-.17,2.2-.86,3.27,3.14-1.74,8.76-6.08,11-9.1a3.1,3.1,0,0,0-.73-2.06,7.21,7.21,0,0,0-1.93-1.35c-2.93-.65-6.06-3-8.41,1C625.07,739.63,624.74,742.44,624.72,745.22Z"
            fill="#6f757a" />
        <path
            d="M623.81,737c3.29-2.13,6.1.83,9.18.89a3.53,3.53,0,0,0,1.7-4c-1.14-2-3.08-2.09-5.07-2a9.22,9.22,0,0,0-3.21,1.11c-1.54,1.41-3.18.57-4.81.24A5.05,5.05,0,0,0,623.81,737Z"
            fill="#464e55" />
        <path
            d="M634.61,739.84c9.09-.08,9.52-2.56,10.28-3.63a11,11,0,0,0,1.72-4c-2.13-4.74-3.24-5.11-6.15-2.08-.39,1.43-4.07,3.13-6.14,3.22C634.8,733.51,631.05,738.39,634.61,739.84Z"
            fill="#48494b" />
    </g>
    <g id="frame">
        <rect width="1000" height="1000" fill="none" />
    </g>
</svg>