<!-- Copyright (c) 2022 Jan Stehno -->
<svg xmlns="http://www.w3.org/2000/svg" viewBox="0 0 1000 1000"><title>eurasianteal</title><g id="eurasianteal"><path d="M664.32,566.68l7.45,2.34c3.72,2,5.05,5.94,7.64,8.86.93,1,1.72,2.34.87,3.75-1,1.64-2.61,1.52-4.22,1.14-1.44-.34-2.45-2.26-4.28-1.11s-3.74,2.23-5.9,3.38c2,.24,4.1-.92,5.71.36,1.95,1.53,1.56,3.88,1.58,6s-.94,4.19-1.23,6.36c2.59,1.05,4.25-1,6.3-1.31,3.88-.53,7.48.58,9.22,3.85,1.51,2.83-1.27,4.93-3.36,6.83-1.42,1.29-4.73,2.16-2.71,4.79,1.67,2.16,4.67,2,7.12.82,3-1.53,5-4.43,7.49-6.64,2-1.79,3.74-4.25,7-3.48a2.7,2.7,0,0,1,1.54,2.91c-1,3.6-3.49,6.09-6.1,8.53-.73.67-1.58,1.47-1.25,2.5.43,1.31,1.76,1.43,3,1.54a9.19,9.19,0,0,0,5.61-1.57,8.25,8.25,0,0,1,5.06-1.37c1.89.18,3.51.87,4.07,2.85a3,3,0,0,1-2.11,3.76c-7.33,1.49-14.74,5.8-22.15,1a18.1,18.1,0,0,0-11.25-2.67c-6.19.3-7-.54-6.65-6.9.07-1.32.89-2.67,0-4-3.51-1.16-8,2.57-10.74-2.12,1-2.09,3.66-1.11,5.07-2.51-4.67-8.9-12.1-10.69-24.15-5.54,3,3.3,7.06,4,10.82,5,2.06.6,4.39.51,5.39,3-1,3.86.06,6.33,4.2,7.49,3.4.95,5.53,3.18,4.2,7.09-.87,2.54.49,3.54,2.55,4.39,1.61.67,3.62,1.42,3.12,3.66s-2.62,2.11-4.35,2.26a13.61,13.61,0,0,1-6.42-.66,5.54,5.54,0,0,1-2.4-2.57c-.26-.52-.36-1.13-.63-1.64-1-2,1.13-4.91-.93-6.07a13.65,13.65,0,0,0-9.16-1.6c-7.79,1.59-15.47,2.92-23.4.71-3-.84-4.77,2.44-7.41,3.17-7.06.5-11.14,6.83-17.45,8.85-2,.64-3.72,2.16-6,1.63-9.77-5.75-19-3.54-28.48,1.24-4.8,2.41-10.25,3.34-14.95,6.43-6.12,4-7.09,7.34-2,12.47,2,2,2.42,4.38,2.78,6.91a4.61,4.61,0,0,1-1,3.19,9.74,9.74,0,0,1-1.87,1.87,6.28,6.28,0,0,1-3.35,1.3c-1.67,0-3.67-.42-4-1.88-1.12-5.17-5.2-9.06-5.95-14.34.23-3.47,2.56-5.52,5.09-7.42a22.38,22.38,0,0,0,4.43-3.86c.19-.21,3.41,0,.67-2.15-2-1.52.47-3.56,2-4.58a53.05,53.05,0,0,1,15-6.77c3.27-1,6.38-1.83,8.19-5.15a3.32,3.32,0,0,1,4.61-1.5c7.09,4,14.24,1.1,21.34.37,3.41-.35,7.24.22,9.85-3a14.23,14.23,0,0,1,1.55-.81c2-1,5.15-1,4.82-4.15-.29-2.82-3.22-2.2-5.17-2.75s-3.81-1.18-3.54-3.79c6.32-2.21,12.24-5.85,19.44-4.68a15,15,0,0,0,9.19-1.08c-3.22-4.15-10.2-5.45-15.57-2.48a26.32,26.32,0,0,1-11.78,3.19c-2,.09-4.21.4-3.87-2.77l.34-.48c1.36-1.91,6-.88,5-4.37-.89-3.09-4.5-3.15-7.47-3.43a42.94,42.94,0,0,0-16.69,1.26c-3.42-2.21-2.56-5-.55-7.39a66,66,0,0,1,4.63-5.28c5.44-.53,9.38,3.47,14.25,4.79,3.95,1.07,7.26,1.9,10.93-1.11,3.13-2.56,12.14-.52,15.14,2.72-1.89,2.07-4.65,1-7.11,1.84,4.91.23,9.43-.38,13.63-2.61,9.8-5.1,13.87-4.58,18.88,2.36-.26-3.28-.26-3.28,1.44-7.17-3.87,2.27-6.72.49-9.42-1.65-2.48-2-4.9-3.16-8-1.23s-6.2.63-9.07-.59a29.5,29.5,0,0,0-22.41-.82c-4.07,1.47-8.4.61-12.23-.57-4.06-1.25-6.25.11-8.3,3.08-4.34,1.33-8.68,2.58-13.25,1.09-5-2.91-11.09-1-16.17-3.53-3.1-2.75-1.61-5.23.64-7.45,2.79-2.74,2.74-5-.81-6.87a15.9,15.9,0,0,0-11.48-3.76,15.13,15.13,0,0,1-9-2.16c-1.44-.88-3.62-1.59-2.64-3.88.74-1.74,2.61-1.48,4.16-1.16,8.86,1.83,17.87,3.23,26.08,7.21,3.39,1.64,7,2.61,10.37,4.09-2.19-1.46-5-1.31-7.16-2.94-1.8-6.72-1.45-7.38,5.86-11.06l16.68,4.54c1.24,3.12,3.51,4.32,6.9,4.51,7.25.4,14.65.45,21.05,4.74a2.57,2.57,0,0,0,1.68.51c9.3-1.38,16.75,2.89,24.43,7.24,3.43,2,7.9,2.42,12,2.73,3.32.24,6.79.34,7.66-4.25C662.51,565.88,663.67,566,664.32,566.68Z" fill="#5b5146"/><path d="M791.78,604.54a66,66,0,0,1,18.27,8.87c4.27,2.87,9.06,3.38,13.88,4.06,2.09.3,4.34-.28,6.25,1.08.28,1-2.3.26-1.09,1.65,6.31,7.21,15.52,2.9,23,5.61.72.26-.06-.29.56.07,6.75,3.91,14.27-.4,21.32,2.15a49.12,49.12,0,0,1,10.36,5.31,4.26,4.26,0,0,1,1.59,5.72,5.13,5.13,0,0,1-4.06.94c-3.42-.81-6.18,1.41-9.3,2-1.43.41-3.19-.43-4.3,1-.53.66-.08,1.48.47,2,2.16,2.25,4.26.23,6.39-.14a5.56,5.56,0,0,1,3.43.47c1.77,1.35,1.93,2.85.4,4.5-3.4,1.29-4.43,3.31-2.06,6.47a3.86,3.86,0,0,1,.93,3.21c-.78,1.57-2.12,1.72-3.64,1.44a11.52,11.52,0,0,1-6-6.75c-1.36-3.71-4-3.24-8.53-2.23,6.37,3.11,9.34,6.58,6.19,12.33a4.28,4.28,0,0,1-1.71,0c-3.93-1.37-6.37-4.6-9.17-7.34-4.09-4-8.59-5.37-14-2.86a14,14,0,0,1-7.51,1.36c-2.64-.36-4-2.34-5.53-4.19-1.88-2.57-2-5.28-.86-7.2-.13.43-1.28.62-2.41.85-2.34.25-4.7.11-7.05.23a14.07,14.07,0,0,0-4.24.93c-2.27.67-4.54,1.39-6.95.84-4.68-.73-9-2.06-10.4-7.33a2.82,2.82,0,0,1,.79-3.23c1.14-.9,2.2-.29,3.21.41,10,7,12.23,6.06,14.33-6a2.4,2.4,0,0,0-.26-1.7c-5.11-1.45-9.33-.42-12.24,4.31-3.19,4.06-7,1.1-10.32.57A16.33,16.33,0,0,1,781,628c-1.25-1.6-2.62-2.91-4.8-3a15.15,15.15,0,0,1-3.47-.63,20.65,20.65,0,0,1-6.3-3.18,19.08,19.08,0,0,0-15.88-4.61,8.59,8.59,0,0,1-2.94-.18c-2.07-.43-3.85-1.36-3.89-3.72s1.39-4.48,3.83-4.39a56,56,0,0,0,18.52-2.58c2.83-.86,5.38.63,6.56,3.67,1.6,4.12,5.08,5.44,9,5.28,3.64-.16,4.69-3.21,5.16-6.23S789.28,604.76,791.78,604.54Z" fill="#6a6158"/><path d="M542.26,644.78c-2.2,1.48-4.45,2.93-4.76,5.92-1.4,2.89-4.25,5.37-2.51,9.1,1.65,2.3,3.8,4.27,4.6,7.12.75,2.37,3.4,3.33,4.22,5.66-1.08,3.19-3.12,2.93-5.48,1.53-3.84-3.23-6.28-7.53-8.83-11.72-2.71-4.46-.57-9.13-.31-14.3a18.32,18.32,0,0,0-8.6,4.49c-3.32,3.07-6.17,2.73-9.18-.36a20.84,20.84,0,0,0-9.64-5.49c-2.11-.58-4.35-1.57-6,.47-2.06,2.51.52,4.24,1.4,6.29,1.35,3.18,6.06,3.93,5.83,8.17-6.74-2.16-12-6.51-16.46-11.76-4.13-4.84-3.75-9,1.16-13.82,2.6-2.52,3.71-4.5-.09-6.69,4.93-1,8.57,1.58,11.4,4.86,1.68,1.94,3.14,1.51,3.48.14.56-2.33,6.2-4.08.91-7.5-1.73-1.12.17-3.63,1.33-5.17,1.54-2.05,1.89-4.11-.22-5.71-4.47-3.41-4.57-8-3.83-12.82.5-3.26-.32-4.49-3.67-3.66a24.25,24.25,0,0,1-6.48.47c-3-.06-5.34-1-6.55-4.06-2.14-5.35-6.84-8.55-10.78-12.35-1.7-1.65-4-3.17-6.34-1.43s-.78,3.93-.06,5.93c1,2.68,3.12,5.27.6,8.2-5.9-4.38-9.18-10.86-13.3-16.66-.95-3.22-1.86-6.32,0-9.66,1.48-2.66-.73-4.29-2.46-6-5-4.83-9.21-10.16-11.07-17.08-1.54-5.75.13-9,5.95-10.6a81.41,81.41,0,0,1,28-2.91c5.4,3.67,5.57,5.09,1,10-3,3.14-6.5,5.87-4.25,11.13,1.38,3.25,2.75,5.5,6.84,6.2,7.52,1.28,10,7.28,6.28,14-1.17,2.11-1.61,4-.34,6,1.66,2.7,2.66,5.7,4,8.55,1.76,3.82,4.39,5.42,8.51,3.61,1-.4,2.07-.83,3.12-1.2a14.84,14.84,0,0,1,5.84-.79,17.31,17.31,0,0,1,4.56,2.68c4.09,3,4.84,5.46,1.38,9.29-4.13,4.58-3.94,7.77.81,11.64,2.31,1.88,3.35,5.1,5.67,7.36,2.14,2.09-.29,4.75-1.1,7-.68,1.91-2.62,2.88-3.95,4.32-4.21,4.56-2.31,13,3.41,15.12,1.37.52,2.22-.37,3.06-1.17q3.44-3.25,6.55-6.81a4.2,4.2,0,0,1,2.23-1.14c3.22,1.49,8.66-2.15,9.88,4.31.16.89,1.07-.56,1.71-.79C541.68,642.11,543.39,641.52,542.26,644.78Z" fill="#433a30"/><path d="M497.11,593.84c-6.66,2.72-8.28,2.2-11.24-5.19a49.88,49.88,0,0,0-3.66-7.87c-1.53-2.47-1.92-4.61.73-6.62,2.31-1.75,3.17-4.36,1.81-6.8-1.5-2.67-3.52-5.84-7.11-5.37-6.91.89-6.5-4.94-8.4-8.52s0-6.36,2.79-8.68c.6-.51,1.06-1.19,1.69-1.65,4-2.94,5.14-6.1.81-9.72,31-.42,61.64,2.06,91.51,11,2,.6,3.93,1.45,5.9,2.18-2.35,3.29-7.35,5.06-6,10.46-8.59-1.07-16.34-5.22-24.89-6.6-8.33-1.35-16.67-2.82-24.94-4.53a6.28,6.28,0,0,0-2.35-.18c-9.3,1.76-18.77.82-28.12,1.73-3.38.33-5.65.87-4.78,5.28.75,3.76,1,7.21,6.25,6,1-.22,1.9-.53,2.88-.71,11.61-.37,23.15-2.69,34.81-1.14,5.37,1.49,10.81.61,16.22.43s10.49-.1,15.42,2.09c5.62,2.5,6.08,4.22,1.53,8.34-1.92,1.74-3,3.34-2.7,5.87-3.38,2.27-6.78.27-10.15,0-2.13-.18-4.24-.6-6.38-.65-4.21-.39-8.33-1.41-12.55-1.66a27.48,27.48,0,0,0-6.37-1c-4.39-1.17-8.68-1.65-12.37,1.85-2.34.81-4.77.64-7.17.66-1.76,0-3.52-.17-5.29,0-3.54.23-4.57,1.37-3.36,5.28C493.32,583.45,493.75,589.12,497.11,593.84Z" fill="#51473d"/><path d="M914,474.92l-.18-.39.27-.33c6.38-7.38,15.63-11.59,21.56-19.45,1.49-2,2.94-3,4.42.08-1-2.67-1.79-5.31-.5-8,.46-.95,1.31-2.24,2.45-.39.06,3.31,0,6.61,0,9.92.06.79.71.12.69.05-1.63-4.17.5-8.83-1.66-13,2.91-3.45,3.65-.56,4.11,1.6.89,4.27.16,8.51-.88,12.69.42-1.1-.12-2.88,2-2.65,1.87,2.17,1.53,4.81,1.53,7.33,0,4.35,0,8.66,2.18,12.64a5.33,5.33,0,0,1,.33,5.14c-2.09,3.88-2.2,8.36-4,12.3-1,1.53-2.34,2.89-4.38,2.07-1.71-.69-1.71-2.5-1.88-4.06-.13-1.18,0-2.38-.18-3.55-.17-1.38-.3-2.9-2.17-3-1.65-.1-2.47,1-3,2.37-1.42,3.67-2.38,8.46-6.88,1.89-1-1.53-2.35.48-3.26,1.36-1.59,1.52-3.29,3.06-1.77,5.59.71,1.19,1.74,2.14,2.5,3.3,1,1.46,1.53,3.47-.31,4-5.06,1.6-5.19,7.23-8.85,10-2.13,1.59-1.08,3.41.86,4.78a5.17,5.17,0,0,1,2.06,5.79c-.76,2.7-3.29,1.36-5.1,1.45-2.38.12-2.75.56-3.39,3.46-1.33,6-.42,12.06-4.07,18.27-4,6.87-5.22,16-5.68,24.55a31.62,31.62,0,0,1-4,13.69c-1.48,2.65-.9,4.57.41,6.5,1.54,2.29,2.32,5.44,4,7,5.27,5.08,2.68,8.29-1.54,11.68-4.15.45-6.15-1.27-4.84-5.41.79-2.49.39-4.11-1.75-5.5s-3.06-3.47-4.28-5.5c-1.88-3.12-3.72-2.91-5.42.43-.71,1.4-1,3-1.63,4.41-1.4,3.12-3.3,4.41-6.21,1.5a19.6,19.6,0,0,1,2.95-10.45c3-4.82,5.75-10.4,9.55-14,4.73-4.56,3.94-8.88,3.63-13.83a12.86,12.86,0,0,1,.89-4.61c1.26-5.31,4.49-9.77,6.26-14.94a429.29,429.29,0,0,0,14-53.31C914.68,484,912.69,479.34,914,474.92Z" fill="#51433a"/><path d="M916.39,356.51c1.38-2.64,1.54-4.67,2.06-6.88,2.86-2.55,4.75-1.58,5.91,1.68.95,2.69,1.64,5.48,2.74,8.12,1.25,7,2.95,14,3.86,21.05.21,5.72.89,11.4,1.13,17.12.09,2.37-.17,5.07,1,7,4.55,7.65,2.64,16,3.2,24.09.06.79.22-.15,0,.59-2.91,11.26-6,22.46-12.58,32.31-1,1.52-2.59,2.61-4.55,2.08s-2.54-2.31-2.85-4.13a11.72,11.72,0,0,1-.22-2.36c.6-18.35-4.6-35.89-7.35-53.78-1.64-10.7-2.78-21.74,1.46-32.12C912.21,366.34,914.87,361.66,916.39,356.51Z" fill="#272917"/><path d="M916.39,356.51c.52,5.39-2.73,9.56-4.44,14.27-4.44,12.2-3.39,24.75-.65,37.1,2.59,11.61,3.82,23.45,6.56,35.07,1.17,4.93-.34,10.83-.12,16.31,0,1.4,0,3.06,1.61,3.44,1.42.35,2.65-.61,3.3-2,1.5-3.19,3.9-5.83,4.93-9.36,1.83-6.34,4-12.6,6.4-18.75.93-2.39,1.6-4.33-.33-6.43a1.83,1.83,0,0,1-.38-1.66c5.66-8.56-2.8-15.56-2.6-23.58.17-6.76-.66-13.56-1-20.34,1.73-.85,3.6,1,5.11.07,5.64-3.45,7,.3,8.13,4.57,2.72,3.41,5.07,7,5,11.57a107.16,107.16,0,0,0,1.75,24.32,2.48,2.48,0,0,1-1.24,1.27c-5.35-2.53-4.17-8.69-6.84-11.87,1,2.72,2.57,6.1,3,9.77.22,1.74,1.26,4.16-2.09,4.22.23-.74-.2.36-.38-.41-.13-.59-.53-.52-.34-.13,3.56,7.28,3,15.72,6.77,23,1.25,2.47,1.31,6.3-2.35,8.2-2.12,1.44-.28,4.16-2.52,6.68,0-6.71,0-12.51,0-18.31a.82.82,0,0,0-1.27-.65c-.28.16-.4.59-.6.9.34.72.48,1.4-.35,1.91-2.32,3.18-.47,6.85-1.37,10.49-1.15.95-1.25-5.8-3.23-.74-1.64,4.17-4.86,6.71-9,8.59-2.93,1.33-6,3.11-7.12,6.6-1.08,3.24-3.6,3.78-6.57,3.51a221.93,221.93,0,0,0-9.5-63.86C898.5,390.53,901.45,372.06,916.39,356.51Z" fill="#452b21"/><path d="M703.85,605.7a2.43,2.43,0,0,0-1.19-2.38,2.85,2.85,0,0,0-2.66-.91c-6.81,1.44-12.07-2.19-16.39-6.26a72.6,72.6,0,0,1-11.89-15.28c.22-.93.12-2.24.7-2.7,1.26-1,1.51.42,1.82,1.25.85,2.27,2.91,3.45,4.58,2.09,2.19-1.78-.79-2.67-1.63-3.94-1.85-2.82-3.62-5.7-5.42-8.55,4.85.22,8.93,2.44,13,4.82,7.53,4.45,14.83,9.43,23.9,10.38,5.27,4.8,8.47,11.14,13,17.72,0-2.39-.07-4.46,2.51-3.83a6,6,0,0,1,4.15,3c.85,2.38-.4,4.15-1.72,5.92-2.15,2.9-.94,4.47,2.21,4.62,3.32.17,5.94.56,5.4,4.88-.14,1.1.92,1.67,1.91,1.91,5.09,1.23,9.56,4.14,15.3,3.84,7.43-.4,12.51,4.61,17,9.94a1.84,1.84,0,0,1-1,1.47c-6.17,1.85-12,.64-17.78-1.71-2.25-1.21-4.13-3.18-6.88-3.4a28.72,28.72,0,0,1-3.33-.62c-2.11-.69-4.44-.86-6.12-2.57-.54-.59-1-1.26-1.48-1.9-4.34-1.58-6.42-6.17-10.65-7.89C712.56,617.34,708.92,610.27,703.85,605.7Z" fill="#635950"/><path d="M768,631.74a39.39,39.39,0,0,1-8.84-5.81c-2.2-1.91-4.9-3.2-7.63-2.38-7,2.12-12-3.53-18.38-4.28-3.86-.46.3-3.71,0-5.48-1.26-1.27-2.35-.5-3.49-.38-2.41.26-4.92-.19-6.25-2.31-1.58-2.5.92-3.89,2.36-5.35a5.84,5.84,0,0,0,1.81-4.78c5.12-1,6.58.2,8,6.84,1.17-2.84,3.24-3.93,6-4.41-2-1.93-5.75-2.07-4.32-5.76,1.11-2.84,3.17-3.87,6.13-2.78,16.8-.08,33.3,1.31,48.4,9.68-1.84,1.3-3.88,2.12-3.7,5.22.22,3.75-2.47,6.86-5.82,6.79-4.25-.09-10-.5-11-5.89-1.08-5.6-4.91-4.46-7.27-3.19-4.81,2.59-9.58,2.84-14.6,2-2.76-.48-4.53.61-4.69,3-.19,2.75,2.45,3,4.3,2.59,9.77-2.21,16.57,3.62,23.79,8.38.69,1.13,0,2-.55,2.9C770.65,628,770,630.4,768,631.74Z" fill="#5a5147"/><path d="M892.61,556.67c.45,4.7.83,9.41,1.4,14.1.1.9,0,1.09-.69,1.73-8.09,7.58-14.12,16.5-17.17,27.26.15,3.29,5.27,7.09-1,9.71,3.18,2.23.57,6,2.24,8.64,1.65.73,2.53-.81,3.77-1.21,2.54-.81,5.13-.69,5.94,2.06.93,3.15-1.86,4-4.24,4.34-3.27.47-6.61-.06-9.91.32,5.77-.66,11.42-.47,16.33,3.13,2.59,1.89,5.36,4,2.11,7.58a3.94,3.94,0,0,0-.77,3.3c.89,8.65-1.74,10.86-10.39,8.85a9.84,9.84,0,0,1-1.7-.52H875c-2.46-.76-4.26-1.84-2.39-4.76,2.72-1,4.88-4,8.36-2.39,1.57,1.66,3.13,3.87,4.73,0-1.72-5.09-8.11-9.32-13.35-8.74-1,.11-2.19.6-2.69-.35-2.62-4.9-5.24-1.25-7.51.12s-4.4,3.94-4.61-1.38c0-1-1.34-1.59-2.33-1.4-6.13,1.19-12.11-3.19-18.33-.38-1.46.66-4.08.92-4.38-1.43-.51-4-5.34-3-6.36-6.35l4.08-.4c8,4.08,17,3.79,25.42,5.78,4.71,1.11,6.79-2.89,8.55-6.58,5-10.48,7.1-22,12.21-32.46C881.19,575.4,887,566.1,892.61,556.67Z" fill="#594f44"/><path d="M984,568.15c.86-1.84-1.25-4.4,1.42-5.79,1.24,1.92,2.47,3.85,3.71,5.78.33,3.66.48,7.41,4.46,9.36,1.19,7.17,1.28,14.29-.87,21.32a74,74,0,0,0-2.41,11.39c-.71,2-.86,4.22-2.08,6.12-.45.71-2.18-.62-1.4.72,2.13,3.65.53,7.94,2.21,11.51,3.91,8.31,2.43,16.54.21,24.87-2.42,9.07.85,17.29,4.12,25.48,1,3.82,2.35,9.83-1,10.58-4,.89-4-5.47-5.5-8.82a9.69,9.69,0,0,1-.47-4.64c2-3-1.62-1.39-2-2.42-2.25-8.57-2.77-16.72-.48-25.81,1.77-7-.39-15.37-3.16-22.76a33.27,33.27,0,0,1,1.39-17.35c4.26-11.93,3-23.67,1.13-35.59A4.61,4.61,0,0,1,984,568.15Z" fill="#574c43"/><path d="M926,359.29c-2.55-1.81-2.38-4.82-3-7.36-.7-3-2.31-3.06-4.61-2.3,1-4.27,2.67-7.65,3.37-11.77a75.67,75.67,0,0,0,1.59-7.9c.07-.4.15-1.78.15-1.78,8.05.43,12.45-6,18.3-9.67,3.49,2.93,3.66,7.21,4.58,11.18-.06.78-.13,1.56-.2,2.34-.13,2.47.1,5.11-3,6.18-3.2-2.78-1.34-6.87-2.62-10.14-.15-.78-1.09.36-.41,0,2.12,5.13-.07,11.44,4.41,15.92a15.17,15.17,0,0,1,.81,6.78c-.22,1.6-.4,3.23-2.09,4.08-3.92-1.25-4.65-4.58-5.27-7.93-.06,2.88-1.05,5.24-3.7,6.44C931.2,354.77,928.79,357.25,926,359.29Z" fill="#4a372e"/><path d="M664.32,566.68c-4.28,1.49,1.2,3.39,0,4.71-6.94,2.6-13.51-.15-20.16-.48a6.53,6.53,0,0,1-3.19-1.46c-6.64-4.85-13.47-8.92-22.26-6.53a2.84,2.84,0,0,1-2.26-.38c-6.68-5.92-14.92-5-22.89-5.42-3.69-.2-7.06-.9-4.93-6,15.1,5.13,31.08,4.53,46.56,7.13C645.19,559.94,655.47,560.93,664.32,566.68Z" fill="#7b6f64"/><path d="M955.8,562.64l-.74.39c1.33-10.07-1.29-20.56,2.34-30.27,2.6-7,1.63-13.79.2-20.27-1.72-7.79-3.2-15.19-.75-23,.62-2,.11-4.29.12-6.45-3.91-3.12-1.53-6.3-.1-9.47,2.85.22,2.41,2.58,2.8,4.36.46,2.07-.28,4.32,1,6.27,3.39,2.11,1.92,5.49,2.2,8.41,0,6.92,1.23,13.71,2.43,20.48.49,2.71,1.13,5.36-.1,8-1.46,5.9-1.93,12-4.27,17.74.47,6.81-1.52,13.4-1.67,20.15A9.53,9.53,0,0,1,955.8,562.64Z" fill="#594f44"/><path d="M743.38,594.86c-3,.7-6.82,1.24-4.28,5.56.87,1.49,4.61.28,5.92,3.2-2.7,1.92-8.44-.09-7.95,6,.06.7-1.63,1-2.6.6s-2-1.17-1.54-2.15c3.18-6.14-1.66-6.11-5.29-7l-4.75-2.26c-1,2.22,3.79,2.53,1.29,4.77-2,1.82-3.55-.12-4.24-1.41-3.36-6.22-8.5-11.3-11.3-17.85C719.64,589.66,731.41,592.57,743.38,594.86Z" fill="#746960"/><path d="M960.62,400.75c-3,10,3.42,19,3.33,28.83-2-.53-.24-3.4-2.94-3.41-.39,12.38,2.81,24.75.53,37.14-.94,1.47.13,3.49-1.56,5.46A14.29,14.29,0,0,1,956.2,458c.53-7.51-.17-14.87-1-22.26.29-5.49,2-11-.6-16.43a20,20,0,0,1,0-7.89c.76-2.21.65-4.53.85-6.81s.49-4.3,3.31-4.61A3.52,3.52,0,0,1,960.62,400.75Z" fill="#452b21"/><path d="M961.89,582.06c-2.16-11.4,2.25-22.17,3.18-33.27.13-1.57,0-3.15.06-4.72,1.33-6.71,2.67-13.42,4-20.21,3.18,1.56,1.52,5.1,3.13,7.23.85,3.88-2.16,6.94-2.26,10.62-.25,6.78-1.44,13.5-1.36,20.31-3.54,7.18-.38,14.94-1.92,22.3-.27,1.33-.22,2.75-1.35,3.77C963,586.79,963.19,584,961.89,582.06Z" fill="#594f44"/><path d="M960.62,400.75l-1.55-.1c-1.94-2.87-2.13-6.31-3.13-9.49a8.34,8.34,0,0,1,.15-3.75c3.27-8.9.5-17.14-2.78-25.34a32.5,32.5,0,0,1,0-12.16c.44-2,1.38-4.19,3.44-.88.26,6.18,3.81,11.42,5,17.32a5.77,5.77,0,0,1,1.27,1.51c2.88,8.29,1.46,16.75,1,25.18-.6,1.83-.83,3.82-2.37,5.22C960.33,398.65,961.07,400,960.62,400.75Z" fill="#73442d"/><path d="M961.71,398.26c.11-1.62-.62-3.46,1.24-4.61,1.57.23,1.62,2,3.08,2.9a27,27,0,0,1,.77-15.68.8.8,0,0,0,.8-.43c3.8,1,.67,4.52,2.24,6.34,1.18,11-1.37,21.64-2.2,34.12a23.92,23.92,0,0,1-4.72-13.79C962.8,404.15,964.13,400.92,961.71,398.26Z" fill="#73442d"/><path d="M947.65,320c-.86.05-1.61,2.22-1.89,1.08-1.24-5-3.51-9.93-2.62-15.33.28-1.69,1.24-.87,2.06-.61C947.35,309.83,949.5,314.56,947.65,320Z" fill="#31271f"/><path d="M914,474.92c-.2,4.51,1.39,9.17-1.12,13.5C912.86,483.88,912.82,479.35,914,474.92Z" fill="#594f44"/><path d="M861.91,869.85c1-13.24,1.81-26.49,3-39.72.25-2.86-.07-4.85-2.65-6.46-2.94-1.84-4.39-1.63-6.25,1.76-4.73,8.6-6,18.66-11.77,26.76-5-2.54-10-14-8.78-20.11a23.82,23.82,0,0,0,.76-2.88c-2.77,9.52-5.85,19.06-13.06,26.54-4.05,4.19-5.22,4-8.32-1.07-1.76-2.85-3.78-5.53-5.76-8.21-5.87-8-7.07-16.58-4-25.74a76.17,76.17,0,0,0,3.28-17.91c.76-11.28,4.07-22,7.33-32.73.63-2.06,1.52-4.05,2-6.16a23,23,0,0,1,9-9.09c-4,1.33-5.68,5-8.53,7.21-2.67,2.06-5,2.91-8,1a4.07,4.07,0,0,1-1.06-1.27c-1.11-3.64-3.91-6.7-3.76-10.78a10.51,10.51,0,0,1,3.32-9.5,15.11,15.11,0,0,0,4.55-9.86c.28-2.46.65-5.08,2.72-6.92,1.78-3.7-.67-8.17-4.4-8-10.31.48-10.31.48-13.47-9.65a4.76,4.76,0,0,0-.87-1.51c-1.83-1-3.46.14-5.14.46-6.58,1.25-9-.61-9.33-7.42-.09-1.76.06-3-2.47-2.74-9.47.9-9.48.81-9.47-9.16-2.12.35-4.32,2.62-6.33,0a4.67,4.67,0,0,1-.32-5.55c1.63-2.77,3.78-5.84,7.3-5,5.05,1.19,10.48,1.85,14,6.7,3.31,4.51,7.53,4.94,12.42,1.91,6.75-4.16,8-3.65,9.67,4.12.38,1.74.69,3.49,1.22,5.18,1.81,5.84,3.4,6.76,9.48,5.44,4.32-.93,8.31-.9,11,3.43a6.92,6.92,0,0,0,1.56,1.77c1.15.92,2.82,1.64,3.86.92,5.55-3.84,13,4.36,18.49-3.79-4.63,2-8.43,2.74-11.24-1.74-.93-1.48-2.52-.45-3.62.46-3.5,2.93-6.15,2.15-9-1.31-5.4-6.65-5.57-10.57,0-18.55,4.07-1.38,8.54-2.28,9.12-7.74,4.41-5,3.79-3.84,9-1.1,8,4.2,8.79,10.72,8.85,18.08,0,5.33,5,4.85,7.84,6.79,2.31,1.59,3.41-.4,4.26-2.42.65-1.56,2-2,3.33-.79s2.27,2.7,3.71.51c1.12-1.72,3.11-3.41,1.6-5.82-1.24-2-2.32-3.87,0-5.7,1.9-1.48,4.08-1.32,6.22-.58,2.36.82,3.45,2.42,3,5-.56,3.33,1.7,6,2.46,9s2.83,1.57,3.93.09c2.61-3.49,5.18-5.72,8.89-1.32a1.56,1.56,0,0,0,1.6.55c6.23-1.75,12.89-1.78,18.89-4.25,2.68-1.11,5.49-3.23,1.27-6.48-2.86-2.2-1.74-5.93.87-5.77,6.33.37,11.52-3.83,17.67-3.32a5.33,5.33,0,0,1,1.11,3.14c.06,3.48.37,7.09-4.33,7.89,1.16,2.92,3.94,3.1,5.42,4.82a7,7,0,0,1,.9,1.27c.3.39.69,1.26,1.05,1,1.3-1,0-2.31.1-3.5-.49-4.08-2.37-7.9-2.24-12.09.26-1.28.65-2.45,2.19-2.7a5.33,5.33,0,0,1,2.48,2.81c1.86,5.67,4.41,11.21,3.74,17.43a13.59,13.59,0,0,1-1.42,3.57c-6,12.51-6,25.69-4.39,39-.68,3.06-.68,3.06-2.63,5.66,1.34,1.15,3.93.52,4.46,2.85a6.06,6.06,0,0,1-.89,4c-.43.85-.85,1.72-1.36,2.53-.86,1.35-1.9,2.56-3.71,2.09-1.58-.4-1.81-1.81-1.94-3.19,0-.4-.07-.76-.09-1.1,0,.19,0,.38,0,.63-.62,4.54-1.13,9-1.64,13.52a13.41,13.41,0,0,1,1.46-6.11c2.58-2,4.22-1.25,5.17,1.68.67,6.26,2.26,12.51.35,18.82-.06,3.91,1,7.62,1.92,11.37,1.87,6.65,1.21,13.6,2.5,20.32a6.44,6.44,0,0,1-1,5.06c-5.59,1.54-6.33,1.13-5.81-4.14.24-2.49-1-3.63-2.7-4.75-2-1.32-3.36-.21-4.59,1.22-2.05,2.38-4.32,3.27-7.27,1.49a2.55,2.55,0,0,0-3.69.62,3.19,3.19,0,0,0,.23,3.85c1,1.57,3.14,2.9,1.68,5.15s-1.77,6.5-5.24,6.56c-4.28.06-3.82-4.88-6.08-7.24.65,1.37,1.95,2.6,1.36,4.24a4,4,0,0,1-4.24,2.6c-3.62-.12-5.05,2-5.18,5.08-.19,4.23-3.85,7.46-3.25,11.83.29,2.06-.66,5.36,3.76,3.63,3-1.16,2.57,3.73,5.49,3.53-.1-1.61-1.84-2.39-2.07-3.89-.12-.78,0-2.2.46-2,4.25,1.41,6.9-3.15,10.86-2.68,3.19.38,4.4,1.47,2.38,4.54-3.84,5.83-7.36,11.7-16.12,10.32-3.17-.5-6,2-7.77,4.73-4,6.36-4.71,13.33-2.73,20.46,1.13,4.07,3.4,4.67,6.47,1.91,3.72-3.35,7-6.56,3.82-12.59a9.41,9.41,0,0,1,2.33-11.71c2.27,1.47,1.84,3.59,2.14,5.48.25,1.61-.2,4.28,2.47,3.66a4.22,4.22,0,0,0,3.25-5.46c-.24-1-1.1-1.62-1.61-2.46a4,4,0,0,1-.38-3.41l10.56-3.14c2.45,3,3.9,6.08-1.09,10.13,7.16-1.31,6.21,2.43,5.91,6-.34,4.08-.3,8.19,1.46,12.1,1.71-.62,1.31-2.08,1.78-3.09a6.75,6.75,0,0,1,1.25-1.8c2.76,4.3,6.88.54,10.13,1.76-.17,4.93.77,10-2.25,14.52-4.33,1.12-3.18-4-5.71-5-.61-.92-.9-.54-1.63.12-3.81,3.48-7,2.58-8.64-2.36-.93-2.86-.52-5.86-.67-8.8-.13-2.58.87-5.41-2.82-6.92-3.93-1.61-4.73,1.88-6.63,3.4-3.92,3.13-4.19,8.94-8.46,11.91-.66.45.14-.16-.51.29-11,7.6-11.14,7.55-16.51-5.28-1.28-8.8-1.18-17.26,5.52-24.31,1.74-1.83,2.69-4.13.11-6.12-1.86-1.42-3.78-3.09-6-.12-1.37,1.88-3.43,1.61-5.39.75-3.05-1.16-4.67-4-7.1-5.93-1.58-1.22-3.47-3.55-5.45-1.23-1.56,1.83-1.31,4.41.36,6.46.81,1,1.25.42,1,2.18a28,28,0,0,0-2.72,9c-1,4.13-.44,8.8-4.1,12-1.14,1-2,2.93-3.81,2s-.94-2.76-.53-4.27c.25-.92.69-1.83.26-2.84C864,868.3,863.57,870.66,861.91,869.85Z" fill="#3a3129"/><path d="M819.12,763.18c-2.75,10.37-5.4,20.77-8.31,31.1a19.26,19.26,0,0,0-.92,8c-1.88,11.39-7.4,22-7.28,33.81a5.94,5.94,0,0,1-1.13,3.27l-.18.94c-4.8,2-4.67-1.35-4.83-4.39,1-2.81.85-5.17-2.28-6.74-1.94-1-2.79-3.15-4.27-4.65-1.64-1.07-.55-3.15-1.66-4.41-.32-2.82.77-5.84-1.31-9l-8.28,7.84c-2.36,1.77-4.8.77-5.15-1.42-.86-5.48-5.51-8.38-7.94-12.88,2.24,4.14-.34,5.29-3.62,6-2,1.27-4.34,1.33-4.39-1.29-.1-6.38-6.45-7.81-9.08-12.19-1.41-2.34-4.39,0-6.63.5-1.62,1.18-4.11,2.66-4.83.15-1.68-5.79-8.16-8.39-8.81-14.64-.31-.65-1,.67-.32.23,2.32,4.62-1.89,3.77-4,4.71l-3.39,1.37c-3.08,1.67-5.25.31-5.58-2.64-.66-5.87-6.87-8.32-8-13.87-.27-1.25-.15.37-.32.54-1.8,1.83-4.13,1.66-6.37,1.87l-3.72,2.1c-2.71,1.59-2.94-.64-3-2.21-.06-1.89-.39-3.32-2.34-4a4.27,4.27,0,0,1-1.18-1.14c-1.5-3.44-3.47-6.74-3.08-9.41,0,.22-.37,1.66-.7,3.11-.82,4.08-4.78,3.74-7.44,5.25h0c-1.76,1.27-3.84,1.22-4.15-.94-.88-6.13-6.53-9.82-7.43-16.11-3.29,2.19-6.79,3.23-9.75,5.31l-6.72,3.79c-6.16-4.78-12.73-9.22-17.69-15.23-2-2.45-1-6.47-.22-9.76.52-2.29,1.34-4.52,1.76-6.84.49-3.07,2.12-5.6,3.82-8.11,10.64-14.18,22.34-27.15,38.18-36,6.86-3.81,7-4.18,9.51,3.33,1.84,3.63,4.78,4.88,8.73,4.11,3.28-.64,5.83.13,6.72,3.79a16,16,0,0,1,.24,2.3c.27,4.52,2.37,7.93,6.77,9.14,4.1,1.12,6.39-1.86,8.38-4.88,3.44-4.76,3.6-4.8,5.56-1.37a23.91,23.91,0,0,0-.33,5.21c.71,8.07,4.36,11.13,12.4,10,3.37-.49,6.29-.85,7.41,3.3a17.33,17.33,0,0,0,4,9c2.14,2.46,4.76,3.81,7.8,2.19,5.67-3,9.22-.26,12.43,4-1.52,5.63-4.81,7.56-9.78,5.74-6.66-2.44-10.09-1.27-13.72,4.72s-6.69,12.13-5.29,19.64c3.65-2.67,7.79-1.47,11.87-.81,2.35.39,2.94,2.08,3.09,4.33.39,5.93,1.05,6.33,6.8,5,.77-.18,1.52-.47,2.29-.62,5.53-1.09,7.59.57,7.86,6.35.32,6.79.53,6.62,7.11,7.15s12.39-1.93,18.66-2.49c3.74-.34,5.15-4.52,6.56-7.8,1.47-3.44,1.87-7.28,3.8-10.54.95-1.6,1.41-3.84,4-3.72l.14-.06C812.38,765.88,815.92,763.07,819.12,763.18Z" fill="#231f1a"/><path d="M639.65,721.74c-1.17,2.38-3.41,4.24-3.52,7.15-3.42,2.32-7.41,2.51-11.3,2.81s-5.69-2.13-6.48-5.56c-.39-1.73-.23-3.54-.78-5.24-.9-2.8-2.44-3.94-5.27-2.06a28.05,28.05,0,0,0-6.59,5.85c-2.78,3.48-5.87,3.64-9,.41a24.66,24.66,0,0,0-6.54-5c-6.1-3.06-10.52-7.64-12.5-14.21-.85-2.83-2.09-2.94-4.17-1.41-.63.47-1.26.95-1.93,1.37-4.92,3.17-6.56,2.87-9.21-2.29-1.36-2.67-3.06-4.55-6.11-4.88-1.15-.13-2.51-.29-3,1.13-.36,1,.38,1.85,1,2.59,1.37,1.54,3.29,2.05,5.1,2.83,3.28,1.4,5.28,3.49,3,7.26-10.36-2.61-21.33-3.39-30-10.83-3-2.6-4.24-5.45-2.5-8.75,2.61-4.93.26-6.42-4-8-5.14-1.91-10.3-4.11-14.11-8.37-2-2.23-4.13-5-4-7.72.22-4.09-2.36-5.37-4.82-7.16-2.94-3.11-6.55-5.62-8.56-9.57-1-1.85-3-3.62-.6-5.71,1.76-1.56,3.48-3,6.3-1.93,4.76,1.86,9.7,3.29,13.08,7.48,1.89,2.35,3.68,2.53,5.77.13,2.69-3.08,6.55-4.35,10.18-5.82,1.25-.5,4.23-.34,2.8,1.81-5.72,8.61-.72,14.93,3.83,21.47.89,1.29,2,2.47,2.93,3.69,1.26,2.21,2.8,2.66,4.66.67a11.39,11.39,0,0,1,4.26-3.09c3-1.17,5.68-.55,5,3.06-2.23,12.21,7.83,16.92,14.11,23.95,1.09,1.22,2.5.85,3.8.13a27.23,27.23,0,0,1,3.72-1.82c7.13-2.61,10.37-.52,11,7.1.22,2.69-.81,6.32,1.9,7.65,5.27,2.59,8.65,8,14.69,9.25a1.35,1.35,0,0,0,1-.49c2.3-2.65,3.29-6,4.54-9.11,8.52-14.13,17.38-28,28.16-40.59,7.7-10.63,20.5-15.69,28.57-26,2.28-2.89,5.7-4.82,8.93-6.72a10.55,10.55,0,0,1,8.52-1.31c1.82.52,4.42.34,4.67,2.8s-2.29,3-4.08,3.52c-10,2.87-16.71,10.11-23.61,17.14-.77.8-2.1,1.53-1.47,2.89s2,1.09,3.14,1.11c4.28.09,7.69.92,6.19,6.47-.15,2.82,1,5.45,1.22,8.21-2.27,9.13-5,10.3-12.42,5-2-1.42-3-1.92-4.82.07-2.65,3-6.45,4.5-9.39,7,1.41-.6,2.83-2.77,4.55-1.07,1.47,1.46-.29,2.77-1,4.1-3.48,6.22-10.4,9.59-13.45,16.18-.49,1-1.51,1.84-2,2.93-.92,2.11-2.9,4.22-1.63,6.59,1.5,2.79,4.09,1.37,6.36.91A5.33,5.33,0,0,1,639.65,721.74Z" fill="#3c342c"/><path d="M562.4,712.48c.06-3.53-.79-5.82-5.12-6.33-3.4-.4-5.85-3.15-6.56-6.72-.33-1.64.89-2.38,2.54-2.5,4-.29,8.6.15,9.64,4,2,7.46,4.62,6.72,9.45,2.5,2.35-2.06,6-6.54,6.8,2.1.52,5.64,5.29,10.26,11,12.88a17.53,17.53,0,0,1,7.44,5.62c2.31,3.27,5.08,3.16,7-.21,1.67-3,4.34-4.51,6.9-6.27,4.31-2.94,7.14-1.65,8,3.46,1.64,10,1.63,10,11.94,8.07a32.11,32.11,0,0,1,4.72-.22c-.21,4.67-3.2,8.84-2.42,13.73.28,1.72-.11,3.64,1.67,4.73,6,3.64,11.66,7.55,15.34,13.7a19.42,19.42,0,0,1-6.15,4.83c-2.33.35-3.06-1.35-3.76-3-1.65-3.86-5.24-6.18-7.31-9.69,2.22,6.66,2.22,6.66-3.47,7.47-5.94,1.47-12.06,2.52-18,1.51-14.27-2.42-15.16-3.92-13.43-16.59.94-6.91-1.17-6.83-6.49-6.66-7.81.24-15.75,1.78-23.44-1.43-8-3.35-9.61-6.71-7.81-15.18C561.5,719.11,565.24,716.25,562.4,712.48Z" fill="#352e26"/><path d="M467.37,596.29c.6-3.62-1.51-6.41-2.83-9.46-.91-2.06-1.4-4.36.36-6.09a4.88,4.88,0,0,1,6.57-.14c5.41,4.15,11.26,8.07,13.74,14.85.84,2.3,2.12,3.13,4.33,3.12a38.61,38.61,0,0,0,8.8-.84c2.6-.62,6.13-1.67,4.1,4.1-1.52,4.33-2.11,9.6,3.22,13.13,3.1,2.06,3.73,5,.12,7.62a4.94,4.94,0,0,0-1.93,3.58c1.51,2.16,3.72-1.45,5.55,1.08-4.59,2.83-3.62,11.1-11.37,11,.32-7.34-6.86-6-10.45-8.87a67.3,67.3,0,0,1-20.61-12c-4.39-3.59-4.05-6.31.84-9.75,6.22-4.36,6.21-4.35.82-9.46A10.11,10.11,0,0,1,467.37,596.29Z" fill="#3c342c"/><path d="M933.39,962.68c0,1.36,0,2.72,0,4.08,1.08,3.42,0,6-3.45,7-3.7,1-6.09-1.15-7.44-4.34A26.9,26.9,0,0,1,920.71,959a51.67,51.67,0,0,0,1.56,11.46c1.17,4.87.15,9.45-1.94,13.8-1.79,3.71-4.1,4.07-6.84,1-3.07-3.48-4.56-7.77-5.26-12.33-.38-2.59,2.9-3.83,2.37-6.46-6.82-2.22-7.92-4.33-6.53-11.33,1.09-5.45,1.82-10.87,8.72-12.33,2.88-.61,5.6-1.37,8.28.41,1.34-2.74-.19-5-.07-7.3.15-3.58-1.1-7-1.5-10.47-.24-2.13.2-5.19,2.07-4.63,4.67,1.4,7.39-2.58,11.25-2.9,2.59,2.07,1.55,4.81,1.4,7.41,0,.31-1.08,2.54.73.54a4.17,4.17,0,0,1,.83-.79,3.57,3.57,0,0,1,3.79,1.11c5.43-1.56,8.15.65,6.7,7-1.68,7.36-2.59,14.9-4.84,22.15-.63,1.3-1.1,2.71-2.35,3.6-4.48-2.76-2.28-7-2.31-10.6-1.51,2.81-.6,5.8-.93,8.66A8.34,8.34,0,0,1,933.39,962.68Z" fill="#2d2823"/><path d="M865.39,944.3l-6.49,7.36c-2.2-6.55-3.92-13.5-11.06-15.63-6.15-1.84-12.64-2.33-18.87.84-1.31-4.13,1-7.13,3.07-10.21,6.67-9.75,15.1-18.09,22.18-27.51,1.36-1.81,2.67-4.79,6-2.73,1.46,4,.9,8.09.36,12.15-.18,1.35-.56,2.66-.64,4-.36,6.84.56,7.54,7.24,5.41.75-.24,1.46-.58,2.21-.82,1.68-.58,3.21-1.52,4.84-2.21,3.67-1.55,5.38-.63,4.28,3.58a16.41,16.41,0,0,1-4.14,5.91c-4.11,3.73-4.32,8.88-5,13.82C869.08,941.09,869,943.81,865.39,944.3Z" fill="#2d201d"/><path d="M859.45,896c-6.9,7.86-14,15.61-20.62,23.66-2.11,2.55-3.77,5.4-6.79,7,4.12-7.6,8.61-15.13,14.41-21.42,8.5-9.23,12.61-19.55,14.86-32.1a25.75,25.75,0,0,1,.6-3.29c2-1.25,1.74-3.81,3.22-5.38,2,2.8,2,2.8,1,10.48,5.06-3.09,6.27-10.19,7.5-13.44a13.17,13.17,0,0,1,8.39-4.76c3,3.82,1.42,7.64,0,11.45-1.11,2.11-3.25,2.63-5.26,3.43-5.23,2.06-8.25,5.9-8.55,11.54-.22,4.22-2.23,8.43-.09,12.7.92,1.84,1.59,2.66,3.94,1.37,7.28-4,11.89-1.45,13.33,7,.21,1.28,1.48,2.43.48,3.86-1,1-2.57,1.18-3.56,2.07-4.06,3.64-7.8,6.52-11.18-.82-.87-1.89-2.63-.54-4.08.19-4.77,2.4-5.77,1.78-6-3.46a58.47,58.47,0,0,1-.33-6.48c-.12-5.14,1.4-10,2.29-14.69C861.3,888.19,862.85,892.91,859.45,896Z" fill="#564e46"/><path d="M969.81,866.26c.36-.93.73-1.85,1.1-2.78a3.39,3.39,0,0,1,2.36,2c1.11,3.7.08,7.46-.47,11-2.22,14.48-1.3,29.29-4.74,43.62-1.87,4.27-3.36,8.73-6.14,12.56a26,26,0,0,1-1.55,10.43,73.35,73.35,0,0,0-3.26,32.61c.81,6.82-2.31,12.6-4.91,18.52-3.09-.43-2.1-2.69-1.93-4.48a30.54,30.54,0,0,0-.48-9.91c-1.23-10.64.13-21.21.89-31.79.06-.79,0-1.85.53-2.26,6.39-5,2.94-13.36,6.53-19.3,3.79-11.18,5.36-22.68,6-34.44.33-6.2,2.57-12.24,2.57-18.59A9.66,9.66,0,0,1,969.81,866.26Z" fill="#2c2722"/><path d="M909.42,971.74a28.2,28.2,0,0,0,5.24,12.85c1.59,2.06,3.21,3.06,4.37-.6,1.49-4.68,2.9-9.08,1.56-14.28-1.25-4.82-1-10-.8-15.12,2.3,3.8,2.32,8,3.25,12.09.66,2.86,1.49,6.05,5.28,6.13,3.95.07,4.53-3,5-6,.51,7.31,5.29,13.25,6.56,20.36.48,2.74,1.16,5.28-.3,8.49-3.54-3.06-2.89-8.62-7.79-10.08-1.62,4.63-5.34,8.72-9.57,12.56-3.22,2.92-5.61,2.39-7.72-.88-2.44-3.77-4.75-7.65-5.17-12.29-1.19-2.85-1.16-6-2.08-8.89C906.72,974.29,906.57,972.1,909.42,971.74Z" fill="#564d45"/><path d="M801.48,839.31c-3.67-8.84,2.17-16.16,4.11-24,1.08-4.38.41-9.53,4.3-13,.13,7.75-2.19,15.09-4.11,22.45-2.11,8.1.24,15.09,4.51,21.75,1.27,2,3.12,3.65,4.05,5.76,3.11,7,5.22,7.34,10.47.16,5.74-7.85,8.1-17.3,11.87-26.4-1.31,9.9,1,18.71,7.51,26.24-2.8.46-3.07.47-4.31-2-1.65-3.31-3-6.77-6-10-3.2,6.34-6,12.55-11.15,17.5-3.75,3.64-5.73,3-8.13-.92-3-4.82-6-9.6-9.22-14.26C804.47,841.16,803.6,839.35,801.48,839.31Z" fill="#68625b"/><path d="M909.42,971.74c-3.09,4.38,1.61,8.79-.07,13.18-2.34-1.73-1.78-4.59-2.67-6.88-1.33-3.42-3.3-4.54-5.77-1.24-1.81,2.41-4.29,3.87-6.42,5.81-4.35,3.95-6.4,2.14-7.65-2.56a2.38,2.38,0,0,1-.26-2.57c2.6-3.93,4.71-8.21,11-6.46,3.53,1,2.92-2.31,2.59-4.31-1-6,.26-11.66,1.7-17.36a1.82,1.82,0,0,1,1.62-.35c1.83,1.76,1.15,4,1,6a30.89,30.89,0,0,0-.45,4.61c.21,2.9,0,6.72,2.05,8.15,2.26,1.6,4.47-2.12,6.93-3C915.15,968.83,909.81,969,909.42,971.74Z" fill="#70695f"/><path d="M887,977.49l-.12,2.56c-3.45-5-3.77-10.57-3.44-16.34.24-4.21-.12-7.73-6.07-5.88-3.67,1.15-4.92-1.89-6.68-4.32-2.11-2.9-.92-7.64-5.26-9.21,2.32-1.35,2.3-3.56,2.6-5.91.72-5.6.3-11.78,6.07-15.45,1.56,3.62-1.06,6.6-1.51,9.91a34.3,34.3,0,0,0,.11,15.74c.47,2.14,1.2,4.36,3.69,4.89s4.54-.84,6.11-2.76a31.33,31.33,0,0,1,2.14-2.83c1.76-1.73,2.7-.85,3.22,1.1a4,4,0,0,1,.08,1.76,71.22,71.22,0,0,0-.27,24.54A2.94,2.94,0,0,1,887,977.49Z" fill="#756a61"/><path d="M657.44,757.26c1.69-4.33,8.95-2.85,9.33-9.36.46,7.88,9,11.46,8.5,19.29-.16,2.63,2.19,1.44,3.5,1.81-3.71,3.25-7.15,5.66-9.42-1.45-.68-2.14-3.29-3.92-3.39-5.94C665.6,754.72,662.35,754.67,657.44,757.26Z" fill="#b0a8a2"/><path d="M970.08,948.22c-3.09,8.49-3,17.71-5.85,26.33-3.11-9.37-1.54-18.47.89-27.53a25.61,25.61,0,0,0,2-5.95c.43-2.17,1.86-2.07,3.38-.86C971.77,943,970.67,945.57,970.08,948.22Z" fill="#2c2722"/><path d="M700.22,775.27c1.6-2,4.92-.65,6.25-3.44.82-1.71,1.47-.11,1.73.59,1.45,3.92,3.51,7.28,7.38,9.35,1.44.78.9,2.33.62,3.69-.74,3.65,1.23,4.43,4.33,3.91-2.23,3.35-4.57,3-7.25.42-2.45-2.34-4.63-4.85-5.54-8.14C706.66,777.76,704.7,775.1,700.22,775.27Z" fill="#b2a8a2"/><path d="M678.77,769c.79-3.27,6.53-1.13,6.19-5.63,1.23-1.15,2.18-.6,2.77.62,1,2.12,1.8,4.36,3,6.38h0c4.86,1.81,2.09,6.56,3.71,9.61-2,3.17-3.88,4.65-5.74-.15-.84-2.17-2.24-4.15-2.92-6.35C684.69,769.86,682.65,768.11,678.77,769Z" fill="#b1aaa2"/><path d="M762,810.53c5-2,1-6.52,2.86-9.94,2.46,3.6,3.91,7.69,7.89,9.72,1.57.8,1.43,2.66,1.34,4.24-.2,3.32,1.42,4.65,4.62,4.3-3.75,3.87-6.25,3.43-9-1.87C768,813.66,766.92,809.86,762,810.53Z" fill="#b9b0ab"/><path d="M723.92,788c2.11-1.42,5.69-1.79,4.15-6.35,1.59,6.57,9.93,8.07,9.79,15.49,0,2.14,2.64,0,4,.41-3.82,4.26-5.21,4.06-8.22-.36C731.11,793.48,729.69,788.39,723.92,788Z" fill="#b6aea8"/><path d="M630,760.67c.93-1.68,3.08-.22,4.13-1.6-1.1-3-3.8-5.63-1.9-10.11,4.21,6,9,10.88,12.31,16.92-1.83,1.64-3.83,1.44-4.81-.57C637.66,761.05,633.87,761,630,760.67Z" fill="#a89d94"/><path d="M797.59,834.36c.31,2.54-1.7,6.53,3.71,5.89-.71,4.12-3.62,4.77-5.27,1.59-3.53-6.84-8-13.54-7.77-21.78l2.12,3.72C791.69,828.05,797.37,829.35,797.59,834.36Z" fill="#c5b9b3"/><path d="M945,966c.91,5.56,2.35,11.16-1.17,16.4-5-2.51-3.56-8-5.6-11.94.59-4-2.43-8.21.65-12.09.23-1.16,0-2.5,1.27-3.26,2.89,2.93,1.64,6.64,1.82,10s.18,6.64.27,9.76C943.3,972.12,940.14,967.82,945,966Z" fill="#4e4944"/><path d="M938.88,958.35c-.13,4,1.11,8.14-.65,12.09-1.63-2.58-1.86-6-4.84-7.76.37-2.18.75-4.36,1.12-6.54.56-.39,1.5.67,1.4.22-.91-4.37.09-8.62.61-12.89,2.69,2.55.89,5.84,1.45,8.74C938.35,954.24,937.31,956.49,938.88,958.35Z" fill="#4e4944"/><path d="M971.07,925.74c.8-.22-.33-3.15,1.5-1.42,2.76,2.6,5,5.72,5.62,9.71-.59,2.73,1.68,5.55-.49,8.9C973.81,937.51,974.21,930.9,971.07,925.74Z" fill="#2c2722"/><path d="M694.48,780c-3.77-2.23.2-7.43-3.71-9.61,3-.16,5.81-.21,3.89,4.24-.68,1.57.12,2.57,1.84,2.75C696.52,778.77,695.13,779.1,694.48,780Z" fill="#5d554f"/><path d="M664.73,669.8c1.69-3.43.95-5.24-3.21-4.9a12.33,12.33,0,0,1-3.54-.13c-1.52-.31-3.25-.68-3.73-2.45s1.36-2.13,2.29-3c4.37-4.27,8.32-9.13,13.26-12.62,4.67-3.3,10.37-5.16,15.93-7.8-9.3-5.16-15.84.58-20.39,6.29-7.79,9.77-20.3,14-27.12,24.54-.38.58-1.34.79-2,1.17-2.24-.14-3.54,1.5-5,2.69-2,1.6-4.48,2.44-6.58,1.28-7.31-4-11.37,1.63-16.49,4.8-6.27,3.89-10.63,9.53-15.3,15-.75.88-1.71,1.66-3.06,1-.81,0-.18-2.31-1.62-1.11-1.23,1-2.44,2.54-4,1.17-1.77-1.56-.38-3.32.54-4.76a93.43,93.43,0,0,1,12.91-15.37,123.06,123.06,0,0,1,20.9-16.44c4.46-2.83,9.21-5.2,12.37-9.87,2-3,6.35-2.8,9.24-5,4.5-3.5,9.2-6.76,13.75-10.22,2.46-1.88,5-3.92,8.48-3.43,3.27-.21,6.61.54,9.79-.49.56-1.84-.91-2.42-1.84-2.5-5.35-.46-6.72-2-3.79-7.33,2-3.71-2.74-3.87-5-4.73-6.2-2.41-6.45-2.88-2.76-8.6a2.36,2.36,0,0,1,3.51,0c3.39,2.28,6.77.68,10.21.11,2.12-.35,5.06-.5,2.61,3.17-1.08,1.63-.78,3.39-.91,5.14-.22,3.2.17,4.18,4.22,3.45s9.34-1.67,13,2.92c1.33,1.69,3.85,1.63,6.08,1.78,4.44.29,8.29-3.16,13-1.81.89.26,2.49-1.67,3.59-2.77.17-.18-.39-1.56-.92-1.88-1.82-1.07-4.08-1.29-5.54.15-3.1,3.06-6.6,3.32-10.38,2.21-3.12-.91-4.62-2.6-1.24-5.13,3.19-2.39,5.5-5.54,8-8.57,3.1,1.61,6.28,3.15,8.17,6.29,2.51,4.15,6.37,1.58,9.64,2,1.48,1.89,0,2.92-1.25,3.83-2.21,1.67-3.32,3.55-1.32,6,1.82,2.19,4.2,1.89,6.48.78,2.54-1.23,4.58-4.08,8-2.26,0,.78,0,1.56,0,2.34,1.52,1.7.42,3.69.23,5.59,2.8,0,3.51-2.86,5.71-3.22l3.51,0c.51.61-.1-.15.51.27,1.81,1.24,2,2.89,1.55,4.8.82-1.75,1.86-3,3.93-1.56a52,52,0,0,0,19,2.4c3.87,2.66,6.47,7.21,11.7,7.85,3,.19,5,1.87,6.36,4.42a7.46,7.46,0,0,0,7.14,4.11c2.07.44,4,1,5,3.2-1.24,7.64-.51,16-8.21,21.22a2.24,2.24,0,0,0-.42,3.61c1.57,1.54,3.33.93,4.84-.2,1.93-1.46,1.71-3.88,2.43-5.89,1-2.78,2-5.58,4.21-7.72,1.48-.64,2.86,0,4.26.31,2.45.91,5.22.35,7.57,1.65,1.94,3.38-.43,5.93-1.78,8.62-1.83,3.67-.53,14.88,2.25,17.69,2.09,2.1,3.75.48,4.93-1,2.71-3.4,4-7.58,5.82-11.5.72-1.59-.24-3-1.48-4.14-1-1-3.13-1.36-2.19-3.55a4.71,4.71,0,0,1,2.56-.92c5.5,1.48,6.77,3.48,6.85,10.77-1.12,3.1-2.33,6.17-3.34,9.3-1.77,5.48,4.27,6.55,6.18,10,1.38,2.52,4-.72,5.58-2.29,2-2,3.59-3.32,5.06.4s3.5,5.15,7.09,2.07c1.64-1.4,3.93-1.81,5.08.44,1.22,2.4-1.59,2.57-2.76,3.67-3.38,3.14-7.14,1.29-10.76,1.62-7.46.67-13,.32-17.72-6-.88-1.17-4.6-.72-6.75.62-4.89,3.07-7.23-.09-9.24-3.78-.64-1.17-.66-2.66-1.16-3.92-1.32-3.28-.12-8.24-3-9.83s-5.31,3-8.18,4.34c-3.41,1.66-10-.89-11.62-4.32-2.72-5.72-14.73-7.77-18.39-3.2-1.53,1.93-2.31,4-.34,5.76s2.94-.5,4-1.86c.58-.77,1.23-1.72,2.39-1.08s.55,1.77.87,2.63c1.08,3-3,6.3.21,8.87s5.82-1,8.76-1.38c3.48-.47,3,2.35,2.68,4.47-.79,6.31,1.31,8.07,7.45,6.61,2.21-.53,4.45-3.29,7-.52-3.36,5-8.1,6.73-13.94,5.82-.67-.39.15,0-.56-.12-4.76-.84-3-7.83-7.23-8.18-3.88-.32-7.37-.54-10.25-3.36-1.32-1.3-3.06-1.67-4.79-2.1-2.62-.66-5.36-2.12-5.45-4.74-.24-6.7-4.14-4.88-7.87-3.94a8.68,8.68,0,0,1-4.32-.4c-3.88-2.15-4.23-5.56-3.45-9.43.43-2.15,1.72-4.66-1.79-5.59a20,20,0,0,0-5.85-.94,12,12,0,0,1-3.51-.51c-1.16-.37-2.85-1.12-2.76-2,.71-7.06-9.71-5.7-9.26-12.42.22-3.24-1.55-3.57-4.5-4.43-7.18-2.11-14.81-3.28-21.25-7.48-1.07-.7-2.06-1.37-3.24-.81-5.12,2.4-11.16,2.91-15.1,7.73-3.13,3.83-7.67,6.18-11.51,10,2.35,1.62,6.25,1.52,6,5.45C667.9,668.7,667.64,670.78,664.73,669.8Z" fill="#493f36"/><path d="M526.74,641.07a24,24,0,0,1-2,2.83c-8.26,8.74-8.28,8.74-15.22-.73-3.7-5-.38-8.77,3.07-11.59,2.36-1.93,3.15-4.11,4.28-6.58,1-2.13-.08-2-1.2-3.25-3.37-3.62-5.64-8.15-9.44-11.52-1.39-1.23.17-3,1-4.24,5.19-8,5.21-8-1.77-14.41.93-1.45,2.51-1.88,4-2.51,11.69-3.07,23.2-6.88,35.2-8.7,5.08-.07,9.79-2.5,14.9-2.36,2.85.35,5.4-.75,8-1.71,1.6-.25,3.16-.26,4.48.9,4.84.86,9.44-1.45,14.24-1.07,1.1.37,1.79,1,1.3,2.26,1.3,2.46-.39,3.59-2.12,4.63-3.17,1.9-3.68,4.28-1.42,7.22l.21.8c-1.65,4.1-5.09,1.28-6.72,2-1.7,0-.65,1.3-.92.56-.09-.23.06-.38.45-.34,2.29.23,5.32-1,5.15,3.39-.11,3.14,2.88,3.27,5.12,3.71,4.5.88,7.8-1.94,11.37-3.88,1.57-.36,3.07-.37,4.26.94a10.2,10.2,0,0,0,12.36-.55c5.81-4.79,11.61-2.1,17.41-1.48a4.71,4.71,0,0,1,4.14,4.4c0,2.71-2.69,2.2-4.59,2.36a43.3,43.3,0,0,1-10.43.09c-2.82-.44-5.84-.61-8.13,2.07s-5.7.1-8.36,1.39c-2.77,2.52-6,.87-9.24.83,1.9,5.91,8,7.15,11.57,11.06-.13,2.46-1.6,3.24-3.89,3.49-6,.66-12.13,1-18,2.41-4.84,1.12-9-4.64-11.85-2.51-3,2.23-4.93,5.27-9.18,6.48-6.5,1.84-13.25,3.9-19.09,10.06,3.72-.55,5.24-3.43,9.59-2.51-5.9,2.65-8.77,6.93-12.88,9.78-3-3.1-3.61,2.71-6.33,1.1,2.87-4.73-.21-4.92-4.13-4.74-1.27.06-2.58-.73-3.88-1.13.88-4,4.46-5.76,7.14-8.13,10.3-9.1,22.51-15.35,33.09-21.86-6,.87-13.25,1.39-20.35,2.68-1.88.34-.94.65-1,1.78-.16,2.56-2.86,3-4.86,3.42-5.73,1.3-10.17,4.61-14.74,8.06s-5,6.93-2.53,11.57A39.14,39.14,0,0,0,526.74,641.07Z" fill="#483f35"/><path d="M551.77,661.38c-1.59-2.66-1.91-5.73-5.06-7.92-2.78-1.94-4.28-6.33-.38-9.42,4.32-3.42,8.08-7.48,14.26-8.4,6.67-1,12.31-5.37,19.23-6.67,6.16-1.16,10.38.85,14.8,4,2.42,2.91,5.63,5.07,7.86,8.16.11,7.61,1.22,15-5,21.68C591,669.85,586,678.3,580.19,686a25,25,0,0,1-3.11,3.54c-2.15,1.91-3.87,2.32-5.56-.75-1.79-3.26-3.63-6.63-6.21-9.3-3.48-3.59-2.39-6.85.18-9.92a27.65,27.65,0,0,1,9-7.49,16.6,16.6,0,0,0,7.73-7c1.51-2.05,4.18-2.12,6.06-3.57,2.88-2.23,4.1-4.92,1.78-8.12s-7.71-4.21-9.64-1.73c-2.16,2.77-6.73,1.87-7.83,5.75C566.32,653,559.88,658.45,551.77,661.38Z" fill="#6e635a"/><path d="M601.57,641.27c-2.56-2.56-6.77-3.72-7-8.26a33.65,33.65,0,0,0,14.31-7.15,12.81,12.81,0,0,1,9.37-3.57c3.19,4.07-2.06,6.61-1.84,10.14.26,4.22,2.67,7.21,5.71,9.79s5.94,2.74,9.06.38a78.25,78.25,0,0,1,22.12-15.08c2.61-1.24,5.43-3,7.68.69l1.25,2.35c-8.33,4.39-15,11.25-23,15.93-11.22,6.55-21.17,14.78-31.67,22.24a83.36,83.36,0,0,0-23.84,26.32c4.13.59,3.56-4.44,6.67-4.24l-.64,4.91c0,.27-.08.55-.11.82-3.16,6.48-2.66,7.51,2.28,12.38,4,3.93,7.63,8.22,12.09,11.68-2.52,3.69-5,1.1-6.83-.47-3-2.53-5.55-5.45-9.57-6.64-2.66-.8-4-3-3.81-6,.08-1.18,0-2.37,0-3.55-.16-7.73-3.2-10-9.82-6-5.41,3.29-8.44,2.43-11.36-2.55a6.34,6.34,0,0,0-2.55-2.43c-8.14-3.83-9.32-11-8.74-18.69.24-3.24-.49-3.64-3-2.28a30.32,30.32,0,0,0-5,3.12c-2.94,2.44-4.14,1.22-4.67-1.91,2,1.2,3.7,1.35,4.75-1.18-.38-1,.17-1.67.85-2.28a9.34,9.34,0,0,1,3.15-1.54c5.36-1.64,7.17-.37,7.5,5.24.29,4.77-.93,9.93,3.29,13.73,2.77,2.48,5.67,4.82,8.33,7.42,1.56,1.35,3.07,1.26,4.84.18A54.63,54.63,0,0,0,588,679.87c4.53-6.38,9.26-12.69,13-19.56C604.17,654.32,608.34,647.83,601.57,641.27Z" fill="#40362d"/><path d="M601.57,641.27c2.72.63,3.1,4,5.73,4.82,1.27.39,1.15,1.28.7,2.32a136.41,136.41,0,0,1-26.47,40.89c-3.19,3.36-7.71,4.54-10.82,7.94-1.7,1.86-3.6.53-4.69-1.52a60.58,60.58,0,0,0-7.18-7.69c-3-2.7-6.18-5.88-3.43-10.66a47.09,47.09,0,0,1,2.71-3.87c1.54-2,.24-4.22.34-6.3.17-3.65-3.1-1.45-4.76-2.06-1.08-.41-2.34-.37-3.13-1.41l1.2-2.35,20.17-14.2c4.39,1.72,8.4,3.92,10.61,8.39.9,4.49-3.43,6.6-5.59,7.12-5,1.21-7.19,5.22-10.53,7.91-2.17,1.74-3.49,4.77-.09,8,3.23,3.11,5.25,7.47,8,11.54,5.92-4.81,9.29-11.86,14.15-17.69,3.78-4.53,6.44-9.85,10.64-14.1,2.26-2.28,3.61-5,1.36-8.49C598.57,647,604,644.55,601.57,641.27Z" fill="#493f36"/><path d="M587.46,578.39l-1.3-2.26c-1.68-3.42.2-5.81,3.11-4.58,9.14,3.86,17.92.23,26.82-.25A24.46,24.46,0,0,1,628,573.49c3.61,1.69,7,3.64,10.52-.27,1.05-1.17,2.68-.81,3.82.09,4.56,3.54,9,7.32,15.88,3.93-3.76,3.9-5.65,7.4-2,12.47-5.87-8.77-13.06-9.76-21.41-5.3-2.37,1.19-4.72,1.82-7-.08-5.85-.55-12-5.87-17.37,1.23-1.25,1.65-2.87.42-4.35.07C599.56,584.07,593.74,580.66,587.46,578.39Z" fill="#73675a"/><path d="M661,628.21a5,5,0,0,0-6,0c-6.9,4.25-15,6.69-20.12,13.57a4.31,4.31,0,0,1-3.52,1.81c-.33-4.42,3.4-7.21,4.52-11.53-7.06,1.66-14.08,3-21.17.86-1-4.25,4.64-6.34,3.55-10.65,3.35-3.37,6.63-5.07,11.85-2.88,3.6,1.51,8.09.46,12.25,0,3.39-.41,6.35-2.16,10.1-1.77C659.49,618.31,662.23,621.43,661,628.21Z" fill="#493f36"/><path d="M488.8,559.51c-7,2.46-7.74,2-8.74-5.14-.18-1.31-1.19-2.49-1.57-3.79-.78-2.65.95-5,3-4.76,6,.58,12.14-2.23,18,.15,3.15,1.28,5-1.31,7.71-1.59,12.72-1.3,24.32,3.51,36.37,5.72,7.73,1.41,15.12,4.19,22.46,7,4.07,1.51,8.59,1.83,12.16,4.82-15.17-2.58-29-10.54-45.46-11.36,3.77,3.38,7.24,4.92,11.72,4.5,4.65-.45,8.93.6,12.08,4.45H529.34c-1.36,0-2.77.14-3.75-1.13.65-1.44,3.94-1.19,2.64-3.76-1-2-3.1-3.79-5.2-3.17-6,1.73-12.12-2.42-17.91.92-.49.28-1.39.42-1.67,0-3.76-5.33-9.27.15-13.88-2.75C493.73,553.78,491.29,556.64,488.8,559.51Z" fill="#695d51"/><path d="M509.13,590.43c-1,1.23-2.42,1-3.73,1.15a11.24,11.24,0,0,1-5.9,1.14c-4.71-4.59-5.66-11-7.81-16.75-.78-2.1.83-3.68,3.21-4,1.53-.21,3.18.48,4.58-.62l8.29,0c1.89-1.41,4-1.18,6.14-.91s4.32.88,5.79-1.42c2,.25,4.26-.8,6,1.11,4.24,1.15,8.48,2.41,13,1.3,5.71-.28,11.1,1.79,16.71,2.29L569.74,575a2.22,2.22,0,0,1,2.18,2.24l-4.69.08c-2.58.19-5.08.59-7.16,2.31-5.36-.58-10.13,2.71-15.46,2.33-9.05-5.22-18.29-9.24-29.1-5.59a11.47,11.47,0,0,1-7.57.21c-2.44-.87-4.19.17-5.49,2.22-1.39,2.21-.83,4,.9,5.8C505.26,586.54,507.41,588.28,509.13,590.43Z" fill="#6a5e54"/><path d="M671.72,580.87c7.47,3.78,9.25,13,16.7,17.09,3,1.68,5.66,3.06,9.11,3,2,0,4.6-1,5.13,2.31-4.89,1.36-7.17,5.87-10.63,8.94-2,1.77-3.87,3.42-6.7,2.86-2.62-.5-6.15-.28-7-3.22s2.37-4.19,4.38-5.58c2.16-1.48,5.3-3.58,3.62-5.63s-4.93-4.46-8.87-2.65c-2.29,1.06-4.79,4.26-7.29,2-2-1.82,1.09-4.16,1.53-6.38,1.1-5.53-.13-7-5.95-6.91-1.3,0-2.76.46-4.29-1.27C665.27,584.44,667.82,581.34,671.72,580.87Z" fill="#493f36"/><path d="M662.23,606.93l-3.51,0c-5.24-1.26-10.53-2.37-15.39-4.8-1.29-.64-3.44-.84-3.05-3a3.65,3.65,0,0,1,2.91-2.68c6.55-1.36,13.26-2.65,19.75-.5,4,1.34,5.26,6.19,6.41,9.47C670,607.4,664.76,606.3,662.23,606.93Z" fill="#766a5e"/><path d="M602.84,597.41l-4.73,0c-5.68-.53-12,.28-14.2-7.17v0c6.46-5.24,13.77-2.07,20.69-1.78,2.54.1,5.89,2.2,5.65,5C609.92,597.5,606,597.33,602.84,597.41Z" fill="#73675a"/><path d="M607.57,617.58a20.51,20.51,0,0,1-13.25-10.1c-.59-1-1.28-2.2-.32-3.27s1.77-.05,2.55.46c2.73,1.81,5.79.69,8.69,1,.85,1.88,2.42,2.37,4.35,2.39,2.68,0,5.77-.67,6.32,3.47s-2.66,4.72-5.42,5.64A14.68,14.68,0,0,1,607.57,617.58Z" fill="#706458"/><path d="M544.63,670.84,543.45,672a5,5,0,0,1-4.76-4.74,8.74,8.74,0,0,0-4.75-7.11c-3.1-4.76.29-7.1,3.56-9.48.41,5.17,6.11,8.2,5.54,13.93-.13,1.37,2.42,1.47,4,1.49C547.9,668.53,545.2,669.15,544.63,670.84Z" fill="#493f36"/><path d="M544.63,670.84c-.16-2.06,1.71-3.09,2.38-4.72l2.37-1.22c10,.22,11.44,2.87,7.14,13.05-2.8,4,0,6.66,2.63,8.8,3.09,2.49,5.6,5.2,6.87,9-2.88-2.35-5.79-4.67-8.64-7.05-4.63-3.87-4.62-9.57-4-14.42,1-7.42-2.54-5.76-6.6-4.37A22.94,22.94,0,0,0,544.63,670.84Z" fill="#433a30"/><path d="M556.52,678c.18-1.16.29-2.33.56-3.46,1.51-6.37,1-7.16-5.72-8.48a7.39,7.39,0,0,1-2-1.11l1.19-1.17c3.74.54,7.72-1.16,11.29,1.14C558.93,668.77,561.58,674.92,556.52,678Z" fill="#483f35"/><path d="M627.84,584.33l7,.08a15.19,15.19,0,0,1-17.14,1.38C620.93,583.2,624.57,584.91,627.84,584.33Z" fill="#483f35"/><path d="M961.89,582.06c2.77,1.09,3,3.63,3.49,6-3.58,3.63.31,7.62-.57,11.56-2.1,9.33-5,18.6-4.4,28.37a4.74,4.74,0,0,0,.37,5.05c3.22,5,2.48,10.1.89,15.34-2.11,6.92-2.75,13.49,1,20.47,2.75,5.1.89,11.21,0,16.84a1.64,1.64,0,0,1-2.1,1.49c-.4-1.13-.79-2.26-1.18-3.4-4-4.11-3.1-9.91-5.1-14.72a33.46,33.46,0,0,1-.78-17.53,23.21,23.21,0,0,0,.27-9.41c-2.19-10.55-.49-20.77,1.9-31,4.49-4.19,5-9.35,3.72-15C959,591.26,960.77,586.72,961.89,582.06Z" fill="#594f44"/><path d="M988.15,822.55a60.39,60.39,0,0,1-.16,7c-1.19,8.57,4.71,15.7,4.74,23.94,0,3,3.63-1,3.09,2-3,2.72-4.08,5.89-2.41,9.74a1.7,1.7,0,0,1-1.14,1.38,3,3,0,0,1-2.16-1.69c-2.51-6.11-.69-13-3.44-19.07-.3-1.92-.34-3.88-.83-6-.12,1.59,1.6,3.59-1.47,3.8Q983,834.32,981.71,825c-1.27-1.44-.92-3.19-.93-4.87.33-2.31.3-4.75,1.06-6.91,2.52-7.16-2-14-.38-21.43,1.8-8.12,1.51-16.75,4.35-24.8,2.41.43,2.29,2.48,2.41,4.12.31,4.32.77,8.76-.25,12.93-1.32,5.4-.17,10.52.46,15.74-2,7.35-4.06,14.72-3.57,22.45.2,3.08,1.16,0,1.77,0A1.66,1.66,0,0,1,988.15,822.55Z" fill="#3a3129"/><path d="M956.8,733.3a15.43,15.43,0,0,1-1.35-10.59c1.58-7.51,2.57-15,.38-22.7-1.61-5.65,1.13-11.51.41-17.41l1.67,4c4.73,20.46,5.08,41.18,2.87,61.9-.78,7.26-1.87,14.27-.32,21.55.49,2.31-.69,5-1.1,7.49-4.55-3.62-2.36-8.41-2.11-12.77.72-12.26.71-24.56,1.26-37.06Z" fill="#3a3129"/><path d="M965,780.3c-3.31,1.65-2.4,4.94-2.26,7.35.78,13.25-1,26.32-2.11,39.45a82.06,82.06,0,0,1-1.51,8.21c-2.85-1.35-3-3.94-2.73-6.11a394.8,394.8,0,0,0,2.89-46.48c1,.77,1.49,1.11,2.37-.53,1.49-2.78.59-6,2.2-8.66C965.92,775.5,966.64,777.7,965,780.3Z" fill="#3a3129"/><path d="M984.37,673.2c1.19.38,3.85-2,3.23,1.72a45.83,45.83,0,0,0,1.69,17.32c1.91,7.19.28,13.41-2.94,19.61-1.47.7-2.82,2.67-4.58,1.21-1.12-.92-.9-2.46.37-3.52,3.16-.55,3.1-3.25,3.24-5.42.2-3.13.22-6.46-1.46-9.22-5-8.29-3.66-17.94-6-26.79a3,3,0,0,1,1.14-3.5c1.16,4.76,2.28,9.32,3.51,14.33C985.26,677.06,984,674.93,984.37,673.2Z" fill="#473e34"/><path d="M982.14,709.54c-1.24,5.76,2.54.65,3.51,1.61.47,8.45,4.78,16.66,1.55,25.33-.62,4.09-.2,8.52-3.84,11.61a1.79,1.79,0,0,1-1.82-.36c-.48-3.57-1.6-7,.81-10.61,1.36-2.06,1.18-5.17-.17-7.87-4.29-8.58-3.15-17.49-1.28-26.41h.82Z" fill="#3a3129"/><path d="M965,780.3c-.39-2.26-.77-4.51-1.15-6.77.64-2.17-1.09-6,2.43-6.08,3.31,0,4.14,3.88,3.49,6.34-2.38,9.07,1.07,18,0,27-1.68,3.21.5,7.38-2.66,11C966.42,800.79,965.72,790.55,965,780.3Z" fill="#36322c"/><path d="M967.6,675.28c-2.69-5.73-3.69-11.32-.12-17.26,2.66-4.42,1-9.55,0-14-.46-2.11-.88-4.39-1.37-6.58l1.22-3.78c2.08,1.56,1.06,4.34,2.44,6.18,5.09,10.53-.49,21.16.28,31.73C970.19,673.41,970.21,675.21,967.6,675.28Z" fill="#594f44"/><path d="M964.23,845c-.13-1.55-.27-3.1-.47-5.45l-2.69,6.35-1.45-.41c1.77-6.75,3.14-13.63,5.44-20.19,1.55-4.43.64-9.82,4.86-13.26a107.63,107.63,0,0,1-3,23.7c-.56,2.26-1.41,4.55-.57,7a1.7,1.7,0,0,1,.38,2.39A1.84,1.84,0,0,1,964.23,845Z" fill="#3a3129"/><path d="M979.46,866.39c.16,4.87.76,9.81-2.17,14.21-3.26-.23-2.46-2.92-2.95-4.82-.84-3.57-.49-7.27-1.17-10.86,0-.09-.36-.19-.53-.16s-.3.22-.45.34l-1.28-1.62c.5-3.78,1-7.58,1.52-11.35.16-1,.73-1.19,1.15,0a6.92,6.92,0,0,1,.21,1.12c.73,1.34-.26,3.62,1.44,4.18C980,859,979,862.94,979.46,866.39Z" fill="#2c2722"/><path d="M964.23,845h1.92c4.1,4.77.74,10.28,1.54,15.37a.81.81,0,0,0-.13,1c-1.31,1.83-.42,4.47-2.24,6.11-1.14,1-2.21,2.18-3.92,1.1a4.18,4.18,0,0,1,.1-3.46Z" fill="#2a2522"/><path d="M984.41,885c.77-4.36-1.85-8.39-1.25-12.73.58-1.94.25-4,1.1-5.94-1.5-2.61-.79-5.47-.92-8.23,1.21-2.19,2.27-1.43,3.16.22a19.93,19.93,0,0,1,1.28,3.72,77.19,77.19,0,0,1,1.94,16.45c-.33,2.08-1.52,3.89-1.82,6C987,886.37,986.07,888,984.41,885Z" fill="#2c2722"/><path d="M963.79,745.68c.85-10.36,4.14-20.47,3.65-31.9C971.77,722.8,971.43,726.18,963.79,745.68Z" fill="#3a3129"/><path d="M976.11,795.1c-.47-.3-1.35-.6-1.35-.9,0-9.27-1.14-18.61,1.82-29.15,3.24,11.09.29,20.59-.57,30.13Z" fill="#36322c"/><path d="M979.06,652.28,977,656.9A49.65,49.65,0,0,0,973.37,638c-.27-.63.88-2.57,1.64-2.75,1.42-.34,2.5.72,2.63,2.38.35,4.46,2.63,8.6,2.26,13.18C980,651.51,979.28,651.76,979.06,652.28Z" fill="#594f44"/><path d="M965.28,699.27v-18c1.86-.08,1.14,2.17,2.32,2.66a48.78,48.78,0,0,1,1,14.85c-.05,1.07-.42,2.44-1.8,2.56S965.75,700,965.28,699.27Z" fill="#473e34"/><path d="M980.39,591.19c.1,3.85,1,7.72-.34,11.53-2.91-.8-.71-2.92-1.52-4-.88,1,.91,3.24-1.17,4.48-1.8-.87-1.19-2.35-.9-3.74.18-4.65.34-9.3.56-13.94.06-1.44-.53-3.31,1.94-3.42C980.93,584.87,980.47,588.06,980.39,591.19Z" fill="#574c43"/><path d="M974.32,677c3.82,6.91,6.28,13.81,1.26,20.52C972.94,691.26,975,684,974.32,677Z" fill="#473e34"/><path d="M971.21,594c0,7.4,1.63,15-2.73,23.24C965.61,608,971,601.36,971.21,594Z" fill="#594f44"/><path d="M976,795.18c.45.6,1.32,1.22,1.3,1.81-.35,8,.08,16.15-4.72,23.34q1.77-12.62,3.52-25.23Z" fill="#36322c"/><path d="M982.26,850.8c-.26.7-.58,1.35-1.51,1.25-1.49-5.8-4.81-11.24-3.23-18A79.31,79.31,0,0,1,982.26,850.8Z" fill="#3a3129"/><path d="M977,546.09c2.94,5.7-1.5,9.78-3.14,14.48.89-4.85-1-10.31,3.17-14.43Z" fill="#594f44"/><path d="M976.38,611.86c0,4-1.29,7.95-.56,12,.22,1.2-.36,2.3-2,2-3.32-5.4,1.35-10.18,1.21-15.33C976.23,610.23,976.52,610.81,976.38,611.86Z" fill="#564e45"/><path d="M966.4,631.74c-1.94-1.62-2.32-3.85-2.44-6.18.23-2.48-.52-5.18,2-7.33C969,622.66,965.65,627.31,966.4,631.74Z" fill="#594f44"/><path d="M981.54,747.73l1.5.11a2.06,2.06,0,0,1-.11,3.26c-1.81,3.44-.54,7.66-2.63,11.17-2.61-4.29.81-8.07.45-12C981,749.39,981.28,748.56,981.54,747.73Z" fill="#3a3129"/><path d="M954.24,571.86l.84-1.45c2.41,4.83,3.85,9.62-.78,14.53C954,580.37,956.6,576.05,954.24,571.86Z" fill="#594f44"/><path d="M971,702.84c2.42,5.19,3.5,9,3.24,13.21C973.19,712.12,969.38,709.09,971,702.84Z" fill="#49433d"/><path d="M972.2,579c.29,4.47.78,8.23-1.15,11.93C968.82,587,968.86,586.57,972.2,579Z" fill="#574c43"/><path d="M978.21,563c.68,2.89-.27,5.55-1.13,8.23-1.47.77-1,3-3.57,3.69C974.76,570.62,975.31,566.44,978.21,563Z" fill="#594f44"/><path d="M973.71,840.18c-3.77-3.48-3.08-6.77-.45-10.24Z" fill="#3a3129"/><path d="M941.21,675.6c-5.23,1.57-9.68,6.26-16,3.78-1.06-.41-2.18.81-2.47,2.07a1.7,1.7,0,0,0,1.31,2.25c1.78.49,4.85.46,3.64,3.19s-2.58,6.52-6.87,6.42c-2.42,0-5.24-1.35-5.91,2.59-.06.35-1.12.92-1.4.78-3.93-2-7.43-2.25-10.95,1.15-.94.91-2.18-.65-2.75-2.15-1.29-3.4-3.12-3.46-4.71-.18a8.43,8.43,0,0,1-4.1,4c-1.4.68-3.58.74-3.43-.59.52-4.57-4.75-7.75-2.7-12.43,1-2.27-.64-2.86-2.09-3.35-2.08-.7-4.41-1.18-5.91,1-1.07,1.56.38,2.44,1.55,3.23s3,2,1.48,3c-2.93,1.93-2.27,6.67-6.21,7.41-3,.57-1.69-3.06-3.35-4-2.58,1.06.89,5.07-2.93,5.42-2.63.24-4.39-1.8-6.37-2.18-6.6-1.26-6-5.58-6.61-10.56-.51-4.3.64-10.73-6.7-11.61a2.1,2.1,0,0,1-1.32-1.13c-2.08-4.55-4.54-3.28-7.14-.53-2.6,1.82-5.44,3.06-7.58-.25-1.86-2.9-.51-5.58,1.93-7.73,1.75-1.55,3.5-3.11,5.39-4.48,2-1.76,4-1.31,5.89.13,5.09,3.79,11.17,4.19,17.13,5.23,2.85.5.86-2.21,2.19-2.41.39,0,.78.06,1.17.08,4.26,2.21,5.86-1.72,8.35-3.6,1.31,0,2.72.22,3.58-1.17,3.56-1.7,6.16-5.22,10.58-5.29-10.08-.07-10.08-.07-9.42-4.22a3.07,3.07,0,0,0,0-3.55c1.65-1.12,3.27-.63,5.05-.16a5.17,5.17,0,0,0,6.15-2.38,4,4,0,0,0-.77-5.37c-1.6-1.54-1.86-2.53.32-4.07,2.93-2.09,1.83-4.66-1.56-6.71-5.86-3.57-12.24-2.38-18.89-2.7,1.13-2.09,2.76-2.26,4.43-2.28,2.17,0,4.34,0,6.51,0,2.37,0,4.84.15,6.41-2.09.5-.71-.08-1.58-.78-2-2.62-1.45-4.16,0-6.07,1.79-1.74,1.62-3.67,2.16-4-1.87-.25-3.18,2.38-8.67-4.67-8.23.66-2.47,2.32-1.71,3.53-1.86,1.43-.17,2.82-.26,3-2.12.11-1.36-.63-1.93-1.82-2.58-3.27-1.8-1.67-2.87.78-3.6,3,1.07,4.1-.36,4.81-3.16s.73-6.3,4.3-7.38c1.47-.45,4.32-.1,4.16,1.11-.89,6.57,10.58,6.94,7.25,13.39-2.7,5.22.8,4.53,3.25,5.52,2.49-.57,3.4.19,3.58,3,.41,6.53,4.6,8.95,10.85,6.66,1.84-.68,4.15-2.06,5.41-.1s.4,4.55-1.37,6.41c-.41.43-.92.76-1.35,1.16-5.53,5.16-5.24,7.65,2.14,9.3,4.46,1,5.73,4.51,8.25,7s4.84,3.93,8.67,3.63c2.77-.22,5.77,1,8.45,2.26,2.67,3.22,1.85,6.66.42,10-.92,2.14-1.49,2-3.36-.35,1.71,5.76,6.35,10.8,4.29,17.47l-.87,2.45c-3.67-2-3-5.73-3.77-8.72C940.67,671.25,942.85,673.48,941.21,675.6Z" fill="#473e34"/><path d="M797.75,653a7,7,0,0,0-4.78-2.36c-3.38-1.95-6.88-3.76-7.34-8.32-.16-1.6-1.29-2.31-2.86-2.31-2.67,0-4.77-1.57-7.12-2.49a6.46,6.46,0,0,1-1.4-1c-3.35-6-3.17-7.14,2.1-13.1,2.51-.22,4,.44,5.39,3,2.87,5.27,14.87,8.8,19.55,6.4,5.11,4.32,5.81,4.23,9.91-1.2,1.16-1.54,2.22-3.22,4.37-3.55,1.13,11.57-2.73,16.3-11.55,14.31-1.9-.43-3.38-.89-3.9-3-.34-1.38-1.12-3.23-2.59-2.39-1.94,1.11.06,2.57.49,4,1.27,4.15,5.53,3,8.06,4.84-2.21,2.64-2.79,6.71-6.84,7.75A2.38,2.38,0,0,1,797.75,653Z" fill="#5a5147"/><path d="M840.49,661.35a56.61,56.61,0,0,1-5.71,4.94c-2.29,1.54-3.22,3.39-2.3,5.91,1.06,2.91,3.39.62,5.08,1a8.51,8.51,0,0,0,1.75,0c.62,7.06-4.52,7.58-9.49,8.27-.8-1.94-2-3.82-2.29-5.84-.49-3-2.26-3.73-4.86-3.64-3.69-6-6-12-.53-18.27,1.69-1.93,3.43-3.88,6.46-3,2.09.54,2.18,3.66,4.72,3.62C834.89,657.52,838,659.11,840.49,661.35Z" fill="#544a3f"/><path d="M840.49,661.35c-3.85-.84-7.94-1.45-7.17-7a14.55,14.55,0,0,0,7.91-1.83c5-2.75,9.29-1.21,13.18,2.05,3.43,2.87,6.58,6.08,9.85,9.14-.46,2.07,2.45,3.07,1.59,5.76-4.85-3.09-10.45-2.42-15.6-3.8-2.14-.58-4-2.27-6-3.51C843.11,661.42,842.25,659.34,840.49,661.35Z" fill="#5e554b"/><path d="M828.6,650.73c-8.67,4.67-10,8.64-5.78,17.31.74,1.49-.29,2.65-.15,4l-2.37,0c-3.86.11-4-3.2-5.19-5.57-.88-2.61-1.41-5.25-.49-8,2-2.22,2.19-4.34-.08-6.63-1.23-1.24-1.91-3-2.82-4.46-.42-1.37.6-2,1.46-2.64l3.58-1.14c2.78,3.69,5.54,3.63,8.29,0,.81.74,4.06-2.41,2.73,1.65C827.12,647.3,827.73,649,828.6,650.73Z" fill="#5a5147"/><path d="M815.55,657.82c.05,2.84-.36,5.73,1.13,8.37a2.53,2.53,0,0,1-3.5-.08c-2.76-.49-5.82,1.1-8.32-1.2-1.59-2.19-4.25-3-6.21-4.68a6.33,6.33,0,0,1,.24-7.14c4-.83,2.56-7,7.19-7.15,2.51.45,4.72-.83,7.1-1.16-.39.8-.78,1.59-1.18,2.39a3.1,3.1,0,0,1,.75,3.18c-.89,2.06-2.83,2.46-4.72,3s-4.11,1.39-3.16,3.9,3.18,3.33,5.77,2.62c1.34-.37,2.12-1.7,3.36-2.3A1.78,1.78,0,0,1,815.55,657.82Z" fill="#544a3f"/><path d="M873.78,660.19c-3.15,7.45-3.15,7.45-8.35,3.6-1.48-3,2-8.37-4.92-8.81-2.55-.16-2.92-3.09-.58-4.86,3.09-2.33,8.6.08,9.42,4C869.91,656.84,872.88,657.75,873.78,660.19Z" fill="#5e554b"/><path d="M815.57,628.17a66.63,66.63,0,0,0-4.49,6.68c-1.31,2.54-3.25,3.14-5.75,2.7s-4.35-1.65-4-4.63C802.44,628.05,811.36,625.09,815.57,628.17Z" fill="#584f45"/><path d="M878.52,649.51c.2,3.74.81,6.21,5.14,2.72,3.08-2.49,5.36-.56,8.34,4.2-7.08-4.31-9.14,4.2-14.64,2.59-.8-1-1.66-2-2.41-3.1C871.85,651.43,873.42,649.48,878.52,649.51Z" fill="#5e554b"/><path d="M863.54,645.86c-4.37-.16-8,6.45-12.79.88-1.91-2.22-2.26-4.78-2.11-7.79C854.5,639.6,858.52,643.58,863.54,645.86Z" fill="#5e554b"/><path d="M872.57,641.21c-.46,2.22,1.11,3.42,2.39,4.76-1.85.73-3.26,3.46-5.64,1.74-1.79-1.29-4.59-2.78-3.44-5.4C867.2,639.27,870.18,640.76,872.57,641.21Z" fill="#5e554b"/><path d="M776.35,623.47c-1.11,4.27-5.16,8.28-1.2,13-4.17-.08-6.31-2.3-5.73-6a11.91,11.91,0,0,1,2.17-4.64c.4-.8.81-1.59,1.21-2.38Z" fill="#635950"/><path d="M825.05,643.61c.18,3.12-1.07,4.83-4.43,4.71-3.16-.1-4-2-3.86-4.68Z" fill="#544a3f"/><path d="M885.66,638.86c1.85,2.29.34,4.08-1.54,4.38-3.06.48-3.18-2.15-3.19-4.41Z" fill="#5e554b"/><path d="M526.74,641.07c-1.37,0-3.55.2-3.2-1.52.77-3.74-4.88-6.29-2.1-9.63a47.55,47.55,0,0,1,10.82-9.69c4.3-2.77,9.2-3.16,13.66-5.46-.88-1.65-3.06.06-3.93-1.8,10.13-3.76,20.81-3.28,31.33-4.44-16.1,9.19-31.89,18.7-45.4,31.48Z" fill="#756b5f"/><path d="M499.48,571.34c-.66.37-1.34,1.09-2,1.06-5.49-.29-5.71,3.37-3.71,6.35,2.95,4.37,3.5,9.46,5.71,14a2.55,2.55,0,0,1-2.39,1.12c-3.75-3.05-7-6.27-5.55-11.82a4.73,4.73,0,0,0-.62-2.75c-2.71-6.18-1.72-7.77,5-7.93C497.13,571.31,498.31,571.34,499.48,571.34Z" fill="#62594f"/><path d="M533.94,660.18c4.71.3,5.09,3.46,4.75,7.11Z" fill="#483f35"/><path d="M488.8,559.51c-1.3-2.15,1.48-2.8,1.67-4.49.14-1.24.8-2.43-1.26-2.21-2.92.31-2-1.34-1.7-2.94.46-2,2-2.76,3.48-2a9.15,9.15,0,0,0,8.9-.09c.47-.23,1.59-.21,1.68,0,2.37,5.47,6,1.09,9,1.32,4,.3,7.67,1.91,12,.83s7.67,2.69,8.35,6.23-3.52,1.33-5.38,2.16C513.29,557.47,501.09,559.84,488.8,559.51Z" fill="#7e7165"/><path d="M519.7,569c.14,1.18,2.38,3.15-1,3.06-3.65-.09-7.3-.47-10.94-.73C510.82,565.81,515.38,568,519.7,569Z" fill="#62594f"/><path d="M538.61,571.39c-4.39,2.73-8.66.37-13-.31-.11,0-.24-.31-.24-.46s.17-.35.26-.53C530.08,569.47,534.26,571.26,538.61,571.39Z" fill="#7e7266"/><path d="M943.8,648.35c-4.68,1.4-9.28-2.52-14-.23-.93-3.39-5.52-4.65-6-6.92-.79-3.8-3-3.12-5.19-3.88a14.23,14.23,0,0,1-6-3.45c-1.54-1.73-4.91-4.16.7-6.24a9,9,0,0,0,5.89-8.4c-.92-.71-1.79-.27-2.68.12-8.35,3.68-9.57,3.31-14.77-4.11-.69-1-1.48-1.5-.11-2.78,2.82-2.62-1.14-2.12-1.71-3.22-2.52-4.26,4.67-3.16,3.57-6.27-.83-2.37-5.12-2.13-4.58-6.12.47-3.57-4.61-4.76-4.57-8.74,0-1.3-.26-2,.58-3.34,1-1.61,5.58-3.48.77-6-.14-.07-.06-1,.08-1,7.5-2.43.39-10.67,5.6-14-4.69-6.29,5.36-10.57,2.32-16.7a2.38,2.38,0,0,1,.7-2.14c4.36-3.42,5.47-7.14,3.3-12.63-.57-1.45,2-4.71-.1-7.5-.43-.57,1.15-1.76,2.57-1.61,2.49.28,5.06-1.09,7.88.94-.28-3,.18-5.13-3.25-6.37-3.28-1.19-2.43-4.46-.21-6.1,2.54-1.88,4.2-3.77,4.76-7s3.79-2.57,6-3.06c.17-2.07-1.32-2.68-2.19-3.64-3.54-3.89-2.19-11,2.8-12.44,3.31-.94,5,1.44,4.52,5,2.54-.62,2.9-2.23,2.7-3.81-.58-4.64,3.17-4.74,5.73-4.76,3.46,0,2.52,3.28,2.69,5.48.12,1.56-.08,3.16.07,4.72.28,2.84,2,1.59,3.4,1.07,0,1.57,0,3.14,0,4.7-.42.87-.89,1.69-2.06,1.55-4.54-1.73-3.87-5.32-3.16-8.92-1.27,3.84.08,7.17,1.39,10.77,3.35,9.18,7.87,18,8,28.18,0,5.46-1.58,10-5.49,13.73a2.71,2.71,0,0,1-2-3.71c1.82-6.2-1.12-12.06-.78-16.71-.41-2.18-1.2-.86-.58-1.35.26-.21.46-.1.48.33.18,6.16,2.21,12.18.85,18.5-.66,3,.58,6.17,2.15,9,1,11,4,21.84,3,33-.35,3.58.6,7,1.83,10.27,2.46,12-1.36,23.88-1.06,35.86a6.77,6.77,0,0,1-1.79,4.31,2,2,0,0,1-1.86.6c-3.27-2.19-3.46-6-3.08-8.92.75-5.73.41-11.56,1.33-15.65.12,6.51-2.49,14.5-.5,22.68.93,3.79,2.93,7.3,2.87,11.35C944.44,644.63,945.35,646.62,943.8,648.35Z" fill="#594f44"/><path d="M942.53,477c-3.48-4.36-2.39-7.17,0-10.86Z" fill="#51433a"/><path d="M941.39,445.75c.11-.64.23-1.27.35-1.91,1.91,4.65,1,9.35.75,15.77C940.48,453.91,941.76,449.79,941.39,445.75Z" fill="#51433a"/><path d="M926,359.29a4.75,4.75,0,0,1,2.72-4.33c5.54-2.36,9.36-5.57,8-12.31-.15-.77.19-1.69,1.28-1.15s1,1.59.95,2.6c-1.22,4.42.09,8.62,2,12.4,3.76,7.54,7.4,15,8.11,23.61.11,1.32.2,2.55,2.16,2.92,2.77.51,2.79,2.8,2.36,5.07a4.5,4.5,0,0,1-5.07,1.7c-5.94-4.52-5.67-11.46-7.48-16.73-1,3.37,4.18,7.84.44,12.26-2.22-1-.44-3.76-2.44-5.25-2.9,3.06-6.12,3.92-9.44.52C928.33,373.51,926,366.59,926,359.29Z" fill="#73442d"/><path d="M946.36,433.76c0-.39,0-1.06.17-1.12,3.77-1.37,3.77-1.35,2.56-7.23l1.36-.12a2.85,2.85,0,0,1,.74.22c1,6.05,2.95,12.2-1.9,17.95Z" fill="#452b21"/><path d="M733.55,622.3c-2.73-.44-4.22,1.46-6,3-4,3.32-8.47,2.37-10.64-1.88-1.43-2.8-1.27-4.79,1.84-6.16,1.41-.62,3-1.25,3-3.24C726.36,615.71,728.14,621.59,733.55,622.3Z" fill="#5a5147"/><path d="M771.59,625.82c-.94,4.26-3.32,9,3.56,10.67h0c1.36,1.85,7,1.09,3.56,5.86C774,640.52,769.9,638,768,633c0-.41,0-.82,0-1.23C768.43,629.3,769.22,627.08,771.59,625.82Z" fill="#6a6158"/><path d="M739.51,627a19.88,19.88,0,0,1-1.64,3.06c-1.41,1.81-3.69,2.87-5.51,1.75-2.31-1.42.45-2.86.83-4.34a22.29,22.29,0,0,0,.38-2.84C735.25,626.16,738,625.13,739.51,627Z" fill="#5a5147"/><path d="M749,630.57c-4.28,2.7-5.09-.47-6-3.51C745.53,627.37,747.74,628.18,749,630.57Z" fill="#5a5147"/><path d="M950,591.44a36.78,36.78,0,0,1-2.55-10.63c-2.89-9.19-1.34-18.8-2.68-28.14a6,6,0,0,1,.42-3.5c5.8-11.08,5-22.84,3.71-34.66-.22-2-.16-2-1.24-2.32-2.68-.92-3.14-3.29-3.56-5.66-.31-3.4,3.84-3.59,4.55-6.27,2.71,1.28,1.71,4.06,2.53,6.12,5.58,14,4.17,27.84.77,42.09-2.26,9.49-1.44,19.38-.21,29.15.51,4-.32,8.21-.54,12.33C951.79,591.25,951,591.42,950,591.44Z" fill="#594f44"/><path d="M950,591.44l1.2-1.49c3.28-.67,4.79.27,4.53,4-.3,4.29,0,8.62.07,12.93-3.21,5.57-2.72,12-3.43,19.24A15.23,15.23,0,0,1,950,613.8C951.57,606.3,953,598.89,950,591.44Z" fill="#594f44"/><path d="M953.05,469.94c-2.5-1.84,0-5.28-2.3-7.17-.12-.76-.25-1.51-.37-2.27-.33-2.52,2.85-2.74,3.53-4.89.16,1.49.33,3,.5,4.49.57,3.22-2.16,6.39-.18,9.64Z" fill="#51433a"/><path d="M923.56,328.18c.43-9.47-.48-19.06,8.24-26,3.14-2.49,5.55-4,6.41,1.94.73,5,2.34,9.85,3.55,14.77-1.56,5.51-8.47,5.71-10.68,10.73-.71,1.61-2.37.91-3.39-.2C926.52,328.16,925.34,328.3,923.56,328.18Z" fill="#31271f"/><path d="M991.68,652c2.17-2.92,2.48-6.21,2.57-9.77.06-2.33-1.56-6.1,3-6.68,1.84,7.56.23,14.52-3.65,21.09C990.27,656.16,992.86,653.28,991.68,652Z" fill="#574c43"/><path d="M991.68,652l1.92,4.64.15,4.69c-2.11,2.88,1.88,6.68-1.41,9.36C989.68,664.53,988.5,658.32,991.68,652Z" fill="#574c43"/><path d="M997,628c-.37,1.49-.66,3-2.63,4.25-.46-6.31-5.63-12.17.1-18.27A50,50,0,0,0,997,628Z" fill="#574c43"/><path d="M1000,684.81c-.79,1.53.68,3.75-1.49,4.85-1.62-.56-1.61-2.12-2.08-3.38-.08-2-.15-4-.23-5.95l2.29.11C999,681.9,999.5,683.35,1000,684.81Z" fill="#473e34"/><path d="M950.27,341c0,2.83,3.12,5.74-.26,8.46a25.17,25.17,0,0,1-2.24-13.08,2.53,2.53,0,0,0,.87.05C948.89,338,949,339.71,950.27,341Z" fill="#4a372e"/><path d="M809.48,762.12a28.65,28.65,0,0,0-4.88,10.56c-1.09,4.37-2.61,8.71-6.23,11.83-.89.76-1.93,2.14-2.77,2-8.17-.92-15.94,2.86-24.19,1.7-4.91-.69-3.64-4.37-3.77-6.64-.47-8.63-.22-8.65-8.54-6.17-7.09,2.11-8.85.74-8.1-6.68.21-2-.23-3.16-2.28-3.08-4.3.18-9.08-2.77-12.51,2.75-1.81-9,.62-16.07,4.57-23s9.08-8.8,16.57-5.54c4.24,1.85,7-.78,8.3-4.88,4.24-3.66,8.07-8.38,14.78-5.73a12.47,12.47,0,0,1,1.27,3.3c2.91,8.87,5,9.51,12.23,3.63a5,5,0,0,1,5.13-.73,29.38,29.38,0,0,1,7,15.93C805.89,755.36,811.55,757.53,809.48,762.12Z" fill="#203216"/><path d="M946.11,878.15c-.37.12-.94.12-1.1.37-3.36,5.58-3.35,5.58-7.83-.44-1.24,2.22.91,6.6-2.91,6.7s-2.44-4.35-3-6.54a27.51,27.51,0,0,1,.29-13.3c-1.94-.58-3.25,4.12-5.36.46-1.26-2.2-1.31-3.55,1.4-5.14,3.52-2.06-1.85-3.59-.75-5.84-2.19,4.2-5,5.17-9.54,2.37,3.09,4.05,6.52,7.84.86,12.16-3.95,3-6,2.43-6.34-2.53-.13-1.95,0-3.92,0-7.18-3,5.32-3.11,9.39-.87,13.67,2,3.78-4.36,14.23-8.7,14.32a4.62,4.62,0,0,1-4-2.21c-4.12-7.08-2.93-26.79,8-29.75,1.66-.45,2.85-1.55,4.87-.68A6.93,6.93,0,0,0,920,851c1.31-3,3.85-4.78,5.24-7.53-3.78-.82-3.57-.62-6.93,3-2.51,2.67-3.69-1.81-6.17-1.74.44,3.12,3.69,3.86,5,6.12-5.55,2.12-6.39,1.77-8.29-3.53-1.65.39-1.45,3.64-3.11,2.83-1.49-.71-3.25-3.06-3.09-4.49.37-3.26-1.13-7,2-9.79,1.91-1.68.72-4.16,1.39-6.16,1-3,1.05-7.19,6.34-5a2.71,2.71,0,0,0,3.52-1.48c.75-1.75-.54-2.53-1.93-3s-2.38-1-1.83-2.41a3.52,3.52,0,0,1,2.21-1.64c1.38-.36,2.11.87,2.72,1.83a15.27,15.27,0,0,1,.7,2.23c.88,2.09,2.14,5.4,3.91,5,3-.6,2.24-5.07,4.63-7.07.48-.41-1.05-1.36-1.85-1.91a4.38,4.38,0,0,1-1.11-6.7c1.59-2.15,3.92-3.26,6.47-.6,2.88,3,4-.5,5.49-1.85,1.63-1.52,2.54-4.62,5.35-1.5,1.92,2.14,7,2.57,3.73,7.49s2.86,1.61,3.21,3.46c1.62,4.22-.81,8-1.37,12A27,27,0,0,0,947.56,843c2,5,4,10.36,1.64,16-3.54,2.2-4.41-1-6-2.89-1.11-2.25-.54-4.57-.38-6.88-.67,6.62-2.25,13.24.15,19.8,1.43-.51,1.59-4.85,4.31-1.45C948.07,871.2,948.89,874.88,946.11,878.15Z" fill="#2c2722"/><path d="M909.45,885.27c4-5.14,5.78-11.91,11.44-15.91.91-.64,1.91-3.47,2.54-1.65,1.18,3.43,6.53-.37,6.23,4.34-.2,3.12,0,6.27,0,9.41s0,6.77,3.32,8.13c3.55,1.45,3.61-3.19,5.87-4.73.23,1.31.4,2.26.57,3.22,2.35,3.36,1.13,7.2,1.48,10.82-.34,2.39.54,4.68.65,7,.2,4.54-2.69,8.16-6.58,8.35-4.72.22-6.06-2.88-6.47-6.77-.21-2.1-1.06-4.18-.34-6.33,0-.79-1.33,0-.56-.18.06,0,.09.11.12.36.46,3.68.41,7.44,2,10.94,1.22,2.79,1.15,5.41-1.56,7.39a4.83,4.83,0,0,1-6.07,0c-2.68-1.94-3.91-4.75-2.53-7.77a80.87,80.87,0,0,0,4.35-13.17c.28-1.55-1.16-1.11-.37-1.07.14,0,.19.11.17.32a44.52,44.52,0,0,1-4.6,14.46c-1.36,2.82-3,5.37-6.49,5s-5.43-2.78-6.18-6.25c-.47-2.15-1-4.22-.21-6.37.21-.71,1.37-1.4,1.05-1.85C902.22,896.17,902.77,891.62,909.45,885.27Z" fill="#2c2722"/><path d="M744.35,686.1l4.68.26c1,1,.65,2.21.17,3.27-2,4.38-.41,7.06,3.91,8.68,2.47.93,4.06,3,5.61,5.06s3.31,4.11,5.95,4.53c5.53.88,11.31,0,16.6,2.71,1.25.63,2.65-.32,3.4-1.68,5.68,1.16,9.61-2.79,14.2-4.81.45,1.9,1,3.78,1.33,5.69,1.28,6.68,4.57,8.48,10.57,5.21,2.19-1.19,3.41-.7,4.29,1,1.54,2.94,5.35,4.8,4.45,8.85-.07.31-1.77.27-2.71.4-2.26-.42-4.6,1-6.81-.32-1.56-.9-2.53-2.42-5.1-1.33-6,2.57-8.09,1.58-12.06-4.27-.89-2.17-.9-5.41-4.9-2.87-1.92,1.23-25.89-2-27.34-3.67-5.47-6.49-15-7.95-19.29-15.83-.78-1.44-2.12-1.43-3.59-1.35-4.52.26-9-.92-13.53-.69-4.41.22-6-2-5.07-6.4.55-2.68,1.53-5.28,1.57-8.06,1-3,3.37-4.83,5.71-6.69a3.9,3.9,0,0,1,3.4.1c1.84,2,.39,3.56-.55,5.22s-3.57,3-1.7,5.53,3.93,4.67,7.61,4.69S741.46,687.66,744.35,686.1Z" fill="#a19185"/><path d="M909.45,885.27c-1.71,3.2-3.6,6.18-4.1,10-.76,5.93-.48,6.58,5.68,6a4.53,4.53,0,0,1-3.93,3c-4.8.31-6.54-2.59-5.66-6.56,1.11-5-3-4.48-5.26-5.22-2.89-.93-3.65,1.9-3.94,4-.52,3.69-.93,7.51.51,11.1.8,2,2.51,3.33,4.75,2.27s.65-2.7.13-4a34,34,0,0,1-1.84-5.63c-.41-2.16,0-4.23,2.41-4.65s2.83,1.66,2.87,3.52c0,2.19,1.22,3.59,2.79,4.95,3.56,3.08,4,6.34.41,9.22-4.65,3.76-5.28,7.76-3,13,1.32,3,1.68,6.53,3.29,9.49,2,3.79,4.69,3.87,7.32.44,1.72-2.26,2.16-5.06,3.21-7.61.62-1.5,1.46-3.12,3.22-3.11,2,0,2,1.83,2.51,3.4.72,2.43.77,5,1.68,7.36.36,1.71.71,3.43,1.08,5.15s-.82,2.94-2,3.94c-2.07,1.71-2.14-.29-2.55-1.48-.6-1.71-1.39-.37-2.21-.27-7.72,1-13.76,9.27-12,16.94,1,4.35,4.36,5,8.25,4.29-2.51,2.29-4.22,7.26-7.82,6s-1.51-6-1.72-9.19c-.27-4.13,0-8.29,0-12.44-1.21-9.66-6.59-18-8.89-27.29-1.06-4.29-6.57-5.82-7.15-10.58-1.33-6-.13-12.55-5.05-17.61-1.27-1.31-.75-3.76-.72-5.72a9.52,9.52,0,0,1,.82-4.47c2.84-2.24,2.61.78,3.32,2,.81,1.39.31,4,2.92,3.64,1.89-.26,2.76-2,3.4-3.77s.29-3.59,1.89-4.82c1.69,1.29,1.91,3.3,2.62,5.1,2,5.11,4.47,5.51,8.82,1.87C906.59,886.62,907,884.1,909.45,885.27Z" fill="#564e46"/><path d="M949.79,841.35c-2.71-4.12-3.4-8.29-.32-12.58.42-.59,1-1.44.86-2-2.12-8.8.44-17.59.64-26.33.1-4.71-.38-9.3-.09-15.3-1.93,3.56-.94,6.09-1.48,8.64-.85-2.6-1.65-5.06-2.47-7.6-1.64,1.23-.48,2.94-1,4.29-1-3.6-2.34-7.14-1.87-11a5.75,5.75,0,0,0,2.11-5.17c-.85-9.53,2.2-18.48,3.82-27.66,1-1.78,1-4.82,4.47-3.53l-.06,13c-3.89,7.32-4.55,16.4-2.48,22.91,4.31,13.52,2,26.66,2.3,40,.07,4-2,7.56-2.17,11.48-1.19,3.33,0,7-1.62,10.31C950.24,841,950,841.16,949.79,841.35Z" fill="#3a3129"/><path d="M894,880.59c-.16,3,.69,6.34-2.3,8.7-1.38,1.09-2.69,2.75-4.52,2.21s-2.15-2.63-2.57-4.33c-.37-1.45.33-3.22-1.34-4.26-1.64-1.76-1-3.72-.37-5.57,2.93-9,5.2-18.05,5.08-27.58,1.44.59,3.47,1.73,4.09-.3,2.73-9,6.13-.75,8.09.13,4,1.8,2.44,5.2-.11,7.61C893.09,863.77,894,872.27,894,880.59Z" fill="#2c2722"/><path d="M888,849.76c3.09,3.66,1.57,7.67.69,11.5-1.66,7.25-3.58,14.43-5.4,21.65,0,1.55-.11,3.1-.16,4.66-1.82,2.79-3.89,2.31-4.4-.5-1.11-6.26-2.48-12.75,2.12-18.43.25-3.95,2.75-7.86.17-11.85-1.9-.37-3.59-1-3.77-3.3-.76-2.21-4.77-.69-4.54-3.73s-1.78-6.53,1.8-8.54c3.17-1.79,4.9,1.46,7,2.79C884,845.54,885,848.81,888,849.76Z" fill="#1d1914"/><path d="M809.66,724c2.38.44,5-.61,7.14,1.25-1.77,2.24-2.19,5-2.3,7.63-.16,3.59-1.26,6.61-4,8.7-3.36,2.54-3.27,6.38-4.39,9.78l-7.26-15.31c1.05-1.3,2.52-1.35,4-1.34,1.78.29,2.34-.71,2.7-2.26.68-2.84.93-5.82,2.6-8.36A1.36,1.36,0,0,1,809.66,724Z" fill="#62412e"/><path d="M954.48,743.11c-2.54-.13-1.92,2.56-3.19,3.56-2.12-2.25-.48-4.8-.63-7.58-1,2.83,1.17,6.67-3.15,7.72-1.54-2-5.2.08-6.16-3.26,1.94-.74,3.81-1.67,3.83-4.21,1.46-.73,1.69-2,1.67-3.49-.22-12.79.35-25.53,2.95-38.11l1.37-2.32c1.44,7.17,3.18,14,1.7,21.77C951.29,725.57,950.58,734.69,954.48,743.11Z" fill="#3a3129"/><path d="M871.83,762.14c1.44,3.5-5.39,5.27-.63,8.47-3.33,1.18-4.48,4.89-7.37,6.42a6.11,6.11,0,0,1-6.75-.54c-2.36-1.87-4.45-4.09-7.17-6.64,2.87-.41,3.47,1.09,4.39,1.95,6.26,5.84,8.29,5.55,12-2.25C867.65,766.75,868.46,763.73,871.83,762.14Z" fill="#6c655e"/><path d="M938,711.21c-.17-1.62.26-3,2.35-4.33-.12,7,1,13.47-1.39,19.83-1.69,3,1.34,6.49-1.13,9.36a52.14,52.14,0,0,1-.08-21.51c1.3,2.09.79,4.29.65,6.47C938.25,717.76,939.12,714.48,938,711.21Z" fill="#3a3129"/><path d="M819.12,763.18c-3.44,1.94-6.91,4.09-9.5-1.12,5.84,2.55,8.89-1.51,12.11-5.12,4.13-4.64,5.59-4.55,7.65.58C823.46,754.93,822.1,760.5,819.12,763.18Z" fill="#625d54"/><path d="M837.52,772.57c7.19-1.22,7.56-9.3,12.86-12.39C848.78,768.87,843.41,774.23,837.52,772.57Z" fill="#6c655e"/><path d="M941.63,678.84l2.06,13.31c-3.41-1.41-7.17-2.44-7.71-7.56C941.59,686.29,941.74,682.68,941.63,678.84Z" fill="#473e34"/><path d="M946.19,750.22c-.41,3.75-.66,7.54-2.15,11.08-.22-2.63-1.51-2.93-3.54-1.6-3.12-2.66.25-6.16-1.18-9.05-.06-1.95.31-3,1.87-.74.95,1.35-.72,4.11,1.63,4.42C945.38,754.67,944.49,751.18,946.19,750.22Z" fill="#3a3129"/><path d="M884.91,759.24c-1.27,5.24-.41,11.32-6,14.49C883.39,769.86,880,762.76,884.91,759.24Z" fill="#6d665e"/><path d="M939.32,750.65c2.08,2.8.72,6.05,1.18,9.05-.52,2.37-1,4.75-1.94,8.82C936.67,761.26,938.22,756,939.32,750.65Z" fill="#3a3129"/><path d="M937.85,736.07c.88-3.06-1.1-6.46,1.13-9.36-.07,4.55,2.48,9,.7,14.15C937.41,739.53,938.52,737.44,937.85,736.07Z" fill="#3a3129"/><path d="M938,711.21c2.76,3.33.56,6.95,1.08,11.48-1.83-3.27-.66-5.81-1.33-8.13C937.85,713.44,937.93,712.33,938,711.21Z" fill="#3a3129"/><path d="M809.66,724a6,6,0,0,1-1.11.29,16.36,16.36,0,0,1-6.88,5.39c-4.55,2.11-8.31,1.92-11-2.95-1.9-3.41-4.78-3.8-8.82-4-11.33-.65-23.37,2.2-33.7-5.12-3.83-2.71-7.24-5.92-11.73-7.8-3.28-1.37-6.39-2.83-10-3.35-2.5-.36-6-.59-4.78-4.89-.27-.62.26-2.55-1.37-1A16.36,16.36,0,0,0,718,704c-1.7,1.43-3.45.65-4.85-.28-4-2.69-8.6-4.42-12.8-6.79-.47-3.44-2.3-3.72-5.36-2.84-4.9,1.4-8.81.14-10.32-5.35a4.49,4.49,0,0,1-.39-1.7c-.4-7.2-1.55-8.08-8.79-6.4-3.4.79-6.69,1.63-8.56-2.54a18.18,18.18,0,0,1-2.2-8.25c2.14-.29,2.25-1.94,2.38-3.57,4.4-3.78,9.32-6,15.3-5.18.48,9.78,1.61,11.24,11.47,14.62,1.3.45,3.16.6,3.69,1.69,4.42,9.11,15.63,9,21.86,16.2,2.65,3.06,9.86,3.14,15.13,2.3,3.41-.54,5.31.34,6.28,3.51.88,2.84,3,4.27,5.51,5.78,4.15,2.56,8.84,4.35,12.24,8.05,1.3,1.4,3.13,2.31,4.8,1.79,8.91-2.78,17.4,2.87,26.25,1.1,2.37-.48,3.09,2.09,4.51,3.34,3.12,4.21,6.33,6.29,11.25,2C807.73,719.36,809.12,721.64,809.66,724Z" fill="#917a6b"/><path d="M666.93,678.05c2.08.78,3.58,2.4,6.49,1.58,11.62-3.26,11.67-3.07,11.25,9.06-1.69-1.27-.66-3.35-1.57-5.13-18.39,8.34-31.6,22.49-43.45,38.18-2.56-.22-4.88-2-7.77.3-1.64,1.33-4.45-.23-6.27-1.91s-.42-3,.44-4.61c3.64-6.59,6.44-13.6,13.47-17.87,2.51-1.52,3.07-5.61,6.18-7.61-2.09-1-3.05.21-4.13.9s-1.84,1.58-3.44.66c3.76-5,10.18-6.93,13.5-12.26.6-1,1.9-.9,3,.17C662.62,686.94,662.65,686.91,666.93,678.05Z" fill="#574d44"/><path d="M721.61,701.55c.19,1.54,1.07,2.91,2.49,3,12.28.32,20.25,9.29,30,14.72,1.23.69,2.39,1.65,3.8,1.33,9-2,18,3.76,27.15-.29,2.45-1.08,4.72,2.27,6.3,4.38,4.3,5.77,6,6.2,12.1,2.54,1.69-1,3.42-1.93,5.13-2.89-.78,3.59-1.62,7.17-2.33,10.77-.37,1.9-1.45,1.35-2.57.94-1.09-2.37-2.94-2.09-5-1.57a9.9,9.9,0,0,1-9.46-2.27c-6.6-6.37-15.2-5.47-22.87-5.56-9.23-.09-17.31-2.85-25.53-6-.54-2.58-1.63-3.37-4.57-2.68C724.41,720.68,717.86,713.21,721.61,701.55Z" fill="#7b5c4b"/><path d="M740.78,720.56c6.55-.78,11.81,4,18.27,4,6.73,0,13.47,1.06,20.2,1,4.11-.05,6.49,2.56,9.31,4.44,3.7,2.48,6.82,4.8,11.73,2.13,2.64-1.44,5.21,0,3.36,3.85l-4.84,0a6.4,6.4,0,0,0-4.52,1.23c-5.87-.25-9-5.9-14.33-7.21-3.29-2.54-5.15.73-7.55,1.83s-4.51,2-6.76,3.06c-1.94-.14-3.22-1.37-4.4-2.7a3.24,3.24,0,0,0-4.08-1C747.45,734.6,742.38,731.21,740.78,720.56Z" fill="#674532"/><path d="M700.35,696.88c4.35-.15,7.89,1.56,11.23,4.3A11.67,11.67,0,0,0,718,704c-2.19,4.21-5.44,7.06-10.32,5.34C702.07,707.31,699.48,703,700.35,696.88Z" fill="#7c5f4f"/><path d="M797.59,834.36c-2.3-3.6-6.38-6-7.21-10.58,3,1.46,4.23,4.85,7.48,6.22C799.59,830.74,799.37,833,797.59,834.36Z" fill="#4b443f"/><path d="M690.76,770.37c-3.62-.94-1.83-6.34-5.8-7-.26-1.85.82-3.3,1.81-5.85C688.44,762.27,690.21,766.1,690.76,770.37Z" fill="#5d554f"/><path d="M589.79,695.72c3-3.31,6.37-6.36,8.93-10,4.79-6.75,12.69-9.24,18.62-14.37,6.54,3.43,12.64,1.94,18.55-1.64.1.38.2.76.29,1.14a408.1,408.1,0,0,0-27.41,40.21c-3.63,3.9-4.5,4-7.16-.33a15,15,0,0,0-7.26-6.26c-3.53-1.54-7.38-3.63-4.56-8.77Z" fill="#655b50"/><path d="M589.79,695.72a5.94,5.94,0,0,0,4.94,7.39c4.8.73,7,3.68,8.51,7.32,1.73,4.21,3.52,2,5.53.65-1.42,3.25-2.26,6.78-4.72,9.52-4.09-.39-6.47-3.37-9-6.05-2.19-2.36-3.7-5.06-7.11-6.52S585.76,699.2,589.79,695.72Z" fill="#493f36"/><path d="M623.14,703.55c.72-4.14,1.77-6.25,4.31-7.35.26-.12,1.23.52,1.25.84C628.83,700.12,626.45,701.2,623.14,703.55Z" fill="#352e26"/><path d="M648.79,668.73c-.45,1.55-1.64,2-3.13,2-1,0-2.19-.34-1.82-1.58.45-1.54,1.56-2.85,3.39-2.63A1.89,1.89,0,0,1,648.79,668.73Z" fill="#352e26"/><path d="M939.25,899.19c6.06,6.66.33,13.73.65,20.59.11,2.29-.56,4.63-.88,6.94l-3.34-1.16c-3-1.6.64-5.65-2.68-7.11-1.85,0-2.78,1.21-3.59,2.67s-2.22,2.55-3.92,1.66c-6-3.13-4.93.34-4.27,4.14.54,3.07,1.85,6.08,1.26,9.31-1.72-2.07-1.61-4.74-2.33-7.13-.34-1.14-.39-2.63-1.74-2.73s-1.62,1.39-2,2.52c-1,3.16-1.67,6.41-3.79,9.13-3.06,3.91-6.81,4.1-8.79-.28A114,114,0,0,1,897.74,920c-.9-3.39,2.64-5.09,4.77-6.89,3.7-3.14,5.52-5.8.07-8.86-1.88-1.06-2.41-3-2.67-5-.15-1.17.4-3.3-1.94-2.57-1.75.54-1.11,2.08-.76,3.48a23.13,23.13,0,0,0,4.42,9.35c-7.68,4.54-11.22,2.69-11.14-5.89,0-4.15-1.43-8.61,2.43-12.25,1.72-1.62,2.51-2.76,4.31-.24,1.57,2.2,4.53.63,6.67,1.75-.34,4.28-4.6,9.61,3.2,11.45.31,4.6-.77,10.6,5.24,11.67,5.43,1,5.88-5.19,7.88-8.66,1.84-3.17,1.5-7.27,4.41-11.32a34,34,0,0,1-3.4,14.19c-1.06,2.33-1.36,4.4-.09,6.74s3,3.28,5.34,2.25c2.18-.94,3.45-2.51,2.22-5.18-2.15-4.67-1.32-9.62-.8-14.56.57,2.81,1.27,5.6,1.69,8.43.55,3.64,2.28,6,6.18,5,3.6-.91,4.72-4,4.28-7.37C939.77,903.43,938.8,901.41,939.25,899.19Z" fill="#393530"/><path d="M933,918.45c.24-1.09.1-2.7,1.54-2.77s.89,1.41.93,2.27c.11,2.53.14,5.07.21,7.61-1,1.63.26,4-1.83,5.42C931.24,926.9,933.59,922.57,933,918.45Z" fill="#393530"/><path d="M871.39,932.64c-.06-3.49,1.9-6.43,2.67-9.7l3.19-4.17a35.21,35.21,0,0,1,8.69-10.17c3.47,2.84,2.21,5.77,0,8.52a60.67,60.67,0,0,0-6.79,10.27c-.85,1.64-1.44,3.4.33,4.78s3.75.89,5.28-.65c2.35-2.37,4.49-5,8.41-4.46,4.62,1.72,3.89,5.32,3.06,8.86-1.46,6.21-1,11.73,5.09,15.44,2,7.13-3.94,11-7,15.88-1.88,2.93-4.58.45-6-1.82-2.42-3.75-1.65-8.07-1.26-12.06a49.13,49.13,0,0,0,.18-8.13c-.33-4.6-1.88-5.5-5.65-3.1-.67.42-1.2,1-1.83,1.5-4.64,3.51-7.62,2.35-8.13-3.53C871.35,937.67,870,935.15,871.39,932.64Z" fill="#3d352d"/><path d="M885.77,909c-1.61,4.31-5.26,6.87-8.52,9.76.13-1.1.25-2.21.39-3.42-3-.1-4.58,3.17-7.49,3a10.63,10.63,0,0,0-4.62.48c-2.27.68-3.82-.4-5-2.08-1.81-2.55-.83-14.41,1.34-17.32.19,1.55.51,3.1.55,4.65.1,4.36-1.12,10.31,5.32,2.56,2.31-2.78,4.69.36,5.54,2.76,1.31,3.68,2.37,5.46,5.5,1.27a7.42,7.42,0,0,1,6.81-2.86.73.73,0,0,1,.39.73C885.92,908.85,885.85,909,885.77,909Z" fill="#6b625a"/><path d="M861.85,899.45c-2.35,4.84-1,10-.9,14.92.06,2.33,1.77,4.4,4.94,3.3,1.51-.52,3.06-.88,4.26.7-3.58,1.25-7.61,4.68-10.81,2.25-2.93-2.24-1-7-.53-10.59a129.82,129.82,0,0,0,.64-14.06c2.33-4.66,1.21-10.53,5.33-14.62A55.35,55.35,0,0,0,861.85,899.45Z" fill="#867b74"/><path d="M885.77,909c-.08-.39-.15-.78-.2-1.17-.18-1.78-2-2.73-1.5-5.24.61-2.88-2.7-4.35-5.05-5.82-3-1.9-5.12.27-6.71,2-2.33,2.48-3,3.39-4.88-.64-5.73-12.29-.49-24.32,13.42-29.45-1.94,5.48-1.13,11.13-1.14,16.75,0,2.66.77,3.81,3.42,2.18.45,3.45-1,7.65,4.23,9.11,1.2.33.63,2.48.68,3.82.13,3.69-.57,7.45,1,11a23.32,23.32,0,0,0,2.43,11.6c.73,1.5,2.06,2.88,1.32,4.8a8.49,8.49,0,0,0-6.54,4.43c-2.08,3.48-5.16,3.26-8.14,1.22-3.16-2.16-1.85-4.48-.23-7.07,2.29-3.66,4.24-7.51,7.33-10.64C887.22,913.81,887.67,911.45,885.77,909Z" fill="#39312a"/><path d="M991,750.22c3.82-.89,3.59-3.7,2.73-6.42-2-6.16-3.33-12.33-1.48-18.76.66-2.34.7-5.26,4.36-5,1.54,1.86.53,3.06-1.07,4.12-1.8,1.11-1.09,2.76-.78,4.2,2.22,10.45.37,21,1,31.51a8.88,8.88,0,0,1-1.45,5.59,1.27,1.27,0,0,1-1.72-.33A19.74,19.74,0,0,1,991,750.22Z" fill="#3a3129"/><path d="M970.46,760.92c-.48.59-1,1.73-1.42,1.68-1.42-.19-.86-1.48-.75-2.28,1.06-8,2.2-16.05,3.32-24.07l.41-3.38C972.29,742.27,975,751.82,970.46,760.92Z" fill="#3a3129"/><path d="M986.94,822.48a26.78,26.78,0,0,1,2-13.05c2.52-4.25,1.81-9.43,4-13.77,3.24,3.12.37,6.65.64,10-2.43,5.45-5,10.86-5.49,16.92Z" fill="#3a3129"/><path d="M992.52,711.28c.6-1.31,1.45-2.56,1.06-4.12-1.14-7.25,1.94-13.92,2.85-20.88l2.08,3.39c-2,4.37-.66,8.94-.87,13.43-1,3-1.62,6.12-3,8.92C993.54,714.36,992.79,712.9,992.52,711.28Z" fill="#473e34"/><path d="M982.75,893.36c4.66,15.95,2.84,32.22,2.31,48.42,0,1.15.15,2.42-1.06,3.2-2.49-8.55-1-17.41-1.94-26-1.17-10.12-.14-20.28-1.78-31.51Z" fill="#2c2722"/><path d="M972.31,912.38c.47-10.22,1.57-20.39,1.65-30.65,0-2.23.08-5.37,1.84-7.62.59,2.14-.77,4.73,1.49,6.49-1.08,3.35,2.23,7.68-2.32,10.36-.38.22-.21,2,.18,2.77,3.36,6.95,2.06,14,.63,21.08C973.8,915.17,972,915.26,972.31,912.38Z" fill="#2c2722"/><path d="M871.39,932.64c.33,1.53.67,3.06,1,4.59,1.82,8.7,2,8.92,8.4,3.09,3-2.77,5.75-1.07,8.19-.21s-.1,2.88-.27,4.41c-.66,6-1.45,12-.34,18,.39,2.07,1.41,4.69,3.74,4.86s2.86-2.28,3.32-4.25c1-4.27,7.4-5.9,5.63-11.52-.72-1.43-.73-2.43,1.32-2.19.5,6.71-2.21,13.35-.22,20.17.65,2.22-.27,5.38-3.77,3.65-4.48-2.22-7.32-1.78-8.86,3.3-.29.94-1.53,1.08-2.56,1-3.12-9.77-1.86-19.6-.45-29.6-2.09,3-3.36,6.23-7.47,7.45-3.87,1.15-6.11-.46-7-3.24C869.86,945.78,868.93,939.21,871.39,932.64Z" fill="#564e46"/><path d="M902.37,949.37c-1.11.33-1.21,1.26-1.32,2.19-6.87-2.27-8.56-6.33-6.52-15.25.69-3,2.79-6.42-1.73-8.41-3.4-5-6.79-10-3.74-16.4.45,1.08.59,2.58,1.39,3.17,9.65,7,7.36,19.8,13.9,28.34,1.45,1.89-.75,4.09-.87,6.2A4.72,4.72,0,0,0,902.37,949.37Z" fill="#252518"/><path d="M682.48,661.39l-15.37,4.84c-.5-3.25-3.08-2.31-5.09-2.51-.95-.09-2.08.19-2.62-.86s.28-1.94,1-2.49c9.34-7.12,17.43-16.09,29.35-19.4,1.42-.39,2.62-.41,2.86.8,1,4.64,4.48,3.83,7.76,4.38,2.93.49,6.36.35,8.45,3.39,1.19,1.75,3.37,1.53,4.91,1,5.09-1.7,5.81,1,5.58,5-.21,3.8.85,6.29,5.45,5,2.17-.62,3.17.76,2.77,2.54-1.45,6.37,2.35,6.89,7,6.58a9.19,9.19,0,0,1,5.08,1.28c-2.17,3.89-5.9,3.76-9.6,3.7l-3.45-.44a3.12,3.12,0,0,1-2.83-2.59c-.57-2.44-1-3.91-4.42-3.81-3.79.13-5-3.32-4.86-6.71.16-3.11,0-4.93-4-3.64a6,6,0,0,1-7.53-3c-1-1.88-2.05-2.14-3.57-.68C694.21,657.36,689.49,661.91,682.48,661.39Z" fill="#5b4e41"/><path d="M784.67,708.93c1.07,1.36,3.91,3.62-.61,3.23a209.13,209.13,0,0,1-21.37-3.24c-2.34-.44-3.77-2.67-5.22-4.57-1.17-1.55-2.3-3.32-3.88-4.34-8.21-5.32-8.26-5.24-4.56-13.65l9-2.82c-1,6.54-1.31,12.26,7.41,11.16,1.16-.15,1.53,1,2.08,1.81,2.41,3.52,5.61,4.78,9.67,3.15,2.64-1.07,3.88,0,3.76,2.53A6.67,6.67,0,0,0,784.67,708.93Z" fill="#aea399"/><path d="M813.18,666.11l3.5.08c.49,2.39,1.26,4.61,3.62,5.86,7.06,3.83,7.24,4.48,3.28,11.62-1.94,3.51-2.42,7.73-6.39,10.27-3.15,2-4.7,1.41-5.67-1.7-1.22-3.93-2.18-7.92-4-11.66-.83-1.72-.12-3.61,1-5C810.72,672.71,811.84,669.37,813.18,666.11Z" fill="#3a3129"/><path d="M730.05,674.63c2.75-2.38,6.71-1.67,9.6-3.7,3.08-.54,5-.25,3.71,3.79-1.21,3.82-3.07,7.92,1,11.38-1.86,5.58-6.87,4.47-10.9,4.71-4.44.25-5.8-4.26-8.35-6.81-1.16-1.16.22-2.51,1.14-3.53C727.82,678.72,729.54,677.07,730.05,674.63Z" fill="#aea399"/><path d="M798.89,653.09c.41,2.36-.95,5,1.17,7.1,1,1,2.07,1.91,1.26,3.53-1.08,4.35-3.67,8.14-4.23,12.75-.37,3-3.65,3.24-6.11,3.71s-3.6-1.8-4.15-3.45c-.8-2.39,1.14-3.75,3.07-5a11.25,11.25,0,0,0,5.53-10.4,14.27,14.27,0,0,1,2.32-8.28Z" fill="#3a3129"/><path d="M778.71,642.35c2.1-3.94-3.41-3.28-3.56-5.86,3.63-.38,6.49,4,10.48,1.73.16-.1,1.2.72,1.15,1-1.29,5.65,4,7.77,6.19,11.51-4.11.61-6.75-1.56-8.32-4.92C783.38,643.05,781.54,642,778.71,642.35Z" fill="#635950"/><path d="M801.32,663.72l-1.26-3.53a4.92,4.92,0,0,1,4.8,4.72Z" fill="#5a5147"/><path d="M509.13,590.43c-8.09-2.46-11.44-8.25-7.63-13.28,1.75-2.3,3.56-4,6.89-2.08s7,0,10.17-.94c10.1-3,18.05,2.26,26.38,6.18.12.05-.21,1.05-.33,1.61-10.94,1.53-21.27,5.49-32,7.82C511.45,590,510.29,590.2,509.13,590.43Z" fill="#7e7266"/><path d="M553.13,596.87c-9,4.77-18.21,8.49-26.86,13.48-3.58,2.06-4.79-1.62-6.55-3.15-2.28-2,0-3.57,1.58-4.59C531.07,596.33,542.05,596.31,553.13,596.87Z" fill="#695f55"/><path d="M583.91,590.27c3,5.82,9.78,4.17,14.2,7.17-4.38,5-11.18,6.24-16.3,2.93a5,5,0,0,1-2-2.08c-1.72-4.5-1.66-4.52-6.42-4.37C576.71,591.08,581.8,594.71,583.91,590.27Z" fill="#5b5146"/><path d="M560.07,579.59c1.4-3.81,3.87-4.31,7.16-2.31C565.31,579.51,562.76,579.77,560.07,579.59Z" fill="#5b5146"/><path d="M582.55,655.57l-10.61-8.39c1-4.33,9.84-9.87,13.18-8.15s8.15,1.94,7.92,7C592.75,652.32,587.58,654,582.55,655.57Z" fill="#85796d"/><path d="M614.75,632.94c6.49-1.63,13.6,1.26,19.77-2.72a2.08,2.08,0,0,1,2.7,0c1.23,1.09.37,2.21-.14,3.17-1.84,3.45-3.78,6.84-5.68,10.26-2.76,4.1-6.17,2.58-9.11.62A17.25,17.25,0,0,1,614.75,632.94Z" fill="#5b4e41"/><path d="M957.07,850.9c.08,2-.55,4.13.51,6.09s-.45,2.15-1.77,2.44c-2.06-1.56-.91-4.95-3.53-6.19l-2.49-11.89,0,.14c2.75-.48,1.63-3.7,3.46-4.83,2.95,0,1.89,2.7,2.25,3.91C956.45,843.89,956.6,847.44,957.07,850.9Z" fill="#2c2722"/><path d="M950.92,678.07c-1.62-7.73-4.3-15.33-3.34-23.42,3.29-.48,1.36,3,3.22,3.44l.33,4.57c-2.14,3.56.1,7.08.27,10.6C951.47,675,952.65,676.59,950.92,678.07Z" fill="#473e34"/><path d="M954.74,905.06c1.32-3.17.87-6.52,1.07-9.81.55-9.16,3.14-17.88,5.78-26.59l3.73-1.15c-2.65,12.1-4.69,24.22-4.18,36.73.14,3.5-2.09,7.09-3.23,10.64-1.53,2.41-2.4,1.17-3.19-.57C954.52,911.23,956,908.15,954.74,905.06Z" fill="#2c2722"/><path d="M811.94,650.74l.06-3.57c3.27,1.56,4.37,5.06,6.4,7.63,1.44,1.83-1,2.74-2.85,3h-1.19C810.39,656.53,810.62,653.82,811.94,650.74Z" fill="#6a6158"/><path d="M811.94,650.74c.24,2.55.69,5,2.42,7.08-1.78,4.45-4.57,5.41-8.73,2.79-1.78-1.12-3.41-2.12-3-4.46a4.58,4.58,0,0,1,4.28-4.16A12.47,12.47,0,0,0,811.94,650.74Z" fill="#493f36"/><path d="M952.07,645.74c-1.66,2.2-.21,5-1.6,7.59-4.13-6.33-4.06-13.78-6.45-20.42.35,0,.7,0,1.05,0,2.86,2.16,2.86,2.16,4.19-4.27C951,634.56,951.44,640.17,952.07,645.74Z" fill="#594f44"/><path d="M943.67,542.4a9,9,0,0,1-1.1,6.59,4.35,4.35,0,0,1-1.87-3.53c.07-8.4.08-16.81-.29-25.23,2.08,6,3.55,12,2.48,18.33C942.67,539.87,942.36,541.34,943.67,542.4Z" fill="#594f44"/><path d="M938.43,565.48c-4.33-5.44-3-11.64-2.71-19.39C938.1,553.45,938.12,559.48,938.43,565.48Z" fill="#594f44"/><path d="M949.52,354.87c2.76,5.34.27,11.15,1.47,16.63,0,.08-.2.3-.31.31a1.79,1.79,0,0,1-.56-.17c-1-2.64-.33-5.79-2.44-8.09L945,356.84A6,6,0,0,0,949.52,354.87Z" fill="#73442d"/><path d="M950.49,323.13c-.27,4.19,1.68,7.86,2.72,11.74-.42.3-.21,2.68-1.25.73C949.88,331.74,948.67,327.55,950.49,323.13Z" fill="#4a372e"/><path d="M780,730.07c6.64-1.28,9.38,5.14,14.33,7.2-2.22,2.9-5.09,5.79-8.74,4.18C781,739.45,780.55,734.51,780,730.07Z" fill="#62412e"/><path d="M933.82,858.33c2.36,5.15,2.57,10.65,2.89,17.54C931.83,869.74,933.72,863.89,933.82,858.33Z" fill="#2c2722"/><path d="M940,825c.35,5.56,1.11,11.16-1.59,17.63C937.18,835.77,937.49,830.28,940,825Z" fill="#2c2722"/><path d="M682.48,661.39c6-1.75,11.12-5.24,16.41-8.39,2.57,0,1.49,1.55,1,2.59-.9,1.75-2.5,3-3.46,4.74-1.7,3.07-1.19,5.25,2.47,6.19a28.09,28.09,0,0,0,5.22.9c3.68.24,6.6.87,5.81,5.84-.41,2.56,2.15,3.38,4.13,4.31,2.47,1.17,5.51.71,7.66,2.74.47,2.24.7,4.12-.58,6.57-2.71,5.24-1.3,7.06,4.59,6.4,4.89-.55,9.62,2.36,14.52.33a2.19,2.19,0,0,1,1.95.95c2.49,9.57,14,9.18,18.47,16.62,1.43,2.34,4.79,2.77,7.6,2.26a22.29,22.29,0,0,1,12.5,1.38c4.37,1.75,8,1.46,10.65-3.52,2,2.8,2,5.63,2.77,8.13a15.92,15.92,0,0,0-10-2.45c-7.32.53-14.61-3.4-22-.11-.81.36-2.54-.25-3.25-1a45.57,45.57,0,0,0-16-10.41,1.62,1.62,0,0,1-.88-.76c-3.92-11.73-14.34-6.33-22-8.2-1.24-.3-2.33-.42-2.81-1.61-1.95-4.82-6.35-6.34-10.67-7.91-3.51-1.28-7.29-2-8.16-6.61-.48-2.58-3.17-3-5.17-3.32-3.29-.55-5.61-2.55-8.35-4.05C679.14,669.85,679.39,666.08,682.48,661.39Z" fill="#9e8e81"/><path d="M721.68,680.31a18.94,18.94,0,0,1-10.74-2.45c-1.91-1-4.33-2.52-3.11-4.91,2.1-4.08,0-4.1-3-4a16.5,16.5,0,0,1-4.63-.56c-2.4-.61-5.73-.45-6.52-3.14-.83-2.86.81-5.56,2.83-7.91,1-1.21,3.83-1.7,2.4-4.34a3.52,3.52,0,0,1,3.72-3.09c1.91,0,1.12,2.1,1.47,3.3,1.16,4,4.16,3.74,7,2.62,3.93-1.51,7-3.2,4.79,3.68-1.68,5.34.85,7.52,6.35,6.26,2-.46,3.45-.46,2.55,2-1.05,2.78.78,4.44,1.78,6.47C725.91,677,723,678,721.68,680.31Z" fill="#aea399"/><path d="M953.13,896.41c-.31,3-.62,6.05-.92,9.08-.65,5.73-.08,11.85-5.17,16.17-1.89.4-3.11-.65-4.21-1.94l.27-2.11c1.53-.15,2.8-.83,2.76-2.48-.26-9,7.62-16.08,5.89-25.51C953.77,891.79,952,894.31,953.13,896.41Z" fill="#2c2722"/><path d="M954.39,862.82c.33,7.91,1.25,15.84-1,23.63-4-1.62-2-5.24-2.64-8-.94-5,1.52-9.76,1.08-14.78C951.71,862.35,953.16,862.08,954.39,862.82Z" fill="#2c2722"/><path d="M948.48,935.05c1-4.3,1-8.89,3.53-12.76,1.5,4.91,3.88,9.74,1.33,15-1.6,2-2.19,4.39-2.62,7.12-2.05-1.79-.27-4.43-2-5.91C948.61,937.35,948.54,936.2,948.48,935.05Z" fill="#2d2823"/></g><g id="frame"><rect width="1000" height="1000" fill="none"/></g></svg>