<!-- Copyright (c) 2022 - 2023 Jan Stehno -->
<svg xmlns="http://www.w3.org/2000/svg" viewBox="0 0 1000 1000"><title>eurasianwigeon</title><g id="eurasianwigeon"><path d="M747.94,793.31c-2.78-.44-4.79,1.27-7,2.45-3.33,1.3-4.29-.92-4.65-3.38-.34-2.24-1.73-3.76-2.7-5.61-2.31-4.41-5.24-5.1-9.37-3L721.84,785c-4.18,2-5.88.56-5.16-3.86.23-1.42.33-2.63-1-3.63a12.5,12.5,0,0,1-3.82-4.29c-.78-1.56-.85-3.38-2.06-5.11-1.58,0-2.84,1.15-4.23,1.94-2.5,2.36-6.59,2.27-8.53,5.49-1.17,1.33-2.67.52-2.63-.46.29-5.88-5-9-6.66-13.86-.39-1.09-.54-2.24-1-3.33.1-.73-.32-.07-.31,0,1,3-1,4.12-3.31,5l-3.62,3.4c-3.82,1.68-4.35-1.34-4.71-3.64-.56-3.67-3.3-6-4.87-9-1.43-2.75-4.13-1.36-6.14-2.19-4.86,1.07-9.47,2.87-14.67.37-9.05-4.33-11.07-8.17-9.6-21,.76-3.55,3.11-6.39,4.35-9.73,2.62-7.07,7.87-12.26,12.28-18.16a75.73,75.73,0,0,1,18.36-17.69c2.17-1.48,4.56-4.37,7.15-2.93,2.89,1.62,1.87,5.27,1.36,8a72.29,72.29,0,0,0-.78,12.19c-.05,2.69.25,5.48-1.74,8,2.95-2.92,4.55-6.86,8.47-8.49,8.95-.58,10.72.46,14.31,8.42,2.37,5.26,5.37,6.91,11.2,6.19,1.37-.17,2.7-.52,4-.76,8.41-1.49,10.89.66,10,9-.46,4.28.65,5.94,5.15,4.44,2.89-1,5.83.09,8.7.63,3.22.59,4.53,2.89,4.68,5.89.16,3.24,1.93,4.45,5,4.35,5.23-.16,9,1.79,11.11,6.87,1.29,3.09,4.45,3.55,7.48,3.68,5,.22,7.75,2.5,7.38,7.7-.22,3,1.19,3.9,4,4.42,9.12,1.63,10.57,5,6.41,13.43a115,115,0,0,0-5.19,11.14c-.83,2.27-2.3,4.46-5.12,3.87-3-.64-3.13-3.18-2.51-5.63.78-3.09-.59-5.22-2.86-7.53a14.71,14.71,0,0,0-4.37,8.81c-.39,3-1.72,5-4.92,5.7a7.38,7.38,0,0,1-7.79-2.84c-1.6-1.93-2.5-4.4-4.61-6-1.75,1-1.12,2.8-1.49,4.23C749.41,790,749.57,791.91,747.94,793.31Z" fill="#1e1a16"/><path d="M462.28,529.44c1.49-1.4,3.35-.86,5.05-.87,14.32,0,28.66-.31,43,.25,7.55.29,15,2.46,22.54,3.21,19.17,1.92,37.72,6.62,55.89,12.59,7.89,2.6,15.8,1.75,23.58,3,9.81,1.57,20.28-.75,29.5,4.91,2.69,1.65,6.7-.66,9.51,1.91,1.22.51,2.67.61,3.4,2a15,15,0,0,0,1.68,1.61c1.27,1.14,3.08,2.07,2.3,4.23-.69,1.9-2.4,2.36-4.21,2.63-1.1.17-2.35-.39-3.4.68,1.1,2.69,5.28,2.76,5.5,6.19-2.39,3.24-6.55,6.09-2.45,10.25-2.18-4.55,1.51-7.48,4.19-10.77,2.12-.92,4.43-2.49,6.34,0a4.39,4.39,0,0,1-.41,6c-4.69,3.85-.28,5.06,1.71,7a4.19,4.19,0,0,1,.09,1.69c-2.11,3.17-.07,6.74-1,10-1.31,2.88-3.42,4.08-6.6,3.24-2.66-.69-5.43-.4-8.13-1-4.59-1-6.91-3.36-5.76-8.23,1.94-2.54,4.15-1.36,6.28-.36,1.92.89,3.44,2.64,6,2.69-1.95-4-8.24-3-9-8.06-.13-1.9-1.44-3.07-2.75-4.21-3.31-2.89-4.24-6.26-2.19-10.27a9.55,9.55,0,0,0,.56-2.24c1.86-6.61-2.93-9.49-7.2-12.65-6-1.83-7.82-1.06-9.31,4.07a3.17,3.17,0,0,1-1.3,1.85c-3.59,2.45-11.46,0-13.25-4.13-3.1-7.11-3.1-7.11-11-6.43.57,1.24,2,1.13,2.88,1.78,1.12.8,2.53,1.54,2,3.16-.41,1.22-1.79,1.47-3,1.54-4.33.27-8.46,1.08-12,4,1.31,1.22,2.71.46,4,.63,3.76.5,4.07,2.34,2.26,5.24-3.94,6.33-3,8.3,4.36,9.61a34,34,0,0,1,6.85,1.62c1.51.61,2.9,1.55,2.73,3.4s-1.92,2.24-3.48,2.47c-2.72.41-5.5-.09-8.21.48-1.57.33-3.27.88-3.4,2.72-.15,2.07,1.85,2.19,3.26,2.73,4.53,1.71,8.82-1.64,13.33-.63,2.12,1.54,1.94,3.72,1.69,5.93-1.78,3.26-1.27,8.08-6.25,9.18-3.27-.93.15-4.38-2.18-5.66a6.65,6.65,0,0,0-6.6,1.13c-7,5.27-15.5,8-22.57,13.14-8.61,1.22-16.67,4.3-24.75,7.3-.73.27-2,.43-2,1-1,8.44-10.31,8.48-14.19,14-.73,1-2.11,1.68-3.12,2.62-3.47,3.26-4,6.51-.28,10a7.86,7.86,0,0,1,2.63,3.81,4.69,4.69,0,0,1-.2,2.49,4.85,4.85,0,0,1-.57,1c-9.34,12-9.25,9.64-18.45-1-1.66-1.93-2-4.58-.35-6.49,3.27-3.72,4.67-8.38,7-13.05-3.86-.23-4.21-3.23-5.78-6.44-3.46-7.08-4.83-13.64-2.45-21.12.57-1.82-.89-3.2-2.55-4.16-2-1.19-4.05-2.46-4.19-5.2a2.64,2.64,0,0,1,.79-1.55c16-4.81,30.78-13.12,47.37-16.18a46,46,0,0,0,10.58-2.77c.47-.26,1-.5,1.43-.75,1-.66,2.49-1.41,2.36-2.44-.67-5.52-.53-11.29-4.11-16.07-1.46-.6-3-1-4.41-1.65-7.64-3.61-15.37-6.41-24.12-6.44a39.48,39.48,0,0,1-19.53-5.68c1,1,2.58.88,3.55,1.93a2.3,2.3,0,0,1,.87,2c-.24,1.18-1.27,1.39-2.23,1.51-2.21.26-4.36-.56-6.28-1.25-6.65-2.42-13.69-1.17-20.44-2.56-2.64-.54-6-1.1-7.65,1.39-1.5,2.29-.33,5.36.86,7.76,1.33,2.67,4.1,2.84,6.69,2.5a171.9,171.9,0,0,1,18.69-1.57c8.86,2,10.86,4.37,10.07,12a44.89,44.89,0,0,1-17.61,4.89c-1.15.1-2.33-.22-3.51-.12-6.67.56-8,2.42-5.93,8.8,1.95,6.07,5.16,11.68,6.56,18-5.68,5-10.46,4.25-13.26-2.26-.77-1.79-1.24-3.75-2.4-5.32-4.27-5.75-5.82-11.47-2.11-18.38,2-3.84-.82-8.12-6.17-9.29-4.23-.93-6-3-6.53-7-.32-2.31-1.6-4.38-2.27-6.63-1.18-4-2.6-7.58,1.79-11,2.43-1.89,2-4.68-1.34-6.51C467.25,531.49,464.2,531.68,462.28,529.44Z" fill="#50463b"/><path d="M508.59,597.53a9.44,9.44,0,0,0,3.11,3.39c1.56,1.29,5.3.68,4.76,3.33-.65,3.14,1.6,6.68-1.29,9.4s-1.3,5.24.72,7.52c1.42,1.61,3,3.05,3.28,5.34.85,6.06.88,6.06,8.62,6.67-6.64,2.93-4.92,10.06-9.89,13.47-2.78,1.91-2.66,5.48.2,7.47,3.16,2.21,4,7.76,8.18,7.43,3.89-.3,4.41-6.16,8.24-7.72,6.69-1.08,10,1.29,9.07,7.83-.93,6.34.72,11,4.71,15.84,4.42,5.33,4,5.65,8.88.07a5.44,5.44,0,0,1,2.24-1.33c6.28.21,9.14,2.32,9.28,9.36.16,7.84,6.46,11.23,10.2,16.45,1.53,2.15,3.48.69,4.85-1,2.23-2.72,4.86-4.74,8.62-3.62s4.17,4.41,4.76,7.47c1.48,7.79,8.59,10.63,13.56,15.33,1.11,1,2.87,1.25,4.1,2.25,1.42,1.73,1.23,3.63.51,5.52-1.53,4-4.83,5-7.59,1.79a34.54,34.54,0,0,0-11.09-8.44c-3.23-1.62-4.66-4.69-5.67-7.88-1.32-4.22-3.16-5.66-6.89-2.09-2.43,2.32-5.66,3.13-7.58-.08-3.76-6.26-10-7.31-16.12-8.15-6.29-.85-10-4.4-12-9.72-2.7-7.43-8.74-11.19-14.92-14.91-2.43-1.47-5.22-2.1-7.38.73s-1.86,6,.46,8.53,5,4.38,7.26,6.8c1.11,1.18,3.11,2.1,1.75,4.3-5.81-1.26-10.49-4.63-15-8.2-1.61-1.29-3.74-3.46-3.63-5.09.53-7.93-6-8.92-10.77-11.52A61.3,61.3,0,0,1,493.36,665c-5.27-5-5.54-12-.29-17,3.88-3.68,3.46-6.06-1-8.34-2.59-1.32-5-3.22-7.77-3.91-6.84-1.74-10.6-7.39-15.43-11.55-4.44-3.82-3.68-6.79,1.41-10.19,6.45-4.33,6.37-4.5.88-10.16-6.35-6.55-13.23-12.73-16.64-21.53-1.23-3.18-2.31-6.52,0-9.46,3.16-4.11,1.44-7.05-1.46-10.19-5.05-5.45-9.55-11.25-11.88-18.48s-1.19-9.82,6.51-11.72c4.85-1.19,9.78-2,14.68-3,2.86.38,5.64.46,8.32,2.24,5,3.34,5.32,7,.12,9.85-2.12,1.16-1.71,2.44-1.31,4.34,1,4.72,4,8.82,4,13.84,0,1.49,1.35,2.95,2.69,2.46,3.42-1.26,4.46,1.57,6.65,2.77,6.14,3.33,4.08,7.27,1.87,11.44-2,3.8-2.25,7.18.77,10.71a24.93,24.93,0,0,1,4.1,7c3.27,8.33,3.87,8.64,12.07,4.71C503.58,596.68,505.85,595.87,508.59,597.53Z" fill="#382f27"/><path d="M748,787.63c-.26-2.84.93-5.21,2.42-8.18,2.46,3.62,4.65,6.72,6.73,9.9,1.72,2.65,3.91,2.32,6.65,1.8,3.12-.59,3-2.48,3-4.68,0-4.69,3.71-7.43,5.71-12.09,2.6,4.88,7.9,7.75,3.94,13.57-.59.87.52,2.29,1.81,2.57a2.5,2.5,0,0,0,2.82-1.67c1.92-6.33,5.88-11.73,8.15-17.86,1.29-3.46-3.15-7.75-7.73-6.71-5.66,1.29-5.75-1.82-5.13-5.3.89-5-1-6.86-5.9-6.72s-8.61-1.19-9.92-6.87c-.83-3.59-4.64-3.83-7.83-3.6-4.73.34-8-.2-7.31-6.37.38-3.65-6.52-6.26-11.62-4.79-7,2-8.27.83-6.87-6.57,1.22-6.44-.37-8.06-6.83-7-2.49.42-5,.68-7.48,1.24a8.26,8.26,0,0,1-10.42-6.64c-1.63-8.11-7-8.62-13.28-8.65-1.56-2.49.61-3.93,1.67-5.62,1.83-2.95,4.66-5.22,6.34-9.09-4.62-.2-9.37.54-11.89-4.22-.54-1-1.68-1.9-1.64-3,.18-5.32-2.31-6.08-6.88-4.6-4.4,1.43-6.94-1.27-8.8-4.84a12,12,0,0,1-1.13-3.91c-.19-4.41,1-9.4-6.87-7.64-2.9.65-5.56-2.43-6.09-6a9.48,9.48,0,0,1,1.38-5,45.89,45.89,0,0,1,2.69-3.81c2.52-3.37,5.75-3.69,8.54-.93,5.63,5.6,12.85,9.59,17,16.73,1.21,2.07,2.55,4.59,5.82,3.9,3-1.89,6-1.88,7.4,1.51,2,5.05,6.21,7.94,9.95,11.3,7.12,6.39,14.2,12.74,23.8,15.59,6,1.79,10.68,6.52,16.49,9a3.71,3.71,0,0,1,2.16,1.92c3.32,9.34,12.38,9.69,19.81,12.58a15.61,15.61,0,0,1,3.91,1.29c3.82,2,4.06,4.2.81,7.22a13.11,13.11,0,0,1-3.85,2.67c-5.67,2.32-11.48-.3-17.37.43-6,.76-10.12-4.21-12.33-9.94-.67-1.75-1.81-3.11-4-2.47a4.11,4.11,0,0,0-3,3.34c-.43,2,.53,3.4,2.36,4.19a40.58,40.58,0,0,0,6.17,2c3.73.93,7,2,8.18,6.46.7,2.71,3.69,3.3,6.18,3.88,3.9.9,7.49,2.19,10.19,5.39,2.1,2.5,5.28,2.18,8.16,2.67,4.61.8,9,2,8.94,8.06,0,2.5,1.83,2.78,3.71,2.5,4.45-.66,7.54,1.16,9.92,4.78a22.12,22.12,0,0,0,6,5.52c3.36,2.37,5,5.43,4.25,9.57-2.92,9.54-6.33,18.85-12.9,26.65-1.37,1.64-2.48,3.58-4.85,4-3.63,3.45-5.93,8.18-10.48,10.74-1.88.45-3.72-.72-3.71-2,.09-7-7.1-9.95-8.52-16,.68,2.58,2.42,5.18-.69,7.4l-2.65,3.2c-3.51.84-5.35-1.18-5.59-4.12a7.08,7.08,0,0,0-3.53-6C750.23,795.81,748.78,791.88,748,787.63Z" fill="#28251e"/><path d="M789.26,597.42c5.89,1.88,12.08,3.11,16.38,8.21,2.1,2.48,5.8,1.75,8.22,3.69a5.35,5.35,0,0,1-2.51,1.45c-1.58.53-3.09,1.4-2.87,3.22.29,2.45,2.34,1.36,3.75,1.4,5.48.18,10,3.37,15,5,3.86,1.25,7.61,2,11.53,1.09,5.69-1.27,11.31-.54,16.94.3a7.41,7.41,0,0,1,4.66,2.27c.93,1,2,2.1,3.55,1.43,6.74-3,13.25-1.08,19.77.81a3.19,3.19,0,0,0,3.3-.62c3.42-3.41,7.07-.11,10.61-.33,2-.12,1.41,1.84.63,3a8.16,8.16,0,0,1-4.34,2.89c-2.09.78-4,1.58-4.14,4.34,2.33-1.13,3.68-3.46,5.95-4.51s4.38-.75,5.67,1.44-.1,3.85-2.07,4.63a14.69,14.69,0,0,0-6.69,5.52C890.13,646.14,885.7,646,881,649c7.84-.85,7.11,5.64,10.12,8.47,1.25-.78,1.17-1.8,1.33-2.72.42-2.54.73-5.44,4-5.72,2.8-.23,4.35,2.58,4.81,4.45,1,4,3.49,6.65,6.26,9.28-2.67,4.08-1.13,8.28-.71,12.68,4.26-2.73,4-6.51,3.51-10.36,1.2-2.74,4.5-1.88,6.27-3.57.12-.48-.06-.8-.52-.79-2.07,0-4.6,2.42-6-.94-1.13-2.74.9-4.26,2.77-5.71,1.52-1.19,2.38-3.92,5.17-2.25,3.4,2.28,7.89,3.68,7.07,10,1.77-2.44,3.63-3,5.16-4.13,2.36-1.67,4.66-2.91,6.58.67.8,1.49,3-.24,3.93,1.43a4.2,4.2,0,0,1,.46,3.19c-1.35,2.81-.43,7.81-6.51,6.26,2.53,1,5.17.28,7.19,1.92,2.16,4.1,4.38,8.2.27,12.43a3.21,3.21,0,0,1-1.74,0c-3.14-3.85-6.62-5.44-11.26-2.16a4.18,4.18,0,0,1-5.86-.37c-2.71-2.68-3.06-.52-3.28,1.73-.08.78,0-.19,0,.59,0,2.21-.16,5.11-2.49,5.31-2.74.24-2.35-3-2.93-4.91-.39-1.3-.43-2.69-1.11-4.65-2.87,2.09-5.7,3.33-6.18,7.58-.51,4.44-4.63,4.24-7.46,4.77,5.7.7,13.12-6.06,18.3,2.46-2.64,3.82-6.74,2.13-10.21,2.53-2.33.26-4.87-.34-6.74,1.38-4.36,4-7.73,2.37-10.85-1.57a11,11,0,0,0-2.19-1.94,32.17,32.17,0,0,1-3.49-3c-5.12-4.69-5.12-4.69-1.48-11,.94-.83,3.42-.47,2.28-2.93.92-2.22,3-3,5-3.81a15.92,15.92,0,0,0,5.16-2.75c1.89-1.77,5.59-3.22,4.1-6.24-1.59-3.24-4.41-.44-6.65.28-4.16,1.33-7.35.36-9.18-3.79-.62-1.41-.84-3-2.3-4-2.45-1.14-5.41-1.12-7.41-3.28-1.35-1.45-2.81-.62-4.33-.21-6.31,1.68-8.32,1-11.5-4.43a3.1,3.1,0,0,0-2.66-1.63c-1.54-.28-3.39-.12-4.55-1-3.23-2.48-6-2.3-9.53-.26a5.27,5.27,0,0,1-6.93-1.35c-1.34-1.74-2.2-3.93-1-6,1.6-2.63,4.24-2.29,6.83-1.7a4.28,4.28,0,0,0,3.75-.53c-2.55-.66-5.11-.58-6.84-2.7-1.55-1.91-2.13.25-3.06,1a11.37,11.37,0,0,1-15.64-1,8.76,8.76,0,0,1-12,4.86c-2.14-1-4.67-2.23-5.44-4.27-2.12-5.63-7-8-11.47-11.09-4.89-3.38-5-5.71-1.73-14.39.93-3.41-1.21-8.22,5.44-9.39C790.19,599.56,790.19,599.56,789.26,597.42Z" fill="#574d44"/><path d="M535.57,698.9a49.12,49.12,0,0,0-9-8.72c-2.65-2.15-4.47-5.09-3.45-8.67.8-2.81,2.12-5.54,5.62-6s6.71,1.37,8.71,3.33c4.8,4.71,11.68,7.56,13,15.8.44,2.67,4.28,6.27,9.77,6.94,6.09.73,13.89.92,17.14,8.94,1.44,3.54,4,1.47,6.07-.37,5.57-5,6.38-4.91,8.62,2.33,1.37,4.41,3.63,7.6,8.09,9.22a13.77,13.77,0,0,1,7.28,5.64c1,1.64,1.92,3.93,4.23,3.31,2-.53,2.51-2.82,2.92-4.73a15.73,15.73,0,0,0,.1-2.92c-.77-1.63,0-2.94.89-4.23,9.19-7.13,9.33-7.18,13.24,3.25,1.6,4.26,3.68,7.16,8.76,6.68a3.47,3.47,0,0,1,3.09,1.37l0,4.64c0,13.21,7.39,18.92,20.4,15.65,1.22-.31,2.28-.4,3.2.58,0,.8-.79.92-1.18,1.38L650.19,763c-3,.27-3.05-2.46-4-4.11-1.62-2.86-3.48-5.55-5.23-8.45,0,2.32,1.92,4.24.84,6.55-8.5,2.11-16.45,7-25.79,4.87-3.6-.81-5.42-2.6-5.15-6.46.24-3.5,0-7,.15-10.52.14-3.11-.75-4.23-4.1-3.31-5.26,1.42-10.72,2.13-15.93,3.7-4.29,1.29-8.09-.35-12-1.09-2.61-.48-2.93-3-2.84-5.15.18-4.45.44-8.93,1-13.35.45-3.48-.37-4.68-4.24-4.71-8.54-.06-17-.3-25.14-4.14-3.77-1.79-5.65-4.43-4.72-7.59C545.17,702,541.14,700.12,535.57,698.9Z" fill="#322a22"/><path d="M907.13,663.22c-5.92-.88-5.8-6.62-8.44-10.15-.74-1-.15-3.68-2.75-2.89-1.94.59-1.41,2.54-2.05,3.85-1,2.07,2,6.14-2,6.17-2.89,0-4.28-3.6-4.72-6.5-.35-2.32-.74-3.85-3.59-2.82-1.41.51-3.7,1.45-4-.43-.37-2.32,2.16-5,3.84-5,5.31.2,7.7-3,10.14-6.63a5.38,5.38,0,0,1,4.34-2.63c1.43-.08,2.83-.58,2.81-2.31a2.59,2.59,0,0,0-1.21-1.79,3,3,0,0,0-3.8.32c-2.28,2-4.53,4.12-6.83,6.21-1-6.62-1-6.61,4.75-8.64a17.8,17.8,0,0,0,2.62-1.31,4.82,4.82,0,0,0,2.19-2.07c-2.67-.41-5.52,2.34-7.24-1.33a1.69,1.69,0,0,0-1.54,0c-6.42,6.7-12.72-1.11-19.17-.3-2,.26-3.61.39-5.08,1.72s-3.69,2.28-4.65.63c-4.67-8-12.75-5.7-18.66-4.63-9.13,1.67-16.46-1.47-24.23-4.43-2-.75-3.61-2.31-6.05-1.47-2.09.72-5,2.05-5.18-1.84-.12-2.91.54-6.07,4.88-5.62a20.49,20.49,0,0,0,2.35,0c4,3.21,8.92,3.42,13.46,4.89,8.71,2.82,17.84,3,26.42,5.88,5.41,1.84,11,2.3,16-1.45.83-2.73,3-3.92,5.51-4.71,4.32-1.38,6.56-4.58,7.86-8.67,2-6.44,4.78-12.75,2.76-19.77a3.85,3.85,0,0,1,.88-3.28c4.66-2,7.9,0,10.12,3.92,1.37,2.38,2.49,4.78,5.4,5.59,2.78,2.57,6.46,4.75,3.94,9.55A1.9,1.9,0,0,0,907.6,604c3.85,0,6.38,3.83,10.37,3.25a5.12,5.12,0,0,1,3.67,1.23c2.43,1.65-4.62,3.25.43,5.24,2.42,1,1.18,4.63-1.48,6.57-.89.66,3.72,10.77,5,11.41,2.08,1,5.76.5,5.25,4.21s-2.27,7.1-6.41,8.23a45.34,45.34,0,0,0-6.17,2.6c.53,1.88,3.62,2.8,2.28,5.3-.66,1.23-1.61,1.62-2.83.64-3.33.32-4.36,3.7-6.85,5.21-.53.32-.29,1.89.67,2.5s1.53.1,2.2-.85c1.34-1.9,3-.79,4.55-.06.92.44,1.75,1.1,1.5,2.2-.47,2.09-2.62,1.15-3.83,1.92-1.64,1-4,.16-5.32,2,.84,1.15.67,2.14-.64,2.72a2.17,2.17,0,0,1-2.53-.78C906.28,666.18,906.72,664.69,907.13,663.22Z" fill="#4a4239"/><path d="M822.05,848.47c-2.48-2.19-3.41-5.26-4.69-8.14-6.63-9.49-6.32-20-4.81-30.8,2.57-18.25,3.56-36.76,9.3-54.48,1.22-3.76,2.26-7.53,6.44-9.18,4.13-.29,5.75,2.57,7,5.7.95,2.32,1.68,4.73,3.26,6.75a5.84,5.84,0,0,0,6.63,2.28c6.32-1.58,6.34-1.5,6.94,5,0,11.89-4.39,22.92-6.83,34.33-1.18,5.5-2.87,10.95-4,16.46-1.82,8.83-6.34,16.7-8.52,25.37a15.4,15.4,0,0,1-4.35,6.83C826.17,851,824.11,851,822.05,848.47Z" fill="#27221c"/><path d="M789.26,597.42c1.3,1.34,1.62,3.29.46,6.16-.77,1.93,2,4.07-.52,5.74-1,1.49-1.82,3.14-4,3.16-5.69-.59-11.26-1.4-15-6.57a3.16,3.16,0,0,0-3.68-1.22,46.1,46.1,0,0,1-17.53,3.44c3.3,1,6.59.64,9.82,1,6.3.66,8.21,3.08,7.73,9.65a3.71,3.71,0,0,1-1.68,1.88c-10.85,2-20.81-1.58-30.83-4.83-2.63-6.72-10.53-7-14.94-12.58-4.86-6.09-9.44-11.89-12.42-19.07-.92-2.21-3.35-3.37-5.14-4.37,3.62,4.07,1,7.51-1.65,10.94-2.21.78-4.6.52-6.83,1.17a40.36,40.36,0,0,1-7.29.12,6.36,6.36,0,0,1-2.48-.77c-3.21-3-3.2-8.33-7.62-10.47-3.79-1.77-5.58-4.54-3.44-8.47,1.84-3.36.46-5.5-1.92-7.62a20.86,20.86,0,0,0-8.75-4.63c-2.81-.75-5.78-1.29-8-3.47l-2.31-2.15c9.73,1.49,18.55,5.4,27.09,10l7.09,3.82c-2.64,2-2.94,3.9.29,5.85-.33-2-2.36-3.88-.31-5.86,7.63.78,13.54,5.73,20.38,8.45,7.9,3.15,16.61,4.34,23.72,9.55,2.37,1.74,5.45,2,8.48,1.82,7.7-.46,15.15,1.14,22.57,2.85,5,1.15,9.9,2.36,15.08,1.92S784.81,595.69,789.26,597.42Z" fill="#4f463d"/><path d="M945.88,985.52a48,48,0,0,1-4.39,12.92c-3.45,3.58-5.28.16-6.89-1.9-5.93-7.57-10.07-16.13-13.3-25.14a8.32,8.32,0,0,1-1.62-1.68C913,967,909,962.42,908.74,955c-.08-2.14-.93-4.2-3.62-4.55a8.92,8.92,0,0,1-6.12-7.25c-1-6.9-4-13.33-4.52-20.3-.16-2.24-1.34-4-2.32-5.91a21.25,21.25,0,0,1-1.44-3.41c-.66-3.42-1.59-6.79-1.91-10.28a38,38,0,0,1-.82-4.61c0-2.33-.39-4.95,2.11-6.25,2.7-1.41,4.91-.1,6.7,2,1.53,2.43,1.27,5.18,1.26,7.84,0,4.5,1.79,7.38,6.55,7.91,2.81.53,4.84,2.27,6.67,4.31,2.44,1.85,3.53,4.59,4.62,7.27s2.31,5,5.62,6.07c4.2,1.41,3.92,5.56,3.29,9-.82,4.49.87,6.59,5.15,7.26,4.88.77,9.07,3.24,13.36,5.47a34.56,34.56,0,0,1,2.9,17.16C943.39,972.89,943.75,979.19,945.88,985.52Z" fill="#1b1714"/><path d="M829.15,746.29c-3.3,2.19-4.42,5.54-5.62,9.15-6.56,19.72-6.7,40.53-10.63,60.68-1.66,8.49,1.69,16.37,4.46,24.21-7.43-8.23-9.11-17.66-5.82-28.29-3.55,5.07-4.93,11.08-9.06,15.65-1.64,1.82-2.67,3.95-5.56,2.75s-6.41-1.44-6.5-5.66-.14-8.58-.24-12.87c0-2.31.39-4.71-1-6.85,8.07-8.73,12.47-19.45,16.59-30.32,1.28-5.5,3-10.76,7.28-14.84,1-1,1.91-2.55.71-3.6-7-6.15-5.47-14.88-7.26-22.61.35-5-1.22-10.16,1.12-15,3-1.62,2.67,1.34,3.19,2.54,1.75,4,4.1,6.64,8.94,5.13,2.16-.67,3.86.24,5.29,1.63,3.34,3.26,6.76,4.34,10.7,1a1.64,1.64,0,0,1,2.13.26C839.2,735.91,835.6,742.93,829.15,746.29Z" fill="#8b8277"/><path d="M822.05,848.47c5.61,2.7,7.59-1.62,9.05-5.25a167.87,167.87,0,0,0,7-20.91c4.13-16.09,7.72-32.32,11.72-48.46.72-2.91.48-5.78.69-8.66,1.16-1.05,0-2.89,1.33-3.87,4.51,1,8.84,2.37,12.08,5.91a291.59,291.59,0,0,1-9.44,45.64c3.5-1.1,6.14-1.34,9.1-.2,4.53,1.74,6-2.29,8.07-5s2.3-7,7.12-6.48c1.16,1.33.61,2.65,0,4s-1.59,2.69-2.31,4.08c-3.46,6.63-7.59,12.59-15.38,14.78-1.9-1.31-2.86-1.8-3.8,1.34a111.53,111.53,0,0,1-7.85,19.93c-1.85,3.52-3.05,2.69-4.59-.05-2.75-4.89-4.28-10.29-6.08-15.84-3,2.35-3,5.44-3.62,8.11a28.78,28.78,0,0,1-6,11.82C826,853.32,823.83,853.44,822.05,848.47Z" fill="#52463a"/><path d="M890.6,903.49q.63,5.25,1.27,10.5c-2.21.78-3.33-.83-4.32-2.18-2.75-3.75-5.11-2.59-7.5.32-1.87,2.27-3.16,5-5.28,7-1.73,1.67-3.56,4.19-6.28,1.15-1.89-10.5,0-20.8,1.06-30.18-1.86,2.32,0,6.29-1.24,9.75-3.87-4.07-6.45,1.12-9.72,1.35-1.51-3.29.61-6.61,0-9.91,6.58-9.37,6.89-20.28,7.2-31,.35-11.82,1.78-23.54,2.63-35.31,3.53-1.27,4.18,1.64,4.43,3.64.79,6.26,4.35,7.6,10.17,7.58,9.82,0,13,5,9.33,13.24-2.71.93-3.11-1.38-3.33-2.85-.81-5.36-4.63-4.73-8-3.84-4.32,1.16-3.55,4.43-2.24,7.58a6.44,6.44,0,0,1,.64,2.83c-1.3,4.42-2.62,8.84-3.49,13.36a46.47,46.47,0,0,1-1.81,7.08c2.69.33,4.06-3.07,4.91-5.32a17.23,17.23,0,0,1,2.89-2.34c2.1-1.09,3.78-.28,3.65,1.94-.23,4,.22,8.32-2.62,11.72a21.26,21.26,0,0,0-4.2,8.85c-1.55,6.3-.74,8.38,5.34,10.61C886.67,900,889.26,900.77,890.6,903.49Z" fill="#3e3029"/><path d="M891.84,849.55c1.85-9.12-.9-12.41-10.1-12-7.71.31-8.34-.18-10-7.69-.44-2.07-.65-4.33-3.39-4.83-2.15-2.48-5.24,2.24-7.29-.94.4-.65.66-1.7,1.23-1.9,8.28-2.95,10.84-10.89,15.33-17.14,2.5,3.76,6.61,5,10.46,6.63a2.84,2.84,0,0,1,1.45,1c3.77,6.92,10.87,11.16,14.51,18.32s6.75,14.73,12,21a3.51,3.51,0,0,1,2.41,2c.4,3.36-1.55,5-4.46,4.46a34.3,34.3,0,0,0-14.89.59c-1.55.42-2.5-.77-3.53-1.63C893.49,855.18,890.83,853.23,891.84,849.55Z" fill="#6d625f"/><path d="M858.75,901.1c1.37-.49,1.89-1.75,2.71-2.79,1.21-1.56,2.32-4.26,4.62-3.41,2,.72.55,3.44,1.07,5.19,1.62,1.83,1.16,4.1,1,6.15-.58,7.63,1,15.07,1.91,22.56.71,5.68,1.77,6.12,6.55,3.17,1.82-1.12,3.56-2.38,5.3-3.64,1.3-1,3-2.73,4.44-.51,1.24,1.84.59,3.75-1.28,5.06-.81.57-1.89.4-2.78.81-2.83,2.42-5.61,4.88-8.48,7.24-2.65,2.17-4.65,4.69-4.4,9.94-4.56-7.06-5.65-15-13.89-16.51-6.93-1.23-13.6-.62-20.47,4.94,1.23-7.95,3.94-13.82,6.85-19.63a58.6,58.6,0,0,0,12.93-14.92C855.8,903.24,856.09,900.87,858.75,901.1Z" fill="#2a1d19"/><path d="M902.42,592.89c-2.55-.12-5.35-.19-5.82-3.39-.83-5.65-4.81-6.78-9.51-7.14-3.66-.53-2.44-3.7-3.18-5.81,5.56-10.69,12.74-20.48,17.15-31.82,6.2-15.91,9.86-32.48,13.34-49.1,3-1.89,5.82-.43,8.67.43,1.72,1.45.43,2.56-.67,3.19-5.24,3-3.7,7.09-1.88,11.11,2.46,5.42,2.31,5.85-3.35,7.14-4.95,1.12-4.28,5.41-3.82,8.49a17,17,0,0,1-1.21,10.47c-2.65,5.73,0,9.37,6.5,10.21,2.13.28,2.91,1.82,3.61,3.42,1,2.23-.77,2.6-2.31,3.07-1.73.29-3.5.13-5.22.51-.91.2-1.87.22-2.36,1.32-1.62,3.62-1.65,3.61-5.13,2.61,4.38-1.06,5.76,4.31,9.38,6.46-1.38,2.71-3.88,2.05-6.1,1.94-1.87-.09-3.9-1.18-5.12,1.25-2.72,3.23-2.87,7.59-5.22,11.13-1.86,2.79,1.24,5.68,3,8.15S906.36,591.2,902.42,592.89Z" fill="#544a43"/><path d="M923.61,496.83c-3.19.52-6.11-1.05-9.21-1.2,2-12.91,4.84-25.62,2.39-39-1.38-7.48-.21-15.41-.19-23.14a1.2,1.2,0,0,1,1.69.32,7.39,7.39,0,0,1,1,3.73c.07,2.57,0,5.15.14,7.73s0,5,0,7.54c0,4.86,1.58,9.6,1.12,14.5-.09,1.05-.4,2.56,1.28,2.77a2.75,2.75,0,0,0,2.81-1.76c3.16-8.47,11.54-7.16,17.92-9.6a5.56,5.56,0,0,1,2.28,1.75c3.8,4.51,2.71,9.93,2.85,15.11q.08,3.21,0,6.42c-.11,4.2-2,8-2.62,12.11a6.14,6.14,0,0,1-.76,1.74c-1.08,1.27-2.35,1.95-4,1.31-1.48-1.3-1.35-3-1.23-4.74,0-.72.25-1.42.24-2.1C936.47,496.91,928.34,500.27,923.61,496.83Z" fill="#693d2c"/><path d="M917.75,437l0-3.49c-1.48-3.07-1.2-6.28-.86-9.53s.16-6.16-3.15-7.9c-2-1.95,0-5-2-6.95-.84-3.34-1.28-6.85-3.86-9.5-1.5-.75-.93-2.06-.9-3.23.58-6.51,1.06-13.06,8.07-16.45,1-.49,2.06-1.18,3.11,0,.07.18.23.39.19.54-2.82,11.82.86,23,3.34,34.28,1.25,5.69,4.63,10.26,7.23,15.22,1.36,2.58,4.44,1.89,7,1.46,4-.68,7.87-2.51,12.11-1.76,2.59,2.55,2.28,5.17.18,7.82a11.41,11.41,0,0,1-4.21,1.92c-3.76.9-4.85,3.09-4.34,6.83,1.09,7.91-5.92,16.38-15.63,17.37-2.38.24-3.65-.87-3.87-3.24s-.42-5-2.39-7c0-2.73,0-5.46,0-8.19C918.38,442.51,919.86,439.77,917.75,437Z" fill="#492518"/><path d="M922.46,335.05c.94-3.66,3.26-6.91,3-11-.08-1.12,1-3.2,1.8-3.38,6.88-1.49,6-6.67,6-11.57,0-.66.63-1.32,1-2,2.53,2.26.6,5.77,2.35,8.24,3.32,1.66,6.65-.21,10,.06,1.29,1.88.52,4.26,3.09,6.23,2.83,2.16,3.23,6.81,3.79,10.67-2,8.46.34,16.8.66,25.2a8.41,8.41,0,0,0-1.86,6.49,10.55,10.55,0,0,1-4.61,9.92c-3-3-2.39-6.17-.64-9.44.42-1,2.09.8,1.77-.4-1-3.62-.18-7.41-1.65-12.29.11.57-.47,1.87.16,1.41,1,1.91.61,4,.62,6-2.52,2.35-3.75,2.2-6.81-.56-4-3.61-5.91-7.14-6.48-12.2a10.42,10.42,0,0,0-3.61-6.56c-2.81-2.26-3.72-4.77-2.13-8.39C926,332.5,925.53,336,922.46,335.05Z" fill="#b48c62"/><path d="M921.31,969.1c0,.76,0,1.53,0,2.3-3.37,3.39-4.83,8.08-8.62,11.37s-5.49,1.43-6.94-1.61A28.11,28.11,0,0,1,903,965.85a12.9,12.9,0,0,0,.12-2.91c-.24-2,1.43-4.93-.77-5.9s-3.33,2.07-4.85,3.39c-6.7,5.76-9.15,5.19-12.41-3-1.66-4.19-3.13-8.38-1.65-13,1.19-6.94,3-13.75,4.29-20.66a18.27,18.27,0,0,1,3.09-6.19,3.53,3.53,0,0,1,2.35-1.42c1.81,2.66,2.13,5.88,3.1,8.62,2.5,7,1.86,14.8,5.74,21.34.94,1.58,1.88,3,3.94,3,1.58,4.89-.3,9.85.3,14.77.28,2.25-.41,4.58.55,7C911.34,967.51,916.63,971.08,921.31,969.1Z" fill="#3b3229"/><path d="M996.19,570.64c-.05,4.86-.32,9.74,0,14.59.14,2.37-1.73,6.11,3,6.64.26,0,.47,1.41.51,2.17.09,1.75.62,3.75,0,5.22-4.07,9.23-5.82,18.6-2.72,28.47,2.16,6.86.54,13.36-1.8,19.83a46.61,46.61,0,0,0-1.37,6.27c-.26,2.66-2.43,5.76,2.18,7.16,1.37.42.86,2.25.36,3.51,0,11.94.22,23.89-.2,35.82-.29,8.36-1.5,16.68-2.29,25-3.24-.31-2.5-3.44-3.74-5.18a32.33,32.33,0,0,1-1.48-12.66c.58-11.79,1.5-23.56.45-35.36.87-5.79,2.32-11.61-1-17.18-.82-6.19,4.83-10.91,4-17.08-.84-6-1.19-12-2.26-17.9a44.35,44.35,0,0,1-1.13-9.82,15.45,15.45,0,0,1,1.81-7.27,2.75,2.75,0,0,1,1.35-1.06c2.83-1.31,1.6-3.75,1.16-5.53a155.75,155.75,0,0,1-3.8-26.28c-.24-3.23-1.14-6.93,3.32-8.42C994.39,564.36,995.15,567.55,996.19,570.64Z" fill="#5c5349"/><path d="M917.73,379.61c-7.85,2.92-7.68,10.88-10.74,16.82-1-10.79-1.76-21.35,4.2-31.46,3.76-6.39,5.89-13.72,8.75-20.63,4.57,2.65,3.92,8.24,6.75,12,1.56,2.06,1.8,5,2.07,7.78a134.87,134.87,0,0,0,7.86,32.58,30.25,30.25,0,0,1,1.72,6.11c.57,2.79,2.11,5.32,2.28,8.24.06,1.12.37,2.57,1.62,2.77,1.86.29,1.87-1.55,2.35-2.7,1.09-2.63,1.77-5.56,5.19-6.29a2.63,2.63,0,0,1,1.52.8,7,7,0,0,1,.51,5.27c-1.22,3.62-2.52,7.21-4,10.73a2.84,2.84,0,0,1-1.49.92c-4.14,1.08-6.75-.74-8.49-4.35a34.07,34.07,0,0,1-2.65-6.48c-3-12.14-8-23.55-13.33-34.81a9.51,9.51,0,0,1-1.19-3.37A9.14,9.14,0,0,1,917.73,379.61Z" fill="#472b1d"/><path d="M922.46,335.05a7.06,7.06,0,0,0,3.68-4.27c.7-2,2.43-1.81,3.9-1.15,2,.89.86,2,.06,3.2-1.55,2.38-1.25,3.31,1.69,5.29,2.74,1.85,4.87,6.26,4.83,10.57,0,3.56-.29,7.34,5.17,7,.49,0,1.58,1.1,1.48,1.42-1.47,4.8,2.29,2.06,3.73,2.61a2.1,2.1,0,0,1,.73,1.67c-2.06,6.42-1.39,12.67,1.17,18.8.68,3.78-2.23,4.18-4.69,4.48s-5.25-.19-6.38-3.06c-1.28-3.25-2.92-6.47-2.66-10.1.15-2.18-.5-3.34-2.86-3.14a3.06,3.06,0,0,1-1.46-2.4c-1-5.56-1.09-11.39-5.25-16-.73-.8-.61-2.3-.13-3.39,1-2.33,1.29-3.92-2.13-4.16-2.24-.15-1-2.6-1.85-3.79A4.31,4.31,0,0,1,922.46,335.05Z" fill="#a17651"/><path d="M967.3,444.06c-2.39,8.59-.39,17.36-.67,26a40.74,40.74,0,0,1-3,14.91,1.16,1.16,0,0,1-1.74-.38,37,37,0,0,1-1.86-13.19c.07-9.12-2.38-18.11-.6-27.36,1.26-6.56-.17-13.25-2.75-19.48-3.76-9.06-4.15-19-7.48-28.14-.35-3.41,1.26-6.59,1.16-10,.37-2.1.72-4.71,3.46-4.38,1.94.23,1.83,2.68,2,4.38a12.61,12.61,0,0,0,.88,4.51,34.14,34.14,0,0,1,2.24,9c.95,9.75,2.72,19.29,6.41,28.42C967.23,433.45,969,438.55,967.3,444.06Z" fill="#6f4c33"/><path d="M883.91,576.55c2.68,1.06,1.17,4.38,3.18,5.81A37.34,37.34,0,0,1,885,604.48c-2.11,5-3.59,9.63-9.74,11-2,.42-3.69,2.1-5.52,3.2C870.78,603.39,875,589.18,883.91,576.55Z" fill="#623e35"/><path d="M951.87,386.59l-1.26,9.67c-1.69,1.85.07,3.49.35,5.21.22,1.38,1.38,2.83-.48,3.95h-.93c-4.23-1.22-8.94,2.49-12.92-1.26.64-3.31-1.42-5.9-2.26-8.83-3.1-10.74-7-21.34-7.16-32.71,0-2.18-1.51-3.51-2.16-5.31-1.59-4.36-3.39-8.64-5.11-13,.52-1.89,1-3.79,1.55-5.68,1.22,3.72,4,3.37,8.36,1.25-3.87,6.56-4.52,11.44,1.26,15.11a1.82,1.82,0,0,1,.64,1.54c-1,3.8.38,7.55.14,11.32,3.68,4.4,5.49,9.21,4.4,15.1-.81,4.44,2.62,8,3.55,12.12.28,1.22,2.09,1.76,3.5,1.75,1.9,0,1.63-1.75,2.17-2.94C946.91,390.9,946.55,386.27,951.87,386.59Z" fill="#6f4c33"/><path d="M962.39,500.2c1.57-5,3.15-10,5-15.66l2.56,6.41c0,3.34.47,6.22-2.13,9.65-1.79,2.38-.66,7.87.12,11.8,1.07,5.32.39,10.34-.76,15.5s-2.2,10.26-1.55,15.56c.17,1.35.35,2.95-.91,3.78-2.78,1.83-1.31,4.08-.9,6.26a26.55,26.55,0,0,1,.11,9.11c-.61,1.92-1.59,3.26-3.92,2.43-4.06-4.2-2.28-9.47-2.64-14.34.32-8.45-.68-16.93,2.16-25.26A28.51,28.51,0,0,0,960,510,10.51,10.51,0,0,1,962.39,500.2Z" fill="#66564a"/><path d="M967.36,561.41c1.57-2.35,1.43-4.77,1.33-7.58a168.41,168.41,0,0,1,2.14-33.93c.33-1.95.48-5.87,4.52-2.95l.09,2c-5.54,7.38-2.43,16.26-4.15,24.31-.16.77,1.15,1.85,1.78,2.79,2.92,4.19,1,9.31,2.66,13.74a7.25,7.25,0,0,1-1.89,5.69c-1.29.84-2.17.6-2.35-1s0-3.44-.23-5.18c1.11,7.72,1.42,15.29-4.21,21.7C963.42,577,963.58,568.47,967.36,561.41Z" fill="#66564a"/><path d="M892,917.47c-4.69,8.43-4.9,18.25-8.55,27a74,74,0,0,1,.77-8c.36-1.88-.37-2.46-1.92-2.75,1.85-1.54,4.52-2.61,3.14-6.46a84.64,84.64,0,0,1-12.11,8.58c-2.92,1.65-3.86,1.57-4.25-2.09-1.19-11.19-2.49-22.35-1.92-33.63,1.76-5,.67-10.76,4.15-15.45-3.14,12-1.73,24.22-1.73,36.35a7.49,7.49,0,0,1,1.18,2.64c1.64,7,3.12,7.49,9.08,3a35.7,35.7,0,0,0,6.4-6.77C887.63,918.12,889.07,915.89,892,917.47Z" fill="#73685f"/><path d="M980.61,915.16c1.14,10.88.08,21.63-2,32.31a16.74,16.74,0,0,0-.27,6.34c-4.3-1.39-3,3.52-5.11,4.53-3,.23-3.07-.23-1.13-4.63L972,943.36c-1.88-2.72,2.67-2.38,2.12-4.48-1-7.36,2.66-14.24,2.14-21.56-.1-1.4,1.12-2.36,2.56-2.75A2.34,2.34,0,0,1,980.61,915.16Z" fill="#1b1714"/><path d="M973.11,412.33c-.6,1.08-1.19,2.17-2.6,4.75,1.12-15.49-2.72-29.48,1.41-43.34.56-3.85,1.12-7.7,1.69-11.71,2.92,4.1,3.22,8.23,2.24,13.24a76.28,76.28,0,0,0-1.32,19.31C974.87,400.08,973.6,406.38,973.11,412.33Z" fill="#b48c62"/><path d="M858.75,901.1c-3.71,5.55-6.77,11.58-12,16-1.45,1.24-2.58,3-4.89,2.52,5.74-9.34,9.08-20.07,16.65-28.35C862.75,894.49,858.55,897.84,858.75,901.1Z" fill="#5a453b"/><path d="M961.51,491l-1.38,7a1.52,1.52,0,0,1-1.87-.31c-5.44-8.63-4.32-18.3-4.45-27.77.13-4.64,0-9.27.08-13.91,0-.87,2.3-3.27-1.22-2.8-2-4.29-1.59-8.64-.41-13,2.9-2.09,3,.57,3.31,2.14.51,2.36.1,4.93,1.87,6.95.77,4.93,1.79,9.81,2.55,14.74C958.38,473.1,961.12,482,961.51,491Z" fill="#472b1d"/><path d="M956.44,368.77c.21-7-.63-14.15,2.41-20.84q.87-6.49,1.77-13c0-.08.28-.2.4-.17a1.66,1.66,0,0,1,.49.29c1.81,5.15.42,9.95-.48,15.18a100.82,100.82,0,0,0-1.18,29,33.66,33.66,0,0,1,.15,5.22c0,.75-.79.92-.56.2.11-.38-.36-.93-.57-1.41C953.94,379.1,956.55,373.71,956.44,368.77Z" fill="#b48c62"/><path d="M663.07,752.3l1.18-1.38c3.37-1.89,5.67-2.17,7.45,2.43,1.36,3.51,5.62,5.7,4.46,10.57-.44,1.84,1.74,2.18,3.33,2.33-3.9,3.72-7,3.4-9.17-1.78-1.34-3.17-2.8-6.28-4.16-9.44C665.55,753.61,665.16,752,663.07,752.3Z" fill="#a49b8e"/><path d="M683.11,762.85c2.17-1.47,2.71-4.08,4.06-6.37,2.64,4.06,2.76,9.33,7.75,11.47,1.62.7.51,2.4.48,3.68,0,1.52-1.37,3.67,1.67,3.92-2,4.37-4.8,3.64-6.61.35-2-3.56-5.39-6.62-4.87-11.34C685.76,763,684.2,763.06,683.11,762.85Z" fill="#9d9488"/><path d="M945.26,985.52a22.87,22.87,0,0,1-.88-19c2.79-1,1.32-3.08,1.3-4.85,0-2.49-1.48-4.81-.84-7.36a1.73,1.73,0,0,1,1.21-.92c1.93,1.24,5-1.37,6.36,1.81a22.84,22.84,0,0,1,0,9.17c-1.63,3.41.72,8-3.3,10.72-.54,1.43-1.08,2.86-1.75,4.66-2.53-2-1.45-4.9-2.78-7.24C943.11,977.15,945.73,981.27,945.26,985.52Z" fill="#1b1714"/><path d="M765.82,805.2c1.49-2.77-.77-5.68.51-9,3.09,3.56,4.47,8.28,8.9,10.33,1.19.56.69,2.09.4,3.2-.75,2.95.43,4.88,3.11,6.07-3.37,3.63-5.75,3.16-7.13-1.66A18.52,18.52,0,0,0,765.82,805.2Z" fill="#a59b92"/><path d="M748,787.63c2.49,4.49,4.52,9.41,9.74,11.59,1.91.79,1.17,2.23,1.09,3.4-.21,3.22,1.12,5.14,4.32,5.78-2.37,4.65-5.19,1.5-6.56-.29-3.47-4.54-7.77-8.73-8.67-14.8C748,791.42,748,789.52,748,787.63Z" fill="#a4988f"/><path d="M944.67,300a4,4,0,0,1,1.33,4.61c-3.63,4.19-7,8.59-10.59,12.83-2.6-3.19-.59-6.89-1.17-10.3C935.9,302.14,939.47,299.89,944.67,300Z" fill="#50453b"/><path d="M724.23,783.78c2.38-1.52,6.74-1.1,5.38-6.59,2.08,4.49,3.19,8.55,7.43,10.6,1.38.67.8,2.42.61,3.73-.38,2.58.54,4.1,3.3,4.24-3,3.92-5.5,2.74-7.48-.82a38.27,38.27,0,0,1-3.12-7.38C729.37,784.37,727.21,783.52,724.23,783.78Z" fill="#a99e94"/><path d="M953.09,315.1c-.55,1.6-1.1,3.21-1.84,5.35-4.89-5.73-3-12.05-2.68-18.11C954,305.23,952.73,310.45,953.09,315.1Z" fill="#6f6256"/><path d="M705.6,770.06l3.9-5.73c3.5,4.43,2.73,11.42,9.42,13.3,1.13.32-.13,2.07-.6,3-2,4.07.11,4.7,3.52,4.37l-2.4,2.25c-2.93,1.44-3.92-.75-4.12-2.71-.62-5.91-4.91-9.77-7.61-14.52Z" fill="#5c544c"/><path d="M641.82,757c-1.15-3.09-3.76-5.92-1.41-10.41,3.45,5.79,6.61,11.11,9.78,16.42-2.18,1.89-3.34.44-4.4-1.33S643.7,758.06,641.82,757Z" fill="#8f877c"/><path d="M707.71,770c4.28,3.1,8,6.62,8.36,12.28.16,2.41.06,4.76,3.37,5-1.62,2.21-4,1.92-4.39-.23C713.83,780.76,708,776.59,707.71,770Z" fill="#b0a69d"/><path d="M913.72,416.11c6.08-.34,5.56,4.11,4.91,7.6a55.3,55.3,0,0,0-.9,9.83l-1.13,0C914.1,428,915.36,421.8,913.72,416.11Z" fill="#472b1d"/><path d="M955.49,335c-.11-2.51,0-5-1.21-7.39-1.89-3.55-.15-5,3.38-5.14,1.11,3.37,1.82,6.74.1,10.14Z" fill="#b48c62"/><path d="M966.06,940c.34-3.66.64-7.32,1.05-11,.17-1.5.19-3.29,2.55-3-.25,3.07-.51,6.15-.76,9.23C967.77,936.71,969.36,939.8,966.06,940Z" fill="#37332d"/><path d="M975.34,495.29c-2.16,1.16-2.18-.26-2.2-1.77,0-3-.82-6.4,3.4-7.54C977.09,489.2,976.31,492.26,975.34,495.29Z" fill="#66564a"/><path d="M966,946.33c1.9,2.53.93,5.56,1.47,8.32a12.48,12.48,0,0,0-1.55,6.74C963.6,956.36,965.16,951.35,966,946.33Z" fill="#1b1714"/><path d="M951.71,985.6c1.13-3.8,2.45.83,3.64-.08.62,3.45-2.38,5.84-3.64,9.09Z" fill="#1b1714"/><path d="M985.19,558.62c-2.06-.17-1.93-2.15-2.33-3.29-.69-2-3.45-5.18-1.09-6.08,3.18-1.22,1.67,3.43,3.29,4.82C985.1,555.59,985.14,557.1,985.19,558.62Z" fill="#5c5349"/><path d="M907.89,399.66c4.22,2,3.74,5.87,3.86,9.5Z" fill="#472b1d"/><path d="M974,501.19c-2.54,2.31.44,6.22-3,8.87.67-3.76-.82-7.46,2.91-9.87A1,1,0,0,0,974,501.19Z" fill="#66564a"/><path d="M669,671.43c2.27,4.76,6.07,4.47,10.24,3.08,3.65-1.21,6.42-1.85,5.3,4-.84,4.4,4,8.56,8.62,8.18,1.89-.16,3.77-.44,6-.72-1,7.32-8.16,10.73-10.23,17.08l-9.11,10c.76-10.48,1.48-20.27,2.26-31-16.72,10.1-28.68,23.12-36.78,39.71-3,1.24-6.15.61-9.13.3-4.6-.49-6.65-4.84-4.26-10,2.61-5.61,5.22-11.32,9.07-16.28.94-1.22,2.58-2.28,2-4-1.69-4.88,1.51-7.77,4.29-10.69,4.59-4.8,10.14-8.58,14.72-13.42,1.18-1.25,2.92-3.57,4.75-1.51,1.36,1.53.26,3.69-1.29,5.18-.84.8-1.64,1.65-2.28,2.27C664.84,672.79,665.89,669.51,669,671.43Z" fill="#564d43"/><path d="M669,671.43c-4.23,0-5.1,5.89-10,5.66,1.68-4.29,6.78-5.7,7-10.66-6.64,7.36-16,11.76-21.44,20.39-.31.49-1,1.11-.91,1.44,3.21,8.94-6.53,12.48-8.22,19.41-.62,2.55-2.73,4.66-3,7.5-.48,4.46,2.2,6.75,5.81,5.67,3-.89,4.76.73,7.1.91l-4.62,8.3c-10.8-.08-10.81-.07-14.29-10.47-.55-1.63-1-3.29-1.54-5.08l-8.93,5c-1.75-2.44.38-4.41.8-6.59,6.95-15.2,13.5-30.61,23.06-44.47,2.69-3.08,3.76-7.16,6.28-10.29,2.13-2.65,3.94-6.62,8.71-4.34,1.35,4.87,4.44,6.36,9.17,4.64,3.34-1.22,6-1.89,4.14,3.4C667,665,668.09,668.28,669,671.43Z" fill="#3c342d"/><path d="M656.73,740.32c-4-8.1-4-8.07,3.52-10.75,1.93-.68,3.75-1.65,6.22-1.71Z" fill="#39372d"/><path d="M664.41,595c.14-3.08-3.44-6.55,1-9.17,4.78,3.26,9.55,6.36,13.07,11.27,3.33,4.64,7.57,8.54,14,9.16a9.51,9.51,0,0,1,6.7,4.44c3.19,5.14,7.78,5.33,12.83,4.55,1.59-.24,3.59-.89,4.32.66,2,4.27,4.52,3.66,8.41,2.55s1.08,3,2.14,4.59c4.34-.86,7.79-.41,8.07,5.23.09,1.88,2.07,2.5,3.64,1.6,3.07-1.76,5.8-2.78,8.6.5.36.43,2-.95,3.27-.4,2.75,2.44,6.13,4.31,7.79,7.77.87,1.81,2,1.51,3.34.87s3.36-2.49,4.71-.57c1.84,2.61,6.12,3.59,5.73,7.59-.44,4.45,1.67,3.59,5.1,4.63,6.37,1.91,13.21.91,19.17,3.87,1.92,1,4.36,2.37,4.61,4.3,1,7.32,5.47,5.44,9.87,4.28a2,2,0,0,1,1.43.81,4.6,4.6,0,0,1-1.56,5.73c-3.14,2.35-2.69,5.12-1.87,8.3,1.73,6.72,3.15,13.49,6.32,19.82,1.41,2.81,2.76,6,1.82,9.49-6.58,7.9-12.75,7.49-16.94-1.34-1.12-2.37-2.12-2.71-4.44-1.87-10,3.64-10.06,3.59-16-4.42-.61-.83-1.26-1.74-2.26-1.63-5.28.58-9.22-2.49-13.68-4.42-4.26-1.84-8-3.4-7.58-8.89.12-1.73-1.06-1.84-2.36-1.56a25.69,25.69,0,0,1-5.24.69c-5.9,0-8.28-2.44-8-8.22s.14-6.22-5.54-4.72c-5.21,1.37-9.32,1.27-11.12-4.8a3.07,3.07,0,0,0-2.72-2c-4.88-.62-6.68-3.51-6.28-8.14.19-2.15-.82-2.78-2.86-2.22-2.38.65-5.24,1-6.23-1.59-1.58-4.13-4.27-5.17-8.4-5.41s-6.86-2.79-7.35-7.12c-.33-2.93-1.77-4.64-4.78-5a6.48,6.48,0,0,1-5.32-3.2c-1.38-2.47-3.67-2.67-6.1-2.59a27.56,27.56,0,0,1-8.6-1.3c-3.22-1.06-5.61-2.82-5-6.68.34-2,0-3.1-2.27-3.81-9.87-3.13-10.88-7.59-3.61-14.91,3.73-1.7,7.74-.61,12.06-1.13C666,598.64,664.56,597,664.41,595Z" fill="#968c80"/><path d="M654.84,602.33c-.86,1.28-1.81,2.51-2.57,3.85-2.63,4.63-.73,8.57,4.58,8.94,4,.28,7.91-.27,4.71,5.85-1.4,2.68.92,4.32,3.42,4.82,2.84.58,5.77.78,8.65,1.14.36,4.14-3.5,5.73-5.36,8.49-2,3-1.84,4.76.9,7.33,6.35,5.93,13.69,11,18.28,18.61,1,1.63,2.37,3.18,1.54,5.34-4.19.77-5.72-2.45-7.22-5.14-4.12-7.4-11.79-11.09-17.4-16.92-1.84-1.92-3.94-1-5.36,1.09-.86,1.27-1.36,2.83-3,3.43-9.92,3.28-14.61-1.31-13.64-14.12-3.46,4.43-7.27,6.49-12.25,3.56-4.09-2.4-5.56-8-3.51-13.4a26,26,0,0,1,1.66-3.07c1.3-2.4,3.89-4.67,3.86-7,0-3.41-4.34-2.08-6.52-3.49-4.83-3.15-6.45-7.72-4-13.06.72-1.55,2.06-2.82,2.4-4.62-7.38-.77-8-1.5-7.85-9.22,0-1.26.74-2.17,1.69-3.76-3.76,2.13-2.87,6.42-5.49,8.45-4.61,1.59-9.18,3.54-14.17,1.33-1.85-.82-4.93-.75-4.32-3.67a5.86,5.86,0,0,1,5.46-4.61c2.73-.21,5.49,0,8.23-.12,1.09,0,2.69.39,2.93-1.15.27-1.81-1.36-2.07-2.72-2.31-2.29-.42-4.58-1-6.9-1.17a10.61,10.61,0,0,1-8.5-5.6c-1.55-2.87,2.48-3.75,3.7-5.74.58-1,2.11-1.61,1.52-2.89-.74-1.63-2.38-1.11-3.58-.6-2.13.91-3.75-.26-6.1-1.08,4.78-5.61,10.94-6.58,17.85-6.49-1.23-3-4.08-2.37-5.92-3.41-1-.58-2.43-.9-2.16-2.28s1.83-1.13,2.93-1.16a60.59,60.59,0,0,0,6.47-.08c4-.55,6.13,1.42,6.23,5,.19,6.59,4.6,6.79,9.35,6.72,2.36,0,5.05-.05,2.17-3.38-2.22-2.58-.4-4.19,1.62-3.43,3.62,1.37,7.79-5.06,10.69,1,1.54,5.38,5,9.66,8.24,14l-1.21,1.19c-1.63,1.82-5.29-.88-5.94,2.15s2.56,4.31,4.46,6.1c2.07,1.93,4.92,3,6.23,5.78,0,2.82,2.15,3.29,4.24,3.94,2.88.88,4.58,3.31,7.29,5.21-3.05,1.88-5.47,2-7.79-.17-2.06-1.9-4.34-3.25-7.27-3.12a24.38,24.38,0,0,1-2.28,1.77c-3.68,2.75-3.42,4.56,1,6.25,2.52,1,5.17,1.59,7.78,2.3C653.17,600.07,655.18,600,654.84,602.33Z" fill="#443b33"/><path d="M750.38,630.36c-4.2,3.87-4.48,3.81-6.67-1.57-1.36.79-2.69,1.58-4,2.33-3.87,2.17-6.85.62-6.48-3.86.25-3-1.38-3.59-3.3-3.45-6.37.45-6.36.58-4.15-4.67-2.41-.15-3.23,3-6.21,2.36-2-.45-3.71.81-3.08-2.64.42-2.27-.73-3-3.56-2.5-5.37.93-11.22,2.82-14.58-4.71-.7-1.54-4.37-6.73-9.06-3.35a1.69,1.69,0,0,1-1.56-.08c-3.46-2.94-8.38-5.35-9.89-9.09-2.15-5.35-7.49-6.48-10.26-10.53-.65-1-1.43-1.84-2.15-2.75,0-.34.06-.68.08-1,1.08-1.53,2.42-2.39,4.37-1.75,1.69,2.53,4,4.39,6.28,6.39,2.48,2.17,4.56,2.11,7.12.85l2.21.38c3.73.35,5.27,5.06,9.32,4.29-.54-1.19-2.8-2.34-1.06-4.42,2-1.57,3.93-1.4,5.88,0,1.5.73,2.34,2.12,3.38,3.31,1.16,6,6.74,7.69,10.64,11,2.6,2.74,5.26,4.5,9.57,4.29,5.12-.25,7.51,5,11.22,7.66,2.91,2.07,5.46,3.85,9.1,4.34,3.45.47,6.85,1.59,8.9,4.87C753.25,628.25,753.62,630.16,750.38,630.36Z" fill="#ada49a"/><path d="M521.54,568.25c.93-7.13-2.94-10.43-9.43-11.62,6.29-3.25,13-1.35,19.52-1.46,7.29-.12,14.69,1.39,21.57-2.54,1.6-.92,3.37.43,5,1.11,3,1.26,5.79,3.31,9.35,2.84.19,0,.39,0,.58,0,1.51.27,3,1.1,2.09,2.64-3.56,5.92,8.43,13.1-1.6,18.35-15-3.27-30.33-3.81-45.29-7.06A3.26,3.26,0,0,1,521.54,568.25Z" fill="#5a4f43"/><path d="M567.53,556.58c-4.26,2.45-7.1-1.55-10.66-2.26-1.12-.23-4.69-4.45-3.26,1.46,0,.14-.86.72-1.32.73-5.44.08-11,1.25-16.24.74-8-.78-16-.23-23.94-.62-6.57.75-13.13,1.72-19.72,2.18-6.14.44-12-7.68-8.65-12.6,2.83-4.22,8.32-3.23,12.47-1.86,2.47.82,4.23,1.23,6.44,0a4.82,4.82,0,0,1,5.54.45c4.09,3.26,9.36.79,13.53,3.53-1.3-3.82-5.58-2.68-8.54-7C531.56,549.49,551.2,546.65,567.53,556.58Z" fill="#7b6c5d"/><path d="M556.89,581.11c-10.9,1.69-20.89,6.13-31,10.22-5.63,2.28-11.27,4.32-17.33,5.08-1.64.57-2.16-.72-2.38-1.75-.65-2.94-2.29-5.21-4.1-7.56-3.27-4.24-2.72-8.75,1-12,.89-.78,2.09-1.93,3-1.42,6,3.22,11.47-.51,17.16-1.15,3-.34,5.82.73,8.65,1.34,7.46,1.59,15.23.2,22.57,2.48C556.77,577.07,560,577.57,556.89,581.11Z" fill="#857564"/><path d="M558.1,678.44l-3.22,4.08c-2.34,3-4.28,2.19-5.68-.77a23.33,23.33,0,0,0-5.74-7.92c-2.81-2.44-2.05-5.76-1.7-8.7,1.06-9,1.2-9-7.24-11.3,0-.77,0-1.54,0-2.31,6.78-10.14,14.62-19.31,24.53-26.59a3.67,3.67,0,0,1,2.72-.76c3.29,2.39,7.27,4.33,6.39,9.5a4.43,4.43,0,0,1-1.11,1.29,53.74,53.74,0,0,0-16.39,13.45c.75-.11.78-.79,1.11-1.22,1.17-1.48,2.38-4.13,4.39-2.84,2.51,1.62.22,3.88-.85,5.5-1.94,2.91-3.17,6.26-5.76,8.79-2.14,2.09-2.26,4.54-.11,6.73C553.18,669.19,554.66,674.45,558.1,678.44Z" fill="#493e34"/><path d="M561.63,624.45c-7.91,6.87-16.32,13.22-22,22.36-1.17,1.9-3.41,3.15-5.15,4.71-9.08-9.57-8.71-9.76,2.27-18.62,3.68-3,7.56-5.58,11.31-8.39.43-.33,1.07-.68,1.15-1.1.75-4.14.73-4.13,4.15-5.33,7.71-2.7,15.18-6.25,23.59-6.43.56,1.26-.16,2.11-1,2.93C570.3,616.52,567.29,622.39,561.63,624.45Z" fill="#7a6a5b"/><path d="M556.89,581.11c1.24-2.33,0-3-2.11-3.44-10.13-2-20.67-.88-30.67-3.93-1.45-.44-2.62.47-3.78,1.18-1.33.82-2.66,3.76-4,0-3.77,2.33-7.4,3-11.5.29-.38-.24-4.51,3.88-3.33,7.55.3.92.41,2.21,1.07,2.65,4,2.66,4.05,7.32,6,11,0,.38,0,.75,0,1.12l-7,1.31c-4.76-6.75-6.31-14.91-9.73-22.25-1-2.18,1.77-4,3.7-4.42,3-.69,5.82-2.15,9.15-1.18,2.88.83,5.75-.09,8.27-1.7,2.72-1.75,5.73-.68,8.59-1l1.19,1.17c5,3.09,10.84,3.24,16.35,3.41,9.8.3,19.14,2.61,28.54,4.92C564.41,580,560.5,580.09,556.89,581.11Z" fill="#6c5e50"/><path d="M670.1,583.39l-4.63,1.44c-.43-.37-.81-.92-1.31-1.08-1.76-.55-4.27.42-5.15-1.83-1-2.67,1.89-2.89,3.19-4,1.8-1.59,2.75-3.65,1.76-5.66-1.36-2.72-3.77.38-5.63-.41a1.58,1.58,0,0,1-2.35,0c-1-2.43-3.7-2.64-5.51-4-1.18-.9-2.9-1.75-2.19-3.63s2.28-.76,3.54-.65a16.86,16.86,0,0,0,1.74.06c1.56,0,3.42.18,4.07-1.54.84-2.19-1.55-2.24-2.64-3.07a3.21,3.21,0,0,1-1.37-2.4c7.47,1.86,15.38,2.79,20.44,9.69,1.16,1.58,2.64,3.18.63,5-4,3.71-1.87,6.36,1.39,8.89C675.18,583.27,672.6,583.25,670.1,583.39Z" fill="#443b33"/><path d="M607.64,603.45c5.1-.5,2.81-6.26,5.89-8.2,4.79,0,4.88,3.68,5,6.9.12,4.29,1,8,4.87,10.55,5.42,4,5.47,4.06,1.62,9.22a21.9,21.9,0,0,0-4.3,10c-1.67,4.34-4.63,4.63-7.55,1.66-2.42-2.47-9.39-3.34-4.29-9.35a10.35,10.35,0,0,1,.79-.84c4.85-4.58,4.85-4.58-1-8.07C601.16,611,600.88,607.48,607.64,603.45Z" fill="#443b33"/><path d="M550,600.15c-2.28-1.92-4.26-.67-5.45-2.76,5.52-1.84,10.81-.61,16.21-1-.41,3.31-2.95,3.73-4.58,4.79a221.58,221.58,0,0,0-23,16.82c-1.31,1.12-4.38,2.91-4.82.46-.58-3.2-7.48-4.83-2.65-9a26.62,26.62,0,0,1,10.9-6C540.65,602.36,545.17,601.94,550,600.15Z" fill="#6e6052"/><path d="M575.69,613.9c.43-.75.87-1.5,1.31-2.25,6.75-6.61,16.74-8.06,23.58-14.71,1.44-1.39,4.84-1.34,7,.64a7.31,7.31,0,0,1-4.21,5.8c-4,2-5.77,5.37-6.91,9.34-4.29,5.07-10.54,5-16.31,5.76C577.68,618.82,575.4,617.17,575.69,613.9Z" fill="#443b33"/><path d="M595.86,611.66c0-4,1.72-7.16,5.5-8.49,3-1.06,3.71-4.28,6.27-5.59,5.14,1.95-1.58,3.92,0,5.87-5,6.24-4.82,7.24,2,10.93,7.76,4.22,7.76,4.22.44,10.16-4.81,3.69-10.51,3.8-16.19,3.94-1.12,0-2.56.2-2.94-1.25-.46-1.72,1-2.4,2.19-3,2.68-1.23,5.61-1.62,8.46-2.31,1.62-.4,3.63,0,4.41-2.1C602.92,616.7,597.09,617,595.86,611.66Z" fill="#564b42"/><path d="M654.84,602.33c-3.47-1.11-6.88-2.45-10.41-3.24-3.06-.69-6.17-1.35-6-5.06.21-4,3.7-4.41,6.92-4.65-.4,4.54,1.22,8,6.22,7.16,4.27-.73,9.38,5.29,12.8-1.52l5.82,7.31Z" fill="#564e44"/><path d="M623,614c-4.66-2.21-6.2-6.08-5.88-10.93.22-3.24,0-6.26-3.54-7.83-.3-2,.79-4.22-1.18-5.86.69-3.09.22-6.62,3.37-8.77,1.35-.92,2.95-2.93,4.36-.79s-.44,3-2.41,3.38c-.29,0-.4,1-.59,1.48-.74,3.75-1.52,7.48,3.64,8.89,1.93.53,2.3,2.06,1.63,3.7-2,4.89-1.78,9.34,1.86,13.53C625.11,611.85,625.55,613.78,623,614Z" fill="#584f46"/><path d="M567.62,577.75c-13-1.65-26.07-3.2-39.07-5.06-2.08-.3-4.78-.62-5.82-3.27,13.28,2.48,27,2.21,40.08,5.89,2,.57,4.21.67,5.79,2.31C568.27,577.65,567.94,577.7,567.62,577.75Z" fill="#857564"/><path d="M648.91,583.52a95.22,95.22,0,0,1-8.64-5.82c-2.23-1.87-5.72-3.79-3.85-7.5s5.09-1,7.74-.71c-2.13,4.59-.61,8,3.3,10.84C648.4,581,650.92,581.36,648.91,583.52Z" fill="#5b5248"/><path d="M645.37,568.3c-4.4-3.73-9.51-7-8.24-14,4,.56,5,6.58,10.47,5.32C643.94,562.14,644.11,565.11,645.37,568.3Z" fill="#5f564c"/><path d="M656,571.82h2.35c-2.14,4.41-6.45,8.64-.7,13.83-4.22-1.41-6.11-4.78-7-7.93C649.73,574.37,653.7,573.41,656,571.82Z" fill="#5b5248"/><path d="M618.15,713.48c-.74,2-1.49,4-2.23,6-.4,1.16-.81,2.32-1.22,3.48-3.9.21-6.73-2.05-9.12-4.55a33.38,33.38,0,0,0-6-5.46,7.74,7.74,0,0,1-3.88-6.72c-.09-3-.12-6.65-3.87-7.66-3.91-1.06-5.93,1.7-7.77,4.7-2.74,4.47-5.42,1.68-7.16-.77a32.45,32.45,0,0,0-6.14-6.89c-2.75-2.18-3.29-5.35-3.33-8.88-.08-6.94-2.08-9-8.18-9.49-1.67-2.52.3-4.2,1.41-6.08,1.26-1.45,2.71-2.73,4-4.21a59.06,59.06,0,0,1,6.79-7.77c1.57-1.36,3-3.09,5.5-2.3,2.13,1.73,3.63,4.08,5.71,5.85,2.86,2.74,2.54,5.43-.12,8.08a16.12,16.12,0,0,0-1.15,1.33c-6.09,8-5,14.34,3.36,19.87,2.82,1.88,3.38-.42,4.26-2,2.91-5.28,5.29-10.83,8.11-16.17,5.82-11,12.74-21.41,19.06-32.14,1.33-1.36,2.2-3.27,4.34-3.67,3.51.77,4.68,5.4,8.77,5.22,1.16,0,2.32-.08,3.47,0,2.5.09,4.59.9,5.29,3.56s-.56,4.43-2.61,5.86c-.94.66-1.94,1.24-2.92,1.84-5.86,5.08-12.17,9.67-17.21,15.65-6.27,7.14-10.26,15.28-11.21,24.79-1.91,4.41-2.3,7.74,3.72,9.7C612.11,706,614.06,711.21,618.15,713.48Z" fill="#493e34"/><path d="M561.68,671.49l-2.41,5.77-1.17,1.18c-6.43-2.52-6.2-10.35-11.35-14.13-1.38-1-1-4.66,1.43-6.72,3.84-3.3,5.29-8.21,9.19-13.19-5.41,1.46-5.58,6.27-9.19,7.43,4.5-7.51,9.67-14.35,18.23-17.88,1.52,1,4.28-.9,5,1.77.63,2.4-1.55,3.71-3.15,4.4-5.53,2.39-8.21,7.46-11.74,11.7-3.68,4.4-3.49,7.81.54,11.8C559.32,665.88,561.39,668.13,561.68,671.49Z" fill="#574b3f"/><path d="M689,666.7c-4.58-10.09-13.46-16.36-21.41-23.35-3.18-2.8-4.23-4.62-1-7.9a106.72,106.72,0,0,0,7-8.52c3.07.18,7-1.33,7.5,3.87,0,.49.71,1.35,1,1.32,7.65-.63,9.13,4.33,10.61,10.32.66,2.64,4.66,3.47,7.67,2.63,3.4-.94,4.93-.56,5.25,3.46.4,4.93,3.69,4.67,7.24,2.89,3.36-1.68,4.76-1.36,3.59,2.92-1.24,4.56-.72,8.42,5.66,7.68,2.67-.31,3.23,1.15,3.45,3.46.38,4.17,2.37,6,6.72,3.95a19,19,0,0,1,4-1c6.48-1.51,7.3-.72,5.79,5.59-1.44,6,.55,8.46,6.84,7.92,2.89-.25,5.72-1.05,9.32-1.74-2.41,7.06.12,9.61,7.14,11.87,4.58,1.47,8.28,5,13.74,3.29,1.56-.48,1.54,1.18,1.84,2.31,2,7.79,5.08,9.17,12.09,5.59l7.2-3.68c1.36,4,.15,9,5.21,11s7.55-1.84,10.85-4a8.12,8.12,0,0,1,5.07,2.65,27.21,27.21,0,0,0,10.79,6.71c2.38.74,4.15,2.27,2.53,5.19-5.91,1.38-11.27-1.61-16.94-2.24-2.86-.32-5.66-1.08-8.57-.65-2.53,5.35-.32,11.07-1.34,16.53-3.94-1.26-.92-5.9-3.2-7.2s-5.38,2.08-8.24-.1c-1.08-.82-2.43-1.32-3.45-2.2-6.75-5.81-15.82-4.62-23.47-7.69-.46-.19-1.09.31-1.55.69-5.47-.91-10.08-4.06-15.21-5.86a5,5,0,0,1-2.74-2.08c-5.13-10.3-15.34-13.72-24.92-17.2-8.17-3-13.22-9.37-19.6-14.26-4.19-3.21-8.63-6.35-10.41-12.08C693.93,663.06,691.08,665.42,689,666.7Z" fill="#574e46"/><path d="M768,718.26c.8-1.49,2.11-2.84,3.71-2,7.24,3.85,16.58,1.7,22.91,8.19,2.57,2.63,5.47,4.13,8.94.53,1.64-1.71,3.08-.43,3.37,1.9.34,2.62-.91,5.45,1,7.87a22.28,22.28,0,0,1,1.42,7.38c.24,4.06.22,8.9,4,11.12,5.6,3.33,3.34,6,.09,8.63-4.23,3.39-4.1,9.12-7.54,12.85.33-4-.62-7.15-4.67-9.14a12.63,12.63,0,0,1-5.1-4.67c-2.66-4.54-5.83-6.33-11.11-4.36-2.68,1-4.52-1.14-3.78-3.52,2-6.5-3-7.22-6.66-7.48-5-.35-8.92-1.13-12-5.57-1.79-2.55-5.73-2-8.68-2.94-3.19-1-6.49-1.9-6.31-6.21.11-2.56-2-2.56-3.53-3.05a56.07,56.07,0,0,0-8.45-2.34c-3.38-.52-5-2.43-4.7-5.5a6.46,6.46,0,0,1,5.34-6.16c3.9-.86,4.47,2,5.41,4.63,2.71,7.46,7.8,10.1,15.28,7.72a5.18,5.18,0,0,1,4.43.51c5.24,2.87,8.92-.32,12.55-3.28,1.74-1.42.94-2.85-.79-3.59A45.79,45.79,0,0,0,768,718.26Z" fill="#293823"/><path d="M631.23,653.86a7.3,7.3,0,0,1,1.25-1.18c2.34-1.31,5.57-2.2,4.34-5.81s-4.34-2.3-7-2c-.31,0-.66-.3-1-.47-2.77-4.54-6.83-8.15-9.4-12.83.93-6.17,1.36-7,7.54-14.59l-4-3c1.31-.92,1-2.06.21-3-3.25-4.08-3.1-8.64-2-13.3.41-1.71.61-2.84-1.51-3.62-5-1.86-4.54-5.47-2.61-9.37,1.68,1.14.08,2.44.2,3.64.29,2.88,1.46,4.82,5,3.75,1.29-.39,2.8-2.39,4-.14.79,1.51-.05,3-1.24,4.21a9.06,9.06,0,0,0-1.17,1.31c-4.28,6.15-1.7,12.72,5.79,14,4.5.8,8.09.53,3,6.42-2.81,3.26-5.84,7.24-5.3,13,.42,4.38,2.26,6.36,5.54,7.46s6.12-.1,7.48-3.73c.43-1.13.85-3,2.74-2.07a3.54,3.54,0,0,1,1.59,3.54c-.92,12.25-.81,12.37,11.33,13-.41,1.55-.83,3.1-1.24,4.65-4.9.05-6.75,3.8-8.91,7.21-1.71,2.71-2.1,6.28-5.25,8.06-.92.82-2.45.55-3.2,1.34-3.22,3.39-5.76,3.61-7.93-1-1-2.08-2.81-1.79-4.54-.85a12.49,12.49,0,0,0-5.54,5.88c-3.12,6.69-9.43,11.44-11.44,18.9-.49,1.83-2.91,2.45-5.06,1.54.46-10.17,4.76-18.59,11.81-25.77C620.53,664.35,627,660.31,631.23,653.86Z" fill="#564d44"/><path d="M917.84,854.23a2.53,2.53,0,0,0-2.45-1.13c-.59.34-1.47.1-1.39-.33,1-5.71-2.42-9.66-5.8-13.34-4.51-4.91-2.78-11.49-5.19-17-1.08-2.47,1.81-3.55,4.25-2.34s6.07,4.37,7.57,1.18c1.3-2.77-3.23-4.54-6-5.92s-6.26-2.75-4.46-6.83c1.65-3.73,5-4.1,8.51-2.69,4.05,1.63,7.8,2.73,12.2.37a17.69,17.69,0,0,1,8.73-1.69c-5.65-.19-7.91-3.4-9.15-8.4-1.11-4.5-6-4.89-9.54-6.38-3-1.29-5.13-2.32-2.8-5.8.63-1,.46-1.34-.31-2.32-4-5.09-3.88-5.17-1.83-10.91-1.54.14-2.92-.83-4.4-.74,1.31,3.15,1.62,6.54,3.58,9.33.8,1.14,1.2,2.63-.27,3.65-1.32.91-2.64.25-3.85-.45-2.54-1.47-4-4.41-7-5.24-2.13-.6-4.59-2.44-6.39.24-1.65,2.46.07,4.27,1.77,6.1,5.15,5.52,4.31,9.49-2.69,12.41-3.68,1.54-6.49.88-7-3.68.22-.82-1.19-.05-.41-.18.4-.07.5.07.39.44-.51,1.73-.54,4.11-3.48,2.46-.86-1.95-.26-3.82.2-5.72,1.53-6.45,3.75-12.72,4.88-19.27.33-1.93.89-3.82,2.77-4.93,3.15.13,2.54,7.06,7.64,3.79-3.28.81-4.67-1.37-6.16-3.36-3.82-1.35-.75-5-2.44-7.1a5.46,5.46,0,0,1-1-2.09,3.78,3.78,0,0,1,.8-3.29c5.18-4.55,3.26-11.23,5.2-16.75.72-2-7-8.6-9.2-8.13-1.63.35-1.71,1.93-2.24,3.12-1,2.23-1.12,5-3.93,6.09-1.73-.3-3.39.41-5.07.44-2.2,0-4.29-.37-3.59-3.46,6.68-1.23,8.34-6.61,9.13-12,1.37-9.32,6.87-17.24,8.5-26.42a3.05,3.05,0,0,1,2.38-2.34c3.39-.9,3.14,3,5.27,4,1.29.61,2.61,2.75,3.75,1.19,4.37-5.92,10.65-3.14,16.11-4,1.49-.23,3.17.33,4.29-1.19-.15-1.87,1-1.93,2.12-1.24,1.31.8.87,2.16.06,3a9.89,9.89,0,0,1-7.21,2.85c2.56-.38,6.16-.06,8-3.83a1.68,1.68,0,0,1,2.34-1,2.41,2.41,0,0,1,1.32,2.41c.07,3.48-1.41,6.06-4.89,7-1.59.43-3.33.3-5.59.67,7-.82,13.43.24,19.75-1.36,2.54-.64,4.63.8,5.06,3.61s-1.43,4.14-3.92,4.9c-1.31.4-2.74-.33-4.18.66,4.23,3,8.57,4.6,13.7,3.19a2.26,2.26,0,0,1,2.61.79c2.55,5.52,2.35,11.48,2.84,17.34A7.51,7.51,0,0,1,948,736.6c-1.47,1-3.82,1.25-3.22,3.94-3,9.61-3.06,19.54-3.38,29.46-.08,2.72.77,3,2.93,2,1.32.56,1.68,1.71,1.89,3-1.39,6.36-.61,12.67.52,19,1.34,7.46-1,14.46-2.74,21.51-3.18,1.08-2.5-2.17-3.61-3.12.34,3.7,4.85,6.62,2.56,11.12a1.38,1.38,0,0,1-1.54.3c-.82-.3-.08-1.16-.61-1.54-.2.68.06,1.43-.32,2.09-5.89,3.4-10.84,8.32-17.29,10.72s-7.22,1.92-9.63-3.92c-2,3.85.79,6.19,2.28,8.57,1.9,3,3.76,6,4.12,9.58C920.1,851.12,921,853.54,917.84,854.23Z" fill="#504439"/><path d="M945.77,714.81c-4.47,2.8-12.91,1.82-16.31-1.94-.9-1-2.06-2.28-1.46-3.6.91-1.95,2.38-.41,3.47,0,2.36,1,4.27,0,5.85-1.42.84-.75.54-2.23-.09-3.29-1.38-2.33-3.52-1.24-5.28-.88-3.15.63-6.17,1.72-9.51,1.17s-6.51-.72-10.1-1.09c2.59-1.92,5.76-1.06,7.9-2.42,2.37-1.52,4.14-4,2.09-7.54-3.13,6.84-8.69,5.86-15.87,4.72,4.91-1.2,8.37-1.93,11.76-2.93.95-.28,2.25-1.18.9-2.54-.13-.13-.91.38-1.39.6a13,13,0,0,0-12-1.79c-2.54.75-5.4.53-8.12.57-1.19,0-3.2.45-2.72-1.78a2,2,0,0,1,3.25-1.24c2.51,2.42,4.25-.15,6.3-.52,1-.17,2.21-.64,1.74-1.78-2.55-6.17,4.21-6.21,6.31-9.26.62-.9,4.51-2.4,2.91,2.49-.48,1.46,0,5.16,1.68,7.66,2-1.56,1.65-3.35,1.21-5.48-.37-1.83.11-4.07,2.08-5,2.22-1,2.69,1,3.74,2.47,2.61,3.6,5.36-.34,7.44-.94,4.89-1.42,6.15-1.51,8.61,4.11a11.3,11.3,0,0,1-.47,6.94c-3.55,4.35-7.8,3-12.08,1.62,1.92.68,3.8,1.65,6,1.44,1.33-.13,2.93-.57,3.34,1.3.37,1.68-1.09,2.31-2.3,2.91-1.54.78-3,1.85-4.87,1.83,3.83.06,7.58.52,10.87,2.72.79.54,1.24,1.43,2.42,2.37.5-3.18-.9-5.86-.85-8.63,2-11.82,3.16-23.61-1-35.27-.25-.71-.12-1.93-1.38-.75-1.23-.93-4.79,4.07-4.32-1.75.07-1-3.44-.58-3.43-.32.1,3.89-5.52,1.48-5.66,5.29-.05,1.37-2.83.41-2.76.13,1.59-5.55-3.59-7.16-5.94-10.39,2.91-.92,3.11-2.34.27-3.39-1.76-.65-2.88-1.23-2.44-3.18s2.45-.78,3.2-1.32c3.3-2.34,8.62-1.49,10.25-6.47.77-2.37,1.81-4.39-2.14-4.66-6.26-.42-6.34-5-6-9.57.16-2.25.34-2.24-4-2.49,2.75-2,6.46-3.7,5-6.85-1.77-3.8-4.24,2.87-6.79.35-.36-2.23,1.78-2.13,2.9-2.94s3.1-1.06,2.7-3.75c-5.86,2.78-9.42-3.12-14.55-3.64-1.88-.19-3.39-2-2.2-3.17,3.94-3.89-.37-5.94-1.46-8.71,3.64-4.34-1.35-6.28-2.89-8.78-2.2-3.57-2.11-6.39,1-8.72,1.4-1.06.55-1.95.87-2.86.73-2,.16-4.91,3.38-5.4a3,3,0,0,1,.75.88c1.51,2.55-1.45,6.73,2.77,8.2,4.5,1.56,9.36,2.13,13.85.72a19.64,19.64,0,0,1,8.12-1.19c-4.87.31-6.62-3-8.48-6.37-.8-1.45.55-3.31-2.39-4.67s.56-2.52,2-3.14c-2.2,0-5.49-.8-4.58-3,1.53-3.65,5-.25,7.64-.43.62.49.63-1,.31-.28-.14.31-.48.42-.52.22-.53-2.66-7.25-1.13-4.22-6.17,3.84-1.06-.62-1.89-.19-3.14.33-.94-.92-.92-2.05-.58-3.41,1-3.13.75-4.87-2.65-.65-1.27-3.18-1.59-4.94-2.38-.81-1.83,1.7-1.77,2.3-3.32,2.51-6.52.66-13.11,1.85-19.47.45-2.39,1.07-6.91,6-4.16.85.48,2,.88,2.39-.38a5,5,0,0,0,0-3.34c-4.9-9.88-4.87-10.2,3.15-15.67,4.82,1.35,12.32-2.16,15.1-7.07,2.13,2.24-.27,4.8.54,7.12,0,.09.37.13.55.11a2,2,0,0,0,.52-.26l3.28-1.15c1.29,1.84,1.95,4.72,5.3,3.12,4.33,6.33,4.55,13.8,5.83,20.93,2.95,16.46,1,33.35,4.27,49.79-.45,1.67-1,3.23-3.24,2-3.74-2.51-3.74-2.51-5-7.55,1.19-11.73-.3-23.25-2.58-34.75a18.2,18.2,0,0,1,.28-8.13c.16-.62.91-1.19.34-1.92-.1-.13-.27.18-.12.64.56,1.8-2.8-1.36-2,1.77,1.8,6.77,2,13.84,2.55,20.82.13,1.68,1.83,5.28-2.74,4.33-.31-.06-.61-.43-.6.09s.53,1,.69,1.6c1.88,6.12,4.45,12.19,1.42,18.69a3.09,3.09,0,0,1-3.27,1.48c-1.76-1.68-2.12-3.88-2.35-6.13a28.28,28.28,0,0,0-.28-16c-.67,3.08,3.25,6.62.23,10.34-2,0-2,.94-1.55,2.53,1,3.14,2.36,6.25,1.33,9.69-2,4.8-1.71,9.84-1.48,14.86.19,1.14.57,2.25.74,3.39.13,3.9,1.23,7.65,1.78,11.49.25,1.7.95,5.16-3.06,2.74-.08,0-.37-.8-.28-.14.46,3.35-2.31,6.64-.22,9.49-.74-4.57-.74-4.57,2.2-6,3.09,5.89,4.26,12.25,4.71,18.78-.51,3.47,1,7.26-1.66,10.38-3.75.39-3.8-2.91-5-5,1.13,3.45.3,7.11.68,10.69-.3.72,1.07,0,.29-.11-.26,0-.21-.2-.15-.52.25-1.34.73-2.22,2.3-1.4,2.92,13,8.67,25.26,9,38.82,0,1,.07,1-2.94,3.66-1.11,1-.23,1.72-.08,2.46,2,10.31-.54,20.84,1.55,31.13-.57,1.3-1.43,1.7-2.7.84C947.18,714.13,945.94,714.3,945.77,714.81Z" fill="#5c5349"/><path d="M888.31,693.66c-1.75,10.6-8.78,19.57-9.12,30.72-.2,6.85-5.31,11-11,10.34-1.34.53-1.58-.58-2.05-1.34a3.62,3.62,0,0,0,.51,1.5c2.29,5.16,3.41,5.4,9.81,2.18,2.48-2.25,2.51-5.57,3.73-8.37.56-1.27.76-3.51,3-2.8,3.28,1.05,5.57,3.79,8.71,5.34,3.48,1.71,1.15,5.49,1.33,8.49.39,6.87-3.72,11.66-6.16,17.24-.49,3.23-2.58,4.79-5.66,4.88-4.54.13-8.82.63-13,2.73-3.53,1.74-7.28-.05-10.73-1.58-1.87-.83-3.47-2.83-5.89-1.35-.08,1.28.17,2.68-1.19,3.55V760c-3.85,1.3-7.13,4.72-11,1.74a15.68,15.68,0,0,1-5.63-9.91c-.51-2.73-2.68-4.16-4.8-5.57,4.21-5.15,8.63-10.2,8.35-17.46l.67-.48c2.36-.52,3.87,1.44,5.87,2,2.44.65,4.92,1.33,6.86-1.12a42.06,42.06,0,0,0,5-8.8,3.39,3.39,0,0,0-2.26,2.27c-1.63,3.23-3.42,6.49-7.69,6.13-4.56-.4-7.63-3.57-9-7.49-1.37-4.08-3.41-6.26-7.74-6.53-2.55-.16-4.23-1.86-5.34-4.08-1.85-3.65-3.41-7.45-4.94-11.23s.07-6.13,4.15-6.19c3.17,0,6.29.32,8.5,3.09,1.26,1.58,2.9,3,5,2.69,4.64-.63,9.11-1.32,13.49,1.4,1.58,1,3.28-.7,4.73-1.69,2.45-1.67,4.51-1.73,6.58.87,3.75,4.7,3.86,4.61,6.74-1.2-.6-.12-1.1.42-1.61.37-5.85-.52-11.7-3.43-17.52.12-3.4-4-8.29-2.83-12.63-3.84-4.92-1.14-7.07-13.33-3.82-18.37,2.25-1.26,4.79-1.76,7.17-2.69a23.67,23.67,0,0,1,2.47-.66c4.35-1.28,8.58-3.59,12.42,1.61,1.34,1.81,4.5.56,6.56-.72,3.57-2.21,6.93-2.36,10.28.44,1.91,1.59,4.37,1.47,6.66,1.95a7.64,7.64,0,0,1,5.34,4.22C878.7,687.52,886.31,689.55,888.31,693.66Z" fill="#40382f"/><path d="M840,675a13.48,13.48,0,0,1-7,2.53c-4.8,1.06-5.64-2.32-6.18-5.7-.32-2-.26-3.69-3.1-3.88-4.54-.32-6.62-3.47-6.4-7.58.33-6.11-3.87-10.46-5.49-15.79-.76-2.48-3.3-2.35-5.5-2.29-4.21.1-7.77-1.75-8.45-5.74-.9-5.35-4.15-6.93-8.7-7.78-3.81-.71-6.42-3-7-6.91s-.81-7.87,3.56-10.15l3.5-2.36c-2.18,10.55-2.45,11,7.82,17,4.21,2.47,3.36,7.4,7.55,9.79,6.32,3.62,10.11,3.06,12.55-3.63a13.37,13.37,0,0,1,1.67-2.36c.72,3.89,2,6.17,6.09,6.22,5.15.07,9.45-.44,10.78-7.53,2.41,4.84,5.26,7.31,10,6.33a1.47,1.47,0,0,1,1.87,1,1.72,1.72,0,0,1-1.46,2.14c-2.16.45-4.21,2.43-6.62.47-1.69-1.37-3.47-.51-4.76.62s.08,2.49.33,3.77c.46,2.29,2.07,2.37,4,2.5,3.92.28,5.73-2.5,7.9-6,2.29,7.83,8.11,6.56,13.5,6.64.39,1.63-2.5,3.31,0,5s5.16,2.93,8.15,1.42,5.36-2.55,7.56,1.15c1.3,2.2,4.7.15,6.3,2.36-1.23,3.92-4.19,2.28-6.61,1.9-1.51-.24-2.88-1.91-4.33-1.52-7.52,2-13-2-18.58-5.83-4.31-1.38-8.46-2.1-13.09-.54s-8.34-.69-10.71-5.62c-1.46-3.05-6.55-4.62-9.43-2.93-1.8,1.05-1.37,2.66-.09,3.2,4.65,2,4.48,5.33,3.84,9.54-.6,4,1.81,5.64,5.84,4.87,1.93-.36,3.65-1.36,5.5-2,1.47-.5,3.21-1.21,4.19.56s-.42,2.88-1.55,4c-.42.4-.91.73-1.32,1.15-3.94,4.07-3.5,6.84,1.46,9.41C838.62,673,840.39,672.94,840,675Z" fill="#6a5f55"/><path d="M852.93,649.25c2-.37,3,.84,4.3,2.22,2.81,3.07,6,5.13,10.74,3.73,2.41-.73,5-1,7.48,1.3,1.79,1.66,4.69,1.59,6.94-.29,1.7.1,2,1.18,2.37,2.68,1.31,5.69,4.15,7.05,9,4.08,2.83-1.75,5.4-2.53,7.71.21,2.71,3.21-.73,4.67-2.33,6.57A16.86,16.86,0,0,1,891,675c-2,.62-4.12,1.28-5.08,3.5-2.53,1.92-4.47.79-6.24-1.19-1.39-3.54-4.16-.81-6.22-1.34a5.45,5.45,0,0,1-3.87-3.15,15.41,15.41,0,0,1-1-5.67c0-5.39-.78-5.93-6.1-4.4-3.92,1.13-7.48,3.3-11.54,4-3.3.6-5.48-.88-4.22-4C848.51,658.19,849.38,653.08,852.93,649.25Z" fill="#4a4239"/><path d="M880,676.09c1.15,2.72,3.61,2.33,5.87,2.43,1.34,3-1.1,2.08-2.42,2.35-4.53-3.5-11.08-2.26-15.39-6.72-1.38-1.42-3.91.05-5.89,1.23-4.13,2.47-8.43,4-11.23-1.89-.72-1.51-1.38-1.23-2.68-.58a42.36,42.36,0,0,1-6,2.05c-2.2-1.48-4.23-3.07-2.81-6.14.69-1.49,1.88-3.07,3.53-1.64,2.46,2.13,5.76.36,7.47,1.29,5.79,3.17,11.45,3.28,17.55,2,1.17-.25,1.92,1.15,2.55,2.15a3.69,3.69,0,0,0,3.56,2.33C875.88,676.38,878.38,674,880,676.09Z" fill="#6a5f55"/><path d="M939.85,659.72l-.39-3.42c4,3.91,7.42,17.71,6.25,24.32-.9,5.1-1.54,10.24-2.3,15.37-4.65-3.35-2.78-7.82-2.12-12.08,3.92-4.14.21-8.32.06-12.49-2.13-2.6-.3-5.69-1.06-8.46C940.14,661.88,940,660.8,939.85,659.72Z" fill="#5c5349"/><path d="M941.29,683.91c1.2,3.94-.26,8.34,2.12,12.08a47.37,47.37,0,0,1,1,5.63c.11,1.92,1.67,4.76-1.07,5.47s-1.46-3-3-4.05c-2.32-4.07-3.18-8.3-1.49-12.82.59-2.3-1-5,1.34-7Z" fill="#5c5349"/><path d="M907.13,663.22c1,.56,1,1.38.72,2.35a1.45,1.45,0,0,0,1.39,1.91c1.23.09,1.28-1,1.42-1.92,4.84,5.22-1.37,8.2-2.63,12.15-.29.92-1.72.32-2.45-.45-.89-1-1.53-12.37-.6-13.31C905.46,663.47,906.4,663.45,907.13,663.22Z" fill="#5c5349"/><path d="M940.29,663c1.53,2.68.9,5.62,1.06,8.46-2.15,0-4.3.07-6.44,0-1.44-.06-3.63.57-3.79-1.59s2-1.77,3.49-1.87,2.72,0,4.64,0C934.39,664.61,939.81,664.59,940.29,663Z" fill="#5c5349"/><path d="M915.73,668.69c3.93-4.46,7.72,1.25,11.06-1.25.32.42.94.89.89,1.27a2.24,2.24,0,0,1-1.66,2C922.29,672,919.63,669.07,915.73,668.69Z" fill="#5c5349"/><path d="M897.36,684.61c-.1,1.93-.77,3-2.15,2.77-2.47-.47-3.15-2.57-3.71-4.73-.36-1.37.25-3,1.23-2.45C894.65,681.28,896,683.28,897.36,684.61Z" fill="#5c5349"/><path d="M896.16,678.87a14,14,0,0,1,9.12.76C901.33,681.14,898.68,681.5,896.16,678.87Z" fill="#5c5349"/><path d="M933.44,664.69c-.62,1.07-1.6.93-2.49.65a2.05,2.05,0,0,1-1.55-2.62c.08-.33,1.35-.56,2-.48C932.79,662.39,933.26,663.47,933.44,664.69Z" fill="#5c5349"/><path d="M823.1,615.87a8.8,8.8,0,0,1,9.37,3.46C828,620.58,826,617.12,823.1,615.87Z" fill="#574d44"/><path d="M785.7,611.68c-1.4,2.57-2.69,5.11-2.42,8.23.33,3.84,1.36,6.79,5.94,7.21a41.2,41.2,0,0,1,5.64,1.42c2.53.62,3.79,1.79,3.91,4.77.23,6.15,2.74,7.94,9,7.15,3.42-.42,5.39.62,6.23,4.25,1.45,6.2,6,11.47,5.05,18.5-.27,2,2.32,4,4.66,3.4,4.74-1.14,4.56,1.57,4.35,4.68-.23,3.45,1.49,5.47,4.84,6.21-3.61,5.94-.29,12.61,2.93,15.19,3.53,2.84,10.24,3.26,15.38,4.12,3.33.55,7.24-3.62,11.51.85,2.42,2.52,5.33-2.29,8.87-1.82-1,1.68-1.82,3.13-2.62,4.59-1,1.88-.76,4.42-4.27,4.61-3.8.21-3.32-2.59-4.25-4.44-1.43-2.83-3-2.42-5.07-.65-1.37,1.2-2.63,3.87-4.75,2.43-4.71-3.19-9.59-2.49-14.63-1.67a4.33,4.33,0,0,1-4.88-2.56c-1.81-4.52-6-3.14-9.13-3.62-2.3-.34-3.21,1.65-2.07,4.05,1.75,3.7,3.41,7.43,5,11.19,1.11,2.58,2.71,4.16,5.8,3.87,4.36-.42,6.55,2.47,7.09,6,.59,3.89,3.43,5.75,6,7.33,3.64,2.24,6.17-.36,7.83-3.61,1.35-2.66,2.45-7.3,5.87-5.45,2.33,1.25-1.48,4.87-2.47,7.42-.67,1.74-2.22,3.14-3.37,4.7-6.72,2.89-12.94-.23-16.69-8.37,0-.29,0-.57,0-.86-.58-1.65-1-3.29-3.21-3.67-6.76-1.19-10.7-6.51-15.5-10.57-2.47-10-7.83-19.08-9.29-29.4-.47-3.33-2.95-7,2.76-8.65,1.74-.5,1.81-3.22,1.75-5.21-.51-2.44-1.16-4.19-4.31-5-2.72-.67-4.92-3.55-5.46-6.5-.88-4.86-4.26-6.72-8.32-8-3.14-1-6-2.21-6.28-6-.18-2.2-1.76-2.16-3.36-2.37-9-1.15-10.74-3.24-10.65-12.27a5.62,5.62,0,0,0-.56-2.25c-1.48-3.42-4.44-1.8-6.86-2-.35-7.34-1.39-8.34-8.71-8.46q-5.28-.09-10.56-.3c-.32,0-.62-.42-1.16-.82a6.07,6.07,0,0,1,6.95-3.51,16.87,16.87,0,0,0,12.29-2.46c2.1-1.35,4.89-1.52,5.88.29C773.85,609.87,780.18,609.88,785.7,611.68Z" fill="#574d44"/><path d="M751.5,626.82a6.78,6.78,0,0,0-5.24-3.31c-8.29-1-14.25-5.46-19.48-11.53-1-1.18-2.62-2.45-5.49-1.15-4,1.85-6.18-2.51-8.6-5.09.29-7.41-6.55-8.29-10.74-11.59a3.68,3.68,0,0,1-2.36-3.54c1.29-4.56,5.38-9.51-2.14-13,6.07,1.49,10.45,3.37,12.5,10.22,1.32,4.42,3.15,10.38,9.2,12.32a3.7,3.7,0,0,1,2.75,2.81c.81,5.35,4.86,5.87,9.13,5.94.89,0,2.58-.62,2.19.65-2,6.36,3.27,4.89,6.25,6.27,8.07,3.73,16.65,3.86,25.24,4.19,1.73,1.95,4.49.24,6.35,1.77,1.84,3.2.17,5.63-1.78,8-3.23,1.28-6.49,1.8-9.84.46C757.17,628.21,753.79,628.76,751.5,626.82Z" fill="#574d44"/><path d="M670.1,583.39c1.5-2,4.19-1.76,6-3.2,1.66.46,5.1-2.07,4,2.91-.55,2.51,4.57,3.66,3.15,7.22-2,2.83-3.58,6-6.94.77C674.58,588.4,669,588.61,670.1,583.39Z" fill="#b1a8a0"/><path d="M693.71,590.57c-.05,2.62,2.33,3.72,3.87,5.34-3.22,1.6-5.88-1.47-8.9-.06-1.65.77-1.32-.9-.89-1.62,1.7-2.88-1.86-2.18-2.34-3.53Z" fill="#968c80"/><path d="M685.47,568.26c-.39,2.42,1,4,2.53,5.62a1.82,1.82,0,0,1-.31,3,1.47,1.47,0,0,1-2.36-.8c-.88-2.36-5-2.49-4.23-5.73.49-2.1,2.59-2.07,4.39-2.08Z" fill="#50463b"/><path d="M770.25,622.08c-1.56.13-3.12.22-4.68.41-4.35.52-.74-1.63-.86-2.52l1-1c3-2.87,5.78-3,8.09.87C773.34,621.65,771.65,621.64,770.25,622.08Z" fill="#a79e95"/><path d="M985.46,759c0,2.31-1.86,5.74,3.09,5.06.79,16.67.72,33.39,2.7,50,.26,2.23,2.06,4.73-1.09,6.39-4.7-3.05-4.81-8.18-5.2-12.77q-.93-11-2.48-22c-.49-3.46-1.24-6.87.61-10.25,1-1.83.08-3.77-.5-5.64a49.54,49.54,0,0,1-1.83-23,33.9,33.9,0,0,0-1-16.7c-1.27-3.77-1.62-9.56,2.23-10.2s3.49,5.32,4.32,8.65a16.65,16.65,0,0,1,.27,4.64c2.4,5.15.5,10.29,0,15.44C986.09,752.07,987.29,755.69,985.46,759Z" fill="#5f5245"/><path d="M988.83,902.9c.75,1.48,2.1,1.59,3.53,1.52.93,1.76,2.16,3.58-.86,4.62-.29-.79-1-2.33-1.31-.4a42,42,0,0,0-.43,12.14,59.2,59.2,0,0,1,.32,13.88c-1.41,2.3-1.26,5.31-3.41,7.26-1.35-.36-1.11-1.62-1.45-2.55,1.46-10.31.19-20.56-1.39-30.68-1.46-9.39,1-18.36,1.57-27.52l.84.25c4.66,3.33,2.82,8.05,2.33,12.25-.5,4.38-1.28,8.75-2,13.13C986.87,905.22,986.7,903.44,988.83,902.9Z" fill="#1b1714"/><path d="M947,953.85h-.84c-2.76-1.56-2.37-4.39-2.93-6.76-.42.54.09,1.75-1,2.12-6.31-.16-11.39-4.2-17.4-5.42-2.35-.48-2.39-2.55-2-4.74.82-4.45,3.27-9.47-4.73-10.53-3.52-.47-2.85-5.18-4.27-7.82-1-1.82-2.39-3.51-3.09-5.52-.92-3-2.17-5.38-6-3.53-5.85-.11-8.29-3.35-8.24-8.88,0-2.5,0-5,0-7.51-.11-1.55,0-3,1.27-4.16,2.38-1.46,4.06-.94,4.75,1.82.51,2,1.19,4.07.81,6.22a7.31,7.31,0,0,1-1,2.1c-.8,1.28-2.33,2.72-1,4.15,1.74,1.91,3-.43,4.52-1,5.31,1.12,10.43-1.49,13.62-7.08a19.12,19.12,0,0,0,2.41-6.49c3.65-5.89,10.47-9,15.52-7.6,2.57.72,3.56,2.66,4.94,4.41-.66-.92-.82-2.07.16-2.51,2-.92,2.49,1,3.26,2.2.71,2.28-.06,4.77.45,6.86.76,3.12-5,0-3,3.72,1.26,2.32.08,4.95-.42,7.41-.8,1.09-1,4.64-3,2.08-3.37-4.23-4-1.1-5.31,1.21-1.81,2.63-4.09,4.51-7.38,2.92-2.62-1.26-2.71-3.53-1.78-5.14-.44,2.92-2.78,5.76-5.26,8.49-2.08,2.29-2.17,4,1.09,5.2,0-1.7-.34-3.43.11-5.13.53-2,1.9-3.6,3.72-2,4.73,4,6.72,1.15,8.63-2.78.33-.69.91-1.27,1.28-2,1.39-3,2.87-3.66,4.66-.26,1.56,3,2.81,6,2,9.43-.72,3.06,1,3.64,3.42,3.61a3.81,3.81,0,0,1,.76,3.17c-.18,1.08-.5,2.14-.62,3.25a25,25,0,0,1-.53,3.21c-.76,4-2,8,2.2,11.05.82,3.57,2,7.08,1.38,10.84A2.85,2.85,0,0,1,947,953.85Z" fill="#37332d"/><path d="M897.79,891.61c-.16,1.31.14,2.77-1.27,3.66-2-1-3.77-3.61-6.17-1.71-1.81,1.43-.88,4-.74,6a21.05,21.05,0,0,0,1,3.9c-3-3-7.7-2.1-11-4.8s-3.79-4.65-3.11-9.15c1.07-7.09,8.59-11.28,7.33-18.95-.19-1.17,1.54-2.82.31-3.76-1.91-1.46-2.29,1.27-3.53,1.81-.41.18-1.08-.21-1.63-.34,1.47-4.42.07-7.13-1.24-9.5-.92-3.79-4.81-12.77.88-16.73,4.77-3.32,10-1.59,11.47,4,.32,1.22.32,2.76,1.75,3.51,1.32,2.51,2.41,5.17,4.64,7.09,4,7.21.17,14.49.18,21.74C894.85,883,898.28,887.13,897.79,891.61Z" fill="#272320"/><path d="M892,917.47c-2.47.09-3.89,1.6-4.91,3.61-1.64,3.23-4.35,5.51-7.21,7.5-2.3,1.59-4.81,4.41-7.83,2.61-2.66-1.58-2.67-4.92-2.61-7.87,0-.77.09-1.55.14-2.32,4.13-.56,5.37-4.23,7.3-7,6-8.54,6.41-8.64,13.08-1.32a9.76,9.76,0,0,0,1.92,1.29c.43.74.86,1.48,1.3,2.21Z" fill="#493f33"/><path d="M921.31,969.1c-1.65,0-2.41,1.1-3,2.38-1,2.17-2.38,2.61-3.91.68-2.76-3.5-4.66-2.49-6.39.9-.43.83-1.19,1.77-2.28,1.16a2.48,2.48,0,0,1-.9-1.92c.3-7.73-1.09-15.54,1.12-23.18,4.72-.27,4.17,3.93,4.38,6.19.63,6.76,2.83,11.57,10.43,12.23C921,967.56,921.13,968.56,921.31,969.1Z" fill="#3a312a"/><path d="M904.76,911.66c1.34-1.44,3.21-3,4.86-1.79,1.37,1,2.82,3.12,1.11,5.32C908.5,914.42,907.52,911.55,904.76,911.66Z" fill="#272320"/><path d="M809.21,718.23c1.12-4,3.94-2,6.1-1.55,6.6,1.27,13.15,2.74,19.73,4.13l0-.12c.42,2.91,3.66,4.91,2.69,8.27l-.26-.13c-6.56,5.35-6.57,5.36-13.68-.18-1.06-.83-1.81-1.59-3.52-1.23C812.71,729,809.87,726.57,809.21,718.23Z" fill="#a2998f"/><path d="M881.19,795.65c1.83-1.06,1.68-3.39,3.12-4.94.66,2.29.7,5.11,4,4.83s5.76-2.81,7.46-5.09c1.48-2-.87-4.43-2.79-5.7-2.32-1.52-4.07-3.07-3.41-6.07.38-1.71.93-4.33,2.47-4.27,3.57.13,7.37.48,10.21,3.26,1.88,1.85,3.2,4.44,8.19,4.82-5.1-4.37-3.75-10.58-8.49-14.34,3.85-2.31,7.78,4.78,11.22-1,1.26,3.28-1.16,4.12-2.1,5.52-2.2,3.33-1,6.17,1.66,8s3.14,1.66,1,4c-2.62,2.86-1.53,3.72,1.57,3.33a3.55,3.55,0,0,1,3.59,1.27c2,2.52,4.45,3.5,7.91,1.91-.32,2-1,3.42-.66,4.53,1.11,3.42,1.05,8.49,7.22,6.33,1.88-.67,3.16-.18,3.13,2s-1.15,3.7-3.26,3.09a13.14,13.14,0,0,0-11.54,2.1c-1.35.93-1.89.47-3,0-2.33-.94-4.77-1.63-7.13-2.52-2.91-1.09-5.2-.16-6.34,2.49-1.23,2.84,1.17,3.4,3.24,4.35s4.64,1.76,6.2,4c1.1,1.56,4.43,2.52,3,4.58a5.76,5.76,0,0,1-7.18,1.75c-2.41-1-3.26,1.56-3.91,4.23-1.89,7.73,3.16,11.77,7.58,16.22,2.76,2.77.1,6,1.18,8.83-1.25,1.26-1.94.78-2.37-.72-2.57-9-9.37-16-12-25.06a2.9,2.9,0,0,0-2.47-2.21c-3.55-.41-4.54-3.17-5.7-5.87-1.61-3.72-4.12-7.09-8.21-7.59-4.44-.53-7.06-1.89-7-6.63.38-1.19.75-2.38,1.13-3.57C877.4,798.62,878.72,796.9,881.19,795.65Z" fill="#594d41"/><path d="M881.19,795.65l-2.41,5.8c-3.5,1.3-4.28,4.75-6.06,7.45-2.63,4-5.09,8.79-11.23,4.52-3.21-2.24-4.23,1.66-6.64,2.55a6.44,6.44,0,0,1-1.74-7.78c5.28-12.07,6.74-24.94,8.87-37.68a3.94,3.94,0,0,1,1.54-3c5.13-2.85,9.88-6.7,16.46-5.13,3.79.91,5.6-2.65,8.31-4.17,1.6.2,2.77.88,1.41,2.47a3.43,3.43,0,0,0-.27,4.55l0,0c-4.12,5.52-3.33,12.52-5.6,18.66C882.51,787.46,880.63,791.41,881.19,795.65Z" fill="#3a3129"/><path d="M888.29,758.17c-1.53,4.23-4.61,6.47-9,5.7s-8-.55-11.19,2.91c-1.1,1.19-3,.76-4.53.69l-11.78-5.83c-.21-2.24.21-3.42,2.84-2.12s4.72,3.87,7.87,3.48c8.44-1,17.14-1.12,24.62-6Z" fill="#64594f"/><path d="M895.36,878.89c-.47-7.46,2.53-14.75,1.12-22.25,1.11,1.39,2.17.74,3.7.48a34.26,34.26,0,0,1,13.72,0c2.79.67,3.49-.75,3.94-2.88,2.39-4.19.2-7.81-1.62-11.34-1.33-2.57-3.2-4.86-4.73-7.34-1.07-1.75-1.51-3.79.07-5.35a3.48,3.48,0,0,1,3.8-.85c2.21,1,1.73,2.5.62,4.25-.73,1.16.45,2,1.42,1.64,5.21-2.09,11.21-3,14.87-7.69,2.14-2.72,5.35-2.11,7.69-3.76a3.79,3.79,0,0,1,1.56,3c.4,4.07-1.28,6.87-5.37,7.62-4.81.89-5.62,5.53-8.74,8.47,4.92,2.56,9.66,2.17,14.45.3,2.42-.88,1.18-3.27,2-4.81s1.4-3,3.14-.87c2.62,8.07,2.37,16.58,4,24.81-1.82,3.92-.32,9.25-5.09,11.93-2.91-7.09-1.24-14.33-1-20.78-1.1,5.92-.95,12.64-.24,19.36-1.33,3.38,1,5.89,2.14,8.66.18,2.18-.17,4.17-2.07,5.6-3.1-3.66-1.64,1.93-3.14,1.53-4.68-6.79-13.37-5.37-19.13,3.14-2.48,2.43-4.15,6.24-8.76,5-3.09-3.05-2.41-6.62-1.2-10.11a26.51,26.51,0,0,0,1.86-8.9,4.2,4.2,0,0,1,2-3.83,2.07,2.07,0,0,1,1.64.32c2.37,4.22.5,8.75.85,13.94,2.65-2.62,1.84-5.41,2.15-7.86.25-2,.35-4.21,2.63-4.77s2.11,1.81,2.84,3c.62,1.06,1.26,2.09,2.68,1.65s1.77-1.91,2.26-3.19c1.84-4.82,1.86-4.81,5.27-1.3.23-1,0-1.94.18-2.9.53-3.78,2.23-7.39,1.44-10.66-.1,1,.09,2.7,0,4.37-6-1.42-12.43-2.12-15.9-7.35.2,2.69.34,2.5,4.06,5.32,2.79,2.12.51,3.57-1.26,4.87-5.33,1.22-5.33,1.22-8.44-4.17a38.32,38.32,0,0,1-9.64,15C901.85,885.48,899.53,885.17,895.36,878.89Z" fill="#443b32"/><path d="M920.05,551.92c-.12,2.4.85,3.55,3.44,3.53,2,0,1.09,3,3.14,3.44-3-.1-6,.44-9.2-1.17,1.13,3.51,4.11,2.9,6.15,4-.82,1.67-3.54-.36-4,2.09,1.79,2,4.47.14,6.42,1.35.13,2.1-3.6.71-2.92,3.13,1.38,4.89,4.62,7,9.71,5.8a2.3,2.3,0,0,1-1.52,2.85c-8,.69-16,3.72-24.15.76-2.49-.9-3.38-2.25-2.92-4.8.35-1.9.4-3.86.59-5.78.05-2.24-.67-5.28,3.45-3,2.17,1.19,4.55.53,7.84.78-2.52-2-5.2-.35-6.76-2.38-.46-2.22,3.31-.44,2.66-2.29s-2.63-1.49-4.09-1c-4.14,1.38-2.84-1.56-3.06-4.16,2.4,1.23,4.21,3.34,7,2.42,0-1.93-3-1.41-2.86-3.6A21.37,21.37,0,0,1,920.05,551.92Z" fill="#6d645a"/><path d="M947.61,437.18c1.19,1.29,2.3,2.6,1.75,4.55-.71,1.15-.15,2.51-.63,3.7-.5,2.46-2.54,2.9-4.53,3.41-3,3.12-.2,7.12-1.65,10.45-3.88,2-7.77,4-12.27,4.36-1.52.13-3.06.76-3.08,2.84-.05,5.2-4.05,5.31-8.17,6.19a92.44,92.44,0,0,0-1.27-19.25c3.65.33,3.51,3,3.53,5.6,0,2,0,4.46,3.06,3.21,4.42-1.77,9.55-2.43,11.78-7.81,1.17-2.8,3-4.84,2-8.53C936.42,440,938.77,438.19,947.61,437.18Z" fill="#472b1d"/><path d="M940.32,496.73c-.24.91-.49,1.81-.89,3.25-2.63-3.63.34-7.07-.72-10.22.61-1.13-.29-2.67,1.61-4.18Z" fill="#5c5349"/><path d="M943.91,494.42c1.54,1.37.91,4.27,3.5,4.89-.17,1.09,0,2.57-1.28,2.88s-2-1-2.16-2.1c-.25-1.48-.26-3-.37-4.51C943.7,495.19,943.81,494.8,943.91,494.42Z" fill="#5c5349"/><path d="M917.75,437c4.41,2.74,1.18,5.48,0,8.21Q917.76,441.15,917.75,437Z" fill="#472b1d"/><path d="M946.21,422.1c.35,2.6.71,5.2,1.06,7.8a59.17,59.17,0,0,1-14.46,3.61c-3.49.53-4.87-1.59-6.69-4.24-6.23-9-6.31-20-10.14-29.83-2.33-6,.36-13.24,1.75-19.83-.44-3.53,2.87-5.94,2.38-9.61,5.09,8.17,7.71,17,11.46,25.28,2.36,5.21,3.25,11.05,5.15,16.49C938.36,416.46,939.42,422,946.21,422.1Z" fill="#371b11"/><path d="M956.44,368.77c.27,4.92-.11,9.94,2.43,14.47-2.61,2.59.53,5.4-.31,8.09-2.16-.21-1.67-2.48-2.89-3.69-.07,1.34-.13,2.48-.19,3.61-2.61-2.32-.34-5.63-1.74-8.27-2.3.35-1.53,2.28-1.87,3.61a10.07,10.07,0,0,0-4.88,7.6c-.22,2.46-.29,5.53-3.15,4.86-2.44-.57-6.08-.89-6.8-5-1-5.82-3.28-11.4-1.75-17.56.83-3.35-4.88-4.69-3.4-8.63l4.52-1.47c.4,4.52.12,8.84,2.18,13,2.48,5.06,5.58,5.74,9.74,1.18-1.24-2.25-1.64-4.51,0-6.78a27.48,27.48,0,0,0,2.56-14.71c-.11-1.51,1.28-.8,2.12-.59-2.18,5.77-.61,11.72-.83,17.59,0,1.37.47,2.94,2.17,2.78,1.5-.14,1-1.8,1.2-2.82C956.07,373.69,955,371.07,956.44,368.77Z" fill="#8c6444"/><path d="M935.41,317.44c1.89-5.61,4.65-10.52,10.59-12.83.69,3.57.24,7.11-.28,10.65C943.1,319.81,938.77,316.37,935.41,317.44Z" fill="#6f6256"/><path d="M948.29,373.85q0,3.39,0,6.78c-3.66-1.82-2.47-5.28-2.54-8.12-.1-3.92-.46-7.95,1.4-11.67,3,.47,1.64,2.22,1.12,3.73C946.67,367.66,947,370.75,948.29,373.85Z" fill="#b48c62"/><path d="M948.31,364.57c.06-1.37.35-2.81-1.12-3.73a3.8,3.8,0,0,0-.19-1.11v-6.85a21.37,21.37,0,0,1,2.56,12.43c0,.13-.25.23-.39.35Z" fill="#b48c62"/><path d="M963.58,897.43l9.64,23.76c-1.77,1-3.22-1-4.94-.51-.19-.29-.37-.58-.54-.89a5.58,5.58,0,0,1-2.07-4.39c-1.93-5.09-3.75-10.16-4.11-15.7C961.42,897.71,961.94,897.34,963.58,897.43Z" fill="#37332d"/><path d="M962.27,987.27c-.63-6.89,1.74-13.17,3.92-19.5.76-2.18,1.74-3.82,4.33-3.78,0,1.73.11,3.47,0,5.19,0,.88,0,2.35-1.1,2.32-.71,0-1.39-1.33-2.53-2.53.76,8.3-2.32,15.48-3.22,23l-1.6-.15C961.1,990.27,961.62,988.77,962.27,987.27Z" fill="#1b1714"/><path d="M960.74,932.21c-.54,1.14-1.09,2.29-1.74,3.68-1.39-2.52-.06-5.27-1.62-7.4-.18-3.28-.11-6.5,2.32-9.79C961.7,923.39,960.51,927.87,960.74,932.21Z" fill="#37332d"/><path d="M977.6,428.1c-1.24-2-1.2-4.19-1.47-6.36a2.62,2.62,0,0,0-2.12,2.49,4.5,4.5,0,0,1-2.42,3.81c3.11,10.76-1.85,21.12-1.62,31.72.1,4.58-2.6,9.52,2.61,13.54,1.71,1.32-.4,5.29,1.33,7.74.31-1.31,0-2.85,1.32-3.8,1.73-2.13.75-4.34.21-6.53-2.25-7.25-.17-14.29,1.78-21.07C979.32,442.34,978.86,435.3,977.6,428.1Z" fill="#6f4c33"/><path d="M950.62,411.28c3.51,9.36,5.46,19.11,7,28.93a16.33,16.33,0,0,1-1.06,8.52c-1.94.85-2.09-.12-2.13-1.78-.07-2.56.68-5.31-1.22-7.59A110,110,0,0,0,947.12,422C946.93,418,948.82,414.66,950.62,411.28Z" fill="#472b1d"/><path d="M936.63,404.15c3.43.91,6.85.36,10.17-.42,1.81-.42,2.53,0,2.75,1.68-2.46,2.15-3.39,5-4.16,8.08-.35,1.39-1,3.22-3,3.14s-2.46-1.88-2.88-3.28C938.62,410.27,939.21,406.72,936.63,404.15Z" fill="#4b2f1f"/><path d="M965,349.22c2-.51,1.63,2.14,3.1,2.36.08,7.16,3,14.76.15,21.35-3.09,7.23-2.35,14.17-1.52,21.16,1,8.39.32,16.74.76,25.1.47,1.29.83,2.52-1.27,2.55a36,36,0,0,0-3.55-9.51c-1.52-5.33-.39-10.88.09-16,1.32-14,.91-27.86-.12-41.76C962.42,352,965.7,351.61,965,349.22Z" fill="#b48c62"/><path d="M955.64,337.39c.88,2.29,2.43,4.65-1,6.89,0-2.6-1.53-5,1-6.91Z" fill="#b48c62"/><path d="M956.8,951.51l.13-9.17c1.13-2.34,3.41-2,5.42-2.34,0,2.6,0,5.2.08,7.8-3.5,7-1.73,14.92-3.58,22.23-2,2.58.47,6.71-3.32,9.08A142,142,0,0,1,956.8,951.51Z" fill="#1b1714"/><path d="M956.66,520.23c.35-3-.92-6.23.92-9.12.81,3.69,2.45,7.28,1.11,11.26C957.25,522.46,957.89,520.39,956.66,520.23Z" fill="#5c5349"/><path d="M602.9,694.85c2.83-1,5.22-2,4.9-6s4-5.48,6-8.16c3.35-4.51,4.42-10.75,10.27-13.6,3.66-1.77,6.21-2.76,7.22,2.34.24,1.2.62,2.4,2,2.54s1.27-1.12,1.57-2c1.33-4,3.88-.48,5.8-.91-8.38,13.49-14.92,27.94-21.82,42.19a12.47,12.47,0,0,0-.63,2.21c-3.66-.13-6.11-2.1-7.83-5.13a5.68,5.68,0,0,0-3.35-2.93C599.57,702.93,599.59,702.86,602.9,694.85Z" fill="#6c5f51"/><path d="M751.5,626.82c2.85.52,6.35-1.2,8.29,2.4-.46,1.9.13,4.55,2,3.66,4.75-2.27,8.16.76,12.1,1.79,5.87,1.49,10.76,4.23,15.86,7.82,5.91,4.17,12.82,6.32,14.62,14.49.33,1.48,2.6,2.21,4.31,2.77s2.93,1.32,1.86,3.36c-1.61,3.67-5.35,2.23-8,2.74-1.41.28-2.32-3-2.58-5.22-.49-4.42-7.82-8.1-12.85-6.41-1.67.56-2.89.85-4.27-.31-2.44-2.06-4.71-5.15-8-.87-.71.94-1.85.15-2.28-.81-.84-1.91-4.46-2.73-2.41-5.73,1.09-1.59,1.56-3.26-.87-3.19-3.07.08-2.06-8.4-7.45-3.17-1.22,1.17-5.57,4.37-5.19-2.43.14-2.47-5.32-3.78-6.29-7.35C752.36,629.69,752.27,628.36,751.5,626.82Z" fill="#a89e93"/><path d="M810.52,663.11c-.2-2.16-1.95-2-3.45-2.38-3.87-1-6.28-3.55-6-7.56s-1.8-5.2-5-5.82c-4.57-.87-8.55-2.44-10.83-7-1.14-2.29-4-2.62-6.18-2.74a11,11,0,0,1-6.31-2.63c-2.84-.82-4.08-2.66-3.59-5.6-.17-2.5,2.54-4.59,1.09-7.29l3.59-2.27c.36,1.09,1.09,2.21,1,3.28-.5,8.86,1.84,11.86,10.68,11,3.46-.34,3.54,1.17,3.19,2.75-.86,3.91,1.49,4.52,4.31,5.4,4.81,1.5,9.51,3,10,9.49.23,2.85,3.19,6.1,5.64,6.18,5.42.17,2.67,3.29,2.83,5.43A7.21,7.21,0,0,0,810.52,663.11Z" fill="#6c6257"/><path d="M703.22,625.7c-.52,1.94,1,4.6-1.74,5.63-2.49.94-4.44-.4-6.16-2.21-2.24-2.37-4.36-4.5-8.19-4.83-4.85-.42-3.33-4.61-2.59-7.26.85-3,4.24-2.45,5.8-1.27A23.92,23.92,0,0,0,701,620C704.48,620.63,702.61,623.73,703.22,625.7Z" fill="#aca399"/><path d="M702,594.15a31.22,31.22,0,0,1,5,1.34c4.42,2,9.46,3.72,5.78,10.25C708.19,602.72,702.42,600.86,702,594.15Z" fill="#968c80"/><path d="M619.45,631.62c4,3.66,8.91,6.64,9.4,12.83-4.48.45-5.76-3.52-8.22-5.87-2.77-.38-2.83,1.88-3.51,3.54-9.46,16.8-20,33-28,50.64-1.62,3.58-3.29,4-5.58.31-1.09-1.75-3.18-2.86-4.6-4.45-5.39-6-5-11,2.06-18.17,2.46-2.53,3.43-4.54.62-7.21,1.61-2.1,3.09-1.75,4.49.22-1.21-2.67.69-4.22,2.2-5.87a7.12,7.12,0,0,1,2.78-2c3.86,1.19,3.86,1.19,4,4.26-1.25-4.09.17-8.43,3.79-12.88a8.87,8.87,0,0,0-.26-11.4c-3.15-3.86-7-2.33-10.75-1.37-.76.19.2-.05-.53.24-3.65,1.5-13,8.8-15.8,12.45a6.4,6.4,0,0,1-2.8,2c-9.76,3.84-11.12,8.1-5.32,16.6a11.54,11.54,0,0,1,1.66,2.38,7.94,7.94,0,0,1-3.43,3.61c-2.74-3.14-5.64-6.15-8.16-9.45-3.35-4.37-.59-8.33,2-11.56,1.66-2.09,3.42-3.7,4.34-6.46,1.3-3.89,6.92-2.56,9-6,.36-.59,1.17-.9,1.76-1.33-.63-2.41-3.49-.85-4.22-2.7.37,0,.74,0,1.1-.08,2.07-4.16,6.53-4.66,10.11-6.46a103.39,103.39,0,0,1,23.28-7.88c2.2-.51,4.58-1.49,6.73.34,2.62.74,1.64,1.67,0,2.15-3.36,1-6.81,1.65-10.2,2.52a28.07,28.07,0,0,0-5.73,2.08c6.36.73,12.36-.65,18.36-2.08-.14,1.64-4.4,2.64.09,5.08C617.76,633.75,617.5,634.23,619.45,631.62Z" fill="#716353"/><path d="M607.63,619.87c-14.28,2.08-27.41,7.44-40.12,14,.59-4.72-4.49-5.93-5.88-9.43,4.22-4.13,7.64-9.31,14.06-10.55,1.89,3.52,4.61,4.48,8.23,2.62,3.84-2,9.2-.23,11.94-4.86C598.57,616.12,605.23,615,607.63,619.87Z" fill="#574b3f"/><path d="M565.11,667.88c-8-3.81-9-11.25-2.62-17.07,1.8-1.64,2.88-3.36,5.83-3.07,2.46.23,2.7-2.45,3.24-4.25,1.64-5.48,3.73-9.88,11-9,3.78.47,6.84-3.06,11.29-2.94,5.45.14,7.43,3.93,8.3,7,.69,2.5.81,7.24-1.82,9.32-5.24,4.13-4.5,9.47-4.54,14.85a32.35,32.35,0,0,1-.59,3.94c-3.93-3.15,3.34-9.67-4.08-10.54-1.71-3,.83-4.73,2.41-6.39,2-2.1,3-3.7.57-6.2s-5.22-3.06-7.09-.73c-3.71,4.61-9.06,8.22-10.15,14.65C571.22,659,569.31,664.74,565.11,667.88Z" fill="#7b6c5c"/><path d="M576.89,657.53c-1.31-3.46-2.58-6.59,3-7.8,2.75-.6,2.2-4.43,4.22-6.52,2.51-2.6,4.92-3.53,8-3.21,3.37.35,3.19,4.88,6.4,5.92.75.25-.78,1.86-1.61,2.59-2.47,2.16-5,4.27-5.77,7.69-1.2,2.74-4.76,3.88-5,7.45,0,.51-2.8-1.49-4.48-.41C579.7,661.64,577.41,660.32,576.89,657.53Z" fill="#8b7c69"/><path d="M631.23,653.86l1.5.63c-5.38,5.63-10.22,11.91-18,14.59C619.19,662.91,625.52,658.72,631.23,653.86Z" fill="#6c5f51"/><path d="M617.12,642.12c-2.32-2.73.78-3.51,2-4.69s1.39.24,1.56,1.15Z" fill="#564d44"/><path d="M943.77,633.91c2.18-3.41.43-7.27,1.24-10.83,3.17,1.19,2.64,4,2.66,6.43,0,4.16.51,7.78,3.67,11.21,2.73,3,2.87,7.52,4,11.43,3.73,12.68,5.49,25.26,2.4,38.5-2.07,8.89-.07,18.21-.33,27.35-.19,6.9-2.37,13.37-2.66,20.14a25.85,25.85,0,0,0,.54,8.13c0,2.05.09,4.15-2.87,4.13-1.06-.48-1.12-1.4-1.11-2.4a1.08,1.08,0,0,1,.64-1c-3.54-1.61-3.57-1.61-4.08-5.26-.19-1.35-.9-2.55-1-3.92,0-.3,0-.6,0-.91.51-1.14,1-2.29,1.52-3.44,2.83-1.72,1.86-4.39,1.61-6.79s-.94-4.59.54-6.75c2.18-6.63,0-13.4.68-20.14.72-6.93.43-14,2-20.84s-1.93-13-3.58-19.19c-2.13-8.06-4-16.21-6.69-24.14A2.41,2.41,0,0,1,943.77,633.91Z" fill="#5c5349"/><path d="M943.79,739.63c-.25-1-1.59-2-.55-3.12,1.23-1.29,2.48,0,3.69.36l.44.32a104.08,104.08,0,0,1,2,28.68A25.51,25.51,0,0,0,952.22,779a27.26,27.26,0,0,0,1.62,12.81c1.85,4.58-1,9.22-3,13.53-2.51.71-3.27-.79-3.23-2.79.22-9.33-3.45-18.28-2.58-27.66l-1.16-2.66c-1.85-1.54-1-3.45-.84-5.34C943.55,757.81,943,748.7,943.79,739.63Z" fill="#504439"/><path d="M943.79,739.63c2.26-1.43,2.13.17,1.92,1.58-1.51,10.29.08,20.76-1.88,31-.55,1.43-.56,3.1-1.91,4.16C938.47,772.34,939.47,752.78,943.79,739.63Z" fill="#504439"/><path d="M934.9,775.92c-1.61-9.14-.11-18,1.1-26.95C937.45,758.05,936.26,767,934.9,775.92Z" fill="#504439"/><path d="M876.48,737.06c-1.58,2.1-2.77,4.87-6.09,4.44-2.27-.29-3.84-3.48-5.81-11,2.17.65,1.87,3.32,3.63,4.22,1.31,2.72,3.27,2.63,5.58,1.35C875,735.39,876.31,734.78,876.48,737.06Z" fill="#62584c"/><path d="M889.43,765.19c2.84.6,4.86,3.6,8.3,2.63.78-.21,1.85.75,1.78,1.88-.09,1.41-1.25,1.12-2.2,1.1-3.93-.07-9.25,1.79-7.86-5.62Z" fill="#3a3129"/><path d="M945,576.56a6.36,6.36,0,0,0-.11,2.32c2.36,6.6,1.48,13.15-.17,19.7-3.26-.19-1.54-3.13-2.55-4.54-1.47-2.07.11-5-2-6.84l-1.1-2.87c1.4-2.72.81-5.67,1.07-8.54.18-1.91-.7-5.17,2.16-5C945.43,570.9,945.88,573.8,945,576.56Z" fill="#5c5349"/><path d="M938.8,690.22q.75,6.4,1.49,12.82l-13.1-3.89c4-.89,5.86-3.43,9-4.22-4.39-.53-8.45-1.16-12.78-4.54C929.28,690.48,934.19,694.32,938.8,690.22Z" fill="#504439"/><path d="M983.34,542.87c-1.2,1.88-2.47.38-3.72.08.3-5-3-9.52-2.09-14.8,1.75.22,2.08,1.44,2.29,2.76,2.28,1.52,1.25,4.2,2.21,6.19C982.47,539,982.9,541,983.34,542.87Z" fill="#66564a"/><path d="M870.55,672.62a7.25,7.25,0,0,0-7.7-.07c-3.25,1.85-6.61,2.45-9-1.55-1.07-1.75-2.74-2.53-4.41-1.16-3.84,3.15-5.77.9-7.22-2.57-3.68,2.94-1.64,5.31.08,7.69H840c-.76-1.14-2-1-3.13-1.25-5.18-1.1-6.77-6.66-3.27-10.68,1.46-1.69,4.27-2.08,5-5.12-3.06-.24-5,1.74-7.24,2.52-7,2.4-11.2-.79-9.3-7.82.93-3.42.9-5-2.67-5.82-2.74-.6-3.21-2.62-2.84-5,.41-2.55,2.53-2,4.2-2s3.17.15,4.71-.08c3-.44,5.83-1.79,4.8,3.66-.59,3.12,5,6.91,8.33,5.68a18.32,18.32,0,0,1,14.42.19,44.29,44.29,0,0,1-4.85,13c-.56,1-1.3,2.07-.26,3.19s2.13.1,3.2-.14c4.94-1.11,9.25-3.87,14.25-5,4.37-1,5.87.72,5.1,4.26C869.76,667.45,870.63,670,870.55,672.62Z" fill="#574d44"/><path d="M837.76,729c-.47-2.89-3.38-5-2.69-8.27,4.25,5.42,8.25,11.3,16.68,9.35-2.34,4.38-5.77,2.1-8.9,1.38C841,731,839.92,728.84,837.76,729Z" fill="#574e46"/><path d="M880,676.09c-2-.27-4.25.78-5.92-1.14C875.85,676.52,879.39,668.84,880,676.09Z" fill="#574d44"/><path d="M769.16,629.37q1.8,2.8,3.59,5.61c-.74,3.47-2.18,1-2.85.15-1.58-2-2.68-2.74-5.3-1-1.67,1.13-4.83,1.81-6.46-1.2-1-1.9-1-3.39,1.65-3.73Z" fill="#ada49a"/><path d="M983.67,850.36c-2.44-7.25,1.6-13.83,2.17-20.76,5.31,1.26,2.45,5.25,2.78,8.18-.44,4.43-2.21,8.94.77,13.88,0,.11,0-.64-.13-.77-1.49-1.33-1-2.62.4-3.73,3.52-1.16,1.63,1.56,2,2.69-3.4,9.15-2.44,18.73-3,28.2-2.62-.67-.94-3.9-2.81-5.07-2.86-5.27-.68-10.94-1.32-16.39C984.27,854.51,984,852.43,983.67,850.36Z" fill="#37332d"/><path d="M895.36,878.89c3-.3,3,5.4,6.39,3.63,5.65-3,9.08-8.25,12-13.69,1.14-2.1,1.54-4.61,2.41-7.32,3.6,1.76,1.5,10.49,8.69,6.78-.37,4.35-2.94,6.11-7.12,6l-1.2-.12c-3.54.9-4,4.67-6.3,6.73-2.26,3.81-7,6.7-4.31,12.89,1.69-3.75,3.57-4.72,5.16-.39.56,1.53,1.26,2.83,3.08,3.07,3.67,0,4.59-4.72,8.26-4.71,0,8.25-6.36,11.62-12.06,15.36-2.49,1.64-2.41-2.55-4.42-2.51-2.43-.62-3.45-2.3-3.52-4.68-.41-2.27-1-4.53-1.19-6.82-.25-2.92-2.31-1-3.48-1.48C895.67,887.61,893.24,883.68,895.36,878.89Z" fill="#615c55"/><path d="M935.48,908.17c.13,2.93-2.63,4.65-3.07,7.42-.36,2.33-2.11,1.35-3.68,1.13-2.3-.32-3.43-2.29-5.22-3.35-2.74,3.27,1.31,8.46-2.57,10.54-3.37.73,1.83-6.1-3.9-2.85-.22.12-.7-4.17.69-5.54,4.35-4.24,6.68-9.71,9.59-15.08,3.17,3.69-4.5,7,.22,10,2.84,1.84,4.47-1.44,6.68-2.34A.79.79,0,0,1,935.48,908.17Z" fill="#635d55"/><path d="M935.48,908.17l-1.26,0c.15-2.24,1.78-3.56,3.09-5.12,1.89.76,1.68,3.06,3.06,3.92.92.57.66-.88,1.07-1.32a60.9,60.9,0,0,1,3.24,15.49c-1.58.5-2.44,2.75-4.9,1.78a32.08,32.08,0,0,0-.85-14.42C937.86,905.17,936.73,907,935.48,908.17Z" fill="#605c54"/><path d="M902.46,899.91l3.52,4.68c-.2,2.28-1.36,3.55-3.75,3.49a3,3,0,0,1-3.08-2.17C898.3,902.9,900.12,901.24,902.46,899.91Z" fill="#272320"/><path d="M916.28,797.23c2.08,2.42,7.1.87,8,4.74.51,2.22-2.73,4.81-4.49,4.37-2.85-.71-4.91-3.46-5.45-6.7C914.12,798.5,914.29,797.28,916.28,797.23Z" fill="#504439"/><path d="M917.77,874.27a15.13,15.13,0,0,0,7.12-6c.63-.68,1.6-1.26,1.81-2,.27-1-.7-1.22-1.51-.89-5.39,2.22-4.86-.83-4.07-4.36a27.66,27.66,0,0,0,.34-4.3c3.77,2.78,5.88,8.54,12.17,5.74,1.66-.73,1.43.16,1.3,1.23-.22,1.92,2.27,1.86,3.38,2.84,1.53,1.76.07,4.33-.41,6.22a5.61,5.61,0,0,1,0,.58c-.26,2.07,3,5-.31,6-2.53.72-3.06-2.78-4.05-6.29-.52,4.69-.44,9.19-4.67,9.72-3.7.47-4.42-3.35-4.11-7.34-3.25,2.94-2,5.64-2.28,8-.21,1.91.28,3.93-1.33,5.5-1,1-2,2-3.55,1.25-1.25-.66-1.19-2-.77-3.11C918.43,882.83,917.44,878.51,917.77,874.27Z" fill="#37332d"/><path d="M940.23,827.08c2,3,.63,6.39,1.12,9.56.32,2-.84,4.27,1,6a1.42,1.42,0,0,1,.07,2.23c-2.85-2.22-4.59,5-7.67.89-3.36,2.58-5.79-2-9.2-1.17-1.93.46-1.92-1.77-.44-2.6,4.83-2.71,6.08-9.87,13.18-10C940.7,832,939.94,828.92,940.23,827.08Z" fill="#504439"/><path d="M914.2,896.45c-5,2.06-3.72-3.1-5.35-4.82-2,1.24-1.17,3.66-2.45,5.14-4.62-7.22-4.62-7.22,3.06-16.74,3.61,3.27,3.09-3.68,5.91-2.35,1.33,3,.33,5.92-1,8.44C912.41,889.69,912.66,893,914.2,896.45Z" fill="#4c4841"/><path d="M915.37,877.68c-1.91.91-2,6.4-5.91,2.35,1.48-2.14,3-4.26,4.43-6.43s2-.45,2.68.55Z" fill="#37332d"/><path d="M937.9,872.72l-.38-5.56q.26-3.43.52-6.87C938.9,864.48,940.57,868.68,937.9,872.72Z" fill="#443b32"/><path d="M943.77,874.15l1.72,1.15c.46,1.93,1,3.86.42,5.87C944.41,879.07,940.62,877.65,943.77,874.15Z" fill="#37332d"/><path d="M945,460.44q0-3.51-.07-7c1.45-.38,2.12.6,3,1.95-1.91-3.61-.62-6.77,0-9.95.26-1.3.14-2.74,1.34-3.7-1.74,11.19,3.09,21.73,3.2,32.78.08,7.5,1.82,15-1.31,22.5-3.52-4.06-1.08-8.69-1.51-13C947.89,476.23,950.63,467.51,945,460.44Z" fill="#693d2c"/><path d="M955.67,498.13a14.36,14.36,0,0,1-.68,11.93C953.07,506.34,952.75,502.92,955.67,498.13Z" fill="#5c5349"/><path d="M948,445.43c.08,2.24.06,4.49.26,6.71.41,4.48-1.68,2.27-3.33,1.29-1.86-2-.81-4.68-1.6-6.93C945.2,447.38,946.86,447.47,948,445.43Z" fill="#472b1d"/><path d="M969.92,895.3c-5.27-6.26-6-13.83-5.29-21.38.2-2,4.85-3.11,4-6.79-1.74-2.9-1.15-5.35,1.46-7.41,3.58-.16,2.89,2.07,2.39,4.2C968.81,874.15,968.3,884.64,969.92,895.3Z" fill="#37332d"/><path d="M981.43,873.56c-1.42,8.91-3.29,17.78-2.63,26.89.2,2.73-1.73,4.67-2.53,7a1.16,1.16,0,0,1-1.72-.41,34.57,34.57,0,0,1-1.39-12.87c2.58,2.12,4,2.28,4.25-1.8.4-6.34-2.08-12.59-.13-19a18.17,18.17,0,0,1,3.22-6.65C982.06,869.05,980.67,871.44,981.43,873.56Z" fill="#37332d"/><path d="M977.83,861.19c-.91-7.32-1.85-14.64-2.64-22-.07-.66-.68-2.52,1.48-2.07a2.25,2.25,0,0,1,2.13,2.06C980.5,846.57,978.38,853.81,977.83,861.19Z" fill="#37332d"/><path d="M955.41,616.36c-1.13-9,1.53-17.91,1.2-26.92-.71-2-1.29-3.88.92-5.34,2.67-.46,4.62,0,4.4,3.33s.5,6.82-.47,10.17c-2.7,7.44-1.58,14.86.12,22.27,1.87,6.21,2.49,12.29.18,18.7a15,15,0,0,0,.85,10.89c4.16,8.82,2.18,18,2.82,26.42.43-8.27,1.72-17.18-2.56-25.67-1.15-2.27-.83-5-1.07-7.5-.16-1.69-.71-3.88,1.81-4.13,2.1-.21,3.1,1.33,3.07,3.42a5,5,0,0,0,.39,1.7c-1.57,6.55,2.7,11.87,4.11,17.75s1.12,10.89-1.35,15.84c-5.49,11-3.94,22.43-3.3,34.07.62,11.19-.45,22.48-1,33.72a8.2,8.2,0,0,1-4.55,7.46c.64-3.48,1.18-6.41,1.73-9.34,3.22-3.22-.91-5.09-1.62-7.44-2.72-9.11.71-18,.43-27-.06-2.18.55-4.55.35-6.87-1.59-18.81-.16-38-6.53-56.22,0-7.58-1.24-15.18.61-22.71a4.89,4.89,0,0,0-.27-3.36Z" fill="#5c5349"/><path d="M964,806.37c-.54,6.24-5.37,11.92-2.43,18.61,1.09,6.45-.36,13,1.19,19.5.49,2.06-.63,4.13-1.82,5.94-4.1,2.22-4.78-1.17-4.4-3.43,1.82-10.9-2.64-20.91-4-31.33a13.6,13.6,0,0,1,1.74-5.29c1.31-2.63-.82-1.89-1.77-2.39-.37-4.51,2-8.6,2-13.05,1-2.82,3.38-4.85,4.25-7.73.89-8.91,1.26-17.9,3.92-26.56,2.18.29,2.65,2.92,4.7,3.38-.45,1.93-.89,3.86-1.34,5.79-1.46,3.84-.19,7.9-1,11.79-1.4,1.93-2.12,3.89-.31,6,.32,1.44-.65,1.52-1.64,1.59a73.48,73.48,0,0,0-1.59,14.22c.34.2-1,1.5.56.9C964.8,803.21,964.21,804.92,964,806.37Z" fill="#504439"/><path d="M977.5,587.32c1.14-2.73,2.92-4.48,1.06-8.61-1.72-3.84-.82-10.1,2.7-14.48.47,4.81-.63,10.64,1.72,14.22,6.07,9.25-.81,15-3.83,22.14-1.3,3.06,0,7-2.17,10.08-3.21-2.19-.82-5-.79-7.49Q976.85,595.25,977.5,587.32Z" fill="#5c5349"/><path d="M974.25,635a34.74,34.74,0,0,1,2.72-11.3c4.78,9,6,15.56,1.77,25.34-1.82,4.21-1.36,7.53-1.09,11.42.11,1.67,1.2,5.89-3.16,2.47l.9-21.7A6.45,6.45,0,0,1,974.25,635Z" fill="#5c5349"/><path d="M975.22,671.6a7.61,7.61,0,0,0,1.42,4.65c1.36,5.33-1.12,10-2.39,15a2.66,2.66,0,0,0-1.78,2.74c.36,6.61-.47,13.25.52,19.84v18.05c-1.78-3-.13-5.66-1.14-8-1.7-.36-1,2.35-2.75,1.64,0-.12-.33-.54-.23-.82,3.07-8.58.22-17.34.56-26C969.8,689.18,972.57,680.48,975.22,671.6Z" fill="#5c5349"/><path d="M954.31,746.74c2.24-2.66.49-5.93,1.4-8.77.35-1.13-1.15-3.39,1.55-3.21,2.29.15,1.8,2,1.72,3.51-.07,1.14-.07,2.29-.11,3.44-.85,7.43-3.72,14.68-1.56,22.39.48,1.71-.45,3.81-.73,5.73a1,1,0,0,1-1.38.08c-.63.11,0-2.31-1.52-.68-1.89,2-2.42.06-3.06-1.32-.09-6-2.19-12.24,1.52-17.95C954.23,749.8,954.37,748.33,954.31,746.74Z" fill="#504439"/><path d="M971.71,583c2.27,1.89.06,3.8,0,5.7-.08,3.91-1.38,7.92,1.06,11.6-5.25,5.26-2,13.28-6.29,20-1.17-4.25-2.07-7.24-1.33-10.89A243.82,243.82,0,0,1,971.71,583Z" fill="#5c5349"/><path d="M983.12,677.44c.85.35.2-3.64,2-.66.36.62.61,1.31.92,2,1.41,8.86-2,17.68.15,26.45-1.69.61-2.3-.61-2.27-1.25C984.21,695.09,978.65,686.39,983.12,677.44Z" fill="#5c5349"/><path d="M968,840.41q-.71-2.94-1.4-5.86a29.92,29.92,0,0,0-.67-14.88c-1.13-3.45,1.23-6,2.89-8.79q.91,7.7,1.82,15.39c1.88,4.36.92,8.61-.49,12.84Z" fill="#504439"/><path d="M981.17,825.66c-1,1,1.12,3.13-1.31,3.63-.13-1.62.57-3.42-1-4.72-2.35-2.69-.82-6.35-2.35-9.24l-1.17-.15c-2.33-5.31-.36-10.15,1.87-15.72C980.62,808.32,979.5,817.22,981.17,825.66Z" fill="#504439"/><path d="M971,767.32a42.49,42.49,0,0,0,2.8-12.36c3.34,5.09,1.9,10.56,1,15.91-.44,2.81-2.16,5.37-1.68,8.38-3.47-1.2-1.35-4.21-1.88-6.3C970.82,771.22,971.78,769.19,971,767.32Z" fill="#625548"/><path d="M978.15,713.28c-1.13-5.56-2.85-9.93-.94-14.59C979.4,703,979.14,707.56,978.15,713.28Z" fill="#5c5349"/><path d="M969.89,749c0-.84-.09-1.68-.13-2.52,1-3.13,2-6.25,3.12-9.9C976.39,742.05,972.45,745.36,969.89,749Z" fill="#625649"/><path d="M972.09,797.71c-2.72-3.27-.65-6.56-1-10.64,3,2.13,1.61,4.32,2.25,6Z" fill="#564839"/><path d="M971.21,626l-2,5c-2.21.55-2.3-1.17-2.73-2.53.09-.76.19-1.52.29-2.28l4.51-2.35C971.23,624.62,971.22,625.32,971.21,626Z" fill="#5c5349"/><path d="M984.59,672.48c-.93.45-2.1,1.55-2.13-.67a23.87,23.87,0,0,1,.81-7.73c.53,1.72,1.07,3.45,1.6,5.18C984.78,670.33,984.69,671.41,984.59,672.48Z" fill="#5c5349"/><path d="M983.75,602.35c-.15,11.47,2.13,22.57,4.86,33.63a12.65,12.65,0,0,1-1.54,9.48c-3.24-1-.38-4.15-2.07-5.69a81.87,81.87,0,0,0-3.72-17.59C979.18,615.16,980.94,608.72,983.75,602.35Z" fill="#5c5349"/><path d="M950.05,937.86a24.67,24.67,0,0,1,.85-8.78c2.42,5.12,2,10,2,14.79C950.47,942.53,951.1,939.81,950.05,937.86Z" fill="#37332d"/><path d="M951.69,821.72a99.1,99.1,0,0,1,3.82,30.34,19.51,19.51,0,0,0,2.12,8.86c-.7,9.68-6.34,18-7.56,27.55-2.3-10.85,5.21-21,1.9-31.88-2.18-10.84,1.57-21.94-1.38-32.75C950.31,822.81,949.51,821.49,951.69,821.72Z" fill="#443b32"/><path d="M960,867.13q.74-7.54,1.46-15.1c2.07-2,.16-5.61,2.49-7,2.26,11.62-1.13,23.08-2.79,34.7a28.08,28.08,0,0,0-5.09,20.6c.6,4.55,2.84,8.93,3.19,13.67-5.07,1.39-2.14-3.28-3.56-4.65-3.31-8.59-2.26-17.2-.1-25.81,1.52-3.48-1.22-8.25,3.33-10.8C959.25,870.86,959.61,869,960,867.13Z" fill="#37332d"/><path d="M950.52,922.39c-3.16-7.6-1.57-15.56-1.64-23.46,3,6.18,4,12.83,4.39,19.59C953.33,920.49,953.51,922.56,950.52,922.39Z" fill="#37332d"/><path d="M949.48,811l.42,3.11c-1.06,3.09,2.06,7.3-2.55,9.44-.45-.77-.89-1.55-1.33-2.32.74-4.53,1.94-9,1-14C949.33,808,948.18,810.18,949.48,811Z" fill="#443b32"/><path d="M948.39,832c0,1.47-.41,2.57-2.24,2.26-.22-3.14-1.91-6.08-1.34-9.34C947.18,826.69,946.76,829.86,948.39,832Z" fill="#443b32"/><path d="M949.36,627.54c-.59-10.31-3.83-20.71,1.52-31,.6,7.77,1.19,15.43,1.79,23.1C954.21,623.4,954.16,626.45,949.36,627.54Z" fill="#5c5349"/><path d="M949.8,583.57c.68-2.65-1.5-6.42,3.47-7.73-.19,5.38.23,10.6-1.23,15.72-1.35.91-2,.57-2-1.07C950,588.18,949.89,585.88,949.8,583.57Z" fill="#5c5349"/></g><g id="frame"><rect width="1000" height="1000" fill="none"/></g></svg>