<!-- Copyright (c) 2023 Jan Stehno -->
<svg xmlns="http://www.w3.org/2000/svg" viewBox="0 0 1000 1000">
    <title>europeanhare</title>
    <g id="europeanhare">
        <path
            d="M802.36,375.28l1.24-.94a12.25,12.25,0,0,0,5.33-3.16,49.86,49.86,0,0,1,11.45-8.67c3.65-7.22,11.23-7.31,17.68-9.47,2.89-1.44,6.15-1.39,9.21-1.91,8-1.34,10.16,4.92,12.78,10.35a5.35,5.35,0,0,1,.85,1.62c.63,3.9,1,7.81-.39,11.63a5.55,5.55,0,0,0,.26,5.08,7.38,7.38,0,0,1,.5,6.3c-2.16,6.47-.48,13.77-4.7,19.84-1.38,2,.3,4.63-.14,6.94-.8,4.34-3.08,8-5.62,11.54-9.14,12.69-20.85,22.9-32.88,32.71-4.43,3.6-9.79,6.11-15.08,8.43-9.07,4-16.19-.34-22.8-5.8-3.9-3.21-6.61-7.58-11.95-9.4-3.75-1.28-6.18-11.56-5-15.58,1.51-5,.74-10.55,3.41-15.34,1-2.92,3.79-4.95,4.14-8.18,1-2.49,3.67-3.94,4.14-6.74a7.2,7.2,0,0,1,1.15-2.15c2.46-6.92,9.28-10,14.19-14.54C794.51,383.85,798.23,379.4,802.36,375.28Z"
            fill="#1d1813" />
        <path
            d="M844.58,999c0,.39-2.92.46-8.5-3-1.84-1.13-5.64-1.23-10.2-5.1-4.74-5.78-9.44-11.58-14.24-17.31a5.39,5.39,0,0,0-2.84-2.06c-6.68-1-9.74-7.46-15.59-9.63-2.66-1-2.4-3.35-2.32-5.5.18-4.69,1-9.36.05-14.07-.29-1.53-.1-3.59-2.16-3.66-5.31-.17-5.1-3.72-5.29-7.39-.25-5-3.94-8.76-5-13.68-2.44-11.34-2.57-22.86-4.15-34.2-1.41-10.09-.18-20.32-2.63-30.25a8,8,0,0,1-.06-3.51c1.43-6.46,3-12.89,4.48-19.33,2.59,3.07,1.28,6.63,1.29,10,0,1.89-1,4.21,1,5.36s3.36-1.39,5.11-2c3.81-1.33,4.56-5.79,8-7.52,3.21-.67,6.12-6.72,9.72-.55.69,4.57-3,8.48-1.88,13.68,2.78-1.17,5.26-3,8.13-3.9a31.73,31.73,0,0,1,7.45-1.59c1.89-.17,3.62,0,3.77,2.45-6.82,6.53-12.06,14.25-17.13,22.11a4.64,4.64,0,0,1-2.47,1.5c-5.69.55-4.33-4.23-5.36-7.39-3.91,1.07-4.82,4.64-6.94,7-.38.42-.54,1.52-.24,1.59,5,1.29,4.9,9.09,11.29,8.48,1.11,1.68.08,3-.82,4.26-3.21,4.53-5.17,9.7-7.79,14.52-4,7.31-1.36,13.69,2.33,19.88,1.45,2.42,6.45,1.09,6.15,6,5.15-4.49,5.73-11.27,11-14.63.44-.28-3.14-2.2-3.22-2.57-1.85-9.27,1.93-8.58,9-13.64,2.4-1.73,4.32-4,6.86-5.64,5.88-3.68,11.45-2.63,15.78,2.74,2.25,2.8,5.45,4.34,8.88,5.5,4.18,1.41,6.12-1.49,8.54-3.78,1.44-1.36,3.25-2.68,5.33-1.78s2.2,3,1.55,5.07c-.89,1.54-2.71,2.45-3.19,4.21-.85,3.13-2.55,5.26-6,5.73-1.65.22-2.14,1.6-2.88,3,2.4-2.16,4.77-3.3,7.81-1.5,2.67,1.58,1.75,5.1,3.76,6.89,2.4-.43,2-2.58,3-3.65,1.68-1.74,3.39-3.94,5.95-1.75,2.16,1.85,3.7,4.25,1.45,7.19-1.07,1.4-2.74,2.42-3.1,4.26-1,4.85-2.7,7.9-8.37,4.56-1.69-1-3.44.33-4.94,1.32-1.78,1.17-3.58,3.19-5.77,1.18s-.1-3.9.64-5.73c-4,.06-8.06-.2-11.09,3.08-1.21.64-2.7.63-3.74,1.7-1.28,1.31-2.87,2.63-4.65,1.19-2.06-1.66-.61-3.54.31-5.25a5.93,5.93,0,0,1,1.2-1.4c-2.6,1.51-4.9,5.13-8.2,1.8-3-3-1.37-6.13.9-8.93,1.11-1.38,2.55-2.49,3.46-4a4.32,4.32,0,0,0-.49-5.45c-1.75-1.95-3.48-1-5.26.19-14.51,9.83-21.33,23.78-22.58,40.74a5.77,5.77,0,0,0,1.19,3.86c2,2.76,2.07,5.85,1.67,9-.8,6.32-.82,6.32,5.88,7.36,3.58.56,3.58.56,5.28,3.93,2.79-1.07,3.49-3.54,4.19-6a10.59,10.59,0,0,1,2.56-4.6c.85-.88,1.84-1.62,3.13-1s1.43,1.83,1.26,3c-.34,2.37-1.75,4.35-2.67,6.51-2.73,6.4-1.23,9.2,3.67,14.28C830,985.51,836.65,987,839,993.3,839.91,995.77,845.29,994.55,844.58,999Z"
            fill="#654c34" />
        <path
            d="M940.06,671.27c4.73,8.93,12.15,15.43,20,21.56,1.09.84,2.91,1.61,3.08,2.62,1.14,7.06,7.94,7.08,12.36,10q7.32,4.89,14.53,9.93c1.56,1.08,1.67,2.55.74,4.12-4.56,7.69-4.64,16.31-5.27,24.81-3.59-1.06-3.85-5.16-6.59-7-1.17-2.39-.29-4.82-.12-7.25,0-.78-.64-.24-.59-.12.85,2,0,4-.52,6-3,2-5.19,1.75-6-2.16A12.24,12.24,0,0,0,970,730.1c-3.09-5.22-.91-9.12,5.52-10.12-3.88-.56-7.95-.89-11.22-3-1.55-1-1.79-3.38-4.25-.76-1.3,1.39-2.89-.47-3.38-2-.77-2.44-2.24-3.53-4.84-3.33-1.32.1-3.15.47-3.44-1.33-.24-1.43,1.15-2.37,2.72-3.33-2.13.59-3.7,1.28-4.7,2.69a2.54,2.54,0,0,0,1.43,2c1.54,1,3,2.18,2.37,4.26s-2.43,2.51-4.28,2.52c-2.14,0-4.19-.94-4.64-3s-.71-3.79-2.5-5c-7.2-.11-12.4-5.2-18.81-7.28-1.8-.59-2.77-2.09-4-3.4-3.42-3.7-4-9.14-8.16-12.41a2.74,2.74,0,0,1-1-2.68c1.7-5.57-1.79-7.74-5.79-10.63-3-2.19-4.87-2.71-7.57-.43-1.47,1.23-3.71,2.42-4.25,0-.89-4-4-1.15-5.61-2.43-1.15-3.67,1.5-5.61,4.11-5.65,4.19-.05,5.36-1.87,5.58-5.4.1-1.69,1.49-1.85,2.53-1.06a13.47,13.47,0,0,0,5.43,2.2c-3.77-1.71-8.1-3.13-11.94-6.2a21,21,0,0,0-13.12-4.63c-6.82-1.56-13.3-3.86-18.66-8.53-1.16-1-3.11-1.94-2.24-3.65s2.86-.91,4.31-.42c6.45,2.18,12.23,1.51,17.05-3.63,3.35-.2,5.45,2.13,7.75,3.88,4.08,3.1,8.51,4.89,13.71,4.58,6.09,2.27,10.75,7,16.76,9.41h0c5.66,3.14,11.4,6.15,15.32,11.55.92,1.25,2.07,2.78,3.59,3C937.4,666.15,938.68,668.68,940.06,671.27Z"
            fill="#9b8066" />
        <path
            d="M601.59,758.35c-3-6.45-1.25-12.62,1.13-18.75.62-3.88,3.08-6.6,6.78-7,5.73-.63,11.6-1.68,16.87-.09-3.61-3.73-3.28-5.74,2.35-7.43,3.72-1.11,4.8-2,2.59-5.88s1.34-13.12,5.26-15.29c1.23-.69,3.16-1.59,2.17-2.88-2.85-3.67.41-7,.17-10.45-.23-3.25,7.65-11.35,10.45-11.84.56-8-1.51-16.41,5.23-23,1.25-1.22,1-2.91,1.35-4.39.57-2.27.7-4.7,2.94-6.19,2.56-.34,3.34,1.46,4.23,3.28,3.63,7.38,6.42,8.8,14.58,6.91,3.51-.81,5.66.94,7.91,2.93.86.69,1.75,1.34,2.58,2.07,1,1.27,2.66,2.25,2,4.27-2.5,2.5-4.74,3.9-7.88.35-2.35-2.67-6.51-1.75-7.09,2.28-1,7-8.15,8.57-10.54,14-1.2,2.74-4.12-.41-6.18,1.6,2.35-.51,4.33-.75,5.48,1.3s-.3,3.26-1.14,4.82c-3.11,5.74-4.85,12.09-8.8,17.52-1.67,2.29-2.61,4.44-5.82,5.07s-7.18,2.41-7.75,5.7c-.6,3.5,4.08,4.07,6.29,6.07,1.84,1.66,4.29,1.89,6.77,1.67,2.12-.19,4.84-.87,5,2.42.1,2.69-1.94,3.61-4.46,3.57a3.63,3.63,0,0,0-3.19,1.23,66.62,66.62,0,0,1,24,9c2.58,1.6,5,.11,7.53,0,3.77-.23,8.27-1.08,10.14,3,2.19,4.76,3.92,10.14.88,15.26-2.21,3.72-4.25.59-5.37-1a17,17,0,0,0-10.66-6.9c-4.34-1-7.7-.16-10.53,3.42-1.14,1.43-1.78,2.33-.65,4s1.4,3.49-.46,4.69-3.8.83-5.21-1.08c-1.66-3.3-4.25-2.71-7.13-1.88-7.35,2.11-13.59.32-17-6.18-2.4-4.49-5.6-8.47-7.83-13.09-1.33,2.42,1,5.93-2.77,7.88-6.86,3.56-6.74,3.77-10-6-.43-3.08-2.13-3.9-5.07-3-5.14,1.61-6.88,5.5-7.48,10.29C602.83,753.15,603.81,756.06,601.59,758.35Z"
            fill="#72543d" />
        <path
            d="M844.58,999c-5.87-1.81-7.46-8.94-11.76-10.85-4.56-2-7.18-5.37-10.55-8.11-4.76-3.86-3.6-8.94-1.43-13.92,1.09-2.49,3.62-4.65,2.52-8.12-3.92,1.79-3.87,5.42-4.94,8.39-.72,2-1.07,3.48-4.1,4-3.82.63-1.5-2.41-2.45-2.74a30.87,30.87,0,0,0-7.06-1.52c-4.31-.44-6.9-1.57-4.15-6.46,1.31-2.31,1.53-5.64.33-7.4-6-8.91-1.3-17.18,1.17-25.4,3.35-11.14,11.89-18.48,20.85-25.38,2.51-1.93,4.68-.28,5.67,1.08,1.56,2.14,3.5,4.9.88,7.79-1.85,2-3.76,4-5.52,6.12-1.54,1.85-.84,3.75.43,5.37,1.89,2.41,3-.38,4.47-.83,2.42-.74,3.22-4,6.64-4.14-.11,3.07-3.2,4-4.1,6.16-.46,1.12-2.11,2.44-.37,3.55,1.28.82,2.08-.31,2.59-1.52.93-2.21,3-1.37,4.67-1.57-.69,5.66-3.62,8.66-8.73,8.94-4.92.26-8.76,3-9.44,7.88a35.9,35.9,0,0,1-3.31,10.24c1.27-4,5.06-8.74,8.65-13.62,1.3-1.75,2.87-3.17,4.94-2.41,3.87,1.42,6.91.74,9.71-2.16.95-1,2.44-1.73,3.78-.81,1.73,1.2.79,2.78.12,4.21-1.87,4-5,7-7.76,10.38a2.56,2.56,0,0,1-3.72.55c-4.5-3.12-6.43.47-8.52,3.26-1.17,1.55-1.76,3.18,1.27,3.69,1.94.32,2.37,2.15,2.12,3.72-1,6.08,1.51,12,.52,18.14-.63,3.94,1.65,5.62,5.3,4.7.51-1.48.92-3.14,3-3,1.79.13,2.61,1.5,3.24,3a2.84,2.84,0,0,1,.37,1.08c-.22,5.56,2.31,8.46,8.12,8.23C848,993,846.5,996.07,844.58,999Z"
            fill="#53412e" />
        <path
            d="M617,743.1a5,5,0,0,0,1.78,3.62c1.28,1.18-.19,4.31,2.33,4.1,3.06-.25.47-3.34,1.59-4.71,1.79-.35,1.67,2.31,4,1.74,0-2.3,0-4.77,0-7.23,0-1.32-.25-3.08,1.81-3s.7,1.89,1.19,2.61c4.65,6.95,7.26,15.43,15.07,20,3.61,2.12,6.5-1.29,9.81-1.58,3-.26,6.64-1.86,6.74,3.4-1.58,2.31-2.09,4.46,1,6.07a12.5,12.5,0,0,1,2.92,3c1.11,2.24,3.56,4.48.06,6.76-3.19.12-4.8-2.48-7.75-4.34a45,45,0,0,1,5.25,7.67c1.58,3,.53,5.66-.58,8.47-1.56,4-4.29,5-8.05,3.26-4.09-1.84-7.73-3.79-12.84-2.11-2.87.94-6.85-.92-9.42-4-1.57-1.85-3.5-3.85-6.46-3.48-.58.07-1.21.81-.92,1.27,1.43,2.25,4,3,6.14,4.39,1.83,1.2,5.65-.21,5.38,3.82-8.15.26-13.81-4.19-18.91-9.69-2.52-6.89-4.85-13.83-5.88-21.11a6.41,6.41,0,0,0-2.83-4.22c-2.28-2.23-.83-4.32.41-6.26C611,748.25,612.63,744.39,617,743.1Z"
            fill="#4b3e31" />
        <path
            d="M876.71,633.37c.7,1.87,1.51,4.71-1.26,4.53-5.43-.33-10.64,5-16.19.5-.64-.52-2-1.46-3.33-.57,5.77,5.85,13.46,8.08,20.73,11.07,3.45-.27,5.88,2,8.61,3.43.2,2.31-1.39,3.65-3.21,3.24-8.3-1.89-16.54,2.1-24.81,0-1-.24-2.37-.12-2.73-.91-3.3-7.27-12.64-5.8-17-11.54-1.34-1.74-3.69-2.09-6-2.5,2.84,5.82,11.89,3.77,13.25,10.91-.81,1.25,2.6,3.26-.73,4.08-7.16-1-11.15-7.07-17-10.18a30.9,30.9,0,0,1-3.74-2.89c-5.47-4.08-5.47-4.08,1.13-6.83-6-2.43-6-7.49-5.74-12.67a7.62,7.62,0,0,1,1.73-2.36c1.57-1.59,3.26-5.5,5-3.75,2.32,2.31,7.39,1.87,7.09,7.49-.39,7.15,6.58,9.41,10.75,12.84-4.4-6.72-9.49-13.52-12.24-21.6-.73-2.12-2.36-1.66-3.67-2.25-4.39-1.95-10-1.49-12.87-6.44a4.94,4.94,0,0,0-2.54-1.34c-1.39-.43-3.67-.32-3.3-2.41.27-1.52,2.12-1.09,3.52-1.12,1.2,0-.43-.32-.16-.89a2.7,2.7,0,0,1,3.36-1.63c-3.49-.06-6.84-2.33-10.7-3.14s-3.6-4.54-3.65-7.67a5.75,5.75,0,0,1,1.13-3.39,1.31,1.31,0,0,1,1.71,0c-1.07,5.57,1.06,8,6.93,7,3.07-.47,5.69.85,8.37,2.4,8.58,5,16.14,11,23.56,17.63A109.56,109.56,0,0,0,876.71,633.37Z"
            fill="#876b53" />
        <path
            d="M768.58,805.75c-3-5.55-9.37-4.64-13.93-7.21-8.69-3.3-17.78-3-26.53-1.33-8,1.53-15.29.19-22.78-1.5-2-.45-3.68-.94-5.73.07-9.72,4.8-18.75,1.14-22.49-8.95-1-2.73,1-5.35,4.29-5.46,1.89-.06,3.37,1,5.07,1.92a4.94,4.94,0,0,0-1.94-6,5.42,5.42,0,0,1-1.37-2.19,3.84,3.84,0,0,1,1-3.93,6.21,6.21,0,0,1,1.46-.67c2.3-.27,2.64-4.07,5.65-3.08,1.69.87,2.73,2.5,4.3,3.51,2.95,3.91,7.53.33,10.86,2.31.54.33.49.47.43-.17-.64-6.87,4-2.59,6.43-3a5.7,5.7,0,0,1,2.83,1.84c1.78,5.28,5.21,8,11.12,7.4,3.54-.33,4.84-1.63,3.08-4.87-1.16-2.13-3.89-4.13,0-6.16,3.25-1.69,9-.33,9,2.7.11,5.7,4.26,8.33,7.24,12-1.12,6.39,2.7,10.64,11.41,11.54,8.42.87,13.93,5.27,17.55,12.37a44.88,44.88,0,0,0,4.48,6.91c0,2.29-1.16,3.74-3.41,3.72-2,0-2.91-1.8-3.47-3.43C772.15,811,771.23,807.94,768.58,805.75Z"
            fill="#2c241b" />
        <path
            d="M687.66,660.77a2.58,2.58,0,0,1-2.42-1.22c1.18-6.34-2.6-13.16,2-19.28-1.77,1.07-3.41,3.34-5.5,1.42-1.9-1.73-.73-4,.11-6,1.43-3.32,4.73-5.15,6.79-8,1.88-2.61,3.48-5.12,2.28-8.47a24.9,24.9,0,0,0,6.85-6c4.75-5.48,12.1-6.61,18.67-9,1.77,2,.39,3.69-.73,5.22-2.06,2.79-2,4,2,4,8.33.09,9.09,1.18,7.54,9.29a8.23,8.23,0,0,0-3.74,7.19c-.06,2.55-.23,5.35-1.92,7.64-1.13,1.64-.87,3.78-1.88,5.42s-.64,2,1.15,2.25c1.35.16,2.73.81,2.73,2.49a2.83,2.83,0,0,1-2.57,2.75c-2.65.5-2.93,1.86-1.92,4-1.16,4.53-4.28,5.5-8.46,4.57,1.6-3.21-1.57-2.17-2.69-2.81-2.1-1.19-2.51-2.81-1.91-5,.53-1.94,2-3.39,2.9-5.66-3,0-6.1-.64-7.22-3.37-.94-2.29-1.66-3.16-3.73-1.56-1.59,1.23-4.77,1.7-2,5.12a4.68,4.68,0,0,1-1,6.51c-1.83,1.56-3.4,3.32-3.43,5.92A2.84,2.84,0,0,1,687.66,660.77Z"
            fill="#9e7b5c" />
        <path
            d="M723.38,586.25a.89.89,0,0,1,.44-1c-1.17-8.27-.92-16.6-.71-24.9,0-1.91-1.89-4.75,1.75-5.85,1.1-.34-.14-.29-.23-.43-3-5-1.13-8.39,4.85-8.92.32,0,.36,0,.59-.76,1-3.18,2.1-6.36.65-9.7a4.28,4.28,0,0,1,1.54-5.68c2.12-1.52,4.28-2.15,6.18.39.42,3.71-.35,7.39-.31,11.1,0,3.47-.93,7.08,3.19,9.16a2.14,2.14,0,0,1,1,2.06c-1.5,6.32,2.13,13.13-2.38,19.26-2.54,3.46-.78,8.46-3.32,12.24-.49.73.49,1.88,1.39,2.34,3.79,1.93,5,5.94,7.64,8.84,1.56,4.06,5.37,6.08,8.24,9,1.59,1.59,4.17,2.52,4.06,5.37,0,2-2.15,2.6-2.93,4.09,5.84,3.94,7.72,3.92-.17,8.08-4.93-.85-8.53-2.59-7.6-8.69.43-2.76-1.64-4-4.24-2.7-2.85,1.37-5.84,2.33-8.78,3.46a11,11,0,0,1-4.13-.25c-2.19-.52-6.11.71-5.27-3.5.69-3.43,3.31-4.61,7.88-1.69-2.93-3.94-6.52-7,.52-7.88,1.26-.15,1.5-2.68,3.24-3.47a46.08,46.08,0,0,1-5.42-.62C722.87,594.86,722.87,594.88,723.38,586.25Z"
            fill="#574331" />
        <path
            d="M791.7,837.42c-2.67,3.68-5.37,7.29-9.82,9.18-1.32.55-2.17,3.06-3.8,1.82s-3.55-3-2.75-5.39c1.4-4.21.7-8.47.81-12.72l-.27-9.24c5.4-1.19,3.87,3.21,4.64,5.67.44,1.38-1.43,3.36.45,4.26s3-1.29,4.34-2.31c2.69-2.05,4.38-5,6.84-7.3a223.26,223.26,0,0,1,22.26-11.73c.06-.65-.58-.68-1.11-.7-3.07-.09-6.71-.15-6.64-4.09s3.7-6.12,7-5.76c3,.32,4.54-1.83,7-1.84,2.58,2.42-.34,7.51,4.72,9,1.12.33-.09,2.85-1,4.1-1.54,2-3.51,3.67-5.07,5.71-4.9,6.4-5,7.81,2,11.69,4.63,2.57,4,5.62,2.8,9.33-.64,2-2,3.65-4.12,3.73-5.16.19-8.57,3.67-12.6,6a39.62,39.62,0,0,0-9.85,6.1c-.8-6.34,1.7-11.4,2.67-16.7,1.74-2.29.33-5.38,1.93-7.8A80.72,80.72,0,0,1,791.7,837.42Z"
            fill="#543d27" />
        <path
            d="M848,989.44c-6.16,2.36-10.39,2-9.21-6.23a8.27,8.27,0,0,0-.72-3.41c-.32-1-1-1.92-2.13-1.61-1.48.42-1,1.87-1.18,3-.64.61-1.9.81-2.07.25-1.48-5-7-9-3.64-15.23,1.45-2.69,1-5.58.07-8.55-1.25-3.85.72-6.91,3.78-9.14,2.46-1.79,4.79-2.92,7.73.14,1.83,1.91,5.29.28,7.84.19,5.82-.21,7.85,2.63,8.83,7.37.43,1.39.84,2.77,1.3,4.14.34,2.62,2,5.18.31,7.87,1.71,6.7,3.6,13.4-.22,20a3.41,3.41,0,0,0-1,2c-.1,1.83,1.49,4.62-2.25,4.53-2.85-.06-4.82-1.33-4.51-4.61a1.4,1.4,0,0,0-1-1.73Z"
            fill="#30281d" />
        <path
            d="M685.28,776.16c5.29,1.59.91,7.19,4.59,9.48-2.94,0-4.84-1.33-6.73-2.68s-3.54-.08-4.8,1c-1.94,1.64.22,3,1.08,3.84a45.4,45.4,0,0,1,5.72,7.22c2.72,4,9.71,2.78,11,1.28,5.89-7,11.39-.52,16.76-.28,3.39.15,6.62,1.22,10.34.62a86,86,0,0,1,27.4-.31,5.56,5.56,0,0,1,4,2.23c-11.5-1.89-22.85-.26-34.36.45-9.62.59-19.57,2.21-29.48,0-3.77-.82-8.28.22-12.13,1.42-7.19,2.26-14.12-.14-21.15-.32-4-.1-7.42-2.51-10.6-4.9s-7.32-1.33-10.9-2.36l0,0c-3.63-2.6-8.59-2.55-11.9-5.93-1-1.05-3.88-.6-2.43-3.38,2.54,1.48,2.44-4.86,6.66-1.62,3.39,2.6,5.68,7.49,11.1,7.45.82,0,2.14,1.3,2.69.58,3.79-5,6.88-.38,10.2.59,2.46.72,5.32,4,7.3.79,1.86-3,4.83-6.56,1.17-10.72-2.48-2.83-4.35-6.18-7.14-10.25,5.7,1,7.66,5.23,11.26,7,3.87,1.08,4.62,5.12,7.41,7.29a12.32,12.32,0,0,0-4-5.45c-1.06-.94-2.33-2.75-1.31-3.45,2.37-1.62,3.62-3.11,3.86-6.22.14-1.8,2.69-.77,3.62.59a26.07,26.07,0,0,0,6.15,6.25C682.43,777.65,683.82,777.85,685.28,776.16Z"
            fill="#3e3023" />
        <path
            d="M659.1,645.51c-1.58,1.78-1,4.13-1.7,6.12-.8,2.33.4,6.06-4,6.23-.4,0-1.18.95-1.08,1.24,2.24,6.95-6.62,14.39,1.33,20.89a5.27,5.27,0,0,1-4.9.33c-1.63-.58-2.94-.47-2.85,1.49.13,3.08-1.63,4.43-4.1,5.75-3.93,2.11-1,4.58,0,6.9-2.16.84-5,1.9-2.27,4.49,4.41,4.21.61,5.54-2.26,6.36-3.16.9-5.8,1.12-2.9,5.08a2.18,2.18,0,0,1-.08,2.11c-3.78,3.38-3.21,6.2.69,9.08,1.76,1.3,1,2.83-.82,3.59-1.08.44-2.42.31-3.44.82-1.84.92-5.07-.07-5.39,2.75-.29,2.53,2.77,2.82,4.31,4.14.58.5,1.4.83.66,3-5.12-5.35-11.32-1-17.32-2.52-3.91-1-7.81,2.51-10.24,6.25,1.59-11.45,7.42-20.88,15.68-28.54,9.54-8.83,15.87-19.58,22.67-30.36,5.26-8.35,5.45-18.56,12.06-26.28,2.4-2.81,1.64-8,5.77-10.37a1.05,1.05,0,0,1,.4.94C659.26,645.34,659.19,645.51,659.1,645.51Z"
            fill="#997a5c" />
        <path
            d="M792.93,822.12c-2.94,3.36-6,6.65-8.77,10.13-1.57,2-3.11,1-4.78.5-2.66-.78-1.1-2.29-.77-3.69.77-3.19,1.51-6.44-2.74-8l-7.29-15.32c3.21,1.37,4.34,4.15,5.26,7.2,1.25,4.16,3.16,5.51,5.93.92-2.12-3.61.22-5.37,3.17-5.82,5.4-.82,7.55-2.44,6.92-8.74-1-10.16-.26-10.15-10.81-11.7-3.2-.47-6.37.49-9.5-.12-2.39-.46-5.34.25-6.81-2.62a3.53,3.53,0,0,1,3.08-2.44c4-.65,8.36.54,10.16-5.4.65-2.12,6.09-2.6,8.17.67,3.82,6,10.83,7.72,15.73,12.22,2,1.84,4.92.75,7.45.19,2.1-.46,4.49-1.32,5.57,1.52.89,2.32,1,5.15-1.38,6.35-4.82,2.47-5.69,6.46-6,11.16-.2,3.62-2.6,6-5.74,7.66C797.2,818.17,794.51,819.44,792.93,822.12Z"
            fill="#332417" />
        <path
            d="M979.73,737.35c4,.7,4,4.54,5.76,7l.23,2.18c1.46,3.9-1.06,8.85,3.28,12,.08,1.17.17,2.33.25,3.5.61,3.43-1.14,6.41-2.26,9.37-2.28,6-1.38,12.67-4,18.58-.83,1.08-1.79,1.87-3.29,1.45a196.23,196.23,0,0,1-1.17-35.32L977,758.4c-2.07.57-4.78-1.56-6.27,1.52-.11,2.75,4.67-.16,4,3.27q-1.2,5.31-2.39,10.62c-2.8,1.9-3.5-2-5.64-1.94-.44,0-.89-.1-1.34-.13a5.59,5.59,0,0,0-1.29.27c-1,1.86.58,4.16-1.1,5.87-1,1-2,1.87-3,2.82-2.26,2.19-4,3.11-5.44-1-1.06-3-5.17-5.3-1.93-9.21,6.3-3.42,7.92-6.15,6.68-11.24-.17-.7,0-2-.87-1.84-7.69,1.46-4.43-4.08-4.87-7.25a3.78,3.78,0,0,1,1.52-2c5.8,0,9.89-5.93,16.1-4.55a28.59,28.59,0,0,1,5.2,2.8c.59-.11,1,2.39,1.57.27C978.68,743.62,976.84,740,979.73,737.35Z"
            fill="#79624c" />
        <path
            d="M659.1,645.51c-.07-.49-.13-1-.2-1.46,7-6.52,12.62-14.28,20.25-20.13,2.52-1,5.38-1.15,7.45-3.16,1.12-1.32,2.75-1.29,4.27-1.54l4.49.5c-.81,2.18-5.33,2.5-2.85,6.28.39.6-4.11,4.7-6.72,6.72-3,2.31-3.5,5.21-4,8.61,3.55.06,4.31-2.94,6.49-3.71a2.71,2.71,0,0,1,2.15.16c.8.55.35,1.39-.23,2-3.22,3.22-5.48,6.18-2.54,11.27,1,1.81-1.48,5.63-2.38,8.53-2.89-2.63-5.5-4.2-9.92-2-2.26,1.13-7.74,4-8.46-2.81C661,654.37,663.57,647.05,659.1,645.51Z"
            fill="#8c694c" />
        <path
            d="M737.94,530c-1.8-1.85-3.31-1.29-5.1.24s-.84,2.71-.18,4.44c1,2.52,1.21,5.59-.29,8-1.37,2.16-1.8,4.14-.56,6.57-3.26.17-1.53-5.3-5.2-3.47-2.23,1.11-2.82,3.8-2.65,5.57.44,4.38,4.62-1.11,6,2,0,.08,0,.76-.11.77-6.9.7-6.53,5.53-6.24,10.43.34,5.83-1,11.75,1,17.51a2.69,2.69,0,0,1-.84,3.2c-2.71-9.58-1.33-19.39-1.48-29.1-.17-10.86,3-21.34,4.71-32,2.69-6.83,7.81-12.65,8.11-20.51.16-4.33,2.4-5.36,6.59-3.27,2.06,1,3.4-.35,5.09-.34,2.52.71,3.1,2.63,3.15,4.89-1.67,4.93-2.12,10.26-4.87,14.86a3.87,3.87,0,0,0,0,4.39c1.12,2.05,4.74,2.36,4.06,5.65,1.31,7.66-2.05,15.48.86,23.08.21.55.63,1.33.35,1.65-3.29,3.67-.34,8.09-1.55,12-5.16-1.6-6.6-5.6-6.18-10.26.17-2,.82-4-.27-5.61-2.64-3.9-1.87-8.28-1.58-12.31C741.09,534.82,739.76,532.47,737.94,530Z"
            fill="#6c533e" />
        <path
            d="M862.55,440.53c1.31,13.89,1.74,27.36-2.6,41.32-3.4,11-8.85,21.25-11.09,32.57-.23,1.17-.62,2.28-2,2.59a2.84,2.84,0,0,1-1-3.12c1.11-4-1-5.61-4.43-6.65-2.51-.75-5.7-1.13-5-5.07,4.93-6.11,7.06-13.72,11.11-20.37,3.53-5.8,2.67-13.51,4.3-20.27,1.73-5.86,3.73-11.65,4.59-17.72a8.25,8.25,0,0,1,0-1.79C857.69,438.41,859.65,437.59,862.55,440.53Z"
            fill="#a99781" />
        <path
            d="M748.71,505.19c0-2-.2-3.88-2.51-4.67-2.92.31-3.74-2-4.4-3.88-2.79-8.14-1.49-15.83,3.06-23.06-1.74-4.24,3.08-7.36,1.88-11.68-1.27-4.58.39-9,1.85-13.36,5.35-11.45,10.38-23,18.48-33.05,3.54-4.36,2.78-11.45,9-14.3a1.05,1.05,0,0,1,.29,1.66l-.18,2.17c-1.42,2.09-3.89,3.37-4.62,6,.17,3.36-1.89,5.71-3.77,8.15-2.14,5.09-6.53,9.21-6.67,15.16-.64,2.42-4,3.23-3.78,6.16-.62,3.64-1.16,7.34-3.43,10.41a3.46,3.46,0,0,0,.09,4.75c5.77,5.83,5.58,11.94,2.16,19.11-2,4.2-1.14,9.58-4.12,14,2.76-.43,4.73.23,5.41,2.75.56,2-1.1,2.7-2.61,3.26-3.26,1.21-1.26,3.56-1.24,5.49C753.3,503.13,753.31,506.35,748.71,505.19Z"
            fill="#554537" />
        <path
            d="M837.39,501.72c0,1.56-.17,3.18,2.06,3.43,7.58.86,9.79,5,7.39,11.86-4.22,8.5-7.77,17.44-15.58,23.65a2.23,2.23,0,0,1-.6-1.51c3.11-7.13,8.48-13.09,10.93-20.56.63-1.91,2.72-3.55.63-6.92-3.82,7.81-11.78,11.34-15.62,18.82-1.25,2.42-4.71,4.61-8.31,4.92-2.07-.48-4.38-1.52-3.87,2.35.22,1.66.24,3.54-2,4.23-4.81-3.19-3.72-8.29-4.27-12.86,1.7-2.56,4.59-3.6,7-5.24a64.58,64.58,0,0,0,19-19.69C834.84,503.06,835.05,500.93,837.39,501.72Z"
            fill="#5b4f42" />
        <path
            d="M723.38,586.25a15.37,15.37,0,0,1,.8,4c-.18,3.12-.38,4.94,4.17,3.67,3.14-.88,6.95.45,10.44,1,1.09.16,2.46,2.07,1.65,2.1-4,.17-5.48,2.69-7.08,5.47-.05.08-1.91-.85-3.24-1.45a8.23,8.23,0,0,0,.21,1.89c.75,1.74,5.13.94,3.42,4.28-1.63,3.17-3,.26-4.73-.27-2.3-.69-3.15,1.62-3.34,3.83,2.72,1.26,6-.32,8.5,1.8-1.72,3.22-3.92,6.21-4.9,9.79a4.15,4.15,0,0,1-3.87,1.2l-.67-.52c-.46-8.73-1-9.24-8.6-8-1.25.22-3.07,1.64-3.58.06s.18-3.59,1.05-5c1.15-1.87,2.93-3.36,2.78-5.82,5-2.48,4.78-7.51,5.85-11.85C722.74,590.39,722.12,588.15,723.38,586.25Z"
            fill="#86684c" />
        <path
            d="M746.23,474.51c-1.67,1.52-3.1,2.67-2.59,5.68.57,3.44-2.69,6.53-1.7,10.72.86,3.61,1.17,7.09,4.26,9.61-1.62,2.32-3.13,5.39-5.6.65-.46-.88-1-1.8-2.23-1.29a2.75,2.75,0,0,0-1.7,2.86c.56,5.31-.81,9.82-5,13.4a2.3,2.3,0,0,0-.22,2.11c2.1,4.61-1.38,5.07-4.39,5.91-1-4.92,1.89-8.89,3.43-13.12,2.72-7.49-.06-15.49,2.62-22.93,1.2-3.35,2.29-6.74,3.43-10.12a1.91,1.91,0,0,0,.79-.83C740,470.66,740.36,470.54,746.23,474.51Z"
            fill="#806b52" />
        <path
            d="M862.55,440.53c-2.33-.58-4.88-1.62-5.13,2.3-2.17.06-3.27-1.46-2.25-2.93,3.19-4.57,2.39-9.68,2.72-14.67,3-5.7,3.34-11.59,2.86-18-.87-11.6.38-23.26.35-34.9a31.69,31.69,0,0,0-1.1-9.79h0a1.45,1.45,0,0,1,.08-2.43c5.13,5.46,4.41,12.52,4.13,18.84a205.5,205.5,0,0,0,1.24,36.69C866.57,423.91,868.29,432.79,862.55,440.53Z"
            fill="#a99781" />
        <path
            d="M617,743.1c-2.94,4.59-8.34,7.76-8.36,14,.31,2.92,1.6,6.39-3.61,6.17-2.08-1-2.76-3-3.44-5,.47-4.36-.33-8.67,1.07-13.15,1.52-4.85,5.44-6.08,9.05-7.19C614.93,737,617.87,738.73,617,743.1Z"
            fill="#282019" />
        <path
            d="M999.58,756.23c1.6,8.58-1.77,16.49-3.38,24.63-2.94.92-5.69,3.65-9,.88a7.79,7.79,0,0,1-.18-6.36c1.34-2.15,2.89-2.33,4.66-.48,3.91-.59,3-3.64,2.73-5.88-.79-6.64-1.92-13.23-2.92-19.85C996.07,749.42,996.65,754.14,999.58,756.23Z"
            fill="#79624c" />
        <path
            d="M746.23,474.51c-4.64-2.63-7.19.35-9.7,3.48,4.48-9.63,5-20.82,12.06-29.45.63,3.75-1.13,7.29-.39,11.35.54,3,.41,5.33,3.85,6.35-1.93,1.92-3.17.16-4.39.45-1.63.39-3.4,1.61-1.11,2.91C750.43,471.81,746.31,472.91,746.23,474.51Z"
            fill="#99836a" />
        <path
            d="M605,763.31c3.62-.68,1.72-4.5,3.61-6.17,1.52.21,3.47,0,3.62,2.14.59,8.18,4.61,15.67,4.88,23.91-3.12-4.59-6.95-8.76-8.34-14.36C608.24,766.61,607.35,764.44,605,763.31Z"
            fill="#756858" />
        <path
            d="M999.58,756.23c-4.36-.5-4.41-5.81-8.1-7.06-.58-7.88.3-15.67,1.43-23.45,0-.14.19-.36.31-.38s.36.11.55.18C995.51,735.79,994.78,746.52,999.58,756.23Z"
            fill="#9b8066" />
        <path
            d="M776.32,402.85c-.1-.56-.19-1.11-.29-1.66a4.06,4.06,0,0,1,1.66-4.14c7.55-5.3,13.35-12.32,19.58-18.95,1.26-1.34,3.37-1.9,5.09-2.82-2,8.32-9.72,11.84-15.31,17C783.35,395.7,779.22,398.64,776.32,402.85Z"
            fill="#463e34" />
        <path
            d="M803.83,585.37l-.58,0-.57,0c-2.3-2.12-1.11-4.18.21-6.16s2.7-4.22,4.15-6.27c3.42-4.13,5.48-9,7.92-13.71,1.45-2.8,2.85-5.65,6.39-6.43a3.22,3.22,0,0,1,1.68.51c1.45,3.75-3.09,4.57-3.7,7.31C815.25,569.53,808.21,576.64,803.83,585.37Z"
            fill="#6a5c4a" />
        <path
            d="M860.09,360.1c0,.81-.05,1.62-.08,2.44a33.25,33.25,0,0,1-3-4.77c-2.35-5.61-6.41-6.61-11.94-5.09-2.19.61-4.65.27-7,.36,5.38-4.23,11.65-3.28,17.31-1.72C858.57,352.21,858.73,357,860.09,360.1Z"
            fill="#403023" />
        <path
            d="M820.38,362.51c-4.27,3.82-8.49,7.69-12.84,11.41-1,.91-2.57.78-3.94.42C809,370.17,812.94,363.91,820.38,362.51Z"
            fill="#564c44" />
        <path
            d="M819.33,560.62c-.41-3.16,3.62-4.08,3.66-7,.9-3.91,1.69-7.93,6.85-8.52C828.65,551.78,824.33,556.42,819.33,560.62Z"
            fill="#41382c" />
        <path
            d="M829.84,545.08c-3.64,1.78-4.07,6.07-6.85,8.52l-1.36-.11c.87-6.23,3.82-11.1,9.54-14.16l.09,1.33C831.35,542.31,831.26,543.9,829.84,545.08Z"
            fill="#41382c" />
        <path d="M686.6,620.76c-.83,4.84-4.66,2.81-7.45,3.16A8.72,8.72,0,0,1,686.6,620.76Z"
            fill="#8c694c" />
        <path d="M636,792.86c3.67.61,8-1.82,10.9,2.36C643.16,795,639.35,795,636,792.86Z"
            fill="#4b3e31" />
        <path
            d="M977,844.29c-1.68,1.78-1.13,4.09-1.39,6.16-.86,6.68-3,13.14-2,20.14s-4.45,12.69-5.22,19.92c-2.18-3.18-.68-38.7,1.71-49.48a6.49,6.49,0,0,1,6.87,1.14C977,842.88,977,843.58,977,844.29Z"
            fill="#896a4f" />
        <path
            d="M966.31,770.28c3.46-1.24,3.25,3.59,6,3.53-1.09,14,4.33,27.37,3.5,41.31-1.66,1.35-3.32,1.09-5,0a90,90,0,0,1-3.52-18.69,1.47,1.47,0,0,1-.1-1.5c-.35-3.81,1.63-7.13,2.37-10.72.88-4.37-2-7.35-4.07-10.63A3.34,3.34,0,0,1,966.31,770.28Z"
            fill="#896a4f" />
        <path
            d="M969,917.54c.07,4.45-2.11,8-5.09,12.46-.57-3.26-1-5.48-1.34-7.69-1.13-5.91-.46-11.9-.87-17.84-.16-4.55-.58-9.14,2.15-13.24,1.81.37,1.24,2.34,2.4,3-.27,4.77.66,9.52-.39,14.33C965.09,911.88,968.85,914.21,969,917.54Z"
            fill="#896a4f" />
        <path
            d="M995.09,784.39a19.34,19.34,0,0,0,3,10.23c2.43,3.77,1.08,9-.62,13.39l-3.55-2.22c-1.14.07-2.34,1.06-3.38-.23q-.84-8-1.69-16C988.4,784.48,989.06,783.93,995.09,784.39Z"
            fill="#79624c" />
        <path
            d="M981.42,894.53a.73.73,0,0,0-.14.89c-1,3.75-.62,8-4.92,12-.39-7.44-.64-13.68.11-20q1.34-6.94,2.66-13.9c3.43,1.69,2.3,5.14,3,7.81C983.26,885.78,982.42,890.19,981.42,894.53Z"
            fill="#896a4f" />
        <path
            d="M977,842.17c-2.36,0-4.73.12-6.87-1.14l1-3.67a3.55,3.55,0,0,1,3.33-.79c-.17-.78,1.87,1.92.56-.31-2.24-3.83-1.28-8-1.65-12,2-1.26,3.83-2.82,6.46-2.24C982.76,829.27,978.47,835.54,977,842.17Z"
            fill="#896a4f" />
        <path
            d="M987.77,868c-.86-.3-1.43,3.1-2.51.18-.77-2.09-1.58-4.18-2.37-6.27q.61-6.37,1.24-12.77c.42-.76,0-2,1.36-2.23.27.22.35.43.24.62s-.21.28-.31.28C988.94,854.19,989,861,987.77,868Z"
            fill="#896a4f" />
        <path
            d="M995,826.82a36.09,36.09,0,0,1-6.89,13.83c0-7.31-2.68-12.87.09-18.52a1.23,1.23,0,0,1,1.46,0C991.16,824,993.2,825.23,995,826.82Z"
            fill="#896a4f" />
        <path
            d="M989.16,822.15l-1,0c1.76-5.39,3.9-10.73,2.36-16.57,1.1.55,2.38-1.64,3.38.23q.5,9.35,1,18.7C992.65,824.47,991.17,822.7,989.16,822.15Z"
            fill="#896a4f" />
        <path
            d="M980.7,796.19c3.18-1,2.6,3.33,5,3.46v15.57C984.41,808.74,979.86,803.11,980.7,796.19Z"
            fill="#896a4f" />
        <path
            d="M979.76,822c-1.64,1.75-3.48,3-6.08,2.37-1.1-.41-.54-1.74-1.33-2.32l-1.5-7,5,0Q977.8,818.57,979.76,822Z"
            fill="#896a4f" />
        <path
            d="M974.71,763.19c-.3-.24-.58-.63-.91-.68-1.91-.3-4.4,1.94-5.66-1-.91-2.06,1.25-3,2.41-4.16,2.48-2.41,4.56-1.1,6.41,1A5.56,5.56,0,0,1,974.71,763.19Z"
            fill="#a48c72" />
        <path
            d="M989.16,822.15c3.39-2.72,4.12.82,5.71,2.34,0,.78.06,1.55.08,2.33C991.49,827.11,989.62,825.48,989.16,822.15Z"
            fill="#896a4f" />
        <path
            d="M860,362.54c2.11,2.82,2.28,6.1,2.28,9.42q0,17.24,0,34.48a8,8,0,0,0,.08,2.91c2.64,6.46-.61,11.67-3.55,17-4.15,2.58-2,7.4-4,10.92-1.47,2.68-2.41,5.57-4.89,7.59-1.39,1.24-1.84,3-2.56,4.58-1.45,3.22-2.58,7.18-7.5,3.7-.92-.64-1.88,0-2.83.3-5.35,1.51-10.25,4.16-15.49,6-1.37.48-2.69,1.21-3,2.65-1.63,8.76-9,10.68-15.93,13.08-1.5.51-3.18.65-4.49,1.54-3.81,2.61-7.2,3.84-9.12-2-.42-1.25-1.27-.85-2.34-.61-5,1.08-6.88-.6-5.14-5.18,1.37-3.62.36-5-2.94-5.94a11.75,11.75,0,0,1-5.21-2.77c-5.74-5.76-12.33-7.48-20-4.46-2.29-.57-3.92-1.62-1.81-3.94,3-3.29,3.35-7.42,4.22-11.42-.65-3.72,5.12-2.36,4.77-5.85-2.6-7.35,4.14-10.5,7.12-15.35-.4,4.95-4.15,9.53-1.61,14.78-6.95,4.57,1.29,8.49.6,12.83a2.64,2.64,0,0,0,2.38,3c5.17.12,7.36,4.06,10.09,7.24,3.2,3.74,7.39,5.92,11.83,7.73,5.34,2.17,11.94.33,15.86-4.16a4,4,0,0,1,2-1.16c11.31-2.55,16.68-12.65,25.12-18.77,6.45-4.68,9.75-11.37,14.89-16.79,3.9-4.12,7.8-8.93,5.53-15.52-.25-.71-.52-1.93-.17-2.23,5.52-4.76,2.92-11.72,4.89-17.44,1.08-3.14,2.58-6.72-.91-9.73a2.71,2.71,0,0,1-.25-2.68C861.4,372,859.2,367.06,860,362.54Z"
            fill="#403023" />
        <path d="M771.52,411c-.75-3.71,2-4.76,4.62-6C776,408.06,773.51,409.34,771.52,411Z"
            fill="#473123" />
        <path
            d="M807.28,846.85c3.13-4.08,6.45-7.38,12.41-7.31,4.19.05,3.06-4.44,4-6.92.72-1.92-.9-2.54-3-3.14-7.25-2.07-8.5-7.19-3.62-12.89,1.36-1.6,2.22-3.84,3.89-4.88,2-1.28,2.67-3.21,4.52-4.92-3.81-.49-8.49.26-4.74-5.44.59-.89-.17-2.64-.31-4-.14-.41-.16-1,.1-1.07,6-1.52,5.57-6,5.16-10.58,2-3,.68-8.13,5.88-9.16,1.4,0,2.77.41,4.17.42,2.39.31,3.65-1.77,5.52-2.55,2.46-.31,3.11,1.94,4.51,3.12,2.46,2.09,5.33,2,8.27,1.49,5-3.16,10.32-3.4,17.29-1.72-6.23-4.86-4.15-12.45-9.35-16.83-1.64-1.38-2.72-3-5.17-3.32s-4.61-1.86-4.24-4.75,2.44-4.37,5.4-4.51c4.61-.21,10.49,4,11.37,8.49a11.24,11.24,0,0,0,4.19,6.89c1.23,1,2.6,3.24,4.1-.54,1-2.42,4.65-1,7.15-1.13,2.91,1.38,5.36,3.62,9.14,3.14,2.82-.35,4.56,1.94,5.57,4.38a31.62,31.62,0,0,1,2.07,6,3.55,3.55,0,0,1-.68,2.37c-3.11.81-5.45,4.21-9.27,2.7-.12,0-1.05-.44-.61,0,4.7,5.08-4.69,7.7-2.18,12.49.56,1-1.07,1.89-2.35,2a2.91,2.91,0,0,1-3.28-1.93c-.72-2-1-4.26-3.66-5.16-1.32,1.31-.41,2.83-.21,4.19.24,1.62.51,3.12-1.35,4-1.31.63-3.5.72-2.2,3.07,1,1.84,1.84,4.2,4.62,3.85,4.31-.54,6.72,1.43,7.93,5.28-.09,1.9-2.76,4.48,1.62,5.19,1.33.22,1.47,1.67.94,2.91a3.1,3.1,0,0,1-3.84,1.95c-2.49-.54-4.46-2.51-7.59-2.71.83,4.71,4,7.23,7.37,9.92,4.7,3.74,7.12-1.89,10.67-2.15-3-4.32-2.77-4.84,2.63-6.55-.66-1.67-4-1.43-3.14-4.17,2.13-1.18,3.63-2.33,3.2-5.4-.54-3.89,2.15-3.7,4.43-2,2.82,2.13,5.3,4.71,5.88,8.45a7.85,7.85,0,0,1-1.52,6c-3.46,5.36-1.62,10.84,4.22,13.08,4.08,1.57,6.68,4.84,9.6,7.69,1.37,1.34,2.23,3.46-.44,4.85-5.12-.48-8-5.33-12.87-6.32-2.42-1.39-4.84-3.06-6.58.88-.84,1.88-2.52,2.29-4.41,1.92a8.29,8.29,0,0,0-7.06,1.9c-4.33.83-4.39-5.38-9-4.86.66,1.63,1.3,3.41.15,5.08a10.7,10.7,0,0,1-1.49,2c-5.32,5.23-6.93,11-2.52,17.57-.86,6.39-2.47,7.68-7.08,5.63-1.66-.74-3.73-3-4.59.29-.53,2.07-.21,5.31,2.79,5.6,6.28.59,7.11,4.66,7.2,9.5.05,2.75,0,5.49.15,8.24s-1.08,4-4,3.34c-3.6-3-5.9-7.09-9.35-10.27-1.79-1.64-3-2.1-5.1-1.38a29.87,29.87,0,0,1-5.82,1.17c-10.75,1.47-16.53-6.73-23.76-11.93-2.34-1.67-1-4.27.23-5.76-6.92,2.67-14,6.2-19.66,12a2.46,2.46,0,0,1-3.29.31c-1.37-1.11-.77-2.49,0-3.7a25.57,25.57,0,0,1,3.55-4c1-1,2.7-2,2.51-3.16-1.36-8.27,7.18-10.57,9.91-16.33.69-1.47,2.29-2,3.92-2.4s4.77.57,3.66-2.87c-.93-2.88-3.08-3.84-6.14-2.58-1.85.76-3,3.52-5.7,1.92-.58-3.68-3-1.26-4.48-1.15A56.73,56.73,0,0,0,807.28,846.85Z"
            fill="#674932" />
        <path
            d="M873.06,895.15a16.53,16.53,0,0,0,2.22-.33c-.14-5.51,1.33-11.15-1-16.46-.47-1.08-2.52-2.64-3-2.4-8.16,4.24-3.59-4.65-6.37-6.16-1.11-.61.44-3.16,1.92-4.34s2.44-.23,3.62.62c5.28,3.82,5.66,3.66,7.38-2.73,3.83-2.71,6.36,2.17,10,1.69-1-2.28-3.38-2.57-5-3.79-3.23-2.39-4.5-5.61-3.08-9.3a5.59,5.59,0,0,1,6.41-3.32,6.53,6.53,0,0,1,5.81,7.09c-.17,3.4,1,5.58,4,7.13,1.64.84,3,2.33,2.6,4.28-1.58,7.9-.19,15.75.15,23.62.16,3.57-4.52,6-9,4.81-1.85-.47-4-2.85-5.52.33-1.92,4-.94,9.15,1.93,10.64.64.33,1.69,1.61,2-.42.66-4,3.18-3.23,5.77-2.07.92.41,1.91,1.08,2.83.76,7-2.44,6.49,2.38,6.73,6.56-.06,3,.37,6-.65,8.85-.1.16-.23.48-.3.47-5.16-1-10.24,2-15.71.29.66,4.31,3,7.93,4.26,11.89.49,9.69,1.42,19.39,1.26,29.07,0,3.62-2,7.26-2.63,11.16-1.42,9.06-4,17.95-6.13,26.91-5-.41-5.1-.64-3.79-7.08-.41-3.7,1.41-7.16,1.15-10.83.07-1-.33-2.59.4-2.75,7.94-1.73,3.88-7.23,3.85-11.45-1-8.7-.13-17.44-.56-26.75-1.13,4.73-4.07-.54-5.65,1.63a7.08,7.08,0,0,1-5.15-.07c-2.57-.91-3,.48-3.28,2.33a1.46,1.46,0,0,1-.87-.35c-3.47,3.86-5.65,8.94-10.86,11.17-.85.39-2.69-3.53-2.68.6-2.5-7.09-5.72-8.16-13.43-4.34-1.57.78-2-.35-2.84-1.17-1.22-1.26-.93-5.08-4.36-2.74-3.16,2.16-7,5.16-5,8.9,2.61,4.71.53,8.1-.88,11.95-.63,1.72-1.37,3.56-.34,5.06,1.56,2.27,2.81-1.43,4.5-.62,1,2.48-4.51,5.82,1,7.67-.16,2.17-1.64,2.9-3.56,3.14.34-4-6.71-3.8-5.07-8.42,2.32-6.49-2-13,.17-19.44.3-.92-.21-1.78-1.58-1.92-3.87-.38-4.39-1.25-2.72-4.49a15.79,15.79,0,0,1,6.17-6.2,4.26,4.26,0,0,1,2.19-.84c6.77.52,7.82,0,11.62-6.63.67-1.17,1.28-2.36,1.89-3.56,0-.08-.2-.3-.37-.53-2.19-.44-3,1.48-4.13,2.65-2.16,2.34-4.28,3.21-7.27,1.4-2.73-1.65-4-.79-5.88,2.13-3.66,5.71-8.24,10.86-11.2,17.18,3.25-7.32,1.51-16.12,7.57-22.51,1.29-1.35,2.34-3.07,4.26-2.53,6.69,1.89,9.11-2.55,11.52-7.15,1.37-2.62,3.26-4.07,6.54-3.61a17.16,17.16,0,0,0,8-.77c.58,1.31-.07,1.7-.66,2.23-1.5,1.37-4.45,2.75-2.25,5,1.9,2,2.56-1.51,4-2,2.79-1,5.09-3.78,8.74-.19,3.29,3.24,4.09-1.93,3.81-3-.66-2.63.92-3.36,2.27-4.74,1.16-1.18,4.11-2.23,1.77-4.54-1-1-.67-3.83-2.87-3-1.87.71-4,2-3.32,4.81.4,1.62-.15,3.08-2,2.5s-5.27-.2-4.51-3.33-.12-4.86-2.68-5.45-4.56.79-5,3.7c-.15,1.09-.89,1.92-2,1.54-1.79-.59-.72-1.79-.42-2.84,1.21-4.27,1.17-4.32,5.9-6,1.41-.5,2.73-1,2.58-2.69-.31-3.54,2.25-4.66,4.83-5.82,2.39-5.14,3.34-5.54,7.47-2.56C870,893.63,871.66,894.12,873.06,895.15Z"
            fill="#4d3a2a" />
        <path
            d="M873.06,895.15c-2.3-.27-4.41.45-6.47-2.28-2.64-3.47-3.64,1.41-5.52,2.28-.72-5.72-4.27-4.94-5.94-1.43-2.7,5.63-8.37,5.24-11.22,4s-6.53-3.23-8.53-6.4c-2.84-4.51-7.74-5.37-12.65-2.85-4.38,2.26-6.63,7-11.83,8.62-1.86.59-2.18,6-3.13,9.23-.07.21.38.67.68.88,3,2.07,3.08,2.18,0,4.42-3.94,2.86-4.12,8-7.32,11.2C800,924,799.6,926.4,797.36,926c-2.44-.42-1.36-2.25-1.21-3.72a1.65,1.65,0,0,0-1.34-1.7c-7.18-2.34-11.6-12.56-8.28-19.75s6.64-14.4,11.16-21a8.58,8.58,0,0,1,1.21-10.6c2.84-2.94,6-5.79,6.83-9.93,1.43-6.81,8.22-8.3,12.31-12.46,2,.08,2.39-1.85,3.62-2.71,4.5-3.17,9.77-1.06,10.57,4.28.31,2.11,0,4.11-3.11,3.39-3.36-.76-5.65,0-6.75,3.72-.73,2.49-3.54,3.58-5.4,5.32s-5,3-2,6.46c1.32,1.54-.87,2.71-1.86,3.8-2.12,2.32-4.35,4.55-6.48,6.86-.17.19,0,.71.1,1.41,2.53,0,3.54-2.14,5-3.43,3.73-3.18,7.26-6.63,12.46-7.41.58-.09,1.14-.51,1.7-.48,2.89.15,3-5.77,5.73-3.49,2.93,2.44-2.67,3.27-2.6,5.66a5.62,5.62,0,0,0,.36,2.15c4.12.26,5.27,4.88,8.88,5.8a8.66,8.66,0,0,1,1.71.5c10.34,5.15,10.35,5.19,21,3,1.35-.29,2.62-.3,3,.93C865.81,887.67,872.05,889.59,873.06,895.15Z"
            fill="#53412e" />
        <path
            d="M798.9,869.24c-.4,3.53-.8,7.07-1.21,10.6-3.83.83-7.82,2.08-7.7-4.27a2.27,2.27,0,0,0-2.75-2.31c-4.4.54-4.28-1.38-2.1-4.16,2.31-3,3.94-6.48,7.5-8.35.88-.47,1.73-1.08,2.72-.55,1.38.73,1,1.9.6,3C794.92,866.19,794.9,868.67,798.9,869.24Z"
            fill="#674932" />
        <path
            d="M791.7,837.42c2.68-4.09,7.15-6.66,9.56-11,.52-.93,1.66-2.08,2.87-1.22s.68,2.27-.23,3c-2.5,2.15,0,6.54-3.8,8-.53-3-2.19-2.65-4-1.23C794.72,836.05,793.66,837.49,791.7,837.42Z"
            fill="#674932" />
        <path
            d="M834.88,908.24c2.16-1.81,3.68-1.28,5.92-.44C838.71,909.63,837.16,909.62,834.88,908.24Z"
            fill="#53412e" />
        <path
            d="M883.78,670.06c2.24.39,3.1-1.93,4.43-2.73,2.41,1.64.92,4.13,2.7,6.13,1.36-3.35,4.89-3.18,7.29-4.92.73-.53,2-.28,1.95.39-.45,4.68,4.61,3.85,6.4,6.35,1.64,2.31,4.84,3.86,1.64,7.23a2.2,2.2,0,0,0,.56,3.18c4.62,3.39,5.91,8.88,8.9,13.29.75,1.11,1.48,2.5,3.17,2.23,3-.48,4.77,1.41,6.68,3.11,3,2.64,6,4,10.21,2.43,4.07-1.52.93,1.36,1.1,2.24,0,4.29.36,8.58-.09,12.86-.11,2.53-.6,5.09-.27,7.59.47,3.59-1.14,5.53-4.45,6.48-4.34,1.34-6.56-.54-7.31-4.67,5.85-5,5.57-6.43-1.39-10-3-1.58-6-2.73-9.48-2.22-2.4-.49-2.82-2.45-3.4-4.36-.81-2.63-1.62-5.31-4.74-6.75,1.43,5.92-3.59,5.81-7.06,7.1a84.73,84.73,0,0,0,5.19,10.87c1.71,3.2.26,4.53-2.86,4.27-3.43-.28-6.41-2-9.16-4a2.59,2.59,0,0,1-.48-4.13c2.28-2.09,2.66-3.91-.08-5.63-3-1.91-5.71-.49-8.23,1.24-.65.45-.6,1.44-1,2.09-2.14,3.16-4.81,4-8,1.48-3.57-2.8-7.75-4.82-10.74-8.34-2.09-2.46-5-3-8-3.41-3,.07-5.12-1.72-7.45-3.76.49,1.8,2.15,2,2.85,3,1.22,1.84.42,3.4-1.47,3.32-3.8-.17-8.08.68-10.78-3.23.09-7.8-4.69-11.79-11.39-14.44a3.13,3.13,0,0,1-1.89-3.31c1.48-2.89,3.87-2.12,6.1-1.33a46.53,46.53,0,0,1,6.34,3.11c2.87,1.55,5.37,4,9.1,1.73,1.15-.68,2.56.62,3.78,1.23,2,1.19,3.59,4,6.8,2.09-1.37-3.64-4.52-.94-6.54-1.9-3.55-2.67-8-3.53-11.87-5.4-1.62-.78-3.34-1.35-4.42-2.86s-2.86-3.21-1.84-5.25c1.19-2.38,3.38-.89,5.28-.82,11.21.46,18.14,9.1,27.21,13.61,1.22.6,2.2,1.66,3.61,2.16,2-1.92-1.38-5.94,2.77-6.83,6.6-1.42,13.19-4.11,19.87-.37a2.17,2.17,0,0,1,.75,2.63c-1,3.8-7.89,6.86-11.36,5.1,5.1,4.56,4.15,3.65,9.47-1.7,4.68-4.71,1.77-8.53,1-12.47s-5.44-5.35-8.13-8.15c-.56-.58-2.13,0-3.19,0,2.93.25,4.64,1.66,4,4.59-.71,3.2-3.19,1.78-4.74,1-4.12-2.13-6.25,3-10,2.4-.86-.13.17.48.35.66,3.86,3.89-.41,4.27-2.36,4.29-3.69,0-7.72.12-10.64-2.82s-7.67-2.61-10-6.14c-1.39-2.12-4.15-4.8.89-5.7-8.87-3.08-13.83-13.72-24.81-13.52-4.63-1.42-5.89-4.91-5.81-9.21,0-.4.16-.76.19-1.13.06-.88,2.88-2-.18-2.64-.45-3.22,1.73-4.67,4.21-4.13,4.24.92,8.53,3.67,10.36,6.94,4.38,7.82,10.06,13,19.12,13.92,4.41.47,5.6,4.28,9.25,7.27-3.44-3.59-3.77-6.2.59-7.72,3.66-.35,7-.45,8.34,4.17.76,2.66,3.17,1.66,5,1C878.56,667.92,881.32,667.71,883.78,670.06Z"
            fill="#8b684a" />
        <path
            d="M937.75,721.94c-.17-4.36-2.21-8.87,1.06-13,2.12.24,4.66,1.29,3.87,3.32-1.38,3.56,1.38,3.62,3,4.15,1,.32,3.09-.06,3.53-1.53.73-2.45-1.81-2.57-3.13-3.56-1.07-.79-2.06-1.69-3.55-2.93,4.24-1.51,7-5,11.6-4.34.09,3.54-3.7,2.86-5,5.46,5.35-1.24,9.5-.53,8.87,6.82,3.3-2.32,5.09-5.44,8.71-4.64.57,2.7-2.72,2.12-2.9,3.64,4.84,3.36,11.59,1.22,17.48,6.56-5.92-.44-12.35-1.61-11.21,4.8.41,2.28.45,9.42,6.93,9.36,2.17,3.82,1,7.28-1.18,10.63-2,0-3.8-.29-4.79-2.3-3.36-1-4.06-3.68-4.53-6.68-.08,2.34.45,4.82-1.8,6.51-1.94,1.47-3.33,3.93-6.48,3-1.38-.39-2,.8-2.68,1.78l-1.19,1.18c-1.39.54-2.26-.22-3-1.19,1-9.49-6.54-15.11-10.52-22.34C939.6,725.28,938.27,723.86,937.75,721.94Z"
            fill="#b29372" />
        <path
            d="M883.78,670.06c-3.09-.37-6-.72-9.15.73-1.79.82-5.9,2.74-5.65-3,.2-4.55-4.8-1.61-6.84-3.33-3.46,1.16-5.25-1.59-7.57-3.13a3.83,3.83,0,0,1-1.11-3.14c2.5-4.76,6.78-3.71,10.25-2.21,6.5,2.8,12.68,1.61,19-.17,1.38-.39,3.28-.88,2.13-3.14l-8.14-3.73c5.75-1.95,10.74,1.68,14.22,4.33,3.09,2.36,6.55,4,9.7,6.07,1.11.75,3.74.14,2.33,2.59-1.7,3-1-1.7-2.54-.92-2.57,1.32-3.57-1.89-6.56-2.55l3.52,4.93c-.68,2.21-5.45-4.77-4,2,0,0-.94,2.09-2.66,1.06C886.42,663.82,885.43,667.62,883.78,670.06Z"
            fill="#c2a07f" />
        <path
            d="M975.87,746.73c.39-3.55.79-7.09,1.18-10.63.36-2.41.29-4.94,2.28-7.64.15,3.37.28,6.13.4,8.89-.54,4.74.63,9.61-1.13,14.86C976.47,750.72,976.65,748.45,975.87,746.73Z"
            fill="#9b8066" />
        <path
            d="M941.85,704.79c3.68-2.15,3.26-6.5,7.44-6.23C946.94,703.23,946.94,703.23,941.85,704.79Z"
            fill="#b29372" />
        <path
            d="M891,932.86c-3.58-3.08-4.9-7.3-5.91-11.63-.25-1.07-.29-2.5.94-3.15s2.17.16,2.66,1.39c.65,1.65,2.83,2.12,3.32,1.29,3.66-6.15,6.7-1.48,9.92.31,2.8,2.72,2.55,6.25,2.68,9.69.14,3.63-.39,7.29.57,10.88a11.6,11.6,0,0,1,.14,4.73c-1.8,3.67,1,9.16-4.57,11.35-.05,10.58-.08,21.17-.21,31.76,0,1.32,1,3.19-1.24,3.83-2.57.76-2.95-1.41-3.45-2.92-1.06-3.2-2.22-6.95-.78-9.81,3.86-7.67,2.53-15.73,2.74-23.64.29-10.86,2.65-21.67,1.14-33.78-1.56,2.86-3.32,4.72-3.51,6.73C895.11,933.19,893.13,932.87,891,932.86Z"
            fill="#4d3a2a" />
        <path
            d="M858.67,955.26c4.1-3.06,5.87-8.46,10.91-10.58.57,7.2,1.16,14.39,3.4,21.34.33.18.46.39.4.63s-.15.38-.25.38c.41,4.25.74,8.51,1.24,12.75a12.38,12.38,0,0,1-1.59,8.4c-1.88,1.53-3.43.88-4.85-.69-1.11-1.46.79-3.55-1-4.86-1.71-5.23-.9-11.14-4.47-15.86-3.34-1-3.48-3.78-3.76-6.48C858.47,958.61,857.12,956.93,858.67,955.26Z"
            fill="#30281d" />
        <path
            d="M870.45,945c.35-8.2,5.43-2.27,8.37-2.72,2.28,1.77,2.63,4.45,2.72,6.9.3,7.82,2,15.54,1.64,23.4-.54,1.92.31,4.64-2.94,5C879.06,966.16,875,955.51,870.45,945Z"
            fill="#30281d" />
        <path
            d="M920.3,965.4c1.82,5.59,4.3,9.92,1.58,15.09C918.13,974.72,917.85,972.51,920.3,965.4Z"
            fill="#4d3a2a" />
        <path
            d="M859.75,960c.18,2.53,1.59,4.59,2.67,6.78-.75,1.47-2.13,1.45-3.51,1.43l-1.52-8.09c-.25-.52-.37-1.13.26-1.35C858.74,958.38,859.32,959.12,859.75,960Z"
            fill="#30281d" />
        <path
            d="M954.22,892.73c-.73,1.22-1.46,2.44-2.18,3.66-1.87-1.65-2.09-4.18-3.36-6.15-.63-1.85-.21-3.69,0-5.27-1.72,4.16.36,10-5.07,13.1a2.23,2.23,0,0,1-1.67-.78c-1.4-6.68,2.93-12.46,3.06-18.9a23.37,23.37,0,0,0,2.17-15.94c-1.48-7.63.94-15.17,1.43-22.76.25-3.89,1.1-7.73-.15-11.57-1.44-2.31-4.25-2.85-6.13-4.59-.52-1.26.1-2.17,1-3,1.17-1.08,3.62-.26,4-1.9s-2-1.43-2.87-2.46c-2.23-3.54,3.21-6.61.63-10.23-.13,6.7-1.14,7.2-7.36,3.73a6.43,6.43,0,0,1-1.55-4.13c-.28-2.77,1-5.34,1-8.07s.13-5.7-1.16-8.36c-.76-1.9-3-4.18-.67-5.75,3.1-2,4.63,1.33,6.63,3.14.34-3.18,0-6.28.45-9.34.63-4.27,0-8.13-3.73-11.07-1.85-1.47-2.82-3.48-1-5.6s3.11.74,4.44.69c6.84-.25,6.73,5,8,9.19,0,3.15-1.71,6-1.66,9.47,1.39-.7,3.23-1.32,4,.61a6.15,6.15,0,0,1-2.15,7.75c-5.13-.19-2.63,5.53-5,6.18.85-3.43,5.94,2.74,7.28-1.85a6.57,6.57,0,0,0,1.32-3.69c.57-6.3,1.84-6.93,7.87-4,2.43,3.45,2.76,7.72,4.58,11.41-.82,2,.8,7.34-4.51,3.2-1.37,5.22,2.92,9.32,3,14.27-7.14,15.83-9.08,32.54-8.9,49.66,0,4.28-1.2,8.49-1.19,12.82,0,3.52-.36,7,1.21,10.36A4.5,4.5,0,0,1,954.22,892.73Z"
            fill="#896a4f" />
        <path
            d="M961.34,880.6c-.92,1-.83,2.68-2.72,3.34a6.34,6.34,0,0,1-1-5.79c2.78-11.1.27-22.54,2.43-33.69,1.55-8,2.57-16.12,3.79-24.19.23-1.52,1.11-1.9,2.47-1.73a34.89,34.89,0,0,1,.2,18.75C962.78,851.43,963.78,866.23,961.34,880.6Z"
            fill="#896a4f" />
        <path
            d="M951.84,908.54c.59-2.4,1.17-4.79,1.66-6.76,9,20,3.42,40.5,1.55,62.14-4.84-9.48-.93-18.36-1.7-26.93,1-8,.07-15.93.52-23.89C954,911,951.56,910.45,951.84,908.54Z"
            fill="#624735" />
        <path
            d="M942.69,897.55a2.06,2.06,0,0,0,.89,0c.41.42,1,.89,1,1.42a55.13,55.13,0,0,0,1.5,15.09q-1.26,6.43-2.5,12.86c-1.41,1.76.44,4.3-1.42,6-2.13-.41-2-2.12-2.25-3.59,0-.19.06-.51,0-.56-.36-.21-.65,0-.84.51-1.38,1.54-2.65,1.81-3.54-.33a8.72,8.72,0,0,1-.05-6.3,94.24,94.24,0,0,0,4.28-20.52C939.92,900.12,940.27,898.13,942.69,897.55Z"
            fill="#624735" />
        <path
            d="M936.34,954.48l-.09-14.13a1.26,1.26,0,0,1,.46-1.57c4.5,0,4.21,3.39,4.62,6.29q0,.57-.06,1.14c-.35,3.52.09,7.11-1.11,10.54-.42,6.87-.42,13.81-1.44,20.6-.47,3.11-1.23-.86-2.13-.54,1.1-6.78,1.6-13.57.07-20.37C935.68,955.92,935.89,955.22,936.34,954.48Z"
            fill="#624735" />
        <path
            d="M966.44,796.28c-4.9-2.1-2.78-7.3-4.85-10.65a1.83,1.83,0,0,1,0-2.65c2.3-.86,2.79.75,3.19,2.4-1.3-5-1.7-10,.28-15l1.29-.12c0,1.19.05,2.39.07,3.58,2.65,4.56,2.09,9.52,1.28,14.28a24,24,0,0,0-.06,6.82l-.27,1.44A4.43,4.43,0,0,0,966.44,796.28Z"
            fill="#896a4f" />
        <path
            d="M947.38,925.92l1.21-.12c0,5.11.47,10.27-1.58,15.18l-.38-.05-.35.14c-.09-1.56-.18-3.11-.28-4.67C947.36,933,946.92,929.42,947.38,925.92Z"
            fill="#624735" />
        <path
            d="M685.28,776.16c-.3,1.42.83,3.43-1.16,4.11-1.53.53-2.2-1.35-3.33-2-3.64-2.18-6.22-5.44-8.87-9.19-1.25,3.16,2.09,4.8,1,7.3-1.45,1.3-1.87-.65-2.81-1s-1.76-.41-2.06.41a2.1,2.1,0,0,0,.66,1.94c2.74,1.22,3.7,4,5.62,5.92,1,1,2.1,2.3.73,3.51s-2.63-.23-3.69-.91c-3.28-2.12-3.44-6.49-6.37-8.91,2.9-2.6-.65-4-1.18-5.9.8-1.34,2.05-3,.49-4.17-1.92-1.52-1.79,1.37-2.9,1.81-3.73-2.34-5.57-4.69,0-7.05,1.26,1.38,3.19,1.86,4.09.38,2.13-3.51-2.85-3.92-3.43-6.3,5-2.57,8.13-8.89,15.47-6.61A21.83,21.83,0,0,1,691,760.43c5-5.39,1.52-10.76.6-15.49-.83-4.31-7-3.44-9.15-2.3-7,3.61-10.55-2.74-15.69-4.14-4.49-1.22-8.59-3.79-13.43-3.85-2.28,0-4.92-.31-4.76-3,.16-2.9,2.84-2.88,5.08-2.18s3.94.29,3.81-2c-.16-2.91-2.34-.93-3.61-.82a11.54,11.54,0,0,1-8.43-2.13c-2.77-2.09-5.67-4-8.72-6.17,3.89-3.92,6.94-8.89,13.61-8.59,1.27,0,1.33-1.17,1.48-2.15.48-3.27,2.52-5.84,4.63-8.05,1.81-1.9,2.93-3.24,2-6-1-3.1,2.45-4.07,3.87-6,.88-1.21,1.77-2.36.28-3.52s-2.9-1.48-2.83,1.31c0,1.11-1,1.08-1.74.62-1.58-1-1.07-2.25-.51-3.6s1-3.37,2.58-2.3c4.58,3.15,4.14-.65,4.88-3,.22-.73.69-2.06.86-2,7.92,1.32,5.69-6.2,8.19-9.42,3.75-4.82,6.38-5.44,10.11-.62,2.62,3.38,3.84-1.65,6-.76a3.86,3.86,0,0,1,1.53-1c.93-.32,1.94-.27,2.87-.52,7.37-2,14.14-2.08,18.66,5.42a3.56,3.56,0,0,1,1.71,3.19c-1.09,2.65.9,6.73-3.71,7.74-1.68-.39-2.1-1.92-2.92-3.1-2.29-3.78-6-4.88-10.13-5.18-1.87.55-1.62,2.53-2.56,3.69-1.19,2.55.46,2.36,2.15,2.12,4.75-1.08,9,.23,13.06,2.56,2.8,1.75,2.19,3.79.55,5.93-3.16,1.95,1.79,3.76.12,5.68-7.42,3.34-14.28,8.34-23.33,7.2,3.87,5.09,9.62,1,13.72,3.66,1.06,3.19-2,2.61-3.38,3.41-2.19,1.25-3.08,2.45-.63,4.28,1.42,1.06,3.2,2.27,2,4.22-1.37,2.21-3.67,2.29-7.24.43,4.16,3,9.33,2.88,9,8.3-2.79,3.74-5.3,2.07-7.86-.33-3.88-3.65-7.13-8.27-14.57-8.48,6.64.74,10.34,4.14,13.84,7.75,1.4,1.44,2.46,3.53.71,5.25-1.48,1.45-3-.19-4.16-1.07-2.31-1.71-5.26-1.8-8-3.41,1.34,7.73,7.39,11.4,12.22,16-.63-1.71-2.44-2.45-3.07-4.19-1.07-2.92,2.08-7.54,4.08-6.1,4.21,3,9.43,2.12,13.7,5,8,5.31,7.19,14.37,10.68,21.55.72,1.49-.45,2.58-2.39,1.94-1.29-.43-2.13-1.73-4.18-1.82a14.24,14.24,0,0,1,2.38,9c-.24,2.56,1.43,3.86,3.9,4.38s6.09.2,5.17,4c-.83,3.42-4.28,1.79-6.69,1.9a3,3,0,0,1-2.18-.81,2.51,2.51,0,0,0-2.4-1.17c-2.67-3.08-6.74-4.74-8.82-8.44-.38-.68-1-1.34-1.85-1.11-1.07.29-1.42,1.25-1.58,2.24a5.63,5.63,0,0,0,.18,1.72c1,6.86,1,6.86-5.87,5.61-2.33-.07-2.72-2-3.59-3.54-1.65-1.22-2.7-1.08-3,1.17-.15,1,.61,2.87-1.76,2.35h-1.19c-2.65-.34-2.65-.34-5.25.75.62,2,3.13,1.3,4.05,2.79Z"
            fill="#463425" />
        <path
            d="M691.25,664.08a6.44,6.44,0,0,1-1.16,0c-.83-1.11-2.6-1.55-2.42-3.36l1.2-2.43c6.36-1.22,12.72-.49,19.08-.1,3.71.09,7.41.15,8.42-4.57a1.56,1.56,0,0,1,2-1.92c3.38,1,7.33,1.28,9.06,5.18a3.77,3.77,0,0,1-2.79,2.46C713.5,660.69,702.35,662.21,691.25,664.08Z"
            fill="#8c694c" />
        <path
            d="M661.37,769.08c.14-1.53-1.74-3.59,1-4.44,1.84-.56,3,.54,3.73,2.1,1.16,2.49.55,4.15-2.33,4.7Z"
            fill="#3e3023" />
        <path
            d="M653.34,782.5c.08-1.2.46-2.12,1.29-2,1.93.23,3,1.79,3.79,3.3.41.74,0,1.68-1.08,1.38C655.65,784.69,654,784,653.34,782.5Z"
            fill="#3e3023" />
        <path
            d="M808.43,529.87c2.62,3.52,1.33,8.2,3.62,11.82-4.33,4.49-7.34,10.36-12.74,13.62-4.28,2.59-5.6,6.89-8.33,10.35a2,2,0,0,0-.25,2.22c5.47,7.94,2.09,17,3.42,25.48.14.94-.12,2,.8,2.65,4.74-.2,3.63-6.15,7.4-7.3.31,3.47-.86,6.89,5.61,6.94,3.77,0,8.14,2.91,13.18,2.85-2.3,3.45-5.56,1.19-7.85,2.52.12,1.27,1.7.39,2.56,1.74l-6.4.33c1.71,2.32,5.7-.54,6.12,3.28-3.46,2.07-7.11,1.69-10.73.6-1.51-.46-2.9-1.24-4.54-.77a6.38,6.38,0,0,1-2.5-.16,59.5,59.5,0,0,1-9.93-5.69c-3.35-1.53-6.28-4.52-10.53-2.85-2.22.78-4.44,1.32-6.72.22-2.16-2.77-1.19-5.2.83-7.53,3.72-5.11,9-2,14-2.48.36-4.1-1-6.94-5.41-8.11-2-.53-4.47-.87-3.92-4,1.07-1,2.47-1.09,3.78-1.45,1.85-.83,3.63-2,3.07-4.21-.82-3.26.63-5.91,1.74-8.71a6.69,6.69,0,0,1,.87-1.36c1.69-2,4-3.52,5.11-6,.42-.88.73-2,1.53-2.44,6.89-3.63,8-11.33,12.27-16.83.21-.27-2-.26-2.25-1.52C803.57,530.67,805.2,528.76,808.43,529.87Z"
            fill="#6a5c4a" />
        <path
            d="M802.35,588.71c-.84,3.4-2.2,6.46-5.24,8.61-.88.62-1.24,2.26-2.74,1.42s-2.58-1.83-2.16-3.76c1.52-7-1.21-14.09.3-21.1a1.66,1.66,0,0,0-.18-1.12c-2-3.15-6.94-5-1.15-10.25,2.66-2.41,4.37-6.65,8.17-8.73,1-.55,2.3-1.19,2.72-2.12a19,19,0,0,1,10-10c1.62-1.11,1.16-2.74,1.09-4.27s-1.85-3.2.17-4.14a4.12,4.12,0,0,1,4.75,1.32,18.6,18.6,0,0,1-5.18,12.1c-5,5.51-6.94,13.14-12.69,18.28-1.86,1.66-.39,3.22,1.61,3.87,2.68.87,5.34,1.7,6.55,4.58-1.54,4.14-6.41,6.75-5.67,11.94Z"
            fill="#41382c" />
        <path
            d="M797.7,605.3l2.35,0c6.61,5.66,14.12,10.39,19.17,17.7,1.6,4.78-.07,11.37,9.21,12.56l-8.09,3.23c8.17,5.08,14.87,12.26,23.92,16,.31,3.19,2.12,4.83,5.34,5,1.89.1,3.87-.46,5.6.77l6.94,3.8c.34,1.49-5.06,2.1-.57,4.37,1.56.79.44,3,.76,4.57-2,.36-2.26-.83-3.2-2.32-2.09-3.34-4.56-7-9.8-5.16-3.51,1.27-4-2.46-6-3.68-3.3-2-7.82-2.37-8.55-7.57-.25-1.82-3.89-.23-5-2.32.2-1.86,2.67-.27,3.06-2.3-2.44-1.53-5.37-2.46-7.69-4.74s-5.18-1.42-5.85,2.45c-3,.21-3.71-2.81-5.74-4a2.84,2.84,0,0,1-.78-2.27c3.66-3.82,2.44-8.76,1.93-12.88-.46-3.65-4.36-5.64-8.59-6A35.54,35.54,0,0,1,793,618.9a3.85,3.85,0,0,1-2.47-3.11c-.09-1.9,1.6-2,2.94-2.15C799.22,613,796.16,608,797.7,605.3Z"
            fill="#6e4a34" />
        <path
            d="M819.22,623c-6.73-5.55-14.31-10.19-19.17-17.7.76-1.1,2.31-1.63,3-1,3.77,3.57,8.38,1.2,12.51,2,3.19,4.84,8.93,4.19,13.52,5.91,3.4,1.27,3.3.78,2.73,4.42-.52,3.26,3.25,4.36,4.74,6.65,1.12,1.7,2.41,2.22,2.7,5.07.41,4.16,4.48,7.38,8.31,10.46-10.59-1.6-15.93-6.94-16.57-16-.09-1.38.29-3.39-2.55-1.92-1.74.89-3.78,1.23-2.8-2.43.46-1.72-1.83-.81-2.15.05A6.64,6.64,0,0,1,819.22,623Z"
            fill="#a27d5e" />
        <path
            d="M884.8,652.63c4.12.83,2.27,2.42.21,3.26-6.81,2.75-13.61,5.67-21,1.27-3.41-2-7.06-2.15-10,1.19-3.58-1.35-6.32-4-9.49-6a11.21,11.21,0,0,0-9-6.09c-3.45-.46-5.08-4.35-8-7.91,5.12,1,9.29,1,12.3,4.67,1.84,2.26,4,4.12,7.52,3.79,1.52-.14,4.07.21,4.54,1.94.69,2.53,2.19,5,4.19,5.28,4.59.76,9.6,1.42,14,.32,3.93-1,7.25-1.55,11,0C882.66,655.09,884.07,654.38,884.8,652.63Z"
            fill="#ad8765" />
        <path
            d="M844.45,652.36c3.83,1,7.86,1.63,9.49,6l1.26,2.28c-3,0-5.7,1.64-9,0s-3.47-3.14-1.91-5.77C845.94,654.15,842.73,653.08,844.45,652.36Z"
            fill="#8b684a" />
        <path
            d="M715.19,772.62c.2,0,.47,0,.58-.07,2.2-2.08,6.9,1.67,7.12-1.39.26-3.73-4.41-1.21-6.66-2.3a4.11,4.11,0,0,1-2.59-3c-.35-4.53.05-9-3.72-12.81-1.16-1.17,1.73-1.84,2.75-1.34a40.55,40.55,0,0,1,5.35,3.75c-.3-5.82-5.25-10.17-4.61-16.29.24-2.36-9.53-8.08-12.35-7.55-1.87.35-3.41,1-4.4-1.3-.66-1.53-1.59-2.94-3.52-1.25-1.67,1.47-2.52,3.08-.8,5.06.38.45.9.78,1.28,1.23,1.18,1.38,5.76.66,3.63,3.59-1.44,2-5.82,1.39-7.24-1.32-2.86-5.49-10.37-8.12-9.83-15.64.07-1-2.17-1.39-.83-3.33,3.62,4.11,10.2,2.44,13.57,8-.18-5-4.23-9.57-9.66-11.49-1.45-.52-3.18-.28-4.23-1.81-.72-1-2.65-1.84-1-3.32,1.92-1.69,2.14.25,2.67,1.47.23.51.86,1.34,1.06,1.28,7.16-2.27,7.79,5.46,12,7.7,2.37,1.26,4,4.1,7.05,1.42,1.24-.7,4.61,0,1.74-3.21-2.08-2.33-1.48-4.41,2.11-4.74.79-.07,2,.24,2.29-.31,3.13-6.68,6.86-2.26,10.35-.56a12.23,12.23,0,0,0,11,.3c4.3-2.06,7.64-.8,10.89,2,2.25,1.94,4.41,4,6.81,5.75,1.92,1.41,3.87,3.76,6.55.68a2.35,2.35,0,0,1,3.68.45c2.16,3,5.73,4.17,8.72,6.82-.16-3,.48-5.23,3.75-3.65,3.09,1.48,6.47,2,9.57,3.29,3.27,1.4,6.29,2.18,9.37-.68,2.23-2.07,4.39-.94,6.08,1a4.24,4.24,0,0,0-5.54-2.28c-3.94,1.28-7.12-.11-10.1-2.11-3.44-2.31-7.42-2.72-11.22-3.84-1.85-.55-4.54-.68-4.8-2.82-.29-2.36,2.82-2.21,4.25-3.42-.72-.89-1.86-.79-2.68-1.33-1-.66-2.13-1.37-1.69-2.74s1.79-1.33,3-1.54c2.87-.53,5.71,2,8.58,0a2.56,2.56,0,0,1,1.37-.71c4.93,4.38,11.89,5.46,16.58,9.66-.76-1.9-6.39-2.37-2.35-6.49.7-.72-.67-1.25-1.28-1.49-3.95-1.56-4-3.61-.15-6a25.59,25.59,0,0,0-11-2.56c-2.17-.08-4.7.63-5.57-2-.94-2.88,2.38-3.1,3.63-4.63a2.45,2.45,0,0,1,1-.56,6.45,6.45,0,0,1,1.69-.19c4.72-.29,9.42-.53,14.07.81,3.73,1.07,7.5,1.89,6.66,7.12-.18,1.11.9,1.61,1.83,2,8.25,3.88,15.54,9.44,23.94,13.07,4,1.74,7.9,3.76,12.45,3.47,3.85-.25,6.63,2.41,10,3.42a3.67,3.67,0,0,0,2.33-.22c6.39-3.95,9.81.75,13.49,4.51,3.32,3.42,2.38,7.11.38,10.75a7.59,7.59,0,0,0-.81,2.75c-.69,5.24-1.11,5.45-6.18,3.44-1.27-.5-2.75-2.38-3.58.54a3.15,3.15,0,0,1-4.14,2.33c-2.25-.58-4.34-2.28-4.12-4.47.6-6.07-3.56-6-7.72-7.85-7.08-3.14-14.43-3.34-21.71-4.57-3.28.27-5.28-2.43-8-3.33a29.07,29.07,0,0,1,5.38,3.39c4.36,3.77,8.89,7.14,15,7.61a4.83,4.83,0,0,1,2.93,1.89,11.38,11.38,0,0,0,3.83,3.67c4.2,2.18,7.43,4.68,5.1,10.08a2.84,2.84,0,0,0,.66,2.79c4.22,4.55,4.87,11.85,12.45,14,4.21,1.2,5.65,5.26,3.3,9.64C849,782,844.37,779.7,840.76,775c-4.31,1.38-5.19-2-5.78-4.63-1-4.44-3-7.29-7.67-8.67-4.3-1.27-6.47-4.87-7.61-9.1-.66-2.45-1.53-4.36-5-2.62-3.84,1.94-6.59-1.45-9.92-2.9,1.44,1.56,2.77,3.14,1,5.09-1.53,1.72-3.52,1.55-5.51,1-4.06-1.2-7.27-4-11-5.81-7.19-10.3-16.88-13-28.43-8.86a6.86,6.86,0,0,1,3.63,1.43c2.93,2.75,5.74,5.66,9.57,7.27,1.34,1,2.87,1.72,3.62,3.32-.29,2.92-2.85,2.75-4.8,3.51-3.61,1.41-8-.14-11.18,3.16-.87.89-2.38,0-3.16-.84-3.36-3.69-8.05-5.61-10.77-7.78,7.24,2.66,10.92,11.65,18.91,15.63-5,4.42-6.13,4.31-14.46-1.58-1.44,2.75-1.67,5.84-3,8.91,3.31-2.06,6.29-2.78,9.52-.15,2.05,1.67,3.69.3,4.61-1.77.8-1.78,1.43-3.64,3-5,1-.94.11-1.76-.18-2.63-.43-1.31-.11-2.38,1.32-2.73a2.37,2.37,0,0,1,2.49,1.23c1.83,2.55,1.44,5.1.15,7.75s.32,4.52,2.51,3.29c7.71-4.33,12.56,1.55,18.65,4-4.57-3.93-5.07-10.4-9.87-14.37-3.24-2.68-.21-6.77-1.2-10.11a5.37,5.37,0,0,1,0-2.49,2,2,0,0,1,1.2-1.11,3.93,3.93,0,0,1,1.67.26c5.74,3,8,9.13,12.43,13.25,2.25,2.07,4.31,4.12,7.77,3.09a7.27,7.27,0,0,1,2.37,0c3.72.18,4.3,6,6.08,5.36,3.57-1.24,5.65-.11,8.05,1.69.79.59,1.79,1.35,1.79,2.26,0,4.73,3.45,8.06,4.79,12.22,2.23,8.68,2.23,8.68-6,11.77-1.59,1.45-1.26,5.74-5.7,2.86-2.35-1.54-4.44,1.76-6.53,3a1.81,1.81,0,0,0-.43,2.63c1.52,1.84,3.45,2.17,5.88,1.61,1.23-.28,3.56-1,4,1.3s-1.92,3-3.47,3.33c-8,1.55-13.79,7.35-21.17,10,0-3.1,2.78-4.72,4.72-5.53,5.49-2.29,7-6.57,7-11.57,0-3.65,1.34-6.16,4.61-7.26s3.24-3.4,2.52-5.59c-1.05-3.22-3.64-.86-4.87-.31-6.07,2.75-9.62-1.73-13.45-4.49-3.66-2.64-8.78-3.69-10.35-9-.91-3.09-3.82-1-5.71-.91-3.25.1-1.07,2.15-.74,3.29.8,2.71-1.17,2.24-2.66,2.51-3.65.66-7.48-.45-11,1.16a2.57,2.57,0,0,1-2.36.7,7.51,7.51,0,0,1-2.72-1c-3.51-2.41-6.68-2.44-9.48,1.08-1.23-.09-2.41-.24-2.21-1.92-3.9-2.75-8.27-4.23-7.91-11.07.26-4.84-5.4-3-9.05-2.37.13,2.38,2.41,2.65,3.19,4.16,2,3.9.4,6.78-4,6.89C718.6,781.11,718.6,781.11,715.19,772.62Z"
            fill="#3e3023" />
        <path
            d="M760.64,784.4l2.38,0c6.78,3.31,14.18.7,21.25,2.16,6.74,1.4,9.42,4.53,6.94,10.82a4.3,4.3,0,0,0-.09,3.32c2,5.49.31,8.12-5.72,8.36-3.44.13-5.94.68-5.63,4.79-3.35-.11-3.92-2.94-4.94-5.14-3.51-7.59-8.69-12.39-17.81-12.74a14.08,14.08,0,0,1-12.06-7.3c-1.07-1.94-2.63-4.44,1.29-5.43a2.57,2.57,0,0,0,2.42,1.16C752.66,785.62,756.65,782.36,760.64,784.4Z"
            fill="#221912" />
        <path
            d="M694.85,771.47c.65-.36,1.43-1.15,1.95-1,3.75,1,5.32.47,2.66-3.36a4.19,4.19,0,0,1,.4-5.83c1.87-2,3.82-4.24,5,.47,1.16,4.4,7.51,4.69,7.88,9.71-1.83.34-4.14-2.53-5.28-.18s2.89,1.86,3.33,4.43C706.21,771.09,699,778.19,694.85,771.47Z"
            fill="#3e3023" />
        <path
            d="M684.09,775h-2.36c-2,0-4.37-.05-4.5-2.6-.17-3.25,3.33-1.75,4.91-3,2.45-2,2.81.31,3.15,2.09C683.89,772.29,684.13,773.68,684.09,775Z"
            fill="#3e3023" />
        <path
            d="M686.48,771.45a2.1,2.1,0,0,0,1-2.45c-.28-1.13-.83-2.35.7-2.94,1.72-.66,2.4.66,3.06,1.87-2,0-2.22,1.46-2.51,3S687.56,772.59,686.48,771.45Z"
            fill="#3e3023" />
        <path
            d="M901.86,910.65c-1.07-1.74,2.26-8.73-4.6-3.61-2,1.5-2.81-1.52-4.36-2.08-1.06-.38-2.11-1.45-3.25-.45-1.34,1.16-.17,1.94.57,2.88a2.29,2.29,0,0,1,.3,2.09c-.75,1.11-1.62.16-2.53-.14-5.32-1.77-8.24-4.67-5.61-10.54a2.86,2.86,0,0,0,.19-1.73c-1.72-7.63,4.24-4.91,6.23-3.54,3.19,2.21,5.16.8,7.49-.48,3.57-2-1.09-3.73-.32-5.29,3-6.22-2.12-12.71.9-18.88,1.3-2.65.34-4.67-2.53-5.39-3.68-.92-4.8-3.27-3.91-6.55,1.07-3.93-1.41-6.16-4.24-7.1-1.76-.58-5.23.17-5.65,3-.47,3.15.19,6.46,3.86,7.7,3,1,5.43,2.27,5.68,5.77-5,2.4-7.8-3.54-12.24-3-7.05-7.26-3.05-13.14,2.41-18.84.8.25,1.51.83,2.43.71a6.24,6.24,0,0,0-1.25-1.88c.27-.72.51-1.45.81-2.16.71-1.67-4.87-2-1-4.06,2.5-1.33,4.92-.08,6.52,2.23,1,1.41,1.38,3.26,3.25,4,5.53.68,10.37,5.22,16.6,2.46,2.3-1,4.56,2.25,3.74,3.09-3.75,3.82,1.63,6.31.88,9.63-.55,2.43,2,3,3.8,3.82,7.08,3.33,8.52,5.77,7.9,13.39-.15,1.8,0,3.33,2.48,2.66,1.94-.53,3.53-.28,4.75,1.4,2.1,4,7.54,6.61,5.32,12.41-1.22,4.8-.25,10-3.05,14.52-2.08,1.53-3.67.3-5.25-.92V888.33l-.68-.11-4.17,15.19c-2.46-2-3.83-4.87-5.63-7.39-1.14-2.81-.6-5.68-.38-7.55-3.09,4.78-1.68,11.88-5.54,17.45-3.21.59-5.09-1.38-6.92-3.47a5.71,5.71,0,0,1-.37-2.7C903.21,903.28,906.72,907.92,901.86,910.65Z"
            fill="#624735" />
        <path
            d="M905.68,902.31l5.67,3.45c1.9,1.85,2,4.33,1.67,6.56-1.4,9.12.36,18.2.06,27.29-.88,4.13,1.25,7.5,2.94,11-1,10.92-2,21.85-3.11,32.76-.15,1.38-1.34,2.66-2.1,4.07-2-1.82-1.95-4-1.84-6.15,2.15-4.87,1.25-10.06.89-15-.81-10.94-1-21.88-1-32.9-1.88-.21-1.3,2.42-3.2,2.16l-.53-3.79C902.21,921.9,902.91,912.09,905.68,902.31Z"
            fill="#4d3a2a" />
        <path
            d="M932.91,906.94q-.69,18.12-1.39,36.24a33.93,33.93,0,0,1-1.52,4.39c-.65,1.29.51,3.4-1.8,3.91-.26-2.05-3.54-.09-3.75-3.89-.61-11.2,3.85-21.49,4.58-33l-3.14,4.1c.77-4.43,1.51-8.66,2.25-12.9A8.56,8.56,0,0,1,932.91,906.94Z"
            fill="#624735" />
        <path
            d="M918.35,896.33c3.31,1.23,4.44,3.94,4.94,7.08-2.64,9.73-1.2,19.91-3.36,29.69-1,4.56-1.93,9.13-2.89,13.69-1.46.09-1.82-1-2.24-2-1.57-14.47,0-28.87,1.06-43.28A6.91,6.91,0,0,1,918.35,896.33Z"
            fill="#624735" />
        <path
            d="M932.75,973.2c-5.3-2.7-1.86,3.14-4.36,4-.51-6.92-1-13.66-1.49-20.39a.76.76,0,0,1,1.23.1C929.13,962.48,933.84,967,932.75,973.2Z"
            fill="#624735" />
        <path
            d="M727.06,657c-3.34-1.8-6.35-4.64-10.69-3.36a2.19,2.19,0,0,1-2.23-2.76c.14-1.09.69-1.75,2-1.46,2,.47,4.74.34,4.27-2-.36-1.79-3.38-1.58-5.76-.55,3-2.86.87-7.36,4.15-9.75,2.27-1.56,4.25-1.28,5.92.93-1.82-8-1.13-9.69,4.12-10.21,5.16,7,9.41,14.17,5.7,23.31C733.13,654.59,731.44,657.39,727.06,657Z"
            fill="#72543d" />
        <path
            d="M708,658.24c-6.34,2.42-12.71,1.17-19.08.1-3-5.55,3.73-5.68,4.84-9-.67-.23-2.33-.54-2.33-.83,0-1.5,2.06-.15,2.54-1.63l-5.11-3.18c3.61-.64,3.72-4.58,6.91-4.58,1.72,0,5.56-3.93,4.68,2.25-.12.88,2.53,4.13,5.1,2.17,1-.78,1.46-1.77,2.67-.71a2.46,2.46,0,0,1,.61,3.2c-.78,1.32-2,2.41-2.72,3.76-1.45,2.67-2.07,5.18,2.11,6.1.74.17,2.27-.65,2.12.88C710.23,657.33,708.77,657.75,708,658.24Z"
            fill="#b89473" />
        <path
            d="M728.42,627.78c-7,3.51-.86,8.76-1.6,13.48-3-1.27-4.17-5.44-8-4.13.46-3.1,1.36-6.21,1.26-9.29-.11-3.59,1.28-5,4.7-4.86l.09.08c1.17,1.51,4.44,1,4,4.07Z"
            fill="#86684c" />
        <path
            d="M777.37,694.88l-1.17-.08c-6.87-2.33-14.25-1.75-20.15-3.06,2,1.37,5.34,1.46,8.89.91,2.1-.33,4.57-.33,4.49,3s-1.59,4.75-4.86,4.17c-2-.35-4-.26-6.19-.72,1.44,1.6,3.91,2.89,2.2,5.2a4.52,4.52,0,0,1-5.43,1.25c-2.52-1-5.47-1.37-6.82-4.2.19-4.3-2.13-3.74-4.85-2.42-5.62-1.6-10.68.71-16.14,1.91,4.32,3.56,4.32,3.56.74,5.29-5.12-3.31-11.91-2.7-16.69-6.82a1.46,1.46,0,0,1,.55-1.48c.18-.08.48-.13.52-.25.39-1.15,3.56,1.79,2.7-2.2-.46-2.15,3.76-2.6,5.8-2.88-2.71-2.56-5.86-5.06-10.13-5.66a1.84,1.84,0,0,1-1.59-2.59c3.43-.91,2.71-2.75,1.12-4.8a.69.69,0,0,1-.21-.8q.18-.36.33-.36c4.45-.76.65-5.45,3.42-7,2,4.91,6.44,5.39,11.69,6-2.94-5-.36-6.19,3.87-6.7,3.54-.43,7.62.3,10-3.59a3.87,3.87,0,0,0,.63-3.24c5.5-2.47,9.81-6.92,17.49-3.62a106.74,106.74,0,0,1,16.53,8.66c3.41,2.24,6.77,2.5,10.68,2.24-.85-2.77-3.11-2.61-4.9-3-6.61-1.5-12.23-5.58-18.89-6.92a2.58,2.58,0,0,1-2.11-2.54,2.22,2.22,0,0,1,2.22-2.31c5.33-.65,7.37-4.15,6.48-8.7s-1.21-9.51-7.49-11.19-9-10.41-5.47-15.74c-.68-3.57,1.82-3.44,5-2.69-2.84-2.85-6.21-2.87-8.19-5.57,1.45-1.86,5-.65,5.63-3.5,2.06.44,3.7,2.73,6.31.88,1-.68,2.6.27,3.62,1.29a4.83,4.83,0,0,1,.72,3.34c-.88,7.73,1.33,14.21,7.88,18.93,1.5,4.66,7.66,7,6.71,12.86,1,3.44,3.77,5.41,6.44,7.45,5.45,5.86,14.51,7.68,19,3.81,2.14-1.41,4,.58,6.05.47,3.34.69,4.95,3.89,7.79,5.24,2.61,1.24,5.37,2.25,8.6,1.62-1.27-3.18-5.05-2-6.35-4.41,0-.27.1-.54.16-.81,10.05-1.9,15,6.48,21.83,10.88,2.33,1.51,5.49,2.31,7,5.12-1.62,1.35-3.18-1.38-4.88-.31,3.3,7.86,17.23,14.12,24.26,10.75-2-.91-4.54-.49-6.37-4.05,6.93,2.42,11.78-6.83,18.65-.47,1.62-5.77-3.61-4.08-6-6.1a30.4,30.4,0,0,0,5.17-1.11c2-.83,2.5.14,4.19,1.27,6,4,7.77,9.42,8.72,15.74.14,1,1.33,1.83,2.4,3.19-3.55.52-7,.28-6.57,5.37.3,3.88-3.07,3.73-6,2.79-4-1.25-6.24-3.62-5.87-8.14,2.84.6,3.64,3.36,6.45,4.47.1-4,4.54-4,6.41-6.59-3.66-4.21-8.81-.89-12.87-2.83-1-.47-1.3,1.09-1.48,2.06-.14.75-.26,1.49-1.32,1.67-4.53.76-4.53.79-5.06,6.76-12.76-5.2-22-17.68-37.34-17.37,1.13,6.6,7.31,6.69,11.74,8.86,2.3,1.13,4.94,1.65,5.7,4.56h0c-2.1.38-4.46-1.65-6.37,1.33-1.34,2.1-3,.41-4.28-1-2.94-3-7.16-4-10.73-6a2.81,2.81,0,0,0-3.74.86,2.29,2.29,0,0,1-2.67.79,111,111,0,0,1-13.71-8.32c3.14-2.31,5.44-.87,7.77-.55-6.58,0-12.88-3.07-19.61-2.11-.3,2.49,2.46,2.4,2.36,4.16-.34,2.67,1.42,3.82,3.52,4.77a39,39,0,0,1,4.35,1.87c1.36.83,3,1.9,2.37,3.62-.77,2.15-3.07,2-4.57,1.21-5.07-2.55-10.51-3.21-16-3.86-2-.23-5.19,0-4.67-3.11s3.19-3,5.64-2.08c-4.33-3.21-4.33-5.72.06-9.84a18.57,18.57,0,0,0-14.91,4.87c-2.62,2.47-4.16.58-5.27-1.85-.85-2.55-3.08-2-5-2.08-2.54-.17-5.14.22-7.58-.83-2.89-2.57-5.9-3.92-9.58-1.34-2.61,1.83-5.26,1.26-7.82-.21,6.2,3,13.16,2.35,19.67,3.85a63.61,63.61,0,0,1,7.5,1.84c1.8.64,4.23,1.39,3.29,4-.76,2.09-2.9,1.45-4.67,1.17-9.82-1.58-19.86-2.08-29.11-6.33a65.53,65.53,0,0,0,20.29,5.64c4.1.54,8.42,1,12.66,1.23,3.46.22,5.23,2.57,6.83,5C779.36,693.73,779.37,695.2,777.37,694.88Z"
            fill="#72543d" />
        <path
            d="M754.68,620.61c-2.41,5.65.92,9.68,4,13.75.35.45,1,1.19,1.3,1.09,6.17-2.33,5.58,3.15,7.07,6,4.33,8.34,3.13,15.68-8.91,16.87,5.92,2.32,10.39,4.18,14.93,5.81,3.66,1.31,7.5,2.16,11.09,3.61,1,.43,4,.06,2.66,3.29-.93,2.29-1.85,1.62-3.68,1.71-7.62.38-12.68-4-17.74-8.46a7.83,7.83,0,0,0-5.33-2c-1,0-2.41.75-2.81.36-6.38-6.37-11.35,1.36-17,1.55l-.69.66c-6.41.41-12.9-.63-19.19,1.76-1.94.73-4.3-.45-6.09-1.78a3.26,3.26,0,0,1-1.55-3.54c.47-1.64,1.94-.68,3-.91,3-.69,6-1.49,9.1-2l2.24-1.39c6.69-2.19,7.77-9,7.6-13.52-.14-3.61-2.18-8.75-4.87-12.58a16.14,16.14,0,0,1-1.37-3.15v0c1.89-2-2.18-3.93-.08-5.94-.12-1.75,2.49-3.51-.33-5.37-1-.7.37-1.56,1.35-1.62,2-.12,4,0,4.83-2.32,2.13-3.77,6.87-2.94,10-5.4,2-1.54,6.13,2.84,5.24,4.42C745.68,618.16,752.3,618,754.68,620.61Z"
            fill="#463223" />
        <path
            d="M766.64,611.23c-1.31-.12-3.23-.85-3.82-.27-3.76,3.73-4.37,0-5.73-2.11a37.08,37.08,0,0,0-7.59-7.26c-2.42-1.65-4.74-3.43-4.49-6.82a7.78,7.78,0,0,1,2.57-4.45c2-1.73,1.82-3.31.89-5.61-1.56-3.84-2.34-7.86,2.65-10.23,1.41.84,1.32,2.85,2.89,3.63,1.86-.56,2.34-2.34,2.41-3.71.41-8.23,6.08-14.19,9.16-21.25,1.43-3.29,4.16-4.42,7.56-4.8,3.8-.43,4.57,2.36,5.77,4.8.42,1.89-.46,3.31-1.68,4.61-2.38,1.66-3.3,4.11-3.75,6.8a61.47,61.47,0,0,1-3.43,12.11c-.39,1.24-2.07,2.64-.94,3.69,3.3,3.06,1.87,7.38,3.48,10.83-2.63,1.24-1.46,4-2.39,5.88a10.81,10.81,0,0,0,.57,5.67c2,4.49,1.31,5.42-3.62,4.9-1.17-.12-2.23-.72-3.42-.77,2.25,1,5.72.61,5.25,4.6A1.89,1.89,0,0,1,766.64,611.23Z"
            fill="#7f5c47" />
        <path
            d="M751,574.67c-2.33,3.82-3.87,7.55.08,11.41,1.46,1.43,1.72,3.43-.88,3.88-3,.51-2,4.82-5.22,4.81-4.06-2.6-5.45-7.91-10.28-9.76a2.35,2.35,0,0,1-.89-1.39c3.33-3.13,1.74-8.59,3.66-10.94,5.23-6.38,1.18-13.63,3.74-19.95a2.44,2.44,0,0,0-.78-2.11c-8-6.07-2.92-13.64-2.52-20.66,4.38.93,5.79,3.55,4.34,7.64-.63,1.77-1.36,3.39,1.25,4.17.27.08.61.77.59.79-5.69,5,4.16,10.22-.35,15.81-1.13,1.39,2.54,5.66,4.9,8.07A5.71,5.71,0,0,1,751,569C751.74,570.88,752.83,572.76,751,574.67Z"
            fill="#836d55" />
        <path
            d="M859.75,960c-.8-.15-1.64-1.08-2.36.12-1.3-.92-.85-2.46-1.35-3.66l.78-2.51,1.85,1.32Z"
            fill="#30281d" />
        <path
            d="M938.64,797.26c-.36,2.79-.71,5.59-1.06,8.38-2.68.37-2.49-3.12-4.85-3.4-1,1.49.73,3.69-1.13,5-3.63,1.33-4.29-1.08-5-3.7-1.82-6.44-4.42-7.68-10.32-4.9a5.66,5.66,0,0,1-5-.18,3.41,3.41,0,0,1-1.62-4.4c1-3,0-5.56-1.77-8-.28-.51-.48-1.07-.73-1.59-1.19-2.48-3-5.12.72-7,3.28-1.65,5.08.48,6.78,2.88a32.08,32.08,0,0,0,3,4.38c2-1.37,1.18-3.1.77-4.76-.56-2.29-.88-4.46.18-6.82,2.54-5.67,1.46-7.67-4.47-9.19-1.9-.49-4,.08-5.76-1.12a2.2,2.2,0,0,1-.85-1.33,2.47,2.47,0,0,1,2-1.8c4-.9,3.77-3.1,1.91-5.83-1.11-2.41-2.36-4.83.87-6.68a4.63,4.63,0,0,1,1.7.05c2.12.55,4.48,2.46,5.91-1,.26-1,.55-2,.8-3,.83-2.84,2.36-4,5.09-1.93,1.56,1.17,3.39,1.92,5,3a6.43,6.43,0,0,1,1.78,2.13c.9-4-1.2-8.14,1.47-11.54,2.82-1.28,3.49-3.31,3-6.33-.32-2.16.46-4.47.76-6.72a8.47,8.47,0,0,1,3.5,3.49c.56,4.32,3.74,8.63-.61,12.94-1.12,1.12,1.44,2.47,1.55,4.21,2.16-1.47.42-5.53,3.73-5.17,2.54.28,3.28,3,4.18,5.17s-.08,4.71,1.9,6.48l2.4,1.21c.17,2.07.33,4.14.49,6.31,2.67,1.22,3.2-2.58,6-2.22-.75,5.38,2.37,11.45-4,15.81-1.6,1.09-2.44.49-3.66.05-1.22-1.86.81-3.76-.2-5.39-.41,2,.4,5.16-3.42,5.46-3.41-1.44-2-4.72-2.67-7.66-3.43,1.85-6.73,3.18-7.33-3-2.39,2.59-2.32,4.37-.09,5.44,4.24,2,4.83,5.45,4.53,9.54-.4,5.31-.57,10.64-1.93,16a25.79,25.79,0,0,0-2.26-4.41c-.88-1.17-2.25-3.31-3.64-2.28-2.45,1.79.89,2.69,1.36,4.11C935.51,791.36,935.36,794.5,938.64,797.26Z"
            fill="#a48365" />
        <path
            d="M949.6,770.29c1.9-1.74,2.76-3.73,1.7-6.28-.7-1.66-.49-3.6,1.46-3.68,2.42-.09,1.38,2.29,1.56,3.64a9.55,9.55,0,0,1-1.1,6.25c.19,2.4-2.55,5.65,2.58,6.56,2.06.36-.45,3.11.58,4.77,2.55-.79,3.06-4.34,6.08-4.15,1.65.93,1.43,2.4,1.18,3.88a3.76,3.76,0,0,1-1.86,1.81c-.06.85-.13,1.69-.19,2.54-4-1.92-7.07-2.68-6.13,3.66.17,1.19,1.68,4.46-2.32,3.41-3.22-.1-4.79-1.39-3.52-4.73.58-1.19,1.18-2.37,1.74-3.56s1.13-2.75.07-3.81c-1.62-1.61-2.55,1.21-4.3.95C946.85,777.55,947.23,773.73,949.6,770.29Z"
            fill="#664d3c" />
        <path
            d="M955.59,749.09c.24-1.84.64-3.29,3.18-3.16,4.31.24,6.35-1.56,5.69-6.21-.23-1.58,1.18-3.4,2.11-5.81,2,3.76,1.32,8,4.52,10.52-3,0-6.13.5-8,2.72C960.83,749.8,957.87,747.79,955.59,749.09Z"
            fill="#a48365" />
        <path
            d="M961.78,783.09l.85-1.12c2.09-3.64-.69-7.89,1.47-11.52a1.14,1.14,0,0,1,.92-.05v16.47C963.09,786.17,964.43,782.82,961.78,783.09Z"
            fill="#a18265" />
        <path
            d="M964.1,770.45c-.78,3.8,1.1,7.93-1.47,11.52,0-1.52-.11-3.05-.17-4.57.12-1.48.53-3-.48-4.37C959.49,769.63,962.24,770.39,964.1,770.45Z"
            fill="#a18265" />
        <path
            d="M749.81,568.86l-1.14-2.42c-.55-3.92-4.53-8.06.76-11.61-6.7-6.6,2.65-15.42-3.21-22.34-1.62-1.91,1-2.27,2.43-2.61,3.69,3.81,8.19,7.36,5.68,11.42,1.17-3.34,2.79-9,4.21-14.78.8-3.2-2.56-9.08-5.61-9.76-4.25-.94-5.27,2.45-6.63,5.24-.6,1.23-1.07,2.54-2.43,3.21a3.47,3.47,0,0,1-.85-4.7c3.67-4.54,2.81-10.59,5.68-15.32,3.94-.36,3.53-3.26,3.57-5.9,3.78,1.74,5.77,4.34,4.26,8.62-.13.36-.41.68-.53,1-.67,1.93,1.12,3.17,2,2.42,4.17-3.66,5.44,8.42,10,1.56,2.88-4.35,2.87-9.68,5.46-14.1,1.26-2.16,0-4.16-1.13-6.05-1.37-2.38-3.24-4.48-4.36-7s-1.49-4.74,2.44-4.77a3.15,3.15,0,0,0,2.21-.73c5.39-5.11,10.75-4.56,17.23-1.35,5.86,2.91,11.74-.32,16.52-3.84,6.22-4.59,12.86-8.75,16.93-15.85,1.57-2.73,5.23-3.24,8.22-.26,3.34,3.34,6.16,2.62,9.6-.64a27.45,27.45,0,0,0,8-14.44c4-4.69,6.73-9.73,5.58-16.17-.39-2.2-.18-2.24,4.13-1.43,1.1,5,1.38,9.77-2.7,13.87-1.18,1.19.43,1.95,1.29,2.65,0,.34,0,.69,0,1-2.37,5.7-3.49,11.71-4.53,17.74-1.56,7.39,0,15.78-4.72,22-4.31,5.72-4.33,13.75-10.78,18.07-6.75,12.28-16.73,21.34-29,28.15l-6,3.5a3.56,3.56,0,0,1-1.19,1.19c-1.67.65-3.52,1.57-4.85-.28-1.15-1.59.67-2.81,1-4.22,2.2-8.19,8.59-12.21,15.53-15.88a15.71,15.71,0,0,0,5.45-4.82c-4.3-.11-8-.65-11.43-2.76s-7.9-.18-9.88,3.48c-.57,1.06-.93,2.44-2.09,2.72-6.7,1.63-8.5,7.67-11.64,12.43s-5.89,6.29-11.9,4.87c-2.84-.66-4.13.13-4.73,2.76q-.78,3.45-1.33,6.93c-.15.93-2.86,2.66,1.08,2.6,2.65,0,2.58,2.7,1.36,4.53-4.24,6.42-7.29,13.51-11.61,19.86C754.77,569,752.84,570.84,749.81,568.86Z"
            fill="#583829" />
        <path
            d="M743.87,525.21a40,40,0,0,1,1.5-5c1.1-2.54,2.66-4.91,5.65-5.48,3.32-.64,4.42,2.38,6.54,3.95,5.22,3.89,2.81,8.7,1.53,12.47-1.59,4.71-2.46,9.64-4.42,14.23-.51,1.18-.79,2.27-2.36,1.86a1.35,1.35,0,0,1-1-1.83c2.52-5.44,1.94-10.11-3.14-13.88-.16-.12.3-1.06.47-1.62C748.61,526.78,744.33,527.89,743.87,525.21Z"
            fill="#473123" />
        <path
            d="M852.89,461.6c-.28-6.35.07-12.55,4.53-17.74C857.16,450.09,855.31,455.91,852.89,461.6Z"
            fill="#a99781" />
        <path
            d="M849.12,443.91c2,8.6-5,13-9.55,18.16-1.55,1.76-6.51,2.2-8.85-1.51-2.68-4.26-5.45-2.8-7.32.27a31.62,31.62,0,0,1-12.33,11.82c-3.88,2.14-6.74,6.22-11.69,7.62-4.65,1.32-9,2.31-12.92-1.06a7.8,7.8,0,0,0-11.91,1.59c-2.23,4-3.65,1.76-6.16.9-.07,4.22,3,6.41,4.64,9.28,2,3.55,4,6.34.65,11-2.22,3.08-2.24,8.12-4.48,12-.6,1,1.11,3.28-1.2,3.87-2.09.53-4.71-.48-5.1-2.1-.8-3.31-2.14-3.57-5-2.5-1.86.71-3.58-.3-4.62-1.9S754,509,754.8,508c3.55-4.16-2.27-5.64-2.53-8.7-.95-2.46-4.2-5.61,1.88-5.92,1.11-.06,2.84.05,2.27-1.72-.42-1.3-1.27-3.21-3.39-1.36-.95.84-2.36,1.21-3.2.21s0-2.6.88-3c4.15-2,2.39-6.34,3.14-9.26,1.33-5.2,3.49-10.35,3.59-15.91,0-2-1.11-1.65-2.11-2-2.41-.83-2.89-2.43-1.88-4.62,5.57-4.64,11.37-4.63,17.93.86,3.27,2.74,6.59,5,10.7,6,3.49.89,4.44,2.39,1.63,5.19-1.75,1.73-2.44,4-.45,5.68,2.34,2,2.74-1.17,3.91-2.07,2.94-2.26,3.18-.48,3.38,1.9.37,4.49,1.11,6.31,6,2.49,3.48-2.72,8.65-3.36,13.09-4.87,4.12-1.41,6.89-4,7.16-8.42.18-2.85,1.52-3.76,4.22-4.63,5.71-1.86,11.19-4.41,16.7-6.82,1.12-.49,2.28-1.51,3.12-.28,5.15,7.54,4.06-.59,5.23-2.12S846.84,444.72,849.12,443.91Z"
            fill="#473123" />
        <path d="M760.63,434.49c1,4-4.09,3.18-4.77,5.85C754.22,435.84,759.67,437,760.63,434.49Z"
            fill="#473123" />
        <path
            d="M808.35,573.43c-2.75-.78-4.7-2.93-8-3.25-3.81-.37-4.15-4.09-1.24-6.78,3.65-3.37,7.34-6.78,8.26-12a2,2,0,0,1,.41-1.08,45.89,45.89,0,0,0,10.23-15.71c2.81-2.52,6.7-3.05,8.59-7.67,1.71-4.18,7.41-6.54,10.16-10.95.49-.79,2.34-.53,2.34-2.55,0-2.62,2-4,4.42-3.11s2.54,3.43,1.19,5.45c-4.31,6.44-5.21,14.78-11.62,20.07-1,.8-1.33,2.31-2,3.49a98.33,98.33,0,0,0-9.54,14.16c-5.55,2.92-6.09,9.18-9.14,13.76C811.14,569.28,809.7,571.34,808.35,573.43Z"
            fill="#302820" />
        <path d="M728.33,621.81c-.37,2,2.69,3.92.08,5.93.36-2.71-3.92-2-3.59-4.68Z"
            fill="#72543d" />
        <path
            d="M967.6,795c-2.48-6.92-1.21-14-1.22-21.1,6,4.64,6.63,11.52,1.66,17.35.34,2.5,4.53-1.1,4,2.23C971.62,795.93,969.21,794.77,967.6,795Z"
            fill="#79624c" />
        <path
            d="M773.78,680.68c.17,1.23.44,2.54,2.08,2.13,1.47-.37,1-1.28.26-2.15-1.26-1.46-.29-2.29,1.07-2.3,6.51,0,12.55-4.55,19.39-1.72.22,1.89-1.65,1.54-2.76,1.93-2.4.82-3.35,2.34-3.32,4.87,0,2.76,1.64,3.15,3.86,3.25,1.43.07,3.22.68,2.69,2.32-.59,1.86-2.3.82-3.47.21-2.27-1.17-4.35-1.62-6.78,1.68,8.61.84,16.64,1.5,25.06,6.47-1.23-3.88-2.72-4.5-4.7-5a27.87,27.87,0,0,1-4.79-2.14c-2.47-1.13-4.6-2.34-1.09-4.8,1.77-1.5,3.42-.48,4.88.43,9.17,5.71,17.87,12.16,28.06,16.19a13.72,13.72,0,0,1,6.48,5.82c2.85,4.32,7.77.75,11.23,3.23-1.32-2.79-4.82-3.16-5.56-6.23,2.25-1.11,4.52-2.6,6,1,1,2.34,3.18,1.81,5.06,2a33.44,33.44,0,0,1,4.8,3.43c1.12,1.11,2.64,2.78,1.52,4.07-5,5.78,3.08,7.88,3.27,12.13a1.1,1.1,0,0,0,.37.78c.16-.29.07-.7.21-1.06,1.28-3.33,3.16-1.63,4.2-.1,2.09,3.09,4.45,6,6.76,8.88,2,2.57,2.83,5.14-.32,7.62-2.13,1.68-2.41,4.25,0,5.32,4.55,2.07,5.17,6.1,6.48,9.93a6.36,6.36,0,0,1,.62,2.38L885,762c-.92.36-1.94,1.17-2.74,1-5.38-1.18-4.86,1.77-3.77,5.54-3.07-3.19-7.81-3.77-9.68-8-.35-.8-1.63-1.36-1.34-2.42,2.14-7.81-5.23-6.78-8.85-8.9-2-1.15-4.3.41-5,2.89a2.87,2.87,0,0,0,3.26,3.75c5.33-1.11,6.51,3.34,8.16,6,3.23,5.25,4.09,11.64,7.69,17.59-6.54-2-12.53-4-17.72,1.33.55-5.23-1.23-8.68-7-9.61-2.76-.44-5.18-1.36-5.09-5.19s-5.11-4.75-5.35-8.65c0-.67-1.36-1.61-1.18-1.9,4.6-7.7-3.56-8.45-6.58-12a9.64,9.64,0,0,1-1.12-2.64c2.53-2.41,5.52-.87,8.35-1.16-4.71-.61-9.59,0-14.18-1.32-4.17-1.23-8.35-2.68-8.47-8.11,4.5-1.58,8.79.78,13.25.89,4.89.11,9,4.26,14.52,4.31,2.63,0,4.1,3.07,2.89,6s.76,4.09,2.45,5.28,3.41.35,3.43-1.52c.09-5.85,3-2.75,5-1.6,1.33.74,2.45,2.59,4.09,1.43,1.84-1.3.32-2.74-.54-4s-.12-1.77,1-2.64c3.11-2.4,2-6.63,0-9.81-3.87-6.4-8.74-4.46-13.9-3-8.88-9.08-21.64-10.76-32.32-16.4-2.61-1.38-5.22-2.81-7.9-4.07s-5.17-2.39-7.56.35c-.92-.72-2.3-1.26-2.68-2.2-2.94-7.23-6.82-9.17-15.72-7.51-1.25.24-2.35.35-3.18-.81,1.63-3.43-3.71-2.72-3.33-5.42-4.33.87-8.11-3.81-12.76-1-3.38,2-5.58-2.3-9.29-2.08-4.47.26-9.15-2-13.63-3.48-.91-.3-1.34-2-2.74-4.24,12.72,3.94,24.15,7.4,36.37,6.79-10.54-5.79-23.27-3.66-33.8-9.2-.14.3,0-.26.12-.26,5.55,0,11.05.5,16.22-2.74,1.14-.72,4.84.52,4.86,3.84,2.52,2.34,5.78,1.48,8.69,1.7C770.27,678.93,772.26,678.91,773.78,680.68Z"
            fill="#5a4231" />
        <path
            d="M883.81,759.68c-1.86-3.83-2.2-8.36-7.57-10.2-2-.69-3.25-4.85,1-6.68,2.65-1.16,2.63-2.82.91-5.07-2.93-3.83-6.64-7.1-9.2-11.5v7.47c-3.77-7-6.72-12.48-10.86-17,1.43-2.45,3.81.62,5-1.81-.68-3.06-4.29-4.2-5.62-7,3.89.7,7.44,1.56,10,5.2,2.44,3.41,7,4.58,10,7.68a3.14,3.14,0,0,0,5.35-1.93c-.22-5.39,4.47-3.55,6.67-4.85,2.76-1.63,5,.81,6.76,3.18,1.5,2.06,3.49,3.86-.94,4.91-2.85.68-2.44,2.71-.29,3.48,3.25,1.17,5.91,4.21,10.4,3.24-2.88-5.1-4.38-10.67-9.18-15.65,3.35,0,5.69.31,7.8-.63,1.93-.86,5-1.48,1-3.92a1.39,1.39,0,0,1-.21-2.43,3.35,3.35,0,0,1,2.75-.32,10.65,10.65,0,0,1,6.35,9.41,3.39,3.39,0,0,0,2.05,3.19c6.35,2.07,8.61,7.47,10.83,12.9,2,1.89,3.22,5.18,7,3.65-.78,4.88,2.49,10.37-2.86,15.66,1.45-7.4-5.86-5.64-8-9.14-.2-.31-.68,1.85-1,2.85-3.72-3.4-8.66-2.5-13-3.22-3.63-.6-3.06,4.63-5.89,5.79-4.37-.86-2.92-3.83-2.3-6.39,1.68-7,1.59-7.35-5-10.13-2.38-1-4.63-2.23-6.89-3.45-1.07-.58-2.44-.85-3.08.51-.51,1.09.52,1.87,1.44,2.17,6.22,2,7.21,8.54,11.13,12.54,1.39,1.41.43,3.36-.29,5-1,2.39-.42,3.76,2.34,3.92,2.34,1.9,2.93,4.44.79,6.42-3.81,3.55-.91,5,1.65,6.69,1.32,4,1.31,7.82-2.28,10.87a15.37,15.37,0,0,1-2.24-5.16c-.61-2.24-2.29-4.93-4.87-4-4.57,1.63-6.5-.85-8.51-3.87h0c.08-1,1.61-.93,1.48-2A2.38,2.38,0,0,1,883.81,759.68Z"
            fill="#73553f" />
        <path
            d="M826.43,785.58c-3.25-2.66-6-5.62-5.62-10.2.29-3.75-3.23-4.26-5.33-5.43-3.1-1.73-1.25,3.11-3.65,3.22-1.92-1.08-2.55-3.26-3.11-5.19-.64-2.21-2.65-3.3-3.9-2.77-7.9,3.28-10.72-3.51-13.9-7.45-2.78-3.45-6-6.46-8.77-9.86a6.76,6.76,0,0,1,7.19-1.19c4-.28,6.13,3.38,9.43,4.41,2.14.67,5.38,3.25,6.66-.37s-3.6-1.4-5-3.5c2.59-2.84,5-1.49,7.41-.19,2.58,1.42,4.54,3.85,7.84.19,1.79-2,4.23.34,4.89,3.07,1.35,5.55,3.42,10,10.36,11,2.87.4,4.83,3.68,5.06,7.23.19,3,.89,5.92,4.73,6.45-.19,3-2.22,3.63-4.8,3.48-1.67-1.47-2.05-3.68-3.3-5.49-1.39,1.4.61,3-.3,4.37-2.27.14-3.49,1.32-3.52,3.57C828.83,782.9,828.53,784.69,826.43,785.58Z"
            fill="#4e3d2f" />
        <path
            d="M908.91,785.6c5.16,3.09.86,8,2.36,11.81,1,1.66,2.52,3.5.94,5.3s-1.64,2.61-.63,4.79.93,5.34-2.65,6.37c-.72-4.29-3.73-6.79-7.86-9.9.33,4.3,4.39,10.23-4.07,8.75-1.41-2.34-6.19-.39-6.1-4.64,2.42-2.43-1.83-6.89,2.77-8.67-2.85,1.07-3.94,2.83-2.66,5.76a2.66,2.66,0,0,1-.38,3.22,2.59,2.59,0,0,1-3.21-.42c-1.94-2.68-3.56-5.91-7.87-3.08-.85.55-7.41-7.13-7.17-8.4.09-.47.64-1.22,1-1.23,9.73-.27,2-6.19,3.43-9.52,4.3-.77,7,1.17,7.42,5.65.16,1.86.59,2.58,2.3,2.36,1.94-.26,1-1.7.93-2.73-.2-2.36-.72-3.93,2.31-6,5.68-3.93-3-3.32-2.76-7.15,4.73,2.61,9,.14,13.53-.53C903.84,779.57,905.67,783.28,908.91,785.6Z"
            fill="#7d5c43" />
        <path
            d="M941,840c-1.7,2.52-.43,5.45-1.15,8.11a6.7,6.7,0,0,0-.78,1.56c-1.48,6.61-1.47,6.62-7.52,5.71-2.76-.46-2-2.69-2.32-4.28.15-.88-1.08.21-.3,0,.18,0,.16.14.17.53a2.93,2.93,0,0,1-1,2.48c-7.1-3.77-13.12-9.45-21.18-11.55a2.46,2.46,0,0,1-1.91-3.15c.87-2.35,2.78-3,5.15-2,4.65,1.28,8,4.61,12,7.08,5.09-.61,2.59-4.88,3.69-7.42a2.8,2.8,0,0,1,1.7-.27c2.75.49,4.89,7.24,7.82-.08-2.73-2.24-4.9-6.14-7.5-9.7-1.33-1.09-3-.72-4.5-1-8.36-1.7-8.75-2.48-4.93-10.16,2.22-1.22,4-.27,5.59,1.2,1.44,1.33,2.78,2.88,5.09,1.5,1.73-1,2.7.25,4.09,1.08,2.32,1.38-.28-1,.6-1,1.79-3.1,4-6,5.06-9.45,1.61.51,3,1.89,4.63,1.65,1.26-1.27.34-2-.21-2.73-1.33-1.81-.66-3.28.81-4.58.57-.51,1.25-1.06,2.07-.44,1.51,1.13,1.06,2.79,1.13,4.3.15,3.2-2.92,5.57-2.37,8.88,1.51,2,0,3.32-1.23,4.66l-1.2,2.38c3,4,.22,6.05-3.45,7.85,3.46,1.6,6.84-1,9.53,1.36.84,1.87.13,3.52-.71,5.17C946,839.9,943.6,840.23,941,840Z"
            fill="#a07c5e" />
        <path
            d="M910.11,837.44c-1.79.48-4.61.34-4,3,.46,2.16,2.7,1.48,4.51,1,3.29-.94,4,2.72,5.7,4,3.82,2.91,10.12,2.74,11.66,8.53a7,7,0,0,1,2.52,5.75c.14,6.72,2,13.48-.19,20.18-.74-.26-1.65-.94-2.18-.73-1.71.71-3.27,3.06-5.2,1.21-1.67-1.61-1.31-4.3-.5-6.15,2.42-5.49-1.84-7.73-5.1-9.66-3.49-2.06-8.51-2.24-6.41-8.31.12-.37-.36-1.2-.78-1.45-2.79-1.65-9.24-3.2,0-4.81a4.35,4.35,0,0,0-.14-2c-.36-.82-1-2.09-2.13-1.11-3.53,3-6.66,3.85-9.56-.81-.22-.35-2.19.27-3.31.56-2.93.76-4.13-.44-4-3.26.14-1.69.86-3,2.64-3.38,3.53-.74,8.2,2,10-4.16C904,834.2,908.08,835.91,910.11,837.44Z"
            fill="#82614a" />
        <path
            d="M918.51,816.26a10.39,10.39,0,0,1-1.51,6.3c3.91,2.43,8.41,1.41,12.25,3.1-2.2,4.31-4.7,7.34-9.69,2.89-1-.85-2.59-.81-3.88.74,2.24,4,7.49,4.63,10,8.28,2.93,3.43,2.28,6.23-1.63,8.29-1.16.61-1.55-.58-2-1.34.25-3.26-5.45-9.53-9.68-10.66-7.15-1.91-9.31-10.42-3.84-15.68,1.62-1.55.18-2.9.37-4.31.49-2.55,5-5.53-1-7.36A1.29,1.29,0,0,1,908,804c5.08-.43,2.34-4.34,3.26-6.58,1.5-.46,3.13,1.8,4.38.11s1.14-4.38,4.54-2.69c3.63,1.82,8.2,2.53,7.86,8-.16,2.58.57,4.25,3.6,4a2.07,2.07,0,0,1,.05,1.6C929.18,814.07,923.74,815,918.51,816.26Z"
            fill="#936f54" />
        <path
            d="M908.91,785.6c-5.27-.33-6.23-4.88-8.37-8.28,0-.76.07-1.51.1-2.26q1.18-5.31,2.36-10.62c.08-.26.17-.52.25-.78a4.49,4.49,0,0,1,4.46-1.62c3.27.8,6.7-.36,10,1.77,3,1.91,5.8,6.36,3.38,8.67-3,2.83-2.3,5.07-.77,8,1.31,2.46,0,4.68-1.64,6.35-1.19,1.22-3.29,2.48-3.25-1.11,0-.72,0-1.94-.29-2.09-2.66-1.15-1.71-7.15-6.5-5.05C903.5,780.81,910,783.19,908.91,785.6Z"
            fill="#936f54" />
        <path
            d="M857.41,810c-.52-2.1-1-4.37-1.66-6.63-.36-1.31-1.14-2.8.86-3.34,1.64-.45,2.66.66,3.09,2.07.92,3,1.81,6,2.47,9a8.78,8.78,0,0,0,1.74,4.27c3.19,3.58,1.91,12.8-1.1,12.07-8.84-2.15-6.31,5-8.57,8.14-.72,1-1.44,1.81-2.85,1.72-1.86-.12-1.79-1.55-2.38-2.79-4-8.66,1.34-14.58,6.12-20.57C856.1,812.74,857.51,812,857.41,810Z"
            fill="#4d3422" />
        <path
            d="M891,808a3.41,3.41,0,0,0,4.24,2.11c2.54-.51,1.38,1.62,1.76,2.65a22.38,22.38,0,0,1,4,2.32c1,.92,3.26,1.76,2.12,3.59s-2.21-.14-3.33-.65a2.3,2.3,0,0,0-3,1.17c-.6,1.24.35,2.31,1.5,2.71a23.74,23.74,0,0,0,4,.68c-.4,2.81-2.4,1.68-3.69,1.87s-2.86-.19-4,.84c-1.35,1.25-1,5.46-2.49,4.32-2.92-2.19-7.22-1.84-9.25-5.26a14.34,14.34,0,0,0-1.57-1.76c-2.26-2.65-5.77-6.12-3.64-8.94,2.32-3.05,5,2.14,8.13,2.41,1,.09,2,1.85,3.5.64a2.05,2.05,0,0,0,.69-1.56c-.34-2.15-2.19-.92-3.34-1.28a4.66,4.66,0,0,1-3.18-2.56c.78-1.65,4.2-.45,3.92-3.29Z"
            fill="#7f5e47" />
        <path
            d="M832.36,777.36c-2.06-2.29-2-5-1.85-8.37,4.06,2.48,5.18,5.75,5.45,9.49C834.63,778.51,833.25,778.7,832.36,777.36Z"
            fill="#3e3023" />
        <path
            d="M881.43,843.34a4.29,4.29,0,0,1,4.26,3.35c.07.27-.63,1.06-1,1.09-2.37.16-3.4-1.58-4.42-3.27Z"
            fill="#4d3a2a" />
        <path
            d="M905.68,902.31l-.5,29.46c-2.42,3.37-.2,7.24-1.21,10.77-2.1-7-.21-14.42-2.06-21.47l-.06-10.42c1.54-4.35.34-9.29,3.18-13.82C905.28,898.91,905.48,900.61,905.68,902.31Z"
            fill="#4d3a2a" />
        <path
            d="M845.09,947.76c-1.35-2.78.46-4.6,2-6.26,2.26-2.49,4.43-5,5.68-8.14.44-1.12.87-2.5,2.25-2.26,2,.34,1.62,2.37,1.18,3.35C853.78,939.84,852.34,946.1,845.09,947.76Z"
            fill="#53412e" />
        <path
            d="M813.19,658.3c-2.05,1.58-3.21-.58-4.76-1.1-7.19,1-14.22,1.18-20.35-3.61-4.54-.19-5.49-4-7.16-7,2.35-2.5,2.28-5.27.79-8.09a4.69,4.69,0,0,1-.3-3.82c.93-3.52,4.92-.45,6.7-3.76,2-3.77,5.36-.36,7.83,1.33a17.35,17.35,0,0,0,2,1.24c4.35,3.12,6.81,7,5.18,12.52-2.59,2.86-6.27-.33-8.84,1.71,4.51,3.36,6.6,3.52,14.86,1,3.05-.75,3.36-4,5.31-5.71,2.35.83,3,3.35,4.79,4.71,3.78,1.22-.57,2.37,0,3.55,0,2.81-4.57,2.47-4.09,5.65A2.44,2.44,0,0,1,813.19,658.3Z"
            fill="#583d2a" />
        <path
            d="M840.7,707.89c-11.64-7.37-24.61-12.55-35.6-21-1-.79-2.54-1-3.82-1.44-.76-1.16-2-1-3.19-1.25s-2.13-.75-2-1.78a3.23,3.23,0,0,1,1.78-2.14,10.27,10.27,0,0,1,4.59-.86c6.72.72,13.39,1.72,20.45,5.37-4.32,1.11-6.45-2.65-11.33-.71,7.3.55,9.89,7,16,7.23,2.35,4,7.68,3.48,10.68,6.86,1.69,1.91,5.42,2.27,1.88,5.73C838.86,705.18,842.46,706.28,840.7,707.89Z"
            fill="#967559" />
        <path
            d="M926.91,731.34c-4.37-3.68-6-9.59-10.83-12.9,4.15-1.48,13.81,1.63,15.72,5.06C933.91,727.31,932.06,730.28,926.91,731.34Z"
            fill="#aa8660" />
        <path
            d="M852.72,696c.16-.11.38-.19.48-.34,2.36-3.52,4.74-1.06,7.09,0,1.18.53,2.1,1.34,1.18,2.68s-2,2.69-3.83,2.15c-2.28-.68-5.41-.73-4.92-4.48Z"
            fill="#72543d" />
        <path
            d="M814.47,657.17c-2-4.81,2.38-4.55,4.77-5.9,3.08,1.92.66,6.92,4.78,8.25h0C820,662.06,817.52,658.47,814.47,657.17Z"
            fill="#72543d" />
        <path
            d="M952,749.06c-3.09-.79-2.53-3.81-3.31-5.81s-1-4.06-3.73-4.85c-.07,1.46-.15,2.81-.21,4.16s-.25,2.81-2.16,2.88-2.33-.88-1.91-2.61c.59-2.45-4.84-3.57-2.7-4.7,6.45-3.38,1.08-8.84,3.27-12.7,2.59,1.26,2.89,4.06,4.27,6.14,1.17,1.75,1.05,4.74,4.74,4,2.15-.43,1.56,1.74,1.59,3C952,742,952,745.54,952,749.06Z"
            fill="#8b684a" />
        <path
            d="M947.08,837.55l1-5c-1.58-2.73-.24-4.87,1.44-7,2.44,3.94,1.68,8.4,1.15,12.42-1.25,9.46-3.16,18.81-1.08,28.38,1,4.65-.64,8.69-3.35,12.41-2.79-6.64-1.07-13.56-1.38-20.36a16.12,16.12,0,0,0,.35-8.57C944,845.5,945,841.45,947.08,837.55Z"
            fill="#896a4f" />
        <path
            d="M931.7,807.91c0-.37,0-.74-.05-1.11a13.42,13.42,0,0,1-.13-2.27c.18-1.62-3.85-3-.62-4.53,2.24-1.09,3.93.86,5.13,2.69.6.93,1,2,1.55,2.95.14,1.27-.2,2.7,1.21,3.54,2,4.84-1.58,6.94-4.68,9.28-3.52-2.56-2.7-6.19-2.49-9.68C931.64,808.49,931.67,808.2,931.7,807.91Z"
            fill="#b89b81" />
        <path
            d="M949.54,825.64l-1.44,7c-2.52.45-5,1-7.58,1.29-2,.22-3.65-.58-3.92-2.72-.19-1.49.7-3.1,2.29-2.77,5.68,1.15,2.74-3.17,3.53-5.09C945.33,822.5,946.89,825.68,949.54,825.64Z"
            fill="#6c4e35" />
        <path
            d="M949.62,788c0,2.44,1.84,3.52,3.52,4.73a6.18,6.18,0,0,1-2.08,5.43c-1.72.33-3.15-8.5-5.38-.42a1.45,1.45,0,0,1-1.7,1.23,1.85,1.85,0,0,1-1.36-2.3c1-3.52,3.12-6.55,4.15-10.14C947.3,784.67,949.33,786,949.62,788Z"
            fill="#a4856b" />
        <path
            d="M938.64,797.26a22.91,22.91,0,0,1-2.12,1.56c-2.22-2.32-.92-5.5-2-8.24-.69-1.78,1.32-2.46,3-2.57A18.81,18.81,0,0,1,938.64,797.26Z"
            fill="#bea68c" />
        <path
            d="M943.62,820.92l1.23-4.66c3.76-2.39,4.95,1.19,5.19,3,.34,2.58-2.54,1.31-4,1.62A10.44,10.44,0,0,1,943.62,820.92Z"
            fill="#6c4e35" />
        <path
            d="M748.64,700.83c7,4.31,7,4.31,11.36,2.4a7.51,7.51,0,0,0-5.75-4.52c3.53-.33,6.88-1.75,10.27-.16,1.25.59,2.57.59,3.23-.35a4.4,4.4,0,0,0,.61-3.38c-.52-1.74-2.48-1.37-3.54-.94-6,2.37-9.73-1.78-14.05-4.45,8.06,3.84,17.81-.38,25.43,5.37-.73,2.12-4.31,3.57-4,4.24,1.38,3.17,4.08-.2,6.28.57,2.41.83,5,1.13,7.46,1.88,1.6.48,4,.38,4.1,2.69.1,2.83-2.75,2.17-4.77,2.84,2,1.07,3.82,1.88,5.46,2.89.6.37,1.33,1.27,1.26,1.83-.63,5-.68,5,3.95,7.58a1.64,1.64,0,0,1-2.59,1.27c-4.26-5.34-13.06-3.48-16.42-10.17-.54-1.08-1.88-1.38-3.13-1.41-.94-1.43-2.2-2.83-.28-4.56-1.88.31-3.06,1.82-6.23,1.87,3,1.48,5.55.41,6.52,2.68.57,1,1.13,2,2,3.59-4.62-1-8.55-2.87-13.34-2.16,1.55,3.18,5.59,1.29,6.87,4.1-1.35,2.4-4.66,1.52-6.73,3.65,7.16,1.81,14.35,3.11,20.3,7.45,1.43,1,2.43.12,3.76-.19,2.71-.63,5.59-.37,7.51,2,1.21,1.48,4.77,2.8,2.5,5s-2.89-1.34-4-2.64c-1.26-1.47-2.93-2.93-4.22-.66-2.53,4.48-6.44,3.09-9.26,1.71-4.21-2.06-9.16-1.74-12.74-5.07-1.43,2.8,2.08,2.87,1.85,5.57-5.5-.59-9-4-12.47-7.39-.64-.64-.8-1.84-2-1.65-1.41.23-1,1.25-.92,2.25.26,2.56-.94,1.65-2.43,1.09-5-1.88-8.19-6-12.17-9.11-2.77-2.19-5.17-4.1-9.41-1.74-6.92,3.85-12.92-.2-19.15-4.55-.17,3.5.26,7.41-4.73,5.08-.88-.41-2.12-.55-2.41.73a2.78,2.78,0,0,0,.85,2c1.29,1.38,2.73,2.63,4.28,4.09-2.65,1.85-4.77.86-6.9-.16-.08-3-2.74-3.49-4.72-4.66a24.2,24.2,0,0,1-4.38-2.88c-.72-.68-1.72-2-.62-3.09,1.3-1.26,2.27.16,2.76,1,1.37,2.38,3.74,2.33,4.76.77,1.5-2.26-1.29-2.35-2.71-3.14-4.41-2.47-1.1-4.32.7-6.14,1.43-1.44,4.08.13,5.33-1.95.15-2.32,2-2.08,3.52-2.26,7.94.77,15.33,3.64,22.9,5.84,2.83-.59,1.35-1.28.16-2.28-.87-.73-3.8-.15-2.11-2.77,1.1-1.7,2.05-3,4.7-1.94,6.17,2.45,1.25-1.79,1.71-3.05l11.09,3C746.26,697.78,747.53,699.15,748.64,700.83Z"
            fill="#5a4231" />
        <path
            d="M740.26,664.19c1.47.39,4.47-1,1.8,2.88-3.2,4.6-7.81,4.34-12.14,5.19-1.6.32-3.9-.85-4.54,1.26s2.29,2.09,3.51,3.25c-8.83,4.42-14.78,2.17-15-5.46a2.51,2.51,0,0,0-1.08-2.43c0-2.27,1.85-2.43,3.31-2.33,7.43.53,14.52-2.84,22-1.7a2.43,2.43,0,0,0,2.16-.66Z"
            fill="#937966" />
        <path
            d="M695.31,692.45c-4.19-1.55-8.55-2-11.59-5.09-1.87-1.91-3.22-4.77-1.3-6.84,1.33-1.42,3.63-3.77,6.66-1.67,2,1.41,4.69.39,7,.85,4.43.89,5.5,4.68,5.36,8C701.31,690.77,698.48,692.55,695.31,692.45Z"
            fill="#201711" />
        <path
            d="M705.62,700.75c-1.31.08-2.73-.2-3.66,1.11-4.32-.21-8.68,1.13-13-.12-1.68-.49-3.5-1.39-2.77-3.71.55-1.75,1.78-3.76,3.76-2.85,6.18,2.86,10.67-1.11,15.44-3.45a12.1,12.1,0,0,1,6.14-1.54c4.14,2.51,4.14,3.63,0,8.19h-.05C710.09,700.44,707.61,700,705.62,700.75Z"
            fill="#261b15" />
        <path
            d="M740.27,664.19c-2.91,2.54-6.51,2.16-10,2.48-5.83.52-11.62,1.46-17.42,2.21-1.62-.22-4.72.63-4.36-1.5,1.09-6.36-3.47-3.93-6.14-4.32-3.75-.55-7.26,1.87-11.07,1,6.74-2.67,14-3.07,21-4.39,4.06-.76,8.11-3.56,12.54-1.27-3.64,1.35-6.67,4.84-11.76,2.25,2,4.51,5.83,5.61,8.18,4.41C727.67,661.79,733.91,663.58,740.27,664.19Z"
            fill="#72543d" />
        <path
            d="M711.58,698.38c.82-2.73,3.79-5.46,0-8.19-1.63-1.64-5.92-2.27-2.34-5.92,1.35,1.59,3,2.53,5.17,2,1.27-.29,3-.33,3.23.58,1.32,4.22,5.2,4.43,8.66,5.88-3.49,1.42-7.76.05-10.5,3.15.84,2.42,4,.15,4.91,2.91Z"
            fill="#4c3a2c" />
        <path
            d="M710.48,678.31a7.48,7.48,0,0,0-.12,1.16c-4.4-.34-8.55-3.56-13.2-1.18a7.78,7.78,0,0,1-2.29-4.62c2-.91-1.6-4.72,2.42-4.63,3.16,3.65,8,3.88,12,5.77C710.71,675.65,710.4,677,710.48,678.31Z"
            fill="#8c6751" />
        <path
            d="M681.14,765.76c-4.88-1.47-5.83-5.42-8.08-8.18a2.5,2.5,0,0,1,.38-3.68c1.71-1.38,2.34.62,3,1.56A27.47,27.47,0,0,1,681.14,765.76Z"
            fill="#3e3023" />
        <path d="M709.32,674.81c-4.83-.26-10.3.76-12-5.77C702.18,669.2,706.69,670.1,709.32,674.81Z"
            fill="#ab907c" />
        <path
            d="M694.87,673.67c2.59.66,3,2.38,2.29,4.62-1.78.43-3.61.55-4.51-1.36S693.55,674.38,694.87,673.67Z"
            fill="#dad2c8" />
        <path
            d="M796.65,634.6c-2.55-1.19-3.91-4.5-7.53-4-1.54,1.76,2.37,2.15,1.73,2.91-1.16,2-1.78,1.4-2.42,1-2.09-1.4-4.13-1.31-5.86.52-2.3,2.43,2.08,2.18,1.56,3-1.6,2.68,3.79,7.93-3.21,8.49,0-3.68-1-6.74-4.49-8.77-1.49-.89-1.46-2.65-1.43-4.24-3.67-9,2.88-12.82,9.07-17.09-.78-1.06-3.14-.59-3-2.32.21-1.93,2.18-1.93,3.76-2.62-1.91-3.11-4.93-6.29-3.35-10a4.92,4.92,0,0,1,6.62-2.1,34.93,34.93,0,0,1,9.55,5.89,12.15,12.15,0,0,1,1.06,2.72c.7,5.07-1.32,7-7.79,7.27,3.9,4.92,9.76,5.17,14.68,5.84,8.24,1.13,12,5.07,9.88,12.77a2.81,2.81,0,0,0,.25,2.15c2.77,3.54.27,4.71-2.55,5.8-5.26-3.41-6.06-5.74-3.54-10.41C804.49,629.09,800.82,632.84,796.65,634.6Z"
            fill="#483222" />
        <path
            d="M788.15,599.41l-6.39,2.8c1.91,3.81,2.45,8.39,7.34,10.34-2.52.37-4.86,0-7.24,1.63,1.74,1,3.92.53,5.44,2.48-5.11.4-6.08,6.34-11,7.22-1.36.24-1.49,2.19-.81,3.56,1.07,2.17.61,4.17-.5,6.14-2.87-2.29-6.92-4.06-8.28-7-1.47-3.18-.45-7.49-.44-11.31,0-1.34.23-2.68.36-4l2.33-.05c1.24-1.45,1.63-3.54,3.76-4.33a2.9,2.9,0,0,0,1.91-3.8c-1.28-3.3,1.17-5,2.69-7.15C782,593.9,784.8,597.47,788.15,599.41Z"
            fill="#584231" />
        <path
            d="M801.36,533.51a4.38,4.38,0,0,0,1.08-.14l4.33.22c-3,2.82-5.18,6.8-5.48,9.08-.84,6.54-8.13,6.83-9.58,12-4.33-.31-3.47,4.41-5.91,5.94v0c-3.15,1.63-6-.33-8.93-.85-1.27-.23-1.6-1.5-.68-2.7l2.41-3.57C783.84,544.25,792.48,538.75,801.36,533.51Z"
            fill="#a1917c" />
        <path
            d="M772.59,591.19c-1-.89-3.64-.72-2.52-3.1,1.26-2.66.34-4.55-1.77-6.09-2.8-2.07-1.5-3.53.61-5,2.73,1.47,4.55-2.88,7.33-1.11.85,1.91,2.49,2.36,4.4,2.27,2.27-.11,3.64,1.36,4.91,2.85a9,9,0,0,1,1.36,8.73c-.76,2.05-3.75-1.73-4.73-1.14C779.14,590.48,774.39,585.7,772.59,591.19Z"
            fill="#837663" />
        <path
            d="M776.24,575.94c-1.69-.1-1.94,1.38-2.82,2.3-1.92,2-3.67,1.65-4.51-1.19l3.69-13a3.44,3.44,0,0,1,1-.68c2.78-.93,6-3.08,8.44-1.32,2.91,2.08.65,5.39-.19,8.11-.58,1.88.31,3.94-.85,5.72Z"
            fill="#a28e75" />
        <path
            d="M777.33,595.9c-.06,2.61-2.1,4.45-.82,8,1.42,3.93-5,4.62-7.54,7.3-1.65-3.16-4.77-3.26-8.47-3.46,3.6-3.31,7.37.29,10.41-1.71-.82-2.71-5.6-5.44-.71-8.94C772.65,597.09,775.13,597.32,777.33,595.9Z"
            fill="#72543d" />
        <path
            d="M781,575.87c0-2.83-3.64-5.93.92-8.52.82-.46.85-3.14-.23-4.37-.91-1.05-2.16.13-3.17.57-1.92.83-3.91.47-5.88.49-.3-3.07.44-5.62,3.58-7,2.32,3.52,6.7,1.61,9.61,3.55.08,3.6-3.76,7-.64,10.94C785.33,571.78,782.43,574.37,781,575.87Z"
            fill="#837663" />
        <path d="M785.8,560.59c.73-3.18,1.9-5.93,5.91-5.94A11.05,11.05,0,0,1,785.8,560.59Z"
            fill="#837663" />
        <path
            d="M796.65,634.6c2.51-6.22,8.33-5.06,13.27-5.56,1.83-.18,4.3,2.17,2.4,3.08-6,2.86-1.13,5.25-.28,7.8a9.76,9.76,0,0,0,1.19,1.93l1.24,1.16c-.54,2.79.25,6.64-4.79,5.89l-.63-.42c-1.4-2.82-4-1-5.95-1.45l-.6-.48C802.65,641.57,801.75,637.09,796.65,634.6Z"
            fill="#342015" />
        <path
            d="M780.94,750.24c-.93,7.07,4.18,11.94,6.65,17.77,1.13,2.64,3.41,4.27,5.22,6.33.81.91,2.73,1.7,1.3,3.29s-2.91.82-4.19-.35c-1.74-1.59-3.36-3.14-5.82-3.85-3.46-1-6.49-4.42-10.37-.37-.89.94-3.63,1.34-5.41-.52-2-2.1-.53-3.63.63-5.12,2.15-2.76,1.06-5-.62-7.33-2.71.9.62,3.55-1.73,4.3h0c-6-.36-8-5-11.47-8.82-3.24-3.56-7.57-7.18-13.33-8.68,2.49-2.23,4-.88,5.5.14,3.29,2.15,6.71,4.11,9.88,6.41,2.16,1.56,3.1,4.14,6.62.7,2.14-2.09,7.15-1.38,10.89-1.8a3.23,3.23,0,0,0,2.64-2A2.51,2.51,0,0,1,780.94,750.24Z"
            fill="#4e3d2f" />
        <path
            d="M799,705.4c.73-6.35,4.81-3.37,7.32-2.09,7.51,3.82,14.82,8.57,23,10.27,7.7,1.6,12.09,7.11,17.88,11a4.53,4.53,0,0,1-.41,1c-12.12-4.19-25-6.32-36-13.55C807,709.5,803.64,706.25,799,705.4Z"
            fill="#6d513e" />
        <path
            d="M780.94,750.24l-3.61.08a4,4,0,0,1-3.7-2.35c-3.56-1.84-5-6.44-9.41-7.15-1.88-1.32-4.21-.85-6.24-1.51-.94-.3-1.88-1-1.59-2.15s1.44-.85,2.41-.79c3.68.22,7.38.46,10.55-2a3,3,0,0,1,1.67-.45c4.44-.18,16.9,8.56,18.32,12.81-2.23,1.4-4.72,1.23-7.19,1.19H781a13.31,13.31,0,0,0-2.32-1.84c.66.75,1.7,1,2.33,1.83Z"
            fill="#644d3f" />
        <path
            d="M766.6,764.39c-.56,1.86-1,3.77-1.7,5.57-1.57,4-3.79,6-7.76,2.21-1.87-1.81-3.82-3.31-5.14.65-.74,2.24-2.42,1.51-3.84.67-1.68-1-2.14-2.34-.61-3.8a7,7,0,0,0,2.37-5.73c-.07-1.25-.66-3,1-3.63a3.58,3.58,0,0,1,4.08,1.74c3,5.28,7.25,4,11.63,2.32Z"
            fill="#2c241b" />
        <path
            d="M814.46,730.27c4.13,8,11.69,8.7,19.19,7.59,4.43-.66,5.42,1.33,7.55,5.54-4.64-2.91-8.55-2.63-12.44-2.54-11.49-.1-17.28-10.63-27.91-14.07,3.32-2,5.37-.2,7.25.53C810.25,728.15,812,730,814.46,730.27Z"
            fill="#755b49" />
        <path d="M760.64,784.4c-4-.3-8,3.86-12,0C751.29,778.34,751.29,778.34,760.64,784.4Z"
            fill="#2c241b" />
        <path
            d="M764.22,740.82c2.34-2.45,3.82-.43,5.13,1.13,1.58,1.89,2.87,4,4.28,6C769.35,747.05,766.55,744.23,764.22,740.82Z"
            fill="#4e3d2f" />
        <path
            d="M699.69,726.84c2.13-1.74,3.67-1.62,5.62-.31C703.63,728.24,702.05,728.16,699.69,726.84Z"
            fill="#463425" />
        <path
            d="M930.27,879.88c-1.68-8.56-.3-17.4-2.33-25.93V847.3c3,2.26,1.87,5.78,3.52,8.09,5,6.67,4.65,14.63,5.1,22.25.23,3.86,1.9-.79,2.08.67a41.86,41.86,0,0,1-3.56,13.35c-1-2.58,1.68-6.87-3.78-7.47C930.8,884.14,930.61,881.39,930.27,879.88Z"
            fill="#82614a" />
        <path
            d="M938.64,878.31,936,882.48c-.32-9.43-2.92-18.19-4.52-27.09,1.1-3.45,1.1-3.45,5.15.49,2.64-2-2.2-7.11,3.21-7.77.32,6.93.37,13.89,1.07,20.79C941.25,872.47,938.84,875.07,938.64,878.31Z"
            fill="#88654a" />
        <path
            d="M947.08,837.55c-1.46,6.91,1,14.21-2.2,20.94C945,852,942.22,846.17,941,840,942.45,837.82,945.27,838.93,947.08,837.55Z"
            fill="#694a34" />
        <path
            d="M814.47,657.17c3.8-1.65,5.84,3.66,9.55,2.35,2,2.16,5.65.27,7.37,3.1.58,1,2,1.55,1.55,2.9s-2,1.16-3.08,1c-4.61-.55-9.4-.58-12.45-5.13-.91-1.36-2.78-2.1-4.22-3.12Z"
            fill="#8b684a" />
        <path
            d="M788.08,653.59c6.55,2.52,13.65,1.95,20.35,3.61,0,1.56.06,3.14-1.49,4.15C803.27,663.71,789.1,657.88,788.08,653.59Z"
            fill="#a07757" />
        <path
            d="M801.34,670.1l-4-1.33c8.3-5.89,8.3-5.89,23.07,6.21-5.06-1.32-8.86-2.7-12.14-5.67-2.28-2.06-5.1-3.2-7,.82Z"
            fill="#aa8668" />
        <path
            d="M801.28,670.13c5.93,4,14.12,3.33,19.38,9.46-5.2-.14-8.93-4.25-13.88-4.39-1.54,0-3.06-.89-4.6-.94-1.85,0-4.36,1.29-4.68-1.66-.26-2.31,3.33-.43,3.84-2.5Z"
            fill="#ab8868" />
        <path
            d="M705.62,700.75a7,7,0,0,1,5.91-2.38c5.08,3.59,12.26,2.35,16.85,7.07-1.57,2-3.18.77-4.74,0C718,702.72,711.66,702.2,705.62,700.75Z"
            fill="#463425" />
        <path
            d="M773.78,680.68c-4.12-.4-8.25-.76-12.36-1.24-1.26-.15-3-.25-2-2.37,3.5,0,7,.15,10.51,0C772.53,677,774.07,677.83,773.78,680.68Z"
            fill="#a58561" />
        <path
            d="M748.64,700.83c-2,0-3.18-1.56-4.71-2.46-.19-.83-1-2.42.53-2.06,2.15.52,5.07,0,6.27,2.41C751.43,700.11,749.84,700.58,748.64,700.83Z"
            fill="#a28065" />
        <path
            d="M801.36,533.51c-7.71,6.53-15.68,12.76-22.77,20-2.51-1.28-3.59-5.61-7.69-3.49-.7.35-1.89.44-2.09.94-2.36,6.07-7.7,10.64-9.2,17-.72,3-1.48,6-2.35,9-.58,2-1.36,4.19-3.51,4.2s-1.67-2.71-2.47-4.15a6.42,6.42,0,0,1-.25-2.32c-.41-1.94-.82-3.87-1.22-5.81,6.61.34,6.88-6,9.13-9.43,2.71-4.19,4.93-8.83,7.74-13,.59-.88,1.28-1.7.6-2.57-.93-1.2-2.07-.76-3,.19-1.29,1.27-3.1,1.9-4.06.32s1.15-1.94,2.22-2.74c3.23-2.44,2.07-6.4,2.8-9.62,1-4.31,3-5.67,6.48-3.28s6.89.76,8.32-1.54c2.22-3.56,6.15-6.34,6.51-10.78.18-2.22,1.84-1.64,2.73-2.41,2.39-2.09,7.38-1.24,6.78-6.87-.21-2,10.43-3.8,12.26-1.76,2.7,3,6,2.37,9.24,2.34,1.25,0,2.7-1.52,3.54.44.72,1.64-.71,2.58-1.79,3.32-4.86,3.3-9.75,6.56-14.71,9.7-2.3,1.45-4.36,2.85-3.56,6,.88,3.52-4.34,3.34-4,6.58C798.48,535.12,799.89,533,801.36,533.51Z"
            fill="#6d4a36" />
        <path
            d="M903,764.44a6.41,6.41,0,0,1-6.41-3.23c-.92-1.73,1.93-2.54,3.15-3.54,2.45-2,1.2-4.12.77-6.28-1.83-2.92,1.83-3,2.47-4.71-.06-2.46,2.65-3.85,2.5-6.39a1.47,1.47,0,0,1,1.43-1.57c3.09-.12,5.51,3.32,8.93,1.62,4.43-2.22,4.47,2.16,6.19,4-.38.78-.77,1.56-1.15,2.33-2.07.66-2.24-1.89-3.79-2.16-1.17,1.07.76,5.23-3.4,3.39h0c-1.1-.82-2.79-1-2.75.42.17,6.8-5.11,10.82-7.93,16.07Z"
            fill="#554031" />
        <path
            d="M947.39,754.38c-.74,1.69,1.16,4.83-2,4.59-2.46-.18-5.61-1.22-5.29-5,.24-2.89,2.11-5.46,4.46-5.44C948.34,748.52,946.74,752.27,947.39,754.38Z"
            fill="#8b684a" />
        <path
            d="M903,764.41c-.88-4.38,3.29-6.43,4.85-9.68,1.38-2.86,2.85-5.35,1.31-8.54a4.2,4.2,0,0,1,4.52,1.73c-4.15,1.22-1.84,3.7-1.16,5.86,1.24,3.75,1.66,7-4.08,6.6-.78,0-1.28.76-.74,1.66h0Z"
            fill="#73553f" />
        <path
            d="M913.69,747.92c4.78-1-.35-3.79,1.19-5.56,4.2-1.84,4.17,2.59,6,4.33C919.12,750.77,916.74,751.25,913.69,747.92Z"
            fill="#73553f" />
        <path
            d="M907.71,762c-1.54-.34-2.91-2.07-.73-2,5.38.27,5.13-3,5.55-6.3C915.74,759,915.74,759,907.71,762Z"
            fill="#936f54" />
        <path
            d="M774.56,485.49c8.27-1.85,15.85.26,23.45,2.1a2.35,2.35,0,0,1,1.41.82c1.94,3.72-3,11.45-7.43,11.55-.74,0-1.78-.66-2.13.2-2.26,5.66-4.71,1.8-7.57.49-4-1.84-2.76-4.71-1.62-7C783.92,487,779.73,486.16,774.56,485.49Z"
            fill="#6d4a36" />
        <path
            d="M751.37,563.68a1.54,1.54,0,0,1-1.14-2.38c.36-.83,1-2.06,1.64-2.13,1.14-.13,1.5,1.12,1.44,2.12A2.5,2.5,0,0,1,751.37,563.68Z"
            fill="#473123" />
        <path
            d="M836.67,713.18a27.18,27.18,0,0,1-10.17-2.68c-6.91-3.62-14.17-6.6-21.21-10-1-.48-3.28-1.14-2.13-2.83,1.57-2.29,1.85,1,2.9,1,10.1.33,16.61,9.31,26.36,10.6A5.07,5.07,0,0,1,836.67,713.18Z"
            fill="#6d513e" />
        <path
            d="M883.81,759.68a3,3,0,0,1,.59,0c2,.18,3-3,5.24-1.55a2.26,2.26,0,0,1,.88,1.94c-.86,3.05-3.93.57-5.5,2Z"
            fill="#674932" />
        <path
            d="M903,746.68c2.28,3.15-3.67,2.11-2.47,4.71-1.45.35-2.39,2.89-4,1.54-1.43-1.18-.73-3.3-.5-5s3.56-3.75,1.43-5c-4.71-2.86-3.79-10.21-10-11.44-2.13-.42-3.87-1.28-4.34-3.4-.33-1.56,1.12-2.47,2.29-3.13,2.08-1.16,3.52-.09,5.24,1.26s4.2,2.13,6.4,3c6.58,2.58,7.72,4.72,5.39,11.35C901.59,742.79,900.29,744.83,903,746.68Z"
            fill="#8c6b53" />
        <path
            d="M891,808c-3.45-4-2.18-7.39,1.28-10.63.8-.76,1.21-2.39,2.56-1.12,1,1,2.59,2.82.74,3.87-2.57,1.45-4.34,2.08-1.73,5.32,1.16,1.45-1.22,2.34-2.85,2.56Z"
            fill="#674932" />
        <path
            d="M925.72,837.57c-3.72-.58-6.31-3.17-9.26-5.11-1.78-1.17-4.46-2.61-3.1-4.81.78-1.26,4-1.62,6-1.45,4.15.36,8,.46,9.86-.54,1.7,4.87,5.65,8.26,8.91,12.85-5.1-.91-5.43,1.7-4.07,5.42C930,842.72,930.18,837.28,925.72,837.57Z"
            fill="#72533f" />
        <path
            d="M918.51,816.26c-.6-.56-.85-1.91-.36-1.82,6.28,1.25,9-4.4,13.55-6.53v0c1.25,8.41-1.13,11.39-8.3,10.44C922.32,816.43,920.55,816,918.51,816.26Z"
            fill="#6c4f3c" />
        <path
            d="M923.4,818.38c5.94-1,9.3-4,8.3-10.44,2.3,3.18.49,7.26,2.41,10.52.38,1.78,4.8,1.15,2.87,3.85-1.19,1.65-3.38-.15-4.36-1.34-1.65-2-2.2-2.3-4.12,0C927.59,822.07,924.69,820.21,923.4,818.38Z"
            fill="#936f54" />
        <path
            d="M927.15,866.17c-5.69.36-7.94-5.23-12.55-6.81-.24-.08-.41-1.1-.22-1.5.53-1.09,1.53-.69,2.54-.7C923,857.14,923.56,863.27,927.15,866.17Z"
            fill="#624735" />
        <path
            d="M922.14,812.69c-2.28-.07-5.18-1-4.22-2.33,1.53-2.14-.52-6.6,3.68-6.52,1.94,0,5.35.49,5,3.75C926.34,810.15,925.81,813.32,922.14,812.69Z"
            fill="#a48365" />
        <path
            d="M809.68,648.9c-2.73,2.83-11.15,4.09-14.4,2.15-.15-.09-.34-.27-.34-.42-.1-3.41-6,1.07-4.44-2.65,1.07-2.5,5.26-3,8.57-2.39,1.16.22,2.29.63,3.43,1h0c2.07,1.74,5.29.06,7.18,2.35Z"
            fill="#7b5b45" />
        <path d="M725.61,710.78c-8.12,1.48-13.22-5.69-21.08-4.23C709.27,702,715,705,725.61,710.78Z"
            fill="#463425" />
        <path
            d="M773.79,709c-1.91-1.25-3.83.29-5.75,0-1-.15-2-.17-2.34-1.34s.25-2.54.92-2.46c3.34.43,6.21-3.8,10.32-.62-2.1,1-4.91,1.5-3.16,4.44Z"
            fill="#3e3023" />
        <path
            d="M809.68,648.9c-2.62-.13-5.63.93-7.18-2.35C805.19,646.46,809.66,641.07,809.68,648.9Z"
            fill="#583d2a" />
        <path d="M781,747.88c-2.45-.31-4.53-1.11-5.42-4.54,2.55,1.22,4.92,1.64,5.41,4.55Z"
            fill="#4e3d2f" />
    </g>
    <g id="frame">
        <rect width="1000" height="1000" fill="none" />
    </g>
</svg>