<!-- Copyright (c) 2022 Jan Stehno -->
<svg xmlns="http://www.w3.org/2000/svg" viewBox="0 0 1000 1000"><title>goldeneye</title><g id="goldeneye"><path d="M680.89,706c-6.25,2.84-12.82,2.32-19.33,1.56-5.34-.62-6.74-4.78-7.43-9.3-6.61-1.59-13.66.84-20.1-2.22-4.14-1.24-4.63-4.39-4.57-8.12.11-6.41-.57-6.77-6.25-3.71a43.8,43.8,0,0,0-4.4,3.06,54.74,54.74,0,0,1-14.24,0c-1.12.1-2.25.21-3-.86A41.83,41.83,0,0,1,591.31,676c-2.34-4.49-7.48-2.55-10.84-4.71-2.13-1.75-3.34-4.34-5.71-5.91-1.65-1.09-1.75-2.93-1.66-4.92.09-2.24.94-4.69-.71-6.78l.18.14c-3.56-2.06-7.63.22-11.25-1.28-1.18,0-2.49.55-3.32-.83-2.06-2.86-4.09-5.75-7.13-7.7-2-1.26-2.85-2.86-1.75-5.15v-1.6c-8.23-2.37-14-8.36-20.28-13.67-3.5.69-6.27-.78-8.8-3a34,34,0,0,1-8.5-9c-1.18-1.83-2.47-3.66-1.41-6,.06-1.82-1.62-2.6-2.34-4-1.09-1.95-3.28-2.26-5-3.3-7.59-4.72-9.38-13.89-3.81-19.56,3.26-1.4,5.59-4.78,9.63-4.5A23.62,23.62,0,0,0,518,571c11.53-3.43,23-6.46,35.18-7.54,10.2-.9,20.36-1.08,30.55-1.2,1.93,0,3.2,0,3.68-2.71s3.79-2.65,6.06-2.71c11-.3,21.81-2.57,32.81-3.28,9.87-.64,18.88,1.49,28.26,2.5,1.1.12,2.24.76,3.26.58,15.82-2.7,29.84,5,44.68,7.79,8.26,1.58,16.53,3.49,24.59,5.74A275.89,275.89,0,0,0,763.73,578c13.43,1.83,25.48,8,38.51,10,10.25,1.6,18.08,7.29,26.88,11.37,2.29,1.06,5.36.15,7,2.8,5.45,1.84,11.21-.48,16.67,1.23h0c2.89,1.71,5.78-.89,8.66,0,1.59.5,3.75.93,3.48,2.9-.25,1.8-2.34,1.12-3.53,1.13,4.3,1.65,8.13-2.12,12.52-1.58,2.32.86,5.14,1,6,4-3.64,4.18-5.82,9.4-9.57,13.54-.94,1-2.19,2.44-1.1,3.95s2.95,1.26,4.6.76,3.21-1.85,4.94-2.54c.88-.35,1.92-.67,2.62.06,1,1,.21,2.13-.52,2.92-2.57,2.78-5.92,4.44-9.29,6s-5.77,3.52-3,7.58a3.38,3.38,0,0,1,.2,3.23c-3,6.83-3.22,15.07-10.13,19.93a3.59,3.59,0,0,0-1.75,2.74c.2,8.86-5.19,17.72-.07,26.59-.06,1.87-1.2,3.15-2.37,4.42-5,4.51-6.2,10-3.49,16.36.72,1.69,1.81,3.23,2,5.13.35,3.66-1.24,6.89-2.18,10.27-1.6,3.79-.67,7.49.32,11.21.54,2,1.92,4,.92,6.3a2.53,2.53,0,0,1-3,.73c-5.16-3-6.25.86-7.67,4.36a28.42,28.42,0,0,0-1.75,9.11c-.15,2.25-.51,4.53-3.65,4.43a2.78,2.78,0,0,1-1.52-.86c-1.49-2.43-.68-5.35-1.71-7.88-.6-4.16-.81-8.32.6-12.38,1.13-3,2.71-6,2.8-9.34a5.34,5.34,0,0,0-2.9-4.91c-2.33-1.39-3.12.87-4.29,2.12a21.73,21.73,0,0,1-3.61,4.22c-3.18,2.62-6.24,3.3-9-.56-1.58-9.26-1.56-18.34,4-26.49,2.7-3.94,6.33-7.27,7.94-12-7.53,4.21-10.28,3.41-12.64-3.62-1-5.7-1.68-11.41-1-17.19,1.79-4.53,2.82-9.18,2-14.13-1.46.21-2.12,1.51-3.21,2.17-6.75,4.09-14.52,0-15-7.8a4.35,4.35,0,0,1,2.07-4.29c7-4,12.43-9.1,13.53-17.61.11-.84,1.12-1.44,1.2-2.48-1.64-.49-3.27,0-4.88-.09-2.55-.21-5.5.3-6.84-2.61s1.54-4.23,2.72-6.37c-3.81-1.65-9.66-.91-10-6.78-.34-5.09,4.66-6,8.72-8.51-7.33-.32-11.22-7.36-18.25-7.07-5-1.24-10.41-1.51-13.6-6.47-1.24-2.55-3.54-2.37-5.79-2.18a22.46,22.46,0,0,0-9.63,2.6c-8.08,4.66-16.15,3.5-24.07-.07-3.88-1.76-7.86-3.37-11.58-5.5a11,11,0,0,0-5.3-1.54A40.15,40.15,0,0,1,688,576.81c-5.24-5.34-11.09-4.53-15.12,1.8a22,22,0,0,1-7.35,7.35c-4.27,2.59-4.29,4.72-1,8.48,3.61,4.1,8.52,5.19,13.51,5.87,4.6.62,8.34,1.8,8.92,7.28.23,2.17,2,2.83,4,3.25,11.31,2.4,14.68,6.19,15.44,17.08.49,1.75,1.88,3.63-.64,5-6.1.31-3.8,5.3-4.2,8.3-.44,3.37,2.24,4.12,5.29,3.65,2.72-.41,5.37-1.48,8.2-1.11,2,.6,2.09,1.83,1.11,3.37a21.69,21.69,0,0,1-3.85,4.67c-5.9,5.22-11.89,10.35-15,17.89-3.33,3.21-5.78,7.17-9,10.44-1.84,1.27-1,4.89-4.26,4.92-3.53-5.94-4.55-12.9-.93-18.25,4.34-6.41,2.92-12.26.64-17.83-2.14-5.23-3.12-9.42,0-14.57,2.87-4.78,2.22-5.54-3-8-2.85-1.32-3.54-4.12-4.42-6.76-2.26-6.84-5.14-8.17-11.64-5.37-5.31,2.29-5.31,2.29-6.61-3.62-1.22-5.54-4.1-7.72-8.85-6.59-3.57.85-5,3.18-5.22,6.87-.24,4.58-2,5.73-6.11,3.84a9.52,9.52,0,0,0-8-.49c-2,.74-4.18.61-5.57-1.31s-.29-3.85.52-5.74c1.09-2.53,5.69-4,3.48-7.2-1.43-2.12-5.14-1.57-7.86-2.07-7.4-1.36-9.3-3.86-8.26-10.9.21-1.45.94-3-.63-4.07a4.63,4.63,0,0,0-4.79-.14,36.09,36.09,0,0,0-6.42,4.39c-7.06,5.27-15.16,7.77-23.58,9.63-.92.21-1.91.59-2.62-.12-1-1-.3-2.14.3-3,3.7-5.43,6.15-11.87,12.2-15-2.62-6.87-7.27-5.54-12.24-3.57-2.81,1.12-5.9.68-8.84.84-9.61.49-17.9,4.5-26,9.23-2.77,1.63-5.47,3.13-8.89,2-3.08-1-5.14,1.72-8,2.54,3.19-.08,5.23,1.16,4.51,4.47-1.76,8.22,5.59,12.46,8.06,18.81.45,1.16,1.78,1.29,2.92.9,4.64-1.61,7.79,1.08,11,3.69,4.63,3.77,5.18,3.74,9.06-.41,1-1.09,1.9-2.59,3.63-1.82s.82,2.27.6,3.46c-.49,2.76.81,3.75,3.35,3.78,3,0,4.26,1.75,4.25,4.65,0,2.63,1.59,4.92,1.68,7.58.07,2.41-.47,4.79,0,7.31.94-5,3.93-8.69,7.21-12.22,1.54-1.65,3.23-3.63,5.66-2.17,2,1.21,2.08,3.86,1.12,5.55-2.54,4.44-1.47,7.88,1.69,11.45,1.76,2,1.8,4.64,1.3,7.4-.91,5,.36,6.87,5.36,7.74,3.84.67,6.25,3,8.56,5.74,1.68,2,2.95,4.27,4.71,6.22a18.8,18.8,0,0,0,21.37,4.84c3-1.24,4.84.06,7,1.66,4.37,3.17,7.22,8,12.07,10.66,3.24,1.77,5.94,2.82,8.62-.93,1.48-2.07,4.4-2.74,5.71-.46,4.06,7.06,11.27,9.24,17.81,12.55a3.85,3.85,0,0,1,1.54,1.58A3.58,3.58,0,0,1,680.89,706Z" fill="#2e271f"/><path d="M836,766.26c2.32-.25,2.4-2,2.26-3.65-.4-4.56,1.36-8.52,3-12.63s3.11-6.36,7.12-2.32c1,1,2.4.7,3.68.6,1.12-.6,2.57-.7,3.34-1.82,5.57-8.12,12-15.81,13.79-25.93a12.57,12.57,0,0,0-.65-3.79c-.57-2.34-.23-4.82-1-7.13a16.57,16.57,0,0,1-.41-2.32c-.17-2.08-1-1.95-2.41-.83s-2.84,1.88-4.51.67a4.73,4.73,0,0,1-1.61-5.47c.75-2.65,1.83-5.2,2.17-8a7.21,7.21,0,0,1,3.65-4c3.94-2.17,5.51-5.71,6.44-9.87.62-2.74,1.08-4.77-2.28-6.22s-3-3.9-.18-5.83a75.8,75.8,0,0,0,10.46-9.13c1.3-1.27,1.93-1.82.19-3.74-5-5.54-3.09-15.28,3.61-18.87,3.86-2.07,5.62-4.85,5.69-9.28.11-6.89.85-7.56,7.79-9.19a11,11,0,0,0,5.68-3.24c3.66-2.86-1-5.19-.49-7.85a4.77,4.77,0,0,1,2.48-3c2.22-.79,3.07-3.09,4.8-4.41,3.21-2.46,4.62-4.82,0-7.37a4.14,4.14,0,0,1-2.18-4.7c1.54-5.29,1.05-11,3.23-16.1A67,67,0,0,1,921,561c1.93-2.32,1-3.26-1.63-3.36-2.16-.09-4.37-.46-4.53-3.06s2.2-3.58,4.28-4.43c6.88-2.79,7-3.21,2.34-9.08-6.61-8.37-6.15-16.7,1.3-24.35,2.47-2.54,5.08-2.92,7.9-.74,3.56,2.74,7.07,5.57,6.87,10.73-.08,2.1,1.09,3.4,2.67,4.49a2.59,2.59,0,0,1-.16,2.33c-2.94,2-5.6,5.4-9.56,2.2,1.2,1.59,4,1.62,4.65,4.2s-.45,4.67-1.57,6.86c-1.42,2.79-2.2,5.9-4.51,8.24a3,3,0,0,0-.77,3.13c2,4.57-.14,7.32-3.74,9.7-1.22.81-2,2.22-3,3.28-2.65,2.68-3.1,5,.91,6.87a7.82,7.82,0,0,1,4.44,5.44c.73,3,1.67,6.18-3.41,6-1.87-.06-3.16,1.31-3.92,2.78-1.88,3.6-3.4,7.34-6.9,9.89-1.5,1.09-1.05,3-.23,4.64s2,3.07,1.41,4.69c-2.62,7.47-2,15.31-2.78,23-.58,5.33-1,10.67-4.17,15.29,2.41,10.67-5.83,16.92-10.41,24.63a22.35,22.35,0,0,0-2.77,8.72c-1.15,7.87-2.3,15.8-4.86,23.39-1.3,3.89-3.45,6.77-8.26,4.77-2.28-1-2.65.66-2.74,2.18-.14,2.3-1.1,5,1.31,6.63.85.6,1.57-.67,2.09-1.39a11.66,11.66,0,0,1,3.07-3.19c4-2.58,8.54-1,8.65,3.64.24,10.14,2.77,20.28.22,30.42-.59,2.35.29,4.39.9,6.52.55,8.54.57,17-3.37,24.92a4.08,4.08,0,0,1-4.21,0c-1.34-.59-2.45-1.56-3.24,1-1.1,3.55-3.68,5.32-7.61,4.1-2.17-4.18,1.67-8.18.35-12.33a22,22,0,0,0-1-2.67c-2.76-.54-2.9,5.14-6.43,2.71-3.12-2.14-2.72-5.45-2.7-8.54,0-4.28-1.65-8.24-1.92-11.71.71,5-1.5,10.59-.77,16.29a27.61,27.61,0,0,1-.13,3.4c-1.95,5.55-1,12.07-5.57,16.75-1.15,2.81,0,7.49-3.19,8.2-3,.65-4.83-3.47-7-5.74-1.9-2-3.82-4-5.73-6.06C835.33,782.25,832.87,773.48,836,766.26Z" fill="#26211c"/><path d="M875.88,786.19c2.66-1.5,6.58-1.09,6.31-6.34-.16-3.17,2.54-1.71,4.07-.23.85,2.58-.37,4.87-1.51,6.87-3.55,6.25-2.75,12.53-.65,18.85a43,43,0,0,1,2.56,12.48c.15,5.66,4.41,9.3,7.29,13.46,2.64,3.83,3.63,6.52.46,10.75a24.69,24.69,0,0,0-4.65,19c.77,5,.67,10,1.21,15,.57,5.35-.23,10.52-4,14.61-3.56,3.89-1.21,7.67-.36,11.51.35,1.55,1.51,1.31,2.64.82,1.86-.81,3.94-1.18,5.49-2.63,2.48-2.31,5.16-3.14,7.9-.63,2.94,2.69,6.89,5.05,5.25,10.08a21.73,21.73,0,0,0-1.12,9.31c.35,3,1.28,4.53,4.67,2.48,3.93-2.37,5.95-1.34,7.07,3a26.33,26.33,0,0,1,.42,5.54c.1,2.64.14,5,4.1,3.3,2.62-1.14,2.82,1,2.2,2.75-1.66,4.73-3.26,9.55-8.26,12-2.37,1.18-4.44,2.75-5.39,5.37-.46,1.26-.78,2.56.29,3.66s2.38.68,3.59.1c4.19-2,7.7-4.53,8.31-9.62a17.51,17.51,0,0,1,.91-3.78c.71-1.95,1.44-4.14,3.91-4.14,2.24,0,3.19,2.07,3.39,3.85.58,5,3.56,2.17,5.74,2,1.85,2.23.94,5,1.42,7.44.4,2.07.24,4.45,2.54,5.71a1.38,1.38,0,0,1,.88,1.11c.08,1.9-.08,3.8.06,5.56.53-2.11-1.42-5.09,1.31-6.47,1.91-1,1.95,1.42,2.41,2.67,0,3-.47,5.9.86,8.76a5.72,5.72,0,0,1-.38,5.34c-2.64,4.74-2.8,10-2.43,15.16.09,1.21-1,3.45,2.24,3.28,1.72-.1.84,2.34,1.1,3.63a1.85,1.85,0,0,1-1.47,2.08c-1.67.49-2-1.15-2.9-2-4.22-4.39-1.91-9.9-2.59-14.89-.56-.53-.81-.21-1,.35a13.2,13.2,0,0,1-.48,1.49c-1.2-.29-1.15-1.46-1.43-2.33-.82-2.51.44-5.62-2.43-7.92-2.66,3.28-2.12,7.39-3.22,10.95-1.31,4.22-2,8.66-5.4,12-2.76,2.63-5.09,2.58-5.91-1.33-1.92-9.13-6.53-17.33-8.73-26.34-.38-1.57-.44-3.71-2.37-3.88-1.67-.15-1.75,2.1-2.67,3.18-1.43,1.7-2.57,3.71-4.21,5.16-3.56,3.13-6.79,2.27-8.57-2.15-1.31-3.26-2.93-6.52-3.49-9.93-.7-4.27-1.57-7.64-6.86-7.49-1.57,0-2.07-1.24-2.3-2.66-2-12.4-4.64-24.71-5.62-37.26-.89-1.19-1.71-2.71-3-3.18-6.25-2.24-6.7-7.23-6.38-12.66.61-10.13-2.29-20.19-.22-30.4.84-4.14,2.88-8,2.91-12.28.05-1,.11-2,.17-3,2-3.39,4-6.72,6.28-9.91,5.58-4,3.72-9.93,3.92-15.23.09-2.35-.66-4.76-.25-7.18a7.94,7.94,0,0,1,.5-1.59c3.27-6.69-.42-12.51-2.69-18.28a56.67,56.67,0,0,1-3.41-10.34C874,788.92,873.56,787,875.88,786.19Z" fill="#1f1814"/><path d="M873.84,606.92c-5.67,2.35-11.29,3.1-17.25-.42,2.72-1.32,5.07,1.22,7.26-.33-3-3.58-7.89.29-11.1-2.7,3.39.69,4.49-1.16,5.73-4.06,2.61-6.09,1.93-12.92,4.45-18.8,3.51-8.19,7.17-16.29,12.32-23.8,5.78-8.44,9.3-18.43,15.19-26.77a174.82,174.82,0,0,0,19.4-35.88c1.47-1.58,3.58-1.76,5.44-2.47,1.56-.59,3.56-1.11,3.84-2.81,1.32-8,7.74-6.55,13-7.28,2.31,3.9,1.41,7.43-1.33,10.68A49.57,49.57,0,0,0,921.48,509a9.36,9.36,0,0,1-6.09,6.08c-3.19,1-4.19,3.13-4.66,6.12-.53,3.45-1,7-3.08,10a9.25,9.25,0,0,1-1.63,1.85c-5.63,3.94-5.84,10.68-8.25,16.27-.56,1.29-.1,3.18-1.17,4.18-2.68,2.51-4.22,4.66-2.07,8.68,1.34,2.53-3.62,10.18-6.82,11-3.37.85-4.12,2.82-3.71,5.66.85,6-2.77,11.8-.82,17.85.1.32,0,.92-.27,1C878.81,599.75,878,604.94,873.84,606.92Z" fill="#98897b"/><path d="M780.38,759.88a26.27,26.27,0,0,1-9.47,15.21c-4.93,3.89-7.55,3.29-10.66-2-1.12-1.91-2.3-3.78-3.56-5.6-1.47-2.11-2.61-4.31-5.75-1.33-2.27,2.15-4-.23-5-2.3q-3.27-6.39-6.38-12.85c-.75-1.56-1.64-3.25-3.45-3.14-1.54.1-2.21,1.81-2.66,3.25-.54,1.76-.9,3.6-2.7,4.63-2,1.17-3.91,1-4.06-1.54-.32-5.4-2.53-10.31-3.52-15.52.55-6.31,2.79-12.2,5.12-17.94,1.74-4.3,5.63-4,7.84.19,2.07,3.94,1.66,8.28,1.72,12.52,1,2.76-.13,5.42-.64,8.81,2.67-1.53,3.54-3.7,4.4-5.79a12.55,12.55,0,0,1,4.63-6c2.1-1.4,4.2-2.38,6.65-.89,2.14,1.31,3.16,3.14,2.18,5.59-.6,1.53,1.58,1,1.36,2.17a4.55,4.55,0,0,1,.05,1.56c-.43,2.48-3.62,5.28-1.58,7.11,2.39,2.15,4.76-1.52,7.22-2.41,1.38-.49,2.37-1.78,3.64-2.54a4.89,4.89,0,0,1,4.22-.82c4.56,1.51,11.92,12.48,11.49,17.13A4.82,4.82,0,0,1,780.38,759.88Z" fill="#49423a"/><path d="M780.38,759.88c2.12-9.1-6.46-12.38-10.11-18.32-1-1.68-3.16-.42-3.87.54-2.26,3-6.06,3.45-8.73,5.71-1,.88-2.46,2.05-4,1s-1.37-2.83-.9-4.53a17.12,17.12,0,0,1,2.94-5.92c2.22-3.69,5.58-6.36,8.54-9.38,3.3-3.35,7.47-5.38,12-3.38a14.25,14.25,0,0,1,8.56,10.69c.75,4.11,1.54,8.37,0,12.65,2.12-1.86,2.89-4.49,4.33-6.68,3.6-5.44,6.46-5.45,11.71-1.57,1.3,1,2.8,1.13,2.9,3.08a19.27,19.27,0,0,1-1,4.79,10.86,10.86,0,0,0-.58,2.69c0,1.81-.36,4.26,1.44,5s3.29-1.33,4.53-2.61c3.06-3.16,6-5,10.65-2.43,4.1,2.24,4.1,5.7,4.32,10.49,1.9-4,3-7.76,7.39-7.94,3.39-.13,2,3.27,3.39,4.64,1.88,2.39.72,5.21,1.13,7.81.73,3.33,1.92,6.91-4,5.31-2.42-.65-4.08,1-5.71,2.56-1.46,1.39-2.08,3.45-3.8,4.62-1.18-2.29-2.84-3.36-5.41-2.16-1.12-6.4-3.17-8.65-7.22-7.83a17.69,17.69,0,0,0-4,1.85,34.85,34.85,0,0,1-5.09,2.16c-3.5,1-5-.17-4.2-3.81.63-2.76.31-5.49.6-8.22.16-1.53.19-3.1-1.76-3.49-1.7-.33-2.78.71-3.55,2.07-.93,1.64-1.1,3.5-1.57,5.28-.73,2.68-1.49,5.39-4.63,6.33a12.59,12.59,0,0,1-2.21-7.7C782.39,761.64,782.38,760.16,780.38,759.88Z" fill="#625a51"/><path d="M913.05,410.51c-3.12-8.91-4.31-18.33-5.63-27.52a43.07,43.07,0,0,1,6.39-29.15,38.79,38.79,0,0,0,5.46-14.39c1.05-6.46,3.17-12,8.56-16,1.29-1,1.57-2.4,1.83-3.88.73-4,1.61-8,2.27-12a9,9,0,0,1,5.88-6.88c2.6-1.08,5.89-1.63,6.44,3.14.34,2.88,1.52,5.66,2.31,8.49,1,2.67,4.47,4.26,3.36,7.82l-2.34,5.47c-2.25.17-1.87-1.57-2.13-2.84-.28,2,.58,4.08-.53,6-.29.46-.61.89-.92,1.33a26.08,26.08,0,0,0,0,11c1.73,8.21-.18,16.13-1.18,24.14-4.19.83-5.73-3.07-8.06-5-3.14-2.65-6.68-4.65-9.87-7.16-1.51-1.19-3.6-1.72-4.06.44-2.36,11.09-11.1,20.3-9.56,32.54.73,5.89,1.9,11.7,2.75,17.56C914.32,406,915,408.46,913.05,410.51Z" fill="#38352a"/><path d="M913.05,410.51c.43-6.74-1.77-13.14-2.76-19.67-.74-4.84-.34-9.62-.55-14.42a3.23,3.23,0,0,1,.41-2.13c5.36-5.91,6.13-13.7,8.67-20.77,1.31-3.64,2.33-5.5,6.87-1.89s8.7,7.66,14,10.22c1.17.56,1.6,2.66,2.38,4,1.77-2-.69-6.15,3.5-6.94.76,6.34,4.35,11.79,5.6,18,1.39,1.3,1.82,3.25,3.16,4.58.43,1.48.86,2.95,1.28,4.43,1.49,1.94,1.35,4.12,1,6.33-1,4.11-1.45,8.18.5,12.19a5.54,5.54,0,0,1,.3,4.23c-1.42,2.49-3.38,2.91-5.82,1.53-1.05-5.79-.09-11.69-1-17.5-.94-6.33-.89-13-6.06-17.78a5.05,5.05,0,0,0-.84.75c-1.56,1.63-1.18,5.43-4.35,5s-4-3.63-4.84-6.24a35.69,35.69,0,0,0-6.26-11.69c-1.31-1.65-3.07-2.91-5.33-2a4.91,4.91,0,0,0-3.37,5.24c.48,5.13-.83,9.95-2.31,14.72-1.72,5.52-1.06,11.08-.21,16.53,1,6.65,6.87,9.23,12.81,6,3.56-1.91,6.88-4.32,11.35-4.92-1.65-2.16-5.4-2.57-3.74-5.78,1.2-2.31,4.07-3.06,6.22-3,2.44.06,2.25,2.88,2.4,4.89-.72,4.29.36,8.68-.77,12.92-1.84,3.09-3.43,2.81-4.68-.42-.31-.79-.13-2.32-1.16-.31-2.54,2.54-6.62,1.92-9.11,4.61-2.12,2.28-4.15,4.56-4.88,7.69a6.65,6.65,0,0,1-1,2.25,3.66,3.66,0,0,1-.78.79c-6.11,3.85-7.88,3.09-8.93-3.86-.16-1.07.25-2.23-.56-3.19C913.81,413.47,913.43,412,913.05,410.51Z" fill="#231e1a"/><path d="M869.41,856.26c.81,3.93-.48,7.81-1.21,11.47-2.41,12,1.33,23.9.22,35.84-.3,3.16.45,5.41,4.37,5.49s3.42,3.1,3.33,5.72c-5.15.48-6.81,4.21-7.72,9-3.22-1.75-3.48-4.93-4.79-7.31-4.21-7.69-9-10.05-18.13-8.71a33.32,33.32,0,0,1-3.88.13c-3.77.78-2.1-1.3-1.64-3,2.63-9.69,8.94-16.95,15.89-23.69a24.17,24.17,0,0,0,7-12.36C865.26,864.79,868.43,861.09,869.41,856.26Z" fill="#391e0e"/><path d="M684.3,684.9c1.89-1.45.32-4.83,3.2-5.74,3.82,3.48,7.55,2.79,11.4-.08a21.1,21.1,0,0,1,8.21-3.31c2.67-.59,4.61.85,3.32,3.16-1.69,3-.84,5.63-.53,8.55.58,5.4-2.47,9.93-4.11,15.2,2.46-3.45,4.86-6.35,8.25-8.59,4.44-2.93,8.12-3.16,11.87.72a3.91,3.91,0,0,1,.59,2.26c-1.38,4.74,0,10-2.92,14.5-.67,1-.78,2.47-2.42,2.53a12.16,12.16,0,0,1-4.29-4.29c-2.39-4-3.68-1.4-4.93.78-.85,1.47-.61,3.28-1.14,4.86-1.08,3.16-2.59,5.87-6.65,5.38-2.35-1.78,1.47-7.31-4.27-7-.52-4.65-.5-9.32-3.4-13.52-1.53-2.21-2.74-3.06-5.28-2.23-1.9.63-4,.75-5.86,1.44-2.1.77-4,.66-5.16-1.6C680.24,693.14,679.75,688.22,684.3,684.9Z" fill="#5e554c"/><path d="M736.65,733.94c-.25-3.47-.16-7-.89-10.4-.4-1.89-1-4.88-3.75-4.74-2.24.12-2.93,2.45-3.42,4.48-1.29,5.32-2.75,10.58-5.44,15.4l-3.3-12.16c-1.37-3-.93-5.82.57-8.61a32.35,32.35,0,0,0,5.67-8.71A17.38,17.38,0,0,1,734,701c5.27-3,7.44-2.17,9.34,3.48a15,15,0,0,1,1,3.12,6.68,6.68,0,0,1-.1,1.61c-.32,8.29-.32,8.29-2,11.2,3.5-3.38,6.56-7.51,11.27-9.74,5.27-2.48,7.16-1.4,7.94,4.49a8.4,8.4,0,0,1-1.88,5.34,3.17,3.17,0,0,1-1.45.67c-6.53-.72-10.53,3.55-14.59,7.54C741.45,730.78,740.51,734.25,736.65,733.94Z" fill="#645b52"/><path d="M784.61,770.86c3.06-3.08,3.25-7.29,4.35-11.13.93-3.26,2.62-5.35,6.37-4.24,1.71.51,3.38,1.75,2.53,3.6-1.59,3.45,1.45,7.36-1.38,10.6a2.2,2.2,0,0,0,.14,2c.68,1.1,1.5.36,2.34,0,2.31-1.12,5.2-1.61,6.91-3.31,3.82-3.79,7.17-.78,9.91.71s1,4.91.25,7.5c-1,1.53-1.76,3.31-3,4.55-2.11,2-2.76,5.93-5.73,6.4-2.76.44-4.49-2.7-6.64-4.35-2.63-2-4.48-.43-5.69,2-1.69,3.35-3,2.48-4.19-.26C788.67,780.18,786.65,775.52,784.61,770.86Z" fill="#49423a"/><path d="M914.11,471.85c1.84-6.13,1.34-12.44,1.07-18.67-.35-8.32.77-16.54,1.17-24.81a11.81,11.81,0,0,0,7.73-6.07c1.19-.87,2.56-1.61,3.19-3,2-4.52,5.41-5,9.58-3.27,1.35,2,1,4.22,1,6.41-.09,3.4-3.74,6.56-.69,10.17-3.76,3.55-4,10.09-7,12.49a21.29,21.29,0,0,0-7.35,10.69,3.6,3.6,0,0,1-1.88,1.94c-2.18.07-3.28,1-3.1,3.37a29.45,29.45,0,0,1-.12,6.5C917.4,469.68,917.25,472.07,914.11,471.85Z" fill="#9e9284"/><path d="M932,481.89c-2.91.79-5.44,3-8.79,2.29-.92-.19-2.17.32-2.07,1.31.92,9.1-6.44,7.25-11.33,8.67q1.59-6.17,3.19-12.33c1.23.77.88,2.35,1.8,3.47a3.11,3.11,0,0,0,1.23-3.75c-.95-3.48.5-5.57,3.39-7.28,1.93-1.14,3.92-2.54,1.46-5.16-4.47-4.76-4.44-4.79-.12-11,3.31-.84,5.4.56,6.27,3.7,1.75,6.25,2.3,6.7,9,6.34,1.09-.06,2.22-.38,3.12.58,1.5,2.84.78,6,1.26,9-.53,2.88-2,4.39-5,3.05C933.9,480.08,933.05,481.15,932,481.89Z" fill="#9e9284"/><path d="M681.06,698.15c4.1,1.44,7.44-1.74,11.31-1.86,1.32,0,2.93-1.69,3.79.31,2.36,5.46,7.55,10.38,3.72,17.2-9.16,8.63-9,8.55-15.47-2-1.18-1.93-.92-4.8-3.52-5.86,0-1.48,0-3-.07-4.42C680,700.34,679.91,699.2,681.06,698.15Z" fill="#4a4239"/><path d="M721.13,718.23q-.63,4.15-1.28,8.29c-3.84,1.34-5,5.06-6.84,8.06a8,8,0,0,1-7.2,4.31c-.27-6.13.11-12.21-1.66-18.06,3.82-1.44,6-4.09,5.74-8.27-.17-2.85,1.78-4.3,3.43-6,1.13-1.19,2.65-1.42,3.13.08.93,2.9,4.3,4.09,4.65,7.24C722.47,715.3,722,716.77,721.13,718.23Z" fill="#50483f"/><path d="M876.24,844.29c-1.67,3.39-3,7-6.66,8.94q0-21.75,0-43.49c.55-1.17,1.78-1.86,2.42-.72,1.87,3.35,5.86,4.09,8,7a4,4,0,0,1,.65,3.78l0,1.13c-1.36,4.61-.8,9.42-1.44,14.12A22.32,22.32,0,0,1,876.24,844.29Z" fill="#4f2c16"/><path d="M987.34,613.31c.1,5.18-1.9,10.39,1.56,15.51,1.05,1.56-.43,5-1,7.46-1,4.53-3.17,9.89-1.17,13.49a17.24,17.24,0,0,1,2.51,8.81c-.69,1.36-.3,3.86-2.7,3.51-1.81-.26-1.28-2.3-1.71-3.64-.31-.94-.42.57-.91.52-1.16.25-2.09-.48-2-1.33.54-3.95-1.82-2.28-3.52-1.95-3.1-4.41-3.06-9.33-2.39-14.36.45-3.4,1.49-6.8.09-10.23-.9-.94-1.17-2.35-.44-3.06,2.8-2.73,1.49-6.34,2.38-9.44a1.43,1.43,0,0,1,1.63.23c2.36,8.7,3.08,17.46,1.46,24.54a56.92,56.92,0,0,0,.32-19.67c-.8-5.33-.83-10.8,3.34-15.19C988.17,608.79,987.85,611,987.34,613.31Z" fill="#1e1a16"/><path d="M821.44,778.68c1.58-7.46,6.38-10.34,12.91-7.72,1.06-1.48.3-3.2.63-4.77.33,0,.67.06,1,.07-.34,7.31.57,14.27,5.62,20.07-2.8-.17-3,1.61-3.44,3.85-.6,3.37-2.13,4.86-5.69,2.21C827.56,788.72,823,785,821.44,778.68Z" fill="#4a433b"/><path d="M875.88,786.19c-1.24,1.32-.63,3-.85,4.49-.25,2.57.14,5.25-1.29,7.61-2.06,3.44-4.43,3.44-7.2.76-.89-.86-1.35-2.3-2.88-2.42-2.21-2.08-1.33-7-6.17-6.7q2.18-8.45,4.33-16.9c3.69,2.46,4.84,6.79,7.59,10.22,2.12-1.64,2.94-4,3.92-6.34.72-1.71.89-4.14,3.77-3.8C879.61,777.74,875.3,781.74,875.88,786.19Z" fill="#847b70"/><path d="M960.11,892.68c1.41,3.06,4.17,5.68,3.13,9.55-1.36,9.19-.75,18.41.06,27.58a178.73,178.73,0,0,1,.11,20.44c-2,3.42-2.83,7.2-3.55,11-1.79,2.65,1.07,7-3.15,8.73l-1.4-13c3-8.25,3-16.9,2.66-25.43-.13-3.83-.51-7.73-.81-11.6-.69-2.61-.89-5.32-1.67-7.92C955.76,905.26,956.11,898.54,960.11,892.68Z" fill="#11100e"/><path d="M990.48,670.56c5.23-9.36,5-20.13,7.82-30.12a1.2,1.2,0,0,1,1.7.43c-.27,9.13.59,18.12-2.41,27.29-3.14,9.57-3.22,20-3.16,30.17.16,3,1.33,5.8,1,8.82-.21,1.78.13,4.33-2.08,4.57-2,.22-2.82-2.14-3.46-3.87-1.4-3.76-.63-7.72-.89-11.59-.69-7,1.24-14.08.15-21.16A4.88,4.88,0,0,1,990.48,670.56Z" fill="#0d0c0a"/><path d="M958.77,379.3c3,.08,2.13-2.14,2-3.65-.15-2.14-.62-4.25-.95-6.37.2-1.18.78-2.25,1-3.43.12-.76.26-1.52.43-2.27,1.41-3.59.82-7.72,3-11.09.08-.59.17-1.19.26-1.79.84-1.53,1.94-1.06,2.32.1.47,1.41,1.31,2.62,1.79,4L967.56,360c-4.56,5.3-2.76,11.48-2,17.4-1.85.34-1.51-1.78-3.11-1.72-.29,2.06-.44,4.12.68,6.1,3.46,7.27,0,13.05-4,18.72-1.1.44-1.81-.16-2.48-.9-2.4-4.74.39-9.15.87-13.71.58-1.59-.33-3-.63-4.43C957.48,380.76,956.6,378.69,958.77,379.3Z" fill="#231e1a"/><path d="M966.68,472a2.21,2.21,0,0,1,1,0c.23,4.44,2.35,8.71,1.18,13.27-3.39,6.81-6.11,13.63-4.33,21.6.87,3.9-1.63,7.39-3.33,10.83-2.48-.7-3.39-2.32-2.78-4.81.65-1.34,1.32-2.77.75-4.24-2.58-6.67.1-12.74,2.28-18.75S963.12,477.39,966.68,472Z" fill="#73675b"/><path d="M862.84,868.87c1,4.37-.67,7.78-3.64,10.88-3.66,3.82-6.91,8.06-10.79,11.64-4.71,4.36-4.37,11.11-8.2,15.79l1.39.7c-1.49,1-3.29,2.73-4.81,1.15s.85-3.15,1.42-4.75C843.23,890.25,854.08,880.29,862.84,868.87Z" fill="#5e3416"/><path d="M920.88,458.44c-.06.73.16,1.71-.22,2.16-2.94,3.41-3.12,5.45,1.67,7.83,4.19,2.08,1.36,5.07-1.3,6.55-3,1.65-5.62,2.81-3.21,6.92.49.83-.21,2.48-.61,3.66a3,3,0,0,1-3,2.1c-2-.17-1-2-1.15-3.07a16.92,16.92,0,0,1-.06-2.76c1.19-3.23.57-6.67,1.08-10,4.45-3.24,2-7.92,2.12-11.87.1-4.46,1.4-4.69,4.63-2.63.28.24.38.48.29.72S921,458.44,920.88,458.44Z" fill="#98897b"/><path d="M962,366.63a3,3,0,0,1-2.11,2.65c-5.79-12.82-2.25-26.13-3.13-39.32,2.87,0,3,2,4.16,2.74l.27,8.67c.57,5.12.71,10.27,1.21,15.38C961.8,360,960.19,363.25,962,366.63Z" fill="#38352a"/><path d="M981,552.45,979,557.07c-1.13-8.22-1.78-15.41-3.19-22.46-1.47-7.39,4.38-13.7,1.76-21.76,3.55,1.79,2.51,4.21,2.64,6.11.43,6-.79,12.16.84,18.16Q981,544.79,981,552.45Z" fill="#1e1a16"/><path d="M953.47,957c-.8,4.93-3,9.65.47,14.8,1.07,1.6,1.77,5.16-1.31,8.29-2.34,2.38-1.76,7.61-2.61,12.3-3.49-4.26-2.81-8.08-.73-11.48,1.15-1.89,1.82-3.58,1.43-5.62-1.27-6.71-1.67-13.36.33-20.06.55-1.85,0-4-.08-6.06-2.42-4.15-1.81-8.46-.68-12.79,3,.3,3,.35,3.31,4,.3,4.11-.54,8.41,2,12.16C956.54,954.81,954.4,955.6,953.47,957Z" fill="#1f1814"/><path d="M863.66,796.63c2.42-1.87,3,.87,3.87,1.84,1.93,2.23,3.46,2,5.19,0,2.87,1.77,4.61,4.26,4.62,7.69,0,2.3,1.58,3.6,2.75,5.24s2.91,3.74-.45,5.18l-10-6.83C868.05,805.18,864.54,801.51,863.66,796.63Z" fill="#57463e"/><path d="M965.53,948.07c1.82-1.88.69-4.49,1.85-7.42,1.54,5.06,4.73,9,2.64,14.07-2.8,4.13-4.37,8.82-6,13.82-2.9-2.28-2.07-5.19-1.44-7.63C963.62,956.65,965.57,952.6,965.53,948.07Z" fill="#11100e"/><path d="M499,578.78c-3.9,8.21-1.85,15.13,5.92,19.79,1.27.76,2.74,1.26,2.86,3.07a47.7,47.7,0,0,1-14.18-10.09c-4.84-5.16-5-6.54.61-10.57C495.65,579.93,496.9,578.42,499,578.78Z" fill="#3c3327"/><path d="M986.22,562l2.33,0c-2.52,7.45-.56,14.9-.12,22.37.12,1.92.68,4-.78,5.82-1.51-2.8-.46-5.68-.71-7.77-1,3.89,1.67,9.58-3.13,13.37C988.3,584.85,979.23,572.87,986.22,562Z" fill="#1e1a16"/><path d="M970.42,927.06l8.34,15.86a2.74,2.74,0,0,1-2.28,1.72c-1.44-.17-3,.11-4.18-1.13-.6-7.25-5.75-13.17-6-20.54,0-1.27-.24-2.54-.37-3.81.74-.3,1.5-2.3,2.2-.06C969,921.73,969.67,924.4,970.42,927.06Z" fill="#11100e"/><path d="M959.52,969.69l2.89,2.43c2.21,7.08.3,13.63-3.1,20.24C957.76,984.71,956.49,977.23,959.52,969.69Z" fill="#1f1814"/><path d="M943.21,329.1l1.23,0c2.61.3,2.37,2.41,2.61,4.16.27,2-.42,4.07.47,6,.27,5.06,1.08,10.11.24,15.2-.3,1.77-.08,3.72-2.17,4.62-2.61-2.14-1.47-5.22-1.5-7.74C944,343.91,942,336.56,943.21,329.1Z" fill="#38352a"/><path d="M955.26,326.85c-3.6,7.38-1,15.06-1,22.61,0,2.11,0,3.65-2.33,4.22h-.71c.13-9-1.68-18,1.14-26.84.3-.95-.48-2.62,1-2.72S955.42,325.34,955.26,326.85Z" fill="#38352a"/><path d="M528.83,623.62c3.65-.21,4.82,3.48,7.56,4.9,4.54,2.34,8.51,5.78,12.72,8.77-3.59-2.2-7.78-.56-11.68-2s-6.6-3-6.27-7.47C531.31,625.78,529.62,625,528.83,623.62Z" fill="#3c3327"/><path d="M947.52,957.79c-2.29-3-1.3-6.6-1.62-9.95-.55-5.83-1-11.66-1.48-17.49,0-.14.19-.42.29-.42a4,4,0,0,1,.8.22c3.29,2.27,4.93,5.34,4.34,9.36-.46,3.12,1.13,6.29-.35,9.36Z" fill="#11100e"/><path d="M510.12,605.59c.77,4.55,4.34,7.33,6.86,10.78,1,1.42,2.91,2.23,3,4.29-3.89-.26-6.81-2.72-9.59-4.9C506.68,612.84,507.55,609.08,510.12,605.59Z" fill="#3c3327"/><path d="M924.32,422.88c-.68,4.26-4.8,7.09-8,5.49-.61-4.49-3.06-8.68-2.15-13.42a5.58,5.58,0,0,1,.89,1.34c2.14,7.66,2.14,7.66,9.07,4.19A1.81,1.81,0,0,1,924.32,422.88Z" fill="#665b50"/><path d="M549.12,638.89c-.09,2.11,1.06,3,2.86,4.1,3.14,1.92,6,4.5,6,8.75-3.52-1.7-7.11-3.33-8.9-7.13C548.23,642.74,547.49,640.79,549.12,638.89Z" fill="#3c3327"/><path d="M572.39,653.71c.16.08.46.18.45.26-.49,7.12,4.63,11.77,7.63,17.35-6.52-3.06-8.56-6.4-7.54-12.72A13.33,13.33,0,0,0,572.39,653.71Z" fill="#3c3327"/><path d="M956,372.91l-1.93,2.19a18.94,18.94,0,0,0-3.46-11.2c-.25-1.82-.53-3.64,1.8-4.82C954.91,363.36,953.89,368.57,956,372.91Z" fill="#231e18"/><path d="M961.74,413.32c.84-2.81,1.69-5.61,2.5-8.42.34-1.19.52-3.07,1.91-2.77,2,.42,1.29,2.23.81,3.66-.23.69-.38,1.4-.57,2.1-1.16,2.57-2.33,5.13-3.49,7.69C960.85,415.68,961.3,414.49,961.74,413.32Z" fill="#968b7e"/><path d="M591.31,676a60.6,60.6,0,0,1,10.22,10.34C596,685,593.5,680.68,591.31,676Z" fill="#3c3327"/><path d="M634,696c6.56,2,13.52.38,20.1,2.22C647.36,698.12,640.36,700,634,696Z" fill="#877f74"/><path d="M971.33,370.33c-.09.9-.19,1.79-.29,2.68-2.16-3.1-5.86-6.2,0-9.19Q971.16,367.08,971.33,370.33Z" fill="#231e1a"/><path d="M852.75,603.47c-5.55-.53-11.29,1.53-16.67-1.23C841.6,603.13,847.33,601.13,852.75,603.47Z" fill="#98897b"/><path d="M604.57,687.23h14.24A20.24,20.24,0,0,1,604.57,687.23Z" fill="#3c3327"/><path d="M518,571c-2.34,3.31-5.77,3.49-9.34,3.24A27,27,0,0,1,518,571Z" fill="#3c3327"/><path d="M561.32,652.57c3.75.37,7.78-1.6,11.25,1.28C568.9,652.75,565,654.06,561.32,652.57Z" fill="#3c3327"/><path d="M681.06,698.15l-.24,3.38c-6.71-3-14.8-3.73-18.38-11.92-1.51-3.46-4.25-2.65-5.76.34-2,3.88-3.87,3.24-7.41,1.64-6.23-2.81-9.6-8.55-14.68-12.45-2.19-1.69-3.86-2.9-6.14-.46-.9,1-2,1.91-3.39,1.63-7.63-1.5-16.21-.83-20.59-9.61-1.29-2.59-3.62-4.66-5.5-6.94a6.79,6.79,0,0,0-5.36-2.4c-5.44-.26-8.19-4.63-6.13-9.77,1.48-3.7-.61-6.44-2.75-8.31-3.09-2.71-3.5-5-1-8a5.25,5.25,0,0,0,1.16-4.16c-.09-.87-.19-2.08-.75-2.49-1-.75-2.37,0-2.92.86-2.69,4-7.43,6.86-7.48,12.49,0,1.73-.38,3.81-2.67,3.23-2.07-.52-1.83-2.45-1.12-4.17,2.28-5.53-2-10.58-1.27-16,0-.32-1.17-1.23-1.63-1.12-8.26,1.93-7-2.83-5.11-7.84-1.86.11-2.15,1.18-2.67,2.18-2.49,4.73-5.73,5.28-9.62,1.78-3.68-3.32-7-7.53-12.94-3.85-1.68,1-2.8-.5-3-2.14-.32-2.51-1.11-4.91-3.15-6.3-4.45-3-5.13-7.5-4.65-12.09.37-3.65-.44-5.08-4.19-4.56-1.23.18-2.65,0-3.18-2.19,3.47.39,6.17-1.18,8.69-3.14.44-.34,1.16-1,1.37-.83,7.64,4.64,12.55-2.3,17.74-5.06,6.72-3.58,13.67-4.77,20.71-5.22,6.45-.42,12.26-3.07,19-3.61-2.39,2.73-2.25,4.23,1.59,5,2.32.47,3.48,3.48.54,4.19-6.52,1.55-7.47,7.61-10.86,11.65-1.06,1.26-1.89,2.71-3.51,5.06,4.82-2.57,8.7-5.34,13.53-3.18.49.22,1.75-.57,2.26-1.21,4.07-5.14,11.11-5.86,15.54-10.63,2.14-2.31,5.79-1.64,8.37-.18,2.79,1.58.44,4-.13,5.92-1.36,4.5-.07,7.29,4.57,8.27,3.42.73,6.86,1.42,10.32,1.88,3.73.5,3.84,2.45,2.1,5-1.27,1.81-3.08,3.23-4.41,5-1,1.32-1.93,3.17-.93,4.6a3.59,3.59,0,0,0,5.06.57c3-2.37,5.45-1.41,8,.58,1.25,1,2.71,1.51,4.08.48s.59-2.31.42-3.61c-.65-4.94,2.55-7.38,6.61-7.85,3.8-.43,8.38-.81,9.58,4.92.49,2.35,1.17,4.64.9,7.15,2.36.2,3.61-1.39,5.19-2.11,6.27-2.85,10.86-.78,12.63,5.76,1,3.81,1,8.55,7.44,7.08,1.69-.39,3,1.17,2.3,3.4-.89,3-1.3,6.33-3.4,8.72a5.42,5.42,0,0,0-.44,7.13c2.45,3.68,3,7.66,3.63,11.86.56,3.8.6,6.49-2.25,10-4.49,5.46-1.51,12.24-.45,18.47C682.26,689.08,681.56,693.59,681.06,698.15Z" fill="#231e18"/><path d="M705.2,628.16l-1.05-.36c3-5.39-2.13-8.4-3.92-12.23-1.61-3.44-5.67-3.1-8.87-3.08-4.15,0-6.38-1.28-6.24-5.7.11-3.49-1.6-4.4-5.14-4.7-6.83-.57-13.6-1.85-18.14-8.14-2.66-3.68-2.41-6.56,1.56-8.6a19.44,19.44,0,0,0,8.67-8.45c3.63-6.6,10.59-6.55,16.43-1.16,8.14,7.52,17.52,12.21,29,12.37,5.23.07,9.64,3.53,14.19,5.78,8.4,4.15,16.53,6.09,25.25,1.19,4.31-2.43,9.12-2.81,14-3.09,3.23-.19,3.24,1.35,2.7,3.62.89,6.7,3.48,8.52,9.74,6.65,1.18-.36,2.55-.13,3.56-1,3.6,0,6.59.84,9.37,3.71s7.33,3,11.5,4.49c-3.14,1.79-5.91,3.23-8.53,4.91a4.35,4.35,0,0,0-2.13,4.76c.41,2,2.15,2.64,3.7,2.91,2.85.49,5.59,2.21,8.88,1.16l-3.09,3.62c-1.12,1.29-3.62,2-2.37,4.36,1,2,3.23,1.5,5,1.49,2.77,0,5.53-.22,8.69-.36-1.72,3.55-3.66,6.58-4,10.9s-5.53,7.52-9.62,9.88c-3.5,2-6.63,3.23-3.81,8.17,3.09,5.41,6.3,7,11.17,4.34,2-1.11,3.76-2.85,6.25-4.8-.33,5.9,2,11.4-2,16.27a12.26,12.26,0,0,1-12,10c-4.22-.05-8.18-4.29-9.33-10.2-.3-1.56-.25-3.13-2.53-2.48-5.71,1.62-9.12-1.58-12.1-5.71-7.35-4.22-7.39-4.31-5.28-12-4.79.9-9.8,3.9-14-.61-3-3.17.43-6.07,1.3-9.12-4.36-.07-8.14,3.34-12.49,1.82-3.43-1.2-4-4.68-2.06-10.65-3.09.71-5.91,2.22-9.07,2.37-4.89.24-6.73-1.25-7.38-6.07-.21-1.51.59-3.54-2-3.83a13.18,13.18,0,0,0-3.69.65c-3.67.81-6.42-.39-8.53-3.55-3.58-5.34-4.51-5.37-8.89-.82C707.11,627.55,706.6,628.7,705.2,628.16Z" fill="#8f8478"/><path d="M725.55,630.18c.81-1.3,2.13-1.06,3.36-1.09-.67,5.27-.7,10.6-2.08,16.4,3.72-.56,7-1.48,10.29-.87,4.64.86,6,2.52,5,7.11-.61,2.76.67,3.4,2.74,3.58,3.33.3,6.58,1.36,9.94,1.19,4.29-.22,4.68,2.17,3.62,5.36-1,2.82-3,5.1-4.18,7.85-.35.84-.91,1.78-.1,2.56s1.75.28,2.61,0c3.6-1.27,5.29-4.49,7.45-7.25,2-2.51,3.45-6.84,7.53-5,3.45,1.57,1.12,5.31,1,8.11-.17,3.57-1.87,6.74-2.9,9.93.23.55.53.66,1,.5,9.59-3.65,13.23-1.07,13.12,9.07,0,2.56-1.1,5.08-.36,7.74,2.32-.1,2.86-2.25,4.25-3.33,2.83-2.18,6.43-3.06,8.48-.15,4.29,6.08,9.78,4.19,15.26,3.51,1.9-1,4.05-4,5.28.62,3.26,6.18,5,6.15,12.73-.16.56,3.6-.17,7.15-4.53,11.27-9.06,8.54-8.11,19.32-7.93,30.07-1.9,8.06-8.36,12.68-15.66,11.21l1.11-4.46c-.42-6.46,2.28-12.17,4.41-18,.41-1.14,1.06-2.06-.24-3.44-4.27-4.49-4.16-4.6-3.65-10-2,2.26-2,2.27-2.61,4.68a44,44,0,0,1-7.26,16.1c-1.75,2.3-4,4.1-7.15,2.49s-1.84-4.29-1.16-6.72c1.93-6.9,2-14.3,5.83-20.71a3.34,3.34,0,0,0-.14-3.72c-1.16-1.48-2.32.15-3.49.3-9.79,1.32-15.39,7.7-19.9,15.82-2.66,4.79-5,4.52-8.2-.18l1.17-5.55a3,3,0,0,0,.78-3.09c-1.52-3.4,0-6.1,1.78-8.81a32.67,32.67,0,0,0,4.19-10.65c-6.57,2.64-9.48,7.62-12.68,12.14-2.39,3.37-5,6-9.35,6.19-.87,0-2,.13-1.51-1.38,0-.36,0-.72.07-1.08,1.68-5.83,3.24-11.61,6.67-16.86,3.63-5.57,2.58-7.31-2.57-10.87-3-2.11-4-.68-4.82,1.6a41.3,41.3,0,0,1-9.07,14.51c-3.92,4-3.86,4.05-7.07.63-.12-.13-.69,0-1-.2l0-2.19c-.53-3.06.32-5.52,3.14-7.11,4.34,1.28,6-1.21,7.08-4.84,2.09-7.06,4.44-14,11-18.7a17.72,17.72,0,0,0-7.44.31c-4.79,1-6.69,0-7.22-4.86-.49-4.33-1.73-6.26-6.55-5.48-4.19.69-6.38-2-7-6.11-.24-1.61.67-4.72-3.05-3.54-3,.65-6.11,1.2-9.12,2-4.28,1.12-6.27-.52-6.61-4.83-.21-2.67,1-5.07,1.1-7.63.29-5,2.32-3.46,4.61-1.36,2.52.15,1.39,4.59,3.78,3.86,4.16-1.26,9,.14,12.57-3.13C723.08,632.37,724.39,631.36,725.55,630.18Z" fill="#8a8074"/><path d="M903.25,614.59c-1.93,2.68-4.34,4.52-7.84,4.41-4.41-.15-6.09,2.41-5.74,6.31.59,6.7-2.22,10.47-8.5,13-4.75,1.91-2.75,7.49-3.46,11.36-.56,3.09,1.78,5.75,6.07,5.89-5.3,5.7-10.3,11.1-16.86,14.53-.52,1.57,1.15,1.28,1.4,2,.9,2.69,5.5-.5,5,2.34-.88,4.91-.86,10.46-5.15,14.19-2.08,1.81-4.35,3.39-6.53,5.08-1.56,1.71-3.23,2.91-5.54,1.19a14.67,14.67,0,0,1-2.55-13.61,32,32,0,0,0,1.6-12c-.17-1.95.13-3.9,2-4.86,8.12-4.18,6.62-13.49,10.7-19.81.84-1.3-.53-1.86-1.18-2.69-2.81-3.59-1.8-5.89,2.32-7.56a38.31,38.31,0,0,0,13-8.61c-4.24,1.3-6.12,4.71-9.71,4.71-1.93,0-3.67-.15-4.93-1.88s-.14-3.49,1-4.43c4.66-4,5.23-11.16,11.12-14.13,3-.69,5.47,1.34,8.11,2,4.5,1.1,7.46-.34,10.63-2.7C901.48,609.44,903.71,610.71,903.25,614.59Z" fill="#8d8478"/><path d="M728.91,688.2q-1.7,3.34-3.38,6.7c-11.17-5.34-14.67,4.48-20.55,10.53-1.69-5.71,2.78-9.81,3.28-14.83.44-4.51-2.68-9.47,3.36-14.17A29.51,29.51,0,0,0,697,681.78c-4.14,2.82-7.59,2.8-9.5-2.62,3.4-2.89,4.71-7.6,8.71-10,6.9-2.7,11.4-7.93,15.12-14.08,1.12-1.84,2.58-4.49,5-3.79a35.33,35.33,0,0,1,9.19,4.74c1,.67.14,2.49-.61,3.53a93.49,93.49,0,0,0-10.16,19c-2,3-3.33,6.08-1.8,9.41.37-.31.58-1.43,1.39-2.08,6.8-5.4,11.65-12.51,16.89-19.28,5.52,2,5.53,2,3.12,9-2.06,3.18-2.83,6.77-3.34,10.44A3.11,3.11,0,0,1,728.91,688.2Z" fill="#786e63"/><path d="M713.33,678.13a97.52,97.52,0,0,1,12-21.57c-2.63-1.1-5.31-.51-6.91-2.78-1.93-2.73-3.53-1.73-5,.64s-3.09,5-4.84,7.38c-3.07,4.15-6.83,7.28-12.36,7.38,3.39-9.25,11.84-14.23,17.88-21.23.77-.9,2.91-1.45,1.44-3.38a2,2,0,0,1,2.71-1.94c1.75.33,1.58,1.75,1.73,3,.87,7.39.89,7.46,8.16,6.83,3.56-.32,5.15.23,5,4.64-.18,6.58.65,6.79,7.24,5.52a8.07,8.07,0,0,1,2.77-.08c2.23.37,5.61-1.41,6.43,1.39s-3.1,1.43-4.42,2.95c-4.49,5.19-6.73,11.38-8.47,17.86-1.43,5.27-4.16,6.4-7.79,3.43L730,686c1.67-2.49,1.55-5.89,4.08-8,.25-.2-1.52-1-.77-2.07-.11-3.12,3.72-7.22-2.2-8.9-2.48-1.12-3.78-.17-4.33,2.35-.76,3.54-3.1,6.2-5.3,8.89C718.35,682.07,717,682,713.33,678.13Z" fill="#968c7f"/><path d="M897.44,610.22c-2.27,2.48-3.09,6.82-8.63,3.07-2-1.37-6.68-.67-9.45-3.28-1.14-2.28-4-1.44-5.52-3.1,3-2.47,1.75-8.64,7.59-8.72.26,0,.85-1.09.71-1.38-3.58-7,2.51-13.78.42-20.66-.88-2.89.41-3.53,2.84-3.95,6.09-1.06,8.83-7.26,5.88-12.94-.92-1.78-.65-3.14,1.48-3.88,2.91-1,2.81-3.66,3.74-6.08,2.3-6,2-13.5,8.81-17.18,1.41,1.42,1.35,3.15,1.06,4.93-5.19,6-6.81,13.71-9.45,20.91-.8,2.2-.4,4.43-.13,6.62.63,5.11-.33,9.57-4.58,13-3.27,2.61-2.43,6.38-2.48,9.83,0,2.19.92,4.49-.74,6.44-2.7,3.17-1.41,5.32,2.4,7.64-1.82-2.12-3.43-3.85-1-5.39s5.18-3.42,7.46-.48c1.83,2.38,4.83,5,2,8.72-.64.85.57,1.67.38,2.6-3,5.08-6.38-.35-9.73.24C892.64,608.87,895.58,608.32,897.44,610.22Z" fill="#82776b"/><path d="M801.45,748.4c8.14.34,11.7-5.72,15.66-11.2,2.64,2.85,5.07,2,7.4-.43,1.26-1.3,2.5-2.61,3.74-3.92a4.29,4.29,0,0,1,1,5.09c-2.41,4.64-3.07,9.64-3.28,14.2,2.35-2.42,3.61-7.25,8.9-7.1-1.24,4.38-1.1,8.86-1,13.34,0,.18,0,.4-.13.53a6.07,6.07,0,0,1-.68.66c-1.15-1.48,1-5.16-2.78-4.73-2.78.32-4.23,2.37-4.74,5.31a4.6,4.6,0,0,1-3.39,4.08c-1.2-1.66-.81-3.63-.52-5.25.83-4.66-2.45-5.93-5.54-7.6-3.41-1.85-4.66,1.16-6.37,2.79a18,18,0,0,1-7.85,4.83C801.64,755.3,799.11,752,801.45,748.4Z" fill="#797065"/><path d="M816.84,696c-1.41-2.68-2.83-.75-4.24,0-3.59-.14-5.89-2.83-8.73-4.44-9.14-5.18-16.7-12.43-24.7-19.1-1.48-1.22-2.61-2.87-1.61-4.83.82-1.61,2.31-1.53,3.73-.56,3,6.11,5.77,7.49,11.65,5.27,3.06-1.16,4.22-1.05,3.09,2.63-1.4,4.6,1.86,7.17,4.78,9.77,2.73,2.43,5.1.31,7.67-.55,3.7-1.24,6.82-2.85,7.46-7.16C815.4,683.4,816.5,689.69,816.84,696Z" fill="#6f665b"/><path d="M868.32,707.22l.27,2.14a13.36,13.36,0,0,1-12.92,14.31c-1.81-.45-2.79-1.92-3.92-3.2-1.72-3.56-3.57-6.9-3.61-11.22,0-5,1-8.84,5.72-11.09,2.4-.07,1.77,1.79,1.83,3,.19,4,1.78,7.71,2,11.67C862.4,712.36,863.75,706.89,868.32,707.22Z" fill="#8f867a"/><path d="M725.55,630.18c-1.45,4.58-4.37,7.08-9.38,6.72a5.67,5.67,0,0,0-2.74.18c-4.87,2.51-8.23,2.48-7.92-4.34,2.21-1.69-.23-3-.31-4.58,1.55-.74,1.27-2.56,2.19-3.69,2.8-3.48,7.89-3.24,9.5.73S721.36,630.77,725.55,630.18Z" fill="#82776b"/><path d="M834.83,745c-4.15,1.85-5.81,6.28-10.19,9.7.86-5.77-1.47-10.93,2.85-15.47,1.56-1.64.57-4.26.76-6.42,1.39-1.33,1.57-5.12,4.34-3.44,2.45,1.48,6.08,2.88,5,7.42C836.87,739.67,836.41,742.52,834.83,745Z" fill="#938a7e"/><path d="M870.53,720.62c-1.75,11.09-9.28,19.21-14.78,28.35-1.06,1.78-2.54,0-3.72-.71-2.1-5.69-5.55-11.19-2.51-17.61,4.15.66,3,5,5.26,7.52,2.6-2.28,4.13-5.41,6.27-8C863.89,726.67,865.76,722.19,870.53,720.62Z" fill="#8d8478"/><path d="M868.32,707.22c-3,2.43-6,4.82-9,7.3-2.32,2-3,1.13-3.3-1.52-.59-5-1.45-9.89-2.2-14.84l2.23-3.26,5.54-1.19c0,2.4.14,4.69-1.42,6.9-1.19,1.69-1.44,4.25.4,5.59,2.48,1.81,3.34-1.24,4.78-2.37a19.63,19.63,0,0,0,2-2.17C868.86,703.62,868.34,705.47,868.32,707.22Z" fill="#655c52"/><path d="M870.53,720.62c-5.29,5.67-9.71,12-14.14,18.34-.6.86-.86,2.3-2.26,1.95s-1.12-1.71-1.43-2.76c-.78-2.61-1-5.48-3.18-7.5.14-3.53,2.79-6.5,2.23-10.18a4.35,4.35,0,0,1,3.39,2c.55,2.59-.51,5.4,1.09,8.67,4.65-5,6.38-12.11,13.3-14C870.75,718.06,870.67,719.33,870.53,720.62Z" fill="#696157"/><path d="M786.93,601.22c-6.51,5.11-10.06,4.67-14.31-1.4-1.49-2.13-1.08-3.23,1-4.21C777.25,599.41,782.24,600,786.93,601.22Z" fill="#746a5e"/><path d="M624.93,593.34c-2.71,0-4.19-.86-4.18-3.13,0-3.38,2.66-4.19,5.21-4.46,1.94-.21,4.6.31,4.4,2.85C630.1,591.81,626.9,592.4,624.93,593.34Z" fill="#231e18"/><path d="M616,568.37a2.83,2.83,0,0,1-3,2.63,2,2,0,0,1-2.37-2.28c0-1.67.82-2.88,2.54-3S615.85,566.69,616,568.37Z" fill="#231e18"/><path d="M889.61,780.76c3.32-8.27,3.37-17,3.35-25.67-.79-6,2.32-11.4,4.76-16,3-5.68,2.2-10.4.51-15.3-2.29-6.65-3.69-13.05-1.58-20a19,19,0,0,0,.07-9.94c-1.57-6.4.06-12.49,1-18.68a5.73,5.73,0,0,1,3.59-4.62c10.33-4.38,18.18-12.7,28.12-17.69,2.37-1.19,3-3.57,4.22-5.66a6.54,6.54,0,0,1,6.58-3.3c2.65.19,3,2.34,3.28,4.45-.17,3.68,1.1,7.63-2,10.79-1.3.74-2.3.17-3.22-.74a15.6,15.6,0,0,1-1.12-5.92c-.16,3.44.88,7.48,1.91,11.52,1.39,3.9.05,8.58,3.48,12,.61.6,0,1.77-.66,2.5-1.9,2.56.19,4.9.56,7.26.71,4.47,1.84,8.89,3,13.29.52,1.78,1.14,3.54.83,5.43-1.52,3.71.11,6.08,3.34,7.78,1.77,3.77,3.18,7.61,2.53,11.9-.44,1.56-1.21,2.73-3.1,2.45-4.64-8.19-10.44-16.07-7.57-25.57-3.36,8.43-1.61,5.6,4.19,22.13a45.82,45.82,0,0,1,2.92,16.19,15.29,15.29,0,0,0,1,11.23c.38,4.55,1.51,9,2.28,13.46a3.69,3.69,0,0,1-.72,1.6c-2.29,1.79-3.58.41-4.74-1.46s-1.42-4.07-2.06-6.13c-.53-4.28,0-8.71-1.72-12.84a28.74,28.74,0,0,1,.67-6.7,36.24,36.24,0,0,0-.72,6.47c2,4.93.65,10.34,2.28,15.31,4.68,8.48,4,17.25,1.58,26.18-1.86,6.95.35,13.87.5,20.8-.06,1.26.08,2.52,0,3.78a79.36,79.36,0,0,1-1.51,18.65,15.24,15.24,0,0,1-2,3.83c-1.55,2.31-.57,5.25-1.84,7.63-.72,2.75-1.17,5.31-5.32,4.72-2.88-.41-4.44,3-7,4.13-2.17,1-4.21,2.91-6.6.92-2.13-1.77-2.17-4.22-1.17-6.62,1.84-4.4-.61-5.69-4.3-6.16-1.29-.16-2.59-.09-3.89-.21-5.66-.54-7.06-2-7.4-7.59a14.93,14.93,0,0,0-.11-2.76c-.6-2.52-2.59-3.67-4.82-4-2.72-.41-2.53,2.1-3.06,3.76-.22.7-.24,1.46-.45,2.17-.42,1.42-.72,3.07-2.7,3a3.19,3.19,0,0,1-2.73-2.47c-3.17-9.46-6.68-18.86-6.29-29.1.13-3.7.34-7.39.22-11.1C886,786.37,886.85,783.14,889.61,780.76Z" fill="#0d0c0a"/><path d="M889.61,780.76a68.9,68.9,0,0,0,2.48,43.64c.93,2.34-.67,6.89,3,6.75,2.55-.09,1.28-4.41,1.93-6.75,1.16-4.11,2.58-3.87,5.85-2.22,3.72,1.87,5.68,3.89,4.7,8.37-.95,4.32,1.61,6,5.72,6,2.21,0,4.59-.34,6.6.34,3.29,1.11,7.25,2.44,3.38,7.24-1.56,1.93-1.67,4.27.21,6s3.22-.3,4.65-1.31c2-1.42,4.38-2,5.7-4.74,1.09-2.25,3.48,0,5,.91,1.78-1.55.24-4,2.2-5.15,1.84,2.85,2.54,6.22,4.24,9.13.65,3,.84,6.16,1.29,9.23-.55,2.67-1.56,4.87-3.3.78-.74-1.75-2.1-.63-2.75-1.52a35.6,35.6,0,0,1-1.89-5.76c1.24,5.7,2.62,11.4,2,17.32a1.77,1.77,0,0,1-2,1.1,3.74,3.74,0,0,1-1.33-2.31c1.73,12.23,4.31,24.94,5.41,37.8.71-.81.88-2.76,2.88-2.33,4,8.9,6.32,18.32,9,27.65,2.09,4.75.74,10,2,14.82-1.94,2.35-.5,5.24-1.24,7.79-3.24-2.13-3.05-5.46-3.25-8.76-.19-3,.85-6.18-.9-9-.33-3-.14-6.28-3.34-8.15-1.12-5.4-3.67-10.21-6.32-16.06,1.58,16.6,2.05,32.1.45,47.63h-1.17c-2.05-2.82-2.36-6.22-2.39-9.44s.5-6.41-.33-9.13c-.69,1.23,1.71,3.68-.68,5.17-2.09.43-1.7,4.45-4.23,3.47-1.88-.72-2.06-3.28-2.43-5.32-.26-1.38-.56-3.25-2.46-3.16-1.52.08-1.75,1.71-2,3a22.55,22.55,0,0,0-.92,4.31c-.26,7.15-6.28,9.2-11.08,11.79-2.26,1.22-5.22-.77-4.87-4.17.29-2.78,1.22-6,4-7,6.81-2.5,9.11-8.19,11.42-14.72-2.25.46-3.06,4-5.54,2.5s-1.49-4.32-1.68-6.62c-.14-1.66.19-3.41-.2-5-.85-3.41-2.07-5.68-5.67-1.77-3.07,3.34-5.43,2.6-6.15-1.85-.56-3.42-1.22-7.2.6-10.38,3.45-6.05-2.23-7.83-4.94-10.68s-4.22.5-6.17,2.06c-2.36,1.88-6,1.49-8.22,4-.1.12-1-.24-1.29-.58-1.47-1.78-1.86-13.36-.29-15,5-5.1,4.5-11.3,4.2-17.7-.33-6.86-2.42-13.65-.91-20.6,1-4.77,2.51-9.51,5.94-12.94,2.25-2.25,1.06-3.52,0-5.16a46.41,46.41,0,0,0-3.77-4.72c-7.68-9.23-6.2-21.19-9.7-31.66-2.2-6.6,3.09-12.24,5.29-18.24Z" fill="#11100e"/><path d="M942.18,648.26c-.39-1.29.2-3.55-2-3.27s-5.51.48-5.48,2.84c.07,5-3.52,6.19-6.65,7.62-7.76,3.54-13.21,10.46-21.05,13.87-1.61.7-2.93,2-4.86,2.34s-2.73,1.7-3.31,3.8c-2.32,8.35-.8,16.69-.13,24.95.36,4.36-2.4,7.73-1.8,12.32.84,6.49,4.43,12.09,4.73,18.59.13,2.78,1,5.6-2.33,7.25a2.89,2.89,0,0,0-1.81,3.17c1.51,5.54-3.44,8.78-4.55,13.35-2.09-1.64-2.06-3.57-1.2-5.93a24.31,24.31,0,0,0,.41-14.74c-1.13-4.35.86-8.73-.24-13.15-.55-2.23.44-4.82-3-5.63-3.26-.77-4.73,1.35-6.29,3.34-1.13,1.45-.89,4.39-4,3.57s-2.42-3.33-2.45-5.49c0-1.84-.34-3.88.32-5.49s.65-6.74,4.57-1.71c2,2.61,4.71.82,5.53-1.59,3.06-9,5.29-18.24,5.38-27.86.05-5,4.51-7.68,6.56-11.65,1.84-3.58,6.27-6.62,6.46-10.06.35-6.39,2.36-12,4-18,2.3-8.62-.16-18.09,3-26.81.89-2.43,1.05-4.38-1-6.54-2.67-2.81-1.4-5.74,1.48-7.41,2.49-1.44,3.41-3.28,4.36-5.87,1.17-3.19,2.62-7.29,7.66-6,1.8.48,2-.68,1.77-1.74-.79-3.16-1.12-6.51-5.34-7.6-4-1-4.69-4.44-1.94-7.47.86-1,2-1.62,2.87-2.58,2.41-2.79,3.58-7.13,4.69-12,.94-4.14,4.23-7.3,6.15-11.13,2.16-4.32,2.09-6.84-2.37-8.84a7.38,7.38,0,0,1-1.89-1.14c-1.11-1-2.79-2.34-1.57-3.63,1.62-1.71,2.39.45,3.07,1.59,1.75,2.95,3.7,3,6.26.9.92-.77,2.38-.9,3.6-1.32,2.62,4.34,5.51,8.55,4.33,14.11-.23,1.13,1.38-.51,1.67.57,2.21,3.75-.19,8,1.23,11.84a121.7,121.7,0,0,1,4.16,12.48c.39,3,4.17,4.59,3.27,8.08a4.1,4.1,0,0,1-3.76,1.43c-3.42-2-3.35-5.88-4.88-8.64-.35-.91-1,0-.38-.37.08-.06.22.08.31.44,1.89,7,6,13.59,2.93,21.23-.78,1.36-1,3.81-3,3.32s-1.83-2.9-2.32-4.67c4.54,8.81,3,18.33,3.88,27.59.37,3.86,4.47,6.84,4.65,11.37s1.54,9.08,1.23,13.74c-2.88,5.08-4.08,1.57-5.47-1.06-3.25-13-6.52-26.11-6.41-36.69.47,6.63,1.17,16.22,3.76,25.64C946.4,638.61,947.19,644.17,942.18,648.26Z" fill="#1e1a16"/><path d="M939.82,531c-2,.83-4.14,1.95-3.56-2,.84-5.6-2.35-9-6.42-12.13-2.56-2-4.25-1.39-6.17.69-7.43,8-7.4,16.17.16,24.2,4.33,4.6,3.49,7.55-2.65,9.25a12.36,12.36,0,0,0-2.16.49c-1.42.71-3.67,1.07-3.25,3.19s2.26,2,4,1.38c2.1-.77,3.18.72,3.93,2.18,1,1.9-.06,3.16-1.87,3.89-3.21-2.26-7-3.34-10.49-5-5.24-2.47-6.41-5.63-3.29-10.53,1.12-1.76,2.93-3.61,1.25-5.45-3.57-3.93-3-7.74-.65-11.82.14-1.1.22-2.38,1.07-3.07,6.16-5,9.6-11.55,11.74-19,.45-1.57,1.81-1.89,3.1-1.69,3.8.61,4.94-1.4,5.1-4.68a9.82,9.82,0,0,1,1.39-4.19c1.18-2.17,1-5.49,5.42-4.59,3.91.79,6.72,1.55,5.4,6.72,1.18-2.48.24-5.43,3.63-5.95,2.46,2.78-.27,7.85,4.31,9.69,1.36,2.07,1.07,4.15.23,6.34a46.65,46.65,0,0,0-1.53,29.81,12.05,12.05,0,0,1,.47,4.38c-.14,1.28-.25,3-1.6,3.25-1.9.4-2.15-1.56-2.78-2.81C942.84,539.43,941.42,535.16,939.82,531Z" fill="#342d26"/><path d="M899.68,606.82c-1.87-2.92,1.34-6.84-2-9.58-.91-.76-1.17-2.65-2.82-1.88s-4.29.65-4.63,2.45c-.47,2.5,2.51,1.93,4.16,2.74-3.08,1.86-5.28,2.17-7.77-1s-1.11-4.5,1.24-6.21c2.05-1.48.37-3.42.5-5.14.33-4.66-1.9-10.05,4.45-12.85,2-.9,2.67-3.93,2.49-5.88a46.8,46.8,0,0,1,2.13-18.61c1.57-5,3.29-10,7.8-13.25,2.43-1.3,2.91.41,3.15,2.16a5.7,5.7,0,0,1-1.34,4.69c-3.77,3.88-3.37,7.69-.61,11.89a4.08,4.08,0,0,1-.19,5.17c-3.91,4.43-4.1,7.05-.83,12.83.92,1.64.27,3.24,0,4.86-1.27,5.22-.62,9.86,4,13.37,2,1.56,2.07,3.35.45,5.25-1.92,2.25-4,4.33-5.91,6.62l-2.21,2.23A1.32,1.32,0,0,1,899.68,606.82Z" fill="#716457"/><path d="M904.14,578.92c0-2,2.76-5.51-2.56-4.89-.87.1-2-1.55-1.51-1.83,5.7-3.37-2-7.41.66-10.81a.68.68,0,0,1,.52-.17c10.14.33,3.32-5.25,2.18-7.59-1.55-3.17-1.76-4.86.9-7.64,1.77-1.86,6.18-5,.94-8.38,0-1.83,0-3.66,0-5.49L906.4,531c1-.6,1.77-1.74,3.18-1.13.29.42.59.84.88,1.27-4.61,3-2.39,6,.06,9,2,2.45,1.63,4.33-.74,6.64-4,3.9-2.92,7.4,2.52,9.35,2.7,1,4.87,3.12,8.09,3,1.71-.07,1.48,1.77,1.49,3.05L910.76,571c-2,.5-2.07,2-2.3,3.7C908.12,577.11,907.22,579.21,904.14,578.92Z" fill="#5c5146"/><path d="M861.8,769.67c-.89-7.22,2-14.18.9-21.42l1.55-.2c1,5.2,2.09,10.39,3,15.61a26.77,26.77,0,0,1,.08,5c0,2,.38,4.08,2.39,4.52,2.18.47,2.18-2,2.92-3.37.58-1,.38-3,2.06-2.73,1.88.33,1.44,2.26,1.45,3.71a15.34,15.34,0,0,0-3.37,8c-.19,1.77-1.13,3.24-3,3.49-2.08.28-2-1.81-2.66-3C865.22,776.18,863.84,772.75,861.8,769.67Z" fill="#474039"/><path d="M904.14,578.92a5.62,5.62,0,0,0,3.33-5.84c-.23-2.7,1-3.31,3.29-2.07-2.16,5-.67,10.75-3.15,15.8A2.94,2.94,0,0,0,910,591c4.09.58,3.9,4.3,2.56,5.67-2.65,2.74-4.34,6.8-8.61,7.8a10.18,10.18,0,0,1,.12-1.11c.81-3.62,6.51-4.9,5.66-8.14-.74-2.81-4.43-4.76-5.74-8.24C902.91,584,903.53,581.58,904.14,578.92Z" fill="#423a31"/><path d="M869.53,717.15a54.79,54.79,0,0,0-11.17,13.9c-.61,1-1.64,2.49-3,2.09-1.73-.52-1.52-2.38-1.41-3.81.16-2.31-.87-4.85,1.19-6.84,6.36-.14,12.84-6.46,13.45-13.13C870.45,711.77,869.15,714.57,869.53,717.15Z" fill="#453f36"/><path d="M861.8,769.67c3.84,1.53,4.24,5.64,6.34,8.47.74,1-.44,3.57,2,3,1.7-.38,1.45-2.31,1.6-3.77.31-2.94.44-6,4.37-6.61l1,2.33c-3.33,2.65-2.61,7.49-5.6,10.36-.87.84-1.32,2.43-2.88,2-1.23-.33-1.07-1.71-1.39-2.74-1.11-3.61-4.77-5.83-5.41-9.72C861.81,771.91,861.81,770.79,861.8,769.67Z" fill="#6a6259"/><path d="M899.68,606.82l2.1-.14c1.42,2.46,4.7,4.58,1.47,7.91-1.41-2.15-2.24-5.08-5.81-4.37a17,17,0,0,1-9.3-2.69c2.13-.92,3.65-5.36,6.68-.38C895.67,608.56,898.12,608.28,899.68,606.82Z" fill="#423a31"/><path d="M939.82,531c.27-.64.38-1.61.85-1.86.91-.47,1.27.44,1.23,1.15-.22,4.36,1.6,8.12,3.35,11.92-.79,1.88,1.74,3.69.13,5.59-.83-1.13-2.33,1.89-2.11.15.72-5.46-3.15-9.64-3.43-14.72Z" fill="#342d26"/><path d="M879.64,816.57c1-.8,1.53-2.27.63-2.87-5.5-3.67-3.76-10.81-7.55-15.24.68-2.62.76-5.42,2.31-7.78,1.92,7.42,6.58,13.88,7.48,21.66.32,2.73,1.41,5.57-1.79,7.43Z" fill="#26211c"/><path d="M876.24,844.29c2.13-7.67,1.21-15.92,4.44-23.39.27,5.42.52,10.84.83,16.26C881.73,841,878.56,842.33,876.24,844.29Z" fill="#26211c"/><path d="M884,854.37c.14,4-2.54,5.52-5.67,6.41-1.29.36-2.36-.64-1.87-1.85,1.26-3.12,1.78-7.24,5.23-8.44C883.89,849.73,883.92,852.69,884,854.37Z" fill="#11100e"/><path d="M937.42,945.77V935.2c3.4,8.52,1.18,16.58,3.4,24-2.39-1.84-2.81-2.56-3.12-6.35C937.5,950.48,937.51,948.12,937.42,945.77Z" fill="#11100e"/><path d="M899.22,921.92c-1-2.18-.83-3.8,1.1-6.61C900.84,918.43,901.15,920.1,899.22,921.92Z" fill="#11100e"/><path d="M909.58,529.86,906.4,531c.71-1.9,1.52-3.76,2.1-5.69,1.42-4.78,0-10.16,7.73-12.38,5.52-1.6,5.52-10.15,8.79-15.19.86-1.33,1.17-3.15,2.57-4.12,4.19-2.92,5-7,4.44-11.72.25-2.37-.5-6.46,3.73-2.36,2,1.92,2.77,0,3.94-.9,1.5-.28,1.23-2.59,3-2.59,3.1,2.33,3.26,5.77,2.69,9a7.88,7.88,0,0,0,1.54,6.54,2.51,2.51,0,0,1-.19,1.55,1,1,0,0,1-1.4-.09c-2,2.78-1.59,6.28-2.51,9.38a2.18,2.18,0,0,1-1.8-2.71c1.42-4.88-2-5.65-5.32-6.74-1.16-.38-1.84-.22-2.19.73-.93,2.56-2.34,5.16-2.42,7.79-.15,4.75-1.24,7.26-6.58,5.3-1.58-.59-2.75.53-2.17,2.09,1.18,3.15-.21,4.26-2.75,6s-1.93,6.13-4.39,8.92C913.38,525.87,909.08,525.77,909.58,529.86Z" fill="#73675b"/><path d="M759,720.51c3.5,3.22,6.16,2.79,8-1.77a13.23,13.23,0,0,1,1.16-1.88c3.66-6.07,7.43-11.76,15.67-12.3a11.73,11.73,0,0,0,7-3.3c2.34,3.45,2.49,6.76.12,10.28-4.25,6.32-2.14,14.52-6,21-.49.84-.22,1.76,1.24,1.71s2.87,1.76,4.71-.31a35.25,35.25,0,0,0,8-16.81,13,13,0,0,1,5.33-8.53,9.48,9.48,0,0,1-.14,6.56c-.86,2.24.12,5,1.67,5.37,5.38,1.44,2.89,4.45,2,7.23-1.72,5.39-3.48,10.77-5.22,16.15-.53-3.21-3.5-4.4-5.73-5.17-2.49-.87-4.87,1.29-6.25,3.61s-2.47,5-3.82,7.38c-.7,1.24-1.59,3-3.22,2.46-1.88-.67-1-2.5-.47-3.81,1.18-3,.4-6.16.83-9,.86-5.68-3.84-7.89-5.85-11.57-1.88-3.44-9.85-1.68-13.21,2.32-2.66,3.18-5.27,6.4-9.15,8.21,0-.37,0-.73,0-1.1.85-3.34,2.21-6.37-.42-10-1.25-1.71.81-4.8,2.6-6.77Z" fill="#746b61"/><path d="M757.91,720.52a8.66,8.66,0,0,1-1.22,4.74c-.48,1-1.06,1.91-.23,3.06,2.75,3.82,2.73,3.84-.74,8.94-1-.72-2.17-.7-1.67-3,.78-3.55-2.65-5.36-5.92-3.47-2.22,1.28-4.36,2.56-5,5.49a16.83,16.83,0,0,1-2.39,4.94c-1,1.58-2.6,3.55-4.28,2.77-1.86-.87-1-3.26-.1-4.8,1-1.8.73-3.49.28-5.28a18.91,18.91,0,0,0,6.32-6.85c2.47-4.31,8.17-4.45,11.2-8.31C755,717.7,756.52,720.11,757.91,720.52Z" fill="#625a51"/><path d="M958.88,513c-.46,2.15,1.36,3.17,2.31,4.61l-.25,2a34.27,34.27,0,0,0,.71,17.38,12,12,0,0,1,.53,4.94c-1.06,8.38-1.53,16.66,2.09,24.69,1,2.17.54,4.74.55,7.15,1.69,12.77-.75,25-4.48,37.13-2.43,7.91-1.25,16.25-.8,24.35a86.43,86.43,0,0,1,.08,12.15c-.39,4.75-1.19,9.59.84,14.27.77,1.75,0,3.66-.34,5.48a11.94,11.94,0,0,1-1.9,4.07c-3.57.59-5-1.29-5.28-4.53.42-4.65-3.42-8.56-2.33-13.32.08-2-.07-4,1.57-5.55,2.73-1.51,1.5-3.82,1.12-5.89-1.59-8.92-3.08-17.83-1-26.89,2.37-3.72,3.67-7.66,2.48-12.11a4.88,4.88,0,0,1,.12-2.4,3.7,3.7,0,0,1,1-1.25c2.94-4.63,1.22-9.66,1.18-14.52,0-1.8-.78-3.6-.46-5.47.79-2.51,2.4-4.95.46-7.64-1.57-9.61-4-19.14-2.27-29,.63-3.5-.41-7-1-10.43a33.86,33.86,0,0,1,1.55-16.86,3.75,3.75,0,0,1,2.63-2.48Z" fill="#1e1a16"/><path d="M968.77,604.4c-2,1.84-1.95,4.71-3.4,6.83A1.05,1.05,0,0,1,964,611a3.36,3.36,0,0,1,.22-3.14c1.34-8.59,4.11-16.9,5-25.62,1.06,2.75.3,6,3,8C971.17,595,970.53,599.84,968.77,604.4Z" fill="#1e1a16"/><path d="M980.13,606.76c0,1.12-.11,2.24-.16,3.36-1.23.64-1.55-.45-2.12-1.09-.17-2.87-.16-5.57-1.85-8.34-2.19-3.57-1-7.7.3-12.74C980.22,594.45,978.7,600.93,980.13,606.76Z" fill="#1e1a16"/><path d="M996.66,630.14c-3.34-2.53-2.84-6.79-3.2-9.93-.78-7-4-14-1.16-21.18,1,8.05.72,16.37,4.79,23.74C998.61,625.53,996.79,627.7,996.66,630.14Z" fill="#1e1a16"/><path d="M967.51,524q-2.13,4.6-4.28,9.22c1.26-6.34-.09-13,2.64-19.18a.45.45,0,0,1,.38-.18,1.56,1.56,0,0,1,.44.3c1.6,1.17,3.37,2.25,2.34,4.72Q968.28,521.38,967.51,524Z" fill="#1e1a16"/><path d="M969.88,510.81c0-2-2.79-2.53-2.33-4.71,4.17-3.46.36-8.35,2.19-12.22l-.1.09C973.33,498.09,973.42,504.83,969.88,510.81Z" fill="#73675b"/><path d="M974.62,563.38c.65,5.71,6,10.2,4.34,16.5a26.1,26.1,0,0,1-1.74,3.62,95.26,95.26,0,0,0-4.1-18.59A1.92,1.92,0,0,1,974.62,563.38Z" fill="#1e1a16"/><path d="M975.09,556.27l-1.5,1.53-1.19-1.19c-1.95-4-1.13-8.13-.7-12.26,1.21-.27.13-2.76,2.17-2.23C973.54,546.9,974.32,551.58,975.09,556.27Z" fill="#1e1a16"/><path d="M944.07,372.63c1.19,3.64,2.27,7.32,3.61,10.9,1.77,4.73,1.76,9.25-.93,13.64-.44,1.68-1.18,1.52-1.73.14a4,4,0,0,1,.2-3.07c-.52-1.29-1-2.58-1.54-3.87-.69,3.23-4.15.41-5.25,2.34-1.29,2.25.32,3.1,2.21,3.12,1.36,0,2.46-.45,2.58,1.64.13,2.27-1.12,2.09-2.7,2.28-4,.51-7,3.3-10.43,5.06-7,3.54-14.22-.32-14.74-8.14-.44-6.74-1-13.44,1.57-20.12,1.16-3,2.24-6.47,1-10.24-1-3.16,1.42-5.46,4.11-7.13s4.74-.18,6.38,1.58a33.75,33.75,0,0,1,6.85,11.29,40.9,40.9,0,0,0,1.38,4.18c.72,1.4,1,3.67,3,3.58s.88-2.5,1.8-3.61S943.2,373.82,944.07,372.63Z" fill="#231e18"/><path d="M944.21,441.91c-2.26,3.17-1.79,6.51-.47,10.43.28-1.66.48-2.82.73-4.25,3.24,3.94,3.43,7.89,1.21,12.05a9.91,9.91,0,0,0-1.18,6.46c1.19,6.8.65,13.68,1,21.27,2.08-9.45,4.51-18.08,3.47-27.17,5.31,11-.22,21-2.62,31.29-2.66-1.39-3.84-2.76-2.39-6.28,1.17-2.84.29-6.45-1.74-9.29-4-1.77-1.56-5.54-2.61-8.23a1.43,1.43,0,0,0-.52.09,3.26,3.26,0,0,0-.48.27c-3.49,2.19-6.92,1.35-10.47,0-2.08-.78-3.31-2.13-2.62-4.09,1.63-4.66-1.53-5.23-4.63-6,0-.36,0-.73,0-1.09.72-2.09,2-4.19,2-6.28,0-3.45,1.24-5,4.58-5.48,2-.29,4.15-1,2.84-4-1.42-3.29.48-5.11,3.12-6.71,1.58-.95,6.19-1.83.66-4.18a1.84,1.84,0,0,1-.45-2.91c4.42-3.15,2.41-7.7,2.82-11.71-.59-2.47,1.17-4.61,1-7a4,4,0,0,1,1.45-2.87l1.45-4c2.55,1.3-1.17,6.26,3.75,5.9a2,2,0,0,1,.06,3.23c-2,6.29.23,13-2,19.28,2.68,2-1,5.85,2.25,7.72C945.05,439.55,945.45,440.77,944.21,441.91Z" fill="#aea498"/><path d="M938.41,409.2c.77,2.69-.4,4.83-1.95,6.86-3.74.57-7.83.39-8.73,5.63-.21,1.24-2.16,1-3.41,1.19-.05-.8-.11-1.6-.16-2.4s.09-1.38.13-2.07c3.44-4.16,6-9.5,12.56-9.57A2.48,2.48,0,0,1,938.41,409.2Z" fill="#817567"/><path d="M938.41,409.2c-6.52.28-9.45,6.08-14.12,9.21,2.13-7.34,7.51-10.8,14.59-12.25C938.73,407.17,938.57,408.18,938.41,409.2Z" fill="#4c4339"/><path d="M953.76,421.06c.15-1.84-1.59-3.67,0-5.52l4.12-1.09.49,0a3,3,0,0,1,.54,2.39,10.58,10.58,0,0,1-1.38,4.13C956.37,422.44,955.07,423.42,953.76,421.06Z" fill="#968b7e"/><path d="M725.56,697.09l3.75-2.75c.88,2.09-1.39,3.28-1,6,4.11-4.49,8.32-8,10.75-13.09,1.26-2.64,2.35-5.37,3.72-8s2.78-5.21,4.65-.23a2.82,2.82,0,0,0,2.2,1.48c7.72-.35,4.51,5.72,3.37,7.66-3.79,6.44-5,14-9.52,20.07-.13-2.12-2.34-3.2-2.1-5.94s-2.88-2.07-4.72-1.22c-4.64,2.16-8.41,5.26-10.08,10.37a11.44,11.44,0,0,1-5.42,6.74l0-4.38C725.31,709,722.89,702.36,725.56,697.09Z" fill="#776d63"/><path d="M743.38,709.36c4.46.45,7.11-1.74,9.65-5.33,3.92-5.52,7.13-12.25,15.75-13.38a33.89,33.89,0,0,1-3.8,11.21c-2,3.47-4.93,6.62-3.06,11.2.14.33-1.13,1.25-1.75,1.9.29-4.23-1.3-5.3-5.29-3.57s-6.73,5.12-9.8,8c-1.57,1.48-3.12,3-4.92,4.68-.8-2.28.42-3.42,1-4.63,1.23-2.41,4.3-4.49.65-7.43C741.45,711.71,742.33,710,743.38,709.36Z" fill="#797065"/><path d="M938.6,468.55l.51-4.41c3.42,4.09.51,8.86,3.1,12.28-.52,1.09,1.16,4.67-2.51,2.21C938.23,475.39,938.89,471.92,938.6,468.55Z" fill="#aea498"/><path d="M983.06,862.33c-.1-3.32.91-6.63,0-9.94-4.38-9.71-3.74-19.68-1.8-29.79,1.2-6.22.39-12.56.34-18.83a38.14,38.14,0,0,1,3.2-16.72c3.58-1.52,4.29,1,5,3.54a22.75,22.75,0,0,1-1.07,5.36,76.43,76.43,0,0,0,1,16.35c.65,3.52,1.14,6.86-.76,10.24s-.16,7.34-1.23,10.91c-.77,6.09-1.8,12.19.8,18.13a5.71,5.71,0,0,1,.14,3.3,56.1,56.1,0,0,0-3.16,6.81,3.57,3.57,0,0,1-1.08,1A1.51,1.51,0,0,1,983.06,862.33Z" fill="#0e0e0d"/><path d="M981.21,867.11c2.31.22,2,2,2.14,3.54,1.35,7.27.13,14.7,1.39,22,.35,2,0,4.08.25,6.11a17.15,17.15,0,0,1,.48,13l0,1.14C978.76,898.14,979.06,882.71,981.21,867.11Z" fill="#0e0e0d"/><path d="M974.2,891.09l-2,3.33c-2.49-2.12-1-5.39-2.32-7.86-1.65-4.29-1.42-8.59-.21-12.94.37-1.35.86-1.93,2.2-1.09C972.57,878.73,974.92,884.72,974.2,891.09Z" fill="#0e0e0d"/><path d="M975.61,848.3c-2.36,7,0,14.74-3.73,21.93-2.55-3.22-2.22-6.57-1.36-9.81a28.36,28.36,0,0,0,.64-11c-1.09-3.14.86-3.56,3.24-3.61A2.85,2.85,0,0,0,975.61,848.3Z" fill="#0e0e0d"/><path d="M963.19,477.57c-1.81,6.37-3.62,12.74-5.74,20.22-1.57-4.09-5.13-6.13-.59-10.19,2.43-2.17.74-7.39.58-11.87-2.05,4.36-1.1,9.27-4.73,12.91-1.19-3.55-.34-6.46.61-9.12,2.51-7,2.47-13.5-1.33-20.13-2.5-4.36-1.3-9.37-.86-14.13a.91.91,0,0,1,1.34-.12c1.8,5.35,3.92,10.6,5.17,16.1.12.38-.17.9.37,1.17a5,5,0,0,1,.57-1.71c1.31-.72,1.82.23,2.39,1.09-.35,4-.71,7.92-1.05,11.89C959.72,476.05,960.55,477.57,963.19,477.57Z" fill="#aea498"/><path d="M961,461.79l-2.05-1.11a4.74,4.74,0,0,1-2.15-2.7c-.48-2.89-1.13-5.75-1.6-8.65,1.21-6.46-2.43-12.58-1.35-19,.32-1.92-.23-4.65,2.16-5.21,1.88-.44,2.85,2,4.15,3.18-.65,2.68-1.64,5.34-1.8,8-.09,1.38-3.28,5,2,4.39,1-.13.55,1.49.36,2.23-1,3.95-1.74,7.63,1.11,11.43C963.47,456.54,961.61,459.33,961,461.79Z" fill="#968b7e"/><path d="M965.39,441.83c-.19,2.73,1.17,5.77-1.71,8.18-.79-3.14-.48-5.83,1.74-8.12Z" fill="#968b7e"/><path d="M975.58,897.76c.35,8.73,4.3,16.56,6.31,24.87-1.89,1-1.51-1.18-2.33-1.69-.55-.08-.74-2.41-1.28-.64-.67,2.16-.16,4.69-.15,7.45-3.83-4.21-4.91-9.51-7.37-14.07-1-3-.3-5.92.63-8.8C973.86,903.13,971.4,898.5,975.58,897.76Z" fill="#11100e"/><path d="M979.92,689.3A100.74,100.74,0,0,0,977.55,664l3.12-2.91c1,2-.34,4.34,1.41,5.91,3.45,9.78,3,19.75,1.47,29.77-1.13,7.61.14,15.12.94,22.65,5.8,2.51,3,7.59,3.55,11.71-1.15,3.52,0,7.56-2.45,10.78-2.76-.46-2.39-2.74-2.58-4.6-.26-2.48.19-5-.69-7.45-1.37-9.4-5.41-18.22-6-27.78,0-.61,0-1.22.05-1.82C977.5,696.58,978.42,692.85,979.92,689.3Z" fill="#0d0c0a"/><path d="M966.72,397.76c-.42-5.83,2.14-11.4,1.45-17.25.45-1.57.91-3.13,1.54-5.3,3,8.63,3.5,16.44-2.05,23.74C966.71,399.06,966.12,398.88,966.72,397.76Z" fill="#231e1a"/><path d="M781.29,667.07c-1.26,0-2.83-.34-3.07,1.49s1.18,2.56,2.3,3.53A333.38,333.38,0,0,0,812.6,696c-1.13,2.3-3,2.62-5.16,1.81a7.13,7.13,0,0,0-5.41-.32c-3,1.24-4.21.12-5.34-2.73-1.65-4.18-5.66-4.54-8.56-1.09a22.77,22.77,0,0,1-2.08,2.58c-1,.91-1.78,2.94-3.45,2.17-1.84-.85-1.53-3-1-4.48a24.74,24.74,0,0,0,.89-8.23c-.05-7.32-3.94-9.64-10.4-6.27-1.37.72-2.67,2.95-4.28,1.49s.3-3.07,1-4.37c2.27-4,2.14-8.56,3.36-12.79.3-1.07.46-2.33-.69-3-1.41-.82-2.57.1-3.36,1.13-1.55,2.07-2.88,4.3-4.4,6.4a14.79,14.79,0,0,1-3.22,3.78c-2.43,1.65-5.72,3.81-8.12,2.18-2.87-2,.72-4.46,1.38-6.73.91-3.13,5.33-5.64,3.67-8.76-1.23-2.32-5.69,0-8.56-1.54-1.18-.63-2.95-.05-4.39-.34-3.28-.65-7.37-1-3.45-5.92,2.12-2.65,0-3.64-1.91-4.43-3.84-1.54-7.63-.73-11.39.5-1.27.41-4,1.24-2.91-1.06,2.12-4.64,1.28-9.47,2.28-14.1.22-1,1.17-1.86,1.79-2.79l3.76-.7c-1.22,11.54.64,12.94,11.78,9.07,1.69-.59,3.33-1.29,5.26-2a9.32,9.32,0,0,1-.28,1.65c-1.14,3-3.82,6-1.17,9.27,3,3.7,6.07.18,9.13-.16,2.48-.28,4.8-1.84,7.44-1.28.06,1.83-1.56,2.33-2,3.5-.76,2.13-3.45,3.91-1.76,6.52,1.85,2.87,5,2.32,7.63,1.81,2.85-.54,5.56-1.82,9.85-3.3C774.63,659.68,771.77,665.37,781.29,667.07Z" fill="#82776b"/><path d="M739.83,609.1c-1.92,6.41-4.72,10-11.76,9-6.26-.93-12.26-1.83-17.66-5.56-2.47-1.71-5.64-2.47-8.55-3.49a17.16,17.16,0,0,1-7.29-4.85c-2.24-2.52-1.63-4.85,1.73-5,6.64-.31,13.3-.66,19.92.84,2.63.59,1.93,1.73,1.73,3.51-.87,7.72,1.6,9.79,9.19,8.14C731.2,610.75,735.29,610,739.83,609.1Z" fill="#7d7165"/><path d="M713.33,678.13c4.77,2.38,10.6-1.85,12.16-8.91.27-1.23,0-2.58,1-3.6,2.46-2.66,4-2.12,4.64,1.38-3.63,10.58-13.3,16.09-20.27,24.54C711.76,686.68,709.73,681.89,713.33,678.13Z" fill="#8a8074"/><path d="M733.33,675.9c2.75,4.62-1.38,7-3.31,10.06C730.34,682.35,730.42,678.66,733.33,675.9Z" fill="#8a8074"/><path d="M951,765.15c2.95,4.16,3.78,8.51,1.73,13.41s-3.65,11.46-2.12,15.61c2.58,7-1,13.11.31,19.57,1.52,7.53-1.49,14.49-3.53,21.54-1.1,0-1.52-.71-1.87-1.56-.93-7.11,2.91-14.1.52-21.25a4.65,4.65,0,0,0-.56-1.52l.17-3.83c2.62-2.26,1.53-5,.88-7.6a22.92,22.92,0,0,1-.1-10.89c1.46-6.44,3.22-12.83,3.18-19.51a6.81,6.81,0,0,1,1.47-4.08Z" fill="#0d0c0a"/><path d="M944.33,675.92c-2,1.25-.43,3.49-1.51,5-1.43-.33-1.73-1.51-1.88-2.79l1-1.26c-5.22-2.78-2-8.46-4.24-12.29,1.64-1.94-1.35-4.82,1.33-6.55l2,1.15c-.43,4.41-2.5,8.71-1,13.42,1.91-1.74.16-4.41,1.84-6a2.55,2.55,0,0,1,1,1.2c.37.69-1.08,3.76,1.76,1.4,1.1,2.18,3.07,4.07,2.13,6.88A1.85,1.85,0,0,1,944.33,675.92Z" fill="#0d0c0a"/><path d="M953.83,737.08q-1.08,3.1-2.14,6.19l-.93-.07V735c2-3.56-2.61-5.66-2-8.92,1.75.06,2-1.29,2.4-2.53Z" fill="#0d0c0a"/><path d="M943.07,778.12c-.21,6.55-2.9,11.6-2.87,17.11C938.5,790.45,939.39,785.17,943.07,778.12Z" fill="#0d0c0a"/><path d="M945.3,758.49l-1.2,1.31c-1.08-2.63-3.12-4.91-.68-8.16,1.55-2-2.07-4.08-1.45-6.58.41-.5.81-.51,1.22,0C943.83,749.54,946.16,753.77,945.3,758.49Z" fill="#0d0c0a"/><path d="M939,658.05c-.63,2.14.91,4.73-1.33,6.55-1.28-4.67-1.52-9.4-.8-15.76C937.79,652.88,938.39,655.46,939,658.05Z" fill="#0d0c0a"/><path d="M943.19,745.06H942c-.36-3.25-.4-6.46,1.65-10.22C944.43,738.85,943.58,742,943.19,745.06Z" fill="#0d0c0a"/><path d="M936.06,907.65a15.7,15.7,0,0,1,.18-9.89A17.17,17.17,0,0,1,936.06,907.65Z" fill="#11100e"/><path d="M949.73,602.32c1-1,3-1.29,2.74-3.38-.81-5.94.69-12-1.29-17.89l2.84-1c2.34,6.28,2.06,12.61.29,19,0,2.08.32,4.29-1.78,5.73-1.3.55-2-.14-2.46-1.24Z" fill="#1e1b16"/><path d="M943,511.75c-.43,4.22-.87,8.43-1.45,14.06C938.8,520,941.07,516,943,511.75Z" fill="#342d26"/><path d="M946.37,492.93c0,3.25.18,6.45,2.25,9.19-2.85.89-3.06-1.09-3.17-3s-.09-4.05-.13-6.08A4.16,4.16,0,0,0,946.37,492.93Z" fill="#aea498"/><path d="M994.09,807.33q.18-11.87.37-23.74c0-1.17.91-1.25,1.68-1.54,3.12,7.73.94,15.51.23,23.28-1.28,1.32-.6,3.1-1.07,4.61C993.06,809.92,993.93,808.46,994.09,807.33Z" fill="#0d0c0a"/><path d="M955,510.42a70.67,70.67,0,0,1-6.65-14.56c.33-.54.65-.54,1,0,3.18,3.42,1.55-2.08,3.35-1.59,2.89,4.46,2.52,10.09,4.41,15Z" fill="#73675b"/><path d="M968.52,578.38c-3.13-2.25.33-4.71-.23-7.08-.93-4-1.74-7.94-2.46-11.94-1.66-9.22-.84-18.26,2.39-28.32.67,4,1.15,6.75,1.63,9.55-2.71,7.95-3.05,15.94.16,23.81C972,569.41,969.38,573.76,968.52,578.38Z" fill="#1e1a16"/><path d="M963.35,627.43l1.88,4.4a40.37,40.37,0,0,1,.1,11l-3.69,6.61C961.77,642,963.51,634.8,963.35,627.43Z" fill="#1e1a16"/><path d="M971.31,639.4c-.71-.35-1.71,3.74-2,0-.6-7.32-.75-14.67-1.09-22,1.49-1.65.52-4,2.27-7.08C970.31,620.91,972.66,630.05,971.31,639.4Z" fill="#1e1a16"/><path d="M949.14,532.93c-.74-7.14-.31-13.87,2.29-20.55C953.84,516.69,952.53,528.82,949.14,532.93Z" fill="#26211c"/><path d="M953.29,563.49c-2.3-1.74-1.93,1.58-3.25,1.71-1.54-7.1-1.92-14.12,1.85-21C950.89,550.79,952.3,557.12,953.29,563.49Z" fill="#1e1a16"/><path d="M945.42,417.9c1.18-2.91.35-6.28,2-9.09,1.31.26,1.48,1.67,2.38,2.35-.57,4.94,1.7,10.39-2.76,14.93C945.45,423.46,947.41,420.23,945.42,417.9Z" fill="#968b7e"/><path d="M944.21,441.91c.08-1.34.32-2.72-1.16-3.55-1.16-1.79-.23-3.67-.24-5.51.65-1,1.11-3,2.47-2s.79,2.91.24,4.46a12.54,12.54,0,0,0,1.5,6.29c.64,1.37,1.34,3.06-.88,3.4S944.27,443.31,944.21,441.91Z" fill="#a99c8f"/><path d="M943.36,432.78c-.1,1.86-.21,3.72-.31,5.58-1.34.62-2.09.41-1.84-1.27.32-2.17.62-4.34.92-6.5h1A1.68,1.68,0,0,1,943.36,432.78Z" fill="#aea498"/><path d="M943.36,432.78l-.21-2.2c.63-1,2.14-2,2.59-1.36a5.31,5.31,0,0,1-.22,6c-.16-1.21-.32-2.42-.49-3.64Z" fill="#aea498"/><path d="M938.09,418.45c-.07,3.77,2.63,7.27,1.14,11.89C936.42,426.2,937.85,422.25,938.09,418.45Z" fill="#aea498"/><path d="M978.13,817.26c-1.79-10.59-2-21.2-2.13-32-.07-7.09,2.56-14.4-.49-21.85-1.08-2.62.67-7.08-.88-10.61-.31-4.53-1-9.18,3.52-12.33,2,7.23,4.35,14.44,2.15,22.09-1.75,7.72.39,15.3.93,22.93.07,1,1,2,0,3a40.07,40.07,0,0,0-1.36,23.66C980.45,814.82,979.88,816.24,978.13,817.26Z" fill="#0d0c0a"/><path d="M989,764.87c-.32-.77-.65-1.54-1-2.31l.46-.59c1.95-1.17,2.65-2.79,1.79-5-.47-4.34-3.24-8.55-.79-13.07,3.2,1.67,3.37,6,6.69,7.59,1.28,1.69.83,3.52.27,5.26-1.44,4.47-.9,9.09-1.16,13.65a24.07,24.07,0,0,1-1.39,5.65l-1.19,1.18c-2.22-2.94-1.5-6.53-1.14-9.56S989.7,765.84,989,764.87Z" fill="#0d0c0a"/><path d="M983.19,764.49c1.93-.24,4-1.1,3.68,2.49a93.24,93.24,0,0,0,0,9.89c.06,2-.46,3.82-2.32,5C984.5,776,984.92,770.17,983.19,764.49Z" fill="#0d0c0a"/><path d="M971.66,838.23c.35-3.36,3.79-5.92,2.5-9.7,3.27,1.42,1.2,4.39,1.91,6.55-.47,1.74-2.72,2.69-2.19,4.89a1.58,1.58,0,0,1-.18,2C971.41,841.62,973,839.15,971.66,838.23Z" fill="#0e0e0d"/><path d="M965.2,800.92a48.17,48.17,0,0,0,2.21,15.85,32.51,32.51,0,0,1-.2,19.44c-6.51,15.66-4.14,31.86-2.63,47.94a9.07,9.07,0,0,1-2.51,7.84c-.55-7.42-1.05-14.08-1.52-20.74-.22-3.13.3-6.49-.68-9.36-2.54-7.48-1.16-14.71,1-21.75,2.48-8.2,2.59-16.39,1.77-24.74-2.48-5.29-3.8-10.65-1.06-16.29.86-1.51,1-3.79,3.25-3.88.82,0,1.2,1.23,1.35,2.16A7.68,7.68,0,0,1,965.2,800.92Z" fill="#0e0e0d"/><path d="M949.69,880.66c-1.52-11.84.82-23.94-2.48-35.66-.68-2.73.45-4.86,2.27-6.76a2,2,0,0,1,.18-.52,6.77,6.77,0,0,1,.59-.61,3.16,3.16,0,0,1,.4,1c1.4,17.86,4.65,35.56,4.82,53.53,0,1.83.32,3.91-.42,5.44-1,2-1.25-.78-2.11-.75C950.35,891.39,950.79,885.87,949.69,880.66Z" fill="#11100e"/><path d="M955.46,796.35a26.09,26.09,0,0,1,.26-17.73c2.36-6.37-.8-12.11-2.25-18a2.58,2.58,0,0,1,1.67-1.81,4,4,0,0,1,2.58.33c4,4.24,2.64,10.13,4.63,15a120.6,120.6,0,0,1-3.65,18.54C957.92,794.13,958,796.39,955.46,796.35Z" fill="#0d0c0a"/><path d="M957.78,824a33,33,0,0,1-4.46,12.88c-.33-8.83,2.59-17.46,1.93-26.29-.68-1.68-.22-3.17,1.57-3.25s1.39,1.75,1.33,2.93C957.93,814.81,958.6,819.4,957.78,824Z" fill="#0d0c0a"/><path d="M955.6,925.46c-1.92-5.88-3-12-5.9-17.58.49-1.88-.66-4.46,2.28-5.29l3.78,16.34C955.91,921.11,958.38,923.35,955.6,925.46Z" fill="#11100e"/><path d="M951.78,752c.25-2.09-.7-4.38,1-6.61,2.17,1.08.76,3.16,1.57,4.38a4.34,4.34,0,0,1-.16,5.37c-.3.38-.61.76-.92,1.13Z" fill="#0d0c0a"/><path d="M961.05,760.37c-3-2.85-3.59-6.44-3.32-10.37.14-2.07.49-4.42-2.47-5.06l.42-3.89c1.29-9-.1-17.75-3-26.29a30.8,30.8,0,0,1-.73-3.16c-1.21-2.81.37-5.45.54-8.17.14-2.23.68-4.42-.51-6.52a5.71,5.71,0,0,1-.49-1.46c.17-2.84-2.79-5.74.15-8.53,2.2-.67,2.65-2.33,2.46-4.36.14-1.61,0-3.32,1.64-4.34.66-2,2.81-1.32,4.09-2.23.71,3.26-1.79,5.82-1.92,8.9,1.3,12.36-.75,24.73,1.15,37.26,1.19,7.92,3.28,16.63-.08,24.88C962.22,751.07,962.12,755.64,961.05,760.37Z" fill="#0d0c0a"/><path d="M967.73,706a7.82,7.82,0,0,1,3.49,7.77,17.07,17.07,0,0,0,.77,6c1,3.71,1.27,7.31-.64,10.82q-1.83,5.52-3.65,11c-2.91-1.74-.85-4.18-.81-6.28.13-7.15,3.57-14.07,1.66-21.34C967.84,711.35,966.83,708.81,967.73,706Z" fill="#1a1917"/><path d="M962.12,732.37c-.54-7.23-.16-14.15-1.79-21.15-1.09-4.67,1.86-10.27,3.25-16.57,1.07,2.85,2.61,6.17,2.34,6.33-4.91,2.78-1.55,6.81-1.66,10.17-.16,4.63.25,9.28.23,13.91C964.48,727.55,964.93,730.3,962.12,732.37Z" fill="#1b1a19"/><path d="M972.81,659.08c-.65,2.16-1.69,3.93-4.22,4.21.42-4.31.84-8.61,1.34-13.87C973.19,652.73,973.06,655.89,972.81,659.08Z" fill="#171615"/><path d="M967.13,755.8c.45-.58.8-1.54,1.36-1.67,1.09-.26.92.81.79,1.42-.77,3.56-1.62,7.11-2.54,11.09-2.53-2.14-3-4.62-2.82-7.4A7.39,7.39,0,0,1,967.13,755.8Z" fill="#1c1c1a"/><path d="M966.18,684.85c-2.14-4.25-3.32-8,.06-11.79C967.52,676.83,969,680.43,966.18,684.85Z" fill="#0d0c0a"/><path d="M972.77,679c-3.44-4.08,1.34-7.82.22-12,2,.72,1,2.7,2,3.61C974.26,673.37,973.52,676.16,972.77,679Z" fill="#0d0c0a"/><path d="M992.72,740.8l-1.27,0c-2.75-6,1-11.19,2.17-16.69.42-1.31.32-2.9,2.11-3.77.45,1.71.88,3.34,1.32,5C997.66,731.08,993.77,735.54,992.72,740.8Z" fill="#0d0c0a"/><path d="M953.12,673.56c-2,3.14-.71,6.65-1.14,10-4.56-3.68-1.84-8-1.12-12.19l2.24,1.19A3,3,0,0,1,953.12,673.56Z" fill="#0d0c0a"/><path d="M940.88,874.47c1-2.91,2.11-5.83,3.17-8.74.44,7,2.51,13.87,2.22,21-.3.52-.59.49-.86,0-.79.66-1.65,1.93-2.35,1.85-1.38-.17-1.1-1.88-.92-2.72C943,881.86,942.19,878.15,940.88,874.47Z" fill="#11100e"/><path d="M945.41,886.68a2.26,2.26,0,0,0,.86,0l.52,3.32c-.45,3.34,1.86,6.44.91,9.81a14,14,0,0,1-1.16,2.36l-2.23-2.13c-1.81-3-1.48-5.94.08-8.89C945.66,889.88,944.88,888.13,945.41,886.68Z" fill="#11100e"/><path d="M952.24,604.56q0,3.35,0,6.69c-.43,1.74-.87,3.48-1.3,5.22-1.61-4.3-1-8.67-.89-13Z" fill="#1c1914"/><path d="M946.11,665.71c-.17-3.25-2.8-6.47-.17-9.78l1.09-1.16c1.13.43,1,1.55,1.26,2.42a3.61,3.61,0,0,1,.75,3.22C948.07,662.18,949.29,665.17,946.11,665.71Z" fill="#0d0c0a"/><path d="M966.07,786.51c3.3-4.7,1.52-10.38,2.95-15.46.52-1.88-.17-4.19,2.34-5.13-.54,6.29.2,12.63-1.67,18.9-.74,2.47-1.63,4.19-3.65,5.5Z" fill="#0d0c0a"/><path d="M973.73,804.31c-1,6.33,1.78,13-1.91,20.36-.57-5.79,1.23-10.34,0-14.87C972.81,808.1,970.09,805.09,973.73,804.31Z" fill="#0e0e0d"/><path d="M971.8,740c2.34,3.22.06,6-.8,9C968.35,745.67,971.19,742.91,971.8,740Z" fill="#1a1917"/><path d="M973.74,700.66l.26,1.91c1,5.38,2.5,10.69,2.34,16.24.38,1.55.68,3.05-1.74,3-2.65-6.19-1.08-13-2.6-19.3.48-.74-.09-1.92,1-2.4Z" fill="#1a1917"/><path d="M974.72,726.6c1.25-.58,1.55-1.73,1.74-3,3,4.24,2.75,9,2,13.74-2.38.71-2-1.16-2.35-2.44C975.46,732.2,976.27,729.2,974.72,726.6Z" fill="#1a1917"/><path d="M971.34,693.34l-1,2.4c-1-2.89-3.93-5.81.28-8.68C971.83,689.07,971.53,691.21,971.34,693.34Z" fill="#0b0a09"/></g><g id="frame"><rect width="1000" height="1000" fill="none"/></g></svg>