<!-- Copyright (c) 2022 Jan Stehno -->
<svg xmlns="http://www.w3.org/2000/svg" viewBox="0 0 1000 1000"><title>grayfox</title><g id="grayfox"><path d="M848.2,989.23c2.18.57.56,2.58,1.38,3.67.34.65.7.68,1.06,0,3.51-9.16,2.72-19.71,9.08-28.44,2.15,6.15-1.64,11.67-.55,17.31.34.75.69.75,1,0q1.78-8.13,3.55-16.27c3,4.3-.43,8.66,1.22,13.26.88-1.33,1.69-2.57,2.5-3.81l1,.29q-1.49,10.86-3,21.71c.62,1.6.74,3.83,3.45,2.74a15.92,15.92,0,0,0,3.19-11.61c-.91-7.17-.1-14.2,1.15-21.11,1.88-10.44-.19-20.33-2.32-29.59a30.1,30.1,0,0,0,3.22,6.53c4.22.45,7.4-2.38,5.7-6.29-2-4.51.45-6,3-8.13a5.82,5.82,0,0,0-.14-5.58c-1-1.75,1.45-.68,1.36-1.7,3-6.71,3.07-12.62-2.44-18.6-5-5.46-4.92-13-5.11-20.16-.06-2.53,0-5-1-7.4-.87-1.94-1.94-3.94-4.36-3.67-2.68.3-1.87,2.74-1.89,4.4-.06,3.79-3,5.19-5.52,7.39,1.7-4.44,2.73-7.71-2.81-10.59-2.08-1.09-2.52-6.58-5.89-8.51-2.41-1.37-5-3.89-7.58-.08-.2.35-.83.83-.87.76-1.07-1.83,1-1.77,1.61-2.63,3.09-2.09,4.84-4.35,9.11.31,3.59,3.92,8.18,6.94,9.24,12.78,3.22-1.56,3.19-3.43,4-4.94.34-.65.83-.7,2.25-1.08,5.21-1.39,4-3.47,2.4-8.2-1.82-5.31-3.29-10.7-10.5-12-3.16-.58-7.4-2.56-8.66-6.87-.79-2.69-2.3-4.49-5.25-4.48-3.49,0-4.4,2.7-5.24,5.4-1,7.65-1.72,8.41-9.28,9a3.36,3.36,0,0,0-3.32,2.81c-1.11,3.92-3.3,7.55-3.15,11.84.07,1.82.24,4.08-1.05,5.26-5.79,5.3-7,13.11-10.95,19.43-5.34,8.64-8.07,18.84-15.48,26.29-1.14,1.14-1,3-.6,4.6,1,3.13,4.32,4.73,5.19,8a8.26,8.26,0,0,0,.67,1.77c.89,6.48,4.85,11.3,8.67,16.19,8.66-8.81,16.07-18.51,20.9-30,1.58-3.76-.37-5.94-3.56-6.71-2.37-.57-4-1-3.3-3.8.88-3.73,1.16-8.11,5.06-9.88,2.25-1,4.23,1.18,5.28,3.38,1.26,2.63,3.1,4,6,3,3.48-1.16,1.54-3.66,1.19-5.73-.78-4.68,2.57-5.8,5.89-6.95,1.7-1.15-1.71-4,1.15-4.35,3.35-.4,3.92,3.23,5.6,5.13,1.36,1.52.29,3.48-.42,5.09-.2.43-1-.69-1.52-.56-2,.51-1.07-.53-.9-1.43.75-4-1.44-4.11-4.33-3.19-4.46,4.28-1.5,10-3,14.46-1.64-3.32-4-1.65-6.34-.24-5.56,3.39-6.33,9.35-7,14.89a83.93,83.93,0,0,1-2.7,13.4c-.66,2.25-1.34,4.58.89,6.31,2.42,1.88,4.42,6.37,7.3,5.12,3.56-1.54,5.53-5.9,6.33-10,.42-2.18-.21-4.56.53-6.79a14.31,14.31,0,0,1,2.18-4.88c1.23-1.71,1,.09,1.25.58.89,11.6-5.43,19.27-14.2,25.93-.1,0-.46-.19-.53-.7-.6-4.36-1.21-9.94-5.62-10.83-4.68-1-8.05,4-9.77,8-1.49,3.43-3.34.82-4.81,1.51-2.11,4.79.92,8.53,4,10.45,6.21,3.94,8,10.68,11.78,16.07,1.3,1.83,1.8,4.19,4.67,4,.64-1.36,1.7-3.64,2.41-.43.82,3.65.5,7.55.68,11.35,3.56,1.77,3.7-1,3.85-3.17.18-2.75.09-5.51.95-8.09C845.94,983.36,842.92,987,848.2,989.23Z" fill="#623624"/><path d="M605.52,824.68c4.15,3.21,9,4,14.05,4.13a196.69,196.69,0,0,0,45.69-4.5c10.62-2.23,21.94-1.25,33-1.25,4.15,0,8.19-.1,12-1.6,8.73-3.44,17.83-1.77,26.77-2.29a1.47,1.47,0,0,0,1.77.11c2.51-4.22-2.06-4.53-4.32-7.22,4.35.56,8.09.87,9.73-3.59.53-1.44,2.15-1.54,3.49-1.62,8.69-.53,11.33-7.32,14.2-13.89a4.92,4.92,0,0,0-1-2.69c-3.92,1.9-8,3.05-11.11,6.87s-6.63.71-9.28-2.17c-4.69-.56-9.15.36-10.37,5.42-1.34,5.54-5.91,5.61-8.16,3.68-6.25-5.35-13.79-5.76-21-7.65-1.32.68-2.88-.17-4.21.6-2.52,1.79-4.33,6.46-7.21,5.41-6.06-2.21-13.19-.39-18.45-5.27-1.74-1.62-1.83-3-1.17-5.33,1.2-4.21,3.38-8.43,1.85-13.09a5.85,5.85,0,0,0-1.59-1.34c-3.86-2.07-7.65-1.28-11.43.27-5.06,2.9-11.88.65-16.26,5.56,1.65,3.71-2.43,4-3.59,6-3.34,4.55-8.52,6.33-13.14,8.93-.55.23-1.09.51-1.63.78-2,1-4.54,1.52-5.36,4.17-1.91,3-5.07,2.07-7.79,2.55-2.72,1.54-8.62-2.33-8.07,4.8,1.79,3.79,4.8,4.88,8.48,3.32,6.86-2.93,14.28-4.16,20.83-8.3,5.29-3.34,11.65-4.91,17.17-8.18,3.31-2,6.28-.37,7.87,3,2.23,4.75,5.86,7.33,10.87,8.51a14,14,0,0,1,8.11,4.84,13.09,13.09,0,0,0,8.78,5.15c-6.33-1.39-12.25,1.35-18.42,1-6.87-.41-13.25,2.63-19.85,4-11.16,2.28-22,2.74-33,0C611,823,608,822.11,605.52,824.68Z" fill="#49362f"/><path d="M605.52,824.68c10.88,1.74,21.84,4.06,32.81,2.36,7.48-1.16,15.43-1,22.24-5.16,1.17-.72,2.18-.26,3.24-.16,7.09.67,14.13-2.33,21.26-.24,1.77.53,3.86.42,4-2.27s-1.71-3-3.67-2.86c-3.79.31-5.89-1.09-8-4.6-1.89-3.08-6.26-4.82-10.08-5.1-4.8-.34-6.77-3.22-8.17-7-2.25-6.08-6.69-7.3-11.22-3.71-6.32,5-14.46,5.64-21,10.52-4.92,3.68-12.17,4.11-18.24,6.36-3.68,1.37-2.66-4.18-5.64-3.39-1.91-1-2.91.22-3.85,1.59C596.58,816.89,598.27,820.52,605.52,824.68Z" fill="#2b1f1a"/><path d="M687.83,570.67c-.41,3.82-.65,7.63.91,11.28,1.8,4.22.81,8.23-.85,12.2-1.39,2.3-.39,4.83-.69,7.22,1,2.25,2.07,1.22,2.77,0,1.24-2.25,1-4.93,2.13-8.25,1.07,4.23,2.91,7,7,7.07.93,0,2.13.2,2.34,1.1,1.49,6.63,7.13,9.82,11.28,14.26,1.93,2.06,2.18,4.88,2.6,7.67.77,5.12,4,7.69,7.9,5.48,3.59-2,3.53,1.71,5.37,2,3.58-.18,6.73-1,7.92-5a3.6,3.6,0,0,0-.74-1.82c-3.11-2.32-4.75-7.23-10.29-5.62,1.8-.77-.22-5.9,4-3.07,1.3.87,2.63,0,3.49-1.22,1.12-1.55.64-3-.52-4.31-.3-.34-.61-.67-.94-1-1.85-1.78-3.75-3.8-2.76-6.5,1.23-3.35,4.61-2.29,7.12-2.46,3.87-.27,8,.37,9-5a4.42,4.42,0,0,0-.37-1.86c-1.88-1.62-4-3-4.06-5.95a4.89,4.89,0,0,0-4.12-3.52,18.73,18.73,0,0,0-4-.73c-5.66.27-12,2.59-13.39-6.62-.41-2.59-4.41-3.26-7-3.25-4.79,0-1.7,3.75-2.07,6.39-.24-3.26-2.81-4.11-4.09-5.94-5.5.37-9.59-5.17-8.4-11.36.68-3.52,1.91-7.2-2.4-9.43-1.83,1.19-3.12,3-4.82,4.33a5,5,0,0,0-.54,1.81c-.51,5.77,2.93,11,1.66,16.67C689.51,574.67,691.65,570,687.83,570.67Z" fill="#a18f77"/><path d="M738.81,818.81l-1.81.36c6.7,4.28,14,8,16.57,16.45a23,23,0,0,0,7.21,12.79c3.08,2.72,3.25,6.39,3.06,10.09-.35,6.73,3.15,13,3.67,19,1.39,16.34,15.52,23.93,21.74,36.69,1.63,3.35,2.21,8.49,8,7.63.41-.2,1-.44,1.06-.79.78-8.39,4-16.14,6-24.21.57-2.35.4-5,1.35-7.33.51-1.27,1-2.8-.17-3.85-1.47-1.27-3.06-.32-4.42.47-3.64,2.12-5.19,5.6-6,9.58-.39,1.89-.05,4.54-3,4.71-2.44.14-4.88-1-5.61-3.23-2.25-6.87-8.25-11.42-10.51-18.33-2-6.15-1.58-9.33,3.84-12.86a14.5,14.5,0,0,0,5.33-6.09c2.77-5.79,5.43-11.64,8.27-17.4a13.48,13.48,0,0,0,1.5-6.65c-.1-2.66.77-6.42-2.38-7.22-3.94-1-3.15,3.49-4.45,5.57a2.73,2.73,0,0,1-1,1.08c-2.51-.44-2-3.18-3.19-4.64A12.41,12.41,0,0,0,772.3,826c-6,.71-7,.8-10.89-1.13-3.4,1.4-6.89,3.73-9.71-.95a12.27,12.27,0,0,0-3.09-1.94c-2.57-.89-4.64-2.77-7.2-3.68A2.82,2.82,0,0,0,738.81,818.81Z" fill="#623624"/><path d="M630.47,682.54c-1.91,8.55-2.19,17.65-8.31,24.76-6.87,10.41-17.15,17.76-24.54,27.7h0c-1,1.36-2.27,2.63-2.55,4.46.26,2.8,1.44,4.6,4.57,4.23,4.44-4,7.83-9.59,14.7-10,2.6-3.62,6.89-5.76,8.77-10-1.29-4.2.2-6.68,4.26-8.43,6.29-2.7,9-8.76,7.25-15.49-1.45-5.59-.56-11.07-.06-17.31,1.37,3.6-.1,7.75,4.35,9,4.18-1.06,4.7-4.72,5.66-8.07,5.18-6.65,4.78-15.77,9.84-22.48a4.15,4.15,0,0,0,.17-1.34c-.28-2.36.45-5.67-2.86-6-2.62-.26-3,2.86-4,4.77a13.3,13.3,0,0,0-1.42,4.37c-.47-.9.16-3.27-2.07-4-6.24,1.16-6.06,7.22-8.46,11.31l0,0C634.23,674.27,632.05,678.28,630.47,682.54Z" fill="#887763"/><path d="M852.42,598.27c-19.66-11-40.77-16.57-62.95-19a14.61,14.61,0,0,1-8-3.11,298.44,298.44,0,0,1-45.09-45.29c-.3-.36-1.28-.17-1.93-.23-2.14,4.07,1.21,6.22,3.05,8.9a119.82,119.82,0,0,1,15.44,16.32c7.59,9.84,18.09,16.41,27.15,24.58a6.91,6.91,0,0,0,3.79,1.41c3.32.37,7.12-.15,7.29,5.07.06,2,1.79,2.16,3.55,2.31,5.72.49,10.91,2.53,16.17,5,8.21,3.8,16.89,6.57,26.16,6.4,2.55,0,6.24,2.57,8.8,2.49C848.84,602.39,850.28,600.91,852.42,598.27Z" fill="#714b39"/><path d="M851.11,598.16a14,14,0,0,0-3.5,1,3.49,3.49,0,0,0,.27,6.51l.06,0c3.79,1.19,6.57,4.46,9.89,5.55a20.45,20.45,0,0,1,13.11,11.57,2.83,2.83,0,0,0,1.22,1.27c5.25,2.14,11.07,3.31,14.07,9.08a5.24,5.24,0,0,0,4.66,2.49c10.05.48,16.51,7.94,24.21,12.83,4.69,3,5,7.27,1.48,11.54-1.84,2.27-1.87,3.79.75,4.62,6.35,2,12.79,3.69,19.19.52a3.16,3.16,0,0,0,1.65-1.93,6.79,6.79,0,0,0-.07-3.63,6.7,6.7,0,0,0-1.59-2.56,136.75,136.75,0,0,1-11.58-8.33,10.89,10.89,0,0,1-5.27-5.77c-1.12-2.75-3.24-3.59-5.53-4.42a3.93,3.93,0,0,0-1-.2l-1.46-.09a3.51,3.51,0,0,1-1.28-.33c-3.28-1.57-6.39-3.47-9.66-5.06a3.3,3.3,0,0,1-1-.73c-.75-.81-1.51-1.62-2.27-2.42-4.48-3.66-8-8.6-13.66-10.7l-8-4.82c-6-5.24-13-8.9-19.59-13.32l-2.52-2A3.39,3.39,0,0,0,851.11,598.16Z" fill="#714b39"/><path d="M738.42,539c-1.31-2.79-4.13-4.84-4-8.33-6.5-3.73-10.66-9.75-15.06-15.55a65.84,65.84,0,0,0-13.61-13.27c-2.74-2-5.57-2.84-8.41-.13l.51.82c6.28,4,11.12,9.16,14,16.32,2.24,5.5,6.55,9.92,9.28,15.23,3.72,5.9,4.61,13.13,8.78,18.8a2.41,2.41,0,0,0,1.9.07c1.38-1.78,2.11-5.1,4.83-.65,4.65,7.6,8.41,15.69,13,23.27,1.3,2.13,1.94,5.39,5.66,4.65,2-3.17.72-6.38-.37-9.27-3.91-10.48-7.25-21.32-15.61-29.42A4.54,4.54,0,0,1,738.42,539Z" fill="#4a3c32"/><path d="M575.5,797.21c5.62.88,9.74,5.12,15,6.81,1.52.68,3.25,1.12,4.34-.32,1.32-1.74-.17-2.91-1.54-3.8a7.26,7.26,0,0,1-2.5-3.17,7.69,7.69,0,0,0-1-1.53,17.46,17.46,0,0,1-5.39-6c-3.24-3.68-4.5-8.15-5.08-12.9-.95-2.13-1.95-4.22-4.6-4.63-2.67.89-4.29,3.36-6.76,4.54-2.29,2-5.17.21-7.61,1.21a1.87,1.87,0,0,0-.21,1.73l.46,5.41C563.89,790.77,570.6,792.91,575.5,797.21Z" fill="#30261f"/><path d="M690.63,558.28l.3-1.49c.52-.42,1.25-1.4,1.14-1.47-4.11-2.51-.33-5.76-.82-8.57a5.51,5.51,0,0,0-.48-1.83c-.73-10.43-4.61-20.68-1.62-31.29.81-3.58,4.19-6.47,2.83-10.64-4.42.64-11.75,7.64-11.87,12.08-.3,11,.1,21.91,4.88,32.12,1.83,3.46.43,7.17.81,10.74.2,1.83,0,4.11,2.3,4.35C690.93,562.57,689.8,559.65,690.63,558.28Z" fill="#715d46"/><path d="M635.74,669.93c4.33-2.53,3.57-8.89,8.24-11.16,6.6-10.25,16-18.23,22.46-28.65,4-6.42,9.85-11.24,14.93-16.74,2.6-2.82,5.76-5.19,7-9.07a2.52,2.52,0,0,0-.37-1.89c0-2.76-.09-5.51-.13-8.27-.43,8.63-6.94,13.23-12.21,18.62-13.52,13.84-25.58,28.78-35.09,45.79C638.53,662.25,634.65,664.93,635.74,669.93Z" fill="#a48f76"/><path d="M808.55,932.12l-.45,4.44c-.19,5.52,2.84,9.54,5.24,14.26,6.34,12.42,19.54,20,22.36,34.64a4.61,4.61,0,0,0,2.58-5c-3.8-4.86-7.63-9.64-9-16a5.81,5.81,0,0,0-4.19-4c-4.85-1.58-6.61-5.5-7.07-10.24a1.7,1.7,0,0,0-1.47-1.35c-1.94-1.23-1.5-3-1-4.77.27-1,.78-3-.08-2.87C806.65,943,811.57,934.51,808.55,932.12Z" fill="#623624"/><path d="M589.28,797c.9,1.31-.13,3.63,2.21,4.19,1.12.27,3.07-.08,2.5,1.86-.18.62-2.28.67-3.5,1,1.42,2,3.58,1.1,5.43,1.42a2.25,2.25,0,0,0,1.87.3c2.05-1.53,5.07-1.71,6.24-4.49-.94-3.11,1.75-5.33,2.05-8.39.52-5.2,1.09-6.08-3.88-9-3.18,1.18-2.14,5.5-5,6.9C595.19,793.72,591.33,794.19,589.28,797Z" fill="#7d6b5c"/><path d="M560.6,777.69c2.71,1.3,5.43,2.8,8.08-.11.93-2.83,2.54-4.92,5.69-5.36,2.09.64,2.31,3,3.87,4.18,2.81-3,2-6.54,1.32-10a4.6,4.6,0,0,0-1.32-1.82,10.43,10.43,0,0,0-5.16-1.66,8.82,8.82,0,0,0-5.5,2.59L566,766.62C563.21,769.81,559.23,772.42,560.6,777.69Z" fill="#594d42"/><path d="M567.58,765.48l5-1.82a7,7,0,0,0,5-3.25c3.87-7.18,9.59-12.59,15.9-17.48,1.32-1,1.6-2.73,2.62-3.94.5-1.33,1-2.66,1.49-4C583.93,741.48,576.57,754.29,567.58,765.48Z" fill="#746252"/><path d="M690.63,558.28c-.77,1-1.58,2.89-2.31,2.86-2.11-.09-1.57-2.19-1.79-3.64-.53-3.43,1.31-7.22-1.54-10.31.33,7.9-1,16,2.84,23.48,2.06,1.29,1.17,4.45,3.6,5.66C693.55,570.16,692.31,564.21,690.63,558.28Z" fill="#806c5b"/><path d="M998.35,751.55a22.09,22.09,0,0,0-2,22.15c1.19-2.3,2.41-4.68,3.63-7.05Z" fill="#663f2b"/><path d="M597.62,735c9-8.47,19-16.12,24.54-27.7C614,716.53,603.07,723.31,597.62,735Z" fill="#887763"/><path d="M692,503c-1,3.39-3.8,6-4.12,9.72-1.18,2.63-.75,5.28-.29,7.8.55.47,1.12.71,1.34.43,4.55-5.79,8-12.12,8.93-19.59l-.4,0-.77-.09C694.78,501.18,693.3,500.6,692,503Z" fill="#af9a83"/><path d="M856.22,600.89c5.59,6.39,12.8,10.38,20.29,13.94C871.47,607.64,864.31,603.57,856.22,600.89Z" fill="#714b39"/><path d="M597.71,805.07l-1.79.37c1.16,1.82,3.17,3.12,3.25,5.58l3.85-1.59c1.89-3.67,5.87-.84,8.32-2.73,2.61-2.94.74-4-1.92-3.77A45.1,45.1,0,0,0,597.71,805.07Z" fill="#a19183"/><path d="M575.5,797.21c-2.82-6.8-11.2-6.94-14.92-12.65C562.77,792.1,569.05,794.76,575.5,797.21Z" fill="#594d42"/><path d="M630.47,682.54c3-3.64,5.71-7.45,5.25-12.58C632.93,673.71,629.59,677.23,630.47,682.54Z" fill="#887763"/><path d="M934.24,859.07c2.14-6.74,6.21-13.11,4-20.7-2.55-4.12-5.71-7.29-11-6.29-2.67.5-4.38-.91-6-2.52a27.85,27.85,0,0,0-5.14-4.5c-2.3-1.36-4.74-3.77-7.43-2s-1.13,4.55-.34,6.93c.35,1,1,2.4-.72,2.68a2.3,2.3,0,0,1-2.86-2.2,5,5,0,0,1,.32-2c1.66-5.16.31-8.93-4.76-11.3-1.28-.6-2.28-1.89-3.4-2.87,1.73.65,3,3.51,5.25,1.5s.26-3.77-.8-5.41a80.25,80.25,0,0,1-6.15-10.73,86.55,86.55,0,0,0,6,10.33c1.45,2,2.46,4.56,5.65,4.23,1.26-.13,2.58.49,2.62,1.68.28,8.08,8.8,8.53,12.34,13.62,1.24,1.79,3.69,1.9,5.4,0,1.87-2.09,1.78-4.85-.52-5.93-8.54-4-9.6-14.42-16.93-19.32-.76-.51-1.58-1.6-1-2.31,3.16-4.18.31-6.7-2.31-9.33-3.46-3.48.67-4.46,2.3-6.65-2.95,9.71,3.39,14.18,9.69,18.59,2.31,1.61,5.19,3.18,7-.33,1.58-3.13-.3-5.2-3.48-6.05a14.9,14.9,0,0,1-6-3.24c1.21-.77,4,.28,3.66-1.68-.7-3.5,1.1-8.49-.28-9.91-4.63-4.76-3.19-14-11.61-15.68-1.07-.22-1.66-1.51-2.34-3.25,3.64-.82,5.19-3.28,6.34-7a13.34,13.34,0,0,0-.65-10.32c-1.75-4.07-2.56-8.48,2.23-12.12,4.36-3.31,4.1-10.86-.13-16.49a68.18,68.18,0,0,1-4.27-7c-1.67-2.9-.65-4.7,2.83-6.76-.79,2.69-2.36,5.8,1,6,3.9.27,8.4.78,10.5-4.16-1.47-7.69-5.14-10.41-14.14-10.49-2.6.3-4.93,2.69-8.11.89,4.74-6.51-1.36-7.09-5.35-9.28,4.18-3,2.73-7,1.9-10.77-.73-3.36-3.05-4.83-6.08-3.79-5.85,2-11.72,1.06-17.6.83-4.9-.2-8.51,1.84-10.22,6.45-1.82,4.9.9,7.68,4.48,11,5.41,5,11,6.56,17.84,4.78,2.15-.56,3.89.08,3.74,2.51-.16,2.67-2.32,1.53-3.68,1.24-6.05-1.27-11.52,2.85-17.7,1.76.73-2.3,4.3-3.14,3.45-6s-3.69-3.23-6.05-3.92c-5.13-1.51-8.75-3.75-6.46-10.1a3.15,3.15,0,0,0-1.5-3.61c-5.09-2.87-10.72-3.68-16.42-3.4-2.17.1-2.58,2.32-2.31,4.32a12.23,12.23,0,0,0,6,9.51c2.49,1.5,5.41,2.28,8.89,5.12-6.31-1.14-11.52,2.71-16.27-1.8a3,3,0,0,0-3.85.2c-4.94,3.87-9.77,2.45-14.65-.11-2.53-1.32-5.76-2.48-7.48.16-2,3,2,4.28,3.59,6.34a50.43,50.43,0,0,0-6.77-1.89c-2.12-.12-4.24-.3-4.43,2.78-.46,7.59-3.3,13-11.86,13.41-.62,0-1.17.66-1.65,1.17-.35,3.55,2.82,4.12,4.76,5.74,4.73,2.4,9.92,3.37,15,4.68,2.06.53,5.47-.49,3.69-2.56-3.53-4.07.37-6.59.57-9.82-.24,5.29,2.51,6.79,7.13,5.62,2.84-.72,5.77-1,7.49,1.61,3.71,5.68,7.65,11.48,9.35,18,2.15,8.24,6.44,13,14.59,13.34,2.27.11,4.86-.32,6.08,2.12,1.5,3-1.9,3-3,4.39-1.74,2.19-1.44,4.74-.93,7.25.53,2.67,2,5.15,1.59,8.69-3.5-1.41-4.74-4.29-5.5-7.19-1.53-5.88-6.74-6-10.89-6.53-3.75-.46-3.09,3.06-2.18,5.52,2.23,6,6.77,10.85,9.07,17-3.56.55-5.32-.73-5.86-4.49s-1.15-8.31-7-5.52c-1.31.62-1.46-.57-2-1.12-1.33-1.39-2.8-2.77-4.68-1.32-1.46,1.11-1,3-.56,4.5,2.18,7.18,2.18,15.12,7,21.38,1.49,1.94,2.25,5.91,6.38,3.34.85-.53,1.73,1,.61,2.14-4.75,4.73-2.21,10,.82,12.92,5.61,5.43,6.06,11.92,6.71,18.71.68,2.54-.62,4.07-2.34,5.77s-4.11,4.15.4,5.72c1.73-1.38,1.73-5.19,5.38-3.9,2.85,1,3.06,3,2.14,5.52-.37,1,.18,2.35.88,2.16,5.26-1.44,6.61,6.41,12.37,4.86,3.21-.87,3,3.83,4.46,5.9,2.4,3.35,2.47,6.91,2.4,10.72-4.16.18-1.74-4.57-5-5.22-1.62,3.17-.15,6.7-1.47,11.71-.94-3.28-1.43-5.17-2-7-.82-2.62.61-8.1-5.44-3.93-1.81,1.25-2.32-1.74-2.74-2.92-2-5.61-4.2-7.67-8-1.23-.46.76-2,.89-3,1.31A3.17,3.17,0,0,0,848,866c4.67-2.18,10.13,1.41,10.91,7.14.17,1.22-1.2,3.56.43,3.52,10.28-.23,2.1,4.53,1.8,6.86-.18,1.45-.63,2.68.67,3.65a1.89,1.89,0,0,0,3-.48c2.1-4.31,11-5.42,4-14.1,6.06,1.94,6.32,5.59,6.24,8.3-.36,10.86.59,21,9.31,29,1.21,1.09,2.36,3.84.15,5.5-3,2.28-1,5-1,7.5.55,5.11,4.18,9.28,4.4,14.49,1.1,1.77-.21,4.1,2.57,7.35,2.37-10.45,3.71-20,6.68-29,.78-5.22-3.34-9.39-3.27-14.93,3.43,1.32,2.65,5,4.6,6.81,3-.55,6.94,1.6,8.51-3-.11-1.31-.21-2.62-.32-3.92-2-1.52-5.39-2.74-1.16-5.58l.52-3.27c2,1,2.13,3.13,3.1,4.67.45,3.57,1.27,7,4.05,10.33,4.62-7.15-.21-13.66.34-19.45.44,1.72.34,4.38,1.92,6.51,2.64,2.4,3.91,7.16,9,5.27,0-3,.64-6.08,0-8.92-2-9.66,0-19,1.76-28.33,0-.22,0-.54.12-.65,1.09-.92.62.65,1.1.72.93,1.94,1.35,4.84,4.22,4.3,3.54-.66,1.12-3.58,1.44-5.48A2.43,2.43,0,0,1,934.24,859.07Z" fill="#5b3120"/><path d="M846.66,843.9c-2.5-2.83-1-4.53,1.78-5.38,4.35-1.35,3.27-3.33.95-5.66-4.47-.52-4.47-.52-5.77,4.29-3.31-4.08-4.6-11.55-11.89-8.91-6.5,2.35-6.06,8.37-4.53,14.71-3-7.82-2.15-16.7-11.29-20.17-1.89-.72-2.23-2.87-2.56-4.64-1.13-6.07-3.92-11.75-3.76-18.14.1-3.92-2.43-6-6.22-5.59A67.66,67.66,0,0,0,788.09,798a9.19,9.19,0,0,0-5.56,6.6c-1.64,6.07-5.76,9.44-11.14,12.22-4.17,2.15-8.91,4.16-11,9.12a4.68,4.68,0,0,1,4.06,2.18c1.57,2.54,2.66,2.28,5.16.62,5.36-3.58,12.62-.09,14,6.3.39,1.83.31,4,2.66,4.13s2.88-2,3.48-3.66a59.47,59.47,0,0,0,1.57-7,12.24,12.24,0,0,1,1.19,12c-2.69,6.73-6.23,13.13-9.43,19.66a7.77,7.77,0,0,1-4.69,4.5c-5,1.77-6.54,8.52-4.92,13.74,2.33,7.57,9.45,12.16,11.19,20.2.58,2.72,5.12,4.43,8.69,4.28,4.36-.19,2.54-4.07,3.1-6.34,1.2-4.8,2.73-9.09,8-10.37-1,11.91-7.73,22.45-7,34.61.92,1,1.84,2,2.77,2.95a1.53,1.53,0,0,0,2.59,0c-1.28-4.8,3.1-6.88,5.19-9.71,3-4,4.66-8.63,7.12-12.75,5.15-8.62,7.11-19.09,14.8-26.2a5.78,5.78,0,0,0,1.58-5.72c-1.14-5.11,2.87-9,3-13.77,0-1,.65-1.55,1.8-1.51C845,854.5,847.45,852,846.66,843.9Z" fill="#5b2c1b"/><path d="M816.55,948.83l1.47,1.35,5.19,3.84c-1.32-6.91,4.74-8.36,7.34-12.29a1.54,1.54,0,0,1,2.78.24c1.06,3.12,3.82,5.8,2.89,9.44-.31,1.22-1.89,2.29-.23,3.49,1.44,1,2.55-.08,3.57-1,4.34-3.76,7.91-8.28,12.31-12.08,3.39-2.92.94-10.56,3.91-15.46l-2.32-1.14c-3.37-.76-3.41,2.9-5.32,4.07-1.61,5.73-1.38,12.08-5.63,16.92-1.56-3.49-8.65-4.35-7.2-7.31,4.65-9.45,0-21.53,8.67-29.54,1.36-1.25,2.9-2.93,4.63-2.16.85.38.79,2.84,1.17,4.49,4.62-5.44,1.34-12.44,3.75-18.23.31-.3.42-.59.3-.88s-.23-.42-.34-.42c-7.76,0-9.63,3.48-6,11.36-1.8,0-4.2,2.09-4.82-1.31-.83-4.56-4.3-5.57-7.82-5.86-4.14-.35-2.56,4.43-4.6,6.21s-1.25,4.76-1.79,7.15c-.67,2.89-1.61,6.76,3.89,4,1.9-1,2.92.78,3.82,2,1.28,1.76-.65,2.75-1.14,4.14C831.15,931,821.49,938.39,816.55,948.83Z" fill="#75442e"/><path d="M875.46,944.61c4.16,10.65,1.57,21.71,2.21,32.71,2.29-5.19,4.52-10.4,6.91-15.55.93-2,1.41-4.45.33-5.94-6-8.34-1.83-17.65-2.89-26.42-3.69,1.44-9.61,1.48-3.54,7.92C879.86,938.78,878.52,943,875.46,944.61Z" fill="#623624"/><path d="M853.49,892.19a11.29,11.29,0,0,1,0,1.3c.88.14,2.54.36,2.54.42-.33,3.67.57,6.66,4.13,8.33,5.5-6.48,1.31-11.35-2.67-16.23-.92-1.13-2-1.85-3.37-.52C852,887.55,852,889.79,853.49,892.19Z" fill="#75442e"/><path d="M848,866l-1.36-4.12c-2.35,1.17-3.31,2.93-2,5.43.46.91.77,2.45,2.16,2.08C848.47,868.9,847.84,867.2,848,866Z" fill="#5b2c1b"/><path d="M848.14,929.32c3.21.56,2.88-3.6,5.32-4.07.15-1.08.31-2.17.58-4C850.6,923.4,848.64,925.79,848.14,929.32Z" fill="#75442e"/><path d="M802.84,923.84l-2.59,0,7.94,7.14C808.26,927.16,805.19,925.77,802.84,923.84Z" fill="#623624"/><path d="M922,707.27c-1.27,1.86-3.28,1.34-5,1.49s-4.13,2.74-5.2-.18c-.88-2.39,2.89-2.09,4.15-4.09-3.45-1.72-6.21-2.26-8.73.91-2.1,2.65-1.78,4.28.38,7.34,3.44,4.85,6.37,10.67,7.39,16.47.74,4.24-4.18,6.53-7.66,7.46-.35,8.11,5.56,15.16,2.23,23.61-1.83,4.67-4.84-.42-7.3,1.85,1.36,3.88,2.55,8,8,8.64,1.42.16,3.34,1.22,2.92,2.33-1.86,5,1.27,7,4.49,9.33.59.42.66,1.57,1,2.38-8.34,2.66,1.47,5.55-.24,8.47-2.43,1-3.36-4-6.69-1.56,2.31,3.82,4.62,7.48,9.65,8,1.74.19,3.28.53,3.18,2.68a3.18,3.18,0,0,1-1,2.28c-1.37.88-2.55,0-3.64-1-2.62-2.19-5.34-4.26-7.87-6.56s-4.06-4.84-1.17-8.23c1.28-1.51,2.32-3.9-.46-5.17-1.86-.85-2.82.32-4.59,1.67-6.45,4.94-2.68,7,1.38,9.91,1.46,1,3.74,2.5.33,4.55-2.94,1.77-2.62,3.76.54,5.46a13.93,13.93,0,0,1,7.47,9.16c1.15,4.23,5,6.91,8.8,9.15,1.32.77,3.12,1.19,3,3.32a2.67,2.67,0,0,1-2,2.55c-1.86.44-3-1-3.83-2.33a12.79,12.79,0,0,0-6.26-5.11c-2.77-1-4.36-1.94-3.26-5.38.56-1.76-.91-4.51-2.44-4.36-8.89.87-8.84-6.86-11.7-11.76A17.1,17.1,0,0,0,892,794c.75,9.06,7.53,14,10.21,21.17-4.77,1-4.29-5.26-8.32-5.26-.4,5.18,3.68,7.23,6.73,9.22,4,2.6,4.79,5.64,2.39,9.11-1.63,2.36-.86,3.93.33,5.49,1.87,2.43,4.95,1.08,6.86.65,2.61-.59.26-2.69-.23-4.28-.57-1.85-2.76-4.13-1-5.68,2.16-1.93,4.09.65,5.79,1.91,2.17,1.6,4,3.67,6.2,5.23s3.41,4.22,7.46,2c3.82-2.07,6,4.06,9.78,4.81.37-4.25-2.49-8.29-.57-13.22,3.14,5.49,4.33,11.11,5.08,16.88,1.34,4-.17,9,4,12.08,3.43-1.23,2.65-4,1.86-6.27-2.13-6.13-1.87-12.56-2.67-18.21,0-1.56,1.59-.7.68-.76-.06,0-.11.07-.1.2.44,4.68-1.68,9.9,2.82,13.75,2,0,2.51-1.48,3-3,.43-5.71,1-11.41-.63-17.07-.2-.72.28.06.37.1,2,1.11,3-.41,3.75-1.74,1.13-2,1.51-4.3,2.17-6.48.91-4,2.78-9.7-.67-11.6-8.48-4.71-3.5-11.56-4.7-16.29-1.6,3.74.15,7.94,2.91,11.9.73,1.05,1.35,2.68,3,2.25,1.5-.39,1.75-2,2-3.29.78-5-.4-10.06,1.27-14.94,2.62-8.53,2.51-16.59-1.36-25.09-3.6-7.88-1.74-17.1-3.64-25.55-.5-2.23-.71-4.5-2.06-6.43-4.38-4.32-11.15-3.84-15.76-8.38-2.35-2.31-5.54,1.43-8.07,3.11a4.27,4.27,0,0,1-.47.48c-1.05.8.32,2.06-.55,2.89a2.89,2.89,0,0,1,.68-3.12c-1.21-3-3.26-4.61-6.59-4.15-1.56,2.07-3.37,1.48-5.22.47,1.72.12,3.53,1.44,5.1-.39,1.38-1.63,3.08-2.71,5.23-2.35,6.29,1,11.14-1.89,15.8-5.52,1.52-2.79-.27-4.14-2.45-4.15C935.46,704.46,928.41,703.76,922,707.27Z" fill="#663f2b"/><path d="M907,904.46c-2.13,3-6.79-1.16-8.51,3,1,2.76,2,5.58,3.17,8.27,4.16,9.2,6.15,18.75,3.63,28.68-2.21,8.7,1.49,17.81-2.2,26.36-.32.73.69,2,1.87,3C911.78,950.9,914.68,927.87,907,904.46Z" fill="#5b3120"/><path d="M898.53,918.77c-3.09,7.05-1.39,14.65-2.5,21.94-.8,5.18.63,10.93-4.48,14.93-.78.62-.47,3-.24,4.53.79,5.05-1,7.91-6.29,8,.54,4,3.26,6.77,5.85,12C896.8,958.67,905.33,939.76,898.53,918.77Z" fill="#5b3120"/><path d="M950.85,839.46l-1.38,3.06a3.67,3.67,0,0,0-1.37,4.25c1.47,4.25-.06,8-1.58,11.74,0,9.87-2.43,19.63-1.29,29.55l2.19,5.05c1.55-3.77-.26-7.84,2.63-10.72,1,4.42,1.18,8.78,3.14,12.67.58.73,1.1.69,1.56-.13q-.09-3.87-.2-7.74c.39-5,1.42-9.84,1.73-14.84.63-10.22-3.58-19.94-2.87-30.15A2.66,2.66,0,0,0,950.85,839.46Z" fill="#663f2b"/><path d="M934.24,859.07c-1,.21-2.82-2.92-2.94.51-.06,1.61,1.06,3.26,1.7,5-3.27,1.33-3.84-1.75-5.51-2.74a44.49,44.49,0,0,0,6.44,28.85c1.71,2.83,2.12,6.46,3.12,9.73,3.71-.21,1-4.49,3.41-5.49.76-1.29.61-3,1.67-4.13-.79-2.29-1.31-4.74-2.5-6.81-.66-1.14,0-5.24-4-2.53-.87.6-2.49-3.18-2.36-5.54Q933.74,867.49,934.24,859.07Z" fill="#5b3120"/><path d="M927.65,947.87C926.23,939.06,922.09,931,921,922c-2.54,5.2-4.67,10.13-1.88,15.76a51.55,51.55,0,0,1,4.19,14.39c1.86,1.12,2.92-.24,4.07-1.33l-.09.07A2.28,2.28,0,0,0,927.65,947.87Z" fill="#5b3120"/><path d="M927.74,891.47c2.55,11.87.45,22.87,1.42,33.95C935.23,918.43,934.79,904.62,927.74,891.47Z" fill="#5b3120"/><path d="M916.63,893.57c1,6.65,2.71,13.18,2.55,20-.12,4.9,1.56,1,2.52.33,1.78-4.8,4.49-9.43,2.77-14.9C920.66,899,919.59,894.87,916.63,893.57Z" fill="#5b3120"/><path d="M940.69,908.14a2.43,2.43,0,0,0-2.39,2.74c.82.83.25,2.18,1.12,3,1.75,5.75,1.42,11.72,1.78,17.61.66,1.47-.39,4.27,1.89,4.28s.72-3,2-4.26C946,923.26,940.94,916.16,940.69,908.14Z" fill="#5b3120"/><path d="M950,916.86l2.74,7.15c2.79-8.77,1.53-16.31,1.59-23.73-1.9-1.07-3.41-.39-3.23,1.64C951.57,907,949.05,911.79,950,916.86Z" fill="#5b3120"/><path d="M883.54,984.63c.92,3.36-1.73,6.78-.23,10.22,2.49-.34,1.33-2.88,2.8-3.56,1.22-4.56,3.09-9.13-.76-14Z" fill="#623624"/><path d="M938.51,869.9c1,1.78,1.9,3.57,3,5.71,4.09-6.23,2.4-11.39-1.7-16.3Z" fill="#5b3120"/><path d="M905.53,895c-1.5.31-4.29-2.07-4,1.91.24,3.28,1.89,4.67,5.17,3.67A7.78,7.78,0,0,0,905.53,895Z" fill="#5b3120"/><path d="M923.36,716.91c2.88.38,4.77,2.38,6.78,4.2h0c1.3-.24,3.12,0,3.82-.81,3.32-3.74,5.09-2.25,7.65,1.13,2.81,3.69,8,2.1,11.82,3.79a38.76,38.76,0,0,1,5.63,19.54c.31,12.05,5.66,22.1,9.95,32.66a17.81,17.81,0,0,1,1.67,6.62c-.34,12.33-.24,24.62,3.39,36.55a10.47,10.47,0,0,1-.85,7.89c0,2.3.33,4.13,3.32,3,4.2-6.71,3.54-14.37,3.81-21.72.56-14.54-.42-29-5.27-42.87-6.64-2-5-8.14-6.34-12.82l-8-49.2c6.4,10.37,10.66,20.5,11.51,31.42a72.64,72.64,0,0,0,7.2,26.17c3.67-3.24,4.62-11.72,1.62-17-1.12-2-2.59-3.68-2.41-6.13,0-1.53-.08-3.05-.13-4.57-1.95-13.21-7.19-25.68-8.62-39-2.14-3.1-4.55-4.76-7.09-.55-1.4,2.32-2.92,1.33-4.59.86-3.5-1-6-4-9.51-4.9-5.28.24-8.54,4.2-11.45,7.56-3.22,3.72-.06,5.26,3.71,5.81,4.26.62,4.23.8,2.82,4-5.63.86-10.1,6.49-16.93,3.27-2.7-1.27-3.57,2.41-3.53,5.06Z" fill="#663f2b"/><path d="M941.44,657.93a16.86,16.86,0,0,0-2.84-.6c-1.65,0-1.9-.51-3.55-.5.45.45,1.52,1.77,2,2.21,3.17,5,9,6.52,13.3,10,1.73,1.39,4.26,2.07,5,4.29,1.91,5.52,6.24,8.68,10.58,11.91,3.45,3.78,4,8.89,6,13.33,1.1,2.41,1.62,5.18,4,6.8,1.86.74,3.49,1.63,4.25,3.77l0,0a1.55,1.55,0,0,0,3-.73c-.35-4.71-.83-9.42-.87-14.13,0-3.35-2-5.2-4.3-6.52-8.39-4.84-14.75-11.59-20.93-19C953.2,664,946.81,661.41,941.44,657.93Z" fill="#714b39"/><path d="M983.34,710.09c-2.76-1.28-1.5-7.76-7-5.5-1.57,2.39-.73,4.86-.15,7.26,1.88,7.77,2,15.8,3.59,23.59,4,3.93,4.52,9,4.68,14.23.11,3.35-.38,6.76.74,10,.55,1,1.24,1.83,2.57,1.48,2.84-6,4.63-12,1.83-18.81-1.3-3.18-.35-7.23-.83-10.83s2.23-8-3.79-10.49C983.25,720.36,983.82,713.91,983.34,710.09Z" fill="#663f2b"/><path d="M964.12,803.06c-3,8.57-4.4,17.23.26,25.58,1,1.83,3.52,2.84,3,5.58,2.24,10.5,1.75,21.15,1.47,32.54,3.64-3.29,4.12-6.82,3.89-10.68-.15-2.5-.8-6.89,0-7.2,5.41-2.07,1.66-6.07,2.41-9-2.08-.2-2.68-1.44-2.31-3.36C971.59,824.94,969.61,813.53,964.12,803.06Z" fill="#663f2b"/><path d="M990,766.07c-4.9,15.58-8.1,40.19-1.88,53.46,2.36-5.11,2.49-12,.42-24.23-.58-3.4-1.74-6.88,3-8.44,1.61-.54,1.41-2.18,1-3.53C990.91,777.86,990.49,772.2,990,766.07Z" fill="#663f2b"/><path d="M969,891.59c2.61-8.12-1-15.65-2.29-23.37-.7-4.25-2-8.4-2.11-12.83-1.23,5.69-4.06,11-3.48,17,1.32,4.46,0,9.06.72,13.55a1.63,1.63,0,0,0,1.92.62c2.62-3.11.77-6.51.47-9.81.56,3.71,1.24,7.39,1.88,11.06C966.39,889.44,966.25,891.76,969,891.59Z" fill="#663f2b"/><path d="M964.16,843.93c-1.88-5.76-3.51-11.63-5.76-17.25-1-2.51-.94.44-1.46.71,1.13,9.51,2.14,19,1.87,28.82,1.39-2.58,2.47-5.32,5.1-6.82C964,847.57,964.08,845.75,964.16,843.93Z" fill="#663f2b"/><path d="M998.21,780.36c-.64,9.54-6.81,18.74-1.81,30.15C1000.16,799.63,998.16,789.93,998.21,780.36Z" fill="#663f2b"/><path d="M987.34,842.11c3-8.13-2-14.14-2.9-20.72C983.19,828.14,982.62,834.81,987.34,842.11Z" fill="#663f2b"/><path d="M917.17,948.53c-3.21,6-3.53,11.9,1.29,18.1C920.24,960,916.82,954.41,917.17,948.53Z" fill="#5b3120"/><path d="M980.24,841.49v16.89C984.13,853.2,983.49,848,980.24,841.49Z" fill="#663f2b"/><path d="M659.07,778.94c3.65-1,7.3-2.35,11-.05,8-1.93,11.58,1.16,10,8.58a3.91,3.91,0,0,0,.9,1.69c3,1,6.19,1.51,7.68,5a3.2,3.2,0,0,0,3.35,1.94c2.12-.27,2.28-2,2.38-3.63A9.35,9.35,0,0,1,698.5,785c3.2-2.27,2.73-5.48,1.67-8.72-1-3-1.34-5.45,2.07-7.65,2.9-1.88,3.41-5.24,1.58-8.56-.16-.3-.71-.46-.44-1,5,3.86,10.18-3,15.68.43,2.32,1.46,5.35-1.62,6.92-4.41a5.89,5.89,0,0,0,.72-3.83c-4.46-5.73-7-12.36-9.68-19.09-3-7.81-13.47-10.72-19.85-5.3s-14.53,6.64-21.24,11c-4.47,2.89-9.91,3.12-14.62,5.37-5.53,3-12.25,3.69-16.62,8.88-.28,3.7,2.18,6.32,3.7,9.27,1,1.89,2.63,2.36,4.47.9,2.63-3.51,6.72-4.63,10.45-6.22,3.39-1.44,4.55-3.59,3-7.76,3.83,1.5,7.12,3.07,11,1.27,3.42-1.57,5.31.36,4.56,4.11-.67,3.41,0,5.21,3.93,5.18a3.35,3.35,0,0,1,3.48,3.54c-.05,2.18-1.82,3-3.58,3.68a3,3,0,0,1-1.31.34c-9.18-1.25-18.18,2.3-27.35,1a3.79,3.79,0,0,0-2.61.49C650.45,774.68,652,778.3,659.07,778.94Z" fill="#a1907d"/><path d="M748.28,823.07l2.59,1.51c9.41-3.44,16.09-11.46,25.32-15.27,2.13-.88,2.38-3.78,3.34-5.85,2.4-5.17,4.3-10.75,10.07-13.37a17.32,17.32,0,0,1,2.37-1.36c2.21-.62,6.39,2.16,6.42-1.13.05-5,4.79-8.74,3.19-13.88,1.69.42,3.12,3.77,4.9,2.31,3.31-2.71-.58-6.36.33-10,3-.55,4.23,1.39,5,3.91a35.1,35.1,0,0,0,2.34,6.46c2.78,5.27,4.69,5.62,9.71,2.75,5.22-3,2.47-6,.34-9a39.57,39.57,0,0,0-6.2-6.41c-3.39-3-5.79-5.85-5-11.14.61-4.33-3.54-7.08-6.45-9.88a2.41,2.41,0,0,0-3.17.25,1.77,1.77,0,0,0-.27,2.48c3.44,4.37-.15,5.72-2.75,8.38s-9.8,3.27-6.49,10.12c-5.45.26-9.16-2.78-12.69-6.32-1.54-1.56-2.74-3.83-5.48-3.61-1,7.23-7.89,11.89-9,18.41-.94,5.64-2.8,11.46-2.17,17.36.39,3.66-1.65,3.43-4,3.1-3.39,6.16-5.86,13.42-15.09,12.41-1-.12-2.9-.34-2.93.82-.15,6-2.33,6.51-7,3.39-1.52-1-2.92,1.34-3.18,2.48-.41,1.78.61,4.12,2.61,4,2.49-.16,3.89,0,3.87,2.83l2.38.23C744.54,818.62,745.79,822,748.28,823.07Z" fill="#3a1d15"/><path d="M726.1,751.52l-1.24,2.67a9.1,9.1,0,0,0,3,4.53c2.78,2.16,4.91,4.3,1.37,7.69-1.08,1-.74,2.82,0,3.88,3.32,4.67.38,9.43-.27,13.9-.16,1.09-5.16,3.62-8.66,3.7-7,.18-13.54,2.43-19.91,5.07-1.61.67-1.57,2.64-.15,4.07,3.25.86,5.42,7.42,10,1.94.24-.29,2.75,1.13,4,2,2.22,1.54,4.18,3.5,6.47,4.91,4.32,2.65,9.55,1.1,10.16-3.37.79-5.73,5.46-5.29,9-6.87,3,2.41,5.71,2.25,8-.95a11.41,11.41,0,0,1,3.91-3.62c4.48-2.34,4-5.82,1.28-8.92a12.5,12.5,0,0,1-3.2-9.94c0-1.37.09-2.74.21-4.1.33-3.09,1.41-6.09,1-9.26a26.14,26.14,0,0,0-6.07-12c-4.54-5.29-9.4-10.25-14.43-15a3.42,3.42,0,0,0-1.85,0c-1.55.69-2.54-.16-3.54-1.21-1.3-1.36-2.76-2.69-4.69-1.16-1.61,1.28-1.82,3.11-1.31,5,.58,2.19.69,4.7,2.89,6C726.46,743.1,727.67,746.77,726.1,751.52Z" fill="#735a4e"/><path d="M597.71,805.07c3.87,1.65,7.49.46,11.17-.83,2.09-.72,3.62-.36,2.46,2.46,3.21.61,6.34,1,7.89-2.93-.24-4.39,3.57-3,5.7-4.06l-.1.06c4.88-3.43,10-6.38,15.07-9.56,1.46-1,3-1.94,4.35-3a10.4,10.4,0,0,0,1.57-2l-3.16-.7c-2.45-2.09-4.53.57-6.94.53-1.51-2.2-.25-4.68-.54-7a20.67,20.67,0,0,0-1-3.7c-1.38-4.09,1.28-7.52,1.87-11.29.64-4.05-.53-6.24-4.5-7.83-5.32-2.13-11.37-2.28-15.85-7.12-2-2.21-5.74.76-8.52,1.94s-4.84,2.33-8.55,1.45c-5.61-1.33-3.53,3.9-3.43,7,2.92,5,4.46,10.63,8.84,15.19,4.7,4.89,3.37,13,6.16,19.33.82,1.87-4.12,5.84-7.14,8.18C602,803.43,597.49,801,597.71,805.07Z" fill="#322822"/><path d="M700.22,797c.32-1.16-1-3.9,1.84-2.74,2.18.89,4.2.31,4.81-1,1.61-3.48,3.58-3.41,6.44-1.91.84.44,2.51,1.3,3.05,0,2.46-5.77,3.93-.06,6.48.55,1.44-3.92,2.91-9.43,9.34-2.05-3.72-7.94,3.93-15.17-2.21-21.44-.13-.13-.19-.57-.09-.65,10.7-9.18-3.72-8.95-5-13.62-2.93,5.28-7.1,5.15-11.54,2.38-2.65-1.65-4.37-3.37-5.26,1.64-.6,3.33-2.7,2.59-3.69-.21-.8-2.27-2.92-4.16-4.4-3-2.81,2.19.63,3.16,1.86,4.41,3,3,2.08,7.14-.66,8-6.9,2.12-3.29,6.4-2.47,9.58.87,3.41,2,5.47-2.52,7.35-4.17,1.74-3.61,6.68-3.71,11.7-3.78-3.45-4.85-10.29-11.36-7.39-4.07,8-2.17,11.57,6.23,11.25,3.56-.14,7.76,1.66,10.26-2.74C698.47,797.15,699.41,798.57,700.22,797Z" fill="#8e7164"/><path d="M760.47,792.89c1.75.25.55,4.25,3.6,2.87,2.12-1,2.47-2.23,2.5-4.77.1-8.39-1-18.21,5.2-24.06,4.67-4.44,3.34-8.28,3.71-12.72l-.75-.6c-4.73-.72-8.15,1.9-10.19,5.46s-4.81,4.38-8.4,4.08c-3.41,5.7.81,10.19,2.59,14.92,1,2.72,3.16,5,2.14,8.23a8.87,8.87,0,0,0-.43,3.79Z" fill="#482518"/><path d="M697.6,797.15c-4.55,3-9.74-.09-14.57,1.56-1.59.54-2.56-2.29-2.6-4.08a39.53,39.53,0,0,1,.68-6,8.39,8.39,0,0,1-.2-1.22c-1.94-1.55-4.89-1.86-5-5.47-.08-2.43-1.76-4.08-4.62-2.73-1.3,4.42-1.08,9.21-4.38,13.18-1.57,1.88.65,4.58,2.45,5.69,3,1.86,6,4.08,9.75,4.48,3.5.38,6.63.52,10.22,2.43C692.32,806.6,695.7,801,697.6,797.15Z" fill="#6b564b"/><path d="M760.44,790.09a2.82,2.82,0,0,0,1.32-2.77c-1.82-7.55-6.78-12.23-13.64-15.17-.16,4.31-.38,8.33,4,11.4,2.07,1.45,3.82,5.15-1.71,5.65a4.07,4.07,0,0,0-3.27,3.14c-1,4.53-4.07,4-7.28,3.32,1.71,2.09,1.5,6.9,6.6,4,2.58-1.45.5,3.31,3.92,3C748.49,794.52,757.55,795.05,760.44,790.09Z" fill="#5b4037"/><path d="M634.37,777.72c-.4,1.48-1.18,3-1.15,4.43.09,3.85,1.14,6.63,5.77,3.74a18.45,18.45,0,0,1,3.67-1.35c4.52-4.69,11.7-1.46,16.41-5.6-5.07-2.25-6.54-5.85-4-10.94a1.23,1.23,0,0,0-.11-1.68c-7.68-1.72-8-1.76-9,5.82-.58,4.31-2.91,5.19-6.41,5.19C637.79,777.34,636,776.13,634.37,777.72Z" fill="#695a50"/><path d="M671.28,779.22c1.48.72,3.69.69,3.2,3.35-1.09,6,2.61,5.49,6.43,4.85-.64-2.71,5.89-5.18,1.43-7-3.46-1.4-7.31-10.23-12.3-1.56A6.67,6.67,0,0,0,671.28,779.22Z" fill="#8e7164"/><path d="M639.9,790.21c-5.66,2.16-11.46,4.1-15.07,9.56A29.61,29.61,0,0,0,639.9,790.21Z" fill="#9e897d"/><path d="M624.93,799.71c-2.94-1.53-5.35.27-7.22,1.86s.25,1.94,1.52,2.2C620.17,801.05,623.65,802,624.93,799.71Z" fill="#9e897d"/><path d="M688,602.42a3.1,3.1,0,0,0-.26,1.24c-.68,1.93-1.15,4-2.93,5.27-9,6.61-7.21,15.37-4.89,24.33.89,3.45,3.12,4,6.27,3.89.3,1.69-1.77,2.71-1.92,4.48-.12,1.42.08,3.78,1.06,3.56,6.29-1.43,9.53,7.45,16.11,4.59a2.7,2.7,0,0,1,3.54,1.3c2,3.64,5.67,4.34,9,5.72,2.37.08,5.27-.14,5.62-2.7.62-4.57-5.12-2.85-6.77-6.27,3.12,1.5,6,2.64,9.14,1.47s5.34-3.44,7.66-5.64c1.43-1.36,2.44-3.4,1.15-4.92-2.29-2.7-3.73-5.23-1.84-8.68-1.86-.95-1-3.34-2.09-4.67-8.11,4.45-8.72,3.81-10.19-5.58-.47-3-1.76-6.55-5.62-8.36a13.64,13.64,0,0,1-6.35-6.57c-1.6-4-1.86-7.43-8-7.09-3.52.2-2.68-5.21-2.72-9C687.94,592,690.75,598.44,688,602.42Z" fill="#9b7659"/><path d="M730.34,552.71c-2.15-6.68-4-13.51-8.33-19.21-1.89,2-1.65,4.3-.88,6.69-2.06-3.78-3-8-5.41-11.6-1.19-1.79-1.82-4.46-4.94-3.46-1.3,1.3-1.26,4.3-4.23,3.47-2.53-.71-2.37-2.89-2.68-4.94-.52-3.51-.51-9.24-4.1-9s-4.79,5.84-5.27,9.88a34.78,34.78,0,0,0,1.65,14.81c1.19,3.72-1.1,2.09-2.56,1.88-2.06.84-3.63,2-3,4.59l0,0c1.81,2,2,5,4.24,6.71a7.3,7.3,0,0,1,1.13,8.23c-3,6.05,1.84,10.1,3.77,14.46,1.83,4.14,4-.37,5.88-1.77,3.34.22,5.19-3,8.44-3.52,2.64-.38,2.78-3.31,2.26-5.67a4.29,4.29,0,0,0-5-3.57c-2.18.21-4.08,1.5-6,2.56,3-5.73-.42-10.84-.44-16a1.62,1.62,0,0,1,2.42,0c5.93,6.07,12.67,11.48,14,20.88,1.32,9.61,2.62,10,10.83,5A38.22,38.22,0,0,0,730.34,552.71Z" fill="#806c5b"/><path d="M730.32,573.44c-6.33,3.08-6.3,2.86-7.34-4.74-.77-5.74-1.46-11.62-7.66-15-3.43-1.87-3.05-7.91-8.27-8.7-1.31-.2-2.36-2.37-4.1-1s-1,2.94-.1,4.3c2.21,3.24.65,7.29,2.38,10.6,1.39,2.64-1.84,2.94-2.53,4.61,3,1.69,5.37.28,7.74-1.07s4-.31,4.59,2c.42,1.69.28,5-1.59,4.36-5-1.69-5.05,3.47-7.8,4.6-1.3,3.24,5.85,3.84,2.39,7.76a5.35,5.35,0,0,0,1.79.83c1.21.06.93-1.18,1.36-1.82,1.38-2.06-3.85-6.2,1.2-6.23a7.54,7.54,0,0,1,7.4,7.59c-.09,5.13,1.21,4.71,5.26,3.12,3.15-1.23,7.14-.31,10.76-.35a2.19,2.19,0,0,0,.46-2.49c-1.11-2.17-2.3-4.3-5.35-3C732,576.88,733.48,574.9,730.32,573.44Z" fill="#90816d"/><path d="M729,630.06c-1.8,2.65-4.38,5.19.09,7.94a2.34,2.34,0,0,1,.13,4.06c-3.63,2.32-5.95,7.6-11.3,6.08-2.12-.61-4.91-.55-6.26-4.22-1.27,7,2.71,8.23,7.23,8.77-.88,2.92-3.58,2.22-4.91,3.58a3.2,3.2,0,0,0-1,1.71c0,3.84,3.56,4.45,5.75,6.29a27,27,0,0,0,5.3,3c2,.76,3.55-.15,4.84-1.53,1.08-1.16,2.55-2.9,1.06-4.13-3.78-3.16-1.74-4.77,1.13-6.56,1.16-.73,2.49-1.86,2.39-3.17-.5-6.26,5.54-8.66,7.53-13.42-1-4.94-.36-10.49-5.16-14C735.2,628.44,731.24,628.2,729,630.06Z" fill="#906648"/><path d="M735.79,624.48q2,7.59,4.07,15.16a1.21,1.21,0,0,0,.06,1.63c3.25.08,3.63-2.21,3.53-4.63-.11-2.8.61-5,3.43-6a14.86,14.86,0,0,0,4.68-4.49,13.23,13.23,0,0,0,.85-1.68c2.43-4.59,2.71-9.47,2-14.5a2,2,0,0,0-1.43-1c-.67-.14-1.61,1.45-1.89.2a6,6,0,0,1,1.93-5.92c2.26-7.85-2.63-12.7-7.3-17.64a3.22,3.22,0,0,0-2,0c-2.75,2.48-1.54,4.86.18,7.22.07.42.12.85.15,1.27,2.56,2.42,3.85,4.73.92,8a16,16,0,0,0-3.8,8.61c-.28,2.34-1.56,3.35-3.62,4.3-6.69,3.09-6.71,3.64-1.84,9.49Z" fill="#6b523f"/><path d="M735.72,624.52c-2.51-4.38-2.31-7.7,3.5-8.57,2.69-.4,3.52-1.67,3.46-4.46-.07-3.71,2.19-6.87,4.29-9.61,3.53-4.63,3.29-5.84-2.91-7.81-1.87,6.69-7.61,2.7-11.39,4.14-2,.74-5.36-1.13-5.92,1.65s-1,6.14,1.94,8.75c1.33,1.19,5.44,1.8,3.18,4.77-2.61,3.42-2.38-1.68-4-2-5-.88-.43,4.07-3,4.86-1.41.43-3,1.62-2.06,3.62,1.19,2.46,2.55-.42,4-.09,2.1.46,4.5-.44,5.06,2.91C732.18,624.8,734.18,624.42,735.72,624.52Z" fill="#897761"/><path d="M730.32,573.44c-1.94,5.56,5.44,6.37,5.48,10.92,2.1-.16,2.64,2,4.08,2.8a12.41,12.41,0,0,0,3.86-1.12l.34-.28a3.18,3.18,0,0,0-.14-3.29c-7.61-8.47-8.73-19.61-12.23-29.77h-1.37c.46,6-1.48,12.18,1.61,18C732.2,571.18,730.9,572.51,730.32,573.44Z" fill="#6b523f"/><path d="M694.86,552.55c-.08-3.1.13-6.38-4.24-6.71-2.34,3.72-2,7.36.31,10.95C694.23,557.25,694.87,555.2,694.86,552.55Z" fill="#af9a83"/><path d="M743.74,586c-1.32.28-3.5-2.48-3.86,1.12-2.37,4.58.25,5.53,4,5.64C744.51,590.53,742.6,588.33,743.74,586Z" fill="#897761"/><path d="M775.48,754.21c5.77,5.92,10.84,13.06,20.85,11.34-7.3-8.58,4.34-10.38,6.48-11.21,8-3.09,4.22-5.89,1.29-9.46-.2-.24,0-.78.56-1.54,2.29,3.7,8.35,5,6.2,11.56-1.07,3.28,1,5.59,3.24,7.67,2.81,2.68,5.68,5.3,8.42,8,1.57,1.58,3.18,3.25,3,5.81-3-.52-3.69,3.35-6.07,3.41-2.88.07-3.06-3-4.16-4.86a9.39,9.39,0,0,1-1.37-3.85c-.52-6.39-4.12-8.32-10.38-7.58,1.12,4,2.12,7.65,3.18,11.45-2.62.35-2.44-2.57-4.15-3s-2.68-3.44-4.51-1.48c-1.54,1.66.61,2.66,1.78,3.65s2,2.49.56,3.49c-3.24,2.33-4.45,4.85-2.51,8.72.47,1-.76,2.08-2.18,1.7-3.6-1-11.31,1.77-13.09,4.94a49.25,49.25,0,0,0-4.39,9.22c-1.31,4.2-3.82,6-7.74,8.13-6.94,3.85-13.9,8.29-19.59,14.19,5.51,6.89,5.83,6.93,9.56,1.36,5.2-2.16,8.7-6.9,14.22-8.88a13.74,13.74,0,0,0,9.14-11c.77-4.64,3.7-7.14,8.35-7.67a35.35,35.35,0,0,0,4.63-1c9.29-2.32,8.65-2.17,10.93,7.18,1.51,6.15,3.4,12.27,4.94,18.45a3.5,3.5,0,0,0,1,1.76c11,9.79,11,9.79,10.24,22.4,3.72-1.57,5.22-3.78,4.08-7.86a9.21,9.21,0,0,1,.28-5.9c1-2.19,2.77-4.49,5.6-4.43,2.38,0,4.17,1.54,5.27,3.79,1,2,2.1,4,3.59,6.79,2.11-2.86,2.12-7.56,6.71-6.69,1.83-6.45-1.29-13.27-5.59-19-1.32-1.76-8.55-6.55-1-11.49,3.56-2.34-1.51-4.83-1.91-7.6-3.1.69.74,3.32-2.38,3.7-7.84-7.36-7.15-18.48-10.71-28.28,4.65-.4,3.65,4.65,6.47,5.52,2.33-.49-.61-4,2.19-4,1.53,0,2.92,1.56,2.8,2.56-.94,8,4.14,10,10.72,10.82-1.32-7.65-7.13-13.17-9.94-20.13-.57-1.43-2.31-2.72-.76-4.22,1.34-1.29,2.4,1,3.51,1,8-.36,6.43,7.93,10.17,11.47,1.53,1.45,1.78,2.9,4.47,2.15,3.57-1,.62-2.74,1-4,.85-2.86-1.66-4.75-1.72-7.12s-3.27-6.86,3.3-6.42c2.52.17,1.74-2.81,1.65-4.45-.23-4-3.48-5-6.38-4.43-5.7,1-9.54-1.48-13-5.34-.61-.68-1.82-1.6-1.68-2.06,2.49-7.65-5.2-11.39-6.56-17.65-1.48-6.79-6.35-9.19-13.21-7.56-3.73.9-6.09.62-4.2-4.07.51-1.27,1.71-2.43-.32-3.27-1-.42-2.3-1-3.24-.7-2,.58-1,2.13-.52,3.33a3,3,0,0,1-.58,3.65c-3.94,4.51-3.86,4.59,1,7.61a62.23,62.23,0,0,1-16.9-4.45c-2.87,1.67-2.78,5.08-4.29,7.57-2.41,4-4.63,7.84-9.73,8.84a7.11,7.11,0,0,0-5.51,5.6c-.89,4.52-3,9.09-1,13.87Z" fill="#482518"/><path d="M748.28,823.07c-1.83-2.29-2.36-6.94-7.1-4C743.32,820.79,745.16,823.08,748.28,823.07Z" fill="#49362f"/><path d="M713.85,657.64c0-.46,0-.91.09-1.37-2.52-3.48-8.1-3.73-9.12-8.95-.19-1-2.12-.73-3,0-4.72,3.87-6.94.08-9.35-3-1.37-1.77-1.32-1.8-6.5.31-2.2-3.88,3.72-5.73,1.89-9.37-3.07.13-8.62,2.8-5.73-5-5.15-2.44.71-7-2-10.45-1.95-2.47.65-5.43,2.87-7.66s5.69-4.22,4.83-8.46c-7.27,8.08-15.69,15.4-21.48,24.44s-15.1,14.72-19.58,24.54c-.92,2-2.62,3.71-2.72,6.13.62,1.43,1.23,2.86,1.9,4.42,3.77-1.69,3.09-6.44,5.88-9.05,2,1.79,0,4.59,1.9,6.11,6.14,2.13,6.41,3.07,3.52,10.18-.94,2.31-1.7,4.67-2.85,6.9a4.16,4.16,0,0,0,.62,5.07c1.54,1.52,3.34,1,5,.08,2.17-1.21,4.67-2.21,6-4.34,1.81-2.92,4.65-3.3,7.45-4,3.12-1.63,7.09-1.55,9.05.41,4.13,4.13,8.87,2.46,13.37,3,1.4.18,2.84-1.4,4.25.54,1.2,1.66,3.21,1.74,4.9.63,2-1.31,1.85-3.5,1.73-5.57-.05-.92.32,0-.18-.63-2.26-2.87.66-7.87-2.61-9.36-4.37-2-4.85,3.45-7,5.63-1.59,1.58-3.38.9-5.13.78a1.83,1.83,0,0,1-1.89-1.6,1.89,1.89,0,0,1,1.47-2c4.75-1.8,10.16-2.29,13-7.69.71-1.37,2.45.08,3.58.74C710.32,660.47,712.17,659.47,713.85,657.64Z" fill="#a48f76"/><path d="M596.19,758.32a42.8,42.8,0,0,1,.11-4.81c.17-1.35,1-2,2.41-1.2,3.76,2.18,5.45,1.27,9.58-1.09,1.63-.94,5-4.21,8.16.19,3,4.24,9.06,3.75,13.63,5.11,5.25,1.58,4.78,3.24,4,7.63-.56,3.42-4.9,6.88-1,10.75a62.29,62.29,0,0,0,9.31-17.73c.75-2.1.74-4.43,3-5.6l16.31-7.12c7.66-5.56,13.8-12.71,20.27-19.54,2.34-2.48,2.63-4.56.6-7.14-2.67-2.13-3-4.82-1.92-7.9.58-1.67,1.58-3.31.62-5.18-6.13,1.09-8.36,3.53-8.24,9.13,0,.68.35,1.48-.16,1.94-5.91,5.31-8.8,12.64-12.89,19.18-1.43,2.29-3.85,0-5.75.55a3.77,3.77,0,0,0-1.58.92c-1.86,2.9-4.35,4.7-8,4.51-3.84,1.07-7.41,1.88-10.45,5.42-3.62,4.24-9,.86-13.59.78,4.79-11.94,16.25-13.37,26.18-17.19,4.34-1.95,8.09-4.9,12.18-7.27,4.65-2.7,7-6.76,8.28-11.83,1.06-4.1,4.09-7.54,4.15-12-3.12-2-5.11-.19-6.8,2.2-1.19,1.66-2.32,3.35-3.53,5-4.81,6.61-10.6,11.51-19.29,11.55.9-5.29-2.69-10.74-1.85-17,.67-5,1.72-7.62,7.36-7,2.69.29,6.6,1.76,7.77-2.93-3.11-2-8.77-1.27-7.36-8.06.3-1.48-3.21-3-5,0-.15,3.42-1.22,6.35-4.2,8.32-3.85,1.67-3.11,5.27-3.2,8.32-.2,7.18-2.48,13.21-8.6,17.28-2.72,1.8-2.94,5-4.67,7.39-2.85,3.14-7.47,4.72-8.33,9.62-1.82,2.88-5.61,4-6.76,7.49-2.71,5.23-8.76,4.85-12.83,7.77a8.23,8.23,0,0,0-1.56,1,8.89,8.89,0,0,1-6.87,3.62,4.67,4.67,0,0,0-1.67,1,4.53,4.53,0,0,0-.76,5.57,5.13,5.13,0,0,0,1.63,1.09c1.86.54,3.73,1.08,5.69.51C592,759.42,594.59,759.78,596.19,758.32Z" fill="#544236"/><path d="M642.83,682.55c2-1.08,5.09-1,4,1.45-4,8.65,2.38,6.31,6.29,6.77.66.08,1.33.12,2,.18a5.24,5.24,0,0,0,3.85,1.41c5.43.1,8.62-4.69,13.36-6.31,3.13-1.06,5-1.52,6.57,1.94,2,4.29,6.16,6.58,9.69,9.39,2.79,2.22,5.88,2,9,.52,1-4.28-2-5.66-5.06-6.62s-5.14-2.52-5.58-6c-.3-2.35-1.54-4.59-3.84-5.24-4.35-1.22-7.19-4.34-10.24-7.27-6.53-.51-8.31,6.87-13.67,8.43-1,.29-1.93,1.35-3,.68s-1.48-2.52-.83-3c3.31-2.43,1.13-7.78,5.22-9.57.79-.35,1.31-.92.79-1.41-4.1-3.9.48-4.87,3.06-6.78-4.08-1-7.33-1.6-10.69-.89-3.47,3.41-6.14,7-5.63,12.43C648.43,676.87,643.27,678.54,642.83,682.55Z" fill="#725f4d"/><path d="M622.16,723.86c8.26-7.75,15.57-16,15.14-28.48,0-1.49.87-3,1.33-4.51-2.56-3.57-1.75-7.92-2.6-13-4.88,7.71-5,15-2.93,22.41a10.65,10.65,0,0,1-6.23,13.05C619.72,716.29,619.06,717.78,622.16,723.86Z" fill="#725f4d"/><path d="M596.13,739c-10,6.17-16.63,15.52-23.51,24.67l4.37,1.57c1.77-1,4.94,0,5-3.47-.53-3.2-.51-6.17,3.2-7.57h0c3.2-.47,5.38-3,8.22-4.14h0c2.69-1.65,5.83-2.77,7.12-6.08l-.36-.9C597.52,743,596.19,741.63,596.13,739Z" fill="#746252"/><path d="M608.44,741.75c1-2,1.89-3.8,4.39-4.48,1.71-.47,3.29-1.83,1-3.79-6.56-1.32-11.75,2.33-13.67,9.6l.09.1C603.31,744.62,606,743.73,608.44,741.75Z" fill="#746252"/><path d="M746.67,630c-5.73-2.06-4.76,2.87-4.93,5.43-.15,2.22,1.16,4.5-1.86,5.65-.46,7.63,2.22,13.81,7.53,19.35,7.79,8.12,17.86,6.27,27.13,6.41,6.83.1,13.51-1.43,19.19,3.75a29.76,29.76,0,0,1,9.4,17,49,49,0,0,1,5.2,10.13c2.92,1.87,6.15,2.42,9.83,2.74-.1-4.44-5.77-3.85-6-7.68a5.61,5.61,0,0,1,5.77.31c5.45,3.34,10.87,7,16.43.14a2.55,2.55,0,0,1,1.8-.55c4.12,7.1,10.46,1.41,15.54,2.79,1.49.41,3.24,1.57,4.11-.56s-.83-3.3-2.52-4.19c-3-1.56-6-3-9-4.6-3.67-2-2.26-5.5-4-7.91-1.13-1.54,1.33-3.13,2.8-2.38,4,2,8.42,1,12.32,2.69,2.62,1.13,4.78,3.06.91,5.06-2.57,1.33-1.07,1.43-.39,3.06,2.82,6.77,9.48,6.75,15.5,9.17l-7.93,7.55c5.08-.55,10,1.66,14.58-1.16,1.61-1,4-1,6-1,8.53.27,8.52.35,5.63-8-9,3.65-18.36,1.48-24.19-5.74a6.38,6.38,0,0,1-.34-7.15c1.38-2.64,3.48-4.89,7-4.74,6.81.27,13.68,2.2,20.36-1.15a2.25,2.25,0,0,1,3.32,2.24c-.39,3.15,3.71,6.6-.51,9.41-1.09.73-2.44,1-5.12,2.14,5,1.19,8.6,2.41,11.68,4.66-.75,2.8-3.74,1.3-5.21,3,.24.49.36,1.25.8,1.58,3.57,2.75,7.21,3.87,10.88.15,2.92-3.9,3.41-9.85,10.09-10.57,2.25-.24,1.92-9.8-.34-13.11-3.54-5.18-9.47-7.4-14.14-11.19-2.56-2.07-4.83-5.42-8.49-5.94,1.39-1.6,6.09,2.6,5.91-2.21-.14-3.73.22-8.75-5.79-9.17-1.31-.09-3.44.56-3.77-.76-2-7.82-9.28-9-14.7-12.54-.78-.51-1.87-1.13-1.17-2,5.34-6.94-1.55-5.67-4.56-7h0c-2.71-2.74-6.41-3.42-9.83-4.56a169.15,169.15,0,0,1-28.63-12.21,13.77,13.77,0,0,0-5.27-1.3c-3.55-.42-3.53-.47-5.43-3.66a3,3,0,0,0-2.22-1.43c-7.06-.82-13.44-4.2-20.38-5.49-2.79-.52-4.79-.56-4.75,2.44-2-6.35-3.37-13.52-11.21-16.41-11-7.87-21.77-15.89-30.27-26.61-4.39-5.53-8.93-11-14.94-14.85-1.91,1.64-1.19,3.12.21,4.65,9.48,10.39,14.24,22.92,16.32,36.66-1.56,4.61,3.51,5.72,4.61,8.93a29.49,29.49,0,0,1,8.56,10.36c2.7,5.39,6.78,9.76,14.19,7.54,4.18-1.25,6.22,1.68,7.09,5.46.53,2.3-1.13,5.67,2,6.65,3.72,1.17,3.72-3.16,5.56-4.85a1.17,1.17,0,0,1,1.33-.17c1.44,1.95-.17,3.38-1.08,4.8-2.73,4.23-4,8.31.44,12.27,1.1,1,2,2.66.26,3.37-6.66,2.77-8.81,10-14.46,14.15-6.71,4.9-13.46,4.49-20.56,4.53-2.45,0-4.86-1.09-7.29-1.68-6-1.47-7.7-4.56-6.73-12C749.33,636.15,751,632.36,746.67,630Z" fill="#5a3729"/><path d="M783.63,580.46c6.65,5.51,9.09,13.61,11.8,22.24,2.52-3.18-.87-5,1.12-6.87,8.3.58,15.87,5.69,24.66,5.78.22,2.82-2.78,2.86-3.57,4.68-.44,1-.25,1.84.65,2.27a2,2,0,0,0,1.78-.21c4.15-3.94,9.16-2.54,12.57-.17,7,4.83,15,7,22.53,10.22,4.93,2.15,10.5,4.15,16.18,4.68.54-1.55,3-1.35,3.08-3.75-2.23-.65-8.56,2.46-4.73-4.68.93-1.75-2.21-1.87-3.29-2-4.57-.72-8.21-2-11.53-6-2.43-2.88-8.24-1.66-11-5.59a19.36,19.36,0,0,0-9.46-2.12c-6,.28-11.77-2.68-17.61-4.61-7.4-2.44-14.15-7.48-22.46-6.74-1,.08-2,.48-1.88-.69C793.46,579.1,787.91,580.71,783.63,580.46Z" fill="#714b39"/><path d="M871.32,623.08c4.68,2.26,4.42,2.06,1.61,5.94-1.94,2.7,1.43,4.73,2.73,4.68,5.69-.25,7.24,7.15,12.85,6.59.3,0,1,.68,1,.85-3,9.19,4.09,5.24,7.61,6.15,1.21.31,3.56.9,1.72,3.29s1.77,2.79,1.49,5.11c-3.26-1-6,.41-8.61,2.22,7.16,1.87,11.47,9.58,17,11.19,10.32,3,8.33,10.14,9.6,17.43-9.52-2.1-9.15,5-10,11.09,9,.2,12.18,2.47,13.7,9.65,6.38-.45,12.77-.94,19.16-1.34,1.73-.11,4-.52,2.68,2.66,4.91-2.09,2.34-4.39-.46-4.74-9.39-1.2-5.9-3.66-1.19-7.16,2.31-1.71,4.07-4.15,7.17-4.59,2.42-1,4.64-.36,7,.47,2.92,1,4.84.23,4.1-3.47a9.72,9.72,0,0,0-.71-1.78c-7-8.16-12.57-17.8-22.7-22.81-6.93.83-13.82,1.1-20.51-1.67,6.15-5.41,5.67-14.57-2-17.36-4.51-1.65-6.82-5.55-11.16-7.32-3.38-1.38-6.83-3.58-10.43-3.78-5.41-.29-7.89-1.87-5.38-8C880.53,630.52,877.52,620.08,871.32,623.08Z" fill="#714b39"/><path d="M937,664.51,958.91,688a14.54,14.54,0,0,0,8.61-1.27,3.37,3.37,0,0,0-.11-2.73,34.4,34.4,0,0,1-11.06-12.14c-2.41-4.38-8.57-6.88-13.41-9.6C941,661.15,939,660,937,659,937,660.86,937,662.69,937,664.51Z" fill="#714b39"/><path d="M760.42,588.61c-.44-3.69-4.31-5.09-5.47-8.3-7-8.93-10.68-19.83-17.07-29.14-1.38-2-1.84-5.42-4.84-4.53-2.61.77-.94,4-1.33,6.06-.59,12.81,5.39,23.13,12.37,33.06,4.75,5.09,9,10.38,8.08,18.06-1.6,2.35-.35,4,1.36,5.5l.31,0c.65,5.37,1.77,10.84-3,15.12,0,.44,0,.89-.05,1.33-2.65,5.91-1.16,12.17-.83,18.14.22,3.94,3.51,7,8.09,8.27,12.53,3.42,23-1.7,26.82-13.23,1.39-4.24,1.07-7-3.76-8.35-3.7-1.07-7.35-2.62-9.36-6.13.52.49-1.2,0-.57-.67,1.8,1.85,3.34,5.2,6.48,2.81,2.76-2.08.86-4.58-.77-6.55-6-7.2-6.82-17-12.13-24.51C763.2,593.39,762,590.83,760.42,588.61Z" fill="#3a2219"/><path d="M711.22,525c5,4.45,5,11.74,9.3,16.64.8.91.7,3,2.59,2,1.46-.84-.18-1.78-.37-2.7a65.53,65.53,0,0,1-.73-7.44c-5.36-9.61-9.81-19.79-17.31-28.05a11.58,11.58,0,0,0-6.86-4.09c-3.46,5.87-6.71,11.85-10,18.32v-7c-3.2,4.93-1.26,10.38-1.06,15.48s1.85,9.89,1.2,15c-.21,1.65,1.15,2.31,2.6,2.59l2.67-4.08c1.8-1.79,1.15-3.89.75-6,0-3.95-2.1-7.72-.92-11.76.33-3.7,2-7,3-10.52,1.42-5,3.62-3.79,6-.87a39.18,39.18,0,0,1,5.74,8.48C708.51,522.76,709.12,524.58,711.22,525Z" fill="#af9a83"/><path d="M589.28,797c3.46-.69,7.15-1.06,8.1-5.51-3.3-2.76,3.88-6.38-.74-9,1.33.19,2.64.86,4,.14,2-1.37,1.13-2.75,0-4.13-3.5-2.15-7.13-4.87-10.53-.06-1.75,2.47-1.41-.43-1.65-.65-2.33-2.1-4.65-3.71-7.77-1.5-.67,3.32.79,4.11,3.71,3.2-1.59,1.5-3.43,2.86-2.54,5.54a23,23,0,0,0,2.93,5.29c4.09-.15,2.06,4.4,4.29,5.69A3,3,0,0,0,589.28,797Z" fill="#a09380"/><path d="M585.2,790.08c.38-3.3-5.32-6.43-.12-10.16.75-.53-4.43-.21-3.92-3.54a8.38,8.38,0,0,0,1.42-8.78c-.68-1.93-1.62-3.91-4.3-2.3q0,5.55,0,11.1c-.61,5.52.84,10.23,5.33,13.74A1,1,0,0,0,585.2,790.08Z" fill="#746252"/><path d="M574.37,772.22c-.92-1.17-3.41-2.65-3.27-2,.64,3.18-5.56,3.78-2.42,7.33C571,776.19,573.63,775.25,574.37,772.22Z" fill="#928578"/><path d="M585.2,790.08l-1.63.06a7.09,7.09,0,0,0,5.52,5.83C587.49,794.21,590.35,789.45,585.2,790.08Z" fill="#867563"/><path d="M600,779.07c.22.9,2,1.68.24,2.75-1,1.62-.92,2.74,1.33,2.78,3.91,3.45,5.17,7.56,2.44,11.6-1.26,1.87-.55,3.38-1,5,4.92,1,5.19-6.72,10.37-5.73.52.1-.31-2.27-.91-3.45-2.22-4.39-4.88-8.63-4.13-14a4.59,4.59,0,0,0-1.3-3.67c-5.52-4.09-6.91-11-10.89-16-1.85.9-6-2.86-5.54,2.72-1.49,1.91-3.7,3.37-3.75,6.17C588.82,773.92,595.26,775.55,600,779.07Z" fill="#5a493c"/><path d="M601.6,784.6a2.9,2.9,0,0,1-1.33-2.78c-2.23.73-3.75-1.89-6.95-1.44,3.1,3.12,6.6,6.34-1.48,6.93l5.54,4.17C603,791.8,600,786.74,601.6,784.6Z" fill="#867563"/><path d="M600,779.07c1.69-2.34-.71-2.85-1.77-3-5.55-.91-7-6.22-10.33-9.43-1-2.22-.61-5-2.83-6.74l-1.28-.13a2.75,2.75,0,0,0-2.73,1.39c.24,3-3.16,2.29-4.1,4.09l1.29.07c5.69,2.45,2.29,7.29,2.88,11.08,4.87-.76,6.64,2.86,8.63,6.91,2.09-1.85,0-5.33,3.17-6.07C595.78,776.56,597.49,779.24,600,779.07Z" fill="#867563"/><path d="M681,704.52c-.54,3.44-3.37,6.1-2.82,10.06.41,2.95,1.65,3.85,4.24,3.77,10.73,0,21.38,3.49,32.15.83,3.08-.76,5.88-.59,8.35,1.44,3.91,3.23,7,2.38,9.46-1.76,1.17-1.39,1.92-3.1,3-4.52,2.29-3,6.6-2.4,7.11,1.17.75,5.29,4.14,7.61,8.11,10.08,5.73,3.57,6.22,7.35,2.2,12.74-5.77,7.74-6.56,18.48,3.49,25.53,4,1.78,7,2.89,9-3.21,1.25-3.91,5.79-5.87,10.21-6.44,0-4,2.32-7.56,1.85-11.86-.18-1.68,1.64-5.48,4.57-5.92,10.52-1.58,11.47-10.45,14.11-18.1l-5.49-4.12c-1.44-1.89-3.55-2.35-5.7-2.73-3.67,0-5.42,1.5-4.2,5.37.75,2.22,2.78,3.5,4,5.39a75.63,75.63,0,0,0-6.06-6.46c-4.11-3.58-5.39-3-6.4,2.61-5.1-3.58-8.88-8.53-12.61-13.23-3-3.83-5.82-4.07-9.66-2.8-3-2.19-6.14-4-9.89-4.51-4.51,1.53-8.92.37-13.41.2-3.79-.13-7.21,1.07-10.17-2.2a2.81,2.81,0,0,0-2.27,1.61c-.72,1.43-1.15,3-2,4.37-3,4.74-6.54,6.06-9.93,2-5-5.89-12.19-5-18-8.07-4-2.08-5.42,0-4.78,6.25A5.42,5.42,0,0,0,681,704.52Z" fill="#392a22"/><path d="M785.1,712.79a9,9,0,0,0,5.42,1.42c3.08.33,5.88-2.08,9.24-.6,1.63.72,3.11-1.22,2.91-2.86-.52-4.47,5.62-7.47,2.51-12.37l3.15-.74c2.31-4.78-1.51-6.95-4-9.68l-1,0c-3.34.73-6.66,1.18-10,0a7.66,7.66,0,0,0-5.34-.14c-1.9.72-4.19,1.37-4.31,3.78-.1,2.07,1.88,2.93,3.51,3.76a14.08,14.08,0,0,0,7.45,1.68c-3.29,3.66-1.85,7.09-.21,11.23-6.12-2.42-12.32-2.58-17.64-5.78-5.07-3.05-10.44-4.26-16.25-2.63-.9-.26-1.13,2.37-2.15.72a49.58,49.58,0,0,1-5.24-10.32,4.67,4.67,0,0,0-6-3.24c-3.1.76-1.78,3.11-1.6,5-3.84,3.18-3.71,5.82,1.12,7.59,2.44.89,2.4,3,2.8,4.92,7.21-2.91,9.78,2.92,13.31,7.09a50,50,0,0,0,6.19,6.32c1.75,1.43,3,5.2,5.69,3.44,2.24-1.48-1.25-3.92-.79-6.78,5.74,2.71,8.49,9,15.1,12.24-1-5-5.29-6.52-6.69-9.87-1.63-1.07-3.2-2.57-1.91-4.44S783.59,711.39,785.1,712.79Z" fill="#6d432c"/><path d="M906,839.3c-4.2-1.29-6.15-3.31-7.06-6.93a21.85,21.85,0,0,0-5.59-10c-3.81-3.92-1.42-9.28-1.72-14-.13-2,.72-4.13-.84-5.87a1.9,1.9,0,0,0-2.48-.15c-2.81,1.48-.87,4.09-1.46,6-3.39,10.83,4.67,17.25,8.94,25.14a11.18,11.18,0,0,1,1.46,3.71C898.13,844.57,898.08,844.57,906,839.3Z" fill="#663f2b"/><path d="M912.6,741c7.9,8.08,15.31-.62,22.53.54-4.72-.57-8-8.9-14.23-2C919.61,741,916.22,740.45,912.6,741Z" fill="#5b3120"/><path d="M946.51,854.12c.12,1.35-2.08,3.69,1.5,3.59,3.06-4.81.66-10.16,1.46-15.19-1.14-5-2.27-10-3.79-16.66-1.25,8.79-1.13,15.81,1.6,22.54C948.22,850.71,949.23,852.53,946.51,854.12Z" fill="#663f2b"/><path d="M923.36,716.92c-2.8-.73-5.36-3.26-9.36-1.15,2.73,2.19,5.09,3.7,8.06,3.87,2.37.15,1.65-1.43,1.3-2.73Z" fill="#5b3120"/><path d="M930.14,721.11c-4.36.81-1.75,3.74-1.45,5.66.14,1,1.82,1.21,2.81.3,3-2.73.14-4.2-1.34-6Z" fill="#5b3120"/><path d="M968.36,694.88c.45-2-.53-3.76-1.31-5.51-2.69-1-5.38-1.92-8.08,0,.93,3-.17,3.4-2.42,1.78-2.79-2-5.36-3.5-7.21,1,2.3,3.42,6,4.85,9.55,6,1.89.62,6.36,4.35,5.22-2.85C963.73,692.88,966.77,694.16,968.36,694.88Z" fill="#714b39"/><path d="M654.66,766.84c.12.39.24.77.37,1.16,3.09,2.1,6.38,2.9,10,1.4,6.09-2.56,12.42-.08,18.53-.95,3.55-.51,8.67-.94,8.21-6.33-.43-5.06-4.59-5.61-8.92-4.92,0-3.45,4.88-8-2-10-.86-.25-2.25-1-2.49-.71-4.25,4.94-8.13,1.28-12.17-.3-.95-.37-2.15,0-5,0,6.78,4.88,5.56,6.95-.54,9.12-2.85,1-7.69,1-8.39,5.87C653.62,762.82,653.84,765,654.66,766.84Z" fill="#afa492"/><path d="M731.7,717c-2.5,3.25-4.73,6.08-8.81,1.32-2-2.35-5.13-2.78-8.62-1.1-5,2.43-10.71,1.53-15.94.53-5.48-1-10.67-1.22-15.92.58-.07,1.85,1.44,3.64-1,5.45-7,5.13-11.25,13.31-18.67,18.14-.59.38-.61,1.65-.89,2.51,4.53-2,10-1.35,13.78-5.33,3.6-1.7,5.76-5,8.31-7.81,1.94-2.15,3-5,6.51-5.59s.67-3.32,1.36-6.34c.85,3.78,2.27,5.76,5.46,4.91,8.62-2.31,16.27,3,24.57,3.24,3.21.12,3.4,5.06,7,4.66l.12-.08a51.6,51.6,0,0,0,5.21-3.25c2-1.61,5.67-2.55,4.79-5.89S735.74,717,731.7,717Z" fill="#735a4e"/><path d="M728.83,732.19c-2.76-4.5-6.45-6.41-12-7.26-7.07-1.09-13.92-3.46-21.22-2.16-.63.11-1.1.35-1.64-.49-2.54-4-2.59-4-6.88-2.79.4,2.23,3.93,1.56,3.82,3.65-7.63,3.11-10.91,10.14-15.36,16,3.24-.59,6.9-.28,8.5-4.24,1.38-3.43,2.55,3,6.07-.22,3.88-3.5,8.11-9,14.93-9.17,5.75-.13,8.44,4.17,10.8,7.7,1.27,1.9,3.08,5.16,3,7.41-.14,5.77,4.59,7.47,7.19,10.92,5.12-3.13,3.93-6.38.16-9.64-1.18-1-3.16-1.72-3.55-3-.83-2.69-4.41-5.7-1.53-8.21,2.59-2.27,3.2,2,4.66,3.27C729.19,736.85,728.91,734.59,728.83,732.19Z" fill="#817062"/><path d="M654.66,766.84c1.69-3,1.27-5-2.4-5.66-5.16-1.13-4.65-6.31-6.76-9.61-1.08.12-3.1.14-3.13.38-.92,8.55-8,14.59-9.23,22.95-.08,1.16,0,2.23,1.24,2.82,2.78-.07,4.9,3.09,8.19,1.28,2.8-1.54,6.31-1.31,4.85-6.67C645.76,766.27,651.55,767.83,654.66,766.84Z" fill="#7e7063"/><path d="M731.7,717c1.69,2.6,6.42,3.47,6,6.54-.37,2.59-4.29,3.81-7,5.12-1.31.63-1.65,2-1.72,3.43,7,8.65,17,14.87,20.53,26.24,1.63,3.52,1.6,6.8-1.38,9.66,0,1.38,0,2.76,0,4.14a82.68,82.68,0,0,1,13.64,15.17c2.19-2.59,2.29-5.63.15-7.87-4.24-4.46-4.59-10.1-5.62-15.59-2.89-5.57-8.77-10-5.57-17.76,1-2.54,1.77-5.1,3.64-7.2,5-5.58,3.09-12.4-4.29-15.52a11.9,11.9,0,0,1-5.68-5.38c-1.26-2.32,2.54-6.16-3.63-7.41C734.22,709.26,733.69,713.48,731.7,717Z" fill="#523f33"/><path d="M748.1,768c5.39-2.51,4.74-5.89,1.38-9.66C749.86,761.69,748.87,764.83,748.1,768Z" fill="#5b4037"/><path d="M692.08,536.2c.4,1.84.79,3.69,1.19,5.53,2.19-.28,2.08,4.34,4.61,2.52,1.76-1.27.31-3.34-.17-5.08-2.21-8.1-3.05-16.12,2-23.89,2.36,2.88,2.65,6.44,2.38,9.9-.2,2.51-.45,3.63,2.62,5,6.22,2.67,7,0,6.51-5.09a46.06,46.06,0,0,0-9.54-15.49c-3.23-3.58-6.1-3.45-6.89,1.77-.64,4.24-4.12,7.78-2.85,12.42C690.65,527.91,694.36,532,692.08,536.2Z" fill="#654d3e"/><path d="M748.09,692.1c0-1.41-3.1-2.39-1-3.8,1.51-1,4.26-.21,4.44,1.73.58,6.09,5.73,9.61,7.68,16.23.57-2.8.88-4.37,1.2-5.93,1.76-1.34,3.86-1.18,5.85-1.2,1.67,0,3.32.15,3.85-1.84a3.73,3.73,0,0,0-2.15-4.57c-4.15-1.7-5.61-5.16-6.37-9.05-.71-3.66.12-5.63,4.7-4.67,5.35,1.12,11.76,3.34,12.36-6.14.13-2.1,2.39-1.53,3.94-1.39,3.19.28,6,1.8,8.79,2.84-1.76.64-4.84.53-4.89,3.53,0,2.32,2.69,1.83,4.15,2.68a34.85,34.85,0,0,1,7.64,5.64c1.54,1.58,3.24,3.43,5.86,1.82l.16,0c-.25-11.33-7.42-18.09-16.17-23.09-2.65-1.51-7-.41-10.5.12-4,.61-7.83.84-11.61-.88a5.74,5.74,0,0,0-2.53-.74c-10.91.76-17.19-3.45-20.67-13.94-.94-2.81-2-5.59-2.94-8.39,0-.46,0-.93,0-1.4-2-1-4.05-.66-3.88,1.76.43,6.14-2.92,3.81-7.23,1.93,4.26,6.13,5.25,10.36-2.2,12.45-2.18.61-2.61,3.54-.32,5.55.93.83,4.52-.38,2.22,2.9-1.5,2.14-3.2,3-5.51.82a15.06,15.06,0,0,0-3.58-1.89c-4.56-1.59-5.47,1.47-4.69,4.58,1.32,5.2,1.82,10.82,5.58,15.14-.29,5,1,8.7,7.07,8.35a6.59,6.59,0,0,1,3.15,1.09C736.4,695.43,742.27,696,748.09,692.1Z" fill="#805338"/><path d="M722,682.4c-4.25-4.32-3.94-10.49-6.15-15.65-1.08-2.53,1.33-3.34,3.49-3.59-1.29-2.39-5.4-1.94-5.51-5.52-1.74-.36-3.47,2.12-5.07.35-3.93-4.32-5.77-3.69-7.64,2-1,3.14-5.87,3.5-8.56,3.65-3.33.19-5,1.33-5.07,3.85-.07,1.35.86,4.91,3.11,4.27,2.62-.75,6.11,3.3,7.69-1.17,1-2.68,2.51-4.72,4.75-7.74,1.16,4.39.34,8.32,2.22,11.67.29.53.55,3.91-2.53,3.78-3.88-.17-.85-3.29-2.42-5.08-3.17,4.78-8.31,2-12.58,2.85-2,.4-5-4-9.13-4.83-3-.64-3.91,1.21-5.82,1.59.9,4.55,3.26,7.58,8.13,8.09,3,.31,4.71,2.48,4.44,5.08-.53,5,2.15,6.15,6.15,6.72a6.94,6.94,0,0,1,6,4.87,2.18,2.18,0,0,0,1.79.45c3.86-2.38,8.45-1.18,12.5-2.63,1.66-.59,3.83-.84,3.91-3.15.08-2.53-2.21-2.43-4.29-3C715.34,687.21,718.46,684.47,722,682.4Z" fill="#816e5c"/><path d="M760.42,588.61c5,11.31,8.33,23.46,16.06,33.44.85,1.1,2.06,2.19.92,3.57-1.72,2.08-2.71-.09-3.8-1-1.36-1.12-2.62-2.38-4.69-4.28,1,6.76,5.72,8.88,9.6,11.77,1.81,1.34,5.75-.56,5.71,2.2-.05,3.15-1.73,6.52-3.44,9.35-4.56,7.56-12.06,8.48-19.87,7.84a10.28,10.28,0,0,1-9.45-12.85c1-4.44-1.56-8.52-.67-12.85a9.93,9.93,0,0,0-4.12,4.15c1.79,3,1.32,5.94.53,9.24-2.06,8.54,1.09,11.95,9.5,14.55,7.72,2.38,15.3,1.62,22.68.45,3.61-.57,7.11-4.54,9.8-7.71,3.19-3.75,4.9-8.67,10.4-10.25,2.36-.69,3.93-3.25.81-5-7.17-4.14-4.17-8.35-.5-12.72,1.86-2.21,2.37-4.56.23-6.74-1.57-1.6-3.29-.92-4.84.44-1.19,1-1.2,2.21-1.07,3.69s-.73,2.83-2.45,2.4c-1.48-.37-.89-1.74-.8-2.86.69-8.65-2.48-10.93-11.25-9.2-5.83,1.15-9.19-3.87-10.52-8C767.55,593.2,764.62,590.64,760.42,588.61Z" fill="#4c2a1c"/><path d="M753.52,609.32q-.67-2.75-1.36-5.5c-1.25-.36-2.68-1.17-2.66,1.27,0,2.84,0,5.69,0,8.6C753,613.56,751.59,610.11,753.52,609.32Z" fill="#6b523f"/><path d="M750.83,624.48c6.81-3.87,5.13-9.45,3-15.12C753,614.44,753.08,619.69,750.83,624.48Z" fill="#5a3729"/><path d="M847.42,756.94c1.92-.11,4-.18,3.72-2.23s-2.33-3.24-4.55-3.2c-1.4,0-3.73-.56-3.32,1.93C843.62,755.55,845.57,756.63,847.42,756.94Z" fill="#5b3120"/><path d="M659.09,690.85l-4,.1c-3.4,2-7,1.45-10.54.63-4.15-1-5.41,1.51-5.84,4.68a44.59,44.59,0,0,0-.54,10.92c.49,4.14,3.55,7.86.86,12.51-.68,1.17,3.14,3.38,5,1.38,2.2-2.42,2.32-5.1,6.29-2.37.58.4,3.46-1.82,4.69-3.32,3.79-4.62,9-8.07,11.23-14,.87-2.28,3.07-2.47,5.2-2.45a3.76,3.76,0,0,0,1.18-2c.09-5.29-3.09-6.67-7.57-6.21C663,690.93,661.1,692,659.09,690.85Z" fill="#34271e"/><path d="M671.5,697.67c0,.43-.06.86-.1,1.28-3.21,2.23-4.24,6.34-4.75,9.28-1.93,11.08-10.7,14.54-18.68,19.08a2.26,2.26,0,0,0-1.19,2.12c.84,3.75,2.56,6.59,6.84,6.84,4.58,1.93,9.73,5.1,9-4.29-.13-1.78,1.26-2.14,2.54-2.65,1.95-.78,4.16-2.27,3.73-4.23-1.07-4.77,2.1-5.89,5.15-7.44,1.18-.6,2.61-1.15,2.58-2.83-.12-6.47-.14-6.47,4.33-10.31l0-2.75c-1.2-1.6-2.15-3.43-3.6-4.78C675.32,695,673.15,694.62,671.5,697.67Z" fill="#655344"/><path d="M653.62,736.27c-2.94-1.61-4.56-4.56-6.84-6.84-12.68,1.44-23.44,5.86-28.53,18.8,3.14.56,6.43,1.29,9.75,1.69,1.77.22,4.33.59,5.29-.37a30.67,30.67,0,0,1,12.12-7.77,19.8,19.8,0,0,0,8.2-4.17C653.61,737.17,653.61,736.72,653.62,736.27Z" fill="#7a6959"/><path d="M608.44,741.75c-2.62,1.11-5.67-.27-8.19,1.43l-6.86,6.88C598.8,748,605.26,747.9,608.44,741.75Z" fill="#5a493c"/><path d="M585.1,759.88c.11,2.61-.27,5.42,2.83,6.74.15-2.23,4.16-2.56,2.72-5.58C588.89,760.2,587.12,759.43,585.1,759.88Z" fill="#746252"/><path d="M581.09,761.14a2.9,2.9,0,0,0,2.73-1.39,9.45,9.45,0,0,1,1.36-5.56C580.38,754.46,578,756.15,581.09,761.14Z" fill="#5a493c"/><path d="M593.39,750.06c-4.28-1.74-5.45,2.8-8.22,4.14C589.33,755.66,592,754.17,593.39,750.06Z" fill="#5a493c"/><path d="M637.24,755.12c-1.29-2.56-3.17-3.84-6.58-3C632.27,755.21,635.07,754.54,637.24,755.12Z" fill="#322822"/><path d="M653.61,737.61a15.84,15.84,0,0,0-8.2,4.17C649.66,743.43,651.83,740.9,653.61,737.61Z" fill="#655344"/><path d="M671.5,697.67c5.14-3.28,6.12,3.26,9.52,4.1.45-1.71-2.17-3.5-.13-5,1.49-1.1,3,.28,4.39,1,5.11,2.61,11,2.69,15.64,7.43,6.12,6.2,12.35,2.51,14.29-7.57-.66-.71-1.85-1.38-2.38-.88-4.5,4.17-9.26,2.4-14,.88a4.78,4.78,0,0,1-1.31-.05c-7.27-.06-12.21-3.82-16.24-9.66-3.76-5.44-10-5.43-16.36.11-1.84,1.61-3.43,2.77-5.79,2.86,2,2,4.59,1.22,6.91,1.18C670,692,671.64,693.83,671.5,697.67Z" fill="#493c33"/><path d="M835.88,687.9c-4.32-5.16-1.85-10.46-2.89-15.36-.59-2.83-.75-4-3.26-4.8-3.41-1.11-6,.09-7.18,3.23-1.12,3-.16,6.54-4,8.6-1.51.81.61,2.5,1.9,3.48C824.56,686.14,829.35,687,835.88,687.9Z" fill="#5b3120"/><path d="M902.57,678.61c-.53,4.43.13,6.54,3.16,6.46,5.59-.14,6.68-4.42,7.58-8.82.78-3.8-1.9-3.28-4.12-3.5C903.39,672.16,902.14,675.59,902.57,678.61Z" fill="#714b39"/><path d="M959,689.34c2.7-.49,5.38,2.26,8.08,0l-.06-2.79c-2.82-.28-5.74-1.15-8.08,1.39C958.91,688.43,958.93,688.88,959,689.34Z" fill="#714b39"/><path d="M692.08,536.2c2.86-4.19.68-8.32-.15-12.46C688.79,527.93,693.26,532,692.08,536.2Z" fill="#806c5b"/><path d="M698.79,697.59c4.27,3.46,8.47,7.8,13.25.51.4-.61,2.08-.36,3.17-.51l1.4-1.41c5-.2,10.19-1.23,14.42,2.42,3,2.62,6.06-2.55,8.88.37,3.29,1.66,7.21,2.24,9.58,5.53,4-7.09-3.83-5.66-6.46-8.9,2.72-.05,5.34-.12,5.06-3.5-9.26,4.15-17.19-3.09-26.2-3.28-1.57-2,3.22-4.26.13-6.42-6,.83-10.43,4.31-15.32,8.19,3.17,1.92,5.79-1.46,8.19,1.64-3,1.61-5.94,3-9.27,2.38C702.46,694,700.36,694.94,698.79,697.59Z" fill="#615041"/><path d="M739.91,699l-.63-1.9c-7.15,2.69-12.66-4.75-19.67-3.25a4.05,4.05,0,0,0-3,2.36c2.33,2.32,2.35,11.59,8.41,2.83.68-1,1.63-.11,2.34.39C731.66,702.44,735.79,701.09,739.91,699Z" fill="#493c33"/><path d="M785.1,712.79c-.33-2.86-2.39-2.82-4.46-2.64-1.22.1-2.28.73-2.12,2.05.26,2.29,1,4.41,3.78,4.74C780.41,713.62,781.87,712.6,785.1,712.79Z" fill="#392a22"/><path d="M804.14,688c-5.11-.19-7.78-5.19-10.35-7.84s-4.59-.15-6.51-1.88c1.48-3.52,5-2.11,7.38-3.12-4-3.6-8.74-5.24-13.9-5.86-2.38-.28-4.67-.23-4.68,3.14,0,5.35-3.33,7.73-8.53,5.52-2.46-1.05-4.28-3.52-7-.47-2.51,2.82-1,5.63-.15,8.29,1,3.19,1,7.34,5.89,7.72a2.93,2.93,0,0,1,2.81,3.32c-.43,2.59-2.63.53-3.83,1-1.67.66-5.78-3.06-4.87,2.53,13.09-.2,23.57,9.16,36.44,10,1.48-3.6-8.43-8.71,1.57-11.45-2.36-6.71-11-1.48-13.66-7.49,2.56-3,5.86-3.09,9.49-1.59S801.31,691.15,804.14,688Z" fill="#8f5e3a"/><path d="M967.27,792.49c4.24-5.38-1.7-9.11-1.86-14.84-2.64,6.25,1.07,10.38,1.94,15Z" fill="#663f2b"/><path d="M638.51,707.28a4.25,4.25,0,0,0,4.1,2.81,4.67,4.67,0,0,0,.48-3.93c-1.27-4.7,1.13-5.66,5-5.28A21.19,21.19,0,0,0,650,699c5.57-5.27,8.28-4.47,10.33,3,.76,2.49,2.14,3.53,4.62,2,1.8-1.3,5.3-3.22,6.48-5.07,1.19-2.05,1.48-3.67-.51-6.4-1.67-2.29-4.3-2.3-6.77-2.13a19.19,19.19,0,0,0-6.44,1.69c-4.69-.88-9.06,1.47-13.9,1.19-3.44-.19-4.82,4.65-4.48,8.4.14,1.6.85,3-.76,4.23Q638.54,706.61,638.51,707.28Z" fill="#2f231c"/><path d="M645.38,717c0,.44,0,.88,0,1.32-.44.93-.89,1.86-1.34,2.79,3.29.65,1.6,3.82,2.75,5.55l2.73-1.38a5.34,5.34,0,0,0,1-4.25C649.45,718.79,649.32,715.42,645.38,717Z" fill="#4a3b31"/><path d="M645.38,717c3-.28,2.3,3.19,4.09,4.14,1,1.58,3.06,2.55,3.65.55,1.63-5.51,6.25-7,10.5-9.15a15.16,15.16,0,0,0,2-6.62,3.51,3.51,0,0,0-1.13-2.73c-1.51.72-2.82,1-2.76-1.4a1.28,1.28,0,0,0-1.6-.23,11.25,11.25,0,0,0-1.72,2.12c-1.63,1.08-2.29,3.29-4.32,3.88-2.4-1.61.53-8.72-6-5.76C649.25,707.2,649.25,712.44,645.38,717Z" fill="#3d2f21"/><path d="M660.47,701.75h1.3c-.55-3.35.15-8.08-4.74-8-3.93,0-8.7.77-9,6.67,0,.46,0,.91,0,1.37,2.72-.4,3.37.81,3.24,3.45-.1,1.89-.2,4.6,2.25,5.19,2.65.62,3-1.71,3.67-3.75.36-1.19,2.64-.66,3-2.32C659.19,703.39,659.34,702.54,660.47,701.75Z" fill="#42342a"/><path d="M664.53,703.15v2.76a3.34,3.34,0,0,0,1.7,1,3.23,3.23,0,0,0,3.28-1.89,5.3,5.3,0,0,0,.23-3,4.66,4.66,0,0,0-1.11-1.66l-1.35-1.3C666.36,700.4,665.44,701.77,664.53,703.15Z" fill="#52432c"/><path d="M663.16,712.81c-3.31-1-6.54-.74-7.84,2.76-.76,2-7.2,1.14-3,5.73a8.42,8.42,0,0,1-2.87-.2v4.14c3.17-1.43,6-2.28,9.52-4.29a26.21,26.21,0,0,0,6.15-7.32c-.28,0-.38.08-1.26-.26A1.08,1.08,0,0,1,663.16,712.81Z" fill="#4a3c30"/><path d="M665.9,705.93l-1.37,0a11.14,11.14,0,0,0-1.37,6.9l0,.15a2.62,2.62,0,0,0,1.63.88,4.53,4.53,0,0,0,2.5-1.46,4.07,4.07,0,0,0,.84-1.64C668.39,708.66,667.32,707.21,665.9,705.93Z" fill="#56413a"/><path d="M660.47,701.75c-1.78-.78-3.93-1.35-3.86,1.45.06,2.28,2.18,1.57,3.69,1.13C660.36,703.47,660.42,702.61,660.47,701.75Z" fill="#d0bc86"/></g><g id="frame"><rect width="1000" height="1000" fill="none"/></g></svg>