<!-- Copyright (c) 2022 - 2023 Jan Stehno -->
<svg xmlns="http://www.w3.org/2000/svg" viewBox="0 0 1000 1000"><title>greylaggoose</title><g id="greylaggoose"><path d="M855.71,635.31c12.18-.65,22.53-4.34,27.76-16.58,6-2.87,12-5.21,18.95-4.69,2.7.2,5.46-.18,7.85,1.29,2.1,1.28,3.71,3.94,1.36,5.38-7.63,4.71-12.73,13.83-22,13.56,4.87-2.94,10.2-1.71,15,3,1.91,1.87,4.74.89,7.1,1.5,1.77.46,3.3,1.25,3.6,3.22.33,2.19-1.32,3-3,3.64a95.29,95.29,0,0,1-9.16,3.12,26.12,26.12,0,0,0,18-.37c8-2.83,15.83-2.81,23.9-1a7.75,7.75,0,0,0,5.32-.26c-.74-2.53-3.28-2.6-5-3.69-2.25-1.42-5.5-2.66-3.62-6,1.7-3.05,4.77-4.16,8.28-2.53,1.08.5,1.43,1.84,2.64,2.39.63-2.46-.16-4.88,0-7.29a34.63,34.63,0,0,1,.36-7c.92-2.88,2.68-4.21,5.75-3.11a4.53,4.53,0,0,1,1.75,3.08c-1.31,7-.91,14,0,21,.32,2.39,1.64.75,2.44,1.14a2.81,2.81,0,0,1,1.68,1.52,33.38,33.38,0,0,1-3,23.07c-1.44,1-5.51-1.61-3.89,3.65,1.38,4.46-.35,9.54,1.15,14.23.63,2.25,2.3,4.12,2.44,6.56-1.58,7.74-2,15.31.16,23.21,1.52,5.63-2.12,11.31-2,17.32.22,14.57-1.65,29-4.07,43.39a2.71,2.71,0,0,1-2.07,1.18c-5.09-1.69-4.37-6.07-4.66-10a13.2,13.2,0,0,0-.05-2.81,15.44,15.44,0,0,1,0,1.8c-.08,4.12-.27,8.1-6.09,4.48-.3-.18-1.07-1.27-1.08.19,0,6.13-4.88,3.92-8,4.44-2.61.43-5.17.14-7.68,1.82-6.33,4.25-8.83,7-11.82,0-.56-1.31-.34-3.61-1.1-3.86-3.27-1.09-3.28-1.08-4.68-6.17-3.84,9-10.25,6.55-16.55,4.61-1.24-3.84,0-7.37,1.26-10.92,2.18-2.94,5.93-1.93,8.7-3.41,1.5-.8,3.43-1.37,3.54-3.37s-1.8-2-3.07-2.61c-4.59-2.25-4.26-7.67-7.06-11.23-1.78-2.24,2.48-2.71,3.5-3.58-5.47.67-11.35,4.21-16.88,4.16-9.89-.08-19.66-1.1-29.71-.8-7.86.23-17-.25-25.29-2.71-7.78-1.5-12.4-6.42-15.22-13.95a36.52,36.52,0,0,1-7.31,3.58c-8.85,2.62-14.57.46-19.51-7.35-1.4-2.22-1.9-5.2-4.95-6.07-4.12-.07-7.32,2.66-11.13,3.57-9,2.18-14.07-.22-18.12-9-3.83,6.41-14.47,8-20.46,2.28-3.71-3.54-7-4-11.77-3.17-10.38,1.79-16.69-2.57-18.43-12.29-2.32,2.88-5.1,4-8.48,3.35-3.61-1-5.87-3.56-7.51-6.76-1.48-6.27-3.54-10.62-11.91-10.17-7,.38-9.56-6.53-6.6-14.64.64-1,1.46-2,2.05-3.07,6.58-12.21,6.78-11.46,19.17-5.66,7.11,3.33,14.39,5.19,19.53,11.92,2.36,3.07,7.1,3,11.15,2.15s7.73-.29,10.82,2.94a16.89,16.89,0,0,0,11.18,5.1,15.89,15.89,0,0,1,8.85,3.35c1.17.93,2.57,2.15,3.87,2,9.62-1.07,17.86,4.51,27.18,5.34,7.68.69,15,3.77,23,.95,2.92-1,5.85,2,8,4.5.62,6.93,3.57,10.5,11,7.69a7.22,7.22,0,0,1,2.19-.09c11.21-.39,12.59,1,12.23,12.29a10.53,10.53,0,0,0,.41,3.22c-.33-6.15,2.86-10.29,6.46-14.24,8-6.16,7.84-10.18-.68-15.88-4-2.65-9.42-4.54-1.49-9.31,2-1.17-.33-4-.83-6.07-.92-3.82-4.09-8,2.07-10.4-1.67-5.76,6.46-9.65,3-15.7-1.5-2.65,3.2-4.9.48-7.33-1.77-1.57-4.48-2.2-4.49-5.58C845.57,634.77,850.86,637,855.71,635.31Z" fill="#3b2f26"/><path d="M623.65,791.9c-9.67,5.45-20.28,5.43-30.75,4.35-9-.92-17.89-1.87-26.95-1.47a33.1,33.1,0,0,1-12.31-1.94c-8.21-2.85-9-4.5-6.42-13,1.25-4,5.12-7.37-4.73-6.82-13.27.74-27.57-.09-39.92-7.18-2.93-1.68-6.21-4.22-5.5-8.64.56-3.44-1.15-4.9-4.26-5.57a63.65,63.65,0,0,1-16.76-6.29c-6-3.24-9.13-9-5.84-15.11s1.74-8-4.68-9.95a73.27,73.27,0,0,1-19.69-9.76,63.13,63.13,0,0,1-10.19-8.82c-5.53-5.93-3.63-12.75-.34-19.25-15-1.78-22.91-12.33-29.76-24.1-1.86-3.2-2-6.73.21-9.79,2.62-3.6,2-5.89-1.58-8.5-3.72-2.74-2.51-6.05,1.35-7.14a152.75,152.75,0,0,0,17.93-6.75,8.29,8.29,0,0,1,5.82-.37c6.81,2.28,13.85,3.42,20.87,4.76,4.86.93,6.6,4,4.65,8.73-1.2,2.93-3.39,6.1.84,8.24s7.06,7.39,13.69,3.91c10-5.26,21.31-7.47,31.84-11.59a6.67,6.67,0,0,1,5.07.25c2.7,1.73,4.46,4.19,3.68,7.38-.89,3.68-4.53,3.24-7.3,3.77-10.93,2.12-21.41,5.14-30.34,15.22,10.16-11.11,22.24-13.72,34.57-15.93,3.6-.64,5.36,1.66,7.62,3.48,4.48,3.61,9.18,5.47,14.92,2.39,7.72-4.13,19.9-3.51,24.85,3.22,5.52,7.49,11.53,9.37,19.81,7.33a2.88,2.88,0,0,1,1.33,2.67c-.19,2.06-2.49,4.26.4,6.12,4.91,3.67,12,4,15.4,9.93-.74,3.12-3.47,4-5.94,4.95-9.89,3.61-19.61,7.64-25.1,9.8,6.25-2.59,17.39-5.28,27.72-10.19,3.12-1.49,6.39-2.6,10-1.87a5.15,5.15,0,0,1,1.81,1c1.69,2.57-2.77,4.61-.59,7.2,6.72,4,14.67,5,21.32,9.47,2.8,1.88,7.38-2,11.5-1,1.57.38,3.37-.49,5.08-.16,2.45.47,3.54,1.89,2.17,4.14-2.36,3.93-4.4,8.28-9.52,9.5-5.79-.15-11.44.72-17.34-1.54-3.87-1.49-8.44,1.1-11.89,4.38-4.73,4.5-9.23,10.1-17.15,6.26-.81-.39,0-.64-.65-.09-4.12,3.73-8.28,8.77-10.06-1.63-2.2,3.73-6.81-.54-7.74,1.2-4,7.5-6.67,3.7-9.89-1,0,6.64.8,12.88-7.71,15-3.1.78-.87,7.79,3.17,9.09,1.63.53,3.45.2,5.07.88,3.85,1.6,6.39,3.82,4,8.44-1,1.89-2.82,4.45-.17,5.77,2.45,1.22,3.52-1.94,4.94-3.46s2.59-3.6,4.34-5c1.19-.95,2.56-1.68,4-.66s1.07,2.55.52,4a12.41,12.41,0,0,1-.71,1.29c-4.63,9-1.45,14.74,8.92,14.65,5,0,8.52.85,11.07,5.26,1.36,2.37,4,2.63,6.54,2.65,5,0,9.76,1.2,14.62,1.87C617.6,786.39,622,787.1,623.65,791.9Z" fill="#26211b"/><path d="M894.17,762.18c.74,4.09-1.45,7.82-1.46,11.82,1.64,1.86,1.57,4,1.22,6.28a164.49,164.49,0,0,0-1.79,21.28c-.12,4.35.29,8.25,2.52,12s3.4,7.65,2.58,12c-1.1,4-2.77,7.79-6.21,10.41a5.82,5.82,0,0,1-7.41.18L879.55,833c-10.48-8.24-11.33-8.18-20.06,1.48-6.86,7.6-8.56,7.7-16.12,1-3.11-2.78-7-5.07-9.21-8.42-4.51-6.73-9.51-5.59-15.19-2.32-4,2.32-8.06,4.6-12.09,6.9-3.74-.27-7.25,1.67-10.87,1.5-5.44-.25-12.45,2-13.82-6.84-.29-1.83-2.23-1.53-3.63-1.81a19.86,19.86,0,0,0-10.26.36c-13.33,4.62-26.84.49-40.23,1.29a10.9,10.9,0,0,1-6.43-1.4c-8.15-5.08-16.89-6.15-26.24-4.58-3.61.61-7.37.21-11.06.06-3.41-.14-6.79-1.25-8.2-4.21-5-10.49-15.28-10-24.18-11.7-10.85-2.08-13.27-6.38-6.78-15.3,9.53-13.11,19.58-25.8,32.49-35.89,1.75-1.68,3.53-3.36,5.41-4.92,5.92-4.9,6.62-4.79,11.48,1.4,3.26,4.15,7.74,4.81,12.55,4.13a78.12,78.12,0,0,0,9.24-2.34c1.66-.45,3.44-.8,4.81.66,5,5.24,7,6,16.78,6,3.26.89,6.34-.39,9.47-.82,3.52-.48,7-1.12,9.05,2.79,1,1.87,2.39,1.14,3.78,1.23,6.13.4,12.26,1,18.39-.19,3-.59,6-.51,7.85,2.52,1.72,2.83.13,5.27-1.37,7.48-6.58,9.74-13.31,19.37-17.64,30.43,4.7-11.56,11.91-21.62,18.65-32,1.62-2.49,3.32-4.18,6.49-3.81,4.64.55,9.32.87,13.93,1.51,5.47.77,6.75,3.23,4.31,8.11a124.58,124.58,0,0,0-9.64,25.38c2.47-10.05,6.85-19.33,11.25-28.62,1.82-3.87,4.3-5.37,8.16-3.63,11.88,5.36,23.58,1.75,35.24-.7,2.81-.59,5.27-1,7.79.46A22.65,22.65,0,0,0,875,771c3.88,0,6,1.88,5.81,5.91-.46,10.22,3.77,19.53,5.48,29.33-1.92-10.5-5.93-20.55-5.55-31.57.23-6.92,4.3-11.84,7.29-17.37a3,3,0,0,1,3.84-1.44C894.63,757.12,894.59,759.63,894.17,762.18Z" fill="#1c1914"/><path d="M506.36,641.07c-4.22-.76-7.79,1.38-11.19,3.09-8.93,4.49-19.74,4.07-27.76,10.92-1.8,1.53-4.23.92-6.1-.73-1.48-1.29-2.73-3.31-4.43-3.81-8-2.34-7.92-6.35-3.5-12.3,2.53-3.39.45-5.49-3.27-6-6.78-.9-13.62-1.42-19.93-4.45a8.24,8.24,0,0,0-7.79.64c-4.95,2.8-9.89,5.32-15.72,5.72-1.28.09-3.08.77-3.21,2.55s1.39,2.33,2.83,2.82c5.56,1.93,6.2,4.52,1.83,8.89-6.31,6.31.32,11.41,3,16,3.47,6.07,10.83,9,14.87,15,2.1,3.13,6.94-.24,9.36,3-5.63-1.54-11.42,1.31-17.18-1.22-11.54-5.08-22.52-11.73-29.25-22-11.36-17.24-7.77-15.65,4.86-27.36-9.32-4.13-18.85-8.3-25.07-16-3.32-4.09-8.32-6.55-10.46-12.41s.36-7.7,4-9.6c4.32-2.24,9-3.78,14.16-5.88-7-7.31-16.43-9.9-23.58-15.84-5.58-4.63-10.32-10-15.07-15.29-5.05-5.63-3.91-9,3.51-10.87,8-2,16.2-3.2,25.3-4.93-5.05-5.22-11.8-4.52-16.82-7.73-14.38-9.19-28.09-19-38.15-33.07-3.24-4.53-1.39-8.09,4.55-8,19.23.44,38.3,2.42,57,7,2.78,1,7.23.76,6,5.47a4.07,4.07,0,0,1-5.89,2.87,87.49,87.49,0,0,1,21.23,4.69c4.32,1.55,6.62,3.47,5.15,8.61s1.37,9.13,4.9,12.38c10.68,9.79,16.88,21.56,19.91,35.92,2.14,10.15,8.21,19.32,16.56,26.21,2.8,2.31,5.17,4.78,5.67,8.27.84,6,4.56,9.53,9.25,12.58a74.27,74.27,0,0,0,18.46,9.09c4.33,1.34,8.6,2.3,12.71-.65a6,6,0,0,1,3.48-1.1c2.64,0,16.28,12,16.68,14.66A3.27,3.27,0,0,1,506.36,641.07Z" fill="#332a22"/><path d="M959.38,620.38c-2.26-.07-4.37.09-4.58,3.08-1.51,2.54-1.35,5.51-2.08,8.25a11.51,11.51,0,0,0,0,4c.31,1,1.62-.29.7.08-.41.16-.69,0-.6-.37.4-1.69-1.93-4.51,2-4.77v10a3.24,3.24,0,0,1-4.12-2.35c-.74-2.15-1.64-3.71-4.18-2.57-1.51.69-3.85,1-3.94,2.91-.12,2.46,2.52,2.79,4.22,3.41,3.46,1.26,7.23,1.94,7.52,7-4.15.55-8.11,1.1-12.15-.47-10.25-4-19.54,2.34-29.32,3.36-5.71.59-9-1.8-13.19-4,4.17-.7,7.78-2.54,11.58-3.85,1.28-.43,3.34,0,3-2.22-.35-2-2.35-1.82-3.62-1.54-4.44,1-7.12-1.05-10.16-4.08-5.2-5.19-11.38,1.24-17.37-.9-.21-2.18,1.28-3.13,3.44-2.93,7.08.63,12.84-1.31,16.06-8.06,1.21-2.53,3.55-2.23,5.53-3,1.31-.49,3.16-.84,3.15-2.64,0-2.21-2-2.3-3.66-2.83-2.84-.91-5.27,1-7.58,1-4.14,0-8.08-2.15-11.13,2.87-1,1.66-3.6-.36-5.38-1.07a589.61,589.61,0,0,0,35.11-92c7.95-27.95,6-56.42,6.57-84.81.11-5.85.3-11.71.84-17.53a176.52,176.52,0,0,0-1.39-41.92c-.85-5.48.1-9.48.65-14.88.47-4.52,1.94-8.07,2.74-12.13,1.32-5.43,4.08-10.51,6.25-15.71,3.45-1.89,5.2-.84,4.83,3-.21,2.19-1.32,4.21-2,6.33-1.48,4.9-.38,9.16,4.33,11.22,6,2.64,8.66,6.77,7.91,13.29.26.86,1.91-.17.93,0-.29.05-.37-.09-.45-.35-.77-2.37-1.29-4.56,2.57-3.93,3,4.32,3.39,9.24,3.33,14.27-2.16,3.78-1.69,8.52-4.41,12.1-.34,2.08,0,4.25-1,6.26,1.23-2,0-4.62,1.85-6.48,2.82.63,3.19,3.11,4,5.24a18.81,18.81,0,0,1,0,8.67c-2.05,7.32.68,15-1.61,22.27a3.06,3.06,0,0,1-1.57,1.56c-2.72,0-3.4-2-4.14-4.07,1.43,5.12,5.91,9.44,4.28,15.38-1.49,5.58,1.56,10.44,2.47,15.63,1.16,3.29,4.22,6.58.06,9.85-.18,0-.57,0-.63-.13-.29-.59-.85-.69-.81-.33,1.08,10.06,2.06,20.16,5.39,29.82a30.7,30.7,0,0,1,1.22,14.4c-.42,2.08-1.12,4.08-1.68,6.11-1.09,4.28-1.87,8.56.21,12.79a13.73,13.73,0,0,1,1.5,1.55,6.11,6.11,0,0,1,1.18,3.15c-1.32,6.22-.26,12.59-1.21,18.83a5.29,5.29,0,0,1-1,2c-7.23-1-5.11-6.39-5.65-9.58-1.83,4.81,2.21,8.74,5.23,13,4.64,10.35,7.21,21,4.71,32.38-.64,2.94,0,7.16-5.14,6.83-2.16-3.94-2.14-5.48-.24-.29a2.61,2.61,0,0,1,1.3,2.61c-.42,1.9-2.83.88-3.52,2.4-1.47,2.54-2,5.11-.64,7.77,1-2.28-1.09-7.12,4.54-5.18C961.48,612.37,962.27,616.53,959.38,620.38Z" fill="#4d3e33"/><path d="M574.32,670.44l.24-2.79c.39-2.51.5-4.71-2.51-6-13.61-5.75-21.73-17.72-31.35-27.94a24.31,24.31,0,0,0-6.66-5.49c-2.1-2.36-1.43-3.92,1.44-4.78,1.89-.57,3.93-.39,5.79-1.05,2.39-.86,3.65-2.53.72-3.91-6.31-3-10.46-8-14.16-13.55-1.65-2.48-4.21-3.19-6.89-3.8-1.15-.27-2.56-.62-2.6-2.12s1.45-1.7,2.52-2.22c2.61-1.25,7.31,1.37,7.82-3.11.31-2.66-2.92-4.9-4.38-7.44-.85-1.49-2.51-3-2.14-4.57,1.25-5.12-.88-8-5.08-10.63-3.22-2-2.36-4.46.88-6,2-1,4.27-1,6.48-1.08,2.42-.06,5.2,1.68,6.39-2.73.51-1.87,4-.33,6.06.31,4.55,1.42,8.9,3.77,13.93,2.64,7.7.31,14.14,5,21.1,6.62,13.83,3.29,26.8,9.25,40.7,12,8.23,1.6,15.39,6,23.58,7.8,12.34,2.69,24,8.36,36.79,9.21a5.4,5.4,0,0,1,2.11.61c13.45,7.06,29.13,8.78,41.85,17.67,3.38,2.35,7.68-.18,11.48.78-1.07,5.78-7.11-.63-8,3.28,2.4-1.33,5.76-1,8.89.36,5.3,2.34,6.32,7.7,2.1,11.4a74.65,74.65,0,0,0-7.36,8.06c-2.9,2.26-6.32,2.54-9.79,2.49-7.06-.11-8-1.43-5.71-8.13-2.56-1.2-5.32-.43-8-.79-3.39-.46-6.62-1.06-5.43-5.76.31-1.25.76-2.46-1.11-2.74-1.54-.24-3.13,0-3.79,1.52-1,2.44-1.32,5.34-4.52,6.21-4.58.43-6.85-2.53-8.84-5.94-2.54-6.13-6.45-11-12.73-13.69-3.68-5.13-10.11-5.78-14.93-9.06-1.27-.87-2.39-.39-2.75,1.12s0,3.25-1.15,4.17c-12.13,10-11.86,26.15-19.49,38.36-1.19,1.91-2.07,3.93-4.26,4.79-14.35,5.63-28.35,12.11-42.66,17.84C577.32,673,574.47,674.48,574.32,670.44Z" fill="#837062"/><path d="M623.65,791.9c-7.53-5.72-16.65-4.88-25.28-6.06-2.15-.3-5.37.75-6.18-1.32-2.54-6.54-7.15-7.36-13.21-6.44-1.72.26-3.79-.94-5.53-1.81-8-4-8.8-7.58-3.56-14.61,1-1.32,2.67-2.22,2.49-4.88-4.56.94-5.51,5.25-7.84,7.83-2,2.26-4.29,5.59-6.8,3.81a5.68,5.68,0,0,1-.53-9c1.19-1.14,2.94-2.48,1.52-4.35a7.75,7.75,0,0,0-6.41-3c-5.76,0-10.1-5.2-8.65-10.6.46-1.7.92-4.4,3.65-3.69,6.27,1.65,6.06-3,5.54-6.29-.57-3.64,1-6.37,1.43-9.9,3.82,2.16,2,8.74,6.52,8.23,3.34-.39.71-6.66,4.75-8.28,2.38.88,1.36,4.06,3.67,5.32,1.73-1.4.28-6.17,4-5.23,2.59.65,1.77,3.52,1.37,5.74-.25,1.42-.19,3.15,1.8,3.4s2.35-1.34,2.43-2.88c.17-3,1.55-5.71,4.33-3,6.59,6.36,10.81.25,14.16-3,6.37-6.16,12.16-9.92,20.88-4.64,3.22,1.95,7.49-3.21,11,.65,0,.31,0,.63,0,.94-.74,3.49,1.79,5,4.09,6.61a59.2,59.2,0,0,0,6,3.63c4.22,2.3,8.73,1.72,13.22,1.34,8.27-1.08,8.49-1,7.9,6.81-.33,4.34,2.35,5.62,5.6,6.3,5.14,1.09,10.2.29,15.19-1.22,1.87-.56,4.16-1.1,5.38.83,1.46,2.32-1.13,3.33-2.33,4.66-1.8,2-3.82,3.78-5.74,5.66-12,9.1-21.44,20.55-30.38,32.48-7.34,9.78-10.43,10.59-22.4,6Z" fill="#1c1914"/><path d="M534.51,627.75c2.28.28,4.15,0,6.16,2.58,9.63,12.23,19.48,24.43,34.39,30.89,6.12,2.65,1.3,4.41-.5,6.43a54.31,54.31,0,0,0-6.35,1.81c-5.13,2.14-8.5,1.29-11.38-4.08-5-9.39-18-12.5-26.87-7.14-5.82,3.51-12.19,2.57-17.73-3.56-2.58-2.85-4.56-3.08-8.18-2.4-12.59,2.38-24.08,6.58-33.65,18.36,3.88-10,5.8-11.92,17.57-16.57a74.36,74.36,0,0,1,14.1-4c8-1.43,8.08-1.2,4.29-9-.89-4.65-1.53-9.34-8.45-7.53-2.42.63-3.17-1.41-3.42-3.68-.59-5.35-3.21-6.53-7.27-2.83-2.51,2.28-5.14,2.47-8.2,1.79-11.54-2.54-21.34-8.48-30.61-15.46-.39-.3-1-.63-1-1-3.23-15.83-19-23.79-24.3-38.36-1.23-3.36-1-6.74-1.81-10.08-3-11.69-9.15-21.12-18.1-29.08-4.42-3.94-8.26-8.78-5.22-15.25,1.72-3.66-.45-4-2.83-4.89a100.31,100.31,0,0,0-19.94-5c-2-.29-3.9-.47-5.16-2.28,2.35-2.07,7.13,1.38,8-3.22.62-3.21-3.49-2.86-4.86-4.76,6-.14,11.41,2.31,16.92,4.18,14.61,4.94,29.18,10,43.76,15,3,2.57,6.48,5.07,2,9.23-.21.2-.83-.18-.8-.11a1.36,1.36,0,0,0,1.08.87,10.72,10.72,0,0,1,4.56,2.21,3.55,3.55,0,0,1,1.21,2.76c-2.68,5.39-7.15,3.86-11.49,3-2.58-.51-5.65-2.22-7.67.19-2.25,2.71-.14,5.8,1.34,8.16A70.23,70.23,0,0,0,440,563.07c3.44,2.69,5.44,4.85,3.41,9.72-2.55,6.11.25,12.41,6.12,15.55,4.11,2.2,8.3,4.07,11.92,7.2,5.82,5,6.92-2.76,10.38-4.26,8.8-.28,16.69,3.56,25,5.51,2.11.5,2.88,2.32,3.61,4.27,3.56,9.49,6.05,11.31,16.33,11.29,6.1,0,11.8.59,16.11,5.53,1.12,1.29,2.67,2.54,2,4.42-.73,2.19-2.88,2.5-4.85,2.53-2.46,0-5,.42-7.36-.13-9.15-2.15-18.61-.6-28.51-2.21,10.68,1.32,20.78.91,30.75,2.2C528.43,625.14,531.65,625.64,534.51,627.75Z" fill="#453a32"/><path d="M723.9,641.16c.26-3.17,2.41-5,4.44-7.15,1.58-1.71,7.08-2,3.6-6.79-2.89-4-6-6.27-10.83-3.42-2.3,1.35-4.46,1.18-7,.16,3.46-6.45,10.54-1.09,14.34-5.15,12.19,4,24.84,4.8,37.52,5.57,16.67,1,33,4.55,49.16,8.4,8.24,2,16.69-.7,24.73,2.12-6.34,4.36-13.35,1.16-18.89,2-.17,0-1.46-.26-1.09-.18,10,2,16,7.15,14.95,18.21-.71,7.18-5.76,10.56-12.5,8.29-5.13-1.73-10.2-.82-15.33.12s-9.74,3.56-15.08,3.18c-2-1.59-3-3.83-4.17-6-.85-1.64-2.07-3.14-4-2.76-9.08,1.84-17.14-3.55-26-3.41-5.32.08-10.77-1.13-14.58-5.86-2.22-2.74-5.12-2.1-8.11-1C727.94,650.06,726.62,649.23,723.9,641.16Z" fill="#86786b"/><path d="M944.75,983.67,943,982.28c-12-2.91-23.22-6.74-27.34-20.22a6.81,6.81,0,0,0-6.32-5.25c-7.2-.77-11.2-5.46-13.7-11.76a42.15,42.15,0,0,0-1.88-4.77c-5.55-10.19-12.87-19.24-18.72-29.23-1.77-3-3.75-5.79-7.43-6.69-5-1.21-6.41-4.76-6.41-9.4,0-7.57,2.42-14.41,6.14-20.89,3.84-5.73,9.62-9.18,15.22-12.84,2.71-1.66,3.44.28,3.78,2.27.41,2.4-.43,4.73-1,7-1.69,6.19-3.49,12.26.39,18.49,1.58,2.54.34,5.79.25,8.73-.28,8.64,5.24,16.7,13,18.94,3.62,3,4.08,7.71,6.38,11.43,3.78,6.13,6.27,7.42,12.57,4.41,5.39-2.58,8.16-.38,10.8,3.89,5.52,8.93,7.69,9.2,15.48,1.92,2.91-2.72,5.65-3.92,8.84-.57,6,7,4.87,16,7,24.12.29,1.13-.85,2.2-1.93,2.88-3.25.17-3.43-2.59-4.41-4.58-.36-4.29-2.1-8.3-2.35-10.56.69,4,2.91,9.74,2.33,15.94-.38,4.11-4.08,7.67-2,12.19a16.23,16.23,0,0,1,.49,3.32C950.73,988.36,950.73,988.36,944.75,983.67Z" fill="#362f28"/><path d="M534.51,627.75l-48-4.77.09-2.42,48.4,3c-5.21-6.67-9.78-10.15-17-9.06-6.91,1-13.27,0-17.48-6.53-.26-.4-.94-.68-1-1.06-1.22-13.49-13.61-9.12-20.86-12.87-2.29-1.19-5.22-1.13-7.85-1.64-4.55,1.91-7.94-1.32-11.63-2.81-2.55-1-3.55-3.49-1.92-6.12,1.47-2.39,3.95-2.32,5.82-.92,9.5,7.16,21.14,7.5,32,10.18,6,1.47,12.28.36,19.53,2.64-3-2.75-6-4.74-4.1-7.91,2.64-4.32.32-5.64-3.25-6.56-7.48-1.94-13.43-7.1-20.61-9.71-2.32-.85-4.74-2.48-4.8-5.14-.13-5.42-5.21-6.59-7.54-9.84-8.42-11.77-22.74-14.41-33.11-22.93l-1.5-1.47c1-3.87,3.64-2.26,5.48-1.31,14.06,7.24,28.69,13.33,42.29,20.27-3.3-4-9.18-7.38-7.79-14.62,15.94,4.46,30.76,11.72,45.78,18.42,8.27,3.69,16.43,7.54,25.29,9.65-6.94,3.34-12.91-1.71-19.44-2.24-.83,2.13,2.8,2.67,1.66,5.13-5.55-1-11.3-3.08-16.88.72,1.61,3.43,5.59,3.23,7.61,5.67,1.48,1.78,4.11,2.94.64,5.68s.7,4.8,1.81,6.58c7.26,11.61,7.38,11.54-6.06,12.84-.13,0-.24.26-1.1,1.22,7.05-1.61,9.66,2.74,12.49,7.2s6.08,8.24,11.49,9.73c1.76.48,4.15,1.17,4.17,3.58,0,2.81-2.7,3.37-4.65,4a23.71,23.71,0,0,1-6.55.58C533.51,624.88,534,626.28,534.51,627.75Z" fill="#5f5146"/><path d="M625.77,791.91c12.14,2.83,19.85-2.29,26-12.71,5.06-8.62,13.21-15,20.31-22.07,1.7-1.7,3.17-3.84,6-3.82.51-.6,1-.63,1.51,0a213.77,213.77,0,0,0-31.75,35.37,40.77,40.77,0,0,0-3.2,4.9c-2.64,5.19-1.25,8,4.46,8.39,11.77.79,21.76,3.9,29.8,13.86,4.74,5.88,13.56,2.81,20.28,1.81,6.48-1,12.62-.41,17.69,2.58,6.17,3.64,12.31,4.21,19,4a66.16,66.16,0,0,1,16.09,1.23c6.91,1.5,13-3.69,20.07-3.31,4.93.26,9.42-1.54,11.94,5.7,1.45,4.15,8.16,4.63,13,3.24,3.51-1,6.7-1.38,9.92.51-4.49,2.35-8.89,4.93-13.51,7-9.22,4.14-11.32,2.69-11.36-7.29,0-1.62.59-3.39-1-5.24-9,5-18.41,9.13-28.48,11.27-3.37.72-7.93,3-9.59-3.05-.53-2-2.33-1.38-3.7-.83-5.51,2.21-11.38,2.83-17.16,3.49-8.2.92-13.38,0-9.89-9.79.48-1.34,2.37-3.19,0-4.45-1.35-.74-2.81.26-4.11,1-9.67,5.49-20.46,6.2-31.14,6.7-5.22.25-8.88-1.95-7.11-8.74,1-3.84,4.55-8.64,1.5-11.62-1.71-1.67-7.26.26-11,1-11.82,2.4-23.5.79-35.17-.93-3-.45-6.89-.95-7.89-4.36-.87-3,2.82-4.24,4.26-6.41C623.19,797,627.93,796.32,625.77,791.91Z" fill="#26211b"/><path d="M792,666.17c8.58-4,17.52-6.27,27-5.9a11.83,11.83,0,0,1,4.33.56c5,2.29,9.5-.72,9.47-6.46q-.07-14.31-14.23-16.23c-2.14-.29-4.46.58-7.46-1.87,10.08-2.28,19.49-.24,28.65-1.37l15.87.41c-4.13,3.1-9.15.09-13.94,2.1,2,3.14,5.12,3.5,8.47,3.83.18,3.89-11.86,8,1.26,11-5.67,3.87-10.12,7.43-6.39,14.15.4.73-.17,2.4-1.3,2.13-8.91-2.11-2.61,3.27-2.67,5.41,0,.66.69,1.3.88,2,1.17,4.29,3.84,9.32-5.22,8.77,2.68,4.31,7.19,4.39,9.79,7.15,7.21,7.65,6.76,10.51-2.75,15.82-9.6,2.75-16.23-2.48-19-15a6.7,6.7,0,0,1,1.25-4c3-4.27,1.89-7.08-3-8.54-4-.17-7.81-.84-11-3.4-3.87-2.09-7.74-.6-11.62,0-5.31,0-10-.88-11.16-7.22C789.48,667.75,789.62,666,792,666.17Z" fill="#71655a"/><path d="M867.35,874.07c-.56,7.57-5.16,14.33-4.31,22.2.28,2.49.07,5.75,3.14,5.82,9.78.24,10.5,9.17,14.36,14.76,1.62,2.35,2.22,5.21,5.3,6.35.87.31,2.2,1,2.25,1.62.64,7.52,6.95,12.25,9.22,19,2,6,5,11.58,13.25,10.64a6.43,6.43,0,0,1,6.86,5.58c1.22,10.23,8.52,14.08,16.6,17.57,3.09,1.33,6,3.08,9,4.63l-7.59,7.24c-7.41,1.53-12.73-1.86-15.67-8.08-2.72-5.73-6.35-9.12-12.72-9.39A12.59,12.59,0,0,0,900,966a17.49,17.49,0,0,1-12-12.83c-1.27-4.73-4.58-8-7.46-11.64-4.13-5.17-8.78-9.94-9.55-17-.17-1.6-1.45-2.87-2.84-4.08-10.63-9.22-15.87-20.3-11.14-34.52C859.3,881,863.07,877.31,867.35,874.07Z" fill="#514a42"/><path d="M883.74,871.32c-2.11-3.17,4.84-7.37-1.17-10.09q2.82-3.75,5.65-7.48a1.48,1.48,0,0,1,1.9,0c5.94,11.65,11.74,23.32,19.07,34.29,2.82,4.22,6.09,9.59,5.72,15.72-.25,4.16,3.56,5.2,6.23,7.31,8.16,6.44,18.23,10.13,25.49,17.8.12,5.3-4.06,7.27-7.81,8.36-4.2,1.22-6.8-2-8-5.84-.71-2.26-2.38-3-4.33-3.48a13.25,13.25,0,0,1-7.61-5.49c-1.13-1.61-2.17-3.55-4.54-3.15-5.46.91-8.11-2.38-10.28-6.52a3.87,3.87,0,0,1,.2-2c.59-1.57,2.54-2.34,2.55-4.81-3.45-.68-8.53,1.84-9.92-4-.9-3.77-3.31-7.1-3.3-11.14,1.07-2,1.45-3.71-.43-5.81C889.45,880.84,887,875.82,883.74,871.32Z" fill="#47413c"/><path d="M479.75,536.1c2.21,7.26,7.64,12.18,12.3,18.32-8.65-3.93-17.35-7.76-25.95-11.81-6.9-3.25-13.63-6.85-20.54-10.09-1.72-.81-3.52-3.35-5.79-.76l-6.41-3.24c6-3.24,1.81-6.6.49-10Q457.15,526.41,479.75,536.1Z" fill="#51443a"/><path d="M951.84,305.2c.61,9.2,3.9,19.41,1.33,28.3-.92,3.45-.62,7.09-1.68,10.52-1.23,2.05-2.32,4.92-5.1,4.41-2.26-.41-3.19-3.28-3-5.35.51-5.92-4.12-6.2-7.74-7.7q2.33-11.08,4.64-22.18a8.92,8.92,0,0,0,.55-2.07c.68-2.53,1-6.61,5.29-7.72C949.67,302.49,949.82,301.76,951.84,305.2Z" fill="#ae6a53"/><path d="M857,885.89a7.29,7.29,0,0,1,.64,4.23c-2,12.47,2.26,22.19,12.93,29.18a6.51,6.51,0,0,1,2.28,4.37c.92,9.46,7.68,15,13.72,21.07,2.61,2.61,2.38,6.29,3.65,9.39,2,4.93,4.78,8.14,9.94,9.84,3.54,1.18,7.83,2.44,7.56,7.71-.1,1-1,1.06-1.65,1.49l-1.46.36c-3.57-3.44-8.73-3.72-12.72-6.36a6.44,6.44,0,0,1-1.91-2.47,93.12,93.12,0,0,0-16.11-24.8c-3-3.19-5.22-6.34-5.29-10.8,0-2.94-1.25-5.19-4.35-6a5.24,5.24,0,0,1-2.61-1.39l0,0c-6.56-7.17-13.3-14.27-10.49-25.31C851.54,892.05,854.39,889.05,857,885.89Z" fill="#686057"/><path d="M935.64,335.38c12.73-4.28,8,7.22,11,13.09l3.45-4.39c3.68,8.25,4.91,16.62,1.34,25.25l-1.7,6.24a5.72,5.72,0,0,1-2.13-5.23,7,7,0,0,0-4.05-6.86c-10.32-5.14-11.73-8.25-7-19,1.53-3.47,2.11-4.88-2.31-4.74C933.62,338,934.52,336.64,935.64,335.38Z" fill="#5d4e41"/><path d="M861.57,921.72l3,0a6.42,6.42,0,0,1,4.24,5.57c.1,8.51,5.72,13.67,10.85,19.2.85.92,1.69,1.79,1.23,3.18-3.45,1.17-6.85,2.41-10.4,3.37-6.92,1.86-9.36.07-9-7.05C861.84,938,861.56,929.83,861.57,921.72Z" fill="#948b83"/><path d="M969.42,378.22c5.11,14.43.68,27.91-4.16,41.35-1.49.37-2.22-.54-2.81-1.68-1.8-5.45-.1-10.88,1.32-15.86,2.34-8.26,1.24-15.88-1.35-23.64-1.57-3.09,1.43-6.22-.11-9.32-.76-8-1.39-16,.06-25.53,7.14,8.47,2.71,17.59,4.52,25.54C969,371.79,968.54,375.18,969.42,378.22Z" fill="#5d4e41"/><path d="M963.6,995.25c-2.77-11.66-4.82-24.06-.93-35.08,3.46-9.8,2.06-18.21-.34-27.08-1.5-5.5-.11-10.64.21-15.94.87-2.08.32-4.27.49-6.4.12-1.54.34-2.93,2.46-2.38,2.83,4.19,1.18,9.27,2.75,13.71.18,3.26-1.56,6.6.46,9.78,1.43,4,2,8.25,2.83,12.43,1.19,7.51-2.39,14.35-3.74,21.41-1.4,7.28-2.78,14-.43,21.19a2.94,2.94,0,0,1-.67,2.75Z" fill="#362f28"/><path d="M889.6,853.6a8.09,8.09,0,0,1-1.38.15c0-6.25-4.71-11.29-4.6-17.58,8,1.08,9.18-5.66,12-10.48,2.34-3.25,4.63-1.56,5.29.86,1.3,4.77,4.81,9.1,3.42,14.5-.82,2.35-2.2,4.51-2.57,7-1.5,4.36-3.55,6.86-8.22,3C890.11,848.17,891.68,853.89,889.6,853.6Z" fill="#746b64"/><path d="M906,973.17l1.65-1.49c5.09-1.63,9.82-.33,11.36,4.6,2.64,8.42,8.61,11.69,16.39,13.24-.94,1.68-1.85,3.37-2.84,5-3.06,5.14-5.79,5.3-8.94.39-1.19-1.85-2.18-3.81-4.3-4.78-5.16-2.35-7.46-6.82-8.58-12C910.14,975.4,909.7,972.89,906,973.17Z" fill="#706962"/><path d="M957.55,964.42c-2.16,10.39,1.48,20.41,2.06,30.63.09,1.69.86,3.34-.38,4.89-6.27.61-9-3.55-11.18-8.35-1.19-2.6-2.2-5.28-3.3-7.92,3.45,1.82,6.32,2.56,5.76-3.07,3.85,2.29,2.07,6.21,3,9.36-1.26-4,.88-8.83-3.28-12.1-4.28-4.87,1.53-8.13,2-12.24,1.07.31,1.49.15,1.43-.57-.14-1.89-.58-3.88,1.6-5Z" fill="#544e49"/><path d="M891.2,964.54l1.47,1.47c1.23,2.79,4.12,3,6.44,4,3.39,1.43,4.15,3.59,2.56,6.77-8.33,6.77-9.23,6-13.07-3.57-2.19-5.43-6.6-10-6.83-16.36,0-1.43-.77-2.89.4-4.19C886.81,955.38,887,961.45,891.2,964.54Z" fill="#88837b"/><path d="M995.6,890.54c-.17,3.37,1.58,6.72.14,10.1-1.21,1.48-.09,3.5-1,4.9-1.11,1.75-2.18,1.81-2.12-.72-2.68-2.77-3.63-1.69-4.42,1.59-.94,3.88,0,8.43-4,11.6-2-4.81.53-9.58-.13-14.25,1.13-5.15,2.45-10.26,2.5-15.6,0-1.88,0-4.31,2.15-5,2.5-.78,2.71,1.75,3.76,3.29C993.47,887.84,995.83,888.19,995.6,890.54Z" fill="#2c2823"/><path d="M970.27,471c.15,4.54-.78,9.17,1.14,13.57a7.91,7.91,0,0,0,.18,1.37c-.78,3.92,3,8.94-2.79,11.68-4.29-7.44-4.92-15.61-4.36-23.87.46-6.81,1.49-13.41-2.35-19.85-2.15-3.6-.43-7.55,1.75-11a2.7,2.7,0,0,1,3.46.2c-1.18,4.13-1.29,8.16,1.15,11.95C972,460.09,971.05,465.57,970.27,471Z" fill="#4d3e33"/><path d="M851.11,896.39c-1.23,10.39,7.61,16.62,10.49,25.31-1,0-2,0-2.93.06-11.14.7-11.34.44-9-10.31C850.72,906.5,848.34,901.2,851.11,896.39Z" fill="#8d847c"/><path d="M891.2,964.54c-7-.94-5.18-8.56-9-11.88-.44-1-.87-2-1.31-2.95-10.53-6.35-11.38-18.34-16.32-28,3.27.39,6,2,5.63,4.87-1.17,8.77,6.61,12.26,9.93,18.31C883.72,951.52,889.69,956.77,891.2,964.54Z" fill="#706962"/><path d="M993.19,623.41c2.27,8.36,5.21,16.58,3.12,25.56-.87,3.73-4.23,6.66-3.34,10.88-3.86-4.71-1.81-10-1.06-14.94.43-2.86,1.1-5.55.08-8.36C992.64,632.19,987.31,627.29,993.19,623.41Z" fill="#3b2f26"/><path d="M976.86,592c-5,1.26-3-3-2.84-4.34.72-7.57-1.53-14.4-3.86-21.42-1.82-5.5,1.43-10.49,3.18-16.12,2.42,5-1.26,10,2.06,14.16C976.67,573.48,973.9,582.89,976.86,592Z" fill="#4d3e33"/><path d="M957,375.55c-1-10.95-3.2-21.84-1.5-32.91.15-1.4.29-2.8.43-4.2,1.71-.91,2.14.28,2.54,1.53l.07,23.55C956.37,367.32,960.82,372,957,375.55Z" fill="#5d4e41"/><path d="M976.43,550.37c.32-7.85.88-15.68,3.16-23.27,1.3,5.08,2,9.85.43,15.38-1.67,5.86,2.74,12.15,1,19.81C979.2,557.59,977.82,554,976.43,550.37Z" fill="#4d3e33"/><path d="M972.34,985c-5.65-8.08,1.4-16,.31-24.08-.16-1.13.24-1.19,2.85.53.4,7.82-2.89,15.46-.84,23.43C975.1,986.64,973.39,988.39,972.34,985Z" fill="#362f28"/><path d="M994.27,587.8c-.48,1.6-.56,3.52-1.54,4.7s-3,4.07-4.36-.08c.22-5,.66-9.91,2.73-14.93C995.66,580.19,994.3,584.2,994.27,587.8Z" fill="#4d3e33"/><path d="M986,561.92c3.92,7.38-2.15,14.35-1.12,21.6C979.2,576.08,986.3,569.15,986,561.92Z" fill="#4d3e33"/><path d="M990.58,599.07l3.19,3c1.07,1.07,3.76.61,3.11,3.29-1.29,4.07,1,8.54-1.47,13.72-2.94-5-1.67-10.31-4.64-14.08C992,603,988.57,601.13,990.58,599.07Z" fill="#4d3e33"/><path d="M952,307.24c-8.59-3.77-8.59-3.77-11.67,6a37,37,0,0,1,1.31-7.51c1.47-5.33.76-5.6,5.6-5.69C952.61,299.9,951.6,304,952,307.24Z" fill="#ae6a53"/><path d="M979.29,954.49c.05-4.41-.26-8.86.24-13.22s2.12.16,3.21-.14c-1.66,6.42,3.24,13-1,20Z" fill="#362f28"/><path d="M978,933.16c-3.37-1-1.2,3.75-3.74,3.62,2.77-7.23,2.94-14.88,3.56-22.45C983.38,920.55,981.63,926.85,978,933.16Z" fill="#362f28"/><path d="M971.59,521.11c-.92.2-2.53,2-2.58-.3-.12-6.23-1.12-12.68,2.68-18.37C972.46,508.66,973.51,514.89,971.59,521.11Z" fill="#4d3e33"/><path d="M983.21,649c-.11-3.85-.43-7.71-.28-11.55.1-2.52.16-5.6,4.2-5.19L986,648.45C985.19,649.18,984.46,650.4,983.21,649Z" fill="#3b2f26"/><path d="M960.69,338.85c-1.67-2.71-3.43-5.38-4-8.61,2.83,1.09,2.17-.82,1.66-2.11a11,11,0,0,1,.18-8.85C959.91,325.76,964.37,331.89,960.69,338.85Z" fill="#ae6a53"/><path d="M981.17,603.08c-3.87-5.91.69-10.87.5-16C984.85,592.18,982.43,597.24,981.17,603.08Z" fill="#4d3e33"/><path d="M986.83,606.8c1.36,5.84,2.46,10.58,3.57,15.32C985.63,618.14,983.7,613.58,986.83,606.8Z" fill="#4d3e33"/><path d="M901.67,976.78c.32-3.4-1.41-5.36-4.56-6.12-2.54-.61-4.37-1.75-4.44-4.65,3.66,3,10.71.64,11.89,7.52Z" fill="#706962"/><path d="M973.85,606.68l-1.56,4.75c-3.76-3.75-1.42-8.18-1.36-12.36.15-2.13.31-4.26.6-8.2,1.06,4.25,1.69,6.75,2.31,9.25Q973.84,603.39,973.85,606.68Z" fill="#4d3e33"/><path d="M970.14,544.11V528.78C972.07,533.48,974.73,538.12,970.14,544.11Z" fill="#4d3e33"/><path d="M978.91,617.45c-5.76,1.58-1.56-3-2.66-4.29.53-2.79,1-5.58,1.62-8.55C981.6,608.74,979.74,613.14,978.91,617.45Z" fill="#4d3e33"/><path d="M780.26,713.49c1.45,0,3-.22,4,1.3,9.87,16.1,12.25,16.84,27.94,8.48,3.59,6.25,6.36,13.53,15.32,13.9,3.61,7.28,3.07,15.69,6.45,23.17,1.59,3.52-4.25,7.41-9.22,6.72-4-.55-7.47-2.87-12.59-8.39-.11,6.62-1.79,8.46-7.94,7.84-8.84-.89-16.89-3.5-22.47-12.88,0,4.77-1.75,7-5.7,7.35-9.56.76-18.28-.44-24.08-9.84-3.1,10.69-11.44,5.84-17.87,6.61-8.65-5.75-17.64-7.21-28-4.35-6,1.65-10.52-2.69-11.5-8.77-.81-5-2.58-5.11-6.81-3.68a41.68,41.68,0,0,1-10,2.22c-4.82.36-9.73.57-11.61-5.16-2-6,1.71-9.47,6.63-11.36,11-4.21,20.13-11.21,29.6-17.78,6.48-.43,13,1.6,19.5-.59,1.47-.49,2.82.71,3.8,1.83,5,5.76,11.5,5.7,18.22,4.76,2.64-.37,5.17-1.25,7.67.75,8,6.37,16,4,24,0A23.19,23.19,0,0,1,780.26,713.49Z" fill="#1c1914"/><path d="M902.85,841.81c1.2-5.71-3.48-10.06-3.62-15.55-.05-1.83-2.23-1.07-3.58-.57-.16-2.19.47-4.89-.59-6.49-9-13.69-4.34-28-2.45-42.26a28.78,28.78,0,0,0,.1-2.94c1.17-.25,3-.12,3.41-.8,4.71-8.68,4.13-.26,5.41,1.73,3.13-.62,2.74-3.14,3.17-5.2.72-3.39,3.56-2.21,5.38-2,3.13.38.44,1.9.18,2.88-.84,3,1.14,3.27,3.21,3.08,2.23-.2,5.09-2.86,6.44.22,1.28,2.92-3.64,2.32-4.95,5.91,9.4.21,16.49-8,25.12-4.05,1.25-4.44-3.71-2.22-3.52-5.43,3.93-2,7,1.29,10.5,2.26a57.8,57.8,0,0,1,1-7.25c.39-1.5-1.65-4.89,1.92-4.2,3.15.6.21,3.18.48,4.84a10.88,10.88,0,0,1-.1,2.2c-1.89,4.34.44,8.38.92,12.54-.63,7.28,2.14,14.15,2.68,21.29,0,.53,1.54-.76,2.47-.27a10.36,10.36,0,0,1,3.94,6.4c.6,6,2.53,12.18-2.11,17.57-3.56.76-3-2.35-3.82-4.09a9.33,9.33,0,0,1-.29-3.11c-.57,2.65,1.4,5.49.39,8.32-.44,1.62-1,3.2-1.45,4.8-1.3,2.35-.1,6.88-3.46,7-2.95.08-.07,2.17-1.39,2.11-1.11,2-1.07,4.16-1.42,6.31a8.83,8.83,0,0,1-11.57,6.75c-4.83-1.51-9.3-4.69-14.78-3-1.9,0-3.69-.23-4.64-2.2.11-7.43,6-8.3,11.27-10.14a63.19,63.19,0,0,1,10.68-3.17c-8.27,1.32-16.58.41-24.85.94-1.12.07-2.62-.08-2.79,2.33C909.63,845.47,909,845.65,902.85,841.81Z" fill="#413831"/><path d="M800.92,675c4-1.61,7.9-2.77,11.85,0,1,3.06-1.48,5-2.42,7.43s-2.17,4.85.49,6.63c3,2,5.67.44,7.91-1.72,2.69-2.59,2.65-6.94,5.83-9.25,7.25,3.65,6.52,8.19,1.47,13.21-4.71,7.46-9.41,9.6-16.28,7.38-4.36-3-8.47-4.69-14.06-1.86-2.85,1.44-7,.87-10.62-1.17-5.94-3.38-13.14-2.55-19.62-4.13-9.27-2.26-18.74-4.4-27.43-7.95-10.22-4.18-20.07-8.48-31.32-9.15-6-.35-6.31-9.68-10.59-10-5.54-.4-9.89-1.24-13.83-5-4.24-4.07-9.73-2.55-11.51,3.1a28,28,0,0,0-.28,2.93c-.45,2.31-2.63,2.7-4.27,3.69a3.38,3.38,0,0,1-3.27.65c-9.87-6.45-9.61-9.57-7.23-20.72,1.76-8.28,5.6-14,11.26-19.29,3.22-3,6.62-5.26,11-2,2,2.61,3.7,5.5,7.41,5.92,5.54,4.12,12.13,6,18.45,8.33,2.87,1.07,6,1.79,6.58,5.09.85,4.64,3.8,5.26,7.8,6,6.88,1.28,14.23,1.57,20,6.59a6.94,6.94,0,0,0,5.59,1.44c9.18-1.35,17.78,2.68,26.93,2.68,5.16,0,10,4.55,15.74,5,1.45,2.17.89,4.31-.07,6.44-7.36,9.46-10.79,10.48-21.53,6.16a9.52,9.52,0,0,0-10,1.48c.06,1.38.61,2.18,1.25,2.13,11.61-.94,21.81,5,32.89,6.67,6.48,1,8.14-.65,8.56-9.77A9.14,9.14,0,0,1,800.92,675Z" fill="#4d3f35"/><path d="M734.31,756.28c1.48,0,3-.07,4.44,0,6.55.34,13.49,1.19,10.3-9.4,3.78.62,4.2,3.48,5.67,5.29,4.95,6.08,15.51,9.32,22.83,6.92,5.94-2-.42-6.6,2.31-9.63,2.54,1.11,3.58,3.61,5,5.74,5.26,7.93,13.72,9.1,22,9.67,4.34.3,5.35-2.79,2.82-6.51-1-1.4-2.35-3.15-.1-4.27,1.64-.81,2.4,1.12,3.22,2.3,3,4.34,6.66,7.76,12.1,9.05,3.21.76,5.21-.69,7.11-2.7,2.29-2.41-.3-3.73-1.21-5.61-3-6.29-3.18-13.15-3.34-20a12.25,12.25,0,0,0,8.6,1.3c5-1.13,9.6-.13,14.11,1.88,1.83.82,4.14,2,5.63.81,7.24-5.71,14-2.75,21.25,0a9,9,0,0,0,10.72-2.85c.85-1.09,2.2-2.77,3.62-1.5,3.43,3.06,5.78.59,8.45-1.07,1.25-.77,2.9-1.53,3.83.25,1.11,2.11-.47,3.52-2.21,3.72-6.35.73-7.14.68-1.6,5.86,2.41,2.26,4.26,5.83,7.92,7.91,2.24,1.28.76,3.76-1.2,5.42-3.68,3.1-7.89,3.69-12.44,3.25-2.39-.95-.34-5-3.15-5.13-3-.14-2.22,3.32-3.47,4.92-7.93,10.19-5.51,21.06-2.77,32.25,1.49,6,4.17,12.17,2,18.75-1.89-11.65-7-22.57-7.36-34.48-.11-4.09-.56-6.93-5.78-5.51a6.4,6.4,0,0,1-4.28-.49c-10.42-5.53-20.25-1.17-30.41,1.13-6,1.36-12.35-.66-17.84-3.18-4.5-2.06-6.28-.24-8,3a108.84,108.84,0,0,0-9.18,22.42c-.9,3.24-1.26,6.68-4.69,10.61,1-10,4.11-17.8,7.78-25.38,5.21-10.79,5.15-10-6.34-12.58-8.75-1.94-13.69.35-18,8-5.2,9.17-11.29,17.81-14.82,27.86-.45,1.27-1,2.78-3.46,2.94,3.07-11.86,9.69-21.44,15.86-31.3,2.24-3.57,7.27-6.87,5.12-11.47-2.53-5.39-7.56-.91-11.3-.69-5.78.34-11.53-2.07-17.25,0a5.09,5.09,0,0,1-.63.16c-3-11.74-10.89-2.06-16.19-3.69a23.82,23.82,0,0,1-2.71-1.17C736.28,758.24,733.54,759,734.31,756.28Z" fill="#2d231a"/><path d="M780.26,713.49c-9.78,7.31-19.78,11.78-31,2.61-2.34-1.91-4.8.1-7,.59-5.28,1.16-11.08,1.41-14.38-2.35-4.46-5.1-8.9-4.42-14.11-3.13-3.83.95-7.16-.67-10.52-2.12-5.63-.06-7.95-6.31-13.24-7-1-1.72,0-2.65,1.36-3.4,6.45,1.59,7.08-4,8.78-7.73,1.84.55,1.51,1.66,1.55,2.53.62,11.76,7.35,16.62,19.09,13.26,3.94-1.13,6.64-1.72,9,2.69,2.86,5.34,8.48,3.57,13.26,4.1,7.47.82,4.8-6.53,7.77-9.64,3.87,14.63,9.63,17.19,23.52,11.08C776.18,714.16,777.76,711.75,780.26,713.49Z" fill="#493d34"/><path d="M809.77,698.68c6.81.58,11.38-3.77,16.28-7.38,3.77,13.18,6.17,15.39,17.79,16.32-5.08,5.56-6.78,12.38-6.87,19.91-3.92-5-2.4-10.69-3.24-15.91-.58-3.6-1.53-5.21-5.61-4.26-4.65,1.07-9.71-1-14.27,2.18-2.2,1.56-3.64-.66-3.87-2.77C809.69,704.1,809.82,701.38,809.77,698.68Z" fill="#473a31"/><path d="M691.39,698.67l-1.49,2.91c-6,.51-9.44-2.93-11.88-7.82-.88-2.79-2.13-1.49-3.58-.41-2.17,1.62-4.2,4.23-7.39,1.78,0-3.48-.65-6.25-4.44-8.13-4-2-5.87-6.39-7.4-10.43-2-5.35.31-7.39,6.7-6.29,1.72,10.63,4.18,13.26,15.22,13.11,7.29-.09,5.32,6.52,8.33,9.37A15.51,15.51,0,0,0,691.39,698.67Z" fill="#4d3f35"/><path d="M685.46,692.76c-2.87-6.4-7.75-7.88-14.6-7.67-6.66.21-11.19-8-9.1-14.54-.26-1.24.13-1.81,1.46-1.44l3,0c-1.54,10.23.19,12,10.59,12.09C684.51,681.26,684,687.84,685.46,692.76Z" fill="#493d34"/><path d="M955.35,726.7c1.31-7.42-4.47-13.89-2.08-21.45C954.11,712.38,958.36,719.05,955.35,726.7Z" fill="#3b2f26"/><path d="M954.82,630.66c-.62,2-1.23,4.06-1.85,6.09-2-5.85-1.7-8,1.83-13.29C954.81,625.86,954.81,628.26,954.82,630.66Z" fill="#4d3e33"/><path d="M953.11,680.73l.93,10.62C951.46,688,951,684.37,953.11,680.73Z" fill="#3b2f26"/><path d="M953.14,728.35v11.34C951.23,736,951.5,732.17,953.14,728.35Z" fill="#3b2f26"/><path d="M663.22,669.11l-1.46,1.44c-5.39-.16-7.83,1.56-4.24,6.87,2.75,4.07,4.05,8.75,10.63,10,4.94.94-1.39,5.29-.5,8.28-.59,2.18-2.43,3.08-4.26,3.63-8.67,2.6-13.71,9.73-19.79,15.55-2.43,2.33-2.9,5.55-3,8.77-.09,2.39.47,5-2.49,6.24-2.51,0-3.7-2.29-5.65-3.25a4,4,0,0,1-1.2-1.7c-.82-2,.19-3.68,1-5.38-.9.91-1.78,2.1-3.19.79-.89-.82-.41-1.69.19-2.48h0c4.71-2.29,6.25-7.2,10-11.13-4.77-1.33-8.81,2-12.78-.28-1.19-.69-2.18.09-2.17,1.81a2.15,2.15,0,0,1-3.55,1.83c-6-8.43-16.79-7.42-24.24-12.81,7.81-6.88,17.86-9.3,27.31-12.06,7.78-2.28,12-8.19,18-12.27a2,2,0,0,0-.13-3.66c-5.55-3.32-5.62-7.45-3.37-13.1,1.42-3.55-1-6.92-4.4-9.27-4-2.76-4.7-5.94.49-8.14,4.42-1.89,5.46-5.92,7.64-9.55-2.63-1.42-6.54.27-7-3.46-.34-3.13,2.48-4.54,4.75-6a20.79,20.79,0,0,0,4.22-3c4.25-4.64,8.92-6.72,15-3.28,1.66.93,3.94-.22,5.73.92,7.91,1,11.07,6.69,13.24,13.36-3.54,0-20.3,11.1-19.26,13,3.2,5.88-1.59,9.33-2.91,13.73C653.62,661.94,660,664.66,663.22,669.11Z" fill="#605146"/><path d="M664.75,614.46c-2,1.1-4.71,2.54-6.25,1.25-6.53-5.48-10-.48-14.08,3.35-1.22,1.15-3,1.72-4.42,2.63-1.78,1.11-4.82,2.06-3.55,4.59s3.27.25,4.88-.69c1.08-.63,2.47-1.1,3.27.17a2.93,2.93,0,0,1-.27,2.65c-3.27,4.32-2.67,12-10.67,12.24-1.5,0-1.33,1.18-1.33,2.09,0,1.38.93,2,2.08,2.66,6.44,4,8.16,9,4.4,14.73-3.08,4.69,1.13,6,3.3,7.08,6.62,3.24,3.61,4.56,0,8.31-12.64,13-30.51,14.32-45.58,21.78-3-4.19,3-4.65,3.14-7.51,5-9.56,14.77-13,23.33-18.08,2.21-1.3,7.25-.94,5.84-4.69-1.17-3.14-5.31-2.23-8.54-1.07-10.83,3.9-22.34,4.95-33.46,7.66-4.11,1-7.64,4.91-12.43,3-5-2-2.71-4.06,0-6.13,5.37,2.5,8.94-2.25,13.17-3.7,10-3.41,19.51-8.43,29.5-12,4.82-1.73,6.63-5,8.49-9.07,2.74-6,8.16-11.08,5.78-18.75-.69-2.22,2-3.14,2.81-4.81,2.69-5.79,12.31-7.69,9.5-16.77-.14-.43,3.44-2,5.28-3.05C652,609.14,662.73,606.14,664.75,614.46Z" fill="#766557"/><path d="M574.37,676.57c9.86-3.9,19.68-7.18,30.54-8.24,4.77-.47,10.83-1.51,15.65-4.43,1.41-.85,3.94-2.07,4.64-1.5,2.47,2,7.25,1.43,7.71,4.87.5,3.67-3.68,3.88-6.3,4.89-10.26,4-18.82,10.49-27,17.63l-.14.13c-2.81-1.84-7.52.15-9-4.43Z" fill="#65564a"/><path d="M590.53,685.49l9,4.43c-4.57-.56-8.54,1-12.65,2.87a137.4,137.4,0,0,1-35.19,10.3c4-2,8.1-4,12.11-6C572.44,692.65,582.47,691.33,590.53,685.49Z" fill="#464039"/><path d="M536.5,734.48c2.79,2.34,3.93,5.68,4.75,8.78.41,1.55-.66,4.86-3.55,4.58s-4.56-2.48-3.58-5.28C535,740,532.94,736.52,536.5,734.48Z" fill="#1c1914"/><path d="M679.49,692.84c1.4,5.37,6.49,6.36,10.41,8.74,7-2,8.74,5.31,13.37,7.51-7,8.13-16.32,12.86-25.68,17.55-2,1-4.07,1.72-6.07,2.66-3.19,1.5-4.94,3.63-4.1,7.57.89,4.17,3.56,4.71,7.09,4.66,5.45-.06,10.66-.74,15.54-3.53,2.85-1.64,5.74-3.1,5.94,2.84.3,9.07,3.62,12.53,12.56,10.67,9.71-2,18.13-2.09,25.76,4.77l3,2.93c-3.06,2.44-6.57.66-9.06-.28-4.48-1.7-7.68-1.43-10.4,2.73-.38-.88-.77-1.33-.67-1.63.76-2.46,5.14-4,3.22-6.68-1.79-2.51-4.81.26-7.19.92-13,3.62-19.45,1.21-22.37-8.63-4.86,1-7.33,5.38-11.24,7.68H678l8.7-10c-6.37.14-11.25,3.12-16.87,2.77-10.06-.65-11.13-2.25-10.31-11.89.45-5.22-4.09-2.37-6.74-1.67-8.24-5.94-8.84-13.4-.59-18.86,8-5.32,16-10.2,20.68-19.15C673.77,692.9,676,688.32,679.49,692.84Z" fill="#322922"/><path d="M959.35,556.75c8.49,3.43,7.83,11.87,9.46,18.57a32.5,32.5,0,0,1-1.13,20.1c-2.24-2-1.59-4.42-1.32-6.81.94-8.43-1.27-16.41-3.36-24.46-.65-2.5-2.58-2.88-4-4.15a1.38,1.38,0,0,1,.39-2.07A1.9,1.9,0,0,1,959.35,556.75Z" fill="#4d3e33"/><path d="M955,384c5.37,3.29.73,7.57,1.13,11.36-1,1.5,0,3.55-1.37,4.94l-2.89-4.44c-.46.7-.95.72-1.46.05C953.14,392.41,949.18,386.33,955,384Z" fill="#4d3e33"/><path d="M956.24,617.5c-1.79,1.42-2.92.39-2.73-1.27.46-4.09-2.91-9.13,2.76-12A23.71,23.71,0,0,1,956.24,617.5Z" fill="#4d3e33"/><path d="M952.84,536.44c-3.86-5.09-2.31-9.44-1.72-15.15C954.55,526.63,953.38,531,952.84,536.44Z" fill="#4d3e33"/><path d="M959.39,557.93,959,560c-.42.47-.84.93-1.27,1.39-5.22-4.29-5.39-9.88-4-16.85C956,549.48,954.19,555.31,959.39,557.93Z" fill="#4d3e33"/><path d="M950.44,395.93a4.21,4.21,0,0,1,1.46-.05c.13,4.08.69,8.18-.65,12.76C946.49,404.36,950.82,400,950.44,395.93Z" fill="#4d3e33"/><path d="M954.81,500c2.77,5.38,3.32,9.15,2.6,14.41C954.26,509.66,954.77,505.73,954.81,500Z" fill="#4d3e33"/><path d="M929.56,638.21l9.78,4.45c-5.74,2.32-7.22-2.77-10.88-2C928.82,639.82,929.19,639,929.56,638.21Z" fill="#4d3e33"/><path d="M956.24,617.5l0-13.28c1-1.68,2-.27,3-.08l-.16,3C956,610,959.62,614.7,956.24,617.5Z" fill="#4d3e33"/><path d="M957.47,519.69,958,534.5C954.46,529.68,956.45,524.67,957.47,519.69Z" fill="#4d3e33"/><path d="M786.12,669.14c-2.14.37-5.08,1.81-6.26.92-5.54-4.17-11.71-3.94-18.09-4.76-4.68-.61-9.37-2.11-14.29-2.1s-9.23-.29-13.94-4.22c-4.3-3.59-12-4.27-18.16-4.1-4.57.12-5.65-1.25-6.15-4.73-.28-1.93-.16-5.2-1.9-5.08-7,.51-11.37-6.37-18.08-5.9-4.6.32-5-1.89-3.84-5.43,1.35-.68,3-1.71,2.72-3.13-1.85-9.75,5.59-5.08,9.08-5.54,2.82-.38,4.11,1.7,1.24,3.94-1.15.89-2.79,1.29-2,3.18.68,1.72,2.37,1.4,3.78,1.46s2.95-.13,4.39.05c2.8.36,6.55-1.53,8.2,1.3,2.23,3.8-4.22,3.13-4.25,6.83,5.16,1.59,10.27.6,15.37-.68,3.26,4.75,6.59,8.27,12.78,3.5,2-1.51,5.8-1.48,7.22,1.35,2.38,4.72,6.49,6.19,10.88,5.92,10.74-.66,20.58,6.93,31.57,3.16,1-.35,2.41,0,2.3,1-.44,3.95,3.94,6.18,3.39,10.08a3.15,3.15,0,0,0-1.5,3A3.2,3.2,0,0,1,786.12,669.14Z" fill="#68594d"/><path d="M679.49,692.84c-4.8-1.83-6.06,2-7.22,5-2.57,6.54-7,10.59-13.39,13.66-5.14,2.47-11.23,5-10.61,13.15.3,3.84,4.46,4.54,4.55,7.93-4.94-.76-10.6,2.48-14.74-2.66,2.54-2.84-.55-6,.72-9.15,4.74-11.59,13.55-18.73,24.75-23.43,1.36-.57,2.73-1.08,4.1-1.61a17.7,17.7,0,0,0,6.92-4.83C678,686.62,679.37,688.39,679.49,692.84Z" fill="#493d34"/><path d="M629.23,717.87c4.91,1.53,2.65,5.66,3.19,8.77C630.05,724.19,623.13,723.39,629.23,717.87Z" fill="#26211b"/><path d="M441.27,533.23c9.85,3.21,19.82,7.46,27.1,14.11a172.23,172.23,0,0,0,14.26,12c.55.4,1.28,1.3,1.16,1.77-2.33,8.86,5.29,8.4,10,11.1,6.34,3.67,12.66,7.12,20,8.55,1.48.29,3.24,1.74,1.6,3-8.08,6.52-1,8.7,3.41,12.17-10.79.08-21.36-.18-31.48-3.06-8.47-2.4-18.23-1.59-24.91-9.14-1.05-1.18-3.18-1.82-4.27.51-1,2,.17,3.31,2,4,3.59,1.41,7.23,2.7,10.86,4.05-1.8,8.11-5.56,9.59-11.21,4.22a24.28,24.28,0,0,0-7.92-5.05c-10.24-4.13-13.1-10.69-9.07-21.1,1.46-3.79-1.69-4.09-3.24-5.43C432,558.56,425,551.82,421,542.66c-.94-2.18-3.32-5-.81-7.45,2.26-2.25,5.1-1.93,8.24-1.17C432.67,535.06,437.34,538.22,441.27,533.23Z" fill="#51443a"/><path d="M904.51,911.35c3,2.54,3.9,9.39,10.47,5.09,1.08-.71,3.27.54,3.66,1.83,1.84,6.17,6.83,7.78,12.2,9.08,1.56.38,3.54.44,1.91,3.27s1.57,3.67,3,4.93a3.05,3.05,0,0,0,5-1c1.1-2.52,5.51-1.94,4.91-5.69-.87-1.79-1.64-3.61-1.28-5.68.45-1.53.77-3.2,3-2.94-.78,6.49,5.79,11.11,4.51,17.73-3.49-2.41-5.21-.08-7.11,2.44-5.84,7.75-12.36,7.32-16.69-1.33-2.69-5.38-5.05-8.35-11.39-3.76-4.64,3.36-9.1.62-11.68-3.93s-4.42-9.28-6.59-13.93C899.55,914.49,900.65,911.55,904.51,911.35Z" fill="#5d5852"/><path d="M904.51,911.35c-2.15,1.9-3.11,5-6.06,6.07-4.87,1.43-7.58-.56-9.74-5a44.82,44.82,0,0,1-4.56-20.67c0-5.68-4.18-11.5-1.7-17.86a26.35,26.35,0,0,1,1.29-2.54c7.37,2.55,7.26,11.58,13.41,15.47,1.55,1-1.55,2.8-3,3.9.54,6.09,1.35,12.11,7,15.93,1.78,1.21,4.09,1.83,3.35,4.73Z" fill="#6e6760"/><path d="M955.22,960c0,1.93,0,3.86-.08,5.79,0,.92-.07,2.25-1.26,2-.68-.12-1.14-1.45-1.69-2.23-.63-6.3-1.25-12.59-2-20.56C954,950.58,953.75,955.58,955.22,960Z" fill="#362f28"/><path d="M950.23,977.86c.47-1.32-.75-3,1.74-4.73,1.44,7.28,3.21,14,2.77,22.25-4.42-5-1.85-10.55-4.23-14.78C950.42,979.68,950.32,978.77,950.23,977.86Z" fill="#544e49"/><path d="M966.88,733c.71-3.82,2.1-7.66,2-11.45A276.48,276.48,0,0,1,970.41,686c.37-3.83-4.57-3-3.41-6.12.92-2.43,2-4.7,5-5.13,1.76.92,1.27,2.37.88,3.8,2,29.77.17,59.45-2,89.13.11,9.12-3.49,17.67-4.07,26.7-.12,1.9-.89,4.24-3.53,3.61-2.26-.54-.77-2.27-.43-3.53-.65-10.5,2.21-20.55,3.93-30.75C963.37,753.45,963.13,743.23,966.88,733Z" fill="#3b2f26"/><path d="M979.17,786.57c-2.06-3.81,1-7.1,1.09-10.69.3-17.19-3.66-34.15-2.64-51.38.16-2.67.08-5.35.11-8l-.11.15c4.36,2.61-.47,7.27,2.38,10.22,2.69-1.09.53-4.52,3.33-6.42-.88,14.67-4.57,28.86-.32,43,3.34,6.17.43,12.77,1.32,19,.58,4.06-5,.44-3.86,3.95C980.13,787.08,979.7,787.15,979.17,786.57Z" fill="#3b2f26"/><path d="M972.87,678.51l-1.44-3.41c-3.62-4.78.61-9.25.54-13.89a278.35,278.35,0,0,0,1.62-28.86c1.09-4.25,3.14-8.08,5.16-11.93l2.85-.6c.35,8.16-3.18,15.75-3.51,23.82-.15,3.78-3.61,7.88,1.7,11.14.8.49.48,4.82-.7,6.13C974.49,666,974.58,672.53,972.87,678.51Z" fill="#3b2f26"/><path d="M999.1,769.23c-2.85-5.58-5.54-11.15-4.44-17.79.55-3.3.72-6.73-1.09-9.85-3.11-8.3,2.77-16.53.22-24.83,2.15-1.84,3-.07,4,1.42.3.66,1,1.47.83,2-4.91,14.06-.18,27.91.76,41.84A70.14,70.14,0,0,1,999.1,769.23Z" fill="#3b2f26"/><path d="M990.84,782c2.88-2.93-.47-7.48,2.71-10.33,4.58,9,5.75,18.07,1.27,27.44-2.11,4.24.22,8.73-.53,14.19-5.67-8.11-3.35-16.15-3.45-23.85Z" fill="#413831"/><path d="M987.21,657.85l-3.42,19.09-.35.44-3.18,3.35c-2.56-9.35,1.88-16.92,5.15-24.73C986.32,656.32,986.51,657.32,987.21,657.85Z" fill="#3b2f26"/><path d="M987.66,812.3c-1.26,1.46-.4,3.93-3,5.52-.57-8-4.21-15.2-2.65-23.17.36-1.85.63-2.83,2.59-1.54C983.68,799.82,986.34,806,987.66,812.3Z" fill="#413831"/><path d="M996.18,684.26c2.66-3.29,1.45-6.78.5-10.23s-2-7,.79-10.15q.88,6.52,1.76,13.06c.31,4.11,2.31,8.46-1.7,12l-1.69,1.86c-2-.68-2.37-1.78-.94-3.39Z" fill="#3b2f26"/><path d="M988,674.88c.59,5,2.69,10.09,1.38,16.45C984.21,685.58,987.37,680.19,988,674.88Z" fill="#3b2f26"/><path d="M986.28,717.7c-3.06-5.19-5.26-9.15-2.91-15.1C985.46,707.58,988.22,711.4,986.28,717.7Z" fill="#3b2f26"/><path d="M990.38,748.53c-1.3,2-2,4.62-5.12,4.46.86-4.71,1.73-9.42,2.66-14.45C991,741.63,990,745.24,990.38,748.53Z" fill="#3b2f26"/><path d="M992.68,700.87c.32,1.14.63,2.27,1,3.4-.15,2.13,1.12,4.3-.39,6.86-1.66-3.72-4.68-6.62-3.48-10.94.24-.84-.43-3,1.76-1.88C992.18,698.66,992.31,700,992.68,700.87Z" fill="#3b2f26"/><path d="M979.56,687.58c2.24-.37,3.16.43,2.62,2.76-.8,3.49-1.51,7-2.26,10.5l.13-.13c-.86-.55-3.1.9-2.42-1.93.88-3.72,1.39-7.53,2.06-11.3Z" fill="#3b2f26"/><path d="M989.94,665.57c5.63-1.76,1.09,3,2.56,3.95-1,.92,2,5.09-2.52,3.07C990,670.25,990,667.91,989.94,665.57Z" fill="#443930"/><path d="M824.58,678.09c-1.43,4.84-1.92,10.29-7.18,12.88-2.89,1.41-6,2.11-8.84-.49s-1.7-5.32-.26-8,3-5,4.47-7.51C816.12,678.29,820.4,678,824.58,678.09Z" fill="#473a31"/><path d="M786.12,669.14h4.42c1.32,5.72,5.87,5.77,10.38,5.88q-.75,3.71-1.49,7.4c-2.15,1.71-4.31,1.18-5.6-.79-2.26-3.46-6.19-4.31-9.18-6.58A10.2,10.2,0,0,0,786.12,669.14Z" fill="#473a31"/><path d="M965.85,664.82c.27-.55.54-1.1.82-1.64,2.25-4.69-.74-10,1.65-14.64-1.21-15.19,3.31-30.22,1.31-45.44a4.65,4.65,0,0,1,1.3-4c.85,4.08-1,8.45,1.36,12.36-.67,5.11,1.41,9.89,1.83,14.86a3,3,0,0,1,.49,3.33c-2.35,5.74-1.19,11.76-1.44,17.67-1.17,7.15.69,14.74-3.11,21.51C965.91,670.36,967,666.42,965.85,664.82Z" fill="#3b2f26"/><path d="M966.55,623.88c-3,2.25,2.11,7.93-3.81,8.94-1.79-7.42,3.46-14.5,1.1-22,.08-.5.15-1,.22-1.51,1.36-1.17-.72-4.43,2.67-4.36C966.85,611.29,969.21,617.61,966.55,623.88Z" fill="#4d3e33"/><path d="M963.54,533c-3.27-5.64.39-10.64,1.48-15.88C964.9,522.41,966.28,527.88,963.54,533Z" fill="#4d3e33"/><path d="M966.37,506.61c-1.2.8-.35,3-2.89,3.51.95-3.3-3.14-7.61,3.12-9.08C966.52,502.9,966.44,504.75,966.37,506.61Z" fill="#4d3e33"/><path d="M967.52,546.53c2,4.07-.32,5.94-2.26,8.57C964.64,551.81,964.5,549.24,967.52,546.53Z" fill="#4d3e33"/><path d="M947.4,920.21c-1.19.62-1.35,1.77-1.51,2.92-6.54-3.32-19-7.89-24.71-13.25-4.73-4.44-3.51-5.49-6.77-12.27-4.13-8.61-3.25-16.26,6.62-18.5a6.24,6.24,0,0,0,3.35-1.58c-3.28-2-5.59-.73-8.19,1.63-4.59,4.17-7.8,3.07-9-3.14-.91-4.9-3.58-9.63-1-15,3-6.4,7.37-10.71,14.59-11.68,5.78-4,10,1.53,14.87,2.67s9.38-1.3,9.11-6.42c-.14-2.67.6-4.19,2.87-5.2,7,5.69,6.34,13.33,5.47,21,2.07,21.28-.31,42.46-.21,64.13-3.88-1.16-3.63-3.68-4.43-5.55a.67.67,0,0,0-.57-.3C947.71,919.75,947.57,920,947.4,920.21Z" fill="#2c2823"/><path d="M961.07,807.86c-.83-2.33.12-4.21,1.51-6.3,8.07,13.25-.93,26.65.14,40.93,4.28-3.78,1.13-8.26,3.92-11,2,1.6,2.34,4.14,3.67,6.12-3.08,5.7-.21,11.75-1,17.59a3.13,3.13,0,0,1-2,1.88c-.19-.08-.57-.09-.63-.23-.28-.71-.67-.74-.54-.21,1.07,4.26,1.52,8.49-.25,12.69l-.79.66c-2.51-1.37-.48-4.74-2.74-6.22-2.61-2.24-2-5.35-2.24-8.23-.2-3.17.16-6.34-.84-9.49-2.07-6.46-2.37-12.77.37-19.37C962.17,820.75,960.46,814.14,961.07,807.86Z" fill="#413831"/><path d="M956.59,924c1.28,9.89,7.06,18.81,5.62,30.86-3-7.85-2.65-14.93-7.33-20.53C952.57,931.52,954.83,927.37,956.59,924Z" fill="#362f28"/><path d="M920.81,849.33c-2,3.33-6.29,2.88-9.06,5.73-7.22,7.43-3.8,15.38-2.42,23.26.45,2.54,4.08,2.62,4.55,1.16,2.84-8.87,9.77-3,14.61-4.5-2.43,3.44-3.86,7.16-9.82,6.27-4.15-.62-4.24,5.16-5.89,8.16a4.54,4.54,0,0,0,2.44,6.17c3.71,1.23,4.58,2.25,2.92,6.12-1.41,3.29.63,6.22,4.51,5,4.18-1.3,5.35.48,6.79,3.78,1.29,3,2.85,5.85,7.36,5.83,4.17,0,5.92,4.66,9.09,6.81-.07,1.9-.13,3.81-.2,5.71-9.63-4.8-17.82-11.89-27.35-16.93-3.15-1.67-8.68-4.24-5-10.22a2.1,2.1,0,0,0,0-1.89c-6.19-7.18-9.4-16.25-14.36-24.16-3.95-6.28-10.16-13.14-9.43-22,0-1.47,0-2.93.14-4.39s-.46-3.26,1.45-3.67,2.45,1.24,2.83,2.66c.53,2,1.11,4.07,3.64,3.66,2-.32,2.27-2.32,2.58-4,.55-.57,1.63-1,1.9-.54,3.86,6.18,7.89,4.77,12.15.5a1.82,1.82,0,0,1,2.06.05C917.42,849.58,919.18,849.27,920.81,849.33Z" fill="#362f28"/><path d="M904.51,911.35c-8.39-4.74-10.22-14.1-15.31-21.68l5,1c1.2,2.89,2.38,5.78,3.6,8.67s1.26,8,6.9,3.65c1.6-1.24,4.8.29,5.21,2.5C910.58,909.21,906.38,909.41,904.51,911.35Z" fill="#5d5852"/><path d="M986.25,873.82c-.27,4.35-3.46,7.15-5.87,12l-.34-5.56c.54-3.56.84-7.17,1.69-10.65.68-2.8.94-7.61,4.57-6.7,3,.75,1,5,.24,7.62C986.21,871.65,985.23,872.63,986.25,873.82Z" fill="#2c2823"/><path d="M996.34,878.75a12,12,0,0,0-3.05-7.14l-1.82-5.84c-.67-2.87.31-4.21,3.38-3.62,3.82,3.37,4,8,4.28,12.57C999.23,876.49,999.31,878.84,996.34,878.75Z" fill="#2c2823"/><path d="M994.46,848.18c-3.77,2.52.65,7.38-2.86,10-1.55-4.74-1.58-9.66-1.72-14.56,1.73.36,1.47,4,4.27,2.57a1.43,1.43,0,0,1,.71,1.32C994.73,847.72,994.59,848,994.46,848.18Z" fill="#413831"/><path d="M916.35,847.84a14.27,14.27,0,0,0-1.81,1.16c-4.25,3.7-8.64,12-12.36-.45-.11-.4-1.27-.49-1.94-.72-.44-2.57,0-4.77,2.61-6,2.23-.18,5,3.06,6.58-.16,1.92-3.84-4.12-1.5-4-4.43,5.7-5.06,12.85-2.91,19.31-3.28,3.34-.2,6.47.75,9.69-1.39,2.23-1.49,4.66.49,6.83,1.42a2.84,2.84,0,0,1,1.22,2.39,1.92,1.92,0,0,1-2.71,1.61c-7.37-2.63-12.56,4.81-19.64,4.29C918.92,842.18,919.89,847.35,916.35,847.84Z" fill="#2c2823"/><path d="M784.65,675.06c4.37-.42,8.29,0,10,5,.76,2.28,2.77,2.43,4.8,2.38-.06,11.72-3.32,14.12-14,9.91-2.9-1.14-5.75-1-8.65-1-2.5,0-5.7.23-6.82-1.8-2.13-3.83-5.09-3.32-7.87-2.23-4,1.56-7.16.11-10.25-1.86a1.91,1.91,0,0,1,.08-3.17c3.4-2.42,7.07-4.28,11.46-3.7a7.26,7.26,0,0,1,2,.9C774.85,684.22,777.2,683.68,784.65,675.06Z" fill="#3b2f26"/><path d="M896.91,749.09c-.06,1.11-.19,2.28-1.47,2.12-2.14-.27-3.34-1.85-3.92-3.78-.41-1.34.23-2.73,1.7-2.35A5.15,5.15,0,0,1,896.91,749.09Z" fill="#3b2f26"/><path d="M957.46,780.57l1.15.06c.54.19.29,1,.88,1.12a1.59,1.59,0,0,1,.88-1.58c1.51,1.91.58,4.22,1,6.31a5,5,0,0,0-3,3.83c-.36,1.79.71,5.55-2.7,4.43-2.24-.74-1.47-6.27-1-6.4C959.52,786.9,956.72,783.14,957.46,780.57Z" fill="#413831"/><path d="M997.18,838.1l-1.57,1.49c-4-6.9-4-14.12-1.77-21.52Q995.51,828.08,997.18,838.1Z" fill="#413831"/><path d="M966.48,711.57c-1,.32-2.25,4.18-2.77.06-.5-3.86,0-7.84.12-11.77,1.7-.76,2.19.51,2.76,1.64Z" fill="#3b2f26"/><path d="M968.39,669.58c-.49,2.35.73,5.12-1.73,7a24,24,0,0,1-.81-11.75A5.83,5.83,0,0,1,968.39,669.58Z" fill="#3b2f26"/><path d="M963.56,677.32c2.55,4.7,1.09,9.8,1.48,14.71-3-2.35-.53-6.39-2.74-9C962.74,681.13,960.43,678.63,963.56,677.32Z" fill="#3b2f26"/><path d="M962.1,491.52c-.9-.39-1.84,3.69-2.5.2-1-5.21-1.34-10.55-2-15.84.25-1.75.6-3.33,2.85-1.64C961.53,480,963.33,485.59,962.1,491.52Z" fill="#4d3e33"/><path d="M494.65,577.7c-9.5-3-19.66-.82-29.07-4.65-2.38-1-5.12-2.14-4.38-4.9.85-3.18,3.63-2.17,6.12-1.35,9.18,3,18.41,5.9,27.62,8.83Z" fill="#5f5146"/><path d="M972.52,805.2c2.1,8.87-.26,17.46-1.6,26.12-1.32,1.85.45,4.43-1.47,6.14-4.13-.49-2.22-3.81-2.81-6,3.32-11.5,1.76-23.31,2-35,.07-3.66,0-7.19,1-10.71.44,0,.88,0,1.31,0C972,792.25,970.23,798.89,972.52,805.2Z" fill="#413831"/><path d="M990.38,769.23l-2.47-1.41a1.36,1.36,0,0,1-.38-1.26c-.54-3.07-.88-6,2.92-7.41C990.71,762.51,992.92,765.89,990.38,769.23Z" fill="#3b2f26"/><path d="M948,891.9c1.67,5.58,1.67,9.54.48,13.56C946.88,901.66,947.06,897.76,948,891.9Z" fill="#2c2823"/><path d="M982.56,821.65c2.55,2.39-.18,6.28,2.47,8.64.69,2.31,3,4.3,1.41,7.07-2,4.38-3.51,8.89-2.66,15-2.33-3.62.24-6.95-2.71-9.29-2,6.87-3.55,13.77-3.2,21l-1.45,1.41c-2.41-9.29-1-18.52.54-27.74-1.42-2.76-.46-5.19,1-7.57C979.84,827.54,979.07,823.45,982.56,821.65Z" fill="#413831"/><path d="M977.82,891.31a73.4,73.4,0,0,1-5,21.46c-5-5,1.75-8.53,1.67-12.93a13.75,13.75,0,0,1,1.84-11.6Z" fill="#2c2823"/><path d="M964,876.3c3.68,7,0,14.27.71,21.4-.44,1.79-.87,3.56-1.29,5.33-4.34.18-4.64-3.55-3.95-5.73C961.64,890.41,960.78,882.91,964,876.3Z" fill="#2c2823"/><path d="M959.86,439.3a12,12,0,0,0,.36-7.75c.3-2,.6-4,.91-6.05.64-2.87,2.11-3.65,4.61-1.8,2,4.7.13,9-1.61,13.19C963.45,438.52,962.5,440.67,959.86,439.3Z" fill="#4d3e33"/></g><g id="frame"><rect width="1000" height="1000" fill="none"/></g></svg>