<!-- Copyright (c) 2022 Jan Stehno -->
<svg xmlns="http://www.w3.org/2000/svg" viewBox="0 0 1000 1000"><title>grizzlybear</title><g id="grizzlybear"><path d="M878.52,999.58c1,1.71,1.3-2.09,2.59-5.61-.62-2.7-1.27-5.59-2-8.84a42.78,42.78,0,0,1,4.21,5.74c1.78-.08,3.7,4.57,5.57,3.66,2.32-1.14,2-2.69.09-7.23s-5.13-11.48-2.33-11.82l.54,0q-1-2.15-2-4.28c2.71,3.87,8,4.93,9.74,9.54a82.12,82.12,0,0,0,3.83,8.78c2.37-.77,1.13-4.19,3.25-6.21a7.48,7.48,0,0,0,2.3-3.64q-1.94-4.8-4.1-9.52a36,36,0,0,1-3.33-6.83c1.17,2.25,2.27,4.53,3.33,6.83a13.31,13.31,0,0,0,6.24,5.11c1.53-4.5.67-8.32-.89-12-.46-1-.91-1.92-1.37-2.87a64.92,64.92,0,0,1-3.87-8.08c1.26,2.71,2.57,5.39,3.87,8.08.48,1,.95,1.9,1.37,2.87a93.89,93.89,0,0,1,6.81,18.15c1.32,2.51,4.13,4.48,6.13,1.12.74-5.51,1.92-11.25-.24-16.48-5.07-12.3-8.52-25.24-14.86-37-5-5.36-10.07-10.53-11.08-18.35-.4-3.09-2.2-6.89-5.9-6.2-3.18.59-1.65,4.52-2,7-.08.57-.32.91-1.59,1.09-3.59-6-9.45-11.14-6.81-19.87.94-3.12.1-6.6-4.9-5.47-.25,0-1,1.06-.71.14,1.9-5.69-2.13-9.57-4.88-13-6.12-7.71-10.22-17.46-17.73-22.25L844,850.23a18.09,18.09,0,0,1,3.82,1.88c6.39,3.18,13.44,7.28,16.17,16.55.89,3,3.47,5.79,7.29,4.41,3.62-1.3,3-4.86,2.32-7.57a50,50,0,0,0-18-27.32c-8.37-6.54-15.8-12.68-19-23-2.7-8.68-7.74-16.22-12.41-23.88-3.2-5.27-7.57-5.9-9.5-1.52-2.63,6-7.79,8.44-12.77,11.37-7.24,4.27-10.39,13.07-6.86,20.58a27.16,27.16,0,0,1,3,11.88c0,2.05,1.39,4.74-1.14,5.94-2.18,1-4.23-.76-6-2-3.49-2.35-6.8-4.27-11.49-3.5-3.41.56-5.79-2.16-5.06-5.52,1.34-6.12-2.32-9-6.63-11.62a20.06,20.06,0,0,1-9.91-15.36c-1.33-10.3-8.91-18.24-10.95-28.31-.37-1.81-2.27-3.13-4-4.08-4.12-2.21-8.79-1-9.54,3-1.74,9.26-3.6,18.79-2,28,1.16,6.75-1.54,10-6.36,13.06-4.17,2.69-7.31,1.14-10.39-1.91-4-4-6-8-2.23-13.43,3.31-4.73,3.12-9.54-1.45-13.73-3.47-3.2-3.65-7.8-2.87-11.58,1.56-7.63-.34-13.87-5.16-19.59-2.84-3.38-2.58-6.37.49-9.62,5.05-5.33,5.71-14,4.78-19,.28-.23-.6-1.74-1.21-2.51a16.94,16.94,0,0,0-9.63-6.24,150.64,150.64,0,0,0-16-2.49c-5.1-.62-8.5.3-6.83,6.54.57,2.1-.42,3.75-1.59,5.37-2.19,3-1.34,6,.47,8.81,1.18,1.84,3.08,3.25,3.86,5.29,1.3,3.39,3.54,7.23-3.5,7-3.64-.11-10.14,8-10.19,11.75-.11,7.94-4.84,14.42-12.53,17.19-5.41,1.16-7.9,4.11-6,9.69,1.26,3.78-.66,6.89-2,10.13a9.73,9.73,0,0,0-.26,2.15c.44,2.8.14,5.94,3.54,7.32.19-.95.82.78.12.11-.78.36-1.42-.08-2.06-.38-4.23-2-8.5-4.63-12.3.71-3.49,4.92-3.6,9.38,1.75,13.17,1,.69,2.16,1.61,1.77,2.94-1.49,5.16,2.48,7.54,5.4,10.21,4.89,4.48,9,10.38,17.43,8.53,2.59-.57,5,1.77,5.82,4.65a3,3,0,0,1-.73,3.36c-2.21,1.79-4.61,1.15-6.91.13-6.49-2.9-12.74-6-17.3-11.83-4.26-5.45-15.49-5.84-20.11-.73-1.91,2.11-4.63,3.82-5.38,6.78-.92,3.59-.12,6.35,4.35,6.5,1.47,0,3.34-1.19,4.27-.5,6.25,4.61,13.11,7.69,22.41,7.76-3.81,3.36-6.18,1.7-8.43,1.57-8.54-.48-24.29-5-31.94,1.93-4.18,3.8,0,11,0,17.09.06,7.41,3.48,12.41,10.06,15.43A14,14,0,0,1,622,899.2c-5.23,2.1-8.5.1-11.34-3.41-4.77-5.9-10.42-9.55-18.48-6.81-2.35.8-4.41-.21-6.12-1.61-5.63-4.6-11.75-.25-17.6-1-1.58-.21-2.22,1.65-2,3.25.61,5.69-1.44,11-2.5,16.42a9.41,9.41,0,0,0,2.35,8.71c4.27,4.78,8.91,9,15.27,10.89a29.57,29.57,0,0,1,9.84,4.77c12.46,9.7,25.16,18.81,42.4,16.42,7.48,4.41,16.41,6.32,22.61,12.93a8.22,8.22,0,0,0,2.69,4.38c6.11,2.81,12.18,5.06,18-.64.61-.59,2.11-1.18,2.61-.86,7,4.47,16.54.2,23,6.46,3.79.84,7.8-.47,11.45,2.78,2.33,2.07,6.8,1.72,9.79.12,5.22-2.79,9.25-1.42,13.16,2.15,4.14,1.63,8.24-3.45,12.23-.26,2.78,2.22,5.84,1.45,8.84,1.73,2.08,1.27,4.14.2,6.25.09,7.8-.43,15.63-1,23.29,1.25l8.17,4.36c2.64.48,5.31.91,7.83-.41,7.3-3.79,14.54-8.8,22.22-.65a2.61,2.61,0,0,0,2,.7c7-1,11.71,3.21,16.91,6.74,3.35,2.28,7.58,2.74,11.69,3.15,3.55.36,7.26.4,10.35,2.65C876.59,993.94,877.28,997.53,878.52,999.58Z" fill="#110908"/><path d="M969.52,556.47c0-2.36.33-4.41-3.08-5.35-2.13-.58-1.77-3.8-1.71-5.85.27-8.21-5.09-14.59-7.35-22-.8-2.61-2.09-4.8-1.35-7.58.44-1.08.79-2.45,2.19-2.47s1.81,1.42,2.07,2.52c.78,3.26,2.1,6.38,2.44,9.76,0-.78-.46-1.65.36-2.21,1-.67,1.58.11,2,.8,1.35,2.18,1.95,4.67,3,7,4.44,9.37,3.83,20.16,8.44,29.48.94,2.42,2.3,4.77,1.62,7.53-2.18,2.62-3.84,2.78-4.49-1-.49-2.87-1.41-5.47-3.93-7.24A3.61,3.61,0,0,1,969.52,556.47Z" fill="#51382a"/><path d="M901.82,928.77c-10.51-4.28-9-16.15-14.27-23.73l-1.82.5c.34,2.69.71,5.38,1,8.08.11,1.15.49,2.58-1,3.13s-2.17-.6-3-1.47c-4.88-5-7.46-11.21-9.92-17.57-.93-2.42.26-3.24,1.68-4.68a3.1,3.1,0,0,0-.59-4.56c-2.42-2-2.72.33-3.23,1.93-.19.58-.13,1.71-1.07,1.16-.74-.44-1.74-1.76-1.53-2.27,3.51-8.82-4.22-13.39-7.71-19.33-2.5-4.26-6.8-7.47-9-12.13-1.74-3.65-4.95-5.11-8.83-5.61a5.82,5.82,0,0,1-5-3.81c-.21-.55,0-1.76.35-1.94,2.33-1.14,4.14.43,6,1.44,2.35,1.27,4.62,2.71,7,3.93,6.64,3.39,12.78,7,14.21,15.35.4,2.35,2.11,5.65,5.43,4.79s1.49-4.09,1.36-6.25c-.32-5.07-3.62-8.82-6.32-12.8-.13-.19-.42-.28-.54-.48-4.92-7.91-11.43-14-19.27-19.3a24.67,24.67,0,0,1-10-14.67c-2.38-9.71-8.55-17.81-13.1-26.6-.95-1.82-2.34-3.47-4.36-3.46-2.56,0-2.46,2.29-2.9,4.24-1.4,6.22-7.66,7.36-12.06,9.9-6.29,3.63-10.45,12.34-6.57,18.37s2.71,12.61,3.71,19c.41,2.66-1.54,3.46-3.8,2.62a40.33,40.33,0,0,1-7.94-3.67c-2.85-1.84-4.54-5.52-9.07-1.71-2.33,2-9.76-5.9-7.86-8.72,3.33-4.91,0-6.92-3.08-8.5-8.7-4.48-12.86-11.45-13.17-20.94-.09-2.81-1.47-5.06-3-7.3-2.74-4-5.13-8.22-5.53-13.27a9,9,0,0,0-4.89-7.69c-3.36-1.59-7.22-2.81-7.52,3.5-.47,10.15-3.23,20.09-.83,30.51,1.62,7-6.2,8.56-10.25,11.78-3.27,2.59-7,0-9.67-2.76-5.23-5.32-9.62-10.54-2.43-17.84,2.07-2.1,3.06-6.19-.12-8.56-7-5.22-6.34-11.84-4.58-19,1.55-6.28-2.44-10.94-6.11-14.88-4.27-4.58-2.91-7.67.9-10.86,2.48-2.07,4.6-3.56,1.23-6.81-3.2-3.09-4.12-6.16,1.81-7.63,3.92-1,2.53-3.37.87-5.46-4.57-5.75-11.56-5.48-17.85-6.91-1.87-.43-3.86-.29-5.78-.58-4.45-.68-9.56-2.09-4.66,5.31,1.17,1.76.45,3.23-1.23,4.29-5.58,3.54-2.75,7.33.38,10,3.4,2.91,4.08,6.34,4.44,10.26.27,2.87-1.45,4.94-3.68,3.82-8.25-4.12-7.06,6.49-12.05,7.13,2.22,5.17,2.67,9.76-4,12,2.89,8.62-6,6.07-8.88,9.15-4.54-2.4-4.12-5.6-1.23-8.89,3.66-4.17,7-7.73,1.1-13.19-2.58-2.39-1.34-6.12,3.46-6.21a8.16,8.16,0,0,0,5-1.41,41.77,41.77,0,0,1-9.43-10c-2.42-3.47-1.65-5.32,2.56-5.8,1.59-.25,3.29,1,5.13-.66-2.3-2.44-5.78-1.92-8.3-3.44-1.83-1.1-4.42-1.91-3.91-4.49.57-2.84,3.35-2,5.41-2.13,1.2-.06,2.4-.09,3.59-.13,1-.1,2.73-.47,2.56-.83-3.29-6.93,4-16-4.54-21.87a4.38,4.38,0,0,1-1.71-4.58c1.12-3.91-1.62-6.86-2.16-10.17-1.23-7.59-.91-15.36-2-23.11-.8-5.73-.26-11.63-3.27-17-3.89-6.92-3.94-6.9,3.47-11.18.51,0,1.25.14,1.31.47,1.57,9,10.42,14.91,10.12,24.73a16.7,16.7,0,0,0,7.93,15.31c3.35,2.22,5,5.62.68,9,15-3,25.3,7,37.67,12.42,2-5.37,3-10.94.68-16.56-3.41-8.18-.31-12.94,8.73-12.32,3.91.27,6.17-.24,9.08-3.6s8.61-4,13.62-3.83c-.24,7.28-6.76,13.48-15,14.3-8.73.86-9.29,1-7.9,9.09,1.43,8.36-2.37,16.69.59,24.92.22.63-.35,1.81,0,2.11,10.78,7,2.78,13.37,1.26,20.19a6.94,6.94,0,0,0,.67,4.89c.43.86,1.29,2.36.87,2.63-7.37,4.89-.85,12.16-3.23,17.86a10.14,10.14,0,0,0,.76,9.78c2.09,3.13,3.79,5.18,8.39,1.18,5.93-5.15,8.16-9.36,3.6-16.25-2.18-3.29-.08-7.12,0-10.7a305.57,305.57,0,0,1,2.59-37.4c.58-4.15,2.78-7.4,8-5.7.61,3.42-.42,7.26,3.3,9.82,1.86,1.28,1.54,3.42.26,5.21a12.54,12.54,0,0,0-2.31,6.77c-.52,9.48,1.83,12.52,11.3,14.14,1.9.33,3.76,1.07,6.24.62-.16-3.89,0-7.7,0-11.52-.12-8.25,1.16-9.33,9.39-7.8a7.72,7.72,0,0,0,5-.15c-7.29-5.41-6.31-14-10.1-20.78-2.49-4.44-5.71-6.57-9.84-2.78-4.68,4.3-10.55.72-15.32,3.23-3.17-.41-8.68,1.11-4.45-5.37.64-1-.13-1.75-.83-2.44-5.06-5-1.6-7.85,2.87-9.61,5.14-2,9.79-5.38,15.56-5.88,3.18-.27,2.89-1.72,2.6-4.84-.75-8.34-6.78-6.06-11.45-6.8,3-9.41,10.55-14.41,19.14-17.22,12.72-4.15,25.41-8.85,39.06-9.42A22.61,22.61,0,0,0,813,624.59c8.3-7.13,17.8-5,27.19-3.68,1.64.24,3.16,1.43,4.9,1.38,3.61-.09,7-.44,3.58-5.29-1.32-1.85-2.49-3.85-.77-6s4-1.16,6.16-1.07c8.68.35,17.3,1.13,25.79,3.6-2.79-3.69-6.68-4.72-10.54-6-6.49-2.1-7.08-4.66-2.6-9.92,4.08-4.79,4-8.14-1.5-11-6.85-3.54-9.58-8.62-9-15.9.3-3.48-1.4-6-3.73-8.34a140.16,140.16,0,0,0-14.61-13.26,10.19,10.19,0,0,0-5.27-2.19c-15.28-1.64-15.28-1.68-16-17.68-1.79,4.22-4.85,4-7.76,3.22a28.85,28.85,0,0,0-14.45-.27c-4.09,1-5.79-1.36-5-5.56.38-2,4.2-4.3.32-6-3.15-1.41-6.27-.34-8.2,2.87-1.41,1.63-3.45,1.13-5.23,1.52-4.22.94-4,3.17-1.74,6-.82,4.23-3.19,7.08-7.6,7.72-2.8.4-4.29,2-5.34,4.35s-3.11,4.61-5.68,3.06c-8.07-4.88-16.84-5.78-26.7-4.67-.27.59.88,2.07.77,3.56-.22,2.87-1.1,5.52-4.15,6.14-2.86.58-4.4-1.79-5.46-4a104.49,104.49,0,0,0-5-9.72c-1.93-3.13-3.9-4.2-6.87-1.2-2,2.07-5.07,3.09-6.49,5.79-2.08,3.94-4.29,4.76-7.8,1.28-2.47-2.43-3.86-.37-4.56,2-1.4,4.8.88,8.75,5.91,9.78,3.81.79,8.49.4,10.19,4.56,2.53,6.24,5.18,12.64,4.46,19.63-.34,3.35-3.19,4.62-5.82,6-3.14,1.65-4.61,3.08-.93,6.3,4.76,4.16,4.47,7.44.23,12.46-6,7.06-5,6.55-.79,14.2,5.65,10.23,12.26,20.37,13,32.61.18,3-.15,6.24-3.13,7.64-4.28,2-8-1.11-11.76-2.45-2.64-.93-3.57-3.22-2.79-6s.8-5.81,2.86-8.14c5.74-5,5.11-4.84.59-10.15a174,174,0,0,0-14.47-15.76c-3.9-5.12-5.67-11.43-6.89-17.27-2.32-11.12-6.43-21.71-8.69-32.8-1.91-9.37-.59-18.72.25-28.07.24-6.88-1.74-13.38-3.55-19.91a24,24,0,0,1-.44-3.36,93.32,93.32,0,0,1,.07-13.79c.82-7.44,5.33-9.21,11.56-4.89,5.81,4,11.53,8.22,18.91,9.14a11.69,11.69,0,0,1,6.42,3.33c12.72,11.79,29.24,17.22,43.88,25.8a3.5,3.5,0,0,0,3.59.16c1-2.33-1.11-2.86-2.4-3.58-3.51-2-4.23-4.5-2-7.8s5.22-3,8.42-1.66c3.8,1.64,4.9,5.71,7.29,8.72,2-1.8,1.6-3.9,2-5.7a11.34,11.34,0,0,1,8.3-9.18c6.24-2,12.38-4.2,17.58-8.69,4.39-3.78,11.13-2.66,16.65,2.33a13.77,13.77,0,0,0,8.32,3.54c7.14.92,12.38,5.11,15.49,11.7a7.12,7.12,0,0,1-.78,3,40.16,40.16,0,0,0-2.68,6.68c-.64,2.27-.1,3.81,2.58,4,8.8-3.79,13.45,2.77,18.77,7.47,1.23,1.09,1.82,3.52,3.55,3.39,11-.84,10.9,10.26,16.69,15a3.37,3.37,0,0,1,.6,4.08c-1.45,3-1.7,5.38,1.61,7.44s5.59,2.77,9.86,1c6.9-2.9,15-1,20.9,2.76,5.43,3.45,11.21,5.63,16.84,8.37,2.43,1.18,4.74,2.19,5.83,5,2.59,6.76,9.65,7.89,14.58,2.57,1.39-1.5,1.24-4.43,4.2-4.48,5.5,7.8,7.77,15.9,2.29,24.68-1,1.65.86,2.44,1,3.74.89,4.21,2.67,8.23,2.64,12.62-2,3.4-4.22.84-6.16,0-3.1-1.37-6-3.27-9.39-3.91-2.05-.39-5-1.85-6,.55-1.13,2.68.8,5.11,3.56,6.24,3.46,1.41,6.56,3.17,8.53,6.46a4.74,4.74,0,0,1,.31,3c-2.74,6,1.11,8.89,5.63,11.42,6.17,9.49,7.15,20.27,7.67,31.16-.24-5.74-2.73-11.71,2.29-16.74,4.07-.26,4.12,3.94,6.42,5.65,1.77,3.62,2.05,7.49,2,11.43a4.73,4.73,0,0,1-1.33,2.91c-1.53,1.53-2.55-1.58-4-.39a21,21,0,0,0,4.57,11.68c2.3,3.92,4.41,7.89,3.52,12.68a10.52,10.52,0,0,1-6.64,6c-6.65-4.25-6.93-12.21-11.64-18.54,5.77,9.38,8,19.22,10.76,28.89.52,5,1,9.92-1.66,14.53-3.14.7-3.5-2.14-4.46-3.78a29.34,29.34,0,0,0-7.91-8.44c-3.06-2.33-4.71-2.54-8.53,0-5.91,3.89-13.6,4-21.44,4.25,1.31,4.05,4,5.56,7.69,5.12,4.1-.5,7.58.84,9.67,4,5.46,8.23,13.43,12.35,22.63,14.79,2.49,13.4,12.84,23.74,14.81,37.33-.37,4.36-1.84,7.58-7.18,6.68a4.23,4.23,0,0,1-2.66-3.19,52,52,0,0,0-5.75-14.74c-2.79-4.51-5.23-9.22-7.86-13.27-.58-1.33-1.62-.36-.75-.81.07,0,.16.11.33.4a22.58,22.58,0,0,1,2.84,16c-.76,4.56-1,9.09,1.15,13.43a39.54,39.54,0,0,1,1.46,9.27c.13,2.08.68,4.93-1.89,5.56-2.17.53-2.88-2.16-3.76-3.8-2.05-3.81-3.53-7.91-4.85-10.28,3,16.18,9.25,33.07,12.84,50.66-.16,4.54,2.44,7.41,6,9.68,2.59,5.22,1.91,10.19-1.12,15-2.45,2.27-4.31,1.77-5.51-1.23-.89-2.23-1-4.71-2.22-6.85-5-15.86-11.76-30.85-18.92-41.2,2.31,4,4.88,12.26,7.45,20.47a50.15,50.15,0,0,0,6.07,13c3.22,4.88,5.68,10.39.65,15.87a4,4,0,0,1-3.24.28c-5.68-6.84-5.22-16.53-10.89-22.66,5.7,8.12,5.34,17.71,3.6,27.47-.4,2.24.34,5.52-2.7,6.07-2.64.47-4.1-2.19-5.48-4.2a6.66,6.66,0,0,1-1.17-2.22c.06,7.7-.14,15.82,3.38,23.42A279,279,0,0,1,936.75,934a26,26,0,0,0-.3,5A142.8,142.8,0,0,0,940,959.51c1.28,5.19,3.39,10.62.19,16-4.15.42-5-3.07-6.22-5.61-1.89-3.82-3.54-7.77-5.23-11.69-1.37-5.58-5.76-10.51-3.76-16.82a7.1,7.1,0,0,0,2.58-5.56C928,920.25,925,905.71,917.15,895c3.11,8.84,3.87,20.83,7.27,32.19,1.25,4.19,4.1,8.48,1.41,13.19-3.74,1.16-3.49-2.29-4.51-4-1.45-2.44-2.6-5-4.09-7.47-.75-1.51-.71-3.33-1.73-4.15,3.81,10.07,7.23,20.85,10.81,31.57a15.47,15.47,0,0,1,.42,3.24c-.07,2.67-.38,5.26-2.38,7.31l-1.43,1.85a1.5,1.5,0,0,1-1.93-.18C916.22,954.52,910.5,940.94,901.82,928.77Z" fill="#1a0f0b"/><path d="M474.05,690.27c4.35-13.65,5.15-28.34,12.5-41.11,6.14-10.65,12.17-21.36,23.58-27.5,4.17-2.25,6.54-6.44,9.43-9.69s5.58-5.82,9.59-6.49c10.4-1.73,11.43-10.94,14.47-18.07a83.63,83.63,0,0,1,6.29-12c1-1,1.52-2.51,3.22-2.65s3.33.71,5,.49c2.74-.35,5.65-2,7.56,1.62,1.78,3.42.93,6.46-1.06,9.43a11.06,11.06,0,0,1-2.39,2.67c-1,1.45-2.65,2.12-4.91,3.11a6.82,6.82,0,0,0,4.71-2.92c6-3.82,11.31-8.42,18.87-9.77,3.77-.67,8.31-2.9,9.45-8,.49-2.16,1.7-4.35,4.23-4.28,3.48.1,1.74,3.28,2.4,5a7.79,7.79,0,0,1,.8,4.18c-2.16,4.25-6.69,5.36-10.4,7.44-3.4,1.9-6.7,3.81-9.34,6.68-3.93.28-3.43,2.13-1.61,4.46-1.15,4.21-5,2.14-7.5,3.17-4,.13-6.73,1.82-9,5.26-3.38,5.21-7.14,5.15-10.76.24-1.08-1.46-1.22-4.09-4.08-2.67-2.6,1.3-1.44,3.13-1.31,5.37.39,7,6.93,8,10.44,11.84,1.38,1.53,4.05,2,3.57,4.84-1.42,2.09-3.64,1.47-5.63,1.66-3.14-2.77-7.86-1.88-10-3.76,3.6,1.35,7,4.94,10.26,8.65,1.48,1.68,3.77,4.45,2,5.45-3.49,2-1.64,8.24-7.11,8.1-.25,0-1.17-1-.87.13,2.1,7.65.46,9.87-8.62,11.36a7.24,7.24,0,0,1-1.85-.91c-2.07-2.37-6.4-3.09-5.68-7.52.09-.5,1-.27,1.07-.89-6.94,2.63-9.13-3.55-13.06-7.66-2.51,4.22-.32,10.75-6.91,11.63,6.19,1.1-.06,10.76,7.61,10.84,4.54,7.62,11,14.4,10.48,24.21-.07,1.2.62,2.33,1,3.46.73,1.94,3.08,3.89,1.27,5.93s-3.52-1.63-5.19-1.1c4.28,2.83,9.25,5.18,11.07,12.6a142.67,142.67,0,0,0,.13-16.15c-.29-5.48,1.7-6.38,6.2-6,2.43.23,4.89-.23,7.32.17,8.8,3,9.91,6.34,5.07,15.09.35,2.15,2,1.7,3.39,1.61,1.93-.12,4.17-.68,4.79,2A4,4,0,0,1,562,704.6c-2.87,1.09-2.95,2-1.28,4.56,2.6,4,.09,13.8-4.39,14.79-6.17,1.36-5,4.89-4.08,8.53.69,2.74,1.8,4.92-1.85,6.53s-1.25,5.26-2.08,7.87c-.51,1.62-.69,3.41-2.57,4.11-1.37.5-2.27-.31-3.09-1.31-1.49-1.78-8.85-2.43-10.88-.8-1.71,1.37-3.41,3.65-5.6,2.28-2.37-1.49-.45-4,0-6,1.33-6.43.49-13.08,2.07-19.66-3.29,1.23-3.65,3.69-3.49,6.58.4,7.41-3.84,13.27-6.69,19.64-1.88,4.2-5.42-.8-7.3,1.69-1.7,2.24-2.14,5.72-5.79,6-3.87.27-6.36-2.11-8.49-4.89-6.85-9-4.52-16.36,6.18-19.67,6.29-1.94,7.86-5.51,5-11.92-2.22-5,3.54-5.56,4.69-8.65,1.55-2.86-.55-5.48-.58-8.23.5-3.34-.69-6.51-1-9.77.32-3.22.22-6.09-3-8.31-2.36-1.65-4.92-4.4-5.2-6.81-.73-6.46-5.78-3.19-8.57-4.12-3.15-1-3.14,2.87-4,4.94-1.27,3.14-2,6.56-5.44,8.28a11.53,11.53,0,0,1-5,.86C477.8,690.77,475.85,691,474.05,690.27Z" fill="#907460"/><path d="M499.32,894.08c-10.05-.58-20.06.44-30.18,0-15.81-.71-31.87.54-47.55-1.56-11.34-1.52-23.61-1.73-33.42-9.39-2.62-2.53-3.56-6.09-5.46-9.07-2.6-4.07.38-9.13,6.09-11,6.4-2.1,12.22-5.44,19.81-8.07-4.77.42-7.72-.55-10-3.24-.71-4.21,2.07-4.73,5.26-5.06,7.86-.79,10.87-3.68,11.49-11.61.31-4,2.94-4.62,5.92-5.09,8.68-1.36,18.73,4.45,21.76,12.82,1.16,3.22,2.76,4.1,6,3A89,89,0,0,0,482,826.39c3.27-3,7.26-4.89,10.92-7.29,1.42-.93,3.06-1.54,4.32-2.71,7.49-6.9,7.49-6.9,16.36-.19,1.47,1.55,2.82,3.21,4.36,4.69a9.84,9.84,0,0,1,2.31,3.71,9,9,0,0,1-1,7.5c-2.3,2.33-1.6,7.51-6.81,7.1-3.47.14-3.46-5.88-7.75-4.29-2.41.59-2.61,1.88-1.22,3.69.42,3.26-.81,6.21-1.65,9.24s-2.25,4.76-5.76,3.61c-3.28-1.07-6,.15-7.38,3.08s1.63,4.18,3.15,6a148.09,148.09,0,0,0,21.24,20.87c2.71,2.13,3.45,5.24,3.95,8.37,1,6.51-3.61,10.46-9.75,7.88C504.64,896.49,502,895.23,499.32,894.08Z" fill="#160b0b"/><path d="M499.32,894.08c2.15-.21,4.54-1.11,6.29.63,3.19,3.17,7,3.79,9.2.08s1.15-9.21-2.26-11.62c-9.06-6.39-15.81-14.94-23.38-22.7-1.71-1.75-6.25-4.14-3.69-6.5s5.63-7.51,11.08-4.34a23.07,23.07,0,0,0,2.68,1.12c1.21-4.48,2.33-8.64,3.46-12.81.22-1.53,2.78-2.58.95-4.54,6.56-4.64,5.38,3.18,8,4.88a1.34,1.34,0,0,1,.57,1.11c0,.43-.09.65-.19.66-1.36,1.58-3.39,2.16-5,3.36-5.28,5.9,1.18,8.71,3.38,12.63,1.31,2.39,2.67,4.74,4,7.12,1.65,7.54,3.17,15,8,21.53,2.17,2.92,4.23,4.31,7.66,4.07A6.69,6.69,0,0,1,532,892.4c2.44,9.56,7,13.12,15.91,12.51a7,7,0,0,1,2.68,1.55c1.67,1.17,2.62,4.15,5.14,3.11,2-.83,1.27-3.43,1.3-5.21.07-4.89,5.59-8,4.24-13.24A16.16,16.16,0,0,1,563.51,880c2.8-4.58,6.21-5.6,10.79-2.46,2.09,1.45,4.37,2,6.63,2.81,4.73,1.77,7.66,1.15,7-4.56-.41-3.4,2.91-4.78,3.4-7.78.88-5.42-1.2-10.15-3.26-14.65-3-6.53-1.47-13.38-2.5-20-.72-4.65,7.42-7.58,11.72-4.21,1.78,1.39,2.84,2.4,4.8.85a11.62,11.62,0,0,1,1.72-.88,20.7,20.7,0,0,1,2.76-.62c1.77-1.09,1.19-2.47.36-3.72-2.58-3.83-.71-7.57.48-11.11s3.81-4.85,7.53-2.81c3,1.63,6,3.18,8.52,5.61.08-1.06-.13-2.36-.82-2.74C616,810,613.45,804.07,612.33,797c-.28-1.76-2.25-3.37-.67-5.28,1.42-1.71,3.33-1.85,5.32-.91,5.25,2.48,8.25.65,9.38-4.79,8.38-.07,12.42,6.69,17.91,11.18-.07,3.3,1.67,6,3.46,9.25-2.89.58-4.94-.65-6.79-2-3.82-2.71-6.78-.89-8.32,2.26-1.35,2.78-3.34,6.12.89,9.29,1.57,1.17,9.87,2.26,2.72,7.44a8,8,0,0,0,1.16,1.68c4.12,4.09,8.25,8.18,12.45,12.19a3.65,3.65,0,0,0,4.72.67c2.23-1.48,4.21-.43,6.26.26,5.16,1.74,7.26,6.24,5.36,10.3-1.69,3.63-6.55,3.24-10.34,1.28-7.32-3.78-14.94-7-19.5-14.62-2-3.42-3.67-2.89-5.65.53-1.52,2.61-3.24.75-5,.09-3.83-1.49-11.45,4.43-11,8.51.32,3.13,2.57,3.7,4.7,2.45,3.87-2.28,6.17-1.05,8.55,2.2,2.53,3.45,5.48,6,10.49,3.51,1.85-.93,4.34.49,6,2,1.22,1.08,2.77,2.48,2.21,4.28-.64,2-3.07,2-4.37,1.52-5.85-2.34-12.13-.15-18.24-2.6-4.57-1.84-9.09,3.1-12.27,6.25-1.94,1.91-2.13,3.95-5,1.65-.93-.75-2.08-1.69-3.18-.54-1.27,1.33-.58,2.63.59,3.76,2.56,2.5,2.31,5.64,2.08,8.83a11.62,11.62,0,0,0,7.93,12.25c6,2.14,8.75,6.17,10.86,11.12-8.25,3-13.65-.39-18.45-6.66-3.71-4.84-8.88-6.53-14.78-3-.75.44-2.32,1-2.44.83-5.57-8.33-14.19-2.78-22.06-5,3.32,6.24.34,11.91-1.16,16.93-1.71,5.71-.08,8.34,3.51,11.8,2.65,2.55,5,5.71,8.55,6.59,9.63,2.42,17,8.41,24.32,14.39s17.49,5.07,25.07,10.37c6.37-6.35,10.8.39,15.63,2.58,5.23,2.36,11.09,3.91,15,8.61-2,3.73-5.31,3.58-8.8,2.75l.19.06c-5.11.22-9-2-12.24-5.77-3.61-4.26-8.9-4.29-12.46,0-1.25,1.5-2.24,2.34-4.13,1.87l.14.07c-6.46-4.56-12.08-10.68-20.86-10.86l-4.34-2.77c-4-10-13.89-10.2-22.26-12.55-4.2-1.18-7.77-2.61-10.08-6.41a9.32,9.32,0,0,0-9.38-4.56c-10.17,1.8-16.1-5-22.83-10.06-3.15-2.39-6.26-4.55-10.13-5.47C513.58,901.74,506,898.78,499.32,894.08Z" fill="#251610"/><path d="M562,587.17c-.39-2.45,1.34-4,2.49-5.83,1.31-2.1.85-4.08-.28-6.15-1.92-3.5-3.06.17-4.43.49-2.82.66-4.57-1.36-6.83-2-.2-9.41,7.55-12.38,13.79-16.45,1.76-1.15,4.07-1.47,6-2.55,3.52-2.86,4-6.88,4.31-11,.45-5.49,3.45-8.52,8.7-7.49,7.67,1.51,13.06-.94,16.94-7.41,1.58-2.63,5.07-3.89,5.43-7.39.15-2.33-.84-4.42-1.33-6.62a6.32,6.32,0,0,1,.06-2,21.79,21.79,0,0,1,5.69-8.07c8.49-5.7,14.08-15.34,25.88-16.76,4.62-.56,9.31-3.4,14.28-4.31,1.77-.32,3.39-.46,4.74,1-4.47,3.88-10.85,2.92-15.71,6.19-2.74,1.84-5.77,3.25-8.1,5.67-3.09,2.88-8.15,3.3-9.91,7.84-6.13,10.37-7,21.89-7.59,33.49a20.85,20.85,0,0,1-1.93,8.45c-1,2-1.77,4.11,1.25,5.38,3.73,1.58,3.46,4.37,1.73,7.18-2.24,3.63-.41,5.26,2.79,6.54a17.29,17.29,0,0,1,5.66,3.3c2.68,2.57,4.58,6,1.74,8.92-3.12,3.15-5.24-.74-7.42-2.72-.93,2.71,1.12,4,2.53,5.59,2.32,2.61,6.32,4.58,4.49,9s-6.15,2.93-9.54,3.36c-1.07,2,.59,4.08-.56,5.79-6.26,9.36-1.34,17,3.83,24.56.82,1.21,1.77,2.32,2.57,3.54,1.08,1.67,2.28,3.62.68,5.31-1.77,1.9-3.55.18-5.13-.86-.8-.53-1.74-.87-1.88-1,1.19,1.17,3.6,3.09,1.34,5.59-1.61,1.78-3.58-.15-5.24-1-2.29-1.21-4.14-3.67-7.26-2.38-3,.18-5.44-.82-5.55-4.14-.13-3.87,2.77-5.58,6.85-7.06-10.6-2.05-11.56-9.57-11.94-17.46a2.82,2.82,0,0,1-.84-1.84c-.08-1,1-1.23,1.23-2a2.31,2.31,0,0,0-1.35,1.5c-.27,1.35.86,2.08,1.44,3.06-2.09,3.5-4.42,2.43-6.11-.1-1.82-2.74-4.36-6.85-.48-8.85,9.53-4.89,6.59-13.91,8.43-21.36-2.09-2.24-4.56-4.36-1.62-7.82-2.22-.18-3.09.91-3.42,1.92a17.7,17.7,0,0,1-15.83,12.12c-3.18.11-5.18,2-7.21,4.17-1.85,2-3.77,4.81-7.33,2.73Z" fill="#846652"/><path d="M692.66,493.32c3.82-.31,7.19-.44,11,2,4,2.58,8.84-.64,13.22-1.55,10-2.08,19.67-3.49,30.13-.68,13.6,3.66,27.19-.66,40.66-3.23,18.44-3.53,36.93-6.16,55.7-2.08,4.65,1,9.2-.69,13.79-1.3,6.63-1.77,13.5-1.94,20.26-2.85,2.06-.28,4.88-1.76,6.16.19,1.55,2.38-.86,4.41-2.44,6.22-4.35,5.47-4.36,5.51,2.54,6.56,2,.3,4,.56,4.57,2.86.64,2.51-.66,4.25-2.71,5.42-2.74,1.57-5.7,2.79-8.09,5.22A21.44,21.44,0,0,0,898.17,515c6.6-2,14.93-1.33,21.05-7.82-4.34-1.24-8.08-1.79-10.45-4.87-.91-1.18-1.84-2.4-1-3.92a3.19,3.19,0,0,1,3.83-1.43c4.36,1.44,9.13,1.93,12.78,5.11l2.15,2.65c-1,4.73.78,9.53-.38,14.26-7.05,4-13.45,10.28-22.78,4.61a12,12,0,0,0-11.29-.68c-2.07.94-4.57,1.42-6.34.12-5.47-4-8.06-1.39-10.25,3.6-1.14,2.59-2.56,6-6,5.39-3.24-.6-4-4.11-4-7,0-5.86-2.36-6.81-7.17-3.9-2.28,1.37-4.6.85-6.95-.31-4.58-2.26-9.58-3.47-14.36-5.23a5.28,5.28,0,0,1-1.71-1.12c-1.46-4.62,2.33-4.35,4.94-5.2,1.4-.45,3-.86,2.75-2.77-.19-1.37-1.49-1.83-2.67-2.17a48.91,48.91,0,0,0-14.48-2.07,22.72,22.72,0,0,0-13.38-2.42c-9.42,1-19-.16-28.4,2a10.66,10.66,0,0,1-5.11-.16c-4.58-1.21-8.95-2.08-13.23,1.26-1.72,1.34-4.27.6-6.46.43-3.29-.61-6.4.78-9.63.88-2.83-.28-5.41-1-8.09,1.47-7.93,7.37-15.45,6.24-21.46-3-3.79-5.83-8.8-3.49-13.7-2.42C701.27,499.14,696.08,498,692.66,493.32Z" fill="#5d483a"/><path d="M632.06,496.35c6-9.1,15.64-10.48,25.33-11.77,2.61.64,5.5.07,7.84,1.83-3.34,3.9-4.63,7.59.34,11.41,2.95,2.27,2.75,6,3.13,9.3.27,2.34-.4,4.79,1.13,6.93l.3,2.6c.66,7.4,2.86,14.51,4.21,21.79-2.65,13.22-1.54,26.22,2.27,39.08q5.11,17.22,10,34.5a5.39,5.39,0,0,0,3.08,3.79c2.26,4.08,2.13,8.68,2.82,13.08a4.32,4.32,0,0,1-2.43,4.81c-1.52.72-2.85,0-3.92-1-6.87-7-13.78-14-16.85-23.66q-7.74-26.88-13.46-54.23c-1.67-11.37-2.38-22.89-5.14-34.1a11.89,11.89,0,0,1-.49-2,13.92,13.92,0,0,0-6.91-12.12c-4.36-2.73-4.58-5.22-.69-9.09-3.74-.69-6.95,1.06-9.89-.37Z" fill="#6a4d3a"/><path d="M607.67,512.66l.07,1.47c-1.12,2.94.78,5,2.22,7.13,1.65,4.13-2.87,4.26-4.18,6.45-3.58,6-7.83,10.71-15.41,11.53-.8.08-1.38,1-2.7.29-4.32-2.5-8.7.1-8.82,4.91a18.52,18.52,0,0,1-4.27,11.76c-4.72-3.76-10.39-5.06-16.12-6.36-7.49-1.7-8-2.61-5.63-9.79a8.48,8.48,0,0,0-1.13-8.17c-3.45-5-3.18-9.62,2.21-11.88,6.24-2.6,6.11-6.52,5.39-11.53-.32-2.17-.44-4.36,1-6.29,10.08-4.59,20-3,29.84.79,1.75,3.81,3.68,6.77,9,5.55C602.5,507.75,605.37,510.12,607.67,512.66Z" fill="#50392c"/><path d="M837.23,514.15c5.39,1.11,10.83,2.23,15.48,5.27,2.69,1.76,4.3,1.08,6.26-1a5.3,5.3,0,0,1,6.73-.88c2.26,1.27,2.33,3.59,1.67,5.8-1,3.21.81,5.4,2.58,8,4.23-3.18,5.38-8.11,7.56-12.15,1.84-3.38,2.82-2.62,4.53-.63,3.38,3.93,6.67,3.88,11.57,1.92,4.23-1.7,9.61-.59,13.55,2.69,2.81,2.33,4.94,2.45,7.37-.4,2.84-3.33,7.41-1.59,10.84-3.29a5.59,5.59,0,0,1,2.36,2.8c.59-4.35-1.41-8.62,0-12.89,4.36-3,5-3.15,6.73-1.12.1,1.4.2,2.8.29,4.2-.93,3.34-.1,6.62.86,9.71.67,2.19,2.29,4.87,4.81,1.06q.23-5.73.44-11.46c.64-1.4.06-3.91,2.47-3.77,3.17.17,3.3,3,3.88,5.32a18.56,18.56,0,0,1,.07,4.65c-1,4,.14,7.74,1.47,11.45,1.36,8.19-1.67,16.56,1.44,24.81,1.64,4.37-3.76,2.6-5.36,4.38a3,3,0,0,1-1.91,0c-4.77-2.74-2.32-9.14-6.37-12.23-5.89-3.3-11.31-7.33-17.51-10.16-3.73-1.71-7-3.58-10.41.39-2.05,2.37-5.13,2.17-6-.43-2.24-6.74-5.78-2.91-7.38-.62-3.83,5.5-11,4.85-15.39,9.16-1.84,1.78-4.58-.17-6.73-1.35-6.24-3.43-12.49-6.57-20.06-4.16-5,1.61-4.52-3.92-6.91-5.77a8.25,8.25,0,0,0-3.58-5C837.75,524.9,836.4,519.88,837.23,514.15Z" fill="#51382a"/><path d="M478.47,689.77l5.79-.75c1.35,2.43-.59,4.09-1.46,6-2,4.33-6.18,7-8.59,11.14-1.45,2.49-4.51,4.77-8.18,3.28-6.49-2.64-9.33,1.53-12.32,6,6.74,2.7,7.77,5.61,2.84,10.29-5.41,5.14-8.54,12.66-16.21,15.45-2.25,1-4.42,2.2-7,2.18-6.31-.31-12.13-3.43-18.78-2.54-4.46.59-6.63-2.31-5.16-7,2.1-1.82,5.1-1.06,7.45-2.73-2.6.87-5.28.94-7.38,2.68-3.3,2.53-7.18,4-10.93,5.66s-7.63,2.16-7.75,8.52c-.07,3.83-5.65,7.45-11.28,6.94a10.07,10.07,0,0,1-2-.37,6.69,6.69,0,0,1-1.78-1c-3.56-3-7.62-5.61-8-10.9,12.05-5.5,21.37-15,35.12-18.84,12.6-3.51,25.26-9,37.6-14.44,10-4.37,21-6.49,29.23-14.31C472.9,693.71,475.49,691.42,478.47,689.77Z" fill="#766054"/><path d="M669.83,514.05c-2.49-1.93-1.88-4.84-2.23-7.36a14.29,14.29,0,0,0-4.2-9c-6.48-6.19-6.38-6.55,1.83-11.32,8.75,3.83,18.14,5.2,27.43,6.91,5.33.37,8.92,4.78,13.94,5.88,6.91,2.09,13.4,4.23,16.83,11.8,3.2,7.08,12,6.54,17.41,11.82,2.26-4-1.51-9.22,4.14-10.6,5.19-1.26,9,1.16,13,5.51-.47-5.24,2.48-8,5-11,2.83-3.22,7-3.65,10.75-3.72,16.62-.28,33.28-2,49.7,2.76,7.8,2.25,14.85,11.59,13.19,19.43-1.86,1-3.69,1.25-5.47-.15-4.81-5.89-8.94-13-18.56-10.46-2.31.62-2.76-.86-3.82-2.28-5.52-7.43-12-8-18.72-2-3.74,3.37-8.67,4.77-13.25,5.7-8,1.62-9.75,6.82-10.18,13.51-.1,1.54,1.11,3.88-1.3,4.26-2,.32-3.68-1.4-4.3-3.31-1.08-3.29-2.13-6.42-5.72-7.93-2.86-1.21-4.8-1.13-6.53,2.08-2,3.74.59,4,2.84,4.9,2.86,1.13,5.92,2.86,4,6.2-1.79,3.16-5,1.74-7.74.24-12.31-6.65-26.25-11.4-36.58-20.28-10.78-9.26-25.66-9.85-35.42-20.23-3.17-3.38-5.71,1.16-6,4.2C669.4,504.43,669.81,509.26,669.83,514.05Z" fill="#231e1c"/><path d="M924.42,502.05c-5.35.06-10-3-16.16-4.1,2.51,4.67,5,7.27,9.81,6.36,1.43-.26,3.07-.36,3.7,1.4.56,1.58-.29,2.82-1.51,3.75s-2.42,2.38-3.61,2.35c-7.92-.21-14.07,5.36-22.61,5.36-7.19,0-12.3-4.36-18.91-4.16-3,.09-1.89-2.48-.5-3.4,3-1.93,5-5.19,9-5.65,2.15-.25,3.83-1.58,3.36-3.9-.57-2.78-3-1.63-4.82-1.69-2.27-.08-5.19,1.82-6.61-1.1-1.57-3.23.69-5.43,3.14-7.28,8.86,2.1,16.21-.82,23.71-5.56,4.05-2.56,9.91-2,15.05-2l2.28,5.49c-.67,1.47-2.38,2.15-2.94,3.84,1.47,1.8,3.39-.66,4.9.44C922,495.64,925.07,498.33,924.42,502.05Z" fill="#695141"/><path d="M399.35,851.86c4.21,1.34,8.41,2.71,13.14,2.53-8.21,3.24-15.06,8.62-23.66,10.26-2.27.44-5,1.9-5.06,5.36,0,2.71-.43,4.7,3.37,5.81s-1.54,5.08,1,7.3c-11.29-1.67-17.75-9.86-24.39-17.79-.76-4.24,2.09-4.71,5.18-4.77,2.6-.06,5.23,1.12,8-.22-2-.57-4,.06-5.87-.56s-3.06-1.48-3.24-3.43a3.21,3.21,0,0,1,2.79-3.64c2.38-.51,4.63-.51.33-2.14-1.1-.42.85-2.67-.5-3.87l-14-5.71c-.59-2,.93-2.47,2.3-3,7.95,1.33,16.43.09,23.61,5.29,2.93,2.12,5.55,1.47,6.08-2.75a49.67,49.67,0,0,1,.89-5.68c1.19-3.59,3.34-6.74,4.77-10.22,5.86.47,5,4,4.06,8.06C396.64,839.12,394.18,845.75,399.35,851.86Z" fill="#3b2b23"/><path d="M560.28,502.18c.46,3.6,1.59,7.28,1.19,10.78-.32,2.82,3,9.15-5.49,7.16-3.4-.8-5.22,7.22-2.51,10.43s3.84,7.08,1,10.5c-4.12,5-1,6,3.2,7,6.23,1.47,13.75.43,16.88,8.2C564.91,559,557,564,553,573.63l-3,1.76a25.67,25.67,0,0,0-2.93-9.66,19.51,19.51,0,0,1-2.28-13.39c1.87-9.53,1.86-19.29,1.78-28.7C546.38,512.46,551.75,506.84,560.28,502.18Z" fill="#745945"/><path d="M367.77,742.62l9,10.8c-1.76,1.25-3.75.33-5.62.53-2.71.28-3.26,1.14-3,4.11.63,7.75-2.06,14.33-9.22,18.5-1.84-.55-3.26-2.11-6-2.08.17,3.55-1.9,6.82-1.38,10.6-5,5.66-7.83,5.59-15.73-.37,1.25,4.11,2.55,8.2,3.87,12.29.54,1.67,2.47,4.16-1.14,5.14-2-4.17-5.65-8.77-6.11-12.49l-2.07-15.89c-.16-1.75-1-3.37.81-4.65,4.43-.37,4.87,3.53,6.6,6,2.6,2.06,4.63,1.35,5.32-2.68s-1.79-6.44.33-9.81c-1.76-3.38-3.56-1.11-3.53-6.48a54.82,54.82,0,0,1,19.92-9C362.88,746.5,365.37,744.6,367.77,742.62Z" fill="#403a32"/><path d="M521.13,904.72c3-.68,6.06-1,8.16,1.54,4.38,5.39,11.29,7.33,16.1,12,2,1.93,3.24.62,5.09.17,4.79-1.18,10.57-.65,12.73,3.37,4.48,8.34,12.83,8.77,19.79,9.93,8,1.33,11.7,4.69,12.81,12-3.83-.62-7.64-1.53-11.5-.12a7.32,7.32,0,0,1-7-.89c-7.09-5.12-16.34-6.56-22.61-13-5.52-5.67-14.5-5.13-19.83-11.33C530.7,913.55,525.75,909.27,521.13,904.72Z" fill="#291815"/><path d="M338.53,802.14c.09-7.66-5-14.09-5.64-22.33,5.91,3.59,9.92,13.18,18,4.59,1.05-4.18,4.2-6.43,7.79-8.27,4.32-3.11,5.31-8.3,7.86-12.51,2.44-4-.88-7.08-3.44-11.28,5.2,1.24,9.47-2.22,13.66,1.08h0c1.9,4.56-.63,8.36-2.14,12.34a12.59,12.59,0,0,1-1.25,1.83,80,80,0,0,0-6.24,14.67A48.75,48.75,0,0,1,359.56,797c-5.09,6.85-11.73,9-19.92,6.72Z" fill="#1b1614"/><path d="M339.64,803.74c15.77-.45,22.43-10,26.13-23.94,1.23-4.65,2.81-10.11,6.82-13.88,6.29,3.72,3.65,9,2.43,14-1.75,3.34-5.1,6-4.78,10.26-1.23,3.18-.64,5.19,3.3,5.09,1.4,3.57-.36,6.31-3.09,7.93a11.39,11.39,0,0,0-5.37,6.33c-4.66,13-16.94,11.13-22.7,2.52Z" fill="#5a4438"/><path d="M342.38,812a41.12,41.12,0,0,1,3.75,2.06c7.78,5.25,12.21,4.33,16.61-3.58,1.92-3.46,1.52-8.55,7.58-9,1.11-.09,2.9-3.6,2.81-6.2a2.78,2.78,0,0,1,2.63-1.47c4.49,1.35,1.48,4.85,2.13,7.3.43,1.63-4.6,3.83.67,5.15,1.12.28-.33,2-1.25,2.7-2.19,1.68-5.07,1.41-7.53,2.44-.27,2.61,1.64,4.55,1.83,7,.26,3.23-.27,6-4.08,6.4-4.34.47-5.84,2.58-5.27,6.8.4,2.94-.2,5.8-3.05,7.61-1.18.23-2.31.52-2.71,1.86-8.36-.68-11-7.44-11.58-13.5C344.39,822.23,343.05,817.19,342.38,812Z" fill="#6c5447"/><path d="M795.86,981.3c3.51-2.41,9.55-.37,11.15-6.18,5.67,3.5,13.78-7.21,18.43,3.11.42.93,3,1.89,3.92,1.46,6.38-2.88,9.84,1.82,13.88,4.91A27.63,27.63,0,0,0,858,990c3.17.3,7.08-.44,8.93,3.49-4.56-.68-9.12-1.39-13.7-2-1.67-.23-3.55-.78-5-.28-11.85,4-22.19.72-32-5.88-2.8-1.88-6.15-.74-9.28-.48C802.68,985.17,798.51,985.56,795.86,981.3Z" fill="#110908"/><path d="M917.45,482.41c-4.14,1.65-7.6,4.56-13.12,2.65-1.47-.51-7.36,3.77-11.08,6-5.64,3.32-9.93,2.27-14.56-1,.88-2.15,4.14-2.61,4-6.62l-25.54,3.11c8.74-4.38,18.47-3.4,27.71-4.44s18.9-.54,28.31-1.82C915,480,917.2,479.37,917.45,482.41Z" fill="#695141"/><path d="M934.43,508.31c-2-.56-3.44,3.06-5.63.66.32-5.74.37-11.45-1.67-17-.25-.67-.4-1.31-1.1-1.64q-2.55-4.25-5.12-8.5c6.4-2.5,11.51-.57,13.42,5.14C936.7,494.07,935.67,501.2,934.43,508.31Z" fill="#695141"/><path d="M620.87,957.33c1.77-.59,3.09-1.55,2.75-3.65-.53-3.24.45-3.75,3.45-2.38,3.69,1.69,4.69-1.85,6.54-4.72,4.08,6.85,8.29,12.81,16.09,14.61A87.13,87.13,0,0,1,620.87,957.33Z" fill="#291815"/><path d="M339.88,756.18c.34.35.62.87,1,1,4.46,1.49,5.55,5.87,4.95,11.18-.65,5.75-2.75,9.71-8,12.11-1.3-1.27-.92-3-1.16-4.66,1.78-1.88,4.5-2.84,1.57-6.65-1.52-2-2.39-5.93-2.16-9.26C337.05,758.36,338.06,756.87,339.88,756.18Z" fill="#625a4f"/><path d="M944.33,951.17c2-2,.93-4.21.47-6.38-2.33-3-1.3-6.3-1-11.3,6.93,6.3,8.14,13.8,10.34,20.78-.13,5,2.8,9.67,1.29,14.75-2.47.58.05,3.87-3.59,4.68C952.54,965.09,946.85,958.74,944.33,951.17Z" fill="#1a0f0b"/><path d="M758.15,975.6c7.89-4.8,16.79-.15,25-2.56,1.71-.49,4.08,1.35,4.52,3.9C777.69,979.87,767.68,982.8,758.15,975.6Z" fill="#110908"/><path d="M607.67,512.66c-4.25-.13-7.4-3.8-12.7-2.12-4.36,1.38-6.15-3.1-4.85-7.57,7.54-.49,14.76,3.17,22.37,1.72C611.54,507.74,610.52,510.74,607.67,512.66Z" fill="#624f43"/><path d="M370.47,846.7c1.14,4.69,5.71,4.29,9.83,5.9-2.83,2.41-5.55.29-7.79,1.16-1.3.5-3.17.24-3.35,2.1-.25,2.54,2,2.16,3.54,2.58,2.77.76,8.4-3,7.78,2.45-.45,3.94-6.37,2.09-9.71,1.55s-5.73-.68-7,2.89c-2.71-3.32-.73-6.18,1-9C366.82,853.22,369.34,850.36,370.47,846.7Z" fill="#5e493f"/><path d="M336.1,759.9c2,2.29,4.76,4.21,3.52,8-.25.76-1.37,2.95.87,1.89,4.43-2.1,2.45,1,2.22,2.42-.55,3.43-3.25,3.65-6,3.65l-5.53-6.7A12.31,12.31,0,0,1,336.1,759.9Z" fill="#978e7f"/><path d="M702.68,969.08c4-.67,7.64-1.67,11.74,1.27,2.46,1.77,6.84,1.42,10.31-.18,5.3-2.44,9.36-.81,12.35,4-4.45-1.29-8.4-5.1-13.57,0-1.66,1.63-8,.54-10.76-1.37C709.48,970.49,706,970.36,702.68,969.08Z" fill="#110908"/><path d="M600.15,946.54c10.33-2.74,15.75,3.77,20.86,10.86C613.34,955.13,605.92,952.4,600.15,946.54Z" fill="#291815"/><path d="M921.69,492.18c-.8.54-1.58,1.12-2.41,1.63-1.62,1-3.46,2.63-5.07.43-1.79-2.46.45-4,2.1-5.29.87-.68,2.26-.72,3.42-1.05C920.32,489.35,922.11,490.27,921.69,492.18Z" fill="#695141"/><path d="M649.51,961.13l8.8-2.75c.25,1.91.49,3.83.73,5.74C655,965.78,652.31,963.31,649.51,961.13Z" fill="#291815"/><path d="M478.47,689.77c-1.44,4.17-4.61,5.49-8.75,5.26l4.33-4.76A4.13,4.13,0,0,1,478.47,689.77Z" fill="#7a685e"/><path d="M654.11,732.94c-1,.79-5.24-1-2.14,3a117.67,117.67,0,0,0,12,13.65c-2.68.33-5.39,1-8,.84-1.54-.1-2.81-.79-3.47,1.12a3,3,0,0,0,1.28,3.82c10.1,5,2.35,9.76-.85,13.15s-2.95,5.58-.73,8.68c-5.18.24-8,1.84-5.09,7.6,2.13,4.31-.41,7.76-3,11-5.09-3.2-8.52-8.55-14.46-10.74-1.34-.49-1.48-2.43-.78-3.88,1.1-2.3,3.08-2.81,5.48-2.63,2.16.16,4.92,2.82,6.34-.64,1.12-2.73-1.46-4.27-3.2-5.93-2.32-2.21-2.91-4.44.06-6.61,2.26-.24,4.11-.9,3.93-3.7,1.69-5.17,4.24-1.92,6.54-.82-3.45-8-5.28-8.5-12.74-3.18a5.94,5.94,0,0,1-4.12,1.11,10.42,10.42,0,0,1-3-.92c-1.63-.86-3-1.91-3.23-3.92.2-1.67,1.31-2.33,2.83-2.54,2.9,0,6.25.29,3.64-4.34a3.19,3.19,0,0,1,.43-2.87c4.82-.7,9.06,1.78,13.6,2.46,3.16-3.23-.06-6-.74-8.84-.57-2.42-3.37-5.28-.22-7S651.76,728.36,654.11,732.94Z" fill="#251610"/><path d="M638.86,765.67c-3.31,2.29-2.76,4.2.64,5.69,4.44,1.93,4.49,5.51,3,9-2,4.62-4.85,1-7.12.09s-4.48-1.28-5.44,1.34,1.29,3.14,3.28,3.54c5.87,1.17,8.23,6,10.87,10.44.08.47.15.94.19,1.41-6.95-2-10.9-8.77-17.69-11.05-1.44,1-2.44.14-3.4-.83-.55-1.88-1.2-3.76.1-5.61,1.46-1.72,3.71-2,5.61-3.08-8.51-3-3.74-10.59-5.74-15.81a4.89,4.89,0,0,1,3-.45c3,1.44,5.73,3.31,9.45,2.58C637,762.7,639.17,763.14,638.86,765.67Z" fill="#3b281f"/><path d="M657.13,553.61l14.1,55.44c-.7,1.32-.26,2.9-.84,4.18-5.47,12,0,16.77,14.93,20.86,6.13,1.67,13.31.87,16.74,8-1.56,2.8-.3,6.23-2.27,9a2.29,2.29,0,0,0,2,3.68c4-.1,7.59,5,10.72,2.37,3.81-3.15,2.11-8-.42-11.87-1.75-2.65.31-5.21-.29-7.77-1.15-4.88-5.47-6.76-8.5-9.89-1.81-1.87,1.19-8.17-4.15-10.85-4.18-2.1-4.61-5.31-1.24-8.78a80.86,80.86,0,0,0,5.93-6.37c2.67-3.44,2.56-6.8-1.51-9.1-5.62-3.19-6.15-5.89-.39-7.91,9.35-3.29,7.42-9,5.06-15.44a12.84,12.84,0,0,1-1-3.46c-.34-5.83-2.77-8.63-9.24-8.44-4.68.13-9.21-1.49-9.2-7.87,0-3.95-.68-8.15,3.82-10s4,4,7.33,5.36c.13-7.26,8.32-7.38,11.21-12.7,1.38-2.56,4.18-.86,5.19,1.22,1.89,3.86,5.34,6.81,6.17,11.34.43,2.33,1.42,6.15,4.67,5.17s2.76-4.55,2.13-7.57c-.41-2-4.56-3.09-2-5.26,2.25-1.9,3.35,2,5.37,2.5a8,8,0,0,0,3.6.17c7.17-2,13.49-.09,19.29,4,3.34,2.37,5.2,1.58,6.19-2.25.75-2.92,1.52-5.31,5.85-4.39,4.69,1,5.25-4.2,7.77-6.5-.22-4.55,3.9-4.9,6.57-6.65-.28-2.5-.54-5.49,2.66-5.81a28.88,28.88,0,0,1,10.72.87c1.66.48.47,2.9-.45,4.42-1.29,2.14-4.78,4.11-2.5,6.82s4.89-.39,7.31-1.06c3.34-.93,6.22.63,9.27,1.38,7.2,1.79,7.36,1.62,6.41-6.29,3.22,4.42,6.35,7.06,4.31,12.94-1.55,4.45,2.69,7.9,7.52,7.49,15.86-1.35,21.78,12.25,31.52,20.07,1.64,1.32,1.12,3.5.84,5.48-.92,6.53.2,11.5,7.61,14.39s7.73,9,1.47,14.56c-1.26,1.1-2.79,2.33-2.22,4.27s2.45,2.2,4.18,2.27c4.63.19,8.12,3.09,12,4.9,1.29.6,3,1.4,2.66,3-.39,2-2.43,2.24-4.14,2.27-1.43,0-3.14,0-4.26-.66-7.51-4.74-16.41-1.21-24.21-4.14a2.2,2.2,0,0,0-3,1.23c-.49,1.31.41,2.21,1,3.26,1.26,2.08,6.7,2.46,3.3,6.41-2.82,3.28-7.06,3.25-10.85,1.89-10-3.57-19.57-4.79-28.45,2.69a21,21,0,0,1-13.47,5c-14.38.24-27.56,5.79-41,9.7-7.84,2.27-13.3,8.62-18.1,15.13.26,2.35-.95,2.49-2.73,1.77-3,.87-6,1.72-9.06,2.61-1.4.42-3.93.79-4,1.38-1,9.23-7.46,4.34-11.68,4.4a9.88,9.88,0,0,0-7.52,3.79c-2.24,2.57,1.05,4.1,2.28,6,2.11,3.18,1.4,17.12-1.08,20.19-1.3,1.61-1.89,2.23-4.32.18-9.59-8.13-19.68-15.86-33.72-12.84-2.3.49-4.26.17-5.74-1.86.81-3.09,5.89-.65,5.81-4.29-.08-3.05-3-4.52-5.23-5.62-8.4-4.15-5.08-12.38-7-18.74-.4-1.31.35-3.89-.17-4.1-7.78-3.12-5.59-11.47-9.18-16.71-3.7,1.39-6.3-.34-7.78-3.38-1.22-2.5,1.2-3.73,2.92-5.13s5.83-.9,4.78-4.29-.77-8-5.1-10-5.2-6.1-5.89-10.22c-.2-1.21-.55-2.84.42-3.46,8.46-5.4,1.17-12.53,2.2-18.7-5.52-7.74-8-16.67-10.56-25.61a4.83,4.83,0,0,1,0-3.53c4.43-9.11,1.38-17.16-3.6-24.92a15.65,15.65,0,0,1,.74-17.1c4-5.19,9.74-5.21,13.16.42,1.89,3.09,3.64,5.53,7.54,6,3.62.44,4.09,3.64,4.93,6.39v0c2.06,3.3,1.21,6.46-.49,9.56-1.47,2.68-2.79,6.32-.66,8.16C655.53,541.44,655,548,657.13,553.61Z" fill="#110908"/><path d="M831.21,525.1l5.83-.73c4,2.33,8.24,4.34,10,9,3.34,0,5.82.65,2.07,5.76,9.77-5,17.3-1.78,24.48,2.51,3.14,1.87,5.63,4.25,8.07-.67,1-1.94,3.24-1.86,5.17-2.15s4.66,0,5.17-2c1.84-7,8.53-4.6,12.43-7.4,1.83,2.72-1.13,3.07-1.44,4.54s.79,2.19,1.81,2.75c2,1.08,2.62-.52,3.1-1.84,1.35-3.74,4.12-4.12,7-2.41,5.63,3.35,13,3.8,17,9.68,1.46,2.1,4.12,1,5.62,2.67,3,7.46,3.26,15.76,5.85,21.51-1.07-1.46-1.81-4.57,0-8l1.3-.14a7.17,7.17,0,0,1,4.44,4.46c4,9.91,10.27,19,11.62,29.88a49.73,49.73,0,0,1-1.89,7c-.51,1.77-.92,4.16-3.31,4.15-2.23,0-3.14-2.22-3.68-4-2.65-8.57-7.17-16.3-10.82-24.42-.59-1.32-1.26-2.61-2.85-3.1-.66-.66-.6.86-.14,0,.14-.26.42-.21.69.23,3.31,5.62,8.11,10.81,5.42,18.19-2.37,9-11.7,12.71-19.65,7.76-.55-.35-1.36-1.29-1.22-1.57,4-8.27-4-8.16-7.64-9.24-9.23-2.76-15.93-11.5-26.75-10.57-2.92.25-5.91-2.3-7.35,2.54-.6,2-3.47,1.34-4.44.29-3.46-3.72-15.43-2.87-7.48-13.07.84-1.07-.3-2.31-1.31-3-2.9-2.07-4-5.33-5.94-8.11-1.77-2.59-2.7-7.9-8.23-4.29-.61.41-3.61-1.09-3.6-1.67.1-6.56-10.72-3.71-9.63-11.18.18-1.24-1.89-.23-3,0-2.61.56-5.26.94-7.9,1.4-2.43-4.36.42-8.79-.16-13.17Z" fill="#2f2018"/><path d="M827.24,702.86c2-2.15,4-1.85,5.81-1.44,3.9.92,6.92.37,9.87-2.76,3.12-3.31,9.46-1.78,10.51,2.54,2.06,8.47,6.87,15.66,10.68,23.23,2.75,5.44,4.13,10.06,1.24,15.6-4.93,9.43,1.19,17.13,4.53,25.09,1.39,3.3,3.55,6,2.84,10-.92,5.17,3.91,8.54,5.56,13-2.64,1.85-3.72-.52-5.23-1.32-2.23-1.17-3.93-4.55-6.91-2.69-2.48,1.56-.06,4.56-.91,6.94-3.17-1.13-4.57-4.13-6.55-6.39-3.29-3.75-6.32-7-12.18-6.48-4.34.36-7.53-3.18-10.65-5.85-2.81-2.41-5.85-2.69-7.29.54-3.06,6.85-10.2,7.14-15.52,9.91-4.81,2.5-4.63-4.44-4.14-5.48,2.69-5.78,2-12.47,6.64-17.93,4.89-5.78,9.65-9.32,17.34-7.7,2.39.5,4.08-.21,3.71-2.85-.51-3.64.1-6.63,3.14-9.08,2.07-1.66.68-3-1-3.87a8.73,8.73,0,0,1-3.9-4.18c-1.44-2.92-1.75-5.52,2.79-4.43,3.72.9,6.17-.16,7.94-3.3,1.91-3.38-.78-5.54-2.43-7.71A48.88,48.88,0,0,0,827.24,702.86Z" fill="#110908"/><path d="M738.16,658.2a3.13,3.13,0,0,0,2.73-1.77c2.07-.71,4.09-1.75,6.21-2,3-.42,8.6-3,5,4.34-.72,1.46.25,2.68,1.18,3.92,4.27,5.67,4,6.44-3.3,7.2-6.51.68-11.56,4.68-17.43,6.8-3.37,1.21-4.31,4,.2,5.94a21.8,21.8,0,0,1,3.52,2.35c-1.13,2.34-4.23,1.82-4.85,4.3l4.87,1.41c3.25.2,2.89,2.05,2,4.17-5.69.74-8.31,4.55-5.82,9.15s-1.46,7.51-1.89,11c-1.14,9.37,1.41,18.81-1.49,28.1-1.34,4.28.82,8.92,4,12.38,2.9,3.13,2.61,5.88-1.65,5.74-4.09-.13-4.71,3.24-6.53,4.84-3.9,3.42-9.21,3.72-11.13-1.25-1.12-2.89-2.82-6.39-1.2-9.72,1.89-3.88,3.32-7.12-1.32-10.49-2.17-1.58.66-5.14,1.67-5.49,4.77-1.62,2.33-3.84,2.43-7,.13-4.17-4.59-10.55,3.52-13.71,3.6-1.4,0-4.33-1.87-5.1-3.67-1.52-4.1-3.24-3.38-7.13.65-3.45-2.79-8-1.59-10.94,2.94-7.11-.08-13.75.37-20.53.17-2.53-.1-6.24,5.61-4.64C728.15,672.9,733.29,665.33,738.16,658.2Z" fill="#35241c"/><path d="M806,716c5.81,3.34,11.26,7.08,14.95,12.83.72,1.27.28,2.94-.72,3.1-6.85,1-13.59,4.94-21.75,1.15,3,1.87,3.06,4.67,4.59,6.72.23,1.15.5,2.27,1.77,2.76a6.31,6.31,0,0,1-.39,6c-2.39,1.2-4-.43-5.85-1.49-6.71-5.82-14.93-10-20.15-17.43-1.45-2.07-4.71-4.26-1.24-7.31l2.91-.27c4.15.1,4-1.87,2.28-4.61l-1.57-1.31c-1.51-3.24-3.86-20.74-2.6-23.47.77-1.67.61-2.61-.42-3.8a5.93,5.93,0,0,1-1.85-3.84c0-4.54,2.73-6.53,7-6.94-6.27-4.4-1.07-6.86,1.94-8.9,3.47-2.34,7.5-1,11.3,0,3.05.85,6.32.74,9.33,1.65,2.36.71,5.61,1.1,4.44,5l.18,1.43a11.87,11.87,0,0,0,3.68,3.34c3.1,1.48,5.1,3.73,4.53,7.28-.61,3.75-4.05,2.55-6.39,3.06s-3.88,1.69-4.1,4.19l-11.59-1.07c2.53,4.15,3.63,8.51,8.32,10.32,2.25.75,4.94,1,5.74,3.74s1.31,5.48-3.22,4.76l-1.67-1.14c-3.78-.17-7.65.06-11.08-2.1C797.63,712.82,802.38,713.38,806,716Z" fill="#4d3629"/><path d="M809.93,675.87c-.52-2.69-2.76-3.33-4.91-3.57a77,77,0,0,1-13.46-2.48c-4.54-1.33-8.59.66-10.44,5.87.86.43,1.7.82,2.52,1.26,1.68.9,5.58-.24,4.72,2.81-.94,3.33-3.53.37-5.37-.12-2.34-.62-3.67.71-4.85,2.33s-1.5,3.58.19,5.21c1.38,1.32,2.88,2.52,3.14,2.75-3.26,9.29-.13,17.86-.67,26.18-4.66-3.22-6-9.29-11-11.77.91-3,3.76-2.82,5.15-4.61-1.4-2.37-5.21-3.58-2.58-7.83,1.91-3.06-2.33-4.2-4.16-5.78-3.92-3.38-4.84-6,1.33-7.29,1.92-.39,2.24-1.67,2.63-3,.74-2.5-1.28-3.46-2.89-4.45-10.7-6.53-11.66-8.73-8.46-19.84.85-2.95,10.93-8.72,13.81-7.1,3.93,2.21,6.43.53,9.27-1.48,2.21-1.55,4.47-3.1,7.36-2.86s5.15,1.61,2.84,4.63c-4.42,5.78.13,6.57,4,7.35,4.53.9,9.19,1.08,13.75,1.85,2.38.4,4.7,1.2,6.21,3.48,1.18,1.77,1.64,3.36.62,5.38-1.15,2.28-2.86,1.16-4.44,1a38.23,38.23,0,0,0-5.78-.73,4.47,4.47,0,0,0-3.06,1.55c-1,1.28.5,2,1.25,2.93C808.68,669.92,812.52,671.68,809.93,675.87Z" fill="#35241c"/><path d="M640.83,577.52c2.22,5.13-.41,11.16,3,16.12.19.28-.83,1.73-1.57,2.21-5,3.24-5.25,10,.33,11.78,7.44,2.37,3.86,10.29,8.67,13.87,1.4,1-2.06,1.61-3.43,2.23-2.58,1.17-6.88,1.38-7,4.26-.17,3.21,4.17,3.36,6.73,4.56-7.67,5.58-.82,10.58,1.27,15.14,1.3,2.85,2.43,6.17,1.38,8-3.56,6.25.2,10.3,3.14,14.84,1.35,2.08,3,3.59-1.54,4.85-3,.84-2.5,5.09-.42,7.83,2.26,3,4.33,5.65,2.16,9.77-1.42,2.69,1.08,4.6,3.06,5.79,4.54,2.73,5,6.44,2.61,10.43-1.93,3.23,0,5.68,1.09,8,2.87,5.82,0,6.06-4.55,5.25-1.09-2.41-2.06-4.55-5.44-5-2.09-.27-5.26-1.41-4.93-4.38s3.3-1.79,5.31-2.08c3.77-.53,6.26-5.12,3.44-8-5.13-5.26-5.57-11.85-7.47-18.08-3.65-4-8.82-7.4-5.23-14.25,1-1.84-1.78-2.48-3-3.45-6.64-5.08-6.67-5.51-.29-11.24-4.35-3.79-8.69-7.77-3.17-13.77.31-.33.54-1.05.33-1.36-4.45-6.69-.69-15.15-4.81-21.9-.51-.83.32-.1-.4-.58-13.62-7-6.7-11.26-4.12-19.09,1.51-4.59,2.38-7.54,7.39-7.7,3.69-.11,4.43-1.33,2-4.19a6.76,6.76,0,0,1-.89-2.93C634.75,580.53,635,576.53,640.83,577.52Z" fill="#2f2119"/><path d="M738.21,694.82c-.19-1.6-.2-3.29-2-4.17.74-.9,1.86-2.7,2.16-2.58,6.27,2.61,10.86-.45,15.82-3.72,2.65-1.74,5.95-.32,7.18,2.9,1.73,4.55,6.2,7.89,5,13.9-.8,3.84,4.1,5.56,6.14,8.46,1,1.34,2.54,2.8,1.59,4.53-1.12,2.05-3.09.44-4.63.3a25.72,25.72,0,0,1-4.92-1.3c-4.61-1.39-6.81.23-5.6,4.93,1.13,4.44-1.57,8.95,1.08,13.47,1.61,2.76-.84,3.08-3.1,2.35a56.88,56.88,0,0,0-11.44-2.15c-3.25-.35-5.87-1.76-6.46-5.73-.89-6-3.85-12,1.77-17.27,1.93-1.81.78-3.24-.87-3.93C733.91,702.3,736.3,698.56,738.21,694.82Z" fill="#110908"/><path d="M895.86,708.94c-1.15,5.86,1.31,9.88,5.27,14.41,3.73,4.26,5,10.74,6.89,16.4a5,5,0,0,1-3.53,6.39c-5.58,1.44-6.5,5.17-6.17,9.93.1,1.5,0,3.23-1.63,3.58-.89.19-2.34-.73-3.07-1.55-5.6-6.34-10.12-13.51-17.15-18.72-4.5-3.33.76-9.06-1.69-13.34.89-.25,1.84-.85,2.64-.69,4.29.87,9,1.22,12.31,4.21,2.14,1.91,4,2.53,6.55,1.6,1-.37,1.73-1.49.85-2.24-2.29-1.93-3.67-6.23-7.21-5.09-3.92,1.27-7.47.4-7.2-2.89.32-3.92-5.07-9.8,2.84-12.13,1.33-.39,2.44-1.56,3.59-2.46,1.63-1.28,1.35-5.17,4-4.42C896.36,702.84,894.24,706.69,895.86,708.94Z" fill="#291b13"/><path d="M777.18,722.3c-.21,5.74,4.15,8.68,7.75,11.91,4.64,4.15,9.61,7.95,14.44,11.9,1.67,3.65,3,7.43,4.33,11.21q1,2.07,2,4.14c-2.94,1.87-2.94,1.87-7.56-2.51-.32-.92-.85.89-.18.18.24-.25.36-.08.55.46,1.53,4.44-.17,9,.51,13.51a2.61,2.61,0,0,1-3.38,2.76h0c-7.08-4.47-13.36-10-20-15-1.22-1.78-1.64-4.46.39-4.92,4.89-1.12,1.52-3.74,1.59-5.72l-5.44-5.79c-1.65-1.76-3-6.29-3.2-7.1-.81-4-.76-7.22,4.07-8.93,2.77-1,1.29-3.69.93-5.73-.14-.83-1.17-2.11.36-2.22C775.25,720.38,776.23,721.64,777.18,722.3Z" fill="#3d291e"/><path d="M955.46,760.79c-8.5-.95-15.59-3.71-20.46-11.64-2.13-3.47-5.26-8-11.89-5.4-3.74,1.45-7.28-2.57-8.89-6s.89-4,4.21-4.28c7.18-.51,15.42,2.4,20.71-5.49,1.1-1.64,2.76-1.46,4.45-.26,6.34,4.48,12.82,8.79,14.33,17.19,2.69,2.76,2.52,6.17,2.26,9.6a4.93,4.93,0,0,1-1,1.86C957.33,757.3,956.6,759.21,955.46,760.79Z" fill="#110908"/><path d="M648,683.81a5,5,0,0,1,2,5.76c-1.22,4.57,1.29,7.39,4.14,9.88,2.41,2.1,3,4,2.86,7.32-.32,8.15-5.39,6.89-11.06,5.38,2.46,5.08,11.55,2.5,9.78,10.3l-8.22.35c2,3.49,5.34,3.68,8.39,4.69,2.33.77,7.17-.49,6,4.16s-4.95,2.06-7.79,1.29c-.39-.28-.81-.83-1.17-.79-2.81.3-6.18-2.48-8.2,0-1.67,2.07,1.89,4,2.5,6.24s1.72,4.53,2.15,6.86c.51,2.75,0,5-3.78,3.5-.45-5.45-1.86-9.12-8.92-7.19-4.83,1.32-8.21-.8-7.18-6.59.45-2.54.28-4.78-2-6.43-2.84-2.51,2-4.26.67-6.65,2-5.09,5.36-2,8.32-1.33a23.15,23.15,0,0,1,3.5,2.49s.26.89.67,0-.21.32-.53-.63c-.68-2.83-1.79-5.24-4.4-7s-3.14-4-.3-6.26c10.82-3.54,11.43-4.62,9.19-16C643.88,689.44,644.17,686,648,683.81Z" fill="#3b281f"/><path d="M834.68,684.62c-.19-2.72-2.72-3.92-4-6-1.88-3.06-3-6.57-1.64-9.67,2.16-4.77,17.43-6.1,22-3.7,8.35,4.41,6.83,13.63,11.14,19.92,1.41,2-8,7.63-11,6.2-4.81-2.3-9.6-4.56-14.91-5.53Q834.47,686.56,834.68,684.62Z" fill="#110908"/><path d="M702.06,642.08c-5.59-4-11.82-5.32-18.68-6.39-6-.93-13.44-3.53-16.1-10-2.35-5.71.6-11.56,4-16.67,4.07,5.76,4.95,13.79,12.44,17.16.77.35,1.25,1.4,1.79,2.16,1.17,1.65,1.64,5.13,4,4.09,2.83-1.21,1.89-4.71.68-6.81-2-3.38.73-6.64-.45-9.84,7.38,4.06,9.16,13.65,17.5,17,2.77,1.13.07,4.11-.44,6.31C706.13,642,705.22,643.58,702.06,642.08Z" fill="#3e2b1f"/><path d="M940.1,641c-3.25-4.67-11-3.65-12.91-10.13-.49-1.71-2.78-3.22-.9-5.09,1.45-1.45,3.55-1.11,5.5-.88,6.7.77,12.18,4.27,17.73,7.63,5.2,2.91,4.28,8.77,6.47,13.12.61,4.29,3.67,7.38,5.53,11.06,2.36,6,5.38,12,.78,18.28-4.07.53-2.42-4.49-5.17-5.23-2.57-.63-3.2-2.8-3.83-4.87-2.72-8.84-7.38-16.78-11.88-24.77C940.54,638.52,941,641.3,940.1,641Z" fill="#110908"/><path d="M788.6,778.19c1.35.58,2.74,1.12,2.69,3-3.42-.62-3,4.62-6.37,4.09-7-1.1-5.65,1.79-2.76,5.62,3.23,4.26-.22,8.73,0,13.13.09,1.76-2.35.71-3.42-.15-2.56-2.06-4.69-4.82-4.18-8.05.84-5.39-1.59-9-4.74-12.88-2.12-2.61-4.32-5.84,1.06-8.78,3.26-1.79-.06-7.13,2.55-10.19l.91-.44c4.73,1.2,6.37,5.54,9.09,8.79C785.1,774.29,786.16,776.83,788.6,778.19Z" fill="#2b1a13"/><path d="M970.16,798.71c5,17.4,5.24,35.55,8.42,53.24,2.95,5.22,4.73,10.34-1.23,14.84-.81-.85-2.21-1.63-2.34-2.57C972.32,844,965.5,824.55,964.84,804A7.21,7.21,0,0,0,970.16,798.71Z" fill="#1a0f0b"/><path d="M892.1,764c-.29,1.47-.18,2.86-.79,3.78-3.5,5.32-3.74,10.22,1,15a2.46,2.46,0,0,1-.8,3.77c-1.66.91-3.53-.76-3.46-1.58.62-8.19-10.23-11.85-8-21.2.6-2.53-4.94-6.43-7.56-9.79-1.23-1.56-4.32-3-2.24-5.24,1.67-1.79,4.13.13,5.82,1.3,3.18,2.19,6.14,4.41,10.08,5.49S890.33,761.09,892.1,764Z" fill="#291b13"/><path d="M947.33,877.75c.15.48.3,1,.46,1.45.17,5.41-.81,10.74-1.25,16.11-1.66,5.21,1.26,8.8,4.47,12.29,1.36,6,3.77,11.66,5.67,17.49a11.47,11.47,0,0,1-.14,8.35,1.54,1.54,0,0,1-2.13.66c-3.19-1.93-.81-6.32-3.76-8.35-3.85-2.78-3.93-6.71-3.48-10.8-1,2.91.32,5.73.51,8.62.17,2.49,1.17,6.15-1.88,6.82s-3.89-2.83-4.73-5.34c-2.26-6,1.21-12.62-1.81-18.59,1.52-9.51-.75-19.71,5.34-28.37Z" fill="#1a0f0b"/><path d="M925.11,660.49c2.25-.3,3.71.84,4.8,2.62a26.29,26.29,0,0,0,5.87,6.41c2.68,2.21,4.51,4.66.28,7.43-1.95,1.27-2.44,3.27-1.74,5.74,1.42,5-1.55,4.68-4.81,3.46-5.63-2.12-11.19-17.55-8.33-22.83A4.72,4.72,0,0,1,925.11,660.49Z" fill="#110908"/><path d="M834.68,684.62l1.63,1.26c1.57,2.5,7.44,4.61-1.83,5.74-6.63.8-12.68,2.2-19.19.12-3.37-1.08-5.17,1.85-7.46,3.43-1.39-2.44-3.17-4.94,1.95-5,2.52,0,5.81.92,7-2.06,1.38-3.41-1.83-5-4-6.77-1.35-1.08-2.5-2.23-2.66-4.06,2.4,1.05,4.57,2.32,7.53,2.2A25.89,25.89,0,0,1,834.68,684.62Z" fill="#35241c"/><path d="M959.12,877.8c-2.08,9.32-3.22,18.61.93,27.72-.11,7.26,5.92,13.05,5,20.5a3.64,3.64,0,0,1-2.56,2.69l-.7.06-.69.11c-2.22-1.59-2.46-4.07-2.75-6.42-.94-7.51-3.72-14.37-7.32-21-3.37-6.18-4.4-12.55-1.32-19.18,4.93-6.25,4.93-6.25,4.3-12.69,2.33,1.56,1.74,4.13,2.11,6.31C956.46,877.9,956.87,879.14,959.12,877.8Z" fill="#1a0f0b"/><path d="M854.82,658.67A5.28,5.28,0,0,0,853.3,654c-1.66-1.59-3.18-3.72-1.45-5.64,1.48-1.65,3.5.44,5.3.8,10,2,9.21,11.77,13.26,18,.45.7-.56,2.82-1.44,3.78a3.32,3.32,0,0,1-4.66.32C860.63,667.46,855,665,854.82,658.67Z" fill="#110908"/><path d="M807.08,712.92c6.2-4.89-.89-5.9-2.52-8.5,9.29-1.51,17.89-.41,24.69,6.8,1.55,1.65,4,3.36,2.37,6.11-1.44,2.39-3.81,1.43-5.9.85Z" fill="#3a271c"/><path d="M803,739.78l-8.69-9.2c2.94-1.11,4.61.24,6.24,1.46s3.4,2.08,5.41,1.47c4-1.2,7.63-3.56,12.18-1.76,1.17.46,2.25-1.52,2.74-2.94,3.12,1.07,4.16,3.41,3.08,6.25-.91,2.4-3,3.54-5.81,3.27-4.48-.44-9.17,3.18-13.58-1C803.74,736.5,803.13,738.61,803,739.78Z" fill="#3d291e"/><path d="M881,651.62c2.06,0,2.85,1.61,3.73,3,2.54,4.08,4,8.68,7.15,12.52,2.74,3.33-1.31,3.71-2.84,3.29A57.87,57.87,0,0,1,877.85,666c-1.51-.77-2.14-3.84-.87-4.37C882,659.47,875.37,653.1,881,651.62Z" fill="#110908"/><path d="M795.67,775.86c3.4-6,1-12.19,1.27-18.53,3.34-.76,4.36,5.8,8.79,4.13,4,5.13,3.67,6.5-2.17,7-4.5.41-1.85,3.3-2.24,5.16s3.47,4.11.18,5.53C798.93,780.28,797.14,777.83,795.67,775.86Z" fill="#2b1a13"/><path d="M777.63,750.21a19.85,19.85,0,0,1,6,7.37c-3.74-.39-8.73-3.77-7.63,3.11l-.23.8c-.51,1-1.57,1.57-2.29,2.41l0,0a14,14,0,0,1-2.4-2.61C766.91,753.44,769,750.06,777.63,750.21Z" fill="#2b1a13"/><path d="M920.71,698.7c3.48-.53,11.63,7.24,11.11,10.28-.28,1.6-.75,3.37-3,3.55-2.44.19-10.12-10.38-9.19-12.74C919.88,699.26,920.51,698.9,920.71,698.7Z" fill="#110908"/><path d="M776,760.69a47.29,47.29,0,0,1,19.67,15.18l-7.3.91A30.93,30.93,0,0,1,776,760.67Z" fill="#2b1a13"/><path d="M915.44,758.85c1.23-4.65-4.48-9,.56-10.15,5.37-1.24,3.77,5.52,5.48,8.54,1.11,2-.92,4.49-3.24,4.57C915,761.93,915.25,759.43,915.44,758.85Z" fill="#291b13"/><path d="M964.85,728.9c-1-1.77-.4-4.25-2.43-5.6-.2-1.37-.41-2.75-.61-4.12.64-2.76,3.22-3.63,5.13-5.15a18,18,0,0,1,.54,16C966.17,730.63,965.43,730,964.85,728.9Z" fill="#110908"/><path d="M803.7,757.32c-3.08-3.12-5.91-6.33-4.33-11.21l4.74,2.4c1.36-.7,2.65-1.89,4.3-.63C810.25,752.7,807.81,755.42,803.7,757.32Z" fill="#2b1a13"/><path d="M806,716c-6.24-1-12.87-1.45-14.53-9.47,4.08,3.41,9.69,2.61,14,5.27C803.25,713.49,805.57,714.61,806,716Z" fill="#3a271c"/><path d="M776,760.67l12.36,16.11q.09.71.24,1.41c-3.55,1.31-4.27-1.86-5.66-3.67-2.89-3.78-5.1-8.14-9.47-10.62C773.26,762,774.13,761,776,760.67Z" fill="#3d291e"/><path d="M780.72,523.92c-.85,3.52-5.07,3.76-6.57,6.65-1.52-.07-3.9,1-4-1.48-.07-2.31.83-4.73,3.54-5.64A9.63,9.63,0,0,1,780.72,523.92Z" fill="#231e1c"/><path d="M941.06,643.66a28.56,28.56,0,0,1,4.2,10.88c-4.71,1.85-4.93-2.86-6.4-4.87S937.25,644.56,941.06,643.66Z" fill="#110908"/><path d="M829.94,526.72c3.48,4.35.56,8.77.16,13.17-3.35-.74-5.43-2.15-3.47-6C827.83,531.56,828.84,529.12,829.94,526.72Z" fill="#231e1c"/><path d="M912.59,731.76c-3.5-1.74-6.5-3.18-6-7.42a1.6,1.6,0,0,1,2.12-1.39C912.42,724.56,912.93,727.67,912.59,731.76Z" fill="#110908"/><path d="M919.26,618.17a2.59,2.59,0,0,1-2.73,2.73c-2.06,0-3.45-1.4-4-3.37a1.83,1.83,0,0,1,1.71-2.51C916.6,614.88,918.19,616.24,919.26,618.17Z" fill="#110908"/><path d="M674.34,538.44c-2.15-7.12-5.3-14.05-4.21-21.79A84.33,84.33,0,0,1,674.34,538.44Z" fill="#231e1c"/><path d="M959.36,687a54.76,54.76,0,0,1,3.47,14.19C960.07,696.89,956.85,692.65,959.36,687Z" fill="#110908"/><path d="M937.85,700.28c1.56,1.84,3,3.15,3.9,4.76.52.94-.68,1.75-1.69,1.72-2.3,0-3.63-1.35-3.59-3.62C936.48,702.33,937.22,701.54,937.85,700.28Z" fill="#110908"/><path d="M782.37,717.42c1.9.76,4.77,1.46,3.68,3.94s-3.71,2.55-6,.67Z" fill="#3d291e"/><path d="M720.15,785.38c3.29.11,4.77,1.3,5.87,4.47C722.56,789.74,721.05,788.61,720.15,785.38Z" fill="#35241c"/><path d="M808.41,747.88c-1.5-.24-2.62,2.09-4.3.63a10,10,0,0,1,.7-6A7.29,7.29,0,0,1,808.41,747.88Z" fill="#3d291e"/><path d="M440.15,739.8c7.17-3.93,10.29-11.81,16.51-16.68a3.54,3.54,0,0,0,1.48-3.87c-1-2.89-2.7-.65-4.11-.35-3.45.73-3-2.53-2.9-3.68.55-5.42,8.81-9.87,14.32-8,4.69,1.56,8.81-1.39,8.73-6.29,0-.86-.82-2.37.7-2.19,7.61.91,5.82-6.91,9.38-9.69,3.87-2.68,3.34-7.23,4.89-10.91,1.15-2.71,2.36-7.44,6.88-2.68a3.34,3.34,0,0,0,1.67,1.07c1.82.27.8-5.15,4.59-2,2.47,2-.24,4.61,1.11,5.55,2.73,1.92,3.16,5.74,6,7,4.75,2.17,3.72,5.39,2.46,8.91-2.35-.86-3.6-3-5.27-4.58-2.4-2.25-4.53-5.94-7.14.12-1.56,3.59-6.22,4.73-9.21,5.7-3.55,1.16-8,1-8.25,5.16a12.1,12.1,0,0,0,4.81,10.51c2.9,2.07,4.15,4,2,7.16a23.54,23.54,0,0,1-6.3,14c-2.12,2.39-2.4,4.72,2,5.37,4.86.71,6.09,5.33,6.41,8.76.6,6.56,4.47,11.95,5.22,18.47.6,5.14,5.87,6,9.38,2,2.93-3.31,6.54-5.81,10-8.51,1.41-1.1,3-1.64,4.73-.52s.78,2.89.9,4.49c.55,7.23-2.76,13.51-4.56,20.16-.72,2.68-2,5-6.36,5.36,3,1.38,5.55,1.58,7.22,3.77,3,4,7.5,3.28,8.56-1.67,1.71-8,6.95-14.49,7.42-23.23.27-5,2.66-12.1,9.1-15.12.65-.31,1.32-1.28,1.83-1.08,7,2.65,9.24-3.29,12.25-7,3.91-4.82,10.57-4.44,14.67-8.58,2.65.41,4.25,2.23,5.76,4.19-1.1,4-.74,6.93,4.29,7.89,5.42,1,8.47,5.53,11.94,9.2,1.58,1.68,2.46,3.79-1.2,4.71-7.95,2-23.76.87-31.22-2.43a26.49,26.49,0,0,0,7.09,3.7,20.28,20.28,0,0,1,6.35,3.56c3.66,2.68,5.75,5.89,4.19,10.61-.88,2.67-2.75,4.45-5.42,3.83-4.15-1-9.39-1.58-10.49-6.48-1.47-6.52-4.07-3.12-8.26-1.42,8.25,3.72,13.47,9.5,20.43,13.17,5,2.63,5.48,9.9,10,13.75,1.23,1,1.67,2.92,2.68,4.31,1.23,1.68,3.5,3.29,1.48,5.65s-4.83,1.44-6.48-.28c-4.57-4.78-10.68-6.54-16.44-9-1.3-.56-2.86-2.33-3.92-1.31-7.89,7.57-13.78-1.36-20.59-2.31-1.8-.26-3.6-2.31-5.38-.75s.84,3.19.59,4.55c-1.2,6.34,5.84,12.71-.13,18.91-.35.37-.65.38,0,.88,9.56,8-.74,14.89-1.5,22.27-.24,2.27-2,6.93-5.62,6.58-3.88-.37-5.7-4.17-6.9-7.74a21.3,21.3,0,0,1-.78-3.56c-1.15-5-.28-10.32-2.85-15L517,821.52c-.54-4-2-7.84-2.53-11.85-.11-.71-.09-1.8-.56-2-9.71-4.67-8.82-15.57-13.85-23a25.6,25.6,0,0,0-2.38-2.72c-3.62-4.85-8.56-8.44-12.68-12.83-3.3-3.52-3.87-6.46-.14-10.37-12.5-3.19-14.56-12-12.43-22.93a13.87,13.87,0,0,1,1.54-5,11.14,11.14,0,0,1,3-3.13c2.38-1.77,3.55-3.9,2.4-6.87-.65-1.67-1.54-3.4-3.57-2.85-3.08.83-7.73-.89-8.88,3.31-2.47,9-9,13.89-16.75,17.85C446.88,740.82,443.64,742.32,440.15,739.8Z" fill="#604839"/><path d="M571.68,737.12c-1.48,2.43-.29,6.89-6.69,4.72-3.09-1-9.19,4.41-9.78,9-.71,5.42-3,5.28-6.55,4.06-5.14-1.76-9.29.43-9.15,5.68,0,2.08-.89,2.32-2.06,3.09-2.76,1.81-3.52,4.39-3,7.59.85,5.33-1.53,9.79-4.3,14.06-.73,1.13-2.33,1.58-1.83,3.54,1.5,6-3.08,8.22-7.24,9.86s-4.6-1.45-5.53-5c-.67-2.52-7-.29-7.44-5.67,4.91.38,8.55-.79,5.31-6.76-.64-1.18-.5-2,.52-2.26,10.58-2.82,0-13.16,6.3-17.64.43-.31-1.72-1.78-2.71-1-3.76,3-7.87,5.75-10.77,9.44-1.74,2.21-1.87,6.2-5.81,4.18-3.56-1.82-7.43-4-8-8.73a30.54,30.54,0,0,0-4.25-10.21c-.85-1.14-.35-2.11,0-3.32,1.54-4.86-1.57-9.24-6.5-10.29-2.47-.52-5.4-1.72-3-5.4.92-1.42,1.58-3,2.48-4.42,1.92-3,6.44-5.05,3.13-9.92-.58-.85,1.67-2,3.19-2.31,7.62-1.79,14.52-6.54,22.87-5.4,1.17.16,2.38-.07,3.36.81a7.24,7.24,0,0,1-1.12,1.84c-2.75,2.52-2.78,2.49-1.13,6.23,1.94,4.43-4.45,14.22-9.72,14.24-6.76,0-8.33,3.15-7.43,9.22a15.08,15.08,0,0,0,5.56,9.78c2.61,2.13,5.78,4.4,7.51-1.53.48-1.63,2-6.7,6.11-2.35a1.54,1.54,0,0,0,2.42-.7c.84-7.48,9-12.69,6-21.6-1.85-5.38,6.07-5.1,7.67-9.34-2.23,9.85.22,20-3.52,29.58,2.63-.19,3.91-1.7,4.84-3.81a11.37,11.37,0,0,1,1.71-2.19c5.23,6,6.65-1.69,10.31-3.26.34,3.25-1.12,6.3,1.13,8.94,2.83-.85,2.29-3.56,2.29-5.27,0-3.63-3.43-8.65,4.54-7.7,1.12.13.93-1.64.22-2.2-4.36-3.45-1.11-7.48-.93-11.25a3.11,3.11,0,0,1,1.22-2.34c11.73-5,12-6.28,3.25-16l9-3.79c-.23-.63-.45-1.27-.67-1.9a57.39,57.39,0,0,1-7.45.84c-3.38,0-2.55-1.9-1.24-3.72A10.88,10.88,0,0,0,560,688c.76-2.32,1.46-5.33,4.12-5.52,6.16-.44,8.48-4.91,11.52-9.05,2.3-3.12,5.45-4.86,9.11-1.44,1.6,4.76,2.16,9-4.32,10.71-1.84.48-2.26,2.36-2.4,4.14-.31,4.16-2.19,6.23-7.5,4.07,4.21,6.57,8.44,10.46,15.91,11.44,6.79.88,11.69,5.9,14.24,12.34,1.9,4.83-6.82,18.69-12,18.21C582.28,732.25,577.09,734.63,571.68,737.12Z" fill="#755b49"/><path d="M561.28,688.5c-1.37,3.31-.52,8.35-6.45,8.09,0-1-.48-2.21,0-2.8,4.3-5.73,3.71-8-3.21-11.4-.58-3-2.88-1.24-4.32-1.34-2.63-.19-4.89-.3-4-3.87.49-.55,1.64-.9,1.68-1.27.58-6.33.55-6.34,5.5-8.37.65-2.64-7.92-5.21-.06-7.9-1.28-.44-2.88-.23-3.62-1.77a2.73,2.73,0,0,1,0-2c.46-.86,1.76-1.8,1.61-2.3-2.77-9.32,6.4-15.15,7.07-23.78.3-3.8-4.52-4.54-2.45-7.79,1.17-2.48,2.85-.75,4.35-.52-.33-4.81-.84-9.4,6.45-9.68,2.46-.09,1.78-3.45,1.82-5.58.08-4-.76-8.28,3.34-11.08,1.64-2.91,5.4.46,7.06-2.36-1.1-1.79-2.6-3.65.93-4.5,1.07-4.6,5.17-5.61,8.71-7.43,4-2.07,7.85-4.52,11.76-6.81,3.13,2.15,4.13,4.56,1.21,7.71-1.88,2-2,3.45-.46,6.58,2.32,4.8-5,7.83-6.74,8-5.44.43-2.6,3.31-1.85,4.53,1.08,1.77,1.12,7.15,5.58,2.83l0,0c1.5-.09,3.12,0,3.83,1.44,1.15,2.35-1,1.89-2.2,2.35-.41.16-.51,1.1-.75,1.68,4.67,1.37,2.82,8.23,7.88,9.21,2.15.42,4.87.47,5,3.15.17,3.32-3.06.67-4.37,1.87s-3.12,2.48-3.15,4.58c0,3,2.82,2.79,4.6,3.75,2.1,2.23,1.54,4.07-.83,5.64-4.31,1.17-7.21.47-10.58-3.46-2.85-3.33-8.54-3.52-13.48-1.94-6.2,2-9,7.54-14,12.33,3.88-1.82,6.81-3.1,10.06-2.88,2.22.14,5.67-.93,5.68,2.68,0,3.23-1.39,6.3-5.84,5.53a4.07,4.07,0,0,0-3.44.71c4.39,5.79,5.58,11.84-.92,17.08-2.78,2.24-5.41,1.71-7.77-1.46,2,5.52,2.07,10.46-2.62,14.43C559.37,682.82,561.69,685.8,561.28,688.5Z" fill="#987b64"/><path d="M543.63,677.47c1.65,4.62,5.25.87,7.85,1.64,1.06.31,3-1.13,3.5.78.63,2.66-2.09,1.84-3.39,2.5-2.42.21-4.93.92-7.25.54-4.27-.69-5.34-1.58-4.36,4.52.82,5,1.13,11.54-1.13,17.2a10.12,10.12,0,0,1-4.75-5.94c-1.23-4.37-3.23-2.61-6.43.7,3.05-8.89-.85-8.66-6.78-5.77,3.87-4.76,3.87-4.76,10.93-2.62-3.21-4.47-6-8.63-3.53-14,.67-1.47-.64-2.27-1.88-3.3-4.7-3.92-4.79-10.23-7.45-15.24.08-7.08.54-7.43,7.38-6.62,3.68.44,6.76-4.32,10.8-1.35.06.44.14.89.24,1.32,1.18,5.27,4.19,1.42,6.47,1.31s6.57-1.74,3,3.37h0c-.42,2-1.08,4.31-2.92,4.78-5.71,1.46-2.69,8.19-6.93,10.6-1.1.62.66,1.85,1.78,2.38C540.57,675.08,543.49,674.25,543.63,677.47Z" fill="#6e523e"/><path d="M514.22,714.87c-7.69,1.83-16.24.59-22.83,6.54-1,.91-2.54-.77-3.4-2,.21-1.31,1.69-3,0-3.88-3.4-1.8-8.29-2.31-5.62-8.14-4.78-2.13-3.91-5-1.26-8.32s5.69-5.64,9.86-2.42c1.32-2-3.67-10.14,4.4-4.09,1.19.89,2.39-.14,2.69-1.43,2.81-12.14,6.54-3.3,10-.46-7.94,4.4-8.11,4.68-3.32,11.82,2,3,.08,6.8,2.63,9.38.87-2.84,1.55-6,5.78-5.8C513.75,709,517,711.57,514.22,714.87Z" fill="#4e3b31"/><path d="M569,595.15c-1.2,3.94-2.51,7.93-1.49,12.08,1.37,5.58-1.06,7.56-6.39,7.22-3.62-.24-4.92.55-1.73,3.66,3.42,3.34.55,3.34-2,3.38-3.32-3.45-6-7.87-11.5-8.22-2.34-.14-3.23-1.41-2.9-3.17.59-3-.47-4.75-2.23-7.41-2.49-3.75,3.21-4.6,5.48-6.53s3.59-.58,3.78,1.91c.22,2.94,1.22,5.18,4.45,5.68,4,.63,3.63-3,4.9-5.07C561.57,595,564.83,593.89,569,595.15Z" fill="#846652"/><path d="M537.14,650.48c-3,.33-6.42-.35-7.37,4a1.77,1.77,0,0,1-2.95.76c-6.67-8.32-5.87.72-7.86,3.25-6,1.86-7.27-.2-6.11-9.73-2.21-.89-3.49,2.31-6.69,1.47,5.07-4.1,11.66-6.64,8.79-14.42-.38-1,.57-2.35,1.8-2.86s2.24.3,3.19,1.13c8.9,7.87,8.91,7.86,16.6,8.59-.6,3-3.41,1.7-5.91,2.26Z" fill="#846652"/><path d="M546.88,656.48c.53-2-.07-4.09-2.1-2.14-3.42,3.3-6.84,2.06-10.45,1.6-.89-2.92,2.74-2.28,3-4.14,9.21-3,9.21-3,4.73-15.59,3.16-.46,3.47,4,7.09,3.7,1.28-1.91-2.52-7.21,3.58-6.75,1.27.09,1.23-1.8.51-2.17-3.79-2-4.83-6.69-8.85-8.45-3.33-1.46-4.8-4.18-4.44-8.13,2.56,5.8,10.53,1.85,13,7.6,2.5,1.88,2.41,6.66,8.08,5.78-4.38,1.28-6.31,2.34-4.67,6.66,1.54,4-3.87,5.6-5,9.06-.9,2.64-2.43,4,.2,7.25C554.6,654.55,548.63,654.58,546.88,656.48Z" fill="#846652"/><path d="M513.14,706.11c-2.8,1.67-4.26,4.29-5.17,7.48-2.82-1.87-6.42-3-3.65-7.57,1.26-2.07-1.31-2.63-2.27-3.83-1.4-1.77-5.82-2.35-3-5.89,2.26-2.79,3.18-8.21,9-5.59,1.34,1.71,3.58,2.79,3.79,5.29C512.83,699.3,515.42,702.4,513.14,706.11Z" fill="#2a2019"/><path d="M562,587.17a6.79,6.79,0,0,1-.2,2.09c-1.2,2.76-3.72,3.43-6.39,3.43a1.66,1.66,0,0,1-1.3-2.15c.82-3,3.49-2.72,5.77-3.1.7-.12,1.41-.18,2.12-.27Z" fill="#846652"/><path d="M543.83,626.67l3.5,5.62C543.52,631.89,541.89,630.28,543.83,626.67Z" fill="#846652"/><path d="M576.94,588.29c-1.56,1.25-1,2.92-.93,4.5-2.28-.77-5-1.06-2.59-4.66C575,585.81,575.9,585,576.94,588.29Z" fill="#846652"/><path d="M399.35,851.86c-3.53-1.15-9,.15-4.6-7.41,2.19-3.76-.77-10.4,2.83-15.36.75-1-1.35-3.39-3.1-4.45-3.3-3.31-4.27-11.9-.85-16.8,4.61-6.63,5.21-15.53,12.19-20.75a2,2,0,0,0,.63-2.61c-3.75-4.83-1.18-9,1.09-13.34,1-1.95-.52-5.24,2.71-6.06,3.45-.87,4.08,2.83,6.18,4.33-.41-2.14-1.16-5.35,1.49-5.43,8-.22,10.12-6.42,13.58-11.47a5.19,5.19,0,0,1,2.49-1.46c2.16-.7,4.73-.29,5.4-3.75.59-3.08,3.57-4.54,6.57-5.07,2.73-.49,5.61-.78,5.14,3.64-.26,2.48,1.36,4.62,2.18,6.83,2.37,6.38-2.82,10.59-4.15,15.87-.32,1.27-2.56,2.6-1.35,3.87,2.88,3,1.35,6.48-5.12,9.69,1.79,2.14,4.38,3.83,4.47,6.87-1.49,4.18,3.25,14.36,8.26,17.09a22.91,22.91,0,0,1,6.35,4.81c3.87,4.31,7.09,8.72,4.51,15-.62,1.51-1.14,3.51.53,4.71s3.43,0,4.61-1.12c4.36-4,10.53-6.62,11.51-13.43.67-4.7,7.19-5.71,7.22-9.37,0-3.46-5.09-5.81-6.28-9.78-.62-2.09.71-3.12,2.21-4.07a8.76,8.76,0,0,1,13,4.09c2.38,5.52,8.05,7.49,12.21,11.06,3.33,2.85,5.77,5.36,2.3,9.56-2.11-1.2-4.15-2.52-6.33-3.58-2.62-1.28-5.57-4.07-6.55,1.84-.67,4-5.34,3.71-8,5.6-10,7-19.24,15-29.76,21.24-5,3-11,3.31-16.16,6.16-3.24,1.78-4.83-1.58-5.45-4.84-1.52-8-13.9-14.66-22-12-1.93.63-3.71,2-2.23,3.45,5.64,5.61-1.69,6.41-3.36,8.94-2,3.08-4.61,6.5-9.57,4.24C401.05,847.16,399.6,848.86,399.35,851.86Z" fill="#1a1516"/><path d="M518.83,824.18c4.51,4.32,4,10.17,4.86,15.59-4.71,11.47-.65,20.88,7.36,29.08,4.26,4.36,6.76,9.26,7,15.35-.24-3.32,1.14-6,3.14-8.41,2.89-3.53,5.56-5.66,8.73-.11,1.58,2.79,4.54,3.41,8,3,.91-4.29-3.48-9.31.94-12.9,3-2.48,7-1,11.19-.59-1.22-6,1.46-11.35,2.32-17,1-6.72,4.54-1.82,7.27-.59a100.66,100.66,0,0,1-.22-13.08c-3,3.72-5.41,3-7.08-.58-.91-2-.9-4.25-1.73-6.28s-1.05-3.89,1-5.17,3,.77,4.28,1.72c2.73,2.08,5.84,2.09,9,2.05,2-2.83-2.77-6.9,1.38-8.51,3.19-1.24,4.45,3.19,7.33,4.15,2-.74,1-5.07,4.67-4.12,3.28.85,8.41,7.9,8.58,12l-2.93.31a14.57,14.57,0,0,0-2.33-1.56c.79.51,1.57,1,2.33,1.56-2.46.34-4.33,10.15-7.59.28-1-3-4.12-.53-6.29-.1s-3.83,1.2-3.22,3.8c2.11,9.07,1.42,18.62,6.05,27.38,1.49,2.81,2.69,7.87-2,11.92-2.26,2-2.57,7.61-2.11,12.67-3.8-6.68-13.23-1-16.88-8.46-.26-.53-4.81-.13-5.12.68-1.22,3.18-5,5.48-3.84,9.43.35,1.25.81,2.23-.33,3.2-4.67,3.38-8.67,7.17-9.56,13.3-.21,1.43-.92,3.32-3.24,2.93l-1.65-1.27c-3-4.45-9.61-.62-12.79-5.7-1.43-2.29-3.56-4.38-5-6.81l-.55-4.32c-10.11-3.15-11.24-12.82-15-20.5-.81-1.64.1-3.86-1.48-5.37-2.54-1.6-3.54-4-3.81-6.88-2.29-4.48-5.78-8.7-3.24-14.27a9.94,9.94,0,0,1,5.65-2.16c6.78.89,4.29-5.39,6.39-8.12C519.4,829.22,519.14,826.7,518.83,824.18Z" fill="#35211a"/><path d="M513.52,817.53c1.65-9.51-8.11-9.74-12.24-14.55-1.44-1.67-5-2-4.29-5,1.37-5.8-3.13-4.14-5.71-4.73s-4.62.68-6.33,2.52c3.17,1.26,1.09,6.07,4.67,6.94,6.82,1.67,5.43,3.5.9,7.06-2.45,1.92-5,4-6,8.46-1.77,7.67-9.7,11.93-16.43,15.58-2.66,1.43-5.26-2.39-4.61-6.21,2.05-12,1-13.87-10.8-20-2.12-1.1-2.68-3.18-3.47-5.27-.92-2.43-1.54-5.29-3.94-6.8-5-3.15-4-5.08,1.08-6.45,3-.91,4.77,1.2,6,3,3.38,5,7.16,9.09,13.39,9.37.25,1.6,1.56.05.73.56-.27.17-.3,0-.46-.19a2.87,2.87,0,0,1-.65-1.26c-1-5.08,7.25-4.58,6-9.2-1.55-5.69,3.43-5.79,5.81-8.37,4.76-5.13,8.41-3.15,13.27,2.3-3-5.18-2.78-7.36,2.26-6.67,2.27.32,4,1.78,6,2.57,5.51,3.64,6.77,9.48,8.19,15.31.62,2.57.43,5.32,4,6.8,5.8,2.39,8.72,12.29,6.06,18.26A4.44,4.44,0,0,1,513.52,817.53Z" fill="#312521"/><path d="M518.23,831.62c.44,7.65-1.46,10.07-6.39,8.12l-.18-1.46C517.05,839.16,514.17,832,518.23,831.62Z" fill="#291815"/><path d="M503.65,833.4c1.16.37,2.51.87,2.32,2.25-.23,1.65-1.84,2-3.27,2.29-1.41-.72-4-.65-3.88-2.42C499,832.65,503,836.35,503.65,833.4Z" fill="#291815"/><path d="M606.82,829.68c-.88-5.7-7-6.86-9.68-11.71-1.77,2.88.84,6.4-2.92,8.41-1.8-3.31-5-5.4-8.11-8.31-1.26,3.81,5.49,8.18.13,9.54-4.33,1.1-11.2,2.75-14-6.36-1.45,5.88,2.84,9,1.6,12.9-.09.28,1.43,1.53,2.16,1.49,2.63-.15.9-2.84,2.41-4.28,4.9,5.43,1.86,12.27,3.28,18.18.45,1.87-1.75,2.81-3.41.86a30.42,30.42,0,0,0-3.81-4.44c1.33,6.72-5.1,12.23-2.1,19.27.94,2.23-.26,4.9-3.94,2.13a8.48,8.48,0,0,0-8.66-.59c-2.73,1.36-.76,4.35-.79,6.63,0,2.67,4.25,6.55.6,7.49s-9.2.78-11.77-4.19a31.84,31.84,0,0,1-1.4-4.12c-3.12,4.47-9.4,6.76-5.47,13.55a1.83,1.83,0,0,1-1.42,2.75,2,2,0,0,1-2.33-1.26c-.37-.89-1.14-1.82-1.06-2.67.82-9.41-6.11-14.47-11.59-20.25-1.8-1.91-3.1-3.64-2.59-6.33.17-.92.56-2.39.12-2.75-7.55-6.15-.75-10.77,1.61-15.85-.36,4.47,3,6.9,5.88,10.6,1.67-5,4.53-8.66,6-13.46,3.26-10.36,4-10.14-3.69-17.63,6.09,1,7.39-1.56,4.71-5.86-2.91-4.65.16-10.27-3.75-15.2-2.33-2.92,2.92-5,5.28-3.49,4.49,2.84,10,2.47,14.36,6,3.81,3.11,7.88,2.21,7.84-5.09,7.31,7.17,18,6.23,23.65,14.27.79,1.15,2.57,2,3.83.7,2-2.15-1.32-2.55-1.53-3.64-1.27-6.66-10.49-8.53-9.83-16.28a2.82,2.82,0,0,0-1.81-2.09c-9.62-1.49-13.7-11.74-23.87-13.58,3.69-3.28,6.26-5.9,10.81-5.24,1.9.27,3.19-.12,3,2.56-.21,3.63,5.52,8.76,9,8.45,1.59-.14,2.86-.72,3.08-2.5.29-2.29,2-4.79-.48-6.77-3-2.37-5.6-5.23-9.73-6.18-3.77-.86-7.18-2.83-9.55-8.46,12.35,5.79,24.17,6.07,36.36,3.54-4.49-3.46-7.12-9.19-14.15-10.52-7.25-1.37-7.32-2.64-2.49-8.93,4.3-2.71,5.91,3.49,9.6,2.82a13,13,0,0,1,3,.69c7.17,4.81,10.31,14.24,18.63,15.65-3.66-2.91-6.91-8.29-12.75-11-2.07-.95-3.51-2.86-1.18-5.19,2.58-2.22,4-7.3,9-3.72,1.87.83,3.85,1.56,4.06,4-.36,1-1.37,1.2-2.08,1.78,1.53,1.17,3.36,1.21,5.17,1.33A6.39,6.39,0,0,1,612,748c2,6.07,8.76,8.22,11.56,13.65-.9,3.45,3.85,3.6,3.86,6.84,0,6.39.24,6.39,6.55,7.83-3.37,3-7.81,2.42-11,4.5-.81,1.57-3.62,3.4.57,4.32l3,1.08c.9,8.54-1,10-9.49,6.6-1.62-.64-2.82-2.15-4.3-.38s.33,3.2,1.41,4.21c2.38,2.24,5.18,3.92,1.26,7.41-2,1.75,0,3.23,1.74,3.49,6.72,1,8.25,5.61,8.42,12-3.11-2-5.64-4.48-8.65-5.4-2.22-.67-4.12-5.84-7.12-1.4-2.19,3.25-3.44,7.47-1.29,10.7a7.83,7.83,0,0,1,1.05,6.71C609,832.69,607.7,830.49,606.82,829.68Z" fill="#4b3428"/><path d="M549.79,907A8.13,8.13,0,0,0,552,901.8c.85-6.2,4.11-10.08,10.55-11,.29,2.93,1.21,5.69-2,8.21-1.53,1.2-1.69,4.37-2,6.71s1.59,6.19-1.68,6.95C553.28,913.52,551,910.44,549.79,907Z" fill="#291815"/><path d="M513.24,863.05c1.45,6.26,6.81,10.56,8.39,16.82,1.07,4.22,5.73,5.74,8.14,9-3.26,3.6-5.07,3.3-7.77-1.24C517.4,879.94,513,872.37,513.24,863.05Z" fill="#291815"/><path d="M530.32,893.24l10.19,9.46c2-.87-1.11-3.86,1.64-4.41s2.18,2.09,3.14,3.23a40.63,40.63,0,0,1,2.85,4.23C539.16,908.28,532.36,903.51,530.32,893.24Z" fill="#291815"/><path d="M506.19,841.9c.37,4.92,3.51,9.22,3.24,14.27C501.47,849.92,500.91,847.45,506.19,841.9Z" fill="#291815"/><path d="M970.25,577.62c0,3.35-.39,6.27,4.45,7.53,3,.79,2.58,5.36,2.53,8.27-.23,11.64,7.48,20.58,10.81,31,1.18,3.68,3.05,6.76,2.05,10.72-.61,1.54-1.08,3.48-3.06,3.53s-2.59-2-3-3.53c-1.16-4.61-3.08-9-3.63-13.79-.06,1.1.69,2.33-.47,3.14-1.37,1-2.23-.14-2.85-1.11-2-3.06-2.85-6.59-4.38-9.84-6.46-13.2-5.79-28.5-12.49-41.63-1.37-3.42-3.34-6.72-2.42-10.65,3-3.75,5.38-4,6.37,1.37.75,4.06,2.1,7.73,5.7,10.19A5.12,5.12,0,0,1,970.25,577.62Z" fill="#2f2018"/><path d="M1000,795.11l-2.44,7.2c-6-2.24-4-7.25-3.55-11.31s1.54-8-.3-12c-1.52-4.22-1.76-8.69-2.55-13.06a5.43,5.43,0,0,1-.18-1.33c-.27.76.21,1.46.19,2.23,0,2.86.75,5.75-.6,8.49-2.66,1.93-4.07-.44-5.82-1.67a5.79,5.79,0,0,1-1-4.22c.89-2.64,1.76-5.29,1.09-8.14a25.72,25.72,0,0,1-.14-6.38,13.71,13.71,0,0,1,1.35-4c1.92-2.41,3.4-5,2.38-8.22-.25-1.45-.45-2.9-.62-4.37-1.78-8.25,1.16-16.94-2.49-25a10.55,10.55,0,0,1-.41-6.26c1.39-1.91,2.78-3.91,4.29-.09a199,199,0,0,0,5.29,31.42c1.78,11.37,3.64,22.71,3.47,34.3C997.83,780.25,1000.34,787.57,1000,795.11Z" fill="#1a0f0b"/><path d="M979.55,704.25c-3.18,6.31-2.11,12.1,2.22,17.48a3.37,3.37,0,0,1-4.54.54c-2.57-10.38-6.5-20.63-3-31.25C980,697.26,980,697.26,979.55,704.25Z" fill="#1a0f0b"/><path d="M983.71,678.94l4.53-.54a40.78,40.78,0,0,1,.55,16.06l-2.5,5.3Z" fill="#1a0f0b"/><path d="M971.4,680.66c2.24-1.1,5.54-1.46,3.77-5.34.44-.41-.4-3.11,1-1.24,2.2,2.89,1.44,6.68.49,10.13-.56,1.25-1.12,2.51-2,4.53C973.5,685.69,971.39,683.68,971.4,680.66Z" fill="#1a0f0b"/><path d="M601.93,742.2c-1.51-.07-4-5.22-4.29.8-.1,2.41-1.43,1.85-2.82,1.53a6.54,6.54,0,0,1-2.67-1.34,26.33,26.33,0,0,0-5.95-4.92c-1.15,2.47,1.06,4.94-.13,7.3-4.44,1.1-5.41-4.76-9.38-4.6-2.87.24-3.72-2.08-5-3.85,3.79-5.17,8.41-7.21,15.17-6,3.66.67,9.58.65,7.44-6.69-.49-1.69.22-4,1.74-4.42,6.37-1.68,3.79-5.06,1.38-7.65-3.59-3.87-6-9.63-13.37-8.19-4,.77-14.56-8.79-15.77-13a2.32,2.32,0,0,1,3.73-2.61c4.19,3.67,5,1.22,4.06-2.5-.88-3.4,1.14-5,3.36-5.32,5.31-.87,6.78-2.78,3.27-7.25l1.72-1.07c1.62-3.8,1.35-9.54,8.69-4.6,4.78,3.22,14.9-3.92,15-9.56,0-1.69-1.47-2.39-2.5-3.34-2.74-2.52-3.35-5.24.22-9.4a12.63,12.63,0,0,1-8.58,1.85c-3.68-.44-4.93-2.88-4.58-6.15s2.23-4.78,5.5-4.21c2,.34,3.81.82,5.53-.59,2.91-.57,2.64-2.64,2.28-4.75-.08-3.14,2-2.26,3.36-1.49,2.71,1.55,5.2,3.46,8.08,5.43,1.65-5.71-5.38-5-6-9.45,4.36,1.15,7.73,3.46,12.15,4.88-2.94-4.88-5.3-10.26-9-14.5-4.07-4.7-3-9.16-1.61-14,.88-3.11,4.27-5.53,1.18-9.64-1.22-1.63,1.29-3.76,4.16-2.51s6,1.9,7.49-1.67c1.3-3.1-2-4.54-3.66-6.27-1.31-1.34-3.25-2-3.84-4.1-.39-1.38-3.55-2.11-.2-4.33,2.52-1.66,2.66-.91,3.86,1,.91,1.4,2.64,3.7,4.61,1.68,1.38-1.42.54-3.76-.54-5.42-1.84-2.84-5.12-4.1-8-4.77-5.8-1.33-6.13-3.94-2.89-7.92,3-3.61,3-5.62-2.38-5.49-3.11.07-3.08-1.33-2-3.64,4.33-9,3.74-18.58,4.33-28.21.37-6.07,4.83-11.89,7.46-17.82l.83.6a4.57,4.57,0,0,1,.61,4.16c-4,11.22.47,21.07,5.07,30.89.52,1.1,1.7,2.56,1.15,3.31-4.57,6.23,1.75,12.23.21,18.33-.3,1.18-.61,2.74.28,3.5,6.43,5.54,4.84,12.92,4.89,19.94.15.94.3,1.88.44,2.82-.28,3.7-2.07,5-6,5.71s-10,1.85-6.46,8.88c.55,1.1,0,2.43-.72,3.43-2.7,3.86-3.8,7,2.64,8,1.63.26,1.41,2.12,1.42,3.65,0,5.4.67,10.6,3.26,15.63,4.51,8.73,2,12.37-7.52,12.05-7.11-.25-7.14-.16-5.23,6.59,1.43,5.06,5.21,9.41,4.21,15,2.68,1.21,5.79-2.63,7.43,1.23,1.4,3.28.24,5.91-2.19,8.49-4.85,5.14-8.17,8.27-10.79,8.85,3.45,4,5.91,8.11,0,12.23,4-.66,6.09-7,11.31-2.36,5.39,4.81,5.79,9.42,0,16.74a8.75,8.75,0,0,1-7.35-.39c-2.68-1.43-4.65.27-6.66,1.56-1.83,1.18-4,.83-5.52,1.33,3.37.12,5.83.58,3.55,5.45s-3.59,10.12-10.78,9.67c-2.72-.17-3.5,2.8-5.6,4.5,3.89,1.36,7.33.77,10.63,1.31,2.78.45,4.84,1.53,2.66,4.8C606.73,741.29,603.79,740.58,601.93,742.2Z" fill="#684e3c"/><path d="M622.59,503.41c1-5.17,5.76-5.44,9.47-7.06l.26.24c-.74,5.48-3.77,8-9.4,7.07Z" fill="#684e3c"/><path d="M595.15,603.67c-1.47-.7-3.63-1.17-2.44-3.42.82-1.56,2.79-2.51,4.31-1.25,3.77,3.09-5,1.61-1.89,4.7Z" fill="#987b64"/><path d="M610,521.26c-2.59-1.81-7.33-3-2.22-7.13A11,11,0,0,1,610,521.26Z" fill="#624f43"/><path d="M847.05,533.42l-10-9a30.21,30.21,0,0,0-6.88-12.53c-2.68-2.79-5.41-5.68-10-3.82a3.39,3.39,0,0,1-2.67-.16c-11.48-7.05-23.94-3.2-36-2.92-3.53.08-7.1-.28-10.75.15-5.45.65-7.22,4.76-10.48,7.48-1.25,1-1.32,2.44-.12,3.82,1,1.16,3.15,2.48.32,3.86-1.76.85-3.36.2-4.39-1.49-1.57-2.59-3.58-4.57-6.72-5.16-2-.36-4.11-.62-5.57.81-1.71,1.69-.92,3.54.76,5,2.17,1.88.2,2.79-.86,4-1.35,1.55-2.64,1.88-4.35.48-4-3.29-8.78-5.15-13.57-7-.88-.34-2.23-.95-2.34-1.6-1.61-9.53-11.15-10.83-16.82-16.1,9-4.65,12.63-3.54,16.6,5.06,2.2,4.75,13.06,6.09,15.76,1.57,2.95-4.95,6.18-6.18,11-3.06,3.49,4.21,6.07,1.27,8.72-1.08,3.69-.18,7.62,1,10.21-3.3,1.15-1.89,3.4-.79,5.26.08a19,19,0,0,0,13.5,1.06c10.47-3.09,21.36.16,31.79-2.38,3.78-.92,4,4.16,7.27,3.55,4,.24,6.52,1.6,6.51,6.3a13.18,13.18,0,0,0,2.57,7.25l1.4-.1c2.48,5.63,2.29,12.87,10,15.35C848.65,530,847.34,532.08,847.05,533.42Z" fill="#2f2b2b"/><path d="M835.83,514.25c-2.61-2.55-6.18-4.39-4.58-9.27,1.17-3.54-3.31-2.48-4.5-4.28,5.2-1,10,1,15,1.93,2.08.39,4.82,1.13,4.6,3.76a5.3,5.3,0,0,1-5.34,4.75C838.54,511.26,835.89,510.49,835.83,514.25Z" fill="#51382a"/><path d="M758.72,501.69c.39,3.93-2.63,5-5.42,5.48-3.22.57-2.83-2.43-3.3-4.4C753,502.74,755.51,499.63,758.72,501.69Z" fill="#231e1c"/><path d="M622.92,503.66c4.2-1,7-3.73,9.4-7.07a34.37,34.37,0,0,1,5.75-.72c2.27.09,4.7-2.9,6.65-.24,2.49,3.38-1.75,3.51-3,5.1-1.6,2-.24,2.34,1.47,3.43,5.32,3.41,9.72,7.66,8.15,14.91-2.4-2.42-3.77-6.12-8.62-5-2.93.66-4.08-1.94-4.47-4.59-.49-3.3-2.47-5.3-5.8-5.52-3.53-.23-5.53,2.45-6.46,5.08-2,5.52-3.63,11.34,2.83,15.53A4.23,4.23,0,0,1,631,529.4c-1.19,6.61,5.88,13.83-1.47,20.06,5.38,4.62.9,12.37,5.07,16.87,3.16,3.4,4.45,7.31,6.24,11.19-3,1.2-4.94,3.27-5.2,6.61-2.22-1.52-1.93-3.63-1.44-5.84,1-4.35,0-7.93-3.74-10.88-2.28-1.78-3.94-4.17-1.74-7.5,1.42-2.15.87-4.87-.54-6.87-2-2.87-3-5.13.18-8,1.47-1.32,1-3.93-.65-5.22-4.55-3.54-2.55-9.72-5.15-13.26C616.55,518.35,623.43,511.23,622.92,503.66Z" fill="#32261d"/><path d="M657.13,553.61c-3.31-6.65-6.75-13.24-9.86-20-1-2.13.3-4.28,1.88-5.89,2.46-2.5,2.92-5.41,2.18-8.65,3.78,3.65,3.82,9.35,3.83,13.21C655.18,539.56,658.41,546.39,657.13,553.61Z" fill="#32261d"/><path d="M945.8,518.51c1.58,5.65,7.73,8.86,8.2,15.1,4.1,4.89,7,10,3.32,16.45-1.16,2.29-.14,5.28-2.37,7.22-2.68-4.8-2.27-10.2-3.15-15.36-.7-4.08,0-8.71-4.24-11.55C945.25,526.67,943.51,522.88,945.8,518.51Z" fill="#51382a"/><path d="M498.7,781.15l-9.27-1.35c2.87,1.87,2.22,4.5,1.58,7.5-3.77-1.35-5-6.79-10.12-6.45-1.32,1.75,2,2.34,1.36,3.91-6.88-1.06-9.8,1.74-7.82,7.51.54,1.56.45,2-1.53,2.87-7.9,3.49-7.8,3.72-.37,10.33-8.38-3.44-16.84-2.24-20.46-11.07-.9-2.2-3.77-3.61-5.74-5.38-1.36-3.82-5.63-4.88-8.4-8,2.86-1.5,6.49.64,8-2.9.44-1.07,3.34.43,3-2-.3-2-2.21-.15-2.95-.83-2.22-2-.38-6.31-.2-6.38,6.18-2.28.25-5.54.64-8.09,2.18-2,3.49,1.25,5.38.63,1.61-6.2-2.88-11.74-2.93-18-3.18,1.08-8.59-.36-8.08,7.17.21,3-4.28.66-6.36,1.75-2.48-2.19-8.27,1.21-8.42-4.91,1.81-2.51,5.41-2.62,7.15-5.22l7.06-2.39c3.5-.36,7.12-.25,10.08-2.62,3.87-1.41,7.88-2.37,11.78-3.65,4.64,1.16,4.58,3.72,1.87,6.77s-2.06,5.1,1.59,7.36c2.28-4.32,1.92-10.61,8.28-11.9.76,6.25-2.3,13.18,4.32,18.37,3.18,2.49,8.37,1.33,10.06,5.93-3.74.66-7.21,3.52-3.56,6,3.91,2.69,4.88,8,10.14,9.34C496.41,775.86,497.39,779.16,498.7,781.15Z" fill="#42342d"/><path d="M433.09,742.19c1,5.8-4.33,3.72-6.71,5.31-3.81,1.07-7.22,2.28-9.87,5.87s-7.3,5.27-11.82,6.36c-2.86.26-3.05-5.67-7-2.92-3.16,1.47-5.18,4.27-7.77,6.4-2.12,1.74-4.73,2.7-4.91-1.46-.19-4.69-6.65-4-6.84-8.42,5.07,1.6,7.32-3.42,11.17-4.72.31-.11.56-1.61.43-1.67-8.08-4.12,1.22-5.35,1.67-5.66a52.64,52.64,0,0,1,18.33-8h0c-.63,7,4.67,6.74,8.51,5.63C424.21,737.23,428.2,741.11,433.09,742.19Z" fill="#5e493f"/><path d="M378.2,753.33c2.82,3.3,10.74,2.4,7.86,11.2,4.63-3.33,6.56-8.43,11.66-9.19,4.28,3.1,3.81,12.5-1.72,15.09-4.09,1.92-3.6,3.78-3.17,7,.48,3.55-1.14,5.6-5.17,4.6-2-1.51-2-3.72-2.17-5.89-.13-1.89,0-3.83-1.08-5.69-3,.89-2.7,5.46-6.36,5.22-3.25-2.64-.11-7.94-4.29-10.2q1.53-6,3.05-12A10.93,10.93,0,0,1,378.2,753.33Z" fill="#46362e"/><path d="M409.8,733.31c2.35-5.6,7.59-2.75,11.53-3.73-3.48,2.31-6.13,7-11.52,3.73Z" fill="#5e493f"/><path d="M387.61,781.48c4.22-.31,4.54-2.36,3.26-5.93-.84-2.31-3.33-5.88,3-5.57,3.91.19,6.49-10.77,3.81-14.64,4.57-3,6.06-.72,6.38,3.61,3.91,9.15,1,21.94-7.77,24.12-1.64.82-3.1,1.73-2.95,3.69.54,7-3,12.51-6.27,18.16-1,1.75-1.95,3.51,0,5.21,5,4.32,3.95,10,3.54,15.51-.23,3.26-2,6.64.63,9.72-2.61,12.16-2.59,12.12-14.63,6.59-5.53-2.55-12,.53-17.45-2.8a19.37,19.37,0,0,0,1-3.46c.61-5.85-2.79-13.88,8.82-13.18,2.12.13,1.27-5.18-.27-7.51-2.64-4-4.94-7,2.93-5.71,1.85.29,4-1.37,6.05-2.14-1.11-2.08-3.51-1.36-5.15-2.52,5.19-2.13,4.42-6,3.2-10.08C377.49,788.2,382.4,784.71,387.61,781.48Z" fill="#5a4438"/><path d="M391.29,835.36c-3.45-1.36-3.53-3.91-3.05-7.13,1-6.52,4.54-13.77-4.88-17.85-1.75-.76.28-3.34,1.21-5,3.51-6.19,8.17-11.79,6.41-20-.58-2.73,3.86-4.88,6.9-4.76,3.69.15,4-1.77,4.26-4.32.51-5.8,2.42-11.45,2-17.36,5.25-3.47,12.13-4.46,14.64-11.94,1.31-3.91,4.9,1.58,7.64.49,1,4.25,7.76-.76,8,4.82-4.88,1.92-3.57,4.71-.72,7.4-2.82,2.8-3.91-3.75-6.15-.67-2.4,3.31,3.83,2.53,2.71,6-4.34-1.12-9.26-2-12.83,1.28-1.7,1.54,2.37,3.16,2.59,6.11a40.15,40.15,0,0,1-5.24-2.26c-2.17-1.32-3-.95-3.81,1.27-.43,1.15-2.4,1.69-3,2.84-1.13,2.34-4.12,4.5-.7,7.59s2.13,5.41-1.43,7.72c-2.67,1.73-4.69,3.56-4.12,8.17.37,3-4.83,6.51-6.3,10.57-1.93,5.35-3,10.75-.92,16.32C396.74,829.18,391,831.4,391.29,835.36Z" fill="#46362e"/><path d="M358.72,776.13a17,17,0,0,1-7.79,8.27c-.24,0-.48,0-.72.08-1.51.29-2.72-1.32-1.9-1.64,5.07-2,0-9.1,5.5-10.43C356.61,771.74,358.4,773.18,358.72,776.13Z" fill="#403a32"/><path d="M373.76,765.44c8,.36,2.14,7,4.54,9.88,1.57,2.66.23,4.2-2.11,5.35a2.77,2.77,0,0,1-2.14-.5c.15-4.81,1.78-9.77-1.46-14.25A8.46,8.46,0,0,0,373.76,765.44Z" fill="#211714"/><path d="M375.43,780c1.76-1.07,3.06-2.42,2.87-4.66.85-1.42,1.67-2.87,2.57-4.26,1.08-1.67.81-5.18,3.72-4.31,1.39.42,2.47,3.44,2.79,5.43.49,3,.2,6.19.23,9.3-2.93,5.25-8.18,8.44-11.82,13.07l-2.66.69c-1.91.39-3.68,3.64-5.45,1.51-2-2.39.78-4.79,1.75-7.12C370.1,785.6,373.52,783.26,375.43,780Z" fill="#211714"/><path d="M375.43,780c.45,4.72-3.49,6.75-6,9.65-2.43-5,2.1-6.78,4.62-9.46C374.51,780.12,375,780.06,375.43,780Z" fill="#211714"/><path d="M607.44,738.64c1.33-1.79.57-2.63-1.38-2.69-3.88-.1-7.77-.12-11.65-.16-1.18,0-2.63.4-3.06-1.15a2.33,2.33,0,0,1,1.78-2.77c3.77-1.21,4.29-8.91,10.93-5,1.54.91,5.16-3.67,4.5-4.63-2.91-4.22,1.89-3.94,3-5.84-1.85-3-6.06-1-8.62-4.33,5.47.07,10.32,0,13.64-4.74,1.19-1.7,3-.16,3.52,1.85,1.74,2.75,4.43,2.35,7.14,2.26a5.25,5.25,0,0,1,5.27,3.18c1.1,2.62-1.3,3-2.91,4s-2.09,2.56-.39,4.09c5.26,3.22-.12,2.49-1.25,3.37a.74.74,0,0,0-.16.65c.06.2.3.35.46.52,2.86,6.27-2.67,8-6,10.91-.42.45-.87.87-1.29,1.29-1.86,3,1.9,2.92,2.56,4.54a3.9,3.9,0,0,1,.39,3,4.73,4.73,0,0,1-3,2.69c-.48.58-3.2,0-1.2,1.82,1.56,1.45,4.25.89,5.86,2.57l3.3,2.54c.67,2.28,1,4.4-2.37,4.67l-2.9.32c-5-3.48-11.35-5.8-12-13.19a6.65,6.65,0,0,1,.33-3.56c.55-4.6-3-.26-3.87-1.71C606.36,741.83,606.29,740.32,607.44,738.64Z" fill="#553d2f"/><path d="M620.73,738.48c1.87-4.13,8-5.49,7.49-11.18,2.38,1.23,4.11,2.26,3.38,5.85-1.5,7.38-.51,8.07,6.72,6.79,8.4-1.48,9.6,0,7.29,8.84-4.46-1.85-9.57-1.68-13.78-4.31C628.48,741.84,624,741.2,620.73,738.48Z" fill="#4b3428"/><path d="M630.55,757.78c2-.19,3.85-.45,4.94-2.43s1.32-5,5-3.48c3.22,1.38,8.19.53,8.23,6,0,2.67,3.76,3.29,2.79,6.79-2.61-.37-4.18-2.57-6.19-3.86s-2.49-.4-2.47,1.48C637.93,762.9,632.46,765.14,630.55,757.78Z" fill="#3b281f"/><path d="M630.55,757.78c2.62,5.46,8.38,2.42,12.27,4.45.33,1.88,1,4-1.15,5.13-1.16.61-2.14-.65-2.81-1.69-3.45-3.33-10.13,2.29-12.37-4.39l2.37-4.67Z" fill="#4b3428"/><path d="M620.73,738.48c4.37.77,9.52.14,11.1,6,.13,1,.25,1.91.38,2.87l-.88.53c-1.52.37-3.06-.55-4.67,1-1.9,1.82-3.35.71-3.41-1.88l-.36-2.88c-2.46-1.21-3.83-2.83-2.16-5.6Z" fill="#3b281f"/><path d="M625.56,754.07c-2.35.19-4.77.88-6.88-.82-1.37-1.09-4.34-1.21-3.55-3.7,1-3.19,3.48-1.09,5.38-.76,2.62.92,5.63.66,8,2.49,0,.32-.08.64-.13,1A3.1,3.1,0,0,0,625.56,754.07Z" fill="#3b281f"/><path d="M632.21,747.34c1.86.79,3.91,1.82,2.33,4.12s-3.85,2.7-6.2.77l0-.06c1-1.79,1.78-3.77,3.78-4.79Z" fill="#3b281f"/><path d="M623.55,785.09c.06,2.06-.75,2.71-2.46,1.31-1.25-1-3.44-1.77-3-3.66.56-2.45,3.16-1.49,4.9-2A3.85,3.85,0,0,1,623.55,785.09Z" fill="#251610"/><path d="M627.53,709.78c1.32-5.06,5.56-10.15-1.65-14.68-2.79-1.74-3.47-1.67-4.67,1-1.82,4-5.09,3.69-8.92,2.67.39-2.67,2.45-3.73,4-5,3.12-2.51,3.92-4.55-.69-5.92-2-.59-3.45-1.49-2.18-3.44.94-1.43,1.87-4.48,4-3.42,5.43,2.69,5-.42,4.8-4-.08-1.57.8-2.55,2.65-2.78,3.77-.46,4.1-3.82,3.16-6-2-4.53-3,.48-4.4,1-3,1.19-4.3-1.57-4-2.6,2.12-7.18-4-12-5-18.27-.77-4.83-1.51-8.05,5.19-5.8a5.45,5.45,0,0,0,3.5-.42c2.45-1.06,6,3.61,6.89-.16.73-3,1.18-7.93-2.13-10-5.54-3.48,1-11-5.42-13.71,7.43-6.32-1.78-4.39-3.2-6.32a12.21,12.21,0,0,0-.91-1.11c-3.91-4.28,7.22-5.07,2-11.39-4.24-5.16,3.95-7,7.54-7.7s5.73-2.57,8-4.87c2,1.14,5.12,1.84,4.11,5s-3.76,1.06-5.75,1.18c-4.13.25-7.63.31-6.21,6.54.89,3.9-1.59,7.83-5.84,10.93,8.94,1.56,10.31,7.76,12,14.3,1.22,4.59-1.59,9.9,2.93,13.9,1.7,1.51.73,3.92-.88,5.14-5.56,4.21-2,6.51,1.49,9.34,2.57,2.11,9,5.3-.92,6.09-2.64.21-3.76,2.3-.71,4.26,1.84,1.18,3.66,2.37,5.52,3.5,2.18,1.31,4.65,1.34,1.21,5.16-4.93,5.48,2.65,7.87,5,11.54-2.49,4.52-2.51,8.83-.06,13.58,2.09,4.06-2.52,11.37-7.14,12.22-1.92.35-3.87.5-5.81.74C629.54,712.48,629.54,712.48,627.53,709.78Z" fill="#553d2f"/><path d="M961.06,855.48c-.07-2.11-.18-4.2-2.22-5.54-3-9.89-2-20.6-6.61-30.08,2.29-1.28,4.41,2.92,4.93.88,1-3.76.93-8.07-1.83-11.59L953,790.55c4.68,6.91,4.37,16.12,6.43,24.61,2.33,9.59,3,19.54,6.83,28.85a16.84,16.84,0,0,1-.82,14.74c-2.11,3.87-2.65-.32-3.9-.84C961.39,857.1,961.23,856.29,961.06,855.48Z" fill="#1a0f0b"/><path d="M969.65,889.68c-4.68.12-1.6,5.92-5.12,6.89-2.25-3.32-2.85-6.65-1.19-10.57,3.23-7.58,3.11-15.68,3.07-23.73.47-.8.79-2.09,1.45-2.29,1.25-.4,1.17,1,1.28,1.75C970.45,871,974,880.28,969.65,889.68Z" fill="#1a0f0b"/><path d="M980.09,868.08c4.22,1.75,1.66,5.79,2.93,8.54a93.78,93.78,0,0,1-5,23.74c-2.61-1.66-1.7-4.54-2.42-6.85Z" fill="#1a0f0b"/><path d="M964.85,728.9l2.63,1.11c-.58,13.23-4.51,26.36-1.08,39.69-1.7.88-2.15-.35-2.62-1.53l-6.06-12a5.87,5.87,0,0,1,1.39-.16c1.72.63,2.68.47,2.59-1.78-.17-4.34.65-8.87-.31-13C960.21,736.15,966.77,733.78,964.85,728.9Z" fill="#1a0f0b"/><path d="M627.53,709.78c2.33,2.31,5.17-1.85,7.49.57-.94,2.2-.23,3.57,2.09,4.2,4.51,1.23,4.81,4.46,3.91,8.23-1.82,1.23-3-.87-4.6-.87-2.48-.27-5.3-3.4-7.25.85-6.74-4.78.35-4.94,2.44-6.84-1-2.76-3.16-3.29-5.66-3-3.05.36-5.26-.39-5.89-3.71A12.25,12.25,0,0,0,627.53,709.78Z" fill="#4b3428"/><path d="M636.42,721.91c2-2,3,1.15,4.6.87,2,0,3.8.23,4.27,3.25A11.63,11.63,0,0,1,636.42,721.91Z" fill="#553d2f"/><path d="M990.25,853.27c-1.92,3,.23,6.61-1.18,9.72l-2.19.43-10-56.76-2.3-22.7c-.1-5.22.35-10.57-3.46-15-2.91-10.79,2.46-21.37.83-32.13,3.51-1.92,4.65.67,5.92,3,1.19,6.53-.1,13-.59,19.48a37.26,37.26,0,0,0,2.82,18.39c3.07,6.9,4.36,14.09,4.91,21.75,1,14.14,1.07,28.54,6.64,42.05A11.27,11.27,0,0,1,990.25,853.27Z" fill="#1a0f0b"/><path d="M970.26,639c2.67,4.74,3.73,9.63,1.35,14.82-1.75,3.81.24,7.53.24,11.29,0,3,2,6.09-.52,8.92-.12-18.49-9-33.84-18.07-49.09-.53-4.19-.84-8.43-1.67-12.57-.94-4.74.91-6.25,5.4-5.43-1.38,13.9,7.28,25.29,9.78,38.22.29,1.5.41,3.8,2.75,3.28,1.55-.35,1.57-2.26,1.44-3.72C970.78,642.77,970.5,640.87,970.26,639Z" fill="#1a0f0b"/><path d="M463.31,734.17c-3.93,2.82-8.67,2.22-13.08,3,7-4.42,14.86-8.19,14.6-18.4,0-1.48,1.43-2.41,3.19-2.22a36.46,36.46,0,0,1,4.34.36c2.67.61,5.79-5.27,8.23,1,2.17,5.61,2.16,9.66-4,12.15a11.24,11.24,0,0,0-1.83,1.19c-2.39-.79-2.38-4.21-5.54-4.69C466.94,728.72,469.49,735,463.31,734.17Z" fill="#46362e"/><path d="M463.31,734.17c1.37-1.37,4.3-1.67,3.07-4.78-1-2.45-.92-5.17,2.27-5.45a4.51,4.51,0,0,1,5.18,4.65,10.68,10.68,0,0,0,.89,2.7c-.33,1.49-.65,3-1,4.47-.47,4.72-8.3,6.81-4.65,13.13.72,1.25-.86,1.86-2.3,1.66-3.57-.52-5.5-3.24-7.06-5.86-1.39-2.32.68-4.09,2.62-5.21C464.93,738,465,736.28,463.31,734.17Z" fill="#1a1516"/><path d="M603.71,636.48a3.55,3.55,0,0,1-3.75,1.7c-2.57-.29-5.09-.41-5.83,2.68-.37,1.57-.41,3.91,1.35,4.5,2.39.81,5.27,1.31,7.52-.32,1.44-1,2.18-3.94,4.45-2,3,2.59-.89,3.53-1.86,5-1.55,2.28-1.32,3.76.74,5.54,2.62,2.28,10.64,4.1,1.2,8.21.13,7-5.35,6.44-10,8.15s-7.17.87-9.28-3.63c.14,3.38-.4,5.75-3.84,6.18-5-.7-11.65,4-11.37,8.7.21,3.53.43,4.47-3.44,2.51-4.6-2.32-6.82,1-8.32,4.81-1.74-3.64-4.94-6.84,1.06-10.46a6.3,6.3,0,0,0,.38-10.14c-1.66-1.44-2-3.61.1-4.91,1.54-1,4.25,0,4.46,1.2.69,4.13,3.4,4,4.86,1.75,1.93-3,6.46-6.17,2.34-10.58-.93-1-2.5-1.34-3-3-.42-1.39-1.37-2.65.42-3.78,1.15-.71,2.06-2.91,3.53-1.74,5.1,4.05,5.1-.67,6.74-3.43-5.11-.4-9.82-1.06-13.79,2.57a2,2,0,0,1-3.15-.47,4.86,4.86,0,0,1-.44-2.64c5.66-1.82,6.48-8.64,11.85-10.93,4.57-2,8.89-4.35,13.75-1.51,3,1.73,4-2.08,7.2-1.84C594.56,635.36,597.91,637,603.71,636.48Z" fill="#846652"/><path d="M558,726.8c1.55,5.35-2,6.16-3.94,8.87C553.12,731.51,556,730.08,558,726.8Z" fill="#907460"/><path d="M543.63,677.47c-1.48-1.83-3.7-.64-5.44-1.33s-4.22-.49-4.51-2.91c-.25-2.1,1.13-3.57,3.08-4.43.78-.34,2.66-.61,2.11-1.2-7.15-7.67,2.64-5.28,4.49-7.52,1.06-1.28,2.34-2.4,3.52-3.59.71.61,1.43,1.75,2.12,1.73,2.37-.06,6.19-2.25,5.48,2.43-.55,3.67-4-2.13-5.8.87,1.07,3,3.81,4.8,6.47,7.05-3,2.8-8.83-1.11-9.73,4.2-.36,2.18,3.05.33,4.11,2C548.66,677.81,545.75,676.85,543.63,677.47Z" fill="#846652"/><path d="M603.89,830a15.43,15.43,0,0,1-2.87.12c-1.51-.21-2.8-1-2.83-2.65a2.19,2.19,0,0,1,1-1.7c1.68-.75,2.64.68,3.55,1.66a8.56,8.56,0,0,1,1.12,2.57Z" fill="#4b3428"/><path d="M593.14,743.27l1.68,1.26c-2.23,2.48.09,3.58,1.67,4.33,5.26,2.52,12.47,8.87,16.06,14.87-11.81-1.86-17-11-23.59-18.42C589.88,743.66,591.09,742.63,593.14,743.27Z" fill="#604839"/><path d="M593.14,743.27l-4.18,2-2.89.27c-2.54-3.45-3.05-7,0-11.68C586.79,738.8,593.22,738.13,593.14,743.27Z" fill="#755b49"/><path d="M607.44,738.64c.22,1.59.13,3.32,2,4.15a3.47,3.47,0,0,1,3.28,2.53,3,3,0,0,1-1.11,3.09c-.48,0-1,.06-1.44.1-1.86-.7-4.15-1-3.48-3.93a4.47,4.47,0,0,0-4.73-2.38A8.09,8.09,0,0,1,607.44,738.64Z" fill="#604839"/><path d="M606.66,744.58l3.48,3.94c-4.17,2.72-5.63-2.17-8.61-3.31Z" fill="#553d2f"/><path d="M967.66,625.5c7.85,3.43,8.11,9.77,6.59,16.8q-3.27-6.88-6.52-13.76C967.71,627.53,967.69,626.51,967.66,625.5Z" fill="#1a0f0b"/><path d="M983.05,664.06c-2.39-5.77-4.64-11.4-2.32-18,.87-2.46-.32-5.64-.58-8.49,3.77,5.88,2,12.36,2.12,18.65C982.32,658.86,982.78,661.46,983.05,664.06Z" fill="#1a0f0b"/><path d="M981.4,675c-1.27-3.67.75-6.08,3.23-8.31C985.9,670.36,985.24,673.29,981.4,675Z" fill="#1a0f0b"/><path d="M961.48,606.4c5.1,2.85,6.87,11.83,3.09,15.93-.12.12-.84-.3-1.28-.47Q962.38,614.14,961.48,606.4Z" fill="#1a0f0b"/><path d="M973.84,947.57l-2.33,2.92q-2.14-17.15-4.28-34.29c2.94-2.17,3.1-5.25,2.76-8.46a7.77,7.77,0,0,1,3.39-7.63c.94,8.89-.33,17.74-.17,26.58.08,4.06.22,8.24,2.48,11.92C975.07,941.59,974.46,944.58,973.84,947.57Z" fill="#1a0f0b"/><path d="M991.83,915.91a6.57,6.57,0,0,0-1.31.63c-2.33.64-2,2.71-2.41,4.4l-2.49,1.81c-.81-.56-1.72-1.29-1.7-2.21.22-9-.94-18.07,2.66-26.7,2.37-5.42-1-11,.1-18.44C992.27,889.79,996.89,902.25,991.83,915.91Z" fill="#1a0f0b"/><path d="M632.15,747.38c-.8,2-.91,4.44-3.78,4.79-2.24-2-5.85-.87-7.86-3.38l2.74-1.82,2.09,1.7C627.78,745.69,627.78,745.69,632.15,747.38Z" fill="#4b3428"/><path d="M624.94,728.6c-5.38,2.23-7-3.72-10.92-2.76C618.41,723.32,621.54,725.28,624.94,728.6Z" fill="#4b3428"/><path d="M612.69,745.32l-3.28-2.53c.91-2.16,2.16-4.21,4.62-2C616.08,742.69,614.3,744.15,612.69,745.32Z" fill="#4b3428"/><path d="M620.73,738.49a9.68,9.68,0,0,0,2.16,5.6c-2.66.17-5-.94-5.65-3.31S619.27,738.89,620.73,738.49Z" fill="#4b3428"/></g><g id="frame"><rect width="1000" height="1000" fill="none"/></g></svg>