<!-- Copyright (c) 2023 Jan Stehno -->
<svg xmlns="http://www.w3.org/2000/svg" viewBox="0 0 1000 1000">
    <title>harlequinduck</title>
    <g id="harlequinduck">
        <path
            d="M887.28,796.33c-1.54-.45-1-1.81-1.25-2.8-.4-2.38-1.25-4.25-4.29-4.11-3.28.16-2-1.84-1.61-3.42,2.4-4,5-7.94,7.71-11.78a17.7,17.7,0,0,0,3.38-12.12c-.46-5.72.69-11.35,1-17,.16-2.52-.14-4.69-3-6-3.09-1.4-3.51-4.55-4.21-7.41-.41-1.65.17-3.43-1-5.59-2.64,2.79-4.67,5.75-7,8.45a33.15,33.15,0,0,1-4.66,5c-3.87,3-7.54,1.63-8.64-3.12-.38-1.64.06-3.44-1-5.32-3.9,2.1-4.14,6-5.49,9.21a219.19,219.19,0,0,0-3.63,26.36c-.16,2,.15,4.16-1.45,5.83-3.47.27-4.1-2.68-4.56-4.68-2.83-12.27-7.57-24.69,1.29-36.61a2.21,2.21,0,0,0,.42-2.39c-6.28,4.82-7.15,4.88-14.44-.26-1.93-1.36-3.25-.65-4.78.29-2.66,1.64-3.92,4.39-5.74,6.71-1.2,1.53-1.57,4-4.35,4-1.46-1.84-.44-3.6.21-5.35,1.07-2.91,2.29-5.78,3.45-8.66,1.41-3.53,2.06-6.65-.87-10-2.41-2.76-1.7-6.54-1.69-10a42.49,42.49,0,0,0-.1-6.18c-.19-1.83-.09-3.73-2-5.65-1.21,3.42-1,6.89-2.8,9.72,2.93,5,3,5.08-2.42,8.81-1.89,1.3-2.51,3.14-3.37,5-.69,1.48-.6,3.92-3.45,3.39-1.6-2.47-.72-5-.17-7.52.62-2.87,1.72-5.65,2-8.58.38-4.6-1.25-5.9-5.78-4.85-5.38,1.24-11,.38-16.38,1.45a4.86,4.86,0,0,1-2.58-.51C777.61,698,777,698,772.8,703.13a79.08,79.08,0,0,0-12,20.67c-3.21,8.06-1.43,15.84,3.11,22.73,2.46,3.74,7.51,5.41,10.31,9.28,2,2.7,4.44,5.05,2.18,8.67-4.11-1.42-5.68-4.88-7-8.44-.7-1.85-1.32-3.89-3.66-3.88-7.62.06-10.1-5.23-12.41-10.83-1-2.54-1.2-6.29-5.58-2.19-2.94,2.74-7.77.08-9.19-4.55-1.78-5.81-1.83-11.82-2-18.25-2.7.9-3.94,3-5.61,4.58-4.56,4.21-8.85,3.1-10.43-2.92a24.54,24.54,0,0,1-.49-5.63c-.1-4.31-2.17-4.91-5.88-3.34-8.1,3.4-13.53,1-17.17-7.18-1.21-2.71-.2-7.15-3.65-7.88-2.78-.59-6.16,1.08-9.17,2-4,1.28-8.07,1.18-12.09,1.4-4.76.27-7.35-3.16-6.47-7.66.29-1.5.55-3,.91-5-6.65,1.49-12.92,3.15-19.49,2.58a15.45,15.45,0,0,1-6.48-2c-3.95-2.21-5.85-4.58-2.91-9.11,1.26-2,3-4.4,1.86-7.22-10.93-1-20.66-4.22-26.82-13.9-1.6-2.51-3.43-3.4-6.06-1.34-3.53,2.75-6.19,1.45-8.38-1.8-1.08-1.59-2.12-3.2-3-4.87-2.92-5.39-6.31-9.83-12.5-12.63-7.85-3.56-9.82-9.54-8-18.25.68-3.31,2.25-6.32-3.62-7.19-4.76-.71-5.51-4.85-3.14-9.12,4.24-7.62,11.47-10.38,19.5-11.92a8.08,8.08,0,0,1,6.53,1.35,10.82,10.82,0,0,0,12.78-.23c2-1.5,3.18-3.36,2.11-5.82s-2.08-4.54.52-6.49,5.31-1.32,7.84.4a3.21,3.21,0,0,0,1.53.52c0-1.14-1.11-.81-1.68-1.07-2.56-1.14-5.16-2.81-4.5-5.64.62-2.66,3.81-1.74,6-1.93,15.71-1.39,31.43.26,47.14,0a10,10,0,0,0,3.23-.34c1.22-1.79-2.2-2.9-.84-4.54s3.5-1.45,5.36-1.93A4.89,4.89,0,0,1,676,562c8.09,2.81,16.84,3,24.82,6.61,5.83,2.66,10.37,7.68,17.22,8.52,2.39.29,2.89,2.74,2.9,5,0,1.65-.64,3.87,2,4s1.64-2,1.67-3.4c.05-2.83,2.33-3.7,4.48-4.48,2.77-1,5.8-1.38,7.92,1a8,8,0,0,0,8.49,2.71c2.17-.46,4.33-.13,4.89,2.64.63,3.15,2.8,3.12,5.27,2.36,3.89-1.19,7.78-2.39,11.59-3.81,2.68-1,4.49-2.13,3.59-5.71-.74-3,2-5,4.47-3.46,4.79,3,9.76,2.4,14.9,2a20,20,0,0,1,9.78,1.7,314.18,314.18,0,0,1,36.17,10.21c3.32,2.22,7.45,3.14,10.29,6.13a1.69,1.69,0,0,0,1.43.6c8-1.71,12.93,4.79,19.5,6.88,1,.31,1.69,1.22,2.77.51,4.21-2.78,8.58-1.4,12.82-.29,2.74.72,5.3,1.8,8.27,1.35,2.59-.4,3.44,1.37,3.56,3.47.14,2.48.72,4.12,3.81,2.91.62-.25-.07-.38.49-.1,4.71,2.35,8.84,2.71,13.48-1,2-1.58,4,1.43,4.21,3.84s.74,4.41,3.71,3.56c2.63-.76,2.55-2.77,1.71-5.05-1.49-4.08-2.69-8.27-.86-12.58.75-1.79,1.63-3.69,4.05-3.45s3.34,1.9,3.7,4.27c1.17,7.85,4.15,10.7,12.32,12.34,7.25.84,9.52,7.33,13.81,11.53.48,5.93,1.48,11.79,2.54,17.64.07,3.65,1.32,6.92,2.57,10.36,3.34,9.21,5.72,18.55,4.61,28.69a108.66,108.66,0,0,0,1,29.68,14.16,14.16,0,0,1,.07,6.11c-1.77,2.69-2.61,1.28-3.46-1.11.33,2.78,1.81,4.75,2.45,7,3.38,9.12,5.23,18.73,9.8,27.47a13.26,13.26,0,0,1,1.65,7.42,26.59,26.59,0,0,0,.21,11.37,16.54,16.54,0,0,1,.19,5.91c-.82,2.4-1.9,3.56-3.45.48-.76-1.52-1.15-3.21-1.8-4.78-.42-.95-1.08-2-.91-2.94,2-10.92-4.28-19.43-8.69-28.48a30,30,0,0,1-1.39-2.78c1.13,4.11,3.53,7.83,4.22,12.07.31,1.93,2.78,4.28-1,5.79-.91.37.37,1.43.53,2.2.63,3,3.1,5.51,2.23,8.84-3,1.24-.66,3.42-.93,5.14a2.58,2.58,0,0,1-.86,2c-2.54,1.23-5.09.91-6.65-1.21-2.79-3.8-6.34-5.06-10.9-4.4-.68.1-1.31-.42-2-.65-1.6-1-2.48-2.88-4.84-3.57,1.23,1.79,3.34,1.88,4.4,3.25,3.48,3.52,3.35,5.77-.6,8.1-3.21,1.89-6.58,2.57-10.18.57,1.45,2.56,5.54,4.75,2.89,7.77-2.48,2.82-5.92.41-8.78-.86a12.3,12.3,0,0,1-3.95-2.59c-2.85-2.91-5.83-2.86-9-.52-2.2.42-2.78-.91-2.9-2.63a13.2,13.2,0,0,0-.4-4.06c-.56-1.42-1.1-3.29-3.16-2.61-1.81.59-1.82,2.32-1.32,3.92,2.47,7.85-.31,14.76-4,21.51-3,3.06-.75,6.05.08,9.08,1,3.59,1.21,6.91-3.62,8.06a13.37,13.37,0,0,1-4.66-10.25c.71-1.08,3.28-1,2-3.31-1.89-3.46-2-6.47,2.49-8.19.55-.21.7-1.13.45-2.34-2.95.92-6.53-2-9.08,1.83C888.76,790.15,889.23,793.77,887.28,796.33Z"
            fill="#1f1c17" />
        <path
            d="M944.8,764.22c1.59,0,3.39.42,4.72-.16,4.11-1.82,6.62.43,8.28,3.25,1.77,3,4.14,3.36,7.09,3.14,4.22,4.09,2.2,9.7,3.66,14.49a47.83,47.83,0,0,1,1,6c.22,4.33,1.88,8.58.8,13-.52,1.56-.88,3.21-2.59,4-.75-.1-1-.58-1.28-1.24-.19-.48.7-1-.14-1.36a12.41,12.41,0,0,1-.22,1.45c-.21,1.14,0,2.75-1.58,2.85s-1.77-1.53-1.84-2.62a36,36,0,0,1,.61-9.17c-2.22,7.14-.84,15.28,2.08,23.3.64,11.35,4.51,22.07,6.84,33.08-4.6,9.18,1.12,17.87,1.41,26.82.06,2,.92,4,1,6.13a2.91,2.91,0,0,1-1.48,2.64c-4.77-1.12-6.16-5.11-7-7.14,3.08,6.18,4.44,14.84,7.12,23.09a6,6,0,0,0,3.59,4.05c4,3.57,3.3,9,5.71,13.26a25.12,25.12,0,0,1,3.59,10.62c1.11,8.49,2.24,17,3.28,25.45a53,53,0,0,1-1,17.5c-3.8,3.07-3.41-.41-3.68-2.34-1-7.11-1.79-14.25-2.75-21.36-.59-4.29-4.24-7.82-3.32-12.5-2.47-4.07-2.66-8.77-3.89-13.17-2.1-10.21-6.8-19.39-11.5-27.2a137.07,137.07,0,0,1,10.61,36c.1,2.77,1.09,5.35,1.79,8,.47,1.76.67,3.35-1,4.65-.36,2.18-2.4,3.77-2.28,6.11-.9.56-.14,3.06-2.44,2-2.26-5.61-.26-11.64-1.85-17.36-.53-1.92-.29-3.77-2.68-4.94-1.73-.83-1.9-3.19-2.59-5A112.1,112.1,0,0,0,957,916.35c3.24,10.3,5.69,20.31,8,30.34-.82,3.14-1.95,5.94-6.21,5.1q-.83-3-1.66-6a.51.51,0,0,0-.36,0,8.18,8.18,0,0,0-.37.93c-1.33,1.89.51,4.4-1.49,6.51-3.75-4.19-5.11-9.62-8.2-14.09-2.8,1.34-2.61,4.13-3.86,6.06-2.14,3.3-3.47,7.75-9,6.8l-1.91-2c-2.36-.9-4.67-1.94-4.49-4.92s2.41-4.17,4.92-4.71c5.33-1.14,7.83-3.76,7.18-9.47-.45-3.94,2-5.09,5.79-3.46,1.26.54,2.5,1.87,3.83.66s.21-2.59-.11-3.89a18.42,18.42,0,0,0-3.42-7c-.83-1.08-1.56-2.51-3.3-2.07a3,3,0,0,0-2.29,3.17c.52,5.38-3,9-5.61,13-2.45,3.72-5.35,3.64-7.58-.25A15,15,0,0,1,925.66,920c2.09-8.8-.07-16.81-4.34-24.38-2.83-5-8.14-8-11.91-12.28-2-2.29-3.36-4.23-3.25-7.15.16-4.33.57-8.68,2.26-12.68,1.29-3.05,1.52-5.54-1-8-1.89-1.81-2.2-4.21-2.28-6.7-.1-3.68,1.25-5.7,5.36-6.17,8.69-1,14.18-6.94,20.45-12.62-3.66-1.86-6.2-.46-8.85.27-6,1.66-8.39.68-11.28-4.8a7.28,7.28,0,0,0-3.94-3.24c-3.05-1.34-2.92-3.72-1.58-6.05s3.69-3.52,6.11-1.32c3.43,3.12,6.28-.14,9.37-.53.78-.09,1-1,.6-1.66-.65-1.23-1.72-3.21-2.8-2.8-7.53,2.81-6.73-3.52-8.51-7a8.63,8.63,0,0,1-.56-3c0-2.71.84-5.26,3.71-6,2.52-.62,1.84-2.36,2.24-3.81a14.67,14.67,0,0,1,1-1.82c3.28-5.59,3.26-5.68-1.84-9.55a1.78,1.78,0,0,1,.4-2.06c2.1-3.64,6.79-4.6,9.19-1.43,2.1,2.76,5.16,3.51,7.88,5,1.42.78,3.41,1.23,4.47,0,1.25-1.43-.45-2.79-1.28-4-1-1.52-3.14-2.25-3.47-4.35,14.86.43,16.55-.57,13-7.64Z"
            fill="#12110e" />
        <path
            d="M800.05,577.63c-5-1.66-10.1,0-15.15,0-3.5,0-7.18.69-9.69-2.74-.74-1-1.74-1.06-2.69-.08s-1.69,2-.33,3.07c3.77,2.83.66,4-1.38,5.05-5.32,2.82-11.25,4.12-17,5.94-2.71.86-5-.61-4.78-3.23.28-3.79-1.94-3.08-3.87-2.49-3.83,1.16-6.44.86-8.82-3-1.84-3-5.33-1.48-8.17-.3s-3.09,2.29-1.22,5c1.35,1.95-1.48,2.71-3.1,3-2.18.42-4.49.27-4.78-2.61-.12-1.13.59-2.31.7-3.49.16-1.64-.42-3.71-2-3.75-8.34-.19-12.86-8.14-20-9.54-8.11-1.58-15.82-5.33-24.33-4.87a34.7,34.7,0,0,0-4.8.91c.22.46.31,1,.64,1.28,1.22.93,3.48,1.46,3.07,3.15-.52,2.18-2.92,1.47-4.56,1.42-10.5-.32-21,.17-31.52-.78-7.47-.66-15.08,1.4-23.09.67,1,3.2,2.11,5.49,5.7,5.38a4.07,4.07,0,0,1,3.64,1.76c.21.31-.26,1.4-.72,1.68a4.4,4.4,0,0,1-5-.07c-1.24-.85-1.83-2.45-3.81-2.41-3,0-5.51,2.66-3.82,4.29,2.85,2.75,2.46,5.74.45,7.79-2.43,2.49-5.77,5-9.76,4-2.68-.68-6.37,1.29-8.1-3.22-.52-1.37-4.88,0-7.5.55-7.74,1.64-13.07,6.2-16.9,12.65-1.12,1.88,3.12,6.59,5.68,5.83,6.21-1.82,4.35,1.28,3.76,4.67-.76,4.38-3,8.59-.28,13.46a18.12,18.12,0,0,0,10,8.41c2.72,1,4.77,2.09,6.06,5.1,1.74,4.09,4.55,7.75,7,11.55,1.84,2.89,3.77,3.91,6.56.72,3.05-3.49,5.6-1.71,7.53,1.37,4.19,6.67,9.43,11.69,18.09,12.11,2.85.13,4.7,3.1,7.72,3.16-9.2,4.39-18.65,7-29.08,5-5.68-1.11-9.37-4.56-9.31-10.35,0-2.12-.81-2.28-2.41-2.25a45.43,45.43,0,0,0-5.84.08c-5.25.8-9.09-1.68-12.76-4.78-1.9-1.61-2.24-3.24-.94-5.43,1.91-3.21,3.6-6.54,5.4-9.86-3.38-1.37-6.13,1.05-9.13.63-4.08,1.06-5.13-2.5-6.67-4.62a95.54,95.54,0,0,1-6-9.7,3.94,3.94,0,0,0-2.61-2.3c-4.39.48-8.76,1-13.16,1.42a8,8,0,0,1-5.44-1.57c-2.94-2-3.71-3.88-.77-6.55,1.22-1.09,2.74-2.19,3-4.4a74.52,74.52,0,0,1-19-4.44,18.31,18.31,0,0,1-3.89-1.61c-5.89-3.84-5.74-6.71.38-10,2-1.06,3.95-2.25,6.6-3.78-6.88-2.93-13.36-5.13-19.22-8.56-1.21-.7-2.53-1.26-3.66-2.07-2.66-1.9-5.33-4.65-4.9-7.56.46-3.12,4.58-2.38,7.2-2.87,18.44-3.4,36.93-6.48,55.64-8.15,11.62-1,23.24-2.06,34.93-2,1.56,0,3.55.48,4.37-1.16,1-2-1.64-2.16-2.45-3.3-.48-.68-1.37-2-.75-2,3.13.12.91-4.75,4.54-4.14a71.07,71.07,0,0,0,11.11.8c.92,0,4.63,2,2.61-2.28-.64-1.34,1.73-1.12,2.79-1.2,7-.51,13.78.72,20.5,2.33,2.55.61,4.46.86,3.68-2.55-.32-1.38-.29-1.7,1.31-1.7a83.63,83.63,0,0,1,22.85,3.44c2.43.68,2.34.77,4.31-1.41.82-.91,2-.14,2.86.06,13.57,3.07,27,7.41,40.71,9,11.59,1.33,21.62,6.83,32.93,8.49,15.14,2.23,30.17,5.15,45.26,7.72C796.5,575.79,798.66,575.73,800.05,577.63Z"
            fill="#2f261d" />
        <path
            d="M910.72,802.56c2.27,1,2,2.94,2.17,4.85.17,2.64,1.65,3,3.44,1.34,1.24-1.14,2.27-2.73,3.58-.48s4.29,3.83,4.15,7c0,.24-1.29.77-1.76.59-2.38-.89-4.18.7-6,1.46-2.39,1-4.23,2.39-5.35-1.3a2,2,0,0,0-3.05-1.08,4.69,4.69,0,0,0-2.4,3.81c-.2,1.37.36,2.5,2,2.44,2.85-.1,4,1.37,4.75,3.84,1.36,4.38,4.66,6.29,9,4.19,3.82-1.86,7.29-1.69,11.68-1a32.62,32.62,0,0,1-21.24,15.68c-5.09,1.26-7.72,6.41-3.74,10s3.44,6.41,1.54,10.72a29.05,29.05,0,0,0-1.92,13.65c.05.68,0,1.83.35,2,4.11,1.51,5.15,5.88,8.17,8.23,10.31,8,13.13,18.4,11.05,30.6-.7,4.08-1.17,8.22,1.22,12.06.67,1.08,1.32,2,2.84,1.91,1.33-.1,1.44-1.11,2-2,2.57-4.5,6.58-8.32,5.57-14.32-.28-1.68,1.89-3.36,3.76-4,2.36-.77,2.75,1.71,3.83,2.87,2.8,3,3.64,7,5.11,10.63.59,1.49.8,2.66-.79,3.53-1.37.74-2.65,1.61-4.32.23-1.32-1.08-2.3-3.87-4.62-2.22-2,1.42-1,3.69-.5,5.74.76,3.17-1.1,5.23-3.71,6.7a10.34,10.34,0,0,1-3,1c-2.43.47-5.24.51-6,3.42-.7,2.73,2.36,3.5,3.49,5.32-3.78,6.47-4.14,13.86-5.91,20.88-.47,1.89.45,4.77-2.22,5.14s-4.5-2-5.14-4.4c-1.76-6.64-3.27-13.33-4.9-20.06-1.76.43-1.46,2.18-2.33,3.11-2,2.15-3.79,2.83-4.9-.65-1.57-4.92-3.55-9.87-3.27-15.06.39-7.11-1.58-14-1.47-21,0-1.06,0-2.18-1.07-2.72s-2,.33-2.69,1.09c-3.67,4.13-8.69,7.13-11,12.35-.44,1-.76,2.06-2.1,1.83-1.07-.18-.95-1.29-1.16-2.08a17.66,17.66,0,0,1-.52-2c-2.06-12.58-7.24-16.16-20.05-13.84a34,34,0,0,0-3.54,1c-1.67.52-3.58,1.26-4.62-.7-.82-1.53.39-2.84,1.42-4.1a37.66,37.66,0,0,0,5.22-8.78l3.43-4c2.23-1.29,3.35-3.49,4.74-5.46a117,117,0,0,1,12.31-15.39c6.28-6.34,6.76-15.12,7.78-23.41.66-5.39-1-10.91.85-16.26,2-1.36,4.65,1.76,6.67-1.11,2.72-3.86,2.13-6-3.1-8.92-1-2.19.15-3.6,1.83-4.8a13.36,13.36,0,0,0,4-4.79c-1.26.44-1.35,1.59-2,2.32-1,1.14-2,2-3.6,1.58s-1.91-1.86-2.13-3.25c-.57-3.52.66-7.24-1.22-10.62a2.74,2.74,0,0,1-.06-2.12c3.74-1.61,4.54,1.28,5.37,3.57.65,1.81,1.18,3.2,3.52,2.56,3-2.28,3.54-4.59,2-8.42-1-2.5-5.26-7,1.16-9.18a4,4,0,0,1,1.86,2.26,6.66,6.66,0,0,1,.45,3C905.1,801.36,907.13,802.68,910.72,802.56Z"
            fill="#1a1512" />
        <path
            d="M776.41,764.48a11.43,11.43,0,0,0-4.41-8.73c-6.31-5.4-13.11-10.59-14-20.16a26.52,26.52,0,0,1,2-13.45c3.74-8.35,7.78-16.67,14.8-23.08,2.63-2.4,5.32-5.12,8.46-.43a2.85,2.85,0,0,0,2.22,1.17c5.72-1.37,11.69-.1,17.33-1.49,2-.49,3.94-2.51,5.69-.5a8.41,8.41,0,0,1,1.81,7.76c-1.24,5-3.3,9.83-2.9,15.12,2.09,2.7-.36,4.86-.91,7.24-.74,3.15-4,6.28-.59,9.53s10.48,4,14.26,1.88c3.78-3.94,5-9.81,10.56-12.52,2.53-1.23,3.68-1.44,5.49,1,3.44,4.59,7.68,4.39,11.32-.25,1-1.29,2.07-2.1,3.51-1.36s.32,2.2.06,3.22c-1.11,4.29-4.63,7.52-5.52,12-.39,2-1.48,4.16-.78,6,3.06,8.15,1.11,17.48,6.3,25.09,2.14,2.49,1.14,5.47,1.34,8.25.37,5.05,1.2,5.72,6.42,4.68a4.55,4.55,0,0,1,1.56-.14c3.11,2,.28,2.62-.86,3.64-5.73,3.24-6.87,2.89-10.33-2.46q-3.18-4.92-8.59-1.91c-5.48,3.06-7.93,1.53-8.3-4.63-.17-2.82,1.74-7-.81-8.16-2.9-1.38-4.43,3-6.75,4.66-3.27,2.33-6.31,4.41-9-.61-1.25-1.63-2.81-2.12-4.53-.84-2.85,2.11-4.78.63-6.86-1.27-8.13-7.39-8.14-16.94-8-25.84-2.21,4,.12,11-7,13.57C785.8,765.41,781.57,766.87,776.41,764.48Z"
            fill="#161513" />
        <path
            d="M872.43,597.16c3,.66,5,.35,4.61-3.46-.45-5.1,2.56-9.36,4.3-13.88a27.36,27.36,0,0,0,2-6.2c1.56-.54,2.44-2,3.78-2.77,1.56-1,2.6-.6,3.22,1.13s-.25,4.51,2.3,4.63c2.89.14,6.08,1.21,8.76-.65,2-1.41,3.94-1.52,6.4-1.26,3.49.36,4-1.51,1.75-4a3.26,3.26,0,0,1,.23-2.89c1.74-3.91.4-6.18-3.81-7-.92-3.38,1.39-3.86,3.89-3.88,3.15,0,5.24,1.64,5.12,4.71a24.12,24.12,0,0,0,1.8,10c1,2.6,2.42,5.13,5.24,5.14s2.91-3,3.46-5.14a9.79,9.79,0,0,1,.41-1.5c1.94-4.45,3-11.11,1.18-15.66-1.68-4.29-.4-8.53-1.05-12.74-.3-1.91-.38-3.81-3-4.19-10.61-1.5-9.17-9.2-7-16.67a17,17,0,0,1,3.36-5.81,30.27,30.27,0,0,1,16.67.17c2.81.82,4.8.44,6.36-2a9.08,9.08,0,0,1,2.9-3c4.35-2.56,6.58-5.62,3.29-10.52-.91-1.36-.21-3,.46-4.46a6.31,6.31,0,0,0,.86-3.94c-1.08-5.87-1-5.88,5.11-6.65.53-.06,1.06,0,1.59-.11,0-.13,0-.3-.09-.38-1.62-1.67-5-3.24-3.13-5.68a8.69,8.69,0,0,1,8.34-3.38c2.73.56,5.57,1.1,7.95,2.75,2,2.07,1.93,4.83,2.69,7.32-.06,3.06,3.06,4.07,4.3,6.31,1.71,4.89-.49,9.43-1.46,14-1.5,7-.25,14.3-2,21.3a4.41,4.41,0,0,1-6,1.5c-2.81-7.05-1.79-14.3-1.75-22.23-.51,12.56-.74,24.41.63,36.26a18.76,18.76,0,0,1-1,10.63c-2.34,4.52-1.62,9.39-1.75,14.17-.07,2.56.36,5.17-.59,7.66a2.2,2.2,0,0,1-1.3,1.11c-3.93-.78-4-4.28-5.19-7-.41-2-2.27-3.54-2.09-5.38-1.31,4.33,1.58,9.2-.41,13.91-1.38.85-2-.15-2.34-1.09-1.37-3.73-4.29-5.35-7.92-4.27-3.86,1.15-2.92,4.55-2.37,7.47a5.45,5.45,0,0,1-.27,2.49c2.94-.93,6.08-1.94,5.1,2.93-.17.84.47,1.63.93,2.37.79,1.25,1.29,2.64,0,3.76-1.51,1.29-3,.6-4.22-.61-1.48-1.5-3.13-1.34-4.91-.84a4.17,4.17,0,0,1-1.49-.13A9.35,9.35,0,0,1,932,585.1c-1.39-2.61-2.86-2.35-5-.61-2.78,2.29-5.11,4.76-5.92,8.32-1.67,3.22-4.12,3.36-7,1.69a7.3,7.3,0,0,0-1.86-1c-5.31-1.27-8-4.15-5.77-10.26-4.13,1.17-7.62-1.32-10.94-.1-4.18,1.53-7.57,4-8.11,9.15-.6,5.83-6.89,9.33-12.61,7.5C873.56,599.44,871.78,599.22,872.43,597.16Z"
            fill="#453e38" />
        <path
            d="M969.18,478.18c-2.07-.38-4.64-.15-6.1-1.28-3.89-3-5.67,1.81-8.76,2-1.41.1,1.27,2.65,2.39,3.89.92,1,3.87.26,3.14,2.49-.64,2-2.66.57-4.16.5a24.34,24.34,0,0,0-4.66.71c-1.87.31-1.88,1.24-.89,2.5.64.82,2,2.12,1.79,2.39-3.29,4.71-1.62,9.22,0,13.95.41,1.23-1.54,2.78-2.86,4-5.43,5.16-10.58,9.79-19.26,6.3-3-1.21-7-.19-10.54-.19-2.64-.21-2.12-2.12-2.15-3.74,2.32-5.44,3.31-6.13,9.1-5.26,4.72.7,9.11-.6,13.57-1.6a3.7,3.7,0,0,0,3-3.75,3.39,3.39,0,0,0-2.31-3.64,14.52,14.52,0,0,1-5.45-4c-7.34-1.44-7.8-6.73-6.59-12.22s-1.77-11.5,3.26-16.09c.86-.79-.21-1.1-.65-1.53-1.13-1.13-1.45-2.65-.52-3.77,2.76-3.34,2.27-7.21,2-10.91-.94-12.55,2-24.9,1.73-37.4-.05-1.68.73-3.26.48-4.59-.22,1.45-.47,3.27-.82,5.07a2.4,2.4,0,0,1-1,1.06c-2.48-.45-1.77-3.14-3.2-4.33-2.92-5.57-1.86-11.81-3.15-17.66,1.14-1.16,1.43-2.83,2.47-4.06a9.6,9.6,0,0,0,1.73-5.82c.77-6.21,6.5-7.78,10.83-10.21,3.11-1.75,7.74,1.12,9.92,4.95,1.25,2.22,1.71,4.91,4,6.52a2.33,2.33,0,0,1-.4,2.88c-4.71,3.94-7.8,9.37-12.88,13-1.81,1.28-3.8,1.43-5.72,1.71,3.7-.25,5.35,2.25,5.73,5.1.44,3.33,2.19,4.35,5.2,4.61,2,.17,3.65,1.28,5.46,2,1.16.45,2.71,2,3.62.22.71-1.38,1-3.23-.84-4.64-5.23-4-5.19-4,.5-6.72,3.9-1.84,6.06-.7,6.75,4,.55,3.75.53,7.61,4.53,9.79,1.35,3-2.61,5.1-1.3,8.06,3.3,10.31,4.27,21.18,8.19,31.35,1.43,3.72.48,7.82.62,11.75a5.81,5.81,0,0,1-1,3.27,2.54,2.54,0,0,1-2.34.5c-4.11-3.32-3.74-7.86-3.57-12.22-1.41,2.64-1.49,2.66-.87,5.12.89,3.52,1.6,7.08,2.41,10.62C970,474.62,971,476.53,969.18,478.18Z"
            fill="#39332d" />
        <path
            d="M967.15,415c-5.2-.33-4.6-4.48-5.24-7.71-.33-1.66.12-3.42-.79-5s-3.59-2.28-3.69-1.23c-.49,4.91-4.13.43-5.49,2.07a1.19,1.19,0,0,0,1.12,1.8c5.85.13,5.67,4.45,5.84,8.18.1,2.29-1.87,2.07-3.42,1.36-3.82-1.73-7.43-3.86-11.92-3.91-1.79,0-2.53-1.2-2.39-3.58.19-3.1-.59-6.86-5.72-5.66-1.37.33-2.89-.13-2.9-1.46,0-2,1.58-1.19,2.72-.88,2.66.71,4.6-.4,6.63-2,5.16-4.11,9-9.38,13.55-14-3.26-3.32-4-7.54-4.49-11.86-.18-1.72-.1-3.4-2.41-4.06-3.39-1-2.46-3.35-.69-4.61,3.91-2.79,3.6-6.33,2.8-10.15-.68-4.85,0-9.63.7-14.41.5-3.6,1-7.18-.21-10.74a15,15,0,0,1,0-8.53c.88-3.63,1.7-7.27,2.68-10.88.86-3.2,3.29-5.14,6.14-6.64,3.48-1.84,5.54-1.27,6.06,3,.59,4.89,1.56,9.74,2.37,14.6,1.73,3,2.76,6.05,2,9.49-1,2.86-.48,5.82-.64,8.73-.11,2,.32,4.21-1.63,5.74-3.81-.79-3.45-4.68-5.11-6.57,7.39,18.22,9.45,38,13.76,57.34a14.2,14.2,0,0,1,.41,3.3,33.1,33.1,0,0,1-.8,8.16c-2.58,10.7-3,21.32,1.92,31.62,1,2.22.41,4.37-.52,6.47-2.17,3.54-4.18,2.77-5.37-.52-2.43-6.77-5-13.52-5.53-20.77C967.34,419.39,965.9,417.12,967.15,415Z"
            fill="#302720" />
        <path
            d="M872.43,597.16c7.2,4.29,13.28,1.32,13.79-6.74.29-4.78,8.18-10,13-8.71,1.47.4,2.85,1.53,4.57.79,1.19-.51,2.14-2.22,3.72-.94s.31,3-.17,4.26c-1.11,3-1.14,5.06,2.87,5.43a9.09,9.09,0,0,1,4.67,2.33c2.44,1.95,4.17,1.1,5.44-1.38,4.07-6.11,4.71-6.24,16-3.14l1,0c-1.77,4.18,2.13,4.7,4.35,6.07,1.82,1.12,5.11,1.18,2.94,4.43-1.93,2.89-3.93.73-5.8-.42-.41-.25-.73-.79-1.35-.42,1,1.22,3.69,1.63,2.8,3.72-.58,1.38-3,2.08-1,4.19-.13-2.12.82-3.74,2.82-4.13,1.77-.35,2.75,1.21,3.57,2.58.26.45.53.9.75,1.36.69,1.43,3.13,2.44,1.61,4.38-1.29,1.65-3.35,1.63-5.34,1.1a4.09,4.09,0,0,0-1-.05c-4.77.52-9.38.34-10.68-5.29-.7-3-5.93-4.73-2.79-8.92a6,6,0,0,0-2.09-2c-1.42-.73-2.24.23-2.87,1.41-2.41,4.5-1.58,9,.52,13.21,1.21,2.38,1.45,3.71-.56,5.75-2.29,2.34-4.62,1.05-6.86.72-1.69-.25-1.14-1.82-.67-3a3.5,3.5,0,0,0-1.39-4.56c-2-1.18-3.33.73-4.33,2-2.59,3.29-5,4-7.67.16-1.32-1.87-3.08-1.47-4.62-.34-3.26,2.38-4.08.63-3.84-2.22.28-3.56-.28-5.41-4.74-4.33-3.53.85-6.45-2.16-10-2.54s-6.64-1-9.09,2.17c-.63.81-2.15,1.8-2.42.45-1.26-6.33-8.28-3.5-11.35-7.11-2.29-2.69-7.08-.46-8.85-1.64-3.72-2.48-8.39-4.06-11-8,8,1.3,15.28,4.85,23,7C863.68,596.1,868.31,595.15,872.43,597.16Z"
            fill="#2f2923" />
        <path
            d="M918.06,511.19c.3,1.46-.42,3.18,1.18,4.31,1.38,2-.54,3.21-1.35,4.55-2.7,4.5-2.76,11.61.14,14.35a7,7,0,0,0,2.59,1.67c2.1.67,5.69-.94,6.23,1.45a26.89,26.89,0,0,1,.7,9.53c-.63,4.74.26,9.64,3.41,13.29,2.66,3.07,1.7,5.13-.68,6.9s-3.77,3.19-3.72,6.24c0,2.71-2.57,6-4.36,5.54-2.65-.62-6.22-2.74-6.72-5.74-.66-3.95-3.28-7.64-1.72-12,.65-1.83-1-3.11-3.17-3.24-2.33-.14-4.4,0-4.12,3.09-2.46,4.24-10.15,5.07-15.19,1.66-1.16-3.47-.18-4.67,3.46-3.07a7.89,7.89,0,0,0,1.46.57c2,.43,4.58,1.41,5.82-.63s-.74-4-2.47-5c-6.7-4.13-.79-7.46.58-11.08l3-8.39c2.47-3.8,5.45-7.28,7.66-11.24l-.06-.06c1-4.6,4.38-8.07,6-12.39A1.18,1.18,0,0,1,918.06,511.19Z"
            fill="#514b46" />
        <path
            d="M933.87,951.91a11.71,11.71,0,0,0,7.91-7.52c.62-1.6,1.14-3.24,1.89-4.78.66-1.37,1.47-3.07,3.3-2.82,1.56.22,1.57,2,2.15,3.23,1.92,4,3.92,7.9,5.9,11.87,1.05-1.62-.43-3.87,1.43-5.26-1.13,12.11-2.05,24.24-3.51,36.31-.5,4.13-.63,8.21-.74,12.33-.72,1.19-.69,3.2-3,2.7-2.67-.57-2.25-3.13-3.26-4.77-5.09-11.72-7-24.28-10.16-36.51A39.54,39.54,0,0,0,933.87,951.91Z"
            fill="#1a1512" />
        <path
            d="M991.6,421.17c-3.89,10.27-2,20.6-.34,30.93.27,1.69.91,3.46.65,5.08-1.68,10.38,2.3,20.2,3,30.33,2.09,7.25,1.53,8-5.52,7.4-1.48-1.72-1.16-3.8-1.26-5.8.51-3.28-1.91-5.64-2.83-8.47a35.79,35.79,0,0,1-1.11-15.53c1.87-6-.38-12.33,1.52-18.33-.11,0,.23-.28-.16-.18-3,.73-2.36-2-3.24-3.25a10.16,10.16,0,0,1-.42-2.38c-.05-1.19-.15-2.56.68-3.41,3.69-3.78,2.48-8.12,1.72-12.43-.63-3.94-.12-8.1-2.5-11.68-1.28-2.38-1-5.13-2-7.61-.53-6.53-.23-13.07-.22-19.6,0-2.73.49-5.45,4-5.63,3.72-.2,2.73,3.33,3.85,5.2.39,7.27,1.42,14.49,1.51,21.77a35.52,35.52,0,0,0-.09,5.65c.16,1.59-1,3.76,2.45,4C992.81,417.41,992.36,419.76,991.6,421.17Z"
            fill="#372f2b" />
        <path
            d="M952.21,352.81c2.54,5.67-1.61,8.95-5.64,13,5.85-1.72,6,1.29,5.69,4.68-.39,4.49,2.35,8.22,3.19,12.41-3.39.41-3.52-2.33-4.1-4.29-1.37-4.62-4.69-6.64-9.26-6.66-3.16,0-9.38,6.49-10.19,10.09-2.16-.19-1.75-2.13-2.54-3.59-.66,3.35.11,6.39.48,9.45a5.58,5.58,0,0,1-3.26,3.28c-1.62-5.11-1.71-10.38-2.06-15.68-.52-8,2.77-14.5,7.22-20.73a2.09,2.09,0,0,1,2.83.43c2.73,5,5,1.89,7-.4,1.85-2.08,3.22-2.73,5.29-.21C950,358.37,949.86,351.81,952.21,352.81Z"
            fill="#483d34" />
        <path
            d="M952.21,352.81a5.58,5.58,0,0,0-.88,1.23c-.46,1.34.46,3.29-1.77,3.8-2,.46-2.66-1.24-3.63-2.38-.44-.52-.86-1.06-1.6-2A12.4,12.4,0,0,1,941.1,357c-2.6,2.27-5.31,7.49-6.74-.74-.11-.63-1.71-1-2.62-1.52,1.43-8.07,7.28-14,11-20.91a6.51,6.51,0,0,0,1.1-2.77c2.36-.82,3.82-7.08,7.29-1.14.2-1.14,0-2.42,1.31-3.13,2.82,6.21-.43,12.36-.35,18.56C952.08,347.82,952.18,350.32,952.21,352.81Z"
            fill="#614637" />
        <path
            d="M918.06,511.19a6.39,6.39,0,0,0-1,.11.71.71,0,0,1-.33-.75c.07-.27.14-.4.23-.4,4.38-7.21,6.07-15.61,10.65-22.72.84,2,1,4.62,4.48,3.78,1.59-.38,2.92.62,4.12,1.6a7.36,7.36,0,0,0,4.16,3c3.46.77,4.13,3.56,3.9,6.31s-1.75,4.07-5.12,4.41c-5.23.54-10.32,2.23-15.69.95C920.31,506.68,919.08,508.85,918.06,511.19Z"
            fill="#b1a491" />
        <path
            d="M981.11,349.58c-.86-5-2.1-10-1-15.08,2.8-.53,1.33,2.51,2.9,2.86,1.08.95.52,2.23.65,3.35.34,2.8,1.78,4.5,4.72,4.89l2.05,14.64c3,2.23,2.78-.11,3.1-2,.36-2.12-2-4.75,1.2-6.34-.27,4.49,2.21,8.76,1.17,13.32-.78,4.76-2,9.46-2.09,14.32a7.2,7.2,0,0,0,2,5.55c-.2,2.44.89,5-.81,7.28-1.62-1.11-2.62-2.78-3.91-4.18a14.87,14.87,0,0,1-1.65-6.9c0-2-1.09.2-1.57-.29a3,3,0,0,1-1.6-1.61c-3-7.59-.54-15.14.27-22.7-.07-.69-1.18-.09-.48-.22.26-.05.33.09.32.41,0,1.94-.18,4.26-2.73,4-2-.19-1.84-2.56-2-4.21C981.31,354.32,982.07,351.89,981.11,349.58Z"
            fill="#302720" />
        <path
            d="M859.55,789c-.26-1.25,2.53-1.54,1.05-3.17-.36-1.62.69-2.63,1.8-3.46,7-5.3,10.68-12.61,13.21-20.65.69-2.19,1.19-6.11,3.65-5.45,3.21.87,1.42,4.52.62,6.7-3,8.17-3.08,16.12.89,24,0,.78-1.1,1.91,1.08,1.81,3.19-.14,4.91,1.43,4.18,4.78-1.69-3.49-3.74-4.36-6.53-1a16.09,16.09,0,0,1-2.61,2.54c-3.2,2.47-5.71,1.52-6-2.51s-.06-8.12-.06-12.6C865.76,782,865,788.31,859.55,789Z"
            fill="#554b3f" />
        <path
            d="M789.44,761.5c4.91-4.36,4.42-10.69,6.19-16.19.34-1.06-.2-2.47,2.17-3.19,0,4.39-.33,8.59.08,12.72.67,6.83,1.78,13.59,7.63,18.52,1.75,1.48,2.93,2.57,5.34.81,1.87-1.36,4.1-1,4.95,1.71-5.59.61-11.26,1.58-15.41-3.63-.14-.18-.67-.07-1-.07-2.81.05-6.26,2.58-8.21-.41-1.37-2.1-.4-5.3.15-8C791.59,762.4,791.86,760.85,789.44,761.5Z"
            fill="#2b2626" />
        <path
            d="M958.84,951.79a6.67,6.67,0,0,0,5.33-5.55A2.52,2.52,0,0,1,966,947.9c.78,3.87.45,7.77.26,11.67a8.09,8.09,0,0,1-.41,1.61c-.38,1-.79,2.08-1.17,3.12-.59,4.86-.15,9.79-1.31,14.6-.07,4.67-.06,9.33,0,14a15.69,15.69,0,0,1-.78,4.56c-.43,1.41-.79,2.76-2.68,2.52s-1.73-1.83-1.77-3.18a4.5,4.5,0,0,1,.43-2.52c1.14-5.3.22-10.63-.27-15.87C957.47,969.47,961.65,960.7,958.84,951.79Z"
            fill="#1a1512" />
        <path
            d="M909.65,570.42c1.48.31,4.46-.47,3.12,2.31-.78,1.62-1.12,6-5.35,3.44-1-.6-2.59-1.82-3.29-.64-2.89,4.85-7.79,1.38-11.48,2.88-1.78.73-3-.71-3.16-2.51a44.71,44.71,0,0,1,0-4.48c-2.85-.6-3.21,3.87-6.12,2.2l2.72-5.51c1.5-.5-.25-3.38,2.37-3.07,4.47,2.57,9.43,3.67,14.49,4.32C905.18,569.65,907.53,569.25,909.65,570.42Z"
            fill="#514b46" />
        <path
            d="M936.23,492.81c-1.53-.32-3.07-1-4.58-.89-3.53.19-4-1.89-4-4.49,0-5.86.73-10.12.66-16,0-4.64,1.42-10.23,2.85-14.56a4,4,0,0,0,1-2.86c-.53-11.63,1.64-23.35-1-34.92,1.79-1.74,0-4.54,2-6.24v0c1-.46.12-2.72,2.19-2.07,1.14,6.28-.34,12.21-1.59,18.39-1.36,6.78-.34,14-.5,21-.07,3.37.29,6.64-1.7,10-2.31,3.89,3,2.38,4.25,4.43C926,467.24,932,475.91,929,481.3c-.6,1.07,0,2.73-.15,4.09-.39,3.45.3,5.81,4.67,5.37A2.64,2.64,0,0,1,936.23,492.81Z"
            fill="#39332d" />
        <path
            d="M891.54,803.6c.07.69.13,1.37.19,2,1.51,8.11,1.23,16.3,1.35,24.47a7.1,7.1,0,0,1-1.55,5.61c-2.26,6-.18,12.22-1.1,18.26-1.43,9.32-2.39,18.69-11,25.43-3.83,3-6,7.93-9.12,11.88-1.43,1.82-1.92,4.78-5.25,4.61,5.28-7.8,10-16,17-22.59,5.73-5.46,6.66-13.15,6.84-20.06.36-13.36,2.51-26.65,1.81-40-.18-3.6-.18-7.18-1.21-10.66C890.6,802.16,891.17,802.7,891.54,803.6Z"
            fill="#1a1512" />
        <path
            d="M560.12,625.41c2.37-1.41,2.84.47,3.85,1.9,3,4.33,5,9.36,8.83,13.2a4.68,4.68,0,0,0,2.61,1.52c-5.84.67-11.46.6-16.34-3.4-2.64-2.15-3.23-4.07-1.05-7C559.32,629.94,561.72,628.2,560.12,625.41Z"
            fill="#362f22" />
        <path
            d="M888.36,565.33c-1.29.52-.74,2.47-2.3,2.78,2.74-5.94,3.5-12.64,8.92-17.58,1.88-1.7,2.9-5,5.15-7,0,.35.1.77-.07,1-2.53,3.88-4.49,7.35,1.78,10.12,2.06.91,4.46,4.39,1.92,6.46s-6.88,2-9.77-.42c-2.69-2.21-2.67-.9-2.7,1.28C891.19,563.81,890.05,564.8,888.36,565.33Z"
            fill="#cabeaf" />
        <path
            d="M891.54,803.6l-2-1.05c-1.46-1.83-2.56-3.78-2.24-6.22-.32-3.55.13-6.85,3.19-9.3.71,0,1.77.17,1.8.72.24,4.18,3.26,7.55,3.53,11.71l4.27,10.36c-.7,1.17-1.41,2.7-3,2.37-1.34-.28-1.16-1.86-1.32-3C895.41,806.58,894.92,804,891.54,803.6Z"
            fill="#12110e" />
        <path
            d="M976.69,350.59c-2.37,1.68-3.14,4.17-3.44,8.39-1.6-4.81-2.7-8.13-3.8-11.46a125.46,125.46,0,0,0,.56-13.29c0-2-.4-4.21,1.94-5.46,2.67,1.23,0,3.91,1.57,5.45Q975.1,342.4,976.69,350.59Z"
            fill="#614637" />
        <path
            d="M974.74,330.91c-3.33-6.9-1.07-14.83-4.25-21.75l-.42-4.5A57.13,57.13,0,0,1,976,324.77c-.13,2.09,1.67,4.55-1.23,6.12Z"
            fill="#302720" />
        <path
            d="M952.41,326.79v6.59c-.86-.22-1.44-.27-1.45-.39-.81-6.23-4-4-7.15-1.93,1.93-4.47,6.88-7.26,7.32-12.55Q951.76,322.65,952.41,326.79Z"
            fill="#887160" />
        <path
            d="M995.72,406.81a19.08,19.08,0,0,1-1.22,3.86c-1.54,2.78-1.25-.35-1.87-.62-1.59-1.48-1.49-3.42-1.54-5.33.42-2.72-.79-5.76,1.62-8.11a4.08,4.08,0,0,1,3.24,4.31Q995.83,403.88,995.72,406.81Z"
            fill="#39332d" />
        <path
            d="M861.66,899.94c.11,3.78-2.58,6.27-4.6,9-2.66,3.59-1.57,4.81,2.58,4.6a3.29,3.29,0,0,1-5,.13c-1.31-1.33-.41-3.17.63-4.64C857.39,906,859.52,903,861.66,899.94Z"
            fill="#1a1512" />
        <path
            d="M917,510.15c0,.38.06.77.1,1.15-1,4.69-3.89,8.51-6.32,12.53C910.91,518.44,914,514.31,917,510.15Z"
            fill="#514b46" />
        <path
            d="M975.66,359.89c5.2,2.88,2.39,7,1.91,12-1.31-4-.6-7.31-2.88-9.7C974.54,361.27,974.54,360.36,975.66,359.89Z"
            fill="#302720" />
        <path
            d="M910.82,523.89a20.41,20.41,0,0,1-7.66,11.24C904.27,530.45,907.68,527.26,910.82,523.89Z"
            fill="#514b46" />
        <path
            d="M933.07,412.87c-.68,2.08,1.68,5.06-2,6.24-.45-3.43-.91-6.86-1.36-10.3C931.76,409.45,931.27,412.05,933.07,412.87Z"
            fill="#39332d" />
        <path
            d="M880.77,786.94c-2.3-.19-2.62-2.05-3.09-3.66-1.75-6-2.29-11.95.1-18a24.91,24.91,0,0,0,1.59-8.54c-3.7,11.34-8.53,21.87-18.77,29.06a3,3,0,0,1-.93.3c-3-.49-3.88-3.23-4.08-5.25-.91-8.94-2.36-17.89-.53-26.94,1-4.79-.11-9.83,1.27-14.63.66-4.84,2.65-8.82,7.83-11.11,1.26,2.38.83,5,.9,7.44.06,1.89.62,3.48,2.35,4.32,2,1,3.38-.44,4.51-1.75,3.63-4.21,7.18-8.5,10.74-12.77.74-.88,1.13-2.13,3.26-2.41a72.76,72.76,0,0,0,.66,8.66c.59,3,.4,6.85,5.47,6.73,2.06,0,1.63,1.94,1.61,3.22-.1,9.12-.72,18.24-1.43,27.3-.33,4.25-4.43,8.27-7,12.29C884,783.24,882.27,785,880.77,786.94Z"
            fill="#776d5b" />
        <path
            d="M941.58,611.9c1.53-1.8,4.29.52,5.78-2.18-1.22-1.08-2.88-2.39-3.06-4.68-.07-.77-1.07-2.15-2.23-1.58-.81.4-2.55,1-1.5,2.68.57.89,1.41,1.92.16,2.65-1.53.88-2.16-.9-2.78-1.62-1-1.12-1.37-2.69-2.13-4.29l3.83-.6c-1.14-1.88-3-2.6-4.95-3.29,1.56-2.87,3.1-2.85,5.08-.87.89.88,1.68,2.66,3.36,1.68.59-.35,2.91-1.7.17-2.68-.6-.22-1.69.28-2,0-2.09-2.12-4.17-4.07-8.86-2.52l4.89-5.46c2-2.28,4.19-2.27,5.74.17.92,1.44,1.77,2.38,3.14,1.34s.26-2.06-.84-2.81c-2.42-1.64-1.59-3.45.12-5.33-2.87-.71-4.93,2.87-7.74.61.61-1.39,3.39-1.69,2-4.29-1.93-3.52-.55-6.85,3.08-8.19,4.24-1.55,8.53,1.46,9.56,5.84a4.47,4.47,0,0,0,.84,1.26c.68-.57,1.52,2.77,2.2-.14.31-1.31-.25-4.46,3.05-2.25,2.55,9,3.68,18.21,6.68,27.07a9.4,9.4,0,0,1-1.14,8.45c-1,1.76-3.45,1.43-4.73,2.86,5.37,5.19,5.62,12.73.58,15.7-4.52-.62-3.51-4.45-4.25-7.15s-.9.9-1.36,0c-2.6-2.33-6-3.81-7.14-7.63C946.45,612.58,942.71,614.28,941.58,611.9Z"
            fill="#3c352d" />
        <path
            d="M820.15,739.34c-1,4.54-3.65,4.16-7.25,2.72C801,737.32,801,737.4,806,725.59c.67-1.59,1.6-3.08,1.41-4.9,1.54-1.55,1.65-3.68,2.38-5.56s1.42-3.5,3.81-4.4c2-.74,7.59-2.2.9-5.11-1.1-.48-.61-1.77.28-2.57,3.68.58,4.18-4.09,7.42-4.25a31.47,31.47,0,0,1,.2,9.54c-.22,2.69,0,5.88,2,7.18,4,2.68,2.16,5.31,1.33,8.39C824.22,729.2,820.85,733.82,820.15,739.34Z"
            fill="#2a2a29" />
        <path
            d="M955.42,687.54c-5-2.78-6.68,1.86-8.78,4.25-2.74,3.12-3.49,4.25-6.64-.16-2.68-3.73-4.12-5.34,0-8.81,2-1.75,2.33-5.22-1.61-6.53-1.64-.55-3.39-1.22-3-3,1.19-5.29-3.12-5.62-6.21-6.3-7.36-1.62-7.39-1.39-5.77-8.82a23.1,23.1,0,0,0,.24-3.47,1.69,1.69,0,0,1,2.46-.27c4.91,3.5,8.39,8.63,13.84,11.57a1.93,1.93,0,0,1,.54,1.87c-2.48,4.71-.39,6,4.13,8.19,3.4,1.61,4.64,2.94,6.69-.81,1-1.82,3-2.24,5.08-2.22C958.39,678,957,682.77,955.42,687.54Z"
            fill="#362f26" />
        <path
            d="M904.32,794.28a2.14,2.14,0,0,1-1.07-2.07c1.1-3.41,3.87-6.43,2.35-10.44-.49-1.29.65-2.21,1.36-3.17,1.4-1.84,1.67-3.53-.07-5.48a4.31,4.31,0,0,1-.5-5.67c1.87-2.86,3.77-2.61,6.07-.08,2.59,2.85-.46,6.78,2.51,9.28,0,.68,0,1.37,0,2.05,4.37,3.47,1,7.59,1,11.43-.1,2.07,1.69,4.91-2.93,4.82-1.78,0-2.57,2.47-2.4,4.5-2.05,1.28-2.73-.4-3.64-1.59S906.1,794.85,904.32,794.28Z"
            fill="#2f231d" />
        <path
            d="M856.33,739.3c-.74,6.21.07,12.45-.53,18.74-.49,5.21-.71,10.88.66,16.5.95,3.89.52,8.09,3.21,11.58-5.79,3.41-8.51,2.08-8.63-4.3-.06-3.08,0-6.17.05-9.26,1-7.6,2.18-15.2,3-22.82C854.47,746.15,854.87,742.63,856.33,739.3Z"
            fill="#564d40" />
        <path
            d="M895.8,799.46c-3.57-3.42-3.62-8.26-5.33-12.43,1.1-2.57,2.58-4.17,5.63-2.3.52.31,1.48.6,1.86.36,1.27-.85,2.35-3.45,3.84-.47,1,2,.78,4.86-1.4,5.42-5.29,1.36-2.77,4-1.62,6.48.49,1.06,1.78,2,.81,3.21C898.35,801.25,897.05,799.85,895.8,799.46Z"
            fill="#2f231d" />
        <path
            d="M791.57,671.28c1.86.4,2.08,1.92,2.06,3.53,0,3.21-5.63,9.14-8.87,9.41a2.31,2.31,0,0,1-2.75-1.83C781.49,680.29,789.18,671.2,791.57,671.28Z"
            fill="#5f5648" />
        <path
            d="M848.84,716.18c0,3.6-1.84,6.46-3.91,9.24-.64.86-1.33,1.75-2.54,1.16s-1-1.75-.71-2.71q1.46-5.16,3.08-10.27c.34-1.08.58-2.69,2-2.6,1.71.11,1.78,1.83,2,3.14A11.56,11.56,0,0,1,848.84,716.18Z"
            fill="#5c5546" />
        <path
            d="M837.19,701.18c0,4.34-2.57,7.32-5.62,10-.68.6-1.61,1.21-2.31.57a2.83,2.83,0,0,1-.56-2.35c.95-4.06,3.06-7.62,5.37-11.06a2.09,2.09,0,0,1,1.74-.78C837.41,698.28,837.1,699.84,837.19,701.18Z"
            fill="#61594a" />
        <path
            d="M809.17,688.81c-.51,2-.94,3.81-2.53,5.12s-3.16,3.44-5.33,2.21c-2.52-1.41,0-3.25.41-4.87a21,21,0,0,1,1.48-3.81c.66-1.3,1-3.29,3.09-2.88C808.56,685,808.74,687.16,809.17,688.81Z"
            fill="#5d5548" />
        <path
            d="M822.18,698.8c-1.57,1.78-3,3.67-4.72,5.33-1.51,1.49-2.41.74-2.7-1.08,1.53-2.51,2.61-5.12,2.3-8.16-.13-1.31-.33-3.15,1.3-3.48,1.46-.3,2.19,1.36,2.94,2.5A6.73,6.73,0,0,1,822.18,698.8Z"
            fill="#60584b" />
        <path
            d="M944.8,764.22a23.59,23.59,0,0,1-4-1c-1.16-.51-2.91-.66-2.89-2.4,0-.42.92-.91,1.5-1.22,1.51-.79,2.73,0,3.73,1a5.07,5.07,0,0,1,1.62,3.62Z"
            fill="#12110e" />
        <path d="M964.54,852.15V871c-3.73-6.19-2.24-12.62-1.31-19Z" fill="#12110e" />
        <path d="M959.94,838c-4.31-6.34-3.51-13.46-3.18-20.51C958.7,824.19,960.25,831,959.94,838Z"
            fill="#12110e" />
        <path
            d="M904.32,794.28c2-1.82,2.56,0,3.11,1.33.69,1.64.88,3.61,3.28,3.84,0,1,0,2.08,0,3.11-5.4,2.51-6.22,2.05-6.39-3.69C904.28,797.34,904.32,795.81,904.32,794.28Z"
            fill="#1f1c17" />
        <path
            d="M916,790.13c-1.7-1.56-1.19-3.39-.53-5.12a7.32,7.32,0,0,0-.49-6.31C921.74,780.71,922.05,784.12,916,790.13Z"
            fill="#1f1c17" />
        <path
            d="M570.33,591.17c-.6,1.09-1,2.64-2,3.42-3.54,2.75-7.23,5.34-11,7.77-1.25.8-3.36,2.41-4.27-.22-.64-1.86-2.32-4.39.58-5.95,4.44-2.38,9-4.61,13.55-6.75C568.56,588.79,570,589.09,570.33,591.17Z"
            fill="#1f1c17" />
        <path d="M691.73,562.15c-2.57,1.35-5,1.38-7.43-.71C687.14,558.82,689.42,561,691.73,562.15Z"
            fill="#1f1c17" />
        <path
            d="M891.81,830.54q0-12.43-.08-24.89c3.88,2.27,1.15,5.9,1.93,8.81.41,1.51-1,3.87,1.49,4.34,2,.38,2.05-1.95,3-3.11s1.31-4.26,3.29-3,.64,3.54-.68,5.4c-1.84,2.58-6.09,3.26-6,7.3C895.94,828.25,894.93,830,891.81,830.54Z"
            fill="#1f1c17" />
        <path
            d="M891.81,830.54a7.25,7.25,0,0,0,2.93-5.17c2.63-.21,5.57.14,6,2.92.44,3-1.38,5.92-3.31,8.34-2.3,2.89-3.85-.94-5.88-.9C891.63,834,891.72,832.27,891.81,830.54Z"
            fill="#12110e" />
        <path
            d="M889.06,879.61a9.35,9.35,0,0,1-3.65,5,13.25,13.25,0,0,1-3.66,2c-1.7.54-3,4-4.48,2.13-1.81-2.23,1.57-3.65,3-5.09a43.69,43.69,0,0,1,6.09-4.79C887.42,878.09,888.71,877.83,889.06,879.61Z"
            fill="#12110e" />
        <path
            d="M881.26,895a7.4,7.4,0,0,1-.55,7.31c-.68,1.07-1.36,2.84-3.08,1.92-1.4-.75-1.2-2.39-.66-3.7A11.53,11.53,0,0,1,881.26,895Z"
            fill="#12110e" />
        <path
            d="M972.44,526.9c-.34,3.22-.7,6.44-1,9.67-.22,2.26-.29,4.5,2.58,6.29,3.63-10.66,4.49-21.62,6.1-32.43.42-2.81,0-5.72,1.1-9.27,4.58,4.67,3.86,9.61,3.09,14.57a11.15,11.15,0,0,1-.35,1.6c-1.1,4.8.29,9.82-1.39,14.57a16.41,16.41,0,0,1-.54,2.28c-.59,1.41-.59,4.14-1.47,4.17-3.87.11-1.82,3.12-2.7,4.59s-.71,3.35-2,4.64c-2.27-.16-4.31-.7-5.26-3-.11-4.08-.2-8.15-.37-12.22,0-.71.2-2-1.12-1.65-.5.14-.67,1.39-1,2.13-2.91-1.27-2.39-3-.69-4.88A8.23,8.23,0,0,0,972.44,526.9Z"
            fill="#4c453e" />
        <path
            d="M888.36,565.33a7.67,7.67,0,0,1,2.93-3.35c5.21,2.06,10.31,2.5,15.18-.88,1.59-.82,3.06-1.45,4.78,0s.51,2.79.33,4.38a10.21,10.21,0,0,1-1.93,5c-4.24.45-8.52,1.38-12.53-.94a9.44,9.44,0,0,0-5.63-1.12C889.19,568.55,888.24,567.48,888.36,565.33Z"
            fill="#413830" />
        <path
            d="M936.29,589.06c-1.54-.07-2.93,1.39-4.55.41-4.77-2.9-8.15-.32-11.42,2.73-.12-5.76,5.37-7.58,8.47-11,1.24-1.36,3.46.71,3.88,2.28C933.3,585.84,935.25,587.13,936.29,589.06Z"
            fill="#3c352d" />
        <path
            d="M977.63,468.73v-4c-.26-.64-.43-1.36.23-1.79,1.09-.71,1.6.26,1.88.95A17.39,17.39,0,0,1,981,474.25a4.59,4.59,0,0,1-2.17,2.74l-1.22,4.12c-2.62,4-1.61-1.41-2.83-1-2.08-3.47-1.25-7.69-3.09-11.21h1.67C974.82,469.53,976.35,473.28,977.63,468.73Z"
            fill="#3a3330" />
        <path
            d="M929.84,387.87c-2.9-2.74-1.87-6.35-2.19-9.64-.12-1.29,0-3.09,1.86-3,1.38.09,1.61,1.62,1.61,2.86s-.29,2.74.78,3.88C932.51,384.39,931.24,386.15,929.84,387.87Z"
            fill="#9d8e7c" />
        <path
            d="M935.25,410.82l-2.19,2.07a17,17,0,0,1,2.09-9.76C935.29,405.7,937.05,408.2,935.25,410.82Z"
            fill="#39332d" />
        <path
            d="M954.59,389.39a3.26,3.26,0,0,1,2.34,3.15,1.87,1.87,0,0,1-2.43,2,2.87,2.87,0,0,1-2.06-3.24A2.07,2.07,0,0,1,954.59,389.39Z"
            fill="#39332d" />
        <path
            d="M977.75,594.44a41.67,41.67,0,0,1-1.92-14.88,78.5,78.5,0,0,0,0-16.22c2.84-3.12,2.31-7.17,2.48-10.74.22-4.69,1.26-8.77,4.27-12.4a3.82,3.82,0,0,1,2.11-1.44c4.07.59,3.44,3.29,2.85,6l0,4c-3.84,14.85-2.61,30-2.6,45,0,2.58,1.19,4.5,2.59,6.46-.28,5.83-.76,11.63-3.5,17-1.34-1-2.43-2.35-4.32-2.37-2-4.86-.53-10-1.25-15C978.11,598.05,979,596.13,977.75,594.44Z"
            fill="#463f38" />
        <path
            d="M987.5,544.75c-.31-2.27.45-5.16-3.32-5.42-2-3.35-.26-6.62.3-9.88.83-4.87,1.25-9.77,1.76-14.67.25-2.42.45-5.21,3.23-6.62,2.42,1.95,7.92.86,6.65,6.42l-1.52,6.13-3.19-5.6c1.12,7,2.82,14-2.48,20.35l-2.54-3.13C985.89,536.94,990.08,540.55,987.5,544.75Z"
            fill="#4f4841" />
        <path
            d="M988.47,594.26c-1.87-7.25-.37-14.52-.07-21.78l3.36-19.24c1.7,5.38,5.81,10.21,3.68,16.3-2.19.13-1.21-2.4-3.64-2.92v26.57c-.41.59-.82.59-1.24,0C989.48,592.84,989.72,595,988.47,594.26Z"
            fill="#4a453e" />
        <path
            d="M990.56,593.21l1.24,0c1.75,7,4.18,14,2.87,21.43l-2.86,5C990.09,610.15,990.39,601.68,990.56,593.21Z"
            fill="#2c2822" />
        <path
            d="M991.58,655.33c-.88,0-.86,3.92-2.59.51-2-3.91-1-7.87-.59-11.84l2.4-9.27c2.41.23,2.49,1.9,2.5,3.7s-.39,3.75.32,5.57c1,2.57-1.34,4.74-.94,7.25C991,652.27,991.89,654,991.58,655.33Z"
            fill="#26211d" />
        <path d="M996.46,537.6c2.18,5,3.42,10,1.25,15.73C995,548,991.42,543.21,996.46,537.6Z"
            fill="#5f5955" />
        <path
            d="M993.62,644c-2-2.78.37-6.83-2.82-9.27.43-1.62.86-3.23,1.35-5.1,1.59,2-.18,5.67,4.23,5.72,1.39,0,.21,3.79-.25,3.77C991.15,638.89,995.05,642.73,993.62,644Z"
            fill="#312e2c" />
        <path
            d="M998.27,807.77c-2.56,9.39-4,18.85-2.46,28.6,1.4,8.89-1.52,17.38-2.82,26-1.33,8.84.62,17.63,1.79,26.27,1.26,9.29,2.38,18.67,4.29,27.9-.37.88-.51,2.27-1.14,2.53-1.18.49-.91-1.45-1.91-1.7-2.47-1.45-2.72-4-3.37-6.37.54-5.11.87-10.22-.91-15.2a26.68,26.68,0,0,0-2.71-8.77c-3.36-5.78-2.82-12.14-3.64-18.31.07-5.69.22-11.38.12-17.06,0-.85,2.11-4.73-2.11-2.26a6.18,6.18,0,0,1-.82-1.83c-.64-9.28-3.09-18.26-4.82-27.36-.25-2.49,2.15-3.52,3.11-5.33a1.28,1.28,0,0,0-.08-1c3-11.38,2.11-22.77.06-34.17.14-.83.29-1.66.63-3.55l.82,3.41c1.21,1.41,2.6,2.65,3.93,4,3,2,2.58,5.07,2.63,8,0,2.59,0,5.18.07,7.77-1.53,7.61-2.06,15.34-2.85,23-.37,3.69-.48,7.12,2.19,10.25,1.9,2.23,1.62,5.2,1.71,7.94.11,3.44-.12,6.89.82,10.74,1.08-6.38-.41-12.15-1.66-17.78-1.41-6.44-1.68-12.57.86-18.74,2.17-5.28,1.86-11.23,4.67-16.35,2.84-.29,3.7,1.52,3.85,3.72A14.79,14.79,0,0,1,998.27,807.77Z"
            fill="#0f0e0c" />
        <path
            d="M984.18,902.08c-1.95-9.24-3.83-18.5-8.5-26.93-1.38-3.73-.43-7.51,0-11.2.9-7.36,1.06-14.75,1.8-22.19.84,7.09,1.92,14.16,2.45,21.26.57,7.56,2.07,15,3.35,22.38,2.64,4.53,3.08-1,5.07-1,2.24,3.14.85,7.16,2.18,10.58a11.07,11.07,0,0,1,.24,3.09c-1.46,5.08.3,10,.7,15a10.33,10.33,0,0,1,0,5.57l1.05,8.05c-1.52,1.55-1.4,3.76-2.64,6.34-2.47-6.92-4.71-13.21-7-19.5-.72-2.41.58-4.53,1-6.77C984.33,905.22,985.48,903.7,984.18,902.08Z"
            fill="#141210" />
        <path d="M991.74,946.24" fill="#f6f6f6" />
        <path d="M977.37,374.31l-.06,8.82C976.24,380.18,973.2,377.23,977.37,374.31Z"
            fill="#302720" />
        <path
            d="M962.92,610.84c-.2,8.4-1.11,16.75,1.66,25.09,1.07,3.22-.3,7.16-.14,10.75.09,1.81-.34,5.14,3.65,3.29,1.68,1.68,1.1,3.35-.22,4.84-1.06,1.2-2.07.73-2.86-.43-2.76-3.73-4-8.13-5.57-12.34a71,71,0,0,0-.07-13.44c3.72-2.81,3.57-9.88-.27-11.68-2.44-1.15-1.24-3.56-2.57-5.53C959,611.21,961.16,612.44,962.92,610.84Z"
            fill="#3e3a34" />
        <path
            d="M987.48,799.6c-.05-3.23-.32-6.47-.08-9.67.22-2.81-.48-4.87-3.14-6.14,2.35-3.6,1.91-7.48,1.18-11.38-.75-2.76-1.49-5.52-2.24-8.28,1.48-4.93,0-9.63-1.21-14.34-.42-4.27,3.13-8.16,1.28-12.57q-2.09-8.46-4.18-16.91c-.22-12,.87-24.12-1.86-35.87a24.63,24.63,0,0,1-.65-5.92,26.13,26.13,0,0,1,1.95-9.45,7.61,7.61,0,0,0,0-4.58c-2.75-9.48-1.37-19-.59-28.56,1.1-2.16-.17-4.32,0-6.49,0-.35.16-.89.13-.9-6.38-.75-3-5.22-3.38-8.28,1.06-2.06,4.4-2,4.68-4.81L980,615c2.24-.81,3.3,0,3.33,2.27-.13,3.08-.2,6.16-.42,9.23s-.9,6,1.86,8.6c1.15,1.07,1.08,3.07.51,4.39-3.78,8.69.41,17,1,25.49,2.3,2.38.67,4.88.06,7.22-1.26,4.91-2.79,9.76-3.3,15.18,2.07-1.33,1.7-4.36,4.49-4.33-.46,10.49-.9,21-1.39,31.47-.21,4.48-1.21,8.81,1.84,13.14,1.35,1.9,1.44,5.17,1.46,8a253.42,253.42,0,0,0,3.68,38.47c.54,3.33,1.88,6.54,2.85,9.8a3.2,3.2,0,0,1,.14,2.5c-.62,2-1.25,4.69-3.53,4.59-2.69-.13-2.26-3.07-2.34-5-.14-3.19-1.05-6.37-.69-8.7a143.19,143.19,0,0,1,.45,16.76C989.83,796.14,990.49,798.69,987.48,799.6Z"
            fill="#1c1815" />
        <path
            d="M972.41,710.45a174.36,174.36,0,0,0,5.64,22.68c-.41.4,0,2.77-1.46.67s-2.72-4.59-4.06-6.9a7.77,7.77,0,0,1-3.77-7.95c.44-4.23-.78-8.53.65-12.71l0,0C972.23,706.22,972.23,706.22,972.41,710.45Z"
            fill="#2b2724" />
        <path
            d="M973.66,709.26l-4.11-8.55c-.66-14.47-1.8-28.94,1.67-43.84-2.83.65-2.18,3.14-4.17,3.77a14.14,14.14,0,0,1-2-6.26c4.14.59,2.94-2.35,3.08-4.41.32-1.49.65-3,1-4.45l1-.06c1.57,7.88,3.2,15.75,4.68,23.64.54,2.87-1.32,5.32-2.15,7.9-3,9.34,2.57,18.11,1.61,27.27C974,705.93,975.43,707.75,973.66,709.26Z"
            fill="#26211c" />
        <path
            d="M977.74,808.64a8.16,8.16,0,0,1-4,3.73l-.37-4.67q1.08-11.36,2.17-22.71c.62-.84-.31-2.22,1-2.81,0,5.75,1.21,11.33,2,17C979.08,802.21,978.08,805.47,977.74,808.64Z"
            fill="#1c1a18" />
        <path
            d="M973.74,786c-.64.78-1.15,3.22-2.26.53-.78-1.9.09-4.4-2.14-5.84a1.15,1.15,0,0,1,.08-.89l1.84-.93C971.88,781.34,975.5,782.81,973.74,786Z"
            fill="#282522" />
        <path
            d="M968.39,815.23c3,4.23,3.68-.15,5.25-1.28,0,.68.09,1.36.13,2,.7,4.35.24,8.76.73,13.15a21.78,21.78,0,0,0,2.15,7.76l-2,6.08c-1.65,2.66-2.08,1.68-2.77-.65C969.24,833.46,969.35,824.28,968.39,815.23Z"
            fill="#21201e" />
        <path
            d="M977.75,899c.27-2.07-1.45-3.39-2.09-5.13-.83-2.22.28-2.31,2-2.09l2.43,8.18-.44,2.39C978.29,901.62,978.4,900.12,977.75,899Z"
            fill="#181716" />
        <path
            d="M964.07,585c2.53.1,3.3-1.21,3.12-3.48-.15-2-.11-4-.16-6v-6.12l.75,0,7.08,38.4a23.87,23.87,0,0,1-.13,7.64c-.28,1.82-.74,3.83-3.34,3.93-2.4,1-1.48,4-4.1,5.89,0-2.37-.57-4.49.09-6.14,4.31-10.68-.34-20.53-2.79-30.56A18.18,18.18,0,0,1,964.07,585Z"
            fill="#463f36" />
        <path d="M970.46,628.62c1.28,3.84,5.62,7,2.76,12.08l-2.8-4Q970.45,632.65,970.46,628.62Z"
            fill="#5b5754" />
        <path
            d="M974.74,547.85l-.42,8.92c-1.16,1.25-.74,2.78-.83,4.22a5.34,5.34,0,0,0-.47,1.43c-.16,1.21.5,3.13-1.62,3.07s-1.55-1.92-1.52-3.15c.1-3.87-.41-7.77.32-11.62l.36-6.17C971.5,546.2,974.52,545.35,974.74,547.85Z"
            fill="#453e38" />
        <path
            d="M982.22,484.34a7,7,0,0,0,1.62,6.55c1.95,1.88,1.26,4,1.57,6a2.9,2.9,0,0,0-.2.87c-1.29,1.18-1.42,3.81-4.17,3.19l-.21-4.08c-.94-3.48.33-7.1-.72-10.57-.54-3.1,1-6.47-1.27-9.34a2,2,0,0,1,1.19-1.93C981.71,477.94,981,481.36,982.22,484.34Z"
            fill="#3e3731" />
        <path
            d="M982.24,428.37c-.32,1,0,2.22-1,3-1-4.45-4.07-8.38-3.42-13.22,2.28-1.6,3.91-1.71,4.07,1.65.1,2.22.23,4.45.35,6.67Z"
            fill="#393331" />
        <path
            d="M981.17,451.15l.75,5.59c-1.94-1.1-1.68-3.29-3-4.51-.18-2.51-.52-5,.23-7.69C981,446.52,979.13,449.41,981.17,451.15Z"
            fill="#45413e" />
        <path
            d="M995.78,749c-2.35-3.72-1.08-8-1.75-12-1.35-7.92-4.65-15.43-4.47-23.73.15-6.77,2.57-13.17,2.53-19.91,0-1,.82-1.88,2.41-2.13a19.65,19.65,0,0,0,.21,11.07q0,4.32,0,8.64a10.57,10.57,0,0,0-.34,5.56c1.64,9.46,1.09,19.25,4.57,28.41-.92,1.12-.59,2.43-.59,3.69C997.59,749.34,996.63,748.78,995.78,749Z"
            fill="#25211f" />
        <path
            d="M995.78,749c.69-1.33,1.7-.39,2.58-.35,1.85,3.54-.31,7.63,1.64,11.15-.42,1.09-.84,2.18-1.6,4.13A68.72,68.72,0,0,1,995.78,749Z"
            fill="#24201b" />
        <path
            d="M989.27,618.5c2.89,4.08-.44,6.8-1.37,9.86C987.16,625.05,987.07,621.84,989.27,618.5Z"
            fill="#35322e" />
        <path d="M975.89,619.24c-.77-3.29,3.11-2.48,4-4.3C980,617.65,980.64,620.82,975.89,619.24Z"
            fill="#55514b" />
        <path
            d="M976.83,987.69c-2.34-4.59-3.67-.34-5.38.58l.15-2c-.1-4.41,1-8.72,1.08-13.13a21.6,21.6,0,0,0-1.06-8l2.83-5.76c2-2.42,2.3-1.4,2.66,1C978.49,969.5,977.12,978.58,976.83,987.69Z"
            fill="#1a1512" />
    </g>
    <g id="frame">
        <rect width="1000" height="1000" fill="none" />
    </g>
</svg>