<!-- Copyright (c) 2022 Jan Stehno -->
<svg xmlns="http://www.w3.org/2000/svg" viewBox="0 0 1000 1000"><title>iberianmouflon</title><g id="iberianmouflon"><path d="M769.8,986.77a1.77,1.77,0,0,1,.22,1.1c1.27.3,1.8-.51,2.27-1.44A115.42,115.42,0,0,0,770,951.31c1.12,3.35,1.85,7.08,3.94,5.93,3.91-2.15.06-5.78.06-8.61,2.13,6.28,4.2,12.8,6.52,19.24,1.91,1.53,1.55,5.18,5,5.27h0c6.13-11.5,1.53-22.63-.77-32.19,3.06,7.84,5.34,17.61,7.12,27.52.24,1.35.45,3.23,2.77,2.83,1.38-11.54.89-23.35,5.15-36.32l2.77,22.81c1.72,3.91.41,8.47,2.68,12.27,1.32.24,2-.53,2.52-1.56.42-8.87,2-17.67,1.82-26.59,0-.88,1.33-.37.44-.44-.25,0-.37.12-.38.44-.13,7.26,3.44,13.9,3.59,21.12,2,6.61.84,13.66,3,20.24,4.36,2.62,5.43,0,5.81-3.6a38.14,38.14,0,0,0-1.94-16.13c-4.1-12.18-2.11-24.08,0-36.1-2.31-5.59-5.66-7.38-11.89-6.31-2.79.48-5.38,1.87-8.67,2.41,1-6.19,3.91-9.68,9.91-10,5.42-.25,8.84-3.09,10-8,1.87-7.63,5.77-14.75,6.08-22.77.19-4.87,2.34-7.5,7.48-8.32,6.95-1.1,11.68-5.09,12.88-13.25,3.23,2.58,4.89,6.32,9,5.77,4.59-.61,4-4.55,5.17-8.17,3.2,5.25,8.48,4,13,4.81,2.5.42,4-2,2.6-3.88-3.48-4.55-4.1-11.46-10.9-13.34-4.48-.66-9,0-14-.88,3.17.13,6,1.29,8.42-.49,1.1-3-1.17-3.91-3.24-4.92-3.05-.72-4.21-2.28-2.39-5.2s1.76-5.38-1.68-7.06a3.28,3.28,0,0,1-1.64-2.66c-1.1-5.1-4-4.83-7.52-2.28-.85-3.66-2.44-7.17-.46-10.93,1-2,.1-3.89-.94-5.59s-2.27-2.94,1.27-3.28c1.89-.18,1.14-2.48.66-3.91-.78-2.31-2.93-3.12-4.86-4.21-3.31-1.86-5.4-3.36-2.35-8,3.25-4.88,4.55-10.88,1.38-16.89-1.54-2.91-2-6.2-6.87-4.82-2.51.72-3.38-1.47-2.65-3.84,1.79-5.73,1.11-10.48-4-14.71-3.48-2.9-1.05-8-2.71-11.9-3.55-1.17-5.48-3.41-5.68-7.31s-2.2-4.74-4.93-1.68c-4.68,5.25-9.91,10.5-5.4,18.36.92,1.59-.51,1.78-.94,2.6-2.55,5-6.1,9.72-3.8,16,.93,2.52-1,4.08-3.14,5.1s-4.39,2.13-5.5,4.5c-1,2.06-1.66,4.24-.16,6.24,1.66,2.21,3.49.62,5.31-.08,4.39-1.67,6.21-.5,5.72,3.52-.63,5.19-9.65,14.72-14.81,15.5-2.41.37-4.75.88-5.5-2.79-1-4.73-1.25-4.68-6.59-3.1,6.07-2.45,6.77-8.55,9.78-13a2.63,2.63,0,0,0-.56-3.57c-3.24-3-3.33-6.84-3.11-10.86.11-2,1-5-1.69-5.7-2.48-.63-3.64,1.94-4.58,4-.38.8-.54,1.67-1.22,3-1.51-3-3.47-5.15-7-4.69-4,.52-5.78-1.11-6.79-5.16-1.84-7.36-7.31-13.44-8.16-21.29-.18-1.7-1.43-3.62-.36-5.06,4.94-6.63,3.07-14.87,5.57-22.07,1-2.93,1.54-5.81,4.23-7.89,1.87-1.44,2.75-3.54,1.06-5.78-2.46-3.25-.91-4.72,2.36-4.06,5.07,1,6.23-3.32,8.93-5.53,1-.86.51-2.67-.46-2.63-4.38.22-3.52-5.2-6.88-5.87-2,3.48-4.3-1.56-6.34.26-7.37,7.49-12.28,16.1-12.82,26.82-.1,2.12-.37,4.41-2.61,5.74-3.51,2.1-4.76,5.41-5.57,9.25-1.61,7.57-5.58,10.19-13.32,9.29a117.07,117.07,0,0,1-25.08-6c-5.86-2-10.93.8-16.14,2.11-11.21,2.83-11.44,3-17.3-6-1.06-1.61-1.66-3.12-.59-4.85,1.47-2.4,4-4.83,1.62-7.67-3.3-3.9-5.27-9.15-11.41-10.36-4.75-.95-9.24,0-13.84.4a3.56,3.56,0,0,0-1.83,2.24,6.22,6.22,0,0,0-.35,2.9c10.36,7.82,14.56,19.55,19.87,30.58a4.6,4.6,0,0,0,1.3,1.45c1.85,1,3.76.17,5.64.17,6.9,4.19,14.24,3.91,21.73,2.09,4.2-1,8.3-1.36,12.07,1.4,2.4,1.76,5.1.91,7.72.68,4-.35,7.06.52,7.43,5.2,4.7,3.22,10.18,0,15.24,1.71-1.59,2.92-3.51,4.29-7.15,4.36-5.08.09-6.33,4.62-7.68,8.58,5.21,12.67-1.35,23.87-4.35,35.59-3.07,12-4.26,24.28-4.86,36.8-.56,11.83.39,24.28-5.73,35.68-6.36,11.84-5.27,19.23,3.39,35.43,5.35,10,10.17,20.41,17.64,29.19,4.17,4.89,3.68,11,4.86,16.76,1.76,4,5.17,6.64,8.39,9.41v0a150.28,150.28,0,0,0,8.28,12.9c1,1.39,1.8,3.05,4,2.32q-1.49-11.06-3-22.12c4.57,8,6.18,17.14,11.22,24.82,2.44.06,2.05-1.34,1.5-2.83-.62-4.92-2.27-9.7-.91-15.11l3.45,10.88c2.91,1.19,2.59,4,3.39,6.33C766.58,976.86,767.05,982.19,769.8,986.77Z" fill="#332924"/><path d="M888.85,685.62c7.68-5.09,17.16-5.68,25.24-10,3.46-1.83,7.22-3.3,10.26-5.68,13-10.16,25.83-20.58,38.72-30.9,8-7.29,11.46-17.35,16.55-26.4,3.93-7,7.59-14.16,11.68-21.07,2.3-3.9,4.24-7.51-1.53-10.11-1.74-.69-3.69-.88-5.12.22-5.89,4.54-12,2.53-17.56.08a82.57,82.57,0,0,0-47.4-6.1c-3.3.53-6.66,0-10,.51-1.9.29-3.4,1.21-3.57,3.28s1.42,2.59,2.88,3.13c2.25.83,4.54,2.45,7,1.45,6-2.44,12.26-1.42,18.8-2.54.57,2.12-.71,4.19.52,6.57-4.33-1-8.07-2.06-12-.44a7.14,7.14,0,0,1-6.43-.79c-3.2-2.31-6.28-1.34-9.49-.47-4.83-.89-7.3.47-9.24,5.64-1.52,4.07-2.42,9.48-7.41,11.82-.05,4.83-3.57,7.58-6.68,10.42a56.39,56.39,0,0,0-6.38,6.46c-1.74.91,1.49,5.8-3.44,4.15-3.5,1.46-6,4.11-8.43,6.87-3,3.92-7.08,6.34-11.41,8.33-7.47,3.44-14.83,7.33-23.37,7.6a2.8,2.8,0,0,0-1.34,3.33,42.67,42.67,0,0,1,3,9.92c.59,3.88,2.38,7,6.88,7.63,1.38.2,3.42-.41,3.72,1.72.25,1.82-1.46,2.42-2.72,3.29-4.2,2.87-6.84,10.85-5.17,15.42a5.17,5.17,0,0,0,3.11,3.17c11.94.21,23.89,1,35.72-1.37C879.07,689,884.56,688.94,888.85,685.62Z" fill="#433e3a"/><path d="M574.8,583.79c-11.77,11.08-23.62,22-33.79,34.73-5.14,6.42-10.34,12.94-15.93,19.08-11.21,12.29-22.51,24.4-31.26,38.79-5.38,8.84-4.28,16.79-1.55,25.46l.81-.54a4,4,0,0,0,.91-3.08c-2.95-10.16,4.19-13.5,11.49-16.74,7-3.29,14.64-5.21,21.15-9.55,1.6-2.23,7,0,6.18-5.08a4.75,4.75,0,0,0-1.3-1.23c-2.41-4.08-1.69-7.09,1.89-10.62,8.66-8.57,17.16-17.37,23.36-28a11.51,11.51,0,0,0,2.66-4.88c.18-1.07-.1-2.33.47-3.21,6.13-9.33,7-21.09,14.13-29.94C575.29,587.42,576.51,585.81,574.8,583.79Z" fill="#aca39c"/><path d="M928.78,746.63c4.23,6.08,5,13.32,6.83,20.18.56,2-.21,4.44,1.6,6.16a5.15,5.15,0,0,0,2.45-3.56c-2-10.87.66-22.13-2.72-32.9a5.6,5.6,0,0,1-.1-3.24,40.54,40.54,0,0,0,1.53-18.65c.7-5.35-1.36-7.4-7.11-7.91-6.26-.55-12.36-2.94-18.53-4.53-3.44-1.39-5.15.66-5.72,3.41s1.84,2.82,3.87,3.29c5.43,1.24,4.09,8,8.28,10.29-.64.36-1.42-.38-2,.25-1.29-2-5.93-1.86-4-6,.73-1.57.68-4-.86-3.79-3.52.38-5.12-4.68-8.62-2.7-2.62,1.49-.85,3.68-.45,5.79.77,4-1.79,7.42-3,11.08,1-2.46-1.24-5.07.78-7.8,1.4-1.91-1.43-3.44-3.31-3.87-3.45-.8-6.64-2.35-10.08-3.12-2.42,1.09-3,3.72-4.6,5.48-3.34,3.62-4.58,6.73,2,7.92a3.71,3.71,0,0,1,1.65,1.08c1.35,1.29,4.13,2,3.22,4.37-.79,2.06-3.11.89-4.79.87a4.59,4.59,0,0,0-2.56.47c-.24,6.68,5.44,4.52,8.8,6-2.43,1.69-2.82,4.3.1,5.35,6,2.14,11.74,6.77,18.84,3.32,2.44-1.18,3.28,1.45,4.28,2.5,2.9,3.06,5,5.72,8.29.18C924.38,744,926.06,744.37,928.78,746.63Z" fill="#604c43"/><path d="M924.59,400c-13.12-6.21-24.67-15.19-38-21.12a31.12,31.12,0,0,0-8.71-2.9c-19.42-2.51-38.82-5.11-58.4-6a2.27,2.27,0,0,0-.36,2.67,7.13,7.13,0,0,0,3.35,1.78c1.69.77,3.25,1.91,5.22,1.94.89,0,1.77-.08,2.66-.06a4.65,4.65,0,0,0-2.13.51c-8.83,7.24-17.76,14.43-25,23.23-1.94,2.35-3.79,4.68-6,6.85-3.08,3.06-5.47,6.61-.75,10.42a3.43,3.43,0,0,0,2.58-1c9.69-10.93,18.52-22.63,30.54-31.43a49.08,49.08,0,0,1,9.8-5.18c-10.48,5.26-20,11.9-26.61,21.6-2.61,3.83-7.79,5.28-8.76,10.27,2.73,3.66,5.58,1.2,8-.2a35.77,35.77,0,0,0,12-11.74c8.49-8.78,18.13-15.71,30.94-18.64-4.16,2.05-9.5.54-11.48,5.59,1.1,2.61,3.43,1.81,5.16,1.43,10.1-2.2,20.21-4.4,29.68-6.15-3.78,1.86-8.77,1.65-13.49,2.61-2,.41-4.32.69-3.83,3.43.42,2.34,2.39,2.95,4.63,2.56,6.33-1.1,12.81-.72,19.14-1.87-2.93.26-5.82.83-8.76,1-2.74.14-4.92.94-4.76,4.14s2.71,2.83,4.92,2.8c7.72-.1,15.28-2.28,23-1.73,2.19-2.07,4.69-1.83,7.43-.91-2.37.55-4.87-1.34-7,.67-5.84.81-11.8.81-17.47,2.63-2,.65-4.83,1.26-4.34,3.9s3.06,3.51,5.61,3.76,4.92-2,7.68-1.28c3.32.2,6.45-1.07,9.73-1.19,4.28-2,9.62.47,13.55-3.09.66.76,1,1.83,2.19,2.11a12,12,0,0,0,6.59-.17A3.28,3.28,0,0,0,924.59,400Z" fill="#928c88"/><path d="M574.8,583.79c-1.73,5.62-6.75,9.43-8.26,15.28a52.28,52.28,0,0,1-7.9,17.57,4.57,4.57,0,0,0-.09,5.57c2.64.69,4.34-.86,6-2.45a71,71,0,0,1,7.85-12.86c3.39-4.2,3.16-9.83,5-14.71,2.16-5.82,5.08-10.64,10.44-13.83,6-3.56,10.14-9.85,17.54-11.4,1.49-.31,2.41-2,2.61-3.57.79-6.51,5-11.63,7.34-17.49,6.72-12.73,12.42-25.8,14.24-40.25a8.12,8.12,0,0,1,5.59-6.72c3.26-1.25,6.67-2.28,9.37-4.66,1.45-1.79,2-3.53-.26-5.12-2.57-.51-4,2.46-6.53,2.25,8.44-11.77,20-17.36,34.39-17.22,3.58-1.8,6.7-3.8,3.73-8.43-13.45-4.15-22.19,4.31-31.15,11.67-3.68,3-6.71,6.85-9.11,8.31,5.1-2.76,9.3-9.54,15.79-13.92,7.33-5,14.56-9.12,23.87-7.09a13.54,13.54,0,0,0,4.5-1.56c2-1.4,3.29-3.15,2-5.54-1.07-1.95-3.24-1.94-5.23-2.27-11.34-1.86-19.38,4.19-27.09,11a71.19,71.19,0,0,0-5.3,5.47c2.88-5.58,10.61-7.7,14.22-13.91a3,3,0,0,0-1.67-2.14c-5.37.19-7.55,4.45-10.27,7.74a21.38,21.38,0,0,1,9.18-8.37c1.77-.82,3.55-1.79,3.84-4.06a3,3,0,0,0-1.84-2c-2.09,0-3.46,1.45-5.07,2.35,2-1.84,5-2.59,6.12-5.39a6.73,6.73,0,0,0,.49-4.35c-2.55-2.17-4.7.88-7.11.54a3.86,3.86,0,0,0-1.47.71c-6.24,9.28-13,18.28-18.54,27.95-4.53,7.89-5.76,17.26-6,26.09-.56,23.54-11.62,43.27-22.39,63-4,7.34-13.2,10.69-19.62,16.37C581.08,578.92,577.44,580.75,574.8,583.79Z" fill="#817975"/><path d="M736.88,954.77c-.43-4.39-5.25-5.59-6.82-9.14-4.72-9-10-17.52-18-24.16-2.53-2.09-4-5.27-5.18-8.36-.65-1.63-1-3.49-2.14-4.79-8.6-9.5-12.54-21.56-18.46-32.54-10.74-28-18.59-56.54-21.62-86.46-1.32-13-2-26.15-4.06-39.12-.82-5.1-2.76-9.71-4.56-14.39-2.24-5.82-7.21-4.67-11.9-3.78-13.77,4.15-27.45,7.68-42.28,6.49-8.52-.67-17.19-.78-25.79-1.35-5.44-.36-10,2.17-14.22,5-7.86,5.24-16,5.66-24.77,3a10.83,10.83,0,0,0-4.6-.59,2.44,2.44,0,0,0-1.69,1.27c6,5.55,23.28,7.15,31.29,1.82,8.84-5.89,17.88-7.11,28.62-5.35s21.7.51,32.63-.45c7.75-.69,14.86-3.12,22.1-5,5.85-1.56,6.92,1.1,8.38,5.13,3.44,9.5,4.55,19.48,4.71,29.34.23,15.2,3.22,30,5.48,44.86,2.77,18.34,8.24,36.05,15.15,53.34a296,296,0,0,0,20.74,41.8c6.63,11.14,15.59,20.3,22.78,30.88C726,947.09,729.79,953.21,736.88,954.77Z" fill="#463d37"/><path d="M650.55,442.93,652,443c4.16-2.42,9.51-3,12.36-7.49,1.42-6.06,7.64-6,11.58-8.81.78-.32-1.12-2,.37-1.43,6.31,2.59,13.23,3.41,19.3,6.66,1.6.85,4.14,1.2,5-.22,4-6.8,12.5-10.84,12.47-20l-.6-.72c-10.68.78-21.38-1.28-32.12.58a16.52,16.52,0,0,0-9.71,4.76C662.79,424.35,655.2,432.56,650.55,442.93Z" fill="#a29c99"/><path d="M887.57,709.46a13.26,13.26,0,0,0,8.41,3.8c2.4.27,7.54.9,1.58,4.6-1.55,1-.53,1.58.43,2.3,1.71,1.3,3,2.45-.69,2.77-1.11.09.07,1.33.57,1.84.89.9,1.75.9,2.87.06,2.77-2.05,5.11-11.25,3.16-14.27-.83-1.29-.67-1.87.22-2.65,1.16-1,1.77-.56,2.36.74a2.75,2.75,0,0,0,1.94,1.41c6.25.2,4.35,2.47,1.37,5-.65.57-1.47,1-1.24,2.59,2.87-.93,5.3-.58,6.67,2.68.7,1.68,2.84,1.24,9.67-2-5.55.64-6.94-2-7.95-5.16a9.14,9.14,0,0,0-4.39-5.47c-1.42-.75-4.28.75-4.39-1.64s2.16-3.59,4.57-3.89c-8.28-5.07-17.67-8.57-23.88-16.56-4.83,0-9.24,1.67-13.7,3.2-1.23,3.9-.16,7.28,2.55,10.19s4.7,5.09,4.24,9.94C881.51,713.48,885.47,710.19,887.57,709.46Z" fill="#72584a"/><path d="M989.62,582.78c1.88,1.45,4.06,2.4,2,5.64-10.42,16.38-17.34,34.7-28.55,50.66,3.73-1,5.85-3.7,7.62-6.8,7.8-13.68,14.36-28,22.6-41.47,7.54-12.32,7.09-26,6.07-39.72.1-5.18-3-5.32-7.19-3.83,3.69-4.08,9.09-6.63,7.28-13.13-.41-1.46-.16-3.61-2.3-3.16-4.74,1-9.8-1-14.32,1.58,1.07,5.76,6.44,3.2,10.09,5.11-5.41,2.6-11-2.56-16,1-5.21,3.63-5.24,5.21-.07,8.08,2.11,1.18,4.4,2,6.53,3.16,2.94,2.49,6.73,2.58,11,3.2-3.64,5.21-8.58,1.49-12.26,3-2.42.83-1.86,5.33-6.42,4.22-2.38-.58-1.67,2.35-.24,3.63,2.21,2,5.14,2.46,7.91,3.23,3.67,2.38,8.54-1.27,12,2.33C995.46,574.81,990.07,577.76,989.62,582.78Z" fill="#78716c"/><path d="M819.65,372.5l-.14-2.5c-18.54.12-36.33,5.05-54.38,8.28-1.21,1.18-3.27.76-4.35,2.21-2.7,2.46-4,5.77-5.51,8.93-.55,1.13-1.36,2.5-.06,3.59,1.14,1,2.52.46,3.79.06a8.06,8.06,0,0,0,4.8-4.31c1-1.92,1.93-3.86,3.76-5.06-1.71,2.05-2.64,4.22.28,6s5,.34,6.5-2.3c.11-.19.18-.5.33-.55,1-.31.31.71.7.93a2,2,0,0,0,1.31,1c7.13.84,10.16-4.12,13.18-9.14-2.21,2.67-3.36,6-5.83,8.43-1.83,1.82-3.21,4.19-.53,6.16,2.5,1.85,4.91.14,6.26-1.86,3.82-5.68,8.78-10.4,12.9-15.82-2.59,3.53-5.61,6.72-8.35,10.13-1.5,1.88-2,4.07-.06,5.95,2.18,2.16,4.13.62,5.76-.9a137.83,137.83,0,0,0,11-11.42A38.23,38.23,0,0,1,819.65,372.5Z" fill="#817b77"/><path d="M951.78,432.59q-2.73-3.3-5.47-6.58c-1.76-.35-2.11,1.14-2.87,2.12a2.68,2.68,0,0,1-2.21,1.25c-12.82-1.15-24.71,3.7-37.06,5.59-8.6,2.49-18,1.75-26,6.67-2.23,1.37-4.8,2.24-6.25,4.62,1.17,8.75,2.58,9.18,10.25,6.53a259.91,259.91,0,0,1,37.48-10.38c10.46-1.93,21-2.15,31.34-3.69C953.23,436.94,953.16,434.85,951.78,432.59Z" fill="#78716c"/><path d="M942.22,422.14,941,420.73a3.5,3.5,0,0,0-2-.64c-19.07-1.45-36.77,5.75-55.19,8.46-4.36,1.57-9.09,2-13.26,4.23-3.15,1.66-5.57,3.29-3.45,7.65s4.57,3.4,8,1.83c8.62-4,17.41-7.5,27.28-6.21,13.26-2.56,26.16-7.25,40-6.26C947.2,427.2,942,424.69,942.22,422.14Z" fill="#78716c"/><path d="M982.51,533.28c5.15-1.06,10.47.73,15.84-1.47.26,4.94,2.26,9.83-5.38,10.5-1.18.1-1.17,4.83-5.65,3.57,2,3.18,4.48,3.08,6.13,2.33,3.56-1.63,4.71.41,5.91,2.88,1.26-13.93.41-27.85-.38-41.75a16.15,16.15,0,0,0-4.77-9.94l-1,0c-2.34,0-4.67,0-6.52,1.76-1.5,3.65.75,5.47,3.52,7,1.3.65,2.88.7,4,1.56,2,1.49.22,1.72-.89,2.09-2.59.55-5.84-.43-7,3.31-.95,3.22,1.52,4,3.47,5.25a50.05,50.05,0,0,1,4.58,2.12c-1.85,3.86-5.65,1.12-8.24,2.42-4.86,1.94-1.52,3.09,0,4.16-4.49-2-8.84.33-13.18,2-1.53.59-1.37,2.12.22,2.94a9.52,9.52,0,0,0,4.55.72C979.53,534.65,981.2,534.53,982.51,533.28Z" fill="#9b9592"/><path d="M951.78,432.59c-.15,1.73-.77,3.48.11,5.19-.29,1.88,1,2.76,2.32,3.65,4,2.12,3.61,7.81,8,9.66,1.56,1.51,3.5,2.53,5.11,3.93-4.19,5,.84,6.57,3.37,9.1.54.54,1.62.72,1.68,1.42s-.94.31-1.49.44c-3.79.75-4.42,2.32-1.4,4.94a41.67,41.67,0,0,0,7.63,4.8c1.27.79,2.41,1.77,3.6,2.68a4.51,4.51,0,0,0,2.53.87l.79-.45c-3.62-6.4-7-13.15-9.93-19.65C968.92,447.87,959.2,441.39,951.78,432.59Z" fill="#a4a09f"/><path d="M762.42,380.91c.36-1.42,3.34-.22,2.71-2.63A14.28,14.28,0,0,0,755,380.7Q738.93,390.92,723,401.4c-1.56,1-2.57,2.88-3.84,4.36-.24,1.22.5,1.64,1.53,1.84,1.72.09,3-1.75,5-.76,3.27,1.6,5.44-.71,6.25-3.1,2-5.86,7.53-6.1,12-7.88a7.72,7.72,0,0,0,3.64-2.31c3.77-4.93,10.51-6.65,13.62-12.31C761.3,381,762,381,762.42,380.91Z" fill="#a6a09c"/><path d="M783.31,983.06c-5-.92-2-4.85-2.77-7.34-.63-2.1.89-5.76-2.6-5.69s-1.33,3.72-2.1,5.65c-.63,1.57,1,3.46-.61,5L783,1000C785.35,994.2,787.7,988.71,783.31,983.06Z" fill="#332924"/><path d="M950.11,723.17c-8.06,2.7-8.65,7.26-7.79,12.39.8,4.75,1.53,9.51,2.38,14.27a1.45,1.45,0,0,0,2.87-.14c.73-8.43,2.77-16.82,4.11-25.22Z" fill="#604c43"/><path d="M492.27,701.85c1.33,12,5,22.15,19,24.89,2.56.5,4.38,3.09,5.25,5.59,2.45,7,7.64,11,14.31,13.5l.6-.73a4.14,4.14,0,0,0-1.6-3.43c-4.5-3-8-6.68-9.5-12-1.47-5-5.7-6.11-10.23-6.63-7.71-2.85-12.5-8.1-13.67-16.31-.9-1.91-.67-4.54-3.41-5.3C492.75,701.58,492.5,701.71,492.27,701.85Z" fill="#534d48"/><path d="M809.14,974.22l-3.46,1.52-.82,1.75c1.58,5.22,0,11.3,4.52,16.19,1.43-2.1,2.73-4,4-5.93Q811.28,981,809.14,974.22Z" fill="#332924"/><path d="M994.21,499.4a64.26,64.26,0,0,0-6.23-14,2.94,2.94,0,0,0-3.31-.63c-1.78,1.19-.29,2.3.06,3.43-.2.92-1,1.09-1.73,1.39-6.09,3.59-1.87,5.91,1,8.4a35.94,35.94,0,0,0,9.29,2C993.63,499.8,993.92,499.61,994.21,499.4Z" fill="#9b9592"/><path d="M932.76,409c-2.38-3.31-3.35-7.87-8.17-9-.29.14-.57.28-.84.44-3.23,1.41-7,.51-10.12,2.2-2,4.41.38,5.61,4.22,5.16,4-.48,7.82-.3,11.35,1.83a3.73,3.73,0,0,0,2.86.07Z" fill="#a29e9d"/><path d="M796.92,980.14c2.71,3,.46,7.84,4.11,10.44,3.3-8.39-3.13-16.47-.81-24.83a4.25,4.25,0,0,1-1.18,0c-1.24,1.68-.43,4.19-2.33,5.61Z" fill="#332924"/><path d="M749.19,970c-4.88-4.46-7-11.07-12.31-15.22,1.2,8.06,6.83,13.56,11.8,20.42A5.94,5.94,0,0,0,749.19,970Z" fill="#332924"/><path d="M790.43,975.52c-.92,4.76-2.53,8.54-1.76,12.69.4,2.13,1.29,4,3.71,3.69,3-.35,2.22-2.83,1.76-4.57C793.15,983.61,791.85,980,790.43,975.52Z" fill="#332924"/><path d="M939.59,420.82l1.4-.09c-.5-5.44-4.63-8.39-8.23-11.71l-.52.46a4.57,4.57,0,0,0-1,2.65c-.55,4.34,2.46,6.14,5.69,7.8A5.51,5.51,0,0,0,939.59,420.82Z" fill="#a6a3a2"/><path d="M984,485.56l4-.16c-.3-2.81-2.35-4.58-4-6.58l-.46.4c-1.78,1.14-5.41.6-4.8,3.87C979.16,485.36,981,487.21,984,485.56Z" fill="#a29e9d"/><path d="M720.79,407.1l-1.65-1.34L712.42,411c.2.17.4.36.59.54.24,2.83,1,5.21,4.31,2.58C719.45,412.38,722.21,410.66,720.79,407.1Z" fill="#9c9792"/><path d="M942.22,422.14c-5.28,3.7,2.16,3.83,1.77,6.15.33.59.71.65,1.14.1l1.18-2.38A7.53,7.53,0,0,0,942.22,422.14Z" fill="#aaa6a5"/><path d="M643.11,695c1.48,1,2.17,2.59,4.95,1.26,7.05-3.37,18.39,2.57,20.41,10.1.4,1.49-.39,2.54-1.5,3.37-4.58,3.44-3.21,6.51.48,9.58a7,7,0,0,1,2.45,3c1.85,6.76,6.72,5,11.23,4a24.73,24.73,0,0,0,5.53-2.11c9-4.48,17.51-.46,25.84,1.81,5.8,1.58,11.68,2.27,17.5,3.36,4.62.86,11.24-5.24,11.52-10.88.24-4.74,1.85-7.11,6.16-9.49,3.56-1.95,2.38-7.56,3.13-11.38,1.06-5.34,0-10.65,6.67-13.53,2.24-1,1.51-5.69,3.78-8-.45-2.64-2.46-4.16-4.47-5.45-9.51-6.1-17.6-14.05-27-20.29-4.45-3-5.93-7.61-7.92-11.88-5.44-11.7-11-23.36-14.67-35.77-.86-2.93-2.1-3.5-5.2-3.26-12.4.94-24.79,1.27-34.51-8.63a9.31,9.31,0,0,0-5.3-2.51c-7.67-1.23-9.77-3.13-11.4-10.37a58.65,58.65,0,0,1-1.4-9.73c-.37-6.94-2.73-8.36-9.27-6.08-1.51.53-3.1-.18-4.61.3a2.3,2.3,0,0,0-1.14.55c-2.34,2.75-4,3.46-6.73,2.72-5.45,6.83-5.77,10.63-1.17,18.25,1.27,2.11-.71,2.65-1.43,3.69-4.24,6.09-4,6.91,3,9.79,2.42,1,4.78,2.13,7.85,2-1,2.06-2.28.74-3.25.61-2.77-.37-4,.76-2.86,3.32,1.71,3.71.56,6.23-2.53,8.49-1.54,1.14-3.47,2.57-2.11,4.87,1.22,2.05,3,1.15,4.61.25,2.94-1.59,4.45.42,6,2.44,2.11,2.82,4.32,5.33,8.12,2,.21-.18.15,1.65,1,2.17,1.59,1.89,2.94,3.26,5.1.31,3.47-4.78,3.63-4.7.06-8.23,2.34,1,4.67,2,6.74-.09,1.49-1.51-.09-2.75-.72-4,5.92,1.76,10.48,4.92,11.68,11.69-4,1.71-7.3,0-10.69-1.35-2.08-.82-4.1-1.34-4,1.95.33,11.59.36,11.59-10,10a9.88,9.88,0,0,0-1.35,2.39c-.09-.86.67-1.29,1-1.93.57-3.13,2.53-1.34,4-1.11,1.31.21,2.81.78,3.69-.52s-.27-2.47-1.18-3.35c-1.78-1.71-2.91-3.85-4.32-5.81-5.29,2.38-8.54.12-10.73-4.59-.38-.81-1.06-1.93-1.76-1.79-4.2.84-8.94.49-12.54,2.06-3.32,1.46-7.19,4.75-7.63,9.23-.48,4.74-2.3,6.93-7.24,5.69-.64-.16-1.8-.42-1.86,0-.83,5.64-7.47,7.51-8.5,12.86-.27,1.41.74,3.64-1.85,2.84-5-1.54-7.37,1.6-10.06,4.51-1.09,1.62-2.69,1.9-4.5,1.64-1.77.35-4.42,1.16-2.48,3.06,4.87,4.79,2.13,9.7,1.24,14.67-.51,4.49.46,8.87,1.4,13.19.42,1.92-.28,2.76-1.57,3.66a2.5,2.5,0,0,0-.92,1.53,9.58,9.58,0,0,0,1.29,3c4.37,8.18,4.36,8.17,12.85,3.92a5.47,5.47,0,0,1,3.2-.51c-1.22,1.65-2.56,3.07-2.61,5-.85,8.36.79,9.38,9.38,8.52,10.49-1,19-6.84,28.32-10.54,4.5-1.78,9.25-.48,13.49-2.49l1.3-1.34c-1.75-2.5-2.21-5-7.33-3.43-4.16,1.26-9.84-2.42-15.24-1.33-2.44.49-4.81-.62-7-1.58a3.33,3.33,0,0,1-2-2.37c3.47,2.87,7.46,6.19,11.59,2.21,3.49-3.37-3.59-3.11-2.79-5.65,3,4.9,10.22,4,14.31,8.64,1.27,1.45,3.67-1.22,4.57-3.62C640.42,692.09,640.8,694.41,643.11,695Z" fill="#2b2422"/><path d="M928.78,746.63c-2.86-.39,1.24-5.93-2.89-4.42-2.56.93-6.81,2-5.2,8.62a58.14,58.14,0,0,0-11-11.11c-.51,4.62-2.45,6.7-6.08,3.12-3.08-3-7,.06-10.18-2.39-2.66-2.06-3.07-1.68-.14-3.78.61-.44,1-.59.76-1.36-.43-1.14-1.33-1.33-2.47-1.67-3.12-.92-7.52.48-8.73-4.26,2.25-2.09,3.31-4.9.28-6.44-3.34-1.69-7.74-3.47-11.14-.88-2.69,2.06-1.08,5.11,1.2,7.26,1.52,1.68,5,2.75,2.38,6.33-2.67-1.83.19-4.67-2.09-6.06-3.38-1.86-5.36.64-7.43,2.47-2.64,2.33-3.65,6.41-8,6.93-1,.11-2.08,2-1.4,2.55,2.45,2,3.76,6.39,7.38,5.67,2.76-.56,4.62,1,7,1-4.2-.18-9-2.36-11.41,3.35-.45,1-.86-.2-.94-.35-2.31-4.83-4.62-2.71-6.7.09-2.3,3.08-4.74,3.44-6.78.15-3-4.85-10.26-3.85-12.73-9.73-.83-2-2.2,2-4,1.77-.72-3.1-.12-6.64-3.11-8.94-1.61.26-3.37-1.06-4.88.42.23,5.89-1.27,12,5.57,16.14,3.33,2,1.13,6.45.44,9.83-1,5.08,1.51,7.39,6.59,5.62,1.35-.47,1.17-.05,1.67.69,4.69,6.82,3.24,14-2.27,21.16-2.48,3.22,1.6,6.51,4.94,7.87,2.88,1.17,5.2,2.24,5.21,5.85-2,.9-4.14-2.81-5.72-.17-1.37,2.28,2.22,2.06,2.61,3.76.59,2.5,3.26,4.4.64,7.62-3,3.71,2.15,7.51,1,11.52,1.23,0,3.55,3.84,3.43-1,0-1,.75-2.5,2-1.43.83.74,3.62.07,2.41,2.8s-1.28,4.12,2.86,4.21c2.84.06,2.58,2.86.32,4.66-4,3.19.38,5.27,1.07,7.84l2.16-1.21c3.5-4.26,6.23-1.81,7.95,1.42,1.34,2.5,2.74,3.7,5.51,3.37,1.51-.22,3-.77,4.49-.85,3.51,0,6.87.78,8.11,4.28,1.08,3,1.3,6.41-1.44,9.13-1.28,1.27-3.88,2.31-2.25,4.61,1.16,1.65,3.49,1.6,5.49,1.57,1.84,0,3.3-1.11,4.93-1.72l2.15-4a3.58,3.58,0,0,0,2.65-1.7c-1-5.65-4.66-10.83-3-17a37.54,37.54,0,0,1,2.06-6.93c-.29,10.35,3.38,20,7.25,28.82,4,9,1.2,18.26,4.75,27.61,1.64-4.31,3.08-8.08,4.51-11.86.67-2.39-.11-4.8.16-7.19.08-5.6-1.39-11-2.38-16.4-3.07-2.45-8.69-3.57-5.12-9.52a11.8,11.8,0,0,0,1.13-6.38,24.5,24.5,0,0,1,3.28-15c-.23,7.47-3.6,15.5,1.3,23.12,6.24,3.25,4-3.29,5.92-5,5.2-10.5,1.64-20.77-.71-29.48,1.2,5,4.15,11.14,5.54,17.75.89,4.25,1.73,8.1-2.54,11.15-1.06.76-1,2.35-.92,3.7a8.86,8.86,0,0,0,2.64,5.44c.12.84.25,1.68.37,2.52.39.56.76.58,1.11,0,.11-1.29.21-2.58.33-4,2.33.43,1.79,2.5,2.36,3.9,4.26-1,.36-4.94,2.51-6.68,4.67-10.29,1.41-20.55-.17-30.81-.67-4.3-3-9.05-1.81-12.78,1.59-5.11,0-9.9.66-16.4,4.84,11.88,8.39,22.43,8.68,35.16,3.49-4,5.37-7.25,6.2-11.06-1.18-3.43-4.55-5.65-5.27-9.32l-6.75-30.51,1.25-.45q2.52,5.58,5,11.15c3-.55,1.36-2.4,1.12-3.87Q930.53,761.64,928.78,746.63Z" fill="#503e35"/><path d="M820.35,735c1.29-.48,2.67,1.43,3.92-.13,3.82-7,3-8.78-4.38-9.76-.15-2.74,1.46-4.9,2.5-7.23.58-.61.66-1.58,1.56-2.07a23.4,23.4,0,0,0-2.07,3c.09,3.11,1.1,5.26,4.81,4,3.5-1.16,6.4-3.66,4.72-7.27-2.25-4.83-2.33-8.81.73-13.21,1.13-1.64.3-3.91-1.39-5.3a9.9,9.9,0,0,1-3.19-5.57c-4.34-4.34-4.64-9.16-.79-12.88,1.71-1.65,3.85-2.63,6-1.53s.76,3.14.31,4.69c-1,3.48-1.62,6.84,1.25,9.82,1.22.39,2.72,2.57,3.43-.5-2.73-3.25-.11-6.69-.4-10-.43-4.82,2.38-5.55,6.24-6.45,2.39-.55,2.81-3.83,2.48-6.11-.38-2.6-2.38-2.3-4.6-1.68-5.25,1.45-6.5-2.33-7.17-6.14s-.52-7.85-4.38-10.3l-.56.75a36.7,36.7,0,0,0,2.16,14c.81,2.08.49,2.71-1.58,3.62-2.37,1-3.21.07-4-1.69a29.31,29.31,0,0,1-2.23-9.46c-.25-2.59-.45-5.34-3.86-6a2.34,2.34,0,0,0-1.44,1.26c0,6.28.15,12.51,3.69,18.11.78,1.23,1.57,2.67.77,4.27a23.38,23.38,0,0,0-5.44,11.06c-.58,2.58-2,3.93-4.67,3.3-2.46-.57-3-2.59-2.54-4.64.82-3.66.64-8.51,7.1-6.43,2.53.82,3.87-1.57,5.41-3.08.29-4-.41-7.34-5.57-6-3.66.93-4.23-1.19-4.82-3.66-.92-3.84.18-7.93-1.5-11.68a1.89,1.89,0,0,0-1.58-.85c-4.93,3.61-4.2,8.81-2.16,12.92,3.75,7.55-1.24,12.91-3.62,18.87-1,2.48-5.48,1.48-6.85-1.35-.85-1.75-.09-3.94-1.45-5.59-4.22.34-4.29.44-5.19,7-.15,1.49-1.33,3.2-.26,4.44,3.4,3.94,1.92,7.19-1,10.47-.85,1-1.8,2.2-1.3,3.53.76,2,2.61,1.34,4,1,2.48-.54,3.89-.2,3.43,2.77a2.3,2.3,0,0,0,1.69,2.54c4.1,1.37,2.26,3.42.63,5.34-2,2.34-4.2,4.51-6.15,6.94-1.21-5.52-3.31-5.79-9.53-.55,0-6.94.29-13.28.56-19.61.12-2.83,2.42-6.09-2.21-7.51-1.55-.48-.4-1.38-.09-1.89,1.77-2.93,1.05-6.47,2.5-9.46,3.44-9.24,3.77-9.38,12.84-5.22,2.18.19,4.37,0,6.57.35,3.63.63,6.07-1,6.68-4.6s-.53-6.66-4.9-6.84-5.08-2.57-4.72-6.1c.19-1.93.78-3.86.11-5.82-1-1.84-2.39-2.09-4-.77-1.78,2.18-1.53,4.93-2.09,7.45-.4,1.83-1,3.41-3.31,3.29-1.94-.11-2.49-1.47-2.84-3.07-.41-1.85-.1-4.62-2.39-4.89-2.82-.33-3.06,2.56-3.7,4.6a2.75,2.75,0,0,1-3.54,2.07,2.85,2.85,0,0,1-2.28-2.83,22.73,22.73,0,0,1,0-2.61c0-1.67,1-4-1-4.73-2.43-.86-3.33,1.58-3.93,3.37-.75,2.22-1.82,2.71-4.3,2.76-4.62.1-5.09,3.69-2.78,6.35,2.63,3,3,6.47,4,9.89,3.45,1.91,1.28,4.44.49,6.95,2.3.81,4.4-3.78,6.26,0-3.19,2.1-4.93,7.88-10.94,4.26-1.09-.66-2.12,2.43-3.13,3.82-1.85,2.55.92,2.08,1.92,2.73,2,1.3,2.1,3.09.32,4.25-7.39,4.79-6.12,12.53-7.12,19.5-.21,1.51.31,3.63-.53,4.45-6.89,6.8-2.29,14.28-1.16,21.3.56,3.54,4.36,6.21,5.36,10,.22.82,1.23,1.58,1.15,2.3-.79,7.44,3.46,8.11,9.24,6.92,2.55-.53,3.59.8,3.94,3.11.26,1.64.28,3.46,2.42,4.66,2.14-3.43.94-8.43,5.43-11.09.25,4.23-.44,8.17.51,12.06.52,2.16-.65,5,3,5.26,1.48.1,1.46,1.06.78,1.68-4.21,3.88-4.22,11-10.43,13.26-1.47.54-3.53,1-2.52,3s2.73.28,3.94-.32c4.39-2.16,4.18-2.21,4.34,2a4.34,4.34,0,0,0,4.95,4c3.49-.65,7.62-.28,10.13-3.94,3.05-4.45,7.8-7.62,9.49-13.17.92-3,.23-5.27-2-6.94-2-1.51-4.15-.76-6,.89-1,.9-2,3-3.72,1.41-1.28-1.16-.59-2.85,0-4.31a6.58,6.58,0,0,1,4.66-4.12c4.3-1.36,6.74-3.39,4.28-9.06-2.16-4.95,1.83-9.73,4.7-13.93.55-.8,3-1,1.57-2.43-6.48-6.45-1.37-10.84,2.49-15.54.92-1.12,1.77-2.31,3.27-4.26.14,3.69,1.65,6.77,1.8,9.25C816,741,818.68,735.18,820.35,735Z" fill="#48372e"/><path d="M766.63,675.86c1.46-3.56,3.51-7.06-2-9.4-1.31-.56-3.11-3.07-1.31-5,2.8-3.06,3.66,1.93,6.14,1.72.94-2.94,1.89-5.93,3.27-10.22,1.53,5.14-2.76,10.66,2.59,12.68,6.43,2.44,7.55-2.63,7.69-8.49,2.37,2,1.78,3.75,1.92,5.25.24,2.55-.45,5.06,4.15,4.68,3.8-.31,5.74-.51,5.31-4.87-.22-2.3.62-4.69,1-7-2.58-3.48-6.79-3.69-10.41-5.09-6-.95-13,.08-15.14-8a1.74,1.74,0,0,0-2.17-1c-3.44.86-7.31,2.64-5.88-3.9.18-.87-1.72-1.06-2.82-1-4.88.48-6.83-4.45-10.77-5.73-.24-.08-.1-1.23-.21-1.88-11.23-11.86-11.77-26.93-12.84-41.83a14.85,14.85,0,0,0-.23-1.88,14.26,14.26,0,0,0-.5-1.84c-.3-.92-.65-1.81-.94-2.73-2.94-7.29-1.84-15.6-5.87-22.61a4.64,4.64,0,0,0-1.58-1.08c-5.6,1.89-12.1,1.52-15.06,8.87-1.49,3.68-5.54,6.81-11.18,4.41-2.81-1.19-6-4.4-9.57-1-.11,3.42,2.14,5.08,4.9,6.28a22.66,22.66,0,0,1,5.21,2.89c3.78,3,3.85,5.61-.66,7.22-9,3.19-17.74,5.22-27.19-.71-4.75-3-6.76-4.79-4.4-9.77,1.88-4,7.9-6.13,13.32-4.74,3.14.8,6.39,2.78,8.84-1.2,1.22-4.75-2.47-5.87-5.59-6.21-6.48-.7-12.13-3.22-17.72-6.16,0,0-.55.6-.86.54.47-.46.94-1.45,1.35-1.34,3.25.94,6.67-1.92,9.93.69,1.21,1,3,.26,4.1-1.07.81-1,.94-2.1-.13-2.84-3.58-2.45.6-5-.27-7.72-1.28-4,3.21-2.43,4.7-3.93,1.14-1.14,3.37-1.09,4.08-3-.1-.45-.21-1.07-.54-1.15-6.92-1.73-13.87-3.31-21.09-3-1.57,1.56-3,3.18-3,5.59,0,2.83-2.1,2.88-4.18,2.87-3.26,1.32-5.29,4.27-8.23,6.08A22.33,22.33,0,0,1,641,551.91c-1.85,1.85-4.33,2.68-6.56,3.93-1.89,2.82-1.81,5.38,1,7.56,2.36-.95,6.4,4.69,7.45-1.83a4.53,4.53,0,0,1,2.4-.12c.86,2.12,2.84,3.65,2.69,6.35-.36,6.35.43,12.57,4.32,17.92,2.22,3.06,4.68,6.16,9.28,4,2.1-1,4.25,1,4.55,1.58,5.44,9.83,15.64,8.59,24.34,9.89,4,.59,8.68,3.81,12.86-.59,1.13-1.2,2.29.15,2.46,1.75,1.05,9.88,6.9,18,10.42,26.94,1.24,3.17,2.59,6.5,3.61,9.58,3.33,10.07,12,14.7,19.3,20.67,7.11,5.82,14.73,11,22.12,16.51C763,674.42,765.09,683.4,766.63,675.86Z" fill="#433e3a"/><path d="M644.26,733.22c8.29-.48,13.64,5.73,14.44,15.41,1.26,15,3.36,29.93,4.66,44.92a273.65,273.65,0,0,0,6.55,38.39c3,12.75,8,25,12.14,37.51.88,2.64.77,5.73,3.41,7.61,8.9-5.28,7.11-14.21,6-21.62-1.8-12.39-.41-24.25,1.73-36.67,3.36,1,3.28,3.61,4,5.72.83,2.53,1.58,5.46,4.94,5.28,3.7-.2,3.82-3.5,3.53-6-1.15-9.73,4-19.29.21-29.21-1.36-3.59,1-7.71,3.37-11,5.52-7.45,7.08-15.49,3.48-24.12-1.56-3.72-.32-7.9-2.42-11.43a5.17,5.17,0,0,0-1.54-1.2c-4.21,1.13-7.75.86-11.42-2.42-2.44-2.18-6.38-4.37-10.05-.69-1.12,1.12-2.49.63-3.49-.45-4.71-5.08-12.55-6.58-15.73-13.4l-5.28,1.38c-3.87-1.38-7.5-2.42-9.58-6.95s-8.38-6.19-13.31-2.68c-9.47,6.74-19.68,4.88-29.92,4.54-3.9-.13-7.94-1.2-11.47,1.53-.17,1.29.62,2,1.59,2.63C614.35,738.2,629.37,734.76,644.26,733.22Z" fill="#463d37"/><path d="M714.73,822.71c-.19,10.7-.38,20.41-.54,30.13-.12,7.3,2.28,14.15,4,21.09,1.41,5.53,2.94,10.89,1.65,16.72-1.58,7.14.31,9,7.62,8.76,5.43-.21,8.49,4,11.68,7.23,2.54,2.62,5.1,4.69,8.63,5.57.84.22,2.12.22,2.45.76,5.86,9.67,18.73,8.66,25.83,16.62,2.14,2.4,6.39,4.73,9.54,2.16,4.12-3.35,4.14-11.65.78-15.36-2.09-2.31-4.53-4.17-3-7.87.68-1.61-.75-2.89-1.93-3.89a37.37,37.37,0,0,1-12.09-19.55c-2.63-9.82-4.69-10.42-12.72-4.44-2.53,1.89-4.59,6.21-8.06,4.14-3.7-2.21-2.07-6.65-1.4-10.27,0-.22.28-.49.21-.61-4.59-8,4.8-17.74-3.36-25.39-1-.94-1-3.39-.77-5,1.19-7.85-3.18-14.72-4.07-22.25-.35-2.9-.7-4.61,1.38-6.56,1.37-1.28,2.17-2.91,1.39-4.75-1-2.23-2.89-1.65-4.54-1s-3,.68-4-1c-.76-1.3-.33-2.46.41-3.67a18.79,18.79,0,0,0,1.21-18.1c-1.46-3.39-5.71-5.67-3.51-10.43.39-.85-1.58-1.52-2.56-1-1.3.76-2.95,1.73-3.42,3-3.14,8.37-9,15.86-8.82,25.33C716.88,810,712.46,816.53,714.73,822.71Z" fill="#272321"/><path d="M868.62,844.36c-1.49-.08-4,.22-3.7-1.63.94-6-4.79-5.85-7.27-6.7-6.26-2.15-.46,3.62-2.45,4.76a8.23,8.23,0,0,1,4.08,3.81c1.16,2.2,3.57,1.77,5.42,2.51,5.4,2.59,5.24,9.33,9.68,12.69.56.43.44,3-.3,2.53-3.37-2.12-8.46.84-10.78-3.64a3.58,3.58,0,0,0-3.71-2.14c-2.88.16-.93,2.23-1.36,3.37-.76,2,.73,5.29-2.89,5.76-3.45.44-5.43-1.44-6.19-4.59-.4-1.62-.75-3.14-2.9-2.59-1.74.45-2.35,1.85-2.42,3.51-.36,7.78-5.73,10.13-12.35,11-4.39.6-7.33,2.09-7.31,7.38,0,9-4.46,17.05-6.5,25.64-.87,3.66-3.43,5.65-7.72,5.88-7.74.42-12.11,4.52-13.46,11.73-.38,2,.34,3,2.54,2.19,2.7-1,5.37-2.06,8.12-2.85,4.54-1.3,8.78-1.17,11.79,3.2,2.26.92,1.06,2.54.69,3.87a15.92,15.92,0,0,0-.6,7.15c.24,1.28.52,2.86,2,3.12s2.13-1.28,2.69-2.44c1.24-2.59,1.39-5.46,1.84-7.51a84,84,0,0,1,.54,27.24,6.68,6.68,0,0,0,1.48,3.92c.27,1.64.53,3.28.8,4.92,2.93-.1.7-2.92,2.08-3.83.37-2.29-.24-4.73,1.15-6.85,2.81-3.14,2.31-6.88,2-10.6-.59-6.55-2.26-13-2.41-19.41.34.75.29,1.8.6,2.74,1,3.15.43,8.5,4.34,8.47,3.65,0,3.85-5.32,4.75-8.59,2.24-8.11-.4-15.74-2.37-22.26,2.63,5.43,5.82,11.93,7.89,18.91.69,2.34,1,5.37,4.64,5.39,4.55-8.69-2-16.13-3-24.21-.63-5.46-2.93-10.74-4.78-17.12,6.75,8.52,9.68,17.67,12.94,26.65,1.49.07,1.92-1,2.36-2.09,1-7.66-.57-15.35.21-23-.62-.57.39.29.16-.56-.18-.68.25-.81.21-.42a30.82,30.82,0,0,0,.66,10.74c.88,2.94,1.63,5.93,3.26,8.58.67,1.1,1.28,2.67,2.78,2.45,1.9-.27,2.15-2.19,2.06-3.61-.29-5.2-.73-10.35-.51-15.59.13-3.24-.08-6.53.27-8.8-.42,3.06-.84,7.11.61,11.08.52,1.81,1.36,3.36,3.3,4,4.13-1.51,2.19-5.57,3.55-8.25.11-6.26,1.57-12.36,2.87-18.2.27.26-.17.92-.17,1.55,0,2.44.28,5.57,3.07,5.57s1.49-3.47,2.3-5.28c.14-1.41-1.56-1.87-1.69-3.16.81.33.73,1.36,1.46,1.78.81,1.39-.38,3,.45,4.3,1.2,1.93,2.45,2.74,3.53-.12-.6-4.81.44-9.51,1.06-14.23-3.2-1.12-6.7,1.72-10.18-1.17,7.76-2.29,6.65-8.59,5.21-13.65-1.18-4.13-6-5.07-10.45-4.8-1.08,1.25-.63,2.37.65,3.85C871.17,846.32,870,845.15,868.62,844.36Z" fill="#3e3229"/><path d="M668.06,729.91c.92,5.1,3.21,8.83,8.86,10.06a9.1,9.1,0,0,1,4.72,3.41c2.53,3.4,4.12,6.16,8,.69,1.5-2.12,5.86.43,7.68,2.37,3.79,4,7.22,4.57,11.28.8.2-.32.5-.89.66-.84.43.12.23.22-.28.45-.79.36.33-.14-.38.39.56,11.36,9.1,22.7.21,34.09-2,2.62-3.8,5.15-4.55,8.56-.79,3.59-1.21,6.79,1,10a6.39,6.39,0,0,1,.63,5.72c-2.11,6.14-2.18,12.43-1.85,18.8.09,1.61.76,4-1.73,4.26s-3.12-2.24-3.39-4.12c-.4-2.81-.15-5.74-2.9-7.67-1.07-.75-2-2-3.46-1.43a3.19,3.19,0,0,0-1.91,3.18c-.31,12.94-3.55,25.67-.57,38.94,1.16,5.19,2.15,13-4.44,17.57-.34.23-.1,1.25-.13,1.91,5.25,11.86,12.19,22.81,18.46,34.1,7.19,12.94,18.5,22.23,26.14,34.47.63-11.56-6.39-19.46-12.46-28.36A138.59,138.59,0,0,1,706,895.52c-1.68-3.8-3.56-7.52-5-11.39-1.24-3.25-4-6.89,1.28-9.44,1.53-.74.93-2.19.62-3.49a7.85,7.85,0,0,1,.92-6.34c4.86-7.33,3.94-15.68,5.23-23.8,1.88-11.77.14-23.61,2.73-35.31,2.12-9.57,4.35-19,8-28.13a26,26,0,0,0-1.57-22.73c.12-4.39,2.23-8.84-.37-13.16,1.57-6.86-.7-9-8.93-7.44-3,.55-4.93.92-7.49-1.56-2.33-2.27-6.17-1.71-9.43-.85C683.71,734,675.64,734.92,668.06,729.91Z" fill="#3c342e"/><path d="M598.67,727.79c9.88.18,19.77.31,29.65.55a11.74,11.74,0,0,0,8.9-3.31c7-6.34,12.35-4.39,15.82,4.22,1.59,4,6.17,2.69,9.74,2-4.89-12.08-8.55-24.94-20.9-32.33-8.15-2.27-15.24.6-22.09,4.52a52.69,52.69,0,0,1-28.87,7.08c.92-2.84,4.69-5.38.42-7.53-4.09-3.25-7.86.72-11.87.64-4.43-.09-7.18-.83-7-5.78a2.93,2.93,0,0,0-3.69.05c-2,1.82-3.36,4.22-5.31,6.2-3.37,3.41.43,5.54,3.83,6.72,6.39,1.69,12,5.73,19.13,5.43,3.69-.15,4.58,3.26,4.92,6.65C591.81,727.11,593.44,730.29,598.67,727.79Z" fill="#382b23"/><path d="M747.22,754.17c-3.18-2-1,5.91-5.1,1.24-1.13-1.28-2.6.73-2.11,1.92,2.17,5.21-.5,11.49,4,16.24,2.39,2.5,1.75,5.23-1.4,7.1a7.67,7.67,0,0,0-3.73,5c3.39-2.06,6.37-3.17,8.31-5.23s8.27-1.29,6-7.3c-.26-.68,2.67-.9,3.87.29,1.55,1.55,2.66.85,3.93-.31s1.12-2.56.86-4.18c-.43-2.6-2.15-2.55-2.84-.92-1.4,3.26-4.19,2.62-5.84,1.83-2.34-1.11-.12-2.87.59-4.34.58-1.19,1.07-3-1-2.84C745.22,763.21,746.84,758,747.22,754.17Z" fill="#48372e"/><path d="M643.11,695l-5.05-9.15c-2.81,2.56,1.69,4-.35,5.77-.8.68-1.38,3.32-3.16.75-4.08-5.9-12.2-3.6-16.87-8.52,2.58,1.41,2.33,5.32,6,5.52-3,2.57-5.52,3.13-8.25.88-2-1.64-3.56-4.13-6.76-3.41,4.15,7.11,4.28,8.12,12.81,7.09,6.11-.74,11.68,4.47,17.77.69.48-.29,2.57,2,3.92,3C643.16,696.74,643.13,695.85,643.11,695Z" fill="#382b23"/><path d="M717.75,741.73c-.18,4.39-1.72,8.83.37,13.16,3,.1,1.42-3.21,3.25-4.19,1.46-.78,2.7-3.35,4.35-2.23,7.08,4.84,5.37-5.86,10-5.4.38,0,0-2.37-1.22-2.21C728.92,741.61,723.23,739.69,717.75,741.73Z" fill="#463d37"/><path d="M864.7,847.11a7.48,7.48,0,0,0-5.42-2.51l-9.21.25A19,19,0,0,0,864.7,847.11Z" fill="#503e35"/><path d="M826.78,776.35c2,1.9,2.47,4.42,5.08,4.82.86.13,1.54-1.1,1.18-1.95C832,776.87,830.47,775.29,826.78,776.35Z" fill="#503e35"/><path d="M827.05,691.33c-1.5,2.89-1.85,5.3,2.13,6.6,3,1,2.75,3.63,1.15,5.18-3.87,3.77-5,6.78-.67,11.33,2.43,2.56.45,5.27-3.08,6.81-4.46,2-3.19-1.83-4.13-3.44h0c-2.77,1.69-4.43,3.85-4.53,7.34-.06,2,0,2.86,2.18,2.23,6.45-1.86,5.52,1.66,4.19,5.56a6.34,6.34,0,0,0,0,1.95c2,1.74,1.73,4.37,2.33,6.59.51,1.85-2.27,4.85.62,5.66,2.57.72,3.6-2.44,4.55-5.9,1,5.11,2.75,8.07,7.44,7.79,2-.12,3,1,4.11,2.66,4,6.33,6.35,6.16,10.26-.49.45-.76.82-1.57,1.93-3.71,1.41,5.16,4.23,6.52,7.16,8,.93-2.73-2.45-3-2.35-5,4.76-1,9.54-2.39,14.46,1.61-2.38-5.59-5.34-6.9-10.82-6.05-3.12.48-1.73-5.37-5.88-4.49-.88.19.37-1.06.76-1.59,2.35-3.19,3.37,1.37,5.23,1-.32-6.65,3.61-9.74,9.39-11.33,0-2.34-3-5.1-.92-6.65,2.83-2.08,6.41.7,9.76.85,2.89.12.15,3.61.51,5.57l6.34,1.55c1.66.4,2.43-.62,3-1.9s1.67-2.69.16-3.47c-3.63-1.85-5.74-6.51-11.28-5.66,2.14-3.76,5.9-6.22,6.58-10.44-3.35.32-3.1.31-3.23-3.1-.07-1.83-.65-4.58-1.91-5.25-5.14-2.73-5.88-7.62-7.28-12.29-12.35,2.69-25,1.12-37.4,2.25-.88,1.46-1.8.16-2.71,0A8.05,8.05,0,0,0,827.05,691.33Z" fill="#594539"/><path d="M983.65,566c-2.58-1.88-6.42-1.26-8.84-4.41,3.09-1.8,5.15,1.79,8.54,1-2.37-1.75-2.69-3.73-1.27-5.84-.44-3.54-3.42-3-5.46-2.76-6.76.72-13.27-.64-19.61-2.36-7.13-1.93-14.56-.19-21.49-2.55,3.53.08,7,2.1,10.73.72,2.46-1.93,3.69-3.9-.2-6,7.33,4,11.61,2.69,14.82-4.53-1.25-5-6-5.53-8.9-4.1-5.79,2.87-11.22.81-16.76.68a53.94,53.94,0,0,0-27,6.24c-1.56,2.11-1.44,4.45-.64,6.72a4.07,4.07,0,0,1-1,4.65c-.67,7.07-3.74,13.59-4.86,20.56,0,5.19.3,10.26,5.14,13.66,10.49.64,20.93,2.06,32.25,1.78-3.51-3.06-5.18-6,1.15-8.21a36.71,36.71,0,0,0-22.38.68c-4.38,1.58-6.5-1.78-9.8-1.23-.18,0-.85-1-.76-1.5a2.21,2.21,0,0,1,2.44-1.74c17-.25,34.11-3.58,50.69,3.31,4,1.66,7.62,4.76,12.25,4.6,4.25-.15,9.25,3.42,12.58-2.42.68-1.19,2.85-.79,4.36-.2.59-1.52,1.43-2.63,3.38-2.25a5.84,5.84,0,0,0,1.77-.24c-4.08-4.6,5.07-6.49,2.28-10.82-9.65,2.9-19.51,3.77-29.14.74-11-3.48-22.33-4.57-33.68-5.86a20.05,20.05,0,0,0-9.08,1c-3.75,2-8.09,1.16-12,2.54a96.22,96.22,0,0,1,10.67-1.81,11.4,11.4,0,0,1,7.57-2c11.37,1.38,23,1.3,34,5,2.82,1,5.64,1.78,8.17-.34,1.43-1.2,1.87-.19,3.06.32C979.73,570.42,982.72,570.21,983.65,566Z" fill="#4c4743"/><path d="M831.26,648c5.5,3.11,10.19-.83,14.9-2.19,6.79-2,12.35-6.94,19.22-9.18,1.4-.46,3.93-2,1.4-4.41-2.06-.24-1.78-2.91-3.61-3.42a5,5,0,0,0-4.52.58,4,4,0,0,0-.94,2.6c.23,1.76-.69,2.65-2.2,3.52a51.3,51.3,0,0,1-12.81,5c-1.4.36-3.86,3.33-4.6-1.25-.24-1.49-12.49.15-13.69,1.89-1.32,1.92-.34,3.19,1.44,4.19,1.41.8,3.66-1.32,4.49,1.33A2.62,2.62,0,0,0,831.26,648Z" fill="#776e6a"/><path d="M864,630c-.49,1-1.12,2,.09,2.84a1.6,1.6,0,0,0,2.66-.6c.2-.55.4-1.11.59-1.66,3.78,2.26,5.09.91,4.82-3.1-.08-1.3,1.12-1.61,2.23-1.73,2.91,0,3.11-2.45,4-4.31,5.29-2.68,7.88-8.49,13.42-11.11,2.05-1-.94-3.86-.22-6a3.92,3.92,0,0,0,.1-2.82c-1.5-1.12-2.58,0-3.38.89C880.26,611.68,871.94,620.67,864,630Z" fill="#797370"/><path d="M891.11,601c.16,1.15.31,2.29.47,3.43,1.75-2.63,3.37.17,5.59.18-.87-3.48-2.71-7.26,2.19-9.28.63-.26,1.1-1.93,1-2.83-1-6,3-5,6.52-4.74a40.71,40.71,0,0,1-4.18-13.1c-.43.11-1,.21-1.16.55C897.73,583.64,893.81,592.06,891.11,601Z" fill="#76716d"/><path d="M829.92,650.4l1.34-2.38-.17-.5c-5.71-3.33-11.29.1-16.94.3-2.48.32-4.94.68-5.89,3.51-.07,1.25.73,1.82,1.76,2.24h0c3.6,2.4,6.53.92,9.3-1.54h0c3.71.55,7.49,1.54,10.62-1.62Z" fill="#685f5b"/><path d="M878.38,621.45l-4,4.31c.52.87.85,2.21,1.61,2.53,1.37.58,1.73-1,1.91-1.85A39.2,39.2,0,0,0,878.38,621.45Z" fill="#776e6a"/><path d="M952.87,748.72a72.83,72.83,0,0,1-1.39,15.52,11.1,11.1,0,0,1-3.53,5.55,302.12,302.12,0,0,0,1.55,40.47c1.68-1,2-2.24,2-4.29a72.55,72.55,0,0,1,1.67-20.3c.45,3.28.78,5.75,1.15,8.43,2.59-2.18,2.25-4.79,2-7.36-1.07-12-.86-23.91,2.47-35.59.87-3,.4-6,.27-9.08-2-1.81-.65-4.69-2.28-6.88-.19,2.77-.36,5.31-.54,7.86C955.74,745.31,954,746.82,952.87,748.72Z" fill="#604c43"/><path d="M918.14,852.27l-1.11,0a227.35,227.35,0,0,0,1.33,52.59,4.2,4.2,0,0,1,.72,2.46c.07,1.51,0,3.43,2.2,3.2s2-2.19,1.69-3.62c-1.23-5.56,2.85-11,.16-16.57C920.58,877.78,917.35,865.28,918.14,852.27Z" fill="#453830"/><path d="M936,856.93c-.51-7.2-.82-14.45-4.37-23-1.75,12.09,1.38,21.95,2.7,31.94a49.72,49.72,0,0,0,1.9,6.84c6,.68,4.19-4,3.79-6.38A19.43,19.43,0,0,0,936,856.93Z" fill="#503e35"/><path d="M946.94,817.23c-4.7-8.68-3.28-18.67-6-27.77-.87-2.89-1.35-5.9-2-8.85l-1.06,2.88c-1.44,10.8,2,20.81,5.49,30.71,1,2.83.73,5.58,1.32,8.32,2.37.44,1.23-1.86,2.08-2.61Z" fill="#503e35"/><path d="M926.73,855.43c-2.59,1.58-.17,5-2.52,6.68.77,6.37,1.55,12.74,2.45,20.22,2.5-6.82,5-12.58,1.25-18.7C926.31,861,927,858.17,926.73,855.43Z" fill="#453830"/><path d="M937.38,816c-4.6,8.74-4.2,16.31.68,24.87Z" fill="#503e35"/><path d="M946.34,860.85c.48-8-.75-14.74-1.82-21.88C938.88,846.7,942.38,853.27,946.34,860.85Z" fill="#503e35"/><path d="M948.84,838l1.65,3.8c2.18-4.7.48-9.53.46-14.3l-2.09,2.61Z" fill="#503e35"/><path d="M842.36,956.44c.64-5.24,2.07-10.66-3.77-14.75-.69,4.14-1.36,8.12-2,12.1-1.74,4-.13,8.12-.61,12.16-.06,7.07.49,14,3,20.75C839.87,976.59,838.65,966.24,842.36,956.44Z" fill="#3e3229"/><path d="M860.82,967.74c3.06-6.58,4.94-12.71.36-19.69-1.76-2.68-.5-7.27-.7-11-.11-1.79-.59-3.88-2.79-3.67s-1.22,2.35-1.4,3.75A54.83,54.83,0,0,0,860.82,967.74Z" fill="#3e3229"/><path d="M889.94,900.94c-1.92-5.3-2.1-10.93-3.34-16.46.81,10.94-5.08,21.47-1.61,32.47.28.91-.3,2.48,1.35,2.33.54,0,1-1.33,1.44-2l2.37-13.1Z" fill="#3e3229"/><path d="M885.59,932.2c-.78-6.17-2.11-12-5.66-17.48-2.85-4.41-.82-10.19-1.39-15.32-.41-3.69-1.33-1.74-2,.05-3.09,3.42-2.61,7.57-2.46,11.66.59,3.16,1.43,6.27,2,9.44,1.18,2.53.47,5.74,2.86,7.85,1.53-.83,3-1.47,2.88,1.27C883.23,930.35,883.4,932.72,885.59,932.2Z" fill="#3e3229"/><path d="M869,921l-4.12-6.71c-.4.5-.79,1-1.19,1.49,1.23,4.51,1.4,9.38,5.58,14.89Z" fill="#3e3229"/><path d="M872.61,946.89c.43.93.24,2.2,1.5,2.68l2.61-13.15c.69-2.91.69-5.66-1.79-7.86-3,4.56.9,10.06-2,14.64C871.61,944.33,871.63,945.57,872.61,946.89Z" fill="#3e3229"/><path d="M848.64,951.63c.25,1.57.45,3.13-.64,4.51.37,2.21-1,4.58.78,7,1.38-3.79,3-7.26,2.85-11.17,0-1.2,0-2.81-1.93-2.44C849.22,949.61,849,950.9,848.64,951.63Z" fill="#3e3229"/><path d="M859.53,920.4c-2.54,2.88-2.35,5.76-1.48,9.33C860.42,926.66,860.58,923.84,859.53,920.4Z" fill="#3e3229"/><path d="M900.94,931.69c5.11-9,2.9-32.91-3-40C890,905.74,900.92,918.23,900.94,931.69Z" fill="#3e3229"/><path d="M910.41,881.42c-5.42,11.38-4.6,22.87-.68,34.87C915.13,904.51,912.12,893,910.41,881.42Z" fill="#3e3229"/><path d="M893,863.51a2.85,2.85,0,0,0-2.65,1.71c1.23,7.77,2.52,15.54,2.2,24.68C899.94,880.29,893.59,871.89,893,863.51Z" fill="#3e3229"/><path d="M555.86,626.19c-5.24,3.87-6.21,10.76-11.72,14.92-5.24,4-8.28,10.75-13.94,14.6-4.65,3.15-.06,7.48-2.06,10.87-.11.18,2.29-.52,3.55-.29,2.71-3.8,7.25-5.42,10.49-8.6-3.22,3.2-7.7,4.9-10.5,8.6,1.3,5.33-4.85,1-5.35,4,3,3.18,6.29,1.64,8.52.93-4.05,5.13-8.41,11.39-15.19,15.21a32,32,0,0,0-14.72,9.35c-2.52,3.81-.88,6.9,1.64,10,1.76,2.15,3.55,3.2,6.06,1.2-1.12-9.48,3.89-13.45,12.7-15.71,5.49-1.41,9.38-6.73,14.69-9.38,2.54-1.28,2.39-3.15.6-6.18,3.3.86,6.29,2.56,9.26.5,1.75-1.65,4.18-3.56,1.23-5.73-2.6-1.91-.38-1.43.55-2,1.89-1.1,3.07-3.07,5-4.19,1.28-.84,2.53-1.73,3.84-2.54,2.91-1.82,1.9-4.38-.35-4.81-3.57-.68-3.81-2.14-3-5,.31-1.1-.35-2.09-1.78-2.12.17-.6-2,1.6-.49-.36,1.06-1.42,4.38-1.77,3-4.2s-4,0-6.52-.43c1.22-6.25,6.7-9.93,9.23-15.24a5.84,5.84,0,0,0,1.28-3.39C559.91,622.34,557.86,626.39,555.86,626.19Z" fill="#908984"/><path d="M505.94,696.2c4.49-3.23,8.74-6.83,14.16-8.57,1.64-5.55-.46-9-5.87-9-3,0-6.1,0-8.79,1.74-4.85.23-7.8,4.77-12.61,5.31-1.46.17-.92,2.2-.83,3.44.29,4.13.66,8.26,1,12.38l2.19,5.59c3,2.8,4.21.14,5.54-1.78C502.72,702.39,503.15,698.63,505.94,696.2Z" fill="#201e1c"/><path d="M505.44,680.33c2.36-.08,4.73-.1,7.09-.25,5.48-.34,8.12,2,7.57,7.55,2.07-.16,4.75.54,4.46-3a3.9,3.9,0,0,1,.11-1.2c8,0,6.42-10.46,13.22-11.82,1.11-.22,2.93-.92,2.15-2.57-.92-2-2.49-1.23-3.74-.08-3,2.76-6.57,1.45-10,1.41Z" fill="#554e4a"/><path d="M555.86,626.19c1.88,3.2,3.54-2.17,5.4-.14,2.83.68,4.79-.57,5.56-3.1s-1-3.44-3.25-3.63l-5,2.89C557.66,623.54,556.76,624.86,555.86,626.19Z" fill="#645c5a"/><path d="M955,440.07l-3.09-2.29c-23.61-1.37-45.74,5.34-67.85,12.14-.42.13-.95.14-1.25.41-6.13,5.47-8.58,1.61-10.37-4-2.82-2.49-6-4.31-6.59-8.87-.52-4.31-4.29-.74-6.52-1.42-1.11-2.67,1-4.44,1.85-6.55a4.36,4.36,0,0,0,.36-1.85,2.42,2.42,0,0,0-2.23-1.52,13.23,13.23,0,0,0-9.64,5.36c-.46.46-1,1.32-1.46,1.21a39.74,39.74,0,0,1-11.2-4.91c-1-.56-.35-2-.27-3.09a5.77,5.77,0,0,0-.3-2.76,2.16,2.16,0,0,0-2.29-1.28c-3.23,2.42-6.19,4-7.34-1.86-.46-2.39-2.19-2.67-3.91-1.39-5,3.76-10.08,2-14.77-.33-3.61-1.81-4.23,2.28-6.63,2.44-2.18-.43,0-4.44-3.26-3.93L797,417c-3.05,2.78-4.48-1.14-6.74-1.61-2.41,1.38-4.81,3.52-7.28.08a2.62,2.62,0,0,0-1.76.43c-4,5-9.87,3.75-14.81,3.45a50.71,50.71,0,0,0-16.85,2.1c-3.65,1-6.87,1.27-9.78-3.05-1.71,6.55-4.08,11.21-11.16,10.36-1.11-.14-1.8,1.31-1.85,2.42-.09,2.17-.17,3.31-2.5,1.15-1.36-1.26-2.4.23-2.89,1.47-.82,2.12-3.12,2.11-4.33,3.11-3.56,2.92-6.58,6.33-10.47,9.09-1.73,1.22-3.17,4.23-6.08,5.21a3.28,3.28,0,0,0-2.28,3.62,5.8,5.8,0,0,0,2.66,3.8c5.83,2.2,9,7.2,13.06,12-4.47-4-9.75-5.88-14.57-8.5-1.62-.88-3.84-2-4.68,1.18a4.08,4.08,0,0,0,.52,1.77,8.77,8.77,0,0,0,4.08,3.26c5.6,2.13,7.63,6.63,8.86,12.15-3.55-.39-5-3.14-7.14-4.85-1.73-1.37-3.33-3-5.41-3.76s-4.82-4.13-6.79-1.11c-1.49,2.27,1.63,4.12,3.55,5.54a43.54,43.54,0,0,1,9.77,9.77c-3.7-.64-5.78-3.69-8.54-5.71-2.93-2.13-7.15-6.3-9.51-3.26-2.76,3.55,3.27,4.89,5.61,7.08.32.3.76.47,1.08.76,2.22,2,6.28,4,3.92,7.17s-4.79-1.05-7.16-2.07c-3.47-1.5-6-5.33-10.61-4a3.68,3.68,0,0,0-.1,3.62c2.92,3.45,7.45,4.57,10.9,7.28,2,1.53,2.84,2.2.67,4.95-5.38,6.81-6.76,7.4-14.72,2.5-2.06-1.27-4-2.88-6.65-1.39-1.22,2.22.31,3.45,1.73,4.72,1.31,1.64,5.13,2.18,2.47,5.56-.12,1.6,0,3.19,0,4.8.93,2.33,2.2,4.35,4.78,5.21a2.88,2.88,0,0,0,1.75-.54c1.91-1.8.14-3.69.09-5.62,1.74.41,3.29,1.28,5.17,1,4.94-.81,8.59.69,10.68,5.61,1.49,3.5,4.61,4,7.81,2.4,8.32-4.23,16.58-3.26,25.12-.64,5.21,1.6,11.13.59,15.94,4a3.93,3.93,0,0,0,1.27.37c3.65.09,4.32,5.08,8.27,4.79,11.27-.84,22.75,2.3,33.74-3.68,7.44-4.06,12.4-9.55,13.61-17.39a31.09,31.09,0,0,1,13.85-22.05c4.43-3,7.68-7.19,11.62-10.67,8.15-7.22,19.14-8.8,28.53-13.62,4.62-2.38,10,.54,14.95,1.38,1.93.32,3.74,1.51,5.79.58,1.74-5.09,1.91-11.07,8-13.64a14.52,14.52,0,0,1,6.65-2.89c11.89-1.42,23-6.06,34.91-7.85,9.22-1.39,18.23-2.67,27.52-2.41C952.81,442.45,955,442.83,955,440.07Z" fill="#3a3531"/><path d="M699.11,455c-.08-3.11,2.54-2.66,4.27-2.85,4.48-.49,6-2.4,3.42-6.38,3.66-1.87,12.43,2.52,7.72-8.46,6.45,3.94,8.18,1.07,8.22-4.5,1.73,2.25,3.29,3.92,6,4.66-.17-2.56-1.67-5,.19-8,2.93,6.15,4.3-.6,6.89-.61,5.41,0,3.19-4.84,4.37-8.42,1,3.31,1.08,5.75,5.77,3.64,9.06-4.08,19.35-3.39,29-3.19,5.07.1,6.07-1.48,7.15-5-3.58-2.34-.38-6.65-2.78-9.33-3.43-.2-3.64,3.25-5.8,4.64,2.22-3.81,2.81-8.48,7.68-12.32-1.66,2.7-2.4,4.52-1.16,6.38,2.58,1.21,3.42-1,4.71-2.34,1.62-1.63,2.55-4,5.84-4.81-2,4.68-5.86,7.67-7.55,11.88-.76,1.89-2.85,3.59-.93,5.9,3.27,6.79,3.27,6.79,8.07-.11-.08-.28-.15-.57-.23-.85-2.05-7.34,4.49-10.8,7.36-15.91,8.09-8.19,15.2-17.38,25.09-23.7.89-.57,1.77-1.36,1-2.64l-3.75-.14c-3.31,0-5.41,1.33-7.55,4.14-3.84,5-8.6,9.39-13.05,13.95-1,1-1.95,3-3.74,1.56s-1.31-2.84.1-4.48c4.1-4.73,8-9.61,12.83-15.43-5.13.91-7.24,3.82-9.08,6.53-3.18,4.7-8.28,7.78-10.74,13.08-.65,1.41-2.65,2.92-4.41,1.62-2.24-1.65,0-3,.94-4.3,2.94-4,5.92-8.05,9.16-12.44a4.6,4.6,0,0,0-6.24,2.86c-2.12,5.67-6.57,7.65-11.9,8.73-.27,1.79,4.24,4.21-.91,5.45-.07-1.91.61-3.65,1-5.43-.31-2.18,1.88-3.38,2.3-6.14a13.42,13.42,0,0,0-5.71,5.29c-1.26,1.83-2.42,2.28-4.32,1.09-2.64-1.65-.57-2.83.35-4.15s2.91-2.13,2.45-4.66c-7.57,1.32-7.06,11.9-15.85,12.72,2.87-4,3.43-8.66,7.19-11.58-.61-.2-1.74-.63-1.77-.58-2.82,6.32-11.48,6.08-14.27,12.38l-10.5,3.36c-1.62-.88-1.77.67-2.21,1.43-1.21,2.07-2,4.4-3.47,6.29-1,1.29-1.8,4.22-4.63.85-1.9-2.26-2.91,2-4.78,2.46-.25,2.11-2.1,3.19-3.09,4.8-2.06,3.32-3.25,1-4.69-.41-2.23,7.26-9.11,11.45-12.25,18.13-1.42,3-3.45,1.48-5.48.48-7.69-3.77-16-5.23-24.55-7.41.25,4,4.11,1.74,4.89,4,3.5,2.89,8,3.07,12.08,4.6,2.83,1.07,6,1.61,7.46,4.71.2,3.27-.48,6.89,3.45,8.71,2.61.58,3.12-1.49,4.08-3-.57,2.15.17,5.83-4.29,3.43-1.82-.52-3.23-.19-3.94,1.73C695.46,449.85,694.81,453.79,699.11,455Z" fill="#69615b"/><path d="M835.59,422.28v2.61c1.73,5.6,3.46,6.51,7.37,2.94,7.26-6.64,16.77-9.76,24.35-15.95,4.11-3.36,10-3.38,15.22-4.2,3.85-.6,6.64-2.13,8.59-5.36-1-1.2-2.43-1.61-3.46-.64-3.49,3.28-6.21,1.87-9.08-1.2,6.68-4.22,15.3-1.53,21.64-6.26l0,0c-8.42-2.76-16.69,1-25.06.61-1.15-.05-2.69,1.3-2.8-1.09a2.24,2.24,0,0,1,2.3-2.6c3.54-.2,7.09-.28,10.63-.53,1.35-.09,3.31.62,3.29-2s-2-2-3.31-1.84c-6.64.68-13.28,1.38-19.88,2.35-1.51.22-2.74.41-3.28-1-.76-2,1.14-2.08,2.28-2.28a73.3,73.3,0,0,1,10.38-1.4c3.66-.11,6.39-1.25,8.94-5.87-13.82,3.79-26.64,6.72-39.77,7.91a2.76,2.76,0,0,0-4.26.38c-5.2,9.88-13,17.38-23.15,24.7,2.17-2.73,4.22-3.52,5.49-5.13s2.77-3.44,2.85-5.78a2.38,2.38,0,0,0-2-1.81c-3.11,4.07-6.44,7.95-10.83,10.75-2.21,1.41-4.33,3.67-7.39,1.71-5.57,2-4.74,6.21-3.61,10.48,3.19.41,3.64-2.63,5.7-5,1.19,3.83,2.14,8.76,6.58,3a1.88,1.88,0,0,1,1.76-.12c4.38,5.23,7.09,1.63,10.68-4-2,6.56,1.48,8.87,4.16,10,2.88,1.24,3-2.89,4.45-4.61a13.71,13.71,0,0,0,3.14-2.05A9,9,0,0,0,835.59,422.28Z" fill="#776f6b"/><path d="M850.59,432.49c2-3.57,5.94-4,9.13-5.63,3.94-1.56,9.18-1,10.74-6.46-.52-1.25-2.25-.9-2.92-2.09,2.1-.52,2,1.8,3.27,2.32,7.25.08,13.74-3.42,20.81-4.24,6.47-.75,12.36-4.21,19-4,6.34-1.91,13.28-.47,19.42-3.41-3-4.55-7.73-3.42-11.73-2.72-3.27.57-4.63.32-4.59-3.06.45-1.3,3.54-.27,2.57-2.83l-1.1-2.15c-4.1,3.05-9.38.24-13.6,2.68,1.67,3.76,5,.91,7.55,1.88-8.4-.11-16.6-.1-23.86,4.6a4.73,4.73,0,0,1-2.58.52c-12.8,0-21.76,8.46-32,14.16C846.2,424.6,846.25,428.57,850.59,432.49Z" fill="#7d7570"/><path d="M850.59,432.49c-1.51-4.36-3-8.42,3.23-10.87,3.61-1.44,6.87-3.91,10-6.24a24.88,24.88,0,0,1,14-5c8.12-.46,15.13-5.63,23.46-6.36,3.2-.28,7,.6,10.28-1.72-3.49-1.4-7.06.93-10-1.45-3.67-.65-7,1.19-10.53,1.46-5.27,4.07-12,3.39-17.87,5.51C861.9,412,852,418.92,842.7,426.27c-4.38,3.47-5.29,1.87-7.12-1.38-2.81,4,1.62,7,3,6.66,3.68-.92,4.67,1.11,6.47,3.07C848.5,438.37,849,433.89,850.59,432.49Z" fill="#5a5451"/><path d="M790.18,415.74c1.71,1.09-.18,4.36,3.07,4.64,2.72.24,3.3-1.35,3.7-3.36-2.5-2.5-2.18-5.17-.09-7.59A348.5,348.5,0,0,1,827.2,379c2.06-1.86,5.29-.86,7.73-4l-7.2.2a16.12,16.12,0,0,0-8,4.1c-6.14,5.83-12.54,11.41-17.75,18.14-2.41,4.26-6,7.57-9.23,11.17-1.67,1.86-4.28,3.47-3,6.69Z" fill="#69615b"/><path d="M803,398.2c7.76-8.17,15.36-16.5,24.71-23-2.08.21-2.74-1.94-4.33-2.55-10.64,6.91-19,16.13-27.09,25.7C798.6,400.5,800.79,398.4,803,398.2Z" fill="#817b77"/><path d="M801,421.75c.87-3.6-.18-7.86,3.61-10.48,8.22-7.94,15.37-16.85,24.54-24,4.73-3.68,10.47-5.26,16.37-9.58-9,.36-15.24,3.91-20.42,8.55-9.91,8.86-18.5,19-26.87,29.33C800.83,416.91,795.48,421.72,801,421.75Z" fill="#69615b"/><path d="M822.82,398.81l1.51,1.39c7.42-1.38,11.39-7,15.65-12.32.9-1.55,2.47-1.32,3.91-1.43,3.19-3.4,8.08-2.84,11.68-5.2C841.68,381.59,831.58,389,822.82,398.81Z" fill="#605a59"/><path d="M900.21,394.22a23.6,23.6,0,0,0,10.34,1.71c-2.62-3.83-5.47-4.8-9.14-4.42-2.25.24-1.72,1.39-1.24,2.67Z" fill="#776f6b"/><path d="M916.34,400.33l-2.57,2.83c3.53-.17,7.14-.08,10-2.73Z" fill="#5a5451"/><path d="M563.57,619.32c5.24,4.27,0,5-2.32,6.73-.54.89-1.09,1.77-1.64,2.65.65,1.57.73,3.38,2,4.7,6.92,2.57,7.24,1.9,7.92-5.21.42-4.35,2-9.08,7.41-10.77,3.44-1.08,6.61-2.71,7.71-6.7,1.91,1,1.27,4.38,3.73,4a4.83,4.83,0,0,0,3.79-4.88c0-4.09,1.28-7.13,4.77-9.42a5,5,0,0,0,2.12-4.63,7.72,7.72,0,0,1,6.58-8.63c4.93-.82,7.3-6.1,12.85-5.61,2.78.25,6.74-10.44,5.1-13.38-2-3.65-4.3-6.83,1.76-9,1.82-.64,1.39-3,1.5-4.76.24-3.41,4.37-4.37,4.86-7.61-.55-3.27-2.79-4.41-5-2.21-3.67,3.62-6.75,5-10.57.48-.52-.61-1.66-.17-2.38.45-2,6.07-7.58,10.79-7.07,17.9a3.1,3.1,0,0,1-2.4,2.88c-11,3.3-19,10.75-25.59,19.45a26.51,26.51,0,0,0-5.23,15.69,7.28,7.28,0,0,1-2.66,5.09C567,610.12,565.2,614.63,563.57,619.32Z" fill="#524744"/><path d="M613.75,545.52c5,4.86,9.71,7.17,14.39-.55.85-1.42,2.17.33,2.84,1.45,1.94,2.33,4.34,1.79,6.77,1.07,2.37-.49,5-.62,4.42-4.24-.34-2,1-4.43,2.45-3.84,5.48,2.28,12.17-1.45,17,3.52,3.85,2.61,5.82-1,5.17-2.89-.89-2.59,2-3.31,1.28-5.18-.42-5.62-4.58-6-8.55-6.66,4.43-.22,8.23-1.86,7.74-7.65-5.9-4.39-9.65-10.39-12.86-16.81-1.22-2.42-2.64-4.38-5.27-1.27-.79,5,.06,10,1.45,14.79.65,2.22,1.06,3.83-.59,4.78-4.22-6.42-8-13.53-.51-20.83,1.4-6,.78-7-5.36-8a6.3,6.3,0,0,1-1.14.67c-9.34,2.82-15.84,6.71-16.39,18.56S618.83,534.75,613.75,545.52Z" fill="#3e3634"/><path d="M649.8,502.39c4.8,1.18,4.52,6.1,6.87,9.09,2.74,3.48,4.44,8,9.61,9a4.07,4.07,0,0,0,1.81.87c2.29-.19,4-.88,3.52-3.69a3.2,3.2,0,0,0-.05-3.89c.84-2.52-.37-4.57-1.59-6.61-.83-1.34-3-1.73-2.78-3.81,3.29-.79,6.09-2.08,6.64-5.9.41-2.88,3.16-4.71,3.58-7.59l-.06-3.95c.6-1.07,2.43-1.76,1.11-3.45-4.73-6.11,2-4.21,4-5.59.81-1.28.08-2.34-.49-3.42-1.79-2.37-.77-4.2.94-6.16,1.4-1.58,4-3.2,1.18-5.74-1.74-.94-2.93,1.58-4.67.74l-4,1.29c-.84.91,0,1.84,0,2.75,1.35,3.66-.86,5.36-3.75,6.68-.63,1.06-.41,2.25-.5,3.38-1.72,6.9-7.58,9.08-13.27,8.81-4-.19-7.09,1.21-10.58,1.92a4.64,4.64,0,0,0-2.87,2.15,3.64,3.64,0,0,1-.31,3.95c3.22,1.67,6.72,3.2,4.42,7.89A1.46,1.46,0,0,0,649.8,502.39Z" fill="#5b4e4a"/><path d="M694.89,447.11c.9-1.49,2.44-1.28,3.86-1.41.35-.25.49-.51.41-.8s-.18-.45-.29-.45a10.41,10.41,0,0,1-1.6-9.19c-8.35-2.39-16.28-6.69-25.48-5.07-3.31.58-6.6.87-7.92,4.63-3.22,3.77-9.12,3.75-11.89,8.16,2.92,2.92,4.35-2.28,6.93-1.23,2.25.43,3.79-1,5.37-2.12,7.52-5.4,15.51-3.94,23.54-1.66,1.93.55,3.13,1.69,2,3.88-3.24,5.93-8.67,4-13.46,3.4-5.59-.66-10.94-1.16-15.55,2.91a5,5,0,0,0-1.85,2.6c-6.12,4.82-13.07,8.82-17,17.41,6-3.69,8.61-10,14.67-11.83,2.9.21,4.8-1.77,6.93-3.17,6-3.91,12.11-2,18.22-.66.85.19,1,1.33,1.17,2.18.31,2,.73,4.14,3,4.58s2.69-1.84,3.7-3.15C691.83,453.34,694.15,450.67,694.89,447.11Z" fill="#544c49"/><path d="M644.38,489.23l2.29-1.15c7.9-5.95,16.24-11,26.34-12.39L671.6,473c-17.35-1.71-28.11,8.41-38.47,20.76C638.38,494.51,641.43,492,644.38,489.23Z" fill="#3c3734"/><path d="M691,442.12c3-1.86,4.16-3.64-.26-5.13-11.43-3.87-22.45-5.06-31.78,4.76l-1.38,3.94a3.37,3.37,0,0,0,4.27-.11c7.35-6.29,15.89-4.43,24.28-3.67C687.69,442.28,689.28,443.08,691,442.12Z" fill="#b4aeaa"/><path d="M679.43,462.25c1.56,3.78,2.55-.63,3.87-.27,2.15-2.7.37-4.92-.88-7.22-10.87-4.51-20.57-4-24.28,2.85-6.91,5.84-14.54,11-19,19.23,4.37-1.42,6.68-5.19,9.69-8.11,7.81-7.56,16.17-13.45,28.06-12C681.69,457.34,682.26,458.75,679.43,462.25Z" fill="#3e3835"/><path d="M691,442.12l-4.05-1.34a46.06,46.06,0,0,1-10.56-.35c-8.41-1.24-14.16,2.69-18.58,9.26l1.23,1.07c5.93-4.51,12.35-5.44,19.62-3.58,3.21.83,6.91,1.1,10.26-.7C690.78,445.46,692.35,444.56,691,442.12Z" fill="#9f9793"/><path d="M675.35,466.29c1.6-.9.25-1.83,0-2.75-12.06-3.81-20.29,3.49-28.34,10.14-5.83,4.83-10.45,11-16.87,15.4a19.69,19.69,0,0,0,10.22-6.18c5-5.79,11.62-9.33,17.68-13.68C663.41,465.39,669.46,466.5,675.35,466.29Z" fill="#3a3532"/><path d="M658.14,457.61c7.35-6.4,15.5-3.83,23.57-2,1.58.63,2-.61,2.62-1.57.5-1.51,2.07-3.3-1.16-3.74-9.63-1.33-19.26-2.72-26.51,6.08Z" fill="#948d8a"/><path d="M657.76,449.69c6.81-7.23,14.9-10.34,24.88-7.77a3.91,3.91,0,0,0,4.26-1.14c-10.51-2.57-20.49-2-29.37,4.91-2,3.74-7.88,3.44-8.89,8.66C652.39,453.89,654.66,450.93,657.76,449.69Z" fill="#463f3c"/><path d="M644.26,733.22c-14.71-1.66-30,3.07-44.22-4.13-8.81-1.73-17.79-1.69-26.67-2.58-6.64-.65-12.65.28-17.44,4.32-7.67,6.46-15.33,12.3-26.06,12l1.53,2.31c4.86,2.38,10.24,2.63,15.41,3.76,7.14,1.58,12.33-3.32,17.61-6.28,7-3.92,13.56-3.39,21-2.86,16.44,1.17,33.05,2.63,49.12-3.26C637.72,735.29,641.74,736.47,644.26,733.22Z" fill="#534d48"/><path d="M663.87,434.82c7.44-5.24,15.22-3.4,23-1.09,3.37,1,6.49,3.75,10.36,1.53-5.56-6.93-14.14-6.44-21.65-8.6-5.94-1.13-9.23,3.21-13,6.36C661.23,434.21,662.73,434.67,663.87,434.82Z" fill="#c1bab6"/><path d="M908.44,542.76c11.36-4.07,23-6.13,35.14-4.82a7.1,7.1,0,0,1,4,1.92,1.54,1.54,0,0,0,2.29-.14c4.15-4.71,6.15-4.64,10.41.35,3.59,3.53,8,2.15,11.92,1.33,1.68-.34,3.79-.51,5.32-1.75a11.09,11.09,0,0,1,8.32.11c1.89.76,3.85,1.45,5.73.49s5.39-.7,5.13-3.28c-.32-3.25-3.55-1.38-5.45-1.42a20.21,20.21,0,0,1-8.77-2.27h-5c-4.74,2.52-9.48.12-14.22,0-4.18-.12-8.27-1.18-12.46-1.25-6.86.25-13.75.88-20.21-2.36-1.18-.59-3.07-.94-3.84-.09-5.08,5.65-13.18,5.73-18.86,10.19A2.4,2.4,0,0,0,908.44,542.76Z" fill="#3a3531"/><path d="M983.65,566c-3.56,2.24-3.56,2.23-6.53-.27-1-.83-2.32-.92-2.9.11-2.79,4.94-6.22,2.26-9.68,1.08-11-3.75-22.67-2.31-33.86-4.7-2.77-.6-5.57,1.09-7,3.94h0c17.53-2,33.92,4,50.75,7,7.79,1.41,15.93,2.29,22.68-3.72-.17-3,.72-7.13-4.56-3.17C989.67,568.41,986.64,565.2,983.65,566Z" fill="#38322f"/><path d="M945.8,548.57c-5.24,1.42-9.87-2.47-15.75-2a10.07,10.07,0,0,0,10.06,5.25c8.72-1.42,16.73,1.52,24.64,3.36,5.91,1.38,11.93-2,17.33,1.58,3.2.5,6.32,1.27,9.67,1,3.79-.29,5-2.57,4.8-5.56-.33-4.22-3.23-1.43-4.86-1.15-3,.51-5-1.11-7.19-2.4a21.19,21.19,0,0,0-8.38-.75,57.56,57.56,0,0,1-20.23-.67A13.51,13.51,0,0,0,945.8,548.57Z" fill="#383330"/><path d="M945.8,548.57c4.49-1,8.93.11,13.1,1.16,8.75,2.21,17.09-.44,25.6-1.06-2.24-1.18-4.36-2.78-6.75-3.46-6.42-1.81-2.88-3.63-.2-5.56a75.31,75.31,0,0,1-17.24.42c-1.76-.72-3.33-.6-4.57.72,0,2.71,3.71.06,3.54,3-5.37.92-10.65,1.35-15.41-2.91C943.46,544.28,949.61,545,945.8,548.57Z" fill="#625c57"/><path d="M861.16,428.24c-3.74,2.68-5.29,6.06-3.33,10.7,1.93.65,2.82-1.43,4.33-2,1.84-.67,3.69-.51,3.05,1.49-2.29,7.09,3.86,6.16,7.21,7.91,9.64-6.27,21-7.14,31.76-9.9-.58-1.25-2.21-.49-2.93-1.49-5.9-1-11.16-1.05-17.1,2.11-4.1,2.18-9.3,3.25-13.55,5.81-5.05-5.81-2.13-8.39,3.74-9.9,3.17-.82,6.3-1.79,9.44-2.69.79-2,4.5-1.27,4.11-4.35-3.65-3-7.09-.79-10.56.42a44.39,44.39,0,0,0-7.57,4.06C866,432.61,863.16,432.31,861.16,428.24Z" fill="#57504c"/><path d="M901.25,435c.6,1.24,1.78,1.33,2.93,1.49,13.19-1.43,25.85-6.67,39.44-5.31,2.39.24,2.54-1,1.51-2.76a5.49,5.49,0,0,1-1.14-.1C929.27,427.53,915.4,432.14,901.25,435Z" fill="#3a3634"/><path d="M828.13,972a2.23,2.23,0,0,1-.32,1.09l.22,7.64c2.82-2.44,2.31-5.24,2.76-7.7C830.2,971.92,829.48,971.14,828.13,972Z" fill="#3e3229"/><path d="M887.8,426.27c-1,1.64-4.35,1.05-4,4,17.76-2.05,34.57-10,52.94-8.23a2.87,2.87,0,0,0,2.87-1.24l-1.29-1.41c-7.18-4-14.86-2.46-22-.8-8.79,2.05-17.57,4.2-26.39,6.19A3.61,3.61,0,0,0,887.8,426.27Z" fill="#413b39"/><path d="M984.19,490.83c1.93-.08,5.12.94,2.69-3-5.25-.75-9.23-5-14.67-5.2-21.31-1.73-42.59-2.34-62.31,2.05,6-7.43,16.71-4,25.28-7.63.4-.17,1-.37,1.29-.18,7.82,5.36,15.35-.38,23-.54,4.94,1,9.7,2.75,14.63,3.71,2.69.53,6.26,2,7.43-2.54l-3.07-2.46c-13.32-8.35-27.93-7-42.56-5.62-13,1.15-25.38,4.76-37.91,9.48,1.78-3.09,6.52-3,6.83-6.2.45-4.78,5.31-2,6.27-4.17,1.19-.89.81.82.56,0-.11-.35-.26-.22-.66,0-1.56.72-2.79,1.68-1.84,3.51s2.67,2.13,4.58,1.69c5.09-1.19,9.78-3.67,15-4.56,3.07-3.31,6.95-4.15,11.36-4.4,10.64-.59,21.14-.11,31.45,2.71l4.56-.13c-.32-3.2-3.23-2.6-4.68-3.84-5.91-5-13.16-5.44-20.45-6.1-20.21-1.85-38.94,2.83-56.7,12.06.44,1.08,2.39,2.2-.69,2.85-4.2.89-6.61,3.89-7.53,8,4.81,5.33,8,11.78,12.22,17.51,4.13.52,3,2.6,1.44,4.8.54,4.4,2.66,8.31,4,12.46,1.74,3.79,3.55,7.1,8.74,4,1.77-1.07,3.68,1.06,5.66,1.15,3.28-.07,6.61-.91,9.8.59a4.9,4.9,0,0,0,2.75-.4c5.41-4.35,11.18-7.33,18.57-6.08,3,.5,6.13-.4,9.17-1,2.35-.48,4.64-1,6.19,2s4.44,2.32,6.75.8c.93-.62,1-2.39,2.81-2.12,6.78,1,13.33-1.77,20.09-1.25,1.29.59,2.73.94,3.4-.62.5-1.15.64-2.71-1.13-3.25s-3.38-.86-5.08-1.28c-6.78-2.51-13.81-2.91-20.95-2.43-15,1-30-.41-44.92,1.65-4.67.64-9,2.26-13.21,3.67,2.59-1.56,5.76-2.13,8.52-4.12,3.09-2.23,7.33,0,11.13-.29,7.21-.53,14.48-1,21.76-.42a8,8,0,0,0,4.52-.95c6.91-4,14.27-4.08,21.88-2.85,2.32.37,4.84,1.18,7.05-.57,2-.51,4.49,1.1,6.13-1.25-2.36-2.64-5.53-2.84-8.76-2.87a40.81,40.81,0,0,0-20.69-3.65,58.34,58.34,0,0,1-14.57-.51c-8-1.41-15.57,2.53-23.52,2.29,1.53,0,2.6-.75,2.43-2.33-.15-1.36-1.47-1.51-2.57-1.52a8.12,8.12,0,0,0-5.87,2.66c-2,1.93-4.49,2.63-7.35,3.13,2.85-4.54,2.83-4.63,9.16-6.07,3.4-.77,6.81-3,9.63,2.08,1.53,2.76,5.26,1.63,7.1-1.16,2-3,4.71-3.52,8-3.61,9.93-.27,19.94-1.79,29.56,2C978.67,491.57,981.49,489.35,984.19,490.83Z" fill="#413d39"/><path d="M908.43,540.38c3.71-2.12,9.69-1.23,11.65-3.67,6-7.41,12-4.61,18.88-2.8,3.7,1,7.93-.06,11.92-.18,11.54-4.09,23.21-7.55,35.64-7.44,2.79-.06,5.66.28,8.34-.29,3.91-.83,4.55-2.78.81-5.11-11.86-.59-23.58,2.19-35.51,1.2-8.33-.69-16.73-1-25.09-1.35-9.94-.41-18.79,4.3-28.09,7C903.47,532.37,905.38,536.44,908.43,540.38Z" fill="#4c4743"/><path d="M994.23,512.71c-5.47-2.61-11.08.44-16.72-.3-2.42-.32-5-.66-7.22-1.06-3.2,1.25,2.44,3.49-.76,4.27-1.94.48-4.14.63-3.18-3.09.38-1.43-2.82-1.53-4.5-1.36-7.6.79-15.05,2.47-22.92,1.56-1.76-.2-6.74,3.31-8.45,7.06,2,2,4.64,1.43,6.93,1.13,6.67-.88,13.3-.13,19.79.92,10.48,1.69,20.71-.71,31-1a3,3,0,0,0,2.18-1.35c-.4-1.65-3.83-.77-2.86-4s2.68-1.62,4.37-1.66C992.71,513.83,993.46,513.11,994.23,512.71Z" fill="#6f6762"/><path d="M987.2,501.25c-8-1.51-16.43-4.12-24.06-.51-8.23,3.91-16.72,3.79-25.23,4.11-5.1.19-10.58,1.32-15.29-2.45-1.07-.86-3.57-2.74-3.35,2.29.19,4.29-6.86,3.79-10.95,6.05,4.67,2.29,8.71-.85,12.53-1.62A123.33,123.33,0,0,1,955,507c12.07.93,24.28-.5,36.42.54C989.34,505.89,986.35,504.83,987.2,501.25Z" fill="#716a66"/><path d="M990.43,519.47c-15.29.54-30.51,2.08-45.87-.92-4-.79-9.3,1.2-14.09,1.24l-3,.08c-3.8-1.49-7.15.51-10.65,1.33-3,2-6.79,2.48-9.19,5.39a1.73,1.73,0,0,0,.24,1.8c9.51-.47,17.64-6.94,27.51-6.06,8.61.77,17.25,1.12,25.86,1.79,11.15.87,22.15-2.52,33.33-1.1.26,0,.72-1.39,1.08-2.13Z" fill="#36302d"/><path d="M986.52,526.29c-7.4-1.33-14.89-3.5-21.45,2.46a2.86,2.86,0,0,1-3.13.4c-5.28-2.2-8.13,1.28-11.06,4.58,5,.63,10,1.42,15,1.86,4,.34,8.42,1.73,11.62-2.32l-6.29-.5c8.26-2.51,14.64-3.51,21.45-1.31-1.65-4.07-5.75-1.78-7.58-4.25a.58.58,0,0,1,.15-.53A10.66,10.66,0,0,1,986.52,526.29Z" fill="#766f6a"/><path d="M894.22,470.75c20.94-9.82,42.81-14.08,66-11.11,4.11.53,7.17,3.46,11.22,3.83l-4.57-4.76c-1.57-3.2,8.79,1.18,1.94-4.6-22-10.12-43.47-2.87-64.93,2.26-4.83,1.15-11.06,0-13.39,6.44-1.06,3.26-6.74,6-1.26,10.06C891.41,473.38,893.2,473,894.22,470.75Z" fill="#6d6662"/><path d="M955,440.07c-2.81,2.33-5.82.16-8.67.15-16.56-.07-32.22,4.42-48,8.49-4,1-8.12,1.85-12.23,2.5a6.5,6.5,0,0,0-5.45,4.15c-1,3.43-1.06,6.58,2.73,8.53a3.3,3.3,0,0,0,2-.17c9.68-6.62,21.23-8.22,32.18-11a102.45,102.45,0,0,1,42.57-2c1.1.18,2.1.67,3-.26C958.4,448.53,960.73,441.21,955,440.07Z" fill="#6d6662"/><path d="M971.54,467.44c-12.41-7.89-26-4.19-39.23-3.82-3,.08-3.13,3.31-4.7,5,.4,3.61.83,3.76,6.77,2.46,3.74-.14,7.54.06,11.23-.48,11.44-1.68,22.17,1.19,32.87,4.48-3-2-6.45-3.55-8.74-6.13S971.12,468.25,971.54,467.44Z" fill="#6d6662"/><path d="M963.13,450.45c-20.85-5.25-40.94-1.38-60.89,4.76a95.4,95.4,0,0,0-18.82,8c-3.23,1.29-6.61,2.42-6.9,6.68a3.46,3.46,0,0,0,2,1.93c2.29.52,3.78-.76,4.89-2.4,1.92-2.86,4.77-4.21,7.91-5.2.18-4.17,4.43-5.23,6.59-5.39,12.61-.92,24-7.41,36.93-6.93,10.74.4,21.94-4.38,32,3.25.76.58,1.64-.18,2-1.06Z" fill="#3a3531"/><path d="M981.55,477.52c-1.65,2.16-4,1.67-6,1.16-5.28-1.31-10.5-2.87-15.74-4.33-.91.51-1.6,1.23-2.86,1.29-1.95.1-5.23-.62-4.86,2.54.28,2.39,3.11,3.71,5.63,3.53,5.09-.38,10-.48,14.48,2.52,5.11.35,9.36,4.14,14.7,3.62l-2.9-2.29c-9.26-1.48.19-4.26-.45-6.34Z" fill="#78716d"/><path d="M529.87,742.79c9.76,3.82,16.71-1.61,23.08-7.43s13.3-7.57,22.2-7c8.21.52,16.56,2.72,24.89.75l-1.37-1.3c-3.77,0-6.25-.71-5.73-5.64.61-5.64-3.61-8.86-9.15-7.83-1.89.35-5,2.86-3.61-2.15,0-.13-.3-.49-.33-.48-4.45,2.13-7.94-3-12.28-1.56-2,2.14-4.22,3.79-7.49,3.14a5.26,5.26,0,0,0-3.9.51c-12.27,8.43-25.62,6.34-39,4-3.94-.71-7.05,0-8.74,3.9a2.57,2.57,0,0,0,.85,3c5.22.32,8.93,1.84,10.32,7.85C520.77,737.41,524.7,741,529.87,742.79Z" fill="#47403b"/><path d="M509.31,724.59c.18-5.41,2.95-6.65,7.91-5.1a54.44,54.44,0,0,0,33.67-.35c5-1.69,9.25-4.49,15-4,1.56.14,1.14-3.24,1.69-5-4.08-3-4-2.93,0-6.39,1.86-1.61.23-6.32,4.93-5.49,4.21-.63,2.63-4.46,3.84-6.74h0c.38-2.28-1.32-2.57-2.9-3-2.55,6.51-10.89,5.77-14.47,11.31-1.09,1.67-4.06.75-5.89-.78-3.92-.63-8-4.81-11.66.57a.49.49,0,0,1-.49.14c-9.4-4.68-6.17,1.92-5.65,6.1-4-.15-9-4-10.76,3-.5-4.09-4.5,1.92-5.27-1.81-.58-2.83-2.51-3.35-5.05-2.3a5.36,5.36,0,0,0-1.4,1.24c-5.42.79-8.48-3.62-6.83-9.82-3,1.26-4.64,3.43-5.71,6.53-.69,2-1.19,5.41-5,4.32C495.65,716.23,501.2,721.41,509.31,724.59Z" fill="#544f4b"/><path d="M984.19,490.83c-13.58-5.37-27.75-4.83-41.94-4.11-3.17.16-4.57,2.64-5.22,4.94-.71,2.48-2.3,1.61-3.58,1.64-2.26,0-1-1.62-1.26-2.72-1-5-5.68-2.61-7.69-2.27-6.6,1.09-13.08,3.32-16.78,10.2,3.68,2.2,7.13.15,10.42-1.05s4.66-5.59,9-4.75c.41,2.33-2.39,1.58-2.73,3.24,5.8,1.32,11.26-1.93,16.81-1.3,13.32,1.51,26.93-1.39,40.08,2.61,1,.3,2.19-.07,3.29-.12C984.68,495,976.37,493.4,984.19,490.83Z" fill="#655f5b"/><path d="M930.09,408.94A51.06,51.06,0,0,0,909.91,411c-.18,2.13,1.47,2.31,2.94,2.7,6.58-.5,13.49,2,19.7-2.05-.1-.72-.21-1.45-.31-2.17Z" fill="#44403d"/><path d="M932.55,411.65l-19.77.74c-15.23,2.94-30.81,4.55-45,11.54a25.18,25.18,0,0,0-6.63,4.3h0c.42,7.19.87,7.53,7.56,4.55,6.17-2.74,11.48-7.89,19.08-6.52,8.7-.63,17-2.82,25.37-5.23a54.5,54.5,0,0,1,25.13-1.63C936.76,416.55,931.26,416.55,932.55,411.65Z" fill="#7d7570"/><path d="M637.65,546.24a12.69,12.69,0,0,1-6.67.18c-2.24,3.48-8.54,4.93-5.71,11.07a4.81,4.81,0,0,1-2.49,1.82c-6.26,1.2-4.18,4.9-1.9,7.58,3.1,3.65,1.52,5.28-.52,9-2.53,4.64-6.09,3.27-9,4.91-1.46.84-1.15,3.54-4.77,3.15-2.11-.23-4.11,4.11-7.56,4.54-1.59.2-1.67,2-1.45,3.25.8,4.67-.74,8.07-5.08,10.25-1.93,1-3.19,2.39-1.92,4.76,1.66,3.07-.7,4.8-2.43,7-1.43-2.47-1.09-5.57-4.08-8.06-.11,6.86-4.1,9.62-9.87,11.07-2.54.64-4.92,2.9-4.91,5.66,0,3.25-1.78,5.17-4,6.7,1.41,2.22,2.93-.3,3.85,1.22-2.13,3.55-2.13,3.55-7.81,2.29-2.31,5.34.22,9.56,5.72,9.43,1,0,2.08-1.12,3,.06,1.28,1.6-.56,2.16-1.14,3.18-1.62,2.91-3.33,6,2.46,5.86.44,0,1.21-.23,1.23-.11.84,7.72,7.39,2.76,10.78,4.76,3.08-1.41,4-9.28,9.87-2.82,1.9,2.08,1.53-2.81,3.83-3,1.64-.14,2.16-1.56.14-2.41-2.81-1.18-2-2.42-.12-3.61,5.54-3.56,5.55-3.53,6.17-8.68,6.1,2.91,10.39.23,10.21-6.37-.08-3,7.4-7.15,10.12-8.35,6.42-2.84,9.67-.27,13.22,4.46,2.93,3.92,6,2.31,8.26-1.26l0,0c-.25-1.91.44-3.94-.77-5.77-1.82,2-3.66,6.77-6.38,1.77-3.16-5.84-6.87-5.56-12-2.52-.75-5.57,6.08-3.85,6.29-7.44.17-2.84,2.62-6.37-2.22-7.9,1.57-1.58,2.39-.69,3.26-.08,1.18.83,2.38,2.89,3.84,1.49s1-3.86.32-5.65c-1.41-3.82-2.41.51-3.13.29a61,61,0,0,1-10.25-3.92c-1.41-.7-.69-2.25.36-3.32,1.31-1.34,2.37-3,3.88-4.06a3,3,0,0,0,.83-4.07c-4.21-7.83-4.29-7.78-1.57-16.29-1.48-5.15,3-6.44,5.84-8.78.78-3.7,5.32-4.78,6.07-8.51A2.54,2.54,0,0,0,637.65,546.24Z" fill="#453c3b"/><path d="M583.45,655.81c-1.76-5.55-5.65-.42-8.47-1.69-1.86-2.3,1.83-4.17.78-6.46-.86-.86-1.54-.23-2.3.22-1.37.81-2.38,3.63-4.16,2-2-1.84.1-3.7,1.62-4.76,3.39-2.34-1.45-4.7,1-6.65-3.62-1.19-4.46,4.78-7.16,2-1.86-1.9-5.34-4-3.39-7.89.81-1.92,1.79-3.92-1.77-3.93-3.89,6.22-10.3,11.12-10.83,19.57,3.42.15,5-3.66,8.45-2.33l-8.73,7c4,2.15,4.85-2.07,7.46-2.3.9,3.05-3.35,5.28-1.38,8.64.76.66,1.42-.06,1.95-.65,1.25-1.41,2.37-1.79,3.61,0,1.86,2.68-1.5,1.4-2,2.48-.38.87-1.65,1.37-2.52,2-1.32,1.49-1.69,3.2-.26,4.67,1.58,1.61,2.57-.68,4.4-1-1.83,4.28-3.34,8.47,4.14,7.23,2.6-.44,3.47,2.33,5.17,3.59,3.41.34,7.14,1.52,8.67-3.16-3.69-3.7-1.6-10-6.31-13.39-1.36-1,0-2.35,1.25-3,2.09-1,4.16-2.55,6.66-1C581.25,658.23,582.61,657.8,583.45,655.81Z" fill="#645c5a"/><path d="M642.75,634.36c7.91,3.72,11.93,2.2,13.52-4.49.73-3.1-1.75-4.65-2.35-8,5.41,3.55,10.89,4,16.49,3.67-.33-9.05-8-12.29-13.48-17.15-1.13-1-1.95.45-2.65,1.18-.95,1-1.76,2.16,0,3.17.87.51,2.23.48,1.86,2.06-3.89,2.67-5.63-2.2-8.75-2.55-.56,1.72,0,3.74.93,4.27,6.09,3.35-2.65,5.23-.67,8l-2.5-.8,0,0c-.77,4,1.67,6.24,5.25,8.15-3.15,1.22-4.88-2.14-7.25-1-.85.42-2.59-.41-2.45,1.17.07.82,1.35,1.53,2.08,2.29Z" fill="#453c3b"/><path d="M576.31,691.51c-3.46,1-1.57,5-3.84,6.73-1.56,3.7-3.93,6.81,3.65,7,5.42.11,10-2.79,15.22-2.18.42-.48,1.3-1.13,1.19-1.43-1-2.72,5.54-1,2.71-4.22-1.9-2.17-4.91-1.23-6.57.45-5.38,5.48-7.74,2.83-9.61-2.86C578.63,693.66,577.25,692.65,576.31,691.51Z" fill="#413b39"/><path d="M579.38,657.16c-2.56-2.19-5.35-1.3-8-.33-4.36,1.6-3.89,4.14-.71,6.5,1.23.91,3.63.58,2.57,3.2-1.64,4.05,1,6,3.91,7.83.46.59.91.61,1.35,0,.74-5.33,5.53-11-1.53-15.66-.84-.55-.19-1.1.45-1.28A12.25,12.25,0,0,1,579.38,657.16Z" fill="#453c3b"/><path d="M578.52,674.32l-1.35,0c-1.74,3.58-5.47,1.45-8,2.72a2.15,2.15,0,0,0-2.58-.07c-.63,2.58,1.65,2.64,3.06,3.33,2.13,1,3,2.4,1.81,4.63a4.1,4.1,0,0,0,2,3.85l2.87,2.68c5.24,0,6.93-.92,3-6.19C577.48,682.79,578.7,678.05,578.52,674.32Z" fill="#413b39"/><path d="M632.62,556.92c-7.24,2.77-8.64,5.36-5,9.39,2.33-.41,3.27,1.64,4.8,2.75,1-1.95,1.22-4.25,3.07-5.66a11.51,11.51,0,0,1-.24-7.85C633.7,554.79,633.32,556.17,632.62,556.92Z" fill="#524744"/><path d="M642.78,634.39,638,636.58c4.32,2.93,4.32,2.93,4.74-2.22Z" fill="#453c3b"/><path d="M871.71,734.26c1.09,1.62,1.52,4.24,3.83,3.83s3.31-2.53,3.33-5-.88-3.49-3.44-3.61C871.59,729.35,874.38,733.7,871.71,734.26Z" fill="#594539"/><path d="M868.62,844.36c.66,4.37,3.64,4.12,7,3.46-.95-1.76-3.29-2.54-3.06-4.84Z" fill="#3e3229"/><path d="M781.49,683.35c-3.09,3.94-1.44,9.89-6.25,12.95,2.63,2.69,3.57-1.31,6-.34-1.14,9.4-3,19.15,1.14,28.93,1.45-3.59,2.66-6.75,7.35-5.35.47,2-3.9,4.26-.38,5.89,2.53,1.17,2.5-2.32,3.81-3.52a35.82,35.82,0,0,0,5.85-6.23c1.61-2.44,7-6.42-1.56-6.82-1.06-.05-1.88-.62-1.43-1.54,4.6-9.48-3.16-3.29-5.32-4-.62-.2-1.51.88-2.64-.06,3.57-4.38,9.47-8.57,2.58-14.79-.17-.16,1-1.78,1.55-2.71C788.84,684,785.45,682.42,781.49,683.35Z" fill="#5f473a"/><path d="M810,653.57l-1.41-1.35a3.39,3.39,0,0,0-2.74-.73c-2.77.81-5.88.89-7.76,3.57a70.63,70.63,0,0,0-1.16,7c-.29,4.2-.13,8.11,6.17,6.27a3.49,3.49,0,0,1,4.33,2.15,4.66,4.66,0,0,1-1.32,5.35c-1.38,1.36-3.12,2.29-4.64.87-2.91-2.69-4.71-.31-6.82,1h0c-1.58,6.29.16,10.4,7.32,11.16,1.39.14,3,.5,3.28-1.1,1.51-7.46,6.16-14.44,3-22.65C806.82,661.25,806.53,657,810,653.57Z" fill="#433e3a"/><path d="M819.31,652l-9.3,1.54c.49,5.41-.64,11,1.69,16.2.83,1.86,1.83,4.45,4.07,2.45,5.88-5.24,5.5.52,6.85,3.43h0a3.44,3.44,0,0,0,.7-4.73C820,665,821.05,658.22,819.31,652Z" fill="#433e3a"/><path d="M829.92,650.4,819.3,652c2.83,1.15,3,3.61,2.79,6-.25,3.16.91,6,1.76,8.9a6.4,6.4,0,0,0,10.59,2.6c.25-.27.09-1.18-.18-1.62C831,662.51,832.13,656.05,829.92,650.4Z" fill="#433e3a"/><path d="M827.05,691.33a12.1,12.1,0,0,0,8-.21c-2.12-3.31-1.26-6.45-.08-9.94,2.07-6.06,1.15-7-5.2-6.11s-6.81,6.5-7.9,11.17C820.94,690.21,824.09,690.85,827.05,691.33Z" fill="#433e3a"/><path d="M822.62,675.64c-2.68.55-5.26,3.46-8.09-.16-1.09-1.38-2.19.15-3,1.27a16.42,16.42,0,0,0-3.24,10.43c.08,3.35,1.9,4.61,5.13,4.53,3-.07,5.39,0,5.73-4.34.3-4,2.25-7.82,3.48-11.73Z" fill="#433e3a"/><path d="M781.49,683.35a17.1,17.1,0,0,0,10.71,2.39c-1.07-3.25-.67-6,2.47-8h0c0-6.45-5.85-1.49-8.24-4-1.13-1.21-3,1.23-3.48,2.81A60.1,60.1,0,0,0,781.49,683.35Z" fill="#433e3a"/><path d="M798.11,655.06c2.63-.85,5.68-.6,7.81-2.81-2.23-3.71-5.35-5.09-9.6-3.65-1.4.48-2.81,1.25-4.2-.17-4.46-4.57-4.47-4.55-7.89,1.12.14.28.28.56.41.84,2.78,3.31,7.14,3.12,10.69,4.74C796.22,653.83,797.15,653.82,798.11,655.06Z" fill="#685f5b"/><path d="M772.1,756.61c3.21-2.05,1.35-5,2.09-7.34s2.17-5.34-1.48-5.56c-2.57-.15-1.87,3.6-2.12,5.39C770.26,751.42,771.49,754,772.1,756.61Z" fill="#332924"/><path d="M791.31,782.94c1.3,2,2.2,4.76,4,5.66,1.09.54,3.39-2.07,4-4.84C797,782.26,794.09,783.81,791.31,782.94Z" fill="#332924"/><path d="M781.87,786.12c5.65-1.26,5.22-4.92,7.2-6.73C785.06,779.64,784.73,782.71,781.87,786.12Z" fill="#332924"/><path d="M822.45,717.81c1.13-1.84,4.17,1.08,4.73-1.81a2.54,2.54,0,0,0-1.39-2c-4.39-1.66-2.92,1.91-3.33,3.79Z" fill="#594539"/><path d="M667.61,520.4c-.44,0-.88,0-1.33,0-1.22,2.76-.31,7.69-6.32,5.35-1.93-.75-3.19,1.83-4.57,3.1a1.73,1.73,0,0,0,.19,1.68c1.44,1,2.88-.06,4.32-.13,3.42-.19,6.09,1.71,8.12,4.42.4-.19,1-.65,1.17-.53,6.23,4,13.86.87,20.25,3.94a3.42,3.42,0,0,0,1.48,1c3.49.28,7.8-1.72,9.54,3.38a10.86,10.86,0,0,0,2,1.86c3.24,3.74,7.6,6.47,9.85,11.11,1.23,2.52,3.45,2.29,5.64,1.3,2.74-1.24,5.43-1.56,8.12.11l-.08,0c5.13,4.68,3.7,11.53,5.61,17.27.71,2.15,1.59,4.9.46,7.45l1.36,1.55c3.06,1.53,7.07.08,9.72,3.12a1.63,1.63,0,0,0,2.77-.34c1.72-5,5.64-3.78,9.32-3.56a9.08,9.08,0,0,0,6.68-2.28c.86-1.06,1.48-2.17.64-3.54-3.37-3.55-1.3-5.89,2.23-6.59,7.69-1.53,13.15-5.85,17.75-11.78,3-3.93,7.6-6.07,11.87-8.31a82.09,82.09,0,0,1,37.54-9.8c8.72-.1,15.93,5,23.9,7.55,3.32,1,7.47,5.14,10.12,1,3-4.69-3.35-5.48-5.58-8a29.06,29.06,0,0,0-3.42-3.13c-8.68-3.94-17.56-7.14-27.33-6.82a29.72,29.72,0,0,1-12.1.4c-4-.19-7.72,1.54-11.59,2.29-4,2.78-8.77,3.55-13.42,4.62a10.45,10.45,0,0,0-1.55,1c-.68.53-1.31,1.13-2,1.64-2.62,1.88-4.16,5.54-7.5,6-4.08.51-2.93-4.77-5.64-6.16a15.85,15.85,0,0,0-1.76-.85,9.12,9.12,0,0,0-4.71-.51c-10.39-.14-21.12,1.81-30.14-5.86-2.18-1.85-5.65-3.61-8.13-.07s-4.42,2.24-6-.34c-2.2-3.51-4.76-4.36-8.91-3.3-9.28,2.37-17.77-1.8-26.31-4.32-4.25-1.26-8.27-2.86-12.78-2.46l-1.27,0C673.24,521.27,670.16,521.7,667.61,520.4Z" fill="#352a22"/><path d="M733.43,584.55a6,6,0,0,1,0,1c2.07,12.33,10.46,21.29,17.08,31.18,1.77,2.64,4.67,3.91,7.72,4.76,11.57-3.25,22.94-7.64,34.58-10.08,6.87-1.44,16.11-3.47,22.41,4a5,5,0,0,0,2.2,1.44c2.13.71,4.62,4,6.29,1.53,2-3-1.23-4.92-4.67-6.76,11.78-2.11,22.18-6.19,32.57-10.31,9.14-4.34,18-9,25.83-15.61,5-4.25,10.91-7.43,15.6-12.15,4.94-5,9-10.32,9.09-17.66-.82-4.49-3.29-6.31-8.13-6.87-5.58-.65-10.8-3.88-16.77-2.68-4.89,3.44-4.73,4.79.9,7.66,8,4.09,10,8.11,7.57,15.24a11.12,11.12,0,0,1-5.54,5.42c-9.32,7.49-20.95,10.1-31.68,14.59A63.83,63.83,0,0,0,838,590.68c-5.7,1.39-11.23,1.83-16.94-.26-5.52-2-11.42-.64-17.13-1.12-7.32-.61-14.55-1.41-20.76-5.82-2.42-1.71-5-1.55-7.6-.55s-5.42,2-8.39,1.24a11.39,11.39,0,0,0-6.37,3.1c-1.18,1.11-1.87,1.75-3.71,1.4-5.41-1-7-.46-12.2,3.18-.39.28-5.14-2.9-5.86-3.75C737.53,586.36,737.24,582.72,733.43,584.55Z" fill="#352922"/><path d="M726,557c-1.21-4.06-4-4.38-7-2.36-3.83,2.6-5,1.45-7-2.4-1.9-3.62-6-6.14-9.1-9.14a3.11,3.11,0,0,1-3,1c-2.21-.44-3.88.08-4.74,2.38-.94,2.5.26,4.27,2,5.69,1.26,1,3.74,1.1,2.79,3.59s-3.18,1.84-5.28,2c1-1.71,3.57-1,4.28-2.9a1.21,1.21,0,0,0-.73-1.56,14,14,0,0,0-2.37-1.15c-9.5-3.14-9.87-4.42-3.46-12,0-1.21-1.06-1.41-1.82-1.89a8.67,8.67,0,0,1-1.25,0,14.13,14.13,0,0,0-8.05,2.58c-.84.66-4.27.89-1.82,3.52,2.63,2.83-7.75,7.45,1.94,9.26-6.62,5.36-5.4-4.51-9.29-3.86-2.13,2.11,2.1,3,.79,5.39-2.11-1.65-4.68-2.93-6.6-.14-1.17,1.69-4.77,3.6-2.54,5.47s2.22-2.84,4-3.38c2.37.38-4,5,3.4,4.6,5.49-.29,14.43-1.08,18.68,6.66l.33.67c4.42-.92,7.73,1.86,11.65,2.85,4.95,1.25,8.84-1.86,9.32-3.59C713.45,560.42,720.54,559.94,726,557Z" fill="#796a5f"/><path d="M690.16,568.83c-1.95,1.17-4,1.95-6,.51-5.62-4-10.49-.86-15.46,1.22-2.39,1-5.22,12.09-3.81,14.24.23.35.83.9.92.85,5.15-3.26,7.25,2.93,11.27,3.58a58.12,58.12,0,0,0,14.55.11,25,25,0,0,0,11.11-3.69c4.64-2.89,3.47-5.23.33-7.64-2-1.56-3.76-4-6.57-4.24-3.54-.28-4.21-2.56-5.82-4.8Z" fill="#27231f"/><path d="M746.65,628.93c1.26,1.14-3.32,6.33,2.92,4.07a2,2,0,0,1,2.61,1.44c1.13,5.29,4.72,3.76,8.27,2.88.88,2.21-3.54,3.7-1.23,5.36,2.82,2,6.19,2.07,9.5-1.77-.23,3.13-2.91,6.24.79,6.83,5.06.82,9.21,7,15.13,2.65l-.12-.18c-.44-1-1.35-1.91-1.51-2.87-.8-5-3-6.89-7.62-3.73-.75-1.09-.21-1.5.25-1.94,1.51-1.44,5.12-1.57,4.47-4.07-.71-2.79-3-5.7-5.91-6.44-5.51-1.39-9.11-7.7-15.77-5.84.07-.9,1-1.55.74-2.56a1.88,1.88,0,0,0-1.14-1.31c-1.84-.69-3.92.07-5.74-1-1.43-.85-3-2.34-4.65-.59s-.6,3.67.48,5.33C749.4,627.18,749.9,628.74,746.65,628.93Z" fill="#685f5b"/><path d="M746.65,628.93c1.46.66,2.25,3.63,4.21,2,1.63-1.33.66-3.65-.31-5.26s-3.17-2.54-2.16-5.68c3.09,2.81,6.41,4.27,10.18,1.91a.84.84,0,0,0,.33-.86c-.08-.3-.17-.45-.26-.45-8.15-3.36-11.14-11.3-15.66-17.73-3.78-5.38-6.42-11.56-9.56-17.38-.63,6.66-.86,14.48,1.54,19.52,2,4.29-2.4,11.75,5.47,13.3C738.31,624.25,742.51,626.58,746.65,628.93Z" fill="#796f69"/><path d="M733.43,584.55c.62.15,1.72.17,1.8.47,1.65,5.64,6,8,11.25,9.42-.67-3.16.55-1.9,2.64-3.43,4.48-3.28,8.65,1.29,11.33-.29a25,25,0,0,0,6.35-5.87c.18-3.91-2.7-4.51-5.63-5.07-2.94.7-5.61,1.63-9,.69-4.18-1.16-6.18.77-7.85,6.17-2.36-6.38-6.78-4.42-11-3.4C733.39,583.68,733.41,584.11,733.43,584.55Z" fill="#524137"/><path d="M637.65,546.24c.46.86.93,1.72,1.4,2.58a3,3,0,0,0,1.46,3.94c8.26,1.9,13.55-2.9,18.52-8.19a4.18,4.18,0,0,1,2.54-1.64c-.15-3.55-3.92-4.48-5.22-7.62-.75,4.53-2,5.63-6.26,3.22-6.76-3.8-9.17-2-9.15,5.85C641,547.29,638,544.43,637.65,546.24Z" fill="#352a22"/><path d="M732,581.69c3.49-8.45-1.69-15.81-3.19-23.62-.11-.53-1.88-.74-2.88-1.1C729.43,564.86,729.12,573.66,732,581.69Z" fill="#796a5f"/><path d="M640.51,552.76c-.49-1.31-1-2.62-1.46-3.94-2.29,2.59-5.85,4.2-6.43,8.1l2.6-1.37C638.33,557.12,640.24,556.45,640.51,552.76Z" fill="#3e3634"/><path d="M882.5,873c.08-.41.17-.82.25-1.23-.8-1.62,2.4-3.65-.49-5a1.78,1.78,0,0,0-1.62.61C879.87,869.63,879.07,872,882.5,873Z" fill="#3e3229"/><path d="M708.57,747.24c1.6-.39,3.12,1.63,4.85.16a3.67,3.67,0,0,0-4.54-3.24c-1.82.29-.71,2-.31,3.08Z" fill="#463d37"/><path d="M831.36,735.94c-.3-3.49-1.35-6.06-3.63-9.51C826.2,731.24,826.91,733.94,831.36,735.94Z" fill="#503e35"/><path d="M900.9,556.57c1.89-6.54.66-8.73-5.52-9.05-5.89-.3-11-3-16.38-4.82-10.67-3.66-20.39-10.22-31.81-11.39s-22.88-6-34.74-2.44c-3.35,1-4.89.59-5.9-3.4a26.54,26.54,0,0,0-5.6-11.56c-2.9-3.26.18-6.66,2-9.52,4.85-7.76,12.48-13,18.73-19.43,8.16-8.47,19.13-11.71,29.33-16.18,8.55-3.74,17.76-.79,24.59,4.07,7.86,5.59,15.36,12.18,19.47,21.81,8,18.87,10.65,38.69,12.33,58.77,2.2-.21,5-.16,2.37-3.44-1.76-2.25-1.29-4.75-1.31-7.23v-2.38c.61-4-3.79-7.84-.54-12,.05-.4.09-.81.12-1.21,2-4.73-2.58-7.8-3.06-11.91-.55-4.65-2.64-8.78-4.51-13-.76-1.67.55-3.9-1.44-5.25-3.56-6-5.89-12.92-12.31-16.91.37-1.24-.24-2.23-.82-3.24-1.71-2.89-4.72-4.12-7.46-5.71L877,469.8c-.7-1-1.38-1.94-2.81-1.12-4.69-1.15-9.36-2.38-14.08-3.41-2.35-.52-4.89-1.17-7.12.11-11.56,6.64-25.74,8.15-34.94,19.81-4.84,6.14-13.07,9.6-17.15,17.08-1.3,2.37-2.61,4.77-2.72,7.28-.56,12.48-7.94,18.56-19.29,22a38.55,38.55,0,0,1-19.83,1,4,4,0,0,0-2-.16c-4.74,1.65-8.08-.31-11-3.85-1.16-1.42-2.42.09-3.64.21-1,5,2.53,7.15,6.21,7.58,7,.81,13.69,3.49,20.78,3.8l4,1.12c8.72,5.67,11.74-.39,17.57-1.11a2,2,0,0,0,1.12-.64h0c.54-.7.78-1.56,1.25-2.3,4.15-6.52,6.08-6.85,12-2.06l11.88-2.79c4-.22,8,1.08,12-.43a83.9,83.9,0,0,1,26.92,7c6.68,3.09,12.5,8.12,20.26,8.73,7.39-1.83,13.56,4,20.94,3.24C899.71,550.63,900.29,554.27,900.9,556.57Z" fill="#685346"/><path d="M923.63,566.19c-5-2.61-10,.69-15.07.19,5,4,10,3.09,15.06-.2Z" fill="#38322f"/><path d="M858.69,629.88c-1.73-8.54-5.14-16.5-8.85-24.33-1.24-2.62-1.27-4.38,1.49-5.72-1.51.18-3.25-.07-4.49.6-8.7,4.72-21.94,9.05-30.62,9.77.33,4.3,7.3,2.61,6.85,8.19-3.48-3-8.58-3.4-9.85-8.6-.36-1.5-1.94-1.23-2.73-.81-3.9,2.08-7.73.56-11.63.18-3.2-.31-6.41.73-9.34,1.23-8.58,1.47-15.68,7.27-24.42,7.25-2.84,0-4.52,1.55-6.46,3a9.59,9.59,0,0,0-.07,1.31l-.07,0c6.76,4,14,7.16,20.63,11.51,15.91,5.66,32.25,8.67,49.13,6.34,7.17-1,14.5-.51,21.53-2.53,3.36-1,6.94-1.53,8.8-5C858.62,631.44,858.66,630.66,858.69,629.88Z" fill="#513d31"/><path d="M858.59,632.22a96.82,96.82,0,0,1-40.36,6.62c-13.43-.58-26.76-2.05-39.47-6.85-1.13-.23-1.69.25-1.32,1.33a6.24,6.24,0,0,0,4.27,3.8,168.12,168.12,0,0,0,36.81,6.29c-3.31-.11-6.62.31-10-.23-2.29-.36-5.69-.46-5.64,2.75s3.15,3.8,6,3.5c1.71-.18,3.39-1.12,5.06.07,5.82.13,11.27-2.91,17.18-2l2.16-4.4c-.64-.25-1-.44-1.44-.55-2.33-.63-5.42,4.13-6.48.36-.75-2.68,3.77-1.14,5.81-1.91a38.67,38.67,0,0,1,6.37-1.32c1.44,2-1.66,2.18-1.46,3.91,8.49-.54,15.62-4.48,23-7.68C860.83,635.14,860,633.35,858.59,632.22Z" fill="#959090"/><path d="M813.91,649.5c-2.82-2.64-7.71.55-10.67-4.52,6.74-.31,13.37,1,19.91-2.3a332.87,332.87,0,0,1-41.39-7c-1.48-.34-4.29-.7-3-3.71-6.39-4.06-12.39-8.9-20.26-10,.23,1.53-3,3.23,1.55,4.56a49.77,49.77,0,0,1,19.27,11c-1.85,3.14-9.17,1.53-7,6.67s5.17-.4,8.75-1.61c-3.09,4.94.36,6.2,3.41,7.69a8.83,8.83,0,0,1,5.94-4.58c-1.52,4.36.42,7.35,4.36,5.33,4.6-2.37,7.55-.11,11.1,1.29l2.69,0C809.64,649.9,811.67,649.51,813.91,649.5Z" fill="#7b726e"/><path d="M848.75,943.81c-.73-3.15,2.86-6.64-1.26-9.54.56,3.14-2.31,6.55,1.29,9.45Z" fill="#3e3229"/><path d="M867,946c1.54-3.74-.32-7.38-.29-11.07-.32-.46-.65-.91-1-1.36a28.64,28.64,0,0,0,0,13.77c0,.16.35.24.53.36Z" fill="#3e3229"/><path d="M943.45,763.89l.3,2.58,1.28-.25c-.78-3.06,2.37-6.21-.42-9.83C942.71,759,943.93,761.59,943.45,763.89Z" fill="#604c43"/><path d="M536.59,707c4.32-3.46-.59-4.17-1.86-6,1.21-1.86,3.22-2,4.42-.75,1.79,1.86,2.14,1.67,3.91-.27,2.75-3,6.28,0,9.48.17,2.37.61,4.35.31,5.43-2.19.21-.5-.9-1.14.82-1.54,5.78-1.37,5.75-1.63,1.47-5.62-.79-.74-2.12-1.39-1.93-2.46,1.36-7.57-3.45-5.55-7.48-4.82a6.21,6.21,0,0,0-2.58,2.85c-.57,1.18.24,1.89.72,2.74-2.19.53-1.58-1.53-2.28-2.39a3.77,3.77,0,0,0-5-1c3.68.38,7.24-1.33,9.47-5.39,1.77-1.24,4.29-2.56,3.16-4.93-1-2.16-3.36-1-5.12-.12-4.1,1.34-8.71-2.33-12.68,1.38,1.2,3.06,3.33-.18,5.1.79-.48,2-3.35,2.58-3.48,4.82-4.12-2.88-4.2,1.9-6.14,3.16A53.63,53.63,0,0,1,518.92,692c-8.78,2.79-9.3,4.48-6.15,14l.54.12.56-.09c3.51-4.64,8-5.86,12.88-3.14C529.89,704.67,533,706.39,536.59,707Z" fill="#aea7a1"/><path d="M549.2,675.2l4.57-.13a4.73,4.73,0,0,1-4.31,4c-1.75,2.29-.15,3.73,1.35,5.2l6.71-.18c-2.11,3.27-1.63,4.27,5,10.93-2.94,2.32-4.68-1.28-7.83-1.36,2.49,3.31,1.89,5.61-2.13,6.42,2.54,4.73,6.7.48,9.86,1.74-1.11-7.36,5.59-4,8.19-6.06,1.72-1.39,1.95-4.56,2.85-6.94.19-1.5-.75-2.55-1.51-3.67-1.82-7-2.48-7.33-10.38-4.46-.82.34-.44-1.15-.33-.28,0,.14.23.13.63,0,1.77-.81,3.81-1.17,5-2.92l2.29-.36c-2.25-5.71-2.25-5.71-9.63-4.21a15.93,15.93,0,0,1,3.73-8.35c-3.94-2.09-5,1.8-7.49,2.69,0-1.5-.08-2.77-.11-4-2.54,3.43-6.89,4-10.45,5.92C545.65,672.08,555.25,668.71,549.2,675.2Z" fill="#7f7877"/><path d="M531.68,666.29c5.54-2.6,9.65-7,14-11-4.5,3.87-12,4.1-14,11Z" fill="#5a5753"/><path d="M769.52,540.07a33.59,33.59,0,0,0-16.83-4.74c-5-.17-8.47-1.87-10.16-6.64-.12-2-1.68-2.41-3.24-2.62-9.72-1.29-19-5.52-29.11-4.3-3.11.37-5.91.67-8.66,2.57-3,2.09-5.5,2.74-6.87-2.68-1.11-4.4-6-6.64-10.81-5.39-3.55.92-5.62.65-6.09-3.46-5.23,3.44.48,6.82-.76,10,6.93,1.21,12.73,5.89,20,6.2a15.75,15.75,0,0,1,6.84,2.17c4.85,2.78,9.92,1,14.25-.21,3.23-.9,3.74,0,4.9,1.9,3.72,6,5.28,6,9.26.93,1.78-2.27,5.47-.79,6.11.68,2.49,5.73,7.94,5.75,12.13,5.47C756.89,539.5,763.22,544.55,769.52,540.07Z" fill="#49423c"/><path d="M678.58,483.17c.27,1.2-2.72,1-1.23,2.7,4.3,2.64,8.57,5.31,12.9,7.9,1.74,1.05,3.58,3.54,5.67,1,1.94-2.37,2.33-5.09-.15-7.69-2.93-3.08-6.59-5.07-10.16-7.24-.66-.4-1.06-1.22-2.07-2.45,6.38.48,9.3,4.85,13.1,7.88,2.34,1.87,5.27,6,7.89,3.2,2.76-2.94-1.94-5.07-3.95-7-3.64-3.53-7.65-6.7-12.89-11.21,8,2.32,12.33,6.6,16.72,10.78,1.51,1.43,2.94,3.62,5.5,1.31s-.8-3.43-.89-4.57c-.67-8.73-8.36-9.79-13.75-13.35-4.19,0-7.93.74-9.5,5.31-.78,2.27-3.56,2.46-4.71,4.36l1.31,2.5C680.52,478.44,678.42,480.17,678.58,483.17Z" fill="#49423c"/><path d="M677.41,489.82c-2.7,1.84-5.19,3.81-5.19,7.5,0,3.36-3.06,4.23-5,6,5.8.92,9.59,6.27,16,6.48,4.51.15,6.89,0,5.37-5.08-.29-1-.53-1.56.61-1.95,7.83-2.64,2.48-4.66-.33-6.81A37.2,37.2,0,0,0,677.41,489.82Z" fill="#49423c"/><path d="M681.06,474.07c3.46-.16,6.38-.6,6.74-5.16.35-4.36,6.25-.88,7.47-4.51l.05,0c-.66-2.19-2.47-4.92,2.46-3.82,2,.43,4.57.53,4-3L699.11,455c-2.27-2.16-1.11-6.13-4.22-7.86-3.86,3-5.73,7.47-8.65,11.21-2.23-.74-1.57-2.75-1.91-4.32l-2.62,1.57A8.32,8.32,0,0,1,683.3,462c2.25,3.16-1.22,4-2.56,5.19C677.63,469.87,677.49,471.92,681.06,474.07Z" fill="#7b726c"/><path d="M861.17,428.23c4,.35,6.35-2.82,9.5-4.24,12.49-5.65,26.39-5.88,39.16-10.33,1-.35,2-.85,2.95-1.27-1.13-.11-2.3-.14-2.87-1.39-6.27-1.37-11.53,2.45-17.37,3.43-7.55,1.27-14.9,3.7-22.33,5.64l0-.05c-2.28,4.13-7.91,3.23-10.53,6.85Z" fill="#57504c"/><path d="M701.73,457.59c-3.22,4.25-6.54,0-10.3.12,1.37,2.33,2.63,4.49,3.89,6.65.17-1.12.59-2.57,1.94-1.65,5,3.44,11.67,4.43,15.6,9.55.93,1.21,1.49,2.24,2.95.91,1.29-1.19.82-2.48-.27-3.41C710.87,465.77,708.57,459.16,701.73,457.59Z" fill="#49423c"/><path d="M699.84,518.4c2.15.68,3.23-.08,3.48-1.94.28-2.06-7.28-8.16-10.13-8.18-2.27,0-3.31,1.4-2.89,3.35C691.42,516.76,695.36,518.24,699.84,518.4Z" fill="#49423c"/><path d="M874.23,468.68,877,469.8c1-3.27,5.08-3.6,6.38-6.57-2.43-2.11-.87-5.59-2.78-7.87C873.81,457.59,872.76,462.54,874.23,468.68Z" fill="#413d39"/><path d="M667.61,520.4a7.18,7.18,0,0,0,8.11,2.42l-4.11-5.2A4.25,4.25,0,0,1,667.61,520.4Z" fill="#49423c"/><path d="M835.59,422.28l6-5.61c-3.51.13-6.09,1.34-7.29,4.45Z" fill="#5a5451"/><path d="M670,507.12a9.57,9.57,0,0,0,1.59,6.61C678.7,509.73,670.89,509.23,670,507.12Z" fill="#49423c"/><path d="M762,411.21a12,12,0,0,1,1.19,1.5c.69,1.22-.66,3.54,1.38,3.82s2.52-1.88,3.24-3.47c2-4.51,4.24-9,6.38-13.46-7.86-3-6.44,5.48-10.43,7.62-1.54-1.66.38-6.06-3.06-5.81-2.61.19-2.18,3.7-2.83,5.85C759.58,408.23,760.49,410,762,411.21Z" fill="#8f8882"/><path d="M779.21,406.59c1.07,3.06-4.51,8.14,2.89,9.26h0c1.49-5.56,5.44-9.66,8.52-14.31,1-1.49,3.49-3.66,1.23-5.57-2.52-2.13-3.6,1.09-5.22,2.23-2.71,1.91-3.29,5.64-6.36,7.23C779.22,405.19,778.84,405.55,779.21,406.59Z" fill="#918881"/><path d="M803,398.2c-2.29-2.46-4.45,1-6.71.14-3.38,2.87-5.51,6.71-7.84,10.34-1.5,2.32-3,5.17,1.31,6.62C792.7,408.47,800.4,405.26,803,398.2Z" fill="#978c83"/><path d="M779.21,406.59c.36-.38.71-.77,1.07-1.16-.64-3.47,2.63-5.26,3.72-8.09-7.54.85-13.25,9.59-11.78,18.42C775.81,413.41,776.24,409,779.21,406.59Z" fill="#8e8782"/><path d="M713.19,435.44c1.1-3.39-2.14-5.57-3.89-6-2.43-.56-4.3,2.76-3.59,5,.82,2.53-.6,7.1,3.44,7.25C711.77,441.78,714.09,439.08,713.19,435.44Z" fill="#8e867f"/><path d="M749.48,403.56c-5.74,1.26-9.68,11.16-6.94,14.74a2.43,2.43,0,0,0,1.61.89,1.73,1.73,0,0,0,1.8-1.56c.38-2.57,1.89-5.85.83-7.57C744.68,406.68,747.94,406.08,749.48,403.56Z" fill="#8c8480"/><path d="M748.49,414.47c.72,1.73-.1,5.24,2.14,4,3.77-2.15,3.41-7.09,4.44-10.95.35-1.29-.39-2.81-2.21-2.08C748.45,407.16,749.26,411.32,748.49,414.47Z" fill="#928985"/><path d="M762,411.21c-.53-2.18,1.16-6.63-4.13-3.95-.49,1.42-1,2.82-1.47,4.25-.58,1.78-2,4.41,0,5.18,2.31.9,4.46-.84,4.86-3.73A6.66,6.66,0,0,1,762,411.21Z" fill="#908983"/><path d="M776,388.34l-4.45,7.17c5.54.32,5.54.32,9.39-5.81-1.38-1.42-3.94,1.06-5-1.38Z" fill="#817b77"/><path d="M698.87,444.45a5.25,5.25,0,0,1-.12,1.25c.31,1.19-.16,2.89,1.28,3.38s2.43-.81,3.15-1.83c2.05-2.91,1.19-5.65-.84-8.46C700.82,440.56,701.56,443.59,698.87,444.45Z" fill="#98908b"/><path d="M840,387.88,824.33,400.2a22.57,22.57,0,0,1-9.4,9.8c-.93.54-2,1.26-1.56,2.56.33,1,1.29.93,2.22.79C821.25,412.53,839.2,393.79,840,387.88Z" fill="#928c88"/><path d="M870.21,420.07c-.45-1.61,2.09-4.24,0-4.55-2.75-.42-5.29,1.6-6.25,4.8,2.29,1.6,4.22-.93,6.28-.3Z" fill="#57504c"/><path d="M649.8,502.39l-1.31-1.32c-6,5.06-6.76,9.24-2.89,15.55.89,1.45.88,3.24,2.24,4.62,1.09,1.11,1.46,2.91,2.43,5,.45-3.21-.26-7.32,5.53-2.23C650.15,516.5,651.2,509.16,649.8,502.39Z" fill="#352a22"/><path d="M673,475.69c-11.48-1.48-19.41,4.42-26.34,12.39,2-.38,4.71,2.15,6.07-1.58.85-2.31,1.89,0,2.88.28,4.29,1,8.34-2.74,12.72-.68C667.31,481.5,673.86,480.21,673,475.69Z" fill="#817975"/><path d="M678.58,483.17c1.62-2,3.7-3.75,3.79-6.6-2.67-.16-6.07-3.14-7.59,1.43C673.79,481,675.21,483,678.58,483.17Z" fill="#827c78"/><path d="M972.18,484.23c-2.91-4.19-7.25-5.32-11.8-4.2-3.27.81-5.37-.1-7.47-2.16,1.33-3,7,2.24,6.88-3.52-3.79-.11-7.37,0-10.65,2.64-2,1.57-4,3.05-6.55-1.11-1.64-2.67-7.42-1.6-11,.29-2.06,1.09-4,2-6.25,1.49-10.05-2.3-14.83,6.06-21.83,10C926.23,481.47,949.21,483,972.18,484.23Z" fill="#615a56"/><path d="M934.38,471.06c-2.33-.63-5.78,1.75-6.77-2.46-5-1-8.62,2.81-13.12,3.66-1.81.34-4.14,1.17-4.47-.92-.44-2.79,2.25-1.52,3.8-1.8a6.59,6.59,0,0,0,3.71-2.34c-6-.45-11.35,1.66-17.88,3.85l4.81,1.48c-4.11,2.28-8.85,3.39-10.5,9.06,9.48-3,18.65-5.21,27.25-8.79C925.73,470.92,930.5,474.84,934.38,471.06Z" fill="#605a56"/><path d="M905,515.27c-.51,4.36,2.26,7.89,3.06,11.91l9.12-4.34c.56-1.24,2-2.22,1.3-3.86-3-1.16-5.59-3.77-9.38-.35C906.92,520.55,906.93,515.81,905,515.27Z" fill="#4c4743"/><path d="M885.15,477.64l1.53,2.48c2.56-2.88,4.21-6.85,9-7,.81,0,2.43-.76,1.1-2.1-.47-.47-1.69-.2-2.57-.27L889,472.24C886.5,473.19,884.54,474.51,885.15,477.64Z" fill="#3a3531"/><path d="M899,497c.26,1.81-.43,3.87,1.44,5.25,1-2.5,3.72.66,5-1.45C904.41,497.72,902.08,496.77,899,497Z" fill="#4c4743"/><path d="M918.43,519c-.44,1.29-.87,2.57-1.3,3.86l10.36-3C924.8,516.32,921.49,518.83,918.43,519Z" fill="#6f6762"/><path d="M885.15,477.64l3.86-5.4c-3.34-3.79,2.82-5,2.26-8-3.9-2.14-6.14.55-8.22,3-1.37,1.59-1.91,4-4.64,3.95C879.74,474.26,883.23,475.15,885.15,477.64Z" fill="#413d39"/><path d="M536.59,707c-6.28-2.63-11-9.45-19.41-6.4-3.11,1.13-4.58,2.25-3.31,5.49,6.8-2.54,3,3.69,4.8,5.51,1.63.55,3.43-7.47,5.47.71,2.14-6.53,5-9,10.35-3.34C535.86,710.38,536.42,708.24,536.59,707Z" fill="#908984"/><path d="M566.87,677.44l-10.11,3.41c1.92,3,3.87,1.11,6,.51,2.43-.68,7.28-5.77,6.38,2.52,0,.32,1.8.84,2.75,1.27,2.71-1.1,5.46-1.69,1-4.77C570.91,679,568.4,679.26,566.87,677.44Z" fill="#645c5a"/><path d="M876.49,547.62c-6.57-3.32-12.91-7.16-20.26-8.73,2.24,2,3.56,5,7,5.56a2.53,2.53,0,0,1,2.09,3.48c-.84,2-2.37,1.11-3.86.48-6.27-2.67-12.58-5.23-18.87-7.83A26.47,26.47,0,0,0,831,538.33a90.28,90.28,0,0,0-45.79,14.89,19.79,19.79,0,0,0-5.17,5c-4,5.62-8.92,9.29-16.13,9.83-3.46.27-5.61,3.26-6.19,6.13s2.5,2.86,4.71,2.93a20.13,20.13,0,0,0,4.59.17c4.37.05,8.29-2.29,12.65-2.29,2.84-3.19,5.94-.25,8.91-.36,5.09-3.24,10.11-6.68,16.71-5.21,1.37-2.23,2-5.11,6-3.89,2.65.79,4.69-1.78,6.83-3.2,12.94-3.26,25.82-6.14,37.79,3,2.68,2,5.9,1.66,9,1.29,3.48-.42,7-.25,9.25,2.44,4,4.78,8,3.45,12.25.79,4.39-5.05,1.52-13.66-5.61-16.74-1.59-.68-3.39-1-4.88-1.81C873.34,549.83,874.77,548.64,876.49,547.62Z" fill="#3d342d"/><path d="M788.87,573.78c-3-.1-6.14-3.63-9.13.14.44,1.89,3.28,5.13-2.24,3.49-3.47-1-7.35.26-10.76-1.51-1.61-.2-3.2-.38-4.27,1.24-.43.88-.86,1.76-1.3,2.64a10.59,10.59,0,0,1,5.63,5.07c1.52,1.78,2.92,2.73,5.5,1.21,4.35-2.57,8-2.51,13,.76,6.62,4.29,15.3,4.61,23.34,4.42a47,47,0,0,1,15.91,2.22c5.6,1.82,11.28-.89,16.86-1.74,2.26-.34,4.65-.26,6.87-1,.91-6.2-.88-7.55-6.39-6.09-3,.78-6.37,1.93-9.62.34-1.23-.45-2.7-.55-3.44-1.77-2.21-3.63-4.3-4.66-8.13-1.33-2.07,1.81-5.58,1-7.89-1.15-3.08-2.83-5.8-2.76-9.41-.51-2.06,1.27-5.95,5.14-7.42-1.72-.5-2.37-4.54-.72-6.85-.74.36-2.89,6.07,1.43,5.15-2.94C793.74,572.18,791,572.39,788.87,573.78Z" fill="#64574e"/><path d="M692.23,539.63c-3.66,1.24-6,3.51-5.77,7.59.37,7.65,7.37,5,11.48,7-.28.36-.45.79-.67.83-2.32.33-5.11-.14-6.19,2.58-.36.92,1.41,2.34,2.12,2,2.73-1.39,6.57,1.71,8.35-1.65,1-1.92,1.24-4.81-1.79-6.12-2.16-.93-4.16-1.68-3.18-4.83,1.42-4.57,3.15-.1,4.68-.32,2.44-.35,1.43-2.26,1.69-3.6l-1.44-1.1C698.73,540,696.23,537,692.23,539.63Z" fill="#99887b"/><path d="M792.18,539.44a48.92,48.92,0,0,0-5.7-1.09c-3.05-.25-6.07-.16-3.9,4.43-3.52-.16-5.48-5.38-9.09-1.59a6.18,6.18,0,0,0,2.59,1.63c3.69,8,4.85,8.18,10.74,2.14C788.61,543.13,790.4,541.28,792.18,539.44Z" fill="#3d342d"/><path d="M775.58,553.56c-5.09,3.1-11.45-.92-16.19,3.13-1.48,1.27-4.12,1.25-1.83,4.63,2,2.95,3.72,3,5.79,1.3C767.24,559.46,771.56,556.94,775.58,553.56Z" fill="#5e4b3f"/><path d="M805.46,535.07c-1.74-1.9-1.4-6.63-5.18-5.46-4.4,1.36-8.71,3.9-8.08,9.82C796.74,538.35,801.78,538.72,805.46,535.07Z" fill="#3d342d"/><path d="M692.23,539.63c3.52-.87,6,2.43,9.28,2.37-1.68-6.73-6.42-4.75-10.82-3.71Z" fill="#433e3a"/><path d="M829.31,531.85c-4,.77-8-1.73-12,.43C821.4,534,825.4,534.1,829.31,531.85Z" fill="#3d342d"/><path d="M832.11,585.76c1.16,3.77,1.37,3.94,3.56,1.23,1.59-2,2.86-.25,3.86.09,3.24,1.09,5.11.68,4.79-4.47,1.5,3.71,4.43,5,4,8.1,11.27-4.54,23.77-6.52,32.92-15.47,1.26-2.38,0-3.22-2.17-3.19-10.45.17-21-2-31.29,1.59-.58.21-1.28.88-1.63.3-2.33-3.85-7.36-3-10.14-5.61-5.46-5.13-12.39-5.65-19.13-7-2.57,1.58-4.5,3.67-8.46,2.53-3.8-1.08-3.13,3-3.41,5.35-.15,4.92-.26,4.3,3.78,3.56,2.14-.4,4.77,1.66,7.2-.2.42.69-.66,1.54.38,2.24,3.31,2.23,6.1,1.87,9.32-2.51-1.33,4.21-.29,6.35,3.05,7,3.73,0,4.5,1.69,2.87,4.8A1.9,1.9,0,0,0,832.11,585.76Z" fill="#7d7066"/><path d="M816.85,561.34c2.49,2.18,4.91,4.59,8.72,3.21,2.41-.87,3.71,1.05,5.21,2.1,3.34,2.33,6,5.81,10.84,5.19,1.46-.18,1.89,1.57,2.62,2.64,2.32,3.39,2.41,3.41,4.4.11.38-.65.64-1,1.34-1,10-.16,20-.34,29.95-.39.42,0,.85,1.35,1.28,2.07,3.19-.43,4.79-2.37,5.25-5.39-5.13.32-5,.14-12.36-3.39-2.53-1.23-5-2.82-8.62-1.67s-7.24-.73-11.2-2.74c-6.11-3.1-13.2-8-21.47-3.79-2.4,1.22-5.93,0-8.83.57C821.54,559.27,818.63,558.9,816.85,561.34Z" fill="#504741"/><path d="M550.81,684.27l-1.35-5.2c-.62.19-1.79.41-1.78.56.3,4.1-1.63,5.44-5.61,5-1.19-.14-3.46-.87-3.56,1.54,0,1.16.14,2.86,1.65,3.28,2.44.67,1.91-1.08,2.3-2.6.43-1.69,3.11-.59,3-.16-2.32,6.84,3.31,3,5.31,4.06.75.38,1.27,1.24,2.38.2C553.54,688.44,546.17,688.17,550.81,684.27Z" fill="#d0c8c0"/><path d="M517.22,694.7c-1,0-1.7.39-1.81,1.43a1.75,1.75,0,0,0,1.86,2.09c1,.07,2.4.17,2.1-1.46A2.27,2.27,0,0,0,517.22,694.7Z" fill="#908984"/><path d="M832.11,585.76l.08-1.38c.45-1.34-2.26-2.12-.25-4.19,1.28-1.32-2-1.22-2.84-2.21-1.41-.24-4.05-.32-2.64-2.25,1.92-2.62-.48-3.94-.58-7.3-2.16,4.64-3.68,8.92-8.9,5.67,0-2.11,3.43-.24,2.66-3.24-3.59-.4-9.2,6-11-2.45-2.82,1.76-.24,3.6-1.19,5.2-2-.81-1.94-2.76-2.45-4.39-2.12-2.26-3.68-4.77-7.08-.72-2.09,2.48-8.15-.28-9,5.28,1.67.24,3.63-.33,5,2.3-5.3-2.16-7,.69-7.81,5.21,3.48.05,5.62-5.25,9.51-2.39.32,2.14-2.5,2.21-2.92,4.58,3.39-.09,7.37.95,9.78-.52,4.3-2.62,7-5.19,11.08.61,2.3,3.28,9.48.44,10.9-3.66C827.4,581.34,826.28,588,832.11,585.76Z" fill="#a69588"/><path d="M766.74,575.9c3,3.84,8.3,1.39,11.18,3.39s3.33,1.14,4.56-.87c2-3.24.11-4.15-2.74-4.5C775.07,572.41,771.22,576.19,766.74,575.9Z" fill="#a49386"/><path d="M829.1,578c2.86,1.27-.3,5.37,3.08,6.4l3.26-4.56A8.6,8.6,0,0,0,829.1,578Z" fill="#64574e"/><path d="M668.08,586.14c.12-2.59,2-2.69,3.92-2.64,4.38-1.27.84-6.13,3.75-8.06,5.73-2.7,7.94-2.19,10.51,2.43a1.88,1.88,0,0,0,.71,1.7,2.46,2.46,0,0,0,1.28.6c-1.31-.9-5.14-.28-5.41-4.43-2.17-3.7-4.25-1.43-6.35.08.57,8.16,6.83,12.25,16.48,10.77a6.11,6.11,0,0,0,2.95-2.54c1.85-3.16,2.45-3.62,5.09-3.5a1.93,1.93,0,0,0,.71-1.75c-6.6-6.25-13.79-11.29-23.46-11.32l-4,.06a3.47,3.47,0,0,0-1.27.12c-8,2.7-8.28,9.33-8.52,15.44C664.4,585.09,665.59,586.09,668.08,586.14Z" fill="#1b1918"/><path d="M674.43,574.17c-3.12,2.52-.94,6.39-2.43,9.33-2.09,3.37.49,4.19,2.87,5.12,3-2.12,5,.44,7.22,1.61a4.84,4.84,0,0,0,2.55.34,4.65,4.65,0,0,0,1.43-.61c.88-.77,1.68-.36,2.47.24a3.51,3.51,0,0,0,2.37,0c1.33-.69,1.88-2.1,2.91-3.07a1.87,1.87,0,0,0-.4-1.59c-10,.27-14.47-2.47-16.21-10C676.62,574.35,675.19,574.94,674.43,574.17Z" fill="#332a24"/><path d="M685.65,589.94l-2.8-.22a3.4,3.4,0,0,0-3.94,0c-.54.32-2.29.61-1,1.26,3.17,1.6,6.76,1.64,10.31,1.16C688.77,589.86,687.1,590,685.65,589.94Z" fill="#706257"/><path d="M698.42,588.05a3,3,0,0,0,1.71-1.4,1.2,1.2,0,0,0-.24-1.77c-2.74-1.35-4.62.13-6.42,1.89l-2.55,2.63a1.52,1.52,0,0,0,2.53-.06C695.58,589,696.19,588.45,698.42,588.05Z" fill="#1b1918"/><path d="M693.45,589.34l-2.53.06-2.73.14a2,2,0,0,0-2.67-.06l.13.46,2.57,2.24C690.31,591.86,693.13,592.85,693.45,589.34Z" fill="#62574f"/><path d="M678.91,589.76l3.94,0c-2.34-2.62-4.81-4.34-8-1.1C676.32,588.65,677.85,588.39,678.91,589.76Z" fill="#24211e"/><path d="M674.43,574.17c.61,1.09,1.67,1.25,2.78,1.31,1.9-.22,4.12-2,5.34,1.08.91,1.75,2.07,2.7,4,1.24,1.59-.24,3.44.37,5.28-1.9C685.61,575.05,680.77,569.15,674.43,574.17Z" fill="#423831"/><path d="M686.54,577.8l-4-1.24c-.86.12-2.06-.08-2.51.4-1.26,1.35.29,1.72,1.15,2.1a74.84,74.84,0,0,1,7.16,3.07c1.42.81,2.5,1.81,3.93.37a2.29,2.29,0,0,0,.71-1.66c-.3-2.16-2.14-1.57-3.56-1.86A15.54,15.54,0,0,1,686.54,577.8Z" fill="#0f0e0d"/><path d="M685.52,589.48l2.67.06c.18-.87,1.2-2.07-.46-2.37S685.66,588.14,685.52,589.48Z" fill="#1b1918"/></g><g id="frame"><rect width="1000" height="1000" fill="none"/></g></svg>