<!-- Copyright (c) 2022 - 2023 Jan Stehno -->
<svg xmlns="http://www.w3.org/2000/svg" viewBox="0 0 1000 1000"><title>mountaingoat</title><g id="mountaingoat"><path d="M617.41,721.17c-14.83,17.43-30.93,33.43-47.57,48.92a299.62,299.62,0,0,0-23.05,24.27c-5.28,6.16-10.85,12-15.7,18.61-10.65,14.39-22.33,28-29.24,45.14-3.42,8.46-2.05,17.72,3.68,21.81,1.22-1.92.41-3.63-.65-5.16a8.17,8.17,0,0,1-.45-9.3c.34-.42.67-.86,1-1.27,3.17-2.52,7.48-3.41,9.58-7.46a16.3,16.3,0,0,1,7.23-6.29c4.58-1.8,6.12-.75,6.48,4.53a12.93,12.93,0,0,1-.77,6.16c-1,3.44-3.71,6.23-3.23,10.17,4.19,3.3,5.52-.95,6.71-3.38a79.3,79.3,0,0,0,8.16-29.85c.1-1.54-.92-3.49,1.28-4.26a2.65,2.65,0,0,1,2.81.5c1.49,1.44.52,3,.19,4.6A109.07,109.07,0,0,1,536,864.29c-1.1,2.34-.55,4.39,1.27,6.22s1.3,5.14-.76,4.44c-6.17-2.09-8.9,3.41-13.19,5.25-2.18-.68-3.77-3.23-6.46-2.28-2.51,1.29-5.39,1.8-7.56,3.87-1.08,1.37-1,3-1,4.68-.14,9.1,3.93,11.59,12.11,7.4,4.53-2.82,9.17-4.83,14.59-3a5.36,5.36,0,0,0,5.6-1.14c3-2.67,4-6.6,5.52-10.17a4.63,4.63,0,0,0,.49-1.15c1.23-6.53.57-13.92,7.74-17.68,1.09-.58,1.24-2.93.31-4.08-4.26-5.25-.92-11.4-1.9-17.05-.44-2.49,1.28-5.35,4.21-4.84,3.1.54,3,3.54,2.28,6.09s-1.86,5.11-1.59,7.94c.4,4.14,2.28,5.58,5.52,3.52,6-3.81,10.63-9.38,15.83-14.22,2-1.86.74-4-2.05-4a15.74,15.74,0,0,0-7.41,1.93,3.33,3.33,0,0,1,1.25-3.54c4.44-3.56,6.35-8.16,6.56-14,.07-2-.36-7.16,4.81-3.87,1.43.91,2.64-1.42,3.13-3,.84-2.81,2-5.88-.57-8.25-3.3-3.09-7.13-5.48-4.4-11.4,1.76-3.84,2.11-8,5.7-11.29,8.65-7.8,13.88-18.62,20.5-28.21,2.88-3.77,5.4-5.62,9.41-.76,3.4,4.13,7.64,2.88,9.74-2.2a25.24,25.24,0,0,1,8.43-11c3.58-2.64,5.28-6.72,6.94-10.7a6.94,6.94,0,0,0-.88-7.12c-1.8-2.24-4-1.38-6-.43-2.32,1.1-3.91.66-5.63-1.53-4.29-5.46-4.42-5.36-8.51.06C619.25,719.68,618.64,720.78,617.41,721.17Z" fill="#ded4bc"/><path d="M555.51,920.41c8.25,0,15.37,5.55,23.65,5.31,8,4.22,10.37,12.8,14.3,20.19h0c2.88,4.23,4.49,9.61,9.62,11.78,2.8-.36,5.58.18,7.55-3.41,1.5-2.76,4.09-1.7,5.32,1.22,1.52,3.62,3.88,5.24,7.79,5.39,4.72.19,7.52-1.36,8.43-6.44.36-2,.31-5.18,3.8-3,4.42-2.79,6.82-7.53,8.36-12.16,1.43-4.31,3.68-7,7.32-8.31,4.44-1.6,6.89-4.34,9.09-8.89,1.87-3.86,6.47-6.25,8.7-10.48.68-1.29,1.58-2.4,1.58-4a40.76,40.76,0,0,0,1.19,9c.35,1.41.72,3,2.49,3.07s2.4-1.56,2.46-3c.36-10.26,8.76-18.4,7-29.11-.74-4.55,5.1-4.65,4.58-8.72a10.12,10.12,0,0,0-3.4-5.11,1.51,1.51,0,0,0-1.52.28c-1.42,2.69-3.73,4.71-5,7.48-.33.43-.64.89-1,1.33-1.36,1.74-3.15,3.44-3.06,5.81.15,3.81-2.1,5.41-4.75,6.87a6,6,0,0,0-1,1.39c-1.12,4-3.85,6.7-6.31,9.7-1.1-1.11-.81-2.46-1.23-3.56a4.7,4.7,0,0,0-.91-1.58c-2.62-.74-4.71.29-6.52,2.21a5.27,5.27,0,0,0-.74,1.7c-.55,1.31.42,2.59.06,3.9-1.2-3.22-6.42.86-6.71-4.18a52.21,52.21,0,0,0-1.47-9.3c-.46-1.86-1-4.2-3-4.13-2.41.1-2.08,2.71-2.12,4.47-.18,8.81.79,17.57,1.58,26.32.6,6.69.32,7.47-6.14,8.34a7.26,7.26,0,0,0-5.59,4.11c-1.1,1.94-1.46,4.32-3.77,6.82-3.06-7.1-2.69-13.83-1.78-20.56a53.65,53.65,0,0,0-1.22-22.42c-.63-2.2-1-4.56-3.18-5.79-.64-.45-1.52-.64-1.88-1.4-2.36-4.89-4.37-5.9-6,.45-.16.61-.93-.1-1.36-.46-2.11-1.83-3.13-6.51-7.23-3.12-1.21,2.77-2.11,4.28-5.29,1.4s-8.22-3.6-11.58-.29c-6.17,6.06-14.15,7.85-21.37,11.35-5.63,2.74-10.5,5.74-12.06,12.7-.5,2.23-.7,4.08,1,5.72C554.62,919.69,555.06,920.05,555.51,920.41Z" fill="#5c534a"/><path d="M745.23,605.13c5-20.08,11.73-39.58,17.9-59.27,2.85-9.66,9.13-16.87,15.4-24.08,5.77-9.93,14.89-16.32,23.68-22.27,11.47-7.76,21.66-17.37,33.53-24.54,6.66-4,14.66-6.52,18.52-15.11-1.26-2-3.35-.31-5.3.05a164.39,164.39,0,0,1-17.2,7.61c-9.13,5.93-19,10.53-27.69,17.4,5.27-5.49,10.27-11.23,16.61-15.37a25.93,25.93,0,0,1,12.84-11.64c6.22-2.91,10.58-8.71,16.63-11.89h0c6-3.1,11.17-7.49,16.94-10.93,1.11-1.11,2.83-2.33,2.07-4-.92-2-2.88-.83-4.23-.24-5,2.21-10.47,3.58-14.8,7.4a167.69,167.69,0,0,0-56.52,36.36c-7.5,10.35-16,19.8-24.34,29.33a43.72,43.72,0,0,0-11,24c-.23,1.94-2.07,3-3,4.65-2.71,5-7.2,9.45-3.58,16a2.51,2.51,0,0,1-.51,2.93,12,12,0,0,0-3.7,10.15,2.69,2.69,0,0,1-2.12,2.75c-4.87,1-6.95,4.6-8.75,9.1-1.08,2.7-2.61,5.6-5.71,6.95-2.1.91-3,3.26-4,5.35-2.83,6.11-2.85,13-4.06,19.45-.81,4.31-1,10.86,6,12.35,1.71.37,2.56,2.53,3.54,4.12,1.17,1.89,2.14,4.69,4.78,3.83s3.44-3.67,3.68-6.58C741.37,614.1,742,609.14,745.23,605.13Z" fill="#16120d"/><path d="M617.41,721.17l.41.45c4.35-4.78,8.39-8,11.71,1.18.62,1.71,2.79-.27,4.22-.74,1.88-.6,3.91-3.42,5.65-.44,1.39,2.35.74,5-.35,7.72-2.54,6.33-8.89,8.87-12.21,14.43-.94,1.56-2.09,2.78-2.4,4.75s-.87,3.81-3.05,4.1a5.94,5.94,0,0,1-5.34-2.25c-4.26-5.16-5.87-5-10.55,1.13,3.42,1.73,7.8,1.9,8.29,7.72.19,2.28,3,1.88,5,.79a31.15,31.15,0,0,0,9-8c1.1-1.36,1.81-3.43,4.15-2.57,2.91-.26,3.47-3,4.76-5,2.25-3.5,4.81-6.27,9.23-3.44,1,.67,2.39,1.12,3.34.24,3.45-3.22,8.22-4.91,10.23-9.81a3,3,0,0,0-1.38-1,4.58,4.58,0,0,0-2.54.15c-2.29,1-4.86,3.11-7,.48-1.73-2.17,0-4.76,1-7a36,36,0,0,1,5.25-8.23c1.16-1.81,2.2-3.72,4-5,1.56-1.05,3.37-1.65,4.86-2.85,4.9-3.11,9.94-5.87,12.21-12.19.86-2.38,3.18-4.21,6.29-1.69,2,1.64,14.21-1.35,15.84-3.47,2.23-2.9,1.57-5.68-1-7.61-4-2.9-2.59-4.26,1-5.52,1.43-.51,3.24-.71,3.34-3A8.81,8.81,0,0,0,698.8,672c-2-1.71-3.8-3.59-6.53-4.09-6.2-1.15-9.88-4.81-10.16-11.81-.08-2.08-.59-4.17-2.49-5.42a14.48,14.48,0,0,1-9.41,6.55c-10.3,2.34-15.86,11.32-23.49,17.38-5.73,4.56-9.54,10.79-12.35,17.4C629.89,702.55,624,712,617.41,721.17Z" fill="#d8cdb3"/><path d="M745.23,605.13c-5,2.78-4.51,8.38-5.07,12.88-.38,3.08-1.2,5.66-3.36,6.53s-1.86-2.57-2.93-3.84c-2-2.36-3.11-6.08-7.18-5.63-.64.07-1.35-.69-2-1.06,2.18-3.49-2.15-7.38-.63-9.52,3.36-4.7,1.34-10.07,3.12-14.77,1.46-3.83,2.5-7.47,6.93-9.44,2.6-1.16,5.69-5.39,5.57-8.09-.21-4.6,2-4.37,4.66-5.35,2.91-1.09,6.71-1.72,4.76-7.26-1.61-4.58,4-5.68,5.24-8.89s-5.44-5.14-1.82-9.89c2.27-3,3.39-7,6.1-9.86,1.42-1.49,3-3,1-5.29a1.73,1.73,0,0,1-.33-2.18c6.71-14.51,17.3-25.79,27.55-37.37,2.9-3.28,5.8-6.62,7.34-11a3,3,0,0,0-1.32-1c-7.67-.58-9.91,6.59-14.08,11-4.41,4.78-6.23,11.84-12.13,15.29a4,4,0,0,0-2.17,2.84c-.68,5.42-4.64,8.63-7.42,12.63-2.53,3.64-6.14,6.65-3.59,12.2,1,2.25-1.69,3.56-3.18,4.73-3.87,3-7.22,5.77-7.53,11.84-.18,3.6-3.34,7-4.78,10.67-5.21,13.33-13.78,25-18.35,38.44-3.35,9.88-7.27,19.81-8.15,30.53,1,7.46-1,14.41-3.37,21.25a8.59,8.59,0,0,0-.31,6.09c2.46,6.07,3.66,13.35,11.56,14.71a5.36,5.36,0,0,1,3.25,2.55,12.65,12.65,0,0,0,9.63,5.37c4.38-.83,5.59-4.66,7-8.28,1.11-5.21.39-10.33-.92-15.37a34.77,34.77,0,0,1-.33-15.29Z" fill="#241e16"/><path d="M730.86,900.36c3.27,2.27,7.56-2.44,10.34,1.33,4.48,6.07,11.84,7.91,16.7,14,3,3.71,6.81,8.54,12.29,10.12,3.35,1,3.81,5.17,6.22,7.39,2.6,2.4,3.15,7.6,8.32,6.5.38-.08,1.15,1.5,1.63,2.38s.61,2.47,1.27,2.76c7.6,3.21,11.62,11,18.09,15.67,5.28,3.84,9.6,9,15.26,12.54a28.23,28.23,0,0,0,6.25,3.32c2-1.27,1.37,1.06,2,1.67,1.27,2.08,1.35,5,3.78,6.24.68.29,1.34-.49,1.86-.17.21.13-.62.8-.76,1.39a3.47,3.47,0,0,0,.26,1.75c2.24,2.17,4.74,3,7.67,1.71,1.39-3,.21-5.78-.53-8.61-3.17-4-3.17-4-6.77-3.88.48-1.86,2.35-3,2.19-5-.23-2.89-1.12-5.28-4.37-4s-4.82-.3-6.18-3c-1-1.88-2.18-4.16-4.16-4.21-9.53-.28-13.1-11.13-21.63-13.31-2.8-.72-3.92-3.95-2.73-7.33,1.1-3.14,1.44-6.52,2.68-9.64,1.11-2.83,1.69-6.1-1.28-7.88-2.77-1.65-5.78-.81-8.21,1.51-.73.7-1.18,1.72-2,2.27-1.19.76-2.28.3-3.26-.54a2.77,2.77,0,0,1-1.31-2.62c.26-1.51,1.46-1.85,2.66-2.07a13.47,13.47,0,0,1,2.38-.07c2.89,0,5.19-1,5.59-4.37.37-3-.12-6.65-3-7.57-4.91-1.57-6.17-5.2-7.07-9.71-.41-2-.77-5-4.13-3.65-2.14,2.38-.83,5.63-2,8.82-3-1.53-6.25-.89-9.23-1.42-.63-1.55.18-2.31.69-3.16,1.35-2.28,1.86-4.78.43-7.06-1.58-2.53-3.53,0-5.32.06a6,6,0,0,1-1.75-.15c-2.37-2.19-4.64-3.53-7.93-1.39-2.92,1.9-4.83.45-6.42-2.92-3.91-8.34-4.14-8.25-11.69-7.16-3.74,2.9-3.3,8-2.34,10.9,1.57,4.81-1,5.08-3.52,6.32C731.08,898.67,730.5,899.3,730.86,900.36Z" fill="#98815f"/><path d="M730.86,900.36l1-1.32a3.15,3.15,0,0,0-.93-3.93c-5.07-3.19-2.21-6.64-.69-10.23,2.73-6.42,5.89-12.65,7.82-19.43-2.2-5.4,2.22-8,4.39-11.58,1-2.15,2.17-4.22,2.57-6.63.07-3.7-1.48-5.28-4.79-3.53s-8.57,1.14-9.18,7.26c-.22,2.17-3.05,1.57-4.32,2.87-1.38,3.1-1.27,6.71-3,9.69-.52,2-.21,4.19-.64,6.22-.95,4.46-4,6.66-7.95,5.31-3.65-1.24-4.76,1-5.52,3.75a36.28,36.28,0,0,1-6.23,12c-1.44,1.91-2.91,2.29-5.16,1.49-6.75-2.39-13.14,1.92-13,9.33.25,11-5.22,19.43-10.38,28-3.19,5.27-2.71,7.53,3.42,9.92,4.72-1.29,9.73-1.89,13.09-6.32,1.47-7.94,7-11.73,13.56-13.84a10.77,10.77,0,0,0,6.2-5C716,906.93,720.73,899.38,730.86,900.36Z" fill="#4d4031"/><path d="M958.77,673.2c-2.78.37-5.73-.44-8.31,1.36-3.37,2.2-6.29,4.75-10.7,1-1.9-1.62-4.71,1.86-6.9,3.47-1.43,1.49-2.88,2.91-5,3.13a5.55,5.55,0,0,0-4.24,2c-6.5,9.48-16.5,14.22-25.09,20.86-2.47,1.91-4.19,4.13-2.86,7.44,1.54,3.81,4.57,4.27,8,3.29a17.76,17.76,0,0,0,4.88-3.73,7.73,7.73,0,0,1,4.49-2.81c1.39-.19,2.59.29,2.25,1.94-1.42,6.71,3.34,9.08,7.33,12a5,5,0,0,0,1.72,0c7.74-3,13.57-9.07,20.17-13.92,2.72-4.79,6.29-8.37,11.75-9.32,2.41-.42,3.64-2.07,4.23-4.51a32.22,32.22,0,0,1,2-6.47c1.13-2.88,2.38-5.73,1.76-9-.66-1.55-2.87-1-3.32-2.17-1.66-4.29-3.68-2.39-5.7-.6a44.75,44.75,0,0,0-3.55,3.71C953.24,677.83,957.25,676.79,958.77,673.2Z" fill="#cac0ad"/><path d="M852.75,645.41a2.16,2.16,0,0,0-3.06-.95,14.71,14.71,0,0,1-15.9-1.93c-1.58-1.21-3.36-2.19-5.51-1.17-11.65,5.54-23.31,3-35.16.56-4.31-.9-9.22.12-13.59,1.32-2.54.7-5.61,2-7.38.91-5.36-3.36-8.89,1.37-13.25,2.05-6,.93-11.95,1.08-17.53,4-.59.3-2.17-1.51-3.29-2.34-1,3.42-.38,6.09,3.07,7.47a5.61,5.61,0,0,1,2.28,1.94c5,6.55,5.55,6.59,11.38,1.25a56.2,56.2,0,0,0,3.81-4.3c-1,5,1.44,6.65,5.26,7.11,5.69-.71,9.22-5.11,13-8.88,2.3-2.29,3.76-2.47,5.27.53,2.91.16,3.48-3.82,6-3.49-2.54,4.18-.6,8,2.12,11.6a3.37,3.37,0,0,0,2.8.79c3.93-1.39,6.85,1,10.26,1.91,6.07,1.64,10.84,3.14,13.68,9.35.4.9,1.76-.15,2.55-.76,2-2.17,3-5,4.27-7.62,4.92-3.64,9.16-7.67,9.56-14.71.17-3,2.15-1.11,3.54-.9C842.64,650,848.42,651.05,852.75,645.41Z" fill="#979388"/><path d="M918.14,663.07c-4.63,1-9.22,2.64-13.34-1.76-1.71-1.84-4-.64-5.32.88-3.13,3.47-5.86,2.54-8.66-.31-5.68-.36-11.39.78-16.86-2.82-2.23-1.47-6.13-.76-9.12.65-2.24,1.7-2.76,4.52-3.9,6.92-1.46,3.06-3,5.8-6.42,6.92a7.61,7.61,0,0,0-5,5.85c-1.13,5.22-4.13,9-7.75,12.32-.37.84.07,1.53.3,2.32.46,1.55-2.25,3.7.4,4.75s4-1.28,5.12-3.21A131.66,131.66,0,0,1,855,684.25c3.1-4.2,6.39-7.58,11.81-3.76a3.75,3.75,0,0,0,2.9.14,5.69,5.69,0,0,0,1.56-.68c2.1-1.56,3.64-3.79,5.71-5.39,1.08-.84,2.49-2.24,3.66-1,5.47,5.58,12,2.08,17.92,2.19,3.41.06,7.06.4,10.49-.76a22.55,22.55,0,0,0,2.59-.29c3.89-1.11,7.41-3.76,11.92-2.09,2.21.82,4.05-1.16,5.18-3.29.62-1.17.71-3.06-.84-2.77C923.89,667.27,921.88,662.55,918.14,663.07Z" fill="#727574"/><path d="M679.62,650.66c.52,2.38,1.3,4.62,1.34,7.21.1,6.9,3.82,11.3,10.5,11.21,3.72,0,3.94,4.58,7.17,4.16,2.28.24,1.12-1.47,1.14-2.38.1-3.54-4.43-7.62,1.19-10.57.55-.29,0-1.64-.6-2.2-2.16-2.15-1.53-3.45,0-6.13,2-3.38-1.56-5.8-4.14-7.63-2.08-1.47-4.91-1.74-6.27-4.34.07-.49-.93-1.85.55-1.18s2,2.79,3.35,3.94c2.11,1.38,4.69,2.71,6.48.44,2-2.56-2.21-3.3-2.32-5.84,7.28-4.42,8.66-12,8.69-20.21,0-3-1.14-4.94-4.46-3.59-1.07,2.72-2,5.42-5.76,4.73-2.78-.51-4.35,1.55-3.78,4.13,1.06,4.84-1.41,5.27-4.78,5.17a5.62,5.62,0,0,0-5,2.75C681,637,682.05,644.13,679.62,650.66Z" fill="#705c42"/><path d="M635.34,950.87c-.18-1.36.35-3.22-1.66-3.46-1.62-.19-1.71,1.29-2,2.53-.3,1.43-.75,2.81-1.08,4.23-.55,2.36-.49,5.79-3.8,5.14s-8.24,2-9.56-4.32c-.35-1.65-.63-5.19-3.14-4-1.67.8-6.55-2.58-5.32,3.58.3,1.5-1.29,2.49-2.93,1.16s-2.49-.6-2.73,1.35c.44,7.89,5.15,13.07,10.43,17.67,2.15,1.88,4.54.34,6.48-1.26,2.82-2.32,5.74-4.36,9.4-4.84,2.91-1.43,7-.71,8.19-5.23,4.32-4.79,10.19-7.18,15.2-10.9,0-5.56-2.31-10.13-5.36-9.27-3.34.94-7.1,2.46-9,6C637.56,950.81,637.43,952.42,635.34,950.87Z" fill="#48413a"/><path d="M683,630.33c2.72-1.66,5.72-1.13,8.65-1.26,2.49-.11,5,.13,2.92-4.17-1.5-3-1.79-6,3.54-4.85,4.46,1,6.42-1.32,4.16-6.14,4-6.14,4.9-13.52,7.35-20.29-2.72-3.39-6.8-4.64-10.11-7.11-1.62-1.21-3.32-.89-4.61.86A82.18,82.18,0,0,0,683,630.33Z" fill="#897558"/><path d="M512.63,900.12c2.07,4.2,5.38,5.06,9.44,3.91,3.8-2.32,8.2-1.62,12.25-2.69,4.9-.92,10-1.22,13.9-5.16a11.84,11.84,0,0,1,5.22-5.28c3.62-2,6.37-5.45,8.54-9.21a10.21,10.21,0,0,1,5.6-4.28,3.85,3.85,0,0,0,1.71-1.89c-1.47-5.71-1.3-9.93,6-10.7a6.15,6.15,0,0,0,5.1-6.47c-3.4-2.73-3.51-6.21-2.08-10.06.81-2.19,1.75-4.79-.76-6.07s-3.15,1.68-4.46,3.09c-4.67,5-8.55,10.88-14.18,14.92-3.15,2.27-4.25,5.36-2.38,9.2,2.15,4.71,1.35,9.09-2.11,8.93-7.58-.37-10.69,5.92-12.5,10.73-2.36,6.31-6.23,7.37-11.16,8.26-.89.06-1.78.08-2.67.09a89.36,89.36,0,0,1-9.53-.52C516.06,896.62,513.26,896.3,512.63,900.12Z" fill="#aa9d88"/><path d="M864.54,660.63c4.79-1.62,9.21-1.79,13.83,1.41,3.79,2.61,8.3,1.06,12.45-.16-.44-.37-1-1.16-1.32-1.07-7.67,2.09-14.36-4.36-22-2.8-.53.11-1.53-.12-1.65-.46-2.29-6.6-8.64-8.26-13.15-12.14-6.6,2.88-13.2,5.56-19.87-.55-.63,2.89-1.21,5.43-1.74,8-.74,3.6-1.16,7.32-5.82,7.83-1.68.19-2.52,1.87-2.55,3.75.81,2.22,2.53,2.52,4.47,2.39,2.33-.45,3.65-2.32,5.11-4.05s2.38-4.35,4.74-.08c1.66,3,3.87-1,5.83-1.81.07-.87.93.58.28.09-.3-.22-.26,0-.41.46-.44,1.32-.49,2.56.83,3.22s2.28-.27,3-1.29a64.86,64.86,0,0,0,5.22-9.23c-.91,2.58-2.61,5.28.11,7.6,2.24,1.92,4.7.87,6.62-.57S862.43,659.29,864.54,660.63Z" fill="#7f7f7a"/><path d="M555.51,920.41a1.91,1.91,0,0,0-.15-1.11c-1.2-1.22-3.81-1-2.58-4.43,2.39-6.62-.6-10.77-8-12-7.09,1.76-14.36,1.73-21.55,2.47-.38,14.51,10,18.62,22.35,14.75C549,919,552.18,921.42,555.51,920.41Z" fill="#cabfa7"/><path d="M998,737.51a14.06,14.06,0,0,1-2.82-8.71c-2-7.62-4.64-15-6.56-22.64-1.39-2.71-.88-5.62-.78-8.49-1.21-6-2.11-12.28-8-15.64a3.77,3.77,0,0,0-3.55,1c-.62,2,.43,3.73.63,5.59,1.31,6.83,5.06,13.07,4.3,20.38-.41.75-.93,1.42-1.4,2.13a6.79,6.79,0,0,0-.74,1.62c-.36,4.36.89,8.47,1.72,12.66a8,8,0,0,0,.74,1.72c5.24,3.27,7.25,9.93,12.44,13.25C994.69,738.5,996.31,738,998,737.51Z" fill="#cbbca8"/><path d="M723.63,531.91l-6,10c-.6,1.09-.59,2.38-1.19,3.51-1.85,3.47-1.7,6.22,2.36,8,3.67,1.63,5.36,4.76,4.59,9.1.77,2.47,2.52,2.35,4.29,1.63,1.58-.65,1.68-2.22,1.41-3.71-.48-2.55-.56-4.72,1.56-6.79,1.89-1.85-.06-3.7-.81-5.57-1.16-2.91-5.25-3.86-4.59-7.86,1.88-1.7,3.78.72,5.65,0a4.59,4.59,0,0,0,2.65-1.87c.66-2.09-1.77-3.61-1-5.73,1.71-.74,2.76,1.39,4.34,1,3.64-.92,7.6-1.18,9.88-5.08a5.07,5.07,0,0,0,.57-1.64c-.73-4.8-2.88-5.91-7.41-4.33-2.25.78-5.13,3.87-7.83.37C727.56,524.12,725.92,528.35,723.63,531.91Z" fill="#958266"/><path d="M792.9,475.12l1.22,0c5.16-4,10.19-8.3,15.54-12,4.4-3.09,10.78-4.44,13.41-8.59,3.62-5.7,9.56-5.69,13.87-9.31,3.62-3,9.5-2.92,13.18-6.92-5.59.09-11,2.63-15.53,4.86-15.67,7.72-32.31,14-45.25,27C788.83,473.12,791.84,473.34,792.9,475.12Z" fill="#322a21"/><path d="M523.24,905.31c7.67,2.84,15.08.38,22.53-1.2,4-.84,8.08-1.17,12.12-2.07,9.24-2.06,14.91-8.81,20.73-15.62-.12-4.28-2.78-3.36-5-2.49-6.69,2.62-13.74,4.74-19.56,9-6.26,4.62-12.66,7.51-20.28,7.28-3.14.25-6.28.81-9.4.64-2.71-.15-2.25,1.52-2.3,3.14Z" fill="#3b3329"/><path d="M764.21,660.51c-3.42-1.17-5.88-3.07-4.7-7.53-4.06.76-6,4.24-8.43,6.49-3.24,3-4.68,1.69-5.54-1.16s-1.59-4.66-4.91-5c-2.44-.25-2.13-3.38-2.55-5.47q-.06-6.24-.11-12.47c-2,5-1.88,10.18-1,15.26a89.28,89.28,0,0,1,.92,16.15c-.36,1.68-1.41,4.38,1.34,4,3.92-.6,6.41,2.42,9.73,3C754.52,670,760.41,666.6,764.21,660.51Z" fill="#868176"/><path d="M918.14,663.07c3.27,1.63,6,4.45,10.47,4.16-2.09,3.49-3.87,5.62-7.39,3.26-4.28-2.87-6.43,3.24-10.16,2.81-.29,1.09.32,1.66,1.07,2.16,2.9,3.17,5.64,5.09,10.39,2.88,3-1.38,7,1.51,10.42-.94.27.73.22,1.59.82,2.19l6.53-3.94L938.2,680c3.31-3.77,10.64,2.61,12.26-5.42a11,11,0,0,0-1.14-.11c-3.07-.86-1.38-5.7-4.72-6.32-3.78-3.84-8.63.12-13.11-2.21-3.09-1.6-7.56-.76-10.84-3.45C919.75,661.74,918.81,662.06,918.14,663.07Z" fill="#8c8980"/><path d="M513.6,856.26c-1.93,4.33-6.73,4.55-9.62,7.5,5.79,5.73,5.74,5.66,12.17.65,2.53-2,4.83-5,9.28-3.68-4.23,4-6.73,8.65-9.88,12.82-1.7,2.24-3.29,4.69-6.14,3.78-2.64-.84-3.43-3.86-4.07-6.47-.58-2.33.74-5.07-1.34-7.11-3,3.8-3.57,7.72-.35,11.67a9.75,9.75,0,0,1,1.88,4.5l1.1,1.39c.72,1.55,1.48,3,3.32,1.25,2-2.08,5.43-1,7.26-3.57,3.69-.56,6.34-2.47,7.46-6.38.22-.51.44-1,.68-1.52q2-4.86,4-9.74c-.05-3.5,2.22-7.63-1.8-10.13a6.55,6.55,0,0,0-8.28.56,15.7,15.7,0,0,0-1.29,1.29A25.06,25.06,0,0,1,513.6,856.26Z" fill="#504838"/><path d="M731.9,523c.49,1.56-1.54,3,.24,5.16,2-4.95,7.27-1.72,10.37-5.28,1.13-1.3,3.61,1.5,4,4.08,7.08,0,5.87-6.5,7.59-10.72-.76-1.74-3.29-1-3.94-3.12,1.74.23,2.41,1.94,3.73,2.61,3.49-1.63,5.68-4.15,5.18-8.5-.23-1.14-2.07-1.62-1.47-2.85.31-.63,1.7.24,2.64.17a1.74,1.74,0,0,0,1.14-1.12,10.48,10.48,0,0,0-1.47-6.78c-2.54-1-3.8,3.14-6.44,1.81-3.66.84-4.92,4.4-7.1,6.93l-3.47,3.89c-3.26,3.5-5.75,7.78-9.77,10.51A2.78,2.78,0,0,0,731.9,523Z" fill="#706148"/><path d="M704.4,564.62c-1.39,1.29-1.92,3.07-2.47,4.84.05.27.11.54.16.81a27.91,27.91,0,0,0,1.72,5.6c1.21,2.59,3.44,4,5.66,5.4,1.48.91,3.35,2.46,4.75.56s-.47-3.47-1.54-4.91a17.5,17.5,0,0,0-2.57-2.67c1.42,0,2.43,1.42,3.82,1.3,3.38-.3,7.25-.52,8.91-3.95,1.77-3.63-1.66-5.52-3.89-7.5A16.62,16.62,0,0,1,713,553.18c-4.2,1-4.71,5.39-6.7,8.39C705.68,562.57,705.38,563.83,704.4,564.62Z" fill="#958266"/><path d="M753.55,499.26c3.59,3.28,4.29-1.19,6.14-2.56,4.74,1.37,7-2.69,9.8-5.24s4.9-5.42,8.82-5.53a2.18,2.18,0,0,0,1.41-.78c.93-1.5,3.26-.65,3.88-3.16,1.19-4.82,5.48-5.65,9.3-6.87.3-2.85-2.12-3.55-3.56-5L769.09,484C763.19,488.28,756.86,492.05,753.55,499.26Z" fill="#5b4f3d"/><path d="M694.85,587.37c5-2,6.8,4.24,10.91,4.79,1.16.16,2.24,1.61,3.71,1.66,2.6-.58,1.53-2.11.68-3.39s-2-1.9-2.54-3.2c-.21-1.93,2-3.15,1.37-5.2s-2.43-3.06-3.86-4.38c-2.8-1.77-1.34-5.29-2.78-7.62-.13-.2-.27-.39-.41-.57C698,574.74,696.38,581,694.85,587.37Z" fill="#958266"/><path d="M970.87,679.46c-.1-3.28-.19-6.57-.29-9.85a17,17,0,0,0-11.81,3.59c-4.5,2.59-7.93,6.44-11.94,11.12,5.9-.85,8-6.06,12.34-8.64-2.69,8,2.87,3,4.65,4,3.16-3.56.61,2.61,2.33,1.53A4.49,4.49,0,0,0,970.87,679.46Z" fill="#908475"/><path d="M704.4,564.62c4-2.79,4.86-8.21,8.61-11.17,3.23,3.36,4.5,9.38,10.65,8.77,2.06-3.48.55-10.2-3.21-10.47-6.39-.44-3.73-3.73-3-6.84a19.23,19.23,0,0,0,.17-3C712.69,549.12,706.82,555.75,704.4,564.62Z" fill="#958266"/><path d="M629.46,968.66c-4.14-.91-7.21,1.56-10,4-3.47,3-5.9,2.13-8.22-1.37-3-4.53-6.56-8.72-8.06-14.21-4.24-2.75-5.21-8.66-9.69-11.18.41,3.8,15.18,27.29,18.29,29.08a7.53,7.53,0,0,0,8.45,0C623.31,972.9,626.37,970.76,629.46,968.66Z" fill="#48413a"/><path d="M510,882.56l-3.32-1.25c1.67,6.39-1.18,14.38,6,18.81,2.77-3.75,6.22-1,9.35-1,2.38-.08,4.75,0,7.13,0,1.12-4.6-.46-7-5.05-6.51-1.52.17-3.06-.49-4.52.26-2.77,2-6.08-.83-8.86,1.09C509.09,890.21,508,886.5,510,882.56Z" fill="#c9bea9"/><path d="M832.24,468.64c5.41-3.27,12.22-3.51,16.72-8.73-7.6,1-13.9,6.09-21.35,7.6-1.3.26-2.56.72-4.67,1.33,2.6-5.36,7-7.33,10.49-10.22.39-.3.51-.59.38-.88s-.27-.43-.4-.43c-6.09,1.63-10.3,5.67-13.09,11.5,0,3.43,1.9,3.52,4.33,2.78A46.39,46.39,0,0,0,832.24,468.64Z" fill="#2e2821"/><path d="M691.44,933.2c-4,2.42-8,4.94-12.81,5.24-6.59,2.29-12.81,5.2-17.13,11.33a1.17,1.17,0,0,0,1.62,0c2.13.53,4-.67,5.52-1.7,6.7-4.67,13.47-9,21.31-11.26C691.62,936.33,691.61,934.71,691.44,933.2Z" fill="#4d4031"/><path d="M753.55,499.26,769.09,484c-9.23,5.16-18.32,10.49-22.77,21.35C749.34,504.15,750.28,500.17,753.55,499.26Z" fill="#5b4f3d"/><path d="M731.9,523c4-4.29,8.9-7.71,11-13.72-7.22,6.78-15.88,12.17-19.22,22.63Z" fill="#706148"/><path d="M593.46,945.91c-.42-8.46-7.34-18.23-14.3-20.19C585.69,931.06,587.48,940.15,593.46,945.91Z" fill="#5c534a"/><path d="M778.53,521.78c-7.9,6.05-13.39,13.82-15.4,24.08C767.18,537.06,773.84,530.12,778.53,521.78Z" fill="#7f7976"/><path d="M663.12,949.76l-1.58-.17c-3.87-1.8-7.09-1.23-9.34,2.86-4.75,3.82-11.73,4.31-14.55,11A150.92,150.92,0,0,1,663.12,949.76Z" fill="#48413a"/><path d="M856.84,996.7q.25-7,.5-14.07l-.85-4.29c-1.76,5.71-4.24,9.67-4.06,14.53Z" fill="#b7a482"/><path d="M833.41,457.31c0,.43,0,.87,0,1.31,7.15-1.85,11.85-7.36,16.72-12.6C843.13,447.4,839.25,454,833.41,457.31Z" fill="#16120d"/><path d="M867.08,435.1c-6.22,2.65-12.19,5.73-16.94,10.93C857.11,444.67,862.14,440,867.08,435.1Z" fill="#16120d"/><path d="M944.6,668.13c2.54,1.3.06,6.79,4.72,6.32C947.1,672.88,949.57,667.4,944.6,668.13Z" fill="#cac0ad"/><path d="M557.73,868.88a4.82,4.82,0,0,1,1.12-7c7.43-4.61,12.25-11.7,17.35-18.6.1-.14.33-.17.89-.43,1.62,2.2.82,4-.75,5.76-2.76,3.11.73,6.21.16,9.44-.16.87,2.41.51,3.75.56,3.66-3,8.55-3.89,11.82-7.57,4.53-2.18,9.41-3.65,13.11-7.45,3-2.89,7.48-4.4,8.05-9.57-.94-2.86.81-3.87,2.88-4.66a6.8,6.8,0,0,0,1.24-1.16c1.57-2.23,3.14-3.81,6.3-3.61,5.09.32,9.62-1.79,13.35-5.59.94-1,1.72-2.78,3.34-1.54a3.6,3.6,0,0,1,.79,5.05c-3.17,4.07-4.09,9.46-7.57,13.37s-4.26,8.79-1.77,13.88c.65,1.34,1.39,3.1,2.84,2.78,7.26-1.6,8,4.44,10,9.13.43,2.77,2,5.67,4.47,3.55,3.53-3,4.21-.13,5.71,1.81,2.77.82,4-.68,4.59-3.28a25.72,25.72,0,0,0,.42-2.75c2.53-5.57,2.81-11-1.73-15.57-2.29-2.3.24-3.71.34-5.54-1.49-3.14-.74-6.83-1.31-9.61-1.3-6.41-.81-10.92,3.95-15,.8-.69.3-2.4.12-3.64s-.57-3.2.29-3.58c5.45-2.41,5.58-8.54,8.43-12.7,4-5.79,6.25-5.81,14.41-1.74,1.93.25,3.32-1.23,5-1.74,5.72-1.74,10.87-5.38,17.56-3.33,4.45,1.36,8.84-.77,12.11-4.89,2-2.55,2.38-4.38-.78-5.76-1.62-.71-2.83-1.36-2.56-3.54a4,4,0,0,1,3.46-3.72,6.61,6.61,0,0,0,3.66-2c2-2.37,2.21-4.46-1-5.81s-6.17-1.54-8.89,1.12c-3.55,3.47-8,4.3-12.57,4.89-2,.26-2.85-.94-4-2-5.53-5.44-12.23-6.23-19.32-5.41-2.48.15-5.64,1.21-6.2-2.64-.51-3.5,2.18-4,4.81-5.48,5.33-3,12.79-4.2,13.69-12.76.54-6.32-3.45-6.14-7.51-5.88-6.76,1-13.12-1.25-19.58-2.64-2.29,1.84-.93,3.19.6,4.41a38.75,38.75,0,0,0,4.18,2.42c3.67,2.26,3.78,4.53.49,7.09-8,6.23-12.23,14.36-11.47,25.1.12,1.68,1.1,4.35-1.51,4.59-2.18.2-1.54-2.43-2-3.9-1.19-3.55-4.91-5.36-7.54-2.8-4.86,4.69-9.84,9.36-13.81,15,3.37,4.92,3.39,9.95-1.68,13.29-8.27,5.44-12.42,14.53-19,21.4-1.71,1.79-3.27,3.65-5.53,4.65-4.49,2-5.21.69-7-4.1-1.45-3.82-.51-6.23.63-9.45.89-2.5,2.44-6.09-.95-7.86-3.86-2-1.88-3.87-.31-5.73,2.12-2.51,4.25-2.75,6.34.31,1.78,2.59,3.12,6,7.07,5.56,5.07-5.35,6.05-13.61,11.8-18.52,1.06-.9,1.13-2.66,1.17-4.13.13-3.86,1.9-6.55,4.8-8.86,5.51-4.38,5.57-5.07,1.2-10.53-1.68-2.1-.53-3.33.43-4.91,1.1-1.81,3.38-3.29,1.68-6-.13-1.26-.2-2.72-1.67-3-1.19-.18-1.47,1-1.87,2-2.14,5.27-6.41,8.21-10.8,11.1-1.74,1.15-3.33.3-3.11-1,1.57-9.16-4.76-6.13-8.81-6.65a164.6,164.6,0,0,0-11,16.93c-2.51,4.58-6.65,8.27-10.43,11.93-2.41,2.33-5.08,4.13-4.11,8.16.29,1.19-.34,1.94-.85,2.84-2.61,4.6-1.53,9,2.79,11.79,2.69,1.71,3.87,8,1.36,9.74-4.12,2.85-1.52-3.56-4.26-3.61-2.12,4.19-4.46,8.48-3.6,13.73.42,2.6-1.22,3.85-2.63,5.26-1.15,1.13-3.27,1.86-3.55,3.13-.6,2.64-4.23,5-2.55,7.17,1.93,2.55,3.13-2,5.17-2.25A30.4,30.4,0,0,1,579,836c-5.89,4.57-10.45,10.5-16.18,15-2.52,2-3.93,1-3.87-2.43A14.33,14.33,0,0,1,560.6,842a7,7,0,0,0-.83-8.19c-1.37-1.55-3.13-2.12-4.87-1.14-2.84,1.62-4.87,4.56-4,7.72.94,3.51.26,6.55-.19,9.83-.18,1.38-.2,3.44.57,4.21,5.87,5.84.73,7.37-3.11,9.54-2.71,1.54-4.76,3.43-2.2,6.88,2.36,3.21-.56,5.43-1.3,8.06,1.63,1.57,3.29,1,4.72-.2C552.62,875.93,554.79,872,557.73,868.88Z" fill="#cfc4ab"/><path d="M525.35,871.09a2.59,2.59,0,0,0-.94.43c0,3.76-3.16,7.09-1.4,11.1,2.37-1.85,4.8-3.64,7.1-5.58,1.52-1.28,2.89-2.32,4.59-.36,3.15,3.66,3.72-.34,5-2,1.5-2,2.5-4.26-.91-5.17-3-.8-2.86-2.61-1.6-4.63,5.23-8.38,5.69-18.5,9.19-27.5a4.5,4.5,0,0,0-1.41-5.08c-2.3-2.21-5.07-.28-7.23.39-2.49.77.52,2.59.46,3.95a68.69,68.69,0,0,1-4.27,21.76c-.87,2.24-1.81,4.5-2.72,6.76C530.11,867.8,529.77,871.92,525.35,871.09Z" fill="#ccc2aa"/><path d="M557.73,868.88c-4.58,0-5,4.8-7.46,7.3-1.61,1.67-3.2,3.1-5.64,2.77-1.35,3.49-2.41,7.13-4.81,10.06-.82,2.37-2.91,2.12-4.7,2.79-3,1.14-5.81,2.92-3.65,7.22,3.42-1.74,9.41-.52,10-4.87.51-3.88,2.66-5.5,4.24-8,2-3.25,2.94-7.67,8.54-5.24,1.86.81,4.34-2.49,5-4.56C559.91,874.05,561.41,870.59,557.73,868.88Z" fill="#c9bea9"/><path d="M531.47,899c0-3.66,1.54-6,5.11-6.13,2.61-.09,3.44-1.39,3.24-3.88-2.48,2.1-5.19.44-7.38-.2-5.33-1.56-8.91,1.62-12.9,4,1.21.43,1.54,3.1,3.28,1.88,5.53-3.87,5,1.58,6.29,4.38Z" fill="#cfc4ab"/><path d="M513.6,856.26c1.91.23,4-.34,4.89-1.78,2.31-3.83,5.13-3,8.27-1.9,3.71,1.25,1.77,4.53,2.36,6.9a14.64,14.64,0,0,1,.2,1.87c.24-.32.63-.62.69-1,.76-4.38,1.48-10-2-12.1-3.69-2.2-8.18,1-11.41,4.23A45.5,45.5,0,0,0,513.6,856.26Z" fill="#a79b84"/><path d="M523,882.62c.11-3.75,3.76-7,1.4-11.1-2.24,2.66-3.86,6-7.2,7.47C520.49,877.8,520.31,882.79,523,882.62Z" fill="#a49986"/><path d="M652.2,952.45a25.42,25.42,0,0,1,9.34-2.86l17.09-11.15c-6-2.75-5.15-3.17-1.93-8.55,4.73-7.87,11-15.84,9.77-26-.86-7.09,3.8-8.74,7.6-11.59,1.55-1.16,2.28.68,3.35,1.53,2.74,2.2,5.14,2.08,7.16-1.41,2.75-4.77,5.86-9.31,7.06-14.89.41-1.88,1.28-2.5,2.92-1.21,1.48,1.17,3.06,4,4.89,1.74,2-2.42,5.15-4.23,5.37-8,.13-2.09,0-4.2,0-6.29a1.44,1.44,0,0,0-2,1.47c.23,3.62-2.08,1.26-3.19,1.64a2.49,2.49,0,0,0-1.3.87c-1.06,1.24-.21,4.6-3.44,3.43a3.55,3.55,0,0,0-1.46-.31,23.87,23.87,0,0,0-4.32,1.53,5,5,0,0,0-.87,1.35c-.41,1-.77,2.05-1.2,3.06-2,2.89-2.15,7.11-5.87,8.65a13,13,0,0,0-1,1.06c-2.47.36-3.23-1.93-4.56-3.29a15.59,15.59,0,0,1-.58-3c-.14-2.72-2.4-3-4.08-4a4,4,0,0,0-1.45-.49c-1,.2-2.12.36-1.64,2,1.3,3.68-2.61,3.48-3.67,5.45-2,3.78-2.39,7.76-2.36,12s.19,8.51-4.48,10.61c-2.15,1-1.22,3.27-1.4,5-.28,2.57.59,5.3-1.22,8.77-2-5.57-1.53-10.95-3.9-15-2.84,4.72-3.18,11.62-10.12,13.14a1.84,1.84,0,0,0-1.15,1.28c-.47,9.36-8.23,10-13.93,13-1,.52-1.93,1.06-1.8,2.16.87,7.16-5.85,10.45-7.37,16.37-.05.2-.72.22-1.11.32.18,1,1.28,2.57,1.5,2,1.35-3.68,5.19-3.43,7.2-5.58,3.52-3.77,5.26-3.85,7.27,1A23.17,23.17,0,0,1,652.2,952.45Z" fill="#574c3f"/><path d="M618.58,894c4.42,4,4.08,9.82,4.78,15.15,1,7.33-1.55,14.48-1.25,21.84a60.23,60.23,0,0,0,1.76,10.44c.3,1.35.93,2.93,2.7,2.85a2.77,2.77,0,0,0,2.68-2.83c.2-2.62,1.47-4.75,2.52-7,.91-1.91,2.19-2.47,4.34-2.18,6.44.86,8.53-1.64,7.46-8.63-1.57-10.23-1.74-20.55-2.17-30.85l1.48-.39c.67,3.54,1,7.2,2.1,10.59.91,2.88-2.42,10.77,6.22,6.08,2.68-1.46,1,4.07,3.65,6.35,1.62-4.16-1.43-7.83-.43-11.31-.53-3.9-.63-7.87-1.42-11.72-.33-1.55-1.08-3.63-3-3.18s-1.57,2.66-1.41,4.27,1.13,3.09,1.11,4.4c-1.51-3.33-1.17-7.19-1-11.13.21-5.8-1.41-7.23-7.07-6.81-1.9.15-2.8-1.15-3.83-2.38-2.07-3-4.08-6.25-7-.68-.6,1.15-2.11.84-3.25,1C618.33,880.38,615.69,885.11,618.58,894Z" fill="#6d6259"/><path d="M628.18,879c4,1.75,4.88-1.09,5.25-5l3.05,4,.62-.66a4.69,4.69,0,0,0,.11-3.55c-2.37-4.18-3.33-8.44-.59-12.89,2.55-3.72,4-6.28-2.17-8.35-6.5-2.17-9.37-3.78-12-2.74.17-4.58,6.3-6.71,4.88-12.39-6.52-2-12.38-1.7-16.88,4.72-1.62,2.3-3.86,2.89-6.07.49-4,2.52-7.36,6.43-12.64,5.78a11.05,11.05,0,0,0-.41,1.65c2.36,1.58,2.66,4.37,3.55,6.82,3.1,3.38,6.75,6.27,4.36,12.18-1.2,3,.42,3.89,5.78,3.69-.81,1.46-2.42,1.26-3.58,2-2.46,1.46-3.72,3.47-1.73,6,1.81,2.35,1.4,4.58.6,7,.63,2.81,1.75,4,4.05,1.38,4.08-2.34,3.29,3.65,5.89,3.85,4-1,2.24-3.94,1.77-6.29-.34-1.77-2.49-2.72-2.22-5.37,5.18.63,9.54-1,12.39-6.48C623.7,877,625.21,879.31,628.18,879Z" fill="#9e907c"/><path d="M636.48,877.91c2,2.64,3,7.82,7.61,2.58,1-1.1,3.17,1.89,3.13,5.33A57.92,57.92,0,0,0,649.73,904c2.69-5.14-.64-9.31.24-13.93,2.56,2.09,2,4.82,2,7.26.06,2.61.39,5,2.41,6.8h0c3.67-7.24.53-14.16-.66-21.22,1.15,6.65,3.79,12.74,6.62,18.74,0,.39,0,.79,0,1.18,2.42.16,3.2-3.86,6.51-2.4,2,.86,2-2.48,3-3.86h0c2.33-3.44,6.46-5.64,6.07-11-.13-1.71,2.32-1.9,3.45-3h0c-.15-4,3.88-5.44,4.81-8.77h0c1.59-1.18.87-3.51,2.19-5,2.42,1.87,1.58,5.53,3.77,7.43h0c1.27,1.2,5.86-1,3.58,3.84l0,3.67c4.69-.2,3.23-4.63,4.46-7.21.63-9-4.23-15.17-9.73-21-1.16-1.23-2.15-.65-3,.46-1.14,1.54-2.39,2.24-4,.82s-3-.36-4,1c-1.28,1.71-2,1.87-4.44,1.2-3.76-1-4.06,3.81-3.08,6.24,3.52,8.72,1.94,16.47-3.59,25-.73-8.41-6.08-14.41-5.92-22.44,0-2,.64-4.77-2.5-5.31.14,2.7-.77,4.2-3.59,3.51-2.46-1.36-3,.64-3.75,2.38-1.5,3.73-2.91,7.49-8,5.32-.76-.32-1.78.7-2.55,1.35a10.29,10.29,0,0,1-3.63,2.3Z" fill="#8e7e67"/><path d="M594.73,856.2c2.18-4.12,1.08-6.22-3.42-6.23-1.56,2.71-4.59,2.66-6.84,4.1-1.79,1.14-3.88,1.87-4.21,4.5-3.18,2.12-4.65,8.3-10.2,4.76-.16,2.85-6,3.58-2.6,7.75,1,1.22.94,2.64,1,4.07,5.43.12,4.61-5.94,7.42-7.81.11,9,1.59,11.64,8.81,14.53-2.34,1.79-5.32,2-6.91,4.34-8.48,10.37-19.93,14.8-32,17.9,7.67,3,8.77,6.46,4.19,13.17,1.45,1.71,3.42,1.88,5.4,2-2.13-4.32.16-12.36,5.08-14.35,6.57-2.66,12.41-7.36,19.64-8.16,2.63-.28,3.31-2.77,4.83-4.3,5.66-5.69,12.87-4.16,15.52,4,1.62-2.62,3.4-4.6,3.91-7.45-1.62,1-2.9.8-3.66-1.18-1.76-4-6.91-1.12-8.32-3.84-1.61-3.11-2.2-6.66-5.91-7.91-3.38-1.15-2-4.62-3-6.89-1.64-3.61,1.12-3.78,3.09-5.16A33.72,33.72,0,0,0,594.73,856.2Z" fill="#8a7f6e"/><path d="M628.18,879c-3-1.75-6.08-3.5-3.27-8.31-3.41.37-3.21,2.82-4.29,4.11-2.52,3-4.79,7-9.52,4.32-1.79-1-2.48-.32-3.22,1.16s-1.27,2.88.67,4.21c3.05,2.11,4.16,5,1.68,8.46,2.78,3.88,3,3.93,3.57,1.05.35-1.68-.68-3.62.78-5.14,2.67.7.53,5.34,4,5.23C618.7,884.28,620.8,881,628.18,879Z" fill="#857c6d"/><path d="M660.38,901.69c-.06-4-.71-7.68-3.13-11.06-2.77-3.87-2.26-9-4.29-13.43,0,9,2.48,17.94,1.46,27Z" fill="#6d6259"/><path d="M670,896.61c-1.56,1.06-1.71,4.28-5.27,1.77-4.34-3-1.83,3.91-4.25,4.49,0,2.61-.27,5.32,2.77,7.37C664.12,904.76,670.54,902.81,670,896.61Z" fill="#6d6259"/><path d="M690.27,876.39c.3-2.56-.63-4.88-1.33-7.23-.49-1.64-1.35-3.51-3.06-3.17s-1.57,2.56-1.59,4.2c0,1.24,0,2.48,0,3.73,1.53.87.93,4,3.54,3.75A2.49,2.49,0,0,1,690.27,876.39Z" fill="#6d6259"/><path d="M679.47,882.7c-2.89-.21-5.08.33-4.76,4.27.17,2,.25,4.18-2.57,4.66s-2,3-2.19,5c3.61-1.13,7.06-2.2,6.1-7.63C675.56,886.2,678.68,885,679.47,882.7Z" fill="#6d6259"/><path d="M684.29,873.93c-2.55,2.34-6.12,4.06-4.81,8.77C680.65,879.51,684.77,878.13,684.29,873.93Z" fill="#6d6259"/><path d="M832.24,468.64c-2.28-.32-4.2.95-6.28,1.56s-4.33,1.62-5.64-1.39c-8.31,3.2-12.54,11.66-20.68,16.42,3.27,1.63,5.26,3.37,7.36.76,5.36-6.64,13.29-9.09,19.88-13.72C828.65,471,831.06,470.86,832.24,468.64Z" fill="#2e2821"/><path d="M631.76,749c0,2.14-1.55,3.25-2.63,4.73-2.21,3-6.06,6,1.07,8.38,3,1,1.7,4.26-.72,5.67-4.91,2.86-8.14,6.55-7.36,13,.19,1.58-1,2.52-2.15,3.5-5.38,4.58-6.73,11.67-9.72,17.75-.15,1.92,1.1,2,2.28,1.72a10.33,10.33,0,0,0,5.17-2.88c4.49-4.85,8.48-10.21,13.78-14.19.64-.48.57-1.49.29-2.33,4.63-4.54,9.56-8.73,13.29-14.26,1.06-1.56,3.33-1.16,5-.46s1.08,2.36.87,3.77c-.44,3,.38,4.79,3.75,4.67,3.75-.14,3.85-2.77,3-5.2-3.1-9.09,3.55-15.21,5.92-22.6a4,4,0,0,1,3.87-2.51c3.62-.11,3.9-3.35,4.32-5.81.45-2.64-1.41-3.66-3.81-4.55s-5.43-1.39-6.46-4.64c-.4-1.22-1-2-2.36-1.27-3.07,2.57-6.17,5.11-9.22,7.71-1,.91-1.7,1.86-3.49.88-5.42-3-8.63-1.68-11.33,4C634.31,745.92,633.83,748.06,631.76,749Z" fill="#ded4bc"/><path d="M701,674.41c-1,1.81-2.93,1-4.24,1.8-1.82,1.12-4.6,1.2-5.09,3.84-.6,3.3,2.84,2,4,3.43s3.12,2.22,2.4,4.61a4.84,4.84,0,0,1-5.65,3.52c-2.64-.5-4.56-.42-6.37,1.74-.85,1-1.94,1.4-3-.05s-2.17-3.95-4-3c-2.2,1.15-5.13,3.28-5.45,5.38-.92,6.09-5.33,7.51-9.37,9.76-.64.35-1,1.25-1.49,1.9,5.79-.08,10.28,4,15.6,5.47,6.18-.35,12.36-2.52,18.56.24a4.49,4.49,0,0,0,5.45-1.25c1.38-1.9,1.08-5.09,4-5.83a10.36,10.36,0,0,0,1.43-.85,25.16,25.16,0,0,0,2.67-2.18c2.11-2.2,2.45-4.8,1.52-7.68-1.08-3.72-3.52-6.86-4.12-10.79-2.2-2.22-3.89-4.51-2.32-8a3.44,3.44,0,0,0-.87-3.45C703,672.18,701.82,672.71,701,674.41Z" fill="#cabfa7"/><path d="M701,674.41a4.1,4.1,0,0,1,3.51-1c1.42,2.2,3.26,2.89,5.61,1.74-3.3-6-.88-14-6.29-19.28-.41-.39-.91-1.21-.21-1.43,5.29-1.62.38-7.08,3.49-10.11,1.5-1.46-2.62-3.35-4.26-5.87,5.07-.64,7.65-3.05,6.58-8.4-.35-1.72.92-3.13,1.62-4.62,0-5.62,1.84-11.1,2.31-16.4.8-9.15,5.39-16.63,7-25.21-2.38-3.34-4.91-2.32-7.46-.27a2.45,2.45,0,0,0-.33,1.63c.13,4.93-2.67.52-3.83,1.31a2.73,2.73,0,0,0-2.95,1.07c0,2.83,5.55,2.16,3.62,6.27-1.59,1.41-5.06,1.65-3,5.35a3.63,3.63,0,0,1,.28,1.16c-5.42,1.82-.26,9.46-5.83,11.61-1.89.73.36,1.57,1.28,2,6.7.81,3.29,7.22,2.74,8.88-1.67,5.07-1.75,12.26-9.29,13.1-1.39.15-1.53,1.78-.23,2.8,1.54,1.22,3.15,2.33,5,3.67-2.64,1.2-4.63.49-6.56-.65-1.38-1.23-2.65-2.9-4.73-1.35-2,2.72.64,2.33,1.76,2.92,2.43,1.26,5.57,1.26,7,4.32.71,1.57,4.72,2.87-.37,4.93-2,.81-1.94,6.09,3.84,6.82-5.67,2-9,3.71-3.31,8.44,1,.81.46,3.58.64,5.45Z" fill="#564430"/><path d="M659.22,731.45l2.36,1.27c6.49,2.83,13.17,4.52,20.26,3.6,3.24-1.66,7.73-1.21,9.17-6a9.44,9.44,0,0,0,.48-1.73c1.44-10.29-3.1-13.8-11.18-14.61-1.64-.17-3.56,0-3.28,2.41.6,5.13-2.66,4.59-5.28,3.79-4.76-1.45-.34-3.69-.11-5.59a5.59,5.59,0,0,0,0-1.87,2.62,2.62,0,0,0-1.3-1.34c-6.76-.85-13.48,3.16-15.43,9.58-1.18,3.88-1.86,8,3.11,9.86Z" fill="#433a2b"/><path d="M658.05,730.85c-3-3-3.3-6.6-1.46-10.24,2.22-4.38,5.68-7.34,10.45-8.17a25.94,25.94,0,0,1,4.14-.11c-3.55-5.76-8.49-3.4-13.17-2.5-1.69,1.29-3.23,2.69-3.63,5-3.61,4-4.16,8.61-2.58,13.68.63,2,1.19,4.13,4,3Z" fill="#675a47"/><path d="M655.75,731.47c-4.73-5.15-3.69-10.83-1.37-16.63A21.73,21.73,0,0,0,647.22,726c-.77,2.47-2.77,5.71.09,7.27C649.87,734.61,653.5,735,655.75,731.47Z" fill="#9e8f72"/><path d="M658,709.83a24.29,24.29,0,0,1,13.17,2.5h0c1.77,1.78,3.83,1.67,6,1.06a2.53,2.53,0,0,0,1.31-1.27c-5.07-2.18-9.09-8.2-15.68-4.78C661.33,708.43,659.14,708,658,709.83Z" fill="#a7987d"/><path d="M953.64,929.33l3.33,6.91c.14-1.84.25-3.2.35-4.56l-2.43-37.81c-2.91-.63-1.84,3.12-3.65,3.72.61,3.41-3,5.48-2.5,8.87.47,3.72-.79,7.5.34,11.2,1.87.66,2.68,2.28,3.27,4.08Z" fill="#cec3ab"/><path d="M994.77,807.35c1,.53,2.15,1.49,2.49-.74.28-1.83.67-3.64,1-5.47V778.23l-1.62-.12C996.17,787.88,989.42,796.92,994.77,807.35Z" fill="#a99c83"/><path d="M720,583.6c-3.81,4.74-3.29,11.85-8.07,16.34-.64.6,2.18,6.13.45,9.13-1.58,2.75-1.57,6.1-2.69,8.32-1.8,3.56.86,5.33.8,7.9,1.32.71,1.75-.51,2.41-1.25,2.4-14.12,7-27.54,12.43-40.59,2.06-5,4.37-10.82,7.38-14.42,6-7.22,5.94-17.37,12.37-23.89-2.39-8.77,6.06-9.33,9.37-13.78.88-1.2,3.17-2.15,1-3.91-3.69-3-1.18-5,.46-7.77,3.26-5.5,9.72-8.95,9.75-16.57,0-.33.42-.94.67-.95,7.76-.41,6-10.86,12.28-13,1.36-.46,1.09-2.54,1-4l-1.09.09c-8.36,3.83-12.81,11.8-18,19v-.07c-1.07.6-2.26,1.08-2.31,2.67.1,4-2.77,6.05-5,8.56h0c-2.36,3.82-1.55,9.77-6.94,11.56-.05.37-.11.73-.18,1.1-4.25,5.15-6.35,11.92-10.81,16.79-2.84,3.1-3.76,7.12-5.58,11-.64,1.35-1.59,2.63-1,4,1,2.54-1.11,3.8-1.48,5.3-1.56,6.21-7,10-8.2,16.1A2.85,2.85,0,0,0,720,583.6Z" fill="#3d2f21"/><path d="M712.94,624l-2.41,1.25a4.1,4.1,0,0,0-2.88,5.72c2.09,4.52-.42,5-3.37,5.63-1.45.29-3.57-.71-4.07,1.48-.63,2.8,2.43,2,3.49,3.35,1.24,1.51,5.37,2.68.19,4.53a1.45,1.45,0,0,0-.51,2.51c4.52,4.73.21,4.43-2.56,4.79,0,.62-.06,1.27.1,1.34,6.13,2.85,4.1,9.4,5.54,14.27.79,2.69,1.8,4.34,4.15,5.23,5.24,5.12,11.49,5,17.92,3.81,2-.85,4-1.7,3.52-4.67-3.31-1.87-8-1.76-9-7.06-.13-.7-1.44-1.34-2.31-1.64-2-.67-5.63.87-6-1.28-.8-5.49-6.65-8.14-6.22-14.2.24-3.44,2-6.57,3-9.3C713.51,634.33,712.77,629.29,712.94,624Z" fill="#362d21"/><path d="M732.05,673.28a7.22,7.22,0,0,1-3.58,3.7c-1,1.82-.64,4.36-2.61,5.7s-4.12,1.34-6.2,1.93c-3.51,1-6.87,6.48-6.39,10.2.58,4.47,3.83,6.17,7.28,3.53,4.72-3.59,11.08-4.4,14.7-9.81,1.54-5.12,6.8-1.92,9.4-4.67,2.1-3.19,4.6-6.2,4.18-10.51-3-2.08-5.08-6.36-9.91-3.73-1.16.64-.59-1.87-1-2.83C735.82,668.85,735.53,672.66,732.05,673.28Z" fill="#5b5d5c"/><path d="M781.17,895.5c3.86,1.28,2.65,5.18,3.24,7.86.72,3.28,1.74,5.62,5.09,5.8,4.39.25,4.46,3.94,4.35,6.78-.14,3.87-3,3.54-5.77,2.8a4.84,4.84,0,0,0-6.17,3.49c-.73,3.48,3.07,4.52,5.06,6.21,2.25,1.91,3.79-.69,4.35-2.51,1.37-4.43,5.37-3.65,7.27-2.83,2.76,1.2,1.32,4.43.33,7.09-1.43,3.84-3,7.87-3.27,11.91-.34,4.79,3.73,7.07,7.3,8.19,2.81.88,5,2,6.69,4.37,2.7,3.8,5.66,6.82,10.72,6.42,2.45-.2,3.62,1.86,4.75,4,1.67,3.2,2.78,8.23,8,3.52,1.94-1.75,2.45.66,2.71,2.33.4,2.69-2.44,3.66-3.06,6.84,3.78-2.9,5.15,1.26,7.71,2,2.22-2,1.28-4.54,1.19-7-.26-7.1-2.66-13.89-2.66-21-.68-4.53-1.53-9,.9-13.39,1.3-2.38.17-4.47-2.49-5.25-3.28-1-6.57-1.72-9.89.23-.86-2.28.9-5.06-1.35-6.54s-3.48,1.11-5,2.13-3.22,2.1-5,1-.95-3.36-1.26-5.13c-1.11-6.45-3-12.71-4.25-19.13-.52-2.66-5.28-2.76-4.21-7,.23-.88-1.46-1.37-2.37-.71-3.15,2.28-5.72,2.09-7.91-1.5-.37-.59-1.48,0-2.16.46-3-1.52-5.68-3.69-9.22-4.09-1.93-.21-3.43-.71-4,1.79Z" fill="#b7a482"/><path d="M741.44,853.5c-2.62,3.35-7.47,5.71-4.55,11.51,1.38,4.76-2.78,9.52,0,14.31a10.61,10.61,0,0,0,1.05,2.14c6.87-.28,9.48,4,11,10.4.81,3.35,5.58,2.37,6.62,1.26,3.39-3.63,5.19-1.18,7.4,1,1.24-6.13-1-10.79-5.52-14.44a29,29,0,0,1-2-4.84c-2.43-5.83-6.75-1.42-10.82-1.83C749.53,865.09,744,859.62,741.44,853.5Z" fill="#aa9876"/><path d="M755.9,880.22c4.63,3.35,5.79,8.68,7.13,13.91,2.86,2.58,4.33-1.88,6.91-1.48.29,2.57,1.35,5.26-2,6.8-1.58.73-1.46,2.41-1,3.81a2.72,2.72,0,0,0,3.86,1.77c2.74-1,5.06-1.45,7.35,1.49,1.71,2.2,2.6.36,2.69-1.65.12-3.12.17-6.25.26-9.37l-.24-.19c-3.7-2.41-7.32-4.67-5.12-10.52.81-2.16-.48-4.15-2.94-4.47-3.39-.43-5.61,1.1-6.27,5.76C765.69,875.68,763.52,874.7,755.9,880.22Z" fill="#b9a887"/><path d="M738,881.46c-.53-5.47.63-11.06-1.1-16.45-.89,6-4.07,11.35-6.69,16.14-4.08,7.42-4.11,12.46,1.72,17.89,1.87-.54,3.91-.77,5.57-1.73s4.42-2.71-.15-3.63c-1-.2-1.65-.67-1.21-1.51C737.87,888.79,735.37,884.63,738,881.46Z" fill="#7d694c"/><path d="M833.48,983.75l1.07,1.26c1.24-.24,2.82.33,3.41-1.49a1.48,1.48,0,0,0-.82-2C835.1,980.7,834.74,983.09,833.48,983.75Z" fill="#98815f"/><path d="M741.44,853.5c.23,2-.27,4.82.8,6,3.91,4.44,4.62,8.49.31,13-.61.63-.77,1.71.08,2.13,1.86.93,4.11,1.1,5.67-.12,2.56-2,4.51-2.27,6.41.66,2.6-5.27,3.92-10.51-.14-15.74a4.13,4.13,0,0,1-.68-4.67c1-1.82,2.34-1,3.66-.58,2,.57,3.51-.36,4.78-1.81s2.08-.36,3,.34c3.07-.64,6.16-1.52,8.58,1.7.35.46,1.18.91,1.59.7,5.93-2.94,13-.19,18.66-4.1,1.2-.83,2-1.48,3.64-1.12,7.19,1.55,10.75-1.59,10.52-9.63a13.64,13.64,0,0,1,4.16-10.62c.72-.73,1.61-1.5,2.62-.95s.78,1.77.68,2.82c-.77,8,.64,10.55,7.56,13.69,6.12,2.78,7.54,5.43,6.07,12.83-.68,3.38.17,5,3.17,6.21,5.57,2.19,10.58,6.19,17.15,5.12-1.26,1.42-3.36.92-3.5,3.17.92,3.21,4,4.4,5.84,6.84,2,2.66,3.52-.22,4.08-2a18.24,18.24,0,0,0-.65-12.62c-.67-1.58-1.52-3.28.52-4.24a3.63,3.63,0,0,1,4.34,1.17c1.41,1.75-.62,2.43-1.41,3.41-1.83,2.28-3,4.76-.46,7.1,2,1.87,4.44,3.09,6.31-.46,0-1.16-2.21-2.77.44-3.38,3.52-.81,4.52-3.31,3.85-6.53s-2-6.48-5.75-7.09c-1.38-.23-2.82-.17-3.81-1.37-4.06-4.83-8-3.09-11.93.18-.85,2.82,4.06,6.33-.58,8.52-4,1.87-6.09-2-8.33-4.31-5.65-5.79-6-13-1.47-19.83a8.77,8.77,0,0,0,1.7-5.82c-1.19-3.37-4.15-3.49-6.81-4.06-3.25-.69-6.2-1.68-6.84-5.76-.48-3.06-3-3.56-5.16-4.42,3.78-5.38,3.05-8.46-2.66-9.67-3.67-.77-9-4.51-9.2,4.34,0,.85-4.24,1-6.52,1s-2.11-1.86-2-3.62c.18-2.91,1.69-6.5-2.94-7.27a4.53,4.53,0,0,0-3.13,3.95c.92,2.82.95,5.33-2.07,6.78-4.8-2.63-9.62-5.18-15.16-8.29,3-1.44,5.9,0,8.23-1.54,2.52-1.64,3.81-4.21,5.34-6.63,1.26-3.66.65-7.37.36-11.1-.37-4.73.79-8.64,5.81-9.91,1.77-2,3.66-3.8,6.47-3.89a7.06,7.06,0,0,0,2.54-4.46,6.76,6.76,0,0,0-8.37-2.74c-4.18,1.75-6.18.41-8.05-3.14a2.84,2.84,0,0,0-3-1.58c-2.15,3-4.28,4-6.37,0-1.86-2.74-5.62-.6-7.5-3.3a6.64,6.64,0,0,0-4.12-2.87c-2.35,0-5.26-2.34-6.66,1.74-.69,1.27,2.14,5.1-2.36,3.61-3.16-1.17-7.38-.2-8.74-5-.23-.78-1.3-.89-2.11-.83a2.64,2.64,0,0,0-2.59,2.22c-.62,4.75-10.59,3.06-6.63,10.85a1.56,1.56,0,0,0,1.57.49c5.14-1.13,5.61-.73,5.12,4.81-.26,2.88-.9,5.8,1.9,7.83,2.74.45,3.47-2.36,5.62-3.91a10.27,10.27,0,0,1,.79,8.83,49.32,49.32,0,0,0-1.78,5.35c-.47,2.42-1.72,5.17.51,7.08s4-.18,5.79-1.52c2.72-2.1,5.62-1.16,7.66.6,2.5,2.16.34,4.52-1,6.56a8.54,8.54,0,0,0-1.43,2.74c-.68,2.7-1.14,5.54.64,7.85s4.35,1.09,6.46.47c-2.1,2.26-4.14,5.86-7.41,1.21-.37-.53-1.48-.35-1.6.05-1.78,5.74-8.65,3.61-11.18,8.12.29,2.93-2.67,2.42-3.75,3.92-2.74,6.6-1.74,13.71-2.58,20.57Z" fill="#c2b496"/><path d="M744,847.44c2.94-6.87,2.19-14.41,3.5-21.58a1.94,1.94,0,0,0,.58-1.73c-1.72-3-4.12-6.19-7.47-4.29-3.61,2-9.2,3-8.31,9.77.58,4.51-2,8.45-2.5,12.78.43,2.5.26,4.88-1.41,6.92-.93,1.3-2.48,2.44-1.12,4.39,2,1.42,4.75,1.1,4.87-1.1.38-6.56,6.14-5.34,9.22-7.81C744.22,842.49,743.67,845.87,744,847.44Z" fill="#565046"/><path d="M727.26,853.7c-.26-2,1.65-2.47,2.4-3.76-2.41-2.5-4.32-2-4.76,1.46a8.22,8.22,0,0,1-4.08,6.66c-3.08,2-4.63,5.62-1.9,9.54l4.19,1.53c1.24-1.54-.29-4.1,1.74-5.34C727.54,860.93,727.33,857.3,727.26,853.7Z" fill="#786b57"/><path d="M991.18,846.06c5.1-2.5,7.21-7.29,7.08-12.65-.1-4.24-1.76-8.45-2.76-12.66-.17-.71-.52-2-1.29-1.45s-.67,1.79-1,2.74c-.75,6.26.21,12.75-2.61,18.76A5.42,5.42,0,0,0,991.18,846.06Z" fill="#cec3ab"/><path d="M984.62,744.31c-2.26-2.5.3-6.18-1.91-8.69-2.76,4.47.27,9-.13,13.48,1.12.92.48,3,2.5,3.76C987.29,749.89,984.37,747.11,984.62,744.31Z" fill="#a99c83"/><path d="M987.09,866.5c.79,1.36-.33,3.3,1.35,4.58,4.58-4.16,1.62-8.25,0-12.32C986,861,987.58,863.93,987.09,866.5Z" fill="#cec3ab"/><path d="M933.76,679.59c-.49-2.2,2.4-3.31,1.36-6.77-4.39,8.23-12.41.45-17.53,5.67-.65.66-1.52.06-1.27-1.06,1-4.72-2.47-2.25-4-2.86-1.62.6-3.86-.28-4.9,1.56-6,10.64-17.44,11.66-26.5,16.91a77.92,77.92,0,0,0-18.1,15.07,17.42,17.42,0,0,1-5.74,4.33,4.38,4.38,0,0,0-1.26,1.17c-.64,3.16.86,4.55,3.57,4,5.26-1.15,9.69-.11,13.26,4.34.94,1.17,2.79,2.22,3.7,1.36,5.37-5.07,11.81-.49,17.36-2.86.94,2.37-.33,4.51.47,6.52.73,1.83,1.64,3.65,3.83,3.15s4-2.29,3.44-4.39-1.83-3.31,1.12-3.8c2.44-.4,4.33.36,5.19,3,.46,1.43.07,2.93.23,4.38.56,5.05,4.91,7.94,9.57,6.46,1-2.87,3-6-2.14-6.88-2.76-.45-2.11-3-2.28-5-.57-6.63-2.45-8.43-9.21-9-2.89-.08-6.38.88-7.4-3.35s2.93-4.46,5-6.42c7.11-6.81,17.25-9.66,22.27-19.17.66-1.25,2-2.85,3.27-2.33C931.06,685.25,932.2,682.17,933.76,679.59Z" fill="#bcb29f"/><path d="M961.32,688.41c-.38.47-1,.9-1.08,1.39-.46,5.29-2.17,8.93-8,9.84-4.51.7-7,4.78-9,9,.71,3.64.84,3.78,3.47,2.1,2.2-1.4,4-3.5,6.29-4.76,1-.56,2.38-1.4,3.18,0,.94,1.62-.21,2.87-1.54,3.49-3.82,1.76-8,2.31-12,3.17-7.81,1.69-12.85,6.65-16.72,13.51a15.51,15.51,0,0,1-.61,6.2c-.59,1.56-1.23,3.29.5,4.52,1.44,1,3,.76,4.53,0,.36-.18.68-.44,1-.62,2-1.06,3.31-4.73,5.87-3.3,2.84,1.59.08,4.52.21,6.86a4.42,4.42,0,0,0,2.92,4.25c6.43,2.71,12.82,4.28,19.08-.45,1-1.42-.43-4.79,3.24-4.17.61.1,1.08-2,1.13-3.29.24-6,.16-11.91-2.59-17.4-2.29-.79-2.35,1.64-3.38,2.65s-1.91,2.73-3.33,1.45-.15-2.74.57-3.94a11.89,11.89,0,0,1,5.87-5.05,4.85,4.85,0,0,0,2.08-1.68c1.06-2.63,2.11-5.27,1-8.2-3.26-1.26-2.53-4-2.21-6.63C962.33,694.29,963.55,691.22,961.32,688.41Z" fill="#c3b79d"/><path d="M903.91,714.89c4.69,2.85,9.34,5.15,7.53,12.91-.87,3.78,3.77,2.62,6.06,3,.75,1.72-2.8,2.59-.44,4.33,2.66,2,4.43.4,5.74-1.84S926,729,926,726.14c0-1.58.87-3.6-1.81-3.68H923c-3.88.47-5.87-2.05-7.65-5.18s-3.68-6.36-7.87-6.17Z" fill="#c3b79d"/><path d="M924.22,722.46c1.41.95,1.15,2.48,1.2,3.89a.79.79,0,0,0,1.18-.13c2.69-3,5.24-6.21,8.12-9,4.19-4.08,10-3.18,15-4.66,2.43-.72,4.95-1,7.2-2.37,2.6-1.55,2-3.64,1-5.88-1.23-2.78-3-1.36-4.39-.45a68.58,68.58,0,0,0-7.63,5.78c-1.8,1.6-2.3.87-2.61-1Z" fill="#cbbca8"/><path d="M907.51,711.12c3.11,2.51,6.12,4.79,7.7,9.13,1.07,3,4.33,4.94,7.82,2.22-2.53-3.92-10-5.42-5.46-12.85.9-1.46-.49-2.18-1.83-2.25C912.42,707.18,909.4,707.76,907.51,711.12Z" fill="#cbbca8"/><path d="M961.32,688.41c.28,4.84-2.11,9.42-1.33,14.28.6,3.73,2,2.91,3.45.52,3.72-7,4.38-14.42,2.86-22.17-.14-1.36-.29-2.73-.5-4.61l-2,3.23Q962.56,684,961.32,688.41Z" fill="#cac0ad"/><path d="M790.51,660.63c-1.07-4.5-4-8.81-1-13.87-2.44,2.49-6.47,2.45-7.24,6.43l-.69.54c-1.69,3.49-2.6,7.32-4.26,10.82-8.48,12.55-11.94,27.25-16.05,41.68a51.33,51.33,0,0,1-3,7.54c-2.15,4.61-5.6,8-9.27,11.24-1.83,1.6-3.8,3-4.82,5.43-.83,4.5-1.63,9,4.56,9.91a1.89,1.89,0,0,1,1,.6c5.36,5.32,5.36,5.32,9.17-2.49,2.66-6.62,7.31-11.85,11.07-17.7,6.42-5.09,12.78-10.22,17.13-17.56,1.35-2.26,3-4.32,3.48-7.08.29-1.79.71-3.56,1.06-5.34.83-6.59,3-13.07,1.42-19.84A61.69,61.69,0,0,0,790.51,660.63Z" fill="#50483d"/><path d="M759.31,714.83a46.46,46.46,0,0,0,6.06-16.27c2-11.4,6.57-21.44,12.36-31a14.72,14.72,0,0,0,1-2.89c1.31-3.78-.81-8.73,3.5-11.5l.07.07c-.58-1.89.92-4.78-1.27-5.62s-3.15,2-4.54,3.35c-3.8,3.63-7.44,7.47-12.29,9.59a137.15,137.15,0,0,0-15.38,12.84q-2.46,5-4.9,9.93c-1.62,3-4.58,4.54-6.78,6.9-2,2.13-4.15,4.47-4.45,7.25-.77,7-1.94,13.63-6.17,19.3a1.25,1.25,0,0,0-.14,1.2c3.79,5.77,3.46,12.24,3.06,18.78a3.31,3.31,0,0,0,2.12,2.81c2.83,1.35,10.59-2.3,12.29-5.77.29-1.88-2-3.93.33-5.69,5.66-2.76,10.51-6.26,12.28-13.15C756.82,713.58,758.36,716.69,759.31,714.83Z" fill="#d4c9af"/><path d="M790.51,660.63c-1.82,3.67,1,6.7,1.24,10.08,2.26,4,6.54,3.47,9.92,4.7,3.66,1.33,7.56,1.81,11.31,3.26,4.48,1.75,6.38-1.48,6.69-5.92-.19-.27-.38-.55-.56-.83-2,1.13-1.77-.41-2.49-1.76-2.26-4.25-4.36-9.39-10.69-6.39-2,.94-2.43-.89-3.51-2.16-1.65-2-3.07-7-6.82-1.67C794.9,660.94,792.26,660.44,790.51,660.63Z" fill="#777b7b"/><path d="M827.58,665.7a8,8,0,0,1-4.81-1.27l-3.66,7.49.1.11c2.25,2.45,4.62,2,6.83.07C827.94,670.44,829.42,668.47,827.58,665.7Z" fill="#777b7b"/><path d="M846.63,872.64a9.74,9.74,0,0,1,.85-.85c1.71-1.41,5.63,2.76,5.45-1.62-.09-2.21-5-4.24-6.78-3.38-3.82,1.83-5.59,0-8.08-2.16-1.42-1.24-3.63-1.6-5.55-2s-2.73-1.12-2.12-3.4c2.44-9,.8-12.53-6.94-15.56-5.53-2.17-7.27-5.78-5.76-12.19.54-2.3.13-4.26-1.73-5.56s-2.79.83-3.81,1.85c-3.67,3.68-6.19,7.49-5.15,13.67s-4.14,9.47-9.31,6.54c-1.19-.67-1.92-1.41-2.79.22-2,3.7-4.89,3.63-8.54,3.26-2.59-.26-5.92-.91-8.22,2a2.43,2.43,0,0,1-4.11-.51c-2.75-5.66-5.59-3.3-8.58-.48-1.55,1.08-2.15,3-3.43,4.31s-2.24,3-1,5c1.4,2.17,3.31,1.88,5.32,1.17,6.8-2.41,6.81-2.4,11.8-1.7-2,6.41-2,6.41,5,8.36.57.16,1.61.19,1.6.59-.17,7,8.82,9.62,7.35,17.55a13.25,13.25,0,0,0,2,10.17,15,15,0,0,1,1.63-.42c2.36,7.23,5.81,5.27,9.5.72,1.48,3.13-1.36,5.09-.55,7.44,4.43-1.1,6.3.63,6,7.21-.27,6.19,3.19,11.37,3.15,17.76,0,4.63,5,.69,7.72.35,1.67-.21,1.82-3.21,4-3.36,2.06,3.19-1.15,5.47-1.17,9,3.94-1.56,7.48-4,12-2.29,3,1.12,3.68,2,1.88,4.62-2.84,4.1-2.22,8.17-.09,12.28,3,8.34,5.88,16.71,9.05,25,.65,1.71,1.38,6.16,4.36,1.48,1.39-1,2.89-1.89,2.43-4.1-.26-10.24-4-20-3.8-31.53,3.62,4.64,4.42,9.47,5.71,13.92,1.15,4,2.38,3.47,4.51.08.27,10.58.17,20.39,1.74,30.06.26,1.6-1,4.48,1.49,4.63,2.16.13,2.07-2.58,2.4-4.4a9.56,9.56,0,0,1,.69-1.71c.4-15-.09-30.22,8.06-45.08,1.67,13.84-2,26.39-.54,39,.66,4.23,1.38,8.44.71,12.8-.34,2.22-.26,4.54,1.46,6.34l1.11,2.39c.06-.42.12-.84.17-1.26,3.13-7.35-.75-15,.94-22.44q.75-11.44,1.49-22.9a4.61,4.61,0,0,0,2-4.35,119.65,119.65,0,0,0-6.24-28.95c4,10,5.32,20.46,10.19,29.52a1.44,1.44,0,0,1,.08,1c2,7.35-1.16,14.51-.68,21.8.64,2.53.75,5.24,2,7.7,3-1.39,3.08-5.16,5.62-6.59.74-1.61-.17-3.64,1.18-5.1,2.6-12.49.59-24.86-1.47-37.09-.9-5.33-.81-10.85-2.46-16-1.49-3.51-3.41-6.34-7.4-7.23-3.17-.7-5.15-3.66-7.58-5.72-4.09,0-6-1.87-5.07-6.37,1-5.06-2.32-8.13-4.91-11.46-1.76-2.27-3.9-1.37-5.92-.3-4,2.09-6.82,1.61-7.81-3.56-.42-2.21-1.34-4-3.75-4.14C844.07,876.39,847.6,873.74,846.63,872.64Z" fill="#c7ba9e"/><path d="M827.58,665.7c-.34,5.73-3.44,7.39-8.37,6.33-1.4,5.64-3.43,6.91-9.07,3.81s-12.21-3.52-18.39-5.13c1.78,6.89-1.55,13.46-1.16,20.26,3.21-.1,5.93,2.33,9.67,1,2.37-.83,5.11,2.48,4,5.75-1.55,4.73.46,4.43,3.88,4.74,5.26.49,8.91-2.36,13.35-4.18,6.4-2.61,12.82-7.06,20.35-6.12,4.72-1.63,7.29-5.21,8.35-10.21.82-3.84,2.48-6.31,6.53-7.75,5.65-2,6.18-8.38,7.78-13.58-1.28-2.81-2.12-6.33-5.51-1.42-1.27,1.85-4.22,3.27-6.31,1.71-2.94-2.19,0-4.29.94-6.37.65-1.41,2.16-3.22,0-4.25-1.88-.92-2.9,1.23-3.26,2.67-1.1,4.34-3.92,7.45-6,11.39-2.07-2.34.71-3.77-.11-5.82-2.56.34-3.84,3.12-6.15,4-2.16-1.3-.07-2.95-.39-4.49C831.83,656.72,831.48,663.91,827.58,665.7Z" fill="#60686b"/><path d="M841.88,692.17c-.64-1,.78-4.13-.61-3-3.44,2.66-8.39.56-11.1,4.61-.53.79-2.07,1.86-2.29,1.67-5.3-4.47-7,1.7-10,3.72-1.84,1.22-3.11,3-6,1.33-1.6-.92-4.74-.2-7.57,1.66,3.31-5.71,1.5-13.12-2.43-12.18s-7.9-2-11.24,1c-.74,1.58-1.59,3.13-1.25,5,1.08,4.51,3.81,8.13,5.78,12.16,4.53-.55,9-.93,13.32,1.37,8.2,2.72,13-4.14,18.8-7.8,1.7-1.07,3.15-2.24,5.23-2.41-1.37,1-3.29,2-3,3.89a6,6,0,0,1-1.93,6,3,3,0,0,0-.28,4c.87,1.19,2.18.69,3.29.37,1.91-.54,4.1-.47,5.7-1.57,3.75-2.58,7.07-1.59,10.44.63,3.1,1,6,3.76,9.48,1l1.14,0c.83-2-.62-3.54-1.22-5.21a9.64,9.64,0,0,1,.64-8.35c2.86-5,4.77-10.74,10.06-14,1.95-1.21,4.29-3.16,3.67-6.48-1.37-.15-3.29.26-4-.54-5.36-5.88-8.58-.46-11.47,2.76-3.22,3.58-5.5,8.12-8.11,12.3-1.06,1.7-1.71,3.81-4.47,3.88C842.11,696,844.48,693.67,841.88,692.17Z" fill="#8e8679"/><path d="M870.5,679.57c-2.91,3.91-6.59,6.8-10.25,9.89-2.85,2.4-3.6,7.75-5.7,11.64-2.49,4.63.17,8.75,2.8,12.52,5.76-.31,7.38-6.43,11.38-9.33,3.62-2.63,6.9-6.18,10.73-8.46,4.43-2.62,9.47-4.11,13.94-6.86,2.86-1.76,5.11-5.3,9.42-3.33,1.69.78,3-1.55,3.07-3.08.13-4.63,3.2-6.3,6.41-8-.41-.42-.82-.85-1.24-1.27h-2.33c-6.41,3.82-12.38,8.87-20.66,6.71-2.73-.72-5.28,1.35-7.72,2.61-3.16,1.64-5.85,2.57-7.35-2.13a1.76,1.76,0,0,0-2.49-.93Z" fill="#a49a87"/><path d="M870.51,679.57c.33.22.92.39,1,.66,1.6,10.08,6.82,5,11.21,3,2.32-1.08,4.34-2.29,7.2-1.52,8.13,2.2,13.62-2.89,18.85-8.36-6-.09-11.91,3-18,.57-1.77-.72-3,.51-4.42,1.1-1.1.45-2.23,1.18-3.24,0-4.06-4.61-4.36-4.67-8.76-.11C873,676.34,871.78,678,870.51,679.57Z" fill="#8c8980"/><path d="M926.42,939.56c.23-4.31,1.23-8.67-1.71-12.6-.74-1-.72-2.83-.64-4.25,1-17.67-5.33-34.24-6.84-51.53-2.07,3.12-6.54,3-8.15,6.8,2.06,13.08,5.13,26,5.6,39.31.79,1.7.57,4.33,3.39,4.23.29-.67.88-1.93,1.27-.42,1.68,6.54,4.5,12.78,4.76,19.71C924.87,940.39,925.64,940,926.42,939.56Z" fill="#c6b594"/><path d="M689.11,640.36l4.73,1.35a5.53,5.53,0,0,0-2.11-4.15c-1.1-1-2.18-2.92-3.82-1.24S688.92,638.92,689.11,640.36Z" fill="#897558"/><path d="M962.21,712.77c.47,2.61.83,5.27,2.81,7.65,2.73-10.54,5.38-20.78,8-31a33.13,33.13,0,0,0-2.17-9.95A6.71,6.71,0,0,0,966.3,681q-1.42,11.09-2.86,22.17Z" fill="#cbbca8"/><path d="M991,771.34c.2,1,.14,2.5.66,2.76,1.16.59,1.54-.9,1.66-1.7.42-3,2.11-5.17,3.76-7.4a2.81,2.81,0,0,1,2.32-2.73c2.32-7.09-2.83-13.74-.8-20.91C996.64,751.65,993.4,761.38,991,771.34Z" fill="#a99c83"/><path d="M887,992.22c.88,1.79-1.24,5.28,1.79,5.5,3.79.27,3.31-3.35,3.1-5.93-.29-3.52,0-7.39-3.82-10.12-1.47,2.52-.54,5.06-1,7.31C887.06,990.06,887,991.14,887,992.22Z" fill="#c7ba9e"/><path d="M577.81,886.21c2.66-.77,5.31-1.59,8-2.3a1.85,1.85,0,0,0,1.62-2.17c-.11-1.11-.64-2.06-1.8-2.08-3.92-.08-6.36-.49-7.14-6.13-.5-3.59-1.86-6.65,1.09-10.36-6.47,2.19-6.62,9.15-11.08,12l-1.12,1.35c-3.64,7-9.66,11.35-15.68,15.65a13.3,13.3,0,0,0-3.56,3.12c-4.31,3.19-9.57,3.34-14.36,5C544.06,904,550.94,896,559,892.07c5.4-2.65,11-4.85,16.49-7.29C577,884.12,577.74,884.49,577.81,886.21Z" fill="#5b5750"/><path d="M548.13,895.27c6.61-2.51,11.43-7.82,16.91-12.09,2.17-1.68,2.39-4.13,2.33-6.68-3-.66-4.86,1.37-6.34,3.61-3,4.51-5.55,9.34-11.16,10.92C548,891.56,548.31,893.66,548.13,895.27Z" fill="#8a7f6e"/><path d="M976.25,905.36l1.84,4.34c3.66-3.77,1.82-9.48,4.92-13a1.39,1.39,0,0,1,.21-1c1.38-4.23-.29-8.71,1-13v-6.84c-3,3.14-1.47,7.1-3.12,10,0,2.39-.74,5.14-2.29,6.19-3.95,2.66-3.15,6.3-2.89,10C976,903.16,976.12,904.26,976.25,905.36Z" fill="#cec3ab"/><path d="M720,583.6c.65-4.16,2-7,6-9.67,2.17-1.47,1.76-8.34,5.35-11.46-3-3.66-1.25-6,2-7.87,1.64-1,2.1-1.9-.1-2.8-.93-.38-.89-2-.46-1.95,6.15.2,4.31-6.08,6.49-9,2.84-3.83,4.72-8.47,7-12.76-2.43,3.12-6.93,1.87-9.38,5-.36,2.38-2.22,3.59-3.62,5.16l-2.42,1.29c.07.27.13.55.19.83.15,1.07,1.48,2.11.39,3.12-.43.4-1.23-.6-1.77-1.13-1.34-1.32-2.3-3.28-4.56-3-1.09,0-2.36-1.08-3.17.5a2.14,2.14,0,0,0,1.18,3.06c2.5,1.24,3.7,3.67,5.24,5.83,1.39,2,4,3.49-.67,5-2.86.95-.51,4.12-.15,6,1,5.34-1,4.43-3.88,2.53-5.11-.8-5.93-7.44-10.65-8.77-1.5,5.49,1.5,8.89,5,12,1.87,1.63,5.78,3.14,3.65,5.77-1.91,2.38-5.81,4.21-9.54,2.22-1.68-.9-3-2.72-5.94-1.86L715,581.83c-5.14-1.49-8.15-3.57-10.47-6.85-2.24,1-2.23,1.25.15,3.56a8.43,8.43,0,0,1,3.58,3.79c1.12,1.73,1.82,4.3,4.66,2.64C714.82,581.91,717.46,583,720,583.6Z" fill="#6e5a42"/><path d="M733.28,538.17c3.32-.06,6-.66,3.62-5.16a9.32,9.32,0,0,0-1.59-1.66c-1.43-.9-2.94-2.48-4.68-1-2,1.75-.09,3.32.61,4.81A21.06,21.06,0,0,0,733.28,538.17Z" fill="#d4c7b0"/><path d="M725.11,539.28q1.68,2,3.37,4c1.27.9,2.74,1.2,3.67-.18s-.1-2.68-1.29-3.59h0C728.91,540.75,727.15,534.86,725.11,539.28Z" fill="#c4b79d"/><path d="M504,863.75c.54,4.08-2.2,8.67,2,12.23,1.13,1,.45,4.2,3.24,3.32,2.44-.75,5.22.23,7-3.52,2.1-4.57,5.57-8.46,8.63-12.49.85-1.11,3.15-1.06,1.77-3.54-1.21-2.19-2.6-1.74-4.53-1.26-3.12.77-5.17,3.2-7.34,5.15-3,2.67-5.27,5-8.44.51-.33-.47-1.51-.27-2.3-.39Z" fill="#2c281f"/><path d="M760.66,504.24l18-19c-2.09-3-3.59-.55-5.32.57-4.88,3.16-7.55,9.41-13.62,10.89C757.85,499.53,761.34,501.59,760.66,504.24Z" fill="#cabeab"/><path d="M753.4,515.4A17.9,17.9,0,0,0,753,513c-.54-1.68-1.43-3-3.39-2.72a2.38,2.38,0,0,0-2,2.64c-.06,2.32,1.49,3.35,3.27,3.71.76.15,1.7-.77,2.56-1.19Z" fill="#dcd2be"/><path d="M746.61,521.9c1.5,0,2.82-.85,2.72-2.07-.19-2.29-2.55-2.87-4.07-3.82-1.16-.72-2.2.8-2,2.18A4.25,4.25,0,0,0,746.61,521.9Z" fill="#b1aa9f"/><path d="M758.35,506.84l2.31-2.67c-2-.11-2.68-4-5.29-2.23-.47.31-.6,1.44-.61,2.2C754.72,506.79,756.6,506.76,758.35,506.84Z" fill="#eae2d1"/><path d="M704.64,578.54c-.33-1.17-2-2.28-.15-3.56a6.16,6.16,0,0,0-2.15-5C703.06,572.88,699.93,576.9,704.64,578.54Z" fill="#897558"/><path d="M712.88,585c-2,.1-3.11-1.77-4.66-2.64,1,2.65-4.47,2-2.37,5.22h3.46c2,.43,4.62,1.7,3.57-2.6Z" fill="#897558"/><path d="M747.56,779.27a8.65,8.65,0,0,1-.57-7.67,6.14,6.14,0,0,0-2.38-8c-3.16-2.19-3.2,2.78-5.42,3-2.38,2-1.8,5.32-3.39,8.24-.2-6.94-5.82-9.56-8.62-14.2-6.25-6.11-7.59-6.25-13.71-.92a8.4,8.4,0,0,1-5.39,2.09,13.76,13.76,0,0,0-6.09,2.5c-1.48,2-3.79,2.48-5.77,3.56.18,1.78.78,3.92,2.69,3.26,5.14-1.76,11.25-1.19,15.1-6.31,2.61-3.47,5.45-.73,8.19-.46a1.69,1.69,0,0,1,.9,1.33c-.25,1.57-1.46,3.08-2.68,3-7.74-.63-6.28,5.22-6.52,10.07a30.44,30.44,0,0,1,4.49.37,1.54,1.54,0,0,1,1.05,2.39c-1.66,3.38-11.29,7.42-14.52,5.18s-4.95-.56-7.68.57c-4.38,1.82-9.17,2.53-13,5.86a3.42,3.42,0,0,0-.91,1.49c-.32,1.23.4,3-.31,3.66-5.85,5-2.24,10.55-1.1,16,.77,3.72,2.9,4.68,5.31,1.86,3.27-3.84,6.46-7.73,6.4-13.69-.07-6.64,4.59-10.9,9.7-9.82,1.79.38,3.51,1,4.36,2.89,2.39,5.48,5.27,3.48,8.78.41a3.67,3.67,0,0,0,0,.84c.08,10.58,0,10.19-9.94,11.74a21.3,21.3,0,0,0-15.84,11.09c-2.18,3.93-.9,7.85,3.12,9.86,1.42.72,3.13.68,4.43,1.75a1.67,1.67,0,0,1,.56,2.18,1.25,1.25,0,0,1-1.55.55c-7.07-2.11-12.12,3.38-18,5.46-1.76.62-2.88,2.19-3.84-.89-.62-2-2.4-1.49-3.34-.3-4.15,5.31-8.15,4.43-12.21,0a2,2,0,0,0-1.83,1.65c-4.27,2-5.11,3.38-.59,7.06,3.94,3.22,4.27,8.57.64,13.2,3.54,1.69,4.25-1.44,5.44-3.48-.84,2.32-1.09,5,1.7,5.85s3.42-2.13,4.22-4.22c.6-1.56.7-3.28,1.15-4.89.39-1.41.8-3.49,2.33-3.22,3.11.55,5.21-1.64,7.8-2.39,6.57-1.9,8.66-.81,13,6.93,1.94,3.43,3.3,7.42,7.69,2.73a2.19,2.19,0,0,1,2.26-.34c2.05.54,4.29,2.33,6.11.11,2.05-2.51,4.55-5.22,4.18-8.78-.57-5.42,3.93-10.17,1.41-15.88-.74-1.68,1.44-3.28,2.91-4.36A13.38,13.38,0,0,0,724,816.35a7.86,7.86,0,0,1,1.24-4.79c2.75-3.91,3.21-8.45,3.61-13.11.38-4.38.9-8.69,4.82-11.69,3.11-2.38,5.07-2,6.37,1.69.78,2.23,1.49,4.26,3.91,5.15,4.3,1.59,7.34-.8,6.36-5.48C749.7,785.11,749.65,781.8,747.56,779.27Z" fill="#c4b89e"/><path d="M747.56,779.27a20.31,20.31,0,0,0,1.45,9.2c.75,2.07.87,4-1.55,4.32-2,.23-5.16-.14-5.27-2.58-.2-4.19-3.43-8.26-5.1-7.52-3.34,1.49-7.73,3.5-8.53,8.48-.45,2.87-1.4,5.6-1.41,8.62,0,3.91-.25,7.93-3.53,10.81a3.73,3.73,0,0,0-1,2.8c1,7.16-2,12-7.58,15.55-.78.5-1.92,2-1.74,2.31,2.62,5-1.41,9.88-.74,14,.83,5.06-2.07,7.34-3.45,10.68-1.17,2.83-3,.1-4.45-.34-2-.61-4.17-3.36-5.13,1.42-.45,2.27-2.73,2.18-3-.12-.45-4.06-3.83-5.73-5.5-8.74-1.24-2.23-2.69-7.57-6.46-1.94-4.31-4.89-7.54,6.43-12.23,1-.45-.52-2.48,2.81-3.18,4.75-.34.95-.16,2.1-.45,3.08-.67,2.32-.5,6.33-2.72,6.36-3.62,0-.94-4.45-2.55-6.46-1.32,2.3-2.31,5-5.37,5.15l.06,2.6c2,2.12.76,4.79,1.14,7.18,1.36,8.43,4.77,16,8.5,23.86,0-6.74,6.26-10.46,6.06-17.48-.16-5.55-4.54-10.74-1.75-16.78,2.37,1.24.79,3.46,2.1,4.73,3.09-1.08,3.35-4.91,5.68-6.73,3,4.47,5.1,4.12,7.5-1.41,4,6.48,10.35,11.59,10.06,20.39a.93.93,0,0,0-.34,1c.11.33.22.49.33.49,3.65-1,2.62-4.53,3.58-6.77.84,1.64.34,5.09,3.29,5,1.8-.06.56-2.7,1.43-5-.74,2.2.06,3.22.34,4.35.53.78,1.15,1.34,2.14,1a2.33,2.33,0,0,0,1.05-2.56c.4-3.19.15-6.79,5-6.17,2.44.31,3.35-1.91,3.77-4.07a13.26,13.26,0,0,1,4.65-8.33c3.12-2.59,3.46-7.56,6.41-10.72,1-1.08-.43-3.13-1.36-4.52-3.77-5.62-3.34-11.4-.43-17.18,2.52-5,5.37-9.89,3.4-16-.76-2.37.57-3.93,2.51-5.08,2.44-1.45,2.51-3.49,1.29-5.47,10.5,3.31,12.25,12.38,12.09,22.6a8.09,8.09,0,0,0,1.2,2.36c.93,1,1.51,2.65,3.32,2.15,2.47-1.72,4.79-3.44,8.14-3.07s-.27-4.13,3.2-4.37c2,1.6,4.6,8.17,7.57-.19.64-1.78,3.59-1.81,4.14-4.18-.78-1.17-1.68-.58-2.57-.27-2.28.8-5.05,3.81-6.78.57-1.48-2.78-.9-6.34,1.64-9.23,3.43-3.91,3.09-9-.66-9.44-2.62-.35-6.5-3.47-8.89,1.28-.62,1.24-2.17,2.39-3.49,1.68-1.87-1-.66-2.84-.47-4.43.51-4.31,4-7.82,3-12.51-.42-2-.29-4.52-2.12-5.49-2.72-1.43-2.58,2.33-4.14,3.24A10.19,10.19,0,0,0,747.56,779.27Z" fill="#ae9f83"/><path d="M708.16,762.85c2.5,1,4.4.31,6.25-1.78,4.77-5.4,6-5.27,11.67.54,2.75,1.57,3.8-.92,4.27-2.62,2.06-7.36,7.2-12.19,12-17.4,3.09-3.38,3.07-5.68.47-9-.15,1.4.16,3.53-1.63,3.49-3.31-.08-6,3.23-8.95,2.26-2-.65-3-3.62-1.4-6.31,2-3.38,2.18-7-.78-9.6-3.55-3.16-2.51-5.77-.34-9,2.39-3.59,6.26-6.18,3.35-12.47-1.21-2.61,3-8.35,6.81-11.2,2.14-1.61,4.1-3.29,4.08-6.41-3.32.77-7.82-1.61-9.37,3.91-1.22,2.87-1.89,5.34-5.88,6.43-6.75,1.84-7.36,4.54-5.14,11.56a11.06,11.06,0,0,1,.73,3c.06,3.32.36,8.64-2.58,8.66-3.65,0-1.86-5.09-1.7-7.77.26-4.46-1-7.33-5-8.74-2.34-.93-3.19,2.89-5.54,2a3.76,3.76,0,0,0-2.45,2.51,14.73,14.73,0,0,1-3.77,8.84c-1.83,2-3,4.41-1.48,7.29,2.55.49,4.89-.5,7.33-1,3.8-.78,6.89,3.11,4.61,5.92-3.91,4.8-6.91,10.82-12.92,13.39-3.15,1.35-4.93,1.06-4.22-3.45,1-6.07-.42-7.19-6.4-6-1.48,4-6.07,3.53-8.3,6.45,3.33-.07,7.4-1.11,6,5.07,4.14,2.25,6.88,6.26,10.45,9.23,5.74-2.32,10.08-6.74,14.57-10.94a4.44,4.44,0,0,0,.88-1.48c.38-1.22.11-2.52.58-4.21,1.55.65,2.35,3.46,4.65,2,1.08-.67,2.87-1.54,3.71.16s-.23,3.29-1.09,4.69c-1.19,2-3.52,2.74-4.69,4.78a9.62,9.62,0,0,0-1.26,2.29c.87,6.71-5.44,8.68-7.83,13.24A1.81,1.81,0,0,0,708.16,762.85Z" fill="#bcb097"/><path d="M631.77,784.31c-7.33,4.53-11.13,13.19-18.51,17.69-1.12.68-2,1.38-3,0-2.43-2.42-5-4.69-6.32-8.13a3.12,3.12,0,0,0-4.59-1.62c-3.22,1.83-5.9,4.49-6.18,8.65-.16,2.43,1.77,2.39,3.41,2.05,1.48-.31,2.1.81,1.64,1.69-1.38,2.61.5,6.9-2.84,8.06-2.25.78-2.27,2.39-2.24,3.65.06,2.06,1.42.95,2.57.67,2.24-.54,1.4,1.45,1.27,2.36-.77,5.43,1.86,8,6.79,6.07a16.87,16.87,0,0,0,8-6.13c4.6-6.4,9.19-13.17,15.07-18a29.09,29.09,0,0,0,7.87-9.41C636.58,788.16,636.6,785.14,631.77,784.31Z" fill="#baab8d"/><path d="M658,839.81c.41-.41.81-.83,1.21-1.24,1.54-11.71,11.67-17.72,16.26-27.41,2.71-5.72,6.32-10.91,8.79-16.77,0-.42,0-.83,0-1.25-2.17-4.23-9.28-6.11-12.08-2.89s-7.06,5.44-6,11a2.48,2.48,0,0,1-1.94,2.81c-5.39.65-5.82,3.83-4.33,8.42,1,3.09-1,4.59-3.25,5.73-4.64,2.31-5,5.19-.86,8.42a2.45,2.45,0,0,1,.47,3.73C652.21,834.61,655,837.18,658,839.81Z" fill="#dbd2bb"/><path d="M636.58,877.53c1.51.9,3.2,2.5,3.59-1,4.69-3.9,4.62-9.85,5.88-15.23.43-5.66-5.09-7.53-7-11.89-1-2.29-3,1.27-4.53,2.19-4.26-8.32-3.84-9,1.81-16.44,2.86-3.78,4-8.83,6.89-12.91,1.71-2.41-.38-5.91-2.73-7.56-2.59-1.81-3,1.48-4.21,2.88-3.32,3.94-7.9,6.15-12.45,5.53-4.83-.66-6.48,1.38-7.61,5.4,4.93-1.48,9.19.52,13.43,2.85-.19,2.34-2.58,3.61-2.63,6-2.67,5.08-5.35,10.16-8.28,15.72,3.23.4,4-2.74,6.13-3.64.69,1.41,1.51,4.79,2.65,3.39,3.27-4,4.71-.06,7.11.69,5.81,1.82,2.49,4.1.65,6.47-2.08,4.88,2.53,9.11,1.22,13.92C636.55,875.11,636.56,876.32,636.58,877.53Z" fill="#b9ac95"/><path d="M698.57,750.21c-3-3.76-4.77-9.09-10.71-8.82-1.48,4.23-10,9.69-14.15,10-3.72.24-4.8,3.93-4.81,7.11,0,5.06,3.4,5.19,7,4.37,6.11-.79,12.21-1.91,18.39-.74a3.33,3.33,0,0,0,1.68-.5C699.39,758.44,699.41,754.44,698.57,750.21Z" fill="#b4a68b"/><path d="M627.05,837.35a19.84,19.84,0,0,0,3.26-3.49c.77-1.35,2.65-2.53,2-4.25-.81-2.05-2.64-1-4.09-.58-.8.23-1.58.39-2.08-.45-3.25-5.44-6.56-2-9.87-.1h0c-1.27,1.61-3.23,2.67-3.51,5-1.37,4.48-5.68,5.91-8.38,9,.14,4.47,1.41,6.28,5.17,2.51,1.15-1.14,2.76-1.91,3.58-3.25,2.36-3.87,5.11-5.58,9.43-3.42C624.06,839.15,625.6,838,627.05,837.35Z" fill="#8e7f6b"/><path d="M646.05,861.28l-2.17,0c1.13,5.72-2.35,10.18-3.71,15.21,1.78-.42,3.51-3.92,5.28.53,1.11,2.79,2.21,1.3,3.28-.88,1.68-3.45,2.52-7.54,5.8-10-.1-1.87-.32-3.7-1.65-5.11C650.59,861.34,648.54,869.35,646.05,861.28Z" fill="#b2a58e"/><path d="M695,761.62c-2.37-2.24-4.74-3.11-7.8-1.06a6.75,6.75,0,0,1-7.74.11c-2.82-1.89-2.61,1-3.54,2.16,7.33-.84,14.19.44,20.3,5.07,2.68,1,4.78.45,6-2.49C700.4,762.89,697.71,762.23,695,761.62Z" fill="#bcb097"/><path d="M589.92,820c-3.76.18-7.2,1.21-9.06,5.19-.53,1.13-.78,2.56.13,3.53,1.2,1.27,2-.3,3-.77,2.7-1.28,4.41-4.13,7.39-5,1-.31,1.13-1.76.84-2.74C591.72,818.49,590.77,819.72,589.92,820Z" fill="#ded4bc"/><path d="M646.54,819.28a1.42,1.42,0,0,0,2.1,1.31c1.61-.59,3.65-1,4-3,.33-1.73-1.28-1.75-2.4-1.6A4.57,4.57,0,0,0,646.54,819.28Z" fill="#b9ac95"/><path d="M612.74,833.53c1.85-1.16,3.48-2.48,3.51-5C615,830.11,606.74,826.28,612.74,833.53Z" fill="#b9ac95"/><path d="M747.63,819.55c2.53-8.31-2.47-14.75-4.84-21.85-.37-1.08-.95-2.19-2-1.14-1.9,1.87-2.75-.9-4.14-.79-2.42.2-2.85-4.95-5-2.86s1.9,2.82,2.38,4.69c.36,1.42.24,2.68-1.26,2.9-5.2.74-4.64,4-3.29,7.81,2,5.53-1.45,9.63-3.54,14-3.17,6.61-4.2,12.9.89,19,1.2,1.43,1.48,2.43.47,4.76-2.74,6.28-10,9.49-10.2,17.44,0,1.23-.59,3.35-2.91,3.21-5.69-.34-6.55,1-4.94,7.21a4.31,4.31,0,0,0,.24-1.12c1.43-.9,2.6-2.77,4.65-1.42h0c4.39,2.69,3.67-1.85,4.79-3.78h0c.18-4-1-8.51,5.48-8.6,2.62,0,1.68-3.81,1.56-5.87-.18-3.28.92-4.13,3.7-3.19,1-2,3.06-3.77,1.26-6.39-1.56-2.09-.24-3.86.45-5.79a11.67,11.67,0,0,0,.42-7.33c-1.77-6.35,0-11.79,4.05-16.68,2.87-3.49,4.35-2.71,5.47,1.4C742.19,818.35,743,822.18,747.63,819.55Z" fill="#90826b"/><path d="M707,875.14c-2.14-2.46,1.1-5.65-1-8.56-2.45,2.6-.73,5.78-1.72,8.47-2.78-2.45-1.35-6.41-3.21-10.2-2,4.64-1,9.31-3.54,12.77.32,3.71-1.5,8.25,3.51,10.15,0-.4.07-.8.08-1.19a7.54,7.54,0,0,0,1.1-3.47c0-.59-.19-1.51.16-1.71C706,879.32,706,879.35,707,875.14Z" fill="#8e7e67"/><path d="M707,875.14c-2.48,1.92-2.27,5-2.84,9.55-.58-3.14-.83-4.46-1.14-6.08-2.67,2.35-1.87,5.28-1.94,8,6.11-.42,5.25-6.34,7.12-10.1Z" fill="#786b57"/><path d="M701,887.77c-2.59-2.84-1.46-7.11-3.51-10.15,0-.4,0-.79-.06-1.19-2.34,1.88.09,6.24-3.5,7.46,1.83,1.75,3.56,3.65,5.52,5.21C700.74,890.14,700.88,888.77,701,887.77Z" fill="#786b57"/><path d="M693.88,880.22c1.9-2,1-4.16.59-6.38-2.42-.57-1.92,3.41-4.17,2.54C689.56,879.68,694.22,877.34,693.88,880.22Z" fill="#786b57"/><path d="M718.91,867.6c-1.46,1.45-1.71,4.62-4.79,3.78.09,2.55,1.6,2.34,3.21,1.79C720.35,872.13,718.34,869.45,718.91,867.6Z" fill="#786b57"/><path d="M714.12,871.38c-.16-1-.21-2.29-1.49-2-1.71.32-3.31,1.09-3.16,3.46C711.53,874.21,712.62,872,714.12,871.38Z" fill="#786b57"/><path d="M594.73,856.2c-2.84,1.31-5.53,5-7.29,5.3-8.41,1.43-5.29,6.81-5.21,11.87,0,2.63.93,3.64,2.58,3.88,4.45.63,6.06,3.52,5.7,7.7-.22,2.63,1.37,3.52,2.55,2.46,3-2.68,5.12.2,7.62.46,3-2.22,3.72-5,.73-7.55-3.93-3.4-.37-3.9,1.51-4.83s5.75.46,4.66-3.64c-1-3.75-3.39-2.28-5.37-.35a1.19,1.19,0,0,1-2-.34c-.64-1.07-.09-1.86.43-2.81C603.22,863.61,600.25,857.58,594.73,856.2Z" fill="#b4a792"/><path d="M636.53,873.9c1.88-2.62,3.6-5.19.23-8-1.79-1.51-1.38-3.79-1.45-5.87C632.94,864.89,631.77,869.69,636.53,873.9Z" fill="#b2a58e"/><path d="M709.44,702.34c2.5,2.94,3.28-.68,4.81-1.42.92-1.06.78-2.19.41-3.49-2.42-8.36.54-12.93,8.58-13.29,1.38-.07,2.77.08,4-.76,1.9-1.81,2.63-3.88,1.22-6.4-6.17.58-12.06-.8-17.86-2.84a8.87,8.87,0,0,1-6.09-.75c-.06,1.24.35,2.9-.25,3.65-3.58,4.46-1,6.16,2.72,7.55,1.79,3.59,5,6.66,3.59,11.4C712.15,698.49,711.26,700.51,709.44,702.34Z" fill="#a99d86"/><path d="M702.21,721.21c-.62-3.45,1.06-5.76,3.3-8,2.41-2.34,4.17-5,1.48-8.41h0c-2.76,1.08-3.93,3.54-4.83,6.22a5,5,0,0,1-5,.71c-4-1.56-7.87-2.58-12.53-1.1-1.61.51-4.33-.81-6.17,1.45l-.34.51c2,3,4.62,2.77,7.66,2.13,5-1,6,.13,5.44,5.55-.25,2.48-.77,4.93,0,7.39,2.22-.89,4.47-4,6.48.62.69,1.59,2.81,1.48,4.06.08C703.79,726.2,704.16,723.73,702.21,721.21Z" fill="#a7987d"/><path d="M710.58,696c2.89-5.24,1-8.8-3.59-11.4C705.89,689.19,710.36,691.84,710.58,696Z" fill="#bcb097"/><path d="M702.16,711.06l4.83-6.22C702.46,704.38,702,707.46,702.16,711.06Z" fill="#bcb097"/><path d="M712.88,585c-.06,2.6-1.93,2.42-3.57,2.6a7.69,7.69,0,0,0,2,1.14c1.39.3,3.19,2.06,4.16.14C716.53,586.64,714.28,585.89,712.88,585Z" fill="#6e5a42"/><path d="M702.21,721.21c-.07,1.68,0,3.37-.24,5a2.25,2.25,0,0,1-2,2c-1.17.14-1.83-.66-2.25-1.66-.74-1.76.1-4.88-2.72-4.84-3.36,0-1.41,4.45-3.55,5.76-.71.07-.81.83-1.22,1.23a6.61,6.61,0,0,0-.12,1.09c3.91.68,8.43.61,4.27,7.13-1.62,2.53,1.54,5.65,4.7,4.61,3.55-1.17,7-2.57,9.11-6.43,1.14-2.12,2.76-4.64,4.72-5.44,5-2.08,2.68-6.62,2.74-9.58,0-2.15-5-.71-6.78-3.32C708.4,721.26,703.54,718.23,702.21,721.21Z" fill="#cfc4ab"/><path d="M690.26,728.78l1.22-1.23a13.15,13.15,0,0,1,1.24-7.8c1-2,1.5-3.76-.27-5.59s-4.45-2.81-6.36-1.22c-3,2.53-5.36,1-8-.31l-6.95-.3a4.21,4.21,0,0,1-2,3.59c-1.18.74-2.93,1.55-2,3.17.77,1.43,1.75,3,3.94,3.28,7.64.81,9.15-.55,7.19-7C690.06,717.24,690.22,717.42,690.26,728.78Z" fill="#665948"/><path d="M976.73,815.84c-1.13,2.33,1.57,4.06.87,6.32-.36,3.5-.21,7.05-.77,10.53.69,1.86.57,4.42,3.4,4.44.34-3.43,2-6.42,3.68-9.1a18.89,18.89,0,0,0,2.63-13.12c-.16-4.74-.85-9.49.36-14.18.43-1.65-.25-2.29-1.63-2.51-3,5-4.58,10.22-2.74,16.11C982,820.94,979.06,817.05,976.73,815.84Z" fill="#cec3ab"/><path d="M727.25,683.38c-2.09-.33-4.24-1.13-6.27-.91-6.11.68-9.21,6-8,13.1.31,1.8.81,3.57,1.23,5.36,6.63,2.88,3.58,9,3.9,13.85.17,2.52-.27,4.71,2.7,5.07,2.76.33,3.56-1.57,4.18-4.14.9-3.74,2.09-7.79-.06-10.94-4.62-6.78.45-9.1,4.53-10.24,4.32-1.2,5.09-3.57,5.06-7.34-3.11,4.57-8.18,6.24-12.64,8.08-2.32,1-2.61,2.51-4,4.17-1.83-1.83-4.59-3.6-3.25-6.41,1.49-3.11,1.93-8.17,7.42-7.21C724,686.17,725.88,685.07,727.25,683.38Z" fill="#787164"/><path d="M794.12,897.9c.45-4.92-1.69-9.8-.11-14.78a3.12,3.12,0,0,0-1.68-3.68c-4-2-5.75-4.67-4.86-9.86.64-3.74-3-1.2-4.43-1.42-3.63-.56-8.3.26-3-5.5a3.15,3.15,0,0,0,.63-3.51c-1.31-2.55-2.28.78-3.12.43-4.92-2.06-9-.19-13,2.61a1.81,1.81,0,0,1-2.56-.84c-.8-1.28-.69-2.22.62-3.09a5.85,5.85,0,0,0,2.77-5.81c-.07-1.65.21-3.77-1.64-4.28-2.68-.75-1.41,2.3-2.36,3.29-1.11,1.15-2.43,2.78-3.94,1.25s-2.3-3.18-4-.75c-1.28,1.79-3.49,4.63-1.78,6,6.21,5,3,11.31,3,17.2a8.88,8.88,0,0,0,1.19,5.05c.91.29,1.8,1,2.78.16,1.36-1.09,2.55-3.52,4.44-2.19s2.25,3.78,2,6.17c-.09,1-.55,2.13-.27,3,.36,1.11,1.2,2.37,2.59,2.08,1.17-.24,1.46-1.44,1.08-2.5-1.49-4.11.33-5.74,3.89-5.32,4.58.55,1.86,4,1.3,5.72-2.51,7.83,3.37,6.77,7.17,8,2.64-1.6,9.12.26,9.58,2.76.21,1.16-.22,2.93,1.37,3S793.94,899.42,794.12,897.9Z" fill="#cec2a8"/><path d="M808.47,922.23c-1.37,3.89-3.33,6-1.66,8.85.13.23,1.24.21,1.51-.09C810.31,928.75,809.88,926.3,808.47,922.23Z" fill="#c7ba9e"/><path d="M804.81,767.91a3.8,3.8,0,0,0-2.35,3.77c-1.09,1.15-.43,2.26,0,3.4s1.35,2.12.48,3.42c-3.1,1.21-3.78-3.33-6.49-3-1.88-1.66-2.47-4-5.22.51-4.35,7.18-.8,14.07-1.94,20.93-.68,6,5.07,3.84,7.15,6.32,3.39.66,2.44,3.29,2.08,5.44-1.25,7.49-1.12,7.65,6.25,6.08,1.63-.35,3.37-1.32,4.82,2.31,0-2.66,0-4,0-5.43,0-3.36.87-4.79,4.25-2.63,1.39.88,3.65.11,5.2.84,2.22,1.06,4.4,3.2.94,5.2-5,2.85-1.17,3.84.76,5,1,.61,3.15-.69,3.06,1.72-.25,7.06,4.74,7.17,9.2,7.89,2,.33,3.88.81,5.23,2.56,1.59,1.68,3.4,2.52,5.66,1.72,1.45-2.51-.54-3.54-2-4.21-4.7-2.15-4.46-5.55-3-9.82.78-2.21,1.5-3.18,3.79-2.36,2.06.74,4.24,1.06,6.28,1.91s4.15,1,5.11-1.46a5,5,0,0,0-2-6.47c-5-3.52-9.74-7.36-14.52-11.16-3.64-2.89-3.52-3.06-.54-8.72.56,6.14,4.25,8.1,8.81,8.88,2.26.39,3.58,1.53,3.73,4.06.3,5.24,3.37,8,7.9,8.71,3.53.58,7.83,3.63,10.14-2.37.39-1,1.6-1,2.59-1.24,11.87-2.49,13.82-5.27,12.84-18.16-2.31-3.49-4.37-1.64-6.25.46a11.24,11.24,0,0,0-2.71,7.46,2.11,2.11,0,0,1-2.25,2.34c-1.27,0-1.6-1-1.83-2.08-2-9.7-9.11-11.08-16.83-11.39-1.83-.06-3-2.1-5-1.81-1.34.2-2.39-.16-2.16-2,.81-6.42-4.38-6.64-7.93-8.18-2.27-1-5.52-1.61-6.55,1.89-1.12,3.79,1.56,5.12,5.38,5.73-4-.08-5.54,2.34-7.18,4.66-1.75,2.48-3.33,2.1-4.38-.5C821.4,778.14,812.38,773.86,804.81,767.91Z" fill="#c7ba9e"/><path d="M909.84,876.44c3.72.22,6.86-.46,7.39-5.26l-.05.11c-4.18.22-7.78-1.56-11.42-3.46-4.71-2.48-5.36-6.51-.85-9.35,4.29-2.7,5.21-6.53,5.1-11.14,0-1.47-.24-3.24-1.74-3.71s-2.61.76-3.44,2c-1.39,2-2.18,4.49-3.75,6.42-1,1.25-2.05,2.86-3.93,1.85-1.48-.79-1.42-2.38-1.19-3.88.33-2,1.27-4.33-1.08-5.59-2.17-1.17-3.63.63-5.25,1.87-5.52,4.23-12,4.28-17.69.56-3.34-2.19-6.57-4.74-10.76-5.05a6,6,0,0,1-4.19-2.19c-3.29-4-7.39-4.48-11.94-3.28-2,2.37-3.7,13.71-2.27,16.09,1.24,2.07,3,2.45,5,1.29,4.55-1.42,9-4.08,12.54,2.57.6,1.15,5.68-.64,6.76,3.43.83,3.14,3.63,7.39-3.08,6.77a2.29,2.29,0,0,0-2.62,2c-.21,2.24,1.44,2.67,3.11,2.87,5.28,5.28,5.64,5.35,13.34,2-1.82,2.58-4.06,2.31-6.09,2.39-2.4.1-4.37,1-5.22,3.39s1.09,3.73,2.41,5.27c2.67,3.13,5.84,4.17,9.67,3,2-.71,3.93-1.64,7-.63-2.76,1.94-5.18,1.29-7.47,1.33a3.84,3.84,0,0,0-1.71.37c-2.41,1.35-4.2,3.46-4.06,6.34.16,3.25,3.49,2.68,5.34,3.94,4.33,1.6,8.6-.2,12.9-.39,3.26-.15,3.57-2.64,2.78-5.48-.32-1.17-.84-2.46.33-3.45a1.3,1.3,0,0,1,1.64,0c1.41,1.08,1,2.5.68,4-.51,2.36-2.66,4.27-1.75,7,4.54,10.17,7.3,21,9.77,31.77,2.46-.17,1.87-2.83,3.86-3.67l1.55,7.05c.16.42.31.85.47,1.27,3.8-1.27,2.31-4.76,2.79-7.43-1.07-7.25-2.06-14.52-3-21.79-1-2-2.37-1.87-3.94-.88-1.39.87-2.75,1-3.43-.76-.77-2,.74-2.61,2.14-2.88,3-.58,4.43-2.47,4.52-5.62C910.29,890.59,908.11,883.43,909.84,876.44Z" fill="#c7ba9e"/><path d="M804.81,767.91c1.24,4,6.35,4.9,7,9.46,6.53-3.78,5.85,4.72,9.33,6.17.5.21.87.84,1.23,1.32,1.76,2.36,1.2,6.71,4.91,7.3,3.94.62,3.75-4.24,6.12-5.93,1.3-.92,2.17-1.55,3.6-.37s2.27.4,2.4-1.22c.1-1.29-.12-2.75-1.88-2.28a4.22,4.22,0,0,1-3.42-.34,3.07,3.07,0,0,1-1.67-3c0-2,1.64-1.62,2.62-1.72,2.91-.31,5.1,1.77,7.63,2.78,4.38,1.75,2,3.78.91,6.18-.6,1.31,1,3.11,1.59,2.59,2.81-2.36,5,1,7.45.51a8.48,8.48,0,0,0,1.78-2.47c4.11-7.77,8.6-8.32,14.4-1.75a23.24,23.24,0,0,0,2.76,3.25c1.29,1,2.66,2.13,4.32,1.42,1.82-.78,1.71-2.66,1.49-4.32a8.54,8.54,0,0,1,1.69-5.84c-.14-3.56-2.6-4.26-4.85-3.22-3.09,1.43-4.13.32-5-2.53-.53-1.64-2.12-3.21-3.66-2.18-5.71,3.8-10.9,1-16.23-.86-1.84-.67-3.9-.57-5.63-1.69-1-.63-2-1.58-3.24-1.49-9.7.75-17.72-2.87-24.33-10.27-2.87-1.19-5.36-4-8.91-2.36-3.09,1-6.27,2.52-8.22-1.91-2.13-6.59-2.55-14.36-10.68-16.73-1.43-.42-2.05-2-1.77-3.6.4-2.27,1.93-2.74,3.89-3.07a14.13,14.13,0,0,0,11.36-15.94c-3.31-2-6.36,1.72-9.73.45-.3-2.09,1.84-2.31,2.56-3.6.7-1,1.42-2,.75-3.29-1.43-1.1-1.37-2.47-.42-3.79,2.29-3.19,1-4.25-2.07-3.53-3.81.91-.37-4.58-3.45-4-3.14,8-8.54,14.09-15,19.24-1.85,1.49-4,2.59-5.3,4.77-1.48,2.65-.55,5.48-.58,8.24a5.27,5.27,0,0,0,.66,1.54c.83,1.12,1.28,2.54,2.42,3.41,3.3.71,7.9.15,5.4,6.41-.27.66.55,1.53,1.13,2.09,2.9,2.77,2,4.86-.83,7-2.62,1.92-4.13,5-6.08,7.55a1.43,1.43,0,0,0,.23,1.61c.94,5.45,5.53-.73,7.15,2.51,2.41-2.68,4.77,2.23,7.17,0,2.11.85,2.42,3.17,3.55,4.83,1.67,2.42,2.87,4.77,6.43,1.48C798.17,764.4,801.88,766.34,804.81,767.91Z" fill="#afa38d"/><path d="M742.79,732.56c2.05,3.14,1.11,5.18-1.39,7.88-4.47,4.81-10.32,8.61-11.65,16.22-.27,1.56-.7,4.79-3.67,5,2.3,4.95,9.35,6.82,8.2,14.09-.06.39,1.06,1.28,1.73,1.43,1.26.28,1.68-.92,1.86-1.91.51-2.85.89-5.72,1.32-8.59s-1.41-7.45,4.52-5.59c1.86.58,2.46-1.56,2.64-3.34.14-1.39-.15-3.41,1.78-3.32,2.31.1,1.6,2.38,1.82,3.91.11.8.26,1.6.47,2.89,3-2.47,6.07-.57,9-.89,1.39-1.48.88-2.95-.08-4.36-1.82-2.67-.12-3.56,1.9-4.3,1.34-.57,3.14-2.17,2.42-2.91-3.37-3.51-.48-8-2.18-11.67a2.74,2.74,0,0,0-3.28.52c-.76,1.21-1.45,2.48-2.31,3.61s-.81,3.88-2.82,3.46c-2.35-.5-.85-2.71-.91-4.21,0-1-.1-2.63-1.35-2.26-8.88,2.66-4.78-4.48-5.49-8-.38-1.43-.37-3.3-2.62-2.74C739.2,729.19,742.16,730.86,742.79,732.56Z" fill="#ae9f83"/><path d="M877.67,897.87c-.41-2.5-4.78-.55-4.1-3.66.57-2.58,2.17-5,5.26-5.13a1.87,1.87,0,0,0,0-2.61c-3.39.24-6.65.36-8.91-3.24-.77-1.24-3.26-1.58-2.37-3.67a4.24,4.24,0,0,1,4.88-2.61c3.09.6,6,.8,7.36-3a4.39,4.39,0,0,0-.33-2.94,1.23,1.23,0,0,0-2.05-.08c-4.19,5.17-8.52,2.76-12.88.39-2.35,2.39-4.61,1.43-5.93-.91-1.43-2.52.39-4.25,2.54-5.24,1.25-.57,3-.7,2.84-2.56s-2.09-2.8-3.33-3.14c-2.2-.61-4.79-3.1-6.9-.3-1.79,2.39-.75,4.46.74,7.19,2,3.71,1.61,8.43-.69,13.64-1.35-4.32-4.47-5.6-7.17-7.41-1,1.62-4.26,1.28-3.43,4.33s3,.6,4.44.75c2.18.21,2.21,1.66,2.62,3.39,1.68,6.95,3,7.56,9.16,5.26,1.51-.56,3-3.82,4.38-1.53,1.73,2.81,5.09,4.72,5.07,8.55a20.86,20.86,0,0,1-.12,3.58c-1.29,6.39,1,8,6.49,6C873.5,899.92,875.92,899.07,877.67,897.87Z" fill="#baab8a"/><path d="M847.82,853.71c-3.22-.44-5.72-1.23-3.69-5.68,1.53-3.35-2.34-7.56,1.28-10.73.9-1.71,1.54-3.33-1.17-3.78l-6-1.27c-1.32,2.4-1.17,5.91-4.69,6.68-1.12.24-1.09,1.54-1.27,2.58-1.28,7.45,4.69,19.91,11.2,23a4.7,4.7,0,0,0,6.17-2.07c.69-1.33,3.3-4.25-.38-6C848.57,856,848.3,854.62,847.82,853.71Z" fill="#baab8a"/><path d="M761.82,737.56a39.37,39.37,0,0,1-2,6.42c-1,2-1.31,2.64,1.32,3,2.12.34,2,.89-.43,3.19-1.26,2.46-2.7,5,1.2,6.32,1.18-4.68,4.16.12,6-1.26.88-.81,1.52-1.86,2.47-2.68.86,1.19-.09,2.94,1.13,4,4.09-1.67,5.17-6.87,9.3-8.73,1.22-.54,2.34-4.34,1-5-4.56-2.21-3.19-5.15-2.15-8.7.57-1.94-.89-3.21-2.92-2.38a11.73,11.73,0,0,1-5.26.71c-.74,2.61.49,4.77,1.18,7.19-.63-2-4.22-1.33-3.5-4.36.52-2.17,1.56-4.19,1.1-6.54l-1.2,0C763.72,729.07,761.91,731.28,761.82,737.56Z" fill="#c4b89e"/><path d="M796.48,803.23c-.06-1.86-.09-4.53-2.59-3.37-3.47,1.61-3.08-2-4.56-3-1.72.06-2,1.55-2.71,2.76-1.91,3-4.58,4.52-8.06,2.72-1.13-.58-2.45-2.35-3.27-.06-.61,1.67-.32,5.31.46,5.1,4.33-1.14,5.36,5.8,10,4,1.84-.74,2.87,2.27,4,4s1.81.85,2-.77c1.65-2.22,2-4.89,2.33-7.56Q795.29,805.12,796.48,803.23Z" fill="#ae9f83"/><path d="M763.08,778c-2.37,2.5-2.59,5.31-1.29,8.48.49,1.21-.39,3.53,1.46,3.48,1.59,0,4.27-1.17,4.51-2.28.75-3.53,3.67-6.9,1.2-11a13.78,13.78,0,0,1-2.05-5.74c-.15-1.74.3-3.32-2-3.37-3.39-.09-1.11,2.73-1.83,4C761.23,773.79,761.6,775.91,763.08,778Z" fill="#c7ba9e"/><path d="M780.91,767.22c-2.88,4.72,2.12,10-2.07,14-.74.72,1.33.94,2,1.56,1.48,1.41,1.47-.44,1.93-1.07C787.09,775.77,786.85,773.63,780.91,767.22Z" fill="#afa38d"/><path d="M796.49,775.47c.24,3.47,3.5,3.72,5.33,5.49,1.09,1.07,2.18-.05,3.11-.69s.76-1.76.31-2.72c-.9-2-1.85-3.91-2.78-5.87C798.48,769.44,796.47,770.66,796.49,775.47Z" fill="#afa38d"/><path d="M778,786c-1.87,1.67-4.35,2.86-3.93,5.8.31,2.15,1.89,3.85,4.09,3.66,2.51-.22,3.19-2.41,2.55-4.59C780.23,789.12,780.49,786.61,778,786Z" fill="#c7ba9e"/><path d="M763.08,778q0-3.18,0-6.36c-2-1.24-.47-3.9-1.79-5.47C754.76,771.63,755.24,774.48,763.08,778Z" fill="#ae9f83"/><path d="M761.88,756.54c-2-1.77-.91-4.19-1.2-6.32-3.73,1.54-7.6,3-1.76,7.23.54.4.38,1.87.54,2.84.69,1.21,1.69,3.06,2.93,1.68A3.89,3.89,0,0,0,761.88,756.54Z" fill="#c7ba9e"/><path d="M785.74,760.35a4.87,4.87,0,0,1-3.39-2c-3.16-3.57-3.65-1.08-3.78,2,1.34,1.67.6,5.33,4.07,5C785.44,765,785.8,762.76,785.74,760.35Z" fill="#c4b89e"/><path d="M771.42,770.52c.14,1.45-.2,3.38,1.81,3.34s2.55-1.91,2.53-3.59c0-1.42-.62-3.13-2.23-3.27C771,766.79,771.62,769,771.42,770.52Z" fill="#c4b89e"/><path d="M794.09,807c-3.23,1.67-2.21,4.81-2.33,7.56C795.21,813,798.82,811.42,794.09,807Z" fill="#c7ba9e"/><path d="M771.44,756.57c0-.2,0-.41,0-.61.06-2.21,2.85-5.52-.18-6.33-3.24-.87-2.55,3.49-3.47,5.65,1.85-.21,2.34,1.75,3.58,2.52C771.43,757.39,771.44,757,771.44,756.57Z" fill="#c7ba9e"/><path d="M751.09,823.46c-.78-.86-1.57-1.71-2.35-2.56-1.43.87-.26,2.72-1.27,3.75a4.46,4.46,0,0,0,0,1.21c1.69.33.76,3.91,2.68,3.06C752.32,828,750.92,825.35,751.09,823.46Z" fill="#90826b"/><path d="M747.47,824.65c1.5-.84,1.19-2.37,1.27-3.75-.37-.45-.74-.9-1.12-1.34-3.22.34-5-1.1-4.79-4.63a6.06,6.06,0,0,0-3.42-6.1c-2.71-1.33-2.82,2.08-4,3.46-5.14,5.81-8.62,11.94-4.29,20.14.58,1.1-.4,3.18-.8,4.77-.58,2.23-1.46,4.44.64,6.35.86-5.74,4.07-10.9,3-17.29-.23-1.42,4.56-4.44,7.44-5.55C744,819.7,745.36,823.37,747.47,824.65Z" fill="#786b57"/><path d="M976.59,878.29l2.49-4.82,5.1-27.41-3.49,6.37c-8.17,5.8-8.69,14.43-7.71,23.56C973.37,879.62,973.88,879.86,976.59,878.29Z" fill="#cec3ab"/><path d="M960.09,769.16c-.64-8.39.92-16.9-1.25-25.2-2-.07-3.85-2-5.89.61-1.21,1.58-13.23-1.44-14-3.18s-.1-3.21.94-4.6c2.1-2.82.18-4.59-1.57-6.34-2.48-2.47-3.3.63-4.67,1.68a26.24,26.24,0,0,0-2.55,2.61c-1.2,1.26-2.75,2.19-4.25,1.28-2.43-1.48.2-2.69.52-4,.51-2,1-4.07-.76-5.77l-1.18.13c-3.4,2.25-2.49,9.13-8.36,8.74-5.23.08-7.85-2.47-7.35-7.4.31-3-.39-5.7-2.76-7.09-2.52-1.47-5.42-1-7.88.79-1.16.84-2.21,2.21-1.81,3.67.58,2.14,2.51-.71,3.61.84-1.23,1.35-2.16,4.59-4.24,2.88-3.44-2.84-.4-6.91-.28-11-4.42.91-8.54,4.23-12.83.11-1.47-1.41-3.06,1.16-4.34,2.37s-2.69,3-4.6,1.67c-2.78-1.91-3.39-7.78-8.81-4.87-1.41.77,2.61-4.55-1.79-2.55-1.45.65-3,1.08-4.43,1.74-2.58,1.18-3.15-.39-3.34-2.58-3.56.72-6.3-2.1-9.61-2.48-6.34,4.15-6.79,6.12-3.78,16.52,1.76,1.24,3.8.44,5.67.91,4,.13,7.1-2.21,10.33-4.21,1.08-.82,1.92-2.19,4-1.68,0,2.55-3.15,5.91.7,7.85s7.69.83,11.71-2.07c-2.44,4.49-1.61,6.17,3,6.6,6.84.65,13.76-.35,20.52,1.41,1.47.38,3.39-.09,2.85,2.69-.82,4.23,2.31,4.85,4.71,4.4,5.33-1,10,2.32,15.2,1.9,3.16-.26,3.66,2.52,3.42,5.3a2.14,2.14,0,0,0,.93,1.4c5,1.79,7.9-2.94,11.74-4.14-2,4.62-.66,8.21,3.53,7.69,5.33-.66,7.19,3.43,8.43,7a6.42,6.42,0,0,0,3.93,4.27c-4.65,10.53-13.45,8.62-22,7.51,1.66-5.15-1.09-5.18-4.94-3.77-7.05-.79-14.36,3.25-21.21-1.55-2.72-1.91-5.24,0-7.72,1.17-1.8.87-3.32,2.27-5.13,3.11-1.43.67-3.11,1.57-4.21-.37-1.25-2.21-2.47-3.78-5.14-2.21-2.24,1.33-2.9,3.22-2.3,5.78a6.68,6.68,0,0,1-.35,3.09c-.66,4.21.7,6.15,4.89,4.72,2.56-.87,4.68-.43,6.24,2,1.94,3.06,4.11,2.58,6.51.57,3.91-3.27,14.16-4.09,18.07-.73,3.75,3.22,6.72,2.69,10.06-.1a10.85,10.85,0,0,1,7.12-2.79c3.08,0,6.06-.19,5.38,4.87-.34,2.6,1.54,4.32,4.07,4.4,2,.06,3.93.67,5.91.11a6.11,6.11,0,0,0,3-1.77c1.27-3.63,2.69-6.8,6.92-3.07.77.67,1.42-.06,2-.61C963.42,781.22,960.06,775.25,960.09,769.16Z" fill="#a99c83"/><path d="M896.93,691.85c1.25,1.64,3.67-.91,4.08,1.64.28,1.8-1.61,2.1-2.65,3-2.17,1.8-4.32,3.62-6.44,5.49a2.37,2.37,0,0,0-.81,2.79c.8,1.7,2.14.83,3,.13,5.08-4.25,11.63-6.17,16.08-11.45,1.07-1.28,2.76-2.33,1.52-4.09-1.09-1.57-2.82-1-4.28-.05-.95.6-1.64,1.63-3.09.66C900.59,687.48,900.53,687.57,896.93,691.85Z" fill="#cac0ad"/><path d="M960.15,718.44q0-3,0-6c-3.12,1.22-5.22,3.63-6.87,6.58-1.15,2.07-2.29,4.62-.06,6.16,2.44,1.7,4.41-.64,5.8-2.58C959.82,721.51,959.81,719.84,960.15,718.44Z" fill="#cac0ad"/><path d="M761.82,737.56c1.52-3.74,3-7.53,7.21-8.79,2.39-2.91-.33-5.86,0-8.78-4,5.59-8.7,10.71-10.83,17.58Z" fill="#8d8270"/><path d="M742.74,727.45c.88.91,1.75,1.82,2.62,2.74,5-4.72,11.43-8.08,13.95-15.36-1.51,0-3.62-3-4.4.56C753.37,722.39,747.55,724.28,742.74,727.45Z" fill="#bcb097"/><path d="M782.24,653.12c-4.3-.19-5.44,2-4.32,6.14a45.28,45.28,0,0,1,.82,5.36C780.41,661,782.4,657.41,782.24,653.12Z" fill="#b1a68d"/><path d="M745.14,714.87c.26,2.15-.77,5.18,2.21,5.75,2.5.47,3-2.53,3.89-4.16,4.36-8.06,8.57-16.19,9.08-25.85.13-2.28-.25-5.74,3.94-5.76,1.52,0,4.86-11,4.21-12.7-.85-2.23-2-3-4-1.09-2.88,2.71-4.06,6.58-6.25,9.75-8.48,6.58-9.55,17.32-13.32,26.54C745,709.85,743.49,712.42,745.14,714.87Z" fill="#e3dac2"/><path d="M746.22,707.21c3.63-9,6.37-18.44,12-26.4-.27-.95-.4-2.57-1.65-2-4.22,2-8.05,6.51-9.13,9.81-1.5,4.56-5.31,9.24-3.56,14.87C743.46,705.59,742.07,708.34,746.22,707.21Z" fill="#867759"/><path d="M746.22,707.21c-2.45-.06-2.08-2.09-2.31-3.7a81.94,81.94,0,0,0-3.29,7.82c-.51,1.69-1,4,.53,5.28s2.53-1.39,4-1.74C745.63,712.34,746.72,709.9,746.22,707.21Z" fill="#b2a486"/><path d="M877.67,897.87a10.84,10.84,0,0,0-1.14,0c-1.81.2-4.45-.83-5.07,1.54-.72,2.75,3.12,1.57,3.78,3.56a8.5,8.5,0,0,0,7.22,6.78c3.51.29,4.42,2.34,5.93,4.49v-6.58c4.69,11.32,8,21.41,9.54,32.06.21,1.47.08,3,1.69,3.65q-2.77-18.45-5.57-36.92c-.31-2-1.32-4,.25-5.93,1.3-2.79,2.69-5.55,3.88-8.4.9-2.17-.33-3.56-2-4.59-1.24-.77-2.56-1.37-3.89-.33a3.78,3.78,0,0,0-1,5c1.86,3.55,3.22,5-2.71,4.49C885.46,896.45,881.36,897.6,877.67,897.87Z" fill="#baab8a"/><path d="M843.05,727.48c-1.06-1.49,5.61-6.39-2-5,.41-4.56,2.92-8,5.53-11.31-5.34-6.31-10.26.43-15.39.59-1.07,0-2,1.47-3.26.74-.79-2.12.62-2.93,1.92-3.93s5.82-1.55.92-4.45c-1.37-.82.17-2.13,1.09-2.84,1.68-1.29,3.8-2,4.76-4.4-5.72-.68-9.62,3-13.62,6-4.45,3.33-8.7,6.67-14.57,5.7-4.62,6-4.42,7.91,1.18,11.12,3.8,3.56,8.32,5.91,12.74,8.42,3.94,2.06,7.36.72,10.6-1.81.48-.23.95-.49,1.42-.74C837.78,723.62,840,727.93,843.05,727.48Z" fill="#a49a87"/><path d="M810.86,718.61c-7.2-1.61-2.71-6.37-2.41-10-4.12-3.6-8.59-3-13.17-1.27-.42.83-.84,1.66-1.25,2.49,2.32,2.52,5.47,1,8.14,1.88.7.23,1.7.47,1.12,1.51-.35.61-1.43,0-2.08.45.46,4.27-1.21,8.62-4.09,10.26-2.43,1.38-3.44,7.07-8.26,4-1.62-1-3.68,1.48-4,3.59s-1.38,5.42,1.47,5.91c9.3,1.61,9,10,11.36,16.68,2.72-.57,4.63-2.61,6.82-4.15a7,7,0,0,0,1.62-2c1-2.17,1-4.14-1-5.73a4.35,4.35,0,0,0-2.44-.51c-4.35.5-2.22-3.83-3.63-5.51-.34-1-.66-2.1-1.69-2.38-4.49-1.22.45-1.71.17-2.56,1.22-1.09,2.59-.61,4-.59,3.66,0,5.82-1.71,4.62-5.83-.71-2.43.07-3.56,2-4.36A4.62,4.62,0,0,0,810.86,718.61Z" fill="#928878"/><path d="M844.24,833.52c1.38.91,1.14,2.39,1.17,3.78,4.41-.28,8.05.21,11.48,4.37,2.93,3.56,9,1.71,12.72,5.55,7.85,8.08,15.37,5.43,22.49-1.53a1.86,1.86,0,0,1,2.7-.17,2,2,0,0,1,.16,2.82c-2.81,3.42-1,6.44,1.57,7.83,3,1.64,4.58-1.76,6.41-3.93,1.95-2.33,1.69-6.15,5.72-8.18-.1,5.58,1.06,10.5-5.06,13.16-2.27,1-5.05,3.6-3.57,6.17,1.24,2.15.44,7.86,5.82,5.9a2.24,2.24,0,0,1,2.07.81c2.53,5.71,6,2.32,9.26,1.19-.22-5.25-2.43-10.32-1.5-17.22,4.23,8.19,5.78,15.82,8.54,23.31l.5-11a117,117,0,0,1,7,34.07,1.67,1.67,0,0,0,2.61-.32c1.45-4.84-.81-9.58-.3-14.4a13.72,13.72,0,0,0-.33-2c-1.18-3.89-.5-7.91-.7-11.86-.89-7-2.11-14-2.83-21.07a16.26,16.26,0,0,0,.45,2.49c1.24,2.31,1.22,5.36,4.25,7.33,3.87-8.47.09-17.75,2.55-26.26,2.56.91,1.88,2.92,1.81,4.32-.54,11.11,2,22.07,1.29,33.18-.13,2.07-.1,4.23,1.48,5.88,2.75,2.8-.26,5.57-.84,7.65-2.12,7.64,1.11,6.76,5.67,4.95,2.81-5.95,2.11-12.35,2.21-18.66,0-.07-.86-.8.24-.52,2.41.63,2.11-1.63,2.68-3,.35-3.8,0-7.32-2.61-10.41-2.43-2.9-2.47-6.38-1.05-9.88,3.11-9.61,4.52-19.69,7.55-29.39,1.74-5.55-.7-12.27-3.81-17.79-3.64-1.42-1.14-4.9-2.14-7.22a1.79,1.79,0,0,0-1.33-.89c-4.38-.14-8.31.18-6.85,6.74a2.4,2.4,0,0,1-1.7,2.91c-1.47.5-3.22.06-3.65-1.28-1.88-5.92-9-5.63-11.31-11.16-.8-1.95-3.28-1.64-4.77-.5-3.34,2.57-6.68,5.37-8.47,9.39-1,2.16-.46,5.61-3.65,5.51-3.43-.11-7.12-.07-9.75-3.38-4.15-5.23-9.8-7.62-16-8.92-.35,1.18-1.13,2.42-1,3.53,1.07,7.84-3.42,13.32-11,12.76-2.69-.19-4.65-.61-4.81,3.21-.09,2.07-.89,2.91-3.09,1.36-1.3-.92-3.48-.31-5.18-.74-3.72-.94-6.73-2.93-6.33-7.57.32-3.63-.43-5-4.28-5.36-3.4-.27-7.67-.88-7.76-6.56,0-1.29-.62-3.69-2.69-3.5-1.57.14-2.38,2.27-2.07,3.38,1.1,3.94-3.94,3.91-3.76,7.63,3.54-.91,5.51,2,8.19,3.44,4.74,2.62,7.55,8,13,9.26,2.72.61,1.72,3.26,1.62,4.61-.19,2.68-2.79,1.8-3.61.91-2.41-2.61-6.07-.69-8.46-3.13-.9-.92-2.31-.43-3.18.63-3.65,4.47-2,12.67,3.09,15.15C842.45,831.52,843.64,832.06,844.24,833.52Z" fill="#cec3ab"/><path d="M933.61,900.4H931.7c-.78,3-.58,6-.43,9,3,2.58,3.49,5.62,1,8.72-1.69,2-1.66,4.1-1,6.4.1,5.85,2,11.56,1.19,17.48,1.75,2.34.63,5.31,1.42,8.29,2.87-1,2.87-3.83,3.9-5.79,2.44-11.27,1.26-22.81,2.34-34.18a7.62,7.62,0,0,0-.59-2.83c-1-2.15-4.9-1.37-4.5-5A3.14,3.14,0,0,0,933.61,900.4Z" fill="#cec3ab"/><path d="M915.89,956.18a8.47,8.47,0,0,1,2.69-6.37c3.68-3.86,2.69-6.5-2.63-8.75C916.92,946.1,913.62,951.13,915.89,956.18Z" fill="#c7ba9e"/><path d="M900,991.33c2.29-4.49,1.19-8.63-1.17-12.64C896.11,983.23,901.13,987,900,991.33Z" fill="#c7ba9e"/><path d="M965.12,825.76c1.91,1.91.46,4.91,2.25,7.34,2-3.45,3.86-6.73,5.73-10q-2.91-19.27-5.83-38.54c-3.58-.28-3.82,2.88-3.75,5.05.29,9.37-2,18.6-1.2,28C963,820.41,962.88,823.53,965.12,825.76Z" fill="#cec3ab"/><path d="M975.06,735l-5.6-5.33c-.06,12-3,22.91-1.39,34.13,1.55,4.67-.75,9.74,1.37,14.35,1.6.72,2.52-.21,3.28-1.52Z" fill="#a99c83"/><path d="M985.27,761.78l-2.56,1.3c-6.4,6.9-5.64,15.4-4.79,23.92.05,1.27.11,2.54.16,3.81l2.85,4.25C984.84,784.2,986.61,773.23,985.27,761.78Z" fill="#a99c83"/><path d="M939.65,899.12c-1.56,1.84-2,5.64-5.77,3.47-.48,3.55-.09,6.1,4.24,4.12.62,1.35.92-3.45,1.73-.08.24,1,1,1.81,2.23,1.21.46-2.83.93-5.66,1.39-8.5C942.28,897.62,940.9,899.53,939.65,899.12Z" fill="#cec3ab"/><path d="M908.89,941l-1.37,2.61c-2.21,4.87-6.37,9.06-4.79,15.26,1.93,7.33,3.85,14.66,5.93,22.6,2.85-3.55,2.72-8.08,4.93-11.38C912.61,960.24,911.9,950.39,908.89,941Z" fill="#baab8a"/><path d="M923.44,963.81c.26-3.33.93-6.48,3.25-9a6.92,6.92,0,0,0,1.54-6.28c-5.52,1.13-4.36,6.5-5.81,10.22C922.64,960.48,921.94,962.4,923.44,963.81Z" fill="#c6b594"/><path d="M730.86,539.46q2.37,4.39-2.38,3.77c1.3,1.57,3.29,3.55,4.68,1.8C734.07,543.87,734.38,540.07,730.86,539.46Z" fill="#958266"/><path d="M966.15,914c.55,1,1.09,2.07,2.08,4,2.86-9.67.72-18.76,1.35-27.66-2.71-1.06-4.54.2-6,2.52C963.15,898,963,903,965,907.9,966.05,909.8,966.05,911.91,966.15,914Z" fill="#cec3ab"/><path d="M684.27,794.39c-3.21,2.35-4.83,6.08-6.6,9.45-3.56,6.75-6.74,13.77-12.43,18.81-4.82,4.28-6.39,9.61-6,15.92,6.17,7.44,7.74,7.41,15.2-.59.2,2.08.38,3.87.74,7.51,4.28-8,12.59-5.68,17.37-11,1.29-1.44,2.54-.26,3.55.81,1.64,1.73,3.34,2.73,4.63-.2,1.1-2.49,1.33-5-2-5.86-1.32-.36-2.83-.26-4-.89-3-1.62-5.56-4.1-3-7.77,4.52-6.45,9.82-11.23,18.52-10.24,5.66.65,10.43-1.92,7.94-9-.64-1.84-.35-4.14-.12-6.18a2.17,2.17,0,0,0-1.87-2.64c-2-.55-1.66.87-1.4,2.18.54,2.77-1.84,2.26-3.07,2.78-2,.88-2-.88-2.42-2.33-1.28-4.06-9.47-6.44-12.23-3.12s-6,6.18-5,11.91c.82,4.92-3.6,8.41-6.35,12-1.32,1.74-2.63.42-2.48-1.46.23-3.05,1.08-5.76-2.72-7.62-2-1,.21-2.71,1.41-3.74C684.63,800.8,685.82,798,684.27,794.39Z" fill="#cfc4ab"/><path d="M695,761.62c1.58,3,4.64,2.88,7.21,3.79l5.95-2.56v-1.24c-4.34-5.37-8.72-1.85-13.09-.06Z" fill="#b4a68b"/><path d="M716.56,747.75l1.19-1.28c.48-.7.45-1.61.84-2.32,1.12-2.09,3.71-4.32,1.26-6.55-2.15-1.94-4.86-.66-7,1.2h0c-3.94,3.74-8.21,7.14-10.72,12.29-1.15,2.37-3.34,5.06-.1,7,3,1.76,6.71,2.15,8.91-1.55C712.76,753.53,714.8,750.75,716.56,747.75Z" fill="#665a4c"/><path d="M716.56,747.75c-2.5,1.83-5.53,2.83-6.22,6.83-.79,4.51-4.56,3.75-7.12,2.72-4-1.58.11-3.4.4-5.16,1-6.08,6.65-8.52,9.26-13.33-5.31,3.05-9.56,7.57-14.31,11.4-2,3.5-.29,8.27-3.5,11.34,4.36,1,8.74-3.17,13.09.06C712.32,757.91,718.59,755.64,716.56,747.75Z" fill="#95876f"/><path d="M712.87,738.8c2.24,1.31,5.14-3.16,6.59.22.9,2.11-2.22,4.61-1.71,7.45,2-2.72,6.55-3.13,6.34-8-.06-1.36,2.24-2.46.48-4.31-1.5-1.59-3-.14-4.41-.31s-4.18,3.42-3.77-1.61c.09-1.08-.67-2.19-1.86-1.48-.95.57-2.17,1.63-2.27,2.6C712.07,735.12,712.63,737,712.87,738.8Z" fill="#95876f"/><path d="M949.36,793.09a1.76,1.76,0,0,0,0-1.22c-1.74-.3-3.59-1.17-5.19-.8-4.56,1-5.28-1.86-3.82-4.8,1.68-3.38-.33-3.51-2.08-3.94-4.8-1.18-9.37-1.11-13.24,2.95-2.59,2.72-5.39,3.7-7.72-.45-1.3-2.3-3.4-1.71-5.31-1.78-3-.12-5.89.27-8.8-.9-2.26-.91-4-.19-5.25,2.5-1.44,3.21-3.23,5.08-5.33.11-1.17-2.79-3.83-4.06-6.45-2.28-4.13,2.8-4.74.39-5-3.16a1.49,1.49,0,0,0-2.33-.07c-6.53,1.09-1.72,6.34-2.91,9.42a4.5,4.5,0,0,1-4.86-2.8c-1.81-5.77-7.21-5.14-10.89-7.43-2-1.27-3.42,0-4.4,2.41-1.15,2.8-3.5,5.06-3.22,8.48a10.81,10.81,0,0,0,5.71,1.32c5.5.13,10.68,4,10.36,9.63-.31,5.36,3.14,3.23,4.51,3.42,3,.4,2.84-2.1,2.64-4.6-.42-5.17,2.51-8.19,6.64-7.23,3.33,2.88,7.36,4.38,11.21,6.22,1.33.63,2.69,1.17,3.07,2.68,1.57,6.29,7.14,4.14,10.83,5.24,1.89.57,7-.1,5.28-5.76-.46-1.53,7.41-10.49,9-10.63a4.1,4.1,0,0,1,2.15.52c-.19,7.87,10.39,4.67,11,12.18.21,2.44,3.79,2.69,6.2,1.77,1.85-.69,3.35-3.09,2.66-4.41C939.74,791.66,946.82,794.56,949.36,793.09Z" fill="#beb198"/><path d="M908.43,906.77c.19-3.07.7-6.16-.73-9.08-.22,2.15-.51,4.11-3.31,4-1.88-.07-4.41-.41-4.7,2.32s1.39,4.68,3.53,6c2.9,1.71,2.7-1.94,4.11-2.85A4.42,4.42,0,0,1,908.43,906.77Z" fill="#c7ba9e"/><path d="M878.83,886.47v2.61c1.78,1.47,3.82-.22,5.59.44,2.38.88,2.79-.35,2.76-2.37s-.63-3.74-2.7-2.7C882.63,885.39,879.85,883.3,878.83,886.47Z" fill="#baab8a"/><path d="M881.48,859.77c-.11,1.25.13,2.67,1.27,2.42,3-.65,4-3.6,5.37-6a1.48,1.48,0,0,0-1.34-2.2C883.36,854.18,882.63,857.29,881.48,859.77Z" fill="#cec3ab"/><path d="M894.85,875.78c2.33.38,4.62-1.85,5.78,1.72.74,2.28,2.23.65,3-.54s1.32-2.65-.61-3.51C900,872.14,897.31,872,894.85,875.78Z" fill="#cec3ab"/><path d="M810.86,718.61l-3.62.08c-2.07,3.85,1,6,2.94,9-3.65,2-6.88,4-10.94,1.8a2.51,2.51,0,0,0-2.74.61c-.58.51-1.18,1-1.74,1.53-1,.9-2.82,1.54-2.2,3.15.79,2.06,2.27.35,3.41,0,1.42-.41,1.62.46,1.72,1.56,3,.94,3.16,4.22,4.79,6.29l2.37,0c1.74,1.68,4.34,3.37,0,5.06-.39.42-.78.84-1.18,1.25-4.4,5.48.34,6.08,3.57,7.5,1.88.12,4.32-2.23,5.33,1.76.34,1.32,1.93-.07,2.93-.37a14.45,14.45,0,0,1,4.1,3.53c2.31,2.62,4.27,3,5.68-.84.71-1.95,1.88-2.44,3.71-1.62,3.92,1.78,8.42,2.3,11.19,6.45,1.74,2.6,4.55,3.19,7.39,3.13,2.17,0,4.33-.31,6.43.49a21.35,21.35,0,0,0,7.68.31c2.93-.41,6-2.59,7.84,2.29.57,1.56,3,1,4.39.39,6.19-2.88,12.8-4.08,19.27-5.84,2.47-4.6,1.87-6-2.74-7.24a52.33,52.33,0,0,0-23.51-1c-1.55.3-3.22,1-4.5-.42-3.36-3.78-8-2.78-12.09-4-11.67-3.47-24.75-2.59-34.46-12.22-1.4-1.39-3.3-2.33-4-4.63,4.36-1.6,8.44-1.89,12.17,1.55a4.49,4.49,0,0,0,2.65,1.33c11.18.49,21.93,5.48,33.33,3.51,5.34-1.64,9.39,2.5,14.13,3.52,1.13-3.73-.56-7.32-.6-11,0-3.32-4-4-6-.79s-4.11,3.18-7.06,2.78c-6.21-.83-12.71.51-18.51-3.23-2.06-1.33-4.76-1.78-1.62-5.06,1.87-1.95.51-3.46-1.6-3.95-1.7-.39-3.45-1-5.23-.28h0c-3.2,2.73-6.37,5.54-10.75,2.46C819.64,723.27,813.8,723.11,810.86,718.61Z" fill="#767267"/><path d="M893.14,765.41c-7.15-.3-13.53,2.67-20,5.13-1.89.71-4,2-3.06-2.29a2.27,2.27,0,0,0-3.59-2.37c-4,3.11-8.42,1.53-12.64,2A15.61,15.61,0,0,0,843,770.43c6.08.76,11.11,6,17.78,4.58,1.1-.24,2.26.08,3.19-.91,3.53-3.75,4.46-.38,4.55,2.3.15,4.46,1.6,4.85,4.35,2.12,2.44-2.42,4.17-1.26,6,.73l2.33.06c3.17-.54,1.76-2,.91-3.82-1.39-3,1.61-3.6,3-4.07,1.88-.63,2,1.21,1.54,2.79-.66,2.52.67,1.69,2.17,1.84,4,.43,6.24-2.79,9.23-4.44.8-2.76-1-4-2.71-5.4A3.74,3.74,0,0,0,893.14,765.41Z" fill="#948a7b"/><path d="M843,770.43c3.86.48,7.12-1.94,10.76-2.54-1.14-1.66-2.84-1.46-4.32-1.11-4.12,1-7.26-.26-9.54-4-3-5-9.13-3.1-12.93-6.57-.84-.76-2.82.53-2.9,2.22-.31,6.7-2.72,3.6-5,1.26a4.51,4.51,0,0,0-3.62-1.78c3.24,2.28,4.78,6,8.87,8.18,5.89,3.21,11.47,2.35,17.14,3.42C842.06,769.57,842.53,770.1,843,770.43Z" fill="#8c8270"/><path d="M801.21,713.66c1.3,0,2,2.61,3.47,1.15a4.53,4.53,0,0,0,1-3.39c-.31-1.89-2.06-1.53-3.39-1.56-2.75-.05-5.5,0-8.26,0-.52.29-1,.61-1.56.88-1.83.94-4,2.37-3.19,4.5s3.53,1.08,5.27.8C796.83,715.64,799,714.48,801.21,713.66Z" fill="#8e8679"/><path d="M770.23,728.79a4,4,0,0,1-.51,1.12c-6.18,6.31-.26,9.28,3.16,13A1.38,1.38,0,0,0,775,743c.93-.72,1.29-2,.45-2.65-2.64-2-1.74-5.76-4-7.85C771.38,731.14,771.69,729.64,770.23,728.79Z" fill="#c7ba9e"/><path d="M807.25,756.48c-1.17-2.51-6.27-2.93-3.57-7.5-2,1.69-4.71,2.46-6,5.08C799.86,759.26,803.49,758.14,807.25,756.48Z" fill="#8c8270"/><path d="M828.87,783.23a2.91,2.91,0,0,0-2.33,3.53c.15,1,.7,2.11,1.93,1.68,1.46-.52,1.75-2.13,2.13-3.45S830.08,783.23,828.87,783.23Z" fill="#c7ba9e"/><path d="M961.37,886c.5-9.06,3.67-17.51,5.33-26.43,1.63.89.65,2.46.94,3.65,2.81.32,1.64-3,3.14-3.85.48-2,1.3-4,1.34-5.93,0-1.78,4-5.86-2.27-5.05-1.4.18-2.09-3.09-2.22-5.19l-.33-3.59c-.46-.87-.91-1.75-1.72-3.32-2.33,12-3.87,23.5-8.27,34.26-.6,1.48.35,3.66.58,5.51,2.19,5.67.79,11.66,1.39,17.47C962.9,891.94,959.72,888.22,961.37,886Z" fill="#cec3ab"/><path d="M833.53,725l6.47,2c.15,1.68-1,1.88-1.78,2.41-1.13.78-3,1.12-3,2.73,0,2.28,2.39,1.62,3.57,2.53,7.58,5.79,16.76,3.19,25.06,5.26,2.6.64,4.65-.79,4.67-4,0-1.8,1-2,2.3-1.93,1.49.12,2.39,1.37,1.71,2.55-2.24,3.91.86,6.65,1.57,9.91a45.16,45.16,0,0,0,21.86-.37c2.13-.55,3.83-.71,5.59.57,3.66,2.64,9,1.7,11.82,6.35.72,1.18,2.69.63,3.93-.05,2.58-1.4,5.38-1.11,8.09-1.44,2.27-4.69.55-7.76-4.11-7.68-6.31.1-12.28-3.29-18.38-1.58-1.41-2.57.52-3.12,1.16-4.23.74-1.31.9-2.64-.79-2.74-3.54-.22-8-2.59-10-1.8-6.29,2.47-12-2.19-17.83.43-1.37-3.44,2.84-4.78,1.72-8.15-3,.17-4.38,4-7.25,4.13-2.46.13-5.66,1.37-7.06-1.6-1.29-2.73,2.16-3.47,3.48-5.6-3-1.84-5.81-5.59-7.79,1.07-2.87,3.46-6.28,5.21-10.7,3.78-1.58-2.24-3.19.49-4.78,0C840.16,725.43,837.9,720.63,833.53,725Z" fill="#8d8474"/><path d="M925.41,751.49c-2.2-3.37-4.89-1.65-7.24-.49-2.88,1.42-5.15,2.43-6.14-2.14-.42-2-1.92-2.5-3.73-1.61s-3.21,0-4.45-.92c-3.33-2.6-5.91-4.12-10.32-.74-2.14,1.64-7.18.42-10.81.32-2.93-.08-5.73.67-8.6.52-3.91-4.51-8.79-5.93-14.39-5,4.53,4.5,9.25,9.3,15.88,8.8,11-.83,20.71,5.23,31.41,5.67a2.85,2.85,0,0,1,3,2.54c.25,2.37-1.63,2.45-3.09,3-4.23,1.66-8.81,2.39-12.6,5.24a13.51,13.51,0,0,1,3.7,4.93c3-1.42,5.78-2.17,9.05,0s7.08,4.07,11,.46c1.12-1,3-.24,4.34.94,1.94,1.77,3.17.62,4.19-1.23a6.12,6.12,0,0,1,3.16-1.64c5.5-1.45,5.49-1.4,2.7-6.67-1.06-2-.09-3.73,1.13-5.11,3.77-4.29,1.2-5.06-2.53-5.54-1.91-.24-3.91-.27-5.69-1.28Z" fill="#736d61"/><path d="M925.41,751.5c2.66,1.86,5,4.78,9.22,2.7a19.36,19.36,0,0,0-4.33,7.45c-1,3-.83,3.71,2,3.75,1,0,2.23.17,2.14,1.48a2,2,0,0,1-2.54,1.86c-2.47-.44-4.16.7-5.25,3l4.12-.36c.74,2.64-3.24,3.15-2.18,6.17,5-1.07,10.17-2.67,15.1.61.37.24,1.46-.37,2-.86,3.83-3.5,7.6-7.07,11.65-10.87-2.11-2.06-8.79,1-5.28-5.68.1-.19-.95-1.17-1.56-1.65-1.54-1.19-5-.82-3.29-4.59-1.31-.32-2.68-1-3.93-.87-1.93.27-3.9,2.73-5.32-.9-1.26-3.2.75-4.59,2.64-6.18a21.23,21.23,0,0,0,1.81-2.32C935.81,746.31,931.63,751.79,925.41,751.5Z" fill="#8c8070"/><path d="M951.55,791c.83,4.79,4.5,8.38,5,13.3,4.27-4.7,1.48-10.63,2.49-15.9,0-3.19-1.46-4.73-4.48-4C951.18,785.29,950.17,787.58,951.55,791Z" fill="#a99c83"/><path d="M847.83,727.52c6.93,2.66,8.72,2,10.7-3.78C854.68,724.11,851.92,727.91,847.83,727.52Z" fill="#a49a87"/><path d="M822.77,727.49c4.55,3.92,8,2.53,10.75-2.46C829.9,725.68,826.89,729.33,822.77,727.49Z" fill="#8d8474"/><path d="M796.5,730.08c4.57.7,9.12,2.26,13.74.08,1-.48,2.45-.22,2.71-1.8a2.48,2.48,0,0,0-1.65-2.92c-3.41-1-3.37-4.07-4.06-6.75-1.32,2.14-7.36,2.53-2,7.29,1.24,1.1-1.3,4.42-3.72,3.23C799.27,728.11,797.91,728.07,796.5,730.08Z" fill="#8e8679"/><path d="M802.48,742.63c-2-2.71,1.8-3.41,1.83-5.35-2.11-2.13-4.62.75-6.62-.94a39.25,39.25,0,0,1,1.14,5.48C799.17,747,801.24,742.56,802.48,742.63Z" fill="#8c8270"/><path d="M804.86,747.73c1.51.38,3.74,2.6,4.28-.24.47-2.47-1.85-4.17-4.29-4.82A4.37,4.37,0,0,1,804.86,747.73Z" fill="#8c8270"/><path d="M915.35,804.14c3.84,1.09,2.67,9.91,8.69,6.37,2.11-1.24,4.88-4.42,2.09-8.18C921.5,796.09,919.12,803.82,915.35,804.14Z" fill="#beb198"/><path d="M950.78,800.58c-.33-2.54.17-5.25-1.45-7.51-.32,1.36-.33,2.94-1,4C945.9,801,948.5,800.6,950.78,800.58Z" fill="#beb198"/><path d="M957.48,832.39c-.39.78-.79,1.56-1.19,2.34.55,4.69,1.1,9.39,1.73,14.75C963.39,843.11,959,837.81,957.48,832.39Z" fill="#cec3ab"/><path d="M894.32,766.68c5.95.47,10.69-4.21,16.59-4.33,1.84,0,1.32-2.72,1.32-4.32,0-2.15-1-3.6-3.09-3.91-7.77-1.1-15.75-.92-22.81-5.74-1.55-1-4.61.1-6.91.61-8.08,1.78-12.91-5.68-19.69-7.58-8.29.17-16.42.24-24.61-2.65-5.09-1.8-10.71-.94-15.47-5.28-1.53-1.4-6.36,1-9.8,1.16-1.05,0-1.59,2-.45,3.05a77.15,77.15,0,0,0,17.73,12.51c3.9,1.93,7.93,3.62,12.36,1.42a2.42,2.42,0,0,1,2.22.53c4.66,4.69,10.82,2.61,16.17,4.09.36.1,1-.22,1.12,0,6.28,9.27,14.65-.48,21.77,2.65,3.51,1.54,7.79,1,11.59,2,2.48.63,1.67,2.83.78,4.61C893.53,765.83,893.92,766.26,894.32,766.68Z" fill="#585a56"/><path d="M653.17,727.54c-.27,2.28,1,3.66,2.57,4.82l-.09.19c1.33.66,2.07-.12,2.69-1.21-.4-2.8-3.74-5-1.62-8.29.85-1.76,1.95-3.41,2.22-5.44-.84-2.54.17-5,.27-7.51l-1.18-.2a2.39,2.39,0,0,1-1.11.27c-.79,1.19-1.59,2.37-2.39,3.56.13,2.2-1.6,3.36-2.5,5Z" fill="#6b5f4d"/><path d="M659.21,710.1c-2,2.2-3.6,4.46-1.13,7.42,2.2,1.63,3.51-.39,5-1.41,1.77-1.17,3.47-2.87,5.58-.64a6.34,6.34,0,0,0,1.18,1.08c2.31.33,4.63,0,6.94.18a3,3,0,0,0,1.86-1.54,1.56,1.56,0,0,0-.32-1.55h0c-1.82-1.38-4.19.28-6-1.19C668.09,711,664,708.46,659.21,710.1Z" fill="#61523d"/><path d="M693.85,718.74c-.63-5.29-3.89-6.65-8.33-6.26-1.82,4.34-4.84.31-7.16,1.16,0,.43,0,.86,0,1.28,1.47,2.4,3.69,2.7,6.1,2.41a8.54,8.54,0,0,1,7.94,1.7A1.66,1.66,0,0,0,693.85,718.74Z" fill="#6b5e4c"/><path d="M672.36,712.45c1.71,2.06,4,.95,6,1.19C676.66,711.57,674.42,712.53,672.36,712.45Z" fill="#6d604d"/><path d="M670,714.92c-1.63-4.1-4.21-2.68-6.57-1.09-1.79,1.19-2.84,3.56-5.3,3.69-.81,1.67-1.63,3.33-2.44,5-.82,2.43-1.5,5.23,1.41,6.25,2.34.82,3.45-1.78,3.88-3.7C662.12,719.78,667.87,719.2,670,714.92Z" fill="#433829"/><path d="M670,714.92c-4.84,2.35-9.8,4.56-10.81,11.1-.16,1.05-.87,2.33-1.84,1.94-2.44-1-1.39-3.51-1.66-5.44-2.67,3.85-1,6.34,2.31,8.34l1.69.33c1,.2,1.49-.54,1.94-1.3,1.21-4.29,3.06-8,7.48-9.53.93-1.23,1.7-2.5.91-4.15C670,715.78,670,715.35,670,714.92Z" fill="#584c38"/><path d="M670,716.21l-1.2,3.79a2.07,2.07,0,0,0-.58,1.56,3.77,3.77,0,0,0,3.07,2.71,7.18,7.18,0,0,0,2.55-.45c2.23-.31,4.93,0,5.48-3.17.32-1.83,1-4.25-2.1-4.48A6.19,6.19,0,0,0,670,716.21Z" fill="#6d604d"/><path d="M677.19,716.17c4.28,7-2,5.2-4.75,6.4,2.89,4.31,6.9,3,10.54,1.95,3.13-.89-.42-5.35,2.59-6.73a1.5,1.5,0,0,0-.08-1.59c-2.53.46-4.77-.81-7.15-1.28Z" fill="#483e2f"/><path d="M691.48,727.58c-.56-3.07.61-5.87,1.23-8.75-1.26-4.41-4.27-3.42-7.22-2.63,0,.42,0,.84,0,1.26,1.45,2.43,3.53,4.54,3.36,7.75a7,7,0,0,0,.9,3.39,1.6,1.6,0,0,0,1.53.51,1.08,1.08,0,0,0,.43-1C691.66,727.76,691.58,727.58,691.48,727.58Z" fill="#605444"/><path d="M660.41,732.63c4.77,1.22,9.5,2.73,14.34,3.59a14.07,14.07,0,0,0,15.46-7.52l0-3.66a1.24,1.24,0,0,0-1.55.43c-3,6.15-8.16,7-13.87,6.75-4.7-1-9.29-2.88-14.23-2.09l-.89,1.06Z" fill="#483e2f"/><path d="M660.53,730.13c4.46,2.44,9.63,1.87,14.22,3.74,3.4-3.61-.41-3.89-2.13-4.72s-4.48-.43-4.26-3.79c.15-1.35-.29-2.71.2-4l.21-1.32C662.13,719.83,661.57,725.2,660.53,730.13Z" fill="#483e2e"/><path d="M667.58,725.05c-1.9,3.59-.89,5,3,5.15,1.87.07,5.28-.67,4.19,3.67,6.87.43,12.78-1,15.43-8.83-.14-3.5-.59-6.8-4.68-7.58-6.9-.72-3.53,3.06-1.63,6.15-4.3.07-8,.92-11.43-1L671,724.14C669.73,723.79,668.51,723.79,667.58,725.05Z" fill="#3e352a"/><path d="M667.58,725.05c1.21,0,2.52.28,3.45-.91l-2.47-2.82C666.72,722.12,666.74,723.46,667.58,725.05Z" fill="#483e2f"/></g><g id="frame"><rect width="1000" height="1000" fill="none"/></g></svg>