<!-- Copyright (c) 2023 Jan Stehno -->
<svg xmlns="http://www.w3.org/2000/svg" viewBox="0 0 1000 1000">
    <title>mountainhare</title>
    <g id="mountainhare">
        <path
            d="M735.93,786.6a1.45,1.45,0,0,1-1.33-1.06c-.7-2.46-2.53-4-4.82-5.19-1.13-.66-2.14-1.35-1-2.81,5.52-1.33,11.11-3.71,16.23,1.1a2.88,2.88,0,0,0,4,.08c3.6-2.53,6.76-1.37,10.31.48,4.52,2.35,9.2,4.4,14.7,3.63,4.26-.59,7.59,1.22,9.24,5.55,1,2.58,2.79,5.83,5.45,4.87,2.92-1.06,6.26-3.44,6.83-7.11.39-2.49.53-4.82,2.3-6.8,1.44-1.61.87-3.44.26-5.25-1.72-5.08-3.45-10.12-2-15.68.39-1.52-.15-2.92-.88-4.42a1.45,1.45,0,0,0-2.48-.21c-1.21,1.71-3.26,2.29-5.48,3.37-7.16,3.47-12.74,1.25-19.09-1.36a18.8,18.8,0,0,0-13.86,0c-4.23,1.54-8.55,3.4-13.25,2.94a1.42,1.42,0,0,1-1.26-1.26c-.32-3.91,4.41-4,5.9-6.59,2.48-5.31,6.85-6.22,12.09-5.35,4.79.8,9.58,1.57,14.42,2a1.45,1.45,0,0,1,.78.32c4,3.23,7.77,1.67,11.53-.71,1.22-.77,2.1-2.71,3.27-2.71,9.37.07,11.6-9.18,17.68-13.33,1.18-.81,2.11-2.06,3.6-2.25,3.44-.44,5.15-2.2,5-5.77-.07-1.69.29-3.41,2.22-4,2.09-.63,3.54.53,4.78,2,.89,1.09,1.52,2.43,2.45,3.49a1.47,1.47,0,0,0,2.57-1.07c-.12-1.75-.72-3.54,1.47-4.13,2.68-.73,4.28,2,6.12,3.56a16.58,16.58,0,0,0,2.22,2,1.47,1.47,0,0,0,2.2-.86,11.43,11.43,0,0,0-1.69-9.34,32.44,32.44,0,0,1-4.42-9.51c-1-4,.79-5.46,4.71-4.2,2.35.76,4.3,2.46,6.76,3a3.14,3.14,0,0,0,2.93-.42c1.08-.94.19-1.79-.23-2.71-2.55-5.55-1.21-6.74,4.67-7.15,8.22-.58,14.88,3.28,21.94,6.06,4.71,1.86,6.46,3.21,5.73,5.85a1.46,1.46,0,0,0,2.42,1.4l0-.05c1.57-1.37,2.54-3.24,3.82-4.86,2.52-3.18,5.38-5.29,9.49-2.61,2.79,1.82,4.14,4.2,1.92,7.25-1.81,2.48-2.73,5-2.07,8.09s-1,5-3.16,6.91c-4.84,4.21-5.06,4.79.39,7.47,3.8,1.86,1.45,5.92,4.1,7.7,3.83,2.57,1.49,4.84.27,7.82-1.74,4.27-.48,9.13-1.83,13.79-2.19,7.56-3.29,9.22-9.53,7.89a1.46,1.46,0,0,0-1.69,1.9c1.22,3.49,3,7-.71,10.16-1.64,1.38-2.73.9-3.76-.08a1.45,1.45,0,0,0-2.45,1c-.11,2.14-1.41,3.79-3.91,4.92a6.78,6.78,0,0,0-3.5,4.13c-.57,1.56-1.15,3.33-2.52,4.2-8.15,5.13-13.23,13.61-21.31,18.93-15.42,10.18-21.71,18.88-21.65,38.09,0,5.87-3.29,11.05-4.21,16.61a25.71,25.71,0,0,0,2.46-4.7c3.59-7.88.54-11.06,8.69-10.78a11.6,11.6,0,0,1,11.19,10.64c.24,4.11.38,8.13,2.44,11.78a7.23,7.23,0,0,1,.94,4.4c-.7,5.74-2.35,11.25-3.86,16.8-.48,1.78-1.35,4-3.48,3.73-2.39-.32-2-2.76-1.92-4.57,0-.75.18-1.49.26-2.32a1.46,1.46,0,0,0-2.19-1.42c-3.7,2.23-6.41,5.42-9,8.51-2.17,2.61-.69,6,1.16,8.6,1.38,1.91,2.93.61,4.13-.64a17.38,17.38,0,0,1,6.45-4.68,2.37,2.37,0,0,1,2.83.48,1.94,1.94,0,0,1-.1,2.8c-6.66,5.37-4.44,11.25-1.34,17.22a1.42,1.42,0,0,1,.17.78,149.37,149.37,0,0,1-2.18,17.26c-.13.37-.25.74-.38,1.09a1.46,1.46,0,0,1-2.74-.12c-2-6.35-4-12.78-6.38-20.16-.69,1.81-1,2.21-.94,2.52,4.31,19.76-.28,40,3.48,59.82.49,2.56-.44,4.87-1.71,7-1.08,1.83-1.92.55-2.75-.31-.18-8.08.28-16.15-.38-24.24-.44-5.29.08-10.64-.35-16a3.44,3.44,0,0,1,.12-1.8c-1,.34-.27,1.34-.76,1.9-1.31,2.31-3,4.14-5.91,3.55s-1.93-3.2-2.16-5.12c-.35-2.94-1.93-5.46-3.11-8s-1.88-4.95-1.14-7.75a1.46,1.46,0,0,0-1.71-1.84c-2.1.5-4,1.19-5.83-.58a8.35,8.35,0,0,1-2.63-7.83c.33-2-1.15-2.82-2.71-3.6-4.53-2.26-9.52-3.77-10.13-10.4-.12-1.32-4.21-4.07-7.65-2.94a20.88,20.88,0,0,0-4.5,2c-2,1.22-3.74,4.25-6.36,2.16-2.1-1.66-.23-4.23.1-6.38.22-1.42.17-3.13,1-4.17,4.48-5.36-1.62-8.94-2.08-13.44a1,1,0,0,0-.94-.71c-7.68.92-7.18-4.73-7.74-9.58a5.91,5.91,0,0,0-2.21-4.26,6.72,6.72,0,0,1-2.44-4.88c-.59-6.72.16-13.52-2.07-20.17-.76-2.25,1-4.08,2.32-6.32a1.47,1.47,0,0,0-1.39-2.2c-4.84.25-4-5.36-5.89-8.2a1.42,1.42,0,0,1-.16-1.28c2.73-7.72,2.33-15.76,2.31-23.77,0-5.14-4.63-8.7-4.8-13.82a11.41,11.41,0,0,0-1.91-.18A1.48,1.48,0,0,1,742,790C740.12,788.6,738.43,786.76,735.93,786.6Z"
            fill="#0d0c0d" />
        <path
            d="M836.36,922.14c-6.19-9.29-6.11-10.14,1.7-18.83-4,.54-4.82,1.06-7.93,4.79-2.78,3.36-5.82,3.09-7.2-1-1.68-4.93-3.18-9.85,3.25-13.19,2.62-1.37,4.44-4.25,6.66-6.41.89-.87,1.89-1.77,3.25-1.25,1.81.68,1.42,2.36,1.29,3.72-.22,2.39-2,4.63-.34,7.93,3.33-5,3.57-10.46,4.82-15.49.93-3.74,2.44-7.89-1.54-11.21-.57-.47-.12-2-.44-3-1.31-3.85,1-8.35-1.88-11.82s-7.45,1.83-10.79-1.94c-1.38-1.55-3.29.54-3.15,2.25.4,4.74-4,7.62-4.28,12.06a2.07,2.07,0,1,1-3.84-1.36c5.48-9.64,4.44-20.68,6.84-31,1.27-5.38,2.48-11.42,7.77-15,1.68-1.14,1.51-3.45,2.7-4.71s1.7-6.06,5-1.7c.39.52,1.4.7,1.42,0,.22-5.82,5.84-4.91,8.85-7.21,1.19-.91,2.46-1.65,2.52-3.26.15-3.8,3.17-4.85,5.74-6.59,4.48-3,9.86-5.4,10.53-11.9.2-1.9,1.46-2.8,3.3-3.13,4.83-.88,5-3.5,2.56-7.08-.73-1.06-2.86-2-1.26-3.48s3,.31,4.13,1.42c1.46,1.44,2.8,3,4.32,4.64,4.18-2.94,2-6.38.79-9.71-.7-1.88-2.66-4.06-1-5.69,2.08-2,2.65,1.56,4.17,2,2.16.66,5.14,1.48,6.11-.92,1.88-4.61,3.87-9.63,3.13-14.57-.46-3-2-5.32,1.77-7,.61-.27.89-1.29,1.32-2-5-1.42-2.6-7.87-6.53-9.75-2.37-1.13-4.64-2.46-5.21-4.84-.75-3.16,2.69-3.71,4.53-5,2.57-1.84,4.44-3.48,2.91-7.07-1.15-2.69-.37-5.28,2-7.21,2.2-1.81,2.62-3.79.09-5.51-2.17-1.46-4.45-3.24-6.93-.1a97.52,97.52,0,0,1-8.18,9.79c-2,2-3.81,3.88-6,1.38s1-3.29,2.4-4.41c2.59-2,2.88-3.36-.37-5.36-4.61-2.85-10.32-2.66-14.77-6.87-1.7-1.59-8.39-.18-12.84-.44-2.51-.14-3.5,2.23-1,4.16,1.87,1.42,4.27,2.65,2.23,5.28-1.76,2.25-4.49,1.45-6.92,1a3.65,3.65,0,0,1-1.07-.59c-2.42-1.44-5.81-4.68-7.4-3-2.49,2.6.73,6.46,2.34,8.68a20.92,20.92,0,0,1,4,15c-.12,1.26-.25,2.74-1.64,2.94-.76.11-1.86-.75-2.51-1.45-2.46-2.69-4.8-5.49-7.18-8.25l-1.36,1.23a11.15,11.15,0,0,1,.26,2.9c-.32,1.88,2.64,4.39-.21,5.45-2.6,1-4.39-1.55-5.76-3.66-.78-1.21-1.32-2.58-2.1-3.78a2.42,2.42,0,0,0-2.64-1.18c-1.59.37-1.76,1.72-1.47,2.93,1.34,5.43-1.26,6-6,7.69-3.77,1.38-9.44,4.67-10.33,10.57-.28,1.86-1.67,4.07-2.65,3.61-7.09-3.27-10,4.15-15.1,5.89-4.57,1.57-6.83.62-9.41-2.41.81-2.22,2.23-4.51,4.28-5,4.53-1.07,5.73-4.81,7.55-8.07,1-1.8,1.44-3.94,4-4.08,2.91-.17,3.75,2,4.64,4.14a8,8,0,0,0,2.63,3.5c-.48-6.91,4.64-9.44,7.85-13.52a41.26,41.26,0,0,0,7.38-14.09c.7-2.53-1.08-5.62,2-7.77,3.54-2.48,6.82-5.41,11.55-5.09,1,.06,2,.57,3.06,0,.44-1.94-1.71-3.24-1.39-5.16,3.94-3.21,7.11-7.68,13.31-6.76a11.23,11.23,0,0,0,10.59-3.62c3.79-4.35,9.93-4.93,14.06-.55a10,10,0,0,0,9.88,3.28c4.92-.84,9.77.58,14.68.68,1,0,2.45.3,2.71,1.18,2.25,7.59,9.18,7.06,14.81,8.77A5.78,5.78,0,0,1,907,697c2.24,4.32.13,8.47-.72,12.57-1.24,6-1.47,6,4.22,5.64,2.18-.13,3.7.69,4.21,2.75.75,3,1.69,7.31-1.64,8.29-7.64,2.26-9.19,6.43-8.34,14,.5,4.45-3.35,8.92-4,14-.77,6.24.3,12.33.14,18.49,0,1.06.28,2.35,1.19,2.71,6.8,2.74,3.72,8.67,4.38,13.37.15,1-.06,2.69-.88,2.75-5.94.47-2.78,5.64-4.39,8.3a2.68,2.68,0,0,0,.21,3.44c1.17,1.12,2.33.39,3.32-.34,4-3,5.08-.17,4.21,2.8s.58,4.66,1.54,6.82c2,10.27,1.69,20.81,3.92,31,0,8.44,4.83,16.55,1.73,25.19-.61,2.26.28,5.24-2.95,6.24-1.69-1.18-1.92-3.08-2.2-4.85a105.94,105.94,0,0,0-5.7-22.38,253.19,253.19,0,0,0-7.89-30c3.24,12.4,4.08,24.88,6,37.18a15.77,15.77,0,0,1-1.48,9c-1.36,2.91-2.75,2.72-3.92-.2-4.57-8.15-4.78-16.91-3.66-25.35-4.76,8.94-2.79,19.13-3.13,29.08-.3,2.28.26,4.9-2.43,6.24-1.85-.49-2.55-2.06-3-3.63-2.67-9.74-5.36-19.46-9.76-26.58,4.07,9.34,4.77,21.46,8.25,32.91,2.14,7.06-1.39,13.32-4.88,19.24-1.26,2.14-2.61,1.52-3.4-.59a7.7,7.7,0,0,1-.51-3.66c1.53-12.56-4-23.07-9.39-33.5,4,12,8,23.93,8,37.12-.06,9.24,1.39,18.47-.56,27.68a35.19,35.19,0,0,1-1.28,5.41c-.42,1.1-.75,2.55-2.39,2.26a2.15,2.15,0,0,1-2-1.93c-.69,7.29.33,15.36-.8,23.37-1.66,2.71,1,7.29-3.74,8.65l-3.45-9.84c1.79-4.67-1.8-9.27-.17-13.93h0c1.17-7.6,0-15.61,3.88-22.74,4-1.39,4-1.39,3.25-5.18-1-5.53-2-11.06-1-15.13-.63,4.2-1.49,10-5.22,14.82-2.09.42-4.19.82-6.2-.35-1.21-6.62,1.24-13,1.37-19.35-2.69,3-2.35,7.57-4.82,10.87-4.33.93-.82,2.68-.4,4.11a5.61,5.61,0,0,1-1.88,5.94c-2.91.53-5.08-.76-6.95-2.81-1.27-3-.25-5.9.13-8.86-.29,6.58-2.75,12.82-2.85,19.44a10.59,10.59,0,0,1-.22,2C838.48,920.81,838.06,922.1,836.36,922.14Z"
            fill="#1e1919" />
        <path
            d="M578.86,699.93a2,2,0,0,1,.14-1.21,59.19,59.19,0,0,1,11.21-12.91c2.14-1.9,3.77-3.75,6.85-2.47.75.31,2.11.57,2.1-.23,0-4.79,5.55-6.35,6.1-10.24.76-5.47,5.25-9,6.17-14.46a12.13,12.13,0,0,1,5.54-7.48c3.44.5,3.68,2.57,2.8,5.41-2.13,6.83-1.68,12.87,5.11,17.16,3,1.9,4,5,3.37,8.62,9.23-4.62,17.91-2.22,25.81,2,3.26,1.73,6-.1,8.75,1.19s1.18,3.29.7,4.52C672,686.74,677,679.32,684,673c-7.24,1.48-12.25,8.07-19.71,5-1.72-2.5,0-3.27,2-3.87,3.36-1,6.3-3.14,9.69-4,7.33-2,11.36-6.74,12.4-14.19,3.65-4.77,3.88-10.61,5-16.17,3.34-5,4.78-5.46,9.75-2.53,1.11.66,2.15,1.55,3.35.88,6.53-3.62,13.76-6.55,15.13-15.39.31-2-1-5.56.8-5.64,3.87-.18,6.57-3.84,10.61-2.81l6,1.56c3.84,1,7.59,1.89,11.36-.36,2.38-1.42,4.75-.26,7.25.59-6-10.09-9.62-22.25-23.58-24.37-1.41-3.44-.56-6.28,2.28-8.58,2.23-1.22,4.26-.33,6.47.27.66.18-.32-3,2.1-3.3s3.1-3.1,4.94-4.41c5.2-3.68,10.59-7.11,15.1-11.73,1.93-2,4.73-2.83,5.68-6.08.71-2.44,3.17-2,5.17-.92,2,3.19-.29,5.46-1.76,7.84-3.31,5.38-8,9.69-10.22,16-1.71,4.86-6.24,1.38-9.57.46,4.82,1.87,6.69,5.7,7.32,10.47.91,6.86,2.14,7.46,8.69,4.37,2.29-1.59,4.29-1.44,5.59,1.22,1.12,2.31,1.09,4.72-1.63,5.69-3.62,1.31.25,1.26.35,1.52.66,1.75-.19,2.79-1.28,3.8a15.26,15.26,0,0,1-4.73,2.87c-1.09.43-2.75.74-2,2.38.61,1.43,2.08.91,3.27.52a10,10,0,0,1,1.16-.41c3.72-.85,5.55,1,5.82,4.46.3,3.82-2,5.14-5.47,4.84-2.25-.19-4.47-.86-6.74-.21-3.22.57-6.49.72-9.4,2.69-3.69,2.5-5.91-1.68-8.79-2.29-.69-.73-.91.74-.5,0,.08-.13.23-.05.47.24,3.28,4,3.11,4.78-1.59,5.85-1.64.37-3.24.6-4.79,2.26,1.26.79,2.8,1.1,3.82,2.16,1.75,1.84,3.62,3.8,2.42,6.5s-3.78,2.86-6.37,2c-1.61-.51-3.34-1-4.82-.2-5.38,2.93-10.49,3.46-15.57-1.84,2.59,8.06-5.17,7.87-7.64,11.59a3.64,3.64,0,0,1-.31,1.57,6.45,6.45,0,0,1-6.88,3c-1.9-.3-3.74-.79-4.52,2.32,5.67-2.76,2.46,4.22,5.52,4.62,2.94.76,5.65,2.28,6.55,5.08.43,1.35-1.29,3.4-.53,5.33a2.51,2.51,0,0,1-2.18.89c-1.53-.14-1.48-.15-1.88,1.4a3.4,3.4,0,0,1-2.11,2.08c-4.19,2.06-8,5.16-13.29,4.07,0,.85.61.67,1,.77,2.57.68,6,1.07,5.07,4.75-1,3.88-4.51,3.51-7.65,3-2.22-.35-4.36-3.07-6.65-.19a2.9,2.9,0,0,0-.75,2.71c5.59-1.09,8.35,1.95,12,6.23,3.13,3.68,8.45,7.69,14.67,7.55a9.48,9.48,0,0,1,4.79.83c1.1.57,2.49,1.07,2.72,2.33.27,1.5-1.17,2-2.31,2.41-1.64.58-3.16,1-1.95,3.33a2.18,2.18,0,0,1-1.22,3.08c-3.68,1.46-2.14,4.29-1.82,7,.29-2.39-.53-5.25,1.8-6.48s3.76.73,5,2.5c1.29,4.1-.75,7-4,8.75-2.46,1.37-5.56,2.29-7.38-1.39a6.52,6.52,0,0,0-3.64-3.15,4.62,4.62,0,0,1-2.66-2.83c.33,1.8,1.23,3.14.88,4.66-.4,1.75-.44,2.69-3.35,2.5-5-.31-7.58-4.59-11.93-5.44a8.31,8.31,0,0,1-2.38-1.05c-3.66-2.83-2.87-6.66-2.39-10.11-.51,3-2.82,2.81-5.22,2.11s-4.29-2.14-2.87-4.89c1.68-3.25-.25-5.52-1.69-7.88-2-3.33-4.45-1.13-6.84-.32-1.58.53-3.15-.74-4.8-.6-6.47-1.13-7-3.13-2.8-10.31-4-.29-7.48-4.68-11.86-1.39-2.79,2-5.94,2.76-9.06,1.43-2.71-1.16-5.08.63-7.62.14-3.38-1.07-1.38-4-2.1-5.86.54,5.43-2.09,4.25-5.13,2.25a4.69,4.69,0,0,1-1.09-1.41c-.52-1.1-.16-2.42-1-3.9a7.28,7.28,0,0,1-6.29,2.83c4.91,4.67,4.24,7.65-2.25,11.57-1.52.93-3.43,1.23-4.59,2.78-2.92,2.11-5.6,4.7-9.51,4.87-1.42.27-2.85.59-4.16-.36-1.3-2.57-2.09-5.3-6-2.31C582.63,704.5,579.92,703.17,578.86,699.93Z"
            fill="#524438" />
        <path
            d="M746.92,828.83c2.58.66,6.24-.13,3.61,5.08-1.66,3.29,1.46,2.38,3,1.4s3-1.74,4.13.27a3.19,3.19,0,0,1-.74,4.42c-3.74,3-4.31,6.22-1.78,10.75,1.75,3.13.4,7.26.42,10.94,0,3.35-1,7.18,3.71,9.29,1,.45,2.76,4.79,2,7.68-1.42,5.1,1.39,5.33,5,4.41,3-.76,4.45-.27,3.71,3.14-.13.59-.51,1.57-.29,1.75,8.79,6.8-1.09,13.11-.49,19.66.05.54.14,1.08.27,2.13,3.25-1.81,5.34-4.66,8.86-5.58,2.94-.77,5.31-2.3,7.2,1.39,1.56,3,3.49-1.42,5.23.05-3,5.77-1.78,8.35,6.59,11.52,3.65,1.38,6.32,2.15,4,6.9-1.13,2.34.89,4.27,2.71,5.69s3.47.72,4.7-1.05c.76-1.09,1.63-2,3-1.27a2.48,2.48,0,0,1,.88,3.28c-3.94,4.46.5,8.2,1.21,12,.5,2.7,3.29,4.71,2,8.37-.7,2,1,2.22,5.33-.67,2,3.2,1,6.25-1.27,8.53a13.28,13.28,0,0,0-2.33,3.9c-1.57,1.71-.69,4.54-3.31,6.18-.24-1.82-.49-3.63-.73-5.44-2.71,4.81-.1,10.43-2.86,16.35-1.55-7.16-3.32-13.15-2.82-19.52,1.68-3.37-1.25-7.54,1.45-10.07-.74,1.21-1.12,3.47-2.91,4.88-4.46-4-4.11-10.45-8.38-16a108,108,0,0,0,3,18.58c.7,2.58,1.46,5.11.86,7.87-.41,1.82-.37,3.87-3,3.89-2,0-3.18-.87-4.08-2.92-2.63-6-4.39-12.35-9-17.66q1.13,5.58,2.26,11.17c.41,1.74,1.41,3.88-1.38,4.35-1.87.32-2.07-1.52-2.38-2.93-.44-2-.62-4.27-3.69-3.41-.13.93-.21,1.91-1.36,2.23-1.92.69-3.36-1.07-2.93-1.94,1.72-3.52-.32-8,2.81-10.93,2.28-2.14,1.65-4,.52-6.44-1.58-3.35-4.3-5.84-6.09-9.07-1.67-3-5.35,1-7.82-1a1.76,1.76,0,0,1-.53-1.55c.14-.61,0-1.44.37-1.8,5.13-5.19-2-10-3.82-14.11-2.64-5.87-1-5.43.16-10.47-2.36-1.18-4.87-.06-7.25-.41s-4.14-2.18-1.79-4.2c5.8-5,3.21-9.81.22-14.63-2.6-4.2-5.15-8.25-4.42-13.59.38-2.85-5.13-4.39-2.09-8.09-3.46-5.26.74-8.63,2.88-12.66.78-1.47,2.09-4.16-2.08-4.52-1.53-.13-1.2-3.06-.28-4.8.57-2.16,1.33-4.19-.46-6.34A3.54,3.54,0,0,1,746.92,828.83Z"
            fill="#202020" />
        <path
            d="M659.18,701.21c2.31-.48,5.35,2.19,6.87-1.62.89,3,4.39-1.53,4.6,1.26.27,3.64,6.25,5,3.46,9.5-.89,1.43-3.37,2.91-.17,4.09,2.21.82,5.33,2.12,5.6-2.74,2.53,3.82.07,8.56,3.26,11.73a13.37,13.37,0,0,0-.86,4.12c.3,6.58,0,6.83-6.69,7.36a4.36,4.36,0,0,0-3.64,1.92c-1.07,1.7.68,2,1.48,2.74,2.61,2.5,1,4.59-1,6.2-5.19,4.27-9.31,10.44-17.41,9.75-1.94-.16-3.89,1.18-5.55,2.46a19.83,19.83,0,0,0-8.8,6c-3.85,4.31-10.08,3.19-15.12,5-2,.72-4,1.23-5.57,2.7-.2,0-.53.08-.6,0-4.91-7.29-12.31-10.15-20.45-12.12-4.54-1.1-7.29-5-10-8.6.29-5.44,2.32-9.25,8.56-8.46,3,.37,4.91-1.69,7.31-2.65,1.9-.48,4-.33,5.16,1.08,3.34,4,7.39,4.07,11.9,2.95,1.41-.35,2.81.15,4.21.46,2.64.6,5.48,2.39,5.89-2.86.18-2.32,4.26-2.82,5.68-5.18,1.49-1.37,2.65-.93,4.26.2,8.61,6.08,12.69,5,17.93-3.85,1.27-2.16,3-3.62,1.82-6.66-1-2.77,1.41-3.29,3.68-3.31,2,0,4-.55,4.4-2.61s-1.87-2.27-3.17-3.07c-4.09-2.51-4.1-5.7-1.34-9.72-1.76-1.48-4.59-1.5-6-3.55A2.3,2.3,0,0,1,659.18,701.21Z"
            fill="#3d352c" />
        <path
            d="M770.57,597c-1.8,4.62-5.63,2.21-8.45,2.08s-1.74-2.82-1.77-4.81c-.14-8-3.06-11.4-9.61-11.38,1.44-2.6,2.65-3.94,6-2,3.1,1.75,6.35,2.12,6.72-3.67.22-3.54,4-5.94,6.1-8.89,2.45-3.41,5.93-6.32,6-11.06-1.14-2.32-.43-4,1.87-5,2.05-.89,3-2.66,4-4.51,1.24-2.07-.76-3.25-1.35-4.82,0-2.77.28-5.42,2.78-7.21,1.46-.44,3.74,2.51,4.25-2.13.47-4.21,5.08-7.64,5.72-12.1,1.1-7.62,6.2-13.52,8.06-20.76.78-3,2.11-6,1.48-9a13.14,13.14,0,0,1,2.41-10.88c-.3-2.8,2.82-5.83-1-8.51-1.12-.8.37-2.57,1.57-3.38a13.41,13.41,0,0,0,5.13-5.78c1.7-3.65,2.32-6.82-2.52-8.73-2.27-.9-2.49-3.15-1.47-5.22,1.23-2.49,1.14-6.55,5.8-5.42,1.51,1,.58,3,1.81,4.34,3.79,4.07,6,3.64,8.34-1.39,1.93-4.1,4-8.1,3.86-12.75-.06-2.85,1.14-6.4-3.92-6.57-2-.08-2.29-2.32-1.71-3.9,1.08-3,.53-6.07,1-9.09a3.89,3.89,0,0,1,1-1.45c7.65-.1,11.32,4.4,10.89,13.5-.64,13.53-4.59,26.24-9.13,38.9-1.72,4.82-6.55,2.68-9.08,5.64,2.36-1.08,4.63-2.84,6.84-.95,2.49,2.13,0,4.07-.85,6-3.21,6.74-4.28,14.12-6.31,21.21-.55,2,.7,3.07,1.79,4.3-1.69,7.42-8,12-11.19,18.63s-8.4,12.42-10.66,19.77c-1.08,3.49-4.49,5.57-6.23,9-4.25,8.39-9.49,16.29-14.33,24.39-.78,4-1.5,7.93-3.76,11.39-1.91,2.67-2.66,5.48-1.53,8.64C769.57,594.59,770.53,595.62,770.57,597Z"
            fill="#302a25" />
        <path
            d="M816.74,501.58c-3.1.36-6.31,1.4-3.62-4.07,1.64-3.32,2.31-7.3,3.11-11,1.17-5.39,2.41-10.57,6.11-15-4.61-3-6,2.49-9.32,3.07-.61-4,1.19-6.49,4.76-6.41,3.93.1,4.27-2.17,5.55-4.93,5.48-11.79,7.18-24.42,8.86-37.06.89-6.71-2.28-10.73-9.48-12.9-2.59.16-4.38,2.21-6.73,2.92-1.19.35-2.55.68-3.22-.74-.54-1.14.47-2,1.29-2.5,2-1.2,3.8-2.46,4.83-4.61a29.8,29.8,0,0,1,12-7.77c7.51-2.65,15.13,4.23,16.21,11.63,1.54,10.46-5.09,18.06-6.86,27.18-2.49,12.83-9.16,24.06-12.78,36.36a163.26,163.26,0,0,1-6.91,19.68C819.52,497.71,818.7,500,816.74,501.58Z"
            fill="#13110e" />
        <path
            d="M663,686.27c-1.6.23-3.5,0-4.74.78-2.25,1.43-3.33,1.72-4.37-1.27-.89-2.58-3.31-3.27-6-3.26-4,0-8.17.81-11.8-2.06-.83-.66-2.86-1.26-3.29,1.13s-1.39,2.39-4,2.19c-3.76-.29-1.57-2.5-1.54-3.25.15-3.18-1.76-5-3.91-6.53-5.8-4.23-8-11.67-4.76-18.11,1.18-2.35.59-3.36-1.33-4.36-1.78-2.35-.13-4.26,1-6.07,3-5,5.86-10.18,8.67-15.33l2.43-3.54c.56-.34,1.4,0,1.74-.24,7.51-5.41,11.35-4.79,17.54,3-.08,5.1-4,8.59-5.5,13.12-2,3.78.81,8.39-2,12-1.42,3.16-3.12,6.23-3.27,9.81-.15,1.63-.47,3.23-.63,4.85-1,4.09,1.81,5.24,4.81,6.23,1.54.58,3.18.82,4.73,1.4,2.1,1.24,4,3.19,6.8,1.66a3.42,3.42,0,0,1,1.64.24,9.39,9.39,0,0,1,1.43.84C658.52,681.88,662.18,682.7,663,686.27Z"
            fill="#392f2b" />
        <path
            d="M728.61,778l1.17,2.35c-13.83,1.2-26.52-5-40-6.21-6.92-.62-13.77.74-20.64,0-1.6-.85-4.78.21-4.51-2.88.32-3.57.53-7.39,3.44-10.12a19.08,19.08,0,0,1,4.15-2.54c3.62-1.8,7,.22,10.06,1.33,4.21,1.5,7.62.48,11.15-1.4,1.81-1,3.46-2.19,5.26-3.19,4.4-2.43,8.55-4.27,11.75,1.64a2.24,2.24,0,0,0,.89-.79c3.46-.47,3.46-.47,6.19,1.86.33.34.14,0,.41-.46,5-8.84,23.37-12.33,29.19-5.6-2.06,2.56-6.13,2.74-7.4,6.24.08,3.13-2.65,2.93-4.32,3-5.59.4-10.49,3.22-15.93,4.14-2.13.36-4.73,1.36-5,3.83-.24,2.16,3.11,2,3.79,3.27C720.58,776.82,726.48,773.81,728.61,778Z"
            fill="#130f0b" />
        <path
            d="M974.72,749.24c0,3.92-2.85,6.74-3.87,10.31-.8,2.77-1,5.18.43,7.67a2.36,2.36,0,0,1,0,2.74c-1.28,1.24-2.61,2-4.17.42.22-4.15-.36-8.33.21-10.91-1.5,7.77.27,17.32-1.56,26.67-.08.43,1-2,2.11-.5,1.52,2.32,1.34,4.8.7,7.32-.62,1.73-5.07,2.2-1.7,5.24a6.28,6.28,0,0,1,1,2.26c-.77,2.85-3,1.56-4.68,1.59-1.34-.53-1.89-1.79-2.66-2.86-.64-.8-1-1.78-1.71-2.54a39.25,39.25,0,0,0-1.16-15.06c4.27-.8,3.64,2.18,3.89,3.45-1.55-7.07-1-15.26,1.49-23.31,1.3-5.26,2.74-10.5,3.81-15.83-.55,1.64-.46,3.42-1.08,5-.94,2.49-1.21,5.15-2,7.68-1.21,3.29-.89,7-2.84,10.09-2.12,2.92-3.89,2.42-5.33-.58a10.57,10.57,0,0,1-.8-4.76,14.18,14.18,0,0,1,1.46-5.68c1.41-4.19,1.68-8.67,3.31-12.79,4.92-11.57,5.56-23.76,5.35-36.1-.08-4.77,1.36-9.37,1.89-14.08.83-7.34-.25-8.93-7-11.47-2.71-1-5.52-1.65-8.27-2.5-2-.61-4.79-1.1-5.25-2.88-1.59-6-8-7.34-10.94-12-2.72-4.24-7.83-2.84-11.87-3.87-2.78-.71-5.83-.45-7.21-3.74a3.19,3.19,0,0,1,.24-2.88c6.18,1.64,12.05,4.42,18.53,4.93.39,0,1,.17,1.12.42,2.48,6.32,10,6.58,13.73,11.74,3.35,4.64,9,7.35,14.35,8.43s6.21,4.1,6.88,7.9c.46,2.64.22,5.36,2.5,7.31,2.84,3.19,2,7,1.46,10.58-.91,6.11-.86,12.29-1.75,18.4-.33,2.23-.62,4.62.15,6.73C975.48,737.55,974.37,743.44,974.72,749.24Z"
            fill="#917c65" />
        <path
            d="M710,539.9c2.71-7.18,7.31-13.31,11-19.93,2.42-1.88,3.12-4.64,3.74-7.43h0c10.42-14.32,19-30,32.11-42.32l2.71-3.47c4-4.23,7.29-9.11,11.12-13.53l26.7-26.36c1.21-.42,2.42-2.44,3.64,0-1.14,6.66-6.74,10.42-10.79,14.79-2.65,2.86-5.52,5.55-7.71,8.86a14.7,14.7,0,0,1-2.51,2.35c-4.39,5.88-9.7,11-14,16.89a16.11,16.11,0,0,1-4.36,6.9c-3.9,8.32-10.86,14.57-15.19,22.6a11.19,11.19,0,0,0-4.94,6,10,10,0,0,0-3.61,7.83,3.42,3.42,0,0,1-.79,1.46c-4.79,3.12-5.84,8.54-8.13,13.21-2.13,1.38-3.17,3.92-5.41,5.19-4.05-.87-7,.08-8.3,4.52C714.53,539.88,713.07,542,710,539.9Z"
            fill="#2c211b" />
        <path
            d="M710,539.9c3.08.44,3.34-1.67,4.12-3.95,1.63-4.79,4.45-7.56,9.53-3.49,1.86,3.12-.08,5.81-1.17,8.46a44.13,44.13,0,0,0-2.65,7.29,21.59,21.59,0,0,0-4,8.88c-.34,1.38-1.15,2.9.55,3.85s2.68-.19,3.52-1.47a9.74,9.74,0,0,1,2.35-2.83c2.3-1.63,4.78-2.53,7.47-1,2.49,1.37,2.14,3.69,1.71,6a19.31,19.31,0,0,0,.1,8c1.26,5.17-1.33,8.75-4.36,12.17s-9.91,3.19-11.43-1.15c-2.58-7.36-7.25-9.17-14.18-7.82-.77.15-1.54-.49-2.22-1-1-1-1.53-2-.43-3.26C701.81,558.67,704.9,548.9,710,539.9Z"
            fill="#1d1613" />
        <path
            d="M698.91,568.52c.23.87,0,2,1.11,2.42,1.11,1.61,2.34,2.78,4.57,2,1.18-.43,2.51-.37,3.17,1,.82,1.65-.28,2.87-1.47,3.59-3.8,2.33-6.79,5.78-10.79,7.83-3.3.47-6.26,2-9.35,3.08a7.6,7.6,0,0,0-5,5.83c-.57,2.8-1.07,5.88,3.64,6.27,3.73.32,4.91,2.73,2.69,6.13-2.41,3.69-3.49,8.16-6.42,11.61-2.83-1.79-1.56-4.72-2.87-7.45-.6,2.66,1.58,5.42-1.31,7-1.88,1-3.59.35-5.35-.27-6.64-2.34-6.77-2.08-6,5,.18,1.71,2,2.7,1.33,4.49a7.92,7.92,0,0,1-6.15,1.49,4.43,4.43,0,0,1-2.43-2.77,9.28,9.28,0,0,1-.28-3.63,3.78,3.78,0,0,1,.85-2.24,3.72,3.72,0,0,0,.77-4.93c-1.07-2-2.88-1.91-4.75-1.5a5.72,5.72,0,0,1-3,0c-3.79-2.88,0-6.24-.6-9.33a2.16,2.16,0,0,1,1.92-1.49c.35.36,1.67-.08,2.06-.17,3.15-.81,3.3-3.73,4.35-6,4.87-2.44,11.2-2.66,13.25-9.37.48-1.57,2.89-.95,4.43-1.3,3.5-.8,7.3-1.12,9.37-4.78C691,577.1,696.06,573.91,698.91,568.52Z"
            fill="#5d4c40" />
        <path
            d="M798,604.31c3.88,2.58,7.64,5.64,12.79,3.18a1.3,1.3,0,0,1,1.19.06c9.08,8.53,23,5.57,32.13,13.24,3.74,3.13,8.73,2.41,12,5.77,1,1.49,1.15,2.91-.36,4.17-3.37.07-5.22-3.22-8.65-3.63-5.53-.65-10.82-1.42-16,1.56-1.61.93-3.9,1.18-5.35.07-4.28-3.31-10.14-2.92-14.29-6.73-2.85-2.63-6.89-2.41-10.61-1.78-7.32,1.23-12.33-2.12-13.94-9.45-3.68.66-2.5-2.43-3.38-4.12-1.73-3.35-2.88-5.92,2.67-5.76.13,0-.4-1.92.37-2.83C791.26,598.58,794.5,601.69,798,604.31Z"
            fill="#817161" />
        <path
            d="M672.88,759.46a13.16,13.16,0,0,0-6.4,8.31c-1.06,3.74-.15,5,2.65,6.34a139,139,0,0,0-28.63,2.16c-7.39,1.32-14.69.64-20.82-4.56,1-1.8,1.14-4,4.38-3.78,4.25.28,7.56-4.55,12.5-2.58,1.65.65,2.53-1.63,3.36-3a10.31,10.31,0,0,1,8.2-5.37c7.36-.77,14.69.25,22,.4A2.74,2.74,0,0,1,672.88,759.46Z"
            fill="#201f19" />
        <path
            d="M747.18,840.18c1,1.19-2.07,4.17,3,4.11,2.71,0,2.14,6.36-1,9-2.26,1.93-3.24,3.88-2.78,6.8,1.84.87,2.1-2.33,4.08-1.6-.16.52-.15,1.23-.5,1.54-3,2.64-5,5.14.06,7.78.65.35,1.35,2.15,1,2.57-3.49,4.9.94,8.26,2.62,11.77a58.55,58.55,0,0,0,4.47,6.77c1.33,2,.48,6-2,8.46-1.09,1.09-2.24,2.12-3.51,3.32,2.7,2.27,5.42-2,7.93.56.48.5,2.27-2.51,3.45-.38a4.43,4.43,0,0,1-.63,5.21c-2.23,2.35-2.86,4,1.11,4.94,1.9.44,2.33,2.08,2.41,3.86,0,1-.07,2.38.51,3,4.47,4.61,2.5,8.2-1.55,11.57-2.74-4.59-6.21-8.78-6.39-14.61-.07-2.1-.42-5-3.65-5.35-5-4.74-7.35-10-4.42-17,1-2.3,1.22-5.39-2.71-6.94-3.11-1.22-7-12.51-5.62-15.49,3-6.56,1.34-13,.19-19.54C742.55,846.31,746.66,843.92,747.18,840.18Z"
            fill="#383735" />
        <path
            d="M604.79,740.82c-2.43,2.38-4.56,4.18-8.76,3.09-4.9-1.26-5.5,4.05-7.43,7.06-2.75-5.59-6.36-10.32-12.51-12.49,3.67-.93,5.27-3.16,4.85-7.06a18.55,18.55,0,0,1,.5-7.25c.93-2.15,2.42-4.07,2.38-6.63a4.4,4.4,0,0,1,3-4.64,3.42,3.42,0,0,1,1.7.23c3.76,3.14,5.7,7.59,8.31,11.58-.12,2.92-1.64,6.68,4.26,4.33,3.46-1.37,6.31,2.29,4.78,5.84-.66,1.53-1.8,2.7-.7,4.41A1.57,1.57,0,0,1,604.79,740.82Z"
            fill="#514d49" />
        <path
            d="M626.83,630.13c-.11,6.11-4.22,10.42-6.92,15.36-1.07,2-2.54,3.69-2.71,6-6.39,11.06-10.38,23.26-17.14,34.17-2.07,2-5.24-5.69-8,.83-1.46,3.4-6,4-8,7.35-1.16,2-1.89,4.78-5,4.84,14.09-29.25,41.42-62.51,45.13-66.45C625,631.39,628.78,623.5,626.83,630.13Z"
            fill="#7b6b64" />
        <path
            d="M853.35,967.37c-4.41,6.17-3,13.42-3.71,21.33-2.43-4.79-3.69-8.64-3.24-13.34,1.5-15.53,1.5-31.2,4.63-46.57,1.39-6.83,2.66-13.68,4-20.52,1.68-.88,3.39-2.13,4.89.27,2.82,5.44,1.45,11.51-.64,16-4.84,10.41-3.76,21-3.88,31.73,0,1.78.59,3.69-.65,5.34S853.59,965.39,853.35,967.37Z"
            fill="#0e0d0d" />
        <path
            d="M957.56,758.2l-1.4,4.88c-.85,4.24-1.27,8.42,1.5,12.22.81,1.78,1.45,3.56-.14,5.27-2.43,5.55-.52,11.4-1.27,17-.38,2.9.78,6.83-3.79,7.79a4,4,0,0,1-2.1-5.24c3.56-8.42,1.16-16.95,1-24.92-1.39,3.43,1.27,8.57-3.7,11.41-.17-.56-.38-2-.83-1.24-1,1.77-1.23,4-1.77,6.05-4-.84-2.54-4.41-3.19-6.8a18.76,18.76,0,0,1-.4-10.11c1.14-2.2,4.08-3.41,3.62-6.53a95.77,95.77,0,0,0,3.37-19.13c.13-2.25.41-4.48,2.5-5.92,2.62-1,3.87.63,4.93,2.6C956.67,749.75,959.05,753.72,957.56,758.2Z"
            fill="#5e5043" />
        <path
            d="M765.62,930.59a7.45,7.45,0,0,0,1.81-.3c4.8-2.16,7.31-.81,9.85,4.09,1.37,2.65,2.5,6.59,6.18,8,.9.35.46,1.71-.18,2.09-5,3-2.81,9.2-5.8,13.16-.87,1.14.82,2.05,1.84,2.72-5.71,2-6.45-3.44-7.13-6.07-1.61-6.2-3-12-8.47-16.2-3.29-2.5-2.17-5.32.46-7.76A.87.87,0,0,1,765.62,930.59Z"
            fill="#383735" />
        <path
            d="M587.47,713.55c-2.12,1-3,2.81-2.28,4.87,1,2.89-.74,3.94-2.69,5.05-.87.91-1.91,2-3.14,1.62-4.49-1.37-6.16,1.79-8.05,4.71-1.83-3.42-1.46-7.21-.58-10.54a67.49,67.49,0,0,1,8.13-19.33c2.27,1.54,4.38,3.89,7.26.74.94-1,1.27-3.51,3.48-2.46,2,.94,1.51,3.07,1.58,4.85,0,.6,0,1.2,0,1.81-.05.26-.09.53-.13.8C589.39,708.08,588.54,710.86,587.47,713.55Z"
            fill="#3b2f2a" />
        <path
            d="M839.84,933.27c.78,10.61,1.55,21.23,2.33,31.93-1.53-.78-.55-3.29-3-3.53,0,8.15.3,16.43-.12,24.67-.23,4.6,1.81,9.88-2.78,13.66-1.75-5.83-3.13-11.5-2.34-17.89,1.61-13,.49-26.13-1.22-39.14l1.26-2.79c3-.2,1.68-2.69,2.16-4.2C836.72,934.13,836.82,931.72,839.84,933.27Z"
            fill="#0d0c0d" />
        <path
            d="M854.82,630.45c1.48-1,1.16-2.5,1.29-3.89,12.36,6.32,25.58,10.58,38.38,15.84.74.31,1.79.64,2.06,1.24,3.27,7.34,11.9,6.58,16.92,11.27.61.57,1.95.34,3,.49l.24,2.35-.46.72c-1.13,1-3.09,1.94-3.8,1-4.13-5.61-10.54-4.92-16.18-6.34-4.17-3.17-9.62-4.29-13.27-8.29-.25-.27-.25-1-.54-1-7.23-1.22-13-6.42-20.06-7.75A9.71,9.71,0,0,1,854.82,630.45Z"
            fill="#837465" />
        <path
            d="M999.59,790.25a1.8,1.8,0,0,0-.22,1.18c-1.08,7.55-2.3,15.07-5.22,22.43-2.51-.53-1.76-3.08-2.52-4.69-1.47-3.42-1.29-7-1.32-10.65.44-8.14-.49-16.25-1-24.34-.11-1.52-1.56-3.34-2.18-5.12-.85-2.43-1.7-4.87-2.56-7.3-1.08-4.46,1.69-3.53,4.05-2.79,1.82.58,2.14,2.84,3.66,3.84l2.45,7.58C998.74,776.41,1001,782.89,999.59,790.25Z"
            fill="#917c65" />
        <path
            d="M974.72,749.24c-2.83.22-1.86-1.79-2-3.3-2-16.65.06-33.22.85-49.81l.14.09c3.13-3.43,4.21,0,5.84,1.73-1.09,6.81-.63,13.7-.94,20.55C978.31,728.88,980.07,739.51,974.72,749.24Z"
            fill="#947e68" />
        <path
            d="M971.46,829.05q0-4.2,0-8.39c-1.55-2.47-.81-5.18-.82-7.82.48-3.37,3-5.58,4.62-8.35l.32-2.12c3.41-5.18,3.52-11.66,6.46-17.17,3.05,4.36,2.53,8.61,1.25,13.27-2,7.14-4,14.31-4.14,21.85-2.19-.48-.57-2.83-2.73-3.78-1,8.68.75,16.92,2.87,25.14a4.69,4.69,0,0,1,.22,3.67c-3.53.45-3-3.19-4.64-4.62-1.22-3.75,0-7.79-1.34-11.63.32,2.44,1.5,5-1.81,6.31a1.14,1.14,0,0,1-1.46-.95A7.56,7.56,0,0,1,971.46,829.05Z"
            fill="#5e5043" />
        <path
            d="M651.84,613.09c7.06-2.76,10.18-1.22,10,4.43,0,2.41-3,2-2.63,4.12-2.22.5-2.6,5.16-5.25,3.32-3.38-2.34-.07,1.42-1,.89a10.32,10.32,0,0,1-2,5.78c-1.48.86-2.23,0-2.87-1.2-1.29-3.81-5.53-3.65-8-6-3.92-3.63-5.8,1.28-8.57,2.59-.55.26-1.49-.29-2.26-.46-.07-2.13,1.36-3.48,2.55-5,5.12-2.28,9.58-6.31,15.5-6.4C649.38,615.22,649.67,612.32,651.84,613.09Z"
            fill="#45382e" />
        <path
            d="M942.52,861.16c-4.8,1.45-3.55-2.7-4.48-4.85-.49-18.22,4.78-35.9,5-54,1.21-1.61-1.47-4.71,2.07-5.41,1,3.76-1.37,8,1.57,11.48"
            fill="#392e26" />
        <path
            d="M756.86,470.21c-1.75,4.88-5.45,8.47-8.88,11.93s-5.41,7.22-7.67,11.23a48.87,48.87,0,0,1-9.2,11.63c-2.49,2.31-2.05,7-6.36,7.53-.81-6.58,6.27-8.95,7.68-14.38.18-.7,1.5-1.2,1.52-1.83.32-7.72,8.24-10.16,11.07-16.17C747.38,475.14,751.86,472.27,756.86,470.21Z"
            fill="#2c211b" />
        <path
            d="M651.84,613.09a8.71,8.71,0,0,1-6.47,4c-4.87.42-8.31,5.2-13.56,4.51a5,5,0,0,1,.16-1.14c2.38-8,9.49-11.75,15.25-16.66a3.36,3.36,0,0,1,4.48.35C654.89,607.11,649.5,610.16,651.84,613.09Z"
            fill="#6c5e53" />
        <path
            d="M651.7,604.19c-7.91,1.42-11.14,8.23-15.93,13.85-.89,1.06-8.14,11-8.94,12.09-3.47,2.26,6.13-14.58,7.94-16.71,5.28-6.25,11.31-10.64,18.3-15.17,3.66-2.38,6.94-3.22,10.87-4.87,3-1.28,4.29-1.86,7.08-5.57,1.24-1.66,4-2.45,6.28-3a30.27,30.27,0,0,0,9.28-3.81c-.54,5.57-5.74,4.2-8.86,5.91-1.5.82-3.87-.29-4.85,1.92-2.62,5.9-8.13,7-13.55,8.28-2.7,1.38-4.42,3.82-6.46,5.91Z"
            fill="#6c5e53" />
        <path
            d="M571.31,729.8c.19-5.06,1.52-8.49,7.69-5.89.94.4,2.32-.27,3.5-.44,0,3.5-.15,7,0,10.49.28,5.16-1.55,6.94-6.45,4.52A13.05,13.05,0,0,1,571.31,729.8Z"
            fill="#16110e" />
        <path
            d="M994.31,727.28c1.07,6.1-3.13,10.83-4.27,16.36-.57,2.78-1.85,5.41-1.74,8.34-4.4.18-3.94-4.63-6.49-6.35q1.5-5.37,3-10.73c2.3-2.09,4.84-3.88,5.85-7.19C991.22,725.89,992.74,724.39,994.31,727.28Z"
            fill="#947e68" />
        <path
            d="M976.48,775c.56-7.11,1.11-14.21,1.72-21.93.94,1.82,1.61,3.15,2.29,4.47-1.36,7.75,2.8,14.11,5.23,20.91-2,.36-2.53-1.46-3.66-2.45-2-1.74-3.55-1.56-4,1.39Z"
            fill="#917c65" />
        <path
            d="M800.52,427.25c-.87-1.5-2.09-.25-3.13-.4,6.79-6.6,13.35-13.47,21.49-18.5.28,3.85-3.79,4.27-5.54,6.92,2.73.34,4.11-1.58,5.91-2.63,1.12-.65,2.87-2.53,3.46.64-.05.52-.1,1-.16,1.56a12.27,12.27,0,0,1-7.36,3.94c-5.63.48-9.31,2.45-9.94,8.45A8.19,8.19,0,0,1,800.52,427.25Z"
            fill="#36302b" />
        <path
            d="M959.52,846a6.37,6.37,0,0,0-1.24-4.79c.46-2.93,3.07-4.85,3.64-7.73q1.43-4.86,2.84-9.71c2.32,0,1.43,1.39,1.13,2.54a202.71,202.71,0,0,0-1.56,26.11c-2.4-1.45-1.79-5-4.7-5.41A1.13,1.13,0,0,0,959.52,846Z"
            fill="#392e26" />
        <path
            d="M765.62,930.59l-1.44-.24c0-.41-.06-.82-.08-1.23-.24-4.13-8-4-6-7.3,2.6-4.44-2.65-7-.76-10.59.14-.26-.93-1.16-1.44-1.77,5.12-2.44,2.94,4.14,5.69,4.63-2.35,5.44,2.84,8.56,4,12.93.2.78.26,1.6.39,2.4A11.71,11.71,0,0,0,765.62,930.59Z"
            fill="#383735" />
        <path
            d="M877.91,970.24c-3.46,1.83-4.19,5.26-5,8.63-1.63-3.11-3.54-6.11-3.68-9.79,3.39-2.31.1-6.45,2.47-9,.16,2.58.31,5.16.51,8.32C875.39,966,878.51,964,877.91,970.24Z"
            fill="#0e0d0d" />
        <path
            d="M857.28,971.67c.27-2.17.54-4.33,1-8.34,2.52,6.22,4.13,10.74,3.94,15.76-.65.86-.21,2.81-1.7,2.63-2.09-.25-.55-2.79-1.8-3.77h0A6.78,6.78,0,0,1,857.28,971.67Z"
            fill="#0e0d0d" />
        <path
            d="M780.68,958.15c1.89-1.74,4.49-.6,5.26,2.45.25,1-1,2.83,1,2.67,1.44-.11.65-2.09,1.16-3.13,1.55,3,3.62,6,.16,9.2C783.59,967,784.77,960.77,780.68,958.15Z"
            fill="#202020" />
        <path
            d="M985.65,707.55c2.35,1.52,3.18,3.37,2.06,6.21-1.47,3.73-2.57,7.61-3.91,11.68-1.79-3.8,1.3-7,.43-10.45C985.22,712.61,983.25,709.66,985.65,707.55Z"
            fill="#947e68" />
        <path
            d="M770.69,453.21c-1.83,6.06-5.88,10.28-11.12,13.53C762.58,461.66,764.78,455.9,770.69,453.21Z"
            fill="#2c211b" />
        <path
            d="M806.38,955.23c.46-3.42,2.21-6.19,4.89-9.94-1.61,5.8-1.42,10.7-3.43,15.13C807.12,958.76,808.82,956.41,806.38,955.23Z"
            fill="#202020" />
        <path
            d="M724.75,512.54c2.09,4.16-.24,6.09-3.74,7.43C721.61,517.17,722.15,514.33,724.75,512.54Z"
            fill="#2c211b" />
        <path
            d="M747.11,752c-5.18-2.45-10.35-5.05-15.33.44-1.23,1.35-2.65.1-4,.07-.89,0-1.77.79-2.71,1.07-2.92.85-5.2,2-6.81,5.1-.61,1.18-3.87-3.83-7-1.66-3.77-2.59-2.61-5.3.48-7s2.86-3.3,1.27-5.71a8.75,8.75,0,0,1-1.53-7.46c4.31-2.85,7.56-7.74,13.67-7.09.57.06,1.53.55,1.63,0,1.14-6.53,5.33-1.69,8.28-2.64.2-1.75-1.45-4.75,1.28-5.88,2.08-.86,3.61,1.45,5,2.84a52.65,52.65,0,0,0,7.85,6.18c-2.12-4.07-2.85-7.73-.53-11.42a5.45,5.45,0,0,0,.56-4.19c-.71-3.15.36-4.33,3.55-3.33a6.36,6.36,0,0,0,5.36-.36c5.53-3.14,8.9-2.22,12.44,3.13,1.47,2.23,2,4.95,4.16,7.67,1.32-4.34-1.21-7.34-2-10.64-.5-2-2.57-4.47.27-6.05,2.21-1.24,3.71,1,5.23,2.28s2.41,2.87,4,3.83c1.91,1.14,2.76.79,5.12-.78,5.45-3.6,3.42-11,8.77-13.91,4.48-2.63,8.66-6,14.24-6.05,5.6-.34,11.25-.86,15.93,3.29.75,1,1.48,2,2.26,2.9.94,1.14,2,2.34.77,3.78-1,1.16-2.25.41-3.39,0-6.44-2.49-13.71,2.63-13.77,5.44-.13,6.4-5,10.63-5.31,14.92-.38,4.9-2.56,5.87-5.13,7.52-3.65,2.34-5.69,5.13-5.18,9.62.14,1.28.61,3.22-1.35,3.58-1.35.24-2-1.22-2.55-2.3-.1-.18-.18-.44-.34-.51-2.77-1.22-.66-7.85-5.08-5.83-2.21,1-4.67,5.12-4.51,9,0,1.05-.07,2.74-1.16,2.21-5.16-2.53-6.23,3.57-9.74,4.32-5.15.76-10.17-.39-15.13-1.39S748.56,746.9,747.11,752Z"
            fill="#242121" />
        <path
            d="M728.61,778c-5.45-.64-10.18-3-14.66-6-2.82-1.92-4.05-3.14,0-5.47,6.13-3.51,12.77-4.82,19.48-6.24,2.11-.45,4.55-.25,6.26-2.06,5.81-1.88,11.78-3.19,17.61-5.11,4.4-1.46,10.07-.26,14.74,2.3,4,2.21,8.12,5.45,12.22,0a2.43,2.43,0,0,1,2.23-.63c4.41,1.89,5.52-.07,5.22-4.13-.1-1.37-.25-3.21,1.85-3.24,1.81,0,1.89,1.64,2.43,3,3.35,8.56-.84,18.49,4.92,26.6.86,1.21.08,2.52-1.11,3.1-3,1.48-3.48,3.54-2.24,6.58.8,2,0,3.57-2.53,3.91a5.49,5.49,0,0,0-2.62,1.41c-1.38,1.21,0,5.19-3.11,4.27s-6.69-2.45-7.25-6c-.88-5.68-4.6-6.89-8.89-5.81-6.09,1.53-10.92-1.62-15.27-4.17-4-2.33-6.26-1.87-9.18.58-1.57,1.32-2.87,3.32-4.39-.35-1.2-2.93-3.93-4.13-7.16-3C734.36,778.44,731.47,777.89,728.61,778Z"
            fill="#070403" />
        <path
            d="M906.78,697.44l-1.22,0c-2.3-.74-4.24-2.26-6.79-2.6-3.84-.53-6.64-2.24-5.55-7,.54-2.34-.72-4-2.74-5a43.4,43.4,0,0,1-11.32-8.43c-2.48-2.44-6-2.45-9.29-2.65-3.69-.22-7.4.08-11.09-.18-1.43-.1-3.07-.16-3.8-1.62-1.21-2.42-5.24-5.92-7.4-5.63-4,.54-6.51,3.32-8.39,6.62-3.62,6.34-4.65,6.82-11.72,4.79a5.35,5.35,0,0,0-3.49-.32c2.21,2.43,5.24,2.58,7.57,4,1.41.82,3.11,1.63,2.54,3.7-.49,1.75-2.15,1.53-3.57,1.73-5.66.77-11.38,1.15-16.81,3.15-3.2,1.17-6.53.1-9.8.27-2.45-.34-5.3-.47-5.51-3.7s2.17-4,4.93-4c1.43,0,2.35-.65,2.37-2.17s-.05-3.12-1.56-4.39c-4.83-4.09-4.76-5.09.5-8.28a16.07,16.07,0,0,0,4.6-3.84c-3.91,2.51-5.16-6.46-10-1.89,2.25,2.29,5.84.35,7.41,3.54-1.64,2.52-4.64,2-7,2.93-6,.69-11.47-.19-15.45-5.34,1.28-3.46,1.28-3.46,5.74-4.13-6.1-.43-11.46-3.93-17.64-4.06-5.73-2.53-5.82-2.8-2.39-6.86,2.73-1.29,5.79-1.32,8.77-2.06-1-1.27-2.47-1.67-3.5-2.67-1.63-1.59-3.37-3.2-2.84-5.76s2.89-2.55,4.82-3.08c2.15-.58,4.46-.85,5.94-2.84a5.81,5.81,0,0,1,1.25-1.07c2.12-.66,3.55-2.27,5.08-3.75,4.36-2.09,10.93-3.13,12.76,0,3.56,6.07,9.06,3.89,13.43,5.83a27.55,27.55,0,0,0,9.64,1.89A35.93,35.93,0,0,1,846,640.69a6.17,6.17,0,0,0,3.43,1.16c8.54,1,16.17,4.46,23.6,8.51a5.16,5.16,0,0,1,2.7,2.41c2,5.17,6,8.25,11,10.24.76.3,1.93.73,2,1.33.78,5.77,5.92,4.86,9.47,6.3,1.93.78,4,1.25,4.86,3.44a3.83,3.83,0,0,0,3.76,2.63c2.82.1,6.47,1.18,5.88,3.95-.66,3.09-4.41,1.37-6.62,1.46,4.62,1.76,6.28,5.64,5.8,10.41,5.09-.11,8.06,4.84,12.8,5.53,1,.15.81,1.53.37,2.64-2.28,5.82-1.24,7.73,4.82,9.61,1.87.58,4.5.62,4.55,3.33,0,2.2-2.06,2.16-3.44,2.4,2.42.43,5.54,1.08,2.45,4.45-2,2.14-1.75,3.2-.47,5.59,1.84,3.42,1.09,7-2.74,9-7.69,3.91-7.77,4-2.83,11.18.85,6-1.37,11.74-1.56,17.66,0,1.65-.32,1.71,1.84,2.25,2.8.72,2.69,5.07,3,8.12.45,3.89-1.21,7.74-.23,11.65a72.69,72.69,0,0,1,.41,9.09c0,3.41,1.49,6.66,1.15,10.11-.09,2.76-.19,5.51-2.4,7.6-3,.85-2.94-1.78-3.85-3.32-.68-2-.59-4.28-2-6.08-1.86-8.46-3-17.12-7.76-24.68,0-5.27-.44-10.57,1-15.69-2.15-1.31-3.82-.11-5.48.48-2.79,1-4.79,0-6.55-2.08s-2.13-4-.75-6.26c2.3-3.72,2.33-8.38,5-11.94,1-1.29.47-2.65.11-4.11-1.43-5.7,0-8.68,5.6-9.1,4.34-.32,1.48-5.78,5.24-5.6,0-1.92-.39-4-1.94-5-7.31-4.63-8.36-12.41-10.31-19.77A4.3,4.3,0,0,0,906.78,697.44Z"
            fill="#392e26" />
        <path
            d="M906.78,697.44c.7.36,2,.79,2,1.08-.6,6,5.79,9.37,5.43,15.24-.05.86.88,2.56,1.32,2.55,6.77-.15,4.7,7,8.41,9.17-1.65,2.63-3.8-.64-5.24,1.3-.57,2,2.77,2.48,1.81,4.68-1.87-.15-4-.77-5.81-.34-3.44.81-6.72,2.77-4.18,6.85,2,3.15,1.09,4.81-.83,7.33-2.59,3.38-1.84,8.28-4.92,11.74-1.24,1.39.77,2.92,1.88,4.08s2.41,2.49,4.2,1c2.61-2.15,5.7-1.26,9.91-2.21-4.59,6.1-2.14,12.35-4.07,17.89,2.56,8.54,5,17.08,4.82,26.14-2,4.24-1.51,9-2.77,13.4a4.3,4.3,0,0,1-3.21,2.07c-3.43-.91-3.32-4.32-4.7-6.69a7.15,7.15,0,0,1,.25-4.52c4.65-3.1,3.46-6.33.37-10.58-1.05,3.37.92,5.72-.09,8.11-1.25,1.74-.22,4.34-2.2,5.8-5.57-2,.77-6.12-2-9.14a30,30,0,0,1-2.58,3.15c-1.43,1.34-3,1.12-4.41-.15-1.72-1.52-2.64-3.21-1-5.35,2.26-3,1.79-6-.08-9.71,4.78,1.79,6.67,1.85,5.8-4.37-.6-4.31.69-8.06-4.86-9.34-.52-.12-1.14-1.34-1.13-2,.2-9.22.38-18.45.9-27.65.08-1.28,2.5-2.29,2.92-3.7.9-3,2.48-6.19,0-9.39-3-3.89-.57-5.29,3-6.15a27.15,27.15,0,0,0,6.39-2.07c3.9-2.09,1.65-5.95.89-8.17-1-2.87-3.13-.84-4.52.89-.9,1.14-2,1.3-3-.1-1.43-2-3.47-4-1.88-6.63C906.27,707.2,906,702.21,906.78,697.44Z"
            fill="#29201b" />
        <path
            d="M804,687.51c9.84-.41,19-5,29.71-4.13-2.33-3.79-6.08-3.26-8.72-4.78-1.82-1.06-4.8-2.21-3.7-4.74s3.69-.66,5.46,0c5.08,1.94,9.34,3.71,11.13-4.37.75-3.39,5.28-5.5,8.67-7.49.34-.2,1-.43,1.13-.3,3.79,5,10.11,2.49,15.3,4.47-2.31,2.64-5.5.23-7.44,3.3,4,1.29,8,.48,11.82.63,5.82.21,11.51-.05,15.49,5.81,1.59,2.34,4.79,3.88,7.56,5.06,4.06,1.72,6.22,3.82,4,8.37-1.61,3.33,1.66,3.53,3.13,3.86a15.17,15.17,0,0,1,8,4.21c-2.81-.43-5.61-1-8.44-1.22a6,6,0,0,1-4.57-2.68c-4.83-10.3-13.66-5.71-21.12-6-3.48-.14-6.64.32-8.81-3.78s-8-2.93-11.33.33a14.53,14.53,0,0,1-13.41,4.11c-2.45-.55-5.29-3.31-4.4,2.4.32,2-1.67,1.93-3.13,1.35-2-.79-3.65-1.05-4,1.77-5.22-1.65-10.68-1.79-16.05-2.49a7.67,7.67,0,0,1-6-2.89Z"
            fill="#29201b" />
        <path d="M846,925.38l-1.7,3.32c-3.65-7.11-1.68-14.45-1.6-21.64l5.94,2.45Z" fill="#0d0c0d" />
        <path
            d="M885.6,695.36c-.13,2-1.16,3.24-3,3.09a4.29,4.29,0,0,1-4-3.9c-.25-1.79,1.36-2.61,2.73-2.56C883.35,692.05,885.16,693,885.6,695.36Z"
            fill="#0d0c0d" />
        <path
            d="M849.94,899.73l-.32,3.57c-2.26-.36-4.06-1.47-3-3.91C847.35,897.75,848.93,898.44,849.94,899.73Z"
            fill="#0d0c0d" />
        <path
            d="M926.8,745.83c-.62-1.18-7.16,2.85-2.58-2.93l-3.88-2.36c-.6-2.33,7.32-1.66,2-5.91-.53-.43,1.84-1.43,2.82-1,3.38,1.59,6.09.37,6.89-2.68.91-3.48-.29-6.76-6.88-6.81,4.2-2.14,6.8-3.34,8.18-6-2-2-4.84,0-6.92-1.42,1.39-3,5-1,7.31-3.52-2.36-.76-4.34-1.71-6.42-2-2.72-.38-6.25.45-4-4.38.11-.23-.23-.74-.44-1.06-2.71-4.1-2.71-4.09,2.16-6.22-2.05-.82-3.86-2.28-5.12-1.9-4.51,1.32-4.81-6.28-9.4-4.12a4.3,4.3,0,0,0,.3-1.6c-1.44-6.44-1.46-6.44-7.87-10.09a13.18,13.18,0,0,1,8.81-1c-1.31-1.49-2.42-3.59-4.63-2.77-3.8,1.39-4.28-.28-5.8-3.53-1.71-3.65-7-3.2-10.78-4.42-1.67-.55-3.67.53-5.26-.93-.08-2.51,3.09-.77,3.4-3.33a47.12,47.12,0,0,1-15.62-13.23c-3.66-4.58-12-8-19.44-8.49-2.6-.18-5.06-2.16-7.81-.7-.31.17-1,.18-1.15,0-5.42-9-14.86-8.84-23.53-10-5.69-.75-11.22-5.1-17.26-.7.24-6.91-2.47-9.15-9.24-8.14l-5.44.84c-2.53,0-3.43,2.26-5,3.67h0a2.23,2.23,0,0,1-3.25-.09c-3.18-3.48-7-3.39-11-2.28-3.09-.32-6.8,0-5.51-5.07,2-2.31,4.06-.66,6.19-.27,1.7.31,3.87,1,4.69-1.47a4.3,4.3,0,0,0-.8-4.61c-1.51-1.49-2.69-.7-4.24.34-2.46,1.65-4.77,2-6.18-1.8-1.58-4.21,1.06-3.41,3.53-3.94a10.4,10.4,0,0,0,6.25-4.43c-1.72-2.3-3.15,2-4.84,0,.64-3.51,8-1.76,5.86-7.42-.94-2.5-2.52-2.23-4.35-1.12-3.33-4.57-2.58-6.08-1.81-9a11.33,11.33,0,0,1,2.51-4.45c1.54-.37,5.7,1.56,4.48,7.23-.48,2.23,3,2.65,4.77,3.68,2.11,1.2,4.21,2.42,6.31,3.64,1.15,3.07,1,3.64-1.51,3.58-1.43,0-1.91.49-2,1.47a3,3,0,0,0,.82,2.09c1.85,1.89,2,2.5.74,4.18,2.12,1,4.09-1.65,6.33-.32-.81,2.15-3.39,1.41-4.6,3.36,2,3,6.88,2.75,8.22,6.88.4,1.24,2.29.63,3.77-.05a14.41,14.41,0,0,1,13.87,1.14c8.21,5,16.09,9.54,26,4.11,3.46-1.89,14.69,2.7,16.35,5.89,3.11-.85,4,2.46,6.18,3.52,5.16,2.56,11.84,1.9,15.7,6.36,2.22,2.55,3.55,2.35,6.18,1.65,4.22-1.13-.52,2,1.19,2.84,4.38,2,8.56,4.45,12.82,6.72,1,2.81,4.27,4.44,4.11,7.91-.1,2,1.31.52,1.85.56,1.85.14,3.68.33,5.5.64a13.4,13.4,0,0,1,2.81,1.12c3.45,1.43-3.33,3,.19,4.58,1.92.85,4.64.76,5.4,3.49a46.88,46.88,0,0,1,1.72,6.44c.38,2.74,2.82,3.83,5.32,4.47,1.89.48,4.08.31,5.47,2.31-1.47,2.49-4.15.4-5.27,2,1.23.2,3.48-1.88,4.36,1.4.16.6-2.08,1.21,0,1.35,3.42.23,5.75.65,3.5,5.11s3.31,6,4.06,9.43c-.49.91-.74,1.76.58,2.21,3.95,2.13,6.22,4.82,3,9.29a44,44,0,0,0,1.47,8.42c1.26,5.71,1.67,11.16-1.29,16.58-2.45,4.47-1.66,10-4.41,14.46a13.84,13.84,0,0,0-7.42,1.46C924.58,752.11,929.08,748.57,926.8,745.83Z"
            fill="#5e5043" />
        <path
            d="M716.14,722.17l-3.92-2.42c-.49,2.68-.91,5-1.34,7.36-4.62-4.72-4.6-4.91.36-8.91a2.55,2.55,0,0,0,1-1.42c.51-5,.57-5.17,4.13-6.31-2.24-1.64-4.68-2.87-7.4-1.62-2.88,1.32-5.74-1.12-6.37-2-2.93-4.25-10.26-3.28-11.07-10a3.24,3.24,0,0,0-5.3-2.06c-2.36,1.83-4.11.73-5.24-.89-1.73-2.45,2.19-3.31,2.2-5.9s2.52-.6,3.89-.47c2.35.23,3.79,3.31,6.77,2,1.39-.61,3.49,0,3.56-2.41s-2.39-1.77-3.52-2.74c-1.58-1.36-5.44,2.47-5.11-1.62.27-3.35,3.92-1.31,6-1.83,2.29-.55,5.53.18,6.72-3.24.89-2.55,3.4-.05,5.06-1.32-.24-2.41-3.17-1.84-4.33-3.38,3.26-1,6,.15,8.74.86a4.56,4.56,0,0,1,5.38-1.82c5.65,1.65,11.33,3.2,17.05,6.85-1.5-2.25-4.25-3.32-2.48-6,1.29-2,3-1.82,4.86-1.38.62.15,1.35,1.19,1.52-.88.24-3,3.71-4.24,5.53-2.76,2,1.63,4.89,3.63,4.11,7.52-1.22,6-1,6.08,6.19,6.63-.74-3.85-2.88-9,5.06-7.1-1.76-2.83-4.36-3.5-5.92-5.35-.92-1.09-2.26-2.07-1.07-3.7a2.39,2.39,0,0,1,3.76-.54c2.71,2.38,5.37,2.45,9,1.92,3.28-.48,5.95,3.17,8.7,5.22,1.32,1-2.47,7.21-4.74,8.2,6.75-1.65,12.63,3.85,19.55,2a3.44,3.44,0,0,1,4.42,3.78c-1.29,1.32-2.93,1.25-4.6,1.26-.43,0-1.44-1.14-1.42.61.09,6.53-4.09,4.25-7.69,3.85-4.8-.53-9.56-2.77-14.55.06-2.24,1.27-3.5-.1-4.42-3.69-2.88,1.28-.34,5.74-3.55,6.45-2.49.55-4.79-1-7.3-1.78,3.57,2.09,8.43,3.42,6.67,9.14-.57,1.85-2.11,3.38-4.16,3-2.65-.44-2.26-2.4-1.89-3.1-.3,3.74-1.51,5.63-6.82,2-4.2-2.9-5.38,2.88-8.06,4.94,2.8,1,6.19-.28,7.28,3.38.65,2.19-.66,3.46-2.2,4.65-4.25,3.26-7.56,1.34-10-2.38-1.87,1.39-1.34,2.72-1.46,3.89-.17,1.51.77,3.71-1.64,4s-3.12-1.58-3.64-3.47a18.61,18.61,0,0,1-.39-2.43c-5.43-2.41-5.44-2.41-5.1,4A2.56,2.56,0,0,1,716.14,722.17Z"
            fill="#64554b" />
        <path
            d="M716.14,722.17c0-.39,0-.79.05-1.18a2,2,0,0,1,2.26-.49c.37.21.54.9.59.9.86.07.11-.4.09-.52a5.21,5.21,0,0,1,2.07-5.33,2,2,0,0,1,2.38.48c.32,2.06-.71,4.68,2.23,5.71,1.23-.9.19-1.9.3-2.8.28-2.36-1.22-5.69,1.41-6.77,2.33-.95,3.57,2.1,4.73,3.92.92,1.43,1.85,2.19,3.48,1.24s4.08-1.23,4.79-3.51c.36-1.14-.62-1.89-1.34-2.6a1.54,1.54,0,0,0-2.59.1c-.88,1.13-1.64,2.74-3.31,1.08a4,4,0,0,1-.71-4.63c1.6-3.06,5.47-4.07,7-7.38.36-.75,1.84-.09,2.53.87,1.18,1.66,2.31,3.39,4.34,4.17,2.6-.87-.23-3.61,1.71-4.72.83-.47,1.39-1.86,2.53-1.15s1.72,1.75-.32,2.4c-1,.33-.83,1.38-.3,2s1.5.46,2.16-.1c1.1-.93,2.48-2,2-3.54-.58-2.1-1.41-4.18-4.06-4.74-5.21-1.12-3.58-3.63-.47-7-1.18,6.23,4,3.45,6.23,6.82.35-4.06-1.54-7.84,3.24-8.51,1.32-.18,2.63-.56,3.16.83.76,2-2.33,1-2.43,3.28,1.81-.7,4.42,2.27,4.88-2.07.11-1,1.31-1.62,1.73-1.2,3.45,3.39,8.23.12,12.1,2.81,3.42,2.38,5.41,1.12,5.64-3,.11-2.08,1.2-1.19,1.84-1.25,1.84-.16,3.7-.09,5.56-.11,2.24-3.11.14-4-2.38-4.35-3.37-.43-5.58-1.31-5.86-5.47s1.53-5.45,4.72-7.34c3.89-2.32,8.27-1.87,12.1-3.69,1-2.11,3.43-.76,5-2-1.43-1.21-3-.44-4.49-.63s-3.17.56-3.63-2.08,1.15-3.23,2.9-3.83c2.7-.93,3.29.27,5.54,2.66,1.33,1.41,4.77.82,8.41,1.27l-13.68,9.66c4.48,2,8.49,3.8,7,9.25-.42,1.61-.44,3.41-2.9,2.81-1.9-.47-4.36-1.92-5,1.2-.71,3.43,3.15,2.39,4.55,3.86h0c1.41,2.4-.26,2.76-2,2.87-2.21.13-4.42-.31-6.74-.2-.47,2.68,3.56,4.41,1.33,7.23-2.76,3.41-6.34,6.7-1.38,10.71-1.5,2.36-2.85,1.23-4.14.85s-2.47-.35-2.92,1.24,2.07,4.63-.49,4.64a9.69,9.69,0,0,1-7.92-3.6c-1.71-2.29-3.55-4.8-7.21-6,1,5.6,4.6,9.71,4.35,14.94-.07,1.52,1.26,3.47-1.13,4.13-2.55.7-3.12-1.57-3.69-3.23-1.57-4.56-3.11-9.07-8.17-10.95-1-.37-2.26-1.68-3.09.12-2.65,5.65-6.57,3.06-10.32,1.72,2.85,6.69-6.57,13.9,1.73,20.46-7.06-1.63-10.76-6.71-15.52-10.48-1.88,2.67.4,5.1.38,7.62-3.26-.76-6.06-2.45-9.18-1.23a32.43,32.43,0,0,0,.95,3.63c-3.56,0-8.53-4.54-9.92,2.94-.17.91-5.15-1.59-6.5,2.13-2.38,2-5.1,2-7.92,1.33-4.52-3.59-5-7.22-2-13.72,1.24.68,2.49,1.33,3.71,2,1.52.89-.1,5,4.22,3.39A8.24,8.24,0,0,0,716.1,724,6.9,6.9,0,0,0,716.14,722.17Z"
            fill="#453f3c" />
        <path
            d="M695.17,584.49l12.39-10.09c-3-.81-7.38,1.64-7.54-3.46,2.91,2.61,5.72-1.43,9.53.25s6,3.21,6.46,6.66c.52,3.62,2.87,3.73,5.46,4.63,3.07,1.06,3.86-.73,5.26-2.62,2.33-3.12,4.5-6,3.17-10.34a19.42,19.42,0,0,1-.46-7.3c.19-2.18,3-5-1.05-5.9-3.18-.71-6.31.51-7.14,4.19-1,4.2-3.65,3.15-6.15,2.3-3-1-3-2.91-1.19-5.23,2.12-2.72.34-7.56,4.82-9.05,3.39-.19,6-2.52,9.2-3.32,5-1.26,8.09.49,7.69,5.46A18,18,0,0,0,740,564.3c3.49,4.22-.14,6.67-2.17,9.63,2.74-.91,4.37-4.82,8.1-3.23,1,2.61-.46,4.52-2.24,5.87-2.49,1.9-4.25,4.41-6.35,6.63a9.47,9.47,0,0,0-2.63,8.8c0,8.94-5.23,12.76-16.42,12.06a11.3,11.3,0,0,0-2.4-.34c2.68,4.9,2.27,10.3,3.38,15.31,2.58,11.56-9.79,18.11-19.53,16.46-2.92-.5-5.66-.8-8.4.54a2.75,2.75,0,0,1-3.1-1.28c-1-2.2-.56-4.63-2-6.94-2.26-3.72,1.32-9.28,5.71-9.08,3.16.14,6.59.2,9.42,2.55a1.08,1.08,0,0,0-.77-1c-10.81-2.76-8.4-12.86-10.16-20-.65-2.67.73-6.44-.32-10.09C689.51,587.72,691.61,584.71,695.17,584.49Z"
            fill="#2a211b" />
        <path
            d="M800.31,665.33c-3.67,3.48-8.75,4.09-13.14,5.78-4.78,1.84-.77,4.43-1.71,6.45-1.23,2.65,1.12,2.25,2.69,2.43a28.34,28.34,0,0,1,4.78.87c1.41.43,2.59,1.3,2.42,3.1-.22,2.39-2,2.26-3.62,2.22-2.68-4-6.64-2.14-10.15-2.14-2.17,0-5.53,3.72-5.79-2a49,49,0,0,0-5.15-.17c-2.13,0-4.25,0-7.18,0,2-2.75,4.38-1.08,6.32-2.34-5-4.17-.28-4.34,3.42-5.56-3.1-2.08-6.56-2.31-7.84-5.31a1.77,1.77,0,0,0-.94-.65c-4.93,4.9-8.44-.29-12.51-2.26,1.42,3.28,3.8,4.88,6.37,6.36,1.22.7,3.85.83,2.56,3.19a3.79,3.79,0,0,1-4.29,1.69c-1-.26-1.88-2.29-2.88-.39A2.34,2.34,0,0,0,755.1,680c1.49.55,2.08,1.68.72,2.69-3.07,2.27-6.52,1.29-9.3-.31-2.13-1.22-3.66-3.65-1.72-6.59.54-.82,1.69-3,1-2.78-4.37,1.67-1.25-5.85-5.7-4.2-4.25,1.58-.19,2.52-.11,3.75-1.16,1.45-2.71-.25-4,.5s-3.54-2.59-4.29.82c-.83,3.76,2.49,1,2.74,1.54.78,1.71-.91,3.75.39,6.11-3.89-4.53-10.18-3.39-14.37-7.29-.74-.69-6.16-3.19-9.44-.43.65-4.92-1.61-8.06-6-9.87-1.85-3.14.52-4.64,2.38-6.45,1.48-1.42,4.29-1.81,3.91-4.76l-.06-1.24c2-3,5.12-1.81,7.79-2.09,1.8-.19,3.61.08,5.47-.33,4.77-1,5.59-.08,4.08,4.41-.25.73-1.06,1.32-.9,2.18a1.63,1.63,0,0,0,1.25,1.26c1.54.17.31-.87.39-1.28.36-2,1.93-3.55,2.38-5.59.35-1.62,2.34-2.7,3.3-1.91,4.65,3.88,10.34-.88,15.1,2.21,2.19,1.43,4.2-.48,6-1.93,5.54-4.46,8.26-4,11.73,2.51,2,3.81,4.93,5.21,9,4.45,3.52,0,3.86,5,7.51,4.72C788.94,664.16,794.35,665.59,800.31,665.33Z"
            fill="#816a59" />
        <path
            d="M596.16,724.7a33.79,33.79,0,0,1-7.38-11.11,4.1,4.1,0,0,1,.78-2.34c2.25-2.2,4.54-4.39,5.43-7.57,3.81,1,5.5-3.06,8.64-3.68,1.78-1.66,3-.1,4.21.84a7.59,7.59,0,0,0,9.17.25c2.4-1.53.72-4.49.29-6.83-.5-2.71-1.72-5.65,2.35-6.76h0c1.86,2.5,3.27,5.86,7.44,3.76,3.19-.62,6.18-1.89,9.64-.22,2.17,1.05,4.75,0,6.37-2.2,10.62,3.51,10.61,3.51,9.81,15.22a24.21,24.21,0,0,0-.37,4.31c.33,2.93,1,6.22-3.14,6.75-3.72.47-6.6-1.36-7.33-5.15-1-5.14-4.18-6.66-8.88-6.41-1,.05-2.37-.17-2.76.87-1.95,5.21-7.16,6.48-11.44,9.35,1,.25,1.31-.38,1.72-.27,5,1.46,7.57,9.86,4.1,13.49-1.46,1.53-3.36,3.17-5.39,1.88-3.07-2,1.32-3.18.92-4.86-2.22,2.07-4.4,4.86-8,3-2.32-1.22-3.9.45-5.78.77C602.52,728.42,598.73,728.79,596.16,724.7Z"
            fill="#896d58" />
        <path
            d="M705.06,737.13l7.41,0c.09,1.78-.16,3.57,1,5.24,2.26,3.41,6.28,7-1.63,9-2.8.7-1.63,3.6-.54,5.65-.17,1-1.06,2.53-1.64,1.18-2.93-6.77-8.2-3.52-10.64-1.3-8.1,7.35-16.29,5.57-25,2.19-.29-.11-.75.26-1.14.41-5.88,1.33-11.5-3.66-17.53-.63-2.73,1.37-4.76-1.41-7.23-1.86a6.88,6.88,0,0,1,5.9-2.82c7.91.7,11.81-5.51,17-9.4,1.77-1.33,6-3.9-.71-4.3-1.41-.08-2.47-1.3-1.91-2.53a7.59,7.59,0,0,1,7.2-4.85c1.6,0,3.6,3.33,4.53-.51.55-2.24,2.81-5.38-2-6,1-2.45,3.38-1.94,4.67-3.1l2.43,0c1.22,1.31.4,2.66.13,4-.85,4.32.69,6.69,5.36,6.7,4.17,0,7.59.87,8.3,6.14.37,2.73,2.69,4.72,5.61,6.48C704.84,743.2,700.3,739.83,705.06,737.13Z"
            fill="#302a24" />
        <path
            d="M596.16,724.7c3.36,1.49,6.66,3.16,10.5,1.36,1.65-.77,3.5-1.09,5.19-1.78,4.54-1.87-.37,3.2,1.78,2.49a22.54,22.54,0,0,0,5.78-3.18c1-.73,1.49-3.06,3.17-1.28,2,2.13-1.62,1.46-1.72,2.85-.06.9-.88,1.76-1.58,3,3.77-.08,5.88-2.31,6.26-5.29.52-4.1-4.07-8.35-8.29-8.45,2.3-4.21,8.63-4.08,10.18-7.9,1.83-4.5,3.73-4.39,7.93-4.54,5.44-.2,7,2.3,7.71,6.37.59,3.28,1.9,5.11,5.41,5.5,2.65.3,3.75-.77,3-3-1.32-4.11-.32-8.16.52-12,1-4.47-.2-6.47-4.41-7.29-1.81-.35-3.65-.82-4.53-2.78,5.56-4.19,9.87,2.49,15.06,1.69-5.25,8-5.08,9.75,1,10.68,0,.8.06,1.6.1,2.41.63,3.58-3.34,2.06-4.2,4.08,4.92.87,4.48,5,4.67,8.62.2,4.07-3.4,2.44-5.27,3.48-4.38,2.43-9.53.32-13.67,2.53,3.45.91,4.55,4.11,4.75,6.94.19,2.59-3.08,2-4.86,2.75s-3.11,2-4.93,2.53c-10.16,2.67-20.69,3.12-31,5-3.25-.94-3.48-3.32-1-4.58,3.36-1.68.77-3.09.21-4.15-.88-1.72-2-1.19-3.67-.09s-3.86.74-6.2,1.08A16.6,16.6,0,0,1,596.16,724.7Z"
            fill="#6b5747" />
        <path
            d="M776.84,656.49c-5.15,1.46-8.76-.41-10.36-5.37a5.16,5.16,0,0,0-8.66-2.22c-3,3.06-5.89,6-10.36,2a3.76,3.76,0,0,0-4.65,0c-2.88,2.56-4.86,3.23-6.5-1.16-.37-1-3.23-.21-3.16-.07,1.67,3.31-6.62,6.35.53,9.44-3.28,1.33-4.91-.84-6.9-1.43-2.36-.7-5.09-2-.46-3.86,1.43-.59,2.68-1.81,1.89-3.33-1.13-2.15-2.3,0-3.47.37-4.43,1.53-9.11-1.36-13.52.73-1-.24-2.44-.2-2.75-.79-.79-1.47.83-1.81,1.62-1.58,3.85,1.09,5.06-3,7.91-3.85,1.69-.5,1.1-1.62,0-2-1.89-.69-3.16-1.24-1-3.12,1.37-1.2,3-3.29,4.56-1,3.84,5.54,7.88,4.11,12.62,1.47,1.25-.7,3.49-1.94,5.2-.47,2.08,1.79,4.47,2.35,5.69-.15,1.52-3.11-1.79-4.68-3.64-6.31-1.19-1-4.8,1.25-4.19-2.17.15-.81,3-3.8,5.9-3.58a33.05,33.05,0,0,0,4.21-.2c.07-4.24-3.21-3.17-5.41-3.7,2.39-3.32,4.28-4.06,8.53-.58,2.61,2.14,3.22,1.59,5.1-.09,2.53-2.28,5.83-1.51,8.89-1.56.35,4.1,3.4,3.67,6.18,3.7.44,7.79-5.67,7.82-10.94,9,3.85-1.12,6.44-.09,7.79,3.64,1,2.84,3.4,5.17,3.14,8.49-4.08,4.07-.08,4.18,2.45,5,0,1.62,1.28,1.27,2.26,1.58C777,653.66,778.18,654.55,776.84,656.49Z"
            fill="#64554b" />
        <path
            d="M691.43,635.36c1.9-4.92,5.86-2.12,8.19-1.39,9.55,3,18.56-3.7,17.94-13.41-.38-6.17.24-12.41-4.33-17.48a1.69,1.69,0,0,1,0-2.25,1.25,1.25,0,0,1,2.09-.21c4.08,5.64,8.15-.47,12.2.06,7,.9,4.47-6.07,7.21-8.68,8.34-2.59,11.56,6.16,17.84,8.18.49.16.91,2,.63,2.81-1.39,4.08,1.39,6,3.88,8.12,2.07,1.73,4.83,3.47,2.72,6.43-1.87,2.63-3.78.87-5.35-1.08a2.26,2.26,0,0,0-2.21-.22c-6.34,4.86-12.37.87-18.59-.24-1.22-.22-5.17-3.66-5.2,2.41,0,2.59-3.32-1.14-6-1,3.26,6.71-1.09,12.35-4.3,16-2.7,3.1-8.3,5.59-13.28,6.86-.83.21-2.42-.17-2.74-.77-3.36-6.4-5.72-1.73-8.31.65-1.37,1.41-2.5.74-3.42-.51C689.15,637.89,691,636.78,691.43,635.36Z"
            fill="#39312b" />
        <path
            d="M737.38,583.2c.39-3.1,1.25-5.74,4.64-7,2.19-.84,2.77-3.37,3.92-5.26.72-2.08,2.35-3.62,3.34-5.55.54-1.53,4.31-.17,3-3.86-.51-1.4,2.4-1.51,4-1,7.42,2.32,7.42,2.33,11.18-4.38a8.17,8.17,0,0,1,1.12-1.55c-1.46.56-3,1.6-4.22,0s-.42-3.25.52-4.59c3.63-5.17,8.25-9.61,11.15-15.34.54-1.06,1.6-1.83,2.12-3,.73-1.66-.31-4.86,2.89-4.43,2.45.32,3.42,2.67,3.84,5a6.12,6.12,0,0,1-1.77,4l-2.46,7.29c.8,1.68.84,3.69,2.13,5.17-.76,4.23-6.36,4.38-7.21,8.54-1.41.46-3.86-1.37-3.77,2.41,0,1.45-2,3.43-4.34,4.51-3,1.39-6.28,3.19-7.42,7-.06.22-1.49,6.89-4.95,1.63-2,1.82-4.25,3.39-5.81,5.5C746.19,582.49,743.19,586.09,737.38,583.2Z"
            fill="#786862" />
        <path
            d="M636,668.75c-.54-1.82.16-3.33,1.19-4.76,3.36-.09,6.44.44,8.33,3.69,11,3.7,21.73,5.55,31.23-3.58,3.19-3.74,3.07-8.92,5.62-12.94,2.84-2.53,5.27-.69,7.4,1,1.9,1.52,1,3.12-.8,4.25,1.16,10.44-7,12.73-14,16-3.65,1.7-7.34,3.31-11,5a2,2,0,0,1-1.35.77c-2.75.29-5.36,2.36-8.27.67h0c-2.46-.44-5.15.69-7.41-1.09l-5.06-1.21C639.05,674.55,639.34,670.26,636,668.75Z"
            fill="#9ca3a9" />
        <path
            d="M705.06,737.13c-2,2.79-.89,4.93,1.3,7,1.35,1.29,1.57,3,0,4.35a2.68,2.68,0,0,1-4.24-.8c-1.42-3.2-5.64-4.34-5.15-9.32.36-3.7-4.74-1.61-7.06-2.83-1.6-.84-3.74,3.13-4.85-1-.8-3-4-5.52-.6-8.78.51-.5.49-1.53.72-2.31,1.79,1.6,6.8-1.1,5.79,4.39-.07.37,1.78,1.72,2.47.63,3-4.79,3.33.85,4.93,1.19,1.71-2.47-1.33-5,.13-7.67,2.18-.28,1.65,3.47,4,2.69C703.93,728.75,699.76,733.9,705.06,737.13Z"
            fill="#3d352c" />
        <path
            d="M688.93,656.42c1.25-5.77-3.13-4.44-6.11-4.87a3.11,3.11,0,0,1-.83-3.37c.69-2.51,4.14-2.47,4.84-5.35-2.34-1.65-5.52-1-7.79-2.71-3.29-2.17-6.8-3.53-10.84-3.06a3.44,3.44,0,0,1-1.32-1.1,5.26,5.26,0,0,1-.92-3.29c.72-3,4.07-3.7,5.38-6.19a2.18,2.18,0,0,1,3.5,1c.81,2.62,1.82,5.1,5.07,5.3,4.11.24.86-4.42,3.41-5.26,4.93-.24,5,3.49,5.51,6.8.52,1.22,1.5,1.26,2.6,1,1.86,1.07-3.18,5.63,2.42,4.8l1.73.57c-2.65,5-1.31,11.49-6,15.64C689.42,656.48,689.14,656.41,688.93,656.42Z"
            fill="#86898d" />
        <path
            d="M663,677.46a2.76,2.76,0,0,1,1-.08c4.95.25,9.68-.12,13.51-3.9,2.33-2.29,5.9-.39,8.45-2.63-.54,6.94-9.82,7.93-10.35,15.09-4-1.63-6.23,3.9-10.38,4.48-1.12.15-.36,2.93-2.17,1.69a2.32,2.32,0,0,1-.57-3.31c.49-.74,1.78-1.39.54-2.53a24.9,24.9,0,0,1-7.41-6.09C657.67,678.25,660.61,678.61,663,677.46Z"
            fill="#352d25" />
        <path
            d="M619.65,687.5c-1.47,1.82-2.22,3.61-1,6,1.55,3,2.34,7.65-.07,8.82-3.62,1.76-8.74,4.24-12.42-1a3,3,0,0,0-2.57-1.35c1.42-4,7-3.16,8.49-7.26.26-.71,2.68-.62,2.34-2.2-.48-2.21-2.22.47-2.75-.31a8.6,8.6,0,0,1-1.69-6.79c2.5.87,5.88,3.21,6.25-2.08.07-1.1,1.44-1.33,2.5-.93a2.2,2.2,0,0,1,1.69,2.27C620.28,684.31,619.93,685.9,619.65,687.5Z"
            fill="#6b5444" />
        <path
            d="M711.28,652.77c3,.81,3.15,2,.56,3.71-2.9,1.92-6.81,2.95-6.85,7.5-1.29.47-2.76,2-3.9.66-2.08-2.46,2.58-2.64,2-4.83-.37-.11-.8-.4-1.09-.3-1.55.52-2.84,2.9-4.75.66-.59-.69-.55-2,.22-2,2.91,0,1-6.42,5-4C706.15,656.42,708.53,654.46,711.28,652.77Z"
            fill="#64554b" />
        <path
            d="M694.4,717.43c-3.82-.09-8.4,6.07-10.95-1.31-.56-1.61-1.28-3.33.29-4.51,1.39-1,2.6.24,3.78,1.11C689.76,714.37,692.1,715.87,694.4,717.43Z"
            fill="#3d352c" />
        <path
            d="M627.09,691.26c-5.64,4.17-6.25,3.87-7.44-3.76,1.72-.76,4.81,4.58,5.32-1.92C626.49,687.64,625.1,690.14,627.09,691.26Z"
            fill="#6b5444" />
        <path d="M595,703.68c3.07,5.62-3.16,5.9-5,8.7-3.77-3.16.7-5,1.18-7.51h0Z" fill="#514d49" />
        <path
            d="M920.23,891a75.42,75.42,0,0,0,1.22-29.81c-1.85-6.41-.7-12.47,2.1-18.34,4.58-.72,2.69,3.47,4,5.24.5,1.89.78,3.79,2.33,5.35s2,3.39-.05,5.05c-3.79,10.75-3.67,21.84-2.82,33,.11,1.4.17,3.43,1,4,5.69,4,1.5,8.29.8,14.26Z"
            fill="#1e1919" />
        <path
            d="M899.13,913.67c1.31,7.88,3.12,15.73,3.79,23.67.66,7.74.15,15.59.15,24.13-2.22-4.48-4.92-8.26-5-13.28a52,52,0,0,0-2.33-13.93c-.6-2.93-.36-5.92-.48-8.88C897,921.63,894.37,916.41,899.13,913.67Z"
            fill="#1e1919" />
        <path
            d="M935.22,842.47,931.9,849c0-7.17-.1-13.29,0-19.39.16-8,.18-15.95-1.47-23.82-.41-3.56-.83-7.13-1.24-10.7,1.95.07,2.61,1.59,3.38,3,2,4,1.46,8.45,2.6,12.58-.05,2.33,2.88,3.35,2.56,5.81C936.86,825.16,937.53,834,935.22,842.47Z"
            fill="#392e26" />
        <path
            d="M900.91,889.81c1.84-2.5,3.18-5.55,2.88-8.37-.49-4.72,0-8.6,4.08-11.47l0-.09c1.7,5.43.79,10.82-.53,16.11-2.25,9-.31,18.22-1.73,27.25a1.05,1.05,0,0,0-.23,1c-4.19.77-2-3.45-3.6-4.66h0c-2.34-1.76-2.84-4.48-3.68-7C897.57,898,897.14,893.41,900.91,889.81Z"
            fill="#1e1919" />
        <path
            d="M952.17,872.18c-4.47-11.64-2.21-22.93,2-34.13C952.52,849.38,957.9,861.07,952.17,872.18Z"
            fill="#392e26" />
        <path
            d="M918.31,916.22c-1.83-2.29-.91-5.72-3.2-7.82-1.12-2.72,2-7.75-4.54-7.69-1.14,0-1.06-3.17.39-4.73,3.15.72,3.48-2.59,5.32-3.74q1.26,7,2.51,14c1.31,3.18,3,6.3,1.38,9.88A1.36,1.36,0,0,1,918.31,916.22Z"
            fill="#1e1919" />
        <path
            d="M938.34,886.87c-.33.87.07,2.16-1.38,2.37-3-3.55-1-8.14-2.51-12-.38-3-2.13-6-.32-9.18a2.88,2.88,0,0,1,3-.16c3.35,3.67,3.32,8.16,2.33,12.5C939,882.56,939,884.78,938.34,886.87Z"
            fill="#1e1919" />
        <path
            d="M891.4,941.38c-.53,2.23,0,5.13-2.89,6-1.21.37-1.87-1.2-2.43-2.26.73-2.85,3-5.15,2.89-8.31C893.29,936.46,890.59,939.86,891.4,941.38Z"
            fill="#1e1919" />
        <path
            d="M635.74,733.4c2.67-2,5-4.79,9.31-3.72-3.38-1.07-1.3-8.13-7.15-5.8a2.47,2.47,0,0,1-.75-1.37c.13-1.4,1-2.44,2.44-2,3.08,1,5.58-2.77,9.34-.45,1.51.93,5.36-3.84,9.48-1.81-2.08-3.5,2.17-9.86-6.4-9.92l7.27-4.75,9.69,3.09c-1.46,2.45-5.63,1.9-4.8,5.79.63,3,2.55,3.27,4.86,3.76,1.63.34,3.73,1.77,3.11,3.2-1,2.25-2.61,4.7-5.49,5.1-1.31.18-2.72-.37-4.11-.6-.83,2.3.86,3.63,1.47,5.27.81,2.15,1.65,4.18-2.13,3.21l-1.09-.3a19.73,19.73,0,0,1-.34,2.43c-1.69,6.19-8.19,8.89-14,6.75-3-1.11-5.41-3-8.27-4.21C635.45,737.16,635.23,735.52,635.74,733.4Z"
            fill="#524438" />
        <path
            d="M635.74,733.4l2.46,3.71c-.84,1.6-1.36,3.5-3.63,3.74-1.05.11-1.61.9-2.38,1.55-2.13,1.78,4.71,5-.64,5.13-1.7.06-4.42-.79-6.63-1.42-.17-.05-.28-.35-.45-.39-4-.9-7.8.06-11.5,1.56-1.19-4.1-4-6.2-8.18-6.46v-1.25c2.63-4.63,8.17-2.93,11.69-3.75C622.51,734.41,629.3,734.42,635.74,733.4Z"
            fill="#4f433a" />
        <path
            d="M640.35,754.62c-2.44,5.67-8.75,3.63-11.51,8.19-1.49-3.24-2.62-6.06-5.37-7.77a1.94,1.94,0,0,1-.32-3.17c1.08-1.14,2.52-1,3.13.14C629.65,758.4,634.57,757.9,640.35,754.62Z"
            fill="#201f19" />
        <path
            d="M749.66,566c.24,2.77-1.52,4-3.72,4.91-4.18.94-6.54,4.55-10.06,6.82-2.31-2.54,0-3.63,1.36-5.29,2-2.5,4.52-4.54.67-8.48-3-3-5.37-7.43-3.64-13,.89-2.87-.34-6.11-5.73-4.7-3.13.82-5.56,6.62-9.81,2.22-.76-6.09,4.65-10.29,4.9-16.07,1.34-1.93.83-5.68,4.85-5,2.77-4.69,5.29-9.56,8.67-13.87a5.56,5.56,0,0,1,0-.71c4.5-.92,1-5.86,3.8-7.62-.5-3.73,1-5.95,4.85-6.29a1.42,1.42,0,0,1,1.57-.32,3.81,3.81,0,0,1,1.53,3.19c.08,1.76-.57,4.06,2,4.52,2,.37,3.37-1.21,4.67-2.53a18.38,18.38,0,0,0,3-4.64c3-5.78,5.44-12,11.59-15.46a3.68,3.68,0,0,0,1.71-2.49c2.26-11.59,11.88-13.62,21-16,3.35-.89,5.54-2.24,6.32-5.73a45.25,45.25,0,0,0,1.42-9.1c1.14-4.11,3.12-7.62,6.86-9.95,3-1.84,5-1.6,5.81,2.22a2.25,2.25,0,0,1-.51,1.74c-5.26-.56-3.93,4.59-5.31,6.95-1.2,2.07,2.57,2.11,4.16,3.09,5.16,3.17.39,6.52,0,9.81-1.78-1.69-1.88-4.48-4.41-6.33-1.65,6-2.94,12.24-8.51,16-3.28-.19-4.24,1-2.39,4a7,7,0,0,1,.18,4.29,6.71,6.71,0,0,1-.76,1.6c-5.51,6.36-9.32,13.68-12.37,21.5-.84,2.16-1.89,4.07-1,6.42.15.38.29.91.08,1.2-4.32,6-6.32,13.29-10.9,19.1a2.31,2.31,0,0,1-2.79.72c-2.17-.92-5.37.16-7.54,2.46-4.06,4.3-7.91,8.85-13,12-2.78,1.74-1.67,4.46-1.34,6.73.25,1.74-3.45,4.45,1.65,5.39C751.86,560,750.76,563.45,749.66,566Z"
            fill="#423632" />
        <path
            d="M812.7,444.39a5.52,5.52,0,0,0,0-1.22c.11-1.62-.24-3.26,0-4.83.32-2.36-.33-2.88-2.81-3.09-4.27-.35-7-2.77-6.45-7.63.18-.22.36-.45.55-.67,4.55-1.39-1-2.64-.08-3.71,1.75-1.95,4-5.45,5.57-5.19,5.08.84,8.55-3.21,13.11-3.21-.25,2.38,1.65,4.57.19,7.18-1.6,2.84-3.22,6.46,2.82,3.25,1.66-.88,1.93.87,2,2.1.37,6.32,1.18,12.73-3.12,18.26a5.33,5.33,0,0,0-.79.94c-3.53,7.87-3.42,7.7-10.91,2.88C809.53,447.39,811,446.08,812.7,444.39Z"
            fill="#0f0a08" />
        <path
            d="M783.09,536.25c0-1.38-.4-2.84,1-3.84-.66-5.4,3.33-10.67-.31-16.38-1.36-2.13,1.49-5.36,3.08-7.72,2.36-3.5,3.81-7,3.48-11.45-.38-5.28,4.41-9,5-14h0c2.06-1.56.23-5,3.35-6.44.68,3,2.18,4.75,5.48,3,.54-.29,1.46.51,2.14.93,0,.62.33,1.42.05,1.83-5,7.45-1.51,16.71-5.18,24.43a14.64,14.64,0,0,1-.92,2.26c-6.51,9-7,20.83-14.81,29.53C785.11,538.15,785,535.8,783.09,536.25Z"
            fill="#514c4b" />
        <path
            d="M806.4,480.29c-1.21,0-2.71-.4-3.6.15-3.54,2.2-3.78-.44-4.11-3.11-1.54,1.94.27,5.29-3.26,5.51l-.15-5c-.53-2.37,1.1-3.59,2.61-4.86.68-.36,1.76-.59,1.92-1.11s-.48-1.41-.78-2.14c6.05-1.53,3.48-8,6.48-11.08.56-.58-.27-4,2-2,1.43,1.28,4.73,1.21,4,4.54a14.12,14.12,0,0,0,0,3.05c-1.13,3.47-4,5.3-8.07,7.59C812.88,473,805.25,477.48,806.4,480.29Z"
            fill="#68605b" />
        <path d="M782.76,548.71c-5.23.15-2.7-2.92-2.13-5.17C786.06,543.31,783,546.61,782.76,548.71Z"
            fill="#514c4b" />
        <path
            d="M885.47,927.93c-2.78,3.76-2.55,9.14-6.52,12.49-6.36-10.81.54-19.88,3.38-29.37.78-2.61,2.25-.91,2.94.15a5.31,5.31,0,0,1,.06,5.33c-1.85,3.84-.16,7.62.12,11.42Z"
            fill="#1e1919" />
        <path
            d="M893.24,898.36c-.45,1.19-.91,2.37-1.36,3.56L887.64,909h-1.56v-20.3c4.7-2.3,2.87-6.64,3.21-10.3,0-.73,0-1.46,0-2.18,1.65-2,3.4.25,5.09-.12Q893.81,887.21,893.24,898.36Z"
            fill="#1e1919" />
        <path
            d="M883.84,959.77l-.43,6.65c-2.49-3.86-2-8.39-4.77-11.48-.46-3.34.4-6.44,1.81-9.89C883.09,949.86,883.1,954.9,883.84,959.77Z"
            fill="#1e1919" />
        <path
            d="M648.11,630.43l2.16,1.21c4.73.44,9.05,2.71,13.82,3,1.83.13,2.64,1.66,3,3.36-2.38,4.29-7.44,1.15-10.4,3.81-1.85.68-2.89,2.57-4.79,3.18-3.73,0-6.89-1.61-10-3.4C643.76,637.76,645.21,633.69,648.11,630.43Z"
            fill="#6b6f6e" />
        <path
            d="M641.92,641.62c3.71-.84,6.43,2.3,9.89,2.45.61,2.29-1.19,3.77-1.92,5.58-1.47,3.61-2.83,7.13-1.92,11.2.47,2.1.85,4.54-1.79,5.85a2.07,2.07,0,0,0-.56-.23c-1.74-.21,0-4.9-3.74-2.86-.48.26-1.08-1.94-1-3.2.19-2.12,1.69-3.65,2.82-5.51.52-.06-.65-.76-.82-.45-1.36,2.46-2.35.26-3.46-.42C643.18,650.47,638.54,645.24,641.92,641.62Z"
            fill="#424444" />
        <path
            d="M639.46,654c3.53,0,7.39-.27,3.37,5-1.46,1.93-1.49,3.05,1.82,2.53,1.21-.19.85,3.22,1.21,5,.06.88-.37,1.29-1.23,1.3-1.7-2.84-5.65-1.31-7.48-3.89C634.63,659.91,639,657.42,639.46,654Z"
            fill="#646d70" />
        <path d="M636,668.75c6.66-1,3.81,5.25,5.87,7.76C637.48,675.74,633.3,674.84,636,668.75Z"
            fill="#797d7f" />
        <path
            d="M646.89,677.72c2.51.06,5.15-.73,7.41,1.09C651.32,681.92,648.9,681.19,646.89,677.72Z"
            fill="#524438" />
        <path
            d="M663,677.46c-2,2.11-4.75,2.37-7.43,2.71l-1.25-1.35C657.24,678.61,659.84,676.23,663,677.46Z"
            fill="#524438" />
        <path
            d="M935.22,704.92c-.93-.43-.94-.89-.05-1.38,2.67-1.92,5.53-2.63,8.73-1.43.24.09,1.29,1.68,1.21-.28a1.19,1.19,0,0,1,.59-1c-.7-.41-1.21.35-1.83.32-2.25-.1-4.55.57-6.75-.12s-3.77-2.63-1.28-3.75,1.1-5.93,5.13-5c0-.18.84-.12.2-.2-4.92-.64-1.63-4.2-2.26-6.31s-.26-4.64-3-5.63c-.75-.28-2-.91-1.78-1.52,1.65-4.84-2-4.4-4.72-5.07-1.26-.31-2.41-1.34-1.18-2.7,1-1.15,1.13-1.1-.45-1.78-4.63-2-1.82-3.2.38-4.11-2.82.37-5.83-.48-8.72-1.47-2.44-.83-4.61-2.24-3.08-5.5l.31-.23c3.53,4,8.78,2.38,13.12,3.72,3.51,1.09,6.65,1.45,8.07,5.33a4,4,0,0,0,3,2.87c3.86.41,6.92,1.06,5.15,6.25-.42,1.23,1.54,1.65,2.68,2,4.58,1.55,9.08,3.7,13.79,4.42,5.23.8,6.95,4,6.19,8.07-2.07,11.09-1.44,22.37-2.84,33.53-.93,7.46-1.61,14.73-4.65,21.63-3.09-.16-2.54-2.68-2.75-4.53-.29-2.43,0-4.92-.76-7.3-.12-10.55,3-20.74,3.59-31.23.2-3.44.91-6.8-.66-10.35.56,5.85-2.11,10.93-2.91,16.41-.24,1.65-.92,3.43-2.84,3.6-2.38.2-2-2.15-2.6-3.51s-.59-3.17-1.58-4.92c-.17-.43-1.12.83-.45.34.24-.17.45-.09.55.27,1.08,3.87,3.27,7.67.85,11.79-1.75,1-3.14.4-4.39-.93-2.1-2.31.18-6.22-3-8.15C941.24,706.37,938.08,706.27,935.22,704.92Z"
            fill="#917c65" />
        <path
            d="M963.88,760.89c-.37-.85-.75-1.7-1.13-2.54,1.07-4.76,1.81-9.61,4.88-15.57A36.66,36.66,0,0,1,963.88,760.89Z"
            fill="#917c65" />
        <path
            d="M801.57,450.6c1.25,10.07-2.84,13.19-11.93,16.71-5.67,2.19-15.3,2.75-15.75,13.08-.08,1.82-1.73,4.4-5,5.89s-5.12,6.59-7.51,10.16a25.19,25.19,0,0,0-1.63,3.34c-2,4.26-3.9,9.11-9.73,8.32-6.35-.85-.71-6.31-2.85-9,2.79-5.83,7.18-10.62,10.53-16.1,1.52-2.48,3.07-4.81,3-7.84,2.8-1.1,3.11-3.77,3.88-6.15,6.89-4.17,11.33-10.41,14.75-17.51l2.41-.93c1.83-1.82,2.49-5.52,6.4-4,3.62,6.23,3.67,6.45,2.7,11.07C793.31,453.5,795.29,448.58,801.57,450.6Z"
            fill="#302a25" />
        <path
            d="M787.9,446.75c-3-.18-3.26,3.92-6.15,3.86,1-4.67,4.9-6.66,7.77-9.77,3.82-4.15,8-8.57,11-13.59,1.11-.45,2.11-2.17,3.43-.3l.11.08C801.63,436,795.82,442.26,787.9,446.75Z"
            fill="#766055" />
        <path
            d="M760.71,475.2c1.41.31,2,.66,1.13,2.4-4.09,7.73-7.8,15.69-14.63,21.54l-1.43-.17c.92-5.43,5.36-8.78,8.13-13.05C756.2,482.39,758.68,478.93,760.71,475.2Z"
            fill="#5c5148" />
        <path
            d="M737.15,513.59c1.56,1.32,1.83,2.46-.07,3.85-3.3,2.4-5.83,5.29-5.2,9.85a1.89,1.89,0,0,1-1.68,2.17c-1.41.23-1.46-1.05-1.72-2C729.68,521.78,730.78,516,737.15,513.59Z"
            fill="#78655d" />
        <path d="M779.34,451.54c-.18,9-8.52,12.37-12.7,18.6a19.21,19.21,0,0,1-2-1.09Z"
            fill="#66544d" />
        <path
            d="M740.93,505.26c-1.29,2.53,3.49,8.1-3.8,7.62C736,509.16,736.44,506.19,740.93,505.26Z"
            fill="#78655d" />
        <path
            d="M674.09,626.63l-2.45.14c-.91,1.41-1.2,3.62-3.7,3-1.77-.43-2.38-1.41-1.26-3.07-.87-1.84-3.12-.76-4.26-2,3.49-2.53-.89-6.25,1.23-8.74,1.67-2,3.67-4,6.62-1,1.37,1.42,4,2.52,5.86,1.71,3.06-1.33-.15-2.93-.42-4.44-.57-3.23,2.17-3.33,4.37-5v9.46c3.95-3.18,2.85-8.74,6.7-11.54a2.27,2.27,0,0,0,.5-2.16c-.76-1.4-2.42-1.6-3.77-1.61-2.36,0-5.76-4-4.71-6.21,1.77-3.75,2.67-8.26,8.31-8.76,2.66-.24,4.84-3.32,8.06-2-3.35,2.81-6.23,5.65-1.22,9.58a2.63,2.63,0,0,1,.69,2.18c-1,4.57-1.33,13.15-.77,16.58.34,2,1.06,3.29,3.18,3.93,5.06,1.54,5,1.65,7,8.29-2.71-4.46-7.55-3.64-11.49-5.07-2.95-1.08-3.2,1.84-4.65,3s-2.16,3.51-.68,4.15c4.3,1.88,1.21,4.85,1.61,7.24-1.44-2.67-2.4-5.77-6-6.49a3.54,3.54,0,0,1-3.12-1C678,624.08,676.11,623.24,674.09,626.63Z"
            fill="#45382e" />
        <path
            d="M666.5,637.7c-2.81-4-7.58-1.07-11.16-3.12-1.65-.94-3.36-2-5.06-2.94.56-2,1.13-4,1.69-6,2.38,1.12,4.77-1,7.15,0l1.49,2.19c2.84.75,5.7,1.49,6.06,5.16l1.2,2.66C667,636.07,667.64,637.46,666.5,637.7Z"
            fill="#9c9c9d" />
        <path
            d="M652.86,603c.18-4.13,1.88-6.6,6.46-5.91.55,2.34,2.7,5.14-2.32,5.37-2.64.12-.63,3.25-2,4.54C653.74,606,654.67,603.69,652.86,603Z"
            fill="#6c5e53" />
        <path
            d="M659.12,625.62c-2.39,2.14-4.77,2.76-7.15,0-.22-1-1-2.28-.57-2.84,1.15-1.68,1.81,0,2.52.75,2,2.14,1.52-.35,1.66-1,.67-2.88,2.35-1.06,3.68-.89C659.21,623,659.17,624.29,659.12,625.62Z"
            fill="#737371" />
        <path
            d="M666.67,633c-.89-3.05-5-2.3-6.06-5.16a10.3,10.3,0,0,1,6.07-1.09c1.59,5.87,3.31-.28,5,0C672.71,631,667.29,630.07,666.67,633Z"
            fill="#737371" />
        <path
            d="M591.18,704.87c1.1,2.74-3.09,4.64-1.18,7.51l-1.22,1.21-1.31,0C586.36,709.65,587.67,706.79,591.18,704.87Z"
            fill="#524438" />
        <path
            d="M955.25,744.51c-.16.44-.32.88-.49,1.32-1.07-.88-1.43-2.71-3.32-2.48-2.89,1.83-4.94,1.55-5.21-2.31-.2-3-1.31-5.92-1.29-9a61.77,61.77,0,0,0,.95-11c0-2.22-.14-4.6,2-6.17l3.34,1.2a5,5,0,0,1,2.64,3.88C955.14,728.07,956.94,736.2,955.25,744.51Z"
            fill="#5e5043" />
        <path
            d="M916.36,658c.52,5,4.58,4.2,7.84,5a26.79,26.79,0,0,0,9.13.87l-7.18,3.17,5.69,2.4-3.41,2.16c2.69,2.1,5.82.07,8.23,1.57.65,2.11-1.66,3.21-1.71,5.07,6.1,1.72,8.13,6.91,4.75,12.18,1.49,1.54,3.57.25,5.53,1.22l-6.8,2.85c3.93,4.21-2.72,2.12-2.29,4.79,3.72,1.39,7.9.32,12.35.45-3.14,6.64-9.19,1.93-13.32,3.81.43-3.36-3.56-2.95-4.71-5.71-1.48-3.57-1.7-5.62,1.66-7.51-3.22-3.48-6.51,0-9.54-.78.34-2.94,3.7-1.26,5-3.66-3-.7-5.82,1.37-8.46-.15,2.21-3.27,6-1.14,10.17-3-5.55-.08-10.33-.36-11.92-4.56-.94-2.5-2.45-5.23-2.18-8.37.15-1.76-2.36-.31-3.16-1.19-1.89-2.08-4.69-2-7.27-3,1.42-3,4.37-.76,6.34-2.76-4.52-1.52-9.06-1.25-14-1.84,5.86-3.93-2.85-6.21-.21-9.53,4.53,1.5,10.74-.13,13.45,4.14C912.36,658.87,913.91,658.4,916.36,658Z"
            fill="#7c6a57" />
        <path
            d="M959.43,824.56c-.9-5.37-5-10.19-2.74-16.1,3.51,0,1.76,3.69,3.5,4.92q.18,4.88.35,9.77Z"
            fill="#392e26" />
        <path
            d="M796.64,697.42c-.34-2.84-2.38-4.59-4.07-6.61a2.55,2.55,0,0,1-.38-2.19c.32-.83,1.26-.51,2.08-.47,3.27.15,6.71,2.32,9.78-.63,2.1,1.2,4.59,1.73,6.24,3.7Z"
            fill="#392e26" />
        <path
            d="M770.63,646.57c-1.51-.19-3.48.5-3.87-1.8,0-.2,1.71-.69,3-1.19-1.07-2.07-6.6-2-3.43-6.16-1.56-1.1-3.2-3.32-5-1.77-.77.67-.67,2.77-2.53,2.07-2.11-.81.38-2,.05-2.85-1-2.61,1-3,2.45-2.69,5.66,1.15,7.26-3,9.34-6.69,4.3-1.94,8.19-2.42,11,2.57.37.68,1.75.79,2.67,1.17.39,5-4.09,3.44-6.41,4.73-1.43.79-4.08-.64-4.45,2.06-.29,2.08,1.54,3.32,3,4.35a70.71,70.71,0,0,0,7,3.93C778.76,646.29,774.63,646.13,770.63,646.57Z"
            fill="#524438" />
        <path
            d="M776.84,656.49c-.14-2.26-1.69-2.38-3.46-2.51-3.62-.27-.24-1.58-.3-2.4,6.26-.08,11.73,3,17.6,4.48,1.19.3,2.41,1.18,1.46,2.71-.74,1.18-1.21,1.41-2.6,0s-3.61.13-5.18,1.38l-7.45,1C773.75,658.94,784.56,658.87,776.84,656.49Z"
            fill="#564a44" />
        <path
            d="M921.81,838.05c-2-3.48-.52-7.2-.76-10.8,1.61-2.36,1.32-5.64,3.69-7.63q1.18,1.89,2.36,3.79C927.57,829.1,924.57,833.53,921.81,838.05Z"
            fill="#1e1919" />
        <path
            d="M784.28,629.22c.86-5.43,1.75-6.09,5-3.67C789.58,629.48,786.88,629.28,784.28,629.22Z"
            fill="#524438" />
        <path
            d="M911.24,808c-1.11-.58-.91-1.57-.79-2.53.39-2.18-.57-4-1.52-5.84-.67-1.28-.66-2.31.73-3.08,1.1-.61,2.15-1.16,3.39-.22,1.79,1.36,3.38,9.75,2.1,11.52S912.54,807.89,911.24,808Z"
            fill="#1e1919" />
        <path
            d="M918,829.15c-2.6-2.84-2.26-6.48-2.67-9.92a2.56,2.56,0,0,1,2.5-1.49C917.87,821.54,917.92,825.35,918,829.15Z"
            fill="#1e1919" />
        <path
            d="M934.16,753.49c-.08,1.91-.17,3.82-.26,5.73-.67,4.53-3.23,9,2.69,12.78,1.77,1.13.91,6.45,1.2,9.86.33,3.75-1.23,7.64.81,11.27.1.76.19,1.52.28,2.28h-2.07c-1.59-10.72-5-21-8.36-31.21-1.06-3.28-.61-6.48-.38-9.73C929.82,752.36,931,747,934.16,753.49Z"
            fill="#392e26" />
        <path
            d="M941.4,718.58c-.89-2.21-.63-5.11-3.59-6.1,3.59-4.06-.81-5.36-2.59-7.56h11.24c1.44,4.7-1.22,9.09-1.09,13.71,0,1.4-.33,3.37-1.79,3.53C941.13,722.42,942.83,719.39,941.4,718.58Z"
            fill="#7c6a57" />
        <path
            d="M723.58,716h-2.44c-2,1.05-1.56,3.35-2.48,5h-2.47c-1.2-2.27-2.31-5.1-.49-6.92s5,.79,7.27-1C723.17,714.07,723.38,715.05,723.58,716Z"
            fill="#524438" />
        <path
            d="M718.66,721c-.16-2.15-2.53-5.4,2.48-5L719,725.85C717,723.83,719.12,722.43,718.66,721Z"
            fill="#64554b" />
        <path
            d="M795.39,482.83c0,3.12.91,6.35-2.31,8.84-1,.78-1.52,3.09-1.24,4.49,1.16,5.91-1.77,10.23-4.75,14.75-1.67,2.53-4.06,5.43.14,8.23a3,3,0,0,1,.48,4c-2.76,2.62-1.19,6.72-3.62,9.31l-3.23-4.65c-2.85,10.49-11.32,17.06-16.9,26.18,3.88.88,5.24-2.84,8.62-2.29-4.47,4.81-5.76,11.69-12.52,14.32-1.11-2.86-3.3-4.86-7.75-4.76,1.63,2,2.83,3.56,4.43,5.59-2.8,0-4.73-3.48-7.08-.8-.51-3,.33-7.25-5.35-5.19a1.33,1.33,0,0,1-1.16-2.35c3.34-2.47,1.56-5.52,1.53-8.42s.31-5.6,4.4-4.82a7.26,7.26,0,0,0,1.73-.09c-.93-7.34,8.5-6.19,9.88-11.91.17-.74,1.76-5,5.43-2.25.82.63.15-3,1.53-4.92.36,2.11.65,3.84,1,5.86,4.38-1.42,4.87-5.66,6.17-8.65s2.56-5.92,5.07-8.16c.74-.66,2-1.77,1.3-2.53-3.2-3.49.09-5.54,1.11-8.46a63,63,0,0,1,11.92-21C794.44,482.88,795,482.92,795.39,482.83Z"
            fill="#674943" />
        <path
            d="M644.63,667.88l1.23-1.3c1.54-1.58,1.15-3.53.65-5.25-2.07-7,1.21-12.22,5.3-17.26,1.39-1,1.73-3.07,3.62-3.58,4,.38,7.89-.93,11.86-1.24,2.16-.17,4-.15,5.51,1.62.83,1.52,0,2.32-1.24,3-3.88.13-2.42,3.75-3.64,5.63a14.57,14.57,0,0,1-10.3.74c2.28,2,5.23.57,8,.86,3.66-.06,7.31.09,10.95-.16,4.31-.29,5.47,1.83,4.29,5.63a63.35,63.35,0,0,1-3,8.55c-6.57,5.84-13.71,9.16-22.84,6.38-2.87-.87-5.83-1.75-9.44-.53C641.66,672.27,644.08,669.26,644.63,667.88Z"
            fill="#070504" />
        <path
            d="M670.28,642.91c1-.13,2-.23,2.59-1.3,3.42-2.66,7.28-1.06,10.31,0,4,1.45.52,4.13-.34,6.24,0,1.22,0,2.43,0,3.65-1.24,4.68-1.51,9.73-5,13.57-.39-4.28,4.84-9.08,1.62-11.91-2.37-2.09-8.08-.35-12.3-.34-1,0-2-.13-3-.19.29-2.81,2.61-2.07,4.28-2.48,2-.4,4.07-.5,5.43-2.82C673.75,645.26,669.63,645.77,670.28,642.91Z"
            fill="#2b2621" />
        <path
            d="M682.84,647.9l1.16-5.25-11.13-1c-3.8-2.15-7.84-1.42-11.81-.86-1.94.28-3.82,1.52-5.63-.26,3.32-2.41,7.74-.43,11.07-2.79.2-.86.25-1.82,1.37-2.07a3.17,3.17,0,0,0,.09,1c3.61,1.25,7.63.65,11.1,2.49,1.77.39,3.57.68,5.31,1.18s4.71-.61,4.79,2.28c.07,2.65-1.84,4.33-4.74,4.47C683.88,647.05,683.36,647.59,682.84,647.9Z"
            fill="#414749" />
        <path
            d="M680.33,627.2c1-.42,1.92-.45,2.54.65-1,2.14,3.83,3.28,1,5.73-2,1.71-4.38,1.41-6.31.49-2.32-1.11-4.37-3-3.43-6.15C676,626.09,677.83,623.62,680.33,627.2Z"
            fill="#b3b5b7" />
        <path d="M679.06,639.09c-3.81-.34-8,1.23-11.1-2.49C672.44,634,675.82,636.23,679.06,639.09Z"
            fill="#737371" />
        <path
            d="M680.33,627.2a11.63,11.63,0,0,0-6.2.72c0-.43,0-.86,0-1.29.76-1.09-1.55-3.42,1.87-3.62S680.16,624.47,680.33,627.2Z"
            fill="#737371" />
        <path
            d="M909.79,925.88q.6-6.11,1.21-12.21c2.6,6,.32,12.26.81,18.38C909.78,930.44,911.92,927.45,909.79,925.88Z"
            fill="#1e1919" />
        <path
            d="M937.87,761.05q1.43-8.46,2.87-16.91c0-.15.23-.27.36-.41l.87,1.2c.78,6.14,3.63,12.18.93,18.49l-2,2.3C941.66,763,938,763.15,937.87,761.05Z"
            fill="#5e5043" />
        <path
            d="M787.9,446.75c2.76-5.05,8.34-7.43,11.37-12.48,1.43-2.36,1.78-5.83,4.79-7.24,1.47,7,3.42,8,11,5.53-1.11,3.66-.28,7.39-2.37,10.61-1.22-1.32-1.4-3.86-4.59-1.64-3.44,2.41-4.65,5.85-6.53,9.07-5.35,1.92-5.35,1.92-10.27,9.33C790.11,455.31,789,451,787.9,446.75Z"
            fill="#271b17" />
        <path
            d="M797.89,472.94c0,2.1-1.7,3.26-2.61,4.86-1.76-.93-2.87-2.24-1.88-4.28C794.54,471.19,796.26,472.14,797.89,472.94Z"
            fill="#302a25" />
        <path
            d="M670.28,642.91c.41.42.85.81,1.24,1.25,1.46,1.68,6,.76,5,3.4-.74,1.91-3.31,5.7-7.37,4-.77-.78-2.14-1.24-1.44-2.78C666.73,646,664.55,642.73,670.28,642.91Z"
            fill="#e2d9cf" />
        <path
            d="M667.69,648.8l1.44,2.78c-1.64.59-3.63-.45-5.06,1.1-4,.64-7.29-.77-11.7-4.61C658.57,649.82,663.13,649.15,667.69,648.8Z"
            fill="#99887a" />
    </g>
    <g id="frame">
        <rect width="1000" height="1000" fill="none" />
    </g>
</svg>