<!-- Copyright (c) 2022 Jan Stehno -->
<svg xmlns="http://www.w3.org/2000/svg" viewBox="0 0 1000 1000"><title>raccoondog</title><g id="raccoondog"><path d="M672,937.41l-.68.35-.63-.42c-13.87-5.43-28.49-7-43.18-8.24l.06,0c-13.18-7.16-27.55-6.3-41.78-5.85-12.51.4-24.67,4.5-37.32,3.65-2.67-.11-5.27-.45-7.38-2.33-2.51-5.91,1.86-7.92,5.93-9.63a48.85,48.85,0,0,0,20.45-16.06c1.62-2.14,3.18-5,5.83-5.4,8.31-1.17,16.33-2.39,22.92-8.43,1.9-1.73,5.39-.82,7.64.91,3.74,2.88,6.89,2.91,8.95-1.61,2.45-5.37-2.09-7-5.51-8.93-1.48-.82-3.3.25-5,.49a10.85,10.85,0,0,1-6.12-.51c-6.86-7.81,1.15-9.53,5.31-12.85,2.87-1.84,6.12-3.53,4.93-7.8-3.76-13.52,3.84-24.45,9.23-35.33,8.33-16.83,25.52-25,39.7-36,4.17-3.23,8.49-2.21,12.23.68,5.13,4,10.16,6,16.92,3.8,7.06-2.31,12.42,4.74,20.29,4.11,8.93-.72,8.23,9.91,11.11,16,1.45,3.08,1.49,6.63,2.74,9.73,3,7.48,5.56,15.5,15.94,16.1,3.42.2,6.26,2.49,8.82,4.81,1.75,1.59,3.74,4.4,5.72,3.92,13.5-3.29,19.92,11.71,32,11.88,2.82,0,4.83,2.33,5,5.49-5.42,4.66-18,5.08-25,.72-3.72-2.31-7-5.37-12.32-6.54,1.08,5.53.87,10.6-5,13-6.2,2.5-10.45-1.11-14.37-5.06-7.54-7.6-15.89-13.57-26.62-16.22-9.64-2.39-18.93,1.48-28.44.57-2.26-.22-2.72,2.42-3.37,4.43-3.4,10.54-14.26,18.49-25.43,18.81-1,2.29.42,4.65-.13,7-.89,3.75-.22,5.08,4.48,5,8.87-.13,11.89,3.91,10.49,12.77-.72,4.56.34,8.7,1.38,13,.89,3.69,1.54,7.75-2.33,10.09-3.47,2.09-6.68.09-9.12-2.45-3.44-3.57-8.09-2.41-11.88-3.65-11.37-3.73-21.64-1.15-32.21,2-2.92.88-5.1-1.47-9.67-2.73,9.64,4,18,2.86,26,4,5.63.8,11.94,0,17.14,2,13.68,5,26.76,1.5,40-.89,2.36-.43,5-1.64,7-.6,10.46,5.44,23,.82,33.29,7.16,4,2.48,6.83-.65,9.67-3.31,8.51-8,10.24-7.82,18.59,1.07,2.83-2.79,2.08-8.87,7.79-9,5-.13,8.2,3,11.36,6,3.37,3.27,7.06,5.18,11.93,4.33,4.69-.83,8.52,1.66,12.62,3.31,9.42,3.78,13.81,1.86,19.85-6.31,7.1-9.6,12.73-20.34,21.77-28.49,9.69,8.11,1.85,15.66-.66,23.3,9.26-7,11.87-19.43,6.76-32.72-.52-1.2-.86-3.22-2.11-3.15-9.13.49-12.36-5.25-14.39-12.65-1.12-4.07-3.3-7.71-8-8s-7.54,2.43-9.26,6.53a23.84,23.84,0,0,1-3.38,6.18c-3.78,4.59-7.11,3.76-8.82-1.45-1.55-4.7-3-9.83,1.15-14.26,1.24-.53,3.2.08,3.83-1,7.91-13,22.6-13.62,34.76-18.71,5-2.1,14.67,6.09,14.86,14.65a90.51,90.51,0,0,0,3.79,23.3,31.46,31.46,0,0,1,.62,11c-.31,3.57-.25,5.75,4.76,4.46,6.28-1.62,8.21,2.62,6.75,7.66-1.89,6.52-2.2,13.28-3.86,19.81-.68,2.4-1.36,4.81-2,7.22-1.73,6.23-.62,12.6-.93,18.89-.17,5-.66,10-4,14.17-2.3,1.61-4,.33-5.6-1.19-3.14-5.56-1.37-11.68-2.07-18.43-4.85,3.89-4.57,9.22-5.72,13.91-2.24,5.09.47,11.44-4.45,16.55-3.24-1.28-4.29-4.73-6.56-6.86a14,14,0,0,1-1.5-7.2c.15-1.34.08.33,0-1-.34-4.23,4.38-9.75-1.92-12.43s-8.66,2.59-11.36,7a14.79,14.79,0,0,1-7.46,6.45c-2.43.06-4.15-1.86-6.41-2.3-5.86-3-11.64-7.33-18-1-4.75,1.39-8.63,0-11.79-3.62-3.54-4.42-6,1.63-9.09,1a8.61,8.61,0,0,1-2.82,0,107.05,107.05,0,0,0-22.68.55c-9.89,1.39-19.66-2.39-28.81-5.8-6-2.23-11.05-3.35-17.32-2C684.1,940.1,677.9,939.27,672,937.41Z" fill="#191512"/><path d="M760.75,569.24c6.19-1.27,11.88-9.26,18.82-1.34.31.37,2.4,0,2.69-.54,5.09-9.27,13.43-3.28,18.5-2,14.59,3.63,29.7,5.28,43.84,9,15.15,4,30.67,7.75,45.75,12.52,5.95,1.88,12.45,2,18.7,3,3.61.56,7.7.2,9.08,4.93.57,2,2.36,2.85,4,1.73,9.46-6.69,18.48.66,27.71.8,1.72,0,3.19,1.52,5.54.68,13.35-4.77,13.39-4.65,16.31,7.87.51,6.59,5.43,12,5.16,18.78-1.12,2.52-4.47,1.9-5.87,4.07-7.65-3.76-3.8-12.19-7.39-17-.09,2.24,2.74,4.88.7,7.86-6.12-1.27-13,1.53-18.5-3.23a9.89,9.89,0,0,1-1.94-7.59c.44-1.09-2.08.3-.73.12.6-.09.79.22.41.81-1.92,3-2.06,8.82-8.23,5.11-.26-.16-.34,0-1,1.13-3.7,6.72-10.11,7.78-16.39,2.71,0,0-16.82-8.22-16.82-8.21-4.35-5.82-8.14-6.34-11.2,1.09a8.48,8.48,0,0,1-2.31,3.32c-2.29,1.93-4.73,4.71-7.95,3-2.81-1.51-2-4.61-1.42-7.34.15-.8,3-2,.11-2.43-.49-.07-2.74-2.21-3.93,1-2.16,5.8-3.83,2.42-5.05-.87-2-5.47-10.13-9.42-15.38-8.25s-8.06,11.16-15.65,4.66c-.53,2.44,0,6.07-4.21,5.12-2.93-.65-3.83-3.56-4.71-6.18-.36-1.07-1.25-1.8-2.14-.69-5.1,6.35-9.84,1.25-14.4-.64-4.39-1.83-14.45,3.15-11.27-8.56-4.57,2.17-7.44-5-10.13-3.17-6.37,4.4-7.73.11-9.49-4s-3.72-6.07-8.84-6.55c-4.7-.44-9.07-4.19-12.62-7.94A2.75,2.75,0,0,1,760.75,569.24Z" fill="#847566"/><path d="M603,874c8.35-6.16,9.74,5.71,15.61,5.94a32.68,32.68,0,0,1-9.11,12.76c-2.06,1.89-3.33-.82-4.47-2.42-4.57-6.46-9-4.45-13.1.43-1.86,2.2-2.74,6.41-6.58,4.86-9.63-3.88-14,2.14-18.92,8.5a36.62,36.62,0,0,1-17.61,12.77c-3.19,1.06-6.69,1.79-7.11,6.07-6.2-.07-10.5-3.42-11.18-9.12-.87-7.32,4.12-11.43,10.07-13.45-8.45-1.26-13.44,11.88-23.72,6.6l-9.89-.33c-7-3.69-11.37-10.69-18.51-14.16l-4.25-1.89c11.45-5.66,12.54-6.48,5.77-16-5.87-8.29-4.68-15.26-1.08-23.15a15.37,15.37,0,0,0,1.53-7.75c.4-2.46-.15-5.85,3.45-6,2.49-.11,3.71,2.48,4.77,4.52a19.36,19.36,0,0,1,1.73,8.59c2.22,6.1,4.06,12.33,6.78,18.25a11,11,0,0,1,1.46,2.35c.45,1.28-.37-.09.43.89,3.7,4.52-.74,12.08,4.52,15.11,9.38,5.41,19.7,7.59,30.38,3,13-4.42,26.42-7.6,38.34-14.7,5.78,1.61,9.73,8,17,5.94C604,880.27,605.65,878.37,603,874Z" fill="#352b24"/><path d="M586.34,735.66l2.37-3.79c4.22-5,8.42-10.06,12.44-15.21a22.54,22.54,0,0,1,19.25-8.38c2.86.2,6.11,2.49,8-1.28-8.58,3.33-11.6,1.7-11.74-7-.05-2.84-.34-4.86-3-6.84-3.77-2.83-2.88-7.19-1.8-11.18,1.46-5.39,4.7-2.75,7.76-1.86.5.14.5-2.38,1.56-3.33,5.44-.85,7.37,1.74,7,6.83-.26,4.1-2.8,7.49-3.08,11.6,1.73-4.23,5.68-7.4,5.36-12.64-.13-2.1-.72-5.29,2.75-5.39,2.7-.09,3.81,2.4,4.66,4.67a16.61,16.61,0,0,1,1,5.93c0,.31-.26.74.21,1a3.15,3.15,0,0,1,2-2.07c6.42,2.69,14.26.83,19.9,6.07,2.54,5-.83,9-2.43,13.28-10.12,1.11-7.56,8.1-6.7,14.3.87,7.38-5.91,7.85-9.91,10.84-3,2.34-5.82,6.65-9.56.55-6.78-11-8.66-11.3-19.34-3.42-1.59,1.6-3.2,3.18-4.88,4.7a10.5,10.5,0,0,0-4,6.34,3.71,3.71,0,0,1-2,1.69c-5.5.3-9.17-5.31-14.83-4.49C587,736.27,586.67,736,586.34,735.66Z" fill="#9f8873"/><path d="M660.74,608.49l7.76-.62c3.65-3.92,4.74-10.75,12.1-10.42.39-1.29.57-3.58,1.21-3.71,10.29-2.17,18.36-10.35,29.3-10.64,2.34,4.34-2.75,5.21-3.76,8-2.13,3.57-3,8.81-9.19,7.2,3.34,10.29-12.68,14.45-8.1,25.15a7.76,7.76,0,0,1,.19,2c.55,4.69-9.9,6.53-3.36,12.76-5.08,4.73-3.1,11.79-5.83,17.56-2.56,5.38-.8,12.6-4.76,18.14-11.38.9-13.4-1.93-10.36-14.45.6-3.23,1.54-6.42,1.44-9.76,1.93-8.85,2.06-18.08,5.65-26.67-4.31,2-6.25,5.94-8.72,9.48-1.32,1.89-2.85,4.55-5.44,3.72s-2.22-3.85-2.18-6.19-.12-4.7.08-7.07C658.63,618.28,658.82,613.15,660.74,608.49Z" fill="#796958"/><path d="M760.75,569.24c0,.69,0,1.38,0,2.06,4.78,2.8,7.16,7.18,8.33,12.37A34.58,34.58,0,0,1,773.05,600c.06,6.69,2.82,11.41,8.44,14.73a31.76,31.76,0,0,1,6.42,7.59c.15,3.38-1.82,5.38-4.54,6.88-5.75,1.26-9.59-2.5-11.46-6.45-4-8.37-9.11-8.31-15.85-4-4.68-1.15-6.43-4.52-6.83-8.91-.36-4,1.58-10.24.26-11.65-8.73-9.39.72-20.28-3.54-29.64-5.71-4.35-11.85-5.39-18.53-2.53-3.41-.05-6.44,2.93-10,1.25,3.36-8.22,7.3-17.32,17.36-17.21C747.15,550.14,756.12,557.42,760.75,569.24Z" fill="#352d24"/><path d="M668.64,650.42c4,2.85-.92,5.3-.37,8-4.11,7.31-9.35,13.35-18.5,13.61-2.86.08-3.06,1-3.48,3.26a88.33,88.33,0,0,1-2.7,9.69,4.68,4.68,0,0,1-2,2c-.9,2.06-1.79,4.12-2.88,6.65l-4.61-15.35c2.39,8.47-6.29,13-7.1,20.17-.39,3.39-3.91,1-4.87-.9-1.56-3,.62-5.53,1.81-8.34,1.78-4.2,5.45-9.51-2.39-12.13-5.38-3.4-3.91-8.13-2.53-12.84,2.61-9.91,11.37-16.36,14.7-25.86,5.74,9.65,2.73,18.1-3,26.19,5.44-8.12,8.92-16.52,3-26.2,6.3-1,3.73-10.2,6.56-10.06,7.15.35,5.16-5.68,7.8-8.18.39.27.79.53,1.19.78,6.35,5.21,4.21,11.35.26,16-3.78,4.44-3.91,8.85-3.8,13.9,1.77-.82,2.44-2.47,3.57-3.69,3-3.31,6.26-14.21,9.22,0,.7,3.35,11.44-.93,5.26,7.12C665.7,653.3,666.26,650.73,668.64,650.42Z" fill="#b7a696"/><path d="M717.37,567.21c3,.29,4.54-6.21,8.51-1.93-.06,10,3.93,20.1-.74,30a12.16,12.16,0,0,0-.34,8.94c2.25,7.17,0,14.09-1.26,21-.87,4.71-2.65,9.24-8,10.8s-9.06-1.36-12.21-5.26c-1.06-1.32-2.39-2.41-3.47-3.72-4.47-8.81-3.27-18,1-25.93a64.22,64.22,0,0,0,4.42-11.54c1.13-2.9,5.56-2.88,5.87-6.51C712.43,577.5,713.5,571.81,717.37,567.21Z" fill="#231d17"/><path d="M554,772.62l6.35-6.17c4-.56,5,2.39,6,5.23,2.48,11.48-3.35,19.64-11,27.07-7.14,5.37-10,12.24-7.17,20.91,1.73,5.31-.35,9.08-4.29,12.33-7.59,6.87-13.65-.8-20.14-2.51-3.2-.84-2.76-5-1.41-8s4.17-5.37,4.64-8.9c6.11-9.58,7.17-22.6,20.8-27.16C551.55,784.14,549.76,776,554,772.62Z" fill="#ac9a88"/><path d="M492.56,843.9c.29,1.28,1.27,3.1.76,3.75-9,11.27-3.55,21.45,1.84,31.94,4.84,9.41,4,10.43-6.94,10.71-1.35,0-2.7.16-4,.24l0,.18A81.54,81.54,0,0,1,461.63,862a1.53,1.53,0,0,1-.1-1.71c-.8-4.07,2.6-3.94,4.93-4.65s5.47-.93,6.07-3.12c2.61-9.42,10.42-9,17.63-9.85A3.07,3.07,0,0,1,492.56,843.9Z" fill="#201c18"/><path d="M619.05,664.28q1.26,6.42,2.53,12.84c1.75,9.71-4.23,3.81-9.05,2.59,3.06,4.51-3.76,11.74,6.38,11.26.13,3-.16,6.07.52,8.93.52,2.2-4.59,5.24,1.61,6.9,4.6,1.23,6.12-.36,7.7-3.71.41-.86,1.22-1.54,2.8-3.48-.92,8-2.3,12.81-11.08,10.13-3.55-1.08-7.6-.34-9.07,4.26-.68,2.15-1.65,4.06-4.17,2.32-4.8-3.3-4.47,1.12-5.82,3.44-3,5.22-5.58,11.06-12.69,12.11C599.67,709.71,605.14,685.13,619.05,664.28Z" fill="#c8b8a8"/><path d="M554,772.62c-.52,4.25-3.43,8.13-1.91,12.69.41,1.23,1,3-1.08,3.05-16.08.66-14.66,16.36-21.72,24.75-4.37,2.44-7.95,7.42-14.16,3.1-2-1.38-4,1.71-5.83,3-3.62,2.46-6.36,6.09-10.44,7.86s-5.09,1.08-6.35-3.79c13.74-14.47,30.34-25.53,45.9-37.82C543.7,781.26,548.82,776.9,554,772.62Z" fill="#d1c4b7"/><path d="M834.49,990.23,832,1000c-11.37-1.17-6.58-9.92-7.6-15.94,2.49-.37-2.44-8.82,4.81-4.36.52.32-.46-1.54-.62-2.39-1.11-6.18-2.82-12.35,2-17.86,4.86-2.82,3.08,3.18,5,4.67,1.92-5.31-1.14-10.61,2.59-14.81a7.2,7.2,0,0,1,2.91,6.21c-.14,10.45,1.49,20.81,1.6,31.23C842.19,993,836.78,988,834.49,990.23Z" fill="#261d17"/><path d="M672,937.41a138.18,138.18,0,0,1,45.54,3.73c6.16,1.58,15.43,10.22,22.75.1,5.88,6.17,15.28-3.65,20.71,4.51-.06,3.67-2.82,6.35-5.56,5.61-7.75-2.09-15.74-.22-23.38-2.24-10.14-2.36-20.54-3.69-29.87-9-2.79-1.59-6.37-1.12-9.84-.11C685.33,942,678.37,941.46,672,937.41Z" fill="#352b24"/><path d="M490.63,843.86c-1.81.77-3.7,2.31-5.43,2.16-5.09-.46-7.57,1-8.77,6.36-1.74,7.7-10.81,3.51-14.9,7.89-5.53-11.55,5.32-14.4,10.92-19.84,2.84-2.76,6.48-4.68,9.76-7C491.87,831.45,489.86,838.76,490.63,843.86Z" fill="#514840"/><path d="M732.06,949.12c7.29-.94,14.5-2.57,21.8.64,3.38,1.49,5.64-1.1,7.14-4h-.07c3-2,6.6-2,10-2.62,3.28,3.73,7.11,5.84,12.25,4.12,6.82-7.82,11.28.34,16.64,2.41,2.91,2.43,5.72,5,9.25,6.58,3.87,3.92,5.62,9,8,13.81a3.77,3.77,0,0,1-1.56,3.94c-1.75-1.6-4-2.89-5.15-4.84-12.17-21.42-31.33-20.25-51.91-17A48.93,48.93,0,0,1,732.06,949.12Z" fill="#261d17"/><path d="M516.83,906.92c4.46-1.16,8.81-.37,12.69-5.54s12.18-2.46,18.85-3.23c-6.2,4.8-16.45,5.17-16.26,15.31.1,5.07,4.83,7.79,9.55,9.43,1.35,2.62,3.86,1.94,6.07,2.11,7.29,3.4,15.35-1.84,22.6,2-16.6,4.7-35.19,2.7-43.63-13.61C524.59,909.31,520.23,908.89,516.83,906.92Z" fill="#776356"/><path d="M490.63,843.86c-3.67-2.78-.88-10.71-8.42-10.41l3.93-6.4c7.82.6,12.63,5,15.49,11.94,2.74,3,1.51,7.82,4.86,10.58,6.47,4.4,8.09,10.5,6.35,17.79-1.22,2.5-2.48,4.92-5.85,2.59h0a48.68,48.68,0,0,0-8.53-18.2c-.6-3.49-.14-7.31-2.92-10.13-.66-.67-.71-3.07-2.37-1.53-.74.7-.43,2.51-.6,3.81l-1-.07Z" fill="#776356"/><path d="M570.33,927c-7.48-1.25-15.32,1.49-22.6-2,13.2-1.29,26.4-3.71,39.58-3.57,13.67.15,28.45-2.88,40.26,7.71C608.7,923,589.56,923.87,570.33,927Z" fill="#352b24"/><path d="M996.28,653.37c-.15,2.31-.3,4.61-.62,9.44-4.83-10.94-9.44-19.3-8-29.38-2.93-2.28-.77-5.76-2-8.44-2.15-6.25-.37-8.53,6.17-6C993.11,630.46,998.11,641.47,996.28,653.37Z" fill="#847566"/><path d="M500.72,839.6c-3.51-5.73-9.28-8.87-14.58-12.55,1.29-2.65,3.67-3.5,6.38-3.8,2.44,6.36,6.06,2.19,7.77.11,2.43-3,5.6-4.3,8.61-6.12,5.2-2.31,5.39,1.22,5.61,4.72A56.6,56.6,0,0,1,500.72,839.6Z" fill="#b29f8e"/><path d="M564.13,772.46a6.34,6.34,0,0,0-3.77-6l26-30.79.56.46a4.09,4.09,0,0,1,1,2.61c-3.91,11.64-8,23.22-17,32.25C568.89,772.61,566.82,773.92,564.13,772.46Z" fill="#9f8873"/><path d="M815.56,974c.08-1.35.17-2.69.25-4,5.25.38,8.74-.81,7.81-7.29A15.09,15.09,0,0,1,825,953c1.08-1.91,2.67-4.23,5-.94.21,2.47.41,4.93.62,7.4-.07,1-.13,2-.22,3-.66,7.56,2.84,16.25-6,21.6C822.14,980.12,816.22,979.34,815.56,974Z" fill="#261d17"/><path d="M627.51,929.1c11.21-1.4,22.16,1.24,33.15,2.57,3.59.43,8.35.93,10,5.67-5.63,2.78-10.41-1.26-15.19-2.61C646.26,932.13,636.37,933.09,627.51,929.1Z" fill="#352b24"/><path d="M461.63,862l22.51,28.74C471.45,885.14,464,875.49,461.63,862Z" fill="#514840"/><path d="M488.43,892.43c9.45.5,12.58,9.14,18.51,14.16C497.86,905.62,493.55,898.51,488.43,892.43Z" fill="#352b24"/><path d="M660.74,608.49c-1,5.2.57,10.78-2.45,15.67-4.11,1.33-6.42-2.27-9.61-3.45l-.55-.54C654.19,618.26,658.52,614.5,660.74,608.49Z" fill="#b7a696"/><path d="M680.6,597.45c-6.21,1-6.58,8.64-12.1,10.42C670.5,602.07,672,595.67,680.6,597.45Z" fill="#796958"/><path d="M795.5,853.81c-1.31,5.65-.53,11.1,1.58,17.46,3.59-2.37,6.06-4.93,6.42-8.53.77-7.73,7-9.11,12.38-9.35s8.83,4.67,10,9.6c1.77,7.4,1.44,14.83,13.57,10.06,4.64-1.83,1.65,4.44,1.06,7.2,3.52,6.7-1,8.6-6.15,10.14-5.84,11.18-14.55,20.39-21.49,30.82-5.34,8-13.84,10.7-22.09,5.87-4.63-2.7-8.53-4.46-14.19-2.59-6,2-8.69-4.1-12.39-7.28-2.58-2.22-4.81-5.22-8.74-4.13-4.16,1.16-2.66,4.91-3,7.73-.26,2.11-.68,4.39-2.82,5-3.74,1.06-3.11-2.67-4.1-4.45-4.45-8-8.29-9-13.19-1.36-5.4,8.36-10.5,8.39-17.25,2.62-2.85-2.43-5.73-3.39-9.17-1.09a5.9,5.9,0,0,1-6.76.25c-11.87-7.52-24.22-3.89-35.62,0-9.46,3.26-16.39-2.93-24.73-3.1-16.37-.35-32.34-3.9-48.57-6.84C591.63,908,595,908,597,909.17c9.26,5.32,16.67.09,24.42-3.54.6-.27,1.46-1.27,1.52-1.22,7.95,7.55,20.21-.16,28,7.78,2.09,2.14,4.06,5.74,7.41,3.78,3.55-2.08,2.18-5.88.83-9.06-1.94-4.58-4.1-9.67-1.09-14,2.82-4,.09-5.42-1.81-7.53s-4.1-3.72-7-1.28c-2.24,1.9-4.7,3-7.32.77-3.1-2.65-.48-4.69.82-7,.62-1.09,1.19-2.86.72-3.8-5.26-10.51-2.85-11.88,7.16-6.6,3.06,1.61,18-13.12,17.76-17.34-.33-6,.9-8.74,7.86-6.74,9.21,2.64,18.27-3.22,28.15-.15,11.24,3.5,19.88,9.71,27.7,17.8,3.15,3.26,6.38,6.6,11.45,4,5.54-2.85,4.46-6.56,1.25-10.71-1-1.28-.52-3.38.94-4.61,2.32-2,3.58.3,5.09,1.45,8.52,6.48,18,10.39,28.86,10.6,2.11,0,4.1.09,5.49-1.84,2.79-2.15,1.35-4.83.83-7.32-.84-4-1.43-8,2.45-10.9a4.46,4.46,0,0,1,6.35.48C798.25,845.82,798.84,849.76,795.5,853.81Z" fill="#0f0c0a"/><path d="M795.5,853.81c0-1,0-2,0-3-.13-3,.56-6.23-2.74-8.08a2.8,2.8,0,0,0-3.64.68c-2.74,3-1.73,6.09-.3,9.34,1.58,3.58,5.59,8.66-3.53,7.23-1.9-4.61-5.77-2.91-9.36-3.48-7.44-1.18-13.16-12.19-17.47-11-9.12,2.6-13-1.4-18-6.41a4.68,4.68,0,0,0-2.57-1.57c-21.2-.94-20.68-19.11-25.87-32.46-2.44-6.3-1.53-15.25-13-9.74-2,1-4.94-1.24-7-3.4-1.81-1.95-4.53-3.74-7.29-1.92-7.39,4.87-12.62,1.19-18-3.67-3.57-3.23-6.71-3.22-11.56-.17-8.09,5.09-12.58,15.81-24,15.6-3.53,12.68-20.47,18.25-18.24,34,.51,3.62-2.38,5.39-4.45,7.52-2.29,2.36-4.29,4.61-1.13,7.69,7.42,7.24,1.44,10.09-4.32,13-1.78-1.2-2.38-3.23-3.47-4.9-3.62-5.56-13.31-10.16-11-15.74a53.09,53.09,0,0,1,15.8-21.44c3.61-2.82,6.61-4,4.9-11.11-1.37-5.66,6.25-13.14,13.44-16.69,1.77-.88,4.42-.76,4.86-3,1.5-7.63,5.7-10.17,13.21-7.93,2,.6,3.85-.62,5.5-2,12.19-10.06,25.83-10.44,39.16-1,1.8,1.28,3.84,1.15,5.67,1.94,5.77,3.4,12.57,2.65,18.68,3.24,7,.69,11.31,3.56,15.11,8.56,2.22,2.75,7,3.86,5.82,8.81-2,3-5.54,4.65-7.07,8.34,3.69,2.51,7.88,4.35,11.43,7.17,3.71,3.3,8.84,5.12,10.57,10.49,3-3.1-6.34-12.24,5.56-10.33-.22-5.91,3.46-9.93,6.75-14.22,1.62-2.11,2.35-5.37,5.55-5.27,3.64.11,4.6,3.59,5.85,6.26,2.72,5.78,2.55,13.2-.28,21.54,2.86-1.87,3.42-6.27,7.59-6.09,1.75-.17,3.33,3,3.69,2,4.44-12.91,11.64-14.88,21.56-5.16,4.29,4.21,5.89,3.66,6.19-2.12,1.5-4.77-1.59-8.43-3-12.47-1.17-3.24-2.75-7.27.55-9.33,4.22-2.63,6.82,1.65,8.86,4.46,3.73,5.15,7,10.61,13.12,15-1-5.42-4.61-9.06-5-13.71-.32-4.23,1.5-7.65,5.66-8.46,3.85-.75,5.53,2.29,5.31,5.71-.35,5.55,9.38,3.28,7,10.2,1.81-4.85,3.11-9.31,5.72-13.29,2.23-3.4,4.49-3.63,7.36-.78,5.8,5.73,8.73,28.4,4.53,35.3-2.94,4.82-6.47,1.63-9.84.77,7.05,5.11,11.12,1.15,13.94-4.9a79.92,79.92,0,0,1,12.17-18.62c6.68-7.72,12.45-6.41,15.17,3.07a27.16,27.16,0,0,0,3.49,8.27c3.27,4.83.89,11.89-4.19,14.48-3.17,1.61-4.5-.18-5.16-2.7a65.47,65.47,0,0,1-1.55-11.68c-17.39,6.77-10.48,21-8,32.08,4.07-6.42,14.06-10.34,17.66-20,.9-2.42,3.81-2.65,5.72.09a21.56,21.56,0,0,1,2.68,8.66c1,15.7-3.69,30.6-6.56,45.75a8.23,8.23,0,0,1-4.24,5.49c-7.5-6.69-3.21-15.32-4.87-21.94-.22,12.19,2.74,25.56,1.32,39a6.81,6.81,0,0,1-2.68,4.56c-1,9.11-5.74,16.82-9.2,25.08-1.84-17.35,4.78-33.75,5.42-51.44-3.72,2.83-3.14,6.92-5.09,9.82-2.1-1.91-.84-5.5-3.35-6.8-1-.74-1.38-.48-1.4.57-.29,19.22,0,38.44-2.15,57.62-.69,5.94-.11,12.14.69,18.12,2.42,18.09-16.09,37.51-15.55,27.55a290.63,290.63,0,0,0,10-74.3c0-1.58-.21-3.16-.33-4.74l-3.44,2.54c.5-5.28.46-10.7,1.7-15.81.75-3.1,4.31-6.36,1-9-4.1-3.3-6,2.83-10,3.61-3.28-6.82-.41-14.21-1.65-21.2-.31-1.76,1.3-5-.55-5.48-10.67-2.69-3.36-7.78-2.44-12.58,1.35-7-4-11.63-7.88-16.65-4.32-5.67-5.68,1.69-8.66,2a49.44,49.44,0,0,0-13.59,3.09c-8.06,3.12-14.28,7.26-16.39,16.05C797.5,858.26,797.8,854.6,795.5,853.81Z" fill="#191512"/><path d="M691,782.79c-2.16.78-5,3.16-6.56,1.09-8.18-10.75-19.4-7.15-30-6.93-1.82,0-3.64.14-4,2.19-1.33,8.54-9,8-13.23,6.3-6.28-2.47-6.86,1.14-6.8,4.43.09,5.53-3,5.35-7,7.27-5.42,2.66-9.12,8.81-13.47,13.54-.17.18.33,1.24.76,1.65,5.07,4.76,4.75,4.32-1.35,9-5.21,4-13.15,6.71-11.33,15.92a1.9,1.9,0,0,1-1,1.57c-18,5.15-.1,10,.91,14.19.8,3.28,6,5.87,5,10.94-1.15,3.93-11.71,2.46-6,10.33.36,2.41-1,4.12-3.11,3.91-3.05-.29-3.74-3.11-4.43-5.72-.75-2.81,3.33-7.33-2.89-8.26-3.38-10.52-6.74-21-13.54-30-1.68-2.22-.16-3.81,1-5.36a33.13,33.13,0,0,0,5.09-8.74c2.12-5.66,2-10.84-5.13-12.88-6.28-1.79-7.49-5.07-3.83-10.39.75-1.08.73.19.4-.85-4.2-13.06,7.14-22.08,8.66-33.53.84-6.31,5-11,6.81-16.73,1.55-4.81,5.9-1.36,8.85-2.21,2.66-1.25,5.7-1.62,8.08-3.51h0c1.32-1.27,2.47-2.73,4.15-3.59,6.31-7.85,14-1.63,21.1-2.1a10.5,10.5,0,0,1,2.55,1.22c6.8,5.65,10.24,15.12,19.75,17.6,8.09,2.11,14.14,9.56,24.14,7.45,4.38-.93,8.72,4.58,13.61,6.48,6.69,2.6,2.12,9.53,3.29,14.42Z" fill="#312a22"/><path d="M830,952.05c-8,2.23-3.09,8.76-4.39,13.21-1,3.23,2.33,7.94-2,9.74-3.74,1.56-4.59-4.13-7.79-5-4.13-3.26-5-8.57-8-12.54-1.59-1.74-3.57-3.37-1.88-6.11,2.73-4.44,7.17-7.27,9.1-12.84,2-5.79,8.9-3.88,13.56-2.64s4,5.46,2.83,9.31A68.49,68.49,0,0,0,830,952.05Z" fill="#261d17"/><path d="M586.85,863.74c5.93-1.25,6.81,1,5.22,6.35-.79,2.72-2.58,9.77,5,4.23L603,874c2.47.43,6.06-.43,5.78,3.7a6.77,6.77,0,0,1-5.83,6.17c-8.15,1.44-16.12,1.68-20.27-7.64a8.13,8.13,0,0,1-1.66-1.9c-2.13-3.13-10.43-5.5-1.33-10.08,2-.33,4.08.49,6.1-.11C586.11,864,586.48,863.86,586.85,863.74Z" fill="#55453b"/><path d="M834.38,890.39c1.5-3.71,7.51-4.73,6.15-10.14,1.49.63,3.91.91,4.31,2,3.39,8.76-3.39,29.75-11.3,36.11-1.1.89-2.26,1.95-3.4.83a4.17,4.17,0,0,1-1.1-3.49,29.79,29.79,0,0,1,3.47-7.24C836.39,902.68,837.14,896.75,834.38,890.39Z" fill="#261d17"/><path d="M799.06,951.85c-4.55-4.06-9.24-7.63-15.87-4.59,2.94-6.18,7-7.61,12.44-2.84,1.83,1.62,3.71,2.89,6.2,3.05C802.87,950.15,802.62,952,799.06,951.85Z" fill="#352b24"/><path d="M829.92,851.16a4.11,4.11,0,0,1-3.39-4.22c0-1.91,1.05-3.11,3.09-2.87,2.42.28,3.27,2.28,3.48,4.2S831.93,851.17,829.92,851.16Z" fill="#261d17"/><path d="M799.06,951.85c1.89-.87,2.55-2.49,2.77-4.39,2.82-.23,3.78,1.46,4.07,3.86q.93,3.06,1.88,6.11C803.63,957.48,801.34,954.67,799.06,951.85Z" fill="#352b24"/><path d="M734,847.46c2.28,2.82,5.15,5.58,2.58,10.08C733.15,854.49,732.7,851.19,734,847.46Z" fill="#261d17"/><path d="M770.94,943.14c-2.45,4.2-6.46,2.53-10,2.62,1.87-1.72,3.77-3.4,5.59-5.17C769.26,937.91,769.23,937.88,770.94,943.14Z" fill="#352b24"/><path d="M856.82,920.88c-.12,7.11.27,14.27-1.72,21.24C855.48,935,852.68,927.67,856.82,920.88Z" fill="#261d17"/><path d="M895.71,827.41c-4.23,12.77-18.07,17.63-25,28.94,2.47-11.3-5.45-22-1.08-33.33.58-1.5,2-3.81,3-3.83,7.2-.11,8.56-6,11.77-13.47.56,9.83.95,16.83,1.34,23.82C889,825.81,899.52,824,889,817c-2.39-1.57-1.19-5.07-1.41-7.72s-.6-6-3.43-6.71a6.34,6.34,0,0,0-7,3.07c-4.14,7.1-11.76,12-11.93,21.75-.06,3.47-6.8,3.37-9.83,6.83-2.59,3-5.44-6.11-10.14-2.47-.05-1-.41-2.07-.07-2.88.91-2.21,2.58-3,4.88-1.78,7.25,3.93,6.06-1.16,7.05-5.69,2.38-10.92-.08-20.34-6.27-29.33-7.09,4.95-3.84,15.2-11.72,19.67-1.37-4,1.82-12.3-8-8-1.8.78-2.71-3-.38-5.2,1.73-1.61,1.78-3.56.31-5.43a2.25,2.25,0,0,0-3.52-.32c-1.9,1.53-3.93,3.42-3,6a54.83,54.83,0,0,0,5.4,10.84c2.13,3.24,1.28,6.71-.85,8.16-3.33,2.26-3.5-2.34-5.27-3.76-6.87-5.5-9.48-14.51-16.79-20.56-2.66,5.21.6,8.35,1.84,11.89,1.13,3.2,5.11,6.19,1,10-6.83-1.93-8.76-7.71-10.78-13.43a11.26,11.26,0,0,0-2.52-5.37c-8.38-9-8.71-9.34-.49-17.18,6.93-6.6,3.07-13.72,2.29-20.72-.2-1.84-1.59-3.64-2.42-5.45-1.27-4.57-8-7.78-3.61-13.8,3.16-4.54.93-9.19-.16-13.59-.47-1.89-4.18-3.11-2.44-5.78s4.33-.26,6.55-.25c1.7,0,3.31.68,6.11.71-12-2-18.86-9.38-25.4-17.31-4.32-5.35-10.92-5.94-16.55-5.47-8.82.75-12.22-3-13.23-10.7.85-3.37,1.38-8.27-2.29-8.6-12.81-1.15-11.68-11.53-14.46-19.44,1.35-4.14,1.78-8.48,2.72-12.71.57-2.56,1-5.66,4.2-6.25,3.64-.69,4.52,2.43,5,5,.63,3.22,2.62,4.4,5.52,4.83,6,3.77,1.81,9.08,2.17,14.27,4.06-2.08,8-4.34,12.66-3.93.67.16,1.33.32,2,.54,3.47,1.16,8.6.64,9.75,4.46,1.35,4.52-4.26,5.29-6.87,7.48-7.25,6.08-7.27,6.31-.25,12.75,5,4.65,11.41,4,17.34,4.9,3.67.56,4-2.89,4.64-5.5,2.11-8.81-1.32-16.66-4.33-24.58-1.64-4.32-5.07-8.29-2.67-13.41,1.47-1.73,3.41-2,5.5-1.71a8,8,0,0,1,2.71,1.22A15.31,15.31,0,0,1,795.51,659c-.28,4,2.23,6,4.77,8.31,3.63,3.35,5.85,2.49,7.57-1.68.9-2.18,1.5-4.57,3.07-6.36,3.72-4.25,8.62-6.51,13.45-2.84,9.68,7.34,16.73,17.32,24.59,26.45,2.13,2.47,2.45,5.85-.25,8.24s-5.23.24-6.86-1.85c-3.49-4.46-9.42-6.07-11.26-9.43,4.61,2.67,7.37,9.66,13.14,13.89,4.09,3,4.06,5.82-.36,8.52-7.13,4.37-5,9.23-.66,14.3.22,1.19,1.78-.31.53.24-.35.15-.55-.12-.59-.83-.46-9.09,4.57-13,13.06-11.11,5.74,1.28,12.46,7.36,17.14-2.57,1.44-3,4.8.47,7.31.76a11.26,11.26,0,0,1,4.81,3.08,15.55,15.55,0,0,0,2.84,2.89c10.85,6.81,10.87,6.82.85,14.08-2.11,1.53-2.93,3.63-3.44,6.76,5.71-4.7,12.63-4.86,18.79-7.19a6.39,6.39,0,0,1,4.69,1.06c3,2,4.74,7.26,9.82,4.49s9.69-6,8.78-12.9c1.64-4.07-2.1-5-4.1-7.08-5-5.13-4-8.62,2.43-10.72-2-.75-5.84-.17-6-4.19-.13-3.27,2.72-4.4,5.25-5.44,3.7-1.52,7.38-.18,11,.17,6.55-4.13,1.45-13.43,7.94-17.55a5.29,5.29,0,0,1,3.09,3.44,177.37,177.37,0,0,1,3,32.84c-.17,10.71-3.15,20.34-9.84,28.77-6.25,1.59-4.66-3.35-5.43-5.88a84.89,84.89,0,0,0,2.22,18.64c.11,10.61-4.22,20.2-7,30.14a5.49,5.49,0,0,1-4.08,2.75c-5.16-2.55-3.6-7.42-4.08-11.58.12-8.28,4.81-16.11,2.6-23.34-.79,3.41,2.17,8.76-2.64,12.74-7.93-1.71-15.77-2-24.61,1.7,4.2,2.61,6.94.59,9.79-.44,5.26-1.92,10.51-3.39,14.38,2.57.45,3.09-.28,6.09-.56,9.12-1.73,5.59-1.56,11.35-1.61,17.09,0,4.43-.36,8.83-2.47,12.83-1.71,3.23-3.4,8-7.65,6.74-3.64-1.06-1.38-5.64-2.09-8.63,1.79,12.54,3.13,25.3,5.34,37.55,1,5.74,6.78,11.92,6.84,19.34,5,13.29-1,27.21,2.4,40.59a9.37,9.37,0,0,1-1.64,5.87c-1.58,1.83-2.71,4.5-6,3.32-2.32-3-1.25-5.94.54-9.78-2.74,3.7-1.3,7.85-3.8,10.62-1.25,1.07-2.82,2-4.26,1.13s-1.45-2.61-.34-4.08q1.09-6,2.2-12c.57-10.39-2.66-20.84.83-31.28.45-1.35-3.74-3.91-4.47-6.81-2.37-10.9-7.21-21.41-6.15-32.36C897.49,823.17,898.11,826.13,895.71,827.41Z" fill="#312820"/><path d="M880.3,983.78c-2.84,2.74-4,1.74-4.06-1.78-2-18.1,3-35.36,7.25-52.52,1.77-7.05.22-15,5.14-21.22,6.92-1.12,8.37,3.25,7.87,8.48-.72,7.56-.66,15.34-4.1,22.44C884.45,953,887.22,969.68,880.3,983.78Z" fill="#191512"/><path d="M918.77,923.84c1.35-.57,3.08-2.37,3.65.57.75,3.88,1.16,7.82,1.71,11.74q-1.9,5-3.82,9.94C913.35,939.12,916.2,931.47,918.77,923.84Z" fill="#191512"/><path d="M900.22,905.45c-3.82-.51-1.18-5.24-4.17-6.29,0-3.95-2-7.85-.24-11.86,1-2.15,1.58-4.77,4.74-4,2.71.68,3.51,2.67,2.93,5.42C902.3,894.29,901.29,899.88,900.22,905.45Z" fill="#191512"/><path d="M766.87,583.54c-.19-5-3.55-8.4-6.07-12.24,6.37.63,10.07,7,17.71,6.53,6.12-.37,4.43,8.88,8.18,12.76,4.4,0,1.22-7.12,5.89-6.53s1.5,6.3,5.8,8.4c3.64,1.26,2.6-5.74,6.57-5.22,1.57,3.36-1.27,5.64-2.18,8.37s.52,4.85,2.54,3.9c6.57-3.11,11.13,2.31,16.71,3,4.45.57,3.75-6.72,9.56-4.93,2.12,2.68-2.94,9.23,3.76,10.81,3.65-3.34-3-7.68,2-11.7l3.59,8.68c6.76-3.08,10.64-13.08,21.4-7.23,5.25,2.85,12,2.85,9,12,2.35-4.9,8.17-4.1,10.82-7.82a3.84,3.84,0,0,1,2.49,1.06c1.17,1.61.61,3.26-1,4.32-3.08,2.05-5.09,4.45-3.4,8.88,9.2-1.77,7.94-14.93,17.88-15.93,3.66,1.92.06,7.28,3.83,9.38l.78,1.15a3.59,3.59,0,0,1-.5,2.84c-7.45,9.62-7.46,9.61,1.92,17.8,1,1.82.61,3.65.08,5.48-3.55,8.18-11.75,1.16-16.65,5-12-2-12.12-2.18-9.06-12.71.6-2.08,1.23-3.72-1.4-5-2.38-1.11-4-1.53-4.69,1.75-.27,1.26-2.29,2.81-3,1.85-6.08-8.54-14.54,1.84-19.83-2.13-6.82-5.13-14.37-3.24-21.33-4.37-10.18-1.65-20.87-.18-32.29-6.08,2.42,4.94,3.83,8.56-.81,10.51-4.11,1.71-6.38-.5-8-3.92-4,0-4.5-3.63-6.18-6C773.83,606.37,776.78,592.22,766.87,583.54Z" fill="#665b51"/><path d="M962.94,620.21c3,8.38,1.13,16.47-1.55,24.51-4.71-4-5.54-14-15.82-9.75-1.71.71-4.26-1.65-2,2.35a4.86,4.86,0,0,1-1.37,6.37c-2.7,2.17-4.23-.08-5.84-1.75-5.58-5.78-14.47-2.33-20.38-7.19-2.1-3.54-1.31-7.8,2.23-8.17,10.39-1.08,17.52-9,27.11-11.41.6-.15,1.22.35,1.72.86C952.26,617.63,959.18,613,962.94,620.21Z" fill="#51473d"/><path d="M947,616c-8.89,3.66-16.09,11-26.52,11.42-3.49.15-4.63,3.44-4.3,6.83l-1.25.61c-4,.07-6.69-2.84-9.9-4.55-7.94-3.47-9.34-7.29-4.56-13.89,1.58-2.18,4-3.62,1.43-6.49l0,0c.73-1.57,3.12-3.51,3.41-2.8,2.48,6.07,10.47,4.18,13.26,9.46,1.46,2.78,3.09,2.8,5.53.78,7.91-6.52,1,3.72,4.74,3,1.14-8.08,11.31-6.65,15.45-13.33C945.29,610.33,946.15,613.18,947,616Z" fill="#6a5e54"/><path d="M582.71,874.27c-.05.64-.08,1.29-.07,1.94-2.86,6.49-9.84,7.22-15.13,9.58-7.44,3.32-15.82,4.56-23.79,6.69a4.61,4.61,0,0,1-3.73.89c-3.46-.53-8.59,2-10.06-1.49-1.92-4.56,4.7-4.21,6.65-7a11.54,11.54,0,0,0,1.94-3.36c.17-.94.81-2,.47-2.77-.58-1.33-1.41-.15-2,.26-2.3,1.74-4.47,3.59-3.27,7-4.59,3.4-9.77,4-15.28,3.37-2.46-.27-4.8-.57-5.61-3.27s1.16-4.29,2.64-6.08c4.08-5,12-4.68,15-11.08,10.06-6,12.41-5.21,20.07,4.1,2.67,3.25,7.38,3.74,11.16,1.26C568.88,869.65,575.73,870.74,582.71,874.27Z" fill="#776356"/><path d="M539.55,882.17c2.36.41,4.33,1.4,1.29,3.35s-6.54,3.05-11.23,5.15c5.31,3,9.91,1.21,14.11,1.81-6,3.52-14.24,4.74-19.14,3.15-5.61-1.82-11.66-5.17-17.45-8,4.8-5.93-1.45-11.77-.15-17.68,2.79,0,3.94-1.6,4-4.19,2.07-2.64,3.59-6.26,8.12-4.42,3.56,3.42-1.76,6.8-.18,10.26,3.76.87,6.55-1.77,9.83-2.34a3.3,3.3,0,0,1,2.65.72c1.66,3.9-.42,5.79-3.91,6.06s-5.36,2.68-8,4.12-6.36,2.6-4.65,6.32c1.29,2.81,5,2.38,7.27,1.12,3.64-2,8.34.25,11.41-3.23C535,882.2,536.87,881.09,539.55,882.17Z" fill="#4f4138"/><path d="M498.45,851.75c4,5.54,12.21,9.12,8.53,18.2-1-.16-2.73-.06-2.88-.51C502.09,863.59,500.3,857.66,498.45,851.75Z" fill="#4f4138"/><path d="M642.26,685.32c-1.65-5.59,5.08-11-.55-17.45,13.55,7.63,18.56-4.61,26.56-9.45-1,7.1-4.86,15.86,8.62,14.41a2.35,2.35,0,0,1,2.56,0,7.53,7.53,0,0,1,2.24,4.94c-1.2,10,6.09.31,7.9,3.34.22,5,5.92,10.06-.76,15.07-1.14.86,2.3,3.47,3.71,5.2s3.72,5.64,2.59,5.78c-8.89,1-2.85,13.6-11.94,14.37,5.84.64,11.8.25,15.17,6.07,1.24,2.13,2.79,2.24,5.1,1.13,7.09-3.42,9.43,1.81,12.13,6.72,3.09,5.61.37,10.35-3.47,13.09-4.3,3.06-9,.64-12.49-3.36-3.35-3.83-7.58-6.75-11.93-11.15,0,5.71-3,7.82-7.54,7.8,2.89,3.21,9.32,5.41,3.19,11.36-15.3-5.47-32.63-7.09-42.91-22.15-.21-.43-.41-.86-.61-1.29,2.42-4.38,11.58-2.16,10.22-10.26-.38-5.09,1.72-8,7.05-6.52,4.79,1.3,12.15-3.27,13.83,5.7.42,2.23.08,4.65,1.42,6.74,3.77-8.21-5.44-11.48-6.73-17.73-4,4.13-5.75,1.3-7.23-2.32-4.23-4.78,3.69-7.64,1.94-12,3.63-2.67,4-11.7,12.38-5.11a28.57,28.57,0,0,0-4.25-6.77C660.87,690.75,650.39,681.23,642.26,685.32Z" fill="#8d7a68"/><path d="M642.26,685.32c7.23-5.57,14.76-3.79,23.39.72-.88-4.5-1.43-7.29-2.17-11.06,8,2.21,8.92,10.07,13.7,14.08,1.11.94.23,2.55-1,3.31-2,1.2-4,1.16-5-1.19-.86-1.89-1.53-4.07-4.13-3.42-3.19.8-1.06,3-1.08,4.8,0,4.24-.22,4.24-5.57.82-5.53-4.17-14.12.52-18.71-6.36C641.83,686.45,642.05,685.89,642.26,685.32Z" fill="#6e5f4f"/><path d="M658.39,705.41c2.58.63,8.8,10.27,4.66-4.45,5.69,4.51,2.29,13.67,11.58,12.95,1.78-.14-2.78,10.44,4.27,15-6.12-.11-10.48.55-10.17-6.36.1-2,1.41-8.28-2-7-5.54,2.15-13.23-5-16.71,3.94C647.34,711.63,647.89,705.63,658.39,705.41Z" fill="#b49f8c"/><path d="M611.3,728c1.74-5.69,7.61-6.39,11.54-9.44,3.36,4.44,11.61,3.83,11.82,11.75.07,2.72.85,2.7,5.17-.5l.42.41c2,3.18,1.06,5.79-1.93,7.55-3.26,1.91-6.38,1.72-8.69-1.74h0C624.15,731.9,616.46,732.8,611.3,728Z" fill="#8d7a68"/><path d="M611.3,728c5.9-1.33,10.67,3.43,16.6,2.94,2.32-.19,1.46,3.21,1.71,5.08-4.39-1.7-9.41,4-14-1.75-1.4-1.76-3.94,5.44-8.24,3.85,2.15-2.13.85-4.16-.18-6.2Z" fill="#4e4237"/><path d="M603.07,740c-.81,3.33-4.53,3.38-6.37,5.56-5.44.21-7.66-3.75-10-7.58a8.69,8.69,0,0,1,.19-1.9C594.15,729.87,597.28,740.35,603.07,740Z" fill="#8d7a68"/><path d="M607.21,731.91c3.14,2,2.78,4.06.18,6.2a4.27,4.27,0,0,1-4.31,1.93C601.38,735.79,602.87,733.13,607.21,731.91Z" fill="#8d7a68"/><path d="M678.82,672.92h-1l-1-.1c-.88-5.19,1.39-19.14,4.21-22.55,1.81-2.19.5-3.63-.12-5.44-.53-1.56-1.52-4.45-1.25-4.58,12.43-5.92-2.34-8.32-1.18-13,2.88-1.71,4.93,4.82,8.41,1.66,3.18-2.88.43-5.74-.21-8.39-1.55-6.41,2.76-11.1,6.33-14,4.41-3.52,6.41-5.47.41-11.09,8.92,4.12,9.87-1.5,11.75-5.82,0,3.57.54,6.85-1.75,10.44-5.18,8.13-3.23,17.3-2.18,26.2,2.75,8.43,9.15,14.89,12.54,23,.9,2.17,3.19,4.32,2.66,6.44-2.47,9.85,5.12,9.38,10.8,10.34.76.13-1.4-3.34-.69-5.32a5,5,0,0,1,1.34-2.54,3.24,3.24,0,0,1,4,.62c1,4.12,4.89,7,4.33,12-.51,4.45,3.44,4,6.5,4.17,6.95.36,9.18,5.28,5.6,12.27-3.37.67-3-1.51-3-2.09,2.28,7.7.59,17.3,3.09,26.7,3.36-4.7,6.67-8.63,10.91-1.1a28.28,28.28,0,0,0,2.22,4.48c3.7,5.57,2.09,8.13-4.52,7.46-2.56-.27-4.68-.06-6.07,2.37-5.22,2.57-6.94-1.91-9.7-4.72-1.78,4.47-.83,7.56,4,9.41s8,5.28,3.45,9.84c-3.1,3.13.28,2.88,1.16,3.86,2.31,2.53,1.64,5-.07,7.34-2,2.7-4.78,2.35-7.4,1.33-4.65-1.8-8.86-4.86-9.15-9.92-.32-5.42-1.29-8.58-7.55-7.48-4.24.75-5.57-2-5.52-5.38.09-6.1-7.46-7.91-7.5-13.8-3.06,1.31-5.67,1.15-8.16-1.52-5.88-6.28-6.75-14.59-9.5-22.14a2.32,2.32,0,0,1,1.56-3.22c1.79-.52,3.2.44,4.69,1.32,2.09,1.25,3.48,5.32,6.61,2.75,2.27-1.85,4.08-4.87,3.8-8-.31-3.49-3.74-3.59-6.34-3.86-10.34-1.07-4-8.41-4.69-13.23-7,6-7.28,5.86-9.6-3C690.19,677.84,688.52,678.94,678.82,672.92Z" fill="#584b3e"/><path d="M648.68,620.71c4.21-1.63,6.54,1.92,9.61,3.45,3.2,3.21,0,6.92.63,11.54,5.52-6.7,8.2-14.71,18.13-18.66-4.73,11.57-3.77,23-8.41,33.38l-6.43,9.66c-2.18-4.09,1.6-6.3,1.61-9.44-3-1.6-3.92,3.42-7.27,2-.15-3.28-.3-6.82-.52-11.67-3.58,5.88-6.07,11-11.81,14.52-.64-7.36-4.78-14,3.89-20.07C652.13,632.62,650.07,625.78,648.68,620.71Z" fill="#968472"/><path d="M732,658.77h-4c-1.1-.76-1.63-2-2.68-2.85a9.23,9.23,0,0,0,2.68,2.85c1.15,4.78,2.31,9.57,3.67,15.23-4.5-1.59-5.51-12.54-12.06-4-3-2.61-7.9-5.93-6.9-9,3.54-10.8-4.84-16.7-9.07-23.92-2.26-3.88-3.39-6.84-2.3-10.88,17,11.14,16.41,11,21-9.46,1.39-6.22-3.15-12.24-1.32-15.78,6-11.68-.39-24.43,4.89-35.73,5.23-5.54,17.33-4.28,22.39,2.32-5.27-.19-9,2.55-12.1,6.34-5.57,1.47-1.36,4.5-.54,6.24.7,1.49,3.52,1.52,4.87,3.09-5,12.46-2.44,24.31,3,35.93,1.1,2.38,2.94,4.61,1.24,7.44-8.6,4.6-.74,9.27,1.31,11.18,4.57,4.23,5,7.91,2.37,12.82-11.77,6.29-6-6.48-10-9.23C732.41,645.93,738.18,654.63,732,658.77Z" fill="#44382e"/><path d="M783.2,646.56c-.4,3.57,1.19,6.57,2.77,9.57,2.86,5.41,4.32,11.26,6,17.11,2.17,7.67.41,14.5-3.3,20.85-1.18,2-21.76-4.11-23.41-7.39-1.44-2.86-4.43-3-5.9-5.1-1.36-1.9-4.37-4.84.19-6.31,5.66-1.83,7.69-8.33,13.8-9-2.78-4.38-9.3-.09-10.84-5.82-2.47-7.1-3.29-14.77-7.28-21.36.56-6.87-2.08-13.93,1.13-20.67,9-9.28,9.46-9.09,15.44.66,2.56,4.17,5.68,8.5,11.4,9.19,4.22-.39,5.31,1.36,3.52,5.07C782,636.84,785.3,642.41,783.2,646.56Z" fill="#1c1611"/><path d="M785.17,632.29c2.37-2.83-.64-3-2-4q2-3,4-6c7.09,3.46,10.63,2.65,8.6-1.44-1.33-2.68-3.1-4.89-2.62-8.65,11,3.67,21.39,10.33,33.35,4.9,5.36,8.82,16.18-2.52,22.87,6.57,2.92,4,10.31-.84,14.32-6.79,2.2,3.39,1.25,8.5,6.5,10,2.26-2.37-.33-6.65,3.58-9.37,2.15.28,1.11,6.57,6.13,4.69,1.53-.57,5.26,4.73,2.56,7.18-11.21,10.14.13,9.14,5.28,11.27,4.88,5.11,1.25,7.83-3.09,9.9-5,2.38-10.32,4.12-15.3.07-1.92-1.56-.82-3.73.49-5.41s2.42-3.8.32-5.31a51.39,51.39,0,0,0-14.26-7.25c-6.2-1.86-13.18.67-20-3.63-4.9-3.1-6.06,6-10.3,7,7.37,7.15,17.1,10.3,26.14,14.69,1.86.9,3.9,1.67,3.77,4.16s-2.12,3.19-4.14,3.77c-7.16,2-21.51-2.64-26.11-8.53-.6,2.61,0,6.51-4.77,5.07-5.61-1.7-12.6-1-15.27-8.15-1.85-5,2.3-5.43,5-7.21-4.47,1.76-10,.65-12.84,6.66-1.5,3.13-5.3,2.06-8.07.12h0A95.28,95.28,0,0,1,785.17,632.29Z" fill="#52463b"/><path d="M756.33,618.44c1.34,6.68,1.8,13.37.16,20.07-2.85,2.59-6.36,3.65-8.61,2.77-2.47-1-2.41-2.39-1.69-4.73,1.13-3.68-5.53-6.11-2.06-10.46-1.2-5.26-4.14-13.94-5.25-14.66-10-6.46-3.74-12.6-1.37-19.16,1.29-3.59-4.23-1.24-4.44-4.14,1.31-2.9,6.48.07,6.86-4.3,1.18-4.38-.88-7.58-3.85-10.45.89-8.51,5.09-10.18,12.19-5.78,2.67,5.36,3.75,10.62-.93,15.55-2.1,2.21-1.41,4.89.53,6.06,6.49,3.89,5.39,9,3.61,14.81S751.85,614.58,756.33,618.44Z" fill="#a68b71"/><path d="M766.87,583.54c6.81,3.17,12.92,6.71,8.72,15.84,3.56,1.35-1.13,6.32,2.76,7,8.64,1.47,3,6.26,2.65,9.85-7-2-10.23-6.5-10.14-13.86C771,595.87,769.16,589.61,766.87,583.54Z" fill="#52463b"/><path d="M633.77,638.41c7.63,9.14,5.73,21.3-4.79,31.06-8.91-6.5,1.81-9.46,3.43-13.11,2.79-6.34,2.6-11.84,1.34-17.94Z" fill="#8e7c6a"/><path d="M519.17,861.91c-3.6-.52-5.21,3.13-8.21,3.85,2.26-7-2.76-11.14-6.2-15.93,4.59-2.49,10.4-2.1,14.39-6,5,.63,9.87,1,14.44-1.63,3.58-1.32,7.3-.17,11.68-.68,0-3.4-3.78-6.41-1.68-10,.91-4.39,3.42-7.89,1.25-13.43-3.43-8.76,1.52-16,9.09-21.2,3.47,3.67,1.39,7.2-.22,10.78-1.91,4.22-2.81,8.21,2.91,10.35a3.7,3.7,0,0,1,2,1.84c-5.14,9.79-.63,20.3,10.61,24.5,3,1.1,5.91,2.1,6.07,5.83.22,5.26-2.74,12.07,7.1,12.09,1.13,0-.55,2.65-1.86,3.65-2.89.88-6.34,1.73-.77,4.1,2,.84,5.08.63,3,4.21-7.17,1.1-15.11-3.67-21.54,4-2.95,3.49-7.24-1.38-11.41-1.23-8.24.28-1.72-4.42-1.47-7a2.53,2.53,0,0,0-3.31-2.66c-4.4,1.77-9.69-1.1-13.6,2.69l-1.86.34c-3.11,1.43-5.63.55-6.3-2.67-.59-2.83,2.1-4.07,4.35-4.72,3.41-1,7.26-1.08,8.56-6C530.16,858.37,526,865.08,519.17,861.91Z" fill="#998372"/><path d="M543.59,831.55c2.17,3.47,1.94,8.7,9.25,9-7.09,6.16-13.6,1.9-19.35,3.19-3.24,2-5.25,0-6.58-2.41-2-3.66-5.51-5.9-8.11-9-.53-3.9-.29-8.3-5.84-9,0-2.95.16-5.93-4.06-6.07,4.86-4.64,5-4.79,9.45-1.44,2.09,1.56,3.08.1,4.08-.92,2-2,4-3.57,6.87-1.77.32,2.87-.29,5.2-3,6.86-2.58,1.56-3.9,4.34-2.52,6.93,2.17,4.08,3.52-.76,5.37-.95,6.74-.66,2.82,5.52,5.63,8.13C537.63,834.47,538.38,823.56,543.59,831.55Z" fill="#c6b5a4"/><path d="M556.22,819c-1.68.22-4.44,3.23-4.72.46-.35-3.6-5.68-6.46-1.63-10.7a14.14,14.14,0,0,0,4.06-11.87c6.85-6.74,12.39-14,10.2-24.46l5.85-2.14c3.22,1.09,4.14,3.23,2.94,6.32-4.3,11.05-10.19,21.32-4.64,34.42C570.1,815.35,561.35,817.66,556.22,819Z" fill="#766655"/><path d="M513,823.31c8.1-1.74,10.32.9,6.23,8.24,3,4.72,2.74,9.4-.16,14.06-2.81,7.89-9.31,3.47-14.27,4.22-4.79-2.07-1.49-7.29-4-10.23A32.11,32.11,0,0,1,513,823.31Z" fill="#d1c4b7"/><path d="M556.22,819l11.13-8.7c.81-2.49-11.3.56-3.1-5.78-5.7-11.93,5.42-19.64,7.43-29.62.28-1.37-1.09-3.06-1.69-4.61,1-4-1.32-10.22,6.81-9.65.9.06,3-3.7,2.93-5.63-.26-6.86,3.74-11.73,7-17l10,7.58c-.71,2.16-2.18,2.45-3.87,1.26-2.72-1.92-2.29-1.12-4.92,1.33-9.22,8.57-2.65,23.2-13.81,30.24-3,1.9-2,6.23-.91,9.5.63,1.81,3.12,3.31,1.74,5.42-4.64,7.07-7.44,13,5.5,12.19-.15,5,6.17,9.71,2,14.44-3,3.35-1.94,8.73-6.57,10.85-.69.32-1,1.39-1.52,2.11,9-.51,2.56,9.67,9.25,12.68,6.16,2.78,1.89,12,3.29,18.13l-.2.32c-6-3-13.16-5.08-11.06-14.38a3.69,3.69,0,0,0-2.46-4.11c-15.17-3-12.4-16.21-15.24-26.22C557.33,819.27,556.77,819.16,556.22,819Z" fill="#4c4136"/><path d="M797.72,752.13c2.22,5.44,8.92,9.64,3,17.14-2.56,3.22,4.08,3.33,5.38,6.83-9.29-.74-8.28,10.8-18,11.94,6.56,4.26,13.36,5.62,13.55,13-11.51,2.85-18.72,10.84-24.65,20.34-3.39,1.29-3.4,4.72-4.84,7.29-1.79,3.18-4.34,2.82-6.62.34-2-2.17-1.47-2.55.76-5.39,5.89-7.47,2.73-15.93-3.34-24.71-1.77,9.86-13.59,14.2-8.76,25.2-5.22.88-2.82-5.45-7.34-5.21,1.14,3.52,2.37,6.88,3.28,10.32.49,1.88,1,4.33-1.31,5.31s-4.67-1.32-4.72-2.72c-.28-6.8-8-7.36-10-12.46-.12-2.81-2.59-6,.51-8.32,2.85-2.12,4.8.27,6.45,1.74-1.11-5.63-6.75-7.12-11.17-9.89.62-4.63-6.64-3.31-6.05-7.91-4.12-6.89-7.48-14.26-12.92-20.33,0-3,1.59-4.58,4.42-5.13,11.09,3.31,20.88,10.21,32.56,11.82,4.9.68,6.9,1.78,3.61,7-3.62,5.68-1.64,11.69.09,17.85,3.33-1.82,1.77-3.89,1.72-5.74-.21-8.43,3.12-11,11.06-8.39,2.13.7,4.41,3.07,6-.32,1.17-2.54-.51-4.44-2.53-6-5.69-4.43-9.55-12.54-19.54-7.21-3.13,1.67-5.1-2.15-3.22-5.81,3.39-6.59,12.51-9.09,19.08-4.82,3,2,5.52,3,9.36,2.1,4.45-1,8.72-1,7.16-7.45-.43-1.81,1.19-3,2.73-3.89s3.38-1.46,5-2.26C791.45,754.83,793.23,750.45,797.72,752.13Z" fill="#473d34"/><path d="M777,821.34c2.88-10.1,7.69-18.33,19-21.12,2.35-.58,3.8.23,5.62.78.62,6,5.26,9.66,8.32,14.24.29,2.89.57,5.79.92,9.28-5.15-.95-9.33-1.38-11.93-7.26-2.33-5.25-13.6-4.51-16.52.42-.59,1-.89,3.07-.31,3.64,1.5,1.49,7.91.65,2.56,4.93-4.13,3.31-5.63-1.18-7.27-4C777.21,822,777.1,821.64,777,821.34Z" fill="#605349"/><path d="M711.56,774.55c8.75,4,10.66,12.1,12.22,20.38-9-7.17-10.8-7.66-26.78-6.54-4.22.29-4.29-3.42-6-5.61l.08-.1c1-4.35,4.09-7.85,3.41-13s3.44-4.85,6.72-2.84C704.88,769.07,707.76,772.42,711.56,774.55Z" fill="#312a22"/><path d="M729.83,802.84c10.54-.72,13,6.17,14.58,14.55-5.13.89-4-6.64-8-5.45-4.92,1.82,4.92,6.43-2.33,7.37-4.95-.47-7.71-6.55-13.53-5.17-.81.19-2.49-2.24-1-3C723.58,809,723.59,802.07,729.83,802.84Z" fill="#65584e"/><path d="M711.56,774.55c-7.85,3.41-8.38-7.7-15.78-7.22,5.2,7.28.68,11.47-4.68,15.35-1.1-2-3.68-4.95-3.07-5.92,5.15-8.2-.87-6.65-5.8-9.37-6.27-3.45-15.45-.94-17.22-3.48-4.93-7-13.23-7.74-18.87-10C636.6,750,635.53,741.4,629.63,736c6.13,2.72,9.9,1.2,10.62-5.81.34,0,.88-.17,1,0,10.3,14,28.32,13.72,41.61,22.16,10.4-1.77,17.1,3,20.69,10.5-.7-1.1-.94-3.58,2.14-5,4.12-1.84,7.05,1,9.85,3.29,3.5,2.85,3.83,6.08.23,9.26A7.12,7.12,0,0,0,711.56,774.55Z" fill="#4e4237"/><path d="M557.89,819.36c-.32,5.9,9.38,8.2,5.28,16.22-1.25,2.44,3.3,8.08,8.67,7.08,3.36-.63,4.71.39,4.52,3.22-.59,8.4,4.11,13.66,10.29,18.19.52,3.43.52,3.43-6.14,1.89-1.26-4.32-1.26-4.32-7.91-.28-1.66-1.9-.84-4-.86-6.15-.06-5.36,6.54-14.85-7.32-12.57-2.78.45-4.37-2.21-4.2-4.65.54-7.59-4.1-6.89-11.5-4.3C554.4,831.06,549.87,822.76,557.89,819.36Z" fill="#766655"/><path d="M789.36,646.54l6.06-.43c-2.53-10.05,8.52-5.3,11.3-10.08,1.59-2.71,4.95.26,7.35,1,1.76.54,1.85,2.5,1.2,4.3-1.69,4.77-6.14.68-8.68,2.55,1,10.09,11.24,5.47,15.41,10.11,1.81-1.06,1.35-2.22,1-3.57-.58-2.37-4.33-5.46-1-7,4.89-2.24,3.5,3.12,4.68,5.4C830,655.36,841,658,854,654.68c-7.71-.3-11.89-7.24-19.62-8.88-4.15-.89-9.29-6.24-13.36-10.28-.64-.63-.09-2.44-.08-3.7,7.51,5,6.37-5.22,10.88-6.22,2.83-.62,5.58-1.92,7.34.55,7,9.94,15.68.68,23.67,2.84,1.23,2.23-2.47,3.89-2.35,7.7,7.22-5.65,10.82-1.45,14,3.77,3.12,5.06-3.93,4.76-4.23,8,10.22,4,17.14,1,17.52-7.83,3.84-.16,7-5.39,11.64-1,1.16,1.11,2.37-1.48,2.64-3.14,4.3-3.37,10.22,3.38,14.15-2.23h0c5.15,3.21,11.08-.84,17.24,2.58,3.05,1.69,4.49,4.81,7.13,6.75,3.66-4.86-1.85-9.14.46-12.62,8.92,1.44,20,.11,20.37,13.73q-1.17,4.95-2.33,9.89c-1.47,3.12.42,10.15-7.35,6-.83-.44-.36,1.83-.18,2.74.66,3.25,1.63,6.46,1.29,9.82-.21,2.08-1,4.05-3.2,4.56-3.38.76-3.29-2.48-4.47-4.23L943.49,671c-2.08-.82-1.56-2.61-1.76-4.23a192.44,192.44,0,0,1-4.43,26.15c-5.27-4.44-10.52-5.22-16.61.31,3.79,3.42,9.42,2,12.49,5.72-2.67,5.16-11-3.51-11.2,3.61-.16,5.17,6.3,6.82,12.79,8.13l-6.28,5.07a15.31,15.31,0,0,1-2.56,1.55c-3.45,2.45-13.17,3.62-18.12,2.1-4.44-1.37-1.56,3.72-3.82,4.3-1.37,4.53-5.49,2.45-8.25,3.6-3.69,1.54-8.69,1.1-10.36,7C879,721.85,887.38,720,895,718c-.18-7.74-11.15-3.34-11.45-10.62.56-.9,2.83-1.24,1.49-2.72-2-2.19-4-1.46-5.57.79-2.39.4-6.39-5.51-7,2.47-.27,3.31-3.79,5.35-9.42,2.9-4.2-1.83-9.84-9.61-16.94-.8-3.88,4.82,0,5.38,1.73,8.68-7.09-.59-11.78-4.17-12.74-9.21-1.21-6.31,5.21-8.5,10.91-11.51-9.48-3.92-12.28-13.46-19.2-19.29-1.79-1.52-3.55-3.89-.78-5.95,2.26-1.69,4.14.5,4.78,2.13,3,7.71,12.16,8.74,15.39,15.56,2.33-1.07,2.91-3.1,2.24-3.64-7.78-6.23-9.75-17.62-19.67-21.83-1.5-.63-4-.46-3.79-2.48.5-4.9-2.13-6.09-6.09-5.52-3.47.49-6.38,2-7.34,6a22.6,22.6,0,0,1-2.83,7.52c-2.49,3.64-4,4.55-9.2.92C789.91,664.66,795.92,653.36,789.36,646.54Z" fill="#393028"/><path d="M789.21,758.14l-4,2.28c-3.09-2.29-7.73-2.32-9.48-6.55,1,2.59,3.43,4.35,4.18,7s4.33,5.75.28,8c-3.33,1.82-5.62-1.39-7.52-3.69-6.16-7.48-9.12-17.31-17.51-23.23a3.74,3.74,0,0,1-.73-5.45c1.15-1.52,3-1.49,4.66-1.43,3.2.12,5.7,1.83,9.13,4.41-4.49-8-12.73-10-17.72-15.66-.63-1.86-1.76-4.15,1.72-4,3.17.11,6.31.77,9.33,1.17,2.08-4.44-6.36-4.81-3-9.31-2.09-4.08.58-4.66,3.63-4.65,4.13,0,8,1.63,11.73,2.61,3.56-1.6-4-9.66,4.93-7.73,7.35,5.42,10.55,17.09,23.27,14.61,3-.58,2.82,3.43,2.48,5.5-.81,4.91-2.81,1.18-4.67.55a83.53,83.53,0,0,0-9.33-2.06c5.73,6.27,10.37,12.32,3,19.79-7.42.51-10.22,3.59-6.25,10.74C788.58,753.11,790.57,755.25,789.21,758.14Z" fill="#78695c"/><path d="M778.91,701.8c-6.92,4.26,2.4,7,.91,11-4.39,1-8-2-12.09-2.6-2.94-.42-6.89-4.15-9.11,1.34-2.09-.48-3-5.93-6.16-1.64-2,2.76-4.34,4.08-7.73,3.48,3.36-4.76-4-8.77-2.76-10.14,6.91-7.6-2.39-16.51,4-23.47,1.66,1.46-1,5.86,2.42,7.42,2.94,10.87,13.22,6.13,19.89,9C772,697.83,777.17,696.49,778.91,701.8Z" fill="#453930"/><path d="M744.13,626.09c-1.14,4.55,7.56,6.41,3.51,12.31-.34.49,5.68,1.53,8.85.11,8.5,5.57,6,14.12,6,22-1.63,4.22-9.58.51-9.21,7.23-1.93-.07-4.07.36-5.73-.34-1.92-.81-.79-2.76-.39-4.32,1-4.06,3.38-8,1.21-12.4-3.94-2.87-.11-8.5-5.14-12.1-2.86-2-5.41-6.92-8.85-9.95C737.43,624.63,741.13,626.94,744.13,626.09Z" fill="#756250"/><path d="M890.29,777.06c.49,6.86-4.51,1.19-7.39,3.37-6.4,4.84-7.24,13-13.76,17.41-3.56,2.43-5.82,2.17-9,1.09-5.24-1.75-.26-4.24-.34-6.32-.11-2.93.81-5.89,1.23-8.84.65-4.55.64-9.28,6.69-2.9,4.12,4.36,6.33-.24,8.25-3.34,3.44-5.56,7.8-5.81,12.81-2.28A8,8,0,0,1,890.29,777.06Z" fill="#261d17"/><path d="M904,723.69c-.85-2.44-1.71-4.88-2.49-7.1,9.21-5.81,5.41,2.89,13.3,1.32,1.11-9,2.67-3.85,13.69-2.17,6.51,11.32-6.11,11-10.1,15.59-4.63,5.34-6.44-1.66-9-3.71C907.61,726.24,906.79,723.71,904,723.69Z" fill="#56493f"/><path d="M926.37,780.6c4.19,12.45,2.93,24.61-2,36.58-2,.33-2.92-.38-2.53-2.45l.69-36.17c-1.16-3.73-3.33-7.62,1.59-10.43C925.14,772.24,922.81,776.94,926.37,780.6Z" fill="#312820"/><path d="M789.21,758.14c-2.05-3.41-3.89-7-6.19-10.21-3.44-4.85,1.36-7.68,3.26-10.18,2.53-3.34,4.63,2,7.34,2.44-3.94,5.78,5.08,7.17,4.1,11.94C793.74,752.54,793.68,758.42,789.21,758.14Z" fill="#6a5c50"/><path d="M919.91,762.5c-4.47-2.17-8.64-2.28-13,.78-1.8,1.27-4.47,1.47-6.8,1.8-3.3.48-6.8-.45-7-3.94-.19-2.67,2.95-5,5.79-4.58,7.2,1.14,15.13-6,21.67,1.87A2.73,2.73,0,0,1,919.91,762.5Z" fill="#51453b"/><path d="M903.86,952.63c-4.63,2.69-4.23-.76-3.85-3.35,1.14-7.73,2.52-15.43,3.81-23.13q1.13-5.32,2.24-10.64l1.59-.09q.38,5.3.77,10.58-1,8.4-2.08,16.81Q905.11,947.72,903.86,952.63Z" fill="#191512"/><path d="M818.25,705.46c16.74-.41,11.78,11.69,13.43,19.48Z" fill="#393028"/><path d="M934,719.36c5.87,5.95,0,12.21,4.63,16.37.45,4.65-1.25,8.68-3.7,12.49" fill="#312820"/><path d="M785.17,632.29c5,3.7,6.91,8.3,4.19,14.25l-6.16,0C781.54,641.49,777.88,636.15,785.17,632.29Z" fill="#393028"/><path d="M937.3,692.9c-2.29-10,1.48-19,4.16-28.5,2.95,1.88,1.7,4.43,2,6.58C942.33,678.54,942.59,686.49,937.3,692.9Z" fill="#393028"/><path d="M834.09,770.36c13.94,5.32,2.5,11.48,4.39,17.44C831.57,782.69,838,776.71,834.09,770.36Z" fill="#67594b"/><path d="M879.49,705.44c-2.57-6.87,2.93-5.72,5.4-4.25s6.29,2.78,6.06,7c-2.75,2-4.86-1.29-7.38-.86C882.67,705.77,881.13,705.51,879.49,705.44Z" fill="#605549"/><path d="M967.8,841.05c-2.69,2-4,2.26-3.55-2,1.23-12.63,2.1-25.3,3.11-38a14.45,14.45,0,0,1,1.16-10.8c7.89-14.09,9.29-30,14.07-45,1.75-3.64,3.77-7.16,5.57-10.79,1.05-2.11,2.43-4.79,5.08-4.2,2.47.55,2.85,3.46,3.29,5.8-.35,5.36,2,11.12-2.36,15.9-7.74,17.82-20.09,34-18.37,55.07C976.78,819.09,971.83,830,967.8,841.05Z" fill="#312820"/><path d="M941.34,752.17l-.24-3.28A144.15,144.15,0,0,0,948.93,736c-1.26-7.51,4.26-14,3.68-21.15a121.12,121.12,0,0,1,4.68-43.65c4.73,7,1.23,14.76,2,22.13,1.33,10.65-2.69,21.24-.37,31.9q-5.89,14.67-11.81,29.33A17.09,17.09,0,0,1,941.34,752.17Z" fill="#312820"/><path d="M979.52,650.54q-.85,5.28-1.69,10.56c2.11,12-1.19,24,.32,39-5.82-8.85-9.15-15.18-8.42-23.2.85-9.35,1.28-18.74,1.89-28.12,1.36-3,2.71-5.94,4.63-10.17C977.54,643.31,978.53,646.92,979.52,650.54Z" fill="#51473d"/><path d="M951.6,839.8l-.06,7.9c-2.28,5.89,1.35,10.86,2.79,16.09,1,3.49,2.23,6.85,2.24,10.52-.11,5.09.17,10.3-4,14.26a3.14,3.14,0,0,1-3.2.14c-2.51-10.86-9.55-20.69-7.51-32.59,4.08-6.43.27-13.67,2.1-20.33C949.18,832.12,950.22,836.29,951.6,839.8Z" fill="#352b24"/><path d="M955.85,790.29c-3.2-11.06-1-21.91,1.73-32.6,1-3.87,2.56-7.53,2.25-11.62.9-.36,1-4.58,2.08-1.46,2.79,8,5.65,16.08.94,24.94C959.47,775.91,958.11,783.34,955.85,790.29Z" fill="#393028"/><path d="M965,733.35c1.1-8.2,3.38-16.26,2.34-24.74,4.12-.54,5,3.69,8,4.22,4.08,10.45-4.05,20.09-2.07,30.41-4.46.74-3.3-5.3-6.88-5.62C964.84,736.54,965,734.92,965,733.35Z" fill="#393028"/><path d="M998.86,686.43c-1.74,8.5-3.46,17-8.81,24.62-1.82-11.08,6.79-20,5.32-30.67,1.94-2.84,3.8-3.87,4.6.6C1000.29,682.78,998.11,684.37,998.86,686.43Z" fill="#51473d"/><path d="M901.91,610c3.86,2.09,4.3,3.63.67,7.21-4.72,4.65-4.9,9.59,3.44,11.09,1,2.26-.25,3.28-2.19,3.91-5.11.9-7.09-5.33-11.88-5.14,2-5,1.54-11.41,8.28-13.73C901.07,613,901.36,611.11,901.91,610Z" fill="#847566"/><path d="M903.83,632.17l2.19-3.91,10.17,6c.39,5.44-2.12,7.28-7.16,5.38-2.38-.89-4.06-3.41-7-3.15Z" fill="#51473d"/><path d="M539.55,882.17l-6,2.2c-4.89-5.2,2.4-5.66,3.55-8.5.48-1.19,2.19-4,4.48-1.38C544.61,877.92,540.48,879.67,539.55,882.17Z" fill="#998372"/><path d="M519.17,861.91c8-.61,13.08-11.1,24.47-6-7.16,1.94-7.23,11.86-16.18,9.24-.83-.24-3.71,1-2.29,3.16.76,1.14,2.85,1.39,4.35,2.05-1.09.78-2.06,1.92-3.27,2.27-3.69,1.09-7.92,5.17-11.1,1.73s2-6.28,3.42-9.46A14.16,14.16,0,0,0,519.17,861.91Z" fill="#776356"/><path d="M750.52,723.74c10.62,1.43,17.57,8,20.85,20.24-5.89-1.36-8.6-9.8-17.62-5.52,13.13,6.3,15.23,21,27,31.28-.83-9-8.65-12.53-7.07-19.93l11.54,10.61a6.61,6.61,0,0,0-1,.13c.19,7.46-.68,12.86-11,12.61-2.45-.06-4.87,1.73-7.67-.75-8.73-7.73-12.68-6.87-20.36,4.67,4.23-1.3,7.81-2.49,11.44-3.48,3.36-.93,7.28.18,7.13,3.39-.26,5.17,3.1,5,6.09,6.33,6.12,2.73,4.69,7.61,2.55,12-3.18,6.49-5.79.39-8.58-.75-2-.82-3.31-4-6.13-1.7-2.61,2.11-4.42,4.91-2.2,7.9,4.1,5.54-.95,7.92-3.9,8.5-6.87,1.33-2.87-4.6-4.06-7.27-1.63-3.69,1.08-7.39-1.75-11.48-3.49-5,5.16-2.18,5.71-6.77-6.08,2.75-10.93-4.91-17.33-.71-.92.6-2-2.3-2.22-4-.29-2-.87-5-3.38-3.43-7.2,4.61-9.47-1.32-12.87-5.16-.45-2.42,2.63-5.71-.9-7.16-3.09-1.26-5.76-7.1-9.21-3.26-2.66,3,3.91,3.28,4.45,6.2.16.91.43,1.81,1.32,5.44C701,764,695.2,752.79,682.85,752.36c3.77-6.9-4.65-7.34-6.35-12,6.79-.27,14.43-.47,3.26-11.47,11.42,2.59,16.56,9.13,21.51,14.72,3.31,3.74,6.53,3.63,10.31,4-.66-3.41,5-5.63,3.33-7.42-3.11-3.4-2-9.42-7.33-11-.59-.18-1.7-.31-1.84-.06-8.11,14.36-8.32-.81-11.31-3.26-4.22-3.45-9.72,2.33-13-3.5,2.28-.79-.57-6.79,5.43-6,2,.26,1.61-1.25,1.09-2.68-2.41-6.63-2.36-6.65,6.68-6-3.68-5.37-10.47-8.21-10.16-15.27,2.43-1.55,3.28,1.84,6.31,1.58-2.92-4.12-2.22-8.48-1.81-12.82.87-.55,2.06-.12,2.77-.76.25-.22-.58-.57-1.43-.49-3.5.33-7.46,1.93-9.4-2.87-1.67-.88-2-2.43-2.08-4.12,5.39,1,11.91,4.15,9.72-6.55a7.46,7.46,0,0,1,3.81-7.77c2,3.55-.57,8,2,11.3,5.14-.75.42-7.07,4.88-7.48a3.74,3.74,0,0,1,4,3.78c.23,3.78,4.75,8.57-4.93,10.28,7.6,3.09,16.49.16,17.52,7.41.6,4.19-3.4,11-7.33,13.35-5.25,3.12-6.53-6.08-11.76-7.12,5.61,5.47,3.69,13.3,7.74,19.77,5.57,8.9,6.64,3.73,9.81-1.78-.66,6.64.92,11,6.28,14.12,1.95,1.12,3.27,4.2,2.43,7.26-1,3.63-.4,3.16,3.27,2.39,5.76-1.2,11.79-1,9.66,9-1.22,5.66,4.29,9.08,10.16,10,2.31.35,2.68-1.68,3.34-3.11,1-2.07-.32-3-2.13-3.65-2.12-.77-4.67-.91-5.84-3.63,1.91-2.64,7.46.53,7.62-4.48.16-4.77-3.91-3.65-6.61-4.32-5-1.21-6.74-3.74-4.56-8.79,1-2.31.89-5.07,1.34-8C744.1,716.57,743.6,725,750.52,723.74Z" fill="#6a5c50"/><path d="M680.9,677c3.39,1.61,6.8,3.57,10.16,0,1.57-1.68,3.52-2.6,5.1-.6,1.26,1.57-.87,2.9-1.48,4.36-1.76,4.23-3.7,2.09-5.72.39-2.89,1.61-4.28,7.1-9.42,2.57C675.24,680,679.9,679.12,680.9,677Z" fill="#584b3e"/><path d="M736.08,573.38c8.71,2.12,9.49,4.26,3.85,10.45-7.22,1.24-7.11-5.94-10.47-9.1-1.8-1.7.09-2.77,1.42-3.79C734.32,568.28,734.06,573.18,736.08,573.38Z" fill="#a68b71"/><path d="M728,658.78c-7.22,1-5.36-4.29-6.27-8.63,5.75,1,6.28,4.64,6.27,8.63Z" fill="#312820"/><path d="M519,845.61c-1.4-4.71-.32-9.38.15-14.07,8.69-.48,7.31,10.71,14.31,12.18C529.28,849,524.15,847.24,519,845.61Z" fill="#ac9a88"/><path d="M950.34,794.22c3.61,6.22,1.62,13.81,5.87,20.27,2.88,4.37-2.86,8.42-5.27,12.81l-2.52-7.6c-1.56-.93-1.6-2.16-.7-3.57l-.07-4Q949,803.18,950.34,794.22Z" fill="#312820"/><path d="M941.34,752.17c3-1.92,5.36-2.11,5.74,2.36-.26,13.1-9.62,24-9.28,38.15,4.18-1.34,4.72-4.52,5.53-7.5,3.74-.31,2.25,2.16,2.1,3.9-.7,9.11-2.58,17.91-6.76,26.13-1.92,2.9-3.84,3.68-5.75,0,1-10.85,2.62-21.71-.34-32.52C933.68,772,940.8,763,941.34,752.17Z" fill="#312820"/><path d="M932.92,815.2a4.76,4.76,0,0,0,5.75,0c-.25,6.9-2.32,13.43-4.21,20-5,6.26-7.09,14-11.13,21.81-.63-2.3-1-3.81-1.45-5.32a2.44,2.44,0,0,0,0-1.84C925.62,838.31,925,825.41,932.92,815.2Z" fill="#312820"/><path d="M924.28,888.05c-3.21-9.88,3.42-18.25,4.48-27.51.38-3.37,2.22-6.81,2.2-13.11,3.82,8.51.41,15.25,3.37,21.05C933.28,876.17,925,880.19,924.28,888.05Z" fill="#312820"/><path d="M936.75,888.28v36l-.72.21q-3.81-16.89-7.61-33.79C929.7,884.69,933.16,886.24,936.75,888.28Z" fill="#312720"/><path d="M574.35,784.8c-4.55-8.87,5.12-9.61,8.19-14.12.12-10.44,4.4-18.26,14.38-22.49h0c8.33-7.31,18.94-8.74,29.17-11.16a8.09,8.09,0,0,1,2.9.12,5.31,5.31,0,0,1,2.13,1.77,19.47,19.47,0,0,0,4.93,6.31,7.12,7.12,0,0,1,1.29,2.43c.87,4.38-1.91,8.3-1.39,12.81.44,3.81-3,3.56-5.77,3.17-4.48-2-5.66-7.87-10.84-9-.81-.2-1.61-.43-2.41-.59-4.34,0-2.9,4.44-4.83,6.26a4.44,4.44,0,0,1-2.37,1.24,6.53,6.53,0,0,1-3.69-1.23,2.78,2.78,0,0,0-4.06.47c-.58.61-1.19,1.16-1.82,1.71-2.15,1.64-3,4-3.89,6.44a41.24,41.24,0,0,1-3.93,8.6,30.72,30.72,0,0,1-3.39,4.57c-2.92,2.92-6.12,5.25-10.59,4.8A5.84,5.84,0,0,1,574.35,784.8Z" fill="#261f18"/><path d="M609.2,786.83c-5.3-5.69-12.43-10-14.32-18.29-.18-3.49.35-6.62,4.14-8.11,2.15,2.44,3.63,1.45,4.82-.95.87-1,1.81-1.87,3.29-1.13l2,2c2.27,1.8,5.75,1.44,7.55,4.1C617.1,772.89,611.05,779.16,609.2,786.83Z" fill="#191512"/><path d="M629.68,762.42c-1.69.06-3.22.42-4.1,2.05-1.88,1.67-3.42.9-4.84-.66-.75-3.8-1.92-7.56-1.3-11.53C625.77,752.76,627.29,758,629.68,762.42Z" fill="#312a22"/><path d="M611.23,760.08c1.64-2.94-4.13-11.63,6.18-7.83-.66,2.2,2.39,4.39,0,6.62C615.57,760.33,613.73,761.91,611.23,760.08Z" fill="#312a22"/><path d="M617.26,758.54c2.17-2-5.54-4.32.15-6.29.68,0,1.35,0,2,0,2.72,3,3.53,6.36,2.06,10.18-2.44.85-3.22-.91-4.07-2.56C617.37,759.45,617.31,759,617.26,758.54Z" fill="#261f18"/><path d="M611.23,760.08l6-1.55v-.14c2.08,2.92.88,4.68-2.1,5.8-3,.26-5.62,0-6-3.8Z" fill="#9f8873"/><path d="M605.25,760.35c-.93,1-3.75,3.4-6.23.08.3-1.85,1.46-4.53,3.9-5.29s3.36,1.45,4.35,3.15Z" fill="#312a22"/><path d="M611.27,801.07l-2.08,0c-1.22-4.74,5.12-9.47,0-14.21-2.83-8.8,4.83-14.87,6-22.64,1.2-1.76,2.42-3.51,2.1-5.8l4.23,4.07c.88,1.62,2.41,2,4.08,2l2,2.06c.21,4.15-4.51,6.21-4.42,10.32-5.37,6.38-8.44,13.3-5.66,21.82.57,1.78,1,4.09-1.53,5S612.46,802.63,611.27,801.07Z" fill="#261f18"/></g><g id="frame"><rect width="1000" height="1000" fill="none"/></g></svg>