<!-- Copyright (c) 2023 Jan Stehno -->
<svg xmlns="http://www.w3.org/2000/svg" viewBox="0 0 1000 1000">
    <title>reddeer</title>
    <g id="reddeer">
        <path
            d="M420.7,521.11a2,2,0,0,0-.09,1.07,10.3,10.3,0,0,0,1.25,3.19,25.4,25.4,0,0,0,3.83,4.75c3.11,2.79,4.47,6.84,7.23,9.89,1,1.09.06,1.94-.78,2.66-18.45,8.85-35.13,20.68-52.73,31-2.51,1.7-5.3,2.91-7.94,4.4-9.78,5.54-14.48,16.21-23.33,22.67-5.14,6.12-12.2,10.4-16.58,17.26,1.71-2.81,4.25-5,6-7.7.78-1.22,2-2.61.3-4a2.8,2.8,0,0,0-3.64.27c-3.72,3.3-7.19,6.87-11.17,9.9-1.09.83-.69,2.35-.34,3.67,2.89,10.84,2.87,10.85.8,22.36-2.38-1.76-3.7-4.4-6.12-5.77-1.77-1-3.65-2-5.44-.44a3.8,3.8,0,0,0-.48,5.35c2.5,3.51,3.21,6.76,2.49,11.39-.8,5,4.48,4.5,9,4-2.31,4.15-3.27,8.22-8.64,7a6.86,6.86,0,0,0-1.92,0c-8.36,3.13-13.3-3.29-17.85-7.73-6.79-6.61-15-6-23-7.26-1.64-.26-2.85,1-3.1,2.71a3.64,3.64,0,0,0,2.49,4.15c9.64,2.76,16.2,10.74,25.14,14.64a9.37,9.37,0,0,1,3.05,2.41c6.21,9.3,15.18,6.55,23.76,5.61,4.68-.29,7.59,4.37,12.57,4.11,3.68-.19,7.33.2,10.83-1.31,3.11-1.61,5.68-3.53,4.38-7.66-4.41-6.81-5.54-14.65-6.59-21.56-1-1.53.5-1.51-.29-1.14-.26.12-.22.29-.05.59,1,1.72,3.5,4.13,3.5.89,0-6,4.47-9.49,5.91-14.47.67-7.33,5.55-11.89,10.71-16.26C375.82,612,388.28,603,401.8,595.61c12.76-7,25.74-13.6,39.5-18.54,17.75-6.37,34.46-15.32,52.61-20.71a303.8,303.8,0,0,1,29.92-6.8c10.68-2,21.57-3.43,30.45-10.65a16.32,16.32,0,0,1,6.59-2.77c9.11-2.2,18.07-4.89,26.92-7.94,6.93-1.89,12.7-6.4,19.52-8.58a51.53,51.53,0,0,1,7.42-2.23c3.88-1,7.43-3.11,11.87-1.67,2.68.87,4.36-2.34,6.65-3.43.7-.51.62.83.29,0,0-.1-.24,0-.58.23-3.37,2.7-7.16,4.77-10.73,7.16-1.64,1.08-4.54,2.12-3.19,4.75s3.84,2.19,6.06.53a3.84,3.84,0,0,1,1.88-.38,109.21,109.21,0,0,0,24.24-17.43c5.8-5.42,12.44-8.55,19.35-11.56,28.91-12.59,53.52-31.13,75.55-53.4,15.41-15.56,27.44-33.46,37.36-52.87,3.85-7.53,8.51-12.86,17.63-15.54,12.26-3.6,21.3-13.2,29.45-22.9,7.11-8.46,17.32-13,24.92-20.82a3.35,3.35,0,0,1,2.42-.75c12.88,1.13,22.38-4.77,30.18-14.27,3.14-3.56,3.92-8.21,5.14-12.48,2.43-8.54,5.55-16.84,8-25.36.68-2.38,2.7-5.42-.35-7-3.32-1.72-4.71,1.71-6.49,3.84-4,4.8-7.78,9.84-12.76,13.73-1.75,1.37-3.43,2.88-3.76,5.13C876.34,303.18,866,304.06,860,309.5c-1.64,1.48-4.72-1.61-7.38-1.11-7.49.78-14.78,1.77-22.54.15-9.26-1.93-20.35,5.8-23.93,14.86a11.61,11.61,0,0,1-5.19,5.85c1-2.45,3.38-5,.57-7s-4.93.66-6.52,2.62c-5.75,7.11-12.74,13-18.9,19.69-4.28,4.63-3.39,6.49,2.6,8.08.09,2.16-1.53,3.5-2.53,5.1-.89,1.42-1.56,3.1-3.24,4-.16-2.62,3-6-.41-7.54-3.26-1.46-4.61,2.41-6.17,4.53-9.56,12.92-19,25.88-30.25,37.48-2.14,2.21-4.19,4.57-7.24,5.35-5.28,1.35-9.71,3.72-12.37,8.72-.41.76-1.16,1.58-2,1.58-6.95,0-9.84,5.52-13.51,9.94s-8.51,6.64-13.3,9.2c-3.87,2.81-8.39,4.83-11.11,9.15-.72-4.43.21-8.7-.11-13-.56-2.71.14-5.24,1.06-7.75a20.62,20.62,0,0,1,2.63-7.22c1.2-1.87,1.13-3.52-.21-6.19-2.47-5,.3-10.79.32-16.29,0-1.25-.56-3.12-.19-4.37-.34-7.2-.93-11.34.18-15.65,1.46-5.67,4.83-4.71,5.4-4.65,4.35.7,6.15,2.91,7.36,6.62,1.55,4.76,4.14,5.21,8.29,2.43,4.39-2.95,5.8-7.71,7.81-12.14a3.06,3.06,0,0,0,.18-2.7l-.11,0c-3.77-4-9.52-3.91-14.08-7-7.17-4.87-10.55-11.23-12.84-18.79a45.39,45.39,0,0,1-1.85-10.24,6.09,6.09,0,0,0-1.6-3.4,29.9,29.9,0,0,0-9.11-18.33c-1.68-3.16-3-6.75-7.67-6.24-2.35,1.36-2.47,3.75-1.71,5.73,1.85,4.81,1.55,9.76,1.72,14.7a49.65,49.65,0,0,1,1.65,5.24c1.75,8.52-.81,12.94-8.85,15.53-7.35,1-10.15-4.35-13.06-9.49h0c-1.42-1.74-2.24-5-5.21-3.74-3.25,1.34-1.58,4.41-1.26,6.84a7.79,7.79,0,0,0,1.38,3.6c6,7.93,8.33,17.44,11.6,26.55,2.58,7.16,5.61,14.21,5.85,22,.08,2.84.59,6.06-.95,8.34-6.23,9.26-3.36,20.36-6.5,30.24-1.26,3.93-.86,8.19,1.37,10.41-2.59-3-4.12.26-5.34,3-1.79,4-1.9,8.48-3.88,12.43-1.15,2.3-1.91,4.48-4.71,5.81a6.81,6.81,0,0,0-2.92,10.06c3.57,5,.39,7.28-2.5,9.64-7.62,6.2-16.27,10.81-24.88,15.5-19,10.36-39,18.09-59.58,24.8a249.14,249.14,0,0,0-34.36,14.49c-1.37-1.78,2-5.24-2.14-5.64-2.53-.24-4.07,2-6.28,2.72.1-.81.73-1.08,1.14-1.54,1.25-1.36,3.92-2.28,3-4.47s-3.39-1.16-5.23-.74a8.46,8.46,0,0,1-5.15,0,10.4,10.4,0,0,0-12.44,3.3c-3.72,5.31-10,7.56-13.39,12.92-1.19,1.87-3.12,3.27-5.57,1.88-1.15-.65-2.5-1.55-2.42-3.08.2-4,.28-4-1.3-5.9a8.85,8.85,0,0,0-2.47-1.3c-3.52-.74-6.19-2.79-8.76-5.23-4.41-4.18-8.67-9.31-15.81-4.68-1.41.91-2.34-.64-3.18-1.54-2.07-2.22-3.88-4.66-6.05-6.78-1.35-1.31-2.82-3.19-5-1.63-1.71,1.25-1,3.15-.37,4.77C419.9,513.56,421.71,517.06,420.7,521.11Z"
            fill="#271910" />
        <path
            d="M313,981.21c.36,1.61-1.23,3.29,1,6,7.13-11,8.28-23.52,12.88-35.32,2.38,4.49.23,9,1.32,13.15,4.07-.23,5-3.44,5.16-6.41.37-5.8,2.36-10.16,7.27-13.73,4.39-3.21,6-8.24,5.63-13.91-.68-10.89,4.63-20,9.34-29.18a2.38,2.38,0,0,1,3.31-1.27c3.9,2.41,5.8.07,8-2.66,3.84-4.71,10.37-3.77,15.2-6.67,2-1.2,4.33-1.85,6-3.72,3-3.49,5.17-8.13,11.51-6.36,2.23.63,2.56-3,4-4.62,1.22,1.12,1.12,2.75,1.75,4.07,1.75,3.61,3.57,7.46,8.35,7.05s9.21-6.34,9-11.19a38.39,38.39,0,0,0-1.3-7c-1.16-5-3.88-7.29-9-5.35-3.39,1.29-5.82.58-7.73-2.6-2.3-3.84-5.23-3.13-8.25-.81s-5.23,5.78-7.62,8.87c-.8,1-1.72,2.14-3.25,1.55s-1.72-1.93-1.68-3.26c.11-5.1,1-10.24,4.31-14.1a16.64,16.64,0,0,0,4.43-12.41c-.15-3.49,0-7.58,5.81-5.13,2.43,1,3.37-1.26,4.22-3,1.46-3,1.58-6.28,1.52-9.57,0-1.8.33-3.55,2.14-4.45,2-1,3.27.45,4.5,1.68,4.45,4.47,9.45,6.44,16,5.18,4.86-1,13.11,5.69,14.23,10.53.2.85-.3-.05.16.62,6.18,9,1.15,17-2.18,25-.82,2-2.7,3.79-.6,5.86,1.79,1.76,4.3,1.37,6.18.54,4.09-1.8,7.45-5.85,12.69-1.81,1.34,1,3.12-1.69,3.69-3.68.71-2.47.58-5.14,1.8-7.6a12.62,12.62,0,0,1,2,11.68c-1,3.57-.71,7,2.24,9.63,1.45,1.31,3,2.9,5.16,1.78,1.83-1,1.69-2.83,1.27-4.64-.29-1.23-.93-2.5.34-4,3.36-.22,1.63,6.4,6,4.91,1.74-1.11,2.42-2.94,3.22-4.68,3.79-8.79,2.17-11.2-7.22-10.75-2.48.12-4.59-.17-3.34-3.53a5,5,0,0,0-.87-4.86c-1.42-2.66-4.21-1.75-6.38-2.5-7.45-3.73-8.69-3.44-10.51,2.36a109.61,109.61,0,0,1-10.13-27c-1.25-5.66-6.92-5.78-10.87-7-5.32-1.66-5.51-3.29-2.81-7.61,3.52-5.63,1.43-7.79-4.11-11.65-5.86-4.07-12.92-3.92-18.71-7.53a6.9,6.9,0,0,0-8.49.81c-2.41,3.1-1,6.82-1.67,10.2-.72,5.82-1.59,11.51-6,16-3.22,3.32-4.46,7.93-6.89,11.8-2.27,3.62-4.41,3-6.42-.08a14.57,14.57,0,0,1-2.26-10,39.18,39.18,0,0,0,0-12.37c-.73-3.58-2.59-5.68-6.42-3.05-1.28.88-3.21.91-4.05,2-3.8,4.88-6.9,9.86-14.67,9.48-3.31-.15-3.59,4.77-3.51,8.16,0,2.09,1.44,4.72-.61,6.15-2.3,1.59-3.91-.93-5.6-2.13-3.49-2.48-5.2-1.36-5.48,2.63-.14,2,.33,3.93.13,5.88-.39,3.74-4.71,6.75-7.45,4.54-5-4-9.47-1.38-14.22-.57a4.12,4.12,0,0,0-2.35,4.84c2,4.51,5.61,6.18,10.28,6.85,4.12.59,8.22-.17,12.32.55,2.83.5,3.8-1.78,4.45-3.85,1.68-5.33,4.73-9,10.44-10.4,3.86-.95,6.47-3.39,6.43-7.87,0-2,.76-4,2.88-4.73,3.48-1.18,5.7-3.77,7.83-7,3.21,8.39-2.79,12.94-7,17-7,6.79-13.41,14-19.79,21.34-3.23,3.72-7.83,6.09-11.52,9.47-8.23,7.53-14.32,16.1-15,27.72-.37,6.07-.94,6.28-6.44,3.45-4.48-2.29-8.56-.38-10.72,5-2.75,6.88-2.42,6.5-8.06,1.55-5.35-4.71-5.08-11.33-7.41-17-1.55-3.79-2.49-8.27-8.31-6.88,3.94,12.48,5.4,25.48,7.67,38.28,1.44,8.12-2.83,15.61-4.92,23.32s-3.77,15.58-5.48,23.41a8.9,8.9,0,0,0,1.92,7.48l10.31-8.53c-3.07,9.76-9.52,17.59-11.82,27.49l6-5.4c6-1.52,8.57-6.46,11.37-11.19.5-2.45,1-4.9,1.49-7.34-.23-2.15,2.35-3.56,1-7.14,1.14,2.48.71,4,1.55,5.11-.06,9.09-.65,18.11-4.34,27.57,12.71-9.58,11.85-24.25,17.74-36.29-.17,2.95-.29,5.9-.52,8.84-.24,3.22-.58,6.44-.9,10,6.68-1.67,4-9.31,8.54-12.8.42,5.67.26,10.86-1.75,15.89C310.92,979.5,312.68,979.67,313,981.21Z"
            fill="#49281f" />
        <path
            d="M478.83,874.61c-.44-.48-1.23-.94-1.24-1.42-.06-2.25,1.18-4.88-2.38-5.75-1.32-.32-2.76-.77-3.68.31-1.84,2.17-.86,4.47.32,6.61.56,1,1.15,2,.18,2.94-1.45,1.36-2.2-.31-3.2-.95-2-1.27-3.76-3.18-3.16-5.31a34,34,0,0,0,.27-17c-.13-.57-.19-1.33-.58-1.64-1-.81-2-.19-2.92.46-3.25,2.23-2,5.95-2.87,8.94-.42,1.42,0,3.17-1.7,3.93-2.23,1-2.38-1.3-3.22-2.31-2.45-3-4.63-1.9-6.32.55-1.43,2.09-2.79,4.15-5.59,3.37-1.43-.41-3.05,1.64-4.11-.41s.77-2.78,1.85-3.64c1.81-1.46,1.82-3.3,1.68-5.31-.09-1.27-.59-3.09.76-3.6,7.06-2.67,3.62-6.57,2-11-1.25-3.49-3.82-7-2.51-11.21.16-.5-.24-1.68-.57-1.76-5.51-1.33-9.7-7.44-15.49-6.11-6.62,1.52-10.84-.84-14.95-5.18-1.38-1.46-2.39-4.26-5.16-2.67-2.47,1.42-4.83,3.33-4,6.74,1.09,4.51-.63,8.31-2.16,12.09-2.94.31-2.9-4.88-6.05-2.73a8,8,0,0,0-3.41,7.4c.54,5-.06,8.6-3.93,12.65s-4.73,10.56-4.77,16.54c0,2.14.73,3.85,2.95,4.57,2.65.87,3.89-.64,5.12-2.73a33.51,33.51,0,0,1,8.25-9.93c2.25-1.72,3.94-1.73,5,1.13,1.88,4.91,4.9,6,9.6,3.41,3.74-2.09,6.25-1.12,6.65,3.59.11,1.27.85,2.47,1.15,3.74,1.5,6.31-1.14,12.22-6.93,13.42-4.2.87-5.47-3.36-7.08-6.42-1.33-2.51.07-6.32-3.54-7.76-1.85,1-1.14,2.73-1.52,4.12-.64,2.29-.31,5.42-4.72,2.4-3.26-2.23-5.94,2.11-7.39,4.47-4.25,6.89-11.15,8-18,9.37-4.6.94-6.29,4.87-8.56,8.19-5.74-4.7-8.35-3.67-10.21,3.78a6.56,6.56,0,0,1-1.08,2.95c-6.95,7.17-6.61,16.31-6.8,25.25-.11,5.51-2.45,10-6.91,12.51-4.3,2.42-5.58,5.68-5.72,10.05-.13,3.75-.44,7.46-4,9.82-1.23,8.34-1.64,16.82-5.37,24.65-1.53,3.23.28,6.62,0,10.33,11.82-14.81,12.69-33,19.09-49.29.58,8.26.7,16.46-2.08,24.44,3.54.81,3.73-2.34,5-4.2,3-6.08,3.91-12.71,4.84-16.87-1.07,5.59-2,13.67-4.17,21.51-.14,2.07,1.66,3.56,1.64,5.59,1.22,1.21,1.45-.35,1.55-.76,3.3-12.42,10.82-23,15.95-36.11.25,9.64-2.22,17.65-2.58,26.1l4.47-8c2.91-7.29,3.25-15.43,7.09-21.11-1.09,2.83-3,6.66-4.31,10.71-.4,1.2-.7,2.78,1,3.22,1.15.3,1.54-1.28,2.42-1.83,7.79-6.52,9.68-16.85,15.79-24.45,2.83-8.42,2.8-17.52,6.36-25.83,1.37-3.18,2.13-6.09,6.1-6.6a5.69,5.69,0,0,0,3.45-1.75c3.7-4.13,6.19-3,9,1.28,2.52,3.84,5.8,3.85,9.21.33A24.39,24.39,0,0,0,429,886c3.31-11.27,11.77-15.76,23-12.92,4.15,1,8.82.48,12,4.2,2.06,8.36.41,16.68-.24,25a51.52,51.52,0,0,1-.85,5.66c-.08,2.75-1.85,5.16-1.52,8,.39,1.14.9,2.07,2.35,1.34,5.34-6.07,9.37-12.81,11.14-20.82,1.29-5.89,2-11.94,4.37-17.56A4,4,0,0,0,478.83,874.61Z"
            fill="#3d1f18" />
        <path
            d="M398.71,801.73c2.64-3.24-.39-7.33,1.57-10.67,2.43-4.07,2.07-8.43.8-12.66-1.22-4.08-.72-7.15,3.5-8.89,1.84,4.72,6,9.15,2.14,14.87-.67,1-.06,2.57.47,3.79,1.44,3.31,10.48,6.38,16.44,5.41,4.21-.68,5.54-3.72,5.72-7.58.06-1.25-.16-2.67,2-3.89,3.86,6.16,10.09,7.85,17.12,7.93,2.21,0,4.41,1,4.61,3.76.17,2.28-.46,4.42-2.57,5.63-2.64,1.52-4.52-.17-6.3-1.89-.32-.3-.56-.67-.86-1-1.84-2-2.27-6.35-5.6-5.55-3.88.92-2,5.15-2.45,7.94-.45,3-.93,6-.27,9.1.76,3.57,2.22,5.46,6.25,7.08,6,2.43,13.17,2.34,18.15,7.32,1.15,1.16,2.5,1.85,4.1.88s1.62-2.55,1-4c-.95-2.23,1-4.25.27-6.38-.31-.85-.89-1.6.53-.51s2.88,1.36,3.58-.7a5.2,5.2,0,0,0-1.8-5.86c-1.49-1.31-4-.88-5-2.83-.8-1.51-2-3.32-.37-4.76s2.72.22,3.83,1.26c4,3.71,7.78,7.2,8.55,13.32.67,5.3,6.79,7.81,8.6,12.88.59,1.63,1.95,2.92,2.44,4.62,1.23,4.2-.9,6.76-4.92,5.26s-6.32-1.21-8.77,2.43c-2.08,3.09-4.31,2.11-5.73-1.16-1.13-2.6-1.72-7.25-5.72-5-3.33,1.89-1.63,6.13.23,8.77a28.52,28.52,0,0,1,4.87,9.84c1.62,1.2,3.88-1.68,5.3.83,4,3.31,9.43-.25,13.52,3,.71.57,1.91-1.29,1.4-2.24-2.85-5.37,2.15-7.19,4.38-10.48,1.44,2.83.51,5.26-.41,7.71-2.19,5.86-.51,9.15,6,11.85,2.81-3.29.85-7.81,2.93-11.29a12.39,12.39,0,0,0,.49-3.14c-2.05-8,1.51-14.85,4.33-21.86,1.24-3.08,2.53-6.22-1.37-8.52-9.95-7.75-16.16-18.85-24.89-27.7a106.69,106.69,0,0,0-9.12-7.39c-4.38-3.16-6.93-6.91-7.31-12.38a10.17,10.17,0,0,0-6.93-8.8,30.84,30.84,0,0,1-15.21-12.6c-.84-1.29-1.73-2.85-3.22-3.11-10.78-1.86-12.76-11.13-15.49-19.12-1.89-5.56-4.44-8.59-10.39-8.75-5.28-.14-8.71-2.43-8.11-8.4a1.57,1.57,0,0,0-2.71-.23c-4.58,4.9-10.47,8.5-14.17,14.27-1.07,1.67-2.59,3.36-1.21,5.29s3.55,1.12,5.44.64a9.67,9.67,0,0,0,4-2.05c3.91-3.33,9.33-2.09,12.62,1.7,4.61,5.3,4.16,12,6.16,18,1.24,3.7-8.41,9.05-14.07,7.55,4.13.75,7-.67,8.84-4.26,2.18-4.16,1.74-8.44.74-12.65-.47-2-2.64-3.53-4.62-2.51-3.41,1.76-8.27,3.11-9.68,6-2.85,5.77-7.53,11.35-6.15,18.61a6.35,6.35,0,0,1-.53,4.4c-.91,1.69-1,4.13.42,4.79,5.6,2.56,3.72,7,3.4,11.75-3.71-3.14-7.72-.28-11.71-1.13-2.81-.59-4.58,1.66-3.29,4.61,1.5,3.45,2.4,7.76,7.68,7.6,2.82-.08,4.23,1.9,5.3,4.18a52.57,52.57,0,0,0,3.85,6.82C393.73,805.12,396.16,805.87,398.71,801.73Z"
            fill="#623e2b" />
        <path
            d="M297.56,669.3c-5.59-3.95-12.51-5.84-17.14-11.32-2.11-2.5-5.45-2.3-8.34-3.06-1.6-.43-2.82-1.57-2.44-3.26.49-2.19,2.22-1.56,3.66-1,4.38,1.7,9.13.66,13.67,2.56,5.49,2.31,9,6.93,13.48,10.21,4.87,3.54,8.39,4.75,13.13,1.1-.39-1.15-1.17-2.11-1.62-3.31a13.93,13.93,0,0,1,1.61,3.32c3,3.18,5.58,3.21,7.51-1a6,6,0,0,1,2.9-3.31c2.37-1.15,1.12-3,.28-4.41s-2.29-2.23-3.73-.75c-1.84,1.9-3.54,1.46-5-.17s-.22-2.72,1-4.23c2.58-3.26-.86-5.36-2.36-7.73-1.12-1.76-3.69-3.51-1.49-5.56s3.63,1,5.45,1.8c3.17,1.42,2.74,7.56,6.36,6.41s.47-6,1.84-9.34c2.15-5.19,2.36-11-1.66-15.93-.75-.94-2.1-2.69-.46-3.26,5.53-1.92,7.74-7.92,14-11-2.72,6.43-9,9.33-9.07,18,6.2-9.64,14-15.33,20.46-22.34-3.8-2.49-7.3-5.8-12.44-4.8-2.37,3.09-5.95,5-7.26,7.15,1.79-2.3,5.19-5,8.4-7.91,1-4-.65-4.81-4-3.34-2.44,1.07-3.9,3.38-5.86,5-8.31,7-9.45,18.19-15.47,26.54-1.26,1.73-1.84,4-4.15,4.72-3.86,1.14-5.64,3.91-6,7.65s-2.23,3.6-4.89,2.48a31,31,0,0,0-8.17-2.13c-15.65-2.8-31.39-5-46.94-8.45-8.15-1.82-16.81-1.32-24.52-5.41-17.48,1.92-27.25-11.6-39.4-20.09-5-3.46-7.45-9.55-10.5-14.84-1.28-2.22-1.94-4.92-4.56-6.16-4.15,1.43-4.15,5-4.38,8.48C158,611.29,171.21,622.54,186.79,632c5.24,3.17,5.52,2.7,5.08,7.69,14.58,8.06,31,10.73,46.64,15.47,16.17,4.88,32.9,7.86,48.66,14.19C292.74,674.05,294,674.05,297.56,669.3Z"
            fill="#352116" />
        <path
            d="M459.73,527.22c-.64,1.71,4.45,2.15.78,5.08-1.86,1.49,1.3,4.37,2.8,5.58,2.12,1.72,5.66-.1,6.19-1.71,2.26-6.75,10.64-6.9,13.38-13.64a8.5,8.5,0,0,1,12.24-3.36c3.33,2.06,6.13-1.38,9.89-1.41-2,3.7-7.07,4.54-7.54,9,5.14,1.73,6.69-4.78,11-4.34.14.51.41.93.33,1.26-.46,1.84-5,1.95-2.5,4.78,1.57,1.76,4.13.47,6.05-.55,16.56-8.77,34.25-14.63,52-20.48,15.29-5.05,29.4-12.82,43.67-20.16a152,152,0,0,0,21.35-13.47,16,16,0,0,0,5.64-7c.42-1.1,1-1.94-.4-3.29-4.46-4.21-3.17-6.4,1.91-9.94,4.18-2.91,5.1-8.77,6.25-13.74.72-3.12,1.23-6.08,3.53-8.6,2.23,2.26-.62,4.09.79,6.29,2.91-1.17,3.65-3.73,2.33-6-2.76-4.67-1.78-9.45-.71-13.93,1.27-5.3,2.28-10.47,1.88-15.93-.13-1.66-.15-3.43,1.09-5,6.2-7.7,4.94-16.31,2.19-24.73-1.33-4.06-1.28-8.7-4.39-12.14a4.51,4.51,0,0,0-5.51-.81c6.3,9,6,18.15,2.58,28.3-5.12,15.36-9.06,31.11-13.44,46.71a17.18,17.18,0,0,0-.2,3.81c-2.47,9.15-6.23,17-15.65,21.51-5,2.41-10.66,4.8-13.74,10.3-1.25,2.22-3.95,2.48-6.25,3.09A127.75,127.75,0,0,0,570,483.06c-.73.49-.7-.95-.42-.12,3.2-1.72,6.66-3,9.2-5.81a1.62,1.62,0,0,0-.35-1.69c-8.85-1.13-15.38,2.12-19.81,10-1,1.77-2.69,2-4.25,2.67-14.27,6.13-29.86,7.33-44.58,11.77-2.24.67-4.82.52-6.45,2.66-.63,3.84,1.87,2.78,3.2,2.72-7-.68-13.15,5.5-21,4.91-2.13-.16-3.29,1.92-3.52,4.07-.31,2.9-2.31,4.55-4.41,6.14-.51.31-1,.65-1.51,1s-1.2.54-1.69.93c-3.42,2.69-6.28,7.2-11.59,2.69C462,524.32,459.82,525.13,459.73,527.22Z"
            fill="#3a2718" />
        <path
            d="M272.35,879.59c8.28,1.57,7.85,9.4,8.54,14.55.94,7,6.14,10.1,9.49,14.71,2.44,3.37,5.39.65,6.58-2.67.65-1.81.58-3.91,1.39-5.61,1.91-4,6.74-4.36,9.37-.85.87,1.15,1.07,3.68,2.73,3.1s2.9-2.49,3.88-4.1c.62-1,.47-2.52.52-3.82.72-16.58,11.19-26.37,23.75-35,5-3.45,9.06-8.74,12.25-13.47,2.87-4.26,7.71-5.53,10-9.8,3-5.71,10.76-9.08,8.32-17.57-.49-1.71-.31-3.7-2.27-4.09-2.16-.42-2,1.56-2.39,3a3.89,3.89,0,0,1-1.79,2.54c-6.2,2.21-9.39,6.09-9.15,13,.05,1.46-4.31,3-5.58,3-8,.23-8.57,6.75-10.76,11.73-.95,2.16-.34,3.86-3.5,1.37-2.53-2-6.56,0-9.83,0-5.19,0-8.08-2-10.72-5.67-3-5.9-6.56,1.69-9.88-.46-4.1-2.64-7.19-2.35-8.82,3.12-.93,3.1-4.24,2.64-6.79,2.47-3.66-.25-7.71-.53-10.83-1.72-6.23-2.37-8-.53-7.39,5.26-3.24.42-4.84-1.6-6.75-3-6.18-4.39-11.34-4.91-17.43-.5-3.49,2.52-6.17.89-9.14,0-7.7-2.42-17.48,2.92-19.35,10.75-.22.92.51,1.58,1.56,1.61,7.44.12,14.88.47,22.31.32,7.8-.16,15.22,0,22.11,4.86C267.57,870.05,269,875.43,272.35,879.59Z"
            fill="#3a1e16" />
        <path
            d="M218.32,861.49c1.43-7.4,10.47-12.63,17-10.64,3.58,1.09,7.2,3.56,11.64-.91,4-4,10.4-3.12,15.1,1.25a12.65,12.65,0,0,0,4.8,3.27c1.39.42,2.77,1.7,4.26.54s.72-2.74.29-4.19c-.34-1.18-1.41-2.62.13-3.46s2.16.71,3.1,1.61c2.16,2,18.46,2.53,20.8.67a3.15,3.15,0,0,0,1.32-2c-.24-7.46,3.1-4.51,6.32-2.25,1.84,1.29,3.91,4.93,5-.78.76-4,3.32-.65,5.07-.64a3.41,3.41,0,0,1,1.49-3.61c5.2-4.9,9-11.34,16-14.27,2.11-.89,3-2.8,3-5.27.11-4.49,1.27-8.81,2.86-14,2.21,3.06,1.39,6.07,2.48,8.46s2.6,4.43,5.37,3.71c3.1-.81,3-3.65,2-5.87-2.38-5.42-2.91-11.84-8.17-15.79-1.89.68-3,.58-3.54-1.92-.83-3.79-4-5.36-7.46-4.7-4.1.8-10.12-3.29-11.9,4.14a4.63,4.63,0,0,1-2.5,2.83c-4.21,2.46-4.69,6.41-4.14,10.73.22,1.71,1,3.35.93,5.1-.08,2.15-.9,4.21-3.39,3.61-2.26-.56-.76-2.43-.45-3.79,1.6-7.16,1.13-8-5.62-10.22-3.11-1-5.69-3.27-8.8-4.17-2.86-.82-6.29-1.89-6.61,3.08a8.73,8.73,0,0,0,.47,1.09c-.18-.33-.31-.68-.47-1.06a2.61,2.61,0,0,0-.9-1c-1.21-.75-2.74-1-3.67-.12-5.94,5.56-16.5,2.85-20.64,11.52-1.53,3.22.89,3,2.83,3.21,7.79.91,7.78.91,9.75,7.84-5.72-.47-11.55-2-14,6-1.33,4.4-5.76,3.56-9-1.41a3.2,3.2,0,0,0-2.52-1,2.36,2.36,0,0,0-1.35,1.19c-.36,2.46-1.32,4.92-3.88,5.32-6.73,1.06-11.6,6.05-17.9,7.92-3.82,2.51-9.87,3-8.84,9.91.09.63-.72,1-1.3,1.24-2.5,1-5.15,2.33-4.26,5.44.79,2.78,3.94,2.83,6.38,3.45Z"
            fill="#693c22" />
        <path
            d="M676.13,419c-.88,2.7-3.29,5.28-.59,8.26,2.9,4.71,5.16,5.08,8.53.6,4.92-6.55,9.56-13.32,14.32-20,.82-1.16,1.31-2.55,2.25-3.13-2.83,3.33-6.06,7.81-6.76,11.66-1,5.21-2.75,8.59-6.62,11.67-1,.83-.65,2.85.38,4.2,8.06-2.32,13.92-7.51,18.62-14.2.62-.88,1.17-2.77,1.53-2.71C718.3,417,720,403.65,729.85,403c5.94-.42,9-7.47,13.13-11.78,9.84-10.36,17.74-22.27,26.38-33.58.73-.94.9-2.54,3.12-2.52.69,2.93-1.48,5.14-2.13,7.66-.26,1-1,2.15.31,2.89a2.09,2.09,0,0,0,2.81-.88c2.63-3.69,5.2-7.42,7.67-11.21.67-1,1.27-2.43.05-3.57-2.16-2-3.9,1.12-6.4.53a10.81,10.81,0,0,1,5-7.68c6.79-4.63,11.19-11.41,16.76-17.12,1.24-1.28,2.32-4.15,4.43-2.38,1.77,1.47-.24,3.5-1.32,5-.6.86-1.72,1.38-1.55,2.69,6.51.09,9.56-3.56,10.17-9.6.11-1.14.14-2.11,1-2.86,6.49-5.4,13.9-10.42,22.31-8.24,7.27,1.88,13.58.43,20.28-.73,1.2-.45,3-.46,2-2.59A3.7,3.7,0,0,0,850.3,306c-6.51,2.19-12.61.18-18.75-1.63-9.08.52-17,5-25.58,7.45-5.11,1.47-8.39,6.31-12.76,11.36,2.6-3.26,4.74-5.16,6-7.74.58-1.19,1.24-2.52.3-3.68-1.18-1.46-2.77-.88-4.2-.26-1.81.79-3.67,1.66-4.8,3.28-2.82,4-6.92,6.52-11.77,10.38.76-3.64,2.54-5.39,3.85-7.32,7.46-11,10.69-22.78,6.43-35.86-1.1-3.37-1.86-7.49-7-6.83.17,4.16,2.25,7.83,2.84,12,1.45,10.15-2.76,18.53-7.15,27-4.92,10.13-13.18,18.08-18.38,27.95-5.1,9.66-12.91,17.31-18.46,26.57-2.34,3.91-6,4.69-10,5-10.67.85-19.62,4.77-25.77,14.28a4.38,4.38,0,0,1,.19-.88c1.32-2.06,5.39-4.09,3.34-6.13-2.71-2.71-5.77.82-7.4,2.93C692.32,395.15,683.38,406.5,676.13,419Z"
            fill="#3d291b" />
        <path
            d="M426.38,528.94l-3.7-4.46c-9.36,3.25-18.66,6.67-27.42,11.36l-3,.31c-5.76.66-10.52-2-15.28-4.62-4.41-2.46-7.94-6.83-14-5.88-1.17.18.61.39.12,0,3.23-2.91,0-4.47-1.53-6-2.71-2.79-5.64-5.3-7.81-8.65-3.23-5-4.46-9.76-1.09-15.12a5.72,5.72,0,0,0,1.21-4.25c-1-18.12-3.71-36.08-2.29-54.42,1-13.37,2.18-27,1.21-41.54-4.91,3.92-5.25,8.82-6.34,12.92a303.32,303.32,0,0,0-10,89.41c.63,18.14,8.11,32.54,22.27,43.69.51.4,1.14.66,1.65,1.07,8.23,6.5,8,6.82-.55,13.12-10.06,7.38-20.45,14.5-29.47,23C320.12,588.6,311.61,600,307.66,614a4.68,4.68,0,0,0,.75,2.64c1.91,1.68,4.09,2.62,6.58,1.7,3.28-1.21.92-4.21,1.63-5.86,3-7,3.88-14.46,10.84-20.37,7.91-6.7,17.07-10.83,25.21-16.75,8.74,1.92,13.81-5.21,20.53-8.27,1.56-.71,3.17-1.46,4-3.14,0-4-2.23-3.29-4.74-2.33-2.86,1.09-4.93,3.53-7.28,4.17a69.5,69.5,0,0,1,16-8c5.3-3.46,12.44-2.92,17.11-7.76-1.38-4.71.24-7.28,5.25-7.85,2.11-.24,4.06-1.4,6.22-1.68,4.33-.89,9-.83,12.53-4,.13-1.65.17-3.36,2.26-3.88C425.86,531.7,427.07,530.78,426.38,528.94Z"
            fill="#4c3420" />
        <path
            d="M587.67,526.61c-11.36,3.52-23.71,5.32-33.79,11.08a86.34,86.34,0,0,1-27.11,9.82c-9.36,1.79-18.86,3.14-28,5.86-12.65,3.78-25.87,7-37.27,13.23-10.19,5.6-21.16,8.52-31.55,13.19-16,7.22-31.85,14.93-46,25.13-6.95,5-15.12,9.16-20.06,16.8,29.88-20.35,63.6-31.68,98.28-40.16,24.3-5.93,47.93-13.55,71.44-21.91,16.35-5.8,33.42-9.55,50-14.85,15.28-4.89,30.14-10.91,43.41-20.2-2.25-1.39-5.06,2.3-7.34-1.23,6.15-4.14,12.58-8.11,17.68-14-5.5,3.26-10.89,6.09-17.59,4.8-1.52-.29-3.44,1.51-5.18,2.35-4.31,1.75-7.67,4.79-10.9,8-1.1,5.51-1.69,5.78-6.14,2.77-1.92-1.66-3.9-1-5.93-.26C590.25,527.48,588.81,528.36,587.67,526.61Z"
            fill="#362418" />
        <path
            d="M465.2,877.43c-.59-1.14-1-3.13-1.8-3.29-7.25-1.5-13.89-6-22-3.3s-13.15,7.67-14.34,16.19c-.71,5.05-5,7.48-8.1,10.43-1.76,1.66-4.31-1.32-5.24-3.4-2.49-5.62-5.3-6.6-9.21-1.33-.5.69-1.26,1.61-2,1.66-13,.9-9.18,13.08-12.73,20-2,3.85-2.31,9.58-1.32,14.6,1.46-.6,3.78-2.25,2.27,1.47-3,7.45-6.19,14.83-9.29,22.24-1.37,5.12-6.51,7.91-8,12.95,1.66,6.1,3.55,2,5.39.14l0,.06c7.21-6.38,10-15.51,14.65-23.5,3.58-6.21,6.58-12.75,10.67-17.75-3.91,11.93-12.21,22.29-18.65,33.68a22.58,22.58,0,0,0-2.91,13.45c.33,4.1-2.9,7.72-1.46,12.34,6.56-7.88,10.81-16.66,14.31-26A75.32,75.32,0,0,1,410.35,933c4.15-4.5,4.34-10.78,5.76-16.43.58-2.3.63-4.73,2.78-7.94.15,12.33.38,24.22-6.23,33.1-3.76,5.06-8.64,9.41-11.58,15.64,9.25-2.67,13.42-10.21,18.35-16.89,1.9-2.59,1-5.85,1.56-8.76a53.58,53.58,0,0,1,6.43-16.6c1.15,2.16-1.81,3.86-.44,5.9,2.48-4.19,3.54-8.85,5-14.26,1.69,2.54,1,4.4.33,6.24-.25,3.28-1.43,6.49-1.12,10,2.78-.3,2.73-2.43,3.33-3.85,1.11-2.66,2.59-5.57,4.76-6.82,9.06-5.23,9.68-14,10.48-22.82-.84,7.45-1.83,14.86-3.33,22.17-.91,4.43,2.68,9.25-1.21,13.38a40.6,40.6,0,0,1-6.11,15.44c-2.15,3.45-4,7.2-2.17,11.54,1.45,1.38,2.85.85,4.24-.1a166.26,166.26,0,0,0,11.62-22.8c.84-16.32,7.15-31.29,11.51-46.74C464.75,880.7,465.8,879.25,465.2,877.43Z"
            fill="#2c1611" />
        <path
            d="M459.73,527.22c3.48-3,5.23,0,7.3,2.08,2.21,2.28,4.54,2.68,4.35-1.26-.24-4.8,5-3.26,6.14-6.2-2.65-2.64-6.42-3.15-9.59-3.62-9.3-1.37-13.95-9.39-21.2-13.56-12.48-7.17-20.75-18.88-30.46-28.88-5.5-5.67-10.94-12.35-13.12-20.58-6.46-16.31-8.47-33.22-9.37-50.7-.84-16.14-1.09-32.32-2.14-48.46-3.1-7.13-.82-14.5-1-21.75-.05-2.37,1.07-4.91-2-6s-4.91.43-5.76,3.37c-3.18,12.58-6,25.26-7.23,38.18a354.9,354.9,0,0,0-1.06,55.23c.76,12.63.8,25.56,6.95,37.28,4.8-4.71,2.22-9.82.67-14.88.78,1.91.65,5.14,3.31,4.77,2.46-.34,1.5-3.15,1.06-5-1-4.21-.6-8.64-2.1-12.77-.29-.8-.16-1.25,0-.42.07.27.74.37,1.19.51a2.28,2.28,0,0,0,1.43-.88c.55-1,1.09-2.51.47-3.09-5.31-5-2.09-11.41-2.91-16,6.58,14.8,6.44,32.46,12.34,48.62.6,1.64.93,3.65,2.34,4.61,10.68,7.26,15.09,19.94,24.7,28.16S441.8,514.12,453.17,520c3,1.54,2.17,4.59,4.14,6.22Z"
            fill="#4b3321" />
        <path
            d="M782,275.1c6.11,4.32,9.49,18.69,6.27,27.16-2.54,6.68-5.16,13.32-10.17,18.73-1.57,1.71-3.16,4.54-.79,6.36,2.55,2,3.2-1.81,4.83-2.62,6.3-3.13,8.94-11,16.74-12.93-1.53,5.72-6.13,9-9,14.59,1.8-.87,2.79-1,3.22-1.6,9-11.86,22.38-15,35.73-18.39a9.79,9.79,0,0,0,2.25-1.24c0-1.49,1-2.26,2.1-3.08,2.75-2.17,1.41-3.64-1-4.77-11.75-5.58-19.39-14.25-20.95-27.53a20.18,20.18,0,0,0-2.74-5.94c-2.85-2.33-5.65-4.69-7-8.33-.44-1.21-1.39-3.21-2.18-3-7.57,2-7.3-5.26-10.34-8.54a7.24,7.24,0,0,0-4.38-2.55c-3.28-.6-5.78-2.76-8.65-4.19-4.27-2.13-6.76-.78-6.76,4,0,3.4-.52,6.84.28,10.23v0c2.07,3.16,4.38,6.18,6,9.61Z"
            fill="#271910" />
        <path
            d="M503.76,503.07c12.79-3,25.62-5.9,38.35-9.12,5.65-1.42,11.14-3.5,16.67-5.36.74-.24,2-1,1.89-1.41-1.7-9.05,5.77-7.84,10.6-9.45,2.4-.81,4.62-2.67,7.62-1.54a52.18,52.18,0,0,1,9-2.11,76.32,76.32,0,0,0-9,2.11c-4.9,2.87-9.62,5.73-14.83,8.88,2.68,1.29,4.28-.16,5.9-.81,9.82-3.95,19.47-8.31,30-10.42,3.38-.68,4.82-4.67,6.86-6,4.18-2.74,8.08-6.31,13-8.13,6.25-2.32,13.4-14.65,13.15-21.79-3.6,10.45-9.11,18.8-21.22,20.75-4,.65-7.81,2.42-11.7,3.68-4.88-.77-9.41.64-13.95,2.07-1.6.52-3.18,1.42-4.93.89-1.24-.37-2.5-1.14-2.34-2.58,0-.36,2-.15,2.54-1.3,1.13-3.85-.44-7.41-1.17-11.06-2.78-8.16-7.14-15-14.31-20.3-8.62-6.39-12.9-15.93-16.27-25.84-.62-1.84-1-3.82-2.2-5.38-1.75-2.2-3.56-3.22-5,.27.82,15.7,8.3,28.82,18.06,40.17,8.12,9.45,9.07,19.16,6.66,30.24-.6,2.74-2.7,3.76-5,4.58q-30,10.65-60,21.32a43.67,43.67,0,0,0-4.56,2.23c-1.43,2-.31,4,.17,6C499.88,505.12,501.82,504.11,503.76,503.07Z"
            fill="#4e3523" />
        <path
            d="M986.29,228.38a70.47,70.47,0,0,0,13.2-38c.36-8.15.91-16.29.06-24.43-2.63-.33-2.48,1.74-3.34,2.76-10.5,12.48-16.28,27.69-24.13,41.7a35.12,35.12,0,0,1-2.8,3.42c-.22-11-.41-20.34-.59-29.73l-2-.41c-1.84,6.65-4,13.23-5.46,20-2.25,10.16-3.81,20.5-9.76,29.4-3.76,1.37-5.17,4.41-5.47,8.05-.23,2.77-1,5-3.55,6.52-13.3,7.71-25.9,16.59-39.58,23.69,1.3,5.39,4.16,7,9.23,4.15,22.9-12.64,47.27-23.37,62-46.78a42.74,42.74,0,0,1,4.18-5c1.7-1.95,3.52-4.58,6.42-3.34s.24,3.83.47,5.8A3.37,3.37,0,0,0,986.29,228.38Z"
            fill="#443023" />
        <path
            d="M220.1,742.93c-4.57-.61-6.09,2.45-8.08,5.82-4.89,8.25-10.75,15.81-18.7,21.47-3.22,2.54-5.86,5.91-10,7.14l0,0c-1.33,2.86-4.83,5.48-.93,8.9,4.9,2.31,3.47,6.6,2.83,10.24-.79,4.47-.15,6.46,4.84,4.65,1.66-.61,3.64-2.41,5.21,0,1.23,1.88.3,3.7-.8,5.45-1.82,2.9-2.72,5.89-.55,9.12,1.94,2.88-1.4,5.32-.79,8.11a11.35,11.35,0,0,0,1.82,4.24c4.52,3.09,6.75.88,7.94-3.49a19.84,19.84,0,0,0,.52-5.16c0-7.15,2.78-12.07,10.37-13.38,1.33-.23,1.79-2.1,3.31.84,2.41,4.67,8.69,3.21,10.85-2,.13-.32-.16-1.27.21-.88,4.12,4.3,5.15-.12,7.2-2.27,4.42-4.64,10.55-7.42,14.21-12.91a23.06,23.06,0,0,0,2.36-2.76c1-2.22,3.28-3.42,4.43-5.53a2.22,2.22,0,0,0-1-2.33c-5.61.14-6.57-1.36-6.7-10.54-4.47-1.38-7.68,1.12-9.67,4.29-3.06,4.87-5.95,9.91-6.91,15.88-1.09,6.73-7.89,9-13.5,5.09-2.34-1.61-2.74-3.32-1.74-5.48,2.64-5.7,5.14-11.56,11.94-13.72,4.41-1.4,6.55-4.1,4.57-8.87-.4-.77-1.15-1.92-1.86-1.26-6.76,6.34-14.08,1.4-21.07.88-3.55-.27-2.22-3.06-1-4.9C213.09,754.15,215.91,748.1,220.1,742.93Z"
            fill="#bc916c" />
        <path
            d="M457.31,526.21c.36-4.09,1.06-7.68-5.34-8.19-4.28-.35-6.64-5.31-9.94-8.1-13.57-11.46-26.91-23.21-35.42-39.26-.49-.93-1.25-2.52-1.81-2.49-7.69.4-5.94-5.79-7-9.89-.52-2-.66-4-1.88-6a24.42,24.42,0,0,1-3.57-14.35c.86-10-6.06-17.94-6.85-27.44a1.79,1.79,0,0,0-2.22-1.79,1.89,1.89,0,0,0-1.07,2.7c2,4.28.57,8.52.31,12.8-.08,1.38-1.21,3.64,2.45,4,2.51.28,1.31,3.91,1.07,6.16,1.09,5.26,2.28,10.5,3.67,16.62-1.52-6.09-2.7-11.34-3.66-16.63-2.39-2.21-3.21-.75-2.65,1.46,1.27,5.05.15,10.44,2.51,15.39-3.32-1.64-2.46-5.38-4.91-9.34.06,7.92,3.88,14.21.54,20.44,2.31,8.51,7.87,15.24,12.53,22.43a198.55,198.55,0,0,0,16.56,22.29,89.25,89.25,0,0,1,8.6,11.76l1.46,2.3c4.55-2.68.86-6.08.57-9.06-.2-2-2.67-3.46-1.74-6.54,4.8,2.65,7.12,7.41,10.67,10.87,1.81,1.76,3.71,4.89,4.77-.52.39-2,1.36-2.24,3.23-1.06,3.68,2.32,8.17,2.94,10.83,7.42C450.32,524.41,453.42,527.26,457.31,526.21Z"
            fill="#382518" />
        <path
            d="M986.29,228.38c0-.87-.41-2.06,0-2.55,2.31-2.69,3.08-5.94-.1-7.69-3-1.66-6.16.61-8.31,3.11-7,8.2-12.66,17.65-21.07,24.59s-16.52,14-26.78,18a73.18,73.18,0,0,0-17.63,9.6c-3.58,2.66-7.19,3.45-9.25-2,4.7-5.13,4.62-11.24,3.59-17.56-3.94-2.51-5.68.24-7.91,2.91-12.47,14.93-22.17,32-35.73,46.12-2.67,2.79-6.43,2.46-9,4.78l-2.21,1.93c12.06,5.86,17.33-5.94,25.63-9.83,1.87-.87,2.56-2.89,1.75-5.06-.66-1.73.19-3,1.44-3.94,6.67-5.21,12.57-11.09,16.67-18.61a2.22,2.22,0,0,1,2.74-1.22c1.64.77.77,2.19.38,3.38-3.62,11.05-7.29,22.09-10.82,33.17a73.15,73.15,0,0,0-1.6,7.57c2.6-.23,4.74-1.56,6.85-2.93,1.47-2,7.36-3.35.15-6.31-2.66-1.09,1-4.67,1.47-7.2a69,69,0,0,0,2.64-6.67c1.71-6,6-8.73,11.35-11.52,12.7-6.61,26.37-11,39.12-18.06,1.33,2.65-1.82,5.48.9,7.51A113.47,113.47,0,0,0,986.29,228.38Z"
            fill="#34231a" />
        <path
            d="M854.1,307.67c5,1.17,7.9-.81,11.36-4.73,6.86-7.81,13.95-15.2,18.29-24.9a21.2,21.2,0,0,1,7.15-8.22c4-2.87,7.66-6.32,9.15-11.42.84-2.86,2.24-5.36,6-4.16,1.51-.32,1.2-2.09,2.12-2.82-.77,2.54-.83,5.21-1.39,7.79-.31,1.39-1.2,3.27.57,4.08,2,.91,3.8-.22,5.19-1.77a6.35,6.35,0,0,0,1.27-5.53c-6.1-19.05.9-38.05,0-57.07-.22-4.6.89-9.32-2-13.95-2.73,10.78-5.56,21.54-8.17,32.34-4.49,18.59-9.32,37-18.3,54.1-3.37,6.43-7.85,10-14.36,11.88,0,.3.1.59.14.89,2.37,2.76.83,4.63-1.4,6.39a50,50,0,0,1-18.09,9.51c-5.63,1.33-9.5-1.11-12.76-5.5-7.14-9.63-17.69-15.77-25.61-24.62a2.59,2.59,0,0,0-3-.28c-.14,16.12,11.09,23.46,22.65,30.49-4.27,2.91-4.27,2.91-1.85,5C838.24,310.39,846.28,308,854.1,307.67Z"
            fill="#432e21" />
        <path
            d="M308.36,615.78l-.7-1.78c-7.41,12.11-19.91,14.28-32.22,14.51S251,625.1,239,622c-4.66-1.2-9.38-1.82-14-2.75-9.45-1.87-18.41-5.42-27.28-8.68-13.23-4.87-22.36-15.36-29.09-27.74-7-12.84-9-26.67-8.59-41,.06-2.19,1-4.73-1.8-7.45-2.23,8.15-6.86,14.81-7.46,23,3.66-.31,5.17,1.13,5.92,5,1.32,6.84,1.11,14.33,6.51,19.9,2.87,5.08,5.53,10.29,8.65,15.21,5.93,9.35,15.58,14.59,24.16,20.94,3.24,2.4,6.66,4.85,10.74,6,2.6.73,5,2.94,7.74.1.39-.42,1.7-.26,2.46,0,23.7,8.19,48.77,9.43,73.06,14.67,1.06-1.65-.14-2.23-1.34-2.83-.26-.13-.69.16-.81-.31,4,.14,4.56-4.57,8.35-5.38C304.51,628.88,307.28,624.93,308.36,615.78Z"
            fill="#5d412b" />
        <path
            d="M349.51,673.77c1.62,4.15-2.12,4.94-4.24,6.76-1.65.85-1.24,1.89-.37,3.11,2,2.71.94,5.17-1.41,6.67-3.18,2-4.07,4.72-3.85,8.24.09,1.35.85,3.18-1.09,4-5.9,2.4-4.68,7.07-2.46,10.69,2.53,4.13,2.82,10.3,9,11.63,1-.06.92-2.64,2.74-.91a14.09,14.09,0,0,0,5.15,2.72,3.07,3.07,0,0,0,4-1.24c.82-1.36,0-2.47-.86-3.46a33.74,33.74,0,0,1-3.21-3.23c-.78-1.11-1.29-2.38-.34-3.58,1.09-1.41,2.36-.61,3.41.12,2.36,1.65,4.7,2,7.25.43,3.54-2.25,4,2.24,6.26,2.92,4.78,1,9.61.18,14.41.5,3.56-.89,6.5-2.59,8-6.13-1.8-2.65-3.93-1-5.7-.2-3.7,1.71-6.79,1.53-8.83-2.31-2.29-4.35.19-6.65,3.77-8.75a28,28,0,0,0,9.79-9c.75-4.08,4-8.23-.34-12.18-4.72.11-6.7,2.74-7.49,7.22-1.15,6.55-9.31,12.62-16.22,12.59-2.49,1-2.2,3.5-2.82,5.51-.49,1.57-1.5,2.77-3.26,2.7-2-.09-2.26-1.83-2.53-3.31-.88-4.89,1.39-8.86,3.81-12.81,2-3.29,4.77-6.54,1.8-10.72-2.85-3.34-1.86-6.22,1-8.89a4.63,4.63,0,0,0,.5-1.71c-3.71-4.2-4.47-8.51-.81-13.22a3.17,3.17,0,0,0-.11-3.63,6.71,6.71,0,0,0-5.14,3.29c-1.26,2.08-2.92,3.59-5.66,2.5C350.37,664,349.75,668.84,349.51,673.77Z"
            fill="#623e2b" />
        <path
            d="M400.64,707.75c-2.62,7,.59,11.2,8.3,10.61,5.22-.39,8.37,1.21,8.61,6.89.35,8.07,8,12.6,9.87,20,.08.3.79.75,1.05.66,10.65-3.6,9.44,10,16.73,11.62,2.28.52,3.64,3.33,7,3.69,3.05.32,6.7,3.38,6.66,7.13-.13,12.42,9.48,15.79,18,20.34a233.87,233.87,0,0,0-34.14-46.36c-8.33-8.74-14-19.48-20.52-29.56-3.78-5.85-7.41-11.7-13.19-15.81-2.08-1.48-2.31-3.12-2-5.58.43-3.08,2.05-6.26.28-9.45a3.1,3.1,0,0,0-1.7,1.36C404.35,691.52,401.26,699.38,400.64,707.75Z"
            fill="#85573d" />
        <path
            d="M676.13,419a214.16,214.16,0,0,0,21.69-28.79A25.59,25.59,0,0,1,708.09,381c-2.05,3.34-5.72,5.53-7.16,9.69,3.18.37,4.81-1.9,5.71-3.15,7.13-9.86,17.62-12,28.62-12.84,3.08-.23,4.64-1.5,6.17-3.81Q758.52,345,775.8,319.27c1.12-1.67,2.37-3.07,1.85-5.23-8.55,12.43-18.34,24-25,37.68-1.7,3.49-5.34,4.2-7.63,6.69-4.73,7.77-10.24,9.6-22,7.4a106.14,106.14,0,0,1-14.83-4.31c-4.32,1.89-2.08,7.4-6.21,10.17-5.58,3.75-5.95,4.34-7.72-2-1.24-4.4-4.51-5.23-8.52-4.63,9.38,3.54,5,30.43-5.71,29.91,0,0,1.28-1.65.13-9.61-3.34,5.85-3.49,13-2.26,18.54C679.15,409.83,676.51,414,676.13,419Z"
            fill="#503724" />
        <path
            d="M769.46,251.42c1.44-2.74,2.4-5.47,1.38-8.71-.49-1.53-1-3.73.66-4.84,2.11-1.39,3.37,1,5.06,1.68,2.68,1.11,4.62,4.75,8.32,2.79-.06-.29-.12-.58-.17-.87a95.66,95.66,0,0,1-8.21-10.09C758.69,213.6,752,190.2,744,167.49c-1-2.86-1-8.12-4.68-7.43s-1.69,5.63-1.5,8.54c1.82,27.55,11.94,52.26,26.56,75.38C766,246.52,767.76,248.94,769.46,251.42Z"
            fill="#4a3423" />
        <path
            d="M220.1,742.93c-7.89,3.5-8.26,12.79-13.81,18.22-1.26,1.23-1.4,6,4.09,5.2,3.58-.49,7.61.38,11.12,1.57,4.42,1.49,7.57,1,9.79-3.24,0-.09.44-.08.6,0s.25.34.37.52c5.81-.3,7.07-5.91,10.41-9.06,1.29-1.21,1.43-2.43,4.21-2.11,4.73.54,3-3.12,2-5.69a9.64,9.64,0,0,0-1.86-2.07c-2.22-1.34-4.2-2.81-5.22-5.43-1.5-3.9-1.28-6.91,3.52-7.58,6-.83,6.25-4.1,4.17-8.66a12.19,12.19,0,0,0-3.78-2.65c-9.69,2.33-17,7.75-21.4,16.75-.49,1-.78,2-1.91,2.38Z"
            fill="#af7d5a" />
        <path
            d="M297.56,669.3c-3.43,4.08-6.92.75-10.39,0,2.07,4-1.05,5.89-3.19,8.21-3.61,3.25-6.28,7.38-10.14,10.44-1.61,1.27-2.88,3.47-1.4,5.74s3.8,1.12,5.88.94c3.25-.28,5.72-4.41,9.51-1.86,2.88,1.26,5.82-.68,8.71.22,7.27-4.25,14.17-4.22,20,2.44,2.7,3.09,6.49.84,8.89,2.35,2.74,1.72-1.44,5.83,1.29,8.38,1.74,1.62,3.5,3.94,6,3.15,2.24-.7,1-3.44,1.55-5.2.48-1.56-1.33-4.73,3.37-3.07,2.49.89,1.85-3.57,2.06-5.75s-1.34-3.72.94-6.16.78-5.85-3.47-6.29a116.76,116.76,0,0,1-12.6-2.3c-3.25-.7-.94-2.7-1.92-3.65-3.95,3.88-8.18-1.29-12.1.26-5.65,2.25-7.53-2-10.11-5.36A18.33,18.33,0,0,0,297.56,669.3Z"
            fill="#76472e" />
        <path
            d="M366.73,700.84c2.74,2.11,5.49,4.13,7.4-.84.63-1.63,1.91-2.13,3.53-2.37,4.57-.69,6.76-4.15,6.83-8,.09-4.64,2.15-7.06,6-8.66,2.48-1.92,2.82-4.5,2.25-7.36a38.91,38.91,0,0,1-6.18-19.24c-.12-3.45-3.51-5.72-6.47-3.81-2.71,1.75-4.78.16-7.07.53-2.91.92-6.54-.08-8.53,3.22a11.67,11.67,0,0,1-.85,2.39c-3.23,5.2-7.65,10.43.92,14.93,3.24,2.2,4.51,5.12,3.46,9C366.22,687.21,369.93,694.26,366.73,700.84Z"
            fill="#3d291e" />
        <path
            d="M163.18,582.25a92.12,92.12,0,0,1-5.41-21.87c-.68-6.17-2.5-7.06-7-3-2.62,31.35,3.84,59.08,31.58,78.32a20.86,20.86,0,0,0,9.54,4c.16-4.89,5.16-.31,6.33-3.54-.4-2.19-2.73-2.28-4.39-2.86-11.26-3.9-19.27-12.07-27.24-20.33-2.85-3-4.54-6.52-4.23-10.57C162.86,595.67,158.54,588.74,163.18,582.25Z"
            fill="#49311e" />
        <path
            d="M644,359.1a9.67,9.67,0,0,0,5.51.81c-1.75-12.77-10.37-23-14.23-35,3.9-1.71,4.48,1.78,6.53,2.1-6.09-16.26-9.95-32.79-6.93-50.32.58-3.35,2.44-6.55,1.59-10.17C621,278.8,621.46,329.25,644,359.1Z"
            fill="#36241b" />
        <path
            d="M498,503.48c1.39-2,.3-3.92-.42-5.82a37.07,37.07,0,0,0-15.46,3.88c-7.85,3.75-16.56,4.76-24.65,4.43-8.64-.35-15.56-7.05-21.95-13-12.26-11.32-24.37-22.8-32.32-37.81-1,1.87-1.3,4.29.1,5.54,5.18,4.59,7.31,11.57,12.2,16,7.29,6.6,12.4,15,19.47,21.62,3.79,3.55,8.79,5.71,12.86,9.21,3.06,2.64,7.33,3.8,8.18,8.57.11.64,1.36,1.69,1.87,1.57,7.21-1.63,12.63,5.27,19.69,4.13h0c1.21-.52.84-2.28,1.28-2.55,3.9-2.39,3.87-4.81-1.37-8C485.9,510,492.7,508.47,498,503.48Z"
            fill="#725135" />
        <path
            d="M950.56,269.88c-.06-1.51-.36-3.05.74-4.37s3.1-2.42,1.21-4.29c-1.61-1.61-3.49-1.26-5.33,0-11.09,7.74-24.41,10.85-36.28,17.13-6.55,3.47-11.88,6.63-13.69,14.09a38.89,38.89,0,0,1-2.17,5.45c5.22,1.44,9.07-1.65,13.06-4.05,1.44-.87,2.45-2.45,4.23-2.9,11.88-6.47,25.33-10,35.88-18.93C949,271.35,949.78,270.6,950.56,269.88Z"
            fill="#271910" />
        <path
            d="M586.14,465.1c4.86.25,9.22-2,13.88-2.75-4.84-1.75-5.92-5.14-2.66-8.75,2.54-2.81,2.22-4.72.23-7.28a320.45,320.45,0,0,1-20.7-29.8c-2-3.36-4.7-6.29-9-7-1.26,2.6,1.62,3.71,2.07,5.7.6,2.71,1.85,6.58-3.07,6.68-6.38,1.92-8.16-1.49-9.88-7.83-4.23-.71-2.82,1.87-2,3.74,2.7,6.46,7.62,12,13.61,14.13,11.64,4.13,12.44,14,15.11,23.14C584.69,458.4,584.24,462,586.14,465.1Z"
            fill="#906842" />
        <path
            d="M871,283.29c-2.06,0-2.64-1.19-3.48-3-7-14.81-16.9-27.74-27.49-40.27,2.45,15.92,14.45,28.22,17.31,44.1-7.83-8.06-13.26-18-23.14-24.09,3.09,8.89,9.11,16.38,11.84,25.35-2.88,1.76-5.52,3.59-2,7.14,5.29-3.52,11.24-4.4,17.47-4.72,3.54-.18,7.25-.78,9.81-3.85A3.24,3.24,0,0,0,871,283.29Z"
            fill="#4a3628" />
        <path
            d="M784.88,242.34c4,1.9,5,5.86,6.36,9.45,1.73,4.42,3.77,5.6,7.07.55,2.49,5,3.77,10.49,9.54,12.19,1.94-1.49.35-2.57-.45-3.74-1.79-3.31-4.89-6-4.69-10.23a88.21,88.21,0,0,0-19.36-41.4c-1.14-1.37-2.46-3.83-4.69-2.12-1.71,1.32-.13,3.12.57,4.66,3.88,8.55,7.28,17.23,7.18,26.83.36,1.62-2.12,1.86-1.7,3.5Z"
            fill="#432e1f" />
        <path
            d="M150,813a39.18,39.18,0,0,0,4.67,19.25c5.22,4.41,6.81-1.81,10-3.36,5.65-6.1,8.23-13.58,9.65-21.58.77-4.31-1-6.76-5.37-7-5.76-.39-11.89-1.85-15.9,4.27C151.86,807.25,150.09,809.8,150,813Z"
            fill="#3a2920" />
        <path
            d="M586.14,465.1c.45-6.34-1.68-12.24-2.81-18.34-1.6-8.71-6.49-12.63-14.15-15.94a26.82,26.82,0,0,1-13.49-13.58c-.7-1.56-1.27-3.18,1.61-2.22a4.65,4.65,0,0,0,1.76-1c-1.23-2.17-3.37-3.4-5.17-5-4.76-6.1-4.63-13.62-5.6-20.65a35.68,35.68,0,0,1,1-15.44c.56-1.8,1.25-4.56-.62-5.19-2.54-.85-3.47,2.08-4.17,4-2.63,7.21-2.83,14.75-2.45,22.33.09,1.69.2,3.38.3,5.07,2.6-2.41,3.49-.68,4.52,1.65,1.66,3.75,2.28,7.78,4,11.58,4.37,9.79,11,17.31,19.52,23.65,4.89,3.66,5.69,10,8.78,14.94,4,3,3.77,6.62,1.4,10.49-1.92,1.18-1.56-1.8-3.36-1.56,0,2.6-.73,5.85,2.17,7.1C581.41,467.86,584.54,468,586.14,465.1Z"
            fill="#705036" />
        <path
            d="M913.84,256c-1.44,2.68-1.63,6.54-6.35,6.53.6-4.71,1.19-9.3,1.77-13.89l-.72-.33-2.46,5.94c-.66,5.78-1.14,11.59-2.91,17.18,2.64,1,4.51-.47,6.58-1.76,10.87-6.74,21.82-13.35,32.7-20.06,2.91-1.8,5.94-3.35,5-8-.66-3.42,1.93-6,3.93-8.63-3.86-1-2.56-5.56-5.13-7.46a3.16,3.16,0,0,0-2.27,3.51c.44,3.73-1.74,5.95-4.1,8.17-1.47,5.75-6.24,8.69-10.53,11.86-3.81,2.82-8.13,4.93-12.13,7.49C915.79,257.52,914.67,258.11,913.84,256Z"
            fill="#704f34" />
        <path
            d="M163.34,828.08c-3.75-.42-3.6,7.27-8.67,4.13l11,11.43.94.05c5.14-.5,10.26.46,15.4.28,3.7-.12,7.32-.39,10-3.47a4.34,4.34,0,0,0,.86-2.6c-2.72-4.2,3.29-6.45,2.28-10.27.54-1.54.23-2.76-1.34-3.51-3.39.52-6.84.53-8.92,4.21-1.25,2.21-4.5,2.38-5.76.81C174,822.76,168.75,825.77,163.34,828.08Z"
            fill="#b1997d" />
        <path
            d="M939.93,237.23c8.58-.37,4-7.95,6.37-11.68a139.23,139.23,0,0,0-25.62-41.12C923.49,203.33,936.2,218.69,939.93,237.23Z"
            fill="#453123" />
        <path
            d="M215.42,861.63c-1.34-.71-2.74-1.32-4-2.15-2.4-1.58-1.83-3.71.26-4.44,3.38-1.18,8.84-.42,3.8-6.4,2-1.49,4-3,6.11-4.46a26.77,26.77,0,0,1,2.84-1.54c2.5-2.51.63-3.64-1.49-4.69a20.19,20.19,0,0,0-12.29,2.64c0,.94.74,1.43,1.24,2.08-6.24,3.5-10.85,10.64-20,7.21-5.21-2-10.09,3.25-15.48,2.17-1,3,2.09,2.67,2.5,4.23A29.6,29.6,0,0,0,193,860C200.48,860.32,208,859.9,215.42,861.63Z"
            fill="#83684e" />
        <path
            d="M178.88,856.28,177,852.8c3.64,1.28,6.75.94,9.61-1.13a5.83,5.83,0,0,1,5-.69c8,2.24,17.11-1.11,20.89-7.74,1.15-2-1.16-1.51-1.72-2.28-5.67-1.26-11.21.33-16.66,1.22-9.25,1.5-18.39,3.17-27.76,1.17l-.68.29C167,851.07,171.71,855,178.88,856.28Z"
            fill="#b1997d" />
        <path
            d="M353.92,491.63c-7.41,9.68-6.75,16.82,2.37,25.41,1.74,1.63,3.57,3.17,5.34,4.77.47.41.55.48-.52,2.33-.68,1.16.09,1.82.76,1.88,8.7.73,13.9,8.5,21.88,10.8,3.14.91,5.82,1.61,8.5-.67-9.68-3.7-17.83-9.78-25.79-16.24C357.4,512.56,355.58,502.16,353.92,491.63Z"
            fill="#755435" />
        <path
            d="M806.64,261.1a3.33,3.33,0,0,1,1.21,3.43,10,10,0,0,0,2.36,5.15c9.16,9,20,16.34,27.72,26.83,3.68,5,8.38,7.31,14.58,4.81-.15-5.1-5-6.09-7.81-8.8-2.87-3-.26-4.95,1.31-7.11-16-.92-27.07-9.91-36-22.26-.86-1.18-1-2.94-2.72-3.39-.49.14-.75.38-.77.73S806.52,261.06,806.64,261.1Z"
            fill="#825f3f" />
        <path
            d="M222.37,741.09c1.42.5,2.28.41,2.83-1.39,1.5-4.91,4.58-8.15,9.51-10.39,3.77-1.71,6.4-5.7,10.85-6.64,9.34-3.27,11.58-7.07,9-16.11-.76-2.7,1.13-4.44,1.41-6.7a2.57,2.57,0,0,0-.56-1.71C242.68,711.13,230.12,724.27,222.37,741.09Z"
            fill="#dcae86" />
        <path
            d="M373,651c2.41,1.46,4.5,2.73,7.43.29a2.93,2.93,0,0,1,4.74,2.4c-1,8,2,14.53,6.56,20.66,5.5-1.3,8.72,1.31,10.59,6.2,2.31-.56,1.85,3,4,2.7.32-.46.63-.92,1-1.37-1.08-9.17-2.24-18.3-12-23-1.42-.08-4,.74-1.8-2.24C388.05,649.83,381.35,647.5,373,651Z"
            fill="#623e2b" />
        <path
            d="M150,813c1.19-2.7,2.37-5.39,3.56-8.08,2.76-3.81,5.86-6.41,11.09-4.23,1.62.68,4.52.86,4.45-2-.12-5,2.55-2.38,3.81-1.39,5.4,4.2,5.62,4.25,8.89-1.79,1.69-3.15,2.64-6.39.81-9.85-2.82-3,1.62-5.41.67-8.26-7.35,6.41-16.2,10.72-23.77,16.77A24.46,24.46,0,0,0,150,813Z"
            fill="#e1ccb3" />
        <path
            d="M662.07,315.75c2.16-4,3.1-8,.55-12.32a9.39,9.39,0,0,1-.77-7.6,5.8,5.8,0,0,0,.75-5c-2.35-6.79-4.27-13.73-7.25-20.27-.63-1.38-1.89-5.26-4-.67C649.88,283.93,654,297,658.64,310,659.37,312,659.14,314.88,662.07,315.75Z"
            fill="#432f23" />
        <path
            d="M288.15,692c.54-2.77-.95-3-3-2.22s-3.84,2-5.83,2.74-4.52,2.51-5.89.68c-1.87-2.49,1.59-5.3,2.69-5.61,5.4-1.5,5.65-6.44,7.83-10.07-8.19,1.36-13.78,7.26-20.31,11.53-2,2-2.51,5.13-4.9,6.89-.31,4,1,6.23,5.3,4.42,2.58-1.09,2,3.12,4.23,2.13a58.15,58.15,0,0,1,17.41-6.74A6.94,6.94,0,0,0,288.15,692Z"
            fill="#a7633e" />
        <path
            d="M349.51,673.77a41.4,41.4,0,0,0,4.2-13.72q-.27-11-.53-22.07c-3.62,4.37-10.56,7.13-5.1,16.07-4.35-2.41-3.63-6.07-7.53-7.34,3.61,7.45,2.85,15,5.54,21.84C346.89,670.59,347.17,672.79,349.51,673.77Z"
            fill="#473021" />
        <path
            d="M678.84,319.89c.06.94.11,1.88.16,2.82,1.83,6,3.66,12,5.94,17.81,3.95,10,12.17,15.12,22.79,16.39-3.39-6.23-10.27-9.58-13.23-16.3-2-4.47-4.89-8.54-7.44-12.75A20.47,20.47,0,0,0,678.84,319.89Z"
            fill="#8a6340" />
        <path
            d="M382.89,331.64c1.72-1.11,3-3.52,5.59-2.14,2.94,1.58.63,3.78.52,5.72-.28,4.94-.57,9.87-.79,14.82-.12,2.67,1.76,4.3,3.43,6q.35-22.4.69-44.8c0-1.12-.23-2.25-1.51-2.53s-1.95.9-2.25,1.85C386.34,317.49,382.2,323.91,382.89,331.64Z"
            fill="#75593e" />
        <path
            d="M553.89,409c0,3.48,2.72,4.24,5.15,5.34,2.63.84,5.76,1.52,7.89,7.58,2.15,1.89,3.77,3.84,5.16-1,1.48-5.2-1.75-8-4.16-11.37C563.36,406.32,558.64,407.25,553.89,409Z"
            fill="#543a28" />
        <path
            d="M912.33,291c-6,1.83-11.06,5.78-17.29,6.95-.77,1.78-1.64,3.52-2.28,5.35-.55,1.57-2.12,3.26-1.06,4.81,1.57,2.3,3.33-1.13,5.17-.39.77,2.16-1.92,2.71-1.94,4.44,4-.41,5.4-3.74,7.23-6.54C905.4,300.62,908.07,295.24,912.33,291Z"
            fill="#533d2d" />
        <path
            d="M651.37,269.88c.68-1,1.51-1.8,2.14-.07,3.1,8.57,6.89,16.92,8.34,26,3.8.29,5.1,4,7.88,5.73-1.42-8.31-7.1-14.92-9.24-23a97.26,97.26,0,0,0-4-10.85c-.82-2.07-2.42-4.48-4.61-3.67C649.05,265.12,650.23,267.77,651.37,269.88Z"
            fill="#7c6450" />
        <path
            d="M707.73,356.91c-5.07-4.46-13.5-2.91-17.25-10.1-1.65-3.17-4.41-5.67-4.91-9.56-.72-5.44-3.5-10.08-6.57-14.54,0,9.38,2.27,18.57,8.62,25.19,4.56,4.76,9.34,11.4,17.93,10.17,1.14-.17,2.43.8,3.66,1.25C709.54,358,708.56,357.51,707.73,356.91Z"
            fill="#573e2a" />
        <path
            d="M708.13,361.5c5.28,5.87,12.69,5.32,19.52,6.43,1.64.26,3.4-.43,5.09-.39,6.55.18,12-.91,12.27-9.13-5.16,6.16-11.37,7.12-19,5-5.47-1.54-11.56-.73-16.65-4.08Z"
            fill="#826040" />
        <path
            d="M425.49,945.07c-2.46-1.07-4.12.59-5.94,1.7-3.12,4.28-3.55,9.69-5.95,14.27-1.06,4.61-1.11,9.43-3,13.9-.54,1.27-1.81,4.21,2,3.66,3.42-4.52,4.35-10,5.86-15.25C423,958.11,422.51,950.92,425.49,945.07Z"
            fill="#2a1812" />
        <path
            d="M430.89,939.34l-1.68,4.19c3.08,3.82,4.08.05,5.1-1.63,2.2-3.61,3.14-7.93,6.28-11,6-5.79.75-13.47,3.26-19.85,0-.09-.16-.38-.31-.43a1.69,1.69,0,0,0-.63,0l-3.21,8.55c-2.34,7-4.35,14.16-8.86,20.22Z"
            fill="#2c1611" />
        <path
            d="M507.58,847l3.44-8.32-.46-.28-3.35,5c-3.38-5.1-.11-9,1.47-12.72,1.94-4.57,2.18-8.23-2.35-11.21-3.86.29-3.56,3.16-3.61,5.82,1.64,1.29,1.78-1.33,2.62-1.21-2.55,5.78-3.15,12.06-3.95,18.3a6,6,0,0,0,.42,1.91C503.06,846.61,504.08,849.46,507.58,847Z"
            fill="#623e2b" />
        <path
            d="M397.71,981.83c2-2,4.48-4,6.57-6.43s1.94-3.52-1.06-5.57c-1.65-1.12-.76-2.26-.31-3.29a48.88,48.88,0,0,0,3.15-8C401.68,965.74,392.43,971.15,397.71,981.83Z"
            fill="#2c1611" />
        <path
            d="M360.93,972.59l-10.5,15.24c.24,3.1-2.65,8,.38,8.84,3.28,1,3.14-4.53,4.59-7.12A40.39,40.39,0,0,0,360.93,972.59Z"
            fill="#563525" />
        <path
            d="M514.77,867.8c5.65-8.39,6.21-16.44,8.06-24.08.28-1.18.3-2.34-1.25-2.17-1,.11-2.45-.61-2.76,1.55C517.71,850.78,516.33,858.42,514.77,867.8Z"
            fill="#623e2b" />
        <path
            d="M507.58,847c-2.83.79-3.54-1.22-4.26-3.22-6.66,6.61-4.68,14.64-3.63,22.52,2.29.21,2-2,3-3.08Q505.11,855.08,507.58,847Z"
            fill="#623e2b" />
        <path
            d="M395.26,535.84c9.23-3.57,18.79-6.35,27.42-11.36a3.24,3.24,0,0,0-2.07-2.3c-5.78,4.75-13.27,6.17-19.57,9.92C399.07,533.27,396.37,533.34,395.26,535.84Z"
            fill="#755435" />
        <path
            d="M343.15,981c-5.72,3.82-5.6,9.28-7.48,13.72-.35.83-.35,1.76.69,2.1,1.3.42,2.07-.43,2.41-1.52C340.14,991,341.43,986.6,343.15,981Z"
            fill="#3d1f18" />
        <path d="M641.81,327c2,9.06,5.24,11.43,13.06,9.49C648.56,336,645.94,330.5,641.81,327Z"
            fill="#36241b" />
        <path
            d="M784.71,242c1-1,3.14-1.36,1.7-3.5-2.71,2.35-3.13-1-4.36-1.92-2-1.5-2.89-4.32-5.55-5.23C778.43,235.55,780.14,239.89,784.71,242Z"
            fill="#806549" />
        <path d="M183.3,777.36c5.23.26,8-2.84,10-7.14C189.09,771.36,186.15,774.3,183.3,777.36Z"
            fill="#e1ccb3" />
        <path d="M419.24,518.81a20.43,20.43,0,0,0-8.59-11.76A40,40,0,0,0,419.24,518.81Z"
            fill="#422c1a" />
        <path
            d="M393.52,656.68c-1.48-.29-3.1-.77-4.08.82-.5.81.09,1.62.95,2,1.78.88,3.59,1.86,4.93-.63Z"
            fill="#3d291e" />
        <path
            d="M258.9,697c2.78-1.92,3.74-4.94,4.77-7.91a48.1,48.1,0,0,0-8.25,9.08l.28.48C257.61,699.72,257.89,697.65,258.9,697Z"
            fill="#dcae86" />
        <path d="M806.64,261.1l.63-1.34-4.56-9.2C800.65,255.31,805.17,257.64,806.64,261.1Z"
            fill="#4a3628" />
        <path d="M775.45,261c-.39-4.2-2.76-7.17-6-9.61A22.51,22.51,0,0,0,775.45,261Z"
            fill="#4a3423" />
        <path
            d="M308.36,615.78c-.92,2.6-2.58,4.81-3.57,7.43s-3.31,6.1-6.34,5.63c-5.89-.91-8,3.19-10.69,6.55-1.62,2.07,2.87,1.66,2.23,3.79,3.7-.54,6.72,1.48,9.93,2.73s5.13,1.26,4.49-3.1.46-7.79,5.75-8.16c1.81-.12,2.49-1.54,3-3,2.28-5.88,5.55-11.09,10.55-15-.91-2.47-3.63.37-4.37-2.29,5.45-4.07,8.52-10.46,13.58-15.09,1-1,2.46-2.79,4.33-1.69.46.28.09,2,.1,3h0a24.25,24.25,0,0,0,12.1,5c10.58-8.61,17.09-21.9,30.93-26.76,3.73-6.06,9.43-9.62,15.67-12.64,9.35-4.52,17.95-10.37,26.91-15.56,3.09-1.79,6.44-3.59,10.29-3.58,1.4-.5,3.72-1.88,2.36-2.75-4.5-2.86-4.73-8.86-9.28-11.43-.9,1-1.79,2.07-2.69,3.11.29,1.53-.82,2.49-1.5,3.62a33.57,33.57,0,0,1-12.68,3.24c.08,5-3.34,6.62-7.31,7.89-1.63.52-3.3,1.2-4.23,2.86-5.36,3.16-12.06,3.11-17.1,7-1,2.93,1.27,2.66,2.79,2.51,2.84-.27,5.33-1.73,9.06-3.18-5,3-9.23,5.17-12.64,8.31-2.27,2.09-2.12-1.4-3.42-.9l-20.52,12c-1.5-1.84,1.28-2.17.22-4.68-7.83,8-19.9,8.73-26.71,18-2.72,3.67-7.53,5.08-9.85,9.22-1.48,2.64-7.05,4.26-1.64,8.4,1,.76-.64,1.74-1.22,2.57-1.17,1.64-7.07,2.25-1.06,5.64,1.46.81-.25,3-1.95,2.84C312.05,617.25,310.21,616.35,308.36,615.78Z"
            fill="#3f2817" />
        <path
            d="M322.7,676.92l-2.45,4.76c5.16-1.31,8.59,3.29,13.6,2.36,2-.38,5.32-1.23,6.18,2.45,1.09,4.64-3.48,2.91-6.14,4.87,7.24.94,4.09,5.4,4.5,8.93-2.49-.11-1.74-3.23-3.95-3.21-2.4,3.42-1.87,7.33-1.61,12-3-2.84-8.05-3.13-4.69-9.28,1.24-2.27.24-7.48-5.18-3.89-3.12,2.07-4.13-.76-5.74-2.31-6.28-6-14.2-8.21-21-.92,1.25,4.64,3.09,8.31,9,5.63a1.66,1.66,0,0,1,1.84.37c3.88,4.94,10,6.69,14.67,10.41,2.93,2.33,1,6.77,3,9.76a11.08,11.08,0,0,1,6.83,4.59c5.71.36,9.36,4.37,13.45,7.62a8.91,8.91,0,0,0,5.62,1.95c2.06-.57,4.4-.86,4.08-3.9-2.59-2.45-4.82-5.58-9.1-4.83-5.47-4.21-7.71-10.34-9.6-16.57-.15-.51-1.09-4.93,3.41-2.76,2.49,1.21,1.95-2.39,2-4,0-3.94-1.16-7.48,4.32-10,3.42-1.57,3.37-7-.41-10.46-6.81.73-13.74,2.14-19.15-4C324.89,675.16,323.83,676.69,322.7,676.92Z"
            fill="#9a6440" />
        <path
            d="M687.64,432.31c-.57-6.46,5.66-5.95,9.38-8.85-4.32-3.11-3.46-5.92-.16-9.32,3.62-3.71,3.6-9.67,7.45-13.53A113.91,113.91,0,0,0,686.23,422c-1,1.62-2.36,3.08-3.27,4.77-2.27,4.15-4.7,3.86-7.42.49-1.34,4.62-.7,9.33-.64,14,0,1-.1,2.34,1.41,2.43.53,0,1.57-.52,1.58-.86C678.25,436.67,684.89,436.27,687.64,432.31Z"
            fill="#4e3727" />
        <path
            d="M752,400.28a118.92,118.92,0,0,0,16.73-19.81c3.31-4.71-1.14-7.53-1.63-11.24-.21-1.6-2.43-.34-3.06.41-1.91,2.29-4.52,4.64-5,7.33C757.45,384.89,749.93,390.77,752,400.28Z"
            fill="#3d291b" />
        <path
            d="M433.3,543.12c.56-4.15-1.93-1.5-3-1.22-8.34,2.17-14.66,8-22,12.09a176.54,176.54,0,0,1-17.19,8.85c-4.86,2-7.05,6.92-11.49,9.29-.89.47,0,2,.79,2.77,11.56-5.84,21.58-14.15,32.8-20.51C419.91,550.61,427.41,548.3,433.3,543.12Z"
            fill="#422c1a" />
        <path
            d="M604,524.87a24.37,24.37,0,0,0,10.57-8.39c-7.43.1-13.41,4.25-19.78,7.19-2.34,1.09-4.47,2.57-7.1,2.94-.72,2.65.48,3.06,2.71,2.34s4.22-2.31,6.75-1.28A7.39,7.39,0,0,0,604,524.87Z"
            fill="#463121" />
        <path
            d="M714.21,422.83c-6.5-.81-9.79,2.24-12.16,10.94C708.28,432.19,709.76,426.28,714.21,422.83Z"
            fill="#3d291b" />
        <path
            d="M350.79,732.37l-6-2.54c-.55,7.47-3,10.44-10.43,12.84-4.55,1.46-5.19,3.9-1.92,7.62a38.84,38.84,0,0,0,3.88,3.48c4.28,5.42.24,10.51-2,14.28-3.24,5.33-4.24,10.67-4.76,16.47,0,2.75-.17,5.57,3.47,6.31,5.1-4.47,11.41-7.74,14.29-15.17,2.56,3.1,4.12,6.25,6.53,8.69,1.83,1.86,3.79,4.28,6.63,2.85,2.48-1.25,1.74-4.14,1.63-6.49a7.87,7.87,0,0,1,.48-4.39c3.6,5.07,3.48,11.1,6.48,15.83.85,1.35-.31,2.84-1.63,3.86-3.44,2.67-13,2.51-16.42-.33-5.09-4.26-7.43-4.22-13,.2a2.65,2.65,0,0,0,0,1.82c2.29,5.14,4.63,10.26,6.84,15.44.73,1.71,2,4.12-.85,4.82-2.16.53-3.55-1.67-3.92-3.56-.66-3.35-.83-6.79-1.27-10.83-7.29,4-6.5,11.1-6.6,16.53-.1,4.92-3,4.8-5.48,6.07-.52.26-1.55-.48-2.34-.75.43,7.38-10.25,7.51-9.74,14.94,2.5-.49,5.24,1,7.56-1,.94-.8,2.49-.89,2.92,0,3,6.41,7.5,2.58,10.81,1.24,3.95-1.61,1.2-5.78,1.57-8.8.21-1.63-.84-3.4.43-4.87,1.16-.46,1.69.33,2.26,1,2.24,2.42,4.6,5.4,8.23,3.66s.93-5.11.77-7.66c-.51-7.9.17-8.41,8.2-7.47,1.84.21,6.22,1.35,5.46-3.88-.34-2.31,8.05-9.74,10-9.3s2.06,2.23,2.09,3.65a102.89,102.89,0,0,1-.32,11.65c-.22,2.2-.49,4.36.31,6.41,1.4,3.58,2.27,8,6.84,8.73s4.36-4,5.85-6.48c2.71-4.39,5.47-8.69,8.44-12.92,2.26-3.21,4.09-7.93,2.65-12.61-2.49,1.35-4.83,3-6.28-1.43-.85-2.63-2.75-4.91-3.9-7.47-1.3-2.91-3.35-5-6.48-4.12-2.81.84-3.77-.42-4.2-2.43-.47-2.2-3.86-4-1.85-6.26s3.8.28,5.48,1.56a2,2,0,0,0,1.71.16c4-1.91,4-1.93,8.56,1.24-.71-4.07-.95-7.58.47-11A5,5,0,0,0,392,769c-7.81-.57-2.62-5.56-3.61-8.5-1.87-5.57,2.12-8.88,2.21-12.8.19-8.11,8.08-7.62,11-12.31,1.17-1.88,3.91,0,4,1.5.17,4.83,1.43,10.11-2.48,14.15-2.61,2.69-5.05.44-7.76-1.43,2.56,2.5-3.19,6.78.81,6.47,3.59-.28,7.77,2.54,12.17-2.73s4-8.31,2.94-14.2c-1.17-6.27-5.76-15.38-11.93-16.32-3.06-.46-7.31-4.6-8.24,2.64-.12.91-3.95,2.08-5.89,1.82-3.12-.42-1.18-2.18-.28-3.53,4.25-6.31,10.79-10.37,15.76-16,4.08-7.65,5.48-15.92,5.71-24.47-1.23-.64-.57-3.42-3-2.65-1.8,1-1.51,2.65-1.52,4.24-.4,9.68-2.13,18.84-9.9,25.68a2.47,2.47,0,0,0-.32,1.8c-1.39,3.54-4.9,4-7.8,5.39-2.13,5.29-6.59,7.76-11.57,9.74-2.22.88-4,2.6-5.95,4-.62,3.1-1.9,5-5.41,3C357.72,732.76,354.26,732.54,350.79,732.37Z"
            fill="#5a311e" />
        <path
            d="M465.1,850.48c1.47-3.41.78-6.26-2.11-8.66a6.78,6.78,0,0,1-2-2.4c-1-2.31-2.66-5.77,0-6.8s1.92,3,3,4.67.95,4.73,3.46,5.15,4.29-1.69,5.74-3.65,1.88-4.81,5.46-1.78c1.48,1.25,5.51,3,7.41-.26,1.56-2.7,1.53-5.54-.1-9-3.51-7.49-11.47-12.2-12.18-21.59-.37-4.9-6.89-6.59-9.88-10.59-1.2-1.61-4.85,0-5.07,2.18-.33,3.22.27,7.53,4.21,8.08,4.26.6,4.87,2.7,4.95,6.07-2.2.64-2.52-1.43-3.66-2.14-1.54-1-2.38,0-3.23,1.06,5.29,2-1.34,6.63,2,9.18a1.44,1.44,0,0,1-.36,2.61c-.44.22-1.6,0-1.67-.22-1.42-4.63-7.94-2.93-9.35-7.54-.11-.35-.62-.58-.95-.86-3.85,7-6.4-4.36-10.66-.77-1.82,1.53-2.84-1.67-3.32-3.55-1.53-6,.77-11.81.18-18.7,4,2.94,4.18,7.51,7.71,9.6,2.29,1.36,4.28,2.34,6.59.88,3.35-2.12,3.92-5.52,3.57-9.15-.27-2.69-2-3.5-4.52-3.62-2.75-.13-5.3-1.22-8.3-.79-3.93.56-6.16-2.57-8-5.65-1.13-1.85-2.78-2.85-4.95-2.27-2.52.67-1.41,2.56-1.34,4.26.3,7.36-.78,8.06-8.57,7.1-2.09-.26-4.17.17-6.36-.56-5.14-1.73-6.72-5.53-3.17-9.43,1.1-1.22,2.77-2.23,1.3-3.43-4-3.27-3.39-8.76-6.05-12.17-11.17,6.78-2.52,17-4.66,25.34,3.26-.83,6.19-.91,9.18,1.47,2.2,1.75,4.92,3.64,8.23,1.91,2-1,2.74.37,3.33,1.9.8,2.07,2.3,2.68,4.49,3.07,6.08,1.1,7.72,5.66,3.3,10-2.12,2.08-2.51,3.68-1.78,6.16.85,2.85,3.32,1.68,5,2.41,4.84,2.12,11.14,1.8,12,10.49.94,9.57,6.76,18.14,10.79,26.94,4.46-1.75-1.38-6.18,2.71-7.75C460.9,846.34,462.43,849.91,465.1,850.48Z"
            fill="#573724" />
        <path
            d="M481.67,868.65c1.59.75.22,2.61,1.33,3.54,2.77-.19,5.16-1.47,7.6-2.62a17.19,17.19,0,0,0,3.29-3.47c.9-1.48,1.57-3,.76-4.74-1.88-1.78-1.81-4.93-4.52-6.17-2.38-1.08-.61-2.37-.05-3.61,1.05-2.36,2.17-4.64,2.22-7.38,0-2.12.1-3.94-2.44-4.5-2.74-.62-2.75.95-2.34,2.92.05.24-.49.83-.81.87-7,.73-4,4.69-2.67,8.17.2.51.12,1.13.34,3.8-4-9-9.64-2.09-14-4.15.35,6.17-1.4,13.37,10,9.08C484,859,483.9,865.26,481.67,868.65Z"
            fill="#573724" />
        <path
            d="M367,981.39l-3.12,8.32c.66.66.48,3.86,2.4.68,2.45-4.08,5.14-8,7.72-12l-.55-1.85C367,972.51,368.4,978.84,367,981.39Z"
            fill="#321d18" />
        <path d="M337.4,596.64a25.52,25.52,0,0,0-10.88,11.21c4.12-3.23,8.15-6.56,10.88-11.21Z"
            fill="#3f2817" />
        <path
            d="M313.57,664.54c1.55-2.87.31-4.85-2.16-6.32-.77-.46-1.93-.24-2,.73-.22,3,1.51,4.67,4.18,5.58Z"
            fill="#271910" />
        <path
            d="M498,503.48c-6.23.77-10.95,6.48-17.94,5.23-1.47-.26-3.71,1.69-3.9,3.82-.3,3.34,3.78,1.16,4.89,3.92-6.12-1.15-3.86,2.62-3.49,5.39,3.36-1.67,6.55-3.36,6-8.05-.31-2.65,2-2.64,3.61-2.47,9.28,1,16-6.74,25.51-6-2.9-4.65-6.72,2.15-8.89-2.24C501.73,502,499.89,503.48,498,503.48Z"
            fill="#4b3321" />
        <path
            d="M630.75,467.32a24.36,24.36,0,0,0-11,6.09C626.52,473.72,626.53,473.71,630.75,467.32Z"
            fill="#271910" />
        <path
            d="M643.4,416.94c1.52-2.19,3.79-4.31,1.55-7.77C642.52,411.82,642.8,414.36,643.4,416.94Z"
            fill="#271910" />
        <path
            d="M333.88,790.41c-3.47-.53-2.49-3.63-3.31-5.69-3.74-4.48-8.17-6.79-14.07-4.53-1.22,1.87,1.27,3,1,4.71-1.53.64-2.86-.93-4.35-.39-1.34,4.9-5.18,3.83-8.62,3.5-4.41-.42-6.95,3.16-10.39,4.78-1.38.65-2.18,2-3.77.54-3.82-3.58-6.52-1.18-9.14,2.15a17.63,17.63,0,0,0-.74-5.58c-.66-2.29-1-4.95-4-5.33s-3.47,2.19-4.27,4.11c-1.19,2.87-3,3.91-6.16,3.22s-6.54,0-9.69-1.2a5.7,5.7,0,0,0-3.7.46,4.45,4.45,0,0,0-1.32,1.31c-.86,2-1.78,4-2.7,5.91-1.42,3-.94,5.17,1.42,7.55,6.46,6.51,5.88,15-1.17,21.38a1.3,1.3,0,0,0-.29,1.2c.67,2.2-1,5.85,3.07,6s8.25-.73,9.05-5.34c1-5.89,5.27-4.47,8.6-4.17,2,.17,4,1.18,6.21,1.33-8-13.07-8-13.07-15.72-12,2.39-3.44,6.71-4.48,8.66-8.28,1.28-2.48,3.48-.28,5,.57,2.75,1.54,4.63,2.42,5.31-2,.57-3.76,3.47-3.07,6.11-2h0c1.31-3.92,3.95-3,6.78-1.95,3.86,1.47,6.68,4.6,11.57,4.8,3.5.14,1.9,5.18,1,7.72-.81,2.33-2.28,4.41-.1,6.38,1.06,1,2.94.45,4.33-.31,2.58-1.4,3.74-3.52,2.92-6.46-.75-2.71-2.06-5.35-1.52-8.24.36-1.88.81-4.82,2.54-4.92,3.95-.23,5.23-1.64,4.54-5.42-.11-.63.77-2,1.25-2.07,3.56-.19,7.09.4,10.73.25,4.4-.18,5.18,3.58,4.65,7.44-.07.51.54,1.11.9,1.8,2.76.06,1.52-3.42,3.51-3.87q.21-.6.45-1.2C339,792.94,338.48,790.14,333.88,790.41Z"
            fill="#7e4a2b" />
        <path
            d="M248.61,828.51c5-.76,5.48-4.44,6.84-8.6,2.25-6.85,1.55-11.81-4.71-15.62-2.24-1.36-1.42-2.55-.8-4.67.76-2.59,3.37-4.67,2.44-7.74a2.74,2.74,0,0,0-4.07.47,10.31,10.31,0,0,1-7.73,3.85c-1.28,0-2.53.45-2.51,1.5.18,7.84-10,13.06-5.38,22,1.68,3.24-4.44,4.36-2.54,7.91a8,8,0,0,1,.83,2.67c-.38-.69-.19-1.77-.79-2.6-2.06-2.25-3.33-.07-4.94.87,1.06-1.88,3.69-2.62,3.54-5.15-.22-3.91-.45-8.6-4-10.36-3.89-1.92-3.77,3.56-5.93,5.27-1.46,1.16-3,2.57-2.49,4.87.35,1.75,2.65,1.26,3.37,3.08-2.78.79-2.31-1.88-3.26-2.82a5.24,5.24,0,0,0-7-.41c-2,1.53-.31,4,.31,6,1.11,3.5.93,5.34-3.6,4.53-5.13-.92-9.69.81-13.67,4.09L191.34,840c1.76,3.28,4.4,1.89,6.78,1.21,7.7-2.21,15.59-2.69,23.54-2.7,1.92.69,3.6,1.54,2.77,4.08,6.73-1.67,12-6.62,18.88-8.15,1.93-.43,5-2.44,2.39-5.78-4-2.46-4,5.28-8.08,2.53-1.75-4.88,2.68-5.33,5.85-6.51,2.79-1,1,2.83,2.83,3Z"
            fill="#93603a" />
        <path
            d="M246.3,827.7c-1.25-1.9,1.84-4-.24-5.78-1-.9-10.4,4.12-10.22,5.52s.53,2.7-.5,4.2c-1.66,2.46,0,2.57,2.11,2.54,4,0,5.5-3.66,8.25-5.48C245.89,828.36,246.09,828,246.3,827.7Z"
            fill="#a87649" />
        <path
            d="M284.89,802.54c-.64,2.09-.5,3.9,1.91,4.72a1.43,1.43,0,0,0,1.94-1.17c.3-2.79-2.36-2.58-3.87-3.54Z"
            fill="#7e4a2b" />
        <path
            d="M695.72,401.88q-7,9.17-13.94,18.35l1.52,1.19C689.22,416.09,692.26,408.48,695.72,401.88Z"
            fill="#4e3727" />
        <path
            d="M376.66,563.44c.27,1.22.55,2.44.9,4l19.06-12.11c-3.86-2.55-6.32.84-9.15,1.07-2.18.19-4.25,4.08-6.6.29-8,1.47-13.33,7.53-20.28,10.8l.76,1.47c2.92-1.73,5.7-3.8,8.81-5.06C372.07,563.14,374.25,559.67,376.66,563.44Z"
            fill="#422c1a" />
        <path
            d="M398,549.66l14.75-5.48c.81-3.54-5.2-1.56-3.21-5.27-2.63.76-5.23,1.63-7.89,2.27C394.3,542.94,394.26,543,398,549.66Z"
            fill="#422c1a" />
        <path d="M370.74,555.58c6.94-2,13.86-4.21,19.83-9C384.87,546.87,375,551.09,370.74,555.58Z"
            fill="#422c1a" />
        <path
            d="M422.19,535.67c1.56-.25,3.4-.14,3.89-2.07.07-.29-1.55-1-2.39-1.55Q419.28,532.34,422.19,535.67Z"
            fill="#422c1a" />
        <path
            d="M604,524.87a14.25,14.25,0,0,0-6.85,2.8c-.36,4.62,2.67,4.26,5.31,3.17S607.53,527.9,604,524.87Z"
            fill="#271910" />
        <path
            d="M580.55,461.43c6.09-2.25,2.28-6.71,2-10.13-.25-2.83-2.23.09-3.37-.36Q579.86,456.18,580.55,461.43Z"
            fill="#906842" />
        <path
            d="M577.75,476.78c6.07-.71,10.5-1.19,14.09-4.39C587.3,473.08,582.63,473.31,577.75,476.78Z"
            fill="#3a2718" />
        <path
            d="M247.53,748.74c1,1.45,2,2.92.44,4.68-2.11-.06-1.34-3.12-3.61-3.26-3.24,5.53-6.77,11-12.1,15.05,1.12,4-.26,6.32-4.43,7.31-8.16,1.94-10.09,9.46-13.08,15.7-1.11,2.31-.22,4.28,3.08,6.62,4.93,3.49,8.26.62,12.16.15s4.55-6.09,4.23-7c-1.7-5,2.77-7.41,3.66-11.18,1.21-5.13,5.84-7.38,10.36-9.33,2.75.48,5.53-.46,8.27.25,1.87-.15,3.07.9,4.07,2.3a3.14,3.14,0,0,0,1.46.85c3.51-1.68,5.76.35,7.91,2.72,2.76,1.47,5,1,6.46-1.84.3-5.33-1.91-8.06-7.58-9.74-1.74-.51-4.4.58-4.9-2.46a19.78,19.78,0,0,1-3.41-3.78c-3.5-1.74-4.35-4.35-2.89-7.94.77-1.91,2.18-4.33-.7-5.54a5.89,5.89,0,0,0-6.55,1.52A9.26,9.26,0,0,0,247.53,748.74Z"
            fill="#cfb494" />
        <path
            d="M182.61,785.64c0,4.61-2,8.39-4.19,12.32-1.73,3.12-3.3,1.13-3.28,0,.11-4.84-4.42-3.33-6.06-3.7-2.37-.54-1.1,2.64-1.34,4.42-.33,2.54-3.55,1.39-4.25.93-6.91-4.64-7.63,1.73-9.93,5.29,4.9-4.51,10.78-3.46,16.57-2.81,2.8.31,3.61,1.81,2.9,4.52-2,7.72-4.54,15.19-9.69,21.49,1.44,2.35,3.4.39,4.28-.11,3.92-2.22,6.47-1.66,9.47,1.92a5.7,5.7,0,0,0,9.79-1.58c1.37-3.51,6.17-.34,6.92-4.19.92-3.67,4.75-6.9.53-11.28-1.54-1.59.11-4.88,2.35-6.44,1.52-1,1.34-1.79,1-3.6-1.82-11.2-7.56-1-11.46-2.79,2-2.86.43-6.55,1.39-10.15C188.66,786.07,185,786.22,182.61,785.64Z"
            fill="#cbb7a0" />
        <path
            d="M230.38,828c4.45-4.07,5.4-8.68,2.63-14.22a3.88,3.88,0,0,1,1.52-4.65c3.26-2.38,7.05-4.35,3.62-9.4-.46-.68.66-2.64,1.57-2.43,5.64,1.27,8.3-4,12.66-5.42l0,0c1.25-3.47-.39-4.59-3.62-4.42-3.94,6.6-12.14,8.73-16,15.68-2.16,3.88-3.48.12-4.57-1.79-.46-.81-.32-2.44-1.94-1.89-1.4.47-1.25,1.59-.55,2.61,1.41,2.07,1.72,3.86-.66,5.56-2.18,1.55-4.3.35-6.17-.23-3.29-1,1.11-3.22-.36-4.79-.26-.28-.29-.77-.68-1.86-2.75,3.74-7.38,3.48-10.46,5.45-4.58,2.92-6,8.22-5.67,14.14.16,3.32,1.3,10.07-6.57,7.31a8.2,8.2,0,0,1-3.19,3.84c-3.46,2.26-2.62,4.41.58,6.22,5.88-.87,11.39-4.1,17.76-2,2.57.83,2.47-1.8,2.07-3.45-.65-2.7-1.61-5.33-2.74-8.93,2.67,1.82,4.67-.5,6.94.41h0c1.23-4.17,7.68-4.72,7.08-10.56.94,5,8.63,9.82-.4,14.21a2.2,2.2,0,0,0-.64,3.8c1.49,1.46,2.87.51,3.8-.81S228.09,827.16,230.38,828Z"
            fill="#a87649" />
        <path
            d="M257.05,767c-3.05-1.7-6-1.93-8.81.51-4.51,4.49,2.1,9.12,0,13.75-.18.38,1.77,1.09,2.61.08,1.14-1.36,2.3-2.54,4.23-2.51,3.13,1.47,6.63-.74,9.72,1.07,1.59,2.33,3.63,3.7,5.74,1a5.12,5.12,0,0,0-.57-7.13c-1.4-1.42-3.56-1.53-5.37-2.28-1-.56-2.46,0-3.13-1.36v0C259.27,770,257.55,769.35,257.05,767Z"
            fill="#a87346" />
        <path
            d="M264.91,778.62c.42-.61,1.58-.88.89-2-3.27,2.24-7.7-1.23-10.74,2.15l.72,1.74c-.07,3.25-3.6,3.08-5,5l-2,1.9c2,.83,3.57,2,3.63,4.43l3-.22a9.26,9.26,0,0,0,5-5.41C260.85,783.08,264.31,781.69,264.91,778.62Z"
            fill="#93603a" />
        <path d="M250.78,785.54c2-1.33,7.16.45,5-5A6.24,6.24,0,0,0,250.78,785.54Z" fill="#a87346" />
        <path
            d="M240.28,776.86c-.59,1.48-.4,2.5.72,3s2.15.08,2.1-1.3c0-1-.18-2.41-.81-2.81C241.1,775,240.63,776.35,240.28,776.86Z"
            fill="#a87346" />
        <path
            d="M503.64,873.6c-1.24,5.14-3.57,9.81-5.95,14.47-.93,2.29-.32,3.5,2.32,3.27,3.88-3.27,4.54-8.13,6.13-12.53q2.36-8,4.69-16l-.34-3.57C505.72,863,506.67,869.3,503.64,873.6Z"
            fill="#5a3e34" />
        <path
            d="M491.64,885.2c2.38-2.47,4.41-4.15,3.42-7.09a1.25,1.25,0,0,0-2-.62C490.61,879.38,491.25,882,491.64,885.2Z"
            fill="#512f26" />
        <path d="M386.06,434.38A35.26,35.26,0,0,0,390.64,454a48.34,48.34,0,0,0-4.59-19.64Z"
            fill="#4b3321" />
        <path
            d="M844.7,292.52c.73,4.59,5.94,5.22,7.81,8.8,7.91-1.9,14.41-6.24,20.43-11.49,3.69-3.22,2.46-4.87-1.61-5.85-6.33,2.19-13,2.77-19.57,3.25C848,287.51,845.71,289,844.7,292.52Z"
            fill="#271911" />
        <path
            d="M366.73,700.84c3.11-3.38,5-6.65,2.43-11.65-1.62-3.21.53-7.12.9-10.73.41-4,.28-7.71-5.48-6.88-.18.37-.36.75-.55,1.13-3.34,2.83-2.59,6.16-1.11,9.57,2.22,3.67,0,6.2-2,9-3.24,4.64-5.78,9.68-4.08,15.58.52,1.79.65,5.26,3.61,4.21,2.18-.77,6-1.11,5.46-5.23A7.89,7.89,0,0,1,366.73,700.84Z"
            fill="#27180f" />
        <path
            d="M391.58,712.36c.17-.35.36-.71.55-1.06a1,1,0,0,0,.76-.78c.05-.37,0-.57-.07-.61-1-1.22-2.83-.7-4-2,3.94-1.7,6.06-4.25,3.81-8.56-1.41-2.69.47-5.59-.71-8.27-1-.42-1.8-.4-1.82,1-2.77,3.47-5.92,6.8-10,8.38-6.14,2.41-6.67,7.28-4.3,11.47,2.22,3.94,6.89,5.59,11.55,1.93C388.48,713,390.16,712.85,391.58,712.36Z"
            fill="#836647" />
        <path
            d="M345.58,724.33l8.94,5.5c2.17,1.42,4,4.19,7.1,1.64.64-3.9.31-8.21,6-9,1.58-.22,2.77-2.67,2-4.92-2-2.57-3-7.7-7.78-2.63-1.85,2-3.34-.13-5-1s-3.06-4-5.69-.31c-2.12,3-1,4.29.57,6.58,1.29,1.83,5.73,2.66,4,4.75-2.17,2.64-4.57-1.75-7.2-2.13-1.81-.26-1.64-3.1-4-3.26C342.39,721.59,345.68,722.69,345.58,724.33Z"
            fill="#5a311e" />
        <path
            d="M369.64,717.53c-1.69,2.42-2.35,6.15-6.95,4.47-1.92-.7-2.49,1.1-2.3,2.78.23,2.07.58,4.13.88,6.2,1.58,1.85,3.57.79,5.42.8,4.84-2.4,9.75-4.68,14.5-7.25,2.6-1.41,3-4,2.59-6.78Z"
            fill="#321b13" />
        <path
            d="M390.09,692.1l1.76-.71c1.25,1.45,2.73,1.15,4.25.58,1.07-3.64,6.36-3.19,7-7.23.07-1.36.13-2.73.2-4.1a10.63,10.63,0,0,1-1.17-2.27c-1.79-7.06-3.41-7.69-10.38-4,1.16,2.49-2.2,4.09-1.26,6.53C392.73,684.75,390,688.37,390.09,692.1Z"
            fill="#7b5d3e" />
        <path
            d="M362.92,682.28c-.14-3.25-.6-6.54,1.11-9.57C358.23,675.25,359.4,678.62,362.92,682.28Z"
            fill="#3d291e" />
        <path
            d="M258.9,697l-3.2,1.65c-2.85,3.54-5.65,6.92-1,11.37,1.47,1.41.7,4.93-.66,5.22-4.46.95-5.16,5.59-8.46,7.45.36,1.76,1.91,2.08,3.24,2.68a11.6,11.6,0,0,1,1.64-.42c1.87.43,2.16-3,4.34-1.74.41,1.36.65,2.83,2.47,3a11.59,11.59,0,0,0,5.35-3.68c2-4.82,7.94-6.16,10-11,0-4.3-1.32-6.32-5.69-3.44-1.1.73-2.43,2.61-3.6.42-.84-1.57.59-2.67,1.91-3.52,1.16-.74,3-.83,3-2.83-2,.23-1-8.2-5.18-1.84Z"
            fill="#ce9767" />
        <path
            d="M261.48,722.1c-1.46,1.36-3.82,1.68-4.56,3.88-2.13,7.61-10.31,12.27-10.18,21l.79,1.78c3.38-1.38,4.34-7.21,9.82-5.14-.44,4.59-7.08,10.59,2.59,13.15a4.65,4.65,0,0,0,3.17-4.5c-.95-8.09,5-13.92,6.44-21.18.28-.56.55-1.13.84-1.68,1.16-2.09,3.85-3.28,3.69-6.17-2.31-2.24-3.92-.18-5.57,1-1.89,1.36-3.33,3.45-6.12,3.4C262,725.79,265.51,723.27,261.48,722.1Z"
            fill="#b69f86" />
        <path
            d="M246.74,747c3-3.77,2.8-9.42,8.13-12.11,2.71-1.37.78-6,2.05-8.87l-1.24-3.6c-2.61-1.08-3.72,3.23-6.44,1.76a9.66,9.66,0,0,0-.44,1.21c-.09,2.37,2.28,5.95-2.62,6.07-3.93.1-7.92,1.5-7.29,5.46S239.92,746.93,246.74,747Z"
            fill="#8c6240" />
        <path
            d="M325.21,718.84c1-8.11-1.69-13.67-10.41-15.15-1.94-.34-2.38-2.24-3.5-3.46-2.12-2.29-4-5.91-8.32-2.93-2.14,1.48-4.2,1.52-3.7-2.27.3-2.21-1.44-2.26-3-2.3-2.34-4.65-5.45-.05-8.12-.71-1.75.27-2.25,1.75-3,3,1.5,1.71,3.66.94,5.48,1.46,1.34.39,2.5-.41,2.89,2.44.59,4.28,5.2,2.26,8.34,3.11-1.27,1-3.7,1.64-2.81,4.07.65,1.79,2.46,1.58,3.91,1.65a8.24,8.24,0,0,1,5.72,2.72c2.41,2.46,3.06,4.75-.18,7-2.59,1.76-4.2,3.83-2.39,7.07,2.61,2.68,6,3.11,9.48,3.46,1.53.16,4.08,0,4-1.17C319.1,722.23,323.75,721.74,325.21,718.84Z"
            fill="#c39266" />
        <path
            d="M469.56,924.74c-.34-2.13,1.72-4,.53-6.5-5.89,1.64-3,10.2-9.09,11.4-4.14,5.87-8.39,11.7-8,19.41,2.5-1.29,4.63-2,3,2.29l2.44,1a5,5,0,0,0,3.06-3.87A66,66,0,0,1,469,930.81C470.07,929,470.85,926.91,469.56,924.74Z"
            fill="#2c1611" />
        <path
            d="M474.54,906.67c3.94-5.91,11.23-9.53,9.09-19.23-1.36-6.11,4.25-12,6.16-18.16a7,7,0,0,0-6.79,2.91c-5.42,8.08-2.21,18.1-5.91,26.7A37.15,37.15,0,0,0,474.54,906.67Z"
            fill="#412821" />
        <path
            d="M221.66,838.55c-5.51-4.26-11.26.48-16.87-.51-4.68-.82-8.46,4.62-13.45,2-6.21,3.8-13,2-19.55,1.83-1.93,0-4.37-1.7-5.42,1.48A12.7,12.7,0,0,0,176.65,846c11.34-1.93,23-1.93,34.14-5A37.48,37.48,0,0,0,221.66,838.55Z"
            fill="#60452e" />
        <path
            d="M306.17,723.65c.57-1.74.21-3.81,2.7-4.69s5.36-2.28,3.5-5.59c-1.66-3-3-6.71-7.22-7.16a44.15,44.15,0,0,0-5.14,0,4.82,4.82,0,0,1,.05-1.49c1.11-2.6,7.06,1.08,5.74-3.75-1.1-4.07-4.36.1-6.62-.4-1.66-.36-3.32-.74-4.88-1.09,0-2.36,3.13-1.89,2.88-4.62l-12,.16c-5.32-.84-9.57,2.86-14.58,3.53-1,.12-1.62,2.33-2.42,3.57a31.58,31.58,0,0,0-5.32,2c-2.93,1.71-2.37,4.38-.92,6.67,1.91,3,3.69.74,5.11-.66,2-2,3.84-4.51,4.69.7.52,3.2,3,2.22,5,2.52,7.77,1.17,16,.35,22.68,6a27.3,27.3,0,0,1,4.77,5.2C305.24,725,306,725,306.17,723.65Z"
            fill="#d2a77d" />
        <path
            d="M376.89,572.93c-.87-.62-1.05-.85-1.21-.84A9.7,9.7,0,0,0,367,577.5c-.15.28.61,1.45.77,1.42C371.41,578.15,374.09,575.85,376.89,572.93Z"
            fill="#271910" />
        <path
            d="M306.17,723.65l-1.68.62c-10.21-.63-20.28-5-30.65-1.23l-4.91,5.23c1,2.41,2.78,3,5.21,2.7,8.36-1.06,16.16,1.29,23.86,4.19,2.38.29,4.7-.68,7.15-.14,5,1.1,6.84,3.36,6.53,8.61-.07,1.2.69,2,1.29,2.89,2,3.16.64,6.59-2.91,6-4.44-.75-8,1.69-12.11,1.84-2.34.09-3.88,1.11-5.76-1.84-2.33-3.62-4.85-.83-6.5,1.62-1.45,2.13-1.19,5.74-5.49,5.16-1.23-.16-1.85,1.94-1.26,3.18,1.91,4.06-.75,6-3.43,7.93-1.25,4.05-3.83,2.75-6.38,1.55-2-1.25-4.17-3.62-5.81.43a3.76,3.76,0,0,0,3.39,1.54c2.09-.29,3.39.49,3.36,2.8,0,1.46.69,3.29-1,4.13-2.17,1.08-2.94-1.14-4.16-2.23-2,1.93-5.42,2.65-5.37,6.32.43,1,1.27,2.73,1.88,2.38,4.05-2.27,10.78,2.84,12.9-4.72.57-2,2.49-.92,3.95-.81,5.3.42,11,2.3,14.73-3.66a1.67,1.67,0,0,1,1.69-.8c7.28,2,9.09-3.47,12-8.15s7.09-8.71,11.21-12.56a27,27,0,0,0,4.38-6.07c3-4.59-.18-8.86-1.32-12.9-1.74-6.22,3.69-8.63,5.45-12.9.54-1.34,1.79.26,2.64.67,1.42.69,2.76,1.32,4-.24.3-1,.29-1.84-1-2.13-1.15-3.26-1.83-7.3-6.87-4.21-2,2.19-7,1.25-6.21,6.36.27,1.82-1.51,1.45-2.87,1.29A27.47,27.47,0,0,1,306.17,723.65Z"
            fill="#a88966" />
        <path
            d="M321,749.68l-4.17,6.72c.38,6.4.66,12.69-7.87,14.24-2.06.38-2.22,2.81-1,3.43,4.62,2.31,4.37,6.82,5.61,10.68,1.75,1.86,4.05,4,6.14,1.53,2.57-3.09-2.83-3.43-2.95-5.9,2.89-4.07,8-7.08,6.26-13.36-.35-1.26.4-2,1.74-2.14.66,0,1.32,0,2,0,10.51-1.48,10.82-1.87,10.21-12.79-1-.83-2-1.67-3-2.48-1.36-1.07-3.16-2-2.18-4.14.77-1.65,2.63-1.63,4-1.38,7.18,1.3,6.69-7.39,11.74-9.06.55-.18-3.29-2.57-2.79-5.16-3.53-3.57-6.5-8.18-12.67-6.78l.66,1.73c.7,2.75,1.68,5.55-3.06,5.28a15.52,15.52,0,0,0-5.74,1.1c-2.72.9-4.11,2.68-2.45,5.43,1.41,2.34.86,5.22,2.23,7.42C326,747.59,323.66,748.65,321,749.68Z"
            fill="#7a4e32" />
        <path
            d="M366.69,731.78c-1.38-3.22-3.7.08-5.42-.8-2.72,2.42-4.08-3.29-6.75-1.15l-3.73,2.54c7.91,4.33,10.29,4.83,17.61,3.66C370.09,733.74,364.47,734.26,366.69,731.78Z"
            fill="#623e2b" />
        <path
            d="M333.88,790.41c2.89,1,3.94,3.39,4.56,6.09,4.69-3.09,8.93-4.49,12.45,1.89,1.58,2.86,14.05,1.66,18.16-1.25,4.7-3.32,1.76-6.49-.34-9.35-2.65-3.62-.62-8.72-4.24-11.95-.87-.78-.85-2.76-2.62-2.24s-2,2.08-1.88,3.72a17.24,17.24,0,0,0,.28,2.59c.57,2.31,1.54,5.28-.86,6.36-2.08.93-3.7-1.84-5-3.53-2.58-3.41-4.94-7-7.95-11.31-1.09,6.5-3.88,10.94-9.44,13.43C335,785.8,334.84,788.49,333.88,790.41Z"
            fill="#693c22" />
        <path
            d="M336.93,752.05c-.65.83-1.83,1.62-1.88,2.48-.5,8-1.54,9-10.74,8.13-2.51-.22-4.6,1.26-3.62,3,2.81,5,.08,7.83-2.86,11.05-.77.85-.74,2.42-1.07,3.67,5,.06,9.37,2.36,13.81,4.33a11.71,11.71,0,0,0,1.26-6.93c-.25-1.78-.37-4,1.12-4.86,5.82-3.32,4-10.09,7-14.71C341.79,755.34,339.27,753.48,336.93,752.05Z"
            fill="#693c22" />
        <path
            d="M403.12,684.74c-1.82,1-3.62,2.89-5.48,2.94-4.46.12-.94,2.65-1.48,3.86,2.4,5.53,2,10.55-2.5,14.93a3.31,3.31,0,0,0-1.12,3.53c-.13.43-.27.87-.41,1.3C402.38,705.18,402.53,694.87,403.12,684.74Z"
            fill="#623e2b" />
        <path
            d="M384.54,737.84c-2.89.2-5.75.74-8.09,2.7-.2.17.6,2.11.78,2.09a42.7,42.7,0,0,0,9-1.65C387,740.69,385.73,738.81,384.54,737.84Z"
            fill="#623e2b" />
        <path
            d="M370.81,747.33c-.65,1.16-.3,2.46.29,2.48,2.83.09,5.82,1,8.43-.37,1-.51.05-2.12-.95-2.49A10.3,10.3,0,0,0,370.81,747.33Z"
            fill="#623e2b" />
        <path
            d="M486.46,911.24l.85-2.43c1.5-5.67,5.3-10.74,4.33-17-1.67-.15-2.49,1-3.36,2.12a23.07,23.07,0,0,1-5.12,6,21,21,0,0,0-2.28,10.51c1.25,4.08-.68,7.15-3.21,10a17,17,0,0,0-2.14,3.41c-.61,2-2.11,4.33.46,5.74,2.36,1.29,4-.57,5.28-2.4l2.62-5.32C484.79,918.34,485.44,914.75,486.46,911.24Z"
            fill="#452720" />
        <path
            d="M313.57,784.75c1.5-5.43,2.13-10.49-6.06-12.16,6.37.1,8.66-3.47,10.87-8,1.78-3.63-.23-5.63-1.57-8.18A37.52,37.52,0,0,0,303.18,772c-.58,1.15-1.4,3.36-1.75,3.29-8.86-1.83-15.7,11.15-25.38,3.35-1.67-1.35-2.64.56-3.3,1.92-.77,1.6-4.19,4.54-5.87,4.17-2.54-.56-4.85,3.76-7.34.2l-4.16,6.71c4.36,3.13,9.67.94,14.45,2.56,1.83.62,3.52-3.12,4.13-5.74.27-1.13.12-2.93,1.93-2.82,1.57.08,2.58.88,2.77,2.87.34,3.49,1.19,6.94,1.95,11.12,1.5-2.27,2.41-3.91,3.58-5.33a8.71,8.71,0,0,1,2.49-1.65c3.54,5.1,6.88,2.38,11.17.79,2.66-1,2.08-6,6.78-4.17,2.83,1.08,5.9,1.69,8.68,4.06C314.28,790.06,310,787.2,313.57,784.75Z"
            fill="#a87346" />
        <path
            d="M216.56,823.68c-1,1.88-1.54,4.2.87,4.91s3.4-1.78,4.73-3.25c-1.67-2.22-3.7-1.69-5.61-1.66Z"
            fill="#a87649" />
        <path
            d="M230.37,827.9c-.53,2-2.43,3.88-.65,6a1.38,1.38,0,0,0,2.15-.47C232.85,831.26,232.58,829.33,230.37,827.9Z"
            fill="#a87649" />
        <path
            d="M275.51,770.4c4.33-1,9.48-1.46,4.84-7.94-.54-.75-.81-1.66,0-2.29,1.31-1,1.84-.19,2.09,1.1s.72,2.13,2.15,1.6c1.27-.46,1.45-1.55,1.08-2.68a3.94,3.94,0,0,1,.77-4.15c1.23-1.55,1.27-4.78,4.16-3.82,2.66.89.16,3.43.87,5.78,4.54-2.53,10.26-1.25,14.36-4.17,3-2.12,3.3,2.71,5.89,1,5.76-3.83,6.09-5.43,1-11.2,1.23-2.09,3.31,1.83,4.25-.45.85-2.06-1.25-3.06-2.37-4.2-6-6-10.37-7.08-16.26-4-3.93,2.88-5.1,8.49-10.36,10.16-4.85,1.53-9.45,2.95-13.82-1.29-2.55-2.48-5-2-6.86,1.1q-2.1,3.89-4.4,7.66c-1.27,2.06-2.25,4.67.08,7,1.25.82-3.16,5.09,2.86,3.67A7.86,7.86,0,0,1,275.51,770.4Z"
            fill="#b69f86" />
        <path
            d="M263,759.53c-1.87-5.95,4.4-8.73,5.29-13.6,2-5.55,4.89-11.08.36-16.8-4.38,8.74-7,18-8.72,27.62C261.17,757.45,259.72,761.1,263,759.53Z"
            fill="#927660" />
        <path
            d="M263.32,772.38c1.76-2.41,3.92.25,5.81-.43-1.18-6.44-4.7-3-7.68-1.83C261.43,771.4,262.28,772,263.32,772.38Z"
            fill="#b69f86" />
        <path d="M257.05,767c-.46,3.72,1.44,4.17,4.39,3.16C260.55,768.25,261.52,763.82,257.05,767Z"
            fill="#b69f86" />
        <path
            d="M191.8,817.05a2.14,2.14,0,0,0-2.6,1.3,2.92,2.92,0,0,0,1.47,4.25c.85.43,1.93.15,2-.78C192.83,820.2,193.21,818.41,191.8,817.05Z"
            fill="#bc916c" />
        <path
            d="M392.54,710c3-3.74,7.25-6.59,7.13-12.42-.06-3.07-.76-4.92-3.51-6l-4.31-.15c-1.54,3.16-2.83,6.27-.22,9.61,2,2.53-.18,5-1.83,4.86-3-.28-3.84.76-3.43,3.09.47,2.66,2.77,1,4.26,1.24A7.89,7.89,0,0,0,392.54,710Z"
            fill="#a57e59" />
        <path
            d="M273.84,723c10.28-1.14,20.36,2.9,30.65,1.23-.53-3.64-7.91-10.12-11.73-10.58-7-.85-14-1.9-21-2.86-2.43,4.66-9.28,5.29-10.26,11.27,1.07,1.31,1.8,2.51-.32,3.61-1.16.6-3.49.68-2.22,3,.94,1.73,2.72.87,4.16.86C268,729.52,268.94,723.06,273.84,723Z"
            fill="#c3ad91" />
        <path
            d="M249.24,724.14c2.9,2.12,4.35-1,6.44-1.76.34-1.06.7-2.27-.2-3.06-1.27-1.12-2.4.4-2.43,1C252.91,722.92,250.85,723.24,249.24,724.14Z"
            fill="#af7d5a" />
        <path
            d="M268.66,729.13c.28,5.63,2.75,11.56-2.47,16.42-.85.8-.32,1.49.9.86.39-.19.81-.32,1.21-.48,1.22-1.26,1.78-3.77,4.49-1.7,10.79,5.15,22.1,3.28,25.58-9.29-6.86-5.8-15.27-5.91-23.49-5.88-2.15,0-4,.17-5.95-.79C268.83,728.55,268.74,728.84,268.66,729.13Z"
            fill="#493223" />
        <path
            d="M321,749.68c2-.42,3.75.15,6.06,3.45-.46-7.25-1.79-12.29-4.15-16.79-1.46-2.78-.9-3.4,1.6-3.9,4.1-.84,8.43-.67,12.33-2.7-.38-2.54-3.11-3-4.08-5-3.25,1.38-3.88-2.87-6.57-2.92-1.21,2-2,4.69-3.84,6.17-5.76,4.68-3.6,10.09-1.38,15.06A7.57,7.57,0,0,1,321,749.68Z"
            fill="#946a47" />
        <path
            d="M342.84,790.59c1.36.89,2.07.14,2.57-.88a4.69,4.69,0,0,0-.84-5.37c-.91-1.12-1.91-.67-2.53.42C340.8,786.92,341.52,788.85,342.84,790.59Z"
            fill="#5a311e" />
        <path
            d="M268,730.24c-.9,4.51,1.09,9.36-1.55,13.67.9.81,1.72.45,2.52-.17a9.26,9.26,0,0,0,2.34-5,6.91,6.91,0,0,0,0-1.76c-.55-1.94-.4-3.7,1.31-5,1.32-1,3.12-1,4.4-2.13.65-1.56-.06-2.92-.61-4.32a3.59,3.59,0,0,0-1.34-1.34C270.87,724.05,268.17,725.7,268,730.24Z"
            fill="#70563d" />
        <path
            d="M259.89,756.65c.2,1.81,1.65,2.25,3,2.76a2.06,2.06,0,0,0,1.2-1.2c.38-2.79,3.15-4.18,3.92-6.74a3.83,3.83,0,0,0-1.12-2.57,3.41,3.41,0,0,0-3.64-.62Z"
            fill="#9b795b" />
        <path
            d="M263.28,748.28l3.37,1.22c4.2-.16,4-2.83,3.26-5.76a1.59,1.59,0,0,0-1.59-.57l-1.86.74C264.23,744.52,264.08,746.64,263.28,748.28Z"
            fill="#6b513d" />
        <path
            d="M277,729.52c-1.82-.23-3.6-.29-5,1.15-2.36,1.79-2,4.14-1.32,6.54h0c.57,2.07-1.47,4.11-.05,6.19a5.91,5.91,0,0,0,1.35,1.29c3.87,1.75,7.72,2.92,11.35-.49,5.05-6.26,5-6.46-1.19-11.25-1.42-.7-1-2.17-1.35-3.32A2.51,2.51,0,0,0,277,729.52Z"
            fill="#3e291b" />
        <path
            d="M282.22,726.33a18,18,0,0,0-7.17-2.24c.6,1,1.39,4.41,2,5.43l3.79.19a2.59,2.59,0,0,0,1.84,0,3.28,3.28,0,0,0,1-1.54C283.73,727.12,283.54,726.28,282.22,726.33Z"
            fill="#cfac94" />
        <path d="M270.68,737.21l1.32-6.54C269.27,732.38,267.58,734.3,270.68,737.21Z"
            fill="#533b2f" />
        <path
            d="M271.12,743.05c-.5-1.92.77-4-.44-5.85l-2.36,6,1.16.63C270.43,744.42,271,744.22,271.12,743.05Z"
            fill="#533b2f" />
        <path
            d="M291.36,745.43l1.69-.37c3.75-1.66,5.48-4.81,6.39-8.59a5.79,5.79,0,0,0-.05-2c-.75-2.42-2.63-3.62-4.87-4.4a7.9,7.9,0,0,0-1.81-.32,13.35,13.35,0,0,0-2.59.29c-1.57.28-3.25.09-4.72.9a9.24,9.24,0,0,1-3.43,1.41,2.09,2.09,0,0,0-1.21.82c3.77,2.93,7.07,5.93,1.63,10.28,5.19,1.63,5.26-2.61,6.39-5.26-.17,1.34-1,2.88-1.24,4.5C287.11,745.69,289.3,745.6,291.36,745.43Z"
            fill="#4a3222" />
        <path
            d="M291.28,745.39c-1.86-1-3.94-1.7-2.26-4.55,1.24-2.09,1.35-4.38.19-7.25-2.39,3.66-.93,9.5-6.9,9.84-3.3,3.26-7.95,1.08-11.31.38.48,1.17.82,2.9,2.7,3.23,5.68,2.74,11.23.27,16.83-.33Z"
            fill="#5a3e2b" />
        <path
            d="M292.1,730.64l.73-.43.77-.36c-.19-1.11-.59-1.3-1.66-2.13a11.09,11.09,0,0,0-2.7-1.32,4.56,4.56,0,0,0-2.94.23c-1.33-.48-2.25,0-4.08-.3l.78,2.14a5.22,5.22,0,0,0,2.51,1.32C287.72,730,289.84,730.86,292.1,730.64Z"
            fill="#b5a18a" />
        <path
            d="M285.4,729.12l-2.4-.65a1.44,1.44,0,0,1-.34,1.22c.75.68,1.11.82,1.86,1.5,0,.75.38,1,1.08.79l4.62-.83A5.32,5.32,0,0,0,285.4,729.12Z"
            fill="#533b2f" />
        <path
            d="M285.6,732l-1.08-.79c-1.47,0-2.95,0-3.52,1.77C282.93,734.47,284.59,734.74,285.6,732Z"
            fill="#e5c345" />
        <path d="M285.4,729.12l4.82,2,1.88-.51C289.93,729.86,288,727.9,285.4,729.12Z"
            fill="#ae957e" />
    </g>
    <g id="frame">
        <rect width="1000" height="1000" fill="none" />
    </g>
</svg>