<!-- Copyright (c) 2022 Jan Stehno -->
<svg xmlns="http://www.w3.org/2000/svg" viewBox="0 0 1000 1000"><title>redfox</title><g id="redfox"><path d="M871.74,964.08c1,5-1.76,9-3.33,13.82-3.41-6-4.68-12.32-6.17-18.53-6.51-1.14-6.62-7.72-9.55-11.9-2.11-.51-4.39-.83-4.66-3.77-2.19-3.67-5-4.54-8.6-2l-2.62-1.16c-.19-3.26-2.44-5.94-2.44-9.25.12-4.39-2.71-8.1-2.69-12.51,0-2.7,0-5.25,3.23-6,1.41,1.14,13,20.5,13.18,22.1,0,.31.22.1,0-.32-2.53-4.7,6.24-9.41-.68-14.8-4.09-3.18-3.07-10.34-5.75-15.22-2.09-3.79-1.64-7.9-.44-11.87a43.08,43.08,0,0,0,1.68-8.56c1.05-1.78,2.54-1.57,4.1-1,5.43,2.12,10.71,4.49,14.25,9.58a24.23,24.23,0,0,1,1.72,3.46c1,2.32,2.13,3.24,3.87.56,1.43-2.21,3.34-2.09,5.36-.9,4.3,2.54,8,5.26,9,11,1.39,8.08,3.56,15.83,2.68,24.37a87.21,87.21,0,0,0,.4,20.21c.28,2.19,1,4.07,3,5.14a5.13,5.13,0,0,1,1,3.68c-.45,6,1,11.9,1,17.88-.21,1.36-.13,3.32-1.86,3.25-1.53,0-1.88-1.94-2.12-3.36a34,34,0,0,0-.61-4.25c.31,1.74.93,3.54-1.11,5.29-1.57-3.49.13-7.37-2.18-10.22a19.29,19.29,0,0,0-3.65-9.65c.57,4.58,1.19,9.15,1.66,13.74.07.7.7,1.85-.6,2.28-.34-1.19-2.47.06-2.37-2.09.12-3-2.33-5.63-1.32-8.92.14-.47-2.38-.34-2.3-2.12a3.66,3.66,0,0,1-1.29-2.49C872.36,960.76,870.78,962.48,871.74,964.08Z" fill="#4c4847"/><path d="M780.57,868.39c-2.72-8.46-7.11-15.55-15.23-19.56-.9-.45-1.75-1.77-2.7-.1-.4.7-1.07.88-1.56.42-6.26-5.74-15.14-4.19-21.93-8.39-.5-.31-.78-1-1.17-1.48-2.58-3.58-6.18-2.21-9.53-2.07l.07,0c-.61-1-1.71-.51-2.55-.83-1.64-.61-2.73-1.71-2.62-3.58a3.6,3.6,0,0,1,2.84-3.47,45.67,45.67,0,0,0,9-2.81c4.73-2.25,10-2.93,15.08-4.06,2.25-.5,4.31-.83,6.2.93a5,5,0,0,0,3,1.33c8,.74,13.89,5.62,19.36,11.08,2.42,2.43,5.33,4,8.17,5.72.67.41,1.45,1,2.17.47s.68-1.73.52-2.69a22.29,22.29,0,0,0-1.51-5.11c-2.49-5.87-1.79-11.85-.72-17.86,4,.5,4.77,3.94,5.57,7,1.9,7.19,4.2,14.26,5.85,21.51,1.31,5.77,3.47,11.08,7.49,15.47a3.78,3.78,0,0,1,1.22,3c-5.57,2.65-5,7.86-5.08,12.83.39,2.59.57,5.18-.63,7.62-.5,1-1.15,2.08-2.39,2.1-1.43,0-1.56-1.37-2-2.38-.64-1.64-.06-3.89-3-4.13-1.27-.11-1.38-2.67-1.59-4.29-.3-2.33-.2-4.77-1.49-7-1.61,1.13-.85,2.57-1.1,3.74-.39,1.79-.85,3.38-3,1.63-.37-.29-.83-.81-1.2-.46-6.53,6.1-2.67-3.1-4.81-3.51C781.12,869.48,781,868.64,780.57,868.39Z" fill="#3f413e"/><path d="M823.48,510.06c2,0,4-.15,6,0,3.81.37,6.32,2.25,6.44,6.54,1,1.3,2.74,2.08,2.61,4.12-.59,4.36-2,8.56,1.8,12.61,2.52,2.66.53,6.91-3.09,7.83a11.37,11.37,0,0,1-6.07-.09c-1.88-.57-3.5-2.31-2.17-3.93,4.18-5.09.87-10.5,1.46-16-2.33-.08-3.7,2.35-5.83,1.8-2.57-2.83.69-4.92,1.14-7.45-3.24.27-5.46,2-7.58,3.92a3.34,3.34,0,0,0-.69,4c.75,1.58,1.89.22,2.81-.14,1.54-.62,3-1,4.38.38-.48,3.34-1.26,6.55-3.59,9.11-4.33,2.49-8.41,5.14-8.78,11-.08,1.35-1.32,2.1-2.3,3-3.45,3-7.4,5.62-7.86,10.93-.09,1.09-1.06,2-2,1.66-3.53-1.5-2.87,1.31-3.3,3.46,1.93-.22,3.89-2,5.64-.25s0,4,.15,5.94c.55,6.84-2.32,12.11-6.59,16.87-3.91-.86-7.94-5.69-8.34-10.23-.12-1.32.14-2.83-1.51-3.07s-2.12,1.36-2.41,2.53c-.7,2.88-2.83,5.05-3.49,7.94a2.77,2.77,0,0,1-3.21,2.26c-1.84-.23-2.69-1.52-2.84-3.33a9.83,9.83,0,0,1,.27-3.86,76.81,76.81,0,0,0,2.36-10.85,20.54,20.54,0,0,1,3.42-9.17,25.27,25.27,0,0,0,5.17-14.24c0-1.8,1.16-2.95,2.38-4,.28-.33.58-.65.88-1,1.39-1.7,2.56-3.63,4.51-4.77,4.77-2.41,8.4-6.27,12.15-10l0,0a9,9,0,0,1,4.76-5,4.42,4.42,0,0,0,1.58-1C815,514,818.6,511,823.48,510.06Z" fill="#24292c"/><path d="M842.64,626.28l1.66,1.89c5.73.73,11.05,2.42,15.23,6.81,4.88,4,9.83,7.73,14,12.68,4.4,5.2,10.05,9.3,15.33,13.65,1.43,1.19,3,1.87,2.22,4.13-.46,1.36.4,2.2,1.28,2.85,3.35,2.5,5.31,6.41,8.09,9.15,6.31,6.21,9.75,15.15,18.14,19.48,2.43,1.25,3.94,4.92,5.29,7.78,1.45,3.09,3.85,4.46,6.71,5.46,2.68-.19-3.42,2.27.5,1.74a6.54,6.54,0,0,1,4.31,1.14h0c6.08,3.52,9.91,9.51,14.85,14.29,4,6.15,10,9.1,16.6,11l1.69.25c2.26.9,4.32,2.29,6.75,2.73a1.61,1.61,0,0,1,.84.11c.59,1.38.9,2.7-.73,3.61-5.46-.14-11,.15-15.75-3.53-1.65-1.27-3.8-1.44-5.78-2-8.18-2.21-14.46-6.53-18.65-14.64-3.48-6.73-9.33-11.7-16.08-15.19-2.55-1.31-5.1-2.55-7-4.86a20.89,20.89,0,0,0-8.48-8.84c-4.61-2.77-7.13-7.75-9.66-12.36a27.85,27.85,0,0,0-8.6-10,64.64,64.64,0,0,1-12.37-12c-1.94-2.36-4.06-4.53-6-6.84-2.43-2.86-4.87-4.56-8.62-2.79a3.22,3.22,0,0,1-3.62-.33c-4.09-4.44-10.25-4.78-14.83-8.18-1.54-4,0-8.05-.24-12.07C840.45,629.61,840.79,627.5,842.64,626.28Z" fill="#f18f59"/><path d="M735.4,565.74c.1-4.28,1.88-8,3.69-11.69a3.26,3.26,0,0,0,.44-1.69c-.28-7.75,3.75-13.66,8.38-19,7.29-8.37,17.09-6.83,23.73,2.52,1.79,2.52,4.06,6,8,6.22,3,.22,2,2.65,2.08,4.3s-.53,3-2.22,3.26c-1.86.28-3.29.44-2.16,3,.46,1-.57,2.11-1,3.15-1.48,3.62-2.75,7.26-1,11.21a3,3,0,0,1,.26,2.37c-2.87,5-2.69,10.76-3.83,16.19-.36,1.72-1.06,3.6-3.13,3.84s-2.63-1.42-3.29-2.93c-.33-.75-.77-1.77-1.53-1.66-4.4.59-3.8-3.34-5-5.65a4.38,4.38,0,0,1-.5-1.3,2.82,2.82,0,0,1,1.49-2.9c4.63.82,4.63.82,4.76-5.61-.75-1.95-1.25-3.9.09-5.81.69-1.14,2-2.21,1.23-3.7-.48-.92-1.27.09-1.91.31a4.73,4.73,0,0,1-1.2.46c-3.19-.67-5.58-.07-8.09,2.69a34.31,34.31,0,0,1-11.16,8.53c-6,2.68-7.52,1.88-7.87-4.77A3.29,3.29,0,0,0,735.4,565.74Z" fill="#3a2f28"/><path d="M787.4,816.59c.86,7.22-.42,14.75,3.27,21.57,1,1.81,1.31,4.39-.45,5.91-2,1.71-2.8-1.22-4.24-1.84-6.12-2.63-10.45-7.68-15.23-12.09-3.27-3-7.52-2.69-11.27-4-.78-.27-2,.23-2.6-.61-2.77-4-6.1-2-9.17-.83a7.88,7.88,0,0,1-5.06.4c-2.12-.61-3.52-.78-2.84,2.24.2.89-.35,2-1.18,1.48-4.57-2.68-8.08,2.08-12.46,1.77-2.07-.15-3,2.55-.75,4.66.93.88,2.58.49,3.1,2a16.72,16.72,0,0,1-10.4-3.18c-3.23-2.82-8.1-2.75-10.82-6.53-.82-1.13-2.5-2-1.71-3.6.94-2,2.34-.45,3.63-.16,1.81.4,3.86,1,3.9-2.25,0-3.51,1.94-2.65,3.7-1.41s3.41,2.83,5.13,4.3c.76-.79,0-1.48-.09-2.17-.19-1.29-.61-2.68.71-3.51,1.58-1,2.6.33,3.64,1.28a17.4,17.4,0,0,1,1.23,1.47c.81.89,1.33,2.64,2.8,2.07s.8-2.22.77-3.46c0-1.8-1.29-3.92,1.31-5,2.27.1,4.09,1.56,6.12,2.33,10.65,4,17.06-2.6,23.94-9.08,2.12-2,3.65-3.54,3.92-6.51.14-1.47,1.37-2.92,3.05-2.11,3.62,1.74,1.47-1.8,2.33-2.53,1.55-1.85,4.19-2.91,3.89-6.1-.08-.83.92-1.7,1.56-1.44,2.34.93,4.43-1.58,6.72-.34.61,4.39.4,8.69,3.54,12.72C790.7,806.3,788.55,811.71,787.4,816.59Z" fill="#4b4b4c"/><path d="M688.57,827.4c-6.24-.37-12.49-.63-18.72-1.15-11-.94-21.91,0-32.83.45-12.36.5-24.81,2-36.94-.59-7.7-1.62-15.47-4.31-22.12-9.27a5.64,5.64,0,0,1-2.18-4c1.77-4.24,5-2.15,7.81-1.92,2.41,1.9,0,2.41-.64,3.07,7.9.47,16-1.43,24.1-1.45a343.74,343.74,0,0,0,41.2-3c1.73-.21,3.45-.47,5.11.31,3.17,1.56,6.47.68,9.4-.29s5.22-.23,7.36,1.6c1.3,1.12,3.21,2.52,2.39,4.31a4.81,4.81,0,0,1-5.08,2.74,6.49,6.49,0,0,0-3.77.13c3.26,1.7,4.11,1.57,7.13-.76,1.4-1.08,2.76-.23,4,.48a10.22,10.22,0,0,0,8.63,1,8.29,8.29,0,0,1,4.68.11c4.4,1.22,8.73,2.67,13.3,3.2a5,5,0,0,1,4.61,4.77c.18,1.52-.7,2-2.08,1.24h0A63.49,63.49,0,0,1,688.57,827.4Z" fill="#3f4c4e"/><path d="M759,578.35c1.37.15,1.78,1,1.83,2.33.08,1.9-.53,4.19,3,2.33,2.27-1.2,2.32,1.71,2.71,3.25.29,1.14.47,2.35,1.83,2.44s1.77-1.11,2-2.25c.57-2.51,2.1-4.62.62-7.74-.71-1.5,1.3-4.74,2.65-6.79,1.14-1.74,1.41-3.36.48-4.88-2.11-3.44-.39-6.54.28-9.83.45-2.2,3.62-3.9,1.09-6.82-.73-.84,1.43-1.47,1.77-1.5,5.63-.51,3.76-3.72,2.42-6.77l4.92-4.76c2.22-1.1,3.48.27,4.65,1.89-1.68,2.2-4.3,4.15-1.83,7.44.43.57.57,1.49-.11,1.66-4.68,1.18-2.8,6.3-5.21,9-5.27,5.84-3.23,14.34-6.65,21-.53,1-.31,2.53-.2,3.79a2,2,0,0,0,2.25,2c1.24,0,1.69-.85,2.12-2.12,1.14-3.35,2.69-6.56,4-9.87.54-1.4,1.66-2.47,2.79-2,1.57.6,3.39,2.5,3.07,3.88-1.43,6.15,3.59,8,6.47,11.31.25,4.53-1.88,8.18-3.7,12.11-2,4.27-3.34,8.93-2.67,13.89.75,5.58-1.79,8-7.6,7.41,0-3.47,0-3.47-2.69-4-.25,2,1.73,2.53,2.49,3.84,1.17,2.09,4.77,1.51,4.91,4.73-1.78.9-4.42.48-3.73,4.34.38,2.13-2.53,2.26-5.11-.2a7.7,7.7,0,0,1-.48-1.2,2.42,2.42,0,0,0-1.68-1.52c-2.65-.67-3.44-2.07-1.36-4.45-2.29-.76-3.74,1.25-5.6,1-3.79-1-6.49-2.65-4.5-7.37a1.67,1.67,0,0,1,1-.74c1.51-1,2.17,3.65,4,.6.76-1.28,1.52-2.37.43-3.91-1.33-1.89-2.31-.67-3.45.15a1.49,1.49,0,0,1-1.75-.16,17.32,17.32,0,0,0-1.81-4.74c-1.53-2.32-2-5.13.9-7.17a16.25,16.25,0,0,0,11.08,7c-.14-2.23,1.24-4.25-.09-7.47-1,5.12-3.26,4.41-5.69,2.24-1.43-1.28-3.23-1.06-4.88-1.47a5.75,5.75,0,0,1-1.93-1.84c-1.08-2.55-2.32-5.15-4.75-6.47-3.24-1.78-2.82-3.73-.91-6.12C757.6,582.07,757.41,579.75,759,578.35Z" fill="#404042"/><path d="M840.56,643.76c4.55,1.4,9.51,1.62,13,5.87,1.38,1.69,3.46,2.66,5.85.79,2.58-2,5.33-.27,6.75,1.47,1.82,2.23,4,4,5.83,6.2,5,6.32,10.2,12.44,17.4,16.47a11.22,11.22,0,0,1,4.46,6.05c1.59,5,5.84,8,7.85,12.59.67,1.53,2.53,1.82,3.91,2.57,3.45,1.89,6.28,4.31,7.06,8.54,3.59,5.32,7.79,10.22,10.48,16.16.26.58-.23,0,.23.41,10,8.56,17.29,20.63,32.1,23.07,8.25,1.37,16.46,4.81,24.14,9.32,5.57,3.27,10.36,7.89,16.48,10.18,1.71,2.1,1.06,5.17,2.8,7.26l1.14,7.77-.09.66c-1.89,4.07-2.87,4.37-5.08,1-1.78-2.74-3.65-5.53-4.48-8.83-.5-1.67-.41-3.78-2.87-3.95-3.91-.11-7.24-2-10.68-3.6a13.67,13.67,0,0,1-9.08-7.22,7.44,7.44,0,0,0-5-4.09c-9.82-2.3-17.88-8.67-27.07-12.48a21.11,21.11,0,0,1-10-9.39c-.79-1.4-1.61-3-3-3.74-8.73-4.36-11.46-13.4-15.76-21.18a14.38,14.38,0,0,0-6.87-6.4,13,13,0,0,1-7.75-9.18,15.68,15.68,0,0,0-6.9-9.53c-4-2.59-8-5.16-11.37-8.71a5.9,5.9,0,0,0-4.13-2.17c-5.72,0-9.27-4.23-13.67-7-5.31-3.32-9.17-8.9-15.57-10.49-2.32-.58-2.23-2.88-2.78-4.68C837.72,645.44,838.23,643.9,840.56,643.76Z" fill="#ef7e3c"/><path d="M669.75,654.53l.82-1.07c9-9,18.08-17.76,31.69-18.26,4.23,2.84,8.43,5.83,9.55,11.33.62,3.09,2.13,4.12,5,3.56,4.33-.86,7.74.63,10.31,4.26-1.31,5.4-5.55,8.27-10.26,6.83-1.06-.32-2-.85-3.19-.56-2.82.68-3.68-1-3.84-3.48a11.8,11.8,0,0,0-.71-3.82c-.52-1.24-1.63-3-2.62-2.3-4.5,2.93-10.11.49-14.49,3.49a3.07,3.07,0,0,0-.87,1.17,24.54,24.54,0,0,1,6.68,2.47c3.6,2.07,3.92,4.88.51,7-3,1.9-6.67,2.8-8.79,6.19-.58.93-2.07.94-3.12.56-2.73-1-4.08.73-5.39,2.65a5.76,5.76,0,0,1-4.09.45c-2.09-.21-4.37-2.26-5.88,1.36-.81,1.94-2.35.94-3.26-.39A10.34,10.34,0,0,1,666.1,671a1.71,1.71,0,0,1,.09-.94c2.33-3.42,5.72-6.48,1.75-11.17C667,657.77,667.94,655.5,669.75,654.53Z" fill="#da722b"/><path d="M780.57,868.39c2,1.48,1.56,4.08,2.57,6.1,2.12-.83,1.16-3.72,3.12-4.68,2,.22.38,3.19,2.41,3.57,1.14-1,.52-2.27.39-3.45-.19-1.63-.42-3.83,1.34-4,2-.2,2.77,1.57,3.16,3.89.52,3.08-.3,6.51,1.6,9.37,1.58-.72-.12-3,2.18-3.49.89,3.08.35,6.57,2.09,9.62,3-2.64,2-6,2.19-9.16.77-2.21,1.06-5.82,3.48-5.62,3.22.28,2.43,4,2.44,6.43A13,13,0,0,0,812,887.21c1.2-.9.7-2.42,1.34-3.49,1.15-1.92,3-2.31,4.92-2.22,2.08.08,2.45,1.86,2.5,3.5.19,6,2.8,11.26,4.15,16.9,1.28,5.36,5.25,8.15,10,10a1.23,1.23,0,0,1-.06,1.33c-4.66,3.59-1.48,8.33-.58,11.83.56,2.17.19,4,.46,6a.56.56,0,0,1-.84-.23c-.24-2.94-1.66-4.81-4.58-5.26-3.11-.47-4.86-2.47-6.69-5a28,28,0,0,0-12-9.55c-2.92-1.29-6.68-3.78-7.38-7.75-1.16-6.59-5.29-11.91-6.85-18.28-1.11-4.53-3.93-5.91-7.76-3.79-4,2.25-5.38.34-6.13-3.3C781.86,874.71,781.22,871.55,780.57,868.39Z" fill="#50514d"/><path d="M703.88,828.33c2.45-2.09,1-4.25-.94-4.22-7.45.09-13.89-6.19-21.94-3.05-3,1.17-6.41-1.69-9.25-3.47-1.42,1.69.18,2.28.45,3.22.34,1.14-.64,2.45-1.09,1.91-2.79-3.41-7.76-.35-10.37-4.25,1.22-2.17,3.57-2.34,5.55-1.72,2.31.71,4.28.43,5.36-1.45.83-1.44-1.15-2.41-2.12-3.22-1.75-1.47-3.4-3-6.24-1.62s-6.39,2.15-9.68.36c1.94-3.14,5.29-3.09,8.26-3.71,1.84-.38,3.75-.36,5.54-1.06,2.54-.91,5.08-1.37,8.15.49a7,7,0,0,0-4.28-1.66c-2.68,0-3.86-1.41-3.32-4.19,2.11-.81,4.39.2,6.5-.66,1.76-.26,3.32.5,4.94,1,1.45.46,2.9.4,3.56-1.23,1.42-3.44,3.57-2.85,6-1.37,2.09,1.79,1.65,4.36,2,6.71.51,3.38,1.43,6.43,5.78,6a4.83,4.83,0,0,1,3.14.86c2.67,1.78,4.77,3.1,7.23-.87,1.67-2.7,4.83-1.48,7.21.09,1.91,1.26,3.35,1.42,4.49-1,1.05-2.25,2.78-2.48,4.61-.94,1.64,1.38,3.77,1.54,5.56,2.54,1.36,1.05,3.77,1.1,3.4,3.79-2.11,2.29.78,4.54.07,6.9-.37,1.2,0,2.77-1.4,3.36s-2.27-.79-3.1-1.69c-1.57-1.69-2.31-4.21-4.93-5.31-1,2.22.14,3.84.81,5.53.28.73.85,1.54-.05,2.16s-1.54,0-2.11-.53c-2.33-2.09-4.61-4.25-7.36-6.82a36.3,36.3,0,0,1-.06,5.72c-.43,2.35-2.25-2-3.56.73-.75,1.57-2.18-2.24-5.09-1.58,2.71,2.57,4.45,5.34,7.63,6.57,1.93.74,3.95,1.25,4.9,3.43C713.64,831.47,708,832,703.88,828.33Z" fill="#505b60"/><path d="M573,808.84a15.21,15.21,0,0,1-9.23-9.4,32,32,0,0,0-3.16-5.24c-.05-2.35.21-4.67,2.09-6.22,2.26-1.86,0-5.33,2.54-7,2.2-1.08,3.92-.34,5.36,1.49a13.6,13.6,0,0,0,3.72,3.61c1.27.77,3.5.88,3.38,2.82-.15,2.34-2.65,1.62-4.21,2.37a29.87,29.87,0,0,0,12.42-2.43,22.45,22.45,0,0,1,2.68-.7,16.23,16.23,0,0,1,7.48.8c5.71,1.75,11.4,1,17.08.51,3.92-.34,5.31,1.43,5.35,5.06,1.65,2.38,4,2.23,6.42,2,3.28-.37,6.57-.81,9.86,0,2.89,2.17,2.49,3.69-.83,4.75a124.57,124.57,0,0,1-22.77,4.53c-2.12-.6-3.9-1.86-4.08-4.15-.2-2.7,2.59-2.83,4.68-4.32-5.68,2.89-11.2,3.48-16.78,3.81-5,.3-9.72,2.8-14.87,1.65a2.81,2.81,0,0,0-3.12,1.68c-.57,1-1.28,2.23-2.46,1.91C571.17,805.47,573.82,808.26,573,808.84Z" fill="#686e76"/><path d="M996.09,763.88c-1.77.1-3.87.18-4.93-1.2-4-5.2-10.71-5.92-15.21-10.21a5.18,5.18,0,0,0-2.45-1.33c-7.81-1.54-14.93-5.27-22.64-7.34-7-1.88-15.07-4.39-18.31-13a4.58,4.58,0,0,0-1.89-2.06c-9.38-5.53-13.24-15.36-18-24.46,7.88,4.59,15.82,9.09,21.63,16.55a12.16,12.16,0,0,1,1.91,2.7c3.69,9.27,11,13.36,20,15.08a7,7,0,0,1,3.52,1.31c4.75,4.62,10.95,3.08,16.47,4.37,3.73-1.24,12.31,1.47,14.34,5,1.18,2.08,2.89,3.31,4.46,4.83l1,1A15.63,15.63,0,0,1,996.09,763.88Z" fill="#f7914d"/><path d="M759,578.35c0,2.18-.15,4.33-1.93,5.91-1.24-.91-1.09-2.39-1.19-3.63-2,3.3-2.56,6.49-.16,10,.81,1.17,1.84,3.78-.43,4.56-1.92.66-3-1.12-3.08-3.23,0,0-.12,0-.15,0a3.69,3.69,0,0,0-.65.71c-4.58,3.27-10.4,4.66-13.43,10.27a3.41,3.41,0,0,1-5.45,1,104.55,104.55,0,0,1,.33-16.77c.51-4.29-.21-8.85.91-13.25.68-2.68,2-5.24,1.63-8.14,1.12,1,.58,2.42.88,3.63.68,2.7,2.19,4,4.79,2.49,5.75-3.34,11.72-6.46,15.13-12.72.76-1.4,1.74-1.44,2.66-.67a6.7,6.7,0,0,0,4.84,1.36c.77,3.47-1.16,5.41-4,6-3.36.67-3.78,2.69-2.91,5.28.81,2.4,1.23,4.92,2.14,7.28Z" fill="#56301b"/><path d="M820.54,532.51q1.89-4.46,3.76-8.9a.57.57,0,0,1,.13-.88c2.49-.64,3.9-4.28,6.38-3.63,4,1-.92,4.26.92,6.53,1.52,1.88-.49,5,1.46,7.26.81.93-.36,1.2-1,1.64-1.42,1-3.12,2.44-2.56,4.2.74,2.38,3.21,1.35,5,1.52a7.77,7.77,0,0,0,2.36-.07c3.1-.67,4.62-4.53,2.1-6.58-5-4.07-2.32-8.43-1.44-12.85,2.89,1.33,2.27,4.68,3.71,6.84,2,2.22.54,5.41,2,7.79-1,2.44-1.06,5.39-3.81,6.88-1.08.59-1.09,1.86-.71,3a16.9,16.9,0,0,1,.66,2.31c.46,2.69,2.25,5.63,3.86,6.34-.5,4.16,0,8.34-1.09,12.54-.64,2.55,1.42,5.25,1.18,8.31-.67,8.74-.85,17.53-1.11,26.31a54.23,54.23,0,0,0,.61,5.75c.16,2.08.47,4.24-1.38,5.83-2-1.54-2.21-3.79-1.85-6a16.69,16.69,0,0,0-1.31-10.61c-1.44-7.28.56-14.39,1-21.58.07-1.1.57-2.17.66-3.31.25-2.9-1.12-3.3-3.39-2.36-1.45-4.18-4.5-5.87-8.65-5.86-2.15-1.47-2.27-3.48-1.44-5.74,3-.94,4.38-2.39,1.67-5.3a3.4,3.4,0,0,1-.94-3.91c.51-1.16,1.09-2.62-.48-3.31s-2.09.93-2.86,1.85a1.87,1.87,0,0,1-1.59.8c-1.91-2.35-2.33-5.26-2.91-8.12C820.16,537,819.14,534.58,820.54,532.51Z" fill="#3f3e3e"/><path d="M572,757.88c1.5-2.53,3.79-4,6.18-5.64,8.05-5.38,16.53-10.14,24.85-14.9,5.7-3.27,10.79-8.56,17.94-9.4,1.6-.19,2.94-2.67,4.4-4.09,7.52-2.87,14.69-6.28,19.68-13.17,2.18-.39,2.85,1,2.82,2.81,0,2.11.85,4.09.65,6.19-1.88,4.59-5.53,7.28-9.56,9.66-8,4.75-15.89,9.73-23.94,14.4-3.48,1.63-7,2.81-10.92,1.79a3.07,3.07,0,0,0-4.09,2.26c-1,3-2.88,4.16-6.14,3.87-3.08-.27-5,2.41-7.11,4.37C582.62,759.88,577.49,760.53,572,757.88Z" fill="#a2571f"/><path d="M702,636c-5.94-.21-10.56,4-16.12,5.18-1.64.35-2.71,3-4.29,4.21-3.6,2.81-7.36,5.4-11,8.08.73-6.36,7.45-8.94,8.87-14.87,9.17-3,12.07-13.27,19.84-18.05,4.69-2.89,8.9-5.8,14.56-2.95,3,1.49,5.8,1.4,8-1.66a2.86,2.86,0,0,1,2.39-1.39c4.61.19,6.66-2.82,8-6.73,1.35,1.22,1.7,3.59,4.07,3.66,1.9.06,4,0,4.4,2.62a4.55,4.55,0,0,1-2.73,5.15,99.84,99.84,0,0,0-20.07,7.56A127.94,127.94,0,0,0,702,636Z" fill="#d7805c"/><path d="M738.16,618.43c2.85-4.94,2.65-5-2.89-5.51-2.28-.21-2.85-2.86-3-5.11.1-1.31.19-2.61.29-3.92,5,.83,5.71-4,8.25-6.48.5-.48.61-1.38.91-2.09,4.23,1.91,5.88-3.75,9.57-3.45,2.18,3.69-.37,6.47-1.91,9.28a65.52,65.52,0,0,1-4,6c-2.19,3.13-3.64,6.37-3.34,10.33a6.13,6.13,0,0,1-1.62,4.92c3.88-2.22,7.79,1.29,11.67-.06.78.21,1.9.58,1.92,1.25.23,6.38,5.73,8.92,8.87,13.16a2.19,2.19,0,0,1,.27.93c-.36,1.75.62,3.09,1.29,4.55.57,1.25.73,2.52-.46,3.53a2.85,2.85,0,0,1-3.53.22,14.77,14.77,0,0,1-5.09-4.29c-2.34-3.49-5.32-3.2-8.69-1.82,3.42,1.24,6.52,3.08,9.78,4.58,1.42.66,3.15,1.39,2.42,3.5-.61,1.76-2.18,2.21-3.9,2-6.09-.74-11.65-2.7-16-7.5-1.88-4.4-1.63-9.26-2.9-13.8C736.09,625.1,734.3,621.16,738.16,618.43Z" fill="#904c19"/><path d="M839.57,595c3.84,5.52.16,12,2,17.72-.12.91-1.89,1.69-.21,2.75,1.45,2.08-.23,3.61-.87,5.32-1.48,3.13-.35,6.35-.34,9.53a3.48,3.48,0,0,1-.62,1.21c-3.51,1.78-5.15,4.35-4.14,8.6.73,3.06-1.53,5.45-2.59,8.1a3.54,3.54,0,0,1-1,.94,3.33,3.33,0,0,1-2,.24c-3.13-.66-3.44-5.71-7.43-5-5.06,0-6.21-5-9.13-7.69a2.23,2.23,0,0,1-.64-2.47c2.11-2.18,4-4.32,7.38-1.56,1.5,1.25,3.38-1.65,5.32-.54.67.18.36,1.76,1.42,1.18.44-.24,1-1.28.81-1.59-.5-.64-.9.43-1.45.49a1.22,1.22,0,0,1-1.21-.47c-.93-2,.21-3.46,1.36-4.79,7-8.12,11.41-17.29,10.95-28.5C837.21,597,837.2,595,839.57,595Z" fill="#362218"/><path d="M559.49,792.32c-3.48-3.59-5.89-8-8-12.44-3-6.3-1.27-11.2,4.95-14.31,2.65-1.32,5.39-2.47,8.09-3.69,3.12-1.39,4.73.46,5.8,3a12.21,12.21,0,0,1-1.61,12.73,8.16,8.16,0,0,1-3.2,3.21c-2.76,2.86-2.1,7.25-4.33,10.38C560.67,791.91,560.52,792.71,559.49,792.32Z" fill="#1e1b19"/><path d="M567.41,777.52c2.6-3.5,3.57-7.19,2-11.57-.91-2.6-2.3-4-5-4.07l2-1c4-.59,8-1.82,11.44,1.78,1.75,1.81,3.56.33,5-.88,1.86-1.53,3.13-3.3,5.66-.33,1.44,1.69,4.06-.59,6.15-1.05,4.12-1.69,8.31-2.95,12.81-2.06,1.59,3.75-2.39,3.95-3.56,5.94-1.75,1.91-4.27.53-6.23,1.56-2.5.64-4.25,2.22-6.18,4-4.16,3.85-8.12,8.75-14.84,7.31-1.35-.81-2.58-1.56-4.09,0S569.3,779.22,567.41,777.52Z" fill="#5f3d23"/><path d="M647.93,719.9c-.21-2.21-2.5-4-1.07-6.62.57-1.06-.44-2-1.76-2.13-.77-.93-.43-1.66.39-2.31,5.2-.66,1.91-4.36,2.27-6.75,1.21-7.77-1.08-16.16,4-23.24,2.81-.49,2.65,2.61,4.43,3.88,1.77-3.65,4-6.64,8.28-3.29,2.16,2.24,1.23,5.44,2.37,8.1,1,2.42-2.44.75-3.06,2.2,1.43,2.4,4.29,1.94,6.12,3.43a3.9,3.9,0,0,1,1.23,3.11c-1.57,3.85-5.89,2.21-8.3,4.4-1.95-.56-2.61-2.29-3.38-3.9-.08-.12-.13-.36-.24-.39-1.34-.36-.92.86-1,1.38-.19,1.47-.18,3.08-2.14,3.15s-2.23-1.45-2.53-2.92a9.81,9.81,0,0,0-.53-2.52c-1.64,1.88-1,3.83-.58,5.82,1.09,5.9-.46,11.52-2,17.1C650.15,719.47,649.34,720.42,647.93,719.9Z" fill="#874d24"/><path d="M611,804.87c7.67-2,15.59-2.57,23.26-5,4.18-1.31-.14-2.08.57-2.74a2.13,2.13,0,0,1,1.05-.77c2.79.09,5.59.07,8.4,0,.89.16,1.78.36,2.67.55,4,1.16,11.35,5.93,12.47,8.11a3.56,3.56,0,0,1-1.33.8,19.12,19.12,0,0,1-7.9-.13c-5.52-1.93-11-3.21-16.83-1a21.68,21.68,0,0,1-7.81,1.45c-1.77,0-3.43.23-4.57,1.85-1,.79-2.24,1.33-3.24,2.2-1.34,1.07-2.92,1-4.48,1-8.1.15-16.26-1-24.23,1.51a4.3,4.3,0,0,1-4.41-.91c-2.93.31-6.06-1.24-8.79,1-1.31-.57-1.26-2-1.85-3.06-.18-2,1.38-2.07,2.49-2.11,5.54-.21,10.72-2.08,16-3.42a7,7,0,0,1,4.16.35A24.38,24.38,0,0,0,611,804.87Z" fill="#393d3f"/><path d="M664.06,679.88c-5.85-3.27-5.6,3.38-8.51,5.56-1.55-2-1.21-5.3-3.82-6.59A50.31,50.31,0,0,1,665.67,655c.81-.77,2.69-.34,4.08-.47-1,2.89-2.13,5.39,1.68,7.57,2,1.16.74,3.87-1.12,4.94s-3.22,1.87-3.4,4.09C665,673.73,665.18,677,664.06,679.88Z" fill="#b96c3f"/><path d="M594.82,761.89c-1.66.4-3.35.73-5,1.2-2.25.65-3.29-.18-3.2-3-1.36,2.62-4,3-5.66,4.74-.75.79-1.87,1.08-2.45.12-2.92-4.87-7.93-3-12-4.08l5.47-3c2.19.17,4.37.34,6.56.49,4.17.28,6.83-2.45,9.46-5.14,2.16-2.2,4.36-3.76,7.69-2.79s3.09-2.39,3.47-3.91c.63-2.51,1.39-3.2,3.78-2.29,4,1.53,7.82-.73,11.76-.87-.09,2.71-2.19,3.44-4.1,3.78-7.51,1.37-11.59,6.67-14.75,13.14A11,11,0,0,1,594.82,761.89Z" fill="#894f28"/><path d="M611,804.87c-2.47,2.9-5.87,3-8.92,2.16-5.15-1.45-10.45-2.06-15.15,0-4.29,1.92-8.9.6-13,2.69l-1-.92c-.24-1.47-2.12-2-2.06-3.84,2.06-.3,5.17,1.73,5.61-2.57.08-.86,1.77-1.63,2.83-1.28,6.25,2.09,12-.93,17.87-2,2.49-.44,4.74,1.86,7.79-.68,1.82-1.51,6-1.46,8.77-3.45a4.2,4.2,0,0,1-2.53,3.76C606.75,801.4,606.74,801.37,611,804.87Z" fill="#4a585d"/><path d="M953.27,951c-.65.91-1.27,1.85-1.95,2.73s-.71,2.2-2,2.49c-2.62-7.58-2.28-15.84,2-21.69,4.68-6.46,4-13.62,6.78-21.36,2,8.73-.69,16.76,1.2,24.45a13.43,13.43,0,0,1-3.15,6.83c-2-.49-1.09-2.75-2.81-4.21Z" fill="#7c554c"/><path d="M966.87,738.35c-5.39.92-15.78-5.48-17.25-10.62,2.2-1.4,3.94.33,5.84.92a3.14,3.14,0,0,1,.46.08C960.71,730.57,966.38,731.33,966.87,738.35Z" fill="#f18f59"/><path d="M843.41,553.94c-2.73-1.54-3.17,1.65-5,2.74-1.39-2.34,1.1-4.56.13-6.41-3.57-6.84,1.94-10.38,4.83-14.89C844.51,541.56,841.08,547.75,843.41,553.94Z" fill="#5e5958"/><path d="M926,971.63c-.33-2.53,0-5.12-.9-7.59-1.06-3,1.74-5,2.21-8.6.62,3.8,1.08,6.65,1.54,9.5a22.93,22.93,0,0,0,2.88,4.78c1.78,4.16-.12,8.55.77,12.76-3.33-1.09-2.45-4.87-4.2-7C927.37,974.34,927.72,972.32,926,971.63Z" fill="#664e4a"/><path d="M893.71,994.45c-2.69-6.21-2.36-12.9-2.86-19.45-.15-2.29,1.2-2.29,2.78-1.93,1,8.9,1.37,17.85,3,26.69l-1.31.24Q894.55,997.22,893.71,994.45Z" fill="#5a5750"/><path d="M646,709.1a2.17,2.17,0,0,0-.93,2c-3.94,8.57-11.43,11.3-19.73,12.7,4.09-3.83,9.54-5.6,13.52-9.71,2.3-2.38,5-4.31,6.93-7.13A1.41,1.41,0,0,1,646,709.1Z" fill="#be6939"/><path d="M934.26,958c.14-4.31,1.39-8.38,2.47-14,.5,3.13.76,4.78,1,6.44-.42,5-.07,9.93,0,14.9a1.83,1.83,0,0,0,1.37,1.75c.09.92.17,1.85.26,2.78-.43,1.92.65,4.29-1.84,5.89-1.37-3.63-2.72-7.17-4.07-10.71C931.64,962.44,932.28,960.13,934.26,958Z" fill="#735549"/><path d="M789.23,539.25l-4.65-1.89c.73-1.52,2.14-2.62,2.44-4.43.15-.91.65-2.36,1.59-2.12,7.09,1.86,10.93-3.86,15.89-7a2.89,2.89,0,0,1,.91-.19c-3.1,4.81-6.18,9.64-12.31,10.8-4.13-.82-2.94,2.88-3.85,4.79Z" fill="#5f5f61"/><path d="M823.48,510.06c.42,2.38-.83,2.74-2.7,2.4-2.48-.45-4.15.37-5,3-.65,2-2.68,2.53-4.17,3.62q-3.12,2.28-6.23,4.57c-1.13-4,1.7-5.27,4.27-7.17C813.88,513.33,818,510.12,823.48,510.06Z" fill="#6e6c6b"/><path d="M995,754.2c-4.44-.26-4.75-5.8-8.76-7.05-3.33-1-6.36-3.07-10-2.83a2.6,2.6,0,0,1,0-2.88C984.89,741.84,990.61,747,995,754.2Z" fill="#f7914d"/><path d="M955.46,728.65l-5.84-.92L935.42,713c2.81,1.34,5.63,2.68,8.43,4.05.42.21,1.08.52,1.11.82C945.45,724.63,951.23,725.84,955.46,728.65Z" fill="#f18f59"/><path d="M852.69,947.47c1.95-.14.88,5.18,4.37,2.58.25-.19.56,1.62.53,2.52-.07,2.78-.38,5.63,3.75,5.28.26,0,.6,1,.9,1.52-5.3.71-7.24-.55-8.55-5.82C853.19,951.57,853,949.5,852.69,947.47Z" fill="#6c6b5f"/><path d="M839.43,941.66c2.68-.1,2.05-5.47,5-3.91,1.73.9,2.41,3.9,3.57,6C845,943.73,841.89,944.15,839.43,941.66Z" fill="#6b6c63"/><path d="M839.54,620.32q.94-2.45,1.87-4.89c2.63.52,2,2.51,1.35,4-1,2.36-.68,4.58-.12,6.88a7.79,7.79,0,0,1-1.93,4.93l-.56-.44C838.85,627.36,839.47,623.82,839.54,620.32Z" fill="#955b3e"/><path d="M873.66,974.27c-.08,5.34,1.43,9.18.7,14.38l-2-5.43c-.73.74.1,2.15-1.46,2.51C870.4,982.05,871.15,978.77,873.66,974.27Z" fill="#4c4847"/><path d="M559.49,792.32c1.15-2.55,2.9-4.85,3-7.82.09-2,1.41-3.12,3-4l.34.5-.3.52c.31,5-3.16,8.52-4.93,12.72C559.58,794,559.55,793.14,559.49,792.32Z" fill="#454547"/><path d="M925.44,976.09c2.11,1.94-.09,5,1.7,7,.32,2.23.59,4.45-.95,6.38-.17.87-.84,1.65-1.5,1.13-1.25-1-.67-2.49-.37-3.83A33.49,33.49,0,0,0,925.44,976.09Z" fill="#644f49"/><path d="M646,709.1l-.21-2.09q1-2.46,1.94-4.92c1.58,1.45,2.56,3.17,2,5.41S648.31,711.13,646,709.1Z" fill="#a2571f"/><path d="M965.92,923.65c1.88,1.47,1.55,2.84,0,4.38-1.34,1.32-2.91,2.56-3.14,4.7a1.78,1.78,0,0,0-.92,1.78c-3.23-1.57-1.15-3.13,0-4.69C963.43,927.91,963.89,925.24,965.92,923.65Z" fill="#7c554c"/><path d="M841.38,527.59c-2.74-1.42-1.7-5-3.71-6.84-.6-1.37-1.2-2.74-1.79-4.12C841.25,518.4,840.47,523.44,841.38,527.59Z" fill="#5e5958"/><path d="M688.57,827.4c5.15-.39,10.22.61,15.32.94C698.68,829.84,693.59,829.21,688.57,827.4Z" fill="#505b60"/><path d="M998.86,770.71c-2.53-1.58-1.71-4.61-2.77-6.83,0-2.87-.07-5.75-.1-8.63" fill="#f7914d"/><path d="M935.43,713c-2.34,0-4.74.51-6.88-1.18l2.07-1.7C933,709.8,934.48,710.91,935.43,713Z" fill="#f18f59"/><path d="M728.45,837.21c3.56-1.18,7.13-2.41,9.53,2.07C735.18,836.78,731.61,838,728.45,837.21Z" fill="#4b4b4c"/><path d="M833.87,930.82a2.29,2.29,0,0,1,.84.23c.31,3.24,2.47,6.05,2.1,9.45A18.88,18.88,0,0,1,833.87,930.82Z" fill="#a6a5a0"/><path d="M871.74,964.08c-1.86-2-.23-4.75-1.33-7,1.73,1.2,2.16,3,2.35,5Z" fill="#4c4847"/><path d="M975.31,741.33c-2.91.82-5-.63-6.75-2.73C971.24,738.39,973.31,739.77,975.31,741.33Z" fill="#f18f59"/><path d="M787.4,816.59c-1.71-2.17-.22-4.34.1-6.46.61-4,0-7.29-3.07-10.36-2.9-2.92-1.65-6.89-.84-10.5-.4-.51.09.13-.32-.36-1.59-1.85-3.58-4.18-1.51-6.26s4.3-.11,6,1.67c-1,8,4.5,12.76,8.82,17.81,4.7,5.49,10.06,10.34,12.24,17.64a3.46,3.46,0,0,0,1.39,1.93c9.21,5.77,8.53,15.47,9.11,24.58.17,2.59.42,5.16.74,7.73.21,1.72,1.08,3.33,2.78,3.57,3.53.48,4.34,3.15,5.41,5.93,2.32,6,4.38,6.52,9.46,2.49,5.38-4.27,9-3.25,11.59,3.29,2.3,5.72,10,10.64,15.86,10.12a6.18,6.18,0,0,1,4.14.71c5.26,3.77,10.77,7.45,13,14.09,1.09,3.23,2.59,6.27,3.68,9.49.51,1.5,1,3.33,2.93,3.38s2.92-1.75,3.6-3.37a50.48,50.48,0,0,1,5.26-10.33c1-1.41,1.86-3.09,3.91-3.2a15.5,15.5,0,0,1,3.22.74c6.31,1.63,6.5,1.94,5.29,8.64a60.51,60.51,0,0,1-4.86,12.93c-3.54,1.14-6.45,2.59-7.43,7-.66,3-3.58,3.06-5.19.25a7.65,7.65,0,0,0-5.18-3.76c-3-.79-5.11-2.69-5.46-6-1-9.57-8.09-13.54-15-17.81-2.55-1.56-4.31,2.21-6.63.53a40.35,40.35,0,0,0-13.54-8.48c-1.2-.47-2.28-1.12-3.54-.31a5.19,5.19,0,0,1-4.1,2.12,6.86,6.86,0,0,0-6.3,3.53,4.15,4.15,0,0,1-4.51,2c-2.21-.44-2.92-2.2-3.34-4.22-.84-4-2-7.84-5.19-10.59-9.81-1.06-11.5-2.85-12.61-13.37-7.27-7-9.47-16.3-11.52-25.81-1.22-5.65-3.13-11.14-4.87-16.65A6.85,6.85,0,0,0,787.4,816.59Z" fill="#473c36"/><path d="M860.44,892.74c4.33-4.33,7.32-.65,11.42,1.09,8,3.37,9.47,10.18,11.49,17.19.82,2.86,3.18,3.93,5.83,4.13,2.34.17,3.89,1.17,4.41,3.56.24,1.14.32,2.38,1.91,2.11a2.29,2.29,0,0,0,1.88-2.46c0-5.39,3.31-6.4,7.61-6.09,1.79,1.82,1.27,4.18,1.33,6.36.12,5.1-.55,10.19,1.16,15.23a7.62,7.62,0,0,1-.58,6.5c-.27.37-.88.9-.79,1.09,3.07,6.54.88,13.24.76,20.52-3.37-5.88-4.89-12.11-9.25-17.6.34,4,1.68,6.89,2.8,9.85-1.3,8.14-3.21,16.18-3.65,24.48-.9-3.63.48-7.4-1.17-10.89-2-4-.44-8.44-1.47-12.56-.25-1,.62-2.21-.53-3-2.5,4.25-1.39,9-1.42,14.36-3.19-3-2.26-6.92-4.16-9.53-1,.44,0-3.15-1.89-1-2.59.74-2.62-1.34-2.9-2.93a81,81,0,0,1-.58-23c.88-7.81-1.63-14.64-2.36-21.93-.58-5.82-4.21-8.54-8.46-11.3-2.55-1.64-3.69-1.08-4.56,1.47-.41,1.2-.47,2.85-2.13,2.76s-2.3-1.47-2.78-2.93C861.75,896.37,861.08,894.56,860.44,892.74Z" fill="#443b3b"/><path d="M820.6,875.17a20.14,20.14,0,0,1,5.68,12.24c.14,1.57.48,2.87,2.18,3.24,1.36.3,2.95-.06,3.27-1.25,1.29-4.8,4.85-4.58,8.48-4.61a12.27,12.27,0,0,0,3.15-.84,9.17,9.17,0,0,1-.36,6.94c-2,5.08-2.51,10.31.7,15.33,2.28,3.57,1.72,8.18,3.85,11.9,1.51,2.63,1.3,2.76,3.85.24,1.38,7.72-4,14-3.11,21.46-1.85-3.28.26-7.76-3.46-10-6.23-3.75-5.74-11.66-10-16.58,0-.32,0-.65,0-1-10.93-8.35-12.86-21-15.2-33.52A4,4,0,0,1,820.6,875.17Z" fill="#3f413e"/><path d="M820.6,875.17c1.71,12.4,3,25,12.79,34.16a3.85,3.85,0,0,1,1.43,2.94c-4.18.48-9.88-3.89-11-9.52-1.26-6.14-4.61-11.77-4.18-18.31.07-1-.15-2.35-1.38-1.94-1.47.5-3.79-.27-4.19,2.27-.17,1.12-.07,2.27-.13,3.41,0,.86-.35,1.75-1.17,1.93s-1.16-.83-1.71-1.37c-3.9-3.89-5.27-8.6-4.7-14.07.13-1.24.32-2.64-1.11-3.73-1.5,1.5-1.34,4.32-3.6,5.2-1.74-7.43.4-12.22,5.69-12.7,1.8,1.45,1.67,3.59,2.06,5.62.5,2.55,1.82,5.3,3.92,6.2S818.14,875.27,820.6,875.17Z" fill="#4c4847"/><path d="M839.57,595c-2.86,3.3-1.07,7.47-1.53,11.12-1.11,8.85-5.71,15.31-10.93,21.65-1.07,1.3-2,2.5-1.79,4.29h0c-2.95,2.07-5.89,4.18-8.68-.76-.94,1.83-1,4.69-3.69,2.78a2.15,2.15,0,0,1-2.41-.88c-1.1-2.38.44-6.4-4.11-6.48.26,1.35,1.39,2.42,2.17,3.68s1.93,2.6.25,3.77a3.26,3.26,0,0,1-4-.22,5.56,5.56,0,0,1-1.22-1.47c-3.46-5.52-8.66-7.66-14.75-8.07-.93-.19-1.87-.35-2.27-1.42-.76-2.45-5.42-.45-4.81-4.45v0c2.2.15,3.86-1.23,5.68-2.14.9-.44,1.93-1.21,1.63-2.13-1.24-4,.39-7.92.2-11.49-.21-4.08,2.49-5.7,3.23-8.65.56-2.25,3.65-3.73,1.4-6.87-.91-1.27,1.84-.7,2-2,1.71-2.79,2.18-6.31,4.86-8.56,1.06-.9.64-2.33.69-3.62.08-2.12-1.29-4.34.45-6.41.87-1,1.1-2.55-.13-3.46s-2.42-.42-3.39.64c-.8.89-1.41,2.57-2.89,1.17a2.16,2.16,0,0,1,.08-3.09c2.08-1.88.12-3.43-.34-5.14,1.83-.38,2.65,1.1,3.87,1.64s2.23.72,2.11-1.24c-.33-5.73,4.66-7.66,7.64-10.95.87-1,2.64-1.15,2.61-3-.09-6.39,3.88-9.11,9.08-10.74.14,2.25,1.21,4.5,0,6.74l-.84,1c-1.77,1.44-1.26,2.7.32,3.86,1,3.07,1.78,6.25,3.79,8.87.46.48.93.95,1.39,1.44a3.32,3.32,0,0,1,.85,1.89,2.79,2.79,0,0,1-1.78,2.81,12.61,12.61,0,0,1-6.65-8.25c-.24-.92-.29-2.16-1.51-2.11a1.64,1.64,0,0,0-1.42,2.13c1,3.92-1.32,5.88-3.92,8-3.12,2.5-4,5.81-4.52,10-1.09,9.88-2.19,19.94-7.39,28.78a11,11,0,0,0-1.16,2.65,2.67,2.67,0,0,0,0,1.43,1,1,0,0,0,1.14.62c1.36-.09,3-.91,3.87.71,1,1.78-.53,3-1.49,4.23-1.54,2-3.86,3.32-5,6.21a11.67,11.67,0,0,1,6,2.43c2,1.59,4.33,2.49,6.83.26,1.36-1.22,3.23-1.12,4.9-.15,1.72,2.39,1,4.47-.74,6.46-.55.63-.89,1.41-.15,2.1s1.48.32,2.11-.21a62.31,62.31,0,0,0,7.34-7.37c.94-1.2,2.1-2.24,2.57-3.78,2-4.59,4.9-8.75,6-13.77,2.61-6.83,2.39-14.13,3.39-21.22.46-3.29.17-6.76,2.29-9.64,1.44,0,1.38-3.09,3.2-2s1.91,3.48,1.32,5.29c-1.88,5.82-.91,12-2.21,17.86C838.7,591.41,839.37,593.24,839.57,595Z" fill="#1c1716"/><path d="M824.43,522.73c0,.3-.07.59-.12.88-1.75,0-3.49,0-4.73,1.6-.87,1.1-1.86.92-2.94.35-1.24-.65-1.5-1.42-.66-2.68s-1.14-3.49.47-4.5a91.24,91.24,0,0,1,9.37-4.85c.38-.18,1.24.3,1.66.7.72.71.31,1.47-.27,2.09C825.55,518.12,824.22,520.07,824.43,522.73Z" fill="#131413"/><path d="M789.25,539.25c-.14-.62-.24-1.25-.42-1.86-.46-1.54-1.14-3.39.24-4.46,1.65-1.26,2.66,1,4,1.53Z" fill="#404042"/><path d="M840.56,643.76c-1,1.12-2.38,2.09-1.79,4,.57,3.75,1.68,7.5,0,11.25-1,2.67-1.12,5.55-1.92,8.26-1.82,3.62-.74,9.22-6.49,10.18A2.16,2.16,0,0,1,829,677c-1.23-2.94,1.28-5.12,1.48-7.79a46.17,46.17,0,0,0,.24-5.76c-.49-5-2.15-10.19,1.25-14.88h0c3.39-4.42,3.79-10.21,6.42-15,.44-.8.52-1.82,1.25-2.49h0c.18-.42.43-.49.77-.18l.31.26Z" fill="#9c5324"/><path d="M928.79,946.37c-2.54-4.52-.58-9.07,0-13.6a30,30,0,0,0-3-19.3c-1-2-2.25-4.13-2.12-6.33.15-2.51-1.64.43-1.63-.85.12-7.26,0-14.56.78-21.73a28.12,28.12,0,0,1,2.12-8.84c1.56-3.83,4.11-3.84,7.19-2,2.29,1.37,4.54,3,7.42,2.11,2.69-1.77,5.65-1.18,8.57-1.05,2.12.81.33,3.14,1.57,4.3,2,6.89,1.73,13.76.3,20.76-1,5.07-.14,10.24.49,15.35-1.68.37-.92-1.54-1.74-2-2.6-5.16-1.89-11.2-4.59-16.33-1.45,4.52-1.29,9.31-.62,14.14.69,5,1.13,10-.48,14.88-3.19-.32-2.51-3-2.84-4.86-.21,1.28.24,3.25-2.31,2.7-2.29-7.24-3.33-14.81-5.68-22-.07-.66-.86.17-.29-.1.23-.1.37,0,.42.21,1.46,7,3,13.93,3.49,21.09.24,6.53-3.32,12.16-4.17,18.43C930.54,943,931.72,945.89,928.79,946.37Z" fill="#7c554c"/><path d="M947.79,875c-2.07,2.58-5.75-1.12-7.66,2.09-1.74-2.37.14-3.88,1.26-5.55a18,18,0,0,0-1.95-22c-3.05-3.23-4.63-7.77-8.53-10.29a12.81,12.81,0,0,1,9.7-18c3.77.27,6.09,2.39,7.14,6a6.78,6.78,0,0,0,3,4.2,10.54,10.54,0,0,1,3.67,5.57c.31,1.59,1,3.14.77,4.79-.41,2.65-1.78,3.49-4.57,1.86,1.83,4,4.85,6.23,8.33,7.84a9.7,9.7,0,0,1,5.8,8.28c.26,2.21,0,4.3-2.61,5-2-.16-2-1.73-2.29-4.3.26,4,2.16,6.54,2.09,9.51,0,1.14,0,2.44-1.19,3s-1.56-1-2.43-1.58c.92,6.33,2.53,12.47,3,18.81,0,2.68-.23,5.29-2.25,7.3-.57,1.37-1.15,2.73-1.72,4.1-1.3,0-2.37,1.1-3.73.78,0-.48-.28-1.1-.07-1.42,5.28-8.42.44-15.62-2.55-23-.23-.58-.38-1.19-.57-1.78C949.15,876.71,950.06,872.23,947.79,875Z" fill="#945434"/><path d="M961.77,864.46a7.25,7.25,0,0,0-3.28-11.69,16.59,16.59,0,0,1-8.22-6.67c-.56-.79-1.28-2.56.56-2.35,4.76.55,3.51-2.1,2.75-4.72a9.33,9.33,0,0,1-.17-1.92c6.74-1.16,9.67,4.43,13,8.48,2.83,3.49,5,7.67,7.72,11.37a13,13,0,0,1-1.15,9.08c-1.14,1.17-1.77.32-2.37-.63q-1.42-5-2.86-10l-1.27.12c0,5.19-1.63,11.23.39,15.38,2.77,5.66,3.08,11.19,2.67,16.76-.53,7.2-2.37,14.3-3.66,21.44,0,.11-.29.27-.3.26-.29-.29-.56-.6-.83-.91-2.25-2.62-1.3-6.1-2.29-9.06,1.12-10.61,2.8-21.24-1-31.69A3.22,3.22,0,0,1,961.77,864.46Z" fill="#8d4d20"/><path d="M970.56,865.41l1.75,1c1.54,1.27,1.05,3.21,1.52,4.78,1-2.55.2-5.83,2.71-7.91,1.18.54,1.28,1.4.71,2.47-.5,6.48-2.13,12.94-.27,19.46,0,7.63,1.35,15.44-3.09,22.6-1.59-2,.1-4.67-1.34-6.58-1.43-1.44-1-2.9,0-4.36,1.84-5,.55-10.51,2.25-15.55-4.89-.62-1.73-4.63-2.6-6.93C971.1,871.58,971,868.41,970.56,865.41Z" fill="#8c4e21"/><path d="M944.77,965.84c-2.32-.23-4.66-4.68-3.59-7.9,1.18-3.55,1.56-7.19,2.46-10.86,1.63,6.18,5.17,12.2,1.1,18.8Z" fill="#735549"/><path d="M948.66,913.23l1.74,2c.2,7.6,1.82,15.48-4.46,22v-3.36a16.86,16.86,0,0,1,1.69-4Q948.14,921.51,948.66,913.23Z" fill="#7c554c"/><path d="M979.9,877.13l2.4-8.65c-.41,6.65,2.17,13.4-.5,21.17-1.77-3.94-.13-7.17-1.72-9.8Z" fill="#9d5520"/><path d="M965.92,923.65c0,3-1.65,4.85-4,6.17.21-4.58,2.42-8.73,2.56-13.42C966.13,918.7,966,921.17,965.92,923.65Z" fill="#7c554c"/><path d="M937.42,933c2.3-1.84.94-4.76,1.94-7.19,1.63,1.41,1.67,3.24,1.77,5.05-1.54,2.55-.86,5.88-2.86,8.7C936.56,937.32,937.46,935.07,937.42,933Z" fill="#734d3f"/><path d="M953.61,902.48c1.08-1.07,2-3.14,3.73-.78.3,3.48-2.06,5.95-3.53,10.17A27.07,27.07,0,0,1,953.61,902.48Z" fill="#945434"/><path d="M969.87,911.34c1.81,4.89.4,8.3-.87,12.51C967.75,919.45,969.36,916.08,969.87,911.34Z" fill="#8c4e21"/><path d="M947.79,875v-3.48a4.93,4.93,0,0,1,2.63,4.7c-1.08.71-.64,1.88-.81,2.86Z" fill="#945434"/><path d="M960.52,905.52c1.63,2,.64,4.48,1.08,6.69a4.33,4.33,0,0,1-.4,1.39c-.4.56-.77.29-.77-.3C960.44,910.71,960.49,908.11,960.52,905.52Z" fill="#8d4d20"/><path d="M759,578.36c-2.29-3.24-4.23-6.72-3.54-10.86.22-1.36.29-3.78,3.63-2.71,2.75.89,3.64-2.69,4.66-5h0c2.5.31,2.72,1.82,1.94,3.87-1.64,1.95-.45,3.9,0,5.84-1.84,2-4.79,2.85-5.6,5.88Z" fill="#784f3d"/><path d="M760,575.43c-.32-4.17,1.39-6.29,5.6-5.88,1.32,2.68.08,5.45-1,7.32C762.51,580.35,762,574.7,760,575.43Z" fill="#404042"/><path d="M765.63,563.71a5.63,5.63,0,0,0-1.94-3.87c.84-1.07,1.5-3.62,3.14-1.71C768.28,559.83,768,562.28,765.63,563.71Z" fill="#56301b"/><path d="M732.37,815.6c-.5-2-2.83-1.52-3.8-2.9-.24-1.44-2.63-2-1.81-3.63s2.55-.47,3.86-.35c2.3.22,4.07-2.28,6.69-1.11a19.2,19.2,0,0,1-3.13-3.21,3.62,3.62,0,0,1-.22-4.12c1-1.47,2.45-1.08,3.87-.6,2.87,1,10,.34,12.67-1.42,2.17-1.44,3.8-1,5.49.69,1.33,1.29,2.81,3.82,4.54,2.57s-.65-3.42-.86-5.26-1.49-3.28-.89-5.17c3.74-2.23,4.89,2.67,7.82,2.94.82-.51.14-1.36.25-2.06.23-1.44.3-3.12,1.83-3.64s2.13.93,2.87,2c.55.76.8-.62,1.33-.25,3,2.67,1.78,4.9-.66,7a4.75,4.75,0,0,0,.78,3.21c.47.6,1.21,1.32.49,2.08s-1.68.24-2.51-.28-1.72-2.62-3-1.32a5.3,5.3,0,0,0-1.34,4.48c.24,1.31,1,2.53,2,4.94-4-3-6-3.33-6.67,1.7-.19,1.35-4.09,3.34-6,4.09-5,2-9.56,7.45-16.23,2.88C737.87,817.57,734.54,817.54,732.37,815.6Z" fill="#5c6264"/><path d="M772.22,797.07c1.22-2.28,2.27-4.57,0-6.87-1.66-1.08-1.91-3-2.63-4.64s-1-3.14.32-4.58c.83-.84,1.93-1.48,3-.92,2.27,1.22,3.7.69,5.1-1.48,1.51-2.36,3.86-1.71,6-.93,1.62.6,2.92,1.93,4.68,2.27a1.9,1.9,0,0,1,1,.82c.37,2-.55,3.1-2.3,3.67-.46-.11-1-.08-1.34-.34-1.17-.92-2.66-1.85-3.78-.89-1.41,1.2.41,2.5.7,3.79.18.78.42,1.53.63,2.29-1.9,0-2.65,4.56-5.51,1.29-.76-.87-1.94,0-1.58,1.71C777.25,795.83,774.62,796.38,772.22,797.07Z" fill="#6a5143"/><path d="M584.57,811.84a114.28,114.28,0,0,1,31.59-1.91c.44,0,1-.76,1.43-1.17a29.87,29.87,0,0,1,11.07-1.35c10,.4,19.82-2.23,29.8-2.49a3.56,3.56,0,0,0,.86-.06c3.44-2.07,6.32-1.59,8.54,2-4.47,2.37-9.87,1.25-14.25,4-6.09-.61-12.09.38-18,1.5-11.29,2.14-22.74.5-34,2-6.66.86-13.27,1.92-20,0Z" fill="#71838f"/><path d="M752.33,623.27c-2.93-.75-6.45,3.12-9-1.17,0,0-1.23.68-1.86,1.08-.83.53-1.37,2.23-2.63,1.08s-.25-2.1.71-2.72a3.39,3.39,0,0,0,1.31-3.85c-1.28-6.58,3.22-10.85,6.24-15.4,2.2-3.33,3.78-6.51,4.16-10.42.21-.44.14-1.63,1-.77,1,1,1,3,3,3.75a7.74,7.74,0,0,0-1.49-5.9c-1.15-1.45-1.15-3-.7-4.93s1.25-4,2.75-3.84c1.93.15,1,2.6,1.28,4.07-1.27,2.49-1.2,2.41.95,4.46s4.52,3.79,4.69,7.13c-2.34,1.36-6.46-.12-6.79,4.44-.29,3.93,3,5.31,5.38,6.5,4,2,1.62,4.44,1.22,6.85-3.16,4.16-.15,7.88.81,11.74-.06,2.21.69,4.47-.35,6.63-3.84-.31-3.79-3.91-5-6.39S755.67,620.36,752.33,623.27Z" fill="#784f3d"/><path d="M762.65,625.23c-2.23-3.76-5.15-7.48-.91-11.77a1.86,1.86,0,0,1,2.71,0c-.13,3.26,1.12,5.68,4.07,7.08,1.64,3.84,3.65,6.91,8.49,4.65.24-.11.7.54,1,.95v0c.69,6.3,6.45,7.7,10.16,11.09,1,1.12,2,2.24.91,3.87a4.19,4.19,0,0,1-4.13.38c-4.93-1.6-9.35-3.84-12-8.8-.64-1.2-2.47-1.41-3.82-1.73A8.45,8.45,0,0,1,762.65,625.23Z" fill="#bd7743"/><path d="M787.52,637.84c-3.73-1.15-5.94-4.65-9.37-6.38-2.33-1.18.25-3.5-.18-5.28,1.22.61,1.29,3.5,3.53,2s.4-2.36-.56-3.62c-1.31-1.72.38-2.26,1.55-2.3a20.2,20.2,0,0,1,4.1.69l2.65.4c3,1.51,2.47,4.33,2.48,7C789.5,632.33,788.93,635.33,787.52,637.84Z" fill="#7c6a61"/><path d="M764.45,613.47h-2.71c-.36-.91-.67-1.78.24-2.62,1.11-1,1.71-1.89-.47-2.47-1.84-.5-3-2.69-4.48-3.24-4.9-1.83-2.56-5.3-1.64-7.66,1.36-3.45,4.61-2.21,7.32-1.63.32.68.65,1.36,1,2h0c-.71,2.66-2.82,5.38,1.31,7.43,1.49.74.09,2.87-.2,4.35a3.07,3.07,0,0,1,.06,3.81Z" fill="#776c6c"/><path d="M763.69,597.88c3.88-2.87,5.83,1.23,8.33,2.75,1.78-1.35-.91-3.43,1.1-4.39,1-.46,1.86.1,2.65.64,2,1.4.86,3.11.42,4.78s-1.24,3.11.2,4.89c-4.92-2.12-11.44-1.22-12.71-8.66Z" fill="#292929"/><path d="M778,626.15c-.6-.1-1.63-.46-1.74-.26-1.79,3.18-3.47,1.42-5.61.3-2.66-1.38-2.44-3.36-2.1-5.65,2.48-.85,4.6-3.74,7.82-1.25.09,1.77-2.62,1.63-2.5,3.42C775.07,624,778.69,622.32,778,626.15Z" fill="#7c6a61"/><path d="M764.85,613.48l-.06-3.81a4.57,4.57,0,0,1,.89-.27c1.61-.19.08-5.33,3.09-2.45,1.3,1.24,4.72,2.33,2.06,6.78C767.54,619.24,766.72,614.87,764.85,613.48Z" fill="#1d1817"/><path d="M781.79,618.51a2.5,2.5,0,0,0-.47,0c-3,.17-3.41-2.21-4-4.37a1.11,1.11,0,0,1,1.3-1.47c2,.27,4.3.31,5.36,2.24s-1.81,2.16-2.23,3.61Z" fill="#656062"/><path d="M837.62,659.38a50.59,50.59,0,0,0,1.15-11.64c.81,1.93,1.25,4.22,4.29,3.35.65-.19,1.82.65,2.42,1.33,4.67,5.29,11.17,8.13,16.26,12.82a9.89,9.89,0,0,0,7.7,3,6.2,6.2,0,0,1,5,2.29c3.22,3.68,7.24,6.22,11.26,8.77a17,17,0,0,1,8.06,11.86c.47,2.49,1.93,5,4.56,5.79,8.86,2.76,11.4,11.12,14.84,18.29,1.65,3.44,3.59,6,6.55,7.8a19.16,19.16,0,0,1,6.72,6.64,26,26,0,0,0,14.21,11.24c5.56,2,10.16,6.17,15.81,8.16a18.61,18.61,0,0,0,3,1.21c4.45.8,8.3,2.1,10.24,7.2,1.12,2.93,4.31,4.46,7.38,5.42-4.23,1.57-6.39.69-10-4.08.32,2.25-.62,3.45-2.76,3.48-1.76,0-3.56,1.16-5,.92-7.24-1.18-13.69,2.92-20.74,2.87-6.31,0-8.67-1.51-10.89-7.86-.83-2.39-3-3.7-4.14-5.85-.9-2.49.25-4.79.7-7.14s-.21-4-2.44-5.11a20.07,20.07,0,0,1-11.37-17.21c-.28-3.75-1.24-6.85-4.51-9.08a7.38,7.38,0,0,1-3.2-5.77c-.08-3.67-2-5.5-4.82-7.1a29.82,29.82,0,0,1-9.49-9.38A87.17,87.17,0,0,0,878.31,680c-1.79-1.82-3.69-3.07-6.28-2a.84.84,0,0,0-.35.88c.53,1.91,2.92,3.63,1.21,5.74s-3.79,0-5.71-.08c-5.46-.28-7.22-4-8.81-8.63-2.38-7-7.25-11.91-14-15.75-.5,3.6-1.2,6.64-1.22,9.81,0,1.54.67,3.32-1.15,4.37-1.63-.08-2.17-1.52-3.05-2.54a7.39,7.39,0,0,1-1.84-3.6C838.4,665.3,836.92,662.27,837.62,659.38Z" fill="#eb7f32"/><path d="M924,752.15c2.76,2.32,5.52,4.23,5.29,8.93-.11,2.44,3.62,3.12,6,3.7,4.22,1,8.31-1.86,12.62-.55,1,.3,1.08-.78,1.22-1.63a1.9,1.9,0,0,1,2.88-1.5c4.24,3.29,8.37-.78,12.59.07,2.1.43,2.21-.77-.33-5.28,4.44,2.87,7.14,8,12.79,7l11.23,3.91c1.88,1.61,1.76,4.14,2.68,6.19,2.33,8.33,6,16.42,4.48,25.45-.65,3.89,2.62,7,2,10.83-1.93,1.67-2.94-.28-4.16-1.17-1.53-1.12-2.13-3.07-3.47-4.37-1.51-4.6,0-9.2-.24-13.32.83,4.38-2.49,9.34.63,14.13,1.27,1.2.56,2.25-.29,3.21a2.47,2.47,0,0,0-.58,3c-.39,2.46-.76,4.92-1.19,7.37-.09.53.49,1.9-.94,1.16-.4-.21-.46-1.07-.68-1.63a9.75,9.75,0,0,0-4.4-7.65c-2.66-1.82-4.42-4.62-6.59-7-3.4-3.68-3-5.74,1.53-7.94a3.28,3.28,0,0,0,1.74-1.54,15.69,15.69,0,0,1,1.52-2.45,1.61,1.61,0,0,0,.28-1.8c-.54-.89-1.29-.5-2.07-.31-5.32,1.3-5.56,1.23-7.4-4.09a9.24,9.24,0,0,0-4.25-5c-1.8-1.13-3.94-2.63-3.09-4.87,1.48-3.92-.91-4.86-3.41-6-1.15-.52-2.34-1-3.46-1.56-.38-.21-1.13-.61-1.14-.48-.55,6.27-3.64,1.46-5.69,1.49a6.7,6.7,0,0,0-4.69,1.94c-2,2.2-3.67,1.93-5.66.19a4.7,4.7,0,0,0-5.36-1.09c.55,2.93,5.9,6-.1,8.55a4.13,4.13,0,0,1-2.86-2c-4.09-3.84-5.08-9.54-7.87-14.18A9.13,9.13,0,0,1,924,752.15Z" fill="#e07a31"/><path d="M991.21,770.8l-.93,2a14.36,14.36,0,0,1-1.93-6C991.17,766.71,990.76,769.08,991.21,770.8Z" fill="#ef7e3c"/><path d="M925.92,875.2c-.94,3.51-.51,7.36-2.59,10.64a4.8,4.8,0,0,0-.17,3.32c1.17,4.82,1.57,9.52-.84,14.12a2.58,2.58,0,0,0,.54,3.13c3.08,5.51,3.83,11.67,4.75,17.79a2.88,2.88,0,0,1-.8,2.63c-1.67,6.72-3.52,13.37-1.94,20.47.64,2.84-.33,5.71-.9,9-3.17-4.13-2.63-8.54-2.65-12.83a118.12,118.12,0,0,0-.5-12.71c-2.33,9.07-2.81,18.52-5.91,27.9-1.18-4,.27-8-1.55-11.67-.41,1-.75,1.77-1.22,2.86-2.11-3.16-.45-8.27-5.24-9.45-2.06-9.26-2-18.67-1.91-28.09q1.92-6.36,3.83-12.71c2.89-4.74,5.21-9.93,10.42-12.71,1.74-.93,1.57-3,1.66-4.79.15-2.79.41-5.53,3-7.28A1.9,1.9,0,0,1,925.92,875.2Z" fill="#664e4a"/><path d="M905.06,985.8c1.68,4.33.57,7.87-2.83,10.78-1,.18-2.16,1.77-2.8.27-.74-1.73-1-5,.38-5.36,4.08-1,2.6-3.94,2.62-6.08,0-6.65-.32-13.31-.43-20a13.61,13.61,0,0,1,.84-5C905,968.83,903.14,977.49,905.06,985.8Z" fill="#5c5857"/><path d="M926.81,926.83q-2-10.22-3.95-20.42c0-.15.11-.3.17-.45a2.38,2.38,0,0,1,.19-.41c.23.07.59.14.65.31,2.47,7,6.44,13.41,6.63,21.17a8.2,8.2,0,0,1-1.76,5.74c-.84.23-1.84.76-1.88-.84S926.83,928.53,926.81,926.83Z" fill="#7c554c"/><path d="M922.75,979.8c-1.54-7.54-7.24-14.06-5-22.64C923.22,963.85,922.07,972.05,922.75,979.8Z" fill="#664e4a"/><path d="M912.28,975c-4.4-5-1.75-10.82-2.14-16.2C911.62,964.06,914.72,969,912.28,975Z" fill="#443b3b"/><path d="M914.91,976.61l1.71-1.92c1.12,4.41,2,8.84,1,13.42-1.38,1-1.81.42-1.9-1.1C915.46,983.54,915.16,980.07,914.91,976.61Z" fill="#594741"/><path d="M737.14,629.1,740,642.79c.93,3.67,4.51,3.79,6.93,5.46,2.74,3.27,1,5.42-2,6.7-1.92.83-2.79,1.42-2.11,3.78.78,2.74-.61,4.5-3.4,4.36-4.33-.21-8.32,1.44-12.51,1.95a7.39,7.39,0,0,1-1.33,0,3.63,3.63,0,0,0-3.48.92c-2.15,1.73-4.54,1.9-7.16,1.47a12.39,12.39,0,0,0-9.79,2.19,4.88,4.88,0,0,1-3.95,1.09c-2.43-.42-4.12.65-5.76,2.47-2.32,2.58-10.91,3-14.32.91-.4-3.83,1.46-4.67,4.55-3.47,2.18.84,3.69.54,4.42-1.87,1-3.37,4.37-2.68,6.56-4,1.41-.83,3-1.33,3.1-3.21s-1.75-2-3-2.44c-1.88-.61-3.38-3.23-5.86-1.07-.58.51-1.44-.31-1.81-1.09a1.67,1.67,0,0,1,.41-2.19c1.65-1.22,3.18-2.87,5.31-3,3.81-.32,7.36-.45,11.19-2.19s4.38,3.37,5.07,6.31c.5,2.15-1.26,6.3,3.49,2.84.91-.66,1.59.71,2.25,1.34,1.43,1.37,3.91,1,4.33.19,1.38-2.51,4.78-2.76,5.54-5.7,0-5.4-1.34-11.19,4.93-14.51,2.86-1.52,4.93-4,4.42-7.83A3.23,3.23,0,0,1,737.14,629.1Z" fill="#cc6422"/><path d="M737.14,629.1a11,11,0,0,0,0,2.43c1.18,5.78-2,8.5-6.6,10.47-1.74.75-3.34,1.65-1.91,4.39,1.55,3-2.94,5-1.92,8.11-3.21-2.24-6.23-4.56-10.66-3-2.91,1-5-.17-5.19-4-.31-5.79-5.67-7.78-8.79-11.45,1.85-5.06,7-6.18,10.75-8.38,2.56-1.49,5.47-3.71,8-4.18,6-1.12,10.92-5.89,17.34-5C736.37,621.84,737.37,625.53,737.14,629.1Z" fill="#f0782e"/><path d="M681.15,674.06c3.3-.07,6.65-1.37,9.87.43a.48.48,0,0,0,.45-.07c3.57-4.24,8.89-4.63,13.52-6.59,2.93-1.24,5.89-2.19,9-1.79s6.15,1.23,8.48-2.13c.77-1.12,2.28-.85,3.27.35-1.23,4.72-5.76,8.55-9.84,7.53-3.65-.9-6.66-1.39-9.15,2.27-.77,1.13-2.54,1.21-3.77,1.94s-2.17,2-1.55,3.64c.54,1.4,1.78,1,2.87.74,1.39-.35,3.05-.88,4,.4,1.28,1.7-.57,2.92-1.29,4.23-1,1.88-1.25,4-1.89,6-1.81,5.72-2.36,6.19-8.29,6.24a4,4,0,0,1,.71,5.27c-4,3.19-8.06-.07-12.1.05-1.33,0-2.67-.79-4-1.11a7.93,7.93,0,0,1-2.41-1.26c-2-1.39-3.64-3.71-6.56-3.07a2,2,0,0,1-1.74-.66l-1-2.9c3.61-5.53,6.68,0,10,.76.27-1.2-.5-1.64-1-2.17-3.63-4-3.34-5.11,1.9-6.86,2.35-.78,4.77-.68,6.31-3.73,1.11-2.18-.19-1.91-1-2.32-3.24-1.65-6.77-.26-10.15-.87-1.28-.23-2.78.05-2.65-1.77s.76-3.61,3.25-2.59Z" fill="#ad5816"/><path d="M676.41,674c-2,.19-2.3,1.65-2.67,3.44,3.44-1.05,10.12.07,16.31,2.59-1.22,1.57-4.71,1.86-2.72,5.25.4.68-.56.78-1.2.62-3.51-.92-6.32,1-9.88,2.67,2.34,1.15,3.54,2.93,4.92,4.54.63.73,2.13,1.41.81,2.72-1,.94-2,.51-3-.16-2.82-1.85-5.41-4.94-9.25-2.12-3.81-.4-7.58-.87-8.13-6.07,1.68-1.18,2.76,1,4.74.77-1.86-2.58-2.11-5.48-2.29-8.4-.42-3.39-1.38-7,2.85-8.75,1.09,1.69.89,4.09,3,5.68C670.11,670.25,673.45,672.71,676.41,674Z" fill="#c87224"/><path d="M758.93,791.21c1.17,2.8,2.37,5.58,3.47,8.4.47,1.22.74,2.67-.25,3.67-1.17,1.18-2.63.24-3.39-.53-3.35-3.37-6.5-5.47-11-1.58-1.54,1.33-3.9-.08-5.74-1-1.29,1.17,1.61,2.19-.07,3.33-1.86-.06-2.54-2.21-4.21-2.73-1-.32-2.1-1.28-3-.09a2.42,2.42,0,0,0,.51,3.47c1.8,1.38,2.64,3.79,5.14,4.84-4.58-3.47-8.61,4-12.75-.2-.89,1.9,2.29,2.15.92,3.89-2-1.05-4.51-.41-6.17-2.77-1.53-2.17-2.37-.08-2.71,1.24-1.23,4.81-4,2.59-5.88,1.08-3.14-2.45-6.29-2-7.36,1.23-1.48,4.44-3.21,1.66-4.8.89-2.16-1-3.83-2.1-6.73-1.82s-5-3.35-5.21-6.88c-.16-2.25.32-4.58-1-6.64,0-2.63,1.6-3.14,3.28-1.89,2.13,1.57,4.75,3.19,5.53,5.76,1.24,4.14,4.15,3.43,6.75,3,2-.37,3.77-6.21,2.87-8.38-.6-1.45-1.92-2.61-1.6-4.41,3-1.51,3-1.51,7.43,1a5.61,5.61,0,0,0-3-5.9c-1.3-.76-3.1-.8-3.72-2.6a2.56,2.56,0,0,1,1.22-2.48,3,3,0,0,1,1.42-.22,80,80,0,0,0,8.79,1.77,5.89,5.89,0,0,0,5-.92c3.55-2.94,7.12-2.1,10.56-.1s6.23,2.79,9.22-.71a5,5,0,0,1,6.56-1C752.82,784.37,757,786.63,758.93,791.21Z" fill="#6b6e6f"/><path d="M705.79,793.16c4.63,3.84,3,8.31,1.22,12.79-.57,1.46-2.07,1.39-3.12,1.6-1.76.35-3.54-1.16-5.49-.11-.74.4-1.72-.51-1.49-1.33,1.37-4.93-4-5.13-5.41-8.25-.66-1.49-2.12-.05-2.77,1.17-1.75.07-4.46-3-4.69,2-.08,1.93-2.71,2.28-4.7,1.4-1.55-.7-3-1.7-4.84-1.49-1.22-.75-2.63-1.06-3.89-1.73-5.42-2.89-5.7-6.53-.72-10.12,2.57-1.86,4.55-4.4,7.2-6.2,3-2,5.71-2.65,8.52.09s5.34,4.19,9.21,1.85c2.17-1.31,6.46,1.5,6.31,4.76C700.92,794.24,703.73,792.75,705.79,793.16Z" fill="#838081"/><path d="M705.79,793.16c-2,2.16-4.11,1.74-6.24.15-.52-.4-1.26-1.14-.79-1.45,4.42-2.91-1-4-1.41-5.78-.46-2-2.91.44-4.54,1.16-1.88.84-3.87.25-5.57-1.18-6.09-5.15-8.74-4.87-13.76,1.46a7.32,7.32,0,0,1-3.17,2.74c-1.52.56-3.27,1.86-3.06,3.23a5.8,5.8,0,0,0,3.49,4.44c1.3.58,3.69.53,3.76,3-2.21,1.72-4.42.5-6.64,0-6.58-.91-13-3.16-19.68-3.22-.76,0-1.51-.33-2.21.23l-1.87-.83c-1.81-.73-3-1.82-2-4,1.34-2.84,1.86-6.75,5.93-6.67,3.22.07,6.35,1.4,9.4-1.14,1.16-1,2.53.75,3.69,1.55,4.05,2.81,6.32,2.36,9-1.77,2.07-3.21,5.31-5,8.29-7a4.93,4.93,0,0,1,6.54,1.12c4,4.64,8.86,4.23,13.95,3.43,3.06-.48,6.06-.78,7.83,2.7,7.63,3.33,8.29,4.37,6.93,11.51C711.28,794.87,709.48,791.53,705.79,793.16Z" fill="#82746e"/><path d="M646,798c7.71-2.19,15-.83,21.89,3,1.2,1.28,1.25,3.89,4.45,2.63,1.16-.46,3.48,2.17,6.35,4.13-4.4-.65-7.54-2.5-10.8-.9-2.58-1.9-5.55-2-8.54-2C654.24,803.86,651.15,798.77,646,798Z" fill="#4a4c4d"/><path d="M617.51,794.93c-2.93-1-.41-2.75-.47-4.58-9.8,2.2-19.31.18-28.86-1.09-2.27-4.59,2.85-3.23,4-5.22-.16-2-2.64-2-3.25-3.66a2.25,2.25,0,0,1,2.53-2.3c2.67.49,5.1,1.19,8,.28,1.8-.57,3.11,2.78,2,4.78-.63,1.13-1.89,1.68-2.92,3.15a16.91,16.91,0,0,0,10.29.79,15.31,15.31,0,0,1,10.57,1,18.4,18.4,0,0,0,12.85,1.25c2.92-.81,6.12-1.91,9.22-.2-1.33,4.69-3.09,5.8-8.54,5.38C627.77,794.92,622.61,793.78,617.51,794.93Z" fill="#564743"/><path d="M589.14,780.43a20,20,0,0,1,3.05,1.17c1.06.6,2.45,1.33,2.14,2.82s-1.8,1.77-3,1.81c-2,.06-3.39.58-3.13,3l-1.89,1c-.8-4.49-4-4.3-7.16-3.64-2.54.52-4.62.32-6.14-2.08a7.58,7.58,0,0,0-7.31-3.93l-.21-.1,1.94-2.94c1.61-.23,3.67.78,4.67-1.25,1.91-3.9,3.3-2.07,4.74.31,1.3,4.44,5,3.16,8,3.42C586.24,780.12,587.78,779,589.14,780.43Z" fill="#664d42"/><path d="M565.68,780.56c3.69-1.17,6.67-.42,8.34,3.48s4.76,1.1,6.84,1c4.12-.21,7.37-.82,5.43,5.17-3.46.74-6.77,2-10.39,2.34-2.8.29-3.89-.89-5.83-2.56,2.6-1.12,5.07,1,7.36-1.25-3.51-1.06-6.4-2.79-8.13-6-.88-1.65-2.42-1.19-3.79-1.24A1.8,1.8,0,0,1,565.68,780.56Z" fill="#6f625d"/><path d="M617.51,794.93a7.58,7.58,0,0,1,7.15-1.55c2.55.61,5.39-.09,8.1-.22.74,1.45,4.2.79,2.84,3.87-.27.05-.54.09-.82.12-3.46.27-6.94.23-10.41.74C621.79,798.27,618.58,798.85,617.51,794.93Z" fill="#82746e"/><path d="M836.75,568.62c-1.53,10.69-1,21.71-4.83,32-1.73-2.17-1.24-4.61-.46-6.85a25.54,25.54,0,0,0,1.25-9c0-1.37.5-2.92-1.23-3.78s-2.53.33-3.51,1.38c-.46.5-1.15.35-1.76.09a3.77,3.77,0,0,1-.86-4c2-4.45.31-9.16,1.23-13.65.23-1.51,1.5-1.67,2.56-2.11C835.18,562,836.27,562.79,836.75,568.62Z" fill="#554d4c"/><path d="M825.36,555.86l-.94-1c-1.63-1.59.61-4.74-2.23-5.85a1.7,1.7,0,0,1,.35-1.89c.4-.84.79-1.68,1.21-2.51.85-1.67,2.08-2.26,3.84-1.43s2.63,2.91,1.47,4.16c-1.87,2-.67,3.19.48,4.31,2,1.93,2.17,4,1.07,6.38l-3.42-1.11C826.12,557.41,825.85,556.44,825.36,555.86Z" fill="#52585a"/><path d="M822.54,547.14c0,.62,0,1.25,0,1.87,1,1.52,1.71,3.11.84,5a12.19,12.19,0,0,1-3.74-9.8c-1.32-1.63-1-3.25,0-4.88.3,0,.6,0,.9,0C820.69,542,823.07,544.19,822.54,547.14Z" fill="#24292c"/><path d="M825.36,555.86l1.83,1.08c.26,2.06-.68,4.56,1.95,5.78l-2,2c-3.61-.62-3.25-3.22-2.77-5.88Z" fill="#24292c"/><path d="M594.82,761.89c-.07-7.69,6.35-10.71,10.74-14.86,2.2-2.08,6.86-.21,9.16-3.66,1.23-2.47,3.54-3.68,5.79-4.71,7.86-3.64,14.78-8.91,22.19-13.32,2.29-1.36,3.07-4.06,5.23-5.44,3.52-1.64,2.29-5.64,2.91-8.18.82-3.31,2.19-7.56.07-11.21-1.84-3.16,1.59-5.27.84-8.29,3.12.91,2.77,3.15,2.85,5.2,0,1.08-.25,2.64,1.27,2.7,2,.07.92-1.48.9-2.46a3.22,3.22,0,0,1,.31-1.4c.56-1.2.27-3.45,2.24-3.11,1.63.29.69,2.19.94,3.36-1.13,2.08.63,5.55-1,6.41-4.22,2.24-1.33,6.86-3.62,9.26-2.69,2.82-3.54,6.44-5,9.81-2.9,4.77-4.7,10.15-8.44,14.5-3.24,3.77-2.44,6.11,2.3,10.57a3.92,3.92,0,0,1,.44,1.3c-.1,2.44-1.36,4.46-3.64,4.15-2.68-.36-5.74-.62-7.65-3.15-.78-1-.3-2.19.41-3.14,1.14-1.52,2.07-3.1.27-4.67-2.16-1.9-3.4.18-4.73,1.43a38.68,38.68,0,0,1-4.37,3.72,8,8,0,0,1-5.38,1.15c-5.35-.31-7.78,3.77-5.33,8.65.93,1.87,3.31,3.52.72,5.84a3.21,3.21,0,0,1-1.34.13A15.85,15.85,0,0,1,608.1,759C603.54,759.34,599,759.55,594.82,761.89Z" fill="#774119"/><path d="M697.27,702.34c.34-2.19-.62-4.1-1.39-6.27,3.83.27,7.15.49,8-4.92.53-3.38.92-7.35,4.39-9.68-1.67-1-2.77-.28-3.95.15-1.41.51-3.29,2.54-4.08-.5-.57-2.2-1.5-4.84,1.64-6.19,2.48-1.06,5.54-1.09,6.32-4.9.3-1.44,2.57-1.15,3.79-.51,6.5,3.41,10.24-.54,13.74-5.26.32,0,.64,0,.95,0,4.78,3.46,9.56,0,14.33,0,6.53-.11,8.9-5.2,11.13-10.33.28-1.06.34-2.07-.66-2.82-1.55-1-3.39-1.35-4.9-2.43-2.74.54-4.23-2.2-6.7-2.71-1.5-.3.46-2,.11-3.17,4.78,2.74,9.44,5.7,15.16,6.08,1.45.09,2.66.12,3.07-1.31.46-1.63-1.1-1.61-2.08-1.95-3.41-1.15-6.2-3.94-10.08-3.94a2.43,2.43,0,0,1-1.8-1.28c-.48-1.2.74-1.63,1.47-2.12,2.74-1.82,8.12-1,9.82,1.83,1.24,2.09,3.3,2.94,4.8,4.57.95,1,2.2,1.5,3.32.31s-.07-2.07-.48-3.05c-.53-1.28-3.61-2.23-.49-4,3.64-.14,3.51,4.11,5.94,5.38,1.16,2.16,1.7,4.59,3.52,6.48a4.32,4.32,0,0,1,.63,5.35c-2.4,4.23-2.35,4.26,2.69,5,4.86.28,7.49,3.57,9.63,7.54-.14,2.84-2,3.26-4.2,3.11a64.61,64.61,0,0,1-10.09-1.19,28.15,28.15,0,0,1-12.49-3.46c-5.59-3.16-9.89-.26-9.54,6.17a5,5,0,0,1-4.61,2.9,14.47,14.47,0,0,0-6.17,2.24c-5.1,3-7.54,1.83-8.81-3.85-.16-.74-.1-1.6-.91-2-.43.41-.15.85-.07,1.28,1.27,7,.7,7.72-5.91,7.49a7.06,7.06,0,0,0-1.87.28,7.27,7.27,0,0,1-2,.08c-4.74.64-10.3,6-10.8,10.57-.31,2.9,1.76,4.28,3.8,5.53,2.25,1.39,4.89,2.34,5.32,5.57a1.76,1.76,0,0,1-1.25,1.45c-3.79-.94-7.86-.81-11.31-3.06C701.34,698.91,699.86,703.16,697.27,702.34Z" fill="#a64b0f"/><path d="M768.42,643.84c-3.94.12-2.6-5.18-5.72-5.9-1.55-1.5-3.17-3-4.64-4.53-2.09-2.27-5.59-3.77-4.06-8.09.31-.85-.8-1.61-1.67-2.05,0-1.63.74-3,2.25-3.25s2.34,1.24,3.14,2.42c2,3,2,7.13,5,9.57,7,.8,10.32,5.87,12.76,11.91C773.06,649,770.76,645,768.42,643.84Z" fill="#653415"/><path d="M822.35,643.72c2.27-.55,4.58-1.4,5.18,2.31.2,1.24,1.4,2.05,2.55,2.62,1.81,2.13.54,4-.68,5.64-1.63,2.17-1.57,4.06,0,6.11,2.25,2.91,2.07,5.6-.78,8-1.57,1.32-1.53,3.49-2.47,5.15-1.6,3.44-3.34,6.66-7.69,6.94-1.93.12-2.26,2-3,3.37-2,3.91-3,4.11-6.53,1.76-6-4-10.61-9.6-16.11-14.19a66.31,66.31,0,0,0-9.93-7.29c-2.75-1.55-3.06-4.22-3-7.12,0-2.45,1.31-3.47,3.44-3.79,3.1-1,6.11-2.5,9.54-1.67,2.07.5,2.08-2.8,4.12-2.53,1.48.15,3,.94,4.34-.53a4.11,4.11,0,0,1,2.56-1.06A119.79,119.79,0,0,0,822.35,643.72Z" fill="#391c09"/><path d="M796.88,649.53a7,7,0,0,1-6.54,2.82c-2.82-.51-4.18,2.78-6.82,2.16-1.14-1.17-2.74.14-3.92-.79a3.31,3.31,0,0,1-.71-2c.16-2.48,1.46-3.17,3.84-3.69,4-.87,8.09-1.86,11.31-4.81,1.67-.58,1.92-1.85,1.57-3.42,1-1.42,2.85-1.75,4-3,1.35-3.23,3.07-4.88,6.34-2,2.69,2.38,3.22-2.11,5.28-2l1.71,1.19c.31.67.61,1.35.91,2,.55,3-2.79,10-5.77,10.77C804.38,647.85,800.79,649.45,796.88,649.53Z" fill="#a16945"/><path d="M796.88,649.53c2.15-1.48,4.7-1.63,7.11-2.13,6.09-1.27,7.67-6.55,9.86-11.33.69.34,1.93.59,2,1,.67,3.83,3.41,5.36,6.49,6.6-4.8,3.8-10.52,4-16.2,4.59-1.89.19-3.86.29-5.36,2.32S798.19,650,796.88,649.53Z" fill="#6a4533"/><path d="M825.34,673.06c.8-2.41.68-5,3.61-6.6,2.22-1.2,1.14-3.58-.43-5.28-2.4-2.6-3-5.16.16-7.69,1.55-1.23,1.49-3.06,1.4-4.84l1.85,0c-1.28,5.22-.55,10.44,0,15.66-.68,5.55-4,10.26-4.77,15.78-.16,1.12-.69,2.68-2.42,1.32C823.32,678.48,824.84,675.81,825.34,673.06Z" fill="#63310f"/><path d="M839.62,631.13c-.09,4.32-4.8,15-7.67,17.47.89-4.07,3.1-7.69,2.17-12.39C833.53,633.21,836.18,631,839.62,631.13Z" fill="#5e351b"/><path d="M825.32,632a18.3,18.3,0,0,1,1.15-1.45c.8-.81,1.36-2.64,2.83-1.48s.1,2.29-.47,3.35a1.56,1.56,0,0,1-.69.63c-1.5.63.64,4-2,3.26-1.65-.46-.55-2.82-.86-4.3Z" fill="#584745"/><path d="M840.4,631a1.91,1.91,0,0,1-.77.17c-.85-3.59-2-7.18-.08-10.8C841.14,623.75,839.6,627.45,840.4,631Z" fill="#5e351b"/><path d="M977.25,865.72l-.83-2.27c-1.86-2.36-.32-5-.48-7.43-.18-2.91,1.6-5.52-1.42-8.71-2.37-2.5-3-7.2-3.92-10,1.79,3.92,2.38,9.19,3.31,14.36.31,1.71.92,3.53-.7,5a17.44,17.44,0,0,1-5.48-6.54c-3.1-6.23-7.5-11-14.32-13q-1.41-2.46-2.83-4.91c3.78-3,2.89-6.55,1.28-10.27-1.34-3.08-3-6.11-1.23-9.69,1.3-2.56,2.82-4,5.48-1.83a5,5,0,0,0,5.74.55c1.68-.76,3.65-1.07,4.93.28,4.11,4.34,9.57,6.66,14.09,10.36a5.45,5.45,0,0,1,1.75,2.26c.23,1.79,1,3.79-1.68,4.4l-2.26-4.51-.86.34c1.21,8.55,2.08,17.18,3.76,25.63,1.22,6.18-1.15,11.46-2.51,17C978.87,867.56,978.7,867.52,977.25,865.72Z" fill="#a75615"/><path d="M987.73,829.2c1.62,6.95,5,13.55,4,21-.19,1.53,0,3.27-1.75,4.39l-1.48-2.75c-2-1.7.45-4.15-.93-6l-2.94-10.76c-.63-2-1.58-3.94-.2-6A2.6,2.6,0,0,1,987.73,829.2Z" fill="#a75615"/><path d="M984.92,849.11c1.93,1.5,1.15,3.84,1.69,5.76,1.81,5.65,1.65,11.44,1.12,17.25-1.85.89-1.12-1.29-1.89-1.69C983.56,863.41,983.84,856.28,984.92,849.11Z" fill="#a75615"/><path d="M589.14,780.43a28.8,28.8,0,0,1-10.64.21c-3.45-.66-3.61-1.61-1.68-4.07,6,.41,10.31-3.36,13.88-7.37,2.11-2.36,4.1-3.83,7-4.38,5.62-.25,10.8,2.49,16.49,2.39,2.35,0,3.68.09,4.65-2.37,1.21-3,3.82-4.76,6.81-3.64,4.24,1.58,8.27.84,12.41.21a9.26,9.26,0,0,0,3.43,1.49c4.27.44,8.55.75,9.79,6.4.41,1.83,2.76,2,4.16,3,.84,2.45-.79,3.17-2.52,3.61-6.62,1.69-8.17,3.34-9.12,10a5.75,5.75,0,0,1-.84,2.25,2.26,2.26,0,0,1-1.7,1c-5.53-.09-10.66,2.8-16.35,2.09-3.23-.41-5.75-2.37-8.82-3.08-5.14-1.19-10.17,1.49-15.27.11-.9-.24-1.9-.12-2.77-.43s-2-.65-1.85-1.87a1.87,1.87,0,0,1,1.64-1.54,4.82,4.82,0,0,0,2.78-1.72c1.16-1.4.36-2.38-.66-3.27s-1.85-.75-2.36.79c-1,3-2.32,1.21-3.32,0C592.43,778.17,590.8,778.55,589.14,780.43Z" fill="#3c2618"/><path d="M638.46,761.92c-4.15,1.77-8.15,2.54-12.64.49-3.86-1.77-6,1.27-6.69,4.65-.6,3-1.69,3-3.81,1.8-.8-.46-1.88-1.2-2.53-1-5.68,2.05-10-2.75-15.11-3.08,1.58-2.29,4.08,1.15,5.69-1,3.34-1.44,6.56-3.52,10.43-2h.94c1.12.79,2.34,1.51,2.93-.48,1.42-4.78,4.76-5.15,8.65-4,1.72.54,2.28.24,3-1.59,1.81-4.53,4.38-5.52,9.12-4.15,1.2.35,2.29,1,3.64.83,2.84-.4,4.23-1.43,2.07-4.32,0-.32,0-.63,0-1-2.89-1.88-2.16-4.86-1.67-7.37A21.58,21.58,0,0,1,649,727.61c2,3.74,1.32,7.48,0,11.2-.82,2.25-2.36,4.75-.19,6.75s5.53,2.87,7.9,1c5.72-4.42,11.58-1.47,17.32-.94,3.06.28,2.28,2.77,1.16,4.82-2.49,4.59-2.25,5.22,2.59,7.3,2.47,1.06,4.92,2.16,6.48,4.58-1.35,2.42-3.39,1.53-5.25,1.06a73,73,0,0,0-9.48-1.92,5.73,5.73,0,0,1-1.31,0c-1.52-.64-2.51,0-3.67,1.12-1.92,1.84-3.93,1.75-5.44-.77.39-2.11,3.07-4.29-.23-6.28-2.69-1.64-5.13-2.66-8.2-.24C647,758.13,643.42,761.48,638.46,761.92Z" fill="#592d0f"/><path d="M613.8,761.9c-3.58.07-6.71,2.64-10.43,2,.75-2.48,3.75-2.64,4.73-4.88C610.59,758.73,612.15,760.42,613.8,761.9Z" fill="#603211"/><path d="M980,794.11c-.12,1.69-.63,2.79-2.64,2.19a2.17,2.17,0,0,0-2.86,1.74,3,3,0,0,0,1,3.44c3.47,2.68,5.6,6.72,9.38,9.2,2.08,1.37,3.94,3.9,1.71,6.93l-1,.91a13.48,13.48,0,0,0-10.61-5.31,3.78,3.78,0,0,1-2.14-1c-4.53-4-9.48-6.1-15.63-4.85-2.2.45-3.92-1.79-6.42-3.06,1.08,4.78-.58,5.71-4.44,4.64-5.82-1.61-10.92-.43-15.69,3.94-5.14,4.69-9,4-11.46-1,.3-5.3-.11-10.79,4-15a3.26,3.26,0,0,0,.81-3.6c-2.09-5.33-4.48-10.54-9.77-13.24-3.57-1.83-4.77-4.36-5-8.47-.51-11.39-1.44-22.68-8.78-32.31-3.31-4.35-5.26-9.6-3.66-15.55,1.47-5.45-5.84-9.68-9.72-9.51-1.48.06-2.14,1.19-2.66,2.44a6.15,6.15,0,0,1-3.25,3.34c-6.06,2.89-8.8,2.08-11.69-4.25-2-4.39-3.26-9.12-5.67-13.35-1.32-2.32-2.81-4.22-5.32-5.28-1.89-.8-3.64-1.94-5.56-2.69-9.36-3.67-13.31-12.37-17.89-20.47-.71-1.26-.3-2.21,1.25-2.29,1.11-.07,2.18-.38,3.28-.49l1.91,2.9c3.18,3,4.81,7.15,7.57,10.44,1.91,2.28,3.88,3.68,6.67.77,2.42-2.51,5.39-1.62,6.89,1a23.12,23.12,0,0,0,10.87,9.53c2.84,1.33,5,3.82,4.49,7.78-.25,2,.8,4.07,1.38,5.69a36.65,36.65,0,0,1,19.09.82c4.2,1.23,6.39,5.82,6.64,10.45a19,19,0,0,0,4.47,11.48,18.6,18.6,0,0,1,4.35,12.53,22,22,0,0,0,2.14,9.9c1.5,3.12,4.12,5.89,1.66,9.84-.72,1.16.67,2.36,1.55,3.28,3.33,3.44,6.62,6.93,10.05,10.26,1.32-.53.73-3.82,3.2-2.14l1.91,1.94c1.09.38,2.39,1.65,3-.54.76-2.87,2.49-3.44,5-2.53a6.56,6.56,0,0,0,6.66-1.27c2.14-1.75,4.13-1.42,6.57-.5,6,2.27,10.62,5.86,13.67,11.79,1.43,2.79,3.5,5.37,6.94,6.12C978.08,791,979.11,792.51,980,794.11Z" fill="#cc6e20"/><path d="M920.19,811.69c2.19,4.2,5.51,4.46,9.5.41,5.29-5.36,11.27-6.57,18.11-3.88.74.3,1.53.77,2.14,0,.77-1-.17-1.8-.47-2.66-.35-1-1.35-2.2-.17-3s2.29.17,2.94.92c2.51,2.9,5.43,3.18,8.94,2.49a9.49,9.49,0,0,1,9.39,3.33c1.71,1.93,4.21,3.66,6.64,3.26,5-.81,7.07,1.79,8.34,6q1.1,5.34,2.18,10.68l-2.9.09c-1.5-3.07-.13-6.86-2.5-10.27-.23,1.76-.41,3.08-.58,4.39-4.59-3.73-10.62-5.32-14.34-10.39-1.56-2.14-3.65-2.09-5.85-.66-1.61,1-3.26,1.9-5.13.09-.95-.92-2.06-3.6-3.51-1.73-1.12,1.45-3.11,3.34-1.85,6.06s2.21,5.67,3.26,8.54c1.38,3.79.7,6.42-3.75,6.88-2.72.26-3.48-1.58-3.79-3.82-.48-3.47-2.35-5.47-5.73-6-.89-.67-1.79-1.33-2.69-2-2.09-1.52-4.16-2.61-4.17,1.66,0,1.77-.55,2.92-2.59,1.91-1-.49-1.42.38-1.92,1-3.19,3.76-6.4,2.65-10.07.55-5.44-3.11-8.38-8.68-12.72-12.87-3-2.92-1.08-10.33,2.57-12.45C914.67,802.43,917,807.5,920.19,811.69Z" fill="#b16022"/><path d="M996.88,809.73c.11.64.23,1.29.34,1.93-1,6.17-2.4,12.29-2.13,18.61-1.38,1.08-2.07.07-2.76-1-1-5.79-.84-11.65-1.05-17.49,0-.94.43-3.85-1.89-1.11-1.46-1.17-3.33-2.3,0-3.56,1-.38,1-1.46.94-2.43a.59.59,0,0,1,.1-.83Z" fill="#cc6e20"/><path d="M992.33,829.31l2.76,1c.07.62.13,1.23.2,1.85.39,1,.8,1.88,1.23,2.81s1.71,1.3,2.39,2.15c.59,4.21.28,8.4-.09,13.81C995.82,843.15,992,836.91,992.33,829.31Z" fill="#aa5b1d"/><path d="M998.91,837.08c-1.29-.15-2.8.52-3.71-1.05,1-.88,1.86-1.91,2.82-2.83.33-1.65-.09-3.45,1-5Z" fill="#a95d28"/><path d="M670.7,696.48l1.92,0c2.43.43,4.12,2.64,6.62,2.9l1.89,1c4.27,2.66,8.92,3.14,13.85,3.28,4.44.13,8.72,2,13.06,3.2a5.64,5.64,0,0,1-.87,3.35,11.53,11.53,0,0,1-4.4,3.2c-6.12-1.64-12.09-4-18.5-4.36a7,7,0,0,1-4.2-2c-3.08-2.76-6.63-3.25-10.52-2.72-2.5.34-5,.35-6.84-2a1.79,1.79,0,0,1,.42-2C664.23,696.21,668.83,699.12,670.7,696.48Z" fill="#72390b"/><path d="M663.13,700.42v1.91c-2.08,3.7-3,7.07-.64,11.44,1.63,3-.54,6.47-3.43,8.13s-6.36,2.49-9.59,3.6a4.27,4.27,0,0,1,.36-3.64c1.26-3.53,1.79-7.17,4.74-10.19,2.34-2.4,1.39-6.26-1.12-10,4.79,3.78,5.78,2,5.07-2.44,1.64-.21-1.89-3.88,1.74-2.76Z" fill="#592d0f"/><path d="M641.24,789.18l1-1c1.2-1,2.15-2.35,3.68-2.93,7.78,0,12.48-5.18,17.1-10.56a4.3,4.3,0,0,0,.55-.79c2.69-4.95.83-7.12,7.81-2.49,4.32,2.12,8.86,1.81,13.4,1.46,2.2-.17,4.54-.94,5.58,2,.37,1.06.86.88,1.76.7,5.41-1.07,12.66,2.59,15.57,7.72-.31.67-.62,1.33-.94,2a11.5,11.5,0,0,0-8.48-1.36c-4.72.82-9.84,1.84-13.64-3.48-2.15-3-5.55-3-8,.3-1.89,2.55-5.15,3.33-6.42,7.07-1.11,3.24-6.86,2.9-9.75,0-1.63-1.62-2.74-3.06-4.49.06-1.47,2.61-3.72.47-5.51,0s-4.16-1.43-4.93.86c-.87,2.6-4.72,4.93-1.42,8.32a15,15,0,0,1-8.5-.11c.08-2.09-2.43-2.16-2.84-3.87C636.87,794.73,639.32,792.56,641.24,789.18Z" fill="#7d6659"/><path d="M620.48,807.75c.15-2.69,2-2.94,4-2.86,3.81.15,7.29-1.31,10.92-2.15,4.89-1.13,10-1.1,14.43,2.12-3.43,3.33-8.06,2.55-12.07,3.09A52.51,52.51,0,0,1,620.48,807.75Z" fill="#212224"/><path d="M620.48,807.75c9.89.18,19.79.46,29.35-2.89l8.63.06c-13.47,3.05-27.06,4.7-40.87,3.84C618.29,807.63,619.44,807.87,620.48,807.75Z" fill="#4a4c4d"/><path d="M908.13,976.8l1.64,0c0,2.2,0,4.4,0,6.6-.81.62-1.72,1.19-1.79-.49C907.93,980.91,908.08,978.85,908.13,976.8Z" fill="#5d524b"/><path d="M787.38,784.41c.49-1.37,2-2.19,1.89-3.9-.26-.81.3-1.44.82-1.08,2.71,1.87,6.07,1.94,8.86,3.54,2.13,2.78,3.93,5.84,6.74,8a3.9,3.9,0,0,1,.43,1.34,6.83,6.83,0,0,1-.09,1.43c-.86,5.57.86,10.94,1.31,16.4a7.23,7.23,0,0,0,5.59,6.52,8.81,8.81,0,0,1,6.19,6.27c2.35,9.31,6.9,17.67,10.27,26.54.88,2.31.81,4.79,1.38,7.15.49,2,1.54,2.78,3.38,1.37a51.22,51.22,0,0,1,5.46-3.85c3.54-2.06,4.95-1.67,6.64,2.22a59.63,59.63,0,0,0,8.91,14.78c4.29,5.14,7.23,5.55,12.16.93,6.67-6.26,7.33-6,11.18,2.51,2.53,5.6,5.27,11.07,6.16,17.28a7.64,7.64,0,0,0,1.64,3.47c2.24,3,2.88,2.63,4.72-.65a31.25,31.25,0,0,0,3.55-21.47c-.7-4.18.31-8.61-1.28-12.88-1-2.64-2.27-4.39-4.91-5.38-7.06-2.66-8.76-5.77-8-13.84a3,3,0,0,1,.76-1.24c1.68-.47,2.64.79,3.76,1.67,9.56,5.71,12.22,16.32,17.06,25.4-1.39,6.59.42,13.15.22,19.73,0,1.48.17,2.93-1,4.09a40.83,40.83,0,0,0-7.49,13.38c-.78,2.36-2,4.78-4.76,4.79-3,0-3.52-2.75-4.2-5.1-2.35-8.14-6.13-15.38-12.63-20.82-2.21-1.85-4.76-3.35-7.77-2.13-3.46,1.4-6,.52-8.11-2.61a7.68,7.68,0,0,0-3-2.34A9.39,9.39,0,0,1,848,869c-1.2-5-5.27-6-8.92-2.62-6.27,5.8-9.29,5.12-12.21-2.89-.85-2.32-.64-4.84-4.57-4.45-2,.19-3.42-2.66-3.67-5.48-.66-7.62-.1-15.34-2.58-22.81-1-3.14-2.14-5.66-5.16-7-1.62-.73-3.1-1.7-3.49-3.68a22.36,22.36,0,0,0-7.58-12.59c-4.85-4.29-7.88-10.11-12.28-14.75C785,790.05,787.61,787.19,787.38,784.41Z" fill="#4b3222"/><path d="M901.23,890.78c-1.21-5.25.54-10.75-1.48-16-1.1-2.86,1.78-5.41,1.5-8.37,3.26-2.34,7-1.83,10.3-.87,4.59,1.36,9.31,2.49,13.66,4.67,1.13,2,.79,3.73-1.21,5-.42.87-1.24,1.77-1.18,2.61.78,11-9.63,14.33-14,21.77,1.12-3.71,2.4-7.39-3.81-7.07C903.78,892.55,902.49,891.38,901.23,890.78Z" fill="#5f3a2c"/><path d="M824.4,558.82c1.39,1.73.25,4.72,2.77,5.88-.44,4.25,2.34,8.59-.61,12.86-.74,1.08-.12,3.14-.12,4.75a4.25,4.25,0,0,1,1.06,5.25c-.89,2-.85,4.08-1.26,6.13a35.46,35.46,0,0,1-8.85,20.38c-1.2,3.54-1.2,3.54-3.2,2.53-2.34-.16-4.29-.36-6.28,2s-4.86-.45-6.49-1.54-2.67-2.86-5.06-1.75a1.51,1.51,0,0,1-2-.8,2.27,2.27,0,0,1,.78-2.6c1.87-2,3.81-3.9,5.65-5.91.68-.74,2.11-1.46,1.12-2.74-.72-.93-1.73-.24-2.51.34s-1.91,1.55-2.91.45a3.39,3.39,0,0,1-.23-3.69c1.54-3.51,3.23-6.95,4.87-10.41a9.91,9.91,0,0,0,1-2.18c1.12-6.41,3.38-12.93,2.91-19.23s3.08-9.15,6.6-12.16c1.78-1.53,2.61-2.35,1.77-4.57-1-2.69-.17-4.44,2.71-4.91,3.42-.56,2.3,2.17,2.53,3.82C819.23,554.49,822.77,555.93,824.4,558.82Z" fill="#0d0807"/><path d="M825.37,594c-.93-4,2.22-7.65,1.07-11.69,1.08-.2,1.75-.67,1.3-2-.28-.82-.36-1.61.76-1.84,1.67-.35,2.42,1.73,4.3,1.46,3.39-.48.9,2,1.09,3.06,1.08,6.06-2.41,11.61-2,17.62-.44,5.22-4.53,8.82-5.78,13.69-2.61,1.29-2.73-1.13-3.25-2.51s-1.62-3.58.16-4.3c2.82-1.15,2.18-3,1.93-5.08C824.63,599.62,825.12,596.81,825.37,594Z" fill="#676669"/><path d="M811.22,632.86c-1.83,2-2.38,6.68-6.77,2-3.08-3.27-2.53,1.93-3.88,3-4.44-.86-6.61-4.62-9.33-7.69-1.27-2.07-.14-4.89-2-6.78,6.64-.1,12,2.52,15.23,8.55,1.41,2.64,2.76,1.47,5.12,1.24a18.76,18.76,0,0,1-5.45-9.35C807.27,626.22,813.62,625.93,811.22,632.86Z" fill="#4f4540"/><path d="M814.19,616.6c3.06.42,1.08-2.08,1.68-3.09.57-.31,1.37,0,1.79-.39,1.37-1.38,2.68-3.08,4.74-1.33a4.26,4.26,0,0,1,1,5.61,91.16,91.16,0,0,1-6.84,8c-1.11,1.05-3,2.5-4.86.37s-1.3-3.27.92-4.38C814.69,620.39,813.6,618.19,814.19,616.6Z" fill="#6b6460"/><path d="M823.44,617.4c.12-2.16,0-4.37-2.21-5.33-2-.85-1.93,1.25-2.73,2.29-1,1.34-1.63-.88-2.63-.85,5.76-5.16,7.64-12.33,9.5-19.51.31,3.67.83,7.34.81,11,0,.91,2,5.17-2.42,3-.55-.27-.81.39-.6.89.83,1.9.34,4.59,3,5.44Z" fill="#484341"/><path d="M819.64,539.3c0,1.63,0,3.25,0,4.88-1.2-.07-2.56.14-2.76-1.66C816.66,540.42,818.37,540,819.64,539.3Z" fill="#0d0807"/><path d="M823.39,554l-.84-5c1.44.25,4.34-.87,2.17,2.67-.5.81-.22,2.12-.3,3.2Z" fill="#3f3e3e"/><path d="M920.19,811.69c-4.46-2.56-6.26-7.85-10.42-10.72.43-8.38-6.4-13.18-9.37-19.9-2.73-6.19-5.17-12.24-5.48-19.21-.33-7.46-5.3-17.22-13.58-19.19a13.79,13.79,0,0,1-3.1-1.16c-2-1-4.14-1.59-6.18-2.44-2.42-1-4-2.49-4.26-5.27-.3-3.65-2.66-5.26-5.8-5.09-7.14.38-9.56-5.56-13.08-10-.94-1.17-1-3.08-2.71-3.73-1.37.47-.68,1.59-.74,2.45-.19,2.47-1.83,2.49-2.66,1-3-5.62-10.39-8-10.53-15.25-2-1.15-2.63,2.47-4.26.77-1.24-1.28-1-3.05-.7-4.63a23.87,23.87,0,0,0,0-7.73c-.34-3.24-.52-6.69,3.37-8.17,1.78-.67,1.5-1.74.75-3-.61-1.06-1.92-1.83-1.38-3.39,4.75-1.5,3.76-6.59,5.78-9.8,1-.42,1.38.3,1.76,1l2,2.9c-.59,2.63-2.22,2.33-4.28,1.35a30,30,0,0,1,5.37,9c3.55,8.29,11.55,11.07,18.63,14.59,2.72,1.36,4.05,3.18,5.48,5.45,2.85,4.51,3.93,9.79,6.18,14.55,1,2.12,2.81,5.52,4.87,4.41,2.68-1.44,7.84,0,7.8-5.8,0-2.31,2.41-2.25,4-2.1,7.27.68,11.2,6.07,9.94,13.5-.9,5.35,1.71,9.73,4.52,13.43,4.21,5.54,5.1,12.45,8.41,18.27.15.26.3.76.17.93-3.53,4.63.87,9.28-.06,13.88-.65,3.2.86,4.9,3.49,5.94,7,2.78,8.9,9.52,11.64,15.62a2.17,2.17,0,0,1-.6,2.67C919.91,800.53,921,806.43,920.19,811.69Z" fill="#bd6018"/><path d="M825.34,681.85c1.1-6.31,4.62-11.64,6.63-17.58.32,4.54-1.52,8.56-2.85,12.7.32,3.18-1.53,5.9-1.78,9-1.85,5.05-2.37,10.68-6.09,14.92-1.16,1.33-2.32,2.47-3.71.29-.61-.95-1.11-2.19-2.51-1.23a3.28,3.28,0,0,0-1.2,3.88,4.17,4.17,0,0,0,1.7,2.28c4.28,2.88,4.85,6.82,3.37,11.51-2.1,6.67,2.11,11.81,4.32,17.37.75,1.89,2.51,1.16,4.11.54,6.8-2.62,10.15-.93,11.67,6.44,2.13,10.32,4,20.67,7.48,30.64.16.46.26.94.4,1.4a29.19,29.19,0,0,0,4.47,8.55c2.74,3.66,5.4-1.24,8.17-.3,2.44,3.85-.12,5.78-2.66,8-2.83,2.45-4.69,1-6.93-1-5.19-4.53-8.61-10.15-11.26-16.57s-4.73-13.59-11.61-17.14a2,2,0,0,1-1-1c-4.23-12.3-16.56-18.54-21.47-30.44-1.43-3.47-4.52-6.06-3.92-10.51.36-2.62,1-4.36,3.75-4.6s4.21-1.59,3.91-4.77c-.47-5.08,3.95-7.9,5.59-12a6,6,0,0,1,.75-1.18,5.37,5.37,0,0,1,3.63-2.07c4-.07,5.28-2.79,6.11-6.1A2.82,2.82,0,0,1,825.34,681.85Z" fill="#863d0b"/><path d="M826.32,685.74c.35-3.12.84-6.19,2.8-8.77h1c.79,1.8,3.22,2.29,3.49,4.44.2,1.69,1.24,4.18-2.31,3.2-2.33-.64-2.53,1.09-2.62,2.83-.3,5.33,1,10.66-.64,16.11,2-.24,1.92-1.36,2.11-2.26.13-.63.17-1.36,1-1.42s1.39.67,1.67,1.42c.73,2,1.28,4,2.09,5.94.94,2.24,2,4.42,4.7,5,3.16.71,2.43,4.68,5.14,6.71-.31-2.49-2.4-5.65.37-6.2,2.34-.47,4.76,2.32,4.77,5,0,4.07,4.3,3.57,5.31,6.18,1.28,3.34,3.26,3.55,6.58,3.36,3.75-.23,7.68,1.29,7.26,6.76-.2,2.57,1.58,3.17,3.47,3.83s4,1.68,6,2.53a4.18,4.18,0,0,1-2.25,1.41c-1.75.72-3.61,1.19-2.33,4,.84,1.85.85,4.08-1.64,4.7-2.11.53-3.48-1.29-3.66-3-.82-7.39-5.16-10.56-11.6-13.25-4.76-2-9.54-4.55-14.27-6.95-3.33-1.68-7-.34-10.33.49-6.8,1.69-6.73,2-11.21-4-.22-8.07-1.82-16,1.48-24.13C824.37,695.45,827.29,691,826.32,685.74Z" fill="#a94c0c"/><path d="M837.62,668.19l-1.76-1c.35-2.65.54-5.35,1.76-7.8C837.7,662.32,840.8,665.25,837.62,668.19Z" fill="#da7024"/><path d="M924,875.18a8,8,0,0,0,.92-4.91,3.64,3.64,0,0,1-1.72-4.94c3.18-7.91-.8-14.35-3.76-21-.64-1.45-1.65-2.73-2.08-4.31a11.64,11.64,0,0,1,.19-6c.57-1.16,1.37-1.18,2.28-.44a17.26,17.26,0,0,1,3,3.13c2.35,3.28,5.2,4.22,8.8,2.38,2.18.12,3.36,1.76,4.38,3.35,2.08,3.23,3.8,6.68,7.26,8.74a4.32,4.32,0,0,1,1.5,2.91c.79,6.84,1.9,13.8-3.48,19.48a4.53,4.53,0,0,0-1.13,3.58c-3.37,1.59-5.85-.51-8.37-2.22-2.09-1.42-4-2.43-5.85.31Z" fill="#87482a"/><path d="M938.18,924.09v5c-3.89-.68-1.78-4.51-3.56-6-.52-7.54-2.82-14.85-2.93-23.89C935.62,907.93,937.75,915.77,938.18,924.09Z" fill="#7c554c"/><path d="M931.6,839c-2.38,3.64-4.89,3.86-7.7.42-1.77-2.17-3.72-4.2-5.58-6.29-2.66-2.85-4.62-6.38-8.77-7.63-2-.6-2.4-3.22-3.09-5.2-1.27-2.42-3.41-3.69-5.8-4.65-3.33-1.33-4.56-3.89-3.74-7.38,1-4.27,2.1-8.6,5.39-11.7,1.93-1.81,1.68-3.64.85-5.71a46.77,46.77,0,0,0-4.38-8.61c-2.89-4.3-5.46-8.65-6.76-13.77a7.36,7.36,0,0,0-4.36-4.85,3.16,3.16,0,0,1-2.16-3.4c.21-1.66,1.45-1.2,2.52-1.35,2.14-.29,1.3-2,.87-3-2.15-5-4.22-10.25-10.47-11.33-2.28-.39-3.2-1.83-2.8-4.17h2.85c10.34,1.89,15.46,9.22,17.5,18.94.87,4.18,1,8.45,2.16,12.74a49.44,49.44,0,0,0,9.15,17.59c3,3.78,4.15,6.91,2.49,11.26-3.88,2.92-4.18,10-.47,12.45,3.94,2.66,5,8.19,9.62,10.11,2.76,1.16,4.85,4.78,8.77,1.91,1.72-1.26,1.7-2.89,2.47-4.34,2.08-.44,1,2.78,2.87,2.45a2,2,0,0,0,.31-.71c.07-1.71-2.23-3.91.52-5,2.21-.88,4.33.22,5.87,2.06a13.47,13.47,0,0,1,1.33,2.56C933.32,823.76,929,831.3,931.6,839Z" fill="#a3541a"/><path d="M758.93,791.21c-2.78-2.38-5.58-4.72-8.33-7.14s-5.93-2.89-7.82.17c-2.61,4.23-5.56,3.22-8.4,1.41-4-2.58-7.28-3.23-11.9-.45-4.26,2.57-9.37.44-13.81-1.78,6.88-4.41,14-7.39,22.44-5.46,3.64.83,7.11-.72,10.23-2.82A5.75,5.75,0,0,1,745.4,774c4.12,2.69,8.36,5.22,11.4,9.32a6.4,6.4,0,0,0,1.31,1.39c1.06.78,2.52,1.43,3.5,1s.87-2.19,1-3.42c.22-1.72-1.77-4.31.94-5,2.23-.54,2.59,2.35,3.66,3.85s1.31,3.34,3.11,4.1c1.25,1.38,1.48,3.17,1.9,4.89-2.1,2.58-1.75-1.47-3.32-1.11-1.65,2-1.24,4.27.17,6.5C764.18,796.74,763,790.78,758.93,791.21Z" fill="#7d6659"/><path d="M745.66,774.62l-3.8,1c-2.3-.61-2.78-2.6-3.26-4.57-1.19-3.41.75-6.16,1.81-9.1,2.4-3.23,5.94-5.11,8-9.12,2.44-4.87,6.06-5,10.81-2,3,1.91,6,3.57,9.62,3.37a3.12,3.12,0,0,1,2.63.89c3.34,4.59,9.43,6.49,11.4,12.36,1.52,4.51,5.53,7.91,5.5,13.11-1.63.83-2.51-.55-3.63-1.28-2.65-1.72-4.9-2.08-6.68,1.43-.81,1.61-2.31,3.43-4.31.89-1.05-1.34-2.22-.72-3.36-.12a29,29,0,0,0-6.82-6.49c-2.95-1.95-6-3.34-9.6-1.19C751.4,775.23,748.39,774,745.66,774.62Z" fill="#8d5d3a"/><path d="M788.32,780.49c-2.15-4.11-4.23-8.26-6.46-12.33-1.42-2.6-1.68-6.53-6-6.08-2.36-7.24-9.06-6.41-14.34-8.28-1.12-.4-1.94-1.64-3-2.27-5.25-3.06-9.72-.62-10.38,5.69-.08.69-.16,1.62-.68,1.51-3-.65-3.92,3.07-6.51,3.19-1.75,1.53-3.65,2.67-4.36,5.4-.92,3.53-4,4.23-6.88,2.77-4.67-2.41-7.74-.84-10.32,3.22-.79,1.24-1.74,2.45-3.45,1.26-1.51-6.55,1.27-11.05,9.07-14.72a15,15,0,0,0,5.59-4.26c6.19-7.51,15-9.73,23.58-12.31,3.37,1.67,6.61,2.79,10.67,2,2.79-.56,5.81,1.43,7.38,4.38,1.42,2.68,3.21,4.26,6.41,3.73a4.35,4.35,0,0,1,4.75,2.54c3.15,7.32,8.93,12.31,14.25,17.72a27.88,27.88,0,0,1,2.58,6.13c.29,1.39,1.19,3.29-1.38,3.65a23.43,23.43,0,0,1-9.52-2.89Z" fill="#714017"/><path d="M745.66,774.62c1.37-1.57,2.94-2.39,5-1.38,1.14.55,2,0,3.06-.55,5.74-3.13,15.13,1.83,16.63,8.72-.93,1.3-.07,2.6,0,3.9-.27,1.27-.69,2.51-1.82.63-1.61-2.67-3-5.47-4.7-8.57-1.24,2.14-.19,3.44.23,4.65.79,2.27-2.28,3.5-1.19,5.7-1.38-1.74-4.07.2-4.93-1.24C754.86,781.32,749.38,779,745.66,774.62Z" fill="#8a6f5b"/><path d="M774.93,643.86A28.34,28.34,0,0,0,762.71,632c-.06-2.26-1.09-4.51-.06-6.78a14.44,14.44,0,0,0,9.28,5.28,5.58,5.58,0,0,1,3.28,2.46c1.84,2.76,2.72,6.54,7.35,5.5.89-.19,2,.93,2,2.27-.86,1.76-4,1.59-3.58,4.46a2.65,2.65,0,0,1-3,1.81A8.16,8.16,0,0,1,774.93,643.86Z" fill="#ac6429"/><path d="M791.24,630.14c4.13,1.26,5.82,5.65,9.33,7.7a11.3,11.3,0,0,1-4.67,2.1,7.69,7.69,0,0,1-3.52,1.54,3.57,3.57,0,0,1-2.57-.18l-.46-.49-1.83-3C787.09,634.41,788,631.69,791.24,630.14Z" fill="#342922"/><path d="M780.82,644.75c-1.89-.19-1.38-1-.52-2a4.86,4.86,0,0,1,4.3-2l4.75.07,0,0c.93,1.58.05,2.52-1.27,2.85C785.68,644.23,783.37,645.41,780.82,644.75Z" fill="#784d33"/><path d="M932.52,775.59c-1.42.18-2.09.75-1.1,2.21.53.77,1.42,1.66.18,2.39-.91.53-1.81-.16-2.51-.87q-6.2-6.37-12.39-12.75c-.93-1-1.9-2.39-.53-3.32,3.2-2.16,1.4-4,0-6a19.37,19.37,0,0,1-3.42-12.39c.39-5.82-2.21-10-5.45-14a14.57,14.57,0,0,1-3.29-9.32c-.17-7.07-4.49-11.35-11.19-11.38-2.66,0-5.35.25-7.94-.8a5.56,5.56,0,0,0-2.34-.06c-1.91.14-2,3-3.37,3-2.54,0-.77-2.06-1.05-3.21-.37-1.55-1.6-3.1-1.45-4.54.62-5.88-2.84-7.89-7.38-9.48-2.88-1-4.86-3.24-6.2-6.27-2.07-4.69-4.19-4.88-7.65-1.13a3,3,0,0,1-4.62.17c-2.2-2.18-5.29-3.75-5.65-7.45-.26-2.72-5.11-2.65-3.7-6.41.48-4.27,1.28-8.53.46-12.84-.39-2.07.51-2.75,2.33-2.21a9.91,9.91,0,0,1,3.8,1.83c5.5,4.65,10.59,9.52,12.27,17.12.6,2.73,8.86,7.43,11.19,6.67,1.57-.51,1.3-1.7.59-2.69-1.11-1.55-2.63-2.82-2.85-5.12,9.23-3,12.65,5.2,17,10.19,4.71,5.44,8.69,11.46,15.16,14.95,1.82,1,2.84,2,2.26,4.57a6.23,6.23,0,0,0,3,6.62c4.56,2.29,4.6,6.28,4.95,10.4A17.89,17.89,0,0,0,922.48,739c2.88,1.34,3.78,3.05,3,6-.57,2.35-1,4.72-1.51,7.08.26,4.75-1.55,10.13,3.84,13.32C927.13,770,930.76,772.32,932.52,775.59Z" fill="#da7024"/><path d="M980,794.11c-7.08-3.07-11.84-8.39-15.77-15.2-2.29-4-7.91-4-11.88-6.14-.81-.43-1.89.38-2.36,1.27a4.37,4.37,0,0,1-4.53,2c-3.71-.52-6.49-1.53-8.29,3.79-.84,2.48-1.52-1.71-2.7-2.33,2.61-1.48,2-3.08.4-5-1-1.16-3.7-2.09-2.07-4,1.34-1.56,4.91-1.5,5.66-.28,3.36,5.45,8.34,1,9.13-.11,2.83-3.89,3.72-.07,5.34.59.55.23,1.05.56,1.61.86,1.2-2-1-3.07-.67-4.83,2.87,1.27,6,2.2,8.62,4,1.75,1.23,6.69,2,2.38,6.34-1.11,1.11.63,2.82,2.11,3.56,3.11,1.54,5.39,3.44,5.72,7.53.19,2.27,2.16,4.19,4.83,2.14,1.41-1.09,2.52-2.65,4.28-.57s.78,3.43-1,4.72C980.31,792.74,980.21,793.54,980,794.11Z" fill="#da7024"/><path d="M990.41,803.89a1.81,1.81,0,0,0-.1.83c-3.24,1.29-2.53-1.62-2.57-2.92a33,33,0,0,1,2.67-14.21Z" fill="#e07a31"/><path d="M746.58,648.67c2.15-.12,4.2.05,5.72,1.91-.74,1.33.13,2.12.93,2.94-.07,5.17-5.26,7.37-6.49,11.86-2.89-2-5.32.78-8,.8-2.27,0-5-1.72-5.92,2.26-.21.88-1.35.14-1.93-.37-1.41-1.25-2.81-2.52-4.21-3.78,4.21-1.32,8.36-2.79,12.91-2.26,2.87.33,3.44-1.58,2.08-3.63-2.25-3.37-.39-3.84,2.28-4.36C746.91,653.46,748.33,651.82,746.58,648.67Z" fill="#ad5816"/><path d="M707.72,707.21c-7-1.1-13.93-2.29-20.92-3.24a8.36,8.36,0,0,1-5.67-3.55c5.35.9,10.61,2.58,16.14,1.92,3-3,5.79-5,9.89-1.42,2.15,1.89,5.94-.35,8.16,2.42-.13,3.64-3.51,3.6-5.49,5.16A1.74,1.74,0,0,1,707.72,707.21Z" fill="#964712"/><path d="M679.24,699.4c-3.3,1.68-4.76-1.09-6.62-2.9C676.1,694.4,677.26,697.89,679.24,699.4Z" fill="#874d24"/><path d="M740,770.7c-.38,2,1,3.34,1.91,4.87-3.25,4.14-7.7,4.17-12.24,3.75-5.1-.48-10.2-1.91-14.66,2.54-1.45,1.44-4,1.76-6.29,1.56l-1-.08c-3.35-2-6.14-4.9-10-6.29-2.28-.84-3.74-2.55-5.77.69-1.06,1.71-3.06.37-2.78-1.74.24-1.87-.46-2.85-1.84-2.25-3.77,1.64-7.63.13-11.44.61-2.06.25-4.72-1.24-6.83-2.8-1.94-1.43-4.63-3.49-3.76,1.81a2.21,2.21,0,0,1-.43,1.74c-5.58,5-10,12-18.87,11.16-1.17-2.23.34-3.69,1.85-4.16,4.56-1.43,6.24-6.84,11-8,1.22-.3,1.54-2,1.47-3.33-.32-6.22,4-8.09,8.53-9.82h0a1.47,1.47,0,0,1,2.4.46c2.54,4.24,6.73,4.14,10.79,4.63,5.91.72,11.86,1.37,16.66,5.7,2.25,2,5.41,2.42,7.22,5.71,1.17,2.12,5,.22,7.63.41,4-2.55,7.87-4.33,13-3.9C731,774.34,735.55,772.22,740,770.7Z" fill="#79533e"/><path d="M644.16,748.24c1.19,1,4.05,1,3.1,3.3a3.56,3.56,0,0,1-4.74,1.9c-1.85-.73-3.95-.78-5.95-1.13-3.82-.67-6.4,1.34-6.19,5.45.15,2.79-1,2.29-2.43,1.61a9.85,9.85,0,0,0-5.39-1.36c-2.08.23-3.85,1.09-3.59,3.46.2,1.74.18,3-1.66,3.19s-2.43-1.11-2.57-2.75c1.77-1.73.23-2.6-.72-3.95-1.65-2.33-3.35-5.46-1.19-7.85,1.8-2,3.77-5.74,7.74-3.3,1.3.79,2.31,0,3.46-.69a28.46,28.46,0,0,0,6.38-5.76c1.64-1.84,2.93-2,4.66-.08s3.36,3.46.88,5.61c-3.89,3.37-1.57,3.75,1.62,4.4C640.26,750.83,643.29,753.55,644.16,748.24Z" fill="#603211"/><path d="M649.83,721.86v3.92a2,2,0,0,1-1,2c-1.57,4.94-5.7,8.8-5.59,14.5a10.86,10.86,0,0,0,.83,5.06c-5.68-2.71-7.31-6.49-3.19-11.2C644.76,731.72,646.21,726.14,649.83,721.86Z" fill="#603211"/><path d="M796.88,773.62c-5.88-4.25-11.23-8.89-13.81-16.24-.67-1.91-2.39-4-5.24-2.78s-4.5-.26-5.7-2.69c-2.35-4.76-5.67-7-10.93-4.72-3.19,1.41-4.35-2.72-7-2.87.07-4.53-1.09-8.92-1.56-13.39a15.13,15.13,0,0,0-5-9.66,14.26,14.26,0,0,1-5-9c-.88-6.22-5.39-9-11.23-9.66-.38-6.06-.24-6.13,5.23-5.85a10.57,10.57,0,0,0,5.1-.8,11.23,11.23,0,0,1,8.72-.6c2.87.94,3.19-.3,2.77-2.88-.37-2.27-2-5,.19-6.85,2.5-2,4.2,1,6.12,2.11.84.49,1.8,1.09,2.6.27,3.29-3.41,7.51-2.5,11.47-2.77,1.21-.09,2.88.42,3.14-1.26s-1.44-2.32-2.55-2.34c-5.92-.11-9.18-4.43-12.83-8.18-.79-.81-1.78-1.71-1.53-2.86.31-1.5,1.87-1.49,3-1.86,2.43-.77,5,.67,7.4-.58,3.71.44,7.44.71,11.11,1.4,2.19.42,2.88-.45,3.07-2.38,2.12-.68,3.93.43,3.75,2.3-.21,2.22-.93,4.93-3.84,5.49a12.11,12.11,0,0,1-7.82-1.28c-2.3-1.13-4.65-2-7.57-.29a19,19,0,0,0,8.59,5c5.78,1.55,10.55,5.15,15.91,7.52,1.77.79,3.5,2.18,2.62,4.51s-2.89,2.14-4.83,1.36c-2.25-.91-4.58-.79-7.15-.91.08,3.91,3,4.5,5.29,5.66a26.42,26.42,0,0,0,5.37,1.91c2.15.53,3.28,0,3-2.68-.4-3.63,2.39-6.33,5.67-4.75,4,1.93,7.62.74,11.43.56.19,1.78-.8,3-1.74,4.33-2.12,3.08-5,5.81-3.32,10.48.74,2-1.38,3.29-3.46,3.72-1.56.32-4.61-.79-4.34,1.32.34,2.74-1.93,5.93.85,8.25,2.45,2,3.58,4.85,4.73,7.7a19.07,19.07,0,0,0,6.79,8.5c4.91,3.54,7.75,8.9,10.4,14.27a12.66,12.66,0,0,0,5.2,6c6,3.43,7.38,10.32,9.68,16.15a47.24,47.24,0,0,0,12.74,17.76c1.34,1.23,6.37-1.83,6.93-4.26a16.69,16.69,0,0,0,.1-3.4,1.76,1.76,0,0,1-.29-2c1.76-1.72,4.28-1.78,6.31-3.09,1.79-1.16,3.79.32,5,1.78,3.85,4.62,8.52,8.65,9.44,15.34a15.16,15.16,0,0,0,5.67,9.83,15.7,15.7,0,0,1,5.8,10.29c-1.36,4.41-5.81,6.66-7.27,11a1.86,1.86,0,0,1-1.83-1.25c-4-8.07-9.11-15.56-11.69-24.39-1.35-4.63-3-9.25-8.16-11.73-.45,2.48-1,4.77-2.62,6.63-4,4.46-5.49,4.92-10.53,1.69-2.83-1.81-4.59-1.37-6.16,1.47a14.49,14.49,0,0,1-3.09,3.66c-1.78,1.6-3.6,3.56-6.23,2.48s-3.62-3.54-3.85-6.25c-.84-9.47-4.78-17.93-8.08-26.6a13.65,13.65,0,0,0-1.88-3.38c-2.6-3.43-4.88-3.36-7.41.22A14.12,14.12,0,0,1,796.88,773.62Z" fill="#713209"/><path d="M770.33,668.2c-3,1.66-6.57,1.2-10.45,2.51,5.29,3.24,7.23,10.15,14.47,9.57,1.94-.15,4.88,1.73,4.52,4.07s-3.22,2.14-5.5,2.41c-3.55.42-7.87-2-10.48,3.22-.84,1.68-3.29-.56-4.77-1.67-1.21-.91-2.06-3.06-3.84-2.21-2.18,1.06,0,2.82-.12,4.27a1.61,1.61,0,0,0,0,.49c1.11,6.81.91,7.43-5.31,5.32-4.12-1.4-6.57,2.18-10.26,1.81a12.66,12.66,0,0,1-5.45-1.43c-.62,2-.48,4.18-1.76,5.77a1.94,1.94,0,0,1-1.89.53,3.54,3.54,0,0,1-2.43-2.34c-.64-4.2-3.26-5.34-7.06-5.21-5,.17-5.79-.95-4.81-5.93.65-3.26.77-6.71,2.93-9.48H720c5.51-.07,6.29.6,6.84,5.93.49,4.72,6,9.1,10.44,8.35,2.14-.35,3.94-1.34,4.65-3.59.65-2.07-.59-3.32-2.14-4.37-2.71-1.83-2.55-4.74-2.21-7.43s2.94-2.42,4.83-3c2.35-.67,5.08-.69,6-3.73-.75-1.73-3.32-3.37-.69-5.36,3.14-2.39,6.46-5.25,10.6-2.16A19.57,19.57,0,0,0,770.33,668.2Z" fill="#8c3f0a"/><path d="M814.92,691.62c-3.42,1.91-6.72,4.12-10.56.62-1.7-1.54-3.74.06-5.34.65-2,.76.05,2,.35,3.05.89,3.09-.57,5-3.55,4.21a51.61,51.61,0,0,1-11.37-4.65c-2.71-1.48-.33-4.64-2.56-6.41,3.56,1.49,7.33-.34,10.42,2a2,2,0,0,0,2.94-.47c1-1.5-.11-2.59-1.17-3.15-4.44-2.35-9-4.55-13.47-6.74-2.25-1.1-4.85-1.08-7-2.7-2-1.49-4.38-2.41-6.79-3.68,2.23-4.19,5.48-3.82,8.86-2.37a28.77,28.77,0,0,0,7.12,2.22c3.62.54,3.3-2.84,4.38-4.27,1.3-1.73-1.69-1.77-2.66-2.7-3.24-1.79-4.64-6.65-9.38-5.93-2-3-1.39-5,2.57-8.27a2.43,2.43,0,0,1,2.1.37c1.26.31,2.78-.3,3.72,1.12-1,.13-2.89,0-2.5,1.36.64,2.3-1.21,5.48,1.83,6.92,10.73,5.09,17.59,15.19,27,22.06,3.73,2.72,4.15.52,4.7-1.7.71-2.9,1.36-4.42,4.93-4.07s4.16-3.7,5.86-6v8.79l0,1c-5.06.94-7.31,5.4-10.4,8.8Z" fill="#5d2b09"/><path d="M748.49,672.09c1,6.19-4.75,3.53-7,5.43-.52.44-3.09-.52-2.86,1,.33,2.18-1.27,5.51,1.41,6.48,4.11,1.49,4.37,4.34,2.89,7.33-1.55,3.15-7.77,4.41-10.5,2.48-1.91-1.34-3.36-3.26-6-3.52-1.14-.11-1.37-1.17-1.1-2.62,1.19-6.49.81-7-5.29-8.76.76-1.09,1.88-1,3-.93,4.69.39,5.58-.81,4.18-5.7-.37-1.29-1.73-2.53-.18-3.9.47-.42,1-.87,1.65-.42,1.49,1,1.73,2.46,1.84,4.17.33,5.15,2.64,6.61,6.41,3.41C740.45,673.51,745.27,675.2,748.49,672.09Z" fill="#964712"/><path d="M718.14,679.9c-.59,3.25-1.08,6.53-1.81,9.74-1.07,4.65-.74,5.12,3.75,4.39,5-.8,7.45,1.3,7.53,6.38-3.47,2.56-7.36,2.6-11.35,2a9,9,0,0,0-3.61-3.73c-8.06-4.47-8.6-10.15-1-16C713.28,681.3,714.72,677.38,718.14,679.9Z" fill="#964712"/><path d="M777.93,653.53c-1.65,2.32-3.74,4.46-2.8,7.76a5.5,5.5,0,0,1-5.46-2.06c-1.15-1.39-1.52-2.81.35-3.44,4.78-1.6,1.94-5.72.81-6.11-3.53-1.23-2.57-3.52-2.41-5.84,2.17-.78,4.33,4,6.52,0,1.35.55,2.89.9,3,2.86a2.06,2.06,0,0,1-.2,1.85C776.82,650.27,777.43,651.9,777.93,653.53Z" fill="#904c19"/><path d="M716.26,702.37l11.35-2,1.94,1.91c-1.72,2-4.51,2.74-5.72,5.35-.25.52.07.4-.31.26-4.73-1.82-8.66,2.48-13.2,1.74a1,1,0,0,1-.72-1.47c1.08-2.65,4.61-2.25,5.72-4.86C715.63,703,715.94,702.69,716.26,702.37Z" fill="#713209"/><path d="M753.23,653.52c-1.18-.07-2.78.29-3.1-1.24s1.13-1.53,2.17-1.7C754.72,650.85,753.82,652.24,753.23,653.52Z" fill="#cc6422"/><path d="M777,647.67c.32-.32.64-.64,1-.95l2.88-2c2-1.17,4-2.31,6.42-2.07,1.28.13,2-.54,2.08-1.89l2.64.08c-.89,3.07,1.92,2,3,2.84-3.48,3.79-8,5.15-12.83,5.42-1.8.1-2.08,1-2.33,2.31C777,651.65,776.72,651.29,777,647.67Z" fill="#ca7b49"/><path d="M795,643.71l-4.22,1.38c-1.32-2.11.51-3,1.21-4.23,1-1.54,2.6-.79,3.95-.92C796.46,641.43,796.35,642.74,795,643.71Z" fill="#ca7b49"/><path d="M777,647.67c.39,1.7.52,3.61,2.84,3.77v1.95l-1.87.14C774.83,652.06,775.67,649.91,777,647.67Z" fill="#a64b0f"/><path d="M802.36,639.15c1,.13,1.81.56,1.83,1.69a1.59,1.59,0,0,1-1.73,1.74,1.63,1.63,0,0,1-1.62-1.41C800.66,640.09,801.33,639.44,802.36,639.15Z" fill="#a16945"/><path d="M638.46,761.92c4.08-2.88,8.72-4.84,12.44-8.35,2.4-2.26,7.92-1,10.33,2.07s0,4.59-1.92,6.26c-2.12,1.57-4.55,2.87-2.7,6.4a3.62,3.62,0,0,1-1.09,4.35c-2.37.23-4.91-.22-5.44-2.71-1.34-6.31-6-5.78-10.31-5.69C637.43,764.29,638,763.25,638.46,761.92Z" fill="#401f09"/><path d="M655.52,772.65c0-2.14.28-4.07-.68-6.38-1.7-4,2-3.91,4.47-4.37,2,.92,3.77,2,5.12-1.28s2.92-.17,4.39.34c-1.53,1.12-3.11,2.18-4.57,3.38-1.87,1.54-3.29,3-2.83,6.11.38,2.49-.85,4.1-3.79,5.84-4.16,2.46-8.67,5.54-11.63,10-1.26.62-2,2.24-3.76,1.93,1.66-2.43-1.06-5.58,1.62-8.09s4.29-7,9.44-5.21C654.16,775.2,655,773.71,655.52,772.65Z" fill="#58361d"/><path d="M648.89,727.73a2.07,2.07,0,0,1,1-2c1.2-2.18,2-3.94,5.46-3.69,5.06.36,7.63-5.45,5-10.08-2-3.47-.93-7,2.82-9.68,4,2.23,8.29-.31,12.42.9,1.55.46,3,.75,4.13,2,2.08,2.23,4.87,2.23,7.56,3,5.24,1.51,11.17,1,15.73,4.87,3.55-2.32,6.43-1.63,8.86,1.91a15.5,15.5,0,0,0,4,3.45c1.69,1.21,3.1,1.54,5.09.08,3.22-2.36,6.22-1.35,7.31,2.6A31.74,31.74,0,0,0,735,733.21c1.15,1.38,2.35,2.88,1.08,4.77s-3,3.12-5.24,2.6c-7.64-1.76-15.61-1.9-22.88-5.49-3.51-1.73-7.47-.86-11.13-.24-2.27.4-3.43,2.48-3.24,5.22.34,5-.17,5.46-5.16,5.19-1.22-.06-2.54-.48-3.54,1.2,2.2,2.64,5.18,4.53,7.42,7.21,4.09,4.9,3.78,7-1.71,10-2.33.72-4.71,1.86-6.65-.79-2.86-1.53-5.36-3.58-8.59-4.59-4.34-1.35-4.79-4.49-1.64-7.89.87-.94,2.09-1.86,1.33-3.28s-2-.19-3-.28a32.82,32.82,0,0,1-5.48-1.16,8.74,8.74,0,0,0-8.43,1.63,5.19,5.19,0,0,1-5.1,1.35c-7.75-1.87-8.56-3.26-5-10.88C649.63,734.5,648.54,731.07,648.89,727.73Z" fill="#401f09"/><path d="M684,762.88c2.22,1.19,4.44.09,6.66,0,2.57-1.38,5-1.67,7.41.52,1.28,1.18,3.13,1.81,4.22.26,3.06-4.38,7.72-4,12-4.62,2.78-.43,5.58-1.14,8.46-.82,1.27.59,3.09.53,3,2.72-7.18,3-9.38,6.18-9.46,13.65-.6,1.83-1.08,3.74-2.84,4.87-1.86-.62-3.72.06-5.56,0s-4.93,1-4.14-3.11a1.44,1.44,0,0,0-.5-1.23c-7.29-2.69-13.35-8.72-22.09-7.66-5,.6-9.24-2.22-12.31-6.48,3.23-1.5,6.21.41,9.2,1A26.15,26.15,0,0,0,684,762.88Z" fill="#58361d"/><path d="M722.88,759c-5,.66-9.93,1.41-14.91,1.93-1.88.19-2.6,1.43-3.59,2.73-2.09,2.75-4.49,4.29-7.21.63-1.78-2.4-4.22-1.52-6.52-1.39,4.69-3.47,4.77-4.27.47-8.72a34.12,34.12,0,0,0-5.58-5.22c-1.16-.76-3.57-1.29-2.84-3.21s3.09-1.88,4.92-2.19c.41-.07.89.27,1.32.45,3.61,1.51,4.83.25,3.61-3.45-1-3,.41-5.61,2.59-6.51,4.11-1.69,9.13-2.29,12.88-.22,5.64,3.11,11.84,2.63,17.54,4.65.57.2,1.29-.11,1.88.06,2.82.84,6.16,2.36,7.89-1s-2.7-4.07-3.78-6.41c-1.46-3.15-4.16-5.62-4.26-9.52,0-1.68-1.5-2.82-3.13-3.29s-2.65.45-3.16,2.06c-.7,2.17-2.1,1.51-3.39.76a20.76,20.76,0,0,1-4.34-2.89c-2.91-2.91-5.41-6.49-10.3-5.08.82-1.58,1.87-2.83,3.77-3a2.19,2.19,0,0,1,2.15-.72c6.19,2.24,12.73.79,19,1.94,4,.72,6.62,3.33,6.15,7-1,7.82.72,11.35,7.42,15.22a43.56,43.56,0,0,1,4.6,2.5c4,3,3.78,6.32-.77,8.3-4.13,1.8-8.26,2.74-12.84,1.11-3.81-1.36-7.91.14-12-.48,2.16,3.8,8,4.62,6.83,10.27A4.36,4.36,0,0,1,722.88,759Z" fill="#512e0a"/><path d="M722.88,759c5.23-4.38,5-6.86-1-10.28-1.64-1-4.68-1.34-3.44-4.2,1-2.31,3.59-.57,5.32-.89,6.86-1.25,13.65,4.11,20.52-.08,1.45-.88,3.63-1,3.76-3s-1.69-3.15-3.22-3.83c-3.5-1.57-6.81-3.29-9.42-6.26-3-3.39-5.47-6.62-2.68-11.61,1.46-2.61-1.28-6.12-4.37-6.4-6.76-.64-13.71.63-20.24-2.23a3.89,3.89,0,0,0-1.41-.05c0-1.07-.13-2.23,1-2.93l1.88,1a3.79,3.79,0,0,0,5.66-.7c1.85-2.55,3.25-2.32,5.3-.56,1,.83,2.78,1.33,3-.43.55-3.91,3.64-3.32,6-4.19h1.85c8.93.06,12,3,12.65,12.38.17,2.23,1.92,3.42,3.34,4.44,7.71,5.53,5.87,14.78,8.35,22.31.23.69-1,1.9-1.54,2.86-4.65,1.3-9,3.83-13.44,5.17-6.67,2-9.09,9-15,11.44Z" fill="#622a09"/><path d="M881.3,840c.09,4.28-1,8.93,3.48,11.86.4.25.69.92,1.05.93,7,.35,8.61,5.69,9.88,11.33.14.62.8,1.31.64,1.76-2.13,6.28.92,12.52.1,18.76-.71,5.37-4.9,9.32-5.82,14.67-.25,1.39-1.48.89-2.2.16-2.33-2.37-4.95-4.45-5.27-8.31-.65-7.81-5.14-14.15-8.17-21-1.69-3.84-3.89-1-4.88.61-1.82,3-4.65,4.22-7.45,5.66-1.53.79-3.32,1.14-4.44-.12a119.07,119.07,0,0,1-9.86-12.21,49.5,49.5,0,0,1-2.18-4.7c-3.12-6.17-3.11-6.18-8.86-2.17-7.25,5-7,5-8.34-4.11-.61-4-1.61-8.13-4.36-11.58s-3.58-8.15-4.8-12.36c-1.62-5.62-2.75-10.69-9.66-12-2.93-.56-4.37-4.82-4.37-7.51,0-4.42-1.26-8.59-1.31-12.92,0-1.27-.28-2.64.93-3.59,2.15,2.55,4.07,5.24,7.33,6.65,2.82,1.22,3.67,4.34,4.77,7,1.34,3.29,2.94,6.63,3.72,10,1.92,8.28,8.44,14,10.58,22.15.85,3.24,4.14,4.78,7.45,5.12,1.57.16,3.16-.05,4.57.9,3.11,2,4.7,5,5.56,8.66s2.61,6.57,6.12,8.13c2.28,1,4,.68,4.82-2a22.83,22.83,0,0,0,.88-2.77c1-5,2.89-9.21,7.95-11.06C872.26,841.94,877.47,842.48,881.3,840Z" fill="#492c1c"/><path d="M884.15,825.36c-.71-5.49,4.84-6.88,6.65-10.72,3.54-.09,5,2.91,6.77,5.17,2.22,2.86,4.52,5.31,8.16,6a3.22,3.22,0,0,1,2.1,1c3.09,4.74,7.51,8.33,10.47,13.16,3.87,4.89,5.33,11,7.37,16.68a8.08,8.08,0,0,1-.66,6.63,6.75,6.75,0,0,0-.09,6.95c-2.92,1-5.89-.43-8-1.54-5.14-2.71-10.36-2.3-15.67-2.33-2.83-1.91-3.74-5.2-4.74-8.09a27.09,27.09,0,0,0-10.94-14.49,7.26,7.26,0,0,1-1.42-1.88C881.82,836.42,882.8,830.89,884.15,825.36Z" fill="#703819"/><path d="M843.36,845.87c-3.34-1.21-7.42.29-10.21-3-.5-.58-1.69-.89-1.76-1.43-1-8.17-8-13.28-10-21-1.54-5.85-4.46-11.32-6.68-17-.85-2.18-2.8-2.91-4.52-3.82-2.67-1.4-4.77-3.05-4.78-6.44,0-.33,0-.65,0-1,1.9-4,5-3.64,8-1.9,4.07,2.41,7.23,5.8,8.18,10.82A46.57,46.57,0,0,0,824,809c1.62,4.31,5.3,7.28,8.9,6.85,3.95-.47,8.64-2.15,10.77-6.84.46-1,.74-2.15,1.2-3.18,1.64-3.68,3.16-4.32,6.06-1.7s4.7,1.71,6.6-.91a13.81,13.81,0,0,1,1.55-1.85c1.16-1.12,2.35-2.34,4.14-1.61s2.13,2.33,2.2,4A49.08,49.08,0,0,0,870,821.54c1.47,3.34,3.22,6.23,7.28,6.88,2.75.44,4.12,2.77,5,5.38.38,2.18.73,4.35-.92,6.2v0c-1.76,2.35-3.8,4.27-7,3.86-2.35-.3-3.1,1.72-4.41,2.94-1.8-2.11-1.73-4.86-1.94-7.34-.54-6.41-2.89-12.23-5-18.13-.91-2.5-2.3-4.22-5.22-3.83a7.12,7.12,0,0,1-3.66-.7c-4.28-1.68-5.35-1-5.62,3.57a29.48,29.48,0,0,0,0,6.3C849.64,834,846,839.76,843.36,845.87Z" fill="#4e280e"/><path d="M881.31,840v-6.82c-1.28-2.78-2.42-5.61-3.48-8.48-1-2.67-1.52-5.9-5.63-5.08-1,.19-1.73-.81-2.11-1.71-2.07-4.87-5.25-9.36-4.91-15.07a5.77,5.77,0,0,0-.14-1.94c-.47-1.64-.12-4-2.25-4.42s-2.85,1.65-3.81,3.11c-3.33,5-4.46,5.42-9.56,2.34-1.9-1.14-3.12-.88-4.58.52a21,21,0,0,0-3.7,5c-1.62,2.83-3.85,4.67-7.32,4.39-3.63-.29-5.41-2.94-6.14-5.92-1.67-6.76-3.75-13.42-4.8-20.32-.52-3.35-1.42-6.34-4.38-8.22-1.25-.79-2.61-1.37-4-.34s-.8,2.3-.67,3.59c.19,2,1.91,4.52-.39,5.76s-3.07-2.1-5-3.24c-1.58,2.45.17,6.34-3.05,8-3.91-1.07-5.36-4.34-6.64-7.78,2-2.15,0-4-.65-5.74-.47-1.33-1.4-2.49-1.26-4,4.15-.84,8.55-.67,12.26-3.33a7.45,7.45,0,0,0,2.54-2.75c2.45-4.9,6.64-5.2,9.43-.38a63.69,63.69,0,0,1,6.3,15.59c1.51,5.65,3.69,11,4.27,17,.41,4.37,3.45,4.88,6.77,1.79,1.62-1.5,3.43-2.93,4.25-5.14,1.47-4,3.87-3.79,6.55-1.47,1.86,1.6,4.41,3.8,6.09,2.31,2.42-2.13,6.8-3.71,5.34-8.65a2.12,2.12,0,0,1,1.18-2.82c1.1-.45,1.54.66,2.27,1.23,4.65,3.59,6.66,8.77,8.26,14.2,2.57,8.75,8,16,11.76,24.14,1.19,5.53-.46,11.06,0,16.58Z" fill="#602d0b"/><path d="M805.43,791.18a14.67,14.67,0,0,0,1.12-7.52c-.09-1.11-.54-2.43.87-2.91s2.17.76,2.86,1.9,1,3.17,3.5,3.35c-.54-2.25-1.07-4.21-1.46-6.21-.28-1.38-.86-3.1.76-3.91,1.45-.73,2.91-1.67,4.86-.6a11.62,11.62,0,0,1,6.27,9.66c.59,7.1,3.28,13.68,4.52,20.62.43,2.4,1.82,5.09,5.34,5.24s5.16-2,6.39-4.65c.78-1.68,2-2.77,3.09-4.14,2.49-3.27,4.32-3.91,7.38-.38,2.12,2.46,4.92,1.64,6.49-1.54.21-.43.15-1,.43-1.37,1.59-1.88,2.73-5.12,5.67-4.18,2.5.79,2.88,3.75,2.57,6.23-.8,6.47,3.2,11.37,5,17,.26.82,1,1.57,1.77,1,3.79-2.86,4.27.83,5.12,2.9,1.5,3.7,3.17,7.41,3.34,11.55-1.67-2.16-3.19-4.46-6.46-4-1.63.25-2.45-1-3.27-2.31a46.75,46.75,0,0,1-7.34-22.71c-.08-1.44.2-3.19-1.47-3.74s-2.45,1.15-3.36,2.17-1.61,2.41-2.57,3.45c-1.94,2.09-3.76,2.5-5.89-.12-3-3.73-3.81-3.51-5.29,1.1-1.23,3.84-2.61,7.58-7.28,7.71-2.72.07-2.94,4.71-6.66,3.05-6.49-2.89-10.17-7.88-11-14.81-.54-4.65-3-7.68-6-10.53s-6.09-3.13-9.27-.3Z" fill="#5e2c0a"/><path d="M859.49,780.45c0,.66,0,1.31,0,2-7.12,4.75-7.41,4.9-11.25-2.83-4.6-9.24-7.07-19.25-8.69-29.48-.53-3.35-1.27-6.67-2.11-9.94-1.18-4.57-6-6.62-9.54-3.53s-5.29,1.24-6.35-1.74c-2.29-6.45-6.85-12.53-3.28-20.14,1.65-3.51-.6-5.86-3.41-7.52-2.39-1.42-3.32-3.41-2.54-6.12a4.45,4.45,0,0,1,4.53-3.56c3.14,0,.71,2.93,2,4.23,4.94-4.18,5-10.75,7.48-16a3.48,3.48,0,0,1,.8,4c-2,4-1.88,8.78-3.69,12.6-2,4.34-2.6,8.49-1.24,12.62,1,3.12-1.66,6,.31,8.83,2.3,6.09,3.12,6.5,9,4.47,5.61-2,8.68-.94,11.41,4.26,2.12,4,3.83,8.19,9,9.1,1.6.29,2,2,1.88,3.53-.19,2.74.07,5.51-.75,8.2a23.35,23.35,0,0,0-.2,13.78c2.1,7.2,1.75,7.31,8.83,6.05,2.89.93,2.7,2.6,1,4.54C861.66,778.79,859.94,778.86,859.49,780.45Z" fill="#963e0d"/><path d="M814.91,691.61c2.88-7,5.65-9.35,10.4-8.8-.59,3.93-1.23,7.66-6.59,7.09C817.52,689.78,816.18,691,814.91,691.61Z" fill="#63310f"/><path d="M862.34,773.62c-6.19,3.86-8.49,1.85-10.73-4.85-2.68-8,.91-15.11.94-22.63,0-2.36.21-3.61-2.53-3.84-3.55-.28-5.37-2.75-6.66-6-3.2-8.17-5.22-9-13.19-6.16-4.79,1.72-7.2-.25-7.67-6.26,2.42,3.61,4.58,5.27,9.56,2.92,4.79-2.26,10.17-1.75,15.8,1.46,4.39,2.5,8.71,6,14,7.08,3.66.74,6,2.53,6.53,7,.28,2.57.35,8.15,3.66,7,3.62-1.2-.76-5-.84-7.78a4,4,0,0,1,.22-.72c1.29-.26,3.07,1.74,4.2-.44,1,4.05,5.07,3,7.53,4.7,2.85,1.94,8.36,10.92,7.58,14.34-1,4.45-3-.54-4.44.43a2.24,2.24,0,0,0,2.31,2.91,3.45,3.45,0,0,1,3.12,2.59c2.82,9.48,9.4,17,12.92,26.06.92,2.38,1.56,4-1.6,6.21-3.88,2.69-4.64,8.2-5.32,13a3.6,3.6,0,0,0,2.94,3.89c3.14.57,5.12,2.83,7.19,5-7.89,1.3-10.68-.25-13.48-7.45a81,81,0,0,1-3-9.23c-.37-1.4-.76-3.67.85-3.78,5.82-.41,3.72-4.25,3.4-7.38-1.27-8-6.74-13.75-10.41-20.46-.61-1.12-1.6-2-2.32-3.06-3.54-5.23-5.67-5.59-10.16-1.48-2.08,1.9-4.11,3.45-7.1,3.08-1.83-.23-2.43,1.1-2.58,2.73A2.51,2.51,0,0,1,862.34,773.62Z" fill="#9d4b0d"/><path d="M835.05,716.31a6.13,6.13,0,0,1,4.55,4.32C836.7,720.34,836.76,718.33,835.05,716.31Z" fill="#bd6018"/><path d="M896.48,791.19a10.14,10.14,0,0,1,1,4.68c.24,4.2-.93,6.14-5.75,3.21,1.26,6.54,3.51,11.95,5.75,17.36.46,1.11,1.7,2,2.64,1.72,2.87-.83,5.15,1,7.74,1.35.21,3.14,1,5.37,4.69,6.12s4.91,4.15,5.78,7.54c0,2.28,0,4.56,0,6.84-3.93-3.34-8.13-6.43-10-11.62,0-.13-.21-.32-.33-.32-8.55-.64-11.07-9.43-17.12-13.43a26.57,26.57,0,0,0-8.46-11.9c-2.6-2.16-3.25-5.8-3.83-9.11-1.17-6.67-6.1-10.52-10.26-14.94-.67-.7-2.51-1.62-2.88-.5-1.17,3.52-4,1.39-5.88,2.26-1.73-1.71-.85-2.15,1-2.6,2.15-.52,3.3-1.86,1.85-4.23,0-.32,0-.64,0-1a3.3,3.3,0,0,1,4.14-1.38c3.3,1.43,4.85-.43,6.39-3,2.43-4.09,3.63-4.22,6.68-.9a23.57,23.57,0,0,0,4.36,3.62c4,2.67,4.25,3.91,1.62,8.46C891.34,781.23,895.45,784.77,896.48,791.19Z" fill="#85410d"/><path d="M713.43,779.45c1-1.57.64-4,2.84-4.87,2.54-1.09,3.36-3.91,5.24-5.72,2.1-2,3.45-1.9,5.7-.9,6,2.66,5.91,2.51,8.44-3.54.87-2.11,3.11-2.52,5.25-2.5,1.18,3.09-3.43,5.53-.95,8.78-3.93,4.61-9.66,4.61-14.62,4.55-4.24-.06-7.41.4-10.17,3.63C714.81,779.28,714,779.27,713.43,779.45Z" fill="#7a5034"/><path d="M753,714c-.39,1.49-1.24,2.08-2.47,1.88a2,2,0,0,1-1.88-2.32,1.87,1.87,0,0,1,2.33-1.73C752.14,712,752.69,713,753,714Z" fill="#622a09"/><path d="M697.8,718.39c-7.45.89-12.52,4.27-17.62,7.79-5.8,4-12.44,4.51-19,2.81-4-1-4.15-4.16-1.09-7.44,1.44-1.55,3.83-2,4.15-4.94.26-2.31,1-4.26-1.12-6.13-1-.85-2.19-2.28-1.19-3.78.83-1.24,2.39-1.48,3.87-1.42.63,0,1.38-.14,1.87.15,7,4,15,4.86,22.23,7.85C692.41,714.31,694.57,716.26,697.8,718.39Z" fill="#180d07"/><path d="M843.36,845.87c.22-3.39.52-6.69,2.89-9.43,1.44-1.68,1.19-3.78,1-6-.28-3.87-.06-7.77-.12-11.65,0-1.91.36-3.39,2.21-4.39a3.31,3.31,0,0,1,4.61.82,3.19,3.19,0,0,0,3.84,1.07c3.26-1.56,4.76.4,5.8,3,3.55,8.81,6.3,17.85,6.32,27.53-5.87,2-6.69,7.42-8.13,12.59-1.29,4.65-3.93,5.44-8.09,3a11.68,11.68,0,0,1-5.44-8.17A12.9,12.9,0,0,0,843.36,845.87Z" fill="#431f0a"/><path d="M896.48,791.19c-1.91-5.8-5.92-9.18-11.58-10.66-.91-.24-2-.41-2-1.61,0-.43.72-1.07,1.23-1.24,5-1.63,2.05-4,.08-5.13-2.51-1.45-4.78-2.85-6.27-5.49-.68-1.21-2.36-1.94-3-.31-2,5.15-4.65,8.15-10.41,5.36-.54-.26-1.48.34-2.23.55-1.4-2.85-.09-5.13,2.48-4.3,3.6,1.16,5.23-1,7.3-2.75,5.55-4.7,7.28-4,11.67,1.78,3.82,5,6.38,10.69,10,15.75C895.44,785.49,896.84,788.06,896.48,791.19Z" fill="#963e0d"/><path d="M661.68,720.47c1.69-1.59.44-4.19,1.91-5.85,1.1-1.74-.23-3-.85-4.36s-1.38-2.91-.11-4.43l3.78,0c2.16-.35,3.86.71,5.53,1.88,5.23,2,11.06,2.34,15.71,6,1,1.38,2.5,2.45,2.8,4.32-.14,1-.94,1.38-1.67,1.82a5.45,5.45,0,0,1-1.18.46,8.61,8.61,0,0,1-3.78-.06,6.4,6.4,0,0,1-1.19-.47,24.94,24.94,0,0,1-2.71-1.83c-.18,2.37,1.22,4.53.18,6.63a2.81,2.81,0,0,1-1.55,1.27c-3.58-.39-3.43-3.29-3.35-5.76s0-4.47-1.7-6.19a15.24,15.24,0,0,0-4.68-2.77c-2.37,1.73-.74,4.26-1.22,6.35a12.77,12.77,0,0,1-.14,2c-.29,1.9-1.6,3.29-2.35,5-.86,1.15-1.74,2.28-3.41,1.85-1.13-.2-2.93.57-3.26-.78C657.8,723,660.29,722,661.68,720.47Z" fill="#160c06"/><path d="M678.75,726.33c-1,.65-1.9,1.3-2.84,2-1.31-.15-2.8.45-3.8-1A1.25,1.25,0,0,1,672,726a6.06,6.06,0,0,1,.83-1.11c1.6-2.53.74-5.33.85-8,.06-1.4-.82-2.86.3-4.18,2.37,1.63,3,4,2.45,6.71-.51,2.57-.42,4.79,2.34,6,.25.22.33.43.25.65S678.83,726.33,678.75,726.33Z" fill="#1a0f08"/><path d="M661.7,726.34l2.78-2c1.56-4,2.95-.88,4.39.11a2.94,2.94,0,0,1,.67,1.06c0,1.55-1.58,1-2.14,1.82C665.5,727,663.37,728.08,661.7,726.34Z" fill="#39322e"/><path d="M667.4,727.32l1.88-2a2.15,2.15,0,0,1,2.87,1c0,.31,0,.62,0,.93C670.54,728.38,669,727,667.4,727.32Z" fill="#241d1a"/><path d="M674,712.69c.77,4.58,3,9.27-.91,13.53a2.73,2.73,0,0,1-.76-1.86,6.53,6.53,0,0,1,.15-1.33c.46-2.72,1.16-5.49-1.79-7.29-1.14-.35-1.67.7-2.48,1.12a1.26,1.26,0,0,1-1.13-.46c.6-2.27-1.79-5.58,2.22-6.63Z" fill="#403916"/><path d="M667.37,716.57h1c3.06,1.64,3.29,5.1,4.73,7.77,0,.63,0,1.26,0,1.89-.3.07-.59.12-.89.16l-2.87-1v0c-2-1.4-2.32-3.71-2.83-5.9v-1.87C666.78,717.26,666.78,716.64,667.37,716.57Z" fill="#49441d"/><path d="M666.46,719.45c.95,2,1.89,3.93,2.83,5.9-1.86.95-2.58-3.8-4.81-1C663.94,722.19,666.38,721.33,666.46,719.45Z" fill="#241d1a"/><path d="M667.37,716.57c-.31.33-.61.67-.91,1,0-2.1-.08-4.21,0-6.32s.68-3.33,2.79-1.49C666.75,711.49,667.75,714.23,667.37,716.57Z" fill="#282011"/><path d="M670.26,714.63c4,1.27,4.72,3.52,2.8,8.77C671.17,720.8,668.48,718.47,670.26,714.63Z" fill="#4e4913"/><path d="M670.26,714.63c-.52,3.42,1.67,5.92,2.8,8.77,0,.31,0,.62,0,.93-2.82-1.78-3.11-5.2-4.73-7.77C668.6,715.53,667.67,713.21,670.26,714.63Z" fill="#282011"/></g><g id="frame"><rect width="1000" height="1000" fill="none"/></g></svg>