<!-- Copyright (c) 2023 Jan Stehno -->
<svg xmlns="http://www.w3.org/2000/svg" viewBox="0 0 1000 1000">
    <title>rockymountainelk</title>
    <g id="rockymountainelk">
        <path
            d="M536.69,577.4c12.33,16.49,30.4,23.34,49.53,28.34,3.6.94,7,1.67,4.2,6.46.63,3.36,3.34,2.42,5.45,2.42,4.24,0,8.23-1.36,12.27-2.35,2.85-.91,4.08,1,5.62,2.83,3,3.48,3.9,8.27,7.45,11.36,5.68,2,10.25-1.33,15.16-3.09,6.45-2.57,6.72-3.41,3.81-12.11-2.27-6,1.44-9.14,5.81-12.22,12.18-8.56,24.57-16.93,32-30.4,3.91-7.09,8.08-14,10.46-21.84,3-9.79,9.92-17.73,14-27.08,1.31-3,3.41-5.83,4.26-9,4.64-17.31,17-28.19,31.66-37.07,18.85-11.42,38.36-21.84,59.77-27.56,19.55-5.22,39.77-8.5,60-5.05,11.67,2,22.85,6.76,34.26,10.23,1.59.48,3.26.72,4.89,1.06,1.39.68,3,.83,3.6-.69.68-1.76-1-2.82-2.19-3.86a10,10,0,0,0-3.68-1.54c-9.42-2.66-18.65-5.49-26.85-11.28-8-5.67-17.47-7-27.39-6.12-11.11,1-21.86,4.07-32.9,5.36-13.08,1.49-24.88,6.75-36.61,12.17a35.21,35.21,0,0,0-7.88,6.12c-3.09,3.16-6.73,5.76-11.7,4.86-.83-.15-.17.53-.53,0-.59-.78.67-.57,1-.93,8.51-4.58,15.16-11.93,24.24-15.6,15.12-7.86,32-10.76,47.88-16.38,1.41-.49,3.6-2.58,5.07.32,2.73,4.88,5.41-.88,8.33-1.26,11.84-6.27,36.42-6.37,56.49-.67,7.8,2.21,16.93,6.14,23.31,10.89,4.38,3.26,12.16,9.24,17.2,11.4.71.41,0,1.55.61,2,.13,2.41-1.92,1.53-2.92,1.65-5.9.7-11.76,1.93-17.74,1.9a7.32,7.32,0,0,0-1.87.1c-1.67.7-2.87,1.58-1.3,3.45l.55.21.55-.19c8.11.17,16-1.71,24-2.51,2.72-.27,5.35-.63,7.81.87,17.59,6.77,35.48,11.44,55.64,8.11-2.41-3.19-4.91-2.58-7-2.81-11.34-1.24-22.38-3.4-32.62-8.71-4.15-2.15-5.12-3.87-.64-6.68,1.52-.95,2.66-2.51,4.52-4.33-3.72-.79-6.21,1.05-8,2.27-4.88,3.39-8.48,1.25-12.48-1.23-10.36-6.43-19.24-14.72-28.81-22.13-7-5.44-14.27-10-22.89-12.47a26.81,26.81,0,0,1-4.06-1.94c8-5.39,12.28-13.07,15.64-21.37.7-1.55.25-2.49-1.47-2.78-7.1,5-12.1,12.3-20.05,16.58-5.68,3-11.19,5.37-17.59,5.61-8.56,2.25-17.18.35-25.72.09-5.56-.16-10.88.65-16.25,1.32-4.76.59-8.7.18-11.36-4.19-5-6.68-5-14.69-5.78-22.38-1.91-19.78-3.71-39.56-9.5-58.7-.44-1.47-.37-3.48-2.77-3.52-3.14,4.37-.37,8.53.36,12.77,2.37,9.9,4.27,19.91,3.21,30.1-.76,7.29.6,14.45.29,21.72-.71,16.27-5,30.56-20.17,39.62-1.68,4.6.49,5.74,4.63,4.84,6.81-1.48,11.89-6.13,17.61-9.58,1.41-.86,2.41-2.36,4.4-2.31-7.62,4-14.19,9.66-22.42,12.6a5.69,5.69,0,0,1-2.4.7c-7.85-.83-14.36,2.26-20.43,6.7-1.5,1.09-3.28.47-4.9.82a6.3,6.3,0,0,0-3.26,1.56c-1.22,1.05-2.18,2.44-3.66,2.93-3-4.71-1.24-8.73-2.09-13.65-6.37-7.66-6.06-20-9.55-35.95,1.45-10.25-1.4-20.52-3.76-30.07-3.72-21-10.7-41.17-15.47-61.9-3.33.8-2.35,3.49-2.32,5.53a39.7,39.7,0,0,0,3.47,15c-1.47-1.05-.14-3.34-2.15-3.93-1.82.39-2,2-1.83,3.33.9,7.08,1.8,14.1,3.38,21.16a146.45,146.45,0,0,1,3.69,33.55c0,.78-.88,1.38-1.28,2.1a3.53,3.53,0,0,0-.11,2.81c2.95,2,7.32,3.14,3.28,8.39-1.57,2.05.08,5.6.38,8.46.41,3.89,1.25,7.75.42,11.69.08,7.62,2.06,15.16.66,22.82-.51,2.42-1,4.86-1.68,7.24-.57,2-1.34,3.94-1.89,5.94-.43,1.56-1.32,3.65.58,4.46s3-1.2,3.55-2.69c1.86-4.77,4.23-9.36,5.31-14.31.56,1.76.08,4.4,2,5.38,2.89,1.44,2.12,3.1,1,5a9.35,9.35,0,0,0-.45,9.44c2.1,4.33-1.78,6.23-4.34,8.52-7.63-3.12-7.86-3.17-9.87,5.21-1.33,5.53-6.3,7.33-9.83,10.64a77.2,77.2,0,0,0-12.54,28.27c-2,9-6.2,17.08-11.61,24.62-1.94,2.7-3.75,1.89-5.84.57a2.3,2.3,0,0,0-1.66.31c-1.51,1.48-1.67,3.39-2,4.87-.26-1.13.55-2.54.86-4a4,4,0,0,0-.12-1.65c-1.49-2.2-4.2-2.34-6.29-3.55-1.33-.33-2.72.4-4.05-.16-9.52,0-17.79-5.75-27.33-5.65-9.14-.27-18.09-2.26-27.2-2.84-1-.07-2.07-.33-3.12-.33-2.09,0-4.36-.1-5.37,2.24-1.09,2.51,1.94,2.73,2.67,4.25,4.1,3.19,9.2,3.91,14,5.3,13.94,4.06,27.44,9.06,39.83,16.64,1.2.56.87,1.92,1.49,2.79.79,1.9-.17,4.8,3.08,5.22.22,0,.63-.46,1.08-.27-.16.33-.37.67-.54,1.06-2.94,6.64-6.18,13-13.44,16.22A33.66,33.66,0,0,0,639,576.17c-1,8-8,11.11-13.45,15.2-1.67,1.25-4.24,1.64-6.24,3.33a8.44,8.44,0,0,1-8.46,1.92,49,49,0,0,0-18-1.4c-7,.61-13.45-1.6-20-3.34l-2.58-1c-5.06-2.12-9.82-4.83-14.68-7.36-1.4-.73-2.86.45-4.27-.09l-11-7.59C538.76,575.52,536.94,574.59,536.69,577.4Z"
            fill="#17130d" />
        <path
            d="M589.13,632.65c-3.41,9.27-10.36,16.28-17.76,21.93-12.81,9.78-25.75,19.49-39.07,28.61a162.28,162.28,0,0,1-21.89,12.7c-14.29,6.79-29.81,11.46-42.42,21.57-3.06,2.46-7.67,2.29-10.4,5.49,2.09,2.54,4.74,4.57,6.54,7.38a4.24,4.24,0,0,0,3.6,2.23c5-.21,9.9.07,14.58,2.08.71.31,1.6-.31,2.23-.91,1-1.5,0-2.73-.54-4-.72-1.6-.32-3.23,1.41-3.38,5.6-.46,10.45-5.22,16.51-2.8,3-.33,6-2,8.85.84,1.91,1.93,3.27-.18,4.79-1.15,5.82-3.73,9.41-9.73,14.82-14,2.91-2.29,7.41.3,9-3.9,4.09-2.89,9.13-4.26,12.75-7.88a3.75,3.75,0,0,0,1-2.43c-3.54-5.62-2.89-7.37,1.68-11.79,3.2-3.1,5.25,1.4,7.84.18a6.17,6.17,0,0,0,1.6-.7c2.37-2.18,5-3.67,8.41-3.37a6.68,6.68,0,0,0,1.69-.44c4.65-5.69,11.66-8.42,17.09-13.2,3.16-2.78,3.86-7.54,8.23-9.12,2.94-1.94,2.31-4.35,1.3-7.11-2.37-6.44-.49-9.34,6.3-9.43,3.78,0,5.17-3.27,7.86-4.71,1.36-2.52,5.63-4.47,1.69-8.05a5.43,5.43,0,0,0-1.74.25c-2.62,1.07-5,.22-7.43-.77-.92-.67-1.55-1.63-2.4-2.36-2.61-1.5-4.65-.37-6.57,1.37a7.31,7.31,0,0,0-1,2.24c-1,3-1.66,6.49-6.15,3.16C590.41,630.38,589.82,632,589.13,632.65Z"
            fill="#ddcdb7" />
        <path
            d="M467.9,804.72l.49.17.48-.23c3.91,1,8,0,11.9,1.06,10.71-2,20.92.7,31.17,3a5.44,5.44,0,0,0,1.82.42,52.48,52.48,0,0,1,29,3.83c10.47,1.32,19.95,4.7,27.27,12.6,5.7.5,8.2-3.48,10.44-7.52,1.6-2.86.34-5.24-2.26-6.88-2.41-1.51-3-3.58-3-6.31,0-5.94-3.39-9.74-9.37-10-4.84-.23-9.55-1.24-14.39-1.44-5.23-.23-10-1.88-15-4-8.23-3.48-17.1-5.51-25.88-7.44-3.56-.78-6.27-1.82-7.79-5.26a7.18,7.18,0,0,0-5.86-4.18,21.58,21.58,0,0,0-8.44,2.33c-5.76,2.67-11.71,4.61-18.13,4.74-6,.12-9.7,4.68-14.34,7.33-2.2,1.26-1,3.75.56,5.36,1.76,1.81,4.15,3.66,3.86,6.16C459.63,804.73,463.77,804.55,467.9,804.72Z"
            fill="#191512" />
        <path
            d="M714,680.74c-2.88-2.48-2.57-6.63-5-9.33a1.49,1.49,0,0,0-1.72.49c-1.34,2.81.43,5,1.19,7.54,2.29,7.72,6.56,14.83,4.92,23.72-1,5.69-3.78,8.9-8.36,11.34-3.39,1.8-6.57,3.65-8,7.47-.83,2.21-2.78,2.71-4.94,3.23-4.64,1.11-9.55,1.52-13.66,4.28-2,1.45-2,4.6-4.86,5.28a8,8,0,0,1-4.15,1.29c-4.66.21-6.09,3.39-6,7.22.07,2.41,1.43,4.72,1.21,7.28a1.73,1.73,0,0,0,1.41,1.79c2.81.83,3.13,1.42,2.66,4.22-.25,1.49-2.3,3.14-.35,4.44s4.48.34,5.83-1.07c5-5.25,14.42-6.85,14-16.82,2.38,3.46-2.22,8.28,3,10.12,2.6.91,4.85-.51,6.45-3.19.84,1.89,1,4.38,3.48,4.83a5.09,5.09,0,0,0,5.37-2.49c.27-1.41-.95-2.79-.08-4.21,1.25,6.2,2.46,6.73,8.43,3.93,4.72-2.22,9.29-2.5,13.41,1.29,3,2.78,6.35,4.2,10.15,1.49s6.85-10,5.75-13.16c-1-2.87-3.16-3.59-6-2.91-4.65,1.1-9.39,1.92-13.8,5,.51-3.29,2.45-5.25,3.74-7.53,1.55-2.73,3.48-3.86,6.72-2.44,3,1.32,5.89.83,7.55-2.32,1.74-3.31,1.46-6.48-1.72-8.87-4.12-3.1-7.48-6.63-8-12a2.63,2.63,0,0,0-.87-1.62C723.41,701.05,720.94,689.54,714,680.74Z"
            fill="#373b45" />
        <path
            d="M719.27,374.13c-.13-.78-.25-1.57-.37-2.36,1.67-2.46,1.21-5.15.85-7.82-1.42-10.42-2.35-20.9-4.42-31.25-2.1-10.53-1.17-21.34-2.16-32-1.5-16-4.28-31.86-6.81-47.73.09-1.32-.27-2.94-1.55-3-2.16-.06-1.71,2.15-1.65,3.3.41,9.07.52,18.19,1.68,27.17,2.75,21.28,5.06,42.62,8,63.89,3,21.91,3.87,44.1,5.66,66.17.3,3.71.61,7.41.85,11.12.89,13.92-8.43,23.76-14.31,35.53-2-1.86-.94-4.51-2.85-5.65a3.11,3.11,0,0,0-1.13,3.34c1.41,5.35-.59,10-3.22,14.86.12-6.82.39-13.38-.69-19.88-1.51-8.16-4.64-15.92-5.94-24.11-.55-3.5-4.63-5.44-2.94-10.3,1.29-3.72-1.81-8.29-2.09-12.67a30.77,30.77,0,0,0-4-12.87c-3.59-6.7-2.9-14.52-4-21.88.34-6.4-3-12-4.37-18-1.49-6.63-2.67-13.3-4-19.94-.26-1.24.47-3.77-2.45-3.34,1.8,18.68,3.76,37.32,8,55.68,2.22,9.66,3.53,19.53,5.24,29.3A104.47,104.47,0,0,0,686.08,433c2,4.93,1.07,11,1.44,16.55-.35,5,1,9.86,1.44,14.78.16,1.58.38,4.78,2.46.73.12-.24-.37-.64-.51-.71a1.82,1.82,0,0,1,1.05,2.06c-.75,4.7-1.1,9.43-2.53,14.05-3.26,10.5-6.82,20.91-9.25,31.63.89,3.92-1.2,5.64-4.78,6.09s-7.32.76-11,1.13c1.08,1.19,2.55.65,3.85.83,1.68,1.31,5.14-.85,5.62,2.79a7.43,7.43,0,0,0,.23,1.14,1.26,1.26,0,0,0,2.18-.38l.08-.1A23.07,23.07,0,0,0,690.11,509a311.39,311.39,0,0,1,26.24-58.64c3.15-5.39,2.73-12.16,6.35-17.47a15.51,15.51,0,0,0,1.58-6.6c-2.57-7.08-1.31-14.55-2.16-21.81.2-8.24-1.17-16.4-1-24.62C721.13,377.67,720.82,375.74,719.27,374.13Z"
            fill="#957b5d" />
        <path
            d="M714,680.74c5.15,8.58,7.06,18.94,14.93,26,1.34,1.21,2.67,2.77,2.57,4.8-.26,5.22,2.8,8.55,6.81,11,3.71,2.28,4.84,5.26,2.71,8.75s-5,1.88-7.53,0a3.34,3.34,0,0,0-3.53-.54c-2.62,1.19-7.75,12.65-7,16.45,4.29-4.83,10.15-5.58,15.74-7.07,1.59-.43,2.78-.74,3.86.68,1.83,2.4-1,10.21-5,13.15-2.83,2-5.45,1-7.82-1.3-5-4.88-10.78-5.33-16.46-1.35-1.23.86-2.31,2.13-3.83,1-1.22-.87-2-2.09-.9-3.73.72-1.1,2.6-2.33,1-3.66s-3.07.61-4.54,1.18c-2.77,1.08-.88,2.59-.2,3.91a20.68,20.68,0,0,0,1.38,2.07c0,3.88,2.89,6.46,4.93,9,2.4,3,3.82-1.75,6.05-2.17,1.84-.72,3.58-1.2,5,.76,4.7,6.26,10.85,7.58,18.2,5.18,3.39-1.1,7.07-.94,10.45-2.19a1.67,1.67,0,0,1,2.06.48c6,5.69,18,3.91,23-3.31,2.59-3.74,1.93-7.33-2.17-7.43-5.88-.14-7-3.63-8.36-7.72-13.72-7.37-18.92-22.11-29.06-32.54-7.32-7.54-12.27-16.43-17-25.58C718.07,684.33,716.59,682,714,680.74Z"
            fill="#4a4f59" />
        <path
            d="M484.47,733.48c-1.23-.08-2.66.23-3.62-.3-2.62-1.45-8.47-2.54-11.85-1.75-2.79.64-4.31-1.84-4.66-3.19-1-3.76-3.84-4.37-6.75-5.29-4.37,3.57-10.09,4.33-15,6.9-9.5,4.94-14.84,12.68-19.48,21.45,3.14,3.55,6,.77,8.7-.62,2.52-1.29,4.67-3.38,7.84-2.61,4.18,4,4,6.88-.85,9.51-1.82,1-4,1.45-5,3.48-.38,4.61-4.88,7.32-5.65,11.75.1,1.71-.76,3.82,1.85,4.52,5.33-1.51,6.38-7.76,11.2-9.84,2.33-6.23,7.18-10.77,11.09-16,.6-3.82,3.78-6.36,5.06-9.88,1-2.69,3.86-2.76,5.94-2.19,4.11,1.14,7.73,1.34,11.1-1.76,1.19-1.09,2.83-.18,4.26-.21,2.62,0,5-.57,6.26-3.22Z"
            fill="#ccbba7" />
        <path
            d="M598.88,626.73c1.89-1,3.6-3.09,6-1.07,1,.86,2,1.73,3.23.57,1.11-1,.89-2.18.24-3.37-1.75-3.2-4.94-3.51-8.07-4a17.39,17.39,0,0,0-4-.06c-11.85,1.37-23.27-.92-34.56-4-1.28-.35-4.66,1.1-3.46-2.68.06-.18-.59-.49-1-.67-21.7-10.06-31.19-29.51-39.48-49.88-.54-1.32-.78-2.77-1.28-4.11-.27-.71-1.17-2.65-1.48-2.3-1.45,4.84-.2,9,1.13,13.1,7.29,22.27,18.89,41.34,40.45,53.14,8.36,4.58,17.77,4.66,26.73,6.69,2,.44,4.32-.3,5.62,2C593,630.93,596.39,630.09,598.88,626.73Z"
            fill="#262117" />
        <path
            d="M467.9,804.72c-3.64-1-4.17-1.69-5.45-6.17-.83-2.87-1-6.06-4.89-7.21-1.65-.5-2.67-3.2-.54-3.72,5.88-1.44,9.39-7.22,16.77-6.7,8.19.57,15.6-4.79,23.36-7.53,1.18.41,1.62-.34,2-1.23a5.07,5.07,0,0,0,.05-1.78c-.15-.57-.31-1.36-.8-1.55-4.09-1.52-5.44-2.38-7.49-5.05-2.53.17-3.13,2.17-3.93,4-6.19,1.67-18,1.76-21.07.14-2.3-.69-4.27.32-6.28,1.16a12.05,12.05,0,0,0-1.63.86c-4.62,7.07-9.92,13.16-19.46,13.17a1.68,1.68,0,0,0,.1,1.65c4.67,3,9.55,5.48,8.1,12.76-.69,3.51,4.92,4,6.26,7,1.23,1.8,3.41.29,4.86,1.34Z"
            fill="#322d29" />
        <path
            d="M765.29,744.82c.07,2.06.11,4.12.23,6.18s1,4.15,3.37,3.16c3.21-1.37,6.4-1.67,7.16,1.8.58,2.6-2.43,5.29-4.75,6.65-4.36,2.56-9.62,2.25-14.54,2.92-.82.11-2.61-1-2.56-1.35,1.26-8.23-3.53-2.08-5.45-2.16-7.2-.28-14.3,5.75-21.65.34-.81-.59-2.68.29-2.81-1.59-.47-7-4.92-4.12-8.54-3.35-.69,2.8-3.53,4.82-3,8a4.54,4.54,0,0,0,3.5,1c.46,0,1.77-1.82,1.52.79-.54,5.59,7.27,11.08,11.35,7.57,2.9-2.49,6.52-2.42,9.51-5.34a14.41,14.41,0,0,0-1.71,5c-1.46,6.89-.59,8,6,7.81,5.7,1.81,6.67-3.26,9.18-6.1,3.3-4.9,7.93-7,13.84-6.43,3.81-1.55,7.65-3,11.88-2.81,2.7-1.51,6.15,1.49,8.63-1.4,1-4.26.25-8-3.36-10.87C776.5,752.5,769.94,750.33,765.29,744.82Z"
            fill="#7a6b65" />
        <path
            d="M794.8,325.81l-1.59-12.39c-.15-1.21-.14-2.67-1.8-2.73-1.26,0-1.79,1.12-1.74,2.17.16,3.08.32,6.19.78,9.24,3.29,21.76,4,43.59.37,65.36-1.52,9.06-2.82,19.06-12.48,23.79-6.1,3-11.42,8.71-19.32,7.08-1.76,3.3-3.55,4.54-5.49.14-.65-1.46-1.2-3-1.83-4.44-2.51-6.94-4.7-14-7.27-20.89-.51-1.35-.61-3-2.34-3.28-2.08-.34-2.09,1.58-2.74,3.17,1.52,5,3.53,10.44,5.24,17.33,1.64,6.6,3.93,9.47.95,12.07.13,2.23.37,3.74-.53,6a3.49,3.49,0,0,0-.3,1.82c.7,4.36,2.76,2.58,4.77,1-.39,1.34-4.12,4.1,1.29,3l2.29-1.57c5-1.24,8.35-5,12.15-8a31.86,31.86,0,0,1,7.78-4.84c2.58-1.39,5.2-2.77,7.6-4.39,5-3.37,8.61-7.15,10.59-13.62,6-19.61,6.33-39.55,5.92-59.58C797,336.79,796.85,331.09,794.8,325.81Z"
            fill="#6e5e4a" />
        <path
            d="M599.32,910.21c2.09,6.77,4.89,13.2,9.45,18.76,1.47,1.78.3,4.67,2.66,6,2.44-3.37,1.32-7.42,2.25-11.07.34-2.89-.92-5.1-2.85-7.19-4.21-4.58-5-9.7-2-15.29,1.37-2.56,2.52-5.22,3.92-7.76,1.66-3,3.11-6-2.43-6.28a2.13,2.13,0,0,1-1.53-1,4.57,4.57,0,0,1-.92-3.5c.84-5.68-6.51-11.19-.1-17.06,2-1.8,3.57-4,5.47-6,2.09-2.33,4.62-4.25,6.48-6.75,1.58-2.12,3.81-4.55.83-7-2.66-2.17-4.58.2-6.41,1.86a14,14,0,0,0-3.31,4.47c-1.16,3.36-3.89,5.8-4.92,7.8,2.72-3.47-2.7-8.3-.08-12.92,1.17-2.59,3.63-4.63,3.48-7.79-1.64-3-4.09-1.14-6.26-1-2.53,1.55-2.24,4.46-3.38,6.69-1.06,3.44-2.45,6.77-3.52,10.2a4.94,4.94,0,0,0-.1,1.67c.44,1.76,1.71,1.71,3.21,1.61,1.67-.11,1.07,1.09.86,2-.88,2.3-2.37,4.37-2.72,6.86,2.7,3.23,2.26,6.56.29,9.94a3.86,3.86,0,0,0,.27,1.68c2.3,5.44,3,10.84-.12,16.32a5.5,5.5,0,0,0-.35,4.81,2.64,2.64,0,0,0,1.21,1.13c3.45,1.89.67,4.7,1,7A8.07,8.07,0,0,0,599.32,910.21Z"
            fill="#c9baa5" />
        <path
            d="M573.25,833c4,7.37,5.66,15.22,6,23.6.19,4.24,4.21,7.32,6.07,11.16,2.81,3,4.94,1.94,6.69-1.15,1.31-2.29,1.36-5.08,3-7.23.77-.91,1-2.13,1.72-3v0c.66-3.08,1.19-6.16.23-9.26-1.89-2.88-3-6.14-5.89-8.57-2.25-1.91-2.51-5-1.63-8,1.11-3.79,1.3-7.75,2-11.61.64-3.39.42-6.61-2.44-9.11-5.31,1.59-4.8,6.31-5.22,10.18-.28,2.59.21,5.29-.55,7.9-1.91,6.55-3.25,7.23-9.33,4.65Z"
            fill="#464540" />
        <path
            d="M612.69,923.39c-1.75,3.74-1.61,7.68-1.26,11.63,1,2.35,2.18,4.45,4.74,5.42,1.18.45,2.86,1,2.78,2.19-.72,10.87,9.23,13.3,15.19,18.83,2.37,2.2,1.14,5.64,3.3,7.78,3.78,3,3.53,8,6.18,11.55a.86.86,0,0,0,1.41-.37,53.06,53.06,0,0,1,1.31-14.75c-4-6-12.16-9.46-10.47-19.13.55-3.12-4.59-6.6-3.3-11.15,0-.61.08-1.21.06-1.81-.09-2,.48-4.65-2-5.14-3.14-.62-3.08,2.47-3.83,4.43-.6,3.86-2.31,5.68-5.29,1.88-2.23-2.86-5.93-4.58-6.84-8.46A4.7,4.7,0,0,0,612.69,923.39Z"
            fill="#b3a692" />
        <path
            d="M601.81,548.15c-11.56-5.61-20.5-14.37-29.09-23.74,2.06,9.5,7.43,16.78,14.11,23.32C597.7,558.36,611.45,560.52,626,561c4.39.14,9.12-1.45,13.23,1.42,3.28,1,4.51-1,5.36-3.56-2.07-5.7-7.2-2.07-10.71-3.37C622.61,555.35,611.35,555.35,601.81,548.15Z"
            fill="#3c3428" />
        <path
            d="M706.36,253c-1.36,6.66.73,13.11,1.42,19.6,1.65,15.64,4.91,31.18,5.5,46.85.67,17.64,3.66,34.91,5.62,52.34,2.86-.66,3.68-2.59,3.08-5.16-1.36-5.82-1.16-11.81-1.9-17.71-1.54-12.29-5.71-24.17-5.73-36.78,1.94,1,.48,3.63,2.32,4.87.76-7.79-3-15.08-1.07-22.67C712.64,280.52,711.25,266.36,706.36,253Z"
            fill="#433d32" />
        <path
            d="M639.84,576.26l10-11.3c4.53-4,8.79-8.18,7.17-15-5-1.66-6.81,2.29-8.64,5.31-5.08,8.33-12.18,14.54-20.21,19.9a85.25,85.25,0,0,1-22.38,17.6c2.5,2.83,6.38,1.35,9.33,2.84.34.17,1,.06,1.16-.24,3-7.37,12.37-5.44,16.85-11.23C635.2,581.48,638.4,579.57,639.84,576.26Z"
            fill="#957b5d" />
        <path
            d="M755,904c4.64,3.76,6.51,9.43,10.34,15,.06-2.34.09-3.76.17-6.79,4.1,9.88,8.14,18,7,27.49a11.77,11.77,0,0,0,5.64-4.25,14.52,14.52,0,0,0-.68-7.29c-3.45-9-5.29-18.49-8.35-27.6-2.78-4.68-4.51-10.28-10.6-12.18-2.51,1.9-2.08,4.83-2.76,7.38-.36,2.28-1.58,4.39-1.55,6.76A2.92,2.92,0,0,0,755,904Z"
            fill="#c6b09b" />
        <path
            d="M695.62,451.22c1.09,7.5.63,15.07.47,23.59,5.86-7.54,8.8-14.72,6.07-23.28,2.28-7.12-1.67-13.21-3.48-19.59-3.45-12.21-7.31-24.3-11-36.44-4.21.86-2.83,4.25-2.36,6.35,2.79,12.65,7.39,24.88,8.91,37.84.1.81-.09-.19.11.6.48,2,2.08,2.37,3.78,2.63-1.49.73-2.86,1.63-2.35,3.53C696.2,448.09,696.58,449.65,695.62,451.22Z"
            fill="#40372a" />
        <path
            d="M695.62,451.22c1-.79,2-1.61,1.69-3.06-.27-1.15-1.49-2.29-.35-3.44,1.33-1.33,2,1,2.07.89a2.15,2.15,0,0,0-.76-3.68c-1.69-.64-2.82-1-2.92-3.13-.57-12.49-5.15-24.05-8.71-35.84-.85-2.83-.85-5.17,1-7.46-1.31-3.12-.36-6.84-2.66-9.69-1.14,1.69-.12,3.4-.2,5.14.06-7.72-4.11-14.25-6-21.41a1.84,1.84,0,0,0-2.45-1.27c.86,6.75-.15,14.59,3.05,20,4.45,7.54,4.36,15.58,6.63,23.27.76,2.55,2.2,4.81,0,7.48s1.82,1.43,2.2,3C690.48,431.81,693.11,441.5,695.62,451.22Z"
            fill="#665645" />
        <path
            d="M604.08,517c.11-1.68-3-2.32-1.69-4.12s3.8-.87,5.76-.8c9.66.34,19.19,2.77,29,1.6-3.47-.64-6.92-1.63-10.43-1.88-17.56-1.27-30-10.09-38.68-24.75-1.7-2.88-2.44-6.54-6.25-7.79-2,3-.11,5.43,1,8,2.57,3.69,5.26,7.3,7.87,11s3,7.9,3.91,12.05C597.2,513.19,600,516,604.08,517Z"
            fill="#372f25" />
        <path
            d="M639.84,576.26c-4.25,3.57-8.43,7.21-12.78,10.66-1.32,1-2.54,2-4.9,1.8-3.58-.33-6.87,1.23-6,6.88-3.32-3.66-7.15-1.6-10.31-2.87-11.1,2.84-22.06,1.37-33-.85,7.84,4.88,16.83,3.51,25.4,4.61,5.71.73,12.12-.46,16.75,4.49,1.2-.74-2.13-5,2.39-3.05a13.83,13.83,0,0,0,1.8.54c1.27-4.55,6.21-3.89,8.71-6a128.36,128.36,0,0,0,10.47-9.67C640.2,580.87,641.4,578.89,639.84,576.26Z"
            fill="#534433" />
        <path
            d="M628.21,575.13c9.74-2.49,15.12-10,20.48-17.46,2.24-3.12,3.41-7.19,8.24-7.48,5.49-1.73,3.58-5.64,2.81-9.21-.61-.68-1.22-1.37-1.84-2.05.35,6.5-1.79,8.44-9.28,9-6.62.51-13.22,1.32-19.83,2,.31,2.78,2.61,2.12,4.24,2.14,3.71,0,6.49,2.47,9.84,3.41,1.91.54,2.44,2,.69,3.62-1.29,1.32-2,3.3-4.37,3.29C634.42,565.73,632.55,571.46,628.21,575.13Z"
            fill="#a9967d" />
        <path
            d="M739.35,393c1.72-2.18,2.62-3.53,4,.61,2.43,7.29,3.46,15.11,7.66,21.79,3-4.55-1.77-8.31-1.25-12.6-6.18-15.56-11-31.65-18.69-46.61.57,10.11,4.52,19.79,3.76,30.07C738.53,386.47,737.86,390.24,739.35,393Z"
            fill="#524738" />
        <path
            d="M680.18,512.1c5-8,6.36-17.31,9.16-26.09,1.75-5.47,3.62-10.92,4-16.76a9.26,9.26,0,0,0-1.24-5.25c-.3-.58-.57-2-1.23-.17a2.7,2.7,0,0,1-1.35,1.85l-2-16.12c-1.34,3.09-.41,6.25.25,9.16,2.8,12.53-1.3,24-5.37,35.44C680.31,500,678.4,505.83,680.18,512.1Z"
            fill="#a9967d" />
        <path
            d="M707.72,671.86l1.36-.46c-4.37-7.46-5.61-15.55-6.76-24.07a96.41,96.41,0,0,0-5.63-22c-.88-2.25-1.17-4.59-4.19-5.7-2.81-1-3.73.25-5.15,2.71-.25.44-1.06.6-1.59.94-3.46,2.37-7.62,4.18-7.65,9.28,1.08,3,3.28,2.67,4.7.8,2.59-3.4,5.16-2.73,8.07-.88,4.58,3.73,6,8.27,3.88,13.87-.59,1.51-1.38,3.18.44,4.5,2.83-1.15,4.73-1.37,4.92,2.75.22,4.62.53,9.38,3.18,13.51C704.48,668.94,705.15,671.26,707.72,671.86Z"
            fill="#9b7f6e" />
        <path
            d="M686.63,624.14c1.43-1.67,3.45-.91,5.19-1.21,3.83-.67-5.13-2.95,1.38-2.94a6,6,0,0,0-3.69-1.08c-8,.38-15.9,1.18-23.85.14l-.76.39A12.7,12.7,0,0,1,660,622.5a7.13,7.13,0,0,0-4.34,4.23c.63,5.32,5.49,4.33,8.79,5.68a3.61,3.61,0,0,0,2.36-1c2.47-3.11,6-4,9.72-4.55a13.45,13.45,0,0,0,1.66-.55A36.07,36.07,0,0,1,686.63,624.14Z"
            fill="#c4b09f" />
        <path
            d="M557.37,611.49c.93,1.56,0,3.87,2.93,4.67,12,3.23,23.92,5.89,36.46,4.17-.55-2.72-2.5-1.13-3.82-1.25,1.56-.81,4.79.5,4.78-2.34s-2.82-2.17-4.82-2.14c-4.14.07-8.21-.66-12.31-1A81.66,81.66,0,0,1,557.37,611.49Z"
            fill="#493d30" />
        <path
            d="M676.31,368.27c1.75,8.34,7.84,15.16,8.18,24.77,1.65-3,.08-5.13.52-7.23-1.28-13.08-7.45-24.87-10.07-37.6-1.67-8.09-3.74-16.1-5.63-24.15-.77-.73-.67-3.14-2.17-2.14-1.77,1.18-.72,3.22.15,4.84h0c3.5,8.61,3.23,18,5.91,26.86C674.63,358.33,677.46,363,676.31,368.27Z"
            fill="#44392e" />
        <path
            d="M594.36,857.87c-2.84,1.58-2.23,4.67-3,7.07-1.1,3.26-2.78,4.33-6,2.86.31,1.58.61,3.16.92,4.74.92,1.91.68,4,1.13,6,.54,2.32.4,5.61,3.2,6.06,3.27.53,5.18-2,6.16-5,.55-3.94.68-7.93,1.56-11.84.76-2.38,3-4.15,3-6.87,0-2.35-1.58-2-2.88-1.42C596.3,860.48,595.51,858.85,594.36,857.87Z"
            fill="#5b564c" />
        <path
            d="M865.42,402.38c11.13,0,19.21-6.22,27-13,3.59-3.12,6.73-6.74,10.07-10.13,1.66-2.07,5-3.58,2.47-7.06-6.54,8.08-13.7,15.22-23,20.58-7.79,4.47-15.78,6.35-24.39,7.05C859.11,403.76,863,400.87,865.42,402.38Z"
            fill="#625b52" />
        <path
            d="M580.59,613.62a26.33,26.33,0,0,0,17.1,1.61c-2.23,3.82-5.26,2.48-7.55,4.1,2.28.94,4.87-.81,6.62,1l3.72-.24c1.61.66,3.31-.43,4.87.16,2.59,1,5.6,2.18,6.79-1.24,1.13-3.22,1.39-6.94-2.68-9-6.32.92-12.32,4.79-19,2.18C587.29,613.7,583.85,613,580.59,613.62Z"
            fill="#71604c" />
        <path
            d="M584.16,487.67c-.16-3-3.06-5.21-2.42-8.42-.2-1.21-.44-2.41-.59-3.62-.24-1.91.39-5-2.48-4.53-1.91.34-2.93,3.17-2.48,5.76,1.54,8.78,3.85,17.25,9.54,24.45,4-.83,4.34-3.24,2.77-6.35C587.22,492.44,585.32,490.27,584.16,487.67Z"
            fill="#635441" />
        <path
            d="M640.18,611.26c-1.14,1.39-1.81,3.23-.86,4.6,3.81,5.51-.83,5.34-4.07,6.19,1,4.22,3.88,5.35,6.55,2.05,5.41-6.71,11.44-7.52,18.79-3.87,1.56.77,3.58,1.85,4.79-.77l.28-.41C658.22,613.14,649.45,611.41,640.18,611.26Z"
            fill="#c4b09f" />
        <path
            d="M643.56,559.13c3.62-2.09,3.35-3.77-.41-5.39A42.65,42.65,0,0,0,628.79,550c-6.37-.84-12.65.44-19,.85,2.61,5,7.86,3.51,11.77,3.72a34.78,34.78,0,0,1,11.87,2.29C636.42,559.3,641,554.9,643.56,559.13Z"
            fill="#8d7a64" />
        <path
            d="M457.84,805.88c-.78-1.79-3.08-.65-4.06-2.06a14.47,14.47,0,0,0-4.58-3.15c-3.13-1.56-4.54-3.82-4.14-7.45.51-4.65-1.41-7.93-6.5-8.7h0a3.23,3.23,0,0,0-2.55-.86,3.42,3.42,0,0,0-2.34,1.36c2.89,9,8,16.13,17,20C453,806,455.27,807,457.84,805.88Z"
            fill="#a28e76" />
        <path
            d="M865.42,402.38c-2.23-2.08-5.58-.8-7.93-2.53-11.65,1.12-23.39-1.08-35,1.42-4,.85-7.69-1.38-11.19-3.25.88,6.29,3.65,7,10,5.32a60.64,60.64,0,0,1,31.08,0C856.33,404.42,861,402.79,865.42,402.38Z"
            fill="#625b52" />
        <path
            d="M749.76,402.83c-3.44,4.59,2.23,8.26,1.25,12.6a55,55,0,0,1,1.68,5.24c.57,2.6,2,3.23,4.55,2.71,3.64-.76,2.55-2.92,1.78-5.05A108,108,0,0,0,749.76,402.83Z"
            fill="#22211c" />
        <path
            d="M633.46,556.82c-2.41-4.06-5.9-4.75-10.41-3.78s-9-.68-13.23-2.23l-8-2.66C610.26,558.37,622.14,556.6,633.46,556.82Z"
            fill="#635441" />
        <path
            d="M584.16,487.67a9.83,9.83,0,0,0,2.49,6.63c2.34,3,1.42,4.93-.92,7a36.54,36.54,0,0,0,8.77,8.95c3.47-8.42-4-13-7-19.1C586.84,489.78,585.3,488.82,584.16,487.67Z"
            fill="#3c3428" />
        <path
            d="M596,879.12c-1.3,2.13-2.91,5.28-5.2,4.67s-2.89-4-3.15-6.69c-.15-1.59.15-3.36-1.37-4.56.86,5.47-1.51,12,6.3,15.09,1.43.57,1.48,5.83,1.22,8.85-.47,5.63,2.42,9.65,5.53,13.73l.37-.46c1.13-3,1-5.91-1.23-8.48l0,0c-2-6.52-4-13-.36-19.67a2.68,2.68,0,0,0,.07-2.93l0,0A1.38,1.38,0,0,0,596,879.12Z"
            fill="#c9baa5" />
        <path
            d="M555.09,584.36a25.13,25.13,0,0,0,15.17,6.57c-7.49-5.62-14.09-11.88-16.33-21.42-.12-.53-1.26-.83-1.93-1.23C549.75,574.26,553.09,579.19,555.09,584.36Z"
            fill="#867964" />
        <path
            d="M904.91,372.22c.63,2.84-2.45,4.44-2.47,7.06l1.26,2.11c5.79-8.93,9.22-18.46,7.88-29.23C907.65,358.31,908.39,365.94,904.91,372.22Z"
            fill="#524f41" />
        <path
            d="M440.08,746.79c-3.39-2.47-5.64.8-8.07,1.92-2.91,1.33-5.39,3.51-8.92,2.59-4.1,7.78-4.53,15.36,1.21,22.6l.68-.59c1-2.2.53-4.4-.06-6.58-1.82-6.74.48-11.22,7.18-13.83C435.37,751.62,438.92,750.74,440.08,746.79Z"
            fill="#76716a" />
        <path
            d="M569.78,824.62c-5-7.51-18.28-13.22-27.07-11.64,12.76,2.89,23.8,8.31,30.54,20.06l.49-.45C575.16,828.6,573.37,826.17,569.78,824.62Z"
            fill="#464540" />
        <path
            d="M433.66,785l2.49-.47a20.32,20.32,0,0,1,3.68-11.35c1.37-1.92,2.85-4.21.41-6.51-5.29,1.55-6.11,7.52-10.33,10.13a6.59,6.59,0,0,0-1.87,2.62Z"
            fill="#a28e76" />
        <path
            d="M555.09,584.36c1-5.75-3.81-10.39-3.09-16.08-3.1-1.5-2.21.9-2.37,2.33-.47,4.43,2.82,8.36,1.68,12.87A12.36,12.36,0,0,0,555.09,584.36Z"
            fill="#a9967d" />
        <path
            d="M536.69,577.4c.87-1.35,2.32-1.29,3.65-1.5h0l-9.09-10.62a1,1,0,0,0-1.54.88,30.29,30.29,0,0,0,7,11.25Z"
            fill="#17130d" />
        <path
            d="M898,448.51c.93,1.5,4,3.4-.75,3.85,4.6,1.61,9.42,1.71,14.22,1.94-.17-1.65.8-2.4,2.25-2.79,0-1.75-1.44-1.91-2.71-2.23C906.58,449.88,902.47,446.08,898,448.51Z"
            fill="#383227" />
        <path
            d="M598.88,626.73l-9.82,3.36c0,.86.05,1.71.07,2.56a5,5,0,0,1,1.72-.67c1.9,0,1.06,4.71,4.35,2.46C597.94,632.56,599.94,630.35,598.88,626.73Z"
            fill="#baac9c" />
        <path
            d="M735.91,950c-2.41-4.76-1.26-10.71-5.16-15.13-2.12.66-1.09,2.26-1.12,3.52,2.18,4.21.57,9.18,2.72,13.39A5.33,5.33,0,0,0,735.91,950Z"
            fill="#9e8771" />
        <path
            d="M944.36,452.68c-1.33-2.21-3.43-2-5.57-1.72q-13.12,1.69-26.26,3.36c6.31,1.44,12.49-.4,18.73-.86C935.62,453.15,939.92,451.78,944.36,452.68Z"
            fill="#383227" />
        <path
            d="M428,779.44a2.07,2.07,0,0,0,1.87-2.62l-.45-3.77a1.7,1.7,0,0,0-1.37-.46c-1,.54-2,1.19-3.19.68l-.6.63C424.22,776.62,426.17,778,428,779.44Z"
            fill="#76716a" />
        <path
            d="M480.77,805.72a16.94,16.94,0,0,0-11.9-1.06C472.7,806.41,476.63,807.18,480.77,805.72Z"
            fill="#322d29" />
        <path
            d="M722.7,432.86c-4.2,1.36-2.78,5.53-4.19,8.28-5,9.74-9.27,19.84-14.48,29.45A162.17,162.17,0,0,0,693,496.89c-3.41,10.21-6.82,20.33-16.56,26.71,4.47,5.5,4.92,5.26,8.92-.63a79.22,79.22,0,0,0,12.37-29c1.7-8.31,6.51-15.52,10.49-23,3.4-5.41,5.39-12.27,9.71-16.31S724,445.23,728,440.57c-3.39,4.65-6,9-3.26,14.44.84,1.65,1.69,2.27,3.26.89,3.8-3.65,9.81-6.48,3.94-13.2-1.43-1.65.75-4.17,1.88-6.15,2-3.48,1.66-3.23-1.79-6.15-2.48-2.1-.34-6.23-3.06-9.58a78.63,78.63,0,0,1-8.69,21.25C721.09,439,721.89,435.93,722.7,432.86Z"
            fill="#62513d" />
        <path
            d="M794.8,325.81c2.17,25.14,1.57,50-4.94,74.76-2.1,8-6.47,11.82-12.67,15.38-1.79,1-4,1.32-5.34,3.12,1.87,1.32,3.52.83,5.07-.6,14.31-4.89,19.37-17.53,20.88-29.72a208.68,208.68,0,0,0-1.55-60.32A9,9,0,0,0,794.8,325.81Z"
            fill="#4a3f31" />
        <path
            d="M829.71,424.33c.63-1.24,2.73-1.37,2.48-4.12-18.83,7.06-38.9,9.71-56.5,19.68,1,3.41,3.52,2,5.57,1.64,4.15-.64,7.88-2.62,11.85-3.85,10.55-3.28,21.54-4.32,32.3-6.48a13.59,13.59,0,0,0,1.79-.39C830.41,429.55,828.51,426.36,829.71,424.33Z"
            fill="#8d7860" />
        <path
            d="M827.93,429.57l-1.16.25c-5.47,1.8-11.46,1.46-16.78,4-1,.48-1.94.69-1.6,2.05,9.67-1.63,19.37-3.12,29-4.93,6.28-1.17,13-1.43,18.6.26,4.46,1.33,10.24,2.54,13.29,7.32.32.5.6,1.36,1,1.41,8.75,1.29,15.84,7.71,25,7.71-1.48-6.68-7.8-6.38-12.53-8.38L853.2,426.46c-7,.88-14.19.33-21.2,1.71A9.46,9.46,0,0,0,827.93,429.57Z"
            fill="#4b3e30" />
        <path
            d="M776.92,418.47l-5.07.6c-7.76,2.49-12.56,9-18.79,13.55a8.8,8.8,0,0,0,8.13-1.76c4.47-3.44,9-6,15.43-5.14,5.2.71,9.73-3.24,14.28-5.78,4.36-2.43,8.69-4.94,13.09-7.3,1.19-.64,3.11-.06,3.48-2a2.28,2.28,0,0,0-1.39-2.53,4,4,0,0,0-5.14.92c-3.14,3.8-7.77,5.6-11.47,8.61-2.74,2.23-6.2,2.39-9.22,3.78C777.51,422.66,777.21,420.37,776.92,418.47Z"
            fill="#382d23" />
        <path
            d="M665.38,619.46c-3,.78-5.72-.74-8-1.88-6.86-3.43-11.56-.46-15.46,4.52-2.64,3.37-4.47,2.91-6.66-.05-4.38,1.81-8.38,4.89-13.58,3.88-2.48-.53-5.26-1.92-6.25,2,3.68,2.41-.5,4.21-.53,6.32,0,1.43-.45,2.9.41,4.25a2.5,2.5,0,0,0,2.35.94c4.74-5.26,10-9.27,17.76-8.73,3.91.28,6.63-2.51,8.89-5.2,3.13-3.71,6.4-5.64,11.23-3.12,1.54.81,3.82-1,5.16,1.11C663,623.05,665.36,622.54,665.38,619.46Z"
            fill="#ab9c91" />
        <path
            d="M808.39,435.83a32.35,32.35,0,0,1,12.11-4c2.16-.33,4.69.21,6.27-2-15.73,1.38-30.9,5.34-45.88,10.11-1.82.58-3.48,1.61-5.2,0-9.45,3.35-16.27,10.71-24.62,15.74,2.84,1.95,2.82,1.91,5.89.2,4.5-2.52,8.42-6,13.44-7.69,9.27-3.26,18-8,27.63-10.22C801.47,437.13,804.94,436.52,808.39,435.83Z"
            fill="#655341" />
        <path
            d="M728,455.9c-4.89-2.09-3.3-5.79-2.23-9.25s4.37-6,4.75-10.34c-3.95,1.66-4.33,5.34-6.09,7.92-4.8,7-11.36,12.86-14.67,20.95-.79,1.92-2.17,3.54-1.59,5.77,6.19-3.27,11.94-6.81,11.17-15.13a2.55,2.55,0,0,1,2.25-2.58c1.65-.36,2.08.79,2.51,2C725,457.73,726.28,458.1,728,455.9Z"
            fill="#33291b" />
        <path
            d="M615.42,628c1.45-2.58,4.22-1.2,6.25-2a64.73,64.73,0,0,0-7.33-12.76c-1.23-1.67-2.29-3.54-4.88-3.15a7.63,7.63,0,0,1,1.54,5.73c-.29,2.79-.18,5.18-4.36,4.09-1.89-.5-4.1.13-6.16.25,2.17,1.26,5.26.52,6.78,3.29,2.08,3.78-.61,2.48-2.34,2.28-.28,1.36.59,2,1.65,2.48,2.95-.5,5.93,1,8.86-.17Z"
            fill="#453829" />
        <path
            d="M720.46,405.42c0,3,.08,6.05.07,9.07,0,4.33.6,8.44,3.75,11.77,2.94-8.34.15-16.58-.27-24.87a47.59,47.59,0,0,0-2.75-16.12C720.43,392,721.72,398.77,720.46,405.42Z"
            fill="#62513d" />
        <path
            d="M659.74,541c-.14,3.31.24,6.76-2.81,9.21-.59,5.73-4.43,10-7,14.77,9.23-3.19,12.66-10.78,14.93-19.19.3-1.13.41-3-1-3.15-2.41-.29-.67,2.4-1.88,3.22C660.72,544.46,661.7,542.05,659.74,541Z"
            fill="#594633" />
        <path
            d="M720.46,405.42c2.25-6.17.85-12.46,1.7-18.85q.92,7.41,1.84,14.82c1.44-5.59-.94-10.95-1-16.45,0-1.51-1.94-4,2.24-3.58,1.48.16.65-2.43.53-3.74-.15-1.63-.41-3.36-2.83-3.24a29.06,29.06,0,0,1-3.72-.25Q719.87,389.78,720.46,405.42Z"
            fill="#433d32" />
        <path
            d="M934.65,445.19c-6.75,3.08-13.81,1.79-20.78,1.46-3.34-.16-6.64-.85-10-1.3.39,4.34,4.12,4.23,7.09,5.14l2.68,1h0c7,.67,13.71-1.39,20.59-1.93,2.14-.16,2.92-1.41,2.11-3.45Z"
            fill="#a79178" />
        <path
            d="M827.93,429.57c8.5-.41,17.15.4,25.27-3.11-3.28-1.52-6.77-1.43-10.28-1.3-1.93.07-4.22,1.17-5.27-1.59-2.84-1.84-4.78,5.83-7.93.76C825.31,424.83,829,428,827.93,429.57Z"
            fill="#655341" />
        <path
            d="M911,450.49c-2.44-1.6-5.33-2.63-7.09-5.14-7.2-1.55-13.59-5.81-21.16-6.13,4.12,2.87,9.54,3.88,12.53,8.38l2.68.91C902.38,448.69,906.37,451.59,911,450.49Z"
            fill="#846d53" />
        <path
            d="M770.4,448.14c-5.74.2-10,3.66-14.57,6.45-1.53.94-2.68,2.89-4.76,1-1.61.88-3.34,1.62-4.17,3.43C757.85,461.59,763.79,454.19,770.4,448.14Z"
            fill="#362e22" />
        <path
            d="M745.54,422.43a1.3,1.3,0,0,0-1.16-.19c-2.78,5.35.64,10.93-.84,16.71a12.94,12.94,0,0,0,7.23-4.76c-4.41-1.49,1.88-2.5-.17-4.16l-4.83,2.52C746.52,428.65,748.52,425.29,745.54,422.43Z"
            fill="#393127" />
        <path
            d="M936.36,446.13c0,3-2.34,2.92-4.31,3.18-6.12.79-12.26,1.48-18.39,2.2,8.37,2.14,16.49-.63,24.47-2.14C941.2,448.79,938.53,446.55,936.36,446.13Z"
            fill="#383227" />
        <path d="M676.31,523.7l-2.19.38c-1.37,2.53-.89,5.06,0,7.79Z" fill="#62513d" />
        <path d="M673.9,522.94c.17-3.58,0-3.69-5.62-2.79A8.41,8.41,0,0,0,673.9,522.94Z"
            fill="#62513d" />
        <path
            d="M615.51,638.08c.36-1.36,1.62-2.86-.62-3.79-1.91.34-3.73.73-4.4,2.93a2.15,2.15,0,0,1-3.48,1.31c-3.09-2-5.54-.71-6.9,1.78-1.58,2.89-4.21,6-.91,9.62,1.55,1.7,2.79,4-.61,5.42-1.57,2.43-3.6,4.59-4.29,7.51a5.34,5.34,0,0,1-2.51,3.47c-6.74,3.23-12.09,8.46-18.43,12.23h0c-3.14,1.5-7,1.24-9.73,3.74h0a1.12,1.12,0,0,0,.35,1.64c6.89,2,12.74-.82,18-4.6,4.59-3.31,9.2-5.42,14.94-4.45a2.94,2.94,0,0,0,3.55-1.79c-1-4.93,2.36-7.27,6.07-8.39,4.63-1.4,9-3.42,13.75-4.5a11.4,11.4,0,0,0,7.58-5.09,16.27,16.27,0,0,1,4.74-4.93c3.81-2.58,7.45-1.32,8.39,2.86a16.29,16.29,0,0,0,2.2,4.44c.73,1.24,2,2.18,2.36,4.35-3.6,1.13-6.71-1.72-10.09-1.32s-7.9-1.53-8.16,4.83c-.1,2.45-4,1.2-5.66,2.65-.66.48-.31-1.14-.07-.34.09.33.21.13.61-.08,2.47-1.28,2-2.75.47-4.44-1.29-1.46-2.53-3-4.75-1.76-2.4,1.29-4.73,2.52-5.7,5.46-.89,2.68-3.13,4.32-5.87,2.55-5-3.24-5.6-.28-5.82,3.61-.16,2.93.48,5.49,3.3,7,3.71,1.05,5.46-2.53,8-3.83,3.31-1.65,6.44-2.85,9.91-2.44a11.9,11.9,0,0,0,10.66-3.8c.95-1,1.71-2.78,3.44-2.17s1.58,2.69,1.92,4.25a4.59,4.59,0,0,1,.16,1.83c-.91,4.24-.11,8.41,3.9,10.09,4.59,1.92,9.84,4,14.61-.31,1.72-.46,3.53-.61,5.06-1.62a4.82,4.82,0,0,0,1.14-1.37c1.13-2.77.67-4.91-2.63-5.5s-6.32-2.63-9.58-2c4.91-.25,4.85-3.57,4.15-7.29-5.76-10.36.69-17.71,6.52-25.2,2.8-2.37,2.76-5.78,3.4-8.94-1.61-3.47-7.27-.3-8.24-4.83a2,2,0,0,0-1.7-.22,14.51,14.51,0,0,0-5.66,6.45c-2.62,6-7.1,8.79-13.48,9.19a8.64,8.64,0,0,0-4,1.62c-4.38,3-9.47,3.54-14.54,4.14-2.22.58-5-1.25-6.65.56-2.86,3.16-1.36-.59-1.72-1-3.95-4-1.63-5.38,2.64-5.92C613.41,641.43,615.23,640.63,615.51,638.08Z"
            fill="#9e856f" />
        <path
            d="M538.23,704.16c-1.33,2.82-3.11,3.7-5.65,1.31-2.45,4-8.57,4.35-10.17,8.68-1.77,4.78-7.46,5.12-9.28,9.42-.21.48-1.15.87-1.47.08-2.42-6.06-6.12-1.74-9.36-1.12-.72,3.19-6.82,4.4-3.51,9.1a9.11,9.11,0,0,0,6.48,2c11.17-1.4,22.49-1.3,33.6-3.42,2.73-.52,3.78-2.35,4.57-4.58a2.72,2.72,0,0,0-3.28-3.41c-4.74,1.39-9.86.22-14.58,2.16,4.83-4.57,11.21-6.6,16.85-9.83-1.27-3.3-.92-7.15-3.46-10Z"
            fill="#bfa886" />
        <path
            d="M498.25,730.63c-.16-3.43,6.67-3.49,4.05-8.1-7.28-4.22-13.48,1.32-19.61,3.16-4.53,1.37,1.08,5,1.78,7.79l.11.09c2.26,3.27,3.84.86,5.52-.68,1.82,2.73,4.08,3.1,6.74,1.17a3.47,3.47,0,0,0,.74-1A4.17,4.17,0,0,0,498.25,730.63Z"
            fill="#ccbba7" />
        <path
            d="M573.36,678.56a10.45,10.45,0,0,0,8.5-4.39c1-1.27,2.31-3.08,3.59-3.18,10-.81,10.45-9.08,13.13-15.64a10.89,10.89,0,0,0-5,5.16,17.54,17.54,0,0,1-9,8.64C579.43,671.18,576.59,674.89,573.36,678.56Z"
            fill="#d0bc9a" />
        <path
            d="M563.82,683.54c-.05-.42-.11-.83-.16-1.25-.84,0-2.13.44-2.44.06-5-6-7.45.15-10.05,2.44-4.26,3.75-3.62,6.86,1.24,10.13,1.43.33,2-.67,2.07-1.67.25-5.31,3.94-6.26,8.24-6.53a2.21,2.21,0,0,0,1.8-1.68A1.9,1.9,0,0,0,563.82,683.54Z"
            fill="#d0bc9a" />
        <path
            d="M551.42,696.43l-13.19,7.73.28.32c5.08,6.63,8.2,6.39,11.84-.89a5.34,5.34,0,0,0,1.47-2.11C552.24,699.75,553,698,551.42,696.43Z"
            fill="#bca68d" />
        <path
            d="M551.42,696.43c-.25,1.65-.51,3.31-.76,5,4.62-.13,5.87-4.15,7.72-7a53.9,53.9,0,0,0,4.54-8.65c-8.12-2-9.55,3.35-10.51,9.23Z"
            fill="#9f8565" />
        <path d="M563.64,682.3c3.37-.92,7.73.66,9.73-3.74C569,676.94,565.75,678.17,563.64,682.3Z"
            fill="#d0bc9a" />
        <path d="M615.43,628c-3-2.08-5.92-.77-8.86.17C609.52,628,612.55,632.42,615.43,628Z"
            fill="#ab9c91" />
        <path
            d="M569.78,824.62c1.88,2.38,3.54,4.87,4,8,5.7,6.15,6.5,5.85,10.38-2.15,1.24-2.56,2.08-5.55,1.52-7.61-1.4-5.09,1.35-8.88,2.72-13.14,3.67-.58,2.91-3.89,3.93-6.11.32-1.08.63-2.18.93-3.27a21.69,21.69,0,0,1,2.34-7c1.84-2.5,4-5,1.35-8.13-2.38-2.83-5.28-3.68-8.82-2.19a2.72,2.72,0,0,1-2.91-.2,16.68,16.68,0,0,1-2.08-2.52c-5.94-7.28-5.94-7.28-11.69-3.71-1.73,1.27-3.45,2.57-5.81,2.3-4.13-1.66-7.74,2.11-12.21.82-4.1-1.19-7.7-4-12.2-3.83-.89-8.25-6.63-3.15-10.34-3.58-3.43-.4-5.34-3-7.73-4.9-5.85,3-12.13,3.06-18.51,2.9-2.14,0-4.66-.34-6.35,1.74l-1.11,1.37c.87.55,2.19.9,2.55,1.68,5.8,12.55,19.27,8.87,28.93,13.21,2.24,1,5.21.84,7,2.23,8.63,6.54,19,4.34,28.61,5.66,6.36.87,10,3.46,9.2,9.68-.25,2-1.2,4.07,1.22,5.48,2,1.18,5.65,1,5.16,4.41-.45,3.13-3.09,5.38-5.38,7.44C573.38,824.17,571.38,824.17,569.78,824.62Z"
            fill="#322a21" />
        <path
            d="M661.72,680.34a3.8,3.8,0,0,1-.11.89c-.88,1.62-1.43,3.48-3.21,4.49a6.08,6.08,0,0,0-1,1.28c-1.1,4.56-5,1-7.16,2.37a6.9,6.9,0,0,0-1.55.92c-3.19,3.84-1.72,6.33,2.66,6.9,11.16,1.45,9.24,4,9.09,11.79-.09,5,1.08,8.37,6.66,9.4,4.15.77,4.06,4.71,5,7.8.87,2.83,1.2,6.54,5.95,4.56,5.31-1.65,10.46-4,16.19-3.84,1.46.05,2.92-.34,3.11-1.47,1.09-6.47,6.85-8.11,11.29-11.26,6.48-4.59,9-14,6.26-21.55-2.48-6.89-4.82-13.83-7.23-20.75-5.92-7.68-6.31-17-7.06-26.39-3.34,1.11-3.11,4.62-5.71,5.35l-.59.67c-.69,1.63-.85,3.44-1.74,5-1.13,2.24-1.14,4.87-2.14,7-2.9,6.32-6.43,11.9-14.9,12C670.57,675.61,665.53,676.55,661.72,680.34Z"
            fill="#292a30" />
        <path
            d="M712.9,765.27c1.18-2.54,3-4.83,2.86-7.85L712,761.6c.16-4.79-4.2-6.13-5.89-9.4-7.48,5.21-6.23-4.05-9.81-6-.58,2.12,1.24,4.93-2.27,5.54-1.2.21-2.26,1.13-3.46.09a2.38,2.38,0,0,1-.52-2.83c1-3.11,2.37-8.32-.71-8.54-4-.28-3.65,4.89-3.44,8.38,0,.39-.09,1.11-.23,1.13-7.16,1-9.14,10.45-19.36,10.33,8.83-2.37-.12-9,6.58-11.26-4-2.09-4.73,1.73-7.46,2.75.57-2.75,2.6-5.09-.35-7.39-2.08-1.63.18-3.75,1-5.55.76-1.62,2.21-2.34,3.56-1.34,3.88,2.85,3.74-1,5-2.66.19-4.78-2.41-7.86-6.7-6.44-5.05,1.66-8.42.87-11.62-3a4.68,4.68,0,0,0-4.42-1.53c3.74-5.74,7.63-11.58,5.38-19.2-1.25-4.25-7.36-8.14-11.78-7.17-1.95.43-3,1.45-2.4,3.53,2.34,3.49,1.9,8,4.39,11.49a3.07,3.07,0,0,1-.14,3.55c-4.74,6.45-3.79,14.07-4.73,21.3-.29,2.26-.76,5.14,2,5.84,2.11.54,5.73-.72,6.22-2.26,1.24-3.9,2.39-1.63,3.81-.57a3.64,3.64,0,0,0,3.33-.83c-1.94,5.78-7.36,8.3-10.34,12.71a3.19,3.19,0,0,0-.28,1.64c2.87,3.07,5.53-1.38,8.34-.24,1.46.14,3.17.11,2.45,2.34s0,3.92,2.23,4.89a23.53,23.53,0,0,1,3,2.07c2.09,1.52,1.82,5.54,5,5.43,2.68-.09,4.06-3.24,6.56-4.22.42-.11,1.11-.26,1.2,0,2.58,5.94,6.7,5.65,12.16,3.81,2.62-.87,3.73-1.82,4.65-4.09.69-1.71-1.15-5.55,2.89-4.71,2.46.52,5.37-3,6.8.1,1.31,2.83,1.87,6.39-.19,9.53a8.72,8.72,0,0,1-1.3,1.35c-1.32,1.25-2.24,2.6-.7,4.26s3.55,2.43,5.6,1c1.7-1.18,2.95-3,5.16-3.43C715.05,770.46,714.37,768,712.9,765.27Z"
            fill="#665a50" />
        <path
            d="M643.66,701c.61-4.74,3.86-1.95,5.78-1.71,3,.36,6.11,2.12,6.48,5,.9,6.88-.07,13.51-6.17,18.4-1.27,1-.77,3,.15,3.95,1.8,1.76,1.8-1.33,2.15-1.26,2.5.52,5.94,1.11,5.83,4-.18,4.47,1.75,3.15,4,2.19q2-.86,4.11-1.56c4.7-1.58,7.86-.44,8.62,4.81,2.48-.14,2.9-.66,3.36-4.1-3.92.15-3.9-2.71-4.56-5.4-1-4.23-.45-9.89-8.09-8.79-2.15.31-3.75-2.34-3.58-5a55.19,55.19,0,0,0,.31-6.15c-.32-8.13-1-8.93-9.34-9.4-5-.29-6.24-1.7-2.7-5.67-7.56-.28-15.62-2.11-20.31,6.46a3.17,3.17,0,0,0,1.44,2.24c1.81,1.12,4.38-1.06,5.92,1.3C639.19,701.49,641.2,703.17,643.66,701Z"
            fill="#413b35" />
        <path
            d="M668.19,958.16c2.19,1.28.89,3.92,2.25,5.58,7.26-7.75,1.08-15.22-.52-22.88a22.12,22.12,0,0,1,6,8.48c5.82.28,3.16-4.32,4.09-6.85l-1.38-11.09c4,5.6,5.93,10.76,8.9,17.57,1-8.14.88-14.66,4.6-21,2.24,7.41-.21,15.72,5.91,21.15,4.22-9.06,3-17.8-2.88-26-4.35-2.89-4.58-4.81-1.3-10.68,2.78-5,1.39-8.3-4.39-9.86,2.31-4.47,5.44-8.41,7.58-12.86,2.48-1.07,1.54,1.36,1.91,2.06,1.06,2,1.75,4.26,4.83,3.44,2-5.76,3.18-11.5-.26-17.17-5.46-5.74-5.47-8.39-.05-13.83a10.41,10.41,0,0,0,2.81-7.29c.11-3.07.76-6.07.9-9.13a16.51,16.51,0,0,1-1.36-5.81c-.11-1.43-1-3.58-2.23-3-3.93,1.79-2.06-2.39-3.54-2.93-5.56,1.42-3.16,6.64-4.92,9.89a7.24,7.24,0,0,0,0,1.86,4.3,4.3,0,0,0,1.18,2.4c1.92.81,2.75-1,4.16-2.1-.41,2.82-3,3.85-3.62,6-.85.74,3.31,3.4-1.5,3s-9.18,8.73-6.11,12.44c2.19,2.64,2.77,4.34-.33,6.51-1.76,1.24-1.56,3.29-1.19,5.16a8.72,8.72,0,0,1-.19,4.85c-.9-1.4,1.14-4.15-1.86-4.36-1.79-.12-3.1,1.33-3.81,2.86-1,2.07-2.31,4.31-2.15,6.44.35,4.54-1.28,6.09-5.84,5.83-6.61-.38-7.47,6.25-10.52,9.76-2.48,2.85-3.31,7.54-3.16,11.8.06,2.84-1.64,5.07-2.66,7.54-.91,2.22-.07,4,1.55,5.59,2,1.91,3.77,1.06,6.27-1.6a10.67,10.67,0,0,0-.73,7.09c.55,2.9-2.77,3.39-3.56,5.47-1.26,3.31-.1,6.49,3.07,6.93,5.61.76,5.38,3.34,3.62,7.21A1.4,1.4,0,0,0,668.19,958.16Z"
            fill="#b7a28a" />
        <path
            d="M668.19,958.16c1.23-2.85,4.55-5.37,1.46-8.89-1-1.18-1.71-3.13-3.92-1.46-2.93,2.22-3.05-1.11-3.73-2.23a2.41,2.41,0,0,1,1.59-3.83c3.95-.61,3.83-3.2,2.53-5.45-2-3.41,2.13-6.38.17-9.63-1.89-.45-1.57,1.36-2.22,2.18-.93,1.17-1.32,3.76-3.52,2.28-1.59-1.07-3.33-2.89-1.65-5.25s3-4.52,2.92-7.39c-2.57-2.2-2.55-5-1.69-7.86s1.69-5.92,2.8-8.79c1.24-3.25,1.78-6.28-1.44-8.88-2.16-1.75-1-4.7-2.08-6.88-1.68-1.25-3.39-1.82-4.92.14-1.11,1.42-1.55,3.25-.48,4.66,3.14,4.1.94,6-2.6,8.27-5.55,3.55-6.78,9.27-5.38,16.19,1,4.89,1.37,9.79,4.91,13.75a3.56,3.56,0,0,1,.3,4.13c-2.46,4.59-4.83,9.23-7.47,13.71-.85,1.45-2.18,2.88-4.08,2.11s-.93-2.52-1-3.89c-.1-6.76-1.75-8.67-7.84-9,.19,3.3-1.49,7.27,3.26,9,.35.12.87.73.81.84-5.08,8.85,5.18,12,6.86,18.25.9,3.33,2.47,2.56,4.51,1.5l3.36-5.84c1.85.82.46,3,1.88,4,.24-.93.48-1.85,1.18-4.51l1.89,15.21,1.27.17L658,968c1.88-1.61,1.94-1.62,2.23-.67.64,2.08,0,4.49,1.71,6.3,1.34-.5,1.67-1.68,2.62-4.19-.87,4.41-1.27,7.51-.09,10.5.37.95.94,2.14,2.09,1.86,1.53-.37.88-2,1.23-3.08A65.25,65.25,0,0,1,668.19,958.16Z"
            fill="#ccbaa4" />
        <path
            d="M702.72,878.23c2.88,5.28-.27,10.86.74,16.23-.11.18-.32.36-.32.53,0,4.48,3.14,9.85-3.54,11.35.76-5.42,1.83-11.83-3.16-17.27-3.37,3.53-5.63,7.79-8,12-.78,1.37-2.37,3-.9,4.45,1.88,1.93,3.26-.6,4.81-1.31,4.29,5.52-2.39,9-2.48,13.81s.15,6.62,5.23,5.09c.1-.4.2-.81.29-1.21-1-2.82-1.48-5.21,2.91-5.25,2.21,0,3.5-2.76,6-2.34,3.67-.44,3,4.23,5.86,4.79,2.5-.51,3.38-2.28,3.49-4.52.09-1.76-1-3.93,2.75-3.09,1.57.35,1.43-2.19,1.08-3.52-1-3.78-1.36-7.75-3.46-11.39,3,.81,5.86,2.38,8.77,1.58,1.54-.43,1.36-2.68,1.15-4.33A60.91,60.91,0,0,1,726.34,911a10.3,10.3,0,0,0,1,3.56c.71,1.25.31,3.76,3.63,2.3,4.46-2,4.76-1.53,4.4-4.81-.71-6.55-1.58-13,.14-19.62,1.26-4.89-2.17-9-4.55-13.11-.18-.3-.65-.57-.37-1a1.62,1.62,0,0,0,1.73.12c1.27-4.13.94-8.47,1.86-12.69.77-3.53-.77-7-5.53-7.33-2.69,4.86-2.43,10.79-5.77,15.4-.32.89-.21,2.14-1.74,2.06-5.67-.3-6.19,2.6-4.6,7a7,7,0,0,1,.44,4.52c-1.81-1.75-2.61-4.87-5.71-4.93-1.23,0-1.32,1.82-1.29,2,.41-3,2.25-7.73-3.85-9.48-.8-1.19-1.61-2.66-3.28-1.28S701.12,876.64,702.72,878.23Z"
            fill="#9e8771" />
        <path
            d="M725.72,909.21l.58-1.42,1.08,2.35c1.35-7.35-1-14.1-3.28-21.23-3.72,2.46-.17,5.9-2.16,9.13-.75-5.13-7.83,1.34-8.05-5.58-2.09,6.73,2.39,12.1,2.56,18.11-3,.24-1.63-3.48-4.16-4.12-1.75,4,2.1,9.1-2.12,12.61.19,3.54,5.33.92,5.16,6.18,1.9-5,3.07-8.22,4.4-11.41.68-1.62,1.23-3.94,3.86-1.93C726.14,912.41,724.62,909.81,725.72,909.21Z"
            fill="#7b6452" />
        <path
            d="M705.66,945.21c2.56,4.42-5,10.14-4.72,17.57.35,9.86,1.5,19.75.69,29.68-.21,2.57,1.65,5,3.86,7.54.93-5.75.44-11.11.76-16.32.4-6.54-2.24-12.89.12-19.62C708.89,956.87,706.12,949.34,705.66,945.21Z"
            fill="#b7a28a" />
        <path
            d="M719.37,985.5l1.51,1c.49-7,2.19-14-.17-21-1.19-2.89-2.62-6-2.53-9.11.14-4.79,1.26-5.07-3-9.54-1.6,3-.28,6.51-1.78,9.39-2.1,8.44,1.39,15.88,4.4,23.34A17.63,17.63,0,0,1,719.37,985.5Z"
            fill="#a7896e" />
        <path
            d="M704.31,914.27c-1.23,1-.12-4.39-2.68-.85a7.69,7.69,0,0,1-5.61,2.65c-1.76-.05-2.82-.79-3.35,1.55-.56,2.5.34,3.75,2.73,4.24l8,10.1c6.1.18,6.42-.16,5.31-5.63Z"
            fill="#a7896e" />
        <path
            d="M681.09,976.26c2.7-1.93,3.2,2,5.23,1.87.45-9.2,3.37-18.39-.55-28.71C684.44,959,679.2,966.92,681.09,976.26Z"
            fill="#b7a28a" />
        <path d="M679.52,997c-4.25-11.6-1.3-22.18-2.25-33C671,972,671.81,989.06,679.52,997Z"
            fill="#ccbaa4" />
        <path
            d="M708.75,926.33c1.63,5-3.27,4-5.31,5.63,2.5,4,5.85,7.51,7,14C713.55,937.88,713.24,931.9,708.75,926.33Z"
            fill="#a7896e" />
        <path
            d="M723.81,945.76a14.46,14.46,0,0,0-1.3-11c-3.39-4.13-1.08-9.42-2.85-15-2.58,9.37-.73,17.34,1.53,25.3C721.91,945.85,722.59,946.78,723.81,945.76Z"
            fill="#9e8771" />
        <path
            d="M725.72,909.21l-2.13,2.7q.81,6.86,1.61,13.72L728,929C730.29,921.62,726,915.61,725.72,909.21Z"
            fill="#9e8771" />
        <path
            d="M711.49,982.87c.38,1.08.19,3,1.62,2.86,2.12-.21.86-2.28,1.22-3.5a1.66,1.66,0,0,0-.2-2.22c-.71-.38-1.75-1.26-2.06-1C710.56,980,711.82,981.56,711.49,982.87Z"
            fill="#b7a28a" />
        <path
            d="M756.94,942.85c1.41,2.29-1.18,6.43,3.43,7.24,4.32-10.56,4.5-20.87-1.73-30.81a2,2,0,0,0-2.88,0Q756.35,931.09,756.94,942.85Z"
            fill="#c6b09b" />
        <path
            d="M728.27,952.46,725.73,950q1.69,15.53,3.4,31.06c2.67-2,1.47-5.67,3.68-7.83A124.81,124.81,0,0,0,728.27,952.46Z"
            fill="#a7896e" />
        <path
            d="M750.11,917.1a3.07,3.07,0,0,1-3.56-2.5c-1,5.19-.71,10.11,4,15.61C750.38,925,750.25,921,750.11,917.1Z"
            fill="#9e8771" />
        <path
            d="M779.14,823.51c-.3,1.23.21,2.68-1,3.65.72,7.64,3,15.52,1.77,22.85-1.48,8.77,3.1,15.52,4.12,23.62,2.09-1.42.32-3.63,2-5.18,4.16,7.63.22,16.2,3.61,24.22a12.27,12.27,0,0,1-4.34-6.13c-3.33.75-2.36,3.41-2.35,5.47,0,3.48.86,6.93.56,10.44a6.93,6.93,0,0,0,.31,2.12c2,3.47,2.28,7.37,2.82,11.23.32,2.22-.06,5.19,3.57,5.41,2.53-5.62.82-11.67,2-17.44,2.6-6.44,1.38-13.28,2.19-19.9-.12-2,.65-3.93.37-5.93-1.51-7.78-7.18-13.91-8.77-21.66-4-7.18-2.34-14.82-1.76-22.38-.23-1.77-.53-3.51-2.15-4.65C779.54,828.05,781.28,824.85,779.14,823.51Z"
            fill="#ddcfbc" />
        <path
            d="M803.32,886c1.79-5.73,3.52-10.81,1.43-17.55a51.67,51.67,0,0,1-1.63-24.73c1.11-1.94,1.07-3.49-1.45-4.2-3.94,2.75-5.18,7.05-5.28,11.22-.12,5.06-.49,10.18.2,15.25,1,5.51,3.37,10.73,3.52,16.46C800.16,884.09,800.64,886.26,803.32,886Z"
            fill="#ddcfbc" />
        <path
            d="M795,832.19c1.58.87,1.45,2.42,1.56,3.88,5.23,1.7,1.39-3.93,3.78-4.53,2.82-3.17,1.65-6.64.81-10.08-1.15-3.21,2.38-6.09.79-9.3-.89-1.79-.17-5.46-4.28-3.84-2,6.76-1.9,13.88-4,20.62A2.9,2.9,0,0,0,795,832.19Z"
            fill="#e8d8c4" />
        <path
            d="M778,910c3.1-7.67-1-14.81-1.61-22.2-.39-.6-.75-.62-1.09.05-.15,5.33-.5,10.68-.36,16C775,906.1,775.08,908.85,778,910Z"
            fill="#c3a892" />
        <path
            d="M691.17,978.27c2.6,2.77.49,7.23,3.61,9.81,3.37-6.57-.39-12-2.77-18.14C689.46,972.81,691.25,975.63,691.17,978.27Z"
            fill="#b7a28a" />
        <path
            d="M692.89,954.45c-1.72.1-2.07,1.25-2.11,2.64l4.38,9.82C697.66,961.23,693.39,958.24,692.89,954.45Z"
            fill="#b7a28a" />
        <path
            d="M497.08,732c-.53.61-1.32,1.82-1.55,1.73-3.66-1.53-7.31-.44-10.95-.11-2.17,2.22-4.68,3.23-7.8,2.3-1.74-.52-2.93,0-4.27,1.38-1.75,1.81-3.79,2.29-6.71,1.23-4.57-1.68-9.41-2.3-10.86,4.62-.63,3-5.28,4.42-3.81,8.46,1.95,1.28,3.58.42,5.17-.74,2.73-2.26,4.57-4.81,3.12-8.91-.59,7.72-.46,14.78,9.3,16.11a5.33,5.33,0,0,0,3.71-2.36c1.58-5.06,7.17-5.92,10.36-9.4,1.61-1.75,2.25,1.49,3.45,2.28.43.11,1,.2,1.2-.08a22.75,22.75,0,0,1,15.81-11C503.43,733.23,499.73,733.16,497.08,732Z"
            fill="#b29c85" />
        <path
            d="M455.94,749.6l-4.81,2c-4.92,4.14-8.81,9-10.89,15.13,1.18,3.87-2.19,6-3.62,8.84-1.52,3-3.27,5.87-.47,9l2.4,0c.12-.17.26-.5.35-.49,10.47,1.23,15.66-5.25,19.84-13.2-5-2.64-6.56-7.86-3.73-12.73a52,52,0,0,0,3.24-6.63C459.16,749.23,458.3,748.33,455.94,749.6Z"
            fill="#6c5a4d" />
        <path
            d="M424.9,773.27c1.18,2.5,2.33,2.09,3.48,0-.06-5,3.6-8.29,6.12-12.08,2.11-2.32,5.84-1.22,7.93-4.14,3.63-5.06,3.34-7.32-2.35-10.23-2.36,1.62-4.46,3.88-7.43,4.18-6.74.69-9.3,6.08-10.62,10.91C421.12,765.19,423.82,769.44,424.9,773.27Z"
            fill="#2a221b" />
        <path
            d="M434.5,761.16c-5.15,2.51-8.08,6.1-6.12,12.08l.54-.07.54-.12C429.9,768.58,436.28,766.53,434.5,761.16Z"
            fill="#63574c" />
        <path
            d="M723.89,874.31a19.55,19.55,0,0,0,4.58-15.42c1.56-2.54,1.24-5.61,2.5-8.17.83,4.3,4.23,7.67,4.89,12.22a2.87,2.87,0,0,0,4,1.95c2.18-.93.82-2.74.41-4.22.16-.74.09-1.74,1.19-1.71,1.77,0,2.27,1.37,2.58,2.8,2.13,1.09,3.28-.14,4.27-1.76a5.16,5.16,0,0,0-.61-4.75c-4.08-1.76-5-4.38-3.75-8.82,1.72-6.25,1.93-12.93,6.68-18.65,1.72,6.84,2.21,13.16-.64,19.42a8,8,0,0,0,.25,2.8c.91,2,1.21,4.45,3.85,5.73,3-3.29,3.07-7.3,2.69-11.39.79,4.39.08,9,2.85,12.88,2.16,1,4,0,5.8-1,3.2-3.18,1.44-6.47.3-9.79-2.13-6.23-5.64-12-6.65-18.6,4.65-16.25,5.13-33.39,11.07-49.37-.17-2.39.82-5.45-2.17-6.54-2.82-1-4.73,1.44-6.36,3.2-3.1,3.36-6.55,5.72-11.29,5.8a3.69,3.69,0,0,0-1.29,1.16c-.72,2.68,2,3.11,3.21,4.68-1.54.47-3-1-4.41-.07a2.35,2.35,0,0,0-1,1.39c2.11,6.92,0,13.64-1.66,20.18a223.39,223.39,0,0,1-10.1,32.25c.86-7.44-3.27-12.64-8.71-11.24-2.29.59-3.8,1.22-2.54,4.25,1.93,4.64-.47,11.61-5.28,12.75-7.34,1.74-5.06,5.52-3.51,9.67,2.44,3.88.91,7.86.46,11.88C714.78,874.77,717.41,876.71,723.89,874.31Z"
            fill="#d4bfaa" />
        <path
            d="M740.28,860.67c-.49,1.09,1.12,3.19-1.41,3.24a2.07,2.07,0,0,1-2.29-2.35c1-6.15-6.26-9.16-5.4-15.31-.78,4.44-4.78,8-2.71,12.63,4.49,1.28,5.94,5.61,4.07,8.23-2.94,4.12-.58,7.32-.35,10.92,3.53,3.87,3.51,10,7.44,13.19,6.09,4.93,5.32,11.65,6.51,18,3.68,1.17,4.22.48,4.42-5.63-2.87-9.18-5.87-18.33-8.54-27.57-.83-2.86-3.61-5.75,0-9.15C743,865.93,742,862.48,740.28,860.67Z"
            fill="#c6b09b" />
        <path
            d="M751.12,847.11c5.33-7.1,1-14.71,1.55-22.79-7,3.68-7.41,10.33-9.24,16.1-.85,2.66-1,5.47-1.78,8.22-1,3.34-.87,8,5.4,6.52,1.43,6,2.93,11.92,2.83,18.12,0,0-.52.37-.52.37.92,4.12,1.83,8.24,2.79,12.54,2.29-1.2,1.42-3.37,2.4-4.46.69-.76.92.73,1.3,1.26a1.48,1.48,0,0,0,1.72-1c1-10.16-2.35-19.46-5.77-28.74-2.11-3-5.83-5.52-3.25-10.15C750.13,844,747.51,847.6,751.12,847.11Z"
            fill="#c3a892" />
        <path
            d="M747.49,860.08l-3.44,1.68c1.26,4.18,2.33,8.45,5.31,11.89l-.05,0A15.87,15.87,0,0,0,747.49,860.08Z"
            fill="#c3a892" />
        <path
            d="M471.85,755.09l-3.45,1.84c-1.41,1.87-4.22-.17-5.55,2-1.07,1.73-1.73,3.32,1,4.1-.38,1-1.43.59-2.09,1-2.5,1.59-4.47,3.32-2,6.4l6.2-1.91c4.39.14,7.58-3.58,12.24-3.4,2.94.11,5.58-1.36,6.42,2.94.23,1.23,1.9,1.4,3.1.37,1.33-1.21,1.26-3.45,3.19-4.22a12,12,0,0,0,9.47-2.78c-1.29,1.57-1.74,3-.56,4.63,4,3.67,7.56,2.38,10.93-1,1.17-2.38,0-5.45,2.61-7.93,1.91,2.9,4.44,3.72,7.83,2.37,4.72-1.87,5.59-3.62,3.38-8.45-.46-1-1-1.83.23-2.61,2.41-1,5.05-1.71,6.35-4.31a4.4,4.4,0,0,0,0-2.71,4,4,0,0,0-1.08-1.44c-5.48-2.94-10.38-1.44-15.18,2.39,2.08-3.26,2.63-6-.85-8.12-3.8-2.38-7.75-1.23-11.16,3.27-6.11-1.71-10.08,2.63-14.48,5.33-1.55.95,1.43,4.5-2,5.49-4.34.95-7.86,4.41-12.73,3.92C472.16,752.09,472.79,754.31,471.85,755.09Z"
            fill="#755f4b" />
        <path
            d="M459.75,770.41c-1.49-5.9,5.61-5,7.1-8.47-1-1.89-3.61,2.06-3.79-1-.12-1.94,1.82-2.61,3.64-2.15,2,.52,2.86.34,1.7-1.84-3.66-2.91-11.48-3.6-6-11.41.69-1,.13-3.23-.53-4.56-.38-.76-2.25-1.39-3.22-1.15-1.52.36-2.35,2.88-1.66,3.33,4.76,3.09-.58,4.37-1,6.46.09,3.12-.48,6.11-2.68,8.48-1.84,2-4.18,3.64-.72,6.14.42.31.84,1.29.65,1.66-4,8.07,2.93,4.17,5.55,5A9.79,9.79,0,0,1,459.75,770.41Z"
            fill="#9b846d" />
        <path
            d="M510,764c-2.91,3.47-6.39,3-10,1.46.26,2.06-1.77,3.33-1.91,5.26,0,.42.11.84.16,1.26,4.69.31,9.36-.44,14.1-.07,3.93.3,8.13-.49,10.78-4.23.09-.27.18-.54.28-.81-.33-1-1.07-2.17-2.06-2-3.33.47-6.07-1.06-9-2.07A4.34,4.34,0,0,0,510,764Z"
            fill="#4f402e" />
        <path
            d="M487.71,768.41c-5.22-.4-1.27-3.9-1.84-6.4-6.86,2.18-14.57.48-19.92,6.49.66,3.32,3.23,3.94,5.71,2.94a20.44,20.44,0,0,1,15.66-.15C488.26,771.66,488.36,771.43,487.71,768.41Z"
            fill="#493d32" />
        <path
            d="M438.56,784.52c3.93,2.45,7,5,4.51,10.46-1.23,2.76,2,4.18,4,5.61a16.26,16.26,0,0,0,6.71,3.24c-.49-.87-.75-2.1-1.5-2.53-3-1.74-5.53-3-3-7.45C450.62,791.39,442.56,784.75,438.56,784.52Z"
            fill="#6c5a4d" />
        <path
            d="M498.1,770.76c1-1.65,3.57-2.71,1.91-5.26.17-1.62.34-3.23.59-5.53-2.86,3.17-7,1.7-9.7,4.22a6.67,6.67,0,0,1,.84,2.25c-.06,3.92-.66,8.35,5,2.94C497.52,768.66,497.88,770,498.1,770.76Z"
            fill="#493d32" />
        <path
            d="M712.9,765.27c-2.43,1.14,2.4,4.76-1.88,5.27-.64,1.7.31,3,1.22,4.2,3.59,4.55,9,3.34,14.14,4-2,6.27-7.14,11.81-3.41,18.73,1,2,1.85,4.28,4.78,2.22,1.74-2.3,2.67-5.07,4.24-7.48,1.77-2.7,2-6.75,7.63-4.89,3,1,3.87-2.82,3.37-5.75,0-1,.25-2.72-.16-2.89-2.49-1.06-1.8,3-4.47,2.62-1.59-4.11-.18-7.7,2.42-11,.63-.81,1.88-1.48,1.16-2.56-.92-1.4-2.29-.74-3.18.15-2.81,2.8-5.7,3.93-8.63.9-3.23,1.28,2.44,4.89-1.8,5.2-3.75.27-7.62-.47-10.15-3.77-.8-1.06.49-1.76,1.13-2.53,1-1.18,2.9-2.26.89-4.07s-2.64-.11-3.81,1.21C715.82,765.48,714.1,765.15,712.9,765.27Z"
            fill="#917d71" />
        <path
            d="M743,781.6c-1.54,6.6-5,5.4-9.33,1.26-.11,6.58-5.29,10.27-6.41,15.76,2.67,1.43,3.66-.84,5-2.2,3.23,5.12,2.51,11.47,5.07,16.86.55,1.15,1,2.36,2.34,2.62a3,3,0,0,0,3.43-2.13c.92-2.85,4.12-5.8.2-8.78-.16-.13-.92-.56-.41-.52,1.7.12,3,.12,2.84-2-.1-1.25-1.29-2.26-1.31-3.41-.06-4.14,1.38-8,3.08-11.71h0c1.62-1.4.63-3.72,1.91-5.24h0c1.94-2.06,5.63-3.12,4.17-7.11a2.05,2.05,0,0,0-2.47.58C748.17,777.21,748.17,782.8,743,781.6Z"
            fill="#ae9680" />
        <path
            d="M790.18,790.36q-2.43-12-4.87-24c-2.41-.91-4.73-3-7.43-.57.54,3.41-5.34,4.87-2.82,8.89,3,5.84,5,12.12,8.21,17.88A1.74,1.74,0,0,0,785,793a3.28,3.28,0,0,0,1-1.48,21,21,0,0,0-.95-7.38,13.1,13.1,0,0,1,.68,2.78c.33,2.32.91,4.48,3.38,5.53C790.3,792.15,791,791.6,790.18,790.36Z"
            fill="#e6d2c0" />
        <path
            d="M776.29,773.84c-.39-1.22-1.69-2.84.35-3.47,3.21-1,1.78-2.8,1.24-4.55-4.66-1.36-8.59.31-12.3,2.89-1.8,1.95-4.31,2.25-6.69,2.93-2.11.61-4.63.84-5.13,3.7l-4.31,6.73c5.48.78,9.34-1.51,13.13-5.44,4.95-5.14,5.32-4.8,6.8,1.63.52.39,1.5.64,1.65.29,1.16-2.63,2.77-1.83,4.48-.76C776.93,776.7,775.42,775.05,776.29,773.84Z"
            fill="#c1ab94" />
        <path
            d="M753.76,775.34a9,9,0,0,1,6.8-2.58c3.59.39,4.24-1.64,5-4-5-1.71-11.65,1.43-14.43,6.83Z"
            fill="#917d71" />
        <path
            d="M630.9,936.12c5.17,1.54,7.32,4.82,6.28,10.18-.32,1.62-1.84,4.08.74,4.83,2.32.67,5.23.58,6.7-2,2.93-5.23,5.57-10.62,8.5-15.84a3.41,3.41,0,0,0-.17-4c-3.14-4.15-3.7-9.05-5.18-13.73-1.55-4.92-.89-7.83,1.14-11.62a8.14,8.14,0,0,1,4.94-4.43c5.34-1.61,4.94-5.19,2-8.24a3,3,0,0,1-.92-3.49c.6-2.59,2.67-1.19,4.1-1.53a10.05,10.05,0,0,0,2.4-2.47c1.53-1.73,3.09-3.42,2.54-6-.27-1.3.37-2.26,1.33-3.26a14.06,14.06,0,0,0-2-20.78c-2.28-1.61-3.48-.68-4.05,1.62-.72,2.93.79,5.5,1.64,8.33-1.34-.83-1.59-2.14-2.26-3.16-1.16-1.81-2.44-3.6-4.95-2.95-2.27.58-3.28,2.43-3.57,4.65a20.12,20.12,0,0,1-.27,2.46c-.34,1.29-1,2.45-2.51,2.29-1.8-.19-2.27-1.56-2.23-3.17,0-.83-.2.13.11-.6,3.58-8.38,3.93-17.74,8.49-25.88,1.93-3.44,3.51-1.35,5.41-.7,1.82-.29,2.49-1.67,3.06-3.13a9.08,9.08,0,0,0,.35-2.69c-1.53-5.5,2.81-9.93,3-15.3.09-2.95-.7-5.94.22-9.11,1.19-4.09,5.12-5.81,6.65-9.35-1.74-3-4.16-2-6.32-.78s-3.81.89-5.24-1c-3-1.74-5.85-2.93-6.57-7.3-.87-5.41-7.25-2.47-8.71-2-7.87,2.7-16.91,4-21.84,12.1a14.51,14.51,0,0,0-2,3.87c-.83,3.21-.93,6.26,2.51,8.12s4.7-1.34,6.91-3.53c1.11,2.79-2.21,7.71,4,7.55-9.25.1-10.07,1.32-12.39,9.25-2.27,7.72-5.86,15.08-11.67,21.07-1.46,1.5-3.23,3-3.29,5.12s-.61,5.61,3.79,3.79a16.52,16.52,0,0,1,2.89-3.16c1.78-1.16,2.7-5.64,5.61-2.71,2.39,2.4-1.31,4.19-2.56,6-1.47,2.18-4.39,3.21-5.21,6-.28,7.67-1.65,15.23-2.43,22.85-.15,1.47-.63,3.36,1.07,3.8,5.12,1.32,2.93,4.28,2,7.18-1.6,5.3-4,10.57.25,15.91,1.28,1.58.38,4,.73,6.09.72,4.26,3,5.79,7.13,4,2-.86,3.94-1.86,6-1.73,3.6.23-.06,1.77.3,2.64a28.88,28.88,0,0,0-3.31,10c-.23,2.25-.49,5.56,3.85,3.84,1-1.4.25-3.66,2.27-4.8C632.47,931.41,629.82,933.94,630.9,936.12Z"
            fill="#dfd0bb" />
        <path
            d="M611.64,853.21c-5.41-1.81-2.87-4.8-.54-6.77,7.07-6,9.48-14.46,13.36-22.17a4.47,4.47,0,0,0,.63-3c-.94-2.79-1.39-5.32,2.81-4.38,2.29.51,4-4.28,6.37-.36.92,1.51,2.63,1.2,3.77,0a1.68,1.68,0,0,0-.64-2.59c-5.72-.45-3.69-5-4.46-8-.23-.89-.39-1.81-.59-2.77-2.09.72-2.72,2.38-3.77,3.62s-1.1,3.57-3.56,2.19a4.24,4.24,0,0,1-2.54-3.93c0-4.58,7.51-13.36,12.14-13.91A22.18,22.18,0,0,0,643.3,788c1.69-1,2.39-3.16,4.35.36,1.64,2.93,2.55-2.25,5.13-1.73.34,4.58,1.37,9.18,7.8,9,2.36-1.55,4.45-3.14,1-5.69-.38-.89-3,1.48-1.86-.91,1.36-2.74,3.58-5.11,5.36-7.68,1.53-2.18,1.57-4.22-.74-6s-4.46-2.67-6.6-.06c-1.44,1.77-1.12,2-2.4-.46-2.24-4.21-4.06.73-6.17,1.07-1.62-3.49-.33-6.48,2.37-9.44,2.54-2.78,1.35-4.75-2-6a14.28,14.28,0,0,0-16.65,5.79c-2.41,3.75-5.78,7-3.52,11.94-4.93,3.62-5.74,10.63-11.56,13.5-2.23,5.73-6.63,10-10.54,14.48-2.63,3-5,6.11-4.84,10.37a2.8,2.8,0,0,1-.38,1.8c-5.91,7.36-3.3,14.09,1.4,20.7,1.45,2.36,3.83-1.69,5.27.72,2.85,4.85-1.59,5.26-4.26,6.76-1.19,2.79-1.8,5.19.1,8.34,1.67,2.75-.89,6.17-1.87,10.89C606.88,861.18,610.76,858.28,611.64,853.21Z"
            fill="#d2bfa8" />
        <path
            d="M595.63,846.49c.39,3.29.77,6.57,1.15,9.86,2.28-3.16,3.16-6.82,3.9-10.52-.12-5.73-3.17-10.72-3.3-16.74-.16-7.62,2.31-14.55,3-21.85,0-.6.14-1.2.85-1.48,8.32-3.26,12.68-7.74,18-18.55-1.5-6.47-.16-11.94,5.09-16.6,3.2-2.83,6.35-6,7.27-10.49.15-1.69.26-3.69-1.53-4.33-2.35-.84-3.18,1.48-4.16,2.93a42.83,42.83,0,0,1-19,15.55,29.93,29.93,0,0,0-5,3.85c-2.75,2.42-.63,4.74.81,6.53,1.77,2.19,3.78,1,5.15-.87.85-1.19,1.71-2.35,2.67-3.45-1.91,2.74-3.73,5.52-7.4,6.37a2.3,2.3,0,0,0-1.54,2.51c.86,6.82-3.35,11.26-7.47,15.78a13.06,13.06,0,0,0-2,3.17c-2.39,5.07-1.21,10.52-1.63,15.77-.17,2.15.43,4.46-.07,6.71a8.6,8.6,0,0,0,1.63,7.54C593.93,840.57,596.12,843.06,595.63,846.49Z"
            fill="#977f62" />
        <path
            d="M628.9,920.1c2-1.47,2.92-3.34,2.37-6.66-3.28,3.77-8.12,1.66-11.71,4.86-2.36,2.1-3.6-.8-4.12-3.33-1.79-8.82-3.6-17.56-.35-26.52,1.23-3.37,1.7-7.18-5.37-2.48,5.69-7.1-.49-14.84,5.07-20.8,1.91-2-2.6-3.38-2.42-5.79-4.74,2.52-6.86,7-8.88,11.56-.33.74-.9,1.93-.59,2.33,3.22,4.15,2.93,9.29,4.31,14,.82,2.72,2.68,4.68,6.09,2.1-1.74,3.45-3.3,7-5.27,10.33-4.31,7.27-3.78,13.63,2.87,19.22a6.1,6.1,0,0,1,1.79,4.52c.17,1.22.35,2.43.52,3.65C619.27,926.56,624.36,923.94,628.9,920.1Z"
            fill="#d2bfa8" />
        <path
            d="M618.66,787c-5.83,5.68-8.83,13.52-15.11,19.36-1.71-1.33,1.22-3-.34-4.09-8.22,5.2-9.7,30.54-2.53,43.54,2.06-1.79,1.06-4.8,2.8-6.71.45-1.71,1.2-3-.52-5-3.07-3.46-4.92-7.6-1.21-12a8.6,8.6,0,0,0,2.37-7.06c-.46-5,5-7.58,7.52-11.42,2.43-3.65,7.2-6,6.5-11.4C619.35,790.59,622.7,789.15,618.66,787Z"
            fill="#b6a184" />
        <path
            d="M598.22,878.71c-5.13,8.46-5,16.33.29,22.6a9.72,9.72,0,0,1,1.67-7.66c3.45-5.07,0-9.72-.26-14.55C599.92,878.94,598.81,878.84,598.22,878.71Z"
            fill="#a89986" />
        <path
            d="M596,879.12l2.25-.38a19.84,19.84,0,0,1,1.53-2.65c2.57-3.34,2.51-6.16-1.45-8.34C595.3,871.1,595.07,875,596,879.12Z"
            fill="#a89986" />
        <path d="M604.49,846.6c4.14,1.22,6.51-1.67,7.76-4.42s-1.56-2.58-3.5-2.34Z" fill="#dfd0bb" />
        <path
            d="M594.36,857.87,594,862c2.84,1.4,4.44-3.71,7.28-1.12,1-.77,2.09-1.65,1.52-3a2.6,2.6,0,0,0-3.1-1.22c-1.07.25-2.26,2.53-2.92-.33Z"
            fill="#977f62" />
        <path d="M598.47,901.27l1.23,8.48c4.43-2.79.49-7,3.13-11.49Z" fill="#a89986" />
        <path
            d="M595.63,846.49c2-1.79,2.31-3.13.23-5.56-2.92-3.42-6-7.17-3.13-12.51,1.5-2.84-1.85-5.52-1.5-8.83.43-4,1.49-7.84,2-11.78l-.06-.8c-.14-1.61-.24-3.24-2-4.11-1.52,2-.66,5-2.85,6.79,4.06,7,.57,14-.69,20.85-.53,2.84-1.2,4.76,1.14,6.89C591.64,840,592.39,844.17,595.63,846.49Z"
            fill="#695b4d" />
        <path
            d="M628.9,920.1c-5.22,2.34-11.14,3.11-15.69,6.94,1.53,4.85,5.88,7.59,9.26,10.71,4.41,4,5.1-.42,5.56-3.79-3.14-.09-3.08-2.14-2.45-4.22C626.56,926.49,627.78,923.31,628.9,920.1Z"
            fill="#c9baa5" />
        <path
            d="M803.94,800.31q-.18-6.25-.35-12.53c1.08-1.66,1.1-3.16-1.17-3.55-1.25-.21-2-.26-2.46-1.16a2.11,2.11,0,0,0-.92-.76l0-.12c-2.24-5.51-1-11.68-3.24-17.19l-.4-1.17a6.09,6.09,0,0,0-.59,1c-.5,1.62,1.17,4.09-1.21,4.85s-2.1-2.55-4.32-3.58c4.14,11.66,6.15,23.34,8.5,35a.94.94,0,0,0,1.12.24C801,802.71,803.19,805.07,803.94,800.31Z"
            fill="#e6d2c0" />
        <path
            d="M694.87,650.83c1.36-5.13,4.54-10.09.63-15.56a11,11,0,0,0-4.35-4.06c-3.46-.29-4.58,1.64-4,4.55,1.79,8.61-3.59,14-8.78,19.56a106.34,106.34,0,0,1-11.06,7c-2.27,1.16-4.47,2.41-4.46,5.41a7.13,7.13,0,0,0,.38,1.89c2.32,7.69,2.79,7.51,10.93,7.08,11.74-.62,14.71-8.87,17.37-17.73.52-2.94,2.2-5.45,3.31-8.17Z"
            fill="#e4d0ba" />
        <path
            d="M679,656.59c6-3.49,11.55-14.48,9.65-20.71-.94-3.11,1.13-3.41,2.48-4.67-3.49-1.45-7.36-5.59-9.48,1.67-.37,1.26-2.08,1-3-.25,0-5.44-3.69-2-5.79-2.34-2.25.89-3.15,2.77-3.74,4.88-.9,4.21,2.09,5.8,5.09,7.46,6.18,3.4,7,6,4.21,12.43A1.61,1.61,0,0,0,679,656.59Z"
            fill="#b79a7d" />
        <path
            d="M673.11,631.17c1.36,2.25,4.77-2.92,5.54,1.46,1.06-4.28,5.06-5.9,8-8.49-3.29-1.63-6.31-.82-9.21,1.06a2.23,2.23,0,0,0,2.2.68c-.28.61-.92.51-1.4.68C675.89,627.43,673.61,628.34,673.11,631.17Z"
            fill="#694f3f" />
        <path
            d="M673.11,631.17c1.9-1.16,3.79-2.36,5.71-3.49.84-.49,2.15-.94,1.47-2-.35-.53-1.87-.34-2.87-.47a2.27,2.27,0,0,0-1,.32c-3.81,1.17-7.7,2.18-10.55,5.23l-1.33.94c-3.93,1.61-1.36,6.27-4.12,8.43-.76,9.09-7,16.91-6.32,26.34a16.53,16.53,0,0,0,3,7.89c1.8,2.42,4.75,1.83,6.84,1.58,2.49-.29.85-3,.91-4.64a3.36,3.36,0,0,0-1-2.78l0,0c-.94-5.44,4-7.64,6.47-11.16,4.35-1.41,5.08-3.15,2.59-7.59-2.31-4.14-5.37-9-2.66-14.43C671.35,634,671.17,631.89,673.11,631.17Z"
            fill="#32251e" />
        <path
            d="M655,627l1.31-.13c1.4-1.19,2.43-2.86,4.39-3.32.25-.95,1.34-2.37.39-2.79-2.67-1.2-5.64,1.76-8.61-.64-3.69-3-5.35.6-7.44,2.83-3.85,4.13-7.8,6.9-14.45,6.52-5.92-.35-10.73,4.14-13.62,9.66-.27,1,.3,1.81,1.16,1.62,6.45-1.46,13.25-3.19,18.76-6a66.74,66.74,0,0,0,13.06-8.83C652.11,624,653.94,623.79,655,627Z"
            fill="#6f615c" />
        <path d="M665.88,630.75l10.55-5.23C672,625.37,668.18,626.62,665.88,630.75Z"
            fill="#694f3f" />
        <path
            d="M744.76,948.66c.65-9.36,1.19-18.66-8.49-24.56-.77-.47-1-1.74-1.53-2.63-2.12,4,1.23,7.3,1.38,11C740.72,937,743,942.67,744.76,948.66Z"
            fill="#9e8771" />
        <path
            d="M655,627c-.33-1.3,2.56-2.62.44-3.56-1.51-.66-4.5-2-5.23-.39-2.14,4.87-7.84,3.73-10.71,7.06-5.91,6.86-15,6-22.53,9l-1.45-1c-2,3.45-6,1.78-8.94,3.26-3.53,1.81-5,3.56-.72,5.49,3.8,1.72,1.4,3.24.37,5.36,3.15-3.37,7.18-2.07,10.68-2.92,4-4.79,9.64-3.65,14.81-4.26a5.07,5.07,0,0,1,1.76-.66C645.78,644.73,649.67,635,655,627Z"
            fill="#443b38" />
        <path
            d="M630.62,697.58c2.83-3.48,5.76-6.9,11-5.43,3.21.89,5.46-2,8.43-1.83h0c1.77-3.55,6-1.39,8.39-3.61l0,0c1.51-3.07-1.09-3.49-2.92-4.41-4.3,3.74-13.21,2.26-15.94-2.8-1.52-2.82.81-5.83-.2-9-.72-2.3-1.23-4.46-3.31-5.46-3.29-1.58-2.57,2.3-4,3.32-3.1,2.19-5.4,5.41-10.45,3.76-3.27-1.07-7.12,2.51-9.93,2.78-4.09.38-4.26,4.45-7.39,4.63-.13.26-.27.52-.41.78.84,1.69,2.42,1.66,3.79,1.16,4-1.44,7.75-.59,11.53.49-2.93,1.52-3.71,7.67-9.13,4.16-.52-.33-1.49.63-1.82,1.44-2.3,5.7-6.92,4-10.61,2.64-4-1.54-5.48-.23-7.16,3.15-4.62,9.29-7.38,10.66-16,8.93-2.82.19-7-2.73-7.36,3.12a4.72,4.72,0,0,0,4,2.37c1.45.13,2.91.09,4.37.34,2.09.36,3.79.4,1.68,3.26-1.14,1.54.86,2.87,2.36,3.71,3.2,2.07,4.76,6.24,9.25,6.72,1.93.21,3.69.76,4.69-1.54,1.88-4.3,5.81-6.81,9.06-9.92,2.93-3.57,5.54-7.72,11.34-5.76,1.49-.09,2.52.8,3.59,1.63,2.64.84,5.27,1.72,7.39,3.6a3.4,3.4,0,0,0,1.65.45c4-2.65.35-4.78-.49-7.52C628.48,702,630.89,700.87,630.62,697.58Z"
            fill="#64513b" />
        <path
            d="M600.64,672.66c1.41-2.06,2.32-6.73,5.2-.94.71,1.44,2.56,1.5,3.1.5,1.23-2.25,5.63-1.32,5.06-5-.59-3.86,3.5-3.23,5.15-4.89s.91,1.7,1.9,2.6c3.15,2.86-.48,2-1.67,2.29-.75.15-1.66-.42-2.17.6,2.52,2,5.95,1.71,13.82-1,.67-2.13-3.44-.72-2.44-3.3.93-2.4,2.72-1,4.14-1.35,4-1.05,7.31,1.19,10.95,1.79,1.7.27,3.36.92,4.54-.84s-1.08-2.28-1.55-3.42c-1.44-3.54-7.42-6.2-2.41-11.21.23-.23-.81-1.7-1.25-2.59a9.56,9.56,0,0,1-7.48.89c-2.45-.61-6.4,2.65-7.86,5.77-1.89,4.07-5.09,5.27-9,6.79-6.12,2.37-13,2.53-18.38,7.59-3.36,3.16-2,4,.34,5.78Z"
            fill="#c0ac97" />
        <path
            d="M563.82,683.54a1.21,1.21,0,0,0,.09,1.19c-.08,1.39,3.37-.52,2,2.12a6.28,6.28,0,0,0-.56,2.36c-.12,1.87-1.25,6.66-1.77,7.32,1.41,5,5.18,5.91,9.76,5.4,2-1.18,3.13-2.91,2.46-5.18-.71-2.43-.25-4,2.34-4.79,1.57-.5,3.62-1,3.24-3.16-.49-2.65-3-2.4-5.78-2.62a79.85,79.85,0,0,1,14.17-7.61c3.45-1.46,7.64-3,10.87,1.2a2.17,2.17,0,0,0,3.34.06l.32-.36c-2.32-1.7-1.56-5-3.68-6.82h0c-1.85,1.9-3.83.07-5.54.25-4.35.47-9.13.3-12.63,3.9C577.38,682,570.64,682.94,563.82,683.54Z"
            fill="#5d4c3b" />
        <path
            d="M663.89,668.51c-.64,2.15,1.88,5-.85,6.4-1.08.57-4,1.18-4.69-1.42-.77-2.8-3.73-4.48-3.76-7.59-.35-.53-.69-.55-1,0,.1,6.74.1,6.74-7.68,4.24,1.68,3,5.2,5.05,13.24,6.22,3.4.49,2.93,1.87,2.58,4,6.3-1.52,12.58-3,19-4,7.27-1.15,9.35-7.68,11.5-13.36.83-2.19,1.34-4.71,2-7.08-2-1.08-2.83.18-3.53,1.72-1.23,2.8-2.55,5.57-3.67,8.42-2.54,6.43-9.92,10.61-16.84,10.33C664.46,676.14,666.68,670.54,663.89,668.51Z"
            fill="#7d6551" />
        <path
            d="M653.58,665.93c.34,0,.67,0,1,0,.22-2.66.51-5.32,2.09-7.6,3.84-5.57,4.06-11.82,3.75-18.18-.61-.11-1.7-.45-1.77-.3-2,4-4.83,7.51-6.77,11.33A12.93,12.93,0,0,0,653.58,665.93Z"
            fill="#6e5343" />
        <path
            d="M631.71,645c-4.75-4-9.42.86-14.2.35-1.09-.12-.79,2.48-.61,3.91C622,648.5,627.74,649.75,631.71,645Z"
            fill="#756255" />
        <path d="M655.56,682.27c.86,1.55,2.87,2.35,2.92,4.41,3-.73,5.39-1.81,3.13-5.45Z"
            fill="#413b35" />
        <path
            d="M542,713.8c-5.07,2.4-10.32,4.19-15.15,7.41-3,2-1.94,3.68-3.66,5.91,7.45-2.09,13.57-4.32,20.11-2.07.28.08.55.17.82.27,2.83-.42,5.65-.85,8.5-.18,2.1.16,4.17.66,6.29.3.61-.16,1.58-.36,1.63-.76.64-5.09,3.07-9.88,3.41-14.88.31-4.56-2.07-8.24-7.9-7.43a5.34,5.34,0,0,0-2.68.62C551,708,545.34,709.72,542,713.8Z"
            fill="#d9c7aa" />
        <path
            d="M502.86,737.5c3-1.74,5.79-4.44,9.78-2.47,2.53,1.25,5.14,2.47,1,5-1.61,1-2.89,2.31-1.78,4,1.31,2,3.21.53,4.31-.42,4.15-3.54,8.84-4,13.93-3.1,1.57-5.78,6.28-7.62,11.47-8.89a5.29,5.29,0,0,0,3.91-2.8c.37-1.82-.66-2.87-2.07-3.71l0,0c-2.22,3.79-6,3.06-9.58,3.87-6.92,1.55-14,1-20.85,2.35-4.88,1-9.87,1.58-14.65-.64L497.08,732C497.41,735.42,502.61,734,502.86,737.5Z"
            fill="#988066" />
        <path
            d="M542,713.8c5-2.12,10.38-3.81,11.53-10.16-1.09-1.44-2.81,0-4-.83-.81.17-2.19.15-2.34.54-2,5.61-2.17,5.66-7.52,1.59a4.87,4.87,0,0,0-1.15-.47C540.44,707.31,537.78,711.83,542,713.8Z"
            fill="#998166" />
        <path
            d="M549.52,702.81c1.1,1.41,2.59,1,4,.83l2.42-.5a7.61,7.61,0,0,0,1.44-.88c1.91-2.39,5.53-3,6.66-6.18.53-2.88,6.5.35,4.22-1.66-3.46-3,3.05-9.56-4.38-9.69l-1,1c-4.79,1.78-4.33,7.2-7.33,10.24-1.73,1.75-3.29,3.64-4.93,5.46Z"
            fill="#433425" />
        <path
            d="M523.14,767.72c2.27,5.9,6,7.45,12.12,5,1.65-.66,3.51-1,4.54.74,1.3,2.16-2.86.57-2.09,2.63,3.67,2.44,9.61.34,11.91,5.77.54,1.3,1.87.61,2.57-.2,1.75-2,3.19-.95,4.93.07s3.64,3.16,4.48-1.48c.53-3,2.66.73,4.2.72,1.82-4.63,6.75-8.57,3.4-14.37-3.67-.92-6.93,1-10.4,1.5-2,.73-4.14,1.13-5.94-.1-4-2.76-7.74-1.07-11.67.37-1.72-1.31-1.13-3.69-2.23-5.33-1.79-2.59-4.33-1.5-6.69-1.32-3.64,1-6.9,2.52-9,5.8Z"
            fill="#4f402e" />
        <path
            d="M593.23,807.81c5-5.3,11.57-9.76,9.65-18.55-.26-1.19.92-2,1.82-2.2,5-.92,5.81-6.15,9.33-8.65-3.42.06-5.65,1.86-7.12,4.81-.61,1.21-1.35,2.11-2.89,1.34,1.36-2.16-4.26-3.18-1-5.39,1.8-1.24,3.3-2.47,4.06-4.49l-.74-.44c-4.27.93-7.18-5.53-11.94-2.1-.32.23-.73-.15-.7-.65.32-6-5.45-4.1-8.16-6.17-2.66.2-5,2.32-7.89,1.24-1.52-.56-3.38-1.43-4.42.62-1.17,2.33,1.19,3.14,2.33,4.45,4.78,1.66,9,3.65,6.86,10l1.55,2.21c2.19.66,4-.54,5.9-1.22,2.92-1.05,5.92-1.68,7.21,2,1.18,3.31,2.1,7-3.08,8.18-.87,2.44-2.23,4.78-1.74,7.53,1,2.43-.45,5.2,1,7.56Z"
            fill="#6f5a41" />
        <path
            d="M582.39,781.59c3.7-5.67,2.44-8.85-3.73-9.6a13.36,13.36,0,0,1-2.79-1,3.5,3.5,0,0,0-2.91-.35c-3.8,1.91-5.67,4.13-1.14,7.28C578.06,771.6,579.23,779.37,582.39,781.59Z"
            fill="#4f402e" />
        <path
            d="M594,792.75c1.59.42,3.7,1.24,4.16-1,.76-3.71,1.41-7.57-.87-11.15-1.52-2.38-2.7-.08-4.09.08a25.63,25.63,0,0,0-9.23,3.12c.65,3.35,2.7,1.76,4.08.87,3.3-2.13,5.84-1.17,8.08,1.46C598.85,789.36,595,790.63,594,792.75Z"
            fill="#4f402e" />
        <path
            d="M571.82,778c-2-2.77-1.31-4.91,1.61-6.52-.63-2.31-1.1-4.78-4.44-4.47,1.5,5.23-4.35,8.87-3.19,14C568,780.3,570.18,779.68,571.82,778Z"
            fill="#6f5a41" />
        <path
            d="M593.27,807.84c-.32-2.52,2.32-5.45-1-7.56-.35.87-.69,1.75-1,2.62C591.9,804.55,591.15,806.78,593.27,807.84Z"
            fill="#977f62" />
        <path
            d="M658.46,686.7c-3.22.24-7.91-2.88-8.39,3.61,1,0,2.3-.42,3,0C658.29,694,658.09,690,658.46,686.7Z"
            fill="#413b35" />
        <path
            d="M690.7,657.63l3.53-1.72c1.37-1.56.73-3.36.64-5.09C692.53,652.53,690.32,654.32,690.7,657.63Z"
            fill="#9b7f6e" />
        <path
            d="M607.05,774.68c5.46.8,9.23-3.18,12.4-6,3.81-3.34,7.73-7.3,9.62-12.51,1.88,1.34,1.27,2.92,1.56,4.24.63.22,1.43.18,1.69-.33,3.32-6.46,9.61-6.12,15.5-6.69,3.38-3.34,7.14-6.41,9.95-10.16,1.13-1.5,4.56-4,1.71-6.34-3.13-2.59-1.4,4.22-4.49,2.8-.58-.28-1.47-.58-1.77-.19-2.66,3.43-5.84,5.75-10.48,5.61-.68,0-1.16,1.06-1.76,1.6,3.61-7-.1-15.6-7.24-16.84a4.25,4.25,0,0,0-4.4,1.84,6.12,6.12,0,0,1-4.75,2.62,6.74,6.74,0,0,0,.17,5.48c-2,.09-2.23-2.26-3.8-2.73a20.67,20.67,0,0,0-3.25-1.18c-1-.19-2.7-.54-2.79.45-.47,5.57-4.45,3.64-7.53,3.68a7.78,7.78,0,0,0-1.74,0c-3.46,2.67-6.66,4.21-11.76,3.77-3.92-.33-6.5,4.86-6.7,9.55a5.72,5.72,0,0,0,4.52,2.71c2.37-.42,4.52-.22,6.4,1.57s4,2.77,7.07.77c-1.13,2-2.44,2.73-3.37,3.84-1.38,1.65-4.6,2.36-3.65,5.19.76,2.26,3.83,2.41,5.44,2.27,4.74-.41,3.62,2.39,3.45,4.89Z"
            fill="#b39c7e" />
        <path
            d="M647.82,753.43c-2.41-1.75-11.8-.7-13.42,1.54-1.29,1.8-2.51,3.65-3.77,5.48-2.82,5.63-8.07,9.3-11.77,14.22-3.07,4.1-2.8,8.21-.2,12.35,2,1.94-.16,3.49-.52,5.21,3.12-.29,5.52-1,6.17-4.86.33-2,2.21-4,3.85-5.54,2.48-2.31,6.87-3.88,1.62-7.63a.92.92,0,0,1-.37-.49c-.16-1,8.6-11.6,9.59-11.39a5.33,5.33,0,0,0,4.17-.62c3.16-1.86,6.67-.14,8.29,1.56,1.35,1.41-2.05,4.11-3.62,5.57-2,1.82-3.62,2.39-.78,4.87,3.59,3.12-3.19,1.62-1.69,4.45,3.79,1.4,5.72-2.49,8.65-3.93,1.85,1.85-2,4.37.85,6.11,1.77-.32,2.65-1.9,3.28-3.25,1.63-3.48,3.37-1.62,5.43-.58,2.86,1.44,1.4,2.82.24,4.36-1.86,2.49-3.71,5-5.53,7.53-.83,1.17-3.91,1.52-2.3,3.48,2,2.37,3.6-.26,5.21-1.34,1.34-1,2.2.07,3.16.66,3.49,2.16,6.47,1.93,8.75-1.78,1.49-2.59,2.79-11.38,2-13.71-2.77-.45-4.2-2.53-5.71-4.51-2.7-3.52-5.6-4.91-8.59-1.11-1.22-3.43,2.43-7,0-10.73-2,0-2.89-1-1.72-2.72,4.73-6.94-.78-4.55-4-4.32-2.16,1-4,2.67-6.52,2.81-1.51.09-1.7-.6-.85-1.72Z"
            fill="#bba892" />
        <path
            d="M625,734.86c1.24,1.26,3.46,1.33,3.92.31,4.05-9,7.19-1.72,10.27.53,4.72,3.44,2.76,7.48.4,11.38-.57.95-2.41,1.17-1.44,3.54,3-3.25,6-5,10.76-4.51,2.65.28,2.78-5.29,6.11-6.38l-3.37-4.41c-3-.33,3,9.58-5,4.18-2-1.31.59,2.83-1.64,3.27-.37-.47-1.14-1-1.06-1.41,1.6-8.36-.79-17.52,5.28-25,.81-1,1.75-2.47.84-3.35-3.25-3.14-3.4-7.23-4.17-11.19-.08-.39-1.44-.54-2.2-.8-2.46.42-4.36-1-6.42-1.86-1.61-1.25-3.63,1.73-5.14-.46l-1.48-1.14c-1.68,3.45-4.34,4.47-7.93,2.56-.53,3,2.3,3.16,2.87,4.72s3.57,3.07.15,4.72a2.43,2.43,0,0,0-.19,2.86c1.8,3.19,2.38,5.88-.18,9.43-2.39,3.28-.44,5.8,3.54,5.75-1.08,2.22-3.81,3.15-4.45,5.67A1.62,1.62,0,0,0,625,734.86Z"
            fill="#947e64" />
        <path
            d="M674.7,776.27q-1.11,6.45-2.2,12.9l.78.41c5.61-1.15,4.61-8.36,9.81-8.56.17,2.22-4.56,6.14,0,9.79,6.66-.77,7.62-2.27,9.2-14.32,4.86-.59,7.68,2.82,10.95,5.37,4.45-1.12,7-4.43,9.5-7.89L711,770.54c-1.76.31-3.77-.22-4.76,2.13-2,4.81-3.8,1.42-5.87,0,4.32-3.22,6.37-10.65,4.37-15.11-.82-1.83-2.8-2.83-4-1.58-3,3-5.46,1.67-8-.26-1.89,2.13,0,4.49-1,6.11s.57,8.28-4.78,2.74c-1.29-1.34-2.31.07-2.81,1.15a9.6,9.6,0,0,1-2.85,4.08c-1.12-7.24-1.83-8-7-7.18C672.83,767.19,671.26,771.8,674.7,776.27Z"
            fill="#a18c7d" />
        <path
            d="M674.7,776.27l-.36-13.7-6.6,5.08a11.1,11.1,0,0,0-6.84-8.3c-1.29,4.2-2.8,8.38-.44,12.88,2.78-3.84,5.48-5.13,8.29.61C669.51,774.41,671.09,777.94,674.7,776.27Z"
            fill="#7f6e63" />
        <path
            d="M647.83,753.4c-1.72.32-3.78,1-2.9,3,.78,1.8,2.48-.16,3.74-.18,3.08,0,5-1.6,6.53-3.9C652.39,750.25,650.64,755.41,647.83,753.4Z"
            fill="#b39c7e" />
        <path d="M632.1,698.72c1,7.66,3.54-.86,5.14.46C636.13,692.71,633.76,699.35,632.1,698.72Z"
            fill="#64513b" />
        <path
            d="M747.54,787.31c-5.5,4.93-6.26,9.28-2.73,15.84-2.41,1.49-2.71-2.22-5.62-1.6,2.16,4.39,8,9.07.83,13.57-4.52-4.75-1.29-11.83-5.7-16.83-2.15-2.43-2-3.2-5.31-.3a5.17,5.17,0,0,1-1.76.63c-2,1.25-2,1.25-2.89-2.08-2.63.17-5.18,1.61-7.78-.9-1.9-1.83-3.68-.27-4.65,1.86-1.24,2.83-1.47,5.8-5.22,7.58-2.83,1.34-3.32,5.77-3.07,9,.83,10.65,1.09,21.33,1.91,32a2.84,2.84,0,0,0,1,1.55,17.24,17.24,0,0,0-1.84,7c0,4.2.76,9.19-6,10.18-2.89.42-.79,3.49-.82,5.25-.05,3.54.56,7,4.87,8.23,0-1.54-.82-3.34,1.28-4.3.36.92.73,1.83,1.09,2.75,4.78-.2,4.91-3.69,4.78-7-.1-2.5-.62-4.72,1.61-6.86.8-.77,0-2.34,2.24-1.14,1.88,1,2.86-.58,3.09-2.55.21-1.81-2-3.31-.54-5.2-1-2.49-5.25-5.65,2.54-5.19,2.8.16,5.9-5.83,7.82-9.91,1.69-3.56.59-5.68-3.24-7.33,7.14-1.62,9.26.28,9.34,6.88,0,1.52,1.11,3,2,5.16,6.78-11.92,9.42-24.72,12.5-37.32C748.71,800.06,751.44,793.67,747.54,787.31Z"
            fill="#c1ab94" />
        <path
            d="M660,883.54a2.6,2.6,0,0,0-.92,2.64c-.64,3.32-2.36,6.83,2.41,8.82,2.15.89,1.15,2.77.63,4.31-1.3,3.92-2.59,7.83-4,11.72s-.61,6.44,3.67,7.46c-1.26-4.73,3-8.36,2.67-12.91,5.42-.18,5.08-11.74,13.55-6.65,1,.6,4.2-1.68,3.31-5.14-1.19-4.6,1.27-8.23,4.36-11.73,1.32,1.87-.29,2.64-.59,3.73-.54,1.89-.13,3.57,2,3.79s2.11-1.83,2.27-3.14a25.62,25.62,0,0,0-.24-4.93c-.14-2.09-1.29-4.14,2.3-5.23,1.48-.46,4.57-3.87.49-6.28-3.92-2.31-4.18-5-.51-7.65,1.75-1.27.8-3.69,2.67-4.78,1.88.32,2.36,2.95,4.56,2.75,2.38-2.78,1.25-4.84-1.37-6.6.71-1.29.77-2.51-.46-3.55l-.4-2.49c-4.33,2.27-8.54,4.82-10,9.76-.67,2.29-.88,3.91-3.91,3-2-.63-3,1-3.66,2.58-1,2.13-1.32.11-1.93-.29-4.91.8-6.85,4.73-7.67,8.58C668,877,664.2,880.28,660,883.54Z"
            fill="#c1af97" />
        <path
            d="M706.54,847.59C706,836.41,707,825.16,705,814c-.48-2.71,1.12-5.33,2-7.55,1.43-3.46,1.82,2.26,4.12.9-2.08-3.86,3.37-6.62,1.82-10.75,1.18-3-.92-3.3-2.89-3-2.73.48-4.44,2-4,3.78-2-3.69-1.64-9.21-2-14.63-6.64-6.32-9.09-5.74-13.22,3a14,14,0,0,0-1.45,5.33c-.27,4.68-.73,9.32-2.51,13.74a2.65,2.65,0,0,0,3.44.27c4.74-4,5.55.21,6.26,3.08s.89,5.73,2.56,8.09c2,2.87,1.1,4.89-1.29,6.81-1.19,1.93-1.13,3.37,1.51,3.81,3.63,2.37,4.18,5.06.82,8.16-.1.26-.2.52-.29.77,1.23,1.14-2.32,5.6,3.11,4.06,1.6-.46,1.63,2.12,1.27,3.41C703.76,845.55,704.26,846.94,706.54,847.59Z"
            fill="#a18c7d" />
        <path
            d="M700.06,825.85c-2.35.37-2-.94-1.52-2.35,1.89-6.87-.17-11-6.5-13-2.6-.83-3.49.64-3.73,2.73a13.77,13.77,0,0,0,2.1,9.49c4.29,6.22,2.69,11.62-1.78,16.87-1.48,1.73-3.21,3.4-2.25,6,3,3.06,6.62-.49,9.8.77,2.36-3.12.42-7.74,3.82-10.5l0,0C698.86,832.55,701.86,829.21,700.06,825.85Z"
            fill="#917a66" />
        <path
            d="M696.18,846.37c-2.85-3.58-5.87-.33-8.82-.17-2.74,1.48-3.36,4.86-6,6.44-1.14,1.81-2.5,3.28-4.93,3.12a2.3,2.3,0,0,0-1.15,1.17c-.34,2.1.71,3.88,1.34,5.76,0,1.78-.08,3.57-.14,6,3.09-1.85,3.66-4.63,4.52-7.55,3.57,1.84,7.92,5.38,6.65-2.83-.35-2.32.35-5.25,4.17-4.5,2.17.43,2.58-.67,2.4-2.39s-.15-3.36,2.15-3.71C696.31,847.24,696.25,846.81,696.18,846.37Z"
            fill="#a18c7d" />
        <path
            d="M696.44,889.07c1.92,7.17,4,14.33.3,22.82,3.52-2.36,2.73-7.77,7.91-6.11,1.19.38,1-2.24,1-3.65,0-2.77-1.36-5.15-2.22-7.67-5-1.4-2.92-6.91-5.81-9.63C695.58,885.79,696.64,887.62,696.44,889.07Z"
            fill="#7d6a58" />
        <path
            d="M696.78,850.17c.15,1.18.31,2.37.46,3.56a3.65,3.65,0,0,0,1.19-.3c2.2-1.57,4.69-3.37,4-6.28s-2.3-2.37-3.52.08A22.5,22.5,0,0,1,696.78,850.17Z"
            fill="#a18c7d" />
        <path
            d="M716.27,854c-1.8.33-1.59,1.31-1.11,2.68s1.29,3.22-.11,3.93c-1.67.85-3-.61-3.55-2.32-2.45,1.13,2.08,6.51-3.89,5.27-1.14-.23-.74,1.52-.2,2.82,1.59,3.81,2.4,7.74-2.32,10.34l.93,2.86c6.87-2.9,2.33,2.09,2.46,3.59a12.09,12.09,0,0,0,3.4,7.57c2.2-3-1.83-4.86-.36-7.41l6.3,7.13c1-3.32,1.64-6.42-.31-9.61-2.31-3.76,1.82-4.13,3-3.48,5,2.71,3.69-.49,3.37-3-6.26.55-8.78-1.89-6.48-7.49C719.4,862,717.89,858.12,716.27,854Z"
            fill="#b7a28a" />
        <path
            d="M767.21,845.08a27.71,27.71,0,0,1,2.61,14.83c-.69,7.65,1.23,15.06,4.65,22l2.21-1.63c-.42-4.3-1.5-8.66-1.14-12.9,1.24-14.47-4.34-27.49-8-40.93-3.87-1-3.34,2-3.43,3.93C763.81,835.52,765.82,840.25,767.21,845.08Z"
            fill="#ddcfbc" />
        <path
            d="M471.85,755.09c2.09-3.84,7,.6,9.71-3.19a15.39,15.39,0,0,1,4.86-3.58c-.69-1.51.69-4.33-3.16-3.77-2.13.31-4.13-.35-4.59,2.56-.24,1.54,0,2.85-2.9,2.47C472.51,749.14,471.44,752,471.85,755.09Z"
            fill="#9b846d" />
        <path
            d="M757.65,827.28l3.61,6.89c2.41,1.78,3.17-.44,3-1.75-.46-4,1.09-7.67,1.25-11.7.74,1.76,1.56,3.3,3.41,3.91.73.9,1.45,1.8,3,3.78-.12-7.52,1.17-13.57,4-19.23a6.92,6.92,0,0,0,3-6.59c0-2.66-1.31-5-2-7.43-.42-.72,1-.53.23-.22-.13,0,0,.19,0,.45.24,1.64,1,2.59,2.86,2.2a2.37,2.37,0,0,0,1.31-1.43,26.16,26.16,0,0,0-5.94-18.72c-2.8-5.42-4,1.36-6.1.82-2.07,3.59-1.5,8.7-6.43,10.66a1.81,1.81,0,0,0-.55,1.63C766.34,803.47,758.57,815,757.65,827.28Z"
            fill="#e8d8c4" />
        <path
            d="M750.37,852.2l.84-2.32-.09-2.77c-2.29-1.52-.17-2.8.25-4.19s.27-2.53-1.26-3a2.74,2.74,0,0,0-2.85.81C744.36,843.89,746.11,850.36,750.37,852.2Z"
            fill="#c3a892" />
        <path
            d="M747.49,860.08q.9,6.81,1.82,13.61c1.18.41,3,2.8,2.71-1-.51-6-2.53-11.59-4-17.35a.61.61,0,0,0-.4-.37c-.18,0-.38.12-.58.2C747.2,856.8,747.34,858.44,747.49,860.08Z"
            fill="#c3a892" />
        <path
            d="M749.45,782.07c-2.19,1.2-2.32,3.13-1.91,5.24,1,.22,2,.39,2.92.65,1.5.41,3,3.44,4.39.89,1-1.77-.8-3.82-3-4.44A2.91,2.91,0,0,1,749.45,782.07Z"
            fill="#c1ab94" />
        <path
            d="M532.8,762.67c1.65,1.33,3.7-1.52,5.28.47,1.47,1.3.07,3.79,2.46,5.14,2.27-3.37,2.42-7.57,5.75-11.06-.58.08-.26.74.27.8,2.67.3,5.47,4.29,7.75,1.06,1.89-2.68-2-4.47-3.41-6.61A60.88,60.88,0,0,1,542,747c-3.26-.92-6.66-.19-10-.7-1.85-.29-4.83-1.12-5.16,1.74s2.4,3.25,4.93,3.52c-3.66,0-5.83-2.48-8.47-4.05-2.18,1.81-2.44,2.08-.71,3.73,2.08,2,3.54,4.59.61,5.62-1.69.59-5.18,5.72-7.65-.31-1.06-2.61-3.72-3.05-4.92.84A13.14,13.14,0,0,0,510,764l2.54-.1a2.47,2.47,0,0,1,3.27-.87c5.4,2,10.64,2.13,15.52-1.48A2.43,2.43,0,0,0,532.8,762.67Z"
            fill="#988066" />
        <path
            d="M545.28,728.17c-2.44,2.66-6.1,2.23-9.13,3.37-4.45,1.68-7.25,3.84-6.1,8.93.05.41.12.82.19,1.23,3.27,3.07,6.51-1.8,9.77-.06,3.36-.36,7.64.54,7-5.15-.06-.62.58,0,.81.1a4.14,4.14,0,0,0,4.64-.6c1.66-2.2,1.58-4-1.55-4.26a15.87,15.87,0,0,0-6.87,1c1.57-.93,3.48-.42,4.91-1.28,2.49-1.51,2.7-3.07-.24-4.37A3.79,3.79,0,0,0,545.28,728.17Z"
            fill="#836a4d" />
        <path
            d="M523.31,747.54c3.87,5.71,7.33,6.47,13.38,2.67-3-1.24-7.08,2-9.52-3,5.59.65,10.44,1.65,15.28.45.08-.3.15-.6.23-.9a5.38,5.38,0,0,0-1.07-2.53,5.82,5.82,0,0,0-5.77-2.07c-1.81.46-3.2,2.09-5.26,1.89Z"
            fill="#705942" />
        <path
            d="M530.58,744.07c2,2.63,3.32-.51,5-.67.76-1.45,2.93-1.3,3.48-3-3.39-2.73-5.64,2.48-8.81,1.29C530.35,742.49,530.47,743.28,530.58,744.07Z"
            fill="#988066" />
        <path
            d="M532.8,762.67l-2.43-4.16c-1.68.65.8,9.41-4.65,2.23a.84.84,0,0,0-1.5.14c-1.42,5.25-4.46,1.45-6.78,1.19-2-.22-4.68-2.48-4.86,1.87,2.33,4.7,8,0,10.68,3.61C527.08,767.13,529.27,763.62,532.8,762.67Z"
            fill="#755f4b" />
        <path
            d="M703.55,782.71c.75,3.43-3.25,6.47-.27,10.4,2,2.6,2.33,6.39,3.74,10.66.87-2.34,6.46-2.46,1-5.58-1.3-.74-.65-1.69.3-2.36,1.85-1.3,3.69-2.47,4.72.81,1.07-.56,2.38-1.54,3.21-.07,2.8,5,5.43,3.38,8.15,0-4.07-7.49,3-12.52,4.34-18.86-5.17-1.78-11.43.86-15.92-3.71-4,1.43-6.22,5-9.3,7.55-.29.29-.37.56-.25.81S703.46,782.72,703.55,782.71Z"
            fill="#b5a08c" />
        <path
            d="M681.85,853.27c3.78-.89,4.33-4.21,5.51-7.07-1.19-3.15,1.67-4.37,3.15-6.18,4.94-6,5.36-10.41,1.67-17.26a17.4,17.4,0,0,1-2.09-5.75c-.25-1.88-1.83-4.7.54-5.62s1.57,3.18,2.32,3.17c7.28-.17,4.23,5.7,5.59,8.94,4.2-1.41,6.18-3.1,2.35-7.38-1.71-1.91-3.47-4.86-2.24-7.93,1.74-4.37-6.55-4-2.7-9.25-4.61,1.28-4.36,6.75-8.7,5.94-2.08,3-2.21,6.76-4.42,10-2-4.08,4.91-8.64-.78-12.15a3.42,3.42,0,0,0-4,2.58c1.17,2.78,0,4.39-2.74,5.23-4.13,2.51-9.56,12.67-8.79,16.54.45,2.27,1.91,1.79,3.22.82a13.08,13.08,0,0,0,3.35-4.26c-1.63,2.18-2.74,6.71-8.1,6.06-2.17.11-.56,4.2-3.64,3.35l-2.05,3c.79,4.77,1.88,5.43,9,5.24-3.59,3.85-4,8-1.62,12.36,2.08,3.8,6,2.4,9.19,2.83l0,0C677.61,849.68,677.67,849.65,681.85,853.27Z"
            fill="#b39e87" />
        <path
            d="M675.85,856.5c-2.58,1.18-3.19-6.81-7.05-1.37-.58.82-2.92-8.77-.95-11.23a59.88,59.88,0,0,1,4.81-4.61c-5.28-.18-11,3.42-13.35-3.23-3-.26,1-4.83-2.51-4.24-2.29.37-3.29,2.71-4.51,4.76-4.9,8.31-4.86,18.12-8.86,26.67-1.86,4,1.52,5.65,4.07,6.12,2.72.5,4.78-2.62,4.47-4.8-.4-2.77-.76-5.42,2.13-6,3.36-.72,3.11,3.2,4.46,5.05.88,1.19.44,3.83,2.9,3.16s3.39-2.73,1.19-4.62c-2.71-2.33-1.7-5.16-2.43-8.46,6.18,3.27,6.79,8.58,7.86,13.61.2.94.08,2.75-.36,2.91-6.45,2.36-4.39,9.36-7.72,13.36,2.73-.31,4.18-2.1,6.21-3.74,5.82-4.68,3.85-13.38,10.42-17.11C678.94,860.3,675.86,858.6,675.85,856.5Z"
            fill="#cdbba2" />
        <path
            d="M664.83,830.17c4.42.93,12.26-6.22,11.32-10.34-.12-.54-.53-1.32-1-1.43A1.76,1.76,0,0,0,673,820c-.45,3.3-2.43,5.58-4.85,7.86,2.14-12,2.55-12.82,8.26-16.7a4.77,4.77,0,0,0,1.61-4.78,3,3,0,0,1-.1-2.41c2.61-4.11,3.45-7.23-3.4-6.61-.45,0-1-.75-1.55-1l-.79.33c-5.94,3.51-9.35,7.62-7.92,15.45.45,2.46.47,7.49-2.71,10.81-1.64,1.71-.79,5.08-.39,7.71C662.57,831.94,663.65,830.7,664.83,830.17Z"
            fill="#cbb9a7" />
        <path
            d="M672.5,789.17c-2.42,2.17-5,2.86-7.76.69-1.48-1.16-2.59-.79-3.53.67,2.95,2.07-.74,3.38-.63,5.13.5,2.83.71,5.69,4.78,2.46,1.74-1.38,4.13-3,6.79-1.37l.08-.06c2.76-2.42,1.48-5,.27-7.51Z"
            fill="#cbb9a7" />
        <path
            d="M664.83,830.17c-1.43-1.12-2.41.79-3.7.55.07.79.15,1.58.23,2.37,2.12.56.94,3.51,3.32,4.24C666.8,835,662.48,832.38,664.83,830.17Z"
            fill="#cdbba2" />
        <path
            d="M614.83,832.43c-.82-.38-1.17-.7-1.5-.68-2.72.16-5.53.3-7.12,3a1.39,1.39,0,0,0,1,1.92C610.63,836.87,613,835.26,614.83,832.43Z"
            fill="#dfd0bb" />
        <path
            d="M668.84,656.61c-2.74,3.52-7.48,6.24-4.92,11.86a4,4,0,0,1,3.23-4.48c4.58-1.43,8.15-4.57,11.87-7.4a6.74,6.74,0,0,1-.08-1.19C675.35,653.94,672.12,655.52,668.84,656.61Z"
            fill="#89715d" />
        <path
            d="M668.84,656.61l10.1-1.21c4.9-4.87,3.38-10.38-2.88-13.34-2.45-1.16-6.64-2.26-5.75-6.77-3.37,5.33-1.8,13.62,3.57,18.53C672.82,655.84,669.67,654.25,668.84,656.61Z"
            fill="#694f3f" />
        <path
            d="M624.85,733.54a47.76,47.76,0,0,0,4.46-4.3c.8-1,2.6-1.91,1.42-3.65a3.31,3.31,0,0,0-1.9-1.48c-2.65-.28.25,3.2-2.69,3.31.38-2.57-1.69-5.61,2.54-6.91,2.28-.69,1.39-1.94.67-3.32-1.29-2.5-2.44-5.07-3.64-7.61l0,0c-1.07-1-2.24-2.14-3.79-1.23-3.56,2.09-3.47-1.07-4.4-2.8-.53-1.3.34-4.34-2.89-2.24-2.48,2.9-4.92,5.81-2.56,10-2.45.34-5.12-2.4-6.45.49-1,2.19,1.18,4.19,2.37,6,1,1.48,3.29,1.94,3.31,3.53-3.45-3.32-7-7.26-7.49-12.89-.09-.91-1.74-1-2.56-1.64-2.63,4.07-7.75,6-9.41,11.19-.38,1.21-4.33-.22-6.62-1.34s-1.86-4.63-4.93-4.65a6.25,6.25,0,0,0-1.27,5.86,4.07,4.07,0,0,0,1.1,1.37c5.21,2.17,9.29,6.48,16,5.82,3.33-.33,5.55-1.14,7.73-3.3-1.19,2.76-1.34,5.93-5.86,5.66-2.28-.14-2.13,2.63-.76,4.31a24.87,24.87,0,0,0,9.32,7.09h0c3.36,1.18,3.66-1.74,4.57-3.51,2.68-5.14,2.6-5.17,6.38-.31a2.2,2.2,0,0,0,2.61.73C621.88,736.54,620.56,732,624.85,733.54Z"
            fill="#846d4f" />
        <path
            d="M604,679.83c-3.78-2.35-7.16-5.77-12.43-3.58-6.4,2.66-12.86,5.15-17.81,10.1,1.65,3.38,5.47-1.12,6.56,2.86-.21,1.38-1.71,1.12-2.85,1.33-3.7.69-6.55,1.9-3.14,6,1.63,2-.5,3-.67,4.44a2.75,2.75,0,0,0,1.44,2.38c7.83,2.79,12.44.46,16.91-9.28,1.35-2.94,1.87-3.36,5.36-2.35,4.07,1.18,10.39,4.59,12-3.82.3-1.56,1.76-1.25,2.27-.39,2.74,4.56,5.14.34,5.59-.93,1.08-3,2.51-4.47,6.31-3.58-5.9-3.08-11.16-6-17.33-2.5C605.79,680.77,604.77,680.08,604,679.83Z"
            fill="#382d23" />
        <path
            d="M556.21,702.23a2.21,2.21,0,0,0-.25.91c1.39,2.13,5.68-.73,6.17,4.79.32,3.59.08,5.39-2.12,7.63-1.6,1.62-.92,3.54-.17,5.17.83,1.81,1.06,3.09-1.28,3.72,2.15,5.35,7.69,4.23,11.19,4a11.11,11.11,0,0,0,10.1-8.07h0c-3.57-1.79-5.44-6.13-10-6.23-.39-2.91,3.08-4.74,1.72-7.67L568,705.39C564.77,701.77,561,700.09,556.21,702.23Z"
            fill="#bfa886" />
        <path
            d="M601.27,708.87c1.28,6.21,5.19,11,9,15.77.78,1,1.33,2.06,2.88,2,0-5.32-5.88-7.7-6.46-12.81,2.68-.4,4.41,2.44,7.56,1.68-2.46-4.11-1.25-8.16.42-12.17C608.4,701,604.71,704.6,601.27,708.87Z"
            fill="#947e64" />
        <path
            d="M571.61,706.47c-1.08,2-2.5,3.83-3.16,5.93-.52,1.66-3.18,6.05,2.62,3.21,1-.5,2.58.17,2.57,1,0,4.86,3.83,3,6.2,3.73q.24-3.17.47-6.31c-6.31-5.09,2.53-2.86,2.22-5.65C579.27,707.42,575.77,705.63,571.61,706.47Z"
            fill="#a0815c" />
        <path
            d="M556.21,702.23c4.2,0,8,1.59,11.76,3.16,1.09-5.13,5-.39,7.13-2a2.07,2.07,0,0,0-1.44-2.38c-4.75,1.3-7.28-1.59-9.59-4.89C561.08,697.67,557.57,698.62,556.21,702.23Z"
            fill="#a0815c" />
        <path
            d="M617.54,705.6c-.06,1.59-2.92,2.92-.43,4.75,2,1.46,3.6,1.64,5.18-.67.9-1.31,2.28-.15,3.44,0C624.1,706.13,621.42,704.69,617.54,705.6Z"
            fill="#947e64" />
        <path
            d="M579.85,720.38c-6.84,6.73-14.17,8.13-21.29,4.07-2.09.12-4.06-1.4-6.22-.47-.52,1.9-3.46,1.63-3.59,3.88,1.33,1,1.53,2-.21,2.59-1.94.65-4.19.31-5.9,1.71-.75.62-3,.21-1.89,2.18.63,1.08,1.66,1.62,3,.29,2.09-2.11,5-1.46,7.65-1.78,1.72-.21,1,1.26.86,2.16,2.48,1.67,5.55.86,8.3,2.11,3.79,1.72,6.29,3.82,6.55,8,1.69,2.68,4.71,2,7.16,2.84,3,1,6.21,2,8.36,4.66,1.48,1.83,3.18,2.64,5.18.59,4.92-9.83,4.92-9.83,13.74-6.26,1-2.54,1.58-5.57,5.08-6.11-1.17-2.29-3.33-3.63-5.26-5.16-1.72-1.36-3.49-2.64-4.46-5.66,4.68,2,7.89,2.07,7.49-3.69-.21-3,2.66.6,3-2.22-2.1-1.3-3.39-2.49-7,.28-2.16,1.65-7.72,2.75-11.62,0C586.06,722.54,583.28,720.76,579.85,720.38Z"
            fill="#a0815c" />
        <path d="M548.75,727.86c.87-1.58,5-.24,3.59-3.88a8,8,0,0,0-9,1.09l1.92,3.11Z"
            fill="#bfa886" />
        <path
            d="M587.79,753.25c-.63.06-1.65.39-1.83.13-4.55-6.22-12-6.46-18.45-8.83-1.75-1.11-3.15-.65-4.29,1-.81,1.78-.57,3.7-.78,5.57a11.39,11.39,0,0,0,3.75,9.43c-1.71,2.69-4.69,1.87-6.79,3-3.3,1.8-3.83,4-1.44,6.27A38.85,38.85,0,0,0,569,767l4.44,4.47,2.45-.41-2.84-4.9c5.11,3.59,8.93,2.74,12.5-.06,1.11-1.2.62-2.71,1-4.34.16,4.43,2.67,6.41,6.61,5.38s2.59-4.45,2-7.17c-.4-2-1-4-3.37-4.67Z"
            fill="#8d704f" />
        <path
            d="M558,769.79c-2-4,1.22-5.43,3.77-5.39,3.19,0,4.76-2,7.69-3.31-4.12-2.26-5.35-5.87-6.2-9.69-.5-.38-1.45-.69-1.64-.33-2.66,4.95-6.07,2.22-9.34,1a2.15,2.15,0,0,0-1.4.94c-1.93,3.36,4.32,2.67,2.45,6.21a40,40,0,0,0-11.85-3.7c4.44,4.47-4.85,7.18-.94,11.32-.81-1.23-1.61-2.47-2.42-3.71.23,2-.09,4.23,1.24,6,1,1.32,2.41,4.91,3.58,0,2.61,1.74,4.9-2.69,7.76-.27C552.67,770.49,555.24,771.53,558,769.79Z"
            fill="#6d563e" />
        <path
            d="M591.83,755.27a10.09,10.09,0,0,1,2,5.73c.11,1.94,2.6,4.78-1.44,5.26-2.85.33-4.78-1-3.81-4.5a2.94,2.94,0,0,0-1.66-3.67c-3.66,2.14-1.93,5.16-1.38,8,2.37,1.2,4,4,8.32,2.26L590.59,774c1.76,2,2.86,0,4.08-.24,2.21-.51,4.41-3.59,6,1.22.58,1.72,4.17.51,6.34-.31-.18-2.57,4.55-1.92,3.41-4.86-.36-.94-2.51-2.22-2.83-2-3.06,2.2-5.63-1.78-8.82-.76,2.33-2.1,4.64-4.2,7-6.28,1.4-1.24,2.28-2.83.92-4.3-2-2.12-2.07.79-3,1.44-2.62,1.89-4-.29-5.08-1.76C596.56,753.33,594.44,753.16,591.83,755.27Z"
            fill="#977f62" />
        <path
            d="M617.56,737.06c-.57-2.85,0-6.3-5.29-5.08-2.46.57-2,.72-2,2.73a6.23,6.23,0,0,1-3.66,6.17c2.63,2.66,6.86-1.71,8.61,2.35C618.38,741.48,611.75,737.54,617.56,737.06Z"
            fill="#a0815c" />
        <path
            d="M624.85,733.54c-.42-1.07.92-2.67-.51-3.25s-1.67,1-2.42,1.87c-1.49,1.76-2.61,3.31-1.75,5.63,1.86,3,3.84,5.72,7.75,3,.59-3-6.33-1.72-2.95-5.9Z"
            fill="#a0815c" />
        <path d="M631.7,704.43c.08,5,2.89,7.28,7.34,10C636.71,710.29,635,707.31,631.7,704.43Z"
            fill="#64513b" />
        <path
            d="M681.83,803c.2,1.91,2.74,3.74.59,5.68-4.32,3.91-2,6.67,2.18,10.1-1.48-5.58,4.64-8.74,2.65-13.93,4.83-3.47,3.56-8.8,3.7-13.35.16-5.12,3.22-8.2,6-11.69,1.44-1.79,2.64-.85,3.45.46s1.21,2.69,3.12,2.41c0-.4,0-.79-.07-1.19-2.11-3-3.05-7.59-8.64-5.84-.37.12-1.47-2-2.55-3.58-1.43,3.33-2.51,5.9-1.91,9.75.65,4.18-2.62,7.57-7.34,8.58C679.78,794.38,679.6,798.6,681.83,803Z"
            fill="#8f7969" />
        <path
            d="M681.83,803q.6-6.3,1.21-12.6c-1.71-4.53,1.43-8.74,1.08-13.46-2.57,1-1.84,3.45-2.78,5-2.35.65-1.7-2.47-3.72-2.68-1.69,3.21.68,8.72-5.12,9.87-.69,2.48.94,5-.27,7.51,1.56,5,1.56,5,5.83,1.35,2.83,3-4.88,5.24-.72,8.24a.73.73,0,0,0,1.06-.41Z"
            fill="#bba892" />
        <path
            d="M733,819.09c.19-.38.45-.92.75-1.44,1-1.63,1.17-3.54-.75-4.16-2.4-.77-3.25,1.21-3.54,3.23a4.32,4.32,0,0,1-1.92,3.09c-2,1.35-3.26,3.62-1.58,5.19s4.46,2.29,6.85,2.49,2-2.76,2.94-4.18C737.33,820.93,733.49,821,733,819.09Z"
            fill="#d4bfaa" />
        <path
            d="M700.06,825.85c.33,3.36-5,6.69-.09,10.06,7.5-.89,2.11-6.57,3.41-9.8C704.26,823.91,701.35,825.34,700.06,825.85Z"
            fill="#b39e87" />
        <path
            d="M681.85,853.27c-.69-1.47,1.5-3.86-.37-4.32a7.41,7.41,0,0,0-5.84,1c-2,1.42-.91,2.75-.33,4.23a13.24,13.24,0,0,1,.51,2.38C679.61,858.66,681.39,857.15,681.85,853.27Z"
            fill="#cdbba2" />
        <path
            d="M768.94,824.63c-1.18-2.32-2.37-4.64-4-7.85-1.16,5.4-2,9.77-1.88,14.29,0,1.31.54,3-1.79,3.1q3,5.46,6,10.92-.65-7.65-1.26-15.3c-.12-1.39-.63-3,1.55-3.34Z"
            fill="#e8d8c4" />
        <path
            d="M790.46,824.68q-.3-3.18-.61-6.36-1-5.94-2-11.88c-4.29,2.33-4.36-1-5-3.58-.7-2-.58-4.27-2.24-5.89l-1.36.19c-.56,6.6,2.12,12.39,4.58,18.23.26.71.52,1.42.77,2.13.82-.36,1.79-3.55,2.41-.22C787.58,820.16,787.79,822.89,790.46,824.68Z"
            fill="#e8d8c4" />
        <path
            d="M789.83,838.61c-1.12-3.58.24-7.77-2.73-10.89.34,5.26-1.6,10.6.72,16.3C789.44,842.33,789.36,840.36,789.83,838.61Z"
            fill="#e8d8c4" />
        <path
            d="M550.84,753a4.56,4.56,0,0,1,1-.38c.82-2.12,3.7-2.74,4-5.27a2.58,2.58,0,0,0-1.82-2.15c-4.13-.44-8.21-.68-11.55,2.46h0C543.56,752,547.25,752.44,550.84,753Z"
            fill="#c6b195" />
        <path
            d="M555,746.05c.09.79.18,1.58.26,2.37.41,3.48,2.94,2.86,5.36,2.84,4,0,1.91-3.58,3.24-5.12.81-1.48,2.28-1.45,3.68-1.59.53-5.9-5.74-11.07-12.23-10.08-1,.16-2,.36-3,.54-5.47-.77-7.43,6.85-13.19,5.4-1.63.46-3.76.37-3.48,3,2.09-.26,4-.12,5.35,1.82,2.63-.34,5.25,1.34,7.93-1.58C550.81,741.51,553.72,743.18,555,746.05Z"
            fill="#b59d7d" />
        <path
            d="M555,746.05c.14-1.44,3.42-4.14-1.12-3.74-2.16.19-5.39-4.56-6.54.91-.46,2.19-1.85,1.49-2.49,1-2-1.57-2.86-.22-3.9,1,.51.82,1,1.64,1.54,2.46Z"
            fill="#988066" />
        <path
            d="M678.4,805.87a6.46,6.46,0,0,1-1.06.41l-1,4.89C679.77,809.88,680.62,807.66,678.4,805.87Z"
            fill="#8f7969" />
        <path
            d="M621.91,716.16c-2.56-2.34-4.12-3.38-6.66-3.64C616.18,715.51,618,716.2,621.91,716.16Z"
            fill="#947e64" />
        <path
            d="M563.83,746.14c-1.25,0-3.18-1.62-3.46.88-.44,3.9-.26,3.92-5.13,1.4-1.92.8-6.1-.17-3.39,4.22,4.46,5.78,8.12,4.17,11.37-1.24C564.94,749.81,564,747.93,563.83,746.14Z"
            fill="#988066" />
        <path
            d="M554,696.34l-1.3.06c.11,1,.13,2-.88,2.62-2.22,2.43-4.43,4.85.28,7a6.68,6.68,0,0,0,1.84.1,5.25,5.25,0,0,0,2.49-1c1.28-1.62,2.35-3.32,2.08-5.5-2.85-.13-.7-2.52-1.62-3.53C555.76,695,554.88,695.84,554,696.34Z"
            fill="#574531" />
        <path
            d="M600.6,672.82c-.52.34-1.12,1.06-1.56,1-8.89-1.77-15.88,2.32-22.66,7.09-4.18.74-8.53.77-12.38,2.9l-1.35,2.37c1.11,1.66,2.85,2.35,4.66,2.94a9.38,9.38,0,0,0,5.51-.58c4.06-2.92,8.15-5.7,13.14-7.1,3.82-1.08,6.84-.53,10.65.77,6.77,2.32,14.17,3.18,20.4-2.38.24-2.46-2-2.38-3.36-3.18-.77-.37-1.55-.71-2.35-1a6.3,6.3,0,0,0-3.41-.36c-3.62,3.2-4.39-1.22-6.41-2.3Z"
            fill="#4a3e32" />
        <path
            d="M566.88,688.2a4.15,4.15,0,0,0-4.23-2.05c-.36.07-.72.16-1.08.25a4.71,4.71,0,0,0-2.88,2.71,10.65,10.65,0,0,0-.53,1.53c-.27,1.84-1.83,3.29-1.68,5.27.33,1.27-1.63,3.64,1.7,3.49,2.7.68,4.91-1,7.36-1.53,1.77-.31,3.44-.78,4.18-2.66C570.26,692.28,568.27,690.36,566.88,688.2Z"
            fill="#382d21" />
        <path
            d="M565.09,696.17l-6.91,3.23c-.71,1.69-2.49,3-2.14,5.07,1,1,2.13,1,3.36.69a6.56,6.56,0,0,0,2.85-1.92c2-3.12,4.4,1.67,6.48-.27a2.56,2.56,0,0,0,.32-2.45A17.82,17.82,0,0,0,565.09,696.17Z"
            fill="#9b836e" />
        <path
            d="M616.82,679.45c-2.35,2.18-6.44-.27-8.56,3.72-1,2-1.74-1.91-2.47-1.83-5.23.61-10.19-2.89-14.32-2.61-6.4.42-14,2-18.27,8.65a2.34,2.34,0,0,0,1.85,1.7,4.21,4.21,0,0,0,3.19-1.32c6.58-1.56,13.15-4,19.68,0,.79,1.89.38,4.37,2.71,5.53A8.86,8.86,0,0,0,603,694a7.11,7.11,0,0,0,3.43-.06c2.38-1.63,5.25-2.18,7.78-3.49,1.25-1.19,2.39-2.45,2.38-4.3-.62-.52.27.1-.39-.41.06,0,.08.06.17.11a2.17,2.17,0,0,0,1.32.53,5.16,5.16,0,0,0,1.56-.37c1.56-1.19,4.5-.87,4.7-3.43s-2.35-2.4-3.93-3.16C619,679.14,617.9,678.64,616.82,679.45Z"
            fill="#392e24" />
        <path
            d="M574.66,688.45l-1.46-1.07-6.32.82c-2.18,3.25,2.73,4.42,2.15,7.21-.73,1.55-1.16,3.12-.17,4.73.43,1.33,1.21,2.19,2.77,2,2-.7,3.93-2.93,2.81-4.07C571,694.49,574,691.61,574.66,688.45Z"
            fill="#615346" />
        <path
            d="M569.69,700.36l-.66-5c-1.12,1.22-2.56.83-3.94.76.3,2.08,1.16,3.77,3.31,4.56C569,701.13,569.42,701,569.69,700.36Z"
            fill="#65503c" />
        <path
            d="M562.3,702.54c1.56,1.14,2.93,2.72,5.23,1.93,1,.65,1.26-.12,1.53-.83l-.39-.65c-1.62-.93-3.14-2.17-4.88-2.7C561.57,699.6,561.2,700.76,562.3,702.54Z"
            fill="#8c7561" />
        <path
            d="M569.69,700.36l-1.29.36.27,2.27.12.12a5.22,5.22,0,0,0,5.2,1.49,3.24,3.24,0,0,0,1.54-1.09,2.63,2.63,0,0,0-.43-2.66,2.24,2.24,0,0,0-2.65.32C571.37,701.42,570.37,701.41,569.69,700.36Z"
            fill="#8b7666" />
        <path
            d="M598.73,688c2.52-3.68-.83-3.8-2.78-3.84-5.41-.09-10.84.15-16.24.53-1,.07-1.85,1.44-2.78,2.22a13.49,13.49,0,0,0,4.59,3c1.33.68,2.7,1.32,3.09,2.95-.19,2.35-2.13,3.72-3.2,5.58a3.11,3.11,0,0,0-.5,2.49c2.69,2.21,4.44.12,6.13-1.48,1.45-1.37,2.26-3.3,3.7-4.72.93-1.34,1.28-3,2.61-4.15s1.56-4.22,4.54-2.57Z"
            fill="#2e241b" />
        <path
            d="M582.23,688.83c-1.82-.5-3.13-2.34-5.3-1.91a2.48,2.48,0,0,1-2.27,1.53c-4.28,2.67-6.9,5.48-1.21,9.44.3.21-.64,2.15-1,3.28h2.26c1.57.78,3,.75,4-.84.14-2.26-1.52-4.11-1.35-6.8C579.58,692.83,584.68,694.33,582.23,688.83Z"
            fill="#4c3e30" />
        <path d="M600.59,692.75,598.73,688h0c-3,.09-3.22,1.77-2.46,4.05,1.2,1.45,2.56,2.16,4.35.91Z"
            fill="#473a2a" />
        <path
            d="M574.11,703.8,583,705l.74,0a7.34,7.34,0,0,0,2.76-1,5.13,5.13,0,0,0,1-1,8.59,8.59,0,0,1,2-2.05c.15-.19.29-.39.43-.58.24-1.68.48-3.35.71-5a.79.79,0,0,0,.18-.87c-.13-.26-.24-.39-.34-.38-2.15.26-2.77,1.94-3.79,3.5-1.21,1.84-2.46,4.5-5.64,2.7-2.44.29-4.62,1.08-6.07,3.21C574.74,703.56,574.42,703.67,574.11,703.8Z"
            fill="#433629" />
        <path
            d="M575.06,703.45l6.07-3.21c.39-.45.77-.91,1.15-1.36.36-1.18-.41-1.5-1.34-1.72a2.53,2.53,0,0,0-2.46,2.17c-.77,1.58-2.39,1.45-3.77,1.83C574.83,701.92,575,702.69,575.06,703.45Z"
            fill="#5f4c3e" />
        <path
            d="M578.48,699.33l2.3-1.61c3.05-.76,3.86-3.7,5.69-5.64a7.29,7.29,0,0,0-4.24-3.25c-.08,2.24-.16,4-3.52,2.94-3.89-1.18-4.16-.8-2.52,3.2C576.8,696.44,574.46,699.61,578.48,699.33Z"
            fill="#39291e" />
        <path
            d="M596.67,692a3.76,3.76,0,0,1,2.06-4c-3.76-4.57-5-1.28-6.14,2l.31.81a3.7,3.7,0,0,0,3,1.6Z"
            fill="#392e24" />
        <path
            d="M586.47,692.08c-3.37.44-3.56,4-5.69,5.64l1.5,1.16C584.3,697,586.61,695.26,586.47,692.08Z"
            fill="#504033" />
        <path
            d="M590.56,694c.06.42.11.84.16,1.25l1.22-.19.88-.15c3.09-1.69,1.08-3.25-.11-4.83l-.12-.12C590.1,690.47,590.32,692.25,590.56,694Z"
            fill="#392e24" />
        <path
            d="M423.11,751.26c-4.58,8.4-3.74,15.77.17,21.26.66.32.87.06,1.32-.52.91-6-.22-12.34,2.68-18.09C426.48,752.14,425.51,750.61,423.11,751.26Z"
            fill="#4d433b" />
        <path
            d="M423.11,751.26c1,.92,1.88,2.24,3.63,1.66l.84,0a63.53,63.53,0,0,0,7.1-2.62c1.84-1.32,4.27-1.87,5.44-4.06-4-1.12-7.73-.25-11.32,1.62a6.23,6.23,0,0,0-4.92,1.78C423.62,750.17,423.36,750.71,423.11,751.26Z"
            fill="#ab9c8d" />
        <path
            d="M440.12,746.22A8.89,8.89,0,0,0,434,749.6a3.2,3.2,0,0,0,3.31.57c1.43-.89,3.48-.06,4.7-1.59a1.78,1.78,0,0,0-.79-2.24h0A1.56,1.56,0,0,1,440.12,746.22Z"
            fill="#594a3c" />
        <path
            d="M441.9,748.47c-1.19,1-2.91-.85-4,.72-3.61,1.54-7.83,1.32-11.12,3.79l0-.06c-4.18,5.94-3.89,12.44-2.53,19.07,1.54.81,1.34,2.4,1.71,3.74,3.13-.4,2-3.17,2.81-4.86-.05-4.31,3.3-6.31,6.12-8.67a19.49,19.49,0,0,0,1.76-1.88c2.08-2.46,5.12-3.69,7.51-5.74a6.51,6.51,0,0,0,2.15-3.77,3.4,3.4,0,0,0-.41-1.71C444.7,748,443.45,747.3,441.9,748.47Z"
            fill="#2d2822" />
        <path
            d="M426.77,753c3.73-1.2,7.78-1.48,11.12-3.79l-3.88.41C431.34,750.19,428.39,750.18,426.77,753Z"
            fill="#453c33" />
        <path
            d="M427.52,777.84c1.79-1.81,2.14-3.09,2.44-6.55.28-.61-1.65-.44-2.23-.81l-1.81,5.25C426.45,776.43,427,777.13,427.52,777.84Z"
            fill="#4d433b" />
        <path
            d="M427.73,770.48c.14.49.27,1,.41,1.48a3.91,3.91,0,0,1,1-.37,9,9,0,0,0,6.37-8.13,3.07,3.07,0,0,0-1.11-2.42C431.12,763.44,426.74,765.11,427.73,770.48Z"
            fill="#63574c" />
        <path
            d="M442.63,757.18l1.38-3.56c-3.11,1.7-6.7,2.78-8.37,6.32a4.68,4.68,0,0,0,2.77.54A4.45,4.45,0,0,0,442.63,757.18Z"
            fill="#453c33" />
    </g>
    <g id="frame">
        <rect width="1000" height="1000" fill="none" />
    </g>
</svg>