<!-- Copyright (c) 2022 Jan Stehno -->
<svg xmlns="http://www.w3.org/2000/svg" viewBox="0 0 1000 1000"><title>rockptarmigan</title><g id="rockptarmigan"><path d="M638.58,340.67c10,4.06,18.22,11.13,26.84,17.25,10.11,7.19,21.24,12.71,31.16,20.21,6.75,5.11,12.42,11.33,19.21,16.42,4.75,3.56,10.35,6.45,14,11.42-3.2,2.48-5.85.24-8.41-1.15-3.69-2-6.46-5.15-9.55-7.89-3.4-2.88-6.19-7.32-11.8-4.4l-2.88,2.14c-3.88,3.66-3.39,9.53-7.08,13.43-1.43,1.5.2,3,2.28,3.52,3.45.81,5.41,3.11,4.87,6.55-.49,3.14-3.42,3.6-6.1,3.78-5.36.37-9.32,3.29-13,6.78a26.74,26.74,0,0,0-1.69,2.16,10.65,10.65,0,0,1-4.61,4.52c-1.6.79-3.19,1.8-3,3.88s2.11,2.55,3.81,3c7.31,1.95,11.91,8.78,19.53,10.39,2.29.48,2.08,3.56,2.2,5.72.29,4.77-.38,9.57.51,14.32a11.16,11.16,0,0,1,.41,1.82c.28,5.06-2.15,6.73-6.33,3.92-5.25-3.51-10.76,0-16-1.32-.83-.22-1.69.78-1.81,1.63-.81,5.65-5,8.92-8.76,12.58-1.28,1.25-2.22,2.84-1.19,4.69,1.15,2.07,3.16,2,5.2,1.8,4-.47,7.34-2.84,11.06-4.12,3.54-1.22,6.24-.91,5.73,3.88a46.78,46.78,0,0,0-.64,16c.67,4.33-.31,8.09-3.74,11.11a7.47,7.47,0,0,0-2.34,3.85c-1.16,5.15-4.44,8.14-8.12,9,2.67-1,6.63-3.13,10.93-.32,1.63,1.46,1.88,3.43,1.83,5.39-.25,11.1-2.87,21.3-11.52,29.17-1.18,1.07-2.35,2.1-4,.76-1.41-1.15-2.55-3.5-4.73-.94-1.77,2.08-3.64,4.67-2.11,7,2.37,3.7,1.05,6.57-.71,9.66a5.2,5.2,0,0,0,.51,6.57c1.75,2.13,2.41,4.73.45,7.2s-4.83,2.84-7.79,2.34-4.4-2.61-5-5.39c-1.37-6.54-.29-13,.82-19.41,1.84-10.63-.61-14.54-11.4-16.68a12.29,12.29,0,0,0-10.57,2.48c-2.07,1.7-3.94,3.28-7,2.74s-3.21,1.24-2.5,3.62c2.34,7.88,1.14,14.77-5.25,20.66-4.78,4.42-5.25,10.88-6.53,16.77-.77,3.56,2.4,5.23,4.85,7.1,5.52,4.2,5.8,5.79,1.64,11.15a14.82,14.82,0,0,0-3.26,7c-1.92,12.53-3.82,25,5.72,35.79.83.93,1.53,2.17.69,3.56-20.74-1.29-32.54-14-26.93-34,2.55-9.13,2.44-9.19-6.66-13-10.67-4.43-19.74-10.36-22.52-22.51a4.8,4.8,0,0,0-4.13-3.71c-7.58-1.46-12.54-6.71-17.45-12-4.39-4.7-2.67-10.26-1.68-15.49,1.08-5.78,3.88-11,6.41-16.28.78-1.64,3.82-2.52,2.47-4.75s-4.07-.57-6.13-1c-2.15-2.41-.53-4.44.76-6.43,1.16-1.79,1.9-3.47-.13-5.16s-4.21-2.27-6.54-.46c-1.21.94-2.23,2.1-3.47,3s-2.94,2.49-4.68,1.2-.88-3.27,0-4.73c3.4-5.86,4.71-12.59,8.12-18.44-3.23,5.08-4.21,11.09-7.18,16.28-1.19,2.09-2.25,4.25-4.16,5.8-1.64,1.33-3.28,3.56-5.66,2-2.73-1.78-1.54-4.1-.08-6.21.17-.24.63-.39.41-.83-4.29,2.16-4-1.53-3.67-3.38,1.12-7.39,2.64-14.76,11.45-17.26a8.46,8.46,0,0,0,4.21-3,46,46,0,0,1,22.34-14.71c-2-1.76-3.16-.41-4.36-.09s-2.46,1-3.7,1.37c-2.06.69-4.27,1.85-6.17,0-1.74-1.7-.19-3.63.08-5.49.57-4.07,3.54-6.08,7.6-8-6.44-3.37-11.35-1.19-16.11,1.54-2.48,1.42-4.69,3.44-7.8,1.62a16.64,16.64,0,0,0-3.3-.09c-15.43,2.73-25.52-5.69-34.23-16.4a82.59,82.59,0,0,1-8.88-12.87c-3.53-6.56-2.57-11.55,3.72-15.4.38-.23.8-.37,1.17-.62,2.59-1.72,7.36-2.18,6.78-5.88-.34-2.22-4.92-1.57-7.54-2.36a44.79,44.79,0,0,1-20.25-12.9c-3.69-4-2.9-8.62,1.81-11.59,5.55-3.51,10.83-7.48,16.94-10.09,1.72-.74,4.27-1.16,4.25-3.53,0-3.12-3.2-2.31-5-3.09-3.18-1.36-6.87-1.67-9.3-4.54a4.09,4.09,0,0,1,4.43-2.23c4.73,1.18,9.66.62,14.34,1.85,4.95,1.29,6.06,3.84,2.72,7.34-3.64,3.82-6.16,7.78-6,13.23.08,2.62-1.9,4.21-3.87,5.74s-6.2,1.83-4.28,5.25,5,7.86,9.78,5.91c9.48-3.87,18.51-1.7,27.7.38,1.31.29,2.76.78,3.86.08,4.29-2.73,8.54-1.29,12.68,0,9.35,2.95,19,3.18,28.66,3.76,3.78.23,7.71.38,10.88,2.31,6.36,3.86,13.86,4,20.51,6.85,1.46.62,3.17,1.06,4.45.09,3.95-3,8.07-4.18,12.9-2.25a2.19,2.19,0,0,0,3.12-1.53c2.94-10.09,11.58-12.86,20.34-15.51,2-.62,4.36-.6,6.65-2.8-6.8-3.86-13.48-5.19-20.73-2.7-9,3.08-18,4.11-27.19,1.29a21.33,21.33,0,0,1-4.38-1.41c-2.33-1.3-4.92-2.82-4.24-5.88s3.48-2.81,6-2.79c3.66,0,7.35-.24,10.91,1-4.58-1.8-9.52-.3-14.16-1.57-2.54-.7-5.76-1.1-5.83-4.31-.07-3.53,3.5-3.49,5.9-4,6.81-1.36,13.61-3.56,20.4.76,2.51,1.59,5.88,1.61,8.95.69.92-1.44-.45-2-1-2.71-1.2-1.46-1.94-3-.7-4.71s2.88-1.78,4.73-1.57c3.79.44,7.06,2.36,10.6,3.52,1.68.54,3.61,1.09,5.08-.1,2-1.63,0-3.17-.66-4.58-1.95-4.07-1-7.21,3-9.32a6.6,6.6,0,0,0,3.72-4.15c1.89-6,6-9.59,12.63-9.18,3.78.23,3.9-1.12,3.19-4.15-1.15-4.91-5.24-13.47-8.88-17.7C639.16,344,637.78,342.69,638.58,340.67Z" fill="#948878"/><path d="M638.58,340.67c.33.56.63,1.14,1,1.68,2.95,4.44,10.65,5.4,11.09,10.4.41,4.64-.64,9.29,1.52,14,1.55,3.36-1.74,2.73-3.42,2.62-9.67-.63-12,1-13.32,9.84-.28,1.88-1.46,1.69-2.7,2-6.64,1.91-7.4,4-3.62,9.52.9,1.31,3.36,2.24,1.88,4.25-1.2,1.63-3.37,1.75-5.41,1.9-4.93.37-8.3-3.9-13.06-4.1-1.82-.07-4-1.9-5,.87-.81,2.22,1.47,2.74,2.9,3.66,1,.66,2.79.9,2.43,2.61s-2,2.12-3.62,2.13c-3.5,0-7.38.9-10.32-1.21-7.39-5.32-14.57-1.1-21.84-.11-1,.14-2.44,0-2.51,1.48s1.25,2.17,2.59,2.37c7.44,1.15,14.89,2.25,23.17,3.49-1.9,2.19-3.72,2.13-5.2,1.58-4.08-1.54-8.27-.92-12.41-1-1.91,0-4.85-.61-5.14,1.63-.32,2.48,2.26,4,4.65,4.73,9.64,2.92,19.4,3.53,28.9-.18s17.63-1.31,25.92,4.56c-4.93,3.53-10.39,3.6-15.22,5.32a28.11,28.11,0,0,0-11.92,7.78c-.86,1-2.17,2.32-2,3.25,1.72,8.85-3.81,4.85-7.34,4.08-2.1-.46-4.34-2.08-6.08.14-3.59,4.57-7,3.12-12,1.64-14.57-4.36-28.78-11.09-44.78-9-2.2.29-4.58-1.43-7-1.74-6-.78-11.43-4.39-18.43-1-3.79,1.85-10.08-1-14.82-2.33s-8.37-.63-12.35.76c-5.55,1.95-14.16-1.2-16.57-6.4-.93-2-.56-4.2,1.64-4.95,5.36-1.85,9.28-3.67,7.8-11-.52-2.54,2-7.43,6.14-9.26,1.46-.65,2.62-1.8,2-3.61-.51-1.61-2.05-1.38-3.32-1.46-6.24-.36-12.35-2.56-18.7-1.31-4.86-2.3-8.51-6.06-12.22-9.78-3.09-3.11-2.35-5.4.73-8.11,6.3-5.54,14.41-6,21.92-8.14,1.4-.4,3.45.27,3.76-1.75.29-1.81-1.44-2.54-2.83-3.18-5.57-2.55-10.13-6.22-12.59-11.89-2.83-6.54-.78-10.1,6.38-10.74,4.8-.43,9.68-.06,14.51-.2,3.31-.11,7.06-.12,8-4.2.87-3.77-2.53-5.1-5-6.87-2.83-2-5.66-4.1-8.35-6.33-2.91-2.41-3.12-5.74-2.07-9,1-3,3.85-4,6.77-4.46a100.75,100.75,0,0,1,40.55,1.67c2.8.71,4.93,1.71,5.41-2.66.52-4.63,4.61-4.47,8.18-4.65,16.11-.84,30.53,5.19,45.08,10.72C602.44,318.4,619.74,331,638.58,340.67Z" fill="#867a6a"/><path d="M839.2,744.58c-7.49,3-13,8.44-18.38,14.14-4.31,4.57-9.35,6.56-15.26,3-2.36-1.42-3.79-.7-4.77,1.32-1.85,3.88-5.16,6.47-8.17,9.27-6.17,5.74-9.92,5.27-15-1.61-4.27-5.8-4-5.65-7.71.5-2.55,4.27-5.88,8.09-8.93,12-2.82,3.64-5.49,2.79-8-.44-.39-.51-.6-1.16-1-1.68-2.17-2.88-1.09-8.42-5.21-9-3.37-.51-4.87,4.45-7.92,6.19-3.5,2-6.42,6.21-11,4.26-5-2.12-6-7-6.41-11.95-.06-.86-.28-1.71-.4-2.57-1.26-9.31-1.26-9.31-8.93-3.92-10.62,7.46-16.72,5.24-19.53-7.34-.8-3.59-2.35-5.25-6.24-4.89-2.74.26-5.73,1.17-8.18-1.1a66.3,66.3,0,0,1,.82-17.68c1.45-7.21-2.57-10.62-10-8.41l.06,0c-7.71,2.22-13.72-1.07-19.29-5.81-2.49-2.11-2.28-4.69-.72-7,2.12-3.18,1.44-6,0-9.21-4-9.08-2.57-13.32,5.64-18.7,4.79-3.14,5.64-6.6,1.85-10.67-4.05-4.35-3.22-8.49.07-12.22,5.23-5.92,8.22-12.75,10.31-20.18,1.71-6.08,4.52-7.82,10.68-6.39,3.73.87,6.44-.39,9.07-2.53,3.92-3.2,7.23-7,10.94-10.42,2.72-2.5,5.28-5.31,9.31-5.75,4.82,2.61,7.12,1.69,9-3.51.69-1.88-.26-4.58,2.66-5.39,3.27,2.36,2.29,5.89,2.23,9-.1,5.23,1,9.84,5,13.48.59,2-1.3,2.48-2.16,3.6-1.57,2-1.7,4.33.44,5.67,2.9,1.81,2.55-1.93,3.94-2.84,4.41-1.3,8.07-.78,9.93,4.05-.06,1.94-1.49,2.65-3,3.3-1.46.46-3,.69-4.46,1.12-6.92,2-11.24-.46-13.17-7.49-.74-2.72-.5-5.63-1.7-8.26-1.08-2.37-2.67-4-5.52-3.81a4.79,4.79,0,0,0-4.86,4.45c-.82,6.15-2.36,11.9-6.94,16.51-1,1-2.15,2.77.42,3.43,5.12,1.3,4.8,5.73,5.58,9.38,2.1,9.8,2.42,10.09,11.82,6.87,3.95-1.36,6-.16,7.34,3.85,3.17,9.7,3.71,9.81,13.49,5.91,7.75-3.1,7.76-3.11,13.08,3.5a13.07,13.07,0,0,0,5.35,3.68c2.12.89,4.8,3.08,6.51.57,1.85-2.69-2.11-3-3.26-4.61-1.71-2.31-4.07-4.56-2.71-7.54,1.73-3.79.87-7.64,1.22-11.46,2.61-1.67,6.22-1.51,7-6.13.46-2.58,4.3-1.52,6.61,0a10.66,10.66,0,0,1,2.32,2.82c1.45,3.28,3.59,5.3,7.54,4a8.67,8.67,0,0,1,1.83-.18c3.71.42,5.83,2.69,7.09,6,.82,2.15,2.75,4.32.36,6.52s-4.81,1.6-7.19-.06c-2.16-1.5-4.45-2.56-6.18.31-1.86,3.06-4,6.29-1.2,9.94.33.43,1.23.34,1.88.44,3.46.54,7.36-.19,7.53,5.57.07,2.44,4,3.67,6.59,4.84,9.22,4.07,10.87,7.07,8.85,16.67-.44,2.09-.42,3.49,1.83,4,5.64,1.15,6.71,4.88,5.93,9.77a6.37,6.37,0,0,0,0,1.31c.15,2.65.48,5.25,2.89,6.95a1.58,1.58,0,0,0,2.33-.3c1.54-2.58-.95-4.42-1.43-6.65-.85-4-4.08-7.28-3-11.78.5-2-1.24-3-2.73-4-2.36-1.57-4.22-3.44-2.21-6.42,1.77-2.63,4.2-2.87,6.92-1.47a8.22,8.22,0,0,0,2.52.74,26.88,26.88,0,0,1,6.15,1.83c3.9,1,8,3,10.74-2a10.86,10.86,0,0,1,1.89-2,47.79,47.79,0,0,0,7.26-7.31c4.12-5,5.23-5.07,10.51-.89,2,1.59,4.42,2.77,5.68,5.17a5.19,5.19,0,0,1-.35,3.75,12.43,12.43,0,0,1-.82,1.73c-1.44,1.86-1.21,4-1.32,6.21-.15,3,3.36,5,1.65,8.54C850.09,726.44,849.56,738.2,839.2,744.58Z" fill="#7a7066"/><path d="M707.24,616.18c-7,3.93-11.86,10.28-17.7,15.52-3.87,3.47-7.52,7.2-13.82,3.73-4-2.18-6.51,1.86-7.09,4.7a45,45,0,0,1-11.12,22.25c-2.58,2.8-4.17,6.57.57,9.92s3.31,10.62-2.06,13c-7.06,3.16-9.5,8.93-6,15.59,2.23,4.25,4.48,8-.06,12.12a2.79,2.79,0,0,0,.44,4.55c5.87,3.19,11.27,7.77,18.67,7-6.17,2.25-12.61,1.59-18.81.81-6-.76-8.4-6.14-9.84-11.13-1-3.57-2.89-4.65-6.16-5.5-14.46-3.74-17.29-8.4-15.94-23.3.38-4.31,3.32-10.51-4.86-11.72-4.64-5.82-9.93-11.93-9.53-19.47.51-9.87-2.27-20.8,6.31-29.09,2.37-2.29,2.42-4.26-.51-6.38s-8.42-3.2-7.91-7.82c.73-6.54,1.33-13.84,6.32-18.67,6.68-6.47,9.24-13.1,4.81-21.61-.85-1.64-.2-3,.7-4.22,1.17-1.65,2.64-1.1,4.09-.41,1.83.87,3.15,1.41,5-.68,5-5.47,11.25-6.13,17.54-2.53a6.38,6.38,0,0,1,1.61,1.13c2.46,2.73,8.57.19,8.9,5.3.22,3.54-1.3,7.19-2.05,10.78a54.56,54.56,0,0,0-.95,19.19c.34,2.26,1.42,3.61,3.76,3.76s4.9.37,6.65-1.87c1.52-2,.58-4.68-.54-5.3-5.65-3.14-1.66-6.47-.6-9.71.67-2,4-3.4-.16-6.08-2.48-1.6,2-12.36,5.37-13.05,4-.82,2.15,4.26,5,5.15,8.6-9.82,15-20.42,10.9-34.35,3.46-3.79,4.56-3.66,9.92,1.18a5.56,5.56,0,0,1,1.59,2.63,4.22,4.22,0,0,1-.51,2.87c-4.2,3.88-5.32,8.76-2.86,13.17,1.75,3.15,4.18,4.81,8.46,2.93-2.15-3.27-9.84-5.53-2.13-10.11,1.17-.08,2,.73,3,1.12,3.25,1.29,4,0,3-3-2.1-6.22-1.11-12,1.59-17.95,1.78-3.94,3.63-4.93,7.34-3.07,1,.58,2,1.36,2,2.42.44,9.32,5,18.51,1,28-1.59,3.84.4,8.27-2,12-2.27,3.08-5.32,5.4-6.63,9.43-1.47,4.56-4.92,3.42-7.67.68-3.42-3.39-4.21-1.12-4.75,2-2,11.28,3.25,20.6,14.87,25.32C709.58,609.49,710.39,612,707.24,616.18Z" fill="#85796a"/><path d="M707.19,570.39c2.87-13.21,3.65-26.47,1.2-39.83-.23-1.22-1.25-1.64-2.36-1.88-1.63-2.22-3.95-4.09-3.94-7.2.95-5.38.65-10.83.81-16.24-.49-3.7,2.71-6.57,2.74-10.62-6.87,2.72-4.22,7.68-3.78,12a18.83,18.83,0,0,1,0,3.9c-.18,1.33-.61,2.65-2.08,3-1.75.42-2.93-.6-3.76-2a18,18,0,0,1-2-6.18c-.57-3-1.25-6-3.5-8.27-3.13-3.15-3.33-6.88-2.57-10.87a6,6,0,0,1,3.32-3.82c4.17-1.9,4-5,2.76-8.53h0a16.74,16.74,0,0,1,.39-11.15c2.63-2.22,4.93-.84,6.94.9s1.15,3.46-.35,5.1-.88,2.82.83,3.63c4.11,2,4.35,5.61,4.44,9.4.1,4.45,1.75,6.79,6.57,4.39,2.1-1.05,4.66-1.69,6.14.15,4,5,9.06,3.19,13.9,2.59,3.43-.43,6.71-.93,8.5,2.89,1.6,3.42,1.54,5.75-2.05,8.83-2.29,2-2.51,6.53-5.87,9.14-1.18.92,1.21,4.69,3,6.71,1.17,1.33,2.67,2.83,1,4.47s-3.66.73-5.4-.45c-2.19-1.48-3-4.24-6.11-6.15,4.52,7.73,11.31,12,17.47,17.69,2.11-5.89-1.76-9.93-4.3-13.75-2.79-4.18-3.52-6.85,1.7-9.13,2.09-.92,1.85-3.32,2.88-4.94,3.57-5.64,7.66-5.9,11.5-.8-3.67-5.69,2.72-14.94-7.24-18.1-.06,1.59.76,4.34-2.31,4.67-2.24.24-2.68-2-3.14-3.57-1.54-5.48-6.06-9-9.1-13.42-.94-1.39-2.79-2.23-2.61-4.29,2.32-2.14,4.84-1.55,7.32-.4,8.55,3.95,11.25,3.45,17.43-3.37.44-.48.81-1,1.26-1.5,3.44-3.56,6.85-9.27,12.16-7.17,5.78,2.28,9.5,8,11.37,14.23.54,1.78.52,3.42-2.06,3.82-3.1.48-3.32,2.34-2,4.74.17,3.59-2.91,5.12-4.83,7.37-1.76,2.05-4.29,3.68-3.7,8,5-5.48,12.42-7.63,13.28-15.53a1.42,1.42,0,0,1,1.68.18c-.39,6.46,1.77,12.38,3.9,18.3-2.31.68-3.08-1.25-4.07-2.52-2.37-3.07-5.24-2.27-6.26.35-1.76,4.51-5.68,8.34-5,13.71.15,1.29.69,3.07-.36,3.73-6.05,3.8-.19,5.25,1.46,7.33,1.48,1.86,3.73,1.22,4.28-.51,1.48-4.71,3.91-4.32,7.21-2.06,1.67,1.14,3.4.13,5.1-.14,3.66.08,4.44,2.2,3.87,5.29-2.93,4.13-5.4,8.93-11.86,7.94a38.44,38.44,0,0,1-3.55-1.69c-5.74-2.31-6.77-1.71-6.6,4.25.13,4.72-2.08,7.76-6.22,9.79-9.93,4.84-11.33,9.64-5.71,18.66,1.73,2.79,2.48,6,3.28,9.16.31,1.22.4,2.93,2.16,2.74,1.59-.18,1.62-1.75,1.75-3.06.2-2-1.32-5,1.84-5.41,3.42-.44,3.88,2.88,4.72,5.28.65,1.83,2.13,3.88,1.35,5.6-5,10.85,2.9,16.72,8.93,23.35.4,2.07-.84,3.68-1.54,5.45-.77,1.95-3.45,4.27,1.14,5.15a1.8,1.8,0,0,1,1.06,2.15c-2.85,5.72.63,11.59-.56,17.32a3.06,3.06,0,0,1-1.68.74,3.9,3.9,0,0,1-3.58-2.48c-1.54-3.83-4.45-5.27-8.35-6.39-7.56-2.17-13.61-14.69-11.24-22.09a10.36,10.36,0,0,0,.94-3.77c-.23-3.3-1.1-5.93-5.21-3.34-1.74,1.1-4.11,2.56-4.84-.09-1.77-6.51-7.54-10.58-9.66-16.82-.74-2.17-1.41-4.41-2.18-6.73A3.64,3.64,0,0,0,736,572c.83,5-1.83,8-5.49,11-4.15,3.31-3.79,5.06.83,7.57,6,3.25,6.13,4.39.83,8.28a13.39,13.39,0,0,0-3.92,4.29c-1.43,2.5-3.39,2.36-5.55.94a18.57,18.57,0,0,1-5-6q-5.38-10-10.31-20.27C706.16,575.36,705.52,572.9,707.19,570.39Z" fill="#4f4237"/><path d="M946.92,964.7c-1.06,1.65.58,4-1.57,5.39-1,1.15-2.56-3.09-3.68.38-.26.84-2.43.49-3.32-.65s-.8-2.79-.3-4.23c.77-2.23,3.73-3,3.88-5.63-.45-8.48,1.8-16.63,3.23-24.87h0a6.37,6.37,0,0,1-.61,3.15c-2,1.9-4.35,1.1-6.11.11-4-2.21-7.26-5.55-11.87-6.66a1.32,1.32,0,0,1-1-.85c-2.3-10.62-11.47-8.39-18.68-9.62-2.21-.38-5.71,1.49-6.35-1.3s3.27-2.67,5.21-3.79c.51-.29,1.27-.27,1.47-1.92-4.84,3.58-9.86,5.1-15.49,3.87,3.2.23,6.61-.78,8,3.55,1.22,3.74,4.5,2,6.79,1.81,5.34-.41,10.56-.83,15.18,2.57,1.53,1.13,3.85,2.11,2.43,4.52-1.07,1.83-3.1,1.37-4.76.69-10.63-4.38-21.51-2.22-32.34-1.33-6.82,4.88-15.67-.47-21.89,4.44a45.47,45.47,0,0,1,6.21.19c1.94.31,4.34.52,4.12,3.17s-2.44,3.55-4.81,3.27a143.34,143.34,0,0,0-15.2-.78c2.72,2.61,3.6,3-.38,6.58-5.24,4.68-9.63,3.73-14.91,3.33-4.54-2.48-3.88-6.3-2.29-10A44.81,44.81,0,0,0,841,929.8c4.79-13.42,11.82-26,14.26-40.33a39.23,39.23,0,0,1,8.88-19.26c4.85-1.13,9.37-2.87,13.18-6.28a10.48,10.48,0,0,1,6.49-2.58,15.28,15.28,0,0,1,3.94.16c4,.72,4.64,3.2,1.4,5-8.16,4.6-11,13.91-18.17,19.46,5-3.15,8.19-9.35,15.72-8.66-1.75-.74-3.67-.33-4-2.27s1.24-2.54,2.52-3.37c7.25-4.67,10-4.38,15.82,1.77,1.25,1.31,7.81.15,9.22-1.62,1.57-2,1.74-4.36,2.27-6.69,1.44-6.4,3.39-7.88,10.18-7.34,2.26.19,2.42-1.28,3.32-2.39,1.7-2.08,2.78-5.17,6.52-4.19A26.76,26.76,0,0,1,937.57,865a19.51,19.51,0,0,1-2.14,9.35,7.39,7.39,0,0,0-.84,1.75c-1.18,5.85.18,12-2.33,18.32,2.38-7.39,7.34-6.86,12.66-5.47,4.15,7.34,5.2,15.55,6.79,23.62-.26,1.4-.67,2.7-2.41,2.91-2.93-1.4-2.65-4.62-3.78-6.46,2.43,7.8,5.61,16,6.4,24.62.6,6.5.69,13-3.78,19.17C946.23,955.41,947.23,960.64,946.92,964.7Z" fill="#7d7369"/><path d="M864.49,870.69c-6,11.22-8.23,23.64-11.94,35.61-2.5,8-6.85,15.53-10.37,23.26-1.08,6.3-6.58,9.6-10,14.31-1.4,1.93-3.19,2.12-4.82,0-1.7-.78,0-6.51-4.68-3.11-.87.63-2.32,0-2.9-1-3.23-5.27-10-6.76-13.18-12-.21-.34-1-.57-1-.79,1.36-11.92-12.15-11.88-16.1-19.54-1.45-2.81-3.49-5.31-5.17-8-2-3.23.73-4.66,2.64-6.36,11.77-10.48,25.21-18.9,37.25-29,8.85-7.44,17.09-15.58,25.6-23.41,2.14-4.89,6.31-7.69,10.76-10.21,2.11-.92,4.22-1.92,6.52-.53,1,1.57.07,2.93-.62,4.24-4.54,8.66-6.36,18.41-11.17,27-.63,1.12-1.42,2.34-.4,3.6,2.91,3.56,1,6.94-.18,10.41a28.57,28.57,0,0,1,3.69-6.67c1.54-2,2.52-4.75,5.88-4.38C866.5,866.23,866.28,868.44,864.49,870.69Z" fill="#322b23"/><path d="M840.61,949.1c6.49,1.46,11.57-1.56,16.51-5.12-.27-1.89-2.06-1.12-3.08-1.7-1.23-.7-2.14-1.78-1.8-3.13.4-1.6,1.79-1.57,3.19-1.1,5.05,1.67,10.5-.51,15.57,1.55a2.38,2.38,0,0,0,3.44-2c.09-1.72-1.74-1.57-3-1.58-4.23,0-8.46,0-12.75-1.13,6.92-.59,12.25-8.21,20.36-3.61,2.16,1.23,4.39-4.1,8-3.11,5.61.61,11.28.7,16.88,1.15,9.12.74,18.1,2.81,27.22,3.79,1.64.17,3.87.53,3.84,2.82,0,2.52-2.43,2.75-4.28,3.31a10.81,10.81,0,0,1-3.93.32c-7.2-.56-14.54-2.84-20.59,1.84,5.76,2,16.63-5.35,18.43,9.65,1.66-7.74,6.42-10.25,12.33-11.2,3.19-.51,4.65,1.89,6.29,3.93,1.29,3.46-1.05,6.66-.72,10.06.22,2.28-.6,4.74,1.2,6.74.08,1.34-.09,2.88-1.39,3.32-2.32.78-3.93,2.25-3.28,4.47,1,3.55,2.91-.2,4.35.16.74.18,1.33,1,2,1.53l1,2.52c-3.05,2.19-6.36,1.34-9.53.6-13.78-3.2-27.6-4.44-41.7-2.19-5,.79-10-.33-15-1.1,13.11,2.58,26.29-1,39.39.34,9.09.94,18,3,27,4.93,1.9,3.61,3.19,7.33,2.17,11.88-11.95-7.05-24.09-3.83-35.81-.88-12.91,3.25-25.63,2.88-38.4.5-4.59-.85-8.6-.71-12.59,1.53,1.48-3.12-.46-3.8-3-4.64-2.25-.75-4.58-2.17-5-4.72a2.37,2.37,0,0,1,2.35-2.91c-1.67.37-4.36.92-6.7-.86s-3.79-3.64-2.47-6.63c3.9-2.48,8-1.29,12-.58,5.43,1,10.37,1.42,15-3.27,3.27-3.28,8.78-1.14,12.58-2.46-2.33,0-5.27.47-8.21.46-2.51,0-5.55-1-6.1,3.35-.2,1.58-2.9,1.53-4.63,1.71-6,.65-11.71-.87-17.33-2.76C845.56,960.62,841.35,955.91,840.61,949.1Z" fill="#8a8177"/><path d="M863.28,864.33l-9.54,14.8c-2.81-11.62,6.23-37.79,13.39-48.84-2.83-5.42-2.73-10.58.81-15.79,3.89-5.72,7.77-11.49,10.31-18.27-5.16,1.21-15.32,7.73-17.84,11.26.18.5.59.74,1,.42,1.7-1.36,1.89-5.43,5-3.93,2.61,1.27.83,4.29.46,6.52a13.41,13.41,0,0,1-1.49,4.3c-2.14,3.8-4.27,7.48-2.73,12.19.53,1.61-.75,3.31-2,4.63l-10.78,9c-.72-5.87-2.73-11.49-3.78-17.24s-3-11.62-3.54-17.27c-.81-8.71-1.93-17.48-2.78-26.17-1.1-11.41.44-22.52.45-33.76,0-.55-.65-1.09-1-1.64.14-2.35,1.64-3.91,3.27-5.38,4.54-4.08,6.74-9.29,7.54-15.19.37-2.75.59-5.64,3.1-7.46,2.07-1.5.35-2.06-.31-3.35-2.11-4.12-3.11-8.43,1-12.21,4.67,2.18,4,6.86,4.89,10.66,1.88,7.73,3,15.42-4.57,21.25-2,1.57-1.39,3.9-1.31,6.06.14,3.25.34,6.32-3.53,8.26-3.13,1.56-1.07,4.55.13,6.11,3.18,4.15,3.71,8.49,3,13.46-.8,5.64,3.9,10,4.27,15.49.36,5.3,2.66,10,5.86,14.8,1.91-2.28,1.78-5.35,3.41-7.51,1.05-1.65,2.23-3.23,3.44-4.77,4.77-6.08,5.47-6.17,10.88-1.33,2.27-1.49,4.74-4.45,6.13.73.68,2.53,2,.69,2.78.27,3.81-2,5.83-5.83,9-8.45,1.3-1,2.79-2.85,4.52-1.54s.32,3.21-.45,4.68c-2.08,4-3.44,7.94-1.59,12.45,1.22,3-.84,4.78-2.88,6.6-4.47,4-7.21,8.72-5.65,15,.07,6.54-3,11.13-8.86,14-3.07,1.52-4.71,3.59-3.92,7.27,1.18,5.51-2.92,10-4.83,14.27C872.06,854.23,868.7,860.33,863.28,864.33Z" fill="#686056"/><path d="M842.21,531c4.31,2.21,8.69,1.13,13.06.27.87,2.48,2.63,4.59,3.08,7.26-.92,2.36-3.08,4.29-2.59,7.15s1.82,6.75,4.68,6c7.73-1.91,7.94,3.26,9.15,7.91.83,1,2,2.58,3.1,2.11,7.81-3.32,12.15,3.34,17.83,5.93,3.37,1.53,5.42,4.32,4.41,8.39-2.84,2.49-7.82.6-9.72,6.15-1.15,3.35-8.75-1-10.15-6.77-2.41-.55-3.53,1.92-5.66,2.39-5.46,1.19-6.26,4.32-2.69,8.58,1.95,2.32,6.67,3.83,4.53,7.61-2.54,4.46-4.61,10.05-11.16,10.74-4.65.18-9-.14-10.41-5.73.84-2.9,2.88-1.87,5.46-1.27-2.5-1.84-4-1.15-5.32.47a3.56,3.56,0,0,1-3.82-.33c3.88,7.62,8.67,15,15.59,20.83,1.08,2,2,4.21.34,6-2.41,2.6-4.27,5-3.14,8.88a2.17,2.17,0,0,1-2.15,2.66c-2.57.05-3.69-1.84-4.6-3.85-.4-1.81-.5-3.5-2.09-5.1-2.74-2.77-8.85-4.09-5.53-10.4.22-.42-3.73-3.07-4.95-5.41-5.75-6.18-6.62-14.33-9.11-21.84-.34-2.77-.1-5.33,3.2-6.2,2.33-.61,3.06,1,3.58,2.84.54.17.49.09.26-.43-5.06-11.49-5.07-11.55,7.78-15,3.52-.94,4.76-3.23,4-6.3-.94-3.77-.91-8.36-3.24-11.12C840,546.49,842.11,538.71,842.21,531Z" fill="#746859"/><path d="M906.86,453.1c4-8.79,6.27-18.08,8.08-27.5,3.84-4,3.36,1.32,4.94,2.22,1.7,3.7.63,7.56.56,11.34,0,1.88-1.15,4,1.73,4.63,1.88.4,4.07.74,5.5-.92,1.64-1.9-.47-3.15-1.44-4.32-2-2.44-1.84-5.14-1.51-7.94,0-3,.42-5.77-3.47-7.45-3.08-1.32-3.28-4.7-1.26-7.26,2.16-2.73,4.75-4.95,4.78-8.9,0-1.89,2.13-2.81,3.94-2.81,2.45,0,4.13-1.2,5.74-2.72,4.14-.48,7-3.93,10.94-4.77,2.45,2.13,2.84,5.27,4,8,.85,3.57,2.71,7.2-.49,10.58-1.24.26-2-.09-2.1-.56,2.45,4.49,4.78,9.94,5,16a7.86,7.86,0,0,1-4.21,6.21,7,7,0,0,1-2.73.94c-4.28-1-7.36-3.21-9.16-8.38a135.69,135.69,0,0,1,4,17.23,37,37,0,0,0,.44,7.72c1.42,8.1-4.37,13.22-13.13,11,3.1,3.4,3.42,8.72,9.84,8.05,2.62-.28,3.82,3.14,5.28,5.27,2.1,3.1,3,6.68,4.41,10.08,2.06,5.74,1.73,11.94,3.68,17.73.78,2.3.15,5.25-2.38,6.12-2.9,1-3.33-2.17-4.08-3.93-1.77-4.18-3.8-8.26-5.29-12.54A5,5,0,0,0,935,492a15.9,15.9,0,0,1-7.54-6.05c-1.17-1.64-2.64-3.12-4.92-2.5-4.36,1.19-6.52-1.29-8.31-4.56a7.29,7.29,0,0,1-.59-1.74c1.38-4.4-1.19-9.82,3.67-13.4,1.08-.8,0-1.94-1-2.53-1.45-.92-3-1.71-3.64-3.44-.62-3.9-3.35-1.6-5.26-1.75C906.17,455.28,905.81,454.34,906.86,453.1Z" fill="#3d332a"/><path d="M518.06,489.69c2.59.11,4.42-1.24,6.41-2.75,4.55-3.46,9.91-4.43,15.56-3.79,2.12.25,3.91,1.49,4.15,3.58.25,2.25-1.76,2.68-3.6,2.81-5.8.41-4.15,5.82-5.63,8.88-.86,1.78,1.94,1.37,3.3.83,3-1.2,6.07-2.47,9.08-3.77,1.53-.67,3.19-1,4.16.46,1.19,1.82-.75,2.65-1.86,3.52-4.73,3.77-11.48,3.83-15.76,8.85-2,2.37-5.08,3.93-6.84,6.82a7.49,7.49,0,0,1-3.41,2.88c-8.77,3.39-11.87,8.28-11.5,18.74,3.25,0,2.12-4.67,6-4.77-1.49,2.88-2.79,5.44-4.15,8-.68,1.26-1,2.53.4,3.41,1.23.79,2-.42,2.75-1.08,4.75-3.87,7.15-9.16,9.31-14.68,1.61-4.13,2-8.84,5.87-12.05-.82,9.64-7.35,17.53-9.33,27.17,3.39-.62,4.76-3.06,6.46-4.86,2.58-2.71,4.8-2.8,8-.87,4.46,2.65,5.18,5.24,1.26,8.76a6,6,0,0,0-1.89,5.3c-7.12,1.91-13.79.65-20.08-2.91-6.56-3.71-11.58-9.17-16.52-14.66-6.07-6.75-4.15-14.14-2.17-21.93,2.34-9.24,10.28-12.19,16.87-16.89C516.51,493.55,520.28,493.3,518.06,489.69Z" fill="#a19585"/><path d="M842.21,531c1,3.48,4.6,6.75.34,10.58-1.22,1.09.09,3,.92,4.17,3.43,4.8,5,10.25,6.76,15.78,2.27,7.22.59,10.56-6.75,11.22-9.46.85-9.94,1.77-5.59,10,1.28,2.42,1.16,5,.52,8-3-1.49-.68-6.6-4.68-6.11-2.9.36-2.12,3.3-2.2,5.39-1.1,3-2.92,1.28-4,.3-1.85-1.61-3.56-3-6.25-2.74-4.82.5-7.8-1.81-9.29-6.24-1-4.92,3.32-6.48,6.24-8.14s5.11,1.21,6.86,3.53c1,1.37,2,3.12,4.17,2.4,1.17-.38,1.47-1.54,1.52-2.66.1-2.1-.37-4.11-2.67-4.69-5.75-1.43-7.47-4.61-8.09-10.67-.61-5.91-6.52-10.58-7.61-17-.39-2.33-1.4-4.57-1.78-6.94a5.21,5.21,0,0,1,.5-3.8c3.38-5.08,3.11-8.47-1.12-13.66-1-1.25-3.08-2-2.2-4.26,6.65,1.54,11.28,8.29,18.7,7.49C833.73,522.17,838.19,526,842.21,531Z" fill="#524539"/><path d="M782.76,479.07l-1.4-.05c-1.76.6-3.52,1.24-5.34.17-2.42.08-3.72-.29-2.48-3.29s2.05-5.63,6-2.77c.26-7.75-6.1-10.68-9.59-15.39-1.11-1.5-3.1-.64-4.81.14-3.55,1.62-5.78,4.74-7.94,7.5-3.15,4-6.19,6.95-11.69,7.65-2.23.28-3.77.54-5-1-2.48-3.09-5.74-3.66-9.39-3.38-5.51-1.81-8,1.54-9.91,5.75-1,2.34-1.49,5.42-4.82,5.26s-5.36-2.76-6.24-5.78c-1.27-4.32-2.43-8.73-1.27-13.32,2.11-10.78,5.37-14,15-15a5.22,5.22,0,0,1,2.42,1.68c4.48,6.15,5.92,6.39,11.32,1.31,1.82-1.72,4.1-2.23,6.18-3.3,5.69-.95,6.88,0,7,5.42,0,1.09-1.84,3,1,3.21,8.74-8,8.74-8,1.62-17.79-.36-.47-.69-1-1-1.43-4.34-3.72-9.55-4.27-15-4-2.39-.45-4.5-1.12-3.48-4.27,3.26-3.39,6.12-8.07,11.48-4.27-4.26-2.53-7.36-7.41-12.38-10-1-.93-1.65-1.93-.67-3.26,8,1.38,12.65,7.24,16.89,13.12,9.68,13.41,18.93,27.13,28.38,40.72C781,467.6,781.74,473.38,782.76,479.07Z" fill="#6c6154"/><path d="M864.34,385.22c-3.7.12-7.41.15-11.1.4-4.22.28-8,1.59-10.92,6.78-1.52-10.43-.81-18.5,6.71-24.84a96.08,96.08,0,0,0,19.12-21.85c6.66-.24,6.31,6.55,9.74,8.8-.41-1.43.26-3.36,1.24-5.22,1.88-3.83,3.25-8.05,7.62-10,2-.93,4.23-1.73,6.15-.2,2.21,1.77,0,3.58-1,5.4,1.89-.12,3.19-.23,4.49-.29,7.93-.52,8.9,1.14,5.81,8.23s-9.82,11.32-14.59,17.08c-2,2.43-5.69,1.63-9.26,1.55a5.48,5.48,0,0,1,2,5.55C875,379.4,872.7,387.81,864.34,385.22Z" fill="#29201a"/><path d="M807.76,515.47c7.49,4.57,7.5,12.41,9,19.62-2.36,1.4-2.39-2.87-4.2-1.57s-.63,3.09-.15,4.71c1.9,6.49,3.3,13.18,7.67,18.67,1.82,2.3,3.48,3.87,1.75,7.75-1.49,3.33,3.09,5.59,6.28,5.25,5-.53,3.8,3.39,4.44,5.44.76,2.43.25,5.63-2.75,6.48a5,5,0,0,1-5.85-3.17c-.92-2.47-2.86-5.52-4.53-4.47-2.44,1.53-6.34,2.71-6.46,6.78-1.44,3.16,1.47,4.65,2.67,6.8s2.07,4.41-.06,5.89-3.36-1-4.71-2.3-2.85-2.74-3.37-4.74a8,8,0,0,0-4.89-6.34c-3.57-1.71-5.37-4.75-2.92-8.53,2-3,.79-4.73-1.76-6.39a9.51,9.51,0,0,1-3.93-5.08c-1.11-3.54.22-4.93,4.11-3.73-1.33-1.63-3.36-2.29-4.15-4.18a4.7,4.7,0,0,1-.1-4.37c1.15-2,2.82-1.09,3.87-.15,2.11,1.89,5.39-1.21,7.24,1.73-1.42-2.23-3.41-4.51.32-7.21-3.48-.23-5.8.57-8.19.51-2,0-4,0-5.3-1.9-1.71-2.5.51-3.94,1.69-5.65,1.24-4.37.77-8.91,1.36-13.28.53-3.91-1-10,6.2-10.28C803.7,512.31,805.66,514,807.76,515.47Z" fill="#42372e"/><path d="M752.14,455.59c-1.13.41-1.59,2.71-2.92,1.77-1.85-1.29-.85-3.41-.46-5.22.76-3.61,2.53-8-4.47-5.64-5.49.08-11.17-1.36-16.22,2.19-.62.44-1.65-.24-2.33-.84l-1.34-1.32c-2.32-1.42-2.28-3.38-1.46-5.64a27.7,27.7,0,0,0,2.06-7.52c-2-1-5,.25-6.19-2.6a4.52,4.52,0,0,1-.24-1.78,8.86,8.86,0,0,1,.88-3.68c1.91-3.13,1.14-4.91-2.42-5.87-2.18-.58-2.88-3-4.69-4.17-3.13-1-6.37-1.46-9.53-2.29-8.65-2.28-11.1-6.31-8.81-14.91a14.34,14.34,0,0,1,2.81-5l2.48-1.51c1.79-1,3.92-1.76,5.35-.05,2.1,2.52,5.4,2.49,7.77,4.25,5.75,3.5,9.3,10.64,17.41,10.23l2.51,2.84a2.61,2.61,0,0,0,1.2,2.54c1,.76,1.82,1.76,2.86,2.52,3.45,2.55,5,5.32.79,8.57-1.48,1.14-1.13,3.13-2.21,4.43-1,2.75,1.27,2.3,2.7,2.65,5.27,1.8,11.11,1.89,15.87,5.2h0C752.82,441.66,756.77,448.91,752.14,455.59Z" fill="#453931"/><path d="M878.84,499.67a175.25,175.25,0,0,1,17.35-29.79c2.5-.25,3.33-2.13,4.4-4,1.45-2.56,3.43-3,5.48-.45,1.06.59-1.35,3.71,2,2.6,5.08-2,7.05-.77,6.38,4.15-.27,1.94-2.47,3.89.29,5.66h0c4.06,6.7-2.86,7.49-6.75,10.89,3.52.51,6.14,1.27,7.69,3.79,1.33,2.17,3.75,4.27,1.51,6.9a7,7,0,0,1-8.86,1.94,26,26,0,0,1-4.36-2.86,5.72,5.72,0,0,1-1.55-4.19c.2-4.53-2.15-4.65-6-4.71-4.83-.08-4.26,3.14-4.4,5.59-.32,5.61-2.08,10.73-3.81,15.59,1.7-.52,2-2.47,2.59-4.34.78-2.62,1.84-5.13,5.42-4.12,2.38.67,2.36-1.28,3.06-2.47,1.21-2.07,2.77-2.68,4.86-1.18,1,.83,1.62,2.08,2.54,3,4.67,4.45,9.23,8.78.84,14-.69.44-.84,1.52-.92,2.39-.47,5.35-2.45,7-6.78,2.68-.84-.83-1.67-1.47-2.84-.83-6,3.26-10.83.38-15.68-2.66-1.46-2.26-.68-4.58-.22-6.91.65-3.3,3.24-7.17-2.49-8.79C878.33,501.42,878.61,500.28,878.84,499.67Z" fill="#62574a"/><path d="M926.57,318.51c3-2.71,6.12-1.09,9.19,0,7.27-.43,9,1.64,7.11,8.41a8.08,8.08,0,0,0-.57,3.17c.34,2.72-.17,5.93,3.8,6.65-.55,5.45.07,11-1.35,16.37a2.09,2.09,0,0,1-1.51,1.13c-3.62-1.52-1.26-5.65-3.68-8.16-3.33,1.79-4.56,3.9-4.56,8.1,0,6.17.26,12.66-2.76,18.52-2.29.26-3.51-1.5-5.06-2.63-1.11-.8-2.28-1.46-3.62-.71-2,1.11-3.45,4.9-6.3,1.3-2.46-3.1-4.73-6.39-2.83-10.67a8.68,8.68,0,0,0,1.09-3,19.38,19.38,0,0,1,3.1-9.7c1-9.87,7.29-14,17.27-14.59-1.87-3-1.07-6.82-6.37-7.08C926,325.38,929.18,320.29,926.57,318.51Z" fill="#736556"/><path d="M847.38,968.67c.77,7.29,6.49,6.32,11.71,6.63-.7,2.19-5.16.92-4,3.32,1.76,3.69,6.39,4.1,9.83,6-.89,1.43-3.59,1.22-3,3.61.58,4.63-2.82,7.72-4.5,11.78l-4.82-7.66c-2.26-4.67,4-1.84,4.05-4.51-1.28-2.73-4.92-1.33-6.52-3.51-2.4-7.28-3.16-7.64-8.81-3.64-.72-5.4-4.33-9.65-4.49-15.12-.09-2.86-3.09-2.7-5-3.43-6.6-2.49-8.15-6-5.13-12.65.84-1.87,1.57-3.56.74-5.56,1.77.62,2.94.46,4.26-1.35,3.27-4.51,7-8.69,10.55-13-.15,3.64-.4,7.06-2.37,10.51-1.5,2.6-3.76,6.43.8,9,4.48,3.93,4.72,10.55,9.34,14.4C852.25,966.75,847.85,966.76,847.38,968.67Z" fill="#4d4439"/><path d="M926.57,318.51c5.57.05,3.94,2.94,2.21,5.72,2.14,2.1,4.76-1.72,5.07-.47.8,3.23,3.47,5.47,4,8.49.22,1.21-.3,4.64-3.89,3.18-4.37-1.79-11.89,2.52-12.59,7.09-.26,1.66.38,3.52-1.23,4.84a34.87,34.87,0,0,0-18.28-5c-2.9,0-4.93.11-6.1,2.29-2.73-.36-2.51,1.78-5-.13,0-1.86-1.12-1-.27-1.25,1.5-.47,5-2.69,3.69-2.66-2.67.07-3.9-1.07-5.13-.76-5.2,1.31-6.34,6.12-8.66,9.91-3.13-5.93,1.1-9,4.86-12.27,5.11-1.26,10.22-2.62,15.57-1.9,2.59.35,4.73-.6,6.83-1.87,1.84-1.11,4.32-1.78,4.29-4.44,0-3.21-2.81-3.44-5.13-4-1.95-.52-3.89-1.06-4-3.57a24,24,0,0,1,19.75-2.75C924.29,319.42,925.25,318.87,926.57,318.51Z" fill="#57453a"/><path d="M787.85,518.34c-4,5.08-5.49-1.64-9.05-1.81,3.72,5.58-2.43,5.06-4.42,6.73-2.26,1.88-2.1-2.22-3.66-3a32.78,32.78,0,0,1-3.87-2.29c-2.08-1.38-1.61-4.88-.91-4.92,7-.33,2.33-5.37,3.55-7.91,1.65-3.44,2.91-7.17,4.82-10.32,3.57-5.89,5.73-5.26,12.35,2.53,2.27,1,2,3.28,2.62,5.13.57.73.3,1.81.79,2.43C794.31,510.24,792.29,514.47,787.85,518.34Z" fill="#3c3228"/><path d="M971.45,399.49c2.89,23.11-1.55,46-2.31,69,.29,3.07,1.44,6.43-2.75,8-2.55-13.31-4.74-26.58-.45-40,.84-2.6.08-5.55-1-8.21-2.24-3.77-2-7.43-.71-11.64a45.64,45.64,0,0,0,1.37-21.64c-.35-1.89-.95-3.78.12-5.65,2-1.7,3.3-.78,4.36,1.09Z" fill="#86796a"/><path d="M902.75,321.66c1.68,2.23,4.15,2.13,6.57,2.16a4.66,4.66,0,0,1,4.77,4.51c.22,2.4-.57,4.37-3.44,6.08-8,4.77-16.78,1.92-25,3.79-6.47,2.57-7.41,1.95-8.27-5.48C884.42,325.83,893.22,322.92,902.75,321.66Z" fill="#993d2e"/><path d="M864.34,385.22c2.77.09,4.55-3.5,7.82-1.93.92.44,1.7-.94,1.36-1.62-5-10.05,3.38-3.35,5.57-4.36a4.21,4.21,0,0,1,3.51-1.13c1.28.07,2.53.46,3.82-.14,3.33-1.54,5.12-.48,6.17,3.06,1.51,5.13,5.11,7.17,10.49,5.57.45,0,1.1,0,1.22.32,2.1,5.1,5.63,9.75,5.18,15.68a64.78,64.78,0,0,0-24.68-9.26C877.57,390.18,871.35,386.61,864.34,385.22Z" fill="#453d36"/><path d="M918.66,428.24c-1.77-.14-.42-4.6-3.72-2.64-.05-4.51-.27-9-.1-13.51s-1.79-7.84-4.36-11.12c2.43-2.59,3.33-6.67,7.51-7.58,2.57,0,4.6-.83,5.62-3.46.85-2.21,1.89-4.38,4.44-5.24,3.55.6,3.08,2.8,2.27,5.3-2.65,8.12-2.62,8.13,4.32,12.18-.09.43-.16.85-.26,1.28-1.18,4.88-8.18-.21-8.19,3.86,0,3.75-.28,6.21-3.67,7.94a4.06,4.06,0,0,0-2.31,4.89c.45,2,1.9,2.39,3.86,2.76,5.56,1.06.3,5.69,2.43,8-2.14.48-3.21-.95-4-2.44C921.23,426.26,920,427.86,918.66,428.24Z" fill="#574d43"/><path d="M918.71,394.27c-4.56.05-2.81,7.67-8.23,6.7a1,1,0,0,1-1-.3c-2.27-5.17-5.16-10.09-6.54-15.62-3.52-3-2.62-5.43.94-7.54.37-.22.8-.35,1.18-.54,9-4.6,9-4.61,11.33,5.31a1.79,1.79,0,0,0,2.25,1.62c2.09,0,4.28.15,4.74,2.52C924.1,390.2,921.47,392.34,918.71,394.27Z" fill="#2c251f"/><path d="M857.87,537.92c-2.36-1.63-4-3.55-2.6-6.62,8.51-7.28,13.76-17,20.09-25.95,3.48-1.65,3.26,1.17,3.81,3.06.09,2.35-.76,4.49-1.46,6.67-.73,1.69-.61,3.5-.73,5.29a6.46,6.46,0,0,1-3.35,3.77c-3.17,1.82-6,3.39-3.31,7.91,1.37,2.29-.47,4.46-3,4.34C864,536.23,861.08,537.92,857.87,537.92Z" fill="#4b4236"/><path d="M946.5,975.19c-6,.33-11.68-1-17.53-1.85-10.84-1.59-21.84-2.78-32.84-1-6.88,1.13-13.57-1.76-21.22-.25,5.06-5.58,10.44-2.18,15.3-2.47,10.74-.65,21.47-2.5,32.26-.77,7.95,1.27,15.72,3.69,23.87,3.73C946.39,973.47,946.45,974.33,946.5,975.19Z" fill="#72685e"/><path d="M905.6,466.14c-2.52-2.65-3.22-.87-4.39,1.4-.86,1.68-1.75,5-5,2.34,3.53-5.61,8-10.64,10.67-16.78l1,2.48c2-.11,4.15-.49,5.62,1.49.73,1.49,2,2,3.56,2.6,3.87,1.42,5,3.38.9,6.15-4.51,3.05-.3,8.48-3.2,12-4.93-1.16-5-1.23-2.35-4.28,1.54-1.78,1.72-3.88.39-5.27-2.23-2.32-3.15.85-4.64,1.68C906.52,469.18,906.19,467.58,905.6,466.14Z" fill="#483e34"/><path d="M669,724.68c1.15-2.2,2.76-4.86,5.29-2.49s9.06,1.45,7.33,6.55c-2.46,7.27-.42,15-3.46,22-7.11-4.78-4.67-12.59-6.14-19.13C671.45,729.06,672.65,725.9,669,724.68Z" fill="#85796a"/><path d="M965.17,955.84a8.51,8.51,0,0,1-5.25-1.62c0-1.16,0-2.32,0-3.48,2.28-10.51,3.53-21-.44-31.44-.06-5.39,3.11-3.82,6-2.75,2.22,4.64.78,10.05,3.16,14.66-1.35,4.63-2.39,9.42-1.91,14.16C967.12,949.14,966.9,952.52,965.17,955.84Z" fill="#7d7369"/><path d="M944.06,338.19c-1.83.83-1.88,1.25-4.17-.51s1.55-3.15,1.25-3.77c-1.94-4,.67-7,1.46-10.49.73-3.21-3.25-4.93-6.84-4.95,7-2.81,9.74-2,13.43,4-.48,6.34,4.8,11.87,2.66,18.44-1.87-1.57-4.56,3.52-6.43,2.28C944.32,341.57,945,339.82,944.06,338.19Z" fill="#887b6e"/><path d="M787.85,518.34l-.48-.43c5-4.6,2-10.19,1.91-15.41,2.26,5.17,7.22,7,11.8,9.26-4.5,2.11-5.29,7-4.71,10.3.8,4.55-2.08,9,.17,13.31,0,0-1.33.78-2,1.19a4.2,4.2,0,0,1-4,.42c-3.4-4.82.33-9,1.24-13.44C791.91,520.74,792.2,517.84,787.85,518.34Z" fill="#635950"/><path d="M950.3,966.08c1-6.17,1.66-12.38,2.92-18.49.67-3.26,1.79-.71,2.62.21-1.87,12.75.09,25.24,2.48,37.73.31,1.61,1.84,4.23-1.49,4.5-2.28.18-3-1.78-2.41-3.65.84-3-3-3.5-2.91-6-1.49-4.32.42-8.89-1-13.22A1.11,1.11,0,0,0,950.3,966.08Z" fill="#8a8177"/><path d="M877.41,332.72c1.88,3.12,2.77,7.68,8.27,5.48-2.62,3.47-6.07,6.58-5.31,11.56-.6,1.83-1.2,3.65-1.84,5.57-5.39-1.15-5.77-7.65-10.38-9.62C871.88,341.83,873.12,336.21,877.41,332.72Z" fill="#6a3428"/><path d="M965.49,357.72c-3.63,4.64-3.42,10.92-7.1,16.22-.25-1.76-.42-3-.6-4.27-.76-7.87,3.66-14.81,3.68-23.09C967.79,349.17,964.84,354,965.49,357.72Z" fill="#605548"/><path d="M877.86,509.05c0-1.78,0-3.57-2.5-3.7l3.48-5.68c.31.66.14,2,1.17,1.73,1.24-.37,1.68-3.06,3.5-1.78,1.54,1.08,1,3.18.69,4.78-.75,4.15-1.75,8.27-2.65,12.4a5.39,5.39,0,0,1-2.7,3.39,2.21,2.21,0,0,1-2.45-.58c-1.6-1.32-1.68-2.63,0-3.93C878.47,513.8,879.08,511.62,877.86,509.05Z" fill="#87796b"/><path d="M954.11,398.93c-2.83-3.07-5.46-5.94-1.61-10.33,1.14-1.3.45-4.09.87-6.14.13-.65-1.19-2.25.79-2,.5.06.83,1.32,1.24,2C957.68,388.2,955.55,393.54,954.11,398.93Z" fill="#3d332a"/><path d="M850.08,984.32c1.3,0,2.6,0,3.9,0,3-.07,5.4.76,5.14,4.19-.3,4-2.51,3.69-5.38,2-.79-.46-.9,1.07-1.19,1.78C850.31,990.09,850.55,987.09,850.08,984.32Z" fill="#675e55"/><path d="M963.31,972.32l-3.79,1.07c-.56-4.54,1.46-8.58,2.51-12.81,2.19.52,2.26,2.41,2.7,4.07C964.45,967.24,965.3,970,963.31,972.32Z" fill="#8a8177"/><path d="M971.3,949.6c4.84,2.13,2.76,6.71,3.7,10.21-3.17.59-5-.61-5.16-3.88C970.33,953.82,970.81,951.71,971.3,949.6Z" fill="#7d7369"/><path d="M688.82,485.74c-.44,9.2,8.58,15.35,8.14,24.59a2.05,2.05,0,0,0,2.08,2.1c2-.1,1.52-1.74,1.51-2.93,0-1-.95-2,.12-3,1.37-.81,1.51-3.43,4-2.61-.25,6.12.8,12.32-1.35,18.29-4.16-2.58-5.94-2.55-5.72,3.38.18,4.84-1.61,9.77-3,14.53-.85,2.92-2.57,5.61-5.82,1.67l-1.27-1.32c-3.14-4.13-2.48-8.63-.83-12.94,1.27-3.31,1.57-5.59-2.36-7.22-2.4-1-2.22-4-3.42-6-.23-5.71-1.61-11.51,1.23-17a5.69,5.69,0,0,0,0-6.54c-2-2.36-3.16-4.27-.49-6.37S686.84,483.05,688.82,485.74Z" fill="#5f5043"/><path d="M696.81,393.05c-.66,3.55-3.1,6.71-2.42,10.57,1,5.88,6.88,9.33,16,9.25,1.36,0,2.57-.29,3.46,1,1,1.8.85,3.77.81,5.72-1,2-2.58.84-4,.83-5.55,0-11.48,6.5-10.71,11.7.27,1.83,1.38,2.56,3.13,2.62,4.73.17,9.33-4.19,9.57-9.1.08-1.7-.28-3.54,1.82-4.42,5.37.68,6.14,3.86,4.65,8.29h0c-1.49,8.2-7.78,10.35-14.86,11.53-2.5,2.53-6.44-1.87-8.72,1.79-2.9.08-5.6,2.11-8.64.82-1.47-2.57-1-5,.59-7.32,1.28-1.91,2.29-3.84.67-6a5.42,5.42,0,0,0-6.43-1.94c-1.66.54-3.32,1.33-4.88-.22,3.93-5,8.79-8.11,15.48-7.9,2,.06,4.31-.45,3.74-3.16-.42-2-1.2-4.77-4.08-4.05-6.48,1.63-5.48-3.68-3.79-5.22C692.83,403.68,690.93,396.17,696.81,393.05Z" fill="#6e6256"/><path d="M688.82,485.74a30.26,30.26,0,0,0-5-1.15,2.63,2.63,0,0,0-2.7,2.32c-.42,2.19,1,1.65,2.36,1.56,2.18-.13,3,1.12,1.51,2.66-1.82,1.8-.59,4.76-2.88,6.19.41-4.81-2.84-2.81-4.56-2-3.54,1.6-6.83,3.68-10.76,4.42-3,.57-5.75.44-7.54-2.35-2-3-.2-5.21,2-7.34,3.58-3.55,8.63-6.15,8.18-12.43-.07-.87,2.09-2.8,2.37-2.65,5.66,3,12.23-2.63,17.66,1.91,4.67,3.91,4.67.45,4.66-2.95C699.86,481.1,693.2,482.92,688.82,485.74Z" fill="#7f7263"/><path d="M680.89,514.33c2,2.35,3.09,5.45,7.12,5.86,2.17.22,3.41,2.14,1.52,4.85-3.27,4.69-2.92,10.08-2,15.43-2.88-1.63-4.79-6.6-9.29-2.61-4.58-1.67-8.5,0-12.27,2.4-1.08.67-2.31,1.93-3.2.17a2,2,0,0,1,1.81-2.87c10.88-1,9.4-13.1,16.35-17.7C682.6,518.74,680.25,516.23,680.89,514.33Z" fill="#817465"/><path d="M687.44,443.85c2.45-1.68,4.85-3.67,8-1.3a70.32,70.32,0,0,1,.06,19.6,27.23,27.23,0,0,0-1.39,11.74c-2.9-5-.78-10.5-1.3-15.75-.3-3,0-5.53-4.58-4.91-5.14.71-6-6.07-11-6.89-1.69-.27-3.6-2.58-6.17-2.5s-4.3-.77-4.63-3.48.22-4.9,3-5.75a10.25,10.25,0,0,0,6.16-5.1,2.64,2.64,0,0,1,1,1.59C678.24,441.79,678.23,441.79,687.44,443.85Z" fill="#7f7263"/><path d="M687.44,443.85c-.21,0-.47.11-.64,0-2.95-1.47-6.52,6-9.45-1-1.54-3.67-3.05-6.86-1.85-10.81a9.38,9.38,0,0,0,.07-2.55l1.31-1.31c3.48.33,6.18-4.13,10.21-1.3,3.4,2.38,6.11,5.3,2.94,8.75C687.56,438.34,687.54,440.9,687.44,443.85Z" fill="#52483e"/><path d="M712.41,395.74c-2.95.71-5.82,1.24-7.52-2.23-1.2-2.42-3.62-1.63-5.6-2C703.52,388.35,707.82,389.73,712.41,395.74Z" fill="#6e6256"/><path d="M604.37,408c4-.37,8.1-1.35,11.86.82C612.15,410.22,608.15,410.51,604.37,408Z" fill="#867a6a"/><path d="M867.19,789.82c-1.89,3.49-1.42,8.06-5.09,11.13A103.28,103.28,0,0,1,854,779.27c-1.6-6.55-3.57-12.55-3-19.53.25-3.17-4.48-5.91-4.88-10-.33-3.44-.61-3.4,3.11-4,2.5-.37,2.45-2.6,2-3.92-2.25-6.42,1.35-10.86,5.33-14.73,2.33-2.25,2.13-3.87,1.76-6.68-.87-6.65-1.41-13.29-4.5-19.41a4.84,4.84,0,0,0,.32-1.17c3.94-2.56,5.49.56,7.14,3,2.28,3.48,5,5.47,9.28,3.36,1-.5,2.39-.94,3.1-.15,5.41,6,13.49.51,19.27,5-2.5-4.76-2.54-8.94.23-13.07,4.08-3.31,7.48-3.51,11.12,1.11,2.64,3.35,6.72,5.08,11.62,5.14-5-7.15-5-7.38,1.91-11.7,2.19-1.37,1.41-2.82.88-4.46-.48-5.15,2.53-3.8,5.34-2.8,6.1,2.19,11.4,5.95,17.25,8.65a4.16,4.16,0,0,1,1.19,2.58c0,4.4-3.73,4.66-6.59,6-2,1-5.55,1-5.33,3.86s3.13,4.46,5.72,5.72c1.6.77,4.15-.53,4.91,2.18,1.26,5.67.41,11.42.68,17.11,1.56,4.95,4.36,9.51,4.79,14.82.5,8.56,3.25,17,1.08,25.69a6.89,6.89,0,0,1-1.22,2.24c-1.09,1.24-1.13,3.76-3.16,3.69-2.47-.08-2.27-2.71-3.06-4.36a11.33,11.33,0,0,1-.12-6.14c.21-.85,0,.25.11-.61,0-.11-.09.26-.25.37-.57,1.73-2,2.16-3.53,2.57-4.5,1.19-7,3.87-7.26,8.74-.26,4.27-2,8.33-2.85,12.56-1,5.14-6.1,6.88-10.5,7.64-4.89.84-4.87,3.16-3.79,6.68-.29,3.95-3.17,3.95-6.12,3.87,2.35.1,4.05,1.39,5.65,2.85s5,1.89,4.49,4.87c-.62,3.52-4.37,1.77-7.09,3.25A23.8,23.8,0,0,0,918.1,826c2,.74,4.38,1.17,3.85,4.2-2.64,3-3.73,7.38-8.2,8.66-4.11-.35-2.89-3.47-3-6.36-1,4.3-4,7.14-2.31,12.11,1.28,3.79-4,3.95-7.31,4.08-1.18,2.4,1.22,4.67,0,6.92-3.64,6.68-10.23,6.22-16.45,6.65-6-.42-8.19-2.1-6.86-7.23,1.49-5.73,2-11.61,7.25-16.58,4.12-3.9,6.94-9,12.82-11a2.43,2.43,0,0,0,1.18-3.81c-2.55-3.54-3-8.75-8.13-10.29-2.21-6.08-.22-11.81,6-16.66,1.51-1.18,4-1.87,2.48-4.34-4-6.53.25-11.43,3.8-18-7.46,4.57-10.49,12.89-18.85,14-1.6-2,1.78-3.79.45-5.83-2.43.17-3.42,1.86-4.43,3.52-3.41-4-2-13,2.63-14.84,2.47-1,3.55-2.17,3.86-4.53a4.21,4.21,0,0,1,1.31-2.92c8.36-6.4,6.07-17.12,12.21-25.65-5.75,1.59-7,4.05-6.8,8.22.51,8.39-1,9.82-9.75,9.71-3.48-.05-5.29-.09-3.93,4.52,1.17,4-1.63,7.93-2.84,11.83-.58,1.85-2.39,2.57-4.33,1.59a5.67,5.67,0,0,0-5-.21c-4.11,2.54,1.41,1.62,1,2.81C870.51,781.21,866.11,785.19,867.19,789.82Z" fill="#352d26"/><path d="M840.72,611a31.08,31.08,0,0,0,3.89,4.27c1.58,1.22,1.83,1.4.69,3.67-1.64,3.28,2.52,5.33,4.84,6.76,2.78,1.72,3.52,3.36,2.52,6.17a10.73,10.73,0,0,1-12.2,4.57,18.53,18.53,0,0,0-11.4.68c-2.36.83-3.93,2.69-5.7,4.3-3.81,3.45-7.94,5.68-12.93,2.38-1.88-1.24-3.31-.19-4.93.21-1.91-.73-3.36,0-4.56,1.45a4.4,4.4,0,0,1-1.74.45c-4.05-.58-2.32-3.4-2.12-5.53.15-1.56,1.17-2.78,2-4.06,1.48-2.31-.43-3.59-1.64-5-.57-.68-1.47-1.27-2.23-.51a3.88,3.88,0,0,0-.46,4.85c2.49,4.65,2.07,9.16-.23,13.68-1.49,2.14-.15,4.16.25,6.23.35,1.86,1.35,4-.82,5.32a4,4,0,0,1-4.84-.92c-3-3.06-5.39-1.45-7.84.65h0c-4.69,2.36-6.33-2.23-9.22-4l-1.45-2.5c-2.2-3.12-6.62-5.07-4.39-10.36,1.59-3.75,3.66-5.68,7.85-5.37,8.31.63,8.31.58,8.08-7.89a2.34,2.34,0,0,1,.43-1.22c0-1.91.29-3.87-1-5.57-2.12-2.71-2.22-5.49-.17-8.28,1.09-1.48,2-3.39.57-4.67-1.91-1.7-2.15,2.36-4.37,1.64-.93-5.31,3-8.94,5-13.21-1.71-2.13.13-4,.56-5.89a6.89,6.89,0,0,0-1.67-6.41c-4.69-6.12-3.92-11.58,2.18-16.71,2.86-2.4,4.82-1.91,5.58,1.62.92,4.32,3.49,7.74,5.42,11.64,4.07-4.76,8.41-3.81,13.49,2.68,3.43,7,5.28,15.36,15.43,16.18a7.76,7.76,0,0,1,4.68,2.28A23.82,23.82,0,0,0,840.72,611Z" fill="#42372e"/><path d="M757.5,659.28c1.4,3.32,3.07,6.24.44,10.19-2.89,4.34.86,7.43,4.33,9.1,2.49,1.2,4,2.28,2.62,4.65s-3.47,4.12-6.49,2.31c-4.44-2.67-10.57-3.38-11.61-10-.32-2-2.06-1.9-3.66-1.25-2.63,1.06-5.29,2.07-7.89,3.22-7.78,3.46-11.23,2.29-12.92-6.16-1.27-6.38-3.12-6.37-8-3.27-5.52,3.5-10.08.81-11-5.86-.39-2.77-.93-5.53-1.34-8.3-.33-2.21-1.39-4-3.8-3.47-6.07,1.34-4.61-1.36-2.26-4.09a30.55,30.55,0,0,0,7.85-18.63c.29-4.63,4.32-5.39,8.46-5,5.29.54,5.66,5.19,6.2,8.54.34,2.19.18,5,1.1,6.8,1.86,3.71,4.05,8.16,9.9,4.59a5.3,5.3,0,0,1,5.64-.36c4.91-.48,5.94,4.52,9.23,6.43A66.41,66.41,0,0,1,757.5,659.28Z" fill="#85796a"/><path d="M855.32,697.13c-3.51-2.47-6.87-6.68-10.56-7-4.28-.35-5.2,6.27-8.92,8.57-1.09.68-2.09,1.5-3.13,2.26-2.26-7.84-15.26-13.42-22.37-9.58-2.72,1.47-1.92,3.49-.77,5.54s4.11,3.5,3.56,6.62a5.11,5.11,0,0,1-3.6-1.32c-2.26-1.86-3.71-.26-4.83,1.39-1.44,2.1.15,3.44,1.87,3.92,4.64,1.29,4.68,3.36,3.77,8-.69,3.45,2.57,7.87,4.59,11.59,1.63,3,1.84,5.63-1.19,7.24-3.18,1.69-4.64-1.21-6.06-3.39-1.81-2.76-1.7-6-1.16-8.87.85-4.51-.56-6.54-5.19-6.73-3.32-.14-4.92-1.7-3.36-5.14,3.2-7,1.56-12.05-5.13-15-4.62-2.07-10.63-2.35-10.05-9.93.1-1.4-3.89.74-5.47-1.17.66-5.24,4.83-6.14,8.92-6.54,2.84-.28,4.53-.75,4.45-4-.05-2.06,1-3.94,3.38-4.06,2.2-.11,3.57,1.39,4.41,3.31a15,15,0,0,0,3.7,5.28c2.05,1.85,3.48,1,4.86-.76,2.5-3.27,6-5,9.79-3.49,8.95,3.64,16.13,1.71,22.13-5.54,3.67-2.11,7.65-.55,11.47-.79,3-.19,3.57,2.54,3.84,5,.33,3.06-1,5.9-1.09,8.89,0,4-.7,8,3,11.12C857.52,693.6,858.75,696.19,855.32,697.13Z" fill="#70685e"/><path d="M707.19,570.39c.51,5.16,2.67,9.61,5.42,14,2.63,4.22,4.44,8.94,6.61,13.44.21,1.73-3.74-1.82-2.25,1.77,1,2.34,2.12,4.79.89,7.45-.21,3.8-.42,6.9-3.22,10.67-5.27,7.12-5.46,1-7.4-1.55.57-3.73.14-5.9-4.46-7.72-13.95-5.55-16.55-16.16-14-30.18.67-3.73,2-3.67,4.64-1.33,5.53,4.91,5.32,4.69,8-2.06C702.09,572.93,705.17,571.86,707.19,570.39Z" fill="#5d5245"/><path d="M807.71,678.84c-3.9,3.22-8,1.75-10.3-4.08-.81-2.07-1-4.76-3.83-4-2.39.62-1.88,3.1-1.24,5,1,3.11,0,4-3.14,3.31-5.05-1-8.87,1.14-11.88,5l-6.48-.33c2.17-4.3,2.06-8.57,4.3-12.54s5-3.38,7.33-1.71,4.83,4.76,6.78,1.29c1.2-2.15-1-6-3.2-8.25-1.1-1.13-3.15-1.34-4.78-2l3.57-6.51c2.9,2.35,4.5,5.91,8.55,6,2.34-3.77-4.22-7.47-.2-11.24,2-1.61,3.86-3.5,6.62-3.88h1.28c3.08,2.45,3.93,6.12,5.22,9.52.61,1.61.79,3.35,2.52,4.35,1.4.81,3.67,1.22,2.67,3.65-.8,1.95-2.56,2.76-4.62,3.19s-5.53-1-4.53,3.4C803.45,672.7,806.17,675.46,807.71,678.84Z" fill="#645b51"/><path d="M757.5,659.28c-9-3.77-15.3-10.89-22.44-17l2.65-2.58c1.2-1.42,2.85-1.51,4.53-1.52,5.68,2.7,10.63,2.2,15.28-2.51,2-2,5.2-4.21,8.28-2.4,6.73,4,11.4,1.66,15.4-3.95l1.38-.05a33,33,0,0,1,2,5.44c.77,4.21-3,7.79-6.75,6.44-3.1-1.11-6.77-3.22-8.81.27-1.76,3-4.26,7.46,1.35,10.21.4.2.18,1.62.25,2.48-4.55-1.52-4.05-1.41-4.93,2.61C764.63,661.48,760.23,658.31,757.5,659.28Z" fill="#5c5349"/><path d="M742.94,639.62l-5.23.09c-2.6-2.51-6.22-2.64-9.35-3.9-3.49-.54-2.58-3.14-2.55-5.33-5.2-1.92-6.45-6-6.71-11-.22-4.13,1.4-8.49-1.24-12.39-1.33-4-2.67-7.92-4.07-12.07,2.82-.06,3.5,2.44,5.43,2.85l3.93,5.28a7.06,7.06,0,0,1,1.22,4.9c-.11,3.47,1.7,5.38,5.12,5.25,3.06-.12,5,1.48,5,4,0,7.14,5.07,10.91,9.33,15.35C746.23,635.14,748.29,637.87,742.94,639.62Z" fill="#85796a"/><path d="M855.32,697.13a2.24,2.24,0,0,0-.16-3.79c-5.13-2.3-3.47-6.73-3.83-10.55a3.08,3.08,0,0,1,2.64-.86c3.28,1.42,4.14,4.8,6,7.34,3.1,4.18,5.93,8.23,12.17,8.29,3.61,0,5.39,4,8.37,5.73,1.78,4.42,3.5,4.35,5.69.16,1.5-2.85,2.62-6.75,7.44-5,.23,3.77-4.7,8.63,2.64,11,1.63.52.4,2.4-.86,2.83-2.52.87-5.22,1.14-7.51-.62-2.12-1.64-4.8-2.21-6.8-1.23-3.74,1.84-6,2.07-7.42-2.51-.57-1.85-1.85-.48-3,.15-4.74,2.5-8.21.64-10.42-3.71-1.35-2.66-2.52-5.14-6.19-4.53Z" fill="#534a40"/><path d="M813.13,703.57c-2.15-3.94-9-6-6.24-11.78,2.36-5.06,8-2.12,12-2.61,5.42-.65,9.86,3.34,14.41,5.8,2.14,1.16-.54,3.93-.6,6l-1.26,1.24c-3.29,3.7-7.32,4.26-11.84,2.73Z" fill="#473e36"/><path d="M725.81,630.48l2.55,5.33c-.12,2.24.87,5.45-2.29,5.85-2.76.35-4.79-2.32-5.26-4.79C720.14,633.39,721.3,630.43,725.81,630.48Z" fill="#62584e"/><path d="M850.57,697.69a7.47,7.47,0,0,1-4.28,4.34c-.93.42-2.48.26-2.34-1.16.21-2.12,1.08-4.14,3.48-4.8A2.48,2.48,0,0,1,850.57,697.69Z" fill="#70685e"/><path d="M819.61,705c4.32.68,8.14-.76,11.84-2.73C829,709.36,824.17,706.66,819.61,705Z" fill="#70685e"/><path d="M772.06,656.62c3.57.18,5.16,4.89,9.22,4C776.14,664,773.85,660.86,772.06,656.62Z" fill="#645b51"/><path d="M688.77,541.79c2.05,1.1,4.12,1.42,4.17-1.6.11-6.07,5-11.46,2.22-18-1-2.41,1.78-4,3.62-4.65,4.55-1.66,2.16,3.86,4.52,4.68l2.73,6.48c-6.93-2.61-1.88,6.51-6.34,6.32.22,4.18-1.74,8.32.38,12.59.95,1.9,3.28,5.25.92,6.31s-6.72,1.28-8.27-3c-3.68-.75-5.2-2.8-4-6.49C688.72,543.56,688.75,542.68,688.77,541.79Z" fill="#746556"/><path d="M688.69,544.45c.43,2.72,2.34,4.54,4,6.49-1.56,2.33-3.92,4.76.89,6.19,1.87.55,4.26.86,4.11,3.39-.18,3.22-3.42,2.33-5.18,2.73-5.9,1.34-8.21-3.47-8.57-7.41S679.76,545.13,688.69,544.45Z" fill="#948878"/><path d="M695.47,462.15c-2.51-6.53-1.89-13.06-.06-19.6.32-3,.11-7,4.45-2.14,1.08,1.21,2.32-.13,3.46-.45,3.39-1.17,6.93-.87,10.34-.55a5.56,5.56,0,0,1,5.26,5c.35,2.77-1.41,3.74-3.78,4.34-3.25.82-4.37,3.27-4.58,6.36-.13,1.9.53,3.9-.62,5.7-.71,4.4.95,8.53,1.58,12.76a5.89,5.89,0,0,0,4.68,4.93c3.08.38,2.65-2.7,3.17-4.68,1.43-5.36,5.75-7.54,10.6-8.41,3.81-.69,1.17,1.93,1.13,3.17,5.8,6,12.31,11.49,13.9,20.63,4.35-2.87-1.58-6.77,2.13-9.72,1.35,3,2.21,6.61,6.39,6.89.72,0,2,1.08,2,1.46-1.24,6.83,2.4,13.6.8,20.42a2.21,2.21,0,0,1-2.63-2c-.5-2.25-.36-5.9-3.16-5.47-2.56.4-5.73,2.54-6.12,6-.31,2.71.08,4.58-4.17,4.43-3.06-.11-2.4,2.34-.71,5,3,4.7,8,8.92,6.13,15.59-.34,1.2.06,2.77-1.63,3.16a2.74,2.74,0,0,1-3.44-2.26c-.8-3.47-3.53-4.38-6.34-5.86-5-2.61-6.23-9.09-11.61-11.66-1-.49.35-1.73,1.44-2.12,2.09-.73,4.36-1.86,5.43,1.23,1.21,3.45,2.92,6.13,7.75,6.47-1-3.53-4.12-4.93-5.19-8-1.95-5.65-2.06-8.3,5.55-6.33-1.24-3.86-5.16-8.25,2.68-8.15,2,0,1.06-2.37.55-3.77-.8-2.17-1.08-5.34-4.39-4.52-3,.76-6.18.41-9.06,1.22-3.49,1-6,1.69-7.83-2.66-.95-2.27-3.35-2.39-6.11-.86-6.33,3.49-8.76,2-8.7-5.3,0-4.45-.08-8.19-5.6-9.32-2.27-.46-2.78-2.71-1.09-3.94C705.64,463.5,697.85,463.87,695.47,462.15Z" fill="#43382e"/><path d="M742.94,639.62c2.25-1.72,3-3.38.33-5.55-5.39-4.36-10.73-8.79-10.43-16.72,0-.86.1-2.51-1.88-2.74-8.82-1-8.87-1.13-7.83-9.55a17.91,17.91,0,0,0,0-1.94c1.31.32,3,2.09,3.7-.42.51-1.77,1-3.29,2.75-4.13,5.81-2.78,6.85-4.84-.44-7.28-5-1.68-5.16-6.81-.13-9.7,4.4-2.54,6.5-5,5-10.27-1.12-3.88,2.25-5.48,6.23-7.67-2.65,6.83,1.45,11.06,3.32,16,1.74,4.57,8.83,6.11,6.75,13.19,3.23-4.43,6.29-6.37,10.13-1.7,2.33,2.83.45,5.41-.47,7.94-3,8.33,3.65,19.81,12.6,21a6.15,6.15,0,0,1,5.42,4c.86,1.91.75,4.39,3.22,5.37-3.87,9.08-5.71,10.21-13.77,5.92-4.51-2.4-7.66-.15-9.77,2.11C753,642.31,748.57,643.43,742.94,639.62Z" fill="#74685b"/><path d="M782.63,586.12c5.87,4.38,1.12,8.72,0,13.07a17.88,17.88,0,0,1-10.46-21.81c1.42-4.45-1.24-8.19-3.71-12.38-2,2.94.18,4.89-.32,7s-1.27,4.12-3.44,4.15a4.08,4.08,0,0,1-4.4-3.93c-.51-4.73-1.27-9-5.38-12.75-4.28-3.9,1.17-15.45,7.73-17.66,6.15-2.08,8.55-5.72,6-11.28-2.19-4.82.78-4.95,3.6-4.76,3.41.23,7.1.68,9.06,4.27-1.59,1.48-4.51,2.08-2.78,5.46,1.49,2.9-.88,5.35-1.75,8-2.18,3-2.71,5.34-1.1,9.68,2.91,7.81,6,16.44,3.12,25C777.28,582.73,779.14,584.51,782.63,586.12Z" fill="#635548"/><path d="M776,543.09c.1-3.55,1.84-6.59-.17-10.81-1.82-3.83,3.64-1.09,5.47-2.25a18.89,18.89,0,0,1,3.24-2.07c1.37-.55,4.72,1.71,3-2.78-.54-1.43,2.54-1.61,4.24-1.64,2.76,4.63-3,8.47-1.24,13,.35,3.29.13,6.15-4.59,5.62.09,3.13,2.31,5.49,2.95,8.36.43,1.93.82,4.19-1.16,5.3s-3-1-4.08-2.26c-1.41-1.73-3.42-2.68-5-4.11C776.77,547.8,774.2,546.28,776,543.09Z" fill="#42372e"/><path d="M776,479.19c1.75-.92,3.52-1.41,5.34-.17-.11,2.59.3,7.25-.41,7.42-5.84,1.42-8.27,6.73-12.57,9.75-1.64,1.15-2.45-.25-2.75-1.52a6.43,6.43,0,0,1,1.86-6.52C770.43,485.26,773.19,482.18,776,479.19Z" fill="#3c3228"/><path d="M750.57,507.87c5.43,6,4.61,13,5.53,19.52.12.82-.12,1.84-1.19,2a2.08,2.08,0,0,1-1.66-.65c-2.24-3.17-1.81-7.62-5.82-10.33C746.52,517.76,749.37,511.71,750.57,507.87Z" fill="#43382e"/><path d="M704.65,503.92c-1.38.8-1.92,2.83-4,2.61-1.42-4.48-3.66-9,2-12.5,1.16-.71.9-4.2,3.44-2,1.52,1.34,3.27,3.33,1.39,5.61C706,499.55,704.28,501.25,704.65,503.92Z" fill="#6a5e51"/><path d="M746.93,550.45c-.08,1.69-.53,3.37-2.14,2.75a6.13,6.13,0,0,1-4.19-5.89c0-1.79,1.54-3.91,3.21-3.27C746.51,545.08,746,548.4,746.93,550.45Z" fill="#776b5e"/><path d="M921.33,830.2c-3.21-3.8-8.73-3.76-12.21-7.2-1.16-1.15-3.65-1.44-3-3.61C906.75,817,909,817,911,817.5c1.44.33,3.24,1.56,4-.4.8-2.14-1.56-1.85-2.76-2.56-3-1.77-5.53-4.24-8.89-5.51a1.85,1.85,0,0,1-1-2.67c.74-1.09,1.91-.78,2.82,0,2.37,2.07,4.52,3.08,5.75-1,3.67-.53,5.24,2.51,7.56,4.28,2.86,2,5.33-.08,7.14-1.43,6-4.46,11.12-3.54,16.21,1.18a18.16,18.16,0,0,1,1.87,6.49,10.92,10.92,0,0,1-.37,3c-.78,2.47.32,4.71.91,7,2.8,10.9,4.89,21.9,4.92,33.2a11.5,11.5,0,0,0,.4,3.87c.15.44.44.69.28.63-.48-4.78-2-9.71-.71-15.32,5,2.46,3.7,7.31,5.37,10.75.7,5.76,5,11.33.95,17.34-2.88,1-3.71-1.42-5.08-3-2.41-6.85-4.65-13.77-9.28-19.86,1.94,7.92,3.7,15.89,5.92,23.73.9,3.17,1,5.67-1.76,7.79a12.89,12.89,0,0,1-4.22-4.79,45.69,45.69,0,0,1-5-14.8c.07-5.14-3.16-9.33-4.19-14.16-2.12-5.26-5.94-9.9-5.27-16.15C926.93,831.72,922.48,832.49,921.33,830.2Z" fill="#3e352c"/><path d="M921.33,830.2c3.84.76,9-.08,6.45,7-.65,1.83,1.6,4.79,2.74,7.12a12.15,12.15,0,0,1,1.31,6.93c-1.52,1.53-3.69,2.81-4.41,4.65-1.49,3.75-1.81,7.66-6.85,2.45-2-2.05-7.66,3.41-6.67,8.06s-3.92,5.89-3.73,9.69c.06,1.14-1.78.5-2.67-.14-1.56-1.11-2.75-1.21-4.69-.13-3.74,2.09-4,1.74-3.65-2.79.12-1.74-5.69-4-7.95-2.89-2.65,1.31-5.14,2.93-7.89,4.53a12.84,12.84,0,0,0,1.19,1c2.07,1.23,4.5-3.55,5.52-.54,1.07,3.2-3.1,2.62-5,3.3-4.4,1.57-8.67,3-10,8.19-.38,1.5-.68,1.42-7,1.61,1.06-4.2,13.68-18,22.29-24.28-1.83-1.82-4.19-.6-6-1.24-.31-.31-.37-.56-.2-.75a.61.61,0,0,1,.44-.25c5.71-1.15,11.82-1.37,15.76-6.62,1.56-3.3,2.86-6.89,7.19-7.55,2.6-.4,1.85-1.65,1.71-3.57-.18-2.63,1.75-4.74,4.44-5.76C917.37,836.7,917.09,831.31,921.33,830.2Z" fill="#655d52"/><path d="M942.65,943.94c-6.76-4.11-12.65-2-15.56,5.59-.7,1.83-.55,5-3.81,4.05-2.44-.74-1.57-3-1.16-5,.86-4.25-3.16-7.28-8.63-5.66-5.1,1.52-9.11-.43-13.31-1.44,10.41-7.43,22.51-2.78,34-4.32a4.33,4.33,0,0,0-4.91-3.39c-10.8,1.08-21-3.84-31.7-3-3.74.28-7.45,0-10.52-2.58,12.13-1.17,24.31-3.22,37,3-4.88-6.18-7.34-6.72-19.13-6.07-2.85.16-8.35,3.43-6.77-4.31.3-1.51-2.48-1.92-4.36-1.16s-3.35,2.09-5.49,1.83c0-4.82,2.77-6,6.55-4.76,3.16,1.06,5.43.82,7.57-1.72,2.85-3.38,6-3,9.18-.39-.66,2.6-3.14,2.09-4.74,2.89s-3.62,1.28-5.45,2.58c7.29-2.92,13.69.24,20.16,2.37,3,1,7.63,1.3,5,6.66-.52,1.08.06,1.61,1.14,1.64,6.5.22,9.65,7,15.79,7.9C945.52,940.79,943.76,942.31,942.65,943.94Z" fill="#73695f"/><path d="M884.45,861.72a8.56,8.56,0,0,1-.24,1c-3.46-.27-6,2-7.91,4-3.4,3.58-7.26,4.42-11.81,4-.35-2.13,1-4.57-1.21-6.36,2.8-5.05,7.28-9.78,8.8-14.71,1.73-5.63,7.71-10.37,5.26-17-1.18-3.2.38-4.32,2.75-5.42,6-2.8,10.51-6.76,10.9-13.87,3.38-1.19,6.09-.91,6.46,3.35a7.53,7.53,0,0,0,2.65,5.05c4.19,3.9,1.51,6-2.19,7.61-4.6,2-9.66,3.4-9.75,9.78a2.53,2.53,0,0,1-.88,1.68c-3.89,3.38-7.65,9.77-8.15,14.08C878.68,858.81,879.4,861.91,884.45,861.72Z" fill="#4a4139"/><path d="M936,865.42q3.16,7.3,6.34,14.6c-.62,3.17.3,6.12,1.42,9v0c-2.23,5.34-4.3-1.24-6.3-.09-2.94,1.7.45,5.66-2.41,7.39a3.05,3.05,0,0,1-4.17-.66c-1.33-1.77-2.8-4.41-.8-5.85,3.57-2.54,2.68-5.25,2-8.53a8.92,8.92,0,0,1,2-7.84C935.78,871.35,936.22,868.32,936,865.42Z" fill="#665c52"/><path d="M942.65,943.94c.27-1.76.55-3.51.83-5.27.67-3-.33-6.5,2.51-9.64,1.58,11.05-3,21.15-2.3,31.58-3.12,0-2.58-2.33-2.44-4.09C941.6,952.31,942.17,948.13,942.65,943.94Z" fill="#7d7369"/><path d="M860.63,831.62c-2.35-9.71,4.7-17.65,5.75-26.87-2,0-2.62.82-2.32,2.07.62,2.64-1.11,3.49-3.08,4.18-1.69.59-2.57-.44-2.82-1.82-.41-2.27.12-5.26,2.14-5.68,7.65-1.6,11.46-10.23,20.32-9.78-1.32,6.48-4.73,12.52-8.85,17.65-4.76,5.92-4.74,12.24-4.64,18.92Z" fill="#443b33"/><path d="M847.38,968.67c-2.85-3.52,4.06-2.31,2.57-5.17,6,.82,11.78,3.56,18.07,2.54,1.24-.2,2.94.49,3.56-.93.93-2.12-2.68-1.18-2.44-3.06,13.67-2.51,20-1.94,23.92,2.77-4.82-1.23-9-.59-13.28-.21-3,.27-5.19.71-7.43,3.06a8.87,8.87,0,0,1-10,2.55A37.12,37.12,0,0,0,847.38,968.67Z" fill="#6a6157"/><path d="M869.19,950.62c13.17-5,25.14-6.39,37.48-4.77,2,.26,3.82.71,5.8.3,1.49-.31,3.57-2.15,4.21.57.41,1.76-1.8,2-3.2,2.55a12.81,12.81,0,0,1-7.7.94c-9.74-2.21-19.33-1.35-28.87,1.12C875,951.82,873.05,952.08,869.19,950.62Z" fill="#73695f"/><path d="M906,975.14c-8,1.26-16,3.53-24.23,2C889.64,974.83,897.61,973,906,975.14Z" fill="#72685e"/><path d="M993,851.67h-2c-2.53-1.49-2.71-4.09-3.18-6.55-.26-2.92,1.24-5.63,1-8.55.15-5.23-.18-10.47.21-15.7a4.69,4.69,0,0,1,1.56-3c1.59,4.59,3.3,9.11,6.53,12.89C996.14,837.78,995.91,845,993,851.67Z" fill="#63594f"/><path d="M979.73,479.14c.8,3.15,3.9,5.81,2.13,9.53-2.08.11-1.44-2.52-3.9-3.13,3.91,7.85-.29,13.85-3.66,20-2.67,4.86-1.94,10.45-3.63,15.51a4.84,4.84,0,0,1-1.6-5.27c1.16-4.37-2.5.43-2.51-1.4-.18-9.72,5-18.12,7.62-27.39l.61,10.21h1.26V473.94c4.31,1.23,1.23,4.6,2,6.95C977.85,479.47,978.29,478.81,979.73,479.14Z" fill="#605649"/><path d="M962.18,549.15c.45,7.91,4.46,15.41,2.67,23.56l-.64.3c-1.3,5.2,1,10,1.89,14.86-.88,2.36,3.64,3.63,1.3,6.29a4.89,4.89,0,0,1-3.63.49c-3.28-.94-3.6-4.35-5.53-6.44a9.64,9.64,0,0,1-1.18-1.61,12.23,12.23,0,0,1-1.51-7.89c2.63-6.54-.27-13.52,1.6-20.13C959.46,555.78,957.74,550.85,962.18,549.15Z" fill="#786d5c"/><path d="M959.69,454.32c-.78,9.2,1.18,18.14,3.08,27,1.09,5.08-.9,9.76-.55,14.64-1.3,3.86-3.12,3.76-4.85.41-1.32-2.54-.75-5.44-.81-8.2-.07-3.19.17-6.4-1-9.49a105.41,105.41,0,0,1-1.84-24.37c.16-2.75-.29-5.67,2.09-7.85C960.51,447.45,956.77,452.49,959.69,454.32Z" fill="#86796a"/><path d="M946.73,340.85c1.71-.32,3.45-4.4,5.12,0,1.1,4.95-2,9.46,1.49,15.45,2.89,5,.17,13.93,1,21.1,0,.08-.52.3-.53.28-.32-.47-.6-1-.89-1.44-3.07-1.85-2.9-5.54-4.74-8.08-1-3.28-.84-6.62-.54-10,.07-.8.72-1.49.47-2.35-.44.58-.61,1.38-1.41,1.68-3.32.81-5.54.43-4.21-3.78.41,0,.82,0,1.23,0C946.4,349.86,943.37,344.64,946.73,340.85Z" fill="#605548"/><path d="M965,527.77c-1,5.29-1.45,10.72-4,15.62-3.68-1.48-2.76-5.17-3.9-7.88a7.66,7.66,0,0,1-.29-3.81c1.9-6.55.57-12.64-2.37-18.57a7.1,7.1,0,0,1,.24-4.08c4.2,1,3-5,6.49-4.94,2.5,5.19,2.46,10.95,3.8,16.41C964.56,522.94,966.32,525.35,965,527.77Z" fill="#605649"/><path d="M990.17,537.06l-2.33.87c.27-4.1.62-8.2.8-12.3.13-3-.24-2.58-3.53-4.78-2.26-1.52-2.18-4.91-1.58-7.28,1.85-7.26,1.13-14.63,1.56-22l.45-.72.71.48c1.75,12.06,3.3,24.16,5.38,36.17A13.74,13.74,0,0,1,990.17,537.06Z" fill="#605649"/><path d="M978.12,438.78c-2.22,1-1,2.49-.47,3.74,3.92,9.68,1.21,18.83-2.17,28-4.3-13.39-.26-26.46,1.58-39.61C981,433,980.18,435.83,978.12,438.78Z" fill="#86796a"/><path d="M975.54,556.5c1.34,0,3.81-4.45,3.79,1,0,1.9.21,3.8.32,5.7-2.08,7.89.67,15.88-.42,23.88C974,582.92,972,566.14,975.54,556.5Z" fill="#786d5c"/><path d="M952.16,408.81c1.22-1.12.25-3.49,2.38-4.09,1.24,7.41,1.15,15.13,5.3,21.86.79,2,.48,3.43-2.09,3.5-3.75-2.24-7.91-4.17-7.64-9.56C950.37,416.54,949.24,412.32,952.16,408.81Z" fill="#3d332a"/><path d="M973.38,550.11c-2.09-1.13-.5-4-2.43-5.17a148.55,148.55,0,0,1,4.57-22c2.84,7.28,5.4,13.46,1.74,20.32-1.92.05-.73-3.2-2.73-2.7s-1.22,2.41-1.25,3.79C973.24,546.31,973.34,548.21,973.38,550.11Z" fill="#605649"/><path d="M957.06,429.51c2,0,2.53-1.34,2.78-2.93,4.22,9.27-.22,18.49-.15,27.74-5.46-1.11-1-5.65-2.85-8C954.17,440.66,954,435.06,957.06,429.51Z" fill="#86796a"/><path d="M977.92,422.44c-.28-2.64,1-5.5-1.06-7.9l1.2-9.37c.35,6.19,5.12,11.61,3,18-.29.87-.16,2.54-1.7,2C978.67,424.82,978.4,423.36,977.92,422.44Z" fill="#64594f"/><path d="M987.16,477.14l-1.89,3.06c-1.64-2.67.6-6.06-1.79-8.26-.33-2.78-.74-5.57.06-8.5C990.54,466.63,987.78,472.16,987.16,477.14Z" fill="#605649"/><path d="M961.46,395.48c1.4,5.47,2,10.81-2.4,15.39-2.69-5.15.39-10.21.23-15.33C960,394.67,960.71,394.62,961.46,395.48Z" fill="#3d332a"/><path d="M968,381.83c-2.1,1.34-3.32.32-4.24-1.52.74-3.49-.81-7.22,1.15-10.57,6.76-.19.8,5.18,3.11,6.94C968,378.4,968,380.11,968,381.83Z" fill="#605548"/><path d="M955.23,349.1c1.18-6.53,2.23-12.33,3.37-18.67C962.39,337.48,962.1,343.37,955.23,349.1Z" fill="#887b6e"/><path d="M977.09,612.65c-2.54-1.59-.47-4.9-2.55-6.66-2.14-2.29-3.18-4.78-1.41-7.77l-.1.07c3.21-1.44,4-.45,4.38,3C977.86,605.19,978.09,608.88,977.09,612.65Z" fill="#7a6e5e"/><path d="M985.67,545.62c5.4,2.27,4,6,2.63,10.72-3-3.45-2-6.81-2.78-9.74A.85.85,0,0,0,985.67,545.62Z" fill="#605649"/><path d="M955.39,331.77c-1.52-2.71-3-4.25-1.44-6.22a1.5,1.5,0,0,1,2.29.06C958.24,327.63,956.07,329,955.39,331.77Z" fill="#887b6e"/><path d="M867.19,789.82c-2.11-1.65-2.61-3.35-1.14-5.91,1.23-2.15,1.66-4.74,2.44-7.14.42-.55,3.36.08.86-1.81a6.56,6.56,0,0,1-2.21-2.14,6.12,6.12,0,0,1,3.89-2.14c1.84-.35,4.14,5.88,4.7.84.51-4.61,8-10-.18-14.46,2.4-3.13,5.16-3.24,8.75-2.65,6.46,1.07,9.31-1.07,7.78-6.61-2.24-8.08,2.36-9.94,8.6-11.87,0,6.45-1.46,12-5.11,17.11-.87,1.21-.53,3.33-.59,5-.09,2.85.29,5.88-4.1,5.79a2.28,2.28,0,0,0-2.47,2.46c-.06,3.76.48,8-5.75,6-.3-.09-1.09.46-1.09.47,2,4.6-5,8.43-1.16,13.17-.88,1.36-1.92,2.93-2.6,0-.43-1.85.17-4.28-2.37-4.75s-2.77,2.32-4,3.67C870,786.5,868.6,788.18,867.19,789.82Z" fill="#5a5147"/><path d="M972.38,843.32c5.35-8,3.06-17,2.8-25.55A21.31,21.31,0,0,1,980,802.93c-.66,14.13.56,28.32-3.13,42.23C976.45,842,973.31,845.31,972.38,843.32Z" fill="#63594f"/><path d="M980.9,907.28c.45-4.64-1.46-9.79,3.13-14.2,1,5.51,2.33,10.37,2.19,15.48-.43,4.27.91,9.07-3.65,12.13C978.56,916.64,980.1,911.92,980.9,907.28Z" fill="#7d7369"/><path d="M981.66,873.46c-1.3-7.19,2.54-12.9,5.63-19.35,3.44,6-2.24,11.13-.76,16.71.54,2,1.65,5.37-2,6.71C982.41,877,982.82,874.68,981.66,873.46Z" fill="#3e352c"/><path d="M978.61,896c-5.06-6.43-5.55-13.49-3-21,.51-.62,1-3.68,1.75-.43,1,4.4.94,9,1.34,13.52C979.15,890.72,980.08,893.36,978.61,896Z" fill="#3e352c"/><path d="M974.41,799.15,973,797.7c-2-7.36,0-13.72,4.89-19.38a2.13,2.13,0,0,1,2.06-.22,5.16,5.16,0,0,1,1.36,2.9c.22,4.06.18,8-4,10.45Z" fill="#352d26"/><path d="M879,519.46a2.6,2.6,0,0,1,2.58-2.66c3.41,1,7,3.12,10.19,2.61,4.62-.75,8.91-3.61,12,2.48.18.36,1.47-1,1.07-2.28-1.27-3.92,1.19-6.35,4.11-7.73,4.3-2,2.6-3.26.12-5.28s-5.3-4.08-4.88-8h0c2.27-1.35,3.49.36,5,1.53,2.4,1.8,4.56-.11,6.63-1a1.84,1.84,0,0,0,.57-3.2c-2.21-1.56-2.12-5.66-5.64-5.38-1.62.14-3.89,2.93-4.5,0-.47-2.26.29-6.12,4.19-6.11,5.44,0,4.28-3.61,4.3-6.71,2.51,1.84,3.54,7.46,8.45,3.2.26-.23,1.09-.32,1.2-.16,4.15,5.75,11.4,8.22,15.38,14.15-1.19,1.07.18,2.92-1.22,3.92-2.5-.41-4.4-2.59-7.13-2.34-2.6-.71-3.43-3-4.69-5.1.15-.73-1.07.54-.24.23.43-.16.32,0,.37.51.2,1.86-1.05,2.68-2.32,3.54-.86.58-2.45,1.29-1.6,2.3,4.94,5.8.41,12,1.05,18-1.58,4.09.25,8.28-.35,12.41a6.4,6.4,0,0,1-3,3.78c-3.93,1.29-7.7,3.12-12.69,4.07a9.86,9.86,0,0,1,4.55,7.47c.7,4.74,5,6.63,10.61,5.09,4.79-1.31,3.52-4.62,2.57-7.83-.69-2.36-3-5.59.14-6.86,3-1.17,4.8,2.27,6.24,4.67a28,28,0,0,1,4.41,15.41c.57,2.72,1.57,5.37,1.42,8.21-.57,2.92-2.78,4.69-4.79,6.59-2.83,2.67-5.45,2.31-7.45-.89-1.55-2.48-3.3-4.43-6.47-4.57-1.7-.31-2.8-1.14-2.72-3.14.42,6.16-.49,6.71-9.93,5.78,3.46,4.72,14.46,4.71,8.92,14.23-5.93,6.42-14.38,6.78-22.08,9-1.85-1.93-4.78-1.59-6.83-3.15-1.55-4.5-.53-7.57,4.67-8.52,1.39-.26,3.21-.08,3.73-2-2-3.68-3.05-8.44-9-7.32-2.83-7.73-8.87-5.26-14.52-4.68-1.95.2-2.77-1.79-2.9-3.68C865.74,545,870.8,531.81,879,519.46Z" fill="#483e34"/><path d="M894.94,575.73c2.06,2.59,1.57,3.54-1.88,3.36-4.88-.25-6.92,2.27-6.11,7-2.06,2.68-4.52,5.07-4.05,9,.39,3.25-1.51,5.18-4.78,5.93-1.7.4-3.75,1.23-3.47,3.29s2.59,2.09,4.27,2.26c6,.61,11.19,3.8,17.11,4.54a5.38,5.38,0,0,1,3.69,2.53c1.26,1.87,2.26,3.92.8,6s-3.44,1.34-5.35.68c-6.4-2.22-12.93-4-20.27-6.39,3.29,2.83,5.4,5.52,3.59,9.06s-4.89,2-7.6,1.45c-2.31-.44-4.3.43-6.35,1.2-3.9-2-1.5-5.33-1.85-8.09,2.45-1.43,3.54-2.65,1.86-6-1.4-2.76-4.49-4.9-4.09-8.51,5.44-1.33,7.09-6.43,9.89-10.2,1.25-1.69-1.65-2.55-3-3.51-3.92-2.82-5.9-6.3-4-11.13.58-1.45,2.08-3.55,3-3,3.5,2.35,4.93,0,6.76-2.09.88-1,2.15-1.7,3.49-1a2.64,2.64,0,0,1,.86,3.48c-1.34,3.3-.29,4.77,3.21,5.27,2.62.38,4.33,1.48,5.36-2.73C886.8,575.28,891.65,575.8,894.94,575.73Z" fill="#5a5044"/><path d="M863.25,617.57c1.67,2.4-1.38,5.53,1.23,7.78a2.08,2.08,0,0,1,1.79,1.85,3.07,3.07,0,0,1-2.61,2.49c-1.23.28-2.86.27-2.73,2,.17,2.31,2.12,2.35,3.88,2.45a19.19,19.19,0,0,1,3.71.54c2.43.75,5,1.11,7.15,2.6,3.69,2.92,5.7,7.55,10.52,9.44,2.31.89,2.61,3.5,1.14,5.54s-3.79,1.29-5.23.07c-3.52-3-8.48-3.42-11.69-6.93a4.75,4.75,0,0,0-5.74-1.24c2.21,3.38,4.84,6.83-.68,9.74-1.2.62,0,2.82.1,4.3a3.44,3.44,0,0,1-3.56,3.81c-2.16.14-3.18-1.62-3.6-3.22-1.21-4.68-3.66-6.27-8.83-6.13-7.29.2-10.77-4.07-11.56-12.47-3.48.31-5.88,2.17-8,4.65-1.16,1.34-2.09,4-4.55,2-2.07-1.68-1.72-3.92-.19-5.78a38.88,38.88,0,0,0,3.78-5.26c4.37-1,8.09-3.82,13.38-.66,3.2,1.91,7.73-2.14,11.73-3.27,1.73.72,1.91,4.42,4.24,3.11s0-3.44-.65-5.07-.67-2.77,1.4-3.38c4.31-1.25,4.07-4.33,2.93-7.69C861.09,617.63,861.83,616.89,863.25,617.57Z" fill="#675e53"/><path d="M840.72,611c-4.52,1.22-8.24.55-11.22-3.55-1.8-2.48-5.16-3-7.82-4.37-2.39-1.26-6.12,1.58-7.09-1.36-1.79-5.45-7.58-9.12-6.88-15.54a.79.79,0,0,1,1.3,0c.39,3.4,4.86,3.58,5.18,7.13,2.53-3.36.18-5.11-1.67-6.9-2.14-2.08-2.79-3.9.48-5.44,2.06,4.07,5,6.55,9.86,4.78,2.31-.84,3.79-.4,4.56,2,.65,2,1.56,3.57,4.11,2.36,1,3.21.54,7.37,5.33,8.24.26.05.65.91.58,1C830.84,605.29,840.73,606.8,840.72,611Z" fill="#574a3d"/><path d="M879,519.46c-4.55,13.26-11.05,26-10.46,40.59-.52-.38-1.53-.81-1.49-1.13.59-5.19-.5-7.53-6.43-4.92-3.29,1.45-4.27-2.56-5.5-4.35a8,8,0,0,1,.32-9.65,14.7,14.7,0,0,1,2.46-2.08c2.41-1.89,4.39-4.77,8.28-2.8a2.38,2.38,0,0,0,3.27-1.28,1.86,1.86,0,0,0-.75-2.25c-4.62-3.63-2-5.31,1.68-7.29,2.2-1.17,4.87-2.1,6-4.69Z" fill="#62574a"/><path d="M863.25,617.57l-2.67,1.26c-9-4.88-12.53-13.78-17.08-22.83l6.49,1.92h0c2,4.68,5.73,5.92,10.47,5.22,4.58,2.27,5.17,7.55,7.89,11.18C870.84,617.64,865.54,617.07,863.25,617.57Z" fill="#867a6a"/><path d="M850,597.92c.07-2.12,1.65-3.52,3.29-3.07,2.92.8,3.7,3.48,4.46,6.5-3.7,0-4.32-4.68-7.75-3.43Z" fill="#5a5044"/><path d="M946.35,436.14a8.41,8.41,0,0,0,4.34-5.55c2.77.76,2.64,3.14,2.84,5.21a33.57,33.57,0,0,1,0,9A66.48,66.48,0,0,0,955.39,476c-2.95,6.6-7.11,7.53-11.15,2.1a59.18,59.18,0,0,1-5.4-8.81c-.59-1.16-1.36-3-.64-3.67,5.11-4.5-.52-10.56,2.47-15.4.65-1-1.49-2.42-2-3.84-2.4-6.1-3.31-12.51-4-19.11,2.67,4.28,5.72,8,10.39,10,.63,7,2.39,13.87,0,21.08-1.28,3.8.55,8.3,0,12.26C945,459.27,946.43,447.73,946.35,436.14Z" fill="#86796a"/><path d="M934.64,402.17c-3.55,2.07-5.41-.94-6.95-2.85-1.84-2.27-1.49-5.25,0-7.92,1.12-2,4.29-4,.32-6.3-1.4-2-.21-3.17,1.34-4.21,5.61-3.72,10-8.1,9.21-15.56-.17-1.7.23-3.64,2.33-4.12s3.23.8,4.06,2.49a21.5,21.5,0,0,1-.43,12.58c-2.12,4.85,1.35,9.24,1.21,13.94-.08,2.27,1.53,4.67-.7,6.72C942.68,400.85,939.35,402.84,934.64,402.17Z" fill="#776b5b"/><path d="M938.68,446.37c4.35,2.1,1.27,3.14,2.32,6.17,2.15,6.24-2.74,11.37-.56,16.67,1.19,2.89,3.33,5.55,5.09,8.19s5.5,4.21,8.59.49c2.67,5.33,1,10.5-.62,15.67-.39,1.3.64,3.4-1.53,3.69-1.8.25-1.57-1.7-2-2.78-1-2.36-1.59-5-2.94-7.11-1.56-2.47-1.57-.07-1.93.9-2.53-2.51-3.13-6.12-4.56-9.11-2.53-5.27-5.23-5.78-10.35-2.29.26-4.76-2.19-7.58-4.59-10.51-.71-.86-1.85-2.25-.68-3.48a2.42,2.42,0,0,1,3.56.29c4,4.8,6.38-.65,9.09-1.67,3-1.12,1.72-4.45,1-6.94C937.78,451.79,937.51,449.08,938.68,446.37Z" fill="#5c5145"/><path d="M918.66,428.24c.2-2.06,1-3.77,3.38-3.72,2.6.06.8,2.31,1.48,3.28a24.24,24.24,0,0,0,3,3.1c-1.78,3.6,0,6.32,2.52,8.53,3.13,2.79,1.28,4.78-1.18,5.6s-6.06,1.35-8.33.29c-1.71-.79-1-4.09-.77-6.65C919,435.46,920.89,431.62,918.66,428.24Z" fill="#776b5f"/><path d="M946.35,436.14c2,12.19-.11,24.33-.55,36.5-5-11.68,1.08-23.62-.75-35.37C945.49,436.9,945.92,436.52,946.35,436.14Z" fill="#86796a"/><path d="M913.47,457.07c-1.94-.26-4.19.65-5.62-1.49,1.12-1.61,2.15-3,4.62-1.91C914.47,454.55,914.27,455.61,913.47,457.07Z" fill="#80776c"/><path d="M506.41,526.94c1.64,3.31,1.82,5.41,0,7.34-.65.68-1.87.66-2.13-.25C503.57,531.6,505.13,529.86,506.41,526.94Z" fill="#948878"/><path d="M709.94,460.84c0-2.58,0-5.16,0-7.74,0-2.91.7-5.14,4.19-5.29,1.81-.08,3.59-.23,3.62-2.67s-1.46-3.22-3.47-4c-3.58-1.44-7.26-1.08-10.94-1.15,6.94-1,12.36-4.31,15.83-10.46,1.78,4.49,5.36.37,7.94,1.66.9,5.39-5,9.72-2.69,15.37C715.6,447.39,711.19,452.55,709.94,460.84Z" fill="#5c5144"/><path d="M752.14,455.59c2-6.85-2.39-14.13,1.41-20.86,2.58,2.79,5.12,5.63,7.76,8.37,1.92,2,.87,3.42-.68,4.83C757.81,450.5,755,453,752.14,455.59Z" fill="#695548"/><path d="M725.74,447.85c.87-.08,2.12.17,2.56-.3,5-5.4,10.5-3.22,16-1.05-2,1.85-5.38,1.44-6.7,4.54-1.1,2.56-3.1,4-6.34,2.76C728.28,452.68,725.27,451.94,725.74,447.85Z" fill="#5c5144"/><path d="M735,426.87c0-.64-.22-1.49.11-1.9,4-5.07,1.72-9.39-1.55-13.62,7.32,2.42,10.5,9.32,15.75,14.07-3.24.14-4.28-4.29-7.53-3.48C738.93,422.65,737.09,425,735,426.87Z" fill="#695548"/><path d="M753.54,434.72c-5.56-.94-11.43-.93-15.87-5.2C744.17,428.18,752,430.74,753.54,434.72Z" fill="#695548"/><path d="M883,377.26l-3.89.05c1.21-4.91-3-5.08-5.91-6,.36-1.9,1.61-1.86,2.61-1.78,6.86.57,12-.38,16.1-7.57,1.8-3.13,6.4-6,8.56-10.07,1-1.85,3.13-3.93,1.91-5.87-1.45-2.3-3.92.7-6,0-.94-2-3.47-4.15-1.35-5.36,3.88.48,22.48,1.75,24.63,4.2.48.56.34,1.65.48,2.5-1.38,3.31-3.7,6.37-2.82,10.28-3.27,4.24-4.37,1.44-5.22-1.9-2,3.54-3.22,6.8-2.09,10.71,1.29,4.53-1,7-5.54,7.44a71.07,71.07,0,0,1-9.76.62A21.72,21.72,0,0,0,883,377.26Z" fill="#362d24"/><path d="M809,586.17h-1.3c-1.2-.41-1.78-2.84-3.05-1.86-3.91,3-4.86,2.2-4-2.37.15-.79-.9-1.68-1.82-1.43-1.14.31-1.48,1.44-1.67,2.57-.27,1.56.55,4-2.08,4-2.35,0-2.22-2.49-2.67-4-1.37-4.46-6.17-7.59-4.59-13.26-8.78,5.09-10.17,9.84-5.22,16.22-3.79.46-7.37-3.82-5.82-7.21,2.49-5.49,1.49-10.87-.56-16-1.71-4.32,0-9.51-4.39-13.35-1.23-1.08,1.68-4.83,4.14-6.43a5.87,5.87,0,0,0,3.47,5.15c3.22,1.67,6.48,3.06,7.29,7.42,2.23-6.72-4.42-11.11-3.19-17.14,2.47-.7,2.62,2.66,4.84,2.76l2.13-4.73h4c-.42,1.32-3.06,1.57-1.88,3.63a2.64,2.64,0,0,0,3.39,1.28c1.76-.79,3.49,0,5.09-.3,1.88-.39,3.42-3.34,5.6-.72,2.39,2.87-1.16,3.21-2.06,4.78-1.33,2.35,3.24,4.19,1.2,7.3-1.94-5.24-8.84,1.43-10.34-6.15-1.73,4.91.11,6.74,2.74,8.19,1.34.75,4.89-.41,3.1,3-1.64,3.16-3.5,1.08-5.2-.28-.25-.2-.76-.1-1.75-.19,1.37,3.32,2,6.35,6,7.77,3.21,1.14,4,4.72,1.67,6.81-4.36,3.95-1.63,6.63,1.6,7.41C808,580.19,808.22,583.1,809,586.17Z" fill="#55483c"/><path d="M719.16,429.5c.76-4.22-1.53-6.48-5.17-7.88q-.5-.36-.39-.78c.07-.29.16-.44.26-.44q0-3.27,0-6.54c1.73,3,3.76,5.53,7.86,5.29,1.88-.11,3.25,1.29,1.53,2.71C720.73,424,721.13,427.29,719.16,429.5Z" fill="#5c5144"/><path d="M904.13,498.65c-3.27-.27-4.08,1.49-4.09,4.39,0,1.69-1.64,4.21-3,2.37-4-5.21-4.51-1.38-4.59,1.59-.13,4.88-4.86,5-7,8.26-2.82-4.78,3.48-5.54,3-9.29-.51-4.27,2.44-8.28,2.1-12.86-.16-2.11.44-6.29,2.62-6,3.28.44,8.23-.77,9.37.87,1.85,2.67,1.19,7,1.59,10.68Z" fill="#8c8070"/><path d="M908,472.94c-1.34,3.46-2.75,6.26-3,9.4-.1,1.16-.59,3.36-2.83,2.63-1.74-.58-2-2.15-1.55-3.76C901.53,477.57,902.35,473.78,908,472.94Z" fill="#8c7f72"/><path d="M905.6,466.14a3.8,3.8,0,0,1,2.53,3.82c-.85,1.21-2.09,1.72-3.17.66C903.33,469,904.88,467.57,905.6,466.14Z" fill="#3d332a"/><path d="M883,377.26c2.5-6.53,8.71-3.32,13.12-4.53a25.6,25.6,0,0,1,6.95-.56c5.25.16,7-.71,4.92-6.7-1.85-5.23,1.75-10,5.12-13.46,4.61.26-4.37,8,4.23,5.63-4.07,5.19-1.16,9.36,2.11,13.38,4.77-6.23,4.79-6.23,12.54,1.1,2.13,3,1.48,5.6-1.81,6.76-2.85,1-3-1.55-3.1-3.48-1,5.34-5.57,7.3-9.61,9.78-1.45,2.14-2.67,2.8-2.68-.61s.12-6.94-1.85-10.11c-2.85,1.38-4.95,3.88-8.54,4.38-4.39.62-1.69,3.93-1.44,6.21-2.85,3.16-11.26,1.23-11.57-3.23-.4-5.64-2.07-5.89-6.28-3.45C884.73,378.58,883.7,377.66,883,377.26Z" fill="#5b5045"/><path d="M917.45,385.18c3.08-4.41,8.51-6.8,10.25-12.43,2.53,1.51-1.56,5.15,1.75,5.09s2.26-3.51,2.52-5.72c-1.34-6.73,3.15-13.14.51-20.31-1.05-2.87,3.48-6.55,7-8.18,1.95-.9,3,1,3,3.05,0,2.37,0,4.73,0,7.1.18,2.63,1.07,4.21,4.05,2.63a3.23,3.23,0,0,1,.68,3.48,5.8,5.8,0,0,1-3.43,3c-2.47-1.29-4.6-1.16-3.9,2.17,2,9.26-3.45,13.72-10.71,17.3-.7.34-.82,1.82-1.21,2.77-1.26,2.43-2.62,4.83-3.75,7.32-1.22,2.71-2.89,3.57-5.54,1.85.52-1.16.79-2.55,1.6-3.44C924.35,386.39,922.79,384.9,917.45,385.18Z" fill="#44392e"/><path d="M957.7,821.93l-3.57-2.65c-1.45-5.3,3-10.27.89-15.61l4.1,2.63c2.06,3.29.9,6.88,1,10.35C959.58,818.52,959.48,820.6,957.7,821.93Z" fill="#63594f"/><path d="M955.43,944.29c-1.3-7.44.91-13.68.07-21.34C959.46,933.08,959.47,937.1,955.43,944.29Z" fill="#7d7369"/><path d="M943.78,889.05c-1.39-2.87-6.38-5.19-1.42-9,1,1.62,2.82,2.82,2.83,5C943.51,885.94,943.85,887.57,943.78,889.05Z" fill="#665c52"/><path d="M966.57,903c-3.21-5.86-1.39-10.93,2.54-15.66.11,7.77-.1,15.59,2.94,23,1.23,3-1.35,5.26-1.55,8C965.43,914.12,966.78,908.35,966.57,903Z" fill="#7d7369"/><path d="M955.91,894.31l3.94,15.31-1.48,5.86c-5.23-3.82-2.64-9.74-4-14.59C955.1,898.75,953.33,896,955.91,894.31Z" fill="#7d7369"/><path d="M972.35,929.61c4.67,2.87,2.84,7.8,3.84,11.83,1.16,2.15.46,3.79-1.43,5.11-3.07-4.45-2.09-9.6-2.57-14.5C972.24,931.23,972.3,930.42,972.35,929.61Z" fill="#7d7369"/><path d="M877.86,509.05c2,2.74,4.34,5.54-1.43,6.63Q877.15,512.37,877.86,509.05Z" fill="#62574a"/><path d="M713.86,420.4c0,.41.07.82.13,1.22,2.21,7.53-.28,12.09-8.18,14.3-2.54.71-4.22,1.64-6.38-.39s-1.64-3.24-.82-5.92a18.22,18.22,0,0,1,5.62-8.94C707.47,417.83,710.55,417,713.86,420.4Z" fill="#8a7e71"/><path d="M893.66,698.48c-4.35.4-5.91,3.67-6.49,7.09-.67,4-3.35,3.62-5.82,3.12-3.78-.78-1.57-3.14-.93-5,2.51-4.72-.37-8.78-7.31-8.5-5,.21-7-2.58-9.43-5.59-1.34-1.68-1.74-3.58,0-5.25s3.79-1.76,5.29-.14c5.37,5.77,10.18,2.58,15.06-.63a5.14,5.14,0,0,1,1.83-.22c9.13,1,18.25,3.6,27.44.33,3.19,0,4.32,3.07,6.67,4.34.77,1.94,4.66,3.77-.06,5.84-8.28,3.64-8.29,4.2-.08,10.43-3.75-.39-5.81,5.37-8.68,1.47-2.23-3-6.63-.71-7.88-4.66C901.55,695.65,897.58,696.85,893.66,698.48Z" fill="#685e50"/><path d="M917.25,810.81l-6.39-5.44a12,12,0,0,0-1.18-3c-2.36-3.2-1.57-5,2.37-4.67,3.38.3,5.75-1.61,8.55-2.65,3.32-1.22,5.21-3.38,4.65-6.86-.75-4.73,3-8.44,2.46-13.48-.27-2.49,3.69-7.06,8.24-6.88,1.93.08,2.65-.78,3.78-1.6,1.42,3.28.73,6.71.71,10.09-.3,3.22-.36,6.4,1.46,9.31a3.85,3.85,0,0,1-.23,2.77c-3.83,2.79-7.9.47-11.92.52C926.28,796.62,930.71,808.73,917.25,810.81Z" fill="#63594f"/><path d="M953.33,797.54c-.52-12.92-.46-25.9-1.77-38.74-.67-6.55-3.78-12.87-5.85-19.48-1.85,2-.38,4.17-.75,6.12-.52-4.84-3.93-8.62-5-13.27a2.7,2.7,0,0,1,3,1.85c-.11-1.06-.69-2-.75-3.08-.15-3-.56-5.93,1-8.67,3.63-1.14,3.65,2.06,4.37,3.89,2.3,5.83,2.47,12.13,3.71,18.11-.43.9,1.28.22.4.11-.13,0-.05-.21,0-.64a3.47,3.47,0,0,1,1.71-2.59,1.88,1.88,0,0,1,1.74,1c2.42,6.24.8,12.83,1.69,19.25,1.31,9.6,1.3,19.36,2,29,.19,2.78.67,6.26-3.55,7.15A1.63,1.63,0,0,1,953.33,797.54Z" fill="#352d26"/><path d="M917.31,744.09l3.53-3.84c-2-2.35-4.59-1.37-6.72-1.2-3.86.32-6-2.25-8.56-4.1-1.59-1.14-1.38-2.54-.61-4,.61-1.17,1.24-2.29,3-1.88,6.69,1.57,13.38,3.1,20.08,4.65l0,0c-.29,3.58.63,6.23,4.76,7,1.22.24,3.33.83,2.43,2.95-.76,1.78-2.33,1.11-3.89,1-3.74-.38-7.64-1.69-11.19.81C918.63,746,917.84,745.31,917.31,744.09Z" fill="#5c5245"/><path d="M941.22,785.89c-4.25-2.25-2.47-6.06-2.49-9.41,2.16.41,2,1.67,1.45,3.19,1-2.16-1.38-5.11,1.29-6.95l1.88,4c.59-1.71.17-4.29,3.09-3.93,2.09,9.62,5,19.81,2.15,29-2.06,6.73.3,12.09.26,18-2.05.83-4,1-5.94-.39-.15-.25-.31-.5-.47-.75l.21-3.06c-.41-9.28-1.18-18.54-.2-27.83A1.6,1.6,0,0,0,941.22,785.89Z" fill="#63594f"/><path d="M920,688c-3-.09-4.68-2.14-6.56-3.95-2.3-3.49.38-5.06,2.74-6.54,3.09-1.93,6.17-1.44,9.09.59,1.64,1.13,2.18,3.17,3.92,4.46.74-4.82,3-7,7.82-4.31,2.49,5.15,5.73,10.12,3.88,16.28-7,.06-11.13-6.3-17.47-7.85C921.75,686.32,919.25,682.7,920,688Z" fill="#53493e"/><path d="M939.92,712.8c-4.26,4.89-6.53-.4-8.68-2.17-5.61-4.63-5.1-5.74,1.63-8.82,2.92-1.33,7.29-.45,8.42-4.85a2.32,2.32,0,0,1,2.29,1.12c1.44,2.15,4.66,3.39,3.64,6.84-.94,4.22.67,8.73-1.49,12.8a1.79,1.79,0,0,1-1.75.63c-2.78-2.62-1.46-5.74-1.14-8.7C942,710.72,942.49,713.18,939.92,712.8Z" fill="#63594c"/><path d="M913.55,838.22c-.35,2.9-5.45,4.31-2.56,8.28.66.91-.54,1.77-1.27,1.71-5.23-.41-6.16,4.86-9.51,6.89-.14-1.07.06-2.35-.47-3.16-2.53-3.8-3.8-6.5,3-4.79,1.87.47,4.3.3,4.89-2.09.69-2.81-2-3.83-3.79-5.14,1-2.88,7.57-2.77,4.05-7.9-.49-.72.34-2.34,1.55-2.42,2.29-.16,2.92,1.88,3.18,3.47S910,837.05,913.55,838.22Z" fill="#3e352c"/><path d="M917.31,744.09l2.74,1.34c2,2.8.37,5-1.76,6.32-1.59,1-3.64,2.06-5.53-.69-1.77-2.57-1-3.85,1.1-5.17C915,745.21,916.16,744.68,917.31,744.09Z" fill="#5d5449"/><path d="M867.14,772.82a31.29,31.29,0,0,1,3.61,1.23c1.31.61,3.27,1.35,2.28,3.12-1.48,2.66-3.1.78-4.54-.4-.42,0-.85,0-1.27,0-1.91,0-4.59.25-4.61-2.1C862.58,771.79,865.54,773.33,867.14,772.82Z" fill="#686056"/><path d="M931.72,725.81c.68-2.77-1.18-5.89,1.55-9,2.64,3.84,1,8,1.65,11.63a11.22,11.22,0,0,1,.27,3.83c0,1,.32,2.42-1.08,2.62-1.89.26-1.24-1.85-2.07-2.65a1.93,1.93,0,0,0-.19-1.11C930.15,729.39,930.94,727.6,931.72,725.81Z" fill="#5c5245"/><path d="M941.47,772.72V781c-2.93-.71-1.31-3.43-2.74-4.52q.51-5.1,1-10.2c.42-.2.56-2.28,1.13-.52C941.57,767.92,941.31,770.38,941.47,772.72Z" fill="#63594f"/><path d="M932,732.23c3,3.49,2.57.61,2.67-1.37,0-.81.14-1.62.21-2.43,1.12,1.21,1.06,2.73,1,4.18-.11,1.73.82,4.6-1.85,4.56C930.89,737.12,932.05,734.18,932,732.23Z" fill="#5c5245"/><path d="M931.72,725.81c0,1.77.09,3.54.13,5.31l-3.91,2.55,0,0C927.74,730.39,927.55,727.09,931.72,725.81Z" fill="#5c5245"/><path d="M827.55,635.79c.25,2.36-.81,4.12-2.46,5.75s-2.26,3.24.32,5.34c1.09-2.64,2.4-5.37,4.93-6.31s5.09-4.2,7.55-3c2.29,1.15.36,4.56.47,7,.15,3.59,5.9,8,10.82,6.62,6.53-1.86,7.73,1.45,8.82,6.14.32,1.39.47,3.32,2.3,3.52s2.79-1,2.87-2.82c1.39-1,2.41-.64,3.13.83a7.33,7.33,0,0,1-1.26,4.63c-.94,1.19-2.06,2.23-2.9,3.5-2.94,4.46-5.33,3.75-7.3-.71-3.78.43-7.48,1.63-11.36.88-2.09-.41-3.16,1-4.09,2.53-7.28,8.39-10.68,9.2-22.15,5.6-4-1.26-7.3-.1-9.53,3.55-4.23-1.63-5.27-5.47-6.57-9.15,6.34,1.12,12.54-2.74,18.6-.94-2-5-6.55-9.57-6.41-16.11,0-2.37-2.34-3.43-4.06-4.78-1.56-1.23-4.44-1.27-4.2-4.25,1.73-.57,1.32-6,4.84-2.32,5,5.17,8.79,2.55,12.71-1.29C824.16,638.49,825.9,637.19,827.55,635.79Z" fill="#534a40"/><path d="M805.07,643.61c2.42,1.42,4.88,2.75,7.22,4.29,1.06.7,2.75,1.89,2.65,2.69-.85,7.12,4.23,12.15,6.28,18.21.51,1.48,1.34,3.22-.54,4-3.1,1.23-1.34-1.56-1.88-2.53-1.33-2.41-3.14-.49-4.61-.23-4.4.76-8.76,2.86-13.05-.31-4.31-4.58-.9-5.66,3-5.71,2.65,0,5.22.83,6.49-2.42-8.1-2.81-6.19-11.16-9.51-16.6-.61-1.48-1.17-3,1-3.65C804.11,640.69,804.9,641.8,805.07,643.61Z" fill="#3e362e"/><path d="M799.81,645c-2,1.63-3.81,3.6-6.62,3.88,2.22-4.25,3.11-8.47-.21-12.64-2.27-2.86.15-5.31.88-7.86a3,3,0,0,1,2-1.11c1.62,1.69,2.72,4.25,4.66,5.21,4.53,2.25.36,3.26-.25,4.9C799.38,639.79,795,642.14,799.81,645Z" fill="#534a40"/><path d="M734,668.48c-5.83-.42-9.31-5.05-13.78-7.85-1.62-1-.58-3.09,1.1-3.47a34.06,34.06,0,0,0,8.57-3.16c1.72-.92,2.92-.43,3.74,1.23,1.85,3.72,5.93,6.48,6,10.77C739.66,667.77,736.38,668.49,734,668.48Z" fill="#7a7066"/><path d="M839.39,669.69c-.28-3.86,2.27-4.06,5.13-3.88,4.5.29,9,.44,12.56-3.21l-1.76,3.25c2.49,5.86,2.26,11.52-1.29,16.93h-2.7a20,20,0,0,1,.11-3.2C853.61,667.77,851.73,666.22,839.39,669.69Z" fill="#675e53"/><path d="M838.09,681.53c-.05,1.59.15,3.4-1.89,3.57s-3.11-1.26-3.26-3.18.21-3.69,2.39-3.83S837.91,679.87,838.09,681.53Z" fill="#534a40"/><path d="M854,682.78c-.39-5.7,2.26-11.18,1.29-16.93,2.2,2.78,4.29,5.25,5.7-.58.38-1.56,2-2,3.55-2.13.52-.41,1.47-.9,1.74-.55,5,6.34,13.38,9.45,16.94,17.15a9.06,9.06,0,0,1,1,4.36c-5.42,6.42-10.11,7-15.52,1.65-1.52-1.51-2.68-2.16-4.34-.64s-.74,2.81.49,3.85c2.61,2.21,3.67,5.91,9.29,4.28,3.15-.92,7.72,4.09,12.47,5.3-1.63,2.86-4.33,3.54-6.24,5.16-2.36.11-4.27-.49-5.47-2.79-.46-.88-1.59-2.16-2.29-2.09C860.44,700.21,859.39,689.05,854,682.78Z" fill="#3c332b"/><path d="M735.45,616.66c.14-1.68.91-3.65.29-5-3.08-6.65,2-6.09,5.43-5.66,7.17.88,13.25,13.36,9.84,19.58a6,6,0,0,1-5.67,2.79C739.87,628.28,735.25,622.48,735.45,616.66Z" fill="#4a4136"/><path d="M782.14,547.22c-2.65-1.94-3.92-3.5-4.66-6.92C780.83,541.75,782.7,542.89,782.14,547.22Z" fill="#55483c"/><path d="M917.25,810.81c8.5-3.61,9.32-11.18,10.09-18.85a53.66,53.66,0,0,1,1.4-6.38c3.92,3.09,8.37,2.33,12.5,2.95,3.56,7,2,14-.29,21-.43,0-1.05.2-1.28,0-6.38-6.06-11.62-.9-16.72,2C920.34,813,918.85,813.69,917.25,810.81Z" fill="#63594f"/><path d="M941,809.51c.58-7,2.58-14,.29-21,0-.88,0-1.76,0-2.64.51-.94,1-1.89,2.25-4.21.47,12.3,1.78,23.16-.82,34C940.9,813.94,941.42,811.59,941,809.51Z" fill="#63594f"/><path d="M998.76,815.75c-4.36-5.51-9-10.87-13-16.63-1.31-1.89-2.92-4.45-1.61-7.26a3.81,3.81,0,0,1,2.29-.17A2,2,0,0,1,988,794c1.26,2.17,2.53,4.34,3.79,6.52,3,1.6,2.28,5.8,5.29,7.38Q997.95,811.83,998.76,815.75Z" fill="#63594f"/><path d="M998.16,636.82,996.93,644c.43,1.32.8,2.64-.44,3.77-3.12-.69-2.64-3.7-3.78-5.68A138,138,0,0,1,987.09,620c-.5-5.35.53-10.76-.7-16.07a8.24,8.24,0,0,1-1.66-3.49c0-.89.06-1.78.1-2.68,3.58,0,4.83,1.4,5.54,5.29C992.44,614.43,995.49,625.59,998.16,636.82Z" fill="#302921"/><path d="M989.43,564.3c.46,3.46,2,6.81,1.2,10.42-2.3,5.67.67,11.55-.87,17.94-3.3-3.55-4.64-7.32-4.06-11.62.75-5.54,1.82-11,2.76-16.54,0-.16.22-.39.35-.4A1.55,1.55,0,0,1,989.43,564.3Z" fill="#786d5c"/><path d="M963.11,887.31c-3.62-2-4.12-6-2.46-8.28,3.41-4.71,1-9.11.72-13.57-.42-8-2.77-16,1-24,1.1-2.35-.42-5.89-.74-8.88-1.19-2.69.92-5,1-7.52.1-2.16-.31-5.57,2.9-5.59,2.94,0,4.15,2.75,4.35,5.6-1.26,4.48,1.91,9.35-1.25,13.66-.65,2.4.16,4.61.9,6.83l-2.19,1.26c-2.08-1.19-1.47-3.09-1.35-4.94-.56,1.67-.09,3.39-.53,5a27.69,27.69,0,0,0-.31,11.57c.23.55.42,1.12.61,1.68,1.34,3.05,3.21,5.89,3.64,9.28a3.5,3.5,0,0,1-1.1,3.45c-1.62-.79-2.91-1-2.48,1.5A19.22,19.22,0,0,1,963.11,887.31Z" fill="#3e352c"/><path d="M954.27,886.13" fill="#ecebe9"/><path d="M953,891.61" fill="#ecebe9"/><path d="M956.87,898.55" fill="#ecebe9"/><path d="M974.17,922.2c1.56-1.08,3.13-2.1,5.17-1.27v12.24C977.12,928.46,975.65,925.33,974.17,922.2Z" fill="#7d7369"/><path d="M865.9,659.21a2.78,2.78,0,0,0-2.73-1.19c-2.67-4.14-3.4-7.47,3.47-7.67-.35-.6-.64-1.14-1-1.65-1.4-2.14-5.8-4.06-2.7-6.68,2.15-1.82,6.88-.55,8.66,2,3.07,4.46,9.31,3.24,12.19,7.62a1.61,1.61,0,0,0,2.75-.22c.62-1.21.61-3.18-.66-3.42-5.71-1.06-7.6-6-10.78-9.66,3.87-4.44,10-5.07,13.87-1.35,1.29,1.24,2.46,2.53,4.48,1.34-5-6.55-5-6.55,2.16-9.9-2.55-.52-14.36-.19-16.25.33a5.2,5.2,0,0,0-4,3.93c-1,3.94-3.48,4.56-6.93,3l-3.92,0c-2.42-1.36-1.71-3-.47-4.72.93-1.29,2.73-2.26,1.66-4.3l-1.29-1.37c1.71-4.12,4.79-3.48,8-2.16,1.91.8,4,1.72,5-.78.83-2.07.66-4.55-1.75-5.67s-4.33-2-3.81-5.37c7.75,2.32,15.35,4.5,22.87,6.9,1.72.54,3.69,3.19,4.88.54,1.12-2.5-.7-6-3.35-6-6.57-.13-11.82-4.65-18.39-4.6-2.35,0-6.09-.11-6.32-3.2-.22-2.93,2.65-5.55,5.49-5.49,5,.11,5.07-3.79,4.35-5.87-2-5.8,2.18-6.12,5.54-7.48,1.52,1.36,5.76-2.64,5.31,2.61,0,.3.09.61.14.91a10.44,10.44,0,0,1-.16,4.52c-.78,3.57.84,5.18,4.22,4.38,5.92-1.42,10.89,2.9,16.69,2.32,2.07-.21,3.19,2.07,4,3.89a34.91,34.91,0,0,0,3.57,6.22c1,1.48,2.62,2.53,3.49,4.16-.49,3.64,1.8,7.27.09,10.91-.81,1.71.15,1.56,1.46,1.71,5.58.62,4.24,3.19,1.32,5.65-1.63,1.37-2.8,2.49-.47,3.88s5.55,6.21,7.32,3.81c5.26-7.12,6.69-1.77,9.1,1.73a6.6,6.6,0,0,1-.76,3.4c-.84,1.88-3.36,1.91-4.22,3.77a8.43,8.43,0,0,1-1.15,1.31c-5.8,8.7-14,10.54-23.75,8.28-2.47-.58-4,.62-3,3.25,1.28,3.29,3.22,6.54-1.18,8.94-3.46,1.89-10.85,0-13.69-3.25-2.24-2.55-3.08-7.25-8.25-5.57-2.9.42-5.86.69-7.6,3.54C872.94,669.05,871,668,865.9,659.21Z" fill="#362e25"/><path d="M943.82,580.94c-.08.44-.17.87-.26,1.31a4.1,4.1,0,0,1-3.1-.62c-3.75-1.8-6.38-2.46-5.16,3.48,1.09,5.31-2.24,9-6.11,12-1.86,1.45-4.75,2.64-6.67.74-4.69-4.65-9.37-3.51-14.34-.95a2.73,2.73,0,0,1-1.93,0c-3.29-2.09-6.55-3.8-10.81-3.29-3.46.41-4.63-1.62-3.2-4.86l0,0c7.35-3.37,16.12-3.33,22.48-9.1,2.58,0,3.46-.84,3.22-3.69-.39-4.5-2.49-9.47,2-13.31,2.84-.74,5.77.57,6.28,2.71,1.83,7.66,4.78,3.4,7.58,1a43,43,0,0,0,3.47-3.66C941.05,568.24,944.33,573.94,943.82,580.94Z" fill="#786d5c"/><path d="M942.49,511.78c4.69,9.78.34,19.86,1,29.77.16,2.57-.47,5.18-.73,7.78.45,3.8-3.18,4.16-5.12,5.95a3.44,3.44,0,0,1-2.79-.09c.15-8.05-2.34-15-8.65-20.93-1.52,3.7,1.28,5.72,1.94,8.27,1.35,5.27-.71,7.9-6.1,7.93-2.82,0-5.51.69-8.32-.53-1.83-.8-3.2-1.69-2.84-3.71.91-5-1.6-8.1-6-10.61,5.59-.23,9.86-4.06,15.25-4.2,2.58,1.92,3.27-.22,4.16-1.91.64-1.65.54-3.44,1.09-5.1,1-3,2.77-3.73,5.41-1.7,1.68,2.18,1.75,4.84,2.2,7.38.37,2,.72,4,3.62,3.21,3.17-5.39.42-11.5,2.19-17A8.12,8.12,0,0,1,942.49,511.78Z" fill="#605649"/><path d="M942.49,511.78c-.24,1.81-.91,3.32-2.81,4-.73,1-.38,2.44-1.34,3.35-1.64,1.2-3.22.71-3.39-1-.42-4.32-3.68-6.42-6.39-9a8.29,8.29,0,0,1-.9-2.95c0-3.94-.78-8.24,4.35-10,3.67-2.89,4.88.2,6.37,2.57A33.57,33.57,0,0,1,942.49,511.78Z" fill="#3d332a"/><path d="M920,562.63c-1.88,5.37-.91,10.71.27,16a2.64,2.64,0,0,1-1.35,3.22c-2.23,1.06-2.75-1.51-4.17-2.24,1.62-4.1,1.1-7.06-4-8.12-1.64-.34-3-1.66-4.65-2.33-2.18-.92-2.24-2.56-1.55-4.29.87-2.16,2.17-1,3.69-.46,4.35,1.51,8.58,2.44,6.56-4.85-.39-1.42-.08-3.77,1.61-3.76,2.85,0,1.77,2.15,1.27,3.81C917.13,561.55,918.05,562.5,920,562.63Z" fill="#5e5246"/><path d="M929.24,506.55l.21,2.42c1.58,2.47,4.6,4.09,4.89,7.27s.84,6.55-3.75,7.29c-1.88-.94-3.85-1.94-3.88,1.54a10.65,10.65,0,0,1-1.44,6.15c-2.11.44-3.08-.28-2.58-2.49-.13-4.35-3-8.7,0-13.06,1.21-2.49.43-5.41,1.63-7.87C925.38,505.61,926.68,503.39,929.24,506.55Z" fill="#958878"/><path d="M882.21,542.44c1.73-3.05,1.53-7.08,4.9-7.69,1.71-.31,5.51-7.7,6.19.9.09,1.18,1.77.71,2.77.32,1.48-.59,3.06-1.16,3.87.77,1.29,3.07-1.13,5.2-2.14,7.73-.71,1.74-1.62.81-2.67,1C890.23,546.6,887.77,539.17,882.21,542.44Z" fill="#6a5e50"/><path d="M929.24,506.55c-1.92-1-3.07-.57-3.91,1.51-1,2.5-.74,5.43-2.65,7.61-.07-3.44-.15-6.84.94-10.24.7-2.19.85-4.29-2.28-5.77-4.14-2-2.44-4.23,1-4.71,3.85-.53,3.94-2.57,3.63-5.67l6,6.83C928.84,499,929.29,502.84,929.24,506.55Z" fill="#726656"/><path d="M934.81,555.19l2.4-.39c2.88-.2,2.77,2.33,3.69,3.93.88,5.73,4.25,10.84,4.32,16.77-.34,1.85.58,4-1.4,5.44-1.41-6.34-5.51-11.74-6.5-18.23Z" fill="#605649"/><path d="M922.69,528.73a4.08,4.08,0,0,0,2.58,2.5c-.66,1.6-1.55,3.27-3.47,3.17-1.47-.08-1.67-1.68-1.72-3Z" fill="#726656"/><path d="M868.5,635.77c2.65,0,5.67.27,5.25-3.78s2.81-4.74,5.43-5.07c5.39-.69,10.9-.08,16.27-1.47,1.69-.44,3.83,0,4.17,2.15s-1.59,2.64-3.4,3-3.75,1-5.56,1.57c0,1.94,1.6,2,2.6,2.74,1.7,1.24,5.58,1.81,3,4.86-1.92,2.24-6.57,2.31-7.65.13-4-8.09-9-1.74-13.46-1.54C873.23,636.73,870.24,637.79,868.5,635.77Z" fill="#53493f"/><path d="M865.77,626.72c2.38,1.65,1.25,3.28-.18,4.69s-2.26,2.52-1,4.33c-4.69,1-6-2.14-5.94-5.49.05-4.48,3.54-1.16,5.35-1.8C864.7,628.2,865.19,627.31,865.77,626.72Z" fill="#5a5044"/><path d="M942.43,643.54c-1.25-2.06-2.68-3.92-5.12-4.71-2.76,1.41.2,3.59-1,5.39a9.11,9.11,0,0,1-1.62.06,12.09,12.09,0,0,1-1.23-.44c-4.34-1-7.47-4.25-10-7.09-5.65-6.45,8.23-1.14,3.59-8,.92.54.39,0-.11,0-2.07.11-4.16,3.11-6,1.09s1.53-3,2.31-4.65a3.93,3.93,0,0,0-.39-4.3c-1.7-2.32-.24-4,.93-5.83.16-.26.32-.52.47-.78a5.76,5.76,0,0,1,5.07-1.51c.61.17,1.44.67,1.83.36,4.93-3.87,10.59-7,13.64-12.83a2.1,2.1,0,0,1,1.76-.23c3.8,2.16,5.07,5.52,3.52,9.37-1.92,4.77-2.17,9.72-2.7,14.68-.91,5.07.13,10.24-.65,15.3C946.47,641.65,946.68,645,942.43,643.54Z" fill="#544a3f"/><path d="M906.85,596.58c6.62-5,9.67-5.16,15.71-.23a4.55,4.55,0,0,0,6.81-1c2.32-3.37,7.47-6.35,3.56-11.83a3.18,3.18,0,0,1,1-4.07c1.61-.72,3.73-1.68,5.61-.45a45.26,45.26,0,0,1,4.07,3.28c3.55,4.81,6.16,9.81,3,15.87-6.79-.89-2.37-6.85-4.68-9.08.18,1.82,1.12,4.39.17,7-4.84,2.5-9.33,5.17-8.47,11.8.13,1-1.49,1.32-2.65,1.21-4.3-.92-8.82-1.32-12.06-4.84-2.92-1.6-5.4-3.95-9-4.39C908.46,599.61,906.39,599,906.85,596.58Z" fill="#65594a"/><path d="M942.43,643.54c5.12-3.13,2.12-8.66,3.83-12.84.83-2-.65-4.67,1.22-6.65.34,3.26-.8,6.73,2,11.56A111.5,111.5,0,0,0,951.77,615c3.59,2.85,4.36,6.16,3.09,10.69a52.93,52.93,0,0,0-.87,25,7.69,7.69,0,0,1-.86,4.94c-1.73,3.93-3.74,7.63-4.37,12.07-.45,3.17-2,2.11-2.54-.4-.86-1.86-.08-3.71,0-5.57,1.1-6.92,3.22-13.78,1.88-20.86-.39,2.68-.51,3.08-2.57,6.79-1.89.9-3.1-.12-4.22-1.44A2.31,2.31,0,0,1,942.43,643.54Z" fill="#362e25"/><path d="M951.76,513.05a21.18,21.18,0,0,1,1.32,14.26c-2.17,8.76-3.74,17.68-1,26.78.82,2.69,1,5.95-1.58,8.34-3.88-7-2.83-15-4.62-22.47-1.13-4.69,3.07-10.71,3.77-16.53C950.09,520,948.79,516,951.76,513.05Z" fill="#605649"/><path d="M945.22,575.5c-2.15-5.36-4.9-10.52-5.57-16.37-.46-1.83-1.23-4,.26-5.36,1.23-1.15,2.77.07,3.94,1.05,1.32,2.92.54,6,.77,9,.15,1.95-.34,4.64,1.49,5.42,6.59,2.79,3.07,6.94,2.45,11.12C945.63,579.44,946.92,576.57,945.22,575.5Z" fill="#605649"/><path d="M940.86,596.53c.19-3.44.38-6.87.57-10.39,3.65,3.29.25,9.34,5.15,12,0,.62,0,1.25.08,1.88l-1.44.66c-1.57.75,0,4.55-2.48,3.54C939.36,602.84,939.19,599.65,940.86,596.53Z" fill="#65594a"/><path d="M943.85,554.82c-4.63-1.63-3.89,1.84-4.2,4.31-.82-1.44-1.63-2.89-2.44-4.33.2-3.44,5-2.36,5.51-5.47C944,551,943.8,552.93,943.85,554.82Z" fill="#605649"/><path d="M946.25,360.26a75.3,75.3,0,0,0,1.2,14.73c.59,3,.94,6.57-2.33,8.87q-1.44-3.89-2.9-7.77c3.31-4.08.77-8.85,1.6-13.23A2.33,2.33,0,0,1,946.25,360.26Z" fill="#605548"/><path d="M954.28,851c-3.42-3.47-3.28-8.26-4.75-12.46-2.32-6.67-4.76-13.3-7.15-20,2,1.29,4.62-.58,6.47,1.33,1.1,4.44.48,9.23,4.9,12.84,1.77,1.45,2.22,5.3,1.35,8.58C954.28,844.38,954.51,847.73,954.28,851Z" fill="#3e352c"/><path d="M879,665.72c.18-6.17,5.19-2.82,7.94-3.93,3.55-1.64,5,.74,6.68,3.18,6,8.64,13.37,9.42,21.61,2.45,2.48-2.1,5.23-3.92,7.09-6.66.9-1.33,2.11-2.33,3.79-2.07,3.86.6,6.6-1.36,9.23-3.65,3.77,2.18.71,7,3.73,9.46.94,2,.77,4.53,2.82,6-.24,2.75.72,6.06-3.36,7l-2.62-5v6.3c-7.89-2-4.22,3.62-4.22,7.18-2.82-.36-5.11-1.9-5.5-3.77-.86-4.07-3.82-4.86-6.71-4.43-3.12.46-6.36,2-6.08,6.27-1.23,4.54-5.2,2.7-7.66,2.55-6.74-.4-13.84,1.23-20.16-2.56-1.24-5-2.09-10-6.41-13.62C877.75,669.26,877.84,667.35,879,665.72Z" fill="#766a5c"/><path d="M879,665.72c-.41,2.47,1.1,4.16,2.76,5.43,4.52,3.46,5.51,7.77,3.83,12.93l-1.34,0c-3.87-5.76-7.21-11.9-14.41-14.66-2.5-1-.78-6.35-5.29-6.3,0-1.45-.25-3,1.33-3.93,2.14,0,2.77,1.69,3.58,3.19C871.64,666.34,874.76,667.65,879,665.72Z" fill="#675e53"/><path d="M946.23,703.78a66.52,66.52,0,0,1,2.65,18,5.21,5.21,0,0,1-3.88-3.5C946.17,713.47,944.15,708.46,946.23,703.78Z" fill="#63594c"/><path d="M951.47,706.59c-1.54-5.08-3-10.17-4.63-15.23-.62-2-.92-4.42-4.06-3.87a1,1,0,0,0-.24-.82,23.38,23.38,0,0,1-1.15-12.7c.44-2.06.14-5,3.57-5.31.35,9.63,4.06,18.54,6.81,27.57,1.14,3.75,7,5.87,5,11.36C954.85,708,953.77,704.16,951.47,706.59Z" fill="#766a5c"/><path d="M985.19,720l1.08-2.31c3.47,11.85,7.07,23.68,5.74,36.28-1.42,2.48-.53,4.91.21,7.36-.49,6.87,1.15,13.63,1,20.47,0,2.11.4,4.34-1.32,6.11l-1.26-1.28c0-1.32,0-2.63,0-3.95-3.28-4.14-3.73-8.94-4.07-14-.73-11-1-22-2.6-32.85C982.4,730.41,980.93,725,985.19,720Z" fill="#352d26"/><path d="M993.39,658c3.65.2,3.7-3.19,5.22-5.12.47,5,1.88,10,1.21,14.82-1.1,7.85-3.56,15.52-5.68,24.22-4-6.85-3.63-13.45-1.57-19.33C994.35,667.53,993.73,662.9,993.39,658Z" fill="#362e25"/><path d="M980.94,717.8c-1.81-5.41.2-10.92-.44-16.35-.24-1.21.23-1.7,1.47-1.38l2.85,13C983.63,714.72,984.4,717.94,980.94,717.8Z" fill="#352d26"/><path d="M972.73,675.73c-.57-5.53-.76-11.14-1.84-16.57a12.68,12.68,0,0,1,.66-8.16c2.61-2.64,4.28-1.9,5.23,1.41-.22,4.77-4.94,9.6,1.11,14.31,2.31,1.79-2.73,3.11-2.42,5.86.4,3.6-.12,7.29-.08,10.94.05,3.35-1.51,6.22-2.51,9.26-3.93-.56-2.51-4.15-3.68-6.28a7.74,7.74,0,0,1,.11-3.94C970.28,680.21,971.73,678.08,972.73,675.73Z" fill="#362e25"/><path d="M990.37,701.24c-.49,1.48-1.61,2.64-2.36.59-3-8.06-8.48-15.46-5.06-25.09,1.56-4.38-1.82-9.82,2.5-15.37,1.22,11.68,2.33,22.35,3.44,33C990.61,696.42,991.45,698.63,990.37,701.24Z" fill="#362e25"/><path d="M977.07,625.71c1-3.87,1.14-8.65,7.48-6.52,2.13,8.24-2.64,15.34-3.88,23-4.8,0-5.07-3.57-5.6-6.94C975.26,632,974.14,628.43,977.07,625.71Z" fill="#302921"/><path d="M979.05,751.05c-.85,6.23-2.15,12.45,1.11,20.2-5.33-4.19-5.22-8.25-5.34-12.23a3.54,3.54,0,0,1-1.24-2.71c-.46-5.06-.41-10.06,1.9-15.55C978.18,744.3,978.34,747.77,979.05,751.05Z" fill="#352d26"/><path d="M987.84,641.19c-2.2,5.93.77,13-4.32,18.31a11.45,11.45,0,0,1-1.68,1c-.42-8.55,3.37-16,4.09-23.84C987.7,637.73,987.29,639.66,987.84,641.19Z" fill="#362e25"/><path d="M975.46,725.23c2.93,3.9,3.19,8.36,2.82,13a.85.85,0,0,1-1.35-.07c0-5.38-1.08-8.65-2.95-10.43C974.4,726.83,974,725.45,975.46,725.23Z" fill="#352d26"/><path d="M963.48,627.85c-1.84.91-.77,2.67-1.18,4-3,1.37-5.08,1.38-4.13-2.86,1.79-8-1.59-15.5-2.78-23.21,4.89-.13,1.73-3.11,1.79-4.95,4.36,1.06,2.65,5.1,3.69,7.72s1.2,5.81,1.74,8.74A11.12,11.12,0,0,1,963.48,627.85Z" fill="#362e25"/><path d="M966.41,796.22c-1.15,2.24.23,6.88-5,5.2q-.18-9.7-.35-19.43c4.22.3,4.93,3.37,5.39,6.65Q966.42,792.42,966.41,796.22Z" fill="#352d26"/><path d="M992.9,716.56c-3.23-2.63-.66-6-1.24-9,2.18-.34,2-3.11,3.87-3.74,2.2,3.43-.38,6.83,0,10.25C992.61,712.86,993.32,715.27,992.9,716.56Z" fill="#352d26"/><path d="M935.85,655.34c-1.64.79-1.11,4-3.23,3.67-8.72-1.49-11.39,6.46-16.51,10.3-6.74,5.06-17.52,4.34-22.27-2.51-1.7-2.44-2.91-5.59-6.88-5,4.06-3,6.1-.24,7.49,2.89,2.29,5.17,6.56,6.41,11.58,6.29,4-.1,5.91-1.69,3.49-5.76-1.26-2.11-3.72-4-1.11-6.84,2.28-2.5,4.43-.26,6.66-.18,6.47.23,13.65,2.78,17.58-5.42a4.88,4.88,0,0,1,4.28-2.69C939,652.33,938.34,654,935.85,655.34Z" fill="#534a3f"/><path d="M906.85,596.58l13.2,6.55c1.72,3.06,3.94,6.13,0,9.18-1.77-1.9-3.43-3.86-4.09-6.44-.94-3.71-3.46-4.89-6.89-3.64a4.3,4.3,0,0,1-5.18-1.34c-1.53-1.63-3.22-1.41-5.34-1-8.53,1.74-9.08,1.11-7.63-7,.25-1.45-.14-3.07,1.36-4.09.06,2.33.23,4.64,3.63,3.37C901,590.24,904.12,592.85,906.85,596.58Z" fill="#483e34"/><path d="M943.68,661.85l-2.88,7.83c-4.48-.2-1.07-3.93-2.51-5.48-3-4.9.9-10.23-1-15.2-.81-3.92,3.14-1.28,4-2.86l3.71,1.4C948.08,652.64,946.31,657.28,943.68,661.85Z" fill="#544a3f"/><path d="M920,612.31c1.65-3.06.11-6.12,0-9.18,2.84,1.94,5.22,5.21,9.47,3.2,0,0,.71,1.32,1.08,2a4,4,0,0,1-2.35,2.48,8,8,0,0,0-4.24,4l-.12.12A4.33,4.33,0,0,1,920,612.31Z" fill="#544a3f"/><path d="M937.3,649c3.78,4.85.83,10.12,1,15.2-1.43.91-2.4.9-2.41-1.14,0-2.57,0-5.15,0-7.72l1.08-5.26A1.13,1.13,0,0,0,937.3,649Z" fill="#766a5c"/><path d="M930.59,523.53c3.18-3.42,3.93-6.83.22-10.47a4.58,4.58,0,0,1-1.36-4.09c4,1.28,6.83,3.39,6.48,8.11-.16,2.16,1.21,1.75,2.51,1.16.81,6.13-.59,12.13-1,18.19C928.56,535.53,931.82,528.37,930.59,523.53Z" fill="#726656"/><path d="M937.42,536.43c-2.24-6.21-.53-12.19,1-18.19.42-.82.83-1.64,1.24-2.46C939.56,522.73,941.69,529.92,937.42,536.43Z" fill="#605649"/><path d="M967.54,762.51c.19,3.49,2.35,6.81.88,10.44-1.06,1.94-2.59,3-4.94,2.65-.63-9.83-5-19.73.57-29.45a2.06,2.06,0,0,0,.21-1.27c-2.54-14.31,3.47-27.68,4.64-41.58.13-1.51,0-3,0-4.56a3.13,3.13,0,0,1,1.1,0c2.27,4.67,1.84,9.4.26,14.14-.72,3.24,1.32,6.13,1.22,9.3l-.29,2.25c-2.82,3.35-1.43,7.36-1.8,11.09-.26,2.5.73,5.1-.68,7.5C967.56,749.44,966.47,755.91,967.54,762.51Z" fill="#352d26"/><path d="M958.17,629c.42,2.31,1.87,3.15,4.13,2.86.94,5.66-2.16,11.06-1.08,16.76.42,2.21.23,4.83,3.76,2.8,2.88,3.41.82,6.85.06,10.28-1.11,2.16-.66,4.94-2.74,6.71l-1.53-1.58c0-.85-.11-1.71-.26-4-4.6,8.91-5.87,17.27-6.36,27.36-3.16-9-3.28-16,.39-23.6,3.4-7,4-15,3.33-22.8C957.45,638.83,956.86,633.89,958.17,629Z" fill="#362e25"/><path d="M963.14,691.54a9.41,9.41,0,0,0,1.4,5.49l-2.28,6.69c-1.84-8.51-2.16-15.91-4.46-22.94-1-3,.43-5.86,2.55-8.22A53.94,53.94,0,0,1,963.14,691.54Z" fill="#766a5c"/><path d="M952.37,723c.6-1-.38-3,1.25-3.24,3-.43,2.72,2.77,4,4.24l.52,5c.4,1.49.87,3-1.64,2.89l.13-.2-3.85-6.42C952.66,724.56,952.52,723.79,952.37,723Z" fill="#352d26"/><path d="M928,609.67l2.64-1.31c2.09-.14,2.32-1,1.9-3-1.39-6.64,2.23-9,8.36-8.79a33.41,33.41,0,0,0,.67,4.24,11.8,11.8,0,0,0,1.48,2.55l2.21-2.66c-.55,5.9-11.38,14.68-15.91,12.88C927.81,612.61,926.46,611.62,928,609.67Z" fill="#7a6e5e"/><path d="M943.45,615.71c.25,7.47.9,14-.38,21.07C940,631.06,940.11,623.09,943.45,615.71Z" fill="#544a3f"/><path d="M928,609.67l1.35,3.87-5.3,1.34C922.43,611,925.1,610.26,928,609.67Z" fill="#65594a"/><path d="M973.74,619.9a66.47,66.47,0,0,0-2.11,15.62c-.09,2.58.08,5.2-2.43,6.93-4.13-.8-4.13-.8-2.93-8l3.87-22.64C971.51,614.59,971.59,617.65,973.74,619.9Z" fill="#362e25"/><path d="M896.94,342.72a3.18,3.18,0,0,1-3.17,3c-1.65,0-3.68-.54-3.68-2.17s2.49-2.95,4.15-2.95S896.94,341.08,896.94,342.72Z" fill="#c9c5c1"/></g><g id="frame"><rect width="1000" height="1000" fill="none"/></g></svg>