<!-- Copyright (c) 2023 Jan Stehno -->
<svg xmlns="http://www.w3.org/2000/svg" viewBox="0 0 1000 1000">
    <title>rondaibex</title>
    <g id="rondaibex">
        <path
            d="M754.59,655.6c12.11,1.6,21.72,4.21,32.83-2.76.47-.3,3.31.23,3.82.29,7.81,1,14.83-3.86,15.57-9s-3.12-12,1.16-15c4-2.19,4.92-4.61,1.53-8.4-2-2.28-4.19-4.84-4.1-8.43.07-2.64-.42-5.09,2.43-6.93s2-4.61-.66-5c-3-.41-4.18-3-6.66-3.72-2,.36-2.44,2-3,3.55a27.82,27.82,0,0,0-.64,3.27c-1-.61-.83-2-1.66-2.67-4.65-3.31-6.12.45-7.94,3.42-1.94,6.52-3.27,13.82-.7,20.62,1.12,3,5.15,6.34,3.53,10.53-1.3,0-1.8-.17-1.83-.51-1.34-13.16-7.19-25.78-4.88-39.38a3.77,3.77,0,0,0-2-4.29c-2.6-.32-3.37-2.11-3.35-4.31.05-4.88-.83-9.93,2.46-14.29a4.27,4.27,0,0,0-.43-3.38c-4.12-1.54-5.38,1.53-7,4.12-.82,5.89,1,11.83-.45,17.74-1.14-6.13.41-12.31-.25-18.5-.31-2.84-.53-5.5-1.92-8-1.29-3.3-2.6-6.57-5.11-9.21-4.07-1-4.64,1.94-3.73,4.2,2.92,7.29.36,15.37,3.74,22.53.5,1.06,0,2.18-.35,3.28-2,6.62-1.67,7.62,4,11.53-5.26,8.4-5.24,17.35-3.14,26.54.08.37.14.93.43,1,8.54,2.45,3.84,8.44,3.69,13.21,0,.56-.09,1.12-.11,1.69,1.69,5.55,4.39,6.33,12.68,3.67-.26,1.07-.37,2.67-1.17,3-4.2,1.53-7.06,4.85-10.48,7.08-3,2-8.82,1-13.4.62a5.1,5.1,0,0,0-2.5.4A1.08,1.08,0,0,0,754.59,655.6Z"
            fill="#8e6341" />
        <path
            d="M729.38,530.86c-2.86,6.07.06,12.17-.09,18.25-.22,8.9-.34,17.81-.51,26.72,1,6.66,1.39,13.17-.12,20-2,9.07-1.67,18.42-.85,27.68a3.67,3.67,0,0,0,2.42,1c2.06-.05,3.77-1.89,6-1.09.52.18,1.48.2,1.63-.17,2.55-6.45,5.45-1.49,8.27-.31,3.09,1.3,5.6,1,6.68-2.69a5.11,5.11,0,0,0-1.87-4.49c-3.16-1.93-6.71-1.53-10.1-1.26-4.87.39-5.47-2-5.73-6.09-.31-4.67,1.9-5.67,5.72-5.37,4.51.35,9,.78,13.25-1.24,2.81.46,5.55,1.36,8.43,1.1,3.26-.29,5.45-2.2,5.78-5.2.36-3.35-3-3.4-5.17-3.79a22.49,22.49,0,0,0-8.46-.15c-3.79.86-7.57.36-11.39,0-4.41-.37-4.68-2.66-3.72-6.1.58-2.1,2.29-3.68,1.91-6.31s.18-4.67-2.8-6.47c-3.21-1.94-2.49-4.93,1.21-5.74,2.73-.6,3.45-1.94,3.34-4.27s-1.16-3.1-3.71-3c-3.27.18-2.55-2.44-2.55-4.87,1.89.06,2.3,1.93,3.56,2.4,1.68.63,3.21,1.11,4.49-.82,2.5-3.76,6.21-4.63,10.49-3.9a19.09,19.09,0,0,0,7.75.07c1.92-.61,3.81-1.54,3.35-3.85s-2.68-2.65-4.57-2.62c-6.19.1-12.09-1.77-18.18-2.26-3.18-.26-4.27-1.7-5.27-4.7-2.13-6.33-1.75-11.53,4-15.79,1.3-1,.8-2.37,0-3.54a13.24,13.24,0,0,1-2.13-4c-.54-1.87-.2-4.45-3.41-4.24a5.66,5.66,0,0,0-5.58,4.88C730.9,522.79,729.32,526.7,729.38,530.86Z"
            fill="#341c07" />
        <path
            d="M893.45,354.16l5.13-1.18c5.39.4,10.26-2,15.4-2.89,3.33-.6,3.74-2.19,2.47-5.35-.19-.47.31-.23.39-.23a14.83,14.83,0,0,0,5.58-1.09c1.44-.54,3.2-1,2.67-3-.46-1.75-2.21-2-3.76-1.82-3.37.32-6.73,1.24-10.11.06-14.46.3-28.12,4.58-41.89,8.22-5.94,1.56-11.49,4.07-15.93,8.44a6.76,6.76,0,0,1-2.61,1c-4.3.78-5.34,3.15-3.37,6.89a3,3,0,0,1,.16,2.68,4.93,4.93,0,0,0-.29,1.52c2.17,4.43,4.87,1.65,7.78.87-5.29,5.36-9.4,12-15.55,16.4-4.35,3.09-9.91.55-14.7-1.27-1.39-.52-2.5-1.69-3.91-2.29-2.84-1-5.66-1.68-7.68-4.46-3.6-5-6.82-4.27-9.79,1.69,1.06,5.42,4.54,7.49,10,8.26,6.34.89,11.8,5.08,18.36,5.7a1.11,1.11,0,0,1,.88.67c2.16,7.51,5.77,3.15,9,1a26.72,26.72,0,0,1,4-2.15,31.09,31.09,0,0,1,10.24-14.11c6.86-5.94,13.94-11.58,21.35-16.86C882.18,357.46,888.09,356.49,893.45,354.16Z"
            fill="#361f08" />
        <path
            d="M893.45,354.16c-5.05-.8-9.34,1.87-13.22,4A108.92,108.92,0,0,0,855.11,377c-2.5,3.1-5.26,6.05-6.12,10.1-1.55,7.25-5.94,13.41-8.33,20.35-.34,1-2.66-1.34-3.82.41-4,4.52-5.46,10.26-7.75,15.59a47.09,47.09,0,0,1-2.16,5.2c-4.18,10.45-8.08,21-11.9,31.6-1.24,3.44-2.78,7.08-1.25,10.9.15.38.81.54,0,.88-5.73,2.31-5.31,7.66-6.32,12.31,0,5.37-1.64,10.6-1.43,16a14,14,0,0,0,1.24,5.94c1.76,1.42,3.34,1.05,4.78-.5q3.78-16,7.55-32c1.4-6,2.71-11.81,5.55-17.56,6.16-12.44,10.75-25.63,16.53-38.27,3.16-6.89,7.34-13.35,11.24-19.9,5-8.47,8.22-18.17,15.06-25.36,5.55-5.85,10-13.51,19.22-15.15C889.58,357.11,892,356.38,893.45,354.16Z"
            fill="#b6926d" />
        <path
            d="M925,319.17c-5.57.42-11.26-.83-16.74,1.06-9.86,2.54-20.11,3.31-29.86,6.34-3.77,1.17-7.57,2.34-10.84,4.66-1.58,4.58.94,4.61,4.31,3.77s5.19-4.32,8.81-4.53c.53,0,1.06-.1,1.58-.17,6.47-.06,12.89-1.06,19.35-1,4.3,0,8.79-.57,12.7,2.06.46.32,1.2.73,1.57.51,4.31-2.57,6.32,1.1,9,3.09,3.89,1.88,7.37.16,10.79-1.36,5.75-2.55,11.54-2.28,17.42-.62,2.21,1.37,4.62,1.34,6.41-.3,4.19-3.86,9.5-5.45,14.59-7.52,1.58-1.47,3.94-2,5.17-3.89-.62-2.54-2.65-2.57-4.54-2.13-5.29,1.25-10.69.91-16,1.49-1.14.12-2.78-.37-3.34.39-3.25,4.43-6.05.76-9-.24-4.35-1.46-5.33-.81-5.14,3.84.11,2.86-1.92,2.19-3.82,2.71-.31.15-.14-1,.07-.29.06.22.21.13.53.06,3.28-.79,3-2.62,1-4.36s-4.15-3.14-6.76-2.5S927.55,318.59,925,319.17Z"
            fill="#b28d6b" />
        <path
            d="M729.38,530.86c.84-3.47,1.85-6.91,2.47-10.42s2.5-5.33,6.55-5.68c.31,3.51,0,7.41,5.94,9.86-6.06.15-7.69,2.4-7.29,6.21a3,3,0,0,1-.12,1.61c-.93,1.74-4-2.61-4.12,1.29,0,2,3.63,1.22,3.55,3.83,0,1.25,1.26,2.67,1,3.74-1.8,6.44,3,6,6.77,6.31,6.37.54,12.54,2.69,19,2.15a3,3,0,0,1,2.43,1.07c.73,1.91-1.7,2.16-2.31,3.44a2.33,2.33,0,0,0,2.19.87,4.42,4.42,0,0,0,1.54-.54c4.5-4.57,4.35-5.17-1.64-7.24a18.61,18.61,0,0,0-5.45-1.3c-.19-1.43.89-1.69,1.53-2.22,1.4-1.14,2.62-2.43,1.89-4.3s-2.68-1.85-4.39-1.93c-1.53-.07-3-.21-4.57-.17-3.78-.59-4.06-4.05-3.36-6,2.18-6.21.47-12.69,2.06-18.95.66-2.64,4.18-4.38,2.48-7.64-3.11-.8-6.1-.84-8.82,1.16.93,3.55-1,5.8-3.9,8.18-1.25-2.86,1.3-5.09.56-7.46-3.12-3.79-5.39-2.07-7.44,1.1C731.61,514.9,728.75,522.4,729.38,530.86Z"
            fill="#603c1f" />
        <path
            d="M797.9,379.76a59.13,59.13,0,0,1-19.26,31.07,8.45,8.45,0,0,0-3,4.65,1.48,1.48,0,0,0,1.4.58c5.09-1.78,7.83-6.3,11.2-9.05-4.76,6-4.62,9.07,1,11.21,6.55,2.94,12.11.36,17.79-3.56-1,2.58-4.14,4.64-1,6.77,2.56,1.74,4.72-.17,6.41-2.1a48.72,48.72,0,0,0,7.23-10.16c.67-1.35,1.87-2.74.4-4.07s-3.2-.66-4.61.57a6.81,6.81,0,0,1-2.31,1.65c-1.39.42-3.25.47-2.72-1.47,1.65-6-2.36-4.45-5.72-3.86a18.56,18.56,0,0,1,8-9.7c1.61-1,3.2-2.59,2.67-4.65-.66-2.56-3.2-1.26-4.89-1.76-4.73-1.41-7.28,3.92-11.76,3.48-.27-3.12,2-6.12.65-9.33A1.11,1.11,0,0,0,797.9,379.76Z"
            fill="#8b6747" />
        <path
            d="M800.84,597.23c1.49,1.83,1.29,6,5.73,3.78.67-.34,1.65.78,1.84,1.8s-.48,1.2-1.14,1.67c-4,2.75-5.16,10.88-1.37,13.94,1.88,1.52,1.51,4,4.24,5.33,2.42,1.16-1.74,3.34-2.17,5.4,5.17,0,6.4-3.66,4.94-7-2.31-5.33-1.72-10.16,0-15.24a10.66,10.66,0,0,0,1.83-9.47,69.72,69.72,0,0,1-2.44-19.71c.16-3.86-1-7.74.26-11.58-.5-4.73-3.48-5.92-7.77-5.25-7-.13-6.53.3-6.08,6.56.5,7,3,13,5.49,19.28,1,2.55,0,4.35-2.24,5.73C800,593.66,798.32,595,800.84,597.23Z"
            fill="#b18760" />
        <path
            d="M973.62,324c-5.49,1.86-11,3.54-15.23,7.92-1.44,1.51-3.57.7-5.43.5a17.16,17.16,0,0,0-10.58.63c-6.49,2.63-13.29,2.48-20,3.07-3.67,1-7.75-.33-11.21,1.88a1.44,1.44,0,0,0,0,1.65c4.17,3.15,8.77-.83,14.11.78-4.37,2.19-8,3.57-12.23,3.63.86,2.87,3.33.38,4.58,2.58-5.33,4.89-13,3.5-19,6.33,8.6,1.13,16.25-.89,22.78-6.61,4.19-1.39,8.54-1.42,12.89-1.59,3.77-.14,5.14,1,7-3.11.43-1-.18-1.32.36-1.57,5.92-2.72,12.09,1.21,18-.67a4.57,4.57,0,0,0,3.31-2.09c.56-3,2.59-3.79,5.39-3.41a2.32,2.32,0,0,0,1.31-.77c.85-2.41,2.28-3.23,4.6-1.61,1.38.28,2.52-.41,3.71-.91h0c.91-.88,2.93-1.75,2.81-3.32A23,23,0,0,1,973.62,324Z"
            fill="#825f3e" />
        <path
            d="M797.9,379.76l.53.12.53.09a3.31,3.31,0,0,0,2.33-.71c9.94-7.11,18.23-15.92,26.56-24.7,3.59-3.78,8.4-5.92,12.78-8.63,4.89-4.22,11.47-6,16.12-10.59,1-1,1.33,1.72,2.9.81,2.58-1.49,6-1.31,8-4a111,111,0,0,1,32.54-9c2.91-.38,6.09,0,8.06-2.92-7.42-.44-14.57,1.43-21.65,2.95-11.51,2.45-22.61,6.38-33.57,10.63A21,21,0,0,0,845,339a7.51,7.51,0,0,1-2.62,2.14c-14.89,5.31-23.65,17.53-33.61,28.44-1.88,2.07-4.48,3.53-6.86,5.11C799.93,375.94,797.91,377.07,797.9,379.76Z"
            fill="#7b593b" />
        <path
            d="M925,319.17c3.23,3.29,8.24,1,11.73,3.61,1.11.83,3.56.9,2.37,2.89-.91,1.52-2.29.31-3.22-.77-.66-.77-1.63-1.37-2.3-.24s.07,2.13,1.37,2.47a16.25,16.25,0,0,0,8.91.16c.27-2.52-4.23-4.51-1.85-5.79,2.72-1.46,6,1.22,8.53,3.07.71.52.13,2.33,1.66,2.6a2.67,2.67,0,0,0,1.64-.19c1-.54.5-1-.15-1.61-2.62-2.5.27-2.9,1.6-3.07,7.3-.93,14.74-.46,22-2.09.43-.09,1.1.87,1.66,1.34,3.58.69,6.18.15,5.68-4.33C964.78,317.79,945,320.09,925,319.17Z"
            fill="#9c7857" />
        <path
            d="M804.21,561.91c3.58-.11,6.61.84,8.35,4.22.16-1.29.83-2.79.39-3.84-4.71-11.33-2.14-22.77-1.48-34.35.41-7.32,2.64-14.78.55-22.2a7.13,7.13,0,0,1-4.78,0c-2.84-.19-2.64,1.93-2.92,3.69a6.24,6.24,0,0,0,1.12,3.27c3.43,1.84,3.84,4.59,2.94,8.1-1.35,5.24-2.85,10.47-1.78,16,.37,1.92.06,4.06-2.31,5.26-2.61,1.34-2.28,3.58-.4,5,3.08,2.33,2.71,4.53.71,7.16-1.2,1.58-1.26,3.49-1.31,5.38A3.3,3.3,0,0,0,804.21,561.91Z"
            fill="#b38c64" />
        <path
            d="M765.63,438.81c-6.86,10.06-10.56,21.46-14.57,32.73l.68.44c1.8-.31,2.5-1.93,3.69-3a11.75,11.75,0,0,0,2.68-5.83c0-4.19,3.43-4.45,6.35-5.28,7.9-7,11-17,16.49-25.55.93-1.46,1.39-3.39-.51-4.5-1.66-1-2.84.42-3.88,1.53-1.81,1.93-2.65,4.63-5,6.07-1.07,1.39-2.56,1.34-4.1,1.12C766.43,437,766.65,438.39,765.63,438.81Z"
            fill="#724d2b" />
        <path
            d="M984.66,317.22c-.42,3.31-3.44,3.32-5.68,4.33a5.67,5.67,0,0,0-5.36,2.46c.25,4.66,3.5,4.15,6.69,3.74,3.88.7,5.48-3.24,8.61-4.07,4.29-3.1,9.94-4.91,10.92-11.15.15-.92.42-1.81-.46-2.53-4.14,1.73-9.15,3.67-13.36,6.26Z"
            fill="#9c7857" />
        <path
            d="M746.84,506.67l8.64-1.57a15.35,15.35,0,0,0,10.75,3c2.88-.26,5.79-1.63,5.91-4.36.15-3.12-3.27-2.86-5.63-3.22-6.78-.65-13.63-.14-20.38-1.18a6.71,6.71,0,0,1-4.75-3.18,1.12,1.12,0,0,0-1.34-.19c-1.24,4-5,7.16-4.11,11.86,2.34-.92,4.48-3.51,7.23-.81A3.5,3.5,0,0,0,746.84,506.67Z"
            fill="#341c07" />
        <path
            d="M959.75,338.4c-7.44.69-15.23-2.72-22.33,2,.42,1.39,2.7-.34,3,1.85-4.31,1.91-9.16,1-13.63,2.1-1.88.48-4.39-.55-5.46,2.05,8.33-.79,16.79.47,25-2.9,3.39-1.4,7.71-1,11.49-2.09C958.67,340.51,960,339.94,959.75,338.4Z"
            fill="#ab8b6f" />
        <path
            d="M728.69,623.35c-.42-5.35.2-10.87-.28-16-.92-9.84,4.51-19,2.05-28.75-.29-1.14-.51-2.19-1.68-2.77.8,9.89-1.54,19.58-1.88,29.39-.32,9.32-.15,18.65-.19,28,.61,1.44.26,4,3.25,2.66C730,631.65,731.86,627.25,728.69,623.35Z"
            fill="#5d3a1d" />
        <path
            d="M812.3,577.71c-1.5,6.41-1.77,12.61,1.51,18.78,1.77,3.33-.63,6.91-.9,10.4,4.15.72-.26,5.17,3.72,6.36C816,601.26,814.93,589.41,812.3,577.71Z"
            fill="#b18760" />
        <path
            d="M959.75,338.4l-1.92,3c8.19-.91,13.74-6.58,20.14-10.74l-3.62.66c-2.39-.76-4,.28-5.13,2.22l0,0c-2.48.55-4.88,1.24-6.58,3.29Z"
            fill="#ab8b6f" />
        <path
            d="M740,495.93a.53.53,0,0,0,.51.32c3.05,1.74,4.85,0,5.77-2.45,2.31-6.09,2.79-12.77,6.23-18.54.67-1.13,0-2.56-1.16-3.48l-.33-.24c-3.89,3.35-4.39,8.11-5.17,12.62A21.32,21.32,0,0,1,740,495.93Z"
            fill="#724d2b" />
        <path
            d="M732.79,647.27c-4.24-16.66-5-13.11-6.08-14.07.28,6.73,3,23.62,7.72,24.69.38-.48,5.49,0,5.26-.61C735.45,653.44,737.76,650.66,732.79,647.27Z"
            fill="#7c5c40" />
        <path
            d="M739.36,657.77c0,.35.08.71.11,1.06,6.9,1.61,13.55,5.78,21,2a5,5,0,0,1,.16-1.14,2.73,2.73,0,0,0-2.54-1.38c-4.56.95-8.76-.2-13-1.58A5.43,5.43,0,0,0,739.36,657.77Z"
            fill="#5d3a1d" />
        <path
            d="M988.92,323.68c-4.07-1.08-5.19,3.84-8.61,4.07-.78,1-1.57,1.93-2.36,2.89C982.09,329.06,985.07,325.72,988.92,323.68Z"
            fill="#9c7857" />
        <path
            d="M776.65,415.7c-.33-.06-.66-.13-1-.22-3.61,3-3.72,7.56-5.15,11.52l.57.52a3.44,3.44,0,0,0,2.65-1.45,6.32,6.32,0,0,0,.82-1.3C774.74,421.63,778.73,419.34,776.65,415.7Z"
            fill="#825f3e" />
        <path
            d="M765.63,438.81a2.68,2.68,0,0,0,1.86-1.91c2.41-2.71,3.84-5.77,3.43-9.46l-.4-.44C765.85,429.73,766.94,434.75,765.63,438.81Z"
            fill="#825f3e" />
        <path
            d="M804.21,561.91l.24-2.09a2.38,2.38,0,0,0-1.17-1,12,12,0,0,0-7.84,1c-2.84,1.46-3.9-.59-4.6-2.6-.83-2.34,1.13-2.85,2.82-3.34,3.54-1,7.9.16,10.38-3.71-1.73-5.6-4.11-11.2,0-16.8-2.27-4.23-2-8.81-2.19-13.38-.06-1.48-2.27-1.71-3.58-2.43a23.41,23.41,0,0,1-9-8.64,3.19,3.19,0,0,0-1.22-1.05,2.73,2.73,0,0,0-2.35.15c-1.8,1.94-.5,4.63-1.87,7.21-.55-3.32,1.1-5.58,2-8-7.95-4.84-18.64-.82-19.75,7.81-.66,5.13-1.43,10.41-.28,15.64-.31,5.38,2.14,10.73.18,16.16-.39,1.1.33,1.77,1.4,2,4.91.93,9.82,1.77,13.93-2.22,1.62-3.63,2.67-7.41,2-11.39a61.09,61.09,0,0,1-.83-10.65c.59,7.11,1.82,14.68.77,22.33.83,1.9,2.84,2.29,4.19,3.16-7.32,1.07-15.37-.62-21.87,4.81h0c-.45.14-.64.35-.57.62s.17.42.3.45c.34,3.39,3.09,5.78,3.87,9,3.2-.09,2.51,2.49,3.14,4.25s-1.26,4.25,1.9,5c1.2-2.31,2.67-4.3,5.61-4.53,2-3.1-.29-6.62,1.18-9.17,1.21,3.37,2.76,7.69,2.81,11.58.07,5.77,3.9,11.66,0,17.45a5.61,5.61,0,0,0-.24,5.45c1.63,3.38,1.78,7.47,4.88,10.17,1.63-2.21,2.16-6.62,6.62-3.21,1.6-1,.84-2.56,1.06-4.12,1.35,1,.06,3.77,2.61,3.75.54-1.49.24-3.39,2.14-4.19-.28-1.45-.88-2.61,1.53-3.35,4.24-1.3,5.4-4.93,3.11-8.26-4.48-6.55-4.31-14.28-6.37-21.39C798,560.3,802.55,563,804.21,561.91Z"
            fill="#9c704b" />
        <path
            d="M765.24,555.85l.27-1.07-2.26-.51-8-.67c-4.7-1.39-6.54,1.48-7.64,5.13a18.59,18.59,0,0,0-.43,6.14c.19,4.06-.51,7.21-5.8,6.7a2.12,2.12,0,0,0-2.37,1.19,2.52,2.52,0,0,0,1.17,2.92c.9.68,1.73,1.7,2.81,1.89,6.53,1.15,6.57,5.51,5.9,10.59-.49,3.69-.38,7.47,5.21,7.09,3-1.32,6,.51,9,0,1.67-.3,4.3-.31,4.36,2.29s-2,4.19-4.53,4a94.23,94.23,0,0,1-9.9-1.87c-5.67,4.89-3.89,10.91-2.63,16.84l1.68,3.74c3.92.11,4.12-.21,3.7-5.83,1.26,5.11,5.57,9.64,2.78,15.55-.49,1,.51,2.84,1.37,2.76,5.66-.56,7.65,4.39,11.27,6.84.66-2.47.34-5,1.51-7.56,1.47-3.21,1.64-6-3.68-7.26-3.3-.8-2.82-6.14-3.2-9.41-.51-4.36-.22-10.56,1.87-12.85,4.88-5.33,3.17-7-1.83-9.86-1.49-.86-1.62-4.16.25-6.16.76-.82,2-1.57,1.34-2.81-4.12-7.34-.57-16.07-4.49-23.47C761.88,558.09,761.93,556,765.24,555.85Z"
            fill="#744e2c" />
        <path
            d="M732.76,653.56a15.22,15.22,0,0,1,8.37,4.54c2.94,2.89,10.43-5.62,13.73-3.53l2.06.1c3.47-1.7,7.49-1.12,11-2.59,1.58-.66,3.28-1,4.67-2.09,3-2.41,2.87-4.11-.63-5.68a15.84,15.84,0,0,0-8.41-1c-6.72.73-8.47-.72-9.7-7.26a35,35,0,0,1-.34-7.85c.11-2.82-1.41-5.34-4.35-4.58-6.14,1.58-12.15-.35-18.2.18l-2.31-.46c1,4.24-1.21,8.65.68,12.85C731.3,641,728,650,732.76,653.56Z"
            fill="#381c07" />
        <path
            d="M731,623.81c5.28,1,10.35,3.85,16,1.19,3.38-1.59,6.27.36,5.19,3.68-1.45,4.5.14,8.62,1.36,12.49,1.41,4.48,6.16,4.56,10.14,3.8,1.73-.33,3.32-.76,5-.23s4.76,0,4.83,2c.09,2.45-2.77,3.24-5,3.6-3.34.53-6.35,2.5-10,1.6-2.21-.54-1.5,1.5-1.49,2.69,4.81,1.81,9.83-.93,14.65.64,2-5.19,7.32-6.25,11.33-9,1-.66,1.58-3.65,1-4.33-1.32-1.43-3.2.36-4.57.52-2.63.3-7.71,3.49-8.1-3-1.1-2-2.18-3.93-3.33-5.86-.68-1.14-1.46-2.19-3-2.32s-3.63,2.53-5.05-.14c-1.52-2.84,1.42-2.61,2.74-3.64.89-.7-.44-1.55-.9-2.3-2.47-4-3.2-8.53-4.35-12.92-.22-.85.27-2.1-1-2.21-1.54-.14-1.76,1-1.62,2.3a17.9,17.9,0,0,1,.28,3.92c-.18,1.74.13,4.07-2.88,3.85-2.08,3.61-4.7,2.88-6.9.42-1.74-2-3.52-2.08-6-2.23-5.47-.31-.88,2.3-1.36,3.9C735.36,621.57,732.49,620.43,731,623.81Z"
            fill="#5d3a1d" />
        <path
            d="M788.41,605c-.66-3.24-1.24-6.44-3.4-9.23-1.87-2.43-.78-5,.69-7.33.59-.91,2.48-1.88,1.85-2.56-4.3-4.71.33-10.54-2.67-16.09a37,37,0,0,1-4.11-14.64c-1.26,4.8-2.51,9.5-1,14.37l-.57,3.27a99.68,99.68,0,0,0-.55,12.81c0,2.24,0,4.58,2.17,6.11,1,.72,1.86,1.68,1.54,2.83-2.6,9.44.21,18.42,2.31,27.45a53.88,53.88,0,0,1,1.63,11.58c0,1.74-.77,4.87,2.66,4.41,2.88-.38,3.81-2.91,3.65-5.57a3.41,3.41,0,0,0-1.17-2.47c-5.25-3.35-2.16-4.47,2-5.18C785,619.36,786.83,612.15,788.41,605Z"
            fill="#b18760" />
        <path
            d="M774.15,574.05c-1.25-2.46-.76-5-.82-7.64-.07-3-1.27-5.07-4.22-1.57,3.72,8,1.43,16.3,1.5,24.49,0,1.86-1.74,4.72,1.66,4.88s2.65-2.92,2.58-5C774.67,584.13,774.39,579.09,774.15,574.05Z"
            fill="#b38965" />
        <path
            d="M780.81,591.71c-1.87-6.19.79-12.77-1.62-18.92-5.17,5.93-2.46,12.67-1.7,19.05C777.83,594.66,779.65,591.63,780.81,591.71Z"
            fill="#9c704b" />
        <path
            d="M774.22,613.22c2.37-4.38.26-8.31.71-12.11a1.11,1.11,0,0,0-1.57-1.1c-1.45.49-3,1-2.94,3C770.45,606.65,772.3,609.62,774.22,613.22Z"
            fill="#bd926a" />
        <path
            d="M798.7,601.42c-1.11-1.13-.3-2.53-.56-3.75s.09-3.56-2.21-3.13-2.19,2.17-1.48,4a17,17,0,0,1,.58,3.22c-.14,1.77.18,3.31,2,4.21C798.54,604.74,798.13,602.91,798.7,601.42Z"
            fill="#b18760" />
        <path
            d="M754.07,595.25c-4.28-.54-4.83-3.93-3.87-6.66.9-2.55.11-4.58.14-6.85.07-4-1.73-4.72-5.12-4.8a6.19,6.19,0,0,1-5.4-3.45c.33-1.23,1.22-.77,1.84-.67,4.71.79,7.81,0,7-5.83-.34-2.34.27-4.81.26-7.22,0-4.22,2.26-6,6.33-6.17-1.25-2-2.88-1.55-4.39-.47-2.46,1.75-5,2.67-7.66,1.51-2.55,2.06,2.77,2.8.28,4.05-2,1-3.64-.39-4-2.65-.2-1.13-.25-2.43-1.82-2.34-1.8.11-1.63,1.8-2.08,3-1.1,2.81-.17,5.14,1.7,7.27,2.1,2.4,2.5-1.41,4-1.09.75,4.46.75,4.56-3,4.51-1.51,0-2.94,0-3,1.72-.08,2.51-.87,5.39,1.91,7.14a13.43,13.43,0,0,0,3,1.18c2.28,2.22-6.37,1.55-.42,4.32,2.05,1,.13,1.81-.41,2.43-1.87,2.14-.64,5.35-3.09,7.49-1.19,1,.65,2.14,2,2.47C743.51,595.33,748.71,596.37,754.07,595.25Z"
            fill="#603d20" />
        <path
            d="M750.39,616.44a14,14,0,0,0,.45-7.79c-.83-3.45.59-6.24,2.18-9-4.43,5-10.22.52-15.17,2-.66.2-1.67-1.13-2.57-.24-3.77,3.66-.73,8.25-1.45,12.37C733.45,616,737,615.91,739,616,742.8,616,746.63,615.23,750.39,616.44Z"
            fill="#5d3a1d" />
        <path
            d="M867.69,332.17a66.57,66.57,0,0,0-27.64,12.57c.12.27.24.54.35.82a13.75,13.75,0,0,1,2.72,4.28c2.29,7,2.33,7,10.71,7.16,5.26-5.3,11.84-7.72,19.11-9.27,7.77-1.65,15.17-4.67,23.07-6.14,5-.94,10.35.67,15.1-1.93.06-.46.12-.92.17-1.38,2.17-2.39,5.08-1.94,7.86-2,2.08-.44,4.25-.65,6-2.1-.24-2.6-4.14-2.85-3.9-5.82,0-.2-1.3-.72-1.32-.69-4,6.56-8.39-.22-12.61,0-8.64.49-17.31.67-25.92,1.73,2.18,2.67,1.68,5.66,1,8.63-.3,1.3-1,2.74-2.68,2.28-1.47-.41-1-1.83-.72-2.91.62-2.71,1.55-5.34,2.4-8-3.55-1.4-5,2.07-7.43,3.05C872,333.25,869.45,337.19,867.69,332.17Z"
            fill="#8c6847" />
        <path
            d="M800.26,379l-1.3,1-2.75,12.19c5.82-.1,9.1-6.06,15-5.31,1.08.14,2.52-.62,3.12.6.73,1.47-.68,2.6-1.65,3.22-3.57,2.31-6.83,4.67-8.68,8.76-.49,1.08-2.56,1.62-1.58,3.42,1.23,2.28,2.85,1,4.38.31.82-.39,1.67-.71,2.36-1,1,.93.59,1.5.28,2.21-.57,1.32-3.45,2.66-.95,4,1.83,1,4.55,2.65,6.68-.2a21.55,21.55,0,0,1,2.18-2.58,1.4,1.4,0,0,1,2,.08,1.52,1.52,0,0,1,.13,1.47c-3,4.25-6,8.51-9.23,12.62-.91,1.16-2.74,2.09-4,.76-1.48-1.52,0-2.66,1.28-3.63s3.62-1.92,2.11-3.84-2.93-.11-4.24,1c-4.65,4-10.07,4.6-15.89,3.28a9.15,9.15,0,0,0,7.65,5.25c7.43.71,14.59,2.78,22,3.63a4.7,4.7,0,0,0,2.22-.38c.39-7.55,3.17-13.83,10.22-18.33-2.81,6-7.34,10.57-9.61,16.39.37,2.43,5.54,1.25,4,5.13a1.72,1.72,0,0,0,2.15.11q4.8-10.55,9.58-21.08c4.64-4.46,6.78-10.21,8.66-16.1l-.38-.81c-5-1.11-6.57,4.85-11.44,5.14,2.6-4.54-.31-5.5-3.92-6.06-4.48-.69-9.18-.79-12.49-4.65A2.64,2.64,0,0,0,816,385c-5.83,1.21-9.39-1.49-11.78-6.35A3.18,3.18,0,0,0,800.26,379Z"
            fill="#6f4b2c" />
        <path
            d="M800.26,379l3.92-.29c4.16-5.56,5.45-5.67,8.32-.16,1.9,3.64,5.54,2.78,8.44,3.85,9.22,6.21,9,3.48,15.55-4.56,3.47-4.27,8.56-6.94,11.65-11.57l0,0c.94-.64,1.23-1.5.42-2.32-1.36-1.38-2.92-.76-4.15.13-3.05,2.24-6.21,4.34-9.05,6.86-.94.82-1.54,2.17-3.81,2.11,3.61-3.36,7.71-5.31,10.86-8.4,2.58-2.53,5.51-4.75.39-7.73-2.05-1.19-1.27-3.76-1.79-5.69s.25-4.15-.87-6.05l-.13-.44c-12,5.65-20,15.57-28.48,25.08C808.39,373.39,803.43,375.18,800.26,379Z"
            fill="#7b593b" />
        <path
            d="M848.14,366.24c-5.86,3.51-11.19,7.62-14.72,13.52-2.37,3.94-4.31,8.27-9.32,2.43-.68-.8-2.14-.64-3.16.19,4.47,4.65,10.46,4.55,16.27,5,4.77.34,6.16-4,8.58-6.54s4.28-6,8-7.77c2.64-1.27,1.87-4.44,3.1-6.54C853.68,364.86,850.85,372.7,848.14,366.24Z"
            fill="#5b3a1d" />
        <path
            d="M840.18,345.18c-2,3.86.35,7.75-.07,11.63a1.73,1.73,0,0,0,.77,1.42c9.12,2.39.88,4.37-.35,5.93-2.35,3-5.73,4.85-9.16,6.56-1.75.88-2.7,2.11-1.31,4,1.72,2.4,3.3.65,4.1-.53,2.64-3.92,7.24-5.49,10.42-8.75,1-1.07,3.27-3.22,3.6.78,1.87-.41,2.92-1.14,1.22-3-4.26-4.57-1.94-5.68,3-5.53.48,0,1-.5,1.45-.77-4.94-.67-9.88-1.14-9.15-8.18C845,346.18,842.92,344.92,840.18,345.18Z"
            fill="#4c331b" />
        <path
            d="M850.35,387.54c.51-4,3.63-6.83,4.76-10.54-4.28,2.07-5.92,6.64-9.37,9.54-1.47,1.24,1.38,3,.2,4.65l.31.29C849.82,392.37,849,388.84,850.35,387.54Z"
            fill="#724f35" />
        <path
            d="M828.08,429.18l-2.22-.47c-1.41-2.29-3.9-2.46-6.09-2.38a61.21,61.21,0,0,1-16.85-2.1,2.57,2.57,0,0,0-1.34.92c-.18,1.36.94,1.89,1.8,2.53,1.87,1.4,1.55,2.71-.06,4-3.55,5-7.71,9.65-8.67,13.39,1-4.05,5.25-8.92,9.23-14-.5-4-1.91-4.65-5-2.15-3.84,3.15-6.57,7.26-9.24,11.34-1,1.57-1.63,3.1-3.75,1.43-1.85,0-2.81,1.26-3.39,2.62-2.06,4.82-4,9.57-7.92,13.47-2.18,2.19-.27,3.66,2.26,4.08,10.43,1.75,20.64,5,31.43,4.26.87-.07,2,0,2.34,1.26-2,1.6-3.9.07-5.84-.14-3.2-.36-6.64-2.15-9.42,1.12,2.23,2.73,5.63,3,8.69,3.9,1.7.51,3.27,1.34,2.2,3.07-5.13,8.39-3.29,18.49-7.12,27.17-.61,1.37-.71,3-2,4-1.69,1.43-3.56.49-5.38.43-1.52-.05-3.47-.88-4,1.57l1.14.3c4,3.41,9.31,4.09,13.92,6.24,1.47.69,3.61.07,3-2.6.12-.89.32-1.79-.55-2.46-1.79-3.33,0-6.51.33-9.77.52-5.1,2.79-9.87,2.86-15,.61-2.53,1.24-5,1.81-7.58.89-4,3.82-5.1,8-5.33-4.1-.67-4.25-2.68-3.47-5.74,2.92-11.42,8.3-22,11.84-33.16C827.1,432,827.6,430.58,828.08,429.18Z"
            fill="#88623e" />
        <path
            d="M850.35,387.54c-1.75.92-1.7,3.67-4.11,3.94-3.83,5.06-5.85,11-8.58,16.62,3.21,1.45,4.41.34,5.55-3C845.28,399.18,849.17,393.89,850.35,387.54Z"
            fill="#9c7751" />
        <path
            d="M808.42,485.21c-1.78,6.78-4.17,13.39-5.42,20.34-.47,2.56.69,3.36,2.23,4.47.41-1.54.12-3.39,2-4.25Q807.83,495.48,808.42,485.21Z"
            fill="#9c7550" />
        <path
            d="M925.11,334.2c-2.26-.84-4.07.52-6,1.15-.21,2.65,1.63,1.95,3.11,1.83,7.53.39,15-.24,21.95-3.11,2.91-1.2,6.19.38,8.82-1.64,1.4-2.72,0-2.41-2.17-2.32-6.93.28-13.84.29-20.15,3.84A6.32,6.32,0,0,1,925.11,334.2Z"
            fill="#b28d6b" />
        <path
            d="M787.75,508.54c2.67-1.52,5.12.2,7.63.59,1.86.29,2.47-.16,2.14-1.93.05-3.69-3.22-3-5.3-3.71a14.12,14.12,0,0,0-6.8-.84c4.23-2.7,5-7.34,6.29-11.51,1.52-5.06,2.43-10.27,5.23-14.91,1-1.6,1.88-3.69,0-5.13-1.65-1.23-3.71-.7-5.48.22-2,1.05-4.16,3.45-2.79,4.84,3.12,3.16.16,5.46-.07,8.14.52.51-1.22.21-.45.1.4-.06.22-.15,0-.57-1.69-2.73-3.71-1.62-4.09.38-1.16,6.16-7.46,9-9,15.05.93-11.3,7.92-20.39,9.22-31.19-2.07-3.05-5.12-4.62-8.6-5.57-3.67,1.66-7.3,1.17-10.94-.15-2.37-.87-4.74-1.49-6.54,1.09-1.16,3-.22,5.12,2.77,6.4,2.62,1.13,3.44,3.05,2.06,5.49a19.52,19.52,0,0,0-2.2,9.83c0,4-2.56,7-4.43,10.27-1.39,2.42-2.27,4.94,2.24,4.65,2.56-.17,4.51,2.3,7.17,1.41l5.73,1.24c-2.57,5-6.59,4.44-10.69,3.29-1.75-.49-3.24-2.15-5.29-.93-4.36,5.5-5.31,11.56-4.52,18.47.5,4.47-3,8.8-.66,13.92,1.37,3,1.86,2.51,3.55.85,2.27-1.65,1.6-4.06,1.43-6.19a17.54,17.54,0,0,1,1.32-7.26c1.79,5.18,6.2,5.61,10.67,5.93a48.21,48.21,0,0,1,.56-17.48c.77-3.36,2.09-6.47,6.89-5.53,3.51.69,7.23-2.83,10.73.32h0Z"
            fill="#815936" />
        <path
            d="M767.27,530.81a3.51,3.51,0,0,0-.9-.67c-4.71-1.59-9.9-2.66-9.34-9.86-3.95,6.13-2.89,12.19-3.18,18.05a5.9,5.9,0,0,1,1.68.37c2.19,1.25,5.78-1.33,6.78,1.34,1.15,3-3,2.59-4.43,4.09a3,3,0,0,0-.9,3.1c.51,1.36,1.61,1.16,2.83.72,3.44-1.26,5.88,2.09,9.3,1.64-.43,2.58-2.7,3.42-3.6,5.19,8-3.89,17.29-1.7,26.51-4.88l-8.24-2.75c-1.06-.42-2-1.29-3.31-.82-4.29,1.85-8.77,2-13.63,1.84C770.45,542.17,766.45,536.48,767.27,530.81Z"
            fill="#744e2c" />
        <path
            d="M746.84,506.67c-1.25-.14-2.53-.72-3.68.31-2.14,2.64-2.68,5.73-2.74,9.18,5.55.11,6.54-4.56,8.58-7.78C749.92,506.92,747.69,507.16,746.84,506.67Z"
            fill="#815936" />
        <path
            d="M801.63,425.69c3.2-1.72,5.16,1.54,7.92,2,5.44.84,11-1.41,16.31,1.06l2.8-2.68c-1.88-2.15-4.55-.72-6.57-1.68h0c-.32.19-.7.61-.95.54-10.51-2.67-22-1.46-31.64-7.52-3.69-1.7-3.77-7,.49-10,2.81-2,1.08-2.78.06-4.32-3.62,5.29-9,8.41-13.35,12.64-.26,3.51-3.49,6.07-3.25,9.74,2.32,2,4.57.44,6.25-.69,5.54-3.76,10.83-2.17,16.17.14C797.73,425.71,799.44,427.17,801.63,425.69Z"
            fill="#492e14" />
        <path
            d="M922.19,337.18c-1.17-.39-2.67-.25-3.11-1.83-5.13-.9-6.6-.35-7.8,2.93C914.92,337.92,918.7,338.87,922.19,337.18Z"
            fill="#b28d6b" />
        <path d="M962.6,336.83a11.37,11.37,0,0,0,6.58-3.3C963.62,331.46,962.45,332,962.6,336.83Z"
            fill="#9c7857" />
        <path
            d="M969.22,333.52l5.13-2.22c-.42-1.79-1-3.35-3.4-2.3C968.73,329.94,968.34,331.48,969.22,333.52Z"
            fill="#9c7857" />
        <path
            d="M805.78,512.48c-.85,2.19-2.79,2.32-4,1-3.56-3.79-8.55-3.29-12.89-4.68-.74,1-2.07,3.17-1,3.17,5.2,0,5,7,10.06,7,2.87,0,3.57,1.29,2.74,4.43-.7,2.59-2.4,6.37,1.9,8.34.7.32.75,1.24.11,1.92-5.4,5.7-1.53,11.09.58,16.55-.5,3.1-5.49,6.29.19,9.27l1,.32c-.88-3.81,3.71-5.69,3.42-9.36-.13-1.65,1.47-4-2.19-3.62a1.93,1.93,0,0,1-2.12-2.14c.24-3.47,1.64.55,2.52-.33a8,8,0,0,0,2.12-7.23c-1.58-6.6,1-12.51,2.17-18.64C811.1,514.66,810.47,512.18,805.78,512.48Z"
            fill="#b38c64" />
        <path
            d="M801.63,425.69c-4.37.42-6.75-3.7-11.23-4.34-5.2-.74-8.82.49-12.9,2.6-1.24.64-2.35,2-4.09,1.49h0c-1.32,3.58-5.35,6.58-2.52,11.07,5.67.27,4.65-6.38,10.13-8.56a181.69,181.69,0,0,1-17.42,30.2l.48.68c3.17,1.91,5.41.75,7-2.15,3.78-6.9,9-12.89,12.81-19.77,1.62-2.91,3.74-4.09,7-2.59,4.3-1.95,7.44-5.36,10.89-8.38Z"
            fill="#825f3e" />
        <path
            d="M765.73,501.49c-3.1-.61-5.53-3.55-10-2.61,8.61-6.38,4.46-16.87,9.43-24.37,1.86-2.82-.39-5.52-3.09-6-3.25-.54-3.58-2.06-3.33-4.53-.31-.94-.61-1.89-2-1.61-.54,2.27-.82,4.65-2.66,6.4.26,4.07-2.1,7.49-2.91,11.28-.68,3.24-1.27,6.34-.68,9.86.39,2.37-4.8,2.77-5.28,6.21-.2,1.38-1.47,2.61-.58,4.17C751.64,502.11,758.71,501.39,765.73,501.49Z"
            fill="#704b2a" />
        <path
            d="M744.72,500.31c2.08-3.15,2.34-7.78,7.29-8.6.92-.15,1.26-.77.8-1.61-3.08-5.53.23-10.38,1.88-15.3.78-2.3,1.75-4.16-.52-6-.93,1-1.85,2-2.78,3,1.23,3.26-1.89,4.82-2.8,7.21-1.59,4.14-2.28,8.62-3.18,13-.56,2.71-1.7,4.52-4.85,4.26C740.62,498.92,742.27,500,744.72,500.31Z"
            fill="#5d432c" />
        <path
            d="M756.83,462.39l2,1.61c3.68-3.42,6.6.88,9.94,1.15,2.91.23,5.18.55,6.91-2.09-.42-3.56-3.47-2.81-5.61-3-2.34-.2-4.56-.3-6.39-1.91h0C758.69,455.45,757.38,458.33,756.83,462.39Z"
            fill="#41260d" />
        <path
            d="M770.91,436.5l2.52-11.07-2.51,2c-1.51,3-3.48,5.89-3.43,9.46,1,.74,1.68,2.09,3.16,1.47C771,438.24,770.83,437.15,770.91,436.5Z"
            fill="#553d25" />
        <path
            d="M766.73,448.49c-.08-1.36-.5-2.24-1.58-2.33-2-.17-2.56,1.23-2.83,2.8-.15.8.14,1.69,1,1.67A4.13,4.13,0,0,0,766.73,448.49Z"
            fill="#825f3e" />
        <path
            d="M770.22,442.11c.75-1.41.21-2.11-.85-2.27a2.55,2.55,0,0,0-3,1.88,2.11,2.11,0,0,0,1.11,2.8C769.66,445.13,769.1,442.42,770.22,442.11Z"
            fill="#825f3e" />
        <path
            d="M803.43,559.5c-3.94-3,1.55-6.22-.19-9.28-3.54,2.72-8.1,1.12-12,2.77-2.7,1.15-4.24,2.38-1.92,4.69,1.59,1.6,1.39,7.23,6,3.62C797.9,559.24,800.85,560.57,803.43,559.5Z"
            fill="#b18760" />
        <path
            d="M780.47,546.33c1,.69,1.77,2.27,3.31.82.69-5.71,3.83-11.33,0-17.18-1.26-1.93.35-4.36.68-6.56.22-1.42,1.12-3.43-.92-3.81-2.51-.48-2.33,2-2.52,3.52a36.15,36.15,0,0,0,.6,9.94C782.34,537.76,781.2,542,780.47,546.33Z"
            fill="#b58c66" />
        <path
            d="M785.45,508.12a2.35,2.35,0,0,0-.55.16c-3.38,2-3.44,5.07-2.8,8.29a1.51,1.51,0,0,0,2.3.92c3.11-1.8.81-4.82,1.49-7.2.18-.63-.27-1.45-.44-2.18Z"
            fill="#ca9f78" />
        <path
            d="M792.32,567.7c.78,2-.57,4.44,1.94,5.55.88.39,1.69-.81,1.38-1.16-1.81-2,1.74-4.35-.27-5.91C794.23,565.28,793.05,566.6,792.32,567.7Z"
            fill="#b18760" />
        <path
            d="M739.17,633.11a6.15,6.15,0,0,0,1.18-.58c1.15-1,4,.73,3.81-2.06-.13-1.74-2-2-3.56-2.22-2.29-.36-3.63.69-4.06,2.87s1.17,4.26.15,6.57c-.46,1,.9,1.39,1.84,1.56,1.34.24,2.1-.63,2.82-1.52s.79-1.65-.29-2.31C740.27,634.94,739.31,634.62,739.17,633.11Z"
            fill="#5d3a1d" />
        <path
            d="M881.36,329.43c-2.16,1.26-5.29,9.56-4.32,11.6.77,1.62,2.07,2,3.79,1.44,5-1.73,2.52-6.52,4-9.71,1.1-2.36-1.63-2.84-3.46-3.33Z"
            fill="#6d4d32" />
        <path
            d="M822.09,424.35c3.76-3.68,5.74-8.55,8.81-12.7a25.54,25.54,0,0,0,1.31-2.42c.71-1.21,4-1.39,2-3.6-1.46-1.58-3.17.35-4.61,1-6.77,2.93-6.42,10.88-11,15.56-1.43,1.46,2.2,1.47,3.49,2.19Z"
            fill="#8a6542" />
        <path
            d="M821.94,389.78c-4-.31-10.61,4.24-11.35,7.55-.21.92-.36,1.89.73,2.42.94.46,2.41.34,2.56-.37C814.85,394.8,820.49,394.27,821.94,389.78Z"
            fill="#93704b" />
        <path
            d="M783.86,468.33c-2.3,8-8,14.86-8.32,23.53-.08,2.28-1.67,3.7-2.49,5.55-.55,1.25-3.58,2.55-.84,3.88,1.74.84,5.29-.57,5.14-2.12-.38-3.95,2.33-5.09,4.58-7,2.7-2.25,1.93-6.24,4-9.34,2,2.31-.17,4.54,1.78,7.24,1.7-4.62,3.21-8.64,4.66-12.68.23-.66.45-1.67-.57-1.8s-3.93,2.76-2-1.3A4.77,4.77,0,0,1,796.2,472c1.74.78.13,2.62-.68,3.77-4.56,6.54-4,14.79-7.64,21.62-1,1.79-.65,5.77-4.68,2.8-.21-.15-1.55.57-1.67,1.05-.31,1.32.47,1.9,1.88,2.15,4.82.84,10,.61,14.11,3.8,2.11.28,2.11-1,2.67-2.62,2.61-7.45,3.82-15.22,4.82-22.91.47-3.61,7.53-6.94,1.89-10.19-2.93-1.68-7.35-2.58-11.3-3C791.77,464.56,789.48,464.52,783.86,468.33Z"
            fill="#9c7550" />
        <path
            d="M783.86,468.33c3.92-.49,7.87-2.8,11.74.19,3.53-.67,7-1.11,10.34.87,1.39.83,2.94.43,4.48.3,1.76-.14,3-.64,3-2.58,0-1.78-1.55-1.83-2.79-2.26-3.44-1.2-7.43-.69-10.51-.44-5,.39-9-2-13.66-2-3.85-.08-7.1-3.74-11.91-2,6.9-4.59,6.51-13,11.61-18.29,3.55-1.56,6-3.85,5.35-8.06-3.08-4.58-6.3-3.06-8.07.63-3.79,7.9-10.51,14-13.8,22.15-1.17,2.89-3.83,1.63-6,1.33,1.59,2.68,4.1,3.62,7.08,3.41,1.9-.14,3.76-.54,4.92,1.5C777.86,465.59,781.19,466.46,783.86,468.33Z"
            fill="#724d2b" />
        <path
            d="M791.52,434a33.85,33.85,0,0,1-5.35,8.06c-.09,1-.89,2.51.37,3,2.16.85,3.11-1.23,3.77-2.54a55.39,55.39,0,0,1,9.05-12.3c2.07-2.25,3.64-2.72,4.73.69l0,0c3.08-2.29,3.08-2.29-2.28-5A18.53,18.53,0,0,0,791.52,434Z"
            fill="#9f7853" />
        <path d="M804.09,431c-6.65,3.4-8.16,10-10.43,16.15,3.14-5.59,8.49-9.82,10.41-16.17Z"
            fill="#9f7853" />
        <path
            d="M816.63,613.25c-.77,8.67.26,11.77,3.11,11.91.81,0-2.79,8.38-3.35,9-3,3.1-9.95,13.46-12.78,13.07-.08,0-3,.25-5.69.39a2.36,2.36,0,0,1-2.29-3.38l6.73-13.7,5.69-7.48a2.35,2.35,0,0,0,.48-1.43l2.88-10.51c0-1.49-.06-7.17,1.44-6.87l.46.48c.91.18.52-.22.74.66Z"
            fill="#8e6341" />
        <path
            d="M788.32,651.47c.7.08,4.69,1,5.39,1.13-1,1.64-4.48,18.73-6,18.62-13.19-.86-22.06-6.73-35.25-7.71-2.5-.18-9.55-4.61-11.67-6.25l.28-.53c2.52-2.7,6.13-2.1,9.28-2.92,7-.6,13.53,1.38,20.67,1.19C777.17,655.14,782.19,650.52,788.32,651.47Z"
            fill="#a57752" />
        <path
            d="M740.79,657.26c-5.92,0-10.67-3.66-13.35-10.37l.45-.44a2.88,2.88,0,0,1,2.36,1c3.28,3.52,6.43,7.19,10.88,9.41Z"
            fill="#b79880" />
        <path
            d="M726,639.73a5.29,5.29,0,0,1,.8.06c1.67,2,2.4,4.19,1.17,6.69l-.49.41C725.42,644.8,725.73,642.26,726,639.73Z"
            fill="#b79880" />
        <path
            d="M637,842a3.71,3.71,0,0,1,1.33-.67c7.85-2,10.81.8,18.78-.64,5.37-1,12.3,2.46,16.79,5.29s10,2.65,14.5,5c2,1.06,6.68,2.17,8.63,3.37,2.59,1.13,5.28,2.81,7.05-1.11,2.48-4.17,5.67-7.76,7.2-12.67,1.27-4,3.75-8.37,7.85-9.95,6.9-2.65,15.94-3,22.87-5.52,2.22-2.43,4.88-.81,7.38-.77,2.33-.82,3.46-2.38,2.59-4.79-1-2.86-3.44-4.06-6.33-4.32-5.84-.51-11.68,0-17.51.25a3.92,3.92,0,0,0-1.88.09c-7.68,4.25-15.74,3-23.88,1.89A75.92,75.92,0,0,0,671.82,820c-4.47.29-8.62,1.78-12.76,3.36-6.48,2.47-12.85,5-20.09,4.95-5.87,0-9.46,5-13.65,8.32-2.12,1.66.27,3.57,1.84,4.25C630.25,842.18,633.57,843,637,842Z"
            fill="#341d06" />
        <path
            d="M805.56,982.16c2.23,5.13,1.05,10.78,2.58,16.1,2.2,1,2.14-2.18,3.84-2.17.07.14.24.34.22.5s-.32.3-.36.48c-.17.71-.29,1.42-.58,2.93,4.15-2.73,3.21-6.59,4.12-9.7-1.17-3,2.1-5.23,1.59-8.15.66-5.22-2.16-9.53-3.81-14.15-.36-1-1-2.22-2.12-2-6.07,1.42-6.53-3.64-7.22-6.88-1.5-7-6.83-12-8.73-18.95-.71-2.57-3.76-6.91-7.4-9a6,6,0,0,1-3-5.75c.6-8.38-6.82-5.49-11.68-7.13,2.66-2.75,7.5-2.64,6.61-7.2-1.58-2.28-3.8-1.5-5.7-.84-3.53,1.25-6.5,1.86-7.86-2.83-.38-1.31-2.28-.72-3.31-1.42,1.5-4,11.13-.77,7.65-9.17,2.67,1.62,4.33,5.26,7.75,2.21.46-.72,1-1.76.44-2.32-5-5.4-2.26-9.7,1.88-13.85a5.14,5.14,0,0,0,.5-2.59c-2.31-4.81-6.65-9-4.12-15.25.64-1.59-1.27-3.34-2.37-4.85-2.8-3.8-3.26-7.4,1.16-10.45,1.43-3.59,1.32-7-1.09-10.2-1.25-1.1-2.56-2.19-2.15-4.11,1.29-5.94-2.79-10.56-4.1-15.87-.94-3.83-4.58-3.07-9.78.48,2.57,4.25,2.52,8.24,2.32,12.79,7.39,9.72,6.27,20.2,2.58,30.79-.85,2.46-1.54,4.74-.58,7.22.58,1.5,1.5,2.41,3.38,1.74.69-.25,1.12-2,1.55-1,.49,1.18,2.54,2.9.15,4.25a16.35,16.35,0,0,1-4,1.89c-7.06,1.73-8.32,3-9,9.82a57.65,57.65,0,0,0-.75,6.81c.91,7.35,1.61,14.56,6.79,20.82,2.43,2.94,1.78,7.84,2.66,11.8.6,2.73.76,4.65,3.55,5.38,7.33,1.93,7.57,8.15,8.53,13.81,1,6.22,2.17,7.33,8.82,7.06-3.35,7.35,3.13,10.29,6.86,14C796.25,972.12,800.65,977.37,805.56,982.16Z"
            fill="#996b44" />
        <path
            d="M782.93,925.47c-.09,3.6.76,6.41,4.89,7.57,1.3.36,3.73,1.7,1.6,4.14-1.38,1.57-.2,2.43,1.21,2.21,4.84-.74,4.62,2,4.13,5.27-.15,1-.18,2.53.36,2.9,8,5.34,5.85,16.05,12.19,22.08,1.43,1.35,1.71-2.36,3.92-2.78.79,5,4.8,9,4.44,14.54.46,1.54.71,2.32,1.82,5.29v0c.13,2.65.11,5.39,3.67,6s2.64,6.41,7.16,5.63c1.69-6,.07-12-.28-18.12,3.75,3.64,3.3,8.87,6.54,12.86,1.81.2.73-2.32,2.14-3,1.27.94,1,2.61,1.29,4.11,3.25-.13,1.89-2.75,2.41-4.35l-.32-7.56A55.58,55.58,0,0,0,840,968.4c-1.24-3.48-3.25-6.53-7-7.39-8.31-1.89-10.83,1-9,9.68-2-.66-3.73-1.15-2.59-4.11,2.53-6.57,5.15-7.87,12.94-5.59,1.6.46,3.26,1.7,4.69.32,1.71-1.63.22-3-1-4.16-.33-.32,1.64-1.44,1.68-1.89.5-5.84-1.71-5-7.9-5.39.34-2.53,5.69-4.21,1.5-7.52-3.48-2.75-6.86-4.32-10.53-.63-2.05,2.06-3.91.48-5.82.07-2.64-.58-5.52-2-7.52.79s.76,5,1.86,7.32c1,2.06,3.56,2.9,4.56,5.08-5.2.76-6.56-.87-10.46-12.64a22.91,22.91,0,0,0,7-2.13c2.8-1.19,4.57-2.92,4.71-6,.15-3.41-2.5-4.54-5-5.66a10.54,10.54,0,0,0-6.15-.89c-2,.45-2.92,2.39-4.55,3.36-3.33.39-4.57-1.72-5.36-4.38a5,5,0,0,0-1.88-1.67,13.54,13.54,0,0,0-2.35-1.09C788.69,923.28,785.5,922.66,782.93,925.47Z"
            fill="#ca8e5a" />
        <path
            d="M907.09,930.84l.63-5.93c-.11-.91-.27-1.78-1.34-2.08-5.38-1.35-10.71-.13-16.06.34-1.93.16-3.94.23-4.76,2.24-.73,1.81.75,3,1.82,4.31s3.17,2.23,2.3,4c-1.07,2.21-2.88.1-4.36,0-3-.22-3.44,1.74-3.72,3.9-.41,3.23-1.31,6.1-5,7.12-1.4.48-2.75,1.08-4.18,1.44-8.07,1.17-9.87,5.15-10.25,12.38-.14,2.65-1.78,3-3.75,3.18-2.22.18-5.16-.74-6,2.06-.92,3,2.56,3.25,4.1,4.72a7.73,7.73,0,0,1,1.94,2c-2.58.63-4.87,2.08-4.2,4.87.88,3.63-1.53,5.27-3.46,7.35a3.36,3.36,0,0,0,0,2.69c1.86,1.54,3.56.48,5.27-.32,3.49-2.71,4-7.66,8.8-10.65-2.43,8.37-6.13,15.85-4.6,25.32,2.15-3.7,3.65-6.39,4-9.61s-.38-6.27.88-9.39c2.16.29,1,3.23,3.72,3.86,3-7.62-.13-15.71,1.36-23.85,8.09,9,4.37,19.6,5.15,30.1,4.51-4.3,7-9.06,6.73-14.81-.27-6-1.08-11.95-1.69-17.92-.12-1.2-1.48-2.61.88-3.22,2.12-.55,3.39.37,3.74,2.22.68,3.65,1,7.37,1.62,11,.34,2-.87,4.53,1.88,5.76,1.78.19,2.69-.92,3.47-2.24l-.39-10.38c1.53-3.06-.14-6.07.09-8.55.46,1.62.31,4,1.57,6,.68,1.08,1.17,3.05,3.1,1.23.13-.11,0-.36.26-.42-2.27,3.33-.24,6.8-.35,10.21l-.39,3.72c1.24.53,1.89-.18,2.42-1.13.57,1-.53-4.47.94-.24a1.24,1.24,0,0,0,1.94.76c1.13-.82,1.08-2.07.68-3.3.87-10.12,5.91-19.49,5.48-29.84-.05-1.22-.13-2.43-.2-3.65-2.31-2.47-5.62-2.66-8.57-3.66-1-.33-2.37-.48-2-1.83.51-1.73,1.92-1.26,3.06-.57,1.93,1.16,3.45,3.24,6.13,2.61A1.42,1.42,0,0,0,907.09,930.84Z"
            fill="#cd9869" />
        <path
            d="M806.4,645.27c-1.6-.25.84-6,1.79-9.84a4.24,4.24,0,0,1,2.53-2.85c2.69-1.11,5.3-3.84,7-5.9a5.37,5.37,0,0,1,5.43-1.83c15.14,3.75,27.24,13.7,38.12,24.27,12.41,12.06,20.8,27,28.87,42,.54,1.12,1.15,2.2,1.73,3.29.79,1.52,3.25,3.08,1.56,4.73s-3.87-.19-5.74-1a6.35,6.35,0,0,1-2-1.43c-5.09-5.16-10.44-10.1-13.13-17.1-1.3-3.41-3.44-5.24-7.11-2.54-6.27,2.11-10.15,6.84-13.6,12.06-2.42-.66-2.65-2.83-2.3-4.49.86-4.14-1.1-7.58-1.92-11.36-2.3-10.55-7.3-20.17-10.11-30.52-.19-5.7-4.08-1.56-6.14-2.27C827.28,633.55,808.23,645.52,806.4,645.27Z"
            fill="#724d2f" />
        <path
            d="M805.56,982.16c.29-3.27.62-6.55-4.34-6.31-.4,0-1.08-.13-1.16-.36-1.85-5.22-5.15-9-10.54-10.91,2.26-3.63-.8-3-2.77-4.05-1.78-.94-3.51-3.36-.67-5.58,1.33-1,2-2.11.35-3.51-1.25-1.05-2.55-1.7-3.88-.39-3,2.9-4.58.64-4.44-1.74.29-4.74-3.79-8.51-2.5-13.33.17-.64-.32-1.46-.5-2.2-4.51,1.17-5.46-5.17-10.56-4.07,2-2.5,4.17-4.06-.27-6a2.41,2.41,0,0,1-1-2.14c1.81-6.05-2.17-9.49-5.43-13.69-2.8-3.62.34-9.07-2.51-13.12-.83-1.67.16-3.23.29-4.84.26-3.29-2.64-7.14-5.52-6.89-4.06.37-2.15,3.68-2.58,5.81a13.43,13.43,0,0,0-.68,3.07c.09,1.15.5,3.32,2.36,8.66,3.23,9.91,7.06,20.73,11,30.36,4,9.82,5.65,17,11.55,27.21,1.5,3,3.54,5.68,4.61,7.69a288.82,288.82,0,0,0,19.44,31.53C799,991.87,804.74,988.63,805.56,982.16Z"
            fill="#734a25" />
        <path
            d="M631.39,742.77c-2,2.29-3.26,5.28-6.27,6.65-1.76,2-.29,3,1.33,3.63,6.71,2.59,13.18.9,19.49-1.51,2.15-.82,2-2.92,1.53-4.85-1.08-4.85-3.52-10,3.06-13.21,1.24-.61,1.12-2.58,1.22-4s.34-3.22,1.66-3.87c6.42-3.17,10.64-9.35,17.17-12.24,4.75-2.1,9.94-3.21,12.53-8.58,1.11-2.32,3.49-1.8,5.45-.48,1.7,1.15,3.11,2.86,5.46,2.76a3.16,3.16,0,0,0,2.26-1.4c4.7-7.72,8.83-15.83,16.24-21.59,3.91-3,3.72-5.22-.42-10.37a24.57,24.57,0,0,1-9.42-4.52c-2-1.42-4.19-2.93-6.74-.88-1.5,4-3.34,8-4.42,12.14a20.75,20.75,0,0,1-6.76,10.91c-7.27,6.13-14.81,11.94-22.24,17.88-6,7.22-14.33,12-20.36,19.25C638.33,733.09,636.54,739.18,631.39,742.77Z"
            fill="#664f37" />
        <path
            d="M608.49,767.61l-7.3,4.84c.45,2.26,1.44,4.25,0,6.85s-.61,5.54,2.92,6.71a6.38,6.38,0,0,0,4.34-.41c1.64-.51,3.49-2.52,4.91-.82s0,3.77-.91,5.55c-.35.45-.68.91-1,1.35-1.46,2.54-7.44,3-3.71,8,.28.38-.73.84-1.25,1.12-2.75,1.46-4.5,3.62-2.46,6.48,2.2,3.09,5.63,3.57,8.95,1.82a76.27,76.27,0,0,0,8-4.78c3.42-2.38,6.83-2.54,10.6-2.1a11.61,11.61,0,0,0,4.9-2.34c1.77-3.94,2.2-8.09,6.47-11.33,3-2.25,2.38-8.45,1.54-12.56a7.37,7.37,0,0,0-7.61-6.13c-3,1.6-6,3.44-7.35-1.86a3.78,3.78,0,0,0-4.25-2.87C619.57,765.49,613.68,764.22,608.49,767.61Z"
            fill="#f6d8b7" />
        <path
            d="M695.52,705.28l-1.51.93c-7.94-2.88-12.83.4-16.22,7.46-1.4,2.91-4.36,4.21-7.56,5.09-3.53,1-8.12,1.34-8.68,6-.53,4.41,2.63,7.15,6.49,9-1.1,2.43-3.42,3.85-3.51,6.64s-3,2.31-4.73,3.24c-2.84,1.5-7.5,2.13-4,7.36,1.36,2.05-1.49,3.51-2.13,5.38-.7,2.08-2.58.18-3.65-.28-5-2.13-9.55-3.47-13.13,2.29-1,1.65-2.89,1.45-4.56.7-3.82-1.71-7.88-3.06-10.4-6.72l-6.21,5.21c-2.27,6.79-2.27,6.83,4.73,6.3,4.32-.33,8.72-1.39,12.48,1.85,3.67,1.59,7.67,2.14,11.47,3.4,5.25,1.74,15.19-4.4,17.07-10.12.39-1.17.11-3.17,1-3.48,14.44-4,7.91-12.52,14.63-16.46,1.91-1.13,3.28-1.53,5.13-.48,2.75,1.56,4.31.86,6-2,3.44-5.92,5.92-6.07,11.61-1.64,3,2.32,5.32,2.36,6.25-1.93-.87-1.93-3.8-1.75-4.35-4.17,1.7-1.24,4.95-.2,5.36-3.13.31-2.21-1.54-3.13-3.33-3.86-2-.55-3.93-1.54-6.11-1.29-1.85.74-1.79,4.36-4.58,3.39-2.35-.81-2.15-3.5-2.38-5.38-.65-5.34,3.81-1.63,5.57-2.82,1.19-.79,2-2.06,3.56-2.36,3.6-.7,3.56-2.82,2.14-5.45-1.1-1.91-4.86,1.11-5-2.63A1,1,0,0,0,695.52,705.28Z"
            fill="#a17b57" />
        <path
            d="M621.89,752.39c-.92,5.23,3.83,4.88,6.56,6.62,4.7,3,8.06,3.32,12.12-1.91,3.71-4.78,7.85,1.67,12,1.85,1,0,1.37,2.18,3.53,1.44-2.16-4-.51-6.84,3.14-8.53.32-3.29-4.9-.65-3.69-3.63.9-2.24,3.38-3.53,6.15-3.59,3.12-.07,6.43,0,4.36-4.79-.16-.35-.22-1.07,0-1.18,6.47-4,5.5-5.61-1.18-9-5-2.48-2.9-7.1,3.2-8.69,7.14-1.85,13.28-4.87,14.9-13.1.61-3.09,3.23-2.2,5-1.15,2.32,1.38,4.22,1.78,6-.56-2.33-.36-3.22-2.56-4.93-3.73-3.25-2.24-6.42-2.12-7.61,1.67-1.47,4.69-5.33,5.54-8.93,6.78-4.46,1.54-8.61,3.13-11,7.58-1.06,1.93-3.56,2.06-5.34,3.1-3.38,2-7.45,3.61-5.94,8.93.22.78-.42,2.52-1,2.68-9.65,2.73-3.89,8.79-3.06,13.7.27,1.64,1.3,3.8-1.24,3.9-5.54.22-10.74,3.76-16.59,1.47-1.62-.64-3.34-.57-3.23-2.87C623.4,749.72,622.76,751.18,621.89,752.39Z"
            fill="#755a3f" />
        <path
            d="M890.15,691.15c-.63,3,2.38,4.66,3.22,8.25-9.29-4.84-15.66-11.23-19-20.18-1.21-3.25-3.42-4.36-6.19-5.41-2.35-.88-2.93.61-3.46,2.29a8.27,8.27,0,0,0,2.13,2.78c2.81,4,5.58,7.42,6,13,.36,5,3.88,9.87,6.27,14.63a4.77,4.77,0,0,0,7.65,1c3.07-3.38,4.33-1.19,6.31.78,3.56,3.55,5.29,8.92,10.87,10.55,1.12.32,1.75,1.9,1.74,3.15-.11,9.9,7,13.25,14.76,16,3.16,1.1,5.87,2.64,6.43,6.11.91,5.68,5.24,7.39,9.9,8.89,3.75-1.38,4.94-3.5,2-6.81-8.74-10-17.41-20.06-26.23-30C905.15,707.75,897,700,890.15,691.15Z"
            fill="#8e6444" />
        <path
            d="M748.2,892.06c.18-2.61.35-5.23.53-7.92,6.7,1.16,5.95,6.33,6.63,10.66,1.9-4.49-.51-10.08,3.66-14,.7-.66,1.06-2.65,1.92-2,5.63,4.13,7.37-3.82,12.31-3.28-6.54-2-2.81-7.08-4.07-11-2.86,2.07-1.67,5.46-3.93,7.69-1.75-2.18-2.59-4.75-1.15-6.66,4.07-5.37,3.32-11.76,3.83-17.63s-1.45-11.78-6.83-15.68a4.75,4.75,0,0,0-1.62.73c-5.49,4.37.25,9.64-1.11,14.37-.1.35.81.87,1.32,1.23-6.49.34-2.64,8-7.26,9.89-3.52,1.4-6.56,3.33-7.65,7.56-.58,2.26-1.72-1.42-2.92-.43-.6,4.72,1.58,9.08,2.53,13.46s2.24,8.53,2.48,13A.82.82,0,0,0,748.2,892.06Z"
            fill="#865c38" />
        <path
            d="M593.21,813.44c8.24,11.37,16.14,23.11,30.87,27.3,1.47-3.33-4.65-5.22-2.14-7.92,1.91-2.05,5.89-1.45,8.68-3,5.15-2.78,11.55-1.7,16.53-5.15,1.79-1.23,4.52-1.51,4.19-4.58-4-2.26-7.09,1.41-11,1.8,4.8-1.49,9-3.71,13.69-4.71,3-.64,4.47-3.12,5.68-5.5,1.48-2.91-1-6.17-3.81-4.88-3.22,1.47-5.42.18-8.22-.46s-6.37-.08-4.16,4.16c1.47,2.82-.6,2.66-1.84,3.35-12.3,6.87-24.79,9.06-37.65,1.43-3.08-1-5.64-2.36-6.42-5.91-.4-1.79-1.58-4-3.59-3.54-2.58.65-1.73,3.25-1.43,5.21C592.71,811.87,593.05,812.64,593.21,813.44Z"
            fill="#906840" />
        <path
            d="M741.86,865.51a41.93,41.93,0,0,0,2.45,4.28c.39.55,1.36.69,2.06,1,.29-.72,1-1.64.8-2.14-2.94-6.37,2.47-7,6.13-8.82,2.72-1.31,5.48-2,3.21-6.23-1.56-2.92,1.25-3.33,3.49-3,1.17.19,2.61,1.39,3.29-.06.78-1.69-.81-2.52-2.24-3.07-1.17-.45-2.84-.94-1.85-2.45,1.86-2.83.81-4.77-.88-7.23-1.46-2.14,1.78-2.81,2.5-4.39-2-3.75-2.13-9.68-7.43-11-2.34,3-.32,7.93-2.61,11.43-1.83-3.45,1.59-7.77-2.14-10.43-2.46-.45-5.08-1.55-6.63,1.63,3.41-1,5.51-1,4.79,3.76C745,841,742.41,853.14,741.86,865.51Z"
            fill="#724a24" />
        <path
            d="M726.82,633.94c1.25,6.56,5.39,13.7.36,11.69-2.55-1-5.5-.7-6.53,2-1.66,4.33-5.18,6.92-8.14,10.06-5.67,6-5.7,6.89-.88,13.8a3.71,3.71,0,0,1,.61,1.74l-.44.76c-2.77.89-4.89.36-7.3-1.65s-4.78-4.68-8.56-4.05L706.1,649.9c2.18-.38,3.69-1.88,5.35-3.14C718,641.81,725.2,638.17,726.82,633.94Z"
            fill="#7c5c40" />
        <path
            d="M651.32,820.43c-2.14,3.21-6.34,4.39-9.09,4.77-6.69.92-12.5,4.53-19.08,5.09-5.51.47-5.44,2.51-2.5,6.07,1.18,1.43,2.29,2.92,3.43,4.38,4.13,2.21,8.21,5,12.93,1.25-3.76-1.43-8.44-.47-11.72-4.4,14.05-10,31.27-10,46.36-16,1.21-.53,2.49-1,1.61-2.73-3.58-4.1-8.14-2.61-12.53-2.15C657.34,817.32,653.61,817.09,651.32,820.43Z"
            fill="#5c3e1f" />
        <path
            d="M938.8,746.1c.83,2.65,1,5-2.48,5.93.33,3.92,4,6.2,4.92,9.82a7.67,7.67,0,0,0,4.18,3.6c3,.64,3.79,2.77,3.79,5.47,0,3.57,1.92,5.65,5.32,6.56,3.07.39,6.06,3.19,9.24.33.53-3-2.14-3-3.84-3.87-1-.53-2.69-.57-2.24-2.33a3.22,3.22,0,0,1,2.76-2.21c2.33-.45,4.5.33,6.74.86,7.71,1.81,7,1.74,8.12.54-14.94-8.71-23.19-12.87-31.51-20.27C942.14,749.05,941.35,746.62,938.8,746.1Z"
            fill="#a97c59" />
        <path
            d="M633.65,765c-5.41-6.88-12.19-1.48-18.58-2.32.18-1.5.4-3.28.61-5.06-3,2.93-3.09,7.87-7.19,10,5.41-.35,10.88-.35,16.21-1.19,2.89-.45,3.1,1,3.78,2.77,2.75,7.06,2.89,7.08,8.07,1.4,0-.27-.06-.54-.08-.81C636,767.94,635.34,766.15,633.65,765Z"
            fill="#dcb692" />
        <path
            d="M604.19,784.85c-2.83-1.36-3.53-4.29-1.57-5.81,4.83-3.74.13-4.67-1.43-6.59-7,6-12.56,12.59-10.89,22.62a3.22,3.22,0,0,0,1.41-1.06c1.48-2.53,1.33-5.54,2.67-8.52C597.78,787.91,601.45,790.92,604.19,784.85Z"
            fill="#c4a984" />
        <path
            d="M590.93,793.57l-.63,1.5c-.31,6.32-.49,12.63,2.91,18.37.86-2.12-1.27-4.51,1.31-7.37,2,4.94,2.38,11.44,9.8,10.57a2.76,2.76,0,0,0,1-1.44c.39-3.41-1.65-5.65-3.84-7.83-3.84-2.45-5.4-6.2-6.1-10.45-2.08-.48-2.47.52-2.08,2.18C591.69,797.69,594.22,794.37,590.93,793.57Z"
            fill="#af8f62" />
        <path
            d="M631.39,742.77c2.93-.66,4.81-3,6-5.18,4.6-8.57,11.19-15.14,19.09-20.7,2.68-1.89,4.48-4.77,6.06-7.68-9.33,6.83-18.39,13.92-24.77,23.74C635.62,736.22,633.51,739.5,631.39,742.77Z"
            fill="#755a3f" />
        <path
            d="M892.12,971.68l-3.47,2.25c-2.64,6.64-.81,13.93-4.2,21.52,3.65-1.34,4.2-3.86,5.89-5.14,2.53-3.75,1.63-8.15,2.38-12.25Z"
            fill="#ad8560" />
        <path d="M851.33,985.46c.15,1.87,1.91,3.37,1.22,5.42,3.3-.67,1.66-4.31,3.58-5.81Z"
            fill="#dc9d63" />
        <path
            d="M876.89,945.77c5.7.58,5.77-4.11,6.26-7.39s.19-5.51,3.82-2.23c1.53,1.39,2.94,2,4.13.11,1.09-1.7,2.17-3.81-.13-5.51-1.83-1.35-4.82-2.82-4.15-4.83.92-2.77,4.83,0,5.73-.69,4.59-3.67,9.76.3,14.28-1.71.95-.33,1.46-2,2.55-1.42,6.56,3.72,5.88-1,5.62-4.77s1.37-6,4.63-7.24c6.07-2.41,6.08-2.37,1.92-7.21a3.18,3.18,0,0,1-.95-1.79c2.88-2.27,9.43,2.81,10.08,2.1,3.3-3.59,6.48-2.06,8.54-4.73a59.86,59.86,0,0,0,6.55-9.76c1.92-4.25,2.46-1.81,2.46-1.81s0-.38.76,2.11c1.43,2.27,3.5,2,5.68,1.44,2.6-7.71,4.37-15.84,10.76-21.72,2.76-.69,1.31,5,4.3,4,2.65-.92,2.24-4.25,2.75-6.41a23.2,23.2,0,0,0,.91-6.73,6.15,6.15,0,0,0-.47-1.69c-.34-1-1.93-1.86-.16-3,2.3-1.46,2.61-3.93,3.16-6.27a218.87,218.87,0,0,0,.83-25.34,9.86,9.86,0,0,0-.89-3.45c3.81.66,5.69,6.48,10.81,4,1.41-7.38,4.14-14.59,3.09-22.31-3.89-3.06-8.7-4.82-13-6.63-5.31-2.22-11.44-2.82-17.12-4.83-5.39-1.9-8-5.15-6.13-10.6a2.07,2.07,0,0,0-.64-2.24,9.64,9.64,0,0,0-6.36-1.49c-3.57,1.54-6.79,1.54-9.67-1.59-1.61-1.76-3.75-2.82-6.21-1.55-3.47,1.78-4.35.09-4.8-3-1.4-9.66-3.57-11.26-13.64-10.55-4.45.31-6.69-2.94-9-5.73-4.2-5.17-7-11.23-10.07-17.07-1.93-3.61-3.47-7.59-8.74-7.85-6.92-.35-7.48.05-10.66,10.53-2,2.81-6.24,4.66-2.7,9.47,1.45,2-1.57,1.94-3.07,2.14-5.12.69-5.17,1.14-2.5,5.64s6.84,7.71,11.73,10.43c-4.33,2.76-7.53,6-13.12,5.38-3.15-.38-4.13,2.4-1.55,5.08,1.36,1.41,4.45,1.85,3.67,4.44-.7,2.3-3.23,1.24-5,1.33-2.24.13-2.58,1.48-2.73,3.38-.44,5.52,2.78,8.84,6.73,11.92,1.3,1,3.9,1.67,2.37,4.24a4.32,4.32,0,0,1-4.2,2.3c-2.54-.25-2.76-2-2.54-4.14.56-5.64-4.82-6.82-7.91-9.43-1.83-1.54-3.39.55-3.08,2.88s.73,4.92-.59,7.28c-4-3.67-4.12-3.74-1.27-7.61,2.15-2.92.16-4.26-2-5.25-2.71-1.26-3.52-2.54-1.51-5.17s1-5.56-.51-8.2-1-3.88,2.14-4.07c2.24-.14,4.29-.83,4.31-3.56,0-2.49-1.74-3.55-3.91-4.26a56.59,56.59,0,0,0-9.08-2.48c-7.54-1.15-8.31-.72-8.36,6.87,0,2.53-.72,4.68-3,5.73s-3.93-.49-5.64-2.62c2.62-1.11,6.2-.2,6.92-4.5.53-3.1,1.35-5.45-1.61-7.68-1.74-1.31-.55-3,.17-4.51,1.08-2.25.66-4-3.29-5.84,11,.79,10.9-6.47,12.2-12.68-.61-4.56-3.56-3.9-6.49-2.66-3.27,1.39-6,3.83-9.28,5.22-4.75,3-9.44,6.18-14.7,8.37-1,.4-2.37.66-2.72,1.45-3.23,7.39-11.09,9.71-16.38,14.82-1.41,1.81-2.8,3.63-4.23,5.42-1,1.25-2.56,2.47-1.65,4.36,1.1,2.27,3.13,1.54,5,1.21a7.68,7.68,0,0,1,2.48-.26c3,2,6.7,3,8.13,7a2.62,2.62,0,0,0,4.26,1c2.74-2.6,3.3.11,4.6,1.43,1.8,1.82.88,2.73-.91,3.74-2.78,1.57-3,4.43-3,7.13s2,5.18-2,6.9c-1.42.61-.15,3.06.76,4.47,1.94,3,5.24,4.11,8.2,5.63,2.5,1.28,4.11.65,3.86-2.48-.23-2.91.65-4.56,4-5.09,5.55-.87,5.86-2.12,2.38-6.64-.88-1.14-2.35-1.83-2.6-3.42-.11-2.49,1.57-3.64,3.52-4.57,2.21-1.05,3.43-2.84,3.94-5.6a21.77,21.77,0,0,1-1.86,8.13c-1.86,3.26-4.62,6.49,1.68,8.44,2.85.88,1.39,2.9,0,4.34-3.31,3.35-2.2,6.45.7,9.23a34.67,34.67,0,0,1,4.22,5.39c3.2,4.63,6.09,4.23,9.16-1.36,1.09,3.12-.14,5.36-1.86,7.52-1.44,1.82-2.73,3.76-2.83,6.16-.14,3.32,3.21,6.54,5.48,4.86,3.31-2.43,8.4-1,10.62-5.49,1.14-2.32,3.28-.67,5,0,4.27,1.75,7.9,4.82,12.54,5.83,2.49.53,4.83,1.05,4.7-2.68-.07-2.13,1.54-2.16,2.94-2.53,4.33-1.13,4.32-3.35,1.57-6.22-1.11-1.16-3.12-2.24-1.49-4.06,1.83-2,3.76-1,5.45.59,4.73,4.52,10.77,7.15,16.05,10.87,1.92,1.34,3.88,1.31,6,1.1,2.63-.25,5.37-.65,7.72,2-3,2-6.65.14-9.23,2.36-1.28,1.1-1.14,4.32-5.08,2.1-1.9-1.07-7.59-3.52-9.83-.31-2.61,3.72,4.77,5.26,3.6,9.52-1.55.23-3.29-.94-5.7-.65,3-2.46,3.75-4.88-.37-5.85-3.77-.89-7.25-1.82-9.94-4.83-1.24-1.39-3.2-1-4.83-.71-3.61.53-6.95,1.84-10.87,1.75-4.16-.09-3.58,5.59-6.25,7.93.5-3.36-4.16-10.71-7.56-11.72a2.54,2.54,0,0,0-3.54,2.44c-.15,2.7-1.07,5.5-.53,8,.78,3.69.72,6.77-1.64,9.95-1.57,2.12-1,4.38,1.61,5.72,4.32,5.81,10.58,7.83,17.56,8.72-2.81-1-5.73-.94-8.36-1.69-5.19-1.48-7.56.11-8.24,5.22-.22,1.66-2.63,3.21-.39,4.93,1.9,1.46,3.94,1,5.84-.25.82-.55,1.39-1.6,2.59-1.44,1.76,2.59.9,3.85-1.74,5.3-4.51,2.47-4.64,4.17-.81,7.34a8.92,8.92,0,0,1,3.67,7.49c0,4.32,2.26,4.87,5.79,3.4,1.82-.76,3.7-2,5.57-.43a1.85,1.85,0,0,1-1.56,2c-2.39.61-4.81,1.57-4.45,4.37.39,3,2,5.82,3.7,8.38.69,1.09,2.35.22,3.43-.45a21.67,21.67,0,0,1,5.69-2.64c3.1-.85,3.24-2.3,1.68-5-2.23-3.91-.82-5.92,3.54-5.43a38.46,38.46,0,0,1,8,1.8,1.71,1.71,0,0,1,.66,3c-1.13.76-.54-1.07-1.13-1.59a4.34,4.34,0,0,0-5.2-.86c-1.87.92-2,2.61-1.53,4.3a30.49,30.49,0,0,1-.66,18.36c-1.52,4.2,1.4,6,6.57,6.08-4.87,3-12,3.27-10.23,10.31C868.64,946.75,873.13,946,876.89,945.77Z"
            fill="#eaad72" />
        <path
            d="M945.77,888.7c-1.79,3.14-6.23,4-6.89,8.33-.37,2.36-2.5,1-3.35,0-4.19-4.7-4.83-.66-4.85,6.16-3.78-10.46-8.93-2.16-12.84-4.93-.3-.21-.37,1.73.16,2.59,1.51,2.46,3,4.92,6.06,6.08-2.07,2.76-5-.11-6.62,1.78-2.24,2.65-6,4.6-3.92,9.35.88,2,1.88,6.05-3.2,2.72-2.71-1.78-2.84,1.14-3.49,2.74l.89,1.39c.5-.24.51-2.55,1.52-.49a27.94,27.94,0,0,1,1.48,4.94c1.93,1.35,3.66.26,5.12-.73,1.66-1.11,3-3.14,4.65-.12a5.13,5.13,0,0,0,1.37-5.24c-.25,5.82.57,12.65.34,19.52-.09,2.64-.52,5.4,1.94,7.4,4.47.5,4.12-3.15,5.05-5.71-2-2-1.71-4.34-1.34-6.87a65.25,65.25,0,0,1,6.28-20.08,136.24,136.24,0,0,0-4.49,16.63c.53,2.9,3.24,1.47,4.8,2.34,5.71-7.77,4.67-16.81,5-25.61.11-3.47-.89-7,.88-11.12,1.62,4.89,1.83,9.33,2.18,13.74a1.72,1.72,0,0,0,2.42-1.24C945.73,904.44,948.52,896.66,945.77,888.7Z"
            fill="#e1b58b" />
        <path
            d="M953.16,778.13c-.5,3-3.49,1.38-5.64,2.84,2.89,2.08,5.41,4.11,5.35,7.81,0,1.38,1.37,3.54,2.43,3.19,7.14-2.39,12.18,5.53,19.13,3.55a2.79,2.79,0,0,1,2.31.5c3.59,3.63,7.68,6,13,5.53.17-.8.33-1.6.5-2.4,1.3-4.63,2-9.28.4-14-.94-2.89-1.24-3.7-2.83-5.63a5.29,5.29,0,0,0-3.78-2c-6.81-.36-13.62-1.25-20.44,0-3.28,1.56-5.65-1.83-8.69-1.58C954.07,776.46,952.66,776.55,953.16,778.13Z"
            fill="#c78e5d" />
        <path
            d="M956.21,913.73c4.5-9.78,10-19.36,8.34-32.69C958.56,892.28,956.09,902.61,956.21,913.73Z"
            fill="#d8a87c" />
        <path
            d="M923.87,949.51q-2.93,10.95-5.86,21.89c.76,3.19,1.9,2.24,2.65.1,1.16-3.3,2.1-6.68,3-10.07,2.31-8.85,8.47-16.08,10.78-24.93-.31-4.4-2.52-.89-3.89-.91-2.93,2.26-3.37,5.1-2,8.36C927.62,946.33,927.64,949.47,923.87,949.51Z"
            fill="#ac8562" />
        <path
            d="M918,959.91q0-10.18,0-20.37c-1.59-1.9-3.23-3.66-6.09-2.4l-.35,16.48c.34.55.27,1.33,1,1.67,1.42,1.68,4.08,2.57,3.28,5.7C915.71,961.39,917.3,960.5,918,959.91Z"
            fill="#bf8f65" />
        <path
            d="M911.9,937.14l6.09,2.4,2-11.1c-.92-1.28-.45-5.21-3.82-1.63-1.26,1.34-3.58,1.72-5.43,2.54C910.7,932,910.62,934.68,911.9,937.14Z"
            fill="#eaad72" />
        <path
            d="M941.8,944.23c-.14-2.74,1-6.31-3.93-6L936,945.43c-1,5-2.68,10.05-.2,15.13C938.29,955.29,941.36,950.24,941.8,944.23Z"
            fill="#ac815d" />
        <path
            d="M907.09,930.84c-3.14,2.67-4.2-.75-6-2-1.48-1-3.15-3-4.86-1.45-1.3,1.21-1.67,3.5-2.18,5.38-.12.43,1.14,1.74,1.33,1.66,4.36-1.91,7.8,2.19,11.9,1.71C907.44,934.37,908.17,932.57,907.09,930.84Z"
            fill="#eaad72" />
        <path
            d="M912.53,955.29c-.33-.56-.65-1.12-1-1.67-.42,1.62-2,2.74-2.51,4-2,4.85-5.15,10,.86,15.21C910.5,966.69,910.85,960.87,912.53,955.29Z"
            fill="#bc906a" />
        <path
            d="M822.73,632.76c-3.34-3.89-6.15-2-8.89.77-.38,2.1.73,4.85-2.5,5.75-3.8,3.44-5.67,8.83-11,10.74-2.93,2.58-9.94-.25-9.39,6.93,2.65,1.57,3.82-3.38,7.08-1-3.2,2.25-3.91,5.93-4.67,9.71-4-2-1.55-5.9-3.84-7.83a6.9,6.9,0,0,0-5.32,1.71c-1,.69-2,.32-3,.13-2.91-.56-5.78-.19-6.93,2.67-1.09,2.71,1,4.57,3.29,5.88,2.49.37,5.07.55,3.42,4.32-.54,1.24-.06,2.8.23,4.2a8.06,8.06,0,0,0,1.89,3.75c1.77,1.29,2.52,3.72,4.9,4.35a2.78,2.78,0,0,0,1.43-.88c1-1.35,1.34-3,2.26-4.33,1.33-1.9-.57-6.08,2.65-5.87s7.18.19,9.38,3.64a5.65,5.65,0,0,0,1.64,1.8,2.46,2.46,0,0,0,1.71-.13c2.32-1.55,2.48-3.83,1.74-6.1-1-3.17-.18-5.78.85-8.88,1.36-4.05,3.32-6.27,7-8.65s5.42-8.09,10.24-10.24c.54-2.52,2.73-3.48,4.58-4.78.74-3.84.29-6.76-4.82-6.19a4.4,4.4,0,0,1-4-1.48"
            fill="#a8744b" />
        <path
            d="M673.36,819.39l-1.71,2.22c14.4-4,28.87-3.81,43.38-.66,2.62.56,4.39-.94,6.33-2.16a10.82,10.82,0,0,1,6.57-1.76c1.51-.66,2.43-1.5.9-3-2.17-1.32-4.54-.89-6.74-.38a19.22,19.22,0,0,1-10,0c-6.6-1.93-13.3-1.33-20-1.05C685.21,813,678.76,814.8,673.36,819.39Z"
            fill="#5c3413" />
        <path
            d="M729.65,814.82,727.93,817c5.81-.14,11.61-.33,17.41-.41a5.54,5.54,0,0,1,5.55,3.33c1,2.19-.48,3-2.25,3.48,1,2.91,0,5.74-.36,8.6-.31,2.26.23,4.77,2.41,5.12,2.69.42,2.16-2.58,2.41-4.16.51-3.23.56-6.53.8-9.81,3.55-3.39,3.29-8,3.54-12.22.18-3-1.81-4-4.67-2.82-6.5,5.45-15,3.87-22.37,6.1Z"
            fill="#502e10" />
        <path
            d="M876.89,945.77c-1.34-.55-2.74-1.68-4-1.55-3,.3-4.85-.9-4.41-3.62.41-2.47,1.42-5.91,5-5.19,5.86,1.16,4.71-3.48,6.33-5.91-1.46-1.15-2.35-.57-3.26,0-1.24.72-2.46,1.87-3.77.06a3.35,3.35,0,0,1-.29-4c2.89-5.37,2.45-11,1.34-16.78-.29-1.49-2.75-3.42,0-4.85a3.81,3.81,0,0,1,3,.13c3.07,1.54-.71,3.6.43,5.73,3.74-.67,4.86-4,5-6.6.17-3.65-3.43-2.46-5.74-2.81a42.53,42.53,0,0,1-4.19-1.23c-3.19-.81-5.81-1.16-7.93,2.63-2.46,4.4,1.8,4.62,4.15,7.14-4.43.86-8.23,1.67-11.17,5.54-.87-2.7.76-5-2.2-6.75-2.66-1.55-1.51-4.92,2.08-4.53,2.56.27,3.55-.64,4.37-2.36s-.76-2.67-1.54-3.82c-1.47-2.16-3-.22-4.4.17a10.75,10.75,0,0,0-2.86,1.26c-2.9,1.81-4.49,1.5-3.61-2.25s-.88-6-3.39-8.13c-1.15-1-3.71-.55-3.23-3,.39-2,2.2-2.17,3.94-2.39s4.3-1.68,3.77-2.52c-1.38-2.22-.88-4.87-2-6.69-.9-1.44-3.11-.1-3.91,1.59-1.38,2.91-3.41,3.26-5.91,2.11-1-2.85,3.84-1,2.59-4-2.21-5.23.26-5.28,4.43-4,3.2,1,7.07-.17,9.23,3.83,1,1.94,2.75.89,2.83-1,.16-3.53-1.65-6.68-5.33-6-5.17.91-9,.87-10.68-5-.22-.73-2.17-1-3.31-1.42-3.22.54-6.28.71-7.59-3.19,5.08-2.33,5.22-3.15,2.24-7.45-2.8-4-6.94-6.59-10.58-9.67a4.66,4.66,0,0,0-5.88-.39c-1.86,1.31-1.42,3.29-1,5.15a22,22,0,0,0,2.77,6.25c1.86,3.08,2.12,6.76.28,9.52-2.05,3.05-5.5,1.37-8.65.9-4.28-.64-9-2-12.71,2-.38,1.27.41,2.45.34,3.68-.08,1.53-.81,3.17,1.14,4.13-2.67-.68-1.12-2.6-1.27-4.06-.12-1.19-1.06-1.71-2.19-1.84-3-.34-2.81,2.62-4.18,4-1.46-.22-2.05-1.44-2.86-2.34-2.56-2.86-5.41-2.94-8.43-.9s-2.37,5-1.52,7.88c.71,2.38,4.26,4,2,7.19l-.65,2.39c-4.31,5.89,1.83,6.62,4.54,9,.44.43,1,.9.67,1.55-4.3,9.07-3.3,16.49,3.38,23.28,1.48,1.5,1.51,3.36,2.14,5.09a7.85,7.85,0,0,0,1.86,2.89l1.1,1.41c5-.64,7.69-3.13,7.87-8.44.24-7.39,6.55-11.59,10-17.3-.84-1.81-1.29-4.24-4-3.89-4.29.54-5.82,4.09-7.72,7.35.76-1.87,2-3.68.76-5.71-1.7-.53-2.4-1.42-1.2-3.1,3.23-4.52,4.26-10.33,8.55-14.26,1.61-1.48,1.82-3.63,2.64-7-.35,6.38-5.92,9.92-4,15.38a90.36,90.36,0,0,1,5,11.22,11.66,11.66,0,0,0,4,3.88c1.72,1.14,3.55,2.65,5.75,1.38,2.47-1.42.12-3.33.3-5,.37-3.5,1.06-6.94-.78-10.57,2.17,2.91,5.84,2.17,8.3,3.64a2.61,2.61,0,0,1-1.5,2.28c-1.34.91-3.51,1.24-3.38,3.28.16,2.42,2.43,2.53,4.25,2.93s3.29,1,3.21,3.16-1.59,2.74-3.41,3-3.92.49-4.19,2.93c-.23,2.07,1.3,2.91,2.93,3.55s2.69,1.34,1.66,3.22c-.88,1.61-1.06,3.85-3.08,4.49s-3.14-.93-3.89-2.44a57,57,0,0,0-4.2-7c-.36-.53-1.71-1.29-.48-1.92,4.38-2.23,2.27-3.7-.56-4.88-3.54-1.48-10.14,1-9.41,3.55,1.86,6.56-2.73,12.42-1,18.71a22.53,22.53,0,0,1,3.71.71c3,1.08,7.37,1.17,6.41,5.87-.88,4.33-5.14,4.88-8.72,5.49-1.37.23-3.27-1.94-4.4,0-.93,1.65,1.88,3,1.71,4.31-.53,4.08,5.89,4.92,3.93,10.36-1,2.66,5.38,1,7.93,2.76a1.86,1.86,0,0,0,2.63-1c1-2.43-1.44-3.09-2.54-4.44a5.37,5.37,0,0,0-1.28-1.36c-3.06-1.74-5.5-5.69-4.61-7.64,1.82-4,5.46,0,8.27.33,2.54.33,3.75,3,6-1.79,1.9-4,6.49.48,9.42,2.94-1.27,2.12-6.71.41-4.42,5.09.77,1.58,1.2,3.91,3.84,1.8,2.25-1.8,4.62-.69,5.08,1.34.81,3.53-3.1.89-4.33,2.05.8,2.53,4.5,2.17,4.29,5.72-4.63-2.81-10.1-1.52-15.13-4.91.89,6.28-6,9.65-3.8,15.7,1.3,0,5.25-4.25,2.6,2.93,2.52-1.81,3.84-3.11,3.21-5.09-1.22-3.86-1.86-5.65,3.94-7,6.4-1.53,6.7,3.53,9.87,5.33l.88.42c1.27-.34,2.31-1.35,3.57.59,2.84,4.4,6,8.62,6.79,14l.51.08.47.22c2.76-1.79,6.77-1.89,4.38-7.72-2.16-5.27,2.75-2.19,5-2.09.28-5.22-3.59-6.94-7.93-8.49,1.58-2.38,3-1.79,5-1.45,4.74.83,7.1-2.33,5.27-6.58-.08-.19-.34-.32-.36-.5-.58-4.26,6.15-1.36,5-4.12s-3.34-4.42,1.61-4.07C872.32,948.44,874.56,947.14,876.89,945.77Z"
            fill="#dc9d63" />
        <path
            d="M759.46,820.42c3.91-2.34,7.22-4.91,8.34,2.86.69,4.79,4.51,9,2.63,14.52-1,2.86,2.2,1.25,3.35,1.91,1.45-.59,2.09-1.88,2.92-3.17-1.64,2.58-1.15,4.85,1.08,6.65,2.05,1.66,3.81.48,5.58-.81,3.57-2.6,5.11-.79,4.84,2.73-.38,5.11,2.18,5.54,6.15,4.45,2.55-1.34,2.11-3.4,1-5.28-1.8-3-2.5-6.57-4.57-9.46-1.65-1.77-3.78-2.11-6.18-1.36.29-2.35,1.64-3.51,2.31-5,1-2.11,1.2-4.28-1.2-5.34C781.05,821,781.3,818,782.9,814c2.31-5.84,1.67-7.87-4.65-9.3-2.27-.51-4.31-3.58-3.93-4.46,1.06-2.38,3-5.58,6.64-3.82,2.58,1.25,4.27,1.6,5.28-1.53.48-2.52-.69-4.72-1.41-7-.79-1.45-2-2.38-3.51-1.28s-2.32,1.65-2.87-.77c-1.1-4.92-4.24-3.73-7-1.83a28.84,28.84,0,0,0-7.44,7.46c-2.16,3.11-4.75,4.36-8.53,3.45-6.61-1.58-12.78.74-19,2.41-3.23,1.7-7.74.51-10,4.34,1.15,6.11,5.9,4.34,9.5,3.75,2.91-.48,5.64-1.53,8.56-.34a10.55,10.55,0,0,0,1.86.1c10.45-.61,10.45-.61,9.69,10C755.84,817.74,756,820.12,759.46,820.42Z"
            fill="#b68357" />
        <path
            d="M780.14,880.4c2.58-.74,5.5-1.4,1.76-4.5a9,9,0,0,1-3.19-7.11c-.05-2.62,2.44-2.55,3.95-3.39,2.78-1.55,3.47,1.43,5,2.55s1.15,4.06,3.62,3.79c2.82-.31,1.8-2.69,1.87-4.46a1.6,1.6,0,0,1,2.09-1.66c1.43.31,1.4,1.34.8,2.38-.69,1.21-1,2.69.5,3.08a14.72,14.72,0,0,0,6.16.25c1.24-.22.56-2.46,0-2.26-6.81,2.32-3.27-4-5.11-5.8a3.66,3.66,0,0,0-1.29-1.18c-3.7-.38-5.42-2.61-5.73-6.09a13.33,13.33,0,0,0-4.12-8.06c-3.88-4.08-5.15-4.06-7.47,1.18-1.42,3.21-3.24-.28-4.54.87-5.14,1.77-5.92,6.53-1.51,11.11,2.32,2.41,3.27,3.7,1.49,7.6C772.34,873.14,777.16,876.91,780.14,880.4Z"
            fill="#bc8556" />
        <path
            d="M759.46,820.42c-4.52-3.2-2.72-7.52-1.54-11.26,1.88-5.93-.41-7.25-5.8-6.34-2.45.41-4.94.57-7.42.84-4.83,2.54-10.17,1.73-15.3,2.11-1.93.15-4.09-.2-5.09,1.56-3.58,6.29-9.29,5.31-14.88,4.45-4.35-.67-8.66-1.53-13.09-1.12-2.2.2-4.83-.06-5.16,3.19,12.85-.81,25.58,3.38,38.47,1h0c7.56-1.7,15.5-1.57,22.78-4.6,2.25-2,4.17-3.08,3.51,1.46-.56,3.85-1.36,7.68-2.05,11.51,2,3.66,3.8,7.38,6.92,10.26.09-.42.18-.85.28-1.28,1.61-2.12,1.95-4.83,3-7.2C765.53,821.56,759.75,823.3,759.46,820.42Z"
            fill="#895c36" />
        <path
            d="M774.4,850c1.26,1.06,2.37,2.46,3.82,3.08,1.68.73,3.66.62,2.59-2.19-.6-1.59-1.62-3.38.22-4.45,2.3-1.34,3.1,1.55,4.26,2.49,2.55,2.08,3.65,5.1,3.89,8.67.26,3.78,1.9,7.3,7.13,5.45,2.92-5.39-.16-9.82-2.35-14.4-2.72-.08-6.55,1.18-3.63-4.18,1.14-2.1-1.2-4.33-3.08-5.51-1.47-.92-3.28-.06-4.35,1.39s-1.9,3.71-4.23,2.06c-1.85-1.31-2.5-3.16-.86-5.35.75-1,.8-2.34-.91-3.59-1,2.12-2.09,4.18-3.12,6.25A16,16,0,0,1,774.4,850Z"
            fill="#dc9d63" />
        <path
            d="M777.7,899c-2.49.9-3.89-.58-5.19-2.32-.86-1.14-.47-4.14-2.86-3-2.58,1.21-1.29,3.46-.12,5.29a14.43,14.43,0,0,1,.8,1.63c-1,2.8-4-.77-5.29,1.86-1.11,2.27-5.89.87-5.82,3.62s3.13,2.65,5.5,1.72c2.45,12.22,10,.81,14.57,3.07l.75-.48c2.67-4.09-1.55-7.07-1.76-10.69Z"
            fill="#ab7d54" />
        <path
            d="M792.08,924.63a2.45,2.45,0,0,0-.72-2.69c-3.34-1.69-6.07-3.84-7.63-7.45-.73-1.67-1.72-3.85-4.35-3.73l-.09,0c-.68,2-1.51,4.09-4,4.11s-4.82.91-4.42,3c.46,2.38,3.1,3.31,5.88,2.92,3.5-.5,7.67-1.56,6.14,4.61Z"
            fill="#ab7d54" />
        <path
            d="M784.45,891.34c.06-1.26-.05-3.39-1.15-3.15-6.2,1.37-3.81-2.77-3.81-5.4-7,6.21-7,6.2-1.84,14.35.28.45.05,1.21.05,1.82l.06.08C782,898.19,783.33,894.85,784.45,891.34Z"
            fill="#ab7d54" />
        <path
            d="M780.84,945.81c-.48,1-.32,1.8.67,2.05,2.17.55,2.85-1.2,3.6-2.6a1.41,1.41,0,0,0-.77-2C782.12,942.65,781.88,944.9,780.84,945.81Z"
            fill="#734a25" />
        <path
            d="M805.56,928.5c2.17-3.73.76-8.65,4.15-12a1.4,1.4,0,0,0,0-2.19c-2-1.46-4-3-1.29-5.33,3-2.63,6.23-2.62,9.78,0-2.07,1.52-4.67-1-6.14,2a16.75,16.75,0,0,1,7.23,9.48,6.7,6.7,0,0,0,6.1,4.71c2.23.13,2.87-2.77,3.46-4.61a8.37,8.37,0,0,1,3.55-5c-1-.73-1.49-1.11-2-1.39-1.85-1-5.66.17-5.47-2.84.21-3.19,3.34-1,5.16-1.21,3.42-.4,2.69-3.26,3.17-5.28.62-2.57-1-4-3.31-4.37-1.74-.29-3.74.87-5.19-1.13.64-2.14,2.91-1,4.18-2,1.57-1.24,3.06-2.51,2.46-4.61s-2.54-1.78-4.22-1.57c-2.36.3-4.82,1-4-3a1.4,1.4,0,0,0-2.12-1.4c-2.09,1-3.92,2.94-2.68,4.91,1.83,2.91,3.18,4.81,0,8-2.23,2.24,3.29,2,2.47,5-4.4,1.4-5.95-4.55-9.88-4.32h0c-4.77,2.24-9.78,9-11,14.8-1.35,6.61-1.35,6.61-6.87,11l2.39.56a10.42,10.42,0,0,0,6.52,6.31Z"
            fill="#e8aa6e" />
        <path d="M802.09,932.92l-6.52-6.31C794,932.46,798.41,932.33,802.09,932.92Z"
            fill="#dc9d63" />
        <path
            d="M852,688.88c-.5-7.35-2.88-14.32-4.37-21.46-1.87-8.92-7.22-16.5-8.62-25.45-5.28-1-8.48,1.49-8.47,6.47,0,1.43,1.18,2.88.32,4.24-4.67,7.41.32,11.39,5.48,15.29a6.06,6.06,0,0,1,2.68,4c.42.79-1,.78-.18.46a1.26,1.26,0,0,1-.13-.35c-.41-2.5-1.69-4.07-4.28-2.75s-4.71,4-3.28,6.63c3.7,6.76-1.5,12.9-.71,19.38.21,1.71-1.47,2.94-3.07,3.64-4.62,2-4.27,5.5-2.11,8.73s2,6.16,1.13,9.86-2.65,8.36,2.42,11.12a4.76,4.76,0,0,0,1.88,0c10.41-5.29,19-12.21,22.48-23.92a64,64,0,0,0,1.69-9.59C855.07,692.57,854.61,690.23,852,688.88Z"
            fill="#3f210a" />
        <path
            d="M835.37,636.41c-7.65-.36-7.51.69-16.44,8.07s-11.1,8.75-16.19,15.8-8.87,6.65-11.6,11.48-4.59,4.23-7,8.28,6.66,12,6.66,12l28.08-7.53,18-34.32Z"
            fill="#3f210a" />
        <path
            d="M830.11,728.06c-5.9-3.51-2.41-8.43-1.34-12.43.72-2.66,2.41-3.9-.71-6.58-2-1.72-7.18-6.71,1.11-8.8,3.07-.78,3.78-3.74,3.42-6.64a20.66,20.66,0,0,1,2-11.5c.78-1.67,1.53-3.22-.37-4.33-3.25-1.9-1.95-4-.6-6.23.69-1.11,1.71-2.28,3-1.4,2.58,1.76-.49,4.21.6,6.76,3.77-1.58,4.32-4.17,2.51-7.21a19.09,19.09,0,0,0-4.33-4.47c-3.7-3.16-7.44-6.17-2.76-11.35a3.2,3.2,0,0,0,.35-3.55c-3-6.41,1.55-7.37,6.1-8.36-.69-2-.38-4.72-3.06-5.45-3.24-.88-1.94,3.74-4.47,3.91-3.82-1.29-5.59.23-5.68,4.05,2.85,3,1.6,6.32,1.19,9.71-.45,3.78-2.94,7.85,1.41,11.23.89.68-.29,2.25-1,3.27-1,4-.89,8.07-4.37,11.62-2.78,2.83-.4,5.94,5.42,7.89a62.42,62.42,0,0,0-9.24,22c-1.5-5.13-.26-10.07-2.1-14.58a12.21,12.21,0,0,1-1.45-5.38c0-1.26,0-3-1-3.52a16.06,16.06,0,0,1-7.47-8c-.07-.17-.76.08-1.12.35v.05c-1.91.49-1.61-1.41-2.37-2.16a3.88,3.88,0,0,0-4-1c-1.68.48-2.11,1.82-2.14,3.37a18.4,18.4,0,0,1,.05,2.46c-.58,3.53-1.54,6.33-5.84,3a2.79,2.79,0,0,0-3.49-.16h0c-2.54,2.2-3.76,5.39-6,7.85a3.66,3.66,0,0,0-.16,5.12c1.5,1.65,3.41,1.18,5.22.41s3.2-2,5-2.66a4,4,0,0,1,4.17.45c1.89,1.56-.25,2.38-.8,3.52-2.47,5.14,1.91,4.65,4.67,5.49a10.6,10.6,0,0,0,1.69,0c4.81,1.66.9,5.69,2.29,8.27a13.72,13.72,0,0,0,.26,2.47c1.84,9.28,2.68,9.84,12.35,7.87-.1,2.83-.76,6,3.59,6.46C824,730.21,827.78,733.11,830.11,728.06Z"
            fill="#613516" />
        <path
            d="M852,688.88c3.16,5.63-1,11-.66,16.5.63,4.88-1.23,10.55,4.5,13.8,3,.81,6.45,2.67,6.16-3.18-.11-2,2.1-1,3.2-1.29,7.3-2,9.43-5.4,7.6-12.74a12.19,12.19,0,0,1-.31-4.33c.84-7.36-2.61-13.55-5.52-19.89-.34-1.11-1.27-1.42-2.27-1.65C858.37,678.29,852.8,681.25,852,688.88Z"
            fill="#c49061" />
        <path
            d="M782.13,677c1-2.1.36-4.36,1.41-6.79,1.88-4.31-2.23-3.15-4.74-2.71a35.88,35.88,0,0,0-4.27,2.09c-2.75,1.11-4.47,3.64-7.09,4.92-4.61,2.2-6.29-1.57-8.58-4.11-3.69-3.61-7.61-6.11-12.74-2.48-1.38,1-3.18,2-2.89,3.78.37,2.18,2.61,2.37,4.51,2.65,1,.14,2-.38,3.09-.33-.22,2.56-.49,5.17-3.66,5.65a8,8,0,0,1-7.31-2.53c-4.23-4.1-8.75-8-15.65-5.15a9.48,9.48,0,0,1-7.4.14c-2.17-.94-3.58.33-4.92,1.75l-.09.08c2.34,4.34,3.6,7.41-2.74,10.64-4.17,2.13-6.71,7.93-9.24,12.48-1.48,2.66-5.74,4-4.3,8.18l1.19.16c4.41-1.24,5.64-5.9,9-8.22A17.49,17.49,0,0,0,708,695c8-10.62,18.61-8.61,29.26-5.7,6.33,1.74,12.89,3,18.3,7.11,2.61,1.43,4.83,3.68,8.09,3.72a7.61,7.61,0,0,0,1.78-.22c2.73-.75,3.5-2.54,3.18-5.22-.42-3.45.73-6.16,4.47-7.18,2.91-2.23,7.69-.93,9.65-5C781,680.87,781.46,679,782.13,677Z"
            fill="#7c5c40" />
        <path
            d="M635.86,799.54a4.14,4.14,0,0,0-4.1,1.86c-4.33,3.19-6.11,7.59-6.25,12.78,7.79,2.62,11.73-3.09,15.26-7.85,2.08-2.81,4-3,6.72-3,4.49,0,8.64,1.7,12.94,2.62,5.76,1.23,11.25,1.09,16.67-1.22a6.4,6.4,0,0,0,1.46-1A12.17,12.17,0,0,1,690.07,799c6.12.64,11.89,1.2,15.57-5.15.49-.85,1.87-.76,2.85-1.07,1.82-.56,2.89-2.09,4.27-3.22,4.55-3.1,3.45-7.79,3-12-.37-3.14-3.1-4.36-6.24-3.55a20.57,20.57,0,0,0-9.48,4.8c-9.88,9.7-23.35,12.06-35.51,17-4.3,1.73-8.51-1.43-12.46-3.3-1.22-.57-1.43-2-1-3.3.33-1,.91-2,2-2.14,1.54-.19,2,1.12,2.75,2.15,4.69,6.69,9.06,7.55,15.83,2.77,8.88-6.27,17.61-12.72,25.55-20.24a26.39,26.39,0,0,1,14.94-7.48c6.83-.85,9.64-4.41,8.21-9.19-4.2-3.87-7.82-8.29-11.82-12.35-.4-.13-1.06-.32-1.19-.11-3.84,6.3-10.14,5.94-16.33,6-2.74,0-4.83,1-4.89,4.34s-2.23,6.18-2.87,9.42c.76,4.48-.41,8.08-4.59,10.53-1.44.85-2.21,2.46-3,4-1.73,3.44-4.68,4.61-8.4,4-4.12-.72-3.72-3.81-3.53-6.79a2.55,2.55,0,0,0-.74-1.68c-3.11-2-5,.34-7.26,1.88-7.12,5-10.18,13-15.23,19.51C639,795.74,638.24,798.26,635.86,799.54Z"
            fill="#d8aa7f" />
        <path
            d="M625.43,814.22l6.33-12.82c-7.51-3.72-12.3,2.16-17.76,5.19-2.07,1.16-3.64,2.56-6.21,1.77-1.69-.53-3.3-1.07-3.48-3.06s1.1-3,3-3.28c1.66-.22,3.57-.13,3.7-2.45s-3-.91-3.58-2.8c1.65-2,5.26-2,5.6-5.31-4.71-.23-9.21,1.33-13.86,1.71a4.13,4.13,0,0,0-3.85,4.11c-2.72,5.87,1.59,8.34,5.45,11,.7.8,2,.77,2.59,1.62,5.53,8.35,13.1,7.89,21.29,4.89Z"
            fill="#e5c3a2" />
        <path
            d="M635.86,799.54c3.56.7,4.58-2,6-4.29,4.51-7.09,8.07-14.89,15.27-20,1.81-1.28,3.19-3.44,5.93-2.31,1.23,1.33,2.43.83,3.64,0a4.85,4.85,0,0,0,1.74-3.21c.21-3.42,1.63-7.58-2.52-9.4-4-1.75-6.06,1.83-7.93,4.49-3.69,5.24-8.82,4.83-14.07,3.78-2.88-.58-5.73-1.84-7.48,1.8l.11.22c3.72,2.64,10.46,3.89,4.9,10.76-.94,1.15.4,2.32,1,3.36.82,1.39,1.33,3.43-.49,3.6C633.88,789,637.38,795.55,635.86,799.54Z"
            fill="#dcb692" />
        <path
            d="M595.33,797.28a8.78,8.78,0,0,1,7.77-3c3.74.38,6.93-.89,9.94-2.85l-.11-.09c.44-.4,1-.73,1-1.41.21-2,1.81-4.28.36-5.79-1.69-1.76-4.09-.57-6.09.42-1.28,1.06-2.68.28-4,.26-4.17,3.62-7.35,2.65-9.51-2.46-3.12,3.43-3.07,7.42-3.75,11.18a18.07,18.07,0,0,1,.79,2.2c.28,1.23-.76,3.05,1,3.5C593.41,799.43,594.46,798,595.33,797.28Z"
            fill="#5b4223" />
        <path
            d="M608.23,784.59c7.66-1.86,5.4,3,4.7,6.78,3.1-1.5,3.33-5.2,2.62-7C613.6,779.55,610.71,783.19,608.23,784.59Z"
            fill="#c4a984" />
        <path
            d="M636.44,770.37c4.07-2,8.16-.79,12.3-.21,4.31.6,8.51,1.05,10.57-4.56.75-2.05,2.53-5.46,6-4.46s1.18,4.27,1.72,6.46a4.71,4.71,0,0,1-1.22,4.57c5.64,4.42,8.35-.8,11.28-3.75,2.22-2.22,3.89-4.87,7.28-5.48,1.16-3.59,4.13-6.67,3.36-10.8-.37-2,.95-1.94,2.15-2.06a14.61,14.61,0,0,1,4.36-.18c6.53,1.41,11-1.41,14.48-6.52,1.25-8,5.3-2.17,8.28-1.63a4.29,4.29,0,0,0,1.78-.12c3.06-1.85,8.16-1.49,7.89-7-4.81-1.93-10.36-1.13-14.75-5.2-2.34-2.16-5.46-.19-6.14,3.45-1.42,3-2.94,3.81-5.43.75-4.72-5.8-11.11-4.61-13.58,2.75-1.17,3.48-2.42,1.88-3.89.79-3-2.22-5.17-3-7.19,1.41-1,2.16-3.66,3.91-6,5.06-4.26,2.13-5.25,3.94,1.09,6.47-6.74,1.09-11.35,2.09-10.92,9.49.24,4.09-12.3,9.44-16.44,7.65-3.15-1.36-6.5-1.57-9.76-2.25C634.81,766.66,633.29,769.7,636.44,770.37Z"
            fill="#c99d75" />
        <path
            d="M704.84,696.74c-4,1.74-5.44,5.79-8.13,8.7l-1.6,3.76c2.66,1,4.27-1.27,6.37-1.54l.9,0c4.71-3.84,8.87-2,12.89,1.23,1.14.91,2,2.19,3.28,2.89,1.76.92,5,1.46,5.21.31,1-5.08,6.6-4.1,8.49-6.77,2.59-3.66,4.23-2.27,6.92-.92s6.31,4.26,8.46,1.08-.12-6.76-2.72-9.85c-5.58-6.61-11.82-9.36-20.1-5.19-.93.47-2.21,1-3,.58C714.06,687.12,709.89,693.16,704.84,696.74Z"
            fill="#ba9777" />
        <path
            d="M705.74,732.86c2.75-3.42,5.12-4.22,8.26,0,3.33,4.46,8.67,1.31,13,2.28,3.06,1,5.52-.62,7.13-2.63,3.54-4.42,8.23-6.67,13.42-8.32,3.34-2.71,2.41-4.9-1.35-5.25a37.38,37.38,0,0,1-17.46-5.82c-3.65-2.34-8.87-1.1-13.32-2a1.56,1.56,0,0,0-.87,1.61c2,2.63,6,1.93,8,4.59,1.86,1.47,4.44,1.47,6.25,3q3.45,5.08-1.65,8.55c-6.29,2.59-11.17.54-15.14-4.5-2.52-1.22-4.5-4-7.92-2.76a1,1,0,0,0-.53.91c0,.36.09.54.19.56,1.09.54,2.88,1.23,2.3,2.4-1.69,3.37-4.87-.16-7.47,1.46C700.11,729.85,700.48,734,705.74,732.86Z"
            fill="#784a23" />
        <path
            d="M703.73,723.14a8.45,8.45,0,0,1,.19-1.12c-.49-4.39,1.16-6.75,6-6.78,1.82,0,4.31.24,5-2.51l-.35-.17c-4.09-6.42-5.9-7.1-13-4.92l0,0c-1.09,1.13,2.71,5.7-3,3.82-2.35-.77-1.68,2.62-2.46,4.07-1.59,2.42-1.5,4.34,1.64,5.34A9.4,9.4,0,0,0,703.73,723.14Z"
            fill="#84603d" />
        <path
            d="M697.62,720.89a7.52,7.52,0,0,1-1.63-5.34c-1.76-1.93-3.92-2-6.25-1.33-.58.17-1.69.41-1.68.47a93.45,93.45,0,0,0,2,9.68c.51,1.77,2.44,2.22,4.12,2.12C698,726.28,696.72,722.91,697.62,720.89Z"
            fill="#c69870" />
        <path
            d="M867,677.75c.83,3.65.08,7.49,3.17,10.85,1.93,2.12,1.44,5.86.73,9-.37,1.58-.83,3.17-.22,4.87,2.61,7.14-2,12.23-9.77,10.76-1.1-.21-2.18-1.65-3.09.14-.42.83,0,1.52.76,2.09,1,.74,3.62.48,2.46,2.62s-2.89-.25-4.39-.2c-1,3.89,3.23,7.08.79,11.63-2,3.75-4.44,4.54-6.56,2.15-6.17-6.91-13.52-4-20.67-3.45l-.11-.13c-3.75,3.61-7.58.46-11.18-.22-2.37-.45.3-2.24.38-3.48.11-2.08.83-4.64-2.71-3.67-9.17,2.51-9.15,2.6-10.55-6.69a7.43,7.43,0,0,1,.18-1.86c-1.63-1.29-2.88-2.57-1.93-5,.53-1.34.88-3.28-1.63-3.58-.41,0-.81,0-1.21.07-5,.38-10-.06-14.92,1.25-4.76,1.26-8.54-.65-11.16-4.78-3.35-1.91-6.88-1.65-10.45-.85h0a1.05,1.05,0,0,0-.14,1.51c1.05,1.5,3.08,1.71,4.56,3-4.24,1.46-4.22-1.76-5.11-3.9a34.88,34.88,0,0,0-5.16-1.12c-1.88.74-1.67,2.19-1.07,3.57.79,1.82,1.06,3.55-.08,5.29-1.63,2.52-1,4.44,1.22,6.38,2,1.74,4.85,2.38,6.31,4.77a7,7,0,0,0,1.65,2.84c2.58,1.27,5.83-2.85,8.09,1a4,4,0,0,0,2,1.52c4,.48,4.88-2,5.49-5.19.89-4.55,5-7.15,9.65-6.59,1.94.24,2.52,1.2,2.24,2.92-.2,1.23-.72,2.38-1,3.61-1.43,7.56-.74,8.4,7.22,8.59,1.27,0,2.67-.13,3.68.58,4.76,3.35,10,4.69,17,2.72-2.87,2.84-5.85,1.67-7.16,4,.14,2.72,3.57,1.62,4.33,3.64l.4.57c3.79-.08,6-3.19,9.08-4.61,2-.93,4.43-3.12,5.82.83,1.29,8.28,10.61,13.77,18.47,10.77a8.51,8.51,0,0,1,5.4-.68c5.07,1.25,8-1.08,9.19-5.84a7.79,7.79,0,0,1,1.67-3.32c5.24-5.92,5.25-5.92,4-12.41a21.4,21.4,0,0,0,19-.84c2.85-1.52,5.21-2.62,8-.12,2.54,2.3,3,4.47,1.09,7.66-2,3.4.11,5.92,3.71,5.86,5.18-.09,6.26,4.93,9.45,8.09,3.48,3.45,7,5.86,11,8.87,1.65,1.24,4.11.39,6.06,1.48-4.55,4.19-4.58,9.2,1.45,12.19,5.21,2.58,9,6.37,13.19,9.84l7.44,1.41,1.76-2.2c-3.27-.48-5-2.14-4.08-5.56,1.23-4.56-1.3-6-5.22-6.41-1.35,1.65-2.69,1.46-4.15.09-1.78-1.68-.14-2.37.89-3.26a21.46,21.46,0,0,0-6-8.76c-3-2.88-8.14-3.56-8-9.8.07-2.89-3.94-5.57-7.91-6-3.66-.38-7.1-1.1-8.06-5.52-.18-.8-1.43-2-2.12-1.94-3.65.23-3.1-1.1-2.69-4,.63-4.62-1.13-7.78-6.64-9.82-3.72-1.38-5.84-6.87-8.76-10.45-1.93-2.38-3.95-3.72-5,.6-.53,2.06-1.54,2.82-3.6,2.07-1.62-.58-3.9,0-4.2-2.74-.47-4.2-1.81-8-5.1-11a2.63,2.63,0,0,1-.41-2.92C876.06,683.89,870.48,681.37,867,677.75Z"
            fill="#b68053" />
        <path
            d="M677.68,803.68c-9,2.52-17.66,1.5-26.3-1.83-3-1.16-6.54.83-9.79-.63-1.33-.6-2.18.43-1.55,1.54,1.63,2.85-1.06,3.28-2.2,4.81-3.14,4.21-7.68,5.52-12.41,6.65h0c-6.83,2.42-13.83,1.82-20.84,1.16l-.27,1.26c12,8.29,24.11,5.81,35.95-.3a62,62,0,0,1,7.57-2.91c-.11-2.72-3.19-2.49-4-4.31a2.17,2.17,0,0,1,2.82-1.75c3.41,1.09,6.45,5.54,10.35.4.39-.53,3.29,1.49,1.55,3.27-2,2.05-3.07,4.81-7,5.45-5.5.91-10.72,3.54-15.8,6.15,5.73,1.92,10.28-2.33,15.56-2.21l9.34-2.21a8.16,8.16,0,0,1,5.83-1.79c5.87.74,9.12-1.66,9.76-7.51C676.45,807.11,678.19,805.7,677.68,803.68Z"
            fill="#be8c5d" />
        <path
            d="M711.89,673.9c3.49-2.28,6.75,2.57,10.72.2,1.12-.67,3.64-1.17,5.52-1.73,1.56-.47,3.66-1.37,4,1.16.4,3.21,1.71,3.14,4.11,2,1.13-.55,1.59.35,2.08,1.49,1.57,3.67,7.48,5.86,11,4.29,2.53-1.13,2.89-2.23,3-9.41-2.72,1.45-5.4,1.79-8,0,4.62-7.47,9.59-3.4,14.52-.54,2.39-.07,3.11-2.32,4.58-3.49,2.3,2.24-.83,7.7,4.89,7.85,3.08-.78,4.08-4.55,7.37-5,.7-8.78-4.44-12.65-13.4-10.1l-1.53,1c-5.95-.32-11.87-.82-17.4-3.3-.42-.08-2.63-1.68-3-1.75-3.3,1.31-3.17,2.09-3.58-1.76a10.52,10.52,0,0,0-4.11-7.45c-3.55-3.46-9.28-6.38-11.81-2.1-4.39,7.43-12,12.15-15.51,20-.74,1.64.35,2,1.28,2.85C708.42,669.82,710.1,671.92,711.89,673.9Z"
            fill="#a57752" />
        <path
            d="M732.51,647.27c1,3.37,2.94,6.11,3,10.22.06,4.79,3.7,1.13,6.16-.69-3.64-1.64-4.93-3.65-5.33-6.82a2.84,2.84,0,0,0-2.26-2.4Z"
            fill="#8a6748" />
        <path
            d="M677.68,803.68c-1.08,1.7-3.59,2.55-3.42,5,.5,6.68-3.72,7.3-8.78,6.77-2.42-.25-4.08.42-4.82,2.82,4.32-.51,8.66-1.29,12.7,1.17,6.15-1.19,11.43-5.12,17.82-5.54,4.38-3,9.16-1.51,13.83-1.15s9.08,2.5,14.21.77c2.9-1,5.48-.54,5.5-4.63,0-1.53,2.06-2.36,3.49-1.8,3.8,1.5,7.53-1.7,11.55.36,2,1,4.18-1.27,4.94-3.74-4.27-3.08-8.15,1.08-12.37.76-2.52-.19-4.5,0-5.28-2.81-2.71-2.44-5.89.32-8.71-.81a10.81,10.81,0,0,0-1.87-.27c-2.16,0-5.26-1.55-6.05,1.31s2.63,3.19,4.43,4.35c.08.5-.25.84-.73.58-7.47-4-14.8-4.57-22.6-.44-3.21,1.7-6.43-.78-9.18-2.78a4.87,4.87,0,0,0-4.67.13Z"
            fill="#9f6e43" />
        <path
            d="M963.61,777.51c7.9,2.7,16.22.51,24.22,2-3.38-3.61-7.88-5.89-12.52-8.73-5.37-1.53-8.21-3-13.34-3.38-4.08-.32-6,2-6.58,4.69-.86,3.77,3.12,2.76,5.15,3.54C961.72,776.09,963,776.22,963.61,777.51Z"
            fill="#956e4f" />
        <path
            d="M942.36,760.79c-1.67,0-4.46-1.26-4.32,1.35.12,2.17,2.64,4.11,4.88,4.88s3.35-.68,2.7-3.06A3.85,3.85,0,0,1,942.36,760.79Z"
            fill="#ca8c59" />
        <path
            d="M604.59,815.38c7.06,1.62,14.12,3.31,20.84-1.16-9.42,2.92-17.15-1-24.65-5.9C602.58,810.4,604.25,812.54,604.59,815.38Z"
            fill="#d8aa7f" />
        <path
            d="M850.46,983c1.73-4.27.24-7.73-2.73-10.88a31.07,31.07,0,0,1-3-3.82c-.82-1.23,1-3.88-1.57-4-2.31-.09-2.41,2.43-3,4.13,2.26,8,5.52,15.83,4.77,24.41Z"
            fill="#c68752" />
        <path
            d="M794,848.64c-1,5.08,3.35,9.32,2.35,14.4l.62.13.62.11c3.5-3.42,8.27-1.94,11.44-1,4.27,1.29,9,1.82,11-.81a10.63,10.63,0,0,0,.08-11.58,19.56,19.56,0,0,1-3-6c-.42-1.54-1.89-3.21.29-4.31a4.24,4.24,0,0,1,4.7.94c3.49,3.2,6.88,6.52,10.24,9.86.86.86,2,2,1.24,3.25-.89,1.46-2.18.48-3.27-.06s-2.11-.48-2.46.83c-.2.74-.3,2.06.08,2.31a12.41,12.41,0,0,1,4.52,5.75c.48,1,2.15,1.18,2.19-.24.09-2.72,2.87-1.25,3.61-2.69-3.31-1.23-1.9-3-.57-4.79,2.08-2.75,4.71-4.88,1.36-9-1.56-1.93,2.19-6,.19-9.2-.06-.1.46-.66.8-.87.9-.58,2.15.05,1.92.62-2.14,5.32,8.86,2.55,5.13,7.74-2.16,3-.39,4.57,1,5.45,2.12,1.39,2.52-1.12,3.14-2.58.72-1.71,1.36-3.47,2.19-5.13a9.6,9.6,0,0,1,1.78-2.28c5,3.19,8.61-1.55,12.91-2,.58-.07,1.61.07,1.76.41,2.51,5.74,8.23,5.23,12.93,6,.13,1.66-.47,2-1.43,2.07-1.62.07-4-.4-3.94,1.87s2.74,2.19,4,1.77c3.27-1.12,5.77,3.05,9.54.6-3.26-2.67-2.12-8-8.81-9.82,5.64-1.7,9.41,3.64,12.83-.46,1.87,2.74-1.54,4.06-.85,6.28,2.12.21,3.11-.71,3.08-2.72-.06-5.1,2.8-6.52,7.4-5.75,2.28.38,4.74,1.23,5.32-2.29s-2.25-3.35-4.38-3.88a6.81,6.81,0,0,0-2.48-.42C892,832.62,885.59,824.83,878.6,819c-3.94-3.3-6-1.39-8.48.64s-.8,3.6,1.09,4.91c1.33.92,3.76,1.27,3.42,3.19-.43,2.42-3.14,1.29-4.79,1.85a10.62,10.62,0,0,1-3,.13c-1.36,2.29,2.39,3,1,5.47-2.58-.78-5.7-1-7.85-2.56-2.43-1.75-5.26-2.53-7.59-4.12-3.65-2.5-6.22-3.76-7.44,2-.49,2.28-2.4,2-4.07,1.3-1.43-.57-2.94-1.42-3.19,1-.22,2.26-1.59,2.17-3.11,1.68a3.11,3.11,0,0,1-2.28-3.91,13.49,13.49,0,0,1,3.4-5.84c3.87-4.45,3.25-7.08-2.76-10,1.16,2.43,2,4.74-1.11,5.53a3.34,3.34,0,0,1-4.21-2.77c-.48-2.85-2.34-4-4.32-5.63s-3.94-3.52-1.05-6.66c4.7-5.1,3.7-7.22-3.39-8.58-.38-2.44,2.92-2.91,2.85-5.16-3.58-1.35-6.66-.41-9.4,2a5.9,5.9,0,0,0,.78,1.68c1.64,1.76,5.43,2.35,4.81,5.16-.73,3.34-3.85.44-5.85,1-3.06.8-3.85,3.05-2.62,9.52-4-3.49-9.86-3.64-11.08-9.55,1.82-2.3,3.78,2.1,5.58-.4.45-1.75-1.19-2.81-1.9-4.24-2.18-4.33-.65-7.89,4.15-9.41.8-.25,2-.3,1.83-1.21-.73-3.8-5.49-5.24-5.87-9.4,0-.21-1.5,0-2,.9-.74,1.34-.66,3.86-2.93,3.29a4.6,4.6,0,0,1-3.08-4.37c0-3.26-.37-3.92-3.65-2.3-2.08,1-.76-3.63-3.43-3.21-4.65,5.68-4.91,8.57-1.25,14.07,3.69.66,3.43-2.74,4.89-4.84,1.5,5.71-1.22,11.83,2.58,16.89,1.8,1.9.5,2.9-1.15,3.74-2.64,1.35-3.87,3.65-4.79,6.3-1.28,3.71,1.25,12.54,4.37,14.75a2.86,2.86,0,0,0,3.52.25c2.25-1.72,1.71-4,1-6.23a11.37,11.37,0,0,1,.5,7.38c-1,4.09,1.18,6.46,5,7.15,2.47.45,4.5,1,5.1,3.71-.87,1.18-1.94.39-2.88.3-2.41-.25-4.2.51-4.84,2.93s1.27,3.28,2.88,4.26c3.31,2,7.9,2.12,9.78,6.55-1.53-1.32-3-3.81-5-1.66s-4.71,5-4,8.12c.89,3.82,5.12-.23,6.67,2.09-.62.07-1.66-.67-2.74-.41-4.68,1.11-5.54-.73-4.48-5,2.23-8.89-3.65-14.14-10-17.07-1-.45-2.06-.72-2.17.95,1.12,3.65,1.9,7.43,4.44,10.51C795.4,846.76,795.45,847.89,794,848.64Z"
            fill="#e4a569" />
        <path
            d="M865.51,738.64C864.73,744,862.15,746,857,743c-.75-.44-1.43-.93-2.26-.3-3.59,2.74-6.71,4.71-11.61,1.32-3.67-2.54-7.18-4.73-9.09-8.83a2.37,2.37,0,0,1-.38.49c-3.39,2.56-.5,9.3-3.26,9.37-4.36.12-6.33,3.39-10.64,4.29,5.81.5,7.43,2,3.1,6.1-1.68,1.59-.62,3.56,1.41,4.51,1.73.81,4.5,2.08,2.17,3.58-2,1.32.41,7.87-5.27,4.48-1.34-.8-2.52.26-3.2,1.25-.81,1.17-.26,3,.72,3.24,2.87.56,4.63,5.23,7.33,3.31s6.57-4.56,4.4-9.75c-1.22-2.9-.38-5.87,4.34-4.32a73.83,73.83,0,0,0,10.94,2.73c2.24.36,3.79,1,3.56,3.33s-2.54,1.68-4,1.88-3.48-1.83-4.3.58a5.27,5.27,0,0,0,1.28,5.14c2.51,3,3.15,5.84-.73,9s.69,3.77,2.42,4.81c1.34.81,3.77.37,3.89,2.48s-2.28,1.24-3.32,2c-2.16,1.58-2.65,3.57-.52,5.63a1.82,1.82,0,0,0,1.14.5c3.15-.1-.21,7.2,4.41,4.27,3.46-2.19,3-6.53,1.49-10.28a13.52,13.52,0,0,1-.42-2.11c3.76-.12,3.63,4.16,6,4.74,4.35,1.06,2.47,3.45,1.91,6s1.68,3.79,3.7,4.23c3.59.79,6.07-1.25,7.56-4.22.82-1.63.63-2.65-1.71-4.06-4.94-3-9.56-7-7.95-14.23.76-.59,1.54.6,2.48.69,2.62.26,5.66-.25,6.42-2.73.64-2.11-1.53-4.08-3.7-5.18-1.35-.68-3.88-.54-3-3,.6-1.63,2.54-.74,4-.84,2.86-.21,5.52.17,7.69,2.16,1.72-2.56-1.52-3.6-.81-5.5,1.49-2.89,4.75,4.72,5.88-1,.82-4.15-1.91-4.71-4.87-5.72-5.18-1.77-6.11-7.31-10-10.94,3.48-1,7.47,2.7,9.3-2,.34-.89,1.45-1.67.75-2.81-2.68-4.38-2.69-4.37,1.2-6.72C872.53,737.71,869.81,734,865.51,738.64Z"
            fill="#dda067" />
        <path
            d="M777.06,723.19l-1-1.51c-3.5,1.4-6.3,4.07-10.1,5.08-1.23.32-1.84,2.94-1.29,4.49,1.85,5.18-1.46,6.47-5.37,7.44-4.43,1.49-9.25-.71-13.61,1.41-2.56,1.24-.64-.8-.63-1,.1-2.5-1.37-4.91-3.47-3.7-4.55,2.62-10.5,2.91-13.72,7.75.14.66,1.62,1.32.57,1.89-3.48,1.9-8.59,0-11.44-4a13.27,13.27,0,0,0-2.42-1.79c-1.75-.77-2.9-3.45-5.42-1.92-2.94,1.78-.48,4-.43,6.09,1.9,5.42,6.48,8.6,10.49,12.24l.87-.11c10.8.17,21.2-1.33,30.61-7.07a11,11,0,0,1,10.78-.81,1.08,1.08,0,0,1,.54,1.56,13.89,13.89,0,0,1-9.33,5.74c-2.21.4-4.74,0-5.84,2.7,3.42,3.7-2.94,4-2.39,6.72a11.08,11.08,0,0,0,3.84,3.55c9.19-1.26,18.33.31,27.5.43,4.55.06,7.39-2.52,10.33-5.22,1.88-2,5.13-2.42,6.7-4.26,7.34-8.61,17.72-13.12,26.38-19.91l-.1-.32c-4.31-3.16-8.56-.79-12.55.53-6.23,2.07-12.76,2.2-19.49,4.38,4.45-8.6,4.44-8.55,13.06-6.18,1.89.52,4.1,1.61,5.66-.81-.47-3.88-3-5.47-6.61-6.26-6.66-1.45-13.65-1.66-19.81-5.11A5.81,5.81,0,0,1,777.06,723.19Z"
            fill="#b7865a" />
        <path
            d="M892.82,763.72c-2.55,2.41-2,5.38-2.84,7.87a4.55,4.55,0,0,1-3.44,3.35c-3.08.45-.94-1.8-1.27-2.82-.16-.49-1-1.24-1.14-1.17a4,4,0,0,0-1.79,1.56c-.77,1.81.74,3.06,1.37,4.56,1,2.48,1.94,4.79-.83,7.21-3.72,3.25-1.92,5.37,2.16,6.42a22.89,22.89,0,0,1,3.64,1c1.19.52,2.14,1.5,1.53,3-.49,1.16-1.51.83-2.6.88-4.44.19-8.34,1.57-9.8,6.31a4.15,4.15,0,0,0,1.89,4.92c2.53,1.47,2.48-1.43,3.33-2.49,2.1-2.62,7.88-3.09,9.41,0,1.33,2.73,6.69,5.23,1.68,9.72-1.35,1.21,1.44,5.23,3.19,5.14,8.58-.45,16.85,2.5,25.39,1.84,2.35-.19,5.61-.58,5.14-3.17s-3.65-2-5.84-1.09c-1.64.67-3.21,1.16-4.74,0-.87-.66-.49-1.57.17-2.11,1.61-1.3,3.15-3,5.51-2.53,1.95.39,3.45,2.59,6.65,1.09-5.67-2.27-3.38-7.95-6.14-11.67,2-1.4,4.09.34,6.39-.28-.85-3.75-4.48-5.17-6.79-9.24-.46,3.2.87,7.6-3.85,4.31-2.42-1.68-3.56.2-4.37,2.52-.49,1.39-1.45,3.31-3.71,2.32-1.09-.48-2.58-.75-2.84-2.19-.32-1.72,1.34-2.39,2.16-3.54,2.45-3.46,7.16-1.73,10.07-4-.74-2.92-4.81-1.28-5-4.3-.13-1.75-.63-3.42-2.75-3.6-3.06-.26-.13,3.62-2.73,3.86-2.8-1.47-1.47-3.88-1.22-6,.26-2.32-.49-4.37-2.6-5.17-1.87-.72-3.6.24-4.66,2.18-1.48,2.72-5.87,1.9-6.9,5.57-.27,1-2-.16-2.19-1.13-.44-2-.68-4.16,1.83-5.29,7.83-3.51,7.92-4,.69-9.2C893.2,767,894.58,765,892.82,763.72Z"
            fill="#f6bc81" />
        <path
            d="M865.51,738.64c4-3.3,6.47,2,9.92,1.84A9.62,9.62,0,0,1,876,738c1.39-2.76-.91-7.23,4.64-8.13,6.12-1,9.27,2,11,6.9,2.51,7.26,8.61,12.59,10.57,20.07,4.7-1.84,5.53,8.74,12.28,3.19,3.42-2.82,9.73,2.75,9.85,7.88.18,7.45.17,7.42,7.56,5.39,2.68-.74,3.55,1.85,5.07,3.07,3,2.39,5.72,4.61,8.84.31-2.32-5-4.74-9.74-11.38-9.93a2.53,2.53,0,0,1-2.5-2.43c.25-3.09,0-4.47-3.28-5.16A19.54,19.54,0,0,0,932.7,757a3.62,3.62,0,0,0,1.51-2.5,2.07,2.07,0,0,0-2.65-2c-8.67,1.73-9.24-4.7-10.62-10.21-1.5-1.27-7.68,7.56-5.42-2.58.32-1.47-4.81-7.08-10.15-4.83-1.74.73-2.74.2-3.73-1.14-1.26-1.69-.28-2.58,1-3.52,4.75-3.4.54-5.67-1.23-8-2.18-2.88-5.63-5.17-8.48-2-4.38,4.81-10,2.58-14.9,3.77-3,.72-4.55-1.8-4.25-5.36-3,1.61-2.67,3.72-2.37,5.68.63,4,2,8.06-3.57,10.13C866.72,734.81,866.28,737.17,865.51,738.64Z"
            fill="#ca8c59" />
        <path
            d="M786.08,763.11c-6.84,5-14.87,3.59-22.32,3.1-5.5-.37-10.69-.85-15.89,1.12-1-.61-1.64-.09-2.27.58-1.42,4.16-3.58,7.56-8.55,8.06a6.17,6.17,0,0,0-3.45,2.77,1.92,1.92,0,0,0,.39,1.66c3.34,1.42,6.59-.18,9.82-.5,5.68-.58,10.35.23,13.33,5.62.8,1.43,2.31,2.35,4.27,4.31-9.2-.57-17,4.28-25.68,2.4-1.66-.36-2.72.76-2.82,2.53a4.4,4.4,0,0,0,3.8,3.56c7.35-1,14.52-4.08,22.19-1.11,2.52,1,4.25-1.8,5.35-3.57,1.93-3.09,4.82-5.19,7.07-7.89,1.31-1.58,3.09-2.66,4.93-2,2.29.79.12,2.42.09,3.68-.05,1.66,1.28,1.92,2.35,2.52,1.84,1,2-.4,2.54-1.54.69-1.59,1.59-1.8,2.59-.22,1.18,1.21,2.66,1.65,3.86.42s.64-2.67-.71-3.7c-4-4.69-1.43-9.32.15-14-2.27.45-4.16,2.59-7.22,1.61C781.15,768.68,785.12,766.8,786.08,763.11Z"
            fill="#cc986b" />
        <path
            d="M947.79,798.2c1.83-.05,1.78-1.7,2.53-2.59,1.21-1.42,1.65-3.18.14-4.47s-3.34-2.95-5.54-2.47c-12.84,2.77-17.07-8.57-24.59-14.51-.44-.35-.47-1.16-.83-1.66-1-1.32-1.92-3.27-3.88-2-1.57,1-.57,3.09.22,3.89,4,4.08,8.24,8.06,12.64,11.77,4.21,3.56,8.75,6.57,14.67,6.84C946.15,793.11,945.28,797.36,947.79,798.2Z"
            fill="#c78e5d" />
        <path
            d="M812.36,793.51l9.4-2c1.46-4.11,2.24-8.17-1.06-12.24.47,4.88-.75,8-6.14,8.9C812.27,788.5,813,791.64,812.36,793.51Z"
            fill="#dda067" />
        <path
            d="M846.65,856l-4.56,1.87c4,.32,6.55,4.1,9.56,1.15,1.92-1.88-.48-3.1-2.3-3.79C848.09,854.32,847.38,855.19,846.65,856Z"
            fill="#dc9d63" />
        <path
            d="M860.21,889.34c-3.17,1-6,.25-7.51,3-.49.94.27,2.56,1.23,2.33A7.77,7.77,0,0,0,860.21,889.34Z"
            fill="#dc9d63" />
        <path
            d="M866.47,824.4c-3.28-.84-4.83.28-5.89,2.2-.14.25.42,1.27.77,1.34C864,828.47,864.63,826.11,866.47,824.4Z"
            fill="#e4a569" />
        <path
            d="M846.65,856l2.7-.77c-1-2.14-1.63-4.76-5.06-4.18C843.92,853.46,846.67,854.08,846.65,856Z"
            fill="#e4a569" />
        <path
            d="M789.51,657.84c-.13,2-.83,4.26-.24,6.08.5,1.55.36,4.8,3.51,4.06,2.1-.5,3.73-2.1,3-4.66-.57-2.08.47-3.47,1.52-5.09.79-1.23,4.07.23,2.91-2.67-.66-1.66-2.23-2.3-4-2.63-2.1-.39-3.06.5-3.66,2.38-.21.65-1.09,1.1-1.66,1.64Z"
            fill="#c79064" />
        <path
            d="M806.2,679.05c.54.28,1.58.69,1.55.82-1.18,4.34-2.34,8.36,5,6.19,1.06-.31,1.48,2.27,1.45,3.66-.05,2.3-.08,4.53,1.53,6.42,3.48-4.48,6.65-8.9,4.42-15.18-1-2.91-.44-6.21.62-9.19,1.77-5,3.4-5.47,7.94-2.44,2-1.12,2.66-4,1.67-4.74-6.07-4.73-1.52-9.91-.44-14.38s-1.82-4.52-4.12-5.73c-4,2.42-7.65,5.27-9.54,9.75-.16.38-.49,1.06-.61,1-10.56-2.44-3.73,9.3-9.31,11.29-1.45.52-.33,3.35.51,5.08C808.14,674.19,808.48,676.76,806.2,679.05Z"
            fill="#8f5b36" />
        <path
            d="M776.06,701.33c-.39,8.74,7.17,5.63,10.26,5.19,5-.73,10.33-.83,15.14-2.89-1.78-.82-4.93.15-5.23-2.31s3.35-2.51,4.74-4.11c-4.23-5.2-8.46-5.46-13.18-1.14-1.27,1.17-3.3,2.74-4.86.64-1.35-1.81-.1-3.69,1.63-4.68,3-1.71,3.35-4.55,3.83-7.41-2-1-1.51-4.23-4.23-4.58-1,.32-2.16.59-1.79,2.1-2.65,2.89-7.4,1.3-9.89,4.54-1.58,1.31-1.93,3.32-.2,4.08,4.28,1.85,4.93,4.22,2.5,8C774.19,699.66,775.39,700.57,776.06,701.33Z"
            fill="#88522a" />
        <path
            d="M782.37,682.14l1.79-2.1c-.68-1-1.35-2-2-3-.85,1.47-3.74.07-3.74,2.26S780.58,681.79,782.37,682.14Z"
            fill="#926846" />
        <path
            d="M752.44,810.21c-7.63,1.36-15.51,1.5-22.78,4.6C737.6,814.94,745.47,814.74,752.44,810.21Z"
            fill="#5c3413" />
        <path
            d="M784.45,891.34l-6.69,7.7c-2.5,4.31,3.7,7.46,1.62,11.72,1.81,2.87,4.27,5.23,5.07,8.86s4.74,1,6.91,2.32c.54-4.06-.44-6.49-5.07-8.08-3.18-1.09-3.49-16.09-.66-19.23C787.9,892.11,786.85,891.73,784.45,891.34Z"
            fill="#ca8e5a" />
        <path
            d="M806.63,889.12c1-3.51,1.18-7.13,4-10.19,2.35-2.48,1.63-5.74-1.83-8.13-.71,11.54-12.58,18-13,29.53,2.68,1.06,2.28-2.16,3.9-2.31C806.59,898.47,805.47,892.93,806.63,889.12Z"
            fill="#bf8651" />
        <path
            d="M806.63,889.12c-1.35,0-2.77.25-2.26,2,1.17,4.14-1.64,5.51-4.6,6.86-.51,1.66,0,3.86-2.36,4.56-.94.27-2.44.35-1.69,1.74a6,6,0,0,0,2.84,2.16c1.09.47,2-.23,2.38-1.32a21.71,21.71,0,0,1,1.58-3.95c2.36-3.64,5.08-5.53,8.49-1h0C810.68,896.08,811.35,891.57,806.63,889.12Z"
            fill="#e8aa6e" />
        <path
            d="M813.59,891c-1.45,1.76-1.84,3.39-.21,5,.2.2,1.46-.18,1.48-.36C815,894,815.78,892.07,813.59,891Z"
            fill="#e8aa6e" />
        <path
            d="M790.07,835.17c11.56,5.33,11.72,5.59,9.93,17.71-.37,2.49.77,4.33,2.94,4.76,3.25.65,6.64.57,10,.83.93.07,1.79-.18,1.91-1.11.14-1.14-.68-2.4-1.73-2.1-3.1.87-6-2.43-8.94.61-.93-3.31,1.57-4.31,2.29-6.11.42-1.07.31-2.85,1.93-2.84,2,0,1.91,1.79,2.11,3.22.18,1.26.5,2.8,2.19,2.16a2.31,2.31,0,0,0,1.06-3.67c-2.29-2.87-3.13-7.52-8.42-7-.89.08-1.88-.78-2.8-1.26-1.27-.66-3-1.18-2.2-3.12s2.21-2.32,4.05-1.18c1.69,1.05,3.49,1.57,5.26.17.77-.61.82-1.92.09-2.06-3.29-.66-.76-6.61-5.26-5.69-6,1.23-7.3-.59-5.73-6.42.72-2.67-.92-6-1.77-9-.3-1-1.24-2.54-2.76-1.72s-.84,2.15-.24,3.3c.76,1.45,2.09,2.73,1.72,4.55a3.75,3.75,0,0,1-1.13,2.08c-.66.55-2,.39-2.1-.41-.29-4.66-7.74-7.16-3.62-13.43,1.61-2.46,2.17-5.32,5.62-5.77a2.54,2.54,0,0,0,2.53-2.92c-.07-2-1.82-2-3.19-2.35-3.31,1.54-5.5-2.66-8.7-1.65-.29.75-1,2-1.45,1.6-4.87-5.37-7.46-1.47-10.21,2.24-.83,1.14-2.44,1.72-2.4,3.67,1.72.62,6.37-.85,3.28,3.89a2.35,2.35,0,0,0,.43,2.19c1,1,1.84-.13,2.78-.47,1.24-.47,2-3.72,3.77-1,1,1.58,2.56,3.34.84,5.67a13.82,13.82,0,0,0-2,5.11c-.73,3-.13,5.16,2.79,5.79,4.79,1,4.06,3.12,1.69,5.94a5.46,5.46,0,0,0-1.34,2.07c-.32,1.48-2.82,2.68-1,4.32,1.3,1.21,2.78.19,3.83-.93C787.59,833.23,788.73,835.18,790.07,835.17Z"
            fill="#cc986b" />
        <path
            d="M785.08,794.72c2.93.4,4.45,8,8.7,1.65a24.19,24.19,0,0,1-.65-12.72c.68-3.17-.79-5.76-2.68-6-3.55-.43-1,3.06-1.85,4.61-.47.91-1.08,1.75-1.63,2.62,1.16,3.16-.14,4-3.15,3.28C783,790.59,785.78,792.32,785.08,794.72Z"
            fill="#eaad72" />
        <path
            d="M736.71,798.32l-3.27-3.19c-2.58-2.34-5.57-1.27-8.26-.6-2.53.64-4.44.29-6.22-1.47-5.65,1.56-5.88,3.59-1.07,9.33,3.22,1.74,6.06-1,9.16-.78C730,799.83,733.93,800.69,736.71,798.32Z"
            fill="#be8c5d" />
        <path
            d="M830.22,728.19c1.79.1,2.87,1.88,5.19,1.34,4.49-1,8.57-2.6,13,2.56,4.64,5.44,6.68,2.82,10.47-2.79,4-5.89-1.77-7.68-2.19-11.44-5.46-2.63-2.21-8.87-5.28-12.48-3,7.87-7.7,14.24-15.28,18.41A50.56,50.56,0,0,0,830.22,728.19Z"
            fill="#84532e" />
        <path
            d="M828.73,669.33c-1.09-1.84-1.15-5.37-3.57-5.07-3.92.48-4.81,4.72-6.46,7.67a7.06,7.06,0,0,0-.37,4.81c1.8,6.86-.24,13.13-2.58,19.4,1.66,3.94.87,8.14,1.26,12.22.17,1.75.09,3.69,2.15,3.9s1.78-2.13,2.09-3.26c2.08-7.37,4-14.75,9.56-20.53a2,2,0,0,0,.3-2.81c-.78-.95-1.86-.8-2.86-.36-1.58.7-3.19,1.58-4.31-.58-.85-1.64-.66-3.83.5-4.68,3.4-2.48,7.52-4.31,3.19-9.28C827.55,670.66,828.34,669.82,828.73,669.33Z"
            fill="#a36b3f" />
        <path
            d="M802.67,703.56a2.54,2.54,0,0,1,.41,3.35c-2.4,3.8.25,4.58,3.15,5.23-1-2.32-.06-4.73-.34-7.07C805.66,703.14,805.13,701.15,802.67,703.56Z"
            fill="#88522a" />
        <path
            d="M759.31,708.34c4.3-3.44-.95-6-.84-9.05-.47-1.43-1.28-2.72-1.82-4.13-2.77-.53-3.88-4.64-7.65-3.27-1.25.45-.9-.84-.68-1.64.89-3.28-.51-3.69-2.71-1.74-2,1.77-3.74,1.63-5.64.27-7-5-15.37-3.1-22.82-3-5,.06-8.93,6.39-12.31,11a46.27,46.27,0,0,1,6-3.22c2.87-1,5.63-5,9-.52.73,1,2.39.06,3.5-.56,4.13-2.35,8.81-1.77,13.26-2.47,1.07-.17,1.44.25,1.83,1.1,2,4.47,8.66,6,8,12.24,0,.36,1.5,1,.47,1.73a2.74,2.74,0,0,1-2.35.31c-3-1.48-5.78-3.32-8.8-4.69-1.69-.77-4.71-3.23-3.86,2,.55,3.31-1.46,3.65-4.23,2.49-2.26-1-4.53.43-5.63,1.84-1.47,1.89,2.21,1.81,2.44,3.74-3.15,1.26-5,.54-7.3-2.31-4.68-5.92-10.5-5.92-15.77-.76,5.42-1.16,9.17,2,13,4.92,6.24-.43,12-.15,17.15,4.6,3.63,3.32,9.11,3.41,14.16,3.12,1-.06,2.33-.36,2.58,1,.3,1.65-1.78,1.37-2.41,2.36.45.74,1.2,1.55,2,1.3,4.92-1.57,9.88.18,14.8-.33,1.85-.61,3.61-1.35,4.36-3.36a2.48,2.48,0,0,0-.78-2.62c-2.26-2.51-5.6-2.23-8.45-3.22-1.61-.56-4.22.19-4.48-2.26-.18-1.74,2-2.44,3.12-3.53C757.27,708.86,758.42,708.85,759.31,708.34Z"
            fill="#a97a52" />
        <path
            d="M776.06,701.33c-.16-1.34-1-2.79.55-3.87,6.12-4.15.42-6.36-2-7-3-.79-2.34-2.05-2.16-3.8-5.9-.2-6.1,4.53-5.47,7.84.52,2.78-.38,3.58-2.08,4.73Z"
            fill="#926846" />
        <path
            d="M768.2,675.69c-3.84-3-2-7.55-3.43-11.79-3,1.89-3.79,5.29-6,7.43C760.08,676.63,763.06,678.45,768.2,675.69Z"
            fill="#926846" />
        <path
            d="M756.65,695.16c-.32,1.78-.64,3.55,1.82,4.13l6.21,1.17h0l.24-1.21C761.56,699.09,759.16,697,756.65,695.16Z"
            fill="#926846" />
        <path
            d="M733.87,780l.21-1.22c-2.52-3-2.69-5.69.84-8.15,1.43-1,3.3-1.88,2.9-4.2-2.81-3-6.35.84-9.68-1,1.93-3.46,5.38-2.6,8.16-3.41,1.58-.46,5.52.5,3.22-3.6-6.7-1-13.29-2.65-20.08-3.06l-.27.25c.94,3-2.53,7.17-6.79,7.31-7.94.24-13,5-18.51,9.85-8.16,7.14-16.63,14.05-25.93,19.75-4.42,2.7-8.67.74-10.39-4.61a4.74,4.74,0,0,0-4.56-3.53c-3.61,0-3.1,3.92-4.55,6s.85,2.67,2.24,3.59c9,6,17.54,2.74,26.39-.87,9-3.69,18.22-6.82,25.29-14.05,1.78-1.82,4.84-2.38,7.23-3.67s4.72.16,4.59,1.53c-.34,3.89,2.78,8.8-2.65,11.55,2.92,2.44,7.94,1.76,9.46,6.27,2.34,1.21,4.83.7,4.58-1.87-.4-4.23,2.32-5.11,5-6.68C732.81,784.9,734.36,782.88,733.87,780Z"
            fill="#be8c5d" />
        <path
            d="M720.79,794c.22-7.24-5.44-4.89-9.26-5.55l-3.15,3.32c-5.5,6.42-12.35,10.11-21,10.4a6,6,0,0,0-4.78,2.52c2.86,4.66,7,4.57,11.34,2.7,5.5-2.35,10.63-5.35,16.26.53,1.18,1.23,6.63,2.81,8.89-1.71-2-2.72-6.41-.76-8.05-4.22,2.56-1.11,4.66.33,6.85.4a45.66,45.66,0,0,0-1.54-4.49c-1.66-3.58.25-4.2,3.25-4A.78.78,0,0,0,720.79,794Z"
            fill="#b68357" />
        <path
            d="M684.33,762.94c-3.72-2.87-5.16-.31-7,2.51-2.64,4-5.31,8.48-11.52,6.72l-2.71.78c-1.43,4-2.72,8.2,3.36,9.42,5,1,9.51.53,10.81-5.64.43-2.08,2.41-2.91,3.82-3.85C684.92,770.29,685.7,767.05,684.33,762.94Z"
            fill="#bf8e60" />
        <path
            d="M682.6,804.69c6.95-.77,13.83-1.74,19.85-5.67,2.76-1.8,5.79-3.37,5.93-7.25-1.66-.36-3.93-.92-4.6.76-2.76,7-8.19,4.92-13.57,4.85-4.88-.06-10.8-.48-12.54,6.3Z"
            fill="#be8c5d" />
        <path
            d="M762.87,723.07c-5.65-.54-11.3-.77-16.9.53-4.94.62-9.09,2.3-11.75,7-1.46,2.55-4.59,3.38-7.23,4.57-2.18,3.1-6.46,3.25-8.82,6.1,2.8,3.12,6.06,3.78,9.82,1.8,3.31-2.52,8-1.87,11.16-5,.9-.91,2.48-2.9,4.22-1.12s-.16,2.85-1.25,4c-.72.77-1.22,1.68,0,3.56,4.58-6.44,11.6-2.4,17.42-4.33,4.7-3.79,3.58-9.8,5.62-14.62C765.73,724.08,763.68,723.87,762.87,723.07Z"
            fill="#ddaf85" />
        <path
            d="M728,743l-9.82-1.8A2.33,2.33,0,0,1,717,741c-4,.55-2.86,2.64-.62,3.54,5,2,10.17,5.42,15.68.21C731.21,743.12,729.31,743.63,728,743Z"
            fill="#8a5b33" />
        <path
            d="M714.84,712.73c-2.1,1.1-4.4,1-6.66,1.19-6.67.57-7.81,2.77-4.26,8.1,2.88-.41,4.47,2.83,7.32,2.51a3.12,3.12,0,0,0,.78-1.45c1.27-3.55,4.16-4.87,7.62-5.37a4.24,4.24,0,0,0,3.23-1.1C722,711.69,717.47,714.12,714.84,712.73Z"
            fill="#5b3515" />
        <path
            d="M711.26,723.47a3.14,3.14,0,0,1,0,1.06c3.91,7.26,7.78,8.61,16.7,5.79,2.07-2.74-.35-3.46-2.1-4.25-2-.9-4.35-1-6.1-2.49-1.51-1.08-2.93-2.41-4.77-2.84C712.81,720.23,710.54,720,711.26,723.47Z"
            fill="#daa155" />
        <path
            d="M718.7,724.94c1.21,2.18,3.54,1.82,5.48,2.29s3.9.4,3.76,3.1c4.7-2.84,5.29-6.55,2.38-11-1.92.37-4,.29-5.71,1.32C725.2,725.53,720.39,723.14,718.7,724.94Z"
            fill="#a97a52" />
        <path
            d="M724.57,721.07c2.07-.08,4.66,1.51,5.75-1.74-1.84-2.62-5-1.67-7.45-2.72l-3.6-.46C717.9,721.09,721,721.28,724.57,721.07Z"
            fill="#e9bd84" />
        <path
            d="M777.06,723.19c.27,5.56,5.58,5.19,8.76,6.34,4.58,1.66,9.78,1.65,14.72,2.32,2.67.36,2.91,3.33,4.92,4.39,3.34,2.76,6.28,1.29,9.15-.85,3.29-1.08,7-.8,9.93-3.4-.63-2.11-3-2-4-1.68-8.76,2.62-15.31-7.27-24.15-4a1.6,1.6,0,0,1-1.9-2.3c.72-1.64.32-3.25.52-4.84.41-3.2,5-7.64-1.27-8.89-7.19-1.42-12.42,2.89-12.5,9C781.18,722.28,779.9,723.36,777.06,723.19Z"
            fill="#ce9d6f" />
        <path
            d="M814.61,735.39c-3.12-.5-6,1.85-9.15.84-3,.93-5.34-.56-8-1.64-3.45-1.39-7.76-3.35-9.06,2.87a4.64,4.64,0,0,1-.67,1.71c-1.2,1.65-5.38,2-3.54,4.74,1.66,2.51,4.95.33,7.53.14,9.34-.68,17.76-5.91,27.33-5.43C820.17,734.06,815.88,736.76,814.61,735.39Z"
            fill="#98663b" />
        <path
            d="M762.87,723.07c1,6.1-2,11.44-3.37,17.08,4.74.9,5.75-4.55,9.89-5.47-.82-2.1-4.94-2.08-3-6,1.8-3.67,3.73-1.27,5.51-1.33,2-.07,3.57-.08,2.34-2.62-1-2,.27-2.55,1.78-3-2.63-6.55-6-.16-8.92-.47Z"
            fill="#ce9d6f" />
        <path
            d="M759.31,708.34c-1.91-.43-3.82-.48-5.29,1s-4.33,2.88-4,5c.32,2.38,3.41,1.62,5.3,2.07,3.64.87,7.34,1.46,11,2.17,1.79-2.56-.78-2.09-1.85-3C762.21,713.63,756.39,713.89,759.31,708.34Z"
            fill="#ce9d6f" />
        <path
            d="M773.74,709.52c-3.22-.21-6.35-.84-9,1.33a1.49,1.49,0,0,0-.33,2.19c2.53,2.74,5.95,2.62,9.2,2.24,1.74-.2,5,1.22,4.89-2C778.41,711.16,776.11,709.75,773.74,709.52Z"
            fill="#6a3b18" />
        <path
            d="M764.68,700.46c-1.1,1.66-3.27,4.36-1.36,5.14a19.56,19.56,0,0,0,7.41.84c1.23-.06,1.1-3.4-.77-4.46-1.55-.88-3.51-1-5.28-1.52Z"
            fill="#ce9d6f" />
        <path
            d="M719.44,755.37c6.46,3.9,13.72,3.83,20.91,4.15,2.55,1.24,5,2,6.82-1.14,2.75-4,8-.27,11.35-3.77,2.33-2.41,5.93-3.82,6.43-7.5.2-1.47-9.82-2.78-12.36-1.61a4.66,4.66,0,0,0-.53.32c-9.32,5.8-19.33,8.9-30.46,7.74C720.33,753.43,719.75,754.3,719.44,755.37Z"
            fill="#95643c" />
        <path
            d="M747.17,758.38l-6.82,1.14c-3,1.93-6.5.9-9.73,1.56s-5.27,3-4.72,5.56c.69,3.2,3.93,1.15,5.87.84s3.86-1.56,6-.63c3.26,1.66,5.67,1.07,6.91-2.57a35.32,35.32,0,0,0,3.58-2.1c1-.74,3.37-.52,2.69-2.47C750.49,758.34,748.53,758.64,747.17,758.38Z"
            fill="#d2a57a" />
        <path
            d="M744.7,764.28a9.82,9.82,0,0,1-6.91,2.57c-1.54,1-3.12,1.88-4.59,2.95-4.67,3.38-4.32,6.73.88,9l3-2c4.15-1.66,6.74-5,9.33-8.39l1.46-1C748.26,764.84,746.54,764.5,744.7,764.28Z"
            fill="#926138" />
        <path
            d="M775.14,750.92c4.15.65,7.07-.65,8-3.47.3-1-1.59-6.15-1.93-5.67-2.36,3.4-7.61-4.26-8.32,2.29C772.55,746.85,770.55,750.67,775.14,750.92Z"
            fill="#d8a577" />
        <path
            d="M720.79,794a7.9,7.9,0,0,1-1.19-.15c-1.81,4.77,2.73,3,3.61,2.68,3.36-1.32,6.82-1,10.23-1.4.7-2.13,2-2.54,3.8-1.21,3.63,2.65,6.7,1.05,9.68-1.2.32-.25.68-1,.74-.94,5.05,2.63,10.21-.73,15-.58-3.09-10.44-12.94-15.42-25.2-12-1.19.33-2.41.57-3.61.85-2.24,2.72-3.3,6.54-8.25,6.31-2.94-.13-2.6,2.35-1.61,4.51C725.67,794.49,723.46,794.52,720.79,794Z"
            fill="#ddae81" />
        <path d="M746.41,768.37a29,29,0,0,0-9.33,8.39C743.43,777.5,745.71,773.8,746.41,768.37Z"
            fill="#be8c5d" />
        <path
            d="M724.57,721.07c-1.77-1.64-5.78-.92-5.3-4.92-3.67,1.36-8.67,1.32-8,7.32,3.5-4.6,5,.63,7.44,1.47a35.5,35.5,0,0,0,3.67.72c1.57.15,3.58,1.52,4.62-.2C728.35,723.21,725.23,722.65,724.57,721.07Z"
            fill="#784a23" />
        <path
            d="M969.73,872.72l2.83-14.62a3.93,3.93,0,0,1,1.42,2.62c-.24,1.82-1.64,3.75-1.49,7.56.13,3.21.85,6,.21,9.89a74,74,0,0,0-4,6.86c-1.46-6.31-3-11.16-3.26-16.31C967.54,867.4,967.54,867.4,969.73,872.72Z"
            fill="#eabe92" />
        <path
            d="M977.52,881c.28-4.83-.23-13.06-.46-22.17a115.2,115.2,0,0,0-1.62,12.56c.8,8-4.4,15.39-1.6,24.72a13.71,13.71,0,0,0,3.31-9c.07-2,.2-4,.37-6.06Z"
            fill="#eabe92" />
        <path
            d="M977.67,835.49s0,.12,0,.33c.06.72.09,1.43.11,2.14s.08,1.44.14,2.29.15,1.79.21,3.25c.5,6.87,1.41,15.8,2.79,16.77h0c1.23-5.19,2.7-10.33,4.36-15.45,2.17-6.73,1.36-13.93,1.38-21-3.35.18-5-2.49-7.41-4.07-2.62-1.76-3.66-1.1-3.83,2a98.28,98.28,0,0,1,2.24,13.7Z"
            fill="#eabe92" />
    </g>
    <g id="frame">
        <rect width="1000" height="1000" fill="none" />
    </g>
</svg>