<!-- Copyright (c) 2022 Jan Stehno -->
<svg xmlns="http://www.w3.org/2000/svg" viewBox="0 0 1000 1000"><title>rooseveltelk</title><g id="rooseveltelk"><path d="M458.58,668c11.43-2.34,20.79-9.47,31.41-13.69,4.94-2.72,8.72-6.73,12.15-11.12,1.25-1.6,3.22-3.29,1.49-5.43s-3.78-.57-5.63.26c-.84.37-1.63.84-2.48,1.2a11.3,11.3,0,0,0-1.71,1c-6.6,4.7-14.4,6.22-22,8.38a5.26,5.26,0,0,0-2.5,1.09c.06-.67.7-.57,1.08-.79,21.92-12.76,40.91-28.68,54.79-50.4,7.64-12,15.89-23.57,24.43-34.9a166.74,166.74,0,0,0,18-29.82c2.41-3.76,4.08-7.89,6-11.9a160.13,160.13,0,0,1,16.23-33.07c7.82-10.6,15.4-20.4,23.28-30.37,7.7-9.55,18.25-16.27,26.41-25.39,2.72-2.88,4.6-7,9.75-6.11,2,.34,2.06-1.41,2.16-2.75.23-3.23,1.4-6.26,1.81-9.45-2.13-4.72-4.75-2.08-6.83-.18-2.77,2.53-5.59,4.54-9.53,4.28a9.09,9.09,0,0,0-3.93,2.83c-13.73,17-31.6,30.5-43.52,48.79-7.31,11.23-16.85,21-22.36,33.43-1.8,4.08-5.51,7.16-8.72,9.84-7.08,5.92-8.52,14.19-11,22.05-1.34,4.22-2.44,8.52-4,12.66-.68,1.74-1.32,3.88-3.09,4.52-9.19,3.33-11.39,12.44-15.79,19.54-2.72,4.39-5.08,8.85-9.18,12.09-2.65,5-4.64,10.42-8,15.12-1.65,2.33-3.46,4.2-6.19,5.06a6,6,0,0,0-1.61,1.07c-3.68,5.5-7.73,10.57-14.37,12.69-4,2.36-8.32,4.4-11.06,8.47-5.83,8.46-15,12.08-23.66,16.41-2,1-4.28,1.6-6.3,2.77-4,2.29-7.13,2.84-8.93-3-1.63-5.24-6.85-5.87-11.41-6.54a254.89,254.89,0,0,1-30.43-6.78c-9-2.46-18.84-2.45-27.72,2.45.46,3.38,3.24,4.37,5.77,5.4,8.58,3.52,16.61,8.19,25.05,12,1.62.83,1.73,2.36,1.74,3.92.53,8.79.16,17.69,6.83,24.93,2.27,2.47,1,5.27-2.55,6.29-2.44.7-5,1-7.33,2.11a1.79,1.79,0,0,0-1,1.78c.91,2,2.75,2.45,4.61,2.88,10.68.61,11.31.24,14.6-8.65,2.53-4.2,2.32-9.58,5.7-13.42,5.47-6.53,11.35-12.23,20.41-11.63-9.75-.2-16,5.7-21.4,13.32-3.06,5.76-3.95,12-4.16,18.4a26.37,26.37,0,0,1-3.55,18.94,18.94,18.94,0,0,0,.1,7.61c.41,2.3.82,4.8,3.72,5.23,2.54.37,5.17.41,7.07-1.78a59.25,59.25,0,0,1,16.51-13.46,6,6,0,0,0,3.44-6.31c-.48-4,1.42-6.75,4.46-8.82,4.34-2.94,6.07-6.92,6.94-12.16C453.18,675,451.89,668.93,458.58,668Z" fill="#18100b"/><path d="M421.79,980.84c.68,3.17,1.37,6.34,3.33,9.07,7.25-7.76,2.8-17,3.13-26.41,3.52,2.45,2.47,6.58,5.45,8.82l5.05-5.63c-1.71,7.69-5.25,14.89-2.14,23.34,3.63-3.21,4.26-7.51,5.23-11.6,1.57-6.6,3.56-13,8-18.29a.65.65,0,0,1,.63,0,5.87,5.87,0,0,1,.53,1c-.34,4.56-2.08,9-.72,13.68,2,2.05,3,.16,3.54-1.19a16.66,16.66,0,0,1,4.85-6.71c1.7-2.49,3.14-5.08,2.94-8.26-.66-3.15-3.28-3.58-5.77-4.21-12.09-3-16.16-8.87-13.33-21.26,1.34-5.86.24-11-.9-16.49a6.8,6.8,0,0,0-2.92-4.58c-5.33-3.42-7.68-8.56-8.38-14.65-.55-4.74-2.56-8.41-7-10.52-3.93-1.87-4.42-4.92-3-8.79,1.63-4.44,4.49-8.16,6.7-12.26,2.91-5.37,3-10.24-2.21-14.31-3.61-2.79-3.79-5.82-1.36-9.72,2.22-3.58,5.36-7.5,1.17-11.87,7.43-.49,11.88-9.14,8.6-17-1-2.34-2.92-4.27-2.77-7.06-1.13-4.69,0-9.33.41-14,1.73-6.56,4.28-13.06,1.73-20-.52-4.28,1.42-6.27,5.38-4.64,4.88,2,8,.31,10.19-3.83,1.22-2.31,2.21-4.14,5.08-2.48,4.44,2.59,7.28,0,10-3.07-5.58-6.55-15.8-9.88-22.57-7.35,3.28-7.54-2.23-11.63-15.7-11.63,4.33-4.2-.43-5.6-2.37-7.89-3.29-.7-2-4-3.3-5.87-3.85-.6-7.28-.15-9.26,3.83.56,2,1.92,4-.64,5.63-.36,2-1.16,3.23-3.5,3.59-4.11.64-3.6,4.46-3.65,7.17s2.48,3.76,5,3.71a20,20,0,0,1,9.2,2.42c-5.12,0-9.6.64-8.06,7.74a4.19,4.19,0,0,1-1.86,4.28c-5.21,3.62-3.36,6.76.41,10,1,.84,2.55,1.75,1.77,3.31a3.4,3.4,0,0,1-3.34,2.07c-7.18-.94-4.83,2.74-2.44,5.58,2.22,2.65,2.33,4.25-1.27,4.45-4.76.26-4.19,2.48-2.49,5.44.94,1.64,1.75,3.29,1.41,5.26a53.71,53.71,0,0,0-2.11,7.22,7.23,7.23,0,0,1-2.62,3.58,53.87,53.87,0,0,1-29.52,5.47c-6.3-.68-12.52.25-18.76-.58-2.46-.33-4.34,1.4-5.31,3.82a6.72,6.72,0,0,0,1.1,5.88c3.49,1.74,6-1.5,9.16-1.78,2-.18,4.26-1.83,5.95-.18,2.08,2-.64,3.7-1.22,5.53-.36,1.12-.84,2.17-.11,3.3,4,2.43,6.95.08,8.95-2.73,3.15-4.4,7.41-5.15,12.17-5.4s9.16-.38,13.75-1.65c15-4.13,24.47-13.55,28.66-28.55.49-1.75.92-3.68,3.06-4.3,1.6,1,1.31,2.52.79,3.75-2.08,5-1.66,10.1-.54,15.15.89,4,.49,7.41-2.77,10.15-2.53,8.54-8.3,15.26-12.61,22.8a6.42,6.42,0,0,1-3,3.64,16.17,16.17,0,0,0-7.82,13.21,16.2,16.2,0,0,1-2.23,6.57,12.76,12.76,0,0,0-.76,12c2.78,6.19.11,11.7-2,17.3-.75,2-2.61,0-3.52,1.16a40.8,40.8,0,0,0,3.4,19.31c3.7,8.4,8,16.82,8.41,26.39v0c1.37.9,2.65,1.87,2.8,3.69.83,9.62,6.34,16.59,12.84,23l0-.07C419.33,971.43,421.79,975.66,421.79,980.84Z" fill="#4e3e33"/><path d="M638.5,355.73c-3.09,13.37-4.77,27-10.15,39.92a33.6,33.6,0,0,1-12.24,15.17c-7.25,5-12.2,12.19-18.87,17.76-12.67,10.57-24.94,21.64-39.7,29.15-9,4.59-18.45,2.34-27.55-.88a6.53,6.53,0,0,0-5-1.35c-1.52,4.9,3.06,5.12,5.33,5.84,4.08,1.31,7.87,2.46,10.41,6.27a5.69,5.69,0,0,0,4.12,2.46c13.32.75,26.88,3.74,39.36-4a17.69,17.69,0,0,0,5.4-5.39c1.3-2,2.52-4.23,4.73-5,7.07-2.55,11.17-8.48,15-14.13,5.82-8.53,13.81-14.22,21.72-20.37,7.7-6,13.81-13.81,20.75-20.69,1.89-1.88,3.24-3.84,6.9-3.39s5.48-3.79,7.53-6.55c3.63-4.87,7.6-9,14.43-7.8a7.43,7.43,0,0,0,4.33-2.58c1.24-1.65,2.14-3.85,4.21-4.46,13.52-4,23.15-15.08,36.15-20,2.82-2.67,7.51-3.61,7.89-8.57-4.41-6.35-6.28-7.08-13.22-4.32-7.49,3-15,6-20.51,13.64-1.6-4.63-.71-7.14,2.05-9.1,1.7-1.21,3.47-2.32,5.18-3.51,2.58-1.78,6.72-2.86,5.82-6.88-.82-3.63-4.86-3.66-7.92-4.49-7.27,3.15-11.48,10-17.37,14.79-4.26,3.49-8.42,7-13.62,9.33a8.79,8.79,0,0,1,.77-7.83c10.49-16.31,12.79-35.26,16.86-53.54,3.63-16.35,3.77-33.3,6.36-49.8,1.86-11.87,1.36-24.26,6.12-35.66,1.21-2.9-.47-6.05.59-9,.31-2.29-1.19-4-1.88-6-1.31-1.28-3.22-2-4.18-.38-4.72,7.87-11.32,15-11,25.1v.07c.68,5.32-3.49,9.9-2.3,15.3-3.2,15.76-6.05,31.6-9.73,47.25-2.16,9.19-.24,18.64-3,27.77-1.57,5.16-2.62,10.54-5.67,15a21.19,21.19,0,0,0-3.84,11.71c-.13,3.78-1.54,7.17-3,10.66-2.32,5.52-4.29,5.18-6.88.41a1.25,1.25,0,0,0-1.28,1.11c-.06,3.2.66,6.39.08,9.61-.11-3.88.18-7.77-.43-11.63-1.37-3.85-.91-7.8-1-11.77-.06-3.29,1.64-7.68-3.25-9.48C639.36,334.21,637.21,344.47,638.5,355.73Z" fill="#604a3f"/><path d="M402.76,800c.46-3.71-2-6.34-4-10.18,6.31,5.87,6.35-2.34,10.12-3.27-2.41-2.31-7-2.4-6.68-8.82,3.77,8.76,7.39,1.84,8.63.76,3-2.6-.64-4.53-2.76-6.25-2.58-2.09-6.74-4-.39-7,2-1,3.87-4.18,3-6.59-2.47-6.73,1.28-5.86,5.38-5.08a6.91,6.91,0,0,0,4.34-.46c-3.28-3.75-7.23-6.08-12.42-5.63-2.29.19-4.23.32-4.72-2.57,3-.32-1.05-7.06,4.86-5.11,3.27,1.08,3.46.49,1.83-5.54-.77-2.42-2.68-3.8-4.71-4.94-1.78-1-3.83-2.51-5.75-.71s-.17,3.46.93,4.88c2.27,2.94.39,4.62-1.64,6.44-6.4,5.74-6.68,13.59-.53,21.19-3.82-2.28-6,1.41-9,1.8-4.77.61-4.4,3.78-3.59,7.29.42,1.8-.8,3.12-2,4.23-2.4,2.19-3.2,4.89-1.33,7.52,2.52,3.55,1.18,6.74-1.69,8-3.1,1.31-7.15,1.77-10.3-1.05-1.91-1.69-2.89-4.29-5.32-5.49a4.61,4.61,0,0,0-1.92-.16c-2.72,1.44-3.68,6.23-8.15,4.35-6.89,4.26-14,.51-19.68-1.69a47.3,47.3,0,0,0-15.9-3.39c5.37-1.06,10.6-2.12,15.4-4.65,3.63-1.9,8-3.27,5.4-9.11-.72-1.6.64-2.92,1.92-4.11,8.73-8.11,8.68-8.86-.35-17.19a2.76,2.76,0,0,0-1.91.27c-1.34,1.12-1.72,2.74-2.11,4.31s-1.21,3.1-3,3.58c-2.45.67-2.38-1.5-3-2.88-1.75-3.84-4.37-3.68-6.09-.47-3.09,5.77-9.42,7.94-13.14,13.07-1.65,2.28-4.2,3.56-2.83,6.87.2.46.5.78.51,1.12-.63,0-1.14-.52-1.76-.54-4.69-.2-8.36,1.31-8.88,6.55-.36,3.69-1.79.5-2.38.41-1.64-.26-3.26-.77-4.52.67-1.39,1.59-.09,3,.48,4.51,1.82,4.69,5.92,7.69,8.55,11.7-2.91,3.27-8,3.68-10.11,8.2-1,2.07-2.74.73-3.73-.8-1.39-2.16-2.64-4.43-5.31-5.48,2.48-.95,6.69.45,6.6-3.82s-3.78-4.56-7.08-5.21c-6.67-1.32-11.34,3.62-17,5.45-2.63.85-4.43,2.52-5.93-1.05-1.39-3.32-4.28-6.64.58-9.66,2.45-1.53,5.7-2.83,3.85-6.89a28.86,28.86,0,0,0-7,4.61c-1.33,1.13-3.17,2.85-4.56,3.83-6.8,4.64-6.63,6.45-11.82,10.68a10.27,10.27,0,0,0-2.81,3.5c2.5,2.34,3.51-.56,5.11-1.44,2-1.09,4-2.91,6.32-1.08,2,1.6,2.11,4.07,1.63,6.41-.7,3.43-1.45,7.6-4.2,9.33-7.12,4.48-7.94,11.28-8.38,18.51,1,1.52,2.14,2.88,4,3.31,9.64-.18,19.34.65,28.75-2.49,2.85-.95,5.84-1.45,7.87-4,.76-7.47-4.45-5.08-8.87-5,1.66-2,3-3.32,5.29-1.79,1.56,1,3.2,2.67,4.86,2.62,10.67-.31,21.5.45,31.86-2.75,2.57-.79,5-2.71,7.79-2.48,7,.59,13.6-5.68,20.85-1.39,3.81-3.29,8.34-3.19,13-3,1.07,0,1.57-1.5,2-2.65,2.06-6,3.55-7.06,11.16-7.7-2.35,1.54-4.51,2.69-3.32,5.25a6.17,6.17,0,0,0,4.32,3.24c2.21.6,4.06-.3,5.94-1.32,4.27-2.32,7.5-7.08,13.68-4.83,2,.72,4.34-1.91,5.31-4,2.07-4.37,4.7-4.91,8.48-2.33C401.34,800.78,402.16,800.41,402.76,800Z" fill="#6c5343"/><path d="M681.14,382.12c-4.65-3.78-8.41-.9-11.66,2.07-2.69,2.45-4.44,5.93-7.07,8.47-1,1-2.18,6.95-5.25.88-.86-1.69-2.38.77-3.45,1.93-7.29,8-14.51,16-22.17,23.66-2.45,2.44-5.85,4.24-8.74,6.09-10,6.43-15.23,16.7-22.42,25.37-.93,1.12-2.8,1.52-4.3,2-2.71.95-5.18,2.33-6.66,4.8-5.94,10-15,12.75-25.86,11.82-2.51-.21-5.06.18-7.58,0-6.36-.49-13.1,1.26-17.3-6.79-1.77-3.41-8.58-1.71-12.26-4.7-.67-.55-1.27-1.21-1.9-1.82a2.59,2.59,0,0,0-1.14-3c-7.22-5.24-14-11-21.41-16.07h0a101,101,0,0,0-9.32-6.45c-.84-.41-1.95-1-2.63-.49-6.52,5.14-11.36,1.44-16.4-2.73-2.83-2.35-5.94-4.53-9.63-5.38-2.33-.54-5-1-4.11,3h0c4.67,5.63,10.38,10.35,14.32,16.62l-.09-.07c1.76,3.15,5.35,4.24,7.61,6.82l0,0c5.3,1.67,7.48,7.62,12.71,9.38a7.75,7.75,0,0,1,7.11-.67c4.75,1.76,9.32,4,14.16,5.56,6.68,2.2,6.85,9.35,9.39,14.66,2.33,4.86,1.49,8.53-3.67,10.75l-.74.56,10.62,24.22c.94,3.1,1.51,6.3,2.3,9.44a38.16,38.16,0,0,1-5.11,31.5c-4.69,7.2-9.07,14.6-14,21.63-13.57,19.28-31.22,34.42-49.11,49.33-2.48,2.06-5.31,3.87-6.24,7.3,3.14,3.7,5.8.26,8.42-.8s4.84-3.56,8.11-3.28c2.1-4.18,7.35-4.59,9.82-8.33,4.62-4.8,8.81-10.09,14.76-13.41h0a179.77,179.77,0,0,1,15.76-20.38c3.94-1.83,6.43-4.87,8.36-8.82,3.05-6.22,6.67-12.16,10.1-18.19.44-.79,1.15-1.92,1.84-2,10.78-1.16,9.92-11,11.86-17.65a143.23,143.23,0,0,1,6.53-18.31c1.62-3.64,5.69-7.14,9.06-10.12s6.23-5.73,6.72-10c.58-5.26,5.49-6.65,8.23-9.82,6.24-7.22,8.19-17.09,15.28-23.63,9-8.29,15.14-19.18,25.34-26.58,7.41-5.38,10.72-15.09,18.09-21,14.28-10.61,27.58-22.47,41.72-33.27C680.33,385.26,681.61,384.08,681.14,382.12Z" fill="#42322b"/><path d="M364.23,784.11c3.77,7.25,9.75,10.37,18.25,9.16,1.3-.37-2.44-6.13,3.55-3.77,1.77.7,1.39-2,.31-3.47-3.07-4.25-6.07-8.56.8-12.23a2.64,2.64,0,0,0,1.35-3c-.71-2.6-5.88-6.64,2.16-6.08,2.92.21,4.88-5.69,8.57-1.32a1.88,1.88,0,0,0,3-.34c.91-1.57-.15-2.34-1.53-3.17-6.24-3.76-7.09-14.73-1.11-18.18,7-4.06,4.76-7.76-.58-12,5.48-1,7.37,3.72,11,4.59,1.34,0,3,.21,3.45-1.31.58-2.12-1.35-2.43-2.82-2.9-2.72-3.85-7.08-6.44-8.67-11.29,1.4,0,2.72,1.28,3.93-.14a9.39,9.39,0,0,0,1-1.62c.53-1.67,3.33-3.13,1.76-4.82-3.77-4.06-2-8.1-1-12.39,1.31-5.77-1-7.92-9.64-9.35-1.65-.18-3.24-.64-4.88-.87-2.69,1-4.77,2.32-7.83-.71s-.93-4.75-.17-7.18c1.81-5.78,3.06-11.72,6.31-17,1.65-2.69,1.16-4.72-3-4.66-5.59.07-10.9-4.47-16.78-1.2.79.44,1.55.94,2.37,1.31,3.57,1.6,9.65-.5,10.49,4.8.94,5.87.26,12.32-3.75,17.25-8.21,10.11-17.72,18.64-29.51,24.59-6.92,3.48-13.24,8.16-19.83,12.3a2.34,2.34,0,0,0,2.92,1.16c3.43-1.15,5.34-.68,4.59,3.62-.51,3,.78,4.9,3.87,5.4,9.47-2.73,18.31,2.15,27.86,2.34a25.23,25.23,0,0,0-7.61,6.21,6.23,6.23,0,0,0-1.85,4.55c3,5.56,5.14-3.54,7.77-.09-1,.5-2.64.09-3.72,1.33s-3.06,2.27-3.22,4.36c-.19,2.54,1.89,2.83,3.58,3.54.47.2.42.69.13,1.13-5.33,8.11-.65,17.66-3.71,26.07C361.09,781.33,363.07,782.49,364.23,784.11Z" fill="#7c5e4c"/><path d="M566.19,533.64c-12.65,25.53-31.44,46.94-46.88,70.6-12.09,18.51-30.16,31.32-48.69,43a17.9,17.9,0,0,0-5.93,5.41l7.53-2.72c7.33-3.63,15.22-5.85,22.61-9.32h0c12.1-4.83,19.16-15.3,26.68-25,7.11-9.14,16.29-16.67,21-27.82,2.33-5.57,5-10.9,7-16.71,3.17-9.35,9.61-17.18,16-24.44,20.42-23.09,42.37-44.61,69-60.53,8.16-4.88,16.45-9.72,25.88-11.94a29.52,29.52,0,0,0,7.06-3c28.49-15.28,59.4-20.52,91.14-23,22.39-1.77,45,.34,67.21-4.05,3.58-.7,7.26.08,11.18.07-3.78.62-8-1.56-10.35,3,10.37,1,20.65-.88,31-.95,6.18-.05,12.33,1.53,18.5.19,1.76,1.15,3.22,1.17,2.42-1.4-.48-1.54-2.49-2-4.09-2.21-8.41-1.33-16.72-3.64-25.3-3.51-6.43.1-12.33-1-17.49-5.15a7.68,7.68,0,0,0-7.13-1.54c-6.3,1.15-7-1.67-5-6.81,2.38-6.1,6.49-11.06,10-16.4,1.91-3.49-.09-3.81-2.6-2.89a16.65,16.65,0,0,0-7.42,5c-1.82,4.41-5.75,6.57-9.45,9-5.47,3.57-10.78,7.14-13.3,13.77-1.69,4.45-6.14,3.62-9.7,3.7-28.27.63-56.36,2.7-84.23,8-12.17,2.3-23.26,7.86-35.37,10.24-6.21,1.22-10.68,6.43-15.75,10.12a38.86,38.86,0,0,1-12.5,5.73c-10.18,2.93-18.71,9.2-26.29,16.44-3.91,3.73-7.7,7.24-12.5,9.84C591.78,503.14,585.11,510.3,579,518,574.73,523.23,570,528.06,566.19,533.64Z" fill="#49382f"/><path d="M733,347.46l-8.15,7.29c.72,2.74,2.36,4.44,5.25,4.73,10.67-.38,19.62-5.32,28.3-10.91a19.38,19.38,0,0,1,10.4-3.56c7.3-.09,13.17-4.46,19.47-7.21,23.43-10.23,48.29-12.91,72.81-9.65,19.08,2.54,38.1,1.44,57,3.56,10,1.12,20.46-.15,29.85,4.91,15.49,3.75,31.53,5.48,46,13,1.67.88,4.38,2,5.67-.24,1.45-2.57-1.74-3.2-3-4.69-5.46-6.71-14-5.31-21-7.87-8.2-3-16.09-7-24.42-9.29-11.75-3.18-22.78-10.38-35.84-7.65-3,.63-6.32.17-8.17-2.68-2.08-3.2.21-5.94,2-8.24,9.29-11.7,16.12-24.47,17.89-39.6-2.36-3.75-3.73-1.28-4.45,1-2.6,8.17-8.41,14.2-13.31,20.84-5.82,6.92-13.86,10.67-21.41,15.08-1.17.68-2.73.74-3.58,2-4.72,6.79-11.19,6.72-18,4.41a35.87,35.87,0,0,0-21.31-.16c-11.49,3.25-23.35,2.59-34.88,4.81-3.26.63-6.17,1.37-8.91,3.42-4.62,3.46-10.2,4.24-15.8,4.46-2.54.1-5.42-.59-7.49.89-8.45,6-18.67,6.47-28,9.63C743.47,337.93,736.31,340.12,733,347.46Z" fill="#513f37"/><path d="M566.19,533.64c8-6.34,14.3-14.38,20.76-22.14,4.77-5.73,10.85-9.35,17-12.86,1.78-1,3.86-1.79,5-3.39,6.1-8.72,15.54-13,23.88-18.8,1.33-.92,2.81-2.52,4.12-2.43,9.14.64,15.41-5,21.25-10.43,8.14-7.49,18.77-7.43,28.16-10.87,18.94-6.92,38.7-9.87,59-9.87,10.93,0,21.71-3.27,32.74-3.74,5.27-.22,10.39,2.05,15.74.4,1.81-.56,4.07-.46,4.39-2.59,1.25-8.28,8-11.19,13.76-15.34,3.41-2.47,8.24-3.91,8.67-9.31a1.93,1.93,0,0,0-1.94-.65,16.1,16.1,0,0,0-6,3.41c-8.67,7.28-19.33,10.48-29.75,13.53-7.33,2.14-15.37,1.5-23.13,1.15-10.6,4.41-21.9,2.35-32.83,3.66-9.56,2.05-19.11,4.22-28.72,5.94a43.51,43.51,0,0,0-9.15,2.55c-8.75,3.5-18,1.74-27,2.47-2.91.24-4.65-1.84-6.23-3.84-4.31-5.48-4.26-19.14-.31-25.07,3.74-5.62,8-10.6,14.13-13.63-5.4-3.62-8.9.18-12.1,3.54a27.83,27.83,0,0,0-5.38,9.44c-2.09,3.37,1.55,9.88-6.47,10.35-2.7.16-6.63,3.19-7.65,7.29-5.74,7.59-11.31,16.11-12.17,25.18-1.42,14.87-12.09,21.87-20.92,30.77-6.39,6.46-12.93,12.73-20.46,17.89-5.66,3.89-9.31,9.53-12.47,15.51Q569.18,527.7,566.19,533.64Z" fill="#5d483e"/><path d="M343.09,728.21c-2.25-.61-3.83-1.54-2.48-4.32a5.53,5.53,0,0,0-.68-6.44c-2.34-2.28-3.8,1.28-5.84,1.59a16.72,16.72,0,0,1-2.65,0c-12.4,10.17-24.56,20.47-35.94,32-9.59,9.67-19.7,19.52-31.93,26.33-.2,2.27-1.05,4.11-3.42,4.77-7.42,2.06-5.87,6.75-3.28,11.6,1.2,2.25,2.78,4.29,4.5,6.91,2.68-2.63,4.19-6.82,9.83-4.47,3.79,1.58.65-4.06,2.63-5.62,2.6.14,4.73,4.21,8,.64,1-1.08,3.95.44,5.53,1.82a4.13,4.13,0,0,1,.6,2.49,18.51,18.51,0,0,1-5.25,1.33c-1.22,0-2.47-.83-5.66-2,4.53,5.31,8.92,8.14,11.25,13,1.22,2.55,4.39.34,5.33-1.84,2.22-5.15,7.22-6,11.49-8.34-3.3-4.49-8.51-7.68-9.9-13.65-.25-1.07-3.19-1.2-1.4-3,1.05-1,2.72-.38,3.73.74s1.14,4.09,3.91,2.38c2.6-1.59,1.06-2.9-.27-4.38s-.08-2.51,1-3.41c2-1.68,4.09-3.06,7-2,1.64.6,2.16,3.3,4.55,2.46,1-2.57-1.37-3.16-2.51-4.4-1.75-1.91-.94-4.25.62-4.76,5.51-1.78,6.89-8.42,12.33-10.09a2,2,0,0,0,1-.92c2.39-4.61,5.12-12.39,5.3.68,0,1,1.1,2,1.86,1.54,2.23-1.37,5.72-1,6.61-4.23a66.19,66.19,0,0,0,1.18-6.92l-.88-.39c-1.13.1-1.89,1.1-3.37,1.34A73.94,73.94,0,0,0,343.09,728.21Z" fill="#56473c"/><path d="M410.39,842.42c.3-1.34.14-3.37,1-3.93,7.06-4.76,8.19-12.77,11.12-19.8,1.69-1.53,2-3.63,2.28-5.73.38-2.75,0-5.3-2.84-6.49s-4.43.67-5.74,2.73c-3.27,5.16-8.2,9-11.32,14.24-3,5-7.52,6.81-13.13,5.69-8.15-1.64-16.13-2.88-22.73,4.22-1.57,1.68-3.9.77-6,.59-7.19-.61-14.44-1.24-20.94,3-2.52,1.66-4.69,1-7.09-.51a15.35,15.35,0,0,0-14.08-1.22c-5.88,2.31-12,3.62-18.09,5.22s-12.35,2.53-14.19,10.31c-.6,2.51-3.9,3.14-5.86,4.75-1.62,1.32-3.65,2.82-2.14,5.18,1.2,1.87,3.34,1.46,5,.42s3.51-1.11,5.32-1.42c16.9-7.92,34.93-5.65,52.65-5.68,5.48,0,10.34,2.8,14.38,6.46,7.89,7.14,15.56,14.51,23.32,21.79,4.22,2.13,6.06-1.08,7.52-3.86,2.1-4,1-8-2.3-10.7A63.21,63.21,0,0,1,377,857.66c-2-2.53-2.1-4.55,1.25-6,4.91-2.1,9.76-4.4,15.27-2.12,3.09,1.28,6,.91,8.19-1.71C404,845.05,407.86,844.83,410.39,842.42Z" fill="#1f1610"/><path d="M826.6,447.28l15.22-2.94c-6-.53-11.71-3.1-17.81-1.81-21.77,4.61-44,1.7-65.92,4.06-17.37,1.87-34.59,3.63-51.72,8-22.64,5.83-43,16.61-64.31,25.45-16.31,6.77-29.55,18.45-42.66,29.89C584.79,522.73,571,536.44,559,551.89c-7.29,9.39-10.71,20.64-16.15,30.87-12,22.49-28.67,41.41-48,57.9,3.09.88,4.7-2.77,8.86-2.51-3.54,6.86-9.32,11-13.69,16.19,5.43-.45,8.08-4.94,11.65-8.11,10.51-9.35,17-22.15,27-32,9-8.87,14-20.23,19.64-31.19,12.58-24.65,30.06-45.34,50.35-63.73,12.77-11.57,27.14-21,41.68-30.17,6.94-4.37,15-6.14,22.16-9.93a173.79,173.79,0,0,1,30.45-12.82C712,460.64,730.8,454.28,751.15,452,776.31,449.15,801.54,450.07,826.6,447.28Z" fill="#251a14"/><path d="M419.86,726c-.87,1.42-3.47,1.95-2.82,4s3,1.27,4.57,1.62c4.95,2.35,9.32,1.21,14.12-3-1.8,2.25-4.19,3.32-2.47,5.51,1.37,1.75,3.67,2.82,5.58,1.63,5.5-3.4,7.54.37,10.47,4,9,11.3,19.11,21.09,33.25,26.32,7.46,2.75,13.89,8.33,21.74,10.62,3.71,1.08,7.78,2.18,7.34-4.26-2.11-9-8.51-15.45-13.64-22.51-8.06-11.09-15.12-23.08-25.7-32.15-1.76-1.51-3.44-3.5-5.51-4.21-7.12-2.44-10.5-6.9-9.05-14.57-2.19-.93-3,.86-4.08,2.09-3.67,8.12-8,15.56-17.71,17.51-4.59.32-9.12.79-12.3,4.78C422.47,724.32,420.83,724.66,419.86,726Z" fill="#211915"/><path d="M431.11,771.67c2.34,6.8-.45,13.16-1.61,19.67,3.73.41,3.51-3,4.58-5,1.32-2.45,1.92-5.38,4.53-6.88,3.28-1.89,6.95-5.44,8.75,1.63.49,2,2.15,2.95,4.25,3,1.15,0,2.72-.11,3.19,1,2.91,6.7,7.48,6.93,14.14,5.73,7.47-1.36,10.47,4.48,7.28,12.24a5.25,5.25,0,0,0,.22,2c.53.77-.45.23.3.59,7,3.41,8.92,11.51,14.68,16.11,4.59,3.67,6.44,8.77,7.13,14.67.4,3.42.15,8.75,6.54,7.41,3.57-1.68,6.69-.45,9.66,1.57.94.65,1.65,1.62,2.6,2.26,5.77,3.85,9.7,3.37,13.23-1.54a7.66,7.66,0,0,0,1.75.46,3,3,0,0,0,3-1.87,4.82,4.82,0,0,0,.15-2.86c-1.18-2.28-3.58-4.35-1.18-7.23.75-2.36,1.14-4.67-.71-6.6,1.39,1,1.67,3.06,3.27,4.06a27.82,27.82,0,0,0,2.24,1.68c1.51,1,3,3.08,4.82,2.15,2.11-1.09,1.41-3.66,1.33-5.73,3.74-12.7-4.47-18.8-13.37-24.51-2.34-.18-4.5-1.22-6.79-1.51a9.56,9.56,0,0,0-11,7.29c-1.38,4.88-3.42,5.78-7.9,3.49a16.53,16.53,0,0,1-5.5-5.28c-3.88-5.25-8.09-10.32-11.46-15.9-5-8.33-12.1-13.18-21.63-14.34-3.2-.38-3.37-2.52-3.64-5-.49-4.34-3-5.3-7.28-6.53-8.21-2.35-15.2,3.39-23,1.81C432.66,769.49,431.65,770.53,431.11,771.67Z" fill="#725140"/><path d="M290.92,859.7a6.29,6.29,0,0,0-6,.63c-1.22.72-2.85,1.1-3.57-.53-.55-1.24.71-2.14,1.7-2.7,4.26-2.42,9.73-3.54,9-10.66-.09-.92,4.54-2.83,7.17-3.41,8.08-1.79,16-4,23.87-6.58,3.39-1.11,8.66-2,11.81,2.42,2.22,3.12,4.53,2.44,7.09.47,6.83-5.25,14.5-4.72,22.19-2.84,2.85.69,4.79.4,6.68-2,3.87-4.88,8.78-5.94,14.89-4.56,5.49,1.23,11.81,3.84,16.62-1,5.18-5.18,9.33-11.39,14.15-17,1.45-1.66,1.29-5.94,5-4.36,3.09,1.3,1.79,4.38,1.51,6.85-.16,1.39-.42,2.77-.64,4.15,4.86-2.12,3.83-6.16,3.35-10.12-.62-5.09-2.74-10.08.84-15.25,1.36-2,.8-6.34-1.72-7.47-3-1.32-3.58,2.64-5.15,4.44-2.53,2.89.11,7.2-2.57,9.75-4.62,4.37-8.62,9.41-13.18,13.83-8.68,8.43-18.46,6.74-28.15,8.17-4.36.64-8.94.58-11.09,6.2-1,2.59-4.38,4.09-7.79,3.11a14.53,14.53,0,0,0-11-2.12c-5.28,1-2.82-2.08-2.21-4.2l-.51-5.75c-2.4-2-5-2-7.79-.94-9.17,3.31-18.9,4.38-28.26,6.95-4.35,1.19-8.61.82-13-.24a19.69,19.69,0,0,0-15.87,2.57A58.29,58.29,0,0,1,248.6,833c-2.57-.18-5.06-.71-6.7,2l0,0a99.64,99.64,0,0,0,17.55,4.44,97.66,97.66,0,0,0,20.69-4.9c2.79-.92,5.47-2.55,8.59-1.47,3.94,4.2,3.56,7.76-1.54,10.61-3.24,1.8-6.12,4.12-9.16,6.23-5,3.46-10,6.31-16.61,5.15-2.18-.38-6.61-2-6.29,3.48l0-.09c5.38,4.7,12.12,3.43,18.37,4.28C279.78,864.46,285.49,862.92,290.92,859.7Z" fill="#3d2d24"/><path d="M733,347.46c9-6.81,18.27-12.78,30.16-12.45,1.1,0,2.58-.06,3.28-.73,8-7.59,18.73-6.79,28.37-9a20.82,20.82,0,0,0,9-4.21c4.27-3.37,10.1-2.32,15.17-3.32a28.94,28.94,0,0,1,7.65-.64c10.16,1.08,19.14-4.43,29.12-4.29,6.36.09,12,3,18.12,3.4,1.37.1,2.89.92,3.93-.14,9.67-9.83,24.11-13,33-23.94-3.56-1.7-5.57,1-7.72,2.92a26.1,26.1,0,0,1-7.47,5c-11.83,7.24-24.85,8.07-38.38,8.86-18.09,1.05-36.26-.37-54.4,3.49-9.62,2-19.64,4.41-29.77,4.38-3.88,2.11-7.6,4.64-12.17,5.08h0c-4.74.05-8.68,3.15-13.33,3.55-10.89,2.69-22,4.41-32.68,8-4,1.33-6.36-1.67-8.55-4.45a2.89,2.89,0,0,0-.94,4.17c.68,1.45,2,1.8,3.4,2.07s2.88.58,2.85,2.4c0,1.59-1.24,2.32-2.49,3.05-3.19,1.86-6.26,3.91-9.47,5.72-2,1.13-3.36,2.48-2.88,4.95.44,2.2-1.59,5.29.86,6.48,2.72,1.32,4.44-1.66,6-3.49,5.22-6.13,12.87-7.68,19.63-10.94C728.26,341,729.59,346.61,733,347.46Z" fill="#6b5549"/><path d="M505.82,567.07c1.75,5.24-.17,9-3.67,13.16-10.21,12.18-23.32,20.37-36.46,28.64-2.93,1.85-5.65,3.68-7.46,7-1.57,2.9-4.92,4-8.31,4.43-10.69,1.46-21.27,3.87-32.13,3.92.31.64.67,1.4,1.33,1.55,14.91,3.4,30,8,42.68-5.69a8.9,8.9,0,0,1,2.76-2.13c17.28-7.78,29.28-22.14,41.27-35.81,8.43-9.61,15.2-21.13,20.62-33,2.42-5.31,5.39-10.44,6.91-16.08,1.09-4.09,2.5-8.88-3.67-10.71-.86,4.44,2.38,11.19-1.91,12.93-5.13,2.08-11.92,2.65-17.62.06-6.25-2.83-11.82-7.84-18.27-9.35-6.83-1.6-11-5.29-14.82-10.34a2,2,0,0,0-1.06-.83c-11.29-2.6-17.84-10.35-22.43-20.49-2-4.33-7.49-5.34-9.76-9.57l0,0c-2.71-2.34-4.15-8.51-8.74-5.56-4.83,3.1.27,6.8,1.68,10a52.08,52.08,0,0,1,2.34,6.47c.1,6.76,4.21,11.53,8.32,16.13A67.64,67.64,0,0,1,455,522.18c2-1.24,1.34-3.23,1.45-5.77,6,8,15.53,10.2,22,16.65,8.39,8.38,20.08,10.52,29.8,16.46,7.64,4.67,8.57,5.34,3.38,12.75A15.46,15.46,0,0,1,505.82,567.07Z" fill="#71594c"/><path d="M948,336.62c-2.62-6.12-8.82-5.47-13.38-5.78-19.51-1.35-39.1-2.44-58.63-2.16-8,.12-14.73-4.12-22.73-3.67s-16.07,1.46-24.08,1.48c-12.44,0-24,4.12-36,6.36-3.43.65-6.27,3.06-8.9,4.62-11.26,6.69-25.52,5.42-35.73,14.81-4.9,4.51-12.44,3.84-18.6,6.08-2.62,1.24-5.8,1.52-7.48,4.4-4.18,7.22-11.14,8.51-18.57,8.79-4.85,1-8,4.88-12.09,7.18-7.83,3.74-13.8,10.19-21.13,14.68-2.18,1.33-5.61,3.36-3.24,6.5,2,2.64,4.49.28,6.54-1.33,10.18-8,20.64-15.47,32.85-20.13a21,21,0,0,1,5.31-1.27c1,.27,2,.34,2.54-.87A219.25,219.25,0,0,1,744,360.66c14.48-5.44,28.74-11.44,42.94-17.59,14.66-6.35,30.28-7.64,46.08-8.22,28.91-1.07,57.75,2.34,86.7.54C928.91,334.82,938.48,337.31,948,336.62Z" fill="#1b1410"/><path d="M705.42,333.15c.32-1.39.63-2.78.94-4.18l-.22.14c-4.65-.78-8.76-3.06-6.91-8.24,3.1-8.7,1.92-17.63,2.77-26.42,2.06-21.39,2.69-42.89,3.47-64.37.11-3,1.56,1.17,1.8-.44.48-9.75,1.21-19.53-2.87-28.83-2,8.4-7,16.14-5.6,25.24,1.1,7.2-2.93,13.41-3.62,20.41-.76,7.67-.64,15.5-1.94,23.25-1,6.13-3,12.28-3.34,18.14-.51,9.11-3.91,17.45-4.53,26.29-.67,9.61-6.4,17.55-8,27-.64,3.83-6.26,7.51-6.11,13.08.05,1.76-1.7,4,.16,5.14s3.82-.82,5.56-1.92c8.67-5.51,15.94-12.66,23.12-19.9C701.77,335.88,703.23,334.1,705.42,333.15Z" fill="#43332d"/><path d="M431.11,771.67c5.72-1.92,12.2,1.93,17.95-3.14,1.41-1.25,7.06,2.66,11.49,1.51,1.19-.31,2.68,3.45,1.93,5.35-2.29,5.82,1.65,5.83,5.2,6,7.77.27,13.35,4.32,17.79,10.23,5.46,7.26,10.66,14.72,16,22,2.4,3.26,5.92,4.3,9.75,4.57,3.07.22,4.71-.79,4.79-4.29.15-6.77,4.25-9.63,10.57-7.52,2,.66,3.86,2,5.3-.73-6.41-6.15-9.36-14.47-13.64-22-2.43,1.33-4.62,2.78-7.53.49-7.74-6.11-17.43-8.08-26.36-11.39-6.15-2.29-11.31-4.66-14.77-10.39-1.46-2.41-2.81-5.61-6.77-4.33-4,1.75-7.82,3-12.06.09-2.53-1.71-3.14.11-3.61,2.77-1.06,5.91-4.61,7.29-9.18,3.68s-4.48,2.82-7.55,3.21C427.68,768.16,429.81,770.46,431.11,771.67Z" fill="#5e4335"/><path d="M529.69,522.32c3.36,3.09,3.57,6.77,1.86,10.7a302.2,302.2,0,0,1-17,33.51c-7.68,13-18.24,23-28.54,33.51-6.14,6.28-12.5,11.35-20.4,15-6.37,3-9.87,10.8-17.74,11.5-5,.44-9.59,3-15.2-.31-3.95-2.32-9.95-.24-14.84-2-7.52-1.83-15.5-1.51-22.7-4.86-2.23-1.07-4.06-3.3-7-2.49a2.4,2.4,0,0,0-.31,2.14c2.54,3.91,6.74,4.88,10.77,5.65,4.86.93,9.55,2.21,13.61,5,10.45,7.18,23.34,7.2,34.58,12.17,5.12,2.27,10.83-2.63,12.63-9.48,13.58-13.57,30-24,42.24-39.1,5.86-7.26,12.9-13.66,18.09-21.36,6.09-9,12.15-18.56,15.62-28.77a34.82,34.82,0,0,0-4.11-30.53Z" fill="#5b463d"/><path d="M462.85,758.07c.44.14,1.16.17,1.27.45,5.76,13.76,19.76,15.26,30.93,20.69,5.84,2.83,12.42,3.48,17.58,8.53,3.16,3.1,5-.77,5.65-4-2-3.9-2.58-8.62-6.64-11.29-1.16,3.74-3.18,4.66-6.81,2.72-2.82-1.5-6.18-2-9-3.49-18.29-9.83-37.75-18.23-48.51-37.79-1.85-3.35-3.73-3-6-1.11-2.63,2.2-5.05,3-7.54.09.92-3.25,5.88-1.9,6.34-6.43-6.48,1.47-11.72,6.48-18.51,5.21,1.44,1.44,1.73,3.9,4.24,4.07-1.21,2.93-4.25,1.17-5.65,3.36.32.35.63,1,1.11,1.17,5.31,2,11.53-1.69,16.6,3,2.6,2.42,4.83,3.88.47,6.47-1.08.64-2.78,1.47-1.69,3.17,1.28,2,3,1,4.11-.18,3-3.12,6.07-2.46,9.37-.84C454.39,753.94,458.62,756,462.85,758.07Z" fill="#3a2a23"/><path d="M505.82,567.07c1.87,1,3.76,2.2,5.18-.62a32.24,32.24,0,0,1,1.6-3.09c7-10.64,7.14-10.9-4.16-15.23-4.52-1.74-7.48-6.57-11.56-7.26C485.4,538.94,479,529.71,470,524.4c-5.2-3.08-10-5.81-13.43-10.76-.56-.79-1.55-1.38-2.31-.57a2.85,2.85,0,0,0-.54,2.47c.85,2.16,2.19,4.16,1.2,6.64a151.52,151.52,0,0,0,30.67,25.38C493.51,552.48,501.3,558.26,505.82,567.07Z" fill="#5b463d"/><path d="M459.86,424.79c.68-1.68,1.38-2.54,3.57-1.58a46.39,46.39,0,0,1,12.65,8c4.3,3.92,8.11,6.23,12.7.66,1-1.22,2.55-.71,3.9-.54,1-.27,1.08-.75.37-1.45-8.06-6-14.93-13.42-22.95-19.56-5.32-4.06-7-11.4-10.48-17.18-2.64-.63-5.1-6.46-8-.24-.38.8-1.19-.12-1.65-.52-4-3.45-5.5-1-6.5,2.75.23,1,.45,2,.67,3.05,1.68,4.82,5.57,8.25,7.85,12.69C451.51,417.29,455.07,421.39,459.86,424.79Z" fill="#6c574c"/><path d="M410.39,842.42c-3.84.86-7.71,1.62-10.38,5-1.87,2.34-4.14,1.55-6.31.64-4.54-1.92-17,.18-20.35,3.48-1.63,1.59-.59,3.45.22,4.4,3.22,3.77,5,8.83,9.77,11.24,3.44,1.75,5.44,4.74,4.85,8.49a7.35,7.35,0,0,1-6.92,6.63c.78,2,1.55,3.9,2.33,5.84,1.8,2.53,3.2,5.46,6.43,6.57,1.38,1.3.82,4.39,4.59,4.24-2.75-6.67,6.21-11.34,2.78-17.94-5.24-10.12,2-18.57,3.05-27.82C401.08,847.51,408.06,847,410.39,842.42Z" fill="#382c24"/><path d="M388.08,618.43l.25-1.47c.27-3.61-3.55-3-5-4.9-1.51-5.95-5.92-9.81-9.55-14.4-7.79-9.87-10.54-21.79-11.18-34.22-.06-1.16.18-2.3-.82-3.18-.81-.68-.59-1.68-.81-2.55-.37-1.5-.3-3.73-2.57-3.33-1.39.25-1.77,2.08-1.74,3.51.19,7.44-1.12,15.05.8,22.29,3.16,11.93,5.56,23.66.2,35.57-.57,1.27,0,2.78-.18,4.17,1.41,3.12.65,7.29,4.43,9.26,5.36-.56,10.34-2,13.66-6.7C378.77,617.94,383.88,619.65,388.08,618.43Z" fill="#4f3b33"/><path d="M424.14,725.14c2.87-4.49,7.7-4.3,12.09-5.17-.05.93.14-1.38-.39-.61,0,0-.39-.13-.59-.2,10.44-1.54,14.16-10.46,19.3-17.82l3.19-2.38c.32-8.39,2-16.9-2.08-24.91-1.71-3.4,1.44-4.26,2.92-6-8.29-1.39-7.52,6.15-7.85,9.93-.44,5.21-1.66,8.73-6,11.55-3.91,2.55-7.61,5.55-5,11.24a2.17,2.17,0,0,1-1.17,2.94c-6,2.55-10.48,7.12-15.59,10.88-1.23.9-2.77.66-2.75,3,0,4.11-3.5,1.64-5.3,2.34-2.37.9-2.41-1.31-2.65-2.9-.41-2.73-.83-5.47-1.24-8.21-1-.36-2.29,0-2,.86,1.15,3.58-1.67,4.89-3.43,6.84-.05.45-.08.9-.1,1.36.39,4.94,3.14,7.35,7.86,6.2C417.21,723.13,420.58,724.48,424.14,725.14Z" fill="#44372f"/><path d="M539.57,930.06l4.26-7.58c-.74,10.1-10.77,16.94-5.18,27.08,2.32-1.1,1.16-3.42,2.07-4.74,1.93-2.81,1.11,1,2,.94,2.47-1,2.84-3.71,4.49-5.38.84-1.77.25-3.11-1.22-4.22-3-2.24-1.61-4.88-.64-7.47,1.44-7.21,6-13.81,4.67-21.51-3.07-18,3.79-34.21,9.07-50.6,2-6.32-1.81-10.69-2.76-16-1,2.73-3.19-.5-4.43.94l-.81,5.41a170.34,170.34,0,0,1-3.89,18c-2.57,9.55-2.8,19.71-3.33,29.67-.25,4.86-.55,9.74-.45,14.63a18,18,0,0,1-3,9.86c-1.7,2.75-3.42,5.57-3.06,9.07C537.69,929.27,537.75,930.76,539.57,930.06Z" fill="#8f6b57"/><path d="M371.67,658.82c6.55-.3,12.61,3.16,19.14,3.89-6.57,6.12-4.21,17.34-11,25.1,5.28-2.92,6.08,12.44,12.84,2.77-.61-2-2.64-1.82-4.24-2.72,2.15.55,4.08,1.46,5.91-.18h0a4.27,4.27,0,0,0,1.69-4.93c-3.4-10.52-1.65-20.36,3.6-29.8.2-1.49,1.19-3.11-.72-4.24-9.81-6-19.68,0-29.52-.15-3,0-5.07.9-3.59,4.56C366.38,656.47,367.28,659.46,371.67,658.82Z" fill="#655046"/><path d="M707.27,229.64c-1.5-1.07-.8-2.94-1.78-6.09-3,15.27-3.23,29-3.33,42.75-.06,8.16-1.69,16.11-1.78,24.28-.07,6.41-1.58,13-.91,19.41.58,5.55-4.56,9.45-2.7,15.25,1.65,5.16,4.34,6.76,9.37,3.87-1-16.35-2.83-32.61-.17-49.09,1.38-8.57.31-17.55.35-26.35-1-5.3,2-10.31,1.14-15.6C708,235.24,708.83,232.42,707.27,229.64Z" fill="#1e1819"/><path d="M358.29,620.7c1.07-7.48,5.57-14.08,4.83-22.2a43.67,43.67,0,0,0-1.75-9.41c-3.58-11-2.61-22.24-3.07-33.59,2.33.92,1.21,4.09,3.51,4.76q-1-7.9-2.06-15.83c-3-.33-3.47,2.11-3.81,4-1.24,6.79-3.33,13.5-2.66,20.54.34,13.42-.49,26.84.67,40.26.41,4.79,2.2,8.95,3.73,13.3A1.28,1.28,0,0,0,358.29,620.7Z" fill="#755c4d"/><path d="M712.13,377.18c-8.51-.41-15.21,4.69-22.17,8.21-6.61,3.35-12.21,8.75-18.19,13.33-1.17.9-2.34,2.07-3.49.64-1.29-1.6.5-2.49,1.52-3.23,7.64-5.53,15.34-11,23-16.47-2.87-3.11-5.72-2-8.57,0l-3.11,2.43c-7,5.59-13.48,11.84-21.24,16.44-4.6,2.73-6.16,9.2-11.49,10.63-5.8,1.56-8.39,5.78-11.07,10.3,4.56,2.65,7-1,9.89-3.36,1.52-1.24,2.37-4.73,5.08-1.36,2.77-1.2,3.87-3.72,5.19-6.2,2.58-4.9,6.63-7.4,12.29-6.78,4.32-.75,7.64-3.41,10.59-6.29C689.45,386.66,701.57,383.32,712.13,377.18Z" fill="#2e221c"/><path d="M358.29,620.7c-.21.61-.41,1.21-.61,1.82-1.06,11.22.19,21.81,8.16,30.59.38-1.52.81-4.19,2.56-3.16,3.42,2,6.39.4,9.1-.52,6.81-2.29,13.24-2.95,19.72.82.93.54,1.5-.63,1.73-1.55-9.29-4.34-18.57-8.7-27.9-13-1.9-.87-3.79-1.63-4.89-3.56-.57-1.81-1-3.78-3.6-3.5Z" fill="#775849"/><path d="M702,193a120.86,120.86,0,0,0-6.34-25c-4-3.11-5-7.55-5.26-12.3-2.64-2.9-6-7.47-9.51-5-3.86,2.74.31,6.87,1.94,10.19,3.82,7.81,2.52,16.77,5.49,24.76,1.19-.5,1.42-1.57,1.55-2.78.44,1.35,0,2.59-.08,3.84-.63,7.11-.21,7.73,6.35,5C698.94,190.63,699.63,195,702,193Z" fill="#7e6858"/><path d="M255.18,858.51c1-3.27,4.08-2.46,5.73-2,7.71,2.25,13.24-1.86,18.93-5.78,2.28-1.56,4.39-3.42,6.75-4.84,8.64-5.17,8.66-5.12,3.85-14.77a170.74,170.74,0,0,1-30.22,9.27c-4.16.82-7.31,2.71-7.49,7.56C252.36,851.77,252.63,855.41,255.18,858.51Z" fill="#5b4637"/><path d="M638.5,355.73c-.84-11.18,4.3-20.55,8.94-30.07,3.33-3.17,2.29-7.05,2-11-.46-7.68-2.81-15.28-1.13-23.06a6.09,6.09,0,0,0,0-2c-1.41-4.14-2.82-10.07-8-8.59s-1.29,6.62-.82,10.2c2.12,15.87,4.76,31.63-1.52,47.39C636,343.85,637.17,350,638.5,355.73Z" fill="#7e6858"/><path d="M237.87,831.71c.2-.1.59-.21.59-.32.06-9.84,8.81-15,12.29-22.93A16.33,16.33,0,0,0,252,806c1-4.24,1.6-8.86-2.82-11.21-3.75-2-6.64,1.54-9.22,3.82-.84.75-1.19,1.72-2.52,1.41-7.14,5.07-9.72,16-5,23.17C234.28,826,234.24,830.06,237.87,831.71Z" fill="#483b31"/><path d="M443.36,366.68c-1.41-8.39-5.79-15.91-6.63-24.56-.4-4-1.52-8-2-12.11-.31-2.77-.31-6.34-4.56-6.61-1.23,11.38,2.07,22.2,3.8,33,1,.68-.9.61-.07.18-2.14-2.63-3.57-3.12-3.45,1.15,2.25,8.65,3.66,17.53,7.42,25.79,1,2.1,1.2,4.39,3.53,5.5,2.9-5.64-1.23-11.55.64-17.29C442.59,370.12,441.6,368.05,443.36,366.68Z" fill="#7e6858"/><path d="M824.51,432.71c1.52.49,3.67.51,4.44,1.56,5.07,6.91,12.44,7,19.76,7.17,9.48.27,18.71,2.27,28,3.79.19,0,.5.12.54.25.31,1.1-.81.64-1.16,1,5,3.23,10.82,3.14,16.44,3.77.69-1.7-.07-2.83-1.44-3.72a44.53,44.53,0,0,0-17-5.23c-5.77-.56-9.79-6.87-16.3-5.12-8.73-.22-17.8,2.26-25.65-4.42C831,430.84,826.84,430.41,824.51,432.71Z" fill="#5d483e"/><path d="M443.36,366.68c-4.66-2-3,2.11-3.09,3.61A63.86,63.86,0,0,0,441.42,389q1,3,2,6.09c1.84-2.41,3.59-5.23,6.2-.63.67,1.18,1.95,2.46,3.33,1.63,1.75-1.06-.58-3,.63-4.6,2.2-1,3.69,2.19,6,1.61C453.47,384.78,447.24,376.46,443.36,366.68Z" fill="#7e6858"/><path d="M648.36,291.63c-2.61-1.49-2.88-.42-2.79,2.15.36,10.64,3.38,21.13,1.87,31.88,1.75,4.41,1.58,8.95.68,13.46-.69,3.51-.08,6.37,3,8.48.19.64.51.75,1,.24a1.61,1.61,0,0,1,.89-.13C652.2,329,654.41,310,648.36,291.63Z" fill="#3f3632"/><path d="M439.12,495.66c1.35-4.37-1.77-7.37-3.33-10.82-.74-1.65-2.38-3.36-.22-4.82,1.7-1.15,2.91.46,3.94,1.72,1.15,1.44,2.16,3.06,4.33,3q-3.75-7.71-7.48-15.42c-3.8-2.05-4.92-5.75-5.91-9.59-.77-3-.74-6.37-3.41-9.24-2.23,1.74-2.05,3.9-1.84,6.08C425.26,471.25,431.4,483.74,439.12,495.66Z" fill="#6c574c"/><path d="M702,193l-3.79-4.83c-2.15-.61-1.59,1.77-2.59,2.45-1.28.86-2.28,2.74-4.1,1.67-1.45-.85-.72-2.53-.54-3.84.35-2.53.78-5-1.26-7.71-.54,1.93-1,3.45-1.4,5,1,11.33-.11,22.6-.88,33.87,3.19-6.18,2-14.84,10.26-18.22,1.63-.66,1.37-2.65,1.17-4.34-.38-3.34,2.08-2.1,3.7-2.16C703,194,702.56,193.46,702,193Z" fill="#6c574c"/><path d="M857.78,436.22c3.38,1.28,8.59-.56,9.17,5.49,0,.13.37.3.59.33,8.22,1.06,16.15,3.4,24.13,5.53,4.27,3.48,10.41,1.38,14.65,5,1.45.27,3.13.22,3.49-1.35.45-2-1.49-2.95-2.88-3.39-11.16-3.51-22.2-7.57-33.77-9.49C868.07,437.47,863.31,433.71,857.78,436.22Z" fill="#6b5549"/><path d="M425.2,456.58c.42-1.47.85-2.93,1.42-4.92,1.38,5.06,2.8,9.47,3.74,14,.77,3.65,2.85,4.35,6,3.68-2-8.48-5.45-16.65-5.67-25.52-.07-2.45-1.37-4.38-2.31-6.48-.5-1.13-1-2.17-2.38-2s-1.67,1.41-1.63,2.59C424.62,444.12,424.92,450.35,425.2,456.58Z" fill="#7e6858"/><path d="M895.63,300.06c3.72.6,5.71-2.17,8.2-4.1,2.1-1.62,3.8-4.16,7-3.8,4.95-7.55,12.65-13.39,14-23.19.12-.84,1.56-.05,2.3.42.79-3.56.19-5.11-3.7-2.94a21.25,21.25,0,0,0-9.68,12.92c-2.22,8.82-9.41,12-14.62,17.43C898,298,896.8,299,895.63,300.06Z" fill="#6b5549"/><path d="M759.88,429.71c10.27,1,20.11,1.19,30.42-2.43a106.3,106.3,0,0,0,29.17-15.13c1.43-2.86,5.12-4.39,4.81-8.28a2.44,2.44,0,0,0-1.06-1.59c-5.55,4.4-9.41,10.37-15.71,14.32a77.58,77.58,0,0,1-42.28,12.28C763.41,428.87,761.5,428.39,759.88,429.71Z" fill="#6b5549"/><path d="M252.73,848c3.94-8.16,12.82-5.51,19.08-8.69,4.61-2.35,10-3.13,15-4.76,1.63-.53,3.8-.78,3.65-3.38-1.48-.66-2.92-1.29-4.6-.5-7.75,3.65-16.34,4.53-24.35,7.34-4.82,1.9-9.27-2.27-14.06-.9C252,839.67,252,839.67,252.73,848Z" fill="#5b524d"/><path d="M845.26,377.77c-2.39-3.33-3.64-.78-5.19,1-5.09,5.7-9.84,11.6-13,18.7-.81,1.84-2.55,3.26-3.86,4.86l.45.81c.17,3.05.25,5.83,4.58,3a14,14,0,0,0,5.44-6.11C837.18,392.41,841.4,385.19,845.26,377.77Z" fill="#6b5549"/><path d="M430.47,357.75c.52-1.2.86-3.15,2.47-.85,1.11,1.59.56,4.18,3.79,5.53-2.24-13.4-4.39-26.22-6.54-39-2.37.8-2.35,3.08-2.06,4.68C429.9,337.9,428.06,348,430.47,357.75Z" fill="#876f5f"/><path d="M845.26,377.77c-3-.37-3,2.43-3.87,4.05-3.5,6.49-6.5,13.28-10.4,19.5-1.13,1.81-3.1,9.23-7.32,1.76-.16,3.61-4.74,5.14-4.2,9.07a11.79,11.79,0,0,1,1.18.12q3.42-2.2,6.83-4.42c2.25-1.45,2,.37,2.12,1.65C835.27,399.15,842.51,389.58,845.26,377.77Z" fill="#49382f"/><path d="M497.59,979.37c4.49,2.7,7.07,1.14,6.64-3.83-.49-5.68,1.48-10.87,2-16.31.51-1.22,1.37-2.65-.05-3.59-1.86-1.24-3.82-.86-5.52.62C501.78,964.25,498.28,971.62,497.59,979.37Z" fill="#775d4e"/><path d="M390,894.68c-1.23-3.1-3.81-4.85-6.43-6.57,5.58,13,5.68,27.89,13.85,40.1,2.34,3.5.43,8.82,3.55,12.46-.34-6.06-.58-11.49-3.69-17.66C393.07,914.6,388.29,905.16,390,894.68Z" fill="#382c24"/><path d="M353.28,569c2.49-8.08,2.81-16.75,6.47-24.53.33-2.34-.51-4.63-2.66-5-2.76-.49-2.85,2.7-3.54,4.37C350.11,552.08,351.9,560.55,353.28,569Z" fill="#7e6858"/><path d="M541.8,852c.2-4,.4-8.06.61-12.46,2.46,2.36,1.45,5.63,3,7.77,1.06,1.45.91-.59,1.43-.85-.36-5.46,0-11-1.58-16.33L544,835c-2.86-1.17-4.15-4.79-7.63-4.35C534.21,838.82,536.82,845.73,541.8,852Z" fill="#725140"/><path d="M416.63,967.38c-1.75-4-3.75-7.72-7.13-10.61-4.12-3.53-3.78-9-3.74-13.33.06-5.77-2.4-3.3-4.77-2.75C403.53,951.18,404.87,962.37,416.63,967.38Z" fill="#4e3e33"/><path d="M443.82,484.73c.42,1.3.51,3.43,1.33,3.77,7.82,3.29,10.23,10.95,13.81,17.44,4.11,7.44,12,6.6,18.11,9.68-.59-.67-1.06-1.75-1.78-2-11-3.11-16.69-11.26-21.6-20.92C451.93,489.28,447.19,487.35,443.82,484.73Z" fill="#5b463d"/><path d="M494.75,456.85c-5.17-1.67-6.69-8.89-13.08-8.7l28.44,27.08a3.34,3.34,0,0,0,1.27-1.6C508.49,465.38,502.18,460.55,494.75,456.85Z" fill="#6c574c"/><path d="M689.18,441.86c11.6-1.24,22.79-5.07,34.51-5.59,1.66-.07,3.16-.85,3.36-2.9-11.76-1.49-22.14,5.13-33.56,5.76C691.82,439.23,689.68,439.47,689.18,441.86Z" fill="#6b5549"/><path d="M442.63,997c1.74,1.22,5.81-2,5.57,3q3.89-7.92,7.79-15.84a1.56,1.56,0,0,0,.61-1.06c0-.42,0-.64-.05-.65-5.73-1.35-5.86,4.52-8.63,6.93-3,2.58-1.92-.12-2.12-1.35-.13-1.71-.11-3.5-2.23-4.08l-3.63,14.42Z" fill="#4e3e33"/><path d="M502,436.84c6,8.14,16,11.61,22.55,19.08l5.47.93c-6.28-7.83-16.11-11.27-22.81-18.66C506.17,437.07,503.74,437.26,502,436.84Z" fill="#604a3f"/><path d="M744,360.66c-8.29-1.09-12.93,6.19-19.59,8.92-3.41,1.4-8.44,1.71-9.73,6.73C724.53,371.26,735,367.35,744,360.66Z" fill="#2e221c"/><path d="M474.18,441.42c-2.81-7.26-7.85-12.56-14.32-16.62C462.66,432.06,468.82,436.39,474.18,441.42Z" fill="#6c574c"/><path d="M906.32,452.54c1.63-2.2.9-3.49-1.64-3.35-4.46.24-8.68-1.07-13-1.62l.87,2.72C897.21,450.56,901.47,453.38,906.32,452.54Z" fill="#5d483e"/><path d="M690.35,155.68a16.3,16.3,0,0,0-2.31.89c1.06,4.79,3.55,9,6.06,13.08.37.62,1.12-.94,1.51-1.67C694.17,163.74,693.68,159.1,690.35,155.68Z" fill="#66625f"/><path d="M452,410.87c-.2-5.75-4.88-8.68-7.85-12.69C443,404.73,447.47,407.81,452,410.87Z" fill="#7e6858"/><path d="M760.91,321.87c5.51,1.85,9.42-.22,12.17-5.08C768,316.08,764.39,318.77,760.91,321.87Z" fill="#6b5549"/><path d="M510.66,473.79l-.55,1.44,10.52,13.16.69-.39C522.36,482.1,518.63,477.13,510.66,473.79Z" fill="#42322b"/><path d="M247.43,837.08c4.77-1.05,9.11,4.89,14.06.9L242,835C243.27,837,245.88,835.66,247.43,837.08Z" fill="#5b4637"/><path d="M747.59,325.42c5.12,1.4,9.08-1.65,13.33-3.55C755.42,319,752,324,747.59,325.42Z" fill="#6b5549"/><path d="M430.74,989.31c-3.43,3.77-2.57,6.42.48,9.57C433.16,995.48,431.88,992.85,430.74,989.31Z" fill="#4e3e33"/><path d="M273.51,862.7c-6-1.93-12.63-1.17-18.36-4.28.83,5.28,5.56,2.52,8.3,3.77A13.1,13.1,0,0,0,273.51,862.7Z" fill="#5b4637"/><path d="M421.79,980.84c1.57-5.79-1-10-5.18-13.53Q419.19,974.08,421.79,980.84Z" fill="#4e3e33"/><path d="M685.09,234.92c.19-5.19,4.61-9.73,2.3-15.3C685.07,224.48,683.51,229.46,685.09,234.92Z" fill="#6c574c"/><path d="M493.05,429.88c-.12.48-.24,1-.37,1.45,3.08,1.86,5,5.75,9.27,5.5C500.37,432.72,496.72,431.28,493.05,429.88Z" fill="#6c574c"/><path d="M383.36,612.06c.64,2.69,4.1,2.46,5,4.9l6.76,2.42C392.1,615.45,388,613.28,383.36,612.06Z" fill="#4f3b33"/><path d="M707.46,238.07c-.57,5.18-3,10.24-1.14,15.6C708,248.56,708.92,243.4,707.46,238.07Z" fill="#1e1819"/><path d="M481.7,448.17c-1.23-3.75-4.57-5.11-7.6-6.82C474.85,445.63,478.11,447.09,481.7,448.17Z" fill="#6c574c"/><path d="M362.56,628.67l3.6,3.5c7.14-.7,14.28-1.43,21.42-2.08a7,7,0,0,1,3.41.35c10.77,5,22.25,6.77,33.92,8.12,4.66.55,9.44,2.12,9.63,8.75.08,3.21,6.11,3.66,10.28,1.13,7-4.27,14.64-7.31,21.66-11.7,4-2.5,6.49-5.59,9.12-9-1.53-2.9-3.18-2.14-5.25-.46-3.19,2.59-6.7,4.7-10.94,5.1-7.33,9.47-7.84,9.58-19.17,4.39a8.17,8.17,0,0,0-2.67-.65,48.08,48.08,0,0,1-23.94-8c-7.8-5.35-18-3.91-25.55-9.64-6-2.8-11.2-1.78-14.64,4.06C370.88,626.83,365.42,625.29,362.56,628.67Z" fill="#3a2c25"/><path d="M572.17,521.76c9.26-13.06,23.68-20.49,34.4-32,4.27-4.58,7.35-10.6,14.41-12.29,2.58-.62,4-4.35,4.09-6.94.67-13.43,6.42-24.78,13.53-35.67a1.77,1.77,0,0,0-.41-2.46c-8.69,8.37-17.38,16.76-25.12,26.07l1.07,1.48c-4.83,17.4-24.37,35.54-24.35,28.89C583.32,499.5,575.36,509.33,572.17,521.76Z" fill="#6b5549"/><path d="M399.67,652.94c-9,8.17-8.52,18.23-5.43,28.65a13.19,13.19,0,0,1,.14,6.08c3.8,1.34,7.27-.81,10.76-1.45,4.18-.78,4.11-6,2.22-7.73C399.41,671.35,400.62,661.91,399.67,652.94Z" fill="#3b2c25"/><path d="M405.57,716.52c4.92-.34,3.88-4.95,5.45-7.7,5.4-5,6-11.27,4.41-18-2.76,1.23-2.21,4.29-3.31,6.16-.44-5,3.17-10.05,0-15.2-1.37,8.14-6.81,9.33-13.66,8.12-.49.14-.71.37-.65.68s.17.5.3.52c8,2.1,8.51,3.55,7.17,11.12-.54,3-4.91,7.64,2.1,10.16C410.12,713.34,402.25,713.35,405.57,716.52Z" fill="#634c3d"/><path d="M412.08,681.74c.05,6.8-3.37,13.51-.83,21.22,4-3.8,2.78-8.44,4.17-12.18.54-6.94.68-14,4.59-20.12.53-1.53-.06-2.19-1.61-2.1C414.45,672.06,414.21,677.36,412.08,681.74Z" fill="#9d7761"/><path d="M515.93,585.62c-7.73,4.85-13.67,11.1-15.76,20.38,8.52,1.14,8.48-7.34,12.24-11.41C514.43,592.4,514.81,588.66,515.93,585.62Z" fill="#3a2c25"/><path d="M500.18,606c-7.75,1.3-12,6.57-14.76,13.41C492.92,617.81,497.79,613.29,500.18,606Z" fill="#3a2c25"/><path d="M418.4,668.56l1.61,2.1c1.51-1.76,2.81-3.79,4.58-5.23C430.25,660.8,436,655.92,444,663c-3.34-7.28-5.71-8.42-11.63-5.44C427,660.26,421.54,663,418.4,668.56Z" fill="#6c5b50"/><path d="M494.83,640.66c-8.75.13-15.72,4.63-22.61,9.32C480,647.46,488.92,647.77,494.83,640.66Z" fill="#251a14"/><path d="M398.07,691.06a7.17,7.17,0,0,0,.35-1.2c-1.52-.43-3.28-.38-4.07-2.18-2.86.38-5.45-2.75-8.65-.69,1.63,2.82,4.49,2.85,7,3.59Z" fill="#3b2c25"/><path d="M428.82,805.4c-.1,2-1.21,3.92.87,5.81,5.37,4.85,2.68,10.19.26,15.2-1.09,2.27-3,4-5,.34-.68-1.27-1.81-2.51-3.16-.87-.9,1.09-1.12,3.14,0,3.91,6,4.28,2.47,8.7-.42,11.94-4.37,4.9-2.26,8.45,1.73,10.87,5.38,3.28,5.26,6.81,2.74,11.7s-6,8.85-7.74,14c-1.6,4.69-1.41,8.32,3.91,10,4,1.28,6,3.89,6.38,8.14.73,7.4,3.28,13.25,10,18,2.69,1.91,4.95,9.05,3.05,14.42-1.61,4.57-1.55,9.13-1.07,13.79.79,7.65,4.61,11.61,12,13,2.83.52,6.22-.29,8.21,2.82,1,.18,1.72-.87,2.35-.93,1.08-.11.15.9.05,1.32-1.84,7.73-2.48,15.66-3.89,23.48.06,2.44-1.4,6.12,1.47,6.82,3.06.74,3.23-3.24,4.05-5.42,2-5.25,3.85-10.53,6.69-15.37a27.29,27.29,0,0,0,2.95-21.55c-.66-7.43-3.54-15,1.46-22.1,1.5-2.15,1.36-5,.49-7.46-1.6-4.4-3-8.66-2.18-13.52.4-2.5-1.8-5.34-4.16-4-5.6,3.13-6.39-.78-7.77-4.36a12.44,12.44,0,0,0-.49-3.93c-.86-2.06-3-2.83-4.34-4.35-3.62-4.2-8.68-7.75-6-14.93,1.6-4.33-1.92-7.23-5.39-8.55-2.71-1-3.37-2.47-3.9-4.9-1.41-6.49-5.91-12-4.74-19.42.63-4,1-7.53,3.79-10.84,5.33-6.3,5.15-14,.17-19.7C437.82,805,433.84,803.23,428.82,805.4Z" fill="#5b493c"/><path d="M428.82,805.4c3.44,1.1,7.39.16,10.32,3.34,5.56,6,5.44,13.76-.6,19.74-3.29,3.25-5.07,17.34-2.05,21.73A27.51,27.51,0,0,1,441,863.92c.18,2.08-.21,4.08,2.86,1.35,1.88-1.67,7.57,3.9,6.19,6.27-2.24,3.86-3.54,7.2.62,10.36,2.84,2.15,2.53,7.24,7.27,7.67,1,.09,1.86,1.32,2.78,2,4.19-4.05,2.26-8.52.84-12.94-.91-2.85-1.65-5.78-3.52-8.48,2.47,3.72,5.69,4.48,6.76,0,1.25-5.33,5.37-8.1,8.39-11.61,2.41-2.8,4.87-5.35,5.74-8.77,2.62-.14,2.87,2.06,4.26,2.77,3.41,1.74,6,.38,5.82-3-.27-5.15.57-10.91-4.39-14.84-1.62-1.28-3.35-3-2.65-5.32s3.06-1.34,4.81-1.46c3.16-.21,3.47,2,4.19,4.37,1.88,6.22,1.87,13.84,10.37,15.71,1.38.31,2.67,1,3.82-.33,1.4-1.61,1.88-3.22-.19-4.71-4.67,1.28-4.46-2.81-4.59-5-.53-8.58-3.17-15.67-11.33-19.68-.19-.09-.47-.34-.46-.5.58-8.41-7.48-9.11-11.64-13.28-1.81,4.76-3,9.75-2.4,14.78.95,8,1.22,7.93-7,8.53.6-3,1-5.91,0-8.85-.87-2.54-.85-6.4-4.59-6-4.48.55-2.72,4.5-3,7.05-6.35-8.91-6.38-9.89-.43-18,3.72-5,9-5.21,13-.41,1.14,1.38,2,3.31,4.32,2.78,1.11-3.6,6.88-6.69,2.19-10.9-4.08-3.67-8.48-7.42-15.05-3.39-3.61,2.21-6-1.19-6.68-4.74-.63-3.13-1.56-5-5-3-1.86,1.06-3.05.26-3.8-1.57-.88-2.13,1.51-6.4-3.66-5.72-4.76.62-9.08,2.26-11.07,7-1.32,3.17-2,6.61-4.36,9.27C429,796,427,800.62,428.82,805.4Z" fill="#765f4e"/><path d="M278.38,827.62c6.73-1.44,13.36-2.55,20.17.26,4.51,1.85,9.63,0,13.48-1.55,8.22-3.29,17.5-2.07,25.19-6.81,2-1.23,4-.46,6.1-.24,6.07-4.29,12.91-2.15,19.32-1.77,4.76.28,9.41.86,14.16-.07,5.11-1,10.1-2.55,15.46-2.41,2.28.06,4.14-1.92,4.66-4.53,0-2.2,2-1.72,3.14-2.32.47-2.87.66-5.84,2.7-8.19-1.78-.2-2.7-1.66-4-2.6-2.63-1.92-4.54-3.3-6.2,1.77-1.23,3.77-3.95,9-10.38,5.14-1.62-1-4.42-1.92-5.59,2.5-.66,2.49-4.92,4.91-8.65,4.72-1.72-.09-4.17-1.25-3.88-3.29.55-3.88,3.56-.92,5.68-1.34-1.53-4.81-7.76-5.66-8.59-4.38-2.08,3.2-10.08,1.79-7.09,9,.75,1.79-1.58,2.11-3.79,2.25-2.75.17-8.34-7-8.44,2.45a7,7,0,0,1-2.49-.42c-3.92-2.36-7.7-3.29-11.31.52-2.11,2.23-4.29-.7-6.58.14-4,1.47-8.82.68-11.94,4.75a4.54,4.54,0,0,1-3.82,1.25,32.12,32.12,0,0,0-17.79.45c-5.41,1.79-9.83,0-13.46-4.06-1.19-1.33-2.47-2-2.95,0-.68,2.91-5.95,2.21-4.63,6,.74,2.15,2.39,2,4.38.47C274.23,823.15,276.91,823.9,278.38,827.62Z" fill="#544034"/><path d="M343.83,825c-2,1-5,1.62-4.07,4.65s3.89,2.47,5.88,1.3c4-2.36,7.56,2.12,11.38.37,1.4-3.2,6.51-5.67,4.27-9.28-2.87-4.64-7.53-.25-11.38,0C347.83,822.19,345.85,824,343.83,825Z" fill="#544034"/><path d="M424.14,725.14c-2.26-2.35-4.9-4.74-8.22-3.23-5.15,2.34-8,.11-10.45-4-2.83,1.74-2.44-3.18-4.83-2.27-1.09,5.24,3.54,12,10,14.46,2.09-3.63,5.78-3.62,9.25-4.11C421.38,726.16,422.9,726.37,424.14,725.14Z" fill="#634c3d"/><path d="M453.4,977c-.51-4.39,3.14-7,4.5-10.58-5.93.1-3.94,6.3-6.72,8.83C450.55,977.64,451.3,978.22,453.4,977Z" fill="#4e3e33"/><path d="M400.06,808.18c-1.49-1-3.08-2.59-4.71-.46-1.36,1.77.26,2.3,1.57,2.78A2.52,2.52,0,0,0,400.06,808.18Z" fill="#6c5343"/><path d="M684.25,379.69l8.57,0,10.92-6.86c6.59-3.3,14.35-4.16,19.86-9.7,2-1.78,5-2.12,6.34-4.74l-5.07-3.61c-9.82,2.52-17.16,9.47-25.49,14.63a46.58,46.58,0,0,1-9.54,4C686.75,374.43,684.58,376.21,684.25,379.69Z" fill="#42312a"/><path d="M652.06,347.84a8.24,8.24,0,0,0-1-.24c-.56,5.25-2.56,10.46-.15,16.34C656.21,358.62,653,353.13,652.06,347.84Z" fill="#604a3f"/><path d="M364.23,784.11c.12-4.08-.14-8.22.45-12.23.64-4.37,1.63-8.31-.26-12.92-1.71-4.18,4.21-5.25,6-7.89-2.11-3.46-5.37.44-7.17-2.14.63-7,8.64-3.23,11.4-7.65-4.81-3.11-8.57.4-12.6,1.14-3.69-1.38-6.06,3.36-9.72,2.09-3.95,0-7.44,1.56-10.86,3.33,2.55,2.21,3.11,5.68,5.08,8.38,1.87,2.54-2.32,5.22-4.73,6.44-4.22,2.13-5.74,4.68-2.81,8.6,2.09,2.79-.4,1.85-1.45,2.68-6.3,5-13.84,6-22.21,7.25,4.11,2.71,7.5,5,11.84,3,1.66-.76,2.14-.56,3.06,1.06,2,3.57,5.87,4.27,9.35,3.67,2.08-.36,3.84-.19,5.15.82,4.07,3.13,7.36,2.52,10.35-1.39,2-1.95,1.55-4.52,1.82-7,1.58,1.71,3.07,3.83,5.95,2.57Z" fill="#89654e"/><path d="M362.88,784c-3.77-.63-4.94-4.31-7.68-6.59,1.55,3.8-1.13,7.33-.09,11C360.71,792.31,362.26,789,362.88,784Z" fill="#7c5e4c"/><path d="M341.48,747.84c4.37,1.44,7.68-2.24,11.71-2.43l.92-.71a11.82,11.82,0,0,0,1.35-9.89c-.15-.17-.3-.35-.46-.52-4.17,4.75-9.7,7.55-15,10.73-.76.46-.46,1.71.05,2.57l.06.07Z" fill="#56473c"/><path d="M510.66,473.79c3.43,4.83,10.31,7,10.66,14.21,4.54.39,8.16-3.3,6.85-7.46a112.24,112.24,0,0,0-5.64-14.27c-1.64-3.44-4.33-5.52-8.52-6.35-4.53-.9-9.34-2.55-13-5.29-4.24-3.2-5-.81-6.29,2.22C499.93,462.62,507.05,466.53,510.66,473.79Z" fill="#251d17"/><path d="M340.07,747.59c.47-2.24,2.38-4.67,3.91-4.17,8,2.56,8.31-3.43,9.95-8.2.11-.32.75-.44,1.14-.66a5.84,5.84,0,0,0,3.24,1.87c2.11.39,3.93,1.71,6.08,2,2.7-1.87,4.17-5.77,8.48-5.09,1,.16,1.61-.93,1.2-2-.32-.83-1-2.28-1.35-2.23-8.66,1.44-16.69-2.83-25.15-2.69-1.51,0-3,1.16-4.48,1.78-5.26,5.91-4.34,14.77-9.76,20.63a2,2,0,0,0,.43,3.06c1.19.78,2.16.18,3-.76C337.86,749.94,339,748.77,340.07,747.59Z" fill="#413229"/><path d="M364.39,738.44c-.84-2.66-2.78-3.49-5.34-3.32-5.2,1.56-3.07,7.34-5.87,10.29h0c4.32,3.1,5.6-2.95,8.87-3Q363.22,740.43,364.39,738.44Z" fill="#b0917c"/><path d="M505,842.88c.61,1.69-.22,4.51-1,4.1-2.84-1.56-7.84-1.21-8.31-4.66-.62-4.63-4.62-8.35-3.17-13.3.48-1.65-.49-3.67-1.36-3.35-3.71,1.36-7.86-1.58-11.18,1.26-1.9,1.63-.57,3.48.43,5,2.92,4.43,7.75,7.81,6.74,14.25-.31,2,2.37,5-1.19,5.77-2.86.66-3.54-2.26-4.21-4.51-.2-.65-.43-1.28-1-2.9-1.75,3.43-5.51,4.67-4.71,8.92.24,1.32-.93,2.6-2,2.25-4-1.31-2.57,2.65-3.61,3.42-4.59,3.39-7.52,7.56-7.55,13.59-3-1.33-2.65-3-3.2-4.21a2.62,2.62,0,0,0-4.05-1.25c-1.78,1.13-1.18,2.7.07,4.11,5.17,5.85,6.73,12.63,5,20.22l-.51,4.08c3.74,1.43,7.55.32,11.3.2,6.67-.23,2.32-6.48,4.9-8.91.43.61-.8,1.17-.67,1.92.62,3.55-1.64,8.61,4.29,9.52,3.77.57,5.89-3.54,5.48-10.2,4.64,2.92,8.33.85,11.85-2,0,4.43,0,4.43-2.33,6.65-5,4.78-6.09,9.66-3.57,15.63.73,1.74,1.43,3.85,3.53,3.95,2.36.11,2.29-2.51,3.16-3.92,3.2,4.11-.08,9.14,1.91,13.45,3.26,4.85,2.11,10.24,1.9,15.52,2.24,4,3.6,1.41,4.3-.83a54.41,54.41,0,0,0,2.48-16c.52,6.25-1.08,12.19-2.8,18.12-1.25,4.26-2.64,8.58.74,12.59,2,1.47,2.56-.55,2.73-1.55,1.21-7.08,4.76-13.52,4.82-21,.12-13,4.24-25.87.34-38.87-2.34-3.79-3.6-7.28,1.08-10.57a8.28,8.28,0,0,0,3.14-8.17c-.67-4.21,2.39-4.22,4.79-5.08,1.66,5.52,3.15,11,5,16.43.59,1.73,1,4.41,3,4.14,2.65-.35,2.4-3.26,2-5.22-1.83-10.42-.92-21-2.45-31.47a39.52,39.52,0,0,1-.09-4.22c0-2-.71-3.19-3-2.37-4.13,1.5,0,3.86-.5,5.73-7.35.07-11.78-6.51-18.47-8C506.94,840.62,505.63,840.42,505,842.88Z" fill="#8f6b57"/><path d="M500.08,921.92c2.55-6.24,1.56-12.11-1.8-18.35-2.56,2.35-1.07,5.72-2.84,7.77-5.47-7.31-4.95-12.22,1.88-17.81,2.91-2.38,3.24-4.65,1.53-12.75-2,3.29-3.78,5.82-7.18,7.09-4.81,1.79-5.54-2.4-7.62-4.92-1.66,2.9.29,4.93.54,7.13.31,2.86-1.23,4.93-3,6.71a3.19,3.19,0,0,1-3.14-.23A7.41,7.41,0,0,1,476.9,890c.39-2,2.21-3.75.13-5.94-1.78,1.22-3.43,3.4-2.74,5.24,2.09,5.61-3.43,3.74-5,5.67-3.31-3.55-6,1.12-9.1.67-1.2,5.75,6.8,5.05,6.23,11.33,2.51-2.58.6-7.64,4.73-6.1,3,1.1.32,4.13.74,5.85,2.12,8.88,4.1,17.17-1,26.17-1,1.71-.6,8.75,1.34,13,.39-.22.94-.54.89-.87-.43-3.41,1.63-1.27,2.72-1.27a15.35,15.35,0,0,0,8.37-10.22l3.17,11.24c.47-6.8.8-11.65,1.13-16.49,2.69,11.48,4,22.94.94,34.49,6.78-2.45,3.55-8.22,4.15-12.72-.35-.87.93-.28,0,0-.27.09-.13.3-.08.7.22,1.81,1.17,2.31,2.81,1.77C493.71,941.86,498.64,932.1,500.08,921.92Z" fill="#775d4e"/><path d="M510.26,975.7c3.27-9.35,6.31-18.74,8.64-28.4,3.29-13.66,6.64-27.28,8.74-41.18-2.47-3-1.2-8.64-6.55-9.68-.15,0-.39.23-.54.4a1.08,1.08,0,0,0,0,1.22c2.34,7.82,1.44,15.09-.4,23.26-2.76,12.2-7,24.06-8.75,36.45-.65,4.75-5.08,8.44-3.33,13.66l-.09-.13C508.7,972.77,509.48,974.23,510.26,975.7Z" fill="#8f6b57"/><path d="M484.25,933.57c-1.64,4.66-7.5,5.61-9,10.39-1.83,7.11,1,14.2.07,21.32-.32,2.51-.65,4.42-2.56,6.67-4.28,5-4.31,11.93-5.51,18.22a5.41,5.41,0,0,1-.68,2.59h0c4,2.85,4.31-1,5.75-3.12,10.94-16.21,12.27-34.52,11.65-53.29A19,19,0,0,1,484.25,933.57Z" fill="#5c4a3f"/><path d="M520.5,898.06c5.53-.15,2.44,7.46,7.14,8.06-.19-4.81.63-9.68-.81-14.9-1,1.36-1.79,3.36-2.63,3.38-2,.06-1.15-1.91-1.3-3.16-1.09-9.19,2.57-18.33.23-27.53-2.23,5.46-3.63-3.37-5.92.85,1.92,5.43-.48,11-4.15,16.24l-3.47-2.55c.43,4.75,1,8.8,5,11.43.66-2.47-.91-5.13,1.11-8.38Z" fill="#8f6b57"/><path d="M521,951.74c-.19,1.38-.39,2.75-.59,4.13,1.84-.12,4.2-1.53,3.79,2.44-.57,5.45-.64,11-.93,16.45.23.78.66.93,1.31.44,6.32-5.86,3.14-13.55,3.77-20.47.31-3.43-.16-6.93-.28-10.39-.32-1.17.4-2.68-1.11-3.47C522.05,942.89,523.14,948.22,521,951.74Z" fill="#8f6b57"/><path d="M496.41,952.55c-2-.06-1.68-2.4-3-3.23-2.13,4.34-.18,9.76-4,13.49-3.92,5.7-.64,10.93.81,17.62C494.74,970.73,495.36,961.59,496.41,952.55Z" fill="#775d4e"/><path d="M515.74,977c3.07.6,2.72-1.94,3.29-3.63,0-2,.4-4.2-1.26-6.22C514.05,969.9,514.91,973.47,515.74,977Z" fill="#8f6b57"/><path d="M485.14,976.69c-.93,3.88-3,6.26-2.82,9.44C487.48,984.07,487.48,984.07,485.14,976.69Z" fill="#5c4a3f"/><path d="M454.55,701.34c-2.84-3.46-2.59.92-2.9,1.48-4.13,7.71-8.91,14.52-20.15,15.77l4.73,1.37C446.7,718.12,451.94,711,454.55,701.34Z" fill="#7a6558"/><path d="M531.15,845.7c.66,3.16,1.33,6.31,2.16,10.22,3.44-4.15,2.29-7.89,1.35-11.61A4.05,4.05,0,0,1,531.15,845.7Z" fill="#725140"/><path d="M534.61,841.77a14.48,14.48,0,0,0-1.3-7.56C528.53,837.63,531.52,839.71,534.61,841.77Z" fill="#725140"/><path d="M541.71,852c-4.9,11.37-3.9,23.67-5.58,35.54-1.16,8.22-3.87,16.17-3.43,24.69.23,4.56-6.55,6.89-4.35,12.7,3.29-1.6,2.12-6.75,5.85-8.15,1.25,4.38-1.85,7.6-2.53,11.37.76,4.68-3.31,9.37,0,14,.63.72,1.21.68,1.75-.11l.87-2.31a24.58,24.58,0,0,0,1.26-12.3,10.41,10.41,0,0,1,1.32-7.36c5.58-17,6.24-34.66,5.85-52.36C542.65,862.52,543.79,857.14,541.71,852Z" fill="#8f6b57"/><path d="M531.87,952.12c.75,3.85-2.84,7.63-.21,11.52,3.08-4,3-8.88,3.35-13.6-1.39-1.11-2,.27-2.76.93A3,3,0,0,0,531.87,952.12Z" fill="#8f6b57"/><path d="M723.6,363.1c-6.54,3.4-14.53,3.78-19.86,9.7C713.68,373.71,720.94,370.17,723.6,363.1Z" fill="#2e221c"/><path d="M264,855.66c5.49-1.63,11.47-3.15,16.07-7.77a2.19,2.19,0,0,0,.17-3.12c-.76-1-2-1.71-3-1.23-4.82,2.16-10.66-.08-15.12,3.83-1.63,1.42-5.22,1.52-4.77,4.16S261.12,854.4,264,855.66Z" fill="#926d53"/><path d="M241.93,806.14c-.54,1.44-1.67,2.63-3.07,2.39-7.47-1.27-6,4.54-6.51,8.43a4.71,4.71,0,0,0,3.6,5.3c2.75.72,2.44-2,3.21-3.55,1.18-2.31,3.11-4,4.89-5.79,3.14-3.23,2.62-5.72-2-6.77Z" fill="#261e17"/><path d="M242,806.15c.28-.35.58-.69.84-1.06,1-1.34,3.2-2.3,1.48-4.45a1.81,1.81,0,0,0-1.78.08c-1.56,1.59-3.6,3.26-.63,5.42Z" fill="#847b68"/><path d="M477,804.36c-.92-1-2.13-1.92-2.7-3.12-1.42-3-3.27-7.38-6.42-5.87-3.62,1.74-9.42.9-10.62,7.32-.76,4.11-6.9,7.45-3.29,12.13,2.64,3.42,4.19,7.55,7.43,11.21,2-3.41.21-6.22,0-9-.09-1.48-.11-2.95,1.83-3,1.44-.07,1.89,1.06,2,2.3.45,3.57,3.05,7,.4,10.75-1,1.46-1.28,3.27.21,4.44,2.34,1.84,2.5-.58,3.09-2,.53-1.21,1.18-1.06,2.11-.4,6.23,4.41,7-3.52,6.48-4.45-3.61-6.84,1.19-13.65-.59-20.29Z" fill="#8f6b57"/><path d="M353.18,745.41c3.62-2.47,2.86-7.47,5.87-10.29l-4-.56Z" fill="#89654e"/><path d="M361.39,728.28l-13.77-2.08L346,727.33c.94,1.84,3,2.13,4.44,3.3,1.25,2,4.63.42,5.39,3.28a2.24,2.24,0,0,0,.67,1.51,9.49,9.49,0,0,0,3.27,1.48c1.24.41,2.44.9,3.71,1.2a4.83,4.83,0,0,0,2.07-.18c4-2.45,3.3-5.64,1.41-9C365.35,726.05,363.48,726.2,361.39,728.28Z" fill="#4a3427"/><path d="M356.21,734.58c.07-.43.14-.87.2-1.31-1.47-1.66-3.74-1.24-5.53-2.19-2.68-1.42.8-1,.39-1.59-1.19-2.17-3.48-1.57-5.3-2.16l-2.88,1-3.65,5.09c-.43,2.78-.85,5.56-1.28,8.34s1.38,2.59,3.13,2.54a2.73,2.73,0,0,0,1.35-1.41c.06-2.19-2.3-4.91,1.36-6.3,3-.32,5.93-.37,8.87-.74a10.17,10.17,0,0,0,1.82-.3A3.42,3.42,0,0,0,356.21,734.58Z" fill="#38291f"/><path d="M339.82,749.12c.17-.89.35-1.78.52-2.67.73-.49,1.58-.86,2-1.77l-.21-.87c-1.52-.24-3.17-.22-3.92-2-2.62,2.67-4.24,5.73-3.91,9.7C336.74,751.72,337.42,748.44,339.82,749.12Z" fill="#3c322a"/><path d="M365.25,740.32a3,3,0,0,1-1-3,7.7,7.7,0,0,0-1-.4c-2.84,1.62-3.4,5.37-6.31,6.84-1-1.64.72-2.41,1.05-3.58a21.84,21.84,0,0,1,2.46-4.78l-4.2-.86a8.25,8.25,0,0,1-1.22.09c-3.27,2.87-3.51,6.68-3.25,10.64-1.18,1.74-4.56.47-4.76,3.55,5.22,4.65,9.91,2.24,14.54-1.09C363.33,745.58,366.62,744.13,365.25,740.32Z" fill="#82634f"/><path d="M360.41,735.44c-1.81.58-2.56,2.17-3.43,3.65a8,8,0,0,0-1.07,6.9c4.26-1.51,6.85-4.39,7.3-9C362.68,735.69,361.61,735.44,360.41,735.44Z" fill="#b0927f"/><path d="M351.27,729.49c-1.57,0-3.23-.6-5.19,1.41l10.33,2.37c3-.18,2.7-1.69.5-2.28C355.05,730.5,352.87,731.21,351.27,729.49Z" fill="#4e3d32"/><path d="M346.25,744.43l2.73.44c5.2-1.92,4.76-6.3,4.55-10.57l-10.13,1.22c-2.28,2-2.31,4.35-1.1,6.91-.06.46-.14.92-.22,1.38l0,0C343.33,745.17,344.84,744.44,346.25,744.43Z" fill="#3c322a"/><path d="M342.3,742.43c.37-2.31.73-4.61,1.1-6.91-1.27-1.71-2.44-1.34-2.78.51C340.2,738.31,338.44,741.2,342.3,742.43Z" fill="#281a14"/><path d="M353.53,734.3c-.55,3.94-1,8-4.55,10.57l2.76.44c2.82-3,2.22-7.07,3.25-10.64Z" fill="#594437"/><path d="M346.25,744.43c-1.08-2.35-2.71-.77-4.14-.58l-1.77,2.6C342.56,746.5,345.3,748.13,346.25,744.43Z" fill="#594437"/><path d="M355.91,746q.52-3.45,1.07-6.9c-2.53,1.57-2,4.55-2.83,6.83C353.73,747.06,355.22,746.59,355.91,746Z" fill="#a98973"/><path d="M243.87,795.34l-2.93.78c-4.6,3.86.81,4,2,5.67.67,1.33,0,2.76.3,4.11a8.82,8.82,0,0,1-.87,7.72c-.54,1.55-1.56,3.06-.37,4.74,2.65,1.73,4.56.41,6.33-1.54,1.51-2.18,3.91-3.88,3.89-6.94a6.79,6.79,0,0,0-1-2.72c-1.42-1.75-2.23-3.42.53-4.72a6,6,0,0,0,1.41-3.58,7.56,7.56,0,0,0-.22-2,5.52,5.52,0,0,0-1.72-2.48,6.55,6.55,0,0,0-1.84-.8C247.22,793.15,245.53,794.18,243.87,795.34Z" fill="#4e3d31"/><path d="M241.91,817.92c.65-1.37,1.29-2.75,1.94-4.12-5.74-.48-5.29,5.78-8.58,8-2.15,2.78,1.27,5.14.57,7.82.43,2.13,2.18,2.13,3.78,2.37,3.75-2.91,2.08-7.28,2.93-11A4.73,4.73,0,0,0,241.91,817.92Z" fill="#43382d"/><path d="M235.84,829.59c3.07-2.53-.78-4.7-.36-7.09,1.14-1.75-.23-3.07-.76-4.53-1.65-2.78,1.18-6.67-2.2-9l-.93.31C227.82,817.14,232,823.33,235.84,829.59Z" fill="#43382f"/><path d="M245.54,801.64c-.37-2-2-2.1-3.5-2.3-2.6-.34-1.88-1.75-1.1-3.22-3.33,1.41-3,3.73-5,5.11a6.49,6.49,0,0,0,.79,1.66c1.12,2.16,1.64,5.12,5.22,4.09a2.19,2.19,0,0,0,1-1.44C242.49,803.36,243.89,802.42,245.54,801.64Z" fill="#504138"/><path d="M241.38,820.5c-2,3.6-.29,7.78-1.76,11.46a4.49,4.49,0,0,0,2.17,3.12l.87-.52c1.18-.38,3,.14,2.86-2.08-.61-1.15-2-1.79-2.13-3.27a25.59,25.59,0,0,1,.17-2.61C243.68,824.26,243.9,821.88,241.38,820.5Z" fill="#605043"/><path d="M237.36,801.64l-1.46-.41c-3.12,1.76-4.92,4.24-4.31,8l.62-.2C235.68,807.82,239.07,806.53,237.36,801.64Z" fill="#43382f"/><path d="M240.94,796.12c1.92-.18,6.77-1.15,8.69-1.34" fill="#504138"/><path d="M242.44,805.5a3.71,3.71,0,0,1-.27,1c-5.62,2.35-9.51,5.93-8.93,12.71a4.79,4.79,0,0,1,2.24,3.25c5.34-.42,3.66-7.68,8.37-8.7,2.08-2.88,3.66-5.75-.13-8.54C243.18,804.76,242.76,804.87,242.44,805.5Z" fill="#201912"/><path d="M247,821.43c.27-1.86.55-3.72.82-5.58-1.73,1.33-3.41,2.8-5.86,2.07-.17.86-.35,1.72-.53,2.58a11.93,11.93,0,0,1,.39,7.28C245.91,827.66,248,825.85,247,821.43Z" fill="#6d5442"/><path d="M251.24,802.26c-1.48-.13-3.39-1.08-4,1-.82,2.62,1.81,3.17,3.21,4.43A3.65,3.65,0,0,0,251.24,802.26Z" fill="#2c201d"/><path d="M242.44,805.5a5.56,5.56,0,0,1,1.28-.24c.61-1.21,1.21-2.42,1.82-3.62-1.29-.61-2.7-1.22-3.73.21A2.47,2.47,0,0,0,242.44,805.5Z" fill="#9d947d"/><path d="M233.24,819.25c.62-5.93,5.85-8.55,8.93-12.71-4.45,1.2-1.43-5-4.81-4.9.63,4.13-4.31,4.33-5.15,7.42C234.34,812.27,230.47,816.1,233.24,819.25Z" fill="#332d26"/></g><g id="frame"><rect width="1000" height="1000" fill="none"/></g></svg>