<!-- Copyright (c) 2022 - 2023 Jan Stehno -->
<svg xmlns="http://www.w3.org/2000/svg" viewBox="0 0 1000 1000"><title>siberianmuskdeer</title><g id="siberianmuskdeer"><path d="M607.39,787.9c2.83-3-.27-5.89-1-8.16-1.47-4.84-2-10.58-6.95-13.88l-3.14,2.9c.44.78,1.25,1.11,1.91,1.63.84.67,1.48,1.47.89,2.59a2.14,2.14,0,0,1-2.21.93c-1.67-.07-3.4-.66-4.89.64-.67,3.25,0,5.92,3.22,7.54a9.77,9.77,0,0,0,1.91-.5c5.36-1.91,6.83-.7,6.13,5C604.41,787.79,606,787.65,607.39,787.9Z" fill="#b29f8c"/><path d="M603.3,786.58c2-.16,2.66-1.15,1.91-3s-.67-4-3.47-4.28-5,.36-6.48,2.82C597.4,784.55,600.42,785.44,603.3,786.58Z" fill="#766f68"/><path d="M592,774.55c1.17.12,2.37.15,3.51.38,2.31.47,5.08,1.32,5.55-1.94.42-3-1.62-4.51-4.76-4.23C594.46,770.37,591.9,771.48,592,774.55Z" fill="#67615e"/><path d="M624.31,757.89s4.94,3.44,2,4.37-19,3.57-19,3.57l.56,4.93L634.54,765c-.09,0-3.87-7.83-3.87-7.83l-6.48-2.13-.66,2.44Z" fill="#423e41"/><path d="M722.78,578.64c-5.23,4.89-12,7.56-17.67,11.81-5.08,3.8-10.45,7.12-15.39,11.21-4.48,3.7-9,7.2-13.23,11.31-6.73,6.57-12.88,13.23-14.87,22.72a1.57,1.57,0,0,0,2.26.21c2.18-1.34,3-.56,3.2,1.74a8.88,8.88,0,0,0,.72,4c2.5,4.32,1.73,7.63-2.73,10.11a4,4,0,0,0-2.18,3.28c-.14,5.15-3.63,6.35-7.84,6.73-1.9.18-3.5,1.2-5.66,1.79.05-5.83,0-11.32,4.24-16.08,1.6-1.79,3.91-3.93,2.82-7-.75.37-1.86.55-2.19,1.14-3.59,6.68-10.24,9.85-16.09,13.92-3.61,2.51-5.57,7.19-10.59,7.8-.12,5.81-6.11,4.77-8.84,7.47-7.93,7.83-17.87,13.31-25.68,21.1-3.51,3.51-8,6-10.77,10.31a1.94,1.94,0,0,0,2.21,1.62c2.37-.13,2.88,1.7,3.22,3.23,1.25,5.52,1.17,5.54,6.17,8.28-2.36,1.17-4.65,1.15-6.8,1.48s-3,1.39-3,3.35c0,2.29,1.26,2.66,3.32,2.57a5.29,5.29,0,0,1,5.81,4.41c-.09.68-.19-.15-.09.5.56,3.49-3.53,7.33-.74,10.05,4.11,4,9.25,6.92,15.45,7.29,5.5.32,10.91,2.56,16.51.54a3.72,3.72,0,0,1,3,.35c3.09,1.82,5.17.5,6.78-2.1,1.22-2,2.72-3.4,5.15-3.7,1-.13,2.08-.49,2.32-1.66.3-1.47-.83-2.12-1.87-2.67-2.67-1.4-5.83-2.24-2.65-6.36,1.24-1.61-.61-3.58-2.38-4.38-2.46-1.13-3.78-3.1-5.33-5.16-2.49-3.3-5.92-5.71-10.41-5.11-2.61.36-3.86-.48-4.36-2.89a5,5,0,0,1,2.35-5.67c1.53-1,2.65-.48,2.76,1.41.15,2.75,2,4.58,3.53,6.57a4.89,4.89,0,0,0,6.34,1.66c3.83-1.71,7.91-1.79,12-2.11,3.38-.26,6.46-1.1,7.36-5,.62-2.67,2.9-3,5-3.59,5.7-1.75,6.18-3.85,1.9-7.83-2.55-2.37-4.44-5.63-8.58-5.75a1.65,1.65,0,0,1-1.64-1.63c0-1.08,1-1.39,1.83-1.37,8,.13,16-2,23.88-1,4.15.54,7.93,3.54,11,6.9,1.72,1.92,3.24,4.64,6.69,3.18.76-2.39-1-4.05-2.34-5.17a10.52,10.52,0,0,1-4-11.15,5.88,5.88,0,0,0-.48-3c-1-4.82-5.42-8.08-6.19-13-3.51-1.48-2.25,3-5.23,3.54,2.09-5,2.47-10.17,7.39-13.11a13.61,13.61,0,0,0,5.32-5.16c.6-1.52,2-3.06-.1-4.51-3.66.37-5.63-1.62-3.86-4.53s2.34-7.4,7.06-8.08c.77-.12,1.4-.89,2-1.49,2.08-2.45.9-4-2-5.12,2.73-1.13,4.78-2.64,7.44-2.15a14.67,14.67,0,0,0,4.94.27,19.28,19.28,0,0,1,3.48-.25c3.39-.3,6.63-1.39,10-1.72,3.14-.31,4.52-1.86,2.41-4.64-2.91-3.83-.14-3.62,2.43-3.7.51,0,1,.1,1.52.13,4.87.27,7.07-2.56,4.62-6.79-2.71-4.68-2.59-8.41,1.47-12.08a3.22,3.22,0,0,0,.25-4.59,8.82,8.82,0,0,1-1-9.9C724.56,580.32,725.09,578.71,722.78,578.64Z" fill="#72655a"/><path d="M682.13,779.21c11.87,1.57,23.39-1.69,35.08-2.55a142.18,142.18,0,0,1,17.76.22c3.19.17,5,2.91,7.68,3.64,9,2.48,14.65,9.8,22,14.67,6.06,4,9.15,10.78,13.51,16.33C788,824,793.63,838.7,800.77,852.65c5.4,10.55,9.26,21.74,14.62,32.19,4.51,8.82,6,18.85,12.13,27,1.79,2.37,1.42,6.48,3.08,9.68,4.85,9.41,8.54,19.46,14,28.44,2.76,4.49,5.88,8.85,8.32,14.71,2.07-4.56,4.73-7.56,5.66-11.47a7.56,7.56,0,0,0,2.87-4.48c0-.51,0-1.31-.34-1.41-9-2.6-7.84-11.18-10.32-17.5-1.41-3.57-1.7-7.5-5.34-10-2.81-1.9-1.67-5.3-2.35-8-1.55-6.16-3.27-12.28-1.53-18.87,1.07-4.06-.89-7.65-4.72-9.78-2.78-1.55-4.31-3.55-4.14-6.87.19-3.84-2.3-7-4.6-9.29-4.9-4.81-6.32-11.42-10.26-16.62-.6-.8-.88-1.82-1.55-2.6-5.12-4.46-7.69-10.46-9.27-16.7-.89-3.52-2-6-5.28-7.94-5.27-3-7.73-8.81-11.76-13.09,1.73-6.54-4-11-4.8-16.84-.31-2.19-.11-4.37-.27-6.55-.4-5.2-2.58-6.25-6.81-3.37-1.08.74-1.89,2-3.89,1.82,3-5.18,1.91-10-1.16-14.59-1.51-2.27-1.58-5.14-3-7.48-1.65-.64-2.22.65-3,1.61-.89,2.94-2,4.74-5.6,2.51-5.71-3.55-11-.11-16.34,1.55a4.39,4.39,0,0,1-3.46.22c-5.06-2.71-10.18-1.28-15.31-.51-2.08.38-4.19.53-6.27.83a25.48,25.48,0,0,1-13.12.09c-5.08-1.43-10.46,0-14.85-1.08,6.71,1.23,13.72-2.3,21.15-2,5.72.25,11.61,0,17.06-2.32,2-.82,4.93-1.08,4.77-3.79s-2.44-3.85-5-4.14c-3.24,3.62-7.4,4.91-12.17,4.64-9.05,1.73-18.25,1.27-27.36,1.78a122.1,122.1,0,0,0-35.26,7c-2,1.12-3,2.69-2,5a5.52,5.52,0,0,0,5.23,3.37c4.38.21,8.72-.71,13.16-.16C675.19,778.15,678.46,780.17,682.13,779.21Z" fill="#53514f"/><path d="M820,469c-.71-8.51-9.39-15.23-16.66-12.91-3.78.61-3,2.87-1.82,5.14s2.93,4.21,2.76,5.86c-3.57-6.1-6.64-13.64-14.89-17-5.64,2.48-10.59,5.47-13,11.75-1.09,2.83-3.84,5.06-4.8,8.18-5.11,9.65-7,19.71-4.81,30.57.72,3.53,1.27,5.18,5.73,5.69,5.15.6,7.4-.42,8.77-5.22a16.55,16.55,0,0,1,5.09-7.44c1.18-1,2.62-1.79,4.19-1,1.95.93,1.13,2.63.66,4-1.34,3.79-1.78,7.45.29,11.17,1.2,2.17.17,3.76-1.69,5.14-2.56,1.9-2.6,4.55-.67,6.61,4.14,4.42,3.43,10.07,4.33,15.24.47,2.7.34,5,3.86,5.07,8.83-9.45,3.3-19.46.85-29.15-1.54-6.1-.86-12,0-17.9.25-1.78,2-2.67,3.95-2.57,2.36.14,4.24,1.63,4.06,3.77-.69,8.23,2.42,16.22,1,24.59-.73,4.29,1.57,8.72,3.07,13,2.19,1.51.49,4.68,3,6.44,1.59-3,3.15-2.37,5.68-.53,3.69,2.69,10.22.32,14.11-4.42a10,10,0,0,0-.09-9.63c-2-4.07-3.68-8.36-6.15-12.13-3-4.63-3.13-9.87-4.3-14.9a1.68,1.68,0,0,1,1.17-2.3c4.53-1.88,5.52-3.79,2.84-7.65C822.82,481,822.42,474.68,820,469Z" fill="#393e49"/><path d="M722.78,578.64c.51.46,1.13,1.1.66,1.7-3.1,4-2.66,7.83.48,11.42,1.59,1.81,1,2.76-.57,4.08-3.93,3.24-4.89,7.37-1.93,11.13,1.65,2.09,2,4,1.18,6-1.12,2.65-3.27-.37-5,.37-.52.23-1.36-.34-2-.19-1.6.4-3.71.08-4.58,1.72-1,2,1.6,2.16,2.23,3.4a27.47,27.47,0,0,0,2,2.89c-4.85,1.11-9.55.9-13.67,3-.52,1.16.07,2,.84,2.79,4.68,1.56,8.85,4.26,13.39,6.13,2.22,4.18,5.72,5.2,10.22,4.32,1.86-.36,4.08-.11,3.57,2.74-.29,1.57-1.88,3.21-.15,4.61,2.47,2,4,6,7.26,6,6.62-.05,12.51,3.06,19,3.36a6.16,6.16,0,0,0,3-.33,3,3,0,0,0,2.12-2.6c0-1.49-1.14-1.9-2.3-2.28-2.37-.78-5.12-.3-7.15-2.17,2.22.24,5.19,2.85,6.28-.92.64-2.23-.46-4.91-.43-8,3.39,1.7,5.46,4.54,8.69,5.55,1.95.61,3.82,1.48,5.93,1.12a3.2,3.2,0,0,0,2.93-2.42,2.52,2.52,0,0,0-1.53-2.92c-3.23-1.47-5.47-2.86-1.24-6,1-.72.23-2.2-.75-3.07a3.51,3.51,0,0,0-3.44.12c-2.73,1.33-4.09-.44-5.37-2.35a4.55,4.55,0,0,0-1-.94c-3.76-1.37-6.3-3.6-6.07-8a4.43,4.43,0,0,0-2.14-4.21,7,7,0,0,0-1.29-.63,3.43,3.43,0,0,0-1-.24c-2.43-.07-5.93-1.51-6.8,1.29-1,3.17,3.43,2.71,5.24,4.67a19,19,0,0,0-7.47.45c-.2-8.66-.2-8.66,6.73-14.06,2.32-2,3.07-5.18,5.35-7.29,1.24-1.15.77-2.43-.45-3.44s-3.85-1.49-3.08-3.43c1.23-3.12-.83-6.84,2.06-9.5,1.9-1.76,2.75-4,1.91-6.4-1.53-4.29,2-7.26,2.57-11,.26-1.58,1.78-3,.77-4.74C745.35,565,734.08,571.86,722.78,578.64Z" fill="#8f7e67"/><path d="M950.05,720.3c.78-4.75-2.66-8.06-4.89-11.3a48.36,48.36,0,0,1-6.66-12.68A31.42,31.42,0,0,0,932,684.43a18.92,18.92,0,0,1-3.66-6,162.51,162.51,0,0,0-17.14-32.1c-2-2.84-1.22-6.7-4.24-8.87-6.84-1-9.13-6.71-11.6-11.7-1.92-3.89-4.43-5.55-8.55-6a72.29,72.29,0,0,1-17.3-4c-4-1.42-7.76-.76-10.25,3.2-.32,2.61,1.69,4.46,2.24,6.79.61,5.38-.3,6.51-4.35,5.35-2.74-1-6.1-3.82-8.22-.71-2,2.9,1.6,4.92,3.78,6.71,2.86,2.34,3.83,5,1.69,8.35-2,3.19-2.05,6.32.77,9.16,1.35,1.9,1.41,4.22-.09,5.61-5.16,4.79-3.41,10.45-1.43,15.34,2.12,5.22.3,10.69,2.36,15.75.45,1.08-.62,2.2-1.34,3.13-1.7,2.21-1.67,4,1.22,5.1,1.11.44,2.37,1.07,1.63,2.56-.6,1.21-1.93,1.28-3.14,1.16-3.67-.35-7.13-.17-9.53,3.19,1.77,4,4.86,5,9,4.18,3.74-.74,6.77-2.9,10.13-4.38,2-1.09,3.22-3,4.53-4.71,4.13-5.5,4-7.14-.68-12.15a16.72,16.72,0,0,1-4.6-8.84c-.31-1.91-.22-3.78,1.25-5.19,3-2.92,2.38-5.95.64-9.2-.8-1.49-3.18-2.69-1.65-4.78a3.79,3.79,0,0,1,4.24-1c2.44.7,2.17,2.65,2,4.54a3.07,3.07,0,0,0,2.14,3.6c2.3.74,4.16.27,4.19-2.62,0-1.49-.61-3.07.58-4.35,6-6.44,3.18-13.09.57-19.76-.83-2.11-3.32-4.17-1.77-6.46,1.69-2.47,4.85-1.39,7.13-.86,7.34,1.7,14.64,3.77,17.09,12.27.14.48.29,1.13.68,1.33,5.47,2.83,5.59,7.47,4.41,12.57,8,5.76,12,14.28,15.72,22.93a4.81,4.81,0,0,0,2.52,2.42c5.92.77,8.07,5.32,9.54,10a47.63,47.63,0,0,0,4,8.71c1.29,2.33,2.62,4.33,2.27,7.44-.37,3.27,2.86,5.23,5.53,6.53C946,719.57,947.9,720.64,950.05,720.3Z" fill="#c18759"/><path d="M594.81,727.14c-1.24-4.77-4.8-6.82-9.56-5.38-1.33-6,4.31-3,6.31-4.52,1-.77,4.12.69,4.4-1.57.24-1.9-2.22-2.39-4-3.14-1.41-.59-6.35-.16-2.17-4.36,1.15-1.15-2.52-3.45-2.24-6.12.07-.76-1.69.08-2.49.57-1.12.67-1.92,0-2.79-.51-5.49,5.44-13.1,8.17-18.08,14.4-5.62,7-5.07,13.92-1.51,21.55a69.19,69.19,0,0,0,9.22,14.12,9.12,9.12,0,0,0,8,3.75c6-.48,12.13,2.05,18.16.86,3.29,2.34,4.63,2,8,1.56,3-.36,5.66-.79,8.33.41,1.78.53,5.89-.31,7.74-.33a5.34,5.34,0,0,0,2.16-.54c.35-3.61,4.16-4.09,6-6.41.74-1,3-1.12,2-3.18-4.3-2.36-9,.27-13.53-1.27-7.77-2.66-16.18-2.78-24-5.39-3.46-1.16-7.15.83-10.52-1C587.25,735.53,589.83,730.41,594.81,727.14Z" fill="#555253"/><path d="M950.05,720.3c-2.62-2.64-7-2.45-9.26-5.76-.44-.65-1.78-1.34-1.29-1.89,3.52-3.9-.63-6-2.11-8.45-2.75-4.52-3.33-9.87-6.27-14.34-2-3-4.19-4.66-7.75-4.59-1.27.88-2,2.34-3.26,3.18-2.66,1.74-3.06,3.81-1.22,6.37,3,4.22,1.82,9.09,2.07,13.72.07,1.33-1,2-1.83,2.85-3.45,3.22-4.17,6.24-1.54,10.26,3.82,5.85,7.55,11.49,6.85,19-.19,2.07,1.33,4.57,4.15,4,3.26-.63,4.32-3.46,3.73-6.26a10.54,10.54,0,0,1,1.67-8.95c1.73-2.49,3.27-2.59,4.4-.09,2.61,5.76,6.18,10.47,11.8,13.73a6.79,6.79,0,0,1,2.92,5.16c.23,2.58-2.44,2.39-3.83,3.4-2.42,1.76-2.59,3.69-.89,6,3.67,5.1,8.55,9.09,12.75,13.7a3.19,3.19,0,0,0,3.72.9,2.75,2.75,0,0,0,2-3.17c-1.06-4.95,2.39-5.06,5.69-5.4a1.48,1.48,0,0,0,.46-2.2c-3.83-4.07-4.38-10-8.08-14-1.71-1.89-2.29-4-2.87-6.31-2.83-4.87-5.82-9.66-7.39-15.14C953.93,723.53,951.88,722,950.05,720.3Z" fill="#ba7843"/><path d="M859.81,619.55c3.59-4.43,8.26-3.73,12.38-1.62,5,2.55,10.35,2.32,15.55,3.27,2.77.51,4.78.78,5.88,4.27,1.15,3.69,4,6.94,6.27,10.21,1.74,2.45,4.35,2.7,7.11,1.78-.47-2.46-1.1-4.84-3.46-6.28-1.57-1-2.81-1.94-3.2-4.11-.43-2.38-1.26-5.12-3.87-6.19s.3-2.42-.46-3.48c-5-7.35-9-15.42-15.25-21.9-4.37-1.79-7.37-5-10.15-8.72-3-4-6.49-7.63-9.09-11.95-.74-1.22-1.84-2.05-3.36-.92-1.07,1.66-.47,3.43-.36,5.17a8.63,8.63,0,0,0,2.1,6,29,29,0,0,1-10.11-.18c-1.71-.32-3.45-.55-4.54,1.22s-.21,3.24.63,4.71a22.19,22.19,0,0,0,3.45,4.33c3.88,4,4.92,8.87,4.84,14.27C854.1,613.74,855.44,617.56,859.81,619.55Z" fill="#b38058"/><path d="M797.11,539.71c-2.14-1.45-3.73-3.05-1.89-5.79.83-1.22,1.19-2.47-.4-3.43-1.19-.72-1.31-2-1.45-3.1-.43-3.3,1.46-7.24-3.65-9.06-1.2-.42-1.55-4,1.15-4.84,3.88-1.25,3.59-3.52,1.93-6.16-2.28-3.61-1.58-7.14-.24-10.81.63-1.72,2.53-3.83-.14-5.31a5.57,5.57,0,0,0-7,1.24c-2.81,3.12-5.57,6.5-6.4,10.71-.61,3-1.77,3.29-4.08,1.85a2.82,2.82,0,0,0-.46-.23c-3.4-1.27-5.87-3.57-6.48-7.65-.85-5.66-2-11.39.88-17a28.55,28.55,0,0,0,2.75-10.1c-5.86,7.4-8.19,16.14-9.76,25.16-.4,2.31-.87,4.61-1.31,6.91-.75,4.45-.86,8.75,2.24,12.57,1.07,1.32,1.82,2.83,3.91,2.29.92-.62,1.09-1.63,1.42-2.59.52-1.47,0-4.11,2.16-4,2.5.15,4.73,2.6,4.43,4.78-.64,4.78,1.41,7.46,5.06,10a5.81,5.81,0,0,1,1.8,7.7c-1.26,2.58-.74,4.32,1.73,5.9,2,1.26,3.35,3.33,5.43,4.55,3.75,2.2,6.47,1.65,9.65-2A1.66,1.66,0,0,0,797.11,539.71Z" fill="#4a4d54"/><path d="M757.82,560.46c-2.11,5.79-6.86,11-4.19,17.87a1.6,1.6,0,0,1-.25,1.43c-3.15,2.43-3.79,5.31-3.88,9.38-.08,3.51-2.06,6.35,3.29,7,1.11.13,1.79,1.66.52,2.13-3.62,1.33-2.87,5.52-5.42,7.43-1.43,4.54,1.3,7.1,4.56,9.41h0c5.09,2.51,9.06,7,15,7.94,3.36.52,6.66,1.36,9.81-.65,1.13-4.09-3.07-2.8-5.31-5.2,6.26.42,10.78-3.59,16.53-3,3.59.36,6.43-1.73,9.41-3.27.38-1.67-.88-2-2-2.2-3.67-.53-7-2.3-10.56-3a60.93,60.93,0,0,1-7.12.9c2.5-2.4,4.78,0,6.84-.82a4.39,4.39,0,0,0,1.38-4.61c-5.88-.46-5.88-.46-10-4.1-1.15.54-2.18,1.33-2.92-.71-.55-1.52-1.44-3.36-3.81-2.12a17.42,17.42,0,0,0,.62,8.45c.46,1.71.87,3.48-1.13,4.39s-3.33-.69-4.1-2.08c-2.35-4.23-5.81-8.21-1.46-13.52,1.65-2,.51-5.24-2.63-5.9-2.57-.54-2.62-1.76-2.65-3.85-.08-6.48-1.86-13,1.31-19.33a2.24,2.24,0,0,0-.78-2.73Z" fill="#78634b"/><path d="M682.13,779.21c-4.56-.81-8.71-3-13.5-3.31-3.61-.24-6.92,1.29-10.48.75a4.66,4.66,0,0,1-3.91-2.61c-1.07-2,.51-2.63,1.45-3.66,2.48-1.55,4.85-3.13,1.93-6.3a5.76,5.76,0,0,0-5.19,1.18c-2.55,2.2-5.69,2.67-8.81,3.25-1.44.31-2.87.67-4.28,1.09-2.29,1-4.13,1.67-7,.09-2.25-1.26-6.22-3.4-8.6.91a4.32,4.32,0,0,0,1.7,1.07c1.37.55,3.23.73,3,2.8-.16,1.54-1.58,2.21-2.85,2.59-2.63.78-4.76,2.58-7.44,3.28s-4.45,2.44-4.3,5.49c1.72,5.66,2.7,6.22,8.48,4.82,1.11-.27,2.32-.17,3.31-.85C644.57,786.5,662.78,779.88,682.13,779.21Z" fill="#655e5a"/><path d="M820,469c-.64,5.51,1.33,10.5,3.76,15.19.89,1.71,2.34,3.32,2.76,5.22.51,2.36.37,4.84-3.29,3-2.84-1.4-2.84.37-2.61,2.24a60.5,60.5,0,0,0,8.61,24.17c2.6,4.33,4.68,8.67,3.12,13.87-3.43,5.94-7,11.84-9,18.45-.74,2.44-1.47,4.88,0,7.32,2.91.33,3.09-2.15,3.58-3.81,1.2-4.11,3.15-7.23,7.65-8.4a5,5,0,0,0,3.49-3.95c.58-4-.26-7.92-.87-11.85-.24-1.48-.89-3.1,1.24-3.67,4.82-1.29,5-4.64,4-8.54-2.33-4-3-8.7-5-12.94-2.27-4.75-4.2-9.88-6.31-14.72-2-4.64-2.77-9.74-5.59-14.25C823.87,473.71,822.42,471.08,820,469Z" fill="#565557"/><path d="M758.89,559.59c-2.24,5.61-2.7,11.38-2.37,17.4.15,2.75,1.32,5.47.2,8.51-.61,1.63,1.71,1.31,3,1,2.44-.64,2.94,1.18,3.33,2.79s.2,3-2.27,2.61c-1.21-.19-1.85.9-1.43,2,1.74,4.63,1.84,10,6,13.57,1.32,1.15,2.27,2.5,4.27,1.33s3.77-2.75,2.62-4.79c-1.87-3.28-1-6.88-2-10.18,0-5.62-2.5-10.83-2.81-16.41-.49-8.91-2.59-17.64-3-26.57-1-1.86-1.58-4.24-4.61-3.2Z" fill="#4f4742"/><path d="M656.45,640.37c-1,1.71-2.11,3.41-3.12,5.15-4.56,7.82-4.55,7.82-5.68,21.44,3.91-4.54,9-3.63,13.28-5.42,1.27-.54,2.81-.76,2.64-2.52-.38-4,1.49-6.6,5-8.39,3.1-1.58,3.19-4.35,1.58-6.81-1.49-2.28-1.72-4.67-2-7.14-.16-1.29.55-3-.93-3.68s-2.2,1.16-3.33,1.72c-.73.37-1.51.65-2.27,1C658.47,635.71,657.78,638.39,656.45,640.37Z" fill="#545250"/><path d="M857.76,570.71c-1.53-2.72-4.23-3.74-7-4.78s-5.16-2.54-5.63-5.8c-.07-4.74-1.48-5.71-6.15-4.23-2.5,7.58-4.38,15.26-2.95,23.3.52,2.95,2.1,5.24,5.26,6.07,2.15-1.13,3.64-3,5.22-4.74,3.4-3.71,3.36-5.84-.27-10.52,4.14,2.38,7.62,5.25,12.2,3.12C859.43,572,858.39,571.4,857.76,570.71Z" fill="#977458"/><path d="M839.1,556.53c3.62-1.44,5.41.15,6.08,3.6,2-9.11,4.26-18.21.5-27.42a2.11,2.11,0,0,0-.94,1.68c.2,3.27.16,5.09-4.42,3.5-3.73-1.29-2.26,2.87-2.88,4.73C835.3,547.58,835.47,552.25,839.1,556.53Z" fill="#7f706a"/><path d="M766.76,516.59c-3.42-2.57-5.84-5.7-5.49-10.21a8,8,0,0,0-.72-4.32c-1.52,1.22-1.65,3-1.48,4.64.46,4.17-.19,8.27-.48,12.39,1.51,4.51.87,9.42,2.54,13.86,1.23,3.3-2.22,3.7-3.12,5.64l1.42,1.83c.44,1.66,1.53,2,3.06,1.48C770.17,534.5,768.33,525.52,766.76,516.59Z" fill="#68605d"/><path d="M837.94,542.21c.4-2.06-.21-5.81,3.7-2.58,1.13.93,1.71,1.93,3.3,1s1.45-2.09,1.25-3.48-.34-3-.51-4.48a50.07,50.07,0,0,0-3.22-14.43c-.15,3.94.24,8-6.14,7.08-2.27-.35-1.51,2.14-1,3.42,1.6,4.33,1.62,8.81,1.68,13.31C837.23,542.57,837.55,542.64,837.94,542.21Z" fill="#7f706a"/><path d="M857.76,570.71l.69,2.13a.76.76,0,0,0,.1,1.07c2.45.43,2.81,2.7,3.83,4.33,3.38,5.41,7.78,10,11.94,14.77a7.9,7.9,0,0,0,6.44,2.49c-5.65-6.15-9.82-13.48-16-19.19C862.49,574.27,860.66,571.88,857.76,570.71Z" fill="#b38058"/><path d="M860.25,975.41c2.79-1.46,1.7-4.43,2.44-6.63,1.44-4.28,2.09-8.82,3.06-13.25-1.78-.86-2.89-.15-3.7,1.63-.95-2.7.94-5.71-1.21-8.09a4.84,4.84,0,0,0-2.21,4.14c1.45,4.88-1.38,9.63-.29,14.62C858.91,970.38,859,973,860.25,975.41Z" fill="#53514f"/><path d="M992.74,791.87c0-1,.11-2,.16-3,0-3.07-.6-5.62-3.56-7.6a10.54,10.54,0,0,1-5-7.73c-1.94,1.11-1.42,2.92-1.05,4.47.94,4,2.08,7.94,3.37,12.73l3-6.23c.23,4.23.4,7.37.58,10.51C992.05,794.73,990.25,791.6,992.74,791.87Z" fill="#cd8244"/><path d="M789.42,450.06c.51.67.89,1.74,1.55,1.94,6.22,1.9,5.89,9.28,10.71,12.38a5.35,5.35,0,0,1,2.26,4.82c1.21-3.06,1.11-5.69-1.19-8.22-1.39-1.52.36-4,3.06-5.33-1.16-.16-3.47,0-4.65-1s-2.27-1-3.12-1.39c-2.31-1-3.43-1.92-5.83-2.58C792.16,450.62,789.76,449.76,789.42,450.06Z" fill="#393e49"/><path d="M976.71,764.62l.18-2.06c-4.74-4.13-7.3-9.72-10.21-15.06-1.28-2.34-2.44-4.69-4.65-6.32-1,2.27-1.22,4,1,6.23,2.59,2.61,5.57,5.3,5,9.94-.34,2.86,4.65,2.74,4.77,5.95C973.35,765.89,975,765.46,976.71,764.62Z" fill="#ba7843"/><path d="M758,538.59c4.77,1.62,5.23-1.78,4.39-4.54-1.49-4.95,0-10.63-3.81-15Q758.31,528.84,758,538.59Z" fill="#928781"/><path d="M867.2,965.52l-1.44,4.85c1.47,2.63,1.8,6,5.15,7.81,0-2.34-.06-4.41-.09-6.48-.91-1.61.07-3.31-.22-4.91C870.23,964.74,869.45,963,867.2,965.52Z" fill="#53514f"/><path d="M762.24,541.57l-2.81-1.15a16,16,0,0,0,.42,7.22c1.88.34,2.56,2.1,3.83,3.16,2.56,0,2.09-2.06,2.39-3.59C765.68,544.75,765.3,542.26,762.24,541.57Z" fill="#928781"/><path d="M896,617.4c-2.92,1.45-2.61,3.57-.18,4.65,3.23,1.43,4,3.43,3.42,6.56-.26,1.44,0,1.48,4.29,2.57C901.12,626.54,899.32,621.57,896,617.4Z" fill="#b38058"/><path d="M657.09,764.38c2.36,2.65-.35,4.13-1.4,6,8.15-3.47,17.24-3.13,25.56-6.1,2.4-.86,5.41.18,8.1-.09,9.77-1,19.68-.26,29.38-2.15,1-.87,2.31-.16,3.4-.76,2.64-1.47,2.75-3.38.16-4.91-2.2-1.3-4.86-1.26-7.28-1.9,2.16-7.51-.74-10.73-8.43-9.57-4.2.64-8.27,2.08-12.57,2.07-1.48,0-3.49.27-4-1.5s1.53-2.48,2.81-3a20.52,20.52,0,0,1,17.57.43c1.25.59,2.34,1.32,3.78,1.12a3.85,3.85,0,0,1,3.59,1.35c4.31,4.51,14.19,4.12,18.29-.63,1.95-2.26,3.33-4.7,1.11-8.9,6.34,3.54,11,2.3,15.51-.74,2.14-1.45,4.88-1.5,7.15-2.63,3.85-1.93,4-4.34.4-6.38a4.21,4.21,0,0,1-2.56-3.39c-.26-2-1.62-3.9-3.51-3.84-5.79.2-12-1.56-17.07,2.92-1.29,1.15-2.56.45-3.84.46-2,0-4.19-.68-5.41,1.68-.16.32-.42.81-.55.73-4.11-2.59-8-1.32-12,.46-1,.46-2.06-.93-2.87-1.81s-1.84-2-2.74-3c-1.42-1.56-5.48-1.15-4.33-4.4,1.24-3.53,6.87-5.83,10.28-4.91,2.26.35,4.52-.3,6.76,1.42,3,2.33,4.65,1.45,5.84-2.23.41-1.27-.48-4.07,2.69-2.53,4.59,1.13,8.66,4.55,14,2.3,2-.87,4.38.37,4.58,3.29.12,1.73,1,3.26,2.72,3,4.59-.65,7.62,2.31,11.15,4.13a3.83,3.83,0,0,0,.9.46c5.78,1.29,11.57-2.31,17.56.22,1.15.49,3.36-3.38,4.74-5.47,1.56-2.36,3.06-2.28,4.89-.49,3.17,4.43,3.73,9.36,2.92,14.57a46.36,46.36,0,0,0-.92,5.35,2.67,2.67,0,0,0,.54,1.35c2.83.2,4.3-2.39,6.66-3.22,1.46-.5,1.19-2,.7-3-1.74-3.73-1.25-7.9-2.54-11.74-1.14-3.44-.4-6.05,3.65-7.45a9,9,0,0,0,6.07-6.89c.32-1.62,0-3.64,2.52-3.85,4.1.15,4.75-2.39,2.46-4.6-5.16-5-4.51-12.3-8.22-17.81-1.24-1.84-1.92-4.23-3-6.29a5.29,5.29,0,0,0-2-2.26c-2-.69-3.41.51-4.9,1.48-2.56,1.78-2.68,3.81-.37,5.8,1.64,1.43,2.74,2.51.23,4.2-2.69,1.8-1.07,3.8.1,5.67,3.07,4.9,3,5.08-2,8-1.79,1.05-4.07,2.19-3.61,4.42.93,4.51-2.05,5.94-5.09,7.59a21.7,21.7,0,0,1-5.15,2.19c-3.28.8-5.74.77-5.67-3.72.05-3.15-2.42-4.39-5.18-4.43-2.5,0-4.72,0-6.07-2.61a3.14,3.14,0,0,0-2.67-1.3,56.77,56.77,0,0,1-10.94-2.45c-2-.55-4.17-1-5.77.69s.05,3.43.74,5.24c-4.89-1.67-5.17-2.3-2.27-5.91,2-2.45,1.9-4.47-1.16-5.48a10.47,10.47,0,0,1-5.35-4.4c-2-2.79-4.53-4-7.94-2.41a8.25,8.25,0,0,1-6.91.05c-3.49-1.41-5.69.12-6.3,3.62-1,5.5-3.89,9.2-9.33,10.94-1.87.59-3.34,1.69-3.59,3.84-.41,3.51-3.1,5.94-4.44,9-1.15,2.63-3.52,2.4-5.58.91a12.16,12.16,0,0,0-8.73-2.06c-2,.2-3.69,0-4.82-2a3.13,3.13,0,0,0-3.12-1.32c-1.22,0-2.81,1.18-2.09-1.77.55-2.26-2.62-2-4-3.18,4.75,3.31,10.14,1.28,15.19,1.72,2,.17,5.89,0,5.3-4.27a4.32,4.32,0,0,1-4-1.8c-6.46-9.72-16-10.83-26.4-9-3.93.7-7.83-.31-11.62.6-1.38.33-4.22-.16-3.74,2.21.32,1.65,1.83,4,4.18,3.71,5.77-.81,6,5.63,10.08,7.25,1.35.54-.29,2.63-1.95,3-4,.92-8.56.67-8.47,7,0,1.76-3.4,2.15-5.29,2.18-4.45.09-8.74.15-12.91,2.21-3.12,1.55-8.53-3.75-7.68-7.8s-1.14-3.29-3.6-2.82c-3.11.58-4.16,3.21-4.67,5.43s1,4.8,2.21,7c.18.32,1.23.31,1.83.21,6.77-1.23,8.85-.2,12.51,6.12a6,6,0,0,0,2.08,2.14c5.72,3.33,5.74,3.3,1.36,8.21l8,4.65c-4.35.35-6.85,2.45-8.45,6.14-.62,1.43-2,3.13-3.86.93a2.75,2.75,0,0,0-3.19-.8c-5.75,1.53-11.37,0-17.09-.4-6-.38-10-4.15-15-6.12-.77-.3-1.39-1.61-.85-2.13,2.45-2.37.88-5.74,2.33-8.3-3.39,2.44-8.9,2.56-8.86,8.8,0,1.38-2.92,2.78-5.45,5,9,2.76,17.89,1.86,26.17,4.16,8.43,2.33,16.79,5,25.76,3.6,2.46,3.76,5.87,6.79,8.29,10.62,1.13,1.79,2.37,4.65,5.36,3.62s6.16-2.13,6.51-6c-4.61-.79-7.22-4.6-10.76-7-1.23-.83-2.66-2.48-.13-3.35,7.45-2.54,13-7.86,19.19-12.29,3.85-2.77,7.36-3.43,11.76-1.07,5.88,3.15,12.13,2,19.23-.19-2.08,1.78-3.59,1.47-5,1.55-1.55.09-3.4,0-4.16,1.46-2.21,4.16-5.27,6.25-10.21,5.67-1.63-.2-3.1,1.26-4.41,2.34-1.79,1.46-3.73,2.35-6.11,1.75-3.52-.88-5.68.52-6.34,4-.44,2.3-2.8,3.92-2.23,6.53,5.82.94,10.54-2.74,15.9-3.77,1.93-.37,3.73-1.54,5.74-1.91,1.24-.23,3-1.16,3.59.46s-1.16,2.77-2.56,3.16c-4.09,1.12-7.64,3.57-11.85,4.4a13.65,13.65,0,0,0-6.83,3.1A1.87,1.87,0,0,0,657.09,764.38Z" fill="#695c4f"/><path d="M688.92,697.36c-2.11,2.53-4.32,3.55-8,3-4.81-.67-9.86.72-14.19-2.86-.86-.71-1.45.92-1.07,2,.44,1.23,1.72,1.54,2.66,2.23s3.11-.79,3.39,1.28-2.91.45-3.1,2.51c1.33,1.4,3.14,1.08,4.66.72,2.13-.49,3.6-.74,3.91,2.09.21,1.86,1.89,1.72,3.23,1.42,4-.86,7.6-1.07,10.82,2.23a3.69,3.69,0,0,0,5.53-.16c2.3-3.16,4.88-6.58,5.61-10.23.48-2.41.85-3.57,3-4.13,6-1.52,9-5.63,9.87-11.45.53-3.56,1.94-4.95,5.37-2.57a5.07,5.07,0,0,0,5.8,0c4.37-2.83,6.88-.65,9,2.92,1,1.75,1.62,3.81,4.44,3.07a2,2,0,0,1,2.36,1.48c.39,1.19-.51,1.91-1.33,2.47-2,1.36-5.11,2.13-1.89,5.42,2.29,2.34,4.13,5.51,7.52,1.33-.16-1.11-1.34-1.32-2.05-2s-1.27-1.62-.66-2.68c.51-.87,1.44-.82,2.27-.72,5,.59,9.64,3.33,14.89,3,.78-.06,1,.61,1.14,1.36.39,3.08,2.55,3.15,4.93,2.71,3.8-.71,6.37-.45,5.58,4.66-.44,2.85,1,4.5,4.69,4,5-.69,8.74-3.5,12.86-5.75,1.2-.66,2.32-1.73,1.43-3.31-2.11-3.71.26-5,3.17-6.31,5.41-2.41,5.72-4.17,2-8.93-1.44-1.86-3.67-3.73.78-5.34,2.83-1,2.7-3.1-.5-4.41-2.62-1.07-4-2.71-.94-5A11,11,0,0,1,793,665.1c-3.18-5.16-6.16-10.32-5.5-16.77.19-1.82-1.39-3.38-2-5.1-.14-.68-.14-1.29.65-1.62,2.28-1,3.71-2.59,2.94-5.07s-3.07-2.16-5-2.17c.69-.66,2.92-.06,2.07-2.24-4.91-1.76-9.82-3.44-15.13-1.73.57,1.29,1.08,2.42-.79,3.29-1.11.52-3.31.06-3.11,1.9.17,1.65,1.69,2.9,3.26,3.65s4.58.3,3.31,3.08c-1,2.21-3.56,1.35-5.47.54-3.08-1.31-6.5-2.14-8.19-5.54a2.3,2.3,0,0,0-3.38-1.23,2.17,2.17,0,0,0-.92,3.41c1.48,2.06-.88,4.73,1.7,6.57a4.57,4.57,0,0,1-5.77-1.15c-.64-.66-1.39-1.93-2.45-.94s-.11,2,.65,3c1.88,2.34,4.63,2.32,7.22,2.84,1.14.22,3.21-.45,2.8,1.69-.26,1.36-1.88,1.93-3.32,1.66-3.09-.57-6.3-.9-9.16-2.06a15.35,15.35,0,0,0-9.13-1.15c-3.33.66-3.62-3.05-5.61-4.32-2.43-1.55-4.22-2.48-1.14-5.43,1.62-1.54-1.9-5.23-4.62-4.37-1.89.6-3.66.18-5.47.45s-1.74.05-1.55-2.52-2.21-1-3.31-1.6a4,4,0,0,1-5.45.51,10.93,10.93,0,0,0-9.28-.88c-1.74,1.22-3.84.72-5.74,1.16-1.46.33-3.32.75-3.23,2.43.08,1.45,1.88,1.52,3.22,1.57,2.52-.1,5.06-.52,7.56-.09,2.82.49,6.06.23,6.28,4.66.11,2.39,2.81,2.94,5.84,3.78-2.93-.35-4.55-.12-4.77,2.27,1,2.9,3.22,2.24,5.36,1.78.83-.17,1.79-.29,2.11.68.43,1.28-.51,1.75-1.59,1.92-1.68.28-3.26.7-4.21,2.29a2.53,2.53,0,0,0,.08,2.07c1.55,1.54,3.4.73,5.18.7,6.24-.11,7.61,2.1,4.84,7.68-.67,2.15-6,7.75-8.56,8.82a8.57,8.57,0,0,0-3.84,3.85c-1.76,2.82-1.7,6.79-5.85,8.14-1.64.53.38,3.37-2,4.48,1.32-2.18.84-3.33-1.51-4-2.88-.8-5.13-2.74-7.15-4.9-2.54-1-5.07-1.92-7.58-3a4.88,4.88,0,0,0-5.31.45c1.79,2.27-.35,4.47-.15,6.76.43,4.81,4.48,7.06,7,10.37C688.18,696.25,688.54,696.82,688.92,697.36Z" fill="#80715d"/><path d="M680.89,678.59c4.82-1.13,8.14,4.21,13,2.95l.5-.49c3.13-5.29,3-5.54-2.91-7.59-1.92-.66-3.91-1.15-5.44-2.62-3.1-3-2.68-4.57,1.65-6a4.12,4.12,0,0,0,1.31-.69,2.93,2.93,0,0,0-.13-2.88,7.75,7.75,0,0,0-1.4-1.87c-2-2.52-4.34-3.74-7.49-2.28-3.4,1.57-5.24,4.07-4.45,8-.5,3,0,5.68,2.57,7.68C680,674.28,679.91,676.68,680.89,678.59Z" fill="#9b8779"/><path d="M696.76,636l-3.38-.37c1.68-1.9,3.46-1.66,5.21-1.6,1.5,0,3.21.46,3.56-1.77a2.55,2.55,0,0,0-2.23-1.9c-4-.22-8.15-1-12,1l-4.6,2c-3.4,1.52-6.79,9.75-5.24,13.11,1.68,3.64,3.28,1,4.85-.22a4.09,4.09,0,0,0,2.57-2.81c1.5-4,4.11-5.81,8.45-4.61C695.49,638.54,697.07,638.21,696.76,636Z" fill="#a28f82"/><path d="M675.52,665.11a20.4,20.4,0,0,0,1.11-2.25c2.17-6,5.58-6.78,10.61-2.26,3.07-2,3.26-4.7.27-6.68-1.53-1-3.21-1.77-4.35-3.27l-.62-.38c-.9,1-1.61,2.43-2.73,2.84-6.39,2.36-7.55,8.32-9.9,13.5-.55,1.23-1.23,2.56-.08,3.68a2.89,2.89,0,0,0,2.32.47c1.78-.41,2.34-1.69,1.88-3.44C673.7,666.06,674.56,665.54,675.52,665.11Z" fill="#4e4947"/><path d="M647.1,673.82c6.13-.46,10.64,4.71,16.6,4.45,1,0,2.06.57,2.86-.19,1.27-1.2,4.14-1.07,3.79-3.49-.31-2.14-2.7-1.4-4.16-2C659.64,669.86,653.44,672.14,647.1,673.82Z" fill="#947b6a"/><path d="M687.9,631.37c4.11.16,8.22.5,12.31-.23,1.38-1.36,2.84-2.69,2.36-4.93l-.9-2.09c-.62-1.08-1.3-1.1-2-.12-2.12,1.18-4.26,2.59-6.12-.38-4.12-1-6.64,2.23-9.83,3.14C683.79,629.88,690.56,625.9,687.9,631.37Z" fill="#80715d"/><path d="M693.63,638c-4.79-2.43-7.19.07-8.86,4.17-.57,1.38-1.24,2.73-1.86,4.1,1.63,1.48-.47,2.63-.36,4l.12.12c2,.76,4.62.22,4.51-1.55-.29-4.48,3-3.55,5.32-4.55,2.75-1.19,6-.83,8.43-2.92.8-2.58-1.28-2.61-2.83-3.13S695.07,639,693.63,638Z" fill="#4e4947"/><path d="M693.51,623.62c-.87.44-1.93.85-1.71,2a1.39,1.39,0,0,0,2,.9c1.65-1.66,5.8,2.33,5.88-2.57Z" fill="#8f7e67"/><path d="M860.84,949.07c.22,3.06-1.06,6.17.32,9.76,1.56-1.36,2.59-3.13,4.59-3.3,1.35-1.14,1.33-3.27,3-4.14,2.07-1.48,3.4-3.34,3.15-6a27.83,27.83,0,0,1-3.38-15.93,13.17,13.17,0,0,0-1.37-6.87c-1.94-3.78-3.57-4-6.23-.81-.86,1-1.5,2.28-3.08,2.34-1.77,0-2.32-1.07-2.43-2.58.81-12.54-3.24-25.06,0-37.59.74-2.91-.57-5.26-2.24-7.46a15.4,15.4,0,0,1-3.48-8.76c-.24-4.33-2.85-6.57-7.28-6.74-1.69-.06-3.39.34-5.09.12-2.56-.34-5.41-.6-6-3.67s-2.61-5.94.93-9.15c5.21-4.74,5-7.18.78-13.24a8.29,8.29,0,0,1-1.57-3.69c-.29-2.32-1.38-3.73-3.9-3.78a4.4,4.4,0,0,1-4-2.67,7.39,7.39,0,0,0-2.55-3.1c-4.83-2.88-6.27-7.24-5.85-12.49a4.57,4.57,0,0,0-.65-1.46,7,7,0,0,0-4.29-2.13c-4.42-1-5.31-4.33-5.15-8.06s0-7-3.76-9.12c-1.87-1.06-1.65-3.14-1.49-5,.75-9.26.44-18.64,3.12-27.7a5.53,5.53,0,0,0-1.07-4.77c-4.21.11-4.66,4-4.79,6.29-.48,8.59-4.66,15.69-8.19,23.11-1,2.18-1.73,4.74,1.83,5.55,2,.46,2.61,1.91,3.24,3.52a212.87,212.87,0,0,0,12.27,25.35,7.1,7.1,0,0,1,1.25,3.28c.07,5.32,3.65,8.1,7.81,10.34,5.88,3.16,6,3.12,2,8-3,3.61-1.88,7.61-1.38,11.59.48,3.06,2.5,5.44,3.66,8.14,2.84,6.56,9.43,11.26,11.07,17.54,1.51,5.8,3.41,9.6,8.26,12.81,1.92,1.26,2.59,4.53,1.52,7-2.76,6.3.37,12.13,1.19,18.11.22,1.57,1.08,3.16.76,4.83-.47,2.55.35,4.13,2.91,5a4.17,4.17,0,0,1,2.78,3.28c1.4,5.66,3.07,11.26,4.61,16.9,1,3.5,2.64,6.06,6.86,5.75C860.68,947.27,860.77,948.22,860.84,949.07Z" fill="#785f48"/><path d="M815.89,848c.39-1.1,1.33-2.35,1.06-3.26-1.32-4.62.17-7.64,4.36-10,2.48-1.4.26-5.61-4.09-6.83-4-1.13-7.46-3.85-8-7-.63-3.56-2.14-6.36-3.44-9.5-2.49-6-6.72-11.23-8.45-17.69-.62-2.3-2.08-4.52-2.85-6.92-.37-1.18-.6-2.64-2.64-2.39-5.06.61-2.48-2.34-1.64-4,3.43-6.72,7.85-13,7.68-21.05-.07-3.31,2.28-5.75,3.55-8.58,1.46-1,2.1-2.54,3-3.93.45-5.19-.73-6.88-5.46-6.1-4.32.71-2.79-3.5-4.78-4.54l0-1c-1.9-.62-2.77.84-3.76,1.89-2.86,3.06-4.48,7-7.41,10.08-1.54,1.61-.67,3.78,0,5.72s2.19,4.24,0,6-4.5.6-6.54-.71c-1.85-1.18-3.71-1.78-5.6-.28s-2.55,3.11-1,5.2c-.58,3.79,1.55,6.75,3,10,1.63,3.58,3.94,7.29-.07,10.91-.8.72-1.36,1.59-.56,2.63a2.29,2.29,0,0,0,3.17.61c.45-.24.8-.65,1.23-.9,2-1.14,3.26-4.63,5.64-3.46s1.23,4.54,1.32,7c.15,4.4.51,8.73,4,12.09.85.81,2.29,1.58,1.17,3.37-2.13,3.37-.43,5.72,2.12,8.18s4.45,5.47,6.72,8.18c.86,1,1.81,2.49,2.92,2.71,4.73.91,5.33,4.06,5,7.92a4.18,4.18,0,0,0,1.11,3.74,14.75,14.75,0,0,1,4.39,8.33C811.57,846.87,813.34,848.05,815.89,848Z" fill="#5f5447"/><path d="M715.81,710.16c-2.88-2.73-5.32-2.29-7.43,1a9.21,9.21,0,0,1-1.89,2.34c-5,3.9-5.14,4.09.79,6.83,2.58,1.19,3.56,3.49,5.29,5.24s3.4,2.58,5.16.54c2.84-3.29,5.61-2,8.55-.32,2,1.17,1.85,1.06,2.65-1.22.88-2.5,3.23-1.29,4.67-1,2.57.58,4.71,1.31,5.23-2.31,0-.4.76-1.08.88-1,4.64,2.16,9-1.46,13.49-.65.79.15,2.08.56,2.18,1,.79,3.73,1.55,7,6.49,7.65.94.12-1.43,3-2.66,3.22-4.17.69-7.56,2.74-11.13,4.69-2.14,1.16-4.82,1.65-7.26-.15a5.31,5.31,0,0,0-5.28-.92c3.27,6.92.79,10.71-7.31,11.33a7.06,7.06,0,0,0-2.87.79c-3.2,1.77-5.2.56-6.41-2.45-.44-1.09-.69-3-1.8-2.66-3.39,1-5.82-1.8-7.88-2-6.91-.64-14.64-2.39-20.8,3.22-.66.61-1.41,1.2-1.07,2.08a4,4,0,0,0,3.38,2.72,26.47,26.47,0,0,0,12-1.18c2.32-.8,4.67-.75,7-1.2s3.8,1.18,5,2.88.13,2.82-1.06,3.94c-.7.66-1.84,1.34-1.09,2.47a2.87,2.87,0,0,0,3.08,1.32c.5-.1,1.07-.45,1.47-.31,2.14.74,5.52.27,6,2.67s-3.16,1.85-4.49,3.31c3.5.77,6.42-1.47,9.72-1.86,2.11-.26,1.48-2.16.87-3.59.36-.85-.14-1.33-.76-1.76-.79-.54-2.2-.4-2.43-1.4-.28-1.22,1.08-1.42,1.91-1.82a14.12,14.12,0,0,1,3.32-1,45.66,45.66,0,0,0,14.29-3.38c5.22-2.08,7.44-.84,9.14,4.48.26.8.38,1.64.67,2.44,1.2,3.31,3.77,4.48,6.91,3.47,6.51-2.09,4.59-8.72,6.74-13.17,1.31-2.7-.48-4.41-2.85-5.6-1.17-.59-2.94-1.15-1.85-2.88,1.32-2.1,2-4.81,4.3-6.08,1.2-.68,1.8,1.14,2.45,2.06,3.05,4.26,3.74,4.36,7,.19,1.8-2.34,3.66-4.4,6.63-5.24a4.66,4.66,0,0,0,3.78-5.23c-.18-3.29,1.52-5.78,3.92-7.87-2.73-1.55-4.89-3.37-7.06,1.39-1.47,3.22-4.21,8.57-9.57,2.94a3.26,3.26,0,0,0-4.28.3c-4.17,4.77-7.67,1-10.76-1.09-2.39-1.61-4.33-2.82-7.27-2.08-1.58.39-3,.17-2.85-2.24.18-3.16-4.21-6.36-6.72-4.57-2.71,1.94-4.4,1.13-6.78-.07-1.72-.86-3.84-.92-5.78-1.34-.18,3.44,3.3,4.77,4.46,7.52,1.25,2.95.8,4.8-2.36,5-3.89.27-7.72,1.07-11.65,1a10.3,10.3,0,0,1-6.44-2.51c-2.33-1.85-2.93-3.6-.49-5.76C715.52,711.76,716.14,711.14,715.81,710.16Z" fill="#5f5447"/><path d="M728.37,755.53l1,1.06c2.24.51,4.82,1.93,5,3.66.24,2.45-3.08,1.83-4.76,2.53-7.17,3-14.89,2.1-22.4,2.54-2.85.17-5.49-.23-8.15,1.71-2.46,1.82-5.5.58-8.25-.41a3.35,3.35,0,0,0-3.39.19,1.48,1.48,0,0,0-.4,1.3c.63,1.68,2.23,1.21,3.48,1.29,6.55.44,13.1.45,19.55,2.12a14.41,14.41,0,0,0,10.28-1.28c-.62-5.25,3.79-2.89,5.7-3.16,3-.42-.78,1.83.51,2.52,5.45-.71,10.89-1.64,16.19.92a2.69,2.69,0,0,0,3.25-.74,4,4,0,0,0-2.58-1.46c-3.25-.83-4.64-2.5-3.1-5.87a5,5,0,0,0-1-6c-1.1-1.15-4.8-1.89-1.56-4.27,2.16-1.58,6.21-2.84,7.17,0,2.45,7.34,8.34,7.37,13.91,7.28,4.7-.08,6.84,2.41,9,5.56l2.16-1.9c.81-5.55,2-6.19,6.31-3.33,2.62,1.74,5.52,2.26,8,.45s1.54-4.63.31-6.85c-2.14-3.86-.59-5.82,2.35-8.79,2.65-2.69,3.76-7,7.27-9.41,3.17-7.43,2.71-14.56-1.75-21.38-5.43.34-4.75,4.71-5.28,8.11-.16,1.08.65,2.84-.71,3-6,.83-8.8,5.57-11.67,9.69-1.83-.73-1.68-1.88-2.07-2.77-.89-2-2.13-4.34-4.3-4.54-1.82-.17-1.46,2.71-2.57,3.95-.44.5-.6,1.25-1.06,1.71-3.41,3.4-4.65,6.2,1.74,7.36,1,.17,2.26,1,2,2-1.21,4.5-2.09,9.23-4.23,13.28-1.59,3-7,1.34-7.82-2.24-.48-2.14-.74-4.25-2.13-6.08-1.73-2.29-3.94-3.4-6.64-2.28a57.39,57.39,0,0,1-16.91,4.57C729,751.16,724,751.5,728.37,755.53Z" fill="#4f473f"/><path d="M767.75,765c0-5.69-3.46-7.13-8.46-6.6-2.69.29-5.12-1.11-8-.78-2.61.31-4.19-2.06-4.28-4.68-.12-3.36-2.33-3.8-4.86-3.63-3.28.23-6.59.93-8.13,4.18-.73,1.53,1.06,2.11,2.35,2.62,2.39,1,4,2.18,3,5.3-2.14,6.67-1.21,7.73,6.52,8.35,6-2.06,11.55-4.52,18.11,0C767.49,772.17,767.13,767.22,767.75,765Z" fill="#464241"/><path d="M726.47,769.6l4.37-3c-4.22-1.89-7.76-.58-11.27.12-1,.21-2.71.5-2.56,1.93.18,1.75,2,1.44,3.25,1.62C722.37,770.39,724.49,770.7,726.47,769.6Z" fill="#464241"/><path d="M762.24,541.57c1.21,1.6,2.58,3.13,2.7,5.28,0,7.65,1.42,15.2,1.81,22.85.37,7.4,1.65,15.4,7,21.55,1.59,1.81.88,4.25,2.32,6,4,6.44,4.46,6.59,10.08,3.76.82.69,2.59-2,2.88.87.44,4.33,3.54,5.16,7.22,5.08,1.71-.16,3.5-.09,4.85-1.43a1.79,1.79,0,0,0,.38-1.34c-4-2.37-5.5-7.09-9.3-9.72-1.48-1-.64-2.75-.22-4.21,1.39-4.84,5.43-7.58,8.8-10.83,1.42-1.37,3.49-2.23,3.58-4.61-3.35-2.42-1-4.35.83-5.78s3.63-2.83,3.15-5.55a7.53,7.53,0,0,1,0-3.47c.6-4.91-1.37-6.53-6.07-5a10.57,10.57,0,0,0-3.2,1.51c-2.36,1.78-4.73,2.19-6.64-.38-1.64-2.2-.43-4.28,1.34-5.74,2.27-1.89,4.82-2.49,7.25-.09.6.6,1,1.35,1.61,2,3.16,3.2,5.52,3.06,8.79-.43-.17-.61.17.25.16-.42,0-.45.25-.37.13.06-1.32,4.64-2.33,9.35-3.34,14.06a6.44,6.44,0,0,1-2.45,3.61c-1.52,1.31-3,2.77-2.06,5.13a1.3,1.3,0,0,0,1.74.57c6.29-2.9,11.08.56,16,3.56,2.69,1.63,2.36,4.26,2.51,6.72.16,2.65-2,2.65-3.78,3.13-2.37.64-4.05,2.15-3.52,4.75s2.69,2.63,4.86,2.15c1.56-.35,3,.61,4.54.47,4.19-3.86,7.34-7.68,7.55-14.21.21-6.14,1.15-10.88-6.8-12.12-1.55-.24-1.69-3.1-2-4.93s.19-4.1-1.32-5.79c.45-5.66,1.42-10.9,5.38-15.63,2.14-2.55,2.3-6.73,3.35-10.18a13.68,13.68,0,0,1-8.81,4.41c-2.24.17-4.38.05-5.93-2.07-.77-1.07-.21-3.67-2.57-3-2.09.6-.66,3.06-1.65,4.39-2.62-.83,2.25-5.22-2.45-5.05-1.26,5.39-.83,11.11-3.71,16.09-.87-4.76-5-5.77-9.2-6.72-3.19,3.59-6.38,3.31-10.16.58-2-1.45-2.66-4.17-5.56-4.87-1.66-.4,0-1.92.35-2.85,1.92-4.86.93-7.7-3.71-10.67-2.54-1.63-4.49-3.35-2.55-6.91,1-1.89-4.76-8.35-6.88-8.09-1.07.13-1.11,1.06-1.52,1.76-1.25,2.14-1,4.54-1.27,6.85-1,3.73,1.27,7.82-1.48,11.44-.7.91.6,2.12,1.37,3,1.09,1.19,1.33,2.89.05,3.45C763.43,535.91,763.5,539.08,762.24,541.57Z" fill="#3e3e41"/><path d="M798.06,540.79c1.86,1,2.38,3.81,5.73,3,1.86-.48.76,2.77,1.78,4.08.63.8,1.11,1.68,2.17,1.92s1.16-.64,1.21-1.22c.52-5.72,4.36-11.06,2-17.1-1.42-3.54-.11-7.84-3.12-10.94,3.67-8.13-1.34-16.22-.09-24.37.7-4.54-2-8.1-5.77-7.68-4.06.45-5.59,2.61-5.84,7.16-.2,3.74.74,7.6-.45,11.29-.15.48-.55,1.25-.38,1.4,4.35,3.91,3.29,9.35,4.17,14.23.8,4.41,4.57,9.11-1.51,12.92-.86.53-.61,2.81-.87,4.28Z" fill="#30333d"/><path d="M777.72,621.63a21.08,21.08,0,0,1-19.2-4.53,8.66,8.66,0,0,0-6.06-2c.85,1.18,2.08,2.07,1.84,3.87-.74,5.62,2.28,8.23,7.59,8.86a5.35,5.35,0,0,1,6.53-1.16c11.82,5.28,24.43,2.64,36.68,3.55,3.42.26,6.13-1.92,9-3.12,3.25-1.36.07-4.54.77-6.83-1.12-2.14-4-2.92-4.53-5.51a1.31,1.31,0,0,0-1.22-.45c-6.47,1.85-12.48,5.36-19.83,3.4C785.05,616.54,781.44,619.84,777.72,621.63Z" fill="#80715d"/><path d="M814.7,619.88a19.17,19.17,0,0,0-1.52,1.32c-1.32,1.39,5.59,7.59-2.88,4.82-1.3,4.4-5,2.8-7.82,2.84-7.45.11-14.9-.1-22.34-.19-4.13,0-8.25-2.35-12.33-3.75-3.5-1.21-6-.09-5.92,2.87l0,0c.86,3,3.31,3.39,5.94,3.4l3.11-.82c5.07,1,10.32,1,15.2,2.92a8.68,8.68,0,0,0,7.42,1.95c7.52.31,14.93-1.42,22.46-1.22a20.59,20.59,0,0,0,2.44-.7c7.71-2.24,8-2.79,5-10.6a14.59,14.59,0,0,0-4.18-4.32c-1.69-1.18-3.39-1.75-4.57.69C814.75,619.37,814.73,619.63,814.7,619.88Z" fill="#74604f"/><path d="M750.54,633.79c.27-.5.4-1.15.72-1.27,2.91-1.06,4.06-2.76,1.42-5-2.94-2.55-6.46-2.88-9.49-.27-1.19,1-2,2.51-3.49,3.38a1.62,1.62,0,0,0-.86,2.07c.53,1.6,8.06,6.4,9.78,6.12C752,638.22,753.22,636.74,750.54,633.79Z" fill="#b99b73"/><path d="M752.45,615.06c-1.9-3-4.19-5.72-4.55-9.41a13.37,13.37,0,0,1-1.33.73c-5.26,2.17-11.78,3.69-5.7,11.45.32.41-.24,1.57-.52,2.34a21.73,21.73,0,0,1-1.61,2.49c5.12-2.3,9.63-1.51,14.15-2.94L744,615.57C747.26,614.14,749.9,615.16,752.45,615.06Z" fill="#80715d"/><path d="M722.51,624.8c1.37.61,2.68,1.24,4,1.77.88.34,2.24.2,2.05,1.62-.12.85-1,1.26-1.9,1.42-1.09.19-2.59-.14-2.65,1.58,0,1,.85,1.46,1.73,1.41,1.19-.06,3,1.14,3.45-.77.61-2.34,2.39-3,4.22-3.89,1.42-.71,3.5-1.57,2.37-3.66-.89-1.66-2-3.52-4.64-3.18C728,621.52,724.74,621.48,722.51,624.8Z" fill="#b09980"/><path d="M702.57,626.21c-1,1.53-2.64,2.79-2.36,4.93l1.94,1.16c3.53.41,7-.12,10.23,2.8,2.68,2.44,3.94-.23,4.15-2.93C712.09,629.69,707.87,626.73,702.57,626.21Z" fill="#72655a"/><path d="M767.86,631.22c-1.89-1.29-4.64-1.1-5.94-3.4C762.87,631.5,764.93,632.67,767.86,631.22Z" fill="#80715d"/><path d="M976.71,764.62c-1.38-.23-3,.16-3.93-1.32-6.55-1.41-7.5-.64-6.89,5.83a2,2,0,0,1-1.25,2.41,2.26,2.26,0,0,1-2.74-.7c-4-4.46-8-9-12.15-13.36-2.94-3.13-1.6-5,1.86-5.47,4.42-.63,3.94-2.85,2.47-5.64-1.92-3.62-4.21-7-8.54-8a3.55,3.55,0,0,1-2.91-3.61c-.3-3.63-3.34-5.74-4.82-8.72a1.74,1.74,0,0,0-2.09-1c-1.46.35-6.07,9-5.53,10.44.28.78,1,1.48,1,2.26.18,2,.3,4.08-1.57,5.56-.86.67-1.85,1.24-2.7.28a6,6,0,0,1-1.56-5.59c1.36-6.27-2.62-10.62-5.76-15.25-3.57-5.26-3.29-7.25,1.67-11.05.5-.39,1.35-1,1.27-1.38C921.34,704.94,924,699,920,694.18c-2-2.37-1.72-3.53,1.07-4.71a4,4,0,0,0,2.26-4.2c-2.61-1.89-3.84-5-4.54-7.62-2-7.7-6.67-13-13.41-16.79A39.68,39.68,0,0,1,901,668.4c-2.24,2.78-.93,6.78-.05,10.18a23.45,23.45,0,0,0,3,5.83c1.32,2.2,3,3.14,5.43,1.37,3.29-2.37,3.74-.42,3.43,2.37a18,18,0,0,0,.93,7.43c1.28,4.09.25,5.43-4.13,5.63a6.8,6.8,0,0,1-1,0c-3-.26-6.47-1.68-8.19,1.91-1.87,3.91-2.12,8.1.26,12.08a57.49,57.49,0,0,0,5.42,7.3c.72.85,2,2.34.78,3-4.45,2.41-4.6,8.25-9,10.55a32,32,0,0,0-2.28,2.66c-1.48,1.83-3.3,3.8-1.82,6.22s3.89,1.14,6,.82c6.6-2.69,12.61,1.19,18.84,2,2.78.38,3.66,4.33,2.92,7.28A14.49,14.49,0,0,0,923,765.78c2.25,4.19,1.47,8.87,2.34,13.27a5.22,5.22,0,0,1-5.29,6.35c-.38,4.73,2.66,6.35,6.61,7.13,1.47-.13,2-1.07,2.08-2.39.13-1.84-.85-4.26,2.65-4.21,3.22.05,6.88-1.77,8.66,2.79a28.6,28.6,0,0,1,1.74,5.25,22.41,22.41,0,0,0,6.85,13.13c3.45,3.22,3.71,8.2,4.89,12.52.84,3.08-2.61,2.89-4.22,4.09-.95,2.26,0,3.93,1.69,5.38,4.44-.58,8.81-1.05,12.88,1.69,1.19.81,2.6.13,3.42-1.18.74-1.68.25-3.3-.3-5.06a98.15,98.15,0,0,1,6.77,21.29c.38,2,1,4.17,0,5.94-3.53,6-2.34,12.35-1.91,18.67a36.11,36.11,0,0,0,.33,4c.46,3.7,1.58,7.13,4.28,9.88,2.06,2.39-.2,5.74,1.93,8.2a2.35,2.35,0,0,0,2.35-2c-.57-6,1.82-12.22-2.5-18.1-3.52-4.79-1.53-10.87-.41-16.17a61.06,61.06,0,0,0,.8-21.32c-1.59-12.25-5.87-25-1.09-37.41a3.09,3.09,0,0,1,.31,1.16c-1.26,14.83,7,27.91,7.94,42.32.17,2.51.66,5,.89,7.5.19,2.08.09,4.29-2.28,5.09s-1.69-2.5-3.28-2.93c-.32,7.1,1.33,13.92,2.87,20.76.89,3.91,4.55,6.76,4.22,11.1.43,1,1,.9,1.58.14l.18-1.59c.47-8.56-3-17.05-.39-25.64l1.75-9.94a25.88,25.88,0,0,0,2.07-8.56c0-2.8.26-5,3.31-7.25s4.06-7.37,2.59-11.85c0-1.34-.58-2.26-2-2.39-.15.65-.09,1.72-.47,1.9-6.44,3.13-3.68,9.17-4.65,14-.55,2.72,1,7.45-3,7.34-3-.08-2.88-4.68-2.83-7.65.08-4.94,1.6-10.06-2.21-14.42a2.06,2.06,0,0,1-.2-1.47c1.59-9.68-2-18.78-3.25-28.13.55-3.86,1.19-7.73-1.44-11.18C977.57,772.3,977.14,768.46,976.71,764.62Z" fill="#cd8244"/><path d="M898.66,736.47c2.73-1.72,5.57-3.32,5.67-7.15a2.15,2.15,0,0,1,2.3-2.21c4.72-.05,3-2.37,1.46-4.32-2.13-2.62-4.21-5.25-6.25-7.95-2.67-3.54-1.37-7.13-.85-10.64.26-1.79,1.86-3.05,4.3-2.22a13.25,13.25,0,0,0,5,.64c5.75-.34,6.67-1.9,4.63-7.2a12.9,12.9,0,0,1-.74-8.4c.61-2,.12-3.33-1.65-4.14-1.6-.73-2.75-.38-3.63,1.45-1.25,2.59-2.64,2-3.94-.22-2.42-4.12-4-8.41-3.79-13.3.05-1.09,0-2.24,1-2.54,4.21-1.21,3.08-4.55,3.23-7.41,0-1.89.74-3.54,1.36-5.29.91-2.52.79-5.16-2.6-5.88a4,4,0,0,1-3.42-3.28c-1.86-9.44-10-11-17.33-13-2.91-.8-7.19-2.38-9.56.77s1.4,5.78,2.41,8.65c2.25,6.46,5.65,13-1.54,18.67-1.42,1.13-.92,2.3,0,3.52.61.88.88,1.93-.18,2.66a2.55,2.55,0,0,1-2.88-.14c-1-.59-1.51-1.57-.77-2.55,2-2.66.61-4.5-1.57-5.78-2.49-1.47-5-.17-7.18,1.06-2.42,1.38-1,3.18.22,4.6,2.95,3.35,5.38,6.34.51,10.41-2.82,2.36-.63,10.37,3.31,14.57,5.45,5.8,5.44,5.8.55,12.14-1,1.33-2,2.69-3.05,4-2,4.8-1.11,6.6,3.77,7a10.3,10.3,0,0,1,3,.34c1.5.6,2.77,1.53,2.52,3.34-.22,1.63-1.58,2-3,2.2a10.36,10.36,0,0,1-2.55-.16c-1.83-.26-3.44.13-4.46,1.74-1.17,1.85,0,3.29,1.23,4.46a4.78,4.78,0,0,1,1.21,5.5c-.6,1.83-.55,3.78,1.17,5.09,2,1.49,3.56.19,4.92-1.12,1.82-1.74,3.56-1.65,5.44-.17,4.76,3.75,10,5.06,15.71,2.45C894.65,735.77,896.68,737.12,898.66,736.47Z" fill="#da904d"/><path d="M898.66,736.47c-2.5-1.79-4.71-2.15-7.85-.55-4.43,2.26-8.91.83-12.61-2.39-2.73-2.36-5.21-4.06-7.74.22-.57,1-1.65,2-3,1.39a2.78,2.78,0,0,1-1.16-3.95c2-3.24,1.33-5.44-1.68-7.47-.82-.55-2.12-1.52-.94-2.89.79-.91,1.73-1.64,3.11-1a6.64,6.64,0,0,0,1.92.62c3,.28,6-.42,6.09-3.73a4.8,4.8,0,0,0-5.69-5.08c-5.87,1.37-6-1.56-5.49-5.64-2.64-1.11-3.69,1.61-5.58,2.29-4.56,1.65-9,2.58-12.89-1.4-1.26.9-1.36,2.27-1.34,3.61,0,2-.91,2.74-2.83,2.54-3.19-.32-4.64,1.69-5.42,4.26-1.32,4.39-2.56,9.45-.78,13.31,2.28,4.95,5,9.58,6.89,14.85,1,2.82,3.41,5.42,4,8.81.29,1.76,1.23,3.65,3.42,3.91,1.54.19,1.87-1.11,2-2.33a9.76,9.76,0,0,1,1.12-6.77,4.89,4.89,0,0,0,.17-1.42c-.76-3.12,1.17-4.87,3.59-5.9,3.7-1.57,4.35,3,7.29,3.53-1.16,1.27-2.63,1.38-3.55,2.39a3.58,3.58,0,0,0-.28,5c1.31,1.71,2.85,2.77,5.24,1.58,3.71-1.84,7.46.63,6.65,4.6-.56,2.7-.07,4.57,1.9,6.28,2.52,2.17,1.79,5.28,2.3,8,.33,1.77.06,4,2.67,4.19,2.29.14,2.43-1.92,2.94-3.86,1.78,1.38,2.28,3.72,4.09,4.48,3.41,1.42,2-2.82,4.43-3.44,2.11,1.86,1.69,5.28,3.27,7.7s2.29,6.63,6.41,2.47c.53-.54,1.14-.36,1.82,0,6,3,6.62,2.92,11.27-2-2.79-3.3-4.06-7.55-7.12-10.76-2-2.09-.81-4.69.32-7.06,3-6.32,2.94-7.64-2.9-11.74-3.45-2.42-2.53-5.4-2.58-8.44a25.16,25.16,0,0,0-3,.31c-1,.22-2.11.61-2.72-.48a2.84,2.84,0,0,1,.51-3.27C896.24,739.67,897.44,738.07,898.66,736.47Z" fill="#cf925a"/><path d="M851.83,747.83l-.06,1c.64,2.25-2.61,3.61-1.4,6-.23.77-.22,1.87-.74,2.25-1,.71-1.39-.42-1.75-1.1-.53-1-1.5-2.18-1.34-3.12.64-3.7-.93-6-4-7.79-1.75-1-1.64-2.57-1.35-4.39.44-2.7,2.79-6.46-3.22-6.37-1.7,0-2.32-2.48-2.31-4.06a64,64,0,0,1,.77-11.5c.52-2.86,1.36-6.14,6-4.09,1.94.86,3.65,0,2.93-2.85a23.32,23.32,0,0,1-.19-5c3.09-1.56,5.9-3.49,9.87-1.92,2,.8,4.28-.56,4.74-3.28.44-2.57-1-3.13-3.23-3.26-2.81-.15-2.91-1.62-.92-3,3.18-2.21,2.54-4.73,1.06-7.38-.7-1.25-1.2-2.37-.45-3.74,1.42-2.55.49-5.16-.79-7.15-2.47-3.85-1.2-8.19-2.32-12.16a1.58,1.58,0,0,1,1.05-2c4.81-2,3.41-5.63,2.46-9.14-1.86,1.67-3.29,3.73-5.27,5.33-2.8,2.26-5.45,4.52-9.37,2.39-.58-.31-1.3.13-1.77.67-.43,3.49-2,4.42-5.78,3.9-6.29-.88-7,.51-4.11,6.25,3.21,6.38,8.21,8,14.58,4.36,2.7-1.54,3.87-.62,4.37,1.81,1.16,5.61,1.84,11.15-4.44,14.64a4.64,4.64,0,0,0-2.53,3.59c-.69,5.68-1.9,11.11-6.72,15.07-1.68,1.38-1.45,3.68-1.69,5.68-.37,3,.15,6.09-1.5,8.7-.5.26-.83.23-1-.08-1-1.69-.3-5.23-3.58-4.47s-2.66,4-2.28,6.38c.42,2.64,1.64,5.14,1.87,7.86-.85,4.18-3.8,7.42-5.13,11.45A42.07,42.07,0,0,0,820,757.62c-.23,3.06-.44,5.49,2.84,7.74s1.7,6.26.48,9.29c-1.81,4.53-1.92,9.17-1.87,13.86,0,1.7.39,3.7,2.2,4.2,2.19.59,3.24-1.31,4.12-3s1.46-3.79,3.27-5c1.79-2.07,1.52-4.34.57-6.63-.64-1.56-1.85-3.18-1.52-4.75,1.1-5.14,1-9.83-2.92-13.93a1.69,1.69,0,0,1,.93-2.83c1.62-.37,3.4-.62,4.8.74a4.17,4.17,0,0,1,.78,1.84c.6,1.84.14,4.7,2.51,5.06,2.93.44,2.27-2.69,3.06-4.34.3-.63.67-1.22,1.45-1.17a2.21,2.21,0,0,1,1.84,1.55c.41,1,.75,2.16-.57,2.53-2,.58-2.62,2-2.77,3.78-.22,2.48-.9,5.25,1.61,7,2.31,1.58,4.57.2,6.7-.85,8.38-4.16,11.73-10.25,10.64-19.68a8.85,8.85,0,0,0-4-6.2C853.3,746.25,851.86,745.71,851.83,747.83Z" fill="#bb865c"/><path d="M840.78,662c2.41.17,4.39,4.06,6.73,1.77,3.19-3.13,8.59-4.42,9.15-9.92-3.46-1.84-2.88-4.45-1.45-7.25,3-5.91,2.67-7.4-2.53-11.22-.54-.4-1.15-.72-1.72-1.08a2.84,2.84,0,0,1-1.24-3.52c.6-1.23,2.16-.58,3.16,0,1.29.77,3.15.24,4.09,1.77,4.13-.41,4.88-3.54,5.53-6.75,0-2.48-1.67-4.22-2.69-6.25-2.33-3.78-4.84-6.88-4-12.38.53-3.6-.69-9.35-5.09-12.47a17.39,17.39,0,0,1-2.72-3c-1.21-1.42-2.82-3-2-4.86,1.16-2.61,3.26-.28,4.92-.25,3.38,0,6.79.85,10.34-.89-.85-2.12-2.89-4.07-2-6.72-11-1.8-18.57,5.57-16.26,15.82.34,1.5.85,3,.13,4.46-3.45,6.75.61,10.87,5.33,14.56,2.82,2.2,5.77,4.16,7.71,7.27,1.22,2,1.69,3.37-1.5,3.6a13.65,13.65,0,0,0-6.58,2.63c-5,3.4-9.75,6.85-16.34,5-.8-.23-1.57.5-1.92,1.36,1.64,2.47,1.57,7.24-.16,9.85-1.55,2.33.13,5.16,3.71,5.36,2.47.13,4.24.74,5.45,2.83.72,1.23,1.06,2.31-.27,3.55C834.65,658.87,835.13,660.23,840.78,662Z" fill="#ae7c52"/><path d="M862.5,625.8c-2.18,2-2.72,5.28-5.54,6.75,1.34,1.63,3,1.6,4.3.26C863.07,630.85,864.45,628.54,862.5,625.8Z" fill="#b38058"/><path d="M969.23,910.05c-1.78,10.26-4.93,20.3-5.13,31.33,8.77-10.72,7.84-24.28,12.55-35.9.68-3.52,1.59-7.09-2.44-9.42l-.58,3.88C973.46,903.86,970.83,906.74,969.23,910.05Z" fill="#c68d59"/><path d="M957.62,956c.55-12.34,1.46-24.65,3.86-36.8-1.5-3.66,2.06-7.62-.69-11.2-3.73,1.57-2.48,5-3,7.77.69,3.84-.67,7.51-1.19,11.22-.22,1.6-3.8,1.54-3.46,4.25-.16,5.51.19,11-1.83,16.4-.93,2.49-.24,5.33.09,8,.16,1.34.31,3,1.69,3.46,1.89.6,2.33-1.52,3.4-2.44A3.34,3.34,0,0,0,957.62,956Z" fill="#b57e4b"/><path d="M978.89,917.89c3.09.45,4.23,2.2,3.81,5.23a49.64,49.64,0,0,0-.19,5.46c2.22-6.4,1.06-13.31,3.08-19.78,1.59-5.13,2.65-10.41,3.94-15.63,1.34-3,.66-4.19-2.73-3.13-3.19,4.15-2.56,9.18-3.28,13.91C982.77,908.84,977.88,912.41,978.89,917.89Z" fill="#c68d59"/><path d="M884.17,984.91c0,1.7,0,3.36,1.94,4.14l.42-8.94a4.3,4.3,0,0,1-.62,0A4.69,4.69,0,0,0,884.17,984.91Z" fill="#9f744c"/><path d="M652.43,757a5.48,5.48,0,0,1-.56.83c-5.85,5.69-7.87,5.46-11.78-1.47a17.93,17.93,0,0,0-7.66-7.66l-3.18,1.83c3.91,3.68,7.77,7.37,9.33,12.76.43,1.48,1.61,3,3.16,2.93,3.52-.09,1.61,2,1.69,3.4,5.45.52,9.23-3.2,13.66-5.24.17-1.77,1.28-2.44,2.92-3,5.21-1.67,10.35-3.53,15.5-5.37a10.17,10.17,0,0,0,3.14-1.57c1.39-1.17,3.17-2.61,2.24-4.59s-3.1-1.45-4.93-.87q-11.22,3.54-22.45,7A1.19,1.19,0,0,0,652.43,757Z" fill="#53514f"/><path d="M643.43,769.62c.62-1.92,3.4-1.61,4-4.12-2.18-.64-4.7.91-6.57-.65s-1.12-4.73-2.39-5.81c-3.19-2.74-3.83-8.26-9.26-8.51-1.68,1.52-3.31,3.1-5.06,4.52-1.52,1.24.52,1.42.54,2.17,3.55-.63,5.33,2.29,6.32,4.38,1.49,3.17-2.87,1.37-3.71,3a2,2,0,0,0,.85,3.25c3.59,1.23,6.81,4.28,11.1,2.58A7.4,7.4,0,0,0,643.43,769.62Z" fill="#423e41"/><path d="M881.24,936.41c2.87.27,1.71,2.52,1.74,3.89.1,6.72,0,13.44,0,20.57,3.62-1.34,3.65-4.4,4.24-7.12,1.86-4.82.08-10.14,2.06-15,2.14,2.1.45,4.54.64,6.81,2.35.61,1.33,2.58,1.65,4,.74,3.33,2.1,3.48,4,.74,1.59-6.68,2.42-13.51,4.3-20.12.72-2.5.2-5-.31-7.44-1.17-3.26-.11-6.67-.59-10a24,24,0,0,0-2.76-8.05c-.74-1.34-2.83-2.74-.93-4.32s4-3.31,6.86-2.34a20.77,20.77,0,0,1,3.53,2c3.3,1.9,6.58,4.11,9.29-.93.84-1.56,3.18-1,4.42-2.25.2-1,.39-1.95.85-4.16a122.89,122.89,0,0,1,4.23,26c3.09-3.9,6-20,5.84-32.33-.72-4-3.8-4.32-7-4a21.11,21.11,0,0,0-7.23,2.43,5.35,5.35,0,0,1-5.35.06c-4.62-2.69-9.43-.2-14.17-1.18.61-1.35.25-3.35-.65-5.24-3.62-7.58-9-14.14-17.1-16.23-4.41-1.15-8.29-.35-8.72-6.24-.08-1.11-1.64-.81-2.58-.27-2.29,1.34-2.73,3.28-1.85,5.53-6.88-3-7.37-9-7.43-15.28-.08-8.19-1.39-15.84-9.19-20.67-6.81,3.3-11.52.9-16.46-4.38-3.5-3.74-8.2-6.44-11.06-11-1.81-2.86-2.84-6.18-2-9.17,2.16-7.51-.6-15.42,2.57-22.88,1.48-3.47-.68-7-3.22-9.61-2.78-2.86-3.24-5.4-1-8.93,2.75-4.33,1.67-7.14-3.24-8.23-2.66-.59-4.13-3-6.76-3.22-2.88,1.28-3.79,3.47-2.84,6.37.53,1.65.07,3.22,0,4.82a5,5,0,0,0,1.88,4.45c10,7.25,10.93,12.47,4,22.86a9,9,0,0,1-.85,1.24c-3.23,3.46-3.34,7-.65,10.89,2.08,3,3.19,6.62,4.88,9.88h0c-1.08,5.06,3.35,7.38,6,9.71,5.11,4.45,9.55,9.46,14.34,14.16a8.81,8.81,0,0,1,1.78,2.42c2.54,5.1,4.75,5.44,8.48,1.4,3.91-4.24,4.72-4.11,7.13,1.2s1.62,9.57-2.35,13.21c-3.18,2.92-2.7,5.53,1.4,7.06.89.34,2.07-.07,2.14,1.48.35,7.4,2.89,14.65,2.43,22a29.77,29.77,0,0,0,7.61,22.23,13.47,13.47,0,0,0,5.12,3.18c4.95,1.74,7.1,4.59,6.11,9.65a15.45,15.45,0,0,0,3.47,13.59C879.6,931.73,879.37,934.56,881.24,936.41Z" fill="#9f744c"/><path d="M849,825.73c7.4,6.51,8.63,15.24,7.84,24.13-.62,6.89,5.23,9.27,8,13.79a1.86,1.86,0,0,0,2.74.14,1.38,1.38,0,0,0,0-2.2c-2.8-2.75-1.28-4.25,1.75-5.72.72,2.33-.57,5,1.57,6.72,1,.83,1.69,2.4,3.34,1.64,6.74-3.05,10,2.32,14.13,5.63,1.15.93,1.78,2.47,2.85,3.53,4,4,5.48,8.63,3.46,14.45,2.05-2.72,3.85-3.15,7.24-2.63s7.15-.68,10.55,2c1.58,1.22,3.35-1,5-1.74,4.46-1.81,8.88-4,12.78,1,2.84,4.87,2.07,10.65,3.81,15.78,1.83-.05.86-2.23,2.36-2.43.91,1.73-.34,3.52.1,5.25,3.3-1.07,2.28-4,2.52-6.22.37-3.43,1.89-5.18,5.46-4.95a3.4,3.4,0,0,0,2.43-4.25c-1.92-2.07-4.49-2.26-7.05-2.16-2.94.1-4-1.39-3.93-4a19.1,19.1,0,0,0-.5-6.52c-.43-1.35.22-2.26,1.26-3,5.06-3.73,5.16-8.75,3.58-14.09-.51-1.73-.86-3.19.54-4.67,2.94-3.08.53-5.23-1.51-7.27-3.13-3.11-9-4.83-11.14-3.4-1.62,1.08-1,2.67-.94,4.15.14,2.38,1.77,4.35,2,7.22-1.88-.95-2.43-2.64-3.51-3.77-1.39-1.45-3.22-2.72-5-1.68-6,3.57-11.56.44-17.17-.87-5.31-1.24-6.63-1.13-7.7,4-.78,3.69-3.36,3.12-5.63,3.81s-4.37.36-5.68-2c-1.91-3.37-5.08-5.79-6.63-9.53-1.34-3.23-3.15-3.18-5.38,0-1.91,2.7-3.23,1.58-3.8-.5-.65-2.36-2.85-5.16,1.69-7,2.77-1.09,2.25-5.42-.75-6.79-3.46-1.57-4.33-4-3.78-7.34.59-3.62-1.52-5.72-4.46-7.16-2.17-1.06-4.54-.72-4.7,1.91-.35,5.63-3.46,6-7.8,4.76A1.64,1.64,0,0,0,849,825.73Z" fill="#b57e4b"/><path d="M919.35,896.92c-2.58.15-6.12-1.76-6.41,3.14-.08,1.26-1.28,1.53-2.34,1.07a30.52,30.52,0,0,1-4.47-2.32c-5.31-3.48-8.4-3.3-12.91,1-.84.81-1.88,1.92-.6,3,5.33,4.49,5.42,10.45,5,16.6a2.94,2.94,0,0,0,1,2.73l.48-.46c.54-.52.21-1.41.82-1.89a9.06,9.06,0,0,0,1.07,2.16,3.31,3.31,0,0,0,2,1.1,3.6,3.6,0,0,0,3.4-1.66c1.37-3.1.93-6.67,2.37-9.37A135.79,135.79,0,0,1,906,951.27c-.36,1.64-1.42,4,1.89,4.58,1.34.25-.15,1-.3,1.39-1.49,4.18-4.9,7.78-3.86,12.72.36,9-1.11,18.08.07,27.11.14,1-.63,2.68,1.08,2.91s2.15-1.36,2.44-2.67a16.52,16.52,0,0,0,.63-4.43c-.95-15,3.91-29.1,6.14-43.62a18.47,18.47,0,0,0,.8-12.46c-1.43-5.64,1.73-11.11,1.82-15.65-.66,2.52.23,6.11.57,9.7.09,1,0,2.52,1.89,2.31,3.1-10.87,1-21.83.55-32.76C919.62,899.24,919.46,898.08,919.35,896.92Z" fill="#8c6743"/><path d="M917.73,985.85c3.83-9.55,3.29-19.41,1.75-29.37-1.2,11.77-8.24,22.81-4.06,35.26C918.7,990.73,916,987.46,917.73,985.85Z" fill="#8c6743"/><path d="M944.33,893.47c-3.81-2.75-5.44-.53-6.31,2.86-.73,2.84.51,6-1.48,8.68q-.9,4.51-1.81,9c-.6,3.43-1.81,6.86-.14,10.32,1.61-.25,2.16-1.57,2.55-2.8,2.44-7.77,5.45-15.38,7.41-23.3C944.94,896.68,945.54,895,944.33,893.47Z" fill="#b57e4b"/><path d="M926.29,967.25c1.52,2.16.55,4.53.49,6.78,0,1.8.8,1.89,2.13,1.68,2.36-.3,2.15-2.36,2.71-3.88a36.78,36.78,0,0,0-1.93-19.75c-1,.18-1.4.91-1.78,1.7a19.13,19.13,0,0,0-1.73,10.46C926.22,965.24,926.25,966.25,926.29,967.25Z" fill="#8c6743"/><path d="M879.36,979.33c.48-2.06,1.58-4.21,1.3-6.16-.37-2.61-1.21.44-1.94.2-1.12,1.09-3.38-.49-4,1.7-.41,1.42-.64,2.83.44,4.09,0,1.3,0,2.59,0,3.89,0,.8-.23,1.87.75,2.06,1.2.24,1.28-1.28,2.08-1.79Z" fill="#7f6b50"/><path d="M921.47,948.76c.85.59,1.54,1.14,2.31-.29s.4-3.34,1.93-4.42a.56.56,0,0,0,.31-.55c0-.21-.1-.32-.17-.33-.21-2.66-2.42-4.19-3.63-6.29C921.9,940.84,920.21,944.71,921.47,948.76Z" fill="#8c6743"/><path d="M830.21,634a2.2,2.2,0,0,1,2.75-.71c5.25,2.79,9-.34,12.94-3,3.26-2.23,6.36-4.42,10.77-4,2.7.23,3.64-1.8,2-4-2.38-3.19-4.68-6.43-8.28-8.62-6.89-4.19-7.93-7.14-5.49-14.51.49-1.51-.1-2.57-.47-3.82-2.54-8.48,1.29-14.23,10.4-15.43a14.29,14.29,0,0,0,4.44-.82c-.23-1.69-.47-3.38-.7-5.07,0-.36-.06-.71-.1-1.07-5.59,1.26-9.2-4-14.2-4.58-.82,1.58,0,2.55.77,3.31,4,3.76,4,5,0,8.87-1.41,1.37-3.4,2.3-3.6,4.6a4.16,4.16,0,0,0-2,4c.84,6.35,1.05,12.63-1.74,18.67-1.26,2.72-3,4.91-6,5.63s-4,2.48-4,5.44c-.11,4.66-1.13,9.28-.74,14C827.67,634,828.6,635,830.21,634Z" fill="#9b7555"/><path d="M777.72,621.63c6.7-3.42,14-2,21.1-2.57,3.14-.27,5.68-4.54,9.24-1.34.6-1.13,1.19-2.26,1.79-3.38a2,2,0,0,0-.94-2.52c-2.85-1.39-6.24.21-9-1.6a2.24,2.24,0,0,0-2,.46c-5.75,2.58-12.54.77-18.09,4.18-2.18,1.33-4.75,0-7,1-1.13.5-3.11.16-2.8,2.17.2,1.28,1.41,1.77,2.74,1.72A6.43,6.43,0,0,1,777.72,621.63Z" fill="#4d433e"/><path d="M776.12,597.23c.94-3.19,1.42-6.15-2.52-7.94-1.18-.54-1.55-2-2-3.35a101.06,101.06,0,0,1-4.34-29,29.18,29.18,0,0,0-2.35-10.09c-.31,1.35.29,3-1.26,3.95-.71,4.57-1.56,9.06,1.76,13.23,1.49,1.87-.89,4-.42,6.26,1.66,7.86,1.2,16.18,5.21,23.53,1.25.89,2.74,1.78,2.49,3.5-.2,1.39-.17,2.44,1.37,2.64C776.21,600.23,775.91,598.49,776.12,597.23Z" fill="#796b60"/><path d="M797.85,610.68l2,.19a5.51,5.51,0,0,0,3.33.87,2.5,2.5,0,0,0,2.71-2.37,2.62,2.62,0,0,0-2.45-3.11c-2.43-.46-5,.66-7.34-.73-3.16.33-5.85,0-5.94-4.07,0-1.39.75-3.5-1.32-3.76-1.91-.24-1.42,2.42-2.65,3.29-.39,1.65-1.64,3.07-1.38,4.9l0,0C788.51,609.16,793.58,608.87,797.85,610.68Z" fill="#99816d"/><path d="M784.82,605.89c-1.8-1.58-3.63-2.9-6.23-1.57-1,.51-3.24-.37-2.35,2,.53,1.38,1.68,2.54,3.58,1.68,1.64-.74,3.32-1.4,5-2.1Z" fill="#99816d"/><path d="M639.29,770.4c-4.41-1.1-9.51-.8-11.95-5.83l-16.26,3c.08,7,4.83,2.72,7.65,3.6,1.67-.58,3.67,1,5.15-.78,2.93-1.88,7.09-1.08,8.43.38C635.44,774.2,637.08,772,639.29,770.4Z" fill="#53514f"/><path d="M623.88,770.39c-1.72.25-3.62-.74-5.15.78-1.06-.52-6.93-.33-6.81-.22,0,1.74.4,9.56,2.88,14.15,1.28-5.23,7-3.64,10.06-6.25,1.88-1.57,5.79-1.49,5.66-4.7C630.35,770.32,626.66,770.73,623.88,770.39Z" fill="#93867a"/><path d="M809,612.43l.86,1.91.06.2a4.26,4.26,0,0,0,4,1.48,5.3,5.3,0,0,0,1.51-1.51c4.58-2.37,7.46-6.59,11.12-10,1.34-3.93,3-7,8.26-5.09,2.4.89,4.51-.41,4.4-3.3-.09-2.5,2.55-4.58,1-7.21.42-1.3.83-2.61,1.25-3.91-4.87-4.41-5.66-9.63-4-15.82,1.12-4.08,1.14-8.45,1.65-12.7-.59-4.75-3.09-9.35-1.16-14.31-.33,0-.65-.08-1-.12-.14,1.46-.88,2.74-2.3,2.9-6.47.72-7.92,5.58-9.37,10.6-.3,1-.46,2.32-1.64,2.95A26.58,26.58,0,0,0,824,567c.87,3.35,2.33,5.4,6.15,5.19s4.45,1.54,2.46,4.53c-.78,1.16-1.43,2.53-.86,3.78,3,6.57-3.32,9.6-5.39,14.23-.11.23-.57.32-.87.47a4,4,0,0,0-1.92,1.6c-3.21,5-7.06,7.72-13.55,5.53a7.59,7.59,0,0,0-8.76,2.43l.09.23c.29,3,2.8,1.49,4.14,1.7C811,607.52,811,607.44,809,612.43Z" fill="#62564e"/><path d="M992.47,800.22c-4.26-1.67-1.17,2.47-2.51,3.11-.3,4.77-.59,9.54-.88,14.21C995.08,812.79,994.31,806.61,992.47,800.22Z" fill="#cd8244"/><path d="M940,978.25c4.14-2.81,1.32-7.86,3.68-11.24,1.21-.72,1.49-1.94,1.75-3.17,1.2-15.72,4.29-31.3,3.51-47.19-.19-3.84,2.44-7.4,2.1-11.33-.24-2.69.58-6.89-2.58-7.32s-3,3.79-3.72,6.22a32.1,32.1,0,0,0-1.65,8.9c.42,6,.79,12.06-1.94,17.78-.81,1.7-.78,3.6-.94,5.44-.32,4.51-.6,9-.8,13.53a10.27,10.27,0,0,0,.89,4.83c.48,1.06,2.35-1.44,1.2.48-3.1,5.16-3.53,11.1-5.48,16.59-.09,1.77-.49,3.62.2,5.28S937.81,980.58,940,978.25Z" fill="#b57e4b"/><path d="M881.24,936.41a11,11,0,0,0-2.86-8.32c-2.61-3.19-4.2-6.78-2.52-11.15,1.48-3.86-1.26-7.09-2.2-10.58a1.57,1.57,0,0,0-2.1-1c-3.39,1.17-5.22-1.82-7.81-2.75-2.64,5.67-3,11.09,1,16.48,2.15,2.89,4.56,6,2.45,10.09-1.41,4.73,1.54,9,1.33,13.66-.08,1.86,2.44,1.61,2.91,3.12,1.2,1.84-1.69,4.06.55,5.81a4.48,4.48,0,0,0,.18,1.44c.44.9.45.09.57-.19,1-2.42,2-4.84,3.35-8.13.11,2,.17,3.05.23,4.11a.89.89,0,0,0,1.23,0c.56-1.29,0-2.82.87-4C879.08,942,881.2,939.56,881.24,936.41Z" fill="#8d6d4d"/><path d="M884.51,969.27c-.35,2.39.62,4.59,1,6.87,1.19-4.46,3.68-8.77,1.66-13.62C885.45,964.44,886.43,967.42,884.51,969.27Z" fill="#9f744c"/><path d="M873.82,963.12c3.81-1.62,2.9-5.14,3.22-8.1.21-1.95.07-3.94.09-5.92l-.79-.06Z" fill="#7f6b50"/><path d="M830.21,634l-3-1.19c-3.32-.47-9.76,2-10.93,4.81a4.5,4.5,0,0,1-3.83,2.8,27.4,27.4,0,0,1-13.25-.78c-8.35-3-8.07-1.54-14.66,3.76.67,3,.71,6.69,1.39,9,1.21,4.23,1.63,9.91,6.46,12.73,3.41,0,4.05-1.68,2.77-4.48-.75-1.64-2.54-3-1.88-5,.84-2.56,2.71-4.77,4.34-6.68s4.24.58,4.14,2.31c-.27,4.49,2.33,4.92,5.66,5.22a8,8,0,0,1,5,2.47c-2,2.57-6.51,3.63-4.59,8.25-3.36-.21-5.14-5-8.49-2.19-1.68,1.42-.63,3.4,1,4.75.32.66.64,1.32,1,2,.63,1.41,2.13,1.62,3.3,2.19,5.67,2.75,9,1.28,10.78-4.64.28-.92-.1-2.21,1.13-2.57,1.39-.41,2.21.71,2.87,1.66,2.34,3.38,5.64,6.34,5.07,11.06-.26,2.2,1.87,3.44,2.56,5.43-2.16.28-3.5-1.19-5.07-2a4.31,4.31,0,0,0-5.86,1.31c-1.66,2.14,0,3.4,1.52,4.51s2.4,2.56,2,4.33c-1.16,5.13.27,10,1.08,15,.27,1.63.82,3.67-1.56,4.11-1.94.36-2.35-1.56-3-2.89-1.71-3.54-1.19-8.16-5.21-10.6-4.3-.52-3,2.76-3.38,4.88,3.26,5.07,3.2,11.16,5.16,16.64.78,2.18.46,5-3.45,4.22a3.08,3.08,0,0,0-3.74,1.87,3.54,3.54,0,0,0,1,4.56c2.82,2.11,2.42,4.1.09,6.19-2.49,2.24-1.6,4.47,0,6.73,3.81,4.49,3.68,4.39,7.44-.39,2.58-3.29,6.87-3.83,10.49-5.38,1.69-.73,3.58-1,4.63-2.71-.57-3.57-3-6.73-2.39-10.58.15-1,.05-2.22,1.41-2.32,1.81-.12,1.52,1.33,1.64,2.47.17,1.64-1.13,4.22,1.88,4.29,2.77.07,2.68-2.74,3.11-4.49a39.75,39.75,0,0,0,.58-7c.16-2.84-.15-5.91,3.93-6.48.53-.08,1.43-1,1.35-1.32-1.14-4.83,5.28-7.94,2.92-13.08-.68-1.48,1.11-1.72,2-2.37,6.12-4.31,8.07-11.48,4.93-18-1.5-3.1-4-3.52-6.24-1.07-3,3.22-10.28,2.37-11.62-1.64-.75-2.27-2.88-3.76-3.13-6.77,2.8,1.55,5.69-1,8.57,1.5,1.75,1.5,3-.82,3.19-2.5a16.39,16.39,0,0,0-.4-4l-4.56-4c6.18-2.71,6.41-5,1.59-9.66-1.53-1.46-2.48-.65-3.94-.35a3.5,3.5,0,0,1-4-2.45,2,2,0,0,1,1.91-2.51c3.65.41,3.83-2.33,4-4.4.2-2.76-2-3.5-4.46-3.67C831,634.87,830.59,634.29,830.21,634Z" fill="#a78462"/><path d="M652.43,757l1.08-.94a8.89,8.89,0,0,0,1.52-2c1.79-4.6,3.18-9.43,10.14-6.68,1.4.55,2.74-1.7,4.08-2.71,1.73-1.31,3.34-2.92,5.89-1.89,3.54,1.41,5.79-.71,6.85-3.42,1.25-3.2,3.12-4,6.24-3.56a5.54,5.54,0,0,0,3.41-.49c1.14-.7,3.29-1.39,2.38-3.23-.83-1.67-2.42-.37-3.6.07-7,2.63-13.66,2.34-20.31-1.48-2.74-1.57-5.71-.42-8.4,1.41-5.79,3.95-10.81,9-17.33,11.89-.6.27-1.07.88-1.68,1.06-1.65.49-4.41-.64-4.55,2-.12,2.23,2,4.11,3.92,4.87C645.69,753.31,647.24,758.83,652.43,757Z" fill="#79695d"/><path d="M810.82,698.68c2.89,3.89,2.52,9,4.91,13.1,1,1.68,1.37,2.75,3.65,2.1s3.41-1.61,2.92-3.84c-1.39-6.33-2.74-12.63-1.2-19.14.5-2.13-1.75-2.1-2.75-3-.81-.79-3.12-1-1.59-2.82,1-1.2,2.2-2.76,4.26-1.29,1.36,1,3,1.58,4.27,2.62s2.41,1,3.53-.11c1.63-1.69,0-2.24-1.09-3a5,5,0,0,1-2.31-5.2c.3-2.23-5.28-12.15-7.21-13.08-1.42-.68-2.63.32-3.92.57s-.71,1-.6,1.86c.69,5.72-2.44,8.05-7.76,6-1.55-.6-3.14-1.1-4.72-1.64a60.48,60.48,0,0,1,6.19,13.79,37.37,37.37,0,0,0,5.84,11.54C815.52,700.24,812,698.48,810.82,698.68Z" fill="#957c5e"/><path d="M807,743.07c-1.48-2.46-1.37-4.24,1.3-6.2s3.18-4.78-.69-6.39c-2-.83-1.88-2.2-1.44-3.64s1.52-2,3.16-1.25c5.34,2.5,5.4-3.46,4.86-4.46-2.85-5.29-1-12.08-5.6-16.65a13.89,13.89,0,0,0-1.19-.92c-.64,3.47-2.88,6.15-6.12,6.5-5.46.57-4.21,4.55-4.11,7.33.08,2.48.49,5.79,1.44,7.47,3.54,6.25-.59,8.56-4.49,11.38.22,1.62.57,3.23.65,4.85.12,2.48,1.41,2,3,1.44,4.94-1.73,5.78-1.07,5.87,4.35-3.69,4.36-.69,8.23.91,12.21a1.06,1.06,0,0,0,1.42.15c.27-1.69,1.65-3.34.29-5.09-2-2.6.88-4,1.43-6C808.81,746.3,807.79,744.71,807,743.07Z" fill="#8c7254"/><path d="M800.26,669.77c-.36-1.56-1.75-3.5.09-4.56,1.33-.78,2.81.75,3.83,1.83,1.23,1.29,2.52,2.22,4.4,2.1,1.18-.09,2.3-.64,1.46-1.8-3.75-5.18,1.29-5.06,3.83-6.27,2.11-1,1.41-2.06.14-2.78-2.57-1.44-4.77-3.76-8.26-3.28-1.93.27-3.4.31-2.11-3s-2.95-4.48-5.27-5.5c-2.81-1.23-2.65,1.19-2.58,3.17a2.87,2.87,0,0,1-1.25,2.06c-3.91,2.53-3.92,5.51-1,8.62,2.29,2.41,1.37,3.7-1.17,4.78-.47,3.09-.3,5.8,3.71,6.3C797.54,671,798.49,669.38,800.26,669.77Z" fill="#957c5e"/><path d="M715.81,710.16c-1.84,1.73-5.71,2.77-4.06,6a10.72,10.72,0,0,0,7.67,5.69c5,.76,9.91-1,15-.67,3.21.21,4.2-3.76,2.74-6.81s-3.91-4.82-5.78-7.28c-.74-1.25-1.29-3.07-3.14-2.61-1.37.34-.84,2-1,3.08-.63,5.41-.58,5.38-5.09,2.43C720.07,708.57,717.93,710.07,715.81,710.16Z" fill="#574b44"/><path d="M686.52,713.48c-1.78-.06-3.52.32-3.22,1.47.57,2.28,3.59,1.71,5.11,3.22.46.46,1.24-.46,1.18-1.13A4.12,4.12,0,0,0,686.52,713.48Z" fill="#80715d"/><path d="M784.54,643.37c2.85-1,4.93-3.43,8.09-4,2.21-.4,4-.63,5.32,1.54a2.3,2.3,0,0,0,.64.77c1.81,1.16,17.87.18,18.12-1.43.78-4.9,5.67-4.31,8.09-6.84.48-.51,1.59-.43,2.41-.62,1.81-4.72,1.34-9.74,1.8-14.63.15-1.53-.48-3.26,1.81-3.29,6.69-.09,8.42-5.69,9.62-10.05,1.37-5,2.09-10.62-.27-15.86-.28,1.38.44,3.15-1.52,3.88-.63.23-1.68.44-1.42,1.13,3.13,8.1-2.79,4.08-5.16,3.53-6.59-1.52-5,3.87-6.28,6.8a1.78,1.78,0,0,0-.27,2c1.81,1,2-1.08,3.14-1.6.4,2.56-1.42,2.36-3,2.44-1.82,2.75-5.31,3.66-7.17,6.37-1.09,4.13,3.6,5.57,4.23,8.9,3.61,7.22-1,9.35-6.8,10.73-2.52,3.37-6.09,1.92-9.34,2-4.46.08-9,.87-13.23-1.3-2.5,1.45-4.75-.88-7.18-.47-1.77.13-3.68-.82-5.64.9a4.74,4.74,0,0,0,4.34,1.26c1.49-.26,3.44-.33,3.45,1.74,0,1.53-.57,3.23-3,3.19C781.64,640.36,782.53,641.79,784.54,643.37Z" fill="#977458"/><path d="M700.53,641.37c-5.24,0-9.83,3.11-15.72,2.86,3.69,4,1.39,5.37-2.14,6.16-.52,2.55,1.11,3.47,3.16,4.13,3.88,1.23,3.52,3.46,1.41,6.08.33.37.67.74,1,1.1,5.76,3.11,11.83,2.6,18,1.48,1.23-.33,2.44-.7,3.65-1.1a6.52,6.52,0,0,0,3.56-2.84,2.93,2.93,0,0,0-.3-2.94l0-2.06c2-3.13-1.15-4.44-2.36-6.43C707.35,645.69,704.25,643,700.53,641.37Z" fill="#2f2e31"/><path d="M693.88,681.54c-1.52,4.41,2.63,2.42,4,3.49.39.9-4.39,1.57-.14,2.46,1.34.27,2.89-1.06,4.42,0,.56,2.05-3.55,1.2-2.29,3.47a2.37,2.37,0,0,0,2.26.52c1.43-1,4.24-1.43,2.87-4.27-.38-.79-.29-1.62.37-1.54,4.74.56,4.16-2.89,5-5.74,1-3.55,3.37-6.12,7.64-6.16,4,0,8.26,0,4.77-6.08-.31-.53.64-1.78,1-2.69a2,2,0,0,0-1.27-.58c-2.62,1.21-5.19,2.32-8.22,1.14a3.3,3.3,0,0,0-3.77.88c-2.1,2.73-4.84,4.66-7.59,6.63-1,.69-1.83,1.59-1.4,3,.62,2-.39,2.48-2.06,2.27-2.62-.33-4.07,1.25-5.42,3Z" fill="#a68b75"/><path d="M700.53,641.37a18,18,0,0,0,9.91,6.62c.35.47.71.46,1.08,0,.2-2.63,3.09-1.52,4.45-3.35-3.31-1.15-6-2.75-5.77-7,.1-1.62-2.23-.72-3.36-1.27-3.28-1.57-6.68-1.31-10.08-.39a3.34,3.34,0,0,1-3.13,2C695.38,640.24,699.49,637.7,700.53,641.37Z" fill="#685f5c"/><path d="M722.71,665l1.1.09c1-2.3,3.92-4.41.9-7.14-2.47-2.24-5.27-3-8.58-1.68-.86.36-2,.07-3,.08l-.3,3c.47,3,3.11,1.94,4.79,2.3C719.85,662.1,722.05,662.25,722.71,665Z" fill="#9e8b7d"/><path d="M711.52,648l-1.08,0c1.18,2,2.64,3.81,2.71,6.25,1.43-.41,2.64-1.56,4.32-1.15.86.21,2.29,1.07,2.16-.71-.1-1.5,1.76-2.81.41-4.25-.92-1-2.19-.72-3.34-.29C715,648.5,713.3,649.62,711.52,648Z" fill="#61574e"/><path d="M722.71,665c1.83-2.84,1.13-4.24-2.36-4.27a19.07,19.07,0,0,1-7.53-1.36l-3.19,1.8c-2.38,4.51-6.89,5.48-11.28,6.62-1.4.36-2.92.31-3.6-1-1.52-3-4.4-2.34-6.87-2.83-2.23-.15-5-.07-5.78,1.91-.84,2.21,1.45,4.23,2.9,6a8.32,8.32,0,0,0,3.39,2.1c2.19.83,4.83.91,6.63,2.2,2.51,1.81-3.21,3-.94,5.33,2.55-.83,4.82-2.57,7.86-1.66,1.07.32,2.91-1.11,2-2.05-3.9-4.26,1.56-4,2.71-5.7.87-1.26,3-1.36,3.57-3.32C711,666,713.13,666,715.2,667,718.36,668.43,720.74,667.55,722.71,665Z" fill="#c0ada3"/><path d="M687.88,663.87c1.71,1.88,6.11.43,5.93,4.7,0,.16.52.37.81.53,3.71,1.93,14.26-3.68,15-8-1.22-.38-2,.58-3,.93-4.38,2.23-9.06,1.66-13.68,1.33-1.34-.1-2.59-.56-3.78.38Z" fill="#9a8d87"/><path d="M689.18,663.76c5.88,0,12,2.68,17.46-1.71-5.35,0-10.81,2.31-16-.89-.49-.3-1.58.34-2.39.55C688.56,662.39,688.87,663.08,689.18,663.76Z" fill="#4e4947"/><path d="M867.22,929.22c3.28-2.71,1.48-6-.15-8-4.54-5.75-4-12.06-3.32-18.55A28.37,28.37,0,0,0,859,895c-3.08-3.28-2.17-7.83-1.92-11.53.34-5-3.07-10.15.45-15a.53.53,0,0,0,0-.49c-3.17-2.85-4.79-5.91-2.86-10.37.58-1.35-1.44-1.74-2.93-1.15-1.77.7-2.47-.69-3.05-1.87s0-2.23,1.07-3c4.76-3.48,6.35-8.24,4.34-13.48a23.81,23.81,0,0,0-2.65-4.78c-2.73-4-3.67-3.81-6.25.45-1.19,2-2.83,4.28-5.35,4.12-2.32-.16-1.42-2.87-2.1-4.36-1.3-2.82-4.27-4.65-6.46-6.65-3.22-2.94-5.2-7.35-9.61-8.93A2.36,2.36,0,0,1,820,815.3c0-.81,0-2.27-.89-2-5,1.52-3.26-3.26-4.82-4.89-1.18,6.16,0,11.38,6.13,14.5a4.28,4.28,0,0,1,2.16,3.21c.38,1.53,1.62,3.4,3,3,4.24-1.34,4.47,1.14,4.89,4,.15,1.1,1.06,2.08,1.55,3.14.85,1.81,4.49,1.77,3.27,5-1.15,3-2.3,6.27-5.46,7.49-2.81,1.08-2.26,2.35-1.26,4.16a9.77,9.77,0,0,1,1.15,2.22c1.53,6.37,4,8.14,10.62,7.52,6.42-.6,8,.66,8.07,7a9.93,9.93,0,0,0,3.12,6.68c2.89,3.06,3.63,6.15,2,10-2.38,5.8-.73,11.78.12,17.5.93,6.21-1.15,12.42.7,18.51,4.15-1,1.9-5.47,4.32-7.76,2.06,1.44,1.23,3.31.93,5.16-.34,2.15-2.51,3.51-2.38,5.81,2.38.44,3.75-.73,4.79-2.71.49-.92.33-2.65,2-2.48,1.34.15,1.53,1.6,2.06,2.61A9.78,9.78,0,0,1,867.22,929.22Z" fill="#8a6847"/><path d="M805,759.17A5.24,5.24,0,0,0,803.8,755c-2.11-2.65-1-5.37-.1-8.08-1.84.7-2.28,2.2-2.3,3.93-.1,5.87-.14,11.73-2.79,17.22-.38.79,0,1.94,0,2.92.19,3.79.78,7.5-.07,11.36-.73,3.32-1.44,6.87,3.57,8.49,3.14,1,1.51,4.39,1.46,6.74-.1,5.54,1.66,8.24,6.63,9.6.17-.3.4-.7.25-.94-6.11-10-1.22-21.06-3.84-31.24,2-1,3.43,2.14,4.89.14s.37-3.85-.89-5.54C808.26,766.36,805.28,763.49,805,759.17Z" fill="#886748"/><path d="M805,759.17c-1.19,4.31,1.24,7.28,3.82,10.24,1.37,1.58,3.4,3,1.95,5.54-2.37,0-2.14-4.29-4.54-3s-.55,3.87-.48,5.91c.17,5.46.81,10.81-.26,16.39-.89,4.59,2.39,8.85,4.73,12.92a7,7,0,0,1,4,1.26c.57-5-2.76-8.68-4.85-12.6-1.33-2.51-.9-3.91.37-5.81a56.28,56.28,0,0,0,5.56-9.92c2.47-6-.06-10.24-2.56-14.87-.66-1.23-1.19-3-3.32-2.42-3.34.9-3-1.72-3.41-3.54Z" fill="#8a6847"/><path d="M857.2,925.56c3.12-1.79,3.68-5.1,4.31-8.06.41-1.93-.18-4.2-3.24-4.59-3.88-.5-1.08,2.07-1.65,3.05-1.14,2-.53,4.61-2.29,6.39C854,924.59,854.9,925.66,857.2,925.56Z" fill="#8d6d4d"/><path d="M728.37,755.53c-2.43-3.26,1.33-4.07,2.4-5.94a18.46,18.46,0,0,0-3.35,1c-1.41.69-3.85.74-3.57,2.89C724.17,755.91,726.63,755.26,728.37,755.53Z" fill="#53514f"/><path d="M801.24,604.73c4.08-1.32,8-2.05,12.39-.45,4.88,1.77,8.63-1.44,11.84-9.11-1.16-1.26-2.36-2.7-4.28-1.45-1.65,1.07-3.11,1.12-3.5-.9a2.82,2.82,0,0,1,3.16-3.56c2.56.54,4.73-.15,4.72-2.18,0-2.85,1.13-7.08-1.48-8.47-4.54-2.43-8.15-7.19-14.43-6.23-2.19.33-3.64,1.64-5.55,2.14h0c-2.76,2.62-5.4,5.39-8.34,7.81a16.15,16.15,0,0,0-4.76,6.87c-1.25,3.14-2.57,6,2.17,7.52a3.48,3.48,0,0,1,2,2.17C795.94,602.19,798.46,603.55,801.24,604.73Z" fill="#29282a"/><path d="M810.46,551.6c-3.09,3.53-5.8,2.28-7.58-1.08-1.67-3.15-3.61-3.66-7-2.94s-4.67,3.11-5.64,5.72a3.79,3.79,0,0,0,2.29,5c1.77.69,3.69,2.91,5.84.21a9.39,9.39,0,0,1,3.4-2.07c1.69-.79,3.57-1.8,5.26-.4s.05,3.13-.2,4.64c-.21,1.34-1.25,2.57,1,3C811.24,560.22,811.75,556.1,810.46,551.6Z" fill="#4a4d54"/><path d="M780,593c1,1.91-1.15,5.67,2.64,6,3.18.26,4.42-2.55,5-5.39.57-3.12,2.78-6.72-1.65-8.67C783.55,583.85,780.33,588.31,780,593Z" fill="#29282a"/><path d="M782.81,561.1a51,51,0,0,1,0,11.59c-.22,2.72,1.39,4.52,3.51,5.6,1.83.93,3.25-.55,4.08-2,1.15-2,2.07-4.11-.32-6.22C787.17,567.51,785.09,564.28,782.81,561.1Z" fill="#25272d"/><path d="M810.46,551.6c.51,4.33-.7,8.3-2.65,12.11,0,1.51,0,2.81-1.95,3.49a8.33,8.33,0,0,0-4.43,4.35c-1.68,3.19-.25,3.77,2.68,3h0c1.52-4.35,5.4-7.5,6.24-12.23.88-4.91,3.16-9.68,2-15.49C810.34,548.56,811.06,550.28,810.46,551.6Z" fill="#746a65"/><path d="M809,612.43c1.25-1.22,4.09-1.23,3.11-4.14-.87-2.58-3.11-2.84-5.21-2.7-1.95.13-3.87,1.1-5.57-.63a10.61,10.61,0,0,1-5.21.57c1.55,1.89,4.07,1,6,2,.92.49,2.86-1,2.92,1.35s-1.56,2.15-3.15,2c-.66,0-1.33,0-2-.06C802.4,614.28,806,611.43,809,612.43Z" fill="#74604f"/><path d="M813.9,615.69a5.5,5.5,0,0,0-4-1.15c-1,4,2.08,4.55,4.79,5.34l0,0C815.64,618.24,815.85,616.76,813.9,615.69Z" fill="#977458"/><path d="M793.35,633.79c.07,1.79,1.3,2.08,2.76,2.16,5.18.3,10.36.84,15.54.82,1.92,0,5.25.25,4.27-3.66C808.34,631.4,800.92,635.05,793.35,633.79Z" fill="#a78462"/><path d="M813.9,615.69a7.09,7.09,0,0,1,.82,4.16c1.25-1.14,2.28-2.27,4.12-.46,1.12,1.1,2,2.79,3.88,3,.19-1.8.33-3.48-1.58-4.7a4.33,4.33,0,0,1-1.93-4.66,6.92,6.92,0,0,0-5.15.74Z" fill="#80715d"/><path d="M849.17,823.7c5.53,4,7.29,3.57,8.36-2,.29-1.56-.83-4.53,2.17-4.08,2.61.38,5.63,2.16,5.11,5.24-.83,4.9-.95,8.77,5.2,9.85,1.82.32.92,1.88.93,2.91,0,1.52-.47,2.61-2.44,2.26-3.59-.62-3.55,2-2.27,3.57,1.75,2.09-.47,5.1,2.3,6.73,1.23.73,2.3,1.41,3.73,1.1s1.54-1.45,1.29-2.75c-.2-1.06.16-2.17,1.39-2.3a2.06,2.06,0,0,1,2.09,1.85c.29,5.1,5.78,6.83,7.22,11.25.56,1.73,2.63,2.56,4.74,1.75.64-.24,1.25-.55,1.9-.74,3.6-1,5.23-2.34,6.35-5.77.93-2.87,2-3,5.14-2.3,5.84,1.33,11.53,6,18.14,1.32,2.8-2,4.32,1.11,5.71,3.24.94,1.46,1.79,4.17,3.75,3.26,2.34-1.09,1.09-3.36,0-5.2-1.41-2.33-2.86-6.13-1.27-7.32,2.23-1.65,6-.32,8.18,1.88,2,2,8.13,3.85,1.54,7.84-1.61,1-.5,2.42,0,3.6,2.82,6.59,2.11,9.94-3.22,14.32-1.16,1-1.93,1.85-1.14,3.4a7.54,7.54,0,0,1,.67,1.9c.7,3.33-2,7.84,1.73,9.82,2.84,1.5,6.84.87,10.33,1.19,2.51-.49,1.92-2.47,1.79-4a71.61,71.61,0,0,0-1.54-9.73c1.74,6.14,4.17,12.12,5,18.47.31,2.29,2.78,2.37,3.26,4.2,1.51-.24,2.53.51,3.49,2.36a1.08,1.08,0,0,0,2,.28,9.19,9.19,0,0,0,.89-6.86c-2.58-12-3.56-24.29-6.43-35.85-.05-.07,0,.26.1.56.72,1.9,1.45,4.39,3.92,3.71,2.24-.61,1.17-3.11,1.46-4.86-.91,10.48,2,20.6,2.93,30.93.15,1.63,0,3.82,2,4.17,2.29.4,2.94-1.84,3.82-3.43,1.42-2.54.92-5.21.63-7.89-1.2-11.19-3-22.33-2.77-33.63a5.4,5.4,0,0,0-.55-3.9c-1-1.52-2.06-2.17-3.57-.47-3.16,3.55-6.64,3.44-8.4-.86s-4.63-8.63-3.47-13.77l-1.74-5.17c-1.56-1-3.31-.58-5-.58-4.43,0-8.52.38-10.57-5.28-1.29-3.59-7.32-2.59-10.77,1.19-1.14,1.24-1.16,4.35-3.54,3.46-1.95-.73-1.62-3.47-2-5.41-.6-2.9-.15-5.34,2.89-6.75a3.19,3.19,0,0,0,1.76-1.77c1.83-5.47,4.53-10.71,4.61-16.65-3.23-1.19-5.94-2.88-6.78-6.5-2.73-.69-4.51-4.35-8.05-2.52-.94.39-2.11.56-2.77,1.22-3.57,3.55-6,2.83-8-1.6-.6-1.34-1.82-1.49-2.54.2a5,5,0,0,1-2.37,3c-1.59-2.44-3.17-4.77-3.68-7.84-.4-2.41-1.38-5.74-3.88-5.81-2.85-.09-1.25,3.63-2.61,5.72L881,770.87c-.58.28-1,.36-1.11.57-.6,1.69,1.24,4.84-1.61,4.91-2.67.07-.95-3-1.4-4.54-.89-3.13.2-7.1-4.1-8.77a1.7,1.7,0,0,1-.69-2.6c4.68-5.81-3.6-6.24-4.29-9.92-.18-1-1.6.11-2.23.93-.92,1.2-1.24,3.51-3.71,2.1-1.59-.92-2.92-2.34-2.18-4s2.09-3.17,4.46-2.12c.37.16.94-.09,2.59-.28-3.56-3.16-6.28-6.2-9.6-8.27-1.89-1.18-6.19,6-5.32,9,4.26-1,3.28,3.66,5.47,4.89-2.61,3.64.63,8-2.18,12.12-2.92,4.23-6.86,6.07-11.07,8-2.16,1-3.55.39-3.86-2.2-.42-3.49.48-5.71,2.68-5.54,2,.15,1.86-1.17,1.82-2.21-.12-2.81-.9-5.9-4-6.27-3.64-.45-2.63,3-3.1,5.14-.13.61-.37,1.2-.57,1.84-2.21-.46-1.56-2.26-1.67-3.3-.39-3.68-1-6-6-5.24-4.47.66-5.37.91-3.63,5.07a7.68,7.68,0,0,0,3,3.91,2.71,2.71,0,0,1,.94,4c-2.72,3.48-1.27,6.77.39,9.78,1.18,2.14,1.12,4.13,1,6.29-1,4.2,1,7.16,4.45,8.91a6.92,6.92,0,0,1,4.07,4.66c1.09,4.07,3.42,7.64,5.43,11.25,1.66,3,2.22,5.05.31,8.16C843,820.86,845,823.9,849.17,823.7Z" fill="#c68d59"/><path d="M927,791.94c-2,3.11-2.35,6.84-3.66,10.22s-1.27,7.69-6.24,8.6a2.09,2.09,0,0,0-1.29,2.47c.49,3,.79,6,1.48,8.87.33,1.44,1.44,3,3,3.18,1.67.15,2.6-1.41,2.79-3,.24-2.1,1.7-3.28,3.27-4.24,4.2-2.58,6.46-1.84,8,2.78.9,2.79,1.91,4.32,5.36,3.53,3.23-.74,6.74,1,10-.6,4.65.66,6.72-1.36,5.14-5.33-2.2-5.48-2.73-11.7-8.43-15.62-2.76-1.9-2.43-6.07-3.31-9.28a21.24,21.24,0,0,0-3.09-7.41c-1.34-1.8-2.68-3.05-5.06-1.88-.15.08-.34.2-.48.17C927.75,782.9,926.83,786.9,927,791.94Z" fill="#dc924c"/><path d="M912.17,782.92a4.72,4.72,0,0,1,4.2,2c1.11,1.52,2.44,1.23,3.85.54l4.18,2c3.41-8,2.54-15.69-.89-23.41-1.2-2.71-1.87-5.42-.72-8.69,1.81-5.13-1.95-9.75-7.28-9.47a7.79,7.79,0,0,1-4.84-1c-3.54-2.35-7-1.43-10.46-.13-3.12,5.39-3.05,6.45,2.32,9.6,4.41,2.58,5,5.6,2.3,9.58-2.86,4.28-3.05,8.1,1.69,11.3.78.53,1.77,1.73,1.63,2.41C907.45,781,910.15,781.66,912.17,782.92Z" fill="#d9924e"/><path d="M966.63,847.06c3.2.33,2.48-2.17,2.44-3.72A51.19,51.19,0,0,0,967,829.73a3.61,3.61,0,0,1-4.16-.54c-3.77-3-7.59-2.61-11.47-.29-1.81,2-3,3.79-.86,6.5a12.61,12.61,0,0,1,2.21,6c.56,3.79,3.67,5.64,6.9,6.51s5.42-.53,4.15-4.92C966.24,844,966.61,845.39,966.63,847.06Z" fill="#bb7b48"/><path d="M850.37,754.84c.16-2.07,4.13-3.27,1.4-6C850.06,750.55,848.38,752.27,850.37,754.84Z" fill="#c68d59"/><path d="M849.17,823.7c-3.89-1.57-4.9-4.27-2.12-6.83,1.88-1.73,2.31-3.6,1.22-5.32a74,74,0,0,1-8.54-17.74c-.22-.71-1.09-1.83-1.56-1.78-6.17.58-5-5.09-7-7.95-3.58-.54-3.57,2.43-4.27,4.48-.51,1.49-1,3.52-2.53,3.27-1.9-.31-1.79-2.55-1.58-4.16.57-4.42-.35-9,2.48-13.18,1.16-1.71.5-4.6.79-6.93.39-3.14-1.3-4.2-4.12-4.44-1.22-.1-.82-1.07-.8-1.92.25-7.65,2-14.88,6.51-21.2a8.13,8.13,0,0,0,1.42-4.71c-4.62,1.5-9.28,2.89-13.85,4.54-3,1.09-2.64,4.77-4.55,6.73L807,743.07a8.12,8.12,0,0,0,.71,5.11c2.36,1.71,3.63,4.8,7.72,4.3a3,3,0,0,1,2,5.25c-4.18,4.68-2.95,8.23,1.29,12.31a8.4,8.4,0,0,1,1.8,9.82c-1.81,4-2.66,8.36-1.19,12.74,1.31,3.93-1.93,7.12-1.32,11.22,1.25,8.4,7,13.2,13.17,17.42,1.74,1.19,2.74,2.68,4.06,4,4.86,4.8,6.18,5,11.87,1a5.83,5.83,0,0,1,1.93-.5C849.08,825.05,849.13,824.38,849.17,823.7Z" fill="#ab8155"/><path d="M832.76,746.5c1,1.83,1.83,4.45,3.61,5.84,1.1.85,2.4-1.52,2.45-2.94a4.12,4.12,0,0,0-3.74-4.54C834.09,744.69,833,744.68,832.76,746.5Z" fill="#c68d59"/><path d="M902.29,922.32c1.64,3.39.81,6.72-.27,10,.46,1.08,1,2.43,2.31,2.21,1.5-.24,1-1.83,1.14-2.89a4.35,4.35,0,0,0-.21-2.42l.33-7.83Z" fill="#9f744c"/><path d="M898.51,922.12a2.62,2.62,0,0,1,2.91-.65c-.43-1.67-.86-3.35-1.48-5.79C898.11,918.19,898.58,920.21,898.51,922.12Z" fill="#9f744c"/><path d="M898.52,953.42c-4.71,7-6.86,15-9.59,22.73.92,3.43.83,7.07,2.33,10.37l.91,1c1.29.69,2.47.94,3.21-.73-4.51-1.58-2.93-4.53-1.67-7.39,3.15-1.72,2.11-5.37,3.66-7.82,2.84-4.87,2.92-10.3,3.23-15.68a18.85,18.85,0,0,0,.3-7.93C898.34,949.68,899.9,952.05,898.52,953.42Z" fill="#9f744c"/><path d="M814.06,613.76a8.62,8.62,0,0,0,5.15-.74c2.6-1.41,6.31-1.58,6.49-5.68.33-.21.45-.42.35-.65s-.18-.34-.29-.35c0-.68,0-1.37,0-2.05-2,.48-2.87,2.11-4,3.49C819.61,610.29,816.78,612,814.06,613.76Z" fill="#74604f"/><path d="M825.76,606.34c0,.33,0,.66-.06,1,1.1.11,1.48,2.24,2.91,1.18,2.31-1.7,1.62-4,1.26-6.27C827,602.34,827.43,605.33,825.76,606.34Z" fill="#9b7555"/><path d="M904.38,847.32c1.26-.06,3.22.65,3.5-1,.52-3,3.15-5.89,1.06-9.06a17.45,17.45,0,0,0-3.83-3.94c-1.51-1.2-3.09-1.68-3.33,1.21-.28,3.3-5.48,5.41-2.1,9.77C901,846.06,902,847.48,904.38,847.32Z" fill="#b57e4b"/><path d="M865.05,756.23c-1.14,2.53.57,6.12-4.17,6-1.73-.05-2.84,3.44-2.51,4.95.29,1.32,2.79,2.45,4.89,2.62,2.51.22,2.61-1.46,2.87-3.2a4.24,4.24,0,0,1,1-2.28C870.65,760.75,868.33,758.59,865.05,756.23Z" fill="#cf925a"/><path d="M934.76,934.1l0-2.73c-6.48,3.36-3.18,8.22-2,13.43,1.75-3.81.09-7.56,2-10.7Z" fill="#8c6743"/><path d="M621.72,796.88c-2.22-2.42-6.18-7.87-6.92-11.78-4.86-2.2-5.8-10.73-8.38-13.28-1.93-1.91-3.91-6.54-5.74-8.65l-1.63,0,.43,2.74a87.43,87.43,0,0,1,7.91,22c3.48,5.06,4.78,8.55,9.55,12.72,1.28,1.11,3.62,2.5,6.7,4.52C625.34,806.27,625.47,801,621.72,796.88Z" fill="#d4b795"/><path d="M605.43,762.05a9.9,9.9,0,0,0-1.16-.92l-5.64-.67.26,1.63c.05.35.11.69.16,1l1.63,0c1.83,2.11,3.81,6.74,5.74,8.65,2.58,2.55,3.52,11.08,8.38,13.28-1.17-3-2.4-14.11-4-18.07C606.3,765.85,608.4,764.75,605.43,762.05Z" fill="#aa9179"/><path d="M609.35,763.44c-.05-.36-.08-.72-.11-1.09s0-.42-.06-.63c-.43-3.78-2.16-6-6.7-5.24-1.45.26-3-.66-4.43.31.17,1.06.33,2.11.5,3.17l.08.5,5.64.67a9.9,9.9,0,0,1,1.16.92c3,2.7.87,3.8,5.41,5A6.23,6.23,0,0,1,609.35,763.44Z" fill="#4f4237"/></g><g id="frame"><rect width="1000" height="1000" fill="none"/></g></svg>