<!-- Copyright (c) 2022 Jan Stehno -->
<svg xmlns="http://www.w3.org/2000/svg" viewBox="0 0 1000 1000"><title>southeasternspanishibex</title><g id="southeasternspanishibex"><path d="M797.54,656c.7.07,4.68,1,5.37,1.11-1,1.62-4.46,18.48-6,18.39-13.14-.86-22-6.65-35.11-7.61-2.49-.19-9.52-4.56-11.62-6.18.09-.17.19-.34.28-.52,2.51-2.67,6.1-2.07,9.24-2.88,6.93-.6,13.48,1.36,20.59,1.17C786.44,659.64,791.43,655.08,797.54,656Z" fill="#a57752"/><path d="M750.2,661.73c-5.9,0-10.63-3.6-13.3-10.24l.45-.43a2.85,2.85,0,0,1,2.34,1c3.28,3.48,6.41,7.1,10.85,9.29Z" fill="#b79880"/><path d="M735.42,644.43a5.52,5.52,0,0,1,.81.06c1.66,2,2.38,4.13,1.16,6.6l-.49.4C734.89,649.44,735.2,646.93,735.42,644.43Z" fill="#b79880"/><path d="M801.45,652.25c1.61-.24,2.63-1,2.58-2.72-.33-1.36.39-1.81,1.65-1.79,7.64-1.73-.68,4.35,2.69,4.76,2.22.27,2.24-2.37,3.8-3.17,1.46.44-.78,3,1.88,2.84,1.94-.14,3.89,0,4-2.63A2.68,2.68,0,0,1,819.9,647l3.07-1.45c-1,2.48.89,5.71-1.21,6.89-5.2,2.93-10.73,6-17.13,4.68A5.27,5.27,0,0,0,799,659a2.44,2.44,0,0,0-.28.8c-6.34,1.78-12.81.52-19.21.83-.51-.85-.1-1.62.15-2.43.48-1.6-.78-3.93,1.92-4.58,2.53-.61,3.51,1.47,4.87,2.86,3.21-.29,2.77-3.59,4.48-5.11,1.3-1.12,1.92,0,2.67.76l0,0A7.29,7.29,0,0,0,801.45,652.25Z" fill="#724d2f"/><path d="M801.45,652.25c-2.47,3.21-4.25,3.17-7.92-.19a6.32,6.32,0,0,0,4.25-.85Z" fill="#4c3422"/><path d="M646.82,844.06a3.71,3.71,0,0,1,1.33-.67c7.82-2,10.76.79,18.7-.63,5.36-1,12.25,2.42,16.73,5.22s10,2.61,14.44,4.91c2,1,6.66,2.14,8.6,3.33,2.58,1.11,5.26,2.77,7-1.11,2.47-4.11,5.65-7.65,7.18-12.5,1.25-4,3.73-8.26,7.81-9.81,6.87-2.63,15.88-2.92,22.78-5.45,2.22-2.41,4.87-.8,7.35-.77,2.33-.81,3.45-2.35,2.58-4.72-1-2.83-3.42-4-6.3-4.27-5.82-.5-11.63,0-17.45.25a3.84,3.84,0,0,0-1.86.09c-7.65,4.19-15.68,2.94-23.79,1.87a76.21,76.21,0,0,0-30.44,2.52c-4.46.29-8.59,1.76-12.72,3.32-6.44,2.43-12.79,4.9-20,4.88-5.85,0-9.42,5-13.6,8.21-2.11,1.64.27,3.53,1.84,4.2C640.09,844.24,643.4,845,646.82,844.06Z" fill="#341d06"/><path d="M814.71,982.39c2.23,5.06,1,10.64,2.57,15.9,2.2,1,2.13-2.15,3.83-2.15.07.14.24.33.21.5s-.31.29-.35.47c-.17.7-.29,1.4-.58,2.89,4.13-2.7,3.19-6.5,4.1-9.57-1.16-3,2.1-5.17,1.59-8,.66-5.16-2.15-9.41-3.8-14-.36-1-1-2.19-2.11-1.94-6,1.4-6.5-3.59-7.19-6.79-1.49-6.88-6.8-11.88-8.7-18.7-.7-2.54-3.74-6.82-7.36-8.89a6,6,0,0,1-3-5.67c.6-8.28-6.79-5.42-11.63-7,2.65-2.71,7.47-2.6,6.59-7.1-1.58-2.25-3.79-1.48-5.68-.83-3.52,1.23-6.47,1.83-7.83-2.79-.38-1.3-2.27-.72-3.3-1.4,1.5-4,11.09-.77,7.62-9,2.66,1.6,4.31,5.19,7.72,2.18.46-.71,1-1.74.44-2.29-5-5.33-2.25-9.57,1.87-13.67a5,5,0,0,0,.5-2.55c-2.3-4.76-6.63-8.87-4.11-15.06.64-1.57-1.25-3.3-2.36-4.79-2.78-3.75-3.24-7.3,1.16-10.31,1.43-3.54,1.31-6.93-1.08-10.07-1.25-1.08-2.56-2.16-2.14-4.06,1.28-5.86-2.78-10.42-4.09-15.65-.94-3.79-4.56-3-9.74.47,2.56,4.19,2.51,8.13,2.31,12.62,7.36,9.6,6.24,19.94,2.57,30.39-.85,2.42-1.54,4.67-.58,7.12.58,1.48,1.5,2.38,3.37,1.72.68-.24,1.12-1.94,1.54-.94.49,1.17,2.53,2.86.15,4.2a16.29,16.29,0,0,1-3.94,1.86c-7,1.71-8.29,3-9,9.7a56.13,56.13,0,0,0-.74,6.72c.9,7.26,1.6,14.37,6.76,20.55,2.42,2.9,1.77,7.74,2.64,11.64.61,2.7.77,4.59,3.54,5.31,7.31,1.9,7.55,8,8.5,13.63,1,6.14,2.16,7.23,8.79,7-3.34,7.25,3.12,10.15,6.83,13.81C805.44,972.49,809.83,977.67,814.71,982.39Z" fill="#996b44"/><path d="M792.17,926.44c-.09,3.56.76,6.33,4.88,7.48,1.28.35,3.71,1.67,1.59,4.08-1.37,1.55-.2,2.39,1.21,2.18,4.81-.73,4.59,2,4.1,5.2-.14,1-.18,2.5.37,2.87,7.93,5.27,5.82,15.84,12.14,21.78,1.42,1.34,1.7-2.32,3.9-2.74.79,5,4.78,8.93,4.42,14.36.46,1.52.71,2.29,1.82,5.22v0c.13,2.6.1,5.32,3.65,5.87s2.63,6.33,7.13,5.56c1.69-5.92.08-11.83-.27-17.88,3.73,3.59,3.28,8.76,6.51,12.69,1.8.2.72-2.29,2.13-2.92,1.27.93,1,2.58,1.28,4.06,3.24-.13,1.89-2.71,2.41-4.3l-.32-7.46a55.09,55.09,0,0,0-.07-13.7c-1.24-3.43-3.24-6.44-7-7.29-8.28-1.87-10.8,1-8.92,9.55-2-.65-3.72-1.13-2.58-4.05,2.53-6.48,5.13-7.77,12.89-5.52,1.59.46,3.24,1.67,4.67.32,1.71-1.61.22-3-1-4.11-.34-.32,1.63-1.42,1.67-1.86.5-5.77-1.7-4.94-7.87-5.32.34-2.51,5.67-4.16,1.49-7.43-3.46-2.71-6.83-4.26-10.49-.62-2,2-3.89.48-5.79.06-2.63-.56-5.5-2-7.49.79s.76,5,1.85,7.23c1,2,3.55,2.85,4.54,5-5.17.76-6.54-.85-10.42-12.47a22.82,22.82,0,0,0,7-2.1c2.79-1.18,4.55-2.88,4.68-5.9.15-3.35-2.48-4.48-5-5.57a10.53,10.53,0,0,0-6.12-.89c-2,.44-2.92,2.37-4.54,3.32-3.32.38-4.56-1.7-5.34-4.32a5,5,0,0,0-1.87-1.65,13.41,13.41,0,0,0-2.34-1.08C797.91,924.28,794.73,923.67,792.17,926.44Z" fill="#ca8e5a"/><path d="M915.85,931.74l.62-5.85c-.11-.9-.27-1.76-1.33-2.06-5.37-1.33-10.67-.12-16,.34-1.92.16-3.93.23-4.74,2.22-.73,1.78.74,3,1.81,4.24s3.15,2.21,2.3,4c-1.07,2.17-2.88.1-4.35,0-2.94-.22-3.42,1.71-3.7,3.85-.42,3.18-1.31,6-4.94,7-1.39.48-2.73,1.07-4.16,1.42-8,1.15-9.84,5.09-10.21,12.23-.13,2.61-1.78,3-3.74,3.13-2.21.18-5.13-.73-6,2-.91,3,2.55,3.21,4.08,4.66a7.9,7.9,0,0,1,1.94,1.94c-2.58.63-4.86,2.06-4.19,4.81.88,3.58-1.52,5.2-3.44,7.26a3.26,3.26,0,0,0,0,2.65c1.86,1.52,3.55.47,5.25-.32,3.48-2.67,4-7.55,8.77-10.51-2.42,8.26-6.1,15.65-4.58,25,2.14-3.66,3.64-6.31,4-9.49s-.39-6.19.87-9.26c2.15.27,1,3.18,3.71,3.8,3-7.52-.14-15.51,1.35-23.53,8,8.89,4.35,19.33,5.13,29.7,4.49-4.24,7-8.94,6.7-14.62-.26-5.91-1.08-11.79-1.68-17.68-.13-1.19-1.48-2.58.88-3.18,2.11-.54,3.37.36,3.72,2.18.68,3.61,1,7.29,1.62,10.91.33,2-.87,4.47,1.87,5.68,1.77.19,2.68-.91,3.45-2.21-.12-3.41-.25-6.83-.38-10.24,1.52-3-.14-6,.09-8.45.45,1.61.3,4,1.56,6,.68,1.08,1.17,3,3.09,1.23.12-.12,0-.36.26-.43-2.27,3.29-.24,6.72-.35,10.08l-.39,3.67c1.24.53,1.88-.17,2.41-1.11.56.94-.53-4.41.93-.24a1.25,1.25,0,0,0,1.94.76c1.12-.82,1.07-2,.67-3.27.87-10,5.89-19.23,5.47-29.45-.05-1.2-.14-2.4-.21-3.6-2.3-2.43-5.59-2.63-8.53-3.6-1-.33-2.36-.48-2-1.81.52-1.71,1.92-1.25,3.05-.57,1.92,1.14,3.44,3.2,6.11,2.58A1.42,1.42,0,0,0,915.85,931.74Z" fill="#cd9869"/><path d="M815.55,649.9c-2-.3,2.24-9,2.13-12,5.23-.15,11.08-8.86,11.08-8.86,16.73,3,29.8,13.46,41.45,24.68,12.37,11.9,20.72,26.62,28.76,41.48.54,1.1,1.15,2.17,1.72,3.25.79,1.5,3.24,3,1.56,4.67s-3.86-.19-5.72-1a6.3,6.3,0,0,1-2-1.41c-5.07-5.1-10.4-10-13.08-16.88-1.3-3.36-3.43-5.17-7.08-2.51-6.24,2.08-10.11,6.76-13.54,11.9-2.42-.64-2.65-2.79-2.3-4.43.85-4.08-1.09-7.47-1.92-11.2-2.29-10.42-7.26-19.92-10.06-30.13-.19-5.62-4.06-1.54-6.12-2.24C836.35,638.33,817.37,650.15,815.55,649.9Z" fill="#724d2f"/><path d="M814.71,982.39c.3-3.23.62-6.47-4.32-6.22-.39,0-1.07-.13-1.15-.36-1.85-5.15-5.14-8.93-10.51-10.77,2.26-3.58-.79-3-2.75-4-1.77-.92-3.5-3.31-.67-5.51,1.32-1,2-2.08.35-3.46-1.25-1-2.54-1.68-3.87-.38-2.94,2.86-4.56.63-4.41-1.72.28-4.67-3.79-8.39-2.5-13.15.17-.64-.31-1.45-.5-2.18-4.49,1.16-5.43-5.1-10.51-4,2-2.47,4.15-4-.28-5.89a2.38,2.38,0,0,1-1-2.11c1.81-6-2.16-9.37-5.41-13.51-2.79-3.57.34-9-2.5-13-.83-1.64.16-3.18.29-4.77.26-3.25-2.63-7.06-5.5-6.8-4,.36-2.14,3.63-2.57,5.73a13.1,13.1,0,0,0-.68,3c.09,1.13.5,3.28,2.36,8.55,3.21,9.78,7,20.46,10.95,30,4,9.7,5.63,16.8,11.51,26.85,1.49,2.91,3.52,5.61,4.58,7.6A284.32,284.32,0,0,0,805,997.44C808.15,992,813.9,988.78,814.71,982.39Z" fill="#734a25"/><path d="M641.23,746.13c-2,2.26-3.25,5.21-6.25,6.56-1.75,2-.28,3,1.33,3.58,6.68,2.56,13.12.89,19.41-1.48,2.14-.81,1.95-2.89,1.52-4.79-1.07-4.8-3.5-9.82,3-13,1.24-.61,1.11-2.54,1.22-4s.33-3.18,1.65-3.82c6.39-3.13,10.6-9.23,17.1-12.08,4.74-2.07,9.91-3.16,12.48-8.47,1.11-2.29,3.48-1.78,5.43-.47,1.7,1.13,3.1,2.82,5.44,2.73a3.17,3.17,0,0,0,2.25-1.39c4.68-7.62,8.8-15.62,16.17-21.31,3.9-3,3.72-5.15-.41-10.23a24.75,24.75,0,0,1-9.39-4.46c-2-1.4-4.16-2.89-6.71-.87-1.49,4-3.32,7.89-4.4,12a20.43,20.43,0,0,1-6.73,10.77c-7.24,6-14.76,11.78-22.16,17.65-6,7.12-14.27,11.8-20.28,19C648.14,736.58,646.36,742.58,641.23,746.13Z" fill="#664f37"/><path d="M618.42,770.65l-7.27,4.76c.44,2.24,1.43,4.2,0,6.77s-.61,5.47,2.9,6.63a6.52,6.52,0,0,0,4.33-.41c1.63-.51,3.47-2.49,4.89-.81s0,3.72-.9,5.48c-.36.44-.69.89-1,1.33-1.45,2.51-7.4,3-3.69,7.88.27.37-.72.83-1.24,1.1-2.74,1.44-4.48,3.57-2.45,6.4,2.19,3,5.6,3.52,8.91,1.8a78.81,78.81,0,0,0,8-4.72c3.42-2.36,6.82-2.52,10.56-2.08a11.62,11.62,0,0,0,4.89-2.3c1.76-3.89,2.19-8,6.44-11.19,3-2.22,2.37-8.34,1.54-12.39a7.32,7.32,0,0,0-7.58-6c-3,1.57-6,3.39-7.33-1.84a3.74,3.74,0,0,0-4.23-2.83C629.46,768.55,623.58,767.3,618.42,770.65Z" fill="#f6d8b7"/><path d="M705.11,709.12l-1.51.93c-7.91-2.85-12.77.39-16.16,7.36-1.39,2.87-4.34,4.15-7.52,5-3.52,1-8.09,1.32-8.65,5.91-.53,4.35,2.62,7,6.47,8.92-1.1,2.39-3.41,3.8-3.5,6.55s-3,2.28-4.72,3.19c-2.82,1.48-7.46,2.11-4,7.27,1.35,2-1.49,3.46-2.12,5.31-.69,2-2.57.18-3.64-.27-4.93-2.11-9.5-3.44-13.07,2.25-1,1.63-2.88,1.43-4.55.69-3.8-1.69-7.84-3-10.35-6.63l-6.19,5.15c-2.26,6.7-2.26,6.73,4.71,6.21,4.3-.32,8.68-1.37,12.43,1.82,3.66,1.57,7.64,2.12,11.42,3.36,5.23,1.72,15.14-4.34,17-10,.38-1.16.11-3.14,1-3.44,14.38-4,7.88-12.35,14.56-16.25,1.91-1.11,3.28-1.5,5.11-.47,2.75,1.54,4.3.85,5.95-2,3.43-5.84,5.9-6,11.57-1.62,3,2.29,5.3,2.34,6.23-1.9-.88-1.9-3.79-1.72-4.34-4.11,1.69-1.22,4.93-.2,5.34-3.09.31-2.18-1.53-3.09-3.32-3.81-2-.54-3.91-1.52-6.08-1.27-1.85.73-1.78,4.3-4.57,3.34-2.33-.8-2.13-3.45-2.36-5.31-.65-5.27,3.79-1.61,5.54-2.79,1.18-.77,2-2,3.55-2.32,3.58-.69,3.55-2.78,2.13-5.38-1.09-1.89-4.84,1.1-5-2.6A1,1,0,0,0,705.11,709.12Z" fill="#a17b57"/><path d="M631.77,755.62c-.93,5.17,3.81,4.82,6.53,6.53,4.68,3,8,3.28,12.08-1.88,3.69-4.72,7.81,1.64,12,1.83,1,0,1.35,2.15,3.51,1.42-2.15-3.94-.51-6.75,3.12-8.42.33-3.25-4.87-.64-3.67-3.59.9-2.2,3.37-3.47,6.13-3.53,3.1-.07,6.41-.05,4.34-4.73-.15-.35-.22-1.06,0-1.17,6.44-3.91,5.48-5.53-1.17-8.84-4.94-2.46-2.9-7,3.19-8.57,7.11-1.84,13.22-4.82,14.84-12.94.61-3,3.21-2.17,5-1.13,2.31,1.36,4.2,1.76,6-.55-2.32-.36-3.21-2.53-4.91-3.69-3.24-2.21-6.39-2.09-7.58,1.65-1.46,4.63-5.31,5.47-8.89,6.7-4.45,1.52-8.58,3.08-11,7.47-1.05,1.91-3.54,2-5.32,3.06-3.37,2-7.42,3.57-5.92,8.82.22.77-.41,2.49-1,2.65-9.62,2.69-3.88,8.67-3,13.52.27,1.61,1.3,3.74-1.23,3.84-5.53.22-10.71,3.71-16.53,1.45-1.62-.63-3.33-.55-3.22-2.83C633.27,753,632.63,754.42,631.77,755.62Z" fill="#755a3f"/><path d="M899,695.18c-.63,3,2.37,4.6,3.21,8.15-9.26-4.78-15.6-11.09-18.91-19.92-1.2-3.21-3.4-4.31-6.16-5.34-2.35-.88-2.92.6-3.45,2.26a8.32,8.32,0,0,0,2.12,2.74c2.8,3.9,5.56,7.33,6,12.84.36,4.89,3.86,9.73,6.24,14.43a4.78,4.78,0,0,0,7.62.95c3.06-3.34,4.32-1.18,6.29.77,3.55,3.51,5.27,8.81,10.83,10.41,1.11.32,1.74,1.88,1.73,3.11-.11,9.77,7,13.08,14.7,15.75,3.15,1.08,5.85,2.61,6.41,6,.91,5.6,5.22,7.29,9.85,8.76,3.75-1.36,4.93-3.45,2-6.71-8.7-9.88-17.34-19.8-26.12-29.61C913.91,711.56,905.76,704,899,695.18Z" fill="#8e6444"/><path d="M757.58,893.47c.17-2.58.35-5.16.53-7.82,6.67,1.15,5.92,6.25,6.6,10.52,1.9-4.43-.51-9.94,3.65-13.82.7-.66,1-2.62,1.91-2,5.61,4.06,7.34-3.78,12.26-3.25-6.51-1.93-2.8-7-4.06-10.9-2.84,2-1.66,5.38-3.91,7.59-1.74-2.16-2.58-4.69-1.14-6.57,4.05-5.31,3.3-11.61,3.81-17.41a16.61,16.61,0,0,0-6.81-15.47,4.53,4.53,0,0,0-1.6.72c-5.48,4.31.24,9.51-1.11,14.18-.11.35.8.86,1.31,1.22-6.46.33-2.62,7.93-7.23,9.75-3.5,1.39-6.53,3.29-7.62,7.47-.58,2.23-1.71-1.4-2.91-.42-.59,4.65,1.57,9,2.53,13.28s2.22,8.41,2.46,12.81A.83.83,0,0,0,757.58,893.47Z" fill="#865c38"/><path d="M603.2,815.88c8.21,11.22,16.07,22.8,30.75,26.94,1.46-3.29-4.63-5.15-2.13-7.82,1.9-2,5.86-1.43,8.64-2.92,5.13-2.74,11.5-1.68,16.47-5.08,1.77-1.22,4.49-1.49,4.17-4.52-4-2.23-7.06,1.39-11,1.77,4.78-1.47,9-3.66,13.64-4.64,3-.63,4.45-3.08,5.66-5.43,1.47-2.87-1-6.09-3.8-4.82-3.2,1.45-5.4.18-8.19-.45s-6.34-.08-4.14,4.1c1.46,2.79-.6,2.63-1.83,3.31-12.25,6.78-24.69,8.94-37.51,1.41-3.07-1-5.62-2.33-6.39-5.83-.4-1.77-1.57-4-3.58-3.49-2.57.64-1.72,3.2-1.42,5.13C602.7,814.33,603,815.09,603.2,815.88Z" fill="#906840"/><path d="M751.26,867.27a42.87,42.87,0,0,0,2.44,4.22c.4.54,1.36.68,2.06,1,.29-.71,1-1.63.79-2.11-2.93-6.29,2.46-7,6.1-8.71,2.72-1.3,5.46-2,3.21-6.15-1.56-2.89,1.24-3.28,3.47-2.93,1.16.19,2.61,1.37,3.28-.06.78-1.66-.81-2.49-2.23-3-1.17-.44-2.83-.93-1.84-2.42,1.85-2.79.8-4.7-.88-7.13-1.46-2.11,1.78-2.78,2.49-4.33-2-3.71-2.12-9.56-7.41-10.87-2.32,3-.31,7.82-2.59,11.28-1.83-3.41,1.59-7.67-2.13-10.29-2.45-.45-5.07-1.54-6.61,1.61,3.4-1,5.5-1,4.78,3.71C754.36,843.1,751.81,855.06,751.26,867.27Z" fill="#724a24"/><path d="M736.43,637.24c4.27.9,5.31,3.85,4.1,13.39-2.62-.8-9.37-1.06-10.39,1.59-1.66,4.28-5.16,6.82-8.11,9.93-5.65,5.94-5.68,6.8-.88,13.62a3.64,3.64,0,0,1,.61,1.71l-.44.76c-2.76.87-4.87.35-7.27-1.63s-4.76-4.62-8.53-4l10.12-18.14c2.17-.38,3.68-1.86,5.33-3.1,6.53-4.89,9.48-13.75,11.1-17.93C732.07,633.44,732.17,636.35,736.43,637.24Z" fill="#7c5c40"/><path d="M661.08,822.77c-2.13,3.17-6.31,4.34-9.06,4.71-6.66.91-12.45,4.48-19,5-5.49.46-5.42,2.47-2.49,6,1.17,1.42,2.28,2.89,3.42,4.33,4.11,2.18,8.17,4.89,12.87,1.24-3.74-1.42-8.41-.47-11.66-4.35,14-9.87,31.14-9.89,46.17-15.77,1.2-.52,2.48-1,1.6-2.7-3.56-4-8.11-2.57-12.47-2.12C667.08,819.71,663.36,819.48,661.08,822.77Z" fill="#5c3e1f"/><path d="M947.43,749.42c.82,2.61,1,5-2.47,5.85.33,3.86,4,6.11,4.9,9.69a7.62,7.62,0,0,0,4.16,3.55c3,.63,3.77,2.74,3.78,5.4,0,3.52,1.91,5.58,5.3,6.47,3.06.39,6,3.15,9.2.33.53-3-2.13-3-3.82-3.82-1-.52-2.68-.57-2.24-2.3a3.21,3.21,0,0,1,2.76-2.18c2.31-.44,4.48.33,6.7.84,7.69,1.79,7,1.73,8.09.54-14.88-8.59-23.09-12.71-31.38-20C950.75,752.33,950,749.92,947.43,749.42Z" fill="#a97c59"/><path d="M643.48,768.05c-5.39-6.79-12.14-1.46-18.51-2.29.18-1.48.4-3.24.61-5-3,2.89-3.08,7.76-7.16,9.88,5.39-.35,10.83-.35,16.14-1.18,2.88-.45,3.09,1,3.77,2.73,2.74,7,2.88,7,8,1.38,0-.26-.06-.53-.08-.79C645.77,771,645.16,769.2,643.48,768.05Z" fill="#dcb692"/><path d="M614.14,787.66c-2.82-1.34-3.52-4.23-1.57-5.73,4.81-3.7.13-4.61-1.42-6.51-6.95,5.89-12.51,12.42-10.85,22.32a3.17,3.17,0,0,0,1.4-1c1.48-2.48,1.33-5.46,2.66-8.4C607.75,790.68,611.41,793.65,614.14,787.66Z" fill="#c4a984"/><path d="M600.92,796.26c-.21.49-.42,1-.62,1.48-.31,6.24-.49,12.47,2.9,18.14.85-2.1-1.27-4.45,1.31-7.28,2,4.88,2.37,11.3,9.75,10.44a2.78,2.78,0,0,0,1-1.43c.39-3.37-1.65-5.58-3.83-7.72-3.82-2.42-5.37-6.13-6.07-10.32-2.08-.48-2.46.51-2.07,2.15C601.69,800.33,604.2,797.05,600.92,796.26Z" fill="#af8f62"/><path d="M641.23,746.13c2.92-.66,4.79-3,6-5.12,4.57-8.46,11.14-14.94,19-20.43,2.67-1.86,4.46-4.71,6-7.57-9.28,6.73-18.31,13.73-24.67,23.43C645.44,739.66,643.34,742.9,641.23,746.13Z" fill="#755a3f"/><path d="M900.93,972.05l-3.46,2.22c-2.62,6.56-.8,13.75-4.17,21.24,3.63-1.32,4.17-3.81,5.86-5.07,2.52-3.71,1.63-8.05,2.37-12.09Z" fill="#ad8560"/><path d="M860.31,985.65c.14,1.84,1.9,3.33,1.2,5.35,3.3-.66,1.66-4.26,3.58-5.74Z" fill="#dc9d63"/><path d="M885.77,946.48c5.67.57,5.74-4.06,6.23-7.29s.19-5.45,3.81-2.2c1.52,1.36,2.92,1.94,4.11.1,1.08-1.68,2.15-3.76-.14-5.44-1.81-1.33-4.79-2.78-4.13-4.76.92-2.73,4.81,0,5.71-.69,4.58-3.61,9.73.3,14.22-1.68,1-.32,1.46-2,2.54-1.41,6.53,3.67,5.86-1,5.6-4.7s1.37-5.87,4.62-7.15c6-2.37,6.06-2.34,1.91-7.11a3.16,3.16,0,0,1-1-1.77c2.87-2.24,9.4,2.77,10.05,2.07,3.27-3.54,6.45-2,8.5-4.67a58.59,58.59,0,0,0,6.52-9.63c1.91-4.19,2.46-1.78,2.46-1.78s0-.38.75,2.08c1.42,2.24,3.49,2,5.65,1.42,2.6-7.61,4.36-15.63,10.73-21.43,2.75-.69,1.3,5,4.28,3.94,2.64-.91,2.23-4.19,2.74-6.32a23,23,0,0,0,.9-6.65,5.7,5.7,0,0,0-.47-1.67c-.33-1-1.92-1.83-.16-2.93,2.3-1.45,2.6-3.88,3.15-6.2a213.15,213.15,0,0,0,.83-25,9.63,9.63,0,0,0-.88-3.4c3.79.65,5.67,6.4,10.76,4,1.4-7.29,4.13-14.4,3.08-22-3.88-3-8.66-4.75-13-6.55-5.29-2.19-11.39-2.78-17.06-4.76-5.36-1.87-8-5.09-6.1-10.46a2,2,0,0,0-.64-2.21,9.6,9.6,0,0,0-6.33-1.47c-3.55,1.52-6.76,1.52-9.63-1.58-1.6-1.73-3.73-2.77-6.19-1.52-3.46,1.76-4.33.09-4.78-3-1.39-9.52-3.55-11.11-13.59-10.41-4.42.31-6.66-2.9-8.93-5.65-4.19-5.1-6.93-11.09-10-16.85-1.92-3.56-3.46-7.49-8.7-7.75-6.9-.34-7.45,0-10.62,10.39-2,2.78-6.22,4.61-2.69,9.35,1.44,1.93-1.57,1.92-3.06,2.12-5.11.68-5.15,1.12-2.49,5.56S881.16,767,886,769.65c-4.31,2.73-7.5,6-13.06,5.31-3.14-.37-4.12,2.37-1.55,5,1.36,1.39,4.43,1.83,3.65,4.38-.69,2.27-3.21,1.22-5,1.32-2.23.12-2.58,1.45-2.73,3.33-.44,5.45,2.78,8.72,6.71,11.76,1.3,1,3.88,1.65,2.36,4.19a4.3,4.3,0,0,1-4.19,2.27c-2.53-.25-2.74-2-2.53-4.08.57-5.58-4.79-6.74-7.87-9.31-1.83-1.52-3.38.53-3.08,2.84s.74,4.86-.58,7.18c-4-3.62-4.1-3.68-1.26-7.51,2.14-2.88.15-4.2-2-5.18-2.7-1.24-3.51-2.51-1.51-5.1s1-5.49-.51-8.09-1-3.83,2.13-4c2.23-.14,4.28-.82,4.3-3.51,0-2.46-1.74-3.51-3.89-4.2a57.54,57.54,0,0,0-9.05-2.46c-7.51-1.13-8.28-.7-8.32,6.79,0,2.49-.72,4.62-3,5.65s-3.91-.49-5.61-2.59c2.61-1.09,6.17-.2,6.89-4.44.52-3.06,1.35-5.38-1.6-7.58-1.74-1.3-.56-3,.16-4.45,1.08-2.22.66-4-3.28-5.77,10.92.78,10.86-6.38,12.16-12.5-.61-4.51-3.55-3.85-6.46-2.63-3.27,1.36-6,3.77-9.25,5.15-4.73,3-9.41,6.1-14.64,8.26-1,.39-2.37.65-2.71,1.43-3.22,7.3-11,9.58-16.31,14.63-1.41,1.78-2.79,3.58-4.22,5.35-1,1.23-2.55,2.43-1.64,4.3,1.09,2.24,3.11,1.52,4.94,1.19a8,8,0,0,1,2.47-.25c2.95,2,6.68,2.95,8.11,6.88a2.61,2.61,0,0,0,4.24,1c2.72-2.57,3.29.12,4.58,1.42,1.79,1.79.87,2.69-.91,3.69-2.77,1.55-3,4.37-2.93,7,.07,2.52,2,5.11-2,6.8-1.42.61-.16,3,.76,4.41,1.92,2.94,5.2,4.06,8.16,5.56,2.49,1.26,4.09.65,3.84-2.45-.23-2.87.65-4.5,4-5,5.53-.86,5.83-2.09,2.37-6.55-.88-1.12-2.34-1.81-2.6-3.38-.1-2.46,1.57-3.59,3.51-4.51,2.21-1,3.42-2.81,3.93-5.52a21.48,21.48,0,0,1-1.85,8c-1.86,3.22-4.61,6.41,1.67,8.33,2.84.86,1.38,2.86,0,4.29-3.29,3.3-2.19,6.36.69,9.1a33.49,33.49,0,0,1,4.21,5.32c3.19,4.57,6.07,4.17,9.12-1.34,1.09,3.08-.14,5.29-1.85,7.42-1.43,1.8-2.71,3.71-2.81,6.08-.14,3.27,3.19,6.46,5.45,4.8,3.29-2.41,8.36-1,10.58-5.43,1.13-2.28,3.27-.66,5,0,4.25,1.72,7.87,4.76,12.49,5.75,2.48.53,4.81,1,4.68-2.64-.07-2.1,1.53-2.14,2.93-2.5,4.32-1.12,4.3-3.31,1.57-6.14-1.11-1.15-3.12-2.21-1.49-4,1.82-2,3.74-1,5.42.59,4.72,4.46,10.73,7.06,16,10.72,1.91,1.33,3.86,1.3,6,1.09,2.62-.25,5.35-.64,7.69,2-3,2-6.62.14-9.19,2.33-1.28,1.09-1.14,4.27-5.07,2.07-1.89-1.05-7.55-3.47-9.79-.3-2.59,3.67,4.76,5.19,3.59,9.4-1.54.22-3.27-.93-5.68-.64,3.05-2.43,3.74-4.82-.36-5.78-3.76-.88-7.23-1.8-9.91-4.77-1.22-1.37-3.18-.94-4.8-.7-3.61.53-6.93,1.82-10.84,1.73-4.14-.09-3.56,5.51-6.22,7.83.5-3.32-4.15-10.57-7.52-11.57a2.52,2.52,0,0,0-3.53,2.4c-.15,2.67-1.07,5.44-.54,7.94.78,3.65.72,6.69-1.62,9.82-1.57,2.09-1,4.33,1.6,5.65,4.3,5.73,10.53,7.72,17.49,8.6-2.8-1-5.71-.92-8.32-1.66-5.18-1.46-7.53.11-8.22,5.15-.22,1.63-2.62,3.16-.39,4.87,1.89,1.44,3.93,1,5.83-.25.81-.55,1.37-1.58,2.57-1.43,1.76,2.56.9,3.81-1.74,5.24-4.49,2.44-4.62,4.11-.8,7.24a8.79,8.79,0,0,1,3.66,7.4c-.06,4.25,2.25,4.8,5.77,3.34,1.81-.75,3.68-2,5.54-.42a1.84,1.84,0,0,1-1.55,2c-2.38.6-4.79,1.54-4.43,4.31.39,3,2,5.74,3.68,8.28.69,1.06,2.34.21,3.42-.45a21.46,21.46,0,0,1,5.67-2.61c3.08-.84,3.22-2.27,1.67-5-2.22-3.86-.82-5.85,3.52-5.36a38.74,38.74,0,0,1,8,1.78,1.68,1.68,0,0,1,.65,3c-1.12.74-.53-1.06-1.13-1.57a4.34,4.34,0,0,0-5.17-.86c-1.87.91-2,2.58-1.53,4.25a29.86,29.86,0,0,1-.65,18.12c-1.52,4.15,1.39,5.9,6.54,6-4.86,2.93-11.9,3.23-10.19,10.18C877.55,947.44,882,946.69,885.77,946.48Z" fill="#eaad72"/><path d="M954.37,890.15c-1.78,3.11-6.2,3.93-6.86,8.22-.37,2.33-2.49,1-3.34,0-4.18-4.65-4.81-.66-4.82,6.07-3.78-10.32-8.9-2.13-12.79-4.86-.31-.21-.38,1.71.15,2.55,1.5,2.43,3,4.86,6,6-2,2.73-5-.11-6.59,1.76-2.23,2.62-6,4.54-3.9,9.23.88,2,1.87,6-3.19,2.69-2.7-1.76-2.83,1.12-3.48,2.7l.89,1.37c.5-.23.51-2.52,1.52-.49a28.12,28.12,0,0,1,1.47,4.88c1.92,1.34,3.65.26,5.1-.71,1.65-1.11,3-3.11,4.63-.13a5,5,0,0,0,1.36-5.17c-.25,5.74.58,12.49.34,19.27-.09,2.6-.52,5.32,1.94,7.3,4.45.49,4.1-3.11,5-5.63-2-2-1.7-4.29-1.34-6.79a64,64,0,0,1,6.26-19.81A133,133,0,0,0,938.3,935c.53,2.86,3.23,1.45,4.78,2.31,5.7-7.67,4.66-16.6,4.95-25.28.11-3.42-.89-6.91.88-11,1.61,4.83,1.82,9.21,2.16,13.56a1.73,1.73,0,0,0,2.42-1.22C954.33,905.69,957.11,898,954.37,890.15Z" fill="#e1b58b"/><path d="M961.74,781c-.5,3-3.48,1.36-5.62,2.79,2.88,2.06,5.38,4.07,5.32,7.71,0,1.37,1.37,3.5,2.43,3.15,7.11-2.36,12.13,5.47,19,3.51a2.8,2.8,0,0,1,2.3.49c3.58,3.59,7.65,5.9,13,5.46.17-.79.33-1.58.5-2.37,1.29-4.57,2-9.16.39-13.81-.93-2.85-1.23-3.65-2.81-5.55a5.27,5.27,0,0,0-3.77-1.95c-6.78-.36-13.57-1.24-20.36-.05-3.27,1.54-5.62-1.81-8.65-1.56C962.64,779.37,961.23,779.46,961.74,781Z" fill="#c78e5d"/><path d="M964.77,914.85c4.48-9.64,10-19.1,8.31-32.26C967.11,893.69,964.65,903.88,964.77,914.85Z" fill="#d8a87c"/><path d="M932.56,950.17q-2.92,10.8-5.83,21.6c.75,3.15,1.88,2.21,2.63.1,1.16-3.25,2.1-6.59,3-9.93,2.3-8.74,8.43-15.87,10.74-24.61-.31-4.34-2.52-.88-3.88-.9-2.91,2.23-3.35,5-2,8.25C936.3,947,936.31,950.13,932.56,950.17Z" fill="#ac8562"/><path d="M926.69,960.43q0-10,0-20.1c-1.58-1.88-3.21-3.61-6.06-2.37l-.35,16.26c.33.55.27,1.32,1,1.65,1.42,1.66,4.07,2.54,3.27,5.63C924.43,961.9,926,961,926.69,960.43Z" fill="#bf8f65"/><path d="M920.64,938l6.06,2.37q1-5.49,2-11c-.91-1.26-.45-5.14-3.8-1.61-1.26,1.33-3.57,1.71-5.41,2.52C919.44,932.9,919.36,935.53,920.64,938Z" fill="#eaad72"/><path d="M950.42,945c-.14-2.71,1-6.23-3.91-5.9q-.94,3.54-1.88,7.08c-1,5-2.68,9.92-.21,14.93C946.92,955.88,950,950.89,950.42,945Z" fill="#ac815d"/><path d="M915.85,931.74c-3.14,2.64-4.19-.73-6-2-1.48-1-3.14-3-4.84-1.44-1.3,1.2-1.67,3.46-2.18,5.32-.11.42,1.14,1.71,1.33,1.63,4.35-1.88,7.77,2.17,11.86,1.69C916.2,935.22,916.93,933.45,915.85,931.74Z" fill="#eaad72"/><path d="M921.26,955.87l-1-1.65c-.42,1.61-2,2.71-2.5,3.93-2,4.79-5.13,9.92.86,15C919.24,967.12,919.59,961.38,921.26,955.87Z" fill="#bc906a"/><path d="M823,638.31c-.38,2.08.73,4.78-2.49,5.68-3.79,3.4-5.65,8.71-11,10.6-2.91,2.55-9.9-.25-9.35,6.84,2.64,1.54,3.8-3.34,7.05-1-3.18,2.22-3.89,5.85-4.65,9.58-4-2-1.55-5.82-3.82-7.72a6.9,6.9,0,0,0-5.3,1.68c-1,.69-2,.32-3,.13-2.89-.55-5.75-.18-6.89,2.64s1,4.51,3.27,5.8c2.49.37,5,.54,3.41,4.27-.54,1.22-.06,2.76.23,4.14a7.87,7.87,0,0,0,1.88,3.7c1.76,1.28,2.51,3.67,4.89,4.29a2.71,2.71,0,0,0,1.42-.87c1-1.32,1.33-3,2.25-4.27,1.32-1.87-.57-6,2.63-5.8s7.16.19,9.35,3.6a5.66,5.66,0,0,0,1.63,1.78,2.51,2.51,0,0,0,1.71-.13c2.3-1.53,2.47-3.78,1.73-6-1-3.13-.18-5.71.85-8.76,1.35-4,3.31-6.2,7-8.54,3.85-2.44,5.4-8,10.2-10.11.53-2.49,2.72-3.44,4.56-4.71.73-3.8.29-6.68-4.8-6.12" fill="#a8744b"/><path d="M683,821.75l-1.7,2.19c14.35-3.9,28.76-3.77,43.21-.66,2.61.56,4.37-.92,6.3-2.12a10.83,10.83,0,0,1,6.55-1.74c1.51-.66,2.42-1.48.9-3-2.16-1.31-4.53-.88-6.72-.38a19.39,19.39,0,0,1-9.92,0c-6.57-1.91-13.25-1.32-19.92-1C694.84,815.47,688.41,817.22,683,821.75Z" fill="#5c3413"/><path d="M739.1,817.24l-1.71,2.18c5.78-.14,11.56-.33,17.34-.41a5.52,5.52,0,0,1,5.53,3.29c1,2.16-.48,2.92-2.24,3.44,1,2.87,0,5.66-.36,8.48-.31,2.24.23,4.71,2.4,5,2.67.42,2.15-2.54,2.4-4.1.51-3.19.56-6.45.8-9.68,3.53-3.35,3.27-7.86,3.52-12.06.18-2.95-1.8-3.93-4.65-2.78-6.47,5.38-14.91,3.82-22.28,6Z" fill="#502e10"/><path d="M885.77,946.48c-1.34-.55-2.73-1.66-4-1.53-3,.29-4.83-.89-4.39-3.57.4-2.45,1.41-5.83,5-5.13,5.83,1.15,4.69-3.43,6.3-5.83-1.45-1.14-2.34-.56-3.24,0-1.24.71-2.46,1.85-3.76.06a3.26,3.26,0,0,1-.29-3.94c2.87-5.31,2.45-10.87,1.33-16.57-.29-1.47-2.73-3.37,0-4.79a3.8,3.8,0,0,1,3,.13c3.06,1.52-.7,3.56.43,5.66,3.73-.66,4.84-3.95,5-6.52.17-3.6-3.41-2.43-5.71-2.77a41.5,41.5,0,0,1-4.18-1.22c-3.18-.79-5.79-1.14-7.9,2.6-2.45,4.35,1.8,4.56,4.13,7-4.41.84-8.2,1.65-11.12,5.47-.86-2.67.75-5-2.2-6.66-2.64-1.54-1.5-4.86,2.08-4.48,2.55.27,3.53-.62,4.35-2.32s-.76-2.64-1.53-3.77c-1.46-2.14-3-.22-4.39.16a10.59,10.59,0,0,0-2.84,1.25c-2.89,1.79-4.47,1.48-3.6-2.23.84-3.55-.88-5.94-3.37-8-1.15-1-3.7-.55-3.22-3,.39-2,2.19-2.14,3.92-2.36s4.28-1.65,3.76-2.49c-1.38-2.19-.88-4.81-2-6.6-.89-1.42-3.09-.09-3.89,1.57-1.38,2.88-3.39,3.22-5.88,2.08-1-2.81,3.81-1,2.57-3.92-2.2-5.17.26-5.21,4.42-3.94,3.19,1,7-.17,9.19,3.78,1,1.91,2.74.88,2.82-1,.15-3.48-1.65-6.59-5.31-5.95-5.15.9-8.92.85-10.64-4.9-.21-.72-2.16-.95-3.3-1.4-3.2.53-6.25.71-7.56-3.14,5.06-2.3,5.21-3.11,2.24-7.36-2.79-4-6.91-6.5-10.54-9.55a4.69,4.69,0,0,0-5.86-.38c-1.85,1.3-1.41,3.25-1,5.08a21.26,21.26,0,0,0,2.75,6.18c1.86,3,2.12,6.66.28,9.39-2,3-5.47,1.35-8.62.88-4.26-.63-9-2-12.65,2-.38,1.26.4,2.42.34,3.63-.09,1.51-.81,3.13,1.13,4.08-2.66-.67-1.12-2.57-1.26-4-.13-1.18-1.06-1.7-2.18-1.82-3-.34-2.81,2.58-4.17,3.89-1.45-.21-2-1.42-2.85-2.3-2.55-2.83-5.39-2.9-8.39-.89s-2.37,4.92-1.52,7.77c.71,2.35,4.24,3.95,2,7.1l-.65,2.36c-4.29,5.81,1.82,6.53,4.53,8.91.43.42,1,.89.67,1.54-4.28,8.94-3.29,16.26,3.36,23,1.47,1.48,1.5,3.32,2.13,5a7.82,7.82,0,0,0,1.86,2.86l1.09,1.39c5-.64,7.66-3.09,7.84-8.34.24-7.29,6.53-11.43,10-17.07-.84-1.79-1.28-4.18-4-3.84-4.28.54-5.8,4-7.69,7.26.75-1.85,1.94-3.63.76-5.64-1.7-.52-2.39-1.4-1.2-3.06,3.22-4.46,4.24-10.19,8.51-14.07,1.61-1.46,1.82-3.58,2.63-7-.34,6.3-5.89,9.78-4,15.18a87.73,87.73,0,0,1,4.93,11.08,11.61,11.61,0,0,0,4,3.82c1.72,1.12,3.54,2.61,5.74,1.36,2.45-1.4.11-3.28.29-4.9.37-3.45,1.06-6.85-.77-10.42,2.16,2.87,5.81,2.14,8.26,3.59a2.6,2.6,0,0,1-1.49,2.25c-1.33.89-3.5,1.22-3.37,3.24.16,2.38,2.42,2.5,4.24,2.89s3.28,1,3.19,3.12-1.58,2.7-3.39,2.93-3.91.48-4.18,2.89c-.23,2,1.3,2.87,2.92,3.5s2.68,1.33,1.66,3.18c-.88,1.59-1.07,3.8-3.07,4.44s-3.13-.93-3.87-2.41a57.27,57.27,0,0,0-4.19-6.87c-.36-.52-1.71-1.27-.48-1.89,4.37-2.2,2.26-3.65-.56-4.82-3.53-1.45-10.1.95-9.37,3.5,1.85,6.48-2.72,12.27-1,18.47a23.59,23.59,0,0,1,3.69.71c2.94,1.06,7.34,1.15,6.38,5.79-.88,4.27-5.11,4.82-8.69,5.41-1.36.23-3.25-1.91-4.37,0-.93,1.63,1.87,3,1.7,4.26-.53,4,5.87,4.85,3.92,10.22-1,2.62,5.35,1,7.9,2.73a1.86,1.86,0,0,0,2.61-1c1-2.4-1.43-3.05-2.52-4.38a5.29,5.29,0,0,0-1.28-1.34c-3.06-1.72-5.48-5.62-4.59-7.54,1.8-3.94,5.44,0,8.23.32,2.53.33,3.74,3,6-1.77,1.89-3.91,6.46.48,9.38,2.9-1.27,2.1-6.68.41-4.4,5,.77,1.56,1.19,3.86,3.82,1.77,2.24-1.77,4.6-.68,5.06,1.32.81,3.49-3.09.89-4.31,2,.8,2.5,4.49,2.15,4.28,5.65-4.62-2.78-10.07-1.51-15.08-4.85.89,6.2-6,9.52-3.78,15.49,1.29,0,5.23-4.19,2.58,2.89,2.52-1.78,3.83-3.06,3.2-5-1.21-3.81-1.85-5.57,3.93-6.94,6.38-1.52,6.68,3.48,9.83,5.25.29.15.59.29.88.42,1.26-.34,2.3-1.33,3.55.58,2.83,4.35,5.93,8.51,6.77,13.78l.51.07.47.22c2.74-1.77,6.73-1.87,4.36-7.62-2.15-5.2,2.74-2.16,4.94-2.06.28-5.16-3.58-6.85-7.9-8.38,1.57-2.35,3-1.77,5-1.43,4.72.82,7.07-2.3,5.24-6.5-.08-.18-.33-.32-.35-.49-.58-4.2,6.13-1.35,5-4.07s-3.33-4.36,1.61-4C881.21,949.11,883.45,947.83,885.77,946.48Z" fill="#dc9d63"/><path d="M768.79,822.76c3.9-2.3,7.2-4.84,8.31,2.83.69,4.73,4.5,8.84,2.62,14.33-1,2.82,2.19,1.23,3.34,1.88,1.44-.58,2.08-1.85,2.91-3.12-1.63,2.54-1.15,4.78,1.07,6.56,2.05,1.63,3.8.47,5.56-.8,3.56-2.57,5.09-.79,4.82,2.69-.38,5,2.18,5.47,6.12,4.39,2.54-1.32,2.11-3.35,1-5.21-1.79-3-2.49-6.48-4.55-9.34a5.6,5.6,0,0,0-6.15-1.34c.29-2.31,1.63-3.46,2.3-4.93,1-2.08,1.19-4.22-1.19-5.28-4.65-2-4.4-5-2.81-9,2.31-5.76,1.67-7.77-4.63-9.18-2.26-.5-4.3-3.54-3.91-4.4,1-2.35,3-5.51,6.61-3.77,2.57,1.23,4.26,1.58,5.26-1.51.48-2.49-.69-4.66-1.41-6.93-.78-1.42-1.95-2.34-3.49-1.26s-2.31,1.64-2.86-.75c-1.1-4.86-4.22-3.68-7-1.81a28.81,28.81,0,0,0-7.41,7.36c-2.15,3.07-4.72,4.31-8.49,3.41-6.59-1.57-12.73.72-18.93,2.38-3.21,1.68-7.71.5-10,4.28,1.15,6,5.88,4.28,9.46,3.7,2.9-.47,5.62-1.51,8.54-.34a8.71,8.71,0,0,0,1.84.1c10.41-.6,10.41-.6,9.66,9.86C765.19,820.12,765.36,822.47,768.79,822.76Z" fill="#b68357"/><path d="M789.39,882c2.57-.73,5.48-1.38,1.76-4.44a8.78,8.78,0,0,1-3.18-7c-.05-2.58,2.43-2.51,3.93-3.34,2.77-1.53,3.46,1.41,5,2.51s1.15,4,3.61,3.75c2.8-.31,1.79-2.66,1.86-4.41a1.6,1.6,0,0,1,2.09-1.64c1.42.31,1.38,1.32.79,2.35-.69,1.19-1,2.66.5,3a15,15,0,0,0,6.14.24c1.22-.22.55-2.43,0-2.23-6.79,2.29-3.26-4-5.09-5.72a3.63,3.63,0,0,0-1.29-1.17c-3.68-.38-5.4-2.58-5.71-6a13.08,13.08,0,0,0-4.1-8c-3.86-4-5.13-4-7.44,1.17-1.42,3.17-3.23-.28-4.53.86-5.12,1.75-5.9,6.44-1.5,11,2.31,2.38,3.26,3.65,1.48,7.5C781.62,874.79,786.42,878.52,789.39,882Z" fill="#bc8556"/><path d="M768.79,822.76c-4.49-3.16-2.71-7.42-1.53-11.11,1.87-5.85-.41-7.16-5.77-6.26-2.45.41-4.93.56-7.4.83-4.81,2.51-10.13,1.71-15.24,2.09-1.92.14-4.07-.2-5.07,1.54-3.57,6.2-9.25,5.23-14.82,4.39-4.33-.66-8.63-1.52-13-1.11-2.2.2-4.81,0-5.15,3.15,12.81-.8,25.48,3.34,38.32,1h0c7.53-1.68,15.44-1.56,22.69-4.54,2.25-2,4.16-3,3.5,1.44-.56,3.8-1.35,7.57-2,11.36,1.93,3.61,3.78,7.28,6.89,10.13l.27-1.27c1.61-2.09,2-4.77,3-7.1C774.84,823.89,769.09,825.61,768.79,822.76Z" fill="#895c36"/><path d="M783.67,852c1.26,1,2.36,2.43,3.81,3,1.68.71,3.64.61,2.58-2.16-.6-1.58-1.61-3.33.22-4.39,2.29-1.32,3.09,1.53,4.24,2.46,2.55,2,3.64,5,3.88,8.55.25,3.72,1.89,7.21,7.1,5.38,2.9-5.32-.16-9.7-2.34-14.21-2.71-.08-6.53,1.16-3.62-4.13,1.14-2.07-1.19-4.27-3.07-5.44-1.46-.9-3.26-.06-4.33,1.37s-1.89,3.67-4.22,2c-1.84-1.29-2.48-3.12-.84-5.28.74-1,.79-2.32-.91-3.55-1,2.1-2.08,4.13-3.11,6.17A15.65,15.65,0,0,1,783.67,852Z" fill="#dc9d63"/><path d="M787,900.28c-2.49.89-3.88-.57-5.18-2.29-.86-1.13-.47-4.09-2.85-3-2.56,1.19-1.28,3.42-.11,5.22a15,15,0,0,1,.79,1.61c-1,2.76-4-.77-5.27,1.83-1.11,2.24-5.87.86-5.79,3.58s3.11,2.61,5.48,1.7c2.43,12.06,9.94.8,14.51,3l.75-.47c2.65-4-1.55-7-1.76-10.55Z" fill="#ab7d54"/><path d="M801.29,925.62a2.46,2.46,0,0,0-.72-2.67c-3.32-1.66-6.05-3.78-7.6-7.34-.73-1.66-1.72-3.81-4.34-3.68l-.08,0c-.68,2-1.51,4-3.95,4.06s-4.8.9-4.4,3c.45,2.34,3.09,3.26,5.86,2.87,3.48-.49,7.64-1.54,6.11,4.55Z" fill="#ab7d54"/><path d="M793.68,892.76c.06-1.24,0-3.35-1.14-3.11-6.17,1.35-3.79-2.73-3.79-5.33-6.94,6.13-6.92,6.12-1.84,14.16.28.44.05,1.2.06,1.8l0,.07C791.26,899.52,792.57,896.22,793.68,892.76Z" fill="#ab7d54"/><path d="M790.09,946.52c-.48,1-.31,1.78.67,2,2.16.55,2.84-1.18,3.59-2.57a1.4,1.4,0,0,0-.78-2C791.37,943.39,791.13,945.62,790.09,946.52Z" fill="#734a25"/><path d="M814.72,929.43c2.15-3.67.75-8.54,4.12-11.82a1.36,1.36,0,0,0,0-2.16c-2-1.44-4-2.92-1.28-5.26,3-2.6,6.2-2.59,9.74,0-2.06,1.5-4.65-1-6.12,2a16.57,16.57,0,0,1,7.21,9.36,6.66,6.66,0,0,0,6.08,4.64c2.21.14,2.85-2.73,3.44-4.54a8.23,8.23,0,0,1,3.54-4.92c-1-.72-1.49-1.09-2-1.37-1.85-1-5.64.17-5.45-2.8.2-3.15,3.32-1,5.14-1.2,3.41-.4,2.68-3.22,3.16-5.21.61-2.53-1-3.94-3.3-4.32-1.73-.28-3.73.86-5.17-1.1.64-2.12,2.9-1,4.16-2,1.57-1.23,3-2.48,2.45-4.55s-2.53-1.76-4.2-1.55c-2.35.3-4.81,1-4-3a1.39,1.39,0,0,0-2.11-1.38c-2.08,1-3.9,2.9-2.67,4.84,1.82,2.88,3.17,4.75,0,7.86-2.22,2.21,3.28,2,2.46,4.94-4.38,1.38-5.92-4.5-9.84-4.27h0c-4.75,2.21-9.74,8.89-10.92,14.61-1.34,6.52-1.34,6.52-6.84,10.88l2.39.56a10.29,10.29,0,0,0,6.48,6.22Z" fill="#e8aa6e"/><path d="M811.25,933.79l-6.48-6.22C803.23,933.35,807.59,933.22,811.25,933.79Z" fill="#dc9d63"/><path d="M861,692.94c-.5-7.26-2.87-14.13-4.35-21.18-1.86-8.8-7.2-16.28-8.58-25.11-5.26-.95-8.45,1.46-8.44,6.37,0,1.42,1.17,2.85.31,4.2-4.65,7.31.32,11.24,5.46,15.08a6,6,0,0,1,2.67,3.94c.42.77-1,.76-.18.44,0,0-.09-.11-.13-.34-.4-2.47-1.68-4-4.26-2.72s-4.69,4-3.27,6.55c3.68,6.67-1.49,12.73-.7,19.13.21,1.68-1.47,2.9-3.06,3.59-4.6,2-4.26,5.42-2.1,8.61s2,6.08,1.12,9.73-2.64,8.25,2.41,11a4.76,4.76,0,0,0,1.88-.05c10.37-5.22,19-12,22.38-23.61a62.1,62.1,0,0,0,1.69-9.46C864,696.58,863.57,694.27,861,692.94Z" fill="#3f210a"/><path d="M844.4,641.16c-7.61-.36-7.48.68-16.37,8s-11,8.63-16.13,15.59-8.83,6.57-11.56,11.33-4.57,4.18-6.94,8.18S800,696,800,696l28-7.43,17.9-33.87Z" fill="#3f210a"/><path d="M839.16,731.6c-5.87-3.45-2.4-8.31-1.32-12.26.71-2.63,2.39-3.85-.71-6.5-2-1.69-7.16-6.62,1.1-8.68,3.06-.76,3.77-3.69,3.41-6.55a20.23,20.23,0,0,1,2-11.35c.78-1.65,1.52-3.18-.37-4.27-3.24-1.88-2-4-.59-6.15.68-1.1,1.69-2.25,3-1.39,2.57,1.74-.48,4.16.6,6.68,3.75-1.57,4.3-4.12,2.5-7.12a19.35,19.35,0,0,0-4.31-4.41c-3.69-3.12-7.41-6.09-2.75-11.2a3.16,3.16,0,0,0,.34-3.51c-3-6.32,1.55-7.27,6.09-8.24-.69-2-.39-4.67-3.06-5.39-3.22-.87-1.93,3.69-4.45,3.87-3.8-1.28-5.57.22-5.65,4,2.83,2.92,1.58,6.24,1.18,9.58-.45,3.73-2.93,7.75,1.41,11.08.88.68-.3,2.22-1,3.24-1,4-.89,8-4.35,11.46-2.78,2.8-.4,5.87,5.39,7.79a61.35,61.35,0,0,0-9.2,21.71c-1.5-5.06-.26-9.94-2.1-14.39a12.28,12.28,0,0,1-1.44-5.31c0-1.24,0-3-.94-3.47a15.93,15.93,0,0,1-7.44-7.91c-.08-.17-.76.07-1.12.33v.06c-1.91.48-1.6-1.39-2.36-2.13a3.87,3.87,0,0,0-4-1c-1.68.47-2.11,1.8-2.14,3.32a15.22,15.22,0,0,1,0,2.43c-.58,3.49-1.53,6.25-5.81,3a2.83,2.83,0,0,0-3.48-.16h0c-2.53,2.18-3.75,5.32-6,7.75a3.59,3.59,0,0,0-.15,5.06c1.49,1.62,3.39,1.16,5.2.4s3.18-2,4.94-2.62a4,4,0,0,1,4.15.44c1.88,1.54-.25,2.35-.79,3.47-2.47,5.08,1.89,4.6,4.64,5.43a10.6,10.6,0,0,0,1.69,0c4.79,1.64.89,5.62,2.28,8.16a13.3,13.3,0,0,0,.26,2.44c1.83,9.16,2.67,9.71,12.3,7.77-.1,2.79-.76,5.91,3.58,6.38C833.12,733.73,836.85,736.6,839.16,731.6Z" fill="#613516"/><path d="M861,692.94c3.15,5.56-1,10.83-.66,16.28.63,4.82-1.22,10.42,4.49,13.63,3,.8,6.43,2.63,6.13-3.14-.1-2,2.1-1,3.19-1.28,7.27-1.94,9.39-5.33,7.57-12.57a11.86,11.86,0,0,1-.31-4.27c.83-7.26-2.6-13.38-5.5-19.63-.34-1.1-1.27-1.41-2.26-1.63C867.32,682.49,861.77,685.41,861,692.94Z" fill="#c49061"/><path d="M791.38,681.24c1-2.07.35-4.31,1.4-6.7,1.87-4.26-2.22-3.12-4.72-2.68a35.54,35.54,0,0,0-4.26,2.06c-2.74,1.1-4.45,3.6-7.06,4.86-4.59,2.17-6.27-1.56-8.54-4.06-3.68-3.56-7.59-6-12.7-2.45-1.37,1-3.16,2-2.87,3.74.36,2.15,2.6,2.34,4.49,2.61,1,.14,2-.37,3.08-.33-.22,2.54-.49,5.1-3.64,5.58a8.1,8.1,0,0,1-7.29-2.49c-4.21-4-8.72-7.93-15.58-5.09a9.61,9.61,0,0,1-7.38.14c-2.16-.92-3.56.33-4.9,1.72l-.09.09c2.33,4.28,3.59,7.31-2.72,10.49-4.16,2.1-6.69,7.83-9.21,12.33-1.48,2.62-5.72,4-4.28,8.06l1.18.17c4.4-1.23,5.62-5.83,9-8.12a17.88,17.88,0,0,0,2.18-2.17c8-10.48,18.54-8.5,29.14-5.62,6.31,1.71,12.84,3,18.23,7,2.6,1.41,4.81,3.63,8.06,3.67a7,7,0,0,0,1.77-.22c2.72-.73,3.49-2.5,3.17-5.15-.42-3.4.72-6.08,4.45-7.08,2.9-2.21,7.66-.92,9.62-4.89C790.27,685,790.71,683.15,791.38,681.24Z" fill="#7c5c40"/><path d="M645.68,802.15A4.15,4.15,0,0,0,641.6,804c-4.31,3.15-6.09,7.5-6.23,12.62,7.76,2.58,11.69-3.05,15.2-7.75,2.07-2.77,4-3,6.69-3,4.48,0,8.61,1.67,12.89,2.58,5.74,1.21,11.21,1.08,16.61-1.2a6.31,6.31,0,0,0,1.45-1,12.16,12.16,0,0,1,11.46-4.7c6.1.62,11.85,1.18,15.51-5.09.49-.84,1.86-.75,2.84-1.06,1.82-.55,2.88-2.06,4.26-3.17,4.53-3.07,3.43-7.69,3-11.81-.37-3.1-3.09-4.3-6.22-3.5a20.58,20.58,0,0,0-9.44,4.74c-9.84,9.57-23.26,11.89-35.38,16.74-4.28,1.71-8.47-1.42-12.4-3.26-1.22-.57-1.43-1.95-1-3.26.33-1,.9-2,2-2.11,1.52-.19,2,1.11,2.73,2.12,4.68,6.6,9,7.45,15.76,2.74,8.86-6.19,17.55-12.56,25.46-20a26.35,26.35,0,0,1,14.88-7.39c6.8-.83,9.6-4.35,8.18-9.06-4.18-3.83-7.79-8.18-11.77-12.2-.41-.12-1.06-.31-1.19-.1-3.82,6.22-10.1,5.86-16.27,6-2.72.05-4.81,1-4.87,4.29s-2.22,6.1-2.86,9.29c.76,4.43-.4,8-4.57,10.4-1.43.83-2.2,2.42-3,3.92-1.72,3.4-4.66,4.56-8.37,3.91-4.1-.71-3.7-3.76-3.51-6.7a2.5,2.5,0,0,0-.74-1.66c-3.09-1.93-5,.34-7.23,1.85-7.09,4.89-10.14,12.83-15.17,19.27C648.82,798.41,648.05,800.89,645.68,802.15Z" fill="#d8aa7f"/><path d="M635.3,816.64,641.6,804c-7.49-3.67-12.26,2.14-17.69,5.13-2.07,1.14-3.63,2.52-6.19,1.74-1.69-.52-3.28-1.06-3.46-3s1.09-3,3-3.23c1.65-.22,3.56-.13,3.68-2.43s-3-.89-3.55-2.76c1.64-1.94,5.23-2,5.57-5.24-4.69-.23-9.17,1.31-13.8,1.69a4.1,4.1,0,0,0-3.84,4c-2.71,5.8,1.59,8.24,5.43,10.9.7.79,2,.77,2.57,1.6,5.52,8.24,13.06,7.79,21.22,4.83Z" fill="#e5c3a2"/><path d="M645.68,802.15c3.55.7,4.56-2,6-4.23,4.49-7,8-14.69,15.21-19.73,1.8-1.26,3.17-3.39,5.91-2.28,1.22,1.32,2.42.82,3.61,0a4.81,4.81,0,0,0,1.74-3.18c.21-3.37,1.62-7.47-2.51-9.27s-6,1.8-7.9,4.43c-3.67,5.17-8.78,4.76-14,3.73-2.87-.57-5.71-1.82-7.45,1.78l.11.21c3.71,2.61,10.42,3.85,4.87,10.62-.92,1.14.41,2.29,1,3.32.81,1.37,1.32,3.39-.49,3.55C643.71,791.79,647.19,798.22,645.68,802.15Z" fill="#dcb692"/><path d="M605.31,799.92a8.77,8.77,0,0,1,7.74-2.92c3.72.37,6.9-.88,9.9-2.82l-.11-.09c.44-.39,1-.72,1-1.39.2-1.94,1.8-4.22.36-5.71-1.69-1.74-4.08-.56-6.07.41-1.28,1.05-2.68.27-4,.26-4.16,3.57-7.33,2.61-9.47-2.43-3.12,3.39-3.06,7.33-3.75,11a17.79,17.79,0,0,1,.79,2.18c.28,1.21-.75,3,1,3.45C603.4,802,604.45,800.62,605.31,799.92Z" fill="#5b4223"/><path d="M618.16,787.4c7.62-1.84,5.37,3,4.68,6.69,3.09-1.47,3.31-5.13,2.61-6.86C623.5,782.43,620.63,786,618.16,787.4Z" fill="#c4a984"/><path d="M646.26,773.37c4-2,8.12-.78,12.25-.21,4.3.59,8.47,1,10.53-4.5.75-2,2.52-5.39,5.93-4.4s1.18,4.21,1.72,6.38a4.64,4.64,0,0,1-1.22,4.51c5.62,4.35,8.32-.8,11.24-3.71,2.21-2.19,3.87-4.8,7.25-5.41,1.16-3.54,4.12-6.58,3.35-10.66-.37-2,1-1.91,2.14-2a14.82,14.82,0,0,1,4.34-.18c6.51,1.4,11-1.39,14.42-6.43,1.25-7.85,5.28-2.14,8.25-1.61a4.59,4.59,0,0,0,1.77-.11c3.06-1.84,8.13-1.48,7.86-6.94-4.79-1.9-10.32-1.11-14.69-5.13-2.33-2.14-5.44-.19-6.11,3.41-1.42,2.95-2.93,3.76-5.41.74-4.7-5.73-11.07-4.56-13.53,2.71-1.16,3.43-2.41,1.86-3.88.78-3-2.19-5.14-3-7.16,1.39-1,2.13-3.64,3.86-5.94,5-4.25,2.09-5.23,3.88,1.09,6.38-6.72,1.08-11.32,2.07-10.89,9.36.24,4-12.24,9.33-16.37,7.56-3.13-1.34-6.47-1.55-9.72-2.23C644.63,769.71,643.12,772.7,646.26,773.37Z" fill="#c99d75"/><path d="M714.38,700.7c-4,1.72-5.41,5.71-8.09,8.59L704.7,713c2.65.94,4.25-1.26,6.35-1.53l.89,0c4.69-3.79,8.84-2,12.84,1.22,1.13.9,1.94,2.16,3.27,2.85,1.75.91,5,1.44,5.18.31,1-5,6.58-4.05,8.46-6.68,2.58-3.61,4.22-2.24,6.89-.91s6.29,4.2,8.43,1.06-.12-6.67-2.71-9.72c-5.55-6.52-11.77-9.23-20-5.12-.92.46-2.21,1-3,.57C723.57,691.21,719.42,697.17,714.38,700.7Z" fill="#ba9777"/><path d="M715.29,736.35c2.74-3.37,5.09-4.17,8.23,0,3.31,4.4,8.63,1.29,12.94,2.24,3,.94,5.49-.6,7.1-2.59,3.52-4.36,8.19-6.58,13.36-8.21,3.33-2.67,2.4-4.84-1.34-5.18a37.63,37.63,0,0,1-17.4-5.75c-3.63-2.3-8.84-1.08-13.26-1.94a1.54,1.54,0,0,0-.87,1.59c2,2.59,6,1.9,8,4.53,1.85,1.45,4.42,1.45,6.23,3,2.28,3.35,1.74,6.16-1.65,8.43-6.27,2.56-11.13.54-15.08-4.43-2.51-1.21-4.48-4-7.88-2.73a1,1,0,0,0-.54.9c0,.35.09.54.19.56,1.09.52,2.88,1.2,2.29,2.36-1.68,3.33-4.85-.16-7.43,1.45C709.68,733.38,710.05,737.47,715.29,736.35Z" fill="#784a23"/><path d="M713.28,726.76a10.47,10.47,0,0,1,.19-1.12c-.49-4.33,1.16-6.65,5.95-6.69,1.81,0,4.29.24,4.93-2.47l-.35-.17c-4.08-6.33-5.88-7-12.94-4.85h0c-1.1,1.12,2.69,5.64-3,3.78-2.35-.76-1.68,2.58-2.45,4-1.59,2.38-1.5,4.28,1.63,5.26A9.49,9.49,0,0,0,713.28,726.76Z" fill="#84603d"/><path d="M707.2,724.53a7.35,7.35,0,0,1-1.63-5.26c-1.75-1.91-3.9-2-6.22-1.32-.58.17-1.69.41-1.68.46a93.83,93.83,0,0,0,2,9.56c.52,1.75,2.44,2.19,4.11,2.09C707.53,729.85,706.3,726.53,707.2,724.53Z" fill="#c69870"/><path d="M875.92,682c.83,3.6.08,7.38,3.16,10.71,1.92,2.08,1.43,5.78.72,8.86-.36,1.56-.82,3.13-.21,4.8,2.59,7-2,12.07-9.74,10.62-1.09-.2-2.17-1.63-3.07.14-.42.82,0,1.5.75,2.06,1,.73,3.61.48,2.45,2.59s-2.87-.25-4.36-.2c-1,3.84,3.21,7,.78,11.48-2,3.7-4.42,4.48-6.54,2.13-6.14-6.83-13.46-3.93-20.58-3.41l-.12-.14c-3.73,3.57-7.54.46-11.13-.21-2.36-.44.3-2.21.37-3.44.12-2,.83-4.58-2.69-3.62-9.13,2.48-9.11,2.57-10.5-6.6a7.3,7.3,0,0,1,.17-1.84c-1.62-1.27-2.87-2.53-1.92-4.93.52-1.32.87-3.23-1.63-3.53l-1.2.06c-5,.38-9.93,0-14.86,1.24-4.75,1.25-8.51-.64-11.12-4.72-3.34-1.88-6.85-1.62-10.41-.84h0a1,1,0,0,0-.15,1.49c1,1.48,3.07,1.68,4.55,3-4.23,1.44-4.2-1.73-5.09-3.84a34.6,34.6,0,0,0-5.14-1.11c-1.88.73-1.67,2.16-1.07,3.53.79,1.79,1,3.49-.08,5.22-1.62,2.48-1,4.38,1.22,6.29,2,1.72,4.82,2.35,6.28,4.71a6.87,6.87,0,0,0,1.65,2.8c2.57,1.25,5.8-2.81,8.05,1a4,4,0,0,0,2,1.5c4,.47,4.85-2,5.47-5.13.88-4.49,5-7,9.61-6.49,1.93.23,2.51,1.18,2.23,2.88-.2,1.21-.72,2.35-.95,3.56-1.43,7.46-.73,8.29,7.19,8.47,1.26,0,2.66-.12,3.67.58,4.74,3.31,9.94,4.62,17,2.69-2.86,2.8-5.83,1.64-7.13,3.89.14,2.69,3.56,1.61,4.31,3.59.13.2.26.38.4.56,3.77-.07,6-3.14,9-4.54,2-.92,4.42-3.08,5.8.82,1.28,8.17,10.56,13.59,18.4,10.62a8.58,8.58,0,0,1,5.38-.67c5,1.24,7.92-1.06,9.15-5.76a7.7,7.7,0,0,1,1.67-3.28c5.21-5.84,5.22-5.84,4-12.25a21.49,21.49,0,0,0,18.9-.82c2.84-1.5,5.2-2.59,7.95-.12,2.52,2.27,2.93,4.41,1.08,7.56-2,3.36.11,5.84,3.69,5.78,5.16-.09,6.24,4.87,9.42,8,3.46,3.41,7,5.78,11,8.75,1.64,1.23,4.08.39,6,1.46-4.54,4.14-4.56,9.08,1.44,12,5.19,2.55,8.92,6.29,13.14,9.71l7.42,1.4,1.75-2.18c-3.26-.47-5-2.1-4.07-5.48,1.23-4.5-1.29-5.94-5.2-6.33-1.34,1.63-2.68,1.44-4.13.09-1.78-1.66-.14-2.34.88-3.22a21,21,0,0,0-6-8.65c-3-2.84-8.11-3.51-8-9.67.07-2.85-3.92-5.5-7.88-5.9-3.64-.38-7.07-1.08-8-5.45-.17-.78-1.43-2-2.11-1.92-3.63.24-3.08-1.08-2.68-4,.63-4.57-1.12-7.69-6.61-9.7-3.7-1.36-5.82-6.78-8.73-10.32-1.92-2.34-3.93-3.67-5,.6-.52,2-1.53,2.78-3.58,2-1.62-.58-3.89,0-4.19-2.72-.46-4.14-1.8-7.93-5.08-10.86a2.57,2.57,0,0,1-.4-2.89C884.94,688,879.38,685.52,875.92,682Z" fill="#b68053"/><path d="M687.33,806.25c-9,2.48-17.59,1.47-26.19-1.82-3-1.14-6.52.83-9.75-.61-1.33-.6-2.18.42-1.55,1.51,1.63,2.81-1.05,3.24-2.19,4.75-3.13,4.16-7.65,5.45-12.36,6.56h0c-6.81,2.38-13.78,1.79-20.76,1.14l-.27,1.25c12,8.17,24,5.73,35.81-.3a61.44,61.44,0,0,1,7.54-2.88c-.11-2.68-3.17-2.45-4-4.25a2.18,2.18,0,0,1,2.82-1.73c3.39,1.08,6.42,5.47,10.3.4.4-.52,3.29,1.46,1.55,3.23-2,2-3.06,4.75-6.93,5.38-5.48.89-10.68,3.49-15.74,6.07,5.71,1.89,10.24-2.3,15.5-2.19l9.3-2.18a8.13,8.13,0,0,1,5.8-1.76c5.86.72,9.09-1.64,9.73-7.41C686.11,809.63,687.84,808.23,687.33,806.25Z" fill="#be8c5d"/><path d="M721.41,678.15c3.47-2.24,6.73,2.55,10.68.2,1.11-.66,3.62-1.15,5.5-1.7,1.55-.47,3.65-1.36,4,1.14.39,3.17,1.69,3.1,4.09,1.94,1.12-.55,1.58.34,2.07,1.46,1.56,3.62,7.45,5.79,10.94,4.24,2.52-1.12,2.87-2.21,2.93-9.28-2.71,1.43-5.37,1.76-8,0,4.6-7.37,9.55-3.35,14.45-.53,2.39-.06,3.1-2.29,4.57-3.45,2.29,2.21-.83,7.61,4.87,7.75,3.07-.77,4.06-4.49,7.35-5,.69-8.65-4.43-12.47-13.35-10L770,666c-5.93-.32-11.82-.82-17.34-3.26-.41-.08-2.61-1.66-3-1.73-3.28,1.29-3.16,2.06-3.56-1.74a10.38,10.38,0,0,0-4.1-7.35c-3.53-3.41-9.24-6.29-11.76-2.07-4.37,7.33-11.91,12-15.45,19.73-.74,1.62.35,2,1.27,2.81C718,674.13,719.63,676.2,721.41,678.15Z" fill="#a57752"/><path d="M742,651.87c1,3.33,2.93,6,3,10.09.06,4.73,3.23.91,5.69-.89-4.33-1.94-4.87-4.18-5-8.48Z" fill="#3e2f1f"/><path d="M687.33,806.25c-1.07,1.67-3.57,2.51-3.4,4.87.5,6.6-3.71,7.22-8.75,6.69-2.41-.25-4.06.42-4.8,2.78,4.31-.5,8.63-1.27,12.65,1.16,6.13-1.18,11.38-5,17.75-5.47,4.37-3,9.13-1.49,13.77-1.14s9.05,2.48,14.17.76c2.88-1,5.45-.53,5.47-4.56,0-1.52,2.06-2.34,3.48-1.78,3.79,1.48,7.5-1.68,11.51.35,2,1,4.16-1.25,4.91-3.69-4.26-3-8.11,1.07-12.32.75-2.51-.19-4.48,0-5.26-2.77-2.69-2.41-5.86.31-8.67-.8a11.87,11.87,0,0,0-1.87-.27c-2.15,0-5.23-1.53-6,1.29s2.62,3.15,4.42,4.3c.08.49-.25.82-.73.57-7.43-3.94-14.73-4.51-22.51-.43-3.19,1.68-6.4-.77-9.15-2.74a4.87,4.87,0,0,0-4.64.12Z" fill="#9f6e43"/><path d="M972.14,780.41c7.87,2.67,16.16.5,24.13,2-3.37-3.57-7.85-5.82-12.48-8.62-5.34-1.51-8.17-2.95-13.28-3.34-4.06-.31-6,1.95-6.56,4.64-.85,3.72,3.11,2.72,5.14,3.49C970.26,779,971.53,779.15,972.14,780.41Z" fill="#956e4f"/><path d="M951,763.91c-1.66,0-4.43-1.25-4.3,1.34.12,2.14,2.63,4,4.87,4.81s3.33-.67,2.68-3A3.83,3.83,0,0,1,951,763.91Z" fill="#ca8c59"/><path d="M614.53,817.79c7,1.59,14.07,3.26,20.76-1.14-9.38,2.87-17.08-1-24.55-5.83C612.53,812.87,614.19,815,614.53,817.79Z" fill="#d8aa7f"/><path d="M859.44,983.18c1.72-4.22.24-7.64-2.72-10.75a28.91,28.91,0,0,1-3-3.77c-.81-1.21,1-3.83-1.56-3.92-2.3-.08-2.4,2.41-3,4.08,2.26,7.91,5.51,15.62,4.76,24.09Z" fill="#c68752"/><path d="M803.16,850.62c-1,5,3.34,9.19,2.34,14.21l.62.13.62.1c3.48-3.37,8.23-1.91,11.39-1,4.25,1.27,9,1.79,10.94-.8a10.42,10.42,0,0,0,.07-11.43,19.58,19.58,0,0,1-3-5.92c-.41-1.53-1.88-3.17.3-4.25a4.23,4.23,0,0,1,4.68.92c3.48,3.16,6.85,6.44,10.2,9.74.85.84,2,1.95,1.23,3.2-.88,1.44-2.16.47-3.25-.06s-2.11-.48-2.46.82c-.19.73-.3,2,.09,2.28a12.3,12.3,0,0,1,4.5,5.68c.48,1,2.14,1.15,2.18-.24.08-2.69,2.86-1.23,3.59-2.65-3.3-1.23-1.89-3-.56-4.74,2.07-2.71,4.69-4.82,1.35-8.93-1.55-1.9,2.19-5.87.2-9.08-.07-.1.45-.65.78-.86.91-.57,2.15.06,1.92.62-2.13,5.25,8.82,2.52,5.11,7.63-2.15,3-.39,4.52.94,5.38,2.12,1.37,2.52-1.1,3.13-2.54.72-1.69,1.36-3.42,2.19-5.06a9,9,0,0,1,1.77-2.25c5,3.14,8.57-1.54,12.86-2,.58-.07,1.6.07,1.75.4,2.5,5.67,8.2,5.17,12.88,5.93.13,1.64-.47,2-1.43,2-1.6.07-4-.4-3.92,1.85s2.73,2.16,4,1.74c3.27-1.1,5.76,3,9.51.6-3.25-2.64-2.11-8-8.78-9.7,5.62-1.67,9.37,3.6,12.78-.45,1.87,2.71-1.53,4-.84,6.2,2.11.2,3.09-.7,3.07-2.69-.06-5,2.78-6.43,7.36-5.67,2.27.37,4.72,1.22,5.3-2.26s-2.24-3.31-4.36-3.83a6.76,6.76,0,0,0-2.47-.42c-10.88,1.52-17.31-6.16-24.27-11.93-3.92-3.26-6-1.37-8.45.63s-.79,3.56,1.08,4.85c1.33.91,3.75,1.25,3.41,3.15-.43,2.39-3.12,1.27-4.77,1.82a10.53,10.53,0,0,1-3,.13c-1.35,2.26,2.39,3,1,5.4-2.57-.77-5.67-1-7.82-2.53-2.42-1.72-5.24-2.49-7.56-4.06-3.64-2.47-6.2-3.71-7.41,2-.48,2.25-2.39,1.94-4,1.29-1.43-.57-2.94-1.41-3.18,1-.22,2.24-1.59,2.14-3.1,1.66a3.07,3.07,0,0,1-2.27-3.86,13.28,13.28,0,0,1,3.38-5.76c3.86-4.4,3.25-7-2.74-9.9,1.15,2.39,2,4.67-1.11,5.46a3.34,3.34,0,0,1-4.2-2.74c-.47-2.81-2.33-4-4.3-5.56s-3.92-3.47-1-6.57c4.68-5,3.68-7.12-3.38-8.47-.38-2.4,2.91-2.87,2.84-5.08-3.57-1.34-6.63-.41-9.36,2a5.88,5.88,0,0,0,.77,1.66c1.64,1.73,5.41,2.31,4.8,5.09-.73,3.29-3.84.43-5.83.94-3.05.79-3.84,3-2.61,9.4-3.94-3.44-9.83-3.59-11-9.43,1.81-2.26,3.76,2.07,5.55-.39.45-1.73-1.18-2.78-1.89-4.18-2.17-4.28-.65-7.79,4.13-9.29.8-.25,2-.3,1.83-1.2-.74-3.75-5.48-5.17-5.85-9.27,0-.22-1.5,0-2,.89-.74,1.31-.65,3.81-2.92,3.24a4.57,4.57,0,0,1-3.07-4.31c.05-3.22-.36-3.87-3.63-2.28-2.07,1-.75-3.58-3.42-3.16-4.63,5.6-4.88,8.46-1.24,13.89,3.68.65,3.42-2.71,4.87-4.78,1.5,5.64-1.22,11.67,2.57,16.67,1.8,1.87.5,2.86-1.14,3.69-2.63,1.33-3.86,3.6-4.77,6.22-1.28,3.66,1.24,12.37,4.35,14.56a2.87,2.87,0,0,0,3.5.24c2.25-1.7,1.7-3.94,1-6.15a11.08,11.08,0,0,1,.5,7.28c-1,4,1.17,6.38,5,7.07,2.46.44,4.48.94,5.08,3.65-.87,1.17-1.93.39-2.87.3-2.4-.25-4.18.51-4.82,2.9s1.26,3.23,2.87,4.2c3.29,2,7.87,2.09,9.74,6.46-1.53-1.3-3-3.76-5-1.64s-4.69,4.92-4,8c.89,3.78,5.1-.22,6.65,2.07-.62.07-1.65-.66-2.73-.41-4.66,1.1-5.52-.71-4.46-4.92,2.21-8.77-3.64-14-10-16.85-1-.44-2.05-.71-2.16.94,1.12,3.61,1.89,7.34,4.43,10.38C804.59,848.76,804.64,849.88,803.16,850.62Z" fill="#e4a569"/><path d="M874.43,742.05c-.78,5.31-3.35,7.25-8.46,4.28-.75-.43-1.42-.91-2.25-.29-3.57,2.7-6.68,4.64-11.56,1.3-3.66-2.5-7.16-4.67-9.06-8.71a2.23,2.23,0,0,1-.38.48c-3.38,2.52-.49,9.18-3.25,9.25-4.33.12-6.3,3.34-10.59,4.23,5.78.49,7.4,2,3.09,6-1.68,1.56-.63,3.5,1.4,4.44,1.72.8,4.48,2.06,2.16,3.54-2,1.3.41,7.77-5.25,4.42-1.33-.79-2.51.25-3.19,1.23-.8,1.16-.26,3,.72,3.2,2.86.55,4.61,5.16,7.3,3.26s6.54-4.49,4.38-9.61c-1.21-2.87-.37-5.8,4.33-4.27a72.9,72.9,0,0,0,10.9,2.69c2.22.36,3.77,1,3.55,3.29s-2.54,1.66-4,1.86-3.46-1.81-4.29.57a5.17,5.17,0,0,0,1.28,5.07c2.5,3,3.13,5.77-.72,8.87s.68,3.72,2.4,4.74c1.34.8,3.76.37,3.88,2.45s-2.27,1.23-3.31,2c-2.15,1.56-2.64,3.52-.51,5.55a1.76,1.76,0,0,0,1.13.49c3.13-.1-.21,7.11,4.39,4.22,3.44-2.16,3-6.44,1.48-10.15a12.36,12.36,0,0,1-.41-2.08c3.74-.12,3.61,4.1,6,4.68,4.34,1,2.46,3.4,1.91,5.89s1.67,3.74,3.68,4.17c3.58.78,6-1.23,7.53-4.16.82-1.61.63-2.61-1.7-4-4.92-2.94-9.53-6.89-7.92-14,.75-.58,1.54.59,2.47.68,2.61.25,5.63-.25,6.39-2.7.64-2.08-1.52-4-3.68-5.1-1.35-.68-3.87-.54-3-2.92.59-1.61,2.53-.73,3.94-.83,2.85-.2,5.5.17,7.66,2.13,1.72-2.52-1.51-3.55-.8-5.43,1.48-2.85,4.73,4.66,5.86-1,.81-4.09-1.91-4.65-4.86-5.65-5.16-1.74-6.08-7.22-9.92-10.79,3.47-1,7.44,2.66,9.26-2,.35-.87,1.45-1.65.75-2.77-2.67-4.32-2.68-4.32,1.2-6.64C881.42,741.13,878.71,737.51,874.43,742.05Z" fill="#dda067"/><path d="M786.32,726.81l-1-1.5c-3.48,1.38-6.28,4-10.06,5-1.22.32-1.83,2.91-1.28,4.43,1.84,5.12-1.46,6.39-5.35,7.35-4.41,1.47-9.21-.7-13.56,1.39-2.55,1.23-.63-.79-.63-1,.1-2.47-1.36-4.85-3.46-3.65-4.53,2.58-10.46,2.86-13.66,7.64.13.65,1.61,1.3.57,1.86-3.47,1.88-8.56,0-11.4-4a13.37,13.37,0,0,0-2.41-1.76c-1.74-.77-2.89-3.41-5.4-1.9-2.93,1.76-.47,4-.43,6,1.89,5.35,6.45,8.48,10.45,12.08l.87-.11c10.75.17,21.11-1.31,30.49-7a11.11,11.11,0,0,1,10.74-.8,1.06,1.06,0,0,1,.53,1.54,13.8,13.8,0,0,1-9.28,5.66c-2.21.4-4.73,0-5.83,2.68,3.41,3.64-2.92,4-2.37,6.62a10.91,10.91,0,0,0,3.82,3.51c9.15-1.24,18.26.3,27.39.42,4.53.06,7.36-2.48,10.29-5.15,1.87-2,5.11-2.38,6.67-4.2,7.31-8.5,17.65-13,26.27-19.65l-.09-.32c-4.29-3.12-8.52-.78-12.5.52-6.21,2.05-12.71,2.17-19.41,4.32,4.43-8.48,4.42-8.43,13-6.09,1.89.51,4.09,1.58,5.64-.81-.46-3.82-3-5.39-6.58-6.17-6.64-1.43-13.6-1.64-19.74-5A6,6,0,0,1,786.32,726.81Z" fill="#b7865a"/><path d="M901.63,766.81c-2.54,2.37-2,5.3-2.82,7.77a4.55,4.55,0,0,1-3.43,3.3c-3.08.44-.94-1.78-1.27-2.79-.16-.48-1-1.22-1.14-1.15a4.1,4.1,0,0,0-1.78,1.54c-.77,1.78.74,3,1.37,4.5,1,2.45,1.93,4.73-.83,7.12-3.7,3.2-1.91,5.3,2.15,6.33a23,23,0,0,1,3.63,1c1.18.51,2.12,1.48,1.52,2.92-.48,1.15-1.51.82-2.59.87-4.42.18-8.3,1.54-9.76,6.23a4.07,4.07,0,0,0,1.88,4.85c2.52,1.45,2.47-1.41,3.32-2.45,2.09-2.59,7.84-3,9.37.05,1.33,2.69,6.67,5.15,1.67,9.59-1.34,1.19,1.44,5.16,3.18,5.07,8.55-.44,16.79,2.47,25.3,1.81,2.33-.18,5.58-.57,5.11-3.13s-3.63-2-5.82-1.07c-1.63.66-3.2,1.15-4.72,0-.86-.65-.48-1.55.18-2.08,1.59-1.29,3.13-3,5.48-2.5,1.94.39,3.44,2.56,6.62,1.08-5.64-2.24-3.36-7.84-6.11-11.52,2-1.38,4.07.34,6.37-.28-.85-3.7-4.46-5.1-6.77-9.11-.46,3.15.87,7.49-3.84,4.25-2.4-1.66-3.54.19-4.35,2.48-.49,1.38-1.44,3.28-3.69,2.3-1.09-.48-2.57-.75-2.83-2.17-.32-1.69,1.34-2.36,2.15-3.49,2.44-3.42,7.13-1.7,10-4-.74-2.88-4.79-1.26-5-4.24-.14-1.73-.64-3.38-2.75-3.56-3-.25-.13,3.58-2.72,3.82-2.79-1.45-1.46-3.83-1.22-5.94.27-2.28-.48-4.3-2.58-5.1-1.87-.7-3.59.24-4.64,2.15-1.48,2.69-5.85,1.88-6.88,5.5-.26.94-2-.15-2.18-1.11-.44-2-.68-4.11,1.82-5.22,7.8-3.47,7.9-4,.69-9.08C902,770.06,903.39,768.11,901.63,766.81Z" fill="#f6bc81"/><path d="M874.43,742.05c4-3.26,6.45,1.94,9.88,1.81a9.41,9.41,0,0,1,.52-2.4c1.38-2.72-.91-7.13,4.62-8,6.1-1,9.24,2,10.92,6.81,2.49,7.16,8.57,12.42,10.53,19.8,4.67-1.81,5.51,8.63,12.23,3.15,3.41-2.79,9.68,2.71,9.81,7.78.17,7.36.16,7.32,7.53,5.31,2.66-.72,3.53,1.84,5,3,3,2.35,5.7,4.55,8.81.3-2.31-4.88-4.72-9.61-11.33-9.8a2.51,2.51,0,0,1-2.5-2.39c.25-3.05,0-4.42-3.26-5.1a19.41,19.41,0,0,0,4.13-2.21,3.57,3.57,0,0,0,1.49-2.46,2.05,2.05,0,0,0-2.63-1.95c-8.64,1.71-9.21-4.64-10.58-10.08-1.49-1.25-7.65,7.47-5.4-2.54.32-1.45-4.79-7-10.11-4.77-1.73.73-2.73.2-3.72-1.12-1.25-1.67-.27-2.55,1-3.48,4.73-3.35.54-5.59-1.23-7.9-2.17-2.85-5.6-5.11-8.44-2-4.36,4.74-9.94,2.54-14.85,3.71-3,.72-4.52-1.78-4.22-5.28-2.94,1.58-2.67,3.66-2.36,5.59.63,4,2,8-3.56,10C875.63,738.28,875.2,740.6,874.43,742.05Z" fill="#ca8c59"/><path d="M795.31,766.2c-6.82,5-14.82,3.54-22.23,3.06-5.48-.36-10.65-.84-15.83,1.1-1-.6-1.63-.08-2.26.58-1.42,4.1-3.57,7.46-8.52,7.95a6.12,6.12,0,0,0-3.43,2.74,1.91,1.91,0,0,0,.38,1.64c3.33,1.4,6.57-.18,9.79-.5,5.65-.57,10.31.23,13.28,5.55.79,1.41,2.29,2.32,4.25,4.25-9.17-.56-16.91,4.23-25.58,2.38-1.66-.36-2.71.74-2.81,2.49.4,2.06,1.81,3.08,3.78,3.51,7.32-1,14.46-4,22.11-1.09,2.51,1,4.23-1.78,5.33-3.53,1.91-3.05,4.79-5.12,7-7.79,1.3-1.55,3.07-2.62,4.91-2,2.28.78.12,2.39.08,3.63-.05,1.64,1.28,1.9,2.35,2.49,1.84,1,2-.4,2.53-1.52.69-1.57,1.58-1.78,2.58-.22,1.17,1.2,2.65,1.63,3.85.42s.64-2.64-.71-3.65c-4-4.64-1.43-9.2.14-13.78-2.26.45-4.14,2.55-7.19,1.59C790.39,771.7,794.36,769.84,795.31,766.2Z" fill="#cc986b"/><path d="M956.39,800.84c1.82-.06,1.77-1.68,2.52-2.56,1.2-1.4,1.64-3.14.13-4.42s-3.32-2.9-5.52-2.43c-12.78,2.73-17-8.46-24.48-14.32-.44-.34-.47-1.14-.83-1.64-1-1.31-1.92-3.23-3.87-2-1.56,1-.56,3,.22,3.83,4,4,8.21,8,12.59,11.62,4.19,3.51,8.71,6.48,14.62,6.75C954.75,795.81,953.88,800,956.39,800.84Z" fill="#c78e5d"/><path d="M821.49,796.21l9.36-2c1.46-4.06,2.23-8.07-1.06-12.09.47,4.82-.75,7.95-6.11,8.79C821.39,791.26,822.14,794.36,821.49,796.21Z" fill="#dda067"/><path d="M855.64,857.91l-4.54,1.84c4,.32,6.53,4,9.52,1.14,1.91-1.86-.48-3.06-2.29-3.74C857.08,856.22,856.37,857.08,855.64,857.91Z" fill="#dc9d63"/><path d="M869.15,890.78c-3.16,1-6,.25-7.48,3-.49.93.27,2.53,1.22,2.31A7.77,7.77,0,0,0,869.15,890.78Z" fill="#dc9d63"/><path d="M875.38,826.69c-3.26-.83-4.8.28-5.86,2.17-.14.25.41,1.25.77,1.33C872.9,830.71,873.55,828.38,875.38,826.69Z" fill="#e4a569"/><path d="M855.64,857.91l2.69-.76c-1-2.12-1.63-4.7-5-4.13C852.92,855.37,855.66,856,855.64,857.91Z" fill="#e4a569"/><path d="M798.73,662.31c-.14,2-.83,4.2-.24,6,.49,1.52.36,4.74,3.49,4,2.09-.49,3.72-2.07,3-4.59-.56-2.06.47-3.43,1.51-5,.79-1.21,4.06.22,2.9-2.63-.66-1.64-2.22-2.27-4-2.6-2.09-.39-3.05.5-3.65,2.34-.21.65-1.08,1.09-1.65,1.63Z" fill="#c79064"/><path d="M815.35,683.23c.54.28,1.58.69,1.54.82-1.18,4.28-2.33,8.25,5,6.11,1.06-.31,1.48,2.23,1.45,3.61-.05,2.27-.08,4.47,1.53,6.33,3.46-4.42,6.62-8.78,4.39-15-1-2.87-.43-6.12.62-9.07,1.77-4.94,3.39-5.39,7.91-2.4,2-1.11,2.65-3.93,1.66-4.69-6-4.66-1.51-9.77-.44-14.19s-1.8-4.45-4.09-5.65c-4,2.39-7.62,5.2-9.51,9.62-.16.37-.49,1-.6,1-10.53-2.41-3.72,9.18-9.28,11.14-1.45.51-.33,3.3.51,5C817.28,678.44,817.62,681,815.35,683.23Z" fill="#8f5b36"/><path d="M785.33,705.22c-.39,8.64,7.14,5.57,10.22,5.13,5-.72,10.29-.82,15.08-2.86-1.77-.8-4.91.16-5.21-2.27s3.34-2.47,4.72-4.06c-4.22-5.13-8.42-5.39-13.12-1.12-1.28,1.16-3.29,2.7-4.85.63-1.34-1.79-.1-3.64,1.63-4.62,3-1.69,3.33-4.49,3.81-7.32-2-1-1.5-4.17-4.21-4.51-1,.31-2.16.58-1.79,2.07-2.64,2.85-7.37,1.29-9.85,4.48-1.57,1.3-1.92,3.28-.19,4,4.26,1.83,4.91,4.17,2.49,7.89C783.47,703.58,784.66,704.48,785.33,705.22Z" fill="#88522a"/><path d="M791.61,686.29l1.79-2.07-2-3c-.85,1.45-3.73.07-3.73,2.23S789.83,686,791.61,686.29Z" fill="#926846"/><path d="M761.8,812.69c-7.6,1.34-15.45,1.48-22.69,4.54C747,817.35,754.86,817.15,761.8,812.69Z" fill="#5c3413"/><path d="M793.68,892.76,787,900.35c-2.49,4.27,3.69,7.37,1.61,11.58,1.81,2.83,4.25,5.16,5.06,8.74s4.72,1,6.88,2.28c.53-4-.44-6.4-5.05-8-3.17-1.08-3.48-15.87-.66-19C797.13,893.52,796.08,893.14,793.68,892.76Z" fill="#ca8e5a"/><path d="M815.78,890.57c1-3.47,1.17-7,4-10.06,2.33-2.45,1.61-5.67-1.83-8-.71,11.4-12.53,17.79-12.92,29.15,2.66,1,2.26-2.13,3.88-2.28C815.74,899.79,814.62,894.33,815.78,890.57Z" fill="#bf8651"/><path d="M815.78,890.57c-1.34,0-2.76.24-2.26,2,1.17,4.08-1.63,5.44-4.57,6.78-.51,1.63,0,3.8-2.36,4.49-.93.27-2.43.34-1.67,1.72a5.91,5.91,0,0,0,2.82,2.13c1.09.47,1.94-.22,2.37-1.3a20.54,20.54,0,0,1,1.58-3.9c2.35-3.6,5.06-5.45,8.45-1h0C819.82,897.44,820.48,893,815.78,890.57Z" fill="#e8aa6e"/><path d="M822.71,892.4c-1.44,1.74-1.83,3.34-.21,4.9.2.19,1.46-.18,1.48-.36C824.14,895.34,824.89,893.48,822.71,892.4Z" fill="#e8aa6e"/><path d="M799.28,837.32c11.51,5.26,11.68,5.52,9.9,17.48-.37,2.46.77,4.27,2.93,4.7,3.23.64,6.61.56,9.92.82.93.07,1.79-.18,1.9-1.1.14-1.12-.67-2.37-1.71-2.08-3.09.86-6-2.39-8.91.61-.93-3.26,1.56-4.26,2.28-6,.42-1.06.31-2.81,1.92-2.8,2,0,1.91,1.76,2.11,3.17.17,1.25.49,2.76,2.17,2.13a2.27,2.27,0,0,0,1.06-3.62c-2.28-2.83-3.12-7.41-8.38-6.94-.89.08-1.88-.76-2.79-1.23-1.27-.66-3-1.17-2.19-3.09s2.19-2.28,4-1.16,3.47,1.55,5.24.17c.76-.6.82-1.9.09-2-3.28-.64-.76-6.52-5.24-5.61-6,1.21-7.27-.59-5.71-6.34.72-2.63-.92-6-1.77-8.88-.29-1-1.23-2.51-2.74-1.7s-.84,2.13-.24,3.26c.75,1.43,2.08,2.69,1.71,4.49a3.77,3.77,0,0,1-1.12,2.06c-.66.54-2,.38-2.1-.41-.29-4.6-7.71-7.06-3.6-13.25,1.61-2.43,2.16-5.26,5.6-5.7a2.53,2.53,0,0,0,2.52-2.89c-.07-2-1.82-1.93-3.18-2.31-3.29,1.52-5.47-2.63-8.67-1.63-.29.74-1,2-1.44,1.58-4.85-5.3-7.43-1.45-10.17,2.21-.83,1.12-2.43,1.7-2.4,3.62,1.72.61,6.35-.83,3.28,3.84a2.26,2.26,0,0,0,.43,2.16c1,.94,1.83-.12,2.76-.47,1.23-.45,2-3.66,3.76-1,1,1.56,2.54,3.29.83,5.59a13.76,13.76,0,0,0-2,5c-.73,3-.13,5.09,2.78,5.71,4.77,1,4,3.09,1.69,5.86a5.47,5.47,0,0,0-1.34,2c-.32,1.46-2.81,2.64-1,4.27,1.29,1.19,2.76.19,3.81-.92C796.82,835.41,798,837.33,799.28,837.32Z" fill="#cc986b"/><path d="M794.31,797.4c2.92.39,4.44,7.9,8.67,1.63a23.61,23.61,0,0,1-.65-12.56c.68-3.13-.78-5.68-2.67-5.91-3.53-.42-1,3-1.84,4.56-.47.89-1.08,1.72-1.62,2.58,1.15,3.12-.14,4-3.14,3.23C792.22,793.32,795,795,794.31,797.4Z" fill="#eaad72"/><path d="M746.13,801l-3.25-3.14c-2.57-2.32-5.55-1.26-8.23-.59-2.52.62-4.43.27-6.19-1.46-5.64,1.54-5.87,3.54-1.08,9.2,3.22,1.73,6-1,9.13-.76C739.48,802.45,743.37,803.29,746.13,801Z" fill="#be8c5d"/><path d="M839.28,731.74c1.78.1,2.86,1.85,5.16,1.32,4.47-1,8.55-2.57,12.93,2.53,4.61,5.36,6.64,2.78,10.43-2.75,4-5.82-1.77-7.59-2.18-11.3-5.45-2.59-2.2-8.75-5.27-12.32-2.93,7.78-7.67,14.06-15.22,18.17A51,51,0,0,0,839.28,731.74Z" fill="#84532e"/><path d="M837.79,673.65c-1.08-1.82-1.14-5.3-3.55-5-3.91.47-4.79,4.66-6.44,7.57a7,7,0,0,0-.36,4.75c1.78,6.77-.25,12.95-2.57,19.14,1.65,3.89.86,8,1.25,12.06.17,1.74.09,3.65,2.14,3.86s1.77-2.11,2.08-3.22c2.07-7.27,4-14.56,9.52-20.26a2,2,0,0,0,.3-2.78c-.78-.94-1.85-.79-2.85-.35-1.57.69-3.18,1.56-4.29-.57-.84-1.62-.66-3.79.5-4.63,3.38-2.44,7.49-4.24,3.17-9.16C836.61,675,837.41,674.13,837.79,673.65Z" fill="#a36b3f"/><path d="M811.83,707.43a2.48,2.48,0,0,1,.41,3.31c-2.38,3.75.25,4.51,3.14,5.15-1-2.28-.06-4.66-.34-7C814.81,707,814.28,705.05,811.83,707.43Z" fill="#88522a"/><path d="M768.64,712.14c4.29-3.38-.94-5.92-.83-8.93-.47-1.41-1.28-2.68-1.81-4.07-2.76-.53-3.87-4.58-7.63-3.23-1.24.45-.89-.83-.68-1.62.89-3.24-.5-3.64-2.69-1.72-2,1.75-3.73,1.62-5.62.27-7-5-15.31-3.06-22.73-3-5,0-8.9,6.29-12.27,10.83a45.87,45.87,0,0,1,6-3.18c2.85-1,5.6-4.91,9-.52.72,1,2.38.07,3.48-.55,4.12-2.32,8.78-1.75,13.21-2.43,1.07-.17,1.44.24,1.82,1.08,2,4.41,8.64,5.9,8,12.08,0,.35,1.49,1,.46,1.71a2.79,2.79,0,0,1-2.34.31c-3-1.46-5.76-3.28-8.77-4.64-1.68-.75-4.69-3.18-3.84,2,.55,3.27-1.45,3.6-4.21,2.45-2.25-.93-4.51.44-5.61,1.83-1.47,1.86,2.2,1.78,2.43,3.69-3.14,1.24-5,.53-7.27-2.29-4.67-5.84-10.45-5.83-15.71-.74,5.4-1.15,9.13,1.95,12.94,4.85,6.22-.42,11.91-.15,17.08,4.54,3.62,3.28,9.08,3.37,14.11,3.08,1-.06,2.32-.36,2.56,1,.31,1.62-1.77,1.35-2.39,2.32.45.74,1.19,1.53,1.95,1.29,4.9-1.55,9.84.18,14.74-.33,1.85-.6,3.6-1.32,4.34-3.31a2.41,2.41,0,0,0-.77-2.59c-2.25-2.48-5.58-2.2-8.42-3.18-1.6-.55-4.21.19-4.46-2.23-.18-1.71,2-2.4,3.11-3.48C766.61,712.66,767.75,712.65,768.64,712.14Z" fill="#a97a52"/><path d="M785.33,705.22c-.16-1.32-1.05-2.74.55-3.81,6.1-4.1.42-6.28-2-6.89-3-.78-2.34-2-2.16-3.75-5.87-.2-6.07,4.47-5.45,7.74.53,2.74-.38,3.53-2.07,4.66Z" fill="#926846"/><path d="M777.5,679.92c-3.82-2.93-2-7.45-3.42-11.63-3,1.86-3.78,5.21-6,7.33C769.41,680.85,772.38,682.65,777.5,679.92Z" fill="#926846"/><path d="M766,699.14c-.32,1.75-.64,3.5,1.81,4.07l6.18,1.16h0c.08-.4.16-.8.25-1.19C770.88,703,768.49,701,766,699.14Z" fill="#926846"/><path d="M743.3,782.88l.21-1.2c-2.51-3-2.67-5.62.84-8,1.43-1,3.28-1.86,2.89-4.15-2.8-3-6.32.83-9.64-1,1.92-3.41,5.36-2.56,8.13-3.36,1.57-.45,5.49.49,3.2-3.56-6.68-1-13.24-2.62-20-3l-.27.24c.94,3-2.51,7.08-6.76,7.21-7.91.25-12.95,5-18.44,9.72-8.13,7-16.56,13.87-25.83,19.49-4.4,2.67-8.64.73-10.34-4.54a4.72,4.72,0,0,0-4.54-3.49c-3.6,0-3.09,3.87-4.54,5.91s.85,2.63,2.23,3.54c9,6,17.47,2.7,26.28-.86,9-3.65,18.15-6.73,25.2-13.87,1.77-1.8,4.82-2.35,7.2-3.62s4.7.16,4.58,1.51c-.35,3.84,2.76,8.68-2.65,11.4,2.91,2.41,7.91,1.74,9.42,6.19,2.33,1.19,4.82.69,4.57-1.85-.4-4.18,2.3-5,5-6.59C742.25,787.7,743.8,785.72,743.3,782.88Z" fill="#be8c5d"/><path d="M730.27,796.69c.23-7.14-5.41-4.83-9.22-5.48l-3.14,3.27c-5.48,6.35-12.3,10-20.92,10.27a6,6,0,0,0-4.75,2.49c2.85,4.59,6.92,4.51,11.29,2.66,5.48-2.32,10.59-5.27,16.2.53,1.17,1.21,6.6,2.77,8.85-1.69-2-2.68-6.38-.75-8-4.17,2.54-1.1,4.63.33,6.81.39a41.92,41.92,0,0,0-1.53-4.42c-1.65-3.53.25-4.15,3.24-4A.78.78,0,0,0,730.27,796.69Z" fill="#b68357"/><path d="M694,766c-3.71-2.83-5.14-.3-7,2.48-2.64,3.93-5.29,8.37-11.48,6.64l-2.69.76c-1.43,4-2.72,8.09,3.34,9.3,5,1,9.47.52,10.76-5.57.44-2,2.41-2.87,3.81-3.8C694.54,773.29,695.32,770.09,694,766Z" fill="#bf8e60"/><path d="M692.24,807.24c6.92-.76,13.77-1.72,19.77-5.6,2.75-1.78,5.76-3.33,5.9-7.16-1.65-.35-3.91-.91-4.57.76-2.76,6.91-8.17,4.85-13.52,4.78-4.86-.06-10.76-.47-12.49,6.22Z" fill="#be8c5d"/><path d="M772.19,726.69c-5.63-.54-11.26-.76-16.83.51-4.93.62-9.06,2.28-11.71,6.88-1.45,2.53-4.56,3.34-7.19,4.52-2.18,3-6.44,3.2-8.79,6,2.79,3.08,6,3.73,9.78,1.78,3.29-2.5,8-1.85,11.12-5,.89-.89,2.46-2.87,4.2-1.1s-.16,2.81-1.25,4c-.72.76-1.21,1.66,0,3.51,4.57-6.35,11.56-2.37,17.35-4.27,4.68-3.74,3.57-9.67,5.6-14.42C775,727.68,773,727.48,772.19,726.69Z" fill="#ddaf85"/><path d="M737.45,746.4l-9.78-1.78a2.33,2.33,0,0,1-1.22-.24c-4,.54-2.85,2.61-.62,3.5,5,2,10.13,5.34,15.62.2C740.66,746.48,738.76,747,737.45,746.4Z" fill="#8a5b33"/><path d="M724.35,716.48c-2.09,1.08-4.38,1-6.64,1.17-6.64.56-7.78,2.74-4.24,8,2.87-.4,4.46,2.8,7.29,2.49a3.1,3.1,0,0,0,.78-1.43c1.27-3.51,4.14-4.81,7.59-5.31a4.28,4.28,0,0,0,3.22-1.08C731.47,715.45,727,717.85,724.35,716.48Z" fill="#5b3515"/><path d="M720.78,727.08a2.85,2.85,0,0,1,0,1c3.9,7.17,7.75,8.49,16.64,5.71,2.06-2.7-.35-3.41-2.09-4.19-2-.89-4.33-1-6.08-2.46-1.51-1.07-2.92-2.39-4.75-2.81C722.33,723.88,720.07,723.64,720.78,727.08Z" fill="#daa155"/><path d="M728.19,728.53c1.21,2.15,3.53,1.79,5.46,2.26s3.89.4,3.75,3.05c4.68-2.8,5.27-6.46,2.37-10.85-1.91.37-3.93.29-5.69,1.3C734.67,729.11,729.88,726.76,728.19,728.53Z" fill="#a97a52"/><path d="M734,724.71c2.07-.08,4.65,1.49,5.73-1.72-1.84-2.58-5-1.65-7.42-2.68l-3.58-.46C727.4,724.73,730.53,724.92,734,724.71Z" fill="#e9bd84"/><path d="M786.32,726.81c.28,5.48,5.56,5.12,8.73,6.25,4.56,1.64,9.74,1.63,14.66,2.29,2.67.35,2.9,3.28,4.9,4.33,3.33,2.73,6.26,1.28,9.12-.84,3.28-1.06,7-.79,9.89-3.36-.63-2.07-3-1.94-4-1.65-8.73,2.59-15.25-7.18-24.06-4a1.59,1.59,0,0,1-1.89-2.27c.71-1.62.31-3.2.52-4.78.41-3.15,5-7.54-1.27-8.77-7.16-1.4-12.37,2.86-12.45,8.83C790.43,725.91,789.16,727,786.32,726.81Z" fill="#ce9d6f"/><path d="M823.73,738.84c-3.11-.49-6,1.82-9.12.84-3,.92-5.31-.56-8-1.62-3.44-1.38-7.74-3.31-9,2.82a4.59,4.59,0,0,1-.67,1.7c-1.19,1.63-5.35,1.93-3.53,4.67,1.66,2.48,4.94.33,7.51.14,9.3-.67,17.68-5.84,27.22-5.36C829.27,737.53,825,740.2,823.73,738.84Z" fill="#98663b"/><path d="M772.19,726.69c1,6-2,11.29-3.36,16.85,4.73.89,5.73-4.49,9.85-5.4-.81-2.07-4.92-2-3-5.94,1.79-3.62,3.71-1.25,5.49-1.31,2-.07,3.55-.08,2.32-2.59-1-2,.28-2.52,1.78-3-2.62-6.47-5.93-.15-8.89-.46Z" fill="#ce9d6f"/><path d="M768.64,712.14c-1.9-.41-3.8-.47-5.26,1s-4.32,2.85-4,5c.32,2.34,3.4,1.6,5.28,2,3.62.86,7.31,1.44,11,2.14,1.78-2.52-.78-2.06-1.85-3C771.54,717.36,765.74,717.62,768.64,712.14Z" fill="#ce9d6f"/><path d="M783,713.31c-3.21-.21-6.33-.83-9,1.32a1.47,1.47,0,0,0-.33,2.16c2.53,2.7,5.93,2.58,9.17,2.21,1.73-.2,4.95,1.2,4.87-2C787.66,714.93,785.38,713.54,783,713.31Z" fill="#6a3b18"/><path d="M774,704.37c-1.09,1.64-3.26,4.3-1.35,5.07a19.6,19.6,0,0,0,7.38.83c1.23,0,1.1-3.36-.77-4.4-1.54-.87-3.49-1-5.26-1.5Z" fill="#ce9d6f"/><path d="M728.93,758.57c6.44,3.84,13.67,3.77,20.83,4.09,2.54,1.23,5,2,6.79-1.13,2.74-3.94,7.92-.26,11.31-3.72,2.32-2.37,5.91-3.77,6.41-7.4.2-1.45-9.79-2.74-12.32-1.59-.18.09-.35.21-.53.32-9.28,5.72-19.25,8.78-30.34,7.64C729.82,756.65,729.24,757.5,728.93,758.57Z" fill="#95643c"/><path d="M756.55,761.53l-6.79,1.13c-3,1.9-6.48.89-9.69,1.54s-5.25,2.93-4.7,5.48c.68,3.17,3.91,1.14,5.84.84s3.85-1.55,6-.62c3.25,1.64,5.64,1.05,6.88-2.54a37,37,0,0,0,3.57-2.08c1-.73,3.36-.51,2.68-2.43C759.86,761.49,757.91,761.79,756.55,761.53Z" fill="#d2a57a"/><path d="M754.09,767.36a9.85,9.85,0,0,1-6.88,2.53c-1.53,1-3.11,1.86-4.58,2.91-4.64,3.34-4.3,6.65.88,8.88l3-2c4.13-1.64,6.72-5,9.29-8.28l1.46-1C757.64,767.91,755.92,767.58,754.09,767.36Z" fill="#926138"/><path d="M784.41,754.17c4.14.64,7.05-.65,7.93-3.43.3-1-1.58-6.07-1.92-5.59-2.35,3.35-7.58-4.2-8.29,2.26C781.83,750.16,779.84,753.92,784.41,754.17Z" fill="#d8a577"/><path d="M730.27,796.69a9.52,9.52,0,0,1-1.18-.15c-1.8,4.71,2.72,3,3.6,2.65,3.35-1.31,6.79-1,10.19-1.38.7-2.11,2-2.51,3.79-1.2,3.61,2.62,6.67,1,9.64-1.19.32-.24.67-.95.73-.92,5,2.6,10.17-.73,15-.57-3.08-10.31-12.88-15.23-25.1-11.89-1.19.33-2.4.56-3.6.84-2.22,2.69-3.28,6.45-8.21,6.23-2.93-.13-2.59,2.31-1.61,4.45C735.13,797.17,732.93,797.2,730.27,796.69Z" fill="#ddae81"/><path d="M755.79,771.4a28.74,28.74,0,0,0-9.29,8.28C752.83,780.4,755.1,776.75,755.79,771.4Z" fill="#be8c5d"/><path d="M734,724.71c-1.76-1.62-5.75-.91-5.27-4.86-3.67,1.35-8.64,1.31-8,7.23,3.49-4.54,5,.63,7.41,1.44a35.84,35.84,0,0,0,3.66.72c1.56.15,3.56,1.5,4.6-.2C737.81,726.82,734.7,726.27,734,724.71Z" fill="#784a23"/><path d="M978.24,874.38,981.06,860a3.87,3.87,0,0,1,1.42,2.58c-.25,1.79-1.64,3.7-1.49,7.46.13,3.16.84,5.92.21,9.76a73.15,73.15,0,0,0-4,6.77c-1.45-6.23-3-11-3.24-16.1C976.05,869.13,976.05,869.13,978.24,874.38Z" fill="#eabe92"/><path d="M986,882.59c.27-4.77-.23-12.89-.46-21.88a112.35,112.35,0,0,0-1.61,12.4c.79,7.88-4.38,15.19-1.6,24.4a13.4,13.4,0,0,0,3.29-8.88q.12-3,.38-6Z" fill="#eabe92"/><path d="M986.15,837.63s0,.12,0,.33c.05.71.09,1.41.11,2.12s.08,1.42.13,2.26c.07.69.16,1.76.22,3.2.5,6.78,1.4,15.6,2.78,16.55h0c1.22-5.12,2.69-10.19,4.33-15.24,2.17-6.65,1.36-13.76,1.38-20.69-3.33.17-5-2.46-7.38-4-2.61-1.74-3.65-1.09-3.82,2a93,93,0,0,1,2.23,13.52Z" fill="#eabe92"/><path d="M827.29,623c-3.62-6.27-2.7-13.35-4.43-20-.74-.77-.86-2-2.21-2.33a3.75,3.75,0,0,0-3,1c-1.73,1.36-2.53,2.49.34,3.76,3.66,1.63,4,4,.65,5.46-2.89,1.29-3.32,3.28-3.41,5.56-.09,2.43-.6,3.87-3.83,3.19-2.67-.56-4.51.78-5.76,2.87-2.9,4.83-7.08,7.09-13.31,5.64a5.93,5.93,0,0,0-6.68,3.12c-2.2,4.07-5.47,7.72-6.09,12.49-.19,1.45-.51,2.82.09,4.24,1.33,3.15.79,6.19-.42,9.26-.41,1-2.27,2.09-.47,3.37a3.81,3.81,0,0,0,4,.52c-2.1.83-4.92.12-7.75-.4a4.79,4.79,0,0,0-2.13,0,1.62,1.62,0,0,0-1.15,2.16,6.22,6.22,0,0,0,3,1.78,9.05,9.05,0,0,0,2.71.71c3.95.2,6.49,1.72,6.9,5.58a3,3,0,0,0,1.54,2.1c8.33,2.31,14.78-1.94,18.48-7.86a15.49,15.49,0,0,1,10.84-7.5c3.75-.67,5.27-2.61,5.52-5.93a56.29,56.29,0,0,0-.18-10.92,6.86,6.86,0,0,0,3.3,4.06,4.53,4.53,0,0,0,4.07.38c1.52-.72.89-1.9.56-3-.76-2.58,1.12-4.85.88-7.55C829,630.72,827.64,626.92,827.29,623Z" fill="#4c3422"/><path d="M869.39,464l-.78-.22c-6.63-5.18-14.7-4.58-22.55-4.88.26,4.66-1.41,8.58-4.82,12.11-3.23,3.35-2.83,4.47,2,4.84,10,.77,19.47,4.3,29.54,4.6,2.63.07,4.21,2.59,6.86,2.72,3.7-1.27,7.08-3.28,11.33-.34,1.9,1.31,5.67-2.55,4.68-5.3-1.18-3.27.69-3.07,2.92-2.83,4.07.44,8.15.17,12.27.54-2.6.73-1.42,2.65-1.69,4.25-.33,2,1.81,4.79-1.94,5.8-1.6.59-3.28,1.11-3.48,3,2.91,2.52,6.36,1.1,9.4.76,4.06-.46,8.05-1.14,12.17-.92,5.39.29,10.58-.1,15.22-3.06,1.37-.87,3.67-1,3.77-2.8s-2.21-1.76-3.4-2.6a18.49,18.49,0,0,1-12.71-3.25c-3.8-2.47-8.54-2.67-12.67-4.35h0c-10-6.9-21.76-4.88-32.95-5.8l-1.75-.1C877.06,465.33,872.93,466,869.39,464Z" fill="#725947"/><path d="M940.71,480c-.14,1.95,2.11,1.34,3.06,2.39a37.75,37.75,0,0,1-23.16,4.41c-4.32-.51-9,1.7-13.66,1.67-1.1,0-2.15.47-2.93-.61s-2.2-1-3.43-.81c-2.43.27-5.4.06-6.25,2.71-.8,2.47,1.76,3.67,3.46,5.06.93.75,2,1.41,3,2.07,4.34,2.15,8.82,3.76,13.89,3a1.85,1.85,0,0,1,.93,0c8.76,3.66,16.21-1.47,24.22-2.82,1.63-.28,3.48-1.27,3.74,1.42.08,1.56.93,2.15,2.43,1.32,2-1.13,3.08-2.78,2.43-5.32,4.82.09,9.74,1.79,14.19-1.61,1.38-1.05,4,.75,6.29.79-.34,2.34-4.49,1.54-3.73,4.36,3.15-.76,6.46-1.1,9.19-2.92,3.51-2.34,3.49-3.73,0-6.21-1.24-.87-2.46-1.77-3.69-2.65a32.35,32.35,0,0,0-11.05-3,19.09,19.09,0,0,1-5.83-1.58,3,3,0,0,1-.77-.21C949,480,945.1,478.19,940.71,480Z" fill="#614c37"/><path d="M827.29,623c-1.31,4.41,2.47,8.56.9,13-.39,1.1.57,2.36-1.06,3.4-2.94,1.87.39,3.3,1.18,5.19-3.53.29-5.84-.36-6.19-3.75-.13-1.27.79-3.39-1.9-3-2.37.36-1.21,2.2-1.06,3.53a60,60,0,0,1,.39,10.29c-.18,3.08-1.1,4.76-4.8,5-2,.12-3.93,1.36-5.77,2.08-4.55,1.77-5.67,5.83-8.07,8.71-4.21,5-9.28,5.53-15.21,5.14-1.53,0-3,.54-4.56.3-1.2-.09-2.39-.2-3.58-.3-2.08-.26-4.17-.22-6.25-.49-2.75-.1-5.5-.6-8.26-.11a2.78,2.78,0,0,0-1.37.86c2,1.73,4.46,1,6.71,1.24,3.69.44,7.49-.14,11.08,1.45,1.53.68,3.34.3,5.06-.22s3.65-1.35,5.51-.78c6.52,2,11.43-.93,16.22-4.14,2.26-1.52,4.09-.67,6.06.4,2.93,1.6,5,1.35,4.65-2.27-.32-3.4,2.06-5.53,3.83-8,.24-.33.72-.91.85-.86,4.74,1.87,5.42-2.24,7.86-4.07,5.65-4.21,5.55-9.58,3.39-14.76A94.49,94.49,0,0,1,827.29,623Z" fill="#644732"/><path d="M761.68,672.8l1.27-.18c.92-2.42-1.38-2.32-2.77-2.93-3.53-1.56-8-1.78-9.66-6-6.06-4.39-8.72-9.89-7.48-17,.53-3,1.3-6.33-1.47-9-5.7-1.66-7.4-5.41-7.55-10.59-.16-5.52-2.84-10.9-1.49-16.78.88,1.76,2.07,8.49,1.77,11.14-.5,4.46,1.4,8.5,2.63,12.63.67,2.28,2.22,2.82,3.82.43a47.3,47.3,0,0,0-.6-14.59c-3.76-17.48-4.38-35.16-4.73-52.86,0-1.85.43-3.76-.95-5.41-2-1.22-4-.47-5.77.36-2.53,1.16-3.29,2.79-.38,4.39s3.36,4,2.11,6.65a7.63,7.63,0,0,0-.48,6.26c1,2.45-1.34,1.44-2.12,2,1.91-3,0-5.79-.42-8.67-.69-4.65-2.08-9.22-1.23-14,.21-1.14,1.21-3.71-2.18-3.42a5.79,5.79,0,0,0,0,3.35c-1.54,9,1.48,17.65,2.71,26.4.82,5.79.77,11.6,1.76,17.4,1.52,9,1.12,18.24,3.35,27.22a7.59,7.59,0,0,1,.34,3c-.49,3,0,4.65,4.18,4.91,4,.24,4.22,3.88,4.45,6.69a53.15,53.15,0,0,1-.38,7.75c-.43,6.67,5.69,15.3,12.53,17.62C755.91,670.54,758.43,672.5,761.68,672.8Z" fill="#3e2f1f"/><path d="M965.15,498c.63-2,2.74-1.61,4.24-2.19,1.15-.44,1.79-1.15,1.62-2.3-.19-1.37-1.34-1.31-2.48-1.39-3.7-.25-6.92-.76-10.72,1.52-2.77,1.66-7.76.19-12.07-.95,2.71,2.51,2.45,4.64-.24,6.47-1.1.75-1.25,0-1.24-.84-1.44-.89-3.45-1.46-4,.18-1,2.81-3.45,2.74-5.62,3-6.68.75-13.28,2-20.15,1.44-12.1-1-24.24-1.58-36.36-2.47-8-.59-16-1.18-24,.63-2,1.26-5.54,0-6.4,3.19a5.41,5.41,0,0,0,3.88.15c10.3-2.54,20.73-2.58,31.31-1.57,9.73.93,19.52,1.3,29.27,2C930.47,506.23,947.87,502.49,965.15,498Z" fill="#3b2d16"/><path d="M851.63,504.4l-3.89-.31c-7.9,0-13.52,4.56-19.66,8.05-3.37,1.91-7.59,3.12-8.24,7.54-.25,1.49-.32,3-.56,4.51a44.56,44.56,0,0,1-1.69,4.27,10.5,10.5,0,0,0-.45,4.62c-.14,6.11-1.29,12.15-1.56,18.25-.15,2.6-.36,5.18-.6,7.76-1,10,1.13,19.71,2.89,29.45.68,3.77-.76,7.89,2.09,11.34.31.41.64.82,1,1.21a3,3,0,0,0,1.92,1.89c-1.35-8.18-2.57-16.39-4.08-24.55-2-11-1.68-22-.58-33,.12-1.24.59-4.51.88-5.69a26.86,26.86,0,0,0,.43-7.15,5.13,5.13,0,0,0-.09-.86c-.63-2.53,4.76-14.44,7.26-15.95A110.28,110.28,0,0,1,851.63,504.4Z" fill="#4c3422"/><path d="M739.25,492a4.75,4.75,0,0,0-.93-.15,10.72,10.72,0,0,1-1.19,2.31c-7.24,8.28-10.15,18-12.89,28.2-2.1,7.77-2,15.56-3.07,23.3-.2,1.36-.56,2.86.48,4.16a2.4,2.4,0,0,0,1.17-1c1.46-4.86.95-9.91,1.57-14.86.28-2.25,0-4.59,1.07-6.72.86-7,5.22-13.09,6.7-20,.7-3.31,3.13-6.19,5.39-9C739,496.35,740.76,494.5,739.25,492Z" fill="#29200f"/><path d="M724,558.58c.1-1.2.2-2.4.31-3.59.27-2.15.23-4.21-2.07-5.59l-.61.37A19.51,19.51,0,0,0,724,558.58Z" fill="#29200f"/><path d="M733.47,561.6c1.33,1.23.77,2.72.64,4.1-1,9.76,1.29,19.43,1.25,29.13-.07,13.51,5.12,26.51,4.43,40,.66,1-.25,2.39.79,3.36,2.59,1.73,1.41,4.17,1.42,6.34,0,5.1-1.69,10.13,2.38,15.09a18.48,18.48,0,0,0,5.72,4.52c5.07,3.32,11,4.36,16.93,4.61,4.33.18,5.82-2,4.79-5.58-.7-2.37-3.11-2.81-5.11-3.37-5.27-1.48,1.34,1.55-3.93.06,7.46,1.83,2.79,0,10.39,1.4l1.87.15a1.23,1.23,0,0,0,1.67.19c.55-.48.25-1-.28-1.45-1.69-1.32-3.91-1.91-6.15-3.76,5.06-2.63,4.36-6.41,2.65-10.64-.93-2.32.26-4.78,1.1-7.14,1.42-4-.37-6.76-4.67-7.67,1.27-.44,2.62-.68,3.48-1.72a2,2,0,0,0-.4-2.43c-1.71-1.84-2.13-3.76-1-6,.8-1.54.12-2.81-1.4-3.7s-2.95-.68-4.12,1a22.16,22.16,0,0,1,3-10.81c1.46-2.69,1.5-5.57-1.7-7.65a3.91,3.91,0,0,0-2,0c-3.11,1.83-4.72-1.45-7.18-1.86,1.58.27,3.2,0,4.77.43a4.78,4.78,0,0,0,3.29-.29c.45-.44.87-1.12.48-1.54-4.36-4.83-.58-8.74,1.58-12.82.69-1.3,1.63-2.59,1.63-4,0-2.18.27-3.81,3.06-4.53,1.83-.48.9-2,.41-3.21,2,.39,4,2.25,5.7.58,1.3-1.3-.66-2.09-1.86-2.79,2,.46,4.37,3.55,5.89,1.07,1.64-2.67-2.34-3-4-4.23a9.24,9.24,0,0,0-8.35-1.91,3.61,3.61,0,0,1-3.12-.65c-4.45-3.42-9.45-6.34-11.94-11.51s-6.25-9.39-9.27-14.14a7.91,7.91,0,0,0-8.41-3.76,3.74,3.74,0,0,0-2.69,2.77c-1.14,7.3-4.27,14.33-3.53,21.9A4.06,4.06,0,0,0,733.47,561.6Z" fill="#150c03"/><path d="M772.51,629.18,766.1,631c.42,1.46,1.3,1.37,2,1.34,3.94-.15,6.67,2.72,5,5.84-2,3.85-2.31,7.44-.27,11.38,2.12,4.1-2.64,4.73-4.68,7a30,30,0,0,0,7.58,4.12,1.38,1.38,0,0,1,.3.24l-1.07.52c3.2,1.27,8.15.78,12.94-1.39-2.06-.58-3.76-1.07-5.4.29a2.31,2.31,0,0,1-3-.12c-2-1.43.79-1,.93-1.87.67-3.92,2.64-7.74-.23-11.66-1.24-1.69,1-2.75,1.24-4.29.78-4.64,3.53-8.57,6.69-12.19,1.15-1.31,2.58-1.53,4.61-1,5.58,1.55,10.9-.57,13.31-5.33,1.51-3,3.29-4.32,6.93-2.92,2.66,1,3.55.28,3.35-2.57-.18-2.54-1.58-6.09,3.89-6.52,1.58-.13,2.27-3.3,2-5.26-.38-2.89-3.51-1.71-5.67-2.59a7.75,7.75,0,0,1,4.31-2.95,3.64,3.64,0,0,0,0-.74c-3.31-2.38-5.23,1.53-8,1.44.89-6.47,1.26-13,2.57-19.39.87-4.24.79-8.62-2.08-12.53a3.54,3.54,0,0,1-.23-3c1.4-5.41,1.41-11.07,3.49-16.34-.08-4.07,1.17-8,1-12.16-.06-1.53,2.67-3.15.32-5.11-2.37-1.6-4.23-.43-5.79,1.05-2.51,2.4-3.06,9.07-1.13,12.13.46.73,1.52,1.51.47,2.19-5.67,3.69-4.11,9.7-5.83,14.67-1.35,3.91.38,8.35-2.66,11.93a6.9,6.9,0,0,1-3.09,2.46c-4.37,1.49-4.34,1.55-1.13,4.83-1.34,1.67-4.62,2.11-4.46,4.59.21,3.1,4.39.68,5.09,2.91-2.68-1.45-4.48,0-6.1,2.28s-3.65,4.32-7,4.69c-.92.1-2.08.31-2.22,1.28s.94,1.41,1.72,1.89c.52.33-.13-.09.42.2,1,.56,2.58.46,2.88,1.91a.59.59,0,0,1-.5.66c-1.76.32-1.9-1.19-2.63-2a7.34,7.34,0,0,0-1.3-1.25c-2.43-1.72-4.87-1.33-6.19,1.19a27.85,27.85,0,0,1-6.39,8.15,5.19,5.19,0,0,0-1,7.13,8.32,8.32,0,0,1,1.41,7.34c-.85,3.18,1.62,4,6.14,2.24C776.74,626.85,774.11,627.25,772.51,629.18Z" fill="#382516"/><path d="M771.15,662.9c.9,3.84-.8,5.52-5.73,4.74-5.17-.81-10.22-2.29-15.32-3.48,0,6.14,6.6,4.24,9.74,6.57.9.67,2.82.14,3.11,1.89l8.42.51c1.32-.41,2.58-.94,3.84-1.47,2.2-.91,3.32-2.28,3.35-4.58s-2.3-2.22-3.68-3.08c-.59-1-1.73-.94-2.74-1.09A.57.57,0,0,0,771.15,662.9Z" fill="#22190d"/><path d="M774.88,664c3.78,3.35,3.66,4-1.17,7.09a20.6,20.6,0,0,0-2.34,2l6.56.51c1.42-1.38,2.62-.18,3.87.31,1.6.2,3.05.07,3.9-1.41C783.68,663.57,785.64,665.86,774.88,664Z" fill="#382516"/><path d="M732.6,559.84c-.08-7.32,2.85-14.22,3.49-21.44.14-1.53.7-3.15,2.94-3.3a2.15,2.15,0,0,0,.73-1.06,49.42,49.42,0,0,1,13.15-27.2c1.36-1.23,3.42.35,4.78-.93a5.4,5.4,0,0,0,1-2.86,4.54,4.54,0,0,1,1.71-3.38c5.71-4.25,10.3-9.84,17.63-12.14a16.05,16.05,0,0,0,3.34-1.88c2.41-1.18,3.06-3.83,5.13-5a38.68,38.68,0,0,0-4.82,5.78c-.54,4.23,3.5,4.07,6.09,5.3,2.27.84,4.71,1.34,6.57,2.95a72.61,72.61,0,0,1,17.21,16.54c.92,1.24,2,3.25,4,2s.48-3.08-.39-4.25a120.48,120.48,0,0,0-14.18-15.29c2.07,1.16,4.11.13,5.66-1.36,1.51.9,1.42,2,1.86,2.93.27.53.49,1.12,1.13,1.33,1.79.57,1.91-.67,2.52-1.72.29-.5.49.72,1,1,1.67.78,2.42-.06,2.75-1.3.37-1.42.83-2.17,2.46-1a3.21,3.21,0,0,0,3.53-.06c2.1-1.05,3.9-.21,5.65.89,2.93,1.83,2.94,1.82,5.24-.9a4.15,4.15,0,0,0,1.29,2.27c4.19.84,2.23-3.88,4.77-4.54,1.36.88.68,2.17,1,3.2.23.7.75,1.85,1.17,1.66,2.93-1.37,6.61,1.85,9.13-1.21a2.45,2.45,0,0,1,3.56-.68c2.14,1.15,8.61-.13,9.88-1.82.85-1.14.37-2.16-.46-3.13-7.59-2.28-15.59-3.22-22.89-5.81,9.4-5.46,18.5-2.18,27.52,1.34a19.14,19.14,0,0,0,9.26.95c1.8-.2,3.57-.55,2.62-2.89-3.83-4.23-9.62-3-14.48-4.31a81,81,0,0,0-9.26-1.57c-2.17-.32-5.37.66-4-4.21-3.9,6.37-8.3.14-12.07,1.76,1.93-2.38,4.19-4.6,5.69-7.19,1.33-2.28,3-4.93.33-7.55a1,1,0,0,0-.76.22,10.31,10.31,0,0,0-4.72,4.63c-3,5.1-6.46,10.14-13.18,12-2.16,3.65-6.52,3.8-10.39,5.81.16-3.44,2.27-4.47,4.82-4.73s4.59-.86,6.18-2.55c1-1,.89.45,1.42.36,3.11-.37,4.49-2.91,6.5-4.55,2.54-2.06,3.71-4.87,2.39-8.09s-4.43-2.51-7.11-2.74a2.81,2.81,0,0,0-1.7,1.38c-4.53,8.59-12,13-22.51,13.3a27.89,27.89,0,0,0-9.2,2.1c1.93-1.84,4-3.6,5.27-5.86.84-1.51,2.62-3.2.06-4.85-2.84,0-3.49,2.12-4.47,3.84-.8,1.38-1.7,2.71-2.52,4.1.31-1.23,2.22-2.42.57-3.68-1.46-1.12-3-.15-4.35.57a17.56,17.56,0,0,0-4,3,10.17,10.17,0,0,1-9.81,2.85,66.92,66.92,0,0,1-14.78-2.29,9.25,9.25,0,0,0-7.58,1,8.81,8.81,0,0,0-2.34,1.74l-1.08.91c-1.8,4-6.44,5.54-9.07,8.81-1.42,1.68-2.85,3.36-4.27,5.05-.4,4.87-5.57,7.4-6.92,11.82-.19.62-1.43,1.14-1.37,1.62.84,6.62-6.07,11.19-5.41,17.76.11,1.07-.58,2.19-.9,3.29.75,2.42.12,4.85-.16,7.22-1,8.14,1.21,15.89,3.45,23.63C728.54,559.36,729.63,561.19,732.6,559.84Z" fill="#4a3626"/><path d="M879.65,482.74c-2.84,3.62-6.72,2.33-10.07,1.23a141.36,141.36,0,0,0-17.45-4.92c-2.24-.43-4.86,2.67-6.58-.69-.24.17-.48.32-.7.49-3.71,2.92-3.71,2.93-8.23,3.65,8.22,4.1,17.2,5.9,26.4,7a14.69,14.69,0,0,0,9.55,3.1,15.31,15.31,0,0,1,9.34.63c1,.7,1.94,1.66,3.43,1.09,2.66-.66,4.85.95,7.29,1.29,1.25.18,2.69.46,3.28-.87.46-1.05-.51-1.87-1.28-2.6a15.87,15.87,0,0,0-1.45-1.11c-.86-.64-1.88-1.28-1.69-2.42.26-1.53,1.81-1.45,3-1.53a43.09,43.09,0,0,0,10-2.39c1.9-.6,3-.23,3.42,1.62,5.78-1,1.48-5.14,2.53-7.65.43-1-.7-2.42,1.64-2.62a1.38,1.38,0,0,0,1.25-1.94c-.46-1.48-1.32-.26-2.08-.26q-6.62,0-13.22-.28c-5.16-.24-5.18-.23-3.17,3.94.88,1.84-.5,2.94-1.85,4s-1.69.54-3.09-.52C886.17,478.16,882.74,480.47,879.65,482.74Z" fill="#614c37"/><path d="M907.88,486.31c.69-1.11,1.82-2.34.77-3.51s-2.12.43-3.23.64c-4.23.81-8.18,2.64-12.6,2.77-1.22,0-2.63-.25-3,1.34a3,3,0,0,0,1.48,3.74c1.51.88,3.45,1.42,4,3.38-3.85,1-6.89-3.25-10.7-1.13,3.94,3.12,9.12,3.22,13.72,4.7,1.4.44,2.55-.68,3.18-1.94-1.67-1.27-3.4-2.49-5-3.84-.75-.64-1.95-1.34-1.52-2.44s1.64-1.61,3-1.69c2-.12,4-.32,6-.48C905.34,487.4,906.24,486.11,907.88,486.31Z" fill="#4a3626"/><path d="M901.53,496.3c-3.69,2.23-6.78-.85-10.2-1.12-2.26-.17-4.47-1.06-6.7-1.64-1.39.83-1-1.11-1.87-1-3.16-.2-6.32-.46-9.47-.64-3.66.08-6.71-2.1-10.27-2.37-.21,1,.9,2.88-1,2.73-2.81-.22-5.32,4.09-8.4.28-.49-.6-3.39-1-3.71.4-.7,3-3.27,1.79-4.95,2.49-.92-1.3.53-2.94-1-4.11-2.06.78-.45,3-2.16,4.15-1.6-1-.63-2.47-.82-3.7-.16-1,.69-2.64-1.49-2.44-1.28.12-2.83.13-3.24,1.91-.35,1.47.88,3.75-2.11,4.12-2.73,2.44-.79,4,1.63,3.57,5.09-.93,10.54,1.5,15.36-1.53,1.58-1,2.67-.1,2.66,1.62,0,1-.76,1.89-.18,2.9,22.84-2,45.46,2.11,68.2,2.49,6.4.11,12.89-1.1,19.2-2.3,3.85-.73-.75-2.13-.15-3.49l3.41-.29a3,3,0,0,0,1.45-2.11c-1.72-.23-3.45-1.32-5.13-.66-3.72,1.48-8.66,1.05-11.35,2.86-5.17,3.5-9.35-.17-13.72.28C910.3,499.21,906,497.9,901.53,496.3Z" fill="#261b07"/><path d="M781.8,674l-2.65-3.21c-1.52.61-.83,2-1.22,2.9Z" fill="#4c3422"/><path d="M732.6,559.84c-1.65-.07-3.13-.32-3.55-2.16-2.17-9.39-4.65-18.74-3-28.45.12-.74,2-3.14-1.43-2.79-2.55,7.49-1.94,15.28-2.38,23,1.26,1.69.49,4,2.07,5.59,1.47,1.17.87,2.71.71,4a37.26,37.26,0,0,0,2.31,17.55c.89,2.41-1,5.09.71,7.52,1.66-.46-.47-2,1-2.45,1.38,0,.62,1.92,2.18,2a3.86,3.86,0,0,0,.32-1.1c-.1-3.4-2-6.66.67-10.27.89-1.19,1.82-6.22-3.52-6.69-.75-.06-1.63-.51-1.43-1.38a2.13,2.13,0,0,1,1.28-1.08c1.6-.57,3.26-1,4.89-1.51A1.75,1.75,0,0,0,732.6,559.84Z" fill="#29200f"/><path d="M740.58,638.21c-.13-1.15.51-2.43-.79-3.36-.72.63-1.44.7-1.72-.3-.88-3.2-2.39-6.45-2.32-9.64.1-4.09-1.22-8.11-.51-12.15.24-1.39-.33-2.54-.67-3.75a1.88,1.88,0,0,0-2.18-1.3,1.41,1.41,0,0,0-1.25,1.59c.2,3.52-.52,6.91.34,10.61.92,3.91,2.43,8,1.84,12.15-.38,2.72.06,4.63,3.72,4.31C738.74,636.22,739.49,637.46,740.58,638.21Z" fill="#22190d"/><path d="M853.59,501.89c.61-1,1.3-2,1.82-3,.84-1.71-1-2.19-1.88-3.05-1.17-1.1-2-.68-3.16.26-2.94,2.46-8.55,2.34-12.12-.59,1.29,2.84,0,2.79-2,2.73-2.65-.07-2.89-1-2.08-2.89a7.26,7.26,0,0,0-1.5-4.84c-1.76.76-.93,2.33-1.44,3.42s-2.06,1.22-2,.7c.36-3.51-3.58-1.67-4.62-3.33-.57-.9-1.27-.39-1.87.14-1.7,1.5-3.13,2.65-5.16-.05-.87-1.17-3-1.22-2.64,1.39.14.93.61,2-.85,2.62-1.51-1.18-.29-3.51-2.5-4.45-2.71,1.12.9,3.69-1,5.07-1.62-.35-.88-1.64-1.22-2.48-1-2.42-1.68-5.69-4.65-1.13a2,2,0,0,1-3.2.3,3.47,3.47,0,0,0-4.17-.78c6.88,6.46,14,12.5,17.88,20.81-6.2-6.77-12-13.82-20-19a4,4,0,0,0-5.25,1.66,36.58,36.58,0,0,0-1.18-4.69c-2.21-1.45-6.93-.13-6.3-4.74.13-1.44-.61-1.56-1.79-1l-3,1.56c-1.69,1.7-1.85,3.41-.37,5.41,1.38,1.85,2.77,2.23,5.13,1.39,2.07-.73,2.57.94,2.73,2.83-7.4-1.9-12.6,1.9-17.65,5.63-3,2.21-5.52,3.68-8.71.45-.26-.27-.88,0-1.25.28-.1,1.12-.21,2.25-.31,3.38-.39,1.16.55,1.47,1.4,1.85,5.53.09,8.9,3.61,11.92,7,4.76,5.34,11,9.66,14.23,16.06,1.26,2.45,5,1.89,6,4.54.31,2.77-2.53,4.19-3.26,6.5.59,2.35,2.06,2.31,4.24,1.68,3.91-1.12,7-4.24,11.64-3.67,1.24.16,2.14-1.08,2.44-2.27.5-2-1.19-2.36-2.6-3-.56-.25.07.16-.36-.26-.1-.1.3-.42.67-.48a4.6,4.6,0,0,0,1.06-.54c5.16-3,9.31-7,13.62-10.82a23.44,23.44,0,0,0,2.69-2.88c1.33-5.5,7.59-5.69,11.26-8.66,4.47-3.62,10.36-4.64,15.56-6.92C849.25,502.42,852.47,504.42,853.59,501.89Z" fill="#160c02"/><path d="M827.87,476.9c0,.54.14,1.53.85,1,5.35-4.38,11.81-8,13.4-15.13.39-1.75,3.1-1,3-2.83-6.29,1.8-11.19-.56-15.8-4.28-5.87-4.74-13-6.16-20.52-5.43-2.76.27-5.51.78-8.34.94-2.12.12-4.82.42-6.17,1.65-3.73,3.39-8.13,4.39-13.1,4.34,6,2,12.12,3.73,18.08,5.86,1,.37,2.31.35,3.09,1,4.92,4.29,10.6,2.18,16.07,1.82a8.48,8.48,0,0,1,2.32-.29c4.73,1,8.1.17,8.76-4.87,0-.23.84.1,1.27-.08,1.64,1.88,5.54-1.38,6.47,2.61s-1.06,6.52-4,8.8c-1.43,1.09-2.92,2.11-4.38,3.16A1.59,1.59,0,0,0,827.87,476.9Z" fill="#6e5845"/><path d="M830.8,460.58,827.4,458c2.05,5.5.46,7.43-5.15,6.2-2.91-.65-5.26.69-7.62,1.18-7.47,1.56-12.7-3.21-18.93-4.89-4.8-1.29-9.36-3.31-14.49-3.41l-1.64.87c-.4,1.28.71,1.56,1.6,2,6.94,2.86,14.63,3.63,21.57,6.48,1.09,3.68-2,5.52-4.11,7.79a39.75,39.75,0,0,1-3.13,2.58c-.55.47-1.27,1.1-.42,1.76a1.91,1.91,0,0,0,1.69.12c4.74-3.43,10.74-2.32,16.05-3.66C821.38,472.87,828.34,469.05,830.8,460.58Z" fill="#5f4938"/><path d="M781.45,459a2.06,2.06,0,0,1-1.88-1l-.9.17c-1.09,3-4.46,3.16-6.79,4.61l-7.27,5.55c-3.16,2.59-7.49,4.09-9,8.17,3.81-2.44,7.85-1.06,11.58-.05,4,1.09,8,1.13,12,1.45-2.14-1.92-2.72-4-1.38-6.62.63-1.24.22-2.8-.17-4.19-.45-1.62-.13-2.72,1.9-3.17C782.7,463.2,782.77,461.32,781.45,459Z" fill="#5f4c38"/><path d="M743.52,486.9c3.71-2.35,8.26-4,9.07-8.81C749.81,481.24,745.26,482.86,743.52,486.9Z" fill="#4a3626"/><path d="M755.57,476.48l9-8.17a24.18,24.18,0,0,0-10.94,8.87A2,2,0,0,0,755.57,476.48Z" fill="#5f4c38"/><path d="M771.88,462.76c3-.62,6.38-.82,6.79-4.61Z" fill="#5f4c38"/><path d="M820.92,519.67c-4.76.93-5.76,6.48-10.69,7.2.41,4.23-6.46,2.45-6.37,6.42.17.46.89.21,1,.69a4,4,0,0,1-1-.69c-1.38,0-2.79-.49-4.36.27.52,1.63,2.29,1.59,3.5,2.17.87.41,2.5.08,2,1.69-.3,1-1.12,2.15-2.27,1.76-5.18-1.75-7.81,2.86-11.93,3.81-1.89.43-2.12-.24-2.75-1.2a2.69,2.69,0,0,0-.4-.77c-1-1.18-2.69-2.46-3.87-1.17-1.4,1.51.86,2.26,1.28,2.6,1.23.82,0,1,.58.74.09-.05,0-.18-.23-.34a29.78,29.78,0,0,1-7.41-6.58c-.82-1-2.15-2.1-3.6-1.29s-.29,2,.11,3c1.17,3.05,2.58,5.72,6.46,6.81,2.12.59,3.2,2.64,4.08,4.73-3.15-5.08-9.13-3.09-13.6-4.88-1-.4-2,.55-2.64,1.45-.74,1.06-.14,1.91.63,2.69,1.25,1.27,3,2.14,3.66,3.88a5.47,5.47,0,0,0,.71,1c3.87,2.16,8.3,3.21,12.34,5.08,1.76.82,3.09,1.52,3.59,3.26-1.18-1-1.46-2.9-3.59-3-3.55-.23-7.07.09-10.11-2.67-1.38-1.25-3.57-.19-3.85,2.16-.11,1,2,2.11,0,2.84-1.71.62-3.61.93-5.33-.47-3.77-3.09-7.52-6.09-9.94-10.34a161.22,161.22,0,0,0-10.05-14.66c-1.84-2.53-4.34-4.5-7.76-1.66,0,.28-.09.56-.13.84a7.43,7.43,0,0,1,6.53,3.76c2.89,5.45,7.09,10.16,10,15.63,2.64,4.94,7.89,8,12.8,11.14a2.14,2.14,0,0,0,2.2.25c5.8-2.83,7.89,3.14,12.13,4.06-3.53,1.22-5.51-2.86-9.2-1.88,1,2.2,4.43,1.63,5.33,4.13-3.2-.05-5.54-2-8.2-2.78-.59,1.54.3,2,1,2.5s1.77,1,1.28,2c-.37.8-1.33.53-2.09.56-2.31.11-3.93.67-2.18,3.11a2.16,2.16,0,0,1-.32,2.8c-2.12,2.75-2.94,6.09-5.35,8.8-1.3,1.48.28,4.09,1.46,5.93.52.81,1.77,1.23,1.67,2.43,2.36,1.27,4.51.18,6.56-.62,1.58-.62,3.06-1.35,4.61-1.28-3.25,1.62-7.95,1-10.39,4.57,2.11,2.2,2.64,4.6.75,7.07-3.26,4.26-2.7,9.09-3.11,14.46,2.19-.89,1.8-2.18,2.13-3.12.4-1.13,1.12-1.71,2.47-1,1,.49,2.48,1.39,1.69,2.18-3.89,3.88.23,6.42,1.67,9.41l10.64-4.45c-3.29-1.2-4.53.58-6.2.95a5.18,5.18,0,0,1-3.18-.18c-1.4-.72-.26-1.89.17-2.62,1.25-2.1.43-3.75-.76-5.59-2.92-4.49-2.21-5,2.06-8.92,1.64-1.51,3.7-3.74,4.31-6,.41-1.54.23-2.8,2.3-2.85a3.63,3.63,0,0,1,3.76,2.77c.47,1.5.94,3,3,2.57a3,3,0,0,0,2.7-2.65c.09-1.37-1-2.08-2.36-2.25a6.55,6.55,0,0,1-4.44-1.89c5.45.68,8.2-2.29,10.19-5.53,1.38-2.24,2.38-2.69,4.62-1.32,1.57,1,2.89.65,4.24-1.17-3.07-.42-5.06-3-8.39-2.1-.11-1.69.94-2.43,2.21-3.06,1.45-.72,3.72-.73,3.81-2.73.11-2.33-3.1-.77-4.05-3,4.87.71,6.53-2.51,8.56-5.37.51-.73,1.31-1.36,1-2.28-1.71-5.09.51-9.88,1.58-14.65.62-2.75-.33-7.09,5-7.47-1.39-1.08,1.84-2.3-.06-3.23-5.38-2.61-1.45-6.23-1.2-9.31s3.09-3.6,6-3.58c.16-1.71.32-3.42.47-5.13-.37-1.6-.44-3.08,1.9-3.42Z" fill="#28190c"/><path d="M816.7,550.58c-4.59,6-5.25,13.41-4.29,19.89.66,4.53,2.3,9,1.94,13.82-.2,2.72-2.34,4.83-1.93,7.87.16,1.21-.94,2.2.51,3.92.8.95-1,3.76-1.73,5.72-.24.67-.76,1.37.11,1.89a2,2,0,0,0,2.19-.27c2.32-1.38,4.3-3.43,7.49-3.07-1.83-5.71-1.28-11.72-2.62-17.47C815.87,572.15,815.84,561.4,816.7,550.58Z" fill="#4c3422"/><path d="M820.38,524.76c-1.47-.06-3.26-1.79-4.3.47-1,2,1.91,1.75,2.4,2.95C819.64,527.28,819.88,526,820.38,524.76Z" fill="#382516"/><path d="M766.91,600.22l11.8-4.22c-1.53-1.17-3.14-1.8-5.1-.65a19.18,19.18,0,0,1-7.48,2.2l-3.77-.25c-1.33-.28-1.27.47-.89,1.16a3.41,3.41,0,0,0,3.55,1.65Z" fill="#382516"/><path d="M765,600.11c-.23-1.45-3.59-.45-2.66-2.81-2.14-1.28-4.72.58-6.7-1.79l-.43,1.29c2.37,1.5,4.69,3.06,7.12,4.47C763.71,602.06,764.72,601.62,765,600.11Z" fill="#28190c"/><path d="M774,553c.52-2.61-2-3.31-3.55-4.57-.7-.56-1.76-1-.83-2,.69-.74,1.4-1.44,2.78-.7a8.57,8.57,0,0,0,6.69,1.11c2-.49,3.77,1.65,4.76,3.6.49,1,1.34,1.83,2.58,1s1.31-1.74.13-2.87c-2.33-2.23-3.82-5-7.71-5.92-3.39-.8-1.72-5.12-4.11-7.19a57.54,57.54,0,0,0,13.69,10c-.09-2.7-3.75-2.85-4.48-5.32,1.77-.11,2.8,1.16,4.13,1.65,2.37-1.69,4.38-3.54,3.32-6.68-4.5-1.78-7.2-5.15-10.15-8.59-4.84-5.64-10.11-11-15.55-16.22a8.87,8.87,0,0,0-6.15-2.86c-2.8,1.07-4.31-2.34-7-1.74-6.41,5.32-9.07,12.56-11.9,19.68-1.12,2.83-3.61,5.54-1.49,8.88,4-1.55,6.37.66,7.9,3.48,2.93,5.44,7.33,10,10.22,15.52,2.21,4.2,6.62,7,10.65,9.67,1.58,1,5.08-.38,7.59-.67.41-1.21-.6-1.4-1.06-1.91-.77-.85-2.11-1.57-1.14-2.92a1.51,1.51,0,0,1,2.07-.45c.9.59,2.94.24,2.53,2-.65,2.72.9,2.4,2.47,1.48,2-1.15,4-.72,6-.47,1.12.14,2.24.66,1.32,2-.48.71-1.43,1.57,0,2a4.12,4.12,0,0,0,3.85-1.16c1.14-.92.55-1.93-.51-2.46-4.46-2.25-8.51-5.43-13.75-6-1.47-.16-2.15-1-3.26-1.42-1.69,1.5-3.78,1.61-6.16,1.36C769.81,553.27,772.16,554.09,774,553Z" fill="#150c03"/><path d="M781.45,459c-.34,1.86.74,4.53-3.53,3.69-1.46-.29-2.92,1.44-1.91,3.48,1.81,3.65,1,6.93-2,9.73,1.45,1.66,4,.26,5.16,1.95,3.53.85,6.28-.13,8.86-2.47,2.26-2,4.45-4.45,8.18-4.82.68,2.82-2.57,3.62-3.53,6.09,3.61-1.51,5.4-4,7-6.65.81-1.37,1.33-2.93,3.11-3.59-.11-2.19-2.3-2.21-3.72-2.63C793.22,462.09,787.32,460.61,781.45,459Z" fill="#705845"/><path d="M757.52,502.55c4.93,4.17,5.14,3.88,11.06-.23,3.59-2.49,7.94-4.14,12.12-5.84,2-.81,3.43.77,4.57,3.13,1.53-3.14,1.88-5.23-.29-7.31a2.37,2.37,0,0,0-2.42-.86c-4.82,1.12-5.86.08-4.92-4.88-7.72,2.31-12.41,8.3-18.48,12.62A3.66,3.66,0,0,0,757.52,502.55Z" fill="#24190e"/><path d="M827.87,476.9a1.89,1.89,0,0,0,1-1.75c-.06-.28-.11-.56-.17-.84-3.42,2.28-8.22,1.2-11.48,3.92-1.62,1.35-3.17,2.88-1.41,4.73,1.93,2,3.14.19,4.43-1.14,1.82-1.89,3.62-1,5.54,1.08C826.15,480.4,825.1,477.93,827.87,476.9Z" fill="#2b1c0f"/><path d="M788.72,490.71c-2.14,2.62,1.42,4.64.84,7.19.71-2.84,2.63-4.09,5.59-4.16C793.41,492,790.74,492,788.72,490.71Z" fill="#24190e"/><path d="M780.63,485a1.92,1.92,0,0,1,1.79,1q3.68-3.61,7.33-7.25l-1.09-.88Z" fill="#24190e"/><path d="M752.55,505.7c2.27.46,3.44,3.79,6.52,2.1.3-.16.4-.34.32-.52s-.18-.28-.27-.29a2.21,2.21,0,0,1-1.91-1.06C755.64,506.15,754.2,503.85,752.55,505.7Z" fill="#24190e"/><path d="M873.29,491.87a11,11,0,0,0,9.47.64C879.66,491.39,876.59,490,873.29,491.87Z" fill="#4a3626"/><path d="M759.12,507a4.41,4.41,0,0,0,0,.81,8.59,8.59,0,0,1,5.84,3.19c5.51,6.07,11.89,11.45,16.83,18,2.35,3.09,4.83,6.21,9.64,6.16,1.91-.21,1.21-.92.15-1.25-4.52-1.43-6.35-5-9-8.21-5.09-5.95-11.11-11.25-16.8-16.77C763.93,507.17,761.52,507,759.12,507Z" fill="#3c3023"/><path d="M803.87,533.29a7.45,7.45,0,0,0,1.46,1.55,1.93,1.93,0,0,0,2.47-.4c.26-.27.49-.89.33-1.11-.64-.87-1.57-.56-2.47-.32a13.48,13.48,0,0,1-1.8.28Z" fill="#160c02"/><path d="M774,553c-2.26-2.08-5.29,1.42-7.5-.92-.3.25-.79.46-.87.77a2.14,2.14,0,0,0,1.1,2.2c2,1.48,5.83.37,7.26-2Z" fill="#28190c"/></g><g id="frame"><rect width="1000" height="1000" fill="none"/></g></svg>