<!-- Copyright (c) 2022 - 2023 Jan Stehno -->
<svg xmlns="http://www.w3.org/2000/svg" viewBox="0 0 1000 1000"><title>springbok</title><g id="springbok"><path d="M968.21,840.63V835.3L969,835a53.81,53.81,0,0,1,2.47,6.33c1,3.83,2.22,4.27,4.91.59V866.6a2.4,2.4,0,0,0,3.7,0c2.48-12.26,1.54-24.12-4.11-35.41-2.62-3-5.41-4.38-9.41-2.22-4.45,2.41-8.94,1.43-13.2-1a3.48,3.48,0,0,0-2.11,1.85c-.95,3.24,1.66,4.88,3.21,7.11.68.39-1,1.11-.38.5.25-.22.21-.42-.1-.58-5.69-2.87-11.49.52-11,6.94.19,2.32-.15,2.73-1.91,3a7.36,7.36,0,0,1-3.34.2c-7.92-2.73-15.83-2.26-23.93-.69-3.51.69-7.54.7-9.39-3.88-.4-1-1.8-2.18-2.64-1.78-6,2.92-3.8-2.6-3.32-3.87,2.34-6.28-4.52-10-3.9-15.66.06-.5-1-1.39-1.45-1.19-7,2.89-13.85-3.42-20.8-.2a2.17,2.17,0,0,0-.61,1.52c-2.07,2.24-3.73.16-5.41-.64-4.91-2.33-4.88-2.37-8.76,2a2.87,2.87,0,0,1-.29.3c-5.79,3.87-5.79,3.87-1.24,8.28-3.85-2.06-7.89-1.14-12.06-1.27-6.94-.22-9.65,2.51-13.11,7.43-2.53,3.59-7.39,1.62-8.64-2.9-.42-1.52-.41-3.45-2.33-3.68-2.49-.31-2.77,2-3.14,3.65-1.74,8,1.57,14.46,6.24,20.47.91,1.17,3.06,1.56,2.54,3.59-.61,2.36-2.25,4.71.27,6.85,2.76,2.34,6,5.59,9.17,5.26,7.18-.73,8.38,4.28,10.81,8.68-2.27,1.13-5-2.54-6.2.55-1.15,2.81,1.4,5,3.65,5.64,5.87,1.77,7.92,9.87,13.46,9.2-2.28-.12-5.2.83-3.66,5.9.77,2.53.06,4.54-2.45,5.55-2.15.87-4.54-.74-6.71.47.15-2.49-1.77-4.58.18-7.61,3.5-5.41.66-10-5.76-10.79-.16,0-1.54,1.56-.84-.4,1.61-4.47-.53-7.54-4.93-10-3.71-2-4.69-7.13-8.14-9.89-1-.8-1.23-2.45-2.3-3.31-1.88-1.5-3.7-4.14-6.23-3.23s-.89,4-1.32,6.67c-6.22-7.26-15.53-9.41-21.59-16.24-1.79-2-3.54-4.07-5.28-6.12-2-2.32-3.91-5.26-7.78-3.42a4.24,4.24,0,0,0,.54,5c6.27,7.26,9.17,16.35,13.33,24.75A33.35,33.35,0,0,0,805.29,885c5.18-.26,9.73-.68,9.52,7.34-.13,5.16,5.52,7.54,9.51,9.69,4.49,2.43,7.84,4,8.35,10.48.22,2.87.53,11.09,8.31,10.72,2-.1,1.22,2,1,3.13-.42,2.47-1,5,.24,7.31a4.57,4.57,0,0,0,5,2.74c2.16-.41,2.72-2,1.83-4.27,4.27,9.83,15.62,12.69,20.54,21.9,2.51-1.68,2.87.62,3.74,2a44.42,44.42,0,0,1,7,19.78c.55.46.58,1.17.86,1.76.86,1.78,1.74,4.34,4.14,3.42s1.49-3.51,1-5.4c-2.11-7.37-3.58-15-6.61-21.16,1.85,3.29,3.37,7.64,5.12,11.91.65,1.57,1,4,3.24,3.68,2-.26,2.21-2.59,2.86-4.25,3.16-8,.33-15.59-1.57-23.21-.63-2.51-1.83-4.42,0-7.44s-1.79-6-2.57-9.16c4.67,10.68,10,21.1,9.13,33.43-.26,3.79,1.56,6.74,6.21,4,1.83-.73,1.82-2.79,2.87-4.09,2.54-8.83-1.91-16.81-3.18-25.16-.85-5.52-2.75-10.91-3.83-14.84,2.59,6.59,7.2,14,7.78,23.1.23,3.69,1.39,3.68,3.67,1.05.13-.9,1.3.18.57-.35-.61,2.81-2.76,6,1.69,7.63A116.7,116.7,0,0,1,919,913.58c2.47,2.8,2.17,6.52,1.66,10.29-.53,1.38-1,2.74,1.36,2.52v-6.84c2.34.16,1.79,2.69,3.89,3.29,1-7.17,1.49-14.56,6.11-20.84-.7,16.36.17,32.71-1.46,49.06,2.68-4.12,4.48-7.85,4.55-13.34a159.47,159.47,0,0,1,7.33-44.8V920c7.87-7,4.66-15.73,6.2-22.92,1.58-7.36-3.11-14.79-3.54-23.31,3.55,4,4,8.61,6.19,13,3.87-4.56,6-9,4.55-14.58.07-1.63.17-3.27-1.11-4.57,1.09-1.12-4.72.68-.77-2.17,2.55-1.84-1.53-4.14-1.11-6.91,1.79-1.63,6.24,1.07,6.82-4,.25-2.2,3.86-.64,5.89-.58,2.73.08,5.12.35,4-3.64l0,0c-2.47-2.46-5.87-1.62-10-2.87C965.39,847.56,968.64,846.06,968.21,840.63Z" fill="#dea05f"/><path d="M680.37,624c-5.31,2.7-6.2,8.89-10.15,12.91-7.26,7.42-12.16,17.52-20.12,23.85-9.85,7.83-18.15,17.45-29.33,23.9-14.12,8.17-28.18,17-39.17,29.4-4,4.44-10.2,7-11.85,13.51,2.53,3.68,5.57,1.52,8.35.59,2.09-.7,4.11-2.48,6.09-.24s.39,4.31-.51,6.3c-1.48,3.3-3.52,6.47-.76,10.07,4.73,2.57,8.4,6.64,13.26,9.15,3.58,1.85,6,2.6,8.14-1.49.4-.76,1.57-.78,2.42-1a16.4,16.4,0,0,1,13.2-2.8,4.23,4.23,0,0,0,3.2-2,9.44,9.44,0,0,1,3.63-5.37c3.06-2.37,2.74-3.1-2.47-7.18,7.25,3.53,11.13,2.18,12.58-4.57a7.59,7.59,0,0,1,6.3-6.23c4.32-.91,7.68-3.61,10.56-6.84,8.44-9.44,17.9-17.84,21.59-31a58.15,58.15,0,0,1,15-25c4.06-5.74,8.25-11.3,15.24-13.72,2.14-.74,4.25-1.58,5.56-3.62a17.65,17.65,0,0,0,2.47-6.86c1.57,1.26,2.55,3.08,4.45,3.77a5.76,5.76,0,0,0,3.62-.61,5.75,5.75,0,0,1,3.26-.38c1.79.36,4.07,2.09,4.93-1,.62-2.24,1.73-4.65-.9-6.73-4.26-3.39-4.37-7,.25-10.23,5-3.55,6-8.46,4.8-14.15a5.22,5.22,0,0,0-.51-1.77c-1-1.45-2.54-2.55-3.24-4.29-4.39-6.79-12.6-6.85-18.61-10.79-2.53.23-2.63,2.73-3.88,4.16C698.77,603.9,693.39,617.49,680.37,624Z" fill="#ebe6dd"/><path d="M703.55,557.29c-2,8.45-4.14,16.88-3.87,25.68a11.38,11.38,0,0,1-1.91,7c-.14,2.06,1.36,1.93,2.67,2,3.27-.22,6.56-.33,9.33-2.46,3.87-2.3,4.65-7.34,8.42-9.74a2.38,2.38,0,0,0,.45-1.77c-3.36-6.06-.67-11.6,1.68-17,.94-2.17,2.73-4,3-6.64,2.89,2,7.51,1.62,5.93,7.11-.45,1.53,2.21,2.43,4.07,2.59,1.32.16,3.21-.72,3.89.23,4.72,6.6,12.77,6.75,19,10.35-4.91.66-6.83,3.09-4.25,6.36,3.78,4.79,4.82,11.49,10.84,15-1.36-.09-.1.35-.25.29-2-.71-4.36-1.36-4.85,1.32-.32,1.68,2.13,1.84,3.63,2.06a15.91,15.91,0,0,0,4,0c3.13-.29,5.23-2.36,7.41-4.29a16.68,16.68,0,0,0,2.78-2.66c.81-1.64,1.83-3.47.57-5.1-2-2.59-1.58-4.09.52-6.78,4.06-5.2-3.7-3.93-4.17-7.64,3.41-2,7-4.78,1.9-9.54-1.2-1.12-.68-2.66.8-3.32,3.86-1.7,3.44-3.61,1.21-6.74-4.24-5.94-3.22-7.89,3.87-8.83,2.69-.35,5-2.18,2.58-4.26-4.31-3.63-4.7-9.86-9.65-12.88,1.39-1.23,2.5,0,3.59.22,2.21.54,4.73,1.49,6.25-.66,2-2.77-1-3.87-2.58-5.21a3.92,3.92,0,0,1-.55-5.52c1.68-2.16,3,.36,4.19,1.4,2.49,2.25,5.16,2.29,7.07-.15,2.1-2.67-.51-4.46-2.25-6.18-3-3-7.76-4.43-9.27-9.21,2.9-1.76,4.36.3,5.63,1.5,4,3.78,8.76,4.1,13.79,3.82,1.38-.08,2.82-.07,3.4-1.58a2.8,2.8,0,0,0-1.31-3.53c-5.09-2.53-8-7.93-13.39-10.08-6.79-.86-12.47-4.95-19-6.68-1.89-.51-3.78-2-5.6-.09s-.07,3.44.79,5.29c1.8,3.87-1.26,6.84-2.82,10-1.13,2.25-2.8,4.18-5.71,1.73a2.42,2.42,0,0,0-3.6.42,3.49,3.49,0,0,0-.24,3.85c1.52,3.17,4.11,5.31,7,7.18-2.34-1.35-4.36-3.17-6.67-4.55-1.62-1-3.37-1.54-5-.22s-1.32,3.22-.74,5,1.65,3.23,2.11,5c.28,1.1.77,3.09.35,3.22-6.14,1.86-2.62,7-3.62,10.58-.94,3.37-1.64,6.17-6.13,4.54-1.91-.69-4.29-.89-5.35,1.39-1.38,2.94,1.56,3.74,3.12,5.13a16.64,16.64,0,0,0,2.84,1.8c2.09,1.19,1.91,2.42.7,4.39-1,1.7-1.49,2.79-3.91,2.09a109.17,109.17,0,0,1-13.79-5.34c-3.34-1-6.66-1.85-9.51,1.17.25,2.47,1.71,5.44-3.17,4.94C707.12,553,704.81,554.65,703.55,557.29Z" fill="#433426"/><path d="M722.37,549.11c5.4,2,10.79,4.12,16.23,6.06,2,.72,4.89,1.45,2.78-2.32-1.74-3.09,7.64-3.16,1.45-6.83-2.88-1.71-5.65-3.62-8.46-5.46-.14-.1-.17-.38-.33-.75.46-.36,1-1.13,1.44-1.08,7.68.77,10.31.54,10.26-1.07-.13-4.09,4.27-8-.16-11.95,2.62-1.54,3.44,1.62,5.69,1-.38-2.79-.65-5.69-1.24-8.53-.21-1-1.36-1.8-1.81-2.82-.69-1.55-2.43-3.29-.72-4.91s3.25.05,4.56,1.24c3.21,2.88,7.2,4,11.44,5-3-2.63-6-5.17-8.81-7.91-1.37-1.31-3.83-3-1.82-5,1.76-1.73,2.86,1.15,4.23,2a14.59,14.59,0,0,1,1.53,1.3c4.64-3.09,4.54-9.68,9.72-12.75,1.77-1.05-2-3.25-3.35-4.77-.73-.79-2.15-1.18-1.46-2.61.92-1.87,2.05-.8,3.28-.17,4.78,2.44,10.24,3.12,14.9,6,1.29.81,3.46,2.7,5.42.43-1-4.25-5.06-5.38-7.33-7.46,9.28-4.58,14.67,4.16,21.93,7.36,1.88.47,4.2,2,5.48-.26s-1-3.7-2.33-5.15c-4.21-4.7-9.66-8-14.88-12.83a18.75,18.75,0,0,1,10.68,2.64c1.42.85,2.56,3.22,4.55,1.53,2.24-1.91.33-3.65-.74-5.3-.59-.9-1.48-1.68-1.07-3.41,4.86,1.12,8.34,4.38,12.32,6.62,2.09,1.18,4.49,3.43,6.58.91,1.82-2.19-.55-4.15-1.9-5.88a10.5,10.5,0,0,1-2.58-5.55c3.62,2,6.89,4.29,10.21,6.51,6.67,4.46,12.37,4.25,18.46-1.05,3.25-2.83,6.09-3.63,9.49-.71,7.29-3.66,14.33-7.72,20.25-13.49.18-2.79-1.84-2.16-3.12-1.74-4.32,1.42-8.19-1.59-12.42-1.09-1.21.14-3.06-1.05-1.57-2.56,4.31-4.37-.12-6.67-1.89-9.64a11.33,11.33,0,0,0-2.57-2.69c-1.65-.34-3.62.8-4.94-1.07-2.37-2.84-4.63-1.15-7,.32.64-1.77,1.46-3.36.62-5.12-.55-.86-1.17-1.53-2.29-1-21.32,23.6-48.39,36.37-78.92,42.4-8.72,1.72-15.55,6.34-21.82,12.24,1.79,3.37,4.94,4.6,8.38,4.82,3.8.25,5.6-2,6-5.79.1-1.05,1.35-.95,2.11-.29s.88,2.07.12,2.32c-6.1,2-7,9.28-12.17,12.09-1.84,1-4.21,2.38-3.92,4.29,1,6.79-4.06,11.17-5.84,16.81a23,23,0,0,1-6.37,10.17C723.8,536.69,723.68,543.2,722.37,549.11Z" fill="#514235"/><path d="M885.88,754.57a235.23,235.23,0,0,1-17.28-39.23q-7.83-22.76-15.83-45.46A81.6,81.6,0,0,1,849.28,654c-4.09-4.24-7.09-4.57-11.33-1.24-5.82,4.58-6.84,8.84-3.58,14.73.55,5.58,3,9.88,7.15,13.83a21.4,21.4,0,0,1,6.88,15.5c-.08,8.11.74,16.51-3.87,23.93a6.46,6.46,0,0,0-.33,4.88c.74,1.88,2.36,2.55,4.11,3.14,4,1.33,6.07,4,4.82,8.27-.85,2.92.61,4.12,2.41,6.16,6.85,7.81,17.56,8.83,25.07,15.28,1.3.93,2.49,2.09,4.18,2.3C888.19,759.26,888,757.08,885.88,754.57Z" fill="#2e1e15"/><path d="M802,491.87c-2.36-1.7-4.51-4.06-7.14-4.95-3.92-1.32-6.7-7.84-12.41-2.62-2.13,1.95-3.51-3-7-2.79,1.94,6.24,7.87,8,11.65,11.77,5.42,3.37,8.35,9.65,14.79,11.88-6.95,1.36-12.91.88-17.8-4.33-1.07-1.13-3.66-3.88-5.36-.78-1.22,2.2-2.07,5.18,1.35,7.18a75.42,75.42,0,0,1,8.74,6.28c1.1.87,3.07,2.19,1.2,3.72-1.1.9-3.11,2.1-4.64-.21a14.06,14.06,0,0,0-3.22-3.44c-2.36-1.79-5.09-.7-5.14,1.61-.07,3.38-1.68,8.33,4.24,9.31.46.08.81.89,1.54,1.74-3.61,2.24-6.05-.58-8.79-1.32-1.75-.47-3.93-.85-4.7,1.26s1.56,2.43,2.83,3c2.67,1.25,4.28,2.9,4.3,6.17,0,3.77,4.59,3.9,5.92,6.72,0,1.34-1,1.32-1.88,1.47-2.65.47-6.23-4.68-7.81.51-1.19,3.9-1.58,8.69,3,11.56.56.35,1.14.68,2.62,1.56-7.83,2-10.12,4.77-3.42,9.88,2.34,1.79.08,3-1.67,3.68s-4.69-.84-4.6,2.42c.05,2.24,2.63,2.88,4.24,4,1,.7,2.51.75,3.8,1.1-.49,3.66-4.12,3.09-6.58,5.07,2.54,2.66,6.52,4.62,4.92,9.17,1.7,1.76,3.22.6,4.76-.31,6-4.5,6-11.49,7.28-18A9.8,9.8,0,0,0,787,570a3.55,3.55,0,0,0-1.2-1.7c-4.77-1.16-4.24-3.71-3.72-8.15.78-6.63,5.56-11.77,4.72-19.4-.44-4.07,3.19-12.65,7.05-15C805,519,808.34,506,818.2,498.63c.19-2.59-1.85-2.31-3.15-2C809.67,497.76,805.59,495.61,802,491.87Z" fill="#271d16"/><path d="M854.69,440c0,1.13.19,2.21,1.32,2.81,2.87,2.14,6.74,3.31,5.27,8.62-.66,2.38,1.07,4.73,4.59,3.86,4.72-1.16,9.26-1.86,13.41-5.29,9.53-7.84,19.16-15.57,28.14-24,4.7-4.43,7.6-10.54,11-16.14,1.86-3.11,3.66-6.33,7.91-6.5,5-8.9,3.81-19.25,6.47-28.71,1-3.65,1.94-7.46,1.51-11.39-.15-1.36-.06-2.88-1.75-3.22s-2.33,1.09-2.85,2.33c-2.25,5.42-4.76,10.75-6.6,16.31-4.18,12.66-12.38,22.08-22.34,30.45-10.5,8.83-21.9,16.39-32.86,24.56C864,436.56,859.11,438,854.69,440Z" fill="#6b594c"/><path d="M806,884.49c-9.67-8.32-14.27-19.82-18.75-31.26-1.67-4.25-7.45-5.61-7-11-.45-3.48-3-6.08-3.89-9.37a4.94,4.94,0,0,0-2.56-2.68c-1-.45-2.13-.61-3.12-1.12-6.94-3.56-12.78-.51-14.4,7.52,5.44,7.65,11.87,14.77,16.12,23.05,8.94,17.44,26.11,27.48,36.63,43.39s23.86,29,36.43,43c5.48,6.08,11.26,12.12,18.62,16.14,1.24-3.61-1.53-5.4-3.49-7.36-17.51-17.5-32-37.42-46.11-57.69C811.63,892.89,811.06,887.12,806,884.49Z" fill="#e5dbcc"/><path d="M606.26,749.47c-.66,0-1.46-.18-2,.12-6,3.57-8.51,3.2-14.62-2.61-1.85-1.76-3.61-3.32-6.34-3-1.28-.8-2.46-.22-3.65.26-9.43,6.52-18.81,13.1-28.55,19.17a12.67,12.67,0,0,1-6.79,2.08c.36,4,.51,8,1.12,11.88,1,6.23,4.12,11.1,9.78,14.1,3.58-3.06-2.06-5.72-.34-8.7,1-4.94,3.82-6.57,8.21-3.94,3.78,2.27,7.79,1.38,11.73,1.53,3.55.14,6.87-2.48,10.8.39,1.94,1.42,4.15-1.69,5.39-3.91,1.63-2.89,2.24-6.42,5.2-8.47,2.55-1.8,5-3.71,7.73-5.25C611.34,758.91,611.94,755.82,606.26,749.47Z" fill="#e1d7c9"/><path d="M802,491.87c2.1,6.34,6.59,8,12.62,6.43,1.29-.33,2.49-1.11,3.56.33a54.59,54.59,0,0,1,12.66-9.74c9-4.91,17.1-11.28,25.15-17.64-1.74-4.47-5.23-5.35-9-2.27-9.22,7.62-10.66,7.6-20.7.64-3.31-2.29-6.91-4.14-10.4-6.21-1.06,6,2.7,9.56,5.93,13.78-6-1.29-10.37-5-15.17-8.06-1.64-1-3.15-2.1-5.26.07-2.61,2.68.11,3.39,1.11,4.77.66.91,1.61,1.6,2.26,2.51.32.44.27,1.15.71,3.31-5.64-6.22-11.84-7-19.61-6.56,6.63,7.4,15.37,11.47,21.24,19.68Z" fill="#31271f"/><path d="M664.37,802.71a320.68,320.68,0,0,1,50.17,3.88c6.51,1,12.52,3.35,18.6,5.63,2.67.35,3.49-2.11,2.75-3.3-2.35-3.8.19-4.07,2.68-4.65a20.27,20.27,0,0,0,4.52-1.34c5.79-2.82,5.72-7.17-.16-11.73-3.78-1-6.3.69-7.77,4-.76,1.74-1.72,3-3.62,3.28-5.62,1.65-11.18,2.52-16.75-.36-2.64-1.36-5.62-.82-8.49-.94-3.75-.16-4.64-2-2.59-5.25-3.63-5.45-8-9.76-15.2-8.84a43.39,43.39,0,0,1-5.93-.12,2.35,2.35,0,0,0-1.53,1.08,14.38,14.38,0,0,0-1,7.75c3.32,4.53,9.07,1.43,12.2,4.17-8.63-.47-17.79,3.63-26.86,1.39,3.78-1.12,9.61,2,11.65-4.71-2.61-8.06-7.49-11.39-15.75-8.82-6.26,2-13.51,1.28-18.72,7.13-1.73,1.94-6.51,0-9.2,2.63-1.61,2.36-.56,3.62,1.73,4.55s4.79.52,7.23.44c4.6-.14,9.78-4.29,13.33,3C656.91,804.11,661.44,801.85,664.37,802.71Z" fill="#99836b"/><path d="M806,884.49c8.84,19.22,23.1,34.58,35.45,51.34,5.65,7.67,12.91,13.58,18.94,20.75a27.27,27.27,0,0,1,3.73,5.51c5-.52,3.32-5.61,5.47-8.09-1.67-5-2.14-10.92-9.63-10.86-1,0-2-2.25-2.89-3.5-3.05-4.16-6.08-8.32-10.67-11.19-2.1,3.07,1.85,4.08,1.93,6.65-5.88.51-6.63-4.23-5-7.07,2.45-4.3.18-6.06-1.81-8.46-2.92-.5-.45,3.66-3.56,3.17-.2-3.25.32-7-3.74-8.78a2.23,2.23,0,0,1-.88-3c4.61-6.75-3.69-9.15-5.2-9.27-5-.42-6.77-5-10.56-6.55-1.4-.59-2.06-2.23-1.85-4.06C816.61,883.65,813.46,881.54,806,884.49Z" fill="#cc8f53"/><path d="M722.37,549.11c2.25-3.45,5.08-6.62,4.12-11.36a3.75,3.75,0,0,1,2.35-3.85c5.46-2.44,6.58-7.75,8.11-12.58a11.14,11.14,0,0,1,3.33-5.51c1.81-1.62,4.33-3.64,1.62-6.8-.52-.61-.39-2.89,0-3.07,6.57-2.89,7.92-11.3,14.4-14,2.77-1.15,4.39-2.38,3.59-5.34-1-3.59-4.07-2.91-6.7-2.81-1.21.05-1.8.52-1.58,2.15.78,5.59-.18,6.38-5.29,4.58-2.07-.74-4-1.8-6-2.71-.65,1.24-1.9,1.25-3,1.51-.33,2,1.26,2.58,3.29,3.9-4.59-.46-8.27-.12-10.11,4.07a.79.79,0,0,0-.24,1c-.59,1.59.59,2.46,1.39,3.49,2.42,3.12,1.32,5.24-1.77,7.07-1.84,1.09-7.29.08-3.31,5.22.41.54-1.28.66-2,.67-2.6,0-4.84.69-6.32,3l-2.66,4c-1.31,3.41.39,3.49,2.88,2.63,2.65-.91,5-3.2,8.65-1.8-.66,3.53-3.51,4.14-6.15,4.92-3.22,1-5.89,2-2.38,5.79,2.6,2.77.47,4.42-1.51,6-1.77,1.41-4.24,1.42-6,2.84-3.62,2.9-3,5.09,1.88,7A8.85,8.85,0,0,1,722.37,549.11Z" fill="#382c22"/><path d="M580.41,745.31l2.92-1.32c-1.24-4.32,1.34-7.66,2.85-11.27,1-2.3,2.32-4.66-.6-6.54-2.31-1.49-4.37-2.69-7.1-.06-2.26,2.18-5.54,2.61-8.73,1.49-6.08,3.25-10.68,8.4-15.76,12.88-3.93,3.48-6.94,8-10.64,11.77-4.31,4.43-4.79,8.4.52,12.27a4,4,0,0,0,3-1.39c6.87-10.31,19.8-10.72,28.6-17.87A3.73,3.73,0,0,1,580.41,745.31Z" fill="#ddd7c9"/><path d="M970.73,813.69a2.48,2.48,0,0,1-.18-1c-7.16-.64-14.52.06-21.31-3.14-6.6,4.48-14.51,3.17-19.16-3.16a3.25,3.25,0,0,0-2.86-1.32c-9.94-.1-17.32-5.28-20.91-14.6-.24-.63-.42-1.28-.71-1.9a3.65,3.65,0,0,0-2.18-1.8c-3.57,3.76-4.46-2.29-7.09-2-1.78,5.22-1.79,10.11,2.76,14.06.84.74,2.32,1.57,1.94,2.53-3.16,7.84,3.17,6.24,7,7.53A31.25,31.25,0,0,1,921.93,818c2.62,3.06,5.51,4.57,9.44,3.3,4.9-1.59,7.16,2.74,10.49,4.67,1.26.62,2.41.09,3.58-.32,4.43,1.65,7.73-.2,9.66-4,1.81-3.56,4-4.6,7.92-4.06C966.06,818,969.76,818.18,970.73,813.69Z" fill="#90542f"/><path d="M926.29,403.37c-.63-3.64-2.11-2.26-4-.9-5.77,4-7.87,10.82-11.34,16.36-4.37,7-10.87,11.19-16.4,16.59-6,5.85-12.92,10.7-19.42,16-3.22,2.62-7.67.26-11.09,2.91-.82.63-2.09-2.88-1.7-3.71,3.52-7.4-2-7.06-6.29-7.78,0,2.06,1.41,3.14,2.85,4.33s1.49,2.7-.55,3.6c-1.23.55-3.94,0-2.78,2.49,1,2.09,2.5,4.61,5.59,3.92,5.12-1.16,10,2.49,15.14.57,13.49-11.7,29-21.19,39.74-35.9C920.15,416.18,924.7,410.57,926.29,403.37Z" fill="#554a42"/><path d="M559,795.82c1.15,5.36,9,6.79,7.87,13.65-.06.36,2.17,1.43,3.42,1.65,5.69,1,11.23,3.12,17.16,2.3.5-3.81,5-6.37,3.22-11-.41-1,1-1.24,1.83-1.45,6.12-1.62,11.36-5.52,17.56-6.93,2.26-1.19,4.1-3.13,6.65-3.82,3.65-1.71,8.2-2.73,6.68-8.55a45.71,45.71,0,0,0-17.79,4.92c-9.23,4.89-18.91,8.08-29.52,7.4-2.89-.06-5.71.74-8.59.71-2.35.25-4.7,0-7.05.1A3.22,3.22,0,0,0,559,795.82Z" fill="#ddd2c0"/><path d="M786,569.48l-.06,4.23c1.14,2.83,3.65,2.81,6.07,3,6.9-2.47,14.25-2.68,21.35-4.18,2-.43,4.41-.65,4.81-3,.52-3.07-2-2.86-4-2.91-1.14,0-1.46-.84-1.17-1.86a2.13,2.13,0,0,1,1.83-1.74c.95-.1,1.63.59,2.42,1,2.05,1.06,4.38,3.86,6.38,1,1.72-2.47-1-4.44-2.6-6.32,2.42-1.16,5.17.22,7.64-.82,1.45-5.24,1.76-10.81,4.49-15.68-.87-1.71-2.16-2.64-4.15-2.24-6.15,5.92-14.32,7.35-21.93,10.05C801.36,557.87,795.64,565.81,786,569.48Z" fill="#935b38"/><path d="M897.79,626.45c10.21-2.77,19.86-7,29.66-10.92,10.9-4.4,18.42-11.74,25.63-20.17-2-5.49-4.27-1.85-6.51-.28-11.27,9.91-22.86,18.83-38.38,21.43-10.31,1.72-20.74,3.47-30.69,7.06-7.87,1.89-16.28,2.58-21.81,9.81a6.62,6.62,0,0,0,1.16,5.72c6.74.27,12.16-3.62,17.77-6.38C882,629.08,889.8,627.51,897.79,626.45Z" fill="#dd904c"/><path d="M833.18,542.15c-5.35,3.92-6.27,9.09-4.18,15.11-1.59,3.81-2.2,7.87-4.74,11.49a12.88,12.88,0,0,1-6,4.73c-2.33,1-6,.71-5.87,4.35s3.42,6,6,6.55c3.34.71,7.56,2,10.73-.55s5.51-1.86,8.24.1c3.65-1.26,5.57-3.79,5.58-7.73-5.24-10.22-9.12-20.8-8.56-32.58C834.36,543.15,833.59,542.64,833.18,542.15Z" fill="#5d3b28"/><path d="M742.67,791.77c5.28,7,4.35,9.1-4.91,10.86-5.74,1.1-5.64,1-2.94,6.28.58,1.12-.37,2.58-1.68,3.31,5.78,4.12,12.45,7,17.33,12.38,3.67,1.52,4.73-1.41,5.88-3.74,1.29-2.64-.78-4-2.39-5.66-2.74-2.78-6.92-2.74-11-5.86a127.3,127.3,0,0,1,12.83.81c4.25.43,5.52,5.42,6.62,9.35,1.37,4.84,4.09,6.18,8.54,3.89-.94-6.93-4.71-12.67-7.7-18.74-3.73-2.34-6.84-5.24-8.25-9.63-3-1.22-3.09-5.93-7.07-6C745.78,789.11,743.86,789.72,742.67,791.77Z" fill="#bda588"/><path d="M953.44,594.55c3.5,0,4.65-2.9,6.54-5.06,6.35-7.24,11.81-15.21,17.65-22.8,6.62-8.6,10.11-19.34,13.5-29.8-.74-3.8-2.69-4.5-5.48-1.91-2.27,2.12-4.61,4.18-6.69,6.5-1.53,1.72-3.08,3.35-5.62,1.73-2.19,0-3.53,1.31-4.65,3-1.51,3.21-1.65,6,2,8,3.46,1.89,5.62,1.06,7.75-2.24a16.31,16.31,0,0,1,4.37-4.69c-6.94,7.66-13.15,15.81-17.62,25.2-4.19,3.18-7.44,7.28-10.78,11.3a2.85,2.85,0,0,0-.14,1.8c1.18,1.22,1.56,2.29.13,3.83C953.18,590.74,951.8,592.46,953.44,594.55Z" fill="#e8a147"/><path d="M904.63,789c1.21,10.48,10.31,14,17,19.75,4.76-3.16,6.79.39,10.21,3.12,4.86,3.87,11.46,1.41,17.29,1.27,1.37,0-.17-2.35.14-3.59-10.19-5-20.69-9.41-29.62-16.67-3.38,2.43-6.3.62-9.33-.92C908.39,791,907.32,788.39,904.63,789Z" fill="#6f4027"/><path d="M770.76,823.15c-4,.32-6.49-.28-7-5.47-.32-3.21-3.31-6.2-5.3-9.16-.9-1.34-2.78-2.49-4-1.22-2.51,2.62-4.37,1.77-6.93.11a3.44,3.44,0,0,0-5.37,1.93c-.89,2.73.67,4.18,3.53,4.16a8.21,8.21,0,0,1,5.49,1.74c5.75,4.42,5.82,5.12-.7,9.36,1.52,4.19,5,7.4,5.85,11.94,1-4.55,6.1-4.79,8.33-8.13,1.09-1.63,2.48-.46,3.15.68,1.43,2.44,3.68,2.11,5.87,2.12C775.4,827.53,773.46,825.2,770.76,823.15Z" fill="#d0bda4"/><path d="M953.44,511.32c-6.86,1.95-13.69,4-20.58,5.82-20.6,5.34-37.65,17.35-54.66,29.44-.8.57-1.12,1.83-1.66,2.77a3.8,3.8,0,0,0,3.65.69c2.94-1,5.56-2.91,8.69-3.49a7.81,7.81,0,0,0,3.28-1.84c7.53-6,15.56-11.19,24.8-14.19a12.6,12.6,0,0,0,1.78-.74,13.84,13.84,0,0,0,2.42-1.66c8.91-4.62,18.7-6.75,28.1-10,1.45-.5,3.06-.54,4.28-1.65C954.75,514.76,956.14,513,953.44,511.32Z" fill="#dba471"/><path d="M712.89,549.13c-5.28-3.2-3.62-5.26,1.1-6.8a9.61,9.61,0,0,1,1.34-.18c3.77-.65,5.87-3.81,7.16-6.63,1.57-3.44-4.12-2.4-4.68-5.73,3.6-.55,7.2-1.23,10-3.85,1.16-1.08,2.91-1.81,1.88-3.71s-2.37-3.42-4.87-2.33a53.29,53.29,0,0,0-6.72,3c-1.8,1.08-2.3.53-2.6-1.16a219.24,219.24,0,0,0-12,35.58c3.93-3.36,9.16-2.14,13.71-3.6C717.08,550.56,713.7,551.14,712.89,549.13Z" fill="#514235"/><path d="M904.63,789c2.84,3.92,6.89,5.75,11.34,7.23,3.75,1.25,3.43-1.14,3.64-3.35-12.55-11.59-22.59-25.44-33.73-38.3.74,2.24.68,4.28-1.45,5.79-3.88,2.07-.54,4.36.46,5.31,4.78,4.52,6.82,11.52,13.26,14.54,2.91,1.37,1.72,6.11,5.16,7.38Z" fill="#4d2c1c"/><path d="M598.2,812.34c13.36-3.77,26.44-8.72,40.45-9.73.92-1,.93-2.52-.13-2.89-5.49-1.91-10.66-5.79-17-3.3-4,1.57-9.82-1.46-12.08,4.86-.21.59-2.24.43-2.89-.71-1.14-2-2.87-1.87-4.7-1.67-3.14,1.69-9.79.32-6.56,7.6.2.46,0,.38-.53.65-2.06,1-4.57,2.6-2.9,5C593,813.76,596,813,598.2,812.34Z" fill="#53413d"/><path d="M710.15,588.35l-9.31,2.75c2.11,5.34-2.92,6.14-5.36,8.6h0c-3.9,1.49-6,4.85-8.15,8.09q-3.48,8.13-7,16.26c5.22,1.52,8.34-2.32,10.64-5.51,5.1-7,10.41-13.9,16.11-20.44,2.11-2.43,2.62-5.56,4.33-8.12C711.84,588.76,711.43,588.2,710.15,588.35Z" fill="#b68550"/><path d="M953.44,511.32c1.32,1.32.26,2.66,0,4,6.25,6.33,13.1,2.19,18.63-.32,6.68-3,12.91-4.51,19.94-3,3.82-.76,5.09,2.58,7.2,4.56,2.28-11.81-.28-14.81-11.74-12.43S964.37,506.92,953.44,511.32Z" fill="#c17a45"/><path d="M602.33,800c2.87-.47,2.54,5.4,6.42,3.24,1.19-.67,4.15.86,2.57-2.62-.15-.31.44-1.19.9-1.52,3.49-2.55,22.92-.87,26.1,2.24.27.26.23.85.33,1.28,8.57,1.13,17.14,1.77,25.72.1-1.64-2.21-4.09-1.19-6.19-1.59-1.54-.3-3.17-.63-3.93-2.17-2.55-5.21-2.23-4.11-6.73-3s-10.11,4-14.29-1.51c-4.62-6.07-10.15-2.08-15.39-1.45-3,1.63-6.44,1.25-9.51,2.28C606,796.1,602.37,795.93,602.33,800Z" fill="#7a6052"/><path d="M842.9,576.2c-1.13,3-3.68,4.82-5.88,6.92-2.94,1.46-5.53,3.23-5.94,6.9.17.67.81,1.63,1.14,1.43,5.25-3.21,7.41-.1,9,4.34,4.16-.1,4.4-4.14,6.4-6.42a77,77,0,0,1,8.66-11.21c4.2-5.15,5.21-10.75,2.34-16.9-5.48.79-6.05,6.81-9.88,9.43C846.55,572.18,844.83,574.34,842.9,576.2Z" fill="#e0cfb1"/><path d="M835.86,666.45c-.2-2.28-4.64-3-1.7-6.65,6.84-8.6,7.94-9.29,15.12-5.8,1.06-3.35,1.75-6.87,4.29-9.55,0-1.88-1.3-2.18-2.72-2.39-6.1.37-10.24,4.19-14.26,8.23-5,2.63-10.07,5.21-13.52,10-3.53,7.75-3.53,7.75,6.93,16.33,1,.72,2.07,1.38,3.38.65C836.12,674.11,832.32,669.42,835.86,666.45Z" fill="#6d432f"/><path d="M580.41,745.31c.23-2.38.12-5.67-3.09-3-10.42,8.59-26.23,8.86-33.45,22.24a1.11,1.11,0,0,1,.47,1c2.61,3,3.79,4.51,7.47-.26,4.46-5.76,12.81-7.45,18.52-12.5C573.45,750,577,747.77,580.41,745.31Z" fill="#41321f"/><path d="M842.54,434.69c2.14,3.34-5.16,2.75-2.57,5.81,3,3.57,4.45-2.15,7.11-1.76.88.13,1.78.15,2.67.22,9-9.72,18.44-19,24-31.39-.85-4-3.15-2.67-5.4-1.52l-1.45,1.56A157.93,157.93,0,0,1,842.54,434.69Z" fill="#2c2925"/><path d="M937,993c-.41-8.39-1.5-16.74.81-25.1,1.83-6.58.18-13.37.18-20.21-4.5,5.72-1.39,13.38-5.12,19.18-1.05,9.35-3.09,18.65-1.49,28.14.3,1.81-1,4.73,1.85,5,2.11.18,3.19-2.12,3.5-4.29C936.83,994.81,936.89,993.9,937,993Z" fill="#d99c5e"/><path d="M973.44,543.86c1,2.29,1.51,5.15,4.51,1.19,2.36-3.11,5.95-5.28,8.22-8.43s3.4-1,5,.27q3.48-8.77,7-17.56c-.75-1.8-2.12-2.38-3.7-1.37-5.85,3.71-12,7.19-13.82,14.74-.38,1.57-.76,3-2.64,3.39a5.84,5.84,0,0,0-2.27,1.46C974.63,539.55,973.27,541.43,973.44,543.86Z" fill="#cf7c2c"/><path d="M966.83,928.41c.64-8.5-3-17,.06-25.54.77-2.17-1.15-3.29-2.93-3.83-2.58-.78-2.11,1.56-2.57,2.86-3.95,11.16-2.69,22.11,1.36,32.93C963.3,932.17,965.27,930.43,966.83,928.41Z" fill="#e4ad70"/><path d="M977.53,536.86c2.23.81,4.34,3.45,4.78-2.18.34-4.4,1.31-10.32,8-11.15,3-.38,3.05-6.77,7.78-4.2a2.91,2.91,0,0,0,1.16-2.76c-.67-4-1.07-8.3-7-5.56-6.74,3-11.82,7.27-13.23,15.1-.51,2.81-2,5.4-2.78,8.2C976,535.33,975,537.1,977.53,536.86Z" fill="#b55b21"/><path d="M602.33,800c3.86-4.68,10.53-1.72,14.72-5.52-1.61-2.34-1.69-2.35-6.81-1.51-8.25.24-14.71,5.9-22.58,7.77-3.61.86,2.32,2.33,2.91,4.74-5.21.91-3.78,4.57-3.13,8,3.58-.39,7.37,1.31,10.76-1.09l-7.32-.46C596.61,808.59,595.14,800.55,602.33,800Z" fill="#ab8c73"/><path d="M786,569.48c7.32,1,11.25-4.82,15.3-9,2.46-2.54,5.39-5.87,6.09-10a2.07,2.07,0,0,0-1.53-1.76c-4.18,0-7.15,2.29-9.67,5.29-3.8,4.52-8.74,8.2-10.43,14.29A2.22,2.22,0,0,0,786,569.48Z" fill="#bd8256"/><path d="M952.27,974.26c1.56-4.67,0-9.48.61-14.2a7.24,7.24,0,0,0-.27-1.88c-7.23,3-2.07-4.32-5.36-5.54a194.87,194.87,0,0,0-3.7,30.55c4.05-.68,4-4.84,6.74-6Z" fill="#dba264"/><path d="M916.08,955.89a83.5,83.5,0,0,0,.63,14.65c.3,3,1.43,6.15-2.27,8.93-2.48,1.86-1.61,6.1-.13,9.26,3.06-.55,4.29,1.37,5.35,3.79.61,1.4.83,3.77,3.46,2.52-3-10.48-.39-21.53-3.15-32.06-.74-2.8-1-5.73-1.41-8.6C917,953.56,916.61,954.89,916.08,955.89Z" fill="#dea163"/><path d="M962.46,951.34c-.15-3.55-1.23-6.87-2.33-10.52-2.2,2.12-1.86,4.58-1.88,6.86,0,3,.22,6.07.27,9.11.06,3.52,1.54,2.09,3,.92C961.83,955.59,962.14,953.47,962.46,951.34Z" fill="#d9965a"/><path d="M718.2,517.76c3.87-2.41,8.35-.63,12.52-1.76-.21-2.84-2.58-3.39-5.42-4.39,4.44-1.17,8.11-.54,9.62-5.76,1.57-5.44-3.7-4.79-4.71-7.57a32.92,32.92,0,0,1-9,11.53C718.85,511.68,718.67,514.89,718.2,517.76Z" fill="#514235"/><path d="M842.54,434.69a55.09,55.09,0,0,0,24.36-27.08c-4.08,2-6.66,5.7-9.75,8.8-5.47,5.5-10.75,11.18-16.11,16.78Z" fill="#5e5651"/><path d="M850.62,643.1a3.21,3.21,0,0,1,3,1.35,123.65,123.65,0,0,1,35.5-14.81,84.38,84.38,0,0,0,8.72-3.19c-.32-2.51-1.73-1.68-3.39-1.42-6,1-11.42,4.66-18,3.12-1.62-.39-.57,3.53-3.19,4.38-5.49,1.78-10.37,5.22-16.15,6.33C854,638.86,851.15,639.14,850.62,643.1Z" fill="#ae6b3c"/><path d="M987.26,824.26c-.23-4.22-.82-8.34-3.3-11.93l-8.74,0c.72,5.53,3.94,10,6.07,15C984.34,828.41,986.72,828.15,987.26,824.26Z" fill="#b47a50"/><path d="M858.61,561.26c-.52,5.68,1.16,11.89-3.94,16.44,2.83,1.95,4.29-.44,6-1.92,2.5-3,5.07-6,5.85-10-.39-3.11.82-5.56,2.83-7.86,1.19-1.37,3.6-2.18,2.75-4.79C866.82,554.45,861.74,556.21,858.61,561.26Z" fill="#ddaa7b"/><path d="M909.24,994.65c-1.65-7.57-3.27-15.15-5-22.71-.34-1.56-.92-3.08-3-2.84a3,3,0,0,0-.21,4.09c1.59,6.25-2.42,13.43,3.1,19Z" fill="#cc8f53"/><path d="M805.9,548.71l1.53,1.76c8.51-.79,16.67-2.3,21.6-10.56-5.63,1.22-11.33,2.18-16.84,3.79C809.67,544.43,806.36,545,805.9,548.71Z" fill="#c38f61"/><path d="M559,795.82l.63.09.64,0c1.24-1.73,3.26-1.11,4.9-1.64a13.15,13.15,0,0,0,1.74-.58c.86-.3,1.71-.6,2.54-.93,1.67-.67,3.73-1.29,3.08-3.66s-2.75-2.7-4.92-2.61c-1.76.07-3.28,1.6-5.1.92a1.67,1.67,0,0,1-.46-1.9c.46-1.86,2.85-3.83,1-5.54s-3.57.71-5.17,1.71c-1.36.85-3.08.72-4.32,1.8-2,1.72-.74,3.07.64,4.16a3,3,0,0,1,1.08,3.89Z" fill="#af9679"/><path d="M868.35,406.05c1.91.12,4.06-.67,5.4,1.52,3.83-6.09,7.15-12.42,9-19.6A69.67,69.67,0,0,0,868.35,406.05Z" fill="#5e5651"/><path d="M872.14,553.09c-2.93,3.75-8.77,6-6.41,12.5,7.7-3,11.92-9.06,14.59-16.55l-3.78.31Z" fill="#a2603c"/><path d="M953.44,594.55c.21-3.81,3.3-5.47,5.84-7.42-1.19-2-3.72-.55-4.61-2.46-5.21-.38-7.8,3.85-10.22,7s1.16,3.53,3.51,3.78c1.68-1.09,3.33-3.07,5.12-.13A.74.74,0,0,0,953.44,594.55Z" fill="#d3783a"/><path d="M976.38,914.19l-2.54-3.91c-.6,5.26-1.3,10.52-1.72,15.79-.13,1.66-.75,4.68,2.9,3C976.8,924.21,976.49,919.19,976.38,914.19Z" fill="#e6b078"/><path d="M730.45,497.31c4.13-3.86,9-2.87,14.44-1.72-1.45-4.18-5.79-3.69-7.62-6.25C731.84,489.24,730.85,493,730.45,497.31Z" fill="#514235"/><path d="M695.48,599.7c6.43-1.87,8.35-5,5.36-8.6-1.32.46-2.52.59-3.07-1.11-1.92,2.82-1.83,3,2.25,3.4Z" fill="#e5ded0"/><path d="M687.32,607.78l8.15-8.09C690.42,600,688.4,603.4,687.32,607.78Z" fill="#e5ded0"/><path d="M871.6,959.54c-1.15,3-1.77,6.21.71,10C874.16,965.52,871.35,962.69,871.6,959.54Z" fill="#cc8f53"/><path d="M969.56,850.22c-1.44,5.41-5.32,2-7.59,1.56-4.54-.82-7.36-1.34-3.93,4.7-3,.14-6.46-2.34-7.89.23-1.59,2.87,2.12,5,3.59,7.55-2.45,1.78-4.14-2.41-6.82-.51,1.43,3.68,4.49,4.25,7.86,4.29a1.55,1.55,0,0,0,1.19-.22c1.07-.72.58-1.89.83-2.85.41.9.4,1.91.73,2.83a3.18,3.18,0,0,0,1.22,1.45c4.59,10.51,9.49,20.92,11.71,32.42,4.9-11.52-2.32-21.75-4.59-32.65l-.9,4.52a44.92,44.92,0,0,1-.81-17.93,64.89,64.89,0,0,0,5.68,13.69C971.35,864.47,971.22,855.59,969.56,850.22Z" fill="#dea05f"/><path d="M970.73,813.69c-1.19,1.51-3,2.57-4.64,2.31-6-1-11-.85-13.44,6.32-.83,2.41-3.41,3.71-5.74.2-.66-1-1.59.76-1.8,1.86.66,3.84,2.86,5.76,6.79,5.51l1.37-1.33c3.77-.45,7-2.79,11.5-.15,2.81,1.64,6.21-3.17,9.13-5.42C973.34,819.72,973.21,816.3,970.73,813.69Z" fill="#b6754b"/><path d="M987.26,824.26a8.75,8.75,0,0,1-6,3.1c3.9,11.69,2.86,24.73,10.24,35.78q1.74-9.81,3.47-19.62c-4.08.12-5.2-2.71-5.87-6-.53-2.58-.08-5.21-.47-7.79C988.23,827.91,988.78,825.82,987.26,824.26Z" fill="#dea05f"/><path d="M973.9,823c-2.26.59-4.83.49-6.38,2.73-2.21,3.18-3.37,2.55-4.6-.85-.42-1.15-3.52-2.36-3.86-1-.85,3.44-5,1.77-5.79,4.69,3.43,3.7,7.3,6,12.07,2.57,3.71-2.63,7.12-.75,10.67.09C975.31,828.48,974.61,825.73,973.9,823Z" fill="#d18c4e"/><path d="M947.49,948.15c8-13.18,8-13.48,3.11-28C948.77,929.77,946.37,938.26,947.49,948.15Z" fill="#dfa264"/><path d="M980.12,866.63l-3.71,0c-.07,6.5-4.7,13,.19,19.5C984.15,880.83,979.45,873.22,980.12,866.63Z" fill="#dea05f"/><path d="M989.24,889.68c3.25-8.65,0-15.93-1.14-24.32C983.9,874.07,987,881.35,989.24,889.68Z" fill="#e4ad70"/><path d="M957.72,880.4a76.23,76.23,0,0,0-3.36,20.94C960.49,894.83,961.09,888.21,957.72,880.4Z" fill="#e3ac75"/><path d="M968.21,840.63c-1.59,3.79-3.37,7-8.41,4.53a2.34,2.34,0,0,0-3.17,1.71c-.5,2,1.27,2,2.52,2.12,3.48.44,7,.81,10.45,1.21C969.38,847,970.23,843.59,968.21,840.63Z" fill="#dea05f"/><path d="M921.31,931.52c-3.33,3.43-.53,7.75-1.63,11.5.54,2.29.94,4.66,4.3,6.51C923.34,942.92,926.35,936.78,921.31,931.52Z" fill="#dda15f"/><path d="M979.06,904.77c5.76-4.88,3.59-11.54,3.87-17.64C978.52,892.31,978.27,898.43,979.06,904.77Z" fill="#e4ad70"/><path d="M775.25,833.87c1.43,2.93,2.27,6.22,5,8.32,5.32,1.07,7,6,9.83,9.64,5.25,6.78,13.66,9,19.9,14.36,1.74,1.5,2.94,3.66,5,4.8,2.79-2.56,1.51-5.42.77-8.47,6.76,5.36,13,10.81,14.93,19.55.64-.2,1.22-.21,1.41-.49a29.54,29.54,0,0,0,1.69-3.15c.66,3.07,1.53,5.61,4,6.62-.37,2.77-2.25.93-3.21,1.61a2.77,2.77,0,0,0-.89,4.11c.79,1.25,2.16,2.13,3.19.45,2.31-3.8,4.4-1,5.86.42,2.07,2.06,2.78,5.46,0,7-6,3.32,2.35,6.7-.47,9.75,3.22-2.27,6.89,2.4,10-.59,2.16-2.1,5.36-3.87,2.46-7.84-2-2.74-1.25-4.19,2.36-3.59,3,.49,4.34-1.37,5.92-4.89-6.21,3.14-9.92,1.52-12.83-3.64-2.08-3.67-8.36-2.34-9.82-7.34.39-.19.74-.53,1.07-.5,2.36.19,3.84,5.25,6.69,1.7,2.06-2.57-1.4-4.3-2.42-6.2-1.95-3.67-3.15-8.94-9.92-5.82-2.31,1.06-5-3.1-7.8-4.46-4.14-2-1.57-4.91.33-7.4.9-1.19,0-2-1-2.69-8-5.58-10.43-12.77-7.77-23.51.49.58,1.21,1,1.22,1.51,0,3.18-.57,7.5,3.48,7.66,4.52.17,10.19.27,11.09-6.78.5-3.84,2.59-4.47,5.42-1.84.82.76,1.23,3.56,2.52,1.82,4.83-6.5,10-2,15.1-1.07.35.07.78-.2,1.35-.37-1.61-2.46-5.39-2.77-5.88-6.1a5,5,0,0,1,.37-2.5c.08-.2,1.24-.2,1.75,0,1.51.71,2.21,4.4,4.62,1.56,2.2-2.58-2.59-3.16-2-5.74,3.32-1.31,5.89,1.38,7.53,2.88,2.62,2.39,5.17.43,7.57,1.29.8.29,2.07-.84,1.57-1.53s-2-.56-3-.79c-1.66-1.61-2.18-4-4.07-6.08,4.19-.84,5.38-2.76,3.77-7-2.39-6.36-7.79-9.17-12.64-12.74-1.16-.86-3-1.05-3.58.37-3.1,7.43-8.25,2.94-12.67,2.77-.17-1.05-.08-1.82.43-2.23,3.67-3,11-5.55.87-9.78.28-4.69-3.82-7.51-4.89-11.64-1-3.89-3.76-5.43-7.51-5.52s-5.44,1.67-5.41,5.35c0,.69-.18,1.56-.76,1.81-7.14,3-2.32,7.19-.83,11.67-1.9-2-2.75-4.64-5.61-4-1.95,1.23-2.4,3.06-2.07,5.21,2.92,2.25-3.58,6.84,2,8.54.44.13-.43.28-.59.31-3.7.68-4,3.77-4.62,7.43-2.51-3.32-6.9-3.6-8-7.94-.32-1.33-2.42-2.27-3.28-1.29-2.39,2.73-6.71,2.13-8.57,4.85-4.23,6.21-8.07,12.84-6.58,20.86.71,3.82,3.54,4.2,6.76,2.84,5.14-2.18,9.44-.76,13.22,2.86.63.84-.85,1.49-.19.88.11-.1-.19-.67-.6-1-5.67-4.22-10.73-2.84-15.48,4.2-1.18,1-1.5,2.51-2.19,3.8-.21-2,2.57-2.87,1.93-5.08-2.44-2.29-5.68-2.29-8.64-3.1C777.3,826.6,774.89,828.47,775.25,833.87Z" fill="#d18c4e"/><path d="M819.63,784.94c3.08,1.21,3,5.69,6.65,6.43,2.3-2.49-.36-4.81-1.11-6.39-1.55-3.3-4.32-5.74,2.13-5.87,1.67,0,1.71-1.83,1.24-3.22-.7-2.06-1.45-4.12,1.78-4.53,3.07-.4,7-.06,7.26,3.14s.89,5.49,3.82,7c.59.31.84,1.59.94,2.46.71,6,.68,6,6.1,6.48-.37,3.52-3.93,2.28-5.6,3.85s-3.32,2.93-2.25,5c.55,1.09,1.69,5.35,4.29,1.14.12-.2,1.38-.06,1.73.3,5.11,5.21,7.56,1.83,9.56-3,.41-1,1.12-1.8,1.92-1,3.82,3.73,9.5,5.29,11.85,10.75,2.11,4.9,1.56,7.56-4.93,6.57,3.28,1.85,2.37,7.24,7.16,7.55,0-.44.07-.88.1-1.32,4.63-3.07,5.06-10.16,11.43-12,.85-.24,3-4.77,3-6.3-.57,1.92-.48,5.43-.79,8.9-.26,3-1.84,6.06,2.42,7,4.53,1.05,3.56-3.35,4.89-5.78-.06,1.69.36,2.77,1.73,3.41,2.3,1.08,5.93,1.46,2.79,5.54-.52.67.5,2.36,1.51,2.76,3.83,1.51,4.87,3.32,2.6,7.41-1.12,2,1.35,4.52,3.94,4,4.86-.9,7.1,1.23,8.27,5.62.49,1.84,2,4,3.57,1.32,2.09-3.62,6.39-5.93,6.25-10.84,3.09.37,5.43,2.77,8.53,2.4,1.37-.16,2.92-.37,3.26-1.88.26-1.17-.92-2-1.87-2.59-2-1.23-4.45-1.62-6.17-3.51,10.88,6.5,11.93,6.48,14.87-.2-3.13-4.26-5.78-9.22-12.57-5.63-2,1-4-.09-5.74-2.13-5.91-6.73-12.9-11.78-23.53-11.47,5-5,2.93-7-1.64-10-3-1.95-2.19-7.57-2.49-11.66.57-1.55-.26-2.41-1.46-3.08-1.56.16-3,.36-4.12-1.31-2.65-3.88-6.42-4.52-10.68-3.34-2.55,1-4.79,1.61-7.5-.34-4.53-3.27-4.82-3-5,3.11,0,.82.31,1.84-1,2.23-.9-1.85.79-3.34.66-5.12a4.73,4.73,0,0,0-2.7-4.3,3,3,0,0,0-4,1.41c-1.75,3.19-4,2.51-6.83,1.86-3.25-.77-3.65-.3-7.86,4.1,2.55-8.4-7.13-11.29-6.41-18.47a4.4,4.4,0,0,0-1.1-1.62c-.86-.32-1.87-.07-2.64-.37-8.8-3.39-12.88,3.56-16.33,8.89C816.56,773.18,818.64,779.43,819.63,784.94Z" fill="#c37b47"/><path d="M942.52,825.74l-3.91-1.5c-.94,2.28,3.75,2.84,1.38,4.67-1.11.86-3.06.09-4.87-.62-4-1.57-7.48-4.74-13.75-4.5l13.5,8.11c-4.43,2.39-6.9-1.76-10.28-2.32-1.49-.25-4.37-.28-3.94.24,5.7,6.93-6.7,7.11-4.22,12.79-1.65-3.53-1.56-7.1-6-9.32-2.76-1.38-2.89.2-3.92.81-1.72,1-2.51-.09-3.33-1.11-1.1-1.37-.34-2.54.72-3.49,2.84-2.55,2.66-4.44-1.06-5.36-2-.48-3.69-1-4-2.85-.44-2.55,2.63-1.78,4.3-3.78-3.79.87-3.66-4.81-7.95-3.39-1.09.36-.27-1.54.38-2.35,1-1.26,1.16-2.66-.48-3.28s-2.37.69-2.72,2.15c0,.22-.06.54-.2.63-2,1.31.89,6.77-3.86,5.34s1-3.86,0-5.74c-2.38-4.63,1.82-9.5-.84-14.14-3.57.71-.37,8.2-6.26,6.76,5.33,7.1-3.72,4.1-4.87,6.78-.24.56-1.07,1.06-.71,1.9,1.5,3.51-.92,4.3-3.38,5.16-1.79.62-1.77.69,0,3,5.27.29,11-.71,15.34,3,3.51,3,3.29-4.45,6-1.7,1.94,2-2.73,5.29,1,7,5.52,2.51,1.77,7.26,1.89,10.47s2,4.38,2.13,7.21c1.81-1.73,0-4.73,2.71-4.73a3.34,3.34,0,0,1,3,3.17c.18,3.87,3.95,3.53,5.29,3.38,5.29-.59,11,1.19,15.86-2.58,1.07-.83,2.67-1.2,2.48,1.25-.08,1,.54,2.28,1.29,1.87,4.13-2.3,8,1.34,12.15.26,4.45-1.14,5.14-1.5,2.69-5.56-.89-1.46.26-1.58.71-1.76,2.55-1,1.61-5.82,6-5.07,2.16.38,2.92,2.35,4.71,2.95,2-4.54-3.92-5.89-3.59-9.66l-6.79-5.51Z" fill="#d18c4e"/><path d="M863,827.76a3.09,3.09,0,0,0,2.74,3.23c.91.15,1.93-.09,1.91-1.22,0-1.61-.63-3.12-2.32-3.65C864,825.72,863.24,826.47,863,827.76Z" fill="#d18c4e"/><path d="M623.81,782.05a12.06,12.06,0,0,1-8.14,7c3.61,4,10.31,4.25,13.32.09,1-1.4,1.39-1.87,3.25-2,9.52-.6,19-.37,28.49-3,6.57-1.82,14-1.63,21.07-.66h0a25.73,25.73,0,0,1,13.73-2.63,23.83,23.83,0,0,0,12.78-2.5c5.25-2.57,6.66-1.47,7.61,4.22.4,2.45.51,5,1.59,7.28a2,2,0,0,0,1.65.9,30.61,30.61,0,0,1,9.38-3c3.58-.46,7.53-1.14,8.89-5.57-8-4-15-9.78-23.34-13-2.12-1.52-4.14-3.56-7-1.36-1.75,1.57-3.41,3.55-6,1.3-1.43-.89-2.83-1.41-4,.39q-2.83,6.65-8.62,2.37a6,6,0,0,0-1.88-.2c-3.86,1.54-7.47,4.16-12.06,2.37a3.79,3.79,0,0,0-3.74,1.14c-3.57,3.51-7.14,4.5-11.12.57-1.1-1.09-2.53-.56-3.7.31-8.64,6.44-17.17,5.14-25.64-.38a13,13,0,0,0-3.85-.72c-2.87-.19-5.8.34-8.6-.71-.59-.29-1.49-.45-1.67-1-.62-1.91,1.15-1.57,1.91-1.53,3.42.2,6.67.92,6.68-4.55,0-3,2.84-.49,4.27-1.12,1.84-.8,4.06-1.4,4-3.8,0-1.75-2-1.07-3-1.42,4-.09,8.58.95,10.94-4.08-.34-2.48.74-4.83.66-7.29a9.5,9.5,0,0,0-2.49-2.79c-5.07-2.57-7.88,1.47-10.71,4.24-1.36,1.33-2,3.47-4.15,4.08-3.13.9-7.16,3.6-9.31.71s2.67-4.36,4.17-6.62c.5-.77,1-1.47.46-2.42-5.08-2-9.39-.26-13.43,2.79-.06,1.7,1.86,3.09,1.69,4.1-.44,2.66,2.84,7-3.72,7.54-3.06.23-5.88,3.93-8.81,6a5.08,5.08,0,0,0,2.91,2.34c2.94,1.07,5.63-.35,8.65-1.52-.69,1.93-2.14,2.32-2.79,3.45a10.58,10.58,0,0,0-1,4.76,33.46,33.46,0,0,1-.56,4.88,3.76,3.76,0,0,0,.79,2.73c2.59,0,5.14-1.26,7.76-.19C615.42,783.45,619.29,780,623.81,782.05Z" fill="#dac6ae"/><path d="M772.48,594.14c-2.36,1.12-3.4,4.29-6.51,4.2-8.63,1.68-17.4-.31-26,1-3.38,1.81-7.91-.62-10.83,2.94l4.06,2.67c1.33-.85,2.46,0,3.78.44-1.36,0-2.46-1.16-3.77-.43-.21,1.07-.92,2.38-.55,3.18,3,6.35-2.51,10.81-5.58,12.21-8.72,4-2,9.64-.44,10.46,3.66,1.87,2.16,5,1.79,6.1-.94,2.88-2.25-1-3.83-.61-1.28.29-2.66,0-3.56,1.31,4.39,6.89,9.14,7.24,15.37,1.16,1.53-8.51,5.08-11.22,13.74-10.39,1.11.11,2.18.52,3.31.61,2.05.15,4.25.33,5.24-2s-2-2.57-2.78-4.71c3-1.21,6.33-2.83,3-6.2.69,2,2.94,2.48,5.22,2.1,4-.67,7.59-2,10.57,2.7,1.19,1.87,3.36-.18,3.31-2.26a6.89,6.89,0,0,0-3.73-6.2c2,.26,3.82-1,5.6-2.34a3,3,0,0,0,1-1.56c-.44-3.33-2.88-4.66-5.68-5.71.73-2.42,4.51-1.92,4.53-4.92C778.42,594.48,775.69,593.85,772.48,594.14Z" fill="#dfd8ce"/><path d="M619.69,746.68c-2.24,1.85-4.63,3.53-6.67,5.57-3.16,3.17-.42,5.49,1.83,7.07,1.69,1.19,15.19-4,14.91-5.43-.9-4.81,4-4.09,5.5-6.52.67-1.1,2.45-.73,3.46.55.42.33,1.12.38,1.11.15-.13-7.9,6.9-9.35,11.66-11.42,5.33-2.32,9.07-6,13.24-9.53,1.95-3.21,5.47-4.39,8.27-6.51a7.18,7.18,0,0,0,2-2,4.94,4.94,0,0,0,.65-4.61c-1.61-2-3.73-3.41-5.6-5.12-2.21-1.55-4-1.16-5.83.87-4,4.5-8.36,8.61-14.25,10.63a5.94,5.94,0,0,0-3.6,2.88c-3,6.69-9.86,9-14.88,13.35-3.15,2.74-5.47,6.38-9,8.72Z" fill="#bd9067"/><path d="M622.44,745.34c2.11.12,4.15-.27,5.45-2,3.78-5.13,8-9.51,14.4-11.43,1.72-.51,3.38-3.21,4-5.22a7.65,7.65,0,0,1,5.45-5.45c6.37-1.93,10.57-6.31,14.26-11.48,1.16-1.63,2.37-.29,3.56,0,3.65-.46,4-3.76,5.3-6.26a31.71,31.71,0,0,1,4.15-6.1,9.2,9.2,0,0,0,1.46-2.45c2.55-4.47,2.69-9.42,2.85-14.37,1.4-3.52,3.9-6.46,5.24-10,.49-3.5,2.84-6.65,2-10.41-.22-.24-.45-.48-.68-.71-4.42,4.7-8.41,9.19-11.54,15.45-3.53,7.07-4.36,15.8-9.58,21.37-8.76,9.35-14.23,22.83-29,25.46-4.29.76-4,5.76-5.25,8.73-1.45,3.33-2.14,4.89-5.77,3.2-2.19-1-4.36-.51-6.39,1.34,1.29,1.88,4.86-.27,5.16,2.64s-2.4,2-3.87,2.56C620.55,741.33,622.54,743.55,622.44,745.34Z" fill="#e0d1bd"/><path d="M735.85,637.68c-5,6.23-9.91,3.67-14.85,0L718.34,639c-2.57-1.38-3.85,0-4.77,2.23a3.68,3.68,0,0,0,.35,1.93,141,141,0,0,1,17.71,3,17.53,17.53,0,0,0,16.74-4.56c1.67,2.1,2.82,3.83.11,5.82s-3.08,4.32-.67,6.88c4.38-.28,7.9.27,10.24,5.14,2,4.26,7.5,3.5,9.06-1.05.64-1.84,2.28-1.94,3.1-3.17a3.89,3.89,0,0,0,0-3.7,3,3,0,0,0-3.1-.95c3-2.27,7.25-2.32,9.49-6,2-3.28,1.56-5.71-1.79-7.08-5.17-2.13-10.9-1.66-16.3-2.86-1.33-.3-1.74,1.85-2.8,2.6-1.76-.13-2.16-1.91-3.31-2.75a5.42,5.42,0,0,0-7.37-.84C742.17,635.5,738.47,635.34,735.85,637.68Z" fill="#d1c6b5"/><path d="M729.1,602.32c3-2.09,6.79,1.67,9.71-1.25-.2-1.74-1.52-2.68-3-3.89,4.9,0,9.47.38,14-.21,3.76-.5,4.64-2.08,1.82-5.24-5.69-6.39-13.72-7.67-21.24-9.23-4.17-.86-8.23-1.58-12.07-3.43-5.41.69-5.7,6-8.16,9.28l1.3,1.63a21.36,21.36,0,0,0,10.88,6C725.6,596.78,728.8,598.08,729.1,602.32Z" fill="#65503d"/><path d="M714.34,643.3l-.1-1.53a2.78,2.78,0,0,0-4,0c-7.15,3.44-13.89,7.29-19.45,13.32-1.69,1.84-1.56,2.63-1,4.28l.35.27c2.84.31,5.29-1.56,8.09-1.43,3.8-.58,6-3.51,8.55-5.91C708.82,648.9,713.88,648.05,714.34,643.3Z" fill="#e0d1bd"/><path d="M710.24,641.81l4,0a4.38,4.38,0,0,1,4.1-2.81l-6.6-8.48A21.6,21.6,0,0,1,710.24,641.81Z" fill="#dfd8ce"/><path d="M721,623.74c-.62-4.26-3.24-5-6.92-6.91C716,620.69,718.1,622,721,623.74Z" fill="#dfd8ce"/><path d="M718.31,579.07c1.55,4.36,5.25,5.17,9.1,5.29,9.64.29,18.12,3.06,25.24,11.21H729.92l8.89,5.5c9.11-.33,18.3.19,27.16-2.73l-7.38-.43c1.71-2.13,4.07-.23,5.89-1.81-5.58-4-6.09-11.66-11.57-15.79-1.11-.84-1-2.5-.08-3.71a2.28,2.28,0,0,1,3.47-.61c1.39.94,2.72,2.62,4.93.28-3.93-3.49-8.93-4.7-13.36-6.9-3.25-1.62-7.26-1.59-8.79-6.26-1-3-3.9-.17-5.93-.35-.79.94.83,3.72-2.21,2.94-1.09-.28-2.14-.65-3.2-1-3.24-1-7.24-2.59-8.58,1.8-1.44,4.74,3.22,4.26,6,5,1.08.3,2.58.3,3.06,1.2,4.1,7.68,12.66,6.45,18.75,10.07-7,.29-13.07-3.41-19.71-4.87-3-.66-6.48-3-9,1.15Z" fill="#534230"/><path d="M718.29,579.1c4.65-2.16,8.74.47,12.79,1.86,6.73,2.3,13.38,4.45,22.66,3.34a51.11,51.11,0,0,0-17.25-6.85c-1.55-.32-3.65,0-3.94-1.6-1-5.65-5.07-6.09-9.44-6.31-1.63-.08-3.58-.26-3.06-2.47.48-2,2.27-2.66,4.29-1.88,3.87,1.48,7.59,3.72,12.1,2.62.19-2.91-3-3-3.29-5-1-.42-2.72-.65-2.88-1.28-1.53-6-1.45-6.05-7.09-8.4-2.9,5.51-6.54,10.45-7.69,17C714.72,574.48,715.08,576.8,718.29,579.1Z" fill="#65503d"/><path d="M772.48,594.14c2.23,1.28,4.87,1.9,6.57,4.07,5.5,5.74,12.08,8.84,20.13,8.37a62.93,62.93,0,0,0,15.46-.51c5.67-.85,10.22-3.39,10.92-10-2.1-2.46-4.1-.38-6.06.23-6.7,2.06-13.36,3.57-20.52,3.1-3.81-.25-6.49-2.25-9.63-3.61-2.61.09-2.48,0-3.69-2.13-1.5-2.64-3.73-3.84-6.78-2.52-1.14.84-2.16,2-3.82,1.31A3.14,3.14,0,0,0,772.48,594.14Z" fill="#c6ad91"/><path d="M845.27,726.29c0-1.81.09-3.62.13-5.44-1.11-5.88,2.16-11.49,1-17.39-.84-4.33.67-9.65-6-11.08-4.1-.87-.34-5.37-2.34-7.56-7.13-1.75-7.75-1.29-6.8,5.49a19.89,19.89,0,0,1-.15,4.57A23,23,0,0,0,833.2,703c-.87,2.44,6.95,5.72-.74,7.47a6.13,6.13,0,0,0-1.77.53c-2.86,1.8-3.3,4.79-1.5,6.93,3.89,4.63,6.79,10.44,12.94,12.78A5.3,5.3,0,0,0,845.27,726.29Z" fill="#844b2a"/><path d="M837.1,685.39c-1.41,5.93-1.41,5.93,5.53,8.83,1.29.54,1.25,1.73,1.26,2.82.1,5.55,3.33,11.06-.79,16.71-1.36,1.87.31,5.09,2.3,7.1,1.42-.1,3.3-.69,3.21-1.91-.57-7.6,2.14-14.81,1.91-22.53-.19-6.33-5.87-9.7-5.36-15.58-5-.27-5.54-5-7.81-8a8.91,8.91,0,0,1-1.49-6.38c-7,2-1.05,7.4-2.79,10.79C831.6,681.37,835.73,682.68,837.1,685.39Z" fill="#4d2c1c"/><path d="M895,782.26l1.51,2.63c1.42,3,2.84,6.06,6.76,2.7-1.31-5.07-5.24-8.25-8-12.22-3.54-5-10.35-7.84-10.83-15l-2.75-2.72c-7.85,2.16-12.73-2.76-18.15-7.2-3.43-2.8-7.85-3.41-11.61.36-.42,5.28-1.16,10.4,7.31,8.74,1.48-.29,5.2,3.18,6.16,6.33,1.05,3.45,2.74,3.45,6.06,3,5.18-.76,10.61-.69,14.25,4.79C888.05,777.18,893,778.2,895,782.26Z" fill="#724225"/><path d="M852,750.82c6.79-2.76,12.75.38,16,5.29,3.48,5.32,6.48,4.13,10.57,2.46a28,28,0,0,1,3.16-.93c-3.44-2.49-6-5.9-11-6.48-6.83-.78-10.33-7.95-16.41-10.64-.26-.11-.24-1.19-.15-1.78,1.36-8.9.54-10.06-8.88-12.45a4,4,0,0,0-2.73,4.09,7.35,7.35,0,0,0,.55,2.66c.76,4.19.23,8.81,6.35,10,3.11.62,1.79,4.48,2,7Z" fill="#4d2c1c"/><path d="M778.88,591.16c1.23.43,2.49.79,3.68,1.3s2.85.85,2.21,2.45c-.28.71-2,.82-3.07,1.49,2.32-.21,4.52,1.39,6.81.23,2-2.75-.8-4.38-1.76-6.65,3,1.43,5.72,3,8.62,4a3.82,3.82,0,0,0,4.75-1.34c1.18-1.47.9-2.92-.08-4.34-2.91-4.22-4-9.52-7.62-13.32a10.56,10.56,0,0,1-6.44-1.31C783.17,579.34,785,586.92,778.88,591.16Z" fill="#a67353"/><path d="M791.22,832.6c.44-.09,1,0,1.3-.3,8-7.15,10.72-7,16.48,1,.22-8.71-6.62-13.5-14.51-9.68-5,2.41-4.72,1.33-5.54-3.73-1-6.45,6.52-9.36,4.51-15.58-.19-.59,3.58-3.66,5.15-3.39,2.73.46,5.25,2.76,4-2.57a2.61,2.61,0,0,1,1.56-.51c.56.19,1.41.95,1.34,1.34-1,6.17,7.55,4.23,8.11,9.55.08.79,3-2,2.76-3.25-1.61-6.9,3-5.39,6.64-5.24.4-4.21-2.46-3.43-5.32-3.3.14-2.31,5.85-4.44.57-6.61-5.09,1.7-10.19,3.67-14.56-1,.71-.09,1.31.77,2.11,1.16,1.13.54,2.39.67,3.09-.32a10.25,10.25,0,0,0,.79-10.39c-2.14-4.43-2.27-9.84-5.72-13.46-3-3.18-3.45-7.31-5.3-10.73-1.71-3.16,10.2-5.19,11.63-6.55,10.12-9.59-.56-8.5-.53-23.29a51.76,51.76,0,0,0-2-13.07c-4.42,1.58-9.78.46-13.3,4.67-1.71,2-2.16,4.52-2.66,7-.18,4.07-5.28,4.87-5.74,8.76a25.68,25.68,0,0,0-.62,14c2.32,10.12-4.17,16-9.06,22.74a25.18,25.18,0,0,1-6.45,5.93c.22-3.73-1.7-5.13-4.7-4a20.71,20.71,0,0,1-7.89,1A12.4,12.4,0,0,0,749,780.3c1.74,2.15,4.72,4.2.1,6.59a2.6,2.6,0,0,0-1.11,3.37c3.83-.11,1.87,7,6.75,5.53,1.22-1.19.63-2.45.13-3.71,2.9,2.62,6.08-.28,9.2.5,6.27,1.59,6.32,1.37,8.5-4.1,2,4.8-1.11,8.42-1.74,12.32-.89,5.52-5.59,4-9.15,4.49l9.08,17.86,2.91,8.06,1.58,2.66c.87-4.25,3.35-5.34,7.31-4,2.87.95,6.1.77,8.66,2.75Z" fill="#c5844b"/><path d="M604.91,776.7c0-1.77,0-3.54,0-5.32-2-1.64-5.46.39-6.79-2.83a2.84,2.84,0,0,0-2.72-1.39c-4,1.53-3.85,5.75-5.69,8.69-1.35,2.17-2.49,6.91-5.73,1.26-.67-1.16-1.62-.92-2.82-.34a19.88,19.88,0,0,1-19.27-.45c-4.88-2.63-7.63-.06-8.39,7.11,4.15.47,4.15.47,8.72-3.12,1,2.08-1,2.72-1.85,3.79-1.26,1.58-1.95,3.16-.49,4.85s3.18,1.47,4.83.28c2.39-1.75,4.7-2.6,7.17.29-1.22,2.63-4.91.76-6,3.34,3.5,3.48,7.77,1,11.64,1.53a5.31,5.31,0,0,0,3.65-1.33c5.7-5,11.77-9.6,17.17-15,1-.22-2.12-4.12,1.68-1.88C601.56,777.1,603.12,778.32,604.91,776.7Z" fill="#ccbca4"/><path d="M681.8,783.46a10.58,10.58,0,0,0-8.67-2.4c-12.7,1.85-25.46,3.18-38.17,4.93-3.2.43-5.2-2.65-8.49-2.19-1.25,2.24,3.79,4,1.27,5.39a12.13,12.13,0,0,1-12.07-.18c-2.68.1-4.14,1.9-5.43,4,1.89,2.25,4.65.52,6.81,1.51,5.39.24,10.79-3.55,16.18,0,9.35-1.62,17.66-6.43,26.78-8.88,7.37-2,12.19-.25,16.51,7.58,1.86,1,3.52,1.49,4-1.43C682,789.14,682,786.32,681.8,783.46Z" fill="#bfad95"/><path d="M718.16,790.51c-.07-3.54.43-7.23-.38-10.59s-2.39-7.15-7.35-4.28c-6.46,3.74-13.68,3.74-20.8,3.75-3.45,0-6.17.8-7.8,4.06,1.82.69,3.27,2.49,5.54,1.8,4.55-1.39,8.42-1.34,11,3.77.7,1.36,3.39,1.69,5.17,2.49,1.47,3.88,4.39,2.59,7.11,2C713.18,792.54,716.05,792.47,718.16,790.51Z" fill="#bfad95"/><path d="M718.16,790.51c-2.85-.68-5.35.71-8,1.38,1.71,4,3.49,6.68,8.69,3.67,3.77-2.19,8.58-3.41,10.51,3.13.24.84,1.55.71,2.31,1.13,2.1-.44,5.5,1.69,4.78-3.6-.48-3.47,3.42-3.89,6.19-4.45l5.32-1.51c1.54-3.26,5-4.2,7.93-6.34-1.81-2.27-4.21-2.51-6.44-3.1a2.9,2.9,0,0,0-3.16-.06c-8.81,4.86-18.76,6.32-28.05,9.73Z" fill="#8f6c55"/><path d="M731.7,799.82c-.27-.35-.7-.66-.79-1.05-1.38-6.16-5.06-8.53-11.56-5.35-4.25,2.08-6.48,1.26-9.16-1.53-2.27,1.13-4.51,1.59-6.6-.38-2.26.63-4.7,1.52-3.9,4.41.87,3.12,4.47,3.9,6.57,3.33,4.86-1.32,8.61.76,12.78,2.26C723.4,803.08,727.57,801.15,731.7,799.82Z" fill="#6a4d3e"/><path d="M680.53,791.74c-.95,1.6-2.6,1.16-4,1.43-4.73,4.92-11.13,1.13-18.38,3.88,7.32,1.82,12.34,3.62,18.82,2.34,5.13-1,10.84-3.47,16.31-.82,1.7.82,2.86,1.31,3.68-.79,1-2.48-1.38-2.7-2.52-3C689.84,793.58,685.17,792.73,680.53,791.74Z" fill="#6d5644"/><path d="M893.78,968.45c-1.71,3.92-1.38,6.37.76,9.19A10.2,10.2,0,0,0,893.78,968.45Z" fill="#cc8f53"/><path d="M580.66,791.82c-.57,1.1-1.61,1.27-2.69,1.36-.69,1.09-3.53-.11-2.73,2.59,11.24.86,21.36-2.57,31.29-7.61,5.41-2.74,11.5-4.12,17.28-6.11,1.57-1.06,2.94-2.15-.33-2.46-4.19-.39-8,1.31-11.79,2.66-5.25,2-10.42,3.79-16.12,1.23a4.48,4.48,0,0,0-5.75,2.31C587.92,789.88,584.17,790.54,580.66,791.82Z" fill="#88654e"/><path d="M575.24,795.77l2.73-2.59-12.05-.32-.43.56c-.25,1.33,1.39,1.35,1.61,2.36C569.81,797.78,572.52,795.07,575.24,795.77Z" fill="#af9679"/><path d="M567.1,795.78c1-1.87-1.53-1.25-1.61-2.36-2.11,0-4.87-1.4-5.23,2.44C562.55,797,564.83,796.65,567.1,795.78Z" fill="#685038"/><path d="M792.42,575c.27,5.27,3.24,9.31,6,13.41.74,1.07,2.15,1.84.95,3.41s-2.18,1.61-4,.67c-3.45-1.79-6.6-4.55-11.33-4.45.46,3.59,4.63,5,4.42,8.57,12.45,8.93,24.49,4,36.52-1.12,3.57-.29,5.56-2.45,6.58-5.73l5.41-6.66c-2.14-3.86-4.58-3.32-8-1.27-5.13,3.08-10.06,1.12-14.52-2.11a3.07,3.07,0,0,1-1.21-2.21,1.77,1.77,0,0,1,2.36-1.67c3.82.86,6-3.79,9.83-2.93-1.62-5.86,7.49-9.27,3.5-15.67-4-1.77-7.7-.68-12.47,1.23,3.91,1,5.47,3.19,6.5,6.07-2.59,1-3.45-1.9-5.33-2.1s-1.82-4.27-3.91-2.21c-1.77,1.75-4.16,4.06-3.46,7,1.32,5.53,4.77-1.23,7.75,1.87C809.56,573,800.09,570.66,792.42,575Z" fill="#754a32"/><path d="M891.3,543.7l-2.88,1.45c-7.36,4-9.51,10.51-9,18.39a14,14,0,0,1,.31,4.53c-.65,3.55,3.53,8.32-2.64,10.45-1.8,5.79-8.38,7.72-10.54,13.23-1.29,4.27-5.28,6.6-7.29,10.36-.55,5.39-.49,10.9-3.39,16.53-3.79-5.17-7.33-4.23-10.35.72-1.46,2.39-4.82,3-5.76,5.59-1.31,3.62-2.28,7.54,1.94,10.28A14.2,14.2,0,0,0,856,633.8c6.6-4.2,13.5-7.64,21.36-8.64,2.57-1.79,5-3.74,8.51-3.21,1.13.17,3.17.3,2.34-1.84-.49-1.26-2.06-1-3.37-.24,3-2.24,8.11,2,9.9-3.39.44-2,0-4.24-1.74-4.68-7.37-1.87-14.78-5.28-22.61-1.39A156.94,156.94,0,0,0,886,604.07c6.15-3.07,10.07-8.16,14.8-12.55,2.3-2.13,1.92-4.38-.58-6.24-3.51-.42-5.31,1.46-6.4,5.07.75-4.44,3.93-6.51,6.76-8.25,5.76-3.54,7.62-9.16,9-15.08,1.08-4.59-.17-7.69-5.76-6.68-6,2.93-10.7,7.56-15.74,12-1.62-1.91-2.09-4.4-.39-7.25a7,7,0,0,0,.91-4.58c-.67-4.36,1.32-7,4.6-9.61,2.5-2,7.23-4.15,3.48-9C894.6,541.65,892.92,542.58,891.3,543.7Z" fill="#412112"/><path d="M894,616.11c-2.18,4.46-7.49-.89-9.37,3.43l2.89,1.15c-3.19,2.45-9.19-2-10.19,4.47,13.36-3,27-5.27,40-9.08,6.84-2,15.29-4.18,20.5-12,2-2.93,7.61-4.53,10.13-8.63-.66-1.44-6.32-1.77-.79-4.64,2.8-1.46,5-4.09,7.5-6.18l-.07-.14c.66-3.23-.06-6.45,2.51-9.67,2.39-3-1.85-3.75-3.48-3.24-4.13,1.29-5.77-.5-7.25-4-1.23-2.88-4.09-3.93-7-4.52-6,.35-9.93,4.94-14.81,7.55-3.33,1.78-6.46,4.07-9.74,6a15.47,15.47,0,0,0-3.39,3.27c-.66,1-1,2.39.07,3,2,1.13,4.51,0,6.47,3.08,1.35,2.12,5.69-.51,8.63-1.6,4.93-1.84,8.8-7.53,15.2-4.33-1.08,2.1-3.06,1.39-4.72,1.57s-3.82.07-4.12,1.67c-1.23,6.67-6.67,7.09-11.51,8.61-1.64.52-3.6,1-3.55,3.43,1.1,1.28,2.58,1.64,4.39,1.78-2.28,1.16-5.95-.1-6.56,2.82s3.45,3,5,6c-7.71,4.95-15.78,8.81-25.17,9.36A1.38,1.38,0,0,0,894,616.11Z" fill="#a15124"/><path d="M856,633.8c-4.85-.47-9.7,2.74-14.56,0a16.21,16.21,0,0,1-6.79,2c-2.82.3-4.27,1.94-3.61,5,3,1,5.07,7.14,3.71,11a3.78,3.78,0,0,0,2.73-.16c4-3.52,7.7-7.4,13.17-8.54l6.48-4.24C857.74,637,856.89,635.37,856,633.8Z" fill="#cec5ae"/><path d="M761.68,805.29c3.06.39,5.2,2.09,6.41,6.17,2.79-7,5.15-12.6,7.29-18.33a4.88,4.88,0,0,0-1.56-6c-1.05-.81-1.62-1.69-3.31-.43-2.66,2-1.06,3.84-.33,6.31-4.38-.57-8.29-5.17-12.6-1-.1.1-1-.29-.94-.41.15-2.06-.85-3.4-2.67-2.32-2.29,1.36.24,3,.43,4.53.09.67.23,1.34.34,2a6.73,6.73,0,0,1,.91,1.79c.45,2.86,3.07,5.94,5.55,6.51C761.44,804.14,761.52,804.88,761.68,805.29Z" fill="#a66a3e"/><path d="M939.73,564.11c1.5.89,3.84,1.45,4.34,2.74,2.31,6,4.89,10.72,13.16,6-6,3.48-5.37,7.43-2.63,11.71,4.57-2.66,7-7.44,10.8-10.9,1.34-2.47,4.83-5.16-.63-7-.67-.22-.94-.12-.9-1.15.18-4.7.09-4.7-4.79-5.67,6.12-2.9,5.18-10.35,10.41-13.41l4-2.57c1.82-1.43,2.06-3.65,2.77-5.63a2.8,2.8,0,0,0-1.66-.88c-7.08,1.68-13.48,4.3-16.91,11.56-1.31,2.79-4.51,3.46-6.86,5.09C946.65,556.86,941.59,558.7,939.73,564.11Z" fill="#b55b21"/><path d="M969.49,546.43c-2.11,2.35-9.89-.09-6.07,7.47.48,1-1.65,2.52-3.15,3.09-1.84.69-4.58,1-3.72,3.65s3.44,2.35,5.72,1.58c.59-.2,1.21-.29,1.9-.45.73,3.48-5.72,3.15-3.52,6.73,1.52,2.47,3.44-.47,5.47-.7-.24,2-.48,3.92-.72,5.83,1-.41,2.9-1,2.86-1.2-1.3-6.9,5.81-8.93,7.75-13.84,1.28-3.22,2.69-6,6.24-7.27,1.82-.64,2.23-2.72,3-4.32.6-1.31.53-2.79-.83-3.57-1.56-.89-2.52.48-3.19,1.55-.93,1.49-1.19,3.59-2.4,4.68-1.81,1.63-2.12,5.66-6.56,3.75C968.37,551.75,969.2,549.22,969.49,546.43Z" fill="#da822b"/><path d="M939.73,564.11A72.27,72.27,0,0,1,954.05,554c2.78-1.45,4.47-3.66,6.09-6.74,2.8-5.32,9.49-6.29,14.42-9.28,1.25-3.55,2.81-6.81,1.75-11-1.75-6.92-8.3-10.94-14.7-8-2.79,1.31-5.33,2.28-8.32,1.05-.62-.25-1.45-.62-2-.36-5.86,3-12.07,3-18.48,3.3-4.34.22-8.9,2.57-13.2,4.43l-1.5,1.35c-.11.49,0,1.24.22,1.21,8.35-1,16.06,5.26,24.57,2.21,1.26-.45,2.83-1.11,3.2.88s-.2,3.68-2.58,3.94a7.81,7.81,0,0,1-3.26-.75c-3.63-1.19-5.58.31-6.2,3.95a28.93,28.93,0,0,1-.69,3.33c-3.72,12.75-7.24,15.22-20.29,14.2-1.79-.13-3.74-.15-4.53-2.23s-1.52-4.56-4.57-3.74c-2.23.61-4.42,1.85-4.82,4.27-.47,2.89,1.39,4.56,4.09,5.28,4.41-.35,5.6.88,4.78,5.88-1.32,8-7,12.08-12.31,16.67-1.92,1.67-4,3-2.79,6.42,3.14-.43,4.18-4.78,7.65-4.41,6.33-.19,9.3-6.54,14.81-8.21,6.43-2.62,11.81-7.06,17.74-10.54C935.28,566,937.11,564.2,939.73,564.11Z" fill="#341a0f"/><path d="M903.29,561.38c0-2.4-6.86-4-.8-7.07,1.12-.56,1.93-2.27,3.46-1.39s.94,2.23.51,3.59c-.75,2.38.17,2.46,2.58,2.92,6.2,1.19,12.25-2.33,18.42,0,1.63.62,2.91-1.48,3.09-3,.67-5.68,5.11-10.06,5.16-15.92,0-3.66,1.69-4.51,4.62-2.39,2,1.46,4.42,2.17,6.24.8,2.26-1.71,1.9-5.09,1.95-7.53.05-3-2.55-3.26-4.9-1.76-1.88,1.19-4,3.63-5.9,2.43-6.18-4-12.92-3-19.57-3.29a1.63,1.63,0,0,0-1.3,0c-4.64,3.22-10.13,4.91-14.72,8.28-2.08,1.53-4.88,2.18-5.55,5.22,1.27,5-3.08,7-5.81,8.59-3.57,2.15-4.31,4.4-3.73,8,.24,1.53.58,3.87-.23,4.62-6.29,5.83,1,9.15,2.3,13.9-.74-8,7.32-8.13,10.52-12.52C900.48,563.79,902.37,562.94,903.29,561.38Z" fill="#1d0f09"/><path d="M919.65,527.48a37.58,37.58,0,0,0,8.46-1.65c3.33-1,6.59-4.54,10.85-.7.8.72,6-1,9.15-1.89a70.74,70.74,0,0,1,19.55-3c6.25,0,8.89,7.46,6.53,14-.55,1.53,0,2.58.37,3.83l1.65.23,1.32-1.37c1.66-10.5,5.84-19.54,14.72-25.85-7.44-3.36-13.71-.9-20.61,2.67-5.29,2.73-11.83,4.51-18.17,1.63l-29,9.1C922.61,525,920.54,525.28,919.65,527.48Z" fill="#80401d"/><path d="M880.33,564.09a26.84,26.84,0,0,1,8.09-18.94c-3.19.24-5.59,2.19-8.1,3.89-4.49,5.85-8.71,12-14.59,16.55q-2.91,4.57-5.81,9.14c-3.45,4.27-7.82,7.83-9.71,13.31-.89,2.59-.89,4.91,1,6.89,2.22,2.36,4,.62,5.65-1,3.93-2.05,7.16-4.78,8.64-9.18,3.53-1.37,5.22-3.42,4.35-7.69-.66-3.21,1-6.56,1.27-9.91.21-2.41,1.91-4,4.74-3.31C877.31,564.24,878.79,565,880.33,564.09Z" fill="#52291a"/><path d="M896.58,542.33c5.39-4.27,11.1-8.05,17.69-10.13,1.93-.61,2.32-1.78,2.58-3.37-9.45,3.31-18.23,7.82-25.55,14.87Z" fill="#52291a"/><path d="M834.38,651.27c6.45-2.89-.32-7.28,1-11.22.91-2.69-2.37,2.69-3.74.12a2.56,2.56,0,0,0-1.77-.36c-3.65,1.71-6.28,2.68-5.4-3.54.83-5.82.17-11.9,4.19-16.88,5.35-6.78,9.39-14.36,13.23-22a2.66,2.66,0,0,0-.66-1.79c-2.63-2.18,3.32-6.37-1.83-7.95-3.06-.94-4.73,3.21-7.81,2.18L825,595.51c-2.91,9.46-11,8.92-18.35,9.5-2.88.23-5.8.07-8.7.09-2.67,8.3-10.14,15.91-2.26,25.52,3.22,3.94-.64,13.48-4.59,16.88-4.24,3.65-8.62,5.3-14,4.58-.18.33-.19.81-.39,1.12-.35.52-.47.34-.56-.3a6,6,0,0,0-2.11-3.69c-2.36-1.19-4.34-1.54-4.44,2.11l0,4.16c-3.19,5.27-2.87,5.75,2.83,6.19,4.14.32,7.94-.24,11.07-2.7,2.07.77,1.71,2.33,1.68,3.55-.17,5.05,2.57,5.83,6.46,4.37,4.08-1.53,8.18-1.38,12.35-.93a5.05,5.05,0,0,0,3.59.74c3.25-2.89,5.47-5.77-.1-8.67,2.6-.1,4.79,4.24,7.54.89,1.92-2.34-.35-4.11-1.22-6.24,2.76,1.14,5.59.29,8.44.06C826.32,652.23,830.75,655.08,834.38,651.27Z" fill="#e5dfd3"/><path d="M830.74,640.13l.46,0,.46.09c.33-2.16.7-3.57,3.75-3,2.24.45,5.6.56,6-3.4-.7-4.19-3.8-9.13,3.38-10.83.33-.08.59-.67.79-1.07,3.59-7,7.24-6.88,11.13,1.31,1.84-7.77,5.1-13.91,3.31-21-4.22-.83-5.89,3.43-8.88,4.59,2.68-2.58,3.51-6.68,7.38-9,2.4-1.41.1-4.29-2.61-5.22-1.31.31-1.55,3.53-3.49,1.66a4.35,4.35,0,0,1-.76-6c2.89-4.44,5.52-9.05,8.26-13.59-1.81.89-2.79,3.26-5.25,3a44.78,44.78,0,0,0-8.22,10.83c-.84,3.38-1.83,6.65-5.34,8.27-5.77,6.49-8,15.13-13.14,22a51.26,51.26,0,0,0-2.43,11.53C825.18,634.63,826.14,638.42,830.74,640.13Z" fill="#683d29"/><path d="M841.11,596.8c4.79-.78,5.81-4,5.34-8.27-2.52,1.75-2.18,5.65-5.2,7A3.3,3.3,0,0,0,841.11,596.8Z" fill="#b7866f"/><path d="M837.1,685.39c-.23-3.27-3.14-5.21-4-8.15l-2.76-1.35c-4,.8-.56,4.31-2.16,5.66-.37-2,1.85-5.72-2.23-6.28-3.72-.51-3.76,3-4.31,5.65a8.82,8.82,0,0,0-.21,4c1.61,3.31,4.13,6,5.28,9.7,1,3.1,3.24,3.22,5.1.24,1-1.43,3.15-2.11,1.35-4.82C829.55,684.68,833.09,684.65,837.1,685.39Z" fill="#9f5b31"/><path d="M822.36,685.42c.09-.66-.05-1.54.32-1.93,2-2.08-.76-7.25,3.06-7s.83,5,2.39,7.4c2.23-2.26-.59-5.94,2.18-8,.61-2.81-2.41-3.14-3.49-3.85-4.56-3-5.4-6.38-3-11-3.5-1.38-5.28.84-6.64,3.46-.9,1.76-1.43,3.71-3.34,4.7-1.14,1-1.88,2.69-.46,3.34,5.66,2.57,5.31,8.33,7.22,12.89A1.67,1.67,0,0,0,822.36,685.42Z" fill="#a17657"/><path d="M814.17,670.41c2-.13,3.78-.92,3.83-3,.1-4,2.73-5.32,5.82-6.35,4.18-3.67,8.37-7.33,13.63-9.41l-3.07-.36c-4,2.46-8-2-12,.15-4.45,3.07-6.27,7.8-7.84,12.69C815.09,666.25,813.28,668.24,814.17,670.41Z" fill="#b9a182"/><path d="M822.36,685.42l-1.57-.09c-3.27.12-3.33,3-4.28,5.1s-1.11,4.36-3.48,5.35a4.44,4.44,0,0,0-1.26,1.33c-2.85,4.72-6,9.37-4.55,15.38.11,8.14.78,16.24,1.61,24.35.14,1.41-.74,2.39,1.25,2.39,1,0,1.85.25,1.93,1.3a1.68,1.68,0,0,1-1.65,1.76c-5.63.63-9.13,4.7-12.94,8.19-2,1.83-5.8,3.52.53,5.8,3.45,1.25-1.61,4.7-1.54,7.67,1.62,1.67,9.69-1.83,4.81,5.64-.44.66.71,1.58,1.69,1.58,4.91,0,4.94,1.82,1.86,4.93-.76.78-1.6,2.54-.2,2.69,8.78.93,1.86,7.19,4.87,11.07-4.3-1-7-3.67-10.45-2.38,5.49,7.21,13.57,8.37,19.26,2.87a8.83,8.83,0,0,1,1.38-5.41c1.29-1.79,1.13-4,.74-5.79-1.45-6.73.85-11.44,6-15.93,2.14-1.87,2.68-3.51,5.71-1.76,1.91,1.11,4.33.11,6.34-1-2-5.3-4.87-10.22-3-16.56.59-2-3.6-5.29-5.84-4.3-4.59,2-3.47-1.1-4-3.25-1.87-7.58-.67-14.64,2.6-21.69.92-2,2.15-2.52,3.61-3.34h0c4-3.17-1.32-4.2-1.39-6.49,1-1.23,4.11,2.3,4.07-1.68-.95-2.73-.64-5.86-2.63-8.25-1.83.83-4.23,2-4-1.47C828.14,689,825.3,687.28,822.36,685.42Z" fill="#b06838"/><path d="M791.22,832.6c-5,3.57-5,3.91.16,7.57.73-2.66-1.78-5.17-.16-7.57Z" fill="#c5844b"/><path d="M785.28,836.85c-2-.45-2.77-3.69-5.11-2.43-1.29.7-.61,2,0,2.94C781.93,839.81,783.58,837.85,785.28,836.85Z" fill="#c5844b"/><path d="M831.73,711.3c-7.64,1.91-8,9.14-9,14.66-1,5.1.94,10.79,1.9,16.16.18,1,1.82,1.79,2.74,2.64,3-.74-.91-3.56,2.14-4.41,2.67,2.29,8.61,3.22,3.09,9.39-2.13,2.38-.58,5.08,1.79,7,1.43,1.15,4.23.79,4,3.73,0,.43.07.85.1,1.28,3.93,2.42,8.35,4.27,10,9.22.29.83,1.81,1.77,1.92,1.62,3-4.34,9,1.24,11.71-3.76-.79-10.07-2.2-8.56-10.65-9.94-2.11-.35-4.43.78-5.55-2.05-.76-.48.5-1.07-.09-.38-.21.25.1.33.26.62a1.88,1.88,0,0,0,2.16,1.14c2.06-.48,3.1-1.67,2.15-3.91-2.39-2.88-3.51-7-7.63-8.23-2.2-.66-.57-2.19-.79-3.31-.78-3.93,3.47-7,1.91-11l-1.39-1.34c-3.9-4.14-7.88-8.2-11.65-12.45C828.83,715.61,829.68,713.29,831.73,711.3Z" fill="#9f5b31"/><path d="M861.43,768.53c-1.92,2.26-4.08,1.43-6.07.28-3.4-2-5.44-2.19-3.14,4.89-4-7.09-6.25-12.94-13.73-12,0,3.72-.65,7.24,3.79,9.74,3.61,2,3.07,6.65,2.93,11.18,3.35-3.83,6.08-7.88,11.46-3.81,2.27,1.71,3.94.64,4.22-2.6.07-.79,1.5-3.73,3.9-2.08,1.69,1.15,1.8,2.64,1.1,4.71-.63,1.85-4.28,3.18-1.65,5.56,1.2,1.1,3.5.86,5-.36,2.64-2.1.12-4-.35-6a15.69,15.69,0,0,1,0-2.71c3.61,3.36,6.76,7.69,11.45,2.78-2.91-5.38-5.84-10.5-13.51-8C865.18,770.71,863.65,767.83,861.43,768.53Z" fill="#b06838"/><path d="M861.43,768.53c2.58,2.12,4.35,5.7,9,2.59,1.7-1.15,6.88.88,6,3.28-2.08,5.94,2.48,2.78,3.94,3.71,4.26-.12,8.13-.21,10.21,5,1.72,4.34,3.2.71,4.48-.88,2-1.46,1-2.68-.39-3.71-2.48-1.82-6.62-3.08-7.28-5.39-2.35-8.16-10.67-3.6-14.61-7.84-.64-.69-1.38.34-1.92,1.14-2,3-3.31,2.33-4-.93-.42-2-.55-1.82-3.63-3.7-2.24-1.37-.34-3.72-.53-5.57-2.06-1.09-2.74,1.13-4.14,1.46-3,.68-6.6,2.73-4.7-3.48.27-.86-1.21-2.27-1.88-3.42h0c-3-.18-3.77,1.3-2.8,4l-3.67,2.37c.11,1.8.3,5,6.17,3.12C858.53,758.12,860.11,763.43,861.43,768.53Z" fill="#90542f"/><path d="M804.81,664.48c-3.52-3.25-8.83-1.41-10.84-.21-6.45,3.85-7.47,1.68-7.24-4.32,0-1.11,0-2.22,0-3.68-4.94-.15-8.4,4.08-14,3.93-5.95-.15-3.5-2.25-3.14-4.72-5.64-2.05-6.6-.21-3.15,4.6-4.37.72-7.13,1.39-8.52-4.17-.88-3.48-5.78-5.78-10-1.86-1.62-1.23-3.08-1.27-4.31.55,1.7,4.65,6,5.53,9.92,6.91,9.08,3.19,10.55,10.51,3.84,17.52-6.51,6.8-14.06,9.35-23.06,6.62-2.58-.78-4.84-.13-7.23.32-5.18,1-10.1,2.62-15.65.46-4.24-1.64-6.54,1.88-6,8.11,5.19,1.05,9.93,2.27,12.93,7.74,1.49,2.74,5.21,5.14,7.16-.95.29-.91,2.12-7.29,6.2-2,1,1.33,3.43.22,5.19.35,2.11.16,5.31-2.51,5.77,2.75.11,1.24,4.87,1.48,7.4-1.46,3.89-4.54,8.74-7.6,14-5.39,1,10.33-7.13,17.41-8.24,26.51-.54,4.41-2.85,9.41-.33,14.33,1.09,2.11-1,3.36-3,4.43A31.49,31.49,0,0,0,740,753.31a7.8,7.8,0,0,0-1.17,5.83c3.28,3.06,2.6,5.92.07,9.25s-5,3.83-8.57,1.76c-4.65-2.66-10-1.91-15.11-2.55-1.21-.15-2.77.29-2.31,2.31.84,2.21,3.07,2.23,4.74,3.22,3.92,2.3,9.52,1.56,11.49,7.7.86,2.68,5.26,1,8.06,1.33,7.69-1,10.21-3,11.26-9.66a4.73,4.73,0,0,1,2.83-4.1c1.46-.7,2.66-2,2.22-3.77-.38-1.57-2.67-3.63,1.37-3.09.67-8.88,11.63-11.92,11.75-21,0-3.28,2.37-1.76,3.75-2.31,4.19-1.67,10.76-1.26,8-8.7,6.11,3.08,9.22-4,14.18-4.55,2.25-1.7.77-5,2.79-6.77,5.33-5,7.75-11.73,10.91-18,1.42-2.81,5.51-.59,6.43-3.89l0-.06c3-6.67,1.07-13.26-.78-19.65-1.11-3.85-4.28-2.31-6.67-1-3,1.59-5.83,3.54-9.27,1.37C796,670.6,802,668.7,804.81,664.48Z" fill="#ddd2c0"/><path d="M712.91,769.91c6.08-.57,12.64-1.59,17.65,2.32,6.94,5.43,8.33-1.87,11.11-4.51s2-6.45-1.76-8.73c-1.44-1.26-3.84-1.25-3.91.25-.3,5.58-2.49,5.44-6.1,2.74-2.22-1.66-4,1.5-6.42.63a27.54,27.54,0,0,1,9.44-9.48c2.35-1.5,2.26-2.78,1.33-5-1.81-4.28-4.7-8.79,2.38-11.48,2-.77,1.43-3.2.18-4.71-2.68-3.23,1.12-10-5.76-10.82-2.27-.27-4.09.58-3.79,3.4.16,1.57,1,3.92-.57,4.38-8.87,2.61-15.76,10.79-26.29,8.92-6.32-1.12-12.49-3.3-19.43-.25-4.12,1.8-8.57-2.68-12.49-5.23-4.11-2.69-7.63-2.87-11.05,1.53-2.31,3-6.29,4.14-9.59,5.72-4.48,2.14-6.7,5-6.48,9.85-1.23,2.12-3.64,4-1.35,6.82,1,1,.56,3.44,2.81,3.24,1.65-.14,2-1.57,2.26-2.95a8.41,8.41,0,0,1,2-4.94c1.47-1.47,3.15-2.81,5.36-2.15,2.7.79,2.21,3.08,1.8,5.08-.66,3.23-.1,6,3,7.51,1.64.82,3.94,1.32,4.32-1.21.69-4.6,5.16-4.34,7.62-6.61,1.22-1.12,3.38-.73,3.19,1.65-.42,5.15,1.94,4,4.74,2.41.66-.38,1.64-1.88,2.12-.65,1.76,4.49,5,3.24,8.39,3,1.35-.1,2.65,1.54,2.82,3.86-3.62.66-7.26-3.26-11,.11-2.12,1.9-3.16,3.07-1,5.35,2.91.95,6,1.14,8.78,2.66l1.33,0c3.79,1.33,5.89-3.18,9.4-2.78.94-1.51,1.85-.1,2.77,0,2.45.52,4.64-.26,6.78-1.33C709.92,766.59,711.18,769.19,712.91,769.91Z" fill="#e1d8cc"/><path d="M679.14,769.89c-2-6.08,3.84-3.36,5.73-5.08.09-.07.94.87,1.53,1.17,2.24,1.15,5,2.41,6.74.15,1.24-1.62-.6-4-2.14-5.18s-2.38-5.52-6-1.65c-2.21,2.34-4,.51-4.78-5.68L677,756.37c-1,.84-2,1.67-3.11,2.59-1.65-2.56,4.33-4.07.49-6.27-2.62-1.5-5.23-1.81-7.79.86-1.27,1.32-2.55,3.5-4.87,3.25-8.94-1,0,3.11-1.66,4.71-3.16-.44-5.43-1.57-4.33-5.87.88-3.48,2.38-7.86-3.06-8.35-4.91-.44-8.91,2.71-9.06,7.77-.17,5.65-1.74,3-3.64,1.22-3.75,4.16-9,3.27-14.59,4,2.35,2.3,4.84.65,6.7,1.85-.82,1.66-2.15,3-4,2.83-5.37-.38-5.36-.5-4.76,6-4-2.06-7.5-1.28-10.84,1.06.66,2.25,2.29,3.18,4.47,3.37,3.22,0,6.54-.74,9.5,1.29l4,.05c6.38,5,13,1.82,19.07-.22,7.28-2.46,14.68-3.24,22.16-4.07C674.42,772.14,677.15,772.1,679.14,769.89Z" fill="#e8e2d8"/><path d="M792.6,725c-3.56.71-7.82-1.62-10.05,4.15-1.11,2.88-2.9-2.11-4.14-2.14-3.62,1.95,2.41,7.44-4.47,8-3,.27-5.73,3.68-9.34-1.45.07,5.19,1.54,9-1.27,12.26-3.91,4.47-9.45,7.68-9.55,15,0,2.29-1.43-3.71-2.9-.75-.9,1.79,1.25,3.21,1.76,4.89.14.45-.53,1.68-.81,1.67-7.16-.17-4,5.24-5,8.67-1.31,4.15-6.56,4.26-9.6,6.86-3.57,2.26-7,4.66-11.64,4.16-3.28-.35-5.3,2-7.29,4.17,9.37-.37,18-3.66,26.49-7.21,1.63-.68,3.15-1.63,4.72-2.46,2.91-2,4.36-5.69,8-6.87,1.82-2.33,2.58-5.46,6.72-5.6,2.63-.09,2.75-3.47,2.33-5.62-.82-4.19.7-6.13,4.73-6.88,1.68-.31,3-2,4.84-2.26a6.62,6.62,0,0,0,6-7.08c-.4-5.54,2.3-9.39,4.94-13.5C787.56,729.39,794.49,730.27,792.6,725Z" fill="#cfb692"/><path d="M679.14,769.89a124.32,124.32,0,0,0-36.2,6.69,17.74,17.74,0,0,1-12.39.15c6.62,7.9,22.06,6.83,27.53-.78,4.41,6.77,9,6,13.7.35.57-.69,2.49-1.22,3-.82,5.47,4.5,8.5-1.3,12.5-2.85C685.53,768.78,682.61,768.5,679.14,769.89Z" fill="#ddd2c0"/><path d="M641.36,749.46c2-7.09,8.89-8.58,13.94-12.12,3.84-2.71,7.05-7.86,13-4.35a2.23,2.23,0,0,0,.65-1.58c-.62-2.12-2.8-2.91-3.89-4.64l-.74-.47c-7.06,4.85-13.75,10.37-22.21,12.76-5,1.41-2.71,5.73-3.38,8.86C639.18,749.17,640.22,749.4,641.36,749.46Z" fill="#cfb597"/><path d="M580.66,791.82c4.25,1.8,7.51,0,9.35-3.62s3.48-3.77,7.16-2.36c5.21,2,10.21-.15,14.52-3.59-2.9-1-5.52-.07-8.09,1.16-.63-2.53-1.47-4.87-4.62-5-.26-.1-.53-.18-.8-.27C591.05,781,586.12,786.75,580.66,791.82Z" fill="#af9679"/><path d="M598.14,768.55c-.81.69-3,1.31-1,2.54,2.33,1.44,5.14,2.26,7.81.29,2.18,0,4.18-.56,4.56-3a4.43,4.43,0,0,0-1.13-3c-.75-.93-1.58-.2-2.22.48A9.06,9.06,0,0,1,598.14,768.55Z" fill="#af9679"/><path d="M698,769.87c-3.94-1.87-6.17,2.18-9.4,2.78,1.23,1.75,2.06,4.19,5,2.87C696.08,774.42,698.62,773.4,698,769.87Z" fill="#ddd2c0"/><path d="M604.91,776.7c-3.67,0-5.58-4.48-9.92-4-.32,2.75,2.67,3.39,3.19,5.36l0,0c1.4,1.73,4.5.12,5.42,2.8C605.09,779.84,604.94,778.25,604.91,776.7Z" fill="#af9679"/><path d="M707.54,768.57a6.08,6.08,0,0,0-6.78,1.33C703.47,773.45,704.58,773.24,707.54,768.57Z" fill="#ddd2c0"/><path d="M626.54,776.68c-2.78-3.36-5.89-4.15-9.5-1.29C619.93,777.92,623.37,776.25,626.54,776.68Z" fill="#ddd2c0"/><path d="M603.55,780.86c-.4-3.71-3.25-2.59-5.42-2.8.39,1.11-.78,4.14,1.45,2.94,3.6-1.93,2.27,2.48,4,2.41C603.58,782.56,603.57,781.71,603.55,780.86Z" fill="#ccbca4"/><path d="M769.63,651.32c.77-2,2-2.64,3.83-1.24,2.42-.79,1.69,3.63,4.25,2.62,4,2.65,7.64,3.18,10.89-1.27,2.41-3.29,6-4.45,11-4.51-3-3.09-4.77-5.46-1.32-8.84,3-3,.49-6.58-1.4-9.06-4.26-5.58-5.15-10.87.53-15.63,3.5-2.93-2.31-5.78.58-8.3-7.53,1.13-12.73-4.29-18.93-6.88-2.64,1.75-5.91,2.69-8.14,6.55,4.6-.78,7.82.39,9.51,4.32a4,4,0,0,0,2.51,1.89s-.15.43-.42.4c-1.35-.13-1.33-1.58-2.09-2.29-2.58-.87-5.74,4.73-7.91-.73-.45.41-1.18.74-1.3,1.23-.34,1.38-.21,2.71,1.35,3.4,3.26,1.43,4.1,4.11,3.74,7.93-2.34-6.79-7-5.64-11.59-4.07-3.85,1.33-5.14-3.64-9-3.7,1.24,2.45,2.2,4.33,3.16,6.21-1.44,2-5.31-1.45-5.77,2.43-.38,3.23,2.57,3.55,4.8,4.85-5.07,1.82-10.25-.44-15.48,1s-7.81,3.53-6.59,10c3.55.23,7.08.07,9.82-2.53s4.6-.65,6.51,1.17c3.89-1.14,1.85,3.45,3.89,4.1,2.1-1,1.68-3.43,3-5.46,2.94,3.44,6.84,2.74,10.58,2.74,2.79,0,6.51.52,6.83,3,.33,2.67-2,5.48-5.57,6.06a5.91,5.91,0,0,0-3.49,1.5C764.9,651.42,767.5,651.29,769.63,651.32Z" fill="#ddd2c0"/><path d="M733.17,605c.2.09.39.2.6.29,2,.88,3.27,4.17,6.12,2.12.75-.54,1.55-2.33.54-2.93-2.37-1.39-5-1.56-7.27.51Z" fill="#ebe6dd"/><path d="M677.86,696.53c-4.37,3.38-4.93,9.21-8.35,13.2,1.23,2.31,2.78,4.2,5.64,4.37,3.8.4,6.91-2.69,10.73-2.19,2.1-1.94,4.41-3.67,6.19-5.95,6.25-5.37,9-12.49,10.52-20.42.48-2.58,3.51-4,4.06-6.8,0-2-1.39-2.85-2.85-3.66-2.07-.84-4.31-1.11-6.38-2a5.28,5.28,0,0,0-3.75-.26c-4.42,3.37-7.82,6.41-2.16,12.23,2,2.07,4.68,7.16-1.45,10-2.17,1-1.34,5.13-3.43,6.95-3.42.53-1.46-5.49-4.82-4-2.78,1.22-2.1,4.63-2.86,8.48C677.57,702.45,681.71,698.9,677.86,696.53Z" fill="#906d50"/><path d="M685.81,711.14c-4.13-1.11-7.88-.85-10.66,3-.44,1.35-.88,2.7-1.31,4.06a5.24,5.24,0,0,0,5.13,1.69,3.23,3.23,0,0,0,1.08-1.47c.28-3,2.2-3.85,4.86-3.71a2.44,2.44,0,0,0,1.5-1A2.2,2.2,0,0,0,685.81,711.14Z" fill="#cfb597"/><path d="M672.42,719.5c-2.91,2-7.26,2.28-8.11,6.8l.28.36c5.82,4.44,5.93-2.37,8.48-4.39A2.7,2.7,0,0,0,672.42,719.5Z" fill="#cfb597"/><path d="M672.42,719.5v2.7c3.4,1.93,6.14,2.23,6.68-2.8a8.53,8.53,0,0,0-5.26-1.24Z" fill="#d8c8b4"/><path d="M677.86,696.53c1.57,4.1-2.17,7.07-2.3,11.37l7.18-.44c-1.17-3.1-3.81-5.92,0-8.82.21,2.44-.33,5.9,2.59,6,2.63.06,4.58-2.09,4.71-5.45.1-2.47,0-5,4.61-4,2.27.47,2.53-4.93.43-6.62s-2.37-2.21-.88-4c.74-.9,1.3-1.88-.18-2.7-4.52-2.53-4.5-2.52-.67-6.73a5.5,5.5,0,0,0,.67-1.88c.54-.93.06-1.65-.45-2.38-1.16-1.3-2-2.93-3.82-3.55-2.18,0-1.42,2.33-2.51,3.19l-5.34,9.66c2,5.44.85,10.35-2.53,14.86Z" fill="#7b5e44"/><path d="M687.26,670.42l2.73-2.7c5.45-1.45,8.62-4.71,8.32-10.72-3.3-.91-5.82.58-8.14,2.68C689.4,663.31,687.13,666.54,687.26,670.42Z" fill="#b49e80"/><path d="M679.39,694.94c6-1.69,2-9.85,8.21-11.91-2.78-.26-5.9,1.21-5.68-2.95C681.29,685.07,681.52,690.21,679.39,694.94Z" fill="#906d50"/><path d="M743.77,655.37c1-1.86,2.7-1.27,4.22-1.32.46-1.55-1.62-4-.13-4.41,9.3-2.7,1.9-7.48,1.66-12.29-6.74,9.46-15.31,8.52-24.17,5.69-3.75-1.2-7.38-2-11,.26-2.36,3.06-6.46,4.28-8.24,8,1.69,1.54,3.36.44,5,0,6.47-1.86,12.71-1.68,18.76,1.68,2.59,1.43,5.49,2.36,5.42,6.07s-1.33,7.09-4.81,9.09c-2.5,1.44-5.53,2-7.25,4.68a3.29,3.29,0,0,0,0,2.81c2.59,1.94,4.54-.44,6.83-1-.44,1.44-3.21,2-2,3.92s3.49,1.49,5.46.78C745.45,675,743.09,664.53,743.77,655.37Z" fill="#a18e74"/><path d="M756.07,640.42c-.17-2.11,1-4.7-1-6.13-1.15-.81-2.27.78-2.86,2C754,637.22,752.86,640.91,756.07,640.42Z" fill="#766b5b"/><path d="M723.78,673.24c2.43-1.13,4.82-2.36,7.31-3.35,5.36-2.12,7.64-5.16,8.11-10s-.67-5.32-3.53-7c-8.92-5.56-14.07-8.54-29.44-1.43-3,1.36,1.41.77-7.93,5.5-1.43,4.64-4.9,7.65-8.31,10.72q1.29,2,2.6,4c2.81-.09,5.39-1.13,8.43-2.61-1.59,2.17-5.22,1.91-4.13,5.31,2,1.39,4.32,1.32,6.59,1.49,1.68,1.05,3.84.33,5.51,1.75,2.33,2,4.57,2.05,6.79-.59C717.8,674.68,722,676.49,723.78,673.24Z" fill="#583f2d"/><path d="M834.41,703.13c-2.59,3.6-3.36-6-6.11-.87-2.32,4.31,2.07,5,3.81,7.15.26.32-.24,1.25-.38,1.89,2.47,1.76,4.94,1,6.59-.91,2.37-2.71-1.81-2.74-2.31-4.44A13.24,13.24,0,0,0,834.41,703.13Z" fill="#9f5b31"/><path d="M849.18,754.81a4.39,4.39,0,0,1,2.8-4c2.86-5.69,1.58-9.2-4.61-10.46-2.52-.51-1.93-1.74-2.1-3.09-.23-1.91.56-4.06-1.34-5.55.3,3.52-3.77,4.95-3.86,8.3-.05,2,2.38,6.13,4.38,8.29A62.8,62.8,0,0,1,849.18,754.81Z" fill="#724225"/><path d="M787,733c-3.76,2.81-7.9,4.82-6,11.41.7,2.48-.2,7.84-6.66,7.9-3.21,0-6.45,4.32-11.83,2.42a17,17,0,0,1,2.32,9.06c0,3.41.9,3.89-3.41,2.74-4-1.07-3.85,4.14-4,7.41,3.75,2.24,7-.31,10.29-1.41,2.22,2.27-2.3,3.55.14,5.73a1.8,1.8,0,0,0,1.18,0c9.12-5.37,15.17-13.63,18.45-23.34,1.45-4.3.2-10-.65-14.68C786.36,737.48,789.72,735.27,787,733Z" fill="#cc9a5d"/><path d="M790.38,800.41c3.31-2.25,7-2.14,7.46-5.8.49-4.37-2.14-6.87-5.72-8.92s-6.35-1.17-8.91,1.3c-2.27,2.18-3.44,5.18-1.36,7.87C784.12,797.82,789.42,795.39,790.38,800.41Z" fill="#d18c4e"/><path d="M812.73,696.28c-9.7-1.47-9.1,7.34-12.3,12.44-1.39,2.21-.47,8-6.12,4.59a1.72,1.72,0,0,0-1.49.7c-.8,2.35,1.77,2.73,2.57,4.18,1.73-.86,3.08-3.52,5.15-2.49,3.93,2,5.05-.92,6.68-3.21Q810,704.38,812.73,696.28Z" fill="#ceb797"/><path d="M784.56,809.51c-5.39,1.42-3.92,5.28-4.39,7.82-.4,2.15,1.64,2.55,4.29,2.24C781.86,816.41,782.45,813.29,784.56,809.51Z" fill="#d18c4e"/><path d="M915.43,577.73c-6.54-.22-9.94,5.34-14.81,8.21-1.07,7.93-7.3,11.74-13.11,15.15-5.36,3.16-10.65,7.23-17.39,7.34-2.13,0-2.87,1.46-2.36,3.11.44,1.43,2.9,3.32,3.36,1.89,1.79-5.58,6.85-.43,9.21-3.37.29-.36,1.76-.32,1.76-.27,1.43,7,11.47-2.46,11.91,6.32l1.37.11c2.25,0,3.58-1.19,4.32-3.22-.44-2.75.68-5.82-1.78-8.18,2.37-1.07,4.87-.74,7.2-1.29,5-1.61,10.21-2.89,13.11-8,4-3.87,9.75-3.08,14.47-6,4-2.48-.81-4.93,1.79-6.17s5.27,1.76,7.61-.16c1.49-1.23,2.5-3,3.84-4.74-3.23-2-7.55,1.73-9.86-2.67-.32-.61-1.18.65-1.75,1.3-4.41,5-10.16,7.26-16.55,8.37-.76-2.9,3.24-2.76,2.46-5.44-3.32-1.89-4.89,3.28-8.1,2.39C912,579.85,915.13,579.81,915.43,577.73Z" fill="#5d311a"/><path d="M880.33,564.09c-8.5-4.19-9.72-3.48-10.89,6.2-.4,3.33-3.3,6.17-.87,10.15.81,1.34-2.52,2.47-4.49,2.82.91,3.35-2.53,8.58,4,9.49.46-5.46,8-5.11,8.51-10.6a14,14,0,0,1,1-3c-5.58-2.23-2-6.64-1.76-9.73.28-4.39,4,.41,5.78-1.26C881.6,566.64,881.9,565.06,880.33,564.09Z" fill="#6d3f27"/><path d="M868.11,592.75c-4.71-1.71,0-7.47-4-9.49-.42.08-1.21.21-1.21.24.67,5.38-4.31,6.38-7,9.16.13,1.78,6.52,4.71-1.49,5.22-2.76.18-2.36,7.46-5.29,10.78,4.71-.69,7.27-4.43,10.89-6.41A26.72,26.72,0,0,0,868.11,592.75Z" fill="#915a34"/><path d="M881.64,568.11c-2.37-.55-3.3-4.54-6.1-3.29-3.31,1.49-1.47,4.74-1.36,7.26.12,2.79-4.92,8.32,3.44,7,3.67-1.82,10.69-2.34,3.2-8.52C880.59,570.39,881.34,569,881.64,568.11Z" fill="#52291a"/><path d="M918.22,595.53c-3.82,3.61-9.13,4.26-13.46,6.85-2.7,3.16-5.89,6.06-5.43,10.83l-4,3c.15,2.44,1.71,1.3,2.86,1.14,6.11-.85,20-7,26-11.63-1.55-3.08-5.4-2.84-7.85-5.77,3-.87,6.42.44,8.71-2.35C923.43,595,920.74,595.5,918.22,595.53Z" fill="#cd7535"/><path d="M804.81,664.48c-8.12.64-8.43,8.79-12.49,13.32,5.07,2.77,9.94,2.66,14.66-1,2.68-2.11,3.12-1.85,4,2.09,1.35,5.83.88,11.63,1.76,17.38,2.31,1.29,3.47.57,4.18-2,.87-3.11,1.29-6.5,3.83-8.9.59-6.22-.32-11.63-7.24-13.86a1.5,1.5,0,0,1,.15-.61,2.52,2.52,0,0,1,.47-.45c-.08-1.91,4.33-2.85,1.15-5.43-2.69.11-5,2.73-7.91,1.37Z" fill="#ceb797"/><path d="M807.41,666.35c2.86,3.24,4.46,3,7.91-1.37l7.08-13.56c-3.79-.65-8.2,2.37-11.08-2.57-.45.94-.85,1.37-.77,1.65.81,2.85,5.75,5.6,3.34,7.69-3.07,2.66-5.54-3.09-9.42-3.68C804.49,658.71,812.66,661.12,807.41,666.35Z" fill="#ddd2c0"/><path d="M830.74,640.13c-4.25-4.31-4.64-9.54-2.67-14.8.92-2.44.1-4.36-.1-6.52-1.35-.39-3.44-2-3.61.7a113.1,113.1,0,0,1-2.83,20c-.39,1.59,0,2.79,1.72,2.9C826,642.6,829.47,644.92,830.74,640.13Z" fill="#cdc0a9"/><path d="M777.71,652.7c-2.49.89.73-7.62-4.25-2.62,2.25,2,.17,6.67,4.38,7.64C779.69,655.93,777.29,654.36,777.71,652.7Z" fill="#d1c6b5"/><path d="M823.21,712c-4.62,2.09-2,5-2,8.12C823.75,717.65,823.89,715.23,823.21,712Z" fill="#9f5b31"/><path d="M668.46,731.74a10.43,10.43,0,0,0-.17,1.25c.22,6,6.4,2.86,8.91,5.87,1.82,2.19,5,2.62,7.1-.69,1-1.6,2.23-1,3.92-.62a72,72,0,0,0,15.12,1.89c5.4.16,10.2-2.24,15.4-2.65-.1-7.16,6-3.76,9.06-5.53a4.82,4.82,0,0,0,1.9-5.36c-.36-1.54-2.84-3.31.87-3.55,2.34-.15,4.28,1.27,3.62,3.69-.86,3.14-1.28,5.64,2,7.54a1.39,1.39,0,0,1-.1,2.32c-2,1.6-3.64-1.38-6.1-.29,3.47,4.53-2.43,11.22,4.78,14.84-7.77,2.27-13.18,9.13-13,16.34,3.67-2.29,6.84-4.82,11.38-1.29,3,2.33,6,.1,4.35-3.87s1.25-2.17,2.45-2.64c.86-5.25,3.49-8.93,8-12.06,2.3-1.6,4.08-3.95,7-5,1.22-.41,3-3,2.78-3.29-3.76-4.91,2.07-9.91-.25-15.2-.69-1.57.1-6.84,3.18-9.39a10.91,10.91,0,0,0,4.1-10.69c-.27-2-1.62-5.8,3-6a1.67,1.67,0,0,0,1.47-2.45c-.25-.6-1.36-1-2.15-1.17-6.28-1.53-12.25.48-17.14,3.7-1.86,1.22-3.55,3.88-6.07,5.07-1.53-2.37.3-4.61.67-7.16-7.57,4.73-12.79,4-16-2.44-1.6,2.56-.82,7.17-5.5,6.58-.27,0-.72.53-.93.9-.94,1.7,3.85.74,1.44,3.11a1.3,1.3,0,0,1-1.24,0c-1.91-1.5-5.25-2.12-4-5.71.31-.93.53-2.28-.14-2.11-4.06,1-7.59-5.7-11.78-.77-1.63-.42-.11-2.9-2-3.13-3.37,2-2.43,5-1.21,7.57,1.54,3.29-.15,3.9-2.75,4.11a4.28,4.28,0,0,0-1.64.88c-1.52.58.36,3.8-2.91,3.36-4.72-.62-7.68,2.33-9.85,6.22h0a7.36,7.36,0,0,0-2,3.07c-2.39,3.4-5.17,6.19-9.59,6.51-2.35.17-3.84,1-3.25,3.8C671.58,729.62,668.89,730,668.46,731.74Z" fill="#e8e1d7"/><path d="M743.77,655.37c-.33,4.79-6,8.79-1.65,14.45,1.08,1.39-1.87,3.44-3.42,4.24-2.22,1.15-4.31,2.2-5.65,4.4-1.07,1.59-2.7,1.86-4.44,2.29-4.77,1.17-4.82,2-.78,6,7.23.42,14.3,2.87,21.73.26a20.1,20.1,0,0,0,13.27-21.26c-.55-5.57-5-4.25-7.1-5.21C751.81,658.83,747.87,656.84,743.77,655.37Z" fill="#d1c6b5"/><path d="M727.83,686.8l-1.89-4.43c2.89-.38,7.21,1.45,7.11-3.91h-4.2c1.17-2.64,5-2.62,4.76-6.33-4-.83-6.5,3-10,3.55a2.81,2.81,0,0,0-3,1.08c-3,3.78-6.55,4.14-10.65,1.88a3.26,3.26,0,0,0-3.77.07c-4.87,3.26-6.81,7.94-7.09,13.72-.17,3.51-.28,7.35-5.35,7.93-3.18.36-2.33,3.31-2.51,5.45,3.11,2.07,5.42-1.16,8.2-1.27h0c2.39-2,1.71-5,2.63-7.46.62-1.68-.73-4.71,2.71-4.8.58.86-1.39,3.14,1.48,2.73.28-7.69,1.2-8.25,7.64-5.78C718.87,691.13,723.33,688.45,727.83,686.8Z" fill="#c6b195"/><path d="M784,680c.53,3.77,3.46,1.26,4.27,3,.61,1.33.45,3.49,2.81,2.71.89-.29.72-1.43.49-2.36-.45-1.85-1-3.5-3.37-3.37C786.93,680,785.61,680,784,680Z" fill="#ceb797"/><path d="M806.74,680.32c-.86.74-2.74.64-2.37,2.5.27,1.31,1.06,2.77,2.55,2.35s-.45-2.47,1.15-3.49C808.75,681.25,807.84,680.25,806.74,680.32Z" fill="#ceb797"/><path d="M668.46,731.74c2-1.17,7.6.63,4.37-5-1.2-2.12.43-1.72,1.3-1.8,4.93-.51,8.57-3.25,11.79-6.77-2.23-2.14-4.47-3.71-6.71,0l-.12,1.27c-1.24,3.34-4.09,2.75-6.68,2.8-3.16.5-3.17,6.65-7.82,4.46C663.36,730.31,667.31,729.94,668.46,731.74Z" fill="#e1d8cc"/><path d="M780.11,621.17c-6,5.14-10.78-4.51-15.63,1,2.71,4.52,6.55,8.4,12.81,7C780.75,628.46,779.5,624.88,780.11,621.17Z" fill="#dfd8ce"/><path d="M780.42,609.08c.46,1.48-1,4.07,1.35,4.29s3.9-1.51,4-4.31c-1.89-.9-3.66,2-5.34,0Z" fill="#dfd8ce"/><path d="M706.19,678.71a15.62,15.62,0,0,1,3.75,1.45c6.64,4.82,10.07,0,13.63-4.48l.21-2.45c-3.12,2.26-8.69-1.56-10.48,4.46-.38,1.27-2-.08-2.61-.85-2.14-3-4.72-1.35-7.21-.91Z" fill="#886a4e"/><path d="M699.44,704.54c-3.27-3.08-5.36,1.57-8.2,1.27-2.19,1.38-4.93,2.2-5.43,5.33,0,1,.05,1.91.08,2.87,4.7-2.86,8.87-8.13,15.28-2.49C701.84,708.2,697.09,707.38,699.44,704.54Z" fill="#d8c8b4"/><path d="M696.89,674.44c.84-2.34,2.73-2.69,4.85-2.7,1.74,0,3.32-.28,2.3-2.69-.8-1.89-1.87-3-4.07-1.63-2.41,1.53-4.92,2.89-7.38,4.33l1.45,1.41Z" fill="#816653"/><path d="M679.21,718.13c2.24-2,4.47-.1,6.71,0l0-4.14C681.65,712.06,678.53,712,679.21,718.13Z" fill="#d8c8b4"/><path d="M719.4,658c2.28-.5,2.49-1.65,2.6-3.52.19-3.37-2.22-3.43-4.17-3.9s-3.33.79-4,2.67C716.56,653.82,717.37,656.94,719.4,658Z" fill="#aa8c78"/><path d="M899.33,613.21c1-4,5.85-6.08,5.43-10.83-3.86-.57-7.45.72-12.85,2.08C898.54,605.25,897,610.43,899.33,613.21Z" fill="#995427"/><path d="M704.79,692.27c-4.74-.39-3.43,4.15-4.79,6.37-.92,1.5-.42,3.89-.55,5.89,2.23.07,4.6,2.23,6.61-.59,1.85-2.58-1-3.36-1.75-5C703.27,696.66,702.69,694.37,704.79,692.27Z" fill="#d8c8b4"/><path d="M689.91,667.73c1.34,4.88,4.17,2.77,6.82,1.48,1.26.34,1.75-.42,2-1.46-.07-2.19-.85-3.9-3-4.68a2.89,2.89,0,0,0-3.05,2Z" fill="#564129"/><path d="M706,653.82l-2.55.35c-.87,2.3-4.38,2.28-4.51,5.23.23,2.59-.13,5.49,3.37,6.32,2,.47-.06,1.69.41,2.46a3.91,3.91,0,0,0,2.06,3c2.39.72,4.44-.09,6.36-1.44,1.49-2-.08-3.48-.84-5.11s-2-2.78-2.14-4.62C708.31,657.62,709.05,655,706,653.82Z" fill="#453424"/><path d="M706,653.82c1.91,2.32.56,4.72.18,7.1,4.46,1.8,5.37-2,7.06-4.53-1.94-3.13,1.46-2.64,2.55-3.73a3,3,0,0,0,1.51-2.1c-.43-1.52-2.05-.86-2.9-1.62-3.2-.67-5.32,2.18-8.19,2.56Z" fill="#614c3a"/><path d="M699.52,659.59c.57-2.36,4.18-2.46,4-5.42l-5.2,3L698,659.6A1.22,1.22,0,0,0,699.52,659.59Z" fill="#644f38"/><path d="M698.06,667.8l-1.33,1.41c-.5,1.38-1,2.76-1.52,4.14l.07-.09c1.37,1,2.53.56,3.61-.49,1.08-1.44,1.75-3,.93-4.78A1.19,1.19,0,0,0,698.06,667.8Z" fill="#8a6f5b"/><path d="M698.06,667.8q.65.06,1.29.06a1.54,1.54,0,0,0,1.25.63c1-.11,2,.06,2.83-.66.14-1,1.78-2.35,1.4-2.31-4.63.47-2.82-4.7-5.31-5.93H698a4.89,4.89,0,0,0-2.8,4C696.16,665,697.11,666.4,698.06,667.8Z" fill="#624b37"/><path d="M731.82,652.8l-1.57-1.22c-.65-2.8-3.12-3-5.21-3.74a4.05,4.05,0,0,0-2.8.55l-7.82.55,2.89,1.44c1.27,1.27,3.11,1.25,4.58,2.08,1.84.87,2.82,2.92,4.79,3.62a7.13,7.13,0,0,0,5.26-1.57A1.35,1.35,0,0,0,731.82,652.8Z" fill="#493423"/><path d="M713,655.62c-2.58,1.35-3.11,5.38-6.79,5.3q1.32,2,2.63,4.08c2.68,1.61,5.41,3,8.68,2.67,4.14-.94,7.77-3,5.75-7.75C721.56,655.94,717.88,653.49,713,655.62Z" fill="#4d3d29"/><path d="M698.2,672a3.17,3.17,0,0,1-2.91,1.29l4.33,3.82c.28.8.5,1.65,1.42,2,1.51,0,2.56-1.2,3.9-1.63,2.52-1.12,4.42.16,6.29,1.61,3.69,1.18,3.84-2,4.88-4.06a3.62,3.62,0,0,0-.06-1.79,13.54,13.54,0,0,0-3.63-3.8l-.84-.24-6.68,1.32a23.23,23.23,0,0,0-3.54,0A6,6,0,0,0,698.2,672Z" fill="#634936"/><path d="M702.21,671.79a2.66,2.66,0,0,0,2.69-1.3l-1.47-2.66c-.93-.26-1.82-1.5-2.8-.09C700,669.55,701,670.7,702.21,671.79Z" fill="#8a6f5b"/><path d="M716.93,666.41l1.38,2.75c1.81,1,3.89.26,5.77.85a2.62,2.62,0,0,0,2.84-1.74c.15-3.74.77-7.45.48-11.21a3.93,3.93,0,0,0-.91-1.63c-1.1-1.68-1.54-4.12-4.33-3.87-2.17,1.53-4.31.85-6.45-.08-1.9-.15-3.2,1-4.46,2.16-.44.4-2,.62-.74,1.65.56.44,1.63.24,2.48.33,3.46-.84,6.55,2,7.94,3.45C725.14,663.64,720.3,665,716.93,666.41Z" fill="#735540"/><path d="M715.71,651.48c1.15,1.72,2.94,3,3,5.34,2.9-1.17,2.24-3.75,3.42-5.26-1.36-1.46-3.13-1.24-4.85-1.18C716.78,650.75,716.25,651.12,715.71,651.48Z" fill="#b99785"/><path d="M702.21,671.79l-1.58-4c-.43,0-.85.07-1.28.12-.39,1.37-.77,2.74-1.15,4.11Z" fill="#725846"/><path d="M735.67,652.93a2.4,2.4,0,0,1-1.11-.28l-2.74.15v1.43c-2.6,2.48-1.87,5.85-2.37,8.9a6.68,6.68,0,0,0,.32,1.88,5.53,5.53,0,0,0,1.86,2.18,5.41,5.41,0,0,0,3.6,1c3-2,3.09-5.32,4-8.3a2.06,2.06,0,0,0-.73-1.64Q737.06,655.6,735.67,652.93Z" fill="#5d402f"/><path d="M730.46,663.71c1.53-3,.66-6.35,1.36-9.48a8.73,8.73,0,0,0-5.33,1.2c0,.5,0,1,0,1.5C728.65,658.68,726.13,663.25,730.46,663.71Z" fill="#634031"/><path d="M715.63,674.56c2.13-1,4.75.5,6.73-1.31.59-1.32,2.33-2.24,1.35-4.09-1.8-2.51-3.6-.68-5.4,0,0,.42,0,.85,0,1.27-1.13.73-2.56,1.17-2.72,2.85Z" fill="#5a4432"/><path d="M715.6,673.28a4.41,4.41,0,0,0,2.72-2.85,11.56,11.56,0,0,0-6.78-1.28C712.54,670.88,713,673.2,715.6,673.28Z" fill="#453424"/><path d="M723.71,669.16c0,1.52-2.88,2.06-1.35,4.09l1.48.21c2.29.76,4.1-.94,6.2-1.21a12.29,12.29,0,0,0,2.77-.9c1.18-1.06,3.11-1.81,1.6-4l-2.59-.93c-1.4,0-2.81-.23-4.18.29a3.62,3.62,0,0,0-1.3,1.06A2.65,2.65,0,0,1,723.71,669.16Z" fill="#44321f"/><path d="M726.34,667.8l1.45,0c.88-.91,2.47-1.12,2.66-2.72,0-.45,0-.9,0-1.35-2.77-1.39.49-6.41-4-6.78C726,660.55,724.73,664.16,726.34,667.8Z" fill="#563726"/></g><g id="frame"><rect width="1000" height="1000" fill="none"/></g></svg>