<!-- Copyright (c) 2022 - 2023 Jan Stehno -->
<svg xmlns="http://www.w3.org/2000/svg" viewBox="0 0 1000 1000"><title>tuftedduck</title><g id="tuftedduck"><path d="M907.7,541.14a75.64,75.64,0,0,0,6.37-24.34,41.09,41.09,0,0,1,3-12.9c6.66-15.69,5.51-31.88,2.07-48a173,173,0,0,1-2.48-19,175.51,175.51,0,0,0-5.38-27.71,43.37,43.37,0,0,1,5.45-34.73C922.46,365.24,928,356,932.22,346c.32-.75,0,.25.34-.5,3.86-9.74,7.47-11.73,18.24-10.06,4,5.36,4.79,11.6,4.9,18,0,2.43-.29,5.09,3.57,4.51,3.81,5,5.15,11.31,5.44,17,.38,7.7,3.68,14.17,5.65,21.2a60.45,60.45,0,0,1,.08,25.62c-1.3,6.14-2.21,12.93.37,19.43,1.58,4,1.07,8.38.28,12.57a34.9,34.9,0,0,0,.23,14.39c1.51,6.69-1,13.18-1.53,19.78-.4,5.25-.92,10.51-.16,15.69,1.81,12.19,0,24.11-2,36.06-.2,1.18-2.41,2.88.57,3.66a3.69,3.69,0,0,1,2,2.93c.65,5.57-1.23,11.27.95,16.76a3.75,3.75,0,0,1-.26,2.38c-.77,2.28-1.33,5.73-3.66,5.81-3.23.12-2.3-3.58-2.82-5.72-1.47-6.07-1.94-12.33-3.38-18.42-2-8.23-.16-16.43.46-24.59.4-5.25.79-10.37,0-15.6-.76-4.79-1.16-9.68,1-14.27a8.51,8.51,0,0,0,.09-6.46c-.19-8.64,1.28-17.21.91-25.87-.27-6.2,0-12.38-1.07-18.6-1.34-8.19.9-16.38,1.39-24.57.3-5,.7-10,1-15-.05-1,1-2.1.42-2.81-6.45-7.7-8.67-16.33-6.26-24.28-1.69,4.06-.44,9.63.72,15.55,1.34,6.78-.15,13.93-.81,20.9-.94,1.41-.58,4.26-3.66,3.34-3-4.66-1-9.62-1.56-14.42.64,5-2,10.21,2.07,14.84,2.59,3.56.53,7.91,2,11.65a7.76,7.76,0,0,1-.27,4.81c-3.43,3.17-3.43,3.17-6-.31,1.8,7,3.7,13.3,4.45,19.84-.22,2.62,1.93,4.63,1.86,7.22-4.4,13.67-1.42,27.79-2.49,41.67-.17,2.17.06,4.39-.18,6.6-1.66,15.77-1.43,31.56-.39,47.36a31,31,0,0,0,1.34,7.09c.71,2.27.6,4.38-1.62,5.89-3.43.78-4.6-1.36-5.21-4.07-.51-2.29-.12-4.71-.88-7a37.84,37.84,0,0,1-.14-15c1.92-6.43-2.1-12.49-1.34-18.84-.66,5.71,2.39,11.09,1.67,16.81-1.62,6.67-1.06,13.33.07,20a30.55,30.55,0,0,0,.69,6.59,7.38,7.38,0,0,1-1.94,6.73c-1.27,1.31-2.74,2.91-4.69,1.85-2.26-1.22-1-3.19-.22-4.75,1-2,2.4-4.23,1.25-6.26-1-1.78.61-6.08-3.28-5.08-2.89.73-6.3,2.71-4.35,7.1a14.48,14.48,0,0,1,1.33,6.47c-.17,4.89-1.49,5.69-6,3.63-2.76-1.26-2.87-1.38-5.22-5.46a1.17,1.17,0,0,0-1,.45c-2.29,3.14-8.15,4.19-8.1,7.39,0,3,2,6.68,3.05,10.11,1,3.22-.53,6.21-.62,9-.24,7.1-6,14.65.71,21.62.79.82.6.67,1.68.57,3.44-.32,4.59,3.29,2.69,7.76a14.75,14.75,0,0,0,3,16.66,5.9,5.9,0,0,0,5.47,1.77c-3.73-5.13-2.7-8.93,3.48-11.37-3.59,1.93-5.74.41-7.27-2.21-3.47-5.94-5.64-12.17-2.56-19,2.17-4.81,5.33-5.4,8.54-1.39,2.61,3.25,4,2.91,5.18-.84.36-1.11.85-2.43,2.33-2.41a1.86,1.86,0,0,1,1.68,2.15c-.78,5.7,2.06,9.88,5.39,14,1.12,1.39,1.09,3.43,1.2,5.26,0,4.44,0,8.83,2.54,12.82a5.64,5.64,0,0,1,.46,5.28c-2,4.19-1.39,8.71-2.18,13-1,3-1.76,6.15-4.19,8.47-2.46,1.8-4.36.93-5.27-1.58-1.23-3.39-3.55-3.92-6.72-3.61a39.13,39.13,0,0,1-10.7,0c-1.24,1.45-.22,2.47.05,3.59.91,3.74-1,6.17-4.92,6.24-1.43,0-2.79-.59-4.21-.64-1.68-.06-3.39.08-4.18,1.82s.49,3,1.85,4c.33.24.71.41,1,.65,6.59,4.9,6.58,8.57-.08,13.66,1.46,2.12,3.75,2.12,5.95,2.33,1.61.15,3.53,0,3.8,2.16a4.07,4.07,0,0,1-2.53,4.47,157.13,157.13,0,0,1-18.72,5c-4.14.76-7.59-2.84-8.67-7.63-1.4-6.29-1.84-6.62-7.18-3.54-2.77,1.61-4.08.63-5.27-1.69a25.51,25.51,0,0,0-2.64-4.77c-2.37-2.91-4.76-3.9-7,.13-2.41,4.29-5.09,6.53-8.91,1.25a2.55,2.55,0,0,0-3.25-.85c-4.88,2.12-6.22,11.2-2.13,14.61a25.27,25.27,0,0,0,2.6,1.57c1.81,1.18,3.27,2.67,2.29,5a3.8,3.8,0,0,1-4.6,2.17,14.22,14.22,0,0,0-13.07,2.1c-3.3,2.31-5.49-.78-7.18-3.45-4.26-6.73-4.29-6.8-11.82-3.49-2.87,1.27-4.72.16-6.22-2-5-7.23-6.92-15.39-7.16-24-.06-2.4,1.57-4,3.08-5.69,3.37-3.79,3.17-5.11-1.42-6.93-5.63-2.23-7.12-7.12-8.29-12.24-.78.28-1.07.57-1.09,1-.54,11.11-1.43,11.89-12.83,11.78-3.78,0-4.62-1.91-3.56-5.11.77-2.3,2-4.39,3-6.61a10.38,10.38,0,0,0,.9-7.07,3.33,3.33,0,0,0-2.22-2.66c-1.5-.4-2.21.77-2.76,1.85-3.63,7.07-9.24,13.46-6.9,22.49.8,3.07-4.75,9-8,9.23s-3.76-1.93-3.11-4.39c.72-2.74,1.79-5.43,1.8-8.26,0-7.54-.5-15.07,1.48-22.5.69-2.6-1.11-2.54-2.93-1.67A9.1,9.1,0,0,0,766.1,659c3.23,4.82,2.71,5.74-1.44,9.29-7.3,6.23-16.48,7.12-25.1,9.68a4.25,4.25,0,0,1-1.81.06c-2.67-.36-13.64-11-13.62-13.77,0-3.69-1.2-4.43-4.78-3.69-5.51,1.15-8.08-1.83-6.62-7.11.78-2.82,2.29-4.36,5.3-2.49,1.8,1.12,3.69,2.45,5-.31,1.18-2.42,0-4.51-2.17-5.6-2.77-1.41-5.92-1.17-9-1-3.94.29-4.71,2.91-4.93,6.32-.2,3.08-2.79,3.67-5.4,3.63-2.85,0-4.41-1.36-4.66-4.41-.5-6.24-5.45-9.39-11.5-7.52-1.17.36-2.2,1.07-3.32,1.5-2.36.92-4.71,4.43-6.85,2.64-2.55-2.13,1.12-4.47,1.92-6.76.43-1.24.71-2.59-.65-3.17-4.22-1.79-8.27-4.19-13.23-1.43s-9.16,6.25-9.58,12.3c-.31,4.38,4.29,7.26,9.89,5.87,4.35-1.08,7.41-1.45,8.47,4.06.47,2.44,2.73,1.85,4.53,1.15,2.83-1.1,5.5-2.71,8.58-3,4.44-.47,6.08,1.78,4.27,5.77-.57,1.28-1.53,2.38-1.77,3.82-.55,3.27.15,5.56,4.11,5.83a40.48,40.48,0,0,0,9.06-.61c4.45-.69,5.54.63,4.72,5-1.44,7.76-1.28,8.32,6.91,8.32,4.81,0,6.17,1.69,5.5,6a23,23,0,0,0,0,4.23c.11,4,1.76,6.15,6.09,5.36a25.58,25.58,0,0,1,3-.19c5.27-.31,9.13,1.39,10.51,6.94,1.08,4.35,3.86,6.48,8.44,6.08,7.37-.64,13.77.5,17,8.39,1,2.32,3.32,2.33,5.22,1.12,4.18-2.66,8.94-3.8,13.43-5.65,3.25-1.33,5.73-3.19,6.88-7C790,703.93,792,704,796,707.12c4.5,3.51,6.69,6.74,3.29,12.7-2.82,4.92.24,8.86,6.06,9.18,4.72.25,7.14,3,10.1,6.5,6.17,7.3,6.33,17.19,12,24.53,1.74,2.23,1.44,5,.27,7.54-5.13,11-12.33,20.87-17.06,32.08-.77,1.83-2.43,3.3-4.91,2.56-1.38-1.27-.71-2.75-.45-4.19,5.3-9.22,7.64-19.93,14.3-28.49a5,5,0,0,0,.28-6.2,14.93,14.93,0,0,1-2.53-6.1c-.09-3.72-.62-7.16-4.45-9.15-1.91-1-2.5-3-3.22-4.88-.57-1.52-.31-3.84-3-3.82-2.7,1.27-5.07,3.16-7.94,4.07-6.79.33-7.32-.44-8-6.9-.24-2.39,2.46-7.82-4.22-6.38-1.76.92-3.48,1.89-5.31,2.64a11.35,11.35,0,0,0-4,2.53c-2.76,2.53-5.32,2.13-7.76-.45-2.86-2.64-5.39.5-8.11.47-7.11-.58-7.94-1.47-9.42-10.14-1.12-2.9.6-8.36-5.88-6.45-2.69,1.09-5,3.18-8.15,3.06-3.44-.46-5.49-2.59-6.82-5.58-.65-2-.44-4.2-.57-6.31s-1.36-2-2.82-1.46c-4.77.68-9.33,4.46-14.38,1a12.52,12.52,0,0,1-4.64-9.07c.61-6.5.61-6.51-6-5.41a12.86,12.86,0,0,1-6,0,4.13,4.13,0,0,1-2-1.54c-.94-1.56-1.92-3.38-1.47-5,1.91-7.15-2.72-6.1-6.91-5.7-1.41.31-2.79.73-4.22.94a5.78,5.78,0,0,1-1.81-.19c-5.41-2.16-4.79-6.57-4.2-11,1.24-6.12.92-6.59-4.92-5.3-3.88.86-6.79.64-9.56-2.85s-7.37-.63-10.89-2.13a10.57,10.57,0,0,1-3.73-2.36,13.24,13.24,0,0,1-3.67-5c-.61-2.78-2.64-2.91-5-3.07-10.1-.7-15.57-9.77-11.79-19.34,2.37-6,2.37-6-3.84-7.72-3.75-1.78-7.79-2.79-11.59-4.45a24,24,0,0,1-5.35-3.3c-2.65-2.33-3-5.08-1.55-8.18,2.2-4.36,7.23-4,10.32-6.15-5.77-1.44-12.28-.72-18.08-3.69-5-4.86-5.27-5.75-1.25-11,1.83-2.38,2.85-4.25.29-6.68a5.93,5.93,0,0,1-1.66-6.08,4.81,4.81,0,0,0-1.21-4.45c-3-3.56-1.59-6.23,1.89-8.37,1-.62,2.55-.92,2.38-2.38-.89-7.61,4-6.26,8.47-5.46,10.22,1.25,20.43,3.3,30.68,3.52,11.38.25,21.67,4.15,32.26,7.13,15.08,4.25,29.08,11.33,43.36,17.58,9.94,4.35,19.54,9.37,30.07,12.33a35.37,35.37,0,0,0,11.33,1.07c8.69-.35,16.87,3.24,25.6,3.74,16.8.94,31.27,8.73,45.26,17.37a8.19,8.19,0,0,0,5.16,1.49,26.34,26.34,0,0,1,12.49,2c8,3.27,16.3,4.16,24.65,5.29,7.9-1.53,8.06-1.53,7.93-9.63-.08-4.69,3.4-8,4.14-12.29-.55-10.61,6.64-18.33,10.34-27.35,3.84-9.39,11.91-16.31,15.3-26C905.43,547.66,907.13,544.61,907.7,541.14Z" fill="#2e2720"/><path d="M805.31,801.82a4.26,4.26,0,0,0,4.35-2.77c4-11.25,11.3-20.79,16.57-31.38,1.23-2.47,2.11-5.3-.08-7.33-3.73-3.43-4.95-7.54-5.43-12.34-.22-2.29-.41-5.16-3.83-6.15-2-.57-2.6-3-2.91-5-.75-4.76-4.16-6.49-8.25-6.31-3.1.14-6,1.22-7.62-2.52s-2.41-7.34.42-10.79c1.18-1.45,2.83-3,1.27-4.72a40.55,40.55,0,0,0-7.66-6.61c-.73-.48-2.59,1.61-2.42,3,.84,7-5.45,7.31-9.27,9s-7.93,2.69-11.56,5c-3.43,2.22-6.32,2.14-7.81-2.74s-5.11-7.55-10.67-6.85c-2,.25-4.07-.12-6.09.07-4.47.42-6.52-1.81-7.81-5.86-2.31-7.22-4.39-8.33-11.71-7.29s-8.38.23-8.43-7.26c0-2.6,0-5.19,0-8.31-3.42,2.09-7.09.16-10.71,0-4.62-.16-3.27-5.47-2.25-7.78,3.13-7.08.22-6.23-5-4.91-3.19.81-6.82.35-10.18-.06-2.68-.32-3.57-7.39-1.28-10.39,1-1.38,3.49-2.4,1.82-4.34-1.46-1.7-3.74-.86-5.67-.06a32.54,32.54,0,0,0-5,2.05c-4.85,3.1-8,3.17-8.1-3.77,0-2.43-1.35-2.59-3.23-1.66A10.1,10.1,0,0,1,664,655c-4,.6-7.91.26-10.59-3s-1.52-6.65.14-10.19c2.78-5.91,8.23-9,13.65-10.06,3.85-.77,8.58,2.25,12.75,4,1.11.46.05,2.25-.53,3.24-1.3,2.19-2.77,4.28-4.72,7.27,3.55-2,6.33-3.41,8.9-5.11,5.27-3.48,9.69.54,14.35,1.63,1.84.43,1.53,3,.9,4.84-.85,2.48-1.58,4.93,2.43,5.12,3,.14,5.32-.09,4.3-4.26-.81-3.36.78-5.31,4.47-5.59,5.17-.39,10.61-2.54,14.51,3.1,2.25,3.24.84,5.71-1.51,8s-3.83.43-5.24-1.48c-.69-.93-1.78-2.12-2.95-.85-1.52,1.64-.8,3.84-.82,5.82,0,1.75,1,2.71,2.69,2.46a18.32,18.32,0,0,0,4-1.38c4.34-1.79,5.92.19,5.13,4.16-.85,4.25.26,6.76,4.78,7,2.62.16,3.36,1.95,4,3.9,1.14,3.73,3.47,4.18,6.51,2.35a7.68,7.68,0,0,1,3.93-1.39c7.45-.14,13.26-4.15,19.25-7.89,3.38-2.11,4.47-3.6.65-6.57-3.63-2.81-2.68-6.91-1.11-10.54,1.73-4,5.34-6.11,9.34-7.11,2.15-.54,1.79,1.76,1.68,3a26.55,26.55,0,0,1-1.17,6.49c-3.18,8.71,2,18.36-3.17,26.84a1.73,1.73,0,0,0,1.18,2.8c2,.39,8.05-6.34,7.43-8.37-3.28-10.73,5.06-17.66,8.57-26.15.43-1,1.58-1.06,2.64-.56,2.11,1,3.7,2.34,4.1,4.84.83,5-2.08,8.88-4,13.07-.61,1.36-2.3,2.7-.88,4.36,1.3,1.5,2.58,0,3.85-.35,2.85-.85,8.72-7.52,9.6-11.15.4-1.65,1.43-2.6,2.9-2.53a2.49,2.49,0,0,1,2.42,2.89c-.33,6.28,2.2,9.92,8.84,11.18a3.9,3.9,0,0,1,1.67,7c-8.56,5.17-3.61,12.31-3.09,18.4.33,3.92,3.45,7.59,5.27,11.39,1.5,3.15,3.08,2.84,5.55.73,5.39-4.61,8-4,11.13,2.09,3.92,7.62,4,7.76,10.77,2.61,2.62-2,4.47-.59,6.68.29s5.31,2,6.48-.7c1.28-2.89-2.14-3.13-4-4.1a8.13,8.13,0,0,1-3.5-11.26c.46-.89,1.15-1.65,1.69-2.51,4.77-7.55,6.07-7.52,11.13.34,2.57-.59,3-3,4.07-4.84,2.56-4.55,5.27-5,8.59-1,2,2.45,3.16,5.54,4.73,8.4,1.55.22,1.79-1.32,2.54-2.14,1.5-1.64,3.26-2.58,5.4-1.7a5.45,5.45,0,0,1,3.35,4.66c1.38,9.37,3.25,10.16,11.92,7.57,4.05-1.22,8.11-3,12.58-2.9,2,0,2.47-2.07,3.43-4.11-3.6-.34-7.38.76-10.11-2.13-.74-.78-2.7-.64-2.2-2.27a3,3,0,0,1,2.22-1.72c3.31.13,4.38-2,4.53-4.52a5.41,5.41,0,0,0-3.93-5.55c-3.65-1.19-6.31-3.5-4.65-7,1.58-3.32,5.47-3.86,8.9-2,2.38,1.34,3.91.07,5.37-1.26,2-1.79-.23-2.79-1.12-3.9-1.12-1.39-1.81-2.78-.53-4.33s2.67-1.22,4.34-.38c3.25,1.62,6.74.29,10.06.1,3.91-.22,6.85-.44,6.86,4.74,0,2.14,1.66,2.52,3.51,1.55.7,7,1.5,14,1.71,21.1-.08,2.43,1.37,4.43,2,6.64,1,.67,2.07-3.44,3,0,0,2,.08,4-.14,6.91.48-3.2-.46-5.64.82-7.87,5.56,4.72,5.4,12.64-.23,15.05-5.23-1.34-8.47,0-11,5.39-6,12.74-16.18,15.82-27.73,9.24-4.35-2.48-4.49-5.27-.38-8.21,1.15-.83,2.49-1.34,3.71-2.06,1-.58,2.33-.83,2.54-2.8-8.89,1.1-15.37,5.78-20.76,12.33-.51.61-.85,1.37-1.34,2-2.06,2.63-5.75,3.88-6.29,7.82s4,5.11,4.62,7.95c1.57,7,3.08,14.21,1.82,21.46a26.6,26.6,0,0,0,.57,13.09c-2.28,3.57-5.51,6.71-5.25,11.44a10.19,10.19,0,0,1-2.31,4.92c-2.27,1.8-4.11,4-4.63,6.85-1.48,8.15-5.2,15.59-7.39,23.51-1,3.55-2.58,6-6.85,4.22-5.32-3.58-6.26-3.5-7.81,3-1.9,7.94-5.56,15.08-8.79,22.44-.75,1.7-1.62,3.58-3.58,3.71-2.37.16-2.6-2.16-3.11-3.82-1.06-3.46-2-6.95-2.94-10.44-.32-1.18-.47-2.68-1.85-2.83-1.94-.22-2.1,1.54-2.26,2.9-.71,6.29-4.62,11.06-7.87,16.1-1.29,2-3.94,4.57-5.44.88-2.76-6.8-9.44-11.51-10.06-19.37a37.25,37.25,0,0,0-1.28-6.49c-.3-1.13-.84-2.51-2.28-2.46s-1.86,1.34-2,2.58c-.54,4.67-3.84,7.19-7.64,10-3.14-10.74-5.59-21.16-6.21-31.95.87-2.83,2.86-5.14,3.73-8a6.36,6.36,0,0,1,.79-1.42Z" fill="#241f1b"/><path d="M604.2,742.47c-6.86-.32-13.64,1.39-20.58.38-3.65-.53-6.87-2.1-10.15-3.3s-5.12-4.48-4.44-8.41c.34-2,.71-4,1.14-5.93.62-2.89,2.64-7.65,1.71-8.3a22.25,22.25,0,0,0-11.08-4c-6.92-.34-12.56-2.77-18-6.79-4.09-3-5.72-6.49-2.9-10.7,2.61-3.91.24-4.61-2.56-5.84-7.37-3.25-14.64-6.71-19-14.06-.51-.86-1.7-1.9-1.5-2.51,2.23-6.75-3.48-7.4-7.25-9.29a50.61,50.61,0,0,1-13.73-10.52c-4.35-4.52-3.83-8.8,1-13.55s4.7-5.72-1.59-8c-7-2.58-12.62-7.2-18.63-11.24-4.75-3.18-4.29-7.06.81-10.18,6.06-3.71,5.79-3.43,1-8-6.11-5.82-10.82-12.85-15-20.12-1.22-2.12-1.73-5.19.12-7.47,2.27-2.8.82-4.82-1.16-6.45-6-4.92-8.91-11.79-11.82-18.48-1.88-4.34.42-7.59,5.34-8.89,10.23-2.7,20.48-5,31.18-4.28,3.36,1.08,6.85.64,10.22.4a13.19,13.19,0,0,1,11.41,4.47,19.46,19.46,0,0,0,12.47,6.75c1.88.25,4.46.56,4.06,3.43-.35,2.41-2.51,3-4.61,3.17-2.63.29-5.27.09-7.91.2-2.83.13-5.21,1-6.2,4-.87,2.58.94,4,2.45,5.68,3.55,4,7.11,7.55,13.17,7.14,1.92-.13,4.26,1,4.36,3.41.12,2.86-2.28,3.48-4.57,3.86a39.59,39.59,0,0,0-5.38.94c-3.69,1.16-4.6,4.21-5.29,7.47-.62,3,.68,5.07,3.06,6.68,2,1.36,4.35,2.3,6.12,3.94,3.47,3.23,7.19,4.2,11.67,2.34a9.44,9.44,0,0,1,4.77-.73c2.93.37,3.54,1.82,1.53,4-2.94,3.16-6.8,5-10.53,7.09-3.28,1.8-4.21,3.5-.35,5.94,4.46,2.82,8.21,7.9,14.33,3a2.65,2.65,0,0,1,3.81.68c1.15,1.71,0,3.13-1.1,4.27-2.42,2.38-5.37,4.16-6,8-.72,4.06-.83,7.53,3.13,10.13a12.33,12.33,0,0,1,4.44,5.64c1.74-1.13,3-2.74,4.81-3.65a5,5,0,0,1,3.4-.91c2.34,1.3.86,2.75,0,4-1.36,2-3,3.74-4.37,5.78-2.58,3.95-2.3,7.08,1.16,10.68,5.77,6,8.77,13.33,8,21.93-.54,6.28,2.3,10.92,8,13.59,4,1.87,7.5,4.26,9.57,8.07,5.59,10.31,15.67,16,23.92,23.64,1.47,1.36,3.36,2.25,4.89,3.57,1.76,1.53,4.61,2.62,3.85,5.56C608.75,743.11,605.64,740.93,604.2,742.47Z" fill="#392f26"/><path d="M871.2,883.09l.25-1.16a9.13,9.13,0,0,0,5.37-9.32c-.56-7.29,3.18-14.11,2-21.46-.35-2.21,1.45-3.62,3.37-4.54a16.53,16.53,0,0,0,5.94-4.06,4.29,4.29,0,0,1,2.41-1.28,2.54,2.54,0,0,1,1.69.6c1.66,3.29-.64,5.09-2.68,7-2.91,2.73-7.18,5.88-7.3,10.25-.36,12.57-4.88,13-1.63,14,2.88,1,4.32-3.7,5-5.78,4,.94,5.32,3.48,5.33,6.85,0,6.88.44,13.24,4.52,19.57,2.61,4,.79,10.26,2.24,15.33.88,3.1-.28,8.58,6.39,5.55,1.42-.64,2.79,1.15,3,3.07.55,6.72,3.88,13,2.57,20.12-.79,4.31,1.07,8.51,6.87,8.71,3.6.12,4.65,2.8,5.35,5.65.8,3.32,1.88,6.06,6.06,6.42,3.12.27,3.77,3.3,5,5.61,1.92,3.7,3.94,7.3,9.2,5.85,3.31.77.81,3.84,2.16,5.39.66,2.1,1.44,4.18,2,6.31s2.8,5.74-2.8,3.36c-1.81-.77-3,1.81-4,3.14a49.15,49.15,0,0,1-10.34,10.07c-4,2.85-6.22,2.12-7.58-2.23-1.86-5.94-4.35-11.73-4.21-18.16,0-1.54.51-3.54-1.17-4.44-2.2-1.18-3.06,1.35-4.48,2.2-3.47,2.07-6.83,4.33-10.1,6.69-4.11,3-6.16,1.48-7.33-2.89a41.15,41.15,0,0,1-.14-20.88c.32-1.28,1.8-2.55.6-3.91-1.42-1.6-2.51.25-3.71.65-7.86,2.65-11.09.83-12.53-7.39-.59-3.41-1.78-3.55-4.34-1.57-2.2,1.72-2.45,4.56-4.8,7.13-2-6.48-2.58-13.49-9.65-16.31-6.44-2.57-12.87-3.58-20.1.94,2.28-6.4,4.51-11.71,8.27-16.31,7.54-9.07,13-19.65,20.78-28.56C870.91,890.62,870.53,886.55,871.2,883.09Z" fill="#221a17"/><path d="M554.2,644.23l-2.41,1.29c-1.76.38-1.51-.79-1.19-1.71a11.24,11.24,0,0,1,4.14-5.13c3.37-2.59,6.29-4.61.23-7.76-2.84-1.49-1.33-4.71-.42-7.17a10.76,10.76,0,0,1,4.54-5.64c-2.16-.14-5.16,1.67-5.94-1-.87-2.95,3-2.77,4.63-4.18-3.23-1.3-6.59-.82-9.73-1.6-2.25-.57-4.38-1.53-4.39-4.28,0-2.55,1.7-4,3.89-4.91,2.45-1,5.28-.49,8.52-2.34a46.81,46.81,0,0,0-8.24.12c-3.2.36-6.85,1.65-5.43-4.26.5-2.12-2-2.75-3.81-3.07-2.8-.49-5.7-.32-8.48-.83-4.15-.76-5.22-3.68-2.71-7a23.38,23.38,0,0,1,5.29-5c1.88-1.33,5.82-.48,5-4.89-.14-.79,2.37-1.15,3.8-1.21,3.45-.15,6.9-.08,11.09,0-4.1-2.23-6.14-5.67-8.77-8.56-2.88-3.16-2.64-5.7,2.31-7.93-3.65.12-6.42-.19-8.95-1.44-1.3-.63-2.79-1.48-2.42-3.09s2.16-1.5,3.56-1.4c5,.36,9.84,2.13,15.44,1.58-3.22-3.17-5.84-6.14-9.6-7.92-1.9-.9-4.12-2.09-3.37-5,10.16,1.69,20.7,1,30.48,5,2.57.91,4.78,2.1,5.17,5.22a12.89,12.89,0,0,0,6.92,10.1c1.35.76,3.18,1.9,2.36,3.7-.93,2-3.11,1.55-4.86,1-4.21-1.27-7.6-4.41-12.78-5.22,4.79,1.2,8.42,2.06,5.95,8.09-1.17,2.87,2.58,5.43,5.29,6.61,7.7,3.34,9.84,8.88,8,16.69-1.12,4.85.8,9.18,3.66,13,3,4,5.68,7.91,3,13.24-1.19,2.36.2,3.82,2.57,4.41,1.78.45,3.68.18,5.42.73,2,.63,4.59,1.1,2.9,4.31-7.18,1.66-14.5,2.64-21.68,4.3-3.77.46-7.68.42-10.79,3.14C566.29,637.43,560.29,640.9,554.2,644.23Z" fill="#584e45"/><path d="M540.8,539.93l17.07,13.62c-7.86,2.63-14.94-.76-22.88-1.13,4.56,4.62,10.24,2.6,15.1,3.81-.44.94-.53,1.5-.76,1.57-7.56,2.31-7.21,2.05-2.79,8.18,2.54,3.51,5.94,5.69,10.51,8.94H538.44c.25,2.26,3.26.77,2.84,2.89a2.73,2.73,0,0,1-2.81,1.9c-4.51-.26-7,2.72-9.6,5.53-.88,1-2.67,1.72-1.69,3.42a4.1,4.1,0,0,0,4.06,2.11,49.71,49.71,0,0,1,7.81.19c5.27.53,6.83,3.66,4,8.33a40.8,40.8,0,0,1,17.88-.32c-4,2.33-6.47,4.5-10.22,4.11-2.93-.3-5.84.86-5.8,3.91,0,3.45,3.51,3.33,6.08,3.27a20.34,20.34,0,0,1,9.78,2.26c-1.16,3.73-5.61,1.35-7,4.71,3.22.33,6.27-2,9.83-.07-2.39,2-5.65,2.21-6.81,5.1-1.56,3.88-4.42,7.75,2.6,9.54,3.43.88,4.26,2.68.38,5-3.37,2-7.23,4-7.91,8.69l-7.65,6.55c2.48-4.63-1.28-6.52-3.73-8.71a11.37,11.37,0,0,1,.83-18,20.86,20.86,0,0,0,2-1.3c.93-.9,2.82-1.79,1.53-3.32s-2.62-.15-3.66.77c-3.52,3.07-6.75,4-10-.52-1-1.4-2.83-2.22-4.32-3.26-5.87-4.13-5.92-5.05.52-8.49,4.07-2.18,8-4.42,11.4-7.67-.42-.37-.79-.85-.93-.79-8.61,3.76-15.93,1.69-22.79-4.33-2.84-2.51-6.62-3.73-5.56-8.83,1.13-5.39,3-9.48,9.3-10,2.37-.2,6.58,1.3,6.49-2.18-.08-3.26-4.29-2.52-7-2.65-3.3-.16-13.44-8.51-13.92-11.47-.61-3.73,3-7.72,7.23-7.9,3.44-.16,6.89,0,10.33-.17,1.23-.05,2.48-.65,2.4-2.16s-1.36-1.21-2.31-1.32c-5.51-.58-10.24-2.08-13.85-7-3.42-4.66-8.73-6-14.6-5.23-2.08.26-4.49.8-6.36-1C505.14,536.13,523.07,536.45,540.8,539.93Z" fill="#4b4038"/><path d="M805.33,803c-.85,3.41-1.73,6.81-5.18,8.7-2.71-1.43-3.35,1.33-4.8,2.39a12.45,12.45,0,0,0-2.15,2.08c-7.43,8.95-9.27,9.09-14.4-.64-2.3-4.37-4-4.32-7-1.4s-4.5,1.92-6.2-1.52c-2-4.1-6-7.07-7.45-11.62-.65-2-2.21-2.27-3.8-1-6.13,5-9.6,1.7-12.39-3.85-.81-1.61-1.65-3.22-2.37-4.88-1.15-2.7-2.46-3-5.07-1.28-9.53,6.32-9.6,6.22-13.34-4s-4.52-10.54-13.29-4c-6,4.46-6.18,4.4-8.54-2.57-.25-.76-.37-1.57-.64-2.32-2.76-7.79-2.79-7.82-9.46-3.47-2.88,1.88-4.35,3-6.39-1.72s-5.92-9.06-5.53-14.9a7.24,7.24,0,0,1-1.07-2.6c-.08-2.5.87-4.88.88-7.38,1-6.27,5.16-11,8.28-16.16,4.51-.55,3.53,2.58,3.48,5.12-.1,5.31.24,10.5,4.4,14.52,3.86,3.74,5.72,3.5,8.26-1.06,1.06-1.9,1.63-4.18,4.08-4.95,3.81,2,2.45,5.59,2.48,8.56,0,4.66.91,8.79,4.68,11.91,3.58,3,5.33,2.63,7.36-1.55,1.05-2.15,1.64-4.6,4.09-5.76,3.6-.24,4.12,2.54,4.82,5,1.05,3.71,2.51,7.17,5.62,9.63,1.66,1.3,3.37,3,5.83,1.51,1.46-1.6,1.76-3.94,3.5-5.36,2.85-1.93,4,.13,5,2.22s1.14,4.74,2.08,6.9c1.12,2.54,1.78,6.47,6.33,4.52,1.19-2.53,1.6-5.51,4.18-7.23,2.85.4,3.12,2.77,3.72,4.85,2.4,8.24,4.14,9.58,12.67,9.7a4.79,4.79,0,0,1,4.7,3.21c3.61,9.79,10.15,13.46,20.32,10A3.06,3.06,0,0,1,805.33,803Z" fill="#2b2621"/><path d="M554.2,644.23c4.22-5.9,11.29-7.38,17.08-10.84a3,3,0,0,1,3.35-.51c1.21,3.84-1.15,5.63-4.22,6.47-5.77,1.57-7.84,6.78-10.54,10.93s-.49,9.17,3.73,12.19c2.45,1.75,5.35,2.88,6.39,6.12.61,1.9,1.89.95,2.88.31,2.56-1.62,5-3.37,7.61-5,3.08-1.76,5.63-1,6.91,2.15s-1.45,4.08-3.52,5.38c-6.59,4.12-6.4,16.35.43,20,2.82,1.5,5.44,4.92,8,4.69,2.75-.24,4-4.64,6.16-7,1.31-1.39,2.38-3.46,4.93-2.35.45.7.95,1.62.57,2.26-3.91,6.49-1.67,13.71-2.58,20.55-.21,1.61-.76,3.57.35,4.68,4.49,4.53,5.25,11.89,11.66,14.93,1.9.91,2.73,2.85,3.72,4.63,5.54,10,13.12,17.16,25.45,17.38.86,3.88,3.86,7.4,2,11.72l-8.45.35c-6.31-3.93-14-5.69-18.79-12-2.33-3.09-6.17-2.49-9.14-4,.39-2.94,1-6-3.88-4.85.77-2,3.64-.47,4.53-2.89-5.3-5.58-12.13-9.56-18-14.64-6.3-5.48-12.11-11-16.45-18A14.77,14.77,0,0,0,568,701.6c-8.42-4.22-10.6-7.78-10.09-17.14a25.13,25.13,0,0,0-6.58-18.09c-6.22-7.18-6.4-10.19.15-17.62C552.55,647.47,555.43,647,554.2,644.23Z" fill="#4b4038"/><path d="M605.3,626c-1.71-3.41-4.9-2.05-7.56-2.28-6.17-.55-7.55-2.43-4.7-7.85,2.09-4,.11-7-2.06-9.23-5.41-5.68-6.2-12.21-4.84-19.32.91-4.79-.19-8.06-5.12-9.95a16.32,16.32,0,0,1-7.27-5.27c-2.13-2.86-4.43-5.91,1.19-8.62l-8.89-4.29c6.91-.37,12.27,4.42,19.32,4.51-6.85-3.14-10.48-8.08-10.88-15.42-.06-1.17-2.09-2.24-3.21-3.35l34.18,9.64c-1.41,0-2.82,0-4.23.07-1.59,0-3.51,1.68-3.21,2.17,3.74,6.07-2.38,6.1-4.89,8.35a5.09,5.09,0,0,0-.94,2c6.46,3.22.37,11.36,6,15,2.36,1.5,2.48,3-.1,5-4,3.09-6.29,6.85-1.17,11.12,2.47,3.84,7.55,5.69,8.32,10.82-.62,2.67-.81,5.25,1.45,7.35.25,3.32,2.33,3.31,4.79,2.6,3.73,1.6,7.89,2.13,11.3,4.54A24.08,24.08,0,0,1,605.3,626Z" fill="#6d5f55"/><path d="M889.5,843.1c-.19.35-.29.91-.58,1C876.63,849.26,881,861,878.68,870c-.71,2.81-.28,5.92-1.28,8.85-1.06,3.09-2.87,4.13-5.95,3,1.9-16.2.82-32.59,3.23-48.75a7.24,7.24,0,0,0-1.4-5.67c2.83-.11,4.65-.81,5.37-4.25,1.87-8.91,6.24-17.11,7.92-26.15a5.71,5.71,0,0,1,5.38-4.92,4,4,0,0,1,1,4.49c-3.12,8.75-4,18.19-8.1,26.62C880.21,831.23,880.81,833.79,889.5,843.1Z" fill="#322a28"/><path d="M644.46,762.94c-.55-4.06-3.59-7.6-2.52-12a3.23,3.23,0,0,1-1.15-2c-.43-3.44-.54-7.42,2.89-8.89s3.74,3.2,5.81,4.71c4.08,6.55,9.24,11.24,17.76,10.15a10.82,10.82,0,0,1,1.78-.37c2,.16,4.6-.58,4.84,2.73-5.16,5.55-12.18,8.51-18.24,12.81-2.59,1.84-4.67.73-5.8-2C648.77,765.54,647.5,763.37,644.46,762.94Z" fill="#312a22"/><path d="M950.5,336.28c-4.46-1.37-8.42,2.71-13,1.23-.64-.21-2.46,2.34-2.7,4.22s-.4,3.6-2.53,4.28c2-11.66,2.46-23.47,3.49-35.22,1.44-3.38,3.79-3.52,5.68-.82,2.14,3.06,5.32,4,8.34,5.48,2.48,3.13,2.71,6.86,2.89,10.61-.75,1.45-2.75,2.32-1.3,4.7A4.5,4.5,0,0,1,950.5,336.28Z" fill="#5e5853"/><path d="M608.08,747.32c3.06-1.72,7.2-.72,8.25,1.09,4.57,7.86,14.75,7.89,19.68,14.88-5.62,3.57-12,3.17-17.72,1.64C606.1,761.68,605.54,760,608.08,747.32Z" fill="#392f26"/><path d="M975.32,458.35l-2.26,3.24c3.59-17.67-2.52-34.69,2.36-51.35,1.71-5.56,1-11.56,3.86-17A256.47,256.47,0,0,1,975.32,458.35Z" fill="#2e2720"/><path d="M964.11,893.39c.23,5.38-.84,10.55,2.11,16,3.15,5.84,4.2,12.83,5.86,19.4.42,1.63,1.27,4.16-1.79,4.88-4-3.45-3.68-8.59-4.84-13.06s-2.45-8.74-5-12.58c-2.79-4-.74-8.81-2.1-13.06-.15-1.8-.24-3.8,1.86-4.39S963.22,891.86,964.11,893.39Z" fill="#11100e"/><path d="M960.45,356.11c-.34-2.82-5-4.21-3.22-7.33s2.4-5.61.6-8.64c-4.23-5.08-3.22-11.44-4.29-17.29a21.66,21.66,0,0,1-.74-4.14c0-1.4-.08-3.09,1.34-3.74,2-1,2.63,1.12,3.61,2.26,4.24,12.6,1.48,26.08,4.88,38.78A1.44,1.44,0,0,1,960.45,356.11Z" fill="#5e5853"/><path d="M871.2,883.09c1.32,5.6,0,10.1-4,14.63-5.69,6.39-10.4,13.65-15.46,20.58-1.08,1.49-2,3-3.93,3.52,5.31-10.5,12.59-19.8,18.5-29.93C868,889,869.57,886,871.2,883.09Z" fill="#3f3735"/><path d="M973.47,394.2c-4.26.46-2.45-3.31-2.3-4.36,1.2-8.85,1.11-17.72,1-26.6l0-.12c1.53,3.28,3.71,6.2,5.2,9.5C978.87,380.31,974.81,387,973.47,394.2Z" fill="#2e2720"/><path d="M978.29,506.91c-3.19,6.28-1.16,13.18-2.39,19.7-.76,1.38-.44,3.6-2.8,3.75-1,.07-1.18-.61-.88-1.46,1.44-11.56-1.23-23.34,2.37-35,0,2.64,0,5.14,0,7.64,0,1.35-.61,3,.83,3.9,2.08,1.34,1-3.19,3.24-1.83C978.54,504.73,978.42,505.82,978.29,506.91Z" fill="#2e2720"/><path d="M949.11,315.71c-3.72.39-6.71-.31-8.26-4.34-1.12-2.92-3.19-2.39-5.14-.58.17-3.69,2.06-6.42,4.9-8.61,2.61,1.21,5.61.7,8.25,1.81,3.64,2.88,2.61,6.25,1,9.69A2,2,0,0,1,949.11,315.71Z" fill="#7a7068"/><path d="M978.52,799.07c7.12,3.67,4.77,9.07,2.66,14.42-.94,1.79-1.64,3.77-2.91,5.29-.73.88-.34,3.85-3.08,2.27-2.06-1.19-2.16-2.93-1.1-4.63C977.43,811.08,978,805.09,978.52,799.07Z" fill="#241f1c"/><path d="M878.39,604.14c-1,6.42-3.15,12.66-2.49,19.36.28,2.92-1.65,4.31-4.86,3.21a24.29,24.29,0,0,0-4.72-.65c3.48-.91,5.19-2.78,4.8-6.72C870.5,613,876.11,609.29,878.39,604.14Z" fill="#383128"/><path d="M985,911c-2.39,5.3-1.37,11-1.74,16.47-.15,2.19.23,4.41-.78,6.5-2.25-1.93-1.56-4.9-2.6-7.25-1.34-6.79.65-13.18,2.4-19.59C985.26,907,985,909.06,985,911Z" fill="#11100e"/><path d="M968.41,940.12c1.22-.85,2.75-2.52,2.67.78-.13,4.64-1.35,9.08-2.45,13.56-.77,3.2-3.45-1.55-4,1.25Q966.54,947.91,968.41,940.12Z" fill="#11100e"/><path d="M958.3,954c2.51.31.88,3.07,2.38,4,0,4.85-1.27,9.44-3,15C953,965.83,959,960,958.3,954Z" fill="#221a17"/><path d="M950.71,983.2c-.64-5.27-1.7-10.5-1.37-15.86a9.93,9.93,0,0,1,.42-1.71c.09-.21.54-.27.82-.4.17,5.69,2.89,11,2.35,16.79C952.83,983.05,952.38,984.56,950.71,983.2Z" fill="#221a17"/><path d="M949,300.15l.09,4.53c-2.82-.9-6.82,2.18-8.5-2.5C943,299.66,946,299.89,949,300.15Z" fill="#7a7068"/><path d="M965.14,354.48c.46,4.22,4.22,8.46-.46,13.06-.73-2.08-1.39-3.93-2-5.78a5.14,5.14,0,0,0,1-3.69C964.5,357,962.93,355,965.14,354.48Z" fill="#2e2720"/><path d="M907.7,541.14c.36,3.82-1.14,7-3.67,9.69C903.74,547,906.09,544.22,907.7,541.14Z" fill="#2e2720"/><path d="M673.87,757.26c-1.67-2.28-4.14-1.09-6.26-1.42,2.58-4.72,6-3.15,9.52-1.31l.19,2.55C676.11,755.9,675,756.87,673.87,757.26Z" fill="#635950"/><path d="M744.6,769.22c-.89,2-1.78,3.93-2.66,5.89-6.47.1-9.65-4.28-11.8-9.3A35.26,35.26,0,0,1,727.43,754c-1.06,1.44-.48,3.69-2.48,4.33a11.94,11.94,0,0,0-3.59,6.83c-1.07,5.09-4.43,5-7.65,2.85-4.23-2.88-7.45-6.59-7.25-12.48.11-3.46,1.31-7.23-1-10.52-1.5-2.27-1-3.79,1.67-4.55a3.56,3.56,0,0,1,3.65,2.57c0,3.89-.4,7.84,1.34,11.84,2.33-5.45,3.6-11.22,7.4-15.87,1.77-2.15,3.28-4.55,5-6.79.85-1.13,1.9-2.89,3-2.78,6.7.65,7.49-5.6,10.85-8.8,2.9-.15,4.85-2.4,7.42-3.26a3.55,3.55,0,0,1-.23,5c-5.08,4.61-5.81,11.85-10.52,16.62a7.78,7.78,0,0,0-1.66,2.52c-.62,1.51-1.47,3.37.19,4.4s2.38-1,3.11-2a35.73,35.73,0,0,1,10-9.61c3.57-2.26,3.46-7.2,6.44-10,.35.68,1,1.38,1,2-.35,6.23,2.91,8.42,8.7,7.91-6.54,5.19-5.42,14.42-10.94,20.2,6.5-3.35,10.16-9.24,14.07-14.86,1.36-2,2-4.45,4.31-5.65,2.27,2.24,4.49,3.31,6.87.05a4.66,4.66,0,0,1,4-2.34c.92,2.45-.47,4.57-1.8,6-5.91,6.56-6.3,15.54-10.49,22.81-.77,1.32-1.43,3,.33,5.34,4-10,10.72-17.77,15.63-26.69,1.67-3,2.44-6.4,1.21-9.89,3.93-3,6.44-3.08,6.35,2.86,0,1.37,1,2.9.63,4.1-1.8,6.21,1.53,7,6.4,6.32a2.35,2.35,0,0,1-.26,2.81c-5.33,5.78-6.19,13.8-10.34,20.19a21.1,21.1,0,0,0-3.24,13.21,5.11,5.11,0,0,1-2.66,3.29c-2.26.38-2.34,2.37-3.08,4-2.34,5.06-6.57,5.65-10.54,1.67-3.36-3.37-3.79-7.87-4.82-12.1-.82-3.37-1.79-1.22-2.81-.23-.07,3-2.87,5.15-2.61,8.26-5.53,1.55-6.48-3.15-8.25-6.3a24,24,0,0,1-2-6.22,35.77,35.77,0,0,1-1-7.54C746.29,765.91,745.35,767.51,744.6,769.22Z" fill="#726760"/><path d="M605.3,626a94.89,94.89,0,0,1,17.45-2.45c1.58.26,3.16.54,4.75.77,4.65.7,6.34,2.09,2.27,6.25-4.54,4.64-2.79,10.27-.75,15.28,1.76,4.33,6.18,5.21,10.34,4.4,4.57-.89,5.44,1.17,5.2,4.87l-.39.76c-7.06,5.77-15.78,8.95-23,14.47-1.9,1.45-4.29,2.37-5.25,4.82s-3.45,3.5-5.14,5.3c-2.22,1.66-3.61,4.71-7.1,4.27l-6.24-10.64c-2.48-2.24-1.77-4.66-.36-7.09,2.32-4,.64-5-3.32-4.69-7.09.53-11.14-1.74-13.75-8.24-1.33-3.33.68-5.87,3.76-7.18,2.17-.93,4.15-1.89,4.59-4.35,1.87-10.37,8.82-13.63,18.55-13.07-5.71,0-11.13,1.3-16.55,2.64a15.14,15.14,0,0,1-5.69.2c-1.23-.44-2.68-.68-2.39-2.54C589.91,628.2,597.4,625.85,605.3,626Z" fill="#75675e"/><path d="M949.4,628.81C949,625,948,621.57,944,620.1c-2-.72-1.45-1.79-1.27-3.3a65.54,65.54,0,0,0,.08-7.69,1.63,1.63,0,0,0-1.41,2.21c.68,2.59-.89,3.89-2.79,4.68-2.44,1-2.85-1.58-4.07-2.72s-.83-4.29-3.91-3.55c-2.46.6-2.64,2.85-3.27,4.65-2.68,7.69.66,13.75,5.28,19.39,1.44-.2,1.68-1.29,2.22-2.11,1.08-1.67,2.27-1.69,3.12.09.59,1.23,2.41,3.16-.27,3.82-5.55,1.35-7.91,3.38-3.28,8.57.66.75,0,2.68-.08,3.93-7.4.65-9.83-5.76-12.66-9.88-1.16-1.69-2.53-8.16,1.06-11.84,1.13-1.15,2.48-2.34,1.76-4.17a4.17,4.17,0,0,0-1.9-2.23c-1.57-.63-1.3.89-1.49,1.74-.25,1.09-.81,2.1-2,1.66-2.13-.79-.41-1.74.06-2.66.89-1.75-.48-2.78-1.6-3.43-3.47-2-3-5.34-2.17-8,1.14-3.68,3.2-7,.55-10.83-.18-.27-.17-1,0-1.11,6.15-3.21,2.1-7.7,1.82-11.9-.25-3.6-1.18-6.16-5.7-7.23,5.18-4.26,10.79-6.15,13.65-11.36.88-1.59,2.13-.19,2.56,1,2,5.4,2,5.42,7.28,7.5.32-3.63.79-7-1.55-10.27-1.18-1.65-1.42-4.86.36-5.46,3.21-1.1,5-5,8.75-4.39,1.93.32,3,11.29,1.33,13.73-.89,1.29-2.25,2.29-2,4.13,4.73-1.43,6-3.17,5.41-7.26-.28-1.77-.67-3.53-1-5.29.29-.68,1.49,1.06,1.38-.47s-.43-3.11,1.08-4.24c1.91,1.82,1,4.17,1.09,6.29.11,2.5.71,4.38,3.6,4.62,2,3.27.12,6.5-.16,9.73a27.07,27.07,0,0,0-.17,6.85c.69-2,.14-4.59,3.06-4.7a3.42,3.42,0,0,1,1.83,2.14c0,7.36-.83,14.69.09,22.07.3,2.41,0,5.28-2.91,6.63-3.52-1.84-3.09-5.27-3.26-8.38-.21-3.52.39-7.13-1.44-10.23-.28-.95-1.14.11-.46-.34.14-.09.28.06.39.46,1.44,5.64,2.17,11.28-.3,16.85-2.87,1.57-3.39,6.39-.9,9.23.75.86,2.05,1.19,2.56,2.37C952.23,622.77,953.27,626.55,949.4,628.81Z" fill="#383128"/><path d="M685.9,731.41c-1,6-6.51,9.92-7.49,15.94-.64.71-.19,2.28-1.48,2.33-1.63.05-1.7-1.44-1.82-2.58-.81-7.45,2.56-19.25,7-25.75-8.41,5.21-18.32,7.24-26.56,12.78-1.68,1.13-3.27,2.48-5.32,2.73-4.16.52-5.29-1.07-3-4.72,6.79-5.77,15.89-8.72,20.76-16.84a11.78,11.78,0,0,1,4.15-3c9-.47,13.5-7.35,18.83-13,1.81-1.91,3.33-4.06,5.85-5.15a88.74,88.74,0,0,0,9.53-1.5c4.47-1.19,6.22-.31,4.41,4.45a15.24,15.24,0,0,0-.51,3c-5.65,7-9.62,15.07-15.18,22.37,7.46-3,11.8-10.31,18.81-13.83,5.2,3,9.61-2,14.57-1.44a3.91,3.91,0,0,1,0,5.94c-6.12,5.66-10,12.91-14.89,19.48-1.87,1.55-3.91,3-5.07,5.15-1.3,2.43-3.06,3.74-5.85,3.22-1.92-.37-2.89.93-4.19,1.89-3.86,2.85-6.64,1.85-8.15-2.76a20.43,20.43,0,0,1-.58-5.39c-.09-1.6,0-3.21-.21-4.91C687.87,729.5,687.17,731.1,685.9,731.41Z" fill="#80736a"/><path d="M644.56,655.07l3.32,3.81c-4.71,5.18-8.89,11-16.88,11.69a5,5,0,0,0-4.31,4.59c-.53,7.79-2.83,15.4-2.64,23.43,5.74-3.35,2.72-10.15,5.88-14.27,2.68.44,1.85,3.12,3.6,4.44,7.68-7.32,12.35-17.07,20.52-23.91-.42-2.07-4.34-.79-3.49-3.74,2.63.08,5.25.21,7.88.24,2.47,0,5.32-1,5.31,3.36,0,1.46,2.19,2.18,4,1.89a10.43,10.43,0,0,0,2.9-.86c2.69-1.31,6.08-2.07,8.06-.35s-.28,4.62-1.14,6.93c-9.55,8.6-20,16.13-30,24.17-2.19,1.77-4.61,3.34-4.86,6.53-4.52,6.13-8.08,13-14.15,18-3.28-1.2-1.94-3.35-1-5.32s2.6-3.56,4-6.11c-3.72,1.47-7.22,1.43-10.57,2.73-5.72,2.23-12.21-3.45-10.27-9.24,1.64-4.9-3.19-7.1-3.3-11a2.52,2.52,0,0,1,1.06-1.26c3.31-.61,5.76-2,5.39-5.92-.51-5.33,3.94-8.54,5.62-12.94,5.21-5.18,12.14-7.73,18.15-11.69,2.36-1.55,4.91-2.8,6.83-5Z" fill="#74675f"/><path d="M782.36,781.3l2.26-2.46c3.16-6.74,7.28-12.88,11.5-19,4.71-6.84,7.17-14.77,10.32-22.35,4.14-2.46,3.54,1.68,4.13,3.27,1.16,3.11,1.63,6,5.51,7.66,3.06,1.31,2.84,5.35,2.39,8.61-3.59,2.19-5.73,5.43-7.22,9.29a184.85,184.85,0,0,1-9.69,21.22c-2.41,4.47-4.49,9.81-3,15.43a2,2,0,0,1-.8,1.61C786.7,805.05,777.55,791.22,782.36,781.3Z" fill="#7e7169"/><path d="M642,702.45c-2.1-1.81-.17-2.94.89-3.81q16.79-13.56,33.7-26.93c.09-.08.61.39.93.61-.4,4.39-1.25,9,4.64,10.64,2.35,2.79,2.42,6.28,2.56,9.58.12,3-1,6.11-4.88,3.7-1.57-1-.43.17-.47.32-1.49,5.15-3.24,10.14-7.94,13.42-2,1.41-2.1,3.73-2.6,5.84-2.29,4.56-5.31,8.33-10.39,10.14-4,1.42-6,5.82-10.33,6.82-1-3.34-.63-6.69,2-8.82,8.54-6.81,8-16.1,7.23-25.33-.27-3.16-.36-5.92,1.7-8.47-2.38,3-5.94,4.37-8.7,6.76C647.4,698.51,645.31,701.4,642,702.45Z" fill="#8b7c74"/><path d="M650.56,661.11c1.52,2.43,4.21.66,7,2.1-9.79,8.67-15.81,20.13-25.09,29.06-2.8-1.6-.48-4.55-2.85-7.89.8,6.63.06,11.65-3.67,15.73-.71.77-1.4,1.59-2.49,1.32-1.37-.33-.87-1.6-.92-2.5-.45-8.68,2.49-17,2.65-25.68.06-3.06,4.24-4.53,6.29-4.59,5.45-.15,8.24-3.3,11.32-6.82,1.23-1.41,2.85-2.93,5.11-3Z" fill="#84776d"/><path d="M798,803c-4.64-6-.1-11.89,2.19-16.12,4.09-7.58,7-15.5,10.56-23.25,1.44-3.16,2.79-7.16,7.72-6.61,4.92,6.53,3.78,11.61-1,18.64-4.54,6.69-7,15.16-11,22.57C804.56,801.48,801.34,802.35,798,803Z" fill="#91847c"/><path d="M668.82,715.82c-1.33-1.43-3-2.49-.76-4.84,2.76-2.91,5.55-5.6,7.61-9.5,1.91-3.6,2.91-6.38,1.65-10.32a8.55,8.55,0,0,1,1.66.52c1.58,1.06-.11,5.06,3,4.2,2.69-.75,1.65-3.88,1.11-5.78a33.59,33.59,0,0,1-.92-7.14h0c5.44.66,1.85,5.34,3.22,7.34.36-2.58-1-5.57.49-8.49,2.69-2.29,5.84.21,8.8-.86,1.88-.69,2.47,1.1,1.36,2.59-2.24,3-1.29,6.1-.49,9.22a20.71,20.71,0,0,1-1.38,2.64c-2.29,4-8.19,3.6-9.87,9.17-1.46,4.88-7.84,5.81-11.85,8.77Z" fill="#9b8d84"/><path d="M753,724.17c-1.14,5.57-2.7,10.59-8.74,13.29-3.68,1.65-5.11,6.09-7.91,9-.83.85-.87,3.42-2.75,2.05-1.31-1-4.13-1.63-2.83-4.51.41-.91.33-2.22,1-2.8,5.3-4.8,5.36-12.86,11.13-17.39a8.25,8.25,0,0,0,2.84-6.45C752.2,715.8,752.2,715.8,753,724.17Z" fill="#8f847b"/><path d="M738.33,720.59c.33,4.31-4.29,6.59-4.48,10.77a1.32,1.32,0,0,1-2.36.44c-3.15-5.6-4.83-.19-5.77,1.16-4.65,6.58-10.61,12.6-10.79,21.48,0,1.24-.57,2.91-2.24,3.22a2.49,2.49,0,0,1-2.75-1.89c-.61-4-2.21-8.13.31-12.08,2.6-4.86,6.4-8.83,9.84-13.06,3-3.75,6.6-7.12,7.84-12.1a3.41,3.41,0,0,1,4.13-2.74C733.88,717.74,735.09,720.48,738.33,720.59Z" fill="#80736a"/><path d="M785.86,729.13c3.84.82,2.49,3.55,1.93,5.7-1.45,5.54-4.88,10-8.07,14.64-4.05,5.93-7.23,12.44-10.81,18.75-3.43-2.29-3.26-4.85-1.74-8.36,4.18-9.66,7.23-19.84,13.81-28.34Z" fill="#91867d"/><path d="M806.44,737.49c1.38.83,1.08,1.89.51,3.1-3.71,7.93-6.28,16.4-11.82,23.46A57.08,57.08,0,0,0,786.81,778c-.36.88-.91,2-2.19.86a10.5,10.5,0,0,1,.47-9.23c5-8.92,7.25-19.26,14.15-27.2Z" fill="#998c84"/><path d="M732.06,715.79c-4.41,4.86-5.66,11.85-11,16.1-4.22,3.37-5.87,9.09-10.83,11.8a4.1,4.1,0,0,0-2.33-2.46c-1.44-4.75,3.28-6.43,4.88-9.66,4.2-6.73,8-13.76,14.43-18.83,1.8-1.41,1.29-3.62,1.24-5.6,2-2.17,3.84-3.77,3.88,1C732.38,710.7,732.16,713.25,732.06,715.79Z" fill="#968980"/><path d="M770.15,733.81c-4.5,9.76-10,18.71-20.58,23.94-.22-3.84,2-6.37,3.41-9.07,1.51-2.87,3.91-4.86,3-9-.79-3.8,4-4.09,6.68-5.52C765.18,733.87,767.44,728.51,770.15,733.81Z" fill="#8b8179"/><path d="M713.9,708.58c-3.66,6.18-11,8.77-14.75,15-1.13,1.86-5,1.8-6.46.93-1.89-1.11.31-3.35,1.48-4.44,6.32-5.92,8-15.51,16.1-20C710.29,703.39,711.8,706.1,713.9,708.58Z" fill="#9d8f86"/><path d="M958.81,428.58c.83,11.56,4.44,22.79,3.94,34.49-.08,1.66.64,3.47-1.06,5.54a18.71,18.71,0,0,1-2.86-8.44c-.07-1.31.21-3.08-2.16-2.4-1-2-3.16-3.64-2.53-6.33,2.94-.63,1.44-2.59,1.33-4.2-.34-5.06-1.7-10.2,1-15.05,0-1.6.05-3.19.07-4.79-.62-1-1.05-2.48.57-2.42C959.32,425.06,958.25,427.35,958.81,428.58Z" fill="#2e2720"/><path d="M672.45,713.35c.34-.5.55-1.22,1-1.48,8.71-4.83,13.27-14.4,22.08-19.1l1.29,1.35c-4.12,6.5-9.94,11.48-15.3,16.87C679,713.56,675.37,712.14,672.45,713.35Z" fill="#8b7c74"/><path d="M605.21,609c-2-4.17-8.14-5.24-8.32-10.82l19.76,3.37C615.08,606.9,608.1,605,605.21,609Z" fill="#75675e"/><path d="M948.24,495.18c4.14,8.94.23,18.4,1.83,27.56C945.48,513.84,949.54,504.35,948.24,495.18Z" fill="#2e2720"/><path d="M949.33,555.75a27.55,27.55,0,0,1-.16,4.73c-.66,3.22-1.52.45-2.3,0a68.79,68.79,0,0,1,1-21.94c1.14.53.49,1.92,1.26,2.63C947.92,546,947.58,550.91,949.33,555.75Z" fill="#2e2720"/><path d="M949.11,541.15l-1.26-2.63c-.49-5.55-2.72-10.9-1.6-18.19C948.9,528,949.94,534.45,949.11,541.15Z" fill="#2e2720"/><path d="M944.72,626.87v12.82C942.62,635.44,942.88,631.17,944.72,626.87Z" fill="#2e2720"/><path d="M948.94,348.31a16,16,0,0,1,0,11.18C947.4,355.77,948,352,948.94,348.31Z" fill="#2e2720"/><path d="M949.15,468.25l1.16,13.49C947.14,477.59,947.39,473.05,949.15,468.25Z" fill="#2e2720"/><path d="M955.4,415.08c-5.47-4.56-1.72-10.29-2.16-15.49,2.19,5,.22,10.52,2.08,15.57Z" fill="#2e2720"/><path d="M685.88,681.82c0,2.38.49,4.9-.13,7.1-.46,1.6,3.72,3.41.15,3.9-2.3.31-1-2.8-1.15-4.31-.21-2.24-.16-4.4-2.58-5.54C683.17,681.83,684.56,682,685.88,681.82Z" fill="#8b7c74"/><path d="M611.45,619c-1,1.75-2.38,2.89-4.34,1.7-1.8-1.08-2.35-2.65-.45-4.3Z" fill="#75675e"/><path d="M945,666.11c-1.5-3.74-.95-7.56.13-11.38C946.87,658.47,945.59,662.23,945,666.11Z" fill="#2e2720"/><path d="M798,803c1.92-3.13,5.94-2.62,8.43-4.77-.38,1.2-.75,2.39-1.12,3.58l-.14-.08c-2.13,1.5-4.34,2.59-7,1.48Z" fill="#7e7169"/><path d="M882.29,859.13c-.71-5.34,2.88-8.38,6.38-11.28,2-1.64,3.56-3.19,3.28-5.92-.74-3.31,1.14-4.19,3.94-4.21,5.49-3.18,7.15-7.52,6.49-12.86-1.17-9.38-1.86-18.75,1.39-28.09,1.51-4.35,2.42-9.45-2.54-13.18a5.16,5.16,0,0,1-2-5.94c-3.35-3.78-3.19-8.39-2-12.59,2.17-7.37-1.37-14.38-.59-21.58.15-1.45-1.29-1.73-2.3-2.41-5.14-3.47-4.64-9.29.17-13.38,4.11-3.48,7.39-7.93,11-12,.52-.58,1-1.76,1.5-1.73,4.94.28,8.52-3.47,13.06-4.17,1.45-.22,3.56-.78,4.27,1.22.82,2.33-1.26,3.07-2.85,3.94a11,11,0,0,0-1.07.57c-2.54,1.8-7.64,1.87-7.31,5.37.37,3.81,5.53,4,8.66,5.23,6.09,2.41,10.29,0,14.77-5.17a58.83,58.83,0,0,0,6.87-10.08c2.21-3.88,6.6-3.73,10.45-1.16.65.48,1.48.91,1.71,1.66a105.73,105.73,0,0,1,4.52,27.67c.06,2.1-.55,5.38-2.76,5.52-2.92.18-1.45-3.54-2.57-4.89.43,5.1,3.3,10.23,1.73,15.86-1.7,3.54.47,7.94-2.49,11.19-.35,1-1.82-1-1.5.3,1.29,5.35,3.34,10.55,2.47,16.23-.56,1.59-1.79,2.94-1.77,4.75a19.32,19.32,0,0,1-2,7.66,17.14,17.14,0,0,0-2.31,3.74c-1.27,4.12-2.18,8.26-1.11,12.56.29.8.82-.5.16,0-.32.22-.51.13-.51-.28a43,43,0,0,1,.16-7.18c3.2-.74,2.65,1.86,3.05,3.48.46,1.84-.43,3.88.84,5.61a4.16,4.16,0,0,1,1.09,4,3.69,3.69,0,0,1-1.59,2c-4.19,1.42-4.37,5.45-5.7,8.73-1.29,3.8.31,7.93-1.39,11.67-3.45,2-5.61-1-7.91-2.39-4.2-2.53-7.55-2.51-10.43,1.68-2.54,3.68-5,2.94-8,.29-2.26-2-4.07-5.07-7.6-5-1.07,1.23-.42,2.14-.15,3.08,1.37,4.76.48,6.6-4.37,6.71-5.12.12-8.78,1-8.71,7.12a3.66,3.66,0,0,1-2.79,3.61c-3.39.91-6.21,2.65-9.49,3.76C883.59,859,883.15,859,882.29,859.13Z" fill="#191512"/><path d="M883.28,823.57A237.09,237.09,0,0,0,892,792.19c.41-1.61.83-3.21,1.24-4.82,1.42-2.68,3.68-2.83,6.19-1.93,2.34.83,3.16,2.67,3.66,5,1.45,7-2.57,13.64-1.37,20.6-1.14,2.43-.9,5-1.07,7.62-.37,5.57-3.56,7.9-8.86,6.45a7.89,7.89,0,0,0-6.29.62C883.31,826.88,882.4,825.88,883.28,823.57Z" fill="#756f68"/><path d="M900.48,811.59c-1.41-6.32,1.49-12.39,1-18.75-.52-6.62-1.57-7.73-8.29-5.47,1.1-3.81-.64-9.37,6.06-9.72,1.48,2.29,2.47,4.62,4.9,6.57,4.58,3.7,2.32,9.3.76,13.57s-2.94,7.85-.74,12c.5.94,1.07,1.79.18,2.69-4.15,4.23-.89,8.86,0,12.84.74,3.23,1.08,5.51-1.5,7.37-2.74,2-1.77,7.81-7.25,6.75a1.28,1.28,0,0,1-.39-1c0-.37.09-.56.16-.56,6.93-5.62,4.18-13.44,4.65-20.51C900.17,815.44,899.37,813.45,900.48,811.59Z" fill="#3b3632"/><path d="M798.15,803.22l7-1.48c.05.43.1.86.16,1.29-13.24,4.93-17.55,3.29-23.47-8.95-1.22-2.51-2.09-4.21-5.81-2.34-4,2-10.91-4-12-10-.44-2.38-.43-4.79-2.54-6.47.09-1.92-.76-4.88,1.7-5.12,2.81-.27,1.79,3,2.31,4.7,1.17,3.79,1.37,7.92,4,11.18,1.41,1.75,3,3.46,5.53,2.95s3.42-2.32,3.58-4.86c.13-2,.16-5,3.75-2.77-.26,8.77,1.33,16.63,9.82,21.52C794.25,804,796,805,798.15,803.22Z" fill="#4d453f"/><path d="M937,674.09a27.26,27.26,0,0,1,5.33.95c1.92.74,2.44,2.76.52,3.65-5.64,2.6-7.91,9.25-14.22,11.14-1.75.53-2.82,1.21-4-.34-1-1.34-3.64-1.52-3.19-4a3.41,3.41,0,0,1,3.5-2.84c4.08.4,5.64-1.35,6.64-5.08C932.13,675.59,934,673.34,937,674.09Z" fill="#2e2720"/><path d="M793.18,695.7c0-1.85-.1-4.06,0-6.26.28-4.82-1.31-7.82-6.77-7.62-1.73.06-4,.42-4-2.33s2.25-2,3.88-2.56c4.2-1.32,7.06-.68,7.79,4.18a.89.89,0,0,0,.26.53C800.9,686.8,802.2,691.72,793.18,695.7Z" fill="#2e2720"/><path d="M866.7,695.71c1,4.11,1.59,6.42,2,8.78.28,1.55.72,2.74,2.57,2.71s3.25-.88,3.4-2.75c.25-3,.62-5.71,4.08-6.6a1.39,1.39,0,0,1,1.86,1.08c.28,3.19-1.93,5.12-3.9,7.14-.42.43-.88.84-1.28,1.29-5.31,6-8.6,5.77-11.88-1.44C862.18,702.87,865.19,700.17,866.7,695.71Z" fill="#2e2720"/><path d="M959.66,687.35c-.15,2.07,0,4.21-1.26,6.06-.4.85-.78,1.72-1.23,2.55a6.62,6.62,0,0,1-.82,1l-.58-1.65c-1.25-3.79-2.16-7.63-1.26-11.66l.47.08c.87-1.48,1.35-3.6,3.89-2.34C960,683.29,960.68,685.2,959.66,687.35Z" fill="#2e2720"/><path d="M898.05,711.84c-.23,1.26.46,3.42-1.46,3.3-2.29-.15-2.8-2.58-3.19-4.47-.31-1.5.51-3,2.19-2.86C898,708,897.93,710.06,898.05,711.84Z" fill="#191512"/><path d="M840.58,728.7c1.68-.19,2.3.72,2.4,2,.07.81-.22,1.69-1.25,1.59s-2.48-.5-2.84-1.73S840,729.23,840.58,728.7Z" fill="#2e2720"/><path d="M931.29,671.7c-.56-.43-1.8-.88-2-1.62-.37-1.3.88-1.48,1.91-1.45s1.91.54,2,1.75C933.19,671.39,932.52,671.7,931.29,671.7Z" fill="#2e2720"/><path d="M989.59,597.14c-2.11,7.92,3.23,14.48,4.17,21.93.81,6.51-1,13.81,4,19.54,3.22,3.44,2.2,7.67,1.52,11.45-.89,5-.78,10-1.72,15-.62,3.23-.9,6.81,1.07,10a5.58,5.58,0,0,1,.66,4.09c-.22,1.18-.53,2.6-1.95,2.64s-.46-2.21-1.23-2.45c1.06,9.87.15,19.8-1.61,29.7-1.56,4.81,1.76,10.2-1.75,14.78-.24.33-.76.74-.86.63-2.33-2.63-2.73-.14-3.53,1.28,0,.19,0,.46-.15.57a4.32,4.32,0,0,1-.76.44c-.43-1.71-1.57-3.59-1.17-5.08,1.76-6.7.29-13.71,2.2-20.36.33-.6.67-.57,1,0,2.79-.38,2.94-2.49,2.81-4.54-.56-8.79,1.53-17.6-.52-26.41-1.1-4.75,0-9.57.73-14.38,1.09-7,1.51-14-.89-20.91s-.84-14.26-3.67-20.7c-2.06-4.68-2.15-9.16-1.91-13.89a16,16,0,0,1,1-3.43C987.88,596.87,988.82,595.72,989.59,597.14Z" fill="#2e2720"/><path d="M964.19,684.28l-.44-4.75a6.38,6.38,0,0,1-2.28-3.87,9.44,9.44,0,0,1,.26-4.51c.81-2.28,2.73-4,3.43-6.31,1.11-3.19,1.56-6.54,2.38-9.8.61-2.42,1.14-6.2,4.06-5.69,3.67.65,2.16,4.28,1.7,6.89-1.83,5.87-3.89,11.68-5.38,17.63-.63,2.53-3.52,5.86,1.65,7.89,1,.4-.53,5.62.8,7.25,5.58,6.84-1.18,14,1.13,20.73,1.72,2.72,1.5,5.67.62,8.49-.63,2,.76.76,1.23,1,1.3,1.16.92,2.53.49,3.89-.46,10.51-.73,21-2.67,31.4-2.87.15-3-2.18-3.78-4-.29-13.49-.45-27-2.64-40.39-.78-4.83,1-9.62,1.19-14.46,0-.88,1.4-2.22-.56-2.78C963.43,690.23,965.26,687.06,964.19,684.28Z" fill="#191512"/><path d="M985.82,826.15c2.7,4.94,1.1,10.45,1.84,15.66s1.26,10.67-.77,15.85c-.67,1.32-1,3.49-.09,3.89,6.88,3.12,4.87,9.37,5.58,14.67-.39,4.41,1.16,9-1.71,13.12a2.34,2.34,0,0,0-1.11,2.51c0,1.76.37,4.33-1.67,4.54-2.55.27-1.93-2.53-2.16-4.12-1-6.63-2.07-13.27-1.12-20,.58-4.12-1.93-7.62-2.4-11.56-.3-2.58-1-5.07-.23-7.66,1.24-4.33,2.35-8.7,3.75-13,.95-2.89-3.6-.37-2.93-3.44C983.58,833,983.2,829.2,985.82,826.15Z" fill="#11100e"/><path d="M971.11,865c.85,8.07-.47,15.51-6.69,22.11.81-10,.17-19.55,1.13-28.92.52-5.07,1.42-9.94.58-15-.34-2.06,1.27-1.43,2.41-1.15Q969.83,853.45,971.11,865Z" fill="#11100e"/><path d="M961.3,604.52q1.43,9,2.84,17.89c3.24,5.65,4.47,11.36.54,17.23-4.75-1.33-5.61-5.44-5.84-9.28a88.11,88.11,0,0,0-2.36-14.58c-.07-3,1.12-5.7,1.52-8.58C958.71,605.84,959.05,604,961.3,604.52Z" fill="#383128"/><path d="M989.5,701.24h-1c-.09-1.1-.19-2.2-.28-3.3l-1.32.79c-3.28-2-1.18-4.9-1.23-7.44-.25-10.14-2.45-20.21-.61-30.47,3.05,10.23,5,20.65,4.27,31.43A36.45,36.45,0,0,0,989.5,701.24Z" fill="#2e2720"/><path d="M964.77,645.46c3.72-7.57,4.7-16,7.44-23.84.12.66.25,1.32.38,2,.85,1.62,2.86,2.67,2.44,4.91l-.42,3.3c-3.82,4.8-3.69,11.16-6.5,16.38-.91,1.69-1.5,2.16-2.85.63A2.31,2.31,0,0,1,964.77,645.46Z" fill="#2e2720"/><path d="M984.64,754.67c.91,7.53,5.27,14.29,5,22.11-.11,2.88,0,5.7-3.63,6.62-.66-4.92-1.05-9.9-2.06-14.75S982.68,759.25,984.64,754.67Z" fill="#191512"/><path d="M978.1,661.14c6.4,9.74-1.88,17.21-3.67,25.61A56.4,56.4,0,0,1,978.1,661.14Z" fill="#2e2720"/><path d="M972.35,607.79c-1.59,4.5-.77,9.73-4.33,13.81l-1.58-3c-1.06-6.51,1.92-12.41,2.67-18.75C973.66,601.25,972.23,604.83,972.35,607.79Z" fill="#383128"/><path d="M984.08,614.61c.63,12.12,5.26,23.52,6.49,35.53C984.23,639.05,983.66,626.92,984.08,614.61Z" fill="#2e2720"/><path d="M983.6,559.19c4.92,11,.15,21.28-2,31.77C980.06,580.22,984.4,569.88,983.6,559.19Z" fill="#383128"/><path d="M968.75,594.89c-1.43-4.75-3.5-9.56,1.89-13.41.45-.32.26-1.51.37-2.3l2-10.31c.69,2.56,1.25,4.62,1.8,6.68C974.72,582.6,969.44,588,968.75,594.89Z" fill="#383128"/><path d="M976.69,560.26c-1.92-7.75-3-15.57-1.9-23.67.85,2.11.58,4.77,3,6C977.56,548.49,979.17,554.5,976.69,560.26Z" fill="#2e2720"/><path d="M978,906.44c-5.46-5.67-5.66-11.52-1.63-18.93C977,894.75,977.54,900.59,978,906.44Z" fill="#11100e"/><path d="M971,798c.39-6.08,1.83-12.09,1.14-18.24-.11-1,0-2,1.41-2q.74,2.34,1.49,4.69a34.29,34.29,0,0,1-1.14,12.37c-.54,1.74-1.16,2.87-3,3.1Z" fill="#191512"/><path d="M980.73,637.14c1.39,6.59,5.92,12.79,1.67,20.14q-1.35-10.14-2.71-20.29C980.1,636.6,980.45,636.65,980.73,637.14Z" fill="#2e2720"/><path d="M978.36,708.85a22.28,22.28,0,0,1,2.64-9.3c2.47,6.09-.3,11.3-.07,16.5C975.59,715.24,977.53,711.85,978.36,708.85Z" fill="#191512"/><path d="M959.59,928.46c2-.76,3.77-.85,3.52,1.93a76.86,76.86,0,0,1-1.63,10.46c-.22.95-1.27-.22-1.94-.43Q959.57,934.45,959.59,928.46Z" fill="#11100e"/><path d="M992.23,795.9c1.82-3.23-2.3-4.61-2.3-7.27a1.19,1.19,0,0,0,.24-.93c1.47-1,1.17-3.4,3.08-4.11,2.06,2.58,1.55,5.64,1.74,8.55C994.59,793.77,994.19,795.4,992.23,795.9Z" fill="#191512"/><path d="M978.52,862.38c-.75,6.24-.86,12.52-1,18.84-1.26-5.6-2.68-11.13-.63-16.75C976.75,863.24,976.64,862,978.52,862.38Z" fill="#11100e"/><path d="M977.31,761.91c2,3,1.28,5.74,1.86,8.22.42,1.78-.9,1.8-2.15,1.94-1.44.16-2.38-.17-2.18-1.82C975.17,767.6,975,764.78,977.31,761.91Z" fill="#191512"/><path d="M991.08,801.6c1.37,4.48-.43,9,0,13.43-1.45.32-.85,2.88-3.19,2.54C986.7,811.85,989.93,806.91,991.08,801.6Z" fill="#241f1c"/><path d="M976.24,623.42c-.48-4.17-4-7.86-1.68-13.14,2.19,4.52,4.44,8.39,3.86,13.19C977.67,624.4,976.94,624.41,976.24,623.42Z" fill="#383128"/><path d="M974.21,598.58c-.93-6.16.63-10.71,2.4-15.24C977.19,588.14,978.74,593.06,974.21,598.58Z" fill="#383128"/><path d="M974.55,846.83c-1.52-6.15.5-12.1,1.06-18.19C976.49,834.76,977,840.84,974.55,846.83Z" fill="#11100e"/><path d="M976.09,651.59c-1.37-3.6-5.06-7.18-.08-10.82C978.57,644.35,978.18,648,976.09,651.59Z" fill="#2e2720"/><path d="M981.8,792.09c-3.28-4.3-2.26-7.63-.09-11.56C982.91,784.44,982.61,787.78,981.8,792.09Z" fill="#191512"/><path d="M980.83,607.94c-.4-2.36-1.74-4.61-.85-7.12,2.27,2.7,2.2,6.16,3.54,9.4C981.51,610.18,981.67,608.57,980.83,607.94Z" fill="#383128"/><path d="M980.89,685.83A6.79,6.79,0,0,1,979,692.2C977.9,689,977.9,689,980.89,685.83Z" fill="#2e2720"/><path d="M944.17,827.8c1.88-3.19.12-9.09,6.65-8.82,1.5,4.35-.38,8.72.07,13.12.3,2.89,1.84,5.26,2.58,7.69,3.94,12.93,5.9,26.26,2.15,39.72a3.57,3.57,0,0,1-1.15,1.4,3,3,0,0,1-2.87.1c-2.13-3.14-.6-7-1.94-10.26-.17-.79-1.15.4-.48-.06.22-.15.38,0,.47.39.69,3.16,1.19,6.31.31,9.52-1.73,6.28.4,12.92-1.82,19.15-1.07,2.35-.9,4.88-1,7.36a15.21,15.21,0,0,1-.43,2.77c-1,3.83-.64,8-2.87,11.54a49.36,49.36,0,0,0,.67,15.29c0,.3-.09.6-.14.9,1,7,4.42,13.49,4.79,20.66-2-1.08-4.85-4.89-4.7,1.37,1,3.87-4.26,6.37-2.33,10.45-.88,3.63-3.14,3.33-5.42,1.6a13.82,13.82,0,0,1-5-6c-1.23-3.3-1.5-6.94-7.16-5.67-2.71.61-3-3.55-3.74-6.06-.9-3.21-.46-7-6.59-5.89-4.24.77-6.69-4.6-6.12-8.21,1.21-7.76-1.78-14.78-2.35-22.17-.07-.89-.1-1.53-.89-2-1.37-.75-1.54.28-2.07,1.2-2.54,4.43-4.42,1.63-5.08-1-1.43-5.62-2.95-11.39-3-17.1,0-3.3-.27-5.5-2.59-7.86-4.24-4.31-2.33-10-2.54-15.06-.15-3.51.15-7-3.92-8.65.27-2.54.63-5.24-1.11-8.4,2.91-1.73,5.08-4.69,8.85-5,2.26-.18,2.3-2,2.18-3.64-.46-6,2.59-8,8.15-7.19a9.88,9.88,0,0,0,2.43,0c3.56-.4,5.09-1.73,2.14-4.92-1.53-1.66-2.54-3.45-.35-5.15,1.85-1.43,3.82-.94,5.5.61l8.33,7.71c9.31-10.18,6-9.83,20.1-1.82a10.8,10.8,0,0,1,1.39,1.14c5.72,1.21,3.59,6.76,5.62,9.48C948.9,842.72,941.83,836.22,944.17,827.8Z" fill="#11100e"/><path d="M900.48,811.59c2.31,5.26-2.12,11.36,2.55,16.85,1,1.16-2.9,7.74-7.34,9.67-3.72-1.52-3.53,2.28-5.09,3.71-.37.42-.74.85-1.1,1.28-8.35-2.37-11.42-12-6.22-19.53.19.7.82,2,1.05,1.63,2.63-4.47,5.53-2.37,8.92-1,4.77,1.92,5.08-2.34,5.92-5.24C899.86,816.57,898.2,813.73,900.48,811.59Z" fill="#615c58"/><path d="M926,968.41c2,.24,2.42,1.69,2.54,3.38.15,2-.45,3.7-2.69,3.86-1.89.14-2.06-1.52-2.12-2.92C923.62,970.91,923.65,969.09,926,968.41Z" fill="#11100e"/><path d="M890.6,841.82c.87-2.36-.41-7.63,5.09-3.71,0,.44-.05.89-.07,1.33-2.76-1.42-2.79,1.16-3.67,2.49Z" fill="#322a28"/><path d="M582.28,629.73A2.57,2.57,0,0,0,584.7,631c-2.37,4.37-6.12,3.21-9.78,2.4l-3.64,0C574.13,629.73,578.35,630.17,582.28,629.73Z" fill="#635850"/><path d="M649.3,696.33l12.14-9.24c-6,6.28-1.87,13.5-2.14,19.86-.3,7.33-2,13.33-8.13,17.64-3,2.09-1,5.85-3.07,8.19-1.56,1.82-2.23,3.42,1.25,2.93a8.67,8.67,0,0,0,5.26-2.7,18.61,18.61,0,0,1,10-5.23c3.72-.82,7.59-1.8,10-5.07,2.73-3.64,7.61-.48,10.61-3.64-2.25,4.87-6.08,8.58-6.86,14.23-.67,4.75-.45,9.65-1.94,14.42-.62,2,1.19-.54,2-.37.52,2.56-.63,4.83-1.27,7.18-3.16.62-6.64-1.19-9.53,1.31h0c-4.14-.73-5.48-3.07-3.86-7.39a35.88,35.88,0,0,1,6.8-10.61c.67-.13-.87-.76-.3-.18.26.26.13.4-.37.42-.82,0,.12.55-.53.21-6.4-3.36-11.49-.94-16.68,3-3.78,2.9-5.5-1.29-7.74-3.25-6.19-4.51-5.39-12.69-9.67-18.24-.78-1-.24-3,.65-4,4.86-5.5,5.52-13.94,12.62-17.88C649,697.69,649.08,696.89,649.3,696.33Z" fill="#74675f"/><path d="M712.8,731.57c-.55,3.76-4.52,5.81-4.89,9.66-2.51.13-2.56,1.9-2.49,3.74-.54,1.08-1.1,2.15-1.6,3.25-1.34,2.95-1.74,7.74-5.86,7.1a11.84,11.84,0,0,1-9.5-9.12c-1-4-2.46-8.14-.69-12.4.65-1.57-.62-2.07-1.87-2.39a4.65,4.65,0,0,1,.56-1.06c1.23-1.38,1.07-4.73,3.53-4,2,.59,1.72,3.12,1.06,5.23-.57,1.83.58,3.71.28,5.8s.19,5.06,2.92,6c2.56.88,3.37-1.44,4.44-3.09.32-.5,1-1.33,1.2-1.25C707.62,742.36,707.88,733,712.8,731.57Z" fill="#74675f"/><path d="M725,758.29c.31-1.9.52-3.83,1-5.7.24-1,.31-2.71,2.07-2.22,1.32.37,1.32,1.56,1.3,2.91-.08,6.21,1.28,12,5.25,17.08,2,2.61,5.33,2.6,7.4,4.75-5.27,1.94-10.45-1.52-13.32-8.35C727.43,763.93,728.54,760.07,725,758.29Z" fill="#464039"/><path d="M744.6,769.22c-.1-3.2.74-6.12,2.85-10.29,3.33,9.34.2,20.57,11.43,24.55-3.58,2.88-8.21.45-9.43-5.37a60.13,60.13,0,0,0-2.14-8C746.77,768.63,745.86,768.52,744.6,769.22Z" fill="#463f3a"/><path d="M649.3,696.33a7.76,7.76,0,0,1,.51,1.66c-6.42,3.3-6.39,11-10.93,15.67-2.64,2.71-4.08,6.11-.12,9.3.75.6,1.75,1.66,1.67,2.4-.55,5.11,2.69,8.52,5.23,12.25,1.64,2.69,4.93,4.68,3.61,8.59-2.45-1.12-3.29-3.63-4.65-5.94-3,3.31-2.57,7.06-2.68,10.68-3.49,4.06-7.36,1.27-10.31-.21a33.81,33.81,0,0,1-16.37-17c-.32-.73-.53-2-1-2.11-7.8-1.54-7.56-10.11-12.55-14.08-1.27-1-2.79-2.39-2.3-4,2.28-7.61-2.68-16.08,2.9-23.3.64-.84.45-2.32.65-3.5-.67-1.34.29-1.88,1.22-2.44l6.09-4.85c2.59.42,1.64,2.37,1.2,3.53-1.12,2.9-1.66,6.06-3.62,8.61h0c-3.84,6.35-2.82,13.9,1.86,19.79,3.11,3.92,6.51,6.83,11.4,8.2,3.75,1.05,6.12,3.26,3.8,7.73,1.62-2.17.56-5.52,3.63-6.7A165.89,165.89,0,0,1,642,702.45C643.64,699.48,646.36,697.77,649.3,696.33Z" fill="#5d524a"/><path d="M604.2,684.27,603,686.71c-4.81,3.17-6.43,9.16-11.45,12.82-1.27-4.35-5.12-5.31-8.43-6.9-4.36-2.1-6.76-4.94-5-10a6.84,6.84,0,0,0,.27-4.13c-1.67-5,1.11-7.07,5.09-8.55,1.68-.63,4-.92,3-3.44s-3-3.22-5.39-1.56c-2.39-6-8.33-8.18-12.83-11.93-3.23-2.7-1.3-5.31.37-7.88,4.9-7.54,11-13.22,20.74-13.2.57,0,1-.55,1.46-1,5.84-2.79,12.05-2.44,18.38-1.67-2.07.56-4.15,1.61-6.21,1.59-8,0-11.51,4.74-13,11.64-.67,3.26-1.45,5.71-5.58,5.6-2.49-.07-3,2.48-3.62,4.31s1.47,2,2.57,2.65c.65.41,2,.82,1.93,1.12-1,8.91,5,4.37,8.64,4.52,2,.09,4.54-1.72,6,1.05,1.28,2.35,0,4.14-1.52,5.94-2.41,2.75-2.34,4.89,1.66,6.24a55.66,55.66,0,0,1,6.94,3.38C606.67,680.06,603.56,681.39,604.2,684.27Z" fill="#635850"/><path d="M590.79,630.89c-1.63,4.22-5.79,2.75-8.75,3.54-7.87,2.12-9.31,10-14.17,14.73-.37.36,0,1.5.09,2.28,5.44-2.36,4.44,5,8.6,5.52,3.8.46,6,3.6,4.49,7.94l-12,8.45c.37-5.23-1.89-7.31-5.83-9.2-6.85-3.3-7.48-13.18-1.84-18.21a8.54,8.54,0,0,0,2-3c1.29-2.91,2.7-5.17,6.6-4.91,2.86.18,3.52-2.9,5-4.7,3.09-1.51,6.83-.34,9.78-2.4Z" fill="#584e45"/><path d="M967.52,381.22c-2.26-4.55.23-9,.4-13.43a.45.45,0,0,1,.36-.26,1.8,1.8,0,0,1,.52.29C969.91,372.43,971.62,377.1,967.52,381.22Z" fill="#2e2720"/><path d="M972.22,481.54a10.2,10.2,0,0,1,0,11.26Z" fill="#2e2720"/><path d="M966.18,581c-3.28,5.26-3.47,11.23-3.87,17.16-2.6.7-1.83-2.14-3.09-2.8-2.43-2.22-1.36-4.89-.73-7.32,1.73-6.76,1.5-13.54.66-20.36-3.17-13.23-2.56-26.51-1.78-40,1-18,.35-36,.42-54a10.87,10.87,0,0,1,.75-4.19c2.24,5.93,2.39,12.23,3.14,18.42a17.64,17.64,0,0,0-1.67,8.24,199.09,199.09,0,0,1-.82,32.57c-.41,3.56.07,7.15-1,10.77-.89,3.14-.89,6.6,2.17,9.06-1,5.19-1.18,9.61,1.84,15A31.69,31.69,0,0,1,966.18,581Z" fill="#2e2720"/><path d="M649.27,746.2l-3.61-8.59c3.93,5,7.35,2.55,11-.53,3.15-2.67,6.29-5.12,10.23-.42,2.28,2.71,3.93-1.33,7.06-2.21-3.06,4.84-5.73,8.89-8.21,13.06-1.94,3.26-2.47,6.39,1.9,8.32C660.36,758,653.06,754.16,649.27,746.2Z" fill="#635950"/><path d="M951.14,938.67c.56-5.17.19-10.38.17-15.58,0-2.74.42-3.56,1.32-.91q1,10.27,2,20.57c1.23,6.5-.87,12-1.07,19.13-1.12-2.69-1.75-4.21-1.27-7.16a71.53,71.53,0,0,0,.77-9.27c.06-1.86,1.15-5.9-1.41-4.43A23.88,23.88,0,0,1,951.14,938.67Z" fill="#11100e"/><path d="M945.37,909.8c.67,9.27-.24,18.67,2.34,27.8.33,1.16,1,2.8-.86,3.62-.68-1.31-.79-3-2.51-3.61l0,.14c-2.66-5.29-1.24-11.13-2.24-16.65C945.1,917.87,943.4,913.32,945.37,909.8Z" fill="#11100e"/><path d="M607.87,691.56c-1.65-4.53,3.71-7.68,2.42-12.14l4.92-4.79c1.06-1.91,2.49-3.09,4.85-2.47,1.42,1.13,1.59,2.73.05,3.41-4.36,1.91-5,6-4.73,9.48C615.92,691.35,612.74,692.1,607.87,691.56Z" fill="#635850"/><path d="M620.06,672.16l-4.85,2.47c-1.19-1.09-.2-1.85.54-2.36,9.15-6.29,18.44-12.37,28.6-17-.19,3.88-3.82,4.41-6.19,6C632.26,665.06,626.11,668.54,620.06,672.16Z" fill="#84776d"/><path d="M944.25,601.82c-1.45.88-.84,4.16-4.13,3.1-1.59-.52-2.37-1.73-1.47-2.22,6.83-3.64-1.25-4.36-1.17-6.78,2.43-2.21,7.1-2.92,7.58-6.44.51-3.7-7-2.25-6.18-7.7,2.49.29,5.15-.58,7.75.66,1.59,1.4,1.52,2.92.35,4.52-.43,2,2,3.44,1.69,4.72-.52,2.06,4.42,7-2.83,6.15-1.19-.14-1.44,1.63-1.45,2.85.36.3.46.57.29.81S944.39,601.82,944.25,601.82Z" fill="#2e2720"/><path d="M949.48,608.33c.47,1.91.09,4,1.5,5.74,1.93-.07,1.3-2.09,2.73-3.29.46,2,1.23,3.62.54,5.56-.17.72-.81.93-1.34,1.27l-.87,1.33c-1.76-.45-4.6.71-4.92-2-.38-3.4-1.46-7.19.86-10.2C948.83,605.63,949.05,607.66,949.48,608.33Z" fill="#2e2720"/><path d="M947,587c-.12-1.5-.23-3-.35-4.52.82-2.74-.86-6,2.63-9.24,0,4.86,0,8.85,0,12.85C949.22,587.93,948.24,587.89,947,587Z" fill="#383128"/><path d="M928.54,597.32c-.24,1.48.52,3.32-1.45,4.18a2.31,2.31,0,0,1-2.76-.43,1.55,1.55,0,0,1,.39-2.52c.78-.49,2.18-.48,2-1.78-.16-1.09-2.28-2.7.48-2.81C929.1,593.89,928.26,596.09,928.54,597.32Z" fill="#2e2720"/><path d="M925.93,631.59c1.57,1.66,3.91,2.67,4.13,5.23,0,.19-1,.75-1.41.64C925.8,636.63,925.67,634.22,925.93,631.59Z" fill="#2e2720"/><path d="M944.25,601.82a1.31,1.31,0,0,0,.14-1.14c3.16,4,1,8.2.93,12.33C943,609.41,944.56,605.55,944.25,601.82Z" fill="#383128"/><path d="M957.71,569.1c-.31,3.61,1.58,7.27-.21,10.85l-1.19-1.56q.32-4.59.65-9.18c0-.12.17-.35.23-.34A2.17,2.17,0,0,1,957.71,569.1Z" fill="#271f19"/><path d="M628.56,720.58c-1.57,3.41-2.15,7.31-5.24,10.39-.29-.71-.76-1.27-.63-1.59,2.88-7,2.88-6.94-4.23-9.47-8.9-3.18-13.45-9.54-14.34-18.88-.38-4-2.12-8.1,3.75-9.47,3,4.32,7.36,8.25,3,14.29-.76,1.06,6.93,7,8,6,4.16-3.74,10.39-1,14.42-5.78C634.47,709.68,632,711,631,713,629.92,715.34,625.62,716.89,628.56,720.58Z" fill="#635850"/><path d="M961.27,422.22c-.4.89-.8,1.78-1.82,4.09-.93-4.66-4-7.78.62-11.16,1.48-1.07,1.75-3.09,1.15-5V401c4.2,1.61,2.45,4.6,2.83,6.89A58.75,58.75,0,0,0,961.27,422.22Z" fill="#2e2720"/><path d="M958.88,639.27c3.33,3.41,2.76,8.45,5.15,12.25.17,2.78,1.87,5.42.76,8.31a58.69,58.69,0,0,1-2.24,8.11c-1.41,2.62-1.89,5.55-2.92,8.31-1,1.18-1.63,3.07-3.71,1.49-1.94-6.69-.07-12.7,3.32-18.45,2.76-6.09-2.48-10.71-3-16.19C956.44,641.37,958,640.56,958.88,639.27Z" fill="#2e2720"/><path d="M952.91,617.61l1.34-1.27a33.16,33.16,0,0,1,2.17,20.6c-1.22.83.78,3.5-2,3.46-2.44-3.25-1.46-6.79-1.1-10.37C953.73,625.9,955.6,621.66,952.91,617.61Z" fill="#3a332b"/><path d="M912,815.86c4,1.15,7.27,4.18,11.71,2.28,1.26-.54,2.53,1.19,3.16,2.42a5.6,5.6,0,0,0,5.32,3.25c2.6.13,5.08,1.4,4.23,4.49s-2.74,2.7-6,2.24c-7.83-1.08-11.69-7.66-17.9-10.76C911.28,819.18,911.31,817.78,912,815.86Z" fill="#11100e"/><path d="M944.17,827.8a17.71,17.71,0,0,0,2.55,10.27,28.33,28.33,0,0,1,3.71,16.62c-4.81-3.84-2.86-10.56-7.17-14C943.52,836.36,941.58,831.92,944.17,827.8Z" fill="#11100e"/><path d="M948.19,762c1.49-5.69,0-11.89,3.29-18.24.62,6.88,0,12.64-2.31,18.21C948.86,762.42,948.53,762.43,948.19,762Z" fill="#191512"/><path d="M950.51,795.82c0,.7.09,1.4.14,2.1a54.85,54.85,0,0,1-.15,16c-3.12-2.67.4-6.85-2.21-9.65-1.56-1.79-.86-3.75-.42-5.69C948.05,797,948.7,795.88,950.51,795.82Z" fill="#11100e"/><path d="M950.5,814l.15-16q1.15,10.38,2.32,20.75c0-.88-.5-1.08-1.26-1C951.51,816.39,951.88,814.89,950.5,814Z" fill="#191512"/><path d="M947.87,798.61l.42,5.69c-.57,2.92.69,6-1.09,8.83C946.5,808.27,945.59,803.4,947.87,798.61Z" fill="#191512"/><path d="M948.19,762a5.33,5.33,0,0,1,1,0c.3,3.76,1.26,7.54-.41,12.76A31.24,31.24,0,0,1,948.19,762Z" fill="#191512"/><path d="M961.62,696.82c2,.82,1.41,2.59,1.45,4.12.34,11.59.82,23.17,3.08,34.61a17,17,0,0,1-1.76,11.25c-.61-1.74-1.1-3.18-1.6-4.61-.14-4.81,1.53-10.94-.83-14.14-4.12-5.59-2.29-11-2.75-16.55C958.78,706.47,962.29,702,961.62,696.82Z" fill="#191512"/><path d="M959.25,749c4.38-1.88,3.76,1.34,3.37,3.56-.49,2.71-1.57,5.32-.92,8.42-2.34-.89-2.52-3.06-3.71-4.39Z" fill="#191512"/><path d="M989.39,744.89c.78-1.65,4.27-1,3.47-4-1.38-1.79-1.2-3.75-.63-5.75,1.43-1.79,1.9-6,5.59-2.22.31,2.3,1.43,4.92-2.18,5.76-1.88.23-1,1.73-.92,2.5,1.47,10.33-1,21.13,3.71,31.09.36.75-.23,1.93-.38,2.91-2,1.16-2.12-.1-2.61-1.65C992.47,764.19,992.75,754.16,989.39,744.89Z" fill="#191512"/><path d="M963.64,804c-.77-2.21.83-5-1.78-6.77,4.19-8.55.73-17.68,2-26.47.57-3.94.7-7.95,1-11.92.11-1.26.24-2.53,2-1.35,3.9,8.56,2.28,17.45,1.93,26.35C968.54,791.08,964,797,963.64,804Z" fill="#191512"/><path d="M968.65,800.28c-.1,5.94,2.72,12.2-2.19,18.39-.18-6.72-.14-12.63,2.31-18.27Z" fill="#191512"/><path d="M946.63,900.11c.12,2.14-.59,4.47,2,6.72,2.46-7.91,2.36-15.88,4.05-23.67-2.21-.73-1.79,1.67-3,2.19-.12-1.91-.93-3.93,1.79-4.72l2.64.07c-.15,5.66-1.19,11.34.23,17a8.16,8.16,0,0,0-1.6,4.58c-1.26,4.77-2.52,9.54-3.84,14.5-2.39-2.79-1.13-6.46-3.18-9C945.83,905.18,944.65,902.46,946.63,900.11Z" fill="#11100e"/><path d="M942.94,905c-2.91-3.38-.65-6.62,0-10Z" fill="#11100e"/><path d="M955.12,791.28c-.18-1.74-2.25-3.56.24-5.17h0a21.52,21.52,0,0,1,2.27,2.5c-.49,14.63,2.57,29.31-.87,43.92-.65,2.78-1.22,2.15-2.63.86-.47-1.6-.94-3.21-1.42-4.81C957.2,816.37,954.54,803.72,955.12,791.28Z" fill="#191512"/><path d="M957.63,772.62v-11.3c.87,7.43,5.39,14.72,1.22,22.27C955.58,780.25,957.63,776.32,957.63,772.62Z" fill="#191512"/><path d="M967.58,830.53c-.09,1-.18,1.92-.4,4.38-3-4.89-3.14-8.6-1.21-12.53C966.5,825.1,967,827.81,967.58,830.53Z" fill="#262320"/><path d="M979.72,723.93c3.75.91,1.75,4,2.29,6.08,4.19,7.14,3.73,13.83-1.4,20.55l-1,.12c-2.75-1.6-2.06,2-3.51,2.33.27-2.66-1-5.09,2.85-7.38,2.67-1.58.81-7.14-.13-10.79C977.88,731,977.34,727.41,979.72,723.93Z" fill="#191512"/></g><g id="frame"><rect width="1000" height="1000" fill="none"/></g></svg>