<!-- Copyright (c) 2023 Jan Stehno -->
<svg xmlns="http://www.w3.org/2000/svg" viewBox="0 0 1000 1000">
    <title>tundrabeangoose</title>
    <g id="tundrabeangoose">
        <path
            d="M448.12,682.08c-4.22,1.94-8.33-.73-12.52-.29-1.75-.71-3.74-1.13-3.15-3.9a13.07,13.07,0,0,0,.2-5.07c-1.86-10.26-.94-9.25,6.64-16.23,6.86-6.33,13.24-7.4,21.53-5.34,12.12,3,23.33-1.64,34.55-5.37a145,145,0,0,1,14.38-4.48c2.65-.58,5.24-.63,7.66.8,2.2,1.3,3.82,3.18,3.56,5.88-.28,2.89-2.76,2.65-4.87,3.16-10.19,2.44-20.43,4.84-28.44,12.46,8.12-7.51,18.33-10.23,28.63-12.31,5.25-1.06,15.28,7.92,16.13,13.39a5.32,5.32,0,0,1-1.62,4.61c-1.58,1.75-3.55,3.24-4.39,7.7,8.17-6.36,17.11-7.48,24.8-11.86,7.49-4.28,13.39-2,16.77,6.09a4,4,0,0,1-1.25,5.15c-4.66,2.74-10.07,2.67-15.05,4.2-14,4.29-19.75,7.81-34,20.63C527.78,689,544,681.75,562.26,678.43a12.7,12.7,0,0,0,5.3-2.14c5.12-3.29,10-3.95,15,.63a13.77,13.77,0,0,0,8.56,3.28c3.42,1.09,7.55,1.06,8.73,5.71-1,3.27-3.95,4-6.53,5.11-8.95,4-18,7.81-27.14,11.26-9.68,3.65-16.83,10.6-23.22,16.06-1.52,2.17.17,2.54-.65,2-.29-.19-.37-.41-.18-.62,7.39-8,15.71-14.82,26.16-18.12,11.39-3.58,22-9.24,33.63-12.22,2.78-.23,5.2.27,5.54,3.69a6.74,6.74,0,0,0,3.81,5.47c8.76,5.64,18.1,9.16,28.67,7.95,2-.23,4-.28,5.14,1.58,1.45,2.35-.23,4.09-1.66,5.75-1.72,2-4.21,3-6,5,4.24-.2,4.24-.2,6.9,11.66-6.46,4.89-8.5,4.66-11.79-1.86-1.52-3-3.84-4.33-6.28-2.49-4.24,3.2-10,3.39-13.62,7.66a4.54,4.54,0,0,1-5.18,1.59c-5.26-2-9.13.73-13.19,3.45a86.74,86.74,0,0,1-15.7,8.67c-8.53,3.45-8.55,3.39-3.34,11.7,3.32-2.54,4-7.25,7.5-9.48,2.11-1.35,4.38-4.25,6.79-1.46,2.24,2.61.21,5.07-2.16,6.59-3.42,2.21-4.67,6.08-7.1,9-6.58,9.53-6.21,9.87,2.92,17.09,6.62,5.23,14,7,21.94,7.4a48.41,48.41,0,0,1,19,5c-11.59,3.77-23.23,2.73-35,.93-8.06-1.23-16.29,1-24.52-1.94s-9.42-3.91-6.87-12.07a38.48,38.48,0,0,0,1.37-4.91c.4-2.31.17-3-2.94-2.86-14.19.66-28.33-.17-41.4-6.7-2.5-1.25-6-3.57-5.54-6.8.91-7-2.89-7.92-8.16-8.57s-9.82-3.81-14.39-6.38c-5.38-3-6.36-9-3.15-15.74,1.16-2.41,3.5-4.75-.44-6.75-5.21-5.63-12.28-8.66-18-13.77C456.75,700.56,452.82,691.24,448.12,682.08Z"
            fill="#302921" />
        <path
            d="M866.41,826.75c-2.88,3.48-4.47,7.93-8.15,10.85s-6.68,3.24-10.1-.22c-5.07-5.12-11.44-8.84-15.63-14.87-1.87-2.7-3.67-2.26-6.07-.92-5.41,3-11.21,5.32-16.09,9.35a48.63,48.63,0,0,1-6.06,3.86c-13.67,8.25-17.17,6.66-18.78-8.88l-7.95,3a44.86,44.86,0,0,0-16.1-3.1,19.36,19.36,0,0,1-9-2.17c-1.94-1-4.15-2.41-6.1-1.82-12,3.63-21.61-4-32.15-7-5.49-1.55-10.6-2.34-16.1-.39-6.13,2.16-11.57.84-16.56-3.68-6.42-5.81-13.29-10.71-21.93-13.15-9.24-2.62-10-5.77-4-13.23,7.53-9.37,14.22-19.58,24-26.89,4.87-4,8.61-9.39,14.23-12.54,2.45-1.34,4.8-1.39,5.83,1.65,2.25,6.63,7.53,6.64,12.87,6.33A43.69,43.69,0,0,0,723,751c1.52-.48,3.36-1.28,4.52.61s.22,3.68-1.64,5.43c3.27-2.27,6.09-.86,8.84.07a25.46,25.46,0,0,0,14,1c4.58-1,8.47-.53,13.33,1.68,6.06,2.76,13.82,2.69,21,1.61,4.36-.66,8.22-.31,8.79,5.46,0,.34-.61.5-.25.94,5.26-5,11.51.21,17.08-1.72,2.79,1.59,6.93-2.55,9,2.17-6.25,10.53-11,21.65-13.32,33.77,2.08-12.11,7.35-23,13.17-33.57a5.77,5.77,0,0,1,4.74-2.16c7.26,5,15.1,5,23.31,3.15,7.32-1.63,10.09,1,8.48,8.48-1.9,8.82-.41,16.83,3.49,24.69,1.4,2.81,2.89,5.72,3.09,8.9.23,3.63,1.36,6.23,4.5,8.39C867.12,821.25,870.25,823.67,866.41,826.75Z"
            fill="#211d18" />
        <path
            d="M553.34,562c15.64,3.12,30,10.19,45.11,15.06,13.12,4.23,26.67,6.9,39.56,12.06a198.19,198.19,0,0,0,31.07,9.39c12.3,2.7,23.7,8.05,35.81,11.13,2.94.75,5,2.9,7.59,3.9,6.19,2.34,13,3.54,18.84,5.85,10.9,4.33,22.07,4.8,33.13,6.84a7.23,7.23,0,0,1,1.75,5.43c-.13,3.48-2.76,5.72-5,3.1-4.57-5.37-7.82-3.06-11.69.32-1.58,1.38-4,1.42-5.71,3.11,2.75.75,4.57-1.2,6.7-2,2.8-1.05,4.88-.83,6.67,2.13,4.09,6.8,7.55,8.34,14.63,5.35,5-2.13,7.09-.93,7.74,4.16.42,3.35,5.2,5.88,3.12,9.11-2.23,3.44-6.18.24-9.37.19-1.27,0-2.51.35-2.92,1.64-.48,1.56.92,2,2,2.57,1.56.8,3.22,1.65,2.49,3.77a3.64,3.64,0,0,1-4.16,2.26c-11-2.12-23.22,1.5-33-6.83-1.74-1.48-4-1.53-6.11-1.83-5.15-.72-9.45-2.7-12.83-7.11-4.83-6.32-12.49-7-19.41-8.18-4.81-.8-6.95,3.88-7.48,8.17S694,659,698,659.12c6.08.23,10.35,2.24,13.14,8,1.58,3.29,5.36,3.66,8.73,4.25,2.71.47,6.25.63,4.29,5.25-7.61,3.08-13.66.11-18.42-5.67-2.34-2.84-4.62-4.51-8.24-4.91-6.19-.66-10.55-4.22-13.24-9.91.44-6.86-2.37-7.89-8.77-6.7-6.73,1.24-14,.65-18.62-6.21-.56-.82-1.36-1.86-2.19-1.7-5.24,1-10.41,3.1-15.52-.86-.82-.63-2,1.68-2.94,2.76-4.72,5.54-12.05,6.82-18,3-3.73-2.37-6.41-5.34-3.73-10.21s-.33-6.85-4.08-6.21c-9.79,1.68-18.91-1.73-28.32-2.86-2.63-.31-5.33-.63-7.83.22-10.68,3.65-21.57,3.24-32.54,2.2s-21.74-2.33-32.67-2.6c-.71,0-1.43,0-2.14-.06-3.63-.51-9,0-8.32-5.31.63-4.57,5.69-3.1,9.06-2.68,10.38,1.3,20.79,2.12,31.22,2.62a26.18,26.18,0,0,0,18.51-.93c-8.42-2.53-14-8.3-19.06-15-2.59-3.45-7.34-2.95-11.3-3.69-10.5-2-21.48-.52-31.71-4.52-4.67-1.7-10-1.38-14-5,2.25-4.91,6.53-3.53,9.9-2.59,11.83,3.29,24,4,36.05,5.87,4.44.71,9,1.33,13.33-.17-1-3.14-3.56-5.18-5-8-.8-1.49-2.66-3-2.38-4.4,2-9.91-6.36-11.17-11.75-14.21a362.08,362.08,0,0,0-36.83-18c-7.77-3.29-14.56-8.4-22.35-11.57-2.91-1.61-6-2.9-8.73-4.8-1.15-.79-2.64-1.78-1.91-3.39s2.39-1.55,3.78-1.13c5.25,1.58,9.83,4.68,14.79,6.92,17.84,9.17,36,17.78,54,26.44,4.79,2.29,11.65,3.93,16.74-1.84,1.2-1.37,3.15-.44,4.79-.31C548.27,561.6,550.67,563.53,553.34,562Z"
            fill="#63574b" />
        <path
            d="M842.31,636.43l9.73-.1c2,6.45-4.53,2-5.64,5.14,5.74,2.26,10.46,7,18.12,4.77,4.84-1.42,10.42,5.27,10.47,10.7,0,3.92,5.64,10.48,9.73,10.61,3.31.1,5.49.94,6.48,4.35.74,2.53,2.44,3.65,4.95,2.4,2.9-1.44,5.56-3.25,4.63-7.23-.6-2.6-2.1-4.36-5-4.28a7,7,0,0,0-2.79.6c-3.4,1.54-6.86,3.13-9.5-1.08s-3.74-9.21-1.1-13.85c2.34-4.1,6.68-7.33.3-12-2-1.49,1-4.48,2.8-4.61,6.55-.47,11.25-6.2,18-6,5.27.13,7.48-4.07,9-8.2,1.55-4.35,2.44-8.93-1.1-13.11-5.62-6.65-9.19-6.44-13.55,1.16-3.39,5.9-6,12.25-9.38,18.11-3.3,5.66-7.94,9.42-15,8.28a19.64,19.64,0,0,0,5.85-9.63c3.28-10.67,9.51-20,13.75-30.21,4.6-11.06,9-22.23,13.42-33.36a122.25,122.25,0,0,0,15.3-51.83,13.63,13.63,0,0,1,.52-4.31c-.34-7,1.23-13.71,2.83-20.42,2.5,1.89,2,4.73,2,7.26-.1,5.32.34,10.51,2.2,15.14,3.33-3,3.3-9.06,8.77-10.59,5.76,7.25,1.12,14.12-1.7,20.26-2.19,4.78-4,9.12-3.79,14.41.45,9.27-4.3,17.11-6.81,25.59-3.26,11-7,22.39,3.5,32.06,2.44,2.26,1.95,5.54.88,8.21-1.3,3.25-4.39,2-7,1.83,3.83,2.32,8.84,3.71,6.51,10,3.08.65,4.48-1.79,6.5-2.86,3.8-2,7.75-.38,9.11,3.79.29.91.58,2.7,0,2.62-5.45-.79-5.57,7-11.66,6.65-5.1-.34-7.75,5.34-9.16,10.3-.66,2.31-.31,4.89-1.5,7.1s-1.09,3.62,1.72,4.13c2.25.42,4.2,1.56,4.14,4.25-.06,2.92-2.41,3.93-4.6,5-1,.49-2.14.21-3.22.87,4.94-.19,9.39-5.93,14.26-1.59,2.94,2.62.19,5.85-1.1,9,9.88-.13,10.27,9.75,15.29,14.84,6.12,12.54,1,24.28-2.42,36.14a9.85,9.85,0,0,1-4.44.41c-2.93,1.13-.55,5.26-3.44,6.42-1.63,1.32-3.94,1.65-5.22,3.67,1.67.87,3.91-.27,5.14,1.71,1.14,2.63,2.12,5.29,1.19,8.23-7.85,7.34-16.88,8.59-27,4.72,1.35,4,4.57,3.22,6.9,4.11s4.8,1.86,4.23,4.89c-.48,2.57-3.05,2.7-5.17,3a5.6,5.6,0,0,1-4.13-.79c-3.62-2.49-6.91-2.35-10.42.43-1.94,1.54-4.62,2-6.49-.21s.28-3.47,1.6-4.77,1.38-3,.66-4.67c-1.64-3.83-.57-7,3.3-10.06-7.08-.7-12-4.13-17.41-6.58-2.47-1.11-4.91-2.27-7.26-3.6-3.72-3.82-8.43-2.55-12.88-2.59-6.58-1.67-12.7-7-20-2.57a20.92,20.92,0,0,1-9.57-1.89,10.89,10.89,0,0,1-4.28-3.3,11.87,11.87,0,0,1-1.83-3.93c-.49-1.84-1.6-4.17.29-5.39s3.39.94,4.64,2.31c2,2.15,3.88,4.41,6.81,5.09,3.14.73,6.47,1.18,7.36-3.24s3.37-3.65,5.49-1.52c5.07,5.11,10.4,8.38,17.9,5.69,1.77-.63,3.48,1.3,4.9,2.59a20.34,20.34,0,0,0,8,4.76c2.69.78,5.41,1.12,6.69-2.12,1.19-3-.25-5.16-3-6.42-2-.88-4-1.63-5.45-3.37s-2.19-4-.87-6c1.68-2.56,3.31-.34,4.76.64,1.24.84,2.57,1.69,4,1.19,3.89-1.38,7.27-.8,10.86,1.33,2.11,1.24,5.24.56,6-2.11.7-2.5-2.09-2.71-3.87-3.19s-4.07-.6-4.44-3c-.4-2.59,1.59-3.85,3.45-5,.81-.51,1.71-.88,2.48-1.46,1-.74,2-1.71,1-3s-2.17-.45-3.15.27a32.07,32.07,0,0,1-4,3c-4.46,2.37-9.51,2.68-12.56-1.2-4.76-6.06-12.52-5.76-17.79-10.29-.75-.65-2-1-2.61-.17-4.22,5.88-8.28,2.17-12.38-.06-2.76-1.49-6.3-1.48-8.29-4.57-.18-.29-.11,1.23-.51,1.8a11.82,11.82,0,0,1-2.31,5.54c-1.54,1.82-3.75,2.82-5.34,4.58-.8.88-1.61,2.12-.43,3,1.43,1.1,2.72.17,3.35-1.27.93-2.11.41-4.82,2.54-6.46,4.19-.91,4,2.49,4.31,4.89.59,4.87,3,7,7.74,6.07,3.33-.66,5.37,1.38,7.55,3.24,1.31,1.13,4,1.49,2.69,4.23a3.75,3.75,0,0,1-4.88,2c-11.23-5.31-25.33-2.71-34.7-13.09-2.07-1.2-4.4-1.85-6.32-3.32-4.33-3.3-5.1-7.67-2.12-12s6.23-4.52,11.28-.8c.06.22.1.45.18.68.87,2.43-4,5-.43,6.87,2.84,1.52,5.16-1.34,7.21-3.25-.75-2.17-3.42-1.41-4.49-3.14-.77-1.23-2.25-3.2-1.18-3.76,6.5-3.36.21-6.36-.52-8.75C827,641.3,831.8,635,842.31,636.43Z"
            fill="#41362b" />
        <path
            d="M470.08,538.48c-3-1.3-6-2.55-9-3.9-2.67-1.21-5.3-2.53-8.48-2.62L463,538.43c-4.92,4.33-15.32,4.8-21.9.85-2.88-1.73-5.57-3.76-8.41-5.58s-6-2.92-9.48-1.69c-4.11,1.44-8-.37-13-1.62,1.71,3.58,3.09,6.43,6.2,7.09,11.85,2.53,19.31,12.19,28.91,18.33,6.18,4,12.16,7.54,19.63,7.54a16.24,16.24,0,0,1,8.77,2.81c9.78,6.22,20.69,8.68,31.94,9.85a84.71,84.71,0,0,1,14.08,2.58c4,1.12,7.8,2.62,7.45,8.18-.21,3.29,2.61,3.7,4.89,4.28,4,1,7.86,2.07,11.25,4.51-4.84,5.64-11.12,3.07-16.55,2.25-12.59-1.89-25.43-2.41-37.72-6.4-2.22-.72-5.22-1.13-7.4,1.14.67,6.11-1.41,8.84-6.81,8.93a8.51,8.51,0,0,1-2.13-.21c-9.4-2.09-18.46-3.34-27.3,2.87-5.47,3.84-13.32,2.07-18.89,5.82-7.18,4.83-12.4,11.91-17.4,19-.82,1.15-1.05,2.72-2.37,3.54A74.8,74.8,0,0,1,384.32,616c-3-3.29-7-6.66-9-12-2.06-5.75.62-7.06,3.68-8.7,4.63-2.46,9.63-4.19,15.35-6.59-12.07-6.25-22.6-13.65-31-23.76-3.13-3.75-6.47-7.46-8.84-11.7-3.62-6.47-2-8.75,5.63-9,6.68-.25,13.37-.47,20.05-.74,1.13,0,2.43.13,3-1.46-1.3-2.78-4.48-2.21-6.51-3.69-2-7.76.37-12.44,7.32-14.48,2.05-.6,4.28-.51,6.16-1.72a1.66,1.66,0,0,0,.79-1.38c-1.54-3-5.42-2.46-7.56-4.73-1.65-1.75-3.83-3.45-2.61-6.17,1.12-2.49,3.59-1.83,5.71-1.52,15,2.12,29.16,7.11,43.25,12.48,4.56,1.74,8.73,4.1,14.14,1,4.15-2.4,24.91,9.26,26.7,14A2.75,2.75,0,0,1,470.08,538.48Z"
            fill="#433b32" />
        <path
            d="M406.74,632.51c-.31-3.92,1.26-6.83,4-9.56,3.9-3.83,7.44-8.07,11-12.24,5.72-6.69,14.77-3.7,21.39-7.76,1.15-.7,3.16-.31,3.95-1.18,7.22-8,15.87-4.07,23.83-2.66,7.19,1.27,9.32.66,10.69-6.56,5,0,9.53,2.07,14.28,3.14,4.25,5.15-3.76,3.84-3.41,7,.67.89,1.69.52,2.49.21,8.57-3.34,15.15-1.13,20.24,6.76,3.42,5.29,9.33,5.34,14.74,5.83,4.29.39,8.55.65,12.44,2.72,1.9,1,4.53,2.34,3.58,4.67s-3.58,1.38-5.58.52a173.71,173.71,0,0,1-34.6-2.62c-2.1-.35-5.83-1.64-6.05,1.27-.27,3.62,3.71,2.75,6.08,2.77a280.92,280.92,0,0,1,37.43,3c6,.2,10.62,2.72,14.27,7.79,2.06,2.87,5.37,4.77,8.43,6.63,3.5,2.12,6.74,4,7.83,8.72.87,3.81,5.13,4.78,8.2,6.49,7.91,4.41,8,4.36,4.27,12.52-1.12,2.44-1.78,4.52.69,6.42,1.62,1.58,4.5,2.3,3.74,5.54a9.46,9.46,0,0,1-7.85-2.72c-4.8-5.12-9.79-4.28-15.17-1.68-.54-.45-1.37-.6-1.42-1.52,3.52-6.3-4.63-6.52-5.71-10.86-.53-2.14-5.25-.6-7.68,1-8.64,5.71-19.14,7-28.12,13.43-.74-5.18.09-8.59,3.92-10.65,3.17-1.71,3.21-3.37.94-6.21-10.64-13.32-11.39-10.88-21.91-7.57-9.14,2.89-17.61,6.47-24,14.27.21-5.68,4.11-8.45,7.73-10.64a66.19,66.19,0,0,1,24-9.08c1.52-.24,3.86.77,4.23-1.53s-1.41-3.92-3.48-5a7,7,0,0,0-5.55-.23c-11.9,3.89-24,7.27-35.64,11.82-4.16,1.63-6.49-1.55-10-1.62-4.55-.09-10.31,2.87-14.28-2.48-.88-1.2-2.52-.21-3,.78-2.78,5.67-8.45,7.46-13.12,10.61-.95.64-2.41,2.22-2.22,2.6,2.82,5.38,1.38,11.55,3.26,17.07-10.06-1.27-16.46-8.94-24.17-14.34-4.88-3.42-7.33-8.93-11-13.39-4.08-5-2.54-11.48,2.63-16C404.88,636.56,407.43,635.67,406.74,632.51Z"
            fill="#393129" />
        <path
            d="M836.24,705.39l10.09,1.52c-2.93,5.82-3.32,11.79-.13,17.52,2.25,4.06,5.69,8.2,10.53,7.12,5.44-1.21,8-6.29,9.23-11.75.71-3.29-.92-6.72.43-10,4.62-.44,9.75-3.22,12.94,2.92,1.93,4.64-1.89,8-2.55,12.13-.4,2.46-2.53,5.49,1,6.79,2.72,1,4.61-1.41,6.32-3.57,3-3.76.34-8.5,2.35-12.37,6.62,3.29,13.59,5.71,23,8.46-8.37,2.56-10.71,5.25-5.93,11.57,2.9,3.83-3.49,3.67-5,6.51,1.83,1.7,4.17,1.73,5.43,0,3.91-5.48,7.74-4.11,11.74-.46,1.84,1.68,3.61.21,5.41.16.95,0,2-.28,2.08-1.48a2.37,2.37,0,0,0-2.11-2.51c-2.51-.66-5.07-1.15-7.62-1.63-1.88-.35-4.26-.39-3.55-3.24.54-2.18,2.91-4.87,4.45-3.86,9.16,6,17.21,1.4,25.48-2,.6-6.85-2.28-14.24,3-20.38.9-.33,1.83-1.58,2.65.11,3.64,5.5,1.68,11.55,1.64,17.39-.36,2.13-1.29,4.17-1.18,6.41.71,14.41-1.33,28.85.3,43.43.58-1.19.19-2.37.59-3.41.64-2.47,3.19-3.27,4.39-5.28,3.59.08,3,3.08,3.19,5.17.27,2.61,1.06,5.08,1.44,7.65.11,2.83,1.32,5.45,1.48,8.27.67,8,.46,16,.57,24,.08,6.59-2.83,12.32-6.28,18-2.16-14.85,1.36-29.67-1.73-44.27.26-1-1.27,0-.32-.13,0,0,.77.26.75.5-.7,8,.76,16,0,24-1,9.52.16,18.7,2.34,27.86-1.07,3-.47,6.5-2.38,9.29-4.74.22-3.71-3.6-3.44-6a76.93,76.93,0,0,0,.83-8.95c-.17-1-1.4.5-.58,0,1.17,2.09.27,4.09.08,6.61-3.74-.87-4-4.35-5.85-6.25a5.14,5.14,0,0,1,.47-6.51c1.8-8.35,2.72-16.78,1.79-22.25.57,5,0,12.92-1.51,20.81-4.44,2.66-7.12-2.29-11-2.72-4.12-.46-7.13-2.88-5.4-8.11.46-1.41-.76-2.3-2-2.52-5.68-1-7.91-5.64-10.47-10.09-2.87-5-6.43-9.13-13-8.35-3.28.39-4.37-1.91-5.51-4.58-2.29-5.33-3.74-11-6.11-16.26a1.59,1.59,0,0,0-1.28-.78c-2.19,1-1.66,3.23-1.71,5a63.44,63.44,0,0,0,7.13,31.54,13.19,13.19,0,0,1,1.7,4.76c-2.06,5.49,4,8.89,3.49,14a17.09,17.09,0,0,1-4.1,8.43c-3,3.19-6.51,5.34-10.26.74-4.51-5.32-9.71-9-17.09-7.57.32-1.12,1.24-2.33.06-3.34-10.37-8.88-10.62-22.34-15-33.94-1.5-4,.29-7.19.74-10.67,1.12-8.72.36-9.7-7.58-7.24-5.34,1.65-10.63.72-16,.27-3.22-.27-4.87-2.69-6.71-4.88a2.51,2.51,0,0,1-.42-2.93c3.22-1.7,6,.37,8.88,1.19,8.65,2.46,14.61.06,19.21-7.92,3.29-5.7,4.68-5.82,8.07.08,3.7,6.44,9.59,8.92,16.2,8.67,6.42-.23,9.87-5.19,11.88-11.08.79-2.3,1.44-4.64,4.18-5.45,1.41-.41,3.94-.13,3-2.85-.8-2.33-2.48-5-5-4.41-6.74,1.61-12.66-.64-18.72-2.85-1.94-.71-3.75.23-5.44,1.15-3.23,1.75-6.36,1.84-9.43-.35-2.53-2.25-5.85-3.15-8.49-5.21-1.57-1.23-2.5-1.42-4.65,0-4.62,3-8.35,1.79-10.57-2.29,4.81-2.05,6.1-4.93,4.76-10.6C834.12,716.82,833.41,710.8,836.24,705.39Z"
            fill="#352e27" />
        <path
            d="M947,976.32c-3.37.39-.76-3-2.48-3.73-1.33,4,1.28,7.82.74,12.69-2.34-2.39-4.35-5.13-6.12.37-1.28,4-4.61,7.33-7.39,10.64s-6.22,3-8.51-.37c-5.29-7.89-12.67-14.55-14.27-25-3.37,2.63-6.57,4.73-9.3,7.34-4,3.87-6.76,2.39-9.07-1.74-4.28-7.65-8.39-15.34-6.88-24.69.68-4.19-1.33-4.57-4.5-3.05-2,.94-3.88,1.89-5.87,2.72-7.68,3.21-10,1.52-8.84-6.86.41-3-1.66-4.83-2.07-7.41-.95-6,.82-11.45,2.6-16.88-.77-.36-1.2-.76-1.61-.73-12.22.65-11.57.61-12.39-11.52-1.12-16.51,9.49-26.91,17.94-38.39,4.24-5.77,9.8-10.6,17.15-12.35,4.09,0,2.46,2.87,2.37,5-1.36,3.69-3.29,7.22-3.14,11.35-1.1,4.53-1.55,8.92,1.16,13.21,1.92,3,.83,6.56.73,9.9-.24,7.83,4.56,15.85,10.87,18.18,4.26,2.23,4.87,7,6.88,10.71,3,5.47,6.4,8.84,13.13,6.43,4.75-1.69,8.57-.5,11.35,4.52,3.41,6.16,6.16,6.63,12.25,3.36,2.45-1.31,5-4,6.64.86A143.82,143.82,0,0,0,951.1,961C952.22,966.64,951.87,972.21,947,976.32Z"
            fill="#231e1a" />
        <path
            d="M893.72,812.17c-7.54-11.7-10.39-24.67-10.06-38.51.06-2.89-.32-6.94,2.93-7.32,3.51-.41,5.4,3.82,5.28,6.64-.27,5.84,5.06,9.39,4.9,15-.06,1.8,1.56,2.49,3.09,1.93,8.42-3,11.62,3.81,14.88,8.92,2.9,4.54,4.54,9.4,11.15,9.29,2.84,0,4.65,2.13,2.11,4.88-3.56,3.86-1.09,4.7,2.2,5.52,4,1,8.27,1.72,11.08,5.4,1.16-.1,2,.07,1.23,1.55-.43,1.47-2.44,3,0,4.4,5.93,11.38,5.09,24.08,5.72,33.1-1.21-3.48-1.3-10.12,1.28-16.72.72-3-.93-6.35,1.42-9.07,3.48,2.18,4.49,6,4.34,9.47a138.45,138.45,0,0,1-3.19,25.24,9.64,9.64,0,0,1-3.27,5.55c-2.49,1.94-2.4-.78-3.24-1.6a110.46,110.46,0,0,1,6,29.77c-1,6.33-1.84,12.68-2.69,19-7.84,2.09-13.21-3.56-19.13-6.85-3.45-1.92-6.53-4.52-10.2-6.38-7.37-3.73-9.39-11.78-12.47-18.77-.85-1.94-1.14-4.13-2.43-6-7.42-10.55-10.78-22.95-15.17-34.88a2.55,2.55,0,0,1-.27-1.33c-.4-3,2.54-4.74,3.47-3.3,5,7.74,6.65-.33,9.63-1.76,4.56.29,4.56-2.32,3.27-5.53-3-7.36-5.56-14.88-9.85-21.62C894.6,816.46,893.42,814.53,893.72,812.17Z"
            fill="#2a251f" />
        <path
            d="M829.08,664.37c-3.33-4.43-6.47-4.14-9.69.23-3.37,4.58-1.59,7.62,2.61,10,1.83,1,3.75,2,5.63,2.91a5.94,5.94,0,0,1-7.31,1.09,19,19,0,0,0-14.49-1.48,8,8,0,0,1-6.91-1.12c-5.15-4.07-8.2-2.06-11.21,2.84-2.23,3.62-6.82,5.08-9.32,8.58,1.81,2.33,3.79,1.86,5.58,1.36,4.29-1.19,8.41-3.69,11.83,2.16,1.13,1.93,4.64.95,6.39-1,2.25-2.44,4.06-2.74,6.53-.28,4.08,4,8.78,4.42,13.81,1.74,1.19-.64,2.76-1.67,3.82-.07s0,3.29-1.18,4.52c-3.71,3.85-8.35,4.31-13.27,3.58-4-1.79-7.84-2.87-12.19-.75-3.17,1.54-6.56.21-9.66-.92A23.43,23.43,0,0,0,781.1,696c-8.19-1.31-17.14-1.57-24.32-4.58-11-4.58-23.47-6.56-32.59-15.38-.46-3.75-3.34-2.79-5.55-2.84-5-.14-9-2.25-10.62-7.13-1.35-4.12-3.78-5.14-7.53-4.64-4.84.66-8.43-1.26-10.45-5.79-2.32-5.18,1-8.81,3.73-12.45,3-4.07,6.69-2,10.34-.85,7.18,2.24,15,3.16,18.57,11.52a1.66,1.66,0,0,0,1.21.72c12.12.9,21.5,11.75,34.42,9.79,5.08-.78,10.06,3.29,15.27.59.16-2-1.25-1.83-2.33-2-2.23-.38-5.53.15-4-3.89,1-2.78,2.75-5.42,6.36-4.51,2.68.67,4.9,3.19,8.61,2-1.92-4.18-7.1-7-4.72-13.1-4.53,3.38-9.06,3.85-13.73,3.34-4-.43-7.69-1.34-7.91-6.57-.15-3.54-1.76-4.29-4.64-2.43a28.68,28.68,0,0,1-2.39,1.62c-3,1.54-7.78,3.28-8.94.33-1.46-3.68,3.76-3.63,6.31-4.94,2.12-1.08,5.52-2,5.94-3.65,1.87-7.21,4.13-3.13,6.95-.91,1.71,1.34,1.94,5.42,5.07,3.92,2.85-1.37-1.73-3.7,0-5.75.39-.48.26-1.41.37-2.13,14.11-1.18,27.92,1.85,41.87,3,9,.75,17.51,4.39,26.64,3.85,3.5-.2,6.3,2,9.35,3.32-6.46-.9-12.19,5.25-12,8.06.38,5.12,1,13,9.5,13.77-.64.83-.84,1.37-1.15,1.44-2.41.53-6.38-3.46-7,1.14-.43,3.1,3.69,3.62,6.69,3.58,1,0,2.74-.49,2.31,1.46-.29,1.3-1.84,1.3-3,1.45C833.76,669.5,831,668.12,829.08,664.37Z"
            fill="#4d4238" />
        <path
            d="M470.08,538.48a7.81,7.81,0,0,0-5.51-7c-6.26-1.86-11.64-5.32-17.31-8.29-1.33-.69-3.42-1.32-3.94-.09-2.67,6.39-6.61,2.27-9.64,1.12-15.83-6-31.72-11.61-48.45-14.41-1.18-.2-2.27-.68-3.69.49a8.49,8.49,0,0,0,7.37,6.37c2.46.39,5.86,1.05,5.8,4.28s-3.51,4.26-5.9,4.11c-9.6-.58-11.51,5.6-12.06,13.28-14.55-3.22-24.3-13.91-34.7-23.47a84.81,84.81,0,0,1-10-11.73c-3.53-4.71-2.32-8.64,2.72-8.46,16.59.58,33.24,1.08,49.42,5.61-.24,1.82-4.2,2.63-2.55,3.86,3.34,2.5,3.32-2.44,5.18-3.59,21.58,3.56,41.74,12,62.14,19.4,35.25,12.83,70,27.11,104.41,42.08-3.63,6.31-7.8-1.38-11.78.85-.66,1.72,2.78,2.3,1.77,4.76-4.8-1.24-9.64-2.26-14.6-.65a5,5,0,0,1-3.35-.47Q497.69,552.56,470.08,538.48Z"
            fill="#4a4036" />
        <path
            d="M681.19,758.11c-9.91,8.8-17.6,19.58-26,29.8-3.65,4.47-1.34,5.35,2.06,7.1,4.89,2.52,10.58,2.45,15.29,5.92,4.23,3.13,7.67,7.1,12,10.15,3.86,2.71,7.73,3.71,11.35,2.11,12.45-5.5,22.62,1.62,33.41,5.45,1.54.54,3.29,2.55,4.33,2.16,10.76-4,20.33,2.83,30.58,3.26,4.81.21,10.18-.4,13.31,4.9-6.8,4.79-15,5.69-22.6,8-1.3.4-3.46.56-4.18-.19-7.46-7.9-15.4-1.33-22.77-.4-8.54,1.09-11.52-.66-10-9.28.24-1.39,1.1-3.07-.26-4.07s-2.74-.29-4.4.52c-9.24,4.44-19.19,6.19-29.33,6.2-5.51,0-9-2.65-7.21-9.1a36.49,36.49,0,0,1,1.64-5.54c2.85-6.26.71-6.81-5.05-5.56-13.81,3-27.74,2.25-41.57-.27-6.12-1.12-6.75-3-3.23-8.54a2.65,2.65,0,0,0,.38-.62c.9-2.71,5.82-4.16,4.19-6.8-2.11-3.42-6,.11-9.16.06-10.73-1.62-21.5-3-32.17-4.94-6.44-1.16-10.41-7.16-16.35-9.84-3.22-1.45-3-6.86-.82-10.55a49.67,49.67,0,0,1,4.54-5.56c7.27,3.28,13.88,1,20.26-2.64,3.31-1.91,5.15-.57,5.54,2.78.44,3.76,1.63,8.16-2.33,10.69-2.71,1.72-1.78,3.6-1.29,5.63.61,2.53,2.58,3.89,4.84,3.36,10.54-2.49,19.6,2,29.08,5.45,10.93,4,12.77,2.93,19.69-6.84a145.92,145.92,0,0,1,18.54-21.3c1.74-1.66,3.36-3.55,6-3.69C680.72,756.18,681.54,756.7,681.19,758.11Z"
            fill="#2f2920" />
        <path
            d="M938.21,494.53c-3.87,4.44-6.44,9.7-8.82,14.81-5.56-8.32-3.62-17.88-4.34-27,.16-29.93,1.06-59.87-.71-89.79-.12-1.93-.48-3.85-.72-5.78-.69-10.88,2.45-21,5.77-31.13.7-2.11,2.17-3.93,4.7-3.75a4.41,4.41,0,0,1,4.11,4.35c.4,5.11,3.39,9,5.53,13.24.81,3.93-.73,8.15,2,13.54-.25-.7.32-2.16-.43-1.55-.23.18-.36,0-.53-.49a12.1,12.1,0,0,1,.06-9.12c1.73-1.4,2.79-.23,3.85,1-.81,8.26,2.4,15.79,4.19,23.59.14,2.14.29,4.33-.71,6.28-1.55,3-3.5,3.72-5.78.66-1.39-3.58-2.39-7.33-4.16-10.78,1.34,3.7,3.34,7.19,3.37,11.29.87,4.93-4.4,8.58-2.71,13.67,1.81,6.08,2.29,12.37,2.84,18.64-.19,1.94-.58,3.81-2.23,5.08-5.65,4.35-5.56,5.53.74,9a5.89,5.89,0,0,1,2.07,1.9c2,6.85,2.75,14,5.34,20.7a5.44,5.44,0,0,1-1.15,6c-3.24,3.08-5.53-.17-8.65-1.64.31,3.93,2.69,7,2.33,10.63S943.48,495.39,938.21,494.53Z"
            fill="#3c2f23" />
        <path
            d="M873.38,632.08c8.82-1.63,13.93-7.68,17-15.61a57.83,57.83,0,0,1,12.82-20c2.33-2.37,3.46-3,3.85.69.19,1.82,1,2.16,2.21,3.06,8.4,6.26,8,21.16-.65,26.79a7.73,7.73,0,0,1-4.12.76c-8-.13-13.63,6.34-22.7,6.4,3,3.23,6.9,1.94,7.25,5.34.34,3.21-1.42,5.67-3.59,7.58-4.3,3.76-3.13,8.21-1.66,12.54,1.08,3.14,2.34,5.29,6.76,2.69,4-2.36,9.15-4.4,12,3.21s-2.74,9.2-6.73,11.3c-4.51,2.38-6.48-.74-6.57-5.3,0-1.35-1.14-2.93-2.08-2.36-8.14,4.88-8.38-6.48-13.94-7-1.12-.1-1.3-2.06-.92-3.2,1.19-3.56,3.48-6.59-2.57-8.8-3.36-1.23-5.67-3.69-9.41-1.15-3.17,2.14-5.46-.53-7.4-2.49-2.86-2.89-9.45-.81-9.69-5.48-.29-5.73,6.59-.55,8.67-4,.12-.18.07-.47.09-.72C859.14,634.82,867.11,637.9,873.38,632.08Z"
            fill="#352e27" />
        <path
            d="M889.49,851.8c2.71,5.17,6.44,10.07,7.88,15.6a49.84,49.84,0,0,0,10,19.49c2.71,3.28,1.44,7.37,3.62,11.05,3.68,6.2,8,10.08,14,14.14,6.66,4.5,13.91,7.72,20.53,12.1a10.17,10.17,0,0,0,2.69.83,3.47,3.47,0,0,1,.72,4c-3.15,3.09-8.16,1.55-11.47,5.05-1.53,1.62-3.87-.61-5-2.73-.6-1.17.18-3.41-.12-3.42-8.64-.27-11.5-10.79-19.85-11.51-5.3-.46-8-3-5.89-8.78.72-1.93.53-3.1-1.67-3.87-6.9-2.45-9.82-6.44-9.51-13.52a26.74,26.74,0,0,0-6-18.72c-2.45-3-2.14-6.17-2.9-9.33.37-1.68,1.93-3.49-.53-4.85A7.26,7.26,0,0,0,889.49,851.8Z"
            fill="#453f3a" />
        <path
            d="M942.62,370.22c-3.13-4.11-7.23-7.73-6-13.88a2.78,2.78,0,0,0-2.27-3.22c-2.1-.36-2.86,1.29-3.28,3q-3.74,15.3-7.43,30.62c-3.58-12.91-.85-25.09,5.22-36.35a134.74,134.74,0,0,0,9.26-22.74,2.31,2.31,0,0,0,.43-.57c1.11-2.71-.54-7.91,3-7.8,3.39.1,6,4.44,6.74,8.26,1.21,6.19.51,12.54.66,18.82,1.06,3.75,1.88,7.64.85,11.41-1.09,4-.26,7.6,1,11.26-.23,2,.39,4.62-3.08,3.89l-1.89-1.33c-.21-.08-.58-.1-.63-.24C944.63,369.55,943.93,369.24,942.62,370.22Z"
            fill="#4e4033" />
        <path
            d="M966.82,487a11.41,11.41,0,0,0,.67,10.11c2.84,5.32-.86,10-3.42,15.91.3-8.55-3.53-15.73-2.84-22.53,1.12-11-2.43-21.08-2.93-31.6a50.49,50.49,0,0,0-3.08-15.51,33.33,33.33,0,0,1-.06-11.87c3.46.5,1.72,3.39,3,4.54C964,452.51,965.45,469.74,966.82,487Z"
            fill="#3c2f23" />
        <path
            d="M448.12,682.08c2.8,6.17,7.91,10.64,11,17,2.8,5.76,9.26,11,15.69,14.46,3.57,1.92,6.81,3.94,8.17,8.07-10.36-3.72-20.76-7.12-28.43-16.14-1.43-1.68-5-2-6.54-4.78-2.77-5.17-3.56-10.21.32-15.2C449.2,684.31,448.65,683.18,448.12,682.08Z"
            fill="#393129" />
        <path
            d="M902.29,845.93c-.5,1.1-1,2.21-1.52,3.29-3.31,6.61-3.85,6.66-7.88.57-.39-.59.56-2.35-1.15-1.72-1,.36-1.69,1.57-2.52,2.4-2.79-5.06-6.18-9.9-5.72-16.15,9.81,3.81,10.1-5,13.11-10.25C903.33,828.78,906.09,839.4,902.29,845.93Z"
            fill="#857d76" />
        <path
            d="M952.7,370.38c.88-.59,2.52-2,2.47.07-.38,13.49,6.12,25.47,7.81,38.48.09.71.07,1.45.1,2.17-.69,3.39,1.17,7.28-1.89,10.22-1.22,1.39-.56,3.1-.75,4.67s.65,3.78-1.42,4.1c-1.61.25-2.6-1.59-3.24-3.15a17.3,17.3,0,0,1-.17-8.46c1.65-6,.32-11.77-1.73-17.42-1.4-4.9-2.38-9.91-3.8-14.81C948.45,380.61,949.05,375.19,952.7,370.38Z"
            fill="#382e24" />
        <path
            d="M982.42,551.56c-3.47,9.19,2,17.47,3.05,26.15.4,3.31,1.86,6.87,1.62,10.41-.68,9.86-3.7,19.22-6.91,28.69,2.68-17.94,4.27-35.76-.68-53.46.78-4-.87-7.8-1.37-11.69a3.46,3.46,0,0,1,0-4.49c.49-2.54.19-5.42,3.12-7.2C984.47,543.56,982.61,547.67,982.42,551.56Z"
            fill="#503f30" />
        <path
            d="M970,944.24c-.06,1.89-.13,3.78-.19,5.68-1.73.78-1.64,2.37-1.66,3.92-1.55,12.49-5.91,24.42-6.88,37a14.92,14.92,0,0,1-2.63,7.44c-1,2.21-2.78,1.84-4.56,1.3-2-2.43-.41-5.15-.63-7.73.84-4.55-1.46-9.06-.15-13.61a2.14,2.14,0,0,1,1.64-1c.67.09,1.65,1.19,1.72-.71.25-7.75,2.36-15.15,4.72-22.41,1.55-4.75-.94-10.41,3.29-14.47C967.65,939.75,970.66,939.76,970,944.24Z"
            fill="#231e1a" />
        <path
            d="M922.22,502.74c.3,8.82-2.24,17.81-1.85,26.09.54,11.78-11,16.93-10.75,27.5,0,.83-2.09,1.7-3.22,2.55,3.71-15.18,10.46-29.44,12.85-45C919.83,510.08,921.21,506.44,922.22,502.74Z"
            fill="#503f30" />
        <path
            d="M967,418.37c-1.54,17.43,4.75,34.63,1.22,52.14.41-17.45-9.6-34.29-2.6-52.1C966,417.7,966.49,417.68,967,418.37Z"
            fill="#3c2f23" />
        <path
            d="M948.55,347c-.8-5.92-2.76-11.8-1.74-17.82.81-4.78-6-4.52-4.22-9.56-3.71,2.24-1.85,6.24-4.49,8-.38-4-.68-8,1.51-11.72,2-1.75,3.95-.57,4.52,1.19,1.64,5,4.33,3,7.07,1.53,3.39,6.81,1.34,13.56-.47,20.2-.7,2.57-1.44,5-1.08,7.69A.71.71,0,0,1,948.55,347Z"
            fill="#764b33" />
        <path
            d="M951.2,318.66c-2.7,3.43-5.32,5.86-7.66-.33a3.78,3.78,0,0,0-3.93-2.39c.11-3-.28-6.11,1.06-9a22.82,22.82,0,0,1,8,.16C949.41,311,951.38,314.58,951.2,318.66Z"
            fill="#bc703c" />
        <path
            d="M982.17,936.05c.41,2.11.83,4.22,1.24,6.33-2.36,1.22-4-.31-5.83-1.48-1.17-9.24-3.1-18.41-2.68-27.82,1.24-.33,1.89.28,2.21,1.43Q979.63,925.28,982.17,936.05Z"
            fill="#453f3a" />
        <path
            d="M958.64,336.33c-.12,7.87-3.84,14.73-5.92,22.05,0,2,.21,4.09-2.44,4.62-2.78-5.55-2.06-10.52,2.4-14.85,1.9-5.51,3.45-11.09,2.94-17.19C958.5,331.89,958,334.41,958.64,336.33Z"
            fill="#4e4033" />
        <path
            d="M971.2,541l-1.35-4.43c1.25-7.32-1.82-14.94,1.42-22.13.35-.88.45-2.18,1.09-2.56,2-1.18,1.58,1,1.95,1.8,2.92,6.75-.08,13.4-.58,20.07-.18,2.38-.53,4.77-.48,7.19,0,.77-.33,1.52-1,1.54S971.14,541.78,971.2,541Z"
            fill="#503f30" />
        <path
            d="M957.81,369.18c4.71-.22,5.38-3.72,6-7.45.38-2.4-.43-5.79,3.72-5.72l-4.35,18.84c-1.86,2,1.88,6.1-2.49,7.25Z"
            fill="#3c2f23" />
        <path
            d="M961.91,390c2.42-1.85.07-5.41,2.49-7.25.52,1.71-.57,3.81,1.21,5.47,3.89-3.28.67-8.9,5.1-12.69,3.72,6.59,1,11.5-3,16.22-1.46,1-2.91,1.94-4.78,1.7A3.54,3.54,0,0,1,961.91,390Z"
            fill="#3c2f23" />
        <path d="M964.22,348c-2.56,5.18-.59,12.46-7.09,15.8,1-6.81,1.1-13.9,5.35-19.8Z"
            fill="#4e4033" />
        <path
            d="M964.87,399.85c1.42-1.08,2.65-2.72,4.78-1.69-.36,5.68,1.45,11.4-.26,17.07C964.22,411.22,965.8,405.15,964.87,399.85Z"
            fill="#382e24" />
        <path
            d="M974.18,963c-2.26-3.41.73-5.92,1.46-8.81.86-.68.81-1.64.82-2.6,0-1.18-.17-2.87,1.18-3,1.93-.23,1.64,1.93,2.23,3.12q.86,6.51,1.7,13c-2.28-.18-3.15-2.37-4.77-3.48C974.46,959.66,974.11,961,974.18,963Z"
            fill="#231e1a" />
        <path
            d="M386.79,500.54c-.87,2.39,2.24,7.18-3.39,6.6-2-.21-5.83-.54-5.77-3.11.08-3.47,4.14-2.74,6.53-3.76Z"
            fill="#433b32" />
        <path
            d="M948.66,307.12c-2.71,2.21-5.38,2.21-8-.16a4.62,4.62,0,0,1,.18-1.41c1.2-2.54,2.08-6.11,5.54-5.48C950.39,300.81,948,304.71,948.66,307.12Z"
            fill="#bc703c" />
        <path
            d="M974.32,495.33c-5.91.83-1.9-4.08-3.27-5.87.32-3.34.65-6.68,1.09-11.2C973,484.72,973.64,490,974.32,495.33Z"
            fill="#3c2f23" />
        <path
            d="M724.19,676.05c3.24-.27,5.55,1.82,8.29,3,10.23,4.28,19.82,10.9,31.18,11.55,6.43.36,12,3.17,18,4.58-3.85,3-8.92,3.42-12.93,6.05-2.72,1.78-6.59,3.47-5,7.7s5.54,4.84,9.68,3.86c3.14-.74,5.56-2.63,8.08-4.54,5.71-4.35,8.93-3.48,11.67,2.89,4.2,9.78,7.43,11.24,17.16,7.8,2-.69,4.31-2.27,5.82.13,1.65,2.6-.53,4.56-2.24,6.22-6.94,6.8-21.06,5-25.22-3.74-2.44-5.14-4.61-4.71-8.68-2.41-8,4.52-16.39,4.92-24.73.69a10.48,10.48,0,0,0-6.22-1.22c-7.35.86-14.3,0-20.36-4.87-1.83-1.48-4.05-1.22-6.21-.92a22.09,22.09,0,0,1-12.6-1.89c-5.35-4.62-13.29-5.64-17.8-10.32-6.72-7-12.89-6.84-20.53-3.57-1.71.73-4.27,1.18-5-1.16-1.39-4.4-5.65-5.83-8.06-9.07-3.91-5.26-8.82-5.36-14-2.78-10.23,5-22,7-30.41,15.74-.87.92-2.22.69-3.26-.2-3.2-.78-6.6-1.11-5.06-6.23,1-3.17-2-2.24-3.56-2.59,1.39-3.12-2.29-2.79-2.95-4.51-1.87-3.43-5.5-3.23-8.52-4.27l-4.32-4.37c2.49-5.56,8.25-6.11,12.72-8.58,12.27-6.8,25.12-10.11,39-6.31a3.66,3.66,0,0,0,2.8,0c6.74-4.52,15.16-3.94,21.87-6.75,8.33-3.48,15.09-1.65,22.61-.29,3.86,5.78,8.69,9.65,16.08,8.79,1.36-.16,3.1-.2,3.67,1.52C708.38,675.54,716,676.35,724.19,676.05Z"
            fill="#42382f" />
        <path
            d="M679.71,756.59a127.83,127.83,0,0,0-23.27,25.59c-7.27,10.6-11.48,12.18-23.27,6.94-8.61-3.83-17-7.46-26.74-4.8-2.61.71-7.14.46-6.54-3.23.45-2.75-5.92-8.06,2.27-8.9,1.6-.17,2.15-10.48.76-11.57a1.88,1.88,0,0,0-.61-.3c-2.7,4.28-9.57,2.06-11.07,5.48-2.24,5.11-2.94,3.48-5.37.68-1.69-1.94-5.06-1.52-6.63-4,2.78-3.3,3-8.85,8.51-9.88,1.24-.23,2-2.27.83-3.67s-2.06-.07-3,.54c-4.25,2.69-5.84,7.44-8.55,11.32-.78,1.11-1.62,2.66-3.36,2a2.49,2.49,0,0,1-1.5-3c1.64-4.5-7.21-5.83-3.19-10.53,2.57-3,7.18-2.13,10.49-4,5.38-3.08,10.91-5.94,16-9.47,3.77-2.61,7.19-4.65,11.71-2.22,1,.55,2.87,1.31,3.27.2,2.44-6.86,10.19-4.73,14.34-9.18,3.65-3.92,8.86-1,9.58,4.67.51,3.94,1.06,4,9.49,1a2.87,2.87,0,0,1,2-.59c3.08.34,6.75.42,7.86,3.82,1,3-2.74,4.1-3.91,6.05,2.15-2,4-4.64,6.36-6.74,4.86-4.36,9-2.81,10.16,3.55,1,5.51,7,8.68,14.09,7.57,3.92-.61,7.66-3,11.82-1.29a2.37,2.37,0,0,1,1,1.72C689.4,749.24,685.56,754.07,679.71,756.59Z"
            fill="#211d18" />
        <path
            d="M692.57,743.48c-3.68-.54-7,1.11-10.47,1.89-10.49,2.37-15.58-.86-17.26-11.43-.5-3.13-2.67-2.19-4.38-1.73-3.37.93-5.48,3.72-8,6-1.84,1.7-3,4.33-7.08,4.92,3-3.46,5.38-6.19,7.75-8.91-2.65-3.17-6.66-1.85-9.35-3.93-1.28-3-4.17-4.91-3.68-9.06.68-5.68-3.54,1.2-4.54-1.52,1.13-2.73,3.52-4.43,5.66-6.31,1.42-1.25,3.77-2.25,2.72-4.44s-3.22-.57-5-.51c-10.33.32-20.11-1.57-28.16-8.91,5.54-3.46,10.24-8.14,16.45-10.72s12.92-4.51,19.15-7.63c4.07-2.05,10.07-2.5,12.79,3.88,1.91,4.48,9.76,3.7,9,10.72-.08.72,2.06-.27,3.1-.59,7.33-2.28,14.1-5.37,20.44,3.39,3.52,4.86,12,3.56,16.37,8.93.6.74,1.18,1.5,1.77,2.25.19.5.23,1.25-.07,1.31-12.09,2.59-18,16.16-30.7,17.89-2.75.38-5.34,2.59-4.34,6.35s3.75,4.76,7.15,4.66c7.37-.23,13.55-4.4,20.36-6.46a20.45,20.45,0,0,0,2.56-1.29c1.69-.78,3.68-2.23,5.11-.11,1.61,2.41-.42,4-2.05,5.43a10.74,10.74,0,0,1-3.74,2.07C700.14,740.37,697.4,745.21,692.57,743.48Z"
            fill="#382f29" />
        <path
            d="M599.23,686.21c1.78.22,4-.29,4.79,1.85.22.56-1.18,1.76-1.84,2.66-10.59,3.54-20.48,9.14-31.47,11.49-11.55,2.48-19.52,10.69-28.18,17.84-.84.69-1.35,2-3.9,1.52,7.28-8.48,15.26-14.9,24.77-19.28C575.3,696.82,587.28,691.56,599.23,686.21Z"
            fill="#514942" />
        <path
            d="M566.27,676l1.42,1.52c-3.24,2.27-7,2.68-10.74,3.48-17.53,3.72-32.29,12.44-44.61,27.85C517.43,693.7,539.83,680.59,566.27,676Z"
            fill="#4c453d" />
        <path
            d="M692.57,743.48c3.8-.49,6.19-4.31,10.14-4.42a6.35,6.35,0,0,1,1.82,3.87c1.09,6.16,5.28,7.57,10.6,7.18a23.39,23.39,0,0,0,6.92-1.84c4.79-1.93,9-2.44,12.75,2.46,2.85,3.68,7.39,4.06,11.82,4,3.2,0,5.19-.81,6.22-4.48,1.51-5.36,3.61-5.75,6.88-.84,3.95,5.92,9.07,8.24,15.73,8.23,3.55,0,6.63.07,6.67-5.12,0-4.41,2.55-3.9,5.16-1.73a11,11,0,0,1,1.91,2.17c3.61,5.28,7.4,10.06,14.76,9.51a5.46,5.46,0,0,1,5.2,3.32l-.18,1.06a8.12,8.12,0,0,1-6.84,1.34c-5.37-1.66-10.18-1.83-13.47,4.39-1.78-3.89,4.54-4.85,1.27-8.24-2.47-2.57-5-1.45-7.89-.87-6.76,1.36-13.51-2.12-20.36-.55-4.63-8.11-10.92-2.23-16.58-2.18a29.16,29.16,0,0,1-9.67-1.56c-4.93-1.74-9.62-4-13.23,4.57-.44-6.33,5.69-7.32,4.47-11.95-7.22,1.53-14,4.73-21.54,2.55-3.46-1-6.44-1.89-6.7-6.14-.23-3.8-2.22-2.89-4.34-1.77-1.43.43-1.84-.2-1.54-1.56A13.42,13.42,0,0,0,692.57,743.48Z"
            fill="#3c3731" />
        <path d="M817.57,768.33c-4.37,11.83-10.61,22.9-13.69,35.26,1.76-12.89,5.37-25,13.72-35.24Z"
            fill="#3c3731" />
        <path
            d="M821.89,764l.06,3c-1.09,1.67-2.8,1.3-4.38,1.38l0,0c-2.49-2.83-6.31,2.43-8.63-1.48v0C813.55,761.2,818.41,760.09,821.89,764Z"
            fill="#3c3731" />
        <path d="M692.55,744.9l1.54,1.56-12.9,11.65c-.49-.51-1-1-1.48-1.52Z" fill="#2a241e" />
        <path
            d="M685.44,655.64c-9.7-1.48-18.89,2.36-28.36,2.76a19.11,19.11,0,0,0-11.72,4.52c-3.1,2.5-5.76,2.4-9.73,1.28-10.26-2.89-20.48-.94-30.09,3.63-6.46,3.07-12.77,6.48-19.15,9.74-4.12-.77-5.73-3.1-2.8-6.54,5.39-6.32,4.18-9.61-3.43-12.73-3.78-1.55-10.58-2.5-8.83-10.15.13-.58-1.93-1.85-3.11-2.54-6-3.5-12.17-6.87-15.64-13.35-2.12-4-6.73-1.82-9.3-4.43,10.92,1.47,21.52.26,32.23-2.56,4.52-1.2,9.92.28,14.77,1.3,6.26,1.3,12.25,2.48,18.84,1.42,8-1.29,10.49,2.67,6.68,9.62-1.37,2.51-1.11,3.69.67,5.51a11.66,11.66,0,0,0,18.91-2.47c1.73-3.09,4.37-6.25,7.41-.67,1.78,3.25,3.91,2.16,6.59.74,3.71-2,6.92-4.78,10,2.61,2.43,5.72,10.58,5.43,16.71,4.37C685.58,646.05,685.53,645.79,685.44,655.64Z"
            fill="#53473b" />
        <path
            d="M543.31,595.56c-5.09-1.16-10.25-2.1-15.26-3.58-2.2-.64-5.49-1.31-2.85-5.45,2.33-3.64-1.19-4.53-3.53-5.44-7.88-3.06-16.35-2.87-24.5-4.43s-16.18-3.73-23.39-8.36c-3.56-2.28-7.29-3-12-2.88-5.36.14-11.63-2.54-15.86-6.59-6.61-6.34-15.3-9.7-21.51-16.5a3.9,3.9,0,0,0-2.54-1.26c-7.93,0-11.37-6.29-16-11.82,2.34-1.55,4.55-1.2,6.77-.3,4.3,1.74,8.19,2.3,13,.32s9.06,2.94,12.36,5.73c8,6.72,16.19,5.68,24.93,3.43,13.57,6.46,27.23,12.74,40.68,19.44,9.84,4.89,19.49,10.17,29,15.62,2,1.11,8.47,2.22,1.74,6.5-1.74,1.11,0,2.55.72,3.66C537.83,587.64,540.58,591.59,543.31,595.56Z"
            fill="#4a4036" />
        <path
            d="M540.42,623.4c1.56-.29,3.33.58,5-1.24a19.76,19.76,0,0,0-13.13-4.61c-8.61-.07-16.46-1.15-21.29-10-2.43-4.46-6.74-6-11.76-3.56a9.59,9.59,0,0,1-2.81.52c-2.84.39-7,3.52-8.09-.25-.87-2.93,3-5.48,6.79-5.82,1.92-.16,1.1-1.62.76-2.71,12.75,4.38,26.39,2.4,39.32,5.64,1.89.48,3.92.45,4.85,2.45,4.21,9.08,11.85,13.48,21.95,15.74C555.06,626.77,547.82,625.6,540.42,623.4Z"
            fill="#433b32" />
        <path
            d="M744.79,645.37c2.43-.24,4.6.1,6,2.68a7.79,7.79,0,0,0,5.1,3.81c3.62.79,6.1,1.64,4.36,6.47-1,2.91-1.91,5.33-5.26,4s-9.44-.08-8.41-6.46c1-6-1.59-4.36-4.39-2.75-1.69,1-3.09,2-5.25,1.22-2.33-.89-6.39,1.12-7-1.87-.87-4.06,3.89-1.91,5.69-3.5C738.2,646.68,741.1,645,744.79,645.37Z"
            fill="#4d4238" />
        <path
            d="M821.89,764c-5.3-3.54-8.83,1-12.92,2.94-.51-.5-1-1.43-1.53-1.44-10.78-.2-18.05-6-22.67-16.28-2.77,4,2,7.49-1.46,9.66-2.71,1.72-6.08.44-9.14.74-9.25.9-14-5.3-18-12.58-3.81,2.63,1,9-4.94,9.52-7,.59-14.49,1.18-19-5.42-2.39-3.48-4.1-3-6.93-1.89-2,.8-4.07,1.37-6.13,2-11,3.33-16.42-.7-16.45-12.14,2.21-2,5.56-2.69,7.39-7.25-8.47,4.33-16.1,7.59-24.06,9.56-4.51,1.11-10,2.77-12.87-3.92-2-4.77-.78-7.92,3.68-9.9,4.8-2.13,9.68-4,14.49-6.15,1.52-.67,3.95-1.38,4.21-2.49,1.88-8,8-8.75,14.34-9.14,5.11.61,10.14,2.93,15.39.44,1.73-.82,3.34.17,4.41,1.58a11.36,11.36,0,0,0,8.64,4.45c8.67.65,17.16,1.17,25.66,4.17,6.24,2.2,13-.61,18.53-4.88,3.37-2.61,5.54-3.24,6.61,2.42,1,5.17,3.88,9.33,10.12,9.46,6.76.13,13.22,0,16.56-7.78-2.59-1.19-4,.54-5.54,1.4-7.95,4.41-16,1.07-18.47-7.74-2.25-8-4-8.43-10.38-2.52-6.51,6.08-13.74,6.28-18.81.87-2.7-2.88-3-5.15-.08-8,5.36-5.33,11.83-7.85,19.14-8.47,2.2-1.15,4.09-1.61,6.62,0,4.64,2.9,9.9,3.86,14.75.59,4.16-2.8,5.78,2,8.78,2.37,2.31,4.25,4.86,6.33,9.92,3.25,3.64-2.21,8.06-2.67,11.59,1.15l2.91,2.9c1.54,7.17-.57,14.49,2.24,21.91,2.29,6-4.51,4.87-8,5.9-.85,1.2-.91,2.46.69,2.7,2.58.38,5.62,1.69,7.69.75,6.14-2.78,10.88,1.05,16.15,2.45,1.7.92,4,2.43,5.33,1.13,6-6,11.69-1.3,17.51.12,2.21.55,4.34,1.95,6.86.5,4.13-2.38,6.7-.65,9.13,3.27,2.57,4.16,5.9,7.63-2.72,6.76a2.63,2.63,0,0,0-3.12,2.29c-1.71,8-5.68,14.78-14.18,14.87-8.9.1-16.71-3.68-20.28-14.36-2.26,7.18-6.53,11.83-13.18,14C833.52,769.87,827.93,765.8,821.89,764Z"
            fill="#2a241e" />
        <path
            d="M949.54,478.42c-3.34,14.94,5.28,29.83-2,44.85,4.44.11,3.29-4,6.11-3,0,5.57.16,11.29,0,17-.32,9.71,3.41,18.51,6,27.52,1.26,4.41,3.05,8.55,2.71,13.3-.13,1.86-.16,4.49,3,2.47,2.23,4.34,1,6-3.72,5.12-4.77-3.38-5-9.06-6.52-14-1.7-5.65-2.56-11.56-4.08-15.83.9,2.23-2,5-2.16,8.3-.81,7.38-.72,14.69,1.41,21.87-.07,1.53-2.61,1.45-2.15,3,.22.75,1.64.12,2.5.3,2.13,1.28,2.07,3.29,1.74,5.38.48,3.67-5,2.42-4.68,6,.24,6.07,2.28,11.82,2.85,17.82.25,2.61,1.06,5.24-.23,7.81a5.09,5.09,0,0,1-3.61,2c-3.08-.52-2.36-3.79-3.28-4.57.47,14.67,8.26,29.36,5.5,45.46a1.67,1.67,0,0,1-.92,1c-1.62-1.76-4-3.23-4.73-5.31-2.13-6.19-5.65-8.9-11.88-6.27-.31-.89-.69-1.44-.55-1.67,1.7-2.79,5.83-5.6,3.76-8.69-2.5-3.75-6.34-.36-9.6.72a18.81,18.81,0,0,1-5.62.62c-1.41,0-3.22-.35-3-2.2s1.81-2,3.28-1.33a4.83,4.83,0,0,0,4.78-.34c1.61-.95,3.9-1.53,3.12-4.1-.58-1.9-2.27-2.08-4.13-1.9-5.55.51-6-1.55-2.45-5.41a5.2,5.2,0,0,0,1.47-4.71c-1.82-8,6.12-10.85,8.78-16.52,1.85-3.94,2.27,4.23,5.74,2.41-2.78-8.13,3.61-5.28,7.84-5.57-2.54-5-4.55-9.17-9.73-3.18-1.4,1.62-3.22,3.09-5.61,2.39a12.6,12.6,0,0,1-3-1.88c7.12-9.63-7.87-6.7-5.93-14.36,1-2.19,7.61,8.45,8.38-2,.51-7-3.88-2.39-6.06-4,2.83-2.91,2.1-4.75-.46-8.08-2.11-2.76-7.14-8.12-.74-12.65.55-.38,1.35-1.4,1.21-1.67-3.92-7.44,2.59-12.71,4.27-18.75,2.33-8.38,2.72-16.74,4-25.07.92-5.8,6.18-11,7.23-17.73a19.84,19.84,0,0,0-.16-8.48c6.15-2.6,5-7.5,3-11.93-1.42-3.23-2.26-6-.72-9.3C944.36,474,944.43,480.76,949.54,478.42Z"
            fill="#503f30" />
        <path
            d="M833.33,702.49c-4.25-2.13-8.53-1-12.38.7-7.45,3.38-7.59,3.49-9.13-5.1,5.42,0,10.93.3,14.7-7-7.72,5.43-14.1,5.82-19.82-.74-.85-1-.9-1.47-2.3,0-4.81,5.1-7.68,4.65-11.67-1-1-1.45-2.74-1.06-3.78-.52a17.44,17.44,0,0,1-5.26,2c-3,.49-6.14,1-7.63-2-1.71-3.46,2.38-4.16,4-5.73,3.64-3.54,8.73-5.41,9.71-11.68.34-2.2,3.72-1.45,5.37.18,4,4,8.47,4.62,13.76,3.11,3.51-1,7.14-1.87,10.42,1.8,2,2.2,5.49.73,8.31,1,10.47,10.67,25.38,6.65,37.31,12.53-4.06-3-7.13-7.6-13.41-5.57-3,1-5.06-2.76-5.26-6.42-.13-2.42,1.22-5.72-2.84-6.39h0c.21-2-.66-4.31,1.44-5.86,3.63-1.54,6.56,2,10.06,1.47,2.13-.11,3.41,1.54,5,2.51,2.06,1.24,4.08,1.91,4.93-1.39,1.28-5,3.51-3.3,6-1s5.42,4.09,8.89,4.18c3,.07,4.74,1.62,6.47,3.84,5,6.41,10.62,6.72,16.25,1,1.43-1.44,2.14-4.24,5-2.7,1.72.93,3.26,2.31,3.23,4.48-.05,2.78-2.3,3.21-4.38,4-1.91.72-4.84,1.25-4.65,3.8.2,2.71,3,1.56,4.73,1.71a6.27,6.27,0,0,1,5.53,4,2.5,2.5,0,0,1-1.61,3.52c-3,1.06-6.64,4.41-9.16,1.62-3.33-3.69-5.84-2.79-9.21-1-4.18,2.22-4.83-2.66-7.57-4.36-1.86,5.12,1.53,7,4.8,7.56,5.57,1,6.74,4.61,5.59,8.95-1.41,5.29-5.48,5.31-9.78,3.35-.43-.2-1-.12-1.38-.38-6-4.12-11.63-7.77-19.88-6.21-4.89.92-7.74-5.77-12.58-9.25.71,3.8,1.28,7.1-3.09,8-8,1.71-12.42-3.07-17.33-8.62Q832,698.74,833.33,702.49Z"
            fill="#352e27" />
        <path
            d="M866.39,709.8c3.92,8.55,1,15.6-4.94,21.72-4.6,4.74-11.26,2.63-16.53-4.94a15.2,15.2,0,0,1,1.41-19.67C853.9,701.52,859.89,707.52,866.39,709.8Z"
            fill="#2a241e" />
        <path
            d="M886.46,715.7c2.43,5.33,1.61,10.38-1.67,15-2.25,3.16-5.93,4.75-9.23,3.06s-2.12-5.35-1-8.38c1.6-4.2,3.16-8.41,4.73-12.62Z"
            fill="#2a241e" />
        <path
            d="M926.24,710c-4-2.43-11.6.61-12.71-4.85-.88-4.32,5.47-5.35,9.93-5.66,6-.42,7.51,4.16,8.16,8.27C932.13,711,928.4,709.16,926.24,710Z"
            fill="#352e27" />
        <path
            d="M843.43,671.69c0,2.18,0,4.35,0,6.52s-.95,3.7-3.34,3.68c-1.84,0-3.8.45-5.15-1.53-1.52-2.23-.07-3.51,1.26-4.94,2-2.14,4-4.21,7.25-3.72Z"
            fill="#352e27" />
        <path
            d="M829.08,664.37c2.77,1.28,5.27,3.33,8.59,3a23.53,23.53,0,0,1-3.24,3.69c-2.87,2.17-6.4,3.25-8.74-.13S826.89,666,829.08,664.37Z"
            fill="#352e27" />
        <path
            d="M942.79,706.86c-2.85,6.51-.12,13.88-3,20.38l-1.83-8.7a4.46,4.46,0,0,1,.24-5.84c2.62-3.27.49-7.75,2.48-11.57C943.4,702.65,942.3,705.05,942.79,706.86Z"
            fill="#352e27" />
        <path
            d="M938.21,712.7l-.24,5.84a9.89,9.89,0,0,0-2.05.49c-1.8.85-4,1.71-5-.37-1.38-2.66,1.8-2.69,3-3.85A6,6,0,0,1,938.21,712.7Z"
            fill="#352e27" />
        <path
            d="M854.93,667.31c-3.74,2.26-6.64-1.51-10.06-1.47v-6.23C847.55,665.07,851.75,665.3,854.93,667.31Z"
            fill="#4d4238" />
        <path
            d="M868.29,654.94c-2.66,2.52-4.18,4.3-6.45,2.19-.4-.38-.67-1.6-.42-1.88C863.19,653.25,865.13,654.32,868.29,654.94Z"
            fill="#352e27" />
        <path
            d="M940.06,696.56c-.48,1.59-1.09,2.89-2.89,2.75-1.29-.1-2.42-.79-2.31-2.15s1.42-1.88,2.65-1.92C938.55,695.2,940,694.81,940.06,696.56Z"
            fill="#352e27" />
        <path
            d="M855.18,660.61c-2.59,1-4.54.82-5.5-1.61-.39-1,.2-2.22,1.06-2.2C853.07,656.86,852.92,660.12,855.18,660.61Z"
            fill="#4d4238" />
        <path
            d="M421.11,596.17l4.38-2.2c.27-1.62-.84-1.4-1.31-1.29-7.12,1.72-14,.91-20.88-1.46-1.52-.52-3.86,0-3.89-2.22s2.17-2.17,3.82-2.21c9.48-.18,19,.6,28.28-2.73,4.37-1.56,8.27,1.38,11.21,4.92a9.86,9.86,0,0,1,2,8.16c-.53,2.48-3.78.76-5.68,1.41C432.79,600.65,426.85,600.38,421.11,596.17Z"
            fill="#393129" />
        <path
            d="M470.63,591.32c-4.48-1.86-9.15-3.64-13.67-5.76-1.39-.66-2.86-2.09-1.92-4.14a3,3,0,0,1,3.57-1.83c4,1.13,7.81,1.73,11.62-.78,1.61-1,2.79.36,3.18,1.82.79,3,1.84,6.07,1.75,9.08C475.1,591.76,472.43,590.79,470.63,591.32Z"
            fill="#4a4036" />
        <path
            d="M464.51,639.13c-7.39.69-14.68,2.58-22.16,1.85-4.44-.43-8.9-.56-13.35-.9-1.19-.09-2.51-.6-2.65-2s1.29-2,2.35-2.32c4.06-1.27,8.14-3.25,12.25-3.38,8.26-.27,16.05-.79,22.65-6.87,1.88-1.73,5-1.15,7.25.89,3.59,3.28.52,6.91.16,10.19S467.12,639.42,464.51,639.13Z"
            fill="#302921" />
        <path
            d="M946.68,727.28c4.14-8.59,2.52-18.15,4.3-27.16.84-4.22.94-8.63,2.24-13.25,4.49,10.6,1.39,20.89-.83,30.6-3.59,15.68-2.26,31.4-2.76,47.11,0,.72,1,1.46,1.46,2.19.83,2.78-2.36,1.78-2.93,3.24-3.4-.68-2.89-3.62-2.71-5.77.79-9.59-1.18-19.09-.69-28.63C944.9,732.77,945,729.8,946.68,727.28Z"
            fill="#352e27" />
        <path
            d="M902.29,845.93c1.77-8.28-1.39-15.22-5.68-21.86-1.43-2.69-2.71-5.47-4.35-8-1.43-2.25,0-3,1.46-3.88,6.43,8.24,9.87,18.07,13.88,27.56.86,2,1.36,5.24.38,6.87C906.7,848.74,904.18,846.81,902.29,845.93Z"
            fill="#4b453f" />
        <path
            d="M855,739.1c-.16.18-.38.54-.47.51-8-2.71-16.38-.47-24.45-2.09-1.71-.34-3.58-.87-3.21-3,.3-1.74,2.25-1.22,3.6-1.35,7.75,2.88,9.83,2.26,10.69-3.64Z"
            fill="#463e37" />
        <path
            d="M949.56,846.24c.3,7.31-1.85,14.57-.49,22a303,303,0,0,0-6.51-38.38c1.21,1.92,2.42,3.84,4,6.43.16-3.09.28-5.55.5-10C949.58,834.17,946.52,840.55,949.56,846.24Z"
            fill="#2a251f" />
        <path
            d="M942.51,825.46l-1.23-1.55q.63-13.26,1.27-26.52C945.24,806.81,945.82,816.17,942.51,825.46Z"
            fill="#352e27" />
        <path
            d="M949.45,945.81c-1.76-1.6,0-4.73-2.53-6-.89-.89-1.61-.46-2.41.23-7.62,6.49-12.35,6-16.76-2.62-2.45-4.77-5.63-5.36-9.66-3.4-6.87,3.34-10.74-.3-14-5.71-2.29-3.85-2.92-8.59-6.1-12-.78-1.85.74-2.58,1.74-3.43,2.1-1.8,2.44-3.59,0-5.18-5.9-3.8-6.17-11.16-10-16.26-.57-.75-.93-2.06-.31-2.72,3.81-4.08.22-6.56-2-9a17.48,17.48,0,0,1-3.68-5.94c-1.28-4.46,1.59-7.84,2.93-11.61,3.64,7.23,8.35,13.84,11.18,21.56.7,1.92.85,2.84-.14,4.34-2.35,3.53.75,6.39,1.24,9.58.66,4.25,2.41,5.27,6.76,3.87,1.65-.54,6.3,1.56,3.32,6.1s-1.77,7.15,3.6,7c4.65-.17,7.67.64,9.61,5.53,1.67,4.23,6.36,5.1,10.22,5.27s5.82.13,1.91,3.74c-1.86,1.72-.26,2.47.65,3.39s2.48,1.2,3-.14c2.21-5.9,6.93-2,10.37-2.95,1.55,4,1.84-.11,2.71-.45a3.24,3.24,0,0,1,3.11,0,5,5,0,0,1,1.17,1.91,17.19,17.19,0,0,1-.08,8.75C953.71,942.12,951.3,943.69,949.45,945.81Z"
            fill="#635e58" />
        <path
            d="M883.71,873.83c2.1,1.91,5,3.43,6.08,5.82,1.17,2.68,8.35,5.45,1,9.27a1.34,1.34,0,0,0-.17,1.2c4.79,3.9,3.8,11.09,8.65,15.16,6.39,5.37,6.1,6.2-1.27,11-5.85-.51-13.18-9.93-12.87-17.38.23-5.41,1.31-10.51-2.52-15.45C880.46,880.69,882.87,877,883.71,873.83Z"
            fill="#817971" />
        <path d="M943.9,899c-3-4.81-3.23-10.1-2.5-16.79A28.92,28.92,0,0,1,943.9,899Z"
            fill="#2a251f" />
        <path
            d="M954.2,877.79c2.14-13.3,3.74-26.58,1.74-40.12-1.09-7.38,2.31-14.28,3.49-21.42.83-5,.11-10.2.08-15.31-.52-1.7-.86-3.5,1.65-3.5a3.34,3.34,0,0,1,3.53,3.58c.07,3.78,0,7.56.88,11.27.68,4.26-2.08,8.38-.66,13.18,3.74-2.05,2.62-6.48,5-8.77,1.66,1.84,2,4.44.92,6.1-4.72,7-2.61,14.71-1.49,21.56,2.23,13.62-.89,26.51-2.64,39.63-.56,4.19-1.05,8.06,1.74,11.73,2.31,3,.7,6.56.65,9.88a39.83,39.83,0,0,0,.13,7.87c.12,1.5-.33,3-2.09,3.18s-2.11-1.41-3-2.5c-1.49-1.83,2.26-5.69-2.41-6.08a2.9,2.9,0,0,1-1.62-1.53c-1.06-9.07-3.07-18.1-1-27.29,3.85-18.74,3-37.68,2.21-56.62,0-1-1.16.07-.25-.24.34-.12.54.05.51.5a113.59,113.59,0,0,0,.86,23c1,7.39-1.88,14.82-1.54,22.35-1.39,2.58-.61,5.65-1.67,8.21C958.31,878.58,957,882,954.2,877.79Z"
            fill="#2a251f" />
        <path
            d="M991.57,676.83c-.83,4.74-1.38,9.55-2.56,14.19-2.74,10.79-1.68,21.1,1.86,31.59,1.73,5.12,1.54,10.91,2.22,16.4,2.08,4.82-.18,9.5-.55,14.22-.25,3.14-1.07,6.2,0,9.31.53.92.94,1.91,1.47,2.83a7.6,7.6,0,0,1-1.18,6.11c-1.91-.92-1.59-3.31-2.94-4.61l-2.27-4.36c-.72,4-1.4,7.83-2.08,11.64-5.46-2.1-3.42-6.88-3-10.46a180.44,180.44,0,0,1,3.26-20.75c1.08-4.8,1.27-9.59-1.42-14-4.94-12.89-2.63-26.11-1.74-39.28.45-6.44,3.32-12.34,4.06-18.72.2-1.68.65-3.3,2.36-4.13C994.77,668.86,991.26,673.34,991.57,676.83Z"
            fill="#503f30" />
        <path
            d="M989.93,766.87c2,.84,2.72,2.57,2.94,4.61,1.39,10.44-4.57,20.49-1.57,31a18.82,18.82,0,0,0,1.54,3.12c1.06,0,1.31.69,1.21,1.62-2.15,1.76-1.35,3.44.14,5.09q-1.34,8.76-2.68,17.53c-2.81.72,0,7-5.15,5.41-1.82-3.32-1.33-6.84-.9-10.36s5.65-5.42,3.19-9.91c-1.57-7.54-3-14.84-2.95-22.88C985.82,783.19,990.42,775.54,989.93,766.87Z"
            fill="#352e27" />
        <path
            d="M995.74,848.88c-2.88,8.91-.17,17.82.56,26.6.53,6.32-.84,12.66.67,18.88a10.55,10.55,0,0,1,0,8.68c-2.51.61-3.16-1.4-4.09-3A196.27,196.27,0,0,1,991,854.6c.15-2.29-.15-5.05,3-5.87A1.18,1.18,0,0,1,995.74,848.88Z"
            fill="#292521" />
        <path
            d="M986.94,835.7c2.51-1.15.41-6.05,4.57-5.86,1.08,7.74-2.3,14.8-3.56,22.15s-2.42,14.62-1,22.11a13.08,13.08,0,0,1-.65,6.43c-3.34-8.68-1.64-18-3.3-26.9.58-4,1.64-7.86,1.13-12C983.84,839.25,984.26,836.82,986.94,835.7Z"
            fill="#292521" />
        <path
            d="M974.56,908.08c-3.38-7.89-5.89-15.34-2.54-24.54,2.7-7.43,2.3-16,4.25-24.06v26.83a14.16,14.16,0,0,0-1.18,10.57C976.33,900.9,975.74,904.4,974.56,908.08Z"
            fill="#2a251f" />
        <path
            d="M968.22,929.38c-2.78.08.55,6.13-4.11,4.38-3.6-4.48-1.55-9.78-2-14.7-.28-3.12,0-6.3-.3-9.44a3.8,3.8,0,0,1,.94-2.36c.93,0,1.91-3.12,2.71-.13.71,2.63-.63,5.61,1.64,9.18.64-4.21-1.16-7.54,0-10.7,1,3.54,2.9,6.81,2.81,10.64Q969.08,922.82,968.22,929.38Z"
            fill="#453f3a" />
        <path
            d="M991.61,937.08c-3.27-5.94-1.1-13.14-4.24-19.12-.13-1.85-.27-3.7-.4-5.55-.42-1.38-.78-2.74,1.16-3.26.53-1.81,1.8,4.89,2.15-.21.08-1.3.56-2.89,2.57-2.36q0,15.23,0,30.45l-.63.17Z"
            fill="#453f3a" />
        <path
            d="M979.85,832.06c-.51,6.68-1.44,13.37-1.39,20.05,0,6-2.84.83-4.12,1.48,1.19-7.65.5-15.54,2.8-23.05a2,2,0,0,1,2.69-.3A1.52,1.52,0,0,1,979.85,832.06Z"
            fill="#2a251f" />
        <path
            d="M984.28,898.91c-3.37-6-5.88-12.14-3.38-20.95,2,7.37,3.55,13.31,5.14,19.25C986.36,898.75,985.69,899.24,984.28,898.91Z"
            fill="#2a251f" />
        <path
            d="M982.33,811.4h-2.46a44.55,44.55,0,0,1-.26-16.32l-.13.16c3.91,3.55,3,8.85,4.62,13.21C984.65,810.15,983.82,811,982.33,811.4Z"
            fill="#352e27" />
        <path
            d="M989,947.11l-.93,4.33c-3.25-3.11-1.55-7-2.49-10.24a8.5,8.5,0,0,1,.46-2.05c.94-1.78,1.27-.38,1.45.41C988,942.06,988.45,944.59,989,947.11Z"
            fill="#1d1814" />
        <path
            d="M980.26,898.22c3.1,2.56,3,5.81,2.87,9.86C978.42,905.27,980.64,901.38,980.26,898.22Z"
            fill="#2a251f" />
        <path
            d="M980.3,824.07c-3.77-.6-4-2.09-1-8.34,2.31,1.57,1,3.92,1.41,5.76C980.57,822.35,980.44,823.21,980.3,824.07Z"
            fill="#352e27" />
        <path
            d="M944.17,436.79c.32.35.59.95,1,1,3.64.78,8.76,6.83,8.38,12.34-.59,8.47,2.24,16,4.31,23.75a13.88,13.88,0,0,1-.05,8.49c-8.86-11.46-5.8-26.78-13.22-38.43-1.18,2.95,1,5.4.5,8.06-10.23-.09-6.93-8-8.34-14.9C940.08,439.45,943.47,443.91,944.17,436.79Z"
            fill="#3c2f23" />
        <path
            d="M951.06,427.34v6.6c-4.28-3.41-4.29-3.41-6.44-15.53-.33-1.83-.07-4.08-2.79-4-.34,0-.61,1.61-.92,2.46-2.79-2.69.39-3.94,1.21-5.89a52.32,52.32,0,0,0,2-7.55c2.54.13,2.69,2.3,3.34,4C950.53,413.78,947.21,421.24,951.06,427.34Z"
            fill="#3c2f23" />
        <path
            d="M947,401.8c-.47,2.07.43,4.44-1.3,6.24l-1.62-4.56c-.17-5.18-3.14-9.58-3.68-14.76A29,29,0,0,1,947,401.8Z"
            fill="#3c2f23" />
        <path
            d="M942.62,370.22c.71-1.13,1.41-2.26,2.39-3.84.36,2.1.62,3.66.88,5.22-.21,3.36.15,6.63-.16,11.4C941.94,378.37,943.12,374.11,942.62,370.22Z"
            fill="#3c2f23" />
        <path
            d="M961.13,583.85c3.82,2.08,4.77.4,4.17-3.32a.79.79,0,0,1,.18-1.08,1.6,1.6,0,0,1,2.25.62c2.85,9.54.58,19.14.34,28.71-4.26,0-2.27,2.91-2.21,4.9s.68,4.65-.54,5.66c-4.26,3.49-1.78,7.25-1.1,11,.38,7.56,1.26,15.14-.87,22.58a18.52,18.52,0,0,1-1.76,4.76c-.8,1.52-1.69,3.19-3.73,2.66s-2.27-2.41-2.11-4.13c1.67-18.38-4.06-35.44-8.93-52.65-.34-1.18-.85-2.25-.07-3.42-1.8-3.32-1.59-4,1.21-3.12,2.2.7,1.88-1.4,3-1.46,3.32,6.4,4.28,13.58,6.44,20.36.36-.18-.22,5.16,1,.13.55-2.43,2.38-4.4,2.24-7C961.5,600.64,959.57,592.21,961.13,583.85Z"
            fill="#503f30" />
        <path
            d="M965.32,542.52c1.1,1.46-1.65,8,4.15,3.25V553c-4-2.85-4-2.85-6.43,9.32-7.18-18.44-6.89-35.61-2.57-53,1.4,14.25-.49,28.71,2.13,43.93C965.55,549.29,963.67,545.52,965.32,542.52Z"
            fill="#503f30" />
        <path
            d="M972.16,579.48l-1.54,0V561.16c3.76,5.18,4.65,9.06,4.4,13.49-.13,2.39-1.18,5.62,2.75,6.37,1,2.68,1.89,5.38,1.21,8.32-1.67,3.87-3,1.72-4.2-.3C973.06,586.11,973.8,582.45,972.16,579.48Z"
            fill="#503f30" />
        <path d="M957.24,511.53a55.3,55.3,0,0,1-2.3-27.17C955.58,493,962,501,957.24,511.53Z"
            fill="#503f30" />
        <path
            d="M992.93,610.67v19.68c-2.15-6.18-1.78-11.39-4.52-15.48C989.5,613,986.47,606.52,992.93,610.67Z"
            fill="#503f30" />
        <path
            d="M954.23,406.61c.32,3,.73,6,.92,9,.14,2.14-1.07,2.24-2.62,1.39l-1.08-6.8c1.61-1.26-.39-4.45,2.56-5A2.77,2.77,0,0,0,954.23,406.61Z"
            fill="#3c2f23" />
        <path
            d="M972.86,808.55l-1.48-1.84c-2.62-6.78.74-13.2,1.23-19.78.26-3.35,1.77-6.51,2.62-9.79,4.35-2.44,4,1.36,4.81,3.73C977.29,790,974.05,799,972.86,808.55Z"
            fill="#352e27" />
        <path
            d="M991.57,676.83c-1.4-3.05,2.26-7.88-3.21-9.51-3.68.08-1.85-3.54-3.26-5a2.91,2.91,0,0,1-1.11-1c5-12.22-1.68-24.08-1.07-36.16l3.74-.52c1,6.41,3.93,12.44,3.54,19.12,1.5,5.66,2.33,11.47-.28,16.88-1.9,3.94,3.82,3.63,2.91,7C992,670.61,993.44,674,991.57,676.83Z"
            fill="#503f30" />
        <path
            d="M976.44,626.05c-.17.43-.33.87-.48,1.31-3.51-.7-2.81-3.56-3-6v-25C976.16,606.15,977.65,616,976.44,626.05Z"
            fill="#503f30" />
        <path
            d="M970.67,636.47l3-5.63c-.51,9.07,1.42,18.15,0,27.22-3.16,0-3-2.81-3.83-4.76C969.78,647.68,969.17,642,970.67,636.47Z"
            fill="#503f30" />
        <path
            d="M967.68,661.59c-.41,5.82,1,11.83-1.69,17.41-4.25-2.89-2.51-7-1.93-10.74a77.15,77.15,0,0,1,2.19-8.25C967.47,659.84,968.1,660.22,967.68,661.59Z"
            fill="#503f30" />
        <path
            d="M978.85,661.62a6.17,6.17,0,0,1-1.13.1c-.42.67-.84.67-1.26,0,2.57-6.62,2.94-13.53,2.59-20.54,4,4,5,8.5,2.27,13.66C980.2,657,978.86,659.05,978.85,661.62Z"
            fill="#503f30" />
        <path
            d="M972.76,683.45c4,5.89,2.44,11.76,0,17.62-1.53-.1-2.44,1.78-4.08,1.35.39-2.41.79-4.81,1.19-7.22,2.15.55,2.85-.25,2.74-2.53C972.42,689.61,972.68,686.53,972.76,683.45Z"
            fill="#503f30" />
        <path
            d="M984,661.39l1.61.06c.84,4.25,1.9,8.5,1.1,12.86-.55,3-1.42,3.52-4.25,3.17l0-7.24C982.8,667.26,981.63,664,984,661.39Z"
            fill="#433a33" />
        <path
            d="M999.9,677.57c-5.43,13.85-4.09,28.21-2.7,42.49a33.68,33.68,0,0,1-.21,7.05c-1.49.67-2.47.92-2.87-1.4-.9-5.24-2.06-10.34-1.74-15.8.85-14.42,1.22-28.87,4.88-42.94-.17-.77.12-1.08.88-1,2.2.58,1.1,2.52,1.51,3.84C998.58,672.46,1000.45,675,999.9,677.57Z"
            fill="#503f30" />
        <path d="M945,335.86c.65,7,1.19,12.06-1.86,18.38C941.73,347.44,942.41,342.53,945,335.86Z"
            fill="#4e4033" />
        <path
            d="M955.61,955.7c3.82,7.4-.78,14.68-.28,22h-1.24c-.94-.15-1-1-1.39-1.69a76.38,76.38,0,0,0-3.25-30.23c1.11-1.81-1.24-6.94,4.22-4.57C957.43,945.63,956.09,950.72,955.61,955.7Z"
            fill="#231e1a" />
        <path
            d="M968.61,970.87l3.88-1.44c4.88-.7,1.21,5.9-3.07,13-.43-1-.85-2.09-1.27-3.14C968.3,976.49,968.46,973.68,968.61,970.87Z"
            fill="#231e1a" />
        <path
            d="M659.68,724.49c-2.07-.37-4.38.71-5.35-1.7-.78-1.92.79-3.1,1.87-4.39,6.47-7.76,15.11-11.74,24.46-14.3,1.82-.5,4.56-1.21,5.75,1.37,1,2.22-1.18,3.39-2.24,4.93C678.14,719.21,669.22,722.64,659.68,724.49Z"
            fill="#2a241e" />
        <path
            d="M964.2,702.43c-2.3,4.61-1.19,9.63-1.7,14.46-.17,7.78-3.16,15-4.2,22.65-.39,2.92-2,5.51-5.66,5.22,1.63-13.24,3-26.53,5-39.71,1-6.43,1-12.38-1.51-18.52a83.51,83.51,0,0,1-6.25-33.91c.18-8,.13-16.85-3.09-24.82a2.66,2.66,0,0,1,2.58-1.48c5.77,8.07,7.06,17.69,6.24,26.91-.88,9.89,2.6,18.46,4.5,27.54C961.64,688,966.49,694.49,964.2,702.43Z"
            fill="#503f30" />
        <path d="M941.2,569.79c.48,5.25,4.93,9.92,2.31,16.5A17.91,17.91,0,0,1,941.2,569.79Z"
            fill="#503f30" />
        <path
            d="M933,638.47c1.93,1.57,5.1,2.21,5.5,5.58.16,1.3-1.28,1.42-2,1.12-2.56-1-5-2.45-5.79-5.32C930.41,639,931.64,638.4,933,638.47Z"
            fill="#41362b" />
        <path d="M946.85,499.33c-4.52-4.68-3.47-10-1.89-15.33Z" fill="#503f30" />
        <path
            d="M949.21,586.79c.21.87.41,1.75.62,2.62-.36,1.67-.76,3.56-3,2.73-1.93-.72-1.53-2.77-1.34-4.3C945.85,584.76,948,587.18,949.21,586.79Z"
            fill="#41362b" />
        <path
            d="M932.86,578.91c-1.66-.24-1.77-1.48-1.74-2.68,0-1.49.41-3.09,2.17-3.09,1.34,0,1.86,1.35,1.86,2.63A3.09,3.09,0,0,1,932.86,578.91Z"
            fill="#41362b" />
        <path
            d="M927.07,571.86a2.59,2.59,0,0,1-2.53-2.07c-.23-1.55,1-1.93,2.25-1.92s2.38.49,2.47,1.92S928.51,572,927.07,571.86Z"
            fill="#41362b" />
        <path
            d="M968.85,731.85l1.14-5.44c2.91,13.24-4.57,23.66-2.43,34.77L966,783.23c-.42.66-.81.6-1.17-.06a7.8,7.8,0,0,0-2.89,4.33c-2.83-2.51-.9-5.84-1.48-8.74-.12-3.5,2.29-6.61,1.52-10.21C959.52,755.39,961.12,743,968.85,731.85Z"
            fill="#352e27" />
        <path
            d="M952.35,749.33c3.66,1.29.77,5.43,3.07,7.31-.43,1.25.29,3.36-1.58,3.49-1.49.11-1.33-1.72-1.38-2.83C952.35,754.65,952.38,752,952.35,749.33Z"
            fill="#352e27" />
        <path
            d="M951.3,884.36c1.42.32,5.08-5.18,4,1.38-1.14,7.21,4.39,14.36-.06,21.48-2.74-2.23.07-6.32-2.74-8.53A50.77,50.77,0,0,1,951.3,884.36Z"
            fill="#2a251f" />
        <path d="M951.54,929.25c.14-6-1.51-12,.88-17.89,2.24,5.88,1.31,11.93,1.29,17.92Z"
            fill="#453f3a" />
        <path
            d="M959.71,948.59c-2-13.88-4-27.75,1.88-41.26a.62.62,0,1,1,1,.66c-.94,8.68-1.35,17.46-3,26C958.57,939.05,963.68,943.75,959.71,948.59Z"
            fill="#453f3a" />
        <path
            d="M973.25,762c-.3-9.67,3.27-18.51,5.73-27.58,2.69,6.05.42,11.89-1.23,17.53s-1.32,11.93-4.36,17.25c-2.24.06-2.3-1.23-1.28-2.6A5.78,5.78,0,0,0,973.25,762Z"
            fill="#352e27" />
        <path
            d="M959.59,616.33c-3-4.16-2.43-9.22-3.07-13.87-1.74-12.69-7.87-24.5-7.11-37.65l.49-3.48c1.16,2.67,1.86,5.44,3.17,8,1.53,3-.36,6.79,1.14,9.2,5.86,9.37,3.37,20.11,5.53,30,.4,1.84,1,2.69,2.71,1.3C963.21,612.79,960.37,614.09,959.59,616.33Z"
            fill="#503f30" />
        <path
            d="M968.63,702.42c1.55.15.77-7.06,4.08-1.35-.83,3.76-.64,8-4.53,11.1C966.61,708.47,967.73,705.45,968.63,702.42Z"
            fill="#503f30" />
        <path
            d="M974.68,727.45c-1.14-5.84-.29-11,.26-16.13C976.26,716.44,980.32,721.53,974.68,727.45Z"
            fill="#503f30" />
        <path
            d="M980,707.78c-2.39-5.43-2.92-10.76,1.18-17.86C980.68,697.24,980.33,702.51,980,707.78Z"
            fill="#463e36" />
        <path
            d="M974.44,667a5.31,5.31,0,0,0,1.26,0c-.15,4.62,1.23,9.51-2.19,14C971.46,675.9,973,671.47,974.44,667Z"
            fill="#503f30" />
    </g>
    <g id="frame">
        <rect width="1000" height="1000" fill="none" />
    </g>
</svg>