<!-- Copyright (c) 2023 Jan Stehno -->
<svg xmlns="http://www.w3.org/2000/svg" viewBox="0 0 1000 1000">
    <title>waterbuffalo</title>
    <g id="waterbuffalo">
        <path
            d="M742.52,672.39c6.78-6.06,14.58-9.18,22.51-12.45,3-1.26,7.14-3.25,8.8.58,1.53,3.52-2.8,5-5.33,6.57-.49.31-.79.41-.46,1.08,3.19-2.43,7-3.38,10.87-4.28-1-2.52-2.62-4.35-1.56-6.88.61-1.45.1-3.32-1.44-3-6.58,1.16-14.12-3.63-19.78,3.56-1.84,2.34-4.63,2.37-7.34,1.6a1.86,1.86,0,0,1-1-1.48c1-2.19,2.67-2.66,4.77-1.94.15-.56-.4-.7-.56-1-1.14-2.21-3-2.8-5.3-2.66-2.08.14-4.27.57-6.14-.93-.43-3.12,2-3.07,3.8-3.54,2.33-.63,4.69-1.09,7-1.74,12.84-3.54,25.18-2.3,36.81,4.63,1.51.91,3.85,2.43,2.46,4-2.59,2.94-2.07,4.53.86,6.24,2.26,1.32,3.94,3.85,6.77,3.91,1.31,0,1.37-1.56,1.82-2.56,1.45-2.35,2-5,2.89-7.65.61-1.79,2.19-3.83,3.9-2,3.63,3.83,10.42,4.81,10.1,12.41-.15,3.78,1.41,5.6,5.35,2.55,4.47-3.44,7.16-1.82,7.56,4.07.3,4.38-1.36,8.31-2.91,12.26a45,45,0,0,0,3-9c.32-1.44,1.06-2.61,2.66-2.57s2.17,1.37,2.57,2.72c.84,2.81.87,5.82,1.88,9.18,3.75-3.59,8.21-4.6,12.77-5.37a3.44,3.44,0,0,1,4,1.67c.86,1.55.79,3.3-.72,4.3-3.95,2.61-2.3,5.67-.4,8.17,3,3.92,3.58,7.95,3,12.83-.36,3.24-2.52,7.29-1.27,9.38,2.54,4.24,1.54,11.21,8.16,12.64.75.16.25,1.77.74,2.23,1.87-3.82,2-8.42,4.81-11.86,1.28-1.55,2.56-3.41,4.92-2.75,1.93.55,2.7,2.32,3.11,4.14,1,4.45,2,8.94,1.59,13.56-.15,1.68-.54,3.29,1.25,4.16,4.52,2.2,5.1,6.49,5.65,10.91.2,1.68.13,3.8,2.62,4.2,1.58-2.44-.52-4.3-.89-6.38s-.09-5.39,2-4.77c6.6,2,11.52-1.06,18-1.6.45,0,2.39,2.18,2.7,1.79a3.82,3.82,0,0,0,.54-1.93c.31-2.77-1-6.7,3.21-7.1,3.67-.35,3.51,3.43,4.27,5.9.9,2.88,1.65,5.23,5.35,6a7.65,7.65,0,0,1,4.35,2.5l2.14,7.25a37,37,0,0,0,1.39,8.23L932,772.3C929.78,775,915,784.7,917.45,790s16.83,5.88,45.19-27.64c2,3.43.41,6.12-1.67,8.71-1.83,2.3-4.26,4.16-5.58,6.82-7.87,15.86-20.78,26.54-34.37,36.63-4.89,3.63-4.09,12.86-9.28,7.32,1.53,2.26-2.59-2.83-5.25-1.21-4.35,2.67-8.07,6.65-13.31,7.55-11,1.88-22,2.77-32.86-.62l-2.65-1c-3.38.44-5.51-2.58-8.46-3.3-6.28-3-11.54-7.41-16.68-12l-28.64-25.88c-6-3.63-12.54-6.73-15.24-14.2a15.44,15.44,0,0,0-.16-8.12c-1.08-3.85-.59-7.45,3.07-9.58s3-4.62,1.48-8c-5.57-11.95-4.85-15,4.76-23.66.83-.75,1.69-1.48,2.58-2.16,3.94-3,5.93-7.06,6.41-12.15-2.88-.17-4.88,1.6-7.24,2.08s-4.87-.08-7.26.32c-6.24,1-9.94,6-7,10,4.71,6.37,3.58,12.12.2,18.45-3.14,5.86-6.34,7.24-12.18,4.44a12.28,12.28,0,0,1-5.51-5.7,19.5,19.5,0,0,0-8.28-8.62c-10.71-5.51-12.64-9-11.73-21.36,3.26-9.75,11.68-13.68,19.29-18.57,1.65-1.06,4.92-1.59,3.47-4.7-1.26-2.73-3.73-3.65-6.67-2-7.7,4.29-16,7.64-20.95,15.88-6.06,2.45-10.25-.71-12.45-9.41C734.49,683,737.31,677,742.52,672.39Z"
            fill="#5e5148" />
        <path
            d="M935.52,999.29c-.3-3.64-.8-7.28-.87-10.93-.18-8.58-1.77-17-.32-25.81,1-6.22-.69-13.1-3.92-19.65-4.62-9.38-4.75-20.37-5.19-30.9-.17-4-.38-7.73-2.27-11.22a11.2,11.2,0,0,1-5.94-8.62,18.87,18.87,0,0,0-6-11.22c-4.64-4.47-7.71-10-10.11-16-2.77-6.84-7.17-12.63-10.78-18.91-2.5-4.34-7.21-5.76-11.72-7.23-7.53-2.45-15.66-3.61-21.47-10a61.37,61.37,0,0,0-7.13-6.65c-15.09-9.43-27.15-22.73-40.6-34.25-1.85-1.59-3.28-3.84-6.12-3.58a4,4,0,0,0-3.3,4.5c1.7,11,.37,22.44,4.64,33,2.07,5.13,6.41,8.68,8.85,13.54,1.69,3.4,3.42,6.78,2.42,11.34-2.65-1.53-3.09-4.27-4.82-5.91-4-3.82-7.55-3.31-8.75,2.17-1.15,5.24-3.24,4.07-5.77,1.77-2.72-2.47-5.37-2.84-8.43-.87-1.13.73-2.51,1.49-3.76,1.18-10.39-2.52-18.32,5.93-28,6.73-1.53.13-2.73,1.43-3.65,2.8-2.69,4-2.57,8-.47,12.3,1.6,3.26,3.28,6.49,4.8,9.8,1.29,2.83,2,5.87,0,8.48-5.63,7.3-6.52,14.87-1.56,22.75,5.21,8.28,12.65,14.64,22.11,14.32,8.62-.3,16,5.38,24.57,3.45,10.81,8.82,24.36,4.45,36.41,7.74a134.24,134.24,0,0,1,18.74,6.45,260.38,260.38,0,0,0,28,10.17,9.75,9.75,0,0,0,5.88,0c2.87-.92,5-.06,7.16,2.09,2.34,2.36,5,4.94,8.58,1.87l1.75-6.26c2.5,2.54,2.26,5.58,2.66,8.23,1.57,10.35,3,20.72,4.34,31.1.27,2.07.45,4.06,2,5.56,3.12,1.87,4.53.44,4.74-2.8a46.39,46.39,0,0,0-.54-6.85c-.56-6.11-1.27-12,.4-18.31s-.07-12.75-1.55-19c-1.83-7.78-3.92-15.5-5.3-23.4q3.42,13.21,7.64,26.15c4.06,12.45,1.46,25.54,3.82,38.14.63,3.37.72,6.84,2.24,10C931,998,932.11,1001.49,935.52,999.29Z"
            fill="#1a1512" />
        <path
            d="M417.53,917.56c7.77,12.58,16.89,23.11,32.51,24.76a41.81,41.81,0,0,0,21.88-3.55c20.93-9.67,42.83-9.26,64.92-9.62,9.45-.16,18.44,3.23,27.83,2.24,13.63,4.16,27.47,7.23,41.76,6,6.24-.52,12.36-2.86,18.67-.64a19.82,19.82,0,0,0,4.61.39c3.83-2.1,7.72-3.54,11.93-1,5.58,1.44,11.18-.41,16.56-.18,6.75.28,13.34-.63,20-.6,1.52,0,3.13.77,4.53-.2,4-2.78,5.5,0,6.91,3.15,5.1,5.55,10.55,2.46,16,.69,2.35-1,5-3.87,6.33,1.17a4.65,4.65,0,0,0,2.45,2.66c6.63-2.05,12.6.5,18.61,2.85a6.7,6.7,0,0,0,3.52.32c1.56-.65,2.36-2.69,4.36-2.54a43.49,43.49,0,0,1,7.11.63c2.51.17,5,.81,7.46,1,2.51.48,5.07.58,7.55,1.23,3.52.59,7,1.66,10.49,2.11,11.12,1.23,21.7,4.72,32.22,8.42a23.32,23.32,0,0,0,8.25,1.79,26.73,26.73,0,0,0,4.89-.55c6.62-.1,13.22,1.52,19.25,3.37,6.28,1.93,12.85,2.23,19.1,4.75,5.1,2,11,2.77,16.6,4.16,3.58.89,7.55,1.37,10.85-1.33,1.86-1.52,2.74-.4,3.68,1l1.91,3.79c4.58,2.6,5.69,1.72,5.78-4.57-2.07-4.83-6.08-7.25-10.69-8.46s-9.47-2.62-14.33-2.81c-5.46-.21-9.9-1.8-13.08-6.66a6,6,0,0,0-5.73-2.91c-10.75,1.53-21.06-2.81-31.68-2.34a61.8,61.8,0,0,1-24.63-4A91.71,91.71,0,0,0,762,936.72c-3.55.06-6.55-.65-8.69-3.85a5.41,5.41,0,0,0-3.15-2.4c-11.71-2.61-22.05-9.18-33.84-11.84-9.12-2-18.61-2.82-27.25-7.68-5.83-3.29-12.7-3-19.38-.46-11.4,4.28-23.29,5-36,4.19A7.49,7.49,0,0,1,641.8,910c9.25,1.32,16.14-4,23.42-8.14,4.44-2.5,8.57-5.4,13.33-7.49,5-2.18,8.12-7.55,12.27-11.3,1.78-1.61,3.12-4.29,6.08-2.79a6.66,6.66,0,0,1,3.8,6.72c-.48,7,2.46,9.79,9.27,11.32s12.79,3.57,18.42-2.37c1-1,2.45-.74,3.77-.23,8.57,3.29,12.78-3.39,16.85-8.79s6.17-12.06,1.67-18.48c-3.78-5.39-3-9.59,1.87-13.44.55-1.84-.09-3.37-1.79-3.68-4.31-.77-7.86-3.81-12.26-4.21-4.1.65-5.5,3.44-5.26,7.38.22,3.67-.55,7.58.23,11,1.72,7.39-2.06,10.13-7.72,11.53-4.09,1-7.41,2.62-9.38,6.75-.79,1.66-2.41,2.94-4.41,2.08-1.79-.78-1.44-2.68-1.33-4.24.25-3.45-.22-6.89.08-10.34s.61-7.37-3.41-8.74-8.8-1.63-11.69,2.21c-5,6.68-12.24,11.26-16.16,19.11-2,4-7.37,4.43-11.07,6.74-3.9,2.44-8,4.77-12.08,7-4.27,2.34-8.45,4.29-13.87,2.79-4.52-1.25-8.41,3.16-12.84,4.39-2.56.7-4.76,2.22-7.53.84-4.31-2.16-6,3.05-9.32,3.69-3.58.7-4.3-6.08-8.3-4-5.59,2.88-10.77,1.1-16.08-.52a11.55,11.55,0,0,0-2.59-.58c-7.42-.55-8.64-1.76-9.15-9.55-.2-3.14.73-7.07-4.26-6.61-3.08.28-7.76,6.69-7.22,9.47.26,1.36,1.18,2.51,1.43,3.85.46,2.55,2,6.18-1.71,6.77-3.22.51-8,2.24-9.28-3.52-.9-4.08-1.84-8-4.82-11.11a9.87,9.87,0,0,0-7.45-3.38c-4.81-.16-9.34-2.63-14.54-.71-3.19,1.16-6.49,1.83-8.63,4.63-3.23,4.23-8.25,5.24-12.4,7.71-3.51,2.09-6.07-1.14-8.39-3.72-4.34-4.84-5.35-4.81-7.23,1.44-1.75,5.82-5.13,9.47-10.49,11.5a17.64,17.64,0,0,0-6.81,4.18c-9.52,10-20.91,7.28-32.21,5.15-7-2.64-13.68-6.15-20.74-8.66-1.91-.68-3.85-1.42-5.45.54C414.59,914.35,416.87,915.8,417.53,917.56Z"
            fill="#2c2417" />
        <path
            d="M888.67,544.22c-2-3.08-2.75-6.58-3.15-10.22-.17-1.46.24-3.39-1.82-3.89s-3.27.75-4,2.59c-2.65,10.32,2.58,19.64,3.54,29.52.78,8,3.91,15.75,3.9,24-.34-9.92-4-18.64-8.91-26.92a5.38,5.38,0,0,0-1-.48c-2.25.51-1-1.26-1.17-2-.23-1.36-.22-2.82-1.85-3.27a3.76,3.76,0,0,0-4.13,1.52c-1.62,2-2,4.58-3.89,7.88.06-6-2.4-6.19-6-4.14a31.83,31.83,0,0,1-8.79,3.09c-1.52.33-3.46.39-4.25,1.72-5,8.46-15,8.19-21.81,13.56-1.35,1.08-2.87.17-4.39,0-12.09-1.45-21.88,2.52-24,17.22-1.18-6.18-6-8.43-9.13-13,3.61.08,6.29,6.7,8.74.85,1.72-4.14-1.69-6.83-5-8.43a11.62,11.62,0,0,0-10.89-.08c-6.23,3.19-11.63,7.35-14.88,13.83-1.72,3.42-6.21,4.87-6.1,9.49,1,4.28,5,6.69,6.46,10.68,5.63.39,7.37,6.68,12.05,8.56,1.45.59.9,1.77.34,2.78-1,1.76-2,3.5-1.43,5.69a3.7,3.7,0,0,0,1.07,1.53,3,3,0,0,0,1.91.09c8.72-2.72,10.21-1.72,11.27,7.58a21.46,21.46,0,0,0,2.19,7.11c.33.6,1.27,1.41,1.41,1.26,5-5.33,7.37,4.14,11.73,2.19a4.76,4.76,0,0,0,2.67-3.64,19.42,19.42,0,0,1,2.48-6.3c2-2.53,2.55-5.7,3.1-7.78-.94,2.32.29,5.08,1.89,7.78a4.09,4.09,0,0,0,2.28,1.55c4-1.19,7.47,1.43,11.25,1.86a3.7,3.7,0,0,0,2.36-1.41c-.16-5.73-.3-11.27,3.87-16.1,2.17-2.5,1-5.68-1.49-7.82-1.34-1.16-2.86-1.93-3.23-4-.43-2.51-1.52-5.74,1.32-6.59,3.32-1,2,3.12,3.13,4.69,5.22,7.31,5.38,14-1.61,20.38-2.68,2.45-1.41,6.39-2.06,9.64a3.86,3.86,0,0,0,1.74,3.47,7.64,7.64,0,0,0,7.84.32c3.36-2.43,3.25-6.25,3.6-10.08,1.58,1.75.28,3.3-.13,4.67-1,3.41-.7,7.53,1.59,9,6.2,4,3.28,8.52,1.5,12.83-2.57,6.23-.13,11.91,1.69,17.33,1.53,4.54,5.18,2.38,7.46,0,2.56-2.64,4.34-2.36,7.9-1.31,5.18,1.53,11.42,4.58,16.6-1.55,2.19-2.6,13.53.61,14.59,3.73.16.45.25,1.07,0,1.33-4.87,4.24-2.14,10.95-4.54,16-1.78-.37-1-1.43-.91-2.16.21-2.35,2-5.65-1.28-6.47-3.49-.87-5.33,2.66-5.58,5.49-.49,5.52-1,11.44,3.31,15.9,2.45,2.53,1.91,5.4,1.69,8.35-.12,1.63-.29,3.42,1.61,4,1.71.54,2.94-.65,4-1.91,1.32-1.62,2.57-3.62,2.39-5.57-.61-6.8,1.64-13.22,1.93-19.83.14-3.29.65-4.24,4-4.46s10.5.71,6.17-6.54c-1.65-2.75,1.85-3.29,3.42-6.49,1.47,4.83,1.22,8.74,1.92,12.47.48,2.54-.23,5.7,2.91,7.09,2.65-1.63,2-4.32,1.8-6.69-.57-5.85-.75-11.75-2.12-17.5-.22-.89-.16.2,0-.65.08-.4.3.44.61.56,3,.13,4.42,1.89,5.4,4.64.59,1.64,1.86,3.51,3.53.58.92-3.93.1-7.78-.46-11.62-.3-2-.57-4.55-2.92-4.91-3.24-.48-3.1-3-3.22-5.09C920,641.15,916,631.1,917,620.31c.51-5.86-3.13-10.88-5-16.25a2.37,2.37,0,0,0-3.24-1.54c-2.51,2.09-1.85,5-1.63,7.61.54,6.6,1.36,13.16,1.92,19.75,1,7.48.91,15.06,1.48,22.15-.22-5.46-.94-11.21-3.89-16.46A13.69,13.69,0,0,1,905,629c-.12-23.36-6.69-45.56-11.33-68.08C892.52,555.24,890,549.89,888.67,544.22Z"
            fill="#77695f" />
        <path
            d="M760.57,597.38c5.32-4.11,6-12,12.81-15.65,2.15-1.13,5.33-4.41,8.14-6.47,4.07-3,10.74-1.12,13.35,3.26.84,1.41,1.91,3,.22,4.22-2.28,1.67-2.25-.73-2.91-2-1.16-2.32-3.09-3.67-5.31-1.89-1.82,1.44-1.18,3.63-.21,5.65,1.39,2.86,5.67,1.47,6.56,5.07.73,2.91,2,5.54,5.48,6.93.84-3.27.15-6.48,1.79-9.72,3.83-7.55,11.29-6.5,17.06-9.33,1.16-.57,2,.34,2.64,1.43,1.62,2.82,3.67,2,5.57.46,4.76-3.87,10.28-6,16-7.82.63-.2,1.52-.4,1.76-.88,4.37-8.7,14.08-7.09,20.62-11.86,1,2.62-1.46,5.81,2.16,8,1.7-3,3.39-6,4.13-9.53.35-1.71,1.47-3.09,3.29-2.64,2.18.55,1.76,2.34.94,3.83s-.81,2.67,1.08,2.87c1.66.17,1.29-1.42,1.53-2.42-1.35-6.7-2.61-13.44-4.12-20.1-.47-2.05-.64-4.86-3.89-4.55-4,.4-2.39,3.53-2.59,5.78-.06.63-.22,1.24-.65,3.55-3.4-11.11-10.35-8.07-17.11-7.15-14.9,2-30,2.58-44.74,5.56-9.34,1.88-17.08-2.5-25.61-3.08-12.26-.82-23.82-5.11-36.13-6.43-17.71-1.89-34.27,3.83-51.45,3.74-9.53,0-18.36,4-27.74,4.59-3.72.23-4.87,3.86-6.88,5.92-4.78,4.9-11,5.61-16.67,6.86-9.51,2.09-13.64,9.85-18.62,16.69-7.85,10.8-13.9,23-23,32.84.08,6-5.46,9.09-6.9,14.35-.39,1.44-1.73,2.6-1,4.32,6.9-2.66,12.2,1,18.05,4.09,4.22,2.24,9.65,1,14.29,3.56,1.86,1,2.88-2.09,2.83-4.3a26,26,0,0,0-5.58-15.13c-5.93-7.93-3.24-16.84-4-22.48-1.39,4.06,1.07,10.47,3.51,16.77.83,2.15,2,4.75,5,4.85,2.39-1,2.4-3.19,2.19-5.19-.61-5.83,1.59-10.7,4.52-15.37q5.94-9.46,11.92-18.9c4.11-6.52,11.36-8.32,17.43-11.83,2.67-1.54,5.71-2.39,8.2-4.34,9-5,18.83-5.22,28.39-4.37,19.44,1.73,33.94,12.9,45.8,28.25,4.39,4.25,7.85,9.25,11.21,14.38C755.52,594.15,756.65,597.66,760.57,597.38Z"
            fill="#70635a" />
        <path
            d="M522.19,696.31,521,697.82c-3.49,1.88-5.32,5.71-8.61,7.81h0c-8.58,7.47-17.66,14.3-26,22.12-10.62,10.54-20.2,22.16-31.87,31.64-4.59,3.73-8.36,9.05-11.33,14.35-8.33,14.86-21,25.24-33.25,36.07C401,817.7,391.51,825,386,836.2c-1.59,3.26-3.78,6.24-3.78,10.11,2.74,4.33,6.32,5.31,10.8,3a12.19,12.19,0,0,1,5-1.59c8.3-.48,9.19-1.4,10.12-9.67.5-4.48,3.25-6.12,6.83-3.33,4,3.13,7,3.49,9.79-1.2.48-.79,1.1-1.66,2.07-1.12,5.9,3.23,6.24-2.79,8.58-5.48a24.39,24.39,0,0,0,.45-2.67c2.15-9.75,7.21-11.93,15.77-6.8,1.33.8,2.56,1.75,4.17,1.82,3.93-.92,3.31-4.66,4.11-7.57,1.68,1.09,2.58,2.74,4,3.8,4.61,3.38,7.15,2.55,8.91-3a6.35,6.35,0,0,1,1.4-3.06c4.09-3.64,6.7-7.29,2.14-12.7-1.61-1.9.31-4.36,1.17-6.42,1.53-3.68,1.43-6.77-2.74-8.34-3.4-1.28-3.21-3.21-1.19-5.68,5.33-6.51,12.26-11.2,18.12-17.12,1.89-1.9,3.09-.39,4.16,1.29,2.38,3.69,5.2,6.85,9.6,7.94a5.7,5.7,0,0,0,4.5-.69c9.57-6.87,19-13.89,22.68-26.25.4-1.36,1-3,2.24-3.21,6.26-.86,7.84-7.62,12.65-10.48,3.74-2.23,4.62-10.69,2.2-14.41-1.75-2.69-2.76-4,.88-6.25,3.25-2,4.78-6.48,1.37-9.37-5.85-5-8.67-11.19-9.88-18.58-2.87-1.57-3.9,1.05-5.24,2.63-1.88,2.23-3.53,4.67-6.26,5.91C527.67,690.38,525.32,693.76,522.19,696.31Z"
            fill="#6f6055" />
        <path
            d="M752.29,854.75c-7.1,3-9,8.18-3.95,13.4,5.3,5.47,2.84,10.67.77,15.73-1.92,4.7-6.14,7.75-10.27,10.48-1,.68-3.13,1.38-3.66.87-4.72-4.52-7.69-2.1-11,2.06-1.71,2.13-5.33,2.3-7.51,1.29a31.4,31.4,0,0,0-11.22-3c-3.65-.3-3.51-4.65-2.91-7.33.9-4.06-.75-6.18-3.22-8.9-3.56-3.92-6.11-3.12-8.32.83-2.8,5-9.37,6.28-11.08,12.28-11.81,2.4-19.9,12.86-31.32,15.75-4.17,1.06-8.93-1.23-13.31,1.38-2.41,1.43-5.34,2.86-4.48,5.88s3.85,1.1,6.09,1.26c13.4.94,26.17-1.62,38.75-6.06a9.86,9.86,0,0,1,7.17.32c14.12,6,29.15,8.52,43.82,12.48a49.89,49.89,0,0,1,12.76,5.63c5.16,3.16,12.19,1.81,16.21,8.59,1.29,2.17,7.84,1.54,11.93,1.26,11.51-.77,22.53,2.18,32.71,6.64,6.89,3,13.46,2.31,20,2.22,8.29-.12,16,3.24,24.24,2.73,1.92-.12,3.95.58,5.87-.13,3.27-1.21,5.39-.19,7,3,2.41,4.71,6.43,6.12,11.53,6.41a92.83,92.83,0,0,1,17.5,3.11c3.4.87,6.18,3.39,8.5,6.23,1.08-2,2.2-3.86,4.19-5,.34-2.16-1.14-4.34.07-6.49.07-.21.15-.42.21-.64s.08-.44.11-.66c3,2.33,2.84,6.71,6.09,10.06.48-4.64.88-8.52,1.27-12.4-3.71.6-6.47-.79-8.3-4.2-1.07-2-2.84-3.46-4.89-2.47-7.59,3.63-13.56-.8-19.77-3.9-3.26-1.63-6.73-2.17-10.18-2.87-5.08-1-10-2.28-12.48-7.82-.67-1.49-2.21-3.22-3.6-2-5.67,4.91-10.79.15-16.1-.57a52,52,0,0,0-7.1-.66c-6.89,0-14.28,1.13-19.76-5.1-.43-.49-1.33-1.21-1.62-1.06-7.86,4.22-14.16-3.84-22-2.65-12,1.84-27.11-11.07-27.91-23-.25-3.72,2.09-7.16,4.36-9.8,3.64-4.25,3.14-8.18.81-12.56-1.18-2.19-2.2-4.49-3.42-6.66-2.5-4.47-4-9-1.32-14A.76.76,0,0,0,752.29,854.75Z"
            fill="#231c14" />
        <path
            d="M855.27,829.34c5.9,7.88,15.09,8.57,23.31,11.31,5.63,1.87,9.23,5.23,12.82,10.52,7.28,10.76,9.91,24.55,20.36,33.13,2.56,2.11,2.94,5.3,3.64,8.5.85,3.94,1.23,9.25,7.55,8a80,80,0,0,0-6-18.73c-2-4.26-2.37-9-3.71-13.38-1.54-5.06-3.91-10.16-8.43-13.64-2.11-1.63-4.36-4.21-3.5-6.89s4.25-1.46,6.52-1.93c1.54-.31,3.07.22,4.61.38a38.29,38.29,0,0,0,8.42-.44c5.87-.15,11-3,16.28-5.06,4.77-1.76,9.24-4,12.53-8.2,2.63-2.22,6.5-2.65,8.28-6.11a35.32,35.32,0,0,0,12.21-13.17c.75-1.38,1.68-3.1,3.22-3.32,4.4-.63,5.34-4.23,6.64-7.61a18.26,18.26,0,0,1,3.39-7.3c5.28-6.65,7.06-15,10.22-22.66,1.4-2.87,1.62-6,2-9.14-.87-4.51,1.22-9,.33-13.47-3-2-4.49.39-5.92,2.36a20.2,20.2,0,0,0-3.68,8c-1,5.55-4,9.6-8.27,12.85-3.85,2.94-6,7.1-8.4,11.29-4.33,7.48-8.89,15.29-18.56,16.59a4,4,0,0,0-2.38,1.14c-5.67,6.12-13.38,8.64-20.16,12.82-11,6.82-23,10.52-35.09,14a14,14,0,0,0-1.89.64,52.37,52.37,0,0,1-17.43,1.8c-4.28-1.75-8.78-2.87-12.93-5a5.3,5.3,0,0,0-3.42-.82C856.42,826.55,856.05,828.11,855.27,829.34Z"
            fill="#271c18" />
        <path
            d="M417.53,917.56c.7-1.71-1.92-3.47-.08-5s3.16.59,4.68,1.17c6.68,2.56,13.34,5.17,20,7.76a3.24,3.24,0,0,0,3.65.13c-.54-5.52-5.75-7.28-8.68-10.69-5-5.81-9.81-10.68-5.76-19.09.38-.78-.34-1.74-.84-2.51-2.33-2.58-5.2-4.52-7.73-6.86-4.13-3.28-8.82-5.79-12.63-9.55-5.7-.58-10.43-4.66-16.38-4.67-3,0-3.5-2.78-3.53-5.55,0-2.31.94-5.21-2.41-6.21-6.6,6.27-6.72,13.69-3.66,21.69,5,13.94,9.88,28,24.95,34.12C412.12,913.5,414.74,915.77,417.53,917.56Z"
            fill="#4a3e34" />
        <path
            d="M384.17,878.15a26.24,26.24,0,0,1,4.61-21.41c5.83-2.72,12.23-2.68,18.34-3.94,6.91-1.42,11.81-5.52,16.38-10.6,1.56-1.74,3.52-4.54,6-3.11s.66,4.54.45,6.91c-.09,1.13-.4,2.24-.42,3.39.76,4.56,3.9,7.35,7.81,7.13s6.9-8.47,5.13-12.76A30.77,30.77,0,0,1,440,829.23a4.14,4.14,0,0,0-.4-2c-1.29-1.39-2.66-2.27-4.42-.78a4.46,4.46,0,0,0-3.66,3.48c-1.72,6.18-4.45-1.88-6.42.43-1.79,2.11-2.36,5.87-5.92,5.49-1.18-.12-2.06-2.25-3.29-3.14-2-1.47-4.21-2.64-6.63-.62-2.07,1.73-4.3,3-2.82,6.68,2.29,5.61-3,8-5.64,7.47a11.14,11.14,0,0,0-9.08,2c-4.14,2.86-6.17-2.24-9.46-1.91C379,857.18,379,867.84,384.17,878.15Z"
            fill="#574b40" />
        <path
            d="M948.17,980.09c1.6.43,1.12,3.06,3.58,3.15.94-21.5.17-43-.54-64.68,3.11.61,3.24,4,7.4,5.7l-2.71-26.44a2.61,2.61,0,0,0,.26-1.33c-.56-2,1-5.43-2-5.66-2.74-.22-3.75,2.68-3.84,5.43a9.86,9.86,0,0,0,.31,2.09,8.86,8.86,0,0,1-1.81,8.86c-2.27,2.62-2.72,5.57-2.41,8.84.33,3.78.7,7.55,1.16,11.31.48,2.77,1.2,5.65-3,5.79a1.47,1.47,0,0,0-.36,1.13c0,.41.12.61.2.6C944.43,950.07,941.28,965.54,948.17,980.09Z"
            fill="#1a1512" />
        <path
            d="M966.55,676.62c2,7.12.1,14.18-1.1,21-2,11.48-5.18,22.73-12.14,32.32-1.83,3.32-3,7-5.19,10.13h0c-2.72,2.84.3,8.24-4.5,10.5-1.91-2,.45-4.26-.39-6.16,1.09-5.38-.51-12.21,3.12-15.94,5.64-5.78,5.6-12.59,6-19.37.54-9.66.82-19.31,2-29,.43-3.68,1.38-6.27,4-8.45-.13.34-.24.69-.35,1a7.62,7.62,0,0,1,1.56,6.88c-1.5,7-1.57,14.24-1.84,21.39,0,.44,0,.89,0,1.33,0,.6.23,1.5.74.35a15.41,15.41,0,0,0,.89-7.3c.07-3.09-.11-6.2.51-9.26A14.86,14.86,0,0,1,966.55,676.62Z"
            fill="#6b5b53" />
        <path
            d="M923.54,884.5c2.3,5.81,4.49,11.68,7,17.42,3.1,7.26,1.49,15.1,2.81,22.57,1.23,2.47,1.08,5.33,2,7.88.48,1.28.69,2.93,2.33,2.83,1.48-.08,2.09-1.59,2.42-2.89,1.14-4.49.17-9.13.86-13.67.55-3.61.49-7.3,1-10.92a11.94,11.94,0,0,0,.19-2.15c-.64-6.62-3.2-12.75-4.59-19.19-.19-.89-.53-2.35-1.09-2.37-9.56-.34-4.93-9-7.4-13.47-1.4-3-4.06-4.35-7.51-6.42A92.15,92.15,0,0,0,923.54,884.5Z"
            fill="#1a1512" />
        <path
            d="M957.23,879.26c5.17,10.31,6.49,21.53,7.33,32.91.56,7.63.71,7.62,7.22,4l-.07-2.35c0-5.34,1-10.83-2.34-15.62-1-3.66-2.7-7.17-2.52-11.14-2.72-13.76-4.58-27.71-7.94-41.33-.54-2.19-.83-4.49-2.37-6.26-3.68-.59-2.8,2.63-3,4.37C951.73,856,953.87,867.7,957.23,879.26Z"
            fill="#1a1512" />
        <path
            d="M888.32,970.1c-.75-2.6-1-4.92-4.72-2.14-2.18,1.64-6.57,2.76-8.54,1.57-6.3-3.79-13.48-2.95-20-5.34-6.95-2.55-14.31-4-21.59-5.46-3.85-.76-7.85-.48-11.3-3-1.18-.86-2.55-.26-3.32,1.17-.6,2.71,2.33,1.26,2.87,2.63a10.89,10.89,0,0,0,8.29,3.58c16-.72,30.42,6.95,45.92,8.79a8.36,8.36,0,0,1,3.05,1.31c3.93,2.31,8.62,6.75,7.33-3.41C886.17,968.76,887.63,969.8,888.32,970.1Z"
            fill="#2f2819" />
        <path
            d="M821.71,959.53l-2.87-2.63-5.31.54c-7.82.36-15.65.58-22.61-4-4.48-3-9.34-3.75-14.5-3.41-3.6.29-7.28,1-10.27-2-2.32-2.33-4.3,1.57-6.55.36-1.75-.69-3.39-1.63-5.17-2.25-3.64-.92-6.43-.58-6.06,4.41,2,1.94,4,.91,6,0,7,4.69,15.18,1.65,22.66,3.35.85.19,2.08-.51,2.92.43,8.67,9.87,20.16,6.5,30.67,6.38C814.16,960.68,818.1,960.65,821.71,959.53Z"
            fill="#2c2417" />
        <path
            d="M690,937.79c-.82-4.83-2.39-8.13-7.64-4.07-2,1.58-4.3.23-6.34.08-2.65-.2-4.66-2.49-6.94.38-2.73,3.45-3.54-1.84-6.69-.85-4.29,1.35-9.16.73-13.46,2.65-2.05.92-2.73-.14-3.52-1.7-2.18-4.21-2.65.52-4,.86a3.14,3.14,0,0,0-.71,2.52c.46,2.43,2.88,1.41,4.1,2.5,9.36-3.55,19.1,1.24,28.46-1.39,3.87-1.09,8.2.68,11.78-2.56,1.5-1.36,2.6.85,3.66,1.9C689.28,938.5,689.71,938.42,690,937.79Z"
            fill="#2c2417" />
        <path
            d="M690,937.79l-1.27.32c3,5.57,9.33,7.68,15.59,4.4,3.22-1.69,4.6-2.09,7.48,1.06,4.37,4.77,11,4.92,17.1,5.4,6.86.53,13.77.48,20.21,3.59,2.21,1.07,4.35,1,5.27-2-2-.48-4.16.79-6-.69a4.64,4.64,0,0,0-.94-2.72,6,6,0,0,0-5-2.61c-2.3-.44-4.24,1.32-6.51,1.14l-2.51-1c-4.18,3-8.07-.57-12.09-.84A15.74,15.74,0,0,1,714.7,942l-2.14-2.14c-.87-5.56-4.47-1.51-6.76-2.06-2.9.69-6.25-.44-8.64,2.37-.55.64-2,1.17-1.86.08C696,933.38,691.69,938.71,690,937.79Z"
            fill="#2c2417" />
        <path
            d="M901.61,544.51l-.68-2.1c-3.24-.8-3,1.68-2.9,3.58.08,2.23,1,4.39.74,6.68-.26,5.87,2,11.33,2.58,17.07a36.8,36.8,0,0,0,10,16.8l1,2.44c1.74,1,1,3.83,3.17,4.74,2.5-1.14,1.81-3.54,2-5.59-.66-5-2.74-9.57-3.11-14.59-.57-2.21-1.14-4.42-3.36-5.56-1.73-.88-1.55,1.81-1.61,1.51C907.86,560.82,902.69,553.35,901.61,544.51Z"
            fill="#77695f" />
        <path
            d="M625.73,935.78c-6.05-3.17-12.05-.15-18-.16-8.3,0-16.74,1.68-25.17-.68-5.8-1.64-11.58-4.3-17.89-3.55,9.12,5,19.25,6,29.16,7.64,6.74,1.12,13.6,2.66,20.29-1.55,1.68-1.05,5,.75,7.58,1.23C622.62,937.11,625.79,938.84,625.73,935.78Z"
            fill="#2c2417" />
        <path
            d="M530.74,688.63c5.44-1.15,6.7-7.27,10.89-9.9l.9-.29a101.78,101.78,0,0,1,15.41-13.7c3.46-2.55,6.71-5.93,7.28-10.89a2.33,2.33,0,0,0-1.13-1.48c-11.71,11-23.89,21.58-33.58,34.72-.35.41-.43.77-.25,1.09S530.6,688.65,530.74,688.63Z"
            fill="#6f6055" />
        <path
            d="M486.38,727.76c5.48,0,7.09-5.5,10.58-8.26,5.36-4.24,12-7.2,15.38-13.86C502.56,711.6,493.24,718.13,486.38,727.76Z"
            fill="#6f6055" />
        <path
            d="M899.12,957.63c-2,2.17-.51,4.65-.61,7-2,2.56-1.13,5.46-1,8.28.27,2.05.57,4.08,2.29,5.48.82,2.53,1.32,5.26,5.18,7.28C902.93,975.71,901,966.67,899.12,957.63Z"
            fill="#1a1512" />
        <path
            d="M625.73,935.78q-2,1.46-4,2.93a92.55,92.55,0,0,0,23.14,1.45c0-2.66-2.51-.54-3.21-1.84-3.32-5.31-7.71-3.36-12-1.88C628.5,935,627.05,935.81,625.73,935.78Z"
            fill="#2c2417" />
        <path
            d="M583.31,632.16c-5,8.18-14,12.24-19.22,20.21l.72.63c5.15,1.31,6.67-4,10.07-5.91,3.88-4,8.71-7.32,9.64-13.59A2,2,0,0,0,583.31,632.16Z"
            fill="#6f6055" />
        <path
            d="M590.85,621.88c1.11-4.12,2.5-8.11,5.39-11.28A7.25,7.25,0,0,0,598,603a173.44,173.44,0,0,0-14.68,29.12l.73.49C589,630.9,590.26,626.61,590.85,621.88Z"
            fill="#65564f" />
        <path
            d="M899.23,973.22l-.72-8.6c-1.17-.3-1.89-2.54-3.07-1.61-2,1.59-.28,4.06-.58,6.12.45,3.66.26,6.67-4.63,4.76,0,2.73,2.57,3.9,3.39,6.13,3.3,2.22,4.15.1,4.65-2.79.4-2.32-1.25-4.31-1-6.57C897.16,972.13,897.57,973.16,899.23,973.22Z"
            fill="#2f2819" />
        <path
            d="M926.28,609.1l-.31-5.31c-.14-5.19.62-10.53-2.3-15.26-2.63,6.16-4.7,12.41-2.42,19.24C922.59,609.54,924.21,610.25,926.28,609.1Z"
            fill="#77695f" />
        <path
            d="M530.74,688.63c-.08-.52-.15-1-.23-1.54-3.89,2-6.93,4.81-8.32,9.22C526.88,696,528.24,691.61,530.74,688.63Z"
            fill="#6f6055" />
        <path
            d="M512.34,705.63c4.73-.39,6.39-4.43,8.61-7.81C515.81,697.74,514.43,702.11,512.34,705.63Z"
            fill="#6f6055" />
        <path
            d="M752.29,854.75c.42,0,.83-.06,1.25-.06,10.59-.89,19.14-10.71,30.67-7.62a3,3,0,0,0,2.55-.48c4.31-4.34,7.36-2,10.87,1.45,2.61,2.57,5.85,1.61,6-2.29.06-2.76-.4-5.49,2.5-6s4.66,2.73,5.74,4.78c1.22,2.31,1.43,6.23,4.58,4.54,2-1.06,3.94-5.2.76-8.08-1.76-1.6,1.77-5.7-2.72-5.66A69.8,69.8,0,0,1,800.73,812C796,798,791,784,782.62,771.7c-2.59-3.8-4.75-8.5-10.48-8a3.42,3.42,0,0,0,.18,3.88c3.33,4.27,4.12,10.27,6.64,14.13,6.4,9.8,7.49,21.77,13.92,31.28,2.75,4.06,3,7.73-2.8,9.2-5,3-10.72,4.28-15.6,7.53-2,1.33-4.42,1.73-6.27.21-6.9-5.71-15.43-8.26-22.84-12.95A19.39,19.39,0,0,1,737,806.72c-1.17-3.38-3.4-5.28-7.11-4.66-4.39.73-7-1.75-7.6-5.76-.89-5.62-5.24-8.89-7.59-13.49-1-2-3-3.71-5.49-2.48-2.16,1.06-2,3.48-1.67,5.48,1,6.13,3.81,11.64,5.49,17.57,2.7,9.59,5.52,19.14,9.93,28.21,3.58,7.38,8.86,12.26,15.23,16.44Z"
            fill="#4c3e38" />
        <path
            d="M772.3,763.82c9.2,4.72,12.37,14.47,16.82,22.8,7,13.13,8.67,28.87,18.37,40.93,2.21,2.75,2.35,7.28,7,7.78-.63-5.85-5.89-8.64-8.19-13.42-4.17-8.68-2.64-18.25-4-27.36-.41-2.88-4.1-7.23,1.6-9.29L789,771.69c-.52-2.49-2.57-3.64-4.2-5.13-11.44-10.43-24.21-19.16-34.75-30.84-4.84-5.36-11.57-9.13-17.25-13.89a25.11,25.11,0,0,1-6-6.39c-8-7.31-13.85-16.32-18.48-26.1-2.18-4.61-6.53-6.59-9.22-10.41-1.66-1.51-2.78-3.87-5.48-3.75a3.54,3.54,0,0,0-1.79,2.33c1.58,7.27,7.56,11.87,10.45,18.46a62.84,62.84,0,0,0,6,10.38c2.66,6.54,9,9.62,12.93,15,1.24,1.43,2.36,3,3.7,4.29,11.32,10.2,22.28,20.84,34.38,30.09C763.45,758.86,767.36,762.22,772.3,763.82Z"
            fill="#302723" />
        <path d="M857.67,826.49c-2.5-2-5-4.08-8.46-3.3l6.06,6.15A2.45,2.45,0,0,0,857.67,826.49Z"
            fill="#53443b" />
        <path
            d="M738.17,848c-1-1.47-1.79-3.5-3.19-4.31-10-5.77-13-16.87-16.37-26.32-3.46-9.71-5.75-20.09-9.24-30-.64-1.81-2-5.11.67-6.06,2.26-.81,3.22,2.06,4.41,4.07,2.73,4.66,5.54,9.08,7.14,14.46.95,3.17,3.91,6.21,8.39,3.93,3.48-1.77,4.29.77,5.52,3.6,3.64,8.43,9.32,14.14,18.82,15.51,4.73.68,7.54,5.8,11.82,8.21,3.67,2.05,6.58,2.8,9.55-.07,4.26-4.13,11.28-2.73,14.71-8.27,2.19-3.39.29-6.22-1.43-8.78-4.14-6.16-8.22-12.36-12.16-18.65a19.15,19.15,0,0,0-4.47-3.62c-3.26-2.24-4.64-6.31-7.79-8.66a9.25,9.25,0,0,0-3.18-1.81c-10.7-2.73-19.4-9.29-28.17-15.72a20.21,20.21,0,0,0-10-3c-6.08-1.31-12-3.45-18.3-3.65-2.48-.18-4.68,1.73-7.06,1.36-4.38-.67-8.52-1.77-10.55-6.84-1.06-2.66-3-5.36-6.42-4.91-2.26.29-3,2.4-3.56,4.44-1,3.77.62,6.11,3.72,7.73a9.28,9.28,0,0,1,2.71,1.9,27.39,27.39,0,0,1,2.31,2.85c.51.76,1,1.52,1.49,2.32a7.74,7.74,0,0,1,.51,4.72c-1,5.81,1.44,9.82,6.2,12.45,11.36,6.29,13,18.36,16.08,29.46.55,2,.49,7.3-4.5,3.36-3-2.35-5.47-.84-7.73,1.22-6.92,6.33-15.13,11.76-14.58,23.23.14,3-2.46,3.29-4.66,3.89-6.39,1.76-7.14,2.85-5.39,9,1.21,4.25,1.14,7-4.22,6-2.86-.53-4.17.81-4.21,4.51-1.81-5.63-2.83-11.07-8.93-12.43-2.06-.45-4-.88-5.37,1.23a4.18,4.18,0,0,0,.73,5.65c5.74,4.78,2,8.54-.14,13.54-3.81,8.64-12.13,8-18.39,11.34-5.79,3.08-12.36,4.43-17.78,8.62-3.62,2.79-7.57-1.17-11.48-.4-1,.2-2.15-.53-3.13-1-2.71-1.39-7.58,4.34-7.71-.32-.18-6.18-4.93-12.15-1.17-18.44,2.94-5,2-10.31,1.29-15.44-.48-3.37-2.8-5.78-6.78-4.19-7,4.42-8.41,12.57-12,19.25-2.3,10.22-16.55,15.34-24.55,8.58-2.44-2.06-4.48-3.55-7.64-2.11-1.83.83-3.41-.31-5-1a7.75,7.75,0,0,0-6.92.36c-5.34,2.53-10.91,4.82-16.83,1.43a2.43,2.43,0,0,0-3.8,1.42c-1.49,4.15-3.74,2.84-6.12,1.12-2.06-1.3-2.61-3.56-3.53-5.64a14.25,14.25,0,0,0-12.29-9,6.43,6.43,0,0,0-1.66.77c-.74.48-1.63,1.33-2.38.89-5.84-3.47-6.15-.44-5.8,4.71s-4.6,7.33-7,10.94c-1.85,1.36-3.49,2.93-3.95,5.34-1.2,6.23-3.6,11.75-8,16.32-1.85,1.91-1.84,4.69-1.44,7.2.8,5.07-1.21,6.72-5.89,5.92-1.69-.29-3.55-.41-5.12.8l-4,.5c4.46,4.44,10.1,2,15.05,2.2,7.2.26,14.81-.22,19.31-8a5.52,5.52,0,0,1,3.29-2.21c9.11-2.16,13.82-8.27,14.8-17.69,3.25.27,2.65,3.52,4.31,4.92,4.06,3.41,6.9,4.69,12.68,1.33,7.46-4.33,13.33-12,22.87-12.71,4.4-.34,7.21,5.39,7.56,4.8,2.83-4.83,5-2.56,7.38,0,3.07,3.38,3.8,7.8,4.85,12.1.83,3.4,7.76,5.87,12,3.85s3.95-6.82,2-9.3c-4.94-6.31,1.67-7.78,3.56-11.17.26-.47,1.72-.64,2.39-.36a2.32,2.32,0,0,1,1.14,2.93c-1.41,3-.05,5.29.75,8.09,1.34,4.69.09,10.82,8.28,5.64,2.9-1.83,7.32,2.87,11.55,2.56,1-.08,2.38,1.1,3.14.73,4.53-2.18,8.3-3.62,11.63,2.47,1,1.93,4.36-.51,5.89-2.68,1.78-2.51,3.61-4.32,6.18-.86,1,1.32,2.66,1.51,3.49.42,3.43-4.54,10.41-1.49,13.39-6.93a2.39,2.39,0,0,1,2.33-.18c4.34,4.31,8.42,1.16,12-.89,6.56-3.75,13.14-9.23,19.62-10.95,6.94-1.85,8-6.62,10.85-10.67,3.44-4.83,9.17-7.1,11.88-12.78,2-4.26,6.59-3,10-2.46,3.86.58,3.38,4.19,2.71,7.2-.91,4.08.88,8.17-.33,12.31-.52,1.78-.72,4.53,2,5.06,2.36.46,5.62.66,6.48-2.06,2.43-7.73,9.52-7.19,14.85-9.5,2.65-1.15,5-2.53,4-5.08-2.34-5.66.51-11.42-1.11-17C733.88,851.38,735.58,849.43,738.17,848Z"
            fill="#3a302c" />
        <path
            d="M776.89,951.57c6.71-2,11.83,2.65,17.25,5a26.53,26.53,0,0,0,19.39.85c-8-2.46-16.15-4.52-24-7.51-5.21-2-10.69-1.63-15.86-3.24C771.82,950.39,774,951.24,776.89,951.57Z"
            fill="#2c2417" />
        <path
            d="M714.7,942c4.2,4.12,9.79,3.87,14.92,5,1.66.36,3.61.26,3.81-2.37-.57-2-3.88,1-4.15-2.68-.11-1.51-3.27-5-5.56-.41-.2.39-1.12.38-1.7.56C719.69,932.22,717.12,943.48,714.7,942Z"
            fill="#2c2417" />
        <path
            d="M776.89,951.57c-1.92-1-3.33-2.4-3.18-4.88l-10.89-1.53c-2.44.44-3.71,1.87-3.53,4.51.26.37.64,1.09.75,1.05C765.79,948.5,771.18,953.53,776.89,951.57Z"
            fill="#2c2417" />
        <path
            d="M747,948.65l1.33,1.21c1.45-3.09,3.93-3.16,6.67-2.45a3.18,3.18,0,0,0,.86-4.24l-8-.49C747.11,944.6,746.19,946.49,747,948.65Z"
            fill="#2c2417" />
        <path
            d="M629.61,936.44c4,.92,8.55-2.47,12,1.88l-.18-3.18C637,930.06,633.28,933.29,629.61,936.44Z"
            fill="#2c2417" />
        <path
            d="M747,948.65c.33-2,2.85-3.63.86-6-2.62-1.37-5.36-.83-8.08-.5-1.52,3.48,1.58,2.88,3.05,3.73C745,945.58,745.56,947.84,747,948.65Z"
            fill="#2c2417" />
        <path
            d="M755.88,943.17c-.29,1.42-.57,2.83-.86,4.24l4.27,2.26,3.53-4.51C760.86,943.17,758,944.63,755.88,943.17Z"
            fill="#2c2417" />
        <path
            d="M705.8,937.82c1.91,1.9,5.19-1,6.76,2.06.39-1.55,2.1-3.18-.84-4.27C709,934.6,707.18,935.38,705.8,937.82Z"
            fill="#2c2417" />
        <path
            d="M742.85,945.91c-.94-1.32-3.13-1.52-3.05-3.73-4.32-2.43-1.55,3.54-3.86,3.5C738.19,947.47,740.54,946,742.85,945.91Z"
            fill="#2c2417" />
        <path
            d="M800.68,662.17c4.82-1.25,2.19-6.41,4.69-9.54,2.53,2.28,4.06,5.65,7.94,6.29,2.49.42,2,3.51,1.72,5.9-.32,2.85.62,5.78,3.07,7s3.88-1.2,5-3.21c.71-1.24,1.65-2.32,3.16-2,2,.47,1.49,2.47,2,3.9,1.81,5.22-2.44,9.08-2.79,13.81-.12,1.68-1.61,4.06,1.15,4.38,2,.23,1.5-2.2,1.87-3.67a75.22,75.22,0,0,1,3.91-12c1.59,3.37,3,6.63,2,10.29-.4,1.41-.85,2.79.63,3.57a2.49,2.49,0,0,0,3.41-1.31c2.64-5.53,8.53-3.45,12.48-5.89,1.19-.74,2,.57,2.31,1.69s0,2.17-.94,2.16c-6.54,0-4,5.13-2.68,6.86,6.78,8.94,5.77,17.94,1.09,27,2.15,2.33,2.9-2.7,4.59-.41,1,1.4-.52,2.38-1,3.57-1.14,2.94.37,5.5,2.93,5.64,5,.27,5.5,3.14,4.49,7.72,4.71-4.26,4.68-10,7.23-14.33.85-1.46,1.76-3.74,3.73-3.45,2.17.33,2.12,2.76,2.17,4.52.14,4.92,3.63,9.82,0,14.79-1.08,1.47-.38,2.7,1.39,2.74,5.91.14,6.4,4.48,6.74,9a21.67,21.67,0,0,0,.85,5.41c.81,2.36,2.83,2.75,5,2.09,2.39-.74,2.17-2.48,1.28-4.35a3.89,3.89,0,0,1-.21-.66c-.7-2.5-3.87-5.87-1.78-7.17,2.42-1.52,6.61-.09,8.84,2.47s3.25,3.12,5-.46c1-2.09,3-5.53,5.36-.62a2,2,0,0,0,2.82,1c1.62-.85,1.59-2.48,1.68-4.14.15-2.54-2.08-6.75.95-7.27,4.23-.72,1.6,4.78,3.51,6.7s-.51,8.05,6,5.24c1.84-.79,5.89,3,5.41,7.24-.78,7.09,2.66,13.1,4.46,19.53,6.17-8.51,2.15-9.34,3.15-12.54.24-3.3-3.34-4.24,0-7.11l-3-8.13c-.69-.75-2.14-.65-2.34-1.64-.12-.59,1.22-.66,1.84-1.09l-4.14-16.19a2.54,2.54,0,0,0-2-.46,5,5,0,0,0-3,2.69,9.54,9.54,0,0,0-.88,3.43c-.5-6.82.3-12.78.24-18.75-.07-7-1.23-13.89-4.42-20.23l-2.37-23.19c-3.73,2.66-6,5.41-8.84,7.41-3.75,2.63-.29,4.42,3.73,5-2.62,2-4,3.59-6.84,2.5-5.34-2-6.14,1.77-5.25,5.63.69,3,.87,5.07-1.52,7.31-1.75,1.64-1.51,3.79-.55,6.27,2.12,5.43.31,10-4.5,14.15-.94-4,2-7.27-.09-10.44-.27-.43.12-1.32.2-2-6.15-.53-3.19-6.19-4.83-9.27-2.67-5-.57-8.34,3.67-11.52a9,9,0,0,1-.8,7.07c-1,1.88-.63,3.08,1,3.92,2.17,1.09,3.52-.37,4-2.2a22.29,22.29,0,0,0,.78-6.75c-.14-3.08-.63-6,3-7.46,1.53-.61,1.39-2.15,1.29-3.54-.33-4.51-3.18-3.93-6.14-3.37-2.3.44.55-8.36-4.7-2.88-.78.8-1.64,1-2.27.16-3.09-4-4.61-1.94-5.81,1.56-1.06,3.1-2.47,4.4-5,1.18-.71-.9-2.22-1.61-3-.77-3.68,4.23-5.92,1.36-8.49-1.4s-3.92-.87-5.6,1.53c-1.31,1.88-2.94,4.7-5.67,4s-1.29-4-2.13-5.94c-2.79-6.42-.5-12.12,1.83-18,.92-2.32,4.39-6.37-2.7-6.58-2.39-.07-4.25-5.24-2.83-9.15.62-1.7,1.76-3.26,2.09-5a2.86,2.86,0,0,0-3-3.64c-2.08,0-3.82,1.47-2.79,3.47,1.82,3.53-.19,6.18-1,9.15-2.18,4.07-.84,8.22.65,11.81s1,6.52-.13,9.86a12.37,12.37,0,0,1-4.87-3.73c-2-2.52-4.08-2.86-6-.41-3.1,3.92-4.76.83-7.23-1.58,3.51-.07,5.62-1.44,5.14-5-.34-2.54-1.82-4.65-4.34-4.1-5.61,1.21-5.95-1.79-5.21-6.12.31-1.82.48-3.66-1.16-5l-1.46-1.23a6,6,0,0,0-6.75-.64c-2.15,1.26-2.67,3.54-3.15,5.74-.42,1.88.26,4.41-2.75,4.46s-2.37-2.63-3-4.4a11.6,11.6,0,0,0-1.1-2c-1.56-.23-1.66.87-2.16,1.51-.93,1.16-1.49,3.14-3.4,2.6-1.53-.44-1.06-2.25-1.46-3.47-.55-1.71-1.19-3.39-1.8-5.08-5-4.67-6.48-.37-8.19,3.41,1.32,7.22,6,12.61,9.48,18.63,1.11,1.34,5.68-.79,3.56,3.83A3.82,3.82,0,0,0,800.68,662.17Z"
            fill="#6b5b53" />
        <path
            d="M794.59,654.5l-9.91-18.29c1.71-6-2.95-7.79-6.41-10.36a7,7,0,0,1-.26-1.21c-2.08-6.74-6.88-11.59-11-16.92-.16-4.79-3.94-7.15-6.47-10.34-5.2-4.34-7.42-11.06-11.88-16-1.5-1.66-2.73-3.5-4.84-4.37-3.3-3-5.71-7.05-10.19-8.51-6.28-2.06-8.32-.29-7.15,6.36-2.72.89-5.65-1.81-8.28.48a3.07,3.07,0,0,0-.52,1.82c1.36,3.72,4.8,3.64,7.7,4.3,3.21.73,6.53,1,10.57,3A20.3,20.3,0,0,0,732.3,583c-1.93-.37-4-1.22-5.24,1.27-1.11,2.31.13,4.15,1.81,5.3,3.29,2.28,6.08,3.86,4.85,9.41-.81,3.69,4.19,4.58,7.27,5.54,6.65,2.08,13.39,3.87,18.16,7-5.58,1.3-9.86-4.52-15.73-6.23a12.39,12.39,0,0,0-6.56.15c-3.68,1-5.06,2.85-2.15,6.23,2.75,3.19,5.16,6.79,9.38,8.82-6.93-.37-13.46,1-20,2.77-5.82.64-9.69,5.33-14.73,7.6-7.73,3.67-12.31,10.95-17.84,17.09-2.38,2.65-.73,5.18,1.64,7,4.09,3.1,8,6,4.47,12.29-1.25,2.23.48,4.46,2.47,5.78,4.47,3,7.09,7.46,9.68,12,3.86,6.84,5,6.83,8.84-.07.88,1.51-1,3.68,1.08,4.88,6.84-2.41,7.74-5.17,4.3-13.18a4,4,0,0,0-1.64-1.06c-2.41-.85-7,3-6.75-3.61.25-6,2.89-9.53,7.82-9.82,6.58-2.37,11.89-6.8,17.16-11.31,15.24-5.28,30.63-9.32,49.16,2.39.17,3.17-5.24-.52-4.37,3.81.57,2.81,2.71,3.29,4.5,4.51,2.21,1.49,4.17,3.41,6.45,4.78,1.43.86,3.35,2.18,4.91.81,1.85-1.62-.88-3.22-.61-5l-3.1-3.8C797.58,656.26,796,655.46,794.59,654.5Z"
            fill="#4b3e37" />
        <path
            d="M819.28,635.15c-.27,2.47-1,5-.72,7.42.37,3.51-.65,9.63,6.18,5.22,1.41-.91,2.56-.44,3.39.84a4.08,4.08,0,0,1,.3,4.53c-1.4,2.19-2.07-.14-2.94-.75-1-.73-2.18-1.06-2.78.24-2.1,4.58,2.58,5,4.41,7.05.85.93,2.3,5.13,4.1,1.42,2.35-4.84,3.47-5.54,7.07-.89a54.45,54.45,0,0,0,5.33,5c5.62-9.25-1.18-17.3-1.17-25.79-2.72.35-5.44.88-8.06-.48-2.58,1.57-2.8-1.59-4.25-2.29C826.6,635.58,823.39,632,819.28,635.15Z"
            fill="#70635a" />
        <path
            d="M929.38,718.38c1-7.79-.66-15.35-1.66-23-.9-6.93-1.14-14-1.67-20.94-1.89-1.45-1.11-3.83-1.82-5.67-1.36-3.47-3.18-3.3-5.13-.42-1.26,1.28-1.19,2.92-1,4.51,1.72,12.21,1,24.7,3.76,36.8C922.87,714,923.83,718.3,929.38,718.38Z"
            fill="#6b5b53" />
        <path
            d="M929.38,718.38c-8.63-5.61-6.68-15.39-7.81-23.49-1.22-8.74-1.34-17.72-2.47-26.54-.86-2.18-.25-5-3-6.81-1,10.51,3.15,20.51,1.38,30.74,3.93,14.8.72,30.5,3.8,45.41l1.75-.14.59-10.07a3.2,3.2,0,0,0,.59-1.18c.25-1.06,1.48,3.37,1,2.28.76.82-.11-3.18,1.3-3h1C926.12,722.64,929.17,720.9,929.38,718.38Z"
            fill="#6b5b53" />
        <path
            d="M832.78,636.4c.69-.48,2-1.14,2-1.43-1.36-5.53,1.5-9.06,5.24-12.15,4-3.32,5-6.67.73-10.64-2.45-2.26-3.17-5.42-3.3-8.73-.09-2.23-.95-4.34-3.08-4.78-1.87-.38-2.87,1.86-3.89,3.12-2.64,3.28-1.13,9.33,2.81,11.19,2.23,1,2.87,2.69,2.92,4.86.08,3.64-1.82,2-3.4,1.38a1.18,1.18,0,0,0-1.08.48c-.24.6-.54,1.66-.27,1.92,4.83,4.52-5.55,10.54,1.36,14.78Z"
            fill="#70635a" />
        <path
            d="M778.27,625.85c1.31,4,6.3,5.56,6.41,10.36,2.35-1.62,3.23-6.6,7.6-3.59,0-3.08,1.74-6.83-2.28-8.51S781.78,622.35,778.27,625.85Z"
            fill="#70635a" />
        <path
            d="M767,607.72c1.87,6.89,7.08,11.44,11,16.92a6.54,6.54,0,0,1,1.51-4.33c2.14-3,6.32-6.9-2.14-5.69a2.2,2.2,0,0,1-2.26-2.06C774.81,606.51,771.22,606.65,767,607.72Z"
            fill="#70635a" />
        <path
            d="M893.7,614.47c-.7,10.35-1.29,20.58,5,31.43C899.31,633.82,895.68,624.21,893.7,614.47Z"
            fill="#77695f" />
        <path
            d="M861.85,644.71a2.9,2.9,0,0,0-2.35,2.9c-.16,1.55-.16,2.87-1.7,4.08-2.43,1.9-1.31,10.26,1.5,10.88,4,.88,1.92-4.24,4.12-5.45-3.15-3-.54-5.7.44-8.47C864.62,646.5,864.09,645.15,861.85,644.71Z"
            fill="#6b5b53" />
        <path
            d="M908.42,650.21c-6.57,3.56-10.46,6.57-5.65,12.84,1.29,1.67.44,2.92-.49,4.27-.74,1.06-2,2.25-.91,3.52.52.58,2.07.49,3,.24a2.51,2.51,0,0,0,2-3C905.25,662.46,906,657,908.42,650.21Z"
            fill="#77695f" />
        <path
            d="M868,584.47c-.25,1,.11,2.74,1.65,2.46a5,5,0,0,0,3.81-4.83c.07-1.91-1.09-4.2-3.62-3.66C866.5,579.16,868.88,582.16,868,584.47Z"
            fill="#70635a" />
        <path
            d="M811.07,633.28a10.52,10.52,0,0,0,6.75.64c-.42-3-3.94-5.69.48-9.78C811.84,625.47,813.7,631,811.07,633.28Z"
            fill="#70635a" />
        <path
            d="M881.17,571c-3.18,3.67-5.94,5.38-5.76,9,.05,1,1.39,1.74,1.85,1.27C879.54,578.92,880.7,576,881.17,571Z"
            fill="#70635a" />
        <path
            d="M779.23,592.92c.79,1.24,1.15,3.29,3.12,2.75,1.34-.36,1.91-1.81,1.59-3.31s-1.17-2.53-2.69-2.38S779.13,591.34,779.23,592.92Z"
            fill="#70635a" />
        <path
            d="M822.94,588.5a1.86,1.86,0,0,0,1-2.75c-.69-1.36-1.33-3.09-3.19-2.84-1.55.22-1.33,1.71-.84,2.65C820.57,586.83,820.92,588.68,822.94,588.5Z"
            fill="#70635a" />
        <path d="M830.14,636.7c.43,2.07-.34,5,2.28,5.65,1.9.45,1.94-1.8,2-3.36l-1.61-2.59h0Z"
            fill="#6b5b53" />
        <path
            d="M590.85,621.88q-3.4,5.39-6.8,10.77c-1.68,5.64-5.94,9.22-9.78,13.13-7,12.79-13.91,25.67-21,38.16-2.23-1.09-2.29-1.74-2.06-2.4.75-2.19,1.61-4.56-.4-6.35-2.23-2-4.06.13-5.86,1.3a17,17,0,0,0-3.3,2.24h0c-1,8.47,2.58,14.51,8.91,19.49,3.27,2.58,1.87,7-2.37,8-4.61,1.1-3.89,3.3-1.51,6.08,4.79,5.61,3.51,12.74-3.07,16.06-1.77.9-3,1.86-3.18,3.91-.16,1.44-.81,3.29-2,3.18-6.58-.57-5.81,5.1-8.29,8.65-4.31,6.13-6.18,15.31-15.57,17-3.58.63-4,7.48-9.25,6.26.37,3.76.72,7.52,1,11.29,2,1.25,3,3.54,4.75,5.06,6.42-4.48,13.8-8.06,13.32-18.16-.24-5,4.83-7.29,6.08-11.67,2,1,2.17,2.83,3.12,4,3.51,4.46,5.19,4.31,7.11-1.1.86-2.44,1.41-4.83,4.26-5.54.91-.22,2-1.14,1.71-1.83-3.24-8.74,6-12.75,7-20,.49-3.78,2.52-7.37,2.06-11.36a21.09,21.09,0,0,1,1.75-10.72c2.14-5.06,5-9.67,1.68-15.43-1-1.67,1.3-3.2,2-5.11,1.67,3.94,3.53,7.17,8,3.26,1.67-1.46,4.06-1.85,5.53-3.69-1.94-9.28-2.09-24.17,7.17-31.34,1.4-1.09,2.67-3.24,4.32-2.64,5,1.8,9.85-.44,14.73.18,8,4.29,13.72,14.75,13,23.65-.56,6.61-4.12,8.6-9.83,5.52-8.41-4.54-12.76-3.71-16.62,3.18,2.09,3.84,6.5,2.09,9.32,4.18a21.57,21.57,0,0,0,8.47,3c5.77-1.07,11.91-1.37,15.28-7.63.34-.84,0,.26.32-.6,3.83-10.23,3.84-10.26,14.39-6.37,2.18.8,4.26,1.09,6.39,0a12,12,0,0,1,6.37-1.46c9.43.43,17.91-7.91,18.26-17.78-2.57-6.84-9.72-8.15-14.29-12.62-1.88-1.84-4.48-2.86-6.49-4.68-8-9.07-16.36-17.93-19.78-30.25a3.9,3.9,0,0,0-1.47-2.22c-5.53-7.5-8.91-15.48-5.11-25,.41-1,1-2.34-.36-3-1.11-.56-2.06.1-2.69,1.25-1.55,2.87-3.87,5.15-2,9.27,2.11,4.7-1.09,10.31,1.67,15.35,2.13,3.9,5.36,7.11,6.55,11.6.38,1.48,2,2.67,1.23,4.41-.9,2,2.2,4.18.06,5.72-2.46,1.79-2.8-2.14-4.7-2.51-1.5-.3-3.23-1.93-4.29-1.49-3.84,1.6-7,2.83-7.53-3.33a5.83,5.83,0,0,0-3.05,0c-2.47,1-4.51,2.41-4.77-2.27-.15-2.74-2.25-3.16-4.23-1.1C593.49,618.79,592.19,620.36,590.85,621.88Z"
            fill="#65564f" />
        <path
            d="M718.27,575.71a38.17,38.17,0,0,1,4.55.53c2.28.53,5,2.62,6.71.07,2-2.86-2.07-3.92-3.06-6.44,7.93-2.66,11.82,4.48,17.38,7.11-4.58-8.65-12.25-13.91-19.6-19.62-16.07-12.48-34.08-11.13-52.33-8.16a6,6,0,0,0-4.23,3c-1.3,3.91-5.14,3.7-7.89,5.26-5.18,2.94-11,5.24-11.59,12.73.57,5.12,3.43,5.81,7.51,4.2a66.18,66.18,0,0,0,8.8-4.67c4.82-2.81,9.22-2.63,12.86,2.18,2,1.9,4.23,3.85,6.93,3.5C695.66,574,707,574.5,718.27,575.71Z"
            fill="#5d5046" />
        <path
            d="M649.39,569.54c1.29-5,4.87-7.63,9.12-9.77,3.47-1.75,7.32-2.85,10.12-5.9,1.69-1.85-.07-1.43-.94-1.62-4.29,3.25-9.46,4.74-14.17,7.08C638,567,633,582.79,625.26,596.54c-2.11,3.75,1.17,8.17-1.13,12-.2,6.76,2.31,12.12,7,16.83,5.12,5.11,6.52,13.51,13.61,17,1.47-1.64,1-3.5.1-5-3.23-5.26-1.32-9.36,2.49-13.13,1.75-4.2,8.44-5.47,13.57-2.74,2.24,1.19,4.27,5.64,7.13,2s-.68-6.2-3-8.54a26.08,26.08,0,0,1-6.67-12.43c-.82-3.37-2.63-5.6-6-6.64-8.62-2.66-11.08-9.35-6.39-17.44A29.58,29.58,0,0,0,649.39,569.54Z"
            fill="#362d2a" />
        <path
            d="M506.38,778.36c2.21-4,1.82-7.61-1.13-11-3.82-2.38-7.47-5.17-8.88-9.67-1.28-4.12-3.22-2.31-4.77-.89-6.6,6-13.24,12.05-19.45,18.5-2.78,2.88-4.93,6.81,1.79,8,5.44,1,3.14,4.3,1.81,7.12-1.68,3.54-4.18,7,1.12,9.69,1.36.7,1.33,2.42.46,3.63-2.58,3.58-7.53,5.44-6.62,11.64.17,1.17-4.26.46-6.08-1.26-2.21-2.09-3.51-5.27-7.4-6.21-.06,3.77,2.88,8-1.49,10.76a2.36,2.36,0,0,0-.5,1.56,42.11,42.11,0,0,0,.53,5.12c.82,2.14.52,5,3.44,5.8,3.23-.05,2.54,3.23,3.78,4.87.84,1.13,1.71,2.45,3.08,2.27,2-.26,1.92-2.22,2.06-3.79.39-4.19-2-8.73,1.52-12.49,4.24-.53,7.59.52,9.37,5,.82,2.09,2,4.2,4.8,2.54a5.34,5.34,0,0,0,.89-2.74c0-5.62-4.32-11.39.65-16.86.57-.63.82-2.29,1.42-2.15,7.69,1.73,5.66-4.15,6.28-8.21.67-4.37,4.31-3.8,7.32-4.15,6.43-.76,9.06-3.35,9.65-9.47-4.53-2-10.19,1.8-13.81-3.42,1.07-1.1.25-3.59,1.8-5.18C500.85,777.33,503,784.63,506.38,778.36Z"
            fill="#615348" />
        <path
            d="M455.72,820a7.57,7.57,0,0,1,0-1.26c-3.89-6.33-10.79-4.15-16.23-6.11a3.27,3.27,0,0,0-1.83.25c.22,4.74-5.76,8.28-2.5,13.58l4,1.17c3.29,1.52,3.77-1.84,5.35-3.43-.55,1.49-2.51,3-.89,4.28,2.42,2,5.28,1.95,7.94,0A14.25,14.25,0,0,0,455.72,820Z"
            fill="#615348" />
        <path
            d="M949.17,887.06q-1.57-10.17-3.14-20.33c.94-1.8,1.32-.27,2,.29.93.77,2.17,1.75,1.72-.82l-5.28-22.75c-2.57-1.63-3.3.67-3.45,2.26a14.5,14.5,0,0,1-3.28,8c2,2.24,1.7,5.19,2.33,7.86-.1,5,4.52,10.38-.89,15.1-.17.25-.32.51-.48.77,3.55,6.24,4.38,6.28,7.77.35C948.13,880.65,946.35,884.58,949.17,887.06Z"
            fill="#1a1512" />
        <path
            d="M962.29,764.73c.3,2-1.44,1.45-2.75,3.31-12.93,18.43-24.13,36.44-43.82,48-2.43,1.43-27.58,12-37.64,12.16-5.92.07-11.79-1.6-17.76-.68,3.53,3.54,8.67,3.07,12.67,5.44a63.74,63.74,0,0,0,19.86-2.18h0a103.42,103.42,0,0,0,30.22-13.43c13.22-8.37,25.61-17.9,34.33-32.38,7.53-12.5,15.89-24.84,26.13-35.44,1.26-1.3,2.72-2.51,3.41-4.19C990.73,736.1,995,727.05,998,718c.11.68,0,2.1,1.38,2.76,1.48-5.27-.19-10.4-.62-15.58-1.62-5.06-1.3-10.41-2.13-15.59-.21-1.26.21-3-1.47-3.43-1.43-.37-2.54.71-3.44,1.7-2.73,3-5.68,6-6.7,10.11-1.7,6.93-5,13.23-6.93,20.06-.73,2.33-.34,4.81-.89,7.16-.28,1.62-.55,3.24-.86,4.86-.6,7.91-1.39,15.76-6.4,22.35-1,1.27-1.31.14-3.44,2.88-1.94.74-.32,1.06-2,3.79C963.92,761.28,962.27,762.21,962.29,764.73Z"
            fill="#53443b" />
        <path
            d="M999.4,720.74c-.36-1.92-.73-3.84-1.29-6.81-4.1,10.32-7.52,19.85-11.65,29-2.9,6.46-9.8,9.72-13.17,16-6.38,12-16.41,21.3-22.91,33.39-2.56,4.78-6.66,10.14-13.06,11.81-3.57.94-4.86,5.2-7.81,7.23-10.45,7.19-22.06,12-33.35,17.47-1.16.57-2.63.43-3.31,1.88,12.66-2.78,24.68-6.86,36-13.86,7.26-4.47,15.76-6.76,21.37-14,8.27,3.22,10-5.64,14.75-8.78a15.45,15.45,0,0,0,7-10.27c.85-4.11,4-6.93,7.36-9.41,4.36-3.24,7.49-7.08,8.56-13.14.77-4.31,2.11-9.56,7.41-11.29,4.21-5.47,1.63-12.11,2.91-18.09.4-1.91-.94-4,.12-6l1.29-1.22Z"
            fill="#443730" />
        <path d="M892.85,830.79,873,833A30.72,30.72,0,0,0,892.85,830.79Z" fill="#443730" />
        <path
            d="M942.79,641.81l.34,6.44c.72,3.86-1.16,7.38-5,10.65-1.22,10.27-1.19,20.47-4.58,30.86-1.82,5.56-.9,11.59,1.25,17.3,1.83,4.86.64,10.29-.28,15.54-.75,4.31-2.43,8.84,2.28,12.39a1.7,1.7,0,0,0,1.77-.46c1.72-2.42-.35-4.92,1.62-7.34a18.21,18.21,0,0,0,1.67-8.62c-.56-11.53-3.38-22.87-1-34.66-.39-.51.71.1-.15.15-.09,0-.06.13,0,.4a2.33,2.33,0,0,0,1,1.85c5.22-.53,2-3.53,4.07-5a5.92,5.92,0,0,0,1-4.06c-1.79-9.38,1.32-18.76,4.57-28.14a11.51,11.51,0,0,0-.55-5.65C949.6,640.69,946.56,640.11,942.79,641.81Z"
            fill="#6b5b53" />
        <path
            d="M924.19,615.07q0,18.67,0,37.34l1,.23q1-5,2-10c3.47-2,2.09-5.46,2.59-8.46.43-2.55-1.57-4.78-.38-7.25h0a28.35,28.35,0,0,0-1.39-13.7l.08,0C926.19,612.52,925.08,613.53,924.19,615.07Z"
            fill="#77695f" />
        <path
            d="M422.22,883.46a21.43,21.43,0,0,0,7.3,6.13c4.64-.91,6,2.45,7.46,6,1.9,4.66,8.24,7.75,12.7,6.35a4.37,4.37,0,0,0,3.2-4.63,44.57,44.57,0,0,1,3.56-18.55c2.68,1.63,4.88,4.18,7.6,6,3.65,2.4,6.64,2.52,8-2.6a12.25,12.25,0,0,0,.38-1.82c-.26-3.14,1-5.75,2.73-8.2a5.83,5.83,0,0,0,.19-1.86c-4.89-4.85-7.75-4.43-14.15,2.22-3.29-3.25-4-8-6.34-11.74a12.13,12.13,0,0,0-1.19-1.47c-1.73-1.38-3.76-3.4-5,.16s-1,3.71-5,3.76c-1.34,0-2.54.53-3.83.44-2-.89-4.49.16-6.28-1.67-6.19-1.29-7.26,3.37-8.32,7.85-.3,1.27.71,2.27-1.46,3.46C418.83,875.92,418.79,878.3,422.22,883.46Z"
            fill="#7b6e60" />
        <path
            d="M471.37,880.68c-1.46,4.63-3.72,5.76-7.36,2a46,46,0,0,0-10.46-8.53c3.39,6.74-3.29,11.46-2,17.15.12.53-.7,1.23-.7,1.85,0,2.77,2.77,7.68-2.13,7.13-3.29-.37-10.21,2.17-10.39-6.27-.06-2.6-2.64-5.7-4.85-7.57-4.08-3.46-.86,4.39-4,3.13.26.85,1,2.1.71,2.49-5.26,6.79-1.74,12.18,2.88,16.78,4.2,4.16,7.05,10,13,12.1a17.38,17.38,0,0,0,3.16.9c9.7.88,9.71.86,9.33-9.17-.06-1.59-.53-3.54.8-4.5,5.94-4.33,7.73-10.85,8.8-17.64.41-2.63,3-2.43,3.79-4.3S473.25,882.33,471.37,880.68Z"
            fill="#5a4d42" />
        <path
            d="M430.73,849.22c1.09-4.35,4-10.5.27-12.65-4-2.34-7.73,3.21-10.81,6.68-5.83,6.55-13.17,9.24-21.66,8.74-4.09-.24-6.95,2.17-9.75,4.75a22.38,22.38,0,0,1,.15,2.71c-.58,10.1-.57,10,9,11,4.31.47,7.55,5.66,12.61,3.24a3.58,3.58,0,0,0,5.27-.83c4.1-5.21,9.95-8.94,12.44-15.53C429.5,854.77,429.36,851.75,430.73,849.22Z"
            fill="#2d241b" />
        <path
            d="M427.46,856.52c-5.18,6.22-9,13.91-16.94,17.17,1.87,5.87,7.79,6.52,11.7,9.77-2.1-6.66-1.6-7.43,4.7-7.76,2.67-.13,1.83-1.42,1-3.13-2.4-5-.15-8.83,5.48-9.7,2-3.43-.48-5.33-2.44-7.28C429.53,854.13,428.3,854.81,427.46,856.52Z"
            fill="#574b40" />
        <path
            d="M427.46,856.52c4.08,0,5.26,2.94,6,6.35.69,1.43.41,4.52,3.36,1.84,1.59-1.45,2,.36,2.47,1.45,3.28-4.16,8.71-6.37,9.8-12.59,3,1.81,2.69,5,4.18,7l0,0c1.4.84,2.61.34,3.76-.56,4.57-4.42,11-3.36,16.28-5.76,3.22-1.45,5.87-2.84,5.45-6.53-1.13-10-3.91-19.47-9.56-27.83-6.7,4.68-1.24,11.41-2.81,17.36-3.43-1.45-2.53-5.36-4.16-7.67-.58-.8-.25-2.72-1.72-2.32s-.81,2.26-1,3.5c-.57,1.06-.09,2.23-.4,3.45-2.91-2.8-2.25-6.59-2.83-10,.11-1.49,1.7-3.19-.59-4.32q-2.3,3.72-4.57,7.45c-1.81,3,1,5.54,1,9.36-4.15-3.77-6.93-8.88-12.81-8-4.42,4.42-1.06,10.29.56,12.82,4.42,6.93.4,9.38-3.58,14.88,1-5.62-5.89-2.91-5.61-7.29C428.18,851,427.69,853.67,427.46,856.52Z"
            fill="#4b3d35" />
        <path
            d="M439.36,828.81c4,1.73,7.69,3.93,9.22,8.51.6,1.82,1.77,2.9,3.36,2.3,2.42-.92,3.07-3.4,2.27-5.62s-3.11-3.82-3.06-6.58c-2.26,1.71-4.59.57-6.89.36-.36-1.91,2-3.29.57-5.4-1.78,2-2.72,4.8-5.64,5.22C439.25,828,439.31,828.4,439.36,828.81Z"
            fill="#615348" />
        <path
            d="M541.63,678.73a45.23,45.23,0,0,0,5-1.4c1.24-.49,2.19-3,3.7-.79,1,1.41.47,3-.91,4.25-1.22,1.09-2.35,2.43-.87,4.05s3.25,1.32,4.92.46,3.44-1.57,4-3.43c3.07-10.7,10-19.2,14.89-28.89,1.08-2.18,2.22-4.53,1.9-7.19-3.6,1.78-5.2,6.39-9.47,7.21-2.71,7.09-8.48,11.21-14.17,15.28A29.86,29.86,0,0,0,541.63,678.73Z"
            fill="#6f6055" />
        <path
            d="M858.61,781.15c2.33-3.18,4.35-5.59,6-8.26,1-1.62,2.48-3.69.66-5.61-1.63-1.72-3.63-1.09-5.53-.13-2.77,1.39-5.56,2.73-8.38,4a1.73,1.73,0,0,1-2.6-1.2c-.11-.59.69-1.57,1.31-2.07,7.6-6.25,7.57-6.21,2.57-14.91a21.19,21.19,0,0,1-1.71-5.11c-.35-1.31-.54-3.56-1.83-3.21-6,1.64-9.18-3-13.59-5.38-5.3-2.91-10.8,1.4-11.46,7.73-.53,5-2.51,9.21-6.88,11.85-1.28.77-2.28,1.75-3.95,0-3.82-4.06-8.85-2.4-11.77.31-3.38,3.14-4.85,8.26-.78,12.84,1.64,1.84,2.77,4.56,4.76,5.61,9.49,5,13.67,15.11,20.71,22.39,4,4.12,7.32,10.85,15.25,8.36,2.18-.69,3.87,1.9,5.19,3.69,2.22,3,4.38,5.19,8.22,2.38,3-2.17,8-2.67,4.89-8.77-1.07-2.07-1.1-4.94,1.66-6.64,1.23-.76,3.13-1.73,1.47-3.64-1.43-1.65-3.17-1.3-4.64.24a24.58,24.58,0,0,1-2.31,2.46c-1.67,1.31-2.87,0-4-1-1.51-1.38-1.16-2.71.11-4.11,3.2-3.54,7.47-4.63,11.79-5.4,1.38-.25,3.32,1.14,4-.94.84-2.51-1.77-2.67-3-3.76C863.1,781.34,861,781.77,858.61,781.15Z"
            fill="#706258" />
        <path
            d="M726,716.31c3.53,6.65,10.08,10,15.37,14.61,4.47,3.93,8.91,7.85,13.25,11.94,10.9,10.27,22.88,19.3,34.43,28.83,3.24-2.06,2.69-5,1.52-7.88-1.85-4.47-1.91-7.75,3.43-9.69,3.12-1.12,4.56-4,1.84-7-3.46-3.85-3-9-4.58-13.43-1.15-3.25,1.69-4.95,3.56-6.73,5.77-5.46,12.87-9.72,14.36-18.8.3-1.88,1-4.89-1.25-3.41-7,4.67-15.72,1-22.45,6.25-4.57,3.59-4.72,6.52-.89,10.66,3,3.24,3.95,8,1.51,11.37-2.23,3.06-1.19,8.59-5.81,9.38-3.49.6-7.64-.06-9.51-3.49A43.57,43.57,0,0,0,764.9,730a7.89,7.89,0,0,0-3.7-2.73c-10.61-2.67-12.85-10.63-12.15-20.5-3,1.15-6,2.17-7.54,5.6-.72-1.37-1.67-2.55-2.4-3.83-1.41-2.48-1.67-4.78,1.81-5.69,4.13-1.09,4-3.44,1.78-6.42-3.3,3.07-5.49.91-7.3-1.85-1.43-2.18-3.89-3.65-4.28-6.55-6.51-.69-8.35,1.62-5.86,7.39a12,12,0,0,0,2.33,4.13c3.87,3.61,3.71,8,2.46,12.58C730.14,715,728,715.63,726,716.31Z"
            fill="#55493e" />
        <path
            d="M731,713c2.3-5.21,2.72-9.32-2-14.3-6-6.38-5-8.55,2.1-10.66,4.88-1.11,4.69-6.42,7.28-9.41,3.36-3.87,8-6.15,11.4-10.15,2.47-2.93,19.54-8.2,23.87-7.86-2.36,2.47-3.87,5-7.22,5.47-1.36.17-3.74-.15-3.19,2.24.5,2.16,2.77,2.08,4.5,1.6,3.54-1,6.22-4.31,10.33-3.87,1.41.16,2.89-.41,5.07-.77-2.3-3.3-7.3-5.09-2.76-10.1,1.61-1.77-2.82-3.91-4.27-3.48-4.2,1.23-8.31-.86-12.17.11-3.25.82-8.92-1.9-9.32,5.25,0,.57-4,.9-6.15,1.34-2.82.57-5.65,1.11-7.44,3.84a20.71,20.71,0,0,1-4,3.39c-4.08,3.65-9.76,4.32-13.86,8a6.06,6.06,0,0,0,0,2.84c.72,5,3.55,10.69-4,12.91-4.74,4.86-4.39,9.75,1.18,11.75,2.87,1,2.84,3.72,4.29,5.5C726.57,708.93,726.31,713.61,731,713Z"
            fill="#493a34" />
        <path
            d="M742.7,696.43c-.5,1.82,2.45,6.31-3.35,4-2.16-.86-4.38,6.16-2.66,8.83.24.36.69.56,1,.9a36.86,36.86,0,0,0,5.42,4.82c-1.82-5.72,6.11-3.82,6-8.21,4.54-9.38,13.52-13.22,21.37-18.48,1.52-1,5.13-1.82,3.58-3.7-2-2.43-4.44-7.74-8-5.65C757.72,683.87,747.11,685.85,742.7,696.43Z"
            fill="#3d312c" />
        <path
            d="M759.59,705.52c-.47,4.6,3.36,8.91.52,13.81-1,1.72,1,3.26,2.51,4.28a3.08,3.08,0,0,0,4.67-.8c3.88-5.67,9.34-9.22,14.84-12.9,4.1-2.75,7.31-7,13.78-5.83-2.86-4.53-5.63-3.5-8.26-2.4-4.46,1.87-8.63,4.15-13.26-.1-2.59-2.37-4.15.7-5.76,2.51-2.94,3.3-5.24,3-6.61-1.49C759.81,702.32,759.18,703.46,759.59,705.52Z"
            fill="#55493e" />
        <path
            d="M724.3,674.78c3.34-3.49,8.63-3.24,12-6.71a14.8,14.8,0,0,1,2.06-1.52c-.82-3.53,1-3.9,3.66-3.3,1.18-3,5.67-1.3,6.48-4.85l-.54-.07c-1.2-1.41-.88-2.25.85-2.78,1.44-.44,3,.42,4.37-.6-.21-4.09-2.39-5.4-6.09-4.79-2.13.34-4.29.46-6.44.68-6.9,1.57-11.48,7.4-17.63,10.34-3,3.31-4,10-1.89,13.37C722,675.86,723.15,676.08,724.3,674.78Z"
            fill="#78695c" />
        <path
            d="M759.59,705.52A4.49,4.49,0,0,1,762,702.6c1.43-3.88,7.23-3.65,7.57-9.16-5.43,1.52-8.91,5.65-12.81,9-1.09.93-2.77,2.53-1.67,4C756.68,708.56,758.16,706.31,759.59,705.52Z"
            fill="#897b6c" />
        <path
            d="M840.17,694.26c.79,3.39,3.5,3.79,6.09,4.17.83.13,2.1-1.07,1.45-1.6-2.55-2.12-1.28-7.32-5.14-7.66C840.81,689,840.64,692.32,840.17,694.26Z"
            fill="#6b5b53" />
        <path
            d="M753.17,655a9.48,9.48,0,0,0-5.82-.69c-1.45.37-3.46.25-3.12,2.58s2.23,1.63,3.72,1.49C748.85,655.81,752.65,658.11,753.17,655Z"
            fill="#a79a89" />
        <path
            d="M775.5,795.41c2.72,7.25,7.78,12.94,12,19.22a14.79,14.79,0,0,1,2.94,8.17c1.81.48,3.86,2.12,5.15-.66,1-2.18,2.28-4.31.72-7-5-8.78-10.11-17.54-11-28.09-.08-1-.94-2.52-1.68-2.68-4.64-1-4.39-4-3.5-7.74.61-2.57-1.16-4.22-3-5.65a12.09,12.09,0,0,1-4.79-7.13c-10.1-8.24-20.17-16.54-30.33-24.71-5.7-4.58-10-10.9-16.42-14.53-3.17,3.59-1.21,6.69,1.49,8.78a45,45,0,0,1,9.73,11c4.28,6.38,11.67,8.83,17.26,13.66,2.87,2.49,6.29,4.46,8.18,7.8C767.55,775.21,774.09,784.08,775.5,795.41Z"
            fill="#544943" />
        <path
            d="M731,713c-3.83-2.06-4.21-6.56-6.09-9.9-1.48-2.64-.71-6.74-5.57-3.39-1.42,1-2.12-1.45-1.82-2.59.67-2.58-.09-5.48,1.69-7.77.41-.81.8-1.64,1.24-2.43,1.23-2.23,1.58-5.15-.71-6-2.83-1-3.33,2-3.58,4.31-.17,1.54.23,3.6-1.93,3.64-1.57,0-1.48-2-2.12-3.08-3.1-5.4-5.4-11.5-11.55-14.34-2.17-1-3-3.2-1.21-5.05,5.61-5.84.13-9.32-3.16-11.23-5.64-3.28-5.18-5.53-.81-9.22,5-4.21,8.13-10.45,14-13.74,3.87-4.22,8.94-6.3,13.87-8.76,3.1-1.55.36,1.55,1.33,1.43a52.38,52.38,0,0,1,20.09-2.24c1.2.11,3,.05,3-1.77,0-.86-1.18-2.47-1.87-2.49-6.45-.26-7.28-7.06-13-9.94,8.91-3.44,14.68-1.45,19.42,4.8.88,1.15,2.22,3,3.77,1.86,1.9-1.38-1.44-2.4-.77-4.11,2.62-.17,3.59,2,4.88,3.75,1,1.39,2.3,1.47,3.37.27,1.57-1.74-.35-2.38-1.26-3a63.82,63.82,0,0,0-19.29-8.66,43.77,43.77,0,0,1-6.26-2.18c-1.51-.62-3.24-2.08-1.83-3.56,5.33-5.59.83-6.22-3.08-7.86-1.78-.74-4.9-2.2-3.73-4.76,1.35-3,4.19-1,6.28-.16,1.79.71,3.32,2.21,6.51,1.43-7-5.89-15.6-5.27-22.39-9.17-3.5-2.09-7.44-1.51-11-1.17-14.74,1.42-29.54,2.91-42.39,11.78-1.72,2.21-6.36,2.61-5.48,6.07,1.1,4.36.5,9.28,3.37,13.09,1.24,1.64,2.9,3,5.08,2.73,2.56-.32,2-2.5,2-4.29,0-2.29,1.32-3.61,3.33-3.31,4.13.62,7.19-1.59,10.46-3.51a26.81,26.81,0,0,1,10.78-3.14c7-.78,14.12-1.11,20.76-4.12,1.78-.8,3.83-1.49,5.65,1.31a29.8,29.8,0,0,1-12.47,4.7c-5.5.63-11,1.11-16.48,1.92-4.5.67-8.64,2.22-11.31,6.36-1,1.62-2.87,3.35-1.35,5.53s3.86,1.73,6,.62c2.54-1.33,4.91-3.25,8.78-2-2.45,3-4.54,5.54-.92,9.41,5.16,5.54,4.63,7-1.57,11.66-1.6,1.18-3.13,2.61-5.83,2.3-.07-2.35,4.14-5.34-.23-7.16-3.61-1.5-6.71-1.17-9.16,2.75s-3.76,6.44-1.41,12A100.16,100.16,0,0,0,691.4,666.8a39.87,39.87,0,0,1,6.72,12.4c9.08,9.91,14.45,22.55,22.73,33,1.33,1.68,3.4,2.74,5.13,4.08C729.94,718.91,731.71,718,731,713Z"
            fill="#5d5046" />
        <path
            d="M698.12,679.2c.85-8-4.63-12.8-8.92-17.86-5-5.85-9.93-11.44-11-19.54-.09-.67-.1-1.72-.49-1.94-7.62-4.33-.25-8.31.87-11.68s5.14-1.22,8-.59a7.73,7.73,0,0,1-.48,1.6c-1.23,1.8-5.64,2.09-3.55,5.19,1.3,1.92,4.75,2,7.19-.11a39,39,0,0,1,4.72-3.73c5.17-3.26,6.78-7.08,1.37-11.38-6.8-5.41-2.32-7,3.43-8.73-5.43-4-9.92-4.75-14.49-.28-1.22,1.19-2.66,2.06-4.13.85-2.11-1.75.48-2.79,1-3.91,2.2-4.68,6.56-5.76,11-6.29,9.72-1.17,19.48-1.95,29-4.75,3.19-.94,1.39-3.24,1.22-4.29-.52-3.43-3.24-4.24-6-3.1A53.57,53.57,0,0,1,701,593c-7.86.67-16,.79-22.36,6.84-1,1-2.32,1.45-3.62.46-3-2.29-4.82.15-6.85,1.84-2.76,2.3,1,3.9.33,7.37-3.14-2.56-7-3.13-5.76-8.54a4.32,4.32,0,0,0-.35-3.23c-3.75-4.27-.61-5.92,2.51-7.65q-5.27-14.22,8.07-17.31c1.69-.4,3.53-.45,4.62-2.2-3-6.52-7.93-5.33-12.83-3.06-3.42,1.59-6.62,3.66-9.93,5.51-3.73,2.08-5.28.44-5.48-3.48-1.09,1.71-1.93,3.69-3.31,5.08-6.86,6.88-4.8,13.82-.56,21,.84,1.41,1.81,2,3.21,1.74,5.83-1,7.44,2.29,8.61,7.65a20.23,20.23,0,0,0,8.36,12.74c1.72,1.16,3.41,3.08,1.64,5.12-2.19,2.51-2.91-.65-3.77-1.8-2.09-2.79-5.05-2.53-7.86-2.73-1.26-.09-2.65.8-3.84.54-5.45-1.16-5.43-1.25-4.87,5.06,17.66,12.71,30.35,30.28,43.31,47.59,1.06,1.43,1.64,3.28,3.47,4C695.51,676.37,696,678.84,698.12,679.2Z"
            fill="#52453c" />
        <path
            d="M665.27,657.78c1.13,9.62-7.81,11.46-12.19,16.78-1.9,2.31-4.17-1.64-6.05-.59-6.47,3.6-12.48,1.68-18.68-.75-4.55-1.79-7.5-.42-7.48,5.34,0,1.76-.76,3.52-1.18,5.28a43.8,43.8,0,0,0,12.3-1.76c2.73-.72,4.88,0,6.14,2.56,2.2,4.54,3,9.54,3.7,14.48.31,2.14-1.23,4.93-3.3,4-6.48-2.89-10.26,1.93-14.84,4.66a2.08,2.08,0,0,0-.32,2c5.45,5.49,16.71,6.19,21.37.64,3.94-4.68,8.41-5.62,13.65-4.25,5.53,1.44,9.09-.11,10.38-6.11.44-2-.53-3.44-1.9-4.67,5.21-1,10.37-2.46,15.68-.78.44,0,.85-.22,1.28-.29,2.76-.42,2.84-5.69,5.92-4.34,3.38,1.47,4.68,5.58,5.46,9,1.25,5.4,3.58,8.66,9.2,8.66,2.17.18,4.18-.18,5.71-2q-8.82-14.24-17.65-28.47c-.62-4.45-3.35-7.36-6.87-9.44C679.08,663.85,673.65,657.56,665.27,657.78Z"
            fill="#55483f" />
        <path
            d="M703.58,706.34c-8.21-.75-5.05-9.87-9.25-13.7-.92-.83-1-2.92-2.24-4-2.7-2.33-5.31-4.45-6.32,1.38a3.92,3.92,0,0,1-3.57,3.48c-8,8.06-10.46,24.52-5.25,34.35a5.9,5.9,0,0,0,2.86,2.72c1,.45,2.86.38,2.91,1.27.4,7.14,7.87,9.47,9.6,15.41,1.34,4.62,3.81,7,8.24,7.53,2.68.77,1.91,4.64,4.53,5.46l17.78,3.67c-.91-5.57-4.79-8.49-9.25-10.53-10.61-4.85-16.17-14.89-14.23-26.57.58-3.5.17-6.4-2.9-8.43-4.76-3.15-5.6-7.77-4.64-13.31a7.39,7.39,0,0,1,3.55,5.56c1.18,7.48,6.33,10.37,12.53,11.3s9.47,4.79,12.89,9.63a105.17,105.17,0,0,0,26,26c5.39,3.75,9.45,8.9,13.59,13.93,1.72,2.08,3,4.51,4.92,6.49.88,0-.47,1.36-.15.51.07-.17-.15-.19-.58-.33a3.74,3.74,0,0,0-3.19.39c-1.3,1.4-2,2.87-.48,4.58a2.94,2.94,0,0,1,2.77,1.11c4.69.9,4.93,6,7.61,8.75l4.18,2.47a6.79,6.79,0,0,0,.3-7.78c-6.81-10.78-9.56-24-21.69-31.68-7.27-4.59-16.81-8.38-19.71-18.81-.37-1.31-2.76-2-4.22-3-3.34-2.25-5.83-4.94-4.63-9.56l-3.08-3.73c-2-1-4-2.15-6.11-2.47-4.65-.71-7.54-3-8.71-7.83C707.13,708.45,705.43,707.24,703.58,706.34Z"
            fill="#62534c" />
        <path
            d="M665.27,657.78c10.08,4.94,20.28,9.68,27.2,19.36.44-.56.88-1.11,1.31-1.67-1.47-6.28-6-10.63-9.69-15.25-9.67-12-19-24.36-31-34.13a9.32,9.32,0,0,0-6.12-2.18c-4.61,1.07-7.45,7.14-5.15,11.16,1.31,2.29,3.07,4.37,2.92,7.29Z"
            fill="#251c1b" />
        <path
            d="M703.58,706.34a45.37,45.37,0,0,1,2.75,4.7c3.12,7,8.13,10.11,16.14,9.81-2.65-6.36-10.68-8-12.34-15.24Z"
            fill="#544943" />
        <path
            d="M586.33,854c5.23,1.85,8,13.18,4,18.34-2.6,3.37-3.68,5.89-.48,9.47,1.73,1.94,1,4.7.51,7.25s-.24,5,2,6.86c2.51,2.1,3.33-1.39,5-1.54A36.79,36.79,0,0,1,611,896c1.18.36,2.81,2.56,3.25,1.61,2.76-6,8.62-6.79,13.44-8.38,5.23-1.73,9.39-7.53,15.82-5,1.64.63,2.45-.67,3.24-1.71,2.7-3.57,5.82-6.92,7.84-10.87s5.71-8.8-1.61-11.89a3.34,3.34,0,0,1-1.43-4.71c1.47-2.29,3-.36,4.59,0,3.44.84,5.2,2.81,5.87,6.43a18.34,18.34,0,0,0,4.24,9.36c1.48-3.49-1-5.94.77-8.61,2.78,1.55,6.31,2.29,8.58-.32s.31-5.56-1.09-8.24c-1.75-3.34-.41-5.71,3-5.62,6.71.19,8.62-2.67,7.91-9.46-.64-6.11,4.43-9.6,8.13-13.45,1.08-1.13,2.68-1.76,3.64-3,3.93-4.89,7.57-6.89,10.55,1,9-7,3-14.43.86-21-1.56-4.93-2.65-11.26-7.42-14-8.58-4.89-13-11.81-12.9-21.86-4.93,6-4.42,16.05,1.78,22,2.42,2.34,2.18,4,1.93,7-.49,5.72-2.36,11.16-2.51,16.94-.13,5.14-2.3,8.42-8,8.81-9.56.64-11.49,2.91-11.43,12.67,0,3.6-1.79,4.59-4.45,4.45a19.24,19.24,0,0,0-12,2.75c-2,1.24-4.9,1.7-6.93-.08s-.66-4.29-.19-6.47a38.7,38.7,0,0,0,1.09-5.39c.24-3.18-.1-6.48-3.8-6.87-3.37-.36-4.92,2.6-6,5.5-.8,2.22.58,4.42.65,7.2-3.9-6.07-4.69-6.19-8.5-1.26-1.16,1.5-2.3,2.77-4.18,3.12-5.58,2-11.6.9-17.28,3.15-4.4,1.74-7.58,3.69-7.92,8.73-.24,3.45-1.28,3.92-4.12,2.18-4-2.47-7.94-3-10.48,2.36C586.1,853.38,586.21,853.68,586.33,854Z"
            fill="#493c34" />
        <path
            d="M701.74,753.7c-4.77-.76-7.52-3.32-8.28-8.55-.38-2.54-1.63-5.28-5.08-5.42a2.41,2.41,0,0,1-2.56-2.58c.81-5.22-.37-8.36-6.25-8.11-1.4.06-1.14-2.07-1.63-3.24-4.86-11.71-.49-22,4.26-32.31-5.84-4.56-11.86,1.52-17.78-.19-.31-.09-1.33,1.2-1.44,1.94-.16,1.08.85,1.5,1.76,1.49,1.75,0,3,.51,3.34,2.5,4.67,4.65,4.64,5.42-.4,10-7.14,6.45-7.15,6.67-.56,13.66,2,2.13,2,2.13,1.76,5.78,1-3.4-1.55-5.62-4.68-7.23-2.73-1.41-4.19-3.14-3.43-6.48.5-2.18,0-4.18-2.21-5.16-1.93-.85-3.34.37-4.82,1.45-10,7.29-11,13.24-3.15,23.4,3.29,4.23,6.45,7,2,13.19-2.52,3.52-2.74,9.37-5,13.93-1.6,3.29-3.09,6.42-5.55,9.21-3.77,4.3-3.87,8.65-1.22,14.58-3.86-1.46-4.06-1.44-4.3-4.57-.16-2.17-.08-4.21-2.54-4.93-1.72-.51-4.27.8-4.7-2.4-.38-2.75-.78-5.53.61-8.08,1.54-2.81,5.66-4.8,3.25-8.85-2.2-3.69-6.29-3.85-10-4.45a16.65,16.65,0,0,0-2-.22,6.07,6.07,0,0,0-4.76,2.07c-2.23,2.57-1.93,4.37,1.55,5.35,7,2,6.93,2.56,2.95,8.69-4.59,7-9.67,14-10.72,22.81-.5,4.16-.5,8.16,5.47,7.06a8,8,0,0,0,4-5.46c.58-2.17-1.15-5.76,2.49-6,2.64-.2,3.16,2.72,3.58,5,.47,2.58,1.85,4,4.39,4.29a5.86,5.86,0,0,1,5.13,4.63,16,16,0,0,0,1,2.72c3.45,5.76,7.27-.12,10.9.36,5.71-2.4,3.75-7.47,3.69-12.79,2.84,2.52,5.36,4.38,8.85,3.23,1.76-.58,3.81.06,3.93,2.44.14,2.77-1.87,3.31-4.08,3.18a18.34,18.34,0,0,0-3.31-.13c-6.44.82-9.48,5.88-7.11,12.06,2.27,5.93,3.89,12.88,12.66,10.22,8.13,6.35,7.38-.33,10.27-5.82,3.22-6.12,5.23-11.22,3.42-17.84-.23-.83-.54-.19,0-.61,6.2-4.93,2.37-11.64,3-17.52.26-2.46,2.35-3.16,3.45-4.76,2.13-3.1,6.47-5.12,5-10.14a2.91,2.91,0,0,0-1.59-2.6c-2.54-2.21-6.12-2-8.78-4.31-2.41-2.11-5-.09-7.17,1.53-3.4,2.51-5.74,6.28-9.38,8.6a31.35,31.35,0,0,1,.84-15.48c1.3-4.28,1.27-8.17,8.1-7.18,4.79.69,9.23-3.86,10.13-10.21,2.24,1.22,1.83,2.9,1.67,4.28-.6,5.17.08,9,6.36,9.49,3.68.27,4.94,4.2,7.08,6.72,1.36,1.61,1.74,4.92,4.56,4.08C701.38,759.15,701.69,756.3,701.74,753.7Z"
            fill="#5a4d44" />
        <path
            d="M469.19,820c2.52,7.74,5.21,15.42,7.53,23.23,2.09,7,0,6.76-6,9.49-4.87,2.19-11.64.15-14.89,6.21a12.35,12.35,0,0,0,8,2.54c7.65-.55,8.68.4,10.58,9.25,0,.44,0,.87.08,1.31a74.12,74.12,0,0,0-3.12,8.72v0c.21,1.86.42,3.71.64,5.57,2.94-1.9,4-5.51,7.13-7.57,3.44-2.28-2.38-6,.12-9.2,2.32-.86,4.92,7.87,7-.12-3.33-3.5-2.5-10.05-8.29-12.16,2.16-.27,2.68-3.91,6.17-1.53s1,4,.37,5.57c-1.37,3.32,1.79,5.3,1.75,8.13,6.14-.21,9.35,3.66,12,8.77,1.1,2.1.2,6,4.17,6,9.2-6.42,20.32-6.32,30.45-9.59,2.34-.75,4.29-1,4-4.08,2.44,3.3,4.09,9,9.42,2.85,3.29-3.82,5.72,2.36,8.92,1.26,2.3-.91,3.32-2.89,3.75-5.19a22.4,22.4,0,0,1,4.28-9.71c3-4,1.5-7.29-3.44-8A29.94,29.94,0,0,1,553,850c-4.16-.87-9.21-.14-10.5-6.22-1.25-2.85,1-9.15-6.16-6.32.09-2.14,1.8-3.52,2-5.45.26-3-.44-5.65-3.09-7s-3.1,1.57-4.43,2.92c-5.21,5.23-12.12,3.34-16.63.94-7.15-3.78-12.74-1-17.68,2.24-4.43,2.91-7.14,3.13-10.56-.46a4.57,4.57,0,0,0-2.34-1.2c-1.11,0-2.4-.19-2.59-1.46C479.83,820.8,475,819.69,469.19,820Z"
            fill="#53463c" />
        <path
            d="M686.9,765c-.08,3.88-2.7,6.24-5.18,8.39-5.84,5.06-7,8.72-3.87,16.17,1,2.32.39,3.87-1.75,4-4.1.18-3.47,2.26-2.54,5,1.91,5.63,3.08,11.13-3.15,15.05-2.56,1.61-1.08,4-.76,6.18.21,1.44-.14,2.88-1.5,3.5-1.69.77-2.52-.79-2.94-1.95-1.42-3.94-3.09-3.91-5.36-.72-.33.46-1.26,1-1.63.8-2.44-1.14-5.83-2.94-5.68-5.17.28-4.25-6.09-6.93-2.12-11.6,2.43-2.85,5-5.29,9-3,2.66,1.51,4.24-.38,5.7-1.93a4.78,4.78,0,0,0,.27-5.79c-1.26-2.11-3.58-2.58-5.88-2-2,.47-4.08,2.43-5.71-.63-.83-1.56-.52-5.1-3.45-3.4-1.73,1-2.25,4-1.23,6.21,1.82,3.87.69,6.57-2.46,8.82-5.8,1.18-2.91,5.66-3.24,9.51-1.89-3.75-5.94-5.41-6.16-9.85-.09-.91-.19-1.82-.28-2.74-5.36-4.32-11.26-7.28-18.17-7.67a8.76,8.76,0,0,1-3.54,4.56,1.28,1.28,0,0,0-.37,1.08c.08.39.16.58.24.58,2.69,1.79,5.59,3.25,8.11,5.32,1.33.6,2.53,1.54,4,1.78,1.4-.11,2.58-2.52,4.12-.65,2,2.36-.33,3.64-1.49,5.16-1.15,5.61,4.87,4,6.41,6.9-.7,2.22,2.18,7.46-4,5a3.1,3.1,0,0,0-2.54.57,4,4,0,0,0-.68,1.17c-1,2.65-.19,6.81-3.63,7.45s-3.77-3.88-6-5.59c-2.25-4.81-5.29-5.78-10.2-3.43-6.77,3.25-13.47,6.12-15.44,14.65-.37,1.59-1.67,1.79-3,2.21-4.57,1.46-9.2.18-13.8.5-2.45.17-3.52-2.48-4.21-4.71a12.61,12.61,0,0,0-3.89-6.22c-4-3.42-7.11-9.08-13.73-4.12-1.52,1.14-4.75.09-5.91-1.91-1.58-2.74,1.23-3.88,2.84-5.27,1-.88,2.2-1.59,2.38-3.15-1.75-3.16-4.62-3.67-7.34-2.29-3.55,1.81-5.32,5.32-5.59,9.4A6.57,6.57,0,0,0,545.9,828a32.51,32.51,0,0,1,5.41,2.37c.77.6,1.57,1.17,2.33,1.78,2.8,3.88,7.67-1,10.53,2.67.71.42,2.17.11,2.1,1.12s-1.57,1.41-2.34,2.18c-2.28,2-4.06.61-5.89-.82-2.19-1.72-4.5-2.28-6.44.23s-.56,4.77,1,6.83c4.7,6.29,17.65,10.32,25.49,7.4,6.31-2.35,12.31-5,19.12-1.91,2.37,1.08,2.78-1.16,3.24-3,1.37-5.49,2.89-10.19,10.22-9.95,4.16.13,4.68-4,3.39-8.12,1.55,6.72,6.84,8.23,12.15,9.72,2.78,0,4.47-1.39,5.36-4.18.42-1.3.55-3.57,2.87-2.86,1.43.44,1.92,1.78,1.83,3.28s-1.37,3.81,1.23,3.53c2.35-.26,3.12-2.92,3.26-5.22,0-.69-1.06-1.4-1.47-2.19-1.56-3,.82-4.63,2.26-6.53.91-1.18,2.15-1.71,3.42-.55,1.75,1.6,1.53,3.64,1,5.72-.41,1.54-.62,3.15-1.11,4.66-1,3.07-2.49,6.61.27,8.95,2.31,2,7,1.33,8.43.05,4.44-4.07,9.65-3.36,14.29-3.23,5.11.14,4.38-3.15,4.2-5.55-.72-9.17,1.37-12.55,10.07-11.56,7.24.82,8.83-4.67,9.3-8.66.89-7.67.92-15.37,4.14-22.56.57-1.27-.12-2.15-1-2.91-8.3-6.83-9.57-11.44-6.16-22.32Z"
            fill="#51433b" />
        <path
            d="M761.8,778.87c2.84-1,4.16,3.32,8.05,2-8.45-9.06-13.33-20.61-24.92-26.07-3.74-1.76-6.11-6.45-9.47-9.36-6.83-5.93-12.3-13-17.54-20.41-2-2.8-4.73-3.95-8.37-4.5-5.75-.86-11.86-2.14-12.54-10.61-.26-3.29-2.58-8.44-5.63-8.16-4.41.39-.76,5.24-1.45,8.09a7.86,7.86,0,0,0,4.41,9.08c4.65,1.93,4.42,5.06,3.22,8.81-2.28,7.12-2,13.32,5.06,17.56.87.53,1.27,1.85,2,2.71,2.58,3.05,4,6.81,9.36,7.13,3.78.22,5.88,5.74,8.89,8.74a30.26,30.26,0,0,1,9.67,2.94C743.29,768.24,751.59,776,761.8,778.87Z"
            fill="#695b54" />
        <path
            d="M701.74,753.7c-2.27.94-2,3.78-4,6.64-.68-5.47-4.59-7.47-6.11-11.21a3.28,3.28,0,0,0-3.79-2.11c-5.64,1-6.49-1.86-5.46-6.7a16.41,16.41,0,0,0,.07-4.75c-.17-1.87-.66-3.86-3-3.74-1.94.11-2,1.93-2.36,3.55-1.61,7.46-5.7,9.72-12.5,7-2.91-1.18-3.24.73-3.82,2.91a138.35,138.35,0,0,0-3.87,24.2,3.1,3.1,0,0,0,.83,2.34c1,.8,1.92.08,2.78-.82q5-5.28,10.14-10.38c2.17-2.15,4.66-3,6.8-.16s5.26,1.26,7.84,2c-.3-2.25-2.1-2.76-3.74-3.35-2.34-.85-3.93-2-2.9-5,.56-1.66.18-4,2.37-4.44,2.54-.55,3.26,2.07,4.31,3.57,6.44,9.15,8.92,10.11,19.74,7C702.75,758.73,706.83,753.67,701.74,753.7Z"
            fill="#51433b" />
        <path
            d="M555,874.14c-3.72-2.4-7.28-9.34-11.24,0-.94,2.21-2.41,0-3.52-1-2.14-1.91-.88-6-4.2-7.24-2.42,2.11.9,4.32-.31,6.33-1.64,2.73-4-2-5.72.67-1.32,2.08-4.25,1.08-5.07,1.53-7.2,4-17.29.93-22.4,9.73,6.4,5,6.73,4.84,8.61-2.94,2.42,0,3.5,2.45,5.38,3.45s3.17,2.13,3.31-1.22c.06-1.43.48-2.17,1.93-1.17,3.63,2.52,6.78.51,9.17-1.89,1.43-1.44,2.66-1.75,3.94-1.12,3.33,1.65,6.32,4.8,10.14.71.64-.69,1.86.76,2.58,1.63,3.87,4.68,8.14,7.19,14,3.27,1.64-1.1,3.71.08,5.74-.4,6.08-1.45,8.58-4.91,7.64-11.2l-.76-.53c-.42-.13-.88-.15-1.29-.29-5.91-2.05-9-1.76-14.74,1.22C557.22,874.18,556,873.4,555,874.14Z"
            fill="#493c34" />
        <path
            d="M761.8,778.87c-5.88-5.72-13.74-7.94-20.54-12-2-1.18-5.73,1-8.72,0,5.51,6.95,15,7.8,20.8,14.55,1.23,1.43,5.26-.31,7.6,1.69C761.22,781.68,761.51,780.28,761.8,778.87Z"
            fill="#514640" />
        <path
            d="M574.94,873.29c2.35-2.74,5.8-4.78,4.58-9.55-.51-2,1.28-3.1,3-3.9a5.83,5.83,0,0,0,3.77-5.85h0c-6-2.79-12.07-1.14-15.58,4.18-1.47,2.22-2.47,4.57-.61,6.94s2.49,5.91,4.79,8.18Z"
            fill="#493c34" />
        <path
            d="M771.32,792.94c-1.29-4.08-.91-9.73-7.61-8.75C767,786.43,767.65,791.09,771.32,792.94Z"
            fill="#544943" />
        <path
            d="M564.51,906.09c1.39-.48,1.38-1.62.71-2.64-.77-1.18-.44-3.62-2.71-3.19-1.29.25-1.52,1.57-1,2.74S562.15,906.38,564.51,906.09Z"
            fill="#2c2417" />
        <path
            d="M794.59,654.5l3,3.87c1.5-1.25,4-2.75,2.78-4.67C798.69,651.08,796.65,654.75,794.59,654.5Z"
            fill="#5e5148" />
        <path
            d="M733.49,647.39c3.06-1.83,6.23-3.47,8.73-6.16.59-.62,1.82-1.66,1.94-1.55,6.37,5.7,11.66-5,18.55-.95,6.14,3.57,13.88,3.57,20.7,7.39-2.14-5.34-13.74-13-17.86-11.42-3.37,1.3-5.37.93-7.41-1.79-.35-.48-1.36-1-1.75-.79-6.84,3.4-10.71-3-15.82-5.11-2.13-.9-4-1.3-4.73,1.44-.61,2.26-3.27,3-3.67,4.14-3.7,10-15.93,7.94-20.68,16.14-.91,1.58-4.47,1.84-2.84,4.5,1.22,2,3.28,4.16,5.75,4.27s3.8-2,4.56-4.36c.36-1.06.61-2.17.95-3.42,5.41,4.33,9.65,1.89,13.58-2.34a5.53,5.53,0,0,1-1.34-1.17C732.87,646.28,733,647,733.49,647.39Z"
            fill="#6a5c50" />
        <path
            d="M677.63,570.57c-3.64.72-7.42.28-10.93,2.08-3.34,1.71-6.88,3-3.55,7.81,1,1.49-.1,2.32-1,3.44-2.94,3.8-1.37,5.66,2.76,6.18,7-4.67,14.54-8.36,22.87-9.51,10.16-1.4,20.39-2.31,30.59-3.44,0-.47-.09-1-.13-1.42-9.16-4.15-18.67-4.25-28.28-2.33C685.39,574.29,681.28,573.7,677.63,570.57Z"
            fill="#443932" />
        <path
            d="M724.3,674.78c-4.32-4.13-2.95-8.85-1.29-13.6-3.68-1.57-5.94-3.46-7.21,3.62a95.38,95.38,0,0,0-1.37,15.13c3.32-1.42,5.59-4,8.8-3.5C723.59,675.88,724,675.33,724.3,674.78Z"
            fill="#5d5046" />
        <path
            d="M724.54,624.88l3.41-2.64c-3.57-.24-6.46-.58-8.85,1.36-3.16,2.56-6.61,3.8-10.47,4.86-3.25.89-2.54,3,.71,3.75C715.17,631.47,718.44,625,724.54,624.88Z"
            fill="#8e8075" />
        <path
            d="M832.16,649.28c.37,1.36,1.14,2.05,2.36,1.71a2.07,2.07,0,0,0,1.67-2.43,2.15,2.15,0,0,0-2.45-1.63C832.35,647,832.46,648.4,832.16,649.28Z"
            fill="#77695f" />
        <path
            d="M615.36,798c-.05-.46-.09-.91-.14-1.37-1,.4-1.89,1.25-2.85-.07-2.12-2.91.14-12.63,3.37-14.38.38-.2,1.16-.32,1.15-.43-.55-8.17,6.59-12.37,9.05-18.95.93-2.47-.94-3.47-2.76-4.63-2.34-1.51-4.65.27-7.31-.38.57-3.49,3.28-3.92,5.58-4.84,5.69-1.49,8.91-5.35,9.84-11.28.73-4.61,2.23-8.81,5.41-12.25,1.71-1.83,3.66-3.75,1.76-6.5-1.71-2.48-4.27-2.71-7.09-2.51-3.19.23-6.59,5-9.43.54-1.91-3,.39-6.6,1.09-9.9a24.52,24.52,0,0,1,.51-2.69l0,0c-2.37-6.2-4.18-7-9.87-4.33.92,2.53-.14,4.15-2.32,5.21-8.22-4.47-13.58,3.13-19.9,5.68-4.66,1.88-3,9.16,2.47,11.85,6.71,3.27,13.52,4,20.23-.72-2.73,4.61-6.87,7.51-10.89,10.49-2.64,2-5.34,1.93-7.78-.61a11.6,11.6,0,0,0-3.65-2.9c-2.21-.93-4.6-2.85-6.84-1.13-2.56,2-.75,4.57.18,6.82s1.6,4.37-.57,6.23a3.76,3.76,0,0,1-3,1.12,1.56,1.56,0,0,1-1.18-2.08c2-8.06-4.21-10.15-8.95-10.69-8.25-.93-10.09-7.39-11.41-13.1-1.24-5.37,1.57-11.06,5.05-15.62,1.62-2.11,4.19-3.43,4.95-6.29-.52-5.17,1.36-8.69,6.46-10a2.76,2.76,0,0,0,1-1.6c-.78-1.46-1.77-1.78-3-.58-1.26.36-2.84.34-3.74,1.14-6.1,5.34-8.39,2.13-9.05-5.06-2.56,1.67-.57,4.67-3,5.85-3.34,1.58-3.82,4-.43,6.63,1.55,1.17,2.13,3.53,1,5-5.76,7.45-5,16.52-6,25.08-.57,4.86-5.56,8.06-4.34,13.48.07.33-1.56,1.6-1.89,1.42-5.35-2.84-2.17,1.89-3.07,3.24-1.51,2.29,4.62,8.08-3.26,7.65-.65,0-1.61,6-2.67,10.2-2.33-3.1-5-4.82-5.14-8.62a2.29,2.29,0,0,0-2.22-2.16c-1.51-.06-1.48,1.36-1.73,2.42a12.59,12.59,0,0,1-5,7.85c-.79.56-1.73,2-1.53,2.82,2.76,10.86-6.87,14.11-11.52,20.39a2.87,2.87,0,0,0-1.05,2.88c-1.26,4.31-4.26,7.13-8.31,7.57-11,1.18-11.33,1.38-10.11,12.64-2.38,1.16-5.48-4.64-6.41-.6-1.05,4.62-6.52,8.26-3.54,13.61,1.32,2.37,1.32,4.78,1.8,7.2,2.26.5,3.53-.55,4.06-2.78-1.22-2.3-2.44-4.61-1.37-7.38a9,9,0,0,1,5.12-5.17,8.17,8.17,0,0,0,5.14-6.46c3.58.72,3.32,3.73,4.15,5.9,1.93,5.09,5,7.16,10.69,7,11.64-.39,17.76-7.74,22.39-17.41,6,4.2,7.9,4,12.81-.82,6.73-6.65,9.69-15.11,10.91-24.17,1.42,4.71-.17,11.33,5.75,13.91,3.68,1.6,6.78-.9,9-4.1a8.76,8.76,0,0,0,.87-4c0-4,1.13-6,5.06-3.24,3.4,2.41,6.16.66,9.16-1.09,9.2-5.39,18.29-11.12,29.81-13.49-5.27,5.15-6.08,11.8-8.6,17.64-1.82,4.19-4.14,7.53-8.91,8.3a12.11,12.11,0,0,0-6.83,3.95,18.36,18.36,0,0,1-9.86,5.3c-.43.09-1,0-1.28.3-7,5.41-15.48,6.64-23.65,8.69C556.12,809,555,811,556,812.88c2.19,4.15-1.94.36-1.82,1.71-.83.3-1.66.58-2.47.92-3.53,1.5-6,4-5.46,8.16.33,2.26,10.28,3.51,12.26,1.39,2.38-2.55,3-2.28,5.17.63,3.21,4.3,7.62,7.46,9.24,13.18.73,2.56,3,3.53,6.45,2.55a27.91,27.91,0,0,1,12.69-.49c3.11.61,3.38,0,3.34-2.66-.12-7.95,6.07-10.4,11.33-13.56.85-.52,2.47,0,3.06-.57,4.65-4.94,6.42-.75,8.49,2.68,1.44-1.57,2.51-3.89,1.75-5.54C616.63,813.89,617.9,805.55,615.36,798Z"
            fill="#53463c" />
        <path
            d="M569,697.84c-5.87,4.7-8.38,11.59-11.3,18.28-.87,2-.86,3.3.22,5a22.61,22.61,0,0,1,3.84,8.62c.51,3,2.88,4.61,5.91,4.26,3.86-.45,6.52,2.47,9.87,3.47,2.6.79,2.16,2.93,1.39,5.07s-2,4.74.41,6.18c2.09,1.23,4.06-1.12,6.06-1.9,2.37-.91,3.16-2.81,2.76-5.51-.44-2.95-3.6-4.75-3-8.65,3.73.52,7.06,1.55,9.35,4.81,1.8,2.57,4.23,3.82,6.83,2.22,6.83-4.23,13.73-8.54,16.67-17.16-2.5-.92-3.62.86-5,1.82-5.59,4-14.57,4.37-19.71.48-2-1.49-3.76-3.55-3-6.36a5.13,5.13,0,0,1,4.81-4.09c4.52-.25,7.73-2.94,10.78-6.11,2.88.49,1.25,6.68,5.6,4.93,1.77-.7.7-2.28.15-3.49,1-1.36,2.39-2.54,2.11-4.55,4.78-3.91,7,.47,9.79,3.2,2.44-.18,4.81-.44,6.43-2.8s3.55-2.71,6.22-1.1c4,2.43,8.36-.55,7.59-5.47-.83-5.32-2.63-10.5-4.26-15.65-.72-2.3-2.92-4.54-4.94-3.64-4.83,2.15-10.59.38-14.91,4.15-3.81,5.33-9.89,5.5-15.28,7.23,1.74,5.07,5.37,3.64,8.52,2.31,4.07-1.73,8-2.37,12.17-.7,2.35.94,4.73,2.17,3.88,5.36s-3.39,4.05-6.3,3.3c-5.75-1.46-11.15-4.18-17.23-4.5-8.12-.44-9.27.13-12,7.93-.46,1.34-.68,2.63-2.37,2.79-5.36.52-7.61,4.77-9.89,9,.2,2.07,2.44,3.91.65,6.25-2.21.32-2.41-2.26-3.94-2.9-3.64-1-4.66,1.26-5.22,4.31-.32,1.75-.39,4-2.85,3.88-2.14-.13-2.67-2.12-3.1-3.93s-.83-3.56-1.25-5.34c-.9-3.82-.93-7,4.37-6.62,3.48.26,4.81-1.79,2.63-4.59-2.47-3.16.74-5.61.2-8.4a2.81,2.81,0,0,0-2-2.1A1.94,1.94,0,0,0,569,697.84Z"
            fill="#433731" />
        <path
            d="M587.68,684.68c4.28-5.29,9.78-4.6,14.58-1.94,3.4,1.89,6,4.42,9.88,1.65a9.56,9.56,0,0,0,3.34-10.95c-2.31-5.17-1.79-11.19-5.78-16a23.22,23.22,0,0,0-8.06-6.23c-2.51-1.57-4,.32-5.76,1.69-2.35,1.82-4.49,5.79-7.74,1-.48-.71-1.65-.22-2.48.12-6.14,2.48-12.73,15.56-9.69,21.1,2.14,3.89,6.27,6.64,9.08,10.33A2.3,2.3,0,0,0,587.68,684.68Z"
            fill="#7d6d5f" />
        <path
            d="M570.34,697.66l1.45,1.24c.29,5.92,4.66,12.23-1.75,17.51a3,3,0,0,0-.4,4.29c1,1.32,2.35.83,3.54.16a9.1,9.1,0,0,1,5.69-1,3.26,3.26,0,0,0,2.78-2.69c4.05-2.61,5-10.18,12.25-7.94,1.17.36,1.39-2.48,1.26-4.09-.45-5.71,2.86-7.07,7.44-6.92,6.42.22,12.42,2.25,18.39,4.51,5.32,2,9.55.23,10.45-4.53,1-5.29-3-6.47-6.61-7.71-4.15-1.41-8.22-1.34-12.07,1.13-2.92,1.86-5.74,2.19-8.35-.59l-7-3.35c-6.58.43-13.13-2.64-19.72-.11C573.07,689.28,568.66,691.09,570.34,697.66Z"
            fill="#251d1a" />
        <path
            d="M585.07,684.88c-1.52-3.67-3-6.8-6.74-9.37-2.41-1.64-2.67-8.09.11-11.87,2.46-3.36,5.68-6.12,8.68-9.27,1.93,6,3.56,6.43,7.35,2.13,2-2.31,3.46-5.44,7.17-5.29-6.26-.11-14.48-2.81-18.3.31-5.09,4.14-13.68,9-10.49,19.25a6.28,6.28,0,0,1-.77,5.26c-2.62,4.21-1.23,7.45,2.39,10.09l2.85,1A21.55,21.55,0,0,0,585.07,684.88Z"
            fill="#6f6055" />
        <path
            d="M509.87,786.29a2.94,2.94,0,0,0,1.05-2.88c-.24-2.91-.33-6-4.54-5-2.45,1.82-4.66,1.93-5.39-1.58-.61-2.94-2.1-2.1-3.82-1.61s-3.35,1-2.05,3.07c2.09,3.32-1.73,3.93-2.2,5.37C498.29,787.14,503.81,789.08,509.87,786.29Z"
            fill="#6f6055" />
        <path
            d="M585.07,684.88c-3.28-1.92-5.52.13-7.75,2.21l-.11.18c-.37.37-.46.67-.27.92s.35.34.51.33c6.61-1.1,13.37,2,19.92-.8-2.78-2.55-6.8-.86-9.69-3Z"
            fill="#53463c" />
        <path
            d="M554.22,814.59c.89.5,1.93,1.57,2.65,1.38,1.17-.31,1.34-1.75.63-2.8-1.07-1.6-.34-3,.12-4.5-2-11.87-2-11.78,9-15.73,3.44-1.24,7.52-2.57,4.66-8-8.78,5.76-11.65,3.95-12.17-8-.08-1.86.49-3.67-1.19-5-.66-.51-1.61-1.15-2.27-1-1.3.3-1.29,1.53-1.11,2.78,1.65,11.64-4.28,19.73-11.92,27-2.87,2.7-5.07,2-6.56-1.71-.48-1.19-1.24-2.71-2.9-2.22-1.1.33-1.34,1.59-1.73,2.71-3.87,11.23-12.27,17.46-23.58,16.92-4.13-.19-5.7-4-6.25-7.74-.44-2.94-1.07-5.36-4.23-6.19-2.4-.62-4.84-1.43-3.31,2.82,1.1,3-1.33,2.84-2.86,4-2.46,1.93-7.93,1.6-6.23,7.38.4,2.34-.06,5,2,6.75l-3.63,3.2c.08.91.15,1.82.23,2.73.62,4.3,5.6,4.13,7.21,7.54a1.45,1.45,0,0,0,2.67-.29c2.14-7.34,9.92-4.85,14-8.8a1.73,1.73,0,0,1,1.73.13c3.82,5.4,9.55,3.42,14.55,4,6.71.76,7.93-.11,10.45-6.54,2.83,2.75,4.06,5.32,1.68,8.94-1,1.54-4.61,2.36-1.69,5.33,3.18,3.23,3.49-2.11,5.18-2.23,2.75,1.79-.9,4.87,1.87,6.29a3.86,3.86,0,0,0,2.58-2.84c1-5.66,4.78-8.67,9.38-11a5.48,5.48,0,0,0-4.26-2.87c-4.85-.74-7.25-3.21-5.45-8.33C545.72,812.21,548.12,811.39,554.22,814.59Z"
            fill="#4b3d35" />
        <path
            d="M456.31,824.29c-1.69,6.56-1.35,7.85,3.74,13.78,2.33-2.64,1.14-5-.51-7.24C457,829.42,459.17,825.52,456.31,824.29Z"
            fill="#615348" />
        <path
            d="M967.41,751.9c.16,1.92-.72,3.47-.56,5.39,9.64-6.58,10.58-16.81,10.71-27.37-.67-2.07-2-3-2.4-.22a34.61,34.61,0,0,1-3.45,10.4C969.38,743.63,967.67,750,967.41,751.9Z"
            fill="#53443b" />
        <path
            d="M474.4,870.68c2-4.48-2.39-7.89-2-12.32.1-1.12-3.63.85-5.83.83-3.53,0-7.18-.88-10.77-.3a3,3,0,0,1-2.53,1.75c2.88,5.14,3.81,11.58,9.15,15.64C463.16,869.85,468.37,867.66,474.4,870.68Z"
            fill="#5e5147" />
        <path
            d="M453.23,860.61a25.57,25.57,0,0,0-.31-3.41c-.55-2.48.54-6.38-3.08-6.6-3-.18-3.07,3.4-3.57,5.71-.95,4.43-6.73,5-7,9.85,2.5-2.3,6.66,1.81,8.88-2.52.29-.56,1.23,2.06,2.5,2.81,1.5-2.7-1.27-5-.8-7.45C451.7,858.13,452,860.43,453.23,860.61Z"
            fill="#5e5147" />
        <path
            d="M471.36,880.71c2.28-2.43,4.27-5,3.12-8.72C470.52,873.78,470.72,877.16,471.36,880.71Z"
            fill="#5a4d42" />
        <path
            d="M940.91,766.74c2.11-1.21,3.74-4,6.77-2.19l.84.56c4.78-1,3.63-6.92,7.08-9a4.37,4.37,0,0,0,1.25-3.46q2.22-3.51,4.43-7,1.63-6.07,3.26-12.14l-1.48-.94c-4.59,11.77-13.71,19.89-20.66,29.75C941.24,763.54,938.88,764.35,940.91,766.74Z"
            fill="#6b5b53" />
        <path
            d="M938.05,640c1.81-.79,2-2.46,2.1-4.16-2-3-.89-7.33-4.1-10.07C931.77,631.38,934.35,635.75,938.05,640Z"
            fill="#77695f" />
        <path d="M854.33,759.85c-4.54.56-7.76.84-8,6.13C849.72,765.46,852,764,854.33,759.85Z"
            fill="#5e5148" />
        <path
            d="M788.13,717.3c.33,1.44,1.37,1.51,2.5,1.35s2.09-.87,1.93-2.2a1.7,1.7,0,0,0-2.39-1.5A2.71,2.71,0,0,0,788.13,717.3Z"
            fill="#5e5148" />
        <path
            d="M742,663.25c-.21-1.41-.53-3-2.33-2.47a5.21,5.21,0,0,0-3.77,4.35c-.21,1.64,1.47,1.19,2.44,1.42Z"
            fill="#c1b5a4" />
        <path
            d="M734.81,615.47c-4.46-5.17-9.17-2.87-13.76-2.29a2.22,2.22,0,0,0-1.54,2.66c.25,1.69,1.64,1.12,2.59,1C726.34,616.46,730.57,616,734.81,615.47Z"
            fill="#4b3e37" />
        <path
            d="M623.54,708.4c-3.24,2.16-3,5.9-3.84,9.14-.62,2.51-.48,5,1.52,7,2.35,2.35,4,0,5.86-.83a25.45,25.45,0,0,1,5.6-2,4.78,4.78,0,0,1,5.15,2.32c1.17,2.25-.88,3.24-2.34,4.16-3.58,2.25-5.06,6.58-5.14,9.83-.18,7.24-4.46,10.94-8.9,15,1.33,1.74,3.31.84,5,1.28,6.67,1.78,7,3,2.67,8.7-3.57,4.74-1.49,10.12-.77,15.25a1.27,1.27,0,0,0,2.11.73c5.67-4.41,5.38-1.26,4,3.32-.69,2.24.21,3.67,2.24,4.13a11.15,11.15,0,0,1,6.21,3.58c1.65-2.07.69-3.66-.46-4.93-3.91-4.35-2.41-9.24.36-12.55,5.86-7,9.71-14.52,10.52-23.73.06-.63.33-1.55.77-1.78,8.33-4.34,2.64-8.41-.67-11.44s-4-7.51-6.19-11.15c-1.67-2.81.14-5.69,2.51-7.76,1.85-1.62,3.77-3.15,5.58-4.81,1.06-1,2-1.81,3.45-.75a2.31,2.31,0,0,1,.77,3c-2.31,4.84-1.34,7.45,4.11,8.8,2.53.62,6,2.78,3.09,7.15-1.13,1.7-.69,4,1.52,4.28,1.49.18,2.5-1.52,2.37-3.44-.27-4.14.85-8.41-4.29-11-2.8-1.44-4.69-5.07.36-7.51a13.4,13.4,0,0,0,4.48-4c1.44-1.87,4.37-3.48,3.28-6.23-1-2.47-3.84-2.74-6.32-2.87-2.07,5-4.71,6.85-10.58,4.9-4.88-1.63-10.58-1.56-14,5.23C641.09,714.28,628.67,713.25,623.54,708.4Z"
            fill="#62534c" />
        <path
            d="M574.93,873.28c-.62-3.16.38-6.86-3.45-8.87-2.22-1.17-1-2.95,0-4.57,3.56-5.81,9-6.38,14.83-5.86,2.69-4.26,5.86-5.12,9.45-1.22,1.94,2.09,4.15,1.29,6.08.56,2.27-.87.54-2.63.21-4a4.22,4.22,0,0,1,1-4.31c1.66-1.79,12.83-6.31,15-5.23,3.2,1.6,5.31-1.78,8.12-1.37-4.39-3.46-10.15-5.35-11.8-11.9-.5-2-2.27-.69-3.25.05-1.44,1.08-1.47,2,.51,2.65,2.23.78,2,2.76,1.39,4.57-.48,1.41-1.74,2.43-3.1,2-8.69-2.86-9.36,3.48-10.37,9.53-.19,1.11-.55,2.18-.94,3.66-6.19-3.7-12.18-2.93-18.36.11-9.4,4.63-17.7.95-25.4-4.65-1.78-1.29-4.38-3.51-2.35-6.21,2.51-3.35,4,.16,5.68,1.61,2.74,2.36,5.56,5.08,6.48-1.44a3,3,0,0,0-.42-4.11c-.8-3.16-2.62-5.09-5.43-2.64-2.06,1.8-2.92.37-4.25-.44-2,.52-3.15,2.29-4.62,3.6-3.32,2.93-4.36,6-1.1,9.78,1.6,1.83,1.75,4.64,3.72,6.27,2.12,1.87,3.89,3.77,7.4,2.32,2.41-1,5,2.66,3.27,3.84-6.15,4.28-3.91,12.35-8.28,17.14,3,1.45,6,9.11,6.65,1.83.25-2.82,3-3.58,5.33-.11C568.85,878.67,571.65,875,574.93,873.28Z"
            fill="#4b3d35" />
        <path
            d="M698.51,798.64a3.14,3.14,0,0,0-2.26,3.62c.15,1.12,1,1.6,1.87,1.14a3.89,3.89,0,0,0,2.42-3.69C700.46,798.5,699.41,798.59,698.51,798.64Z"
            fill="#51433b" />
        <path
            d="M703.7,805.18c-.58-.36-1.27-1.14-1.93-1.11a2.17,2.17,0,0,0-2.16,2.66c.11.66,1.17,1.71,1.64,1.63C702.59,808.13,703.37,807,703.7,805.18Z"
            fill="#3a302c" />
        <path
            d="M618.76,792.11l18.17,7.67c-.11-.43-.07-1-.34-1.28-4.37-4-10.48-6.27-12.07-13.26-.33-1.45-2.88-2.47-4.5-1C617.62,786.34,617.36,789.17,618.76,792.11Z"
            fill="#53463c" />
        <path
            d="M637.21,802.52c-2.22,5,2.37,7.08,4.42,10a31.68,31.68,0,0,0,3.91,4.45c1.53-5.11-4.33-10.26,1.07-14.14-1.56-1.73-3.06-1.16-4.36.28C640.23,805.4,638.65,804.87,637.21,802.52Z"
            fill="#53463c" />
        <path
            d="M672.55,726.22c.12,1.1.66,2,1.61,1.9,1.73-.15,2-1.61,1.71-3-.17-.74-1-1.92-1.52-1.88C672.64,723.36,672.9,725.1,672.55,726.22Z"
            fill="#51433b" />
        <path
            d="M552.58,850.84a27,27,0,0,0-.38-3.39c-2.08-9-2.1-9,2.38-16.26L553.12,830c-10.16-1.13-9.18,8.09-12,13.82C541.81,851.63,547.06,851.47,552.58,850.84Z"
            fill="#493c34" />
        <path
            d="M486.3,869.37c-.91-1.47,4.82-3.34-.46-5-1.49-.45.52-3.4,1.53-5,1.87-3,2.57-5.4-2.34-5-3.53.3-.35-4.34-4.07-4.48-1.43.89.84,6.61-4,5.15-.29,1.29-.58,2.58-.88,3.87,6.76-.07,4.82,9,10.22,10.41Z"
            fill="#5e5147" />
        <path
            d="M509.85,870.4a16.8,16.8,0,0,0,2.18-2.6c2.67-4.94-.68-9.23-1.79-13.64-.42-1.66-3.66-1.54-3.91.74s-5.75,3.22-2,6.27c1.55,1.26,1,2.13.8,3.32C504.61,868.19,507.66,868.72,509.85,870.4Z"
            fill="#706458" />
        <path
            d="M615.36,798c.12,6.86-2.11,14,2.63,20.26,2.07,2.72-.53,5.71.33,8.52.6.62,1.2,1.25,1.81,1.86,1.77,1.76,2.07,6.13,5.1,5.2,3.33-1,5-4.48,4.84-8.43,0-.9-.09-1.8-.13-2.69,1.37-3.76,2.45-7.37-3.67-6.51-.36,0-.82.49-.78.41.32-.62.81-1.39.57-1.92-1.77-3.84,1.4-8.65-2.21-12.1C621.46,800.23,619.08,797.81,615.36,798Z"
            fill="#5a4d44" />
        <path
            d="M623.85,802.64c-.93,5.57,1.74,11.15-.23,17.24,2.5.1,2.67-4.54,5-2.9,1.69,1.2.94,3.81,1.35,5.77l2.63-.29c3.2-.83,3.54-4.65,6-6.22-1.25-1.44-1.48-4.32-4.62-2.91-2.6,1.16-2.82-1.81-4-3.06a8.31,8.31,0,0,0-3.2-5.19A2.45,2.45,0,0,0,623.85,802.64Z"
            fill="#53463c" />
        <path
            d="M626.78,805.08c.11,2.36.69,4.42,3.2,5.19,2.13-.33,4.79-.39,4.49-3.49a6.34,6.34,0,0,0-3.8-5.11C627.83,800.52,628.45,804.35,626.78,805.08Z"
            fill="#493c34" />
        <path
            d="M638.61,816.24c-3.32.7-4.65,3.49-6,6.22.27,1.65.9,3.32,2.67,3.26s2-2.14,2.36-3.58C638.09,820.22,638.29,818.21,638.61,816.24Z"
            fill="#5a4d44" />
        <path
            d="M650.05,827.41l4.59,1.83c1.16.47,1.42,2.37,3.06,2.09C658.37,825.28,657.45,824.67,650.05,827.41Z"
            fill="#493c34" />
        <path d="M564.26,834.27l.42,4.11c2.48-.33,5.54-.86,4.5-4.21S566,834.76,564.26,834.27Z"
            fill="#53463c" />
        <path
            d="M567.36,846.89c1.68-.36,1.87-1.71,1.78-3.08-.07-1.08-.2-2.51-1.69-2.32s-2.06,1.54-2,3A2.38,2.38,0,0,0,567.36,846.89Z"
            fill="#53463c" />
        <path
            d="M733.49,647.39c-.42-1.3,2-3.78-1.4-3.81-1.28,0-3.06.61-2.93,1.95.27,2.79,2.47,2.21,4.34,1.85Z"
            fill="#c7b9ab" />
        <path
            d="M571.23,785c.56,4-1.81,6.75-4.9,6.32-4.07-.56-6.88,5.87-11.22,1.65-.46-.44-1.72.8-1.42,1.71,1.48,4.63-.44,10.3,3.93,14,3.47-.55,6.86-3.12,10.49-.28a2.42,2.42,0,0,0,2.38-.49c6.53-8.64,19.26-6.48,25.43-15.72a1.64,1.64,0,0,1,1.21-.49c10.16-.34,12.28-8.57,15-16.3,1.31-3.74,2.09-7.78,6.08-9.92a2.85,2.85,0,0,0,.87-4.21c-1-1.32-2.33-.38-3.6.06-11,3.83-21.5,8.59-31.07,15.37-2.28,1.62-3.89,1.59-5.87-.09-1.53-1.31-2.53-4.39-5.32-2.27-2.13,1.62-3.08,3.69-1.89,6.59C571.76,782,571.28,783.59,571.23,785Z"
            fill="#3e342d" />
        <path
            d="M592.64,813.51c3.71-1.39,6.08-5,10.37-3.31.57.24,3.75,0,3.52-1.82-.42-3.44,1.71-7.27-1.25-10.33-1.78-1.84-3.5-1.45-5.18.22-.8.79-1.58,1.45-2.88.88-5.59-2.44-5.84,2.08-4.92,5.13A17.47,17.47,0,0,1,592.64,813.51Z"
            fill="#5a4d44" />
        <path
            d="M578.92,820.25c.22,3.52.69,6.42,2.85,6.9,2.53.56,2.08-2.85,3.11-4.4,2.38-3.57.89-8,2.57-11.86,1-2.27-1.84-3.29-3.41-4.25-1.79-1.1-3,.22-3.34,2C579.93,812.84,579.39,817.12,578.92,820.25Z"
            fill="#5a4d44" />
        <path
            d="M577.45,688.52c-.07-.42-.15-.84-.24-1.25-9,1.55-9.11,1.72-8.22,10.57l1.35-.18A10.93,10.93,0,0,1,577.45,688.52Z"
            fill="#382d28" />
        <path
            d="M613.77,705.15a4.33,4.33,0,0,0-2.11,4.55,17.75,17.75,0,0,0,3.58-1c1-.53,2.67-1.22,2-2.78C616.6,704.57,615,705.2,613.77,705.15Z"
            fill="#62534c" />
        <path d="M486.93,823.51c-.52-2.3.37-5-2-6.75C483.5,819.68,482.57,822.45,486.93,823.51Z"
            fill="#615348" />
        <path
            d="M579.19,718.91l-10.76,1.2c9.76-6.69,7.11-13.91,3.36-21.21-1.67,3.88-5.91,7.88,1.8,11.39-4.12,1.47-8.86-3.67-10.19,3-.62,3.11,2,14.92,4.14,16.48,3.27,2.42,6.27,1,6.76-3.69.3-2.77-.34-5.7,3.69-5.66C579.24,720.64,579.56,720.07,579.19,718.91Z"
            fill="#382d28" />
        <path
            d="M579.19,718.91l-1.2,1.5c.08,2.79,1.16,5,3.84,5.77,2,.54,1.84-1.45,2.08-2.69.48-2.54,2.21-5.64-2.26-6.28Z"
            fill="#53463c" />
        <path
            d="M620.53,704.55l-.13-1.38c-.71-3.82-3.47-3.4-6.13-3.22a18.43,18.43,0,0,1-4.44,1.12c-3,.17-6,.59-9,.1a5.92,5.92,0,0,0-4.43,1.48c.36,4.89,5.59,2.94,7.45,5.73,1.86,1,2.93,2.85,4.14,4.52,0,.45.1.9.16,1.36,5.16,1.18,4.16-3,4.73-5.82a9.87,9.87,0,0,0,1-3.15c1.58-2.09,3.33-2.33,5.3-.59l.66-.07Z"
            fill="#4a3a32" />
        <path
            d="M613.57,701.13a7.66,7.66,0,0,1,6.83,2c2.25-1,4.72,1.61,6.92-.49s3.73-4.75,3.39-7.83-3.23-3.14-5.55-3.74a51.56,51.56,0,0,1-4.87-1.76l-2.58.29a16.48,16.48,0,0,1-1.85,2.06c-3.45,1.43-6.72,3-4.74,7.91A2.88,2.88,0,0,0,613.57,701.13Z"
            fill="#271e1b" />
        <path
            d="M617.94,692.35c-.08-.9-.16-1.81-.23-2.71l-4.06.4-10.51,1.19a1.55,1.55,0,0,0-.3,1.18c.07.42.15.62.23.61C608.19,697,613,692.64,617.94,692.35Z"
            fill="#3a2f2b" />
        <path
            d="M603.27,692.62c0-.46-.09-.92-.13-1.39l-4.22-2.32a80.93,80.93,0,0,1-22.79-.17c-6.21,4.3-4,9-.63,13.76,4.63.61,7.9-5.4,13-2.86.89.44,2,.46,2.8,1.28a4.06,4.06,0,0,0,3,1.48c1.16-.33,1.62-1.45,2.37-2.24a10.72,10.72,0,0,1,1.35-1C600.06,697.24,606.58,699.1,603.27,692.62Z"
            fill="#271e1c" />
        <path
            d="M573.23,712.63c-1,4-3.53,1.74-6.16,1.08.76,4,1.41,7.57,3.18,10.87,2.65-1.15,1.89-5.13,5-5.25.67-1.61.82-3.44,2-4.84a5.71,5.71,0,0,0,.93-2.49c-.16-2.94-1.55-5.62-1.72-8.57-.07-.28-.14-.56-.22-.84-3-4.6-3.73-9.21-.08-13.85-7.69,3.27-7.69,3.27-2.71,12.77-1.79,1.29-1.74,2.87-.82,4.71,1,2,1.66,4.14.63,6.41Z"
            fill="#2d231f" />
        <path
            d="M584.23,715.56l18.39-3.43,1.29-.16a1.56,1.56,0,0,0-.16-1.75c-3.27-.65-4.78-4.91-8.57-4.49-.21,7.12-5.39,1.27-7.62,3.14C585.53,710.61,583.27,712.22,584.23,715.56Z"
            fill="#443932" />
        <path d="M611.65,707c1.32,3.3,3.24,1.91,5.13.71,1.25-3.6-1.23-2.48-2.86-2.43Z"
            fill="#8b7d72" />
        <path
            d="M603.78,710.6c.34-1,.68-1.93,1-2.9-1.57-4-5.81-2.75-8.48-4.6a3,3,0,0,0-.4-4.08,2.81,2.81,0,0,0-1.08,2.85,3,3,0,0,0,.45,4.16C598.45,706.9,599,712.91,603.78,710.6Z"
            fill="#30221c" />
        <path
            d="M601.62,702.48c2.57,2.25,5.45-.73,8.07.49a3.58,3.58,0,0,0,.38-3.24c-3.15-4.28-7.22-2.19-11.06-1.69C593.82,703.37,600.4,701.22,601.62,702.48Z"
            fill="#5b463b" />
        <path
            d="M601.62,702.48c-.59-1.64-4.7-.19-3.07-3.77a1.77,1.77,0,0,0-2.64.31h0c.13,1.36.27,2.72.4,4.08Z"
            fill="#4c3d34" />
        <path
            d="M609.4,700.24c.1.91.19,1.82.29,2.73,1.5-.15,3.06-.15,3.88-1.84L612,699.82A1.85,1.85,0,0,0,609.4,700.24Z"
            fill="#604f47" />
        <path
            d="M609.4,700.24l2.64-.42c-2.23-6.06,3.92-5,5.9-7.47-4.91-1.13-9.75,2.17-14.67.27.33,1.94.3,3.29-2.19,3.93-1.73.44-4.11.22-5.17,2.47l2.64-.31C602.3,698.2,606,697.9,609.4,700.24Z"
            fill="#30211b" />
        <path
            d="M584.23,715.56l3.4-5.93c2-2.64,4.77-4.91,4.44-8.83.28-1.26.61-3.71-.68-3.22-4.44,1.69-10.62-3.08-13.59,3.88-.23.51-1,.76-1.59,1.13h0c-1.38,3.39,3.09,6.12,1,9.59L576,713.7c-.63,2.71,1.79,2.72,3.07,3.75v.14l5.22-.8C584.26,716.38,584.24,716,584.23,715.56Z"
            fill="#1f1916" />
        <path
            d="M592.07,700.8c-1.52,2.92-4.42,5.1-4.44,8.83,1.08.06,2.4-.28,3.21.23,5.27,3.32,4.87-.2,4.46-3.83l-.45-4.16Z"
            fill="#2b211f" />
        <path d="M579.09,717.45C579,715.34,577,715,576,713.7c-1.76,1.66-2.16,3.51-.77,5.63Z"
            fill="#271e1c" />
        <path d="M577.2,712.18c4.29-3.71-.32-6.43-1-9.59C573.47,706.13,576.66,709,577.2,712.18Z"
            fill="#271e1c" />
    </g>
    <g id="frame">
        <rect width="1000" height="1000" fill="none" />
    </g>
</svg>