<!-- Copyright (c) 2022 Jan Stehno -->
<svg xmlns="http://www.w3.org/2000/svg" viewBox="0 0 1000 1000"><title>westerncapercaillie</title><g id="westerncapercaillie"><path d="M649.11,636.13c-14.46.63-28.12-12.89-25-26.38,2.2-9.36.87-14.53-8.46-18.26-6.27-2.51-12.4-6.91-15.1-13.25-2.46-5.76-5.81-8.59-11.7-10.31-3.8-1.11-7.16-4.2-10.3-6.89-6-5.17-6.64-12.94-2.22-22.25a39.65,39.65,0,0,1,7.06-10.21c.77-.81,1.8-1.84.91-2.92-.42-.5-1.78-.51-2.64-.35-6.37,1.21-12.6,2.52-18.66-1.58-9.62-6.52-17.4-14.58-22.23-25.13-2.9-6.34,1.33-11.06,5.14-15s7.35-8.29,13.39-9.09c1.43-.19,3.44-1,3.3-2.6-.2-2.38-2.61-1.52-4.12-1.66-19-1.82-31-13.16-39.39-28.92-3.45-6.47-2-8.61,7.08-13.19,2.77-1.4,8.27-1.86,8-3.88-.55-3.63-5.41-1.45-8.32-2.33A48.86,48.86,0,0,1,502.74,407c-3.74-4.32-2.77-7.89,2.21-11A62.86,62.86,0,0,1,526.41,388c.19-2.2-1.49-2.12-2.64-2.55-9.44-3.51-16.42-10-22-18.08-3.24-4.71-2.1-7.26,3.34-9.24,6.35-2.3,13-2.7,19.62-2.69,1.06,0,2.49.61,2.86-.91s-1.18-1.63-2.08-2.22a47.09,47.09,0,0,1-14.48-15.61c-2.81-4.65-1.29-6.93,4-8.24,6.87-1.71,13.87-.87,21.74-1.07-4.44-6.14-9.25-10.89-12-17.06-3.36-7.46-2.15-9.67,6.06-10.2,12.21-.79,23.73,2.5,35.22,5.91,1.87.55,3.55,2.44,4.55-1.2.86-3.14,4.15-2.4,6.4-2.27,14.23.76,27.69,4.27,40,11.63,3.73,5.35,10,7.19,15.29,10.17,12.68,7.2,24.51,15.76,37.4,22.6a22,22,0,0,1,4.43,3.54c1,.92,2,2,1.1,3.4s-2.34,1-3.63.7a23.05,23.05,0,0,1-7.62-3.74,139.24,139.24,0,0,0-27.79-14.27c-2.76-1-6.68-2.85-8.21.26-1.33,2.72,2.67,4.45,4.85,6.08,2.92,2.17,6.4,3.3,9.81,4.48a76.82,76.82,0,0,1,9.37,4.14c1.9,1,3.91,2.28,2.86,4.78-1.12,2.65-3.53,2.43-5.87,1.69a27.68,27.68,0,0,1-8.44-4.61c-6.43-4.92-13.4-6.84-21.26-3.37-1.4.62-3,.87-3.39,2.62s1,2.73,2.12,3.68a11.93,11.93,0,0,0,5.46,3c10.6,1.82,20.08,6.91,30.16,10.26,3.87,1.29,9.27,1.78,10.18,7.51-2.86,1.89-6,2.66-9.18,1.23-8.19-3.7-17.35-1.41-25.52-4.81a105.33,105.33,0,0,0,26.2,12c1.69.48,4.1,1.31,3.62,3.62-.44,2-2.74,2.39-4.66,2.63-2.65.32-5.32.08-8,.22-1.86.1-4.26-.11-4.66,2.25-.35,2.12,2,2.43,3.46,3.12,2.58,1.19,5.4,1.88,7.82,3.39,2.2,1.37,4.11,3.07,2.32,6-1.55,2.52-3.56,5.1-6.83,3.24-5.2-3-8.3-.64-11.76,3a68.53,68.53,0,0,0-8.33,11.22c6.6-1.21,11.94,4.18,19.05,1.71,5-1.76,10.89,1,15.81,3.13,4.13,1.82,2.82,6.27-2.6,9.94-10.56.87-21.1,1.86-31,5.24,1.15.19,2.45-.54,3.84-.52,2.06,0,3.78.64,4.54,2.7.7,1.86-.41,3.15-1.55,4.51-1.66,2-5.8,3.15-3.72,6.61s5.49.86,8.29.4,5.39-1.9,8.3-1.86c2.26,0,4.19.8,4.82,3.17.57,2.12-.67,3.59-2.34,4.71-3.23,2.14-8.8,2.67-9,6.86-.15,3.13,3.32,6.39,4.59,9.89.45,1.23,1.31,2.36,1.41,3.67.39,5.19,2.2,7.09,7.63,4.45,3.06-1.49,6.25.74,9,2.39,1.73,1,1.61,2.84.29,4.4-1.13,1.33-2.75,2-4.19,2.88-4.54,2.88-4.65,3.88-1,8.22.82,1.94.08,3.8-.31,5.68-.17.72-.8,1.87-.47,2.12,6.84,5.21,5,16.44,14.46,19.55-4-5.39-.85-8.84,3.83-12.07a48.67,48.67,0,0,0,9.57-8.81c3.06-3.63,6.81-6.6,12.12-6.46a7.48,7.48,0,0,0,4.3-1.33c3.28-2.16,6-1.27,7.55,2s-1.2,4.88-3.53,6.06c-4,2-8.38,3.51-10.17,7.09,4.42-4.38,9.21-3.13,12.55,4.26,1.37,3,2.19,6.29,5.91,7.46-1.91-1.9-4.41-3.25-4.47-6.53-.07-3.72.12-6.93,4.93-7.26,2.74-.19,3.92-2.12,4.68-4.32.92-2.64-1.21-3.55-2.91-4.79-4.16-3-4.12-4.87.07-8.26a10.85,10.85,0,0,0,2.88-2.69c1.86-3.17.34-5.65-2.17-7.25-2.94-1.88-3.12,1.45-4.23,2.87-1.89,2.39-2.22,6.92-6.16,6.52s-4.34-4.71-5.45-7.85a7.79,7.79,0,0,1-.23-1.11,4.07,4.07,0,0,1,.18-1.7c4.59-7.16,11.64-9.78,19.89-7.79,5.78,1.4,12.23,1,16.32,6.5a3.91,3.91,0,0,1,.3,2.52c-1,2.38-2.37,4.64-1.45,7.49,2.71,8.45,5.51,16.89,5.63,25a3.21,3.21,0,0,1,0-2.79c2.7-4.57,6.36-8.38,7.54-14.07.66-3.16,6.7-2.43,8.92.8,3.92,5.71,8,11.3,9.33,18.34.46,2.46,2.33,4.23,3.83,6.18,2.08,2.7,4.08,5.53,2.36,9.23-1.71,1.36-3.87,1.47-5.87,2-5.54,1.56-7.39,5-5.49,10.17,2.13,5.81,2,5.93-3.9,7.84a46.67,46.67,0,0,1-8.94,1.67c-3.72.43-6.72.58-7.58-4.24-.56-3.18-3.94-3.27-6.4-3.9-4-1-7.18-2.42-6.94-7.36.07-1.5-1.18-2.73-2-4a2.78,2.78,0,0,0-3.46-1.22c-1.56.56-1.79,1.79-1.43,3.22.61,2.38.82,4.83,1.47,7.2.86,3.17-.56,4.25-3.59,3.64a42.74,42.74,0,0,1-4.85-1.67c-6-2-7.6-1.2-9.57,4.87-.41,1.26-.2,2.67-.9,3.83-1.15,1.91-2.69,2.78-4.62,1-3-2.69-4-11.12-1.82-14.54,2.91-4.54,5-9.53,8.43-13.93-4,1.57-6.77,5.83-11.78,4.71-.6-.13-.46-.29-.43.13.38,6.59-8.5,6.29-9.15,12.15a8.09,8.09,0,0,1-2.47,4.37c-4.7,5-4.63,6.81.3,11.62.67.65,1.47,1.18,1.6,2.22-5.65,3.1-9.6,1-10.45-5.63-.44-3.43.36-7.11-1.88-10.37-6.05,5.88-7.43,5.66-14-1.94-2.46-2.86-1.65-4.65,3.91-9-9,4.08-18.45.62-27.68,1.49-5.78.55-8.68-2-11.18-7.72-2.32,2.32-2,4.4-.22,7,3.28,4.61,2.91,7.24-1.67,10.42-2.64,1.83-3.39,3.53-2.33,6.58s2.74,4.34,5.93,3.73c2.3-.44,4.11.06,5,2.54.54,1.61,2.11,1.94,3.5,2.6,5.47,2.61,6.09,5.42,3.8,10.91a70.81,70.81,0,0,0-5,35.23c.25,2.34,1.93,2.8,3.6,3.78A22.65,22.65,0,0,1,649.11,636.13Z" fill="#3f352b"/><path d="M843,736.71a9.47,9.47,0,0,1-.68-8.2c2.12-5.81-.74-10.57-2.12-15.71-.81-3-2-3.85-4.63-1.5-3.73,3.36-7.47,5.12-11.81.52-2.23-2.37-3.13.47-4.13,1.84-3.32,4.62-6.74,9.09-11.88,12-4.07,2.3-7.14,2-9.13-2.6A25.53,25.53,0,0,0,797,720.1c-.73-1.22-.85-3.21-2.85-3-1.65.17-1.5,1.94-2.05,3.08A35.85,35.85,0,0,1,781.13,733c-2.68,2.05-4.45,1.25-5.77-1.61s-2.12-7.28-4.35-8.23c-3.44-1.46-3.8,3.83-6.29,5.6-10,7.09-16.45,4.73-18.84-7.39a26.17,26.17,0,0,1-1-4.36c-.1-4.43-2.3-3.27-4.68-1.87-8.61-.3-12.81-6.57-16.72-12.71-1.71-2.68-2.86-5.05-6.37-5.6-3.06-.48-4.38-2.93-6-5.48-3.38-5.44-3.67-11.72-5.77-17.47-.72-2,0-3.73,1.07-5.35,5.12-8,8.15-17,13.11-25a4.19,4.19,0,0,0,.76-3.21c-1.29-5.35,1.56-6.78,6.24-6.56a4.9,4.9,0,0,0,4.09-1.69c1.81-2.18,4.33-2.91,7.21-3.56-1.07-.19.08-.23-.18-.24-5.69-.36-7.46-3.53-5.53-8.38a64.09,64.09,0,0,0,4.55-16.26c.28-2.44,8-8.59,10.44-8.43,2.25.15,2,1.93,1.89,3.38a88.2,88.2,0,0,1-2,13.4c-.42,1.62-.76,3.8.95,4.64,2.18,1.08,2.63-1.45,3.6-2.64a51.18,51.18,0,0,1,9.23-8.36c3.48-2.61,8.43-2.08,9.93,1.47,3.43,8.12,10,10.18,17.31,10.25-1.42-.59-1.42-.59-3.58-.58a13.05,13.05,0,0,1-13.38-10.8c-.6-3.14.25-5.69,2.49-8.24,4.25-4.84,9.47-8.71,13.52-13.73,1.05-1.31,2.37-2.8,4.26-2.27s2.46,2.36,2.59,4.06c.32,4,2.06,6.29,6.81,6-2.14-1.94-4.5-3.74-1.83-6.52,2.12-2.21,6.9-1.69,9.17,1.12,1.73,2.15,2.51,5.1,5.58,6.09-2.39-2.84-4.8-5.72-2.09-9.55,2.45-3.47,5.62-2.19,8.89-.86,1.38-1.49-.29-4.36,2.23-5.21s3.78,1.09,5.38,2.36c4.43,3.52,8.11,3.4,14.66-.51,5.1-3,10.21-5.95,17.08-3.76-3.39-1.56-6.37-3-2.73-6.36,1.84-1.7,2.36-2.8.67-5.12-2.53-3.47.72-5.7,2.67-8.08,5.79,2.92,6.13,9,8.22,14,.16,3.33,1.5,6.58.68,10-.28,1.28-.46,2.72-1.31,3.67-2.47,2.8-2.35,5,.75,7.32a3.66,3.66,0,0,1,1.21,4.6c-3.77,6.69-1.32,14-2,20.94-.94,9.11-2.29,18.17-3.11,27.28a18.55,18.55,0,0,0-1,10.44,29.86,29.86,0,0,1-1.79,16.6c-1.14,2.75-2.14,5.63-1.75,8.75.12.94,0,2.47-.61,2.63-4.27,1.1-2.06,4-1.44,5.84,1.19,3.68.19,6.62-2,9.47-1.8,1-3.9.61-5.86,1.53-4.38,2.06-6.93,8.42-4.57,12.67-1.4,6.14-1.36,11.5,4.65,15.91,4.06,3,3.68,9.13,7.22,13,1.27,1.39-1.39,2-2.84,1.69-2.35-.56-3.48-2.69-5.34-4.75,1.13,5.88,3.26,11.18,1.87,16.82-6.58,4.75-8.17,4.19-10-3.73-.43-1.93-2.08-3.74-.76-5.9l.84-.84C844.77,741.7,844.27,739.28,843,736.71Z" fill="#2a221b"/><path d="M792.88,916.56c-3.79,1.64-7.41,3.56-9.79,7.05-3.83,5.62-9.25,9.39-14.9,12.89-2.34,1.45-9.69-1-11.75-3.51-4.68-5.61-10-10.79-14.14-16.73-4.45-6.31-11.71-10.76-13.21-19.1a4.1,4.1,0,0,0-2-2.59c-6.76-3.09-7.8-10.18-11.54-15.39-3.08-4.3-3.91-9.42-6.79-13.79-2.54-3.87-5-8.17-3.25-13.71.91-2.93-1.15-6.39-2.62-9.5-4.78-10.14-3-16.06,6.87-20.94,18.85-9.31,38-18,56.81-27.38C783,785.62,800.1,779,817,771.77c3-1.62,4.22.07,4.61,2.71a15.87,15.87,0,0,1-3.2,12.26,10.64,10.64,0,0,0-1.78,10.58,41.6,41.6,0,0,1,1.9,9.4c.61,7.19,4.5,13,9.62,17.37,3.58,3.08,9.14,3.35,13.8,4.88,4,1.32,6.52,3.65,5.17,7.92-1.93,6.1.45,10.56,4.63,14.61,1,3.13,2.91,5.07,6.43,5.38a21,21,0,0,1,11.27,4.87c4.07,3.53,7.18,9.1,7.42,14.58.17,3.92-5,6-7.77,8.88-1.62,1.7-2.73,2.84-2.16,5.13.84,3.41-.57,5.38-4,6.19-4.84,1.15-6.55,4.14-5.84,9,.43,2.92.38,6.12-2.51,8.24-.93.68-2.21,1.52-3.13,1.08-9.18-4.4-10.16,4.34-12.85,8.6-2.22,3.53-4.54,8.11-1.63,13.2,1.56,2.73-.82,5.08-3.86,5.58-2.48.41-4.29,1.17-5,3.76-.37,1.32-1.41,2.69-2.74,2.58-5.4-.43-11.5,3.48-16.06-2.54-1.61-2.12-4.08-1.41-6.37-1.22-5.8.47-6.91-.46-7.25-6.33-.14-2.41-1.5-4.22-2.29-6.31a4.48,4.48,0,0,1,.94-5.22,3.85,3.85,0,0,1,5.24-.44c3.54,3.13,10.75,3.36,9,11-.45,1.93,1.8,2.14,3.34,1.56a6.41,6.41,0,0,0,4.58-6.49c-.12-4.19,1-7.57,4.31-10.5,2.34-2.06,3.57-5,1.17-8a9.47,9.47,0,0,1-1.19-2.1c-.19-3.55-.57-6.78-5.63-6.15-3.14.39-2.69-5.19-7-4.06,1.75,2.64,4.58,3.61,6.71,5.32,2.68,2.14,4.08,4.4,1.7,7.59a8.24,8.24,0,0,1-1.86,1.62c-3.33,2-6.76,3.53-10.24.4-2.56-2.31-7.11,2.11-8.85-2.67A3.3,3.3,0,0,1,792.88,916.56Z" fill="#241f1a"/><path d="M860.33,555.64c0,1.32.1,2.72-1,3.7-1.77,1.59-2.18,2.67.39,4.07,2.77,1.51,2.22,3.66,0,5.38-1.13.88-4,.3-2.87,3,1,2.28,3,1.69,4.91,1,.26-.1.67.2,1.37.45-1.33,1.9-3.13,3-5.14,2.51-5.17-1.38-9.22,1-13.19,3.49-9.25,5.72-10.59,5.75-19.24-.79-.76-.58-1.49-1.29-2.52-.73-1.42.76-.82,1.84-.41,2.91s1.72,2.44.54,3.62-2.55-.09-3.52-.74c-2.35-1.56-4.6-3.07-6.93-.17s-.71,5.23,1.34,7.43c.88.95,1.73,1.91,3.34,3.68-4.7-.27-7.83-1.25-9.12-5.07-.81-2.41-2.12-4-4.7-4.21-1.92-.17-4.07-.27-4.67,2.13s1.5,2.07,2.89,2.47,2.59,1.14,1.88,2.81c-.61,1.44-2,1.61-3.38,1.23-4-1-8.64-1.35-7.54-7.54a4.09,4.09,0,0,0-1.4-3.48c-1.4-.86-2.44.86-3,1.82-3.23,5.46-8.84,8.63-12.91,13.33-3.08,3.57-3.73,6.22-2.07,10.41,2,5.1,5.67,8.28,10.75,7,5.34-1.36,6.15,1.31,7.54,5.56a25.48,25.48,0,0,0-6.82-2.51c-5.82-1-11.84-2.91-14.29-9.49-1.62-4.35-5.57-4.68-8.31-2.54-3.63,2.82-7.87,5.29-10.16,9.63-.94,1.78-1.92,4.5-4.32,3.55s-3.22-4.15-2.5-6.32c1.68-5.06,1.35-10.39,2.77-15.44a7.09,7.09,0,0,0-.13-2c-2.8,1.5-4.53,4.29-7.92,4.44-1.65.07-1.94,2-2,3.63A36,36,0,0,1,733.48,620c-1.22,2.26-1.34,4,.65,6.06s3.15,1.2,4.66-.32c.69-.69,1.71-1.11,2.32.07.47.91.1,2.37-.7,2.45-5.95.58-8.46,8.48-15.59,6.84-3-.68-5,1.19-3.07,4.42a3.24,3.24,0,0,1-.26,4.1c-4.43,5.74-6.43,12.72-10,18.93-1.19,2.1-1.9,4.38-3.57,6.32-1.49,1.73-3.33,4.06,0,6.15.55.35,1.22,1.44,1,1.81-3.13,6.43,3.57,10.25,4.24,15.73.32,2.66,3.4,3.18,5.95,3.41,1.45.13,3.34-.38,3.84,1.58,2.36,9.17,9.4,13.79,17.25,17.66-2.13,2.86-5.49,3.87-8.6,4.84-5.52,1.73-10-1.47-11.45-8.68-.93-4.54-2.36-6.15-7.37-5.49-6.6.87-10.16-2.59-11-9.4-.49-4.1-.54-8.26-1-12.38-.27-2.44-1.07-4-4.43-3.11-2.85.78-6,.53-9.07.43-8.24-.27-12.59-3.55-14.81-11.42-.73-2.6-1.68-4.28-4.55-5-16-3.91-17.58-8.23-15.71-23.74.32-2.65,1.4-5.55-3.19-5.11-3.43-4.11-4.92-9.63-9.52-12.9-.45-.32-.73-1.18-1.14-1.22-10.49-1-5.88-9.62-5.87-14,0-10,1.24-20.19,6.59-29.41,2-3.47-1.4-5.76-4.62-7a7.64,7.64,0,0,0-2.64.11c-.74-6.67-6.23-3.69-9.71-5-3.31-1.2-2.34-5.41-3.84-8.1-1.06-1.88,1.58-3.27,3.57-4.23,4.35-2.09,5.35-5.46,2.71-8.38-4.47-4.93-4.12-6.86,1.94-11,1.25,7.8,5.53,10.71,14,9,3.08-.62,5.8-1.41,8.61.77,1.39,1.08,3.28.75,4.95.16s3.16-1.56,4.79-1.7c3.14-.28,6.32-.08,9.57-.08,0,1.73-1.64,1.84-2.74,2.08-2,.45-3.24,1.89-4.57,3.2-.77.76-2.21,2-1.06,2.73,3.06,2,5.33,4.69,8,6.92.8.65,3-1,3.44-3,.28-1.34-.15-3.49,2.14-3.17,1.58.23,2,1.95,2.64,3.39,1.22,2.91.89,5.91,1,8.91.23,6.06,1.77,7.34,8.43,6.79-4.22-2.2-6.76-5.11-6.14-9.89.18-1.33,0-2.81,1.55-3.35,3.07-1.11,3.39-4.1,5-6.2s-.39-9.11,6.57-6c.77.35,1.91-2.7,1.25-4.79-.91-2.91-.12-4.42,2.84-2.1,1.84,1.44,3.26.61,4.65-.25s2.55-2.26,3.94-3.22c1.64-1.13,3.69-3.36,5.44-1.59,2.11,2.13-.77,3.65-2.12,4.92-4.25,4-5.19,10-9.14,14.22-1.41,1.5-.55,4.11,1.25,4.89,3.17,1.4-1,6.75,3.32,6.31,3.36-.34,1.48-4.46,2.25-6.72,2.23-6.53,5.67-6.61,11.08-4.24,2.09.92,4.14,2.76,7.37,2-1.7-2.94-1.25-6.25-2.31-9.11-.84-2.24-2.62-4.12,1.07-5.08,2.46-.64,5.27-3.07,6.67,1.81.64,2.22,3.56,3.58,2.14,6.78-.76,1.7.9,2.42,2.62,2.78,2.59.55,5.08,1.53,7.66,2.15,1.4.34,3.07.91,2.93,2.22-.7,6.38,3.51,4.76,7.07,4.63a26,26,0,0,0,6.13-1.07c4.14-1.15,8.4-1.51,3.75-7.52-2.6-3.35,1.44-9.87,5.82-10.69,2.41-.45,4.85-.76,7.27-1.13,4.36,1.82,8.38,3.91,10,8.87.86,2.57,3.73,3.52,5.54,5.37s1.68,4.5,2,6.91a12.23,12.23,0,0,0,6.91,9.74c1,.51,2.22.94,3.26.23,1.33-.89.37-2,0-3-1.11-2.87.32-3.93,3-3.76,1.55.11,3,.28,4.36-.68,8.07-5.63,17.26-5.16,26.5-4.56-3.8-1.2-6.48-3.24-6.78-7.44-.17-2.25-1.92-3.06-3.65-3.92a7.46,7.46,0,0,1-4.15-5.74c-.43-2.48-.52-5,1.83-6.68s4.41-.42,6.18,1.11c3,2.63,6.87,1.75,10.34,2.48,5,1.06,5.59,2.36,3.17,6.94a1.35,1.35,0,0,0,.44.3,2.47,2.47,0,0,0,.58.13c2,1.47,4.55-.85,6.47.94C854.45,550.84,858.76,551.7,860.33,555.64Z" fill="#332920"/><path d="M790.6,555.63c-3.46-1.65-6.28-3.52-7.2-7.84-.78-3.63-6.37-3.12-7.67-6.86-.17-3.71-1.32-7-4.35-9.39a7.92,7.92,0,0,1-3.16-5.8c-.34-7.56-6.63-12.07-9.25-18.46-.89-2.18-3.69-1.85-5.6-.91s-3.48,2.46-1.44,4.88c1.43,1.7.73,2.84-1,4.08-7.32,5.25-7.28,5.31-2.81,12.5-3.16.08-5.09-1.93-5.23-4-.64-9.28-3.81-17.89-6.43-26.65-.86-2.87.47-4.63,2.7-6.08,3.44-4.24,8.22-6.35,13.15-8.36,7.13-2.9,8.49-7.71,4.09-14-2.08-3-1.65-4,2.17-4.45,5.86-.71,7.35-4.34,3.81-9-2.57-3.43-4.38-6.27-.8-10.33,2.07-2.36.74-4.25-2.63-3.92-1.74.17-3.73.37-4.86-1-5.63-6.77-12.52-12.58-16.88-20.27-1.58-2.8-1.78-6.5-2.47-9.8-1.09-5.27-5.5-6.88-9.45-9-2-1-3.17.29-3.63,2.26-1,4.25-3.79,5-7.3,3.26-3.18-1.57-4.1-4.06-2.27-7.5,2-3.85-.42-12.46-4.62-15.43-5.24-3.7-10.28-7.7-16.28-10.31-4.16-1.81-7.58-1.91-11.74.57-4.66,2.77-9.66,6.52-15.76,3-.61-1.56-2-2.21-3.42-2.79-12-4.95-23.89-10.51-36.8-13-3.83-.75-6.32-3.42-9-5.62-2.22-1.81,0-5.7,3.17-6.83,9.82-3.5,18.26-1.67,26,5.31,2.35,2.12,6,4.46,9.19,3.06s.62-3.19-1.26-4.17c-1.5-.78-3.08-1.4-4.62-2.11-6.3-2.89-13.56-4-18.53-9.38-1.45-1.58-4.24-2.77-3.14-5.48,1.22-3,4.25-1.88,6.57-1.9,3.73,0,6.91,2,10.15,3.41,8.45,3.79,16.75,7.92,24.33,13.31a14.07,14.07,0,0,0,8.58,3c-3.19-4.93-8.22-7-12.58-9.59-12.56-7.54-25.29-14.8-37.45-23a11.91,11.91,0,0,0-4.22-1.62c-3.05-.61-4.16-2.34-3.64-5.27,19.71,9.28,38,20.85,55.86,33.23a48.59,48.59,0,0,0,7.91,5.68l3.51,2.35c.84,3.59-4.09,2.77-4.33,5.33,4.41-4.2,8.77-1,13.15.26,8.46,7.19,18.94,11.48,27.38,18.72,2,1.69,4.07,3.28,6.1,4.92,4,2.55,6.24,7.11,10.78,9,5,3.2,8.77,7.75,12.76,12,5.47,5.78,12.07,10.27,17.74,15.71,10.61,10.16,21,20.62,28.88,33.17a7.8,7.8,0,0,1,.89,3.74c-.22,3.67-4.36,3.21-5.88,5.49-2.21,4.93-.77,7.43,4.28,7.33a4.53,4.53,0,0,1,2.69.5,1.89,1.89,0,0,1,.31,1.51c-1.62,3.86-4.88,6.34-7.83,9.07-2.64,6.94,2.47,17.32,10,20.93s12.27,10.53,19.36,14.59c1.43.82,1.55,2.58.56,4-3.28,4.86-3.11,10.21-2.82,15.75a133,133,0,0,1-.5,14.65c-.14,2.25.54,4.74-2.46,5.59-2.79.78-5.38.24-7.15-2.18s-3.64-4.71-6.59-6c-4.88-2.19-5-2.26-6.16,3C794.79,555.05,794.19,557.51,790.6,555.63Z" fill="#45372c"/><path d="M917.38,436.73c6.51-10.49,6.34-22.1,5.81-33.78a3.14,3.14,0,0,0-3.26-3.21c-3.93-.07-7-2.35-12-1.14-5.32,1.3-12.56.27-18.71-1.44-3.82-1.05-4.9-4.82-5.48-8-.75-4.09-2.11-6.73-5.9-9.32-7-4.77-8.62-14.43-5.11-22.26,5-5.21,9-11.83,17.34-12.7,1.54-.21,2-1.43,2.51-2.64,2.33-4.18,6.89-5.83,10.44-8.5s9.31,2.21,8.8,6.7c-.15,1.39-.41,3,.77,3.66,6.93,3.9,9.93,13.35,19.51,13.51a3.89,3.89,0,0,1,3.06,1.37c3.65,5.56,9.05,9.85,10.37,17.09,2.56,14,2.78,28.08,4.12,42.12a18.59,18.59,0,0,1-.37,5.62A27,27,0,0,0,951,439.76c3.64,9.19,4.06,19,3.44,28.85-2.65,13.45-4.41,27-3.45,40.72-.24,1.29-.45,3.17-1.82,3.15-2.43,0-2.17-2.65-3-4.21a77.41,77.41,0,0,1-.88-29.87c-.4,2.88-.88,5.77-1,8.7s-.58,5.93.22,8.87c-2.56,5-11.86,6.24-15.26,2-1.42-1.77-3.27-3.18-4.58-5-2.61-3.54-5.31-4.93-9.42-2.19-1.89,1.25-3.49.16-5.5-1.06-5.62-3.4-7.15-10.42-13.17-13.44-2.66-1.33-1.88-4.28-.38-6.47,2.74-4,5.45-8,8.47-11.73,3.2-3.95,6.51-7.76,8.75-12.36C913.82,442.35,916.05,439.73,917.38,436.73Z" fill="#1e1915"/><path d="M851.19,852.07c-5.66-3.46-8.14-8.11-5.71-14.7,1.49-4,.35-6.33-4.27-7-4.27-.61-8.31-2.45-12.4-3.68-4.43-1.34-7.51-6.62-9.16-10.55-3.12-7.46-4.06-15.81-5.94-23.79-.48-2,1.07-3,2.09-4.35,3-3.8,4.88-7.93,4.58-12.95-.14-2.4-1-3.48-3.4-3.3,3.35-2.51,7.21-3.76,11.26-4.73,3.06-.74,6.28-1.42,8.4-4.15,1.15-2,.5-3.74-.44-5.76-2-4.23-2.14-8.41,2.29-11.53l2.25-1.45c.33,2.53,2.64,4.16,2.6,7.11-.05,5,1.24,5.32,5.79,2.25.45-.31,1.37.07,2.07.12,2.13,1.21,3.9,3,6.39,3.62a8.51,8.51,0,0,1,5.91,5.69c.13.35.17.8.41,1,4.65,4.76,11.35,7,15.64,12.24.58.71,2.25,0,2.89-1.06a2.2,2.2,0,0,0-.49-2.6c-.36-.44-.79-.81-1.18-1.22-1.55-1.66-3.9-3.73-2.16-5.75,1.87-2.2,3.57.73,5.12,1.77,2.85,1.9,5.21,2.32,7-1.27.33-.67-.34-.17.27-.47,4.3-2.13,9.69-2.8,11.19-8.59.08-.32,1.46.09,2.08.5,2.91,1.9,6.12,1.61,9.38,1.59,5.38,0,7.55,1.63,7.39,7-.18,6.14,3,10.87,5.62,15.74,3,5.72,8.56,6.1,14.35,4.2,3.48,2.64,3.15,6.78,4.19,10.39a17.07,17.07,0,0,1-.26,5.19c-.55,1.79-.67,3.73-1.45,5.44a2.65,2.65,0,0,1-3.56,1.73c-6.73-1.7-13.67-1.86-20.57-2.21a4,4,0,0,0-2.74.62c-4.06,3.22-7.86,4.6-11.12-1a1.9,1.9,0,0,0-2.1-.59c-4.38,1.44-8.67.16-13-.28-2.06-.22-3.33.43-2.69,2.92,1.63,6.33.68,8.88-5.87,10-6.26,1.09-9,4.54-11.14,9.79-2.39,5.88-6.3,7.23-14.66,6a4.51,4.51,0,0,0-2.22,4c.33,7.31,5.92,9.79,11.47,12.32,4.32,2,8,1.31,11.09-2.41,2.22-1.84,3.12-5.39,6.9-5.23a3.07,3.07,0,0,1,.85,1.52,10.84,10.84,0,0,1-.29,3.89c-2,10.68-7.59,14.11-20.07,10.66-2-.54-4-1.64-6-1.51C853.64,857.68,852.23,855.23,851.19,852.07Z" fill="#2b251f"/><path d="M947.52,508.09c.21.28.4.57.62.85.6.75-.3,2.12,1.07,2.56.16-.86.32-1.72.47-2.58,2.63.79,2.38,3.09,2.54,5a30.49,30.49,0,0,0,.9,6.59c-.09,4.77.14,9.61-2.86,13.78-2.2-.26-1.55-2.23-2-3.11-.21-1.1-1.05-.08-.39-.46.11-.06.2.09.29.46,1.42,5.61,2.56,11.28,3.72,16.95,1.71,8.31.68,16.33-1.71,24.31a4.2,4.2,0,0,1-3.52,1.68c-1.38-.67-1.45.07-1.42,1.2.08,3.95-.1,7.92,1.18,11.75.1,1.81,1.42,3.87-1,5.18-2.43.1-3.24-1.85-4.34-3.38a3.27,3.27,0,0,1-.23-.46c-.06-.17-.1-.35-.15-.53-4,5.33-2.94,8.12,4.09,10.55,1.29,1,1.28,2.2.78,3.54-6.1,6.83-7.22,6.9-13.66,1.22-1.71-1.51-2.79-3.05-2.05-5.39a7.72,7.72,0,0,0,0-5c-.75-2.11-1.83-2.86-3.62-.92a14.85,14.85,0,0,1-2.82,2.78c-1.3.81-2.69,1.64-4.24.78s-1.05-2.25-.78-3.54c.2-.92.74-2.1.15-2.74-5-5.5-5.11-12.85-7.67-19.27-.9-2.27-3.15-3.71-5.57-2.33-3.07,1.74-4.3.21-6-2-3.13-4.16-6.59-8-12.79-5.62a3.42,3.42,0,0,1-2.79-.28c-9.89-5.69-20.67-9.21-31.42-12.85a7.81,7.81,0,0,1,10.13-6.49c2,.52,4,2.65,4.86-1.54.32-1.65,3-1.52,4.57-.85,4.06,1.72,8.11,1.41,12.3.64,3.34-.6,6.45,0,8.51,3.16.73,1.12,1.91,2.59,3.18,1.58,4-3.15,7.53-.31,12,.88-2.76-5.49-1.48-9.46,2.16-13.55s1.81-9.52,2.78-14.22a3.11,3.11,0,0,0-3.28.9c-2,1.47-4.13,2.54-5.87-.07-1.56-2.34-.22-4.28,1.65-5.88a20.89,20.89,0,0,0,2.66-2.11,2.82,2.82,0,0,0,.6-3.14c-.65-1.4-1.84-1.19-2.9-.66-4.49,2.25-7.31-3.24-11.71-2.44-1.24.23-1.73-2.64-1.56-4.37.21-2.26.49-4.5-.45-6.67-.72-1.67.91-4.73-3.64-3.91-2.94.53-4.14-3.61-1.88-6.2,1.5-1.7,3-3.29,3.68-5.53,1.49-2.37,2.63-5.08,4.54-7.07,6.91-7.23,12-15.8,18.25-23.53a.68.68,0,0,1,1.18,0c-2.85,7.89-9.16,13.46-13.84,20.13a27.47,27.47,0,0,0-2.11,3.26c-2.84,5.61-2.33,6.71,3.7,8.4.88.24,1.74.56,2.6.84-4,7.51,6.6,6,7.14,11.23.22,2.14,3.22-.07,4.73-.77,3.25-1.51,5.78-3.67,8.1,1.8,1.3,3.07,5.86,4.61,7.17,8.42a1.56,1.56,0,0,0,.8.64c3.26-2.84,8.11.28,11.25-2.94,2.55,3.37,1.69,7.5,2.34,11.25C946.67,512.45,947.14,506.07,947.52,508.09Z" fill="#2a221b"/><path d="M890.05,476.39c.42,2.35-.86,3.93-2.47,5.37s-2.6,2.79-.54,4.67c1.75,1.58,3.29,1.5,5-.05,1.06-1,2-2.43,4.4-1.44-7,4.53-.34,11-2.77,16.25-.06.12.06.39.18.52.37.41.77.79,1.16,1.19,4.15-5.32,6.13,3.72,9.6,1.46,2-1.33,3.8-3.18,5.31.22,1.1,2.49,1.7,5.14-1.57,6.75a13.5,13.5,0,0,0-2.1.83c-1.54,1.15-3.27,2.57-1.85,4.64,1.77,2.59,3.11.32,4.56-.74s2.25-3.77,4.43-2.54c1.51.84.84,3.17.64,4.76-.74,5.86.47,12.24-5.56,16.62-2.35,1.71-1.71,4.75.35,7,.86.94,2.2,1.86,1.13,3.34s-2.46.11-3.69.18c-1.69.1-2.77-1.06-4-1.86s-2.75-1.52-4,.09c-3,3.74-5,2.9-6.81-1.15-1.9-4.23-5.73-2.93-8.93-2.22-3.47.77-6.65.86-10-.65-2.1-1-5.09-3.27-4.18,2.42.34,2.13-3.4,1.43-4.58.66-5.68-3.71-8.48,0-11.38,3.84a2.16,2.16,0,0,1-1.29.65c-2-1.17-3.61,1.42-5.56.49-1.4.15-2.63,3.23-4.13.51-1.05-1.89.44-2.63,2.21-2.86,1-.13,1.78-.71,1.62-1.86s-1.22-1.24-2.07-1.64a14.61,14.61,0,0,0-6.7-1c-2.11.06-4.1,0-5.81-1.65s-3.64-4.66-5.93-1.56-1.52,7.48,1.55,9c3.91,1.95,5.88,3.56,6.22,8.27.23,3.18,4.34,4.08,8.52,3.32-2.25,2.85-3.76,3.83-7.3,3.1-4.9-1-10.11.58-15.27.39-1.62,0-2.22,4-6.08,3.7-1.44-.11-3.77,3.13-6.55.73-.2-.18-1.14.15-1.46.49-.94,1-.17,1.73.65,2.23,1.56.95,2.08,2.32,1.24,3.83-1,1.82-2.78,1.4-4.54,1.07-4.82-.9-9.32-6-9.85-11.66-.21-2.23.1-4.53-1.2-6.56,3.43.3,3.37-1.94,3.47-4.37.24-6.25.91-6.4,6.46-3.85,3.71,1.7,7,3.26,8.66,7.4,1,2.62,3.83,2.27,6,1.72,2.68-.68.52-2.78.88-4.09,2.82-10.44-3.25-22,4.15-31.83,1-1.36-.11-2.2-1-2.65-6-3-10.28-8.07-15.44-12-3.37-2.53-7.9-3.75-10.42-7.68-2.92-4.55-6.17-9-4.91-14.91a3.6,3.6,0,0,1,2.14-2.47c1.68.89,2.06,2.59,2.63,4.16,2.75,7.5,10.53,10.43,15.12,16.26.77,1,2.56,1,3.79.67,7.17-2.09,14.55-3.05,21.93-4,3.3.44,6.48,1.54,9.93,0,2-.88,4,.55,5.5,2.14a17.15,17.15,0,0,0,7.68,4.52c8.83,2.92,12.92,2.13,18.59-5.19,2.82-3.64,6.51-6.69,6.71-12.42C882.61,483,886.86,479.57,890.05,476.39Z" fill="#393028"/><path d="M799.48,962c-5.9-2.87-12-5.48-17.66-8.69-3.62-2-5.73-4.76-3.29-9.69,1.7-3.45,2.16-7.52,5-10.51a4.65,4.65,0,0,1,4.17,3.4c1.55,4.73,5.39,6.69,9.3,9.24,6.15,4,11.54,9.08,19,11,3.24.84,3.59,5.37,7.11,6.2,1.45.34,2.89,1.61,4.33.79,1.84-1,.27-2.68.26-4.06-.07-6.18.55-12,6.83-15.56,3.7-2.07,5.09-5,2.49-8.92-1.84-2.75-1.68-5.23.63-7.66A18.54,18.54,0,0,0,843,916.66c.56-4.53,2-4.88,6.11-2.65,4.67,2.49,9.78,4.15,14,7.48,2.6,2,4.56,1.06,5.79-1.8a12.94,12.94,0,0,0,1-6.08c-.11-1.61.2-3.38,1.81-3.8,6.18-1.59,5-6.42,4.57-10.47-.84-6.88-1.43-13.2,4.37-18.79,3.07-3,1.7-7.95,2-12,.75-9.16,1.7-18.24,4.19-27.2-1.19.72-1.92,2.35-3.67,1.64h0c-.84-4.22,1.69-9.18,5.28-10.4,2.26-.77,3.7.14,4.53,2.14a6.12,6.12,0,0,1,0,3.9c-3.93,15.38-3.59,31.28-5.81,46.87a10,10,0,0,0,.32,5,47.42,47.42,0,0,1,1.43,5c.52,2.94.59,6.37,5.31,4.62a39.66,39.66,0,0,1,8.33,1c6.13,1.17,11.56.53,14.76-5.73,1.25-1.61,1.55-3.66,2.53-5.38.78-1.39,1-3.81,3.75-2.62,5,15.42-2.08,24.32-18.77,23.79a15.68,15.68,0,0,1-3.33-.64c-4-1.28-6.22.35-6.8,4.25a140.94,140.94,0,0,0-2,19.45c0,2.76.43,5.66-1.6,8a3,3,0,0,1-1.46.72c-1.47-1.07-2.84-2.45-5-1.79,1.53.44,3.39,0,4.48,1.62,1.53,4.89-2.54,6.68-5.21,9.24l-2.61.54c.93.47,1.65-.26,2.44-.22a2.73,2.73,0,0,1,2.48,2.65c-.21,3.78,1.62,6.76,3.35,9.85a5.38,5.38,0,0,1,.67,4.29,4.31,4.31,0,0,1-2.85,3.19c-1.54.46-2.46-.47-3.24-1.61-.6-.87-.88-2.15-2.42-1.8-.74,0-1.64-.63-2.09-.26-.9.72.32,1,.65,1.42,1.48,1.64.78,2.93-.52,4.18a92.82,92.82,0,0,1-4.55,10.87c-3.7,7.85-8.58,8.15-17,5.24-9.32-3.2-18.43-7-27.64-10.48.61-4.4-2.81-2.86-4.93-3.26a18.35,18.35,0,0,1-8.92-5.7l.07,0C809.58,970.77,804.9,965.71,799.48,962Z" fill="#2b251f"/><path d="M883.12,951.67c1.92-3,6.08-4.68,5.79-9.1h1.16a3.56,3.56,0,0,1,1.25,3.56c-1.76,9.08,2.06,17.84,1.45,26.84a3.5,3.5,0,0,0,.11,1.12c.33,1.42.15,3.17,1.89,3.8.72.27,1.39-.43,1.85-1,1.21-1.57,1.26-3.19-.28-4.51-6.1-5.22-.88-10.85-.46-16.23.13-1.69,2.41-2.38,3.87-.33.92,1.28,1.8,2.87,3.41,1,1.42-1.63.58-3.14-1-4.28-.47-.33-1-.58-1.46-.87-1-.6-2.07-1.26-1.8-2.57a2.51,2.51,0,0,1,3.08-1.88c3.28.5,6.83-1.47,9.88,1,.48.84,0,1.74.15,2.6.92-.59.32-1.52.52-2.28.5-2,2-4.14,3.62-3.88,5.82.92,4.37-3.12,4.91-6.08.94-5.17-.23-11.21,5.91-14.35a1.8,1.8,0,0,0,.37-2.94,40.15,40.15,0,0,1-5.46-7.08c-1.18-1.73-3.1-.16-4.66.32-4.69,1.44-9.12-.3-12.29-4.8,3.8-.77,8.2,2,11.39-.79s7-5.55,7.27-10.27c.23-3.84-.22-7.72-.37-11.58-1.65-1.89-.84-3.92-.21-5.87,1.33-4.11,2.58-8.27,4.25-12.27.51-1.21,1.14-2.52,2.7-2.58,1.84-.08,2.55,1.37,3.19,2.76a26.1,26.1,0,0,1,1.17,4.35c2.22,8.54,4.24,17.13,7,25.52a27.41,27.41,0,0,1,5.29,19.3c-.26,2.62,1.68,4.42,3.4,6.18,1.08,3.77-1.09,7-1.88,10.39a35.22,35.22,0,0,0,1.63,20.52,20.15,20.15,0,0,1,1.3,6.64c.07,4.78-1.75,9.42-1.08,14.25a63.23,63.23,0,0,1-3.09,15.21c-.78,1.27-1.59,2.64-3.38,2.28s-2-2-2.25-3.41a21.25,21.25,0,0,1-.16-3.82,10.37,10.37,0,0,1,.16-1.66c0-.15-.15,0-.24.55a42.64,42.64,0,0,0-.3,6.19c-.11,7.86-.11,7.86-7.26,7.43a43.43,43.43,0,0,0-17.33.39c-3.47.73-6.53,1-10.4-1.6-3.35-2.28-9.45-1.12-14.25-.62-6,.62-8.35-1.17-9.7-6.78-1.21-5.06-.63-10-.76-15,.63-2.25-.58-4.76,1-6.86.21-.88.23-2.41.65-2.52,2.29-.61,1.27,1.52,1.78,2.43.68,1.19.59,3.28,2.72,2.89a2.71,2.71,0,0,0,2.08-3c-1.83-5.29-4-10.45-6.09-15.66a.67.67,0,0,1-.31-.71C883,951.8,883,951.67,883.12,951.67Z" fill="#2b251e"/><path d="M953.14,468.84c-.08-3.38-.32-6.77-.22-10.15.22-7.39-1.75-14.27-4.46-21a18.74,18.74,0,0,1-1.41-9.13c1.51-16.46-.87-32.72-2.49-49.1-.8-8.1-6.85-12.1-9.18-18.61-.69-1.94-3.41-1.93-5.57-2.12-4.53-.39-8.33-1.77-10.26-6.62-1.45-3.65-6.24-3.94-8.66-7-1.19-1.52-3-2.2-1-4.42.91-1,2.51-2.93,1.06-3.86-2.12-1.36-4.9-1.71-7.39-2.49-1.1,5.51-9.3,3.86-10,9.74-6-7.31-14.27-6.33-22.39-6.54-5.53-.15-6.51-2.3-3.83-6.92a31.25,31.25,0,0,1,12.14-6.94,68.61,68.61,0,0,0,19.36-10.56c7.91-5.93,16.45-7.69,26.31-5.55,9.57,2.08,18.38,5.24,26.55,10.74,5.74,3.86,9.52,7.9,7.86,15.23a6.34,6.34,0,0,0,.65,5c1.55-3.22.45-6.92,2.19-10.19,3.1,10.76,6.55,21.35,5.67,32.7.26,4.26.8,8.45,3,12.23,1.55,6.38,3.45,12.66,5,19,.92,3.76.72,7-2.32,9.77-3.86.88-3.54-2.54-4.7-4.45a18.38,18.38,0,0,1-1.55-6.84,42.3,42.3,0,0,0-2.67-14.26A31.12,31.12,0,0,1,963,363.85c0-.54.81-1.22-.13-1.72-.25.52-.63,1.21-1.13,1.14-1.52-.2-1.15.35-.81,1.3a40.06,40.06,0,0,1,2.37,8.07c.34,2.52,2.86,5.14-.92,7.81-1.13.8,1.44,4.81,2.25,7.38A20.94,20.94,0,0,1,966,401.59c-2.59,10.83-1.44,22.11-4.11,32.93-.48,2-.38,4.16-2.07,5.71-2.66.43-3.69-1.59-5-3.23a23.93,23.93,0,0,0,.62-13.72,8.82,8.82,0,0,1,0-2.46c.46-2.87,3.2-5.18,2.14-8.45.1-4-.43-8.11.9-12-1.46,4.45-.71,9.09-.94,13.64-2.2,4.58-2.43,9.42-2,14.35a10,10,0,0,1-.33,1.78c-1.78,6.18-3.41,12.36.36,18.45a11.59,11.59,0,0,1,1,4.49c-1.16,4.27-.62,8.67-1,13C955.12,467.35,954.7,468.56,953.14,468.84Z" fill="#372f26"/><path d="M883.21,843c2.45-.8,2.41-4.28,5.5-5a10.94,10.94,0,0,1,0,2.89c-3.7,12-4.5,24.27-5,36.64-.06,1.64-.29,3.62-1.82,4.61-6.35,4.08-5.47,10.23-4.06,15.9.94,3.77-1,7-.37,10.52a2,2,0,0,1-.59,1.37c-6.46-.93-5.33,3.48-5.55,7.28a11.43,11.43,0,0,1-2,5.22c-1.43,2.26-3.25,3.68-5.93,1.13-4.26-4.05-10.2-5.44-14.87-8.89-3-2.25-5.12-.47-4.5,2.41,1.08,5-1.91,7.88-4.82,10.67-2.55,2.44-2.78,4.33-.84,7.23,2.75,4.1,1.39,8.57-2.79,10.69-5,2.55-8,9.7-6.13,14.78.65,1.75,2,3.45,0,5.11-1.67,1.4-3.26.29-4.74-.48-2.67-1.38-6.35-1.17-7.18-5.49-.25-1.34-3.27-3-5-3.05-6.3-.07-9.42-5-13.75-8-1.06-.75-2-1.93-3.18-2.21-4.8-1.12-7.45-4-8.74-8.65-.46-1.67-2.13-3-3.24-4.51,2.61-4,5.18-8,7.86-12,1-1.42,2-2.71,1.49-4.57,3.35-4.11,8.9-2.77,11.28-1.2,4.1,2.71,6.86,1.08,10.23.06,3.4,1.33,6.19.4,8.5-2.27,4.12,4.14,1.76,7.83-1.48,10.58-2.82,2.39-3.8,4.9-3.36,8.27.58,4.47-1.83,7-5.59,8.8a4.57,4.57,0,0,1-5.71-.92c-1.74-1.76-.66-3,.61-4.29.51-.53,1.07-1.08.71-2s-10.69-7-11.45-6.69c-3.32,1.17-3.27,3.5-1.5,5.76,1.46,1.87,3,3.65,2.19,6-1.85,5.48,2,5.63,5.12,4.73,4.62-1.32,7.77-.65,9.77,3.79.31.67.69,1.79,1.38,1.12,2.57-2.48,5.11-.5,7.71-.52,2.35,0,6.57.74,6-4.33-.2-1.84.86-2.84,3.25-2.74,6,.23,6.8-1.12,4.15-6.19-1.32-2.51,1.22-12.32,4.23-15.19a12.07,12.07,0,0,0,3.08-3.95c1.68-3.89,3.36-6.12,7.85-2.31,2.49,2.12,5-.1,5.76-3a11.18,11.18,0,0,0,.09-5.05c-1.45-6.85,2.51-9.46,8.29-10.55,3.22-.61,1.66-2.44,1.5-4.13-.24-2.64-3-6.73,3.33-6.11,1.32.13,1.7-1.75,1.81-3.14.09-1.2-.3-2.81,1.92-2.63,5.57.45,3.77-2.74,2.44-5.27-1.63-3.11-3-6.82-5-9.15-2.53-3.13-7.48-5-12-5.82-3.79-.66-7.25-1.28-6.82-6.27,4.27,6.78,11.87,6.31,18,6.33C880.19,858.45,881,856.68,883.21,843Z" fill="#2b251e"/><path d="M834.05,498.05c.41,1.18.64,2.21-1.24,2.15a46.85,46.85,0,0,0-17.53,3c-3.93,1.4-8.77,1.58-11.24-4.25-1.55-3.67-6.76-4.16-9.16-7.93a29.76,29.76,0,0,1-4.3-10.08l8.18-8c2-.44,2.3,1.39,3.24,2.37,1.58,6.18,5.38,10.39,11.25,13,1.81.81,3.27,2.4,4.89,3.63a73,73,0,0,0,10.6,4.66Z" fill="#2e2119"/><path d="M867.26,330.61c-1.52,3.74-.53,5.68,3.83,5.48,2.84-.13,5.73.29,8.52-.08,6.86-.9,11.18,2.12,13.87,8.06-.06,1.44-.51,2.47-2.27,2.18-8-1.41-16-2.77-24.2-1.92a59.38,59.38,0,0,0-7.28,1.19c-4,.93-4,2.79-1.5,5.4-.3,1.64-1.09,2.92-3,2.47-1.66-.41-1.35-2-1.46-3.26C853.07,341,857.16,335,867.26,330.61Z" fill="#807051"/><path d="M858.23,350.92c-1.19-.06-3.19,2-3.33-.85-.08-1.73-1.44-4.49,1.29-5.15,11.77-2.87,23.55-4.26,35,1.33-7.81-.7-10.39,7.09-16.13,9.77a17.61,17.61,0,0,0-2.33,1.57c1.23-5-2.85-6-6-7.9S860.73,348.21,858.23,350.92Z" fill="#5b4b33"/><path d="M981.33,360c.44,3.14.95,5.69-.22,9.4-1.55,4.94-2.38,12.22,3.4,17.25,2.1,1.83,1.61,5.35.9,8.09-1,4-2.47,7.87-3.73,11.8-4.45,1-6.37-.45-5-5.08,2.46-1.81,1.78-4.2,1.28-6.59-1.3-6.21-3.79-12.11-4.71-18.42.41-6.16,3.48-11.75,3.86-18,.11-1.8,1.52-3.3,3.26-.73Z" fill="#372f26"/><path d="M976.41,353.09c-1,4.44-1.92,8.88-2.87,13.29-1.91,0-1.17-1.81-2.1-2.35-.31-5.09.78-10.1.63-15.21-.13-4.44-4.85-7.37-3.14-13C972.42,341.68,976.07,346.62,976.41,353.09Z" fill="#372f26"/><path d="M802,475.33,798.76,473a1.71,1.71,0,0,0-.24-.94c-4.26-1.61-7.46-4.12-7.8-9,1.39-2.86,5.14-2.35,6.88-4.72,2,3,3.73,6.06,2.28,9.79C798.71,471.07,802.26,472.64,802,475.33Z" fill="#4e3a2d"/><path d="M991.83,407.44c-2.27,4.17-2,9.42-6.05,13.55-.26-5.35,1.1-9.95,1.69-14.62.51-2,1.14-4,3.76-3.57,1.48.22,1.09,1.52.86,2.56C992,406.05,991.92,406.75,991.83,407.44Z" fill="#372f26"/><path d="M799.48,962c.89.16,2.11,0,2.63.53,4.12,4.18,10,5.32,14.71,8.47-2.32,2.06-4.53,2-7.11.18C805.93,968.52,801.92,966.15,799.48,962Z" fill="#666059"/><path d="M693.07,361c-2-.15-4.21.09-6.1-.52-4-1.3-6.48-1-6.08,4.52-2.06-2.57-4-4.66,0-6.84,1.3-.71,2.74-1.24,3.38-2.75C687.78,356.41,690.44,358.7,693.07,361Z" fill="#4e3a2d"/><path d="M838.49,745.6c-2.54,3.9-3.67,8.2-.55,12,2.43,3,1,4-1.3,5.29.27-2.25-1.14-3.76-2.19-5.55C831.61,752.49,833.2,748.21,838.49,745.6Z" fill="#9e928b"/><path d="M988.42,383.65c-.06.9-.13,1.8-.24,3.27-2.16-3.51-3.82-6.62-4.42-10.15-.22-1.32-1-3.38.81-3.81,2-.47,1.55,2.11,2.5,3.11C987.5,378.6,986.44,381.39,988.42,383.65Z" fill="#372f26"/><path d="M882.06,968.62c.39,2.39.5,4.75-1,6.86l-1.2-1.17c-.78-1.08,1.49-2.94-1-3.64-2-.56-2.87-2.47-1.49-3.75C879.3,965.05,881,966.65,882.06,968.62Z" fill="#a8a2a1"/><path d="M826,975.56a18.59,18.59,0,0,1,2.78-.12c1.57.15,3.78-.89,4.54.9.86,2-2.14,2.13-2.76,3.6l-4.53-1.26A3.53,3.53,0,0,1,826,975.56Z" fill="#5a544d"/><path d="M826,975.56a2.48,2.48,0,0,1,0,3.12c-3.33-2.31-7.82-3.23-9.32-7.7C820.13,972,822.16,975.58,826,975.56Z" fill="#666059"/><path d="M737.33,393.67c-5.35-.93-7.62-5.48-10.78-9C731.2,386.44,733.59,390.85,737.33,393.67Z" fill="#4e3a2d"/><path d="M828.74,496.63a15.82,15.82,0,0,1-10.6-4.66A26.8,26.8,0,0,1,828.74,496.63Z" fill="#393028"/><path d="M680.74,353.1a11.06,11.06,0,0,1-7.91-5.68C676.17,348.35,678.56,350.59,680.74,353.1Z" fill="#4e3a2d"/><path d="M914,445.77l-1.18,0c.52-3.51,1.73-6.68,4.54-9.06C917.49,440.19,914.2,442.41,914,445.77Z" fill="#1e1915"/><path d="M843,736.71c2.16,1.49.88,4.45,3.4,6.06l-4.86.54C843.27,741.37,843,739,843,736.71Z" fill="#2b251f"/><path d="M663.68,376.84a21.28,21.28,0,0,0,16.65-5.48c2.35-2,5.19-1.77,7.55-.94,8.29,2.92,15.34,8,22.19,13.37,3.78,2.95,2,8.69,5.72,11.93.94.8-.86,2.24-1.76,3.15-1.36,1.38-2.83,2.64-1.3,4.8a5.57,5.57,0,0,0,5.37,2.5c2.63-.23,1.8-2.25,2-3.83.53-3.79,2.5-4.27,6-2.9,7.47,2.95,11.12,8.78,11.59,16.11.42,6.42,5.44,9.47,8.65,13.69,1.71,2.25,4.08,4.14,5.67,6.75s3.33,5.23,7.28,3.49c1.51-.66,3.59-1,4.61.76a4.32,4.32,0,0,1-.69,5.29c-3.71,3.09-2.54,5.67.08,8.56,2.13,2.35,4.62,4.64,1.86,8.27-2.39,3.14-5,5.1-10.52,2.14,1.73,2.1,2.26,2.83,2.87,3.47,5.39,5.65,3.73,12.83-3.68,15.89a62.53,62.53,0,0,0-6.77,2.88c-1.62.91-4.45.33-4,4.18.29,2.33-2.48.61-3.9.22,0-.75,0-1.51,0-2.26-1-2.51.1-4.77.84-7.07.79-2.46-.09-3.24-2.68-3.46-6.46-.52-13.15,1.63-19.4-1.72-1.5-.8-2.87.4-4,1.4s-2.22,2.3-3.7,2.51c-6.6,1-7.38,5.24-6.46,10.6h0c1.4,7,.64,8.52-5.7,11.35-4.36,1.95-7.6,5.6-11.92,7.63-1.77.83-3.53,3.25-5.41.94-1.71-2.1-.31-4.45,1.36-6.05a44.49,44.49,0,0,0,7-8.13c1.89-3,5.31-4.22,8.57-7.51-5,.72-8.85.9-11.75,4.33a38.75,38.75,0,0,1-17,11.86c-3,1.07-5.73,3.09-5.72,7,0,1.24.57,3.12-1.1,3.39-2.16.35-2.76-1.47-2.94-3.29a9.17,9.17,0,0,1,1.14-5.66c-.57-4.14,1.33-7.3,4.4-9.74,3.87-3.06,7.25-6.64,11.16-9.66,2.85-2.21,5.66-4.69,2.6-9-1.34-1.87-.39-4.43,2-3.81,7,1.8,11.91-2.68,17.65-4.69-7.22,2.28-14.86.65-22.19,2.47-4.08,1-8.35,2.6-12.77.29-1.94-1-3.39,1.14-4.93,2.16-1.33.87-2.92,1.66-4.2.51-1.76-1.56-.08-3.08.73-4.44a10.43,10.43,0,0,1,3.82-3.33c6.37-3.86,8-10,7.12-16.63-.65-4.75-5.75-3.36-8.82-4.16-2.48-.64-4.28,1.82-4.71,4.6-.26,1.64,1.82,3.87-1,4.84-1.08.38-2.19-.51-2.89-1.44-1.48-1.95-2.23-4.2-.72-6.29,3.31-4.59,6.92-9,12.71-10.74,2.43-1.4,4.7-3.43,4-6.2-.78-3.06-4-2.65-6.7-2.95s-5.75-2.74-7.46-1.88c-6.21,3.1-11.54.05-17.25-.93-2.22-.38-5.64,2-6.76-.43-1.22-2.68,2.24-4.62,3.8-6.84,2.93-4.16,5.81-8.34,10.33-11,2.62-1.55,5.19-2.23,7.7.43,3.21,3.4,4.43-.16,6.06-1.89,2.54-2.7-.18-3.65-1.85-4.48-2.69-1.35-5.64-2.19-8.39-3.45-2-.92-5.46-.74-4.54-4.45.79-3.22,3.39-3.6,6.28-3.47s5.71,0,8.57,0a6.29,6.29,0,0,0,4.72-2.1c-11.31-3.85-22.33-7.6-32-14.7,1.12-.43,2.23-1.3,3.19-1.15,6.89,1,14,1.42,20.67,2.94C655.09,376.42,659.17,377.67,663.68,376.84Z" fill="#4e3a2d"/><path d="M660.26,438c-3.27,3.05-6.44,6.22-9.84,9.11-3.76,3.19-3,5.88,1.33,9.68-1.2-4.24-2.59-7.31,1-9.86,2.42-1.7,4.35-3,7-.92a2.91,2.91,0,0,1,.46.32c2,2.21,7.2-1.67,7.2,2.89,0,7.18.23,15-7.49,19.37-2.72,1.53-4.87,3.22-5.75,6.23a2.23,2.23,0,0,0,3.17-.71c2.49-3.28,4.9-4.23,8.86-1.66,3.8,2.46,8.38-.61,11.72-1.51,8-2.17,16.43,1.15,24.17-2.56-6.38,3.42-11.56,9.33-19.81,8-1.12-.17-2.6-1.71-3.43.21-.62,1.42,1,1.63,1.76,2.38,2.92,2.88.49,5.35-1.3,7.22a63.79,63.79,0,0,1-10.58,9.34c-4.39,2.91-6.61,7-8.55,11.47-2.08-.4-4.2-.74-4.52-3.43s1-4.28,3.17-5.49a4.6,4.6,0,0,0,1-.53c1.74-1.76,7.08-1.5,4.88-5a7.57,7.57,0,0,0-9.71-1.82c-4.84,2.91-6.37,1.68-7.49-3.85-1-4.87-1.93-10-6.47-13.3-2-1.5-1.54-3.23,0-4.79a22.42,22.42,0,0,1,8.57-5.34c1.94-.67,4.34-1.66,3.27-4.36-1-2.45-3.43-2.14-5.46-1.64a87,87,0,0,0-10.32,3.1c-3.59,1.39-5.21-.58-6.93-3.07-2.17-3.17,1.07-3.74,2.39-5.22a27.32,27.32,0,0,1,2.05-2c1.15-1.07,3.42-1.66,2.17-3.88-1.15-2.06-3.13-1.89-5-1.15a7.5,7.5,0,0,1-6.23-.33A77.31,77.31,0,0,1,660.26,438Z" fill="#45372c"/><path d="M659.11,512.64c1.31.42,1.12,2.48,2.79,2.54-.91-6.24,2.09-9.72,8.38-11.74a25.55,25.55,0,0,0,13.86-10.05c3.48-5.39,9.43-4,14.1-6.07.32-.14,1.39.66,1.6,1.21a1.94,1.94,0,0,1-1.13,2.35c-7,2.7-9.48,9.95-14.94,14.18a11,11,0,0,0-2.32,3.11c-.49.8-.84,1.84,0,2.58s1.66-.11,2.44-.59c5.33-3.23,9.72-7.83,15.9-9.9,4.18-1.39,4-5.48,3.91-9.12a7.84,7.84,0,0,1,1,1.31c1.22,2.61.9,7,4.5,7,2.54,0,3.34-4.07,4.67-6.45,1.09-2,2-5.23,4-4.81,2.8.58,5,3.56,5.94,6.25.77,2.14-.37,4.81-2.41,6.49-.86.7-2.05,1-3,1.63-2.82,1.88-3.09,3.87.22,5.38,2.49,1.12,6,2.75,4.87,5.09-1.38,2.74-1.45,8.66-7.76,6.65a2.29,2.29,0,0,0-2.75,2.76c.64,2.41-1.49,5.88,2.54,7.17,1.5.48,3.77.5,3.51,2.83a3.63,3.63,0,0,1-2.25,2.3c-2.05.65-2.85-1.4-4.08-2.46-3.12-2.69-2.81-7.24-5.7-10.15-4.57-4.61-5.12-4.66-9.13.14-.93,1.11-1.59,4-3.65,2.15-1.57-1.37.94-2.37,1.66-3.52a19.73,19.73,0,0,1,11.46-8.67c1.59-.49,4.91-1.7,2.92-4.8-1.5-2.34-3.57-3.44-5.91-.64a4.29,4.29,0,0,1-4.19,1.3c-5.08-.89-8.77,2.15-11.21,5.37a45.86,45.86,0,0,1-11.16,10.3c-4.07,2.72-5.2,5.16-2.76,9.32a25.54,25.54,0,0,1,1.51,4.1c-5.92-1.66-12.52-9-12.83-14.61-.16-2.78-1.59-4.08-3.82-5C657,516.35,656.66,514.74,659.11,512.64Z" fill="#45372c"/><path d="M703.7,491.14c-3.36-8-2.23-8.24,4.81-11.71,5.64-2.79,9.62-4.71,16.34-2.58a23.38,23.38,0,0,0,13.62-.13c2.82-1,4.69.92,3.49,4.28l-2.82,7.88c-7-4.7-15-6.15-23.27-5.72C710.33,483.45,706.43,486.49,703.7,491.14Z" fill="#45372c"/><path d="M746.53,535.64c2.25,2,2,3.83,1,6.17C745.19,540,746.06,538.08,746.53,535.64Z" fill="#45372c"/><path d="M947.46,735.44c2.47,6.93-.16,14.62,3.28,21.44.31.62-.21,1.89-.69,2.63-3.5,5.46-3.33,11.65-3.37,17.69,0,2.49-2,6,3.51,7,2,.38,2.7,6.53.62,10.21-1.59.64.34,3.74-2.49,3.52-1.32-1.11-1.45-2.91-2.48-4.19-2.29-7.24-6.58-14.1-4-22.26-.23-.21-.5.09-.27.52,1.51,2.74-3.2,3.38-2,6.25,1.06,2.45,2.78,5.07.88,7.94-5.29,4-10.43,3.79-14.3-2.34-3-4.81-6.81-9.74-6.48-16.26s-1-7.83-7.58-7.09c-3.84.44-7.06-.09-10.13-3.38-.64,3.18-.79,5.75-2.4,8-2.66,3.63-4.36.48-6.19-1.07-3.72,8.88-5.73,8.79-14.4,1.29.09,3.06,1.7,4.54,3.86,5.85,1.64,1,3.2,2.32,1.68,4.58-1.4,2.1-3.56,3.63-5.73,2.11-5-3.49-8.06-9.7-15.13-10.42-.47-.05-.85-1.93-1.09-3-.77-3.52-2.86-5.7-6.48-6.2-2.82-.4-4.53-1.75-4.91-4.6-1.17-5.24-1-10.73-3.17-15.82-.5-1.2-1-3.28.83-3.88,1.65-.53,1.9,1.26,2.41,2.45,1.06,2.46,2.63,4.39,7.43,5-5-3.15-6.3-6.75-7.09-10.66a4.83,4.83,0,0,0-2.58-3.32c-5.94-3.59-7.31-10.71-3.6-16.83-.2-2.33,1.51-3.94,3-5a22.87,22.87,0,0,0,7.37-8.49c1.58-5.55,3.06-11.08-1.94-15.86a1.56,1.56,0,0,1,.28-1.47c2.25-1.3,2.3,2,4.57,1.93-.33-10.81,7.47-20.77,3.15-32.2-.67-1.77.48-4,1.94-5.62,2.46,2.7,1.06,6.15,1.82,9.2,1.54,6.21.66,12.66,2.16,19,1,4.35-1.74,8.67-4.13,12.59-2.14,3.5-2.57,6.65,2.23,8.46.8.31,1.28,1.63,2.37.94a3.27,3.27,0,0,0,1.3-3c0-2-1.12-3.56-1.9-5.27-2.75-6.06-1.63-9.32,4.65-11.28,2.49-.77,3.32-1.65,3.37-4.06a5.27,5.27,0,0,1,2.49-4.28,5.25,5.25,0,0,0,2.85-5.56c-.23-2.36,1-4,3.6-4.12,4.15-.25,3.48-2.5,2.07-5a19.41,19.41,0,0,0-1.73-2.24c-3.85-5-3.6-5.76,2.54-7.07,2.07-.45,2-1.41,1.17-2.78a16.45,16.45,0,0,0-2.34-2.46c-4.09-4.52-3.26-8.38,2.4-10.94.79-.36,2.18-.12,1.7-1.54a1.75,1.75,0,0,0-2.79-.89c-2.29,1.42-4.47,2.81-5.6-1.1-.94-3.32-1.25-6,3.29-7.42,5.43-1.72,5.62-5.19,1-8.94-3.89-3.16-4.72-10.9-1.3-14.62,2-2.17.82-3.13-1.09-3.47-4.55-.81-7-3.14-7.56-7.81-.3-2.57-1.92-3-4-1.13-1.22,1.16-2.58,1.6-4,.31-.38-3.39-.75-6.78-1.13-10.17,1.26-1.54.09-3.29.45-4.9.56-2.51.17-5.73,3.25-6.72a6.73,6.73,0,0,1,7.92,3.17c2.15,4.35,5.17,6,9.73,6.69,2.4.34,4.11,2.67,5.44,4.76,2.11,3.34,3.86,6.92,7.12,9.43.75.57,1.52,1.6,1.31,2.41-1.5,5.7,2.75,6.94,6.48,9.18,4.94,3,5.19,5.6,1.43,10.06-2,2.32-2,4,.44,5.58,3.79,2.5,3.64,5.33,1.08,8.56-.69.88-1.63,2.72-.74,2.91,5.73,1.24,4.35,4.66,3.13,8.33-.25.78,1,1.52,1.63,2.19.94.94,2.46,2.16,2.06,3.22-1.86,4.9.7,10.63-2.65,15.06-2.83,3.75-2,6.87.34,10.31,3.34,5,2.25,4-1.65,7.53-4.37,4-10.27,6.71-12.32,13.7-1.77,6-2.7,12.31-4.83,18.27-1.36,3.78-4,4.45-7.2,3.1s-4.32,0-4.54,2.72c-.31,3.76-2.23,7.53-.44,11.34,1.94-.1,2.45-1.48,3.31-2.43,1.75-1.91,3.08-4.54,6.48-3.36s5.55,3.06,6.4,6.57c.63,2.61.4,5.26.84,7.85.24,1.45.28,3.26,2.27,3.46s2.58-1.36,3-2.85c.87-3.17,2.77-4.89,6.21-4.47s4,2.86,4.09,5.75a6.9,6.9,0,0,0,3.38,5.63c3.3,2.24,6.61,4.36,8.91,7.78,1.22,1.83,3.35,1.31,5.26,1.15,7.79-.67,7.79-.65,8.18,7.12a11.1,11.1,0,0,0,.33,2.73c.52-3.37,0-6.7.09-10C944,738.61,942.27,734.55,947.46,735.44Z" fill="#191512"/><path d="M942.75,752.5c-2.23-2-1.21-4.63-1.15-6.93.08-3.06-.88-4.06-3.9-3.25-5.1,1.39-9.44,1.1-12-4.65-.63-1.44-3-2.13-4.57-3.17-3.23-2.14-6.36-4.46-5.42-8.93.48-2.28-.36-3.25-2.38-3.52s-3.93-.17-4.75,2.08a12.61,12.61,0,0,0-.34,2.79c-.35,3.06-3.08,3.29-5.13,3.54s-2.32-2-2.74-3.63c-.81-3.07-.35-6.25-.84-9.39-.6-3.8-3.07-5-5.89-6.05-3.17-1.18-3.26,2.43-4.95,3.59s-1.71,4.88-4.71,3.55c-2.84-1.27-1.81-4.14-1.39-6.55.62-3.49,1.17-7,1.71-10.51.4-2.61,1.27-2.89,3.77-1.59,5.79,3,6.14,2.66,7.18-4.14a5.21,5.21,0,0,1,.59-1.53c2.65-5.23,2.65-5.22.28-9.91,3-.31,5.73-.95,4.28-5a3.13,3.13,0,0,1,.14-1.67c.77-3.24,12.72-12.68,16.22-12.8.91-1.93-1-2.55-1.78-3.67-3-4.36-5.74-8.6-.3-13.25a3.68,3.68,0,0,0,.52-5.14c-1.11-1.61-1-3,.4-4.56,2.85-3.18,1.1-5.66-1.8-7.29s-3.08-2.79-.65-4.91c1.94-1.69,3-3.64-1.11-3.46-1.48.07-2.52.15-3.18-1.4a3,3,0,0,1,1-4c4.18-3.15,3.57-5.39-1-7.75-2-1-4.18-3.51-1.13-5.85,2.5-1.93,5.87-3.94,3-7-2.41-2.61-5.38-7.24-10.17-2.93-1.54-2,.14-3.1.42-4.46.64-3,1.29-6-2.33-7.82-2.75-1.4-3.32-4.46-4.86-6.79-2.72-4.12-5.34-8.62-11.65-6.06-1.94.79-2.34-.35-2.42-1.88a11.83,11.83,0,0,0-.2-2.81c-1.14-3.54-4.47-5-7.47-5.36-3.38-.46-2,3.2-2.88,5s-.28,4.2-2,5.72c-1.86-4.74-3.16-9.76-6.88-13.58-3-2.38-6.79-3.61-9.14-6.79a1.5,1.5,0,0,1,0-2.25l1.13,0c11.14,1.19,20.9,6,30.41,11.42a5.51,5.51,0,0,0,4.31.75c6-1.45,10.72.81,13.66,6.5.42.81.94,1.58,1.73,2.88,1.53-2.19,2.79-4.33,5.77-2.47,2.45,1.53,5.35,2.4,4.67,6.11-.28,1.51-.56,2.79,1.18,3.84,2,1.19,2.79,3,1.59,5.32-.8,1.56-.21,3.65.93,4.08,5.46,2,4.27,5.55,2,9.76,2.84,0,4.43-.89,5.69-2.67s2.5-5,4.74-3.61c2.48,1.48,3.08,5,3.08,8.08,0,1.49-2.87,2.69-1,4.41a31.57,31.57,0,0,0,7.16,5.25c1.9.94,2.83-1.24,3.73-2.67a3.42,3.42,0,0,1,2.89-1.53c4.11,3.17,3.46,8.15,4.77,12.38-.36,4-2.42,7.88-.43,11.94a9.33,9.33,0,0,1,.21,3.83c.92-3.12-1.64-5.94-.8-9a3,3,0,0,1,1-1.39c1.65-.62,2.87,0,3.92,1.25a17.73,17.73,0,0,1,2.08,9.71c-.28,5.94,2.64,11.22,3.87,16.85.52,2.36,1.71,4.59,1.33,7.11-.17,1.12-.53,2.21-.65,3.34a5.28,5.28,0,0,1-1.29,3.09c-3.08,1-3.52-1.4-4.1-3.28-1.73-5.58-4.73-10.59-6.33-14.43,2.41,4.41,4.34,10.32,2.05,17.15-1.49,4.45-.3,9.31-.74,14a7.62,7.62,0,0,1-1.78,4.13c-1.07.86-2.14,1.35-3.22,0-1.67-5.12-.56-10.43-1.65-15.59,1.17,5.19-.16,10.57,1.76,15.71,3.17,2.54.88,6.42,2.34,9.38.42,5.94.6,12,2.51,17.64,1.72,5.09-.72,9.38-1.44,14.06-.79,5.12-.56,10.39-.77,15.59-4.41,1.13-1.63,4.92-2.73,7.27-4.14-5.73-1.16-12-1.9-16.75a68.84,68.84,0,0,0,.42,15.65C943.84,745.25,944.63,749,942.75,752.5Z" fill="#231e1a"/><path d="M868.34,579.39c1.3-.08,2.74.19,3.33-1.48.5-1.43,1.05-3.33,3-2.46s3.92,2.11,3.52,4.58c-.66,4.1,1,5.93,5.07,6.24,2.27.17,4.84.81,5.35,3.39s-2.16,2.59-3.76,3.39a3,3,0,0,0-1.26,1c-.6,1,2.89,10.79,4.1,11.15,3,.91,3.54,3.16,3.47,5.74s-1.19,5-3.61,5.14c-6.73.38-4.75,4.17-3.64,8.32,2.47-1.16,4.24-6.62,7.49-1.58.78,1.21,2.47,2.21,1.78,3.91-.88,2.16-2.49.82-3.85.45-2-.55-2.74.87-3.37,2.26s-2.17,2.88-.57,4.6a17.91,17.91,0,0,0,3.24,3.16c2.23,1.42,3.29,3.25,2.3,5.67-1.35,3.33-3.22,1.09-5,.25a1.64,1.64,0,0,0-2.4.71,2.33,2.33,0,0,0,.61,2.59c1.91,2.27,4.3,4,5.26,7.19,1.11,3.64-.74,5-3.46,4.41-5-1.06-4.2,1.85-3.49,4.39s.82,3-2.29,3.94c-4,1.15-4.32,5.18-2.55,9.19-2.21.83-4.15-.86-6.46.59-3.86,2.41-5.23,4.39-2.49,8.46,2.91,4.32,4.36,8.83-1.27,12.85-1.68-2-2.67-5-6.35-5.09-2.18,0-2-1.89-1-3.34,1.82-2.58,2.34-5.71,4.29-8.38,2.37-3.25,2.3-7.29,1.55-11.66-1.43-8.25-1.49-16.73-2.12-25.12C864.84,632.92,866,622,867,611a15.81,15.81,0,0,0-.24-6.11c-1-3.17-.84-6,1.2-8.51,2.59-3.2,1.28-5.36-1.84-6.58-4.64-1.81-4.55-3.65-.4-5.74C867.77,583,866.51,580.41,868.34,579.39Z" fill="#131110"/><path d="M855.75,697.08c-.15,7-7,8.91-10.32,13.49-3.52-1.34-5.7-2.52-1.6-6.29,2.63-2.41,3-6.65,7.42-8.18C853.65,695.27,854.47,695.71,855.75,697.08Z" fill="#2a221b"/><path d="M758.46,635.67a4.65,4.65,0,0,1-6.1,3,10.11,10.11,0,0,1-6.26-8,1.81,1.81,0,0,1,1.15-2.26,1.33,1.33,0,0,1,1.84.78c.82,4.52,3,6.72,7.86,5C757.76,633.87,758.28,634.58,758.46,635.67Z" fill="#332920"/><path d="M815.75,914.24c1.35-2.23,1.55-4.06-1.16-5.65-3.35-2-6.49-4.3-11.14-7.43,4.6-.41,8.22-4.58,10.1,2.26.29,1.07.86,1.57,2,1.28,7.54-1.91,6.57,2.86,5.88,7.38C820.3,914.74,818.66,916.13,815.75,914.24Z" fill="#2b251e"/><path d="M763.06,879.46c-.83,3.11-2.11,5-1,7.26a2.54,2.54,0,0,1-.94,3.41,1.28,1.28,0,0,1-1.8-.84c-.43-1.52-3.62-2.51-2-3.86C759.13,883.9,759.15,881,763.06,879.46Z" fill="#757279"/><path d="M815.75,914.24c2.43.64,3.92-1.16,5.71-2.16l1.43,1.07c-1.5,5.27-3.76,5.88-8.5,2.27Z" fill="#7f7981"/><path d="M783,859c-.69,1.48-1.26,3.35-3.09,3.68-1.43.26-1.79-1.23-1.62-2.35a3.52,3.52,0,0,1,3.26-3.33C782.51,856.94,783.24,857.78,783,859Z" fill="#686466"/><path d="M783.58,899.19c-.36,2.23-2.47,3-4.06,4.06-.61.41-1.62-.74-1.55-1.77.19-2.57,3.33-1.78,4.37-3.61C782.65,897.33,783.43,898.36,783.58,899.19Z" fill="#565254"/><path d="M766.13,862.75c.79,2.63.39,4.25-1.82,5-.75.26-1.73,0-1.77-.78C762.45,864.82,764.19,864,766.13,862.75Z" fill="#524c4c"/><path d="M799.39,898.72c.49,2.39,2.14,4.08.09,5.71a1.59,1.59,0,0,1-1.48-.07C796.9,902.38,796.89,900.5,799.39,898.72Z" fill="#6e6b6a"/><path d="M754.73,810.93c-.89-.45-1.6-1.08-1.35-2.13a2.39,2.39,0,0,1,2.8-2,1.08,1.08,0,0,1,.93,1.59C756.66,809.47,756.47,810.94,754.73,810.93Z" fill="#7c787a"/><path d="M761.5,826.36c-.46,1.22-1,2.51-2.42,2.75-1.08.19-1.66-.71-1.51-1.75a2.64,2.64,0,0,1,2.62-2.37C761,824.93,761.51,825.47,761.5,826.36Z" fill="#7c7679"/><path d="M783.08,867.74c.94-2.39,2.53-3.18,4.22-4.47C786.91,866.6,786.91,866.6,783.08,867.74Z" fill="#5c5856"/><path d="M749.87,865.73c-.37,1.27-.82,2.56-2.28,2.88a1.18,1.18,0,0,1-1.42-1.28,2.78,2.78,0,0,1,2.33-2.73C749.22,864.4,750,864.68,749.87,865.73Z" fill="#615b5d"/><path d="M747.82,880.69c.2,1-.06,1.64-1,1.74-1.49.18-1.91-.86-2-2.06-.06-.73,0-1.64.91-1.74C747.27,878.47,747.4,879.83,747.82,880.69Z" fill="#615c5c"/><path d="M847.9,566.67c-1.52-.39-3.64-.86-3.23-2.5.65-2.54,3.64-2.79,5.74-3.75.93-.43,1.85.53,1.71,1.61A5.18,5.18,0,0,1,847.9,566.67Z" fill="#2a221b"/><path d="M851.2,546.6c0,.75,0,1.5,0,2.25-1.55-2.1-4.5,2.66-5.71-1.13C847.25,546.67,848.84,544.69,851.2,546.6Z" fill="#2a221b"/><path d="M842.4,574.79c.24,1.23-.3,1.75-1,1.92a1.88,1.88,0,0,1-2.39-1.66,1.36,1.36,0,0,1,1-1.69C841.4,573,841.78,574.34,842.4,574.79Z" fill="#2a221b"/><path d="M664.83,364.41c-2-2-7.34-3.11-5.9-5.64,2-3.4,5.51.9,8.43,1.5,2.12.44,5,1,5.48,4.14A7.14,7.14,0,0,1,664.83,364.41Z" fill="#3f352b"/><path d="M664.83,364.41h8a24.65,24.65,0,0,0,2.61,1.07c1.54.44,3.19.85,2.08,2.95-1,1.87-2.23.42-3.32,0-.51-.22-.89-.73-1.39-1a7.49,7.49,0,0,0-7.06-.15c-2.18,1.25.86,3.39-.16,5.1C661.43,370.74,661.43,370.74,664.83,364.41Z" fill="#4e3a2d"/><path d="M790.72,463l7.8,9c-2.86-.18-6.1,3.17-8.46-1.81C788.62,467.18,787.93,465.19,790.72,463Z" fill="#4e3a2d"/><path d="M947.52,508.09c-.09,1.24-.18,2.48-.34,4.56-4.12-5.28-3-10.77-3.62-15.87-1.89-7.4-.84-14.51,2.67-23.08C946.43,486.26,944.47,497.31,947.52,508.09Z" fill="#1e1915"/><path d="M940.28,899.6c-3.7-8.81-5.47-18.17-7.82-27.36-.46-1.82-.55-3.63-2.78-5.6-2.39,7.14-5.27,13.53-6.46,20.5-2.92,2.34-2.14,6.47-4.51,9.07-.74,0-1.58-.38-2.22,0-4.28,2.7-8.73,2.76-13.48,1.38-4-1.16-8.77,1.26-12.22-2.57a7.44,7.44,0,0,1-.93-3c-.77-3.73-2.15-1.4-3.4-.32-2.56-7.83.68-15.51.74-23.29,0-5.55,2.3-11.07,1.64-16.71-.6-5.15,1.88-9.49,2.95-14.2.36-1.59.78-3.06-.86-4-1.84-1-2.88.61-3.73,1.69-1.83,2.33-4.22,4.44-4,7.82-2.6,1.18-3.79,3.74-5.63,5.67-.53-.17-1.19-.66-1.56-.48-6.68,3.25-10.64-.73-14.44-5.2-2.92-2.91-6.86-5.14-6.89-10,.88-1.56,2-1.21,3.39-.63,5.19,2.18,9.37.29,11.52-5s3.84-10.72,11.52-9.87c1.53.17,3.24-1.71,4.93-2.48,2.83-1.28,3.39-2.86.93-5-1.51-1.33-2.71-2.66-1.2-4.79,1.34-1.9,3-1.81,5-1.42,4.18.82,8.25,2.33,12.63,0,2.23-1.17,4.06.91,4.67,3,.82,2.82,2.28,3.76,4.17,1.41,3.77-4.68,9.07-3,13.51-3,4,0,7.92,2.5,12.13.53a1.67,1.67,0,0,1,1.11.1c3.08,1.31,3.05,1.31,3.75-2.13a4.82,4.82,0,0,1,.86-1.42c2.37,2.09,1,4.86,1.27,7.32a56.18,56.18,0,0,0,1.36,5.51c-.45-3.64-3.73-7.4,1-10.73a26.16,26.16,0,0,1,3.08,11.79c.31,9.56,3,18.56,5,27.72.86,3.88,1,7.45-1.75,10.66-2.95,2.41-4,.11-4.9-2.06-1.56-3.81-2.63-7.82-4.74-11.49,9.43,18.67,7.42,38.32,5.24,58-.82,1.68-1.44,3.89-3.93,3.18s-2.94-2.78-2.7-5c.52-4.84.72-9.78,1.55-14.52,1.31-7.47-.38-14.87.81-20.21-.25,9.66-.16,21.36-2.31,33C942.33,897.12,942,898.7,940.28,899.6Z" fill="#352d25"/><path d="M862.59,841.94c1,2.44,4.56,2.44,5.29,5.6.2.87,3.94,1.1,5.74-.59,2.81-2.64,3.37-.46,4,1.74-4.18,5.81-9.39,5.2-14.9,2.28s-11.35-5.7-10.26-13.56c1.4-2.2,2.78-1.65,3.69.27C857.43,840.49,859.72,841.58,862.59,841.94Z" fill="#97918b"/><path d="M850.07,822.37c-5.32,4.32-10.74,2.64-17.51-4.66-4.8-5.17-4.92-7.78,0-12.79.55,4.84-.73,10,4.37,12.73C840.93,819.8,843.9,824.22,850.07,822.37Z" fill="#a59f9b"/><path d="M828.47,772.92c.35,5,4.87,7.59,6.19,12.09.82,2.81,4.58.39,6.9,2.12-4.12,3.75-7.74,2.84-11.14-.68C825.3,781.14,824.64,776.87,828.47,772.92Z" fill="#9f9994"/><path d="M862.59,841.94c-3.14.6-6.1,1.08-6.85-3.38-.3-1.75-1.66-2.33-3.33-1.15-.37-2,1.53-2.93,2.27-4.4C856.73,836.49,859,839.75,862.59,841.94Z" fill="#615c56"/><path d="M949.53,572.6c.4,5.51-.69,11.3,3.22,16.11,4.17,6.84,5,14.32,3.53,21.92-.68,3.61.63,8.09-3.53,10.63l-3-1.12c-1.34-3.8,2.07-7.64-.13-11.43a10.72,10.72,0,0,1-.34-1.76,149.76,149.76,0,0,0-1.48-20.43c-.17,2.91,2.34,6.31-1.18,9-1.94-.57-2.67-1.71-1.75-3.62,2.22-1.5-.39-3.15.15-4.69,1-4.43-1.73-9.21,1.27-13.45Z" fill="#2b241f"/><path d="M950.58,607.71a3.71,3.71,0,0,1,.2,1c.85,5.25.76,5.47-2.33,5.73L944.84,602c.09-1.34.25-2.68-.89-3.73-2.35-2.8-5.39-5.44-2.27-9.52,1.92.16,1.92,2.24,3.16,3.09l1.2,3.44C950.12,598.52,949.62,603.38,950.58,607.71Z" fill="#2a221b"/><path d="M941.68,588.78c-1.27,3.65,2.22,6.18,2.27,9.52a18,18,0,0,1-7.81-2.93c-1.55-1.06-.8-2.59.46-3.79,1.08-1,2.38-1.94,2.52-3.6.11-1.29-1.36-3.61,1.1-3.45C942.44,584.68,941.12,587.33,941.68,588.78Z" fill="#231e1a"/><path d="M946.26,573.73c-.62,4.46,1.58,9.19-1.27,13.45a38.6,38.6,0,0,1-.59-17.52C946.66,570.72,945.52,572.57,946.26,573.73Z" fill="#2a221b"/><path d="M842.86,538.75c-.9-.2-2.3-.11-2.64-.66-2.19-3.52-4.21-4.78-9.13-3.75-3.43.72-2.53-5.43-3.66-8.43-1-2.71,1.28-4,3.53-4.88,2.93-1.11,5.18-.5,6.4,2.62.42,1.05,1.29,2.56,2.32,2.1,4.46-2,6.35,2.36,9.51,3.47a4.18,4.18,0,0,1,3.12,4.75c-.28,2.71-2.37,3.08-4.43,3.56C846.23,537.91,844.58,538.33,842.86,538.75Z" fill="#45372c"/><path d="M896.77,528.13a3.07,3.07,0,0,1-3.44,2.55c-1.18,0-2.66-.41-2.46-1.68.29-1.83,1.87-2.71,3.79-2.71C896,526.3,896.74,526.94,896.77,528.13Z" fill="#2a221b"/><path d="M890.34,518.72a2.3,2.3,0,0,1,1.85,2.52c-.12,1.43-.89,2.54-2.53,2.27a1.72,1.72,0,0,1-1.51-2C888.42,520.26,888.75,518.92,890.34,518.72Z" fill="#2a221b"/><path d="M911.79,949.31c-3.87-2.38-7.92.57-12.06-1.07.56,3.28,3.36,1.87,4.56,3.32s2.14,2.74,1.57,4.55a5.6,5.6,0,0,1-3.77,4c-1.81.4-2.93-1.29-3.22-3.1-.12-.77-.08-1.66-1.16-1.44a1.44,1.44,0,0,0-1.14,2.12c.83,2.19-.19,4-1.05,5.92-1.38,3-1.63,5.75,2,7.69,1.4.75,3.41,1.91,2.17,3.91s-2.09,4.63-4.66,5.51c-2.18.76-2.29-.95-2.76-2.48-1.9-6.19-.2-12.79-2.19-18.93-1.82-5.61.09-11.12,0-16.68,2.41-7,.06-14.49,2.26-21.52a6.62,6.62,0,0,0,0-1.67c.4-10.84,2.37-12.34,12.57-9.62,4.77,2.72,9.38,6.52,15.19,2.08.68-.52,2.38-1,2.51-.16.74,4.73,5.31,6.74,7.22,10.55.49,1,.41,2.64-.8,3-8.18,2.13-5.38,9.26-6.56,14.39-.6,2.64-.23,5.5-2.17,8.2-3.74-5-5.38-1-7.39,1.51A.81.81,0,0,1,911.79,949.31Z" fill="#241f1a"/><path d="M856.84,948.16c4,8.23,1.42,13.86-6.62,16-3.13.81-3.1,2.54-1.19,4.37,2.3,2.19,4.73,4.7,8.47,3.14,2.93-1.21,4.08.79,4.45,2.78.63,3.33-2.32,1-3.21,1.71-2.75,2.06-5.39.65-8.12.46s-6,.62-4.41-4.41c.81-2.53-4.16-6.12-6.73-5.18-3.87,1.41-5.85-1-7.3-3.65-1.58-2.9.63-10.4,3-11.48,3.2-1.49,10.36.29,12,3.56,1.56,3.09,2.43,3.53,4.28.37C852.94,953.22,855.81,951.73,856.84,948.16Z" fill="#2b251e"/><path d="M891.37,894.78c5.48,2.25,11.61.28,17.18,2.78,2,.91,4.86-.71,6.52-2.34,2.25-2.2,2.73-.37,3.64,1-6.49,7.88-12.74,9-25.18,4.37a3.83,3.83,0,0,1-3.22-3.58A2.48,2.48,0,0,1,891.37,894.78Z" fill="#9b948e"/><path d="M874.31,945.86c2.57,4.06,1.11,8.63,2,13.14-2.08-2.57-3.43-5.21-7.41-4.52-1.42.24-1.65-2.14-1.72-3.68-.11-2.36,1-1.41,2.43-1.27,1.69.17.74-1.68,1.18-2.55A11.71,11.71,0,0,1,874.31,945.86Z" fill="#494443"/><path d="M891.37,894.78c0,.87-.11,1.73-.17,2.6-1.75,1.24-2.58,0-3.4-1.24-.45-1.48-.89-3-1.34-4.45.79-1.08-1.54-3.82,1.56-3.44,1.23.15,3.92.34,3.13,3.25C890.87,892.5,891.28,893.68,891.37,894.78Z" fill="#a9a39e"/><path d="M852.24,939.33c.72,1.58,3.07,2.65,1.88,4.79-.59,1-2.49,1.12-3,.39-1.56-2.31-5.5-4.15-2.26-7.85C851.05,936.25,851.43,938.05,852.24,939.33Z" fill="#939099"/><path d="M839.19,933.09c2.27-1.38,1.53-6.09,5.62-4.92,2.27.64,1.52,2.79.93,4.27C844.08,936.62,841.43,932.28,839.19,933.09Z" fill="#787377"/><path d="M888.91,942.57c-1.85.16-3.7.27-5.54.51a1.79,1.79,0,0,1-2.27-1.77c-.15-1.49.73-2,2.09-1.53,2,.72,5.73-1.94,5.71,2.8Z" fill="#5b5654"/><path d="M887.8,896.14c1.05.65,2,1.65,3.4,1.24.78,1.07,1.55,2.14,2.33,3.2-.79,3.42-2.5,2.76-4.16.77A6.82,6.82,0,0,1,887.8,896.14Z" fill="#352d25"/><path d="M854.6,935c.16-1.44-.58-3.37,1.77-3.49,1.52-.08,1.7,1.24,1.67,2.4,0,1.52-.09,3.41-1.81,3.75C854,938.09,854.88,936,854.6,935Z" fill="#7d777c"/><path d="M852.24,939.33l-3.36-2.67,2.1-5.41C853.17,934.06,852.11,936.79,852.24,939.33Z" fill="#464242"/><path d="M883.12,951.67c0,.37.06.74.08,1.1-1.25,2.71-2.94,1.53-4.55.45-.62-.41-1.27-1.25-.7-1.87C879.72,949.41,881.36,951.85,883.12,951.67Z" fill="#494443"/><path d="M874.31,945.86c-.35,2.9-1.83,2.34-3.52,1.12-.47-.9-2-1.87-.67-2.8C872,942.87,873.19,944.59,874.31,945.86Z" fill="#787375"/><path d="M866.41,959.13c.16.93-.06,1.6-1,1.56a2.52,2.52,0,0,1-2.71-2.18,1.36,1.36,0,0,1,1.21-1.56C865.61,956.67,866,958.05,866.41,959.13Z" fill="#8e888e"/><path d="M940.28,899.6c2.82-8.48,3-17.27,2.93-26.05-.06-5.06.22-10,2.4-14.73.38,10.81.45,21.6-1.17,32.34a51.91,51.91,0,0,0-.39,6.72c0,1.45-.3,3.39,1.74,3.62s1.26-2.39,2.45-3.22c2,1.77,1.65,4,1.16,6.19-2.44,2.48.41,6.39-2.4,8.78-3.48,4.68,2.25,7.51,2.36,11.47-1.52-.25-3.07-.46-3.42-2.38-.1-.55-.34-1.09-.4-1.65C944.8,913.42,945.08,905.89,940.28,899.6Z" fill="#352d25"/><path d="M940.57,939.29c1.2,4.92,2.33,9.85,1.9,16.44C939.21,949.43,939.67,944.38,940.57,939.29Z" fill="#2b251e"/><path d="M928.71,956.72c-2.62-1.25-3.72-2.66-2.5-5,.32-.62,1.12-1.28,1.82-.69C929.74,952.48,928.83,954.37,928.71,956.72Z" fill="#635d5c"/><path d="M911.79,949.31a5.43,5.43,0,0,0,1.14,0c1.35,1.22,1.48,2.55,0,3.67a2,2,0,0,1-2-.16C909.37,951.33,910.91,950.36,911.79,949.31Z" fill="#6b6569"/><path d="M916.35,314.63c4.74-3.49,9.17-2.69,14.15.09,9,5,15.12,12.52,21,20.46,4.22,5.67,1.92,11.41.37,17.06-.82,3-3.78,3.45-5.84,1.73-5.32-4.45-12.2-6.55-17-11.94-2.71-3-1.47-5.87.62-6.29,8.75-1.73,4.08-6.86,3-10.71a5.84,5.84,0,0,0-4.86-4.39c-1,1.36.37,2.81-.1,4.18A87,87,0,0,1,916.35,314.63Z" fill="#453b30"/><path d="M916.35,314.63a20.75,20.75,0,0,1,11.42,10.19c.53,1.75,1.05,3.49,1.67,5.6-4.74-.25-9,1.78-11.73-4.83-2.65-6.42-10.63-5.55-16.3.82-1.72-5.23-.65-7.62,4.44-10A21.38,21.38,0,0,1,916.35,314.63Z" fill="#7b2720"/><path d="M958.85,440.57c1.72,8.12.47,16.37,1,24.53.35,4.94,1.73,9.93-.79,14.72-4.14.12-2-3.58-3.23-5.2-.17-7.4-.63-14.78-.66-22.18a3.25,3.25,0,0,0-1.15-2.79c1.8-2.56-1.68-4.27-1-6.74.54-2.12.42-4.44,2.27-6.08C956.93,437.63,958.68,438.36,958.85,440.57Z" fill="#372f26"/><path d="M955.26,436.83c-1.54,4.17.5,8.67-1.22,12.82-3.83-6.55-2.71-13.08,0-19.62,2.45-1.74-.13-5.23,2.46-6.93C957.75,427.83,959.16,432.57,955.26,436.83Z" fill="#372f26"/><path d="M911.92,328.09c-.15,2.09-.3,4.2-3,4.55a3,3,0,0,1-3.38-1.42c-1.14-2.23.41-3.79,1.82-5.89,1.43,1.12,1.27,5.52,4.58,2.75Z" fill="#1e1915"/><path d="M956.33,414.22a40.32,40.32,0,0,1,2-16,57.06,57.06,0,0,1,.22,14.86C958,413.84,957.66,414.93,956.33,414.22Z" fill="#372f26"/><path d="M956.33,414.22l2.19-1.17c1.46,3.3-2,5.23-2.27,8.06-1.66,2.38,1.32,5.9-2,7.88A30.82,30.82,0,0,1,956.33,414.22Z" fill="#372f26"/><path d="M911.9,328.08c.52-1.53-2.78-1.89-1.2-3.66.74-.83,1.72-.41,2.58.06s2.2,1,1.87,2.41c-.44,1.85-2,1.27-3.23,1.21Z" fill="#726658"/><path d="M954.28,429c2.27-2.23-.19-5.62,2-7.88l.29,2c-1.51,2.07,2.13,5.93-2.46,6.93A4.16,4.16,0,0,1,954.28,429Z" fill="#372f26"/><path d="M956.51,814.67c3.45,14.57,9.18,28.73,9.9,43.78.42,8.76-1.25,17.62-2,26.44-2.58,4.56,1.8,8.4,1.32,12.74a.92.92,0,0,1-.16.86c-4,3-5.37,2.51-6-2.36-.19-1.63-.13-3.28-.18-4.93-2.84-8.11-.09-16.33-.3-24.5-.14-5.44.68-10.81-1.57-16,.06-6.06-2-11.86-2.26-17.87q-.64-6.77-1.28-13.55C955.26,818,953.32,815,956.51,814.67Z" fill="#352d25"/><path d="M962.58,975.44c-6-1-2.15-6.26-4.05-9.11-1.52,2.47.61,5.64-1.58,7.94l0-17.77c3-1.64,4.18,0,4.57,2.64a57,57,0,0,1,.28,7.72c.49-6.41,1.4-12.88-2.65-18.71-2.57-10.78-1.76-22.28-7-32.5-.42-1.72.27-3.47-.19-5.18.23-1.76,0-3.79,2.45-4.32,3.84,3.28,3,8.3,4.79,12.38.43,2.28,1.21,4.49,1.3,6.83,2.5,5.46-.23,11.93,3.39,17.17,1.41,4.16.4,8.86,3.06,13.14,2.24-2.32.93-5,1.36-7.4,2.12-.56,1.29,1.61,2.12,2.24C969.84,959.45,966.13,967.42,962.58,975.44Z" fill="#2b251e"/><path d="M955.28,750.25c.49,1.77.58,3.73,2.35,5.08,2-.8.77-3.15,2.22-4.28.28.44.77.86.79,1.29.14,3.95.27,7.9.26,11.85,0,3.06.5,5.79,3.39,7.53a3,3,0,0,1,.71,3.13c-2.29,8,.16,16,.67,23.92.84,3.17,2.64,6.09,2.12,9.6-.59,4.07-1.88,4.54-5.72,1.84-.37-3.3-.77-6.59-1.11-9.88-.17-1.61-.16-1.52-2.13-2.22-.52-.18-.93-1.1-1.1-1.75-.56-2.15-1-4.33-1.44-6.49-.86-3.72-.57-7.47-.39-11.22a39.53,39.53,0,0,1,.46-6.34c1-2.4.39-5.2,1.78-7.52-4.71-.06-1-4.17-2.78-5.65-.45-3-.91-5.93-1.36-8.89C954.43,749.64,954.85,749.64,955.28,750.25Z" fill="#2b251f"/><path d="M964.19,731.89c-2.62,4.28,1.93,8.62-.26,13.31-2.5-7.39-6.85-14-5.19-22,.7-3.32-1.38-5.11-3.47-7q-3-15.25-5.92-30.49c0-2.71-2.17-4.88-2-7.64.38-1.28.75-2.56,1.12-3.84,6.18,1.94,5.66,7.53,6.81,12.22a227.92,227.92,0,0,1,7.16,31.43,9.25,9.25,0,0,0,1.86,5C966.25,725.83,966.75,728.94,964.19,731.89Z" fill="#231e1a"/><path d="M962.07,810.21c3,1.67,4.16,1.16,4.55-2.57.34-3.35-2.79-5.38-2.29-8.5,3.91-2,4,.48,4,3.29.08,8.38,1.32,16.7,1.59,25.07a67.74,67.74,0,0,1,2.56,18.24c-.06,2.65-.32,5.11-3.18,7.49C967.24,838.36,962.4,824.69,962.07,810.21Z" fill="#352d25"/><path d="M971.18,814.74l-.06-11.33c.2-1.66.41-3.31.69-5.67,3.16,3.54,2.39,7.64,3.37,11.12a47.28,47.28,0,0,1,1.74,15.54A14.26,14.26,0,0,0,979.4,834c-.12.9-.24,1.8-.35,2.59C972.9,830.45,973.55,822.08,971.18,814.74Z" fill="#352d25"/><path d="M979.31,889.43c1.64,8.13,4.39,16.17,2.13,24.62-.44,1.63-.66,3.83-3.09,1.5-2.07.66-2.21-1.08-2.82-2.22,2.19-4.12,3.21-8.4,1.63-13C978.72,896.87,977.23,892.8,979.31,889.43Z" fill="#2b251e"/><path d="M985,867.88l-2.37,0c-.73-8,3.18-15.76,1.1-23.91-.38-1.46-1.15-4.72,2.27-5.36,2.32,8.36.79,16.58-.86,24.82A26,26,0,0,0,985,867.88Z" fill="#352d25"/><path d="M971.26,920.78l2.24,2.32c-.42,7.54,2.77,14.94.85,22.54l-2.12-2.24c-1.51-5.07-2.89-10.17-2.24-15.55C971.35,925.66,969.42,922.89,971.26,920.78Z" fill="#2b251e"/><path d="M955.28,750.25H954c-3-7.92-.72-16.31-2.15-24.37a32.65,32.65,0,0,1-.1-5.24c3.15,3.39,3.47,7.36,3.07,11.78C954.27,738.35,956.73,744.25,955.28,750.25Z" fill="#231e1a"/><path d="M969.88,893c0-7.86,3.72-14.74,5.58-22.69,3,6.67,2.77,6.59.5,12.17-1.59,3.91-4.81,7.2-4.71,11.77C970.16,894.5,969.66,894.13,969.88,893Z" fill="#352d25"/><path d="M956.51,814.67c-2,.91-.53,3.66-2.48,4.6V800.85l1.9-.1C956.8,805.31,958.81,809.75,956.51,814.67Z" fill="#3f3831"/><path d="M967.53,915.84c-1.77.34.68,8-4.46,2.5a6.75,6.75,0,0,0,0-1.1c-1.39-3.27,1.8-4.09,3.2-5.86q1.88-5.5,3.76-11C971.31,906,967.62,910.58,967.53,915.84Z" fill="#2b251e"/><path d="M955.28,987.35c-.87-2.75-2.67-5.27-2.21-8.36,1.83.33,3.54-2.15,5.44-.23a1.66,1.66,0,0,1,.24,1.71c-.29,1.86.11,3.78-.37,5.6C958,987.61,957.16,988.94,955.28,987.35Z" fill="#2b251e"/><path d="M978.32,858.15c-1.76-5.18-1.36-9.54-1-13.9C978.44,848.48,982.42,852.47,978.32,858.15Z" fill="#352d25"/><path d="M951.91,765c.44,4.4,3.77,8.75.3,13.24C949.81,773.92,949,769.52,951.91,765Z" fill="#191512"/><path d="M973.75,857.51l-1.2,6.07c-.95,1.51-1,3.55-3.14,4.91.59-4.27,1.27-8.16,3-11.67C973.29,855.08,973.43,857,973.75,857.51Z" fill="#352d25"/><path d="M862,914.5a14.26,14.26,0,0,1-1.82-6.84c-.09-1.48-2.14-3.48.33-4.22,1.63-.49,4.67-.36,5.23,1.33s3.08,4.3.11,5.83C864,911.55,863.59,913.46,862,914.5Z" fill="#241f1a"/><path d="M818,923.57a49.73,49.73,0,0,1-7.09,2.55c-.87.18-3.24-.69-2.57-2.14,1.11-2.4,4-2.38,6.32-2.77C816,921,817.09,921.76,818,923.57Z" fill="#7c777d"/><path d="M873.41,897.05c-4.15-1.85-4.32-4.12-3.51-6.63a1.26,1.26,0,0,1,1.92-.56C874,891.66,872.29,894,873.41,897.05Z" fill="#241f1a"/><path d="M798.24,918.63c2.64-1.12,4.48-2.2,7.16-1.65C804,921.22,802.05,922,798.24,918.63Z" fill="#7d787e"/><path d="M970.05,447c2.28-10.91,4-21.79,3.92-33.07,0-4,1-8.66,1.94-13,0-.14.26-.24.4-.35.21.38.43.76.65,1.14-1,4.1,2.44,3.86,4.72,4.75-1.84,8.21.1,16.67-1.66,24.9-1.51,7.06-4.84,13.78-4.21,21.26-1.29,4.53,1.57,9.41-1.17,13.83-.93,1.24-1.3,3.65-3.38,2.92s-2.46-3-2.67-5.11C969,458.52,966.83,452.53,970.05,447Z" fill="#372f26"/><path d="M984.28,503.47c-.67-6.12.92-12.07,1.34-18.11.08-1.18.52-2.26,2-1.13l1,2.34c0,4.92,3.81,9.52,1.25,14.65-1.33.37-2.71.23-3.12,2.32S985.11,504.82,984.28,503.47Z" fill="#2a221b"/><path d="M986,440.67c-4.55-5.81.93-10.63,2-15.94C990.39,430.35,991.31,435.83,986,440.67Z" fill="#372f26"/><path d="M983.67,454.67l-2-.06c-.86-4.15-1.64-8.3.76-12.58C985.93,446.19,983.85,450.51,983.67,454.67Z" fill="#372f26"/><path d="M979.88,466.48l2.09-6c1.76,2.4,1.19,5.06,3.24,6.15-.22,1.76,1.55,3.84-.87,5.25-1.49-.12.73-6.11-3.37-2.09C979.64,469,980.83,467.41,979.88,466.48Z" fill="#372f26"/><path d="M990,444.2l2.7,13C989.17,452.27,987,448.75,990,444.2Z" fill="#372f26"/><path d="M990.75,417.16c1,3,.42,4.93-.29,7.14C987.16,422,988.94,420.11,990.75,417.16Z" fill="#372f26"/><path d="M990.52,467.43l-1.92-1.07c-.16-1.74-.58-3.53,1.15-5.42C991,463.23,990.53,465.36,990.52,467.43Z" fill="#372f26"/><path d="M997.42,568.13c.35-1.94.69-3.87,1-5.81a1.67,1.67,0,0,0,.26-1c1.82,4,1.53,8.11.18,12.19C997.05,572.1,996.77,570.24,997.42,568.13Z" fill="#2a221b"/><path d="M724.66,458.52c8.44-1.79,13.72,4.57,20.33,7.46.92.41,2.09,1.47,1.11,2.68a3,3,0,0,1-4.15.53c-5.17-4-11.17-2.52-16.91-3-4.76-.42-8.8,2.14-13.33,2.34-1.05,0-2.38,1-3.11-.19s-.19-2.54.75-3.62C713.41,460,718.18,457,724.66,458.52Z" fill="#45372c"/><path d="M736.19,448.27c-2.57,0-5.32.15-6.71-3.09C732.61,444.47,734,447.3,736.19,448.27Z" fill="#45372c"/><path d="M942.75,752.5c.57-9.92-3.13-19.71-.74-30.6,3,7.25.82,14.32,2.72,20.81-.19,4.13,1.09,8.29.07,13.35C943.78,754.29,943.27,753.39,942.75,752.5Z" fill="#231e1a"/><path d="M948.45,614.42c3.61-.78,1.39-3.88,2.33-5.73,3.2,4.14.13,7.71-1.06,11.45-.12.39-.23.79-.34,1.18-1.37,1.78,1,4.33-1.24,5.94A18.54,18.54,0,0,1,948.45,614.42Z" fill="#2b241f"/><path d="M944.9,679c-4.9-5.21-1.72-11.3-2-17,1.89,5.57,2,11.31,1.91,17.09Z" fill="#231e1a"/><path d="M948.14,627.26c.67-1.93-.68-4.27,1.24-5.94A61.45,61.45,0,0,1,951.16,635,9.34,9.34,0,0,1,948.14,627.26Z" fill="#2b241f"/><path d="M957.37,495.87c.45,9.28,2.43,18.51,1.11,27.86-.68,0-1,2.72-1.94.4s-1.56-4.76-2.32-7.15c-1.08-5.71,1.48-11.17,1.14-16.83,1-1.38,0-3.07.75-4.5A.8.8,0,0,1,957.37,495.87Z" fill="#2a221b"/><path d="M956.58,495.32c-.52,1.58.34,3.51-1.22,4.83-.85-5.23-1.74-10.47-1.14-15.81,2.61-1.61,2.66-1.57,3.63,2.61C958,489.82,956.7,492.48,956.58,495.32Z" fill="#27221e"/><path d="M956.54,486.91c-.58-1,.92-3.89-2.32-2.57,0-.67,0-1.34,0-2,2.65-1.73,2.46-4.38,2.3-7q1,2.24,2,4.49C960.05,482.77,959.66,485.21,956.54,486.91Z" fill="#27221e"/><path d="M956.27,533.15c1.15,11.19,2.5,22.33,1.54,33.68-.4,4.76-2,9.14-2.55,13.77-2.77-1.11-1.76-3.58-1.6-5.37.66-7.51-.87-15,.31-22.56.42-2.66-.7-5.55-1.12-8.34V525.88C956.18,527.77,954.3,531.12,956.27,533.15Z" fill="#2a221b"/><path d="M950.58,607.71q-2.26-6.19-4.54-12.4c2.67-2.67-.37-6.33,1.92-9.91C950.36,593.13,951.53,600.28,950.58,607.71Z" fill="#2b241f"/><path d="M914.89,941.54c-2.46-1.54-4.52-3.5-5.11-6.16a3.05,3.05,0,0,1,3.29-3.61c2.22.28,5.89.4,6,2.93A7.79,7.79,0,0,1,914.89,941.54Z" fill="#2b251e"/><path d="M958.76,596.9c-.38-16.2,5.43-32.23,3.84-48-1.8-17.85,2.93-35.53-.63-53.16-2.41-6.38-3.08-12.32,1.11-18.67,2.14-3.26,1-8,.35-12.15-1.11-14.08,2-27.86,3-41.79.38-5.6,1.07-11.15,1.53-16.73,1.42-.26,2.76-.31,3.53,1.24.12,9.7.68,19.43-2.11,28.91-2.51,8.52-1,17.18-.65,25.75.23,5.81.86,11.61.59,17.44-1.17,5.61-3.1,11,.62,16.75,1.88,2.9-.19,7-.23,10.52-.06,6.91.44,13.91-1.9,20.68-1.32,3.8-1.11,8-.42,11.75,2.31,12.49-.44,24.75-1,37.09-.18,4.13-1.22,8.2-1.41,12.31-.43,9.52,3,18.22,6.45,26.86,1.23,3,.28,6.26.82,9.4.51,2.92.52,5.94,1.16,8.88,0,2.55,0,5.1,0,7.65s.08,5.29-3.94,4.27c-5.21-9.55-4.45-20.23-5.89-30.49-.08-.54.46-1.54,0-1.55-2.78,0-3.34-.38-3.67-3.58C959.42,605.8,959.46,601.32,958.76,596.9Z" fill="#2a221b"/><path d="M975.82,748q1.2-9,2.42-17.9c2.72-.17,4.71,1.53,6.94,2.65,5.08,11.77,7.46,23.75,2.8,36.26-1.73.28-1.73.28-4-4.13-.76-2.74.69-5.19,1-7.78,1.3-3.26.6-6-2.31-8-.46-1.51-.92-3-1.37-4.54-1.94,6.81-1.39,13.89-4.52,20.24-1.7,2.61-3,1.15-3.27-.69C972.88,758.57,971.59,752.87,975.82,748Z" fill="#231e1a"/><path d="M985.22,800.52c3,8.69,1.21,16.77.22,25.5-4.93-5.39-4.49-11.61-5.59-17.36a2.24,2.24,0,0,1,.21-1C985.88,808.6,983.31,803.11,985.22,800.52Z" fill="#352d25"/><path d="M976.54,800c.47-9.72-3.46-19.61,1.18-29.31C982.06,780.69,980.74,790.38,976.54,800Z" fill="#2b251f"/><path d="M970.85,763.49c1.66,3.65,1.06,7.3-.09,10.94l.09,4.48c-.57,4.89,1.37,10.09-2.26,15.49C964,783.19,969.65,773.47,970.85,763.49Z" fill="#2b251f"/><path d="M984.54,771.28q1.83,5.24,3.65,10.46c2,4.22,1.47,8.78,1.71,13.2.09,1.77-.14,4.32-3.15,4.39C983,790.21,985.29,780.63,984.54,771.28Z" fill="#2b251f"/><path d="M955.37,899.32c-1.19-5.67-2.29,2.19-3.45,0,2.51-10.41,1.8-21.13,3-31.68.46-4-1.5-8.3.6-12.38a.52.52,0,0,1,.44-.16c.16,0,.3.21.45.32,1.67,9.9.76,19.77-.45,29.62-.32,2.59-.84,4.94.63,7.55C957.83,894.75,956.9,897.27,955.37,899.32Z" fill="#352d25"/><path d="M967.63,750.19q1.32-12.87,2.65-25.73c3.94,1.14,2.45,4.11,2.29,6.64l-.27,2.11c-1.44,2.59,1.32,4.48,1.18,6.85l-.93,4.49c.38,5-2.24,9.08-4,13.42a8.92,8.92,0,0,0-2.06,5.52c-1.45-3.12-2.07-6.17.43-9.12C967.93,753.14,967.76,751.65,967.63,750.19Z" fill="#231e1a"/><path d="M973.58,591.83c-1,6.73,1.87,13.79-2.09,20-.29-5.58-2.2-11.07-3.89-16.63-.81-2.63-1.42-5.74-.78-8.3,1.84-7.34,1.85-14.88,3-22.28.94-5.88,1.35-11.67-.3-17.77-2-7.43-.56-15.08.88-22.72,1.42-7.46,1.21-15.22,1.72-22.85-.94-1.52-1.12-3,.35-4.32,6.56-5.27,6.45-13.48,9.18-20.44,1.42.78.71,2.24,1.09,3.35-1.35,4.51-2.16,9.26-4.15,13.47-5.19,11-4.4,22.39-3.07,33.89.06.52,0,.56-2.38,1.47-1.31.5-.78,1.57-.78,2.35,0,7.35.1,14.7.17,22.06-.59,2.77,4.74,2.3,3.16,5.63C974.27,569.75,971.1,580.61,973.58,591.83Z" fill="#2a221b"/><path d="M980.25,637.57V647c-3.78-8.44-6.12-16.43-4.73-25.14.38-2.4.68-4.39,2.53-6.46,3-3.41.84-8,1.48-12.87,1.45,3.79,3.25,6.69,3,10.27C981.21,621,978.21,629.07,980.25,637.57Z" fill="#2a221b"/><path d="M988.22,607.86c2,12.9-.78,25.67-1.13,38.51,0,.29.91,2-.82,1.23-.46-.21-.32-1.44-1.36-1.39-2.51-7.46-2-15.06-1-22.67.35-1.9.69-3.79,1-5.69C987.18,614.89,985.19,610.57,988.22,607.86Z" fill="#2a221b"/><path d="M983.71,580.7c.85,4.92-1.52,9.64-1,14.54-1.32.66-1.71-.43-2.28-1.19-5.45-9.71-.72-19.74-.62-29.69l1.91,9.31C984.3,575.49,983.49,578.23,983.71,580.7Z" fill="#2a221b"/><path d="M985.72,512.88c.86.29,2.13.86,2-.66-.34-4.27,1.52-3.08,3.62-1.58-3.82,4.33-.89,8.69.16,12.91s1.07,8.1-2.44,12.24C987.68,527.77,989.26,519.9,985.72,512.88Z" fill="#2a221b"/><path d="M974.51,712.79c-3.67-10.38-1.66-20.56,1.12-30.71-1,4.54,1.49,8.78,1.21,13.26-1.51,5.2.53,10.49-.46,15.7C976.25,712.14,975.88,713,974.51,712.79Z" fill="#231e1a"/><path d="M972.49,655a44.67,44.67,0,0,1,0-6c.5-4.1,2-1.35,3.29-.38a32.35,32.35,0,0,1-.16,18.67c-.44.75-.88,1.51-1.5,2.55C973.18,664.78,974.53,659.67,972.49,655Z" fill="#231e1a"/><path d="M982.69,563.52a124.42,124.42,0,0,1,1.47-23.18c2.4,6.76,5,12.4,1.88,18.57C984.74,560.32,986.64,564,982.69,563.52Z" fill="#2a221b"/><path d="M985.42,663.41a2.22,2.22,0,0,0-.66,2.34c-3,.74-2.34-1.51-2.34-3,0-4.41.08-8.83.13-13.24l2.22.81Q985.1,656.88,985.42,663.41Z" fill="#231e1a"/><path d="M981.84,530.68l1.25,0q-2.33,5.09-4.64,10.18c-2.86-.27-1.37-2.27-1.48-3.63.44-2-.59-5.22,3.73-3.87C981.65,533.7,981.49,531.65,981.84,530.68Z" fill="#2a221b"/><path d="M988.37,571.48a8.75,8.75,0,0,1-1.17-5.67c.68-.46,1-3.33,2.14-.58.91,2.28.94,4.9,1.36,7.37V578C989.58,574.89,989,573.18,988.37,571.48Z" fill="#2a221b"/><path d="M995,558.83c-1.51,2-.18,4.88-1.93,6.86,0-4.21-2.43-8.35-.3-12.6C993.32,555.09,992.34,557.66,995,558.83Z" fill="#2a221b"/><path d="M973.42,484.34l1.32-16.81c2.6,4.66,2.52,9.65,1.57,14.64a53.62,53.62,0,0,1-2.29,6.94C972.91,487.58,973.76,485.89,973.42,484.34Z" fill="#110b08"/><path d="M968.79,647.66c.29,4.58-1.09,8.86-2.31,13.18a1,1,0,0,1-1.29,0c-1-1,0-2.39-.76-3.41-4.12-12.59-5.93-25.57-6.61-38.73,0-.64.54-1.31.83-2,4.31,0,4.8,3.17,4.87,6.15.16,6.82,2.81,13.27,2.76,20C966.26,645.17,968.31,645.92,968.79,647.66Z" fill="#231e1a"/><path d="M962.06,662c2.51,3.51,3,.89,3.59-1.18h.83c0,1.87.07,3.74.1,5.61-.71,4-1.12,7.76,1.79,11.47,2.23,2.85,1.51,6.58.41,10-1.76,6-1.11,12.22-.75,18.34a22.27,22.27,0,0,1-2.65,12.06c-1.88-3.27-.14-6.55-1.94-9.15,1-2.48-.78-4.74-1.38-6.71-2.17-7.24,4.38-13.43,1.79-20.44a16.91,16.91,0,0,1-.5-2.13c-1.71-2,.28-4.54-1.14-6.54A12,12,0,0,1,962.06,662Z" fill="#231e1a"/><path d="M989.93,716.6a1.12,1.12,0,0,0-.21,1c-1.2,3.84.57,7.67,0,11.51-.37.95-.34,3.37-1.92.85-.95-1.52-1.09-3.53-1.6-5.32-3.55-7.68-1.3-16.19-3.46-24.07,2.57-10.73.74-21.14-2.4-31.44,1.48-.74,2.69-2.54,4.71-1.19,2.83,7.67,2.22,15.86,3.71,23.74a11.52,11.52,0,0,1,2.09,8.58c-.37,1.7-.8,3.38-1.17,5.08C987.55,709.13,991.22,712.82,989.93,716.6Z" fill="#231e1a"/><path d="M995.22,593c.38,4.67.68,9.35,1.14,14,2,19.55-.17,38.94-2.34,58.33l-3.2-1.15C992,651,993.67,637.73,993,624.43c-.44-8.52.31-17.11-1.35-25.57C991.12,595.88,992.24,593.87,995.22,593Z" fill="#2a221b"/><path d="M991.78,581.66c2.06.42,2.55-2.28,4.44-2.2l.39,3.07c-.34,3.08,2.9,7.7-3.57,8.13C992.57,587.67,991.25,584.79,991.78,581.66Z" fill="#2a221b"/></g><g id="frame"><rect width="1000" height="1000" fill="none"/></g></svg>