<!-- Copyright (c) 2022 - 2023 Jan Stehno -->
<svg xmlns="http://www.w3.org/2000/svg" viewBox="0 0 1000 1000"><title>whitetaildeer</title><g id="whitetaildeer"><path d="M708.82,637.89a157.92,157.92,0,0,1-13.54,12.55c-.35.41-2.2,2.61-5.42,6.93-3.58,4.82-9.77,7.79-10.46,11.25l.38,1.83,11.89,1.41,13.47-15.07,2.45-16.25,1.61-3.08Z" fill="#908578"/><path d="M689.86,657.37c3.22-4.32,5.07-6.52,5.42-6.93-8.5,7.25-17.92,14.83-22.11,19.22l6.61.79-.38-1.83C680.09,665.16,686.28,662.19,689.86,657.37Z" fill="#ccccc8"/><path d="M740.18,609.22a207.15,207.15,0,0,0-31,28.24l-1.61,3.08,33.32-17.48S752.31,600.45,740.18,609.22Z" fill="#7a6451"/><path d="M997.66,763.12a3.16,3.16,0,0,1,.3-1c1.76-10,.3-6.64-1.25-14.85-1.4-7.44-3.46-6.07-8.16-10.12h0c-2.42,2.5.68,4.76.32,7.95-3.64-1.59-7.41-.85-10.92-1.44-4.43-.76-9.5-.61-12-6.34-1.31-3-5.67-4.06-8.33-2.2-3.36,2.35-5.45,1.83-8.05-.58a5.24,5.24,0,0,0-2.7-1.13c-4-.52-6.5-2.51-8.65-6.05-2.6-4.28-8.1-5.26-11.2-1.87s-5.42,2.09-8.35.94a6.3,6.3,0,0,0-1.68,0c-.78.17-1.91.38-2,1.09-.3,3.33-.56,6.33-3.75,8.69-1.68,1.24.16,3.2,1.81,4.15s3.42.82,5.15,1.17c3,.6,3.85,2.51,1.47,4.51-4.61,3.87-7.33,9-10.26,14-2.19,3.77-.52,6.94,1.81,9.8s4.11.67,5.87-1a3.51,3.51,0,0,1,3.34-.65c6.7,1.83,6.85,1.72,9.59-6.36,1.27,2.56,2.77,4.77,5.72,5.45s3.17-2.7,5.11-4.08c.36,2.76-3.5,4.42-.71,6.87a2.8,2.8,0,0,0,3.2-.58c2.86,3.25,7.32,3.54,10.67,5.91,1.78,1.26,2.09-.11,2.75-1.54s-1.33-4.36,1.19-4.61c2.8-.27,1.56,3,2.5,4.54,1.11,1.77,2.65,3.37,4.65,3.3,2.48-.09,1.45-2.1,1.3-3.63-.12-1.27,1-1.49,2-1.51a4.21,4.21,0,0,1,3.49,1.93c.56.7.64,1.58-.18,2.06-5.89,3.4-1,3.39,1.16,5.32,2.56,2.28,5.9,2.11,8.33,4.18,3,2.56,4.07.67,4.25-2.23.13-2.12-.86-5.07,3.06-2.83,1.22,1.83,1.52,4,2.34,6,2.88,6.89,2,14.75,5.57,21.43,3.4.85,1.32-2.75,2.77-3.49,1.34-9.32,1.17-18.42-2-27.52C995.66,772.51,996.86,767.66,997.66,763.12Z" fill="#754f3d"/><path d="M937.59,942.4a50.1,50.1,0,0,1,1.19-8.36c.67-1.84,1.22-3.73,1.82-5.7a1,1,0,0,1,1.83-.3c.14.19.31.39.51.62a1,1,0,0,0,.7.33c3,.2.08,2.86,1.16,3.85l.06.11a1,1,0,0,0,2-.4c.09-1.52,0-3,.29-4.55.24-2,0-4.14.79-5.86,2.52-5.67.81-11.36.56-17-.09-2.06-1-3.77-3-3.76s-1.9,2-2.19,3.61a101.62,101.62,0,0,1-2.49,11.64c-.53,1.76-.52,4.06-2.29,5.57a1,1,0,0,1-1.72-.65,7.15,7.15,0,0,1-.1-1.75c.61-6.2,2.63-12.06,4.43-18,.76-1.93.25-3.26-1.51-4a1,1,0,0,0-.9.1c-2.08,1.46-2.51,4.29-4.42,5.89a1.09,1.09,0,0,0-.41.7,34,34,0,0,1-.81,6c-2.86,9.56-3.48,19.19.44,28.62a39.57,39.57,0,0,0,2.21,3.8A1,1,0,0,0,937.59,942.4Z" fill="#694938"/><path d="M986.6,824.4c2.24-4.59.43-9.88,2.46-14.52,3.58-4.45,3.66-9.73,3.44-15.07a68.85,68.85,0,0,0-2.71-14c-3.82-3.32-4.16-3.15-6.78,3.45a9,9,0,0,1-4.32-1.72c-2.86-1.74-8.37-1.63-5.58-7.82.63-1.38-1.19-2.78-2.7-3.45s-3.52-.9-4.36.52c-3,5.05-3.79,1.42-5-1.07-.61-1.28-1.3-2.63-2.92-2.54s-2.22,1.38-2.59,2.82c-.23.89,0,2.06-1.14,2.49-4-.75-7-4.28-11.39-4-.67,6-1.74,11.66-7.42,15.21-1.53,1-1.82,3-1.85,4.83,0,1.41,0,3-1.25,3.82-3.63,2.64-4,6.51-4.17,10.54a2.63,2.63,0,0,1-2.2,1.42c-3.36-.33-3.9-6-8.27-4.44a10.84,10.84,0,0,0-8.13,6.23c-2.11,4.2-9.68,7.25-13.69,5.31-3.26-1.58-5-.55-7.15,1.67-2.86,2.91-5.4,5.91-6,10.06-.65,4.39-3.4,7.58-5.75,11-1,1.45-2,3.22-4.27,2.16-1.24-.59-2.91-1.5-2.78-2.84.22-2.41,2.69-1.75,4.25-2.26,1.83-.59,4.37-.56,3.58-3.54-.71-2.69-2.63-4.19-5.4-3-3.45,1.49-7.39,1.54-10.56,3.76-1.51,2.52-3.2,5-3,8.13s3.25,5.38,3.68,8.58c.61,4.55,3.22,6.94,7.68,7.47,3.86.46,5.24,2.22,2.94,5.91a6.23,6.23,0,0,0-.88,3.37,4.47,4.47,0,0,0,2.62,3.73c3.31,1.69,4.55,4.5,5.38,8,1.42,6.07,4.41,8.3,10.65,8a18.33,18.33,0,0,1,11.1,2.87c4.14,2.5,8.74,4.48,13.85,4.09,2.38,2.83,1,6,.62,9a52.63,52.63,0,0,0,.22,16.51q2.4-6.22,4.78-12.46c3.19-2.17,2.87-5.39,2.39-8.57-.76-5-1.42-10-2.45-14.35,2.59,7.44,6.14,15.56,1.8,24.64-.12,2.19-.18,4.39-.37,6.58-.3,3.53.21,8-2.13,10.2-4.86,4.57-.68,7.65-.23,12.7a45.49,45.49,0,0,0,5-25.29c1.55,1.9,1,4,2.33,4.29,7.78-16.38,2.7-33,.59-50.3,2.7,1.8,2.59,4,3.48,5.71,2.63,4.92,1.1,10.93,4.05,15.77,3-.51,3.29-2.68,3.28-5.24,0-1.63.39.29.85,0a3.49,3.49,0,0,0,1.95-3.18,2,2,0,0,0,1.66,1.7c2.37.64,2.82-2.64,3.52-4.63.2-.56.4-1.11.59-1.67,1.15-3,2.19-6.11,4.58-8.76.09,3-.43,5.88.55,8.44,1.09,2.87,1.19,6.85,5.7,6.94,2.89-3.54,1.53-8.18,2.76-11.72a67.87,67.87,0,0,0-.86,9.52c-.06,5.1.69,10.32-1.88,15.09-.09,1.44-.14,2.88-.17,4.32a1.79,1.79,0,0,0,1.76,1.82c1.36,0,1.67,2.2,2.67,2.23.73,0,2.91-2,2.91-2.76A216.55,216.55,0,0,1,967.39,871c1.33-11,.63-22.26-3.82-32.81,1.88,4.1,3.47,8.33,5.13,12.52.95,2.39.83,6.71,4.27,6.14s3.53-4.78,3.84-7.95a5.91,5.91,0,0,0-.3-3c-4.74-10.69-4.52-22.5-6.73-31,4.47,12,4.34,28.18,13.26,41.47,1.91,3,3.67,2.51,5-.4s1-5.73.52-8.67c-.66-2-.64-5.25-2.51-5.58-5.06-.89-4-4.57-4.44-7.75a16.69,16.69,0,0,0-.45-2.62,35.89,35.89,0,0,1,.1-14,47.91,47.91,0,0,0-.89-9.72,133.44,133.44,0,0,1,3.32,14.54C983.88,823.53,984.26,825.51,986.6,824.4Zm-44.4,50a5.57,5.57,0,0,1,.6-3.12C942.76,872.17,942.36,873.31,942.2,874.36Z" fill="#774933"/><path d="M817.17,388.57c6.3-10.68,9.58-22.33,10.85-34.61,1.33-5.1,4.78-8.77,7.72-12.95a33.35,33.35,0,0,0,6-22.6c-.55-5.46.21-10.66,1-16,.66-4.75,2.71-6.8,7.52-5.63,2.45.6,5.19.08,7.26,2.05.9,1,.7,2.39,1.23,3.52a530.91,530.91,0,0,1-2.52,66.73c-1,9.75-.23,19.5-.57,29.24-.15,4.48,2.77,8.19,4.44,12.19.77,4.67.78,9.49,4,13.51.74.9,1,2.48,2.14,3.32,7.59,5.61,12.38,13.77,18.38,20.82a10,10,0,0,0,5.27,3.39c5,3.14,9.59,6.71,13,11.68,0,1.75,0,3.52.13,5.26.86,9.22,1.43,18.31-8.22,23.81-1.62-1.82-.62-3.56.62-4.75,3.53-3.42,3.75-7.72,3.68-12.17-.13-1.52.94-3.34-.72-4.47-7.32-4.94-11.57-13.55-20.55-16.68-8.24-2.87-15.06-8.71-22.83-12.67-2.72-1.39-5.41-2.56-8.5-1.65-4.59,1.36-6.82-.87-8.62-4.93-3.85-8.68-4.77-8.87-12.73-4.08-3,1.8-6.07,1.61-9.16.66-2.67-.82-5.54-.89-8.07-1.75-13.83-4.65-28.23-1.68-42.23-3.59-4.12-.56-8.25-1.06-11.69-3.83a6.06,6.06,0,0,0-5-1.47c-9.49,2.06-17.68-3.19-26.53-4.58s-17.57-4.68-26.62-5.52a15.78,15.78,0,0,1-8.61-3.31c-5.49-4.17-11.88-7.22-17.92-10.18-3.74-1.84-9.29-1.71-13.94-3.26-2.84-.95-5.73-1.67-8-3.61-5-4.12-11.4-4.29-17-6.75a33.43,33.43,0,0,1-12.09-8.41c-1.26-1.78-2.77-3.48-1.89-5.94,4-1.66,6.77,1.41,10,2.76,2.93,1.35,5.33,4.76,8.86-.3,1.2-1.74,6.67.9,10.36-1,3.41-1.8,11.3-10,11.43-13.81a52.79,52.79,0,0,1,8.87-28.38c.34-.5.8-1.11.64-1.63-2.19-7.49,3.31-12.45,5.84-18.38.65-1.52,1.38-2.91,2.93-3.57,1.83-.78,3.67-1.16,3.56,1.83-.26,6.94.6,13.91-.46,20.83-.58,8.64-.84,17.33-2.62,25.85a21.32,21.32,0,0,0,.18,7.64c1.46,5.56,3.63,10.63,3.53,16.93s6.72,9.77,12.6,11.68c7.72,2.5,15.7,4.2,22.26,9.44,1.8,4.25,5.71,4.39,9.4,4.89,4.44.6,9.19.14,11.89,3.43,1.48.86,1.11-.51,1,.28,0,.18-.2.08-.58-.07a8.33,8.33,0,0,1-4-3.43c-1.27-2.07-1.24-3.56,1.82-4.15,5.27-1,10.17-.28,13.23,1.51-8.33-3.18-11-8.82-6.81-17.85a10.2,10.2,0,0,0,.66-6.32c-.54-3.48.23-5.86,4.44-3.32,2.89,1.75,3.44.12,3.29-2.45s-.62-5.4,3.07-6a9.29,9.29,0,0,1,1.76,3.49,8,8,0,0,0-2-3.88c-.31-.74.35,0-.15-.56-7.26-8.39-4.64-18.76-5.73-28.41s.32-19.06,1.37-28.54c.36-3.28.4-3.32,4.35-4.89,1.07-.43,0-.67,0-1,0-9.11-1.89-18.11-1.72-27.19,0-2.92-1-7.75,4.83-7.3,4.93,16.29,4.7,33.24,6.06,50,.66,8.14,4.82,15.12,6.35,23,2.57,13.27,1.34,26.67,2.46,40,.16,2,.38,3.94.58,5.92.88,3.57.94,7.2,2.94,10.68,1.87,3.27-.66,6.38-3.53,8.78,1.21,1.21,3.74,1.21,4.08,3,1,5.1,4.82,5.93,8.89,7.18,4.36,1.34,8,0,11.66-1.76a13.43,13.43,0,0,1,3.4-1c6.3.51,12.45.91,18.78-1.08,3.35-1.05,7,1.83,10.4,2.86-2.44-4.38-7-6-11.49-7.74-2-.81-4.24-1.64-4.13-4.38.11-2.56,1.68-3.87,4.21-4.11,2.86-.28,3-2.15,2.19-4.32A7.64,7.64,0,0,1,817.17,388.57Z" fill="#40372f"/><path d="M748.06,820.05c-14.5-1.51-28.89,1.36-43.36,1.18-1.66,0-3.05.15-4.21-1.18,6.24-2.83,13-2.57,19.57-3,4.52-.29,9.08.25,13.52-1.16a6.93,6.93,0,0,1,2.92-.38c3.86.47,7.66,2.7,11.61.81,3.56-1.71,6.76-4.12,10.45-6.05a10.16,10.16,0,0,1-8.7-.68,24.13,24.13,0,0,0-13.11-3c-4.36.1-8.63,0-12.35-3.05-2.21-1.84-4.89-1-7.35,0a21,21,0,0,1-16.2.13c-1.87-.76-3.9-1.55-4.09-3.86-.2-2.48,2-3.19,3.75-4.06,3.71-1.83,8-2.44,11.22-5.32,1.08-1,3.21-1.52,2.33-3.6a5.32,5.32,0,0,0-3.71-2.75,6.39,6.39,0,0,0-4.65.43c-5.53,2.87-10.54,1.93-15.68-1.2-4-2.42-7.54-1.9-9.61,3-1.82,4.3-5.09,6.42-9.78,6.4a8,8,0,0,0-6,2.14c-3.8,4.06-8.23,4.71-13.5,4-4.86-.67-9.75-.45-14.37,2.27a9.1,9.1,0,0,1-9.63-.14c-.64-2.73,1.74-2.69,3.16-3.54,3.09-.62,6.13-1.31,8.77-3.28,2.94-2.19,6.37-1.67,9.72-1.47,8.54.52,12-2.49,12.62-11,.35-4.37.88-7.16,7.17-6.12a43.28,43.28,0,0,0,12-.18c8.61.54,17.25.12,25.87.66,1.76.11,3.52-.24,5.17.68,3.18,1.78,5.69.49,7.84-1.91.79-.88,1.53-2.65,2.48-2.34,8.22,2.62,16.58-3.92,24.72.47.35.18.75.25,1.1.45a9.52,9.52,0,0,1,5.07,9.21c4.38-2,6,.28,8.09,4,2.2,4,7.67,3.73,11.35,6.13,1.24.81,2.64-.77,2-2.51-.85-2.41-.81-5-2.35-7.33-3.2-4.78-2.86-7.61,1.66-11.07,3-2.3,1.49-3.92.09-5.94-3.64-5.25-3.52-6.54,1-11.21a41.11,41.11,0,0,0,2.86-3c5.59-7.13,13.78-9.36,21.89-5.38,5.82,2.84,6.9-2.88,9.39-5.23,3.59-3.39,7-6.76,12.75-5.58,3.16.64,6.22-2.1,9.71-2.15,2.13,0,.73-2.18.82-3.39.38-5.16,2.62-7,7.58-5.94a15.65,15.65,0,0,0,5.87-.06c3.4-.54,6.3.22,8.2,3.4,3.75,8.63,5.1,18.26,12,25.58a19.08,19.08,0,0,1,5.21,14.79c-.29,4.26,3.72,7.27,5.77,10.85,1.09,1.9,2.88,3.67,1.58,6s-3.47,1.28-5.39,1a3.56,3.56,0,0,0-2.84.54c-3.75,3.16-5.78,1.71-7.39-2.37-1-2.53-2.6-2.15-3.59.23a48.31,48.31,0,0,1-3.9,8.06c-2.44,3.72-5.62,5-9.63,2.6A49.05,49.05,0,0,0,834,790.17c-1-2.38.86-3.75,2-5.21,4.13-5.09,5.09-12.15,10.49-16.54,1.87-1.52.38-3.67-1.39-5-5.33-4-8.42-8.55-4-15.22,1-1.5.21-2.7-1.42-3.19-1.9-.57-3.86-.91-5.9-1.47-1,1.27.55,3.43-.92,4.22-5.12,2.75-4.79,9.62-9.61,12.6-1.65,1-1.62,3-1.53,4.88.42,8.66-5.44,18.27-12.81,22-3,1.51-7.07,3-4.47,8a3.17,3.17,0,0,1-1,4.28c-1.65,1.24-3.7,1.25-4.86-.27-3.25-4.24-6-3.76-9.63-.3-1.74,1.67-4.84.67-7.37,1.2,3.75,0,6.59,1.68,9.65,3.79,5.51,3.81,11.71,1.69,17.53.1,4.85-1.33,9.27-4.44,14.67-3.5a2.81,2.81,0,0,1,.18,2.58c-4.18,3.88-9.61,5.07-14.7,7-2.21.83-4.48,1.49-6.63,2.48-8.85-.16-17.15,3.13-25.78,4.37a25.57,25.57,0,0,0-8.24,3C761.61,823.54,754.81,825,748.06,820.05Z" fill="#312923"/><path d="M618.73,374.36c6.48,5.55,13.32,10.23,22.3,10.5,1.32,0,2.72,1.53,3.86,2.59,4.9,4.57,12.2,3.85,17.23,8.08.15.12.4.26.54.21,10.22-3.9,15.8,5.67,23,9.2,10.42,5.13,21.24,5.73,31.94,8.16,6.26,1.42,12.64,2.83,18.53,5.31,3.77,1.59,7.23,2.07,10.81,1a8.13,8.13,0,0,1,7.37,1c8.65,6.25,18.53,5.26,28.14,5,4.52-.13,9.07-1.26,13.4.49,7,2.82,14.77,1.8,21.85,4.63,2.51,1,5.93,1.39,8.14-2.58,1.92-3.45,6.6-.07,9.9-2.4,1.23-.87.81,3.18,1.46,4.71,1.07,2.48,2.19,5,3.48,7.37,1.91,3.49,4.81,0,7.23.05,6.15.2,11.13,4,15.93,7.24,6.88,4.71,14.71,7.49,21.69,11.93,2.49,1.58,5,2.52,6.16,5.92a9.67,9.67,0,0,0,6,5.56c3.63,1.32,4.29,3.64,2.89,7-2.82.64-4.45-1.44-6-3A74.1,74.1,0,0,0,859,452.05c-8.09-2-15.39-7.82-23.76-9-12.83-1.76-25.23-7.29-38.38-5.68-8.48,1-15.47-3.83-23.57-4.27-21.31-1.15-41.17-9.11-61.55-14.57-9.51-2.55-19.31-4.4-28.21-8.88-6.73-3.39-14.07-5.15-20.87-8.34a28.12,28.12,0,0,0-10.15-3.07c-5.63-.81-10.28-4-15.27-6.41-5.17-2.48-9.89-5.85-14.63-7.65,3.83,2.88,8.34,6.1,12.44,9.85a9.81,9.81,0,0,0,5.17,2.85c10.76,1.14,17.61,8.44,24.52,15.62,1.85,1.92,3.45,3.89,6.48,3.29a1.81,1.81,0,0,1,1.67.49c5.35,7.35,14.5,7.9,21.75,11.11,12.62,5.57,24.11,13.77,37.72,17.1a36.55,36.55,0,0,1,10.55,4c4.69,2.88,9.93,1.77,14.84,2.9,5.56,1.29,11.23,2.17,16.4,4.81a5.87,5.87,0,0,0,4,.63c6.36-1.71,13-.68,19.36-2a6.8,6.8,0,0,1,1.8.19,9,9,0,0,1,4.64,2.51,11.21,11.21,0,0,0,9.31,4.27c3.2-.08,5.83,2.25,8.62,3.73,4.21,2.23,8.66,3.9,13,5.85,5.6,2.53,6,4.4,2.56,10.15-3.28-.54-6.27-2.24-9.63-2.5-15.66-5.38-32.2-5.63-48.31-8.35-21.6-3.64-43-8-63.42-16.18-24.14-9.66-47.56-20.92-69.54-35-15.64-10.05-32.14-18.76-46.91-30.13-10.63-8.19-21-16.82-27.37-29.14-.31-3.11-4.45-6.29-.74-9.21,3.28-2.56,5.58,1.57,8.33,2.61,11.07,4.17,20.35,12.08,31.76,15.55C614.55,370.05,616.18,372.85,618.73,374.36Z" fill="#282019"/><path d="M627.05,800.67a23.3,23.3,0,0,0,12.85-2.87c4.07-2.27,9.78-1.34,14.53-.27,3.34.75,5.24-.08,7.19-2.33,2.48-2.87,5.52-4.56,9.39-4.1s6.14-1.48,7.87-4.9c3.8-7.52,7.11-8.37,14.27-3.22,3.38,2.42,6.2,2.7,9.74.71,6-3.37,10.72-.61,15.23,3.9a40.94,40.94,0,0,1-17.36,9.69c-1.22.34-3,.65-3,2.41s1.69,1.87,3,2.37c5.53,2.19,10.92,2.4,16.42-.33,3.29-1.64,6.73-2.21,9.48,1.43,3.16,4.16,8.06,1.88,11.56,1.77,4.54-.16,7.9,1.57,11.66,2.93,2.62.95,4.93,3.18,8,.37,1.06-1,4-1,4.78.78,1.11,2.67-1.87,2.2-3.2,2.91-2.43,1.32-5.33,2.1-7.29,3.92-4.18,3.85-8.53,3.34-13.2,1.68-1.1-.39-2.08-1.07-3.38-.71-11.49,3.11-23.41,1.64-35,3.24-8.85,2.07-18,.76-26.87,2.23-13.41,2.21-26.86,4.16-40.29,6.22-9.36.31-14.69-9-10.25-18.89-8.85.55-17.33,2-25.87,2.9-4.4.45-8.81,2.64-13.29.37-.48-.34-1-1-1.42-1-14.3,1.35-14.13-11.29-18.54-19.49a26.23,26.23,0,0,1-1.23-18.29l0,.05c3.41-7.21,11.66-6.56,17-10.67,6.65,0,8.69,2.68,6,8.83-3,6.82-7.73,12.5-12.89,17.86,2.78-3,5.65-5.83,8.43-8.79,4.54-4.83,11.39-4.16,13.08,2.16,1.46,5.46,5.12,7.69,8.94,10.4,2.43,1.73,5.11,3.15,7.34,5.1,3.74,3.27,7.43,1.34,11.2.44C623.69,799.19,625.54,799.16,627.05,800.67Z" fill="#181613"/><path d="M884,620.34c1.58,1.95,2.87,4,5.63,4.78,7.42,2.06,12.71,8,16.93,13.42,6.06,7.87,14.11,14,19.05,22.74,1.93,3.42,4.28,6.63,6,10.16,6.25,12.89,12.46,25.79,20.11,37.93,1.19,2,2.94,4,.51,6.35-2.21,2.13-4.47,1.17-6.47-.19-2.68-1.82-6.47-2-7.85-5.84-.93-2.56-2.32-.35-3,.25-3.7,3.46-7.67,3.62-12,1.53a11.92,11.92,0,0,0-5.79-.93c-3.5.16-6.2-1-7.2-4.73-.37-1.38-.85-2.73-2.66-2.65-.63,0-1.24.31-1.33,1-.24,1.74,1.36,2.2,2.25,3.17,2.22,2.41,4.54,4.22,8.16,3.76,2.39-.3,4.1,1.24,5,3.48a3.27,3.27,0,0,1-.8,3.83,4.35,4.35,0,0,1-6,.42c-4.15-3-9.62-1.06-14-4.24-2.24-1.64-3.84.94-3,3.65.72,2.24,2.23,4.29,1.17,6.83-5.81,2.77-9.64,8.1-14.77,11.76a10.5,10.5,0,0,0-4.42,8.74c-.06,2.81-.63,6.14,4.3,3.42,2.69-1.48,6,2.09,4.24,4.69-2.38,3.55-.74,5.49.78,8.38,1.28,2.43,3.18,6.07-1.77,7.46-2.06-3.66-4.4-7-8.14-9.18-2.7-1.57-3.88-4.26-4.88-7.19-1.9-5.59-3.66-10.6-11.28-11.76-5-.77-7.39-7-9.18-12-.31-.88-.09-2-.9-2.71-2.61-2.78-6.1-4.44-8.89-7-2.52-2.29-5.05-5-3.19-8.83,1.64-3.36,4.87-2.83,7.87-2.29,5.27.94,9.76.05,13-4.89,2-3.15,5-4.74,8.65-2.63,3,1.74,5.54.73,8.36-.64,3.25-1.58,6.2-3.51,10.39-3.54,1.78,0,6.31-2,8.17-5.54,2.28-4.29,2.54-4.14,7.8-2.45a1.18,1.18,0,0,0,1.13-.17c4.07-3.11,8.4-1.1,12.6-.53,3.65.5,5.61,0,5.28-4.59-.58-7.87-1.66-9.7-9.09-11.88-5-1.47-9.15-4.71-13.93-6.64-2.32-.93-2.4-2.93-1.6-5a13.88,13.88,0,0,0,.49-8.26c-.72-3.06-1.52-5.81-5.76-5.17-3.24.48-4.3-1.59-3.51-4.52.65-2.41.45-4.33-1.9-5.63-5.5-3.06-6.71-8-6-13.84A3.47,3.47,0,0,1,884,620.34Z" fill="#4a3a32"/><path d="M873.16,862c6.09,4.2,8,11.11,11.19,17.24,2,3.79,6.54,2,9.85,1.66,2.35-.23,4-.35,5.78,1.43,4.4,4.41,11,4,16,7.26-3.43,9.26-6.25,19.23-3.92,28.57,1.9,7.6-.87,13.9-.75,20.91-2.23-.55-.82-2.5-1.72-3.38-1.62,7.73-3.68,15.42-4.77,23.24A310.09,310.09,0,0,0,901.89,990c-.16,4.57-1.27,7.54-5.87,10,.2-10.24,2.56-19.63,3.92-29.13.47-3.3,1.4-6.61.13-9.94,0-.06-.29-.09-.41,0a2.48,2.48,0,0,0-.5.32c-2.67-2.48-2.73-3.47-1.6-6.66,5.08-14.41,9.31-29,8.33-44.57a2.93,2.93,0,0,1,.19-1.75c0-.81-1.3.09-.53-.12.18-.05.29.09.29.4.07,6,.51,12-1.3,17.79-.35,1.12-.7,2.52-2,2.69-1.78.24-2.27-1.45-2.65-2.69-2-6.33-.83-12.61.49-18-3.41,7.17-2.73,16.24-6.27,24.22a2.15,2.15,0,0,1-1.53.73c-7.26-4.91-3-11.63-2.58-17-2.73,7.48-1.14,15.65,0,23.83-1.67,7.09-4.68,13.69-7.27,20.44-4-1.08-2.38-4.2-2.44-6.72,1.68-7.19,1.06-14.46.4-21.69-.21-2.34-.84-4.64-.74-7,1.58-6.06.64-12.19.47-18.32-1.08,1.09-2.51,2.17-3.67.68-2.86-3.69.61-6.53,1.78-9.81-1.4.71-2.19,3-4,1.55s-1.63-3.61-1-5.5c1.33-3.94,2.77-7.7,2.89-12,.1-3.53-.63-6.1-3.06-8.51-2.62-2.6-4.3-5.77-3.71-9.64C870,861.34,870.62,859.14,873.16,862Z" fill="#6e4e3d"/><path d="M789.92,910l-1.13-1.26c-.89-1.27-.85-2.8-1.17-4.22a57.89,57.89,0,0,0,1.81-11.06c.09-2.09.66-4.65,3.57-4.66,2.69,0,3.68,1.91,3.9,4.36.15,1.76-.09,3.92,2.09,4.46,2,.49,2.37-1.64,3.32-2.82,3.13-3.86,4.91-1,5.88,1.66a55.14,55.14,0,0,0,6.74,12.39c2.58,3.79,4.7,3.66,7.64,1.57,1.68-1.19,4-1.77,4.81-4.22-2.06-1.6-5.22,1.37-6.5-1.09-1.91-3.68-4.23-7.12-6-10.83-.78-1.61.63-3.22,2.09-3.83,9.24-3.81,18.59-6.55,28.43-2.06a4.48,4.48,0,0,1,1,1.29c1.18,4.86,5.89,1.72,8.33,3.73,1.93,4.38,3.82,8.77,1.07,13.6,5.08.17,6.43,2.17,4.17,5.93-1.7,2.82-4.17,4.85-7.63,4.92-5.67.12-9.59,2.52-11.8,8-1.23,3-3.26,5.32-6.34,1.33-1.86,2.41-.3,6.69-4.35,7.85a6.72,6.72,0,0,1-8.77-6.55c0-3.65-1.49-4.56-4.6-4.18-2.94,0-5.09-1.44-7.14-3.5s-3-6.29-7.63-4.72c-1.2.41-2.34-1.77-3.18-3.13C796.45,909.69,793.51,908.86,789.92,910Z" fill="#969087"/><path d="M795.81,553.2c.32,2.91-1,5.4-2.06,8-2,5,1.31,10.7,6.52,10.92,1.88.08,4.42-.51,4.3-3s1.66-3,2.92-4c2-1.57,3.83-1.14,4.72,1.23.73,1.93.08,3.2-2.27,3.83-6.29,1.69-7.66,7.93-10.67,12.58a2.56,2.56,0,0,0,1.53,3.87A4,4,0,0,0,806,584c1.15-3.42,3.56-6.07,4.93-9.17,1.73-3.92,3.42-2.68,6.56-1.18-4.38,2.73-5.36,6.54-5,10.94.16,2.05,1.27,1.52,2.41,1.2.46,5-2.87,4.35-5.95,4.08-2.63-.24-5-.26-2,3.15.42,2.09-1.46,4.7,1.39,6.24,2.09,5.23-.35,11.47,3.59,16.27,2.16,4.62.73,8.86-2.65,11.76s-3.44,6.07-2.48,9.57c1.72,6.29,4.8,12.56-2,17.86-.85.65-.24,1.86,0,2.81,1,4.66-1.36,6.63-5.64,7-2.5-.81-3.78-3-2.74-5,2.91-5.86-.68-8.53-4.67-11.24a5.81,5.81,0,0,1,1.15-6c4.78-1,3.71-5.34,4.65-8.52.43-1.45-.71-1.35-1.54-1.83-2.45-1.42-5.17-1.65-7.81-2.32-6.53-1.65-9.51-6.48-7.37-11.78,1.21-3,3.21-4.61,6.41-2.49a51.12,51.12,0,0,0,8.4,4.29c3.13,1.33,4.35,0,4.77-2.92,1.14-1.81,3-3.58,1.61-5.88s-3.56-.64-5.4-.47c-.39,0-.85.27-1.16.12-3.53-1.71-4.95-5.63-6.85-8.46-1.55-2.31,1.65-6,5.48-7,2-.49,4.38-.11,6.09-2.73-4.26-1-7.71-.15-9.63,3.43-1.6,3-4.32,5.69-3.44,9.8.44,2.06-1,3.74-3,4.68-5.68.91-7.14-4.43-10.38-7.13-1.65-2.19-2-4.41-.08-6.65,2.65-1.53,5.47-2.89,6.66-6.07,4.33-8.07,10.24-15.31,10.57-25.3A19.85,19.85,0,0,1,795.81,553.2Z" fill="#31271f"/><path d="M751.9,366a3.86,3.86,0,0,0-2.29,4.38c.23,2.13,2.64,4.37-.47,6.32-3.41,2.14-4.64-1.36-6.35-2.85-2,1.55-1.07,2.83-.42,4,1.32,2.36,1,4.13-.67,6.45-4.45,6.16-1.44,14.2,6,16.39,2.37.7,4.44,1.19,5.17,5.24-6.9-3.49-13.22-6.71-20.55-3.27.28,4.15,6.58,3.27,7.91,7.71-7.6-4.39-16.16-4.31-24.25-6.28-2.12-.52-2.15-2.6-2.16-4.44.45-.42,1.17-.89,1.57-.6,5,3.61,7.65-1,11.11-3-1.82-1-4.51-1.95-3.31-4.22,1.66-3.17,4.64-1.7,7.34-.43-.66-1.68-2.34-1.52-3.22-2.49-1.63-1.79-3.27-3.76.49-4.64,3.4-.8,3.57-3.94,5.14-6.06,4.58-11.7,4.29-24.19,5.38-36.39,1.18-13.26,3.55-26.32,5.27-39.48,1.61-7.19-.37-14.56,1-21.76l-.06,0c2.78,0,2.33,2.12,2.5,3.79.23,2.15-.27,4.38.76,6.48-3.12-11.31-.86-22.37,1.42-33.41.27-1.28.46-3.18,2.25-2.93s.39,2.57,1.59,3.43c-.62,3.32,2.17,6.21,1.21,9.58-2.8.16-3.07,2.75-3.16,4.39-.23,4.65-.73,9.6.55,13.92s.69,8.15.51,12.2c-.07,1.62-.47,3.14.59,4.55,1.3,1.72,2.44,4.13-.11,4.92-3.29,1-1-3.06-3.6-4.61-.68,5.4-1.65,10.4-1.88,15.43-.55,11.55-1.77,23.19,1.75,34.54.52,1.68-.57,2.57-1.18,3.77-.89,1.75.26,3.15,1.19,4.32,1.42,1.79,1.72-.5,2.54-1,2.06-1.14,2.64.23,2.27,1.77s-2,2.48-1.9,4.26Z" fill="#5d4a3b"/><path d="M678.29,327.68c0-6.19,0-12.38-.18-18.56,0-1.19.89-3.22-1.18-3.38a3,3,0,0,0-3.27,2.87c-.13,3.71-1.55,6-4.9,8-2.87,1.73-.6,5.53-.59,8.36,0,1.6.52,3.21-.59,4.5-5.08,5.89-7.09,13.06-8.4,20.5-.47,2.67-.52,5.41-.87,8.11-.52,4-1.86,7.42-6.53,8-.84.1-1.69.33-1.07,1.39,3.23,5.63-1.35,4.11-3.93,4.45-1.11.15-3-.54-3.16.72-.57,4.44-2.74,1.74-4.46,1.27-1.44-.4-2.77-2.33-4.26-1.11-2.07,1.69,1.89,2.73.66,4.9-3.73-.27-6.74-2.37-9.71-4.55-3.5-4.24-8.41-6.67-12.89-9.41-4.92-3-4-7.9-5.24-12-.63-2.09,1.75-2,3.38-1.45,2.58.95,4.93,2.44,7.67,3.65-.89-3.14-5.18-4.33-4-8.19,0-1.24,4.3,1.41,1.92-2.22a3.06,3.06,0,0,1,.78-3.8c3.39,5.05,8.53,8.12,13.17,11.75,2.32,1.47,4.8,2.64,6.3,5.23,1.62,2.8,4.79,6.76,6.86,5.7,3.54-1.81,9.23-2.62,9.24-8.75-.92-1.92-4.19,1.57-4.5-1.9,5.81-6.44,8.55-14.36,9.49-22.72A99,99,0,0,1,666.33,300c6.33-3.62,10-9.49,13.21-15.79.59-1.15,1.64-2.48,3.19-.83C679.18,297.91,680.39,313,678.29,327.68Z" fill="#735d49"/><path d="M594.81,738.35c2.59-.08,4.74-.34,6.48-3.08,9.42-14.85,23.07-25.52,36.3-36.56,5.92-4.94,12-9.65,18-14.46,1.78,5.16-.27,14.49-4,17.79-2.54,2.22-4.76,4.78-7.35,7a5.11,5.11,0,0,0-2.62,3.76,29.47,29.47,0,0,1-1.19,4c-.87,3.33-5.87,3.87-5.77,6.47.19,4.68-3.34,5.48-5.64,7.54a6.72,6.72,0,0,0-2.57,5.64c.23,9.17-1.92,12.17-10.55,15-4,1.32-6.6,3.52-6,8.24a3.31,3.31,0,0,1-1.53,3.63c-1.84,1-3.11-.46-4-1.62-3.73-4.77-8.29-9.26-6.2-16.35.62-2.08.28-4-2.17-4.79A2.22,2.22,0,0,1,594.81,738.35Z" fill="#e2e3e1"/><path d="M895.66,194.31c.39,10.13,3.5,19.76,5.36,29.62,1.53,8.13,2.73,16.31,4.07,24.47-5.21,14.68-2.06,29.83-2.6,44.78a148.11,148.11,0,0,1-3,26.09c-.53,2.46-.34,6.12-3.53,6.07-4-.06-1.73-4-2.5-6.19.39-11.54-2.34-23-.19-34.61,1.32-7.08-1.54-13.79-2.62-20.64a58.33,58.33,0,0,1,0-19.64c1.44-7.92-1.81-15.34-2.48-23-.59-6.72-2-13.38-3-20.06a7.86,7.86,0,0,1,1.15-5.73C890.08,200.92,892.5,194.49,895.66,194.31Z" fill="#c1b6ac"/><path d="M918.35,727.43h-1.19c-4.81-2.13-9.08,2.18-13.81,1.23-2.35-.31-5-.23-5.21-3.62a7.56,7.56,0,0,0-1.39-5.1c-1.71-2.43-3.11-4.17.36-6.84,3.09-2.38,4.29-1.42,5.95,1.11,1.21,1.84,3.22,1.16,4.93,1.19,2.58.05,5.18-.23,7.1,2.1,1.23,1.49,2.67,1.4,4.21.39,1.17-.78,1.65-1.79,1-3-.75-1.4-1.91-3.32-3.52-2.59-6.13,2.76-8.16-3.38-12-5.37a2.62,2.62,0,0,1-1.41-3.54c1.05-2,3.07-2.32,5.12-2.3,1.6,0,2.73.69,2.71,2.44-.08,5.33,2.67,6.54,7.3,5.36a3.93,3.93,0,0,1,2.79.31c5.73,3.58,10.69,2.55,15.13-2.3a2.59,2.59,0,0,1,3.23-.69c1.35.74.31,1.57-.15,2.41-1,1.79.27,2.48,1.61,3.09,1.62.73,3.26,1.4,4.82,2.24s2.92,2.93,5.2,1.41c2.64-1.76.56-4,.6-6,8.58,11.24,19.5,19.47,32.1,25.57.58.28.86,1.18,1.28,1.8,1.28,3.34-1.17,4.13-3.28,3.83-5.74-.82-12.59,1.27-16.2-5.9-.84-1.67-2.38-2-4.52-1-7.95,3.9-16.62,1.44-21.51-6.11-2.39-3.69-3.8-7-9.37-3.53C926.93,726.07,922.21,725.88,918.35,727.43Z" fill="#584339"/><path d="M869.56,976l-2.07,4.2c-5.21-10.23-.74-20.38-1.29-30.66L862,960.27c-6.05-5.7-.57-12.4-2.36-19.52-5,6.83-7.13,14.25-11,22.31.32-4.54.54-7.69.81-11.62l-2.16,3.28c-3.17-.27-6.18-2-9.55-.69-1.61.63-2.9-.53-3.72-2-3.67,1.92-3.6,6-5,9.13-1.19,2.7-1.66,5.72-3.64,8.32-6.16-8-10.66-16.84-15.31-25.59-3.52-5.29,0-11.18-1.37-16.78-.67-2.76,2.21-2.74,4.15-1.7,2.09,1.12,2.72,3.27,3.09,5.5.51,3,1.25,5.9,4.65,6.94,1.23.43,2.49.72,3.74,1,2.09.79,2.37-2.64,4.42-1.94a3.53,3.53,0,0,1,1.46.76c3.89,6.08,4.27,6.21,9.55,1.79,1.59-1.34,3.06-1.34,4.92-.9,4.59,1.06,8.51.25,12.66-2.69,2.88-2,5.87-6.6,10.77-3.63,2.23,5.6,1.71,11.69,3.11,17.43.09,2.85,3.26,4.35,3.17,7.29A46.73,46.73,0,0,1,873,964.3C871.44,968.07,872.15,972.53,869.56,976Z" fill="#7f6850"/><path d="M889.83,452.37c-2.61.11-4.24-.52-6.26-3-6.19-7.58-12-15.5-19.29-22.25-4.06-3.74-7.49-9.86-4.26-16.59,2.8,2.61,4.34,6.47,8.71,7.49,4.63,1.08,6.18-.38,7-5,1.3-7.64,1.71-15.31,2.3-23,4-8.23,4.18-17.6,7.39-26.07.94-2.08,3.09-2.7,4.67-4,3-2.39,6.69-2.9,10.22-3.87,2.84,3.44.41,5.46-1.78,7.89-2.57,2.84-7.42,3-8.43,7.55-2.61,3-3,6.64-3.74,10.43-2.33,11.51-4.13,23-3.52,34.79.09,1.75-.91,4,.86,5,1.92,1.06,3-1.34,4.38-2.28.49-.33.89-.81,1.36-1.17,6.2-4.7,7.82-4.33,11.7,2.66,1.37-3-1.64-7.27,2.76-9.33q.06,15.62.1,31.23c-2.09,2.58.57,8.45-3.65,9.06-3.4.49-2.4-5.18-4.45-7.25-1.79-1.82-3.1-4.13-5.56-5.36-1.24,1.24,3.69,10.14,3.91,11.37C894.31,451.18,890.07,452.09,889.83,452.37Z" fill="#705c4b"/><path d="M903.87,411.59c-2.45,4.2.09,9-1.38,13.29-1.76.23-1.94-1.24-2.37-2.21-3.55-8-4.13-8.1-11-2-1.75,1.57-3.63,3-5.45,4.49-2.87-2.46-3.77-5.28-2.29-8.79a4.77,4.77,0,0,0,.05-2.38c-2-12.82,3.39-24.91,3.66-37.52.06-2.87,2.58-4.28,4.66-5.79,2.6-1.76,5.77-2.39,8.05-4.88s4.24-1.16,4.22,1.75c0,4,1.48,7.15,3.49,10.5,2.27,3.8.2,8.14-.13,12.25C908.05,397.64,903.59,404.44,903.87,411.59Z" fill="#44372e"/><path d="M542.59,303.43a1.41,1.41,0,0,1,.27-1.1c.26-1.63,5.23-1.3,1.8-4.64-.69-.67-.73-3.53.57-3.65,5.59-.5,4.17-4.55,4.38-7.85,0-.39,0-.91.2-1.15,4.19-4.46,4.84-9.8,4.51-15.68-.13-2.46,2.53-3.36,4.82-3.38,2,0,2.18,1.26,1.47,2.85-3.32,15.12-3.31,30,3.61,44.23-.23,1.41-.34,2.91.73,3.95,3.79,3.7,3.29,9.87,7.63,13.27.87.69,1.64,2.15.7,3.16-1.16,1.26-2.72.54-3.63-.51-1.66-1.94-3.49-3.71-5.15-5.46a7.08,7.08,0,0,0,1.23,1.42c1.25,1.2,3.12,2.22,2.18,4.38-1,2.37-3.33,1.54-5.2,1.74-1.63.18-3.35-1.71-4.92.2-3.83-.68-6.11,1-7,4.72-7-5-14.06-9.8-20.15-15.9,2-2.15,2-2.15,6.22-1,.37-2.69-3.77-5-1.22-7.4s4.65.49,7.06,1.51c-1.34-2-3-3.81-1.66-6.26.91-1.71,2.27-1.81,3.85-.62C544.27,307.87,540.6,306.6,542.59,303.43Z" fill="#5c4738"/><path d="M706.61,645.68c-.48-4.33,1.28-6.64,5.47-8.33s7.5-4.78,11.22-7.26c4.29,3.82,9,1.11,13.25.34s8.33-1.69,12.47-2.69c3.25-1.12,6.32-1.22,8.9,1.55a4.46,4.46,0,0,1,.77,1.54c-.45,3.15-2.15,6.1.22,9.48,1.8,2.55-.06,4.05-2.84,3.92-2-.08-3.89-.47-5.86-.57,5.83,5.85,4.85,9.11-3.51,11.78-2,1.85-3.88,3.82-7.07,2.75-1.46-.49-2.58.49-3.42,1.64a7.52,7.52,0,0,1-6.56,3.06c-3.67-.15-7.22-1.47-10.95-1.07-2.12,0-4.24,0-6.36-.15-1.54-.32-3.35-.48-3.59-2.48s1.57-2.59,2.94-3.27c4-2,7-5.09,10.13-8.16s1.57-4.73-1.48-6c-4.93-2.06-8.34-.86-12.18,4.12A1.44,1.44,0,0,1,706.61,645.68Z" fill="#b19980"/><path d="M558,334.82c.47-.8-3.11-3.55,1.14-2.49a16,16,0,0,1,3.11,1.53c1.25-2.82,3.79,1.45,4.8-.76s-1.68-2.7-2.66-4c-1.24-1.67-2.47-3.36-3.7-5l1.43-1.41c3,4,5.95,7.95,9.24,12.35,1.87-3.11.7-3.75.09-4.15-5.72-3.76-4.18-11.4-8.38-16-.11-.13.76-1.19,1.18-1.81,4,10.89,10.7,13.05,19.43,13.54,5.09.28,8.29-2.56,10.48-7.2,3.93-8.33,5.28-17.41,8-26.08.59-1.89.93-3.89,2.35-5.4,2.7.79,4.22-.69,5.83-2.65,1.44-1.76,3.45-3.36,4.89.25-2.48,3.22,0,7.57-2.38,10.8-.85-.37-1.32-2.49-2.64-.72a14.71,14.71,0,0,0-3,7.62c-.46,5.33-2.22,10.45-2.49,15.82-.07,1.4-.24,3-1.48,3.73-3.79,2.12-3.51,5.83-4,9.3-1.23,1.81-2.59,2.27-4.32.26.36,3.28,4.22,6.14,1.27,9.42-1.85,2.06-2.83-.81-4.1-1.51-2.76,2.13.28,6.32-2.57,8-2.51,1.46-5-1.55-8-1-4,.8-7.71-1.29-11.58-1.94A15.65,15.65,0,0,1,558,334.82Z" fill="#765d49"/><path d="M594.81,738.35l1.25,1.15c2.34.71,3.52,1.65,2.66,4.66-2.19,7.77,1.14,14.82,3.63,21.91.71,2,2.8,4.07,4.45,2.94,5.39-3.67,9.68-.49,15,2.54-1-5.41.7-8.95,2.72-12.65,2.28-4.19,1.66-9.33,3.22-13.88,1.68-4.87,1.42-10.76,7.34-13.2,1,.22,1.72,1,2.69,1.21,8,1.89,9.54,6.76,3.72,12.82-3.05,3.18-4.3,7.75-9.05,9.85-2,.88-1,5.87-.77,9,.09,1.39.86,3-.25,4-3.49,3.1-1.44,5.57.6,8.14a2.3,2.3,0,0,1-.12,1.63c-1.27,1.79-3,2.33-5.66,2.09,2.86,1.59,6,2.66,6.28,6.07.2,2.73-1.61,4.28-4.17,4.93-4.2-.77-8.17-2.29-12.75-1.15-4.09,1-10.45-4.45-12.76-9.12-2-4.07-2.17-9.38-7.07-11.69-.7-1.23-.53-2.78-1.23-4a21.74,21.74,0,0,1-2-18.87c1.11-3.15-.42-4.71-2.53-6.28A5,5,0,0,1,594.81,738.35Z" fill="#9c9c9a"/><path d="M893.42,319.15c2,1.25.46,3.87,2.76,6.22A82.92,82.92,0,0,0,899.35,310c1.92-18.63,1.54-37.29.49-55.94-.07-1.17.23-2.36,1.38-2,3.82,1.26,2.23-2.89,3.87-3.71q2.56,33.28,5.09,66.56a62.84,62.84,0,0,1-.19,6.57c-1,.58-2.37.32-3.29,1.17-1.93,1.76-6.81,20.82-5.63,23.13.9,1.75.41,2.57-1,3.3a9.07,9.07,0,0,1-8.54.15c-2.37-1.18-1.84-3.67-1.54-5.86.48-6.26,1.25-12.08-.74-18.74a40.28,40.28,0,0,1,.67-26.1c2.43,7.83.3,16,1.56,24.06Z" fill="#a79e95"/><path d="M889.92,298.58c0,8.12-.08,16.25,0,24.37,0,1.38-.94,4,2.31,3.39,1.26-.24,1.24.88,1,1.43-2.37,5.3,1.26,11.44-2.28,16.56,0,5.63-1.42,11.26,0,16.89l-4.73,2.34c-3.46-4.06-5.56-8.61-5.32-14.1,1-22.44-2.76-44.71-2.43-67.13a3,3,0,0,0-.59-1.64c-1-5.2,0-10.41,0-15.61,1.57-1.28,2.48-.17,3.38,1,.66.83.86,2.45,2.55,1.48,1.51,1.82,1.46,4.15,1.4,6.2C885,282.37,887.79,290.4,889.92,298.58Z" fill="#75716a"/><path d="M733,378.17c.21,4.49-1.47,7.39-6.43,7.2.66,3.22,3.41,2.92,5.06,4.13,1.22.89,3,2,1.75,3.82s-2.7,1-3.78-.43c-1.61-2.19-3.51-1.82-5.78-1,1.23,3.09,5.21,2.69,6,6-3.78-2.39-4.82,5.61-8.71,1.59-.86,2.09,1.34,2.05,1.36,3.36-3.57.81-5.31-3.28-8.56-3.25-8.07-3.56-16.44-6.26-24.76-9.12-5.23-1.79-13.57-6.38-11.74-13.32,1.66-6.29-1.93-10.67-1.48-16,2.68,2.81,3,6.8,4.87,10,3.19,5.42,10.78,7.77,15.34,4.5,2.54,3.34,5,6.9,10.06,4.61a1.5,1.5,0,0,1,1.49.05c-.06,3.3,1.28,4.6,4.77,5.27C720.9,387.25,727.42,384.37,733,378.17Z" fill="#8a6d55"/><path d="M837.35,282c-2.2-8.46-1.25-17.1-.59-25.54a295.29,295.29,0,0,0-.27-50.64q-.91-9.81-1.37-19.65c-.08-1.72-1.15-4.51,1.88-4.8,2.68-.24,2.84,2.48,3.27,4.27,2.32,9.66,5,19.28,6.53,29.07,1.48,9.22,2.91,18.44,4.78,27.58-3.52-1.61-5.41-1.79-5.72,3.42-.36,6.24-1.59,12.45-5.57,17.92-2.65,3.65-.78,8.53-1.16,12.84C839,278.48,839.18,280.58,837.35,282Z" fill="#c8bdb4"/><path d="M707.91,645.77c1.51-6.58,7.1-8.61,14-5.06,5.34,2.76,5.48,4.15.93,8.25-3.78,3.42-7.22,7.12-12.18,9.13-2.51,1-.06,1.77,1,2.26-3.76,4-8.1,7.47-10.18,12.81C699,681,695.8,688.47,694,696.45c-.34,1.5-.48,3.24-2.47,3.64-3.55-5.56-8.56-8.83-14.9-10.56-3.83-1-4.81-4.56-2.73-7.65,3.68-5.48,5-13.3,13.1-14.79.31-.05.5-.59.69-.94,1.85-5.06,5.33-8.79,9.56-11.9a2.66,2.66,0,0,1-.4,3.78c-6.63,6-5.42,15.07-7.38,18.76,1.39-4.13,7.21-10.31,9.48-18.3a2.61,2.61,0,0,1,2.83-1.8c3.53.79,5.87-1.87,7.38-3.73,2.78-3.42,5.71-6.23,10.55-7.73C715.08,643.76,711.6,646.23,707.91,645.77Z" fill="#7a7267"/><path d="M857.54,300c-3.09-2.31-7-.47-10.27-2.09a1.66,1.66,0,0,0-2.49,1.62c.39,5.1-2.59,9.62-1.69,15,1.14,6.79-.85,13.42-2.51,20.25C838.53,343.24,830.5,346.53,828,354c-.62-6.59,1.29-12.86,2.32-19.24.81-10.21,2.67-20.27,4.23-30.37.3-2,.13-4,1.26-5.73,4.35-2.15,6.6-6.07,8.14-10.39s4.34-5.93,8.68-5.2c4.64.79,6.15,3.81,5.63,8.2C857.94,294.13,859.14,297.16,857.54,300Z" fill="#58473a"/><path d="M780.3,590.34c-.26,3.6-2.52,5.36-5.67,6.31-6.8,4.32-10.69,11.89-17.6,16.14-1.71,1.05-2,3.33-2.2,5.35-.63,3.86-3.38,6.6-5.66,9.29-2.68,3.16-7.19,1.25-10.82,1.6-.79.08-3.12-1.65-5.18-1.75-1.6-.08-2.42-1.28-1.89-2.95.64-2.05.1-4.39,1.54-6.23.72-3.88,3.69-6.06,6.46-8.22,8.25-6.41,17.11-11.81,27.09-15.07a11.43,11.43,0,0,1,5.2-.57C775.44,594.87,777.8,592.56,780.3,590.34Z" fill="#705a48"/><path d="M598.51,332.32c-.68-4.42-1.94-9,4.23-10.85.51-.15.23-2.6.53-3.93,1.6-7.09,1.33-14.57,4.57-21.33a8,8,0,0,1,4.47-4c.19,1.5.35,2.81.51,4.12a82.2,82.2,0,0,0,1.39,37.36c.63,2.4,2.3,4,3.28,6.06-.61,2.69,1,4.9,1.67,7.4-2,1-2.54-1.46-4-1.59-2,2.55-9.15,2.57-12.06.63C597.86,342.67,597,338,598.51,332.32Z" fill="#3c3228"/><path d="M579.52,764.7c-4.45,5.26-12.56,3.89-16.81,9.49,4.45-10.09,11.21-18.48,18.84-26.23,1.65-1.68,3.34-3.31,5-5,2.37-1.58,4.4-2.31,4.53,1.82,0,1.39.35,2.87-.12,4.15-3.12,8.42,1.55,14.73,5.5,21.24,3.89,2,3.52,6.45,5,9.74,1.51,3.45,2.9,6.43,6.65,7.68a6.19,6.19,0,0,1,2.45,1.62,24.43,24.43,0,0,0,18.82,8,3.21,3.21,0,0,1,1.34,1.11l-3.64,2.3-5.94,0c-4.76,1.12-8.87.23-11.92-4a15.55,15.55,0,0,0-5.55-4.32,15.2,15.2,0,0,1-6.92-7.07c-2.1-4.74-4.22-9.4-8-13.06a5.73,5.73,0,0,1-1.42-3.19C586,762.21,585.94,762.22,579.52,764.7Z" fill="#393837"/><path d="M798.24,550.88l-2.53,2.3c-.41-10.56,8.75-15.24,13.67-22.51,1-1.48,2.53-2.76,2.66-4.55.4-5.74,4-9.15,8.09-12.4,1.66-1.33,2.89-3.23,4.31-4.86.77-.91,1-2.23,2-3,10.38-7.94,18.83-17.79,27-27.87,4.21-4,6.79-9.77,13.22-11.25a21.68,21.68,0,0,1,6.27-1l3.71,2.26c1.77,4.13-1.94,5.21-4,5.58-9.17,1.6-12.71,9.53-17.85,15.56-2,2.31-3.58,4.71-6.47,5.88-1.29.52-2.9,1.18-3.25,2.46-1.63,5.79-7.57,7.94-10.3,12.85-1.57,2.82-4.94,3.81-7.81,5.15-4.51,2.1-9.93,3.41-9.19,10.3C809.73,533,806,543.56,798.24,550.88Z" fill="#554336"/><path d="M583.92,812.88c13.94-2,27.83-4.35,41.87-5.11.83,4.73-7.13,6.68-3.55,11,3.06,3.69,4.91,9.45,11.09,9.75-12.52.17-25.41,3.92-37.09-3.94-.09-3.48,2.58-3.49,4.82-3.66a48.24,48.24,0,0,0,9.79-1.7c1.36-.39,2.61-1.22,2.34-2.91-.22-1.39-1.52-1.79-2.69-1.87-4-.28-8.15-1.57-12,.78-4.23,1.29-7.92,5.77-13,2.23Z" fill="#3b3b37"/><path d="M877.93,280.69c1.51,13.25,3.48,26.47,4.4,39.76.78,11.28.16,22.65.56,34,.11,3.18,4.42,5.23,3.38,9.14.15,7.5-4.14,14.08-4.37,21.56-.06,2.09-1.91,3.79-3.9,4.86-.61-12.74,2.28-25.36,1-38.15C876.77,328.16,879.18,304.39,877.93,280.69Z" fill="#908173"/><path d="M558,334.82c4,3.22,6.58,8.19,12,9.46,7.83,3.4,15.72,6.64,23,11.11,3.42,2.41,6.57,5.36,11.11,5.42,4.7.25,7.76,3.93,11.7,5.77a1.83,1.83,0,0,1,.5,3l2.37,4.82c-4.54-.74-7.76-4.25-12.09-5.69-11.54-3.84-21.3-11.35-32.08-16.81-2.81-1.42-3.13-.08-3.3,1.94-.18,2.18,1.71,4.09,1,6.4-.16-.11-.43-.19-.47-.33-2.56-10-10.81-13.89-18.84-18.07a12.11,12.11,0,0,1-2.14-1.87C550.39,332.12,550.45,332.08,558,334.82Z" fill="#403429"/><path d="M837.57,276c0-3.39,0-6.79,0-10.19,0-1.16-.09-2.88.59-3.4,6.56-5.09,5-12.8,6.4-19.53.39-1.8-.89-4.3,1.75-5.14,2.94-.94,2.76,2.07,3.88,3.45a10,10,0,0,0,1.35,1.15c1.41,9.95,2.14,20,5.6,29.59.7,1.94.24,4.3.31,6.46-2.82,1.31-3.43-1.07-4.14-2.75-1.09-2.61-1.91-5.58-5.3-5.54s-4.06,3.23-4.92,5.83c-.5,1.48-.51,3.41-2.44,3.67C838.14,279.9,838.54,277.24,837.57,276Z" fill="#a09a93"/><path d="M643.68,708.19c1.29-1.48,2.33-3.35,3.9-4.38,7.18-4.71,6.64-12.52,8-19.56,5.13-5.74,12.38-8.85,17.54-14.59,1.61-1.79,4.1-.95,6.23-1a1.29,1.29,0,0,1-.08,1.54c-8,3.68-13.3,9-12.1,18.82.75,6.09-2.86,10-7.35,13.34a27,27,0,0,0-4.65,6.78,10,10,0,0,1-4.67,5.16c-3.15,1.41-5.62,3.16-7.14,6.46-.8,1.75-2.58,3-4.86,1.76C639.16,717.31,641.21,712.67,643.68,708.19Z" fill="#ccccc8"/><path d="M895.66,194.31a7.85,7.85,0,0,0-1.75,1.52c-1.09,1.72-.54,4.88-3.27,5.07-3.51.24-2.53-3.93-4.38-5.47-2.18-12.87-4.39-25.75-6.51-38.63a10.13,10.13,0,0,1,.36-3.48c.31-1.57.71-3.35,2.73-3.32,1.65,0,2.16,1.67,2.51,2.95,2.33,8.39,5.13,16.7,6.62,25.25C892.92,183.67,896.43,188.5,895.66,194.31Z" fill="#d8cdc4"/><path d="M834,952c1.23.53,2.58,1.74,3.79.88,3.89-2.74,6.67-.62,9.48,1.82-2.22,10.57-.45,21.49-2.76,32-2.7,1.59-2.5,4.56-3.38,7.05-.46,1.33.62,3.85-2.31,3.6-2.85-3.43-2.78-7-1.44-11.21,2.65-8.22,3-16.84,3.22-25.51-4.09,7.1-5,15.56-10,23.72C831.77,972.79,832.87,962.4,834,952Z" fill="#755841"/><path d="M820.82,938.84c-5.23.24-6.19-3.5-6.36-7.46-.13-3.17-1.19-5.06-5.36-6.17,4,6.74-1.13,12.7.92,18.67-6.93-11.15-12.34-23.21-20.1-33.86.52-.88-.71-3.59,1.81-2.31,3.07,1.57,8-.06,8.79,5.88.36,2.69,3,2.46,4.61-.19.47-.78,1.17-1.75,2.35-1.41a1.51,1.51,0,0,1,1.13,1.84c-1.61,6.49,3.39,7.55,7.49,9.36,3.37.79,5.06,2.74,4.16,6.36C819.47,932.72,821.89,935.67,820.82,938.84Z" fill="#867868"/><path d="M891,361.22c-2.4-.32-2.44-2.1-2.39-3.93a39.2,39.2,0,0,1,2.37-13c.64,4.8,3.14,5.61,9.81,3.06-2-1.16-4.89-2.08-2.8-5.12,3.91-5.68,3.89-12.57,6.08-18.77,1.07-3,2.43-6,5.92-2,1.62,10.06,2.11,20.13.21,30.21-2.87-1.91-.3-5.88-3.29-8.34-1.61,4.76-2,10-6.42,12.92C898.37,360,893.2,357.69,891,361.22Z" fill="#908173"/><path d="M918.35,727.43c1.49-3.25,4.21-3.75,7.4-3.65,2.38.07,4.82.78,6-3,.89-2.77,5.34-.83,7.66,3.61,3.49,6.66,8.52,10.78,16.39,10.21,1.14-.08,2.88-.05,3.3-.73,4.54-7.36,6.65-2.07,9,1.67s14.13,4.72,16.9,1.19l3.45.35a7.57,7.57,0,0,0,1.49,5.06c.83,1.17,3,2.09,1.22,3.85-1.21,1.2-3.09.93-4.48.2-2.59-1.34-6.71,0-7.41-.58-3.87-3-10.63,2.61-12.94-5.51-1.83-6.43-8.49-5.59-13.7,1.72-1.19-6.33-5.11-8.19-10.69-7.42-2.1.28-2.48-1.61-3.15-3-3.89-8-7.47-8.6-13.13-2.23C922.42,732.9,921,727.16,918.35,727.43Z" fill="#674636"/><path d="M542.59,303.43c.52,3.71,5,5.73,4.16,10.11-3,1.07-2.22-2.5-4-3.25-4.26,4.14,5.17,6.61,1,10.92-1.76-2.79-4-5-7.44-5.29-.2.63-.46,1-.39,1.33.61,2.66,4.91,4.6,3.18,7.07-2.07,3-4.6-1.4-7.16-1.34-.45,0-.89.68-1.33,1-6.95-4.57-9.65-12.13-13.16-19.11-.46-2.48,1.71-2.29,2.95-2.62,1.54-.4,3.24,0,2-2.65-.52-1.12,1-1.62,1.93-1.4,2.31.53,5,1.22,5.94,3.42,1.27,3.06,3.66,5,5.7,6.78-.18,1.34.47.79.41.67-.95-1.9.08-3.24,1.44-4.45C539.5,304.49,541.22,304.64,542.59,303.43Z" fill="#7e624a"/><path d="M837.57,276l3.07,3.42c1.2-2.73.82-5.59,2.51-7.75,1.31-1.67,1.93-4.26,4.71-3.6s5.5,1.36,6.18,4.71c.47,2.33.54,4.84,3.45,5.61,1.88,7.94,1.68,16,1.18,24-.37-.81-.75-1.61-1.13-2.42.08-2.59,0-5.19.26-7.77.42-4.55-1.31-7.19-5.94-7.88-4.41-.65-5.47,1.78-6.67,5.53-1.32,4.14-3.41,8.5-8.87,8.89-3.48-2.42-3.4-5.33-1.14-8.53,1.77,1.21.5,4,2.91,5.35.76-4.74-.52-9.12-.74-13.53C837.42,280,837.5,278,837.57,276Z" fill="#83796e"/><path d="M560.61,268.83c-.46-2.64-2.18-1.55-3.58-1.18a2.14,2.14,0,0,0-1.73,2.63,61.07,61.07,0,0,1,.32,7.16c0,2.32,1.07,4.81-3.16,5.57-2.85.51-1.66,4.65-1.32,6.94.52,3.59.8,6.07-3.94,4.94-1.17-.28-2-.15-2,1.24,0,1,.11,2.17,1.43,2.12,1.83-.07,3.24,0,2.28,2.46-1.95-.85-2,6.21-5,1.25a5,5,0,0,0-1.07.37,44.07,44.07,0,0,0,.86-8.21c.18-17.25,7.25-31,21.06-41.15,1-.73,2-2.44,3.46-.87,1.25,1.33.18,2.6-.66,3.68C564.52,259.74,562.71,264.36,560.61,268.83Z" fill="#8a725a"/><path d="M900.49,356.32c.46-4.37,6-7.22,3.35-12.75-.65-1.37,2.65-1.8,4.21-2.17,2.27-.53,1.72,1.48,1.8,2.71.16,2.54.24,5.09.35,7.63-2.79,12.17-1.55,24.78-4.08,37a8.94,8.94,0,0,1-.7,1.6c-.68-5.44,1.19-11.33-4-15.9-2.29-2-.18-5.9-1-10.21-2.69,5.07-5.9,7.38-10.63,6.49-1.07-2.27-1.46-3.54,2-4.54C896.28,364.85,901,362.64,900.49,356.32Z" fill="#534940"/><path d="M883.85,267.52c-.29,1.4.46,4.44-2.5,1.56-1.27-1.23-.7-4.06-3.43-4-4-20.72-5.32-41.65-5.14-62.87,3.38,2.35,7.93,25.94,8.8,44.66,1,6.84,1.4,13.76,2.26,20.62Z" fill="#655f58"/><path d="M682.73,283.34c-3.57,1.86-4.5,5.93-5.89,9-2.3,5-5.86,6.72-10.51,7.66-.21-4.87,3.64-8.58,3.72-13.37,5.15-7.73,5.89-17,8.67-25.57.6-1.84,1.13-3.72,1.84-5.53,4.39-.25,6.37,2.63,5.48,7.93Q684.38,273.38,682.73,283.34Z" fill="#d7ccc0"/><path d="M707.91,645.77c2.65-2.69,6.12-2.2,9.4-2.64,1.78-.24,3.48-.34,3.81,1.52.3,1.64-1.6,3.29-2.78,3.23-3.94-.22-5.18,2.58-7.07,5.09s-4.21,5.11-8,4.83c-2-.14-3.38.34-3.71,2.77-.76,5.5-4.24,9.93-7.21,14.12-2.31,3.26-1.05,7.62-4.27,10.08-1.82-.25-1.79-1.76-1.5-2.75,2.36-8.27,1.65-17.69,8.77-24.2a4.6,4.6,0,0,0,1.9-3.57c4-1.92,7.3-4.54,9.38-8.57Z" fill="#61594f"/><path d="M753.11,257.88c-.56-.78-1.13-1.55-1.9-2.61-1.48,6.29-1.88,12.6-3.59,18.74-1.61,5.78,1.84,12.3.31,18.64-3.74-3.35-.22-8.66-3.34-12.13-1.48-7.53-1-15.13-.61-22.69.42-8.77,0-17.51.24-26.44C750.24,239.15,752.07,248.37,753.11,257.88Z" fill="#615144"/><path d="M781.66,891.91l-2.33-2.45c-6.44-16.8-9.87-34.36-12.76-52.05,2.13-3,4.46-.21,6.7-.25,3.82-.35,5.72,1.32,5.45,5.28-3,4.3-2.38,8.7,0,12.91,2,3.48,3.15,7.31,5,10.87,1.25,2.44,2.34,5.26-2.24,6.28-3.85.85-1.53,3.54-.44,5a24.88,24.88,0,0,1,4.73,10.87c.32,1.75.94,3.56-.8,5C783.77,893.08,782.92,892,781.66,891.91Z" fill="#b3b7b5"/><path d="M817.17,388.57c.45,1.72.81,3.47,1.37,5.15,1.25,3.77,2.73,7.6-3.9,6.39-2-.36-2.42,1.1-2.79,2.38-.5,1.76.75,2.68,2.19,2.92,7.76,1.28,12.62,6.39,16.47,13.17-3.75-2.13-7.88-3.17-11.8-4.83-1.68-.71-3.63-2.41-4.14,1.17-.14.92-1,1.7-1.6,1.31-5-3.22-10.93,1-15.86-2.17a1.09,1.09,0,0,1-1.49,0c-.67-1.62-.06-3.22,1.43-3.24,5-.08,9.78-4.57,14-.8,1.6.45,1.12-.84,1.09,0,0,.2-.18.22-.53.14a11.48,11.48,0,0,1-1.7-.52c-6-2.14-6-2.14-5.65-7.47C809.79,398.8,813.21,393.42,817.17,388.57Z" fill="#715b4a"/><path d="M511.55,285.67c-4-10.89-.15-25.58,9.87-33.35-4.74,12.73-2,23.71,1.88,34.57a6.61,6.61,0,0,0,.41,2.33c.41,1.57,3,3.1.92,4.66-2.38,1.81-4-.6-5.32-2.19-1.81-2.1-4.22-3.66-5.58-6.15C512.85,283.91,512.26,285.33,511.55,285.67Z" fill="#c2a186"/><path d="M804.29,402.17l4.37,1.88c-.95,2.61-4.24-1.39-4.67,2.3,3.51,1.24,7.66,1.71,10.9,4.38-3.93.84-3.93.84-10.32-1.4-1.05,1.47,1.45,1.53,1.06,2.53-.64,1.63-2,.75-3,.57-2.51-.43-5.32-2.7-6.85,1.46-7.78,1.41-15.53-1.77-19.5-8-1.74-2.72-.17-4.45,1.71-6.13A37.25,37.25,0,0,0,804.29,402.17Z" fill="#a07f64"/><path d="M511.55,285.67c.22-2.15.3-4.46,3-1.4,2.86,3.28,5.83,6.46,8.91,9.86,2.1-3-3.1-4.81-.15-7.24,4.29,6.4,6.46,14.57,14.57,17.78-1,2.63-.75,5.23,1.09,8.75-6.67-4.36-8.88-11.61-16-14.82.57,2.67,3.49,3.61,2.6,6.54-2.62-1.88-5.42-2.6-8.1-.22C513.49,299.14,513,292.26,511.55,285.67Z" fill="#9a7b5e"/><path d="M778,399.77c-1.2,4.88,3.16,11,9.19,12.59,2.81.74,5.73,1,8.6,1.53l1.34.17c-6.12,4.57-12.78,4.74-19.66,2.23-2.37-.86-5.24-.88-4.77-5.27.49-4.62-5.55-2.42-7.17-5.38,6.19-2,7.38-4.76,4.82-11.12-1.08-2.69-.54-5.48-.56-8.23C771.36,391.49,772.55,397,778,399.77Z" fill="#594b40"/><path d="M679.32,669.69a3,3,0,0,0,.08-1.07c2.43-1.94,5.74-.87,8.27-2.47-.3.7-.47,1.88-.93,2-7.4,2.14-8.09,9.79-11.8,14.87-2.57,3.51.64,5.32,3.8,5.86,6.4,1.09,11.29,3.76,12.49,10.87,1.12,2.12,1.89,4.25,0,6.39-2.87.86-3.17-1.35-3.86-3.22-2.26-6.09-6.07-7.71-11.75-5-5.16,2.42-5.79,2.06-7.14-3.48s-1.47-10.6,3.19-14.76c1-.91,2.13-2.17,2-3.54C673.36,671.85,676.7,671.15,679.32,669.69Z" fill="#908578"/><path d="M835.18,290.19c-.08,2.91-.41,5.85,1.14,8.53.34,12.4-3.68,24-6,36-.75-20,.31-40.06-1.54-61.38C833.92,278.85,833.6,284.88,835.18,290.19Z" fill="#666157"/><path d="M889.83,452.37c-.66-1.46-3-1.38-3.13-3.48,2-1.29,3.85,1.33,6.34.34-4.27-3.24-5.39-7.58-4.94-12.9,6.31,2.89,10.39,7.58,12.22,15.55,1.87-3.68,1.17-7.1,3.65-9.06-.28,6.82,1,13.72-1.16,20.43A79.84,79.84,0,0,1,889.83,452.37Z" fill="#8d7964"/><path d="M748.06,820.05c7.27,2.79,14,2,20.68-2.24,3-1.87,6.86-3.65,10.68-2.38,3.08,1,4.3-2,6.83-2.47a102.68,102.68,0,0,1,15.6-1.48c2.3-.4,4.72-1.3,6.25,1.52a2.43,2.43,0,0,1-1.49,1.87,40.21,40.21,0,0,1-9.79,2.3,5.64,5.64,0,0,1-1.61-.43c-1.73-1.06-3.68-1.78-5.58-1.08-5.12,1.89-10.52,3.31-15,6.42-2.35,1.61-5.05,3.66-4.61,7.46.22,1.87-1,2.86-2.82,3.05a2.77,2.77,0,0,1-1.46-.67,6.46,6.46,0,0,0-5.82-4.56C756.68,823.7,751,824.16,748.06,820.05Z" fill="#494a49"/><path d="M706.72,380.4c-.4,1.72-1,4.17-3.11,2.81-3-1.87-8.79-1.25-7.55-7.51l3.34-7.42c2.77-4.34,2.76-9.47,4-14.26a37.85,37.85,0,0,1,1.19-4.63c.46-1.17,1.2-2.11,2.65-1.77,1.25.31,1.3,1.41,1.24,2.38-.17,3,.59,6-.46,8.89l-.3,4.66C706.47,369.12,708.24,374.85,706.72,380.4Z" fill="#3a3128"/><path d="M732.82,618.1a11.69,11.69,0,0,1,.08,1.18c-.27,7.12-.27,7.12,6.46,5.87,1.06,1.31-1.85,2.14-.63,3.35,7-.41,12.54-2.81,14.37-10.28,3.62-2.09,6.64.43,9.84,1.4.93.28,1.8,1.83,1.26,2.35-2.85,2.75-.33,6.85-2.6,9.65-1.65.58-2.72-.43-3.79-1.43v0c-1.57-1.81-.86-4.15-1.53-6.93a35.89,35.89,0,0,1-6.78,5.7c-6.94,2.8-14.68,2.32-21.62,5.54-2,.93-3.89-2-4.58-4.39h0c3.34-.79,5.36-3.23,7.19-5.91C730.61,621.91,730.2,619.41,732.82,618.1Z" fill="#978165"/><path d="M907.12,986c.88-19,9.56-34.65,19.07-50,1.41,5.58-.21,14.6-3.29,18.12-1.64-.79.16-2.72-1.26-3.68C913.05,960.69,914.4,975.21,907.12,986Z" fill="#684c3e"/><path d="M893.4,932.8c.65,1.22,1,1.49,3.83,2.43,1.31.45.72,1.55.78,2.35.45,5.39.26,10.94-2.14,15.71-4.23,8.39-.58,16.81-1.07,25.17-.63,1.36-.32,3.19-2,4.13a38.22,38.22,0,0,1-1.63-27.94c2.48-6.43,1.92-13,1.16-19.66a1.18,1.18,0,0,0-.08-1,.7.7,0,0,1,.33-1.19A8,8,0,0,1,893.4,932.8Z" fill="#6c5445"/><path d="M854.21,478.89a120.59,120.59,0,0,1-29.77,30,3.44,3.44,0,0,1,1.38-4.17c5.5-4.11,7.36-10.25,9.47-16.46,1.84-5.42,0-7.32-5-7.87a8.34,8.34,0,0,1-2.52-1.31,15.72,15.72,0,0,1,9.71,2.26c2.56,3.21.89,6.55.13,9.85.79-1.92,2.47-3.08,3.47-4.74,3.63-2.56,4.95-7.49,9.31-9.32A4.66,4.66,0,0,1,854.21,478.89Z" fill="#796452"/><path d="M648.56,351.77c1.87,2.43,4.64-2.84,6,.48s-1.17,6-3.44,8.17c-2,1.88-5.86,1-6.86,4.55-3-1.84-6.07-3.44-8-6.71-1.49-2.47-3.66-4.53-5.53-6.77,2.69.61,5.5.91,8,1.91A8.92,8.92,0,0,0,648.56,351.77Z" fill="#a28365"/><path d="M767.58,836.47c2,9.88,4.51,19.7,5.88,29.67,1.12,8.06,6.67,14.87,5.87,23.32a65.74,65.74,0,0,1-8.43-22.18c-2.27-11.86-4.67-23.68-7-35.52a1.57,1.57,0,0,1,2.27.17h0C767.37,833.2,768.71,834.44,767.58,836.47Z" fill="#b3b7b5"/><path d="M708,358.89V348.67l-1.64-.08c-1.44,5.18-3,10.33-4.26,15.54-.45,1.8-.58,3.55-2.68,4.15,2.17-11.68,4.3-23.36,6.57-35,.31-1.57.16-4.26,2.43-4.1s1.81,2.85,1.84,4.41A116.35,116.35,0,0,1,708,358.89Z" fill="#58534c"/><path d="M884,620.34l-.18,2.66a2,2,0,0,1-2.5.16c-2.58-5.76-2.69-12.15-5.64-18-3.49-7-7.61-12.91-13.49-17.78a6.47,6.47,0,0,1-2.47-3.26c.08-1.66.51-3,2.52-3.08,12.07,8.19,18.56,19.81,20.58,34.18C883,616.93,883.56,618.63,884,620.34Z" fill="#3b3733"/><path d="M598.58,813.94c4.68-3.75,9.76-.79,14.64-.72,1.36,0,3.25,1.67,2.6,3.34-.79,2-1.77,4.55-4.76,4.51-3.72-.05-7.19,1.94-11,1.34a3.38,3.38,0,0,0-3.81,2.15l-8.41-3.48c1.19-3.77,4.38-2.86,7.1-3.15,3.56-.39,7.36.79,11-1.43C603.57,814.48,600.4,816.23,598.58,813.94Z" fill="#797b78"/><path d="M596.07,770.82c-5.18-5.78-9.9-11.81-6.88-20.32.71-2-.16-3.91.31-5.71,1.19-4.5-2.28-.69-2.94-1.78.68-1.5,2.11-2,3.44-2.55,3.71,0,6.2-.3,4.14,5.46s-2.91,12.63,1.44,18.34c1.31,1.72.87,3.28.65,5A1,1,0,0,1,596.07,770.82Z" fill="#61615d"/><path d="M862.2,581c-.72.79-1.43,1.58-2.15,2.36-3.21.48-5-2.06-7.07-3.69-3.3-2.6-7.08-4.32-10.52-6.65a8.37,8.37,0,0,0-6.3-2.62c-2.3,0-4.82,0-6-2.72.21-1.3-.13-2.84,1.47-3.55,2.31,4.19,6.54,1.39,9.83,2.55A48.72,48.72,0,0,1,862.2,581Z" fill="#595149"/><path d="M856,990.27l-3.48,8.14c-2.59-13,3.69-23.67,4.07-35.12,1.51,5.89.74,12,2.57,17.72C860.43,984.91,858.49,987.69,856,990.27Z" fill="#5f483a"/><path d="M886.2,975.5l.33,17.8c.21,1.26.81,2.75-1.47,2.54-1.16-6.3-4.48-11.82-6.27-17.89-.49-2.07-3.63-2.58-3.06-5.29,1-3.37-.26-7.89,4.47-9.5,3,4.24,1.12,9.51,3.23,14C884.23,976.87,884.45,974.72,886.2,975.5Z" fill="#71594a"/><path d="M615.2,285.52c-3.84-3.22-4.58,1.35-5.43,2.83-2.47,4.32-3.76,2.57-5.29-.43q1.21-3.59,2.41-7.17c4.18-1,5.51-4.75,7.49-7.86,1.21-1.9,1.57-4.44,3.88-5.71,1.63,1.82,1.06,3.54.66,5.24C618.45,277,617.79,281.55,615.2,285.52Z" fill="#a6988c"/><path d="M598.58,813.94c2.17,0,4.33-.11,6.49,0,1.27.05,3.18-.62,3.51,1.19s-1,3.16-2.92,3.79c-3.77,1.24-7.65.82-11.39.49a8.44,8.44,0,0,0-6.44,1.7c-1.58-.69-2.61-1.74-2.32-3.65C590.47,818.57,594.05,814.42,598.58,813.94Z" fill="#9c9f9c"/><path d="M618.92,272.42l-.48-3.53c-1.86,5.68-6.87,9.37-8.85,14.85-2.05-.2-1.25-2.54-2.7-3A27.39,27.39,0,0,1,613,268.89c1.44-1.69,2.3-4.95,5.2-3.24C620.78,267.18,620.29,270,618.92,272.42Z" fill="#ccc4b9"/><path d="M979.12,865.13c-1.91,4-1.13,8-.43,12.11.5,2.84,1.57,5.71-.56,8.36-1.64-2.91-1.78-6.24-2.63-9.38-2.34-1.73-2-3.92-1-6.22.07-2,.14-3.91.2-5.87.75-1.42.42-3.8,2.76-3.84,1.5,0,1.1,1.78,1.73,2.65Z" fill="#86553f"/><path d="M995,814.06c.55,7.55-.37,15-1.46,22.44-1.63.45.32-5.58-3.16-1.78-.32.35-.91,1.09-1.08,0-.23-1.53-.83-4.14-.27-4.46,4.11-2.3,2.72-6.29,3.39-9.63Z" fill="#7c513c"/><path d="M680.56,255.49a152.37,152.37,0,0,1-8,28.35c-.53,1.29-.7,2.74-2.52,2.75,3.57-9.19,5.87-18.78,8.57-28.24C678.92,257.3,679.9,256.44,680.56,255.49Z" fill="#bdb2a3"/><path d="M871.21,987.53c.56-2.91,1.11-5.81,1.69-8.81,2.92,4.07,2.33,7.29-3.22,18-1.57-.93-1.42-2.71-2-4.11C867.28,989.81,869.89,989.13,871.21,987.53Z" fill="#998572"/><path d="M781.66,891.91c1.39-.72,2.41-.72,2.39,1.27a16.93,16.93,0,0,1,4.59,11c.05,1.54.1,3.08.14,4.62C785.59,903.5,782.56,898.16,781.66,891.91Z" fill="#b3b7b5"/><path d="M883.84,267.49a59.6,59.6,0,0,1-2.26-20.62A61.36,61.36,0,0,1,883.84,267.49Z" fill="#75716a"/><path d="M971,882.42c3.9-1.14,2.52,2.17,2.48,3.48-.08,2.54-.73,5.13-3.71,6.06A23.42,23.42,0,0,1,971,882.42Z" fill="#6b5a4f"/><path d="M562.73,774.14A69.71,69.71,0,0,0,564,792.43C560.36,786.55,559.77,780.47,562.73,774.14Z" fill="#393837"/><path d="M744.65,280.54c-.33,7.26,1.4,14.61-1,21.76C743.94,295.05,743.07,287.73,744.65,280.54Z" fill="#615144"/><path d="M706.72,380.4c.64-5.6-1.4-11.35,1-16.85q0,8.4-.07,16.81l-.45,0Z" fill="#58534c"/><path d="M766.15,831.93l-2.27-.17c-.55-2.19-2.73-2.88-4-4.4C764,826.09,766.54,826.93,766.15,831.93Z" fill="#7a756e"/><path d="M730.49,624.19c-.94,3.78-3,6.14-7.19,5.91Z" fill="#b19980"/><path d="M616.36,369.54c-3.79-3.44-7.71-6.67-13.07-7.2-2.81-1.47-6.16-2.77-7.55-5.5s-2.15-.4-3.17-.47c-7.42-4.22-15.91-6.4-22.56-12.09,6.24,2.18,13.23-.32,19.65,3.36-2.43-3.68.7-6.53.8-9.79.07-2.29,1.86-1.59,2.72-.18.67,1.08.89,2.44,1.84,5.26,2.42-6.34-4.3-10.08-1.75-14.8,2.89.36,1,5.93,5.24,4.19,1.18,1.34,5.11,1.67,1.15,4.75-1.69,1.31-2.74,4.51,1.86,4.13,1.71-.14,1.52,1.37,1.85,2.47.74,2.49,2,4.1,4.58,1.86,1.54-1.37,2.61-.59,3.48.52,1.65,2.11,2.58.26,3.75-.5.14,3.22,3.1,4.39,4.66,6.58.8,1.13,3.07,2,1.41,3.74-1,1.07-2.79.65-3.75-.43-2.33-2.64-5.89-2.61-8.45-4.52-.19,9.88,7.14,13.59,13.89,17.68,1.84,1.12,3.27,2.17,2.91,4.57Z" fill="#544537"/><path d="M751.89,366a13.85,13.85,0,0,1,2.28,1.79c1.13,1.32,2.34,2.72,1.82,4.66-.08.3-1,.62-1.52.51-2.5-.55-2.57-2.58-2.57-4.61V366Z" fill="#5d4a3b"/><path d="M898.14,725a6.83,6.83,0,0,0,5.94,2.4c-.17,4.58-3.36,8.66-2,13.57a3.13,3.13,0,0,1-2.23,3.25c-5.3.85-4.3,4.85-4.56,8.32,6.66.7,8.05,2,8.93,8.69.31,2.37.22,4.8,1.71,6.87,1.92,2.65,1.08,4.3-2.48,4.7,2,1.48,3.7,2.11,5,3.38,2.12,2.12,3.76,4.54,1.41,7.31s-5.33,3.65-8.36,1.08c-2.67-2.27-5.14-5.27-8-.39-1.83,3.17.27,8.46,3.72,10.25,1.65.85,2.43-.38,3.65-.91,6-2.66,9.24-8.58,14.25-12.4,2.68.63,5.16,2.14,8,2,2.89,1.23,5.53,1.8,6.46-2.4a2.17,2.17,0,0,1,1.27-1c4.92,1.15,3.48,4.83,3.08,8-.51,4.11-2.66,7.87-6.74,7.67-5.3-.26-7.26,2.47-8.88,6.49-3.48,1.35-6.94,2.37-7.64,7.19-.22,1.52-3.22,3.75-4.9,3.71-4-.1-8.18,5.64-12.07-.14a1.16,1.16,0,0,0-2,.19c-2.1,4-7.25,5.92-7.39,11.08-.17,6.11-4.87,9.7-7.56,14.4-.77,1.34-2.74,2.89-3.86,1.42-1.82-2.37-5.34-3-6.1-6.14-.21-.9,1.18-1.33,2.13-1.71a21.49,21.49,0,0,1,8.35-1.28c-.93-3.2-1.39-5.5-5.21-3.28a17.94,17.94,0,0,1-9.63,2.19c-2.78.35-5.73.75-6.85-2.72-1-3,.45-5.3,3-7,1.3-.84,2.89-1.81,1.59-3.72-1-1.5-2.54-1.68-4.16-.91-2.07,1-4,2.65-6.53,1.21.06-5.31,4.39-7,7.93-9.13a30.65,30.65,0,0,1,7.74-2.84c3.61-1,7.22-1,7.53-6.65.18-3.1,4.7-3.71,7.59-4.86,2.56-1,4.93-2.06,3-5.52-3.4-6,.37-11.44,1.62-17,.19-.87,1.42-1.29,2.51-.92,2.67-4,.92-7-2-9.92-1.27-1.29-5.06-3.33.21-4.63,1.78-.43,1.85-1.88,1.56-3.34a2.31,2.31,0,0,0-1.89-2c-1.45-.2-2,.89-2.54,2-2.07,4.25-3.89.71-4.26-.68-1.3-5-1.36-10.27,2.75-13.88,3-2.59,6.1-5,8.85-7.81A15.61,15.61,0,0,1,898.14,725Z" fill="#5c3d2f"/><path d="M873.16,862c-.87-.19-2-1-2.29.58-.44,2.85-.23,6,2,7.81,8.11,6.61,5.92,14.19,2.51,22-.91,2.06-1.41,4-.42,6.14.61-.17,1.12-.16,1.27-.38.91-1.42.24-3.76,2.47-4.38,1-.28,1.26.61,1.6,1.33a3.59,3.59,0,0,1-1.12,4.74,2.8,2.8,0,0,0-.74.93c-.9,1.92-3,4.44-.95,5.89,2.8,2,2.07-3,4.74-3.47-1.21,7.34,1.77,14.51-.91,21.57-2.39-2.26-2.39-2.26-3.71-5.62-.23-.77-1.12.33-.45-.1.14-.08.27.06.38.44a56.93,56.93,0,0,1,1.37,25.36c-.41,2.3-1.16,4.67-3.24,6.21-2.62,0-2.74-2.25-3.53-3.91-.63-8.3-3.69-16.11-5-24.27,0-6.21.63-12.24,4.78-17.32a1.81,1.81,0,0,0-.53-3c-3.59-1.67-3.8-4.93-3.7-8.13.22-6.5-4.86-11.31-5.24-17.57a2.2,2.2,0,0,1,.07-1.18c4.19-6.86,0-12-3.44-17.34-1.16-1.91-1.3-4.11-1.87-6.2-.71-2.64-1.79-5-4.51-6.48-7.77-4.16-14.55-9.42-17.87-18.1,3.1-3,6-1.18,8.32.89s4.16,3.31,6.93.59c2.16-2.12,4.21-1.31,5.91,1.11a32.1,32.1,0,0,1,4.1,7.85c1,3.58,5.19,5.66,4.32,10.39-.28,1.49,2.3,3.49,4.6,4C878,854.12,878,854.12,873.16,862Z" fill="#7a624d"/><path d="M860.09,837.9c-1.13-1.34-2.56-2.53-3.31-4.06-2.42-4.87-4.93-6.66-8.78-1.22-1.4,2-2.55.76-3.47-.85-2.09-3.64-5.39-4.91-9.4-4.66-5.87-1.63-12.24-2.19-16-8.2-1.55-2.51-3.8-2.86-6.65-2-2.59.78-5.63,1.38-6-2.95.42-.43.84-.86,1.27-1.28-.23-4,3.2-3.82,5.5-4.76a19,19,0,0,1,6.74-1.6c8.61-.05,11.92,1.8,18,9.41,3.19,4,7,1.93,10.58.53l.83,0c2.24-.58,4.39-1,6.26-2.83,2.83-2.71,4.93.35,6.71,1.88s.94,3.77-1,4.88c-2.35,1.32-5.29,1.77-4.79,5.67s4.7,1.2,5.93,3.62C863.18,832.74,859.39,834.67,860.09,837.9Z" fill="#665141"/><path d="M918.35,801.88c0-8,.14-8.09,7.84-7.48,3.85.3,5.57-2.77,6.15-5.23.67-2.83,3.15-7.1-2.1-8.9-3.12-3.46-.51-6.41,1.31-8.87s4.76-4.4,8.21-1.94h3.55c1.39,6.42.22,11.8-6,15.19-.5.28-1.27.88-1.22,1.23,1,6.9-7.68,10.46-6,17.62.13.54-.68,1.31-1.06,2-1.2-.75-1.26-2.46-2.59-3.22-1,1.61,1.26,2.93.2,4.41-2.49,1.4-3.83-.24-4.44-2.16C921.55,802.37,920.34,801.71,918.35,801.88Z" fill="#674636"/><path d="M926.67,806.68c-.09-.18-.19-.35-.26-.53-.65-1.89-3.95-2.55-2.51-5.36a2.2,2.2,0,0,1,2.52-1.1c3.22.81,2.49,3.52,2.64,5.8A2.43,2.43,0,0,1,926.67,806.68Z" fill="#5c3d2f"/><path d="M881.62,622.84l2.15.86c-.11,5.41.85,10,7.12,12.12,2.41.79,3.33,3.36,1.21,5.89-.78.94-1.42,2.09-.52,3.23s2.21.69,3.21.06c3.47-2.19,4.47.26,5.47,2.84,1.39,3.61,2.84,7.91,1,11-2.88,4.89.45,5.13,3.21,6.29,5,2.1,9.51,5.22,15.11,6.22,3.84.69,4.95,4.82,5.76,8.38.46,2,.12,4.1.57,6.26.75,3.58-2.55,4.4-5.54,4.08a51,51,0,0,1-8.68-1.58,4.49,4.49,0,0,0-4.82,1.29c-1.06,1.05-1.63,3.22-3.62,2.12-1.55-.85-1-1.64-.76-2.59a1,1,0,0,0-1.31-1.16,3.73,3.73,0,0,0-2.67,3.07c-.8,3.34.23,5.15-4.13,4.78-3.85-.32-.79,3.67-3.19,5.61-4.56-7.48-9-1.4-13.1.73-3.14,1.62-5.35,2.63-8.37,0-3.2-2.77-5.67-.55-7.13,2.25-3.15,6.1-8.32,6.47-14,5.49-2.74-.47-5.86-1.94-7.13,1.63-1.17,3.24,1.61,5.63,3.88,7.13a29.1,29.1,0,0,1,7.6,7.36c.33.27.44.54.32.81s-.22.4-.33.4c-2.62-2.13-5.36-3.2-8.76-1.72a8.42,8.42,0,0,1-4.07.33c-1.92-.19-3.7-3.74-5.72.25-1.48,2.93-1.8,5.24,1.45,7.83-6.43-1.16-11.13,4.69-17.75,2.46-3.52-1.18-5.2,3.37-7.31,5.82-.09.1,0,.4.07.58,3.07,6.57-6.58-1.83-4.94,4.37.81,3-1.23,3.43-6.78.35-7-3.92-15.26-1.83-20.2,5a15.81,15.81,0,0,1-2.66,2.34c-3.66,3.17-6.28,6-1,10.51,2.73,2.32,5.32,6.22-1.76,7.79-3.59.79-2.59,6.88-1.82,7.19,5.17,2.09,1.69,7.74,4.82,10.51a2.1,2.1,0,0,1-1.28,3.31c-2.46.38-5.59,1.39-7.1-1.24-1.26-2.19-2.42-2.47-4.55-2.16s-4.29-.29-4.41-2.84c-.32-6.88-3.41-6-7.53-3.06-.4.29-1,.22-2.61.5,3.75-4.27,2.78-8.46-.83-10.18-3.83-1.83-8.23-5.61-13.07-1.57-.45.38-1.08,1.11-1.42,1-7.41-2.3-13,.94-19.29,4.61-1.84,1.08-7.87-1.1-12.13-1.51-5.61-.53-11-1.05-16.6-.25-1.64.23-3.44-.66-5.17-1,4.4-6.43,11.15-5.83,17.57-5.76,2.27,0,4.57.89,6.92.74,3.12-.38,6.21-1.33,9.38-.29,2.27.74,3.64-.48,5-2.19,3.21-4,7-4.27,12.09-3.27,8.58,1.68,17.47.89,26.14-.58,2.8-.48,3.2-2.68,1.4-5a25.24,25.24,0,0,1-3.22-4.28c-1.32-2.71-1.1-5.24,1.76-6.61,2.32-1.1,4.5-1.62,2.15-4.84-.93-1.27.37-2.52,1.7-3.71a20.07,20.07,0,0,0-8.68-1.43,16.5,16.5,0,0,1-7-1.14c-2.06-.88-5.35-1-4.92-4.17.46-3.4,3.59-3,6.69-2.92-3.55-4.12-2.84-9.5-5.23-13.8-1.14-2-.62-3.92,0-5.88,3.49-7,7.72-8.77,14.22-5.82,2.49,1.13,4.37,2.74,4.49,5.74a6.88,6.88,0,0,0,1.35,4.48c2.11,2.4,3,5.94,5.62,7.61,3.28,2.05,4.84-2.55,7.71-2.94,4.55-.6,9.51-3.06,11.7,3.9.64,2,2.5,1.6,3.92.51a23.7,23.7,0,0,0,4.38-4.83c4.29-5.76,7.39-6.07,12.72-1.45,1.53,1.33,12,2.5,13.75,1.57,1.09-.6,1.37-1.53.67-2.43-2.13-2.76-2-6-2-9.15a4.5,4.5,0,0,0-2.55-4.35,21.89,21.89,0,0,1-5.06-4.1c-6.15-6.16-6.18-6.13.62-11.58,2.25.3,2.83,2.09,3.06,3.87.55,4.12,3.25,5.62,6.73,4.94,12.37-2.42,25.09-.37,37.4-3.23a27.7,27.7,0,0,1,10-.51,4.6,4.6,0,0,0,3.94-.8c.77-.67,1.49-1.52,1.05-2.57-.52-1.26-1.59-.68-2.53-.44-2.45.62-5.72,3.88-7.17.23-1.39-3.48,2.71-5.19,5.35-6.74,3.62-2.13,7.38-3.47,11.85-2.8,5.69.84,9.76-5.75,8.47-11.32-2.19-9.46-9-16.75-11.11-26.24a45,45,0,0,1-1.19-10.52C880.07,629.27,878.93,625.7,881.62,622.84Z" fill="#3c3028"/><path d="M823.24,800.7c-4.87,2.08-10,4.2-14.93,5.12-6.51,1.22-14.36,5.54-20.26-2.6-1.83-2.53-5.22-1-7.9-1.34-1.13-.13-2.71.14-2.64-1.56,0-1.33,1.34-1.81,2.6-2,4.19-.47,8.69,1.18,11.78-4.17,1.35-2.34,4.66.08,6.12,2.46,1.11,1.83,2.33,3.71,4.61,2.21,2.77-1.81.23-3.21-.72-4.81-1.73-2.91,1.55-8.41,6.75-8.57,6.36-.2,5.71-5.77,8.22-8.64s5.65-6.5,3.32-11.33c-.49-1-.84-3.06-.37-3.4,5-3.62,5.8-10.43,10.41-14.05,2-1.58,3.43-1.93.91-4-.78-.64-1.69-1.28-.91-2.38.67-.94,1.67-.84,2.66-.36a12.22,12.22,0,0,0,3.25,1.42c2.73.42,6.34.11,7.65,2.35,1.43,2.43-2.36,4.23-3.1,6.5-1.41,4.32.81,7.68,4.31,10.09,5.73,4,5.84,5.42.65,9.9-1.18,1-2.71,2.22-3,3.58-1.34,5.91-5.06,10.25-8.7,14.7C832.88,796,828.79,799.09,823.24,800.7Z" fill="#1e1a17"/><path d="M823.24,800.7c3.81-3.36,8.2-6.13,10.69-10.82,4.74-1.94,8.37,1.18,11.83,3.29,4.28,2.6,6.63,1.3,8.54-2.52,1.33-2.65,3.12-5.12,3.44-8.21.19-1.78,1-3.1,2.91-3.19,1.58-.07,2.51,1,3.06,2.42,1.27,3.16,1.62,8.7,6.08,1.85,1-1.57,2.87.28,4.27.8,1.12.41,2.28,1.12,3.25,0a2.14,2.14,0,0,0-.48-3.18c-3.28-2.48-3.68-7-6.84-9.57-.69-.56-1.52-1.87-1.31-2.5,2.88-8.87-3.35-14-7.78-19.91-4.83-6.42-6-14.21-7.95-21.7,0-.4,0-.81,0-1.21.85,5.29,5.49,8.24,7.71,12.7a3.07,3.07,0,0,0,2.33,1.52c10.06-1.31,10.71,6.68,12.6,13.14,1,3.46,3.44,5.27,6.13,6.84,3.53,2.07,5.73,4.77,5.71,9-3.16,3.8-4.51,14-2.41,18-5.32,6.92-12.22,13.25-19.43,16.5-7.48,3.36-17.3,2.35-26.08.53a3.91,3.91,0,0,1-2.12-1c-3.54-3.91-7.25-3-11.08-.57a4.17,4.17,0,0,1-2.29.49l-.81-.36C823.23,802.29,823.23,801.49,823.24,800.7Z" fill="#423027"/><path d="M705.52,773.06c-5.11,1.35-10-2.43-15.4-.25-3.16,1.28-6.54,2.14-9.57,3.86-2,.28-4,1.51-6.17,0-1.47-1.08-2.77-1.13-3.59,1.09-.66,1.77-2,1.27-3.39.48-3.71-2.14-5.09-1.25-4.58,3.8.64,6.4-2.27,9.86-7.88,11.85-1.53.54-3,1.12-4.57.75-4.91-1.18-9.47-1-13.45,2.65-1.81,1.64-4.13.9-6.23,1.13l-1.24-.08c.94-4.48,5.42-4.65,8.25-6.78,2.57-1.93,5.26-3.27,1.27-6.48a5.06,5.06,0,0,1-1.34-6.06c1.92-4.54,1.15-9.77,4.28-14.15,1.33-1.85.08-5.33-.2-8.06-.21-2.06-.37-4.18,2.14-4.92,2.24-.67,3.61.65,4.95,2.36,2.14,2.71,2.77,6.83,6.85,7.79a58.71,58.71,0,0,1,26.24,6.59c.77.38,1.42.79,2,0,3.32-4.59,7.35-2.21,10.61-.51,5,2.62,8-.42,10.84-3.26s2.47-6-.31-9c-1.25-1.33-2.09-3.07-1.15-4.93,1-2,3-1.77,4.72-1.4,3,.66,5.67-2,8.7-.83a2.53,2.53,0,0,1,.81,2.32c-.32,1.43-1.39,2.39-2.14,3.55C714.77,762,709.74,767.31,705.52,773.06Z" fill="#4c443d"/><path d="M820.86,807.88c-4.89.14-10-.34-13.07,4.8l-5.94-1.2,21.37-8.4,0,0c1.43,1.86,0,2.79-1.23,3.76A10.1,10.1,0,0,0,820.86,807.88Z" fill="#423027"/><path d="M652,397.14c16.94,8.5,34.67,15.19,52.05,22.68a10.37,10.37,0,0,0,2.93.37A93.28,93.28,0,0,0,728.54,431c4.56,3.22,10.06,4.15,15.28,6.38-1.4-1.12-3-1.87-3-3.83,1-2,3.17-1.92,4.91-2.6l6.17,2.18a4.89,4.89,0,0,0,2.25,1.83c3.36,1.17,9.15.51,4.52,7.18-.93,1.34,1.53,3.46,3,4.64,2.78,2.24,3.88-1.63,6-2,.6,0,1.44-.1,1.7.3,2.63,4,7.34,5.94,9.87,10-1.55,1.58-3.63,2.14-5.35,1.08-5.41-3.33-11.5-2.91-17.38-3.73-17.69-1.81-33.21-9.69-49-17.28-8.84-4.26-17-10.56-27.52-10.9-1.09,0-2.06-1.77-3.21-2.51-2.57-1.68-3.61-6.71-8.43-3.67-1.13.72-2.06-1.54-2.92-2.55-4.66-5.44-10.17-9.84-15.81-14.21-4.15-3.22-9.61-1.23-13.63-4.75-5.87-5.15-12.64-9.23-17.7-15.49C630,385.66,640.4,392.74,652,397.14Z" fill="#5f4b3e"/><path d="M779.24,454.82c-6-.58-7.59-6.83-11.9-9.6a3.82,3.82,0,0,1-3.06-3.22,2.35,2.35,0,0,1,.86-2.64c.77-.53,1.5,0,2.22.25a2.53,2.53,0,0,1,1,.64q7.81,9,17.86,2.67c4.85.4,9.75.4,14.53,1.3a11.77,11.77,0,0,0,8.41-1.46c11.73,3.56,24,5.38,35.21,10.56,1.25.57,2.55,1,3.82,1.52,1.14,6.26.33,12.12-3.6,17.31-6.22,3.29-10.83-1.27-15.88-3.43-3.1-1.32-5.49-3.84-8.35-5.64-6.49-4.08-14.23-3.93-21-7a10.55,10.55,0,0,1-1.13-.07c-5.27-.56-10.56.59-15.84-.18C781.28,455.66,780.1,455.82,779.24,454.82Z" fill="#6c5445"/><path d="M799.4,456.07c10.49.15,19.76,3.23,28,10.19,4.39,3.7,9.67,6.82,16.07,5.39,2.11,2.33.7,4.75.19,7.16-.57,2.78-2.6,5.3-1.46,8.38l-6,7.56c-.09-5.19,2.11-9.2,1.34-13.44,2.19-5.86-.71-8.2-5.94-9.81-4.23-1.29-8.11-3.74-12.2-5.55-2.79-1.23-4.94-3.9-8.9-2.15-2,.88-4.68-1.77-6.17-3.72S801,457.42,799.4,456.07Z" fill="#554336"/><path d="M779.24,454.82c6.37,0,12.8-1.19,19,1.18-9.63.7-19.16,4.55-28.93.08-4-1.82-8.49-2.45-12.75-3.62,5.72.23,11.73-2.33,17,2.27C775.05,456,777.34,455.25,779.24,454.82Z" fill="#554336"/><path d="M579.52,764.7a7.51,7.51,0,0,1,1.77-1.5c1.54-.65,1.52-3.57,4.06-2.73a5,5,0,0,1,3.25,5.21c-.35,3.81,1.47,5.91,3.73,8.47a27.66,27.66,0,0,1,4.82,8.83c1.46,4.06,4.25,6.47,7.77,8.42,1.54.85,3.62,1.59,4.31,3,2.55,5.11,7.14,5.75,11.88,6.34-4.32,2.93-8.13,2.17-12.27-.89-3.93-2.91-7.65-6.24-12.3-8.14a4.56,4.56,0,0,1-2.76-4.9c.43-4.4-3.13-5.88-5.87-7.34-3-1.61-4.24,1.58-5.91,3.52-2.43,2.83-5.56,5-7.25,8.54a2.44,2.44,0,0,1-3.48,1.34c-.82-.46-1.88-1.08-2.13-1.86-.64-2,1.33-1.9,2.39-2.64,6.05-4.19,9.83-10.34,12.83-16.79C587,765.88,586,764.88,579.52,764.7Z" fill="#312923"/><path d="M798.24,550.88c4.24-6.39,7.61-13.31,12.43-19.38,2.09-2.63,6.65-4,5.05-9.82-.71-2.63,5.58-6.08,8.93-7.4,4.16-1.64,8.17-2.43,10.11-7,.65-1.51,1.48-2.77,3.23-3.21a5.26,5.26,0,0,0,4.28-5.06c.12-1.5.78-3,2-3.46,9.11-3.46,12.82-12.31,18.41-19.12,3-3.66,7.16-2.14,10.26-4.45,1.55-1.15,3.71-1.34,3.66-3.92,8.4,2.21,9.64,10.17,12.87,16.49.63,1.24.62,3.05-.64,3.88-4.86,3.25-9.15,8.32-16.07,5.69-.37-.14-.73-.3-1.11-.42-4.48-1.3-5.19,3.28-7.77,4.89-3,1.89-2.79-5.88-7.69-3.24-5.3,2.85-6.65,7.26-2.33,11.72,2.28,2.35,3.68,4.57-.35,7.09-3,1.88-3.81,6.68-8.41,6.8-1.57,0-3.4,1.81-4.28-1.12a1.23,1.23,0,0,0-2.3-.34c-4,6.42-12.78,8.64-14.6,17.23-.57,2.71-3.38,4.64-6.31,5.87-5.12,2.16-8.73,5.57-8.95,11.81-.11,3-3.51,3.77-5.36,5.58-.73.72-2.25-.34-3.08-1.2s-.15-1.85.51-2.58C804.35,552.3,801,551.75,798.24,550.88Z" fill="#2c241c"/><path d="M830.15,567.69c2.27,1.32,4.77,1.36,7.27,1.21a6,6,0,0,1,6.05,3.58c-3.14,2.3-6.28-1.72-9.42,0-7.28,3.3-11.21,9.62-14.56,16.46-1.48,3-2,6.45-3.54,9.46a31.56,31.56,0,0,0-3,11.28c-.21,2.09.2,4.39-1.64,6-1.94,0-3.31-1.7-3.05-3,.94-4.72-2.28-9.19-.54-13.86-1.4-1.78,2.08-4.49-1.12-5.93-2.17,1-3.74.37-3.37-2.11s1.87-3.84,4.69-2.85,5.86,2.26,7-2.26c2.57-5.87,8-9.66,10.81-15.36C826.66,568.49,828.86,568.89,830.15,567.69Z" fill="#3e3835"/><path d="M785.16,444.14c-1,1.69-4.14.17-4.36,3.68-.12,1.86-2.83.76-4.4-.1a49.66,49.66,0,0,1-10.75-8c-1.44,2.8,1.24,3.75,1.69,5.5-.63,2.48-2.43,5.09-4.57,4.35-3.26-1.13-5.25-4.68-6.76-7.7-1.09-2.18,2.53-2.26,4.32-4.07-3.45-1.07-8.32.84-8.38-4.7,5.62.12,11.07,1.34,16.53,2.54,2,1.84,4.06,2.63,6.09,0,2.41,0,5-1.08,7,1.16-.14.88-2.72.52-1.12,2.31S784.52,441.6,785.16,444.14Z" fill="#554336"/><path d="M854.21,478.89c-1.4-.08-2.91.13-3.74-1.45.36-5.69-.83-11.4.25-17.09.52-2.73,1.37-4.63,4.61-3.29,6,2.68,12.5,4.28,17.6,8.76C865.18,468,859.2,472.7,854.21,478.89Z" fill="#8c6e55"/><path d="M855.33,457.06c-1.16.26-2.6-.6-2.9,1.82-.53,4.16-1.08,8.35-.46,12.45.38,2.49-.42,4.23-1.5,6.12-3,3-4.46,7.41-8.28,9.74-3.3-.51-1.89-2.48-1.42-4.33,1-3.72,3.09-7.16,2.69-11.21,4.15-4.87,2.5-11.39,4.72-16.81C850.57,455.56,853.19,455.51,855.33,457.06Z" fill="#382d24"/><path d="M774.57,435.65c-.09,1.08,2.06,2.89-.53,3.09-2.22.18-5.39.95-5.56-3.1Z" fill="#282019"/><path d="M916,781.49c-4,6.59-11.15,10-15.9,15.86a1.62,1.62,0,0,1-1,.49c-1.42.13-8.95-7.87-8.37-9.57,1.06-3.16.18-7.69,5.54-8.48,2.58-.38,3.53.42,4.67,2.28s2.67,3.67,5.31,2.47c1.6-.73,3.59-1.31,3.62-3.51,0-2.51-2.08-3.7-3.78-5-.6-.46-1.54-.42-2.21-.81-1.74-1-4-2.38-2.91-4.5,1.33-2.61,2.77,1.47,4.91.26-2.61-2.65-2.85-6.05-3.15-9.69-.33-3.84-.56-9.15-7.35-6.46-1.89.75-4.2-.73-2.28-2.77,3-3.22.11-5.45-.46-7.95,1.37-1.58,2.61-.48,3.89-.18,3.3.76,5.31-2.84,4.62-3.89-3.73-5.64,1.43-8.59,3-12.6,2.82-1.38,6.14-.35,9-2.2,1.47-.94,3.26.38,4.08,2.19-1.72.11-1.88,1-1.19,2.37,1.44,2.82,1,5-2.23,6-1,.29-2.12.4-2,1.67.11,1,1.06,1.55,2,1.89a12.55,12.55,0,0,0,5.21.31,3.77,3.77,0,0,1,3.8,2.33c.66,1.62.25,3.69-1,4.38-3,1.69-4.32,4.79-6.61,7-1.29,1.23-3.37,1.3-1.55,3.71,1.07,1.42-.18,2-1.2,2.68-3.28,2.24-3.13,7.73.13,9.88,1.59,1,2.07-.08,2.62-1.11,1.35-2.48,2.94-3.83,5.51-1.44,1.59,1.66,5.36,1.79,4.15,5.4-1,3-3.67,3-6.32,2.81C911.43,774.64,917.53,779.71,916,781.49Z" fill="#674636"/><path d="M916,781.49a27.53,27.53,0,0,0-1.73-2.36c-1.23-1.38-2.49-2.76-1.1-4.66,1.24-1.71,3-1.6,4.78-1,2.12.77,4.37,1.51,5.77-.87,1.88-3.2-2.6-3.35-2.95-5.58,6.34,3,7.09-1.46,7.58-5.93.13-1.19-.36-2.59,1.16-2.83s1.85,1.26,1.9,2.41a5.51,5.51,0,0,0,3,4.78c1.85,1.07,4.05,2,3.63-1.72-.15-1.35-.38-2.35,1.26-2.61a4.06,4.06,0,0,1,4.06,1.88c1.06,1.43,0,2.18-1.09,2.73a4,4,0,0,0-2.51,3.69c-6.92-.59-9.1,4.25-9.52,10.81v1.2c-1.84,2.44-4.41,2.66-7.13,2.41C920.45,783.93,917.33,785.36,916,781.49Z" fill="#774933"/><path d="M788.64,904.14c-1.23-3.79-4.43-6.72-4.59-11,1.48-4.89-.14-9.41-3-12.91-2.32-2.82-3-5.77-3.95-9.27h6.35c0-5-3.12-9-5.24-13-1.95-3.66-2.11-7.49-3.36-11.15-1-2.77,1.66-3.1,3.15-4.16,2.4.85,2.36,2.86,2.34,4.91,0,9.41,1.14,10.6,10.67,10.7,2.47,0,5.09,1.25,7.31-.74.28-1-.44-1.08-1-1.06-5,.21-2-5.51-4.35-6.31-2.58-.88-5.69,0-6.83-3.7-1-3.28,1.37-10.43,4.52-11.18,2.93-.7,4.2-2.33,5.46-4.75,1.73-3.31,4.81-5.18,8.26-6.4a6.22,6.22,0,0,1,1.65-.29c4.15,1,4.47,3.4,2.1,6.46-2,2.65-4.68,4.83-6.21,7.88-.59,1.17-1.77,2.55-.35,3.7,1.16.94,2.19-.26,3-1,4.54-4.33,11-5.92,15.14-10.79a3.57,3.57,0,0,1,2.49.17c2.31,1.72,1.81,3.64.49,5.73-2.26,3.55-.39,5.09,2.93,5.81,2.49.55,5.16.64,6.93,2.92.51.65,1,1.23,1.67.09,2.66-4.42,4.79-1.49,6.93.57,2.76,2.65,5.45,5.29,9.83,4.18,1.66-.42,3.33,1.13,2.6,2.19-2.44,3.57.87,8.32-3.09,11.74-1.8,1.55,1,2.89,2.69,3.36,5.57,1.47,8.69,5.18,9.87,10.74.17,1.38.4,2.75.62,4.11.84,5-.44,8.59-5.81,9.83-1.34.31-2.42,1.31-3.76,1.65-6.5,2.29-8.84,1.28-8.3-3.59,1.1-.93,2.7-1.09,3.72-2.47-1.61.46-2.47,1.77-3.71,2.48-9.48-4-18.62-1.15-27.69,1.6-2.39.72-3.63,2.5-1.06,4.83,2.06,1.86,3.72,3.79,4,7,.26,3.44,2.75,1.78,4.43,1s3.08-1.37,4,1.34c.76,2.37.13,3.13-2,3.85a14.32,14.32,0,0,0-3.89,2.58c-4,3.17-5.84,1.68-9.42-1.89-4.15-4.16-5.81-9-7.65-14.07-.36-1-.79-2-1.94-1.8s-1.42,1.3-1.51,2.33c-.23,2.75-2.18,4.25-4.37,3.62a4.52,4.52,0,0,1-3.37-5.44c.57-2.25.65-4.31-2-4.61-3.16-.37-2.61,3-2.59,4.36C790.84,897.81,791.05,901.2,788.64,904.14Z" fill="#9c9d9b"/><path d="M854.12,893.14c.11-1.59.08-3.59,2.26-3.43,6.27.47,6.41-3.51,6.1-8-.12-1.77,0-3.56,0-5.34a.73.73,0,0,1,1.21,0c1.47,7.48,7.31,13.83,5.52,22.19-.25,1.15,1.11,2.48,2.17,2.51,6.85.16,3.63,3.13,1.52,5.55-3.94,4.51-3.56,10.24-4.59,15.58a1.13,1.13,0,0,1-1-.27c-.57-.64-.94-1.34-.2-2.13-1,.56-.11,1.79-.84,2.45-2.41,1.66-4.54,0-7.58-.79,2.06,3.95,1.18,7.52-.08,11-.87,2.44-2.37,4.49-5.3,3.18-2.76-1.23-2.88-3.5-1.4-6,.59-1,1.59-1.84,1.31-3.52a180.41,180.41,0,0,1-17.64,11.55c-2.62,1.46-4.25,1.3-6.37-.07h0c-3-2.1-3.35,1.19-4.74,2.36-1.31,0-2.71.24-3.6-1.14-1.75-3.34-3.37-6.76-1.81-10.63,1.25-3.1-1.94-3.35-2.91-5,5.4-1.12,7.24.12,6.24,5.22-1,4.86,2.45,4.72,5.06,5.41,3,.8,4.38-.75,4.17-3.88a5,5,0,0,1,3.24-5.2c1.48.8-.31,3.58,2,3.63,2,0,2.25-2.07,2.72-3.42,2.2-6.32,6-9.12,13.06-8.4,3.37.35,6.33-2.73,7.32-6.59a1.66,1.66,0,0,0-.85-2,1.61,1.61,0,0,0-2.08.53c-.53.63-.45,2.35-1.8,1.45-.62-.41-1.17-2.13-.84-2.6C857.64,902.5,854.11,897.85,854.12,893.14Z" fill="#887d6e"/><path d="M761.35,631.35c.42-1.08,1.15-2.23-.28-3.08-2.21-1.32-2-2.59,0-3.92,1.09-.73,2.82-1.32,2-3a3,3,0,0,0-3.47-1.57c-2.47.62-4-2.54-6.49-1.57a12.14,12.14,0,0,1,5.22-8.65c3.59-2.68,7.8-4.82,9.87-9.49,1-2.21,3.69-3.4,6.44-3.43-1.66,1.92-1.47,3.89-.15,5.89,3.69,5.54,3.62,5.29-2.65,7.11-2.19.63-6-.12-6.32,3.12s1.8,5.54,5.29,6.09c.76.12-.11-.22.55.22,2.59,1.73,5.9,2.94,6.26,6.65s-4,2.59-5.24,4.82c9.09,4.63,9.09,4.63,7.71,11.91,4.68-3,10.53-3.07,13.26-8.58.5-1,1.57-2,2.93-1.09s1,2,.68,3.21a13.09,13.09,0,0,1-3.39,6.22l-1.23,5.95c2.21,4.12,3.09,7.87-2.53,10-.7.26-.86,1.27-1.09,2-1.51,5.2,1.46,10.69-1,15.83-6.06,2.6-10.83,8.06-18,8.31-7-.27-8.5-1.41-10.82-8-1.8-4.76.51-7.36,4.64-9,2.11-.83,4.62-1,5.63-3.57a10.27,10.27,0,0,1,1.68-1.68c2.15-3-.88-7.72,3.78-10.27,1.42-.77-1.15-3.09-3-3.86-2.36-1-3.8-3.27-6.11-4.49C759,640,758.58,638.64,761.35,631.35Z" fill="#6c4d3b"/><path d="M793.56,642.22q1.35-4.32,2.71-8.64c-2.49,7.83-11.47,6.27-15.73,11.23-.54.64-1.69.77-2-.11-.41-1.28-.93-3.11-.34-4,4-6.31-.38-6.81-4.77-7.37-1.82-.23-3.64-.29-3.66-2.85s1.79-2.66,3.65-2.72c1.15,0,2.53.18,3-1.27.57-1.66-.44-2.77-1.77-3.33-2.35-1-3.52-3.49-7.1-3.29-4,.22-3.26-5.21-4.37-8-.92-2.31,2-2.44,4.38-2.56,2.61-.13,4.93-3.22,8-.8.8-2.57-1.53-4-1.19-6,3.86,1.47,4.69,7.05,9.54,7.18,5.93,1.48,11.71,3.31,16.55,7.3.87,1.58,1.95,3.16.3,4.87s-2.93.19-4.29-.39c-2.9-1.22-5.76-2.52-8.63-3.82-1.66-.75-2.94-4.33-5.15-1.11-1.89,2.75-2.16,6,.2,8.73,1.58,1.86,4.46,3.7,6.1,3,3.8-1.62,6.08,3.54,9.63,1.43.66-.39,1.58.79,1.19,1.48-1.88,3.29-1.2,7-1.91,10.42C797.42,644.51,795.05,641.7,793.56,642.22Z" fill="#4e3a2e"/><path d="M811.32,615.74c0-6.22,0-12.45,3.62-17.94,1.79,1.88,2.14,4.7,4.26,6.39a2.78,2.78,0,0,1,.58,3.81c-4.46,7-3,15.1-4.24,22.69-.76,4.71-1.26,9.47-2.31,14.14-2.43,10.85-1.82,12,8.26,15.55,2,2.27.11,3.54-1.28,4.84-4.7,4.38-4.71,4.36.27,8.87a2.19,2.19,0,0,1,.69,1.56c-3.49,3.24-.66,6.75-.44,10.16a4.18,4.18,0,0,1-3.27.67c-4-1.59-7-5.05-11.25-6.13a3.46,3.46,0,0,1-1.55-2c-.34-3.64,2.28-3.22,4.8-3.28a58.42,58.42,0,0,1-7.41-4.73c-1.76-1.84-4.82-3.16-2.6-6.59,3.79-1.56,6.48-3.44,2.83-7.83-.82-1-.48-2.79.67-3.13,8.28-2.44,4.25-8.42,3.34-12.91-1.1-5.39-4.44-10.29,2.93-14.34C811.3,624.43,812.72,619.52,811.32,615.74Z" fill="#1c1611"/><path d="M800.57,617c-5.76-1.86-11.68-3.37-16.55-7.3.63-1.73,2.17-2.77,1.74-5.32-1.11-6.41,7-15,13.32-15,2.11,0,2.54,1.22,2.86,3s.23,2.93-2.11,3a41.18,41.18,0,0,0-6.35,1.17,5.08,5.08,0,0,0-4,5.75c.63,3.22,3.58.2,5.44.76.93.63.51,1.38.1,2-.73,1.15-2.05,2.33-.89,3.69s2.56-.12,3.8-.39c2.24-.48,5-2.25,5.92,1.2C804.62,612.54,805.38,616.25,800.57,617Z" fill="#201913"/><path d="M799.45,663.78c-.76,3.19,2.65,3.85,3.57,6,1.54,2.57-.65,4.35-1.34,6.44-5,.76-8.69-.67-10.67-5.9-1.28-3.35-2-6.89-3.43-10.16.08-1.14.17-3.29.25-3.29,7.23.06,4-5.31,4.5-8.71,7.74,2.8,7.82,2.82,5.31,10.8C796.92,661.28,797.38,662.74,799.45,663.78Z" fill="#473426"/><path d="M652,397.14c4.1-1.14,7.47,1.14,10.91,2.6,21.49,9.1,43.35,17,66.28,21.48,4.28.84,8.16,2.92,12.14,4.48,11,4.32,23.09,2.65,34,6.42,14.94,5.14,30.75,2.71,46,6.58,10.6,2.69,21.27,4.75,31.5,8.85,8.22,3.29,16.88,5.54,24.9,9.23,7.68,3.54,13.18,10.33,19.53,15.82,1.05.9,2.13,1.76,3.19,2.64.44,5.3.37,10.4-4.68,13.87a3,3,0,0,0-1.1,3.21c-9.56,10.54-18.88,21.36-29.89,30.36-10,8.21-18.8,17.63-27.21,27.4-3.37,3.91-2.88,9.84-6,14.06-1.33,1.08,0,2.76-.87,4-5.91,5.52-10.21,12.39-15.33,18.58-3.06,1.41-3.88-.48-4.17-3a12.57,12.57,0,0,1,2.12-8.56c-2.7,2.28-4.27,5.26-5.68,8.43s-3.92,5.62-7.45,3.88c-3.9-1.93-2.51-5.37-.83-8.22,2.69-4.58,5.7-8.94,11.54-11.94-3.41-.73-4.11.91-5,2.37-2.43,4-5.62,4.46-9.55,2.16s-6-5-3.94-9.74c1.26-2.9,2.29-5.9,3.34-8.88l-.1,0c1.18-.76.76-2.88,2.57-3.12,5,.13,5.52,3.29,4.23,7.49a5.64,5.64,0,0,0,4.69-4.76c1.25-5.49,4.65-9.09,9.57-11.45a12.21,12.21,0,0,0,6.35-6.77c2.85-7.24,9.82-10.69,14.82-16,.86-.9,2.09-.61,3.33-.28,4.72,1.25,11.36-2.6,12.34-7,.42-1.9-.83-3-2-4.08-3.5-3.48-2.34-6.92.31-10.09,2.44-2.92,5.42-4.84,9.24-2.29,1.22.82,2.31,1.84,3.54.3,2.85-3.56,6.56-3.15,10.32-2.33,5.32,1.16,8.43-2.46,11.8-5.46,1.19-1,1-2.54.4-3.9-2.39-5.67-4.3-11.72-10.9-14.05-1.44-.87-2.79-1.88-4.22-2.77-5.23-4-11.55-5.67-17.4-8.34-2.37-1.15-5-1.48-7.44-2.34-12.61-5.36-26-8.16-39.06-11.9a104.16,104.16,0,0,0-20.57-4.41,19.63,19.63,0,0,1-6.24-1.39c-2.26-1.39-4.76-1-7.22-1.06-1.91,0-3.82.07-5.73-.13-5.36-.89-10.69-2-16.07-2.72a70,70,0,0,1-7.24-2.15c-13.07-2.69-25.7-7-38.54-10.5-11.21-3.29-21.86-8.06-32.44-12.94-5.57-2.56-11.55-4.14-16.89-7.22C655.3,400.41,652.83,399.78,652,397.14Z" fill="#201913"/><path d="M806.61,593c1.92-.92,4-2,3.14,1.8a20.49,20.49,0,0,1-2,4.13C801.57,598,807.5,594.84,806.61,593Z" fill="#201913"/><path d="M794.51,577.65a1.56,1.56,0,0,1-1.72,1.84,1.46,1.46,0,0,1-1.47-1.52c-.06-1,.32-2.11,1.45-2.22S794.38,576.58,794.51,577.65Z" fill="#201913"/><path d="M643.68,708.19c-.25,5.27-3.58,9.52-4.71,14.5.76,3-1.13,5.56-1.49,8.38-.44.82-1,1.46-2,1.25-3.84,3.24-6,9.48-4.82,14,.11.44.07,1.22-.21,1.43-5.69,4.44-1.86,13.19-7.78,17.56-.36.27-.14,1.5,0,2.25.27,1.45,3.11,2.54.42,4.41-2.45,1.7-3.78-.18-5.69-1.16-2.73-1.4-5.34-4.93-9-.09-1.26,1.65-6.24.11-7.5-4-2.39-7.8-5.66-15.48-2.85-23.9.65-1.93-1.41-2.13-1.92-3.32,2.48,0,5.36,0,4.08,3.76-3,8.77,2.27,14,7.32,19.4,1.25-.46,1.52-1.19,1.38-2-1.13-6.79.08-8.77,6.53-10.62,7.7-2.2,10.09-5.86,9.36-14.13-.23-2.64,0-4.68,3-6.33,2.3-1.27,7.34-1.89,5-7.13-.41-.93,1-.86,1.61-1.22,3.43-2,5.63-4.92,5.77-9.09C640.21,709.73,641.3,708.39,643.68,708.19Z" fill="#cdcdcb"/><path d="M829.16,937.62c5-.52,10.06-2.14,12.64-6.18,1.75-2.74,3.8-.62,5.31-2.2,2.21-2.35,4.91-4.25,7.56-8,.7,4.33,1.51,7-1.6,9.21-1.74,1.2-1.47,2.82,0,3.95,2,1.55,3.24.16,4-1.69,1.75-4.11,1.62-8.31-.05-12.79,3.54-.53,5.74,2.65,8.74,2.08,1.08.84,1,1.83.76,3.07-.08.4-3.55.72-.16,1.79,1.94.61,2.39,2.87.69,4.77a141.06,141.06,0,0,0-11.77,8c-2.06,1.54-7.2,2.83-11,.62-1.25-.74-2.24-1.55-3.62-.19C834.07,946.54,832.24,946.15,829.16,937.62Z" fill="#867868"/><path d="M824.42,940c0-3.93,1.06-5.87,4.74-2.36C826.74,936.69,827.33,941.91,824.42,940Z" fill="#867868"/><path d="M894.06,424.84a4.55,4.55,0,0,1,4.82,3.05c1.07,2.65-1.41,2.69-2.83,3.5-2.18,1.24-3.12,5.74-6.95,2.59-1.57-1.29-3.54-2.73-3.15-4.71a4.74,4.74,0,0,1,4.33-3.41A22.13,22.13,0,0,0,894.06,424.84Z" fill="#a38162"/><path d="M760.25,675.75c1.14,5.15,4,8,9.53,7.21a77,77,0,0,1,15.55,4.61c.93.35,2,.78,2.2,1.77s-.85,1.69-1.8,2c-6.77,2-13.57,4.5-20.11-.64-4.65,1.5-8-.25-10.78-5-.74,1.91-.12,4.19-2.2,4.49-4.76.69-5.95,5.88-9.89,7.87-2.44,1.23-1.52,5.07-2,7.71-.75,3.81-1.52,6.64-5.55,9-3.27,1.88-6.52,5.94-5.34,11.07.74,3.23-.16,6.35-.62,9.51-2.63,6.22-4.32,6.65-9.13,2.22-1.29-1.2-2.64-2.33-4-3.51-3-6.21,2.27-9.35,5.38-12.54a11.28,11.28,0,0,0,3.52-8.08,19.55,19.55,0,0,1,6.35-6.93c-5-3.6-5-4.95.06-9,3.13-2.52,6.75-4.71,3.48-9.55.05-4.6,4.46-7,5.48-11.12a7.81,7.81,0,0,1,5-4.32c-1.51-4.26-4.61-5.67-8.57-6.33-2.64-.45-6.1-.53-6.41-4.62,1.75-.12,3.82,0,4.45-2,1.12-3.59,3.08-4,6.15-2.44s2.84-2.73,5-2.88c2.54.1,3.92,2.6,6.29,3.1.77.16,1.72,1.09,1.4,1.67-2.12,3.8,1.71,5.58,2.62,8.32C757.4,670.16,756.67,674,760.25,675.75Z" fill="#8d8276"/><path d="M700.72,672.15c1.9-5.59,5.27-9.78,10.93-11.8l6.81-.05c.64,1.38-.17,2.19-1.13,2.94a7.16,7.16,0,0,1-2.44.72,20.39,20.39,0,0,0-4.07.69c2,.44,3.8-.13,5.59.29a14,14,0,0,1,1.71.35c4,1.31,8.46,1,12.34,3a1.64,1.64,0,0,1,.15,1.73,9.38,9.38,0,0,1-8.91,1.4,23.37,23.37,0,0,0-9.32-1,50.71,50.71,0,0,1,12.3,2c3.5.78,7.31,1.24,7.79,5.95.45,4.45-1.67,7.71-5.14,10.14-3,2.08-6.21,3.54-10,3.15-2.66-.55-5.68-.69-7.65-2.61-3.09-3-5.14-1.42-7.33.9a4.16,4.16,0,0,1-2.44,1,2.49,2.49,0,0,1-2.34-3.33C699.07,682.5,699,677.13,700.72,672.15Z" fill="#231f1b"/><path d="M755.53,667.4c-.86-2.65-6.84-3.56-2.67-8,0,0-.79-1.21-1-1.15-4,1.5-3.74-3.12-5.94-4.14.29-.26.59-.51.86-.78,1.54-1.55,5.13,1.65,5.55-2.35.35-3.33-.88-6-4.28-7.09,3.28-3.37,6.86-.62,11-.94-3.88-4.35-4-8.53-1.31-12.79l3.54,1.16c.47,1,1.57,2.11.67,3.25-3.25,4.08,1,6.71,2.77,7,3.76.62,4.81,3.78,7.28,5.43,1.08,1,.33,2.14.17,3.24-.67,4.49-1.41,9-.15,13.49l-2.28.11c-1.42,1.1-4.59-1.32-4.73,2.7-.08,2.12-3.52,1.81-3.67,1.39C759.75,663.07,757.35,668.43,755.53,667.4Z" fill="#a58669"/><path d="M730.25,668.89c-4.37-.5-8.82-.58-12.87-2.66,3.65-3.43,7.56.1,11.14,0-3.66-1.21-7.81-1-11.12-3.63.35-.75.71-1.5,1.06-2.26,4.12-1,7.93,1,11.93,1.2a5.61,5.61,0,0,0,4.36,2.66c5.37,1,11,1.44,12.43,8.87-1.88.78-4.46,1.64-5.94,4C738.09,673.62,733.81,671.75,730.25,668.89Z" fill="#686056"/><path d="M749.5,628.94c.32-.5.53-1.22,1-1.46,2.71-1.45,3.08-7,6.47-5.72,3.67,1.37-.27,5.59.86,8.41C755.23,628.43,752.53,627.56,749.5,628.94Z" fill="#a58669"/><path d="M655.59,763.47c-5.64.63-4.83-5.44-7.74-7.74-1.2-1-1.21-3.64-3.64-2.85-2.78.9-.42,3.07-.86,4.39-1,3,2.6,6-.6,8.84-3,2.72-1.13,7.1-2.9,10.37-2.22,4.09-1.77,7.51,2.71,9.86,2.55,1.34,2.45,2.72-.12,4.18-4.39,2.49-8.66,5.17-13,7.77-6.72.24-13.11-.17-17.8-6.25a11.44,11.44,0,0,0-5.91-3.65c-5.55-1.66-5-7.64-6.87-11.79a36.22,36.22,0,0,0-2.8-5.78c0-.52.11-1,.16-1.56,6.62.44,6,6.6,7.45,10.53,2,5.58,8.38,9.51,14.21,8.38,3.51-.69,7.48-.14,10.33,2.94,3.75,2.1,5.95.77,6-3.62.07-3.44-2.41-6.2-2.43-9.6h0c2.38-6.22.66-12.94,2.83-19.4,3-9,2.64-9.86,14.13-11.65a4.78,4.78,0,0,0,6.42-.75,7.14,7.14,0,0,1,1.55-.61,5.61,5.61,0,0,1,1.76-.23c2.05.2,5-.62,5.33,2.31.3,2.56-1.78,4.14-4.23,5.08-5.62,2.17-5.59,2.24-2.59,7.93A2.31,2.31,0,0,1,655.59,763.47Z" fill="#656360"/><path d="M649.65,747.82c-9.64.76-11.58,2.55-13.22,11.48a76.11,76.11,0,0,1-2.43,7.93c-.44,1.41-1.69,3.29,1.43,3-.52,2.87-.14,6.18-3.58,7.66-2.87-1.09-3.75-3.64-4.53-6.28-.12-.37-.51-1-.46-1,6-4.14,2.28-10.09,2.81-15.24.07-.69.85-1.94,1.13-1.89,7.4,1.29,5.6-8.09,11-9.61,2-.57-.82-5.16,2.18-6.82-2-1.26-3.5-4-6.56-2.07-.07,0-1.27-1.71-1.94-2.62l1.14-1.29c.79-2.52,1-5.35,4.6-5.8,2.67-.33,4.37-.72,6.07,2.51.78,1.48,5-.62,7.6-1.37,4.35-.42,8.4-1.33,11.56-4.9,1.37-1.55,3.91-3.17,5.63-1.14,1.59,1.86,3.42,4.64.59,7.3-1.34.65-3.79-.27-4,1.65-1.12,8.33-10.48,10.23-13,17.38h0A7.15,7.15,0,0,1,649.65,747.82Z" fill="#8c877e"/><path d="M631.84,777.89c3.62,3.64,3.93,8.25,3.52,13-.32,3.57-3.6,3.4-5.85,3.65-3,.34-1-2.17-1.29-3.39,4.64-4.92,4.56-5.23-1.24-8.65-1.6-.93-3.54-1.6-4.3-4.16C625.86,778,629.09,780.68,631.84,777.89Z" fill="#8c877e"/><path d="M955.18,901.87l-2.24,1.18c1.28-3.34-3.9-1.34-3.52-4.51.3-2.46-.57-5.1-1.09-7.62a14,14,0,0,1,2.36-11.73C950.54,887.16,955.85,893.87,955.18,901.87Z" fill="#694938"/><path d="M700.72,672.15c-.25,5.1,0,10.26-2,15.14-.66,1.62,0,2.65,1.77,2.81,1.64,5.67-3.17,9.82-3.44,15a5.27,5.27,0,0,1-1.1,1.38c-1.72.73-3.64,2.67-4.76-.7v-6.07c.66-4.15,4.18-7.67,2.65-12.35a2.44,2.44,0,0,1,.7-2.11c3.46-2.73,4-6.46,4-10.53A3.11,3.11,0,0,1,700.72,672.15Z" fill="#484946"/><path d="M592.57,356.37c1.08-.26,1.39-2.75,3.17-1,2.47,2.38,5,4.67,7.55,7C598.83,362,595.6,359.35,592.57,356.37Z" fill="#40372f"/><path d="M654.42,727.46c-2.19,2.77-7.07-.08-8.18,4.8-1.8-2.33,1.52-6.22-1.94-6.24-2.88,0-6.67,1-7.72,5-.53-3.17,1-5.73,2.39-8.34,4.28-4.46,8.5-8.86,13.63-12.52,2.73-2,3.54-6.63,6.51-9.19,2.07,2.55,3.75,3.76,7.12,1,4.31-3.58,10.5-2,15.59-4,1.5-.61,3.36,1.48,3.87,3.17,1.61,5.28,5.7,8.38,9.48,11.8a2.25,2.25,0,0,1-.27,1.62c-3.14,2-6.34,1.73-9.53.17-2.75-1.34-5.25-1.43-7.52,1a5.39,5.39,0,0,1-3.58,1.92c-3.33.17-7.26-1.06-8.19,4-3.94-.58-4.93,5.39-9.26,4.23C656.19,725.71,655.17,726.81,654.42,727.46Z" fill="#b9b1a2"/><path d="M694.83,713.05c-4.61-1.4-7.33-4.44-9.07-9.07-1.34-3.58-3.47-8.14-8.36-2.89a3.12,3.12,0,0,1-3.83.58c-3-1.31-5.19-.25-7.4,2-4,4-5.29,3.4-7.06-2.65,5.73-3.57,7.63-8.44,6.36-15.28-1.21-6.49,6.76-15.14,13.85-16-3.55,6.67-9.52,12-10.15,20.35-.2,2.69,1.88,4.35,1.48,7.24-.28,2,3.15.31,4.15-.35,6.6-4.33,12.41-2.24,14,5.47.34,1.62.21,3.27,2.41,3.42,1.64,2.13,3.07-.73,4.64-.22C697,708.3,697.92,711,694.83,713.05Z" fill="#a69c8f"/><path d="M805.39,824.7c-4,2.44-8.35,4.47-9.42,9.77a2.59,2.59,0,0,1-2.38,2.2c-5.85,1.18-7.75,6.3-4.53,12.24,2.14.72,2.48-3.92,4.54-2,1.26,1.16,1.56,3.48,2.06,5.35.37,1.43-1.09,4.65,2.55,1.86,1-.78,2.42,1,3,2.27s-.23,2.35-1.39,2.8c-5.39,2.11-11.31,1.53-16.47.59-3.55-.65-5.9-6.1-4.7-10.84a7.7,7.7,0,0,0-.7-6.25c-.38-2.8-.9-5.41-4.74-3.75-1.74-5.45,2.61-5.88,5.76-6.46,4.58-.84,6.85-2.22,3.55-6.89a2.18,2.18,0,0,1-.44-1.68c1-4.1,5.28-5.36,7.48-8.58,1.46-2.13,4.3-.51,6.23,1l.06,0C802.16,815.51,804.29,819.5,805.39,824.7Z" fill="#898580"/><path d="M795.81,816.35c-3.22-.87-6.82-2.71-7.21,3.16a2.46,2.46,0,0,1-1.22,1.85c-1.57.45-3.69-.5-4.33,2-.76,2.95,2.45,1,3,2.46.79,2.2-.44,3.84-1.22,5.64-.88,2-2.14,3.1-4.6,2.7-3.65-.6-6.36.64-7,4.77l-5.65-2.45c-.48-1.51-1-3-1.43-4.54,1.13-.23,3-.35,2.75-1.64-1.48-7.94,4.7-9.35,9.61-11.78a65.34,65.34,0,0,1,9-3.84C790.47,813.74,793.71,812.61,795.81,816.35Z" fill="#7a756e"/><path d="M805.39,824.7c-1.2-.08-3-.61-2.84-1.46,1.54-6.21-4.64-4.44-6.68-6.86L806.52,814c1.76,2.78,4,3,6.53,1.16,1.67-1.27,3.74-1.78,4.69,0,3.76,7.18,11.66,7.9,17.39,12,.89,1.52,2.85,1.89,3.54,3.81,1.27,3.53,4.22,5.29,7.08,7.65,6.2,5.1,15.63,8.79,14.31,19.75a6.2,6.2,0,0,1-.74,2.85c-1.11,2.19-2.66,3.65-5.15,2.26-2.15-1.19-2.12-3.19-1-5.14,1-1.75,1.85-3.41,1.38-5.59-.66-3.07-1.34-5.29-5.4-3.77-3.47,1.31-5.77.22-6.66-4.14a4.68,4.68,0,0,0-6-3.15c-4.87,1.61-9.45-.87-10.86-6-.62-2.25-1.27-4.1-3.56-4.94h-2.33c-4.06,2.3-5.67-1.19-7.52-3.49s-3.56-4.26-6.78-2.56Z" fill="#7a756e"/><path d="M833.92,571.3c3.54-2.57,6.3,1.35,9.55,1.18,6.34,2.37,11.3,6.88,16.58,10.89,9.24,6.37,14.83,15.64,19.28,25.61,1.92,4.29,2.21,9.19,2.18,14l0,10.8c-3.55,4-5,1-6-2-.89-2.81,0-5.89-.81-8.78-.41-1.12-.79-2.26-1.18-3.39-.49-1.62-.75-3.31-1.3-4.91s-1-3.19-1.42-4.8c-1.94-9.37-9.23-14.8-15.27-21.13-3.23-3.43-7.26-5.31-12.75-6.78,1.37,5.59,2.46,10.58,1.11,15.66-.29,1.08,1.05,2,1.76,3,4.34,5.91,7.83,12,3.39,19.49a2.27,2.27,0,0,0-.06,2.28c2.84,5.62.65,11.69,1.59,17.49-2.68,10.29-10.74,18.64-19,19.71a2.85,2.85,0,0,1-2.73-.71c-.81-4.3,1.24-7.19,4.43-9.72,9.74-7.7,10.85-13.86,4.7-24.64a20,20,0,0,1-2.51-13.31,48,48,0,0,0-.46-18.39c-.9-4.28-.37-8.78-.22-13.17A28.2,28.2,0,0,0,833.92,571.3Z" fill="#1e1916"/><path d="M820.87,806.71c.7-1.26,2.55-1.76,2.37-3.61a42.8,42.8,0,0,1,5.61-3.26c2.84-1.15,5.1-2,8.19,1.26,2.47,2.65,7.08,6,11.81,2.29,2-1.56,4-.91,6.13-.27,8.75,2.65,11.36,1.64,16.7-5.38,3.49-4.59,9.66-5.82,13.35-10.26,1.72,3,1.55,5.17-2.29,6.19a43.66,43.66,0,0,0-6.57,2.53c-1.21.54-3.26,1.3-2.75,2.66,2.66,7-2.45,5.68-6.18,6.58-7,1.68-13.7,4.23-17.85,10.85h0c-8.06,3.42-8.06,3.42-12.92-3.87-3.34-5-7.4-6.54-13.4-5.2A2.29,2.29,0,0,1,820.87,806.71Z" fill="#4a3a32"/><path d="M923.11,783.88c2.1-1.62,4.76-1.58,7.13-2.41C930,786.26,927.87,787,923.11,783.88Z" fill="#674636"/><path d="M822,830.74c2.94-.3,5.14.22,4.81,4-.35,4,3.14,4.54,5.6,6,3.05,1.78,3.14-1.55,4.66-2.46,4.65-2.78,1.38,3.52,3.07,3.64,2.52.56,1.76-2.75,3.49-2s1.13,2.49.81,3.7c-1.23,4.61.68,5.35,4.56,4.13,1.52-.47,3.18-3.5,4.64-.1,1.3,3,4.68,5.63,2.22,9.54a8.86,8.86,0,0,1-1.23,1.3c-1.17,1.24-2.21,2.62-.31,4,1.72,1.22,2.94.58,3.44-1.49a4,4,0,0,1,2.28-2.6c3.75,1.27,2.08,7.42,7,7.93.54.06-.67,2.66-1.36,4.06a45.12,45.12,0,0,0-2,6h-1.21c-3.7-3.17-5.2-9.58-12.26-8.08-.63.13-2.28-4.59-3.56-7.28,2.34-1.16,2.93,1.37,4.84,1.24-.57-3.36-2.29-6.92,1.14-9.92.77-.68,0-2.23-1.84-1.44-4.3,1.89-7.57-.82-9.67-3.6-4.2-5.56-6-4.1-7.25,2.57-1.47-5.07-4.67-6.36-8.78-6.8-5.73-.63-6.85-3.45-3.23-8C823.18,833.34,822.75,832.19,822,830.74Z" fill="#898580"/><path d="M820.87,806.71c3.4.71,5.49-5.42,9.45-1.84,2.31,2.09,5.7,3.72,6.76,6.32,2.6,6.39,6.62,7.3,12.31,5.11-6.67,5.27-9.84,4.71-13.75-2.49-.85-1.58-1.78-2.67-3.69-1.86-1.21.52-3,.56-3.08-.52-.28-7-5.34-2.47-8-3.55C820.85,807.49,820.86,807.1,820.87,806.71Z" fill="#5c3d2f"/><path d="M787.58,660.17c4.55,1.31,3,5.92,4.31,8.86,2.14,4.65,5.36,6.4,9.93,6.78,1.85-.2,2.69,1.11,3.53,2.42l1.22,1.19c4.34,1.72,4.36,6.71,7.14,9.61a5.3,5.3,0,0,0,0,1.19c.69,3.36-5.55,1.55-3.82,4.45,1.83,3.07,4.8,6.17,8,7.51,4.42,1.86,5,4.73,4.67,8.6-.2,2.19-.68,4.28,1.38,6,1,.8,2.74,1.68,2,3.27a4.62,4.62,0,0,1-4.51,2.37c-3.63-.26-7.21-1-10.89-.22-1.58.33-2.43-1.12-3.28-2.19-3.53-4.39-7.14-3.95-10.24,1a24.63,24.63,0,0,1-5,5.76c-2.85,2.4-6,1.1-6.35-2.62-.26-2.67-1.23-3.33-3.77-3-3.74.45-7.79.23-10.13,3.86s-4.46,1.56-5.24-.46c-1.92-4.92-8.32-7.42-6.91-14.29.49-2.35-3.11-3.16-5.38-3.83-2.92-.87-5.91-1.45-8.22,1.28a28.32,28.32,0,0,0-2.44,4.09,1,1,0,0,1-1.45,0c-.92-4.07,1.37-7.62,1.86-11.46.17-1.31,1-2.23,2.43-1.9,5.86,1.34,10.05-1.43,13.72-5.56,6.2.56,8,2.51,7.8,8.51,0,.8-.11-.2,0,.59.3,3.46-.72,7.49,2.6,9.89,2.48,1.8,11.6-.46,14.21-3s2.6-2.52,7.51-3.08c-1.8-2.59-2.53-5.66-7.25-3.38-2.43,1.17-5.61-2.32-5.78-5.47-.19-3.41,2-5.38,5.81-5,5.59.59,11.11,1.19,14.23,7.19-1.23-3.44-3.86-5.38-6.22-7.6-3.43-3.24-3.21-3.95,1.06-5.39,4-1.35,1.25-3.38.15-4.74-1.84-2.26-5.49-2.46-6.62-5.66C787.5,670.57,785.6,665.37,787.58,660.17Z" fill="#5b4031"/><path d="M717.4,751.44c0-.78,0-1.56,0-2.34,3.91-3.08,7.5,2.23,11.35.43,3.9,4.66,6.44,1.79,9.39-1.39,2.25-2.43,3-3.56-.44-5.73-2.47-1.57-2.33-5.27-3.11-8.11a7.43,7.43,0,0,1-.19-1.64c3-3.58-1.41-6.78-.52-10.26a2.86,2.86,0,0,1,2.34-.44,9.56,9.56,0,0,1,2.48,1.55c2.39,1.69,3.74,1.44,3.06-1.88-.43-2.11-.5-4,1.81-5,2.69,5.18,2,11.64,6.86,16.16-3.3,1.14-7.74-2.76-8.29,1.28-.41,3,4.76,3,7.51,3.85,2.33.73,5,.41,7.56.27,3.67-.2,5.89,1.6,7.4,4.67-1.43,2.46-2.68-.9-4.09.13-.69,3.12,3,2.59,3.82,4.6-.22,2.11-2.31,1.77-3.57,2.22-5.63,2-6,3.44-2,8.09,1.56,1.8,4.83,3.12,3.18,6.3-1.54,3-4.94,2.33-7.51,3.32-6.25,2.41-12.76-2.44-18.69,1.52-1.55,1-2.86-.56-4.26-1.26-5.42-2.73-8.79-1.88-11.63,3.47-1.1,2.08-2.06,2.68-4,1.9-3.45-1.36-6.9-.69-10.36-.09-1.13-3.79,2.65-5.54,4-8.06,1.93-3.65,4.22-7.14,5.53-11.16,3.17.13,3.17.13,7.43,4.24C722.35,754.47,717.27,755,717.4,751.44Z" fill="#4d3a2d"/><path d="M813.71,689c-2.16-.41-4.32-1.12-3.94-3.85.4-2.92-2.58-3.61-3.2-5.76,4.57.18,7.44,3.47,10.73,6,5.07,3.34,9.69,8.09,16.38,7.21,10.15-1.34,20.37-2.81,28.84-9.45A44.28,44.28,0,0,1,872.59,677c7.61-3.22,8.56-6.72,4.15-13.33-2.94-4.4-2.36-9-1.21-13.75-1.95,0-3,3.94-5.35,1,1.52-8.91,4-17.66,4.06-26.8a3.14,3.14,0,0,1,1.44-2.5c2.06,2.81.75,6,1,9,.31,3.3,1.44,4.83,4.77,3-.57,7.44,1.37,14.73,5.72,20.13,4.47,5.57,3.24,13.16,8.21,18.17,1,1-.18,2.71-1.52,3.41a5.83,5.83,0,0,0-3.12,4.09c-.77,3.16-3,4.16-5.9,3.16-8.15-2.86-13,2.42-19.07,7.09,3.59,1.64,5.22-.79,7.28-1.36,1.6-.45,3-2.4,4.85-.94s.36,2.93,0,4.37c-.57,2.29-2,4.57-4.37,4.06-10.7-2.29-20.88,2.63-31.19,2.09-6.84-.36-13.17,1.19-19.72,1.38-3.36.09-8.42-.61-6.95-6.92C816,691.28,815,689.83,813.71,689Z" fill="#2f261e"/><path d="M743.59,716.63c-.64,1.43-1.9,3-.61,4.44,2.1,2.34,1.08,4-.87,5.37-2.22,1.58-3-.89-4.29-1.88a8.27,8.27,0,0,1-1.38-1.91c-.92-7.42-.19-8.74,6-10.84l1.15,0C744.09,713.4,741.43,715,743.59,716.63Z" fill="#634e3f"/><path d="M801.3,733.61c2.64.86,5.14,1.28,5.09,4.43,0,1-.77,2.25-1.79,1.76A5.51,5.51,0,0,1,801.3,733.61Z" fill="#312923"/><path d="M735.31,733.41c2.07,4,1.69,10,8.24,10.59.92.09.77,2.47.49,2.39-5.1-1.49-4.23,4.67-7.79,6-4.74,1.81-7.43,3.58-9.07-2.15-1.23,2.49-1.43,5.84-4.39.35-1.14-2.11-3.44-1.49-5.37-1.52-3.55.42-6.69,3.85-10.69,1.46-.39-.23-1.63.27-1.93.76a2.31,2.31,0,0,0,.86,3.15c5,3.36,4.18,8.8,1.32,11.49-3.12,2.92-7.11,7.82-13.48,3.28-5.07-3.62-6.7-2.49-10,2.81-8.1-6.92-18-7.84-27.93-8.58l1.17-2.41c-1.69-4.34-.94-5.93,4.16-4.76,3.35.76,7,.07,9.78,3.1,1.57-2.63,1-6.54,4.89-6.41,2.83.1,5.76.74,5.87,4.5.06,2.23.58-.14.77.15a3.88,3.88,0,0,1,3.93-.5c4,1.16,5.74-1.17,6-4.54.34-4.6,3.14-4.9,6.79-6.3,10.2-3.93,21-2.74,31.27-5,1.64-.44,3.52-.4,1.95-3.2C730.4,735,731.71,733.25,735.31,733.41Z" fill="#634e3f"/><path d="M717.4,751.44c2.12,1.63,4.82,2.39,6.51,4.7.89,1.21,1.76,2.28.52,3.57s-2.46-.08-3.54-.68c-2.3-1.31-2.37-5.22-5.86-5.19Z" fill="#634e3f"/><path d="M728.12,432c4.37.29,8.83-.34,13.08,1.26,1,2.77,4.92,2.67,5.76,6.74C740.44,436.88,733.46,436.63,728.12,432Z" fill="#8c735c"/><path d="M833.92,571.3c2.5.42,2.87,2,2.76,4.32-.39,7.69-1.08,15.33,1.22,23,1.93,6.44-2.48,13-.52,19.75.67,2.31,1.16,4.53,2.62,6.49,5.83,7.82,4.36,18.73-3.69,23.87A15.47,15.47,0,0,0,829.15,659c-1.44,3.53-3.73,4.58-7.09,2.46-2.85-2.28-7.51,2.23-9.79-2.86-1.42-3.16-2.67-6.13-1.8-9.68s1.85-7.28,2.41-11c.85-5.64,1.38-11.34,2-17a4.74,4.74,0,0,0,0-1.19c-.64-4.41,1.52-8,3-11.91s-5.66-5.51-3-10c2.06-7.2,4.49-14.18,9.68-19.86C827.28,575,829.65,571.85,833.92,571.3Z" fill="#050505"/><path d="M805.39,824.69c3-2.7,5.38-3.79,7.57,1.21,1.07,2.43,3,5.37,6.73,4.84-3.46,7.27-12.53,7.5-16.91,13.68-.64.91-1.79.21-2.61-.43-1.29-1-1.33-2.19-.85-3.7,1.37-4.37,4.48-7.4,7.55-10.47C809.51,827.17,809.33,825.39,805.39,824.69Z" fill="#898580"/><path d="M845.83,889.56c.94-3.34,2.55-5.59,6.68-3.92-.75,3.93-3.69,4-6.69,3.91Z" fill="#969087"/><path d="M816,900.71c-.06,1-.56,1.5-1.48,1.15s-2.61-.05-2.64-1.72a1.73,1.73,0,0,1,1.91-1.77C815.17,898.43,815.7,899.48,816,900.71Z" fill="#969087"/><path d="M787.58,675.77c2.88,1.71,6.12,3,8.52,5.27,1.72,1.6,2.51,5,1.45,7-1.51,2.79-3.46-1.45-6.06-.66,2.89,5.08,9.47,7,10.77,13.26-3.3.62-5.9,1.19-6.77-3.34-.48-2.52-11.15-5.37-13.31-3.83-1,.73-2.28,2.4-2.09,3.37.43,2.18,2.37,3.67,4.26,4.68,1.62.88,1.61-.85,2.09-1.89,1.62-3.51,3.41-1,3.93.44a10,10,0,0,0,4.64,5.62,2.14,2.14,0,0,1-2.48,2.15c-4.13-1.61-6.28.42-7.94,3.83-1.77,3.65-5.35,2-7.87,2.09-9.3.45-12-2.6-10.32-12.29,1-5.69-1.76-7-6.17-7.64-.5-1.51.34-2.56,1.58-2.48,2.67.16,2.44-2,3.14-3.43,6.55,7,14,3.93,21,1.65-5-2.42-11.26-2.79-16.15-6.58,2.93-1.66,8,.48,8.78-5C782.06,679.27,784.17,674.78,787.58,675.77Z" fill="#7f5c46"/><path d="M755.53,667.4c1.55-1.65,3.34-3.08,4.05-5.33,2,1,1.74,2.4,1.51,3.81s1,1.4,1.89,1.4c.6,0,.95-.23,1.09-1,.91-4.84.94-4.83,5.74-2.41,1.59,4.39-2.34,3.54-4.22,4.29-3.53,1.4-7.76,2-5.34,7.59C755.09,675,755.36,671.19,755.53,667.4Z" fill="#917359"/><path d="M772.09,663.76c-5.93-5.57,0-11.16,0-16.73,2.17,0,4.55-.29,4.36,3.09-.1,1.77,2.1,4.68-2.36,4.29-1.79-.16-.78,1.67-.84,2.7C773.08,659.36,774.19,661.85,772.09,663.76Z" fill="#917359"/><path d="M870.77,651.77a8.1,8.1,0,0,0,3.69-3.76c.59-1.07,1.42-2.3,2.71-1.48,1.09.69.91,2.19.38,3.3-3,6.32-2,11.7,3.3,16.38,2.87,2.53,1.33,5.3-.79,7.14-6.8,5.89-15.27,9.25-22.48,14.53-6.37,4.67-14.08,4.5-21.14,6.07-7.57,1.69-14.77-1.09-19.14-8.55h3.57c1.78-2.32,3.89-2.24,6.26-1,6.79,3.58,13.38.87,19.91-.95,3-.83,4.34-3.51,3.75-6.58-.62-3.23-3.47-1.61-5.35-2-3.26-.59-6.9-.48-6.8-5.35,3.83-1.65,8,1.15,11.78-.94,2.67-1.43,5.55-2.45,8-4.33,3.66-1.95,5.35-5.79,8.07-8.65C867.81,654.24,868.57,652.2,870.77,651.77Z" fill="#1e1916"/><path d="M838.65,669.91c3.42,6,9.31,2.34,14.41,3.87-2,3.12,1.69,7.62-3.31,10.37-3.82,2.11-7.84,2.19-11.84,2.93s-8.16,2-11.56-1.54c-1.88-2-3.66-.06-5.48-.15-4.85-4.3-4.86-6.11,0-9.59,5.49.87,8.82-3.38,13-5.63C835.43,669.71,837,668.87,838.65,669.91Z" fill="#0e0a08"/><path d="M833.93,671c-1.18,1-2.66,1.78-3.47,3-2.66,4.08-5.89,4-9.61,1.81a35.63,35.63,0,0,1-4.42-2.76c-3.33-2.81-2.44-5.78.71-7.68,1.88-1.13,3.85-1.87,4.92-3.94a9.11,9.11,0,0,0,7.09-2.46c7.73-.52,11.73-6.56,16.71-11.29,2.42-2.29,2-5.46,3.52-7.9a1.09,1.09,0,0,1,1.48,0c2.82,9.47-2.92,16.55-6.78,24.08-1.49,2.92-4.47,3.41-7.61,3.51C834.68,667.43,831.26,667.29,833.93,671Z" fill="#2f261e"/><path d="M805.35,678.23l-3.53-2.42c-1.72-2.44,1.56-3.86,1.2-6l10.44,5.62c-1.61,2.35-3.57,1.7-5.31,1.1S805.58,676.49,805.35,678.23Z" fill="#2f261e"/><path d="M730.53,741.86c-.27,1.33-.22,2.88-2.26,2.79-8.53-.4-17.23-2.26-25.09,3a1.74,1.74,0,0,1-1.15.19c-6.21-.88-8.67,1.81-9,8.12-.11,2.29-3.43,5.11-6.28,3.1-3.7-2.61-4.58-.12-5.66,2.4-1.89-1.06-.71-2.27-.62-3.31.31-3.68-2.85-3.66-4.79-3.93-2.69-.37-3,1.88-2.51,4.09.23,1.18.54,2.58-.6,3.29a2.5,2.5,0,0,1-3.16-.89c-2.43-5.39-7.76-1-11.38-3.54-1.89-1.35.45,2.93-1.29,3.88-3.13-1.53-4.06-4.16-3.43-7.41s3.37-2.09,5.28-2.15c2.83-.09,3.25-2.34,4.75-4-2.8-1.44-5.35-.5-7.77-.79,1.27-3.06,1.12-6.79,4.34-8.94.34-.23-.19-1.69,1.09-1.43,5.36,1.08,4.85-3,5.45-6.19.65-3.46,1.68-6.49,5.74-2.67,2,.13,3.19,1.09,3,3.29-.42,1.52-3,2.51-1.1,4.59,2.37,4,8.32,2.74,10.43,7.17.07.14.28-.57.38-.88a2.83,2.83,0,0,1,3.8-1.91c5.07,1.83,7.8-1,10.09-4.78,1.86-3,4-4.17,7.18-2s6.85-1,10.19.47c2-.18,3.08.88,4.36,2.35,4.51,5.17,4.87,5,7.58-1.12C732,736,731.66,738.79,730.53,741.86Z" fill="#857260"/><path d="M716.18,733.4c-4.3,2.23-8.45,3.19-12.76-.27-2.79-2.24-1.16,4.07-4,2.41-1.92,5.23-4.83,7.52-10.82,5.43-4.58-1.59-1.44,3.53-3.37,5.21-1.47-5.94-7-5.79-11.09-7.92-1.35-.72-2-1.15-.7-2.42.71-1.52.42-3.27,1.09-4.8.26-1.9-1.62-2.37-2.34-3.61,1.7-2.62.14-5.24-1.33-6.58-1-.9-3.63,1-4.76,2.69-3,4.4-7.42,3.79-11.7,3.92,1.44-1.73.63-7.28,5.55-3.18.89.74,1.56-.8,1.51-1.8-.11-2.31.39-2.81,2.45-1.35,1,.7,1.92-.06,1.62-1.42-1.12-5.3,2.34-4.18,5.12-3.64,2,.39,4.31,1.21,5.5-.66,3.32-5.19,7.12-3.77,11.15-1.36,2.49,1.49,5-.39,7.51.16a5,5,0,0,1,3.12,1.5c6.87,6,11.92,6.09,19.38,1,2.42-1.64,3.88-5.44,7.85-4.27l.59.59c-.69,2.66,2.89,6.73.22,7.46-3.1.85-3.49,3.47-5.46,4.52C717,726.94,716.55,730.05,716.18,733.4Z" fill="#a69c8f"/><path d="M696.11,704.64c-.33-5.4,3.48-9.53,4.42-14.54l1.38-1.23c2.57-.75,4.55.71,6.55,1.88a19,19,0,0,0,15.22,2c4.06-1.14,7.33-4.15,11.54-4.93a3.69,3.69,0,0,1,3.35,4.21c-.2,2.49-3.42,3.52-3.73,6.2-3.21-1.9-2.89,2.38-4.8,2.81-1,.23-1.92.83-1.25,2.1a1.89,1.89,0,0,0,2.48,1c1.47-.56,3-.69,3.2,1.23a2.56,2.56,0,0,1-2.51,2.81c-3.18.24-3.12,4.58-6.2,4.91l-.12-.2c-3.17-3.89-8.21-1.68-12-3.75-2.2-1.19-4.51-1.9-6.48-3.76-1.65-1.55-4.12-5.53-6.49.09C699.88,707.24,697.51,705.83,696.11,704.64Z" fill="#a6a09e"/><path d="M730.53,741.86c-.92-2.37-.69-5.13-2.41-7.23-.07-3.5.89-6.94.11-10.53a6,6,0,0,1,2.59-6.67c2.22-1.62,2.5-4.6,6.45-5.73,2.78-.8,2.36-8,2.42-12.46,0-.86-1-2.43.16-2.43,5.84,0,6.75-7.19,12.24-8,3.33-.51-1.52-3,.29-4.72,2.86-.84,4.36,1.3,5.66,3.45,2.2,3.64,4.45,3.2,6.91.38,2.9,5.61-4.09,3.17-4.72,5.91-2.73,5.89-7.54,7.32-13.4,6.18-1-.19-1.78-1.17-1.59.78.4,4-2.17,7.29-2.83,11-4.86,2-4.79,6.77-6,10.84h-2.39c-2.23,3.89.55,7.2,1.23,10.75h0c-6.24,2.55.56,5.59-.39,8.67Z" fill="#726458"/><path d="M735.22,687.78c-2.64,3.63-6.87,4.43-10.63,6.05-3.69.88-7.16,1.24-8.37-3.66A14.66,14.66,0,0,0,728.08,686c5.47-5.18,4.07-9.89-3.6-12.48,1.46-2.12,4.46-1.6,6-3.58a7.43,7.43,0,0,0-.23-1c4.62,1.41,9.67,2.21,11,8.16C741.11,681.7,737,684.08,735.22,687.78Z" fill="#543c32"/><path d="M716.22,690.17c2.27,2.42,4.93,3.94,8.37,3.66-8.74,3.84-15.62-1-22.68-5,2.49-3.28,4.71-6.87,8.49-.92C711.3,689.36,714.23,689.46,716.22,690.17Z" fill="#68594e"/><path d="M730.48,669.93c-.15,4.36-3.44,3.34-6,3.58-4.07-.48-8.14-1-12.2-1.45-1.16-.14-2.53-.31-2.38-1.89.12-1.12,1.29-1.4,2.28-1.45,1.56-.07,3.28-.46,4.67,0C721.34,670.35,725.88,670.19,730.48,669.93Z" fill="#787068"/><path d="M717.4,662.56a19.27,19.27,0,0,1,12.37,4.55c-4.47.25-8.36-1.7-12.39-.88-.36-.06-.72-.11-1.09-.14-1.37-1.16-3.37.17-4.95-1.38.41-2.33,2.78-1,3.85-1.93Z" fill="#b8b7b2"/><path d="M715.19,662.78l-2.78,1.7c1.13,1,3,.06,3.88,1.61-3,.72-6.06-.43-9,1C709.05,663.6,711.52,662,715.19,662.78Z" fill="#686056"/><path d="M649.65,747.82c1.67-2,3.94-.89,6-1.17C653.93,748.69,652.59,752.43,649.65,747.82Z" fill="#857260"/><path d="M696.11,704.64l4,.19c.23-1.63-2.67-2.41-1.26-4s2.84.39,4.32.39c5,0,6.26,6.44,11.51,6.63,1.81.06,3.52,1.5,5.91.83,3-.84,4.6,1.31,5,4.24-4.11-.23-5.43,3.94-8.39,5.68-5.69,3.33-11.12,4.89-17,1.87-2.28-1.18-3.68-4.1-5.47-6.22v-1.16q.52-3.72,1-7.44A3.29,3.29,0,0,1,696.11,704.64Z" fill="#b9b8b5"/><path d="M833.93,671c-1.34-.45-3.55.88-3.89-1.29-.14-.87,1.37-2.29,2.43-3s2.72-1.53,3.82-1.22c6,1.73,7.07-3,9.06-6.7a41.16,41.16,0,0,0,5.24-19c-1.2-11.26,4.1-20.38,10.09-28.95,2.75-3.94,2.94-6.68-.2-9.91a27.65,27.65,0,0,1-6-8.84c-.82-2-1.22-4.06,2.08-4,6.54,6.22,14,11.76,15.41,21.7-1.78.44-3.7,1.07-4,3.09-.55,4-1.88,7.26-6.16,8.52a1.56,1.56,0,0,0-.83,2c1.49,3.35-1.46,6.19-1.37,8.6.2,5.7-3.06,9.75-4.42,14.61a21.31,21.31,0,0,0-.75,3.51c-.13,1.32-1.05,2.93.49,3.84a3.94,3.94,0,0,0,4.95-.58c2.21-2.24,4.48-4.51,5.72-7.53,3.89-6.26,7.14-12.74,7.15-20.39,0-.93,0-1.85.12-2.78a4.49,4.49,0,0,1,1.54-3.38l1.26,2.4c-.11,10.28-.9,20.43-4.91,30.06-3.6,4.73-6,10.51-11.84,13.24-4.63-3.48-7,1.6-10.77,2.44,1.17,1.4,2.84,1.11,3.59,2.33-4.34,2.91-8.73.73-13.1.13A7.75,7.75,0,0,1,833.93,671Z" fill="#504942"/><path d="M856.54,588.06c-1.27.74-2.31,1.35-1.16,3.22a51,51,0,0,0,7,9.53c3.42,3.45,4,7-.46,10.56-2.75,2.2-4.17,5.67-5.4,9-2.32,6.35-5.54,12.42-6,19.37h-1.21c.21-4.32-2.15-8.61-.08-13a3,3,0,0,0-.89-2.65c-3.66-2.43-2.21-4,.39-6.17,2.26-1.9-.15-12.91-3.43-15.51s-5-4.68-2.44-8.88c1.74-2.86-.36-5.73-1.45-8.49-.59-1.49-.91-3.29.32-4.53s2.69-.34,4.19.46C849.76,583,854.14,584,856.54,588.06Z" fill="#2c2c2a"/><path d="M867.14,646.89a82.65,82.65,0,0,0-5.24,7.17c-2.41,4.12-6.29,2-9,1.67-2.51-.33.08-3.3.16-5.09a23.34,23.34,0,0,1,2.85-9.53c1.16-2.28,4.35-5.24.9-8.37,4-3.31,3.05-7.62,2.43-11.89,0-.17.12-.53.2-.53,6.74-.1,6.1-6.13,8.1-10.11,1-2,2.7-2.82,4.43-.45.88,1.44,1.68,2.91,1.37,4.7-.81,1.76-3,1.39-5,2.66,3.22,1.35,4.53,3.67,6,5.83,0,.83-.05,1.65-.08,2.48-3.09,4-4,9.88-10.23,11.09-1.51.3-1.94,2.21-1,4A24.93,24.93,0,0,0,867.14,646.89Z" fill="#736f67"/><path d="M874.36,623c-2.29-1.53-5.09-2.67-6.7-4.74-1.08-1.4-1.68-5.12,2.8-3.19.74.32,1.9-.34,2.86-.56,1.38,1.38.79,3.22,1.1,4.85Z" fill="#8d867d"/><path d="M735.28,733.4c-4-4.64-4.53-8.87-1.23-10.75C737,725.94,738.75,729.36,735.28,733.4Z" fill="#634e3f"/><path d="M851.75,669.78c-1.38,0-2.76,0-4.13,0-1.2,0-2.57-.1-2.69-1.66s1.32-1.54,2.4-2c3-1.35,5.85-3.26,8.95-4.38s4.15.24,2.65,3.3S854,667.94,851.75,669.78Z" fill="#746755"/><path d="M674.55,731c1.32,2,1.43,3.69-1.09,4.8-1-.76-3-1.62-2.92-2.26C670.77,731.49,673.41,732.3,674.55,731Z" fill="#8c877e"/><path d="M867.14,646.89c-5.48,0-4.22-5.78-6.95-8.13,2.17-1.88,2.26-6.78,7.15-4.79,1.31.53,1.21-1.28,1.39-2.07.72-3.2,2.87-5,5.55-6.47-.88,6.46-.53,13.32-6.23,18.16C867.34,644.2,867.42,645.77,867.14,646.89Z" fill="#8d867d"/></g><g id="frame"><rect width="1000" height="1000" fill="none"/></g></svg>