<!-- Copyright (c) 2022 - 2023 Jan Stehno -->
<svg xmlns="http://www.w3.org/2000/svg" viewBox="0 0 1000 1000"><title>willowptarmigan</title><g id="willowptarmigan"><path d="M644.18,723.59a11,11,0,0,1-5.36-8.74c-.22-2.79-1.23-4.49-4.36-5.13-15.09-3.1-20.06-10.28-17.93-25.37,1.16-8.2.94-8.13-7-9.58-21.35-3.93-30.33-16.79-23.65-37.71,1.24-3.86.15-5.78-3.2-7.49-6.64-3.4-13.43-6.55-18.85-12-3.34-3.35-6.42-6.78-7-11.59-.61-5.16-5.72-4.19-8.24-6.67-1.83-8-2.76-15.62,2.68-23.16,3.76-5.21,8.1-10,11.19-15.82,2.06-3.85,5.59-6.74,9.37-9.1,2-1.22,4.46-2.39,3.48-5.22s-.86-6.63-5.07-7.11c-3.81-.44-5.55-2.45-5.17-6.34A3.08,3.08,0,0,0,563,529.1c-1.89-.66-3.21.26-4.29,1.73-1.86,2.55-3.12,5.46-4.86,8.07-1.06,1.59-2.47,3.37-4.56,2.29-2.32-1.21-1.78-3.53-1-5.57a47.27,47.27,0,0,1,2.46-4.39c2-4.07,3.69-8.13-.41-12.06a3.76,3.76,0,0,1-.83-4.65c4.72-8.76,8.84-18,17.71-23.63,1.87-1.2,4.19-1.48,6.43-3.07-4.4-1.35-7.5.23-10.47,2.22-3.35,2.23-6.83,4.14-10.89,4.52-1.74.16-4.14,1.24-5-1.08s1.45-3.32,3.14-3.94c6.27-2.29,11.87-6.19,18.49-7.68,2.34-.52,6.22-1,5.88-3.58-.4-3.15-4.31-2.26-6.87-2.41-3.87-.22-7.14,2.21-10.88,2.71-5.73.78-11.67,2.88-15.95-3.35-1-1.51-2.19-.62-3.18.19a17,17,0,0,1-4,3c-1.43.59-2.89.76-4-.51s-.94-2.7-.27-4.11a10.59,10.59,0,0,1,3.26-3.77c3.11-2.38,4.55-5.36,3.75-9.32-.62-3,.34-5.75,3.23-6.77,6-2.12,11.1-6.85,19.08-5.74-4.79-6.33,1.07-6.47,4.08-8.56-1.77-2.65-4.43-2.35-6.71-2.88-12.55-3-25.6-2.61-38.16-6.57-4.43-1.4-10.33-.66-15.52-1.75-2.75-.57-4.49,1.71-6.58,3.07-2.4,1.56-5.45,4.8-6.74-1.21-.17-.8-.52-.77-2.7,0-4.71,1.67-9.46,3.1-14.56,2.37a45.86,45.86,0,0,1-17.7-8.88c-5.74-4.62-5.81-8.89.24-12.89,9.08-6,19.36-9.3,30.35-13.4-14.13-.91-22.48-10.17-31.44-18.24-3.31-3-2.06-6.19,2.83-8.65,7.9-4,16.5-5.7,25.75-7.84-5.82-4.73-11.46-8.9-16.6-13.62-5.61-5.15-4.85-7.15,2.06-9.75,8.57-3.23,18-3.25,26.58-7.24-2.08-2.89-5.38-3.93-7.88-6a21.28,21.28,0,0,1-6.77-10.36c-2.15-6.73.56-10.59,7.68-10.6,7.93,0,15.89-.13,23.8.36,7.64.46,15.24,1.63,22.85,2.49a5.25,5.25,0,0,0,.29-1.34c-.24-2.29-4.67-2.62-3.07-5.32,1.24-2.1,4.23-1.17,6.46-1.26,19.9-.76,38.25,4.84,55.57,14.14,16.47,8.85,33.61,16.65,48.77,27.64,8.7,6.3,18.63,10.87,26.28,18.63,6.57,5.39,13.9,9.61,21.05,14.14,4.86,3.09,10.41,6,11.56,12.75-2.8,1.72-6,2.51-9,1.53-4.33-1.42-7.44.29-10.17,3-3.07,3.06-8.36,3.88-9.55,8.66-1.4,5.59,5,6.61,6.79,10.46.88,1.86,3.18,3.34,3.09,5.36-.26,5.86,2.83,5.61,7,4.82s6.53,1.92,8.6,5.09c1.93,3,1.36,5.51-.82,8s-2.61,4.26,1.21,6.09c4.4,2.11,4.55,4.58.93,8.2-1.74,1.75-2.29,3.16-1.39,5.48,1.6,4.16-.31,7.4-3.33,10-2.41,2.1-5.11,3.62-3,7.7,2,3.92,4.75,4.12,8.27,2.69a2.4,2.4,0,0,1,1.24.06c2.53,3.63,2.49,13.83-.71,16.33-5.33,4.16-4.93,9-3.2,14.56,1,3.4,2.27,4.84,5.59,2.58,1.72-1.17,3.5-2.69,5.43-.4,1.74,2.07,1.35,4.25,0,6.37-2.75,4.4-6.06,8.61-4.81,14.36,0,2.4-1.57,4-2.9,5.75-3.83,5.34-8.43,4.67-13.32,1.71-2.49-2.81-3.66-6.48-6.07-9.35-3.13-3.73-4.78-7.27.23-11,2.38-1.78.61-4.73.86-7.14.09-4-.05-7.82-2.54-11.39-3.61-5.15-2.25-9.31,3.44-12.08,1.48-.72,3.29-.73,4.49-2.06.3-.32.36-.73,0-2.32-6.54,4.49-12.51,2.45-18.46-1.37-1.59-1-3.63.67-4.82,2.17-3.47,4.36-8.29,7.91-9.08,14-.36,2.83-3.78,3-4.65,5.59,2.7.53,3.38-1.72,4.81-2.68,2.1-1.4,4.29-1.85,6.41-.37,1.87,1.3,1.6,3.38.91,5.16-2.08,5.43-.45,12.3-6.93,16.09-3,1.78-5.83,3-9.32,2.69a2.33,2.33,0,0,0-2.7,2,1.07,1.07,0,0,0,.45,1.08c1.12.69,1.93-.12,2.83-.61,6.62-3.63,6.65-3.64,9.25,3.18.54,1.44.91,2.5,2.93,2.48,7.59-.07,8.62,1.86,4.78,8.4a1.3,1.3,0,0,0-.19,1.14,1,1,0,0,0,1,.58c6.49-1.78,9.92-.61,9.63,7.45-.17,4.79-2.69,14.67-7.57,16.72-9.09,3.83-10,12.75-13.6,20-.75,1.51.41,3.26.67,4.91a5,5,0,0,1-.12,1.77c-.77,2-1.47,3.88-.41,6.05,1.4,2.84.23,5.07-2.43,6.15-3.2,1.29-4.4-1.27-5.55-3.6-3-6.12-1.43-12.44-.25-18.51s3.43-11.57,3.87-17.77c.31-4.45,3.56-7.89,6.7-11.1,3.91-4,3.46-5.35-1.93-6.94-8.09-2.39-12.14,1.4-10.23,9.57.34,1.43,1,2.76,1.46,4.16.67,2,1.5,4.39-.49,5.82-2.17,1.56-4.29-.11-6.35-1.16s-2.37-5-4.47-4.08c-3.57,1.58-7.88,2.1-10.58,5.24s-5.6,4.94-9.69,3.29c.78,8.89,1.45,17-4.1,24.63-3.62,5-3.9,11.79-6.74,17.49-1.63,3.28,2.58,4.85,4.82,6.39,3.43,2.36,6.11,4.76,6.41,9.37.21,3.29-.16,5.86-2.4,6.84-1.6,1-.8,1.65-1.32,1a2.61,2.61,0,0,1,.43-.34c.67-.49,1.37-1,2-1.48,1.85-1.46,3.93-2,5.59,0s.14,3.62-1.1,5c-2.68,3-5.2,6-7.65,9.18-4,5.2-2.85,11.58,3,16.39,3.94,3.23,9.93,2.42,13.73-2,2.65-3.09,5.93-4.27,9.47-2.53,3.77,1.86,2.5,5.37,1.42,8.33-1.5,4.1-1.07,6.66,3.82,7.89,2.9.73,4.75,3.84,7.82,5,2.49.93,2.18,3.36,1,5.35-1.7,2.76-4,4.9-7.33,5.47-4.26.73-6.34,3.47-7.83,8.36,5.8-3.08,7.19.19,10,4,3.67,5.07,4.41,9,1.19,14C643.77,718.48,645.8,721.32,644.18,723.59Z" fill="#8f8377"/><path d="M927.7,985.09c-12.93-.52-25.07,4.49-37.84,5.44-8.32.62-15.9-3-24-2.94-2.28,0-4.56,0-6.84,0-9.22-2-14.77-8.14-17.92-16.53-2.55-6.8-3.91-14-7.76-20.37-1.3-2.13-1.78-4.78.9-6.67a4.92,4.92,0,0,1,3,.53c6.46,2.37,11.6.35,14.09-6.14,2.08-5.45,4.72-8.86,11.14-10.2,6.24-1.29,11.54-5.74,15.22-11.45a9.73,9.73,0,0,1,1.22-1.35c3.21-2.65,7.27-3.65,11.06-4,5.61-.57,3.21-4.15,3.31-6.77.13-3.21-1.17-4.08-4.61-3.5-5.3.87-6.85-1.22-5.43-6.56,2.13-8,2.1-16.2,3.42-24.27a8,8,0,0,0-1.18-5.43c-2.82-4.75-1.24-8.93,2.68-11.58,4.68-3.16,7.11-7.49,9-12.43,1.39-3.63,3.17-6.81,7.19-8.17a6.31,6.31,0,0,0,4-4.59c1.23-4.63,4-4.84,7.56-2.77,2.67,1.53,5.57,1.62,8.52,1.45a7,7,0,0,0,3.62-.87c4.87-3.07,7.61-.31,9,3.88,1,3.18,3.1,4.79,5.7,6.22,2.69,2.35,4.51,5.17,2.83,8.74-3.19,6.77-3.85,13.9-3.64,21.23a7.19,7.19,0,0,1-.84,3.59,1.77,1.77,0,0,1-1.64.92c-2.38-1.89-3-4.81-4.29-7.34a19.77,19.77,0,0,0-2-4c-.06,4.83-.1,9.08.11,14.53,1.14-4.75,1.14-4.75,3.84-5.78,3,8,4.16,16.05,1.78,24.49-1.19,4.22-.58,8.74-1.26,13.08-.24,1.47-.18,3.17,1,4.12,6.57,5.33,6.33,13.2,7.81,20.45-.52,2.66-1.95,4.31-4.81,4.35L935,917.65l-1.23.36c1.37,6.41,2.62,12.84,4.14,19.22a36.83,36.83,0,0,1,.35,14.94c-.82,4.86-1.79,9.82-.65,14.94,1.41,6.31-3.68,11.5-3.61,17.67-3.54,1.66-3.51-1.45-3.53-3.15-.18-10.89-1-21.86,1.61-32.59-2.72,10.59-1.54,21.44-1.86,32.19C930.13,982.76,931.93,986.05,927.7,985.09Z" fill="#998e85"/><path d="M785.92,775.4c-5.6,3.09-9.78,1.31-12.85-5.63-.68-1.54-1-3.54-2.77-3.85-2.39-.42-3,2.09-3.71,3.58-2.49,5-4.61,10.24-8.45,14.47-4.14,4.55-7.92,3.84-10-2a23.46,23.46,0,0,1-1.6-6c-.46-6.2-2.83-4.78-5.79-1.66-9.93,1.17-10.85-.75-10.4-10.25.31-6.46,2.12-14-4-19.77-3-2.8-1-5.72,2.4-6.55,5.16-1.28,5.94-3.71,3.22-8-.77-1.21-1-2.76-1.64-4.07-1.13-2.19-2.65-3.87-5.35-3.56-2.5.29-2.57,2.42-2.87,4.27a9.45,9.45,0,0,1-2.92,5.44c-4.17,4-6.89,3.07-8.37-2.76-.35-.21-.69-.08-1.12.08-2.14.79-3,5-6,2.92-2.68-1.84-.61-4.61-.18-7,.49-2.71.29-5.17-2.66-6.27-3.14-1.18-5.17.52-6.71,3.09-1.69,2.81-2,5.93-1.93,9.11a24.3,24.3,0,0,1-3.28,13.28c-2.31,3.85-4.67,3.71-6.87-.24a8.49,8.49,0,0,1-.77-7.27c1.32-3.76,2.32-7.63,4.12-11.22.93-1.85,2.11-4,.32-5.85-2.05-2.1-3.78-.07-5.52.94-.72.43.19-.08-.51.37-2.11,1.33-4.25,2-6.29,0-1.8-1.72-1.44-3.72-.51-5.8.71-1.57,2.91-3.56.67-4.89s-3.75.9-4.95,2.7c-.35.52-.6,1.12-1,1.61-2.87,3.56-6.48,3.72-9.55.37a11.88,11.88,0,0,1-2.82-10c.64-4.65,2.73-9.07-.32-13.86-1.18-1.84,1.2-4.22,2.19-6.28,2.26-4.71,2.84-9-2-12.91-3.94-3.24-3.13-7.52-.53-11.31,1.77-2.59,3.78-5,5-8.69-3,.37-5,2.39-7.59,2.64-4.95.49-6.86-1.09-7.23-6.05-.5-6.7,1.6-13.28.54-20-.47-3,1.33-5.56,4.57-6.73,2.61-.94,1.75-2.91,1-4.71s-1.81-2.76-3.88-1.8c-1.89.88-4.29,2.16-5.56-.26-1.56-3,.58-5.59,2.12-8.06a4.8,4.8,0,0,1,2.62-1.61c10.91-4.17,10.91-4.17,6.67-15.14h0a4.32,4.32,0,0,1,2.51-2.48,5.59,5.59,0,0,1,3-.54c3.63.71,5.69-.11,4.71-4.39a5.28,5.28,0,0,1,.26-3.06c.54-1.43,1.44-2.59,3.08-2.65,1.87-.06,2.48,1.37,2.51,2.89,0,2.24,1.22,3.88,2.4,5.59,1,3,2.3,5.88,1.09,9.1-.76,1.14-1.6.78-2.64.31-4.66-2.08-7.37-.38-7.67,4.6-.46,7.64,3.39,11.92,10.42,13.82,2.26,3.68,6.92,4.2,9.61,7.32.22,2.48-.22,4.72-2.92,5.49-2.36.66-3.86-1-5.3-2.58-.85-.91-1.69-1.84-2.56-2.73-2.23-2.25-4.65-5.06-8-3-3.64,2.2-2.75,6.25-2.13,9.69s2.44,6.26,6.6,6.23a14,14,0,0,0,5.45-1.2c4.56-2,7.22-.76,7.7,4.4-.35,2.37-3,2-4.17,3.52,1,2,3.23,1.49,4.86,2,4,1.4,6.51,4.29,6.67,8.3.2,5.22.85,10.44.21,15.71-.46,3.72-1.27,6.94-4.76,9a4.68,4.68,0,0,0-2.07,6.49c.91,2,2.43,3.85,4.71,3.56,2.8-.36,1.71-2.83,1.55-4.54-.29-3.16.3-5.86,3.25-7.58a6.89,6.89,0,0,1,8.73.87c4.64,4.5,10.48,3.49,16,4.26,2.2.3,3.23-.89,2.67-3-.74-2.78-.37-5.89-2.74-8.19-3.68-3.57-2.85-8.88-4.66-13.24-1.08-2.6,1.56-4.57,4.7-3.92,2.41.49,3.87,2.3,5.17,4.28,3.61,5.46,9.89,6.83,13.79,1.84,4.2-5.37,8.63-4.91,13.9-3.42a8.51,8.51,0,0,1,6,5.81c.33,1.66,1.33,3.08,1.75,4.7,1.09,4.23-.33,5.8-4.74,5.34-2.21-.23-4.42-1.32-6.6.07-.31,1.77,1.21,2.63,1.71,4,1.26,3.3,1.17,5.64-3.35,4.5-3.92-1-7.45.37-10.95,1.69-3.08,1.16-4,3.06-1.09,5.53a22,22,0,0,0,3,2.31c5.55,3.33,7.16,7.71,7.1,14.57-.08,8.51-2.28,18.27,5.86,25.26,2.15,1.86.2,2.88-1.59,3.25-2.66.57-3.3,2.29-1.52,4a59,59,0,0,0,12.3,9.18c-1.2-4.22-.94-8.45-2.27-12.39-.71-2.13-.8-4,1.32-5.6,4-3,12.63-2.37,16.28,1.17,5.94,5.76,10.74,12.22,13.15,20.3.71,2.38,1.5,4.92,5.3,5A64.35,64.35,0,0,0,787.06,737c-1.38-3.54-.46-6.43,3.24-7.51s5.18,1.57,6.23,4.6a15,15,0,0,0,16.82,9.35c3-.68,4-2.27,3.58-5.44-1.18-8.33,3-12.12,10.72-8.87,4.57,1.92,9.47,4.13,13,8.12a4.17,4.17,0,0,1-.11,2.68c-2.2,2.9-5.23,4.79-8.16,6.82-6.1,1.13-9.72,5.92-13.86,9.8-5.22,4.88-10.21,9.63-17.8,4.21-1.16-.82-2.31.44-3.42.93C793.62,766.36,791.53,772.36,785.92,775.4Z" fill="#7d736a"/><path d="M652.89,590.18c5.06,2.23,5.52,7.85,5.34,11.46s-6.05,4-9.69,4.76c-2.51.51-4.42.81-4.91,3.62-.3,1.68-2.93,3.34-.77,4.93,1.59,1.18,3-.78,4.21-1.84s2.86-2.24,3.73-.7A32.77,32.77,0,0,1,654,621a2.28,2.28,0,0,1-2.62,2.77c-5-1.1-5.24,3-4.51,5.21,2,6.34-1.2,12.29-.37,18.52.76,5.7,2.47,7,8,5,2.57-.9,4.46-6,7-3.07,2.16,2.55-1.89,5.83-3.06,8.82-.49,1.26-2,2.08-2.81,3.25-2.13,3-2.73,6.39,0,9,5.75,5.51,6.54,9.3,2.37,16-1.54,2.48-3.72,4.6,0,7.4,2.38,1.82,1.13,4.41-.1,6.79a12.26,12.26,0,0,0,.58,12.56c2.6,4.19,6.24,3.92,8.31-.47.81-1.7,1.23-3.61,3.41-4.15,1.94-.48,4.12-2.31,5.79-.31s1,4.35-.72,6.26-3.47,3.7-.9,5.83,4.18-.29,5.76-1.87c1.95-1.93,4.12-3.34,6.59-1.38s2.87,4.44,1.12,7.25c-2.12,3.4-2.77,7.47-4.48,11-2.2,4.47-.73,7.44,2.24,11.17,3.51-4.63,5.18-9.36,5-14.73-.15-4.05.21-7.86,2.34-11.51s4.91-4.87,8.89-3.42c4.5,1.64,4.25,5.12,3.44,8.81-.41,1.91-2.51,3.47-1,6.33,2.6-2.44,4.49-5.5,8.05-6.06a6.88,6.88,0,0,1,.78.87c1.23,2-3.11,5.73,1.08,6.06,3.23.26,5.9-2.79,6.56-6.53.45-2.58-1.27-6.07,3.69-6.41,4.47-.3,6.52,1.88,7.83,5.58a11.14,11.14,0,0,0,1.07,2.92c5.08,6.79,2.89,9.53-4.94,10.93-4.26.76-1.95,4,.29,5.24,3.68,2.11,5.47,4.33,2.73,8.43-1.25,1.88.07,3.65.9,5.3a7.07,7.07,0,0,1,.31,6c-2.68,7.45-2.6,7.45,5.29,8.75a15.53,15.53,0,0,1,2.92,1.12c-6.31,8.07-8.17,9.26-13.68,8.8a5.23,5.23,0,0,1,1.25-2.1,4.5,4.5,0,0,0,.22-5.73c-1.43-2.16-3.28-.74-5-.14a7.37,7.37,0,0,1-3,.61c-2.62-3.54-2.64-7.86-3.31-11.92-.58-3.52-1.7-3.85-4.37-1.73s-5.18,4.73-8.65,6c-7.31,2.69-11.83.81-13.46-6.92-1.16-5.52-2.29-9-9.27-7.46-5.9,1.31-9.36-2.36-10.14-8.33-.62-4.76-1.52-9.52-1.7-14.3-.15-4-1.53-4.92-5.37-4.51-4.53.49-9.15,0-13.74.09-2.67,0-4.95-.55-6.38-3-.43-1.82-1.82-4.19-1.14-5.37,3.42-5.93,3-10.77-1.14-16.49-2-2.74-1.91-5.66-5.6-2.21-1.13,1.06-2.32,2-3.74.47a2.78,2.78,0,0,1-.1-4c2.63-3.18,3.57-8.15,9.52-7.67,3.11.25,4.78-3,6.57-5.3.67-.85.37-2.84-.33-2.65-5,1.35-5.71-5.76-10.72-5.1-2,.27-4.89-2.43-3.47-6a19.68,19.68,0,0,0,1.16-3.58c.46-2.42,3.14-5.78-.88-6.9-3.18-.88-6.93-.79-7.93,4.4-.75,3.84-12.45,3.83-16,.18-7.73-7.93-7.26-13.58,1.58-24,1.83-2.14,6.84-4.47,4.47-6.8-3-3-5.32,2.19-7.87,4-.64.46-1.34.84-2.24,1.4-1.4-2.74.81-3.67,1.95-4.72,5.34-5,4.92-10.22-1.26-14.52-1.54-1.06-2.87-2.48-4.49-3.39-3.61-2-3.94-4.52-1.47-7.64a21.66,21.66,0,0,0,4.21-11c.16-1.22.29-3,1.08-3.5,6.56-4.19,3.61-11.73,6.19-17.3,1.18-2.55-.63-4.79-2.07-6.89-.57-.83-1.18-1.91-.42-2.89,1-1.28,2.12-.87,3.25,0,3.38,2.54,5.72,1.34,7.55-2.08,1.07-2,3-2.68,5.12-3.29,3.56-1,7.17-2.09,9.26-5.77,1.73,2-.45,4,1.35,5.61,2.07,1.85,4.32,4.45,6.85,3.07,2-1.09.18-3.94-.89-5.58-2.49-3.82-2.18-8.46-1.38-12,1.07-4.69,6.71-2.05,10.19-3.23.48-.16,1.17.36,1.77.54,9.91,2.9,10,3.1,2.9,10.23-3.7,3.72-6.34,7.47-6.07,13.46.2,4.34-2.5,8.76-3.5,13.24-1.48,6.67-2.82,13.43.39,20,.85,1.75,2,2.83,3.89,1.28,1.29-1.07,2.95-2.63,1-4.1C647.17,594.13,651.72,592.5,652.89,590.18Z" fill="#86796d"/><path d="M829.83,526c3.26-.83,5.67,1.39,8,2.8,3.11,1.88,6,2.61,9.46,1.7,1.65,2.31-3.06,3.73-1.59,4.14,3.91,1.1,4.33,6.33,8.59,6.45,2.38.07,3.65.91,3.91,3.67a100,100,0,0,1,.43,16.29,11.16,11.16,0,0,0,7.06-6.66c1.12-2.58,2.86-4.74,5.71-5.29s3.06-1.82,2.64-4.35c-.56-3.39-2.58-2.47-4.59-2.15-1.22.19-2.47.45-3.57-.43-1-3.93,2-6.24,3.68-9.05,3.24-2.28,6.33,0,9.48.33a4.75,4.75,0,0,1,2.42,1c4.54,5.57,1.61,11.92,1.82,17.94,0,1.07-.93,1.75-1.88,2.24-3.88.86-5.4,3.32-4.91,7.2.21,1.76,1.21,3.87-1,4.91s-3.91-.09-5.36-2.18a13.7,13.7,0,0,1-.36,4,43.72,43.72,0,0,0-2.15,7.18c-.88,4.35-2.39,4.73-5.77,1.6-1.95-1.8-3.62-4-6.66-3.61-.73,2.11.54,3.46,1.11,5s1.39,3.24.19,4.75c-1.49,1.89-2.94.49-4.34-.38-.93-.58-2.06-1-2.63.26-1,2.14-.34,4.57-1,6.8-1.19,4.35,2.65,2.52,4.21,3.41,2.34,1.33,4.76,2.83,7.56,1,4.07,0,4.65,2.29,3.63,5.61-1.32,6.71-5,9.58-12.71,8.92-2.18-.19-2.12,5.37-4.91,1.5-.64-1-2.19-1-2.61-2.6.21,1.75,1.82,1.54,2.47,2.41a1.34,1.34,0,0,1,.11,1.56c-1.65,1.55-3.65,1.88-6.8,1.61,2.95.82,5.94.24,5.92,3.64,0,6.25-3.32,12-7.35,13.12-1.73-2.32-3.26-4.83-6.24-5.83-3.16-1-4.5-3.31-4.45-6.66,0-3.12-1.7-4.85-4.69-5.69-11.82-3.34-11.8-3.38-11-15.66.08-1.21.3-2.5-.49-3.61-1.18-2.5-3.34-4.28-4.78-6.55-2.75-4.3-.63-8.69,5.43-11.75,4.66-2.36,7-1.63,8.82,2.76.55,1.33,1.21,2.71.25,4.18-.07.1-.91.8-.32.42,2.7-1.73,4.81,0,7.13.61,2,.5,3.79.8,4.1-2.08.46-4.28-6-10.43-10.3-9.73-.82.14-1.63.38-2.44.55-4.64.94-6.76-.56-6.61-5.37.26-8.78-2.14-15.91-10.51-20.11a8.88,8.88,0,0,1-3.47-3.56c.36,1.29,1.64,1.9,2.21,3,1.15,2.21,4.14,4.32,1.19,7-1.32,1.21-7.43-1.77-8.71-4.21-.67,3.79,1.29,4.68,4.12,4.75,1.94,0,3.92,1.17,3.18,2.87-2.43,5.63,2.21,11.63-1.27,17.11a3.25,3.25,0,0,0,.71,4.57c6,3.68,6.57,11.3,11.45,15.76.36,2.26,1.2,4.67-2.13,5.54-2.5.65-1.66,3.09-2.36,4.7-1.76,4.06-4.44,4.75-7.72,1.91-3.76-3.26-6.86-6.53-4.75-12.38,1-2.82.75-6.22.59-9.36a3,3,0,0,0-2.18-2.79c-1.18-.34-1.9.28-2.51,1.29-4.74,7.86-10,15.45-12.7,24.36-3.75.39-3.3-2.78-3.06-4.54,1-7.86-3.56-12.38-8.82-16.87-1.95-1.66-3-1.6-4.59.15a33.13,33.13,0,0,1-7.18,6.06c-3.57,1.85-5.86,2.22-8.35-2.49-1.9-3.6-5.41-6.68-7.73-10.37-1.24-2-3.18-4.25-2.88-6.15,1.18-7.66-4.37-15-.76-22.67,3-3.56,6.11-2.64,9.43.58,2.28-9.65-.3-18-3.63-26.12a50.23,50.23,0,0,0-2.58-4.32c-1.2-2.25-2.73-5-.64-7s5.1-.29,7.72-.57c1.25-.13,2.21,1.53,1.85,2.81-1.26,4.44,2,7.25,4.57,8.76,5.93,3.56,7.89,7.64,4.47,14.07,1.8-3,1.86-3,1.8-9,0-4.55,1.75-6.28,6.18-4.45.67,4.85-1,9.92,1.76,14.61.81,1.38-.66,2.71-2,3.53-2,1.23-3.65,2.82-5.61,4-4.58,2.82-6.79,7.07-4.19,11.19,3,4.81,4.59,10.23,7.19,15.39,2.75-.92,3.89-3,4.91-4.94.88-1.66,1.09-4.05-.71-5.13-1.59-1-4.7-.12-4.34-3.19.32-2.71,2.06-6.2,4-6.76,3.74-1.1,2.36-2.1,1.16-4.07-1.09-1.79-1-4.06,1-5,6.06-2.84,3-6.85,1.45-10.48s-3.55-7.23-1.31-11.32c2.85-.92,5.19-2.22,6.42-5.34,2.93-7.43,5.54-8.58,13.12-6.38,1.12.32,2,1.65,3.41.71,6.8,6.35,16.22,6,24.12,9.57a6.12,6.12,0,0,0,.26,3.62c1.63,3.46,1.77,6.24-2.68,7.64-1,.3-.48,1.86-.67,2.84A15.7,15.7,0,0,0,815,547.39,37.63,37.63,0,0,1,822.05,559c5.59-6.51,6.08-4.78.46-11.6-1.79-2.17-5-3.16-5.44-6.46,3.78-1.83,7.81-3,5.78-9.15-.91-2.77,1.44-6,5.65-4.61C829.87,527.64,829.07,526,829.83,526Z" fill="#614f42"/><path d="M472,432.65a129,129,0,0,0,20.17-6.19c1.33,2.5-4.19,3.72-1,5.68,2.09,1.29,3.8-1.36,5-2.91,3.51-4.62,8.37-3.25,11.68-1.34s5.18,1.61,7.67-.33c1.1-.87,1.93-.76,3.28,0a42.61,42.61,0,0,0,19.57,5c7.71.23,15.19,2,22.71,3.53,1.9.37,4.88-.06,4.71,2.89-.16,2.59-2.5,3.6-5.06,3.68a14,14,0,0,0-2.3.42c-.56,2.23,1.63,2.34,2.25,3.55a2.82,2.82,0,0,1-.17,3.48c-.9,1-1.85.43-2.84.12-7.58-2.39-12.38,4.39-18.8,5.88-1.17.27-1.55,2-1,3.3,2.39,5.85-.25,9.49-4.94,12.6-1.55,1-4.11,2.9-2.19,5s3.58-.55,5.06-1.79c1.12-.94,2.06-2.09,3.13-3.08,1.73-1.59,3.42-2.34,3.58,1,.19,4.11,3,4.52,6.06,4.73a26.24,26.24,0,0,0,12.76-2.24c4.79-2.23,9.22-1.8,13.89-.43,1.42.41,3,.68,3.22,2.48s-1.38,2.51-2.67,3.05c-7.8,3.27-15.63,6.44-23.45,9.68-1.46.6-2.87,1.32-5.49,2.54a20.37,20.37,0,0,0,16-4.76c3.22-2.6,6.79-3,10.61-2.73,1.43.1,3.28,0,3.28,2,0,1.61-1.56,2.35-3,2.88-9.17,3.48-16.88,8.44-18.71,19.11-.29,1.73-1.46,2.41-2.57,3.32-2.59,2.13-3.13,3.82,0,6.39,5.13,4.16,1,8.6-.42,12.91-.92,2.69-5.7,5.69-2.16,7.81,2.67,1.61,2.87-4.15,4.91-5.92,2.79-2.43,2.06-9.53,8.83-6.79,2.53,1,4.62,1.92,3.18,5.41-1.33,3.22.16,4.89,3.53,4.55,7.47-.76,4.63,6.8,7.56,9.84,1,1.08-2.31,4-4.87,5.52-4.64,2.67-8.57,6.14-10.7,11.6-1.77,4.53-6,7.73-8.84,11.67-3.47,4.73-5,9.11-4.7,14.67.17,2.92-.1,5.87-.18,8.81-.82-.17-2.19-.1-2.36-.53-2.47-6.15-9.7-7.1-13-12.06-3.75-5.56-2.53-11.64-.43-17.49s6.19-10.78,11-15.92c-20.78,3.86-33.4-7.32-43.89-22.55-1.05-1.36-.81-3.84.19-3.64,2.86.56,3.23-1.7,4.78-2.73,4.3-2.87,4.49,1,5.31,5.09,2.73-15.17,18.92-16.34,23.88-27.68-2.35,0-4.23-1.17-2.41-4.84.75-1.51,2-2.71,2.72-4.22,1.22-2.56,3.61-5.34.72-8-2.44-2.21-5.11-.58-7.48.87-1.08.65-2.08,1.42-3.19,2-3,1.56-5.07,1.23-8.27-.92-4.14-2.78-8.07-4.47-9.09-10.26-.31-1.77-5-.48-7.62-.63-2.13-.12-5,1.66-6.15-1.22-1.08-2.6,1.36-4.19,3-5.66,2.42-2.12,4-5.62,7.94-5.48,1.4-.76-.32,4.07,2.12,1.23,1.19-1.39,3.67-2.09,2.84-4.71-4.67,1.07-8.09,4.08-11.34,7.29a32.5,32.5,0,0,1-10.28,7c-1.34.57-2.89,1.17-4.06-.19s-.26-2.85.84-3.8c1.82-1.57,1.66-2.34.15-4.47-2.08-2.93.51-6,2.29-8.49,2.21-3.12,5.42-4.83,9.24-3.85a13.76,13.76,0,0,0,8.54-.39c4.51-1.64,11.69-10.88,11.7-15.52,0-3.69-3.07-3.84-5.4-3.64a101.82,101.82,0,0,0-19.48,3.72c-2.44.69-4.69,1.93-7.08.09C480.82,434.58,475.93,434.8,472,432.65Z" fill="#998b7e"/><path d="M800.77,924.43a10.53,10.53,0,0,0-5.13-8.73c-3-1.91-8.64-1.32-6.72-7.66.08-.28-1.57-1.17-2.48-1.64-7.7-3.92-8.21-9.54-1.2-14.89,13.14-10,26.52-19.72,39.44-30,7.48-5.94,14.27-12.76,21.37-19.18,1.08-4.06,4.42-6.32,7.17-9.05,2.76-1.94,5.53-3.7,8.5-.37.61,3.38-1.16,6.15-2.57,8.88-3.58,6.93-5.16,14.65-8.64,21.61-.19.37-.42.72-.61,1.1,7.42,3.33-.3,7.41.79,10.47-.57,1.37,1,.94.22.88-.24,0-.27-.21-.12-.6,1.76-4.56,4.85-8.31,7.51-12.32.56-.83,1.32-1.85,2.49-1.5,1.46.44,1.61,1.88,1.51,3.12a49.32,49.32,0,0,1-2.5,11c-2.37,7.37-6.15,14.28-7.22,22.08a13.71,13.71,0,0,1-.38,1.8c-3.14,8.77-6.11,17.59-9.83,26.13-.94,1.95-1.61,4-3,5.76a113.78,113.78,0,0,0-10.45,13.19c-1.53,2.26-3.14,4.74-6.46,2.47a.63.63,0,0,1-.38-.82c-1.26-5.41-7.08-5.62-10.39-7.14C804.77,935.85,801.43,931.58,800.77,924.43Z" fill="#332c25"/><path d="M878.78,534.7c-3,.65-5.52-2.33-8.62-1.36-4.38,1.18-8.35,3.73-13.08,3.82-1.41,0-1,1.6-1.27,2.52-.2,1.28-1.2,1.9-2.13,2.58-2.56,2.3-3-.37-4-1.72-1.33-1.8-1.37-5.34-5.2-3.79-1.12.45-1.51-.42-1.19-1.35s-1-2.69,1-3.06c1.25-.23,2.51-.3,2.95-1.81,6.69-4.44,9.21-11.82,12.82-18.43,6.52-2.59,6.23-9.19,8.38-14.34A262.16,262.16,0,0,1,886.66,471c5.77-7.61,13-14.55,14.9-24.56,6.66.71,13.5.11,20,2.09,4.42,1.36,5.44,6.16,7.37,9.71,1,1.85-1.28,3.77-3.14,4.84s-3.93,1.27-5.79-.36c-1.23-1.07-.91-3.28-3.13-4-1.78,3.24,2,5.31,1.69,8.08-.9,2.75-.42,5.92-2.51,8.3-1.63,1.84-2.56,4.39-5.24,5.09.12,1.16,1.18,1.12,1.81,1.56,7.25,5,7.12,5,5.17,13.92-1,4.52-3.51,9.23.36,13.72.39.45.11,1.21.17,1.83.27,2.82-6.61,2-3.1,6.81,2.12,2.9-2,5.32-2.4,8.45-.62,4.4-11,7.67-14.86,5.17-2.86-1.84-6-2.76-9-4C883.58,527.24,882.86,533.42,878.78,534.7Z" fill="#513d30"/><path d="M915.38,474.33c2.51-1.66-1.32-5.33,2.1-6.69,3.24-4.74,5.27-3.76,11-.42,2.27-1.62,2.58-8.69,7.59-2.79.77,1.78.63,3.7,1,5.57a38.94,38.94,0,0,0,0-8.7c-.14-1.91-.4-3.88,2.52-3.94.66,0,.75-.38.65-.91-.56-2.89-.16-5.88-.92-8.75a4,4,0,0,1,.54-2.55c4-1.63,4.59-4.55,3.07-8.82-2.09,2.06-.57,5.25-2.9,6.61-1.26-.07-1.61-.88-1.6-2a2.57,2.57,0,0,0,.2,1.71c.75,2.14.06,4.42.68,6.57.08,2.23.2,4.46-1.67,6.13-6.92,1.77-10.61-4.74-16.18-6.52-1.22-.39-.5-2.22.73-3,.9-.54,2-.48,3-.87,1.27-.52,2.28-1.5,1.84-2.86-.58-1.8-2.06-1-3-.41-3.31,1.89-7.4,2-10.46,4-5.33,3.44-8.43,1.53-11.08-3.19a18.33,18.33,0,0,1,3.89-10.05c1,.12,1.1-1.34,1.87-1.22,2.44.39,4.28,3.71,7.28,1.5,4.37-3.23,8.28-7,10.36-12a30.76,30.76,0,0,1,5.61-8.77,3.11,3.11,0,0,1,2.6,0c2.58,2.75,3.94,5.62,2.35,9.59-1.69,4.22,2.52,5.07,4.71,6.89,2,1.67,5.44,1.13,6.63,4.21,1.35,6.67.56,13.29-.42,19.92-1.31,8.91-2.26,17.81.62,26.65.58,1.77.33,3.73.35,5.6-.5,3.73,1.48,7.37.42,11.11-1.27,2.14-2.35,1.06-3.2-.31-1.61-2.6-1.8-5.56-1.74-8.51.05-2.36-.8-3.37-3.29-3.35-2.33,0-3.86.64-3.28,3.17.95,4.09-3.8,5.16-4.12,8.7-.79,8.56-2.35,17-2.25,25.69,0,.41.2,1.06,0,1.22-5.54,3.62-2.59,11.16-6.27,14.86-3.86,3.89-.93,5.44.68,7.89a19.09,19.09,0,0,0,3.56,3.51,5.2,5.2,0,0,1,1,1.42c.65,3.95.26,8.09,2.15,11.82.43,1.84.61,3.65-.85,5.17a53.44,53.44,0,0,0-5.23,5.3,11.52,11.52,0,0,1-10.55,4c-1.24-.12-2.59.05-3,1.56a2.45,2.45,0,0,0,1.59,3c3.21,1.34,4.39,3.43,1.85,6.15s-5.28,1.71-7.54-.71a12.17,12.17,0,0,1-3.38-8.49c0-2.68.28-5.46-1.54-7.79-1.15-2.78.18-4.86,1.91-6.83a29.33,29.33,0,0,0,3.34-4.54c4.51-7.74,4.53-7.72-3.64-11.11-2.37-1-6-8-5.43-10.71.82-3.69,3.86-3.25,6.53-3.34a8.1,8.1,0,0,0,8.14-6.63c1.78-8,5.15-15.68,5.52-23.8.42-9,.44-18.26-4.21-26.6A2.21,2.21,0,0,1,915.38,474.33Z" fill="#938478"/><path d="M484.32,437.77c6.18-1,12-3.35,18.25-4.27,2.58-.38,5.34-1.33,7.9-1.34s6.33-.14,7.74,3c1.26,2.81-.45,5.64-2.61,7.19-2.83,2-.35,4.72-1.64,6.86-2.3,3.81-12.86,7.75-17.17,6.16-5.19-1.91-12.5,3.76-11.88,9.21a2.56,2.56,0,0,0,.07.62c1.87,4.77,1.87,4.77-1.09,8.73,8.79-2.17,13.66-9.21,20.37-13.4,1.77-1.11,3.56-6.06,6.83-1.48-1.29,2.68-2.58,5.37-6.26,5.06-5.25,1.7-7.89,6.1-11.89,11,6.52-1.19,11.78-1,17.76-.78-2.37,3.78-1.31,6.79,1.15,9.19,2.11,2.06,3.54-1.43,5.54-1.26.59,6.88,1.35,7.23,7.35,3.35l4.19-2.71c2.88-1.86,5.59-1.15,8.14.67,2.95,2.11.86,4.6.2,6.8a16.46,16.46,0,0,1-2.69,4.88c-1.11,1.49-2.52,2.75-2.5,4.74,2.38,1.85,4.41-1,8.34.32-8.94,3.91-11.6,13.14-20.28,16.46a13.05,13.05,0,0,0-7.86,10.69c-.24,2-1,5.22-2.91,5-3.54-.42-.62-3.25-.81-5-.13-1.28-.06-2.77-1.48-3.14-1.67-.44-2,1.09-2.26,2.28-.61,2.55-1.15,4-3.84,1.27-.68-.69-.9,1.78-1.11,2.9-8.14-8.81-7.83-16.31.09-25,5.56-6.1,12.5-10.27,20.05-15.83-6-.71-10.84-.59-15.54-1.94-17.35-5-28.27-16.87-35.55-32.78-1.82-4,.65-6.51,3.59-8.32A76.29,76.29,0,0,0,484.32,437.77Z" fill="#a09486"/><path d="M861.42,833.62c-3.08-2.85-5.43-.69-7.82,1.15-3.5,1.78-5,.49-3.83-3.06,1-3.21,3.37-5.69,6-7.83-5,.23-9.47-3.53-9.54-9.7-.06-6.38-6.07-10.44-5.33-16.94.17-1.51-2.1-1.58-3.6-1.34-2.35-8.32-2.52-16.85-2.45-25.4a1.26,1.26,0,0,1,1.63.38c1.4,2,.93,4.28.82,6.59-.11,2.13,1.56-.56,2.69.56,1.57,1.55,4.23,1.44,6.35,2.27,2.67,3.56,2.94,8.65,7.09,11.42,2.72-3.65,1.14-9.34,6.4-12.08-2.57.73-4.41.27-5.89-1.37a8.39,8.39,0,0,1-1.6-6.62,4.31,4.31,0,0,1,2.22-3.26c6-1.27,10.88,1.18,15.46,4.66a21.78,21.78,0,0,1,5.08,6.91c1,2.4,1.27,3.61,4.42,2.16,3.64-1.68,1.25,2.81,2.79,3.74,2.67-1.65,4.51-4.23,7-6,3.72-2.27,6.67-5.71,10.83-7.32a2.15,2.15,0,0,1,1.58.61c1,2.43-.74,3.91-1.94,5.55a30,30,0,0,0-4.47,8.24c-.68,2.1-1,5.64,2,5.48,5.11-.27,5.23,2.85,5.75,6.19-1.42,1.83-.23,2.45,1.17,3.65,3.29,2.82,3,6-.2,8.86-.76.68-.61,1.06.75,1.87.93,1.87,2,4,.11,5.63-2.49,2.19-4.9-.23-6.65-.72-2.19,3.74,2.28,10-5.44,11-2.7-4.35-6.29-4.17-10.68-2.18s-7.22,5.7-10.84,8.49C868.14,833.67,864.36,836.24,861.42,833.62Z" fill="#6f665e"/><path d="M763.32,524.6c-6.44-.68-5.72,4.08-4.64,7.39s-.3,5.56-1.55,8.13c-.47,1-.78,2.06-2.17,1.45-1.05-.46-1.86-1.62-1.44-2.52,3.19-6.89,1.75-11.66-5.13-15.57-1.49-.84-7.77-3.84-3.1-8.82.5-.54-.72-2.95-2-1.08-2.53,3.67-3.72-.84-5.68-.61-1.39,1.86-.55,3.82.6,5,5,5.28,5.23,12.49,7.8,18.73,1.75,4.24-1.37,9,.22,13.81.49,1.46-3.36,2.61-4.24.7-2.1-4.54-4.81-2.19-7.51-1.43-4.43-.19-7.06-2.75-8.7-6.63-.26-4,1.19-7.79.7-11.76-.27-2.23-.56-4-3.66-3.65-6.44.65-11.15-3.4-12.29-10.34a32.42,32.42,0,0,1,0-9.93c3.05-8.4,11.4-8.1,17.83-11,3.12-1.41,5.88-1,8.87.63,2.5,1.37,4.78,2.53,5,5.78.17,2.84,2.62,3.88,4.4,3.1,3.84-1.7,7.41-.77,11.09-.15,5.18.87,7-3,8.65-6.54,1.43-3,2.49-6.16,5.22-8.37-2.13,1.76-3.29,5.9-6.37,4.69-3.52-1.37-1.22-5.1-1-7.85.09-1.21.51-2.45-.47-3.72-1.17,3.31-3.31,5.33-6.86,5-3.76-.34-3.49-3.5-4-6.14-.14-.72.6-2.08-.82-2.07-.32,0-1,1.21-1.78,1.5-2.11.14-3.29-1.21-3.08-3,.46-3.76-1.5-7.23-1-10.94a2.44,2.44,0,0,1,1.28-1.23c3.34.55,6.72.17,9.65,3.09s4-2.09,6.26-2.61A6.19,6.19,0,0,1,765,467c3.54-.75,6.16,2.8,9.69,2.14,2.82,4.67,2.29,10.67,4.26,15,4,8.87,4.83,19,10.68,27-2.8,3-6.27.36-8.78,0-4.8-.64-6,1.83-5.89,4.8.12,3.67-2.79,4.72-4.22,7-1.85,2.92-2.4-.7-3.65-.87C765.42,522.28,764.73,524,763.32,524.6Z" fill="#524034"/><path d="M700.59,475.44c-5,3.27-8.79,2.65-11.44-3.26-1.51-3.38-1.75-5.66,1.88-7.81,4.33-2.55,7.93-5.57,3.83-11.45-1.52-2.19-.21-4.44,2.6-5.22,1.48-.41,2.95-1.07,2.66-2.89s-1.08-3.26-3.13-3.36c-6.9-.32-5.24-3.65-2.43-7.15,1.77-2.2,4.45-3.56,1.66-7.25-2.39-3.16-4.45-5.22-8.68-4.29-3.59.78-9,4.76-6.86-4.8.84-3.68-4.07-7.81-7.76-10.64-4.35-3.35-4.2-9.59.73-12,2.51-1.23,4.9-2.49,6.49-4.63,5-6.77,12.13-1.93,18.06-3.48a10.83,10.83,0,0,1,2.49-.09c4.54-.88,6.9,2.59,9.78,5,1.87,1.56,3.06,3.8,5,5.26a1.05,1.05,0,0,1,.3,1.06c-1.85,2-3.94,3.72-3.53,6.94.15,1.2-7.67,9.75-9.1,10.59-1.9,1.13-4.21,1.56-5.83,3.54,3.91-2,7.77-5.15,10.49.71,1.08-.48,1.29-.8,1.44-1.23.77-2.19-1.87-5.66,1.64-6.57,3-.76,4.65,2.29,6.47,4.23,2.08,2.22,2.66,5.18,3.61,7.95.63,1.85,1.61,3.61,3.81,3.64s3.07-2,3.76-3.7c1.89-4.62,2-8.9-2.25-12.54a75.53,75.53,0,0,1-7.07-7.13c-1.3-1.46-3.43-2.72-2.26-5.3,4.27.8,6.18,4.62,8.91,7.27,6.66,6.47,13.6,12.71,18.84,20.51l-.63.65c-7.42.07-11.79,9.19-7.45,16.18,1.85,3,3.06,5.83,2.55,9.35-.61,4.14-2.37,5.12-5.69,2.25-6.76-2.6-10.31-8.49-14.24-14-7.72-1.16-10.77.76-12.47,7.87-.18,1.23-.73,2.59-.26,3.67C710.53,462.35,706.45,469.12,700.59,475.44Z" fill="#84766b"/><path d="M843.79,365.84c5.76-6.06,9.85-13.51,16.09-19.16,2.1,4.05,1.3,7.9-1.06,11.28,1.16,1.58,2.64.89,3.71,1.46,6,3.17,6,3.17,6.76-3.35.59-4.93,3.47-6.8,8.24-6,6.13,6,12.33,5.29,18.56.14,7.48-.46,10.4-6.14,13.36-11.78a1.72,1.72,0,0,1,1.52-.72c5.62,2.62,7.89,6.83,6.06,13-1.54,2.42-3.37,3.77-6.14,1.3-.06,2.26,2,2.85,2.53,4.45.62,1.9.82,3.77-.5,5.34s-3.35,1.6-5.15.76c-4.43-2.06-7.86-2.81-7.12,4.18.24,2.25-1.77,3.29-3.59,3.75-4.15,1.05-3.93,3.57-2.53,6.65-2,4.22-8.62,6.71-11.14,3.81-3.08-3.57-7.32-4.5-11.18-6.39-6.71-3.1-13.62-.51-20.43-.78C845.62,373.48,844.46,372.29,843.79,365.84Z" fill="#7d6e63"/><path d="M822.47,947c6.77-.28,6.45-7.7,10.61-10.79,1.95-1.46,3.16-4.17,5.46-5.61a3,3,0,0,1,1.1,2.44c-.25,2.77-1.4,5.25-2.43,7.78a8.9,8.9,0,0,1-2.36,3.7c-1.77,1.8-1.6,3.82-.26,5.63,4.06,5.49,5.53,12,7.24,18.36A24.75,24.75,0,0,0,855,984.83c1.46.75,3.14,1.16,4,2.79.07,5-3.86,8.06-6,12.38a44.91,44.91,0,0,1-8.15-14.76c-1.81-5.22-3.92-5-7.06-1.38-1.68-2.11-1.44-4.47-1.77-6.73-.56-3.9-2.48-8-5.74-9.27-8.5-3.25-8-9.49-6.63-16.24C824,949.65,823,948.49,822.47,947Z" fill="#5a5045"/><path d="M938.91,318.14c2.41,2.83.53,6.47,1.68,9.63,1.56-.74.62-2,.88-3,.5-1.83-1.12-5,1.66-5.23s5,1.76,4.67,5.24c-.06.63,0,1.26,0,1.88a14.15,14.15,0,0,1-1.12,1.07c-.6,5.57-2.11,10.7.74,16.64,2.19,4.53,1.72,10.59,2.1,16-.1,2.78,1.07,5.8-1.57,8.08-4.49-1.38-5.1-4.89-4.86-8.88-2-5.24-5.13-9.93-7.17-15.14-1.08-2.79-3.39-3.46-6.06-3.48s-3.62,1.49-3.79,4c-.14,2.07-1.12,3.57-3.42,3.77a2.87,2.87,0,0,1-2.12-1.64c-.89-2.72-1.82-5.38-4.18-7.3a6,6,0,0,1-2.22-6.55c1.33-3.08,3.47-2.45,5.59-1.07,1.86,1.22,3.63,3.59,5.73.71,1.81-2.49,3.81-5.18.61-8.28-2.46-2.38-1.94-5,.4-7.1,2-1.76,4.44-2.95,6,.64C934.61,323.2,936.73,321,938.91,318.14Z" fill="#97897d"/><path d="M717,399.55c3.06,5.36,8.26,8.73,12.22,13.25,3.25,3.72,2.08,14.69-2,17.33-2.47,1.58-7-1-7.71-5A16.8,16.8,0,0,0,711.1,413c-1.88,1.43-.21,2.27,0,3.32.57,2.48.21,5.45-1.72,6.61-1.72,1-2.9-1.65-3.89-3.19-1.27-2-2.44-2.67-4.21-.32-1.39,1.85-3.34,3.26-5.88,2.55-.45-.13-.94-1.42-.82-2.05.48-2.58,2.15-3.35,4.74-4,2.41-.56,4.42-4.06,5.8-5,4.56-3,5.77-6.7,6.72-11.34.29-1.39,2.55-1,4-1.24Z" fill="#605249"/><path d="M931.54,412.44c-3.3,8.8-8.18,16.52-15.67,22.31-1.18.91-3,2.38-4.45.73s-3.26-2.23-5.09-3c0-.82.06-1.63.1-2.44.91-6.78.78-13.66,1.87-20.41,3.4-3,8-3.15,11.91-4.78,4.11,0,8.1,2.25,12.41-.53,2-1.3,3.77.77,2.89,3.5C934.84,409.91,932.9,410.93,931.54,412.44Z" fill="#5e4c41"/><path d="M866.1,339.09c3.51-9.37,11-14.2,19.76-17.71,3.62-.82,7.28-1.36,10.94-2,3.86-.65,7.16-.32,9,3.44,1.94,4,.74,7.6-2.16,10.83-2.56,2.88-6.07,3.31-9.44,4.19-3.08.77-6.23.46-9.35.61a16.61,16.61,0,0,0-4.82,1c-2.34.2-3.92,2.06-6,2.81C870.58,343.55,867.18,344.07,866.1,339.09Z" fill="#92392b"/><path d="M965.74,455.7c-2.28-5.21-2.64-10.87-3.77-16.35a2.26,2.26,0,0,1,2.73-.15c1.47,1.45,2.52,2.14,3-.84,1.07-6.2.93-12.52,2.1-18.7,1.51-8,3.52-15.94,3-24.2a9.2,9.2,0,0,1,.75-4.3c.62-1.44.9-3.69,3-3.31,1.75.31.4,2.7,1.5,3.75.27,2,.56,4.09.82,6.14.87,6.94,2.77,13.86.11,20.86-1.13,3-.68,6.12.29,9.14-1.26,4.45.07,9.23-1.64,13.62-.53,1.34-1.14,3.2-2.8,2.87a2.25,2.25,0,0,1-1.77-2.43c.71,7.78,2.91,17-2.32,25.49-4.22.43-5.35-2.12-5.21-5.64C965.61,459.67,966.87,457.73,965.74,455.7Z" fill="#938478"/><path d="M843.79,365.84c3.53,6.84,5.53,7.9,14.92,5.85a23.24,23.24,0,0,1,15,1.64c1.22,1.32.51,2.28-.66,3s-3,1.1-3.62,2.39c-2.55,5.45-7.19,5.62-12.15,5.26a2.83,2.83,0,0,0-2.33.62c-14.41,1.68-10.84,0-17.53,9.1C835.87,383,837.22,373.86,843.79,365.84Z" fill="#2d231f"/><path d="M854.93,384.63c1.87-1.84,4.31-1.09,6.5-1.45,1.21-.2,3.32-.31,3.44-.83,1.13-4.9,5.87-6.06,8.82-9,3.64,2.57,9.5,1.86,11,7.56,3.07-1.19,6.73-1,9.13-3.78,3.1-.78,6.33-.05,5.39,3.5-1.81,6.86-.18,12.54,3.55,18.05a1.15,1.15,0,0,1-1.6,0c-6-2.94-12.07-7.52-17.81-9.07-8.46-2.27-17.13-6.88-26.58-4.83A6.19,6.19,0,0,1,854.93,384.63Z" fill="#675f5a"/><path d="M935.19,464c-2.56-1.43-3.63-.56-3.93,2.26-.18,1.57-.73,3.45-2.61,3.78-2,.37-2.06-1.69-3-2.76-2.37-2.69-5.5-1.83-8.17.32.29-2.51-2.2-3.42-3-5.27-1.17-2.65-.55-5.43,1.87-6.56s3.66,1.06,3.8,3.45c.11,1.78.28,3.41,2.62,3.49,2.16.07,3.43-1.4,4.64-2.82,2-2.38-1.36-2.37-1.72-3.69-2.24-8.07-8.64-8-14.83-7.11-3.78.52-6-2.78-9.29-2.65-.12-1.41-.7-2.92.88-3.94a4.05,4.05,0,0,1,1.22.21c5.15,2.54,10.71,2.19,17.66-1.35,2.54-1.29,5-3.93,7.86-1.87,1.88,1.35-.92,3.24-.86,5,.23,5.95-4.84.35-6.47,3.37,5.52,1.3,9.41,5.6,14.68,7.35C936.89,458.33,937.49,461.41,935.19,464Z" fill="#705d52"/><path d="M744.75,427.33c13.55,9.09,22.07,22.15,28.61,36.76-2.5,2.23-6.07,2-8.76,3.79h0c-1.3,1-2.66.67-2.94-.73-.61-3.09-2.07-5.92-2.69-9-1.4-6.77-1.59-7-8.35-5.29a13.25,13.25,0,0,1-3.06.59c-1.74-.2-2.89-1.25-2.34-2.91,2.58-7.76,1.77-15.29-1.1-22.75A7.91,7.91,0,0,1,744.75,427.33Z" fill="#87796f"/><path d="M837.28,795.9c.34-2,1.23-3.27,3.35-2.14,1.67.9,3.56,2.43,2.7,4.39-1.64,3.71.14,5.88,2.55,8.07,1.76,1.61,1.74,3.79,1.46,5.83-.48,3.48,1.37,6,3.14,8.52,1.56,2.24,3.42,4.06,5.67.55.65-1,1.55-1.5,2.51-.51,1.17,1.21-.31,1.72-.85,2.43-2.12,2.8-4.3,5.57-6.42,8.37-2.44,3.21-.18,3.34,2.21,3.36l-7.55,7.56c.51-5.51-2.65-10.44-3.13-15.38C841.88,816.37,835.1,806.92,837.28,795.9Z" fill="#61574e"/><path d="M938.91,318.14c-.38,2.1.72,5.25-2.48,5.59-2.43.26-4.3-1.88-5.72-3.78-.5-.67,1.38-2.65-.77-2.83-1.71-.14-3,1.14-3.83,2.74-.66,1.25-.92,2.66.38,3.3,7.31,3.63,1.65,7.79.12,11.18-1.26,2.78-4.15,4.15-6.56.21-1.08-1.76-2.42-3.61-4.86-1.6-4.8-2-1.11-5.3-1.25-8,3.95-4.82-1.37-7.44-2.6-11C921.13,311.4,930.53,311.39,938.91,318.14Z" fill="#735f52"/><path d="M866.1,339.09c2.74,3.28,5.76,3.86,9,.73a6.3,6.3,0,0,1,5.07-1.82c.66,2.16-1.18,4-.66,6.19-.38,2.24-.07,4.7-2,6.46-3.77,1.19-8,1.6-6.46,7.77a5.6,5.6,0,0,1-3.79,6.36c-4.07,1.6-3.14-1.69-4-3.44-.35-.77-1-1.35-1.95-.69-3,2.2-4.28-.73-5.23-2.31-1.45-2.4,1.54-2.08,2.53-3.07,2.49-2.47-.7-5.92,1.24-8.59C861.6,343.86,863.14,340.88,866.1,339.09Z" fill="#4d3a31"/><path d="M846.11,780.62c-3.3,2.58-5.43-1.32-8.23-1.51-4.08-.27-.92-3.22-1.66-4.78-.55-1.18,0-2.85-1.39-3.83a11.76,11.76,0,0,1,.1-6.31c1.27-4.92.32-9.92.52-14.88.06-1.46-.9-2.24-2.23-2.59l-.4.17-.43-.12c1.8-3,3.74-5.8,7.49-6.53,3.44.38,2.53,3.26,2.87,5.28.93,5.51.37,11.34,4.65,16,2,2.14-.17,4.83-.13,7.29,0,2.73.3,5.45.27,8.19A4.56,4.56,0,0,1,846.11,780.62Z" fill="#625850"/><path d="M985.52,451.47c.54-1.76,1.07-3.53,1.61-5.29l1.84-.25q3.35,25.38,6.7,50.76c.26,2.86,2.15,7-3.85,4.93-.43-.44-1-.94-1-1.52,0-8.91-5.16-16.21-7.47-24.4-.78-2.77-.08-5.34.49-8,.48-2.22,1.36-4.4.91-6.75C984.52,457.77,988.87,454.94,985.52,451.47Z" fill="#938478"/><path d="M957.3,339.23c1.14-.12,2.3.18,2.23,1.45-.38,7.65,2.13,15.21.6,22.91-1.14,5.77-.5,11.61,0,17.41a31.1,31.1,0,0,1-1.86,14.43c-1.76-1.12-4.43,2.69-5.71-1.06,2.87-7.14-.39-14.16-.42-21.23,1.41-3.73,2.91-7.46,1.37-11.54-1.41-6.42-2.4-12.76,3.57-17.67C957.16,342.36,957.23,340.8,957.3,339.23Z" fill="#97897d"/><path d="M809.77,534.69c.37-1.87-4.08-6.66,3-4.64,1.28.36,1.36-2.62.16-4.47-1-1.53-3.51-4,.83-4.86L829.83,526c-.22,1.78.59,3.82-1.24,5.16-2.93.2.95-4.27-2.18-3.31-1.92.58-3,2.46-2.49,5.07,1.42,7.24,1.09,7.51-6.65,8.08C812.77,542.94,811.79,542.11,809.77,534.69Z" fill="#534234"/><path d="M945.45,930.39c4.19,4.82,5.36,11.76,3.69,16.43-3.45,9.66-1.42,19.21-2.46,28.72-.34,3.12-.91,6.22-1.31,9.33-.3,2.35-1.23,4-3.88,4-1-1-2.46-1.87-1.84-3.64,4.77-13.45,2.4-27.67,4.44-41.41.24-1.64-.28-3.59.42-4.94,1.88-3.62-1.52-3.32-2.92-4.51A8.37,8.37,0,0,0,945.45,930.39Z" fill="#998e85"/><path d="M911.34,313.9c3.38,2.61,9.31,4.26,3.83,10.22a1.72,1.72,0,0,1-1.74-.08c-1.65-.9-2.34-4.75-4.65-2.75-2.06,1.78-.59,4.86,1,6.7,2.92,3.34,3.62,6.45.43,9.9l-.11.17c-4.21.64-8.51.06-12.73,1-1.44.32-3.48.29-3.54-2.23,2.59-2.28,6.58-1.29,9-4.54,2.31-3.05,3-6,1.54-9.13s-4.36-2.73-7.5-2.14c-3.58.68-7.36.28-11.06.34C893.67,316.55,902.39,314.83,911.34,313.9Z" fill="#806155"/><path d="M715.52,397.36c-3.5-.34-5.06-3.35-7.08-5.51-2.23-2.37-5-3.44-7.75-4.74-6.6-10.25-18.15-14.05-27.34-20.92-2.23-1.67-4.13-3.18-5.3-5.65a163,163,0,0,1,28.14,17.78c4.56,3.57,8.3,8.14,13.44,11.14C712.52,391.15,714.37,394.11,715.52,397.36Z" fill="#8f8377"/><path d="M970.72,877.17c3.24-2.08,4.16,2.13,6.52,2.42,1.28,3.66-.33,6.93-1.38,10.27-3-.42-1.78,3.28-3.73,3.88l-4,8.6c-3.09-.34-2.42-2.7-2.22-4.54a34.51,34.51,0,0,0,.52-5.37,31.4,31.4,0,0,1,.57-6.12C968.26,883.26,967.47,879.39,970.72,877.17Z" fill="#998e85"/><path d="M927.7,985.09c2.1-.46,1.41-1.89,1.4-3.37-.05-10.19-.79-20.41,1-30.55.35-2,.17-4.17,2.71-5.78-.44,11.59-1.72,22.78-1.13,34,.11,2-1.5,4.91,2.28,5.39C932,986.84,929.87,986.53,927.7,985.09Z" fill="#998e85"/><path d="M720.57,775.71a11.92,11.92,0,0,1,2.42-1.89c2.47-1.09,5.64-4.09,7.24.31,1.16,3.17,3.18,7.92-3.19,8.94C724.11,781.31,721.39,779.35,720.57,775.71Z" fill="#7d736a"/><path d="M800.77,924.43c2.18,1.1,1.2,3.33,1.78,5,1.05,3,2.31,5.68,6.06,6.36,3.14.57,6.73.84,7.83,5,.28,1.08,1.73,1.27,2.71,1,6.12-1.93,3.32,2,2.94,4.41a9.65,9.65,0,0,0-5.55-3.27C808.44,941.11,800,935.32,800.77,924.43Z" fill="#5a5045"/><path d="M868.5,497.76c1.62,6.34-2.31,11-5.2,15.74-1.31,2.17-2-1.08-3.18-1.4A89,89,0,0,1,868.5,497.76Z" fill="#766358"/><path d="M901.17,398.67l1.54-.31c5.9,2,7.32,4.24,6.51,10.25l-2.79,21.44c-.74-4.57-1.41-9.45.16-13.65C909.49,408.7,906.07,403.62,901.17,398.67Z" fill="#938478"/><path d="M982.84,468.92c-1.17-.37-1.09-1.48-1.39-2.37,1.94-4.87,1.41-10.41,4.07-15.08,4.26-.09,3.4,2.81,2.71,5.15-.44,1.47-1.73,2.69-2.64,4C986.72,464.09,984.77,466.5,982.84,468.92Z" fill="#938478"/><path d="M951.43,332.72c-1.75,2.77-.39,6.09-1.78,9.44-2.25-5.17-4.27-10-3-15.5.38,0,.77,0,1.15,0C949.71,328.24,951.89,329.67,951.43,332.72Z" fill="#97897d"/><path d="M764.6,467.88a9.47,9.47,0,0,1,8.76-3.79c.73,1.6,1.7,3.13,1.35,5-1.6,1.54-3.13,3.36-5.24.55C768.26,468.07,766.48,467.78,764.6,467.88Z" fill="#635448"/><path d="M968.91,356.74c-4.4-1.69-2.21-7-5.14-9.66-.57-.52,1.57-1.43,2.82-1.5l2.43,3.81Z" fill="#97897d"/><path d="M785.92,775.4c4.57-3.92,6.45-10.09,11.39-13.69C794.84,767.39,792.2,772.92,785.92,775.4Z" fill="#90867e"/><path d="M833.22,746.72c1.36-.1,2.75.28,2.7,1.76-.18,5.24,1.44,10.61-1,15.71C833.61,758.44,836.91,752.24,833.22,746.72Z" fill="#766c63"/><path d="M671.73,595.23l-1.26-10.08c-.11-3.51.27-6.95-.72-10.53-1.19-4.3,3.12-8.63,8.71-9.42,2.26-.32,4.44-.42,6.6-1.53,9-4.6,9.19-13.09,4-22.19-1.23-2.14-3.25-3.91-2.25-6.76,4.38,1.79,8.78,3.71,12.45-1.31,1.88,1.73.69,3.86.82,5.85.64,10.17,3,19.62,11.76,26.11,2.56,3.79,8.91,4.46,8.66,10.65,0,.89,1.3.72,2,1,4.14,1.5,4.81,4.27,2.66,7.89-1.52,2.57-2.66,5.25-2.45,8.29.19,2.84-4,2.25-3.55,3.37,1.39,3.59,3.79-.91,5.6.16,2.85,1.67,2.51,4.64,2.24,7.31-.36,3.43-.9,6.77,2.93,8.71,1.49,1.06,3.28.29,4.84.77,4.83,1.52,6.56,6.1,3.42,9.48-2.13,2.3-5.21,4.24-3,7.82s6.23,2.61,9.57,2.67c2.15,0,4.17-2,6.57-.82,2.52,2.15,6.09,4.81,3.93,8s-7,4.1-10.8,2.42c-4.52-2-8.8-1.9-13.33-.9-2.24,0-3.85,1.27-5.48,2.65-1.89,1.61-4,2.26-6.24.53-2.43-1.89-2.34-4.22-1.12-6.73a9.17,9.17,0,0,1,.77-1.71c5.4-7,1.95-13.49-2.21-18.71-5.32-6.69-8.19-15-14.27-21,.62-5.3-1.21-9.41-6-12a11.89,11.89,0,0,1-6.08-7.57c-.19-.58-.21-1.35-.64-1.71-1.61-1.31-1.72.5-1.76,1.17-.29,5.29-3.62,9.57-4.61,14.69-.73,3.75-2.27,7.59-6.05,9.74C671.14,602.51,670,601.3,671.73,595.23Z" fill="#86796d"/><path d="M719.39,440.16c4-.58,4.35,2.68,4.75,5.08.69,4.11,2.48,6.48,6.82,6.24,2.74-.15,3.67,1.27,3.52,3.78-1.73.77-3-1.1-4.6-.83-.63,0-1.61-.09-1.79.3-2.28,4.86-8.54,6.53-9.5,12.6-.53,3.37-3.38,5.54-6.25,7.45-3.31,2.21-2.54,9.55,1.06,11.33,2.13,1.06,3.24-.13,3.53-2,.6-4.05,2.93-7.34,4.58-10.9,2.47-5.29,3.63-5.34,7.1-.92a20.67,20.67,0,0,1,2.42,3.63c.8,1.7,1.67,2.27,3.87,1.75,7.35-1.73,8.08-1,8.67,6.72a27.38,27.38,0,0,0,.85,5.56c2.11-2.74,3.86-5.75,6.3-8.25.69-1,.87-2.67,2.29-2.68,1.17,0,1.2,1.39,1.48,2.38.64,2.29-1.66,6.15,2.71,6.48,4.65.35,4.85-3.52,5.38-6.83.06-.35.5-.64,1.14-1.41.86,2.74,3,4.27,2.4,7.45-.5,2.49-2.53,5-.65,8.2,3.54-2.25,5.3-6.78,10.1-7.54-5.71,5.19-7.27,12.76-11.51,18.72-1.67,2.33-5-.17-6.14.82-3.07,2.78-6.15-2.7-6.83-.65-2,6.13-5.3-2.09-7.56,1.15-.81,1.15-2.72-.28-2.73-2.1,0-3.17-.29-5.14-4.06-7a9.35,9.35,0,0,0-8.25-.34c-5.88,2.13-13,2.19-16.59,8.69-1.27,2-1.11,4.47-1.08,6.56.13,7-5.13,10.43-8.92,14.88-2.59-4.48.33-8,2.18-11.57.94-1.85,2.34-3.45,3.4-5.24.79-1.31,0-2.52-.84-3.4-1.38-1.5-1.91.23-2.84.9-5.49,4-6.38,3.19-8.5-3-2.47-7.15-2.17-12.18,4.41-17.41,2.33-1.85.7-8.71.88-13.28.08-2.05-.51-4.42,1.65-5.71,5.54-3.31,5.29-8,3.21-13.05-1.09-2.67-1.5-5.2.18-7.75,3.9-2.56,7.58-4,9.39,2.57C718.32,447.89,718.46,443.88,719.39,440.16Z" fill="#75665a"/><path d="M686.78,534.72c1.41,2.78,2.63,5.58,5.4,7.52,2.16,1.52,3,15.11.83,16.8-4.16,3.26-7,8.71-14,7.55-5.11-.85-9.14,5.19-7.07,9.9,1.51,3.43.43,6-1.43,8.66-2.33-.32-4-1.1-3.06-4,.38-1.13,1-2.71-.8-2.92s-2.29,1.48-2.3,3a15.18,15.18,0,0,0,.63,3c.82,4,.59,7.12-4.75,4.59-1.74-.83-3.19.19-4.77.15a2.37,2.37,0,0,1-.79-2.83c2.62-4.27,4.91-8.42,3.48-13.86-.53-2,1.65-3,3.67-3.47,8.79-2.24,8.78-2.29,9.53-10.86a7.17,7.17,0,0,1,2.31-4.33,9.86,9.86,0,0,0,1.25-12.27,3.84,3.84,0,0,0-4.75-1.91c-1.67.41-3.65.67-4.5-1.07-1-2.08,1-3.38,2.19-4.72.56-.61,1.34-1,2-1.55,3.55-3.26,3.64-6.19.16-9.54a33.53,33.53,0,0,0-4.92-3.87c-5.86-3.82-6.58-6-4-12.68a50.91,50.91,0,0,1,3-6.9c1.47-2.62,2.31-4.84-1-6.86-2.11-1.29-1.77-3.33,0-4.65,2.47-1.8,3.49-6.47,7.9-4.61a10.11,10.11,0,0,1,5.29,13.51c-1.64,3.43-1.8,5.35,2.51,6.13,2.92.53,3.54,3.23,4.3,5.63.83,4,2.09,8-3.18,10.34-1.63.71-1.37,2.05-.14,4C682.24,526.43,686.2,529.63,686.78,534.72Z" fill="#7c6c5f"/><path d="M683,508.22c-2.12-2-3.08-5.09-7.31-4.73-2.86.24-4.72-1.85-2.23-5.55,3.94-5.86,2.85-9.83-2.71-13.78-1.4-1-2.08-.5-3.06.59-1.66,1.85-3.52,3.52-5.83,5.79,7.7,1.17,6.84,4.73,3.42,9.41a32.85,32.85,0,0,0-3.93,7.86c-1.36,3.63-2.47,7,3.25,8.59,3,.82,5.49,3.7,7.88,6A6.81,6.81,0,0,1,671.22,533a15.2,15.2,0,0,0-5,4.5c1.62,1.66,3.4,1,4.88.91,3.94-.34,6.68,1.85,6.46,5.14s4.76,8.32-2.3,10.4c-2,.61-3.12,2.51-2.49,5,1.7,6.88-1.71,11-9.76,11.07-4,0-4.82,2.47-3.53,4.63,2.52,4.21.62,6.62-2.15,9.14a5.78,5.78,0,0,0-1.91,5.09l-2.53,1.25c-2-3.22-4-6.43,0-9.67,1.28-1,1.18-2.6,1.45-4a17.15,17.15,0,0,1,11.74-13.68c4.74-1.53,2.17-5.82,4.76-7.94,2.36-1.94,4.23-4.43.59-7.58-2.31-2,2-4.33.59-7.29-3.84,2.33-8,1.84-12.3,1.52,0-3.06,2.73-4.07,4.23-5.89s.52-3.15-.44-4.48c-1.1-1.52-2.33-1.25-3.68,0-4.45,4-5-.16-5.58-3-1.38-7-1.23-7-6.61-2.63-1.55,1.26-3.26,3.44-5.3,2a4.2,4.2,0,0,1-1.22-5.1c1.2-2.25,3.21-3,5.83-2.54,5.75.91,12-3.93,12.17-9.6.09-2.6.95-4.91,1.58-7.32.41-1.54,1.83-3.34-.36-4.35-1.71-.79-3.7-.79-5,1.18a9.64,9.64,0,0,1-1.58,1.95c-1.18,1-2.09,3.08-4,2.12a5,5,0,0,1-2.13-2.9c-.7-2.34,1.49-2.71,2.89-3.31,1.77-.77,2.2-1.67,2.85-3.72a31.31,31.31,0,0,1,12.78-16.39c2.46-1.63,7.21-.5,8.75,2.51,2,4,3.6,2.91,6.11,1.06a22.48,22.48,0,0,1,4.44-2.3c2.68-1.17,4,.77,4.77,2.68.92,2.13-.92,3-2.48,3.58-1.74.66-3.69.82-5.34,1.62-4.42,2.16-5.3,5.89-1.92,9.42S683.22,503.93,683,508.22Z" fill="#86796d"/><path d="M701.9,528.41a21,21,0,0,1,6.2-9.4c3.1-2.69.86-8.46,3.8-12,.13,6.32-1,12.72,4.29,18.12,2.26,2.29,3.47,3.1,5.91,1.17,4.31-3.41,5.46-.23,6,3.14.73,4.76-.13,9.49-1.16,14.15-2.41,3.26-2,6.6-.44,10.08,1,2.27,2.39,4.7-1.48,6-2.35.79-.51,2.34-.22,3.58,1.08,4.77-.12,6.28-5,5.44-2.69-.47-6.08.92-7.95-2.41-5.55,0-7.24-4.78-8.87-8.41-3.42-7.66-6.87-15.62-3.75-24.42Z" fill="#685749"/><path d="M599.43,531.51c-2.34-1.13-3.94,1.38-6.23,0,7.22-7.17,16.67-10.45,24.57-16.06,2.49-1.76,6.42-2.27,9.08,1,1.31,1.61,2.58,1.9,4.24.53,1.19-1,2.71-1.76,3.78-.12,1,1.47-.4,2.68-1.19,3.91a60.66,60.66,0,0,0-4.49,7.54c-1.61,3.55-1.85,7.25,1,10.44,1.4,1.57,5,2.18,3.3,5.06-1.35,2.25-4.26,3.4-7.08,3.41-7.3,0-10.75-4-9.95-11.14.51-4.56-.54-9.18.93-13.75.74-2.3-1.06-3.27-2.9-2.12-3.34,2.09-7.11,4.08-9.42,7.1-2.48,3.24-1.6,7,2.18,9.75,5.35,3.89,5.58,14,.61,18.05a5,5,0,0,1-5.87.41c-2.45-1.45-1.85-3.91-1.42-6.22.33-1.74,2.81-3.39,1.14-5s-3.43.48-5.09,1.1c-2.08.78-4.8,1.47-5.48-.82a7.29,7.29,0,0,1,2.47-8.32C595.57,534.77,598.38,534.44,599.43,531.51Z" fill="#86796d"/><path d="M630.09,675.7a2.75,2.75,0,0,1-2.8,2.55c-1.55,0-2.93-.71-2.74-2.52s1.6-2.21,3.15-2.23C629.06,673.49,630.11,673.92,630.09,675.7Z" fill="#86796d"/><path d="M834.85,944.51c0-1.4-.18-2.87,1.27-3.78,3.43-1.66,3.6-4.41,2.49-7.58,0-.85-.05-1.71-.07-2.56l2.63-5c1.31-1.5,3.29-1.68,4.92-2.56s3.45-2.34,2.82-4.37c-2.69-8.67,3.69-12.37,9.11-17.06-2.13-1.85-5.53-.14-7.17-2.63a3.39,3.39,0,0,1,.31-1.13c7.56-4,9-14.15,17.15-17.53,2.47-1,2-3.05,1.55-4.77-2.16-8.41.06-14.91,7.25-20.11,2.81-2,4.68-5.56,1.09-9.1-2.55-2.5-1.78-5.29-.51-8.08,4.12-4.6,9.83-6.71,15-9.69,6-1.85,2.22-6.73,3-10.17.16-.75-2.09-1.87-.92-3.08s2.67-.05,3.92.61a3.31,3.31,0,0,1,1,.73c1.16,1.44,2.71,2.34,4.31,1.28,1.92-1.28-.45-3,0-4.55,5.53-1.87,9,1.72,12.1,5.13,2.87,3.14,5.37,5.73,10,3.4,1.4-.7,3.5-1.19,4.4.72,1.26,2.65-1.43,2.85-2.85,3.77a13.62,13.62,0,0,0-2.31,2.05c-3.93,0-7.84.56-11.3-2.34-2.17-1.82-3.89-1.17-3.8,2,.07,2.67-1.66,5.11-3.57,5.45-7.07,1.26-7.6,7.52-9.86,12.27-1.47,3.08-2.45,5.66-6.06,7.23-5.15,2.25-6,6.55-3.22,11.66s.29,10.37-.4,15.25c-.75,5.45.36,11.33-2.86,16.54-1.22,2-.17,4.3,3.07,3.28,2-.64,4.66.37,5.48-3.09,2.89,5.25,1.82,10.23,2.94,14.81.37,1.51,0,2.92-1.6,2.31-5.76-2.16-10.38,1-15.29,2.89a4,4,0,0,0-.85-.63c.26.23.57.41.86.62-3.46,8-10.43,11.8-18.15,13.6-3.66.86-5.49,2-6.42,5.38-1.77,6.51-5.07,10.77-12.67,11.73C837.81,948,837.06,945.42,834.85,944.51Z" fill="#8c837a"/><path d="M935.12,808.53c-2,1.25-1.06,3-.44,4.35,3.27,7.43,4.54,15.44,6.78,23.17-1.94.05-4.28,0-4.59-2.25-1.15-8.11-5.41-8.71-11.62-5.33-.34-3.25,3.11-3.26,4.64-5-.57-.4-1-.86-1.16-.78-6.22,3.34-10.74,2.32-14.6-4.18-1.9-3.2-6.21-4.55-10.2-5.13-1.27-1.45-2.76.51-4.1-.28-.93-.55-1.9-1-1.67-2.31a1.34,1.34,0,0,1,1.94-1c2.57.94,4.52.88,5-2.45s-1.33-4.59-4.08-5.27c-.93-.23-1.86-.49-2.85-.75.65-2.79,3.72-1.13,4.45-3.14,4.21-2.34,9-2.94,13.5-4.47,4-1.35,11.43,4,12.26,8.17.62,3.17,2,4.91,5.37,4.69C934.92,806.54,935.75,807.11,935.12,808.53Z" fill="#81766d"/><path d="M936.48,862.58c-2.56,1.72-.12,3.52-.09,5.29-2.69,2.55.26,6.5-2.78,9.9-3.52-7.57-2.14-14.69-.33-22.07C934.35,858,935.41,860.28,936.48,862.58Z" fill="#998e85"/><path d="M929.2,911.75c-2.51-7.13-1.87-14.2.61-21.25C930.12,897.59,930.87,904.69,929.2,911.75Z" fill="#998e85"/><path d="M839.86,737.67c-5.76-1.75-9.61-7.42-16.15-7.69-5.65-.24-7.32,1.66-5.54,6.91,1.83,5.41.33,7.82-5.17,8.38s-10.3-1.34-14.86-4c-2.29-1.34-3.27-3.51-2.94-6.39a4.15,4.15,0,0,0-2.85-4.43c-1.3-.48-2.37.27-3.38,1.11-1.87,1.55-1.51,3.18-.5,5,2,3.76,2.35,8,3,12.09.25,1.63,2.5,3.25-.35,4.72s-4.58,0-5.77-2c-2.36-4.14-3.59-8.81-5.5-13.18-2.42-5.52-7.12-8.69-11-12.4-3.41-3.24-8.6-.83-12.86.73-.43.15-1,1.23-.85,1.46,2.48,3.87,1.14,8.65,3,12.62.65,1.36,3.3,2.27,1.64,4.06-1.31,1.4-4.38,1.34-5.25.26-3.43-4.32-8.7-6.33-12.15-10.44-1.13-1.36-2.2-3.21-1-5.22,1.55-2.59,3.81,0,5.78-.56-4.48-5.1-8.43-9.56-6.8-17.47,1-4.92-.74-10.49-.13-16,.46-4.16-5.3-5.32-8-8.1-1.81-1.86-5.48-2.46-5-5.81.56-3.53,4.16-3.87,6.89-4.47,4-.86,8-4.32,11.93.21.86-2.4-.23-3.58-1.05-4.67-1.18-1.57-4-2.47-2.67-5,1.19-2.38,3.8.34,5.69-1,.66-.47,2.31.61,3.53.79s2.81,1.84,3.88-.07c.75-1.35.17-2.79-.69-4.13a20.88,20.88,0,0,1-1.46-3.38c4.36-1.43,7.88,2,12.43,2.22-.31-4-3.49-6.2-5.08-9.19-1-1.8-2.64-3.64-.92-5.71a4.89,4.89,0,0,1,5.75-1.29c3.38,1.3,7.08.55,10.42,1.92,6.15,3.66,1.49,6.67-.95,9.57,1.89,1.77,3.93.71,5.66,1.34,2.14.79,4.35,2.19,3.15,4.48-3.61,6.9,2.63,10.34,5.4,14.16,3.28,4.51,7.73,8.09,8.85,14,.14.71-.14,1.37,1.15,1.73,7.3,2,9.89,6.29,8.67,13.12-.74,4.11-3,6.21-7,6.93-2.42.44-5,.75-7.12,4.19,5.49-2.76,9.38-2.75,10.41,3.7.33,2.1,2.27,2.88,4.19,3.27,1.45.31,3.06.6,3.86-1.06s-.26-2.76-1.5-3.7c-.67-.51.16.13-.53-.34-2.1-1.42-6.06-.7-6.11-4.39s3.65-3.24,6-4.18c2.88-1.15.35-3.94,1.45-5.51,3-4.21,2.3-7-1.94-10.27-3.6-2.82-2.53-12.55.74-15.76,2.78-2.72,12.88-2.26,15.95.65,1.45,1.36,1.21,2.85,1,4.59-.69,5.77.78,8.95,5.8,13a9.69,9.69,0,0,0,1.48-8.32c-1.52-6.51.92-10.33,6.93-12.46,1.14-.4,2-1.49,3.21-1.9,1.56-.54,2.89-.39,3.6,1.38-.24,9.26-.83,18.53.9,27.72A86.72,86.72,0,0,1,848,719.61a46.55,46.55,0,0,1-3,12.76C844.16,734.83,843.37,737.67,839.86,737.67Z" fill="#766c63"/><path d="M678,600.27c4.31-7,6.23-15,8.21-22.83.53-2.13.9-4.49,3.31-4.57,3.38-.1,1.9,2.92,2.29,4.7a44.64,44.64,0,0,0-5.76,18.94c-.37,5.27,3,7.88,8.14,8.65.88-3.27-5.07-5.56-1.52-8.27a8.55,8.55,0,0,1,10.47-.36,50.51,50.51,0,0,1,10.53,14.86c2.15,4.5,6,8.33,8.46,13.13,1.88,3.71,2.86,6.12.08,9.35a4.72,4.72,0,0,0-1.28,2.8c0,2.61-4.71,4.76-.89,7.62s4.64-1.06,6.56-2.94c.82-.81,2.72-.5,4.12-.7,4.13,6.45,4.08,6.9-1.77,10.52-1.56,1-3.08,2.12-2.13,3.91,1.22,2.31,3.1.54,4.17-.32,3.28-2.65,6.56-5.11,11-5.17,3.39-.05,6.25.58,6.28,4.89-4.62-1.18-8.57-2.73-12.15,3.26-3.44,5.76-12.79,4.14-16-1.89-1-1.92-2.1-3.61-4.25-4.36-2.93-1-4.64.87-3.56,3,1.7,3.33,4.27,6.12,2.68,10.23,6.26,1.43,3.71,7.35,5.47,11.06s0,5.78-4,4.82c-6.43-1.51-13.88.42-18.92-6-1.65-2.12-4.26-.79-6.29.49s-2.14,3.5-1.75,5.6c.52,2.75,2.78,6.35-1.38,7.41-3.81,1-6.84-2.1-8.29-5.39-1.23-2.81-1.59-6.5,2.31-8.06s4.39-4.53,4.92-8.39c.67-5-.46-9.88,0-14.88.44-4.56-3.41-7.81-8-7.84-3,0-5.36-.35-5.32-3.35,0-3.68,3.6-1.23,5.34-2.2a13.83,13.83,0,0,0,1.5-1.08c2.83-4.8,5.43-9.69,10.53-12.72,3.25-1.94,5.44-4.9,2.58-8.84-1.18-1.62-2.48-3.81-4.87-3.28-2.15.48-1.28,2.74-1.52,4.28-.49,3.17-2,4.93-5.49,4.15-4.32-.53-7.85-2.33-10-6.31.61-1.62-.28-2.32-1.68-2.46-2.54-.26-4.52-1.11-4.17-4.11a5.18,5.18,0,0,1,5.33-5A10.3,10.3,0,0,0,678,600.27Z" fill="#77695f"/><path d="M748.28,654.48c-4.28-4.9-8.41-4.68-13.18.11-1.94,1.94-5.12,2.18-7.32,4.18-1.24,1.13-2.07-.62-2.62-1.7-1.32-2.57-.74-6.46,1.19-6.62,8.22-.66,5.12-5.6,4.37-9.8,4.83-.8,9.39-2.33,14.26,1.14,2.87,2.05,6.65-.47,10.29-1.74-1.61-2.48-3.06-4.73-4.52-7-2.41-2.94-4.59-4.82-8.41-1.31-2.49,2.29-5.25.73-6.25-2.43-.91-2.88-.41-5.65,3.11-6.33,9.52-1.85,13.8-8,14.31-17.26.11-2,.59-4,2.76-4.36,2.74-.42,4.17,1.44,4.75,4,1.45,6.24,4.4,11.25,10.87,13.36-1.54,3.34-4.33,4-8,2-2.46-1.37-3.61-4-6.08-6.49.37,5.72,1.54,10.85-1.5,15.6-1.27,2,.87,3.35,2.21,4.65,5.26,5.09,11.48,8.87,17.5,12.91l-.21.87c-3.61-.5-7.43,1-10.86-1.4a3.56,3.56,0,0,0-4.53.76c-1.46,1.49.56,2.54,1.26,3.62,1.91,2.94,4.08,5.71,6,8.66a3,3,0,0,1-.23,4,2.5,2.5,0,0,1-3.42,0c-3.11-2.73-7.46-2.23-10.77-4.36A5.29,5.29,0,0,0,748.28,654.48Z" fill="#6c5f56"/><path d="M839.86,737.67c4.79-4.88,5.33-11.31,6.34-17.58,3.87-.49,3.83,3.84,6.26,5.13,10,1.82,10.12,2,6.95,12.47-.68,2.27-1.81,4.21,1.12,5.9,2.43,1.4,1,3.67.57,5.67-1.07,5.14-5.14,9.67-2.38,15.66,1,2.1-2.12,3.19-3.87,4.26a2.6,2.6,0,0,0-1.19,2.54c-1.1,2.46-1.5,5.5-4.95,6a3,3,0,0,1-2.49-1c0-4.13-2.33-8.33.42-12.38.3-.44.43-1.56.19-1.72-7.33-5.24-4.71-13.32-5.83-20.32a7.7,7.7,0,0,0-1.12-2.11C839.87,739.38,839.87,738.53,839.86,737.67Z" fill="#382f28"/><path d="M681.76,620.45c3-1.12,5.13-2.56,3.87-6.42a3.54,3.54,0,0,1,1.67-4.37c2.18-1.17,3.46.43,4.87,1.69,6.63,5.88,6.31,11.3-1.57,15.07-4.89,2.33-5,8.71-10.07,10.44-1.41-3.42-3-4.89-7.09-2.69-3.47,1.86-8,3.28-11.41-.63-3.28-3.74-4.18-13.4-1.27-16.52a6.2,6.2,0,0,1,9.22-.15c1.54,1.54,3.29,3,4.73,4.77C678.93,626.8,679,626.75,681.76,620.45Z" fill="#86796d"/><path d="M678,600.27c-1.46,2.68-4,3.66-6.75,3.74a4,4,0,0,0-4.21,3.76c-.44,3.06,2.12,2.29,3.81,2.65,2.79.59,4.12,1.64.89,3.72-8.15-1.32-10.86-6.38-11.49-14.36-.42-5.23,3.13-6.63,5.69-8.4,3.23-2.22,3.68,2.69,5.79,3.85C671.22,600.18,672.93,602.33,678,600.27Z" fill="#7c6c5f"/><path d="M704.45,749.06c-.38-4.67,1.85-7.36,3.22-10.36.66-1.44,1.64-2.57,3.38-1.85,1.5.62,2.41,2,1.77,3.53-1.3,3.12-.65,6,.07,9.13.54,2.27,1.25,5.67-1.84,6.47-2.87.75-4.95-1.58-6-4.36A14.65,14.65,0,0,1,704.45,749.06Z" fill="#7d736a"/><path d="M862.44,600.27c1.7-2.93,1-4.69-2.48-5,1.89-4.72,5.45-2.79,8.13-1.54,3.73,1.73,6.88.45,10.15-.77a2.93,2.93,0,0,0,2-3.46,2.7,2.7,0,0,0-3.08-2.47c-4,.64-7.61.5-9.74-3.48s-.28-8.08.7-12a13.4,13.4,0,0,1,1.38-2.79c4.93-3,5.34-2.79,7.37,3.66,4.33-6.05,7.62-1.35,10.51,1.22,4.25,3.78,1.78,7.33-3,10.51,8.12,2.28,16.57-3.17,21.91,4.72,1.31,1.32,2.87,2.47,3.77,4.12,1.72,3.17,2,5.72-2.35,7.25s-9,3.2-11.88,7.89c3.9,1.57,7,4,10.38,5.88a3.83,3.83,0,0,0,3.56.24c3.16-1.36,6.68-1.46,8.15,1.89s-.65,6.6-3.55,8.57-5.6,4-6.33,7.4c5.69.73,11.07-1.58,17.59-.7-2.37-3.28-2.88-6.68-.71-9.28,3.09-3.69,6-8.31,12-7.42a3.86,3.86,0,0,1,1.71.92c6.65,13.67,12.85,27.48,13.3,43.08a15.9,15.9,0,0,1-1.33,7.32c-1.74,2.34-.85,7.74-4.56,7.09s-2.18-5.5-2.39-8.59a22.09,22.09,0,0,1,.46-8c-.69.17-.62.85-.9,1.27-.92,2.46-6.5,4.23-1,7.55.27,9,1.33,18.05,1.16,27.1,0,1.33.39,2.45,1.86,2.81,2,.3,4.15-2,6.12.2,2.62,9.79,5.91,19.38,2.33,29.82-2.58,7.52-.68,15.21,1.2,22.68.5,2,1.67,3.81,2,5.91A19.36,19.36,0,0,1,957,757c-.12,3.1-.8,6.46-4.13,6.94-3.14.45-2.28-3.39-3.12-5.18a54.69,54.69,0,0,1-4.85-20,16.6,16.6,0,0,0-2.08-8.62c-4.41-2.18-9.19-.37-13.72-1.33-2.24-.47-4.85.17-3-3.88,1.22-2.66-1.5-2.16-3-2-9.91,1.1-9.77,1.08-12.47-8.77-1-3.79-1.79-7.75-3.87-11.21-.42-.71-1.14-1.61-.86-2.29,2.63-6.28-2.1-5.51-5.67-6.72-2.72-.92-3.61-1.31-4.58,1.9s-3.37,5.57-7.12,4.56c-3.91-1.05-5.31-4-4-7.78.93-2.76-2.51-6.35,1.65-8.41,3.48,1.33,6.44.54,9.1-2.07,2.28-2.25,5-3.86,8.33-3.77,2.49.48,4.8.34,6.87-1.45,1.34-1.16-.36-1.06-.52-1.59-2.53-2.18-4.8-4.63-8.38-5.21-1.9-.32-3.84-1.49-3-3.87.92-2.71,3.21-3.09,5.65-2.05,1.92.82,3.51,2.28,5.46,3,1.7.67,3,2.11,4.79,2.56-3.2-2.18-4.62-7.71-8.78-7.18-6.13.77-12-5.54-18.63.08,5.25-1.08,9.51-1.44,8.76,5.55-.22,2,2.52,2.55,3.76,3.91.89,1,1.49,2,1,3.39s-1.55,2.23-2.88,1.88c-3.24-.85-6.17.3-9.2,1-4,.9-6.18-1.61-8.13-4.49-2.47-2.16-6.07.12-8.51-2.15-1.92-1-3.47-3.27-6.06-1.59-5.21,3.36-8.07.14-10.28-4-1.52-2.84-3.34-5.79-2.16-9.34a81.72,81.72,0,0,0,9.5-8.91c3.85-4.35,7-5.07,10.51-.75s6.12,3.79,9.25.1c-4.55-1.67-10.41-1.16-12.2-7.42,2.22-5.49,7.91-2.47,11.45-4.73,2,.34,2.82,4.36,5.63,1.76,1.51-1.39,4-3.43,3-5-1.73-2.73-5-2.14-7.85-1-5,.75-9.69.74-12-5,1.08-4.36,4.53-4.22,7.9-4.14,2,0,5,1.46,5.84-.36,1-2.38,1.75-6.33.13-8.15-4.21-4.72-1.87-6.67,2.65-8.68-5.22,1.45-10.13,3-15.36,2.18C867.85,605.77,865.55,602.43,862.44,600.27Z" fill="#43382d"/><path d="M772.09,619.16c-5.94-.15-10.91-4.87-12.41-12.24-.44-2.16-.47-4.85-3.07-4.47-3.13.45-1.09,3.12-1.26,5-.33,3.64.57,8.28-4.82,9.51-1.11.25-1.54,1.16-1.64,2.35-.36,4.49-3.36,5.14-7.08,5-1.75-.08-4-.66-4.64,1.93-.42,1.84-.43,3.87,1.57,5,2.47,1.4,3.08-1.12,4.41-2.22,1.57-1.3,3.86-1.27,5.27-3.88,1,3.35,1.66,5.66,2.33,8a21,21,0,0,1-13.09,1.74c-2.58-.42-4-1.36-4.22-3.45-.23-2.32-2.85-5.09.89-7.13,2.11-1.14,5.35-2.84,4.33-5.26-1.12-2.64-3.73-5.49-7.78-3.82-.29.12-1-.65-1.43-1a2.89,2.89,0,0,1,1.67-2.46c7-2.31,9.17-8.81,12.25-14.44,1.53-2.79,2.4-6,6.73-3.81,4.08,2,1.52-2.74,3.16-3.29a18.22,18.22,0,0,1,2.43-1.89c3.28-1.84,6.26-8.53,8.43-6.42,4.9,4.78,13.71,7.76,11.84,17.57-.43,2.24-1,5.05,1.21,7.1,2.92,2.9,5.51,6.1,8.44,9,1.25,2.85,3,5.48,3.65,8.57a5.49,5.49,0,0,1-3.21,6.67c-2.85,1.42-5.2.9-6.81-2a13.6,13.6,0,0,0-3.78-4.07C773.42,623.37,772.65,621.34,772.09,619.16Z" fill="#7e6f64"/><path d="M784.64,615.42c-3.65-2-7.2-4.06-7.47-8.91.12-4.18-1.44-9,4.35-11,.66-.23.79-2.24,1-3.45.48-2.8-.31-6.27,4.33-6.43,1.17,0,1.47-1.84,1.57-3.14.15-2.08.05-4.67,3.06-4.37,2.79.27,5.55,1.62,5.5,4.92a49.43,49.43,0,0,1-1.43,11.9c-.67,2.52-1.33,4.53,1.35,5.8s3,5.9,6.33,4.93c3-.86,3.2-3.93,2.14-6.89-.62-1.74.69-2.42,2-2,4.69,1.6,3.36-1.91,3.61-4.11h0c1.89,2.43,1.92,5.49,1.94,8.22.06,6.31,2,9.11,8.1,9.36,5.9.25,8.91,2.47,7.79,8.84-.47,2.72,1.45,3.38,3.73,3.91,3.81.9,6.11,3.32,6.06,7.51.43,2.05-1.22,2.56-2.46,3.39-5.43,2.36-9.56,1.42-13.82-3.31-3-3.34-7-7.37-13-4.45-3.29,1.6-6.06-.28-7.88-3.3-1.43-2.36-2-5-2.76-7.64-1.33-4.28-3.67-4.64-6.34-1.1C790.12,617.16,788,619.64,784.64,615.42Z" fill="#513f34"/><path d="M753.26,590.15c-.71,2.26,3.68,3.79,1.24,5.87-1.7,1.46-4-.08-5.6-1.35-3.25-2.51-3.76,1.1-3.78,2.28-.08,6.2-7,8.32-7.86,14.36-.36,2.64-6-.58-7.81,2.84-4-1.74-5.67-4.28-4.07-8.92.81-2.34,1.12-5.34-.88-7.77-3.21,4.67-4.81,3.94-9.16-4.09,2.19-.84,3.59,2.09,6.16,1-1.9-4.14.51-7.44,2.62-10.66,2.33-3.54.06-6.31-2.43-5.27-4.44,1.87-3.89-.3-3.09-2.68.93-2.75-.28-3.82-2.36-4.85s-4.37-1.76-4.39-4.69c3.13,1.85,6.64-.09,10.15,1.37,2.73,1.13,2.92-2.32,1.39-4.08-4.18-4.83-3.81-6.94,2.8-5.49.22-5.13-8.16-10.12.72-14.49l7.57,6.28c1.32,2.66-.38,5.3-.07,8,.26,2.33.15,4.44,2.55,5.95s4.64,3.59-.72,4.18c-2.22.24-1.23,1.63-.52,2.62,3.69,5.23,3.77,13.27,11.71,15.25.33.08.72,1.09.63,1.58C746.75,594.17,750.62,591,753.26,590.15Z" fill="#736255"/><path d="M915.38,474.33c4.36,3.37,2.3,10.1,6.88,13.36-4.33,6.85,1.6,14.58-2.26,21.92-2.69,5.12-3.08,11.53-4.17,17.42s-5.42,8.8-10.5,8.37c-6.29-.54-4.69,1.65-3.54,5.51,1.35,4.52,3.6,6.13,8.29,6,3.51-.12,2.5,4.45,4.61,6.42,1.63,1.51-1.8,1.58-2,2.14-2.2,5.3-7.93,8.44-8.75,14.52a1.45,1.45,0,0,1,.4,1.06c0,.39-.08.58-.16.58-2.7,2.5-4.43,2.25-4.7-1.75-.11-1.66.84-3.24.42-5.51-2.47,1.49-3,3.77-3.55,6-.43,1.76-.35,4.13-3.26,3.37a3.54,3.54,0,0,1-2.77-4.31c.67-3.42,1.52-6.56.45-10.27-.86-2.94,3.07-3.32,5.08-4.88-1.57-2.8-3.83-3.59-7.52-3,2.59,4.1,1.19,8.25,1.42,12.31.18,3-1.87,4-4.62,3.24-4.43-1.19-6.71-9.16-3.85-13.23,1.53-1,.63-2.43.77-3.76a62.27,62.27,0,0,0-.76-15.19c.67-4.54,3.65-7.08,7.59-8.77,3.22,2.1,7.09,2.52,10.42,4.9s7.19-1.06,10.61-2.82c2.81-1.46,2.64-2.59.32-4.4-.91-.7,0-1.22.93-1.49,5.93-1.72,3.78-4.06.4-6.36-.84-.57-2.17-.83-1.7-2.15.55-1.56,1.85-1.33,3.11-.81,1.51.63,2.95.52,3.92-.88,1.12-1.63-.14-2.74-1.16-3.77-4.67-4.73.92-9.15.58-13.85-.14-1.9,3.13-5.75,1.69-6.48-3.14-1.59-4.68-5.63-8.62-5.59-1.16,0-2.19,0-2.41-1.25-.26-1.48,1-1.91,2-1.66C913.29,480.43,911.83,474.11,915.38,474.33Z" fill="#6e5b4e"/><path d="M811,592.7c-3.42-2.22-6.08-5-7.08-9.17-.24-1-.67-2.56-1.29-2.71-7.62-1.86-6.73-6.32-3.76-11.57.89-1.57,1.12-3.28-.27-4.67-3.62-3.6,2.22-7.47.43-9.46-1.56-1.75-6.2-.73-8.1-3.74-2.66-4.22,3.71-4.14,3-8,3.2,2.52,1,4.81,1.13,7.89,2.89-3.33,4.56-.67,7.49,1.12-1.83-4.73-3.69-8-6.49-10.68-1.23-1.2-1.59-2.68.1-3.66s2.1.52,2.43,1.76c.64,2.43,2.31,4.49,4.42,5,7.78,1.81,7.73,9.45,11.21,14.43a2.87,2.87,0,0,1,.43,1.79c-.36,3.2-2.81,7.18.8,9.2,2.17,1.21,5.38-1.82,8.51-1.44.81.1,2.46-1.06,2.75-.13,1.35,4.4,6.59,6.19,6.61,11.85,0,5.09-1.05,6.27-5.11,3.63-3.9-2.54-10,1.34-12.74-4.46,2.08-1.34,2.7,2,5,.9-1.27-2.43-2-7.11-4.57-6.13-2.75,1-6.42,2.1-8.48,5.72s-.5,5.4,1.69,7.47a6.06,6.06,0,0,1,1.93,5.09Z" fill="#513f34"/><path d="M881.25,553.62c-2.5,4.48,1.9,7.39,2.67,11.14.21,1,2.4,1.83,3.86,1s.79-2.12.43-3.36c-1-3.47.6-6.88-1.9-10.87-2.13-3.4,3.72-1.92,5.72-2.31,3-.58,4.8,2.37,5.6,4.89,1.1,3.46-2.57,1.35-3.66,2.55-.79.87-2.92,2-2.34,2.43,5.49,3.68.06,6.89-.21,10.25-.14,1.65.35,3.3,2,3.37,2.7.1.78-1.93,1.09-3a26,26,0,0,1,2.7-6c.85-1.4,2.19-3,4.07-2.1,2.32,1,.67,2.79.34,4.3-1.28,5.75-1.26,5.76,2.25,5.38,2,3.5,2.8,15.3,1.28,18.88-2.22-4.42-6.25-4.52-10.35-4.24a26.74,26.74,0,0,0-6.71,1,3.57,3.57,0,0,1-4.7-1.81c-1.36-2.3.54-3.61,2.11-4.44,6-3.17,1.88-4.6-.76-7-4-3.7-6.54-4.41-6.78,2-6,1.09,1-11.35-7.94-6.85a.79.79,0,0,1-1.29,0c.28-1.76-.55-3.66.87-5.65,1,.79,1.9,1.54,2.83,2.27s1.89,1.06,2.81.39c1.17-.85.13-1.72-.16-2.65C873.41,557.59,875.62,554.26,881.25,553.62Z" fill="#554538"/><path d="M868.73,568.74l1.29,0c-.47,3.5-2.66,6.56-2.53,10.23.18,5.2,3.7,8,8.32,5.88,3.07-1.4,4.44.75,5.8,2.09,1.79,1.77,1.62,4.88-.37,6.11-3.79,2.34-7.93,5.38-12.75,2.41-2.92-1.8-5.62-2.36-8.53-.25-.23,1.41-.49,3.71-2.24,2.81-3.61-1.86-6.79-4.58-11.27-3.08-.22.07-1-.51-.91-.67,1-4.7,1.06-10.07,3.51-13.85,2.17-3.35,3.61,2.48,6.31,2.9,1.85-2.63-1.24-4-1.54-5.94s-1.9-3.78-1.11-6c5.75-.76,8.95,3.21,12.56,7.56C867,575.24,865.39,571,868.73,568.74Z" fill="#504136"/><path d="M763.32,524.6c.14-2.54.25-5.14,3.79-2.51-1.55,6.34,3.51,10.88,4.45,16.55.43,2.54,2,5.08-2.73,5.54-3.26.31-3.7,2.85-1.32,5.46,1.35,1.47,3.47,2.53,3.14,5.19-2.32,1.42-3.51-1.67-5.56-1.45-.82,1.59-.37,3.79-2.29,4.9-1.1.64-2.29,1.49-1,2.9,1,1.1,1.79.26,2.48-.61,1.84-2.33,2.19-.37,2.72,1,2.17,5.63-1,9.61-4.34,13.37-1.77,2-3.3.92-4.18-1.27-2-4.85-1.74-10.58-7.21-14-1.75-1.09.62-5.28-.28-8.28-1.06-3.59,1.32-5,4.8-5.63,3-.57,4.36-4.35,7.66-5.14,1.18-.28.82-1.88.13-2.66C759.68,533.53,761.62,529.08,763.32,524.6Z" fill="#746053"/><path d="M871.19,625.37c2.62,4.75,6.78,5,11.37,3.91,1.66,1.07,4.43,1.27,4.14,4-.24,2.22-2,3-4.16,2.31-2.17,1.56-4.34,2.93-7.24,2.57-1.85-.24-3.8-.15-4,2.48-1.91.56-2.73-.64-3-2.17s.86-2.18,2.09-2.67c1.52-.61,3.28-.28,4.88-1.35-1.85-2.07-4-2.29-6.59-2.05-4.47.43-7.44-1.73-7.25-6.32.13-3.33-2.44-5.54-2.25-8.79-2.08.84-3,3.35-5.51,2.73-2.85-2.47-6.43-4.27-7.5-8.35l0-1.3h0l1.79.42c.07-10.62,4.06-1.55,6.6-1,1.09-3.67,2.82-6.44,7-3.42,1.24-2.21-1.67-4.5.93-6.05,4.07-.29,6,3.22,8.83,5.06.42,2.43,2.11,3.89,3.76,5.54,3.73,3.7,3.47,6.73-.68,9.73C872.65,621.84,870.7,622.74,871.19,625.37Z" fill="#504136"/><path d="M846.13,611.66c2.71,2.31,6,4.07,7.56,7.53,2.19,1,4.78,1,6.53,3.15,2.59,3.14,2.25,5.69-1.45,7.64-3.09,1.62-4.5,4.8-6.88,7-3.75,3.55-7.57,7-13.38,5.58a5.85,5.85,0,0,1-1.07-1.53C836.69,638.44,835,636,836,633l2.61-2.46c5.48-2.85,1.55-9.62,5.52-13.34,1.12-1.05-1.08-1.82-2.25-1.78-2.64.09-4.21-1.32-6.34-4.52A15,15,0,0,0,846.13,611.66Z" fill="#796d62"/><path d="M853.68,542.26l1.29-2.59c5.38-4.71,6.68-4.41,11.21,2.54,3.09-.83,6-2.69,9.42-1.64-1.05,3.39.45,6.4,2,10.23-6.21-1.9-9.53.52-11.29,5.81-1.89,5.68-7.15,5.54-11.87,6.83,5.54-4.6,1.86-10.15,2-15.11,0-1-.73-2,0-3.26C858.19,541.68,855.28,542.54,853.68,542.26Z" fill="#554538"/><path d="M781,513.23c.68.27,1.61.35,1.76.74,3.53,8.85,11.29,5.85,17.75,6.46a13,13,0,0,1,1.69.2c-.11,4.11.39,8.46-.87,12.21-.46,1.37-6.5,3.63-6.41-2.05.1-6.06-5-5.3-7.87-7-1.83-1.1-6.15-2.13-5.76,3.18,0,.16-1.2.74-1.47.56-3-2.07-4.15-5.12-3.84-8.69C776.21,515.72,778.3,514.19,781,513.23Z" fill="#807065"/><path d="M809.77,534.69c2.77,1.79,2.1,7.69,7.5,6.34,4.9,2.24,7.21,7.24,11.1,10.56,1.58,1.36,1.67,3.59-.37,3.93-3.88.65-2.47,6.4-6.06,6.18-4.34-.26-1.78-4.91-3.56-7.41-3.61-5-9.46-9-9.56-16.29C808.8,536.7,808.49,535.53,809.77,534.69Z" fill="#7e6e61"/><path d="M866.18,542.21c-.76-.22-2-.24-2.21-.7-2.1-5.37-5.58-3.36-9-1.84-1-1.77-1.76-4.4.9-4.35,4.56.08,8.47-.58,12-3.65.66-.59,1.76.73,2.29,1.67C870,536.84,866.66,538.87,866.18,542.21Z" fill="#746253"/><path d="M888.85,525.9l-7.59,8.78-2.48,0C881.68,531.23,882.77,525.69,888.85,525.9Z" fill="#554538"/><path d="M846.16,610.36c-3.25.36-4.43-1.9-6.3-4.58,4.43-.57,4.58,3,6.29,4.58Z" fill="#504136"/><path d="M553.56,442.51c-7.51,3.76-13.71,4.47-20.31,2.92C539.11,442.82,545,440.18,553.56,442.51Z" fill="#8f8377"/><path d="M528.09,529.79c3.17-4.39,2.1-11,7.5-14.26C533.3,520.4,533.68,526.54,528.09,529.79Z" fill="#8f8377"/><path d="M504.83,464.09l6.26-5.06c.14,4-.92,5.22-8.09,9.17C502.21,466.17,504.64,465.62,504.83,464.09Z" fill="#8f8377"/><path d="M878.76,838.55c-.57,3.09-1.91,5.44,2.26,8.3,3.35,2.3.31,8.13-2.69,9.84-8.51,4.85-8.47,12-6.78,19.83.74,3.46,2.11,6.32-3.73,5.48-3.12-.45-3.75,3.51-5.38,5.45-3.35,4-4.86,9.8-11.28,10.41.52-8.1,4.66-15.07,7.08-22.57a50.58,50.58,0,0,0,2.27-13l-11.68,17.8c.75-5.43,1.1-9.77,3.54-13.66-2.15-1.19-3.23,1.17-5.39.61,5.7-10.83,8.27-22.9,14.43-33.46,2.19-.15,4.4.11,6.52-.85,1.89-.84,3.1-.08,3.33,2.05C873.16,837.29,875.37,839.12,878.76,838.55Z" fill="#827970"/><path d="M850.85,899c3.11.8,7.87-1.69,9.14,1.69,1.2,3.21-4,3.84-6,6.17-2.83,3.38-6,5.88-3.21,11.28,1.92,3.76-2.5,7-9.62,7.48Q846,912.29,850.85,899Z" fill="#998e85"/><path d="M905.15,590.17c.76-6.37-1.32-12.55-1.28-18.88,0-.44,0-.89,0-1.33,4.05,1,2.52,4.46,2.37,6.73-.25,3.9,1.29,6.83,3.47,9.66a3.46,3.46,0,0,0,4,1.06,3.1,3.1,0,0,0,2.18-2.8c.13-2.88-2.18-.62-3-1.23-2-1.47-3.46-3.93-3.22-6.08.16-1.43,2.63-3.65,4.82-3,5.62,1.74,9.06-.47,11.81-5.22.74-1.28,2.65-1.87,4-2.78,1.48,3.63,3.41,5.85,7.3,2.51.73-.62,1.54-.35,2.13.43a12.6,12.6,0,0,1,.16,9.18c3.3,1,3.21,3.85,3.58,6.46,1.22,8.48,3.44,16.86,3.4,25.45,0,4.18,3.3,5.42,5.06,8,.22,2.17-1.1,3.47-2.59,4.69-2.8,3.38-5.05,3-6.78-1-1.46-3.36-3.55-6.45-4.43-10.5,0,1.6.82,2.9-.5,3.87-.38,0-.75-.08-1.12-.14-6.52-3.67-12.91-7.49-16.7-15.06-2.23.65-4,4-7.32,3.94-2.53.36-5.43-1.2-8.6,2.56,6.89,0,13-2.06,18.63.42,3.09,4.32,2.55,7.44-1.72,7.25-5.34-.23-10.47.45-15.68,1-2.26-2.22-4.87-4.64-7.85-4.85-5.94-.4-4.33-2-1.75-5.21a18.94,18.94,0,0,1,10.77-6.64c7.39-1.18,3.6-3.62,1.72-6.21A14.14,14.14,0,0,0,905.15,590.17Z" fill="#706458"/><path d="M947.77,496.88c.9,4.67-1.56,10,2.8,14.67l2-5.34c.55.14,1.13.14,1.19.31a74.44,74.44,0,0,1,2.47,35c-.2,1.27-.8,1.81-2,1.75-3.69-2.69-4-6.83-3.8-10.69a40.66,40.66,0,0,0-5.93-23.8c-2.07-3.37-3.75-7-3-11.25a8.77,8.77,0,0,1,.32-1.83c-.57.5-.19,1.25-.5,1.85-1.59,5,.59,9.95.14,14.92a30.11,30.11,0,0,1-9.24,14.36c1.94,2,3.26.55,4.56-.21,2.72-1.59,3.77-.39,4.07,2.29-2.13,4.3-1.11,11.48-2.6,15.88-4.42.89-6.06,2.54-9.21,5.11-2.9-.16-4.29-2.35-5.75-4.38-.59-.82-.71-2.17-1.45-2.66-3.56-2.37-3.58-2.24.17-4.43,3.17-1.86,2.65-5.3,3.11-8.24.15-.95-.72-2.88-.65-2.9,8-2.62,1.48-10.73,5.54-14.86,1.12-1.13,1-2.87.86-4.68-.46-6.46-2.06-13.43,4.86-17.94.15-.1.37-.35.34-.44-3.75-9.74,4.36-6.54,8.81-7.81C946.1,486.53,944.08,492.34,947.77,496.88Z" fill="#6c594a"/><path d="M929,549.85c2.52-2.71,1.81-10,8.82-6.34l.64.61c1.5,2.84.36,6.06,1.68,10.32.14-3.67-.28-6-.29-8.38-.3-5.77-1.9-11.56.26-17.29-.29-1.6-1-3.29-2.34-1-1.75,3.15-4.31,1.64-6.52,1.72-1.8.06-3-1.88-1.52-2.83,5.17-3.37,7.49-8.82,10.77-13.58a3.22,3.22,0,0,1,4-.07c3.25,3.94,3.59,8.75,3.79,13.54.2,4.57,0,9.16.1,13.74.06,2.05-.15,4.39,2.13,5.48,4.55,2.21,4.21,5.91,2.61,9.52-1.87,4.24-2.79,8.69-4,13.11-1.59,3.52-.38,8.22-4.44,10.7-4.21-3.24-4.5-7.79-4.25-12.4-.34.64-.56,1.64-1.58,2-1.46,3.23-3.46,4.77-7.24,3.25-3.48-1.41-1.58-3.6-1.29-5.62,1.94-1.28.09-2.57,0-3.86,1.37-4.41,5-9.07-1.37-12.62Z" fill="#4e3f33"/><path d="M946.38,431.22c-5.52.74-8.64-3.15-12.2-6.27-.95-.84-1.46-1.88-.52-2.57,4.49-3.28.93-6.62.27-9.94-1.21-3.36,4.56-4.93,2.4-8.07-1.67-2.43-5.32-1.53-7.87-2.8a3.37,3.37,0,0,1-2.4-4.76c3.3-3.87,7.28-5.6,12.43-4.39,1.72.4,3.59.91,5.39.06,1.07-.49,2.13-1,3.25-.15a6.6,6.6,0,0,1,1.62,6c-.36,1.5-.82,3-1.21,4.48a37.17,37.17,0,0,0-.81,4.31c-.9,3.66-2.32,6.28-5.66,2.91C944,416.52,948.2,423,946.38,431.22Z" fill="#5e4c41"/><path d="M926.47,397.22c.54,3.17,3.06,3.41,5.51,3.85,8.31,1.51,8.77,2.83,3.36,9.36-.52.63-.94,1.34-1.41,2h-2.39c.05-.41.13-.82.15-1.24.13-2.29,4.48-3.5,2.56-5.55-2.17-2.34-2.83,1.91-4.63,2.48-3.55,1.12-6-2.83-9.42-2.05-2.94-.73-4.51-2.57-2.83-5.36C919.36,397.42,922.14,395,926.47,397.22Z" fill="#7b685b"/><path d="M935.19,464q.66-4.38,1.34-8.76c2-1.79.94-4.22,1.3-6.36,2.69-.42,1.08,2.31,2.21,3.08-.43-1.6-1.08-3.18.52-4.5,2.17,3.48.05,7.48,1.34,11.06-3.46-.07-3.49,1.87-3.1,4.64a72.21,72.21,0,0,1,.27,9.43c0,1.05-.2,2.27-1.55,2.26a2.18,2.18,0,0,1-2-2.05C935.26,469.91,935.27,467,935.19,464Z" fill="#938478"/><path d="M940.1,442.82a41.26,41.26,0,0,0-.2-5.57c-.29-1.76.1-2.93,1.86-3.23,1.45-.26,3.18-.18,3.34,1.77.23,2.88.58,5.89,0,8.67-.67,3.27-3,.09-4.52.6A1.45,1.45,0,0,1,940.1,442.82Z" fill="#938478"/><path d="M929,549.85c8,2.64,8.08,3.64,1.37,12.62C928,558.46,928.57,554.15,929,549.85Z" fill="#6c594a"/><path d="M940.1,442.82c.17.75.33,1.49.5,2.24,0,.81,0,1.63,0,2.44-.14,1.81-.27,3.61-.47,6.13-1-2-1.61-3.35-2.26-4.71V438.28Z" fill="#938478"/><path d="M935.12,808.53c-2.62-.73-5.62-.29-7.66-2.83-.79-1-2-1.52-1-3,1.84-2.68-.11-3.11-2.05-4.42-4.62-3.12-8.86-4.31-13.85-.87-2.3,1.58-5.28.67-8,.86-1.6-2.66-2.62-4.83-7.1-3.78-1.9.45-3.38-5.57-1.54-9.05,2.2-4.16,4.76-8.13,7.17-12.18,3-3.55,6.41-4.92,10.68-2.3a6.39,6.39,0,0,0,5.3.43c2-.53,4-.89,5.62,1,1,1.39-.06,3.4,1.89,5.05,2.9-3,6-6.09,11-5.83-4.5-3.39-8.16.29-12.08,0A45,45,0,0,0,920.93,754c-.81-2.3.69-4,2.22-5.51s3.66-2.83,4.64-5c4.27-3.73,9.14-3.66,12.08.58a32.28,32.28,0,0,0,5.53,5.84c3.87,6.82,4.46,13.85.74,20.84a11.29,11.29,0,0,0-1,9c0,4.64,3.11,8.62,2.74,13.33.5,1.49,1.08,4.11-.69,3.84-4.53-.69-3.46,2.76-4.37,4.79-1,4,1.34,10.21-6.45,9.51C936,810.28,935.55,809.41,935.12,808.53Z" fill="#4b4138"/><path d="M922.77,773.05c-1.93-1.45-3.86-.7-5.8,0-2.29.82-4.14,1.66-6.39-1-3.17-3.8-6.16,1.37-9.43,1.21l-.86,0c-3.15-1.15-6.3-3.08-9.74-1.49-4.74,2.19-4.81,5.84-.36,8.87-1.86,1.9-3.5,4.11-5.65,5.6-1.49,1-3,4-5,2.31-2.17-1.8,1.51-3.36,1.36-5.65-2.81-.08-3.44,4.14-7,3.28,2.35-5.13-2.18-8-3.92-11.86-2.11-1.51-2.93-3.69-2-6,1.61-3.81,1.08-6.57-2.39-9.11A6.51,6.51,0,0,1,863.2,752c4.41-1.56,9-.52,12.95.78,4.52,1.49,7.36.67,10-2.75,3.05.38,2.17,2.6,1.75,4.27-1,4.2.36,7,4.41,8.33,4.41,1.51,9.17,3.27,12.51-1.5,2.42-3.46,4.81-7.17,1.16-11.92-2.5-3.25-1.45-6.64,3.14-7.83,2.29,3.72,6.06,3.88,10.59,4.26-3.86-5.83-1.38-12.71-4.89-18.38-1.14-1.84.79-2.82,2.75-2.89,4.57-.15,7.53,2.45,7.25,7.15s.46,9.08,4.11,12.49c-.23.79-.23,2-.73,2.3-5.82,2.91-7.05,7.23-4.24,13,2,4.16,1.31,8.33,0,12.49C924.29,772.86,923.83,773.23,922.77,773.05Z" fill="#40362d"/><path d="M863.76,751.58c.83,3.33,1.13,6.6,5.29,8.25,2.47,1,3.2,4.42,1.26,7s-1.69,4.92-.35,7.48c-4.73-2.62-9.47-5.19-15.11-5.12,1.66-2.31,3.1-3.71,1.26-7.59s2.6-8.75,3.74-13.36c.43-1.78,2.61-4.3-1.87-3.37-1.41.29-1.65-1-1.71-2,0-.83-.23-1.93.19-2.46a16.24,16.24,0,0,0,3.16-10.6c-.16-5.88-6.66.61-8.47-3.39a3.82,3.82,0,0,1,2-4.75c3.78-1.66,6-4.49,8.27-7.86,2.42-3.58,5.39-.44,6,1.8,1.3,5,5.19,10.51-.84,15.34-2.12,1.69-1.35,4.15-.74,6.38a7.64,7.64,0,0,1,.19,1.78c-.25,2.3-.76,4.57-.82,6.89C864.79,747.85,864.86,749.86,863.76,751.58Z" fill="#625850"/><path d="M878.76,838.55c-4.83,3.5-6.89,1.37-7.5-3.73,2-4,3.61-8.16,9.29-8.11,1.9,0,1.72-2.55,2.49-3.94.59-1.06,1.35-2.51,2.66-2.25,2.09.43.36,1.82.47,2.79.25,2.38,1.7.46,2.53.33,4.26-.67,6.17.43,4,4.94C889.48,833.93,882.92,834.55,878.76,838.55Z" fill="#4b433b"/><path d="M846.22,776.77l2.46.05c1.72,2.4,4.26.37,6.27,1.19.95.36,1.91,1,2.84,1,1.89-.08,4.74-2.28,5.38.34,1,4.15-2.93.57-4.23,1.91-1.13,1.17-1.17,2.54-1.65,3.87-1.16,3.22-.69,7.11-3.88,9.79-3.44-4.32-7.21-8.34-7.3-14.31C846.15,779.33,846.18,778.05,846.22,776.77Z" fill="#493f37"/><path d="M890.19,780.62c-.57-.24-1.16-.44-1.71-.72-2.07-1.08-3.46,3.79-5,1-.73-1.29.91-4.08,1.74-6.08,2.28-5.41,7.73-4.15,11.91-5.43,3.54-1.08,1.73,2.88,3.19,3.86A50.44,50.44,0,0,1,890.19,780.62Z" fill="#4b4138"/><path d="M858.61,803.27c.65-3.52,1.12-6,1.59-8.55,1.07-5.75,5.88-2.65,8.78-3.18,1.57-.29.58,2.71-.62,3.77C865.48,797.84,862.43,800.17,858.61,803.27Z" fill="#4e443b"/><path d="M855,778c-4.82,3.2-5.6,3-6.27-1.19,2.51-.86,3.19-3.52,5-5.1C853.61,773.92,853.67,776.09,855,778Z" fill="#625850"/><path d="M750.72,481.67c1,4.77-5.7,6.37-4.65,11.22,0,.22-.94.94-1.41.91-.92-.05-1.21-.89-1.38-1.77-.54-2.85-1.34-5.61-1.35-8.6,0-5.81-1.64-7-6.56-4.23-3.81,2.18-4.73.23-5.8-2.58,5.32-2.49,5.69-9,10.08-12.6,2.07-1.71-1.52-4.22-4.64-4.41-5.83-.34-6-.62-4.32-6.83,2-.3,2.48,1.73,3.79,2.48.68.91,2.47,1.42,2.5.9.19-2.87,2.59-6.47.2-8.52-6-5.14-3.65-10.75-1.95-16.47,2-6.63,2.75-6.87,8.89-3.32,6.12,6.94,5.56,14.59,2.36,22.52-.74,1.81.41,2.11,1.75,2.3l.35.8c-3.19,4.51-3.43,9.34-1.54,14.4.41,4.07,3.2,7.8,1.49,12.22C748.14,481.08,749.66,481.55,750.72,481.67Z" fill="#635448"/><path d="M748.23,452.67c2.2-1.77,4.9-2.85,7.5-2.23s6.53.41,5,6.11c-.93,3.48,1.39,7.92,3.86,11.34-1.3,3.12-5.14,3.84-6.47,7.43-1.08-6-6.31-5.52-9.84-7.45-2.29-2.87-1.4-6,1-7.51,6-3.7,3-5.52-1-7.55Z" fill="#635448"/><path d="M748.33,452.81c2.47.24,5.58-1.28,6.5,2.87.78,3.53-1.41,4-3.91,5-2.93,1.25-2.66,4.41-2.64,7.15H747C742.6,462.66,742.87,459.4,748.33,452.81Z" fill="#51443a"/><path d="M719.39,440.16c3.36,4.9-1.28,8.46-2.34,12.53-.51,1.94-4.33,1.53-4.27-.27.25-7.38-4.93-2.15-7.15-3.49C706.18,441.94,711.64,438.46,719.39,440.16Z" fill="#615246"/><path d="M676.86,399.69c.07-1.51.76-2.43,2.36-2.13a2.6,2.6,0,0,1,2.28,2.59c.07,1.68-1.08,2.08-2.48,2C677.45,402.11,676.86,401.16,676.86,399.69Z" fill="#8f8377"/><path d="M959.21,819.54c6.27,5.07,4.69,12.18,4.5,18.74-.12,3.9-1.39,7.76-2.14,11.64-.47,7.31,1.46,14.59.27,21.9,1.39,12.38-.42,24.58-2.31,36.73-.55,3.49.18,6.79,0,11.41.5-3.27-.66-5.25-.21-7.25.29-1.29.54-3.21,2.76-1.86.92,5.4,1.81,10.79-.56,16.07l-.53,0-.52.14c-1.6,1-.3,3.1-1.58,4.29-.95.89-2,1.55-3.17.81s-1.3-1.91-.23-3c3.09-1.46,2.25-4.18,1.89-6.56-.5-3.3-1.69-6.51-2-9.81-.7-7.8-4.83-14.49-2.43-23.67,2-7.46-.35-17.2,1.85-25.18,3.49-12.65,2.44-25.29,3.06-37.95C958.39,823.81,956.84,821.27,959.21,819.54Z" fill="#998e85"/><path d="M985.32,800c.76,2.09-.18,4.54,1.39,6.45,2.84,3,1.69,6.81,1.9,10.33a15.43,15.43,0,0,1-2.33,7.92c-2.8,1.86-2.08-1.58-3.25-2.18q-1.83-5.09-3.65-10.18a.76.76,0,0,1-.38-.74c0-.29.1-.43.18-.43-.34-4.63-3-9.28.15-13.87C982,796.63,982.54,800.82,985.32,800Z" fill="#4b4138"/><path d="M970.32,950.28a16.5,16.5,0,0,1-6-3.73q1.18-4.37,2.38-8.73c1.32-2.55.22-5.33.73-8,.41-2.07.93-4.73,3.33-4.6,2.67.14,1.18,2.91,1.5,4.51.21,1,0,2.08.48,3C974.22,939,972.22,944.62,970.32,950.28Z" fill="#998e85"/><path d="M988.48,836.78c-1.16,9.46-1.16,9.46-5.49,15.88-.33-1.25-.61-2.26-.88-3.26a11.54,11.54,0,0,0,.17-2.47c-.76-5.42-.12-10.22,5.58-12.91Z" fill="#998e85"/><path d="M958.65,959l-.18-16.61a2,2,0,0,1,.43-2.59c3.58,1.27.5,4.72,2.15,6.62-1.21,7.56,4,14.85.32,22.66Q960,964.08,958.65,959Z" fill="#998e85"/><path d="M979,897.16a2.93,2.93,0,0,0,.15,1.06,25.48,25.48,0,0,1-.09,12.69c-1.86,3,0,6.89-2.37,9.77a8.54,8.54,0,0,1-3.73-5.59c-.17-5,1.66-9.63,2.69-14.4C976,899.09,976.35,896.86,979,897.16Z" fill="#998e85"/><path d="M950.9,983.58l-1.17-2.4c1.87-5,2.37-10.48,5.46-15.36,2.19,3.8-.05,7.13.32,10.45C952.59,977.83,952.6,981.25,950.9,983.58Z" fill="#998e85"/><path d="M966.26,481.15c4,3.25,5,1.26,4.63-2.8l1.49-6.11c1.88.8.74,2.63,1.31,3.87,2.27,2.9.61,6.1.43,9.07-.76,12.82-4.18,25.38-3.59,38.34-1.93,2.12-4.09,3.22-6.87,1.59-2.27-5.18-1.77-10.57-1.25-16,.61-8.05,1.54-16.07,2.37-24.1C964.93,483.6,964.84,482.09,966.26,481.15Z" fill="#938478"/><path d="M960.82,462.94c-1.77,2.13-1.43,4.92-2.17,7.36-.63,2.11-1.22,3.85-3.75,3.95,3-11.24-2.53-21.11-5.06-31.46,1.61-1.68,3.26-3.27,5.9-2.49a18.77,18.77,0,0,0,2.72,10A16.86,16.86,0,0,1,960.82,462.94Z" fill="#938478"/><path d="M967.32,363.56c1.29-.52,2.6-2.16,3.84.08-2.07,8.68-1,17.83-3.75,26.41l-2.55-.06c-2.93-4.57-.5-9.23,0-13.79C965.25,372,966.46,367.77,967.32,363.56Z" fill="#97897d"/><path d="M960.52,481.92q-.74,5.58-1.48,11.16c-.92,2.5-1.85,5-2.95,7.94-5.82-7.42,3.34-13.73.7-20.49,1.3-.68.61-3.52,2.44-3C961.24,478,959.79,480.49,960.52,481.92Z" fill="#938478"/><path d="M955.89,421.12l1.32,1.23,1.2,8.68-5.9,2.5.15-5C954.21,426.24,950.8,421.8,955.89,421.12Z" fill="#5e4c41"/><path d="M957.75,414.91l-2.24-2.69a5,5,0,0,1-.06-6c1.57-.09,2.89-4.14,4.71-.29C957.61,408.43,960.83,412.52,957.75,414.91Z" fill="#5e4c41"/><path d="M926.47,397.22a9.2,9.2,0,0,0-5.72,1.79c-3.2,2.08-4.14,4.42-.55,7.07-3.81.19-6.42,5.66-11,2.53-.46-4.5-2.88-7.76-6.5-10.25-6.66-3.31-7.69-9.83-5.57-15.24,2-5-.65-4.91-3.31-6-3.89-4.84-3.56-6,2-7.67,2.44-.74,5.28-1.36,2.56-5-1-1.29-1-3.55.78-3.41,2.71.21,4.07-4.91,7-1.66,1.69,1.87,3.63,3.82,5.62,1.63s.74-4.2-1.9-6c-1.4-1-1.39-4-2-6.11,3.6-1.2,4.77,5.91,8.52,1.71l.64.62c1.48,6.07-1.12,11.9-1.17,17.92,0,3-3.11,3.26-5.33,2.27-3-1.34-5.19-.6-7.44,1.82,5.18,1.25,4.54,5.87,5.65,9.56.85-2.88,2.83-4.76,5.37-6.42,6.53-4.26,9.69-12.52,7.72-19.36a5.28,5.28,0,0,1-.21-2.49c.73-3.38,2.91-6.95,6.08-5.35,2.43,1.22,6.72,3.46,5.68,8.17a11.51,11.51,0,0,1-2,4.57c-3.68,4.78-4.13,10.36-4,16.09-.72,2.88-3.85,5.14-2.14,8.61,5.11,3,3.45,6.79,1.19,10.63Z" fill="#4c3c33"/><path d="M877.5,350.65c0-2.64-.14-5.31,1.21-7.74.41-3.86,3.45-4.55,6.4-5.37a4.36,4.36,0,0,1,2.6.16c1.35,5.61,6.31,2.7,9.48,4.06,2.43,3.2,2.41,6.11-1,8.65C889.8,358.54,884.6,358.6,877.5,350.65Z" fill="#2b211c"/><path d="M910.22,337.89c.56-3.38,1.7-6.55-2.17-9.3-2.49-1.77-1.91-5.74-2-8.58,0-1.62,3.23-.75,5-.88,3.58-.25.7,5,4.1,5,1.34,2.94-2.91,5.89,0,8.83-.31,2.56.09,4.58,2.72,6.06,2.85,1.61,4,4.43,3.52,7.8-.87,2.35-1.07,5.6-5,3.79l0,0C916.82,345.18,913.81,341.39,910.22,337.89Z" fill="#5e4c3f"/><path d="M887.47,338.06l-2.32,0c-1.33.5-1.56-.09-1.21-1.25h9.9c2.47,2.61,4.94.26,7.34-.12,3.18-.5,6.21-.91,8.93,1.33-.34,4.54-7.71,13.72-11.65,14.54-1.86.39-1.9-1-2.23-2.19.54-2.83,2.31-5.64,0-8.49C893.72,339.78,889.91,340.49,887.47,338.06Z" fill="#938375"/><path d="M838.61,933.15c2.77,3.24,2.24,7.44-1.32,9.15-.93.44-1-.81-1.17-1.57Z" fill="#998e85"/><path d="M942.5,879.05c1.66-2.78,3.5-5.51,2.57-9,.16-1.62.31-3.24.47-4.86,2,8.7,4.32,17.28,3.41,26.24-.41.62-2.1-1-1.77,1.28a10.55,10.55,0,0,1-.39,5.32l-.36,3.6c-1.08,5.83-1.08,5.83-4.64,4.91a23.58,23.58,0,0,1,1.35-13.39C945.16,888.44,942.75,883.75,942.5,879.05Z" fill="#998e85"/><path d="M950.08,923.16c1.43-3.15-3-7.07,1.27-9.86-.46,4.77,3.07,8.67,2.86,13.38-.61,4-1.78,0-2.66.19Z" fill="#998e85"/><path d="M993.68,547.65c2.37-1.26,2.85-2.1,1.73-4.46-2.84-5.94-3.09-12.27-3.1-18.66,2.7,12.31,7.87,24.1,7.69,37,0,2.09-.27,4.18-.42,6.27-.86,1.94-1.58,4.58-3.58.69a10.77,10.77,0,0,1-1.29-4.13,9.12,9.12,0,0,1,.14-2.76c.82-3.41,1.61-6.82-1.05-9.87C993.45,550.39,991.91,549.06,993.68,547.65Z" fill="#4e3f33"/><path d="M926.47,378.34c-1.09-6.38-.77-12.32,4-17.48,2.13-2.31,1.55-4.12-1.32-5.93-2.22-1.4.29-3.6-1.24-5.27-3.92.83-5.22,3.48-5.07,7.23-3.89-3-3.91-4.31-.12-8.81,1.11-.63,2.43-1.39,2.07-2.78-.68-2.62-1.37-5.25,2.2-5.88,3.75-.67,8.57-.82,10,3,2.29,6,5.83,11.23,8.28,17.05-4.93,1.43-7.35,5.94-10.87,9.08-1.91,1.72,0,4-.07,6-.48,2,2.55,3.7.36,5.76-.19.06-.41.2-.57.15C931.57,379.68,929.4,377.59,926.47,378.34Z" fill="#776356"/><path d="M922.7,348.08c-1.29,2.95-2.38,5.9.12,8.81,2.18,2.13,2.85,4.5,1.31,7.34-2.85,5.26-3.81,11.75-10.72,14.18-3.71,1.31-3.13,5.86-4,9.39-4.79-3.83.81-13.51-10.18-13.2,4.55-2.36,5.7-10,12.19-4.13a2.07,2.07,0,0,0,3.39-2c-.88-6.13,2-11.85,1.57-17.88,2.84.3,3.39-2.49,5-3.79Z" fill="#7d6e63"/><path d="M932.75,374.67c1.47-2.57-3.87-5.89-.57-6.92,5.33-1.67,5.57-10.84,13.09-8.31-2.72,3.91,1.35,6.06,2.32,9a1.83,1.83,0,0,1,.69,2.25c-.37.45-.77.88-1.18,1.29C942.92,376.14,938.27,377.75,932.75,374.67Z" fill="#624d3f"/><path d="M883.94,336.84l1.21,1.25c-2.21,1.52-5.19,2-6.44,4.82-2.45-2.5,1.23-3.19,1.43-4.91Z" fill="#806155"/><path d="M980.79,735.1c-2.62-9.22-4.79-18.45-.8-27.86,1.15-.7,1.5-2.82,3.32-2.25s1.38,2.43,1.29,3.7c-.58,7.91.59,15.66,1.78,23.42-.41,3.84-1.93,7.6,0,11.73C980.11,743,984.64,736.69,980.79,735.1Z" fill="#43382d"/><path d="M987,695c-.42-8-.66-16.14-3.91-23.72-1.41-3.19-1.83-6,2.42-7.36q1.85,8.8,3.7,17.61c3.69,2.08,5.11,5.18,4.58,9.43-.44,3.52.43,7.12-.45,10.64l-1.62,10.95C987.8,707.33,988.52,700.86,987,695Z" fill="#43382d"/><path d="M991.58,645c-1.64-1.53-.77-3.56-1.05-5.36.25-3.82,1.79-7.63.07-11.46h0a1.57,1.57,0,0,0-.22-1.08q0-3.18,0-6.36c4.66-4.62,1-9.88,1.17-14.85,1.64-.77,2-2.47,2.5-4l-.09-2.36a19.21,19.21,0,0,1-3.37-2.93q-.12-9.37-.23-18.73l-1.47-1.53a2,2,0,0,0-1.51.93c-.27.42-.71.71-.72.66a6.7,6.7,0,0,1,.15-1.84c.73-6.13.09-12-3.26-17.34-1-1.64-2.13-4.17-4.33-1-1.17,3.92-.79,7.88,0,11.81a164.65,164.65,0,0,1,3.19,30.52c0,2.29-.17,4.65,1.42,6.63.69-.07,1.27-.13,1.76-.21-.07.12-.12.24-.2.36a66.55,66.55,0,0,0,3.45,13.92c.15,2.08.29,4.15.43,6.23h0l-2.67,3.82a85.8,85.8,0,0,0,2.76,20c-.48,3.31,1.92,5.87,2.31,9a56.15,56.15,0,0,0,2.57-16.32Z" fill="#706458"/><path d="M976.92,509.67q1.3-6.87,2.6-13.73c2.31-1,1.82-4.82,4.93-5.07q-1.34,6.27-2.65,12.53c-.47,2.65-1.41,5.17-2.11,7.76-.32,1.19-.91,2.8-2.36,2.2C975.64,512.65,976.26,511,976.92,509.67Z" fill="#938478"/><path d="M703.14,596.53l-10.8.9c.85,3.92,5.74,5.4,5.16,9.63-12.88-1.49-16.15-6.84-11.56-19.55,1-2.76,2.29-5.23,2.16-8.28-.14-3.27,1.83-2.53,3.71-1.66,1.38,3,3,5.39,6.56,6.74C703.08,586.12,705.1,592.4,703.14,596.53Z" fill="#6c5f54"/><path d="M730.69,452.78c0,4,.27,7,5.86,5.21,2.81-.88,5,1.56,5.37,4.68.31,2.76.56,5.64-3.93,4.39-1-.27-1.49.94-1.5,2.18,0,4.17-2.73,7-6.92,7.38-1.46-2.21-2.92-4.42-5-7.62-1,6.41-6,10-5.79,16.24.12,3.56-4,4.62-6.81,2.24-3.06-2.6-2.92-6.72-4.75-9.94-.9-1.58,1.08-2.76,2.8-3.38,4.73-1.7,7.12-5.29,8.3-10.1.57-2.35-.13-6.68,4.93-4.81,1,.38,1.29-.77,1.18-1.6C723.69,452.34,727.17,452.55,730.69,452.78Z" fill="#51443a"/><path d="M860.19,920.64c-1.79-.32-3.59.32-3.46-2.12.15-2.69,7.16-9,10.25-9.23a3.54,3.54,0,0,1,3.67,4.57C869,918.83,863.64,918.71,860.19,920.64Z" fill="#998e85"/><path d="M878.79,916.77c-1.22.21-2.71,2.15-3.52-.34a2.14,2.14,0,0,1,1.75-2.85c2.32-.17,1.52,1.91,1.76,3.2Z" fill="#998e85"/><path d="M959.21,819.54c-.84,2.05.9,4.63-1.31,6.4-4.45-.07-3.66-3.69-3.52-6.06.47-8.17.15-16.32-.17-24.48-.07-1.95.84-4.25-1.28-5.79-1.44-2.7-2.28-5.39.08-8.05,5.81,7.54,5.64,16.71,6.63,25.47C960.1,811.13,959.39,815.37,959.21,819.54Z" fill="#4b4138"/><path d="M947.27,842.63c-.31-4.88-2.87-9.13-3.88-13.81-.67-2.84-1.55-5.65-1.09-8.63.87-2.22,2.06-2.29,3.42-.43.95,1.29,1.29,3,2.84,3.85,1.65,6.25,4,12.37,3.6,19A3.43,3.43,0,0,1,947.27,842.63Z" fill="#998e85"/><path d="M947.61,778.08a30.12,30.12,0,0,0-.16-4.36c-1-5.41.94-7.74,6.47-6.69L953,781.56c0,2.68,0,5.37-.08,8.05,0,.2,0,.47-.11.59a5,5,0,0,1-.8.53Z" fill="#4b4138"/><path d="M947.85,841.09h4.89c.42,7.46.56,14.87-3.26,23C946.47,855.81,948,848.38,947.85,841.09Z" fill="#998e85"/><path d="M881.11,672.31c2.41,5.32,6.15,6.1,11,3.25,1.31-.79,2.67-1.2,4.1-.23,1.19.8,2.6,2.16,3.4-.17.63-1.83-1-2.41-2.41-3-2.84-1.13-5.48-2-3.13-6.28,1.82-3.29-1.57-2.48-3-2.44-2.56,0-5,2.24-7.73.34,6.47-5.24,6-7.59,15.3-3.4a5.91,5.91,0,0,0,3.68.34c8-2.23,9.66,5.48,14,8.86.73.56,1.77,2.17.38,3.26a2.13,2.13,0,0,1-3.22-.83c-2.08-3.91-7.13-3.3-9.62-6.6a2.36,2.36,0,0,0-3.41-.16c-.55.45-1.17,1.55-1,2a2.65,2.65,0,0,0,3.06,1.58c4.76-.79,5.79,4.05,8.82,5.84-2.68,1.22-6,1.44-7.31,4.8-4.8-.5-7.33,3.5-10.46,5.84s-5,2.09-7.25-.62c-1.34-1-1.63-3-3.21-3.75a6.48,6.48,0,0,0-6.57.53c-2.4,1.69.32,3.16,1,4.64s1.6,3.5.59,4.05c-5.06,2.75-1.85,6-1,9.14a2.58,2.58,0,0,1-.85,2.26c-2.8,1-4.25,2.5-3.81,6,.52,4-.65,6.56-5.77,4.39-3.39-1.44-7.37-1.33-11.08-1.71-4.37-.46-6.88-2.48-8.13-6.5-1.83-9.69-2.26-19.39-.13-29.1-2.34-2-3-5.49-7.07-7.76,1.5,4.45,2.37,8.25-2.32,9.84-4.53,1.54-8.28.14-10.89-3.73-2.35-3.5-6-5.65-8.88-8.52a7.22,7.22,0,0,0-11,1.1c-1.88,2.54-4.45,2.93-7.16,1.17s-3.26-4.33-2-7.11c1.47-3.16,2.06-6.85,5-9.23,6.66,1.24,13.87-.67,19.64,5.52,2.77,3,6.46-.14,8.61-3.32a5.35,5.35,0,0,1,5.89.63c3.66,2.73,4.14.51,4.22-2.56,0-.84-.06.21,0-.63.19-3.1-.22-6.61,3.79-7.64,2.16-.55,7.69,4.72,7.87,7.81.13,2.27,1.12,4.46.55,6.77a27.61,27.61,0,0,0,3.71,9.8c2.06,3.21,4.33,5.57,8.2,1.57,3.54-3.66,4.54,1.8,6.93,2.49-1.06,3.38.68,4.23,3.48,3.56A35.13,35.13,0,0,0,881.11,672.31Z" fill="#574c43"/><path d="M803.51,650.7c-1.41,3.26-2.73,6.55-4.24,9.76-1.1,2.32-.67,3.94,1.53,5.28s3.81,1.23,5.44-.8c1.18-1.48.92-4.46,4-4.11,3.49.41,7,.89,10.45,1.33-1.46,6,5.77,5.16,7.23,9.23s5.19,5.56,9.27,4.28c2.51-.79,5.55-2.44,2-5.71-1.42-1.32-2.51-2.38-.53-4,1.7-1.36,3.53-1.56,4.86.43,1.68,2.54,4.33,4.68,3.92,8.24-4.23.62-6.07,5.81-10.8,5.67-.87,0-1.67,1.3-1.23,2.49,2.2,5.95,1,11.66-1.27,17.94-5.47-5.06-11.45-9.39-7.88-18.15.35-.86.46-1.7-.41-2.17-4.24-2.29-9.1-3.15-13.3-1.47-3.29,1.3-4.17,5.59-3.41,9.27.61,3,.26,6.27,5,7.43,3.09.76,2.64,4.78.37,7.32-1,1.08-2.78,1.93-1.8,3.51,3.16,5,1.65,6.31-3.76,5.53-1.26-.18-3.74,0-3.83,2.3-.09,2.14,1.86,1.77,3.24,2,2.85.4,5.27,1.75,6.24,4.47.71,2,.38,4.9-2.1,5.14-3.57.34-8,.56-9.88-3.37-3.57-7.49-3.64-7.69-9.43-2.29-1.58-6.32-.78-7.68,6-8.87,3.32-.6,5.95-.62,7.2-5.18,1.49-5.47-1.64-8.74-3.76-12.43-1.28-2.24-2.64.74-3.9,1.44-1,.54-1.88,1-2.89.44s-.4-1.36-.21-2.18c1.26-5.3-2.36-12.6-7.86-14.84-2.14-.87-3.23-1.6-2.86-3.89.1-.62.49-1.7.34-1.77-5.48-2.82-6.3-6.19-2.64-11.53.92-1.33-3-1.89-5-1.86s-4.17,1.07-5-2,1.52-3,3.14-3.62c4.38-1.77,1.22-3.79.23-5.74l0-.07c4.89-1.88,5.68,3.89,9.4,4.9-2.59-3.82-5.92-7.33-3.88-12.37,4.58-4.69,9.22-2.13,13.87-.12,1.49,1.23,3.42,1.77,4.9,3a12.55,12.55,0,0,1,3.8,5.54A1.74,1.74,0,0,1,803.51,650.7Z" fill="#6b6058"/><path d="M847.54,703.77c4.17,6.07,11,5.6,16.87,5.79,2.68.09,4.23.61,5.48,2.46,4.21-2.81-4.66-12.48,6.37-10.88.13,1.18,0,2.17,1.9,2.34,8.65.78,14.41,7.85,22.21,10.61,2,.72,2.33,2.84,1.31,4.77-.87,1.65-1.5,3.42-2.5,5A41.12,41.12,0,0,0,886,728a2.43,2.43,0,0,1-1.8-1.56c-1-3.06-2.46-5.42-6.22-4.27s-5.92,3.35-6,7.63c-.15,7.13-.84,7.74-6.95,7.91-2.82-3.56-3-6.59,1.5-9,2.41-1.3,3.24-3.73,1.27-5.68-2.67-2.64,1.29-8-3.33-8.93s-2.15,5.49-5.15,6.57c-3.28,1.19-6.94,1.59-8.11,5.71-2.3-1.57-2-5.18-4.95-6.28Q846.88,711.93,847.54,703.77Z" fill="#493f35"/><path d="M682.89,606.63c0,1.69-.44,3-2,2.93a2.51,2.51,0,0,1-2.68-2.09c-.19-1.66.58-2.89,2.33-3C682.07,604.46,682.48,605.79,682.89,606.63Z" fill="#6c5f54"/><path d="M696.56,649.58c-2.07,1.29-3.49,2.25-5.69,1.5C691.81,648.17,693.37,647.71,696.56,649.58Z" fill="#7d736a"/><path d="M782.17,640.63c-1.34,5.24,2.56,8.38,4.77,12.24.62,1.08,2.11,2.62.24,3.74-1.3.79-2-.7-2.93-1.52-2.71-2.4-4.43-6-8.36-6.92-8.42-2.75-14.11-9.5-21-14.47-1.89-1.36-2-3.25-.42-4.82,3.58-3.48,2.93-7.43,1.76-11.59a11.2,11.2,0,0,1-.27-3.7c.08-1.29.64-2.53,2.14-2.61s1.25,1.35,1.71,2.2c4.07,7.53,5.86,8.39,12.29,6l3.78,3.83c3,3.45,5.73,6.94,4.39,12.1C779.73,637.12,783.05,638.22,782.17,640.63Z" fill="#544337"/><path d="M898.86,723.85c-.12-1.22-.8-3.13-.28-3.55,5.63-4.58.74-5.71-2.33-6.45-5-1.21-7.9-5.75-12.84-7.25-2.3-.69-4.46-1.69-6.94-1.71-1.22,0-2.89-.08-2.84-1.55,0-.76,1.7-1.47,2.63-2.2.73-4.61-3.86-5.9-5.67-8.8.74-1.36,1.82-1.22,2.81-1.11,1.39.15,2.92,1,3.75-.94.7-1.63-.25-2.73-1.19-3.91-1.34-1.68-4.7-3.52-2.73-5.46,2.15-2.13,6-2.53,9.27-2.18s4.17,3,3.82,6c-1.61,3.67.79,7.57-.82,11.45-.68,1.62,2.29,3,4,3.17,2.87.21,4.17-2.3,5.37-4.49,1-1.74-1.11-3.64.47-5.83,3,1.94,5.74,5.42,10,3.55.89,2.07,8.48,1.94,2.08,6.41a1.43,1.43,0,0,0-.21,2.19c3.65,5,4.51,10.92,5.54,16.83.66,3.84,3.47,5,7,4.37,1-.16,1.78-1,2.73-1.41a5.39,5.39,0,0,1,6.61,1.8c1.52,2.21-1.79,2.94-2.62,4.87,4.13-3.41,9.19,2.82,13.39-1.63.35-.37,3.17,1.51,4.24,3.16,2.48,4.28-.93,7.66-1.73,11.44,0,3.33,2.36,6.23,1.71,9.67-2.79-.75-4-3.19-5.69-5.2-2.67-3.12-5.85-5-9.5-1.09-6.78-1-5.84-6.65-6-11-.17-6.74.17-6.75-8.39-6.72,3.53,2,3.84,4.39,4,7.62.2,3.61-1.52,8.79,3.9,11,1.23.5.63,1.78-.36,2.45-2.71,1.85-12.46-2.43-13.26-5.8-.17-5.17-2-8.79-7.64-10.1C897.12,730.45,896.54,727.38,898.86,723.85Z" fill="#362d24"/><path d="M853.68,657c-1.08-1.4-3.24-2.42-2.36-4.64,2-4.92-3.83-5.35-4.89-8.61-.33-1-2.12-.26-2.71,1.14a11.85,11.85,0,0,0-.43,6c.21,2.27,0,5.4-2.12,6.61-1.72,1-3-1.68-4.27-2.86-1.77-1.59-3.79-1.38-5.84-1.35a1.6,1.6,0,0,1-1.66.12,2.58,2.58,0,0,1-1-3.15c1.58-2.37,4.19-2.93,6.63-3.79,2.21-.75,1.91-3.49,3.62-4.62,8,0,12.22-5.49,16.2-11.23.67-1,.73-2.16,2.23-2.54,1.33-.33,3.53,1.75,4-1.17.32-2.21-1.7-3.21-2.93-4.47a31.88,31.88,0,0,0-4.43-3.24c2.39,0,2.76-2.19,3.8-3.65,1.32-1.87,4.16-.74,3.89-.2-1.85,3.74,2.22,6.16,1.54,9.68-.92,4.79,1.68,7.05,6.27,5.57s6.21,3.36,10.7,3.21c-2.88,2.86-5.67,2.71-8.38,3.17-3.91.67-2.37,2.27-.26,3.66,4.19,4.59,10.13,4.43,16.4,5.67-2.71,2.42-5.68,3.14-7.74,5.36-1.47,1.59-4.28,2.13-6.1-1.1-3.13-5.55-5.33-5.08-10-1.2C860.64,652,858.79,656.86,853.68,657Z" fill="#62544a"/><path d="M905.14,615.4c4.89-2,10.08-2,15.24-2.44s4.18-2.76,1-5.2c-1.45-1.74-3.58-1.7-5.52-2.22-1.42-.38-3.5-.24-3.2-2.75,2.86-.06,4.11-2.51,6-4.07.9-.76,1.68-2.15,3.08-1.13,1.12.82,2.7,2,1.33,3.51-2.33,2.59.2,3.53,1.53,4,5.17,2.07,7.7,7.12,12,10.15a15.63,15.63,0,0,0-11,10.18c-.75,2-1,3.08,1.2,3.75,1.31.39,2.41.94,1.79,2.59-.45,1.21-1.62,1.23-2.64,1.19-6.57-.25-13.11-.32-19.46,1.93-1.12.39-2.14-1.61-1.91-1.68,4-1.28,1.84-7.23,6.28-8.22,2-.45,4.11-1.58,4.92-3.6.69-1.73,2.81-3.92.68-5.57-1.38-1.07-3.59-2.27-5.73-.41C908.92,617,907,617.41,905.14,615.4Z" fill="#605348"/><path d="M871.19,625.37c-2-2.59-1.41-4.48,1.4-6,5-2.69,5-4.38.54-8.17-1.69-1.44-5.55-2.57-1.86-5.88,4.51-.16,9.28.94,13.13-2.55,1.66-1.51,3.11-1,4.22.55,1.75,2.51-1.27,2.49-2.14,3.46s-2.33,1.38-4.18,2.38c3.9,2.21,5.61,3.7,3.91,8.78-1.94,5.79-.4,6.32-7.56,5.19A8.12,8.12,0,0,0,871.19,625.37Z" fill="#625549"/><path d="M949.05,665.84l1.29,29c-1.83.74-3.05,3-5.48,2.26-1.94-2.52-1.88-5.67-1.86-8.46.08-10.86-1.63-21.75.39-32.58a3.83,3.83,0,0,0-.43-2.43c.68-4.16,2-1.52,2.13,0,.33,4.56.19,9.16.23,13.74,0,1.64,0,3.27,0,5.23C949.3,671.39,946.4,667.16,949.05,665.84Z" fill="#43382d"/><path d="M943,653.63c2.35,2.48,1.52,5.62,1.29,8.38-1,11.74.19,23.4.62,35.09-2.2-.31-2.85-1.69-3.26-3.8-1.53-7.78,1.68-15.86-1.69-23.55-.7-1.58,2-3.06,1.46-5.11-1.78-2.87,1.11-5,1.14-7.65C942.66,655.87,942.81,654.75,943,653.63Z" fill="#43382d"/><path d="M882.54,635.58c6.89-2.07-.36-4.2,0-6.3,3-2.41,5.92,0,8.86.26,1.28.1,2.36,1.27,1.24,2.67-1.54,1.93-1.89,4.7-4.21,6-1.53.88-2.73,3.07-4.83,1.9C881.87,639.18,882.76,637.15,882.54,635.58Z" fill="#62544a"/><path d="M906.33,651.63c0,2-.77,2.67-2.76,2.14-4.07-1.1-8.19-2-12.29-2.94-1-.24-2.21-.59-1.9-1.91.16-.66,1.34-1.72,1.66-1.59,3.92,1.54,7.77-1.07,11.57-.13A4.85,4.85,0,0,1,906.33,651.63Z" fill="#62544a"/><path d="M881.11,672.31c-5,5.85-7.19,6.1-10.6,1.66-2.68-3.49.06-2.92,2-3.1C875.07,673.23,878.65,669.4,881.11,672.31Z" fill="#796d64"/><path d="M904,679.53c-.63-6.33,3.26-5.69,7.32-4.8,3.52,2.42-.71,2.84-1.17,4.16C908.69,683.11,906.13,679.53,904,679.53Z" fill="#74655a"/><path d="M942.52,657l-1.14,7.65c-1.49-.55-3.37,2.06-4.27.06a4.15,4.15,0,0,1,1.77-4.72A13.1,13.1,0,0,0,942.52,657Z" fill="#43382d"/><path d="M782.17,640.63c-3-2.58-5-5-2.77-9.57,1.59-3.19-3.67-4.73-3.53-8.07a9.32,9.32,0,0,1,4.75,4.81c.84,2.25,1.83,3.18,4.12,2.05s4-2,3.32-5.15-3.7-5.67-3.42-9.28c2.71,1.39,5.11,2,6.33-1.91.75-2.41,2.81-5.68,4.75-4.39s6,2.74,5,7c-.65,2.67,1.39,4.74,2.48,6.78,1.62,3,4.4,3.32,7.43,1.24,2.73-1.86,5.37-1.93,7.48,1.27.89,1.35,2,2.79,4.09,2,.81-.31,2.09-.49,2.14.36.56,9.48,7.06,5.24,11.73,5.24q1.28,3.81,2.57,7.62a5.58,5.58,0,0,1-4.37,1.41c-5.83.13-11.18-.17-16.14-4.57a9.9,9.9,0,0,0-12.71-.71c-3.26,2.49-8.51.56-10.68,5.12C790.58,640.94,786.67,637.77,782.17,640.63Z" fill="#62544a"/><path d="M892.68,529.65c2.67-.74,4,1.58,5.29,3.7,1.72,2.9-1.23,3.3-2.67,4.51-3.18,2.68-5.18,2.47-7.39-.17-1.31-1.56-3.72-2.54-2.22-5C887.09,530.38,889.62,529.85,892.68,529.65Z" fill="#938478"/><path d="M833.6,640.63h5c0,.4,0,.8,0,1.21-.11,2.41.46,5.11-2.59,6.31C832.17,646.66,835.09,642.91,833.6,640.63Z" fill="#574c43"/><path d="M951.24,619.33c1.62,7.55,3.22,15.11,7.68,21.64a38.39,38.39,0,0,1,.17,26.72c-.8,1.54-1.37,3.38-3.67,3.18-1.54-9.32.58-18.54,1.16-28.42l-3.16,2.77c-2-8-3.86-15.76-5.76-23.48C949.61,622.07,950.13,620.26,951.24,619.33Z" fill="#706458"/><path d="M912.67,602.79c2.13,3,8.32-1.13,8.72,5-4.8.56-9.71-1.59-14.5,1.13-1.82,1-4.16,0-4.88-2.51-.88-3.13,2.32-2.23,3.5-3.3C907.65,601.14,910.28,603.41,912.67,602.79Z" fill="#504439"/><path d="M940.08,528.77q.63,9.09,1.25,18.18c-4.4,2.19-2-2.68-3.54-3.45h0C939,538.67,935.68,533.11,940.08,528.77Z" fill="#6c594a"/><path d="M940.33,496.89c-1.18,6,1.68,11.1,3.71,16.37l-3.57-.16C940.24,507.7,937,502.32,940.33,496.89Z" fill="#9a8c82"/><path d="M937.79,543.5c1.62.69.48,4.25,3.54,3.45a48.51,48.51,0,0,0,.74,6.18c.39,1.58.84,3.18-1.13,3.45s-3.11-1-3.14-3.05C937.74,550.19,937.79,546.84,937.79,543.5Z" fill="#6c594a"/><path d="M947.62,370.69l.27,1.27c-1.25,6.77,1.5,13.85-1.56,20.49l-2.27,1.16c-2.44-1.11-5.4-1.92-3.23-5.69.83-1.68,3.76-2.64,2.31-5.08-1.18-2-3.28-.76-5-.56s-3.22-.34-2.89-2.64c-1.32-1.41-3-2.62-2.46-5C938.2,375.21,943.23,374.15,947.62,370.69Z" fill="#938376"/><path d="M941.56,388.46c-1.88,3.05,2.53,3,2.5,5.15-1.5,3.51-5.07.64-5.63.41-5.09-2.09-8.31,1.2-12,3.25,0-1,.06-2,.07-3.07,0-1.93,3.51-5.67-2.34-4.6l-.21-2.43c2.84-6.16,3.07-6.4,7.9-2.28C934.8,387.4,938.63,386.49,941.56,388.46Z" fill="#7b685b"/><path d="M950.06,402.49c-3.65,1.32-1.08,5.39-3.23,7.37-.1-2.48-.21-5-.31-7.45.07-1.39-.15-2.86,1.12-3.9Q948.84,400.51,950.06,402.49Z" fill="#5e4c41"/><path d="M922.77,773.05l1.18-1.3c2.16-1.18,4.11-2.74,6.14-4.07,2.57-1.67,2.85,5.15,5.28.91.22-.38,1,.89,1.1,1.74.11,1.81-.8,2.64-2.55,2.78-4.17.35-6.56,3.17-8.59,6.46C922.65,778,918.56,777.17,922.77,773.05Z" fill="#4b4138"/><path d="M898.86,723.85c-.12,3.36-.45,6.08,4.62,6.65,6,.68,7.73,5.15,5.42,11-2.57,3-4.79,5.56.17,8.9,2.68,1.8-.76,11.22-4.86,13.92-5.38,3.54-10.45.69-15.27-1.47-3.73-1.67-3.45-5.22-2.51-8.65.36-1.3,1.65-2.64-.07-3.91-1.54-2.92-1.58-6.41-3.53-9.19-.82-1.18-.59-2.89.61-3.28,6.14-2,3.29-6.41,2.86-10.17C889.45,722.93,893.78,722.13,898.86,723.85Z" fill="#54493f"/><path d="M886.3,727.65a24.06,24.06,0,0,1,2.21,3c2.17,4,.09,7.44-5.39,8.36,2.38,3.48,4.38,7,3.23,11.31-1.16,6.36-4.6,6.78-9.7,4.06-4-2.12-9,.36-12.89-2.77-1.37-1.67-.13-3.32,0-5a7.07,7.07,0,0,1,1.3-1.32c5.27-3.35,5.28-3.34,0-6.35,0-.4-.05-.8-.1-1.2,4.07-1.33,6.91-3,5.26-8.41-1.19-3.93,3.36-8.43,8.13-9.19s7.11,1.08,6.91,6C885.25,726.64,885.94,727.15,886.3,727.65Z" fill="#332a22"/><path d="M865.07,738.92c3.35-1.25,6.07.24,6.74,3.22.88,3.9-3.16,2.64-5.09,3.55a20.71,20.71,0,0,1-2.93.9C863.63,743.94,863.47,741.28,865.07,738.92Z" fill="#493f35"/><path d="M955.42,670.87l2.3-2.5a19.21,19.21,0,0,1,4,11.06,297,297,0,0,0,4.16,38.12,11.42,11.42,0,0,1-.18,3.77c-.24,2.45-2.07,4.37-2.34,6.82a28.17,28.17,0,0,1-.69,4.09c-1.73,5.88,1,12.22-1.84,18a1.46,1.46,0,0,1-2,.21c-2.07-7.75-4.69-15.39-.53-23.41,1-1.82.69-4.62.19-6.79C954.76,703.94,955.5,687.38,955.42,670.87Z" fill="#43382d"/><path d="M970.55,805.87l.06,11.11c.34,2.3,1.31,4.83-.71,6.66-1.29,1.17-2.49-.37-3.55-1.21-3.86-5.62-1.28-12.39-3.25-18.35-.47-.16-.64-.34-.49-.54a.57.57,0,0,1,.44-.31c.63-6.91-3-13.23-2.76-20.1,1.29-2.45-2-6.42,2.54-7.8C970.34,784.25,969.87,795.21,970.55,805.87Z" fill="#4b4138"/><path d="M984.49,779.47c-2.33,2.06.32,5.67-2.37,7.62a23.44,23.44,0,0,1-1-15c1.33-2.9,2.47-5.82,1.06-9-2.25-2.59-.74-5.86-1.56-8.7l1.48-.09c1.69-.73,2.37-2.23,2.9-3.86.8-1.14,1.61-2.22,2.94-.56C991.25,760.27,991.25,770.28,984.49,779.47Z" fill="#43382d"/><path d="M975.65,872.16c-3.21-5.61-6.65-10.71-3.93-17.81a59.21,59.21,0,0,0,4.09-18.29C974.53,848.12,975.77,860.12,975.65,872.16Z" fill="#998e85"/><path d="M972.36,829.22a37.19,37.19,0,0,1-3.88,14.12,16.58,16.58,0,0,1,1.67-14A1.45,1.45,0,0,1,972.36,829.22Z" fill="#998e85"/><path d="M959.18,620.42c-.75-8.88.87-17.87-1.23-26.7-1.31-9.51,2.88-18.26,3.76-27.47l2.09-2.4c.41,1.28,0,3.25,1.91,3.39,3.45.25,1.54-3.79,3.53-4.82l.12,5.08a11.5,11.5,0,0,1,.33,6.18c-4.07,19.17-3.49,38.45-1.38,57.77-.34,3.28,1.09,6.18,2.07,9.17l-.1,18.9c-3.62-2.08-3.8-6.91-7.23-9.15C960.22,640.59,960.51,630.4,959.18,620.42Z" fill="#706458"/><path d="M946.31,586.49c1.65-1.94,4.33-3.29,3.69-6.53.18-.81.09-2,.6-2.36,1.13-.82,1.12.55,1.39,1.16,1.51,3.38.65,7,1,10.51.87,7.86,1.66,15.74,2.49,23.6-2,2.19-2.11-.22-2.77-1.2C947.58,604.06,948.34,594.91,946.31,586.49Z" fill="#706458"/><path d="M953,562.88c2.88-1.89,2.07.71,2.37,2l1.47,5.56c-.33,1.35-1,2.75-2.19.86C953.08,568.77,953.05,565.78,953,562.88Z" fill="#4e3f33"/><path d="M972.44,530.8l2.23-2.66c-.06,1.05-.53,2.32-.1,3.1,4.85,8.89-1.12,17.57,0,27-2.89-1.13-2.26-3.23-2.58-4.85-.39-3.49-.79-7-1.18-10.47C968.31,538.44,969.36,534.48,972.44,530.8Z" fill="#4e3f33"/><path d="M987.83,517.54l-1.59,12.06c-1.39,1.5-.87,3.44-1.19,5.19-3.34-3.36-3.54-16-.32-19.12C988.18,512.29,987.41,515.88,987.83,517.54Z" fill="#938478"/><path d="M966.57,556.45c-1,1.2-.14,3.66-2.57,3.92-2.82-4.58-2.82-4.58-2.07-12.17C964.75,550.49,964.61,554.12,966.57,556.45Z" fill="#4e3f33"/><path d="M941.56,388.46c-3.73,1.09-7.79,1-10-2.08-3.54-4.87-5.3-1.53-7.59.79-2.74-4,.48-6.23,2.52-8.83,3.31-2.29,5.75,1.39,8.74,1.3.71,1,1.44,2.5,2.86,1.36,3.16-2.51,6.17-1,7.47,1.42C947.2,385.56,943.46,386.76,941.56,388.46Z" fill="#624d3f"/><path d="M887.47,338.06c3.62-.27,7,.08,8.81,3.86a3.41,3.41,0,0,0-1.21.07C888.87,345.17,888.87,345.18,887.47,338.06Z" fill="#806155"/><path d="M964.28,650.72c5.53.5,4.26,5.69,6,8.8-.52,3.47-1,7-1.59,10.4-.37,2.12-.62,4.08,1.69,5.31,2.62-2.11,1.6-5.86,3.87-8l-.11-.1c-1.12,11.21-2.52,22.45-1.24,33.69,1.61,14.19-2.11,28-2.08,42.1,0,4.62,2.34,8.7,3.08,13.24,1.2,7.4,1.72,14.56.15,21.87-2.48-.23-5.39,1.78-7.33-1.41-.93-3.58-.09-6.92.88-10.4,2.27-8.16.7-15.93-3.36-23.26a15,15,0,0,1-1-12.05c2.75-.72,4.63-1.86,4.3-5.4-.29-3.07-.16-6.17-1.09-9.18-1.88-14.9-4.06-29.76-3.5-44.84-4.73-4.48-1.28-9.69-1.18-14.56C961.85,654.68,962.27,652.31,964.28,650.72Z" fill="#43382d"/><path d="M975.39,610.42l2,0c1.14,7.51.66,15.23,2.87,22.6,1.19,2.62.31,5.4.6,8.09-2.71,2.23-3.26-.3-4.22-1.93C973.82,629.72,975.52,620,975.39,610.42Z" fill="#706458"/><path d="M975.36,790.6c-1.84,1.94-.24,5.38-3.39,7.31a76.5,76.5,0,0,0-3.86-20c2-3.56,4-1,5.94.1C973.34,782.33,974.87,786.41,975.36,790.6Z" fill="#43382d"/><path d="M974.25,667.22c-.25-4.65,1.58-8.83,3.18-13.05.94,4.8-1,8.91-3.29,13Z" fill="#413830"/><path d="M833.6,640.63c2.25,2,.82,5.29,2.47,7.52-2.88-.27-5.08,1.43-7.48,2.57-2.77,2.43,1.39,1.41,1.25,2.52.4,0,.81,0,1.22,0,1.52,2.72-.32,4.37-2.34,4.59-2.51.28-5.76,2.35-7.69-.76-2.46-3.94-5.56-5.26-9.94-4.08-3,.8-5.13-1.3-7.58-2.32,0-.41-.06-.81-.07-1.22-.66-2.12-1-4.45-3.73-5.05l-5-2.55c.58-2.4-1.62-7.7,4.54-4.28,1.26.7,2.2-.8,3.22-1.44,7.38-4.58,14.07-3.53,19.94,2.7C825.78,642.44,830,639.14,833.6,640.63Z" fill="#473930"/><path d="M799.71,644.43c7.12-2.71,3.37,2.71,3.73,5.05Z" fill="#574c43"/><path d="M829.84,653.24c-1.2.12-2.6.7-3.54.27a2.64,2.64,0,0,1-.95-4.18c1.67-1.87,2,1.22,3.24,1.39Z" fill="#574c43"/><path d="M892.62,342.42c0,1.1-1.34,1.66-2.43,1.66a2,2,0,0,1-2-2c0-1.1,1.62-1.85,2.71-1.85S892.62,341.32,892.62,342.42Z" fill="#d3d3d3"/></g><g id="frame"><rect width="1000" height="1000" fill="none"/></g></svg>