<svg xmlns="http://www.w3.org/2000/svg" viewBox="0 0 30 30"><g id="other_icons"><g id="about"><path d="M16.92,25.16h2.75a1.92,1.92,0,1,1,0,3.84H10.32a1.9,1.9,0,0,1-1.93-2.51,1.88,1.88,0,0,1,1.86-1.32H13l.1,0V14.6a2,2,0,0,0-2.22-2.2c-.26,0-.51,0-.77,0a1.9,1.9,0,0,1-1.8-1.84,1.83,1.83,0,0,1,1.61-2A6,6,0,0,1,15.85,11a5.66,5.66,0,0,1,1.07,3.37V25.16Z" transform="translate(0 0)" fill="#212121"/><path d="M15,5.79A2.42,2.42,0,0,1,12.6,3.41a2.4,2.4,0,1,1,4.79,0A2.4,2.4,0,0,1,15,5.79Z" transform="translate(0 0)" fill="#212121"/></g></g><g id="frame"><rect width="30" height="30" transform="translate(30 30) rotate(-180)" fill="none"/></g></svg>