<svg xmlns="http://www.w3.org/2000/svg" viewBox="0 0 30 30"><path d="M16.4,29H13.6a2.48,2.48,0,0,1-2.48-2.48V25a.4.4,0,0,1,.4-.4h7a.4.4,0,0,1,.4.4v1.5A2.48,2.48,0,0,1,16.4,29Z" transform="translate(0 0)" fill="#231f20"/><path d="M14,1.06A9.19,9.19,0,0,0,9.6,17.63a3.65,3.65,0,0,1,1.52,2.95v1a.9.9,0,0,0,.9.9h6a.9.9,0,0,0,.9-.9v-1a3.56,3.56,0,0,1,1.48-2.91A9.2,9.2,0,0,0,14,1.06Zm6.7,9.25,0,.2A5.83,5.83,0,0,1,20.31,12a5.6,5.6,0,0,1-.64,1.24l-.2.29a5.52,5.52,0,0,1-1,1.08l-.67.57a3.07,3.07,0,0,0-.26.25l-.34.36a3.65,3.65,0,0,0-1,2.49v.83a.36.36,0,0,1-.36.36H14a.37.37,0,0,1-.37-.36V16.75a3.84,3.84,0,0,1,.09-.83,4.09,4.09,0,0,1,.65-1.46l0,0a3.68,3.68,0,0,1,.83-.84L16,13l.24-.2.46-.4a4.27,4.27,0,0,0,.78-.91l.32-.51a.33.33,0,0,0,.05-.12l.17-.82A.24.24,0,0,0,18,10l0-.28a4.27,4.27,0,0,0-.46-1.47h0A4,4,0,0,0,16.55,7l-.68-.6,1.56-2,.71.54.42.35.21.21a5.54,5.54,0,0,1,.95,1.15l.08.14a5.35,5.35,0,0,1,.71,1.77l0,.14A5.55,5.55,0,0,1,20.65,10.31Z" transform="translate(0 0)" fill="#231f20"/><rect width="30" height="30" transform="translate(30 30) rotate(-180)" fill="none"/></svg>