<svg xmlns="http://www.w3.org/2000/svg" viewBox="0 0 30 30"><g id="other_icons"><g id="about"><path d="M14,7.73c0,1,0,2,0,3A3.11,3.11,0,0,1,10.75,14H4.69a3.11,3.11,0,0,1-3.19-3.2V4.7A3.12,3.12,0,0,1,4.69,1.5h6.07A3.12,3.12,0,0,1,14,4.72C14,5.72,14,6.73,14,7.73Zm-10.38,0v3.05a1,1,0,0,0,1.1,1.12h6.1a1,1,0,0,0,1.1-1.12q0-3,0-6.06a1,1,0,0,0-1.13-1.12h-6A1,1,0,0,0,3.58,4.73Z" transform="translate(0 0)" fill="#212121"/><path d="M22.26,14h-3A3.11,3.11,0,0,1,16,10.75v-6A3.12,3.12,0,0,1,19.25,1.5h6A3.12,3.12,0,0,1,28.5,4.73v6A3.11,3.11,0,0,1,25.27,14ZM18.12,7.71c0,1,0,2.06,0,3.08a1,1,0,0,0,1.1,1.09h6.09a1,1,0,0,0,1.11-1.11V4.7a1,1,0,0,0-1.13-1.12h-6a1,1,0,0,0-1.14,1.15C18.11,5.72,18.12,6.72,18.12,7.71Z" transform="translate(0 0)" fill="#212121"/><path d="M7.74,28.5h-3A3.13,3.13,0,0,1,1.5,25.27v-6A3.12,3.12,0,0,1,4.72,16h6A3.1,3.1,0,0,1,14,19.25q0,3,0,6a3.11,3.11,0,0,1-3.2,3.22ZM3.58,22.25v3.08a1,1,0,0,0,1.1,1.09h6.1a1,1,0,0,0,1.1-1.12q0-3,0-6.06a1,1,0,0,0-1.13-1.12q-3,0-6,0a1,1,0,0,0-1.14,1.15Z" transform="translate(0 0)" fill="#212121"/><path d="M16,22.29a6.23,6.23,0,1,1,6.24,6.21A6.23,6.23,0,0,1,16,22.29Zm6.24,4.13a4.15,4.15,0,1,0-4.16-4.16A4.16,4.16,0,0,0,22.28,26.42Z" transform="translate(0 0)" fill="#212121"/></g></g><g id="frame"><rect width="30" height="30" transform="translate(30 30) rotate(-180)" fill="none"/></g></svg>