<svg xmlns="http://www.w3.org/2000/svg" viewBox="0 0 30 30"><path d="M21.5,14a6.59,6.59,0,0,0-3.16,6.59.87.87,0,0,1-1.18-.49c-.26-.46-.51-.93-.78-1.38a.39.39,0,0,0-.29-.17q-1.26,0-2.52,0a.4.4,0,0,0-.28.18c-.28.48-.54,1-.79,1.46a.73.73,0,0,1-.85.42c0-.12,0-.24,0-.36a6.45,6.45,0,0,0-5.07-7,1.37,1.37,0,0,0-.28-.05,4.32,4.32,0,0,1-3.07-2,4.64,4.64,0,0,1-1-2.86c0-.66.34-.92,1-.7l10.14,3.51L21.28,14Z" transform="translate(0 0)" fill="#212121"/><path d="M24.32,13.68l-11-3.81c1-1.28,2.32-1.27,3.73-1.2,0-.12-.06-.19-.09-.26-.27-.53-.54-1.06-.79-1.6a.4.4,0,0,0-.35-.26c-.44-.06-.88-.13-1.32-.22a.61.61,0,0,1-.46-.81.63.63,0,0,1,.7-.41l1.76.29a.77.77,0,0,1,.6.46c.23.49.47,1,.72,1.48a2.1,2.1,0,0,1,1.49-.46,1.88,1.88,0,0,1,1.24.6q1.63,1.73,3.24,3.46a1.84,1.84,0,0,1,.51,1.3Z" transform="translate(0 0)" fill="#212121"/><path d="M30,20.21c-.1.38-.17.78-.29,1.15A5.22,5.22,0,1,1,30,18.93a.43.43,0,0,0,.05.16Zm-2.51-.56a2.73,2.73,0,1,0-2.73,2.73A2.72,2.72,0,0,0,27.49,19.65Z" transform="translate(0 0)" fill="#212121"/><path d="M23.3,19.66a1.47,1.47,0,0,1,1.46-1.48,1.48,1.48,0,1,1-1.46,1.48Z" transform="translate(0 0)" fill="#212121"/><path d="M10.45,19.66a5.23,5.23,0,1,1-5.2-5.23A5.24,5.24,0,0,1,10.45,19.66Zm-7.94,0a2.71,2.71,0,0,0,2.71,2.72,2.73,2.73,0,1,0,0-5.45A2.71,2.71,0,0,0,2.51,19.66Z" transform="translate(0 0)" fill="#212121"/><path d="M6.7,19.65a1.48,1.48,0,1,1-1.48-1.47A1.49,1.49,0,0,1,6.7,19.65Z" transform="translate(0 0)" fill="#212121"/><rect width="30" height="30" transform="translate(30 30) rotate(-180)" fill="none"/></svg>