<svg xmlns="http://www.w3.org/2000/svg" viewBox="0 0 30 30"><path d="M22.54,0,21.26,1.18,18.81,4l-2.5,3.48-.25-.07-1.45,2.73.21.13-.45.86-.64,1.71-.39,1.8-.18,3-1,.49-1.8.89L8.65,20.2l-.8,1.09,0,.91.51,1,.84.71L5.36,26.61,3.18,27.89l-.36-.17-.24.13.18.58.84,1.18L4,30l.18-.15,0-.37.49-.4.76-.57,1.4-.88.84-.51,1.73-.87,2.2-1,.43,0,.5-.3.05-.29.37-.23,1.3-1.07,1-1.23,1.14-1.72.83-2.18.84-2.39.68-1.3.67-1,.3.12L22,11.3l-.2-.28.78-.71L24.38,9l1.86-1.08,1.07-.54.11-.3L27.06,6,25.75,3.54l-1.7-2.25L23.17.34ZM12.77,19.38l-.41,1.1-.61.95-.8.89-.33.06-.35.57-.83.61L8.61,23l-.35-.71,0-.76L9,20.61l1.3-1,1.45-.81,1.33-.68Z" transform="translate(0 0)" fill="#212121"/><rect width="30" height="30" transform="translate(30 30) rotate(-180)" fill="none"/></svg>