<svg xmlns="http://www.w3.org/2000/svg" viewBox="0 0 30 30"><path d="M5,2.5H22.47a3.8,3.8,0,0,1,4,3.61V23.89a3.8,3.8,0,0,1-4,3.61H5a1.41,1.41,0,0,1-1.47-1.34V3.84A1.41,1.41,0,0,1,5,2.5Z" transform="translate(0 0)" fill="none" stroke="#212121" stroke-miterlimit="10" stroke-width="2.5"/><line x1="19.42" y1="2.5" x2="19.42" y2="27.5" fill="none" stroke="#212121" stroke-miterlimit="10" stroke-width="2.5"/><path d="M7.6,3.14V9.62l1-.71a2.51,2.51,0,0,1,2.91,0l1,.71V3.14Z" transform="translate(0 0)" fill="#212121" stroke="#212121" stroke-linecap="round" stroke-linejoin="round" stroke-width="2.5"/><rect width="30" height="30" transform="translate(30 30) rotate(-180)" fill="none"/></svg>