<!-- Copyright (c) 2022 - 2023 Jan Stehno -->
<svg xmlns="http://www.w3.org/2000/svg" viewBox="0 0 30 30">
    <title>coffee</title>
    <g id="other_icons">
        <g id="coffee">
            <path
                d="M15.724,13.859a9.431,9.431,0,0,1-3.885.984,7.314,7.314,0,0,1-1.962-.271l1.1,11.255a1.882,1.882,0,0,0,1.875,1.725s1.554.081,2.073.081c.558,0,2.231-.081,2.231-.081a1.88,1.88,0,0,0,1.874-1.725L20.2,13.39a5,5,0,0,0-1.651-.3A6.94,6.94,0,0,0,15.724,13.859Z"
                fill="#212121" />
            <path
                d="M25.269,8.018,25.1,7.186a2.081,2.081,0,0,0-1.251-1.723,1.9,1.9,0,0,1-.713-.3,1.238,1.238,0,0,1-.288-.714c-.081-.473-.156-.946-.239-1.418A4.572,4.572,0,0,0,22.3,1.8,2.172,2.172,0,0,0,21.055.811a7.159,7.159,0,0,0-.783-.243A19.166,19.166,0,0,0,16.427.049,32.311,32.311,0,0,0,11.8.126,13.747,13.747,0,0,0,8.364.752a2.914,2.914,0,0,0-1.109.626,1.2,1.2,0,0,0-.221,1.431,1.856,1.856,0,0,0,.864.727,7.068,7.068,0,0,0,1.4.457,22.964,22.964,0,0,0,4.109.463,31.436,31.436,0,0,0,4.561-.149q.561-.062,1.121-.148a.85.85,0,0,0,.592-1.043.874.874,0,0,0-1.042-.592l-.208.031-.05.008c-.16.02-.319.039-.479.056-.329.036-.66.065-.991.087-.742.052-1.486.076-2.229.077s-1.462-.021-2.19-.069q-.5-.031-1-.083c-.15-.016-.3-.032-.45-.051l-.143-.018-.031,0-.149-.022c-.3-.045-.605-.1-.9-.161a.136.136,0,0,1-.077-.048.135.135,0,0,1,0-.17.136.136,0,0,1,.077-.048h0c.26-.055.521-.1.784-.143l.263-.041h0c.164-.011.33-.04.493-.059a31.239,31.239,0,0,1,4.282-.151c.693.02,1.387.061,2.077.131.149.015.3.031.444.049l.171.022.114.017q.5.075,1,.181c.489.107,1.119.141,1.337.678a3.221,3.221,0,0,1,.139.538l.049.228,0,.013q.172.807.346,1.614a.29.29,0,0,1,0,.121.3.3,0,0,1-.048.111.3.3,0,0,1-.2.123h0l-.07.01-.07.009c-.221.029-.443.056-.664.081q-.656.075-1.312.129-1.306.108-2.617.142-.667.018-1.335.017a46.242,46.242,0,0,1-5.3-.308c-.191-.023-.381-.047-.572-.072.148.019-.107-.014-.159-.022l-.363-.052c-.406-.061-.81-.137-1.216-.2a2.108,2.108,0,0,0-1.4.2,2.039,2.039,0,0,0-.845.875A5.1,5.1,0,0,0,4.818,7.6,4.35,4.35,0,0,0,4.649,8.92,2.106,2.106,0,0,0,6.363,10.8c.891.161,1.786.292,2.684.4a49.644,49.644,0,0,0,10.63.155c.288-.027.576-.057.863-.088a.6.6,0,0,1,.493.172.6.6,0,0,1,.176.491l-.09.871q-.27,2.64-.541,5.279-.284,2.772-.569,5.544l-.162,1.56c-.051.513-.058,1.041-.156,1.547A1.8,1.8,0,0,1,18.213,28.2a10.26,10.26,0,0,1-2.2.257c-.819,0-1.637-.032-2.456-.027a3.724,3.724,0,0,1-2.62-.727,3.484,3.484,0,0,1-.755-2.24q-.162-1.536-.32-3.072l-.594-5.695L8.89,13.007c-.007-.061-.013-.121-.019-.182a.868.868,0,0,0-.848-.848.857.857,0,0,0-.848.848l.285,2.731.588,5.65q.252,2.408.5,4.816c.032.308.063.616.1.924A3.276,3.276,0,0,0,11.7,29.787a19.82,19.82,0,0,0,2.821.2,18.259,18.259,0,0,0,3.615-.153,3.74,3.74,0,0,0,3.269-3.321q.081-.789.161-1.579.268-2.613.536-5.225l.584-5.69.267-2.608a.607.607,0,0,1,.488-.533,2.376,2.376,0,0,0,1.342-.648A2.288,2.288,0,0,0,25.269,8.018ZM6.337,8.581c.008,0-.006.062-.012.093C6.324,8.627,6.326,8.586,6.337,8.581Zm.049.378s.016.013.029.032c-.019-.017-.031-.031-.029-.032Zm.048.063Zm.1.078h0l.006.009L6.53,9.1Zm16.891-.117a1.333,1.333,0,0,1-.723.292,50.955,50.955,0,0,1-9.133.575,61.418,61.418,0,0,1-6.508-.623A.961.961,0,0,1,6.47,9C6.2,8.708,6.331,8.114,6.4,7.758c.066-.326.191-.76.579-.807a7.754,7.754,0,0,1,1.907.275q1.082.167,2.171.265a41.976,41.976,0,0,0,9.34-.175q.843-.114,1.681-.263c.5-.09,1.05-.257,1.351.258a2.142,2.142,0,0,1,.2,1.218.677.677,0,0,1-.211.454Z"
                fill="#212121" />
        </g>
    </g>
    <g id="frame">
        <rect width="30" height="30" fill="none" />
    </g>
</svg>