<svg xmlns="http://www.w3.org/2000/svg" viewBox="0 0 30 30"><path d="M15.72,13.86a9.41,9.41,0,0,1-3.88,1,7.24,7.24,0,0,1-2-.27L11,25.83a1.92,1.92,0,0,0,.6,1.23,1.9,1.9,0,0,0,1.28.49s1.55.08,2.07.08,2.23-.08,2.23-.08a2,2,0,0,0,1.28-.49,1.92,1.92,0,0,0,.6-1.23L20.2,13.39a4.93,4.93,0,0,0-1.65-.3A7,7,0,0,0,15.72,13.86Z" fill="#212121"/><path d="M25.27,8l-.17-.83a2.07,2.07,0,0,0-1.25-1.73,1.8,1.8,0,0,1-.71-.3,1.29,1.29,0,0,1-.29-.71c-.08-.48-.15-1-.24-1.42A4.63,4.63,0,0,0,22.3,1.8a2.17,2.17,0,0,0-1.25-1,6.43,6.43,0,0,0-.78-.24A19.18,19.18,0,0,0,16.43.05,31.12,31.12,0,0,0,11.8.13,13.9,13.9,0,0,0,8.36.75a3.07,3.07,0,0,0-1.11.63A1.2,1.2,0,0,0,7,2.81a1.94,1.94,0,0,0,.87.73A6.93,6.93,0,0,0,9.3,4a22.8,22.8,0,0,0,4.11.47A31.55,31.55,0,0,0,18,4.31c.38,0,.75-.09,1.12-.15a.86.86,0,0,0,.6-1,.89.89,0,0,0-1.05-.6l-.21,0h-.05l-.47.06-1,.09c-.74,0-1.48.07-2.22.07s-1.47,0-2.19-.07l-1-.08-.45,0-.14,0h0l-.15,0c-.31,0-.61-.1-.91-.17a.1.1,0,0,1-.07,0,.16.16,0,0,1,0-.09.11.11,0,0,1,0-.08.12.12,0,0,1,.07-.05h0c.26-.06.52-.1.78-.14l.26,0h0l.49-.06a32.18,32.18,0,0,1,4.28-.16c.7,0,1.39.07,2.08.14l.44,0,.17,0h.12c.33.05.66.11,1,.19s1.11.14,1.33.67a3.29,3.29,0,0,1,.14.54l.05.23h0c.12.54.23,1.08.35,1.62a.24.24,0,0,1,0,.12.27.27,0,0,1,0,.11.3.3,0,0,1-.08.08.28.28,0,0,1-.12,0h-.14l-.67.08L19,5.77c-.87.07-1.74.12-2.61.14L15,5.93a47,47,0,0,1-5.3-.31l-.57-.07L9,5.53l-.36-.06L7.4,5.27a2.12,2.12,0,0,0-1.4.2,2.06,2.06,0,0,0-.85.88A5,5,0,0,0,4.82,7.6a4.24,4.24,0,0,0-.17,1.32A2.11,2.11,0,0,0,6.36,10.8c.89.16,1.79.29,2.69.4a49.7,49.7,0,0,0,10.63.16l.86-.09a.63.63,0,0,1,.27,0,.64.64,0,0,1,.22.14.51.51,0,0,1,.15.23.57.57,0,0,1,0,.26l-.09.87-.54,5.28L20,23.62c-.05.53-.11,1.05-.16,1.57s-.06,1-.16,1.54a1.8,1.8,0,0,1-1.48,1.47,10.07,10.07,0,0,1-2.19.25c-.82,0-1.64,0-2.46,0a3.71,3.71,0,0,1-2.62-.72,3.5,3.5,0,0,1-.75-2.24c-.11-1-.22-2.05-.32-3.07l-.6-5.7L8.89,13c0-.06,0-.12,0-.19A.87.87,0,0,0,8,12a.85.85,0,0,0-.84.84l.28,2.74.59,5.65c.17,1.6.33,3.21.5,4.81,0,.31.06.62.1.93a3.27,3.27,0,0,0,3,2.84,19,19,0,0,0,2.82.19,18.23,18.23,0,0,0,3.62-.15,3.74,3.74,0,0,0,3.27-3.32c.05-.53.11-1.05.16-1.58l.54-5.23L22.69,14l.27-2.6a.62.62,0,0,1,.15-.35.64.64,0,0,1,.34-.19,2.3,2.3,0,0,0,1.34-.65A2.28,2.28,0,0,0,25.27,8ZM6.34,8.58a.81.81,0,0,1,0,.09A.17.17,0,0,1,6.34,8.58Zm0,.38,0,0s0,0,0,0Zm0,.06Zm.1.08ZM23.42,9a1.27,1.27,0,0,1-.72.3,51.68,51.68,0,0,1-9.13.57,61.54,61.54,0,0,1-6.51-.62A1,1,0,0,1,6.47,9c-.27-.29-.14-.89-.07-1.24S6.59,7,7,7a7.81,7.81,0,0,1,1.91.28c.72.11,1.44.19,2.17.26a42.28,42.28,0,0,0,9.34-.17q.84-.12,1.68-.27c.5-.09,1.05-.25,1.35.26a2.13,2.13,0,0,1,.2,1.22.66.66,0,0,1-.21.45Z" fill="#212121"/><rect width="30" height="30" fill="none"/></svg>