<!-- Copyright (c) 2023 Jan Stehno -->
<svg xmlns="http://www.w3.org/2000/svg" viewBox="0 0 30 30">
    <path
        d="M25.41,5.54a24.41,24.41,0,0,0-6.19-1.91c-.29.52-.55,1.06-.79,1.61a23.26,23.26,0,0,0-6.87,0,16,16,0,0,0-.79-1.61A25.24,25.24,0,0,0,4.58,5.54a25,25,0,0,0-4.45,17h0a25.07,25.07,0,0,0,7.59,3.81,18.68,18.68,0,0,0,1.62-2.62,15.83,15.83,0,0,1-2.56-1.23c.22-.15.43-.31.63-.47a17.84,17.84,0,0,0,15.18,0,5.73,5.73,0,0,0,.63.47,15.54,15.54,0,0,1-2.57,1.23,18.18,18.18,0,0,0,1.63,2.62,24.84,24.84,0,0,0,7.59-3.81h0A24.91,24.91,0,0,0,25.41,5.54ZM10,19.13a2.87,2.87,0,0,1-2.71-3,2.86,2.86,0,0,1,2.7-3,2.85,2.85,0,0,1,2.71,3A2.87,2.87,0,0,1,10,19.13Zm10,0a2.86,2.86,0,0,1-2.7-3,2.86,2.86,0,0,1,2.7-3,2.84,2.84,0,0,1,2.7,3A2.86,2.86,0,0,1,20,19.13Z"
        transform="translate(0)" fill="#212121" />
    <rect width="30" height="30" fill="none" />
</svg>