<!-- Copyright (c) 2022 - 2023 Jan Stehno -->
<svg xmlns="http://www.w3.org/2000/svg" viewBox="0 0 30 30"><title>discord</title><g id="other_icons"><g id="discord"><path d="M15,23.84V5a25.49,25.49,0,0,0-3.42.21L10.8,3.64,4.54,5.46s-3.25,4.62-4,9.06a38.43,38.43,0,0,0-.5,8.1,15,15,0,0,0,3.51,2.16,33,33,0,0,0,4.13,1.58l1.64-2.57L6.93,22.67l.57-.62A16,16,0,0,0,15,23.84ZM10.06,13.25a2.81,2.81,0,0,1,2.69,2.91,2.81,2.81,0,0,1-2.69,2.9,2.81,2.81,0,0,1-2.69-2.9A2.81,2.81,0,0,1,10.06,13.25Z" fill="#212121"/><path d="M29.46,14.52c-.75-4.44-4-9.06-4-9.06L19.2,3.64,18.42,5.2A25.49,25.49,0,0,0,15,5V23.84a16,16,0,0,0,7.5-1.79l.57.62-2.39,1.12,1.64,2.57a33,33,0,0,0,4.13-1.58A15,15,0,0,0,30,22.62,38.43,38.43,0,0,0,29.46,14.52Zm-9.52,4.54a2.81,2.81,0,0,1-2.69-2.9,2.81,2.81,0,0,1,2.69-2.91,2.81,2.81,0,0,1,2.69,2.91A2.81,2.81,0,0,1,19.94,19.06Z" fill="#212121"/></g></g><g id="frame"><rect width="30" height="30" fill="none"/></g></svg>