<!-- Copyright (c) 2022 - 2023 Jan Stehno -->
<svg xmlns="http://www.w3.org/2000/svg" viewBox="0 0 30 30">
    <title>dlc</title>
    <g id="other_icons">
        <g id="dlc">
            <path
                d="M7.2,9.71a4.67,4.67,0,0,1,1.93,2A7.25,7.25,0,0,1,9.8,15a7.31,7.31,0,0,1-.67,3.24,4.65,4.65,0,0,1-1.93,2,6.11,6.11,0,0,1-3,.7H.63a.69.69,0,0,1-.48-.14A.68.68,0,0,1,0,20.35V9.65a.64.64,0,0,1,.15-.48A.64.64,0,0,1,.63,9H4.17A6.22,6.22,0,0,1,7.2,9.71ZM2.52,11.39v7.22H4a3,3,0,0,0,2.38-.91A4,4,0,0,0,7.16,15a4,4,0,0,0-.81-2.71A3,3,0,0,0,4,11.39Z"
                fill="#212121" />
            <path
                d="M19.22,18.71a.68.68,0,0,1,.19.36,2.8,2.8,0,0,1,.07.73,2.75,2.75,0,0,1-.07.73.64.64,0,0,1-.19.36.69.69,0,0,1-.38.09H11.46a.72.72,0,0,1-.49-.14.68.68,0,0,1-.15-.49V9.65A.64.64,0,0,1,11,9.17.67.67,0,0,1,11.46,9h1.25a.67.67,0,0,1,.49.15.69.69,0,0,1,.14.48v9h5.5A.69.69,0,0,1,19.22,18.71Z"
                fill="#212121" />
            <path
                d="M29.54,9.67a.77.77,0,0,1,.46.75,2.52,2.52,0,0,1-.14.7,1.73,1.73,0,0,1-.35.64.64.64,0,0,1-.44.2.63.63,0,0,1-.3-.07,7.29,7.29,0,0,0-1.5-.53,6.35,6.35,0,0,0-1.53-.17,2.66,2.66,0,0,0-2.21,1A4.49,4.49,0,0,0,22.75,15a4.46,4.46,0,0,0,.78,2.83,2.65,2.65,0,0,0,2.21,1,6.35,6.35,0,0,0,1.53-.17,7.29,7.29,0,0,0,1.5-.53.63.63,0,0,1,.3-.07.61.61,0,0,1,.44.21,1.6,1.6,0,0,1,.35.63,2.52,2.52,0,0,1,.14.7.77.77,0,0,1-.46.75,8.91,8.91,0,0,1-3.9.87,5.55,5.55,0,0,1-2.91-.75,5.14,5.14,0,0,1-1.93-2.16A7.35,7.35,0,0,1,20.11,15a7.37,7.37,0,0,1,.69-3.3,5,5,0,0,1,1.93-2.15,5.55,5.55,0,0,1,2.91-.75A8.91,8.91,0,0,1,29.54,9.67Z"
                fill="#212121" />
        </g>
    </g>
    <g id="frame">
        <rect width="30" height="30" fill="none" />
    </g>
</svg>