<svg xmlns="http://www.w3.org/2000/svg" viewBox="0 0 30 30"><path d="M10,.75c.31.83.62,1.66.94,2.48,1.08,2.85,2.17,5.69,3.24,8.54a.39.39,0,0,0,.4.3,8.73,8.73,0,0,1,7.05,3.85,7.93,7.93,0,0,1,1.53,4.45c.06,2,.06,4,0,6A9.05,9.05,0,0,1,23,27.92a10.12,10.12,0,0,0,3-1.11,11,11,0,0,0,2-1.37.88.88,0,0,1,1.2,0h0a.89.89,0,0,1,0,1.29,12.81,12.81,0,0,1-3,1.94A13,13,0,0,1,20.42,30H11.35a3.42,3.42,0,0,1,1-2.5,3.64,3.64,0,0,1,2.51-1.07l-4.43-3-.2.29q-2.05,3-4.1,6.08a.47.47,0,0,1-.43.23H2.45a1.45,1.45,0,0,1,.18-1c1.28-2,2.54-4,3.8-6a.93.93,0,0,0,.15-.46q0-6.29,0-12.57c0-.07,0-.15,0-.27H3.75a.58.58,0,0,1-.34-.12c-.9-.7-1.79-1.42-2.67-2.14a.48.48,0,0,1-.15-.32c0-.25,0-.51,0-.77s.06-.24.22-.29l3.13-1a.35.35,0,0,0,.29-.4c0-.29-.09-.66,0-.86s.53-.22.81-.32c.82-.28,1.64-.56,2.47-.82a.28.28,0,0,0,.23-.32V1.15A1.15,1.15,0,0,1,10,.75Z" transform="translate(0 0)" fill="#212121"/><rect width="30" height="30" transform="translate(30 30) rotate(-180)" fill="none"/></svg>