<!-- Copyright (c) 2022 Jan Stehno -->
<svg xmlns="http://www.w3.org/2000/svg" viewBox="0 0 30 30"><title>environment_winter</title><g id="environment"><g id="winter"><polygon points="17.81 10.13 12.19 10.13 9.38 15 12.19 19.87 17.81 19.87 20.63 15 17.81 10.13" fill="none" stroke="#212121" stroke-linecap="round" stroke-linejoin="round" stroke-width="3"/><line x1="15" y1="9.94" x2="15" y2="4.31" fill="none" stroke="#212121" stroke-linecap="round" stroke-miterlimit="10" stroke-width="3"/><line x1="15" y1="3.75" x2="12.75" y2="1.5" fill="none" stroke="#212121" stroke-linecap="round" stroke-miterlimit="10" stroke-width="3"/><line x1="15" y1="3.75" x2="17.25" y2="1.5" fill="none" stroke="#212121" stroke-linecap="round" stroke-miterlimit="10" stroke-width="3"/><line x1="15" y1="20.06" x2="15" y2="25.69" fill="none" stroke="#212121" stroke-linecap="round" stroke-miterlimit="10" stroke-width="3"/><line x1="15" y1="26.25" x2="17.25" y2="28.5" fill="none" stroke="#212121" stroke-linecap="round" stroke-miterlimit="10" stroke-width="3"/><line x1="15" y1="26.25" x2="12.75" y2="28.5" fill="none" stroke="#212121" stroke-linecap="round" stroke-miterlimit="10" stroke-width="3"/><line x1="10.62" y1="12.47" x2="5.74" y2="9.66" fill="none" stroke="#212121" stroke-linecap="round" stroke-miterlimit="10" stroke-width="3"/><line x1="5.26" y1="9.37" x2="2.18" y2="10.2" fill="none" stroke="#212121" stroke-linecap="round" stroke-miterlimit="10" stroke-width="3"/><line x1="5.26" y1="9.37" x2="4.43" y2="6.3" fill="none" stroke="#212121" stroke-linecap="round" stroke-miterlimit="10" stroke-width="3"/><line x1="19.38" y1="17.53" x2="24.26" y2="20.34" fill="none" stroke="#212121" stroke-linecap="round" stroke-miterlimit="10" stroke-width="3"/><line x1="24.74" y1="20.63" x2="27.82" y2="19.8" fill="none" stroke="#212121" stroke-linecap="round" stroke-miterlimit="10" stroke-width="3"/><line x1="24.74" y1="20.63" x2="25.57" y2="23.7" fill="none" stroke="#212121" stroke-linecap="round" stroke-miterlimit="10" stroke-width="3"/><line x1="10.62" y1="17.53" x2="5.74" y2="20.34" fill="none" stroke="#212121" stroke-linecap="round" stroke-miterlimit="10" stroke-width="3"/><line x1="5.26" y1="20.62" x2="4.43" y2="23.7" fill="none" stroke="#212121" stroke-linecap="round" stroke-miterlimit="10" stroke-width="3"/><line x1="5.26" y1="20.62" x2="2.18" y2="19.8" fill="none" stroke="#212121" stroke-linecap="round" stroke-miterlimit="10" stroke-width="3"/><line x1="19.38" y1="12.47" x2="24.26" y2="9.66" fill="none" stroke="#212121" stroke-linecap="round" stroke-miterlimit="10" stroke-width="3"/><line x1="24.74" y1="9.38" x2="25.57" y2="6.3" fill="none" stroke="#212121" stroke-linecap="round" stroke-miterlimit="10" stroke-width="3"/><line x1="24.74" y1="9.38" x2="27.82" y2="10.2" fill="none" stroke="#212121" stroke-linecap="round" stroke-miterlimit="10" stroke-width="3"/></g></g><g id="frame"><rect width="30" height="30" fill="none"/></g></svg>