<!-- Copyright (c) 2022 - 2023 Jan Stehno -->
<svg xmlns="http://www.w3.org/2000/svg" viewBox="0 0 30 30"><title>environment_hills</title><g id="environment"><g id="hills"><path d="M4.59,14.42V10.85" fill="#212121" stroke="#212121" stroke-linecap="round" stroke-linejoin="round"/><path d="M7,8.48c0,.63-.18,1.39-.65,1.63a3.74,3.74,0,0,1-1.72.74c-.36,0-.69-.21-1-.22A1.29,1.29,0,0,1,2.43,9.46c0-.28-.21-.63-.21-1,0-.86.41-1.84,1.16-2a4.92,4.92,0,0,1,1.21-.33c.66,0,1.1.47,1.68.69S7,7.83,7,8.48Z" fill="#212121" stroke="#212121" stroke-linecap="round" stroke-linejoin="round" stroke-width="2"/><path d="M22.49,11.93V10" fill="#212121" stroke="#212121" stroke-linecap="round" stroke-linejoin="round" stroke-width="0.5"/><path d="M23.78,8.7a1,1,0,0,1-.35.89,2,2,0,0,1-.94.4c-.19,0-.37-.12-.55-.12a.69.69,0,0,1-.62-.64c0-.15-.12-.34-.12-.53,0-.47.22-1,.63-1.1a2.5,2.5,0,0,1,.66-.19c.36,0,.6.26.91.38S23.78,8.35,23.78,8.7Z" fill="#212121" stroke="#212121" stroke-linecap="round" stroke-linejoin="round"/><path d="M15.07,18.67a9.67,9.67,0,0,0-5.75-2.33H1.5" fill="none" stroke="#212121" stroke-linecap="round" stroke-linejoin="round" stroke-width="3"/><path d="M4.75,23.88s5.58-3.72,10.59-4.94,8.9-1.08,13.16-1.08" fill="none" stroke="#212121" stroke-linecap="round" stroke-linejoin="round" stroke-width="3"/><path d="M11.08,16.57s2.18-2.71,7.06-2.71h9.24" fill="none" stroke="#212121" stroke-linecap="round" stroke-linejoin="round" stroke-width="3"/></g></g><g id="frame"><rect width="30" height="30" fill="none"/></g></svg>