<!-- Copyright (c) 2022 - 2023 Jan Stehno -->
<svg xmlns="http://www.w3.org/2000/svg" viewBox="0 0 30 30">
    <path d="M6.35,21.75V14.44" fill="#eee" stroke="#212121" stroke-linecap="round"
        stroke-linejoin="round" stroke-width="2" />
    <path
        d="M11.21,9.59c0,1.29-.38,2.83-1.33,3.33-1.14.6-2.14,1.52-3.53,1.52-.74,0-1.41-.44-2.06-.46a2.65,2.65,0,0,1-2.37-2.4c0-.56-.42-1.28-.42-2,0-1.77.83-3.78,2.37-4.17a9.9,9.9,0,0,1,2.48-.68c1.34,0,2.26,1,3.44,1.42S11.21,8.25,11.21,9.59Z"
        fill="#212121" stroke="#212121" stroke-linecap="round" stroke-linejoin="round"
        stroke-width="2" />
    <path d="M1.5,21.75H7.07c3.2,0,6.68,3.51,6.68,3.51" fill="none" stroke="#212121"
        stroke-linecap="round" stroke-linejoin="round" stroke-width="3" />
    <path
        d="M15,22.14a6,6,0,0,1,3.11-.7c2.07,0,2.28,1.16,4.71,1.16s2-1.16,4.06-1.16S29.5,22.6,29.5,22.6"
        fill="none" stroke="#212121" stroke-linecap="round" stroke-linejoin="round" />
    <path
        d="M17.28,24.18a5.9,5.9,0,0,1,2.44-.41c1.62,0,1.78.68,3.69.68s1.57-.68,3.19-.68,2.07.68,2.07.68"
        fill="none" stroke="#212121" stroke-linecap="round" stroke-linejoin="round"
        stroke-width="0.5" />
    <rect width="30" height="30" fill="none" />
</svg>