<!-- Copyright (c) 2022 - 2023 Jan Stehno -->
<svg xmlns="http://www.w3.org/2000/svg" viewBox="0 0 30 30"><title>environment_plains</title><g id="environment"><g id="plains"><line x1="1.5" y1="19.58" x2="28.5" y2="19.58" fill="none" stroke="#212121" stroke-linecap="round" stroke-linejoin="round" stroke-width="3"/><line x1="2.93" y1="18.36" x2="2.93" y2="16.55" fill="none" stroke="#212121" stroke-linecap="round" stroke-linejoin="round" stroke-width="0.5"/><line x1="4.84" y1="18.71" x2="4.84" y2="16.07" fill="none" stroke="#212121" stroke-linecap="round" stroke-linejoin="round" stroke-width="0.5"/><line x1="7.03" y1="18.13" x2="7.03" y2="16.32" fill="none" stroke="#212121" stroke-linecap="round" stroke-linejoin="round" stroke-width="0.5"/><line x1="9.5" y1="18.47" x2="9.5" y2="16.67" fill="none" stroke="#212121" stroke-linecap="round" stroke-linejoin="round" stroke-width="0.5"/><line x1="10.92" y1="18.47" x2="10.92" y2="16.67" fill="none" stroke="#212121" stroke-linecap="round" stroke-linejoin="round" stroke-width="0.5"/><line x1="12.51" y1="17.9" x2="12.51" y2="16.09" fill="none" stroke="#212121" stroke-linecap="round" stroke-linejoin="round" stroke-width="0.5"/><line x1="14.04" y1="18.01" x2="14.04" y2="16.21" fill="none" stroke="#212121" stroke-linecap="round" stroke-linejoin="round" stroke-width="0.5"/><line x1="16.23" y1="18.69" x2="16.23" y2="16.88" fill="none" stroke="#212121" stroke-linecap="round" stroke-linejoin="round" stroke-width="0.5"/><line x1="27.1" y1="17.9" x2="27.1" y2="16.09" fill="none" stroke="#212121" stroke-linecap="round" stroke-linejoin="round" stroke-width="0.5"/><line x1="25.68" y1="18.69" x2="25.68" y2="16.88" fill="none" stroke="#212121" stroke-linecap="round" stroke-linejoin="round" stroke-width="0.5"/><path d="M21.19,12.29a1.83,1.83,0,0,0-1.32.55,1.87,1.87,0,0,0-.55,1.33" fill="none" stroke="#212121" stroke-linecap="round" stroke-linejoin="round" stroke-width="0.5"/><path d="M19.32,14.17A1.88,1.88,0,0,0,21.19,16" fill="none" stroke="#212121" stroke-linecap="round" stroke-linejoin="round" stroke-width="0.5"/><path d="M21.19,16a1.87,1.87,0,0,0,1.33-.55,1.83,1.83,0,0,0,.55-1.32" fill="none" stroke="#212121" stroke-linecap="round" stroke-linejoin="round" stroke-width="0.5"/><path d="M23.07,14.17a1.88,1.88,0,0,0-1.88-1.88" fill="none" stroke="#212121" stroke-linecap="round" stroke-linejoin="round" stroke-width="0.5"/><path d="M21.19,11.35a2.82,2.82,0,0,0-2.81,2.82" fill="none" stroke="#212121" stroke-linecap="round" stroke-linejoin="round" stroke-width="0.5"/><path d="M24,14.17a2.83,2.83,0,0,0-2.82-2.82" fill="none" stroke="#212121" stroke-linecap="round" stroke-linejoin="round" stroke-width="0.5"/><path d="M21.19,17A2.82,2.82,0,0,0,24,14.17" fill="none" stroke="#212121" stroke-linecap="round" stroke-linejoin="round" stroke-width="0.5"/><path d="M17.44,14.17a3.76,3.76,0,0,0,3.75,3.75" fill="none" stroke="#212121" stroke-linecap="round" stroke-linejoin="round" stroke-width="0.5"/><path d="M21.19,10.42a3.73,3.73,0,0,0-2.65,1.09,3.78,3.78,0,0,0-1.1,2.66" fill="none" stroke="#212121" stroke-linecap="round" stroke-linejoin="round" stroke-width="0.5"/><path d="M21.19,17.92a3.78,3.78,0,0,0,2.66-1.1A3.74,3.74,0,0,0,25,14.17" fill="none" stroke="#212121" stroke-linecap="round" stroke-linejoin="round" stroke-width="0.5"/></g></g><g id="frame"><rect width="30" height="30" fill="none"/></g></svg>