<!-- Copyright (c) 2022 - 2023 Jan Stehno -->
<svg xmlns="http://www.w3.org/2000/svg" viewBox="0 0 30 30">
    <path
        d="M9.4,5.3A19.06,19.06,0,0,1,13.85,10a28.2,28.2,0,0,1,3.06,5.77,45.64,45.64,0,0,1,1.9,6.19,36.91,36.91,0,0,1,.94,6.49l-2.83-.12a33.38,33.38,0,0,1,2.35-7.41c.51-1.16,1.05-2.32,1.66-3.44a36.3,36.3,0,0,1,1.95-3.28c-.55,2.49-1.18,4.92-1.76,7.35-.28,1.21-.58,2.41-.8,3.61s-.46,2.39-.58,3.55a1.42,1.42,0,0,1-2.82,0v-.12c-.2-1.92-.6-4-1-6s-.94-4-1.49-6a45.64,45.64,0,0,0-2.06-5.77A38.67,38.67,0,0,0,9.4,5.3Z"
        fill="#212121" />
    <path d="M17.68,15.79c1.23.79,1.84-4.72,1.84-4.72S16.16,14.82,17.68,15.79Z" fill="#212121" />
    <path d="M16.56,13.19c1.23.8,1.84-4.71,1.84-4.71S15.05,12.22,16.56,13.19Z" fill="#212121" />
    <path d="M15.27,10.7C16.5,11.49,17.11,6,17.11,6S13.76,9.73,15.27,10.7Z" fill="#212121" />
    <path d="M13.66,8.4c1.23.79,1.84-4.71,1.84-4.71S12.14,7.43,13.66,8.4Z" fill="#212121" />
    <path d="M12,6.45c1.31.61,1.23-4.93,1.23-4.93S10.41,5.7,12,6.45Z" fill="#212121" />
    <path d="M10.4,5.09c1.43.18-.2-5.09-.2-5.09S8.64,4.88,10.4,5.09Z" fill="#212121" />
    <path d="M9,4.74c1.12-1-3.59-3.41-3.59-3.41S7.64,5.92,9,4.74Z" fill="#212121" />
    <path d="M9.19,6.7c.54-1.41-4.71-1.17-4.71-1.17S8.52,8.42,9.19,6.7Z" fill="#212121" />
    <path d="M10.25,8.61c.42-1.45-4.78-.71-4.78-.71S9.73,10.4,10.25,8.61Z" fill="#212121" />
    <path d="M11.5,10.74C11.93,9.29,6.72,10,6.72,10S11,12.53,11.5,10.74Z" fill="#212121" />
    <path d="M12.37,12.87c.42-1.45-4.78-.71-4.78-.71S11.85,14.66,12.37,12.87Z" fill="#212121" />
    <path d="M13.13,15c.43-1.46-4.78-.72-4.78-.72S12.62,16.78,13.13,15Z" fill="#212121" />
    <path d="M14,17.24c.43-1.46-4.78-.72-4.78-.72S13.5,19,14,17.24Z" fill="#212121" />
    <path d="M23.09,13.81c.67.44,1-2.57,1-2.57S22.27,13.27,23.09,13.81Z" fill="#212121" />
    <path d="M22.25,14.15c.78.08-.14-2.78-.14-2.78S21.29,14,22.25,14.15Z" fill="#212121" />
    <path d="M21.63,15.43c.79-.09-.71-2.68-.71-2.68S20.67,15.55,21.63,15.43Z" fill="#212121" />
    <path d="M20.81,16.64c.79-.1-.71-2.69-.71-2.69S19.85,16.76,20.81,16.64Z" fill="#212121" />
    <path d="M23.29,14.72c-.52-.63,2.23-1.5,2.23-1.5S23.93,15.48,23.29,14.72Z" fill="#212121" />
    <path d="M22.85,16.09c-.43-.7,2.42-1.12,2.42-1.12S23.37,17,22.85,16.09Z" fill="#212121" />
    <path d="M22.49,17.52c-.42-.69,2.42-1.12,2.42-1.12S23,18.38,22.49,17.52Z" fill="#212121" />
    <rect width="30" height="30" fill="none" />
</svg>