<svg xmlns="http://www.w3.org/2000/svg" viewBox="0 0 30 30"><line x1="12.21" y1="13.02" x2="14.68" y2="10.55" fill="#212121" stroke="#212121" stroke-linecap="round" stroke-linejoin="round" stroke-width="2"/><line x1="13.62" y1="17.26" x2="17.36" y2="13.51" fill="#212121" stroke="#212121" stroke-linecap="round" stroke-linejoin="round" stroke-width="2"/><line x1="16.55" y1="19.45" x2="13.45" y2="22.55" fill="#212121" stroke="#212121" stroke-linecap="round" stroke-linejoin="round" stroke-width="2"/><path d="M15,28h-.1a.23.23,0,0,0-.1-.07,13.58,13.58,0,0,0-6.08-1.55c-1.64,0-3.27,0-4.9,0H3.58V22c.51-.18,1-.34,1.55-.53a4.54,4.54,0,0,0,2.55-6.24,4.72,4.72,0,0,0-2.85-2.38l-1.25-.42V8.09h5.9A1.67,1.67,0,0,0,11.19,6.4a8.21,8.21,0,0,1,.15-1.31,3.56,3.56,0,0,1,2.07-2.74A8.7,8.7,0,0,1,14.54,2h.86l.22,0a3.46,3.46,0,0,1,2.71,2.08,5.57,5.57,0,0,1,.47,2.2,1.66,1.66,0,0,0,1.79,1.76h5.8a.33.33,0,0,1,0,.1V12.3c0,.15-.08.18-.19.22-.53.18-1.08.34-1.6.56a4.46,4.46,0,0,0-2.78,4.3,4.54,4.54,0,0,0,3,4.1c.45.17.91.32,1.37.46a.26.26,0,0,1,.22.3c0,1.3,0,2.6,0,3.91a2.15,2.15,0,0,1,0,.23H21.64a14,14,0,0,0-4,.57A11.51,11.51,0,0,0,15,28ZM5.09,24.85H8.53a15.19,15.19,0,0,1,6.2,1.34.62.62,0,0,0,.53,0,14.87,14.87,0,0,1,6-1.33c1.11,0,2.22,0,3.32,0h.29c0-.56,0-1.09,0-1.62,0-.06-.1-.14-.17-.17-.34-.14-.69-.25-1-.4a6,6,0,0,1-1.83-9.46,6.69,6.69,0,0,1,2.8-1.78c.08,0,.2-.11.2-.16,0-.54,0-1.08,0-1.64H20.56a3.18,3.18,0,0,1-3.28-3.24,4.36,4.36,0,0,0-.34-1.63,2.16,2.16,0,0,0-3.89,0,4.48,4.48,0,0,0-.34,1.66A3.19,3.19,0,0,1,9.42,9.62H5.09V10.7c0,.63,0,.63.58.85a6,6,0,0,1,2.49,9.67,6.14,6.14,0,0,1-2.85,1.83c-.08,0-.21.12-.21.18C5.08,23.76,5.09,24.3,5.09,24.85Z" fill="#212121" stroke="#212121" stroke-miterlimit="10"/><rect width="30" height="30" fill="none"/></svg>