<svg xmlns="http://www.w3.org/2000/svg" viewBox="0 0 30 30"><path d="M12.35,20.09l-1.28-.2a11.94,11.94,0,0,1-3.35-1,7.06,7.06,0,0,1-3.67-4.08,10.78,10.78,0,0,1-.34-6.71A6.77,6.77,0,0,1,5.2,5.45.4.4,0,0,0,5.31,5,6.9,6.9,0,0,1,5.49.26.42.42,0,0,1,5.78,0,9.3,9.3,0,0,1,7.29.23,12.92,12.92,0,0,1,10.76,1.9a.72.72,0,0,0,.49.1,19.17,19.17,0,0,1,9.37,0,.64.64,0,0,0,.57-.09,11.66,11.66,0,0,1,4-1.8c1.09-.22,1.21-.15,1.49.9a7.2,7.2,0,0,1,0,4,.45.45,0,0,0,.07.36,7.7,7.7,0,0,1,1.87,5.72,11.52,11.52,0,0,1-.81,4,7.35,7.35,0,0,1-5,4.28c-1,.29-2,.43-3,.63l-.19,0c.17.22.34.41.48.61a5,5,0,0,1,.79,2.89c0,1.73,0,3.46,0,5.19,0,.53.1,1.06.68,1.26H10.34c.66-.19.77-.69.75-1.28,0-.87,0-1.73,0-2.6,0-.11,0-.22,0-.35-.47.06-.9.13-1.34.17a5.57,5.57,0,0,1-3.95-1A4.11,4.11,0,0,1,4.4,23.18a5.86,5.86,0,0,0-2.38-3,2,2,0,0,1-.44-.38c-.28-.3-.21-.56.2-.61a3,3,0,0,1,1,0,4.11,4.11,0,0,1,2.51,1.88,8.23,8.23,0,0,0,.76,1,4,4,0,0,0,4.2,1c.53-.14.88-.34,1-1A3.49,3.49,0,0,1,12.35,20.09Z" transform="translate(0 0)" fill="#212121"/><rect width="30" height="30" fill="none"/></svg>