<!-- Copyright (c) 2022 - 2023 Jan Stehno -->
<svg xmlns="http://www.w3.org/2000/svg" viewBox="0 0 30 30">
    <title>grounded</title>
    <g id="other_icons">
        <g id="grounded">
            <path
                d="M1.5,21c0,.28.86.11,1.67.3a15.61,15.61,0,0,0,2.44.19,15.35,15.35,0,0,1,4.84,1.63c1.3.75,1.4,1.44,3.42,2.25a11.12,11.12,0,0,0,5.82,1,19.6,19.6,0,0,0,4.71-.69c1-.33,1.8-.09,2-.26a.43.43,0,0,0,.17-.57c-.07-.26.47-.14.59-.35s.1-.35-.81-.46-3.22-.17-4.07-.95-.33-1.12.54-2.17a8.82,8.82,0,0,0,2.05-3.64c.64-2,1.05-4.86,1.84-7.54s4.21-9.9-1.31-3.23S20,12,18.61,13.71s-1.51,2.72-1.94,2.67S15,15,14.18,13s-.68-3.51-1.81-1.75-2.16,4-2,6.05,1.81,3.22,1.47,3.54-3.9,0-5.24-.58-1.67-1-2.39-1-1.13.55-1.73.94S1.5,20.75,1.5,21Z"
                fill="none" stroke="#212121" stroke-miterlimit="10" stroke-width="3" />
            <path d="M11.38,21c1.58,0,5.25-4,6-5.45" fill="none" stroke="#212121"
                stroke-miterlimit="10" stroke-width="3" />
        </g>
    </g>
    <g id="frame">
        <rect width="30" height="30" fill="none" />
    </g>
</svg>