<!-- Copyright (c) 2022 Jan Stehno -->
<svg xmlns="http://www.w3.org/2000/svg" viewBox="0 0 30 30"><title>harvest_correct_ammo</title><g id="harvest_check"><g id="correct_ammo"><path d="M1.9,8.1,3.8.47a.54.54,0,0,1,1.08,0L6.79,8.1a.53.53,0,0,1-.45.69h-4A.52.52,0,0,1,1.9,8.1Z" fill="#212121"/><path d="M7.72,22.44,7,11c0-.54.12-1-.57-1H2.21c-.69,0-.57.43-.57,1L1,22.44a1.13,1.13,0,0,0,1.25,1H6.47A1.13,1.13,0,0,0,7.72,22.44Z" fill="#212121"/><path d="M1,25.36v3.91a.87.87,0,0,0,1,.73H6.77a.87.87,0,0,0,1-.73V25.36a.87.87,0,0,0-1-.74H1.91A.87.87,0,0,0,1,25.36Z" fill="#212121"/><path d="M12.56,8.1,13,6.24a2.06,2.06,0,0,1,4,0l.46,1.86a.52.52,0,0,1-.44.69H13A.52.52,0,0,1,12.56,8.1Z" fill="#212121"/><path d="M18.38,22.44,17.7,11c0-.54.12-1-.57-1H12.87c-.69,0-.57.43-.57,1l-.68,11.46a1.13,1.13,0,0,0,1.25,1h4.26A1.13,1.13,0,0,0,18.38,22.44Z" fill="#212121"/><path d="M11.62,25.36v3.91a.87.87,0,0,0,1,.73h4.86a.87.87,0,0,0,.95-.73V25.36a.87.87,0,0,0-.95-.74H12.57A.87.87,0,0,0,11.62,25.36Z" fill="#212121"/><path d="M22.28,25.36v3.91a.87.87,0,0,0,.95.73h4.86a.87.87,0,0,0,.95-.73V25.36a.87.87,0,0,0-.95-.74H23.23A.87.87,0,0,0,22.28,25.36Z" fill="#212121"/><rect x="22.51" y="11.15" width="6.29" height="11.99" rx="0.68" ry="0.68" fill="#212121"/></g></g><g id="frame"><rect width="30" height="30" fill="none"/></g></svg>