<svg xmlns="http://www.w3.org/2000/svg" viewBox="0 0 30 30"><rect x="1.5" y="1.5" width="27" height="27" rx="10.3" fill="none" stroke="#212121" stroke-miterlimit="10" stroke-width="3"/><path d="M15.83,23.3H14.17a1.47,1.47,0,0,1-1.47-1.47v-.89a.23.23,0,0,1,.23-.24h4.14a.23.23,0,0,1,.23.24v.89A1.47,1.47,0,0,1,15.83,23.3Z" transform="translate(0 0)" fill="#231f20"/><path d="M14.38,6.73A5.49,5.49,0,0,0,9.6,11.34a5.43,5.43,0,0,0,2.2,5.22,2.18,2.18,0,0,1,.9,1.75v.58a.54.54,0,0,0,.53.54h3.54a.54.54,0,0,0,.53-.54v-.58a2.12,2.12,0,0,1,.88-1.73,5.45,5.45,0,0,0-3.8-9.85Zm4,5.49v.12a3.29,3.29,0,0,1-.19.88,3.45,3.45,0,0,1-.38.74l-.12.17a3.44,3.44,0,0,1-.57.64l-.4.34a1,1,0,0,0-.15.14l-.21.22a2.11,2.11,0,0,0-.47.77,2.16,2.16,0,0,0-.12.71v.49a.22.22,0,0,1-.22.21h-1.1a.22.22,0,0,1-.22-.21V16a2.83,2.83,0,0,1,.05-.5,2.31,2.31,0,0,1,.39-.86l0,0a2.07,2.07,0,0,1,.49-.49l.42-.32.14-.12.28-.24a2.39,2.39,0,0,0,.46-.54l.19-.3,0-.07.1-.49a.08.08,0,0,0,0-.07l0-.17a2.26,2.26,0,0,0-.27-.87h0a2.43,2.43,0,0,0-.55-.69l-.4-.36.92-1.18.42.32a1.64,1.64,0,0,1,.25.21l.13.12a3.69,3.69,0,0,1,.56.68l.05.08a3.4,3.4,0,0,1,.42,1l0,.09A3.61,3.61,0,0,1,18.35,12.22Z" transform="translate(0 0)" fill="#231f20"/><rect width="30" height="30" transform="translate(30 30) rotate(-180)" fill="none"/></svg>