<svg xmlns="http://www.w3.org/2000/svg" viewBox="0 0 30 30"><g id="other_icons"><g id="link"><path d="M26.5,0H16.75A1.75,1.75,0,0,0,15,1.75h0A1.75,1.75,0,0,0,16.75,3.5H24L10.67,16.85a1.76,1.76,0,0,0,0,2.48h0a1.76,1.76,0,0,0,2.48,0L26.5,6v7.28A1.75,1.75,0,0,0,28.25,15h0A1.75,1.75,0,0,0,30,13.25V3.5h0A3.5,3.5,0,0,0,26.5,0Z" transform="translate(0 0)" fill="#212121"/><path d="M4.87,4.75H9.25A1.75,1.75,0,0,1,11,6.5h0A1.75,1.75,0,0,1,9.25,8.25h-4A1.75,1.75,0,0,0,3.5,10V24.75A1.75,1.75,0,0,0,5.25,26.5H20a1.75,1.75,0,0,0,1.75-1.75v-4A1.75,1.75,0,0,1,23.5,19h0a1.75,1.75,0,0,1,1.75,1.75v4.38A4.87,4.87,0,0,1,20.38,30H4.87A4.87,4.87,0,0,1,0,25.13V9.62A4.87,4.87,0,0,1,4.87,4.75Z" transform="translate(0 0)" fill="#212121"/></g></g><g id="frame"><rect width="30" height="30" transform="translate(30 30) rotate(-180)" fill="none"/></g></svg>