<!-- Copyright (c) 2022 - 2023 Jan Stehno -->
<svg xmlns="http://www.w3.org/2000/svg" viewBox="0 0 30 30">
    <path
        d="M3.21,8.79,4.92,1.92a.49.49,0,0,1,1,0L7.61,8.79a.48.48,0,0,1-.4.62H3.61A.47.47,0,0,1,3.21,8.79Z"
        fill="#212121" />
    <path
        d="M8.45,21.7,7.84,11.38c0-.48.1-.87-.52-.87H3.49c-.62,0-.51.39-.51.87L2.37,21.7a1,1,0,0,0,1.12.86H7.32A1,1,0,0,0,8.45,21.7Z"
        fill="#212121" />
    <path
        d="M2.37,24.32v3.52a.78.78,0,0,0,.85.66H7.59a.79.79,0,0,0,.86-.66V24.32a.79.79,0,0,0-.86-.66H3.22A.78.78,0,0,0,2.37,24.32Z"
        fill="#212121" />
    <path
        d="M12.8,8.79l.42-1.67a1.85,1.85,0,0,1,3.56,0l.42,1.67a.47.47,0,0,1-.4.62H13.2A.47.47,0,0,1,12.8,8.79Z"
        fill="#212121" />
    <path
        d="M18,21.7l-.61-10.32c0-.48.11-.87-.51-.87H13.08c-.62,0-.51.39-.51.87L12,21.7a1,1,0,0,0,1.12.86h3.84A1,1,0,0,0,18,21.7Z"
        fill="#212121" />
    <path
        d="M12,24.32v3.52a.78.78,0,0,0,.86.66h4.36a.78.78,0,0,0,.86-.66V24.32a.78.78,0,0,0-.86-.66H12.82A.78.78,0,0,0,12,24.32Z"
        fill="#212121" />
    <path
        d="M21.55,24.32v3.52a.79.79,0,0,0,.86.66h4.37a.78.78,0,0,0,.85-.66V24.32a.78.78,0,0,0-.85-.66H22.41A.79.79,0,0,0,21.55,24.32Z"
        fill="#212121" />
    <rect x="21.76" y="11.54" width="5.66" height="10.79" rx="0.68" fill="#212121" />
    <rect width="30" height="30" fill="none" />
</svg>