<!-- Copyright (c) 2023 Jan Stehno -->
<svg xmlns="http://www.w3.org/2000/svg" viewBox="0 0 30 30">
    <path
        d="M14.8,5h.4a5.34,5.34,0,0,1,5.12,5.24h2.31a7,7,0,0,0-3.69-6.71,9.15,9.15,0,0,0-3.94-1,9.15,9.15,0,0,0-3.94,1A7,7,0,0,0,7.37,10.2H9.68A5.34,5.34,0,0,1,14.8,5Z"
        fill="#212121" />
    <path
        d="M21.49,12.14h-13a2.92,2.92,0,0,0-3.13,3.12q0,4.57,0,9.13A2.92,2.92,0,0,0,8.52,27.5h13a2.92,2.92,0,0,0,3.14-3.11q0-4.56,0-9.13A2.92,2.92,0,0,0,21.49,12.14Zm-4.78,7.38a1.71,1.71,0,0,0-.55,1.53c0,.1,0,.21,0,.31v1a1.17,1.17,0,1,1-2.32,0v-1c0-.1,0-.21,0-.31a1.71,1.71,0,0,0-.55-1.53,2,2,0,0,1,.17-3.05,2.4,2.4,0,0,1,3.08,0A2,2,0,0,1,16.71,19.52Z"
        fill="#212121" />
    <rect width="30" height="30" fill="none" />
</svg>