<!-- Copyright (c) 2022 Jan Stehno -->
<svg xmlns="http://www.w3.org/2000/svg" viewBox="0 0 30 30"><title>lookout</title><g id="icons"><g id="lookout"><rect x="5.44" y="9.3" width="19.12" height="1.08" rx="0.36" ry="0.36" fill="#212121"/><path d="M23.2,3.16H6.73a.42.42,0,0,0-.43.42V9.29H19.91V5.2a.2.2,0,0,1,.2-.2h1.4a.2.2,0,0,1,.2.2V9.29h1.91V3.58A.42.42,0,0,0,23.2,3.16ZM12.69,6.53a.27.27,0,0,1-.28.27H8.64a.27.27,0,0,1-.28-.27V5.28A.27.27,0,0,1,8.64,5h3.77a.27.27,0,0,1,.28.28Zm5.77,0a.27.27,0,0,1-.27.27H14.41a.28.28,0,0,1-.28-.27V5.28A.28.28,0,0,1,14.41,5h3.78a.27.27,0,0,1,.27.28Z" transform="translate(0 0)" fill="#212121"/><rect x="6.46" y="9.68" width="0.85" height="20.35" rx="0.28" ry="0.28" transform="translate(1.76 -0.52) rotate(5)" fill="#212121"/><rect x="22.69" y="9.68" width="0.85" height="20.35" rx="0.28" ry="0.28" transform="translate(47.87 37.62) rotate(175)" fill="#212121"/><path d="M7.7,12.22,23.35,27.87c.11.11.25.17.3.12l.16-.16c.05,0,0-.19-.12-.3L8.05,11.88c-.12-.11-.26-.17-.31-.11l-.15.15C7.53,12,7.59,12.11,7.7,12.22Z" transform="translate(0 0)" fill="#212121"/><path d="M18.57,8.74l-7.06,7a.12.12,0,0,1-.18,0l-.16-.15a.14.14,0,0,1,0-.19l7.06-7a.12.12,0,0,1,.18,0l.16.16A.14.14,0,0,1,18.57,8.74Z" transform="translate(0 0)" fill="#212121"/><path d="M22.3,12.22,6.65,27.87c-.11.11-.25.17-.3.12l-.16-.16c-.05,0,0-.19.12-.3L22,11.88c.12-.11.26-.17.31-.11l.15.15C22.47,12,22.41,12.11,22.3,12.22Z" transform="translate(0 0)" fill="#212121"/><rect x="14.89" y="6.97" width="0.48" height="10.25" rx="0.13" ry="0.13" transform="translate(-4.12 14.24) rotate(-45)" fill="#212121"/><path d="M4.55,3.14,14.93.72a.33.33,0,0,1,.14,0L25.45,3.14a.31.31,0,0,0,.38-.3V2.75a.32.32,0,0,0-.24-.3L15.11,0a.41.41,0,0,0-.22,0L4.41,2.45a.32.32,0,0,0-.24.3v.09A.31.31,0,0,0,4.55,3.14Z" transform="translate(0 0)" fill="#212121"/></g></g><g id="frame"><rect width="30" height="30" fill="none"/></g></svg>