<!-- Copyright (c) 2023 Jan Stehno -->
<svg xmlns="http://www.w3.org/2000/svg" viewBox="0 0 30 30">
    <path
        d="M20.3,14h6.88a1.25,1.25,0,0,1,.41,2.45,2.33,2.33,0,0,1-.53.06H13.54a1.92,1.92,0,0,1-.63-.09A1.25,1.25,0,0,1,12.14,15a1.22,1.22,0,0,1,1.24-1Z"
        fill="#212121" />
    <path
        d="M20.32,6.81c-2.31,0-4.62,0-6.92,0A1.21,1.21,0,0,1,12.19,6a1.18,1.18,0,0,1,.4-1.38,1.59,1.59,0,0,1,.83-.28q6.89,0,13.77,0a1.25,1.25,0,1,1,0,2.5C24.88,6.82,22.6,6.81,20.32,6.81Z"
        fill="#212121" />
    <path
        d="M20.31,23.62c2.3,0,4.59,0,6.89,0a1.26,1.26,0,0,1,.13,2.51H13.49A1.26,1.26,0,0,1,12.13,25a1.23,1.23,0,0,1,1.3-1.37c2,0,3.89,0,5.84,0Z"
        fill="#212121" />
    <path
        d="M4.19,5.94c.18-.23.33-.43.5-.61L7.35,2.66a1.26,1.26,0,1,1,1.8,1.76c-1.34,1.36-2.69,2.7-4,4a1.24,1.24,0,0,1-1.92,0L1.92,7.19A1.26,1.26,0,1,1,3.7,5.42Z"
        fill="#212121" />
    <path
        d="M4.13,15.57l1.41-1.43,1.88-1.88A1.25,1.25,0,1,1,9.2,14Q7.13,16.12,5,18.21a1.2,1.2,0,0,1-1.74,0c-.49-.46-1-.93-1.42-1.42A1.25,1.25,0,0,1,3.63,15,5.69,5.69,0,0,1,4.13,15.57Z"
        fill="#212121" />
    <path
        d="M4.13,24.77l1.41-1.43c.63-.62,1.25-1.26,1.88-1.87A1.25,1.25,0,1,1,9.2,23.22Q7.13,25.32,5,27.41a1.2,1.2,0,0,1-1.74,0c-.49-.46-1-.93-1.42-1.42a1.25,1.25,0,0,1,1.77-1.77A5.69,5.69,0,0,1,4.13,24.77Z"
        fill="#212121" />
    <rect width="30" height="30" fill="none" />
</svg>