<!-- Copyright (c) 2022 - 2023 Jan Stehno -->
<svg xmlns="http://www.w3.org/2000/svg" viewBox="0 0 30 30">
    <title>need_zones</title>
    <g id="thehunter">
        <g id="need_zones">
            <polyline points="1.67 1.5 11.15 1.5 1.5 10.71 11.43 10.71" fill="none" stroke="#212121"
                stroke-linecap="round" stroke-linejoin="round" stroke-width="3" />
            <path
                d="M23.33,15a3.78,3.78,0,0,0,1.65.27c1.15,0,2.4-.53,3.24-2.82s-.31-5.35-2-7.11a8.93,8.93,0,0,0-4.49,1.43c-2.42,1.48-3.17,2.26-3.17,4s1,2.41,2.49,3.39c0,0-.16.33-2.18,1.61"
                transform="translate(0)" fill="none" stroke="#212121" stroke-linecap="round"
                stroke-width="3" />
            <path d="M24.21,9.8a8.46,8.46,0,0,1-3.15,4.38" transform="translate(0)" fill="none"
                stroke="#212121" stroke-linecap="round" stroke-width="3" />
            <path d="M11.43,16.91s-5,4.27-5,7.29,1.8,4.3,5,4.3" transform="translate(0)" fill="none"
                stroke="#212121" stroke-linecap="round" stroke-width="3" />
            <path d="M11.43,16.91s5,4.27,5,7.29-1.81,4.3-5,4.3" transform="translate(0)" fill="none"
                stroke="#212121" stroke-linecap="round" stroke-width="3" />
            <path d="M9.43,24.32s-.24.43.3.87.78.32.78.32" transform="translate(0)" fill="none"
                stroke="#212121" stroke-linecap="round" stroke-width="2" />
        </g>
    </g>
    <g id="frame">
        <rect width="30" height="30" fill="none" />
    </g>
</svg>