<svg xmlns="http://www.w3.org/2000/svg" viewBox="0 0 30 30"><g id="other_icons"><g id="no_internet_connection"><path d="M27.46,7c.71.71,1.4,1.37,2.06,2.06a1.57,1.57,0,0,1-.67,2.64,1.54,1.54,0,0,1-1.61-.42l-2-2-2,2a1.65,1.65,0,0,1-1.12.53,1.56,1.56,0,0,1-1.52-.9,1.52,1.52,0,0,1,.27-1.77c.59-.62,1.21-1.22,1.82-1.82A2.74,2.74,0,0,1,23,7.06L20.93,5a1.55,1.55,0,0,1-.48-1.5,1.58,1.58,0,0,1,2.66-.82c.62.58,1.2,1.19,1.8,1.79a2.74,2.74,0,0,1,.25.34l2.06-2.07a1.56,1.56,0,0,1,1.35-.5A1.53,1.53,0,0,1,29.9,3.3,1.5,1.5,0,0,1,29.52,5c-.58.6-1.18,1.18-1.77,1.78C27.66,6.81,27.58,6.9,27.46,7Z" transform="translate(0 0)" fill="#212121"/><path d="M14.78,2.23c.31,0,.62,0,.93,0A1.56,1.56,0,0,1,17.14,3.9a1.57,1.57,0,0,1-1.59,1.52A17.94,17.94,0,0,0,10,6.35,17.44,17.44,0,0,0,2.9,10.88a1.74,1.74,0,0,1-1.19.62,1.58,1.58,0,0,1-1.55-.91A1.53,1.53,0,0,1,.47,8.8,35.79,35.79,0,0,1,3.33,6.28,20.45,20.45,0,0,1,14.78,2.23Z" transform="translate(0 0)" fill="#212121"/><path d="M15.64,15a9.57,9.57,0,0,1,6.81,2.88,1.6,1.6,0,1,1-2.24,2.27,6.37,6.37,0,0,0-9.21,0,1.6,1.6,0,1,1-2.26-2.25A9.57,9.57,0,0,1,15.64,15Z" transform="translate(0 0)" fill="#212121"/><path d="M15.13,8.61a4.8,4.8,0,0,1,.85.07,1.56,1.56,0,0,1,1.15,1.74,1.54,1.54,0,0,1-1.49,1.37,11.75,11.75,0,0,0-4.81,1.1,11.39,11.39,0,0,0-3.34,2.42,1.57,1.57,0,0,1-1.41.54,1.59,1.59,0,0,1-1-2.67,14.18,14.18,0,0,1,5.62-3.71A14.62,14.62,0,0,1,15.13,8.61Z" transform="translate(0 0)" fill="#212121"/><path d="M12.42,24.58a3.2,3.2,0,1,1,3.19,3.2A3.22,3.22,0,0,1,12.42,24.58Z" transform="translate(0 0)" fill="#212121"/></g></g><g id="frame"><rect width="30" height="30" transform="translate(30 30) rotate(-180)" fill="none"/></g></svg>