<!-- Copyright (c) 2023 Jan Stehno -->
<svg xmlns="http://www.w3.org/2000/svg" viewBox="0 0 30 30">
    <path d="M3.88,21.37V11.27L1.5,12.74V10.09L3.88,8.66H6.34V21.37Z" fill="#212121"
        stroke="#212121" stroke-width="0.4" />
    <path
        d="M9.34,21.36V19.27l5.33-4.73a3.51,3.51,0,0,0,.85-1,1.81,1.81,0,0,0,.25-.87,2.19,2.19,0,0,0-.24-1,1.76,1.76,0,0,0-.67-.71,1.89,1.89,0,0,0-1-.26,2.1,2.1,0,0,0-1.07.27,2,2,0,0,0-.72.74,1.85,1.85,0,0,0-.24,1H9.34a4.34,4.34,0,0,1,.57-2.26,3.92,3.92,0,0,1,1.6-1.47A5.16,5.16,0,0,1,13.9,8.4a4.57,4.57,0,0,1,2.23.54,4.09,4.09,0,0,1,1.55,1.51,4.47,4.47,0,0,1,.56,2.25A4.15,4.15,0,0,1,18,14.27a3.64,3.64,0,0,1-.79,1.15c-.35.35-.78.75-1.28,1.19l-3.44,3-.2-.53h6v2.26Z"
        fill="#212121" stroke="#212121" stroke-width="0.4" />
    <path
        d="M24.07,21.6a4.34,4.34,0,0,1-1.82-.38,4.64,4.64,0,0,1-1.51-1.08,4.13,4.13,0,0,1-.91-1.64l2.33-.62A1.88,1.88,0,0,0,22.89,19a2,2,0,0,0,1.18.38,1.92,1.92,0,0,0,1-.26,2.07,2.07,0,0,0,.72-.72,1.89,1.89,0,0,0,.27-1A1.94,1.94,0,0,0,25.5,16a1.89,1.89,0,0,0-1.43-.59,1.82,1.82,0,0,0-.52.08,2.76,2.76,0,0,0-.47.2L22,13.76l4-3.35.18.51h-5.9V8.66h8v2.26l-3.14,3,0-.67a3.81,3.81,0,0,1,1.85.76,4,4,0,0,1,1.15,1.47,4.45,4.45,0,0,1,.39,1.85,3.91,3.91,0,0,1-.61,2.16A4.44,4.44,0,0,1,26.27,21,4.37,4.37,0,0,1,24.07,21.6Z"
        fill="#212121" stroke="#212121" stroke-width="0.4" />
    <rect width="30" height="30" fill="none" />
</svg>