<svg xmlns="http://www.w3.org/2000/svg" viewBox="0 0 30 30"><path d="M26.19,11.1H11.72a.87.87,0,0,0-.88.88V22.46h9.73V14.35h4.06v8.11h2.43V12A.87.87,0,0,0,26.19,11.1Zm-8.86,7.3h-4v-4h4Z" fill="#212121"/><path d="M7.75,15.56h2.69a0,0,0,0,1,0,0v6.89a0,0,0,0,1,0,0H7.2a0,0,0,0,1,0,0V16.12a.56.56,0,0,1,.56-.56Z" fill="#212121"/><path d="M3.07,11.1h.14a.14.14,0,0,1,.14.14V22.46a0,0,0,0,1,0,0H2.94a0,0,0,0,1,0,0V11.24A.14.14,0,0,1,3.07,11.1Z" fill="#212121"/><path d="M.52,11.09,14.9,7.74a.34.34,0,0,1,.2,0l14.38,3.35a.42.42,0,0,0,.52-.41v-.13a.42.42,0,0,0-.33-.41L15.16,6.75a.86.86,0,0,0-.32,0L.33,10.14a.42.42,0,0,0-.33.41v.13A.42.42,0,0,0,.52,11.09Z" fill="#212121"/><rect x="0.81" y="22.46" width="28.38" height="0.81" rx="0.27" fill="#212121"/><rect width="30" height="30" fill="none"/></svg>