<svg xmlns="http://www.w3.org/2000/svg" viewBox="0 0 30 30"><path d="M27.11,10.62A1.17,1.17,0,0,0,28,9.45V7.22a1.43,1.43,0,0,0-1.41-1.46H3.41A1.43,1.43,0,0,0,2,7.22V9.45a1.17,1.17,0,0,0,.89,1.17,4.52,4.52,0,0,1,0,8.76A1.17,1.17,0,0,0,2,20.55v2.23a1.43,1.43,0,0,0,1.41,1.46H26.59A1.43,1.43,0,0,0,28,22.78V20.55a1.17,1.17,0,0,0-.89-1.17,4.52,4.52,0,0,1,0-8.76Z" transform="translate(0 0)" fill="none" stroke="#212121" stroke-miterlimit="10" stroke-width="3"/><line x1="17.93" y1="6.46" x2="17.93" y2="8.96" fill="none" stroke="#212121" stroke-linecap="round" stroke-miterlimit="10" stroke-width="2"/><line x1="17.93" y1="12.68" x2="17.93" y2="19.18" fill="none" stroke="#212121" stroke-linecap="round" stroke-miterlimit="10" stroke-width="2" stroke-dasharray="4.65 3.72"/><line x1="17.93" y1="21.04" x2="17.93" y2="23.54" fill="none" stroke="#212121" stroke-linecap="round" stroke-miterlimit="10" stroke-width="2"/><rect width="30" height="30" transform="translate(30 30) rotate(-180)" fill="none"/></svg>