<svg xmlns="http://www.w3.org/2000/svg" viewBox="0 0 30 30"><path d="M10,30c.18-1.09.36-2.17.53-3.26.43-2.74.87-5.47,1.29-8.21,0-.18.13-.2.28-.2,1.07,0,2.15,0,3.22,0a13.18,13.18,0,0,0,6.36-1.75,10.1,10.1,0,0,0,3.63-3.74,14.23,14.23,0,0,0,1.46-3.9l.09,0c.2.39.44.77.6,1.17a6.33,6.33,0,0,1,.34,3.11,11.32,11.32,0,0,1-1.29,4.32A7.58,7.58,0,0,1,22,21.1a13.2,13.2,0,0,1-4,.57h-.62a1.14,1.14,0,0,0-1.18,1c-.27,1.58-.51,3.16-.77,4.74-.07.43-.16.86-.2,1.3a1.41,1.41,0,0,1-1,1.29Z" transform="translate(0 0)" fill="#212121"/><path d="M8.78,26.65l-.19,0H3.06a.79.79,0,0,1-.85-1c.36-2.3.73-4.6,1.09-6.9l1.32-8.3L5.94,2.18l.15-.93A1.36,1.36,0,0,1,7.52,0h6.42c1.46,0,2.93,0,4.39.06a9.5,9.5,0,0,1,4.24,1.09,5.06,5.06,0,0,1,2.78,4.33,11.45,11.45,0,0,1-2.08,7.32A8.42,8.42,0,0,1,18.83,16a14.64,14.64,0,0,1-4.7.66H11.64a1.37,1.37,0,0,0-1.46,1.27L8.83,26.42A1.89,1.89,0,0,1,8.78,26.65Z" transform="translate(0 0)" fill="#212121"/><rect width="30" height="30" fill="none"/></svg>