<svg xmlns="http://www.w3.org/2000/svg" viewBox="0 0 30 30"><path d="M25.77,23.54a2.23,2.23,0,1,1-2.23,2.23,2.23,2.23,0,0,1,2.23-2.23m0-2A4.23,4.23,0,1,0,30,25.77a4.23,4.23,0,0,0-4.23-4.23Z" transform="translate(0 0)" fill="#212121"/><path d="M25.77,12.77A2.23,2.23,0,1,1,23.54,15a2.23,2.23,0,0,1,2.23-2.23m0-2A4.23,4.23,0,1,0,30,15a4.23,4.23,0,0,0-4.23-4.23Z" transform="translate(0 0)" fill="#212121"/><path d="M25.77,2a2.23,2.23,0,1,1-2.23,2.23A2.23,2.23,0,0,1,25.77,2m0-2A4.23,4.23,0,1,0,30,4.23,4.23,4.23,0,0,0,25.77,0Z" transform="translate(0 0)" fill="#212121"/><line x1="7.74" y1="15" x2="22.32" y2="15" fill="none" stroke="#212121" stroke-miterlimit="10" stroke-width="2.5"/><path d="M22.07,25.77H16.54A1.54,1.54,0,0,1,15,24.22V6.3a2.07,2.07,0,0,1,2.07-2.07h5.15" transform="translate(0 0)" fill="none" stroke="#212121" stroke-linejoin="round" stroke-width="2.5"/><path d="M4.23,12.77A2.23,2.23,0,1,1,2,15a2.23,2.23,0,0,1,2.23-2.23m0-2A4.23,4.23,0,1,0,8.46,15a4.23,4.23,0,0,0-4.23-4.23Z" transform="translate(0 0)" fill="#212121"/><rect width="30" height="30" fill="none"/></svg>