<svg xmlns="http://www.w3.org/2000/svg" viewBox="0 0 30 30"><path d="M17.54,18a4.54,4.54,0,0,1-2.54.85A4.54,4.54,0,0,1,12.46,18L2.32,11.21,1,10.35V23.2l0,0a2.59,2.59,0,0,0,2.8,2.19H26.17A2.59,2.59,0,0,0,29,23.24l0,0V10.35l-1.32.86Z" fill="#212121"/><path d="M28.86,6.34a2.58,2.58,0,0,0-2.58-1.77H3.72A2.58,2.58,0,0,0,1.14,6.34c-.06.15-.09.31-.14.46v.71a3.76,3.76,0,0,0,.32.83,3.54,3.54,0,0,0,.81.87q5.7,3.84,11.43,7.63a2.44,2.44,0,0,0,2.88,0Q22.17,13,27.87,9.21a3.54,3.54,0,0,0,.81-.87A3.76,3.76,0,0,0,29,7.51V6.8C29,6.65,28.92,6.49,28.86,6.34Z" fill="#212121"/><rect width="30" height="30" fill="none"/></svg>