<!-- Copyright (c) 2022 - 2023 Jan Stehno -->
<svg xmlns="http://www.w3.org/2000/svg" viewBox="0 0 30 30"><title>post</title><g id="other_icons"><g id="post"><path d="M15,6.12H3.8a2.3,2.3,0,0,0-2.3,2.3V21.58a2.3,2.3,0,0,0,2.3,2.3H15" fill="none" stroke="#212121" stroke-miterlimit="10" stroke-width="3"/><path d="M15,16c-.76,0-.76-.09-3.86-2.38S1.5,6.12,1.5,6.12" fill="none" stroke="#212121" stroke-miterlimit="10" stroke-width="3"/><line x1="1.5" y1="23.88" x2="10.4" y2="13.06" fill="none" stroke="#212121" stroke-miterlimit="10" stroke-width="3"/><path d="M15,6.12H26.2a2.3,2.3,0,0,1,2.3,2.3V21.58a2.3,2.3,0,0,1-2.3,2.3H15" fill="none" stroke="#212121" stroke-miterlimit="10" stroke-width="3"/><path d="M15,16c.76,0,.76-.09,3.86-2.38S28.5,6.12,28.5,6.12" fill="none" stroke="#212121" stroke-miterlimit="10" stroke-width="3"/><line x1="28.5" y1="23.88" x2="19.6" y2="13.06" fill="none" stroke="#212121" stroke-miterlimit="10" stroke-width="3"/><polygon points="14.67 15.99 15.35 15.99 27.74 6.72 26.5 6.14 3.04 6.25 2.26 6.72 14.67 15.99" fill="#212121"/></g></g><g id="frame"><rect width="30" height="30" fill="none"/></g></svg>