<!-- Copyright (c) 2022 - 2023 Jan Stehno -->
<svg xmlns="http://www.w3.org/2000/svg" viewBox="0 0 30 30">
    <path
        d="M5.8,12.64a14.18,14.18,0,0,1,4.93-2.18c1.07-.24,2.18-.38,3.27-.52.31,0,.42-.12.48-.42.57-2.68,1.16-5.36,1.74-8,.18-.84.33-.94,1.14-.76,1.74.38,3.48.76,5.21,1.17a.73.73,0,0,0,.89-.29,2.45,2.45,0,0,1,3-.66,2.51,2.51,0,0,1-.9,4.76A2.47,2.47,0,0,1,23,4a7,7,0,0,1-.17-.78L17.34,1.92l-1.75,8a16.12,16.12,0,0,1,8.5,2.63,12.86,12.86,0,0,1,2.07-.84,3.15,3.15,0,0,1,3.52,1.87,3.29,3.29,0,0,1-.88,4,1.15,1.15,0,0,0-.52,1.24,7.48,7.48,0,0,1-2.06,6.1,13.15,13.15,0,0,1-7.21,4A16.82,16.82,0,0,1,6.69,27.18a9.7,9.7,0,0,1-4.57-5.25,7.67,7.67,0,0,1-.29-3.56.59.59,0,0,0-.2-.48,3.41,3.41,0,0,1-.89-5,3.33,3.33,0,0,1,4.93-.32Zm3.7,8.25A2.5,2.5,0,0,0,12,18.35a2.53,2.53,0,1,0-2.5,2.54Zm11-.08A2.47,2.47,0,0,0,23,18.35a2.49,2.49,0,1,0-5,0A2.48,2.48,0,0,0,20.48,20.81Zm-5.15,5.33c.4,0,1.12-.09,1.83-.21a6.36,6.36,0,0,0,3.28-1.46c.34-.31.38-.69.12-.94a.59.59,0,0,0-.91,0,4.11,4.11,0,0,1-2,1,13.16,13.16,0,0,1-2.5.32,6.9,6.9,0,0,1-4.87-1.39.54.54,0,0,0-.8.05.55.55,0,0,0,0,.84,6.36,6.36,0,0,0,1.17.83A10.12,10.12,0,0,0,15.33,26.14Z"
        fill="#212121" />
    <rect width="30" height="30" fill="none" />
</svg>