<!-- Copyright (c) 2023 Jan Stehno -->
<svg xmlns="http://www.w3.org/2000/svg" viewBox="0 0 30 30">
    <path
        d="M28.09,18.75l-2.22-1.28a11.43,11.43,0,0,0,0-4.94l2.22-1.28a.53.53,0,0,0,.2-.73L25.53,5.73a.55.55,0,0,0-.74-.19L22.67,6.76A11.11,11.11,0,0,0,18.3,4.12V1.79a.54.54,0,0,0-.54-.54H12.24a.54.54,0,0,0-.54.54V4.12A11.11,11.11,0,0,0,7.33,6.76L5.21,5.54a.55.55,0,0,0-.74.19L1.71,10.52a.53.53,0,0,0,.2.73l2.22,1.28a11.43,11.43,0,0,0,0,4.94L1.91,18.75a.53.53,0,0,0-.2.73l2.76,4.79a.55.55,0,0,0,.74.19l2.12-1.22a11.11,11.11,0,0,0,4.37,2.64v2.33a.54.54,0,0,0,.54.54h5.52a.54.54,0,0,0,.54-.54V25.88a11.11,11.11,0,0,0,4.37-2.64l2.12,1.22a.55.55,0,0,0,.74-.19l2.76-4.79A.53.53,0,0,0,28.09,18.75Z"
        fill="none" stroke="#212121" stroke-miterlimit="10" stroke-width="2.5" />
    <path
        d="M6.59,23.67l5.81-3.35A6,6,0,0,0,21,13.82l-5.26,3-1.95-3.38,5.26-3A6,6,0,0,0,9.1,14.6L3.29,18"
        fill="none" stroke="#212121" stroke-linecap="round" stroke-linejoin="round"
        stroke-width="2.5" />
    <rect width="30" height="30" fill="none" />
</svg>