<svg xmlns="http://www.w3.org/2000/svg" viewBox="0 0 30 30"><path d="M.07,21.94l7.25-9.73a.35.35,0,0,1,.64.21v4.5a.36.36,0,0,0,.64.23l1.06-1.28a.35.35,0,0,1,.55,0l4.86,6.06a.36.36,0,0,1-.28.58H.36A.36.36,0,0,1,.07,21.94Z" transform="translate(0 0)" fill="#212121"/><path d="M17.66,22.51h12a.36.36,0,0,0,.25-.61l-7.46-7.27a.35.35,0,0,0-.6.25v1.93a.36.36,0,0,1-.67.18L15.61,7.11A.35.35,0,0,0,15,7.06l-4.66,5.77a.35.35,0,0,0,0,.44l7,9.1A.35.35,0,0,0,17.66,22.51Z" transform="translate(0 0)" fill="#212121"/><rect width="30" height="30" transform="translate(30 30) rotate(-180)" fill="none"/></svg>