<svg xmlns="http://www.w3.org/2000/svg" viewBox="0 0 30 30"><path d="M25.37,0a3.06,3.06,0,0,1,1.4.94c.85.87,1.71,1.72,2.57,2.58a1.9,1.9,0,0,1,0,2.89c-.94,1-1.88,1.9-2.84,2.83a1.25,1.25,0,0,1-.54.3l-2.79.66a.64.64,0,0,0-.29.13c-.34.32-.67.66-1,1,.43.43.84.85,1.26,1.24a.52.52,0,0,0,.39.07,1.19,1.19,0,0,1,1.17.48c.26.31.58.58.87.87a.49.49,0,0,1,0,.79c-.8.81-1.61,1.62-2.42,2.42-.27.28-.5.27-.78,0s-.72-.72-1.08-1.07a.71.71,0,0,1-.27-.64,1.12,1.12,0,0,0-.46-1.12,9.66,9.66,0,0,1-.84-.85L18,15.17a.38.38,0,0,0,0,.24,1.41,1.41,0,0,1-.47,1.29c-.73.72-1.45,1.45-2.17,2.18a1.41,1.41,0,0,1-1.3.45.33.33,0,0,0-.25.08c-.54.52-1.07,1.05-1.61,1.6.42.42.83.85,1.26,1.24a.53.53,0,0,0,.38.07A1.24,1.24,0,0,1,15,22.8c.26.32.57.58.86.88a.47.47,0,0,1,0,.78l-2.4,2.41a.5.5,0,0,1-.81,0c-.35-.34-.68-.7-1-1a.81.81,0,0,1-.3-.75,1,1,0,0,0-.4-1c-.32-.26-.59-.59-.91-.91-.51.58-1.15,1-1.41,1.75a8.42,8.42,0,0,1-2.68,3.89c-.24.19-.44.44-.67.65a1.84,1.84,0,0,1-2.55,0C1.93,28.8,1.2,28.06.5,27.3a3.67,3.67,0,0,1-.5-.94v-.64a3,3,0,0,1,.92-1.39c.6-.57,1.18-1.17,1.77-1.75a1.45,1.45,0,0,1,.43-.3,14.33,14.33,0,0,1,1.65-.74,5.11,5.11,0,0,0,2-1.54l-.13-.15a.49.49,0,0,1,0-.75c.41-.42.84-.84,1.26-1.26s.56-.46,1.07-.05l1.62-1.63a.24.24,0,0,0,.05-.18,1.39,1.39,0,0,1,.44-1.33,1.55,1.55,0,0,1-.5-1.4,1.53,1.53,0,0,1,.56-.94,1.55,1.55,0,0,1,2.13.12,1.9,1.9,0,0,1,.37-.26,1.59,1.59,0,0,1,.69-.17.75.75,0,0,0,.73-.29c.44-.47.9-.91,1.36-1.37l-.16-.19a.47.47,0,0,1,0-.68c.5-.51,1-1,1.5-1.49a.47.47,0,0,1,.68,0l.18.16q.53-.51,1-1a.77.77,0,0,0,.12-.26c.21-.93.42-1.86.65-2.79a1.3,1.3,0,0,1,.32-.57c.85-.87,1.72-1.72,2.58-2.59A2.78,2.78,0,0,1,24.72,0ZM21.65,4l4.41,4.4c.9-.9,1.83-1.81,2.74-2.74a.93.93,0,0,0,0-1.3c-.23-.25-.48-.49-.72-.73L25.76,1.26a.94.94,0,0,0-1.34-.1C23.48,2.08,22.56,3,21.65,4ZM6.51,26.87,3.15,23.5c-.66.65-1.36,1.29-2,2a.9.9,0,0,0,.07,1.25q1,1.05,2.07,2.07a.92.92,0,0,0,1.3,0C5.24,28.17,5.87,27.51,6.51,26.87Zm7.81-8.41a2.22,2.22,0,0,0,.32-.21c.76-.75,1.51-1.5,2.26-2.26a.39.39,0,0,0,0-.65l-2.26-2.25a.38.38,0,0,0-.63,0l-2.27,2.27a.38.38,0,0,0,0,.63L14,18.26A3.11,3.11,0,0,0,14.32,18.46ZM21.2,4.94c-.16.7-.32,1.38-.47,2.06a.39.39,0,0,0,.12.27l1.28,1.29c.25.24.47.6.77.69a2.44,2.44,0,0,0,1-.19c.38-.08.75-.18,1.13-.27ZM7.09,26c.24-.53.49-1.08.75-1.63A.27.27,0,0,0,7.77,24L6.26,22.48c-.41-.41-.42-.41-.94-.17L4,22.91ZM17.33,9.79l4.1,4.1.82-.77L18.12,9ZM8.48,18.7l-.8.78,4.08,4.07.82-.76Zm8.88-4.27,1.58-1.59-1.79-1.78-1.58,1.57ZM11.29,16.9,9.71,18.49l1.79,1.79,1.59-1.58ZM14.92,24a3.69,3.69,0,0,0-.72-.65.9.9,0,0,0-.77,0,9.78,9.78,0,0,0-1.09,1.05.85.85,0,0,0,0,.79l.69.72Zm9.66-9.67a3.49,3.49,0,0,0-.72-.66.9.9,0,0,0-.77,0,8.65,8.65,0,0,0-1.07,1,.81.81,0,0,0,0,.81c.22.25.45.49.66.71ZM19.39,8.77l1.83,1.84L22,9.83,20.17,8ZM6.67,21.48,8.48,23.3l.8-.77L7.46,20.71Zm5.05-7.57.84-.84a.52.52,0,0,0-.82,0A.54.54,0,0,0,11.72,13.91Z" transform="translate(0 0)" fill="#212121"/><path d="M21.65,4c.91-.92,1.83-1.87,2.77-2.79a.94.94,0,0,1,1.34.1l2.32,2.32c.24.24.49.48.72.73a.93.93,0,0,1,0,1.3c-.91.93-1.84,1.84-2.74,2.74Z" transform="translate(0 0)" fill="#212121"/><path d="M6.51,26.87c-.64.64-1.27,1.3-1.93,1.94a.92.92,0,0,1-1.3,0q-1-1-2.07-2.07a.9.9,0,0,1-.07-1.25c.65-.68,1.35-1.32,2-2Z" transform="translate(0 0)" fill="#212121"/><path d="M14.32,18.46a3.11,3.11,0,0,1-.3-.2L11.74,16a.38.38,0,0,1,0-.63L14,13.08a.38.38,0,0,1,.63,0l2.26,2.25a.39.39,0,0,1,0,.65c-.75.76-1.5,1.51-2.26,2.26A2.22,2.22,0,0,1,14.32,18.46Zm0-1.24a1.55,1.55,0,1,0-1.53-1.56A1.56,1.56,0,0,0,14.31,17.22Z" transform="translate(0 0)" fill="#212121"/><path d="M21.2,4.94l3.85,3.85c-.38.09-.75.19-1.13.27a2.44,2.44,0,0,1-1,.19c-.3-.09-.52-.45-.77-.69L20.85,7.27A.39.39,0,0,1,20.73,7C20.88,6.32,21,5.64,21.2,4.94Z" transform="translate(0 0)" fill="#212121"/><path d="M7.09,26,4,22.91l1.32-.6c.52-.24.53-.24.94.17L7.77,24a.27.27,0,0,1,.07.37C7.58,24.91,7.33,25.46,7.09,26Z" transform="translate(0 0)" fill="#212121"/><path d="M17.36,14.43l-1.79-1.8,1.58-1.57,1.79,1.78Z" transform="translate(0 0)" fill="#212121"/><path d="M11.29,16.9l1.8,1.8L11.5,20.28,9.71,18.49Z" transform="translate(0 0)" fill="#212121"/><path d="M14.92,24,13,25.93l-.69-.72a.85.85,0,0,1,0-.79,9.78,9.78,0,0,1,1.09-1.05.9.9,0,0,1,.77,0A3.69,3.69,0,0,1,14.92,24Z" transform="translate(0 0)" fill="#212121"/><path d="M24.58,14.34l-1.92,1.92c-.21-.22-.44-.46-.66-.71a.81.81,0,0,1,0-.81,8.65,8.65,0,0,1,1.07-1,.9.9,0,0,1,.77,0A3.49,3.49,0,0,1,24.58,14.34Z" transform="translate(0 0)" fill="#212121"/><path d="M19.39,8.77,20.17,8,22,9.83l-.79.78Z" transform="translate(0 0)" fill="#212121"/><path d="M6.67,21.48l.79-.77,1.82,1.82-.8.77Z" transform="translate(0 0)" fill="#212121"/><path d="M14.31,17.22a1.55,1.55,0,1,1,1.56-1.53A1.56,1.56,0,0,1,14.31,17.22Zm0-2.16a.61.61,0,0,0-.6.63.62.62,0,0,0,.61.59.61.61,0,1,0,0-1.22Z" transform="translate(0 0)" fill="#212121"/><rect width="30" height="30" transform="translate(30 30) rotate(-180)" fill="none"/></svg>