<!-- Copyright (c) 2022 - 2023 Jan Stehno -->
<svg xmlns="http://www.w3.org/2000/svg" viewBox="0 0 30 30">
    <path d="M4.1,7.84c0,2,2.4,2.37,2.4,5.83a6.77,6.77,0,0,1-2.11,5.16" fill="none" stroke="#212121"
        stroke-linecap="round" stroke-linejoin="round" stroke-width="3" />
    <path d="M14.44,10.06A6.12,6.12,0,0,1,16,14.52c0,3-3.45,4.43-3.45,8.28a7.43,7.43,0,0,0,2.36,5.7"
        fill="none" stroke="#212121" stroke-linecap="round" stroke-linejoin="round"
        stroke-width="3" />
    <path d="M25.74,15.78a7.09,7.09,0,0,0-1.25-5.72c-2.07-2.94-2.12-5.22,0-8.56" fill="none"
        stroke="#212121" stroke-linecap="round" stroke-linejoin="round" stroke-width="3" />
    <path d="M23.14,25.61A8.79,8.79,0,0,0,24.64,28" fill="none" stroke="#212121"
        stroke-linecap="round" stroke-linejoin="round" stroke-width="3" />
    <rect width="30" height="30" fill="none" />
</svg>