<svg xmlns="http://www.w3.org/2000/svg" viewBox="0 0 30 30"><path d="M27.7,13.17H25.54a10.42,10.42,0,0,0-1.79-4.32h0l1.52-1.52a1.29,1.29,0,0,0,0-1.83l-.75-.75a1.29,1.29,0,0,0-1.83,0L21.17,6.25h0a10.42,10.42,0,0,0-4.32-1.79h0V2.3A1.3,1.3,0,0,0,15.53,1H14.47a1.3,1.3,0,0,0-1.3,1.3V4.45h0A10.8,10.8,0,0,0,8.84,6.24h0L7.31,4.73a1.29,1.29,0,0,0-1.83,0l-.75.75a1.29,1.29,0,0,0,0,1.83L6.25,8.83h0a10.6,10.6,0,0,0-1.78,4.32H2.3A1.3,1.3,0,0,0,1,14.47v1.06a1.3,1.3,0,0,0,1.3,1.3H4.46a10.42,10.42,0,0,0,1.79,4.32h0L4.73,22.69a1.29,1.29,0,0,0,0,1.83l.75.75a1.29,1.29,0,0,0,1.83,0l1.52-1.52h0a10.46,10.46,0,0,0,4.33,1.79h0V27.7a1.3,1.3,0,0,0,1.3,1.3h1.06a1.3,1.3,0,0,0,1.3-1.3V25.55h0a10.41,10.41,0,0,0,4.33-1.79h0l1.52,1.52a1.29,1.29,0,0,0,1.83,0l.75-.75a1.29,1.29,0,0,0,0-1.83l-1.52-1.52h0a10.48,10.48,0,0,0,1.79-4.32H27.7a1.3,1.3,0,0,0,1.3-1.3V14.47A1.3,1.3,0,0,0,27.7,13.17ZM15,21.41A6.41,6.41,0,1,1,21.41,15,6.41,6.41,0,0,1,15,21.41Z" transform="translate(0 0)" fill="#212121"/><rect width="30" height="30" transform="translate(30 30) rotate(-180)" fill="none"/></svg>