<svg xmlns="http://www.w3.org/2000/svg" viewBox="0 0 30 30"><g id="other_icons"><g id="settings"><path d="M0,7.9H0A1.72,1.72,0,0,1,1.92,6.81c4.15,0,8.29,0,12.44,0a.36.36,0,0,0,.42-.31,5.9,5.9,0,0,1,11.28.05.31.31,0,0,0,.36.26c.75,0,1.49,0,2.23,0a1.35,1.35,0,0,1,1.21.84,1.38,1.38,0,0,1-.14,1.45,1.43,1.43,0,0,1-1.25.62H26.39a.28.28,0,0,0-.32.24,5.9,5.9,0,0,1-11.31,0c-.07-.22-.21-.21-.37-.21H1.76A1.58,1.58,0,0,1,.05,8.69l0,0Zm17.45.37a2.93,2.93,0,0,0,3,3,3,3,0,1,0,0-6A3,3,0,0,0,17.45,8.27Z" transform="translate(0 0)" fill="#212121"/><path d="M0,21.44a1.82,1.82,0,0,1,2.09-1.1c.49,0,1,0,1.49,0,.16,0,.25,0,.3-.21A5.9,5.9,0,0,1,15.23,20c.08.29.21.34.48.34H28.39a1.47,1.47,0,0,1,.34,2.91l-.5,0H15.58a.35.35,0,0,0-.4.3A5.9,5.9,0,0,1,4,23.55a.33.33,0,0,0-.38-.28c-.63,0-1.25,0-1.88,0a1.53,1.53,0,0,1-1.65-1A.15.15,0,0,0,0,22.2Zm6.61.26a3,3,0,0,0,3,3,3,3,0,1,0-.13-6A3,3,0,0,0,6.61,21.7Z" transform="translate(0 0)" fill="#212121"/></g></g><g id="frame"><rect width="30" height="30" transform="translate(30 30) rotate(-180)" fill="none"/></g></svg>