<!-- Copyright (c) 2022 - 2023 Jan Stehno -->
<svg xmlns="http://www.w3.org/2000/svg" viewBox="0 0 30 30"><title>sort_date</title><g id="icons"><g id="sort_date"><line x1="2.49" y1="7.4" x2="27.51" y2="7.4" fill="none" stroke="#212121" stroke-linecap="round" stroke-linejoin="round" stroke-width="3"/><rect x="1.5" y="2.43" width="27" height="25.14" fill="none" stroke="#212121" stroke-linecap="round" stroke-linejoin="round" stroke-width="3"/><path d="M6.67,23.06V21.27l4.58-4.07a3.1,3.1,0,0,0,.72-.85,1.55,1.55,0,0,0,.22-.75,1.83,1.83,0,0,0-.21-.89,1.55,1.55,0,0,0-.57-.62,1.67,1.67,0,0,0-.88-.22,1.78,1.78,0,0,0-.92.24,1.67,1.67,0,0,0-.61.63,1.55,1.55,0,0,0-.21.84H6.67a3.68,3.68,0,0,1,.49-1.94,3.36,3.36,0,0,1,1.37-1.27,4.58,4.58,0,0,1,2.05-.44,3.88,3.88,0,0,1,1.91.46,3.39,3.39,0,0,1,1.33,1.3,3.73,3.73,0,0,1,.49,1.94A3.43,3.43,0,0,1,14.08,17a3,3,0,0,1-.67,1c-.3.3-.67.64-1.1,1l-3,2.59-.17-.45h5.13v1.94Z" fill="#212121" stroke="#212121" stroke-linecap="round" stroke-linejoin="round" stroke-width="0.3"/><path d="M20.27,23.07v-1.7H15.52V19.45L19,12.15h2.36l-3.44,7.3h2.38V16.72h2.09v2.73h1v1.92h-1v1.7Z" fill="#212121" stroke="#212121" stroke-linecap="round" stroke-linejoin="round" stroke-width="0.3"/></g></g><g id="frame"><rect width="30" height="30" fill="none"/></g></svg>