<!-- Copyright (c) 2022 - 2023 Jan Stehno -->
<svg xmlns="http://www.w3.org/2000/svg" viewBox="0 0 500 500"><title>stag</title><g id="both"><g id="stag"><path d="M393.68,73.32s24.27,55.27-3.91,120.27" fill="none" stroke="#212121" stroke-linecap="round" stroke-linejoin="round" stroke-width="30"/><path d="M341.6,152.38s1.3,50.93,16.54,66.22" fill="none" stroke="#212121" stroke-linecap="round" stroke-linejoin="round" stroke-width="30"/><path d="M106.32,73.32s-24.27,55.27,3.91,120.27" fill="none" stroke="#212121" stroke-linecap="round" stroke-linejoin="round" stroke-width="30"/><path d="M158.4,152.38s-1.3,50.93-16.54,66.22" fill="none" stroke="#212121" stroke-linecap="round" stroke-linejoin="round" stroke-width="30"/><path d="M20,52.2c37.47,114.81,98.93,147,136.67,178S240,304,169.19,313.8s-94-64.23-94-64.23,59.56-.14,88.27,43.73c18.67,28.52,25.43,71,27.88,97.17a51.18,51.18,0,0,0,21.92,37.58l22.32,15.28a25.56,25.56,0,0,0,28.88,0l22.32-15.28a51.18,51.18,0,0,0,21.92-37.58c2.45-26.21,9.21-68.65,27.88-97.17,28.71-43.87,88.27-43.73,88.27-43.73s-23.25,74.08-94,64.23-25.22-52.69,12.52-83.64S442.53,167,480,52.2" fill="none" stroke="#212121" stroke-linecap="round" stroke-linejoin="round" stroke-width="30"/></g></g><g id="frame"><rect width="500" height="500" fill="none"/></g></svg>