<svg xmlns="http://www.w3.org/2000/svg" viewBox="0 0 30 30"><path d="M2.42,5c.14-.23.27-.46.42-.69a6,6,0,0,1,5.9-2.74,6,6,0,0,1,5.2,5.39.68.68,0,0,1-.58.82.65.65,0,0,1-.74-.63,5.41,5.41,0,0,0-.81-2.23,4.69,4.69,0,1,0-7.35,5.79,2.51,2.51,0,0,1,.26.31.65.65,0,0,1-.08.93.66.66,0,0,1-.92-.06A6,6,0,0,1,2,8.83,5.84,5.84,0,0,1,2,6.2a.33.33,0,0,0,0-.14Z" fill="#212121"/><path d="M11.16,20.32c-.07-.14-.11-.24-.15-.33Q8.36,14.41,5.69,8.82a2.88,2.88,0,0,1-.23-2,2.58,2.58,0,0,1,4.86-.27l1.23,2.58.15.29a2.63,2.63,0,0,1,4.24.11,2.61,2.61,0,0,1,4.24.08l.14-.14a2.56,2.56,0,0,1,4.31.61c1,2.41,2.08,4.83,3,7.28a7,7,0,0,1-.44,5.92,7.41,7.41,0,0,1-3.47,3.26c-.93.44-1.86.89-2.8,1.31a7.22,7.22,0,0,1-5.46.18Q9.59,26,3.69,23.87a2.06,2.06,0,0,1-1-3.24A3.06,3.06,0,0,1,6,19.34C7.67,19.68,9.39,20,11.16,20.32Zm-.85,4.47c1.83.65,3.67,1.29,5.5,1.95a6,6,0,0,0,4.66-.13c1-.46,2-.91,3-1.43a6,6,0,0,0,2.77-7.77c-.75-1.83-1.53-3.66-2.3-5.49-.17-.41-.34-.83-.52-1.25a1.23,1.23,0,0,0-2.28.91,2.13,2.13,0,0,1,.11.33.63.63,0,0,1-.23.64.56.56,0,0,1-.67.08,1.33,1.33,0,0,1-.42-.46c-.3-.58-.55-1.19-.87-1.76A1.18,1.18,0,0,0,17.53,10a1.22,1.22,0,0,0-.65,1.5,3.42,3.42,0,0,0,.17.4c.23.48.47,1,.69,1.46a.67.67,0,1,1-1.21.57,2,2,0,0,1-.1-.21c-.5-1-1-2.09-1.5-3.13a1.23,1.23,0,1,0-2.21,1.05c.5,1.07,1,2.14,1.52,3.21a1.74,1.74,0,0,1,.14.38.63.63,0,0,1-.38.73.65.65,0,0,1-.77-.19,2.08,2.08,0,0,1-.22-.38L9.16,7.26C9.1,7.14,9.05,7,9,6.9A1.22,1.22,0,0,0,6.83,7a1.35,1.35,0,0,0,.08,1.25l6,12.54a.7.7,0,0,1-.81,1.08l-2.69-.51c-1.33-.25-2.65-.51-4-.73a1.6,1.6,0,0,0-1.74,1,.66.66,0,0,0,.31.9,2.13,2.13,0,0,0,.35.14Z" fill="#212121"/><rect width="30" height="30" fill="none"/></svg>