<!-- Copyright (c) 2022 - 2023 Jan Stehno -->
<svg xmlns="http://www.w3.org/2000/svg" viewBox="0 0 30 30">
    <g opacity="0.3">
        <path
            d="M17,19.19a7.59,7.59,0,0,0,1.56-.29c1.2-.3,1.39-1.49,1.39-2.69a2,2,0,0,0-1.24-2.1A5.21,5.21,0,0,0,17,13.72c0,1,0,1.45,0,1.45a1.83,1.83,0,0,1,1.52,1.23c.23.69-.82-.25-1.51,0C17,16.36,16.93,17.66,17,19.19Z"
            fill="none" stroke="#212121" stroke-miterlimit="10" />
        <path
            d="M13.17,25.27c1.26,0,1.37,0,1.37-.61V20.59c0-.59.67-.59,1.52-.59S17,20,17,18.93V13.39c0-.89,1.47-.44,1.47-.92s.36-.78,3.13-.78,3.49-.76,3.49-1.57V8.27c0-1.83,0-2.84-1-3.33s-2.68-.13-5,1a12.26,12.26,0,0,0-4.46,4.43c-.25.44-.92.11-1.07-.37s0-1.63-.11-1.78a.92.92,0,0,0-1,.08,6.09,6.09,0,0,0,0,2.69c.19.7.77.6.39,1a2.24,2.24,0,0,0-1.08,2v7.76c0,1.3-.61.5-.61,1.65s.67.73.67,1.36S11.9,25.27,13.17,25.27Zm5.26-13.78c-.34-.08-2-2.13-1.85-2.89.15-1,4.4-4.67,7.23-3.21,1.25.65,1.06,3.93.5,4.76-.75,1.11-1.82,1-3,1S18.78,11.58,18.43,11.49Z"
            fill="#212121" stroke="#212121" stroke-miterlimit="10" />
    </g>
    <g opacity="0.6">
        <path
            d="M14.32,17.18a7.58,7.58,0,0,0,1.31.9c1.06.64,2-.07,2.88-.93a2,2,0,0,0,.61-2.35,5.23,5.23,0,0,0-.93-1.49c-.73.67-1,1-1,1a1.8,1.8,0,0,1,.2,1.93c-.32.66-.4-.75-1-1.09C16.31,15.17,15.39,16.07,14.32,17.18Z"
            fill="none" stroke="#212121" stroke-miterlimit="10" />
        <path
            d="M7.34,18.8c.9.89,1,1,1.4.53l2.88-2.88c.42-.41.9.07,1.49.66s.66.63,1.41-.11l3.91-3.91c.63-.64,1.35.72,1.69.38s.8-.29,2.76,1.66,3,1.94,3.58,1.36l1.31-1.31c1.29-1.29,2-2,1.65-3s-1.8-2-4.26-2.89a12.37,12.37,0,0,0-6.28,0c-.49.14-.73-.56-.5-1s1.15-1.15,1.18-1.34-.46-.72-.79-.67a6.14,6.14,0,0,0-1.88,1.92c-.35.64.12,1-.42,1a2.26,2.26,0,0,0-2.18.65L8.8,15.23c-.91.92-.78-.07-1.59.74s0,1-.49,1.43S6.44,17.9,7.34,18.8Zm13.47-6c-.19-.3.11-2.9.73-3.36.83-.62,6.42-.19,7.38,2.84.42,1.35-2,3.54-3,3.73-1.31.25-2-.59-2.87-1.44S21,13.08,20.81,12.78Z"
            fill="#212121" stroke="#212121" stroke-miterlimit="10" />
    </g>
    <path
        d="M13.88,13.89a6.94,6.94,0,0,0,.28,1.57c.31,1.2,1.49,1.38,2.7,1.38A2,2,0,0,0,19,15.6a5.21,5.21,0,0,0,.39-1.71c-1,0-1.45,0-1.45,0a1.79,1.79,0,0,1-1.22,1.51c-.7.23.24-.82,0-1.51C16.71,13.88,15.41,13.86,13.88,13.89Z"
        fill="none" stroke="#212121" stroke-miterlimit="10" />
    <path
        d="M7.8,10.1c0,1.27,0,1.37.61,1.37h4.07c.59,0,.59.68.59,1.52s0,.91,1.07.91h5.54c.89,0,.44,1.48.92,1.48s.78.35.78,3.12S22.13,22,23,22H24.8c1.82,0,2.84,0,3.33-1s.13-2.68-1-5.05a12.31,12.31,0,0,0-4.42-4.47c-.44-.25-.12-.91.36-1.07s1.63,0,1.79-.11a.92.92,0,0,0-.08-1,6.14,6.14,0,0,0-2.7,0c-.69.2-.6.78-1,.39a2.26,2.26,0,0,0-2-1.08H11.35c-1.29,0-.5-.6-1.65-.6s-.72.66-1.35.66S7.8,8.83,7.8,10.1Zm13.77,5.27c.09-.35,2.14-2,2.9-1.86,1,.15,4.67,4.4,3.2,7.23-.65,1.25-3.93,1.07-4.75.51-1.11-.75-1-1.83-1-3.05S21.49,15.71,21.57,15.37Z"
        fill="#212121" stroke="#212121" stroke-miterlimit="10" />
    <path d="M.93,9.88H2.44" fill="none" stroke="#212121" stroke-miterlimit="10" />
    <path d="M1,10.33a.45.45,0,1,1,.45-.45A.45.45,0,0,1,1,10.33Z" fill="#212121" />
    <rect x="2.35" y="9.39" width="0.15" height="0.97" fill="#212121" />
    <g opacity="0.6">
        <path d="M3.63,9.88h1.5" fill="none" stroke="#212121" stroke-miterlimit="10" />
        <path d="M3.65,10.33a.45.45,0,1,1,.45-.45A.46.46,0,0,1,3.65,10.33Z" fill="#212121" />
        <rect x="5.05" y="9.39" width="0.15" height="0.97" fill="#212121" />
    </g>
    <g opacity="0.3">
        <path d="M6.21,9.88h1.5" fill="none" stroke="#212121" stroke-miterlimit="10" />
        <path d="M6.22,10.33a.45.45,0,1,1,0-.9.45.45,0,1,1,0,.9Z" fill="#212121" />
        <rect x="7.63" y="9.39" width="0.15" height="0.97" fill="#212121" />
    </g>
    <rect width="30" height="30" fill="none" />
</svg>