<!-- Copyright (c) 2022 - 2023 Jan Stehno -->
<svg xmlns="http://www.w3.org/2000/svg" viewBox="0 0 30 30">
    <g opacity="0.3">
        <path
            d="M8.09,18.46a9.07,9.07,0,0,0,.33,1.82c.36,1.41,1.74,1.62,3.15,1.62A2.31,2.31,0,0,0,14,20.46a6.1,6.1,0,0,0,.46-2c-1.16,0-1.7,0-1.7,0a2.11,2.11,0,0,1-1.42,1.77c-.81.27.28-1,0-1.76C11.39,18.45,9.88,18.43,8.09,18.46Z"
            fill="none" stroke="#212121" stroke-miterlimit="10" />
        <path
            d="M1,14c0,1.48,0,1.6.72,1.6H6.46c.69,0,.69.79.69,1.77s0,1.06,1.25,1.06h6.45c1,0,.52,1.72,1.08,1.72s.9.41.9,3.64.88,4.07,1.84,4.07h2.15c2.13,0,3.31-.06,3.88-1.16s.16-3.12-1.13-5.88-4.64-4.93-5.16-5.21-.13-1.07.43-1.25,1.9,0,2.08-.13a1.07,1.07,0,0,0-.1-1.2,7.23,7.23,0,0,0-3.14,0c-.81.23-.7.9-1.14.46a2.62,2.62,0,0,0-2.34-1.26h-9c-1.51,0-.59-.71-1.92-.71s-.85.77-1.58.77S1,12.56,1,14Zm16.06,6.14c.1-.4,2.49-2.3,3.38-2.16,1.19.17,5.44,5.13,3.73,8.42-.75,1.46-4.58,1.25-5.54.59-1.29-.87-1.15-2.12-1.19-3.55S17,20.58,17.06,20.18Z"
            fill="#212121" stroke="#212121" stroke-miterlimit="10" />
    </g>
    <g opacity="0.6">
        <path
            d="M12,13.65a8.41,8.41,0,0,0-.46,1.79c-.27,1.42.89,2.2,2.17,2.79A2.32,2.32,0,0,0,16.49,18a6.08,6.08,0,0,0,1.26-1.62c-1-.52-1.53-.73-1.53-.73a2.1,2.1,0,0,1-2,1c-.85-.09.66-.74.78-1.57C15,15,13.6,14.37,12,13.65Z"
            fill="none" stroke="#212121" stroke-miterlimit="10" />
        <path
            d="M7.4,6.65C6.78,8,6.73,8.1,7.37,8.4l4.31,2c.62.29.29,1-.13,1.9s-.42,1,.69,1.49l5.85,2.72c.95.44-.25,1.77.25,2s.65.75-.71,3.68-.91,4.07-.05,4.47l2,.9c1.93.9,3,1.35,4,.59S25,25.39,25,22.34s-2.13-6.42-2.48-6.89.32-1,.91-1,1.72.8,1.94.77a1.09,1.09,0,0,0,.42-1.14,7.35,7.35,0,0,0-2.86-1.29c-.84-.13-1,.53-1.23-.06a2.63,2.63,0,0,0-1.6-2.13l-8.2-3.81c-1.37-.64-.24-.89-1.45-1.45s-1.09.35-1.76,0S8,5.32,7.4,6.65ZM19.38,19c.25-.32,3.22-1,4-.54,1,.66,2.78,6.94-.16,9.21-1.3,1-4.68-.8-5.28-1.8-.8-1.33-.15-2.41.42-3.72S19.12,19.31,19.38,19Z"
            fill="#212121" stroke="#212121" stroke-miterlimit="10" />
    </g>
    <path
        d="M16.18,10.59a8.83,8.83,0,0,0-1,1.53c-.74,1.24.09,2.37,1.08,3.36a2.31,2.31,0,0,0,2.75.71,6,6,0,0,0,1.73-1.09c-.78-.84-1.18-1.21-1.18-1.21a2.11,2.11,0,0,1-2.26.24c-.76-.38.88-.47,1.28-1.21C18.53,12.92,17.47,11.84,16.18,10.59Z"
        fill="none" stroke="#212121" stroke-miterlimit="10" />
    <path
        d="M14.3,2.46c-1,1-1.13,1.13-.63,1.63L17,7.45c.49.48-.07,1-.77,1.74s-.73.77.13,1.63L21,15.39c.73.73-.85,1.57-.46,2s.35.93-1.93,3.21-2.26,3.5-1.58,4.18l1.52,1.52c1.51,1.51,2.39,2.3,3.56,1.93s2.32-2.1,3.37-5,.19-6.76,0-7.33.66-.85,1.18-.58S28,16.66,28.21,16.7s.85-.53.79-.91a7.15,7.15,0,0,0-2.25-2.2c-.74-.41-1.13.14-1.13-.49a2.61,2.61,0,0,0-.77-2.54l-6.39-6.4c-1.07-1.07.08-.91-.87-1.86s-1.14,0-1.66-.57S15.34,1.41,14.3,2.46Zm7,15.7c.35-.22,3.39.13,3.92.85.72,1,.22,7.48-3.32,8.6-1.57.5-4.12-2.36-4.34-3.5-.29-1.53.69-2.32,1.67-3.36S21,18.37,21.31,18.16Z"
        fill="#212121" stroke="#212121" stroke-miterlimit="10" />
    <rect width="30" height="30" fill="none" />
</svg>