<svg xmlns="http://www.w3.org/2000/svg" viewBox="0 0 30 30"><path d="M11.74,25.55c-.77-.14-1.86-.33-3-.55a1.41,1.41,0,0,0-1.91,1.27c-.09.54-.23,1.08-.34,1.63C6,30.52,6,30.53,4,28.82c-.67-.59-1.26-1.27-2-1.79-1.23-.9-1.34-1.68,0-2.57.78-.52,1.48-1.16,2.25-1.72C5.5,21.86,6.64,21.25,7,19.35s2.51-3.13,4.17-4.08a23.13,23.13,0,0,0,3.47-2.64c4.08-3.44,8-7,12.05-10.53.54-.47.72-.76.2-1.32S26.79,0,27.21,0c.75,0,1,.79,1.48,1.24s0,.93-.33,1.26c-1.54,1.36-3.12,2.69-4.64,4.07-.31.28-1.27.56,0,1.17.72.35-.1.95-.48,1.26a2,2,0,0,0-.62,2.69c1.74,4.66-1,10.26-6,12.65A11.22,11.22,0,0,1,11.74,25.55ZM7.47,23.7l0,.34a18.52,18.52,0,0,1,3,0c5.59.93,11.32-3.79,11.32-9.44a5.2,5.2,0,0,0-2.21-4.69c.75,1.55-.22,2.33-1.19,3.13-1.62,1.36-3.2,2.76-4.83,4.11-.77.64-1.84,1-1.22,2.43a.74.74,0,0,1-.73.89c-.3-.4.3-1.29-.68-1.23s-2,1.59-1.69,2.45,0,1.05-.67,1.3A6.19,6.19,0,0,0,7.47,23.7Z" transform="translate(0 0)" fill="#212121"/><rect width="30" height="30" transform="translate(30 30) rotate(-180)" fill="none"/></svg>