<svg xmlns="http://www.w3.org/2000/svg" viewBox="0 0 30 30"><path d="M25.07,24.21a1.1,1.1,0,0,0-.17-.59,7.43,7.43,0,0,1-1.11-4.95c0-.47-.2-1,.61-1.17.16,0,.2-.24.23-.41a1.26,1.26,0,0,0-.57-1.28A7.79,7.79,0,0,0,19.35,14c-.85,0-1.69-.1-2.53-.17a20.62,20.62,0,0,0-2.11-.24c.17.36.34.64.46.94a3.65,3.65,0,0,1,.23,2.39c-.08.26-.27.5-.58.42s-.12-.35-.1-.53a3.41,3.41,0,0,0-.61-2.6A13,13,0,0,1,12.2,9.83c-.22-.6-.41-1.1.44-1.39.24-.08.4-.34.58-.53.34-.37.14-.5-.27-.56a7.33,7.33,0,0,0-1.81.08l.15,0a4.72,4.72,0,0,1,2.52-1c2.18-.61,4.47-.91,6.44-2.08A4,4,0,0,0,22.44.93c0-.39.09-.92-.59-.93s-.54.49-.57.85C21.17,2.41,20,3.15,18.69,3.8a4.4,4.4,0,0,0,.41-2.18c0-.45.1-1.1-.68-1.06s-.45.62-.45,1a3,3,0,0,1-1.31,2.6c-.14.1-.28.23-.47.14s-.1-.28-.1-.43c0-.58,0-1.16,0-1.73a.53.53,0,0,0-.6-.54c-.41,0-.47.33-.49.64,0,.51,0,1,0,1.54s-.29.52-.68.3a3.69,3.69,0,0,1-1.42-1.64c-.17-.33-.27-.86-.82-.64s-.28.72-.12,1.08a6.59,6.59,0,0,0,1.53,2c-.28.39-.71.44-1.09.58s-.64.35-.69,0C11.46,4.41,10.37,3.69,10,2.68c-.14-.32-.34-.74-.82-.52s-.15.62,0,1c.31.58.86,1.18,1.19,1.75s0,1.07-.37,1.64-.53.41-.7-.12a2.63,2.63,0,0,1-.22-1.45c0-.29.07-.54-.28-.59s-.46.37-.5.72,0,.76,0,1.08-.21.31-.74.1c-.32-.13-1-.65-1.19-.36s.11.57.47.74a11.42,11.42,0,0,1,1,.54c1,.56.73.59.17,1.05A19,19,0,0,1,5.32,9.71c-.47.22-.77.62-.41,1s.83,1.25,1.8,1a1.32,1.32,0,0,1,.44,0c.89.09,1.12.38.93,1.21s-.52,1.84-.66,2.78a7.22,7.22,0,0,0,.42,4.51,2.14,2.14,0,0,1,.24,1.13c-.11,2.65-.19,5.29-.31,7.93,0,.53.14.66.7.66s.61-.32.64-.71a19,19,0,0,1,1.19-6.13c.64-1.59.2-1.25,1.93-1.29.5,0,.69.13.76.6a53.75,53.75,0,0,1,.86,6.9c0,.56.27.61.77.62s.59-.25.59-.64c0-2.23,0-4.46,0-6.68,0-.68.16-.93.94-.91a9,9,0,0,0,3.95-.44c.3-.13.34.08.43.23a11.92,11.92,0,0,0,2.35,2.77,1.86,1.86,0,0,1,.65,1.28c.09,1.27.28,2.54.35,3.81,0,.6.36.56.81.58s.59-.23.58-.63C25.18,27.64,25.14,25.93,25.07,24.21Z" transform="translate(0 0)" fill="#212121"/><path d="M20,22.45c-.1-.23-.2-.34-.49-.27a9.07,9.07,0,0,1-2.32.18,12.13,12.13,0,0,0,1.35,2,.8.8,0,0,1,.17.83c-.41,1.38-.8,2.77-1.18,4.16,0,.18-.23.41,0,.56A1.15,1.15,0,0,0,19,29.36c.58-1.6,1.15-3.21,1.73-4.81a.85.85,0,0,0,0-.79C20.47,23.33,20.24,22.89,20,22.45Z" transform="translate(0 0)" fill="#212121"/><rect width="30" height="30" transform="translate(30 30) rotate(-180)" fill="none"/></svg>