<!-- Copyright (c) 2022 - 2023 Jan Stehno -->
<svg xmlns="http://www.w3.org/2000/svg" viewBox="0 0 30 30">
    <circle cx="13.49" cy="21.38" r="0.62" fill="#212121" />
    <circle cx="16.51" cy="21.38" r="0.62" fill="#212121" />
    <path d="M23.75,4.68A9.82,9.82,0,0,1,23.51,12" fill="none" stroke="#212121"
        stroke-linecap="round" stroke-linejoin="round" stroke-width="2" />
    <path d="M20.58,9.49s.07,3.1,1,4" fill="none" stroke="#212121" stroke-linecap="round"
        stroke-linejoin="round" stroke-width="2" />
    <path d="M6.25,4.68A9.82,9.82,0,0,0,6.49,12" fill="none" stroke="#212121" stroke-linecap="round"
        stroke-linejoin="round" stroke-width="2" />
    <path d="M9.42,9.49s-.07,3.1-1,4" fill="none" stroke="#212121" stroke-linecap="round"
        stroke-linejoin="round" stroke-width="2" />
    <path
        d="M1,3.39c2.28,7,6,9,8.32,10.83s5.07,4.49.76,5.09S4.36,15.4,4.36,15.4s3.62,0,5.37,2.67A13.91,13.91,0,0,1,11.43,24a3.13,3.13,0,0,0,1.33,2.29l1.36.93a1.57,1.57,0,0,0,1.76,0l1.36-.93A3.13,3.13,0,0,0,18.57,24a13.91,13.91,0,0,1,1.7-5.91C22,15.4,25.64,15.4,25.64,15.4s-1.41,4.51-5.72,3.91-1.54-3.2.76-5.09,6-3.84,8.32-10.83"
        fill="none" stroke="#212121" stroke-linecap="round" stroke-linejoin="round"
        stroke-width="2" />
    <rect width="30" height="30" fill="none" />
</svg>