<svg xmlns="http://www.w3.org/2000/svg" viewBox="0 0 30 30"><polygon points="16.17 13.25 16.23 12.18 16.58 11.32 17.18 10.88 18.1 10.71 19.07 10.85 19.43 11.21 18.96 10.33 18.54 9.97 18.38 9.62 18.14 9.25 18.08 8.76 18.09 7.96 17.75 7.48 16.46 7.39 15.41 7.68 15.03 8.24 15.09 8.76 15.3 9.12 15.3 10.24 13.79 10.41 13.21 10.85 13.05 11.51 13.88 11.37 14.74 11.37 15.4 11.8 15.85 12.55 15.92 13.62 15.84 14.41 15.37 14.9 16.99 14.9 16.39 14.16 16.17 13.25" fill="#212121"/><polygon points="19.74 10.98 20 11.72 20.16 12.41 21.31 12.14 22.15 11.43 22.36 10.64 22.19 9.64 21.51 9.1 20.12 9.05 19.2 9.52 18.79 9.62 19.36 10.26 19.74 10.98" fill="#212121"/><path d="M8.41,15.94l-.8-1.56-1.15-.71-.94-.18L1.34,15.14l-.43.35,1.23.14,1.18,1L4,17.85l.22,1.07,0,1.31-.39.66-.55.62L8.1,19.34l.51-.7c0-.1.11-1.3.11-1.3Z" fill="#212121"/><polygon points="15.6 14.2 15.68 13.3 15.52 12.49 14.92 11.86 14.09 11.65 12.98 11.98 10.91 12.9 9.48 13.13 7.79 13.24 6.39 13.3 7.71 14.03 8.5 15.26 8.95 16.57 9.02 17.87 9.04 18.43 11.51 16.57 13.28 15.61 14.92 14.9 15.6 14.2" fill="#212121"/><polygon points="24.14 10.79 24.22 9.83 23.88 8.87 23.23 8.2 22.3 8.02 21.07 8.12 20.48 8.67 21.52 8.71 22.28 9.23 22.64 10.08 22.64 11.08 22.34 11.7 21.72 12.14 22.5 12.14 23.03 11.34 23.2 10.47 22.85 9.42 22.35 8.71 21.56 8.38 22.52 8.62 23.2 9.32 23.37 10.16 23.37 10.86 23.15 11.47 22.86 11.89 23.36 11.68 23.74 11.58 24.14 10.79" fill="#212121"/><polygon points="27.04 6.98 26.09 6.39 24.64 6.06 23.3 6.15 22.1 6.84 21.55 7.7 22.7 7.67 23.64 7.91 24.36 8.76 24.65 9.62 24.65 10.65 24.26 11.47 26.52 10.37 27.24 9.95 27.55 9.42 27.55 8.15 27.04 6.98" fill="#212121"/><path d="M19.51,11.64l-.39-.21-.52.09-.36.39-.18.48-.16,1.24-.13-1.1.18-.67.35-.48.44-.2H19L18.36,11l-.85.05-.67.5-.31.92,0,1.06.27.57.72.77h1.09l.78-.38.35-.65.18-.63v-.61L19.75,12Zm-.57,1.87c-.22,0-.39-.26-.39-.58s.17-.58.39-.58.38.26.38.58S19.15,13.51,18.94,13.51Z" fill="#212121"/><polygon points="2.79 16.57 2.75 17.53 3.17 18.48 3.9 19.18 3.74 18.06 3.26 17.11 2.79 16.57" fill="#212121"/><polygon points="2.05 15.95 2.52 16.3 2.47 17.73 3 18.79 3.9 19.6 3.9 20.09 3.32 20.2 3.06 20.37 2.41 19.85 1.93 19.31 1.78 18.93 2.15 18.76 2.26 18.27 1.99 17.58 1.91 16.62 2.05 15.95" fill="#212121"/><polygon points="0.54 15.84 0.12 16.53 0 17.48 0.08 17.99 0.75 17.76 1.31 17.76 1.2 16.92 1.22 15.95 0.95 15.84 0.54 15.84" fill="#212121"/><polygon points="0.15 18.56 0.91 18.56 1.36 18.29 1.55 19.18 1.89 19.72 1.65 20.03 1.07 20.19 0.56 19.59 0.15 18.56" fill="#212121"/><polygon points="1.46 20.66 2.08 21.26 2.84 21.34 3.32 21.1 3.37 20.85 2.75 20.56 2.1 19.97 1.85 20.37 1.46 20.66" fill="#212121"/><rect x="25.7" y="15.83" width="2.72" height="8.11" fill="#212121"/><polygon points="24.12 15.97 30 15.97 27.06 12.04 24.12 15.97" fill="#212121"/><rect width="30" height="30" fill="none"/></svg>