<svg xmlns="http://www.w3.org/2000/svg" viewBox="0 0 30 30"><polygon points="28.54 18.35 28.54 20.89 28.84 20.99 29.42 20.99 29.66 20.8 29.66 18.16 29.32 18.35 28.54 18.35" fill="#212121"/><polygon points="28.35 18.18 28.35 9.25 28.54 9.25 28.54 18.18 29.29 18.18 29.54 18.03 29.54 8.77 29.3 8.53 27.65 8.53 26 8.53 25.76 8.77 25.76 18.03 26.04 18.18 28.35 18.18" fill="#212121"/><path d="M29.84,20.87l-.3.21-.91.07H26.78L25.94,21l-.48-.16c-.1.05-.16.1-.16.16,0,.24,1.05.44,2.35.44S30,21.27,30,21C30,21,29.94,20.92,29.84,20.87Z" fill="#212121"/><polygon points="27.71 20.99 28.35 20.89 28.35 18.35 25.97 18.35 25.64 18.16 25.64 20.8 26.14 20.94 27.71 20.99" fill="#212121"/><polygon points="22.75 18.35 22.75 20.89 23.05 20.99 23.63 20.99 23.87 20.8 23.87 18.16 23.54 18.35 22.75 18.35" fill="#212121"/><polygon points="22.56 18.18 22.56 9.25 22.75 9.25 22.75 18.18 23.5 18.18 23.75 18.03 23.75 8.77 23.51 8.53 21.86 8.53 20.21 8.53 19.97 8.77 19.97 18.03 20.25 18.18 22.56 18.18" fill="#212121"/><path d="M24.05,20.87l-.3.21-.91.07H21L20.15,21l-.48-.16c-.1.05-.16.1-.16.16,0,.24,1,.44,2.35.44s2.35-.2,2.35-.44C24.21,21,24.15,20.92,24.05,20.87Z" fill="#212121"/><polygon points="21.93 20.99 22.56 20.89 22.56 18.35 20.18 18.35 19.85 18.16 19.85 20.8 20.35 20.94 21.93 20.99" fill="#212121"/><rect x="8.97" y="11.03" width="2.66" height="7.94" transform="translate(25.3 4.7) rotate(90)" fill="#212121"/><polygon points="14.12 12.12 14.12 17.88 17.98 15 14.12 12.12" fill="#212121"/><polygon points="3.24 18.35 3.24 20.89 3.54 20.99 4.12 20.99 4.36 20.8 4.36 18.16 4.03 18.35 3.24 18.35" fill="#212121"/><polygon points="3.05 18.18 3.05 9.25 3.24 9.25 3.24 18.18 3.99 18.18 4.24 18.03 4.24 8.77 4 8.53 2.35 8.53 0.7 8.53 0.46 8.77 0.46 18.03 0.74 18.18 3.05 18.18" fill="#212121"/><path d="M4.54,20.87l-.3.21-.91.07H1.48L.64,21l-.48-.16C.06,20.92,0,21,0,21c0,.24,1.05.44,2.35.44S4.7,21.27,4.7,21C4.7,21,4.64,20.92,4.54,20.87Z" fill="#212121"/><polygon points="2.42 20.99 3.05 20.89 3.05 18.35 0.67 18.35 0.34 18.16 0.34 20.8 0.84 20.94 2.42 20.99" fill="#212121"/><rect width="30" height="30" fill="none"/></svg>