<!-- Copyright (c) 2023 Jan Stehno -->
<svg xmlns="http://www.w3.org/2000/svg" viewBox="0 0 30 30">
    <polygon
        points="17.6 14.41 17.67 13.25 18.05 12.31 18.7 11.83 19.7 11.65 20.76 11.8 21.15 12.2 20.64 11.24 20.18 10.84 20.01 10.46 19.75 10.06 19.68 9.53 19.69 8.66 19.32 8.13 17.92 8.04 16.77 8.35 16.36 8.96 16.43 9.52 16.65 9.92 16.65 11.14 15.02 11.32 14.39 11.8 14.21 12.52 15.12 12.37 16.05 12.37 16.76 12.84 17.26 13.65 17.33 14.82 17.24 15.68 16.74 16.21 18.5 16.21 17.85 15.4 17.6 14.41"
        fill="#212121" />
    <polygon
        points="21.49 11.94 21.78 12.75 21.94 13.51 23.2 13.21 24.11 12.44 24.35 11.57 24.16 10.48 23.41 9.89 21.9 9.84 20.9 10.35 20.45 10.46 21.08 11.16 21.49 11.94"
        fill="#212121" />
    <path
        d="M9.16,17.35l-.88-1.7L7,14.88l-1-.21-4.55,1.8L1,16.85,2.33,17,3.61,18.1l.74,1.33.24,1.16,0,1.42-.42.73-.6.67,5.27-2.36.55-.77c0-.11.12-1.41.12-1.41Z"
        fill="#212121" />
    <polygon
        points="16.98 15.44 17.07 14.47 16.89 13.59 16.24 12.9 15.33 12.68 14.13 13.03 11.88 14.04 10.32 14.29 8.48 14.41 6.95 14.47 8.39 15.26 9.25 16.6 9.75 18.03 9.82 19.45 9.84 20.06 12.53 18.03 14.46 16.98 16.24 16.21 16.98 15.44"
        fill="#212121" />
    <polygon
        points="26.29 11.73 26.37 10.69 26 9.65 25.3 8.92 24.28 8.72 22.94 8.83 22.3 9.43 23.43 9.47 24.25 10.04 24.65 10.96 24.65 12.05 24.32 12.72 23.65 13.21 24.5 13.21 25.08 12.34 25.25 11.39 24.88 10.25 24.33 9.47 23.47 9.11 24.51 9.37 25.25 10.14 25.45 11.05 25.45 11.82 25.2 12.48 24.88 12.94 25.43 12.71 25.85 12.59 26.29 11.73"
        fill="#212121" />
    <polygon
        points="29.44 7.58 28.41 6.95 26.83 6.59 25.36 6.69 24.06 7.44 23.46 8.37 24.72 8.34 25.74 8.6 26.52 9.52 26.84 10.47 26.84 11.59 26.41 12.48 28.87 11.28 29.65 10.82 30 10.24 30 8.87 29.44 7.58"
        fill="#212121" />
    <path
        d="M21.24,12.66l-.42-.22-.57.09-.4.43-.19.52-.18,1.35-.13-1.2.19-.73.38-.52.48-.22h.25L20,12l-.93.05-.73.55-.33,1v1.16l.31.62.78.83h1.18l.85-.41.39-.71.19-.69v-.66l-.21-.69Zm-.62,2c-.23,0-.42-.28-.42-.63s.19-.63.42-.63.42.28.42.63S20.85,14.7,20.62,14.7Z"
        fill="#212121" />
    <polygon points="3.04 18.03 3 19.07 3.45 20.11 4.24 20.87 4.08 19.65 3.54 18.61 3.04 18.03"
        fill="#212121" />
    <polygon
        points="2.23 17.35 2.74 17.73 2.69 19.29 3.26 20.45 4.24 21.32 4.24 21.87 3.62 21.98 3.33 22.17 2.62 21.6 2.1 21.01 1.94 20.6 2.35 20.42 2.46 19.88 2.16 19.13 2.08 18.08 2.23 17.35"
        fill="#212121" />
    <polygon
        points="0.59 17.24 0.13 17.99 0 19.02 0.08 19.58 0.81 19.33 1.43 19.33 1.31 18.41 1.33 17.35 1.03 17.24 0.59 17.24"
        fill="#212121" />
    <polygon
        points="0.17 20.2 0.99 20.2 1.48 19.91 1.69 20.87 2.05 21.46 1.79 21.79 1.16 21.98 0.61 21.32 0.17 20.2"
        fill="#212121" />
    <polygon
        points="1.59 22.49 2.26 23.14 3.09 23.22 3.62 22.96 3.66 22.69 3 22.37 2.28 21.73 2.02 22.17 1.59 22.49"
        fill="#212121" />
    <rect width="30" height="30" fill="none" />
</svg>