<svg xmlns="http://www.w3.org/2000/svg" viewBox="0 0 30 30"><polygon points="17.26 29.8 17.99 29.8 18.53 29.48 18.73 28.81 18.6 28.06 18.27 27.29 18.23 25.26 18.63 23.84 18.94 23.2 18.93 22.45 18.43 22.22 17.09 22.95 15.99 24.48 15.43 26.06 15.36 28.01 15.99 29.09 17.26 29.8" fill="#212121"/><polygon points="20.34 30 19.62 29.94 19.11 29.57 18.96 28.89 19.15 28.15 19.54 27.41 19.75 25.39 19.47 23.95 19.21 23.29 19.29 22.54 19.8 22.35 21.07 23.18 22.05 24.8 22.47 26.42 22.38 28.37 21.67 29.4 20.34 30" fill="#212121"/><polygon points="9.06 21.59 9.78 21.67 10.35 21.41 10.62 20.77 10.58 20 10.34 19.21 10.53 17.18 11.08 15.82 11.46 15.22 11.53 14.47 11.06 14.19 9.66 14.76 8.38 16.16 7.66 17.66 7.37 19.6 7.87 20.74 9.06 21.59" fill="#212121"/><polygon points="12.09 22.13 11.38 21.99 10.91 21.57 10.85 20.87 11.12 20.16 11.59 19.47 12.02 17.49 11.9 16.02 11.72 15.33 11.88 14.6 12.41 14.47 13.58 15.44 14.37 17.15 14.61 18.81 14.3 20.74 13.48 21.68 12.09 22.13" fill="#212121"/><polygon points="17.1 15.61 17.82 15.69 18.39 15.42 18.66 14.78 18.61 14.02 18.36 13.22 18.53 11.2 19.08 9.83 19.45 9.22 19.52 8.47 19.05 8.2 17.64 8.78 16.38 10.19 15.67 11.7 15.4 13.64 15.9 14.77 17.1 15.61" fill="#212121"/><polygon points="20.14 16.13 19.43 15.99 18.96 15.57 18.89 14.88 19.15 14.17 19.61 13.47 20.03 11.49 19.9 10.02 19.71 9.33 19.87 8.6 20.4 8.47 21.57 9.43 22.38 11.14 22.63 12.79 22.34 14.72 21.52 15.67 20.14 16.13" fill="#212121"/><polygon points="10.99 7.29 11.7 7.41 12.29 7.17 12.59 6.55 12.58 5.78 12.38 4.98 12.67 2.97 13.29 1.63 13.7 1.05 13.8 0.3 13.35 0 11.92 0.5 10.58 1.84 9.78 3.3 9.4 5.22 9.84 6.39 10.99 7.29" fill="#212121"/><polygon points="13.99 7.98 13.29 7.81 12.84 7.36 12.81 6.67 13.12 5.97 13.62 5.3 14.15 3.34 14.1 1.87 13.95 1.17 14.15 0.45 14.68 0.35 15.8 1.37 16.51 3.12 16.67 4.79 16.27 6.7 15.4 7.6 13.99 7.98" fill="#212121"/><rect width="30" height="30" fill="none"/></svg>