<svg xmlns="http://www.w3.org/2000/svg" viewBox="0 0 30 30"><polygon points="14.76 5.52 15.55 5.43 15.96 4.57 15.99 3.85 15.04 4.2 13.78 3.91 12.61 3.22 12.17 4.29 13.12 5.11 14.76 5.52" fill="#212121"/><path d="M15,3.63l.88-.25.63-2L16.3.57,15.1,0l-1,.09,0,.35.94.41.79.1L14.79,1,14,.63,13.84.35l-.76,2.43.79.47Zm-.47-2.21a.51.51,0,1,1-.51.5A.51.51,0,0,1,14.54,1.42Z" fill="#212121"/><polygon points="13.68 8.9 14.95 8.96 15.92 8.68 16.52 6.47 16.46 5.62 16.14 5.3 15.67 5.93 14.69 6.03 13.09 5.71 12.23 5.08 11.66 4.54 11.16 5.11 10.72 7.38 11.95 8.23 13.68 8.9" fill="#212121"/><polygon points="17.79 11.29 16.84 9.87 16.02 9.12 14.85 9.46 13.24 9.27 11.76 8.61 10.21 7.79 8.83 8.08 7.34 9.53 6.62 11.58 3.4 26.06 4.03 27.73 6.87 29.27 10.53 30 12.64 29.78 14.06 29.05 15.01 25.99 18.07 13.66 17.79 11.29" fill="#212121"/><path d="M22.56,18.61a3.79,3.79,0,0,1,.21-1.26A5.73,5.73,0,0,1,23.53,16a6.55,6.55,0,0,0,.87-1.57,4.08,4.08,0,0,0,.24-1.4,1.44,1.44,0,0,0-.25-.93.92.92,0,0,0-.74-.3.9.9,0,0,0-.73.3,1.38,1.38,0,0,0-.25.93v1.36H20.81V13.13a3.36,3.36,0,0,1,.74-2.33A2.72,2.72,0,0,1,23.69,10a2.81,2.81,0,0,1,2.17.81,3.36,3.36,0,0,1,.74,2.33,4.47,4.47,0,0,1-.29,1.58,7.83,7.83,0,0,1-1,1.7,6.91,6.91,0,0,0-.8,1.28,2.44,2.44,0,0,0-.22,1v.68H22.56Zm-.09,2.16h1.9v1.89h-1.9Z" fill="#212121"/><rect width="30" height="30" fill="none"/></svg>