<!-- Copyright (c) 2023 Jan Stehno -->
<svg xmlns="http://www.w3.org/2000/svg" viewBox="0 0 30 30">
    <polygon
        points="5.58 29.61 6.75 30 7.35 29.92 7.69 29.41 7.72 25.07 8.51 26.52 8.89 26.21 8.94 25.43 8.57 24.72 8.53 23 9.04 22.23 10.19 23.63 12.59 24.36 16.22 24.37 18.19 23.74 18.76 22.98 18.99 22.22 18.86 21.8 18.59 21.87 17.84 22.86 16.55 23.21 12.54 23.19 10.42 22.25 9.62 21.59 9.63 19.89 10.05 17.86 10.49 16.13 10.34 15.19 9.29 15.04 9.2 14.31 8.55 14.48 8.09 13.97 7.72 14.2 6.96 17.59 6.2 18.8 6.08 19.66 6.31 19.91 7.13 19.12 6.67 21.3 5.97 22.69 5.43 23.69 5.4 24.43 5.95 24.49 5.87 27.26 5.61 29.03 5.58 29.61"
        fill="#212121" />
    <polygon
        points="11.58 15.09 11.31 15.51 11.51 19.96 12.02 20.15 12.85 17.51 12.66 16.62 11.58 15.09"
        fill="#212121" />
    <polygon
        points="12.26 14.09 12.28 14.48 14.57 15.22 14.99 14.93 15.5 13.67 15.24 13.22 12.26 14.09"
        fill="#212121" />
    <polygon points="6.2 14.19 7.32 13.46 7.26 12.1 5.1 12.91 6.2 14.19" fill="#212121" />
    <polygon
        points="5.91 10.61 6.32 10.87 7.29 10.81 7.39 10.35 6.84 8.89 6.8 6.99 7.18 5.67 7.3 4.96 6.76 4.71 5.96 5.27 5.49 7.34 5.52 9.26 5.91 10.61"
        fill="#212121" />
    <polygon
        points="8.33 12.1 8.39 12.75 9.3 12.85 9.3 13.67 10.69 13.61 10.74 14.1 11.47 14.14 12.64 12.39 14.12 9.7 14.67 8.49 15.29 8.24 16.63 8.12 17.89 7.52 19.06 6.46 19.94 5.71 20.6 5.74 21.09 6.51 21.26 7.6 20.97 8.42 20.96 9.62 21.25 9.96 21.5 9.65 21.44 9.01 21.71 8.38 22.38 9.51 22.5 10.19 22.85 10.51 23.18 9.88 23.05 8.73 21.98 7.16 21.63 5.79 21.73 4.54 22.55 3.68 23.8 3.03 24.7 2.06 24.9 1.44 24.49 0.68 23.67 0 22.96 0 21.34 1.15 18.88 2.92 16.74 4.64 15.89 5.33 15.1 5.55 14.66 5.46 14.3 5.09 13.65 5.15 13.22 5.69 13.06 7.13 11.5 8.78 9.59 10.66 8.33 12.1"
        fill="#212121" />
    <rect width="30" height="30" fill="none" />
</svg>