<!-- Copyright (c) 2023 Jan Stehno -->
<svg xmlns="http://www.w3.org/2000/svg" viewBox="0 0 30 30">
    <polygon
        points="2.15 24.17 1.61 24.61 1.5 25.68 2.15 26.13 3.46 26.31 4.1 26.18 4.62 25.83 5.06 25.87 5.54 26.31 7.52 26.31 11.17 26.31 12.14 25.9 13.44 24.17 16.55 21.88 19.61 19.7 21.46 18.04 21.46 16.1 15.34 8.8 10.96 3.86 10.3 3.69 7.85 5.2 4.9 6.77 2.88 7.72 2.88 8.14 4.71 9.58 9.94 13.71 11.12 14.72 11.12 16.82 9.39 19.89 7.98 22.22 7.39 22.8 5.82 23.52 3.66 23.98 2.15 24.17"
        fill="#212121" />
    <polygon points="20.09 20.68 21.3 22.9 27.98 22.09 28.5 21.53 20.09 20.68" fill="#212121" />
    <polygon points="22.01 14.83 23.07 16.43 28.05 15.37 28.41 14.92 22.01 14.83" fill="#212121" />
    <polygon points="19.19 11.23 20.43 12.88 26.9 12.03 27.39 11.59 19.19 11.23" fill="#212121" />
    <polygon points="16.28 7.48 17.77 9.17 26.05 8.58 26.7 8.16 16.28 7.48" fill="#212121" />
    <polygon points="13.35 3.95 14.94 5.97 23.17 4.88 23.8 4.33 13.35 3.95" fill="#212121" />
    <rect width="30" height="30" fill="none" />
</svg>