<!-- Copyright (c) 2023 Jan Stehno -->
<svg xmlns="http://www.w3.org/2000/svg" viewBox="0 0 30 30">
    <polygon
        points="12.32 15.73 11.54 14.58 10.39 13.57 9.18 13.23 8.74 13.77 9.52 14.01 10.66 14.68 11.41 15.66 11.88 16.91 11.81 18.46 12.35 17.95 12.49 16.94 12.32 15.73"
        fill="#212121" />
    <polygon
        points="11.24 16.27 10.6 15.32 9.62 14.54 8.27 14.21 7.53 14.34 6.34 15.02 5.4 15.89 5.1 16.8 6.28 17.28 7.25 18.29 7.76 19.64 7.83 20.65 8.47 20.65 9.48 20.38 10.43 19.71 11.37 18.49 11.41 17.55 11.24 16.27"
        fill="#212121" />
    <polygon
        points="14.14 17.11 14.11 15.93 13.67 14.75 12.62 13.4 10.93 12.05 10.22 12.12 9.55 12.76 10.36 13.06 11.44 13.9 12.49 15.22 12.93 16.43 12.86 17.92 13.4 17.95 13.97 17.75 14.14 17.11"
        fill="#212121" />
    <polygon
        points="6.78 18.56 5.67 17.31 4.49 17.01 3.51 18.19 2.19 19.07 1.08 19.2 0.37 19.64 0 20.18 0.07 21.26 0.41 21.97 0.34 21.36 0.64 21.02 1.15 21.09 1.72 21.6 2.19 22.24 2.4 22.98 2.29 23.59 2.26 23.29 2.02 22.78 1.59 22.07 1.18 22.04 0.71 22.27 0.98 22.85 1.89 23.86 2.63 24.2 3.38 24.13 3.78 23.72 3.78 23.02 3.34 21.73 2.02 20.08 2.6 20.55 3.41 21.43 4.08 22.81 4.39 22.98 5.3 22.04 6.11 21.53 7.25 21.36 7.32 19.64 6.78 18.56"
        fill="#212121" />
    <polygon
        points="23.18 8.74 22.34 7.29 21.06 6.07 20.01 5.8 19.3 6.01 18.83 6.51 19.67 6.55 20.86 6.88 22.1 8.06 22.61 9.18 22.64 10.49 22.07 11.51 22.95 11.14 23.32 9.99 23.18 8.74"
        fill="#212121" />
    <polygon
        points="14.95 14.01 14.01 12.65 12.69 11.57 11.91 11.47 11.54 11.85 12.38 12.52 13.46 13.6 14.31 14.85 14.61 16.67 15.19 16.03 15.15 15.05 14.95 14.01"
        fill="#212121" />
    <polygon
        points="22.24 9.01 21.63 7.9 20.65 7.09 19.5 6.85 18.66 6.95 18.09 7.59 16.67 8.94 13.23 11.47 13.87 11.91 14.68 12.65 15.29 13.7 15.59 14.98 17.31 13.67 19.34 12.49 21.46 11.54 22.31 10.16 22.24 9.01"
        fill="#212121" />
    <rect x="25.78" y="15.01" width="2.67" height="7.96" fill="#212121" />
    <polygon points="24.23 15.16 30 15.16 27.11 11.29 24.23 15.16" fill="#212121" />
    <rect width="30" height="30" fill="none" />
</svg>