<svg xmlns="http://www.w3.org/2000/svg" viewBox="0 0 30 30"><rect x="26.16" y="13.3" width="2.43" height="7.25" fill="#212121"/><polygon points="24.75 13.43 30 13.43 27.37 9.92 24.75 13.43" fill="#212121"/><path d="M23.81,27.4l-.41-1.19-.08-3-.9-4.32-1.5-2.61-3.38-4.11h-.49l-1.36-1.89H15.4l-.75-.92V8.83L13,7h-.38L10.08,4.8,7.84,3.55,5.44,3,3,2.75,1.34,2.5l-.8-.65L.17,1.51,0,1.7,24.32,28.49l.26-.23ZM14.93,10.22l.16.19-.14.27-.29.06-.09-.52Zm-.64-1.41.09.09-.68.68-.09-.09ZM1.07,2.57l.61.34.67.2,1.7.19,2.06.32,1.82.54L9.82,5.22l2.31,2.26.43,1.33.67.83,1,1,.38.76.61,0,.17.17.24.56v.73l.4.44.7.27,1.87,1.56h.6l1.91,2.54,1.35,3.12.39,2.72.27,2.71.42.95Z" fill="#212121"/><rect width="30" height="30" fill="none"/></svg>