<!-- Copyright (c) 2023 Jan Stehno -->
<svg xmlns="http://www.w3.org/2000/svg" viewBox="0 0 30 30">
    <polygon
        points="12.29 14.87 11.52 13.72 10.37 12.71 9.16 12.38 8.72 12.91 9.49 13.15 10.64 13.82 11.38 14.8 11.85 16.05 11.79 17.59 12.32 17.09 12.46 16.08 12.29 14.87"
        fill="#212121" />
    <polygon
        points="11.21 15.4 10.57 14.46 9.6 13.69 8.25 13.35 7.51 13.49 6.33 14.16 5.39 15.04 5.08 15.94 6.26 16.42 7.24 17.43 7.74 18.77 7.81 19.78 8.45 19.78 9.46 19.51 10.4 18.84 11.35 17.63 11.38 16.68 11.21 15.4"
        fill="#212121" />
    <polygon
        points="14.11 16.25 14.07 15.07 13.64 13.89 12.59 12.54 10.91 11.2 10.2 11.26 9.53 11.9 10.34 12.21 11.41 13.05 12.46 14.36 12.9 15.57 12.83 17.05 13.37 17.09 13.94 16.89 14.11 16.25"
        fill="#212121" />
    <polygon
        points="6.77 17.7 5.66 16.45 4.48 16.15 3.5 17.32 2.19 18.2 1.08 18.34 0.37 18.77 0 19.31 0.07 20.39 0.4 21.1 0.34 20.49 0.64 20.15 1.15 20.22 1.72 20.73 2.19 21.36 2.39 22.11 2.29 22.71 2.26 22.41 2.02 21.9 1.58 21.2 1.18 21.16 0.71 21.4 0.98 21.97 1.89 22.98 2.63 23.32 3.37 23.25 3.77 22.85 3.77 22.14 3.33 20.86 2.02 19.21 2.59 19.68 3.4 20.56 4.07 21.94 4.38 22.11 5.29 21.16 6.09 20.66 7.24 20.49 7.31 18.77 6.77 17.7"
        fill="#212121" />
    <polygon
        points="23.13 7.9 22.29 6.45 21.01 5.24 19.97 4.97 19.26 5.17 18.79 5.67 19.63 5.71 20.81 6.04 22.05 7.22 22.56 8.34 22.59 9.65 22.02 10.66 22.9 10.29 23.27 9.14 23.13 7.9"
        fill="#212121" />
    <polygon
        points="14.92 13.15 13.97 11.8 12.66 10.72 11.89 10.62 11.52 10.99 12.36 11.67 13.43 12.75 14.28 13.99 14.58 15.81 15.15 15.17 15.12 14.19 14.92 13.15"
        fill="#212121" />
    <polygon
        points="22.19 8.17 21.58 7.05 20.61 6.25 19.46 6.01 18.62 6.11 18.05 6.75 16.63 8.1 13.2 10.62 13.84 11.06 14.65 11.8 15.25 12.85 15.56 14.13 17.27 12.81 19.29 11.63 21.41 10.69 22.26 9.31 22.19 8.17"
        fill="#212121" />
    <rect x="25.79" y="17.09" width="2.66" height="7.95" fill="#212121" />
    <polygon points="24.24 17.23 30 17.23 27.12 13.37 24.24 17.23" fill="#212121" />
    <polygon
        points="27.12 12.19 29.12 14.87 30 14.87 27.12 11.01 24.24 14.87 25.12 14.87 27.12 12.19"
        fill="#212121" />
    <polygon points="27.12 9.84 29.12 12.51 30 12.51 27.12 8.66 24.24 12.51 25.12 12.51 27.12 9.84"
        fill="#212121" />
    <rect width="30" height="30" fill="none" />
</svg>