<svg xmlns="http://www.w3.org/2000/svg" viewBox="0 0 30 30"><path d="M21,6.88a5.49,5.49,0,0,0-2.33.53,8.11,8.11,0,1,0-7.8,10.32H21A5.43,5.43,0,0,0,21,6.88Z" fill="#212121"/><polygon points="3.82 24.24 4.4 24.97 4.99 25.17 5.59 24.89 5.88 24.22 5.88 22.96 5.26 21.3 3.96 18.92 3.78 18.89 3.56 22.32 3.65 23.45 3.82 24.24" fill="#212121"/><polygon points="8.44 27.3 9.02 28.02 9.62 28.22 10.21 27.94 10.5 27.27 10.5 26.01 9.88 24.36 8.58 21.97 8.4 21.95 8.18 25.37 8.27 26.5 8.44 27.3" fill="#212121"/><polygon points="13.26 24.19 13.84 24.92 14.44 25.12 15.03 24.83 15.32 24.17 15.32 22.91 14.7 21.25 13.39 18.86 13.22 18.84 13 22.27 13.09 23.39 13.26 24.19" fill="#212121"/><polygon points="19.83 27.57 20.4 28.3 21 28.5 21.6 28.21 21.89 27.55 21.89 26.29 21.27 24.63 19.96 22.24 19.79 22.22 19.56 25.65 19.65 26.78 19.83 27.57" fill="#212121"/><polygon points="25.22 24.23 25.8 24.96 26.39 25.16 26.99 24.87 27.28 24.21 27.28 22.95 26.66 21.29 25.36 18.91 25.18 18.88 24.96 22.31 25.05 23.44 25.22 24.23" fill="#212121"/><rect width="30" height="30" fill="none"/></svg>