<svg xmlns="http://www.w3.org/2000/svg" viewBox="0 0 30 30"><path d="M27.21,25.6l.29-.2L27.38,25,26,25l-3.18.2-1.93-.29-.76-.88,0-4-1.84,1.57,1.15-2.81-.07-1.06-.49-.09-1,1.32.79-2.4,0-3.37-1.86,2.32.64-2.44-.25-4.38-.58-.42-.35.18,0,2.2L15.4,12.4l.15-2.4L14.14,6l-1.89-2.5-2.07-.86-2.51.4L5.91,4.39,4,6.88,3.64,9.52,4,12l.84,2.58-1.41-.91-.84-1.8,0,2.38L4,16.54l2.33,2.58s-2-.78-2.06-.84l-1-1,.3,1.39L5.14,20l2.05.59,1.65,1.54.75.46-1.33,0-1.58-.92L8,23.29l3.72,1.06,1.63.22-1.17.55-.83.11,1.05.59,2.64-.06-1,.92L13,27.32l3,0,1.15-.64,2.16.09L21.2,26l-3.12-.85L16.54,23.8l-1.67-2.95-2.47-5.5-1.78-4.29-.53-2.22V6.48L10.6,9.3l1.23,3.43,3.26,7.35,1.73,3.17,1.74,1.58,2.33.67,2.64.35,2.64-.11Z" fill="#212121"/><rect width="30" height="30" fill="none"/></svg>