<!-- Copyright (c) 2023 Jan Stehno -->
<svg xmlns="http://www.w3.org/2000/svg" viewBox="0 0 30 30">
    <path
        d="M21,13.1l-1.53-1.68L17.63,9.87,15.48,8.69l-2.24-.81-2-.19-1.95.19-2.24.81L4.94,9.87,3.08,11.42,1.55,13.1,0,15l1.55,1.9,1.53,1.68,1.86,1.55,2.15,1.18,2.24.81,1.95.19,2-.19,2.24-.81,2.15-1.18,1.86-1.55L21,16.9,22.57,15Zm-9.74,5A3.12,3.12,0,1,1,14.41,15,3.12,3.12,0,0,1,11.28,18.12Z"
        fill="#212121" />
    <rect x="25.1" y="8.22" width="3.1" height="9.24" transform="translate(53.3 25.68) rotate(180)"
        fill="#212121" />
    <polygon points="30 17.3 23.3 17.3 26.65 21.78 30 17.3" fill="#212121" />
    <rect width="30" height="30" fill="none" />
</svg>