<!-- Copyright (c) 2023 Jan Stehno -->
<svg xmlns="http://www.w3.org/2000/svg" viewBox="0 0 30 30">
    <path
        d="M8.36,27.57c-1.89,0-3.42-5.63-3.42-12.57S6.47,2.43,8.36,2.43c.65,0,1.26.68,1.78,1.85C9.44,2.54,8.56,1.5,7.61,1.5c-2.3,0-4.17,6-4.17,13.5S5.31,28.5,7.61,28.5c1,0,1.83-1,2.53-2.78C9.62,26.89,9,27.57,8.36,27.57Z"
        fill="#212121" />
    <path
        d="M9.41,22.61C8.09,22.61,7,19.2,7,15s1.08-7.61,2.4-7.61a1,1,0,0,1,.74.38c-.39-.76-.84-1.2-1.33-1.2-1.44,0-2.6,3.77-2.6,8.43s1.16,8.43,2.6,8.43c.49,0,.94-.44,1.33-1.2A1,1,0,0,1,9.41,22.61Z"
        fill="#212121" />
    <path
        d="M10.77,20.35C9.84,20.35,9.08,18,9.08,15s.76-5.35,1.69-5.35a.73.73,0,0,1,.52.26c-.27-.53-.6-.84-.94-.84-1,0-1.83,2.65-1.83,5.93s.82,5.93,1.83,5.93c.34,0,.67-.31.94-.84A.73.73,0,0,1,10.77,20.35Z"
        fill="#212121" />
    <rect x="20.13" y="10.18" width="3.23" height="9.63"
        transform="translate(6.74 36.74) rotate(-90)" fill="#212121" />
    <polygon points="17.1 18.49 17.1 11.51 12.42 15 17.1 18.49" fill="#212121" />
    <rect width="30" height="30" fill="none" />
</svg>