<!-- Copyright (c) 2023 Jan Stehno -->
<svg xmlns="http://www.w3.org/2000/svg" viewBox="0 0 30 30">
    <polygon points="7.16 2.89 6.86 3.42 15.51 2.38 14.95 0 7.16 2.89" fill="#212121" />
    <polygon points="22.66 3.28 15.46 0.14 16.03 2.36 23.14 3.9 22.66 3.28" fill="#212121" />
    <path
        d="M21,5.44,21,4,15.77,2.8l-6.92,1,0,1.61-1.73,0,0,2H8.1v.94l6.1.83H15.7L22,8.46v-.7h1.13l0-2ZM7.74,7H7.52V5.74h.22Zm.65,0H8V5.72h.41ZM9,7H8.61V5.67H9Zm.45-.24H9.26V5.48h.19Zm.88,0H9.71V5.44h.61Zm.63,0h-.41V5.43H11Zm.45-.17h-.23V5.42h.23Zm.64,0h-.41l0-1.31H12Zm.65,0h-.41V5.21h.41Zm.63-.25h-.4V5h.4Zm.67,0h-.43l0-1.28H14Zm.66,0h-.45l0-1.3h.46Zm.42,0h-.22V5h.22ZM15.72,6H15.3l0-1.3h.43Zm.46.21H16V5h.22Zm.41,0h-.21V5.16h.21Zm.45.21h-.21l0-1.3H17Zm.64,0h-.43V5.15h.43Zm.65.19h-.42V5.37h.42Zm.65,0h-.42V5.35H19Zm.65.21h-.42l0-1.3h.43Zm.64,0h-.43V5.57h.43Zm.67.22H20.5l0-1.32h.44Zm.64,0h-.42V5.76h.42Zm.65.2H21.8l0-1.3h.44Zm.45,0h-.22l0-1.3h.23Z"
        fill="#212121" />
    <path
        d="M22.89,26.21,20.77,8.41l-.4.05.47,5.65-2.29-3.38c.05-.05,1-1.49,1.49-2.24l-.64.07-1.2,1.68-1-1.43-.59.06L18,10.75s-1.88,2.53-1.88,2.58L15.88,9,15.6,9h-.17l.1,4.75-2.42-3L14.51,9h-.32L14,9l-1.21,1.39L11.44,8.64l-.66-.09,1.65,2.16L9.75,13.82l.64-5.32-.72-.1L7.53,26l.08.56.32.23.25-.21.52-4,6.53-.07L10,28l0,.2.26.11,5.32-5.55v7.05l.28.18.3-.23,0-6.93,4.76,5.95.25,0,.06-.34-4.83-5.85,5.38-.06.62,4.71.32.19.26-.34Zm-10.17-15s2.63,3,2.67,3.07-5.63.33-5.63.33Zm2.37,3.57-2.78,2.94L9.85,15.06Zm-5.64.51L12,18.14l-3.1,3.29ZM8.83,22l3.45-3.48,3.05,3.41Zm6.77-.49-2.89-3.33,2.82-3.09Zm2.58-10.29,2.52,3.44-4.59-.46Zm2.51,3.91s-1.88,2.54-1.93,2.57l-2.43-3Zm-4.63,6.17.05-6.14,2.33,3Zm.23.75,2.52-3.5,2.89,3.51Zm2.83-3.8L21,15.56l.73,5.86Z"
        fill="#212121" />
    <rect width="30" height="30" fill="none" />
</svg>