<svg xmlns="http://www.w3.org/2000/svg" viewBox="0 0 30 30"><polygon points="0.2 21.24 1.95 21.24 3.71 21.24 3.89 21.06 3.89 20.83 1.95 20.83 0.01 20.83 0.01 21.06 0.2 21.24" fill="#212121"/><polygon points="2.36 20.38 1.95 20.38 0.13 20.38 0.13 20.59 1.95 20.59 2.36 20.59 2.36 20.38" fill="#212121"/><rect x="2.77" y="20.38" width="1.01" height="0.21" fill="#212121"/><polygon points="0 20.07 0.13 20.19 1.95 20.19 2.36 20.19 2.36 12.3 2.77 12.3 2.77 20.19 3.78 20.19 3.91 20.07 3.7 11.72 1.95 11.72 0.2 11.72 0 20.07" fill="#212121"/><polygon points="1.07 8.93 0.47 9.58 0.2 10.32 0.2 11.42 1.95 11.42 2.53 11.42 2.53 10.16 2.36 9.57 2.06 9.21 2.66 9.61 2.98 10.2 3.03 11.42 3.7 11.42 3.7 10.32 3.43 9.58 2.83 8.93 2.47 8.76 1.95 8.76 1.44 8.76 1.07 8.93" fill="#212121"/><polygon points="20.32 21.24 22.08 21.24 23.83 21.24 24.02 21.06 24.02 20.83 22.08 20.83 20.14 20.83 20.14 21.06 20.32 21.24" fill="#212121"/><polygon points="22.48 20.38 22.08 20.38 20.25 20.38 20.25 20.59 22.08 20.59 22.48 20.59 22.48 20.38" fill="#212121"/><rect x="22.9" y="20.38" width="1.01" height="0.21" fill="#212121"/><polygon points="20.12 20.07 20.25 20.19 22.08 20.19 22.48 20.19 22.48 12.3 22.89 12.3 22.89 20.19 23.9 20.19 24.03 20.07 23.82 11.72 22.08 11.72 20.33 11.72 20.12 20.07" fill="#212121"/><polygon points="21.2 8.93 20.6 9.58 20.33 10.32 20.33 11.42 22.08 11.42 22.66 11.42 22.66 10.16 22.48 9.57 22.19 9.21 22.78 9.61 23.11 10.2 23.16 11.42 23.82 11.42 23.82 10.32 23.56 9.58 22.95 8.93 22.59 8.76 22.08 8.76 21.56 8.76 21.2 8.93" fill="#212121"/><polygon points="26.29 21.24 28.05 21.24 29.8 21.24 29.98 21.06 29.98 20.83 28.05 20.83 26.11 20.83 26.11 21.06 26.29 21.24" fill="#212121"/><polygon points="28.45 20.38 28.05 20.38 26.22 20.38 26.22 20.59 28.05 20.59 28.45 20.59 28.45 20.38" fill="#212121"/><rect x="28.87" y="20.38" width="1.01" height="0.21" fill="#212121"/><polygon points="26.09 20.07 26.22 20.19 28.05 20.19 28.45 20.19 28.45 12.3 28.86 12.3 28.86 20.19 29.87 20.19 30 20.07 29.8 11.72 28.05 11.72 26.3 11.72 26.09 20.07" fill="#212121"/><polygon points="27.17 8.93 26.57 9.58 26.3 10.32 26.3 11.42 28.05 11.42 28.63 11.42 28.63 10.16 28.45 9.57 28.16 9.21 28.75 9.61 29.07 10.2 29.13 11.42 29.8 11.42 29.8 10.32 29.53 9.58 28.93 8.93 28.56 8.76 28.05 8.76 27.53 8.76 27.17 8.93" fill="#212121"/><rect x="8.78" y="10.91" width="2.74" height="8.19" transform="translate(25.15 4.85) rotate(90)" fill="#212121"/><polygon points="14.1 12.03 14.1 17.97 18.07 15 14.1 12.03" fill="#212121"/><rect width="30" height="30" fill="none"/></svg>