<svg xmlns="http://www.w3.org/2000/svg" viewBox="0 0 30 30"><polygon points="6.09 27.17 7.3 27.17 8.21 26.62 8.54 25.5 8.32 24.24 7.78 22.96 7.71 19.56 8.37 17.18 8.89 16.11 8.87 14.85 8.04 14.47 5.8 15.68 3.95 18.25 3.02 20.89 2.9 24.17 3.95 25.98 6.09 27.17" fill="#212121"/><polygon points="11.24 27.5 10.03 27.4 9.18 26.78 8.94 25.64 9.25 24.4 9.9 23.17 10.25 19.78 9.78 17.36 9.35 16.25 9.48 14.99 10.34 14.68 12.47 16.08 14.11 18.79 14.81 21.5 14.66 24.78 13.47 26.49 11.24 27.5" fill="#212121"/><polygon points="18.37 15.2 19.59 15.2 20.49 14.65 20.82 13.53 20.61 12.27 20.06 10.99 19.99 7.59 20.66 5.21 21.18 4.14 21.16 2.88 20.32 2.5 18.09 3.71 16.23 6.28 15.31 8.92 15.19 12.2 16.23 14.01 18.37 15.2" fill="#212121"/><polygon points="23.52 15.53 22.32 15.43 21.46 14.81 21.22 13.67 21.54 12.43 22.19 11.2 22.54 7.81 22.07 5.39 21.64 4.28 21.76 3.02 22.63 2.71 24.75 4.11 26.39 6.82 27.1 9.53 26.95 12.81 25.76 14.52 23.52 15.53" fill="#212121"/><rect width="30" height="30" fill="none"/></svg>