<!-- Copyright (c) 2023 Jan Stehno -->
<svg xmlns="http://www.w3.org/2000/svg" viewBox="0 0 30 30">
    <path
        d="M9.25,27.57c-1.89,0-3.43-5.63-3.43-12.57S7.36,2.43,9.25,2.43c.65,0,1.26.68,1.78,1.85C10.33,2.54,9.45,1.5,8.5,1.5c-2.31,0-4.17,6-4.17,13.5S6.19,28.5,8.5,28.5c.95,0,1.83-1,2.53-2.78C10.51,26.89,9.9,27.57,9.25,27.57Z"
        fill="#212121" />
    <path
        d="M10.87,22.52c-1.32,0-2.4-3.41-2.4-7.61S9.55,7.3,10.87,7.3a1.08,1.08,0,0,1,.75.37c-.4-.76-.85-1.2-1.34-1.2-1.44,0-2.6,3.78-2.6,8.44s1.16,8.43,2.6,8.43c.49,0,.94-.44,1.34-1.2A1.09,1.09,0,0,1,10.87,22.52Z"
        fill="#212121" />
    <polygon
        points="14.4 16.66 25.67 14.91 14.4 13.15 18.77 10.46 12.18 12.25 15.18 7.9 10.78 10.74 11.03 7.9 8.26 11.89 8.14 14.91 8.26 17.93 11.03 21.91 10.78 19.08 15.18 21.91 12.18 17.56 18.77 19.36 14.4 16.66"
        fill="#212121" />
    <rect width="30" height="30" fill="none" />
</svg>