<!-- Copyright (c) 2023 Jan Stehno -->
<svg xmlns="http://www.w3.org/2000/svg" viewBox="0 0 30 30">
    <path
        d="M27.91,15a13,13,0,1,0-4.63,9.92l-2.41-2.87a9.21,9.21,0,1,1,3.28-7H22.07L24,16.89,26,19,27.7,17.3,30,15Z"
        fill="#212121" />
    <path
        d="M19.35,8.76l-.93.57-1.57,1.39-2.09,2.52-.54.17L9.49,19.86v.54l1.36,1.16h.77L16.5,15l.1-.74.88-1.19-.9-.53-.93,1.1v-.32L17,11.42,18.42,10l-1.61,2.15.78.72.91-1.24.68-1.4.33-1.18ZM10.64,20.13h-.49l.18-.4,4-5.49.45.26Z"
        fill="#212121" />
    <rect width="30" height="30" fill="none" />
</svg>