<svg xmlns="http://www.w3.org/2000/svg" viewBox="0 0 30 30"><path d="M23.34,23.89V15.26H21.22L23,12.91,20.86,9.72l-1.43-2s-4,2.32-4,2.25,3.68-2.75,3.68-2.75l0-1-.27-.42-.15-1.31-.76-.74-2.1-.08-.67,1.21V3.86l-.72-.47H13.15l-.72.47V4.92l-.67-1.21-2.1.08-.77.74L8.74,5.84l-.27.42-.05,1S12.11,9.94,12.11,10s-4-2.25-4-2.25l-1.43,2-2.3,3.46-1,1.92L4.52,18l2,2.65L5.06,19.49,3.85,18,3,16l-.75,1.47L1.5,20.9l.22,2.77.45,1.41L3.3,26l1.83.64H22.44L24.27,26l1.14-.89.37-1.19ZM7.09,23.26a.87.87,0,0,1-.88-.88A.79.79,0,0,1,6.3,22a.87.87,0,0,0,1.57,0,.8.8,0,0,1,.1.38A.88.88,0,0,1,7.09,23.26Zm6.19,0-.48,1.34-1.08,1,.78-1.06.43-1.48-.13-6.83L12.37,16l-3.69,4L12,15.57,11.69,15l-4.42-.45,4.79-.11.81.63.45,1Zm1-11.55H14v1h.27v.74h-.94v-.74h.26v-1h-.26V8.86h.94Zm.42-6.33-.35.3H13.24l-.34-.3V4.48L13.1,4h1.38l.2.45Z" fill="#212121"/><rect x="23.86" y="14.63" width="2.93" height="8.75" fill="#212121"/><polygon points="22.15 14.78 28.5 14.78 25.33 10.53 22.15 14.78" fill="#212121"/><rect width="30" height="30" fill="none"/></svg>