<svg xmlns="http://www.w3.org/2000/svg" viewBox="0 0 30 30"><g opacity="0.5"><rect y="9.36" width="14.86" height="0.7" fill="#212121"/><rect x="2.23" y="10.71" width="14.86" height="0.7" fill="#212121"/></g><g opacity="0.5"><rect y="19.94" width="14.86" height="0.7" fill="#212121"/><rect x="2.23" y="18.59" width="14.86" height="0.7" fill="#212121"/></g><polygon points="2.57 12.62 2.57 15 2.57 17.38 2.82 17.63 3.12 17.63 3.12 15 3.12 12.37 2.82 12.37 2.57 12.62" fill="#212121"/><polygon points="3.74 15.55 3.74 15 3.74 12.53 3.46 12.53 3.46 15 3.46 15.55 3.74 15.55" fill="#212121"/><rect x="3.46" y="16.11" width="0.28" height="1.37" fill="#212121"/><polygon points="4.16 12.35 3.99 12.53 3.99 15 3.99 15.55 14.7 15.55 14.7 16.11 3.99 16.11 3.99 17.48 4.16 17.65 15.48 17.37 15.48 15 15.48 12.63 4.16 12.35" fill="#212121"/><polygon points="19.27 13.81 18.39 12.99 17.39 12.63 15.89 12.63 15.89 15 15.89 15.79 17.61 15.79 18.4 15.55 18.89 15.15 18.34 15.96 17.55 16.39 15.89 16.46 15.89 17.37 17.39 17.37 18.39 17.01 19.27 16.19 19.5 15.7 19.5 15 19.5 14.3 19.27 13.81" fill="#212121"/><rect x="25.45" y="12.72" width="2.88" height="8.58" fill="#212121"/><polygon points="23.78 12.87 30 12.87 26.89 8.71 23.78 12.87" fill="#212121"/><rect width="30" height="30" fill="none"/></svg>