<!-- Copyright (c) 2023 Jan Stehno -->
<svg xmlns="http://www.w3.org/2000/svg" viewBox="0 0 30 30">
    <rect x="2.85" y="13.59" width="2.87" height="8.57"
        transform="translate(22.16 13.59) rotate(90)" fill="#212121" />
    <polygon points="8.41 14.77 8.41 20.98 12.57 17.87 8.41 14.77" fill="#212121" />
    <polygon
        points="14.57 24.43 14.73 25.27 15.06 25.65 15.55 25.41 15.75 24.86 15.59 23.48 16.05 21.58 16.98 20.32 17.77 19.79 18.34 19.93 19.26 21.46 19.82 23.53 19.82 25.04 19.29 25.65 19.5 26.04 20.47 26.04 21.01 24.95 20.94 24.16 20.01 21.39 19.57 19.56 20.03 18.55 21.19 18.11 23.28 17.95 24.91 18.25 25.77 19.9 26.17 21.72 25.98 23.48 25.61 25.18 24.72 26.07 24.98 26.37 26.02 26.37 26.77 25.46 27 23.44 27.49 21.83 27.95 21.58 28.82 23.32 28.82 24.65 28.53 25.39 28.68 25.76 29.47 25.71 30 24.79 30 23.65 29.21 22.16 29.12 20.69 27.59 19.02 27.54 17.21 28.12 17.79 28.72 17.79 28.63 17.37 28.28 17 28.18 15.12 27.47 13.63 26.17 12.72 24.31 12.51 21.52 12.96 18.71 12.75 17.78 12.42 17.57 11.35 17.59 10.44 17.34 10 17.48 9.65 18.26 9.65 19.19 9.15 19.73 8.58 19.8 7.93 19.52 7.8 20.31 6.8 20.54 5.68 20.49 4.71 20.17 3.82 19.66 3.63 19.89 4.54 19.79 5.42 19.28 6.26 18.85 5.8 18.19 5.42 17.84 5.75 18.47 6.45 18.94 6.71 18.96 7.28 18.08 7.84 17.26 7.94 17.13 7.01 16.8 6.63 16.48 6.96 16.59 7.84 16.19 8.52 15.66 8.52 15.24 7.89 15.41 7.1 15.78 6.77 15.54 6.45 14.97 6.86 14.57 7.38 14.41 7 14.41 6.43 15.1 5.94 15.22 5.5 14.96 5.12 14.27 5.73 14.27 4.75 14.61 4.15 14.85 3.63 14.27 3.63 13.64 4.63 13.64 6.47 13.03 5.63 12.82 4.89 12.75 4.38 12.45 4.38 12.29 4.94 12.54 6.33 13.52 7.47 13.92 7.93 12.65 7.86 12.52 8.22 12.92 8.87 13.76 9.44 14.45 9.56 14.73 9.75 14.45 10.31 13.68 11.05 13.82 11.7 14.34 11.91 14.85 11.93 14.73 12.74 15.06 14.82 15.92 16.4 17.29 17.86 17.31 18.44 15.94 19.79 15.12 20.79 14.73 22.74 14.57 24.43"
        fill="#212121" />
    <rect width="30" height="30" fill="none" />
</svg>