<!-- Copyright (c) 2023 Jan Stehno -->
<svg xmlns="http://www.w3.org/2000/svg" viewBox="0 0 30 30">
    <polygon
        points="20.85 20.18 20.85 24.11 21.3 24.25 22.2 24.25 22.58 23.97 22.58 19.88 22.06 20.18 20.85 20.18"
        fill="#212121" />
    <polygon
        points="20.55 19.91 20.55 6.11 20.85 6.11 20.85 19.91 22.01 19.91 22.39 19.69 22.39 5.37 22.02 5 19.47 5 16.92 5 16.55 5.37 16.55 19.69 16.99 19.91 20.55 19.91"
        fill="#212121" />
    <path
        d="M22.85,24.07l-.46.33-1.4.11H18.12l-1.29-.19-.74-.25c-.16.08-.25.16-.25.25,0,.37,1.63.68,3.63.68s3.64-.31,3.64-.68C23.11,24.23,23,24.15,22.85,24.07Z"
        fill="#212121" />
    <polygon
        points="19.57 24.25 20.55 24.11 20.55 20.18 16.88 20.18 16.36 19.88 16.36 23.97 17.13 24.18 19.57 24.25"
        fill="#212121" />
    <polygon
        points="11.9 20.18 11.9 24.11 12.36 24.25 13.26 24.25 13.63 23.97 13.63 19.88 13.12 20.18 11.9 20.18"
        fill="#212121" />
    <polygon
        points="11.6 19.91 11.6 6.11 11.9 6.11 11.9 19.91 13.07 19.91 13.45 19.69 13.45 5.37 13.08 5 10.53 5 7.98 5 7.61 5.37 7.61 19.69 8.04 19.91 11.6 19.91"
        fill="#212121" />
    <path
        d="M13.91,24.07l-.46.33L12,24.51H9.18l-1.29-.19-.74-.25c-.16.08-.26.16-.26.25,0,.37,1.63.68,3.64.68s3.63-.31,3.63-.68C14.16,24.23,14.07,24.15,13.91,24.07Z"
        fill="#212121" />
    <polygon
        points="10.63 24.25 11.6 24.11 11.6 20.18 7.93 20.18 7.42 19.88 7.42 23.97 8.19 24.18 10.63 24.25"
        fill="#212121" />
    <rect width="30" height="30" fill="none" />
</svg>