<!-- Copyright (c) 2023 Jan Stehno -->
<svg xmlns="http://www.w3.org/2000/svg" viewBox="0 0 30 30">
    <path
        d="M27.91,15a13,13,0,1,0-4.63,9.92l-2.41-2.87a9.21,9.21,0,1,1,3.28-7H22.07L24,16.89,26,19,27.7,17.3,30,15Z"
        fill="#212121" />
    <polygon
        points="18.65 13.68 19.51 11.9 20.17 9.75 18.02 10.41 16.24 11.27 14.15 12.76 14.52 12.93 15.44 12.49 16.53 12.46 6.79 22.2 7.73 23.13 17.46 13.39 17.43 14.48 16.99 15.4 17.16 15.77 18.65 13.68"
        fill="#212121" />
    <rect width="30" height="30" fill="none" />
</svg>