<!-- Copyright (c) 2023 Jan Stehno -->
<svg xmlns="http://www.w3.org/2000/svg" viewBox="0 0 30 30">
    <polygon
        points="14.86 5.52 15.65 5.43 16.06 4.57 16.09 3.85 15.14 4.2 13.88 3.91 12.71 3.22 12.27 4.29 13.22 5.11 14.86 5.52"
        fill="#212121" />
    <path
        d="M15.11,3.63,16,3.38l.63-2L16.4.57,15.2,0l-1,.09,0,.35.94.41L16,1,14.89,1,14.1.63,13.94.35l-.75,2.43.78.47Zm-.47-2.21a.51.51,0,0,1,0,1,.51.51,0,1,1,0-1Z"
        fill="#212121" />
    <polygon
        points="13.79 8.9 15.05 8.96 16.02 8.68 16.62 6.47 16.56 5.62 16.25 5.3 15.77 5.93 14.79 6.03 13.19 5.71 12.33 5.08 11.77 4.54 11.26 5.11 10.82 7.38 12.05 8.23 13.79 8.9"
        fill="#212121" />
    <polygon
        points="17.89 11.29 16.94 9.87 16.12 9.12 14.95 9.46 13.34 9.27 11.86 8.61 10.31 7.79 8.93 8.08 7.44 9.53 6.72 11.58 3.5 26.06 4.13 27.73 6.97 29.27 10.63 30 12.74 29.78 14.16 29.05 15.11 25.99 18.17 13.66 17.89 11.29"
        fill="#212121" />
    <rect x="22.55" y="14.45" width="2.5" height="7.44" fill="#212121" />
    <polygon points="21.1 14.58 26.5 14.58 23.8 10.96 21.1 14.58" fill="#212121" />
    <rect width="30" height="30" fill="none" />
</svg>