<svg xmlns="http://www.w3.org/2000/svg" viewBox="0 0 30 30"><polygon points="8.52 18.95 7.34 18.17 6.47 17.97 5.34 18.42 0.14 21.45 0 21.96 1.64 23.77 3.46 24.92 4.26 25.05 9.18 22.43 9.66 21.67 9.34 20.29 8.52 18.95" fill="#212121"/><polygon points="9.68 19.62 10.05 20.99 12.69 19.22 13.29 18.51 13.43 17.71 13.13 16.81 12.16 16.07 11.08 16.14 10.31 16.57 8 17.95 8.84 18.51 9.68 19.62" fill="#212121"/><path d="M29.53,10.21,28.06,8,26.12,6.66l-2.25-1L22.1,5.19,18.68,5l-3.48.51L13,6.56,11.39,8l-.71,1.71L10.41,12v4l0,.12.49-.45.87-.14.84.24,1,.87.23.94-.17,1-.6.77,3.21,1.31,3.79.47,3.08-.21,2.74-.87,1.34-.9,1.21-1.37.93-1.71L30,13.79l0-1.87ZM22.17,7.63l-.24.27-.2.6.07.87-.3-.57L21.7,8ZM14.26,16.4l-1.33-.93-1.31-1.21L11,12.69l.17-1.41,1.51-1.77L14.4,8.37,17,7.53l2.71-.2,1.94.24-.3.3-.23.43-.3-.2L20.32,8l.17.33.64.74.1.6.77.67.27,1-.17,1-.27.53-.9.17-1.78,0-.83-.1-.17-.34L18,12l-.26.26-.07.57.2.44-.23.53-.1.61-.57.4h-.74l-.33.33-.41.71-.67.6Zm14.6-2.31L28,15.57,26.18,17l-2.57,1-3.15.24-2.65-.54-2.57-.94.56-.5.74-.74.77,0,.84-.17.7-.47,1.24-.06,2.31.13,1.27-.1.07.3-.47.47-.9.1-.24.4,1.14,0,.9-.57.57-.57-.33-.53-.94-.17-.07-.5.14-1.34-.27-.74-.07-.77.51-.17.43-.33V10l-.6-.06-.5,0-.67-.37L22,9l.1-.71.47-.47,1.11.27,1.9.81,1.88,1.37,1.2,1.47L29,13Z" fill="#212121"/><rect width="30" height="30" fill="none"/></svg>