<svg xmlns="http://www.w3.org/2000/svg" viewBox="0 0 30 30"><path d="M27.91,15a13,13,0,1,0-4.63,9.92l-2.41-2.87a9.21,9.21,0,1,1,3.28-7H22.07L24,16.89,26,19,27.7,17.3,30,15Z" fill="#212121"/><path d="M19.54,16l.31-.35.86,0v-.38L19.35,14,11,9.11l-.2-.25-.52.3-.59.91V11l.27.47,3.88,2.25,0,.48-.29.58.14.79,1,.67.89.5v.83l-.79,2.69.07.35,2.43,1.11.67.14.25-.25.27-3.95.35-.52h.5l.86.62.08-.42-.08-.45-1.42-1.07.25-.2Zm-4.16-.69-.2.32h-.64l-.49-.48v-.52l.27-.32h.48l.58.43Zm.52.49V15l.33.34Z" fill="#212121"/><rect width="30" height="30" fill="none"/></svg>