<svg xmlns="http://www.w3.org/2000/svg" viewBox="0 0 30 30"><path d="M10.42,23.38c.22,0,.71.06.71.27s-.3.49-.3.49V24l-.15,0a.8.8,0,0,0-.18.15s0-.08-.08-.08Z" fill="#212121"/><path d="M10.51,22.32c0,.09.07.14.07.2s0,.2,0,.2.23-.41.36-.41.09.12.22.12.12-.07.12-.11-.18-.31-.35-.31S10.51,22.22,10.51,22.32Z" fill="#212121"/><path d="M11.15,16.6c0,.1.1.16.23.16s.4-.29.47-.29,0,.25.09.25.17-.12.32-.12.18.32.3.32a5.39,5.39,0,0,0,1.14-.74c.43-.32.57-.6.82-.6a6.61,6.61,0,0,0,1.18.11c.9,0,1-.55,2.06-.67s1.31-.19,1.68-.74.21-.32-.27-.07-.56.19-.68.19-.3-.21-.3-.34,1.78-2.47,2.22-3.24a2.74,2.74,0,0,0,.43-1.74c0-.6.08-.53-.33.28a3.86,3.86,0,0,1-1.19,1.42c-.08,0,.15-.76.15-2.75s-.15-2.19-.66-3.16a5.61,5.61,0,0,0-1.15-1.71c-.3-.24-.56-.51.14.73a5.61,5.61,0,0,1,.53,3.28c-.12.12-.58.26-1.35-.39A6,6,0,0,1,15.48,5c-.31-.59-.68-1.48-.13.61s2.54,2.94,2.4,3.08-1-.4-.62.16a6.51,6.51,0,0,1,.55,2.84c-.08.35-.34,0-.82-.28s.49.7.49,1.5a2.08,2.08,0,0,1-1,1.93,4.32,4.32,0,0,1-1.63.49,5.37,5.37,0,0,1,.22-1.45c.11-.48,0-.5-.5.63S14,15.7,13.71,15.7s-.54,0-.54-.12a4.89,4.89,0,0,0,.6-1.79,8,8,0,0,0,0-2.74c-.09-.55,0,.3-.31,1.92a4.71,4.71,0,0,1-1.42,2.82C11.65,16.22,11.15,16.49,11.15,16.6Z" fill="#212121"/><path d="M11.83,20.36c0,.12,0,.13.12.13.33,0,.78-.36.78-.63s-.09-.17-.28-.17S11.83,20.15,11.83,20.36Z" fill="#212121"/><path d="M13,19.8c.09,0,.17.14.21.35a1.54,1.54,0,0,1,0,.4l-.08-.1a1.43,1.43,0,0,1,0,.27.86.86,0,0,1,0,.22L13,20.89a.77.77,0,0,0,.12.4l-.12,0a1.18,1.18,0,0,1,.27.35.72.72,0,0,1,.1.34l-.16,0a1.41,1.41,0,0,0,.19.4,2.13,2.13,0,0,0,.26.33h-.16a.46.46,0,0,0,0,.23,1.55,1.55,0,0,0,0,.25l-.11,0a.92.92,0,0,1-.08.39c-.07.11-.15.15-.15.24a1.11,1.11,0,0,0,.06.26l-.14,0,0,.14a1.8,1.8,0,0,0,0,.2L13,24.28s0,.11,0,.16a.61.61,0,0,0,0,.14l-.16,0s0,.16,0,.36a2.22,2.22,0,0,0,0,.36l-.2-.18a1,1,0,0,1-.13.58c-.16.17-.43.11-.53.2a1.22,1.22,0,0,0-.17.41l-.06-.17a.6.6,0,0,1-.33.31,1.59,1.59,0,0,0-.52.5s0-.17,0-.25a.82.82,0,0,1,.07-.2.65.65,0,0,0-.27.11,1.24,1.24,0,0,0-.25.46V24.51A.84.84,0,0,0,11,24.3a.47.47,0,0,0,.08-.22s.18.08.24,0,0-.22,0-.22a.14.14,0,0,0,.16-.06c.06-.08-.06-.28-.06-.28a.3.3,0,0,0,.21,0,1.2,1.2,0,0,0,.5-.5c.07-.18.06-.66.18-.94s.2-.26.2-.54-.34-.57-.4-.7a.23.23,0,0,1,0-.29c.07-.07.29,0,.52-.25S12.88,19.8,13,19.8Z" fill="#212121"/><path d="M15.67,16a2.67,2.67,0,0,0-1.69.33,7,7,0,0,1-1.64.91c-.13,0-.15-.16-.4-.16s-.34-.24-.46-.24-.2.21-.32.21-.2-.39-.39-.39-.21.11-.35.11v5.26c.13,0,.3-.24.55-.24s.54.41.54.57-.31.44-.59.44-.35.24-.5.24v.22c.17,0,.22-.11.34-.11a.15.15,0,0,1,.15.1s0-.1.2-.1.4.25.4.25.09-.31.26-.31.24,0,.24-.47.33-.86.33-1-.07-.26-.32-.53a1.23,1.23,0,0,1-.34-.78,1,1,0,0,1,.31-.63.61.61,0,0,1,.65-.14c.26.08.29.2.29-.06a1.83,1.83,0,0,1,.84-1.24c.54-.32,1.24-.2,1.34-.31a4.62,4.62,0,0,0,.73-1.36C16,16.09,16.11,16,15.67,16Zm-.58.36s.21.22,0,.22a.44.44,0,0,1-.34-.17s.31.44.13.44-.41-.23-.41-.23a.28.28,0,0,1-.11.3c-.15.08-.18.41-.18.41a.89.89,0,0,0,.22,0,.74.74,0,0,0,.3-.05.81.81,0,0,1-.35.19,1.71,1.71,0,0,1-.3,0,.69.69,0,0,0,.15.14.51.51,0,0,0,.14.07.48.48,0,0,1-.34.2.91.91,0,0,1-.37,0l.08.1a.28.28,0,0,0,.08.05s0,.09-.2.09S13,18,13,17.85s-.06-.53,0-.59.46.06.72-.13.49-.55.68-.59.28-.29.52-.32.6,0,.6,0S15.09,16.39,15.09,16.39Z" fill="#212121"/><path d="M10.42,23.38c-.21,0-.7.06-.7.27s.29.49.29.49V24a.8.8,0,0,1,.16,0,.68.68,0,0,1,.17.15s0-.08.08-.08Z" fill="#212121"/><path d="M10.34,22.32c0,.09-.07.14-.07.2s0,.2,0,.2-.23-.41-.36-.41-.09.12-.22.12-.13-.07-.13-.11.19-.31.36-.31S10.34,22.22,10.34,22.32Z" fill="#212121"/><path d="M9.69,16.6c0,.1-.09.16-.23.16s-.39-.29-.46-.29,0,.25-.1.25-.17-.12-.31-.12-.18.32-.3.32a5.14,5.14,0,0,1-1.14-.74c-.43-.32-.57-.6-.82-.6a6.61,6.61,0,0,1-1.18.11c-.9,0-1-.55-2.06-.67s-1.32-.19-1.68-.74-.21-.32.27-.07.56.19.68.19.3-.21.3-.34S.88,11.59.43,10.82A2.79,2.79,0,0,1,0,9.08c0-.6-.08-.53.33.28a3.86,3.86,0,0,0,1.19,1.42c.08,0-.16-.76-.16-2.75S1.52,5.84,2,4.87A5.61,5.61,0,0,1,3.19,3.16c.3-.24.56-.51-.14.73a5.61,5.61,0,0,0-.53,3.28c.12.12.58.26,1.34-.39A5.93,5.93,0,0,0,5.37,5c.31-.59.68-1.48.13.61S3,8.55,3.1,8.69s1-.4.62.16a6.37,6.37,0,0,0-.55,2.84c.08.35.34,0,.82-.28s-.49.7-.49,1.5a2.08,2.08,0,0,0,1,1.93,4.27,4.27,0,0,0,1.63.49,5.37,5.37,0,0,0-.22-1.45c-.11-.48,0-.5.5.63s.46,1.19.72,1.19.54,0,.54-.12a4.89,4.89,0,0,1-.6-1.79,8,8,0,0,1,0-2.74c.09-.55,0,.3.31,1.92a4.77,4.77,0,0,0,1.41,2.82C9.2,16.22,9.69,16.49,9.69,16.6Z" fill="#212121"/><path d="M9,20.36c0,.12,0,.13-.12.13-.33,0-.78-.36-.78-.63s.09-.17.28-.17S9,20.15,9,20.36Z" fill="#212121"/><path d="M7.82,19.8c-.09,0-.16.14-.2.35a1.54,1.54,0,0,0,0,.4l.08-.1a1.14,1.14,0,0,0,0,.49l.12-.05a.58.58,0,0,1,0,.2,1.12,1.12,0,0,1-.1.2l.12,0a1.26,1.26,0,0,0-.26.35.72.72,0,0,0-.1.34l.16,0a1.41,1.41,0,0,1-.19.4,2.13,2.13,0,0,1-.26.33h.16a.46.46,0,0,1,0,.23,1.55,1.55,0,0,1,0,.25l.11,0a.86.86,0,0,0,.07.39c.08.11.16.15.16.24a1.11,1.11,0,0,1-.06.26l.14,0a.94.94,0,0,1,0,.14.93.93,0,0,1,0,.2l.11-.06s0,.11,0,.16l0,.14.16,0s0,.16,0,.36a2.22,2.22,0,0,1,0,.36l.2-.18a1,1,0,0,0,.13.58c.15.17.43.11.52.2a1.1,1.1,0,0,1,.18.41l.06-.17a.6.6,0,0,0,.33.31,1.59,1.59,0,0,1,.52.5s0-.17,0-.25a1.82,1.82,0,0,0-.07-.2.65.65,0,0,1,.27.11,1.35,1.35,0,0,1,.24.46V24.51a.84.84,0,0,1-.53-.21.47.47,0,0,1-.08-.22s-.18.08-.24,0,0-.22,0-.22a.13.13,0,0,1-.15-.06c-.06-.08.06-.28.06-.28a.3.3,0,0,1-.21,0,1.28,1.28,0,0,1-.51-.5,7.33,7.33,0,0,0-.17-.94c-.12-.28-.2-.26-.2-.54s.33-.57.4-.7a.22.22,0,0,0-.05-.29c-.06-.07-.28,0-.51-.25S8,19.8,7.82,19.8Z" fill="#212121"/><path d="M5,16.6A4.62,4.62,0,0,0,5.74,18c.1.11.8,0,1.33.31a1.81,1.81,0,0,1,.85,1.24c0,.26,0,.14.29.06a.61.61,0,0,1,.65.14,1,1,0,0,1,.31.63,1.23,1.23,0,0,1-.34.78c-.25.27-.32.39-.32.53s.33.53.33,1,.07.47.24.47.25.31.25.31.24-.25.4-.25.21.1.21.1a.15.15,0,0,1,.15-.1c.12,0,.17.11.33.11v-.22c-.14,0-.21-.24-.49-.24s-.59-.29-.59-.44.29-.57.54-.57.42.24.54.24V16.8c-.13,0-.15-.11-.34-.11s-.27.39-.39.39-.19-.21-.32-.21-.22.24-.46.24-.27.16-.4.16a7,7,0,0,1-1.64-.91A2.68,2.68,0,0,0,5.18,16C4.74,16,4.88,16.09,5,16.6Zm.33-.34c0-.07.37-.07.6,0s.32.29.51.32.43.4.69.59.64,0,.72.13,0,.48,0,.59-.41.35-.59.35-.21-.09-.21-.09a.28.28,0,0,0,.09-.05l.08-.1a.91.91,0,0,1-.37,0,.48.48,0,0,1-.34-.2l.14-.07a.69.69,0,0,0,.15-.14,1.72,1.72,0,0,1-.3,0,.81.81,0,0,1-.35-.19.74.74,0,0,0,.3.05.89.89,0,0,0,.22,0s0-.33-.18-.41-.12-.3-.12-.3a.72.72,0,0,1-.4.23c-.18,0,.13-.44.13-.44a.47.47,0,0,1-.34.17c-.22,0,0-.22,0-.22S5.34,16.33,5.34,16.26Z" fill="#212121"/><path d="M25.22,3.78H18.38A4.78,4.78,0,0,0,13.6,8.56v.55a4.78,4.78,0,0,0,4.78,4.78h1.27v4.53l4.2-4.53h1.37A4.78,4.78,0,0,0,30,9.11V8.56A4.78,4.78,0,0,0,25.22,3.78ZM20.3,7.18A1.75,1.75,0,0,1,20.68,6a1.41,1.41,0,0,1,1.11-.42A1.43,1.43,0,0,1,22.91,6a1.71,1.71,0,0,1,.39,1.21,2.29,2.29,0,0,1-.15.82,4.17,4.17,0,0,1-.53.88,4.86,4.86,0,0,0-.41.66,1.25,1.25,0,0,0-.11.52v.35h-.89V10a2,2,0,0,1,.1-.65,3,3,0,0,1,.4-.72,3.6,3.6,0,0,0,.45-.81,2.19,2.19,0,0,0,.12-.73.71.71,0,0,0-.13-.48.48.48,0,0,0-.38-.15.49.49,0,0,0-.38.15.76.76,0,0,0-.13.48v.71h-1Zm.86,4.94v-1h1v1Z" fill="#212121"/><rect width="30" height="30" fill="none"/></svg>