<!-- Copyright (c) 2023 Jan Stehno -->
<svg xmlns="http://www.w3.org/2000/svg" viewBox="0 0 30 30">
    <rect x="20.25" y="6.35" width="3.95" height="11.79"
        transform="translate(44.45 24.49) rotate(180)" fill="#212121" />
    <polygon points="26.5 17.93 17.95 17.93 22.23 23.65 26.5 17.93" fill="#212121" />
    <polygon
        points="7.46 15 4.71 11.73 7.33 5.25 6.59 4.79 3.5 11.76 6.08 15 3.5 18.24 6.59 25.21 7.33 24.75 4.71 18.27 7.46 15"
        fill="#212121" />
    <polygon
        points="11.73 15 8.59 11.79 11.53 5.3 10.11 4.61 6.69 11.94 9.65 15 6.69 18.06 10.11 25.39 11.53 24.7 8.59 18.21 11.73 15"
        fill="#212121" />
    <polygon
        points="15 15 12.25 11.73 14.87 5.25 14.12 4.79 11.04 11.76 13.62 15 11.04 18.24 14.12 25.21 14.87 24.75 12.25 18.27 15 15"
        fill="#212121" />
    <rect width="30" height="30" fill="none" />
</svg>