<svg xmlns="http://www.w3.org/2000/svg" viewBox="0 0 30 30"><path d="M24.86,16.36l-1-.81.72-1.38-.75-1.25L23,12.45v-1.6l-.78,1,1.21-3.12-.27-.27a16,16,0,0,0,.21-2.95,12.18,12.18,0,0,0-1-3,10.77,10.77,0,0,0-2.76,1.36A12.17,12.17,0,0,0,17.5,5.93a12.63,12.63,0,0,1-.12,1.35,2.34,2.34,0,0,1-.41.79,5.66,5.66,0,0,0,.22-1.33c0-.49-.05-.84-.05-.84L18,4.8l-3,.7v6.27l.59-.54v1.28l.42-.42a13,13,0,0,0-.12,1.59,1.85,1.85,0,0,0,.41.56l.59-.26.32.26a1.43,1.43,0,0,1,.4-.55,3.14,3.14,0,0,1,.88-.26s-.63.28-.74.49a.82.82,0,0,0-.12.35l.86-.18.57.41a1.24,1.24,0,0,1,.85.13c.39.24,1.87,1.43,1.87,1.43l-.35-.75.61-.49-.42-.68.49.07a2.35,2.35,0,0,0-.35-.69,4.8,4.8,0,0,0-.51-.57,2.6,2.6,0,0,1,.86.53,8.42,8.42,0,0,1,.64,1,3.59,3.59,0,0,0,.29.35l-.41-.06a1.64,1.64,0,0,0,.41.72,1.82,1.82,0,0,1,.43.71,1.64,1.64,0,0,0-.61-.3,1.18,1.18,0,0,0-1.27,1.22c-.12,1.18,1.83,3,1.83,3L23.61,19l.89-.48-.51-1Zm-2.79-7v.45l-.48-.92-.16,1.62.39,0,.06.94-.39.66L21,11.91l.25-.41-1.1-.16.61-.42-.71,0,.16-.62h-.9l1.45-.63-1.39,0-.71-.88,1-.06L19,8l1.65-.37-1.34-.28.77-.44,1.2,1.07-.52-1.1.33-1.32-.25-.11.67-.18.06-.71.52.35,0-.94.83.88-.33,1,.33.36-.42.66.42.26-.39.37.39.89-.45.22v.55Z" fill="#212121"/><path d="M15,23.59v2.77c.19,0,.59,1.14.59,1.14A4.65,4.65,0,0,1,16,26.08a5.4,5.4,0,0,1,.73-.76l.39.43a3,3,0,0,1,.72-.8,4.25,4.25,0,0,1,.74-.35l.26-.64.41.38.52-1.17.69.44.6-1.53.58.89L21.41,21l.62.66.13-1,.53.95.1-.68.51.2a4.9,4.9,0,0,0-.69-1.39,10.85,10.85,0,0,0-1.28-1.3l.37,1-1-.6.36.89-.53-.32.37.63-.94-.65.3.7-.6-.29.14.34-.58-.31.14.42L19,20.06a2.35,2.35,0,0,1,.57,1,3.59,3.59,0,0,1,0,1.07,2.33,2.33,0,0,0-.3-1.13,2.43,2.43,0,0,0-.62-.6l0,.53-.45-.25a2.19,2.19,0,0,1-.2,1.37A4.11,4.11,0,0,1,15,23.59Z" fill="#212121"/><path d="M15,22.88a3.13,3.13,0,0,0,1-.13c.21-.08.51-.18.44-.08a1.69,1.69,0,0,1-1.4.68Z" fill="#212121"/><path d="M15.41,21.82c.06.17.5-.09.69-.67,0-.06-.17.11-.24.1s-.31-.13-.4-.06S15.35,21.67,15.41,21.82Z" fill="#212121"/><path d="M15,20.25c.55,0,.89.75,1.05.77s.31-.2.32-.68a4.27,4.27,0,0,1,.38-1.18c0-.2.11-.5.11-.5l.08.62.14-.46.09.22.23-.84.2.49a4.28,4.28,0,0,1,0-1.18,3.29,3.29,0,0,1,.28-.78,4.54,4.54,0,0,0-.06.56,1.86,1.86,0,0,0,.08.28l.23-.74.11.37.23-.43.09.29a3,3,0,0,1,.66-.69c.32-.19.72-1.18.72-1.18s-.65-.53-.86-.45-.1.42-.66.76-.86.18-1,.26-.1.48-.1.48L17,15.76a.21.21,0,0,0-.11.14c0,.1-.06.25-.06.25a2.58,2.58,0,0,1,.07-.92c.13-.47.24-.75.24-.75a.76.76,0,0,0-.44-.09,3.92,3.92,0,0,0-.4.06,2.26,2.26,0,0,0-.42.91,6.21,6.21,0,0,0,.17,2c.16.51.39,1.29.39,1.29a13.82,13.82,0,0,1-.74-2.19,2.89,2.89,0,0,1,.1-1.63,4.85,4.85,0,0,1,.24-.48A4.48,4.48,0,0,0,15,13.76v5.06a.43.43,0,0,1,.37.26.93.93,0,0,1,.1.36S15.15,19,15,19Z" fill="#212121"/><path d="M18.6,14.52c-.07-.12-.28-.14-.49-.09l-.18.05v.26a.2.2,0,1,1-.2.19.19.19,0,0,1,.08-.15h0l0-.28s-.45.11-.54.33-.18.66,0,.74a1.34,1.34,0,0,0,1-.18A.92.92,0,0,0,18.6,14.52Z" fill="#212121"/><path d="M6,17.45l-.51,1,.89.48.19,1.21s1.95-1.86,1.83-3a1.18,1.18,0,0,0-1.27-1.22,1.64,1.64,0,0,0-.61.3A1.82,1.82,0,0,1,7,15.51a1.64,1.64,0,0,0,.41-.72L7,14.85a3.59,3.59,0,0,0,.29-.35,8.42,8.42,0,0,1,.64-1A2.6,2.6,0,0,1,8.75,13a4.8,4.8,0,0,0-.51.57,2.35,2.35,0,0,0-.35.69l.49-.07L8,14.82l.61.49-.35.75s1.48-1.19,1.87-1.43a1.24,1.24,0,0,1,.85-.13l.57-.41.86.18a.82.82,0,0,0-.12-.35c-.11-.21-.74-.49-.74-.49a3.14,3.14,0,0,1,.88.26,1.43,1.43,0,0,1,.4.55l.32-.26.59.26a1.85,1.85,0,0,0,.41-.56A13,13,0,0,0,14,12.09l.42.42V11.23l.59.54V5.5l-3-.7.85,1.1s0,.35,0,.84A5.66,5.66,0,0,0,13,8.07a2.34,2.34,0,0,1-.41-.79,12.63,12.63,0,0,1-.12-1.35,12.17,12.17,0,0,0-2.07-2.07A10.77,10.77,0,0,0,7.67,2.5a12.18,12.18,0,0,0-1,3,16,16,0,0,0,.21,3l-.27.27,1.21,3.12-.78-1v1.6l-.85.47-.75,1.25.72,1.38-1,.81ZM7.6,9.07V8.52L7.15,8.3l.39-.89L7.15,7l.42-.26-.42-.66.33-.36-.33-1L8,3.93l0,.94.52-.35.06.71.67.18-.25.11.33,1.32-.52,1.1L10,6.87l.77.44-1.34.28L11,8l-.71.67,1,.06-.71.88-1.39,0,1.45.63h-.9l.16.62-.71,0,.61.42-1.1.16.25.41-.51.21-.39-.66.06-.94.39,0L8.41,8.86l-.48.92V9.33Z" fill="#212121"/><path d="M15,23.59v2.77c-.19,0-.59,1.14-.59,1.14A4.65,4.65,0,0,0,14,26.08a5.4,5.4,0,0,0-.73-.76l-.39.43a3,3,0,0,0-.72-.8,4.25,4.25,0,0,0-.74-.35L11.12,24l-.41.38-.52-1.17-.69.44-.6-1.53L8.32,23,8.59,21,8,21.68l-.13-1-.53.95-.1-.68-.51.2a4.9,4.9,0,0,1,.69-1.39,10.85,10.85,0,0,1,1.28-1.3l-.37,1,1-.6L9,19.77l.53-.32-.37.63.94-.65-.3.7.6-.29-.14.34.58-.31-.14.42.38-.23a2.35,2.35,0,0,0-.57,1,3.59,3.59,0,0,0,0,1.07,2.33,2.33,0,0,1,.3-1.13,2.43,2.43,0,0,1,.62-.6l0,.53.45-.25a2.19,2.19,0,0,0,.2,1.37A4.11,4.11,0,0,0,15,23.59Z" fill="#212121"/><path d="M15,22.88a3.13,3.13,0,0,1-1-.13c-.21-.08-.51-.18-.44-.08a1.69,1.69,0,0,0,1.4.68Z" fill="#212121"/><path d="M14.59,21.82c-.06.17-.5-.09-.69-.67,0-.06.17.11.24.1s.31-.13.4-.06S14.65,21.67,14.59,21.82Z" fill="#212121"/><path d="M15,20.25c-.55,0-.89.75-1.05.77s-.31-.2-.32-.68a4.27,4.27,0,0,0-.38-1.18c0-.2-.11-.5-.11-.5l-.08.62-.14-.46-.09.22-.23-.84-.2.49a4.28,4.28,0,0,0,0-1.18,3.29,3.29,0,0,0-.28-.78,4.54,4.54,0,0,1,.06.56,1.86,1.86,0,0,1-.08.28l-.23-.74-.11.37-.23-.43-.09.29a3,3,0,0,0-.66-.69c-.32-.19-.72-1.18-.72-1.18s.65-.53.86-.45.1.42.66.76.86.18,1,.26.1.48.1.48l.33-.48a.21.21,0,0,1,.11.14c0,.1.06.25.06.25a2.58,2.58,0,0,0-.07-.92c-.13-.47-.24-.75-.24-.75a.76.76,0,0,1,.44-.09,3.92,3.92,0,0,1,.4.06,2.26,2.26,0,0,1,.42.91,6.21,6.21,0,0,1-.17,2c-.16.51-.39,1.29-.39,1.29a13.82,13.82,0,0,0,.74-2.19,2.89,2.89,0,0,0-.1-1.63,4.85,4.85,0,0,0-.24-.48A4.48,4.48,0,0,1,15,13.76v5.06a.43.43,0,0,0-.37.26.93.93,0,0,0-.1.36S14.85,19,15,19Z" fill="#212121"/><path d="M11.4,14.52c.07-.12.28-.14.49-.09l.18.05v.26a.2.2,0,1,0,.2.19.19.19,0,0,0-.08-.15h0l0-.28s.45.11.54.33.18.66,0,.74a1.34,1.34,0,0,1-1-.18A.92.92,0,0,1,11.4,14.52Z" fill="#212121"/><rect width="30" height="30" fill="none"/></svg>