<svg xmlns="http://www.w3.org/2000/svg" viewBox="0 0 30 30"><path d="M15,25.44c.26,0,.88.07.88.34s-.37.61-.37.61v-.14a1,1,0,0,0-.2.06.82.82,0,0,0-.21.19s0-.1-.1-.1Z" fill="#212121"/><path d="M15.11,24.12c0,.11.08.17.08.25s0,.25,0,.25.28-.52.45-.52.11.16.27.16.16-.09.16-.14-.23-.39-.44-.39S15.11,24,15.11,24.12Z" fill="#212121"/><path d="M15.91,17c0,.13.12.2.29.2s.48-.36.57-.36,0,.31.12.31.21-.15.39-.15.23.4.38.4a7,7,0,0,0,1.42-.92c.54-.4.71-.75,1-.75a8,8,0,0,0,1.47.14c1.12,0,1.29-.68,2.57-.83s1.63-.25,2.09-.93.26-.4-.34-.08-.69.23-.85.23-.37-.26-.37-.42,2.22-3.07,2.77-4A3.47,3.47,0,0,0,28,7.62c0-.75.09-.65-.42.36a4.82,4.82,0,0,1-1.48,1.76c-.11,0,.19-1,.19-3.43s-.19-2.72-.83-3.93A7.12,7.12,0,0,0,24,.25c-.38-.29-.69-.63.17.92a7,7,0,0,1,.67,4.08c-.15.15-.73.32-1.68-.49a7.49,7.49,0,0,1-1.88-2.22c-.38-.73-.84-1.84-.16.76s3.17,3.66,3,3.84-1.29-.5-.78.2A8.1,8.1,0,0,1,24,10.88c-.1.43-.43-.05-1-.35s.6.87.6,1.86a2.6,2.6,0,0,1-1.25,2.41,5.14,5.14,0,0,1-2,.61,6.21,6.21,0,0,1,.27-1.81c.14-.6,0-.61-.62.79s-.57,1.49-.9,1.49-.67,0-.67-.16a6.15,6.15,0,0,0,.75-2.23,9.82,9.82,0,0,0,0-3.4c-.11-.69,0,.36-.39,2.38A5.91,5.91,0,0,1,17.07,16C16.52,16.51,15.91,16.85,15.91,17Z" fill="#212121"/><path d="M16.75,21.68c0,.15,0,.15.15.15.41,0,1-.44,1-.78s-.11-.21-.35-.21C17.12,20.84,16.75,21.42,16.75,21.68Z" fill="#212121"/><path d="M18.24,21c.11,0,.2.18.25.43a2.07,2.07,0,0,1,0,.5l-.1-.12a1.33,1.33,0,0,1,0,.34.94.94,0,0,1-.05.27l-.15-.07a.61.61,0,0,0,0,.25,1.75,1.75,0,0,0,.12.26h-.15a1.34,1.34,0,0,1,.33.44,1,1,0,0,1,.13.43l-.2,0a2.18,2.18,0,0,0,.23.5,2.54,2.54,0,0,0,.33.4h-.19a.58.58,0,0,0-.07.29,2.26,2.26,0,0,0,0,.31l-.13,0a1.13,1.13,0,0,1-.1.48c-.09.14-.18.18-.18.3a1.48,1.48,0,0,0,.06.32l-.17,0s0,.07,0,.17,0,.25,0,.25l-.13-.07a1.83,1.83,0,0,0,0,.19c0,.06,0,.18,0,.18l-.2,0s0,.2,0,.46a2.23,2.23,0,0,0,0,.43l-.26-.21a1.18,1.18,0,0,1-.15.71c-.2.22-.54.15-.66.25a1.76,1.76,0,0,0-.22.52l-.07-.22a.77.77,0,0,1-.41.39,2.06,2.06,0,0,0-.65.63,2.16,2.16,0,0,1,0-.31,1.16,1.16,0,0,1,.08-.26.88.88,0,0,0-.34.14A1.76,1.76,0,0,0,15,30V26.85a1.07,1.07,0,0,0,.67-.27.69.69,0,0,0,.1-.28s.22.1.3,0,0-.27,0-.27a.18.18,0,0,0,.2-.07c.07-.11-.08-.36-.08-.36a.34.34,0,0,0,.26,0,1.49,1.49,0,0,0,.63-.62c.08-.22.07-.82.21-1.17s.26-.32.26-.67-.42-.71-.51-.88a.29.29,0,0,1,.06-.36c.08-.08.35.06.64-.31S18.06,21,18.24,21Z" fill="#212121"/><path d="M21.53,16.28a3.35,3.35,0,0,0-2.11.42,8.53,8.53,0,0,1-2,1.12c-.16,0-.18-.19-.49-.19s-.42-.3-.58-.3-.24.25-.39.25-.25-.48-.49-.48-.26.15-.43.15v6.54c.16,0,.37-.29.68-.29s.67.51.67.7a.82.82,0,0,1-.73.55c-.36,0-.44.3-.62.3v.27c.2,0,.26-.14.41-.14a.22.22,0,0,1,.2.14s0-.13.25-.13.5.31.5.31.1-.39.31-.39.3,0,.3-.58.42-1.07.42-1.25-.09-.32-.4-.66a1.47,1.47,0,0,1-.43-1,1.22,1.22,0,0,1,.39-.78.76.76,0,0,1,.81-.18c.32.1.36.25.36-.08a2.29,2.29,0,0,1,1.05-1.54c.67-.39,1.54-.25,1.66-.38a5.61,5.61,0,0,0,.92-1.7C21.91,16.35,22.08,16.28,21.53,16.28Zm-.72.45s.26.28,0,.28a.55.55,0,0,1-.42-.21s.39.55.16.55-.52-.3-.51-.29a.36.36,0,0,1-.14.37c-.19.09-.22.5-.22.5a1.06,1.06,0,0,0,.64,0,.94.94,0,0,1-.43.23,1.62,1.62,0,0,1-.38,0,.88.88,0,0,0,.19.17l.17.1a.56.56,0,0,1-.42.24,1,1,0,0,1-.46,0,.67.67,0,0,0,.1.12.41.41,0,0,0,.1.06s0,.12-.25.12-.74-.31-.74-.44-.07-.67,0-.74.58.07.9-.16.61-.69.85-.73.35-.36.64-.4.75,0,.75.05S20.81,16.73,20.81,16.73Z" fill="#212121"/><path d="M15,25.44c-.26,0-.88.07-.88.34s.37.61.37.61v-.14a1,1,0,0,1,.2.06.82.82,0,0,1,.21.19s0-.1.1-.1Z" fill="#212121"/><path d="M14.89,24.12c0,.11-.08.17-.08.25s0,.25,0,.25-.28-.52-.45-.52-.11.16-.27.16-.16-.09-.16-.14.23-.39.44-.39S14.89,24,14.89,24.12Z" fill="#212121"/><path d="M14.09,17c0,.13-.12.2-.29.2s-.48-.36-.57-.36,0,.31-.12.31S12.9,17,12.72,17s-.23.4-.38.4a7,7,0,0,1-1.42-.92c-.54-.4-.71-.75-1-.75a8,8,0,0,1-1.47.14c-1.12,0-1.29-.68-2.57-.83s-1.63-.25-2.09-.93-.26-.4.34-.08.69.23.85.23.37-.26.37-.42-2.22-3.07-2.77-4A3.47,3.47,0,0,1,2,7.62c0-.75-.09-.65.42.36A4.82,4.82,0,0,0,3.92,9.74c.11,0-.19-1-.19-3.43s.19-2.72.83-3.93A7.12,7.12,0,0,1,6,.25c.38-.29.69-.63-.17.92a7,7,0,0,0-.67,4.08c.15.15.73.32,1.68-.49A7.49,7.49,0,0,0,8.71,2.54c.38-.73.84-1.84.16.76S5.7,7,5.87,7.14s1.29-.5.78.2A8.1,8.1,0,0,0,6,10.88c.1.43.43-.05,1-.35s-.6.87-.6,1.86A2.6,2.6,0,0,0,7.63,14.8a5.14,5.14,0,0,0,2,.61,6.21,6.21,0,0,0-.27-1.81c-.14-.6,0-.61.62.79s.57,1.49.9,1.49.67,0,.67-.16a6.15,6.15,0,0,1-.75-2.23,9.82,9.82,0,0,1-.05-3.4c.11-.69.05.36.39,2.38A5.91,5.91,0,0,0,12.93,16C13.48,16.51,14.09,16.85,14.09,17Z" fill="#212121"/><path d="M13.25,21.68c0,.15,0,.15-.15.15-.41,0-1-.44-1-.78s.11-.21.35-.21C12.88,20.84,13.25,21.42,13.25,21.68Z" fill="#212121"/><path d="M11.76,21c-.11,0-.2.18-.25.43a2.07,2.07,0,0,0,0,.5l.1-.12a1.33,1.33,0,0,0,0,.34.94.94,0,0,0,0,.27l.15-.07a.61.61,0,0,1,0,.25,1.75,1.75,0,0,1-.12.26h.15a1.34,1.34,0,0,0-.33.44,1,1,0,0,0-.13.43l.2,0a2.18,2.18,0,0,1-.23.5,2.54,2.54,0,0,1-.33.4h.19a.58.58,0,0,1,.07.29,2.26,2.26,0,0,1,0,.31l.13,0a1.13,1.13,0,0,0,.1.48c.09.14.18.18.18.3a1.48,1.48,0,0,1-.06.32l.17,0s0,.07,0,.17,0,.25,0,.25l.13-.07a1.83,1.83,0,0,1,0,.19c0,.06,0,.18,0,.18l.2,0s0,.2,0,.46a2.23,2.23,0,0,1,0,.43l.26-.21a1.18,1.18,0,0,0,.15.71c.2.22.54.15.66.25a1.76,1.76,0,0,1,.22.52l.07-.22a.77.77,0,0,0,.41.39,2.06,2.06,0,0,1,.65.63,2.16,2.16,0,0,0,0-.31,1.16,1.16,0,0,0-.08-.26.88.88,0,0,1,.34.14A1.76,1.76,0,0,1,15,30V26.85a1.07,1.07,0,0,1-.67-.27.69.69,0,0,1-.1-.28s-.22.1-.3,0,0-.27,0-.27a.18.18,0,0,1-.2-.07c-.07-.11.08-.36.08-.36a.34.34,0,0,1-.26,0,1.49,1.49,0,0,1-.63-.62c-.08-.22-.07-.82-.21-1.17s-.26-.32-.26-.67.42-.71.51-.88a.29.29,0,0,0-.06-.36c-.08-.08-.35.06-.64-.31S11.94,21,11.76,21Z" fill="#212121"/><path d="M8.25,17a5.61,5.61,0,0,0,.92,1.7c.12.13,1,0,1.66.38a2.29,2.29,0,0,1,1.05,1.54c0,.33,0,.18.36.08a.76.76,0,0,1,.81.18,1.22,1.22,0,0,1,.39.78,1.47,1.47,0,0,1-.43,1c-.31.34-.4.49-.4.66s.42.66.42,1.25.09.58.3.58.31.39.31.39.29-.31.5-.31.25.13.25.13a.22.22,0,0,1,.2-.14c.15,0,.21.14.41.14v-.27c-.18,0-.26-.3-.62-.3a.82.82,0,0,1-.73-.55c0-.19.36-.7.67-.7s.52.29.68.29V17.25c-.17,0-.19-.15-.43-.15s-.33.48-.49.48-.23-.25-.39-.25-.28.3-.58.3-.33.19-.49.19a8.53,8.53,0,0,1-2-1.12,3.35,3.35,0,0,0-2.11-.42C7.92,16.28,8.09,16.35,8.25,17Zm.42-.42c0-.08.46-.09.75-.05s.39.36.64.4.53.5.85.73.79.05.9.16,0,.6,0,.74-.51.44-.74.44-.25-.12-.25-.12a.41.41,0,0,0,.1-.06.67.67,0,0,0,.1-.12,1,1,0,0,1-.46,0,.56.56,0,0,1-.42-.24l.17-.1a.88.88,0,0,0,.19-.17,1.62,1.62,0,0,1-.38,0,.94.94,0,0,1-.43-.23,1.06,1.06,0,0,0,.64,0s0-.41-.22-.5a.36.36,0,0,1-.14-.37s-.28.29-.51.29.16-.55.16-.55A.55.55,0,0,1,9.2,17c-.27,0,0-.28,0-.28S8.67,16.65,8.67,16.57Z" fill="#212121"/><g opacity="0.7"><path d="M15,11.58c.09,0,.29,0,.29.11s-.12.2-.12.2v0l-.07,0-.07.06s0,0,0,0Z" fill="#212121"/><path d="M15,11.14s0,.06,0,.08v.09s.09-.18.15-.18,0,.06.09.06,0,0,0,0-.07-.13-.14-.13S15,11.1,15,11.14Z" fill="#212121"/><path d="M15.3,8.77s0,.07.1.07.16-.12.19-.12,0,.1,0,.1.07-.05.13-.05.08.14.12.14a2.67,2.67,0,0,0,.48-.31c.17-.13.23-.25.33-.25a2.6,2.6,0,0,0,.49.05c.38,0,.43-.23.86-.28s.54-.08.69-.31.09-.13-.11,0-.23.08-.28.08a.17.17,0,0,1-.13-.14s.74-1,.92-1.34a1.11,1.11,0,0,0,.18-.72c0-.25,0-.22-.14.12a1.53,1.53,0,0,1-.49.58s.07-.31.07-1.13a2,2,0,0,0-.28-1.31A2.27,2.27,0,0,0,18,3.21c-.12-.1-.23-.21.06.31a2.26,2.26,0,0,1,.22,1.35c-.05,0-.24.11-.56-.16A2.48,2.48,0,0,1,17.09,4c-.13-.24-.28-.61-.05.25s1.05,1.22,1,1.28-.42-.17-.26.07A2.67,2.67,0,0,1,18,6.74c0,.15-.14,0-.34-.11s.2.28.2.62a.85.85,0,0,1-.41.8,2,2,0,0,1-.68.2,2.59,2.59,0,0,1,.09-.6c.05-.2,0-.21-.2.26s-.19.49-.3.49-.22,0-.22-.05a2.14,2.14,0,0,0,.25-.74,3.21,3.21,0,0,0,0-1.13c0-.23,0,.12-.13.79a2,2,0,0,1-.58,1.17C15.51,8.61,15.3,8.73,15.3,8.77Z" fill="#212121"/><path d="M15.58,10.33c0,.05,0,.05.05.05s.32-.15.32-.26,0-.07-.11-.07S15.58,10.24,15.58,10.33Z" fill="#212121"/><path d="M16.08,10.1s.06.06.08.14a.56.56,0,0,1,0,.17l0,0a.34.34,0,0,1,0,.11.17.17,0,0,1,0,.09l-.05,0a.37.37,0,0,0,0,.08.41.41,0,0,0,0,.09h-.05a.5.5,0,0,1,.11.15.23.23,0,0,1,0,.14l-.06,0a.62.62,0,0,0,.07.17l.11.13h-.06a.24.24,0,0,0,0,.1v.1h0a.41.41,0,0,1,0,.16s-.06.06-.06.1a.54.54,0,0,0,0,.11h-.06a.18.18,0,0,1,0,.05.78.78,0,0,0,0,.09l0,0A.56.56,0,0,0,16,12a.35.35,0,0,0,0,.06l-.06,0a1.19,1.19,0,0,0,0,.15.6.6,0,0,0,0,.15l-.08-.07a.45.45,0,0,1-.05.24c-.07.07-.18,0-.22.08s-.07.17-.07.17l0-.07s0,.07-.14.13a.65.65,0,0,0-.21.21v-.11l0-.08a.36.36,0,0,0-.11,0,.6.6,0,0,0-.1.2v-1a.32.32,0,0,0,.22-.09.25.25,0,0,0,0-.09s.07,0,.09,0a.12.12,0,0,0,0-.09.05.05,0,0,0,.06,0s0-.12,0-.12a.12.12,0,0,0,.09,0,.45.45,0,0,0,.2-.21c0-.07,0-.27.08-.39s.08-.11.08-.22-.14-.24-.17-.29a.09.09,0,0,1,0-.12s.12,0,.21-.11S16,10.1,16.08,10.1Z" fill="#212121"/><path d="M17.17,8.54a1.15,1.15,0,0,0-.7.13,2.59,2.59,0,0,1-.68.38S15.73,9,15.63,9s-.14-.09-.19-.09S15.36,9,15.3,9s-.08-.16-.16-.16-.08,0-.14,0V11c.05,0,.12-.1.23-.1s.22.18.22.24-.13.18-.25.18-.14.1-.2.1v.09c.07,0,.09,0,.14,0a.06.06,0,0,1,.06,0,.1.1,0,0,1,.09,0c.07,0,.16.1.16.1s0-.13.11-.13.09,0,.09-.19.14-.36.14-.42,0-.1-.13-.22a.49.49,0,0,1-.14-.32.41.41,0,0,1,.13-.26.25.25,0,0,1,.27-.06c.1,0,.12.09.12,0a.74.74,0,0,1,.35-.52c.22-.13.51-.08.55-.12a2.06,2.06,0,0,0,.3-.57C17.3,8.56,17.35,8.54,17.17,8.54Zm-.24.15s.09.09,0,.09a.18.18,0,0,1-.14-.07s.13.18.05.18-.17-.1-.17-.1,0,.1-.05.13-.07.17-.07.17h.09a.46.46,0,0,0,.13,0,.41.41,0,0,1-.15.07H16.5l.06.06.06,0a.23.23,0,0,1-.15.08.42.42,0,0,1-.15,0l0,0,0,0s0,0-.08,0-.25-.11-.25-.15a1,1,0,0,1,0-.25s.19,0,.3,0,.2-.23.28-.24.12-.12.21-.13.25,0,.25,0S16.93,8.69,16.93,8.69Z" fill="#212121"/><path d="M15,11.58c-.09,0-.29,0-.29.11s.12.2.12.2v0l.07,0,.07.06s0,0,0,0Z" fill="#212121"/><path d="M15,11.14s0,.06,0,.08v.09s-.09-.18-.15-.18,0,.06-.09.06,0,0,0,0,.07-.13.14-.13S15,11.1,15,11.14Z" fill="#212121"/><path d="M14.7,8.77s0,.07-.1.07-.16-.12-.19-.12,0,.1,0,.1-.07-.05-.13-.05-.08.14-.12.14a2.67,2.67,0,0,1-.48-.31c-.17-.13-.23-.25-.33-.25a2.6,2.6,0,0,1-.49.05c-.38,0-.43-.23-.86-.28s-.54-.08-.69-.31-.09-.13.11,0,.23.08.28.08a.17.17,0,0,0,.13-.14s-.74-1-.92-1.34a1.11,1.11,0,0,1-.18-.72c0-.25,0-.22.14.12a1.53,1.53,0,0,0,.49.58s-.07-.31-.07-1.13a2,2,0,0,1,.28-1.31A2.27,2.27,0,0,1,12,3.21c.12-.1.23-.21-.06.31a2.26,2.26,0,0,0-.22,1.35s.24.11.56-.16A2.48,2.48,0,0,0,12.91,4c.13-.24.28-.61.05.25S11.91,5.44,12,5.5s.42-.17.26.07A2.67,2.67,0,0,0,12,6.74c0,.15.14,0,.34-.11s-.2.28-.2.62a.85.85,0,0,0,.41.8,2,2,0,0,0,.68.2,2.59,2.59,0,0,0-.09-.6c-.05-.2,0-.21.2.26s.19.49.3.49.22,0,.22-.05a2.14,2.14,0,0,1-.25-.74,3.21,3.21,0,0,1,0-1.13c0-.23,0,.12.13.79a2,2,0,0,0,.58,1.17C14.49,8.61,14.7,8.73,14.7,8.77Z" fill="#212121"/><path d="M14.42,10.33c0,.05,0,.05-.05.05s-.32-.15-.32-.26,0-.07.11-.07S14.42,10.24,14.42,10.33Z" fill="#212121"/><path d="M13.92,10.1s-.06.06-.08.14a.56.56,0,0,0,0,.17l0,0a.34.34,0,0,0,0,.11.17.17,0,0,0,0,.09l0,0a.37.37,0,0,1,0,.08.41.41,0,0,1,0,.09h0a.5.5,0,0,0-.11.15.23.23,0,0,0,0,.14l.06,0a.62.62,0,0,1-.07.17l-.11.13h.06a.24.24,0,0,1,0,.1v.1h0a.41.41,0,0,0,0,.16s.06.06.06.1a.54.54,0,0,1,0,.11h.06a.18.18,0,0,0,0,.05.78.78,0,0,1,0,.09l0,0A.56.56,0,0,1,14,12a.35.35,0,0,1,0,.06l.06,0a1.19,1.19,0,0,1,0,.15.6.6,0,0,1,0,.15l.08-.07a.45.45,0,0,0,.05.24c.07.07.18,0,.22.08s.07.17.07.17l0-.07s0,.07.14.13a.65.65,0,0,1,.21.21v-.11l0-.08a.36.36,0,0,1,.11,0,.6.6,0,0,1,.1.2v-1a.32.32,0,0,1-.22-.09.25.25,0,0,1,0-.09s-.07,0-.09,0a.12.12,0,0,1,0-.09.05.05,0,0,1-.06,0s0-.12,0-.12a.12.12,0,0,1-.09,0,.45.45,0,0,1-.2-.21c0-.07,0-.27-.08-.39s-.08-.11-.08-.22.14-.24.17-.29a.09.09,0,0,0,0-.12s-.12,0-.21-.11S14,10.1,13.92,10.1Z" fill="#212121"/><path d="M12.76,8.77a2.06,2.06,0,0,0,.3.57s.33,0,.55.12A.74.74,0,0,1,14,10c0,.11,0,.06.12,0a.25.25,0,0,1,.27.06.41.41,0,0,1,.13.26.49.49,0,0,1-.14.32c-.1.12-.13.17-.13.22s.14.22.14.42,0,.19.09.19.11.13.11.13.09-.1.16-.1a.1.1,0,0,1,.09,0,.06.06,0,0,1,.06,0c.05,0,.07,0,.14,0v-.09c-.06,0-.09-.1-.2-.1s-.25-.12-.25-.18.12-.24.22-.24.18.1.23.1V8.86c-.06,0-.06,0-.14,0S14.75,9,14.7,9s-.08-.08-.14-.08-.09.09-.19.09-.11.07-.16.07a2.59,2.59,0,0,1-.68-.38,1.15,1.15,0,0,0-.7-.13C12.65,8.54,12.7,8.56,12.76,8.77Zm.14-.14s.15,0,.25,0,.13.12.21.13.17.17.28.24.26,0,.3,0a1,1,0,0,1,0,.25s-.17.15-.25.15-.08,0-.08,0l0,0,0,0a.42.42,0,0,1-.15,0,.23.23,0,0,1-.15-.08l.06,0,.06-.06h-.12a.41.41,0,0,1-.15-.07.46.46,0,0,0,.13,0h.09s0-.14-.07-.17-.05-.12-.05-.13-.1.1-.17.1.05-.18.05-.18a.18.18,0,0,1-.14.07c-.09,0,0-.09,0-.09S12.9,8.66,12.9,8.63Z" fill="#212121"/></g><rect width="30" height="30" fill="none"/></svg>