<svg xmlns="http://www.w3.org/2000/svg" viewBox="0 0 30 30"><polygon points="8.52 18.95 7.34 18.17 6.47 17.97 5.34 18.42 0.14 21.45 0 21.96 1.64 23.77 3.46 24.92 4.26 25.05 9.18 22.43 9.66 21.67 9.34 20.29 8.52 18.95" fill="#212121"/><polygon points="9.68 19.62 10.05 20.99 12.69 19.22 13.29 18.51 13.43 17.71 13.13 16.81 12.16 16.07 11.08 16.14 10.31 16.57 8 17.95 8.84 18.51 9.68 19.62" fill="#212121"/><path d="M29.53,10.21,28.06,8,26.12,6.66l-2.25-1L22.1,5.19,18.68,5l-3.48.51L13,6.56,11.39,8l-.71,1.71L10.41,12v4l0,.12.49-.45.87-.14.84.24,1,.87.23.94-.17,1-.6.77,3.21,1.31,3.79.47,3.08-.21,2.74-.87,1.34-.9,1.21-1.37.93-1.71L30,13.79l0-1.87Zm-.67,3.88L28,15.57,26.18,17l-2.57,1-3.15.24-2.65-.54-2.57-.94-1-.37-1.33-.93-1.31-1.21L11,12.69l.17-1.41,1.51-1.77L14.4,8.37,17,7.53l2.71-.2,1.94.24.51.06.43.2,1.11.27,1.9.81,1.88,1.37,1.2,1.47L29,13Z" fill="#212121"/><polygon points="18.32 15.96 18.95 15.96 19.42 15.68 19.59 15.1 19.48 14.44 19.2 13.78 19.16 12.01 19.5 10.77 19.77 10.22 19.76 9.56 19.33 9.37 18.17 9.99 17.21 11.33 16.72 12.7 16.66 14.41 17.21 15.35 18.32 15.96" fill="#212121"/><polygon points="20.99 16.13 20.36 16.08 19.92 15.76 19.8 15.17 19.96 14.53 20.3 13.88 20.48 12.13 20.24 10.87 20.01 10.29 20.08 9.64 20.53 9.48 21.63 10.2 22.48 11.61 22.85 13.02 22.77 14.72 22.15 15.61 20.99 16.13" fill="#212121"/><rect width="30" height="30" fill="none"/></svg>