<svg xmlns="http://www.w3.org/2000/svg" viewBox="0 0 30 30"><g opacity="0.5"><rect x="1.5" y="7.2" width="20.58" height="0.97" fill="#212121"/><rect x="4.59" y="9.06" width="20.58" height="0.97" fill="#212121"/></g><g opacity="0.5"><rect x="1.5" y="21.83" width="20.58" height="0.97" fill="#212121"/><rect x="4.59" y="19.97" width="20.58" height="0.97" fill="#212121"/></g><polygon points="5.06 11.7 5.06 15 5.06 18.3 5.4 18.64 5.83 18.64 5.83 15 5.83 11.36 5.4 11.36 5.06 11.7" fill="#212121"/><polygon points="6.68 15.76 6.68 15 6.68 11.57 6.29 11.57 6.29 15 6.29 15.76 6.68 15.76" fill="#212121"/><rect x="6.29" y="16.54" width="0.39" height="1.89" fill="#212121"/><polygon points="7.26 11.33 7.02 11.57 7.02 15 7.02 15.76 21.85 15.76 21.85 16.54 7.02 16.54 7.02 18.43 7.26 18.67 22.93 18.28 22.93 15 22.93 11.72 7.26 11.33" fill="#212121"/><polygon points="28.18 13.35 26.96 12.22 25.57 11.72 23.5 11.72 23.5 15 23.5 16.09 25.87 16.09 26.97 15.76 27.65 15.21 26.9 16.33 25.8 16.93 23.5 17.03 23.5 18.28 25.57 18.28 26.96 17.78 28.18 16.65 28.5 15.97 28.5 15 28.5 14.03 28.18 13.35" fill="#212121"/><rect width="30" height="30" fill="none"/></svg>