<svg xmlns="http://www.w3.org/2000/svg" viewBox="0 0 30 30"><rect x="11.23" y="11.62" width="1.56" height="4.65" transform="translate(25.96 1.93) rotate(90)" fill="#212121"/><polygon points="14.26 12.26 14.26 15.63 16.52 13.94 14.26 12.26" fill="#212121"/><rect x="10.63" y="13.73" width="1.56" height="4.65" transform="translate(-4.65 27.46) rotate(-90)" fill="#212121"/><polygon points="9.16 17.75 9.16 14.37 6.91 16.06 9.16 17.75" fill="#212121"/><polygon points="5.13 8.16 0 16.36 3.68 16.36 1.71 21.84 6.83 13.64 3.15 13.64 5.13 8.16" fill="#212121"/><path d="M27,14.39a2.9,2.9,0,0,0-1.21.27A4.23,4.23,0,1,0,21.75,20H27a2.83,2.83,0,1,0,0-5.65Z" fill="#212121"/><path d="M26,14.09a3.31,3.31,0,0,1,1.41-.32,3.43,3.43,0,0,1,.56.05,1.4,1.4,0,0,0,.17-.68,1.53,1.53,0,0,0-1.53-1.53,1.55,1.55,0,0,0-1.4.9A5,5,0,0,1,26,14.09Z" fill="#212121"/><rect x="28.48" y="12.64" width="1.52" height="0.78" fill="#212121"/><rect x="27.33" y="10.44" width="1.52" height="0.78" transform="translate(3.18 27.74) rotate(-55.26)" fill="#212121"/><rect x="24.61" y="10.42" width="1.52" height="0.78" transform="translate(20.5 -16.33) rotate(56.75)" fill="#212121"/><rect width="30" height="30" fill="none"/></svg>