<!-- Copyright (c) 2023 Jan Stehno -->
<svg xmlns="http://www.w3.org/2000/svg" viewBox="0 0 30 30">
    <polygon
        points="12.21 15.72 11.44 14.58 10.3 13.58 9.1 13.24 8.66 13.78 9.43 14.01 10.57 14.68 11.3 15.65 11.77 16.89 11.71 18.43 12.24 17.93 12.37 16.92 12.21 15.72"
        fill="#212121" />
    <polygon
        points="11.14 16.25 10.5 15.32 9.53 14.55 8.19 14.21 7.46 14.35 6.29 15.02 5.35 15.89 5.05 16.79 6.22 17.26 7.19 18.26 7.69 19.6 7.76 20.6 8.39 20.6 9.4 20.33 10.33 19.66 11.27 18.46 11.3 17.52 11.14 16.25"
        fill="#212121" />
    <polygon
        points="14.01 17.09 13.98 15.92 13.54 14.75 12.51 13.41 10.84 12.07 10.13 12.14 9.46 12.78 10.27 13.08 11.34 13.91 12.37 15.22 12.81 16.42 12.74 17.89 13.28 17.93 13.85 17.73 14.01 17.09"
        fill="#212121" />
    <polygon
        points="6.72 18.53 5.62 17.29 4.45 16.99 3.48 18.16 2.17 19.03 1.07 19.16 0.37 19.6 0 20.13 0.07 21.2 0.4 21.91 0.33 21.3 0.64 20.97 1.14 21.04 1.71 21.54 2.17 22.17 2.37 22.91 2.27 23.51 2.24 23.21 2.01 22.71 1.57 22.01 1.17 21.97 0.7 22.21 0.97 22.78 1.87 23.78 2.61 24.11 3.34 24.05 3.75 23.64 3.75 22.94 3.31 21.67 2.01 20.03 2.58 20.5 3.38 21.37 4.05 22.74 4.35 22.91 5.25 21.97 6.05 21.47 7.19 21.3 7.26 19.6 6.72 18.53"
        fill="#212121" />
    <polygon
        points="22.98 8.8 22.14 7.36 20.87 6.15 19.83 5.89 19.13 6.09 18.66 6.59 19.5 6.62 20.67 6.96 21.91 8.13 22.41 9.23 22.44 10.54 21.87 11.54 22.74 11.17 23.11 10.03 22.98 8.8"
        fill="#212121" />
    <polygon
        points="14.81 14.01 13.88 12.68 12.57 11.61 11.81 11.51 11.44 11.87 12.27 12.54 13.34 13.61 14.18 14.85 14.48 16.66 15.05 16.02 15.02 15.05 14.81 14.01"
        fill="#212121" />
    <polygon
        points="22.04 9.06 21.44 7.96 20.47 7.16 19.33 6.92 18.49 7.02 17.93 7.66 16.52 9 13.11 11.51 13.74 11.94 14.55 12.68 15.15 13.71 15.45 14.98 17.16 13.68 19.16 12.51 21.27 11.57 22.11 10.2 22.04 9.06"
        fill="#212121" />
    <path
        d="M25.72,19.7a4,4,0,0,1,.22-1.34,5.86,5.86,0,0,1,.8-1.46,6.91,6.91,0,0,0,.93-1.67,4.3,4.3,0,0,0,.25-1.48,1.5,1.5,0,0,0-.27-1,.93.93,0,0,0-.77-.31,1,1,0,0,0-.78.31,1.5,1.5,0,0,0-.26,1v1.44h-2V13.88a3.57,3.57,0,0,1,.77-2.47,2.93,2.93,0,0,1,2.27-.86,3,3,0,0,1,2.3.86A3.52,3.52,0,0,1,30,13.88a4.55,4.55,0,0,1-.31,1.68,8,8,0,0,1-1.07,1.81,6.6,6.6,0,0,0-.84,1.35,2.58,2.58,0,0,0-.24,1.05v.72H25.72ZM25.63,22h2v2h-2Z"
        fill="#212121" />
    <rect width="30" height="30" fill="none" />
</svg>