<!-- Copyright (c) 2023 Jan Stehno -->
<svg xmlns="http://www.w3.org/2000/svg" viewBox="0 0 30 30">
    <path
        d="M18.26,14.19a2.9,2.9,0,0,0-1.21.27A4.21,4.21,0,1,0,13,19.82h5.26a2.82,2.82,0,1,0,0-5.63Z"
        fill="#212121" />
    <path
        d="M17.26,13.9a3.14,3.14,0,0,1,1.41-.32,3.53,3.53,0,0,1,.56.05,1.59,1.59,0,0,0,.16-.69,1.52,1.52,0,0,0-2.91-.63A5.35,5.35,0,0,1,17.26,13.9Z"
        fill="#212121" />
    <rect x="19.7" y="12.44" width="1.52" height="0.78" fill="#212121" />
    <rect x="18.55" y="10.26" width="1.52" height="0.78"
        transform="matrix(0.57, -0.82, 0.82, 0.57, -0.44, 20.45)" fill="#212121" />
    <rect x="15.85" y="10.24" width="1.52" height="0.78"
        transform="translate(16.38 -9.09) rotate(56.75)" fill="#212121" />
    <text transform="translate(13.83 4.65)" font-size="5.47" fill="#212121"
        font-family="BebasNeue-Regular, Bebas Neue">N
    </text>
    <text transform="translate(1 16.78)" font-size="5.47" fill="#212121"
        font-family="BebasNeue-Regular, Bebas Neue">W
    </text>
    <text transform="translate(27.02 16.78)" font-size="5.47" fill="#212121"
        font-family="BebasNeue-Regular, Bebas Neue">E
    </text>
    <text transform="translate(13.98 28.91)" font-size="5.47" fill="#212121"
        font-family="BebasNeue-Regular, Bebas Neue">S
    </text>
    <rect width="30" height="30" fill="none" />
</svg>