<!-- Copyright (c) 2023 Jan Stehno -->
<svg xmlns="http://www.w3.org/2000/svg" viewBox="0 0 30 30">
    <polygon
        points="2.73 9.64 5.71 6.5 8.11 4.86 10.11 4.3 11.8 4.33 12.61 4.66 13.04 5.19 13.17 6.33 13.27 8.65 14.38 10.88 16.02 11.99 17.89 12.24 19.59 12.06 20.37 11.18 20.62 10.17 20.6 9.11 19.79 10.52 18.73 11.05 17.44 11.13 15.77 10.67 14.66 9.08 14.13 6.93 14.48 4.71 15.95 2.84 18.45 1.7 21.28 1.5 23.25 1.96 24.92 3.24 25.9 5.16 26.23 7.06 26.13 9.38 25.52 11.41 24.19 13.25 21.71 15.04 19.46 15.8 16.91 16.06 13.82 15.32 12.06 13.86 11.1 11.76 10.77 9.61 10.67 8.3 9.98 7.44 8.72 7.11 6.62 7.72 2.73 9.64"
        fill="#212121" />
    <polygon
        points="6.32 9.18 7.53 9.16 8.59 9.38 9.93 10.72 9.35 9.38 8.37 8.75 7.08 8.6 6.5 8.75 6.32 9.18"
        fill="#212121" />
    <polygon
        points="24.07 14.4 25.45 13.48 26.71 11.79 27.22 10.32 27.27 8.37 26.71 6.48 26.51 10.17 25.52 12.49 24.16 13.83 22.54 14.94 24.07 14.4"
        fill="#212121" />
    <rect x="14.08" y="16.66" width="3.01" height="8.99"
        transform="translate(36.74 5.57) rotate(90)" fill="#212121" />
    <polygon points="19.92 17.9 19.92 24.41 24.28 21.16 19.92 17.9" fill="#212121" />
    <rect x="12.91" y="20.75" width="3.01" height="8.99"
        transform="translate(-10.83 39.65) rotate(-90)" fill="#212121" />
    <polygon points="10.08 28.5 10.08 21.98 5.72 25.24 10.08 28.5" fill="#212121" />
    <rect width="30" height="30" fill="none" />
</svg>