<svg xmlns="http://www.w3.org/2000/svg" viewBox="0 0 30 30"><ellipse cx="24.63" cy="13.93" rx="5.37" ry="1.24" fill="#212121"/><polygon points="0 22.27 8.67 24.2 10.27 18.8 13.38 12.69 14.86 10.25 16.34 8.89 18.02 7.66 19.49 7.02 21.69 6.41 24.88 6.21 21.59 5.8 17.82 6.06 12.26 7.58 7.83 10.01 4.51 13.33 1.96 17.24 0.72 19.76 0 22.27" fill="#212121"/><polygon points="25.73 8.77 25.73 7.72 25.06 6.62 22.21 6.74 20.65 7.25 21.41 7.54 22.04 8.07 22.04 8.77 20.86 8.77 23.88 11.79 26.9 8.77 25.73 8.77" fill="#212121"/><rect width="30" height="30" fill="none"/></svg>