<svg xmlns="http://www.w3.org/2000/svg" viewBox="0 0 30 30"><path d="M25.21,16.82A5.16,5.16,0,0,1,23,16v-.81l.2-.12c.2-.11.26-.26.26-.65s0-.41-.15-.54a.64.64,0,0,0-.4-.11l-.05-.4A18,18,0,0,0,26,13.15c1.44-.28,1.14-1.18,1.14-2.23a2.93,2.93,0,0,0-2.84-2.75c-1.85,0-2.2.95-2.2.95a5.86,5.86,0,0,0,0-1.08A2.73,2.73,0,0,0,19.29,5.4,2.58,2.58,0,0,0,16.6,7.75a5.45,5.45,0,0,1-1.6.17,5.45,5.45,0,0,1-1.6-.17A2.58,2.58,0,0,0,10.71,5.4,2.73,2.73,0,0,0,7.86,8a5.86,5.86,0,0,0,0,1.08s-.35-.95-2.2-.95a2.93,2.93,0,0,0-2.84,2.75c0,1.05-.3,1.95,1.14,2.23a18,18,0,0,0,3.18.25l0,.4a.64.64,0,0,0-.4.11c-.16.13-.15.16-.15.54s.06.54.26.65l.2.12V16a5.16,5.16,0,0,1-2.21.79C3,17.21,2.5,17.2,2.5,17.91s.39.93,2.38.93,2,.18,2.27.36a1,1,0,0,1,.33.31s-.41.41-1.17,1.07-1,.66-1,1.34.25.77.78.77a5,5,0,0,0,2-.6,5,5,0,0,1,2.42-.51,5.18,5.18,0,0,1,2.8.62c.75.51.65.66.8,1.26s.14,1.14.92,1.14.78-.53.92-1.14.05-.75.8-1.26a5.18,5.18,0,0,1,2.8-.62,5,5,0,0,1,2.42.51,5,5,0,0,0,2,.6c.53,0,.78-.09.78-.77s-.23-.68-1-1.34-1.17-1.07-1.17-1.07a1,1,0,0,1,.33-.31c.26-.18.27-.36,2.27-.36s2.38-.22,2.38-.93S27,17.21,25.21,16.82ZM15,10.6c1.19,0,2.26.38,2.26.79s-1.11.85-2.26.85-2.26-.43-2.26-.85S13.81,10.6,15,10.6Zm9.38,6.78a4.42,4.42,0,0,0-2.19.2c-.5.18-1,.93-.41,2s2.23,1.74,2.23,2-1.58-.65-2.32-1.07a7.24,7.24,0,0,0-3-.88,3.2,3.2,0,0,0-2.24.78,3.11,3.11,0,0,0-1,2.25c-.08.61-.16.77-.41.77s-.33-.16-.41-.77a3.11,3.11,0,0,0-1-2.25,3.2,3.2,0,0,0-2.24-.78,7.24,7.24,0,0,0-3,.88C7.57,20.88,6,21.79,6,21.53s1.66-1,2.23-2,.09-1.77-.41-2a4.42,4.42,0,0,0-2.19-.2c-1,.12-3.1.37-2.12.12s2.67-.41,3.2-.65a8.86,8.86,0,0,0,.82-.44,3.88,3.88,0,0,0,2.22.46c1.63,0,2.22-.12,2.75-.54A4.89,4.89,0,0,1,15,15.47a4.89,4.89,0,0,1,2.51.86c.53.42,1.12.54,2.75.54a3.88,3.88,0,0,0,2.22-.46,8.86,8.86,0,0,0,.82.44c.53.24,2.21.4,3.2.65S25.42,17.5,24.38,17.38Z" transform="translate(0)" fill="#212121"/><path d="M15,15.74a4.42,4.42,0,0,0-2.12.61A3.79,3.79,0,0,1,11.5,17v.57L13,18.4v1.33a3.63,3.63,0,0,1,.7.41,2.44,2.44,0,0,1,.62.67h1.42a2.44,2.44,0,0,1,.62-.67,3.63,3.63,0,0,1,.7-.41V18.4l1.47-.79V17a3.79,3.79,0,0,1-1.38-.69A4.42,4.42,0,0,0,15,15.74Z" transform="translate(0)" fill="#212121"/><rect width="30" height="30" fill="none"/></svg>