<!-- Copyright (c) 2022 Jan Stehno -->
<svg xmlns="http://www.w3.org/2000/svg" viewBox="0 0 300 300"><title>antlerrattler</title><g id="Layer_23" data-name="Layer 23"><g id="antlerrattler"><path d="M252.05,168.22c-17.93-3.91-22.06-7.91-22.06-7.91v-8.14l2-1.15c2-1.15,2.66-2.61,2.66-6.48s.1-4.17-1.57-5.48a6.08,6.08,0,0,0-4-1l-.47-4s17.34.31,31.75-2.51,11.38-11.8,11.38-22.24-9.92-27.57-28.4-27.57-21.93,9.5-21.93,9.5a66.93,66.93,0,0,0,0-10.75c-.52-4.5-3.34-26.43-28.51-26.43S166,77.53,166,77.53s-4.86,1.64-16,1.64-16-1.64-16-1.64S132.25,54,107.08,54s-28,21.93-28.51,26.43a66.93,66.93,0,0,0,0,10.75s-3.44-9.5-21.93-9.5-28.4,17.12-28.4,27.57-3,19.42,11.38,22.24S71.37,134,71.37,134l-.47,4a6.08,6.08,0,0,0-4,1c-1.67,1.31-1.57,1.62-1.57,5.48S66,149.87,68,151l2,1.15v8.14s-4.13,4-22.06,7.91S25,172,25,179.11s3.86,9.29,23.81,9.29,20,1.78,22.66,3.55a10.71,10.71,0,0,1,3.34,3.14s-4.07,4.15-11.75,10.73-9.94,6.58-9.94,13.39,2.5,7.67,7.75,7.67,8.54-1.4,19.74-6,15.27-5.09,24.2-5.09,20.6,1,28,6.19,6.5,6.66,7.91,12.69S142.25,246,150,246s7.83-5.33,9.24-11.36.47-7.52,7.91-12.69,19.11-6.19,28-6.19,13,.47,24.2,5.09,14.49,6,19.74,6,7.75-.86,7.75-7.67-2.27-6.81-9.94-13.39-11.75-10.73-11.75-10.73a10.71,10.71,0,0,1,3.34-3.14c2.61-1.77,2.71-3.55,22.66-3.55S275,186.24,275,179.11,270,172.14,252.05,168.22ZM150,106c11.9,0,22.56,3.76,22.56,7.94S161.49,122.4,150,122.4s-22.56-4.28-22.56-8.45S138.1,106,150,106Zm93.75,67.77c-10.49-1.25-16.84.24-21.85,2s-9.71,9.24-4.07,19.5,22.24,17.39,22.24,20-15.74-6.5-23.18-10.65-20.29-8.85-30.24-8.85-14.17,2-22.32,7.83S154.91,220,154.12,226.1s-1.67,7.73-4.12,7.73-3.34-1.62-4.12-7.73-2.07-16.68-10.21-22.48-12.38-7.83-22.32-7.83-22.8,4.7-30.24,8.85-23.18,13.24-23.18,10.65,16.61-9.71,22.24-20,.94-17.7-4.07-19.5-11.36-3.29-21.85-2S25.16,177.54,35,175s26.7-4.15,32-6.58a68.91,68.91,0,0,0,8.22-4.39s6,4.62,22.25,4.62,22.16-1.17,27.41-5.4,17.1-8.62,25.14-8.62,19.89,4.39,25.14,8.62,11.12,5.4,27.41,5.4,22.25-4.62,22.25-4.62a68.91,68.91,0,0,0,8.22,4.39c5.25,2.43,22.09,4.07,32,6.58S254.24,175,243.75,173.78Z" transform="translate(0)" fill="#212121"/><path d="M150,157.44c-6.47,0-16.68,2.76-21.22,6.08-7.92,5.8-13.76,6.92-13.76,6.92v5.69L129.74,184v13.35a38,38,0,0,1,7,4.07,23,23,0,0,1,6.18,6.75h14.2a23,23,0,0,1,6.18-6.75,38,38,0,0,1,7-4.07V184L185,176.13v-5.69s-5.84-1.12-13.76-6.92C166.68,160.2,156.47,157.44,150,157.44Z" transform="translate(0)" fill="#212121"/></g></g><g id="frame"><rect width="300" height="300" fill="none"/></g></svg>