<svg xmlns="http://www.w3.org/2000/svg" viewBox="0 0 30 30"><path d="M10.39,29.9c.44-.23.44-.71.9-2A38.49,38.49,0,0,1,15.51,21a35.5,35.5,0,0,1,4-4.83h.31l.23-.23v-.26l.61-.62h.39l.19-.19v-.23l5.48-5.48,1.07-.37-.21-.49,1.06-1.06C29.42,6.5,30,6.14,30,5.55s-.54-1.34-2.38-3.17S25,0,24.45,0s-.95.58-1.68,1.31L21.71,2.37l-.49-.21-.37,1.07L15.37,8.71h-.23L15,8.9v.39l-.62.61h-.26l-.23.23v.31A35.5,35.5,0,0,1,9,14.49a38.49,38.49,0,0,1-6.94,4.22c-1.26.46-1.74.46-2,.9s-.5,1.12,4.34,5.95S10,30.13,10.39,29.9ZM8.67,20.15A7.3,7.3,0,0,1,9.57,19s-.4-.27-.21-1.07.6-1.28.65-1.12-.31.43-.34,1.05.18.81.51.49.25-1.82.42-2.83a2.72,2.72,0,0,1,.76-1.79,4.61,4.61,0,0,1,2.42-1.37c.81,0,.87.17.13.26a4.17,4.17,0,0,0-2.17,1.25c-.58.58-.78,1.12-.62,1.28s.81-.34,1.23-.61-.08.29-.76.79A1.32,1.32,0,0,0,11,16.84a4.55,4.55,0,0,1-.08,1.44,1.57,1.57,0,0,1-.41.6.73.73,0,0,1,.65.65,1.57,1.57,0,0,1,.6-.41A4.55,4.55,0,0,1,13.16,19a1.32,1.32,0,0,0,1.48-.63c.5-.68,1.07-1.19.79-.76s-.77,1.08-.61,1.23.7,0,1.28-.62a4.17,4.17,0,0,0,1.25-2.17c.09-.74.24-.68.26.13a4.61,4.61,0,0,1-1.37,2.42,2.72,2.72,0,0,1-1.79.76c-1,.17-2.5.1-2.83.42s-.12.54.49.51.89-.39,1.05-.34-.33.46-1.12.65S11,20.43,11,20.43a7.3,7.3,0,0,1-1.12.9c-.59.35-1.15.54-1.43.25S8.32,20.74,8.67,20.15Z" fill="#212121"/><path d="M9.83,21a.61.61,0,0,0,.21-.15.26.26,0,0,0-.2,0,.81.81,0,0,0-.2.13A.26.26,0,0,0,9.83,21Z" fill="#212121"/><path d="M9.41,20.59c.19.2.48.09.79-.1a1.71,1.71,0,0,1,.59-.24L10.72,20c0-.16.1-.34-.12-.56s-.4-.08-.56-.12l-.29-.07a1.71,1.71,0,0,1-.24.59C9.32,20.11,9.21,20.4,9.41,20.59Z" fill="#212121"/><path d="M9.13,20a.61.61,0,0,0-.15.21.26.26,0,0,0,0,.19.81.81,0,0,0,.13-.2A.26.26,0,0,0,9.13,20Z" fill="#212121"/><rect width="30" height="30" fill="none"/></svg>