<!-- Copyright (c) 2023 Jan Stehno -->
<svg xmlns="http://www.w3.org/2000/svg" viewBox="0 0 300 300">
    <title>axisdeerscreamercaller</title>
    <g id="Layer_23" data-name="Layer 23">
        <g id="axisdeerscreamcaller">
            <path
                d="M103.94,299c4.34-2.3,4.34-7.1,9-19.64s20-38.41,42.21-69.46,40.53-48.28,40.53-48.28h3.05l2.28-2.28v-2.62l6.15-6.15H211l1.95-1.95v-2.33l54.78-54.78,10.7-3.69-2.12-4.88L286.9,72.3C294.19,65,300.18,61.42,300,55.52s-5.44-13.37-23.8-31.72S250.38.19,244.48,0,235,5.81,227.7,13.1L217.09,23.7l-4.88-2.12-3.69,10.7L153.74,87.06h-2.33l-1.95,2v3.88L143.31,99h-2.62l-2.28,2.28v3.05S121.19,122.7,90.13,144.9s-56.92,37.6-69.46,42.21S3.33,191.72,1,196.06s-5,11.25,43.34,59.57S99.61,301.28,103.94,299Zm-17.2-97.43a65.26,65.26,0,0,1,9-11.2s-4-2.77-2.15-10.72,6-12.8,6.5-11.2-3,4.28-3.39,10.44,1.8,8.16,5,4.91,2.56-18.19,4.22-28.29,3.39-13.62,7.61-17.84,16-13.83,24.21-13.7,8.71,1.66,1.31,2.56-15.91,6.64-21.72,12.45-7.81,11.28-6.22,12.87,8.09-3.39,12.38-6.16-.83,2.91-7.68,8-6.71,8.37-6.22,14.81a46.91,46.91,0,0,1-.83,14.38c-.76,3-4.08,6-4.08,6a9.65,9.65,0,0,1,4.4,2.05,9.65,9.65,0,0,1,2.05,4.4s3-3.32,6-4.08a46.91,46.91,0,0,1,14.38-.83c6.44.49,9.76.63,14.81-6.22s10.72-12,8-7.68-7.75,10.79-6.16,12.38,7.06-.41,12.87-6.22S172.6,168.3,173.5,160.9s2.42-6.85,2.56,1.31-9.48,20-13.7,24.21-7.74,6-17.84,7.61-25,1-28.29,4.22-1.24,5.39,4.91,5.05,8.85-3.88,10.44-3.39-3.25,4.63-11.2,6.5-10.72-2.15-10.72-2.15a65.26,65.26,0,0,1-11.2,9c-5.88,3.52-11.42,5.46-14.3,2.58S83.22,207.42,86.74,201.54Z"
                transform="translate(0)" fill="#212121" />
            <path
                d="M98.33,210.23a6.63,6.63,0,0,0,2.1-1.5,2.58,2.58,0,0,0-2-.16,6.63,6.63,0,0,0-2,1.35A2.46,2.46,0,0,0,98.33,210.23Z"
                transform="translate(0)" fill="#212121" />
            <path
                d="M94.05,206c1.93,1.92,4.82.87,8-1.1a15.93,15.93,0,0,1,5.84-2.31s-.27-1.32-.69-2.91,1.07-3.42-1.15-5.65-4.06-.74-5.65-1.15-2.91-.69-2.91-.69A15.93,15.93,0,0,1,95.15,198C93.18,201.13,92.13,204,94.05,206Z"
                transform="translate(0)" fill="#212121" />
            <path
                d="M91.27,199.57a6.63,6.63,0,0,0-1.5,2.1,2.46,2.46,0,0,0,.31,1.9,6.63,6.63,0,0,0,1.35-2A2.58,2.58,0,0,0,91.27,199.57Z"
                transform="translate(0)" fill="#212121" />
        </g>
    </g>
    <g id="frame">
        <rect width="300" height="300" fill="none" />
    </g>
</svg>