<!-- Copyright (c) 2022 - 2023 Jan Stehno -->
<svg xmlns="http://www.w3.org/2000/svg" viewBox="0 0 300 300"><title>beacondeluxeeurasianwigeoncaller</title><g id="Layer_23" data-name="Layer 23"><g id="beacondeluxeeurasianwigeoncaller"><path d="M229.63,0c-7.44,0-18.08,14.4-38.76,35.09s-37.32,35-38.67,41.18,3,12.08-4.25,19.33S122,106.43,109.48,119s-40.12,58.1-47.18,68.83-28,29-28,31.32a40.55,40.55,0,0,0,1,6.57s-2.71-2.32-4.16-2.42S24.31,227,20.35,230a6,6,0,0,0-2.13,7.16,26.82,26.82,0,0,0-3.48-3.48c-1.35-1-11.88,1.64-14.2,6.86S3,254.32,24.31,275.69s30,26.09,35.19,23.77,7.83-12.85,6.86-14.2a26.82,26.82,0,0,0-3.48-3.48A6,6,0,0,0,70,279.65c3-4,6.76-9.28,6.67-10.73s-2.42-4.16-2.42-4.16a40.55,40.55,0,0,0,6.57,1c2.32,0,20.59-21,31.32-28s56.26-34.61,68.83-47.18,16.14-31.22,23.39-38.47,13.15-2.9,19.33-4.25,20.49-18,41.18-38.67S300,77.81,300,70.37s-4.83-15.46-29.87-40.5S237.07,0,229.63,0ZM36.78,263.22l-15-19.63,17.11,17.5,17.5,17.11Zm34.51-.87-19-14.6-14.6-19,17,16.62Z" transform="translate(0 0)" fill="#212121"/></g></g><g id="frame"><rect width="300" height="300" fill="none"/></g></svg>