<!-- Copyright (c) 2022 - 2023 Jan Stehno -->
<svg xmlns="http://www.w3.org/2000/svg" viewBox="0 0 300 300"><title>beacondeluxebeangoosecaller</title><g id="Layer_23" data-name="Layer 23"><g id="beacondeluxebeangoosecaller"><path d="M246.86,2a49.79,49.79,0,0,0-4.75,5.73l1,4.1-2,2-3.66.51s-9.27,14.21-30,35-68.74,63.51-68.74,63.51v2.51l-2.22,2.22H133.6l-7.76,7.75V128l-2.59,2.59h-3.5L112.34,138v4.43l-6,6-1.63-1.63h-2.92l-7.85,7.85v2.65l-3.27,3.27-2.56-2.56L76.86,169.3v12L80,184.48l-61.7,52.34.35,3.18-2.64,2.12-2.47-.71S1.31,250,.16,254.83,4,266,19,281,40.32,301,45.17,299.84s13.42-13.42,13.42-13.42L57.88,284,60,281.31l3.18.35L115.52,220l3.18,3.18h12l11.21-11.21-2.56-2.56,3.27-3.27h2.65l7.85-7.85v-2.92l-1.63-1.63,6-6H162l7.41-7.41v-3.5l2.59-2.59h2.7l7.75-7.76v-2.85l2.22-2.22h2.51s42.76-48,63.51-68.74,35-30,35-30l.51-3.66,2-2,4.1,1A49.79,49.79,0,0,0,298,53.14c2.51-2.52,7.15-7.06-18.45-32.66S249.38-.48,246.86,2ZM56.64,280.34l-1,1a1.15,1.15,0,0,1-1.53.1L34.19,265.81,18.57,245.88a1.15,1.15,0,0,1,.1-1.53l1-1a1.32,1.32,0,0,1,1.95.09l15.93,19,19,15.93A1.32,1.32,0,0,1,56.64,280.34Zm81.91-77.12a1.06,1.06,0,0,1,0,1.49L137,206.27a1,1,0,0,1-1.48,0l-20.88-20.89L93.73,164.5a1,1,0,0,1,0-1.48l1.56-1.57a1.06,1.06,0,0,1,1.49,0l20.88,20.89ZM154,183.43a1,1,0,0,1,0,1.48L148.9,190a1,1,0,0,1-1.48,0l-18.7-18.7L110,152.58a1,1,0,0,1,0-1.48l5.07-5.07a1,1,0,0,1,1.48,0l18.7,18.7Zm14.83-13.11a1,1,0,0,1,0,1.48l-1.63,1.63a1,1,0,0,1-1.48,0l-19.56-19.56-19.56-19.56a1,1,0,0,1,0-1.48l1.63-1.63a1,1,0,0,1,1.48,0l19.56,19.56ZM182,157.41a1.06,1.06,0,0,1,0,1.49l-2,2a1.06,1.06,0,0,1-1.49,0l-19.69-19.69-19.69-19.69a1.06,1.06,0,0,1,0-1.49l2-2a1.06,1.06,0,0,1,1.49,0l19.69,19.69ZM286.52,51.21a1,1,0,0,1,0,1.42L285,54.1a1,1,0,0,1-1.54-.06L266.15,33.85,246,16.54A1,1,0,0,1,245.9,15l1.47-1.47a1,1,0,0,1,1.42,0l20.36,17.37Z" transform="translate(0 0)" fill="#212121"/></g></g><g id="frame"><rect width="300" height="300" fill="none"/></g></svg>