<!-- Copyright (c) 2023 Jan Stehno -->
<svg xmlns="http://www.w3.org/2000/svg" viewBox="0 0 300 300">
    <title>beacondeluxegreylaggoosecaller</title>
    <g id="Layer_23" data-name="Layer 23">
        <g id="beacondeluxegreylaggoosecaller">
            <path
                d="M247.77,1.36c-3.64,3.64-9.53,14.07-21.54,26.08s-87.39,71.14-91.15,74.9,3.21,10,0,13.16-6.1-1.28-9.63-1.28-6,3.72-13.56,11.24-10,8.48-10,12.33,4.37,6,4.37,6l-7.41,7.41v3L95.06,158l-2.14-2.14L82.47,166.31v3.86s-47.44,40-48.56,42.47.09,6.26.09,6.26l-4.45,3.76s-2.83-2.56-4.8-2.57S0,239,0,241.59s3.51,12.93,24.49,33.92S55.84,300,58.41,300s21.5-22.78,21.5-24.75-2.57-4.8-2.57-4.8L81.1,266s3.77,1.2,6.26.09,42.47-48.56,42.47-48.56h3.86l10.45-10.45L142,204.94l3.76-3.77h3l7.41-7.41s2.18,4.37,6,4.37,4.82-2.51,12.33-10,11.24-10,11.24-13.56-4.49-6.42-1.28-9.63,9.41,3.76,13.16,0,62.89-79.13,74.9-91.15S295,55.87,298.64,52.23s.85-11.81-19.1-31.77S251.41-2.28,247.77,1.36ZM75.43,265.89c-2.89,2.89-6,.52-13.87-7.32L51.49,248.51,41.43,238.44c-7.84-7.83-10.21-11-7.32-13.87s5.26,2.31,11.75,8.8,10.32,10.45,10.32,10.45,4,3.83,10.45,10.32S78.32,263,75.43,265.89ZM174.88,150c6.51,6.51,9.08,9.08,6.51,11.65s-5.91-.77-11.9-6.77l-12.16-12.16-12.16-12.16c-6-6-9.34-9.33-6.77-11.9s5.14,0,11.65,6.51l12.42,12.42Z"
                transform="translate(0)" fill="#212121" />
        </g>
    </g>
    <g id="frame">
        <rect width="300" height="300" fill="none" />
    </g>
</svg>