<svg xmlns="http://www.w3.org/2000/svg" viewBox="0 0 30 30"><path d="M24.34.19A11.54,11.54,0,0,0,23,2.49c-.9,1.65-4.09,4.67-7.2,6.85s-3.89,2.51-4.16,3.23a1.23,1.23,0,0,0,.26,1.25l-.3.31L11.47,14a.71.71,0,0,0-1,0L9.31,15.16a.71.71,0,0,0,0,1l.33.32s-2.17,2.2-4.83,4.58S.25,24.55,0,25,.58,26.64,2,28,4.62,30.18,5,30s1.51-2.11,3.89-4.77,4.58-4.83,4.58-4.83l.32.33a.71.71,0,0,0,1,0L16,19.54a.71.71,0,0,0,0-1l-.12-.12.31-.3a1.23,1.23,0,0,0,1.25.26c.72-.27,1.05-1.05,3.23-4.16s5.2-6.3,6.85-7.2a11.54,11.54,0,0,0,2.3-1.35c.27-.26.64-.87-2-3.49S24.6-.08,24.34.19Z" transform="translate(0)" fill="#212121"/><rect width="30" height="30" fill="none"/></svg>