<svg xmlns="http://www.w3.org/2000/svg" viewBox="0 0 30 30"><path d="M23,0c-.74,0-1.8,1.44-3.87,3.51S15.36,7,15.22,7.63s.3,1.21-.43,1.93S12.2,10.64,11,11.9s-4,5.81-4.72,6.88-2.8,2.9-2.8,3.13a4.24,4.24,0,0,0,.09.66,1.18,1.18,0,0,0-.41-.24A3.76,3.76,0,0,0,2,23a.6.6,0,0,0-.22.71,2.7,2.7,0,0,0-.35-.35,1.71,1.71,0,0,0-1.42.69c-.23.52.25,1.38,2.38,3.52S5.43,30.18,6,30a1.71,1.71,0,0,0,.69-1.42,2.7,2.7,0,0,0-.35-.35A.6.6,0,0,0,7,28a3.76,3.76,0,0,0,.67-1.07,1.18,1.18,0,0,0-.24-.41,4.24,4.24,0,0,0,.66.09c.23,0,2.06-2.09,3.13-2.8s5.62-3.46,6.88-4.72,1.61-3.12,2.34-3.84,1.31-.29,1.93-.43,2.05-1.8,4.12-3.87S30,7.78,30,7s-.48-1.55-3-4S23.71,0,23,0ZM3.68,26.32l-1.5-2,1.71,1.75,1.75,1.71Zm3.45-.09-1.9-1.46-1.46-1.9,1.7,1.66Z" transform="translate(0 0)" fill="#212121"/><rect width="30" height="30" fill="none"/></svg>