<svg xmlns="http://www.w3.org/2000/svg" viewBox="0 0 30 30"><path d="M24.69.2a4,4,0,0,0-.48.58l.1.41-.2.2-.37.05a24.85,24.85,0,0,1-3,3.49c-2.07,2.08-6.87,6.36-6.87,6.36v.25l-.22.22h-.29l-.78.77v.27l-.26.26H12l-.74.74v.45l-.6.6-.16-.16h-.29l-.79.78v.27l-.33.32-.25-.25L7.69,16.93v1.2l.31.32L1.83,23.68l0,.32-.27.21-.24-.07S.13,25,0,25.48.4,26.6,1.9,28.1,4,30.1,4.52,30s1.34-1.34,1.34-1.34l-.07-.24L6,28.13l.32,0L11.55,22l.32.31h1.2l1.12-1.12-.25-.25.32-.33h.27l.78-.79v-.29l-.16-.16.6-.6h.45l.74-.74v-.35l.26-.26h.27l.77-.78v-.29l.22-.22h.25s4.28-4.8,6.36-6.87a24.85,24.85,0,0,1,3.49-3l.05-.37.2-.2.41.1a4,4,0,0,0,.58-.48c.25-.25.71-.7-1.85-3.26S24.94,0,24.69.2ZM5.66,28l-.1.1a.11.11,0,0,1-.15,0l-2-1.56-1.56-2a.11.11,0,0,1,0-.15l.1-.1a.13.13,0,0,1,.19,0l1.59,1.91,1.91,1.59A.13.13,0,0,1,5.66,28Zm8.19-7.71a.09.09,0,0,1,0,.15l-.15.16a.11.11,0,0,1-.15,0l-2.09-2.09L9.37,16.45a.11.11,0,0,1,0-.15l.16-.15a.09.09,0,0,1,.15,0l2.09,2.08Zm1.55-2a.11.11,0,0,1,0,.15l-.51.51a.11.11,0,0,1-.15,0l-1.87-1.87L11,15.26a.11.11,0,0,1,0-.15l.51-.51a.11.11,0,0,1,.15,0l1.87,1.87ZM16.88,17a.11.11,0,0,1,0,.15l-.16.16a.11.11,0,0,1-.15,0l-2-1.95-1.95-2a.11.11,0,0,1,0-.15l.16-.16a.11.11,0,0,1,.15,0l1.95,2Zm1.32-1.29a.11.11,0,0,1,0,.15l-.21.2a.1.1,0,0,1-.14,0l-2-2-2-2a.1.1,0,0,1,0-.14l.2-.21a.11.11,0,0,1,.15,0l2,2ZM28.65,5.12a.1.1,0,0,1,0,.14l-.15.15a.1.1,0,0,1-.15,0l-1.74-2-2-1.74a.1.1,0,0,1,0-.15l.15-.15a.1.1,0,0,1,.14,0l2,1.74Z" transform="translate(0 0)" fill="#212121"/><rect width="30" height="30" fill="none"/></svg>