<svg xmlns="http://www.w3.org/2000/svg" viewBox="0 0 30 30"><path d="M24.78.14c-.37.36-1,1.4-2.16,2.6s-8.74,7.12-9.11,7.49.32,1,0,1.32-.61-.13-1-.13-.6.37-1.35,1.13-1,.84-1,1.23.43.6.43.6l-.74.74v.3l-.37.38-.22-.21-1,1V17S3.5,21,3.39,21.26a1.09,1.09,0,0,0,0,.63L3,22.27S2.67,22,2.48,22A11,11,0,0,0,0,24.16c0,.26.35,1.29,2.45,3.39S5.58,30,5.84,30A11,11,0,0,0,8,27.52c0-.19-.26-.47-.26-.47l.38-.45a1.09,1.09,0,0,0,.63,0C9,26.5,13,21.75,13,21.75h.39l1-1-.21-.22.38-.37h.3l.74-.74s.22.43.6.43.48-.25,1.23-1,1.13-1,1.13-1.35-.45-.65-.13-1,.94.38,1.32,0,6.28-7.91,7.49-9.11,2.24-1.79,2.6-2.16S30,4,28,2.05,25.14-.23,24.78.14ZM7.54,26.59c-.29.29-.6.05-1.38-.73l-1-1-1-1c-.78-.78-1-1.09-.73-1.38s.53.23,1.18.88l1,1,1,1C7.31,26.06,7.83,26.3,7.54,26.59ZM17.49,15c.65.65.91.9.65,1.16s-.59-.08-1.19-.68l-1.22-1.21-1.21-1.22c-.6-.6-.94-.93-.68-1.19s.51,0,1.16.65l1.25,1.24Z" fill="#212121"/><rect width="30" height="30" fill="none"/></svg>