<!-- Copyright (c) 2022 - 2023 Jan Stehno -->
<svg xmlns="http://www.w3.org/2000/svg" viewBox="0 0 300 300"><title>beacondeluxeeurasiantealcaller</title><g id="Layer_23" data-name="Layer 23"><g id="beacondeluxeeurasiantealcaller"><path d="M243.36,1.85c-2.64,2.65-4.53,6.56-13.48,23.07s-40.84,46.63-72,68.44S119,118.48,116.32,125.71s2.6,12.52,2.6,12.52l-3,3-1.18-1.17a7.12,7.12,0,0,0-10.08,0L93.12,151.59a7.13,7.13,0,0,0,0,10.08L96.4,165S74.72,186.88,48.13,210.7,2.5,245.49.36,249.65s5.42,16.76,19.33,30.66,26.51,21.47,30.66,19.33,15.13-21.17,38.95-47.77,45.75-48.27,45.75-48.27l3.28,3.28a7.13,7.13,0,0,0,10.08,0l11.51-11.52a7.12,7.12,0,0,0,0-10.08l-1.17-1.18,3-3s5.3,5.29,12.52,2.6,10.55-10.46,32.35-41.59,51.93-63,68.44-72,20.42-10.84,23.07-13.48,6.34-8.78-19.83-35S246-.79,243.36,1.85Z" transform="translate(0)" fill="#212121"/></g></g><g id="frame"><rect width="300" height="300" fill="none"/></g></svg>