<svg xmlns="http://www.w3.org/2000/svg" viewBox="0 0 30 30"><path d="M25.11.49c-.46.45-3.47,3.23-6.22,5.74S15.7,8.88,14.52,9.1s-1.39.52-1.39.52l.3.84-1,1-.12-.12a.63.63,0,0,0-.9,0L9.75,13a.63.63,0,0,0,0,.9l1.18,1.18L8.25,17.65l.07.51-.44.43-.64-.1S5,20.46,3,21.84A17.37,17.37,0,0,1,.1,23.48a2.68,2.68,0,0,0,.27,2c.42.58,1.91,2.2,1.91,2.2s1.62,1.49,2.2,1.91a2.68,2.68,0,0,0,2,.27A17.37,17.37,0,0,1,8.16,27c1.38-2,3.35-4.26,3.35-4.26l-.1-.64.43-.44.51.07,2.57-2.68,1.18,1.18a.63.63,0,0,0,.9,0l1.67-1.67a.63.63,0,0,0,0-.9l-.12-.12,1-1,.84.3s.3-.22.52-1.39.36-1.62,2.87-4.37,5.29-5.76,5.74-6.22,1.23-.9-1.13-3.27S25.57,0,25.11.49ZM21.37,7a.47.47,0,0,1,.42.15c.06.08-.4.08-.3.1.75.08.09.32-.32.7a6.73,6.73,0,0,0-.7.81s1.92-.13,2.34-.07,0,.21,0,.21a1.94,1.94,0,0,1,.46,0c.16,0-.08.16-.08.16a.66.66,0,0,1,.35,0c.14.07-.16.15-.16.15a.64.64,0,0,1,.3.11c.18.1-.11.06-.53.19a6.6,6.6,0,0,0-1.41.56,4.5,4.5,0,0,1-1.31.43,1.33,1.33,0,0,0,.39.77,7.56,7.56,0,0,1,.93,1.06c.07.14-.12.22-.29,0l-.16-.2s.37.57,0,.32-.15.25-.55-.27a5.92,5.92,0,0,0-1.29-1.31,3.42,3.42,0,0,1-1.11-1.53c-.3-.71-.42-1.07-.29-1.19s.35.25.64,0,1.79-1.8,2.77-1.36C21.79,6.93,21.48,7,21.37,7Z" transform="translate(0)" fill="#212121"/><rect width="30" height="30" fill="none"/></svg>