<!-- Copyright (c) 2023 Jan Stehno -->
<svg xmlns="http://www.w3.org/2000/svg" viewBox="0 0 300 300">
    <title>beacondeluxeduckcaller</title>
    <g id="Layer_23" data-name="Layer 23">
        <g id="beacondeluxeduckcaller">
            <path
                d="M251.1,4.91c-4.64,4.47-34.71,32.3-62.2,57.39S157,88.83,145.23,91s-14,5.22-14,5.22l3.09,8.37-9.92,9.93-1.24-1.25a6.35,6.35,0,0,0-9,0L97.47,130a6.35,6.35,0,0,0,0,9l11.81,11.81L82.54,176.52l.64,5-4.38,4.38-6.44-1s-22.75,19.65-42.53,33.51S2.83,233,1,234.84-.39,249.4,3.73,255.2s19.05,22,19.05,22,16.22,14.92,22,19,18.56,4.51,20.36,2.71,2.58-9,16.43-28.81,33.51-42.53,33.51-42.53l-1-6.44,4.38-4.38,5,.64,25.71-26.74L161,202.53a6.35,6.35,0,0,0,9,0l16.73-16.73a6.35,6.35,0,0,0,0-9l-1.25-1.24,9.93-9.92,8.37,3.09s3-2.26,5.22-14,3.63-16.18,28.72-43.67,52.92-57.56,57.39-62.2,12.29-9-11.34-32.65S255.74.44,251.1,4.91ZM213.7,69.48c1.84,0,3.21.2,4.22,1.5.61.79-4,.86-3,1,7.46.87.81,3.2-3.28,7.07a68.35,68.35,0,0,0-7,8.06s19.26-1.29,23.44-.73.36,2.12.36,2.12a20,20,0,0,1,4.6,0c1.65.31-.78,1.6-.78,1.6a6,6,0,0,1,3.46.26c1.45.72-1.55,1.55-1.55,1.55a6.59,6.59,0,0,1,3,1c1.75,1-1.14.62-5.27,2s-8.67,2.38-14.1,5.53-13.11,4.34-13.11,4.34a13.08,13.08,0,0,0,3.87,7.69c3.51,3.3,8.63,9.24,9.3,10.64s-1.19,2.22-2.84.26l-1.66-2s3.72,5.68-.41,3.2-1.44,2.48-5.52-2.73-7.08-8.94-12.81-13.12-8.72-9.59-11.15-15.28c-3-7-4.19-10.69-2.95-11.93s3.57,2.53,6.46,0,17.88-18,27.69-13.58C217.89,69.27,214.79,69.46,213.7,69.48Z"
                transform="translate(0)" fill="#212121" />
        </g>
    </g>
    <g id="frame">
        <rect width="300" height="300" fill="none" />
    </g>
</svg>