<!-- Copyright (c) 2022 - 2023 Jan Stehno -->
<svg xmlns="http://www.w3.org/2000/svg" viewBox="0 0 300 300"><title>bucksnortwheezecaller</title><g id="Layer_23" data-name="Layer 23"><g id="bucksnortwheezecaller"><path d="M264.46,14c-2.13,2.13-4.47,12.42-20.58,28.53s-35.19,25.11-50.66,38-65.7,64-65.7,64a12,12,0,0,1,.28,7.52c-1.14,4.54-7.25,9.66-7.25,9.66l-3.62-3.61-6.16,6.15,1.85,4-3,3-4.4-2.13L86.15,188.19s28.74-29.88,28.66-31.65-5.25-4.4-12.55-7.88a53.36,53.36,0,0,1-11.46-7.13s-19,21.29-34.81,39.7-56,57.9-56,57.9-.53,3.3,6,9.79,11.5,7.67,11.5,7.67,3.29,7.13,11.84,15.68c13.63,13.62,18.86,14.59,18.86,14.59l40.18-40.17,3.83,3.83c1.65,1.65,2.82,1,8.2-4.37s22.88-22.77,35.65-33.84,14.05-11.14,14.55-15-5.11-7.67-5.11-7.67l1.42-1.41-3.69-3.69s7.73-7.6,12.77-7.67S169,186,169,186s47.4-46.27,62-64.29,28-41.86,39.16-53.07S296.67,51,299.3,48.41s-2.06-10.29-14.62-22.85S266.59,11.86,264.46,14ZM146.09,196.72c0,2.5-8.3,9.26-21.82,21-10.85,9.4-23.28,22.3-27.76,27a2.44,2.44,0,0,1-3.5.05l-1.57-1.58,43.85-43.85-1.39-4,2.56-2.55,4.63,1.54,1.91-1.92S146,194.22,146.09,196.72Z" transform="translate(0)" fill="#212121"/></g></g><g id="frame"><rect width="300" height="300" fill="none"/></g></svg>