<svg xmlns="http://www.w3.org/2000/svg" viewBox="0 0 30 30"><path d="M26.45,1.4a11.21,11.21,0,0,1-2.06,2.85c-1.61,1.61-3.52,2.51-5.07,3.8s-6.57,6.4-6.57,6.4a1.24,1.24,0,0,1,0,.76,2.48,2.48,0,0,1-.73,1l-.36-.36-.61.62.18.39-.3.3-.44-.21L8.61,18.82s2.88-3,2.87-3.17-.52-.44-1.25-.78a5.13,5.13,0,0,1-1.15-.72s-1.89,2.13-3.48,4S0,23.91,0,23.91s0,.33.6,1a2.78,2.78,0,0,0,1.15.77,6.29,6.29,0,0,0,1.18,1.57c1.36,1.36,1.89,1.46,1.89,1.46l4-4,.39.38c.16.17.28.1.82-.43s2.29-2.28,3.56-3.39,1.41-1.11,1.46-1.5-.51-.77-.51-.77l.14-.14-.37-.37s.77-.76,1.28-.77,1.3.92,1.3.92,4.74-4.63,6.2-6.43S25.89,8,27,6.86a18.09,18.09,0,0,1,2.92-2c.26-.26-.21-1-1.46-2.28S26.66,1.19,26.45,1.4ZM14.61,19.67c0,.25-.83.93-2.18,2.1-1.09.94-2.33,2.23-2.78,2.7a.24.24,0,0,1-.35,0l-.16-.15,4.39-4.39-.14-.4.26-.26.46.16.19-.19S14.6,19.42,14.61,19.67Z" fill="#212121"/><rect width="30" height="30" fill="none"/></svg>