<!-- Copyright (c) 2022 Jan Stehno -->
<svg xmlns="http://www.w3.org/2000/svg" viewBox="0 0 300 300"><title>deergruntcaller</title><g id="Layer_23" data-name="Layer 23"><g id="deergruntcaller"><path d="M278.09,2.87l-5.48,5.48h0a2.16,2.16,0,0,0-2.31,2.3l.55,7.53-6.84-.5a2.15,2.15,0,0,0-2.3,2.31l.51,7-6.88-.5A2.16,2.16,0,0,0,253,28.82l.5,6.8-7-.51a2.14,2.14,0,0,0-2.3,2.3l.5,7-6.8-.5a2.16,2.16,0,0,0-2.3,2.31l.51,7.05-6.88-.51A2.17,2.17,0,0,0,227,55l.5,6.72-6.8-.5a2.16,2.16,0,0,0-2.31,2.31l.53,7.21-7.47-.54a2.14,2.14,0,0,0-2.3,2.3l.52,7.11-6.6-.48a2.16,2.16,0,0,0-2.3,2.31l.51,7-6.91-.5a2.15,2.15,0,0,0-2.3,2.31l.51,7-7.09-.51a2.16,2.16,0,0,0-2.31,2.3l.5,6.84-6.53-.47a2.14,2.14,0,0,0-2.3,2.3l.49,6.78-7.4-.54a2.15,2.15,0,0,0-2.3,2.31l.49,6.71-6.66-.48a2.14,2.14,0,0,0-2.3,2.3l.51,7.09-6.67-.48a2.16,2.16,0,0,0-2.31,2.3l.52,7.07-6.88-.5a2.15,2.15,0,0,0-2.31,2.3l.5,6.89L133.3,149a2.16,2.16,0,0,0-2.31,2.31l.48,6.5L120.83,157l-6.12,6.12.48,6.58L113.91,171l-3.69-3.69-2.42,2.42,1.56,1.56L94.21,186.39l-1.55-1.56L89,188.48l2.74,2.74-8.38,8.38-2-2-2.78-.21-3.85,3.85.17,2.33s-6,1.33-8.45,3.78-2.73,2.73-4.17,6.4-5.64,7.73-5.64,7.73l-2.37-.17L52,223.56l.11,1.57-2.61,2.61a3.48,3.48,0,0,0-5.1.29c-2.69,2.69-25.94,32.17-25.94,32.17a6.35,6.35,0,0,0-4.74,1.72,5.54,5.54,0,0,0-1.47,4.67s-7.71-.48-10.78,2.6S-.25,279.79,10,290s17.76,11.61,20.83,8.53,2.6-10.78,2.6-10.78a5.54,5.54,0,0,0,4.67-1.47,6.35,6.35,0,0,0,1.72-4.74S69.28,258.31,72,255.62a3.48,3.48,0,0,0,.29-5.1l2.61-2.61,1.57.11,2.27-2.26-.17-2.37s4.06-4.19,7.73-5.64,4-1.72,6.4-4.17,3.78-8.45,3.78-8.45l2.33.17,3.85-3.85-.21-2.78-2-2,8.38-8.38,2.74,2.73,3.65-3.65-1.56-1.55,15.14-15.15,1.56,1.56,2.42-2.42L129,186.09l1.28-1.28,6.58.48,6.12-6.12-.78-10.64,6.5.48a2.16,2.16,0,0,0,2.31-2.31l-.53-7.21,6.89.5a2.15,2.15,0,0,0,2.3-2.31l-.5-6.88,7.07.52a2.16,2.16,0,0,0,2.3-2.31l-.48-6.67,7.09.51a2.14,2.14,0,0,0,2.3-2.3l-.48-6.66,6.71.49a2.15,2.15,0,0,0,2.31-2.3l-.54-7.4,6.78.49a2.14,2.14,0,0,0,2.3-2.3l-.47-6.53,6.84.5a2.16,2.16,0,0,0,2.3-2.31l-.51-7.09,7,.51a2.15,2.15,0,0,0,2.31-2.3l-.5-6.91,7,.51a2.16,2.16,0,0,0,2.31-2.3l-.48-6.6,7.11.52a2.14,2.14,0,0,0,2.3-2.3l-.54-7.47,7.21.53a2.16,2.16,0,0,0,2.31-2.31l-.5-6.8L245,73a2.17,2.17,0,0,0,2.31-2.31l-.51-6.88,7.05.51a2.16,2.16,0,0,0,2.31-2.3l-.5-6.8,7,.5a2.14,2.14,0,0,0,2.3-2.3l-.51-7,6.8.5a2.16,2.16,0,0,0,2.31-2.31l-.5-6.88,7,.51a2.15,2.15,0,0,0,2.31-2.3l-.5-6.84,7.53.55a2.16,2.16,0,0,0,2.3-2.31h0l5.48-5.48c3.63-3.63,5.41-4.39-4.62-14.42S281.72-.76,278.09,2.87Z" transform="translate(0)" fill="#212121"/></g></g><g id="frame"><rect width="300" height="300" fill="none"/></g></svg>