<!-- Copyright (c) 2022 - 2023 Jan Stehno -->
<svg xmlns="http://www.w3.org/2000/svg" viewBox="0 0 300 300"><title>deerbleatcaller</title><g id="Layer_23" data-name="Layer 23"><g id="dearbleatcaller"><path d="M181.46,172.29s3,1.68,3.19-3a23.85,23.85,0,0,0-.3-4c-.32.62-.53,1-.53,1C183.65,167.1,181.46,172.29,181.46,172.29Z" transform="translate(0)" fill="#212121"/><path d="M107.15,170s-1.79-5.31-1.9-6.16a11.65,11.65,0,0,0-.39-1.31,24.29,24.29,0,0,0-.66,4.23C104,171.48,107.15,170,107.15,170Z" transform="translate(0)" fill="#212121"/><path d="M248.41,39C235.75,31.48,199,26.59,153.16,25.17S64.72,31.45,51.89,36.27,40.18,50.35,40.18,50.35l.36,12.11s5,18.53,98.59,22.84S259.22,66.36,259.22,66.36l.59-13.55S261.08,46.43,248.41,39Zm-47.68,1.37c0-.83,1.91-1.45,4.19-1.38s4.11.8,4.08,1.64-1.91,1.46-4.19,1.39S200.7,41.17,200.73,40.33Zm-48.92-1.91c0-.71,1.61-1.23,3.52-1.17s3.45.68,3.43,1.38-1.61,1.23-3.52,1.17S151.79,39.12,151.81,38.42ZM128.09,44.3c0,.84-1.91,1.46-4.19,1.39s-4.11-.81-4.07-1.65,1.9-1.45,4.18-1.38S128.12,43.46,128.09,44.3ZM91.15,37.74c0-.84,1.91-1.46,4.19-1.39s4.11.81,4.08,1.65-1.91,1.45-4.19,1.38S91.12,38.58,91.15,37.74ZM63.52,45.81c0,1-2.22,1.7-4.89,1.62s-4.81-1-4.77-1.92,2.23-1.71,4.9-1.62S63.56,44.83,63.52,45.81Zm19.65,8.73c0,1-2.23,1.7-4.9,1.62s-4.8-.94-4.77-1.92,2.23-1.71,4.9-1.62S83.2,53.56,83.17,54.54Zm-13.86-17c0,.84-1.9,1.46-4.19,1.39s-4.1-.81-4.07-1.64,1.91-1.46,4.19-1.39S69.35,36.73,69.31,37.56Zm17.48,6.56c0-1,2.23-1.7,4.9-1.62s4.8.94,4.77,1.92-2.23,1.7-4.9,1.62S86.76,45.1,86.79,44.12Zm13.46,6c0-1,2.23-1.7,4.9-1.62s4.8.95,4.76,1.92-2.23,1.71-4.9,1.62S100.21,51.13,100.25,50.15Zm26.58,11.16c0,1-2.23,1.7-4.9,1.62s-4.8-1-4.77-1.92,2.23-1.71,4.9-1.62S126.86,60.33,126.83,61.31Zm-18.89-27c0-.7,1.6-1.23,3.52-1.17s3.45.68,3.42,1.38-1.6,1.23-3.51,1.17S107.92,35.05,107.94,34.35Zm29.87,19.38c0,1-2.22,1.7-4.89,1.62s-4.81-1-4.77-1.92,2.23-1.71,4.9-1.62S137.85,52.75,137.81,53.73Zm-9.73-14.95c0-.83,1.9-1.45,4.19-1.38s4.1.8,4.07,1.64-1.9,1.46-4.19,1.39S128.05,39.62,128.08,38.78ZM147,47.29c0,.84-1.91,1.46-4.19,1.39s-4.11-.81-4.08-1.65,1.91-1.45,4.19-1.38S147,46.45,147,47.29ZM132.41,32c0-.7,1.61-1.22,3.52-1.17s3.45.68,3.43,1.38-1.6,1.23-3.52,1.17S132.39,32.7,132.41,32Zm28.48,22.34c0-1,2.23-1.7,4.9-1.62s4.8.94,4.76,1.92-2.23,1.7-4.9,1.62S160.85,55.32,160.89,54.34Zm20.52,8c0,1-2.23,1.7-4.9,1.62s-4.8-1-4.77-1.92,2.23-1.71,4.9-1.62S181.44,61.32,181.41,62.3ZM172.24,47c0,.84-1.91,1.46-4.19,1.39s-4.11-.81-4.08-1.64,1.91-1.46,4.19-1.39S172.27,46.14,172.24,47ZM161.39,33.2c0-.7,1.6-1.23,3.52-1.17s3.45.68,3.42,1.38-1.6,1.23-3.52,1.17S161.36,33.9,161.39,33.2Zm13.25,9.95c-2.28-.07-4.11-.81-4.08-1.64s1.91-1.46,4.19-1.39,4.11.8,4.08,1.64S176.92,43.22,174.64,43.15ZM198.78,52c0,1-2.22,1.7-4.89,1.62s-4.8-1-4.77-1.92,2.23-1.71,4.9-1.62S198.82,51,198.78,52Zm-10.67-14.9c-1.92-.06-3.45-.68-3.43-1.38s1.61-1.23,3.52-1.17,3.45.68,3.43,1.38S190,37.17,188.11,37.11Zm14.77,9.51c0-1,2.23-1.71,4.9-1.62s4.8.94,4.77,1.92-2.23,1.7-4.9,1.62S202.85,47.6,202.88,46.62ZM226.7,57.79c0,1-2.23,1.7-4.89,1.62S217,58.46,217,57.49s2.23-1.71,4.9-1.63S226.74,56.81,226.7,57.79Zm-15-24.54c0,.71-1.6,1.23-3.52,1.17s-3.45-.68-3.42-1.38,1.6-1.22,3.51-1.17S211.73,32.55,211.7,33.25ZM246,49c0,1-2.23,1.7-4.9,1.62s-4.8-.94-4.76-1.92,2.23-1.7,4.9-1.62S246.05,48,246,49Zm-7.49-9.16c0,1-2.23,1.71-4.9,1.62s-4.8-.94-4.76-1.92,2.23-1.7,4.9-1.62S238.56,38.82,238.52,39.8Z" transform="translate(0)" fill="#212121"/><path d="M140.48,216.69c.6,0,1.47,1.07,2.07,1.09h0c.61,0,1.55-1,2.16-1s2.58.14,3.1-.3,2.06-1.71,2.09-2.41-2.51-3.55-3.51-3.58-2.68,1.08-3.6,1.05h0c-.92,0-2.53-1.24-3.52-1.27s-3.74,2.66-3.77,3.36,1.43,2.06,1.91,2.53S139.88,216.67,140.48,216.69Zm3.62-2.19c0-.48-.46-.64-.44-1.13s2.41-1.62,3.06-1.6,1.39,1.07,1.86,1.52.15,1-.28,1-1.23-.86-1.71-.87-1.86,2.26-2.28,2.24S144.08,215,144.1,214.5Zm-7.22-1.57c.5-.43,1.33-1.43,2-1.41s3,1.31,2.93,1.79-.5.62-.52,1.1.13,1.13-.3,1.12-1.63-2.37-2.11-2.38-1.33.78-1.76.76S136.38,213.36,136.88,212.93Z" transform="translate(0)" fill="#212121"/><path d="M248.38,84.14c-13.94,5.52-35.83,13.92-101.19,13.2C91.89,97,64.06,88.68,51.13,82.65c-4.35-2-9.48,1.06-9.2,5.5.91,14.62,2.56,40.78,4.2,65.22h0C54.35,276.27,50.51,275,147.92,275c89.38,0,87.65-.28,98.6-94.86,3.57-29.79,8.41-70.7,10.7-90.07C257.75,85.66,252.85,82.37,248.38,84.14ZM120,225.57a11.54,11.54,0,0,1,1.1-2.37c.72-1.17.48-1.85,1-3.19a17.13,17.13,0,0,1,2.23-3.5l-1.6.3s1.52-1.21,3-2.45a8,8,0,0,0,2.53-3.6,38.63,38.63,0,0,1-.23-4.88c.11-2.76-.76-3.72-.73-4.41a4.75,4.75,0,0,1,.45-1.56s1.62,1.87,2.77,1.91,2.52,1.84,2.5,2.45-1.13,1.25-2,1.95a5.46,5.46,0,0,0-1.68,3.72c-.05,1.44.49,2.32.4,4.59s-2.52,6-2.52,6l1-.19a6.2,6.2,0,0,0-.83,2.12,7.57,7.57,0,0,0,.16,1.65l1.77-.56a4.08,4.08,0,0,0,1.78,4.07l.61-1.07a6.7,6.7,0,0,0,.5,1.52,13.35,13.35,0,0,0,.79,1.39l.55-1a4.56,4.56,0,0,1,.86,1,6.73,6.73,0,0,0,.9,1.06l.33-1.12a13.77,13.77,0,0,0,1.11,1.88c.59.78,2.09,2.36,2.09,2.36l0-1.11a5.57,5.57,0,0,0,1.22,1.07,6.42,6.42,0,0,0,1.84.4,6,6,0,0,0,1.86-.29,5.54,5.54,0,0,0,1.29-1l0,1.11s1.62-1.48,2.26-2.23a13.77,13.77,0,0,0,1.25-1.8l.25,1.14a7.76,7.76,0,0,0,1-1,4.51,4.51,0,0,1,.92-.89l.48,1a14.94,14.94,0,0,0,.9-1.33,7.54,7.54,0,0,0,.61-1.49l.52,1.1a7.69,7.69,0,0,0,1.69-1.8,7.87,7.87,0,0,0,.39-2.15L157,225a7.1,7.1,0,0,0,.3-1.64,6.15,6.15,0,0,0-.67-2.16l1,.26s-2.16-3.88-2.07-6.15.69-3.11.74-4.55A5.39,5.39,0,0,0,155,207c-.81-.75-1.87-1.4-1.84-2.06a3.59,3.59,0,0,1,2.68-2.3c1.14,0,2.91-1.73,2.91-1.73a5,5,0,0,1,.33,1.59c0,.69-1,1.59-1.07,4.35a37.92,37.92,0,0,1-.59,4.85,7.85,7.85,0,0,0,2.25,3.75c1.35,1.32,2.77,2.63,2.77,2.63l-1.58-.4a16.74,16.74,0,0,1,2,3.63c.38,1.37.08,2,.71,3.24a11.41,11.41,0,0,1,.92,2.44l-1.05-.42a8.28,8.28,0,0,1,.9,3.31,15.11,15.11,0,0,0,.19,2.88s-2-.34-2.7.25a3.61,3.61,0,0,0-.88,2.06,8.57,8.57,0,0,0-2-.31c-1.1,0-.94,1.2-2.46,2.57s-3.07,2.93-4.89,2.88a2.89,2.89,0,0,0-2.78,2c-1.58-.82-6.55,1-7.16,1.27v0h-.06v0c-.59-.27-5.41-2.43-7.05-1.71a2.84,2.84,0,0,0-2.62-2.2c-1.82-.06-3.25-1.71-4.66-3.17s-1.16-2.69-2.26-2.72a8.32,8.32,0,0,0-2,.19,3.58,3.58,0,0,0-.72-2.11c-.68-.64-2.68-.42-2.68-.42a15.81,15.81,0,0,0,.41-2.86,8.19,8.19,0,0,1,1.14-3.25Zm7.58-28.36a4.75,4.75,0,0,1,4.3,1.12c1.68,1.46,1.79,3.68,1.51,3.83-.65.35-3.12-.82-4.46-1.6S127.25,197.49,127.62,197.21Zm25.21,5.55c-.27-.17,0-2.37,1.79-3.72s4-1.16,4.37-.86-.2,2.56-1.59,3.26S153.45,203.15,152.83,202.76Zm30-77.18c.8,0,1.51,1.45,2,3.1a51.33,51.33,0,0,1,.73,6.61c-.41-.8-2-3.33-2-3.33s-.27-.65-.62-1.32a9.68,9.68,0,0,1-.91-3.33C182,126.46,182.05,125.55,182.85,125.58Zm-29.8,33.18c0,.63.74,1.67,1.79,3.42s2.09,3.74,2,5-.63,2-.7,3.77.94,3.43.89,4.62,2.25,1.16,4.28-.19,9.46-3,11.3-4.53,2.67-5.19,2.83-9.45-.61-5-.55-6.56,1.73-2.62,1.85-5.86a14.21,14.21,0,0,0-1.47-7.85c-1.41-3.19-.9-3.06.47-2a11.27,11.27,0,0,1,3.66,8.53c-.15,4.1-.49,5.51-1.1,7s-.3,4.23.26,6.7a25.09,25.09,0,0,1,.4,5.76,3.37,3.37,0,0,0,1.49-1.89,53.23,53.23,0,0,0,1.34-6.35,4,4,0,0,1,.17-.73,11.41,11.41,0,0,1,.49-1.53c-.43-1.63-.8-3-1-3.66-.59-2.32-.81-5.52.08-5.8s1.52,1.25,2.63,4.27c0,0,0,.1,0,.14a12.44,12.44,0,0,0,.16-1.33c0-.57-.08-1.09-.12-2.82s-1-5.67-.93-8.67-2.08-4.28-1.4-6,1.29-.1,2.65,2.14,1.31,4.17,1.94,8.76c.23,1.7.56,3.31.89,4.75l.55-.25s3-2.22,3.8-4.51.34-3.8.69-4.11,1.34.46,1.29,1.69.38,3.26-.91,5.36a39,39,0,0,1-3,4.42,3.12,3.12,0,0,1-1.09.75l-.57.18a6.28,6.28,0,0,1,.22,1.79,23.65,23.65,0,0,1-2,7,60.9,60.9,0,0,1,1.4,10.19c-.14,3.62-.89,4.71-5.93,4.56a59.89,59.89,0,0,1-8.26-1c-1.07,0-1.69-.13-5.09,1.27s-11.07,5.42-12,5.4-3.45-2.44-3.43-2.88,1-.42,1.11-2.22-.71-3.29-.64-5.28.6-2.88.65-4.22S151.6,161,151.63,160,153,158.12,153.05,158.76Zm-14,22.82a6.26,6.26,0,0,1,1.45-1.64,6.89,6.89,0,0,1,3.55-1h0a6.66,6.66,0,0,1,3.47,1.21,6.26,6.26,0,0,1,1.33,1.72s1.36-1.43,2.16-1.41,1.5,1.62,3.18,1.67,1.32.86,2.49.9,4.69-1.27,8.78-3.6,5.15-3.23,6.5-3.19,8.94,0,9.27.29-1.24,4.86-2.14,6.53-3.64,4.83-4.28,5a24.52,24.52,0,0,0-7,1c-3.48,1.19-4.24,1.71-5.71,4a18.3,18.3,0,0,0-2.13,4.78,17.85,17.85,0,0,0-3.84-1c-1.31,0-4.08,2.37-4.17,4.72a7.15,7.15,0,0,0,2,5.25c1.14,1.28,1.62,2,1.6,2.76s-1.89,2.38-1.95,4,.24,4.18-.17,4.53-1.85-.1-2.47.43a1.26,1.26,0,0,0-.35.68c0,.2-.08.4-.13.6a3.61,3.61,0,0,1-.08.38v0s0,0,0,0a1,1,0,0,1-.13.3c-1.15,3.25-5.85,4.53-5.85,4.53l.06-.44s-.13-.08-.82.05a8.16,8.16,0,0,0-1.32.48h0a8.16,8.16,0,0,0-1.29-.56,2.14,2.14,0,0,0-.77-.11l0,.46c-3-2.09-4.89-2.94-5.49-4.88a1.81,1.81,0,0,1-.15-.6v0c-.06-.38-.11-.71-.16-1a1,1,0,0,0-.23-.42c-.58-.57-2-.2-2.43-.58s.11-2.91.17-4.53-1.67-3.36-1.65-4.1.57-1.45,1.8-2.66a7.22,7.22,0,0,0,2.4-5.11c.09-2.35-2.49-4.92-3.8-5a18.18,18.18,0,0,0-3.91.71,18.22,18.22,0,0,0-1.76-4.9c-1.3-2.37-2-2.93-5.4-4.33a24.61,24.61,0,0,0-6.94-1.48c-.62-.19-3.11-3.52-3.89-5.23s-2-6.34-1.65-6.65,7.92.25,9.27.29,2.33,1,6.25,3.59,7.31,4.09,8.49,4.13.88-.8,2.55-.75,2.5-1.49,3.3-1.46S139,181.58,139,181.58Zm-31.94-55.31c.58-1.61,1.4-3,2.2-3s.74.93.71,1.78a9.85,9.85,0,0,1-1.15,3.26c-.41.65-.72,1.28-.72,1.28s-1.79,2.43-2.27,3.2A52.35,52.35,0,0,1,107.07,126.27Zm-9.91,12c0-1.24,1.08-2,1.41-1.62s-.21,1.82.38,4.15,3.46,4.74,3.46,4.74l.54.23c.43-1.4.88-3,1.23-4.64,1-4.54,1.07-6.46,2.6-8.61s2.25-3.72,2.8-2-1.73,2.87-1.85,5.88-1.41,6.87-1.58,8.59-.26,2.24-.33,2.81a7.64,7.64,0,0,0,0,1.45l.1-.25c1.34-2.94,2.08-4.43,3-4.1s.41,3.52-.35,5.8c-.22.65-.66,1.88-1.18,3.39a12.33,12.33,0,0,1,.42,2.49,53.85,53.85,0,0,0,.86,6.42,3.28,3.28,0,0,0,1.35,2,25.69,25.69,0,0,1,.82-5.71c.75-2.43,1.26-5.18.76-6.67s-.73-2.9-.57-7a11.43,11.43,0,0,1,4.3-8.28c1.44-1,2-1.11.31,2a14.36,14.36,0,0,0-2,7.74c-.12,3.25,1.46,4.35,1.4,6s-.88,2.25-1,6.51.41,7.93,2.12,9.6,9,3.76,10.93,5.23,4.21,1.63,4.26.45,1.16-2.77,1.23-4.56-.46-2.54-.41-3.8,1.23-3.19,2.41-4.87,2-2.67,2-3.3,1.35.4,1.32,1.36-3.07,5-3.12,6.34.4,2.26.33,4.24-1,3.43-1,5.23,1,1.84.95,2.28-2.71,2.69-3.64,2.66-8.28-4.52-11.57-6.13-3.92-1.54-5-1.57a63.08,63.08,0,0,1-8.31.44c-5-.16-5.7-1.3-5.56-4.91a63,63,0,0,1,2.22-10.34,24.87,24.87,0,0,1-1.41-5v0a8.39,8.39,0,0,1-.17-1.74,8.94,8.94,0,0,1,.37-1.78l-.57-.21a3.09,3.09,0,0,1-1-.81,37.06,37.06,0,0,1-2.62-4.6C96.53,141.47,97.11,139.48,97.16,138.24Z" transform="translate(0)" fill="#212121"/></g></g><g id="frame"><rect width="300" height="300" fill="none"/></g></svg>