<svg xmlns="http://www.w3.org/2000/svg" viewBox="0 0 30 30"><path d="M27.81.29l-.55.54h0a.22.22,0,0,0-.23.24l.06.75-.69-.05a.22.22,0,0,0-.23.23l0,.7-.69-.05a.22.22,0,0,0-.23.23l.05.68-.69-.05a.22.22,0,0,0-.23.23l.05.7-.68-.05a.22.22,0,0,0-.23.23l.05.7-.69-.05a.22.22,0,0,0-.23.23l.05.68-.68,0a.22.22,0,0,0-.23.23l.05.72L21.14,7a.22.22,0,0,0-.23.23L21,8l-.65,0a.22.22,0,0,0-.24.23l.06.69-.69-.05A.22.22,0,0,0,19.2,9l.06.71-.71-.05a.22.22,0,0,0-.23.23l.05.68-.66-.05a.22.22,0,0,0-.23.23l.05.68-.74,0a.22.22,0,0,0-.23.23l.05.67L16,12.25a.22.22,0,0,0-.24.23l.06.71-.67,0a.22.22,0,0,0-.23.23l.05.71L14.23,14a.22.22,0,0,0-.23.23l.05.69-.72,0a.21.21,0,0,0-.23.23l.05.65-1.07-.08-.61.61,0,.66-.13.13L11,16.73l-.24.24.16.15L9.42,18.64l-.15-.16-.37.37.27.27L8.34,20l-.21-.2-.28,0-.38.38,0,.24a2.24,2.24,0,0,0-.85.37,1.46,1.46,0,0,0-.42.64,2.77,2.77,0,0,1-.56.78l-.24,0-.22.23v.15L5,22.77a.35.35,0,0,0-.51,0c-.27.27-2.6,3.22-2.6,3.22a.62.62,0,0,0-.47.17.57.57,0,0,0-.15.47,1.73,1.73,0,0,0-1.08.26C-.16,27.23,0,28,1,29s1.77,1.16,2.08.86a1.73,1.73,0,0,0,.26-1.08.57.57,0,0,0,.47-.15A.62.62,0,0,0,4,28.16s2.95-2.33,3.22-2.6a.35.35,0,0,0,0-.51l.26-.26h.15l.23-.22,0-.24a2.77,2.77,0,0,1,.78-.56,1.46,1.46,0,0,0,.64-.42,2.24,2.24,0,0,0,.37-.85l.24,0,.38-.38,0-.28-.2-.21.84-.83.27.27.37-.37-.16-.15,1.52-1.52.15.16.24-.24-.37-.37.13-.13.66.05.61-.61-.08-1.07.65,0a.21.21,0,0,0,.23-.23l0-.72.69.05a.22.22,0,0,0,.23-.23l-.05-.69.71.05a.22.22,0,0,0,.23-.23l-.05-.67.71.06a.22.22,0,0,0,.23-.24l-.05-.66.67,0a.22.22,0,0,0,.23-.23l-.05-.74.68,0a.22.22,0,0,0,.23-.23l-.05-.66.68,0a.22.22,0,0,0,.23-.23l-.05-.71.71.06a.22.22,0,0,0,.23-.24l-.05-.69.69.06a.22.22,0,0,0,.23-.24L22,9l.72.05A.22.22,0,0,0,23,8.86l-.06-.75.72.05a.22.22,0,0,0,.23-.23l-.05-.68.68,0a.22.22,0,0,0,.23-.23l-.05-.69.7,0a.22.22,0,0,0,.23-.23l-.05-.68.7.05a.22.22,0,0,0,.23-.23l0-.69.68,0a.22.22,0,0,0,.23-.23l-.05-.69.7.05a.22.22,0,0,0,.23-.23l-.05-.69.75.06a.22.22,0,0,0,.24-.23h0l.54-.55c.37-.36.54-.44-.46-1.44S28.17-.08,27.81.29Z" transform="translate(0)" fill="#212121"/><rect width="30" height="30" fill="none"/></svg>