<svg xmlns="http://www.w3.org/2000/svg" viewBox="0 0 30 30"><path d="M18.15,17.23s.3.17.31-.31a1.45,1.45,0,0,0,0-.4l-.05.11C18.36,16.71,18.15,17.23,18.15,17.23Z" transform="translate(0)" fill="#212121"/><path d="M10.71,17s-.17-.53-.19-.62a1.11,1.11,0,0,0,0-.13,1.92,1.92,0,0,0-.07.42C10.4,17.15,10.71,17,10.71,17Z" transform="translate(0)" fill="#212121"/><path d="M24.84,3.9c-1.27-.75-4.94-1.24-9.52-1.38A33.65,33.65,0,0,0,5.19,3.63C3.91,4.11,4,5,4,5l0,1.22s.5,1.85,9.86,2.28,12-1.89,12-1.89L26,5.28S26.11,4.64,24.84,3.9ZM20.07,4c0-.08.19-.14.42-.14s.41.09.41.17-.19.14-.42.14S20.07,4.12,20.07,4Zm-4.89-.19c0-.07.16-.12.35-.11s.35.06.35.13-.16.13-.36.12S15.18,3.91,15.18,3.84Zm-2.37.59c0,.08-.19.15-.42.14S12,4.49,12,4.4s.19-.14.42-.13S12.81,4.35,12.81,4.43ZM9.12,3.77c0-.08.19-.14.41-.13s.42.08.41.16-.19.15-.42.14S9.11,3.86,9.12,3.77Zm-2.77.81c0,.1-.22.17-.49.16s-.48-.09-.47-.19.22-.17.49-.16S6.36,4.48,6.35,4.58Zm2,.87c0,.1-.23.17-.49.17s-.48-.1-.48-.2.22-.17.49-.16S8.32,5.36,8.32,5.45ZM6.93,3.76c0,.08-.19.14-.42.13s-.41-.08-.41-.16.2-.15.42-.14S6.93,3.67,6.93,3.76Zm1.75.65c0-.1.22-.17.49-.16s.48.09.48.19-.23.17-.49.16S8.68,4.51,8.68,4.41ZM10,5c0-.1.23-.17.49-.17s.48.1.48.2-.22.17-.49.16S10,5.11,10,5Zm2.66,1.11c0,.1-.22.17-.49.16s-.48-.09-.47-.19.22-.17.49-.16S12.69,6,12.68,6.13Zm-1.89-2.7c0-.07.16-.12.36-.11s.34.07.34.14-.16.12-.35.11S10.79,3.51,10.79,3.43Zm3,1.94c0,.1-.22.17-.49.16s-.48-.09-.47-.19.22-.17.48-.16S13.79,5.27,13.78,5.37Zm-1-1.49c0-.09.19-.15.42-.14s.41.08.4.16-.19.15-.41.14S12.8,4,12.81,3.88Zm1.89.85c0,.08-.2.14-.42.14s-.41-.08-.41-.17.19-.14.42-.14S14.7,4.65,14.7,4.73ZM13.24,3.2c0-.07.16-.12.35-.12s.35.07.35.14-.16.12-.36.12S13.24,3.27,13.24,3.2Zm2.85,2.23c0-.09.22-.17.49-.16s.48.1.48.19-.23.17-.49.17S16.09,5.53,16.09,5.43Zm2.05.8c0,.1-.22.17-.49.16s-.48-.09-.48-.19S17.4,6,17.66,6,18.14,6.13,18.14,6.23ZM17.22,4.7c0,.08-.19.14-.42.14s-.41-.08-.4-.17.19-.14.42-.14S17.23,4.61,17.22,4.7ZM16.14,3.32c0-.07.16-.12.35-.12s.35.07.34.14-.16.12-.35.12S16.14,3.39,16.14,3.32Zm1.32,1c-.22,0-.41-.08-.4-.16s.19-.15.42-.14.41.08.4.17S17.69,4.32,17.46,4.31Zm2.42.89c0,.1-.22.17-.49.16s-.48-.09-.48-.19S19.14,5,19.4,5,19.88,5.1,19.88,5.2ZM18.81,3.71c-.19,0-.34-.07-.34-.14s.16-.12.35-.11.35.06.34.13S19,3.72,18.81,3.71Zm1.48,1c0-.1.22-.17.49-.16s.48.09.47.19-.22.17-.49.16S20.28,4.76,20.29,4.66Zm2.38,1.12c0,.1-.22.17-.49.16s-.48-.09-.48-.19.23-.17.49-.16S22.67,5.68,22.67,5.78Zm-1.5-2.45c0,.07-.16.12-.35.11s-.35-.07-.34-.14.16-.12.35-.11S21.17,3.26,21.17,3.33ZM24.6,4.9c0,.09-.22.17-.49.16s-.48-.1-.48-.19.23-.17.49-.17S24.6,4.8,24.6,4.9ZM23.85,4c0,.1-.22.17-.49.16s-.48-.09-.47-.19.22-.17.49-.16S23.86,3.88,23.85,4Z" transform="translate(0)" fill="#212121"/><path d="M14.05,21.67c.06,0,.15.11.21.11h0c.06,0,.15-.1.21-.1s.26,0,.31,0,.21-.17.21-.24a.76.76,0,0,0-.35-.36c-.1,0-.27.11-.36.11h0c-.09,0-.25-.13-.35-.13a.75.75,0,0,0-.38.34c0,.07.14.2.19.25S14,21.67,14.05,21.67Zm.36-.22c0-.05-.05-.06,0-.11s.24-.17.3-.16.14.1.19.15a.06.06,0,0,1,0,.1s-.12-.09-.17-.09-.19.22-.23.22S14.41,21.5,14.41,21.45Zm-.72-.16c.05,0,.13-.14.2-.14s.29.13.29.18,0,.06,0,.11,0,.11,0,.11-.17-.23-.21-.24-.14.08-.18.08S13.64,21.34,13.69,21.29Z" transform="translate(0)" fill="#212121"/><path d="M24.84,8.41c-1.4.56-3.59,1.4-10.12,1.32-5.53,0-8.31-.86-9.61-1.46a.63.63,0,0,0-.92.54c.09,1.47.26,4.08.42,6.53h0c.82,12.29.44,12.16,10.18,12.16,8.94,0,8.77,0,9.86-9.49.36-3,.84-7.07,1.07-9A.63.63,0,0,0,24.84,8.41ZM12,22.56a1.44,1.44,0,0,1,.11-.24c.08-.12.05-.19.1-.32a2,2,0,0,1,.22-.35l-.16,0,.3-.24a.88.88,0,0,0,.25-.36,3.88,3.88,0,0,1,0-.49,1.25,1.25,0,0,0-.08-.44.75.75,0,0,1,0-.16s.16.19.28.19a.39.39,0,0,1,.25.25c0,.06-.12.12-.2.19a.56.56,0,0,0-.17.37c0,.15.05.24,0,.46a1.68,1.68,0,0,1-.25.6l.1,0a.64.64,0,0,0-.08.22.9.9,0,0,0,0,.16l.17-.06a.77.77,0,0,0,0,.22.68.68,0,0,0,.15.19l.06-.11a1.07,1.07,0,0,0,.05.16l.08.14.06-.1a.35.35,0,0,1,.08.1l.09.1,0-.11a1.87,1.87,0,0,0,.12.19,1.81,1.81,0,0,0,.21.23v-.11a.44.44,0,0,0,.12.11.73.73,0,0,0,.18,0,.57.57,0,0,0,.19,0,.58.58,0,0,0,.13-.1v.11s.16-.15.22-.22a.93.93,0,0,0,.13-.18l0,.11A.78.78,0,0,0,15,23l.09-.09,0,.1a1,1,0,0,0,.09-.13.68.68,0,0,0,.06-.15l.05.11a.75.75,0,0,0,.17-.18.87.87,0,0,0,0-.21l.17.06a.52.52,0,0,0,0-.16.54.54,0,0,0-.06-.22l.1,0a1.63,1.63,0,0,1-.21-.62c0-.22.07-.31.08-.45a.55.55,0,0,0-.14-.38c-.08-.08-.19-.14-.19-.21s.16-.23.27-.23.29-.17.29-.17a.36.36,0,0,1,0,.16,1.41,1.41,0,0,0-.1.43,4.3,4.3,0,0,1-.06.49.84.84,0,0,0,.22.37l.28.26-.16,0a1.76,1.76,0,0,1,.2.37c0,.13,0,.2.07.32a.9.9,0,0,1,.09.24l-.1,0a1,1,0,0,1,.09.33,1.19,1.19,0,0,0,0,.29s-.2,0-.27,0a.31.31,0,0,0-.09.2l-.2,0c-.11,0-.09.12-.24.26s-.31.29-.49.29a.28.28,0,0,0-.28.2c-.16-.08-.66.1-.72.13h0c-.06,0-.55-.25-.71-.17a.28.28,0,0,0-.26-.22c-.18,0-.33-.17-.47-.32s-.11-.27-.22-.27a.54.54,0,0,0-.2,0,.41.41,0,0,0-.08-.22c-.06-.06-.26,0-.26,0a2.32,2.32,0,0,0,0-.28.78.78,0,0,1,.11-.33Zm.76-2.84a.48.48,0,0,1,.43.11.4.4,0,0,1,.15.39c-.06,0-.31-.09-.44-.16S12.72,19.75,12.76,19.72Zm2.52.56a.43.43,0,0,1,.18-.38.49.49,0,0,1,.44-.08.33.33,0,0,1-.16.32C15.6,20.21,15.35,20.32,15.28,20.28Zm3-7.72c.07,0,.15.14.19.31a4.69,4.69,0,0,1,.08.66l-.21-.33a.71.71,0,0,0-.06-.14,1.06,1.06,0,0,1-.09-.33C18.2,12.65,18.21,12.56,18.29,12.56Zm-3,3.32a1.23,1.23,0,0,0,.17.34,1.14,1.14,0,0,1,.21.5c0,.12-.06.2-.07.38a3.75,3.75,0,0,0,.09.46c0,.12.22.11.43,0s.94-.3,1.13-.46a1.38,1.38,0,0,0,.28-.94,3.09,3.09,0,0,0-.06-.66c0-.16.18-.26.19-.58a1.47,1.47,0,0,0-.15-.79c-.14-.32-.09-.3,0-.19a1.13,1.13,0,0,1,.37.85,2,2,0,0,1-.11.7,1.29,1.29,0,0,0,0,.67,2.28,2.28,0,0,1,0,.57.35.35,0,0,0,.15-.19,5,5,0,0,0,.13-.63.45.45,0,0,0,0-.08.88.88,0,0,1,.05-.15c0-.16-.08-.3-.1-.36-.06-.24-.08-.56,0-.59s.15.13.26.43v0c0-.05,0-.09,0-.14a2.76,2.76,0,0,1,0-.28c0-.17-.1-.57-.09-.87s-.21-.42-.14-.59.13,0,.26.21a2,2,0,0,1,.2.88c0,.17.06.33.09.47l.05,0a1.23,1.23,0,0,0,.38-.45,3.2,3.2,0,0,0,.07-.42s.14.05.13.17a.87.87,0,0,1-.09.54,3.36,3.36,0,0,1-.3.44.28.28,0,0,1-.1.08h-.06a1.1,1.1,0,0,1,0,.18,2.43,2.43,0,0,1-.2.7,7,7,0,0,1,.14,1c0,.36-.09.47-.6.45a6.09,6.09,0,0,1-.82-.09c-.11,0-.17,0-.51.12s-1.11.55-1.2.54-.35-.24-.35-.28.11,0,.12-.23-.08-.33-.07-.52.06-.29.07-.43-.27-.55-.27-.65S15.3,15.81,15.31,15.88ZM13.9,18.16a.65.65,0,0,1,.15-.17.68.68,0,0,1,.35-.1h0a.71.71,0,0,1,.35.13.56.56,0,0,1,.13.17s.14-.15.22-.14.15.16.31.16.14.09.25.09a2.3,2.3,0,0,0,.88-.36c.41-.23.52-.32.65-.31a8.85,8.85,0,0,1,.93,0,2.17,2.17,0,0,1-.22.66,1.83,1.83,0,0,1-.42.49,2.8,2.8,0,0,0-.71.11.84.84,0,0,0-.57.4,2.18,2.18,0,0,0-.21.48,1.47,1.47,0,0,0-.38-.1.57.57,0,0,0-.42.47.73.73,0,0,0,.2.53c.11.13.16.2.16.27s-.19.24-.2.4a1.6,1.6,0,0,1,0,.46s-.19,0-.25,0a.08.08,0,0,0,0,.07s0,0,0,.06v0h0a0,0,0,0,1,0,0c-.11.32-.58.45-.58.45v0h-.08l-.13.05h0l-.13-.06H14v.05c-.3-.21-.49-.3-.55-.49,0,0,0,0,0-.06h0a.44.44,0,0,1,0-.1l0,0c-.06-.06-.21,0-.25-.06s0-.29,0-.45S13,21,13,20.89s.05-.15.18-.27a.75.75,0,0,0,.24-.51.57.57,0,0,0-.39-.5,2.15,2.15,0,0,0-.39.07,1.73,1.73,0,0,0-.17-.49c-.13-.23-.2-.29-.54-.43a2.57,2.57,0,0,0-.7-.15,1.7,1.7,0,0,1-.38-.52,1.9,1.9,0,0,1-.17-.67s.79,0,.93,0,.23.1.62.36a2.36,2.36,0,0,0,.85.41c.12,0,.09-.07.26-.07s.25-.15.33-.15S13.9,18.16,13.9,18.16Zm-3.19-5.53c.06-.16.14-.3.22-.3s.07.09.07.18a.82.82,0,0,1-.12.32l-.07.13s-.18.24-.23.32A5.15,5.15,0,0,1,10.71,12.63Zm-1,1.19c0-.12.1-.19.14-.16s0,.18,0,.42a1.12,1.12,0,0,0,.34.47l.06,0c0-.14.08-.29.12-.46a2.24,2.24,0,0,1,.26-.86c.15-.22.22-.37.28-.2s-.18.29-.19.59-.14.69-.15.86,0,.22,0,.28v.12c.14-.3.21-.44.3-.41s0,.35,0,.58l-.11.34a1.45,1.45,0,0,1,0,.25c0,.19.05.5.08.64a.36.36,0,0,0,.14.2,2.9,2.9,0,0,1,.08-.58,1.25,1.25,0,0,0,.08-.66,1.68,1.68,0,0,1-.06-.7,1.15,1.15,0,0,1,.43-.83c.14-.1.2-.11,0,.2a1.46,1.46,0,0,0-.2.77c0,.33.14.44.14.6a3.74,3.74,0,0,0-.11.65,1.4,1.4,0,0,0,.21,1c.18.17.9.37,1.1.52s.42.17.42.05a4.63,4.63,0,0,0,.13-.46c0-.18-.05-.25,0-.38a1.1,1.1,0,0,1,.24-.49,1,1,0,0,0,.2-.33c0-.06.14,0,.13.14s-.3.5-.31.63,0,.23,0,.43-.09.34-.1.52.1.19.1.23a.89.89,0,0,1-.37.27c-.09,0-.83-.46-1.16-.62a1.07,1.07,0,0,0-.5-.16,5.76,5.76,0,0,1-.83,0c-.5,0-.57-.13-.55-.49a5.24,5.24,0,0,1,.22-1,2.11,2.11,0,0,1-.14-.5h0a1.41,1.41,0,0,1,0-.18,1,1,0,0,1,0-.18l-.06,0a.28.28,0,0,1-.1-.08,3.32,3.32,0,0,1-.26-.46A.81.81,0,0,1,9.72,13.82Z" transform="translate(0)" fill="#212121"/><rect width="30" height="30" fill="none"/></svg>