<!-- Copyright (c) 2022 - 2023 Jan Stehno -->
<svg xmlns="http://www.w3.org/2000/svg" viewBox="0 0 300 300"><title>elkcaller</title><g id="Layer_23" data-name="Layer 23"><g id="elkcaller"><path d="M245,2.1a11.86,11.86,0,0,1-2.05,3.24s-.92-1-2.66.71-9.91,17.49-14.73,27.51-14.13,20.09-14.13,20.09l-3,3h-2.71L47.13,215.24v2.59L33.86,231.1l1,1-.54.54-1.41-1.41-2.11,2.11v2.28l-3,3a2.61,2.61,0,0,0-.83,2h0l-9.59,9.58a54,54,0,0,0,9.62,6,43.23,43.23,0,0,0,8.74,3.12L40,255.12c1.68.9,3,.93,4.11-.17l3-3h1.42s9.45,9.28,12.62,14.55,6.54,10.94,6.54,10.94.14,3.32,5.3,11.23S82.11,300,82.11,300l24.29-15s-.61-4-5.59-12.24-8.27-10.65-8.27-10.65L69.29,276.28a99.15,99.15,0,0,0-8.48-13,80.43,80.43,0,0,0-10.78-12l1.45-1.45-1.41-1.41.54-.54,1,1,13.27-13.27h2.6L226.06,77V74.24l3-3S239.11,62,249.13,57.13s25.77-13,27.51-14.73.7-2.65.7-2.65a12,12,0,0,1,3.25-2.06c1.79-.7,7.56-1.32-13.36-22.24S245.7.31,245,2.1Z" transform="translate(0)" fill="#212121"/></g></g><g id="frame"><rect width="300" height="300" fill="none"/></g></svg>