<svg xmlns="http://www.w3.org/2000/svg" viewBox="0 0 30 30"><path d="M24.5.21a1.06,1.06,0,0,1-.21.32S24.2.43,24,.6a26.75,26.75,0,0,0-1.47,2.76,10,10,0,0,1-1.42,2l-.3.3h-.27L4.71,21.52v.26L3.39,23.11l.09.1,0,.05-.14-.14-.21.21v.23l-.31.3a.28.28,0,0,0-.08.21h0l-1,.95a5.27,5.27,0,0,0,1,.61,4.08,4.08,0,0,0,.88.31L4,25.51a.31.31,0,0,0,.41,0l.3-.3h.14a10.52,10.52,0,0,1,1.26,1.46l.66,1.09a2.68,2.68,0,0,0,.53,1.12A5.81,5.81,0,0,0,8.21,30l2.43-1.5a3.87,3.87,0,0,0-.56-1.22,3.89,3.89,0,0,0-.83-1.07L6.93,27.63a10.29,10.29,0,0,0-.85-1.31A8.31,8.31,0,0,0,5,25.12L5.15,25,5,24.84l0-.05.1.09,1.33-1.32h.26L22.61,7.7V7.42l.29-.29a10.18,10.18,0,0,1,2-1.42,26.29,26.29,0,0,0,2.75-1.47c.18-.17.07-.27.07-.27a1.29,1.29,0,0,1,.33-.2c.18-.07.76-.13-1.34-2.22S24.57,0,24.5.21Z" transform="translate(0)" fill="#212121"/><rect width="30" height="30" fill="none"/></svg>