<svg xmlns="http://www.w3.org/2000/svg" viewBox="0 0 30 30"><g id="callers"><g id="gadwallcaller"><path d="M20.76,13.45c-.2-.26-2.08-2.13-2.08-2.13s-1.87-1.88-2.13-2.08A.84.84,0,0,0,16,9.11l-.75.75,2.46,2.47,2.47,2.46.75-.75A.84.84,0,0,0,20.76,13.45Z" transform="translate(0)" fill="#212121"/><path d="M2.77,29.37A3.26,3.26,0,0,0,4.19,30c.15,0,.43-.35.43-.35l14.66-14,.28.27.05.05a.23.23,0,0,0,.31,0l.32-.33a.27.27,0,0,0,.08-.25.94.94,0,0,0,0-.09,1.92,1.92,0,0,0-.29-.29l-2.47-2.47L15.06,10a1.92,1.92,0,0,0-.29-.29l-.09,0a.27.27,0,0,0-.25.08l-.33.32a.23.23,0,0,0,0,.31l.05,0,.27.28L.35,25.38s-.32.28-.35.43a3.26,3.26,0,0,0,.63,1.42,9.19,9.19,0,0,0,1,1.12A9.19,9.19,0,0,0,2.77,29.37Zm7.3-9.71a.42.42,0,0,1-.13-.48.49.49,0,0,0,0-.39.43.43,0,0,1,.1-.41c.12-.16.32-.34.57-.67a7.64,7.64,0,0,0,.68-1,5.45,5.45,0,0,1,.28-.5s.05,0,.35,0a1.67,1.67,0,0,0,.83-.41c.29-.22.31-.25.37-.14a3.5,3.5,0,0,0,.26.62Zm-.83-.22a1.51,1.51,0,0,1,0-.69l-.13.13a.63.63,0,0,1,0-.21.43.43,0,0,1,.13-.22l-.1,0a1.14,1.14,0,0,0,.26-.06A1.74,1.74,0,0,0,9.88,18a1.39,1.39,0,0,0,.38-.67,4,4,0,0,0,.09-.59l.15.16s-.05-.28-.1-.49a1.12,1.12,0,0,1,.2-.72,4.5,4.5,0,0,1,.49-.52h-.15a1.34,1.34,0,0,1,.31-.25,2.42,2.42,0,0,1,.42-.22l-.21,0a.65.65,0,0,1,.16-.09c.09-.05.5-.21.83-.33a2.76,2.76,0,0,0,.86-.44c.18-.18.24-.32.42-.5a.78.78,0,0,1,.45-.28,1.67,1.67,0,0,1,.39,0L14.51,13a.38.38,0,0,1,.14,0,.39.39,0,0,1,.14.1l0-.11a.5.5,0,0,1,.16.11l.11.1L15,13a.61.61,0,0,1,.14.12l.11.13,0-.16a.29.29,0,0,1,.11.11l.11.19,0-.18.11.15a.6.6,0,0,1,.1.22v-.19a.38.38,0,0,1,.13.18c.06.14,0,.26.09.32l-2.33,2.33a2.38,2.38,0,0,1-.19-.5c0-.13-.1-.31-.22-.26a7.5,7.5,0,0,1-.79.54.76.76,0,0,1-.66-.13c-.12-.09-.11-.13-.2,0s-.05.35-.23.71a7.82,7.82,0,0,1-1,1.44c-.35.4-.47.5-.52.67s0,.34,0,.51a1.36,1.36,0,0,0,0,.46.49.49,0,0,0,.13.18l-.29.3A1.21,1.21,0,0,1,9.24,19.44Zm7.34-5h-.19a.6.6,0,0,1,.22.1l.15.11-.18,0,.19.11a.29.29,0,0,1,.11.11l-.16,0,.13.11A.61.61,0,0,1,17,15l-.13,0,.1.11a.5.5,0,0,1,.11.16l-.11,0a.39.39,0,0,1,.1.14.38.38,0,0,1,0,.14L17,15.43a1.67,1.67,0,0,1,0,.39.78.78,0,0,1-.28.45c-.18.18-.32.24-.5.42a2.76,2.76,0,0,0-.44.86c-.12.33-.28.74-.33.83a.65.65,0,0,1-.09.16l0-.21a2.42,2.42,0,0,1-.22.42,1.34,1.34,0,0,1-.25.31v-.15a4.5,4.5,0,0,1-.52.49,1.12,1.12,0,0,1-.72.2l-.49-.1.16.15a4,4,0,0,0-.59.09,1.39,1.39,0,0,0-.67.38,1.74,1.74,0,0,0-.35.52,1.14,1.14,0,0,0-.06.26l0-.1a.43.43,0,0,1-.22.13.63.63,0,0,1-.21,0l.13-.13a1.51,1.51,0,0,1-.69,0,1.21,1.21,0,0,1-.69-.36l.3-.29a.49.49,0,0,0,.18.13,1.36,1.36,0,0,0,.46,0c.17,0,.34.1.51,0s.27-.17.67-.52a7.82,7.82,0,0,1,1.44-1c.36-.18.61-.13.71-.23s0-.08,0-.2a.76.76,0,0,1-.13-.66,7.5,7.5,0,0,1,.54-.79c.05-.12-.13-.17-.26-.22a2.38,2.38,0,0,1-.5-.19l2.33-2.33c.06.07.18,0,.32.09A.38.38,0,0,1,16.58,14.41Zm-6.24,5.52,3.34-3.34a3.5,3.5,0,0,0,.62.26c.11.06.08.08-.14.37a1.67,1.67,0,0,0-.41.83c0,.3.05.32,0,.35a5.45,5.45,0,0,1-.5.28,7.64,7.64,0,0,0-1,.68c-.33.25-.51.45-.67.57a.43.43,0,0,1-.41.1.49.49,0,0,0-.39,0A.42.42,0,0,1,10.34,19.93Z" transform="translate(0)" fill="#212121"/><path d="M15.43,16.52c-.24.24-.19.42-.15.46a.28.28,0,0,0,.13.07h.1a.27.27,0,0,1-.14-.07c-.07-.07,0-.11,0-.13s0,0,.11,0a.4.4,0,0,0,.4-.12c.16-.15.06-.21,0-.24l-.08,0,.09,0H16A.56.56,0,0,0,15.43,16.52Zm.28.24s-.07,0-.09,0,0-.08,0-.11.08-.05.09,0S15.76,16.71,15.71,16.76Z" transform="translate(0)" fill="#212121"/><path d="M13.45,17.66l.11-.12s-.17.06-.17.06a1.12,1.12,0,0,1,.13-.15.51.51,0,0,1,.26-.14.16.16,0,0,0,.12,0,.06.06,0,0,0,0-.09s-.2-.09-.4.12-.28.4-.25.43S13.37,17.74,13.45,17.66Z" transform="translate(0)" fill="#212121"/><path d="M16.65,9.12c.32.26,2.16,2.07,2.16,2.07s1.81,1.84,2.07,2.16.15.55.15.55a1.89,1.89,0,0,0,.25.21l.12,0a.23.23,0,0,0,.23-.08l.5-.5a.33.33,0,0,0,.08-.25,1.35,1.35,0,0,0-.09-.26,2.45,2.45,0,0,0-.41-.5S30,4.65,30,4.5a2.11,2.11,0,0,0-.48-1.34,8.71,8.71,0,0,0-1.27-1.4A8.71,8.71,0,0,0,26.84.49,2.11,2.11,0,0,0,25.5,0c-.15,0-8.06,8.28-8.06,8.28a2.45,2.45,0,0,0-.5-.41,1.35,1.35,0,0,0-.26-.09.33.33,0,0,0-.25.08l-.5.5a.23.23,0,0,0-.08.23.56.56,0,0,0,0,.12A1.89,1.89,0,0,0,16.1,9S16.33,8.86,16.65,9.12Z" transform="translate(0)" fill="#212121"/><path d="M13.48,14.57a.56.56,0,0,0,.1-.58.66.66,0,0,1,0,.11.85.85,0,0,1,0,.09l0-.08s-.09-.13-.24,0a.4.4,0,0,0-.12.4c0,.07,0,.09,0,.11s-.06,0-.13,0a.27.27,0,0,1-.07-.14.31.31,0,0,0,0,.1.28.28,0,0,0,.07.13S13.24,14.81,13.48,14.57Zm-.24-.28s.1,0,.12,0,0,.05,0,.09-.09.05-.11,0S13.19,14.33,13.24,14.29Z" transform="translate(0)" fill="#212121"/><path d="M12.72,16.1a.16.16,0,0,0,0,.12.51.51,0,0,1-.14.26,1.12,1.12,0,0,1-.15.13s.09-.13.06-.17l-.12.11c-.08.08-.11.18-.08.2s.22,0,.43-.25.16-.36.12-.4A.06.06,0,0,0,12.72,16.1Z" transform="translate(0)" fill="#212121"/></g></g><g id="frame"><rect width="30" height="30" fill="none"/></g></svg>