<svg xmlns="http://www.w3.org/2000/svg" viewBox="0 0 30 30"><path d="M24.72.22c-.59-.35-.85-.34-1.28.42A17.76,17.76,0,0,1,20.1,4.21,40.55,40.55,0,0,1,16.31,7a21.49,21.49,0,0,0-2.78,1.9,3,3,0,0,0-.77,1.47c0,.35.52.8,2,2.26l1.33,1.34,1.34,1.33c1.46,1.45,1.91,2,2.26,2a3,3,0,0,0,1.47-.77A21.49,21.49,0,0,0,23,13.69,40.55,40.55,0,0,1,25.79,9.9a17.76,17.76,0,0,1,3.57-3.34c.76-.43.77-.69.42-1.28a16.66,16.66,0,0,0-2.36-2.7A16.66,16.66,0,0,0,24.72.22Z" fill="#212121"/><path d="M11.42,11.51c-.51,0-.7.43-1.39,1.13s-.92.75-.88,1.26a1.24,1.24,0,0,0,.55.82s-.87.6-.83,1.12,1.06,1.27,2.54,2.75,2.22,2.5,2.75,2.54,1.12-.83,1.12-.83a1.24,1.24,0,0,0,.82.55c.51,0,.57-.18,1.26-.88s1.17-.88,1.13-1.39S17.18,17,15.08,14.92,11.92,11.55,11.42,11.51Z" fill="#212121"/><path d="M8.14,16.91a.63.63,0,0,0-.64.2l-.24.25a.64.64,0,0,0-.4-.17c-.26,0-.93,1.25-3.21,3.52S.29,23.47.32,23.82a3.56,3.56,0,0,0,.08.55.64.64,0,0,0-.37.79c.14.6.76,1.27,2.15,2.66s2.06,2,2.66,2.15a.64.64,0,0,0,.79-.37,3.56,3.56,0,0,0,.55.08c.35,0,.83-1.06,3.11-3.33s3.54-3,3.52-3.21a.64.64,0,0,0-.17-.4l.25-.24a.63.63,0,0,0,.2-.64c-.07-.39-1.4-1.33-2.51-2.44S8.53,17,8.14,16.91Z" fill="#212121"/><path d="M9.22,17.46l.26-.26c.07-.07.17-.09.22,0l3.61,3.61c0,.05,0,.15,0,.22l-.26.25c-.07.08-.17.1-.22.05L9.18,17.68C9.13,17.63,9.15,17.53,9.22,17.46Z" fill="#212121"/><path d="M13.18,12.34l.35-.35c.08-.07.18-.09.23,0L18.6,16.8s0,.14,0,.22l-.35.35c-.07.07-.17.09-.22,0l-4.85-4.85C13.09,12.51,13.11,12.41,13.18,12.34Z" fill="#212121"/><rect width="30" height="30" fill="none"/></svg>