<!-- Copyright (c) 2022 - 2023 Jan Stehno -->
<svg xmlns="http://www.w3.org/2000/svg" viewBox="0 0 300 300"><title>magpiegoosecaller</title><g id="callers"><g id="magpiegoosecaller"><path d="M247.24,2.22c-5.9-3.48-8.51-3.42-12.84,4.2S214.91,30.67,201,42.06a385.77,385.77,0,0,1-37.95,27.65c-14.55,9.48-23.21,14.42-27.79,19a29.43,29.43,0,0,0-7.68,14.69c-.48,3.46,5.23,8,19.77,22.57l13.26,13.42L174,152.65c14.54,14.54,19.11,20.25,22.57,19.77a29.43,29.43,0,0,0,14.69-7.68c4.58-4.58,9.52-13.24,19-27.79A385.77,385.77,0,0,1,257.94,99c11.39-13.91,28-29.06,35.64-33.4s7.68-6.94,4.2-12.84S287.28,39,274.16,25.84,253.14,5.71,247.24,2.22Z" transform="translate(0)" fill="#212121"/><path d="M114.18,115.06c-5.06-.41-7,4.38-13.92,11.33S91.07,133.9,91.47,139s5.5,8.21,5.5,8.21-8.67,6-8.26,11.24,10.62,12.65,25.42,27.46,22.21,25,27.46,25.42S152.83,203,152.83,203s3.15,5.1,8.21,5.5,5.62-1.84,12.57-8.79,11.74-8.86,11.33-13.92-13.13-15.68-34.11-36.65S119.25,115.46,114.18,115.06Z" transform="translate(0)" fill="#212121"/><path d="M81.4,169.11c-3.9-.72-5.34,1-6.36,2l-2.48,2.48a6.29,6.29,0,0,0-4-1.69c-2.62-.21-9.3,12.44-32.06,35.2S2.89,234.72,3.17,238.24A36.1,36.1,0,0,0,4,243.72s-5.13,1.86-3.7,7.87,7.67,12.67,21.58,26.58,20.56,20.14,26.58,21.58,7.87-3.7,7.87-3.7a36.1,36.1,0,0,0,5.48.78c3.52.28,8.35-10.59,31.11-33.35s35.41-29.44,35.2-32.06a6.29,6.29,0,0,0-1.69-4l2.48-2.48c1-1,2.75-2.46,2-6.36s-14-13.32-25.06-24.43S85.3,169.83,81.4,169.11Z" transform="translate(0)" fill="#212121"/><path d="M92.21,174.56,94.77,172c.74-.74,1.73-.94,2.23-.45l36.1,36.11c.5.49.29,1.49-.45,2.23l-2.55,2.55c-.74.74-1.74.94-2.23.45L91.76,176.79C91.27,176.3,91.47,175.3,92.21,174.56Z" transform="translate(0)" fill="#212121"/><path d="M131.83,123.42l3.52-3.52c.72-.73,1.71-.92,2.2-.43L186,168c.49.5.3,1.49-.43,2.21l-3.52,3.52c-.73.73-1.72.92-2.21.43L131.4,125.63C130.91,125.14,131.1,124.15,131.83,123.42Z" transform="translate(0)" fill="#212121"/></g></g><g id="frame"><rect width="300" height="300" fill="none"/></g></svg>