<!-- Copyright (c) 2022 - 2023 Jan Stehno -->
<svg xmlns="http://www.w3.org/2000/svg" viewBox="0 0 300 300"><title>moosecaller</title><g id="Layer_23" data-name="Layer 23"><g id="moosecaller"><path d="M225.25,1c-3.47,3.47-10.06,11.44-22.12,26.33s-54,80-70.72,104.41S105,169.33,105,169.33l-1.73-.08.08,1.81L95.49,179l-1.81-.08.07,1.7-30,30L62,210.48l.07,1.7-8.62,8.62-1.66-.07.06,1.55L35.45,238.67l.27,6.19-2.29,2.3.08,1.88-2.18,2.18-2-.09-2.06,2.06.09,2.06L16.26,266.36c-8.92,8.92-5.71,10.23-11.68,16.2s-5.64,10.54-1.66,14.52,8.55,4.31,14.52-1.66,7.28-2.76,16.2-11.68l11.11-11.11,2.06.09,2.06-2.06-.09-2L51,266.49l1.88.08,2.3-2.29,6.19.27,2.39-2.38c1.09,1.24,5.33,5.34,10.21.46s1.17-9.51,0-10.71l3.75-3.75,1.55.06-.07-1.66L87.82,238l1.7.07-.08-1.79,30-30,1.7.07-.08-1.81,7.9-7.89,1.81.08-.08-1.73s13.15-10.69,37.58-27.38c19.83-13.55,66.45-43.76,91.26-61.1,1.22,1.7,4.64,5.35,9.75,1.6s3.08-8.26,2-10.1l1.43-1.12C287.55,84.81,295.52,78.22,299,74.75s-1-16.08-29.31-44.43S228.72-2.45,225.25,1ZM72.15,260.74c-3.25,3.25-5.86.66-6.67-.33l6.62-6.62C73,254.67,75.4,257.49,72.15,260.74ZM267.8,106c-3.27,2.4-5.37.38-6.26-.88,2.92-2.06,5.49-3.91,7.6-5.49C270,100.91,271,103.59,267.8,106Z" fill="#212121"/></g></g><g id="frame"><rect width="300" height="300" fill="none"/></g></svg>