<svg xmlns="http://www.w3.org/2000/svg" viewBox="0 0 30 30"><path d="M22.53.1c-.35.35-1,1.15-2.22,2.63s-5.4,8-7.07,10.45-2.74,3.75-2.74,3.75h-.17v.19l-.79.79H9.37v.17l-3,3H6.2v.17l-.87.86H5.18v.16L3.54,23.87l0,.62-.23.23v.18l-.22.22h-.2l-.2.21v.2L1.63,26.64c-.9.89-.58,1-1.17,1.62s-.57,1-.17,1.45.86.43,1.45-.17.73-.27,1.62-1.17l1.12-1.11h.2l.21-.2v-.2l.22-.22h.18l.23-.23.62,0,.24-.24a.65.65,0,0,0,1,0,.72.72,0,0,0,0-1.07l.37-.37h.16v-.16l.86-.87H9v-.18l3-3h.17v-.18l.79-.79h.19V19.5s1.31-1.07,3.75-2.74c2-1.36,6.65-4.38,9.13-6.11a.65.65,0,0,0,1,.16.71.71,0,0,0,.19-1l.15-.11c1.48-1.21,2.28-1.87,2.63-2.22S29.8,5.87,27,3,22.87-.25,22.53.1Zm-15.31,26a.41.41,0,0,1-.67,0l.66-.66A.45.45,0,0,1,7.22,26.07ZM26.78,10.6a.41.41,0,0,1-.63-.09l.76-.55A.43.43,0,0,1,26.78,10.6Z" fill="#212121"/><rect width="30" height="30" fill="none"/></svg>