<svg xmlns="http://www.w3.org/2000/svg" viewBox="0 0 30 30"><g id="callers"><g id="northenpintailcaller"><path d="M18.51,24.38l0-.7.12-.41.05-.5-.7-.59-1.45-.25H15v7.31h.7l1.67-.08.91-.17.49-.23.1-.15v-.27l-.12-1.45Z" transform="translate(0)" fill="#212121"/><path d="M25,7l-.21-.41-.3-.29-.24-.11H20.81l-.59-.46L19.37,5l-.91-.88-.68-.94-.59-1.34L16.91,1,16.76.8l-.14,0h-.18L16.16.9A9.22,9.22,0,0,1,15,1V3.77a1.82,1.82,0,0,0,.5-.06l.2-.14.28,0,.18.19.25.87,0,.43-.18.15a8.41,8.41,0,0,1-1.21.1V7.14l1,0,1.28,3,.11,1.4-.3-.16L17,10.22,15.81,7.47l-.81,0V21.66h1.57l1.56.29,1.07-3.43.12-.48-.15-.24-.52-.21,5.15-5.06.52-.06.32-.15.26-.27.14-.41.08-.56V7.54ZM18.23,17,18,16.74V12.22l.24.22Zm1.42-2.58a.9.9,0,1,1,.9-.9A.9.9,0,0,1,19.65,14.42Z" transform="translate(0)" fill="#212121"/><path d="M11.49,24.38l0-.7-.12-.41,0-.5.7-.59,1.45-.25H15v7.31h-.7l-1.67-.08L11.72,29l-.49-.23-.1-.15v-.27l.12-1.45Z" transform="translate(0)" fill="#212121"/><path d="M4.88,7.54v3.54l.08.56.14.41.26.27.32.15.52.06,5.15,5.06-.52.21-.15.24.12.48L11.87,22l1.56-.29H15V7.43l-.81,0L13,10.22l-.11,1.19-.3.16.11-1.4,1.28-3,1,0V5.27a8.41,8.41,0,0,1-1.21-.1L13.61,5l0-.43.25-.87L14,3.53l.28,0,.2.14a1.82,1.82,0,0,0,.5.06V1A9.22,9.22,0,0,1,13.84.9L13.56.78h-.18l-.14,0L13.09,1l-.28.85-.59,1.34-.68.94L10.63,5l-.85.68-.59.46H5.74l-.24.11-.3.29L5,7Zm6.89,4.9.24-.22v4.52l-.24.26ZM9.45,13.52a.9.9,0,1,1,.9.9A.9.9,0,0,1,9.45,13.52Z" transform="translate(0)" fill="#212121"/></g></g><g id="frame"><rect width="30" height="30" fill="none"/></g></svg>