<!-- Copyright (c) 2022 - 2023 Jan Stehno -->
<svg xmlns="http://www.w3.org/2000/svg" viewBox="0 0 300 300"><title>predatordistressedfawncaller</title><g id="Layer_23" data-name="Layer 23"><g id="predatordistressedfawncaller"><path d="M260.08.21c-5,1.31-34,33.49-45.65,42.66S182.81,65.4,182.81,65.4h-4L165.91,78.28v3s-5,5.31-24.29,24.28-45.88,44.45-45.88,44.45,13.4,15,26.28,27.93S150,204.26,150,204.26s25.48-26.58,44.45-45.88,24.28-24.29,24.28-24.29h3l12.88-12.87v-4S248,97.27,257.13,85.57s41.35-40.63,42.66-45.65S296.33,29.13,283.6,16.4,265.1-1.1,260.08.21Z" fill="#212121"/><path d="M110.43,189.57c-17.71-17.7-26.18-28.28-26.18-28.28S79,165.86,70.44,173.45s-9.17,6.64-8.6,14.41,3.65,9.38,3.65,9.38-7,6.33-13.78,11.26a206.44,206.44,0,0,0-30.27,25.59c-15,15-21.56,18.4-21.44,25.23s5.31,12.27,16.86,23.82,17,16.73,23.82,16.86,10.25-6.45,25.23-21.44A206.44,206.44,0,0,0,91.5,248.29c4.93-6.78,11.26-13.78,11.26-13.78s1.6,3.08,9.38,3.65,6.82,0,14.41-8.6,12.16-13.81,12.16-13.81S128.13,207.28,110.43,189.57Z" fill="#212121"/><path d="M146.83,205h0c-4.35-4.78-13.73-12.69-26.44-25.41-16.65-16.65-25.09-27.61-29-29s-6.76,1.58-6.19,6.2,10.24,14.29,27,31,26.41,26.41,31,27c0,0,16.55,12.38,24.33,26.1s14.41,25.29,22.82,29.53,15.5.06,14.74-9.8-16.63-22.07-22.07-29-8.22-13-17-18.15A111.44,111.44,0,0,0,146.83,205ZM187.93,249c10.75,9.86,10.06,15.49,6.89,14.1S177,243.53,169.14,227.27C169,226.86,177.18,239.08,187.93,249Z" fill="#212121"/></g></g><g id="frame"><rect width="300" height="300" fill="none"/></g></svg>