<svg xmlns="http://www.w3.org/2000/svg" viewBox="0 0 30 30"><path d="M26,0c-.5.13-3.4,3.35-4.57,4.27s-3.16,2.25-3.16,2.25h-.4L16.59,7.83v.3s-.5.53-2.43,2.43S9.57,15,9.57,15s1.34,1.5,2.63,2.79S15,20.43,15,20.43s2.55-2.66,4.45-4.59,2.43-2.43,2.43-2.43h.3l1.29-1.29v-.4s1.34-2,2.25-3.16S29.85,4.49,30,4s-.35-1.08-1.62-2.35S26.51-.11,26,0Z" fill="#212121"/><path d="M11,19c-1.77-1.77-2.62-2.83-2.62-2.83L7,17.34c-.86.76-.91.67-.86,1.45s.37.93.37.93-.7.64-1.38,1.13a20.43,20.43,0,0,0-3,2.56C.65,24.91,0,25.25,0,25.93s.53,1.23,1.69,2.38S3.39,30,4.07,30s1-.65,2.52-2.14a20.43,20.43,0,0,0,2.56-3c.49-.68,1.13-1.38,1.13-1.38s.16.31.93.37.69,0,1.45-.86l1.21-1.38S12.81,20.73,11,19Z" fill="#212121"/><path d="M14.68,20.5h0C14.25,20,13.31,19.23,12,18a28.75,28.75,0,0,0-2.9-2.9c-.39-.14-.68.16-.62.62s1,1.43,2.7,3.1,2.64,2.65,3.1,2.7a10.56,10.56,0,0,1,2.43,2.61c.78,1.37,1.44,2.53,2.28,2.95s1.55,0,1.48-1-1.67-2.2-2.21-2.9a5.6,5.6,0,0,0-1.7-1.81A11.63,11.63,0,0,0,14.68,20.5Zm4.11,4.39c1.08,1,1,1.55.69,1.41a12.65,12.65,0,0,1-2.57-3.57A15.25,15.25,0,0,0,18.79,24.89Z" fill="#212121"/><rect width="30" height="30" fill="none"/></svg>