<!-- Copyright (c) 2022 - 2023 Jan Stehno -->
<svg xmlns="http://www.w3.org/2000/svg" viewBox="0 0 300 300"><title>raccoonsquallcaller</title><g id="Layer_23" data-name="Layer 23"><g id="raccoonsquallcaller"><path d="M277.42,22.58l0,0h0C243.72-11.1,239-.63,225.69,12.66S212.35,25.41,210,32.21s-68.1,70.7-94.49,97.08S82.93,159,77,162.74s-7.54,5.69-6.74,10.95-2.78,7.48-7.3,7.91-14.65,7.49-15.45,9.53,1,3.77,1,3.77-6.8,5.32-6.56,9.64,2.29,5.63,2.29,5.63S.13,253.33,0,256.67s1.36,9.27,17.68,25.6h0l0,0,0,0h0C34.06,298.63,40,300.12,43.33,300s46.5-44.27,46.5-44.27,1.3,2,5.63,2.29c3.55.2,7.76-4.33,9.16-6a26.11,26.11,0,1,0,36.23-34.59c3.86-5.51,10.94-14,29.86-33C197.09,158.1,261,92.35,267.79,90s6.26-2.4,19.55-15.69,23.76-18-9.9-51.7h0Zm-139.11,228a14.89,14.89,0,0,1-21.08,0,14.65,14.65,0,0,1-3-4.35c2.08-3.2,4-6.88,4.18-9.14.43-4.52,2.66-8.11,7.91-7.3,3.9.6,6-.14,8.34-3a14.72,14.72,0,0,1,3.66,2.68A14.9,14.9,0,0,1,138.31,250.54Z" transform="translate(0)" fill="#212121"/></g></g><g id="frame"><rect width="300" height="300" fill="none"/></g></svg>