<svg xmlns="http://www.w3.org/2000/svg" viewBox="0 0 30 30"><path d="M27.74,2.26h0c-3.37-3.37-3.84-2.32-5.17-1s-1.34,1.27-1.57,2-6.81,7.07-9.45,9.71-3.26,3-3.85,3.34-.76.57-.67,1.1-.28.75-.73.79a3.32,3.32,0,0,0-1.55.95.38.38,0,0,0,.1.38s-.68.53-.65,1a.69.69,0,0,0,.23.57S0,25.33,0,25.67s.14.92,1.77,2.56h0C3.41,29.86,4,30,4.33,30S9,25.57,9,25.57a.69.69,0,0,0,.57.23c.35,0,.77-.43.91-.6a2.64,2.64,0,0,0,.47.64,2.61,2.61,0,0,0,3.69-3.69,2.55,2.55,0,0,0-.53-.4,25.53,25.53,0,0,1,3-3.3c2.64-2.64,9-9.21,9.71-9.45s.62-.24,1.95-1.57,2.38-1.8-1-5.17ZM13.83,25.05a1.48,1.48,0,0,1-2.11,0,1.39,1.39,0,0,1-.3-.43,2.51,2.51,0,0,0,.42-.92c0-.45.27-.81.79-.73a.76.76,0,0,0,.83-.29,1.22,1.22,0,0,1,.37.27A1.48,1.48,0,0,1,13.83,25.05Z" transform="translate(0)" fill="#212121"/><rect width="30" height="30" fill="none"/></svg>