<svg xmlns="http://www.w3.org/2000/svg" viewBox="0 0 30 30"><path d="M1.39,27.86C.93,27.41.58,27.33.26,27s-.48-.37.35-1.4A52,52,0,0,1,7,18.68,27.25,27.25,0,0,1,12.25,15,25.4,25.4,0,0,0,18.06,11,26,26,0,0,0,22.58,3.9c.69-1.74.51-2,1.08-2s1,.4,1.85,1.14,2.75,1.38,3.63,2.27A2.32,2.32,0,0,1,30,7.4a34.42,34.42,0,0,1-5.24,6.1,22.71,22.71,0,0,1-9,5.05,26.41,26.41,0,0,0-9.17,5.54c-2.63,2.22-3.47,3-4.07,3.58S1.86,28.34,1.39,27.86Z" transform="translate(0)" fill="#212121"/><rect width="30" height="30" fill="none"/></svg>