<!-- Copyright (c) 2022 - 2023 Jan Stehno -->
<svg xmlns="http://www.w3.org/2000/svg" viewBox="0 0 300 300"><title>reddeercaller</title><g id="Layer_23" data-name="Layer 23"><g id="reddeercaller"><path d="M13.87,278.62c-4.53-4.53-8-5.28-11.27-8.51s-4.79-3.72,3.54-14,35.94-45.81,64.23-69.31,33.05-26.41,52.11-37.32,39.92-21.22,58.14-39.44S219,56.36,225.82,39s5-20.38,10.75-20.5,9.79,4,18.5,11.47,27.49,13.74,36.36,22.61,9.19,17.35,8.16,21.42-27.1,37.65-52.43,61.06-50.43,37.17-89.91,50.43-65,32.87-91.77,55.45c-26.26,22.17-34.67,30.39-40.66,35.74S18.61,283.35,13.87,278.62Z" transform="translate(0)" fill="#212121"/></g></g><g id="frame"><rect width="300" height="300" fill="none"/></g></svg>