<!-- Copyright (c) 2023 Jan Stehno -->
<svg xmlns="http://www.w3.org/2000/svg" viewBox="0 0 300 300">
    <title>roedeercaller</title>
    <g id="Layer_23" data-name="Layer 23">
        <g id="roedeercaller">
            <path
                d="M192.33,145.91c-.39-16.24.25-40.4-9.34-51.91s-19.68-15.34-36.56-15.34h-51c-16.87,0-27,3.84-36.56,15.34S50,129.67,49.57,145.91s-5,21.73-5,21.73V198.2c0,10.86,5.24,14.7,10,16,4.26,1.15,32.8,1.57,58.77,1.65h15.26c26-.08,54.51-.5,58.76-1.65,4.73-1.28,10-5.12,10-16V167.64S192.71,162.15,192.33,145.91Z"
                transform="translate(0)" fill="#212121" />
            <path
                d="M45.73,194h-17a3.71,3.71,0,0,1-2.61-1.08l0,0A3.73,3.73,0,0,1,25,190.25v-.71a3.69,3.69,0,0,1,1.08-2.61h0a3.69,3.69,0,0,1,2.61-1.08h17Z"
                transform="translate(0)" fill="#212121" />
            <path
                d="M243.25,155.88c-19.56,0-27,11.38-27,11.38h-3.39l-1.74-2.33a2.49,2.49,0,0,0-4,.09l-1.85,2.72-3-3a2.69,2.69,0,0,0-1.9-.78H194.8L194,208.3l1.1,2.88a3.07,3.07,0,0,0,2.87,2h2.31a3.16,3.16,0,0,0,1.91-.66l3-2.35,1.36,2a2.73,2.73,0,0,0,2.27,1.21,2.76,2.76,0,0,0,1.94-.8l2.49-2.49h3.45s10.23,11.25,26,11.25S275,209,275,190.31,262.81,155.88,243.25,155.88ZM244.4,195a6.07,6.07,0,1,1,6.08-6.07A6.07,6.07,0,0,1,244.4,195Z"
                transform="translate(0)" fill="#212121" />
        </g>
    </g>
    <g id="frame">
        <rect width="300" height="300" fill="none" />
    </g>
</svg>