<svg xmlns="http://www.w3.org/2000/svg" viewBox="0 0 30 30"><path d="M19.23,14.59c0-1.62,0-4-.93-5.19a4.15,4.15,0,0,0-3.66-1.53H9.55A4.15,4.15,0,0,0,5.89,9.4C4.93,10.55,5,13,5,14.59a3.74,3.74,0,0,1-.5,2.17v3.06c0,1.09.52,1.47,1,1.6s3.27.16,5.87.16h1.53c2.59,0,5.45,0,5.87-.16s1-.51,1-1.6V16.76A3.74,3.74,0,0,1,19.23,14.59Z" transform="translate(0)" fill="#212121"/><path d="M4.57,19.4H2.87a.36.36,0,0,1-.26-.11h0A.38.38,0,0,1,2.5,19V19a.38.38,0,0,1,.11-.26h0a.36.36,0,0,1,.26-.11h1.7Z" transform="translate(0)" fill="#212121"/><path d="M24.33,15.59a3.2,3.2,0,0,0-2.71,1.14h-.34l-.17-.24a.25.25,0,0,0-.41,0l-.18.27-.3-.3a.27.27,0,0,0-.19-.08h-.55l-.08,4.44.11.29a.3.3,0,0,0,.28.2H20a.37.37,0,0,0,.19-.07l.3-.23.13.2a.29.29,0,0,0,.23.12.27.27,0,0,0,.19-.08l.25-.25h.35a3.79,3.79,0,0,0,2.59,1.12,3.27,3.27,0,0,0,.07-6.54Zm.11,3.91a.61.61,0,1,1,.61-.61A.61.61,0,0,1,24.44,19.5Z" transform="translate(0)" fill="#212121"/><rect width="30" height="30" fill="none"/></svg>