<svg xmlns="http://www.w3.org/2000/svg" viewBox="0 0 30 30"><path d="M24.47.08A10.73,10.73,0,0,0,23.9,2,6.38,6.38,0,0,1,21,4.68c-.85.27-1,.51-1.55,1.83a6.3,6.3,0,0,1-3.09,2.84,4,4,0,0,0-1.39,1l.25.25-.53.53-.26-.26-.72.72s-.25-.25-.39-.25-.23.15-1.18,1.09-1.15,1.13-1.15,1.26.28.36.28.36l-.3.3s-.52-.5-.71-.31a43,43,0,0,1-5,6.77A53.42,53.42,0,0,1,0,25.05c-.08.23.25,1,2.08,2.86S4.72,30.07,5,30a53.42,53.42,0,0,1,4.27-5.16,43,43,0,0,1,6.77-5c.19-.19-.31-.71-.31-.71l.3-.3s.22.28.36.28.32-.21,1.26-1.15,1.09-1.05,1.09-1.18-.25-.39-.25-.39l.72-.72-.26-.26.53-.53.25.25a4,4,0,0,0,1-1.39,6.3,6.3,0,0,1,2.84-3.09c1.32-.54,1.56-.7,1.83-1.55A6.38,6.38,0,0,1,28,6.1a10.73,10.73,0,0,0,2-.57c.22-.22.14-1-2.15-3.3S24.69-.14,24.47.08ZM19,14.27a.33.33,0,0,1,0,.47l-.12.12a.35.35,0,0,1-.47,0l-1.61-1.61-1.61-1.61a.35.35,0,0,1,0-.47l.12-.12a.33.33,0,0,1,.47,0l1.61,1.61Z" fill="#212121"/><rect width="30" height="30" fill="none"/></svg>