<!-- Copyright (c) 2022 Jan Stehno -->
<svg xmlns="http://www.w3.org/2000/svg" viewBox="0 0 300 300"><title>shortreedcanadagoosecaller</title><g id="Layer_23" data-name="Layer 23"><g id="shortreedcanadagoosecaller"><path d="M244.74.8C242.56,3,241.83,11.36,239,20.28S218.1,44.07,209.55,46.8,199.35,51.9,194,65.13s-20.75,23.54-30.95,28.4-13.9,9.65-13.9,9.65l2.55,2.55L146.43,111l-2.61-2.61-7.22,7.22s-2.55-2.55-3.88-2.55-2.37,1.52-11.78,10.92-11.55,11.31-11.55,12.65,2.8,3.6,2.8,3.6l-3,3s-5.22-5.06-7.12-3.15S78.12,181.42,51.74,207.8,1,248.22.12,250.52s2.49,10.26,20.79,28.57,26.26,21.64,28.57,20.79,16.34-25.24,42.72-51.62,65.82-48.43,67.72-50.33-3.15-7.12-3.15-7.12l3-3s2.27,2.8,3.6,2.8,3.24-2.15,12.65-11.55,10.92-10.44,10.92-11.78-2.55-3.88-2.55-3.88l7.22-7.22L189,153.57l5.28-5.28,2.55,2.55s4.8-3.71,9.65-13.9,15.17-25.61,28.4-30.95,15.6-7,18.33-15.54S270.8,63.87,279.72,61,297,57.44,299.2,55.26s1.35-10-21.55-32.91S246.93-1.38,244.74.8ZM189.5,142.66a3.34,3.34,0,0,1,0,4.7l-1.19,1.19a3.32,3.32,0,0,1-4.7,0l-16.08-16.08-16.08-16.08a3.32,3.32,0,0,1,0-4.7l1.19-1.19a3.34,3.34,0,0,1,4.7,0l16.08,16.08Z" transform="translate(0)" fill="#212121"/></g></g><g id="frame"><rect width="300" height="300" fill="none"/></g></svg>