<svg xmlns="http://www.w3.org/2000/svg" viewBox="0 0 30 30"><g id="callers"><g id="snowgoosecaller"><path d="M14.08,15.92,27.9,2.1a11.14,11.14,0,0,0-1-.88L26,.54,24.9,0l-.39,0-.15.12-.15.22-.55.91-.78,1.14-.89,1-1.07.9-1.41.83L16.64,6.7l-1.58.88-.08.1V7.8l-.51,0-.23.07L12.58,9.5l-.08.23-.11.71-.46.15-.66.6-.39.46-.3.64,0,.19.88,1L13,14.83Z" fill="#212121"/><path d="M12.65,15.12l-1.49-1.25-1.39-.72H9.6l-.29.14-.16.13L9,13.65l-.49,1L7.37,16.84,6.61,18.1,5.83,19,5,19.88l-.95.81-.93.68L1.49,22.55l-1.17.87-.23.22L0,23.86l0,.37.16.34a30.32,30.32,0,0,0,2.39,2.88L13.78,16.22Z" fill="#212121"/><path d="M14.08,15.92,27.9,2.1a11.14,11.14,0,0,1,.88,1l.68.93L30,5.1l0,.39-.12.15-.22.15-.91.55-1.14.78-1,.89-.9,1.07-.83,1.41L23.3,13.36l-.88,1.58-.1.08H22.2l0,.51-.07.23L20.5,17.42l-.23.08-.71.11-.15.46-.6.66-.46.39-.64.3-.19,0-1.05-.88L15.17,17Z" fill="#212121"/><path d="M14.88,17.35l1.25,1.49.72,1.39v.17l-.14.29-.13.16-.24.15-1,.49-2.19,1.14-1.26.76-.94.78-.84.81-.81.95-.68.93L7.45,28.51l-.87,1.17-.22.23L6.14,30l-.37,0-.34-.16a30.32,30.32,0,0,1-2.88-2.39L13.78,16.22Z" fill="#212121"/></g></g><g id="frame"><rect width="30" height="30" fill="none"/></g></svg>