<!-- Copyright (c) 2023 Jan Stehno -->
<svg xmlns="http://www.w3.org/2000/svg" viewBox="0 0 300 300">
    <title>wildboarcaller</title>
    <g id="Layer_23" data-name="Layer 23">
        <g id="wildboarcaller">
            <path
                d="M281.59.08l-4.15,4.16V5.57l-8.6,8.61,3.33,3.33-1.9,1.9-1.74-1.73a2.88,2.88,0,0,0-4.08,0l0,0a2.88,2.88,0,0,0,0,4.08l1.91,1.92-2.14,2.14L262.34,24a2.88,2.88,0,0,0-4.08,0l-.62.61a2.89,2.89,0,0,0,0,4.09l1.94,1.94c.15.15-1.81,1.82-1.81,1.82L256,30.68a2.88,2.88,0,0,0-4.08,0l-.47.47a2.89,2.89,0,0,0,0,4.09l1.94,1.94-1.9,1.91-1.88-1.88a2.88,2.88,0,0,0-4.08,0l-.54.54a2.88,2.88,0,0,0,0,4.08l1.89,1.89-1.95,1.94L243,43.74a2.89,2.89,0,0,0-4.09,0l-.22.22a2.88,2.88,0,0,0,0,4.08l2,2-2,1.94-2-2a2.89,2.89,0,0,0-4.1,0l-.83.84a2.91,2.91,0,0,0,0,4.08l1.64,1.64-2.24,2.24-1.45-1.45a2.89,2.89,0,0,0-4.08,4.09L227.27,63l-1.84,1.85-1.79-1.79a2.9,2.9,0,0,0-4.08,0l-.42.42a2.89,2.89,0,0,0,0,4.09l1.7,1.7-1.78,1.79-1.95-1.94a2.76,2.76,0,0,0-3.92,0l-.68.67a2.89,2.89,0,0,0,0,4.09l1.65,1.64L212,77.69,210.33,76a2.89,2.89,0,0,0-4.09,0l-.43.44a2.88,2.88,0,0,0,0,4.08l1.58,1.59L205.49,84l-1.43-1.43a2.89,2.89,0,0,0-4.09,0l-.28.28a2.9,2.9,0,0,0,0,4.08l1.59,1.59-1.9,1.9-1.58-1.57a2.89,2.89,0,0,0-4.09,0l-.06.06a2.88,2.88,0,0,0,0,4.08L195,94.41l-2.26,2.27-1.41-1.41a2.89,2.89,0,0,0-4.09,0l-.52.52a2.89,2.89,0,0,0,0,4.09l1.29,1.29L186,103.25,184.69,102a2.88,2.88,0,0,0-4.08,0l-.29.29a2.89,2.89,0,0,0,0,4.09l1.41,1.41-1.85,1.84-1.44-1.44a2.88,2.88,0,0,0-4.08,0l-.56.56a2.89,2.89,0,0,0,0,4.09l1.59,1.58-1.85,1.85L172,114.67a2.89,2.89,0,0,0-4.09,0l-.56.56a2.88,2.88,0,0,0,0,4.08l1.56,1.56L166.79,123l-1.38-1.37a2.89,2.89,0,0,0-4.09,0l-.2.19a2.89,2.89,0,0,0,0,4.09l1.55,1.55-2.2,2.2L158.82,128a2.91,2.91,0,0,0-4.09,0l-.15.16a2.89,2.89,0,0,0,0,4.09l1.64,1.65-2.1,2.1-1.61-1.61a2.89,2.89,0,0,0-4.09,0l-.19.2a2.89,2.89,0,0,0,0,4.09l1.6,1.61-2,2-1.49-1.49a2.89,2.89,0,0,0-4.09,0l-.15.16a2.89,2.89,0,0,0,0,4.09l1.44,1.45c.08.08-2.46,2.46-2.46,2.46l-1.29-1.29a2.88,2.88,0,1,0-4.08,4.08l1.17,1.18-2.19,2.18L133.62,154a2.88,2.88,0,1,0-4.08,4.08l1.05,1.06-2.46,2.46-1-1.06a2.91,2.91,0,0,0-4.09,0l-.2.2a2.89,2.89,0,0,0,0,4.09l.85.85L112.29,177l-2.9-2.9-2.65,2.64h-1.53l-13.39,13.4-10-10-5.6,5.59,10.54,10.54L75.93,207.09H73l-43,43C17.06,263,3.78,280.9,1.16,283.88s-.65,5.77,4.27,10.69,7.72,6.89,10.69,4.27,20.9-15.9,33.75-28.75l43-43v-3l10.83-10.83,10.54,10.54,5.59-5.6-10-10,13.4-13.39v-1.53l2.64-2.65-2.9-2.9,11.35-11.35.85.85a2.89,2.89,0,0,0,4.09,0l.2-.2a2.91,2.91,0,0,0,0-4.09l-1.06-1,2.46-2.46,1.06,1.05a2.88,2.88,0,1,0,4.08-4.08L145,165.29l2.18-2.19,1.18,1.17a2.88,2.88,0,1,0,4.08-4.08l-1.29-1.29s2.38-2.54,2.46-2.46l1.45,1.44a2.89,2.89,0,0,0,4.09,0l.16-.15a2.89,2.89,0,0,0,0-4.09l-1.49-1.49,2-2,1.61,1.6a2.89,2.89,0,0,0,4.09,0l.2-.19a2.89,2.89,0,0,0,0-4.09L164,145.88l2.1-2.1,1.65,1.64a2.89,2.89,0,0,0,4.09,0l.16-.15a2.91,2.91,0,0,0,0-4.09l-1.65-1.65,2.2-2.2,1.55,1.55a2.89,2.89,0,0,0,4.09,0l.19-.2a2.89,2.89,0,0,0,0-4.09l-1.37-1.38,2.08-2.08,1.56,1.56a2.88,2.88,0,0,0,4.08,0l.56-.56a2.89,2.89,0,0,0,0-4.09l-1.59-1.58,1.85-1.85,1.58,1.59a2.89,2.89,0,0,0,4.09,0l.56-.56a2.88,2.88,0,0,0,0-4.08l-1.44-1.44,1.84-1.85,1.41,1.41a2.89,2.89,0,0,0,4.09,0l.29-.29a2.88,2.88,0,0,0,0-4.08l-1.26-1.26,2.08-2.09,1.29,1.29a2.89,2.89,0,0,0,4.09,0l.52-.52a2.89,2.89,0,0,0,0-4.09l-1.41-1.41,2.27-2.26,1.38,1.38a2.88,2.88,0,0,0,4.08,0l.06-.06a2.89,2.89,0,0,0,0-4.09l-1.57-1.58,1.9-1.9,1.59,1.59a2.9,2.9,0,0,0,4.08,0l.28-.28a2.89,2.89,0,0,0,0-4.09L216,94.51l1.91-1.9,1.59,1.58a2.88,2.88,0,0,0,4.08,0l.44-.43a2.89,2.89,0,0,0,0-4.09L222.31,88l2.17-2.16,1.64,1.65a2.89,2.89,0,0,0,4.09,0l.67-.68a2.76,2.76,0,0,0,0-3.92l-1.94-2,1.79-1.78,1.7,1.7a2.89,2.89,0,0,0,4.09,0l.42-.42a2.9,2.9,0,0,0,0-4.08l-1.79-1.79L237,72.73l1.64,1.64a2.89,2.89,0,1,0,4.09-4.08l-1.45-1.45,2.24-2.24,1.64,1.64a2.91,2.91,0,0,0,4.08,0l.84-.83a2.89,2.89,0,0,0,0-4.1l-2-2L250,59.35l2,1.95a2.88,2.88,0,0,0,4.08,0l.22-.22a2.89,2.89,0,0,0,0-4.09l-1.92-1.92,1.94-2L258.17,55a2.88,2.88,0,0,0,4.08,0l.54-.54a2.88,2.88,0,0,0,0-4.08l-1.88-1.88,1.91-1.9,1.94,1.94a2.89,2.89,0,0,0,4.09,0l.47-.47a2.88,2.88,0,0,0,0-4.08l-1.77-1.77s1.67-2,1.82-1.81l1.94,1.94a2.89,2.89,0,0,0,4.09,0l.61-.62a2.88,2.88,0,0,0,0-4.08l-1.85-1.86,2.14-2.14,1.92,1.91a2.88,2.88,0,0,0,4.08,0l0,0a2.88,2.88,0,0,0,0-4.08l-1.73-1.74,1.9-1.9,3.33,3.33,8.61-8.6h1.33l4.16-4.15s1.42-1.91-7.5-10.83S281.59.08,281.59.08Z"
                transform="translate(0 0)" fill="#212121" />
        </g>
    </g>
    <g id="frame">
        <rect width="300" height="300" fill="none" />
    </g>
</svg>