<svg xmlns="http://www.w3.org/2000/svg" viewBox="0 0 30 30"><path d="M28.16,0l-.42.41V.56l-.86.86.34.33L27,1.94l-.18-.17a.28.28,0,0,0-.41,0h0a.3.3,0,0,0,0,.41l.19.19-.21.21-.19-.18a.28.28,0,0,0-.4,0l-.07.06a.3.3,0,0,0,0,.41l.2.19s-.18.18-.18.18l-.18-.17a.3.3,0,0,0-.41,0l-.05,0a.3.3,0,0,0,0,.41l.2.2-.19.19L25,3.72a.3.3,0,0,0-.41,0l-.05,0a.3.3,0,0,0,0,.41l.19.19-.2.2-.19-.2a.3.3,0,0,0-.41,0l0,0a.28.28,0,0,0,0,.4l.19.2-.19.19-.2-.2a.3.3,0,0,0-.41,0l-.08.09a.27.27,0,0,0,0,.4l.16.17-.22.22L23,5.73a.28.28,0,0,0-.41,0,.3.3,0,0,0,0,.41l.17.16-.19.18-.18-.17a.27.27,0,0,0-.4,0l-.05,0a.3.3,0,0,0,0,.41l.17.17-.17.18-.2-.2a.27.27,0,0,0-.39,0L21.25,7a.3.3,0,0,0,0,.41l.17.16-.22.22L21,7.6a.3.3,0,0,0-.41,0l0,.05a.28.28,0,0,0,0,.4l.16.16-.19.19-.14-.14a.3.3,0,0,0-.41,0l0,0a.3.3,0,0,0,0,.41l.16.16-.19.19-.16-.16a.3.3,0,0,0-.41,0h0a.28.28,0,0,0,0,.41l.13.14-.22.23-.14-.14a.28.28,0,0,0-.41,0l-.06.05a.3.3,0,0,0,0,.41l.13.13-.2.21-.13-.13a.3.3,0,0,0-.41,0l0,0a.3.3,0,0,0,0,.41l.14.14L18,11l-.15-.14a.28.28,0,0,0-.4,0l-.06,0a.3.3,0,0,0,0,.41l.16.16-.19.19-.15-.16a.28.28,0,0,0-.41,0l-.06,0a.3.3,0,0,0,0,.41l.16.16-.21.21-.14-.14a.28.28,0,0,0-.41,0l0,0a.3.3,0,0,0,0,.41l.16.15-.22.22-.17-.16a.28.28,0,0,0-.41,0h0a.28.28,0,0,0,0,.41l.16.17-.21.21-.16-.16a.28.28,0,0,0-.41,0l0,0a.28.28,0,0,0,0,.4L15,14l-.2.2-.14-.15a.3.3,0,0,0-.41,0l0,0a.3.3,0,0,0,0,.41l.15.14-.25.25L14,14.76a.29.29,0,0,0-.41.41l.12.12-.22.21-.11-.1a.28.28,0,0,0-.41,0,.28.28,0,0,0,0,.4l.11.11-.25.25-.1-.11a.3.3,0,0,0-.41,0l0,0a.3.3,0,0,0,0,.41l.08.08L11.23,17.7l-.29-.29-.27.26h-.15L9.18,19l-1-1-.56.56,1.06,1.06L7.59,20.71h-.3L3,25C1.71,26.3.38,28.09.12,28.39s-.07.57.42,1.07.77.69,1.07.42S3.7,28.29,5,27l4.3-4.3v-.3l1.08-1.09,1.06,1.06.56-.56-1-1,1.34-1.34v-.15l.26-.27-.29-.29,1.14-1.13.08.08a.3.3,0,0,0,.41,0l0,0a.3.3,0,0,0,0-.41l-.11-.1.25-.25.11.11a.28.28,0,0,0,.4,0,.28.28,0,0,0,0-.41l-.1-.11.21-.22.12.12a.29.29,0,1,0,.41-.41l-.13-.13.25-.25.14.15a.3.3,0,0,0,.41,0l0,0a.3.3,0,0,0,0-.41l-.15-.14L16,15l.16.16a.28.28,0,0,0,.4,0l0,0a.28.28,0,0,0,0-.41l-.16-.16.21-.21.17.16a.28.28,0,0,0,.41,0h0a.28.28,0,0,0,0-.41L17,14l.22-.22.15.16a.3.3,0,0,0,.41,0l0,0a.28.28,0,0,0,0-.41l-.14-.14.21-.21.16.16a.3.3,0,0,0,.41,0l.05-.06a.28.28,0,0,0,0-.41l-.16-.15.19-.19.16.16a.3.3,0,0,0,.41,0l.05-.06a.28.28,0,0,0,0-.4L19,12l.18-.18.14.14a.3.3,0,0,0,.41,0l0,0a.3.3,0,0,0,0-.41l-.13-.13.21-.2.13.13a.3.3,0,0,0,.41,0l0-.06a.28.28,0,0,0,0-.41l-.14-.14.23-.22.14.13a.28.28,0,0,0,.41,0h0a.3.3,0,0,0,0-.41L21,10.06l.19-.19.16.16a.3.3,0,0,0,.41,0l0,0a.3.3,0,0,0,0-.41l-.14-.14.19-.19.16.16a.28.28,0,0,0,.4,0l0,0a.3.3,0,0,0,0-.41l-.17-.17.22-.22.16.17a.3.3,0,0,0,.41,0l.07-.07a.27.27,0,0,0,0-.39l-.2-.2.18-.17.17.17a.3.3,0,0,0,.41,0l0-.05a.27.27,0,0,0,0-.4l-.17-.18.18-.19.16.17a.3.3,0,0,0,.41,0,.28.28,0,0,0,0-.41l-.14-.15.22-.22.17.16a.27.27,0,0,0,.4,0L25,6.74a.3.3,0,0,0,0-.41l-.2-.2L25,5.94l.2.19a.28.28,0,0,0,.4,0l0,0a.3.3,0,0,0,0-.41l-.2-.19.2-.2.19.19a.3.3,0,0,0,.41,0l.05,0a.3.3,0,0,0,0-.41l-.19-.19.19-.19.2.2a.3.3,0,0,0,.41,0l0-.05a.3.3,0,0,0,0-.41l-.17-.18s.16-.19.18-.18l.19.2a.3.3,0,0,0,.41,0l.06-.07a.28.28,0,0,0,0-.4l-.18-.19.21-.21.19.19a.3.3,0,0,0,.41,0h0a.28.28,0,0,0,0-.41L28.06,3l.19-.19.33.34.86-.86h.14L30,1.84s.14-.19-.75-1.08S28.16,0,28.16,0Z" transform="translate(0 0)" fill="#212121"/><rect width="30" height="30" fill="none"/></svg>