<svg xmlns="http://www.w3.org/2000/svg" viewBox="0 0 30 30"><path d="M27.51,0c-.23,0-.55.35-.55.35L18.61,8.7A2.14,2.14,0,0,0,18,8.26a8.16,8.16,0,0,0-2,.12,2.56,2.56,0,0,0-1.26,1.17c-.09.33.2.64-.36,1.19s-1,0-1.34.37.09,1.13-4.43,5.64-6.87,4.58-7.11,4.59A4.83,4.83,0,0,0,0,22.8C-.06,23.08,0,24,3,27s4,3,4.23,2.95a4.83,4.83,0,0,0,1.46-1.46c0-.24.08-2.6,4.59-7.11S18.57,17.3,18.89,17s-.18-.79.37-1.34.86-.27,1.19-.36A2.56,2.56,0,0,0,21.62,14a8.16,8.16,0,0,0,.12-2,2.14,2.14,0,0,0-.44-.62L29.65,3s.35-.32.35-.55-.52-.81-1.1-1.39S27.73,0,27.51,0Zm-.83,5.11c-1.25,1.25-2.25.46-2.25.46s-.79-1,.46-2.25S27.05,3,27.05,3,28,3.82,26.68,5.11Z" transform="translate(0 0)" fill="#212121"/><rect width="30" height="30" fill="none"/></svg>