<!-- Copyright (c) 2022 - 2023 Jan Stehno -->
<svg xmlns="http://www.w3.org/2000/svg" viewBox="0 0 300 300"><title>wildturkeymouthcaller</title><g id="Layer_23" data-name="Layer 23"><g id="wildturkeymouthcaller"><path d="M274.68,196.25l-6.37-30a14.67,14.67,0,0,0-1.49-4l-25-45.4a14.4,14.4,0,0,0-4.41-4.9L200.7,86.39a14.59,14.59,0,0,0-6.37-2.48l-44.33-6-44.33,6a14.59,14.59,0,0,0-6.37,2.48L62.63,112a14.4,14.4,0,0,0-4.41,4.9l-25,45.4a14.67,14.67,0,0,0-1.49,4l-6.37,30a14.57,14.57,0,0,0,2.73,11.94l6.42,8.29A14.57,14.57,0,0,0,46,222.12h67.1s-8.3-57.18,36.93-57.18,36.93,57.18,36.93,57.18H254a14.57,14.57,0,0,0,11.5-5.64l6.42-8.29A14.57,14.57,0,0,0,274.68,196.25Z" transform="translate(0)" fill="#212121"/><path d="M150,169.05c-40.66,0-33.2,53.07-33.2,53.07h1.91l6.77-6.78h0a11.19,11.19,0,1,1,22.38,0h4.26a11.19,11.19,0,1,1,22.38,0h0l6.77,6.78h1.91S190.66,169.05,150,169.05Z" transform="translate(0)" fill="#212121"/></g></g><g id="frame"><rect width="300" height="300" fill="none"/></g></svg>