<!-- Copyright (c) 2022 Jan Stehno -->
<svg xmlns="http://www.w3.org/2000/svg" viewBox="0 0 300 300"><title>wildturkeycrowcaller</title><g id="Layer_23" data-name="Layer 23"><g id="wildturkeycrowcaller"><path d="M275.06,0c-2.29,0-5.48,3.54-5.48,3.54L186.09,87a21.67,21.67,0,0,0-6.23-4.41c-3.09-1.2-16.36.7-20.07,1.19s-11.63,8.33-12.58,11.67,1.94,6.39-3.58,11.91-10.23.5-13.44,3.71.87,11.25-44.27,56.39-68.76,45.76-71.11,45.88S1.08,225.13.22,228s-.62,12.25,29.47,42.34S69.18,300.65,72,299.78s14.47-12.24,14.59-14.59.74-26,45.88-71.11,53.17-41.05,56.39-44.27-1.82-7.91,3.71-13.44,8.57-2.64,11.91-3.58,11.17-8.87,11.67-12.58,2.39-17,1.19-20.07a21.67,21.67,0,0,0-4.41-6.23l83.5-83.49S300,27.23,300,24.94,294.85,16.82,289,11,277.35,0,275.06,0Zm-8.3,51.13c-12.49,12.49-22.43,4.54-22.43,4.54s-8-9.94,4.54-22.43c12.94-12.94,21.6-3.71,21.6-3.71S279.7,38.19,266.76,51.13Z" transform="translate(0 0)" fill="#212121"/></g></g><g id="frame"><rect width="300" height="300" fill="none"/></g></svg>