<svg xmlns="http://www.w3.org/2000/svg" viewBox="0 0 30 30"><path d="M27.47,19.63l-.64-3a1.38,1.38,0,0,0-.15-.4l-2.5-4.54a1.48,1.48,0,0,0-.44-.49L20.07,8.64a1.48,1.48,0,0,0-.64-.25L15,7.79l-4.43.6a1.48,1.48,0,0,0-.64.25L6.26,11.2a1.48,1.48,0,0,0-.44.49l-2.5,4.54a1.38,1.38,0,0,0-.15.4l-.64,3a1.46,1.46,0,0,0,.27,1.19l.65.83a1.46,1.46,0,0,0,1.15.56h6.71s-.83-5.72,3.69-5.72,3.69,5.72,3.69,5.72H25.4a1.46,1.46,0,0,0,1.15-.56l.65-.83A1.46,1.46,0,0,0,27.47,19.63Z" transform="translate(0)" fill="#212121"/><path d="M15,16.9c-4.07,0-3.32,5.31-3.32,5.31h.19l.68-.68h0a1.12,1.12,0,0,1,2.24,0h.42a1.12,1.12,0,0,1,2.24,0h0l.68.68h.19S19.07,16.9,15,16.9Z" transform="translate(0)" fill="#212121"/><rect width="30" height="30" fill="none"/></svg>